<svg version="1.1" xmlns="http://www.w3.org/2000/svg" xmlns:xlink="http://www.w3.org/1999/xlink" width="156.68135" height="181.38975" viewBox="0,0,156.68135,181.38975"><g transform="translate(-147.15199,-62.44358)"><g data-paper-data="{&quot;isPaintingLayer&quot;:true}" fill-rule="nonzero" stroke-linejoin="miter" stroke-miterlimit="10" stroke-dasharray="" stroke-dashoffset="0" style="mix-blend-mode: normal"><path d="M176.16668,243.83333v-127.66667h127.66667v127.66667z" fill="none" stroke="none" stroke-width="NaN" stroke-linecap="butt"/><g stroke="#000000"><g><path d="M218.45286,170.48718l-9.81728,-6.2862c0,0 -4.01,5.28828 -6.84691,3.44023c-2.6267,-1.7111 -1.35842,-5.2343 -1.35842,-5.2343c0,0 -8.25764,3.75419 -9.0982,2.96134c-1.91854,-1.80961 -1.38539,-4.1007 0.31964,-5.96559c1.59948,-1.74946 4.54703,-2.84916 6.26294,-3.74783c1.12426,-0.5888 1.45524,-1.30914 1.45524,-1.30914c0,0 -2.45789,-0.01948 -4.39387,0.11277c-2.46586,0.16846 -4.54781,0.43568 -4.64954,-0.29713c-0.99598,-7.17501 5.29706,-6.51326 10.50936,-5.44673c2.76517,0.56583 5.98283,0.98201 5.98283,0.98201c0,0 -0.80732,-0.58867 -0.83357,-1.75104c-0.07169,-3.17389 1.37667,-8.97372 8.20753,-6.16781c0.91824,0.3772 -2.50961,5.13823 -2.50961,5.13823l2.93563,3.27539l-3.17456,5.19117l9.55061,10.06303z" fill="#f79587" stroke-width="0" stroke-linecap="round"/><path d="M200.43024,162.40691c0,0 -0.05317,0.02417 -0.15143,0.06823c-0.12494,-0.08482 -0.25596,-0.1522 -0.39535,-0.1966c-3.15014,-1.00325 -6.53074,2.73761 -9.73286,-0.01499c0.14116,-0.98493 0.68782,-1.97138 1.50105,-2.86089c1.59948,-1.74946 4.54703,-2.84915 6.26294,-3.74783c1.12425,-0.5888 1.45524,-1.30914 1.45524,-1.30914c0,0 2.42717,0.7211 2.08203,0.72205c0.28812,-0.80856 -2.66529,-2.37055 -3.82256,-2.97319c-1.78419,-0.92913 -4.73998,-0.10442 -7.36338,1.55032c-0.62585,-6.62566 5.48606,-5.9705 10.56987,-4.93026c1.04739,0.21433 3.13744,0.56407 3.13744,0.56407c0,0 2.77142,3.43907 4.998,1.55729c0.38794,-0.32788 -2.15259,-1.13933 -2.15259,-1.13933c0,0 -0.80732,-0.58867 -0.83357,-1.75105c-0.07169,-3.17389 1.3767,-8.97374 8.20753,-6.16783c0.91824,0.3772 -2.5096,5.13823 -2.5096,5.13823l0.43756,0.48819c-0.84242,-0.10536 -1.65457,0.20983 -2.01741,1.3491c-0.60839,1.9103 1.94469,2.33738 1.74646,2.96742c-0.30389,0.9658 -1.01333,1.30092 -1.47534,1.99591c-0.11371,0.16025 -0.20496,0.34055 -0.26779,0.53778c-0.179,0.56203 -0.09007,1.14525 0.19548,1.61169c-1.07541,2.18659 -2.59966,5.8535 -3.23813,6.83961c-0.52649,0.81322 -2.23507,1.964 -3.17671,2.22379c-1.78692,0.49297 -2.43653,-1.55145 -3.50329,-2.37802c0.02787,-0.09327 0.04636,-0.14461 0.04636,-0.14461z" fill="#fde0be" stroke-width="0" stroke-linecap="butt"/><path d="M209.86774,164.98997c1.9254,-2.06157 3.61673,-4.56574 4.19369,-6.8496l5.79077,6.10145c-1.84041,0.94878 -3.68722,2.45562 -4.47188,3.61717c-0.11278,0.14404 -0.2067,0.30607 -0.27686,0.48351z" fill="#fde0be" stroke-width="0" stroke-linecap="butt"/><path d="M200.29014,162.47931c0,0 5.44142,-4.86414 6.92193,-4.46439c3.2236,0.8704 1.28342,6.25848 1.28342,6.25848" fill="none" stroke-width="1" stroke-linecap="round"/><path d="M208.00087,153.70084c0,0 4.0959,2.09023 4.51943,3.52817c0.43811,1.48744 -1.93303,5.25308 -1.93303,5.25308" fill="none" stroke-width="1" stroke-linecap="round"/><path d="M218.45284,170.48718l-9.81728,-6.2862c0,0 -4.00999,5.28828 -6.8469,3.44022c-2.6267,-1.7111 -1.35842,-5.23431 -1.35842,-5.23431c0,0 -8.25763,3.75418 -9.0982,2.96135c-1.91854,-1.80961 -1.38539,-4.1007 0.31964,-5.96559c1.59948,-1.74945 4.54704,-2.84915 6.26295,-3.74783c1.12425,-0.5888 1.45522,-1.30914 1.45522,-1.30914c0,0 -2.4579,-0.01947 -4.39387,0.11278c-2.46586,0.16843 -4.54783,0.43566 -4.64956,-0.29714c-0.99597,-7.17501 5.29708,-6.51326 10.50938,-5.44672c2.76517,0.56583 5.98283,0.98201 5.98283,0.98201c0,0 -0.8073,-0.58867 -0.83356,-1.75105c-0.07169,-3.17389 1.37669,-8.97374 8.20753,-6.16781c0.91824,0.3772 -2.5096,5.13823 -2.5096,5.13823l2.93563,3.27539l-3.17456,5.19117l9.55061,10.06303z" fill="none" stroke-width="1" stroke-linecap="round"/></g><g stroke-linecap="round"><path d="M214.29837,173.61093l7.02115,-12.85985c0,0 3.46257,4.55853 7.008,8.85336c3.2251,3.90679 6.58285,7.47032 3.66052,10.92751c-3.66837,4.33976 -17.68966,-6.92103 -17.68966,-6.92103z" fill="#feecf7" stroke-width="0"/><path d="M214.29837,173.61093l0.39642,-0.72609c0.25979,0.10473 0.5254,0.20052 0.79666,0.2869c1.04892,0.33408 8.73558,1.43222 9.7378,1.30739c2.74192,0.53841 2.15496,-1.53807 3.02332,-4.2646c0.05611,-0.17618 0.103,-0.35309 0.14096,-0.53021c3.20458,3.8755 6.49694,7.41403 3.59452,10.84766c-3.66837,4.33976 -17.68967,-6.92105 -17.68967,-6.92105z" fill="#dc94e7" stroke-width="0"/><path d="M214.29837,173.61093l7.02115,-12.85985c0,0 3.46257,4.55853 7.00799,8.85336c3.22507,3.90678 6.58286,7.47033 3.66052,10.92751c-3.66837,4.33976 -17.68966,-6.92103 -17.68966,-6.92103z" fill="none" stroke-width="1"/></g></g><g><path d="M229.21919,193.1053c0,0 1.39092,-3.36858 3.78463,-7.09929c1.27412,-1.98577 2.49586,-4.53679 4.68729,-5.71387c1.99546,-1.07183 4.93381,-0.80029 7.66689,-0.39131c6.3148,0.94494 9.33116,8.15743 9.33116,8.15743z" fill="#f89688" stroke="#000000" stroke-width="1" stroke-linecap="butt"/><path d="M228.94629,193.26787c0,0 7.57326,-3.32608 13.93343,-4.50733c4.07746,-0.75729 12.15862,-0.95638 12.15862,-0.95638l6.35575,14.94159l-40.69911,1.44956c0,0 -3.84157,-8.87466 -2.51107,-10.63669c0.51124,-0.67705 10.7624,-0.29075 10.7624,-0.29075z" fill="#0066cd" stroke="#000000" stroke-width="0" stroke-linecap="round"/><path d="M220.69497,204.1953c0,0 -2.48891,-5.74978 -2.76616,-8.91207c1.60468,-0.04097 3.55231,-0.79554 5.12842,-0.78882c2.21826,0.00947 6.09094,1.21487 8.18292,1.89998c3.0425,0.9964 6.64048,-0.38223 9.28249,1.26236c1.30988,0.81536 2.66213,1.56407 4.07691,2.11079c0.36983,0.23182 0.68731,0.44656 0.80457,0.57757c0.48029,0.53662 1.68916,1.69424 3.17568,2.85703z" fill="#061382" stroke="#000000" stroke-width="0" stroke-linecap="butt"/><path d="M242.87971,188.76053c4.07745,-0.75729 12.15862,-0.95638 12.15862,-0.95638l6.35575,14.94159l-3.48557,0.12414c0.17544,-2.82462 -1.40429,-5.85138 -3.61076,-7.24181c-0.0605,-0.09105 -0.12816,-0.1816 -0.20334,-0.27144c-3.49966,-4.18251 -8.29833,-5.46688 -13.72994,-6.04056c0.84604,-0.21327 1.69084,-0.40242 2.51525,-0.55554z" fill="#061382" stroke="#000000" stroke-width="0" stroke-linecap="butt"/><path d="M228.94629,193.26787c0,0 7.57326,-3.32608 13.93343,-4.50733c4.07746,-0.75729 12.15862,-0.95638 12.15862,-0.95638l6.35575,14.94159l-40.69911,1.44956c0,0 -3.84157,-8.87466 -2.51107,-10.63669c0.51124,-0.67705 10.7624,-0.29075 10.7624,-0.29075z" fill="none" stroke="#000000" stroke-width="1" stroke-linecap="round"/><path d="M207.85195,210.28669c1.80542,0.70627 2.54986,1.58364 4.64157,1.58364c0,0 0.07156,-0.00001 0.17282,0.02093c0.14433,-0.02756 0.25501,-0.0175 0.25501,-0.0175l0.56984,0.05525c4.1904,0.00341 7.46857,0.17318 11.405,-1.51567c5.52461,-2.40699 12.38776,-3.90543 18.08093,-5.79563c0.0734,-0.0327 0.84286,3.4773 0.84286,3.4773c-1.21956,0.41128 -5.65408,1.76718 -8.55751,2.2672c-3.05654,0.52639 -5.8471,0.65634 -5.8471,0.65634c0,0 -0.86173,1.49922 -2.76305,2.98229c-0.7494,0.58455 -2.88239,2.06967 -6.12803,2.51081c-2.51596,0.34197 -9.21476,-0.05582 -13.24962,-0.94865c-3.11469,-0.68921 -4.02535,-1.88686 -4.03802,-1.9381c-0.02901,-0.10212 0.09318,-3.15157 0.21404,-3.28137c0.10615,-0.14177 0.27291,-0.26526 0.5344,-0.28912l0.87176,-0.21772c0.61545,-0.12325 1.23172,-0.24249 1.84863,-0.35816c0,0 0.82197,-0.15412 0.97608,0.66783c0.00108,0.00573 0.0021,0.01143 0.00308,0.01709c0.08579,0.05124 0.14501,0.10271 0.1673,0.12325z" fill="#ffedf8" stroke="none" stroke-width="0.5" stroke-linecap="butt"/><path d="M224.89618,210.41334c5.52461,-2.40699 12.38776,-3.90543 18.08093,-5.79563c0.0734,-0.0327 0.84286,3.4773 0.84286,3.4773c-1.21956,0.41128 -5.65408,1.76718 -8.55751,2.2672c-3.05654,0.52639 -5.8471,0.65634 -5.8471,0.65634c0,0 -0.86173,1.49922 -2.76305,2.98229c-0.7494,0.58455 -2.88239,2.06967 -6.12803,2.51081c-1.50167,0.20411 -4.49345,0.14469 -7.51952,-0.12623c0.03715,-0.05612 0.07338,-0.11353 0.10863,-0.17227c0.48289,-0.80482 0.86631,-2.88553 0.70629,-4.28354c4.03464,0.01047 7.24352,0.12822 11.07649,-1.51625z" fill="#de95ea" stroke="none" stroke-width="0.5" stroke-linecap="butt"/><path d="M207.85195,210.28669c1.80542,0.70627 2.54986,1.58364 4.64157,1.58364c0,0 0.07156,-0.00001 0.17282,0.02093c0.14433,-0.02756 0.25501,-0.0175 0.25501,-0.0175l0.56984,0.05525c4.1904,0.00341 7.46857,0.17318 11.405,-1.51567c5.52461,-2.40699 12.38776,-3.90543 18.08093,-5.79563c0.0734,-0.0327 0.84286,3.4773 0.84286,3.4773c-1.21956,0.41128 -5.65408,1.76718 -8.55751,2.2672c-3.05654,0.52639 -5.8471,0.65634 -5.8471,0.65634c0,0 -0.86173,1.49922 -2.76305,2.98229c-0.7494,0.58455 -2.88239,2.06967 -6.12803,2.51081c-2.51596,0.34197 -9.21476,-0.05582 -13.24962,-0.94865c-3.11469,-0.68921 -4.02535,-1.88686 -4.03802,-1.9381c-0.02901,-0.10212 0.09318,-3.15157 0.21404,-3.28137c0.10615,-0.14177 0.27291,-0.26526 0.5344,-0.28912l0.87176,-0.21772c0.61545,-0.12325 1.23172,-0.24249 1.84863,-0.35816c0,0 0.82197,-0.15412 0.97608,0.66783c0.00108,0.00573 0.0021,0.01143 0.00308,0.01709c0.08579,0.05124 0.14501,0.10271 0.1673,0.12325z" fill="none" stroke="#000000" stroke-width="1" stroke-linecap="butt"/><path d="M228.05427,201.4077c0,0 -2.29463,-7.56979 8.619,-6.27339c1.18054,0.14023 -0.14467,4.82384 -0.14467,4.82384c0,0 1.71131,0.97787 2.81953,1.64694c1.45306,0.87726 2.64418,3.70526 2.64418,3.70526c0,0 -5.42303,1.38386 -12.38646,3.76344c-2.66106,0.90934 -5.45185,3.58286 -8.39115,3.99614c-3.09002,0.43448 -7.0206,0.25106 -10.11665,-0.47992c-3.0322,-0.7159 -5.26395,-1.9661 -5.12168,-2.81949c0.902,-5.41083 10.92743,-5.35221 10.92743,-5.35221l-0.89204,-1.78407l-2.05693,-0.75276c0,0 0.49307,-2.21376 1.95442,-3.60366c1.58675,-1.50916 4.17537,-2.20665 4.81474,-2.27177c1.80653,-0.18399 7.33026,5.40163 7.33026,5.40163z" fill="#ff292e" stroke="#000000" stroke-width="0" stroke-linecap="round"/><path d="M236.5286,199.95813c0,0 1.71131,0.97787 2.81953,1.64694c1.45306,0.87726 2.64418,3.70526 2.64418,3.70526c0,0 -5.42303,1.38386 -12.38646,3.76344c-2.66105,0.90934 -5.45185,3.58285 -8.39115,3.99614c-2.01657,0.28354 -4.39113,0.30393 -6.65812,0.0807c0.73572,-1.11251 0.95892,-2.69265 1.00917,-3.932c0.0002,-0.00486 0.00048,-0.00965 0.00085,-0.01435c0.07329,0.00578 0.14738,0.00872 0.22216,0.00872c0.44431,0 0.86435,-0.10394 1.23711,-0.28885c0.05717,-0.01396 0.10992,-0.03328 0.1567,-0.0596c0.108,-0.06075 0.2037,-0.13389 0.28951,-0.21698c0.56273,-0.54478 0.70117,-1.51672 1.1043,-2.22218l-1.37281,-2.40241c-0.1603,-0.28052 -0.42395,-0.42797 -0.7429,-0.49095l-0.44889,-0.89778l-1.36936,-0.50113c0.93289,-0.3125 1.929,-1.01023 2.84795,-1.36907c1.69752,-0.66287 3.1317,-0.97629 3.41747,-1.26205c0.18058,-0.18059 0.31551,-0.60441 0.44222,-0.82615c0.30321,-0.53062 0.39693,-1.43418 0.39337,-2.40773c2.30463,1.08848 6.31084,5.13958 6.31084,5.13958c0,0 -0.27217,-0.89787 -0.18322,-2.02219c1.14586,-0.03851 3.1178,-0.55161 4.58163,-1.05165c0.89563,-0.07029 1.82358,-0.28117 2.70097,-0.61607c0.30301,-0.11566 0.59999,-0.24612 0.88752,-0.39069c0.33522,0.02199 0.68227,0.06041 1.02864,0.09512c-0.17626,1.24615 -0.5412,2.53592 -0.5412,2.53592z" fill="#ac0e49" stroke="#000000" stroke-width="0" stroke-linecap="round"/><path d="M228.05427,201.4077c0,0 -2.29463,-7.56979 8.619,-6.27339c1.18054,0.14023 -0.14467,4.82384 -0.14467,4.82384c0,0 1.71131,0.97787 2.81953,1.64694c1.45306,0.87726 2.64418,3.70526 2.64418,3.70526c0,0 -5.42303,1.38386 -12.38646,3.76344c-2.66106,0.90934 -5.45185,3.58286 -8.39115,3.99614c-3.09002,0.43448 -7.0206,0.25106 -10.11665,-0.47992c-3.0322,-0.7159 -5.26395,-1.9661 -5.12168,-2.81949c0.902,-5.41083 10.92743,-5.35221 10.92743,-5.35221l-0.89204,-1.78407l-2.05693,-0.75276c0,0 0.49307,-2.21376 1.95442,-3.60366c1.58675,-1.50916 4.17537,-2.20665 4.81474,-2.27177c1.80653,-0.18399 7.33026,5.40163 7.33026,5.40163z" fill="none" stroke="#000000" stroke-width="1" stroke-linecap="round"/><path d="M231.73391,199.2891l1.56106,-0.33451" fill="none" stroke="#000000" stroke-width="1.5" stroke-linecap="round"/><path d="M224.45353,203.78782c0,0 0.40861,0.08172 0.59127,0.41822c0.21707,0.13609 0.49151,0.41762 0.34045,0.93123c-0.23598,0.80231 -1.03827,0.56633 -1.03827,0.56633l-1.10932,-0.33513c-0.16865,-0.10969 -0.34194,-0.20361 -0.51914,-0.28358c-0.16654,-0.04738 -0.33247,-0.09686 -0.49771,-0.1483l-0.70153,-0.15942c0,0 -0.06467,-0.01492 -0.15336,-0.05458c-0.92279,-0.11001 -1.89481,-0.00006 -2.83451,0.12735c0,0 -0.82895,0.11052 -0.93947,-0.71842c-0.11052,-0.82895 0.71842,-0.93947 0.71842,-0.93947c1.67724,-0.22031 3.46946,-0.36423 5.00866,0.3252c0.37487,0.10372 0.7533,0.19487 1.13454,0.27057z" fill="#d791e2" stroke="#000000" stroke-width="1" stroke-linecap="butt"/><path d="M220.62417,201.03829l0.38195,-0.08181c0.76154,-0.04312 1.41672,0.09866 2.05097,0.26049c1.02012,-0.00553 2.0415,0.025 3.04864,0.09163l0.56095,0.15844c0,0 0.79337,0.26446 0.52891,1.05782c-0.0819,0.2457 -0.21453,0.38995 -0.35862,0.47202c-0.1615,0.10635 -0.31821,0.13994 -0.31821,0.13994c-1.21613,0.25423 -2.19716,-0.01206 -3.18162,-0.24929c-0.92026,-0.00101 -1.84068,0.02897 -2.74794,0.08995c0,0 -0.83442,0.05563 -0.89006,-0.7788c-0.02842,-0.42621 0.1754,-0.64925 0.3816,-0.76546c0.17942,-0.30393 0.54343,-0.39493 0.54343,-0.39493z" fill="#d791e2" stroke="#000000" stroke-width="1" stroke-linecap="butt"/><path d="M213.31809,205.93502c-0.20257,-0.09722 -0.40046,-0.29278 -0.42658,-0.68466c-0.05563,-0.83443 0.7788,-0.89006 0.7788,-0.89006c1.97493,-0.13066 4.55285,0.12302 6.47783,0.59728c0.72558,0.17876 2.9135,0.9737 1.50714,2.52823c-0.43147,0.47693 -1.2923,0.00946 -1.92712,-0.09361c-1.91159,-0.31036 -3.76588,-1.06732 -5.76094,-1.18675l-0.00652,0.00163c0,0 -0.39556,0 -0.64259,-0.27205z" fill="#fff0fd" stroke="none" stroke-width="0.5" stroke-linecap="butt"/><path d="M220.14814,204.95758c0.72558,0.17876 2.9135,0.9737 1.50714,2.52823c-0.43147,0.47693 -1.2923,0.00946 -1.92712,-0.09361c-0.36698,-0.05958 -0.73184,-0.13562 -1.096,-0.22044c0.32872,-0.45747 0.5223,-1.01857 0.5223,-1.6249c0,-0.288 -0.04368,-0.56582 -0.12477,-0.82716c0.38965,0.07118 0.76505,0.15082 1.11846,0.23788z" fill="#de95ea" stroke="none" stroke-width="0.5" stroke-linecap="butt"/><path d="M213.31809,205.93502c-0.20257,-0.09722 -0.40046,-0.29278 -0.42658,-0.68466c-0.05563,-0.83443 0.7788,-0.89006 0.7788,-0.89006c1.97493,-0.13066 4.55285,0.12302 6.47783,0.59728c0.72558,0.17876 2.9135,0.9737 1.50714,2.52823c-0.43147,0.47693 -1.2923,0.00946 -1.92712,-0.09361c-1.91159,-0.31036 -3.76588,-1.06732 -5.76094,-1.18675l-0.00652,0.00163c0,0 -0.39556,0 -0.64259,-0.27205z" fill="none" stroke="#000000" stroke-width="1" stroke-linecap="butt"/><path d="M239.42797,211.82004c3.82187,-3.82082 7.77789,-3.05568 12.6486,-4.77755c6.29826,-1.98936 12.79619,-4.63363 18.23927,-0.01786c0,0 0.43792,0.37536 0.27467,0.8663l0.10976,1.2039c-0.54944,2.16183 -1.29715,3.98584 -2.44897,5.65157c-0.30951,0.44761 -2.20215,2.34659 -4.48785,3.85404c-2.33975,1.5431 -5.08859,2.69559 -6.72679,3.18363c-3.17927,0.94716 -7.08277,0.63271 -10.29613,0.12625c-2.13063,-0.33581 -7.72843,-2.79898 -7.30099,-7.84945c0,0 -0.3618,-2.19499 -0.01157,-2.24082z" fill="#de95ea" stroke="none" stroke-width="0.5" stroke-linecap="butt"/><path d="M239.42797,211.82004c3.82187,-3.82082 7.77789,-3.05568 12.6486,-4.77755c2.45238,-0.77461 4.93503,-1.6485 7.3739,-2.15444c5.1849,0.27482 7.25146,3.97697 7.18139,8.30712c-0.07058,4.36243 -14.3888,7.95027 -17.7168,7.87427c-1.6621,-0.03796 -3.49061,-0.48026 -5.17368,-0.25567c-2.23908,-1.21109 -4.58408,-3.41792 -4.30183,-6.75293c0,0 -0.3618,-2.19499 -0.01157,-2.24082z" fill="#fdebf6" stroke="none" stroke-width="0.5" stroke-linecap="butt"/><path d="M239.42797,211.82004c3.82187,-3.82082 7.77789,-3.05568 12.6486,-4.77755c6.29826,-1.98936 12.79619,-4.63363 18.23927,-0.01786c0,0 0.43792,0.37536 0.27467,0.8663l0.10976,1.2039c-0.54944,2.16183 -1.29715,3.98584 -2.44897,5.65157c-0.30951,0.44761 -2.20215,2.34659 -4.48785,3.85404c-2.33975,1.5431 -5.08859,2.69559 -6.72679,3.18363c-3.17927,0.94716 -7.08277,0.63271 -10.29613,0.12625c-2.13063,-0.33581 -7.72843,-2.79898 -7.30099,-7.84945c0,0 -0.3618,-2.19499 -0.01157,-2.24082z" fill="none" stroke="#000000" stroke-width="1" stroke-linecap="butt"/><path d="M242.54104,206.30978c0,0 -3.8121,3.08216 -5.29829,3.26664c-1.41025,0.17506 -2.45397,-2.56836 -2.41942,-2.85233c0.0881,-0.72439 8.06983,-4.81581 8.06983,-4.81581c0,0 -0.08674,-0.71264 0.48334,-1.34976c0.95362,-1.06578 3.2175,-2.44792 6.93826,-3.79109c2.59236,-0.93582 6.95947,-1.67427 8.95077,-1.06144c0.72576,0.22335 0.88148,2.15293 0.88148,2.15293c0,0 2.22629,0.58597 3.22461,0.67926c1.08724,0.10161 3.05485,-0.09239 3.05485,-0.09239c0,0 0.96489,1.88483 -0.21128,3.2395c-0.53156,0.61224 -2.19488,1.57279 -2.19488,1.57279c0,0 3.50115,1.89339 3.45974,4.69488c-0.06329,4.28165 -4.81493,10.09675 -15.38046,10.94437c-1.58322,0.12701 -7.71452,-0.74487 -9.20033,-3.71328c-2.42232,-4.83943 1.28501,-7.17237 1.28501,-7.17237z" fill="#ac0e49" stroke="#000000" stroke-width="0" stroke-linecap="round"/><path d="M242.54104,206.30978c0,0 -3.8121,3.08216 -5.29829,3.26664c-1.41025,0.17506 -2.45397,-2.56836 -2.41942,-2.85233c0.0881,-0.72439 8.06983,-4.81581 8.06983,-4.81581c0,0 -0.08674,-0.71264 0.48334,-1.34976c0.95362,-1.06578 3.2175,-2.44792 6.93826,-3.79109c2.59236,-0.93582 6.95947,-1.67427 8.95077,-1.06144c0.72576,0.22335 0.88148,2.15293 0.88148,2.15293c0,0 2.22629,0.58597 3.22461,0.67926c1.08724,0.10161 3.05485,-0.09239 3.05485,-0.09239c0,0 0.11312,0.22095 0.21467,0.56593c-1.0931,0.55768 -1.9617,1.33327 -2.72075,2.27002c-0.07882,0.0338 -1.1921,0.55473 -1.92189,-0.01754c-1.04128,-0.81654 -1.78815,-2.82524 -1.78815,-2.82524l-1.80276,-2.5286c0,0 0.86375,1.74644 -0.44603,2.98309c-1.36664,1.29034 -5.2977,3.65535 -8.69557,4.40449c-3.36382,0.74165 -6.20157,-0.12608 -6.20157,-0.12608l-0.61052,3.12952l1.65122,1.69586l-1.54713,2.50438l3.0085,-0.07466c0,0 14.02003,-3.92308 16.10279,-4.15004c0.84501,-0.09208 4.16456,2.16863 4.16456,2.16863l-2.47186,4.58436c0,0 -1.27137,-0.15531 -3.75944,0.21191c-4.34127,0.64075 -10.41518,1.8843 -11.0139,2.3912c-0.30942,0.16153 -0.58475,0.37944 -0.81235,0.64009c-0.56287,0.3852 -0.97729,0.97145 -1.13978,1.65531c-1.61606,-0.58844 -3.10167,-1.4746 -3.73725,-2.74437c-2.42232,-4.83943 1.28501,-7.17237 1.28501,-7.17237z" fill="#ff292e" stroke="#000000" stroke-width="0" stroke-linecap="round"/><path d="M242.54104,206.30978c0,0 -3.8121,3.08216 -5.29829,3.26664c-1.41025,0.17506 -2.45397,-2.56836 -2.41942,-2.85233c0.0881,-0.72439 8.06983,-4.81581 8.06983,-4.81581c0,0 -0.08674,-0.71264 0.48334,-1.34976c0.95362,-1.06578 3.2175,-2.44792 6.93826,-3.79109c2.59236,-0.93582 6.95947,-1.67427 8.95077,-1.06144c0.72576,0.22335 0.88148,2.15293 0.88148,2.15293c0,0 2.22629,0.58597 3.22461,0.67926c1.08724,0.10161 3.05485,-0.09239 3.05485,-0.09239c0,0 0.96489,1.88483 -0.21128,3.2395c-0.53156,0.61224 -2.19488,1.57279 -2.19488,1.57279c0,0 3.50115,1.89339 3.45974,4.69488c-0.06329,4.28165 -4.81493,10.09675 -15.38046,10.94437c-1.58322,0.12701 -7.71452,-0.74487 -9.20033,-3.71328c-2.42232,-4.83943 1.28501,-7.17237 1.28501,-7.17237z" fill="none" stroke="#000000" stroke-width="1" stroke-linecap="round"/><path d="M242.65841,206.54453l-0.58686,-1.05636" fill="none" stroke="#000000" stroke-width="1" stroke-linecap="round"/><path d="M244.8885,204.07969l-1.87797,-2.11271" fill="none" stroke="#000000" stroke-width="1" stroke-linecap="round"/><path d="M259.97094,198.15234c0,0 -0.2183,1.74906 -1.49904,2.46779c-3.52137,1.97617 -10.29695,3.16612 -10.29695,3.16612" fill="none" stroke="#000000" stroke-width="1" stroke-linecap="round"/><path d="M263.78555,203.02333l-2.87564,0.05868" fill="none" stroke="#000000" stroke-width="1" stroke-linecap="round"/><path d="M245.7101,207.65957l-1.70191,0.17605" fill="none" stroke="#000000" stroke-width="1" stroke-linecap="round"/><path d="M259.72126,202.7667c0.374,0.74799 -0.374,1.12199 -0.374,1.12199l-0.44485,0.21563c-3.84821,1.37231 -7.6633,3.14229 -11.83294,2.92292c0,0 -0.83483,-0.04911 -0.78573,-0.88395c0.04911,-0.83484 0.88394,-0.78574 0.88394,-0.78574c3.89341,0.25901 7.58562,-1.54564 11.17219,-2.82835l0.25939,-0.13649c0,0 0.74799,-0.374 1.122,0.374z" fill="#de95ea" stroke="none" stroke-width="0.5" stroke-linecap="butt"/><path d="M245.51938,210.65259c0,-0.83628 0.83628,-0.83628 0.83628,-0.83628l-0.05185,0.00733c5.73031,-0.76077 10.56578,-2.70284 16.02674,-4.65354c0,0 0.78756,-0.28127 1.06883,0.50629c0.28127,0.78757 -0.50629,1.06884 -0.50629,1.06884c-5.56049,1.98555 -10.52612,3.9538 -16.36824,4.73631l-0.16921,0.00734c0,0 -0.83628,0 -0.83628,-0.83628z" fill="#de95ea" stroke="none" stroke-width="0.5" stroke-linecap="butt"/><path d="M261.45277,204.78393c0,0.78839 -0.74324,0.83354 -0.82837,0.83613c-4.0974,1.88209 -9.24978,3.62026 -13.74362,3.9303c0,0 -0.83443,0.05563 -0.89006,-0.7788c-0.05563,-0.83443 0.7788,-0.89006 0.7788,-0.89006c4.33173,-0.27723 9.40153,-2.01424 13.31726,-3.85539l0.5297,-0.07845c0,0 0.83628,0 0.83628,0.83628z" fill="#de95ea" stroke="none" stroke-width="0.5" stroke-linecap="butt"/><path d="M247.06946,207.02724c0,0 -0.83483,-0.04911 -0.78573,-0.88395c0.00264,-0.04507 0.00759,-0.08756 0.01456,-0.12763c0.14365,0.3458 0.4465,0.69104 0.8214,1.01412c-0.01675,-0.00083 -0.03348,-0.00167 -0.05024,-0.00255z" fill="#ffeffc" stroke="none" stroke-width="0.5" stroke-linecap="butt"/><path d="M253.85827,204.26492c-0.03692,-0.00769 -0.07563,-0.01758 -0.11603,-0.02952c0.06511,-0.02228 0.13017,-0.04474 0.19519,-0.06734c-0.03881,0.05857 -0.06938,0.0989 -0.07916,0.09686z" fill="#ffeffc" stroke="none" stroke-width="0.5" stroke-linecap="butt"/><path d="M245.51938,210.65259c0,-0.83628 0.83628,-0.83628 0.83628,-0.83628l-0.05185,0.00733c1.50717,-0.20009 2.95243,-0.48191 4.36345,-0.82411c1.26357,0.47067 2.48598,0.7456 3.63347,0.72443c-2.50054,0.76567 -5.04225,1.39142 -7.77586,1.75757l-0.16921,0.00734c0,0 -0.83628,0 -0.83628,-0.83628z" fill="#ffeffc" stroke="none" stroke-width="0.5" stroke-linecap="butt"/><path d="M262.33054,205.17009c0,0 0.78756,-0.28127 1.06883,0.50629c0.28127,0.78757 -0.50629,1.06884 -0.50629,1.06884c-1.85683,0.66304 -3.64732,1.32416 -5.42627,1.93983c0.63251,-0.46446 1.21844,-1.0989 1.7483,-1.93152c0.11061,-0.17382 0.21678,-0.36645 0.31523,-0.57272c0.91981,-0.33254 1.85054,-0.67149 2.80019,-1.01071z" fill="#ffeffc" stroke="none" stroke-width="0.5" stroke-linecap="butt"/><path d="M246.88078,209.55035c0,0 -0.83443,0.05563 -0.89006,-0.7788c-0.05563,-0.83443 0.7788,-0.89006 0.7788,-0.89006c0.44146,-0.02826 0.89057,-0.07166 1.34535,-0.12881c0.66497,0.41901 1.33511,0.74561 1.69787,0.90238c0.28959,0.12514 0.57746,0.24143 0.86322,0.34769c-1.29092,0.27165 -2.56761,0.4629 -3.79516,0.5476z" fill="#ffeffc" stroke="none" stroke-width="0.5" stroke-linecap="butt"/><path d="M261.45277,204.78393c0,0.78839 -0.74324,0.83354 -0.82837,0.83613c-0.34338,0.15772 -0.69416,0.31444 -1.05134,0.46939c0.2844,-0.62165 0.49728,-1.35604 0.55461,-2.0694l0.48882,-0.07241c0,0 0.83628,0 0.83628,0.83628z" fill="#ffeffc" stroke="none" stroke-width="0.5" stroke-linecap="butt"/><path d="M259.72126,202.7667c0.374,0.74799 -0.374,1.12199 -0.374,1.12199l-0.44485,0.21563c-3.84821,1.37231 -7.6633,3.14229 -11.83294,2.92292c0,0 -0.83483,-0.04911 -0.78573,-0.88395c0.04911,-0.83484 0.88394,-0.78574 0.88394,-0.78574c3.89341,0.25901 7.58562,-1.54564 11.17219,-2.82835l0.25939,-0.13649c0,0 0.74799,-0.374 1.122,0.374z" fill="none" stroke="#000000" stroke-width="1" stroke-linecap="butt"/><path d="M245.51938,210.65259c0,-0.83628 0.83628,-0.83628 0.83628,-0.83628l-0.05185,0.00733c5.73031,-0.76077 10.56578,-2.70284 16.02674,-4.65354c0,0 0.78756,-0.28127 1.06883,0.50629c0.28127,0.78757 -0.50629,1.06884 -0.50629,1.06884c-5.56049,1.98555 -10.52612,3.9538 -16.36824,4.73631l-0.16921,0.00734c0,0 -0.83628,0 -0.83628,-0.83628z" fill="none" stroke="#000000" stroke-width="1" stroke-linecap="butt"/><path d="M261.45277,204.78393c0,0.78839 -0.74324,0.83354 -0.82837,0.83613c-4.0974,1.88209 -9.24978,3.62026 -13.74362,3.9303c0,0 -0.83443,0.05563 -0.89006,-0.7788c-0.05563,-0.83443 0.7788,-0.89006 0.7788,-0.89006c4.33173,-0.27723 9.40153,-2.01424 13.31726,-3.85539l0.5297,-0.07845c0,0 0.83628,0 0.83628,0.83628z" fill="none" stroke="#000000" stroke-width="1" stroke-linecap="butt"/></g><g><path d="M257.26395,173.20365l4.8608,-0.04484c0,0 -3.03045,-4.6694 -0.95776,-5.80511c2.86286,-1.56869 4.43222,3.73591 4.43222,3.73591c0,0 -0.79118,-4.9272 -0.23272,-6.29146c0.57792,-1.41185 3.66306,-1.03899 3.92651,-0.59856c1.4795,2.47332 0.88877,8.51165 0.88877,8.51165c0,0 2.25105,-4.39973 3.89745,-4.75841c1.1182,-0.2436 1.91202,3.30711 1.70849,3.88532c-1.36727,3.88438 -6.19911,9.1446 -6.19911,9.1446c0,0 1.87543,1.23491 2.39777,2.70753c0.69391,1.95631 -0.27132,4.43634 -4.05106,4.27629c-1.20649,-0.05108 -0.43483,-2.89026 -0.43483,-2.89026c0,0 -2.43727,-0.39681 -2.95115,-1.00145c-0.54385,-0.63989 -0.22715,-2.73816 -0.22715,-2.73816l-6.05142,-0.14253z" fill="#f89688" stroke="#000000" stroke-width="0" stroke-linecap="round"/><path d="M261.16701,167.35369c1.98406,-1.08715 3.34685,1.1269 3.99658,2.58862c-0.00291,-0.0054 -0.00585,-0.01081 -0.00875,-0.01622c0,0 -0.26514,-0.49044 -0.75557,-0.2253c-0.21224,0.11473 -0.28299,0.27167 -0.29494,0.41279c-1.07378,0.42931 -0.7711,1.71531 -0.78059,3.06594c-0.43754,-0.02813 -0.86691,-0.08693 -1.29207,-0.16942c-0.49398,-0.80493 -2.7168,-4.64154 -0.86464,-5.6564z" fill="#fcdfbd" stroke="#000000" stroke-width="0" stroke-linecap="butt"/><path d="M265.69199,170.53411c0.00613,-0.26025 -0.11212,-0.40184 -0.23993,-0.47885c-0.19798,-1.5217 -0.48219,-4.28812 -0.08556,-5.25712c0.57792,-1.41185 3.66306,-1.03899 3.92651,-0.59856c0.53516,0.89465 0.79946,2.25575 0.91882,3.62879c-0.07022,-0.16279 -0.15141,-0.31491 -0.24436,-0.45375c-0.55193,-0.12468 -1.79666,-0.4655 -2.3193,-0.01753c-1.31295,1.1254 0.73216,7.32454 -1.83594,3.64713c-0.056,-0.08018 -0.11068,-0.16131 -0.16415,-0.24326c0.02563,-0.06251 0.04179,-0.13732 0.04389,-0.22686z" fill="#fcdfbd" stroke="#000000" stroke-width="0" stroke-linecap="butt"/><path d="M270.18178,172.71122c0,0 2.25105,-4.39973 3.89745,-4.75841c1.1182,-0.2436 1.91202,3.30711 1.70849,3.88532c-0.15541,0.4415 -0.35557,0.90079 -0.58831,1.36809c-0.75111,-1.35926 -1.52577,-2.665 -3.20868,-1.11825c-0.27627,0.41766 -0.53646,0.84936 -0.74423,1.30499c-0.1143,0.25065 -1.17401,2.30963 -1.6047,1.77925c-0.42488,-0.52323 0.35748,-2.15723 0.51641,-2.60864c0.0164,-0.04658 0.03243,-0.09408 0.04807,-0.14247c-0.01433,0.18618 -0.0245,0.2901 -0.0245,0.2901z" fill="#fcdfbd" stroke="#000000" stroke-width="0" stroke-linecap="butt"/><path d="M257.26395,173.20365l4.8608,-0.04486c0,0 -3.03046,-4.6694 -0.95777,-5.80511c2.86286,-1.56869 4.43223,3.73591 4.43223,3.73591c0,0 -0.79118,-4.9272 -0.23273,-6.29145c0.57792,-1.41185 3.66307,-1.03899 3.92651,-0.59856c1.47951,2.47333 0.88877,8.51165 0.88877,8.51165c0,0 2.25105,-4.39973 3.89746,-4.75841c1.1182,-0.2436 1.91201,3.30712 1.70849,3.88534c-1.36728,3.88438 -6.19911,9.14459 -6.19911,9.14459c0,0 1.87543,1.23491 2.39778,2.70753c0.69391,1.9563 -0.27132,4.43634 -4.05107,4.27629c-1.20649,-0.05109 -0.43483,-2.89026 -0.43483,-2.89026c0,0 -2.43727,-0.39681 -2.95116,-1.00145c-0.54385,-0.63989 -0.22715,-2.73816 -0.22715,-2.73816l-6.05142,-0.14253z" fill="none" stroke="#000000" stroke-width="1" stroke-linecap="round"/><path d="M261.64514,173.22717l2.62572,0.14152" fill="none" stroke="#000000" stroke-width="1" stroke-linecap="round"/><path d="M224.19346,187.08368l5.27987,-14.45491l18.97675,-0.66839c0,0 5.75639,-5.22173 9.91623,2.10626c0.27328,0.48142 0.96812,2.90688 1.04304,5.07981c0.08486,2.4613 -0.46951,4.6699 -0.46951,4.6699l-5.50838,-0.10711l1.37134,2.66136l-14.9028,0.20667l-8.80654,5.21001c0,0 -2.10339,-0.87671 -3.07691,-1.54035c-1.25447,-0.85516 -3.8231,-3.16326 -3.8231,-3.16326z" fill="#feecf7" stroke="#000000" stroke-width="0" stroke-linecap="round"/><path d="M224.97116,184.95453l4.50217,-12.32576l18.97675,-0.66839c0,0 5.75639,-5.22173 9.91623,2.10626c0.27328,0.48142 0.96812,2.90688 1.04304,5.07981c0.08486,2.4613 -0.46951,4.6699 -0.46951,4.6699l-5.50838,-0.10711l-3.50055,-3.58784c0,0 -1.685,-2.72814 -11.2804,-2.27447c-7.24655,0.34262 -13.67933,7.1076 -13.67933,7.1076z" fill="#dc94e7" stroke="#000000" stroke-width="0" stroke-linecap="round"/><path d="M224.19346,187.08367l5.27987,-14.45491l18.97675,-0.66839c0,0 5.75639,-5.22173 9.91623,2.10626c0.27329,0.48142 0.96812,2.90688 1.04304,5.07981c0.08485,2.4613 -0.46951,4.6699 -0.46951,4.6699l-5.50838,-0.10711l1.37134,2.66135l-14.9028,0.20667l-8.80653,5.21001c0,0 -2.10339,-0.87671 -3.07691,-1.54035c-1.25447,-0.85516 -3.8231,-3.16325 -3.8231,-3.16325z" fill="none" stroke="#000000" stroke-width="1" stroke-linecap="round"/><path d="M253.2722,183.70549l-4.63491,-6.16394" fill="none" stroke="#000000" stroke-width="1" stroke-linecap="round"/><path d="M233.82606,187.39022c-1.36323,-0.03211 -2.15537,-1.46689 -1.42752,-3.65852c1.28624,-3.87304 6.6427,-5.52686 9.26835,-4.52196c2.69625,1.03193 -0.93594,3.21288 -2.91962,4.78483c-2.32758,1.84447 -4.18519,3.41298 -4.92118,3.39565z" fill="none" stroke="#ff0000" stroke-width="1" stroke-linecap="butt"/><path d="M237.73428,183.81754l-1.99145,-3.39296" fill="none" stroke="#ff0000" stroke-width="1" stroke-linecap="round"/></g><g stroke="#000000"><g stroke-linecap="butt"><path d="M257.29174,171.62708l1.19179,-2.01663c0,0 8.96153,1.69547 10.63103,3.25686c1.17203,1.09611 -0.02172,5.18816 -2.67938,4.96823c-3.53923,-0.29289 -9.14344,-6.20846 -9.14344,-6.20846z" fill="#0066cd" stroke-width="0"/><path d="M257.29174,171.62709l0.42299,-0.71573c0,0 1.91748,0.75591 3.76293,1.68321c1.42634,0.71673 2.61493,1.52463 4.06109,2.23539c1.71997,0.84534 3.41702,1.52139 3.37194,1.594c-0.53494,0.86151 -1.38109,1.50213 -2.4755,1.41158c-3.53924,-0.29288 -9.14345,-6.20847 -9.14345,-6.20847z" fill="#061483" stroke-width="0"/><path d="M257.29174,171.62709l1.19179,-2.01663c0,0 8.96153,1.69548 10.63102,3.25687c1.17204,1.09611 -0.02172,5.18816 -2.67938,4.96823c-3.53924,-0.29288 -9.14345,-6.20847 -9.14345,-6.20847z" fill="none" stroke-width="1"/></g><g stroke-linecap="round"><path d="M218.18016,164.95921c0,0 -2.21009,-26.02984 19.86484,-20.31919c22.63432,5.85537 13.77932,24.89161 13.77932,24.89161c0,0 7.10822,-3.37864 7.8641,-2.63139c0.63804,0.63072 -1.76018,5.17005 -2.99286,6.83051c-0.91085,1.22696 -2.42564,3.98748 -3.81019,3.84237c-0.87146,-0.09135 -3.69935,-3.68489 -3.69935,-3.68489c0,0 -8.22437,2.32718 -15.17359,2.05711c-6.86223,-0.26669 -15.99718,-3.5286 -15.99718,-3.5286c0,0 -6.77968,-2.46303 -6.3772,-4.90178c0.34295,-2.07803 6.54212,-2.55578 6.54212,-2.55578z" fill="#fde0be" stroke-width="0"/><path d="M244.69717,174.92406c-0.03675,0.00716 -0.75839,-2.34066 -0.75839,-2.34066l-3.7146,1.73651l-3.01122,-8.18624l-7.6803,2.57261l0.61091,-6.56931c0,0 -12.02397,0.66307 -12.02372,0.63189c0.05099,-6.14687 1.82097,-22.81229 19.92517,-18.12883c22.63432,5.85537 13.77932,24.89161 13.77932,24.89161c0,0 4.08397,5.34161 3.98624,5.48418c-0.85891,1.25339 -1.92599,2.66206 -2.9252,2.55733c-0.87146,-0.09135 -3.69935,-3.68489 -3.69935,-3.68489c0,0 -1.82815,0.5173 -4.48888,1.03581z" fill="#fc988a" stroke-width="0"/><path d="M251.85839,171.06372l3.32191,-0.64487l-2.30319,4.55959z" fill="#f79587" stroke-width="0.5"/><path d="M238.04499,144.64002c22.63432,5.85537 13.77932,24.89161 13.77932,24.89161c0,0 7.10822,-3.37864 7.8641,-2.63139c0.63804,0.63072 -1.76018,5.17005 -2.99286,6.83051c-0.91085,1.22696 -2.42564,3.98748 -3.81019,3.84237c-0.87146,-0.09135 -3.69935,-3.68489 -3.69935,-3.68489c0,0 -8.22437,2.32718 -15.17359,2.05711c-6.86223,-0.26669 -15.99718,-3.5286 -15.99718,-3.5286c0,0 -6.77968,-2.46303 -6.3772,-4.90178c0.34295,-2.07803 6.54212,-2.55578 6.54212,-2.55578c0,0 -2.21008,-26.02983 19.86485,-20.31918z" fill="none" stroke-width="1"/></g><g stroke-linecap="round"><path d="M259.507,163.96174c0,0 -2.62233,2.88603 -4.02968,3.98349c-1.21529,0.94769 -3.92307,2.21808 -3.92307,2.21808c0,0 -9.31533,-7.45519 -16.37563,-10.04872c-7.2116,-2.64913 -16.99084,-4.16146 -16.99084,-4.16146c0,0 0.63897,-18.22441 4.7717,-19.98563c3.00926,-1.28244 10.79667,-1.31372 17.82069,0.97035c3.20136,1.04102 12.32776,4.1151 14.63875,7.82526c3.09733,4.97261 4.08812,19.19862 4.08812,19.19862z" fill="#ff292e" stroke-width="0"/><path d="M259.507,163.96174c0,0 -2.62234,2.88604 -4.02968,3.98349c-1.21529,0.94769 -3.92306,2.21808 -3.92306,2.21808c0,0 -4.51117,-3.61035 -9.63426,-6.68022c-0.1341,-0.08035 5.6224,-13.15191 9.78537,-17.85187c1.37852,-1.55636 3.13866,-1.79108 3.71354,-0.86811c3.09732,4.97262 4.08811,19.19863 4.08811,19.19863z" fill="#ac0e49" stroke-width="0.5"/><path d="M255.47729,167.94524c-1.21529,0.94769 -3.92306,2.21808 -3.92306,2.21808c0,0 -9.31533,-7.45519 -16.37564,-10.04871c-7.2116,-2.64913 -16.99083,-4.16146 -16.99083,-4.16146c0,0 0.63897,-18.22442 4.7717,-19.98563c3.00927,-1.28245 10.79667,-1.31372 17.82069,0.97035c3.20136,1.04102 12.32776,4.11509 14.63874,7.82525c3.09732,4.97262 4.08811,19.19863 4.08811,19.19863c0,0 -2.62233,2.88603 -4.02968,3.98348z" fill="none" stroke-width="1"/></g><g stroke-linecap="round"><path d="M217.65612,161.66467c0,0 -3.96505,0.05008 -5.82848,0.30024c-1.89196,0.254 -5.439,1.21246 -5.439,1.21246c0,0 2.43546,-3.40083 3.87087,-4.85422c1.36317,-1.38026 4.53605,-3.6581 4.53605,-3.6581l-9.44097,-1.50344c0,0 11.43681,-10.3864 15.28378,-11.08729c2.29437,-0.41802 8.9248,6.28146 8.9248,6.28146c0,0 1.83573,-2.33223 2.97205,-3.35464c1.03473,-0.93104 3.56963,-2.53142 3.56963,-2.53142c0,0 0.11137,6.31533 0.46025,9.44046c0.36346,3.25564 1.67862,9.71787 1.67862,9.71787l13.16338,8.06311l-2.80722,6.22388l-4.18972,-7.30071l-3.30389,2.80852l-2.86256,-9.79479l-5.73655,2.89262l0.03475,-5.20047c0,0 -11.30859,0.08069 -13.98078,0.71192c-0.72842,0.17207 -0.90499,1.63257 -0.90499,1.63257z" fill="#4fa6ec" stroke-width="0"/><path d="M222.7588,153.36239l-16.37015,9.81498c0,0 2.43546,-3.40083 3.87086,-4.85422c1.36316,-1.38026 4.53605,-3.6581 4.53605,-3.6581l-9.44096,-1.50344c0,0 11.4368,-10.3864 15.28378,-11.08729c2.29435,-0.41803 8.92481,6.28146 8.92481,6.28146c0,0 1.83572,-2.33223 2.97204,-3.35464c1.03473,-0.93104 3.56963,-2.53141 3.56963,-2.53141l-5.08757,10.99001c0,0 -7.80754,-6.31561 -10.02304,-6.49519c-3.47717,-0.28184 -9.75431,5.45152 -9.75431,5.45152z" fill="#66ffff" stroke-width="0"/><path d="M242.37345,165.98185l-1.67347,4.05072l-1.73448,-5.93484z" fill="#66ffff" stroke-width="0"/><path d="M206.38865,163.17738c0,0 2.43546,-3.40083 3.87086,-4.85422c1.36316,-1.38026 4.53605,-3.6581 4.53605,-3.6581l-9.44096,-1.50344c0,0 11.4368,-10.3864 15.28378,-11.08729c2.29435,-0.41803 8.92481,6.28146 8.92481,6.28146c0,0 1.83572,-2.33223 2.97204,-3.35464c1.03473,-0.93104 3.56963,-2.53141 3.56963,-2.53141c0,0 0.11136,6.31531 0.46024,9.44043c0.36345,3.25564 1.67862,9.71787 1.67862,9.71787l13.16338,8.06311l-2.80722,6.22388l-4.18972,-7.3007l-3.30389,2.80851l-2.86257,-9.79479l-5.73656,2.89262l0.03475,-5.20047c0,0 -11.30859,0.08069 -13.98078,0.71192c-0.72842,0.17207 -0.90499,1.63257 -0.90499,1.63257c0,0 -3.96503,0.05008 -5.82847,0.30023c-1.86344,0.25016 -5.439,1.21243 -5.439,1.21243z" fill="none" stroke-width="1"/></g></g><g stroke="none" stroke-width="0.5" stroke-linecap="butt"><path d="M226.78764,161.2425c0.46292,0.09568 0.45222,0.50271 0.43828,0.62436c0.78601,1.05225 1.66674,2.02633 2.55205,2.80129l0.08224,0.09681c1.0482,-0.50792 2.04264,-1.05987 3.012,-1.63335l0.20772,-0.27401c0,0 0.24528,-0.31123 0.58464,-0.20213c1.90946,-1.16342 3.75065,-2.38778 5.75127,-3.49448c3.48572,-2.69373 7.95469,-5.12858 12.13837,-6.48975c0.25152,-0.03073 0.50303,-0.06143 0.75456,-0.09216l0.34889,-0.01602c0,0 0.55704,-0.02295 0.58,0.5341c0.02295,0.55704 -0.5341,0.58 -0.5341,0.58l-0.26357,0.00923c-0.21537,0.02462 -0.43072,0.04922 -0.64609,0.07384c-4.05287,1.32733 -8.38954,3.7187 -11.76549,6.33249c-0.28529,0.15748 -0.56758,0.31734 -0.84745,0.4791c-0.56447,2.24323 -2.52805,4.02104 -3.25938,6.22607c-0.23302,0.70259 -0.54085,2.1118 -1.34102,2.46875c-0.46629,0.208 -1.34168,-0.11907 -1.76811,-0.23817c-0.83563,-1.58411 -0.78244,-2.80945 -0.48321,-4.30663c-0.75509,0.42428 -1.52918,0.83214 -2.33389,1.21399c-0.15127,0.09705 -0.29087,0.10129 -0.40564,0.06948c-0.11875,-0.02021 -0.24488,-0.08458 -0.34097,-0.24053l-0.20846,-0.26044c-0.68746,-0.61059 -1.36785,-1.32279 -2.00776,-2.09399c-0.16843,1.57485 -0.41138,3.70941 -0.96066,4.09567c-2.48621,1.7482 -3.18148,-3.83925 -3.07337,-5.00352c0.25614,-1.24798 0.51484,-2.49544 0.77267,-3.74307l0.1652,-0.41479c-1.45234,-3.76206 -3.49191,-6.77155 -3.47017,-11.08718c0,0 0.00357,-0.55752 0.56108,-0.55395c0.55752,0.00357 0.55395,0.56108 0.55395,0.56108c-0.03409,4.32074 2.12315,7.26278 3.5461,11.07912c0.42082,0.95257 0.99074,1.94568 1.64804,2.89642c0.00408,0.00077 0.00817,0.0016 0.0123,0.00246z" fill="#000000"/><path d="M232.93075,173.01649c-0.05536,-0.0355 -0.11187,-0.08368 -0.15596,-0.14812c-2.81096,0.61861 -5.51437,0.24866 -8.11988,-1.80335c0,0 -0.43789,-0.3451 -0.0928,-0.78298c0.3451,-0.43788 0.78298,-0.0928 0.78298,-0.0928c3.23607,2.55201 6.60779,2.17583 10.20336,0.5774c0.42889,-0.24014 0.88479,-0.44159 1.35722,-0.5782c0.045,-0.08042 0.11987,-0.15766 0.23917,-0.22145c0.20911,-0.11179 0.37687,-0.0871 0.50055,-0.02179c0.16552,-0.00208 0.38014,0.05921 0.49756,0.34964c0.06445,0.15934 0.05985,0.28943 0.02271,0.39314c0.94679,1.7533 2.9266,5.6449 0.10151,6.24103c-1.61255,0.34026 -3.1688,-1.60623 -4.32763,-2.442c-0.44378,-0.48164 -0.7116,-0.92283 -1.00879,-1.4705zM234.67733,173.65095c0.86609,0.61699 2.19598,2.29148 3.36954,2.18501c1.46361,-0.13279 -0.11633,-3.25905 -0.83371,-4.57663c-0.40747,0.11223 -0.79729,0.2936 -1.16392,0.50361c-0.70707,0.3111 -1.40749,0.57902 -2.10143,0.79372c0.21122,0.39749 0.4054,0.74643 0.72954,1.09429z" fill="#000000"/><path d="M233.89458,172.54008c0.69392,-0.21468 1.43495,-0.52038 2.14203,-0.83144c0.36663,-0.21 0.78926,-0.38906 1.19674,-0.50129c0.71741,1.31756 2.30757,4.54255 0.84397,4.67533c-1.17355,0.10646 -2.58864,-1.60442 -3.45472,-2.2214c-0.32411,-0.34785 -0.51674,-0.72369 -0.72798,-1.12119z" data-paper-data="{&quot;noHover&quot;:false,&quot;origItem&quot;:[&quot;Path&quot;,{&quot;applyMatrix&quot;:true,&quot;segments&quot;:[[[820.01743,447.02635],[-0.69561,-0.49336],[1.74527,0.76936]],[[826.72931,449.64121],[-2.02274,0.61303],[2.52266,-0.76454]],[[823.60349,441.90486],[1.73842,2.05393],[-0.67499,0.34504]],[[821.74184,443.21199],[0.56777,-0.50199],[-1.12905,0.80311]],[[818.33875,445.36901],[1.14098,-0.629],[0.51531,0.62153]]],&quot;closed&quot;:true}]}" fill="#ff6666"/></g><path d="M204.18743,160.01894c0,0 -10.84718,-6.57787 -15.5693,-20.42057c-3.32149,-9.73683 -5.50939,-24.73694 -8.1447,-30.07453c-4.1401,-8.38541 -14.19318,-17.59738 -14.19318,-17.59738" fill="none" stroke="#000000" stroke-width="2.5" stroke-linecap="round"/><g><path d="M154.41181,78.79136l-2.10725,0.52796l-0.4259,-0.38417c-0.36267,-1.31057 0.52812,-2.33677 1.59645,-3.06411c2.23354,-0.64908 7.95401,-2.95314 8.81836,0.82153c0.40863,1.78453 5.92259,15.38525 5.65949,17.11622c-0.69423,1.64321 -3.4143,2.59072 -4.93699,1.2489c-2.03706,-1.79511 -3.10324,-5.83563 -4.72103,-9.38587c-1.68705,-3.70223 -3.88317,-6.88046 -3.88317,-6.88046z" fill="#465e85" stroke="#000000" stroke-width="0" stroke-linecap="butt"/><path d="M154.41181,78.79136l-2.10725,0.52796l-0.4259,-0.38417c-0.36267,-1.31057 0.52812,-2.33677 1.59645,-3.06411c2.23354,-0.64908 7.95401,-2.95314 8.81836,0.82153c0.06613,0.28877 -4.83765,1.91266 -4.83765,1.91266l5.97372,13.58971l3.29657,-2.11589c0,0 1.28566,3.34283 1.22685,3.72975c-0.69423,1.64321 -3.4143,2.59072 -4.93699,1.2489c-2.03706,-1.79511 -3.10324,-5.83563 -4.72103,-9.38587c-1.68705,-3.70223 -3.88317,-6.88046 -3.88317,-6.88046z" fill="#323344" stroke="#000000" stroke-width="0" stroke-linecap="butt"/><path d="M152.30459,79.31932l-0.4259,-0.38417c-0.36267,-1.31057 0.52812,-2.33677 1.59645,-3.06411c2.23354,-0.64908 7.95401,-2.95314 8.81836,0.82153c0.40863,1.78453 5.92259,15.38525 5.65949,17.11622c-0.69423,1.64321 -3.4143,2.59072 -4.93699,1.2489c-2.03706,-1.79511 -3.10324,-5.83563 -4.72103,-9.38587c-1.68705,-3.70223 -3.88317,-6.88046 -3.88317,-6.88046z" fill="none" stroke="#000000" stroke-width="1" stroke-linecap="butt"/><path d="M162.06373,76.11523c-0.22036,0.51213 -0.73248,0.29176 -0.73248,0.29176l-0.07878,-0.0339c-3.17582,-1.36651 -6.5324,-0.25133 -8.26435,2.81388c0,0 -0.087,0.15302 -0.24922,0.23821l-0.05204,0.27443c0,0 -0.5026,0.2002 -0.71482,-0.28891c-0.06233,-0.03806 -0.12467,-0.07613 -0.187,-0.1142c0,0 -0.26919,-0.16438 -0.27897,-0.44833c-0.22383,-0.2452 -0.07724,-0.58591 -0.07724,-0.58591l0.06519,-0.14061c2.55874,-4.35984 5.75017,-5.24738 10.24501,-3.31334c0,0 0.51213,0.22036 0.29176,0.73248c-0.00508,0.01178 -0.01029,0.02319 -0.01566,0.0342c0.0926,0.11926 0.15337,0.29678 0.04862,0.54023z" fill="#455d83" stroke="none" stroke-width="0.5" stroke-linecap="butt"/><path d="M153.37345,78.57444c-0.32845,-0.44717 -0.75663,-0.81557 -1.23461,-1.04014c-0.04697,-0.06675 -0.09999,-0.12966 -0.15872,-0.18779c0.91961,-1.36864 1.92105,-2.32094 3.03268,-2.88442c0.14381,0.72904 0.26591,1.46729 0.39133,2.19856c-0.7736,0.46211 -1.4652,1.10438 -2.03069,1.9138z" fill="#85afb1" stroke="none" stroke-width="0.5" stroke-linecap="butt"/><path d="M157.45822,73.84278c0.0557,0.69066 0.2331,1.43296 0.44035,1.98778c-0.49888,0.05197 -0.98576,0.16416 -1.45294,0.33434c-0.12242,-0.70395 -0.24302,-1.41088 -0.38289,-2.11101c0.4476,-0.12448 0.91224,-0.19434 1.39549,-0.21112z" fill="#85afb1" stroke="none" stroke-width="0.5" stroke-linecap="butt"/><path d="M162.06373,76.11524c-0.22036,0.51213 -0.73248,0.29176 -0.73248,0.29176l-0.07878,-0.0339c-3.17582,-1.36651 -6.5324,-0.25133 -8.26436,2.81387c0,0 -0.087,0.15302 -0.24922,0.23821l-0.05205,0.27443c0,0 -0.50259,0.2002 -0.71482,-0.28891c-0.06233,-0.03806 -0.12467,-0.07613 -0.187,-0.1142c0,0 -0.26919,-0.16439 -0.27897,-0.44833c-0.22385,-0.24519 -0.07725,-0.5859 -0.07725,-0.5859l0.06519,-0.14061c2.55874,-4.35984 5.75017,-5.24739 10.24501,-3.31334c0,0 0.51213,0.22036 0.29176,0.73248c-0.00507,0.01178 -0.01029,0.02319 -0.01567,0.03421c0.0926,0.11926 0.15337,0.29678 0.04862,0.54023z" fill="none" stroke="#000000" stroke-width="1" stroke-linecap="butt"/><path d="M148.54835,68.57233c1.88168,-4.37312 6.69387,-6.87751 11.067,-4.99582c2.33627,1.00525 3.25325,2.61237 3.93245,4.73739c0.22884,0.71594 0.48882,2.02834 0.41089,3.26462c-0.12371,1.96291 -1.22345,3.49371 -1.44402,3.70771c-0.17564,0.1704 -2.15739,-2.53153 -5.76117,-1.5722c-3.6759,0.97853 -5.93304,4.65997 -5.93304,4.65997c0,0 -1.85267,-1.23822 -2.63303,-2.98089c-0.86956,-1.94189 -0.6308,-4.516 0.36091,-6.82078z" fill="#465e85" stroke="#000000" stroke-width="0" stroke-linecap="butt"/><path d="M148.54835,68.57233c0.23627,-0.5491 0.51875,-1.06873 0.84075,-1.55394c0.01022,0.09419 0.03,0.1868 0.05876,0.2764l-0.00448,0.0211l0.02377,0.03492c0.08177,0.22203 0.21965,0.4231 0.40449,0.58027l0.17846,0.15911l0.1264,0.0663l0.08235,0.12667l0.06448,0.06001l0.03877,0.07907l0.06504,0.07708l0.00176,0.01556l0.03184,0.02427l0.02504,0.02968l0.25972,0.18739l0.2547,0.19415l0.03568,0.01535l0.03247,0.02343l0.0154,-0.00284l0.02684,0.01155l0.01651,0.03367l0.06504,0.07708l0.00176,0.01556l0.03184,0.02427l0.02504,0.02968l0.25972,0.18739l0.2547,0.19415l0.03568,0.01535l0.03247,0.02343l0.0154,-0.00284l6.60977,2.84407l0.03026,0.02184l0.2547,0.19415l0.03568,0.01535l0.03247,0.02343l0.0154,-0.00284l0.20014,0.08611l0.01494,0.02194l0.40492,0.36099l0.156,0.08183l0.24714,0.17831l0.2547,0.19415l0.03568,0.01535l0.03247,0.02343l0.0154,-0.00284l0.43649,0.18781l0.01494,0.02194l0.12852,0.11458l0.12484,0.14796l0.00176,0.01556l0.03184,0.02427l0.02504,0.02968l0.21727,0.15677c-0.97072,-0.59417 -2.45248,-1.15799 -4.41557,-0.63541c-3.6759,0.97853 -5.93304,4.65997 -5.93304,4.65997c0,0 -1.85267,-1.23822 -2.63303,-2.98089c-0.86956,-1.94189 -0.6308,-4.516 0.36091,-6.82078z" fill="#323344" stroke="#000000" stroke-width="0" stroke-linecap="butt"/><path d="M154.78938,66.10795l-0.00354,0.01673l-0.01553,-0.01942z" fill="#323344" stroke="#000000" stroke-width="0" stroke-linecap="butt"/><path d="M148.54835,68.57233c1.88169,-4.37313 6.69388,-6.87751 11.067,-4.99582c2.33627,1.00525 3.25323,2.61237 3.93244,4.7374c0.22884,0.71594 0.48881,2.02834 0.41089,3.26462c-0.12371,1.9629 -1.22344,3.49371 -1.444,3.70771c-0.17564,0.1704 -2.15738,-2.53152 -5.76117,-1.57219c-3.6759,0.97853 -5.93304,4.65997 -5.93304,4.65997c0,0 -1.85269,-1.23821 -2.63303,-2.98089c-0.86956,-1.94189 -0.6308,-4.516 0.36091,-6.82077z" fill="none" stroke="#000000" stroke-width="1" stroke-linecap="butt"/><path d="M149.73581,76.88015c0,0 2.48075,-5.35827 6.10168,-6.01959c3.82864,-0.69925 7.18097,3.14432 7.18097,3.14432" fill="none" stroke="#000000" stroke-width="1" stroke-linecap="round"/><path d="M147.86058,72.99187c0,0 3.40639,-4.42637 7.18249,-5.94398c3.42825,-1.3778 8.03974,1.38213 8.03974,1.38213" fill="none" stroke="#000000" stroke-width="1" stroke-linecap="round"/><path d="M149.09579,67.73407c0,0 4.15532,-2.47724 6.19592,-3.0966c1.84116,-0.55883 5.51097,-0.45668 5.51097,-0.45668" fill="none" stroke="#000000" stroke-width="1" stroke-linecap="round"/><path d="M151.98961,75.98241c0,0 -2.15874,-1.55738 -2.81574,-2.51649c-0.64263,-0.93816 -1.08411,-3.17671 -1.08411,-3.17671" fill="none" stroke="#000000" stroke-width="1" stroke-linecap="round"/><path d="M153.34186,75.44378c0,0 -2.11374,-2.54001 -2.86503,-3.9096c-0.66961,-1.22069 -1.42593,-3.91277 -1.42593,-3.91277" fill="none" stroke="#000000" stroke-width="1" stroke-linecap="round"/><path d="M154.80779,74.20701c0,0 -1.94645,-2.87456 -2.31222,-4.46884c-0.39973,-1.74237 0.00669,-5.58065 0.00669,-5.58065" fill="none" stroke="#000000" stroke-width="1" stroke-linecap="round"/><path d="M155.43219,62.99046c0,0 0.97031,4.81301 1.11282,6.69702c0.11815,1.56211 -0.31712,3.82332 -0.31712,3.82332" fill="none" stroke="#000000" stroke-width="1" stroke-linecap="round"/><path d="M158.91177,63.36716c0,0 1.03316,3.1147 1.04915,4.69918c0.0168,1.66289 -0.95063,5.05429 -0.95063,5.05429" fill="none" stroke="#000000" stroke-width="1" stroke-linecap="round"/><path d="M162.90423,67.32605c0,0 -0.14424,2.17411 -0.43948,3.24934c-0.30806,1.12187 -1.37205,3.34788 -1.37205,3.34788" fill="none" stroke="#000000" stroke-width="1" stroke-linecap="round"/><path d="M162.47405,94.65533c0,0 1.3396,-1.3391 2.12872,-1.62961c0.9007,-0.33159 2.98512,-0.25304 2.98512,-0.25304" fill="none" stroke="#000000" stroke-width="1" stroke-linecap="round"/><path d="M160.53999,78.69693c2.11831,-0.53933 6.32197,1.76439 5.44162,4.33588c-0.43756,1.27808 -2.52079,1.41112 -3.59542,1.7526c-0.99762,0.86581 -3.5372,3.25384 -4.25093,2.16621c-0.33746,-0.06991 -0.542,-0.37034 -0.542,-0.37034c-0.32904,-0.49118 -0.60281,-1.02393 -0.81591,-1.57669c-0.31896,-0.10953 -0.46397,-0.30534 -0.52386,-0.49878c-0.06958,-0.165 -0.08941,-0.37425 0.02695,-0.62042c0.7043,-2.07477 1.92953,-4.59522 4.25956,-5.18845z" fill="#292a39" stroke="#000000" stroke-width="1" stroke-linecap="butt"/><path d="M157.02283,85.34014c0,0 2.53445,-2.17039 3.89696,-2.92079c1.15512,-0.63619 4.00633,-1.34121 4.00633,-1.34121" fill="none" stroke="#000000" stroke-width="0.5" stroke-linecap="round"/><path d="M157.39645,86.41132c0,0 2.798,-2.16537 4.29282,-2.96004c1.41961,-0.7547 4.46207,-1.6942 4.46207,-1.6942" fill="none" stroke="#000000" stroke-width="0.5" stroke-linecap="round"/><path d="M156.48393,84.65305c0,0 2.48991,-2.80816 3.82252,-3.64994c1.13647,-0.71789 3.67882,-1.08848 3.67882,-1.08848" fill="none" stroke="#000000" stroke-width="0.5" stroke-linecap="round"/></g></g></g></svg>