<svg version="1.1" xmlns="http://www.w3.org/2000/svg" xmlns:xlink="http://www.w3.org/1999/xlink" width="374.77477" height="288.28829" viewBox="0,0,374.77477,288.28829"><g transform="translate(-52.61265,-35.85585)"><g data-paper-data="{&quot;isPaintingLayer&quot;:true}" fill-rule="nonzero" stroke-linejoin="miter" stroke-miterlimit="10" stroke-dasharray="" stroke-dashoffset="0" style="mix-blend-mode: normal"><path d="M52.61265,324.14414v-288.28829h374.77477v288.28829z" fill="none" stroke="none" stroke-width="NaN" stroke-linecap="butt"/><path d="M137.75008,136.31301l1.04613,2.36152l-3.12742,1.38541l-1.04613,-2.36152z" data-paper-data="{&quot;index&quot;:null}" fill="#582700" stroke="none" stroke-width="0" stroke-linecap="butt"/><g><g data-paper-data="{&quot;index&quot;:null}"><g stroke="#000000" stroke-width="3" stroke-linecap="round"><path d="M236.25312,178.36657c0,0 7.09966,-8.18438 11.23278,-10.38205c14.32448,9.44334 17.59841,18.89651 17.59841,18.89651c1.47208,1.43215 -4.54073,5.69996 -4.54073,5.69996c0,0 -11.45924,8.7084 -18.79373,14.28225c-4.81612,3.66 -12.34071,9.37832 -12.34071,9.37832c0,0 -4.93654,3.421 -5.66933,2.58596c-4.40855,-5.02373 -9.68608,-9.03451 -10.94397,-12.26645c-0.41929,-1.0773 3.33432,-5.45149 3.33432,-5.45149l20.12296,-22.74299z" data-paper-data="{&quot;origPos&quot;:null}" fill="#582700"/><path d="M240.69933,174.60178l17.8123,18.81404l-2.55537,2.30316l-18.03148,-18.66992z" data-paper-data="{&quot;origPos&quot;:null}" fill="none"/></g><path d="M255.76192,196.18856l-30.2236,21.95945l-1.39137,-0.47653l-11.07287,-11.50296l25.01248,-28.27267z" fill="#66c8ff" stroke="#000000" stroke-width="1" stroke-linecap="round"/><path d="M258.20314,193.7448l-1.74218,1.58746l-17.72324,-18.67402l1.74218,-1.58746z" fill="#ffffff" stroke="none" stroke-width="0" stroke-linecap="butt"/></g><g fill="#fffc96" stroke="#000000" stroke-width="2" stroke-linecap="round"><path d="M233.39259,182.48675c0,0 -2.08482,-3.87851 0.44192,-5.47194c4.04272,-2.54942 17.84818,27.56817 13.79854,30.47411c-1.65458,1.1873 -3.60635,-1.34383 -3.60635,-1.34383l1.39585,-1.27768c0,0 -1.32334,-6.20879 -4.38399,-13.30427c-3.01824,-6.99715 -6.24985,-10.98986 -6.24985,-10.98986z"/><path d="M227.60588,188.97616c0,0 -3.69324,-1.18584 -2.44495,-3.15976c2.62037,-4.14354 35.72964,9.20092 32.39295,12.48545c-2.02078,1.98918 -4.84352,-0.12022 -4.84352,-0.12022l0.99824,-0.96916c0,0 -4.55957,-2.89835 -12.10093,-5.78797c-7.54136,-2.88963 -13.17403,-3.47098 -13.17403,-3.47098z" data-paper-data="{&quot;index&quot;:null}"/></g></g><g data-paper-data="{&quot;origRot&quot;:0}" stroke="#000000" stroke-linecap="round"><path d="M222.61854,227.03262c0,0 -1.84452,-4.4475 -0.36829,-4.98545c4.35612,-1.58737 7.95449,-4.70629 12.60204,-4.68826c1.92991,0.00748 4.15053,3.70322 4.15053,3.70322l16.18357,29.06326c0,0 1.711,2.97965 2.63249,4.72559c0.98523,1.86671 1.14215,5.17276 -0.82279,6.01522c-7.21459,3.09328 -11.12731,6.32265 -16.12347,7.12402c-1.82018,0.29194 -3.77145,0.48471 -5.06289,-0.80558c-1.68698,-1.68545 -2.67119,-6.06218 -2.67119,-6.06218z" data-paper-data="{&quot;origPos&quot;:null}" fill="#ff0000" stroke-width="3"/><path d="M259.10851,257.95631c0,0 -4.62523,4.648 -9.44295,6.54387c-3.69631,1.45457 -12.09176,3.65493 -12.09176,3.65493c0,0 -2.27295,-1.91551 -2.96591,-3.36722c-0.73001,-1.5293 -0.68034,-4.27125 -0.68034,-4.27125l21.77283,-9.42734z" data-paper-data="{&quot;origPos&quot;:null}" fill="#976e57" stroke-width="2"/><path d="M222.81762,227.30001c0,0 -1.84452,-4.44751 -0.36828,-4.98545c4.35611,-1.58737 7.9545,-4.7063 12.60205,-4.68825c1.92991,0.00748 4.15052,3.70321 4.15052,3.70321l16.18357,29.06327c0,0 1.71101,2.97964 2.6325,4.72559c0.98523,1.86671 1.14213,5.17276 -0.82279,6.01523c-7.21459,3.09328 -11.12729,6.32267 -16.12346,7.12401c-1.82018,0.29194 -3.77146,0.48468 -5.06288,-0.80559c-1.68698,-1.68545 -2.6712,-6.06218 -2.6712,-6.06218z" data-paper-data="{&quot;origPos&quot;:null}" fill="#4b4b4b" stroke-width="3"/></g><path d="M211.90386,260.53686c0,0 -0.23519,4.4758 -1.61583,6.41045c-1.05694,1.48106 -3.01395,1.60581 -4.85836,1.61157c-5.06264,0.0158 -9.46468,-2.53814 -17.10068,-4.42499c-2.07971,-0.51389 -2.48059,-3.80013 -1.82257,-5.80032c0.61546,-1.87079 1.80229,-5.08584 1.80229,-5.08584l11.07781,-31.27791c0,0 1.56913,-4.0036 3.47143,-4.32239c4.58106,-0.76774 8.65453,1.72793 13.21795,2.59072c1.54647,0.29239 0.47466,4.9768 0.47466,4.9768c0,0 -1.17495,8.93143 -1.92699,14.64802c-1.0614,8.06827 -2.71972,20.67393 -2.71972,20.67393z" fill="#4b4b4b" stroke="#000000" stroke-width="3" stroke-linecap="round"/><g stroke="#000000" stroke-linecap="round"><path d="M201.87454,177.95659c0,0 -28.81008,5.91484 -28.86087,-12.06568c-0.01873,-6.62461 16.54691,-5.02736 16.54691,-5.02736z" data-paper-data="{&quot;origPos&quot;:null}" fill="#66c8ff" stroke-width="2"/><path d="M193.66521,166.26791c0,0 -16.24677,-1.89997 -16.03383,-2.51368c0.67517,-1.94585 12.69879,-1.38252 12.69879,-1.38252z" data-paper-data="{&quot;origPos&quot;:null}" fill="#0a0a0a" stroke-width="1"/></g><g><g><path d="M191.80034,183.33894c0,0 0.58381,-14.5283 2.7231,-15.27739c6.41783,-2.24731 21.54157,-2.71787 31.58994,-3.65159c1.55337,-0.14434 4.19878,13.20395 4.19878,13.20395l4.76038,30.32329c0,0 1.68845,14.86818 -0.00611,15.02565c-15.08483,1.40172 -32.6831,3.89343 -39.48776,3.68104c-2.26821,-0.07079 -2.94524,-15.83635 -2.94524,-15.83635z" data-paper-data="{&quot;origPos&quot;:null}" fill="#66c8ff" stroke="#000000" stroke-width="3.5" stroke-linecap="round"/><path d="M211.73716,189.72194c-1.31236,0.12195 -1.55205,-2.35444 -1.55205,-2.35444c-0.49711,-5.13621 -1.15402,-11.92335 -1.65112,-17.05956c0,0 -0.23968,-2.47638 1.07268,-2.59833c1.31236,-0.12195 1.55205,2.35444 1.55205,2.35444c0.49711,5.13621 0.99424,10.27242 1.49135,15.40864l0.15979,1.65093c0,0 0.23967,2.47638 -1.07269,2.59833z" fill="#ffffff" stroke="none" stroke-width="0.5" stroke-linecap="butt"/><path d="M224.53965,194.89404c-1.31236,0.12195 -1.61346,-2.98909 -1.61346,-2.98909c-0.62451,-6.45253 -1.44977,-14.97908 -2.07429,-21.43161c0,0 -0.3011,-3.11104 1.01125,-3.23299c1.31236,-0.12195 1.61346,2.98909 1.61346,2.98909c0.62451,6.45253 1.24904,12.90506 1.87355,19.3576l0.20074,2.07403c0,0 0.3011,3.11104 -1.01125,3.23299z" fill="#ffffff" stroke="none" stroke-width="0.5" stroke-linecap="butt"/></g><g fill="none" stroke="#b9b9b9" stroke-width="3"><path d="M224.38832,169.62735c-0.97164,-1.2739 -0.1611,-2.57426 0.96408,-3.90231c1.12519,-1.32803 2.33642,-1.81418 3.11059,-0.90697c1.64144,1.92356 0.22224,3.03534 -0.65881,4.07523c-1.1252,1.32805 -2.04365,2.53313 -3.41586,0.73406z" stroke-linecap="butt"/><path d="M225.33142,168.94632l-2.3887,2.75271" stroke-linecap="round"/><path d="M219.4001,172.66036c1.12519,-1.32803 2.33643,-1.81418 3.1106,-0.90696c1.64144,1.92356 0.22224,3.03534 -0.65881,4.07523c-1.12519,1.32804 -2.04364,2.53313 -3.41584,0.73405c-0.97164,-1.2739 -0.16112,-2.57426 0.96406,-3.90232z" stroke-linecap="butt"/><path d="M216.9904,178.63437l2.3887,-2.75272" stroke-linecap="round"/><path d="M211.23447,178.71494c0.24953,-1.6656 1.62392,-1.63801 3.21228,-1.32472c1.58837,0.3133 2.66638,1.19425 2.53973,2.45922c-0.26855,2.68209 -1.89472,1.9623 -3.13845,1.71699c-1.58837,-0.31329 -2.96596,-0.49923 -2.61355,-2.85148z" stroke-linecap="butt"/><path d="M212.27642,179.22652l-3.32737,-0.70349" stroke-linecap="round"/><path d="M203.49779,175.03846c0.78044,-1.39515 2.0499,-0.72247 3.42439,0.3105c1.37451,1.03296 2.08736,2.34103 1.55315,3.43022c-1.1327,2.30938 -2.40856,0.8894 -3.48485,0.08056c-1.37451,-1.03297 -2.59483,-1.85097 -1.49269,-3.82126z" stroke-linecap="butt"/><path d="M204.29869,175.99405l-2.86382,-2.20676" stroke-linecap="round"/><path d="M196.29972,169.55521c0.78044,-1.39513 2.04991,-0.72247 3.4244,0.3105c1.37452,1.03296 2.08736,2.34103 1.55315,3.43022c-1.1327,2.30937 -2.40856,0.88939 -3.48484,0.08055c-1.37451,-1.03296 -2.59483,-1.85095 -1.49268,-3.82125z" stroke-linecap="butt"/><path d="M194.23681,168.30404l2.86383,2.20676" stroke-linecap="round"/></g></g><g data-paper-data="{&quot;index&quot;:null}"><path d="M224.76719,170.23459c-12.30477,-0.85674 -24.2344,-1.72355 -29.02467,-3.11222c-4.37799,-1.26914 -5.49193,-4.12761 -5.49193,-4.12761c0,0 -1.58574,-2.56843 -1.54654,-4.10295c0.11752,-4.60358 1.0814,-17.71999 2.98029,-28.94377c0.06337,-0.3746 0.11284,-0.58286 0.19887,-0.95309c0.25809,-1.11067 1.45316,-5.40643 1.45316,-5.40643c0,0 3.38211,-1.39519 5.18389,-1.72642c5.40532,-0.99375 18.72218,1.56436 32.84141,3.11016c1.27972,0.14012 3.33932,1.99152 3.33932,1.99152c0,0 1.30719,3.25247 1.09339,5.2249c-1.38223,12.75211 -2.95947,26.85644 -3.53583,30.06378c-0.19212,1.06912 -2.40908,5.09544 -2.40908,5.09544z" fill="#582700" stroke="#000000" stroke-width="2.5" stroke-linecap="round"/><path d="M188.91045,124.0451c-0.58826,-1.10917 0.54373,-1.68556 0.54373,-1.68556l1.39536,-0.66425c0.12342,-0.02726 0.24668,-0.05377 0.3698,-0.07952c-0.58385,-5.84472 1.10355,-12.72214 1.52294,-18.42583c0.10876,-1.47917 0.04314,-5.51394 0.87248,-6.72655c1.38877,-2.03055 3.08308,-1.30584 5.01279,-1.16444c3.28336,0.24058 6.53725,0.51848 9.82171,0.28549c8.14097,-0.56816 16.14615,-0.23747 24.28835,-0.3173c2.56934,-0.0252 5.07023,0.06768 7.62024,0.47192c0.69773,0.11061 1.61588,-0.07364 2.06811,0.4586c1.60169,1.885 0.70506,3.78301 0.23004,5.71555c-0.94752,3.85482 -2.86516,7.25183 -3.29737,11.23912c-0.35146,3.0483 -1.07601,6.14914 -1.70929,9.15122c-0.21856,1.03599 -0.02172,2.99892 -1.16259,3.70444c-2.33934,1.44666 -7.99482,-0.18643 -10.57212,-0.46214c-7.85871,-0.8407 -15.70631,-1.84074 -23.60191,-2.24137c-2.82993,-0.04871 -5.53427,-0.01411 -8.27313,0.36061c-0.05559,0.36955 -0.27312,0.83257 -0.98506,0.98346c-0.77246,0.16369 -1.16986,-0.2429 -1.36045,-0.57601c-0.09387,0.01994 -0.18787,0.04034 -0.28194,0.06125l-0.78143,0.44414c0,0 -1.132,0.5764 -1.72026,-0.53277z" fill="#000000" stroke="none" stroke-width="0.5" stroke-linecap="butt"/><path d="M206.33431,141.03929c4.93585,-2.17582 9.14343,0.27669 10.48649,5.15739c1.54034,5.59758 -2.56025,8.48135 -2.56025,8.48135c0,0 -2.53532,-1.2328 -5.81903,-1.81167c-4.08875,-0.72076 -6.37902,-0.39757 -6.37902,-0.39757c0,0 -2.4242,-8.47779 4.27179,-11.42952z" fill="#ffffff" stroke="#0a0a0a" stroke-width="2" stroke-linecap="butt"/><path d="M233.38186,143.73157c5.88819,4.29796 1.65406,12.06345 1.65406,12.06345c0,0 -2.16513,-0.79981 -6.31628,-0.96053c-3.33382,-0.12908 -6.08091,0.53863 -6.08091,0.53863c0,0 -3.36888,-3.68284 -0.63212,-8.82286c2.38628,-4.48173 7.03485,-5.98684 11.37523,-2.81868z" data-paper-data="{&quot;index&quot;:null}" fill="#ffffff" stroke="#0a0a0a" stroke-width="2" stroke-linecap="butt"/><g data-paper-data="{&quot;index&quot;:null}" stroke="#000000" stroke-width="1" stroke-linecap="butt"><path d="M202.96838,168.78376c-12.18634,-3.84635 -4.9955,-15.38746 -4.9955,-15.38746l18.19204,5.56823c0,0 -0.29447,13.89147 -13.19654,9.81921z" fill="#000000"/><path d="M202.64247,164.60197c3.03517,2.01584 4.94529,4.94145 4.37058,4.92486c-1.18757,-0.03425 -2.52911,-0.26473 -4.04462,-0.74306c-4.54206,-1.43358 -6.39229,-3.93613 -6.92627,-6.51162c-0.10374,-0.50035 3.81313,0.47869 6.6003,2.32983z" fill="#ff8484"/><path d="M196.4067,157.54771c0.59909,-1.70842 1.56624,-4.15142 1.56624,-4.15142l15.98817,4.89367l-1.31268,4.36075c0,0 -16.26146,-5.04669 -16.24172,-5.10299z" fill="#ffffff"/></g></g><g data-paper-data="{&quot;index&quot;:null}"><g data-paper-data="{&quot;origRot&quot;:0,&quot;index&quot;:null}" stroke="#000000" stroke-width="3" stroke-linecap="round"><path d="M191.41752,223.03818c0,0 -25.47799,-3.8265 -25.28442,-6.37491c0.34901,-4.59495 4.09467,-14.58862 4.09467,-14.58862l11.07138,-28.07721c0,0 2.18403,-5.29916 3.35179,-5.4412c3.50325,-0.42611 9.59276,2.26185 16.18817,3.72288c1.09627,0.24286 0.32601,6.11909 0.32601,6.11909c0,0 -1.6283,9.1931 -2.67048,15.07714c-1.58714,8.96081 -4.06683,22.96099 -4.06683,22.96099c0,0 -1.0292,7.20472 -3.01031,6.60183z" data-paper-data="{&quot;origPos&quot;:null}" fill="#582700"/><path d="M168.71756,209.54201l24.60062,6.36184" fill="none"/><path d="M169.87943,206.15911l24.53877,6.59141" data-paper-data="{&quot;origPos&quot;:null}" fill="none"/></g><path d="M169.79563,205.43088l14.03493,-35.57322l1.44155,-0.33528l15.59562,4.0828l-6.2142,38.28237z" fill="#66c8ff" stroke="#000000" stroke-width="1" stroke-linecap="round"/><path d="M168.73138,209.37584l0.61473,-2.25193l25.14182,6.58908l-0.61473,2.25193z" fill="#ffffff" stroke="none" stroke-width="0" stroke-linecap="butt"/></g><path d="M205.99962,155.96263c-0.39424,-0.18124 -0.31518,-0.83225 -0.50628,-1.16012c-0.28368,-0.21228 -0.53898,-0.50063 -0.76155,-0.80163c-0.26634,-0.22718 -0.54225,-0.44473 -0.75745,-0.65202c0,0 -0.25166,-0.2424 -0.14856,-0.53477c-0.12725,-0.02837 -0.25345,-0.06092 -0.37829,-0.09848c0,0 -1.11475,-0.35377 -0.75371,-1.44603c0.36105,-1.09227 1.47579,-0.73851 1.47579,-0.73851c0.95232,0.32627 1.83735,0.2126 2.84346,0.4008c0.91495,0.17114 1.77352,0.71789 2.69152,0.77432c0.69248,0.04256 1.39396,0.03851 2.07395,0.17365l0.60625,0.13886c0,0 1.14089,0.26184 0.87366,1.37972c-0.26723,1.11788 -1.40811,0.85604 -1.40811,0.85604l-0.43962,-0.10112l-0.54695,0.30306c-1.12575,0.16025 -1.77582,-0.01343 -2.80848,-0.25429c-0.18063,0.06027 -0.36803,0.14196 -0.47012,0.28361c-0.01831,0.0357 -0.0384,0.0702 -0.06052,0.10332c-0.38881,0.78452 0.26222,2.19527 -1.52504,1.3736z" fill="#000000" stroke="none" stroke-width="0.5" stroke-linecap="butt"/><path d="M229.77872,158.52381c-1.91311,0.47752 -1.00284,-0.78802 -1.23405,-1.63021c-0.01535,-0.0366 -0.02847,-0.0742 -0.0396,-0.11263c-0.07307,-0.15795 -0.24143,-0.27273 -0.40726,-0.36521c-1.06047,0.04619 -1.73229,0.09692 -2.80716,-0.26798l-0.47899,-0.39848l-0.45119,0.01827c0,0 -1.17078,0.04684 -1.21859,-1.10033c-0.0478,-1.14717 1.12297,-1.19402 1.12297,-1.19402l0.62209,-0.02461c0.6938,-0.00737 1.38198,0.12593 2.07027,0.21179c0.91245,0.11381 1.86067,-0.2649 2.79214,-0.26432c1.02427,0.00064 1.87167,0.27542 2.86964,0.13054c0,0 1.16277,-0.14195 1.30764,0.99738c0.14487,1.13932 -1.01791,1.28127 -1.01791,1.28127c-0.12983,0.01389 -0.26001,0.02258 -0.39044,0.02699c0.04513,0.30615 -0.24858,0.49785 -0.24858,0.49785c-0.25115,0.16392 -0.56392,0.32673 -0.86912,0.50074c-0.27638,0.25459 -0.5825,0.49074 -0.90187,0.64693c-0.25065,0.2868 -0.29801,0.94077 -0.72001,1.04608z" data-paper-data="{&quot;index&quot;:null}" fill="#000000" stroke="none" stroke-width="0.5" stroke-linecap="butt"/><path d="M230.46985,211.82569c-0.14882,0.84105 -1.40986,1.32914 -2.81662,1.09017c-1.40676,-0.23897 -2.42653,-1.1145 -2.27771,-1.95556c0.14882,-0.84105 1.40986,-1.32914 2.81662,-1.09017c1.40676,0.23897 2.42653,1.1145 2.27771,1.95556z" fill="#000000" stroke="none" stroke-width="0" stroke-linecap="butt"/><path d="M197.0159,176.32064c-0.09271,-0.08586 -0.15873,-0.17908 -0.20433,-0.27487c-0.02153,0.00905 -0.04313,0.01805 -0.06478,0.02699c-0.95656,0.39473 -1.95506,0.62734 -2.95318,0.77156c-0.05444,0.01878 -0.10892,0.03734 -0.16346,0.05568l0.00585,0.02801l-1.34081,0.60462c-0.20248,0.09413 -0.42888,0.06623 -0.61103,-0.10246c-0.30997,-0.28707 -0.37447,-0.87314 -0.14408,-1.30902c0.06164,-0.11662 0.13815,-0.21067 0.22308,-0.28038l0.10643,-0.09166c0.12856,-0.20701 0.3073,-0.30372 0.39638,-0.3414l0.30049,-0.25881l0.00088,0.00197l0.00316,-0.00542c1.49487,-1.24664 2.9926,-1.69889 4.56475,-2.6186c0.49613,-0.29024 2.02066,-1.83935 2.59787,-1.67586c0.3968,0.11239 0.69114,0.26504 0.89887,0.44271c-0.01874,-0.04734 -0.03771,-0.09451 -0.05695,-0.1415c-0.71581,-1.74799 -1.7281,-3.55253 -2.62441,-5.11194c-0.72459,-1.26066 -2.03562,-2.12605 -2.99782,-3.01716c0,0 -0.56125,-0.51978 -0.14408,-1.30902c0.17551,-0.33204 0.37652,-0.43239 0.55052,-0.43723c0.40398,-0.57688 0.89124,-0.12561 0.89124,-0.12561v0.00001l0.28038,0.26686c1.77605,1.26583 3.60804,1.89435 5.51905,2.69631c1.41258,0.5928 2.73628,1.22485 4.20357,1.61963c1.71252,0.46075 3.26186,0.93127 4.9979,0.04429c0.80753,-0.22577 2.00073,-0.79236 2.78139,-0.76313c0.49659,0.01859 1.21121,-0.13381 1.4366,0.44859c0.24577,0.63506 -0.17921,1.48466 -0.42904,2.15495c-0.22785,0.61135 -1.68988,1.96702 -2.12684,2.23275c-1.03638,0.63028 -2.30497,0.50007 -3.35955,1.02442c-1.54553,0.76846 -2.62564,2.03067 -3.58169,3.79252l-0.00435,0.03339c-0.12927,0.99186 -0.26995,3.63953 -1.23915,3.97715c-0.43957,0.15313 -0.72196,-0.66236 -1.08293,-0.99354c-0.51588,-0.81369 -1.09487,-1.42649 -1.53698,-2.33483c-0.22885,-0.4702 -0.41872,-0.96628 -0.59368,-1.47186c-0.00134,0.00258 -0.00268,0.00515 -0.00403,0.00771c-0.08766,0.16584 -0.20538,0.28605 -0.33467,0.35553l-0.01189,0.00665c-0.01451,0.03599 -0.03084,0.07126 -0.04899,0.1056c-0.0998,0.1888 -0.23855,0.31846 -0.38898,0.38146l-0.76283,0.32886l-0.01108,-0.05606c-0.07884,0.09193 -0.20002,0.14917 -0.33891,0.18867l-0.12956,0.08643c-0.18535,0.1292 -0.40334,0.14832 -0.59327,0.04063c-0.09959,0.0208 -0.18568,0.04763 -0.24723,0.08809c-0.27922,0.18355 -0.50511,0.49525 -0.75766,0.74288l0.10822,-0.10403c0,0 -0.41718,0.78924 -0.97843,0.26946zM201.00994,172.38415l0.01456,0.0063c-0.00324,-0.00974 -0.00646,-0.01947 -0.0097,-0.02919c-0.00155,0.00763 -0.00317,0.01527 -0.00487,0.0229z" fill="#000000" stroke="none" stroke-width="0.5" stroke-linecap="butt"/></g></g></svg>