<svg version="1.1" xmlns="http://www.w3.org/2000/svg" xmlns:xlink="http://www.w3.org/1999/xlink" width="306.30631" height="274.77477" viewBox="0,0,306.30631,274.77477"><g transform="translate(-86.84685,-42.61262)"><g data-paper-data="{&quot;isPaintingLayer&quot;:true}" fill-rule="nonzero" stroke-linecap="butt" stroke-linejoin="miter" stroke-miterlimit="10" stroke-dasharray="" stroke-dashoffset="0" style="mix-blend-mode: normal"><path d="M86.84686,317.38739v-274.77477h306.30631v274.77477z" data-paper-data="{&quot;index&quot;:null}" fill="none" stroke="none" stroke-width="0"/><text transform="translate(271.55609,110.72266) rotate(-180) scale(0.1602,-0.1602)" font-size="40" xml:space="preserve" data-paper-data="{&quot;index&quot;:null}" fill="#000000" fill-rule="nonzero" stroke="none" stroke-width="1" stroke-linecap="butt" stroke-linejoin="miter" stroke-miterlimit="10" stroke-dasharray="" stroke-dashoffset="0" font-family="Sans Serif" font-weight="normal" text-anchor="start" style="mix-blend-mode: normal"><tspan x="0" dy="0">AwezomeXD</tspan><tspan x="0" dy="46.150000000000006px"> </tspan><tspan x="0" dy="46.150000000000006px">MeIzAwezomeDede</tspan></text><g data-paper-data="{&quot;index&quot;:null}"><g><g><g><path d="M200.45524,138.36334c0,0 -7.49762,-9.55069 -2.04572,-16.8394c3.86999,-5.17384 20.37685,-6.58022 30.14673,-11.75758c11.10609,-5.88547 31.61056,-17.86698 31.61056,-17.86698c0,0 6.04634,0.72737 7.82565,-0.13566c2.22166,-1.07759 3.14637,-5.22396 3.14637,-5.22396c0,0 2.14669,3.56875 3.25764,6.73974c4.18451,11.94398 -4.97859,15.74549 -4.97859,15.74549c0,0 5.78342,3.80718 7.55906,7.72335c1.8665,4.11664 -0.59499,7.76604 -0.59499,7.76604c0,0 3.62741,2.30311 5.13236,5.56892c0.99351,2.15597 2.01039,5.95248 2.61235,8.33268c1.02727,4.06178 9.42232,4.98815 9.42232,4.98815c0,0 -2.4406,4.54025 -4.81026,6.08332c-2.41194,1.57061 -9.40707,1.20173 -9.40707,1.20173c0,0 -2.03864,1.53816 -1.4161,4.33756c0.19624,0.88247 1.22191,2.67372 1.71081,3.48936c1.64906,2.75117 0.68048,5.58007 0.68048,5.58007c0,0 -2.71951,-2.61735 -3.78859,-3.10573c-0.78463,-0.35844 -1.41576,-0.30727 -1.41576,-0.30727c0,0 0.34558,4.54388 1.6367,6.70021c2.87173,4.79614 7.32923,10.37211 6.21993,10.97882c-2.00583,1.097 -5.94879,-1.52461 -8.51068,-0.92127c-2.35798,0.55533 -7.02521,-4.43726 -7.02521,-4.43726c0,0 0.74745,7.04677 -1.55828,8.91204c-2.23749,1.8101 -1.79567,7.19853 -2.82744,7.75539c-3.76115,2.02991 -13.16128,-8.13667 -13.16128,-8.13667c0,0 -8.03817,12.43632 -11.59299,11.17217c-4.19555,-1.49202 -11.15311,-15.81011 -11.15311,-15.81011c0,0 -6.85169,-2.17825 -8.31972,-4.63359c-3.29693,-5.51425 -2.25983,-11.37581 -2.25983,-11.37581c0,0 -2.84716,1.52871 -3.87253,3.20482c-1.08988,1.78156 -2.48506,7.18749 -2.48506,7.18749c0,0 -3.26816,-4.71645 -3.86937,-7.3741c-0.63224,-2.79483 0.16437,-9.00407 0.16437,-9.00407c0,0 -5.72173,-1.53129 -9.43633,-5.65353c-1.99086,-2.20932 -3.4447,-8.10853 -3.4447,-8.10853c0,0 5.40332,2.03448 7.25201,1.89217c1.43406,-0.11039 0.32982,-2.91495 0.32982,-2.91495z" fill="#6d0f0a" stroke="#000000" stroke-width="2"/><path d="M197.47346,133.8629c0,0 -6.08239,-5.86655 -8.15899,-15.90278c-1.12422,-5.43342 0.46268,-13.50752 1.21091,-18.93889c1.0604,-7.69708 7.67336,-13.92324 14.05129,-17.3031c8.38423,-4.44307 18.187,1.56366 18.187,1.56366c0,0 7.28266,-7.72321 14.60673,-9.1565c7.07566,-1.3847 14.79483,3.87691 16.84012,5.12315c3.11591,1.89859 10.38143,13.82818 10.38143,13.82818c0,0 -15.97816,31.07569 -29.2668,38.11774c-14.19629,7.52304 -30.85061,-3.67877 -34.9333,1.26812c-1.43654,1.74063 -2.91838,1.40042 -2.91838,1.40042z" fill="#6d0f0a" stroke="#000000" stroke-width="2"/><path d="M190.47316,104.2274c0,0 0.69126,-3.72978 1.16389,-5.43041c0.45093,-1.62248 1.6098,-4.54999 1.6098,-4.54999c0,0 10.03102,2.28601 14.60622,1.81397c4.79441,-0.49465 11.00957,-5.41015 11.00957,-5.41015c0,0 0.96843,2.10875 1.576,2.8732c0.64235,0.80822 1.75993,2.07453 1.75993,2.07453c0,0 0.38651,-2.1864 0.37338,-3.03886c-0.01417,-0.92073 -0.18411,-2.79864 -0.18411,-2.79864c0,0 3.07618,2.764 4.36007,3.73763c1.05138,0.79732 2.78603,1.68154 2.78603,1.68154c0,0 -0.90921,-1.93034 -1.45654,-2.89879c-0.5795,-1.02533 -1.92945,-3.09224 -1.92945,-3.09224c0,0 10.4672,0.18086 16.53741,-0.70587c0.12187,-0.0178 4.30481,-1.965 4.63462,-2.06589c7.09128,-2.16929 1.04697,-9.69452 1.04697,-9.69452c0,0 3.97006,2.01392 6.22213,4.34988c2.28414,2.36923 7.38785,9.76709 7.38785,9.76709c0,0 -6.13695,-0.68596 -10.92677,0.9215c-0.84993,0.28524 -9.8696,3.87733 -9.8696,3.87733c0,0 -2.18752,-1.37489 -3.26057,-1.87764c-1.05151,-0.49266 -3.11437,-1.10919 -3.11437,-1.10919c0,0 -0.32314,2.19478 -0.38554,3.48758c-0.075,1.55316 -0.03358,5.19439 -0.03358,5.19439c0,0 -1.58112,-1.33672 -2.58794,-1.97968c-1.12009,-0.71531 -3.82898,-2.11837 -3.82898,-2.11837c0,0 -1.00918,0.96396 -1.4654,1.70402c-0.63334,1.02737 -1.98077,3.88612 -1.98077,3.88612c0,0 -1.89239,-2.29554 -2.8648,-3.25681c-0.84132,-0.83168 -2.63359,-2.1786 -2.63359,-2.1786c0,0 -1.01862,1.7173 -1.49134,2.76491c-0.5899,1.30731 -1.77504,4.4737 -1.77504,4.4737c0,0 -9.87459,-4.23537 -14.21979,-4.30441c-4.06454,-0.0646 -11.0657,3.90269 -11.0657,3.90269z" fill="#c42d06" stroke="none" stroke-width="0"/></g><path d="M223.71002,139.76986c0,0 -19.31186,1.69059 -20.20327,0.52947c-0.15464,-0.20142 -1.05099,-9.17431 -1.61024,-9.88724c-1.02153,-1.30223 -4.61666,1.4837 -4.61666,1.4837c0,0 55.25201,-33.36972 64.07386,-38.21252c2.24744,-1.23375 5.62592,-0.04385 5.62592,-0.04385l-3.12758,22.21727z" fill="#6d0f0a" stroke="none" stroke-width="NaN"/></g><path d="M219.15008,78.26091c-0.03385,-0.3049 0.11438,-1.64978 0.21988,-1.9772c0.80847,-2.50896 5.27112,-4.69308 5.27112,-4.69308c0,0 -1.0622,5.37977 -1.38375,7.19942c-0.2866,1.6219 1.14366,5.17633 1.14366,5.17633c0,0 -4.60854,0.08106 -5.25091,-5.70547z" fill="#6d0f0a" stroke="#000000" stroke-width="1.5"/><path d="M215.23759,75.98423c0,0 1.64995,0.43557 2.72277,1.86951c0.70402,0.6409 2.04976,3.19306 2.04976,3.19306l-2.15652,-0.28717z" fill="#000000" stroke="none" stroke-width="0"/></g><path d="M223.04892,82.93053l3.48208,-1.45879c0,0 -0.98049,5.13726 -1.39547,5.48867c-0.58095,0.49198 -4.99948,-3.44668 -4.99948,-3.44668z" fill="#6d0f0a" stroke="none" stroke-width="0"/></g><g data-paper-data="{&quot;index&quot;:null}"><text transform="translate(294.68339,229.00292) rotate(-180) scale(0.27921,-0.27921)" font-size="40" xml:space="preserve" fill="#000000" fill-rule="nonzero" stroke="none" stroke-width="1" stroke-linecap="butt" stroke-linejoin="miter" stroke-miterlimit="10" stroke-dasharray="" stroke-dashoffset="0" font-family="Sans Serif" font-weight="normal" text-anchor="start" style="mix-blend-mode: normal"><tspan x="0" dy="0">AwezomeXD</tspan><tspan x="0" dy="46.150000000000006px"> </tspan><tspan x="0" dy="46.150000000000006px">MeIzAwezomeDede</tspan></text><g data-paper-data="{&quot;index&quot;:null}"><g><path d="M304.61433,280.72713c-0.97394,-0.3343 -2.81981,-1.05375 -2.81981,-1.05375l2.00112,-62.99775c0,0 3.12264,-3.42551 4.77674,-5.10754c1.78782,-1.81801 6.83093,-5.9246 6.83093,-5.9246c0,0 5.94054,0.17965 11.08569,1.75457c7.39586,2.26385 29.04162,10.52827 29.04162,10.52827c0,0 -0.29139,23.00613 -1.11993,33.98866c-0.74728,9.90532 -3.63272,29.00908 -3.63272,29.00908c0,0 -14.3168,1.48011 -21.61682,1.59314c-7.15813,0.11083 -21.76596,-0.92143 -21.76596,-0.92143c0,0 -1.89659,-0.56514 -2.78087,-0.86866z" fill="#434253" stroke="#000000" stroke-width="2.5"/><path d="M306.04174,281.58897c0,0 3.19421,-16.34268 5.26935,-30.13714c1.48339,-9.86081 2.04443,-18.33187 2.06476,-19.00203c0.15509,-5.11269 -0.3723,-9.50368 -0.00091,-14.70459c0.49814,-6.97594 1.18056,-11.43244 1.18056,-11.43244l2.10035,-1.22928c0,0 -1.17975,18.14658 -2.93073,35.27697c-0.73182,7.15966 -2.77258,22.22022 -3.75528,31.64788c-0.10799,1.03599 0.50491,2.39047 0.4064,3.33489c-0.55015,5.27458 -0.93311,6.24975 -0.93311,6.24975l-3.40139,-0.00403z" fill="#000000" stroke="none" stroke-width="0"/></g><g stroke="#000000" stroke-width="1.5"><path d="M345.29834,263.35316c0.94113,9.66742 -4.93088,16.17699 -12.88074,16.95092c-7.94986,0.77393 -14.77082,-5.25083 -14.91119,-14.96294c-0.15638,-10.82018 5.8426,-16.14324 12.54261,-16.73861c6.71115,-0.59636 14.44659,6.50489 15.24932,14.75063z" fill="#2c262f"/><path d="M323.67439,268.45717c-0.26544,-2.72671 1.31874,-5.06632 3.56101,-5.2846c2.24227,-0.21828 3.76096,1.25807 4.0264,3.98478c0.26545,2.72671 -1.3891,5.14677 -3.63137,5.36505c-2.24227,0.21828 -3.69059,-1.33852 -3.95603,-4.06523z" data-paper-data="{&quot;index&quot;:null}" fill="#1b171c"/></g><g stroke="#000000" stroke-width="1.5"><path d="M334.90074,214.22601c6.72176,-0.46163 14.18059,7.06601 14.65957,15.33688c0.56156,9.69688 -5.56103,15.97134 -13.53511,16.43313c-7.97408,0.46179 -14.55372,-5.82563 -14.31338,-15.53578c0.26776,-10.81801 6.4647,-15.77245 13.18893,-16.23424z" fill="#2c262f"/><path d="M327.75298,233.8156c-0.15839,-2.73501 1.51626,-5.01074 3.76536,-5.14099c2.2491,-0.13025 3.70876,1.40448 3.86715,4.1395c0.15839,2.73502 -1.58973,5.08838 -3.83883,5.21863c-2.2491,0.13025 -3.6353,-1.48212 -3.79369,-4.21714z" data-paper-data="{&quot;index&quot;:null}" fill="#1b171c"/></g></g><g><g><path d="M178.20552,279.80011c0,0 -1.84588,0.71945 -2.81982,1.05375c-0.88428,0.30352 -2.78086,0.86866 -2.78086,0.86866c0,0 -14.60784,1.03226 -21.76596,0.92143c-7.30001,-0.11302 -21.61681,-1.59314 -21.61681,-1.59314c0,0 -2.88544,-19.10377 -3.63272,-29.00909c-0.82854,-10.98252 -1.11993,-33.98866 -1.11993,-33.98866c0,0 21.64575,-8.26442 29.04162,-10.52827c5.14515,-1.57491 11.08569,-1.75457 11.08569,-1.75457c0,0 5.04312,4.1066 6.83094,5.9246c1.6541,1.68203 4.77674,5.10754 4.77674,5.10754l2.00112,62.99775z" fill="#434253" stroke="#000000" stroke-width="2.5"/><path d="M173.95829,281.71568l-3.40139,0.00403c0,0 -0.38295,-0.97517 -0.93311,-6.24976c-0.0985,-0.94441 0.51439,-2.2989 0.40641,-3.33488c-0.98271,-9.42766 -3.02346,-24.48823 -3.75529,-31.64789c-1.75097,-17.13039 -2.93073,-35.27697 -2.93073,-35.27697l2.10035,1.22928c0,0 0.68243,4.4565 1.18057,11.43244c0.37139,5.20091 -0.156,9.59191 -0.00092,14.70459c0.02033,0.67016 0.58138,9.14123 2.06477,19.00203c2.07514,13.79446 5.26935,30.13713 5.26935,30.13713z" fill="#000000" stroke="none" stroke-width="0"/></g><g stroke="#000000" stroke-width="1.5"><path d="M134.7017,263.47989c0.80273,-8.24574 8.53818,-15.34698 15.24933,-14.75062c6.70001,0.59537 12.69899,5.91843 12.54261,16.73861c-0.14037,9.71211 -6.96134,15.73687 -14.9112,14.96294c-7.94986,-0.77392 -13.82187,-7.2835 -12.88074,-16.95092z" fill="#2c262f"/><path d="M152.76464,263.29933c2.24227,0.21828 3.82645,2.55788 3.56101,5.28459c-0.26545,2.72671 -1.71376,4.28351 -3.95603,4.06523c-2.24227,-0.21829 -3.89681,-2.63834 -3.63137,-5.36505c0.26544,-2.72671 1.78413,-4.20306 4.0264,-3.98478z" data-paper-data="{&quot;index&quot;:null}" fill="#1b171c"/></g><g stroke="#000000" stroke-width="1.5"><path d="M130.43974,229.68963c0.47898,-8.27087 7.9378,-15.79851 14.65956,-15.33689c6.72423,0.46179 12.92117,5.41624 13.18893,16.23424c0.24034,9.71016 -6.33929,15.99758 -14.31338,15.53579c-7.97409,-0.46179 -14.09668,-6.73625 -13.53512,-16.43313z" fill="#2c262f"/><path d="M152.24709,233.94235c-0.15839,2.73501 -1.54458,4.34738 -3.79368,4.21713c-2.2491,-0.13025 -3.99721,-2.48361 -3.83882,-5.21863c0.15839,-2.73501 1.61804,-4.26975 3.86714,-4.1395c2.2491,0.13025 3.92375,2.40598 3.76536,5.141z" data-paper-data="{&quot;index&quot;:null}" fill="#1b171c"/></g></g><g stroke="#000000"><g fill="#434253"><path d="M302.93639,282.15585c0,0 -39.39406,0.31655 -59.64769,0.31655c-21.72904,0 -66.6118,-0.31655 -66.6118,-0.31655c0,0 -2.38216,-40.33861 -2.16309,-60.75635c0.20152,-18.78125 2.16309,-54.08575 2.16309,-54.08575c0,0 42.82931,-1.2662 64.39595,-1.2662c21.14461,0 59.33114,1.58275 59.33114,1.58275c0,0 4.66352,44.84767 4.63123,67.07726c-0.03994,25.54257 -2.09882,47.44828 -2.09882,47.44828z" stroke-width="2.5"/><path d="M182.62639,273.74785c1.29409,0 2.34316,0.94416 2.34316,2.10884c0,1.16468 -1.04906,2.10884 -2.34316,2.10884c-1.29409,0 -2.34316,-0.94416 -2.34316,-2.10884c0,-1.16468 1.04906,-2.10884 2.34316,-2.10884z" stroke-width="2"/><path d="M296.08665,273.11069c1.29409,0 2.34316,0.94416 2.34316,2.10884c0,1.16468 -1.04907,2.10884 -2.34316,2.10884c-1.29409,0 -2.34316,-0.94416 -2.34316,-2.10884c0,-1.16468 1.04907,-2.10884 2.34316,-2.10884z" stroke-width="2"/><path d="M291.83153,175.44764c-0.48529,-1.12251 0.08425,-2.44878 1.27209,-2.9623c1.18785,-0.51352 2.54417,-0.01985 3.02946,1.10266c0.48528,1.12251 -0.08426,2.44879 -1.2721,2.96231c-1.18785,0.51352 -2.54417,0.01984 -3.02946,-1.10267z" stroke-width="2"/><path d="M180.91758,172.0591c1.18784,-0.51352 2.54418,-0.01985 3.02946,1.10266c0.48528,1.12251 -0.08426,2.44879 -1.2721,2.96231c-1.18784,0.51352 -2.54417,0.01984 -3.02945,-1.10267c-0.48528,-1.12251 0.08425,-2.44878 1.27209,-2.9623z" stroke-width="2"/></g><g><path d="M187.36313,208.89736c-2.36044,-6.40232 -2.14847,-24.22034 1.17777,-27.70117c8.80798,-9.21732 26.01104,-9.48636 48.15555,-9.48636c20.7312,0 40.80646,1.21551 50.19223,9.11804c4.42593,3.72649 4.09175,24.72433 0.61728,30.38921c-5.21713,8.50616 -20.51325,11.67052 -51.0204,11.67052c-30.50715,0 -45.72795,-4.44989 -49.12243,-13.65691z" fill="#434253" stroke-width="2"/><path d="M191.46433,207.31702c-2.1792,-5.67588 -1.98352,-21.47217 1.08734,-24.55804c8.13172,-8.17147 24.01396,-7.77733 44.45825,-7.77733c19.1395,0 37.67343,0.44494 46.33857,7.45081c4.08612,3.30367 3.77759,21.91897 0.56988,26.94108c-4.81657,7.54101 -18.93828,9.50278 -47.10314,9.50278c-28.16487,0 -42.21704,-3.39695 -45.3509,-11.55929z" fill="#2c262f" stroke-width="1.5"/><path d="M216.73027,204.30875c-0.84859,-2.4182 -0.77238,-9.14817 0.42343,-10.4629c3.16654,-3.48144 9.35117,-4.21571 17.31229,-4.21571c7.45303,0 14.67023,1.09175 18.04449,4.07659c1.59116,1.40752 1.47102,9.33853 0.22192,11.47819c-1.8756,3.21283 -7.37467,4.61891 -18.34223,4.61891c-10.96755,0 -16.43956,-1.85087 -17.65989,-5.32841z" fill="#1b171c" stroke-width="1.5"/></g><g><path d="M187.36313,264.28153c-2.36044,-6.40232 -2.14847,-24.22034 1.17777,-27.70116c8.80798,-9.21732 26.01104,-9.48637 48.15555,-9.48637c20.7312,0 40.80646,1.21551 50.19223,9.11804c4.42593,3.7265 4.09175,24.72433 0.61728,30.38921c-5.21713,8.50616 -20.51325,11.67052 -51.0204,11.67052c-30.50715,0 -45.72795,-4.4499 -49.12243,-13.65692z" fill="#434253" stroke-width="2"/><path d="M191.46433,262.70117c-2.1792,-5.67588 -1.98352,-21.47217 1.08734,-24.55804c8.13172,-8.17147 24.01396,-7.77734 44.45825,-7.77734c19.1395,0 37.67343,0.44494 46.33857,7.45081c4.08612,3.30367 3.77759,21.91898 0.56988,26.94109c-4.81657,7.54101 -18.93828,9.50278 -47.10314,9.50278c-28.16487,0 -42.21704,-3.39695 -45.3509,-11.55929z" fill="#2c262f" stroke-width="1.5"/><path d="M216.73027,259.69291c-0.84859,-2.41819 -0.77238,-9.14816 0.42343,-10.46289c3.16654,-3.48144 9.35117,-4.21571 17.31229,-4.21571c7.45303,0 14.67023,1.09175 18.04449,4.07659c1.59116,1.40752 1.47102,9.33852 0.22192,11.47818c-1.8756,3.21283 -7.37467,4.61891 -18.34223,4.61891c-10.96755,0 -16.43956,-1.85087 -17.65989,-5.32842z" fill="#1b171c" stroke-width="1.5"/></g></g></g><g data-paper-data="{&quot;index&quot;:null}"><g><path d="M252.16763,159.43962c0,-4.62307 -8.49349,-15.53073 -3.81415,-15.53073c1.22311,0 4.42917,2.33459 7.50057,4.85516c1.45092,1.19071 3.61391,2.34172 4.58126,3.77227c0.88905,1.31474 0.7777,2.94412 0.88451,3.34049c0.14147,0.52495 1.05985,2.14097 1.05985,2.14097c0,0 1.84337,1.97795 5.26166,3.90074c2.29845,1.29287 4.24008,0.66077 6.60773,2.01002c1.51083,0.86098 5.14265,2.7213 3.8737,4.97488c-0.18154,0.32243 -5.12328,0.24975 -5.12328,0.24975c0,0 -1.38722,1.6276 -2.62457,2.04842c-3.22468,1.09671 -5.31061,-1.08587 -6.12042,-1.03821c-2.60434,0.15328 -6.72808,-0.10553 -6.72808,-0.10553c0,0 -0.42924,-0.10557 -1.69069,-0.80571c-5.24365,-2.91039 -3.66807,-7.69547 -3.66807,-9.81253z" fill="#ffd5d5" stroke="#000000" stroke-width="1.5"/><path d="M253.53374,166.12693c0,0 7.29249,1.48578 9.95463,0.65935c0.10511,-0.03263 1.09315,-0.82199 2.45582,-1.24686c1.14308,-0.35642 2.65331,-0.36275 3.11935,-0.36185c1.17977,0.00229 1.61032,1.90079 2.6201,1.90079c4.07091,0 5.01291,-0.51035 5.01291,-0.51035c0,0 0.55454,0.54917 0.74369,1.15381c0.13495,0.43135 0.02676,0.94264 -0.34108,1.06756c-1.40247,0.47629 -4.79415,0.20759 -4.79415,0.20759c0,0 -1.74358,1.7083 -2.55078,1.73805c-5.38362,0.19843 -4.37217,-1.18226 -5.3204,-1.18226c-3.65814,0 -5.80335,-0.08543 -7.0537,-0.35945c-0.17574,-0.03852 -1.31715,-0.5453 -2.08868,-1.13084c-1.11478,-0.84606 -1.75769,-1.93553 -1.75769,-1.93553z" fill="#fb95a9" stroke="none" stroke-width="0"/><path d="M268.15108,164.66677c0.72444,-0.08172 2.87062,-0.06303 3.75169,0.94108c1.15747,1.3191 0.97693,3.72747 0.97693,3.72747l-2.0916,1.52047c0,0 0.81471,-4.96196 -1.7831,-4.96196c-2.09043,0 -4.71675,0.21059 -4.71675,0.21059c0,0 1.56303,-1.17823 3.86283,-1.43765z" fill="#000000" stroke="none" stroke-width="0"/><path d="M263.39459,158.87903l-0.13974,3.79055l-2.58548,-6.19124z" fill="#000000" stroke="none" stroke-width="0"/></g><path d="M245.01516,140.84214c0,-3.1402 -3.20727,-10.10814 -0.69876,-10.10814c2.50851,0 8.05046,-0.70437 8.05046,2.43583c0,1.6451 3.01501,8.01008 2.76204,11.02958c-0.22989,2.74415 0.86348,4.53972 -0.33084,4.53972c-2.50851,0 -9.78288,-4.75679 -9.78288,-7.89699z" fill="#fb95a9" stroke="#000000" stroke-width="2"/></g><g data-paper-data="{&quot;index&quot;:null}"><path d="M228.18006,131.62587c2.41131,-2.95149 10.53162,-0.25987 12.59919,3.86227c0.26008,0.51854 1.70637,-0.66733 5.40284,0.98163c0.86997,0.38809 5.3323,2.85511 7.98427,6.04894c1.26983,1.52929 2.1246,3.99593 1.97118,5.03194c-0.22905,2.80784 -2.67033,5.18657 -4.85989,7.14774c-2.87249,2.57284 1.75248,7.33006 -2.40533,7.33006c-3.03121,0 -16.54137,0.60747 -18.69314,-0.7284c-1.28409,-0.79719 -0.53199,-7.61244 -0.88049,-9.01861c-0.48674,-1.96396 -4.99822,-4.40189 -4.99822,-6.61256c0,-2.58633 2.29137,-12.099 3.87959,-14.04301z" fill="#ee1536" stroke="#000000" stroke-width="2"/><path d="M244.29205,151.81498c0,-3.14019 3.56399,-6.94934 7.26523,-7.10728c3.22449,-0.13759 3.97211,2.15654 3.0535,5.15937c-1.10558,3.61402 -4.40634,5.42259 -7.63376,5.42259c-0.06272,0 2.08362,-1.58996 2.84464,-0.28992c1.01358,1.73146 0.66979,6.51156 0.03616,6.86773c-2.98614,1.67855 -13.402,-0.74155 -16.31172,-0.67209c-0.60085,0.01435 -2.90823,0.59035 -3.45604,-1.26733c-0.44915,-1.5231 0.38106,-5.65028 0.34354,-5.65555c-0.60286,-0.08461 -1.36799,-4.06688 -1.36799,-4.06688c0,0 -2.86476,-2.27685 -2.9505,-2.85725c-0.15338,-1.03828 2.10836,-2.8435 2.10836,-2.8435c0,0 1.25189,1.00644 1.97555,1.57762c0.66583,0.52553 1.57561,2.98741 1.57561,2.98741c0,0 4.12841,-5.5717 8.29185,-4.21031c5.58397,1.82588 4.22558,7.21129 4.22558,6.95539z" fill="#9a1652" stroke="none" stroke-width="0"/><path d="M230.80239,160.80496c0.86132,-1.55025 8.52088,-5.58592 9.70316,-7.17085c2.60911,-3.4977 4.57621,-6.08348 4.57621,-6.08348c0,0 0.91108,5.32297 -0.66029,9.58239c-1.16307,3.15265 6.61433,5.47453 5.8723,5.47453c-1.74455,0 -20.27813,-0.38656 -19.49138,-1.80259z" fill="#000000" stroke="none" stroke-width="0"/></g><g data-paper-data="{&quot;index&quot;:null}"><path d="M219.65377,138.5779c0.8478,-4.00178 1.05969,-6.20696 6.00865,-5.89108c3.43927,0.21953 5.83687,5.53997 5.6375,9.63432c-0.21476,4.36977 -3.06549,5.46494 -5.22987,10.17868c-0.32418,0.44398 -0.41178,3.26813 -0.38937,5.30495c0.00209,0.18978 -0.33717,0.62001 -0.76323,1.1586c-0.26544,0.33555 -0.56457,0.71315 -0.83585,1.10087c-0.58792,0.84029 -1.00834,1.7666 -1.00967,2.05978c-0.00063,0.13988 0.8938,0.58214 1.37429,-0.0945c0.59429,-0.8369 0.82022,-2.85569 1.09309,-2.96133c0.60322,-0.23354 -0.26637,2.51293 -0.44615,3.11094c-0.2653,0.88248 -0.4921,0.63998 -0.44475,1.76587c0.09045,2.15137 1.56896,3.36172 2.62602,4.56955c0.70741,0.80829 0.22384,1.75371 0.01145,1.89649c-0.37801,0.2541 -3.54371,-0.53117 -4.05789,-0.42698c-0.39765,0.08057 -1.34654,-0.40466 -3.49097,-0.27099c-0.82355,0.05133 -1.65645,0.76311 -2.63719,0.82042c-0.71638,0.04187 -1.3057,-0.15857 -1.95166,-0.31313c-0.22206,-0.05314 -1.02829,-0.5319 -1.25815,-0.52625c-0.34771,0.00856 -0.82528,0.48594 -1.23178,0.63526c-0.77623,0.28513 -1.60661,0.69038 -2.28854,0.69435c-3.18977,0.0186 -3.26689,-1.88761 -3.26689,-1.88761c0,0 -3.04432,0.06304 -4.03211,-0.42236c-0.75092,-0.36901 -1.55925,-1.00352 -1.38133,-2.2378c0.24894,-1.72688 1.10352,-2.33605 3.08465,-3.20355c2.98491,-1.30704 6.06524,-0.58009 9.46825,-3.92267c3.20388,-3.14698 4.43719,-15.37296 4.7865,-17.02182z" fill="#ffd5d5" stroke="#000000" stroke-width="1.5"/><path d="M206.90048,168.30772c0,0 -3.07229,0.00278 -3.71369,-0.28946c-0.71612,-0.32628 -0.72723,-1.57737 -0.72723,-1.57737c0,0 2.41577,-0.11037 3.38045,-0.23542c0.79242,-0.10272 2.33677,-0.55138 2.33677,-0.55138l-0.52435,2.84128c0,0 1.64547,0.70646 3.17917,0.82889c0.82685,0.066 0.81717,-1.87392 3.46531,-1.87392c0.98114,0 3.17859,1.26431 4.02568,0.77044c2.1093,-1.22976 5.04158,-5.18813 5.04158,-5.18813c0,0 0.81464,0.24075 0.81464,0.62352c0,0.48247 3.67599,6.1885 3.15662,6.13879c-0.73361,-0.07022 -6.5234,-0.94261 -7.38145,-0.9628c-0.84998,-0.02 -2.23775,0.94386 -3.09742,0.91287c-0.46569,-0.01678 -0.92766,-0.12523 -1.38038,-0.228c-0.43517,-0.09879 -0.94769,-0.55333 -1.3608,-0.55513c-0.55722,-0.00243 -0.93268,0.42362 -1.3338,0.52162c-1.2246,0.29919 -1.88782,0.90551 -3.00328,0.83681c-1.46527,-0.09024 -2.87782,-2.0126 -2.87782,-2.0126z" fill="#fb95a9" stroke="none" stroke-width="0"/><path d="M206.64523,168.40277c0,0 1.25348,-3.1369 2.41663,-3.45707c0.61518,-0.16933 1.83386,-0.25208 2.78582,0.09011c0.96988,0.34863 1.90801,1.37664 1.90801,1.37664c0,0 -2.47695,-0.57435 -3.78841,-0.18953c-1.72244,0.5054 -1.74386,3.47467 -1.74386,3.47467z" fill="#000000" stroke="none" stroke-width="0"/><path d="M220.51528,167.97302l-0.94496,1.89527l-1.41743,-0.1805z" fill="#000000" stroke="none" stroke-width="0"/></g><g data-paper-data="{&quot;index&quot;:null}"><g><path d="M253.08159,118.37703c-0.91359,-3.54783 0.67406,-7.02345 3.54611,-7.76301c2.87204,-0.73956 5.94091,1.53699 6.85448,5.08481c0.91358,3.54782 -0.67408,7.02345 -3.54613,7.76301c-2.87204,0.73957 -5.9409,-1.53698 -6.85447,-5.0848z" fill="#fb95a9" stroke="#000000" stroke-width="2"/><path d="M243.54905,137.29657c-25.12889,2.65436 -28.43987,0.56356 -32.5962,-8.78921c-4.15634,-9.35278 9.80461,-13.97125 23.03664,-19.85152c13.23202,-5.88027 19.91189,-9.51275 24.06823,-0.15997c0.67801,1.52571 1.6941,11.70567 1.6941,11.70567c0,0 8.64025,1.96838 8.85483,6.03374c0.21736,4.39156 -15.55203,10.05722 -25.05762,11.0613z" fill="#ffd5d5" stroke="#000000" stroke-width="2"/><path d="M211.10281,121.0666c0,0 23.53338,-14.79862 29.19879,-17.31631c10.73441,-4.77034 14.96437,0.53776 16.90084,4.89531c0.84579,1.90327 1.41612,10.44228 1.41612,10.44228c0,0 -5.14096,-4.13807 -7.52326,-4.83863c-2.71343,-0.79794 -7.70114,0.21955 -7.70114,0.21955l-3.70398,8.18117l-8.36687,-5.3581c0,0 -1.37457,6.0953 -3.01492,8.85455c-1.74901,2.94201 -7.17411,8.28441 -7.17411,8.28441l-3.95985,0.75399c0,0 -4.24335,-4.004 -5.27481,-6.40246c-0.99078,-2.30381 -0.79682,-7.71581 -0.79682,-7.71581z" fill="#fb95a9" stroke="none" stroke-width="0"/><path d="M205.77824,133.45709c-1.29886,-2.92272 -1.65692,-3.52684 -0.44878,-5.67686c0.96858,-1.72367 8.40834,0.25283 9.7072,3.17556c1.29887,2.92273 1.63548,6.0713 -0.17132,6.87423c-1.80679,0.80292 -7.53166,-0.87288 -9.08709,-4.37295z" fill="#ffd5d5" stroke="#000000" stroke-width="2.5"/><path d="M214.61946,137.01751c-0.64483,0.28655 -3.57204,-0.02645 -5.19185,-1.18378c-1.01125,-0.72252 -1.83522,-1.81685 -2.43612,-2.80322c-0.7369,-1.20962 -0.03152,-2.19836 1.3984,-2.0249c2.3916,0.29013 5.68696,0.90179 6.21902,2.09902c0.85017,1.91306 1.55163,3.22802 0.01055,3.91287z" fill="#fb95a9" stroke="none" stroke-width="0"/><path d="M207.89516,130.44236c-0.25978,-0.58456 7.56901,3.54967 7.56901,3.54967l0.1068,2.83308c0,0 -7.41604,-5.79822 -7.67581,-6.38278z" fill="#000000" stroke="none" stroke-width="0"/><path d="M214.01887,138.22193c-0.9631,-1.60156 0.03244,-3.6232 1.88904,-4.66883c1.85658,-1.04561 3.84209,-2.36684 5.68488,0.26455c0.32438,0.4632 2.36178,3.53316 1.46041,5.6869c-0.14049,0.33571 -1.10691,1.75785 -2.38315,2.37473c-1.7625,0.85192 -3.03751,0.80312 -3.03751,0.80312c0,0 1.54076,-2.36224 1.2866,-2.43244c-0.81061,-0.22389 -4.09109,-0.68242 -4.90028,-2.02803z" fill="#6d0f0a" stroke="#000000" stroke-width="2"/><path d="M201.36064,140.95484c-8.09209,-1.4417 -11.7472,-4.46216 -11.7472,-4.46216c0,0 6.18244,-2.57432 7.6037,-5.32116c1.4326,-2.7688 0.44505,-12.38084 0.44505,-12.38084c0,0 21.96665,-7.2742 30.93142,-11.25812c8.30128,-3.68904 15.59408,-6.90348 20.9388,-9.25111c5.80917,-2.55163 11.95458,-1.83098 14.46683,2.46506c0.62172,1.06314 1.45814,2.4953 1.98643,3.76659c2.41468,5.81073 2.19134,11.93296 2.19134,11.93296c0,0 -7.49138,-5.34197 -11.00613,-7.57212c-4.34697,-2.75817 -10.51795,-4.40656 -10.51795,-4.40656c0,0 0.52332,3.97225 -0.11797,6.89312c-0.66386,3.02358 -3.67538,4.01197 -3.67538,4.01197c0,0 -1.33238,-2.89515 -2.40992,-4.05388c-0.99189,-1.06666 -2.84036,-3.08372 -2.49109,-1.96419c0.35133,1.12619 0.82183,3.9428 1.09218,5.31376c0.69969,3.54832 0.34024,4.19717 0.34024,4.19717c0,0 -2.85263,-2.36186 -5.64692,-4.52347c-2.37588,-1.83794 -5.30021,-2.27864 -5.30021,-2.27864c0,0 -2.79438,5.89675 -4.65187,8.55683c-1.67796,2.40297 -5.6605,6.55572 -5.6605,6.55572c0,0 4.94518,6.79276 1.05954,7.86392c-2.74623,0.75707 -4.07549,0.7108 -5.90304,0.10959c-1.09562,-0.36043 -2.40278,-3.06119 -2.40278,-3.06119l2.14414,-0.23699c0,0 -3.3556,-5.38558 -4.73377,-5.24683c-2.4266,0.2443 -0.87253,-0.67827 -4.03979,0.82456c-0.46101,0.21875 -0.67211,3.54753 0.5392,6.11664c1.30046,2.7582 4.04789,4.76156 4.04789,4.76156c0,0 -3.5305,3.35184 -7.48221,2.6478z" fill="#6d0f0a" stroke="#000000" stroke-width="1.5"/><path d="M239.94029,105.78295c-0.89614,0.39824 -2.50892,-0.13682 -4.37171,0.5362c-2.01816,0.72914 -4.29446,2.67047 -5.31275,3.1652c-14.70666,7.1454 -30.90246,15.47859 -30.90246,15.47859c0,0 -0.31542,-2.67884 -0.75062,-3.87524c-0.46495,-1.27821 -1.66706,-3.69316 -1.66706,-3.69316c0,0 21.22387,-6.37731 33.25097,-11.72211c7.7174,-3.4296 15.71047,-7.35824 21.10168,-8.89073c5.70855,-1.62271 8.99903,-0.92804 8.99903,-0.92804l3.57591,5.96416l-2.59234,0.39325l-8.14713,-3.48905c0,0 -9.07287,5.23413 -13.18353,7.06091z" fill="#6d0f0a" stroke="none" stroke-width="0"/><path d="M241.03155,134.74298c-1.19401,0.34213 -2.1355,-0.57193 -2.94874,-1.49111c-0.91744,-1.037 -1.63084,-2.13009 -1.58937,-2.36848c0.06381,-0.36683 8.90904,-1.56404 9.08196,-1.21307c0.16498,0.33487 -0.74244,1.59693 -2.0421,2.95466c-0.73228,0.76499 -1.22239,1.8176 -2.25182,2.11256z" fill="#ef3d61" stroke="#000000" stroke-width="1.5"/><path d="M242.83582,122.01568c-0.78875,-1.77488 -1.59609,-5.05232 0.67749,-7.26007c0.40819,-0.39641 1.55884,-0.78532 2.94622,-0.9033c1.42203,-0.12093 2.75922,0.13144 3.1369,0.17526c0.74615,0.08659 1.78073,-0.69823 1.78073,-0.69823c0,0 0.91355,-1.0433 1.37479,-1.76884c0.38722,-0.6091 1.00435,-2.75832 1.00435,-2.75832c0,0 0.52424,1.40778 0.03635,3.34017c-0.20104,0.79629 -0.98643,2.37449 -0.98643,2.37449c0,0 0.99848,-0.28205 1.99885,-0.93005c0.75143,-0.48674 2.28616,-2.51579 2.28616,-2.51579c0,0 -0.26643,1.95199 -0.62687,2.88519c-0.24889,0.64441 -1.10367,1.65399 -1.10367,1.65399l0.18351,1.02448c0,0 -2.081,-1.14163 -2.971,-1.22236c-0.71961,-0.06527 -2.13399,0.71026 -2.13399,0.71026c0,0 2.82677,7.18041 -1.68503,9.04718c-3.51788,1.45554 -4.6195,-0.23132 -5.91835,-3.15405z" fill="#000000" stroke="none" stroke-width="0"/><path d="M218.97901,120.80324c0,0 2.08415,1.00231 3.11125,1.21691c0.94527,0.1975 2.22754,-0.28636 2.22754,-0.28636c0,0 -0.58793,-0.57092 -1.18545,-1.17068c-0.62318,-0.62553 -1.97377,-2.57971 -1.97377,-2.57971c0,0 1.82778,1.16283 2.66147,1.48724c0.79728,0.31025 2.51422,0.52552 2.51422,0.52552c0,0 2.35016,-1.09726 3.90749,-1.78933c4.07666,-1.81165 8.00443,-0.10048 8.00443,-0.10048c0,0 -2.49128,0.3616 -3.3497,0.51646c-0.60977,0.10998 -1.25791,0.45325 -1.25791,0.45325c0,0 3.59458,7.71609 -2.19989,10.36794c-4.74597,2.17201 -6.27904,-4.84216 -6.61868,-5.11357c-0.24606,-0.19664 -1.41576,-0.65059 -1.41576,-0.65059c0,0 -1.66631,-0.25019 -2.36349,-0.69253c-0.75845,-0.48121 -2.06171,-2.18409 -2.06171,-2.18409z" fill="#000000" stroke="none" stroke-width="0"/></g><path d="M262.96083,100.04567c0,0 -1.41227,-2.37628 -2.21494,-3.53049c-0.76755,-1.1037 -2.50052,-3.24995 -2.50052,-3.24995c0,0 1.25742,0.21567 2.72519,2.12784c0.95928,1.24973 3.38919,4.51728 3.38919,4.51728z" fill="#000000" stroke="none" stroke-width="0"/></g><g data-paper-data="{&quot;index&quot;:null}"><path d="M258.3188,189.84962c-1.02396,-0.71924 -2.61216,-2.05592 -4.01444,-5.83096c-0.84291,-2.26917 -1.17132,-4.44267 -0.37584,-5.00508c2.46138,-1.74019 13.46271,-2.04366 13.56639,-2.03632c6.29953,0.44584 14.47737,5.73804 14.28523,8.45276c-0.15236,2.15277 -6.00673,4.67397 -12.18175,4.02777c-9.13226,-0.95567 -12.26956,-5.30904 -12.44976,-5.54051c-0.71527,-0.91876 0.83514,1.61277 1.42883,2.61879c0.68043,1.15304 1.95772,2.01422 1.69718,3.07527c-0.29772,1.21248 -1.10686,0.8346 -1.95584,0.23827z" fill="#ee1536" stroke="#000000" stroke-width="1.5"/><path d="M224.56989,164.5301c0.25391,-3.58757 2.35701,-6.64406 5.63625,-8.75125c4.35584,-2.799 10.60094,-4.03303 15.53181,-3.68405c5.30667,0.37557 12.35114,0.6743 14.19104,3.10234c0.49941,0.65907 -0.12127,3.35728 0.048,5.98216c0.09728,1.50864 0.64694,5.18696 1.49128,8.17769c0.61446,2.17653 1.35933,4.67092 2.46802,5.06043c4.59705,1.61509 11.03529,4.62948 9.17776,7.05731c-1.41154,1.84493 -8.84494,1.55331 -14.62252,-0.6596c-5.20029,-1.99179 -8.75162,-5.80691 -10.65631,-6.42799c-3.23121,-1.05364 -10.37147,0.7037 -13.68901,0.00157c-2.16168,-0.4575 -4.01991,-1.31376 -5.39834,-2.18339c-3.41626,-2.15527 -4.33504,-5.45581 -4.17797,-7.67521z" fill="#ffd5d5" stroke="#000000" stroke-width="1.5"/><path d="M254.99732,162.97203c0,0 1.62368,-1.02454 2.33123,-1.67972c0.64149,-0.59401 1.73532,-2.08584 1.73532,-2.08584c0,0 0.30227,2.4594 0.43402,3.71524c0.11911,1.13542 0.32235,3.49502 0.32235,3.49502c0,0 -2.11924,-0.71917 -2.99023,-1.34128c-0.69804,-0.49856 -1.83268,-2.10341 -1.83268,-2.10341z" fill="#fb95a9" stroke="none" stroke-width="0"/><path d="M274.43208,181.35176c0.19426,-0.34108 1.68068,-0.01784 2.93131,0.69446c1.25063,0.7123 2.51274,2.54497 2.31847,2.88605c-0.19426,0.34107 -1.43393,-1.23137 -2.68456,-1.94367c-1.25062,-0.7123 -2.75947,-1.29576 -2.5652,-1.63684z" fill="#fc9ea5" stroke="none" stroke-width="0"/></g><g data-paper-data="{&quot;index&quot;:null}"><path d="M231.77856,188.95305c1.93188,-6.56918 6.88378,-8.81714 11.69561,-7.40207c4.81184,1.41506 7.2656,7.24737 5.33372,13.81657c-1.93189,6.5692 -10.05047,12.89482 -13.65214,11.63576c-3.56602,-1.24659 -5.4551,-11.13817 -3.52322,-17.70737z" fill="#ee1536" stroke="#000000" stroke-width="1.5"/><path d="M234.00631,185.95144c0,0 1.72483,-3.0378 3.95491,-3.89732c0.74802,-0.2883 4.09082,-0.15042 6.71403,1.23112c1.78295,0.939 3.09148,2.91525 3.57843,3.92524c0.83874,1.73962 0.46468,3.73414 0.46468,3.73414c0,0 -1.6527,1.83029 -5.26591,2.05112c-1.90003,0.11613 -4.79871,-1.69179 -6.70365,-3.62928c-1.71759,-1.74693 -2.74248,-3.41501 -2.74248,-3.41501z" fill="#9a1652" stroke="none" stroke-width="0"/><path d="M237.51242,175.78606c-0.11791,-7.10709 1.18014,-11.00582 9.58213,-11.50382c4.91253,-0.29118 7.04843,5.22078 6.95485,7.64488c-0.3131,8.1103 -8.27499,15.98717 -8.27499,15.98717c0,0 2.13601,7.84585 -6.04896,9.63702c-4.00247,0.87588 -4.6925,-6.10481 -4.18361,-7.86837c0.92389,-3.20166 2.94082,-5.2173 2.94082,-5.2173c0,0 -0.91787,-5.52156 -0.97026,-8.6796z" fill="#ffd5d5" stroke="#000000" stroke-width="1.5"/><path d="M244.74212,176.46308c-1.04201,-0.54394 -1.35858,-1.49042 -1.77939,-2.41927c-0.50779,-1.12081 -1.06534,-3.99619 -1.06534,-3.99619c0,0 2.0152,1.2525 3.1381,1.76295c1.10502,0.50232 3.69455,1.10847 3.69455,1.10847c0,0 -1.3182,2.54633 -1.9815,3.101c-0.61645,0.5155 -0.96439,0.987 -2.0064,0.44306z" fill="#fb95a9" stroke="none" stroke-width="0"/><path d="M238.07035,203.87953c-0.64195,0.02783 1.40589,-1.18856 2.1814,-1.74658c0.86024,-0.61898 2.58897,-2.6321 2.66047,-2.26827c0.14459,0.73571 -1.23452,2.30401 -2.02051,2.86957c-0.85307,0.61383 -1.73161,1.09804 -2.82135,1.14529z" fill="#fc9ea5" stroke="none" stroke-width="0"/></g></g></g></svg>