<svg version="1.1" xmlns="http://www.w3.org/2000/svg" xmlns:xlink="http://www.w3.org/1999/xlink" width="173" height="208" viewBox="0,0,173,208"><defs><radialGradient cx="263.76549" cy="142.68534" r="43.87922" gradientUnits="userSpaceOnUse" id="color-1"><stop offset="0" stop-color="#8f8256"/><stop offset="1" stop-color="#8d681f"/></radialGradient><radialGradient cx="264.67001" cy="149.20748" r="18.68929" gradientUnits="userSpaceOnUse" id="color-2"><stop offset="0" stop-color="#0c0b0b"/><stop offset="1" stop-color="#533907"/></radialGradient><radialGradient cx="292.00899" cy="140.69686" r="15.62237" gradientUnits="userSpaceOnUse" id="color-3"><stop offset="0" stop-color="#36270c"/><stop offset="1" stop-color="#0c0b0b"/></radialGradient><radialGradient cx="235.97048" cy="146.83324" r="15.62237" gradientUnits="userSpaceOnUse" id="color-4"><stop offset="0" stop-color="#36270c"/><stop offset="1" stop-color="#0c0b0b"/></radialGradient></defs><g transform="translate(-153.5,-76)"><g data-paper-data="{&quot;isPaintingLayer&quot;:true}" fill-rule="nonzero" stroke-linejoin="miter" stroke-miterlimit="10" stroke-dasharray="" stroke-dashoffset="0" style="mix-blend-mode: normal"><g data-paper-data="{&quot;index&quot;:null}"><g data-paper-data="{&quot;index&quot;:null}"><path d="M220.75901,174.06048c-0.93556,-3.33427 10.21723,-17.04758 12.68417,-17.30761c2.68117,-0.28261 13.37742,11.6718 13.37742,11.6718l-1.94314,3.28948l12.45786,-21.99589c0,0 3.91948,-7.81358 5.89732,-6.38058c0,0 11.83183,1.9725 25.75,16.78711c-1.82142,5.22831 -10.17913,15.06368 -10.17913,15.06368c0,0 -17.54605,22.69825 -22.60563,22.25636c-5.05952,-0.44187 -34.5609,-20.25549 -35.43885,-23.38435z" fill="#68330c" stroke="none" stroke-width="3" stroke-linecap="round"/><path d="M257.33582,149.38289c0,0 4.81536,-7.18129 6.74087,-5.74415c0,0 11.61096,2.1052 25.09507,16.87175c-1.00472,2.75761 -3.89495,6.80455 -6.34697,9.95062c-0.43189,-0.31869 -0.82999,-0.59904 -1.1594,-0.82762c-7.30153,-5.06645 -17.93473,-11.29813 -25.67071,-17.0861c-0.07666,-0.05736 1.34116,-3.1645 1.34116,-3.1645z" fill="#ffddb7" stroke="#000000" stroke-width="2" stroke-linecap="butt"/><path d="M257.05339,151.67648l26.01161,18.20315l-2.3031,2.96545l-25.89191,-17.77049z" data-paper-data="{&quot;index&quot;:null}" fill="#ffffff" stroke="#000000" stroke-width="2" stroke-linecap="round"/><path d="M221.0016,173.98569c-0.93555,-3.33425 10.21722,-17.04756 12.68416,-17.30759c2.68115,-0.28261 13.37741,11.67179 13.37741,11.67179l-1.94314,3.28949l12.45785,-21.9959c0,0 3.91947,-7.81359 5.8973,-6.38059c0,0 11.83182,1.9725 25.74999,16.78711c-1.82143,5.22832 -10.17911,15.0637 -10.17911,15.0637c0,0 -17.54605,22.69823 -22.60563,22.25634c-5.05951,-0.44187 -34.5609,-20.25549 -35.43885,-23.38435z" data-paper-data="{&quot;origPos&quot;:null}" fill="none" stroke="#000000" stroke-width="2.5" stroke-linecap="round"/></g><g stroke-linecap="butt"><path d="M281.01097,108.84542c0,0 1.25299,6.81208 -2.49445,7.21441c-1.1561,0.12412 -6.63249,2.37934 -9.4947,0.84187c-1.41106,-0.75795 2.67752,-4.56674 -0.44276,-8.45203c-0.66127,-0.82343 -17.48542,0.10793 -17.14209,3.25329c1.23624,11.32559 -3.68256,6.83869 -4.3633,7.11316c-8.98117,3.62129 -7.26737,-5.54687 -7.26737,-5.54687l-0.86739,-8.07935l41.20468,-4.42381z" fill="#8c651a" stroke="#000000" stroke-width="2.5"/><g stroke="#000000"><path d="M222.44759,168.78969l-5.39521,-50.25267l87.25699,-9.36802l5.39519,50.25264z" fill="#121010" stroke-width="3"/><path d="M222.83458,172.49568l-5.3952,-50.25266l87.257,-9.36802l5.3952,50.25268z" fill="url(#color-1)" stroke-width="2.5"/></g><path d="M255.15202,169.02602l-3.99008,-37.165l23.02613,-2.4721l3.99009,37.16501z" fill="url(#color-2)" stroke="#000000" stroke-width="2.5"/><path d="M276.55537,142.4394c-0.66636,-8.60753 5.7123,-16.36532 14.24706,-17.32767c8.53484,-0.96238 15.99387,5.23524 16.66025,13.84266c0.66637,8.60751 -5.71232,16.3653 -14.24708,17.32765c-8.53484,0.96234 -15.99388,-5.23525 -16.66024,-13.8427z" fill="url(#color-3)" stroke="none" stroke-width="0"/><path d="M220.5168,148.5758c-0.66637,-8.60749 5.71232,-16.3653 14.24708,-17.32765c8.53479,-0.96236 15.99387,5.23525 16.66024,13.84268c0.66636,8.60748 -5.71232,16.36528 -14.24708,17.32765c-8.53479,0.96233 -15.99384,-5.23527 -16.66021,-13.84271z" fill="url(#color-4)" stroke="none" stroke-width="0"/></g></g><path d="M233.55935,262.92708c0,0 0.27786,4.5288 -1.10179,6.61673c-1.05612,1.59841 -3.3355,1.92345 -5.4975,2.11723c-5.93441,0.53194 -11.41206,-1.58982 -20.59926,-2.71058c-2.50217,-0.30524 -3.37873,-3.57194 -2.85457,-5.65218c0.49027,-1.94567 1.48425,-5.30256 1.48425,-5.30256l9.12083,-32.61c0,0 1.34474,-4.18951 3.53593,-4.70431c5.27673,-1.23966 10.36186,0.85697 15.81959,1.26018c1.84955,0.13663 1.17217,4.96072 1.17217,4.96072z" fill="#000000" stroke="#000000" stroke-width="3" stroke-linecap="round"/><path d="M235.96688,225.5905c0,0 -0.31829,-4.96412 1.45098,-5.00872c5.22083,-0.13164 10.20164,-2.01277 15.13909,-0.47498c2.05031,0.63859 3.04655,4.98859 3.04655,4.98859l6.47367,33.79013c0,0 0.71882,3.4812 1.05375,5.49451c0.35812,2.1526 -0.69697,5.44551 -3.0987,5.62885c-8.81831,0.6732 -14.17434,2.55989 -19.78554,1.71146c-2.04423,-0.3091 -4.19127,-0.75831 -5.08818,-2.44588c-1.17161,-2.20437 -0.60091,-6.81774 -0.60091,-6.81774z" fill="#000000" stroke="#000000" stroke-width="3" stroke-linecap="round"/><g data-paper-data="{&quot;index&quot;:null}" stroke="#000000"><path d="M214.02769,179.34709c0,0 1.88097,-14.3235 4.16314,-14.88066c3.64797,-0.89066 9.82297,-0.78512 16.36443,-0.69295c5.73546,0.08082 11.75265,0.0556 16.59528,0.63042c1.87824,0.22293 3.18604,14.42646 3.18604,14.42646l1.539,27.83686c0,0 0.60192,16.86916 -1.16229,16.86916c-15.70477,0 -34.1118,0.86713 -41.11177,0.01188c-2.3333,-0.28507 -1.45744,-16.31119 -1.45744,-16.31119z" fill="#68330c" stroke-width="2.5" stroke-linecap="round"/><g><g><path d="M227.64221,163.78289h19.64441v8.8363c-0.29984,1.2382 -0.5307,2.25558 -0.66414,2.77816c-1.31106,5.13471 -8.89091,26.15575 -9.56612,29.64809c-3.24842,-10.66177 -6.37062,-21.48595 -9.41416,-32.34434z" fill="#ffffff" stroke-width="2" stroke-linecap="butt"/><path d="M232.90173,164.67279h8.8022v2.23888c-0.13435,0.30106 -4.09344,6.94484 -4.39599,7.79401c-1.45555,-2.59239 -3.04248,-5.19602 -4.40621,-7.83622z" fill="#ffddb7" stroke-width="1.5" stroke-linecap="butt"/><path d="M237.11109,201.07011l0.36438,-26.6264" fill="none" stroke-width="1.5" stroke-linecap="round"/><path d="M237.19105,222.95422v-18.43365" fill="none" stroke-width="2" stroke-linecap="round"/><path d="M237.88071,177.55515c0,-0.28083 0.23679,-0.50852 0.52889,-0.50852c0.29209,0 0.52888,0.22767 0.52888,0.50852c0,0.28083 -0.23678,0.50851 -0.52888,0.50851c-0.29209,0 -0.52889,-0.22766 -0.52889,-0.50851z" fill="#000000" stroke-width="0.5" stroke-linecap="butt"/><path d="M237.76318,183.65733c0,-0.28083 0.23678,-0.50851 0.52888,-0.50851c0.29209,0 0.52889,0.22766 0.52889,0.50851c0,0.28083 -0.23679,0.50852 -0.52889,0.50852c-0.29209,0 -0.52888,-0.22767 -0.52888,-0.50852z" fill="#000000" stroke-width="0.5" stroke-linecap="butt"/><path d="M237.74288,189.75952c0,-0.28083 0.23679,-0.50852 0.52889,-0.50852c0.29209,0 0.52888,0.22767 0.52888,0.50852c0,0.28083 -0.23678,0.50852 -0.52888,0.50852c-0.29209,0 -0.52889,-0.22767 -0.52889,-0.50852z" fill="#000000" stroke-width="0.5" stroke-linecap="butt"/><path d="M238.24859,220.2704c0,-0.28083 0.23678,-0.50851 0.52888,-0.50851c0.29209,0 0.52889,0.22766 0.52889,0.50851c0,0.28083 -0.23679,0.50852 -0.52889,0.50852c-0.29209,0 -0.52888,-0.22767 -0.52888,-0.50852z" fill="#000000" stroke-width="0.5" stroke-linecap="butt"/><path d="M237.99323,214.05521c0,-0.28083 0.23679,-0.50851 0.52889,-0.50851c0.29209,0 0.52889,0.22766 0.52889,0.50851c0,0.28083 -0.23679,0.50852 -0.52889,0.50852c-0.29209,0 -0.52889,-0.22767 -0.52889,-0.50852z" fill="#000000" stroke-width="0.5" stroke-linecap="butt"/><path d="M236.84443,206.64214l-18.26197,-27.16599l5.51305,-4.63809l-3.10109,-5.63197l5.51306,-2.65034" fill="none" stroke-width="2" stroke-linecap="round"/><path d="M247.69874,166.37246l5.13072,2.6722l-2.46107,5.61964l4.0894,4.65995l-17.15998,27.59439" fill="none" stroke-width="2" stroke-linecap="round"/><g stroke-width="1.5" stroke-linecap="round"><path d="M245.55463,211.07977l0.09007,-3.29032l2.97186,1.03906l2.16136,-3.20374l0.1801,5.54161z" fill="#ffffff"/><path d="M243.99221,211.41505h8.73548" fill="none"/></g></g><path d="M236.42955,174.07825l-7.45514,3.02682" fill="none" stroke-width="1.5" stroke-linecap="round"/><path d="M245.16898,176.81894l-7.58044,-2.4847" fill="none" stroke-width="1.5" stroke-linecap="round"/></g></g><path d="M219.92432,164.97366c-4.46703,-1.1249 -5.70876,-4.00381 -5.70876,-4.00381c0,0 -1.7054,-2.56371 -1.72951,-4.13435c-0.07237,-4.71195 0.35564,-18.16196 1.80497,-29.71361c0.04837,-0.38553 0.0896,-0.60044 0.16102,-0.9824c0.2142,-1.14589 1.2411,-5.58563 1.2411,-5.58563c0,0 3.3524,-1.56013 5.15542,-1.96996c5.40908,-1.22953 18.94281,0.86052 33.24363,1.88377c1.29617,0.09273 3.44967,1.90459 3.44967,1.90459c0,0 1.45293,3.27416 1.31912,5.29947c-0.86498,13.09402 -1.87051,27.57844 -2.31869,30.88077c-0.07758,0.57173 -0.43509,3.05168 -2.28715,5.0914c-0.48808,0.53752 -2.31703,2.73969 -5.89646,3.06431c-8.98955,0.81527 -24.93859,-0.85423 -28.43434,-1.73457z" fill="#ffddb7" stroke="#000000" stroke-width="2.5" stroke-linecap="round"/><path d="M249.56609,148.796c0.23237,-3.51754 0.84592,-6.34098 1.3704,-6.30631c0.52451,0.03466 0.76131,2.91431 0.52898,6.43183c-0.23237,3.51754 -0.84593,6.34098 -1.37041,6.30632c-0.52451,-0.03466 -0.76131,-2.91431 -0.52897,-6.43185z" fill="#000000" stroke="#000000" stroke-width="2.5" stroke-linecap="butt"/><path d="M243.0447,148.54336c0.23667,-3.58269 0.74743,-6.46597 1.14081,-6.43995c0.39336,0.026 0.5204,2.95144 0.28374,6.53413c-0.23667,3.58269 -0.7474,6.46592 -1.14079,6.43994c-0.39336,-0.026 -0.52042,-2.95141 -0.28376,-6.5341z" fill="#000000" stroke="#000000" stroke-width="2.5" stroke-linecap="butt"/><path d="M257.01591,143.10186c-0.06486,-0.80806 -0.12785,-1.61559 -0.19524,-2.42263c-0.82054,0.4121 -1.59508,0.7674 -1.74476,0.84203c-1.64388,0.81997 -4.2776,2.17792 -6.08247,2.41938c-0.88256,0.11809 -1.94547,0.44936 -2.67115,-0.06432c-0.8974,-0.63524 -0.65616,-3.06432 -0.62816,-3.99683c0.10531,-3.50602 0.21875,-7.01187 0.32901,-10.51778c-1.68797,1.70148 -4.32557,3.14811 -5.94705,4.66212c-3.64756,3.40572 -7.5191,6.45165 -11.30245,9.6613c-1.29772,1.10095 -2.37823,2.15181 -3.80142,3.09933c-0.54561,0.36328 -0.9493,1.17795 -1.60501,1.13556c-0.91569,-0.05921 -1.5803,-0.9284 -2.37045,-1.3926c-0.07795,-1.60821 -0.15639,-3.64903 0.00509,-5.49147c-0.82034,1.05894 -1.90147,2.07656 -2.54048,2.99788c-2.22767,3.21175 -6.2752,12.46592 -6.2752,12.46592c-3.87658,-0.2027 -7.34712,-3.83569 -9.51218,-6.73842c-2.07827,-0.10184 -4.12493,-0.35197 -6.21842,-0.41849c-0.49912,-0.01587 -3.28731,-0.0606 -3.59088,-0.27947c-1.8705,-1.34863 -1.26048,-2.58769 -0.68128,-4.25134c0.46343,-1.33112 1.2474,-2.45195 2.22378,-3.40202c-1.10369,-0.71633 -2.3691,-1.59045 -2.6899,-2.53108c-0.58003,-1.70076 0.09487,-2.35558 0.88296,-3.61017c0.88196,-1.40404 1.99463,-2.59594 3.25786,-3.61349c-0.69827,-0.45827 -1.44492,-0.97911 -1.52633,-1.1726c-0.85945,-2.04261 0.11267,-2.78785 1.07763,-4.22361c1.66457,-2.47675 4.51725,-3.8579 7.19602,-4.85547c0.24941,-2.58581 1.53869,-4.16635 2.87408,-6.42689c1.75866,-2.97708 4.95466,-7.29978 9.76242,-10.52436c5.27579,-3.53847 11.8312,-5.47911 13.85942,-5.88048c4.40144,-0.87099 9.99493,-0.61118 12.15544,-0.32452c3.98005,0.52813 11.01599,2.65395 16.01243,6.07024c5.03529,3.44285 7.66882,7.85392 8.03131,8.56672c3.16448,6.22266 5.14386,12.1046 4.93644,19.02305c-0.05415,1.72986 0.72701,10.79771 -2.0324,15.64019c-3.3522,5.88282 -10.67018,8.32845 -10.97431,8.41857c-0.3602,0.10675 -1.81933,-0.17071 -1.99687,-1.25148c-0.42762,-2.60335 0.87136,-7.96725 1.55627,-10.0957c0.12792,-0.34462 0.24606,-0.69259 0.35904,-1.04236c-0.11482,-0.25168 -0.13273,-0.47465 -0.13273,-0.47465z" fill="#000000" stroke="none" stroke-width="0.5" stroke-linecap="butt"/><g><g data-paper-data="{&quot;index&quot;:null}"><path d="M243.9713,189.49168c2.33187,0.72842 7.30845,-1.78896 6.63197,0.37668c-0.45067,1.44274 -11.48292,19.9706 -13.32216,20.67055c-0.92151,0.35072 -2.23646,0.35286 -3.01487,0.10971c-1.14409,-0.35741 -1.90093,-1.25704 -2.26811,-2.42346c-0.3812,-1.21108 5.522,-21.48273 5.86659,-22.58583c0.6765,-2.16566 3.77473,3.12385 6.1066,3.85231z" fill="#485e84" stroke="#000000" stroke-width="1.5" stroke-linecap="butt"/><g stroke-linecap="butt"><path d="M246.18786,182.32114c4.22483,1.31975 6.94328,4.65104 6.07188,7.44064c-0.87141,2.78958 -5.00272,3.98113 -9.22757,2.6614c-4.22484,-1.31976 -6.94328,-4.65107 -6.07188,-7.44065c0.87141,-2.78959 5.0027,-3.98117 9.22755,-2.6614z" fill="#485e84" stroke="#000000" stroke-width="1.5"/><path d="M247.98603,189.81083l3.92078,-0.46251c0,0 -1.23421,1.56391 -1.96144,1.97407c-1.53712,0.83721 -3.23912,0.71141 -3.23912,0.71141z" fill="#6987bb" stroke="none" stroke-width="0"/><path d="M244.3724,189.54762l1.62873,0.18739c0,0 -0.19895,1.01235 -0.32867,1.34954c-0.15189,0.39484 -0.6362,1.02603 -0.6362,1.02603l-1.86231,-0.52698z" fill="#6987bb" stroke="none" stroke-width="0"/></g><g><path d="M244.15033,188.47081c-5.82823,-1.82065 -7.98799,-6.2605 -6.16738,-12.08878c1.82061,-5.82819 8.3199,-8.98372 14.14817,-7.16311c5.82825,1.82064 8.66631,7.2373 6.84569,13.06556c-1.82061,5.8282 -8.99819,8.00695 -14.82647,6.18632z" fill="#2c394f" stroke="#000000" stroke-width="1.5" stroke-linecap="butt"/><path d="M253.85337,170.65024c0,0 6.84758,4.73752 5.25467,9.8368c-0.90328,2.89164 -3.2473,5.44897 -5.68919,7.09392c-1.73973,1.17195 -4.00142,1.68724 -6.06156,1.0437c-4.23461,-1.32283 -5.15146,-3.67896 -3.55855,-8.77822c0.7955,-2.54654 3.26344,-5.20846 5.73104,-6.73306c2.47359,-1.52833 4.32359,-2.46313 4.32359,-2.46313z" fill="#485e84" stroke="none" stroke-width="0" stroke-linecap="butt"/><path d="M258.63184,182.24682c0,0 -4.12607,3.10009 -10.9424,1.23452c-6.8722,-1.88085 -8.85295,-6.40176 -8.85295,-6.40176" fill="none" stroke="#000000" stroke-width="0.8" stroke-linecap="round"/><path d="M255.96989,186.49765c0,0 -4.64924,0.99845 -9.12207,0.30877c-6.44595,-0.9939 -8.22407,-3.75798 -8.22407,-3.75798" fill="none" stroke="#000000" stroke-width="0.75" stroke-linecap="round"/><path d="M259.11607,177.44277c0,0 -4.12245,2.44383 -11.05062,0.96077c-6.66368,-1.42645 -7.9957,-4.05167 -7.9957,-4.05167" fill="none" stroke="#000000" stroke-width="0.8" stroke-linecap="round"/><path d="M240.54348,173.03872c0,0 4.71783,-1.02753 8.25484,-0.86649c4.65877,0.21209 9.09826,1.64958 9.09826,1.64958" fill="none" stroke="#000000" stroke-width="0.8" stroke-linecap="round"/><path d="M242.15113,187.00921c0,0 -1.34586,-3.97143 0.32449,-10.19045c1.55876,-5.80344 5.19026,-7.46341 5.19026,-7.46341" fill="none" stroke="#000000" stroke-width="0.8" stroke-linecap="round"/><path d="M249.89792,169.73492c0,0 -1.1023,2.85046 -1.81266,6.11269c-0.62468,2.86881 -0.83724,6.07573 -1.23808,7.67052c-0.4761,1.89419 -1.65718,4.94861 -1.65718,4.94861" fill="none" stroke="#000000" stroke-width="0.8" stroke-linecap="round"/><path d="M252.72318,170.04575c0,0 1.60693,5.4603 0.46992,9.49587c-1.78458,6.33398 -5.30439,9.64107 -5.30439,9.64107" fill="none" stroke="#000000" stroke-width="0.8" stroke-linecap="round"/><path d="M255.93565,171.55749c0,0 1.35517,3.93037 0.7744,8.09626c-0.83633,5.99904 -3.25778,8.59861 -3.25778,8.59861" fill="none" stroke="#000000" stroke-width="0.8" stroke-linecap="round"/><path d="M257.5826,180.52137c-0.41556,-0.1298 -0.63104,-0.62376 -0.48125,-1.10327c0.14977,-0.47951 0.60808,-0.76299 1.02365,-0.63317c0.41557,0.12982 0.63105,0.62377 0.48126,1.10327c-0.14976,0.47952 -0.6081,0.76302 -1.02366,0.63318z" fill="#6987bb" stroke="none" stroke-width="0" stroke-linecap="butt"/><path d="M257.75582,177.01787c-0.23977,-0.07491 -0.37339,-0.32998 -0.29852,-0.56972c0.07493,-0.23977 0.32998,-0.37339 0.56973,-0.29852c0.23979,0.07489 0.37341,0.32997 0.29854,0.56972c-0.0749,0.23978 -0.32998,0.37339 -0.56973,0.29852z" fill="#6987bb" stroke="none" stroke-width="0" stroke-linecap="butt"/></g></g><g><path d="M210.47612,162.35974c2.86604,-1.45843 17.38236,6.20309 18.06786,8.40223c0.74504,2.39014 -8.19523,14.30483 -8.19523,14.30483l-3.34891,-1.17112l22.29598,7.34336c0,0 7.82816,2.14784 6.883,4.20957c0,0 0.35601,11.13307 -10.60279,26.502c-5.09235,-0.70758 -15.56886,-6.52924 -15.56886,-6.52924c0,0 -23.86107,-11.84901 -24.37902,-16.53672c-0.51793,-4.68769 12.15847,-35.15629 14.84796,-36.5249z" fill="#68330c" stroke="none" stroke-width="3" stroke-linecap="round"/><path d="M239.60126,191.17848c0,0 7.41534,3.07872 6.45691,5.09353c0,0 0.19496,10.95608 -10.799,25.92101c-2.69389,-0.41331 -6.90486,-2.3091 -10.21572,-3.96968c0.21164,-0.45129 0.39456,-0.86477 0.54277,-1.20634c3.28546,-7.57051 7.02601,-18.38685 10.88947,-26.48419c0.03829,-0.08024 3.1256,0.64565 3.1256,0.64565z" fill="#ffddb7" stroke="#000000" stroke-width="2" stroke-linecap="butt"/><path d="M237.46132,191.33849l-11.84467,26.99781l-3.11935,-1.55784l11.47247,-26.81011z" data-paper-data="{&quot;index&quot;:null}" fill="#ffffff" stroke="#000000" stroke-width="2" stroke-linecap="round"/><path d="M210.58835,162.567c2.86604,-1.45843 17.38236,6.20309 18.06786,8.40223c0.74504,2.39014 -8.19524,14.30483 -8.19524,14.30483l-3.34891,-1.17112l22.29598,7.34336c0,0 7.82816,2.14784 6.883,4.20956c0,0 0.35601,11.13307 -10.60279,26.502c-5.09235,-0.70758 -15.56886,-6.52924 -15.56886,-6.52924c0,0 -23.86107,-11.84901 -24.37902,-16.53671c-0.51793,-4.68769 12.15847,-35.15629 14.84796,-36.5249z" data-paper-data="{&quot;origPos&quot;:null}" fill="none" stroke="#000000" stroke-width="2.5" stroke-linecap="round"/></g></g><path d="M224.27152,154.80635c0.68811,0.3554 0.3118,0.99207 0.3118,0.99207l-0.62532,1.04651c-0.91348,2.69066 3.21955,2.56542 5.1334,2.25742c0,0 0.77178,-0.12343 0.91125,0.59518c0.13948,0.71861 -0.63228,0.84203 -0.63228,0.84203c-3.49384,0.55552 -7.8825,-0.13991 -6.87047,-4.24394l0.70723,-1.20804c0,0 0.37629,-0.63666 1.06439,-0.28126z" fill="#000000" stroke="none" stroke-width="0.5" stroke-linecap="butt"/><path d="M153.5,284v-208h173v208z" fill="none" stroke="none" stroke-width="0" stroke-linecap="butt"/></g></g></svg>