<svg version="1.1" xmlns="http://www.w3.org/2000/svg" xmlns:xlink="http://www.w3.org/1999/xlink" width="258.66667" height="258.66667" viewBox="0,0,258.66667,258.66667"><g transform="translate(-107.4386,-52.08774)"><g data-paper-data="{&quot;isPaintingLayer&quot;:true}" fill-rule="nonzero" stroke-linejoin="miter" stroke-miterlimit="10" stroke-dasharray="" stroke-dashoffset="0" style="mix-blend-mode: normal"><g data-paper-data="{&quot;index&quot;:null}" stroke-linecap="butt"><path d="M276.28085,225.48484c0,0 0.34387,3.60918 -11.0505,6.71028c-17.3417,4.71974 -50.24937,9.65325 -61.3955,9.84743c-5.39638,0.09401 -11.4343,-3.11444 -16.38335,-5.0606c-10.99593,-4.32402 -12.65553,-9.00081 -12.65553,-9.00081c0,0 -1.73476,-4.8341 -0.82277,-6.92086c0.74034,-1.69406 5.76337,-1.05485 5.76337,-1.05485c0,0 44.3579,-7.45097 72.31577,-8.91512c1.20369,-0.06304 1.98477,4.21835 3.10196,4.14861c6.03717,-4.84911 15.12304,-6.02738 15.30986,-5.88182c4.60219,3.58565 5.8167,16.12772 5.8167,16.12772z" fill="#0066cc" stroke="#000000" stroke-width="3"/><path d="M199.4747,217.8256c-0.06039,-1.80476 -1.81407,-8.64512 -1.81407,-8.64512c0,0 12.29863,-0.60975 27.18929,-0.79991c12.32575,-0.15741 21.35393,-3.91939 21.35393,-3.91939c0,0 6.32051,8.49741 6.76193,8.98317c1.00394,1.1048 0.70137,2.87344 0.70137,2.87344c0,0 -1.43011,4.78115 -2.41224,7.2159c-1.20185,2.97947 -4.87019,11.24568 -4.87019,11.24568c0,0 -0.74361,1.54504 -1.91788,0.3895c-2.13647,-2.10237 -5.52107,-7.84072 -7.19024,-10.54137c-0.96721,-0.06843 -1.83566,-0.16034 -2.84671,-0.08028c-3.01724,0.23894 -6.23496,1.30755 -9.77766,1.42672c-4.42931,0.149 -8.43709,0.20915 -11.89941,-0.38322c-8.11299,-1.38803 -13.17856,-4.78945 -13.27813,-7.7651z" fill="#0f1b82" stroke="none" stroke-width="0"/><path d="M231.57566,226.62291c0,0 4.62325,-3.79486 5.57065,-4.5735c1.09542,-0.90031 4.16356,-2.91984 4.16356,-2.91984c0,0 -1.00667,2.3838 -3.79132,5.74712c-2.98581,3.60631 -5.94289,1.74621 -5.94289,1.74621z" fill="#000000" stroke="none" stroke-width="0"/></g><g data-paper-data="{&quot;index&quot;:null}" stroke-linecap="butt"><g><path d="M249.61803,204.18526c0,0 -0.47107,11.33612 -19.17248,14.38316c-18.07088,2.94431 -28.45421,1.06334 -34.18331,-0.41512c-3.12581,-0.80665 -8.19412,-1.24397 -8.19412,-1.24397c0,0 -2.13841,-8.32014 -2.93886,-16.79596c-0.74053,-7.84128 -0.14009,-15.73966 -0.31565,-19.12425c-0.54193,-10.4476 3.83624,-8.30132 3.83624,-8.30132l33.10172,5.91463c0,0 -0.13688,2.97866 -0.82133,8.32417c8.9677,4.58941 28.3262,13.40031 28.68777,17.25867z" fill="#feebf7" stroke="#000000" stroke-width="3"/><path d="M226.90017,197.51508l0.53509,0.565c0.0542,0.05656 0.09969,0.1208 0.13434,0.1908c0.52578,0.55713 1.03873,1.13896 1.54228,1.74444c4.21836,6.06539 0.89998,10.89007 -6.32792,11.62912c-8.09818,0.79842 -12.06884,-1.84797 -17.40579,-6.69368c-2.80993,-2.97793 -9.0791,-10.11275 -2.74096,-13.10882c0.75819,-0.35841 2.22933,-0.48482 3.04855,-0.6694c3.54117,-0.70842 8.02806,-0.71958 11.46395,0.64704c1.34421,0.53467 2.79729,1.25265 4.07148,2.01599c0.30381,0.16863 0.6929,0.25332 0.98644,0.43394zM219.53693,197.33567c-0.56279,1.95124 -0.80326,4.2999 -1.28467,6.01681c-0.27822,0.88 -1.44234,3.85103 -0.56044,4.58832c1.90376,1.59158 8.1939,-0.69692 8.77251,-2.82251c-0.12698,-3.79491 -3.43824,-6.06135 -6.92741,-7.78263zM216.1503,195.78229c-0.72526,-0.32468 -1.41104,-0.6385 -2.02487,-0.95208c-3.10001,-0.91724 -4.79078,-0.58933 -7.82115,0.37489c-0.61762,0.19652 -2.267,0.37366 -2.36591,1.19474c-0.19138,1.58879 1.34261,3.5006 2.21881,4.75678c0.98113,1.41679 4.36658,5.22611 6.45579,4.99679c0.34814,-0.03821 0.8334,-1.13173 0.9469,-1.34905c0.86214,-1.65074 0.97954,-3.66039 1.47932,-5.43406c0.20061,-1.13551 0.51647,-2.19559 0.97379,-3.25737l0.13733,-0.33063z" fill="#ff0000" stroke="none" stroke-width="0.5"/></g><path d="M185.12757,190.53356c0,0 0.44167,-4.69598 1.85657,-6.0609c5.82553,-5.61974 7.69043,-3.22672 7.69043,-3.22672c0,0 -2.78782,27.4419 -4.53305,34.74474c-3.85474,0.04922 -5.01396,-25.45714 -5.01396,-25.45714z" fill="#db93e6" stroke="none" stroke-width="0"/></g><g data-paper-data="{&quot;index&quot;:null}" stroke-linecap="butt"><path d="M189.61902,218.55512c0,0 -11.31463,1.52821 -15.52627,0.80555c-3.1269,-0.53653 -6.9147,-4.24505 -6.9147,-4.24505c0,0 -0.63365,0.08347 -0.89471,-1.656c-0.1997,-1.33066 3.08129,-2.1999 3.89829,-4.28192c1.70057,-4.33369 1.73399,-10.18325 1.73399,-10.18325c0,0 -2.00743,-7.24911 3.34886,-8.71176c7.2355,-1.9758 11.98577,1.96317 11.98577,1.96317c0,0 3.4287,9.46122 3.57491,13.83077c0.16972,5.07202 -1.20614,12.4785 -1.20614,12.4785z" fill="#fddfbd" stroke="#000000" stroke-width="2.35"/><path d="M172.53709,199.75205c-0.56105,-3.9462 -0.03397,-8.98817 3.702,-9.03588c3.902,-0.04983 7.67824,-0.47727 10.19925,2.0565c1.56715,1.57507 2.01867,7.23114 2.01867,7.23114c0,0 -2.84295,2.33682 -8.91351,4.54658c-5.56568,2.02597 -7.0094,0.79619 -7.0094,0.79619c0,0 0.41787,-2.67642 0.00299,-5.59453z" fill="#f89587" stroke="none" stroke-width="0"/></g><g data-paper-data="{&quot;index&quot;:null}" stroke="none" stroke-width="0" stroke-linecap="butt"><path d="M169.7683,198.90243c-0.67284,-0.2289 -2.1603,-1.28194 -2.69736,-2.25085c-1.53607,-2.77125 3.84126,-7.71721 4.06012,-13.03525c0.22721,-5.5211 -3.32593,-11.65446 -2.25166,-14.16893c0.26189,-0.61296 2.85653,-1.86402 3.66084,-2.04441c8.81017,1.52574 22.07752,8.77202 22.07752,8.77202l0.16733,5.63665c0,0 -11.685,21.62633 -25.01679,17.09076z" fill="#feebf7"/><path d="M193.30291,185.04891c0,0 -2.89239,10.9264 -14.08295,14.42019c-4.67545,1.45971 -12.67339,-0.31507 -12.67339,-0.31507c-3.52922,-1.69581 -1.11005,-7.87885 1.35652,-13.07949c0.7466,-1.57417 1.88002,-3.1654 1.24102,-6.75119c-0.75685,-4.24708 -3.93115,-11.20835 -3.93115,-11.20835c0,0 1.19307,-2.30417 2.54611,-0.9489c0.59437,0.59534 1.50337,4.19275 2.01896,5.12386c1.85544,3.35079 3.06898,9.4975 2.71333,11.02121c-0.53473,2.29093 -4.34225,11.97496 -4.34225,11.97496c0,0 -0.34742,1.03019 0.07274,1.60831c1.41885,1.95228 6.17478,1.8261 8.70308,1.18572c6.09014,-1.54254 9.41625,-5.03052 12.01802,-7.97094c2.45935,-2.77945 4.35997,-5.0603 4.35997,-5.0603z" fill="#000000"/></g><g data-paper-data="{&quot;index&quot;:null}" stroke-linecap="butt"><g><g><path d="M224.59203,248.02868c-0.18673,-5.58012 -1.20677,-16.56543 5.35757,-21.19126c1.63541,-1.15247 5.88809,-4.48235 9.78805,-1.06405c0.44378,0.38897 -0.694,1.44881 0.13365,2.89976c0.30551,0.53559 2.20768,0.56759 2.72132,1.19563c1.62259,1.98393 5.00719,3.88957 5.71341,3.80029c2.078,-5.369 8.80695,-11.90332 11.09375,-12.42697c4.1094,-0.94102 19.92776,2.29292 19.861,5.3053c0.58869,2.4426 -3.22518,6.52686 -3.22518,6.52686c0,0 16.81774,8.64154 23.12348,12.08569c10.85801,5.93056 11.22114,10.75833 11.22114,10.75833c0,0 0.7251,2.40517 -3.60339,3.67944c-8.48468,2.49783 -19.08497,3.32834 -31.56011,3.16288c-12.12077,-0.16076 -11.94942,-6.25329 -24.70227,-7.4306c-10.75291,-0.9927 -25.61236,1.96538 -25.92244,-7.30128z" fill="#ff2d32" stroke="#000000" stroke-width="3"/><path d="M290.84403,260.96934c0,0 -11.72366,1.36235 -17.67724,0.61789c-6.00739,-0.75119 -14.37214,-6.52822 -20.19879,-7.25261c-12.33096,-1.53303 -19.90445,0.58529 -23.13047,-1.42055c-0.2075,-0.12901 -5.06225,-1.79451 -4.62243,-7.4564c1.05728,-13.61087 7.24466,-15.75965 7.24466,-15.75965c0,0 7.49585,7.69419 16.00725,8.56654c1.66692,0.17084 0.42484,-2.60533 0.42484,-2.60533c0,0 -0.28677,-1.33888 0.07689,-2.23759c0.54461,-1.34588 2.87315,-5.05275 2.87315,-5.05275c0,0 0.86247,1.99976 3.1744,4.33297c2.79083,2.81651 8.0382,5.50416 13.49224,8.93912c6.06307,3.81853 16.12936,7.08917 18.58285,9.18828c2.67198,2.28603 3.75265,10.14007 3.75265,10.14007z" fill="#ab164a" stroke="none" stroke-width="0"/><path d="M233.87247,233.26476c0.04712,1.40828 -0.65874,1.92168 -2.14182,1.94062c-1.48307,0.01894 -2.21964,-0.38492 -2.26676,-1.79321c-0.04713,-1.40828 0.85055,-1.92412 2.33363,-1.94306c1.48307,-0.01894 2.02783,0.38737 2.07495,1.79566z" fill="#000000" stroke="none" stroke-width="0"/><path d="M245.67791,233.38732c0,0 1.22248,0.1666 5.44991,2.29921c3.44169,1.73622 5.65696,2.7521 5.65696,2.7521c0,0 -0.52847,1.20495 -6.03896,0.16823c-5.7359,-1.07912 -5.0679,-5.21953 -5.0679,-5.21953z" fill="#000000" stroke="none" stroke-width="0"/></g><g><path d="M258.43887,240.41782c0.75547,-3.47878 3.67487,-5.59275 5.56848,-6.09875c8.0241,-2.14417 14.41692,-1.23837 14.32208,0.39529c-0.17092,2.94377 -6.03347,3.25699 -9.70467,5.86777c-1.85701,1.32063 -2.38062,2.73746 -3.47609,3.83488c-1.04582,1.04767 -2.84338,2.32314 -4.82817,1.03102c-1.77114,-1.15303 -2.20006,-3.56397 -1.88163,-5.03021z" fill="#feebf7" stroke="#000000" stroke-width="2.5"/><path d="M259.26653,241.33753c-0.07289,-2.17845 1.83822,-3.21794 1.83822,-3.21794c0,0 0.89277,0.12084 2.49403,0.85297c2.10017,0.96025 2.84624,2.02275 2.84624,2.02275c0,0 -0.7444,0.81405 -1.45971,1.65844c-0.92124,1.08749 -1.2329,2.50997 -2.39106,2.52476c-2.05744,0.02628 -3.25484,-1.66253 -3.32773,-3.84098z" fill="#db93e6" stroke="none" stroke-width="0"/></g><g><path d="M268.68904,249.40875c-0.60085,-0.66348 0.52491,-4.96827 3.68655,-8.09677c7.5116,-7.43286 11.26484,-7.34658 12.80842,-4.94384c1.39662,2.17399 -4.25976,5.18846 -8.165,9.11129c-3.48591,3.5016 -7.12842,5.25615 -8.32998,3.9293z" fill="#feebf7" stroke="#000000" stroke-width="2.5"/><path d="M274.23165,246.71224c0,0 -2.95326,2.72817 -4.23703,2.32582c-0.79329,-0.24863 -0.32081,-3.43962 -0.00423,-3.9694c0.84694,-1.41731 2.19992,-1.88959 2.19992,-1.88959l3.67507,1.66053c0,0 -0.93942,1.29782 -1.63372,1.87264z" fill="#db93e6" stroke="none" stroke-width="0"/></g><g><path d="M291.01852,239.2091c3.16359,2.27179 -2.81595,3.43291 -6.3374,7.68491c-3.10988,3.75505 -4.02643,8.09558 -7.6026,6.30305c-2.97754,-1.49247 9.27234,-17.33985 13.94,-13.98796z" fill="#ffffff" stroke="#000000" stroke-width="2.5"/><path d="M277.283,251.79757c-0.05843,-1.74622 3.33346,-4.70989 3.33346,-4.70989l1.09942,1.69264c0,0 -1.11795,3.02374 -2.3878,4.01791c-1.05661,0.82722 -2.01005,0.04623 -2.04508,-1.00068z" fill="#db93e6" stroke="none" stroke-width="0"/></g></g><g><path d="M280.6373,272.33481c-6.42676,0.08207 -15.19955,-6.12643 -22.92377,-6.80027c-11.37295,-0.99215 -30.69546,-1.20451 -34.27197,-4.46944c-3.27179,-2.98675 -4.84061,-12.05115 -0.17158,-12.74904c1.23078,6.03751 6.99409,6.47372 11.50101,6.5205c5.45468,0.05662 12.9579,-0.16125 18.9543,0.86937c10.61936,1.82518 16.49851,7.22494 24.55119,7.1221c13.84286,-0.17678 23.1684,-1.84833 28.35887,-3.61196c2.81849,-0.95767 3.68256,-2.38903 5.07239,-2.60018c1.81927,-0.2764 3.94042,3.87598 3.94042,3.87598c0,0 0.15963,4.17323 -4.41015,7.01412c-4.7831,2.9735 -14.6453,4.62506 -30.60069,4.82882z" fill="#ffffff" stroke="#000000" stroke-width="3"/><path d="M222.97329,248.17817c0,0 -0.34757,1.64721 1.54577,3.78388c1.23337,1.3919 3.1509,3.06447 7.94055,4.08661c4.20526,0.89743 18.57921,-0.09418 22.03783,0.7542c4.78501,1.17373 8.03384,2.95543 11.92357,4.51012c1.52075,0.60784 3.14938,1.47701 4.99119,1.81696c7.49573,1.38351 10.35183,0.97307 13.46284,0.793c4.6342,-0.26824 7.41306,-0.84676 7.41306,-0.84676c0,0 1.08049,1.77153 0.59141,3.74926c-0.48908,1.97773 -1.99504,3.30676 -1.99504,3.30676c0,0 -4.61562,2.59573 -13.38577,0.34394c-4.97404,-1.27712 -6.10416,-1.58999 -15.62291,-5.44635c-4.9259,-1.99564 -28.81959,-1.95333 -33.25848,-3.60958c-1.31004,-0.4888 -3.40791,-0.54571 -4.19021,-0.93363c-2.64792,-1.313 -1.6457,-2.61668 -2.32849,-4.5723c-1.2761,-3.65497 0.87468,-7.7361 0.87468,-7.7361z" fill="#db93e6" stroke="none" stroke-width="0"/></g></g><g data-paper-data="{&quot;index&quot;:null}" stroke-linecap="butt"><path d="M155.60906,248.24932c2.6894,-3.04522 10.84425,-7.82947 17.44129,-9.49604c-4.70659,-2.49391 -11.29716,-4.22646 -11.51927,-6.09868c-0.69676,-5.87316 0.99027,-6.28979 3.10536,-7.81218c1.7622,-1.26841 16.79179,6.39053 16.79179,6.39053c0,0 0.8797,-4.99815 5.53767,-6.14992c3.99609,-0.98811 12.73032,1.6857 18.30595,3.15094c3.68378,0.96807 7.63183,2.56165 9.14964,5.39352c0.94823,1.76917 -0.67308,6.03983 0.92291,4.80756c4.04952,-3.12663 14.12902,-3.27389 16.98676,-1.16985c2.50152,1.84176 3.90648,6.94389 3.02609,9.27856c-0.37197,0.98643 -12.6729,0.34148 -12.41233,1.36393c0.51665,2.02719 -3.05056,4.69825 -2.67226,6.36003c1.00005,4.39305 2.66032,6.8282 2.66032,6.8282c0,0 1.9005,6.41852 -1.66057,9.4006c-4.57614,3.83211 -16.06674,4.45846 -29.91992,4.63538c-24.63347,0.31459 -46.08917,-15.16813 -35.74344,-26.8826z" fill="#ff2d32" stroke="#000000" stroke-width="2.5"/><path d="M217.90859,245.01786c0,0 1.51595,-2.42173 6.81,-3.46935c4.73711,-0.93741 8.87604,-0.86499 8.87604,-0.86499c0,0 0.46324,1.88416 0.79289,2.80023c0.36893,1.02525 -0.2484,2.68766 -0.2484,2.68766c0,0 -3.89413,0.51898 -9.19141,0.25448c-1.83211,-0.09147 -2.64261,0.44051 -3.53579,0.45072c-1.20437,0.01376 -2.44518,-0.47909 -3.05962,-1.00701c-0.45002,-0.38665 -0.44371,-0.85173 -0.44371,-0.85173z" fill="#ab164a" stroke="none" stroke-width="0"/><path d="M177.60653,235.19751c0,0 3.25231,-0.13378 4.62148,-1.835c-0.34547,-3.18725 2.49272,-6.44853 4.76882,-7.08772c3.84179,-1.07888 14.22717,2.1069 14.22717,2.1069c0,0 0.61103,4.19621 0.91897,6.14252c0.35469,2.24169 0.60473,6.86644 0.60473,6.86644c0,0 -16.17288,0.59341 -19.84027,0.57542c-1.19107,-0.00584 -4.08002,0.87399 -4.08002,0.87399c0,0 -2.23832,-2.8019 -4.50224,-4.43204c-1.85362,-1.33469 -5.49539,-2.16732 -5.5225,-2.65847c-0.01152,-0.20873 -4.3695,-1.28257 -6.0348,-2.95771c-1.61309,-1.62263 -0.27299,-4.83884 0.63015,-4.75876c2.15235,0.19085 14.2085,7.16441 14.2085,7.16441z" fill="#ab164a" stroke="none" stroke-width="0"/><path d="M163.88998,232.98252c-0.97652,-1.09001 -0.85592,-2.01938 -0.32749,-2.10995c3.00197,-0.51454 5.00256,2.20744 5.80709,3.87251c0.28916,0.59844 0.46137,1.81897 0.46137,1.81897c0,0 -1.37176,-1.19047 -2.81908,-1.17199c0,0 -2.11433,-1.2849 -3.12189,-2.40954z" fill="#000000" stroke="none" stroke-width="0"/><path d="M225.77395,244.08189c0.06504,-0.87239 0.84739,-0.77142 3.31839,-0.80297c3.13035,-0.03997 3.91724,0.19692 3.99129,2.40975c0.05449,1.62807 -2.4048,0.55553 -4.41485,-0.01896c-1.69136,-0.4834 -2.99656,-0.22316 -2.89482,-1.58783z" fill="#000000" stroke="none" stroke-width="0"/><path d="M157.35139,248.86042c0,0 0.33656,4.75015 0.84787,6.23276c0.47962,1.39072 2.18548,4.03273 2.18548,4.03273c0,0 0.8732,-1.47432 1.77778,-2.6399c0.41579,-0.53577 0.31157,-1.1972 1.07071,-1.28006c5.05894,-0.55223 16.03613,2.05212 24.90051,2.84476c26.96971,2.4116 31.42296,12.5645 31.42296,12.5645c0,0 -6.5962,4.65671 -31.66945,3.72418c-7.76179,-0.28867 -16.60795,-1.40559 -23.13963,-4.39401c-6.28083,-2.87365 -8.84474,-5.179 -11.25326,-11.38098c-1.3331,-3.43275 0.82276,-7.19439 2.39574,-8.91379c0.67056,-0.73299 1.46129,-0.7902 1.46129,-0.7902z" fill="#ab164a" stroke="none" stroke-width="0"/><g><path d="M145.66954,253.95622c-0.08827,-0.54097 7.61833,-4.5273 7.61833,-4.5273c0,0 -1.97265,5.05783 0.59282,10.48416c2.94902,6.23763 11.58515,13.0509 30.94709,14.70766c10.75081,0.91993 30.78513,0.14884 37.19022,-5.37768c1.96166,-1.69259 3.12129,-4.93201 2.20793,-7.46257c-1.14858,-3.18225 -2.65619,-5.06001 -1.12129,-5.43101c2.39113,-0.57795 5.31801,5.52242 5.43251,8.94394c0.13541,4.04657 -0.89406,7.29075 -3.86746,10.22457c-6.62819,6.53998 -20.13256,8.08173 -37.1734,8.29935c-15.18865,0.19396 -40.59661,-13.68934 -41.23134,-15.2201c-0.20506,-0.49455 0.21745,-9.6598 -0.59539,-14.64101z" fill="#ffffff" stroke="#000000" stroke-width="2.5"/><path d="M147.42569,256.63705c0,0 7.47534,20.584 34.5247,23.2951c42.01115,4.21069 44.94764,-9.67281 44.94764,-9.67281c0,0 -0.9182,3.44567 -6.56276,7.00873c-5.29346,3.34143 -14.65417,7.39733 -37.18453,5.12785c-10.96381,-1.10437 -20.30778,-5.35704 -26.3895,-8.76334c-5.80484,-3.25123 -9.43943,-5.70953 -9.43943,-5.70953l0.10389,-11.28599z" fill="#db93e6" stroke="none" stroke-width="0"/></g><g><g><path d="M174.52407,244.8873c-0.04541,-0.53239 5.95309,-5.10912 17.20177,-4.88825c18.19236,0.35719 23.67137,10.7584 23.14864,12.03674c-1.05208,2.57287 -9.51004,-5.5266 -23.89533,-6.52194c-11.23198,-0.77716 -16.3276,0.86868 -16.45508,-0.62656z" fill="#ffffff" stroke="#000000" stroke-width="2"/><path d="M180.15074,244.24483l-1.37654,-1.35797c0,0 5.07887,-2.38736 7.95847,-2.39104c9.24394,-0.01181 13.63058,1.72233 13.63058,1.72233l-2.47065,3.47043z" fill="#db93e6" stroke="none" stroke-width="0"/></g><g><path d="M169.06069,250.29083c-0.2258,-0.28088 -0.67408,-1.80268 3.0122,-2.91889c3.11171,-0.94223 9.85613,-1.51946 15.2031,-1.58775c11.68126,-0.14917 25.71818,6.7902 24.93032,10.63691c-0.4447,2.17126 -11.25746,-3.83551 -22.93872,-3.68633c-11.68127,0.14917 -19.53792,-1.61176 -20.20691,-2.44393z" fill="#ffffff" stroke="#000000" stroke-width="2"/><path d="M192.89758,251.86242c0,0 -3.83713,-0.20101 -5.11401,-0.22438c-1.25976,-0.02306 -2.93798,0.26061 -2.93798,0.26061l-2.83456,-5.04635c0,0 5.40011,-0.40189 7.81161,-0.08745c4.71023,0.61417 6.00077,1.02681 6.00077,1.02681l-2.92583,4.07075z" fill="#db93e6" stroke="none" stroke-width="0"/></g><path d="M165.17655,254.81097c-0.02279,-0.68092 0.21381,-2.8977 3.44187,-3.11437c3.97938,-0.2671 11.43956,0.95926 18.67747,0.86683c7.11865,-0.09091 14.49384,1.73585 18.71862,3.75322c3.55533,1.6977 4.54565,3.47731 4.59293,4.89016c0.10345,3.09172 -12.64663,-4.55467 -25.75591,-4.38725c-13.10929,0.16742 -19.6011,0.19925 -19.67498,-2.00858z" fill="#ffffff" stroke="#000000" stroke-width="2"/></g></g><g data-paper-data="{&quot;index&quot;:null}" stroke="none" stroke-width="0" stroke-linecap="butt"><path d="M162.17456,224.27921c-0.16575,-4.95336 2.39895,-7.85785 5.62549,-7.88641c1.80504,-0.01597 2.95174,2.72061 6.03847,2.01767c3.75701,-0.8556 6.59744,-5.98254 9.89818,-6.23475c3.6622,-0.27984 9.19455,7.04937 9.19455,7.04937c0,0 -1.08198,7.27334 -3.03904,13.25024c-2.05831,6.28606 -5.19316,11.17134 -8.17763,10.95714c-3.19692,-0.22947 -19.16869,-8.05599 -19.54003,-19.15327z" fill="#0066cc"/><path d="M191.08256,227.27583c0,0 -1.30907,3.67317 -1.83586,5.65956c-1.15922,4.37109 -4.08383,10.38021 -7.90792,10.2688c-2.2128,-0.06447 -6.38696,-2.6671 -11.08676,-6.98797c-3.16335,-2.9083 -7.37554,-6.60745 -8.33044,-10.78817c-0.24469,-1.07129 1.67882,-2.54777 1.6412,-3.67204c9.10005,7.89227 13.86801,14.68696 15.33019,14.37088z" fill="#0f1b82"/><path d="M194.20275,220.549c0,0 -7.44832,-7.44087 -9.71446,-7.91674c-0.47069,-0.09884 -7.18319,5.22934 -10.28941,6.51385c-0.54547,0.22557 -2.12224,0.3159 -3.42758,-0.22086c-1.11861,-0.45998 -1.91066,-1.47498 -3.1171,-2.19534c-0.82313,0.34815 -5.3798,7.88288 -5.3798,7.88288c0,0 11.30816,17.6879 18.57127,18.05738c1.86892,0.09507 4.64439,-2.08011 6.2387,-5.4004c1.21429,-2.52888 2.22055,-5.95115 3.16501,-8.29099c0.86249,-2.13674 1.71877,-3.30974 1.71877,-3.30974c0,0 -0.61291,4.29079 -1.75781,8.81959c-1.26439,5.00148 -5.13829,10.89362 -9.76286,10.03286c-1.07947,-0.20093 -5.12042,-1.78641 -7.9703,-4.29949c-6.09262,-5.3726 -12.40746,-14.08018 -12.55491,-16.20025c-0.07601,-1.09297 1.9169,-3.46579 2.78204,-4.71899c1.16496,-1.68749 2.47087,-3.90081 5.31414,-4.5405c1.50903,-0.33951 3.63537,2.43901 5.13915,2.01785c4.74732,-1.3296 9.21797,-7.26727 11.97317,-6.95286c2.7552,0.3144 9.072,10.72174 9.072,10.72174z" fill="#000000"/></g><g data-paper-data="{&quot;index&quot;:null}" stroke-linecap="butt"><g data-paper-data="{&quot;index&quot;:null}"><path d="M252.31991,177.02451c-1.80569,6.82342 -15.83562,7.8293 -45.40967,4.60394c-14.45253,-1.5762 -32.30046,-9.55682 -40.71203,-15.5512c-5.51851,-3.93267 6.50488,-37.03443 12.64911,-39.89244c16.13699,-7.50623 47.83941,-9.75694 61.50173,1.29076c8.37137,6.76932 3.31377,28.12695 3.31377,28.12695c0,0 -3.25884,4.87545 -5.34632,12.63676c4.05976,0.854 15.38957,3.54714 14.00341,8.78521z" fill="#fddfbd" stroke="#000000" stroke-width="3"/><path d="M237.9655,162.62967c0,0 -21.09736,-12.60565 -24.82385,-12.5496c-0.72579,1.13584 -3.31031,15.06693 -3.7756,14.79648c-11.62334,-6.75608 -15.06131,-9.9026 -15.06131,-9.9026l-13.17205,17.69036c0,0 -5.38876,-7.19192 -7.71256,-10.72883c0.20362,-2.22507 -2.67386,5.66235 -2.67386,5.66235l-3.99611,-2.68303c0,0 -0.544,-1.49648 -0.37372,-2.75728c0.80742,-5.97801 4.61614,-22.91094 14.75588,-28.9777c11.81563,-7.06946 64.89844,3.66236 64.89844,3.66236c0,0 -2.29541,13.0566 -3.7796,17.80207c-1.7541,3.15463 -3.79749,8.44216 -3.79749,8.44216z" fill="#f89587" stroke="none" stroke-width="0"/></g><g><g><path d="M143.75699,151.40619c0,0 -7.90318,3.92556 -15.29486,5.93568c-5.12336,1.39326 -9.93299,1.24291 -11.97575,0.8026c-4.98995,-1.0756 -5.37551,-11.63757 -2.0447,-13.05727c1.9556,-0.83355 6.29221,-0.95029 10.01869,-0.85236c9.2946,0.24426 20.16279,2.40958 20.16279,2.40958l-0.86618,4.76174z" fill="#0066cc" stroke="#000000" stroke-width="3"/><path d="M113.87021,152.5143c0,0 2.49688,0.37518 11.4435,-0.10119c7.5969,-0.40452 11.04468,-2.256 13.27154,-3.21336c2.01217,-0.86505 2.75156,-1.3907 2.75156,-1.3907l0.34973,2.96422c0,0 -9.9964,5.08164 -17.03143,5.97175c-4.13554,0.52324 -8.33897,-0.0121 -8.33897,-0.0121c0,0 -1.41386,-1.24892 -1.73546,-1.8969c-0.34058,-0.68623 -0.71048,-2.32173 -0.71048,-2.32173z" fill="#0f1b82" stroke="none" stroke-width="0"/></g><g stroke="#000000"><path d="M250.3485,139.18863c0,0 -56.33318,3.72014 -66.03088,6.14348c-12.65361,3.16198 -24.59855,5.78107 -24.59855,5.78107c0,0 -12.05887,-5.17212 -15.10192,-17.78783c-0.93161,-3.8622 9.42587,-23.37084 10.89113,-25.63033c4.43447,-6.83813 7.13627,-16.64944 18.69064,-20.2934c30.95031,-9.76098 69.54909,1.04187 76.8314,7.73315c6.40181,5.88223 -0.02364,23.27579 -0.02364,23.27579z" fill="#ff2d32" stroke-width="3"/><path d="M157.39768,150.36541c0,0 -12.19704,-11.70141 -12.12047,-19.25088c0.07781,-7.67195 22.46775,-41.4841 26.24742,-41.10554c12.82659,1.28465 13.80831,54.88509 13.80831,54.88509l-27.93527,5.47133z" fill="#ab164a" stroke-width="1.5"/></g></g><g><path d="M142.23818,137.26505c0.66224,-0.84509 9.63186,6.42127 14.0675,13.36083c2.54889,3.98773 1.18399,8.79096 0.81151,11.81283c-0.28542,2.31551 -4.72195,5.27669 -7.76954,5.51487c-4.89639,0.38266 -9.37623,-27.79582 -7.10947,-30.68854z" fill="#fddfbd" stroke="#000000" stroke-width="3"/><path d="M145.9321,159.35639c0,0 1.0629,0.43344 2.98917,-0.12976c2.4364,-0.71236 7.80244,-3.9219 7.80244,-3.9219c0,0 1.12136,3.91104 0.99986,5.02511c-0.16587,1.52084 -3.8266,4.41598 -6.6898,5.67226c-1.56039,0.68465 -2.57934,0.1271 -2.75934,0.16151c-0.49221,0.09409 -2.34231,-6.80723 -2.34231,-6.80723z" fill="#f89587" stroke="none" stroke-width="0"/><path d="M148.62329,149.50107c0.07596,-0.59016 7.97874,4.3188 7.45231,5.56005c-0.67945,1.60204 -3.64498,9.03783 -5.61909,6.81416c-0.80624,-0.90816 -2.19272,-9.58075 -1.83321,-12.3742z" fill="#f89587" stroke="#000000" stroke-width="1.5"/></g><g><g data-paper-data="{&quot;index&quot;:null}"><path d="M182.10559,161.05947c-1.78144,1.88776 -5.11161,-6.78602 -5.77115,-6.37756c-0.43348,0.26846 -5.25159,2.81196 -9.21319,5.87982c-4.02673,3.11829 -7.33537,7.3384 -7.46346,7.03109c-0.06969,-0.16719 -2.10794,-14.82783 -0.78659,-15.90105c7.29558,-5.92559 34.79514,-7.69377 34.79514,-7.69377c0,0 -9.27129,14.63534 -11.56076,17.06146z" fill="#50a5eb" stroke="#000000" stroke-width="3"/><path d="M182.83782,149.81496l8.02715,-4.30817l-9.54428,14.68958z" fill="#66ffff" stroke="none" stroke-width="0"/></g><g data-paper-data="{&quot;index&quot;:null}"><path d="M267.24993,170.88674c0,0 -15.87799,-9.53457 -23.85936,-12.75096c-0.84195,-0.3393 2.44159,-2.55823 1.11764,-3.2212c-7.31008,-3.66055 -23.65617,-9.02717 -31.48534,-11.65159c-0.6156,-0.20636 -2.12684,-0.69506 -2.54968,-0.28218c-2.20644,2.15448 -1.0742,10.77807 -3.1161,10.57866c-2.20836,-0.21567 -4.28781,-1.79671 -6.17231,-4.10207c-2.94744,-3.60567 -5.33347,-7.37657 -5.33347,-7.37657c0,0 8.16032,-9.43862 19.32393,-44.28587c2.95624,1.9745 8.88898,9.64267 9.97407,15.06125c0.98572,4.92238 -0.46771,8.75157 0.26238,8.1579c7.25068,-5.89585 20.22468,-10.04765 25.03237,-10.21812c8.35954,-0.29641 26.74634,38.17976 26.74634,38.17976c0,0 -13.88326,-3.53463 -22.43158,-3.10698c5.71999,4.21064 12.37538,21.01244 12.49114,25.01794z" fill="#66ffff" stroke="#000000" stroke-width="3"/><path d="M237.48728,135.84374c0,0 7.3891,8.49623 11.06825,13.13514c4.33733,5.46878 14.13536,17.34686 14.13536,17.34686l-17.49447,-8.94035c0,0 2.36729,-1.40569 0.19387,-3.55454c-1.4288,-1.41264 -4.75537,-2.29261 -9.64099,-4.11859c-3.70699,-1.38548 -20.01359,-6.97754 -24.73959,-8.38923c-0.78766,-0.23527 -1.58545,0.91759 -1.58545,0.91759c0,0 -1.39256,2.02019 -1.70622,3.35196c-0.45666,1.93885 -0.69222,6.45003 -0.69222,6.45003c0,0 -2.7727,-1.16528 -4.04608,-2.41987c-1.79915,-1.77261 -5.7276,-7.20962 -5.7276,-7.20962c0,0 1.82733,-2.92911 4.35567,-7.07336c4.67935,-7.67001 10.91923,-23.32297 14.01717,-35.38541c0.61574,1.61765 3.49057,29.75427 3.49057,29.75427c0,0 9.21054,-2.90016 17.34788,-5.05806c5.29311,-1.40365 10.65537,-2.5398 10.94326,-2.2001c7.09674,3.98718 18.39333,20.61259 18.39333,20.61259c0,0 -17.68594,-4.95227 -22.62735,-6.21224c-2.3201,-0.59159 -5.68541,-1.00706 -5.68541,-1.00706z" fill="#50a5eb" stroke="none" stroke-width="0"/></g></g></g><path d="M107.4386,310.75441v-258.66667h258.66667v258.66667z" data-paper-data="{&quot;index&quot;:null}" fill="none" stroke="none" stroke-width="0" stroke-linecap="butt"/><g data-paper-data="{&quot;index&quot;:null}"><path d="M297.70504,195.50417c3.25226,0 7.71597,1.59904 10.33354,4.5652c1.31153,1.48619 2.15959,3.89171 2.15959,5.4554c0,2.29836 -1.36209,4.19805 -3.52217,5.53702c-2.24264,1.39015 -5.33045,2.17589 -7.81712,2.17589c-4.8818,0 -6.33928,-3.02835 -6.33928,-7.71291c0,-4.68456 0.30364,-10.0206 5.18544,-10.0206z" fill="#485e84" stroke="#000000" stroke-width="3" stroke-linecap="butt"/><path d="M254.41549,220.89335c-1.86322,-5.95861 2.9383,-9.33171 11.47039,-9.33171c8.5321,0 14.67949,2.07184 14.67949,7.94872c0,2.41454 -0.11801,9.89772 -4.15487,10.14836c-6.82623,0.42382 -6.62772,-5.42759 -8.08872,-5.40478c-4.14636,0.06472 -12.24172,1.96269 -13.90628,-3.36059z" fill="#f89587" stroke="#000000" stroke-width="3" stroke-linecap="butt"/><path d="M254.41182,203.65746c0,-11.82142 1.79621,-28.68803 13.90538,-29.08699c4.75817,-0.15676 6.39199,7.04154 8.21583,7.04154c4.66587,0 8.24342,-1.18381 11.61357,1.90385c1.63732,1.50007 1.71054,3.00701 3.35097,4.17339c3.33353,2.37022 5.49657,-0.0643 7.93303,2.6117c0.61554,0.96422 6.51509,13.20001 4.90882,18.93315c-1.93213,6.89623 -6.86521,9.77497 -10.07912,10.71124c-5.21089,1.51803 -8.8051,-2.77818 -8.8051,-2.77818c0,0 -4.15233,1.73214 -6.44159,1.28048c-2.2274,-0.43946 -3.6028,-2.8602 -6.7138,-3.85395c-0.77059,-0.24615 -1.10927,3.13937 -5.70485,2.73192c-10.04272,-0.89041 -12.18315,-8.48012 -12.18315,-13.66814z" fill="#fddfbd" stroke="#000000" stroke-width="3" stroke-linecap="butt"/><path d="M275.67024,202.25652c0,0 0.53983,0.40859 1.2014,2.18563c0.54412,1.46154 1.01891,4.25318 2.65086,5.01807c0.81854,0.38365 4.92822,0.58155 6.3157,-0.01841c1.07671,-0.46559 1.70712,-1.40994 2.04267,-1.45143c1.6618,-0.20549 2.32063,-7.53074 2.32063,-7.53074l1.86226,-2.49278c0,0 1.34633,6.38665 1.55112,11.55891c2.45869,2.42292 4.04256,4.15548 4.04256,4.15548l4.57531,-2.04974c0,0 -1.03744,2.02791 -2.61536,3.59558c-0.6873,0.68283 -2.05591,1.08542 -2.51814,1.51769c-2.99159,2.79769 -7.15359,3.03202 -10.11931,0.20692c-0.36117,-0.34405 -1.357,-1.58011 -2.36642,-1.03377c-3.54593,1.91921 -4.48671,1.26139 -6.16154,0.58982c-2.13015,-0.85414 -4.84902,-2.33628 -4.84902,-2.33628c0,0 -0.2733,-1.0819 -1.04354,-0.91302c-0.99166,0.21744 -2.05545,1.72647 -3.43593,2.38936c-0.56991,0.27367 -1.58883,-0.09067 -2.05457,0.03082c-1.02965,0.26859 -2.94365,-0.08911 -4.07488,-0.58275c-1.06671,-0.46549 -1.37144,-1.05187 -1.70499,-1.34801c-1.29492,-1.14967 -3.12357,-6.01388 -1.82682,-7.57539c1.57388,-1.89523 6.49511,-0.40371 6.49511,-0.40371c0,0 3.89918,3.99841 6.90264,3.78482c2.25851,-0.16061 2.81026,-7.29708 2.81026,-7.29708z" fill="#f89587" stroke="none" stroke-width="0" stroke-linecap="butt"/><path d="M274.09451,195.70537c0.61259,-1.76764 2.5846,-3.55206 3.5479,-3.4896c0.44239,0.02868 0.58485,1.34341 0.58485,1.34341c0,0 -1.2931,1.11757 -1.62861,2.28258c-0.37201,1.29172 -0.6138,3.559 -0.39413,5.40588c0.39311,3.30504 0.97538,6.3806 0.36238,8.77183c-0.54545,2.12773 -2.48746,5.40727 -2.48746,5.40727l-2.44957,-0.30442c0,0 1.54583,-4.1557 2.05484,-5.36434c0.70907,-1.6837 0.42121,-4.38313 0.20847,-6.17171c-0.32487,-2.73132 -0.49337,-5.87633 0.20133,-7.8809z" fill="#000000" stroke="none" stroke-width="0" stroke-linecap="butt"/><path d="M288.25049,207.52642c0,-2.75057 -0.38034,-5.68325 0.54626,-7.59174c0.81708,-1.68292 2.82402,-3.4277 3.7732,-3.2519c0.43591,0.08073 0.35647,1.95475 0.35647,1.95475c0,0 -1.18842,0.61111 -1.65918,1.72834c-0.52196,1.23873 -0.33157,3.07842 -0.33157,4.93832c0,3.32832 -0.48335,6.8343 -1.37448,9.1364c-0.79294,2.04842 -2.00515,3.08581 -2.00515,3.08581l-3.20819,-0.83725c0,0 1.734,-1.70859 2.3822,-2.84865c0.90297,-1.58816 1.52043,-4.51292 1.52043,-6.31411z" fill="#000000" stroke="none" stroke-width="0" stroke-linecap="butt"/><g stroke-linecap="butt"><path d="M255.68091,184.53328c5.60406,0 10.14706,6.88034 10.14706,15.36765c0,8.48731 -4.543,15.36765 -10.14706,15.36765c-5.60406,0 -10.14705,-6.88034 -10.14705,-15.36765c0,-8.48732 4.54299,-15.36765 10.14705,-15.36765z" fill="#485e84" stroke="#000000" stroke-width="3"/><path d="M258.21434,192.3274l-3.08823,-6.91177c0,0 3.56807,1.36482 4.73459,2.46135c2.41119,2.3347 3.15406,5.52184 3.15406,5.52184z" fill="#8fbbbe" stroke="none" stroke-width="0"/><path d="M259.79856,199.09209l-0.58823,-3.08823c0,0 1.96667,-0.21467 2.65803,-0.17007c0.80952,0.05223 2.2417,0.57783 2.2417,0.57783l0.10027,3.70989z" fill="#8fbbbe" stroke="none" stroke-width="0"/></g><g><path d="M239.35472,218.31405c-11.70843,0 -21.2,-10.09156 -21.2,-21.8c0,-11.70844 8.29156,-20 20,-20c11.70843,0 19.8,11.89156 19.8,23.6c0,11.70844 -6.89156,18.2 -18.6,18.2z" fill="#343545" stroke="#000000" stroke-width="3" stroke-linecap="butt"/><path d="M219.78976,192.54349c0,0 4.75601,-15.24194 15,-15.24194c5.80906,0 11.82992,2.82812 16.2369,6.35704c3.13975,2.51417 5.376,6.35914 5.376,10.4978c0,8.50697 -3.78827,11.53226 -14.03226,11.53226c-5.11577,0 -11.39899,-2.99517 -15.60036,-6.63992c-4.2116,-3.65362 -6.98029,-6.50524 -6.98029,-6.50524z" fill="#485e84" stroke="none" stroke-width="0" stroke-linecap="butt"/><path d="M238.28301,177.16707c0,0 8.03321,5.77953 8.51593,19.32217c0.48667,13.65363 -6.65547,19.86388 -6.65547,19.86388" fill="none" stroke="#000000" stroke-width="1.6" stroke-linecap="round"/><path d="M247.58532,179.60892c0,0 4.48565,7.93867 5.78072,16.51968c1.86637,12.36638 -2.17606,17.20125 -2.17606,17.20125" fill="none" stroke="#000000" stroke-width="1.6" stroke-linecap="round"/><path d="M229.21325,179.02754c0,0 6.82998,6.14807 8.07674,19.67674c1.19916,13.01216 -2.84419,16.95116 -2.84419,16.95116" fill="none" stroke="#000000" stroke-width="1.6" stroke-linecap="round"/><path d="M231.77138,215.53918c0,0 -4.57812,-8.04764 -6.30567,-14.61351c-2.27543,-8.64823 -2.1827,-17.59579 -2.1827,-17.59579" fill="none" stroke="#000000" stroke-width="1.6" stroke-linecap="round"/><path d="M256.42254,204.60894c0,0 -6.49938,4.73413 -18.83721,5.23256c-11.51328,0.46512 -16.62791,-5.23256 -16.62791,-5.23256" fill="none" stroke="#000000" stroke-width="1.6" stroke-linecap="round"/><path d="M220.37603,200.30661c0,0 5.84751,0.38781 12.22451,-0.17718c5.608,-0.49686 11.59912,-1.9414 14.74728,-2.1196c3.73917,-0.21165 10.00495,0.20376 10.00495,0.20376" fill="none" stroke="#000000" stroke-width="1.6" stroke-linecap="round"/><path d="M219.32952,194.95777c0,0 9.07536,-6.06314 17.11177,-6.28941c12.61347,-0.35514 20.67893,4.19639 20.67893,4.19639" fill="none" stroke="#000000" stroke-width="1.6" stroke-linecap="round"/><path d="M220.25976,188.21361c0,0 6.41901,-4.72757 14.37595,-6.04645c11.45832,-1.89925 17.60079,1.04645 17.60079,1.04645" fill="none" stroke="#000000" stroke-width="1.6" stroke-linecap="round"/><path d="M233.98068,181.5857c-0.96329,0 -1.74419,-0.67678 -1.74419,-1.51163c0,-0.83485 0.7809,-1.51163 1.74419,-1.51163c0.96329,0 1.74419,0.67678 1.74419,1.51163c0,0.83485 -0.7809,1.51163 -1.74419,1.51163z" fill="#8fbbbe" stroke="none" stroke-width="0" stroke-linecap="butt"/><path d="M228.34115,182.63219c-0.48164,0 -0.87209,-0.39045 -0.87209,-0.87209c0,-0.48164 0.39045,-0.87209 0.87209,-0.87209c0.48164,0 0.87209,0.39045 0.87209,0.87209c0,0.48164 -0.39045,0.87209 -0.87209,0.87209z" fill="#8fbbbe" stroke="none" stroke-width="0" stroke-linecap="butt"/></g></g><g data-paper-data="{&quot;index&quot;:null}"><g><path d="M217.077,173.68344c0,0 0.16383,1.72335 -1.89203,2.65401c-2.83079,1.28146 -9.25912,1.34181 -20.58384,-1.82985c-6.796,-1.90332 -15.04655,-9.00268 -16.05655,-11.99369c-0.91957,-2.7232 4.781,-0.7407 4.88841,-0.67678c2.94921,1.75517 13.16103,8.86033 33.21472,11.70305" fill="#ff6666" stroke="#000000" stroke-width="2.35" stroke-linecap="round"/><path d="M229.07697,174.21764c0,0 -2.24086,0.84098 -4.74766,0.8146c-1.27821,-0.01345 -5.60999,0.03924 -7.88937,-0.236c-1.44604,-0.17461 -1.38037,-0.72609 -1.38037,-0.72609l-0.0649,0.19469l-0.7213,-0.24043c-0.30647,-0.09425 -0.52924,-0.3796 -0.52924,-0.71698c0,-0.41421 0.33579,-0.75 0.75,-0.75h0.90164c1.87978,0 3.42669,0.45869 6.22965,0.49178c2.68306,0.03167 6.63368,-0.36778 8.01421,-0.12765c1.30933,0.22775 -0.56268,1.29608 -0.56268,1.29608z" fill="#000000" stroke="none" stroke-width="0.5" stroke-linecap="butt"/></g><g fill="#000000" stroke="none" stroke-linecap="butt"><path d="M250.12563,125.62527c0,0 0.28397,1.43051 -0.80148,2.95434c-3.04883,4.28014 -10.44278,12.52588 -15.39627,16.81757c-6.08496,5.27199 -22.396,13.66559 -22.396,13.66559l-42.96875,-44.21875c0,0 14.19261,9.27003 27.44253,21.6127c6.11399,5.69535 13.866,18.91696 15.91813,19.61286c1.46635,-0.08173 12.78221,-8.23988 22.10982,-15.95385c9.02354,-7.46252 16.09202,-14.49047 16.09202,-14.49047z" stroke-width="0"/><path d="M227.61188,148.47157c0.50129,0 0.96812,0.14754 1.35943,0.40157c1.49783,0.08322 0.9877,3.78178 0.9935,4.43532c0.0197,2.221 -0.84838,11.52706 -2.11726,12.25213c-1.70323,0.97327 -2.69585,-0.24308 -3.72961,-0.3243c-1.22217,-0.09603 -3.6098,-0.02887 -4.53587,-0.55805c-1.99215,-1.13838 -0.40589,-9.34693 0.8423,-11.42725z" stroke-width="0.5"/><path d="M206.55209,159.47401c-0.32269,2.12059 -0.82721,3.69765 -0.82721,3.69765c-0.64936,0.43291 -5.53725,-1.27747 -6.13096,-1.50219c-1.36317,-0.51595 -5.91097,-1.24515 -6.67286,-1.68385c-1.13895,-0.65582 1.82476,-1.02561 1.53752,-1.97988c-0.39997,-1.32877 -0.26004,-3.22052 -0.37613,-6.43732c-0.09523,-2.63876 0.3125,-10.67035 0.3125,-10.67035c0,0 4.82289,1.83169 6.19514,3.75457c1.75707,2.46211 5.26139,5.97981 6.02255,9.02445c0.35715,1.4286 0.31948,3.29948 -0.06055,5.79692z" stroke-width="0.5"/></g></g></g></g></svg>