<svg version="1.1" xmlns="http://www.w3.org/2000/svg" xmlns:xlink="http://www.w3.org/1999/xlink" width="306.30631" height="274.77477" viewBox="0,0,306.30631,274.77477"><g transform="translate(-86.84685,-42.61262)"><g data-paper-data="{&quot;isPaintingLayer&quot;:true}" fill-rule="nonzero" stroke-linecap="butt" stroke-linejoin="miter" stroke-miterlimit="10" stroke-dasharray="" stroke-dashoffset="0" style="mix-blend-mode: normal"><path d="M86.84686,317.38739v-274.77477h306.30631v274.77477z" data-paper-data="{&quot;index&quot;:null}" fill="none" stroke="none" stroke-width="0"/><text transform="translate(271.55605,110.72267) rotate(-180) scale(0.1602,-0.1602)" font-size="40" xml:space="preserve" data-paper-data="{&quot;index&quot;:null}" fill="#000000" fill-rule="nonzero" stroke="none" stroke-width="1" stroke-linecap="butt" stroke-linejoin="miter" stroke-miterlimit="10" stroke-dasharray="" stroke-dashoffset="0" font-family="Sans Serif" font-weight="normal" text-anchor="start" style="mix-blend-mode: normal"><tspan x="0" dy="0">AwezomeXD</tspan><tspan x="0" dy="46.150000000000006px"> </tspan><tspan x="0" dy="46.150000000000006px">MeIzAwezomeDede</tspan></text><g data-paper-data="{&quot;index&quot;:null}"><g><g><g><path d="M198.31185,136.17048c0,0 -6.65092,-10.15851 -0.59401,-16.9528c4.29946,-4.82289 20.86612,-4.80842 31.04402,-9.12883c11.56993,-4.91131 33.02641,-15.09017 33.02641,-15.09017c0,0 5.96168,1.24323 7.80845,0.53598c2.30589,-0.8831 3.58279,-4.93488 3.58279,-4.93488c0,0 1.83273,3.73971 2.66763,6.99429c3.14476,12.25883 -6.31061,15.2605 -6.31061,15.2605c0,0 5.4356,4.28914 6.86884,8.34317c1.50658,4.26154 -1.25883,7.68639 -1.25883,7.68639c0,0 3.41652,2.60572 4.63585,5.98857c0.80496,2.23324 1.4925,6.10297 1.88811,8.52602c0.67514,4.13492 8.95981,5.77785 8.95981,5.77785c0,0 -2.82098,4.31421 -5.31425,5.64837c-2.53774,1.35796 -9.47547,0.39053 -9.47547,0.39053c0,0 -2.16304,1.35765 -1.78288,4.20013c0.11984,0.89604 0.98812,2.76866 1.40526,3.62322c1.40703,2.88247 0.19941,5.61788 0.19941,5.61788c0,0 -2.48502,-2.84094 -3.50828,-3.4192c-0.75101,-0.42442 -1.3842,-0.42756 -1.3842,-0.42756c0,0 -0.04538,4.55677 1.05605,6.81589c2.44981,5.02476 6.41269,10.96247 5.25544,11.4718c-2.09252,0.92094 -5.79612,-2.02916 -8.40031,-1.64776c-2.39691,0.35106 -6.61878,-5.02341 -6.61878,-5.02341c0,0 0.14035,7.08492 -2.31685,8.74557c-2.38447,1.61155 -2.40641,7.01801 -3.48213,7.48433c-3.92137,1.69987 -12.41497,-9.23543 -12.41497,-9.23543c0,0 -9.07511,11.70114 -12.50842,10.13678c-4.05213,-1.84634 -9.75611,-16.70836 -9.75611,-16.70836c0,0 -6.63963,-2.75784 -7.89168,-5.33003c-2.81188,-5.77668 -1.2759,-11.52771 -1.2759,-11.52771c0,0 -2.96777,1.2789 -4.13311,2.8609c-1.23866,1.68153 -3.09232,6.94788 -3.09232,6.94788c0,0 -2.85162,-4.97937 -3.22269,-7.67878c-0.39022,-2.83875 0.93597,-8.95679 0.93597,-8.95679c0,0 -5.56932,-2.01636 -8.9167,-6.44198c-1.79405,-2.37192 -2.73661,-8.37408 -2.73661,-8.37408c0,0 5.20894,2.49038 7.06302,2.50715c1.43825,0.013 0.5786,-2.87592 0.5786,-2.87592z" fill="#6d0f0a" stroke="#000000" stroke-width="2"/><path d="M195.72707,131.43092c0,0 -5.55685,-6.36658 -6.76508,-16.54392c-0.65409,-5.50981 1.61941,-13.41806 2.83069,-18.76526c1.71661,-7.57779 8.83918,-13.21386 15.48347,-16.03429c8.73439,-3.70765 17.98589,3.11765 17.98589,3.11765c0,0 7.91819,-7.07018 15.33819,-7.87006c7.16834,-0.77278 14.40783,5.13145 16.3387,6.54851c2.9416,2.15883 9.15725,14.66756 9.15725,14.66756c0,0 -18.5844,29.59089 -32.42802,35.46733c-14.78917,6.27782 -30.42144,-6.31103 -34.91335,-1.7325c-1.58053,1.611 -3.02773,1.14497 -3.02773,1.14497z" fill="#6d0f0a" stroke="#000000" stroke-width="2"/><path d="M191.29419,101.3042c0,0 1.00858,-3.65676 1.62532,-5.31059c0.58841,-1.57783 1.99408,-4.39517 1.99408,-4.39517c0,0 9.79801,3.13786 14.39684,3.05994c4.81916,-0.08165 11.43299,-4.44601 11.43299,-4.44601c0,0 0.78401,2.18404 1.32378,2.99778c0.57067,0.86034 1.57553,2.21783 1.57553,2.21783c0,0 0.57258,-2.1452 0.63262,-2.99564c0.06485,-0.91856 0.05659,-2.80412 0.05659,-2.80412c0,0 2.82781,3.01763 4.02346,4.09778c0.97912,0.88456 2.63155,1.91429 2.63155,1.91429c0,0 -0.74031,-2.00121 -1.20257,-3.01303c-0.48942,-1.07124 -1.65714,-3.24632 -1.65714,-3.24632c0,0 10.41312,1.07788 16.53702,0.71501c0.12295,-0.00729 4.45748,-1.58858 4.79472,-1.66081c7.2512,-1.55313 1.87453,-9.56901 1.87453,-9.56901c0,0 3.78271,2.34699 5.82615,4.86748c2.07254,2.55639 6.52299,10.3647 6.52299,10.3647c0,0 -6.0555,-1.20976 -10.96554,-0.019c-0.87127,0.2113 -10.16577,3.01661 -10.16577,3.01661c0,0 -2.06155,-1.55743 -3.08753,-2.15035c-1.00538,-0.58102 -3.00777,-1.3722 -3.00777,-1.3722c0,0 -0.51018,2.15899 -0.68322,3.44167c-0.20793,1.54101 -0.47894,5.17238 -0.47894,5.17238c0,0 -1.46066,-1.46739 -2.40863,-2.19432c-1.05461,-0.80873 -3.63319,-2.43894 -3.63319,-2.43894c0,0 -1.08814,0.87386 -1.60614,1.57207c-0.71911,0.96927 -2.30675,3.70193 -2.30675,3.70193c0,0 -1.68855,-2.44939 -2.57494,-3.4905c-0.7669,-0.90077 -2.43705,-2.39643 -2.43705,-2.39643c0,0 -1.16215,1.62361 -1.72297,2.62682c-0.69983,1.2519 -2.15216,4.30499 -2.15216,4.30499c0,0 -9.47497,-5.06664 -13.79825,-5.50807c-4.04403,-0.41294 -11.35963,2.9393 -11.35963,2.9393z" fill="#c42d06" stroke="none" stroke-width="0"/></g><path d="M221.36035,139.56619c0,0 -19.38569,0.02814 -20.17424,-1.20515c-0.13678,-0.21394 -0.2603,-9.23065 -0.75635,-9.98891c-0.90609,-1.38503 -4.7269,1.08231 -4.7269,1.08231c0,0 57.91029,-28.50826 67.11497,-32.57664c2.34497,-1.03646 5.60895,0.4388 5.60895,0.4388l-5.02145,21.86719z" fill="#6d0f0a" stroke="none" stroke-width="NaN"/></g><path d="M226.8346,84.02756c0,0 -4.59851,-0.31447 -4.74225,-6.13478c-0.00758,-0.30666 0.25545,-1.63389 0.38864,-1.95105c1.02066,-2.43037 5.65419,-4.22372 5.65419,-4.22372c0,0 -1.51967,5.26885 -1.99609,7.05422c-0.42464,1.59135 0.69551,5.25534 0.69551,5.25534z" fill="#6d0f0a" stroke="#000000" stroke-width="1.5"/><path d="M218.38953,75.28895c0,0 1.6065,0.57548 2.5524,2.09614c0.64647,0.69892 1.76837,3.35709 1.76837,3.35709l-2.12395,-0.47106z" fill="#000000" stroke="none" stroke-width="0"/></g><path d="M225.57636,82.8796l3.59436,-1.15479c0,0 -1.41746,5.03425 -1.86105,5.34877c-0.62101,0.44033 -4.68547,-3.86275 -4.68547,-3.86275z" fill="#6d0f0a" stroke="none" stroke-width="0"/></g><g data-paper-data="{&quot;index&quot;:null}"><text transform="translate(294.68338,229.00289) rotate(-180) scale(0.27921,-0.27921)" font-size="40" xml:space="preserve" fill="#000000" fill-rule="nonzero" stroke="none" stroke-width="1" stroke-linecap="butt" stroke-linejoin="miter" stroke-miterlimit="10" stroke-dasharray="" stroke-dashoffset="0" font-family="Sans Serif" font-weight="normal" text-anchor="start" style="mix-blend-mode: normal"><tspan x="0" dy="0">AwezomeXD</tspan><tspan x="0" dy="46.150000000000006px"> </tspan><tspan x="0" dy="46.150000000000006px">MeIzAwezomeDede</tspan></text><g data-paper-data="{&quot;index&quot;:null}"><g><path d="M304.61432,280.7271c-0.97394,-0.3343 -2.81981,-1.05375 -2.81981,-1.05375l2.00112,-62.99775c0,0 3.12264,-3.42551 4.77674,-5.10754c1.78782,-1.81801 6.83093,-5.9246 6.83093,-5.9246c0,0 5.94054,0.17965 11.08569,1.75457c7.39586,2.26385 29.04162,10.52827 29.04162,10.52827c0,0 -0.29139,23.00613 -1.11993,33.98866c-0.74728,9.90532 -3.63272,29.00908 -3.63272,29.00908c0,0 -14.3168,1.48011 -21.61682,1.59314c-7.15813,0.11083 -21.76596,-0.92143 -21.76596,-0.92143c0,0 -1.89659,-0.56514 -2.78087,-0.86866z" fill="#434253" stroke="#000000" stroke-width="2.5"/><path d="M306.04173,281.58894c0,0 3.19421,-16.34268 5.26935,-30.13714c1.48339,-9.86081 2.04443,-18.33187 2.06476,-19.00203c0.15509,-5.11269 -0.3723,-9.50368 -0.00091,-14.70459c0.49814,-6.97594 1.18056,-11.43244 1.18056,-11.43244l2.10035,-1.22928c0,0 -1.17975,18.14658 -2.93073,35.27697c-0.73182,7.15966 -2.77258,22.22022 -3.75528,31.64788c-0.10799,1.03599 0.50491,2.39047 0.4064,3.33489c-0.55015,5.27458 -0.93311,6.24975 -0.93311,6.24975l-3.40139,-0.00403z" fill="#000000" stroke="none" stroke-width="0"/></g><g stroke="#000000" stroke-width="1.5"><path d="M345.29833,263.35312c0.94113,9.66742 -4.93088,16.17699 -12.88074,16.95092c-7.94986,0.77393 -14.77082,-5.25083 -14.91119,-14.96294c-0.15638,-10.82018 5.8426,-16.14324 12.54261,-16.73861c6.71115,-0.59636 14.44659,6.50489 15.24932,14.75063z" fill="#2c262f"/><path d="M323.67438,268.45714c-0.26544,-2.72671 1.31874,-5.06632 3.56101,-5.2846c2.24227,-0.21828 3.76096,1.25807 4.0264,3.98478c0.26545,2.72671 -1.3891,5.14677 -3.63137,5.36505c-2.24227,0.21828 -3.69059,-1.33852 -3.95603,-4.06523z" data-paper-data="{&quot;index&quot;:null}" fill="#1b171c"/></g><g stroke="#000000" stroke-width="1.5"><path d="M334.90073,214.22597c6.72176,-0.46163 14.18059,7.06601 14.65957,15.33688c0.56156,9.69688 -5.56103,15.97134 -13.53511,16.43313c-7.97408,0.46179 -14.55372,-5.82563 -14.31338,-15.53578c0.26776,-10.81801 6.4647,-15.77245 13.18893,-16.23424z" fill="#2c262f"/><path d="M327.75296,233.81557c-0.15839,-2.73501 1.51626,-5.01074 3.76536,-5.14099c2.2491,-0.13025 3.70876,1.40448 3.86715,4.1395c0.15839,2.73502 -1.58973,5.08838 -3.83883,5.21863c-2.2491,0.13025 -3.6353,-1.48212 -3.79369,-4.21714z" data-paper-data="{&quot;index&quot;:null}" fill="#1b171c"/></g></g><g><g><path d="M178.20551,279.8001c0,0 -1.84588,0.71945 -2.81982,1.05375c-0.88428,0.30352 -2.78086,0.86866 -2.78086,0.86866c0,0 -14.60784,1.03226 -21.76596,0.92143c-7.30001,-0.11302 -21.61681,-1.59314 -21.61681,-1.59314c0,0 -2.88544,-19.10377 -3.63272,-29.00909c-0.82854,-10.98252 -1.11993,-33.98866 -1.11993,-33.98866c0,0 21.64575,-8.26442 29.04162,-10.52827c5.14515,-1.57491 11.08569,-1.75457 11.08569,-1.75457c0,0 5.04312,4.1066 6.83094,5.9246c1.6541,1.68203 4.77674,5.10754 4.77674,5.10754l2.00112,62.99775z" fill="#434253" stroke="#000000" stroke-width="2.5"/><path d="M173.95828,281.71567l-3.40139,0.00403c0,0 -0.38295,-0.97517 -0.93311,-6.24976c-0.0985,-0.94441 0.51439,-2.2989 0.40641,-3.33488c-0.98271,-9.42766 -3.02346,-24.48823 -3.75529,-31.64789c-1.75097,-17.13039 -2.93073,-35.27697 -2.93073,-35.27697l2.10035,1.22928c0,0 0.68243,4.4565 1.18057,11.43244c0.37139,5.20091 -0.156,9.59191 -0.00092,14.70459c0.02033,0.67016 0.58138,9.14123 2.06477,19.00203c2.07514,13.79446 5.26935,30.13713 5.26935,30.13713z" fill="#000000" stroke="none" stroke-width="0"/></g><g stroke="#000000" stroke-width="1.5"><path d="M134.70169,263.47986c0.80273,-8.24574 8.53818,-15.34698 15.24933,-14.75062c6.70001,0.59537 12.69899,5.91843 12.54261,16.73861c-0.14037,9.71211 -6.96134,15.73687 -14.9112,14.96294c-7.94986,-0.77392 -13.82187,-7.2835 -12.88074,-16.95092z" fill="#2c262f"/><path d="M152.76464,263.29931c2.24227,0.21828 3.82645,2.55788 3.56101,5.28459c-0.26545,2.72671 -1.71376,4.28351 -3.95603,4.06523c-2.24227,-0.21829 -3.89681,-2.63834 -3.63137,-5.36505c0.26544,-2.72671 1.78413,-4.20306 4.0264,-3.98478z" data-paper-data="{&quot;index&quot;:null}" fill="#1b171c"/></g><g stroke="#000000" stroke-width="1.5"><path d="M130.43973,229.6896c0.47898,-8.27087 7.9378,-15.79851 14.65956,-15.33689c6.72423,0.46179 12.92117,5.41624 13.18893,16.23424c0.24034,9.71016 -6.33929,15.99758 -14.31338,15.53579c-7.97409,-0.46179 -14.09668,-6.73625 -13.53512,-16.43313z" fill="#2c262f"/><path d="M152.24708,233.94232c-0.15839,2.73501 -1.54458,4.34738 -3.79368,4.21713c-2.2491,-0.13025 -3.99721,-2.48361 -3.83882,-5.21863c0.15839,-2.73501 1.61804,-4.26975 3.86714,-4.1395c2.2491,0.13025 3.92375,2.40598 3.76536,5.141z" data-paper-data="{&quot;index&quot;:null}" fill="#1b171c"/></g></g><g stroke="#000000"><g fill="#434253"><path d="M302.93638,282.15581c0,0 -39.39406,0.31655 -59.64769,0.31655c-21.72904,0 -66.6118,-0.31655 -66.6118,-0.31655c0,0 -2.38216,-40.33861 -2.16309,-60.75635c0.20152,-18.78125 2.16309,-54.08575 2.16309,-54.08575c0,0 42.82931,-1.2662 64.39595,-1.2662c21.14461,0 59.33114,1.58275 59.33114,1.58275c0,0 4.66352,44.84767 4.63123,67.07726c-0.03994,25.54257 -2.09882,47.44828 -2.09882,47.44828z" stroke-width="2.5"/><path d="M182.62638,273.74782c1.29409,0 2.34316,0.94416 2.34316,2.10884c0,1.16468 -1.04906,2.10884 -2.34316,2.10884c-1.29409,0 -2.34316,-0.94416 -2.34316,-2.10884c0,-1.16468 1.04906,-2.10884 2.34316,-2.10884z" stroke-width="2"/><path d="M296.08664,273.11069c1.29409,0 2.34316,0.94416 2.34316,2.10884c0,1.16468 -1.04907,2.10884 -2.34316,2.10884c-1.29409,0 -2.34316,-0.94416 -2.34316,-2.10884c0,-1.16468 1.04907,-2.10884 2.34316,-2.10884z" stroke-width="2"/><path d="M291.83152,175.44761c-0.48529,-1.12251 0.08425,-2.44878 1.27209,-2.9623c1.18785,-0.51352 2.54417,-0.01985 3.02946,1.10266c0.48528,1.12251 -0.08426,2.44879 -1.2721,2.96231c-1.18785,0.51352 -2.54417,0.01984 -3.02946,-1.10267z" stroke-width="2"/><path d="M180.91757,172.05907c1.18784,-0.51352 2.54418,-0.01985 3.02946,1.10266c0.48528,1.12251 -0.08426,2.44879 -1.2721,2.96231c-1.18784,0.51352 -2.54417,0.01984 -3.02945,-1.10267c-0.48528,-1.12251 0.08425,-2.44878 1.27209,-2.9623z" stroke-width="2"/></g><g><path d="M187.36313,208.89733c-2.36044,-6.40232 -2.14847,-24.22034 1.17777,-27.70117c8.80798,-9.21732 26.01104,-9.48636 48.15555,-9.48636c20.7312,0 40.80646,1.21551 50.19223,9.11804c4.42593,3.72649 4.09175,24.72433 0.61728,30.38921c-5.21713,8.50616 -20.51325,11.67052 -51.0204,11.67052c-30.50715,0 -45.72795,-4.44989 -49.12243,-13.65691z" fill="#434253" stroke-width="2"/><path d="M191.46433,207.31699c-2.1792,-5.67588 -1.98352,-21.47217 1.08734,-24.55804c8.13172,-8.17147 24.01396,-7.77733 44.45825,-7.77733c19.1395,0 37.67343,0.44494 46.33857,7.45081c4.08612,3.30367 3.77759,21.91897 0.56988,26.94108c-4.81657,7.54101 -18.93828,9.50278 -47.10314,9.50278c-28.16487,0 -42.21704,-3.39695 -45.3509,-11.55929z" fill="#2c262f" stroke-width="1.5"/><path d="M216.73026,204.30871c-0.84859,-2.4182 -0.77238,-9.14817 0.42343,-10.4629c3.16654,-3.48144 9.35117,-4.21571 17.31229,-4.21571c7.45303,0 14.67023,1.09175 18.04449,4.07659c1.59116,1.40752 1.47102,9.33853 0.22192,11.47819c-1.8756,3.21283 -7.37467,4.61891 -18.34223,4.61891c-10.96755,0 -16.43956,-1.85087 -17.65989,-5.32841z" fill="#1b171c" stroke-width="1.5"/></g><g><path d="M187.36313,264.28152c-2.36044,-6.40232 -2.14847,-24.22034 1.17777,-27.70116c8.80798,-9.21732 26.01104,-9.48637 48.15555,-9.48637c20.7312,0 40.80646,1.21551 50.19223,9.11804c4.42593,3.7265 4.09175,24.72433 0.61728,30.38921c-5.21713,8.50616 -20.51325,11.67052 -51.0204,11.67052c-30.50715,0 -45.72795,-4.4499 -49.12243,-13.65692z" fill="#434253" stroke-width="2"/><path d="M191.46433,262.70116c-2.1792,-5.67588 -1.98352,-21.47217 1.08734,-24.55804c8.13172,-8.17147 24.01396,-7.77734 44.45825,-7.77734c19.1395,0 37.67343,0.44494 46.33857,7.45081c4.08612,3.30367 3.77759,21.91898 0.56988,26.94109c-4.81657,7.54101 -18.93828,9.50278 -47.10314,9.50278c-28.16487,0 -42.21704,-3.39695 -45.3509,-11.55929z" fill="#2c262f" stroke-width="1.5"/><path d="M216.73026,259.6929c-0.84859,-2.41819 -0.77238,-9.14816 0.42343,-10.46289c3.16654,-3.48144 9.35117,-4.21571 17.31229,-4.21571c7.45303,0 14.67023,1.09175 18.04449,4.07659c1.59116,1.40752 1.47102,9.33852 0.22192,11.47818c-1.8756,3.21283 -7.37467,4.61891 -18.34223,4.61891c-10.96755,0 -16.43956,-1.85087 -17.65989,-5.32842z" fill="#1b171c" stroke-width="1.5"/></g></g></g><g data-paper-data="{&quot;index&quot;:null}"><g><path d="M252.16762,159.43963c0,-4.62307 -8.49349,-15.53073 -3.81415,-15.53073c1.22311,0 4.42917,2.33459 7.50057,4.85516c1.45091,1.19071 3.6139,2.34172 4.58125,3.77227c0.88905,1.31474 0.7777,2.94412 0.88451,3.34049c0.14147,0.52495 1.05985,2.14097 1.05985,2.14097c0,0 1.84337,1.97795 5.26166,3.90074c2.29844,1.29287 4.24006,0.66077 6.60772,2.01002c1.51083,0.86098 5.14264,2.7213 3.87369,4.97488c-0.18155,0.32243 -5.12328,0.24975 -5.12328,0.24975c0,0 -1.38722,1.6276 -2.62457,2.04842c-3.22468,1.09671 -5.31061,-1.08587 -6.12042,-1.03821c-2.60434,0.15328 -6.72809,-0.10553 -6.72809,-0.10553c0,0 -0.42924,-0.10557 -1.69069,-0.80571c-5.24365,-2.91039 -3.66807,-7.69547 -3.66807,-9.81253z" fill="#ffd5d5" stroke="#000000" stroke-width="1.5"/><path d="M253.53371,166.12694c0,0 7.29249,1.48578 9.95463,0.65935c0.10511,-0.03263 1.09316,-0.82199 2.45582,-1.24686c1.14308,-0.35642 2.65331,-0.36275 3.11935,-0.36185c1.17977,0.00229 1.61032,1.90079 2.6201,1.90079c4.07091,0 5.01291,-0.51035 5.01291,-0.51035c0,0 0.55455,0.54917 0.7437,1.15381c0.13495,0.43135 0.02675,0.94264 -0.34109,1.06756c-1.40247,0.47629 -4.79414,0.20759 -4.79414,0.20759c0,0 -1.74358,1.7083 -2.55079,1.73805c-5.38363,0.19843 -4.37217,-1.18226 -5.3204,-1.18226c-3.65815,0 -5.80336,-0.08543 -7.05371,-0.35945c-0.17574,-0.03852 -1.31715,-0.5453 -2.08868,-1.13084c-1.11479,-0.84606 -1.75769,-1.93553 -1.75769,-1.93553z" fill="#fb95a9" stroke="none" stroke-width="0"/><path d="M268.15103,164.66677c0.72444,-0.08172 2.87061,-0.06303 3.75169,0.94108c1.15746,1.3191 0.97693,3.72747 0.97693,3.72747l-2.0916,1.52047c0,0 0.81471,-4.96196 -1.7831,-4.96196c-2.09043,0 -4.71675,0.21059 -4.71675,0.21059c0,0 1.56303,-1.17823 3.86283,-1.43765z" fill="#000000" stroke="none" stroke-width="0"/><path d="M263.39455,158.87903l-0.13974,3.79055l-2.58548,-6.19124z" fill="#000000" stroke="none" stroke-width="0"/></g><path d="M245.01512,140.84214c0,-3.1402 -3.20727,-10.10814 -0.69876,-10.10814c2.50852,0 8.05046,-0.70437 8.05046,2.43583c0,1.6451 3.015,8.01008 2.76204,11.02958c-0.2299,2.74415 0.86347,4.53972 -0.33085,4.53972c-2.50851,0 -9.78288,-4.75679 -9.78288,-7.89699z" fill="#fb95a9" stroke="#000000" stroke-width="2"/></g><g data-paper-data="{&quot;index&quot;:null}"><path d="M228.18002,131.62588c2.41131,-2.95149 10.53162,-0.25987 12.59919,3.86227c0.26008,0.51854 1.70637,-0.66733 5.40284,0.98163c0.86997,0.38809 5.3323,2.85511 7.98427,6.04894c1.26983,1.52929 2.1246,3.99593 1.97118,5.03194c-0.22905,2.80784 -2.67033,5.18657 -4.85989,7.14774c-2.87249,2.57284 1.75248,7.33006 -2.40533,7.33006c-3.03121,0 -16.54137,0.60747 -18.69314,-0.7284c-1.28409,-0.79719 -0.53199,-7.61244 -0.88049,-9.01861c-0.48674,-1.96396 -4.99822,-4.40189 -4.99822,-6.61256c0,-2.58633 2.29137,-12.099 3.87959,-14.04301z" fill="#ee1536" stroke="#000000" stroke-width="2"/><path d="M244.29202,151.81498c0,-3.14019 3.56399,-6.94934 7.26523,-7.10728c3.22449,-0.13759 3.97211,2.15654 3.0535,5.15937c-1.10558,3.61402 -4.40634,5.42259 -7.63376,5.42259c-0.06272,0 2.08362,-1.58996 2.84464,-0.28992c1.01358,1.73146 0.66979,6.51156 0.03616,6.86773c-2.98614,1.67855 -13.402,-0.74155 -16.31172,-0.67209c-0.60085,0.01435 -2.90823,0.59035 -3.45604,-1.26733c-0.44915,-1.5231 0.38106,-5.65028 0.34354,-5.65555c-0.60286,-0.08461 -1.36799,-4.06688 -1.36799,-4.06688c0,0 -2.86476,-2.27685 -2.9505,-2.85725c-0.15338,-1.03828 2.10836,-2.8435 2.10836,-2.8435c0,0 1.25189,1.00644 1.97555,1.57762c0.66583,0.52553 1.57561,2.98741 1.57561,2.98741c0,0 4.12841,-5.5717 8.29185,-4.21031c5.58397,1.82588 4.22558,7.21129 4.22558,6.95539z" fill="#9a1652" stroke="none" stroke-width="0"/><path d="M230.80236,160.80496c0.86132,-1.55025 8.52088,-5.58592 9.70316,-7.17085c2.60911,-3.4977 4.57621,-6.08348 4.57621,-6.08348c0,0 0.91108,5.32297 -0.66029,9.58239c-1.16307,3.15265 6.61433,5.47453 5.8723,5.47453c-1.74455,0 -20.27813,-0.38656 -19.49138,-1.80259z" fill="#000000" stroke="none" stroke-width="0"/></g><g data-paper-data="{&quot;index&quot;:null}"><path d="M219.65373,138.5779c0.8478,-4.00178 1.05969,-6.20696 6.00865,-5.89108c3.43927,0.21953 5.83687,5.53997 5.6375,9.63432c-0.21476,4.36977 -3.06549,5.46494 -5.22987,10.17868c-0.32418,0.44398 -0.41178,3.26813 -0.38937,5.30495c0.00209,0.18978 -0.33717,0.62001 -0.76323,1.1586c-0.26544,0.33555 -0.56457,0.71315 -0.83585,1.10087c-0.58792,0.84029 -1.00834,1.7666 -1.00967,2.05978c-0.00063,0.13988 0.8938,0.58214 1.37429,-0.0945c0.59429,-0.8369 0.82022,-2.85569 1.09309,-2.96133c0.60322,-0.23354 -0.26637,2.51293 -0.44615,3.11094c-0.2653,0.88248 -0.4921,0.63998 -0.44475,1.76587c0.09045,2.15137 1.56896,3.36172 2.62602,4.56955c0.70741,0.80829 0.22384,1.75371 0.01145,1.89649c-0.37801,0.2541 -3.54371,-0.53117 -4.05789,-0.42698c-0.39765,0.08057 -1.34654,-0.40466 -3.49097,-0.27099c-0.82355,0.05133 -1.65645,0.76311 -2.63719,0.82042c-0.71638,0.04187 -1.3057,-0.15857 -1.95166,-0.31313c-0.22206,-0.05314 -1.02829,-0.5319 -1.25815,-0.52625c-0.34771,0.00856 -0.82528,0.48594 -1.23178,0.63526c-0.77623,0.28513 -1.60661,0.69038 -2.28854,0.69435c-3.18977,0.0186 -3.26689,-1.88761 -3.26689,-1.88761c0,0 -3.04432,0.06304 -4.03211,-0.42236c-0.75092,-0.36901 -1.55925,-1.00352 -1.38133,-2.2378c0.24894,-1.72688 1.10352,-2.33605 3.08465,-3.20355c2.98491,-1.30704 6.06524,-0.58009 9.46825,-3.92267c3.20388,-3.14698 4.43719,-15.37296 4.7865,-17.02182z" fill="#ffd5d5" stroke="#000000" stroke-width="1.5"/><path d="M206.90048,168.30773c0,0 -3.07229,0.00278 -3.71369,-0.28946c-0.71612,-0.32628 -0.72723,-1.57737 -0.72723,-1.57737c0,0 2.41577,-0.11037 3.38045,-0.23542c0.79242,-0.10272 2.33677,-0.55138 2.33677,-0.55138l-0.52435,2.84128c0,0 1.64547,0.70646 3.17917,0.82889c0.82685,0.066 0.81717,-1.87392 3.46531,-1.87392c0.98114,0 3.17859,1.26431 4.02568,0.77044c2.1093,-1.22976 5.04158,-5.18813 5.04158,-5.18813c0,0 0.81464,0.24075 0.81464,0.62352c0,0.48247 3.67599,6.1885 3.15662,6.13879c-0.73361,-0.07022 -6.5234,-0.94261 -7.38145,-0.9628c-0.84998,-0.02 -2.23775,0.94386 -3.09742,0.91287c-0.46569,-0.01678 -0.92766,-0.12523 -1.38038,-0.228c-0.43517,-0.09879 -0.94769,-0.55333 -1.3608,-0.55513c-0.55722,-0.00243 -0.93268,0.42362 -1.3338,0.52162c-1.2246,0.29919 -1.88782,0.90551 -3.00328,0.83681c-1.46527,-0.09024 -2.87782,-2.0126 -2.87782,-2.0126z" fill="#fb95a9" stroke="none" stroke-width="0"/><path d="M206.6452,168.40278c0,0 1.25348,-3.1369 2.41663,-3.45707c0.61518,-0.16933 1.83386,-0.25208 2.78582,0.09011c0.96988,0.34863 1.90801,1.37664 1.90801,1.37664c0,0 -2.47695,-0.57435 -3.78841,-0.18953c-1.72244,0.5054 -1.74386,3.47467 -1.74386,3.47467z" fill="#000000" stroke="none" stroke-width="0"/><path d="M220.51528,167.97303l-0.94496,1.89527l-1.41743,-0.1805z" fill="#000000" stroke="none" stroke-width="0"/></g><g data-paper-data="{&quot;index&quot;:null}"><g><path d="M253.16161,118.53017c-0.58515,-3.61654 1.31384,-6.93231 4.24151,-7.40599c2.92766,-0.47368 5.77536,2.07411 6.36049,5.69063c0.58514,3.61654 -1.31386,6.93232 -4.24153,7.406c-2.92766,0.47369 -5.77535,-2.0741 -6.36048,-5.69062z" fill="#fb95a9" stroke="#000000" stroke-width="2"/><path d="M241.938,136.49819c-25.26635,0.34405 -28.37215,-2.04091 -31.65531,-11.73473c-3.28317,-9.69384 11.04179,-13.01558 24.75633,-17.66052c13.71453,-4.64495 20.69874,-7.65102 23.98191,2.04282c0.53557,1.58135 0.61599,11.81157 0.61599,11.81157c0,0 8.42391,2.75066 8.26563,6.8186c-0.18534,4.39303 -16.40697,8.5921 -25.96456,8.72226z" fill="#ffd5d5" stroke="#000000" stroke-width="2"/><path d="M211.11284,117.36762c0,0 24.78866,-12.58337 30.66067,-14.57214c11.12585,-3.76818 14.85241,1.90467 16.38206,6.42112c0.6681,1.97268 0.45477,10.52805 0.45477,10.52805c0,0 -4.74079,-4.59108 -7.049,-5.50667c-2.62905,-1.04285 -7.68893,-0.48598 -7.68893,-0.48598l-4.43698,7.80797l-7.84154,-6.10115c0,0 -1.92648,5.94398 -3.81241,8.54156c-2.01085,2.76964 -7.902,7.59326 -7.902,7.59326l-4.01224,0.38852c0,0 -3.8592,-4.37545 -4.66689,-6.85822c-0.77584,-2.3848 -0.08752,-7.75636 -0.08752,-7.75636z" fill="#fb95a9" stroke="none" stroke-width="0"/><path d="M204.67697,129.21897c-1.02601,-3.0293 -1.32729,-3.66365 0.0725,-5.69411c1.12222,-1.62781 8.34993,1.02109 9.37593,4.0504c1.02601,3.02931 1.07312,6.19547 -0.79956,6.82972c-1.87268,0.63424 -7.42022,-1.55832 -8.64888,-5.18603z" fill="#ffd5d5" stroke="#000000" stroke-width="2.5"/><path d="M213.15534,133.57338c-0.66835,0.22635 -3.55464,-0.35316 -5.06177,-1.65384c-0.9409,-0.81201 -1.66129,-1.97714 -2.16942,-3.01436c-0.62313,-1.27197 0.16975,-2.19202 1.5778,-1.88846c2.35502,0.50773 5.58059,1.41833 6.00088,2.65922c0.67156,1.98284 1.24976,3.35645 -0.34751,3.89743z" fill="#fb95a9" stroke="none" stroke-width="0"/><path d="M207.06079,126.41059c-0.2052,-0.60587 7.21249,4.22731 7.21249,4.22731l-0.15286,2.83096c0,0 -6.85442,-6.45243 -7.05962,-7.05831z" fill="#000000" stroke="none" stroke-width="0"/><path d="M212.44705,134.71779c-0.81253,-1.68297 0.3638,-3.60503 2.30829,-4.47641c1.94445,-0.87136 4.04251,-2.00538 5.63682,0.78358c0.28064,0.49094 2.0286,3.73443 0.93396,5.79667c-0.17062,0.32145 -1.2631,1.64919 -2.59043,2.14672c-1.83305,0.6871 -3.09825,0.52184 -3.09825,0.52184c0,0 1.75043,-2.21135 1.50376,-2.30451c-0.78674,-0.29711 -4.01149,-1.05386 -4.69418,-2.46787z" fill="#6d0f0a" stroke="#000000" stroke-width="2"/><path d="M199.59188,136.28103c-7.92625,-2.17604 -11.28966,-5.51825 -11.28966,-5.51825c0,0 6.39205,-1.99786 8.05866,-4.60314c1.67992,-2.62611 1.57596,-12.28819 1.57596,-12.28819c0,0 22.54006,-5.23386 31.83174,-8.38083c8.60399,-2.91404 16.1603,-5.44774 21.6974,-7.29651c6.01827,-2.00942 12.07196,-0.72952 14.18061,3.77836c0.52185,1.11557 1.22373,2.61825 1.63348,3.93254c1.8729,6.00729 1.09035,12.0834 1.09035,12.0834c0,0 -6.9712,-6.00498 -10.26716,-8.54736c-4.07638,-3.14432 -10.07066,-5.35041 -10.07066,-5.35041c0,0 0.15769,4.00348 -0.74816,6.85342c-0.93771,2.95016 -4.02704,3.65886 -4.02704,3.65886c0,0 -1.0619,-3.0049 -2.0289,-4.25736c-0.89014,-1.15294 -2.54631,-3.33067 -2.30093,-2.18388c0.24681,1.15362 0.45763,4.00145 0.60141,5.3914c0.3721,3.59745 -0.04521,4.21069 -0.04521,4.21069c0,0 -2.62457,-2.61295 -5.20936,-5.02116c-2.19774,-2.0476 -5.06949,-2.75402 -5.06949,-2.75402c0,0 -3.32218,5.61635 -5.41526,8.09532c-1.89078,2.23937 -6.23657,6.01032 -6.23657,6.01032c0,0 4.30292,7.21673 0.33558,7.92788c-2.80398,0.50263 -4.12343,0.33493 -5.88831,-0.43097c-1.05805,-0.45916 -2.11262,-3.26819 -2.11262,-3.26819l2.15683,-0.03982c0,0 -2.84878,-5.67001 -4.23386,-5.65794c-2.43879,0.02125 -0.80683,-0.75526 -4.0983,0.45148c-0.47909,0.17565 -0.99387,3.47116 -0.0227,6.14032c1.04265,2.86562 3.59525,5.11195 3.59525,5.11195c0,0 -3.82237,3.01477 -7.69308,1.95211z" fill="#6d0f0a" stroke="#000000" stroke-width="1.5"/><path d="M241.22773,104.78656c-0.92882,0.31458 -2.48588,-0.36581 -4.40244,0.13396c-2.0764,0.54142 -4.52077,2.26635 -5.58006,2.66583c-15.29875,5.76986 -32.18906,12.58626 -32.18906,12.58626c0,0 -0.069,-2.69645 -0.39291,-3.92766c-0.34604,-1.31539 -1.32215,-3.8302 -1.32215,-3.8302c0,0 21.71834,-4.40868 34.18402,-8.63064c7.99882,-2.70911 16.3178,-5.88995 21.82662,-6.92274c5.83307,-1.09361 9.04619,-0.10079 9.04619,-0.10079l3.01522,6.26632l-2.61745,0.15441l-7.79372,-4.21983c0,0 -9.51371,4.38205 -13.77427,5.82507z" fill="#6d0f0a" stroke="none" stroke-width="0"/><path d="M239.66473,133.72498c-1.2203,0.23146 -2.07421,-0.76491 -2.79994,-1.75465c-0.81873,-1.11659 -1.42912,-2.27037 -1.36601,-2.50397c0.0971,-0.35945 9.01477,-0.74235 9.15485,-0.37703c0.13367,0.34856 -0.88543,1.5223 -2.30386,2.75542c-0.79921,0.69478 -1.38356,1.69814 -2.43567,1.89767z" fill="#ef3d61" stroke="#000000" stroke-width="1.5"/><path d="M242.6259,121.21614c-0.62304,-1.83961 -1.12713,-5.17716 1.33891,-7.16763c0.44276,-0.3574 1.62417,-0.63941 3.01652,-0.62995c1.42712,0.00969 2.73562,0.38335 3.1077,0.46154c0.73509,0.15451 1.83714,-0.53237 1.83714,-0.53237c0,0 1.00517,-0.95533 1.53086,-1.63563c0.44131,-0.57112 1.2525,-2.65486 1.2525,-2.65486c0,0 0.39323,1.44985 -0.26941,3.32949c-0.27305,0.77455 -1.19955,2.27428 -1.19955,2.27428c0,0 1.0201,-0.18951 2.07556,-0.74327c0.79283,-0.41594 2.50676,-2.29606 2.50676,-2.29606c0,0 -0.44391,1.91942 -0.88822,2.81573c-0.3068,0.61893 -1.25037,1.54607 -1.25037,1.54607l0.08901,1.03697c0,0 -1.96781,-1.32724 -2.84669,-1.48907c-0.71062,-0.13084 -2.19002,0.51203 -2.19002,0.51203c0,0 2.15794,7.40891 -2.50573,8.85505c-3.6363,1.12756 -4.57896,-0.65301 -5.60495,-3.68232z" fill="#000000" stroke="none" stroke-width="0"/><path d="M218.98006,117.826c0,0 1.98371,1.1888 2.98686,1.49647c0.92324,0.28316 2.24441,-0.08135 2.24441,-0.08135c0,0 -0.53323,-0.62232 -1.07336,-1.27424c-0.56332,-0.67992 -1.72946,-2.74948 -1.72946,-2.74948c0,0 1.71372,1.32519 2.51424,1.72452c0.76555,0.38191 2.45559,0.75336 2.45559,0.75336c0,0 2.44069,-0.87763 4.05481,-1.42431c4.22533,-1.43106 7.98006,0.6323 7.98006,0.6323c0,0 -2.51391,0.13214 -3.3829,0.20781c-0.61727,0.05372 -1.2941,0.33626 -1.2941,0.33626c0,0 2.87352,8.0126 -3.13928,10.12317c-4.92479,1.72866 -5.80967,-5.39635 -6.12306,-5.6977c-0.22703,-0.21832 -1.35029,-0.77739 -1.35029,-0.77739c0,0 -1.63642,-0.4016 -2.29021,-0.90588c-0.71124,-0.54859 -1.85323,-2.36356 -1.85323,-2.36356z" fill="#000000" stroke="none" stroke-width="0"/></g><path d="M264.67666,101.17963c0,0 -1.18893,-2.49555 -1.88263,-3.71835c-0.66335,-1.16931 -2.19268,-3.46511 -2.19268,-3.46511c0,0 1.23241,0.32981 2.51907,2.36825c0.84091,1.33227 2.96166,4.80843 2.96166,4.80843z" fill="#000000" stroke="none" stroke-width="0"/></g><g data-paper-data="{&quot;index&quot;:null}"><path d="M255.19957,182.67556c-1.00101,-2.204 -1.48204,-4.3489 -0.72825,-4.96606c2.33239,-1.90961 13.28484,-2.98899 13.38878,-2.98899c6.31528,0 14.84633,4.70166 14.84633,7.42317c0,2.15815 -5.66177,5.08636 -11.867,4.87772c-9.17694,-0.30857 -12.61375,-4.42959 -12.80984,-4.64776c-0.77835,-0.86597 0.94691,1.54978 1.61014,2.51138c0.76014,1.10213 2.09503,1.87099 1.91005,2.94778c-0.21138,1.23048 -1.04517,0.91066 -1.93413,0.37576c-1.07219,-0.64516 -2.75079,-1.86638 -4.41608,-5.533z" fill="#ee1536" stroke="#000000" stroke-width="1.5"/><path d="M224.16343,165.33484c0,-3.59654 1.88208,-6.79388 5.00437,-9.12732c4.14737,-3.09953 10.28977,-4.77137 15.23297,-4.77137c5.31995,0 12.36793,-0.19935 14.37465,2.09274c0.5447,0.62216 0.11605,3.35746 0.47021,5.96384c0.20355,1.49801 1.01152,5.12835 2.06489,8.05201c0.76659,2.12772 1.6857,4.5633 2.81912,4.87357c4.6996,1.28652 11.33458,3.83886 9.65309,6.39177c-1.27777,1.93997 -8.71321,2.17386 -14.6326,0.37436c-5.32793,-1.61969 -9.13974,-5.17457 -11.08352,-5.65964c-3.29754,-0.8229 -10.29591,1.43415 -13.65474,0.96798c-2.18858,-0.30375 -4.10262,-1.02669 -5.53901,-1.79684c-3.55989,-1.90871 -4.7094,-5.13615 -4.7094,-7.3611z" fill="#ffd5d5" stroke="#000000" stroke-width="1.5"/><path d="M254.40496,161.63252c0,0 1.5473,-1.13661 2.20683,-1.84011c0.59795,-0.63781 1.58373,-2.20314 1.58373,-2.20314c0,0 0.47515,2.43192 0.69523,3.67533c0.19897,1.12418 0.56829,3.46354 0.56829,3.46354c0,0 -2.16472,-0.56777 -3.07746,-1.12683c-0.7315,-0.44803 -1.97661,-1.96878 -1.97661,-1.96878z" fill="#fb95a9" stroke="none" stroke-width="0"/><path d="M275.08881,178.59435c0.16969,-0.35395 1.67522,-0.13645 2.97302,0.48578c1.2978,0.62223 2.68613,2.36122 2.51643,2.71517c-0.1697,0.35394 -1.51728,-1.12707 -2.81508,-1.7493c-1.29779,-0.62223 -2.84406,-1.0977 -2.67436,-1.45165z" fill="#fc9ea5" stroke="none" stroke-width="0"/></g><g data-paper-data="{&quot;index&quot;:null}"><path d="M231.01661,186.66843c2.5441,-6.35721 7.6863,-8.12709 12.34285,-6.26357c4.65656,1.86351 6.54811,7.90162 4.004,14.25883c-2.5441,6.35722 -11.22418,11.88722 -14.69074,10.29339c-3.43224,-1.57805 -4.378,-11.60389 -1.83389,-17.9611z" fill="#ee1536" stroke="#000000" stroke-width="1.5"/><path d="M233.51809,183.8908c0,0 2.00422,-2.86118 4.30555,-3.50609c0.77193,-0.21631 4.08674,0.23689 6.56763,1.86017c1.68622,1.10331 2.8021,3.19439 3.19142,4.24588c0.67057,1.81111 0.10967,3.76134 0.10967,3.76134c0,0 -1.81828,1.66589 -5.43619,1.54424c-1.90251,-0.06397 -4.61734,-2.13774 -6.33064,-4.2466c-1.54479,-1.90145 -2.40744,-3.65892 -2.40744,-3.65892z" fill="#9a1652" stroke="none" stroke-width="0"/><path d="M237.96925,174.10228c0.55432,-7.08643 2.21505,-10.84502 10.62649,-10.5467c4.91806,0.17442 6.52345,5.86357 6.20118,8.26798c-1.07822,8.0444 -9.74893,15.13352 -9.74893,15.13352c0,0 1.38491,8.01261 -6.9327,9.02219c-4.06733,0.49369 -4.09452,-6.52097 -3.42123,-8.22854c1.22234,-3.10001 3.42075,-4.916 3.42075,-4.916c0,0 -0.3919,-5.5836 -0.14558,-8.73245z" fill="#ffd5d5" stroke="#000000" stroke-width="1.5"/><path d="M245.1026,175.4596c-0.98594,-0.64 -1.21165,-1.61216 -1.54278,-2.57662c-0.39958,-1.16379 -0.68288,-4.079 -0.68288,-4.079c0,0 1.88781,1.43735 2.95744,2.05164c1.0526,0.6045 3.57324,1.45269 3.57324,1.45269c0,0 -1.55297,2.41034 -2.26572,2.89984c-0.66241,0.45494 -1.05335,0.89143 -2.03929,0.25145z" fill="#fb95a9" stroke="none" stroke-width="0"/><path d="M235.8695,202.12273c-0.64171,-0.03296 1.51192,-1.05037 2.3367,-1.53259c0.91489,-0.5349 2.82616,-2.37563 2.86295,-2.00666c0.07441,0.74608 -1.44675,2.17702 -2.28268,2.66576c-0.90726,0.53045 -1.82762,0.92947 -2.91696,0.87351z" fill="#fc9ea5" stroke="none" stroke-width="0"/></g></g></g></svg>