<svg version="1.1" xmlns="http://www.w3.org/2000/svg" xmlns:xlink="http://www.w3.org/1999/xlink" width="267.42642" height="257.0021" viewBox="0,0,267.42642,257.0021"><g transform="translate(-106.28679,-54.50196)"><g data-paper-data="{&quot;isPaintingLayer&quot;:true}" fill-rule="nonzero" stroke-linejoin="miter" stroke-miterlimit="10" stroke-dasharray="" stroke-dashoffset="0" style="mix-blend-mode: normal"><path d="M373.71321,311.1602l-267.27562,0.34386l-0.1508,-256.65825l267.27563,-0.34385z" fill="none" stroke="none" stroke-width="NaN" stroke-linecap="butt"/><g><g data-paper-data="{&quot;origRot&quot;:0}" stroke="#000000" stroke-width="3" stroke-linecap="round"><path d="M188.50181,137.94885c0,0 29.75251,6.31537 29.30473,9.60074c-0.80735,5.92376 -6.08951,18.6473 -6.08951,18.6473l-3.61047,11.24138l1.75224,-4.13063c0,0 13.20817,10.78677 14.63729,14.56612c0.75082,1.98554 -4.91331,10.96889 -7.32687,12.05445c-5.41443,2.43529 -41.37319,-12.73693 -40.93634,-17.7214c2.64476,-11.50358 8.14678,-35.88152 8.14678,-35.88152c0,0 1.83493,-9.26238 4.12215,-8.37645z" data-paper-data="{&quot;origPos&quot;:null}" fill="#582700"/><path d="M214.06855,157.7517l-28.4985,-9.54717" fill="none"/><path d="M184.00002,152.22364l28.40573,9.84072" data-paper-data="{&quot;origPos&quot;:null}" fill="none"/></g><path d="M214.00947,158.15244l-0.92739,2.8767l-29.08804,-9.96327l0.92739,-2.87669z" fill="#ffffff" stroke="none" stroke-width="0" stroke-linecap="butt"/><path d="M176.79559,181.0423l6.62773,-28.63217l28.30769,10.77674l-4.37608,13.58864l1.8526,0.76231l1.37968,-2.91667l13.16392,13.25641l-0.57405,1.50598l-2.87027,7.52988l-4.67718,2.43092l-8.40739,-1.1365l-22.32694,-8.89655l-8.90531,-6.85829z" fill="#66c8ff" stroke="#000000" stroke-width="0.5" stroke-linecap="round"/></g><g data-paper-data="{&quot;index&quot;:null}" stroke="#000000" stroke-linecap="round"><path d="M251.94704,169.15446c0,0 16.2316,-1.59725 16.21325,5.02736c-0.04977,17.98052 -28.27891,12.06568 -28.27891,12.06568z" data-paper-data="{&quot;origPos&quot;:null}" fill="#66c8ff" stroke-width="2"/><path d="M251.19298,170.66269c0,0 11.78117,-0.56333 12.44273,1.38252c0.20864,0.61371 -15.71052,2.51368 -15.71052,2.51368z" data-paper-data="{&quot;origPos&quot;:null}" fill="#0a0a0a" stroke-width="1"/></g><g data-paper-data="{&quot;index&quot;:null,&quot;origRot&quot;:0}" stroke="#000000" stroke-linecap="round"><path d="M235.32881,261.47915c0,0 1.28769,4.29276 0.66404,6.5696c-0.47742,1.74302 -2.24144,2.50516 -3.94152,3.11816c-4.6665,1.68256 -9.58734,0.72737 -17.2682,1.46573c-2.09194,0.2011 -3.56667,-2.76179 -3.63188,-4.86234c-0.061,-1.96463 -0.04665,-5.38352 -0.04665,-5.38352l-0.29269,-33.10651c0,0 0.10204,-4.28744 1.75031,-5.21433c3.96933,-2.23209 8.56735,-1.22354 13.06855,-1.91422c1.52541,-0.23405 2.11119,4.53078 2.11119,4.53078z" data-paper-data="{&quot;origPos&quot;:null}" fill="#ff0000" stroke-width="3"/><path d="M211.13383,263.47401l23.22479,-2.14774c0,0 1.37704,2.37161 1.49649,4.05568c0.1134,1.59865 -0.89986,4.35591 -0.89986,4.35591c0,0 -8.25704,2.08149 -12.12885,2.57355c-5.04643,0.64134 -11.26761,-1.21332 -11.26761,-1.21332z" data-paper-data="{&quot;origPos&quot;:null}" fill="#976e57" stroke-width="2.5"/><path d="M235.28852,261.80772c0,0 1.28769,4.29276 0.66404,6.5696c-0.47742,1.74302 -2.24144,2.50517 -3.94152,3.11816c-4.6665,1.68256 -9.58734,0.72737 -17.2682,1.46573c-2.09193,0.20109 -3.56667,-2.76179 -3.63189,-4.86235c-0.061,-1.96463 -0.04665,-5.38352 -0.04665,-5.38352l-0.29269,-33.1065c0,0 0.10203,-4.28744 1.7503,-5.21434c3.96933,-2.23209 8.56736,-1.22354 13.06855,-1.91422c1.52539,-0.23406 2.11116,4.53077 2.11116,4.53077c0,0 1.91842,8.79861 3.1463,14.43019c1.73303,7.94828 4.44061,20.3665 4.44061,20.3665z" data-paper-data="{&quot;origPos&quot;:null}" fill="#4b4b4b" stroke-width="1.5"/></g><g data-paper-data="{&quot;index&quot;:null,&quot;origRot&quot;:0}" stroke="#000000" stroke-linecap="round"><path d="M236.00326,230.57869c0,0 -1.46438,-4.5719 0.01876,-4.99847c4.37648,-1.25868 8.12897,-4.10084 12.66829,-3.73705c1.88496,0.15107 3.77388,4.00133 3.77388,4.00133l13.6045,30.1835c0,0 1.44539,3.09837 2.21311,4.90781c0.82082,1.93463 0.72308,5.24279 -1.26066,5.93663c-7.28359,2.54753 -11.35156,5.47647 -16.2937,5.90377c-1.8005,0.15567 -3.72155,0.20268 -4.8853,-1.17995c-1.52019,-1.8061 -2.14944,-6.24344 -2.14944,-6.24344z" data-paper-data="{&quot;origPos&quot;:null}" fill="#ff0000" stroke-width="3"/><path d="M269.30595,264.12821c0,0 -4.87184,4.29045 -9.72272,5.82236c-3.72178,1.17534 -12.09128,2.74469 -12.09128,2.74469c0,0 -2.07522,-2.07909 -2.64202,-3.57817c-0.5971,-1.57918 -0.34034,-4.30956 -0.34034,-4.30956l21.98804,-7.78008z" data-paper-data="{&quot;origPos&quot;:null}" fill="#976e57" stroke-width="2.5"/><path d="M243.86695,265.63432c0,0 -2.74421,-12.41018 -4.50063,-20.35332c-1.24448,-5.62793 -3.18881,-14.42086 -3.18881,-14.42086c0,0 -1.46439,-4.5719 0.01874,-4.99844c4.37647,-1.25868 8.12897,-4.10084 12.66829,-3.73705c1.88496,0.15107 3.77388,4.00133 3.77388,4.00133l13.6045,30.1835c0,0 1.44539,3.09837 2.21311,4.90781c0.82082,1.93463 0.72308,5.24279 -1.26065,5.93663c-7.28359,2.54753 -11.35156,5.47647 -16.2937,5.90377c-1.8005,0.15567 -3.72155,0.20267 -4.8853,-1.17998c-1.52019,-1.8061 -2.14944,-6.24344 -2.14944,-6.24344z" data-paper-data="{&quot;origPos&quot;:null}" fill="#4b4b4b" stroke-width="1.5"/></g><g><g><path d="M252.87952,218.15961c0,0 0.82804,15.75777 -1.37782,16.03807c-6.6176,0.84095 -24.01925,-0.01169 -38.86622,-0.01169c-1.66786,0 -1.42457,-14.95796 -1.42457,-14.95796l1.78071,-30.62821c0,0 1.32025,-13.5334 2.84914,-13.5334c9.88992,0 24.68694,-0.93059 31.15944,0.71298c2.1575,0.54786 4.09861,14.95725 4.09861,14.95725z" data-paper-data="{&quot;origPos&quot;:null}" fill="#66c8ff" stroke="#000000" stroke-width="3.5" stroke-linecap="round"/><path d="M221.0213,198.60214c-1.29166,0 -1.29167,-2.4875 -1.29167,-2.4875c0,-5.15926 0,-11.97684 0,-17.1361c0,0 0.00001,-2.4875 1.29167,-2.4875c1.29166,0 1.29166,2.4875 1.29166,2.4875c0,5.15926 0,10.31851 0,15.47777v1.65833c0,0 0,2.4875 -1.29166,2.4875z" fill="#ffffff" stroke="none" stroke-width="0.5" stroke-linecap="butt"/><path d="M233.0213,204.93547c-1.29166,0 -1.29167,-3.125 -1.29167,-3.125c0,-6.48148 0,-15.04629 0,-21.52778c0,0 0.00001,-3.125 1.29167,-3.125c1.29166,0 1.29166,3.125 1.29166,3.125c0,6.48148 0,12.96296 0,19.44445v2.08333c0,0 0,3.125 -1.29166,3.125z" fill="#ffffff" stroke="none" stroke-width="0.5" stroke-linecap="butt"/></g><g fill="none" stroke="#b9b9b9" stroke-width="3"><path d="M243.09252,180.10095c-0.82753,-1.35809 0.08589,-2.57767 1.30884,-3.7957c1.22296,-1.21801 2.45037,-1.58994 3.11989,-0.61516c1.41955,2.06682 -0.06978,3.04234 -1.0274,3.99608c-1.22297,1.21803 -2.23265,2.33277 -3.40133,0.41479z" stroke-linecap="butt"/><path d="M244.07679,179.51021l-2.58997,2.51944" stroke-linecap="round"/><path d="M237.94032,182.65898c1.22296,-1.21801 2.45037,-1.58994 3.11989,-0.61516c1.41955,2.06682 -0.06978,3.04234 -1.0274,3.99608c-1.22296,1.21802 -2.23264,2.33277 -3.40132,0.41479c-0.82753,-1.35809 0.08588,-2.57767 1.30883,-3.79571z" stroke-linecap="butt"/><path d="M235.02576,188.38339l2.58997,-2.51946" stroke-linecap="round"/><path d="M229.40349,187.93111c0.40066,-1.63508 1.7387,-1.48046 3.25851,-1.02164c1.51981,0.45883 2.48819,1.43557 2.24522,2.68318c-0.51516,2.64527 -2.03348,1.77826 -3.22353,1.41899c-1.51981,-0.45882 -2.84605,-0.77137 -2.2802,-3.08052z" stroke-linecap="butt"/><path d="M230.37157,188.53683l-3.1793,-1.00816" stroke-linecap="round"/><path d="M222.20377,183.55536c0.893,-1.31672 2.06779,-0.52961 3.31104,0.62589c1.24326,1.1555 1.81512,2.52367 1.19118,3.55857c-1.32294,2.19428 -2.43342,0.66261 -3.40694,-0.24218c-1.24325,-1.15551 -2.3564,-2.08274 -1.09528,-3.94227z" stroke-linecap="butt"/><path d="M220.30959,182.11896l2.58519,2.46183" stroke-linecap="round"/><path d="M215.70007,177.43074c0.893,-1.3167 2.0678,-0.52961 3.31104,0.62589c1.24326,1.1555 1.81512,2.52367 1.19118,3.55857c-1.32294,2.19427 -2.43342,0.66261 -3.40693,-0.24218c-1.24325,-1.1555 -2.3564,-2.08273 -1.09528,-3.94227z" stroke-linecap="butt"/><path d="M213.8059,175.99433l2.58521,2.46183" stroke-linecap="round"/></g></g><g fill="none" stroke="#b9b9b9" stroke-width="3"><path d="M239.21214,179.97288c-0.56214,-1.35809 0.05834,-2.57767 0.8891,-3.7957c0.83076,-1.21801 1.66455,-1.58994 2.11936,-0.61516c0.96431,2.06682 -0.04741,3.04234 -0.69792,3.99608c-0.83077,1.21803 -1.51665,2.33277 -2.31054,0.41479z" stroke-linecap="butt"/><path d="M239.88075,179.38214l-1.75939,2.51944" stroke-linecap="round"/><path d="M235.71223,182.53091c0.83076,-1.21801 1.66455,-1.58994 2.11936,-0.61516c0.96431,2.06682 -0.04741,3.04234 -0.69792,3.99608c-0.83076,1.21802 -1.51665,2.33277 -2.31054,0.41479c-0.56214,-1.35809 0.05833,-2.57767 0.88909,-3.79571z" stroke-linecap="butt"/><path d="M233.73235,188.25532l1.75938,-2.51946" stroke-linecap="round"/><path d="M229.91311,187.80304c0.27217,-1.63508 1.18111,-1.48046 2.21353,-1.02164c1.03242,0.45883 1.69024,1.43557 1.52519,2.68318c-0.34996,2.64527 -1.38136,1.77826 -2.18976,1.41899c-1.03242,-0.45882 -1.93333,-0.77137 -1.54895,-3.08052z" stroke-linecap="butt"/><path d="M228.41101,187.4006l2.15972,1.00816" stroke-linecap="round"/><path d="M225.02231,183.42729c0.60662,-1.31672 1.40466,-0.52961 2.2492,0.62589c0.84455,1.1555 1.23302,2.52367 0.80918,3.55857c-0.89868,2.19428 -1.65303,0.66261 -2.31435,-0.24218c-0.84454,-1.15551 -1.60072,-2.08274 -0.74403,-3.94227z" stroke-linecap="butt"/><path d="M225.49172,184.45272l-1.75614,-2.46183" stroke-linecap="round"/><path d="M220.6043,177.30265c0.60662,-1.3167 1.40467,-0.52961 2.24921,0.62589c0.84455,1.1555 1.23302,2.52367 0.80917,3.55857c-0.89868,2.19427 -1.65303,0.66261 -2.31435,-0.24218c-0.84454,-1.1555 -1.60072,-2.08273 -0.74403,-3.94227z" stroke-linecap="butt"/><path d="M221.07372,178.32809l-1.75615,-2.46183" stroke-linecap="round"/></g><path d="M208.55937,167.82272c-0.32624,-3.2403 -0.82541,-17.42025 -1.23391,-30.23758c-0.0632,-1.98253 1.45444,-5.13148 1.45444,-5.13148c0,0 2.14932,-1.69728 3.41016,-1.74436c13.91092,-0.51948 27.11261,-2.10657 32.32102,-0.72423c1.73614,0.46077 4.93792,2.09697 4.93792,2.09697c0,0 0.85038,4.37053 1.02054,5.49685c0.05671,0.37545 0.08967,0.58672 0.12392,0.96487c1.0263,11.33058 0.99909,24.48092 0.7738,29.08044c-0.07509,1.53317 -1.81435,3.97977 -1.81435,3.97977c0,0 -1.2997,2.77001 -5.67144,3.71876c-4.78344,1.03812 -16.50461,1.03894 -28.59163,1.00258c-1.81468,-0.00547 -4.75292,-3.24669 -4.75292,-3.24669z" fill="#582700" stroke="#000000" stroke-width="2.5" stroke-linecap="round"/><path d="M251.48784,134.27839l-0.73076,-0.49949c-0.09037,-0.02765 -0.18069,-0.05481 -0.27095,-0.08149c-0.21086,0.31841 -0.62922,0.69514 -1.37195,0.47596c-0.68454,-0.20201 -0.86288,-0.67953 -0.88992,-1.0521c-2.64863,-0.57198 -5.28863,-0.80224 -8.05752,-0.95852c-7.74485,-0.17203 -15.48708,0.25716 -23.22839,0.52667c-2.53881,0.08838 -8.18576,1.30759 -10.36478,-0.30446c-1.0627,-0.78618 -0.72533,-2.72949 -0.86235,-3.77848c-0.39704,-3.03973 -0.87593,-6.18454 -0.99415,-9.24993c-0.12774,-4.00769 -1.7506,-7.53423 -2.39167,-11.44711c-0.32139,-1.96166 -1.0573,-3.91939 0.64706,-5.68329c0.48124,-0.49805 1.36479,-0.24782 2.05476,-0.30762c2.52161,-0.21853 4.97225,-0.13013 7.48104,0.081c7.95032,0.66906 15.79709,0.91877 23.71012,2.07471c3.19222,0.47013 6.39231,0.42856 9.61845,0.42632c1.89607,-0.00131 3.60522,-0.60138 4.81225,1.52415c0.72082,1.26933 0.3586,5.28833 0.3556,6.77132c-0.01159,5.71845 1.12916,12.69924 0.12683,18.48572c0.11841,0.0346 0.23691,0.06994 0.35549,0.10606l1.31441,0.76345c0,0 1.06356,0.65678 0.40679,1.72033c-0.65678,1.06355 -1.72033,0.40679 -1.72033,0.40679z" data-paper-data="{&quot;index&quot;:null}" fill="#000000" stroke="none" stroke-width="0.5" stroke-linecap="butt"/><path d="M248.45352,152.51758c-0.48381,0.87517 -1.35898,0.39135 -1.35898,0.39135l-0.95724,-0.53525c-0.8296,-0.57748 -2.45138,-1.36463 -3.65272,-2.23402c-0.58369,-0.27161 -1.18935,-0.58377 -1.87115,-0.92821l-0.9575,-0.4739c-0.35448,-0.16566 -0.59322,-0.53232 -0.57603,-0.94771c0.02284,-0.55181 0.48869,-0.98063 1.04049,-0.9578c0.11866,0.00491 0.23164,0.0303 0.33565,0.07264l0.29267,0.11121c0.07539,0.02608 0.15083,0.05196 0.2263,0.07766c0.05518,0.00706 0.10887,0.01859 0.16073,0.03419l1.07232,0.29785l-0.00596,0.02148l0.05413,-0.00679c1.13279,0.44073 2.61442,0.56372 3.33258,1.28616c0.19713,0.08548 0.39312,0.17434 0.58775,0.26717l0.00553,-0.00921l0.0996,0.0598c0.02871,0.01394 0.05739,0.02798 0.08604,0.0421l0.01092,0.01612l0.02289,0.01375l0.00461,-0.00755l0.95913,0.58602c0.30915,0.18087 0.51066,0.52229 0.49482,0.90509c-0.00586,0.14153 -0.04085,0.27497 -0.09897,0.39477l0.30103,0.16408c0,0 0.87517,0.48381 0.39135,1.35898z" fill="#582700" stroke="none" stroke-width="0.5" stroke-linecap="butt"/><g><g><g data-paper-data="{&quot;index&quot;:null}"><g stroke="#000000" stroke-width="3" stroke-linecap="round"><path d="M267.64045,210.37599c0,0 3.81981,10.10582 3.76474,14.71772c-15.33574,7.53479 -25.3168,5.64408 -25.3168,5.64408c-1.98587,0.54567 -2.85624,-6.69391 -2.85624,-6.69391c0,0 -2.16907,-14.08192 -3.55741,-23.09503c-0.91163,-5.91839 -2.33594,-15.16514 -2.33594,-15.16514c0,0 -0.64101,-5.90268 0.45597,-6.11383c6.59952,-1.27027 12.72157,-3.78301 16.20122,-3.25473c1.15989,0.1761 3.2212,5.5424 3.2212,5.5424l10.42325,28.41844z" data-paper-data="{&quot;origPos&quot;:null}" fill="#582700"/><path d="M268.82468,216.03092l-25.3474,5.86726l-0.80436,-3.3191l25.32584,-6.12549z" data-paper-data="{&quot;origPos&quot;:null}" fill="none"/></g><path d="M242.35041,218.18084l-4.82525,-36.64121l1.09834,-0.95014l15.58597,-3.74275l12.95903,35.32536z" fill="#66c8ff" stroke="#000000" stroke-width="1" stroke-linecap="round"/><path d="M243.33496,221.47225l-0.5637,-2.2714l25.17987,-5.8607l0.5637,2.2714z" fill="#ffffff" stroke="none" stroke-width="0" stroke-linecap="butt"/></g><g fill="#fffc96" stroke="#000000" stroke-width="2" stroke-linecap="round"><path d="M265.37121,205.89681c0,0 4.45501,0.14353 4.6432,3.08675c0.30109,4.70903 -33.13626,1.56232 -33.75049,-3.3292c-0.25096,-1.99856 2.94336,-2.40889 2.94336,-2.40889l0.45678,1.82274c0,0 6.15413,1.94678 13.9386,2.85162c7.67662,0.89232 12.78959,0.11479 12.78959,0.11479z"/><path d="M262.41883,197.74974c0,0 2.84527,-2.5612 3.99173,-0.51943c2.4066,4.28599 -25.50964,25.90278 -26.80598,21.43156c-0.7851,-2.7079 2.45754,-4.06958 2.45754,-4.06958l0.37588,1.33098c0,0 4.78601,-2.45161 11.01149,-7.44954c6.22548,-4.99791 9.47544,-9.51186 9.47544,-9.51186z" data-paper-data="{&quot;index&quot;:null}"/></g></g><path d="M243.83416,229.20987c-0.48038,-2.08255 -1.97015,-11.26576 -3.28858,-19.56973c-0.20394,-1.28442 0.53943,-3.44596 0.53943,-3.44596c0,0 1.27885,-1.26498 2.1067,-1.39022c9.13356,-1.38176 17.71191,-3.40451 21.26069,-2.89651c1.18292,0.16933 3.42882,0.99301 3.42882,0.99301c0,0 0.91863,2.77816 1.12305,3.49781c0.06814,0.23988 0.10716,0.37479 0.16071,0.61811c1.60428,7.29081 2.66256,15.84402 2.89037,18.85182c0.07594,1.00259 -0.87109,2.72405 -0.87109,2.72405c0,0 -0.63062,1.89877 -3.4367,2.84378c-3.07035,1.03402 -10.80194,1.91419 -18.77789,2.79763c-1.19747,0.13263 -3.40087,-1.75452 -3.40087,-1.75452z" fill="#582700" stroke="#000000" stroke-width="2.5" stroke-linecap="round"/></g><path d="M235.93495,162.10777c-1.74093,1.41586 -4.46077,0.3769 -6.07495,-2.32059c-1.61417,-2.69751 -1.51144,-6.03206 0.2295,-7.44794c1.74093,-1.41586 4.46077,-0.3769 6.07495,2.32059c1.61417,2.69751 1.51144,6.03206 -0.2295,7.44794z" fill="#ffffff" stroke="#000000" stroke-width="1.75" stroke-linecap="butt"/><g data-paper-data="{&quot;index&quot;:null}" fill="none" stroke="#000000" stroke-width="2.5" stroke-linecap="butt"><path d="M240.90036,157.85474c-0.29915,-0.18296 0.45948,-1.96813 1.69444,-3.98728c1.23495,-2.01916 2.47858,-3.5077 2.77771,-3.32474c0.29913,0.18296 -0.4595,1.96811 -1.69444,3.98727c-1.23495,2.01915 -2.77769,3.32475 -2.77769,3.32475z"/><path d="M244.84357,159.19181c1.99412,1.27496 3.45757,2.54802 3.26866,2.84345c-0.18887,0.29544 -1.95858,-0.49866 -3.95269,-1.77363c-1.99412,-1.27496 -3.45758,-2.54804 -3.26866,-2.84348c0,0 1.95857,0.49867 3.9527,1.77364z" data-paper-data="{&quot;index&quot;:null}"/></g><path d="M225.18728,166.67475c-0.31623,0.94868 -1.26491,0.63246 -1.26491,0.63246l-0.11661,-0.06476c-2.18151,-0.22107 -4.12974,-0.69542 -6.34562,-0.4456c0,0 -0.99388,0.11043 -1.10432,-0.88345c-0.11043,-0.99388 0.88345,-1.10432 0.88345,-1.10432c2.3643,-0.25925 4.44159,0.21433 6.76549,0.44329l0.55006,0.15747c0,0 0.94868,0.31623 0.63246,1.26491z" fill="#000000" stroke="none" stroke-width="0.5" stroke-linecap="butt"/></g></g></svg>