<svg version="1.1" xmlns="http://www.w3.org/2000/svg" xmlns:xlink="http://www.w3.org/1999/xlink" width="351.54309" height="351.54309" viewBox="0,0,351.54309,351.54309"><g transform="translate(-64.22845,-4.22846)"><g data-paper-data="{&quot;isPaintingLayer&quot;:true}" fill-rule="nonzero" stroke-linejoin="miter" stroke-miterlimit="10" stroke-dasharray="" stroke-dashoffset="0" style="mix-blend-mode: normal"><g data-paper-data="{&quot;index&quot;:null}" stroke="#2f3bd4" stroke-width="11"><path d="M330.27589,181.45186c0,4.10051 -1.15479,6.94052 -3.96216,8.63942c-2.45787,1.4874 -6.42449,1.89508 -8.76963,4.23811c-1.7877,1.78609 -2.58885,4.18652 -3.48264,7.75889c-9.77279,0 -6.7375,-4.64763 -6.7375,-15.07483c-10.80961,-6.62191 -0.66634,-21.36822 -0.66634,-21.36822c0,0 2.26216,9.75533 5.50267,13.62704c2.79412,3.33835 18.11561,-2.64835 18.11561,2.17958z" data-paper-data="{&quot;index&quot;:null}" fill="#ffffff" stroke-linecap="butt"/><path d="M349.38314,184.45807c0,0 -0.2794,2.25357 -0.95411,3.43752c-1.064,1.86705 -4.81253,6.68151 -4.81253,6.68151c0,0 -8.45866,-2.01545 -10.09738,-4.00642c-1.59252,-1.93486 0.11983,-9.06084 0.11983,-9.06084c0,0 3.34635,-2.59244 8.15375,-1.7648c3.16385,0.54468 7.15201,2.40473 7.59046,4.71303z" data-paper-data="{&quot;index&quot;:null}" fill="#ffffff" stroke-linecap="butt"/><path d="M326.39718,198.32877c2.16497,-0.69299 4.39127,1.18886 6.6488,2.9526c2.254,1.76097 4.54095,3.40124 4.54095,6.00213c0,4.19706 -4.70994,6.36778 -8.78047,5.45913c-3.28255,-0.73274 -6.0289,-3.75644 -6.4835,-7.10869c-0.11476,-0.84631 -0.34296,-5.89127 4.07421,-7.30518z" data-paper-data="{&quot;index&quot;:null}" fill="#ffffff" stroke-linecap="butt"/><path d="M333.9038,166.43137c0.87753,0 1.64465,0.46725 2.06057,1.16379l0.03152,0.01782l0.01712,0.06766c0.17979,0.3319 0.28176,0.71115 0.28176,1.11395v0.36085l-0.09323,0.36854l-0.02946,0.37877l-0.07303,0.21653l-0.04868,0.62549l-0.09268,0.27475l-0.09942,0.39308l-0.04413,0.08176l-0.00719,0.0924l-0.1448,0.42936l-0.0976,1.54337v0.16679l-0.05814,0.22988l0.00011,0.00516l-0.00188,0.00186l-0.16718,0.66094l0.66455,0.52547l0.47057,0.27907l0.20814,0.20571l0.09759,0.05787l0.2636,0.13028l0.9356,0.79263l0.00525,0.09318l0.08196,0.04629l0.29886,1.1816v0.36085l-0.02332,0.09224l0.03623,0.07162l-0.18114,0.50131l-0.13061,0.51642l-0.07033,0.03973l-0.03236,0.08954l-0.13173,0.1953l0.00043,0.01987l-0.0415,0.04104l-0.07059,0.10465l-0.38825,0.34885l-0.37101,0.36671l-0.02481,0.01473l-0.14443,0.33906l-0.18576,0.24481l-0.45994,1.09103l-0.33647,0.99769v2.78827l0.28085,1.01782l0.00178,0.08316l0.03603,0.07519l0.07864,0.38866l0.16186,0.39996l0.02222,0.16107l0.07739,0.14344l0.12393,0.48996l0.00811,0.01691l0.06965,0.09179l0.20528,0.48191l0.22647,0.47256l0.02277,0.11251l0.02367,0.05554l-0.00849,0.01941l0.02096,0.10361l0.1002,0.19807l0.05712,0.25407l0.12391,0.22964l0.0092,0.03639l0.17485,0.20163l0.55666,1.10042l0.10212,0.10092l0.02634,0.00521l0.03686,0.05727l0.04711,0.04656l0.28264,0.46562l0.00171,0.00265l0.12975,0.03607l0.10148,0.18806l0.16373,0.13871l0.01034,0.18386l0.30435,0.56403l0.1217,0.48114v1.21797l-0.41197,0.39021l-0.1119,0.55302l-1.03963,0.6539l-0.3651,0.12028l-0.09348,0.00712l-0.08271,0.04361l-0.93494,0.23101l-0.81356,0.22976l-0.26252,0.00864l-0.24674,0.08129l-0.3832,0.02913l-0.37288,0.09214h-0.24339l-0.48679,0.12027h-0.06662l-0.06703,0.01473l-0.02235,-0.01473h-1.42606l-0.43931,-0.10854l-0.44867,-0.06047l-0.36853,-0.14569l-0.41098,-0.0677l-1.03053,-0.11318l-0.03595,-0.0132l-0.03815,0.0039l-0.68366,-0.09652h-2.45647l-0.20124,0.04972h-0.07883l-0.28864,0.20376l-0.62869,0.4833l-0.00085,0.0017l-0.25013,0.28843l-0.19774,0.32575l-0.73019,0.72172l-0.27384,0.16239l-0.23057,0.2184l-0.57387,0.32411l-0.16552,0.16358l-0.00406,0.01203l-0.17145,0.2663l-0.10741,0.29726l-0.20364,0.30191l-0.81577,1.38223l-0.07847,0.0795l-0.04119,0.10334l-0.60849,0.84199l-0.3288,0.27684l-0.29056,0.31589l-0.1681,0.11076l-0.07598,0.0751l-0.40448,0.23986l-0.09071,0.1569l-0.29804,0.07365l-0.26344,0.15624l-0.17639,-0.04755l-0.45761,0.11307h-2.06887l-0.43931,-0.10854l-0.44868,-0.06047l-0.28449,-0.11248l-0.99115,-0.08906l-0.14679,-0.05062l-0.15542,0.00404l-1.09528,-0.24057l-0.17522,-0.08659l-0.19408,-0.02616l-0.45783,-0.181l-0.32937,-0.0814l-0.05144,-0.02712l-0.13064,-0.00614l-0.10321,-0.11712l-0.80202,-0.42277l-0.20482,-0.7198l-0.47252,-0.53621l0.17352,-0.51453l-0.14856,-0.52209l0.49779,-0.5134l0.23923,-0.70936l0.82145,-0.3846l0.10873,-0.11213h0.07597l0.0823,-0.32537l0.01925,-0.03567l0.00135,-0.04039l0.24341,-0.842l0.0622,-0.10656l0.01681,-0.12189l0.2434,-0.60143l0.02708,-0.03707l0.00797,-0.04504l0.48679,-1.08257l0.09142,-0.11565l0.04323,-0.14041l0.3651,-0.60142l0.04122,-0.04074l0.01961,-0.05428l0.97358,-1.44341l0.17621,-0.15835l0.12252,-0.20183l1.58207,-1.5637l0.12954,-0.07682l0.09319,-0.11753l1.03336,-0.79438l2.13191,-1.87304l0.10565,-0.0546l0.07653,-0.09034l2.60013,-1.86905l1.63127,-1.382l0.182,-0.08994l0.14387,-0.14221l1.1682,-0.69279l0.5627,-0.37079l0.2724,-0.23079v-0.50947l-0.17099,-0.76053l-0.13721,-0.4747l-0.05151,-0.08486l-0.23294,-0.23024l-0.22265,-0.1467l-0.29985,-0.08467l-0.76402,-0.0839h-1.60775l-1.35512,0.09567l-0.88677,0.26293l-0.78069,0.28938l-0.37455,0.18509l-0.25705,0.05646l-0.23233,0.12247l-0.97358,0.24058h-0.29435l-0.28555,0.07057h-0.85188l-0.24513,-0.06057l-0.12829,0.05019l-0.39768,-0.18015l-0.4244,-0.10486l-0.06844,-0.1184l-0.2297,-0.10405l-1.82546,-1.44342l-0.0816,-0.10586l-0.11544,-0.06847l-1.22837,-1.21411l-0.02634,-0.0052l-0.03687,-0.05728l-0.04711,-0.04656l-0.28265,-0.46561l-0.00525,-0.00814l-0.24526,-0.19391l-0.22323,-0.28959l-0.27255,-0.24488l-0.39991,-0.59291l-0.74874,-0.84578l-0.13979,-0.26942l-0.19936,-0.22988l-0.46771,-0.92454l-0.70975,-1.2861l-0.01102,-0.04191l-0.02851,-0.03287l-0.85188,-1.68399l-0.03732,-0.16603l-0.09239,-0.14349l-0.29024,-0.86057l-0.16657,-0.28812l-0.24815,0.14717l-0.09071,0.15689l-0.29805,0.07365l-0.26344,0.15623l-0.17638,-0.04754l-0.45761,0.11307h-0.6085l-0.37287,-0.09214l-0.38321,-0.02914l-0.36509,-0.12028l-0.26943,-0.16946l-0.30075,-0.10616l-0.36508,-0.24056l-0.22108,-0.24037l-0.26802,-0.18799l-0.73019,-0.842l-0.13163,-0.26021l-0.19155,-0.2209l-0.24339,-0.48112l-0.06928,-0.30814l-0.13671,-0.28527l-0.12169,-0.60142l0.01133,-0.23511l-0.05776,-0.22836v-1.20284l0.02274,-0.08989l-0.0157,-0.09135l0.12169,-1.5637l0.02931,-0.08689l-0.00854,-0.09119l0.27845,-1.64624l-0.00164,-0.08951l0.36509,-1.5637l0.31255,-0.73735l0.78567,-1.22028l0.20021,-0.39574l2.12114,-0.82196l1.01853,2.11138l0.75949,-0.93441l1.36192,2.90834l1.25922,0.02229l0.0619,0.22158l0.12487,0.19393l0.18966,0.56238l0.16741,0.33092l0.02202,0.0979l0.0594,0.0813l0.06065,0.14989l1.10934,0.33372l0.40824,-0.08645l1.34316,-1.32757l0.32793,-0.56722l0.11907,-0.12281l0.06954,-0.15559l0.85188,-1.08256l0.0147,-0.01139l0.09918,-0.19603l0.02103,-0.02426l0.02541,-0.1005l0.121,-0.06833l0.63452,-0.73168l0.73212,-0.04019l0.60447,-0.3414l0.49733,0.2809l0.57194,-0.0314l0.38618,0.57253l0.63665,0.35958l0.23647,0.9349l0.07731,0.11461l-0.02274,0.10112l0.00784,0.03098v0.36086l-0.24305,0.9609l0.00727,0.10418l-0.0289,0.03143l-0.11357,0.84192l-0.10853,1.28726v1.55885l0.10324,0.81629l-0.01818,0.14825l0.03664,0.14487v0.12686l0.07526,0.37197l-0.01132,0.23511l0.03194,0.12627l0.36404,0.41977l0.37616,0.37177l0.0973,0.06411l1.79478,0.28009l0.03248,0.01363l0.03523,-0.00207l1.83914,0.34083l3.78488,0.35071l0.13489,0.04692l0.14291,-0.00479l1.25908,0.26668l0.23643,-0.06679l0.60019,-0.25423l0.98839,-0.54273l0.05144,-0.01364l0.04045,-0.03426l0.48679,-0.24056l0.16801,-0.0369l0.14519,-0.09132l0.20389,-0.06718l0.3348,-0.16546l0.50686,-0.11133l0.24194,-0.26906c0.01376,-0.36988 0.11354,-0.71804 0.28012,-1.02555l0.01712,-0.06766l0.03152,-0.01782c0.41591,-0.69653 1.18305,-1.16379 2.06057,-1.16379zM305.09154,166.38582l-0.05964,-0.08162l-0.42392,-1.04751l-0.07646,0.98231v0.35559l0.17285,-0.08543l0.01333,-0.02305l0.06662,-0.01647l0.05958,-0.02944z" data-paper-data="{&quot;index&quot;:null}" fill="#000000" stroke-linecap="butt"/><path d="M333.9038,166.43138c0.87753,0 1.64465,0.46725 2.06057,1.16379l0.03152,0.01782l0.01712,0.06766c0.17979,0.3319 0.28176,0.71115 0.28176,1.11395v0.36085l-0.09323,0.36854l-0.02946,0.37877l-0.07303,0.21653l-0.04868,0.62549l-0.09268,0.27475l-0.09942,0.39308l-0.04413,0.08176l-0.00719,0.0924l-0.1448,0.42936l-0.0976,1.54337v0.16679l-0.05814,0.22988l0.00011,0.00516l-0.00188,0.00186l-0.16718,0.66094l0.66455,0.52547l0.47057,0.27907l0.20814,0.20571l0.09759,0.05787l0.2636,0.13028l0.9356,0.79263l0.00525,0.09318l0.08196,0.04629l0.29886,1.1816v0.36085l-0.02332,0.09224l0.03623,0.07162l-0.18114,0.50131l-0.13061,0.51642l-0.07033,0.03973l-0.03236,0.08954l-0.13173,0.1953l0.00043,0.01987l-0.0415,0.04104l-0.07059,0.10465l-0.38825,0.34885l-0.37101,0.36671l-0.02481,0.01473l-0.14443,0.33906l-0.18576,0.24481l-0.45994,1.09103l-0.33647,0.99769v2.78827l0.28085,1.01782l0.00178,0.08316l0.03603,0.07519l0.07864,0.38866l0.16186,0.39996l0.02222,0.16107l0.07739,0.14344l0.12393,0.48996l0.00811,0.01691l0.06965,0.09179l0.20528,0.48191l0.22647,0.47256l0.02277,0.11251l0.02367,0.05554l-0.00849,0.01941l0.02096,0.10361l0.1002,0.19807l0.05712,0.25407l0.12391,0.22964l0.0092,0.03639l0.17485,0.20163l0.55666,1.10042l0.10212,0.10092l0.02634,0.00521l0.03686,0.05727l0.04711,0.04656l0.28264,0.46562l0.00171,0.00265l0.12975,0.03607l0.10148,0.18806l0.16373,0.13871l0.01034,0.18386l0.30435,0.56403l0.1217,0.48114v1.21797l-0.41197,0.39021l-0.1119,0.55302l-1.03963,0.6539l-0.3651,0.12028l-0.09348,0.00712l-0.08271,0.04361l-0.93494,0.23101l-0.81356,0.22976l-0.26252,0.00864l-0.24674,0.08129l-0.3832,0.02913l-0.37288,0.09214h-0.24339l-0.48679,0.12027h-0.06662l-0.06703,0.01473l-0.02235,-0.01473h-1.42606l-0.43931,-0.10854l-0.44867,-0.06047l-0.36853,-0.14569l-0.41098,-0.0677l-1.03053,-0.11318l-0.03595,-0.0132l-0.03815,0.0039l-0.68366,-0.09652h-2.45647l-0.20124,0.04972h-0.07883l-0.28864,0.20376l-0.62869,0.4833l-0.00085,0.0017l-0.25013,0.28843l-0.19774,0.32575l-0.73019,0.72172l-0.27384,0.16239l-0.23057,0.2184l-0.57387,0.32411l-0.16552,0.16358l-0.00406,0.01203l-0.17145,0.2663l-0.10741,0.29726l-0.20364,0.30191l-0.81577,1.38223l-0.07847,0.0795l-0.04119,0.10334l-0.60849,0.84199l-0.3288,0.27684l-0.29056,0.31589l-0.1681,0.11076l-0.07598,0.0751l-0.40448,0.23986l-0.09071,0.1569l-0.29804,0.07365l-0.26344,0.15624l-0.17639,-0.04755l-0.45761,0.11307h-2.06887l-0.43931,-0.10854l-0.44868,-0.06047l-0.28449,-0.11248l-0.99115,-0.08906l-0.14679,-0.05062l-0.15542,0.00404l-1.09528,-0.24057l-0.17522,-0.08659l-0.19408,-0.02616l-0.45783,-0.181l-0.32937,-0.0814l-0.05144,-0.02712l-0.13064,-0.00614l-0.10321,-0.11712l-0.80202,-0.42277l-0.20482,-0.7198l-0.47252,-0.53621l0.17352,-0.51453l-0.14856,-0.52209l0.49779,-0.5134l0.23923,-0.70936l0.82145,-0.3846l0.10873,-0.11213h0.07597l0.0823,-0.32537l0.01925,-0.03567l0.00135,-0.04039l0.24341,-0.842l0.0622,-0.10656l0.01681,-0.12189l0.2434,-0.60143l0.02708,-0.03707l0.00797,-0.04504l0.48679,-1.08257l0.09142,-0.11565l0.04323,-0.14041l0.3651,-0.60142l0.04122,-0.04074l0.01961,-0.05428l0.97358,-1.44341l0.17621,-0.15835l0.12252,-0.20183l1.58207,-1.5637l0.12954,-0.07682l0.09319,-0.11753l1.03336,-0.79438l2.13191,-1.87304l0.10565,-0.0546l0.07653,-0.09034l2.60013,-1.86905l1.63127,-1.382l0.182,-0.08994l0.14387,-0.14221l1.1682,-0.69279l0.5627,-0.37079l0.2724,-0.23079v-0.50947l-0.17099,-0.76053l-0.13721,-0.4747l-0.05151,-0.08486l-0.23294,-0.23024l-0.22265,-0.1467l-0.29985,-0.08467l-0.76402,-0.0839h-1.60775l-1.35512,0.09567l-0.88677,0.26293l-0.78069,0.28938l-0.37455,0.18509l-0.25705,0.05646l-0.23233,0.12247l-0.97358,0.24058h-0.29435l-0.28555,0.07057h-0.85188l-0.24513,-0.06057l-0.12829,0.05019l-0.39768,-0.18015l-0.4244,-0.10486l-0.06844,-0.1184l-0.2297,-0.10405l-1.82546,-1.44342l-0.0816,-0.10586l-0.11544,-0.06847l-1.22837,-1.21411l-0.02634,-0.0052l-0.03687,-0.05728l-0.04711,-0.04656l-0.28265,-0.46561l-0.00525,-0.00814l-0.24526,-0.19391l-0.22323,-0.28959l-0.27255,-0.24488l-0.39991,-0.59291l-0.74874,-0.84578l-0.13979,-0.26942l-0.19936,-0.22988l-0.46771,-0.92454l-0.70975,-1.2861l-0.01102,-0.04191l-0.02851,-0.03287l-0.85188,-1.68399l-0.03732,-0.16603l-0.09239,-0.14349l-0.29024,-0.86057l-0.16657,-0.28812l-0.24815,0.14717l-0.09071,0.15689l-0.29805,0.07365l-0.26344,0.15623l-0.17638,-0.04754l-0.45761,0.11307h-0.6085l-0.37287,-0.09214l-0.38321,-0.02914l-0.36509,-0.12028l-0.26943,-0.16946l-0.30075,-0.10616l-0.36508,-0.24056l-0.22108,-0.24037l-0.26802,-0.18799l-0.73019,-0.842l-0.13163,-0.26021l-0.19155,-0.2209l-0.24339,-0.48112l-0.06928,-0.30814l-0.13671,-0.28527l-0.12169,-0.60142l0.01133,-0.23511l-0.05776,-1.43119l0.02274,-0.08989l0.10599,-1.65505l0.02931,-0.08689l0.23484,-1.6549l0.03507,-0.08253l-0.00164,-0.08951l0.36509,-1.5637l0.18431,-0.35707l4.00343,-0.47205l3.63099,1.76136l0.0619,0.22158l0.12487,0.19393l0.18966,0.56238l0.16741,0.33092l0.02202,0.0979l0.0594,0.0813l0.06065,0.14989l1.10934,0.33372l0.40824,-0.08645l1.34316,-1.32757l0.32793,-0.56722l0.11907,-0.12281l3.67119,-2.47102l0.95812,0.54112l0.87312,1.29448l0.07731,0.11461l-0.02274,0.10112l0.00784,0.03098v0.36086l-0.24305,0.9609l0.00727,0.10418l-0.0289,0.03143l-0.11357,0.84192l-0.10853,1.28726v1.55885l0.10324,0.81629l-0.01818,0.14825l0.03664,0.14487v0.12686l0.07526,0.37197l-0.01132,0.23511l0.03194,0.12627l0.36404,0.41977l0.37616,0.37177l0.0973,0.06411l1.79478,0.28009l0.03248,0.01363l0.03523,-0.00207l1.83914,0.34083l3.78488,0.35071l0.13489,0.04692l0.14291,-0.00479l1.25908,0.26668l0.23643,-0.06679l0.60019,-0.25423l0.98839,-0.54273l0.05144,-0.01364l0.04045,-0.03426l0.48679,-0.24056l0.16801,-0.0369l0.14519,-0.09132l0.20389,-0.06718l0.3348,-0.16546l0.50686,-0.11133l0.24194,-0.26906c0.01376,-0.36988 0.11354,-0.71804 0.28012,-1.02555l0.01712,-0.06766l0.03152,-0.01782c0.41591,-0.69653 1.18305,-1.16379 2.06057,-1.16379zM305.09154,166.38582l-0.05964,-0.08162l-0.42392,-1.04751l-0.07646,0.98231v0.35559l0.17285,-0.08543l0.01333,-0.02305l0.06662,-0.01647l0.05958,-0.02944z" data-paper-data="{&quot;index&quot;:null}" fill="#000000" stroke-linecap="butt"/><path d="M340.49531,180.7671l4.35962,8.618" data-paper-data="{&quot;index&quot;:null}" fill="none" stroke-linecap="round"/><g data-paper-data="{&quot;index&quot;:null}"><path d="M338.76287,169.00391c0,0 -11.583,3.21219 -16.84545,2.72308c-7.79486,-0.72449 -5.40442,-4.10927 -5.07078,-7.28285c0.33365,-3.17357 16.49552,-8.43188 16.49552,-8.43188c0,0 3.06289,1.61705 4.86973,6.09097c1.39434,3.45254 0.55101,6.90069 0.55101,6.90069z" fill="#ffffff" stroke-linecap="butt"/><path d="M303.04274,160.08379c-0.63518,6.04186 -6.68521,12.46469 -10.71934,12.08975c-4.03412,-0.37495 -3.29376,-7.51786 -2.65857,-13.55972c0.63518,-6.04186 5.77399,-6.21545 5.77399,-6.21545c0,0 7.68428,-1.89472 9.91368,1.01879c0.76212,0.996 0.26072,5.66264 0.09889,7.20189z" fill="#ffffff" stroke-linecap="butt"/><path d="M290.7719,159.67972c0,0 3.43968,-2.19553 5.23197,-1.93174c1.68236,0.24762 5.2129,3.46903 5.2129,3.46903" fill="none" stroke-linecap="round"/><path d="M327.75262,158.1317c0,0 3.21957,2.95423 4.09039,4.74339c0.89949,1.84806 1.22329,6.174 1.22329,6.174" fill="none" stroke-linecap="round"/><path d="M317.39119,166.06228l2.42497,1.72903l-0.26092,2.48182" fill="none" stroke-linecap="round"/><path d="M325.53171,161.30552l-1.14034,3.15191l-4.84225,3.30906" fill="none" stroke-linecap="round"/><path d="M327.55255,165.16892l-3.04605,-0.95139" fill="none" stroke-linecap="round"/></g></g><g data-paper-data="{&quot;index&quot;:null}" fill="#2f3bd4" stroke="#2f3bd4" stroke-width="10" stroke-linecap="butt"><path d="M180.37236,216.97793c0,-4.98364 2.62324,-7.87168 5.80386,-7.85896c1.77935,0.00712 2.81916,2.77398 5.88423,2.10668c3.73067,-0.81221 6.6989,-5.9318 9.96002,-6.14305c3.61825,-0.2344 8.82856,7.20751 8.82856,7.20751c0,0 -1.3061,7.30075 -3.43185,13.28647c-2.23571,6.29533 -5.48612,11.16811 -8.42019,10.91436c-3.14292,-0.27183 -18.62463,-8.34794 -18.62463,-19.51303z"/><path d="M208.76174,220.36284c0,0 -1.41119,3.67722 -1.99584,5.66813c-1.28653,4.38104 -4.36682,10.38674 -8.1317,10.22558c-2.17853,-0.09325 -6.20624,-2.76428 -10.6953,-7.17006c-3.02151,-2.96545 -7.05053,-6.73971 -7.8537,-10.95645c-0.20581,-1.08052 1.73846,-2.54069 1.73846,-3.67183c8.70763,8.05397 13.18228,14.94851 14.63364,14.64941z"/><path d="M212.0584,213.63783c0,0 -7.09477,-7.5788 -9.31231,-8.08648c-0.46059,-0.10544 -7.25131,5.1668 -10.35478,6.41872c-0.54499,0.21984 -2.10183,0.29043 -3.37051,-0.26614c-1.08721,-0.47696 -1.83427,-1.5079 -2.99944,-2.24784c-0.82265,0.33955 -5.56161,7.85856 -5.56161,7.85856c0,0 10.56065,17.93361 17.70608,18.39847c1.83864,0.11962 4.64554,-2.03228 6.32618,-5.35095c1.28004,-2.52765 2.38453,-5.95644 3.39245,-8.29744c0.92043,-2.1378 1.80296,-3.30647 1.80296,-3.30647c0,0 -0.74551,4.30729 -2.02312,8.84711c-1.41095,5.01366 -5.4229,10.88951 -9.95191,9.96447c-1.05718,-0.21593 -4.98715,-1.86232 -7.71277,-4.42627c-5.82697,-5.48137 -11.76295,-14.31952 -11.83835,-16.45352c-0.03886,-1.10016 2.00335,-3.46087 2.89725,-4.71007c1.20367,-1.68211 2.56361,-3.89122 5.38668,-4.49803c1.49832,-0.32206 3.50215,2.49957 4.99797,2.09532c4.72222,-1.27617 9.32375,-7.19017 12.02856,-6.83858c2.70482,0.35158 8.58668,10.89916 8.58668,10.89916z"/></g><path d="M178.38872,219.43377l-3.69099,1.73107l-0.06831,8.34778l-7.20805,-0.15412l1.76196,-9.86306c0,0 3.88649,-3.63704 7.86586,-5.4248c1.62729,-0.73105 4.40394,-0.51119 5.1613,-0.61168c1.83018,-0.24287 0.34778,3.72482 0.34778,3.72482z" data-paper-data="{&quot;index&quot;:null}" fill="#2f3bd4" stroke="#2f3bd4" stroke-width="10" stroke-linecap="butt"/><path d="M193.23267,216.848l-7.7215,4.95122c0,0 -2.25893,-0.71387 -2.93344,-1.48148c-1.59234,-1.81212 -0.01873,-3.35838 -0.01873,-3.35838c0,0 6.26448,-7.84326 8.98504,-7.53403c3.00981,0.34211 8.29391,2.13303 8.29391,2.13303l0.34731,5.68158z" data-paper-data="{&quot;index&quot;:null}" fill="#2f3bd4" stroke="#2f3bd4" stroke-width="10" stroke-linecap="butt"/><path d="M191.15505,210.92709l1.64974,5.19057" data-paper-data="{&quot;index&quot;:null}" fill="#2f3bd4" stroke="#2f3bd4" stroke-width="10" stroke-linecap="round"/><path d="M184.34299,213.54465c0,0 -2.26719,-2.62815 -7.48075,-1.13817c-2.59804,0.74249 -7.19382,5.64418 -7.19382,5.64418l-6.06125,-4.94779c0,0 10.87114,-11.60644 13.97397,-10.88874c3.94877,0.91338 8.83545,6.20602 8.83545,6.20602l-2.07359,5.12451z" data-paper-data="{&quot;index&quot;:null}" fill="#2f3bd4" stroke="#2f3bd4" stroke-width="10" stroke-linecap="butt"/><path d="M180.59464,210.89407l-1.99383,-7.68675" data-paper-data="{&quot;index&quot;:null}" fill="#2f3bd4" stroke="#2f3bd4" stroke-width="10" stroke-linecap="round"/><path d="M170.38621,207.44828l3.34964,5.83132" data-paper-data="{&quot;index&quot;:null}" fill="#2f3bd4" stroke="#2f3bd4" stroke-width="10" stroke-linecap="round"/><path d="M192.76899,230.84457c0,0 -3.98655,-2.32472 -5.58144,-3.78188c-1.67188,-1.52748 -4.22977,-5.18199 -4.22977,-5.18199l5.68886,-2.77066c0,0 2.01433,1.76154 4.37773,4.38555c1.1409,1.26671 2.54783,4.0894 2.54783,4.0894z" data-paper-data="{&quot;index&quot;:null}" fill="#2f3bd4" stroke="#2f3bd4" stroke-width="10" stroke-linecap="butt"/><path d="M178.00699,214.62812l1.89629,3.74854" data-paper-data="{&quot;index&quot;:null}" fill="#2f3bd4" stroke="#2f3bd4" stroke-width="10" stroke-linecap="round"/><path d="M170.75164,217.56175l2.9681,3.09661" data-paper-data="{&quot;index&quot;:null}" fill="#2f3bd4" stroke="#2f3bd4" stroke-width="10" stroke-linecap="round"/><path d="M212.87519,196.53096l-5.86914,0.74054l-0.74926,-6.04784l5.6194,1.23424l-0.24975,3.57935" data-paper-data="{&quot;index&quot;:null}" fill="#ffffff" stroke="#000000" stroke-width="3.5" stroke-linecap="round"/><g data-paper-data="{&quot;index&quot;:null}" fill="#2f3bd4" stroke="#2f3bd4" stroke-width="4" stroke-linecap="butt"><path d="M281.28385,193.24545c0,0 4.00868,10.65675 -3.66557,14.50376c-3.55919,1.78419 -21.21234,5.96789 -26.72143,2.2457c-11.99919,-8.1072 -13.76194,-17.18417 -13.76194,-17.18417c0,0 2.05081,-4.75865 4.47223,-5.82093c6.9497,-3.04884 10.14353,0.30176 10.14353,0.30176c0,0 1.4034,1.61897 2.63,2.38215c1.35292,0.84177 5.14572,2.45582 5.14572,2.45582c0,0 14.40072,-7.39302 15.44447,-6.56527c0.46507,0.36882 6.313,7.68122 6.313,7.68122z"/><path d="M277.33564,189.78621c0,0 14.60357,-8.3086 20.50433,-7.771c9.29404,0.84675 11.39882,10.86329 10.69472,12.40143c-2.20463,4.81608 -15.2209,13.46638 -15.2209,13.46638c-2.72025,1.45624 -9.71183,4.90046 -12.08902,5.35683c-3.74528,0.71903 -5.69196,-3.48238 -7.775,-7.6749c-3.4383,-6.92028 -3.25546,-12.23059 3.88589,-15.77874z"/></g><g data-paper-data="{&quot;index&quot;:null}" fill="#2f3bd4" stroke="#2f3bd4" stroke-width="4" stroke-linecap="butt"><path d="M286.41716,219.57292c0,0 0.21986,3.6341 -11.11129,6.60648c-17.24548,4.52382 -49.8379,9.06273 -60.82856,9.11486c-5.3211,0.02523 -11.16554,-3.27898 -15.97854,-5.29976c-10.69364,-4.4898 -12.17491,-9.21448 -12.17491,-9.21448c0,0 -1.55014,-4.88386 -0.5826,-6.97075c0.78545,-1.69417 5.71446,-0.98682 5.71446,-0.98682c0,0 43.95938,-6.92362 71.55949,-8.03702c1.1883,-0.04793 1.81684,4.2678 2.9201,4.21202c6.1094,-4.79912 15.10216,-5.86739 15.28147,-5.71861c4.41711,3.66513 5.20039,16.29405 5.20039,16.29405z"/><path d="M210.97907,210.88377c0,-1.81579 -1.50264,-8.71753 -1.50264,-8.71753c0,0 12.14012,-0.45527 26.82079,-0.45527c12.15193,0 21.17305,-3.6674 21.17305,-3.6674c0,0 5.94851,8.62686 6.36749,9.12105c0.95293,1.12396 0.59644,2.89877 0.59644,2.89877c0,0 -1.567,4.78993 -2.61516,7.2259c-1.28265,2.98095 -5.1703,11.247 -5.1703,11.247c0,0 -0.78377,1.54427 -1.90288,0.36709c-2.03611,-2.14176 -5.18233,-7.95618 -6.73819,-10.69361c-0.9509,-0.08125 -1.80371,-0.18483 -2.80271,-0.1173c-2.98131,0.20154 -6.18752,1.2349 -9.68271,1.30925c-4.36989,0.09296 -8.32145,0.10197 -11.71395,-0.53822c-7.94939,-1.50012 -12.82922,-4.98591 -12.82922,-7.97975z"/><path d="M242.32372,220.14332c0,0 4.68124,-3.75703 5.64056,-4.52793c1.10919,-0.89136 4.19937,-2.88296 4.19937,-2.88296c0,0 -1.07066,2.38441 -3.92578,5.73107c-3.06136,3.58844 -5.91415,1.6798 -5.91415,1.6798z"/></g><g data-paper-data="{&quot;index&quot;:null}" fill="#2f3bd4" stroke="#2f3bd4" stroke-width="4" stroke-linecap="butt"><g><path d="M268.27625,196.64914c0,0 -0.83804,11.39446 -19.36833,14.21863c-17.90553,2.72895 -28.07603,0.70395 -33.67317,-0.85649c-3.05381,-0.85138 -8.03409,-1.35627 -8.03409,-1.35627c0,0 -1.83299,-8.39487 -2.34231,-16.92912c-0.4712,-7.89534 0.38098,-15.83087 0.31958,-19.23694c-0.18953,-10.51391 4.05428,-8.29921 4.05428,-8.29921l32.42593,6.37336c0,0 -0.23312,2.99383 -1.0839,8.36091c8.68612,4.73065 27.47292,13.84022 27.702,17.72514z"/><path d="M246.10832,189.64932l0.50868,0.57509c0.05154,0.05757 0.09427,0.12277 0.1261,0.19362c0.49976,0.56704 0.98608,1.15876 1.46235,1.77415c3.95708,6.15402 0.52781,10.9635 -6.6195,11.61392c-8.00689,0.69894 -11.83262,-2.01348 -16.93226,-6.95526c-2.67091,-3.03095 -8.61376,-10.28681 -2.26887,-13.2185c0.759,-0.3507 2.21295,-0.45894 3.02635,-0.63404c3.5131,-0.66696 7.9352,-0.62057 11.27612,0.79794c1.30705,0.55496 2.71536,1.29569 3.94587,2.07973c0.29383,0.1735 0.67447,0.26366 0.95779,0.44907zM238.8579,189.37431c-0.61896,1.95508 -0.93339,4.31401 -1.46443,6.03448c-0.30319,0.88143 -1.54838,3.85438 -0.7036,4.60718c1.82362,1.62507 8.09788,-0.59563 8.73818,-2.72587c0,-3.81811 -3.18842,-6.13994 -6.57016,-7.91581zM235.57169,187.76862c-0.70401,-0.33585 -1.36947,-0.66025 -1.96406,-0.9835c-3.02474,-0.96226 -4.70176,-0.6542 -7.71992,0.27657c-0.61513,0.18971 -2.2464,0.34666 -2.37095,1.17114c-0.241,1.59536 1.20766,3.53772 2.02972,4.8123c0.92016,1.43744 4.1308,5.31187 6.19724,5.10808c0.34435,-0.03395 0.85863,-1.12745 0.97765,-1.34455c0.90405,-1.64905 1.08602,-3.6686 1.63702,-5.44593c0.23516,-1.13939 0.58137,-2.20143 1.06707,-3.26337l0.14623,-0.33075z"/></g><path d="M207.20206,176.02013c5.92625,-5.57684 7.68515,-3.14627 7.68515,-3.14627c0,0 -3.65226,27.56198 -5.61297,34.8839c-3.80038,0 -4.10165,-25.66614 -4.10165,-25.66614c0,0 0.59011,-4.71698 2.02947,-6.07148z"/></g><g data-paper-data="{&quot;index&quot;:null}" fill="#2f3bd4" stroke="#2f3bd4" stroke-width="4" stroke-linecap="butt"><path d="M192.27966,212.18451c-3.0638,-0.57973 -6.67429,-4.35797 -6.67429,-4.35797c0,0 -0.62719,0.07581 -0.8271,-1.6769c-0.15293,-1.34078 3.10908,-2.17282 3.98287,-4.25618c1.81878,-4.33647 2.04462,-10.21883 2.04462,-10.21883c0,0 -1.73923,-7.31608 3.58751,-8.71824c7.19558,-1.89409 11.74696,2.12826 11.74696,2.12826c0,0 3.0669,9.559 3.0669,13.95525c0,5.103 -1.60012,12.53389 -1.60012,12.53389c0,0 -11.2007,1.39158 -15.32735,0.61073z"/><path d="M191.20579,198.07077c0,0 0.50007,-2.68625 0.18744,-5.62626c-0.42276,-3.97583 0.26291,-9.03967 3.9462,-9.03967c3.84698,0 7.58247,-0.38136 9.98331,2.19918c1.49245,1.60416 1.7509,7.29815 1.7509,7.29815c0,0 -2.87873,2.31359 -8.93399,4.45793c-5.55166,1.966 -6.93385,0.71069 -6.93385,0.71069z"/></g><g data-paper-data="{&quot;index&quot;:null}" fill="#2f3bd4" stroke="#2f3bd4" stroke-width="4" stroke-linecap="butt"><path d="M188.69266,191.55449c-0.65552,-0.23884 -2.08666,-1.31697 -2.58396,-2.29827c-1.42237,-2.80672 4.03996,-7.71172 4.43101,-13.05716c0.40598,-5.54954 -2.8933,-11.76337 -1.75171,-14.27833c0.27829,-0.61307 2.8765,-1.83793 3.67508,-2.00901c8.63192,1.64755 21.46762,9.1054 21.46762,9.1054l-0.02098,5.67083c0,0 -12.22844,21.59912 -25.21705,16.86656z"/><path d="M212.3423,177.92456c0,0 -3.2107,10.95131 -14.35395,14.32123c-4.65569,1.40796 -12.47895,-0.47962 -12.47895,-0.47962c-3.42205,-1.75078 -0.83412,-7.93787 1.76814,-13.13638c0.78767,-1.57352 1.9571,-3.15923 1.44563,-6.7736c-0.6058,-4.28092 -3.50444,-11.32251 -3.50444,-11.32251c0,0 1.25173,-2.30194 2.54042,-0.9216c0.5661,0.60636 1.34328,4.23588 1.82067,5.1789c1.718,3.39366 2.71121,9.59087 2.31048,11.11867c-0.60251,2.29707 -4.67407,11.98721 -4.67407,11.98721c0,0 -0.37635,1.03158 0.01865,1.61838c1.33387,1.98159 6.0249,1.91576 8.53759,1.30422c6.05256,-1.47308 9.44538,-4.93817 12.10633,-7.86187c2.51529,-2.76365 4.46352,-5.03305 4.46352,-5.03305z"/></g><path d="M193.8868,159.04154c0,0 2.99166,-1.12956 22.43826,2.59604c22.5215,4.3147 24.15422,10.90344 24.15422,10.90344l-1.89157,7.37323c0,0 -7.95043,-2.32272 -13.83198,-3.92079c-8.5217,-2.3154 -33.97146,-8.99135 -33.97146,-8.99135c0,0 -1.51856,-1.52147 -1.32255,-2.781c0.18566,-1.19295 4.42509,-5.17957 4.42509,-5.17957z" data-paper-data="{&quot;index&quot;:null}" fill="#2f3bd4" stroke="#2f3bd4" stroke-width="4" stroke-linecap="butt"/><g data-paper-data="{&quot;index&quot;:null}" fill="#2f3bd4" stroke="#2f3bd4" stroke-width="4" stroke-linecap="butt"><path d="M269.47076,159.49802c0,0 15.28988,3.74268 12.78197,9.61304c-6.77081,15.84868 -10.00952,14.42494 -40.92638,15.66396c-15.10875,0.6055 -36.80777,-11.86418 -46.37701,-16.57163c-6.27799,-3.08837 1.03324,-37.88879 6.91737,-41.66239c15.45389,-9.91088 47.72358,-16.92796 63.46659,-7.97497c9.64629,5.48582 7.70663,27.53286 7.70663,27.53286c0,0 -2.60757,5.34971 -3.56917,13.39914z"/><path d="M268.25258,153.96035c0,0 -23.62978,-9.38606 -27.45481,-8.76903c-0.5731,1.24129 -1.10333,15.51449 -1.62332,15.31502c-12.98968,-4.98291 -17.00724,-7.60108 -17.00724,-7.60108l-10.84767,19.6141c0,0 -6.64252,-6.35613 -9.57352,-9.53114c-0.1305,-2.24821 -1.88554,6.04585 -1.88554,6.04585l-4.52091,-2.0722c0,0 -0.78829,-1.4095 -0.80575,-2.69169c-0.08277,-6.07938 1.24818,-23.52862 10.75239,-31.10178c11.07504,-8.82484 67.32328,-6.12289 67.32328,-6.12289c0,0 -0.36641,13.35812 -1.16818,18.31105c-1.32252,3.40811 -2.61673,8.98548 -2.61673,8.98548z"/></g><g data-paper-data="{&quot;index&quot;:null}" fill="#2f3bd4" stroke="#2f3bd4" stroke-width="0" stroke-linecap="butt"><g><path d="M169.62151,156.96133c0,0 -7.53052,5.10241 -14.82751,8.21882c-5.05772,2.16006 -10.02856,2.73449 -12.19731,2.60328c-5.2977,-0.32054 -7.30815,-10.78875 -4.09853,-12.70522c1.88445,-1.12521 6.32787,-1.8946 10.17642,-2.35815c9.59907,-1.15621 21.11046,-0.63482 21.11046,-0.63482l-0.16351,4.87608z"/><path d="M139.04506,162.56626c0,0 2.62598,-0.00208 11.75695,-1.82409c7.75345,-1.54715 11.01742,-3.91157 13.162,-5.20103c1.93782,-1.16514 2.61815,-1.80035 2.61815,-1.80035l0.17707,3.53715c0,0 -8.87164,5.93417 -15.97286,7.88065c-4.17446,1.14423 -8.5805,1.24368 -8.5805,1.24368c0,0 -1.64532,-1.03178 -2.07517,-1.62914c-0.45523,-0.63262 -1.08565,-2.20689 -1.08565,-2.20689z"/></g><g><path d="M276.15764,88.69559c11.94424,9.02917 -4.30544,70.25459 -4.30544,70.25459c0,0 -51.82623,-18.02583 -61.43239,-14.15034c-12.53416,5.05676 -24.42224,9.46575 -24.42224,9.46575c0,0 -13.19572,-3.33872 -18.25383,-15.45354c-1.54851,-3.70885 6.12587,-24.71124 7.28801,-27.18374c3.51711,-7.48279 5.51979,-16.35357 16.12714,-23.03937c17.26215,-10.88031 71.59671,-10.02452 84.99875,0.10666z"/><path d="M183.49522,153.86994c0,0 -12.57532,-11.97646 -13.65005,-19.51194c-0.65562,-4.59688 2.02934,-18.77896 7.41815,-29.61376c3.58817,-7.21442 9.96552,-13.07731 11.54282,-13.15402c13.39154,-0.65121 22.59126,52.62021 22.59126,52.62021l-27.90219,9.65952z"/></g></g><g data-paper-data="{&quot;index&quot;:null}" fill="#2f3bd4" stroke="#2f3bd4" stroke-width="4" stroke-linecap="butt"><path d="M165.89839,143.09675c0.55215,-0.94197 10.88982,4.94913 16.51326,11.19727c3.23145,3.59043 2.56123,8.58295 2.63976,11.65069c0.06018,2.35066 -4.05142,5.96992 -7.15021,6.66622c-4.97864,1.1187 -13.68086,-25.01869 -11.79094,-28.24296z"/><path d="M173.9214,163.92157c0,0 0.31218,0.90753 2.20776,0.05617c2.39757,-1.07684 7.42744,-5.08359 7.42744,-5.08359c0,0 1.75117,3.72896 1.7964,4.85756c0.06174,1.54067 -3.26184,4.97728 -6.01539,6.66047c-1.50063,0.91731 -2.63405,0.51509 -2.81397,0.57648z"/><path d="M174.33659,154.32989c-0.01203,-0.5996 8.86795,3.10271 8.51604,4.41903c-0.45419,1.69894 -2.36882,9.55616 -4.73942,7.63729c-0.96818,-0.78369 -3.71962,-9.21817 -3.77661,-12.05632z"/></g><g data-paper-data="{&quot;index&quot;:null}" fill="#2f3bd4" stroke="#2f3bd4" stroke-width="4" stroke-linecap="butt"><g><path d="M220.45439,134.09402c-0.21669,0.16541 2.97938,0.59993 2.97938,0.59993c0,0 6.10215,4.37403 8.15246,6.52563c1.35792,1.425 2.95254,5.12798 2.95254,5.12798c0,0 0.00369,11.12868 -5.47124,11.12868c-2.69107,0 -2.81597,-2.57957 -3.59088,-7.05803c-0.69925,-4.04123 -2.91524,-12.94328 -5.02225,-16.32418z" data-paper-data="{&quot;index&quot;:null}"/><path d="M259.02383,142.25308c0,3.4166 -0.9478,6.93048 -1.76977,9.40372c-1.15887,3.48697 -2.8207,5.95015 -4.62237,6.13441c-0.88107,0.00521 -1.60747,-0.21567 -2.03473,-1.06114c-1.56871,-3.10421 -0.45712,-10.69745 -0.45712,-10.69745l-0.27176,-5.17188c0,0 7.01458,-7.11871 8.55156,-6.8634c0.57166,0.09495 0.6042,7.19324 0.6042,8.25573z" data-paper-data="{&quot;index&quot;:null}"/></g><g><path d="M249.51626,162.05211c0,0 -5.21747,2.77725 -11.48165,3.12896c-2.49315,0.13998 -17.60532,0.20889 -22.9638,-1.13397c-3.12038,-0.78199 -4.72955,-8.65031 -5.24526,-10.07503c-0.26224,-0.7245 4.74361,-1.18159 8.83984,-0.27165c1.05938,0.23534 3.03669,0.19739 3.93257,0.69645c0.42457,0.2365 0.71789,0.98657 0.29456,1.25492c-0.78348,0.49668 -2.85384,0.47505 -2.85384,0.47505c0,0 0.8939,1.30296 1.68457,1.87563c2.80304,2.03015 5.78676,3.42125 7.88024,4.41933c5.5989,2.66929 19.91277,-0.36969 19.91277,-0.36969z"/><path d="M220.71455,162.79455c0,0 -3.10767,-0.4245 -4.08648,-1.03221c-0.77774,-0.48285 -1.70836,-1.95303 -1.70836,-1.95303c-0.78182,-1.71642 -2.30449,-4.5373 -2.30449,-4.5373c0,0 2.6465,0.1794 3.63895,0.1794c0.62001,0.79991 -0.7107,0.88043 0.9963,2.60849c3.21719,3.05115 7.30643,4.63399 7.30643,4.63399c0,0 -2.46291,0.19614 -3.84235,0.10066z"/></g></g><path d="M271.23908,237.82936c-1.60779,-1.63451 -1.48564,-3.72074 -0.86379,-5.0202c0.47812,-0.99911 1.35133,-1.43653 1.35133,-1.43653l4.87536,3.22836c0,0 -3.54051,4.64727 -5.36289,3.22836z" data-paper-data="{&quot;index&quot;:null}" fill="#2f3bd4" stroke="#2f3bd4" stroke-width="4" stroke-linecap="butt"/><g data-paper-data="{&quot;index&quot;:null}" fill="#2f3bd4" stroke="#2f3bd4" stroke-width="4" stroke-linecap="butt"><g><g><path d="M234.09997,242.64037c0,-5.61422 -0.64296,-16.67505 5.97858,-21.24284c1.64967,-1.13801 5.9504,-4.43219 9.68099,-0.94438c0.42451,0.39688 -0.73171,1.44813 0.03608,2.91795c0.28341,0.54257 2.1569,0.59917 2.64237,1.23738c1.53361,2.01604 4.8062,3.97597 5.50511,3.89525c2.22488,-5.3728 9.07157,-11.85782 11.34244,-12.35508c4.08074,-0.89359 19.56272,2.56187 19.3976,5.59051c0.49959,2.46403 -3.39358,6.52251 -3.39358,6.52251c0,0 16.28853,8.90662 22.38911,12.45132c10.50474,6.1037 10.7034,10.96357 10.7034,10.96357c0,0 0.63527,2.42813 -3.67238,3.65406c-8.44382,2.40304 -18.91755,3.10215 -31.20606,2.77552c-11.93942,-0.31734 -11.56966,-6.44227 -24.09847,-7.79006c-10.56399,-1.13644 -25.30518,1.6476 -25.30518,-7.67568z"/><path d="M298.96307,256.50544c0,0 -11.59833,1.21951 -17.44088,0.39436c-5.89537,-0.83261 -13.94812,-6.74989 -19.66627,-7.55323c-12.10132,-1.70011 -19.63467,0.33297 -22.7477,-1.72569c-0.20024,-0.13242 -4.92954,-1.86973 -4.30941,-7.55813c1.49076,-13.67461 7.65913,-15.75613 7.65913,-15.75613c0,0 7.13325,7.83417 15.49228,8.82079c1.63708,0.19322 0.50458,-2.61467 0.50458,-2.61467c0,0 -0.23846,-1.35017 0.14956,-2.24932c0.58108,-1.34653 2.99805,-5.04455 2.99805,-5.04455c0,0 0.78401,2.0222 2.98542,4.39836c2.65741,2.86835 7.73996,5.63867 13.00151,9.16318c5.84909,3.91808 15.66134,7.33658 18.00996,9.47912c2.55779,2.33334 3.36377,10.24588 3.36377,10.24588z"/><path d="M241.55781,229.83591c-1.46216,0 -2.17471,-0.41561 -2.17471,-1.83251c0,-1.41689 0.90166,-1.92413 2.36382,-1.92413c1.46215,0 1.9856,0.41561 1.9856,1.83251c0,1.41689 -0.71255,1.92413 -2.17471,1.92413z"/><path d="M255.36246,228.18665c0,0 1.19923,0.18325 5.29494,2.38227c3.33445,1.79029 5.48405,2.84038 5.48405,2.84038c0,0 -0.56053,1.20502 -5.9568,0.09163c-5.61702,-1.15893 -4.82218,-5.31427 -4.82218,-5.31427z"/></g><g><path d="M269.39469,240.50391c-1.7074,-1.18232 -2.05058,-3.61246 -1.68843,-5.08294c0.85922,-3.48884 3.80593,-5.57733 5.68872,-6.06188c7.97827,-2.0533 14.24839,-1.06024 14.10104,0.58148c-0.26551,2.9583 -6.05325,3.19801 -9.75722,5.77647c-1.87359,1.30427 -2.43631,2.72244 -3.55206,3.81202c-1.06518,1.04019 -2.87869,2.29981 -4.79205,0.97486z"/><path d="M268.49156,236.3565c0,-2.19175 1.91764,-3.21261 1.91764,-3.21261c0,0 0.87582,0.13299 2.42968,0.88985c2.03801,0.99269 2.7382,2.0708 2.7382,2.0708c0,0 -0.76044,0.80911 -1.4932,1.64912c-0.94373,1.08184 -1.29777,2.50839 -2.4396,2.50839c-2.02841,0 -3.15273,-1.71378 -3.15273,-3.90553z"/></g><g><path d="M277.51105,244.5946c-0.57023,-0.67497 0.68112,-4.98974 3.90002,-8.09541c7.64762,-7.37861 11.34351,-7.24363 12.78543,-4.80742c1.30465,2.20428 -4.36898,5.16323 -8.34686,9.05819c-3.55075,3.47672 -7.19821,5.19446 -8.33858,3.84463z"/><path d="M283.06211,241.95394c0,0 -3.00033,2.70574 -4.25219,2.28462c-0.77357,-0.26022 -0.20273,-3.46327 0.12673,-3.992c0.88137,-1.41448 2.23028,-1.87206 2.23028,-1.87206l3.56693,1.71715c0,0 -0.96856,1.29313 -1.67174,1.8623z"/></g><g><path d="M285.65378,248.5122c-2.88508,-1.5392 9.70948,-17.31926 14.19882,-13.88839c3.04272,2.32533 -2.88826,3.41624 -6.49878,7.64717c-3.18855,3.73643 -4.23491,8.08985 -7.70004,6.24121z"/><path d="M285.90143,247.10737c0,-1.75688 3.44036,-4.69382 3.44036,-4.69382l1.02764,1.71638c0,0 -1.20143,3.02655 -2.48561,4.01006c-1.06855,0.81834 -1.98237,0.02068 -1.98237,-1.03262z"/></g></g><g><path d="M288.5298,267.80437c-6.33614,0 -14.77679,-6.35643 -22.3666,-7.13331c-11.17507,-1.14385 -30.20994,-1.60558 -33.62685,-4.93499c-3.12579,-3.04574 -4.37291,-12.18178 0.25132,-12.82367c1.01381,6.08761 6.67904,6.60031 11.11895,6.70524c5.37359,0.127 12.77503,0.00426 18.65035,1.11775c10.40493,1.97194 16.02063,7.47787 23.95976,7.47787c13.64766,0 22.89286,-1.56129 28.06612,-3.26827c2.80914,-0.92692 3.70787,-2.35531 5.08447,-2.54981c1.80196,-0.2546 3.75537,3.94861 3.75537,3.94861c0,0 0.0197,4.19898 -4.5774,6.99732c-4.81169,2.92896 -14.58512,4.46324 -30.3155,4.46324z"/><path d="M232.49985,242.76989c0,0 -0.39684,1.6521 1.39854,3.82523c1.16955,1.41565 3.00409,3.12234 7.69047,4.21181c4.11458,0.95654 18.31249,0.1439 21.69289,1.04152c4.67681,1.24186 7.81971,3.0754 11.60167,4.68888c1.47861,0.63082 3.05492,1.52585 4.85878,1.89138c7.34125,1.48763 10.16941,1.11154 13.24117,0.97041c4.57573,-0.21025 7.33331,-0.75636 7.33331,-0.75636c0,0 1.00638,1.79547 0.45918,3.77816c-0.5472,1.98269 -2.07511,3.29992 -2.07511,3.29992c0,0 -4.63418,2.55119 -13.2027,0.17398c-4.85969,-1.34825 -5.96307,-1.67741 -15.21641,-5.67793c-4.78855,-2.07024 -28.33662,-2.33456 -32.65642,-4.05723c-1.27489,-0.50841 -3.34043,-0.59258 -4.09857,-0.99275c-2.56617,-1.35447 -1.53551,-2.65269 -2.14389,-4.62819c-1.13703,-3.69211 1.1171,-7.7688 1.1171,-7.7688z"/></g></g><g data-paper-data="{&quot;index&quot;:null}" fill="#2f3bd4" stroke="#2f3bd4" stroke-width="4" stroke-linecap="butt"><path d="M164.89226,244.06358c2.75076,-3.02799 10.94495,-7.73467 17.50114,-9.32598c-4.556,-2.56852 -10.99371,-4.39556 -11.15086,-6.28127c-0.49296,-5.91547 1.18331,-6.3128 3.31788,-7.81667c1.77845,-1.25298 16.33719,6.64249 16.33719,6.64249c0,0 1.03175,-5.01525 5.66005,-6.11374c3.97064,-0.94241 12.48984,1.85877 17.93618,3.40394c3.59836,1.02089 7.43652,2.67423 8.8389,5.54167c0.87612,1.79139 -0.86246,6.06548 0.75098,4.84672c4.09382,-3.09237 14.03179,-3.11102 16.77864,-0.95833c2.40445,1.88435 3.62076,7.03351 2.67617,9.37013c-0.3991,0.98726 -12.50011,0.18065 -12.27704,1.21226c0.44229,2.04534 -3.16119,4.68577 -2.84319,6.36184c0.84066,4.43086 2.39652,6.90116 2.39652,6.90116c0,0 1.66123,6.47939 -1.94645,9.43268c-4.63605,3.79512 -15.98042,4.27746 -29.63824,4.27746c-24.28607,0 -44.91961,-15.84623 -34.33783,-27.49437z"/><path d="M226.39359,241.61386c0,0 1.5738,-2.41601 6.8255,-3.40159c4.69922,-0.8819 8.77565,-0.75591 8.77565,-0.75591c0,0 0.39438,1.90081 0.68903,2.82632c0.32976,1.03582 -0.33342,2.69973 -0.33342,2.69973c0,0 -3.85468,0.47191 -9.06631,0.13787c-1.80248,-0.11553 -2.61874,0.40907 -3.49929,0.40787c-1.18733,-0.00163 -2.39387,-0.51322 -2.98198,-1.05203c-0.43073,-0.39462 -0.40918,-0.86226 -0.40918,-0.86226z"/><path d="M187.00069,231.2201c0,0 3.20949,-0.09278 4.61487,-1.78607c-0.23535,-3.20978 2.66917,-6.45315 4.93329,-7.06673c3.82157,-1.03568 13.95107,2.30159 13.95107,2.30159c0,0 0.46378,4.2279 0.70307,6.18922c0.27561,2.25898 0.3695,6.91322 0.3695,6.91322c0,0 -15.95757,0.38907 -19.5711,0.32388c-1.17358,-0.02117 -4.04959,0.82655 -4.04959,0.82655c0,0 -2.11341,-2.84657 -4.2907,-4.51504c-1.78268,-1.36609 -5.34411,-2.25021 -5.35462,-2.7445c-0.00447,-0.21006 -4.26376,-1.34596 -5.84963,-3.05201c-1.53615,-1.65256 -0.10946,-4.86984 0.77793,-4.7777c2.1148,0.21959 13.76588,7.38759 13.76588,7.38759z"/><path d="M176.55348,231.2797c0,0 -2.04125,-1.31935 -2.99709,-2.46332c-0.92639,-1.10875 -0.77689,-2.04184 -0.25315,-2.12614c2.97534,-0.4789 4.85711,2.28423 5.59504,3.96909c0.26521,0.60555 0.39469,1.83523 0.39469,1.83523c0,0 -1.31258,-1.21485 -2.73949,-1.21485z"/><path d="M234.1756,240.77358c0.09285,-0.87652 0.86052,-0.76491 3.29667,-0.76491c3.0862,0 3.85386,0.24836 3.85386,2.4747c0,1.63801 -2.3882,0.52779 -4.35011,-0.07578c-1.65086,-0.50787 -2.94568,-0.26291 -2.80041,-1.63402z"/><path d="M166.58916,244.70049c0,0 0.17503,4.78147 0.63003,6.27906c0.4268,1.40477 2.02076,4.08371 2.02076,4.08371c0,0 0.90913,-1.47149 1.83901,-2.63207c0.42742,-0.53347 0.34652,-1.19999 1.09738,-1.27358c5.00367,-0.49038 15.73555,2.26974 24.44505,3.18073c26.49848,2.77167 30.55226,13.03945 30.55226,13.03945c0,0 -6.65397,4.59845 -31.33232,3.3386c-7.63954,-0.39001 -16.3204,-1.62688 -22.65867,-4.71617c-6.09485,-2.97063 -8.5455,-5.322 -10.71452,-11.59015c-1.20053,-3.46937 1.04806,-7.22469 2.6549,-8.93366c0.685,-0.72853 1.46613,-0.77592 1.46613,-0.77592z"/><g><path d="M154.90898,249.67523c-0.06916,-0.54518 7.65698,-4.45517 7.65698,-4.45517c0,0 -2.11079,5.06123 0.23847,10.55133c2.70049,6.31094 10.98651,13.27383 30.01262,15.18867c10.56433,1.06323 30.33311,0.54507 36.82743,-4.93059c1.98898,-1.67701 3.2386,-4.91993 2.42195,-7.4766c-1.02696,-3.21509 -2.45075,-5.12287 -0.92591,-5.47627c2.37546,-0.55053 5.05868,5.62208 5.05868,9.06452c0,4.07129 -1.1215,7.32069 -4.14846,10.23298c-6.74759,6.492 -20.10667,7.86907 -36.9072,7.86907c-14.97446,0 -39.55559,-14.28849 -40.13062,-15.8361c-0.18577,-0.49999 0.53284,-9.71188 -0.10394,-14.73183z"/><path d="M156.12743,256.63132c0,0 7.11173,16.55945 33.67883,19.63336c41.26217,4.77417 44.61384,-9.15049 44.61384,-9.15049c0,0 -1.01849,3.45346 -6.69857,6.96426c-5.32676,3.29243 -14.68529,7.25114 -36.81359,4.67941c-10.76816,-1.25145 -19.83619,-5.64828 -25.71725,-9.15204c-5.61333,-3.34425 -9.11406,-5.8632 -9.11406,-5.8632z"/></g><g><g><path d="M183.64348,240.92537c-0.02718,-0.53599 6.03512,-5.06168 17.11315,-4.69509c17.91637,0.59287 22.9728,11.12352 22.41551,12.40241c-1.12165,2.57397 -9.18969,-5.68013 -23.33322,-6.86588c-11.04323,-0.92583 -16.11912,0.66391 -16.19544,-0.84145z"/><path d="M189.20959,240.35153l-1.31177,-1.38337c0,0 5.08384,-2.33569 7.92174,-2.30241c9.11009,0.10685 13.37583,1.90717 13.37583,1.90717l-2.54921,3.45841z"/></g><g><path d="M178.08123,246.28943c-0.21325,-0.28537 -0.60485,-1.82158 3.06471,-2.89678c3.09759,-0.90762 9.7631,-1.40152 15.03467,-1.40152c11.51653,0 25.12074,7.15908 24.21748,11.01752c-0.50984,2.17787 -10.96748,-4.00188 -22.48401,-4.00188c-11.51653,0 -19.20101,-1.87184 -19.83284,-2.71733z"/><path d="M201.52014,248.17607c0,0 -3.77478,-0.25143 -5.03234,-0.29134c-1.2407,-0.03937 -2.9039,0.22436 -2.9039,0.22436l-2.62699,-5.11142c0,0 5.33494,-0.3348 7.70104,0.01239c4.62156,0.67815 5.87975,1.10971 5.87975,1.10971l-3.01757,4.0563z"/></g><path d="M174.10445,250.78537c0,-0.68508 0.30626,-2.91142 3.49458,-3.08786c3.9304,-0.2175 11.24178,1.11164 18.37763,1.11164c7.01826,0 14.22609,1.93185 18.32299,4.01494c3.44771,1.75301 4.36497,3.55545 4.36497,4.97693c0,3.11061 -12.31275,-4.74296 -25.23717,-4.74296c-12.92441,0 -19.32299,-0.05136 -19.32299,-2.27268z"/></g></g><g data-paper-data="{&quot;index&quot;:null}" fill="#2f3bd4" stroke="#2f3bd4" stroke-width="4" stroke-linecap="butt"><path d="M180.37236,216.97793c0,-4.98364 2.62324,-7.87168 5.80386,-7.85896c1.77935,0.00712 2.81916,2.77398 5.88423,2.10668c3.73067,-0.81221 6.6989,-5.9318 9.96002,-6.14305c3.61825,-0.2344 8.82856,7.20751 8.82856,7.20751c0,0 -1.3061,7.30075 -3.43185,13.28647c-2.23571,6.29533 -5.48612,11.16811 -8.42019,10.91436c-3.14292,-0.27183 -18.62463,-8.34794 -18.62463,-19.51303z"/><path d="M208.76174,220.36284c0,0 -1.41119,3.67722 -1.99584,5.66813c-1.28653,4.38104 -4.36682,10.38674 -8.1317,10.22558c-2.17853,-0.09325 -6.20624,-2.76428 -10.6953,-7.17006c-3.02151,-2.96545 -7.05053,-6.73971 -7.8537,-10.95645c-0.20581,-1.08052 1.73846,-2.54069 1.73846,-3.67183c8.70763,8.05397 13.18228,14.94851 14.63364,14.64941z"/><path d="M212.0584,213.63783c0,0 -7.09477,-7.5788 -9.31231,-8.08648c-0.46059,-0.10544 -7.25131,5.1668 -10.35478,6.41872c-0.54499,0.21984 -2.10183,0.29043 -3.37051,-0.26614c-1.08721,-0.47696 -1.83427,-1.5079 -2.99944,-2.24784c-0.82265,0.33955 -5.56161,7.85856 -5.56161,7.85856c0,0 10.56065,17.93361 17.70608,18.39847c1.83864,0.11962 4.64554,-2.03228 6.32618,-5.35095c1.28004,-2.52765 2.38453,-5.95644 3.39245,-8.29744c0.92043,-2.1378 1.80296,-3.30647 1.80296,-3.30647c0,0 -0.74551,4.30729 -2.02312,8.84711c-1.41095,5.01366 -5.4229,10.88951 -9.95191,9.96447c-1.05718,-0.21593 -4.98715,-1.86232 -7.71277,-4.42627c-5.82697,-5.48137 -11.76295,-14.31952 -11.83835,-16.45352c-0.03886,-1.10016 2.00335,-3.46087 2.89725,-4.71007c1.20367,-1.68211 2.56361,-3.89122 5.38668,-4.49803c1.49832,-0.32206 3.50215,2.49957 4.99797,2.09532c4.72222,-1.27617 9.32375,-7.19017 12.02856,-6.83858c2.70482,0.35158 8.58668,10.89916 8.58668,10.89916z"/></g><g data-paper-data="{&quot;index&quot;:null}" stroke="#000000"><path d="M201.11477,188.39552l-5.60974,-11.27716c0,0 2.30805,-2.32561 4.2088,-2.7143c1.76575,-0.36108 3.5878,2.05645 3.5878,2.05645l3.23273,11.74705z" fill="#ffffff" stroke-width="3.5" stroke-linecap="butt"/><path d="M202.96735,188.36052l0.12169,-4.08968l-2.19055,-3.1274l1.46037,-4.69111" fill="none" stroke-width="1.5" stroke-linecap="round"/><path d="M200.8985,180.90287l-3.28584,-0.24057" fill="none" stroke-width="1.5" stroke-linecap="round"/></g><path d="M330.27589,181.45186c0,4.10051 -1.15479,6.94052 -3.96216,8.63942c-2.45787,1.4874 -6.42449,1.89508 -8.76963,4.23811c-1.7877,1.78609 -2.58885,4.18652 -3.48264,7.75889c-9.77279,0 -6.7375,-4.64763 -6.7375,-15.07483c-10.80961,-6.62191 -0.66634,-21.36822 -0.66634,-21.36822c0,0 2.26216,9.75533 5.50267,13.62704c2.79412,3.33835 18.11561,-2.64835 18.11561,2.17958z" data-paper-data="{&quot;index&quot;:null}" fill="#ffffff" stroke="#000000" stroke-width="3.5" stroke-linecap="butt"/><path d="M273.70066,204.63545l0.87412,-5.801l3.74627,-0.4937v6.29471z" data-paper-data="{&quot;index&quot;:null}" fill="#ffffff" stroke="#000000" stroke-width="3.5" stroke-linecap="butt"/><g data-paper-data="{&quot;index&quot;:null}" stroke="#000000"><path d="M256.84244,200.80928l1.24876,-7.15869l13.11194,4.8136l-0.4995,6.29469z" fill="#ffffff" stroke-width="3.5" stroke-linecap="butt"/><path d="M263.59434,201.69551l2.37581,-4.39015" fill="none" stroke-width="1.5" stroke-linecap="round"/><path d="M263.69765,199.75567l-2.78898,-3.77757" fill="none" stroke-width="1.5" stroke-linecap="round"/></g><g data-paper-data="{&quot;index&quot;:null}" stroke="#000000"><path d="M288.1862,207.59768c0,0 -2.46078,0.20045 -3.22487,-0.06224c-1.05511,-0.36274 -2.51941,-1.91258 -2.51941,-1.91258l8.36666,-20.73552c0,0 3.20139,1.46839 4.76485,2.36633c1.51532,0.8703 4.47595,2.94098 4.47595,2.94098c0,0 -1.98809,5.58269 -3.53865,7.83155c-2.10614,3.05465 -8.32453,9.57146 -8.32453,9.57146z" fill="#ffffff" stroke-width="3.5" stroke-linecap="butt"/><path d="M294.47978,187.19781l-1.44614,3.77757l-2.16921,5.00273l0.72307,2.8587l-3.71866,4.69644l-2.89228,-2.04194" fill="none" stroke-width="1.5" stroke-linecap="round"/></g><g data-paper-data="{&quot;index&quot;:null}"><path d="M253.01988,215.90414c-2.96121,2.10396 -10.06817,-3.88055 -12.91787,-4.13806c-2.22587,-0.20113 -3.21306,6.91425 -5.65176,6.81947c-12.19277,-0.47383 -22.34717,-11.11123 -22.34717,-11.11123l1.01187,-7.96099c0,0 -0.17805,-3.70647 -0.89045,-6.56204c-0.38007,-1.52343 -4.1415,0.40936 -4.7333,-2.34297c-0.31708,-1.47464 1.39307,-1.52717 1.3718,-3.40583c-0.04796,-4.23862 -1.83404,-10.56634 -1.83404,-10.56634c0,0 8.94133,1.47235 17.26412,2.05331c10.50468,0.73326 21.11243,0.80589 23.6527,3.1753c0.92804,0.86561 0.25876,7.84619 0.25876,7.84619c0,0 4.47309,1.91384 5.4278,4.33763c0.54712,1.38902 -0.96819,6.93526 -0.96819,6.93526c0,0 14.90214,4.58499 0.35573,14.92027z" fill="#ffffff" stroke="#000000" stroke-width="3.5" stroke-linecap="butt"/><path d="M248.98774,194.85208c0.09487,5.15676 -12.65008,12.44339 -13.42333,4.80065c-0.42235,-4.1744 3.07825,-5.17352 6.55415,-5.93408c0.47856,-0.10471 0.86803,-1.03394 1.41474,-1.22692c0.89609,-0.31632 2.0971,-0.09062 3.17201,0.41643c0.95188,0.0733 1.74731,0.69756 2.06014,1.55043c0.08877,0.11139 0.16835,0.22441 0.2375,0.33833z" fill="#000000" stroke="none" stroke-width="0.5" stroke-linecap="butt"/><path d="M252.04544,203.39105c0.27321,0.15431 0.44203,1.63973 0.50095,2.11286c0.45615,3.66227 -3.43107,6.05318 -6.59393,6.63103c-2.30738,0.42155 -3.28458,-3.34002 -2.25475,-4.78626c0.6299,-0.88459 1.2694,-1.86323 2.17154,-2.51418c0.7189,-0.51873 1.35735,-0.96048 2.01967,-1.3821c0.64409,-0.41001 1.31077,-0.80098 2.09597,-1.22516z" fill="#000000" stroke="none" stroke-width="0.5" stroke-linecap="butt"/><path d="M214.01527,192.49205c3.44162,-0.85041 13.70257,1.01315 17.40814,4.66754c0.75788,0.39639 1.27427,1.18366 1.27427,2.09017c0,1.30515 -1.07047,2.3632 -2.39096,2.3632c-0.96993,0 -1.80497,-0.57084 -2.17998,-1.39115c-0.20587,-0.08204 -0.41215,-0.09144 -0.62206,0.0218c-1.15883,0.62515 -2.65944,0.78591 -3.9346,0.44798c-1.72151,-0.45621 -2.98477,-0.9521 -4.53769,-1.9131c-0.21467,-0.13285 -5.51327,-2.02709 -5.60884,-2.19241c-0.65203,-1.12779 -1.55133,-3.56451 0.59174,-4.09405z" fill="#000000" stroke="none" stroke-width="0.5" stroke-linecap="butt"/><path d="M230.39037,210.29606c-0.70261,0.46297 -2.80702,-1.09855 -3.48506,-1.47799c-3.22673,-1.80571 -8.07366,-2.05332 -8.78665,-6.40976c-0.36386,-2.22323 3.67873,-1.35556 4.62243,-1.06706c2.2677,0.69329 6.21802,2.30727 8.41486,4.41929c0.7064,0.67912 1.2315,1.40975 1.46104,2.1778z" fill="#000000" stroke="none" stroke-width="0.5" stroke-linecap="butt"/><path d="M241.04283,185.02788c3.34507,-2.8339 7.12144,1.26976 4.20749,4.13904c-0.6104,0.60105 -9.33342,8.17213 -9.12654,1.90152c0.06909,-2.09413 3.1845,-4.45644 4.58949,-5.84511z" fill="#000000" stroke="none" stroke-width="0.5" stroke-linecap="butt"/><path d="M232.14221,191.52086l-1.87314,6.17128" fill="none" stroke="#000000" stroke-width="1.5" stroke-linecap="round"/><path d="M224.64965,190.16318v3.82619" fill="none" stroke="#000000" stroke-width="1.5" stroke-linecap="round"/><path d="M246.25312,205.0977l-2.74727,-1.23426v-3.33248" fill="none" stroke="#000000" stroke-width="1.5" stroke-linecap="round"/><path d="M224.52476,212.62665l0.12488,-6.29471" fill="none" stroke="#000000" stroke-width="1.5" stroke-linecap="round"/><path d="M224.02526,208.80045l-3.62139,2.96222" fill="none" stroke="#000000" stroke-width="1.5" stroke-linecap="round"/><path d="M237.35297,226.54791l-11.94951,-1.66137l-2.0372,-9.20476c0,0 5.39288,2.67339 9.78619,1.76625c3.07639,-0.63521 5.11876,-4.9808 6.79925,-4.87971c2.34303,0.14097 5.72667,4.45583 5.72667,4.45583l3.49233,3.73942z" fill="#ffffff" stroke="#000000" stroke-width="3.5" stroke-linecap="butt"/><path d="M245.74307,220.35875c-0.71174,2.11048 -2.93606,1.7891 -4.50759,0.8871c-0.4286,-0.16195 -0.79799,-0.44231 -1.0672,-0.80059c-0.51393,-0.51522 -0.74912,-1.0515 -0.47019,-1.40759c0,-1.30515 1.07047,-2.3632 2.39095,-2.3632c0.20698,0 0.4078,0.02599 0.59936,0.07486c2.27269,-0.61263 3.83527,1.29478 3.05467,3.6094z" fill="#000000" stroke="none" stroke-width="0.5" stroke-linecap="butt"/><path d="M227.46004,222.74086c0.20384,-1.80661 1.22057,-2.45024 2.36981,-2.39582c0.30584,-0.14042 0.64673,-0.2188 1.00615,-0.2188c1.32048,0 2.39095,1.05806 2.39095,2.36321c0,0.78016 -0.38247,1.47202 -0.97221,1.90239c-1.24901,1.93995 -5.0728,0.81379 -4.79471,-1.65095z" fill="#000000" stroke="none" stroke-width="0.5" stroke-linecap="butt"/></g><path d="M214.74911,184.12013c0.07774,-0.06102 0.24227,-0.07697 0.45982,-0.06237c-0.03147,0.06099 -0.05122,0.13751 -0.05122,0.23356c0,0.47264 0.47818,0.47265 0.47818,0.47265l0.82001,-0.00609c2.2303,0.7348 4.66608,1.05066 6.98408,1.61667c0.82692,0.20192 2.01913,0.03264 2.68999,0.52553c0,0 0.24421,0.1609 0.47752,0.04152c0.00172,0.00027 0.00343,0.00057 0.00516,0.00083c0.54958,0.27008 1.05208,0.57626 1.48301,0.92568c0.85422,0.36048 1.45292,1.19834 1.45292,2.17439c0,1.30515 -1.07047,2.36321 -2.39096,2.36321c-0.05932,0 -0.11813,-0.00214 -0.17635,-0.00634c-2.20269,-0.09868 -4.15276,-0.91979 -6.27418,-1.80857c-1.74235,-0.72998 -3.61345,-1.15296 -5.43783,-1.60376c-3.04805,-0.75318 -2.56639,-3.26086 -0.52016,-4.86694z" data-paper-data="{&quot;index&quot;:null}" fill="#000000" stroke="none" stroke-width="0.5" stroke-linecap="butt"/><path d="M262.18686,104.872c10.89285,20.84786 0.71454,56.87484 0.71454,56.87484c0,0 17.48951,0.77531 13.88878,11.47035c-3.06893,9.11544 -34.16413,3.34182 -55.56261,-0.71631c-29.50702,-5.59588 -45.57433,-14.03778 -45.57433,-39.36381c0,-25.32603 18.19924,-41.50948 48.2431,-41.7987c14.56042,-0.14017 32.54336,2.53407 38.29054,13.53361z" data-paper-data="{&quot;index&quot;:null}" fill="#ffffff" stroke="#000000" stroke-width="3.5" stroke-linecap="butt"/><path d="M214.94185,174.74132l-0.18074,-0.15313l-0.42637,-0.3424l-0.03998,-0.05268l-0.05214,-0.04418l-0.00148,-0.0265l-0.26244,-0.34585l-0.01253,-0.02943l-0.07957,-0.06742l-0.00772,-0.13751l-0.37835,-0.88815l0.29104,-0.66521l-0.03863,-0.68705l0.47661,-0.31406l0.22735,-0.51966l0.47578,-0.05877l0.00067,-0.00116l0.28128,-0.0695l0.54319,-0.35792l0.60109,0.13203h0.83803l0.9494,0.23461h2.57357l0.02234,-0.01474l0.06703,0.01474h0.06662l0.53298,0.13169l0.37475,0.08232l0.32308,0.02456l0.90689,0.29878l1.12097,0.20145l1.40679,0.23174l0.14844,0.06379l0.16164,0.00856l3.08561,0.93838l0.02446,0.0146l0.02849,0.00217l0.98099,0.3232l0.80514,0.19894l1.09318,0.2161l0.67404,0.11104l0.26428,0.11357l0.2845,0.04535l0.46693,0.1978l2.67385,0.20329l1.8817,0.11624l0.18036,0.05659l0.18915,-0.00492l0.8119,0.17833h0.4496l0.23103,0.05708l0.23786,-0.01119l0.50773,0.10037l0.86274,0.1066l0.08321,0.03183l0.08913,-0.0042l0.59339,0.11731l0.28861,0.13513l0.06642,0.01458l0.04741,-0.01278l0.06213,0.03685l0.1358,0.02983l0.23737,0.11731l0.18815,0.15939l0.08779,0.04111l0.0157,0.04659l0.00017,0.00015l0.32958,0.19545l0.47471,0.4692l0.24269,0.39977l0.15874,0.08966l0.0745,0.29459l0.15807,0.26038l-0.0481,0.17434l0.1144,0.4523v2.58058l-0.07138,0.28224v0.29092l-0.04729,0.18696v0.17827l-0.09322,0.36855l-0.02948,0.37876l-0.11868,0.35189l-0.66157,1.02755l-0.27305,0.05397l-0.13815,0.23896l-1.19549,0.2954h-4.78657l-2.64183,0.4352l-1.93985,0.33836l-1.95184,0.45392l-0.12991,-0.00179l-0.12115,0.04635l-3.79767,0.46921l-0.14184,-0.017c0.00115,-0.01337 0.00175,-0.02692 0.00175,-0.04059c0,-0.26103 -0.2141,-0.47264 -0.47819,-0.47264c-0.05795,0 -0.1135,0.01018 -0.1649,0.02885c-1.78333,-1.0265 -4.4886,-1.23877 -6.9309,-1.58572l-0.00321,-0.00183l-0.00238,-0.00956l-0.51612,-0.42509l-0.25096,-0.33944l-0.29431,-0.30353l-0.4747,-0.8211l-0.0184,-0.06464l-0.04422,-0.05098l-0.40814,-0.80679l-0.15479,-0.22948l-0.08412,-0.2328l-0.14643,-0.2004l-0.16621,-0.41068l-0.22818,-0.3759l-0.2058,-0.3051l-0.15625,-0.43244l-0.19889,-0.41497l-0.05587,-0.27617l-0.21284,-0.42073l-0.05712,-0.25406l-0.12391,-0.22964l-0.31667,-1.252l-0.17709,-0.43758z" data-paper-data="{&quot;index&quot;:null}" fill="#000000" stroke="none" stroke-width="0.5" stroke-linecap="butt"/><path d="M241.80852,138.54983l0.31517,-0.07788h2.73001l0.45542,0.11254l0.46418,0.06925l1.21334,0.49968l0.18706,0.13759l0.21961,0.07751l0.78615,0.51802l0.06908,0.03414l0.93561,0.79266l0.00563,0.10026l0.7362,0.33957l3.14838,1.16694l0.03391,0.02312l0.04076,0.00598l2.93224,1.19925l0.03949,0.02889l0.04828,0.00904l1.31445,0.59963l0.19819,0.15756l0.23443,0.09757l0.8089,0.59962l0.02418,0.02941l0.03487,0.01579l0.93649,0.7405l0.033,0.00374l0.3939,0.51226l0.39452,0.5118l-0.00515,0.03243l0.25273,0.58287l0.59288,1.26967l0.03307,0.17228l0.08984,0.15123l1.01112,3.39788l0.00207,0.04973l0.0237,0.04392l0.30334,1.19925v0.22227l0.06726,0.2121l0.10111,1.69894l-0.01331,0.06983l0.01742,0.06894v1.79888l-0.06386,0.25249l0.00693,0.26017l-0.20223,0.89944l-0.03263,0.06449l-0.00243,0.07206l-0.20223,0.69957l-0.11186,0.19164l-0.04856,0.21599l-0.20224,0.39975l-0.16554,0.19088l-0.10598,0.22854l-0.40445,0.49969l-0.10709,0.08065l-0.06927,0.11411l-0.91002,0.89943l-0.14758,0.08751l-0.10851,0.13202l-0.35543,0.26347l-0.5596,0.46092l-0.05652,0.02696l-0.03956,0.04813l-0.40445,0.29982l-0.35422,0.14742l-0.32427,0.20395l-1.21333,0.39975l-0.11538,0.00877l-0.10308,0.05199l-1.31444,0.29981l-0.27287,-0.00491l-0.26476,0.06542h-4.95447l-0.43931,-0.10856l-0.44867,-0.06047l-0.23944,-0.09467l-0.42405,-0.05987l-0.26563,-0.10697l-0.28422,-0.03831l-1.01113,-0.39975l-0.2245,-0.16027l-0.25862,-0.09791l-0.94223,-0.6519l-0.93902,-0.55687l-0.08875,-0.08772l-0.11568,-0.04814l-1.21334,-0.89943l-0.10852,-0.13201l-0.14758,-0.08751l-2.73001,-2.69832l-0.0747,-0.12304l-0.1147,-0.08796l-1.11224,-1.39913l-0.0389,-0.08589l-0.07044,-0.0633l-1.41556,-2.09869l-0.0069,-0.01908l-0.01493,-0.01387l-0.91,-1.39913l-0.07752,-0.22634l-0.13965,-0.19505l-0.70779,-1.79888l-0.00756,-0.05902l-0.03231,-0.05019l-0.70779,-2.09869l-0.00476,-0.06131l-0.03069,-0.05349l-0.50556,-1.79888l-0.00235,-0.08877l-0.03845,-0.08026l-0.10111,-0.49969l0.01132,-0.2351l-0.05776,-0.22836v-0.39976l0.04847,-0.19162l-0.01594,-0.19689l0.10111,-0.59963l0.12116,-0.27544l0.05239,-0.29584l0.40444,-0.89944l0.12642,-0.15993l0.06907,-0.19113l0.60667,-0.89944l0.17621,-0.15834l0.12252,-0.20183l1.11224,-1.09931l0.26815,-0.15903l0.22455,-0.21511l1.92112,-1.09932l0.29292,-0.0832l0.26511,-0.14862l1.82,-0.49968z" data-paper-data="{&quot;index&quot;:null}" fill="#000000" stroke="none" stroke-width="0.5" stroke-linecap="butt"/><path d="M223.41807,136.77291l0.23103,0.05707l0.23787,-0.01119l0.50555,0.09993l0.2035,0.09528l0.11475,0.02835l0.13933,-0.05135l0.37287,0.1779l0.40168,0.09926l0.07377,0.12761l0.2614,0.12472l0.60667,0.49969l0.06522,0.08821l0.09479,0.05621l0.59747,0.59054l0.02634,0.00521l0.03687,0.05727l0.04711,0.04656l0.28265,0.46561l0.29495,0.45811l0.02106,0.06246l0.03533,0.0582l-0.00673,0.02435l0.04795,0.09478l0.65165,0.93036l0.00472,0.00094l0.03688,0.05728l0.04711,0.04656l0.28265,0.46562l0.29495,0.45811l0.02107,0.06246l0.03532,0.0582l-0.00707,0.0256l0.05179,0.15354l0.00408,0.05249l0.02661,0.0456l0.18795,0.65019l0.25546,0.75748l0.26416,0.60921l0.03081,0.18893l0.0911,0.16883l0.07885,0.31171l0.07207,0.21371l0.0072,0.09239l0.04412,0.08177l0.10111,0.39975v0.29092l0.07138,0.28224v1.599l-0.05776,0.22836l0.00189,0.03925l0.08559,0.15862l0.30334,1.19925v0.1449l0.05292,0.13514l0.01918,0.1516l0.10487,0.05923l0.07452,0.29458l0.15806,0.26038l-0.0481,0.17433l0.02521,0.09968l0.0676,0.10501l0.1011,0.29981l0.09451,1.21438l-0.8818,0.97413v0.45762l-0.07745,0.30623l-0.0068,0.31557l-0.30333,1.09932l-0.18805,0.33131l-0.12928,0.35775l-0.40445,0.59963l-0.1762,0.15834l-0.12253,0.20183l-1.01113,0.99938l-0.28597,0.16959l-0.24354,0.22518l-0.87518,0.48056l-0.36563,0.21682l-0.30577,0.22667l-0.06262,0.02607l-0.0457,0.04968l-0.30334,0.19988l-0.07925,0.02798l-0.06077,0.05755l-0.6857,0.38728l-0.48374,0.28687l-0.35861,0.10787l-0.33391,0.16839l-1.31443,0.29982l-0.01931,-0.00034l-0.01733,0.0084l-1.39721,0.29592l-1.29616,0.29564l-0.1883,-0.00339l-0.17899,0.0579l-1.40144,0.09894l-1.12922,0.093l-0.63822,0.09012l-0.17118,-0.0175l-0.16696,0.04126h-0.76115l-0.66119,0.08168l-0.14999,-0.01796l-0.14658,0.03622h-0.40444l-0.28555,-0.07056h-0.29433l-0.40445,-0.09993l-0.14513,-0.07651l-0.16296,-0.02197l-0.9459,-0.37397l-1.14668,-0.3778l-0.10773,-0.06775l-0.12558,-0.0228l-1.11223,-0.49969l-0.03555,-0.02793l-0.04433,-0.00974l-1.41557,-0.69956l-0.2612,-0.2213l-0.30092,-0.16479l-1.50522,-1.38855l-1.10062,-0.98896l-0.03234,-0.04795l-0.04999,-0.02964l-0.20749,-0.20508l-0.00476,-0.00065l-0.01065,-0.01458l-0.18155,-0.17944l-0.24757,-0.40781l-0.28173,-0.38556l-0.09535,-0.23561l-0.00937,-0.01542l0.00126,-0.00459l-0.09877,-0.24407l-0.02223,-0.16108l-0.07739,-0.14344l-0.30334,-1.19925v-0.37357l-0.06532,-0.36797l0.10111,-1.39913l0.06114,-0.18468l-0.00221,-0.19431l0.50556,-2.09869l0.0928,-0.17672l0.03114,-0.19672l1.11223,-2.59839l0.04664,-0.06123l0.01681,-0.07482l0.40445,-0.7995l0.14144,-0.1631l0.08433,-0.19797l0.24825,-0.32716l0.65848,-1.02274l0.06801,-0.06378l0.03638,-0.0854l0.60668,-0.7995l0.0618,-0.04964l0.03562,-0.0704l0.59361,-0.68451l0.09275,-0.18987l0.50555,-0.59963l0.08925,-0.06447l0.05688,-0.0937l1.21333,-1.19925l0.07471,-0.04431l0.05004,-0.07051l1.51667,-1.29918l0.20386,-0.10212l0.16411,-0.15721l1.67228,-0.95693l0.00105,-0.00248l0.00994,-0.00379l0.23784,-0.13609l0.45748,-0.12994l0.44392,-0.16985l0.27271,-0.03369l0.01024,-0.00291l0.00235,0.00135l0.52359,-0.06468l0.15,0.01796l0.14657,-0.03622h1.41556l0.14658,0.03622l0.14999,-0.01796l1.40735,0.17388l1.70934,-0.08892l0.0632,0.01216l0.06246,-0.01544z" data-paper-data="{&quot;index&quot;:null}" fill="#000000" stroke="none" stroke-width="0.5" stroke-linecap="butt"/><g data-paper-data="{&quot;index&quot;:null}" fill="#ffffff" stroke="#000000" stroke-width="1.5" stroke-linecap="butt"><path d="M242.49667,176.04585c0,0 0.59929,-4.01921 2.29382,-6.26557c0.73338,-0.97224 1.98386,-2.29065 2.96174,-1.68114c3.34972,2.08787 1.65324,5.51878 1.65324,5.51878l-1.76559,3.41429z"/><path d="M242.26639,174.45251c0,0 -1.98214,0.47697 -2.95072,0.3679c-1.0468,-0.11787 -3.11369,-1.05075 -3.11369,-1.05075l3.30087,-7.51144c0,0 1.73503,-0.78013 2.3535,-0.30617c1.33716,1.02475 1.02413,2.43063 1.02413,2.43063l-0.61412,6.06985z"/><path d="M229.75377,173.08681c0,0 0.52334,-2.99395 1.33645,-4.10064c0.6849,-0.93222 1.98786,-2.5762 1.98786,-2.5762h2.50979v7.28382z"/><path d="M226.92908,174.01713c-1.65412,0 -3.1852,-0.75719 -3.1852,-3.43015c0,-2.67293 0.96061,-4.93376 2.61471,-4.93376c1.65411,0 2.99504,1.32106 2.99504,3.994c0,2.67293 -0.77041,4.36991 -2.42454,4.36991z"/><path d="M220.13086,173.4533c-1.31279,0 -2.85241,-1.11069 -2.85241,-3.52412c0,-2.41343 1.44455,-4.74581 2.75732,-4.74581c1.31278,0 2.37701,1.95646 2.37701,4.3699c0,2.41343 -0.96914,3.90003 -2.28192,3.90003z"/><g><path d="M240.67999,185.57713l-0.93441,-5.4574h5.35162c0,0 -0.25485,3.22023 -0.25485,4.03008c0,0.32075 0.25485,0.92356 0.25485,0.92356z"/><path d="M236.68753,186.66862l0.08494,-5.45741h2.97311l-0.16989,5.70928z"/><path d="M236.60255,187.17238c0,0 -1.76919,0.25973 -2.54201,0.18628c-0.69024,-0.0656 -1.87519,-0.6061 -1.87519,-0.6061l-1.18925,-5.54136h5.60646v5.96117z"/><path d="M226.82187,185.47387c0.01673,-0.04814 0.0258,-0.0998 0.0258,-0.15355c0,-0.21566 -0.14616,-0.39759 -0.34589,-0.45431l-0.60244,-4.24252h5.09679v5.96116z"/><path d="M222.07679,183.3102l-1.69892,-3.35839h5.09679l0.33978,4.36592z"/></g></g><path d="M261.85649,107.63519l-4.59614,9.22751v21.01032l-8.04323,5.53651" data-paper-data="{&quot;index&quot;:null}" fill="none" stroke="#000000" stroke-width="1.5" stroke-linecap="round"/><path d="M257.26034,116.43683l-1.43629,-16.75147" data-paper-data="{&quot;index&quot;:null}" fill="none" stroke="#000000" stroke-width="1.5" stroke-linecap="round"/><path d="M208.71368,158.59943l-4.4525,9.36948" data-paper-data="{&quot;index&quot;:null}" fill="none" stroke="#000000" stroke-width="1.5" stroke-linecap="round"/><path d="M205.12292,155.90217l0.4309,8.51769" data-paper-data="{&quot;index&quot;:null}" fill="none" stroke="#000000" stroke-width="1.5" stroke-linecap="round"/><path d="M213.74071,159.73514l-1.14903,9.93732" data-paper-data="{&quot;index&quot;:null}" fill="none" stroke="#000000" stroke-width="1.5" stroke-linecap="round"/><path d="M192.48355,161.86455l-1.29267,-3.26512l2.87259,-4.96865" data-paper-data="{&quot;index&quot;:null}" fill="none" stroke="#000000" stroke-width="1.5" stroke-linecap="round"/><path d="M191.19089,158.31551l-3.73436,0.28392" data-paper-data="{&quot;index&quot;:null}" fill="none" stroke="#000000" stroke-width="1.5" stroke-linecap="round"/><path d="M262.431,163.42611l6.31969,2.9812" data-paper-data="{&quot;index&quot;:null}" fill="none" stroke="#000000" stroke-width="1.5" stroke-linecap="round"/><path d="M266.16537,164.98771l1.29266,-1.56158" data-paper-data="{&quot;index&quot;:null}" fill="none" stroke="#000000" stroke-width="1.5" stroke-linecap="round"/><path d="M263.14916,173.5054l-1.14903,2.69728" data-paper-data="{&quot;index&quot;:null}" fill="none" stroke="#000000" stroke-width="1.5" stroke-linecap="round"/><path d="M316.2615,255.72523c1.05561,1.0417 0.9525,3.01467 -0.23029,4.40679c-1.18278,1.3921 -2.99737,1.67618 -4.05297,0.63449c-1.05561,-1.04169 -0.9525,-3.01468 0.23029,-4.4068c1.18279,-1.39211 2.99738,-1.67618 4.05298,-0.63449z" data-paper-data="{&quot;index&quot;:null}" fill="#ffffff" stroke="#000000" stroke-width="3.5" stroke-linecap="butt"/><path d="M304.17643,258.00613c0,0 1.57125,-2.76021 1.96301,-4.30908c0.38416,-1.51879 0.36521,-4.89567 0.36521,-4.89567c0,0 1.66442,-1.30356 4.3649,0.32259c3.64922,2.19747 3.0078,5.04685 3.0078,5.04685l-4.17139,5.0818z" data-paper-data="{&quot;index&quot;:null}" fill="#ffffff" stroke="#000000" stroke-width="3.5" stroke-linecap="butt"/><path d="M295.83366,245.15785c5.46483,0 9.89494,3.69183 9.89494,8.24593c0,4.5541 -2.32823,6.23238 -2.32823,6.23238c0,0 -11.12675,0.0198 -14.06205,-1.96154c-2.00132,-1.35089 -1.84746,-8.77735 -1.84746,-8.77735c0,0 2.87796,-3.73944 8.34279,-3.73944z" data-paper-data="{&quot;index&quot;:null}" fill="#ffffff" stroke="#000000" stroke-width="3.5" stroke-linecap="butt"/><path d="M239.93027,236.73017c2.05066,-0.71459 7.73057,-6.44458 7.73057,-6.44458l9.1908,-0.22289c0,0 -1.16003,3.7444 -0.407,3.7444c3.91472,0 4.55858,2.45982 6.30842,3.85779c2.29923,1.83686 4.66628,2.73322 4.66628,2.73322c0,0 3.23369,-0.54122 6.9943,0.00555c5.62199,0.81742 12.5397,3.01583 12.5397,4.65229c0,0.60426 0.30779,5.06878 0.16175,5.64047c-1.55733,6.09663 -11.60184,6.36462 -25.12343,6.36462c-0.61323,-1.17712 -2.90935,-3.33531 -6.13775,-3.87075c-4.19589,-0.69589 -9.63702,0.37213 -11.61949,-0.14115c-4.59803,-1.19047 -11.5868,-1.14184 -13.86651,-3.59542c-2.66161,-2.8646 -0.22389,-8.1789 -0.22389,-8.1789c0,0 3.77808,-2.45101 9.78625,-4.54466z" data-paper-data="{&quot;index&quot;:null}" fill="#ffffff" stroke="#000000" stroke-width="3.5" stroke-linecap="butt"/><path d="M257.20973,233.52352c0,0 -4.59109,2.95771 -7.95866,3.81819c-8.5297,2.17948 -13.56002,1.09727 -13.56002,1.09727" data-paper-data="{&quot;index&quot;:null}" fill="none" stroke="#000000" stroke-width="3.5" stroke-linecap="round"/><path d="M300.97513,257.19115c-0.90237,3.89732 -3.57004,2.15737 -9.4099,2.15737c-5.83986,0 -11.05904,-6.4721 -11.05904,-6.4721c0,0 3.09161,-2.67148 3.25669,-2.81064c0.87932,-0.74124 3.66158,0.07796 8.57844,0.07796c5.83986,0 9.60391,2.85755 8.63382,7.04739z" data-paper-data="{&quot;index&quot;:null}" fill="#ffffff" stroke="#000000" stroke-width="3.5" stroke-linecap="butt"/><path d="M292.43833,257.33497l1.35812,-3.45178l4.17139,-1.82178" data-paper-data="{&quot;index&quot;:null}" fill="none" stroke="#000000" stroke-width="1.5" stroke-linecap="round"/><path d="M262.40563,256.56798l0.67745,-12.18645l4.60667,-4.41925" data-paper-data="{&quot;index&quot;:null}" fill="none" stroke="#000000" stroke-width="1.5" stroke-linecap="round"/><path d="M259.01838,252.41655l3.65823,-3.0801" data-paper-data="{&quot;index&quot;:null}" fill="none" stroke="#000000" stroke-width="1.5" stroke-linecap="round"/><path d="M250.61797,248.53295l-7.85842,-4.15143l1.08392,-4.82101" data-paper-data="{&quot;index&quot;:null}" fill="none" stroke="#000000" stroke-width="1.5" stroke-linecap="round"/><path d="M243.16602,252.28263l-0.13549,-7.7672" data-paper-data="{&quot;index&quot;:null}" fill="none" stroke="#000000" stroke-width="1.5" stroke-linecap="round"/><path d="M248.45014,247.19379l2.03235,-0.93742" data-paper-data="{&quot;index&quot;:null}" fill="none" stroke="#000000" stroke-width="1.5" stroke-linecap="round"/><path d="M285.43816,251.23164c0.80415,3.97406 -1.77614,3.61372 -3.75092,3.02288l0.20194,0.25662l-0.8876,2.21413l-1.1412,0.45953l-0.72307,0.10211l-0.17119,-0.0175l-0.16695,0.04126h-1.85934l-0.19387,-0.04791l-0.19921,0.01575l-1.23955,-0.20418l-0.2379,-0.10223l-0.25701,-0.03464l-0.51647,-0.20419l-0.28524,-0.2036l-0.16338,-0.00896l-0.24508,-0.2826l-0.30529,-0.21794l-0.02261,-0.16018l-0.2017,-0.23259l-0.55807,-0.15514l-0.27477,-0.50922l-0.12409,-0.08177l0.00755,-0.13421l-0.18858,-0.34948l-0.10329,-0.40838v-0.12405l-0.04735,-0.11489l-0.1033,-0.71469l0.01771,-0.16918l-0.04173,-0.16502v-1.42934l0.0246,-0.09729l-0.01635,-0.09896l0.1033,-1.22516l0.02892,-0.08395l-0.00792,-0.08837l0.30133,-1.8862l0.08261,-0.73482v-0.48169l0.29887,-1.1816l0.2122,-0.11983l0.04144,-0.23805l1.02138,-0.68144l0.40763,-0.14652l0.02807,-0.11297l0.22134,-0.12621l0.16629,-0.19175l0.18811,-0.01034l0.49166,-0.28033l0.72307,-0.20418l0.30663,-0.01012l0.29588,-0.08021l4.50934,-0.1013l1.75378,-0.09123l1.33098,-0.2631c0.16658,-0.03632 0.33968,-0.05547 0.51731,-0.05547c0.24068,0 0.47305,0.03514 0.69216,0.10053l0.06982,0.00328l0.02348,0.02666c0.93467,0.3212 1.60552,1.19952 1.60552,2.23274c0,0.69976 -0.30772,1.32849 -0.7967,1.7612l-0.01171,0.03471l-0.06524,0.03056c-0.16515,0.13417 -0.34882,0.24691 -0.54663,0.33387l0.07742,0.177l-0.37834,0.88814l-0.00773,0.13751l-0.07957,0.06743l-0.01254,0.02943l-0.30989,0.40839l-0.30327,0.24355l-0.25935,0.28889l-0.2519,0.17036c0.6234,0.41983 1.16809,0.93679 1.30563,1.61652z" data-paper-data="{&quot;index&quot;:null}" fill="#000000" stroke="none" stroke-width="0.5" stroke-linecap="butt"/><g data-paper-data="{&quot;index&quot;:null}" stroke="#000000"><path d="M252.43373,229.16945c0,0 3.02975,-5.82805 4.93187,-7.97552c2.6378,-2.97803 4.08999,-2.76338 4.08999,-2.76338c0,0 1.68112,2.24338 2.19992,3.63926c0.6253,1.68247 0.71036,5.66139 0.71036,5.66139z" fill="#ffffff" stroke-width="3.5" stroke-linecap="butt"/><path d="M245.44306,225.07613l6.76694,-8.00704l4.29881,1.89684l-3.4544,6.67684z" fill="#ffffff" stroke-width="3.5" stroke-linecap="butt"/><path d="M259.1188,227.69135l2.84028,-6.06985" fill="none" stroke-width="1.5" stroke-linecap="round"/><path d="M260.50057,223.67007l-2.45646,-2.35207" fill="none" stroke-width="1.5" stroke-linecap="round"/></g><path d="M207.23349,233.34827c2.43446,3.08889 4.74551,7.97506 2.2881,9.86712c-2.4574,1.89206 -7.77179,-0.53247 -10.20625,-3.62137c-2.43445,-3.08889 -1.43493,-6.88436 1.02248,-8.77641c2.4574,-1.89206 4.46122,-0.55823 6.89568,2.53066z" data-paper-data="{&quot;index&quot;:null}" fill="none" stroke="#000000" stroke-width="3.5" stroke-linecap="butt"/><path d="M174.33759,249.80201c0,0 7.7694,-5.54582 11.76269,-8.29063c4.05734,-2.78884 12.39219,-8.3124 12.39219,-8.3124c0,0 5.67754,-9.97972 15.91171,-3.02167c6.80871,4.62913 10.20498,9.80832 10.20498,9.80832c0,0 -2.31592,3.6756 -2.40062,6.31112c-0.04925,1.53242 4.02731,9.1224 4.09692,12.11302c0.18213,7.82357 -3.41287,13.20646 -3.41287,13.20646z" data-paper-data="{&quot;index&quot;:null}" fill="#ffffff" stroke="#000000" stroke-width="3.5" stroke-linecap="butt"/><path d="M181.64304,258.63129c-3.60284,5.02358 -6.84794,4.96914 -10.27315,2.56932c-3.42522,-2.39981 -2.05509,-6.5998 1.54775,-11.62338c1.20936,-1.68623 2.97849,-1.75192 4.49922,-2.14666c1.9072,-0.49504 4.12478,-0.58862 6.2644,0.91046c3.42522,2.39982 1.56464,5.26671 -2.0382,10.29029z" data-paper-data="{&quot;index&quot;:null}" fill="#ffffff" stroke="#000000" stroke-width="3.5" stroke-linecap="butt"/><path d="M197.26638,257.92176c0,5.01985 -2.53065,9.6952 -6.55983,9.6952c-2.3629,0 -5.19132,-0.37681 -6.3153,-2.2021c-0.79261,-1.28718 -0.24452,-3.59929 -0.24452,-5.67526c0,-5.01985 3.02108,-11.75542 9.50256,-9.21043c3.74454,1.47032 3.6171,2.37273 3.6171,7.39258z" data-paper-data="{&quot;index&quot;:null}" fill="#ffffff" stroke="#000000" stroke-width="3.5" stroke-linecap="butt"/><path d="M193.8332,267.37458c0,0 3.42919,-17.45134 7.35681,-17.45134c3.92763,0 6.37592,4.46545 6.37592,10.42233c0,5.9569 -1.8392,9.93757 -1.8392,9.93757c0,0 -3.26337,0.7921 -8.17002,-0.5437c-3.30678,-0.90025 -3.7235,-2.36488 -3.7235,-2.36488z" data-paper-data="{&quot;index&quot;:null}" fill="#ffffff" stroke="#000000" stroke-width="3.5" stroke-linecap="butt"/><path d="M209.45247,271.28977c0,0 -2.45968,-19.19206 2.356,-21.25398c4.81568,-2.06191 10.2455,2.50835 13.48911,9.90903c1.39126,3.17426 4.3841,8.97997 4.3841,8.97997c0,0 -3.86733,4.43104 -6.61749,5.60857c-4.81568,2.06193 -13.61173,-3.24358 -13.61173,-3.24358z" data-paper-data="{&quot;index&quot;:null}" fill="#ffffff" stroke="#000000" stroke-width="3.5" stroke-linecap="butt"/><path d="M221.2136,246.83949l-6.26167,0.53354l8.52883,-9.07006" data-paper-data="{&quot;index&quot;:null}" fill="none" stroke="#000000" stroke-width="1.5" stroke-linecap="round"/><path d="M188.93356,240.3304l6.58554,4.26826l-0.64775,3.20118" data-paper-data="{&quot;index&quot;:null}" fill="none" stroke="#000000" stroke-width="1.5" stroke-linecap="round"/><path d="M193.57582,242.78464l-0.97165,-5.22863" data-paper-data="{&quot;index&quot;:null}" fill="none" stroke="#000000" stroke-width="1.5" stroke-linecap="round"/><path d="M222.08989,269.0368l-4.02854,-3.36919l-2.78899,-1.73564l-0.61978,-5.71741l2.16922,-6.53417" data-paper-data="{&quot;index&quot;:null}" fill="none" stroke="#000000" stroke-width="1.5" stroke-linecap="round"/><path d="M211.55374,267.19906l3.82194,-3.16499" data-paper-data="{&quot;index&quot;:null}" fill="none" stroke="#000000" stroke-width="1.5" stroke-linecap="round"/><path d="M196.47251,267.70954l4.02855,-6.22789h3.92524l1.65275,-4.18596" data-paper-data="{&quot;index&quot;:null}" fill="none" stroke="#000000" stroke-width="1.5" stroke-linecap="round"/><g data-paper-data="{&quot;index&quot;:null}" fill="#ffffff" stroke="#000000" stroke-width="3.5" stroke-linecap="butt"><path d="M223.18799,232.14842c0,1.57519 -1.49496,2.85214 -3.33911,2.85214c-1.84415,0 -3.33911,-1.27695 -3.33911,-2.85214c0,-1.57518 1.49496,-2.85215 3.33911,-2.85215c1.84414,0 3.33911,1.27695 3.33911,2.85215z"/><path d="M211.48054,226.36267c0,0 0.34597,-3.71905 0.9733,-5.73424c0.5778,-1.85608 2.65435,-5.91881 2.65435,-5.91881c0,0 3.92192,2.13571 5.83459,3.33621c1.85035,1.1614 5.46066,3.7534 5.46066,3.7534l-2.8032,5.37832z"/><path d="M223.10554,224.52913c0,2.36278 -2.14094,4.27821 -4.78193,4.27821c-2.64099,0 -5.11172,-2.40436 -5.11172,-4.76715c0,-2.36278 2.9654,-2.15947 5.60639,-2.15947c2.64098,0 4.28724,0.28562 4.28724,2.64842z"/></g><path d="M199.37322,208.50407c0,0 1.46263,-3.17155 2.29242,-4.62801c0.90759,-1.59304 2.94064,-4.55727 2.94064,-4.55727l5.41351,3.47794c0,0 -0.37067,3.74449 -0.8046,5.39879c-0.40637,1.54919 -1.7217,4.23237 -1.7217,4.23237z" data-paper-data="{&quot;index&quot;:null}" fill="#ffffff" stroke="#000000" stroke-width="3.5" stroke-linecap="butt"/><path d="M178.38872,219.43377l-3.69099,1.73107l-0.06831,8.34778l-7.20805,-0.15412l1.76196,-9.86306c0,0 3.88649,-3.63704 7.86586,-5.4248c1.62729,-0.73105 4.40394,-0.51119 5.1613,-0.61168c1.83018,-0.24287 0.34778,3.72482 0.34778,3.72482z" data-paper-data="{&quot;index&quot;:null}" fill="#ffffff" stroke="#000000" stroke-width="3.5" stroke-linecap="butt"/><path d="M202.21733,232.31475c2.40166,-0.84686 5.21061,0.85485 6.27397,3.80087c1.06336,2.94603 -0.02155,6.02075 -2.4232,6.86761c-2.40166,0.84686 -5.2106,-0.85484 -6.27396,-3.80086c-1.06336,-2.94604 0.02154,-6.02077 2.42319,-6.86763z" data-paper-data="{&quot;index&quot;:null}" fill="#ffffff" stroke="#000000" stroke-width="3.5" stroke-linecap="butt"/><path d="M200.92727,230.11118l1.31915,-3.42257l11.21279,1.46681l-2.22606,5.37833z" data-paper-data="{&quot;index&quot;:null}" fill="#ffffff" stroke="#000000" stroke-width="3.5" stroke-linecap="butt"/><path d="M209.44522,220.049c1.74909,2.40641 2.8942,4.51136 1.06338,5.82024c-1.83081,1.30888 -5.48355,1.4581 -7.23264,-0.94831c-1.74909,-2.40642 -3.02935,-6.3292 -1.19853,-7.63808c1.8308,-1.30888 5.61867,0.35972 7.36776,2.76614z" data-paper-data="{&quot;index&quot;:null}" fill="#ffffff" stroke="#000000" stroke-width="3.5" stroke-linecap="butt"/><path d="M193.23267,216.848l-7.7215,4.95122c0,0 -2.25893,-0.71387 -2.93344,-1.48148c-1.59234,-1.81212 -0.01873,-3.35838 -0.01873,-3.35838c0,0 6.26448,-7.84326 8.98504,-7.53403c3.00981,0.34211 8.29391,2.13303 8.29391,2.13303l0.34731,5.68158z" data-paper-data="{&quot;index&quot;:null}" fill="#ffffff" stroke="#000000" stroke-width="3.5" stroke-linecap="butt"/><path d="M191.15505,210.92709l1.64974,5.19057" data-paper-data="{&quot;index&quot;:null}" fill="#ffffff" stroke="#000000" stroke-width="3.5" stroke-linecap="round"/><path d="M184.34299,213.54465c0,0 -2.26719,-2.62815 -7.48075,-1.13817c-2.59804,0.74249 -7.19382,5.64418 -7.19382,5.64418l-6.06125,-4.94779c0,0 10.87114,-11.60644 13.97397,-10.88874c3.94877,0.91338 8.83545,6.20602 8.83545,6.20602l-2.07359,5.12451z" data-paper-data="{&quot;index&quot;:null}" fill="#ffffff" stroke="#000000" stroke-width="3.5" stroke-linecap="butt"/><path d="M180.59464,210.89407l-1.99383,-7.68675" data-paper-data="{&quot;index&quot;:null}" fill="#ffffff" stroke="#000000" stroke-width="3.5" stroke-linecap="round"/><path d="M170.38621,207.44828l3.34964,5.83132" data-paper-data="{&quot;index&quot;:null}" fill="#ffffff" stroke="#000000" stroke-width="3.5" stroke-linecap="round"/><path d="M192.76899,230.84457c0,0 -3.98655,-2.32472 -5.58144,-3.78188c-1.67188,-1.52748 -4.22977,-5.18199 -4.22977,-5.18199l5.68886,-2.77066c0,0 2.01433,1.76154 4.37773,4.38555c1.1409,1.26671 2.54783,4.0894 2.54783,4.0894z" data-paper-data="{&quot;index&quot;:null}" fill="#ffffff" stroke="#000000" stroke-width="3.5" stroke-linecap="butt"/><path d="M178.00699,214.62812l1.89629,3.74854" data-paper-data="{&quot;index&quot;:null}" fill="#ffffff" stroke="#000000" stroke-width="3.5" stroke-linecap="round"/><path d="M170.75164,217.56175l2.9681,3.09661" data-paper-data="{&quot;index&quot;:null}" fill="#ffffff" stroke="#000000" stroke-width="3.5" stroke-linecap="round"/><g data-paper-data="{&quot;index&quot;:null}" stroke="none" stroke-width="0"><path d="M333.9038,166.43138c0.70293,0 1.335,0.2998 1.77248,0.77711c0.45322,0.49449 0.61848,0.91535 0.61848,1.58611v0.36085l-0.09323,0.36854l-0.02946,0.37877l-0.07303,0.21653l-0.04868,0.62549l-0.09268,0.27475l-0.09942,0.39308l-0.04413,0.08176l-0.00719,0.0924l-0.1448,0.42936l-0.0976,1.54337v0.16679l-0.05814,0.22988l0.00011,0.00516l-0.00188,0.00186l-0.16718,0.66094l0.66455,0.52547l0.47057,0.27907l0.20814,0.20571l0.09759,0.05787l0.2636,0.13028l0.9356,0.79263l0.00525,0.09318l0.08196,0.04629l0.29886,1.1816v0.36085l-0.02332,0.09224l0.03623,0.07162l-0.18114,0.50131l-0.13061,0.51642l-0.07033,0.03973l-0.03236,0.08954l-0.13173,0.1953l0.00043,0.01987l-0.0415,0.04104l-0.07059,0.10465l-0.38825,0.34885l-0.37101,0.36671l-0.02481,0.01473l-0.14443,0.33906l-0.18576,0.24481l-0.45994,1.09103l-0.33647,0.99769v2.78827l0.28085,1.01782l0.00178,0.08316l0.03603,0.07519l0.07864,0.38866l0.16186,0.39996l0.02222,0.16107l0.07739,0.14344l0.12393,0.48996l0.00811,0.01691l0.06965,0.09179l0.20528,0.48191l0.22647,0.47256l0.02277,0.11251l0.02367,0.05554l-0.00849,0.01941l0.02096,0.10361l0.1002,0.19807l0.05712,0.25407l0.12391,0.22964l0.0092,0.03639l0.17485,0.20163l0.55666,1.10042l0.10212,0.10092l0.02634,0.00521l0.03686,0.05727l0.04711,0.04656l0.28264,0.46562l0.00171,0.00265l0.12975,0.03607l0.10148,0.18806l0.16373,0.13871l0.01034,0.18386l0.30435,0.56403l0.1217,0.48114v1.21797l-0.41197,0.39021l-0.1119,0.55302l-1.03963,0.6539l-0.3651,0.12028l-0.09348,0.00712l-0.08271,0.04361l-0.93494,0.23101l-0.81356,0.22976l-0.26252,0.00864l-0.24674,0.08129l-0.3832,0.02913l-0.37288,0.09214h-0.24339l-0.48679,0.12027h-0.06662l-0.06703,0.01473l-0.02235,-0.01473h-1.42606l-0.43931,-0.10854l-0.44867,-0.06047l-0.36853,-0.14569l-0.41098,-0.0677l-1.03053,-0.11318l-0.03595,-0.0132l-0.03815,0.0039l-0.68366,-0.09652h-2.45647l-0.20124,0.04972h-0.07883l-0.28864,0.20376l-0.62869,0.4833l-0.00085,0.0017l-0.25013,0.28843l-0.19774,0.32575l-0.73019,0.72172l-0.27384,0.16239l-0.23057,0.2184l-0.57387,0.32411l-0.16552,0.16358l-0.00406,0.01203l-0.17145,0.2663l-0.10741,0.29726l-0.20364,0.30191l-0.81577,1.38223l-0.07847,0.0795l-0.04119,0.10334l-0.60849,0.84199l-0.3288,0.27684l-0.29056,0.31589l-0.1681,0.11076l-0.07598,0.0751l-0.40448,0.23986l-0.09071,0.1569l-0.29804,0.07365l-0.26344,0.15624l-0.17639,-0.04755l-0.45761,0.11307h-2.06887l-0.43931,-0.10854l-0.44868,-0.06047l-0.28449,-0.11248l-0.99115,-0.08906l-0.14679,-0.05062l-0.15542,0.00404l-1.09528,-0.24057l-0.17522,-0.08659l-0.19408,-0.02616l-0.45783,-0.181l-0.32937,-0.0814l-0.05144,-0.02712l-0.13064,-0.00614l-0.10321,-0.11712l-0.80202,-0.42277l-0.20482,-0.7198l-0.47252,-0.53621l0.17352,-0.51453l-0.14856,-0.52209l0.49779,-0.5134l0.23923,-0.70936l0.82145,-0.3846l0.10873,-0.11213h0.07597l0.0823,-0.32537l0.01925,-0.03567l0.00135,-0.04039l0.24341,-0.842l0.0622,-0.10656l0.01681,-0.12189l0.2434,-0.60143l0.02708,-0.03707l0.00797,-0.04504l0.48679,-1.08257l0.09142,-0.11565l0.04323,-0.14041l0.3651,-0.60142l0.04122,-0.04074l0.01961,-0.05428l0.97358,-1.44341l0.17621,-0.15835l0.12252,-0.20183l1.58207,-1.5637l0.12954,-0.07682l0.09319,-0.11753l1.03336,-0.79438l2.13191,-1.87304l0.10565,-0.0546l0.07653,-0.09034l2.60013,-1.86905l1.63127,-1.382l0.182,-0.08994l0.14387,-0.14221l1.1682,-0.69279l0.5627,-0.37079l0.2724,-0.23079v-0.50947l-0.17099,-0.76053l-0.13721,-0.4747l-0.05151,-0.08486l-0.23294,-0.23024l-0.22265,-0.1467l-0.29985,-0.08467l-0.76402,-0.0839h-1.60775l-1.35512,0.09567l-0.88677,0.26293l-0.78069,0.28938l-0.37455,0.18509l-0.25705,0.05646l-0.23233,0.12247l-0.97358,0.24058h-0.29435l-0.28555,0.07057h-0.85188l-0.24513,-0.06057l-0.12829,0.05019l-0.39768,-0.18015l-0.4244,-0.10486l-0.06844,-0.1184l-0.2297,-0.10405l-1.82546,-1.44342l-0.0816,-0.10586l-0.11544,-0.06847l-1.22837,-1.21411l-0.02634,-0.0052l-0.03687,-0.05728l-0.04711,-0.04656l-0.28265,-0.46561l-0.00525,-0.00814l-0.24526,-0.19391l-0.22323,-0.28959l-0.27255,-0.24488l-0.39991,-0.59291l-0.74874,-0.84578l-0.13979,-0.26942l-0.19936,-0.22988l-0.46771,-0.92454l-0.70975,-1.2861l-0.01102,-0.04191l-0.02851,-0.03287l-0.85188,-1.68399l-0.03732,-0.16603l-0.09239,-0.14349l-0.29024,-0.86057l-0.16657,-0.28812l-0.24815,0.14717l-0.09071,0.15689l-0.29805,0.07365l-0.26344,0.15623l-0.17638,-0.04754l-0.45761,0.11307h-0.6085l-0.37287,-0.09214l-0.38321,-0.02914l-0.36509,-0.12028l-0.26943,-0.16946l-0.30075,-0.10616l-0.36508,-0.24056l-0.22108,-0.24037l-0.26802,-0.18799l-0.73019,-0.842l-0.13163,-0.26021l-0.19155,-0.2209l-0.24339,-0.48112l-0.06928,-0.30814l-0.13671,-0.28527l-0.12169,-0.60142l0.01133,-0.23511l-0.05776,-0.22836v-1.20284l0.02274,-0.08989l-0.0157,-0.09135l0.12169,-1.5637l0.02931,-0.08689l-0.00854,-0.09119l0.24339,-1.56371l0.03507,-0.08253l-0.00164,-0.08951l0.36509,-1.5637l0.18431,-0.35707l0.12824,-0.38028l0.78567,-1.22028l0.06654,-0.13152l0.12704,-0.1465l0.00662,-0.11773l0.35985,-0.30486l4.26573,0.49844l1.89472,3.09205l0.0619,0.22158l0.12487,0.19393l0.18966,0.56238l0.16741,0.33092l0.02202,0.0979l0.0594,0.0813l0.06065,0.14989l1.10934,0.33372l0.40824,-0.08645l1.34316,-1.32757l0.32793,-0.56722l0.11907,-0.12281l0.06954,-0.15559l0.85188,-1.08256l0.0147,-0.01139l0.09918,-0.19603l0.02103,-0.02426l0.02541,-0.1005l0.121,-0.06833l0.63452,-0.73168l0.73212,-0.04019l0.60447,-0.3414l0.49733,0.2809l0.57194,-0.0314l0.38618,0.57253l0.63665,0.35958l0.23647,0.9349l0.07731,0.11461l-0.02274,0.10112l0.00784,0.03098v0.36086l-0.24305,0.9609l0.00727,0.10418l-0.0289,0.03143l-0.11357,0.84192l-0.10853,1.28726v1.55885l0.10324,0.81629l-0.01818,0.14825l0.03664,0.14487v0.12686l0.07526,0.37197l-0.01132,0.23511l0.03194,0.12627l0.36404,0.41977l0.37616,0.37177l0.0973,0.06411l1.79478,0.28009l0.03248,0.01363l0.03523,-0.00207l1.83914,0.34083l3.78488,0.35071l0.13489,0.04692l0.14291,-0.00479l1.25908,0.26668l0.23643,-0.06679l0.60019,-0.25423l0.98839,-0.54273l0.05144,-0.01364l0.04045,-0.03426l0.48679,-0.24056l0.16801,-0.0369l0.14519,-0.09132l0.20389,-0.06718l0.3348,-0.16546l0.50686,-0.11133l0.24194,-0.26906c0.01376,-0.36988 0.11354,-0.71804 0.28012,-1.02555l0.01712,-0.06766l0.03152,-0.01782c0.41591,-0.69653 1.18305,-1.16379 2.06057,-1.16379zM304.76869,166.38582l-0.05964,-0.08162l-0.42392,-1.04751l-0.07646,0.98231v0.35559l0.17285,-0.08543l0.01333,-0.02305l0.06662,-0.01647z" data-paper-data="{&quot;index&quot;:null}" fill="#000000" stroke-linecap="butt"/><path d="M340.49531,180.7671l4.35962,8.618" data-paper-data="{&quot;index&quot;:null}" fill="none" stroke-linecap="round"/><g data-paper-data="{&quot;index&quot;:null}" fill="none" stroke-linecap="round"><path d="M327.75262,158.1317c0,0 3.21957,2.95423 4.09039,4.74339c0.89949,1.84806 1.22329,6.174 1.22329,6.174"/><path d="M317.39119,166.06228l2.42497,1.72903l-0.26092,2.48182"/><path d="M325.53171,161.30552l-1.14034,3.15191l-4.84225,3.30906"/><path d="M327.55255,165.16892l-3.04605,-0.95139"/></g></g><g data-paper-data="{&quot;index&quot;:null}"><path d="M336.13505,223.11518c-0.45607,1.92895 -1.93037,4.01035 -3.20704,4.91326c-1.87647,1.32713 -4.214,1.31197 -6.55445,0.32154c-2.42994,-1.02829 -4.85443,-3.09562 -6.29028,-5.12585c-2.81887,-3.98571 -28.16072,-38.50905 -24.33604,-41.21401c1.7588,-1.24391 3.98911,-21.68439 12.0915,-15.35779c9.51699,7.43119 24.53413,43.23717 26.05672,45.39003c1.87793,2.65529 3.14986,7.22299 2.23959,11.07282z" fill="#2d2f45" stroke="#000000" stroke-width="3" stroke-linecap="butt"/><g stroke-linecap="butt"><path d="M300.18089,171.98625c6.92944,-4.90078 15.17007,-5.16454 18.40598,-0.58912c3.23592,4.5754 0.24173,12.25739 -6.68768,17.15816c-6.92943,4.90076 -15.17008,5.16452 -18.40598,0.58911c-3.23592,-4.5754 -0.24171,-12.25737 6.68771,-17.15814z" fill="#485e84" stroke="#000000" stroke-width="3"/><path d="M313.68627,177.96603l3.85986,-6.51238c0,0 0.94599,3.7012 0.7243,5.28677c-0.51389,3.31672 -2.68705,5.76357 -2.68705,5.76357z" fill="#8fbbbe" stroke="none" stroke-width="0"/><path d="M309.07807,183.16552l2.1817,-2.26347c0,0 1.31086,1.48172 1.67366,2.07194c0.4248,0.6911 0.82266,2.16388 0.82266,2.16388l-2.97103,2.22405z" fill="#8fbbbe" stroke="none" stroke-width="0"/></g><g><path d="M281.57963,177.57348c-6.76071,-9.55929 -4.00217,-23.13572 5.55714,-29.89645c9.55931,-6.76072 21.11664,-4.77886 27.87737,4.78045c6.76072,9.5593 1.72417,23.03208 -7.83512,29.79279c-9.5593,6.76071 -18.83863,4.8825 -25.59937,-4.67679z" fill="#343545" stroke="#000000" stroke-width="3" stroke-linecap="butt"/><path d="M291.32263,146.71925c0,0 15.19044,-4.91801 21.10555,3.44564c3.35429,4.74278 4.52186,11.2915 4.18538,16.92724c-0.23971,4.01517 -2.08766,8.06112 -5.46665,10.45087c-6.94549,4.91211 -11.60288,3.56607 -17.51801,-4.79758c-2.95397,-4.17675 -4.13667,-11.03613 -3.58687,-16.57088c0.5511,-5.54822 1.28059,-9.45529 1.28059,-9.45529z" fill="#485e84" stroke="none" stroke-width="0" stroke-linecap="butt"/><path d="M314.55506,152.93928c0,0 -0.08011,9.89589 -10.85819,18.10985c-10.86642,8.28124 -21.37036,5.72369 -21.37036,5.72369" fill="none" stroke="#000000" stroke-width="1.6" stroke-linecap="round"/><path d="M317.93278,161.94407c0,0 -3.89135,8.24626 -10.14948,14.25848c-9.01879,8.66441 -15.3004,8.15576 -15.3004,8.15576" fill="none" stroke="#000000" stroke-width="1.6" stroke-linecap="round"/><path d="M307.79901,146.60858c0,0 -1.07579,9.12634 -11.40129,17.95602c-9.9313,8.49257 -15.48199,7.46586 -15.48199,7.46586" fill="none" stroke="#000000" stroke-width="1.6" stroke-linecap="round"/><path d="M279.04581,167.34094c0,0 4.28741,-6.2942 8.65056,-11.49593c5.74693,-6.85145 13.10565,-11.94227 13.10565,-11.94227" fill="none" stroke="#000000" stroke-width="1.6" stroke-linecap="round"/><path d="M302.62444,183.59473c0,0 -7.61805,-2.57278 -15.14914,-12.35814c-7.02777,-9.13139 -5.32924,-16.59718 -5.32924,-16.59718" fill="none" stroke="#000000" stroke-width="1.6" stroke-linecap="round"/><path d="M285.323,151.6805c0,0 3.05985,4.99811 7.20337,9.87833c3.64384,4.29171 8.28264,8.34904 10.24596,10.81644c2.33189,2.9306 5.61074,8.28614 5.61074,8.28614" fill="none" stroke="#000000" stroke-width="1.6" stroke-linecap="round"/><path d="M289.08572,147.73753c0,0 10.19054,3.90856 15.0157,10.33918c7.57327,10.09315 8.51436,19.30629 8.51436,19.30629" fill="none" stroke="#000000" stroke-width="1.6" stroke-linecap="round"/><path d="M295.12909,144.60278c0,0 7.56629,2.51097 13.2376,8.24581c8.16694,8.25841 9.30874,14.97432 9.30874,14.97432" fill="none" stroke="#000000" stroke-width="1.6" stroke-linecap="round"/><path d="M308.46323,151.97808c-0.55623,-0.78647 -0.45458,-1.81483 0.22702,-2.29689c0.68161,-0.48205 1.68507,-0.23529 2.2413,0.5512c0.55623,0.78647 0.45458,1.81483 -0.22703,2.29687c-0.68161,0.48205 -1.68507,0.2353 -2.24129,-0.55119z" fill="#8fbbbe" stroke="none" stroke-width="0" stroke-linecap="butt"/><path d="M304.3524,147.97797c-0.27813,-0.39325 -0.18478,-0.93748 0.20845,-1.21557c0.39324,-0.27811 0.93749,-0.18478 1.21558,0.20845c0.27813,0.39325 0.18478,0.93748 -0.20845,1.21557c-0.39324,0.27811 -0.93749,0.18477 -1.21558,-0.20846z" fill="#8fbbbe" stroke="none" stroke-width="0" stroke-linecap="butt"/></g><path d="M330.8569,213.75172c2.06412,6.65901 -8.89001,6.48593 -10.23602,4.09713c-2.57658,-4.57269 -9.04166,-17.79143 -12.91589,-22.88678c-0.7558,-0.99402 10.17959,-6.18123 10.22395,-6.24768c7.00474,9.95046 9.62263,14.3741 12.92795,25.03734z" fill="#494c70" stroke="none" stroke-width="0" stroke-linecap="butt"/></g><g data-paper-data="{&quot;index&quot;:null}" stroke="#000000"><path d="M349.38314,184.45807c0,0 -0.2794,2.25357 -0.95411,3.43752c-1.064,1.86705 -4.81253,6.68151 -4.81253,6.68151c0,0 -8.45866,-2.01545 -10.09738,-4.00642c-1.59252,-1.93486 0.11983,-9.06084 0.11983,-9.06084c0,0 3.34635,-2.59244 8.15375,-1.7648c3.16385,0.54468 7.15201,2.40473 7.59046,4.71303z" data-paper-data="{&quot;index&quot;:null}" fill="#ffffff" stroke-width="3.5" stroke-linecap="butt"/><path d="M326.39718,198.32877c2.16497,-0.69299 4.39127,1.18886 6.6488,2.9526c2.254,1.76097 4.54095,3.40124 4.54095,6.00213c0,4.19706 -4.70994,6.36778 -8.78047,5.45913c-3.28255,-0.73274 -6.0289,-3.75644 -6.4835,-7.10869c-0.11476,-0.84631 -0.34296,-5.89127 4.07421,-7.30518z" data-paper-data="{&quot;index&quot;:null}" fill="#ffffff" stroke-width="3.5" stroke-linecap="butt"/><path d="M340.49531,180.7671l4.35962,8.618" data-paper-data="{&quot;index&quot;:null}" fill="none" stroke-width="1.5" stroke-linecap="round"/><g data-paper-data="{&quot;index&quot;:null}"><path d="M338.76287,169.00391c0,0 -11.583,3.21219 -16.84545,2.72308c-7.79486,-0.72449 -5.40442,-4.10927 -5.07078,-7.28285c0.33365,-3.17357 16.49552,-8.43188 16.49552,-8.43188c0,0 3.06289,1.61705 4.86973,6.09097c1.39434,3.45254 0.55101,6.90069 0.55101,6.90069z" fill="#ffffff" stroke-width="3.5" stroke-linecap="butt"/><path d="M303.04274,160.08379c-0.63518,6.04186 -6.68521,12.46469 -10.71934,12.08975c-4.03412,-0.37495 -3.29376,-7.51786 -2.65857,-13.55972c0.63518,-6.04186 4.80543,-6.86116 4.80543,-6.86116c0,0 8.4107,-1.35522 10.64009,1.5583c0.76212,0.99599 -1.90581,5.23358 -2.06763,6.77283z" fill="#ffffff" stroke-width="3.5" stroke-linecap="butt"/><path d="M290.7719,159.67972c0,0 3.43968,-2.19553 5.23197,-1.93174c1.68236,0.24762 5.2129,3.46903 5.2129,3.46903" fill="none" stroke-width="3.5" stroke-linecap="round"/><path d="M327.75262,158.1317c0,0 3.21957,2.95423 4.09039,4.74339c0.89949,1.84806 1.22329,6.174 1.22329,6.174" fill="none" stroke-width="3.5" stroke-linecap="round"/><path d="M317.39119,166.06228l2.42497,1.72903l-0.26092,2.48182" fill="none" stroke-width="1.5" stroke-linecap="round"/><path d="M325.53171,161.30552l-1.14034,3.15191l-4.84225,3.30906" fill="none" stroke-width="1.5" stroke-linecap="round"/><path d="M327.55255,165.16892l-3.04605,-0.95139" fill="none" stroke-width="1.5" stroke-linecap="round"/></g></g><path d="M64.22846,355.77155v-351.54309h351.54309v351.54309z" data-paper-data="{&quot;index&quot;:null}" fill="none" stroke="none" stroke-width="NaN" stroke-linecap="butt"/></g></g></svg>