<svg version="1.1" xmlns="http://www.w3.org/2000/svg" xmlns:xlink="http://www.w3.org/1999/xlink" width="202.59095" height="235.07567" viewBox="0,0,202.59095,235.07567"><g transform="translate(-111.31288,-33.25511)"><g data-paper-data="{&quot;isPaintingLayer&quot;:true}" fill-rule="nonzero" stroke-linejoin="miter" stroke-miterlimit="10" stroke-dasharray="" stroke-dashoffset="0" style="mix-blend-mode: normal"><g stroke="#000000" stroke-width="2"><g stroke-linecap="round"><path d="M271.21741,124.1578l21.24532,-14.95603l-5.07015,-6.72068l10.01015,-10.07809c0,0 -0.82497,-4.99217 1.29472,-3.08956c4.39136,3.9416 15.41918,15.83401 14.09713,20.55694c-1.64211,5.09923 -10.78346,10.57083 -17.7955,14.89284c-9.28163,5.72095 -18.37664,9.16821 -21.3548,10.34509c-2.29289,0.90606 -7.38373,0.8856 -6.95149,-5.03825c0.19098,-2.61769 3.54516,-5.24215 4.36607,-6.01243" fill="#f5d9b5"/><g><path d="M281.06055,93.46303l15.56865,-9.42002c0,0 7.45236,9.80995 12.35524,17.01876c0.24463,0.35971 -6.51395,10.29386 -16.23412,8.09365z" fill="#965646"/><path d="M291.49181,87.58722l13.33654,18.08709" fill="none"/><path d="M298.35594,108.55892l-12.81479,-17.39981" fill="none"/></g></g><path d="M295.86422,96.38736c-4.63223,4.34525 -12.47146,3.51395 -17.50943,-1.85676c-5.03796,-5.37071 -5.21671,-15.90947 -0.58449,-20.25472c4.63223,-4.34525 12.44763,2.82811 17.48559,8.19881c5.03796,5.37071 5.24055,9.56741 0.60832,13.91265z" fill="#4ac2e4" stroke-linecap="butt"/></g><path d="M284.86244,127.3966l-1.59776,3.32837l-3.07473,-3.76636l7.54247,-5.15699l2.59219,11.05196z" data-paper-data="{&quot;index&quot;:null}" fill="#4ac2e4" stroke="#000000" stroke-width="1.5" stroke-linecap="butt"/><g><path d="M208.39466,149.46652c0,0 -17.46181,2.77215 -28.14241,10.28232c-3.81523,2.68272 7.66174,13.28204 7.66174,13.28204l-12.45513,13.78358c0,0 -3.87787,1.32577 -6.01378,-0.55864c-7.64471,-6.74462 -11.31519,-17.23948 -8.29164,-26.244c1.74774,-5.20498 6.84126,-9.95115 11.8312,-13.086c9.23238,-5.80009 28.10262,-7.85555 28.10262,-7.85555" data-paper-data="{&quot;index&quot;:null}" fill="#f5d9b5" stroke="#000000" stroke-width="2" stroke-linecap="round"/><g data-paper-data="{&quot;index&quot;:null}" stroke="#000000" stroke-width="2" stroke-linecap="round"><path d="M182.91176,167.73387c4.28309,2.97828 12.3184,8.93876 12.3184,8.93876c0,0 -11.20039,0.09837 -12.80288,2.46094c-1.4839,2.18776 3.51635,11.23038 3.51635,11.23038c0,0 -15.27917,-0.05091 -20.90797,-13.0043c-2.9669,-6.82762 11.36756,-14.15133 17.87606,-9.62579z" fill="#965646"/><path d="M179.96683,184.8426l-12.79871,-12.61896" fill="none"/><path d="M190.20716,178.9509l-16.39094,-11.15312" fill="none"/></g><g><g><g data-paper-data="{&quot;index&quot;:null}" stroke-linecap="butt"><path d="M189.60598,196.14642c-1.45568,0.96115 -3.46815,1.17414 -4.94583,1.56705c-3.762,1.00026 -7.02308,0.68408 -10.70618,-1.4863c-2.41329,-1.4221 -4.77393,-5.69768 -4.77393,-5.69768c0,0 -1.44145,-0.89194 -2.40351,-1.63299c-6.9408,-5.34618 -2.50596,-17.51589 5.39184,-15.3746c0.8718,-3.44153 5.401,-5.57759 8.97056,-5.067c1.09261,-7.9675 10.19775,-8.57664 14.23635,-7.44428c4.09065,1.147 4.45396,5.08172 5.35636,8.76887c0.64616,2.64015 2.41487,5.77587 1.4066,7.85335c-0.78187,1.61104 -3.77343,3.38526 -5.87973,3.30495c0.17218,1.19774 -0.64989,1.78432 0.22984,1.48735c6.05917,-0.38036 11.24152,3.76305 8.70532,8.63897c-1.4737,2.83325 -7.03995,3.16679 -10.50078,1.86643c-1.35463,0.64716 -4.59391,2.89035 -5.08693,3.21587z" fill="#000000" stroke="none" stroke-width="0.5"/><path d="M177.12729,195.56576c-3.74201,-1.31278 -6.40897,-5.66762 -6.40897,-5.66762c0,0 2.09914,0.33515 3.29897,-0.32825c1.53753,-0.8501 2.42676,-2.36533 2.42676,-2.36533c0,0 1.70982,1.76238 4.73782,1.53258c1.5447,-0.11721 3.70204,-0.69176 5.16229,-2.00185c0.64242,-0.57635 1.11584,-1.46502 1.50682,-2.18066c0.92832,-1.69919 -0.77934,-7.12111 -2.38548,-5.68265c-1.60613,1.43847 2.98066,6.71766 -3.13568,8.11842c-2.28744,0.69056 -3.89008,-0.51266 -4.81404,-1.71204c-0.70884,-0.92013 -0.83676,-1.79426 -1.66702,-2.07406c-0.06003,-0.02022 -0.12024,-0.03945 -0.18048,-0.05705c-0.10175,-0.08891 -0.26967,-0.41298 -0.29076,-0.26029c-0.35787,2.59286 -0.4391,4.51101 -1.63348,5.21557c-1.18773,0.70064 -3.48562,0.19714 -4.90159,-0.61421c-1.97153,-1.12971 -3.36376,-5.27958 -2.91028,-7.4227c0.71091,-3.35963 3.21225,-6.10123 7.24968,-4.19843c0,0 1.04606,-3.4099 2.86907,-4.29704c2.80344,-1.36431 6.8221,-0.78821 6.8221,-0.78821c0,0 0.4558,-3.80327 0.85493,-4.52415c1.73788,-3.13859 9.66737,-3.89795 12.07219,-2.392c1.07171,0.67113 1.95322,5.01784 2.78166,8.17809c0.58543,2.23325 1.42545,3.30976 1.10456,4.63489c-0.26627,1.09959 -3.08962,1.86247 -4.51634,1.99826c-2.80224,0.51428 -3.3153,-0.66843 -4.17877,-1.90913c-0.87612,-1.25886 -0.8894,-2.93874 -1.69936,-2.82045c-0.46784,0.06832 -0.78784,0.21971 -0.98424,0.43361c-0.76703,0.8353 0.35091,2.62383 1.9107,4.14057c0.77938,0.75786 1.66909,1.44787 2.48909,1.91719c-0.21069,2.07978 0.03923,3.80326 1.38656,3.8779c3.18831,0.17663 7.80916,-0.00304 8.7608,3.5249c1.42188,5.27136 -5.65285,2.96687 -9.3589,3.08715c0,0 -10.11565,6.83075 -16.36865,4.63705z" data-paper-data="{&quot;noHover&quot;:false,&quot;origItem&quot;:[&quot;Path&quot;,{&quot;applyMatrix&quot;:true,&quot;segments&quot;:[[[125.34693,572.28539],[0,0],[9.5542,-5.52752]],[[145.54599,551.07879],[11.14375,11.83056],[-10.91121,-11.58371]],[[107.57608,545.25957],[8.92382,23.60675],[-9.24736,2.75866]],[[90.51041,533.59623],[-7.75722,5.74017],[3.88909,-2.87784]],[[112.67488,537.77718],[-8,5.32104],[3.55223,-2.3627]],[[121.56111,526.31161],[0.8478,3.25941],[-1.02169,-3.92792]],[[112.17218,515.72545],[4.67659,5.03597],[-6.61787,-7.12642]],[[93.41811,498.19218],[3.75558,0.25364],[-8.42726,-0.56913]],[[65.29972,520.83032],[0.14573,-10.67857],[-0.03346,2.45263]],[69.30791,534.47925],[[52.53764,546.09621],[5.43661,-7.52196],[-3.5353,4.89133]],[[51.05266,561.36841],[0,0],[-13.26873,0.68565]],[[37.92637,582.55127],[-2.85957,-9.81424],[1.82415,6.26062]],[[54.54959,597.04786],[-6.76135,-0.19141],[0.48636,0.01376]],[[60.40089,595.84818],[-0.42349,1.56607],[13.81008,-4.46101]],[[66.51333,576.78502],[-7.92441,0],[0.45883,0]],[[67.78843,576.9226],[-0.39199,-0.09017],[0.18278,-0.03861]],[[68.34153,576.81785],[-0.18592,0.03133],[5.92404,-0.99864]],[[88.94775,574.78697],[-8.88942,8.88657],[14.07723,-12.27659]],[[86.57225,549.06928],[-2.19099,6.03276],[2.19099,-6.03276]],[[101.21156,563.65055],[0.04598,-5.76358],[-0.14966,18.76182]],[[73.9804,586.91918],[11.7383,0.37577],[-0.47154,-0.0151]],[[72.1505,586.94196],[0.72344,-0.02236],[-0.09676,2.96479]],[[71.1221,594.74753],[0.41982,-1.89247],[-0.76716,3.45832]],[67.36008,602.72239],[[89.01534,607.42214],[-11.66391,1.81815],[19.49071,-3.03818]]],&quot;closed&quot;:true}]}" fill="#47c1e2" stroke="#47c1e2" stroke-width="1"/></g><path d="M186.07419,179.27928c0,0 2.80156,5.58303 -2.46925,7.85867c-4.96856,2.14513 -7.21436,-1.64332 -7.90549,-2.89115c-0.71015,-1.28218 0.03575,0.38583 -0.27599,2.11585c-0.23231,1.28923 -1.2481,2.56564 -2.8404,2.93448c-4.19778,0.97237 -6.77318,-3.38824 -6.77318,-3.38824" fill="none" stroke="#000000" stroke-width="2" stroke-linecap="round"/></g><path d="M200.9885,177.55209c0,0 -2.79221,2.64372 -6.86312,2.14935c-1.84277,-0.22378 -3.43413,-1.68494 -4.23016,-2.9602c-0.6358,-1.01859 -0.66071,-1.92744 -0.66071,-1.92744" fill="none" stroke="#000000" stroke-width="2" stroke-linecap="round"/></g></g><g><path d="M255.00981,204.74773l23.43445,30.38889l-18.97229,0.02153l-17.55103,-24.4029z" fill="#3a3b3f" stroke="none" stroke-width="0" stroke-linecap="round"/><path d="M264.17852,216.05144c0,0 20.83279,26.71363 24.62313,36.00826c2.32256,5.69537 -2.75467,7.56411 -2.75467,7.56411c0,0 -8.39768,1.19725 -16.21019,0.366c0.03618,-0.22035 0.06451,-0.44368 0.0847,-0.66966c0.19673,-2.20219 -0.41365,-4.29036 -1.58676,-5.97217c0.0082,-0.07238 0.01558,-0.14507 0.02209,-0.21803c0.20495,-2.29418 -0.46605,-4.46461 -1.73667,-6.18076l0.29009,0.00087l-16.51472,-26.3238z" fill="#585a5e" stroke="none" stroke-width="0" stroke-linecap="round"/><path d="M272.12496,240.77479c4.42589,-1.04596 8.17832,-3.12691 8.94487,-2.1799c3.09271,3.82067 6.09083,9.74507 7.46139,13.10596c0.42944,1.05305 0.60591,1.97531 0.60825,2.7791c-0.0992,-0.08174 -0.2027,-0.15985 -0.31085,-0.23408c-0.70294,-0.48246 -1.49595,-0.83921 -2.32336,-1.09384c-0.65936,-0.22115 -1.35493,3.0308 -2.07799,2.9662c-2.73953,-0.33242 -4.72568,-0.68846 -6.70376,-0.59057c-4.23913,0.20979 -7.00999,-2.02555 -7.00999,-2.02555c0,0 -4.52517,-7.38764 -7.71725,-12.86474c0,0 4.68721,1.18708 9.12867,0.13743z" fill="#a08c83" stroke="#000000" stroke-width="2" stroke-linecap="round"/><path d="M269.96745,251.94577l-24.57077,-37.95194l12.85738,-4.35492c0,0 6.64875,6.94172 12.56152,15.33572c5.64639,8.01585 14.40548,18.30446 17.98618,27.08504c2.32256,5.69537 -2.75468,7.5641 -2.75468,7.5641c0,0 -8.39769,1.19723 -16.2102,0.366" fill="none" stroke="#000000" stroke-width="2" stroke-linecap="round"/><path d="M265.53641,255.93841c1.18624,-0.79442 3.89282,-1.99209 3.89282,-1.99209c0,0 -0.03222,-2.69969 0.60895,-2.83786c0.65148,0.10284 1.17787,1.54425 1.97132,1.93548c1.57623,0.77718 3.46978,0.72458 4.33513,1.00421c1.54122,0.498 4.17284,0.15163 5.95485,0.06339c0.12342,-0.0061 2.07766,-0.05168 3.57499,-0.74008c1.19565,-0.54971 1.9362,-1.7823 2.42101,-1.73124l1.85414,6.7837c0,0 1.59616,4.35746 0.68537,5.64572c-0.91079,1.28825 -5.68916,1.49785 -7.2529,1.873c-1.56374,0.37517 -12.91422,1.06064 -12.91422,1.06064c0,0 -3.39081,0.47313 -6.07754,-1.00059c-1.84034,-1.00945 -3.04114,-2.831 -2.80438,-5.01931c0.22966,-2.12276 2.07145,-3.65266 4.15044,-5.04495z" fill="#4ac2e4" stroke="none" stroke-width="0" stroke-linecap="butt"/><path d="M267.08583,266.08243c0,0 -0.52077,-4.49929 2.25002,-6.65294" fill="none" stroke="#000000" stroke-width="2" stroke-linecap="round"/><path d="M275.57759,267.10272c0,0 -1.57488,-2.88297 1.50309,-7.13872" fill="none" stroke="#000000" stroke-width="2" stroke-linecap="round"/><path d="M288.64815,251.6457c0,0 3.55292,6.90634 1.68794,12.70645c-4.04446,1.6083 -9.36011,2.53904 -15.21116,2.89233c-1.51297,0.09136 -8.0574,0.47416 -10.74465,-1.00685c-1.84069,-1.01445 -3.04208,-2.84437 -2.80599,-5.04221c0.22901,-2.13201 3.8754,-6.12913 9.26853,-7.52689c0.02858,0.26379 -1.58425,-2.78015 -1.58425,-2.78015c0,0 1.97275,3.36291 8.34928,3.46393c5.90155,0.09349 10.57889,-2.98503 10.57889,-2.98503" fill="none" stroke="#000000" stroke-width="2" stroke-linecap="round"/><path d="M265.7462,233.98774c-3.65491,0.99672 1.63387,4.30108 1.63387,4.30108c0,0 -2.29996,0.06474 -4.57362,-0.61582c-0.94558,-0.28304 -2.07133,-0.18849 -2.73111,-1.08756c-1.70247,-2.31995 -1.91215,-3.21291 -3.40015,-6.28364c1.32311,-1.5054 0.70903,-5.80563 0.83067,-6.01878c0.34564,-0.60568 3.90668,6.53923 4.22566,5.92847c0.90661,-1.73597 1.61118,-3.5361 1.61118,-3.5361c0,0 0.85658,2.0099 -0.07858,4.71848c-0.35886,1.03942 2.48207,2.5939 2.48207,2.5939z" fill="#4ac2e4" stroke="#000000" stroke-width="1.5" stroke-linecap="butt"/></g><path d="M224.9405,216.16312l-1.72184,1.14047c0,0 0.75723,0.583 -3.97769,4.6061c-7.46745,6.34483 -22.57021,16.56012 -29.93764,10.83368c-0.98926,-0.7689 -1.4993,-2.10156 -1.12868,-3.08879c0.32265,-0.85941 1.16429,-3.06306 2.81307,-4.55215c9.52666,-8.60404 30.27573,-14.18192 30.27573,-14.18192z" data-paper-data="{&quot;index&quot;:null}" fill="#4ac2e4" stroke="#000000" stroke-width="2" stroke-linecap="round"/><g><g data-paper-data="{&quot;index&quot;:null}"><g><path d="M237.11968,215.95972c0,0 7.82839,15.81089 8.21053,20.03031c0.39621,4.37468 -7.20751,13.93089 -7.20751,13.93089l0.29003,0.00552c-1.30814,1.68775 -2.02679,3.84286 -1.87245,6.14099c0.00491,0.07309 0.01068,0.14591 0.01728,0.21846c-1.20988,1.65555 -1.86612,3.72976 -1.71797,5.93576c0.0152,0.22638 0.03862,0.45026 0.06993,0.67136c-7.82894,0.65888 -16.1982,-0.72312 -16.1982,-0.72312c0,0 -5.03483,-1.98017 -2.58733,-7.62297c2.4475,-5.6428 12.72346,-16.82475 12.72346,-16.82475l-5.87551,-17.24417z" fill="#3a3b3f" stroke="none" stroke-width="0" stroke-linecap="round"/><path d="M241.37299,227.65858c3.8845,2.84418 3.78227,6.39938 3.95724,8.33143c0.39621,4.37468 -7.20751,13.93089 -7.20751,13.93089l0.29003,0.00552c-1.30814,1.68775 -2.02679,3.84286 -1.87245,6.14099c0.00491,0.07309 0.01068,0.14591 0.01728,0.21846c-1.20988,1.65555 -1.86612,3.72976 -1.71797,5.93576c0.0152,0.22638 0.03862,0.45026 0.06993,0.67136c-7.82893,0.65888 -16.19819,-0.72312 -16.19819,-0.72312c0,0 -5.03482,-1.98017 -2.58732,-7.62297c2.4475,-5.64279 12.72345,-16.82475 12.72345,-16.82475c0,0 -0.99927,-4.15276 -2.76202,-6.15206c0,0 10.39735,-7.49204 15.28754,-3.9115z" fill="#585a5e" stroke="none" stroke-width="0" stroke-linecap="round"/><path d="M242.52978,244.00629c-1.95459,3.19004 -4.10643,5.89443 -4.10643,5.89443l-6.57545,6.64324c0,0 -2.71124,-1.76447 -11.34271,-0.90965c-0.72432,0.04864 -1.42297,0.18133 -2.08705,0.3879c-0.83283,0.23634 -1.6335,0.57553 -2.3469,1.04238c-0.10975,0.07182 -0.21496,0.14762 -0.31594,0.22716c0.02005,-0.80355 0.2168,-1.72169 0.66935,-2.76502c1.44429,-3.32986 5.61467,-8.5886 8.79081,-12.34019c0.78723,-0.92986 3.32257,1.3726 7.85224,1.77833c4.07359,0.36488 10.27631,-1.28746 9.46208,0.04143z" fill="#a08c83" stroke="#000000" stroke-width="2" stroke-linecap="round"/><path d="M234.90952,262.89299c-7.82894,0.65888 -16.19821,-0.72312 -16.19821,-0.72312c0,0 -5.03483,-1.98017 -2.58733,-7.62297c2.4475,-5.6428 12.72346,-16.82475 12.72346,-16.82475l-6.95702,-18.42436l15.0971,-1.57526c0,0 7.96056,14.04807 8.3427,18.26749c0.39621,4.37468 -7.20751,13.93089 -7.20751,13.93089l0.29004,0.00552" fill="none" stroke="#000000" stroke-width="2" stroke-linecap="round"/><path d="M239.54894,254.85583c2.16761,1.24985 3.16363,3.51811 3.53502,5.62071c0.38286,2.16753 -0.69318,4.06545 -2.46174,5.19594c-2.58194,1.65044 -5.99683,1.40558 -5.99683,1.40558c0,0 -11.3709,0.07664 -12.95627,-0.1929c-1.58536,-0.26952 -6.36704,-0.15847 -7.3621,-1.38279c-0.99507,-1.22433 0.30552,-5.67896 0.30552,-5.67896l1.39541,-6.8927c0.4803,-0.08343 1.30178,1.09676 2.53158,1.56512c1.54009,0.58653 3.49299,0.50105 3.61655,0.49886c1.78391,-0.03137 4.43282,0.13789 5.93721,-0.46227c1.26987,-0.5066 2.35033,-0.23503 4.27104,-0.67183c1.14624,0.1676 4.33357,-0.64872 7.1846,0.9952z" fill="#4ac2e4" stroke="none" stroke-width="0" stroke-linecap="butt"/><path d="M238.26975,258.35167c2.90887,1.96315 2.69076,6.48722 2.69076,6.48722" fill="none" stroke="#000000" stroke-width="2" stroke-linecap="round"/><path d="M217.33565,253.16936c0,0 4.08649,2.32103 9.96851,1.83229c6.35543,-0.52806 9.79111,-3.68385 9.79111,-3.68385c0,0 -1.95243,2.62512 -1.94159,2.36c5.47467,1.03324 7.7843,4.88425 8.15565,6.99612c0.38283,2.17708 -0.69324,4.08339 -2.46182,5.2189c-2.58197,1.65775 -5.99685,1.41186 -5.99685,1.41186c0,0 -15.88382,-0.22019 -20.02696,-1.55386c-2.24944,-5.66211 2.04342,-12.67186 2.04342,-12.67186" fill="none" stroke="#000000" stroke-width="2" stroke-linecap="round"/></g><path d="M217.54061,254.54698l6.9919,-7.19275l-0.82838,2.55547l7.24463,-5.73075l-6.41003,13.69842" fill="#4ac2e4" stroke="#000000" stroke-width="0" stroke-linecap="round"/><path d="M218.05503,253.57195l5.62781,-6.08492l0.17162,2.1269l7.38749,-5.58789l-5.17871,11.31235" fill="none" stroke="#000000" stroke-width="1.5" stroke-linecap="round"/></g><path d="M231.25614,259.12784c4.87665,4.2221 2.22132,8.20293 2.22132,8.20293" data-paper-data="{&quot;index&quot;:null}" fill="none" stroke="#000000" stroke-width="2" stroke-linecap="round"/></g><path d="M135.5634,118.44859c0,14.23027 -5.42866,25.76618 -12.12526,25.76618c-6.6966,0 -12.12526,-11.53591 -12.12526,-25.76618c0,-14.23027 5.42866,-25.76618 12.12526,-25.76618c6.6966,0 12.12526,11.53591 12.12526,25.76618z" fill="none" stroke="none" stroke-width="0" stroke-linecap="butt"/><g data-paper-data="{&quot;index&quot;:null}" stroke-linecap="round"><path d="M241.58207,150.52354l13.85121,44.30581c0,0 3.07792,-0.15544 5.98094,1.45586c2.4259,1.34649 4.6831,4.21732 5.36203,6.6834c0.63841,2.31892 -0.3673,5.03621 -1.78377,7.03768c-1.8925,2.67407 -7.06603,4.54717 -7.06603,4.54717l-34.99629,5.44222c0,0 -7.29065,0.76578 -9.71209,-3.8446c-3.92084,-7.46516 2.98325,-14.55943 2.98325,-14.55943l-8.42223,-51.36525" fill="#f5d9b5" stroke="#000000" stroke-width="2"/><path d="M266.85848,205.16621c-0.03229,0.8989 -0.39686,1.93523 -0.86302,2.94866c-0.53861,1.17096 -2.18601,2.76853 -3.66008,3.77932c-2.49237,1.70903 -5.0566,2.53129 -5.0566,2.53129c0,0 -14.95906,3.59639 -21.56806,4.60534c-5.60839,0.85616 -15.5791,1.06554 -15.5791,1.06554c0,0 -3.48292,-0.79137 -4.65416,-2.04626c-0.69037,-0.73969 -1.28598,-1.19222 -1.62615,-1.92327c-0.91726,-1.97127 -1.00646,-5.66698 -1.00646,-5.66698l53.30171,-8.57746c0,0 0.78004,1.38806 0.71192,3.28384z" fill="#585960" stroke="#585960" stroke-width="1"/><path d="M249.65702,204.17709c0,0 1.52962,4.6344 -6.8089,5.93435c-8.01377,1.4411 -8.64508,-3.33053 -8.64508,-3.33053" fill="#ffffff" stroke="#000000" stroke-width="2"/><path d="M239.71808,217.50425l-0.18507,-5.87849" fill="none" stroke="#000000" stroke-width="2"/><path d="M246.91097,209.91232l1.18381,6.05815" fill="none" stroke="#000000" stroke-width="2"/><path d="M206.53649,147.17631c0,0 6.25744,-3.00581 16.72082,-3.7559c10.46338,-0.75008 17.60297,2.10828 17.60297,2.10828l4.67783,19.57147l-35.50375,-4.6321z" fill="#965745" stroke="#000000" stroke-width="2"/><path d="M222.76751,207.70265c9.46907,-1.55711 42.9863,-7.06876 42.9863,-7.06876c0,0 1.35557,2.60652 1.28745,4.5023c-0.03229,0.8989 -0.39686,1.93523 -0.86302,2.94866c-1.44931,3.15079 -4.75835,5.78669 -8.80921,6.88856c-4.05087,1.10186 -22.10666,5.64128 -36.62927,5.39811c-5.27019,-0.08825 -7.795,-3.32738 -8.54508,-6.34972c-0.57202,-2.30486 0.10481,-4.59778 0.10481,-4.59778c0,0 5.79524,-0.95298 10.46802,-1.72137z" fill="none" stroke="#000000" stroke-width="2"/></g><g><g><path d="M225.29097,60.95265c0,0 3.04244,-9.88708 9.29884,-17.4528c5.05635,-6.11453 12.73074,-11.11366 20.78496,-8.56393c17.19152,5.4423 24.16057,38.48891 24.16057,38.48891" data-paper-data="{&quot;index&quot;:null}" fill="#4ac2e4" stroke="#000000" stroke-width="2" stroke-linecap="round"/><path d="M176.76312,98.77328c0,0 -13.65317,-30.89073 -2.88139,-45.35224c5.04658,-6.77521 14.19559,-7.2023 21.87174,-5.19446c9.49793,2.48436 17.74395,8.73049 17.74395,8.73049" data-paper-data="{&quot;index&quot;:null}" fill="#4ac2e4" stroke="#000000" stroke-width="2" stroke-linecap="round"/><g stroke="#000000"><g><path d="M304.75449,123.46586c1.96531,4.90132 2.05675,9.70322 0.98816,14.78842c-0.90189,4.29204 -2.48549,8.89919 -5.93208,12.78999c-4.45401,5.02805 -10.04559,9.60121 -17.50281,11.12471c-15.98818,3.26635 -36.44281,-0.47 -36.44281,-0.47l-29.87503,-6.30459c0,0 -10.05107,-3.33676 -15.7995,-6.65825c-6.46792,-3.73721 -12.59537,-11.25775 -16.07291,-16.5785c-1.48877,-2.27782 -3.07476,-5.00817 -4.15198,-7.88837c-1.82526,-4.88028 -2.71356,-10.29745 -3.00028,-15.44765c-0.64696,-11.62032 2.05894,-21.82248 2.05894,-21.82248c0,0 3.77626,-15.8335 18.50103,-25.48956c5.30243,-3.47718 12.37067,-6.56276 19.69891,-8.1546c11.11007,-2.02797 22.48566,-2.10879 30.83369,-0.4094c6.12596,1.24706 14.47482,3.19035 21.95692,7.3318c7.49883,4.1507 14.12798,10.50444 17.69188,16.07885c10.04554,15.71255 4.75603,33.44394 4.75603,33.44394c0,0 8.96539,5.36985 12.29188,13.66573z" fill="#4ac2e4" stroke-width="2" stroke-linecap="round"/><path d="M288.22896,160.27133l-7.29066,-10.99101l0.56851,-0.37711l7.29064,10.99102z" fill="#000000" stroke-width="1.5" stroke-linecap="butt"/><path d="M300.32201,149.82773l-7.62703,-8.80267l0.68048,-0.5623l7.62703,8.80268z" fill="#000000" stroke-width="1.5" stroke-linecap="butt"/></g><path d="M195.35894,144.51118l9.44986,-9.20088l0.47592,0.48877l-9.44986,9.20088z" data-paper-data="{&quot;index&quot;:null}" fill="#000000" stroke-width="1.5" stroke-linecap="butt"/><path d="M185.16955,133.98575l10.32062,-8.21224l0.42476,0.53383l-10.32062,8.21222z" data-paper-data="{&quot;index&quot;:null}" fill="#000000" stroke-width="1.5" stroke-linecap="butt"/><path d="M178.70832,120.35451l9.39341,-5.05622l0.26153,0.48585l-9.39341,5.05621z" data-paper-data="{&quot;index&quot;:null}" fill="#000000" stroke-width="1.5" stroke-linecap="butt"/></g><path d="M269.13043,88.78988c10.33011,-0.33565 19.25763,9.14885 19.94019,21.18429c0.68255,12.03544 -7.13836,22.0642 -17.46846,22.39986c-10.33011,0.33568 -19.25764,-9.14886 -19.94018,-21.1843c-0.68254,-12.03543 7.13836,-22.06419 17.46847,-22.39985z" fill="#ffffff" stroke="#000000" stroke-width="2" stroke-linecap="butt"/><path d="M212.9808,124.34032c-11.85897,-4.62218 -16.95291,-16.70911 -11.99468,-28.12638c4.95823,-11.41726 18.0911,-17.84141 29.95007,-13.21921c11.85897,4.62218 16.50725,18.11069 11.54901,29.52797c-4.95823,11.41726 -17.64543,16.4398 -29.5044,11.81763z" fill="#ffffff" stroke="#000000" stroke-width="2" stroke-linecap="butt"/><path d="M226.28273,55.42775c4.64927,-9.96764 8.01012,-6.704 8.01012,-6.704" data-paper-data="{&quot;index&quot;:null}" fill="none" stroke="#000000" stroke-width="7.5" stroke-linecap="round"/><g stroke="#000000" stroke-width="2"><path d="M268.25609,133.46822c-0.63372,6.35049 -11.76216,22.36113 -22.81926,30.85543c-6.00496,4.61312 -11.98426,5.64561 -16.26064,4.83432c-25.07552,-4.75712 -20.1492,-54.49146 -8.12221,-54.85579c7.29747,-0.20955 16.51016,9.24412 26.88951,12.60936c9.76779,3.16695 20.96342,0.03477 20.3126,6.55668z" fill="#e26172" stroke-linecap="butt"/><path d="M236.12675,168.41019c0,0 -7.73886,4.1112 -13.92287,-0.68344c-16.45538,-15.05283 -10.00241,-38.06253 -10.00241,-38.06253c0,0 15.01365,0.97715 22.43343,12.54739c7.98253,12.4478 1.49183,26.19857 1.49183,26.19857z" fill="#f7a3a3" stroke-linecap="round"/><path d="M222.23913,114.7447c0,0 3.00992,0.27548 4.94196,1.10298c0.89822,0.38471 1.33663,0.42348 1.8762,0.81784c1.48333,1.08407 4.33313,2.61562 4.33313,2.61562c0,0 -6.84149,9.23756 -9.54845,7.2592c-2.70696,-1.97833 -1.60283,-11.79562 -1.60283,-11.79562z" fill="#ffffff" stroke-linecap="butt"/></g><g data-paper-data="{&quot;index&quot;:null}"><g><path d="M269.74553,130.02598c5.74644,2.76231 6.3978,4.98373 6.42241,6.29066c0.04588,2.43631 -5.74837,1.88663 -10.85269,1.19678c-7.17852,-0.97019 -11.75868,-3.85556 -16.09861,-6.14195c-6.54993,-3.45072 -8.93495,-4.95713 -14.51169,-9.97078c-5.89092,-5.29612 10.03523,0.78382 17.52041,2.83382c5.83942,1.59925 17.52017,5.79145 17.52017,5.79145z" fill="#bbe9f3" stroke="none" stroke-width="0" stroke-linecap="round"/><path d="M265.28171,128.27788c0.02825,0.80759 -3.3274,2.46937 -4.41554,2.34117c-1.08817,-0.12823 -7.08508,-4.99512 -7.11333,-5.80273c-0.02492,-0.71256 4.47939,0.83278 6.31705,1.56294z" fill="#d94a32" stroke="none" stroke-width="0" stroke-linecap="butt"/><path d="M265.9736,128.5695c-2.01364,1.41487 -5.65679,2.18365 -5.65679,2.18365c0,0 -2.2531,-1.75145 -3.56894,-2.77435c-1.6281,-1.26562 -4.94912,-3.89956 -4.94912,-3.89956" fill="none" stroke="#000000" stroke-width="2" stroke-linecap="round"/><path d="M276.55418,134.83332c-0.34145,2.40032 -5.47394,3.36381 -12.35843,2.126c-8.16396,-1.46786 -15.29165,-4.62601 -20.45323,-7.68488c-5.4028,-3.20184 -10.32194,-8.17249 -10.35004,-9.1046c-0.03971,-1.31589 5.74008,0.70695 13.81454,2.45011c7.18035,1.55012 29.92342,8.16256 29.34719,12.21339z" fill="none" stroke="#000000" stroke-width="2" stroke-linecap="round"/></g><path d="M259.9851,130.68811c0,0 0.26874,2.78413 -1.64552,4.1749" fill="none" stroke="#000000" stroke-width="2" stroke-linecap="round"/></g><path d="M247.53515,49.22411c0,0 3.20356,-3.41816 8.31668,6.31968" data-paper-data="{&quot;index&quot;:null}" fill="none" stroke="#000000" stroke-width="7.5" stroke-linecap="round"/><path d="M291.89061,114.83129c-0.25787,3.28345 -0.56053,4.65396 -1.23634,6.43405c-0.85476,2.25143 -2.08192,4.47439 -2.08192,4.47439" data-paper-data="{&quot;index&quot;:null}" fill="none" stroke="#000000" stroke-width="2" stroke-linecap="round"/></g><path d="M196.45573,113.7641c0,0 -2.34882,-6.26243 -1.22193,-12.97939" fill="none" stroke="#000000" stroke-width="2" stroke-linecap="round"/></g><path d="M214.61816,124.65696c-0.49029,2.45145 -2.94174,1.96116 -2.94174,1.96116l-2.77684,-0.86423c-2.59978,-2.18251 -5.50776,-5.02841 -7.64883,-7.64793c-1.0562,-1.29222 -0.99408,-3.33576 -2.18514,-4.50485c-0.74462,-0.73089 -2.3032,-0.57366 -2.73415,-1.52389c-1.29833,-2.86273 0.9933,-7.6039 1.35456,-10.55397c0,0 0.31009,-2.48069 2.79078,-2.17061c2.48069,0.31009 2.17061,2.79078 2.17061,2.79078c-0.36724,2.88643 -0.3149,3.52854 -1.36156,6.50841c-0.124,0.35304 -0.8721,0.66367 -0.61722,0.93763c0.4519,0.48573 1.46753,0.0029 1.93252,0.47611c0.40758,0.41479 1.80191,4.03412 2.48153,4.82848c2.03838,2.38253 4.57918,5.0043 7.01783,7.01873l0.5565,-0.19757c0,0 2.45145,0.49029 1.96116,2.94174z" fill="#000000" stroke="none" stroke-width="0.5" stroke-linecap="butt"/><path d="M286.08187,116.89604c0.17403,-0.73983 0.71797,-1.89604 2.41813,-1.89604c2.5,0 2.5,2.5 2.5,2.5l-0.57945,1.93379c-2.27506,2.56536 -1.18268,4.34086 -2.66518,7.47809c-1.79,3.78796 -7.03119,5.62771 -10.57336,7.20598c0,0 -2.28453,1.01535 -3.29988,-1.26918c-1.01535,-2.28453 1.26918,-3.29988 1.26918,-3.29988c1.92343,-0.85254 7.23184,-2.51669 8.0933,-4.79402c1.19047,-3.14707 0.95597,-5.17132 2.83725,-7.85874z" fill="#000000" stroke="none" stroke-width="0.5" stroke-linecap="butt"/><path d="M238.59604,159.88102c1.23864,-0.59013 2.43782,-1.17687 3.57053,-1.67227c1.05736,-0.46244 6.11113,-2.89463 7.10185,-2.50393c1.94661,0.76765 4.07954,2.4111 4.39818,4.47921c0.38386,2.49142 -4.45056,4.37245 -6.00026,5.19389c-4.58436,2.43 -10.31832,5.44271 -13.21339,9.80013c-0.9971,4.14486 1.99332,14.00811 -6.08072,12.69237c-1.4749,-0.24035 -1.76052,-2.42235 -2.50343,-3.71895c-1.55604,-2.71573 -1.52843,-5.50866 -2.14393,-8.44849c-0.57619,-2.75207 -1.10061,-2.74475 -2.70995,-5.26354c-2.84885,-4.45876 -7.13036,-9.39367 -9.14571,-14.28703c-1.35614,-3.29276 -1.53112,-6.4978 -1.53587,-9.98574c0,0 0,-0.15743 0.03951,-0.39328l-0.02422,0.00269l-0.32932,-2.9639c-0.01274,-0.10227 -0.0193,-0.20646 -0.0193,-0.31218c0,-1.38071 1.11929,-2.5 2.5,-2.5c0.90946,0 1.70549,0.48562 2.14294,1.21171l1.64373,2.62996l-0.03666,0.02291l0.09715,0.07919c1.39848,2.80439 2.35011,5.62869 3.44444,8.55693c0.28886,0.57683 0.61825,1.29425 0.99169,2.08147c0.34974,0.40699 0.69026,0.75675 1.00746,1.0172c2.96524,2.43474 8.81313,2.70953 12.50164,3.44313c1.46337,0.29105 3.0079,0.29891 4.30366,0.83852zM232.86727,169.52219c0.02507,-0.02508 0.05018,-0.0501 0.07534,-0.07506c-0.0235,-0.00265 -0.04699,-0.00534 -0.07047,-0.00807c-0.00164,0.02758 -0.00326,0.05529 -0.00486,0.08313z" fill="#000000" stroke="none" stroke-width="0.5" stroke-linecap="butt"/><path d="M199.83334,104c0,0 -4.90804,34.89278 -5.92683,60.32291c-0.97754,24.40034 -3.84545,48.37474 -13.94405,48.64167c-15.96734,0.42206 -12.46245,-30.29791 -12.46245,-30.29791" fill="none" stroke="#000000" stroke-width="6.5" stroke-linecap="round"/><path d="M211.83334,124.66667c0,0 1.4253,41.39278 0.4065,66.82291c-0.97754,24.40033 -12.51211,29.37474 -17.94405,24.30834c-7.38753,-6.89039 -4.62911,-35.13124 -4.62911,-35.13124" fill="none" stroke="#000000" stroke-width="6.5" stroke-linecap="round"/><path d="M295.6667,86.00002c0,0 11.17157,108.55331 -4.79577,108.13125c-10.09861,-0.26693 -9.13319,-6.90801 -9.11073,-12.64167c0.02246,-5.73367 7.07317,-65.15624 7.07317,-65.15624" data-paper-data="{&quot;index&quot;:null}" fill="none" stroke="#000000" stroke-width="6.5" stroke-linecap="round"/></g></g></svg>