<svg version="1.1" xmlns="http://www.w3.org/2000/svg" xmlns:xlink="http://www.w3.org/1999/xlink" width="189.26654" height="221.55319" viewBox="0,0,189.26654,221.55319"><g transform="translate(-145.36673,-69.22342)"><g data-paper-data="{&quot;isPaintingLayer&quot;:true}" fill-rule="nonzero" stroke-linejoin="miter" stroke-miterlimit="10" stroke-dasharray="" stroke-dashoffset="0" style="mix-blend-mode: normal"><g data-paper-data="{&quot;index&quot;:null}"><g data-paper-data="{&quot;origRot&quot;:0,&quot;index&quot;:null}" stroke="#000000" stroke-width="3" stroke-linecap="round"><path d="M259.37804,210.50473c-1.98335,0.44486 -2.40933,-6.8176 -2.40933,-6.8176c0,0 -1.29633,-14.15018 -2.12605,-23.20702c-0.54482,-5.9471 -1.39607,-15.2387 -1.39607,-15.2387c0,0 -0.27988,-5.9179 0.81033,-6.07362c6.55895,-0.93677 12.72245,-3.13638 16.10969,-2.43567c1.12909,0.23357 2.83615,5.68761 2.83615,5.68761l8.55584,28.85843c0,0 2.85483,10.25637 2.8263,14.86395c-0.01581,2.55542 -25.20687,4.36259 -25.20687,4.36259z" data-paper-data="{&quot;origPos&quot;:null}" fill="#582600"/><path d="M282.63325,198.8403l-24.53798,4.40343" fill="none"/><path d="M281.77047,195.37682l-24.49603,4.63713" data-paper-data="{&quot;origPos&quot;:null}" fill="none"/></g><path d="M257.11399,199.13526l-2.99159,-38.64797l15.55991,-2.8411l1.38095,0.44775l10.84762,36.56362z" fill="#ffcb66" stroke="#000000" stroke-width="1" stroke-linecap="round"/><path d="M257.54828,203.26089l-0.41935,-2.29307l25.08483,-4.58732l0.41935,2.29307z" fill="#ffffff" stroke="none" stroke-width="0" stroke-linecap="butt"/></g><path d="M145.36673,290.7766v-221.55318h189.26654v221.55319z" fill="none" stroke="none" stroke-width="NaN" stroke-linecap="butt"/><g data-paper-data="{&quot;origRot&quot;:0}" stroke="#000000" stroke-linecap="round"><path d="M242.17824,218.23266c0,0 -0.78361,-4.67505 0.80161,-4.86982c4.67779,-0.57471 8.96457,-2.78606 13.55509,-1.7549c1.90622,0.42819 3.23747,4.46306 3.23747,4.46306l9.20398,31.45112c0,0 0.99484,3.23575 1.49762,5.11408c0.53755,2.00825 -0.08035,5.21858 -2.21995,5.59927c-7.85591,1.39786 -12.47926,3.64675 -17.60605,3.32673c-1.86777,-0.11659 -3.84194,-0.35707 -4.81699,-1.87836c-1.2737,-1.98719 -1.22335,-6.40657 -1.22335,-6.40657z" data-paper-data="{&quot;origPos&quot;:null}" fill="#ff0000" stroke-width="3"/><path d="M271.0229,255.90078c0,0 -5.65949,3.45631 -10.86577,4.2267c-3.99445,0.59106 -12.80899,0.87352 -12.80899,0.87352c0,0 -1.79923,-2.33604 -2.14488,-3.88186c-0.36413,-1.62843 0.32613,-4.25176 0.32613,-4.25176l23.72979,-4.30713z" data-paper-data="{&quot;origPos&quot;:null}" fill="#976e57" stroke-width="2"/><path d="M242.31257,218.53299c0,0 -0.78361,-4.67505 0.80162,-4.86981c4.67778,-0.57471 8.96457,-2.78606 13.55511,-1.75488c1.90622,0.42819 3.23746,4.46305 3.23746,4.46305l9.20398,31.45112c0,0 0.99486,3.23576 1.49764,5.11408c0.53755,2.00825 -0.08036,5.21857 -2.21995,5.59927c-7.85591,1.39786 -12.47926,3.64676 -17.60605,3.32674c-1.86777,-0.11659 -3.84194,-0.35709 -4.81698,-1.87836c-1.2737,-1.98719 -1.22336,-6.40657 -1.22336,-6.40657z" data-paper-data="{&quot;origPos&quot;:null}" fill="#474747" stroke-width="3"/></g><g data-paper-data="{&quot;index&quot;:null,&quot;origRot&quot;:0}" stroke="#000000" stroke-linecap="round"><path d="M239.30115,252.93067c0,0 0.25916,4.41276 -0.9193,6.45251c-0.90217,1.56153 -2.86296,1.88634 -4.72333,2.08286c-5.10646,0.53939 -9.83143,-1.50914 -17.74545,-2.56894c-2.15542,-0.28865 -2.92444,-3.46923 -2.48237,-5.49849c0.41348,-1.89795 1.25437,-5.17306 1.25437,-5.17306l7.70806,-31.81365c0,0 1.13917,-4.08782 3.02321,-4.59725c4.53714,-1.22682 8.92409,0.79857 13.62429,1.17227c1.59283,0.12664 1.03099,4.83052 1.03099,4.83052z" data-paper-data="{&quot;origPos&quot;:null}" fill="#ff0000" stroke-width="3"/><path d="M214.45169,249.27481l23.90931,3.28592c0,0 0.81356,2.59111 0.52677,4.23348c-0.27223,1.55907 -1.95923,3.96983 -1.95923,3.96983c0,0 -8.81898,0.09553 -12.83729,-0.32376c-5.2374,-0.54651 -11.05453,-3.7568 -11.05453,-3.7568z" data-paper-data="{&quot;origPos&quot;:null}" fill="#976e57" stroke-width="2.5"/><path d="M239.18116,253.23646c0,0 0.25916,4.41276 -0.9193,6.45251c-0.90217,1.56153 -2.86296,1.88635 -4.72333,2.08287c-5.10646,0.53939 -9.83142,-1.50913 -17.74545,-2.56894c-2.15542,-0.28865 -2.92444,-3.46923 -2.48237,-5.49848c0.41348,-1.89795 1.25437,-5.17306 1.25437,-5.17306l7.70806,-31.81365c0,0 1.13916,-4.08782 3.02321,-4.59725c4.53714,-1.22682 8.92411,0.79857 13.6243,1.17227c1.59283,0.12664 1.03098,4.83052 1.03098,4.83052c0,0 -0.19482,8.87865 -0.31951,14.56146c-0.176,8.02059 -0.45097,20.55176 -0.45097,20.55176z" data-paper-data="{&quot;origPos&quot;:null}" fill="#474747" stroke-width="1.5"/></g><g><g><path d="M221.48292,170.81217c0,0 2.01045,-14.20981 4.24504,-14.75007c6.70372,-1.6208 22.02934,-0.7031 32.27255,-0.7031c1.5835,0 2.95092,13.34594 2.95092,13.34594l1.84432,30.20397c0,0 0.25198,14.75077 -1.47545,14.75077c-15.37735,0 -33.40062,0.84081 -40.25464,0.01153c-2.28466,-0.27642 -1.42705,-15.81592 -1.42705,-15.81592z" data-paper-data="{&quot;origPos&quot;:null}" fill="#ffcb66" stroke="#000000" stroke-width="3.5" stroke-linecap="round"/><path d="M241.00098,178.8974c-1.33781,0 -1.33781,-2.45304 -1.33781,-2.45304c0,-5.0878 0,-11.81095 0,-16.89874c0,0 0,-2.45304 1.33781,-2.45304c1.33781,0 1.33781,2.45304 1.33781,2.45304c0,5.0878 0,10.17559 0,15.26338v1.63536c0,0 0,2.45304 -1.33781,2.45304z" fill="#ffffff" stroke="none" stroke-width="0.5" stroke-linecap="butt"/><path d="M253.42966,185.14302c-1.33781,0 -1.33781,-3.08171 -1.33781,-3.08171c0,-6.3917 0,-14.83788 0,-21.22958c0,0 0,-3.08171 1.33781,-3.08171c1.33781,0 1.33781,3.08171 1.33781,3.08171c0,6.3917 0,12.78341 0,19.17512v2.05447c0,0 0,3.08171 -1.33781,3.08171z" fill="#ffffff" stroke="none" stroke-width="0.5" stroke-linecap="butt"/></g><g stroke="#000000" stroke-width="0.5" stroke-linecap="butt"><path d="M256.35883,194.93068c0,6.66413 -4.77985,12.06648 -10.6761,12.06648c-5.89625,0 -10.6761,-5.40235 -10.6761,-12.06648c0,-6.66413 4.77985,-12.06648 10.6761,-12.06648c5.89625,0 10.6761,5.40235 10.6761,12.06648z" fill="#ffa924"/><path d="M248.85255,183.79926c0.00044,0.01105 0.00066,0.02233 0.00066,0.03382c0,0.61607 -0.64704,0.61607 -0.64704,0.61607h-0.1294c-0.47275,0 -2.62787,0.02751 -2.95089,-0.10592c-0.26965,-0.1114 -0.211,-0.53557 -0.40502,-0.7458c-0.1864,-0.20197 -0.45161,-0.32686 -0.70113,-0.45275c-0.3968,-0.2002 -0.93872,-0.19698 -1.23064,-0.52188c-0.26966,-0.30013 -0.30172,-0.76111 -0.27632,-1.15534c0.11927,-1.85147 1.31251,-1.87043 2.85386,-1.70348c0.46489,0.0975 0.94462,0.14483 1.39469,0.29249c0.198,0.06496 0.31616,0.29002 0.52002,0.33569c0.1449,0.03247 0.28122,-0.09645 0.42736,-0.12341c0.00624,-0.00115 1.81154,-0.24666 1.82944,-0.24908c1.2205,-0.16498 2.52573,-0.21313 3.75746,-0.12807c0.78486,0.0542 2.55826,0.23932 3.01091,0.98812c0.64463,1.06639 -1.22899,1.78797 -1.69794,1.9705c-1.38781,0.54019 -2.57241,0.20441 -3.98583,0.36118c-0.48147,0.0534 -1.25528,0.37487 -1.77019,0.58787z" fill="#1cc735"/></g></g><path d="M258.71678,157.93062c-12.08206,-0.34786 -23.79728,-0.72128 -28.54531,-1.91091c-4.33938,-1.08724 -5.55037,-3.89715 -5.55037,-3.89715c0,0 -1.66062,-2.50066 -1.68694,-4.03545c-0.07895,-4.60435 0.31185,-17.7489 1.69779,-29.04111c0.04625,-0.37687 0.0859,-0.58701 0.15453,-0.96046c0.20585,-1.12035 1.19475,-5.46163 1.19475,-5.46163c0,0 3.25217,-1.53359 5.00208,-1.93895c5.24972,-1.21608 18.39429,0.78984 32.28167,1.75124c1.25871,0.08714 3.353,1.85187 3.353,1.85187c0,0 1.41676,3.19561 1.29059,5.17512c-0.81573,12.79786 -1.76537,26.9548 -2.19444,30.18308c-0.14302,1.0761 -2.14366,5.19039 -2.14366,5.19039z" fill="#582600" stroke="#000000" stroke-width="2.5" stroke-linecap="round"/><path d="M260.28447,137.51896c0.21913,-3.43798 0.80967,-6.19871 1.319,-6.16624c0.50933,0.03245 0.74458,2.84582 0.52546,6.28379c-0.21913,3.43798 -0.80967,6.19872 -1.319,6.16625c-0.50933,-0.03245 -0.74458,-2.84583 -0.52546,-6.28381z" fill="none" stroke="#000000" stroke-width="2.5" stroke-linecap="butt"/><path d="M253.74936,137.80131c0.22319,-3.50166 0.71381,-6.32058 1.09579,-6.29622c0.38199,0.02435 0.51075,2.88275 0.28755,6.38439c-0.22319,3.50166 -0.71379,6.32056 -1.09578,6.29622c-0.38199,-0.02435 -0.51075,-2.88273 -0.28756,-6.38438z" fill="none" stroke="#000000" stroke-width="2.5" stroke-linecap="butt"/><path d="M224.77179,112.11988l0.86505,-12.97119l43.70292,2.91454l-0.86505,12.97119z" fill="#000000" stroke="none" stroke-width="0" stroke-linecap="butt"/><path d="M257.79359,130.3036c-1.92885,1.12856 -7.49643,3.89789 -8.93396,1.80908c-1.92647,-2.7993 6.16718,-7.2462 7.57433,-6.87735c0.25925,-0.06985 0.53426,-0.09881 0.81713,-0.07995c1.37765,0.09188 2.41998,1.28316 2.3281,2.66081c0.49798,0.68224 -1.25436,2.17658 -1.78561,2.48741z" fill="#582600" stroke="none" stroke-width="0.5" stroke-linecap="butt"/><g data-paper-data="{&quot;index&quot;:null}"><g data-paper-data="{&quot;origRot&quot;:0,&quot;index&quot;:null}" stroke="#000000" stroke-width="3" stroke-linecap="round"><path d="M225.95795,209.83746c0,0 -25.19106,-1.80717 -25.20687,-4.36259c-0.02853,-4.60758 2.8263,-14.86395 2.8263,-14.86395l8.55584,-28.85843c0,0 1.70706,-5.45404 2.83615,-5.68761c3.38724,-0.70071 9.55074,1.4989 16.10969,2.43567c1.09021,0.15572 0.81033,6.07362 0.81033,6.07362c0,0 -0.85125,9.2916 -1.39607,15.2387c-0.82972,9.05684 -2.12605,23.20702 -2.12605,23.20702c0,0 -0.42598,7.26246 -2.40933,6.8176z" data-paper-data="{&quot;origPos&quot;:null}" fill="#582600"/><path d="M227.24071,202.57649l-24.53798,-4.40343" fill="none"/><path d="M203.56551,194.70958l24.49603,4.63713" data-paper-data="{&quot;origPos&quot;:null}" fill="none"/></g><path d="M203.4251,193.99032l10.84762,-36.56362l1.38095,-0.44775l15.55991,2.8411l-2.99159,38.64797z" fill="#ffcb66" stroke="#000000" stroke-width="1" stroke-linecap="round"/><path d="M202.70287,198.00633l0.41935,-2.29307l25.08483,4.58732l-0.41935,2.29307z" fill="#ffffff" stroke="none" stroke-width="0" stroke-linecap="butt"/></g><path d="M231.55489,149.30028c-0.57573,-0.48066 -0.09506,-1.05638 -0.09506,-1.05638l0.45335,-0.47493c1.7936,-1.04774 3.19541,-1.37574 5.27932,-1.17378c0,0 0.74634,0.074 0.67234,0.82034c-0.074,0.74634 -0.82034,0.67235 -0.82034,0.67235c-1.76824,-0.17977 -2.85526,0.07289 -4.37003,0.97354l-0.0632,0.1438c0,0 -0.48067,0.57572 -1.05639,0.09506z" fill="#000000" stroke="none" stroke-width="0.5" stroke-linecap="butt"/></g></g></svg>