<svg version="1.1" xmlns="http://www.w3.org/2000/svg" xmlns:xlink="http://www.w3.org/1999/xlink" width="531.53003" height="406.15465" viewBox="0,0,531.53003,406.15465"><g transform="translate(27.10192,32.131)"><g data-paper-data="{&quot;isPaintingLayer&quot;:true}" fill-rule="nonzero" stroke="#000000" stroke-linejoin="miter" stroke-miterlimit="10" stroke-dasharray="" stroke-dashoffset="0" style="mix-blend-mode: normal"><g stroke-width="1.5"><path d="M-26.35192,368.76916v-391.89189h530.03003v391.89189z" fill="#4490c8" stroke-linecap="butt"/><path d="M-15.84141,373.27366v-135.13513h430.93093l81.08108,87.57057v47.56456z" fill="#f4e2a6" stroke-linecap="butt"/><path d="M390.31475,223.87426v-255.25526" fill="none" stroke-linecap="round"/></g><g stroke-width="1" stroke-linecap="butt"><g><path d="M159.48915,193.15566c0.13003,-3.59642 3.29608,-7.8475 7.26167,-7.8475c22.91199,0 232.325,0 232.325,0l42.52433,30.46519l-259.2933,8.54653l-8.39191,40.76666l-14.5773,-33.36226c0,0 -0.13449,-30.65898 0.15149,-38.56863z" fill="#74c5ff"/><path d="M173.76032,265.27931c0,0 0,-36.33544 0,-44.00034c0,-2.71133 3.58318,-5.5056 8.25217,-5.5056c26.18668,0 259.58766,0 259.58766,0v49.50594z" fill="#69b5ea"/></g><g fill="#414141"><path d="M174.07641,246.3081h-4.27327l-15.26167,-35.40707h4.27327l14.1862,32.91198l269.34537,-0.07058l0.63038,2.34345z"/><path d="M169.80315,268.28489v-21.9768h273.48908v21.9768z"/><path d="M154.54148,232.87783v-21.9768l0.6638,-0.02976l14.59787,35.43682v21.9768l-0.42202,-0.04421z"/></g></g><path d="M399.08645,209.57321c-6.85345,-2.52314 -27.74028,-19.99958 -23.30866,-24c3.56332,-3.21661 22.4638,-4.20866 26.79234,-3c4.11598,1.1493 34.48965,21.83044 29.44858,26c-3.79487,3.13881 -26.63927,3.3168 -32.93225,1z" fill="#f5f5f5" stroke-width="1.5" stroke-linecap="butt"/><g stroke-width="1.5"><path d="M182.67811,227.07321c-8.12883,-0.73863 -7.7977,4.9404 -9.98608,2.93827c-1.42386,-1.30268 -3.21194,-6.13896 -5.61829,-10.64934c-0.882,-1.65319 -3.45446,-6.23983 -4.6154,-7.72707c-1.60533,-2.05652 -0.27407,-5.97346 -1.1216,-7.63189c-1.81976,-3.56089 -4.65863,-2.92998 -4.65863,-2.92998c0,0 1.59341,-17.44452 6.95515,-17.9634c22.54726,-2.18199 192.04485,-1.0366 192.04485,-1.0366l42.5,36c0,0 3.70569,14.72675 3.62117,17.95075c-0.04251,1.6216 -4.09584,0.15584 -4.09584,0.15584c0,0 -7.62294,-6.46966 -15.50011,-6.98905c-6.40266,-0.42217 2.61367,8.47509 -14.54151,7.79115c-19.9733,-0.79629 -10.32313,-8.71585 -38.1013,-10.94009c-20.96971,-1.67907 3.35773,7.77235 -21.39791,7.11766c-6.55301,-0.1733 -8.68689,2.43562 -16.91804,1.8974c-16.52408,-1.08049 2.70278,-9.88213 -15.52319,-6.8449c-8.73022,1.45483 -10.79592,7.34092 -24.61257,6.50018c-10.13277,-0.61658 -15.90983,-4.30067 -27.08424,-6.26579c-12.73429,-2.23944 -6.17768,5.82007 -15.70965,4.57745c-3.99432,-0.52072 -3.56805,2.33624 -10.20787,-0.70297c-5.01639,-2.29613 -7.30011,-4.50898 -15.42894,-5.2476z" fill="#5b74ae" stroke-linecap="butt"/><path d="M284.17811,228.98988l1.33333,-14" fill="none" stroke-linecap="round"/><path d="M320.17811,227.65654l-1.66667,-6.33333" fill="none" stroke-linecap="round"/><path d="M379.17811,230.98988l0.66667,-9.33333" fill="none" stroke-linecap="round"/><path d="M297.01144,215.07321h88.5" fill="none" stroke-linecap="round"/><path d="M272.01144,215.07321h-90" fill="none" stroke-linecap="round"/><path d="M173.01144,212.57321l-9.5,-22.5" fill="none" stroke-linecap="round"/></g><g stroke-width="1.5" stroke-linecap="butt"><g><path d="M369.67811,244.50033l-6.5,-8.5h16l6.5,8.5z" fill="#a86f4b"/><path d="M369.42811,293.75033l-6.5,-8.5l0.25,-49.25l6.5,8.5z" fill="#a86f4b"/><path d="M369.67811,244.50033h14.5l-0.25,49.25h-14.5z" fill="#a86f4b"/></g><g fill="#a86f4b"><path d="M433.67811,244.00032l-6.5,-8.5h16l6.5,8.5z"/><path d="M433.42811,293.25032l-6.5,-8.5l0.25,-49.25l6.5,8.5z"/><path d="M433.67811,244.00033h14.5l-0.25,49.25h-14.5z"/></g><g fill="#a86f4b"><path d="M394.17811,278.00032l-6.5,-8.5h16l6.5,8.5z"/><path d="M393.92811,327.25032l-6.5,-8.5l0.25,-49.25l6.5,8.5z"/><path d="M394.17811,278.00033h14.5l-0.25,49.25h-14.5z"/></g><g fill="#a86f4b"><path d="M477.17811,279.50032l-6.5,-8.5h16l6.5,8.5z"/><path d="M476.92811,328.75032l-6.5,-8.5l0.25,-49.25l6.5,8.5z"/><path d="M477.17811,279.50033h14.5l-0.25,49.25h-14.5z"/></g><g fill="#a86f4b"><path d="M392.17811,278.50033l-29.5,-42.5v-10l29.5,42z"/><path d="M392.17811,268.00033h100v10l-100,0.5z"/><path d="M392.17811,268.00033l-29.5,-42h81.5l46.5,42z"/></g></g></g></g></svg>