<svg version="1.1" xmlns="http://www.w3.org/2000/svg" xmlns:xlink="http://www.w3.org/1999/xlink" width="95.86394" height="95.86394" viewBox="0,0,95.86394,95.86394"><g transform="translate(-192.06803,-132.06803)"><g data-paper-data="{&quot;isPaintingLayer&quot;:true}" fill-rule="nonzero" stroke-linejoin="miter" stroke-miterlimit="10" stroke-dasharray="" stroke-dashoffset="0" style="mix-blend-mode: normal"><g><path d="M233.20785,181.69479c0,0 3.91518,-6.69687 6.0625,-5.6875c3.6322,1.70736 3.58844,6.83626 1.73595,10.10879c-2.55789,4.51867 -8.11095,7.14121 -8.11095,7.14121c0,0 -1.63962,-0.10966 -2.72628,-0.50303c-0.31003,-0.11223 -1.52714,-0.82211 -2.3152,-1.87215c-1.41,-1.87875 -2.54713,-4.84644 -2.4861,-7.42828c0.03259,-1.37868 1.90821,-1.55448 2.14856,-1.56277c2.34565,-0.08089 5.69151,-0.19626 5.69151,-0.19626z" fill="#ff292e" stroke="#000000" stroke-width="1" stroke-linecap="round"/><path d="M227.45785,185.1948l4.4375,1.25l-2,3.5l0.3125,5l-3.1875,-0.4375l-2.25,2.5625c0,0 -2.15999,-3.27084 -3.24817,-4.91866c-1.09921,-1.66451 -1.17418,-6.74681 0.0656,-7.74782c1.51657,-1.22449 5.05757,-4.08352 5.05757,-4.08352z" fill="#feecf7" stroke="#000000" stroke-width="1" stroke-linecap="round"/><path d="M214.52035,188.85105c0,-3.29645 2.22642,-5.21875 5.28125,-5.21875c3.05483,0 5.40625,1.9223 5.40625,5.21875c0,3.29645 -1.97642,5.28125 -5.03125,5.28125c-3.05483,0 -5.65625,-1.9848 -5.65625,-5.28125z" fill="#f89688" stroke="#000000" stroke-width="1" stroke-linecap="butt"/><path d="M205.41246,185.18141c-0.00244,0.00007 -0.00372,0.00007 -0.00372,0.00007l-0.54306,-0.18456c-0.85114,-1.06051 -0.43848,-2.35524 0.25538,-3.4456c1.79513,-1.47903 6.13913,-5.85648 8.42503,-2.7308c1.08069,1.47771 0.97908,3.47946 1.42157,5.17347c0.04397,6.65875 -6.10687,3.24417 -9.55519,1.18742z" fill="#323344" stroke="#000000" stroke-width="1" stroke-linecap="butt"/><path d="M212.29274,180.54463c-0.63973,-0.31754 -0.38355,-1.02204 -0.38355,-1.02204c0.68649,-1.88372 3.9321,-5.78441 6.21992,-4.69679c2.34626,1.11541 0.98587,3.4681 2.332,5.02695c0.63419,0.73441 2.49312,0.75074 3.38112,1.07402c0.37876,1.05143 0.56819,1.23507 0.54229,2.30107c-0.04573,1.88203 -1.50152,3.02398 -3.39445,2.60089c-3.03194,-0.67767 -4.76674,-3.99408 -7.77161,-4.76752l-0.31565,-0.0611c0,0 -0.43849,-0.0877 -0.61006,-0.45548z" fill="#fcdfbd" stroke="none" stroke-width="0.5" stroke-linecap="butt"/><path d="M223.84223,180.92677c0.37876,1.05143 0.56819,1.23507 0.54229,2.30108c-0.04574,1.88203 -1.50152,3.02398 -3.39445,2.60089c-2.34158,-0.52337 -3.90948,-2.62063 -5.88627,-3.90485c0.76217,-0.1168 1.46128,-0.22062 1.98815,-0.21992c0.57533,0.00076 1.02431,0.24923 1.44803,0.55739c0.44587,0.61455 1.13651,1.03997 1.92879,1.13313c0.3181,0.05841 0.67493,0.04893 1.08964,-0.06401c0.11667,-0.03178 0.2349,-0.08194 0.35263,-0.14793c0.92194,-0.40203 1.58429,-1.28818 1.66588,-2.33727c0.09539,0.02514 0.18438,0.05205 0.26531,0.08152z" fill="#f89688" stroke="none" stroke-width="0.5" stroke-linecap="butt"/><path d="M212.29274,180.54463c-0.63973,-0.31754 -0.38355,-1.02204 -0.38355,-1.02204c0.68649,-1.88372 3.9321,-5.78441 6.21991,-4.69679c2.34625,1.11541 0.98587,3.46809 2.332,5.02694c0.63419,0.7344 2.49311,0.75074 3.38112,1.07403c0.37876,1.05143 0.56819,1.23507 0.54229,2.30108c-0.04574,1.88203 -1.50152,3.02398 -3.39445,2.60089c-3.03193,-0.67767 -4.76674,-3.99408 -7.77161,-4.76752l-0.31565,-0.06112c0,0 -0.43849,-0.0877 -0.61006,-0.45547z" fill="none" stroke="#000000" stroke-width="1" stroke-linecap="butt"/><path d="M213.10684,178.381c0,0.55752 -0.55752,0.55752 -0.55752,0.55752h-0.08577c-3.45734,0 -6.09984,2.35105 -6.47924,5.85122c0,0 -0.01944,0.17495 -0.13478,0.31732l0.06067,0.27265c0,0 -0.38255,0.38255 -0.7708,0.01714c-0.0723,-0.01033 -0.14461,-0.02066 -0.21691,-0.03099c0,0 -0.31225,-0.0446 -0.43346,-0.30157c-0.30252,-0.13676 -0.30252,-0.50767 -0.30252,-0.50767l0.0043,-0.15492c0.62718,-5.01617 3.20795,-7.09286 8.10121,-7.09286c0,0 0.55752,0 0.55752,0.55752c0,0.01283 -0.00029,0.02537 -0.00087,0.03761c0.1322,0.07295 0.25819,0.21199 0.25819,0.47703z" fill="#455d83" stroke="none" stroke-width="0.5" stroke-linecap="butt"/><path d="M206.09617,184.07478c-0.47845,-0.28094 -1.01737,-0.45011 -1.54519,-0.46747c-0.06953,-0.04275 -0.1431,-0.07958 -0.22002,-0.10976c0.30378,-1.62067 0.84729,-2.89125 1.64568,-3.84822c0.42025,0.61283 0.82421,1.24271 1.22844,1.86487c-0.52796,0.73025 -0.90939,1.59357 -1.10891,2.56058z" fill="#85afb1" stroke="none" stroke-width="0.5" stroke-linecap="butt"/><path d="M207.97817,178.1139c0.32415,0.6124 0.78049,1.22415 1.19016,1.65188c-0.43772,0.24491 -0.84061,0.54041 -1.20249,0.88139c-0.39069,-0.59825 -0.78088,-1.19995 -1.18608,-1.78778c0.36195,-0.29125 0.76115,-0.53908 1.19842,-0.74549z" fill="#85afb1" stroke="none" stroke-width="0.5" stroke-linecap="butt"/><path d="M213.10684,178.38101c0,0.55752 -0.55752,0.55752 -0.55752,0.55752h-0.08577c-3.45734,0 -6.09984,2.35105 -6.47925,5.85122c0,0 -0.01944,0.17495 -0.13478,0.31732l0.06066,0.27266c0,0 -0.38254,0.38255 -0.7708,0.01714c-0.0723,-0.01033 -0.14461,-0.02066 -0.21691,-0.03099c0,0 -0.31225,-0.04461 -0.43346,-0.30157c-0.30253,-0.13675 -0.30253,-0.50767 -0.30253,-0.50767l0.0043,-0.15492c0.62718,-5.01617 3.20794,-7.09286 8.10121,-7.09286c0,0 0.55752,0 0.55752,0.55752c0,0.01282 -0.00029,0.02537 -0.00087,0.03762c0.1322,0.07295 0.25819,0.21199 0.25819,0.47703z" fill="none" stroke="#000000" stroke-width="1" stroke-linecap="butt"/><path d="M221.90195,188.28568c0,0 3.14901,0.0548 3.63727,1.84015c0.39176,1.43247 -0.87917,2.50797 -1.5868,3.59262c-1.67489,2.56722 -4.19562,6.89527 -7.62927,4.35056c-0.71624,-0.64058 -1.24728,-1.30653 -1.83506,-2.06224l-0.08089,-0.07925c-1.08769,0.52777 -2.15398,0.5729 -2.78589,-0.03415c-0.66899,-0.64267 -1.25876,-1.98035 -1.83629,-2.91391c-1.47918,0.2268 -3.0924,0.47174 -4.27238,-0.4525c-1.13481,-0.88885 -0.86445,-1.96358 -0.86445,-3.20353c0,-3.47314 2.1445,-6.30019 5.27936,-7.72803c1.54908,-0.91507 3.15511,-2.36212 5.07733,-2.47179c1.35188,-0.07712 2.17564,0.71735 2.71759,1.65547c0.62528,1.08238 0.82616,2.40525 0.22684,3.60454c1.23845,0.21146 2.44224,0.92722 3.26166,1.82293c0.80239,0.8771 0.4657,1.27898 0.69095,2.07912z" fill="#fde0be" stroke="none" stroke-width="0.5" stroke-linecap="butt"/><path d="M225.53922,190.12584c0.39176,1.43249 -0.87916,2.50797 -1.5868,3.59261c-1.6749,2.56722 -4.19562,6.89528 -7.62927,4.35057c-0.71624,-0.64058 -1.24728,-1.30653 -1.83505,-2.06224l-0.08089,-0.07925c-1.08769,0.52777 -2.15398,0.5729 -2.78589,-0.03415c-0.66899,-0.64267 -1.25875,-1.98036 -1.83628,-2.91392c-1.47918,0.2268 -3.09239,0.47174 -4.27237,-0.4525c-1.13481,-0.88886 -0.86445,-1.96358 -0.86445,-3.20353c0,-1.1619 0.24,-2.25149 0.6768,-3.24057c0.06905,0.18525 0.11288,0.36848 0.09986,0.55711l0.00624,0.00687c-0.08831,1.14809 0.28001,2.06245 0.92999,2.66227c0.50797,0.53536 1.22625,0.8692 2.0225,0.8692c0.28811,0 0.56601,-0.04371 0.82743,-0.12485c0.28228,-0.04517 0.57132,-0.11919 0.86372,-0.2236c1.27164,-0.45408 3.0421,-1.47285 4.71127,-2.77656c-0.32974,0.89179 -0.60198,1.77879 -0.78491,2.50196c-0.14678,0.33914 -0.22813,0.71319 -0.22813,1.10625c0,0.23414 0.02887,0.46153 0.08323,0.67882c0,1.58975 1.23761,2.1392 2.48347,2.10017c0.07289,0.00571 0.14656,0.00863 0.22091,0.00863c0.61334,0 1.18042,-0.19809 1.64075,-0.53377c0.15082,-0.09418 0.28205,-0.19829 0.38753,-0.31007c0.11895,-0.12606 0.24453,-0.26711 0.37493,-0.4207c0.20701,0.12214 -0.91017,2.15217 -0.67926,2.21879c0.68324,0.19715 2.79228,-1.80686 3.55118,-2.29642c0.60806,-0.39225 0.99462,-0.84172 1.20762,-1.31175c0.29544,-0.44244 0.46769,-0.97415 0.46769,-1.54609c0,-0.25873 -0.03525,-0.50923 -0.1012,-0.74696c0.88262,0.22574 1.87293,0.68606 2.12937,1.62371z" fill="#f89688" stroke="none" stroke-width="0.5" stroke-linecap="butt"/><path d="M221.90195,188.28568c0,0 3.14901,0.0548 3.63727,1.84015c0.39176,1.43249 -0.87916,2.50797 -1.5868,3.59261c-1.6749,2.56722 -4.19562,6.89528 -7.62927,4.35057c-0.71624,-0.64058 -1.24728,-1.30653 -1.83505,-2.06224l-0.08089,-0.07925c-1.08769,0.52777 -2.15398,0.5729 -2.78589,-0.03415c-0.66899,-0.64267 -1.25875,-1.98036 -1.83628,-2.91392c-1.47918,0.2268 -3.09239,0.47174 -4.27237,-0.4525c-1.13481,-0.88886 -0.86445,-1.96358 -0.86445,-3.20353c0,-3.47314 2.14449,-6.30019 5.27934,-7.72803c1.54908,-0.91507 3.15511,-2.36212 5.07734,-2.47179c1.35188,-0.07712 2.17564,0.71735 2.71757,1.65547c0.62528,1.08238 0.82616,2.40525 0.22684,3.60454c1.23846,0.21146 2.44224,0.92722 3.26166,1.82294c0.8024,0.8771 0.4657,1.27898 0.69095,2.07912z" fill="none" stroke="#000000" stroke-width="1" stroke-linecap="butt"/><path d="M212.91814,188.13404l5.27787,-3.41947" fill="none" stroke="#000000" stroke-width="1" stroke-linecap="round"/><path d="M221.61548,188.50571l-3.56814,3.64248" fill="none" stroke="#000000" stroke-width="1" stroke-linecap="round"/><path d="M197.71065,176.79421c0,-4.76077 3.4305,-8.96324 8.19128,-8.96324c2.54336,0 4.02088,1.11382 5.48469,2.79736c0.49317,0.5672 1.25071,1.66998 1.66777,2.83639c0.6622,1.85198 0.25705,3.6928 0.13902,3.97655c-0.09399,0.22595 -2.9823,-1.47269 -5.91347,0.8329c-2.98982,2.35174 -3.6081,6.62555 -3.6081,6.62555c0,0 -2.19122,-0.40513 -3.59682,-1.69748c-1.56628,-1.44009 -2.36437,-3.89895 -2.36437,-6.40805z" fill="#465e85" stroke="#000000" stroke-width="0" stroke-linecap="butt"/><path d="M197.71065,176.79421c0,-0.59778 0.05409,-1.18675 0.1581,-1.75972c0.04661,0.08248 0.10139,0.15973 0.16322,0.23067l0.00423,0.02115l0.03564,0.02268c0.16287,0.17163 0.36899,0.30183 0.6009,0.37315l0.22682,0.07561l0.14231,0.01095l0.12571,0.08381l0.08295,0.02963l0.06687,0.05731l0.09021,0.0451l0.00777,0.01359l0.03884,0.00971l0.03473,0.01737l0.31264,0.06948l0.3107,0.07767h0.03884l0.03908,0.00869l0.01302,-0.00869h0.02921l0.02847,0.0244l0.09021,0.0451l0.00777,0.01359l0.03884,0.00971l0.03473,0.01737l0.31264,0.06948l0.3107,0.07767h0.03884l0.03908,0.00869l0.01302,-0.00869h7.19568l0.03644,0.0081l0.3107,0.07767h0.03884l0.03908,0.00869l0.01302,-0.00869h0.21787l0.02239,0.01425l0.51464,0.17155l0.17564,0.01351l0.2975,0.06611l0.3107,0.07767h0.03884l0.03908,0.00869l0.01302,-0.00869h0.47518l0.02239,0.01425l0.16334,0.05445l0.17316,0.08657l0.00777,0.01359l0.03884,0.00971l0.03473,0.01737l0.26154,0.05813c-1.12652,-0.16211 -2.71048,-0.09436 -4.30718,1.16158c-2.98982,2.35174 -3.6081,6.62555 -3.6081,6.62555c0,0 -2.19122,-0.40513 -3.59682,-1.69748c-1.56628,-1.44009 -2.36437,-3.89895 -2.36437,-6.40805z" fill="#323344" stroke="#000000" stroke-width="0" stroke-linecap="butt"/><path d="M202.46943,172.06373l0.00336,0.01677l-0.02194,-0.0117z" fill="#323344" stroke="#000000" stroke-width="0" stroke-linecap="butt"/><path d="M197.71065,176.79421c0,-4.76078 3.43051,-8.96324 8.19128,-8.96324c2.54336,0 4.02087,1.11382 5.48468,2.79736c0.49317,0.5672 1.2507,1.66998 1.66777,2.83639c0.6622,1.85197 0.25706,3.6928 0.13903,3.97655c-0.09399,0.22595 -2.98229,-1.47269 -5.91347,0.83292c-2.98982,2.35174 -3.6081,6.62555 -3.6081,6.62555c0,0 -2.19123,-0.40512 -3.59683,-1.69748c-1.56628,-1.44009 -2.36437,-3.89895 -2.36437,-6.40804z" fill="none" stroke="#000000" stroke-width="1" stroke-linecap="butt"/><path d="M202.08506,183.95622c0,0 0.16091,-5.90249 3.22562,-7.94111c3.24051,-2.15557 7.83904,0.05003 7.83904,0.05003" fill="none" stroke="#000000" stroke-width="1" stroke-linecap="round"/><path d="M198.8257,181.12573c0,0 1.37951,-5.41231 4.24832,-8.29885c2.60453,-2.62062 7.93139,-1.9081 7.93139,-1.9081" fill="none" stroke="#000000" stroke-width="1" stroke-linecap="round"/><path d="M197.88219,175.80783c0,0 2.83785,-3.91792 4.46749,-5.29338c1.47036,-1.24104 4.88173,-2.5977 4.88173,-2.5977" fill="none" stroke="#000000" stroke-width="1" stroke-linecap="round"/><path d="M203.80051,182.24078c0,0 -2.59851,-0.57733 -3.5811,-1.19867c-0.96111,-0.60777 -2.25143,-2.48955 -2.25143,-2.48955" fill="none" stroke="#000000" stroke-width="1" stroke-linecap="round"/><path d="M204.82977,181.21151c0,0 -2.94556,-1.49774 -4.17701,-2.45887c-1.09756,-0.85662 -2.85634,-3.03058 -2.85634,-3.03058" fill="none" stroke="#000000" stroke-width="1" stroke-linecap="round"/><path d="M205.6875,179.49605c0,0 -2.92413,-1.87116 -3.89024,-3.19107c-1.05585,-1.4425 -2.1996,-5.12888 -2.1996,-5.12888" fill="none" stroke="#000000" stroke-width="1" stroke-linecap="round"/><path d="M201.82774,168.94602c0,0 2.79364,4.0376 3.66919,5.71187c0.72595,1.38822 1.21986,3.63735 1.21986,3.63735" fill="none" stroke="#000000" stroke-width="1" stroke-linecap="round"/><path d="M205.17287,167.91675c0,0 2.18011,2.45273 2.82107,3.90187c0.67268,1.52084 1.12447,5.01848 1.12447,5.01848" fill="none" stroke="#000000" stroke-width="1" stroke-linecap="round"/><path d="M210.405,169.97529c0,0 0.72682,2.05409 0.8806,3.15846c0.16044,1.15228 0.06291,3.61758 0.06291,3.61758" fill="none" stroke="#000000" stroke-width="1" stroke-linecap="round"/></g><g><g stroke="#000000" stroke-width="1"><path d="M252.69964,182.73523c0,-1.53387 0.31547,-4.99917 1.32734,-5.99764c0.99434,-0.98116 9.68564,4.98037 9.68564,5.99764c0,3.04115 -2.41339,5.09091 -5.45454,5.09091c-3.04115,0 -5.55844,-2.04976 -5.55844,-5.09091z" fill="#d90250" stroke-linecap="butt"/><path d="M262.31004,174.47548c0,0 -1.14583,3.18296 -0.17478,3.99391c1.50924,1.2604 5.88907,0.83726 5.88907,0.83726c0,0 -2.44714,1.85716 -2.92096,3.08046c-0.47852,1.23545 0.06381,4.29616 0.06381,4.29616c0,0 -2.42769,-4.05732 -4.38107,-3.99147c-0.88372,0.02979 -1.07348,2.01744 -1.07348,2.01744c0,0 -1.39632,-3.38831 -2.27085,-4.22562c-0.72495,-0.6941 -2.61226,-0.4497 -2.61226,-0.4497c0,0 -0.01778,-1.28272 -0.46809,-3.11848c-0.25303,-1.0315 -1.60984,-2.90749 -1.60984,-2.90749c0,0 3.58372,1.21425 5.2469,1.2956c1.50767,0.07374 4.31154,-0.82807 4.31154,-0.82807z" fill="#fdebf6" stroke-linecap="round"/></g><g stroke="#000000" stroke-linecap="round"><path d="M216.12821,198.89106c0,0 1.80667,-6.93923 2.11723,-8.13208c0.08761,-0.3365 0.8114,-0.59868 1.6187,-0.53784c0.73772,0.0556 2.39749,0.22758 4.53715,0.38695c9.71077,0.72329 30.32432,2.20505 30.32432,2.20505l0.31169,15.16883z" fill="#4fa6ed" stroke-width="0"/><path d="M254.72561,192.81314l0.31169,15.16883l-13.5994,-3.17743c-0.26487,-1.39792 -1.01829,-6.75002 -1.75514,-7.1849c-0.49515,-0.86653 -3.05372,-0.1427 -4.05988,0.10555c-2.23072,0.55039 -6.69201,1.45215 -8.14126,3.81854l-3.88452,-0.9076c1.16177,-0.89254 2.14088,-2.02634 2.77165,-3.11327c0.58228,-1.00338 1.88124,-3.31432 1.24133,-4.27418l-2.64347,-2.59855c9.92162,0.73703 29.75899,2.163 29.75899,2.163z" fill="#2e67e5" stroke-width="0"/><path d="M216.12821,198.89106c0,0 1.80667,-6.93923 2.11723,-8.13208c0.08761,-0.3365 0.8114,-0.59868 1.6187,-0.53784c0.73772,0.0556 2.39749,0.22758 4.53715,0.38695c9.71077,0.72329 30.32432,2.20505 30.32432,2.20505l0.31169,15.16883z" fill="none" stroke-width="1"/></g><path d="M227.76458,185.38458l6.54545,-4.83117l-0.98701,-5.81818c0,0 6.76544,-2.59679 8.81376,-3.27347c0.98881,-0.32666 2.82261,-0.57069 2.82261,-0.57069c0,0 4.65328,1.37707 7.9239,4.74913c2.43302,2.50849 4.23706,6.9441 4.76055,8.80674c0.25094,0.89288 -0.58913,3.18066 -1.03263,4.99336c-0.35143,1.43636 -0.20257,2.40044 -0.83594,3.36214c-1.46874,2.23015 -3.4912,2.03667 -3.4912,2.03667c0,0 -1.43077,0.13353 -2.04456,-0.037c-0.79784,-0.22166 -2.33679,-1.18029 -2.33679,-1.18029c0,0 -13.64238,-1.26786 -16.57367,-2.39815c-3.35867,-1.29508 -3.56446,-5.83911 -3.56446,-5.83911z" fill="#ff292e" stroke="#000000" stroke-width="0" stroke-linecap="round"/><path d="M257.64384,184.44694c0.25094,0.89288 -0.58913,3.18066 -1.03263,4.99336c-0.35143,1.43636 -0.20257,2.40044 -0.83594,3.36214c-1.46874,2.23015 -3.4912,2.03667 -3.4912,2.03667c0,0 -1.43077,0.13353 -2.04456,-0.037c-0.79784,-0.22166 -2.33679,-1.18029 -2.33679,-1.18029c0,0 -3.76343,-0.34976 -7.7617,-0.84564c1.69769,-0.98854 3.27948,-2.90617 4.04483,-3.64811c3.86602,-3.74775 2.12901,-6.37984 2.56099,-7.4144c0.05251,-0.12577 0.03472,-0.2791 0.16875,-0.35507c0.21452,-0.12158 1.92597,2.50311 1.87438,2.85476c-0.32287,2.20085 -2.3182,5.41094 0.17757,7.20979c0.12003,0.08651 2.27738,1.13129 2.65555,0.69276c0.18027,-0.20904 1.97885,-1.29996 2.3882,-2.45199c1.20095,-3.37989 1.50946,-9.2618 1.34812,-10.55705c1.14812,2.05457 1.96088,4.18878 2.28444,5.34005z" fill="#d90251" stroke="#000000" stroke-width="0" stroke-linecap="butt"/><g><path d="M237.57359,210.93085c0,0 -2.38284,1.55187 -3.22615,1.46377c-0.63812,-0.06667 -1.46951,-1.1585 -2.00449,-1.9701c-0.32234,-0.48902 -0.55342,-0.58603 -0.61147,-0.15933c-0.12733,0.93581 -0.45529,2.52782 -1.2515,3.15301c-1.20887,0.94921 -6.97012,0.31073 -7.286,0.45007c-3.44544,1.5199 -7.3625,2.97426 -10.62565,3.47012c-1.0431,0.15851 -2.46458,-1.5188 -2.46458,-1.5188c0,0 -3.66397,1.40371 -5.85437,-1.63326c-0.80668,-1.11845 -1.039,-3.61198 -1.10218,-4.65492c-0.00803,-0.13245 -0.09419,-0.36737 -0.00802,-0.5478c0.10519,-0.22028 2.18212,-2.03821 2.95141,-2.10809c4.44933,-0.40417 29.66226,-0.29206 29.66226,-0.29206c0,0 1.34573,0.71151 1.55548,1.42748c0.25653,0.87565 0.26524,2.91992 0.26524,2.91992z" fill="#f38285" stroke="#000000" stroke-width="0" stroke-linecap="round"/><path d="M234.34743,212.39464c-0.63813,-0.06667 -1.46952,-1.1585 -2.00449,-1.9701c-0.32234,-0.48902 -0.55342,-0.58603 -0.61147,-0.15933c-0.12733,0.93581 -0.45529,2.52782 -1.2515,3.15301c-1.20887,0.94921 -6.97011,0.31072 -7.28599,0.45007c-1.99601,0.88051 -4.1503,1.73901 -6.24404,2.40191c0.28435,-0.92786 0.43738,-1.91314 0.43738,-2.93416c0,-2.58013 -0.97714,-4.93203 -2.58155,-6.70583c8.90797,-0.10028 20.94709,-0.04674 20.94709,-0.04674c0,0 1.34573,0.71151 1.55548,1.42748c0.25653,0.87565 0.26524,2.91992 0.26524,2.91992c0,0 -2.38284,1.55188 -3.22615,1.46377z" fill="#e96698" stroke="#000000" stroke-width="0" stroke-linecap="round"/><path d="M237.57359,210.93085c0,0 -2.38284,1.55187 -3.22615,1.46377c-0.63812,-0.06667 -1.46951,-1.1585 -2.00449,-1.9701c-0.32234,-0.48902 -0.55342,-0.58603 -0.61147,-0.15933c-0.12733,0.93581 -0.45529,2.52782 -1.2515,3.15301c-1.20887,0.94921 -6.97012,0.31073 -7.286,0.45007c-3.44544,1.5199 -7.3625,2.97426 -10.62565,3.47012c-1.0431,0.15851 -2.46458,-1.5188 -2.46458,-1.5188c0,0 -3.66397,1.40371 -5.85437,-1.63326c-0.80668,-1.11845 -1.039,-3.61198 -1.10218,-4.65492c-0.00803,-0.13245 -0.09419,-0.36737 -0.00802,-0.5478c0.10519,-0.22028 2.18212,-2.03821 2.95141,-2.10809c4.44933,-0.40417 29.66226,-0.29206 29.66226,-0.29206c0,0 1.34573,0.71151 1.55548,1.42748c0.25653,0.87565 0.26524,2.91992 0.26524,2.91992z" fill="none" stroke="#000000" stroke-width="1" stroke-linecap="round"/><path d="M215.92117,200.31568l0.61539,-3.79487l9.12821,-2.25641l1.97306,4.29813c0,0 1.2416,-1.35972 2.96496,-2.00159c1.32804,-0.49462 3.15044,0.97866 3.62452,1.20893c1.27221,0.61793 2.20669,1.7253 2.20669,1.7253l0.82052,7.17949c0,0 -1.99578,1.78611 -3.90913,2.20274c-2.65957,0.57912 -10.56023,0.94795 -10.56023,0.94795c0,0 -2.61291,1.93389 -6.04966,2.77263c-3.10767,0.75842 -6.98247,0.47178 -8.51769,-0.24516c-0.45383,-0.21193 -1.96413,-1.18658 -2.55081,-2.44496c-0.76821,-1.64774 -0.46587,-3.78196 0.69282,-5.32731c1.05145,-1.40232 3.26334,-1.28908 5.23389,-1.97618c2.31042,-0.80561 4.32748,-2.28868 4.32748,-2.28868z" fill="#f27056" stroke="#000000" stroke-width="0" stroke-linecap="round"/><path d="M215.92117,200.31568l0.61539,-3.79487l9.12821,-2.25641l0.52515,1.14398c-0.21229,0.94728 -0.43449,3.45915 -0.43449,3.77726c0,0.69036 0.55965,1.25 1.25,1.25c0.65287,0 0.81891,-1.21481 0.82142,-1.25c0.02215,-0.31008 0.58335,-0.83859 0.74433,-1.45979c0.51823,-0.40309 1.22172,-0.86327 2.03161,-1.16491c1.32804,-0.49462 3.15044,0.97866 3.62452,1.20893c0.46722,0.22694 0.88889,0.51988 1.23545,0.79975c-1.55191,0.97604 -3.41977,3.23627 -4.89524,3.92193c-1.74905,0.8128 -3.65663,0.39984 -5.48096,1.09979c-1.61091,0.61807 -6.72237,3.833 -9.32747,6.35695c-0.83742,0.34883 -1.44441,1.13999 -1.5292,2.08171c-0.01901,0.0793 -0.02907,0.1551 -0.02963,0.22707c-0.00084,0.10856 0.0126,0.21126 0.03835,0.30889c0.01747,0.14173 0.04679,0.27978 0.08695,0.41314c-2.47819,0.20837 -4.95384,-0.08741 -6.10775,-0.62628c-0.45383,-0.21193 -1.96413,-1.18658 -2.55081,-2.44496c-0.76821,-1.64774 -0.46587,-3.78196 0.69282,-5.32731c1.05145,-1.40232 3.26334,-1.28908 5.23389,-1.97618c2.31042,-0.80561 4.32748,-2.28868 4.32748,-2.28868z" fill="#f79d58" stroke="#000000" stroke-width="0" stroke-linecap="round"/><path d="M227.43399,199.36422c0,0 2.75362,-2.96429 4.03571,-2.96429c1.28209,0 3.96429,2.25 3.96429,2.25c0,0 -1.96791,2.60714 -3.25,2.60714c-1.15461,0 -4.75,-1.89285 -4.75,-1.89285z" fill="#000000" stroke="none" stroke-width="0.5" stroke-linecap="butt"/><path d="M215.92117,200.31568l0.61538,-3.79487l9.12821,-2.25641l1.97305,4.29812c0,0 1.24161,-1.35972 2.96497,-2.00158c1.32803,-0.49462 3.15044,0.97866 3.62452,1.20893c1.27221,0.61793 2.20669,1.7253 2.20669,1.7253l0.82051,7.17949c0,0 -1.99578,1.78612 -3.90912,2.20275c-2.65957,0.57912 -10.56024,0.94795 -10.56024,0.94795c0,0 -2.61291,1.93389 -6.04966,2.77262c-3.10767,0.75842 -6.98247,0.47178 -8.51769,-0.24515c-0.45383,-0.21194 -1.96412,-1.18658 -2.55081,-2.44496c-0.76821,-1.64774 -0.46587,-3.78196 0.69282,-5.32731c1.05144,-1.40232 3.26334,-1.28908 5.23388,-1.97618c2.31042,-0.8056 4.32748,-2.28868 4.32748,-2.28868z" fill="none" stroke="#000000" stroke-width="1" stroke-linecap="round"/><path d="M223.36332,201.30195c-0.12621,0.87821 -1.84164,1.35722 -3.61418,1.61292c0.68482,0.40756 1.18157,0.74011 1.18157,0.95413c0,0.66506 -2.47803,0.83807 -5.02232,0.8283c0.96959,1.23472 1.76854,2.61519 0.21631,2.61519c-0.54558,0 -1.66896,-1.28019 -2.5092,-2.66695c-1.06493,-0.04195 -1.99226,-0.10183 -2.5597,-0.15111c-0.06617,0.0191 -0.1361,0.02934 -0.20842,0.02934c-0.1356,0 -0.26279,-0.03599 -0.37256,-0.09893c-0.22552,-0.12933 -0.37744,-0.37246 -0.37744,-0.65107c0,-0.3862 0.2919,-0.70422 0.66712,-0.74547c0.52304,-0.36552 1.17933,-0.47106 1.89524,-0.45146c-0.1632,-0.60498 -0.13687,-1.08001 0.1936,-1.26884c0.42543,-0.2431 1.20003,-0.2756 2.13842,-0.24049c-0.74581,-0.74802 -1.49359,-1.73662 -0.86851,-2.33205c0.33684,-0.32086 1.59157,-0.68368 3.06231,-1.00616c0.29091,-0.16426 0.76805,-0.25939 1.33229,-0.2713c2.1021,-0.39899 4.2231,-0.67739 4.56763,-0.6247c0.39495,0.06039 0.75,0.16659 0.75,0.75c0,0.60096 -0.51993,0.99518 -1.28005,1.25237c0.60783,0.59755 0.96001,1.40787 0.8079,2.4663zM221.44656,200.82154c0.34602,-0.14426 -0.4831,-0.59613 -0.59642,-0.95347c-0.07844,-0.24738 -0.23301,-0.46348 -0.42963,-0.64314c-1.66201,0.14292 -3.37472,0.04453 -3.71032,0.06073c-0.23669,0.01143 -0.92691,0.23863 -0.92525,0.30523c0.01305,0.52411 0.51392,1.069 1.19848,1.59177c1.59584,0.09293 3.28677,0.12932 4.46314,-0.36112zM215.07982,202.90572c-0.40419,-0.19235 -0.76074,-0.37098 -0.72804,-0.12847c0.24306,0.04191 0.48653,0.08618 0.72804,0.12847z" fill="#efdee9" stroke="none" stroke-width="0.5" stroke-linecap="butt"/><path d="M223.36333,201.30195c-0.12622,0.87821 -1.84164,1.35722 -3.61418,1.61292c0.68482,0.40756 1.18156,0.7401 1.18156,0.95413c0,0.66506 -2.47803,0.83808 -5.02232,0.8283c0.96959,1.23471 1.76854,2.61519 0.2163,2.61519c-0.54559,0 -1.66895,-1.28018 -2.5092,-2.66695c-1.06493,-0.04195 -1.99226,-0.10183 -2.5597,-0.15112c-0.06617,0.0191 -0.13609,0.02934 -0.20841,0.02934c-0.1356,0 -0.2628,-0.03598 -0.37256,-0.09893c-0.22552,-0.12932 -0.37744,-0.37246 -0.37744,-0.65107c0,-0.3862 0.2919,-0.70423 0.66711,-0.74547c0.52305,-0.36552 1.17934,-0.47106 1.89524,-0.45146c-0.1632,-0.60498 -0.13687,-1.08 0.1936,-1.26884c0.42543,-0.2431 1.20003,-0.2756 2.13842,-0.24049c-0.74581,-0.74802 -1.49359,-1.73663 -0.86851,-2.33205c0.33684,-0.32086 1.59158,-0.68367 3.06231,-1.00616c0.29091,-0.16426 0.76805,-0.25939 1.33228,-0.2713c2.10209,-0.39898 4.2231,-0.67739 4.56763,-0.62471c0.39496,0.0604 0.75,0.16659 0.75,0.75c0,0.60096 -0.51993,0.99518 -1.28004,1.25237c0.60783,0.59755 0.96001,1.40787 0.8079,2.4663zM221.44657,200.82154c0.34602,-0.14425 -0.48311,-0.59613 -0.59642,-0.95348c-0.07845,-0.24737 -0.233,-0.46348 -0.42963,-0.64313c-1.66201,0.14292 -3.37472,0.04452 -3.71032,0.06072c-0.23669,0.01142 -0.92692,0.23863 -0.92525,0.30523c0.01304,0.52411 0.51392,1.069 1.19848,1.59177c1.59584,0.09294 3.28677,0.12932 4.46315,-0.36112zM215.07983,202.90572c-0.40419,-0.19234 -0.76074,-0.37098 -0.72804,-0.12847c0.24307,0.04191 0.48654,0.08618 0.72804,0.12847z" fill="none" stroke="#000000" stroke-width="1" stroke-linecap="butt"/></g><g><g stroke="#000000"><path d="M238.82951,205.88038c0,0 1.5573,-1.68619 11.89481,-1.21113c10.08872,0.46363 16.62467,2.25009 16.62467,2.25009l-0.10389,6.7013c0,0 -1.37853,1.51311 -2.1519,2.16535c-0.63742,0.53758 -2.15979,1.47102 -2.15979,1.47102l-1.24676,-0.98702l-0.62337,2.02598c0,0 -4.02908,1.95244 -6.2997,2.31968c-2.98677,0.48307 -6.94706,0.32967 -6.94706,0.32967l-1.35065,-1.55844l-0.98701,1.4026c0,0 -7.0457,-1.28854 -8.11763,-6.01985c-1.06614,-4.70571 1.46828,-8.88924 1.46828,-8.88924z" fill="#f38285" stroke-width="0" stroke-linecap="round"/><path d="M267.34899,206.91934l-0.10389,6.7013c0,0 -1.37853,1.51311 -2.1519,2.16535c-0.63742,0.53758 -2.15979,1.47102 -2.15979,1.47102l-1.24676,-0.98702l-0.62337,2.02598c0,0 -4.02908,1.95244 -6.2997,2.31968c-1.14498,0.18518 -2.43301,0.27684 -3.58616,0.31945c4.47623,-2.95709 8.80818,-4.33279 9.46105,-10.57623c0.1423,-1.36082 0.32603,-3.34162 -0.29529,-4.78476c4.42361,0.63946 7.00581,1.34525 7.00581,1.34525z" fill="#e96698" stroke-width="0" stroke-linecap="butt"/><path d="M238.82951,205.88038c0,0 1.5573,-1.68619 11.89481,-1.21113c10.08872,0.46363 16.62467,2.25009 16.62467,2.25009l-0.10389,6.7013c0,0 -1.37853,1.51311 -2.1519,2.16535c-0.63742,0.53758 -2.15979,1.47102 -2.15979,1.47102l-1.24676,-0.98702l-0.62337,2.02598c0,0 -4.02908,1.95244 -6.2997,2.31968c-2.98677,0.48307 -6.94706,0.32967 -6.94706,0.32967l-1.35065,-1.55844l-0.98701,1.4026c0,0 -7.0457,-1.28854 -8.11763,-6.01985c-1.06614,-4.70571 1.46828,-8.88924 1.46828,-8.88924z" fill="none" stroke-width="1" stroke-linecap="round"/></g><path d="M241.02665,201.59831c0,0 -0.16113,-1.39132 0.83177,-2.4497c0.83775,-0.89299 2.76154,-1.45452 3.62241,-1.69853c2.38877,-0.67707 5.54691,-0.99258 7.61229,-0.93073c1.04307,0.03123 1.7958,1.00507 2.22024,1.74876c0.26481,0.464 1.47051,-1.05415 2.4616,-1.18214c0.51031,-0.06591 1.241,1.39616 1.29032,1.60632c0.27224,1.16 -0.46485,3.6929 -0.46485,3.6929c0,0 0.55816,0.68997 1.86673,1.27423c1.03935,0.46406 2.76995,0.7404 3.51636,1.41464c1.50659,1.3609 1.82454,4.21388 1.60024,5.17225c-0.24267,1.03685 -3.9622,4.09279 -8.88811,5.69858c-4.94282,1.6113 -11.0967,1.76786 -14.05848,0.12839c-4.16169,-2.30368 -1.99875,-5.63074 -3.73745,-8.31564c-1.08094,-1.66919 -1.81499,-3.6801 -2.00342,-6.10256c-0.17057,-2.19284 1.96643,-1.49939 1.96643,-1.49939l2.16393,1.44263z" fill="#000000" stroke="#000000" stroke-width="0" stroke-linecap="round"/><path d="M241.85842,199.14863c0.83775,-0.893 2.76153,-1.45453 3.62241,-1.69853c2.38877,-0.67707 5.54691,-0.99258 7.61229,-0.93073c1.04307,0.03123 1.7958,1.00507 2.22024,1.74876c0.12484,0.21875 0.32768,0.06251 0.74971,-0.2465c0.24134,1.38489 1.33505,3.38885 1.76753,3.8773c0.27689,0.31272 0.59618,0.53046 0.94266,0.66744c0.25423,0.24382 0.79832,0.6932 1.69391,1.09308c1.03934,0.46406 2.76994,0.7404 3.51636,1.41464c1.50659,1.3609 1.82454,4.21388 1.60024,5.17225c-0.24267,1.03686 -3.9622,4.0928 -8.88811,5.69858c-4.94281,1.61129 -11.09669,1.76786 -14.05848,0.12839c-4.1617,-2.30368 -1.99875,-5.63074 -3.73745,-8.31564c-0.39041,-0.60287 -0.73557,-1.25031 -1.02611,-1.94562c1.44896,-0.35535 2.86577,-1.1564 3.48748,-1.91535c1.02413,-1.2502 0.74361,-2.73538 -0.06577,-3.8863c0.12523,-0.28958 0.30525,-0.5869 0.56311,-0.86176z" fill="#f27056" stroke="#000000" stroke-width="0" stroke-linecap="round"/><path d="M241.85842,199.14863c0.83775,-0.893 2.76153,-1.45453 3.62241,-1.69853c1.93411,-0.5482 4.3726,-0.85938 6.32706,-0.92514c-0.81693,1.80489 -0.30703,5.20341 0.53947,7.30698c0.42385,1.05329 2.5756,1.46263 4.50623,2.2612c1.73506,0.71768 3.29154,1.87585 3.25475,1.96104c-2.24437,5.19674 -10.33761,4.35496 -13.11812,7.14551c-0.54778,0.44603 -0.90301,1.11946 -0.92179,1.8764c-1.35367,-0.17705 -2.53773,-0.50819 -3.43126,-1.00279c-4.1617,-2.30368 -1.99875,-5.63074 -3.73745,-8.31564c-0.39041,-0.60287 -0.73557,-1.25031 -1.02611,-1.94562c1.44896,-0.35535 2.86577,-1.1564 3.48748,-1.91535c1.02413,-1.2502 0.74361,-2.73538 -0.06577,-3.8863c0.12523,-0.28958 0.30525,-0.5869 0.56311,-0.86176z" fill="#f79d58" stroke="#000000" stroke-width="0" stroke-linecap="butt"/><path d="M241.02665,201.59831c0,0 -0.16113,-1.39132 0.83177,-2.4497c0.83775,-0.89299 2.76154,-1.45452 3.62241,-1.69853c2.38877,-0.67707 5.54691,-0.99258 7.61229,-0.93073c1.04307,0.03123 1.7958,1.00507 2.22024,1.74876c0.26481,0.464 1.47051,-1.05415 2.4616,-1.18214c0.51031,-0.06591 1.241,1.39616 1.29032,1.60632c0.27224,1.16 -0.46485,3.6929 -0.46485,3.6929c0,0 0.55816,0.68997 1.86673,1.27423c1.03935,0.46406 2.76995,0.7404 3.51636,1.41464c1.50659,1.3609 1.82454,4.21388 1.60024,5.17225c-0.24267,1.03685 -3.9622,4.09279 -8.88811,5.69858c-4.94282,1.6113 -11.0967,1.76786 -14.05848,0.12839c-4.16169,-2.30368 -1.99875,-5.63074 -3.73745,-8.31564c-1.08094,-1.66919 -1.81499,-3.6801 -2.00342,-6.10256c-0.17057,-2.19284 1.96643,-1.49939 1.96643,-1.49939l2.16393,1.44263z" fill="none" stroke="#000000" stroke-width="1" stroke-linecap="round"/><g stroke-linecap="butt"><path d="M252.5393,199.88264c0.33541,0.67082 -0.33541,1.00623 -0.33541,1.00623l-0.28805,0.14305c0.5596,0.02759 1.12093,0.04773 1.68439,0.04974l0.74487,0.13696c0.11233,0.00088 0.23865,0.03169 0.37833,0.10851c0.01207,0.00664 0.0238,0.01338 0.0352,0.02022c0.10958,0.0623 0.22778,0.1599 0.29716,0.30922c0.07127,0.14842 0.07158,0.30171 0.05011,0.42592c-0.00196,0.01314 -0.0042,0.02648 -0.00674,0.04002c-0.03069,0.16366 -0.09089,0.28417 -0.166,0.37263c-0.53966,0.9156 -1.17733,1.59747 -1.87592,2.14471c0.44693,0.02105 0.89431,0.04362 1.34243,0.06754c0.13178,-0.02352 0.28547,-0.00723 0.4564,0.08619c0.12846,0.05748 0.26734,0.15699 0.34667,0.3288c0.08984,0.16654 0.08613,0.33736 0.05503,0.47461c-0.03493,0.24208 -0.15084,0.38946 -0.28308,0.47906l-0.30906,0.36081c-0.31457,0.16901 -0.62234,0.3469 -0.92498,0.53136c0.77796,-0.05489 1.54567,-0.12761 2.29457,-0.22164l0.71423,-0.10215c0,0 0.74247,-0.10607 0.84853,0.63639c0.10607,0.74246 -0.6364,0.84852 -0.6364,0.84852l-0.74031,0.10564c-1.57037,0.19547 -3.22415,0.30171 -4.88359,0.34753c-1.49498,1.05791 -2.97474,2.12269 -4.67506,2.86811c0,0 -0.68712,0.30062 -0.98773,-0.3865c-0.30061,-0.68712 0.3865,-0.98773 0.3865,-0.98773c0.93212,-0.4069 1.79954,-0.91534 2.64092,-1.46765c-0.89839,-0.00556 -1.78614,-0.02461 -2.65055,-0.05242c-0.14683,0.02838 -0.31942,0.01288 -0.49728,-0.10792c-0.12738,-0.06797 -0.25404,-0.18034 -0.3171,-0.36598c-0.08077,-0.17865 -0.06503,-0.34724 -0.01845,-0.4839c0.04904,-0.21714 0.17105,-0.34798 0.30289,-0.42678l0.07122,-0.06763c0.60063,-0.45947 1.24815,-0.81898 1.91169,-1.13797c-0.58706,-0.00733 -1.17552,-0.01108 -1.7661,-0.01108h-0.31777c-0.15437,0.02898 -0.33995,0.01536 -0.51934,-0.11905c-0.12448,-0.07349 -0.242,-0.19234 -0.29658,-0.38456c-0.07493,-0.18524 -0.05513,-0.35121 -0.00199,-0.48564c0.05899,-0.21587 0.19676,-0.34051 0.33617,-0.41246c0.92758,-0.72615 1.77093,-1.47722 2.6271,-2.20645c-1.03601,0.01313 -2.06888,0.10702 -3.10023,0.36499c0,0 -0.72761,0.1819 -0.90951,-0.5457c-0.1819,-0.7276 0.5457,-0.90951 0.5457,-0.90951c1.75599,-0.43876 3.51009,-0.44594 5.27539,-0.36457c0.53455,-0.39376 1.09593,-0.76931 1.70324,-1.11745l0.45228,-0.22743c0,0 0.67082,-0.33541 1.00623,0.33541zM250.61562,204.54065c0.92134,-0.48705 1.77566,-1.08314 2.47019,-1.96694c-1.0901,-0.01292 -2.17375,-0.09694 -3.25275,-0.15936c-0.84801,0.65233 -1.63025,1.34934 -2.44237,2.05101c1.07822,0.01331 2.15184,0.03912 3.22493,0.07529zM248.41734,207.10742c0.81395,0.00817 1.63768,0.00551 2.4615,-0.01196c0.4745,-0.33625 0.95159,-0.6703 1.4386,-0.99122c-0.54518,-0.02411 -1.08985,-0.04547 -1.63462,-0.06395c-0.74611,0.35444 -1.51184,0.68189 -2.26548,1.06713z" fill="#efdee9" stroke="none" stroke-width="0.5"/><path d="M252.5393,199.88264c0.33541,0.67082 -0.33541,1.00623 -0.33541,1.00623l-0.28805,0.14305c0.5596,0.02759 1.12093,0.04773 1.68439,0.04974l0.74487,0.13696c0.11233,0.00088 0.23865,0.03169 0.37833,0.10851c0.01207,0.00664 0.0238,0.01338 0.0352,0.02022c0.10958,0.0623 0.22778,0.1599 0.29716,0.30922c0.07127,0.14842 0.07158,0.30171 0.05011,0.42592c-0.00196,0.01314 -0.0042,0.02648 -0.00674,0.04002c-0.03069,0.16366 -0.09089,0.28417 -0.166,0.37263c-0.53966,0.9156 -1.17733,1.59747 -1.87592,2.14471c0.44693,0.02105 0.89431,0.04362 1.34243,0.06754c0.13178,-0.02352 0.28547,-0.00723 0.4564,0.08619c0.12846,0.05748 0.26734,0.15699 0.34667,0.3288c0.08984,0.16654 0.08613,0.33736 0.05503,0.47461c-0.03493,0.24208 -0.15084,0.38946 -0.28308,0.47906l-0.30906,0.36081c-0.31457,0.16901 -0.62234,0.3469 -0.92498,0.53136c0.77796,-0.05489 1.54567,-0.12761 2.29457,-0.22164l0.71423,-0.10215c0,0 0.74247,-0.10607 0.84853,0.63639c0.10607,0.74246 -0.6364,0.84852 -0.6364,0.84852l-0.74031,0.10564c-1.57037,0.19547 -3.22415,0.30171 -4.88359,0.34753c-1.49498,1.05791 -2.97474,2.12269 -4.67506,2.86811c0,0 -0.68712,0.30062 -0.98773,-0.3865c-0.30061,-0.68712 0.3865,-0.98773 0.3865,-0.98773c0.93212,-0.4069 1.79954,-0.91534 2.64092,-1.46765c-0.89839,-0.00556 -1.78614,-0.02461 -2.65055,-0.05242c-0.14683,0.02838 -0.31942,0.01288 -0.49728,-0.10792c-0.12738,-0.06797 -0.25404,-0.18034 -0.3171,-0.36598c-0.08077,-0.17865 -0.06503,-0.34724 -0.01845,-0.4839c0.04904,-0.21714 0.17105,-0.34798 0.30289,-0.42678l0.07122,-0.06763c0.60063,-0.45947 1.24815,-0.81898 1.91169,-1.13797c-0.58706,-0.00733 -1.17552,-0.01108 -1.7661,-0.01108h-0.31777c-0.15437,0.02898 -0.33995,0.01536 -0.51934,-0.11905c-0.12448,-0.07349 -0.242,-0.19234 -0.29658,-0.38456c-0.07493,-0.18524 -0.05513,-0.35121 -0.00199,-0.48564c0.05899,-0.21587 0.19676,-0.34051 0.33617,-0.41246c0.92758,-0.72615 1.77093,-1.47722 2.6271,-2.20645c-1.03601,0.01313 -2.06888,0.10702 -3.10023,0.36499c0,0 -0.72761,0.1819 -0.90951,-0.5457c-0.1819,-0.7276 0.5457,-0.90951 0.5457,-0.90951c1.75599,-0.43876 3.51009,-0.44594 5.27539,-0.36457c0.53455,-0.39376 1.09593,-0.76931 1.70324,-1.11745l0.45228,-0.22743c0,0 0.67082,-0.33541 1.00623,0.33541zM250.61562,204.54065c0.92134,-0.48705 1.77566,-1.08314 2.47019,-1.96694c-1.0901,-0.01292 -2.17375,-0.09694 -3.25275,-0.15936c-0.84801,0.65233 -1.63025,1.34934 -2.44237,2.05101c1.07822,0.01331 2.15184,0.03912 3.22493,0.07529zM248.41734,207.10742c0.81395,0.00817 1.63768,0.00551 2.4615,-0.01196c0.4745,-0.33625 0.95159,-0.6703 1.4386,-0.99122c-0.54518,-0.02411 -1.08985,-0.04547 -1.63462,-0.06395c-0.74611,0.35444 -1.51184,0.68189 -2.26548,1.06713z" fill="none" stroke="#000000" stroke-width="1"/></g></g><path d="M227.76458,185.38458l6.54545,-4.83117l-0.98701,-5.81818c0,0 6.76544,-2.59679 8.81376,-3.27347c0.98881,-0.32666 2.82261,-0.57069 2.82261,-0.57069c0,0 4.65328,1.37707 7.9239,4.74913c2.43302,2.50849 4.23706,6.9441 4.76055,8.80674c0.25094,0.89288 -0.58913,3.18066 -1.03263,4.99336c-0.35143,1.43636 -0.20257,2.40044 -0.83594,3.36214c-1.46874,2.23015 -3.4912,2.03667 -3.4912,2.03667c0,0 -1.43077,0.13353 -2.04456,-0.037c-0.79784,-0.22166 -2.33679,-1.18029 -2.33679,-1.18029c0,0 -13.64238,-1.26786 -16.57367,-2.39815c-3.35867,-1.29508 -3.56446,-5.83911 -3.56446,-5.83911z" fill="none" stroke="#000000" stroke-width="1" stroke-linecap="round"/><path d="M255.92043,192.50145l1.09091,-4.36363l2.49351,2.18182l-2.12987,3.01299z" fill="#feecf7" stroke="#000000" stroke-width="1" stroke-linecap="round"/><path d="M239.66067,177.38458l0.2078,5.55845c0,0 -3.71223,1.97602 -4.67538,2.50219c-0.43072,0.2353 -0.95228,0.85055 -0.96912,1.18174c-0.04803,0.94468 -0.27757,5.45892 -0.27757,5.45892" fill="none" stroke="#000000" stroke-width="1" stroke-linecap="round"/><path d="M246.72561,180.7612c0,0 1.39103,2.20529 1.75987,2.79003c0.16912,0.26812 0.30243,0.80057 0.22711,1.03908c-0.28452,0.90098 -2.03893,6.4566 -2.03893,6.4566" fill="none" stroke="#000000" stroke-width="1" stroke-linecap="round"/><path d="M231.71262,187.56638l2.4935,3.37662l2.96104,-1.4026l3.06494,2.28571l3.58441,-3.06493l1.81818,2.02598l1.4026,-1.76623l0.88312,4.10389l-2.07792,2.02598l-3.06493,-0.88312l-2.28572,2.49351l-3.37662,-2.5974l-4,2.07792l-2.7013,-2.38961l-2.23377,0.72727c0,0 -1.01574,-2.11276 -1.92955,-2.74917c-1.01494,-0.70684 -3.88863,-1.30277 -3.88863,-1.30277c0,0 1.39404,-1.41642 1.44838,-2.2237c0.06497,-0.96521 -1.08474,-3.1789 -1.08474,-3.1789l3.37662,0.31169l1.61039,-1.1948l0.88312,4z" fill="#feecf7" stroke="#000000" stroke-width="1" stroke-linecap="round"/><g stroke="#000000" stroke-width="1" stroke-linecap="round"><path d="M231.1412,181.69627l-0.36364,-6.96104l13.66234,-1.76623l3.06493,-3.74026l3.79221,2.85715l6.07792,-2.59741l-0.25974,8.31169l-3.06494,-0.41558l-3.16883,2.44156l-2.90909,-1.81818l-3.63637,3.58441l-1.0909,-2.5974l-3.27273,2.90909l-2.33766,-2.23377l-1.76623,2.07792l-2.23377,-1.76623z" fill="#feecf7"/><path d="M243.45289,174.31964l0.77922,-0.93507" fill="none"/></g><g stroke="#000000" stroke-linecap="round"><path d="M246.15419,195.15079l1.45455,-1.97402c0,0 1.7157,1.92411 4.31329,1.83733c3.55994,-0.11893 4.36203,-2.5646 4.36203,-2.5646c0,0 2.51475,2.35673 2.00194,3.67003c-0.3863,0.98933 -3.89522,6.92418 -6.15923,7.04926c-2.10408,0.02195 -5.557,-5.99201 -5.557,-5.99201z" fill="#4ea5eb" stroke-width="0"/><path d="M247.60873,193.17679c0,0 1.7157,1.92411 4.31329,1.83733c3.55994,-0.11893 4.36203,-2.5646 4.36203,-2.5646c0,0 2.51475,2.35672 2.00194,3.67003c-0.34614,0.88644 -3.19915,5.74323 -5.41739,6.83382c0.14606,-0.60192 0.66788,-5.31229 0.66788,-5.31229c0,0 -3.3163,-1.57255 -4.5584,-2.44406c-0.53925,-0.37836 -0.96529,-1.19763 -1.41687,-1.95575z" fill="#2e67e5" stroke-width="0"/><path d="M246.15418,195.15081l1.45455,-1.97402c0,0 1.7157,1.92411 4.31329,1.83733c3.55994,-0.11893 4.36203,-2.5646 4.36203,-2.5646c0,0 2.51475,2.35672 2.00194,3.67003c-0.38631,0.98933 -3.89522,6.92418 -6.15923,7.04926c-2.10408,0.02195 -5.55699,-5.99201 -5.55699,-5.99201" fill="none" stroke-width="1"/></g></g><path d="M192.06803,227.93197v-95.86394h95.86394v95.86394z" fill="none" stroke="none" stroke-width="0" stroke-linecap="butt"/><g stroke="#000000"><g stroke-linecap="butt"><path d="M263.66104,169.97044l0.71682,-2.23009c0,0 9.11466,-0.32626 11.08787,0.82771c1.38522,0.8101 1.12502,5.06475 -1.51556,5.43741c-3.51649,0.49627 -10.28912,-4.03503 -10.28912,-4.03503z" fill="#0066cd" stroke-width="0"/><path d="M263.66105,169.97044l0.25441,-0.79149c0,0 2.03711,0.3136 4.04182,0.81029c1.54944,0.3839 2.88714,0.90925 4.4546,1.28297c1.86424,0.44448 3.66871,0.72889 3.64078,0.80966c-0.3314,0.95841 -1.01511,1.77014 -2.10248,1.92361c-3.51649,0.49628 -10.28913,-4.03504 -10.28913,-4.03504z" fill="#061483" stroke-width="0"/><path d="M263.66105,169.97044l0.71682,-2.23009c0,0 9.11466,-0.32625 11.08787,0.82772c1.38523,0.8101 1.12502,5.06475 -1.51556,5.43741c-3.51649,0.49628 -10.28913,-4.03504 -10.28913,-4.03504z" fill="none" stroke-width="1"/></g><g stroke-linecap="round"><path d="M224.0428,172.10811c0,0 -7.90615,-24.89839 14.88495,-24.20577c23.36864,0.71017 18.93806,21.23233 18.93806,21.23233c0,0 6.18614,-4.86555 7.08845,-4.30376c0.76161,0.47419 -0.5745,5.43118 -1.40987,7.32294c-0.61728,1.39788 -1.48476,4.42484 -2.86716,4.5892c-0.87011,0.10344 -4.42204,-2.77654 -4.42204,-2.77654c0,0 -7.50702,4.08666 -14.34419,5.35852c-6.7516,1.25594 -16.38147,0.09279 -16.38147,0.09279c0,0 -7.15631,-0.90435 -7.30256,-3.37178c-0.12462,-2.10245 5.81583,-3.93795 5.81583,-3.93795z" fill="#fde0be" stroke-width="0"/><path d="M252.10605,175.96843c-0.03425,0.0151 -1.25676,-2.11527 -1.25676,-2.11527l-3.23918,2.51424l-4.74537,-7.3187l-6.92217,4.20582l-0.85552,-6.54195c0,0 -11.58038,3.3031 -11.58702,3.27263c-1.30828,-6.00626 -3.26387,-22.65091 15.4277,-22.08287c23.36864,0.71017 18.93806,21.23233 18.93806,21.23233c0,0 5.16315,4.30737 5.09935,4.468c-0.56079,1.41218 -1.29027,3.02178 -2.28794,3.14039c-0.87011,0.10344 -4.42204,-2.77654 -4.42204,-2.77654c0,0 -1.66869,0.90839 -4.14912,2.00192z" fill="#fc988a" stroke-width="0"/><path d="M258.23748,170.62137l3.09735,-1.36283l-1.23894,4.95575z" fill="#f79587" stroke-width="0.5"/><path d="M238.92772,147.90234c23.36864,0.71017 18.93806,21.23233 18.93806,21.23233c0,0 6.18614,-4.86555 7.08845,-4.30376c0.76161,0.47419 -0.5745,5.43118 -1.40987,7.32294c-0.61728,1.39788 -1.48476,4.42484 -2.86716,4.5892c-0.87011,0.10344 -4.42204,-2.77654 -4.42204,-2.77654c0,0 -7.50702,4.08666 -14.34419,5.35852c-6.7516,1.25594 -16.38147,0.09279 -16.38147,0.09279c0,0 -7.15631,-0.90435 -7.30256,-3.37178c-0.12462,-2.10245 5.81583,-3.93795 5.81583,-3.93795c0,0 -7.90614,-24.89838 14.88496,-24.20576z" fill="none" stroke-width="1"/></g><g stroke-linecap="round"><path d="M264.12807,162.00512c0,0 -1.91994,3.39406 -3.05006,4.77532c-0.97589,1.19275 -3.3361,3.02999 -3.3361,3.02999c0,0 -10.7322,-5.21297 -18.19103,-6.18262c-7.61868,-0.99044 -17.49038,-0.30491 -17.49038,-0.30491c0,0 -3.40308,-17.91525 0.23844,-20.54599c2.65158,-1.91558 10.23966,-3.66653 17.59473,-2.99068c3.35224,0.30803 12.93229,1.28989 16.00584,4.39782c4.11937,4.16546 8.22857,17.82107 8.22857,17.82107z" fill="#ff292e" stroke-width="0"/><path d="M264.12807,162.00512c0,0 -1.91994,3.39407 -3.05006,4.77532c-0.97589,1.19275 -3.33609,3.02999 -3.33609,3.02999c0,0 -5.19732,-2.5245 -10.87203,-4.3867c-0.14854,-0.04874 2.57787,-14.06906 5.59963,-19.57261c1.00063,-1.82245 2.6654,-2.44024 3.42999,-1.66709c4.11937,4.16547 8.22857,17.82108 8.22857,17.82108z" fill="#ac0e49" stroke-width="0.5"/><path d="M261.07801,166.78045c-0.97589,1.19275 -3.33609,3.02999 -3.33609,3.02999c0,0 -10.7322,-5.21297 -18.19104,-6.18261c-7.61868,-0.99044 -17.49037,-0.30491 -17.49037,-0.30491c0,0 -3.40308,-17.91526 0.23844,-20.54599c2.65159,-1.91558 10.23966,-3.66653 17.59473,-2.99068c3.35224,0.30803 12.93229,1.28988 16.00582,4.39781c4.11937,4.16547 8.22857,17.82108 8.22857,17.82108c0,0 -1.91994,3.39406 -3.05006,4.77531z" fill="none" stroke-width="1"/></g><g stroke-linecap="round"><path d="M222.80385,169.01075c0,0 -3.85602,0.92482 -5.61813,1.58049c-1.7891,0.66571 -5.03674,2.38412 -5.03674,2.38412c0,0 1.62395,-3.85485 2.70279,-5.58945c1.02456,-1.64732 3.6158,-4.56984 3.6158,-4.56984l-9.53983,0.61947c0,0 8.85959,-12.65645 12.45666,-14.18992c2.14533,-0.91457 10.09201,4.15452 10.09201,4.15452c0,0 1.27513,-2.68016 2.15748,-3.92836c0.80348,-1.13663 2.92217,-3.25749 2.92217,-3.25749c0,0 1.50384,6.13468 2.53453,9.10551c1.07374,3.09489 3.78406,9.10689 3.78406,9.10689l14.61947,4.95575l-1.36283,6.69027l-5.69911,-6.19469l-2.60177,3.46903l-4.95575,-8.92035l-4.95575,4.0885l-1.11504,-5.07965c0,0 -11.01133,2.57707 -13.47804,3.78306c-0.67241,0.32874 -0.52195,1.79217 -0.52195,1.79217z" fill="#4fa6ec" stroke-width="0"/><path d="M225.94624,159.7863l-13.79726,13.18906c0,0 1.62395,-3.85485 2.70278,-5.58945c1.02455,-1.64732 3.6158,-4.56984 3.6158,-4.56984l-9.53982,0.61946c0,0 8.85958,-12.65645 12.45666,-14.18992c2.14532,-0.91458 10.09202,4.15452 10.09202,4.15452c0,0 1.27512,-2.68016 2.15747,-3.92836c0.80348,-1.13663 2.92217,-3.25748 2.92217,-3.25748l-2.53386,11.84243c0,0 -9.00989,-4.43466 -11.21034,-4.12033c-3.45351,0.49332 -8.3089,7.4718 -8.3089,7.4718z" fill="#66ffff" stroke-width="0"/><path d="M247.86419,167.76055l-0.7372,4.32035l-3.00278,-5.405z" fill="#66ffff" stroke-width="0"/><path d="M212.14899,172.97536c0,0 1.62395,-3.85485 2.70278,-5.58945c1.02455,-1.64732 3.6158,-4.56984 3.6158,-4.56984l-9.53982,0.61946c0,0 8.85958,-12.65645 12.45666,-14.18992c2.14532,-0.91458 10.09202,4.15452 10.09202,4.15452c0,0 1.27512,-2.68016 2.15747,-3.92836c0.80348,-1.13663 2.92217,-3.25748 2.92217,-3.25748c0,0 1.50383,6.13467 2.53452,9.1055c1.07373,3.09489 3.78406,9.10689 3.78406,9.10689l14.61947,4.95575l-1.36283,6.69027l-5.69911,-6.19468l-2.60178,3.46903l-4.95576,-8.92035l-4.95576,4.0885l-1.11504,-5.07965c0,0 -11.01133,2.57707 -13.47804,3.78306c-0.67241,0.32874 -0.52195,1.79217 -0.52195,1.79217c0,0 -3.856,0.92482 -5.61812,1.58049c-1.76212,0.65567 -5.03674,2.38409 -5.03674,2.38409z" fill="none" stroke-width="1"/></g></g><g><path d="M223.44876,153.61347c0,0 2.56835,5.52693 5.40222,9.02596c2.07578,2.56301 6.86326,7.14218 6.86326,7.14218c0,0 2.46754,-1.87672 5.22891,-4.32686c3.44091,-3.0531 7.49217,-6.94523 9.58421,-8.60935c2.37765,-1.89132 5.62937,-3.32485 5.62937,-3.32485c0,0 -8.48279,7.92153 -12.12229,11.17349c-0.08275,0.07393 -0.8752,2.2378 -1.38985,4.40589c-0.53598,2.25795 -0.80997,4.52048 -1.68527,4.43155c-2.50446,-0.25443 -1.90909,-4.55074 -2.54271,-4.01949c-1.34633,1.12883 -2.33068,1.94218 -2.33068,1.94218c0,0 -1.40599,-0.87335 -3.27024,-2.50168c-0.03419,-0.02985 -0.13662,0.80475 -0.17214,1.84788c-0.04684,1.37563 -0.11467,3.04523 -1.11761,2.89232c-0.9662,-0.1473 -1.81177,-1.84404 -2.15481,-3.90701c-0.34664,-2.08463 -0.18605,-4.53539 -0.25692,-4.62109c-4.24932,-5.13792 -5.66545,-11.55112 -5.66545,-11.55112z" fill="#000000" stroke="#000000" stroke-width="0" stroke-linecap="round"/><path d="M245.25579,173.47502c-0.92455,1.15558 -2.01994,1.91127 -3.22204,2.57356c1.4037,-0.01936 2.83691,-0.1701 3.77502,-0.78174c0.69087,-0.45043 1.04695,-1.41373 1.44385,-2.23079c-0.60208,0.0133 -1.22602,0.05447 -1.84554,0.07333zM232.6587,175.43332c0,0 4.682,0.26624 6.53959,0.57584c0.14676,-0.00055 0.3012,0.00096 0.462,0.00368c1.66875,-0.8304 3.21817,-1.53458 4.4538,-2.91427c-0.23269,-0.01448 -1.23738,-1.08563 -1.23738,-1.08563c0,0 3.48445,-0.09635 4.77733,-0.09228l0.48405,0.07913c0.09808,-0.00643 0.20906,0.01776 0.32742,0.09828c0.09021,0.05192 0.18562,0.13556 0.23186,0.26764c0.05375,0.12921 0.03852,0.25518 0.00602,0.35406c-0.03432,0.13873 -0.10063,0.23076 -0.17779,0.29145c-0.74114,0.96031 -1.01129,2.44944 -2.09171,3.17894c-1.8302,1.23574 -5.2119,0.93689 -7.32757,0.93024c-0.80524,-0.13421 -2.86196,-0.33985 -4.0939,-0.63566c-1.61883,-0.3887 -2.35371,-1.05143 -2.35371,-1.05143z" fill="#000000" stroke="none" stroke-width="0.5" stroke-linecap="butt"/><path d="M245.43329,173.06019c0.61952,-0.01887 1.26552,-0.0387 1.8676,-0.05201c-0.3969,0.81705 -0.75391,1.83765 -1.44479,2.28809c-0.93811,0.61164 -2.46696,0.76082 -3.87065,0.78017c1.20211,-0.66228 2.37354,-1.49421 3.29809,-2.64979z" data-paper-data="{&quot;noHover&quot;:false,&quot;origItem&quot;:[&quot;Path&quot;,{&quot;applyMatrix&quot;:true,&quot;segments&quot;:[[[815.6142,327.59136],[0,0],[-1.65831,2.07269]],[[809.83498,332.20743],[2.15617,-1.1879],[2.51774,-0.03472]],[[816.60604,330.80527],[-1.68264,1.09707],[1.23918,-0.80793]],[[819.1958,326.80402],[-0.7119,1.46551],[-1.07993,0.02386]],[[815.88553,326.93555],[1.1112,-0.03384],[0,0]]],&quot;closed&quot;:true}]}" fill="#ffffff" stroke="none" stroke-width="0.5" stroke-linecap="butt"/></g><path d="M247.89113,172.91637l0.99551,3.12872l8.10623,-3.41315l-1.70658,3.9109l2.70208,2.34654l-4.69308,-0.0711l-1.70658,1.49326l-3.41315,-1.49326l-4.26644,3.8398l-0.63996,-2.77319c0,0 1.65657,-2.96144 2.47952,-4.20218c0.69654,-1.05017 2.14246,-2.76634 2.14246,-2.76634z" fill="#feecf7" stroke="#000000" stroke-width="1" stroke-linecap="round"/></g></g></svg>