<svg version="1.1" xmlns="http://www.w3.org/2000/svg" xmlns:xlink="http://www.w3.org/1999/xlink" width="267.42642" height="257.0021" viewBox="0,0,267.42642,257.0021"><g transform="translate(-106.28679,-54.50196)"><g data-paper-data="{&quot;isPaintingLayer&quot;:true}" fill-rule="nonzero" stroke-linejoin="miter" stroke-miterlimit="10" stroke-dasharray="" stroke-dashoffset="0" style="mix-blend-mode: normal"><path d="M373.71321,311.1602l-267.27562,0.34386l-0.1508,-256.65825l267.27563,-0.34385z" fill="none" stroke="none" stroke-width="NaN" stroke-linecap="butt"/><g><g data-paper-data="{&quot;origRot&quot;:0}" stroke="#000000" stroke-width="3" stroke-linecap="round"><path d="M197.69728,135.56442c0,0 28.46952,10.70431 27.53428,13.88542c-1.68628,5.73578 -8.81618,17.52367 -8.81618,17.52367l-5.2549,10.57308l2.35168,-3.82126c0,0 11.44182,12.64496 12.28821,16.59584c0.44468,2.07566 -6.50217,10.10836 -9.0512,10.81983c-5.71832,1.59607 -38.99619,-18.7954 -37.81704,-23.65805c4.33942,-10.97709 13.43384,-34.25471 13.43384,-34.25471c0,0 3.20275,-8.88263 5.33131,-7.66382z" data-paper-data="{&quot;origPos&quot;:null}" fill="#582700"/><path d="M220.00638,158.97628l-26.74519,-13.71159" fill="none"/><path d="M191.10638,149.00301l26.60946,13.98792" data-paper-data="{&quot;origPos&quot;:null}" fill="none"/></g><path d="M219.88789,159.36364l-1.34817,2.70516l-27.26569,-14.21137l1.34816,-2.70515z" fill="#ffffff" stroke="none" stroke-width="0" stroke-linecap="butt"/><path d="M179.66306,176.41595l10.84518,-27.31501l26.37221,14.89866l-6.36375,12.77904l1.71738,1.03142l1.80134,-2.67688l11.02784,15.08005l-0.79333,1.4029l-3.96666,7.01449l-4.98875,1.70228l-8.142,-2.38404l-20.74091,-12.14312l-7.77652,-8.11581z" fill="#66c8ff" stroke="#000000" stroke-width="0.5" stroke-linecap="round"/></g><g data-paper-data="{&quot;index&quot;:null}" stroke="#000000" stroke-linecap="round"><path d="M252.28037,171.48779c0,0 16.2316,-1.59725 16.21325,5.02736c-0.04977,17.98052 -28.27891,12.06568 -28.27891,12.06568z" data-paper-data="{&quot;origPos&quot;:null}" fill="#66c8ff" stroke-width="2"/><path d="M251.52631,172.99602c0,0 11.78117,-0.56333 12.44273,1.38252c0.20864,0.61371 -15.71052,2.51368 -15.71052,2.51368z" data-paper-data="{&quot;origPos&quot;:null}" fill="#0a0a0a" stroke-width="1"/></g><g data-paper-data="{&quot;index&quot;:null,&quot;origRot&quot;:0}" stroke="#000000" stroke-linecap="round"><path d="M235.31859,261.68944c0,0 1.32211,4.21863 0.68179,6.45616c-0.49018,1.71292 -2.30136,2.4619 -4.04688,3.06432c-4.79124,1.65351 -9.84362,0.71481 -17.7298,1.44042c-2.14786,0.19763 -3.66201,-2.7141 -3.72896,-4.77838c-0.06263,-1.93071 -0.0479,-5.29056 -0.0479,-5.29056l-0.30051,-32.53484c0,0 0.10477,-4.21341 1.7971,-5.12429c4.07543,-2.19355 8.79637,-1.20241 13.41789,-1.88117c1.56619,-0.23001 2.16762,4.45254 2.16762,4.45254z" data-paper-data="{&quot;origPos&quot;:null}" fill="#ff0000" stroke-width="3"/><path d="M210.47685,263.64985l23.84562,-2.11065c0,0 1.41385,2.33066 1.53649,3.98565c0.11643,1.57105 -0.92391,4.28069 -0.92391,4.28069c0,0 -8.47776,2.04555 -12.45307,2.52911c-5.18133,0.63027 -11.56881,-1.19237 -11.56881,-1.19237z" data-paper-data="{&quot;origPos&quot;:null}" fill="#976e57" stroke-width="2.5"/><path d="M235.27722,262.01233c0,0 1.32211,4.21863 0.68179,6.45616c-0.49018,1.71292 -2.30136,2.46191 -4.04688,3.06432c-4.79124,1.65351 -9.84362,0.71481 -17.7298,1.44042c-2.14785,0.19762 -3.66201,-2.7141 -3.72897,-4.77839c-0.06263,-1.93071 -0.0479,-5.29056 -0.0479,-5.29056l-0.30051,-32.53483c0,0 0.10476,-4.21341 1.79709,-5.1243c4.07543,-2.19355 8.79638,-1.20241 13.41789,-1.88117c1.56617,-0.23002 2.16759,4.45253 2.16759,4.45253c0,0 1.9697,8.64668 3.2304,14.18102c1.77936,7.81103 4.55931,20.01482 4.55931,20.01482z" data-paper-data="{&quot;origPos&quot;:null}" fill="#4b4b4b" stroke-width="1.5"/></g><g data-paper-data="{&quot;index&quot;:null,&quot;origRot&quot;:0}" stroke="#000000" stroke-linecap="round"><path d="M235.32432,234.08724c0,0 -2.16376,-4.23892 -0.71991,-4.86362c4.26055,-1.84335 7.65302,-5.13831 12.31889,-5.42687c1.93751,-0.11981 4.42594,3.35724 4.42594,3.35724l18.28493,27.42809c0,0 1.92663,2.80861 2.97416,4.45964c1.12,1.76526 1.50977,4.99625 -0.4032,5.95171c-7.02373,3.50811 -10.7239,6.93212 -15.6821,8.047c-1.80635,0.40616 -3.75124,0.72372 -5.13806,-0.4562c-1.81157,-1.54131 -3.10693,-5.76754 -3.10693,-5.76754z" data-paper-data="{&quot;origPos&quot;:null}" fill="#ff0000" stroke-width="3"/><path d="M274.12087,262.00137c0,0 -4.31564,4.86181 -9.01781,7.03801c-3.60769,1.66965 -11.87935,4.38016 -11.87935,4.38016c0,0 -2.41586,-1.72824 -3.21337,-3.10589c-0.84014,-1.45125 -0.98292,-4.14285 -0.98292,-4.14285l21.19033,-10.67747z" data-paper-data="{&quot;origPos&quot;:null}" fill="#976e57" stroke-width="2.5"/><path d="M248.4967,267.06578c0,0 -4.62293,-11.68047 -7.58181,-19.15657c-2.09646,-5.29702 -5.37191,-13.57293 -5.37191,-13.57293c0,0 -2.16377,-4.23892 -0.71993,-4.86359c4.26054,-1.84334 7.65302,-5.13831 12.31889,-5.42687c1.93751,-0.11981 4.42594,3.35724 4.42594,3.35724l18.28493,27.42809c0,0 1.92663,2.80861 2.97416,4.45964c1.12,1.76526 1.50977,4.99625 -0.40319,5.95171c-7.02373,3.50811 -10.7239,6.93212 -15.6821,8.047c-1.80635,0.40616 -3.75124,0.72371 -5.13807,-0.45622c-1.81157,-1.54131 -3.10693,-5.76754 -3.10693,-5.76754z" data-paper-data="{&quot;origPos&quot;:null}" fill="#4b4b4b" stroke-width="1.5"/></g><g><g><path d="M253.68069,221.41096c0,0 0.85017,15.48567 -1.41465,15.76113c-6.7945,0.82643 -24.66131,-0.01149 -39.90516,-0.01149c-1.71244,0 -1.46265,-14.69967 -1.46265,-14.69967l1.82831,-30.09934c0,0 1.35554,-13.29971 2.9253,-13.29971c10.15429,0 25.34685,-0.91452 31.99237,0.70067c2.21517,0.5384 4.20817,14.69897 4.20817,14.69897z" data-paper-data="{&quot;origPos&quot;:null}" fill="#66c8ff" stroke="#000000" stroke-width="3.5" stroke-linecap="round"/><path d="M220.97086,202.1912c-1.32619,0 -1.3262,-2.44455 -1.3262,-2.44455c0,-5.07017 0,-11.77003 0,-16.8402c0,0 0.00001,-2.44455 1.3262,-2.44455c1.32619,0 1.32619,2.44455 1.32619,2.44455c0,5.07017 0,10.14033 0,15.21051v1.62969c0,0 0,2.44455 -1.32619,2.44455z" fill="#ffffff" stroke="none" stroke-width="0.5" stroke-linecap="butt"/><path d="M233.29163,208.41517c-1.32619,0 -1.3262,-3.07104 -1.3262,-3.07104c0,-6.36956 0,-14.78648 0,-21.15605c0,0 0.00001,-3.07104 1.3262,-3.07104c1.32619,0 1.32619,3.07104 1.32619,3.07104c0,6.36956 0,12.73912 0,19.10869v2.04736c0,0 0,3.07104 -1.32619,3.07104z" fill="#ffffff" stroke="none" stroke-width="0.5" stroke-linecap="butt"/></g><g fill="none" stroke="#b9b9b9" stroke-width="3"><path d="M243.63207,184.00948c-0.84965,-1.33464 0.08819,-2.53316 1.34383,-3.73016c1.25565,-1.19698 2.51587,-1.56249 3.20329,-0.60454c1.4575,2.03113 -0.07165,2.98981 -1.05486,3.92708c-1.25566,1.197 -2.29233,2.29249 -3.49225,0.40763z" stroke-linecap="butt"/><path d="M244.64265,183.42894l-2.6592,2.47594" stroke-linecap="round"/><path d="M238.34214,186.52334c1.25565,-1.19698 2.51587,-1.56249 3.20329,-0.60454c1.4575,2.03113 -0.07165,2.98981 -1.05486,3.92708c-1.25565,1.19699 -2.29232,2.29249 -3.49224,0.40763c-0.84965,-1.33464 0.08818,-2.53316 1.34382,-3.73017z" stroke-linecap="butt"/><path d="M235.34967,192.1489l2.6592,-2.47596" stroke-linecap="round"/><path d="M229.57711,191.70443c0.41137,-1.60685 1.78518,-1.4549 3.34561,-1.004c1.56044,0.45091 2.5547,1.41078 2.30524,2.63685c-0.52893,2.59959 -2.08784,1.74755 -3.3097,1.39449c-1.56044,-0.4509 -2.92213,-0.75805 -2.34115,-3.02733z" stroke-linecap="butt"/><path d="M230.57107,192.29969l-3.26429,-0.99075" stroke-linecap="round"/><path d="M222.18494,187.40424c0.91687,-1.29398 2.12306,-0.52046 3.39955,0.61508c1.27649,1.13555 1.86364,2.48009 1.22302,3.49712c-1.3583,2.15639 -2.49847,0.65117 -3.49801,-0.238c-1.27648,-1.13556 -2.41939,-2.04678 -1.12456,-3.8742z" stroke-linecap="butt"/><path d="M220.24012,185.99264l2.6543,2.41932" stroke-linecap="round"/><path d="M215.50739,181.38538c0.91687,-1.29396 2.12307,-0.52046 3.39955,0.61508c1.27649,1.13555 1.86364,2.48009 1.22302,3.49712c-1.3583,2.15638 -2.49847,0.65117 -3.498,-0.238c-1.27648,-1.13555 -2.41939,-2.04677 -1.12456,-3.8742z" stroke-linecap="butt"/><path d="M216.2169,182.39309l-2.65432,-2.41932" stroke-linecap="round"/></g></g><path d="M208.8927,170.15605c-0.32624,-3.2403 -0.82541,-17.42025 -1.23391,-30.23758c-0.0632,-1.98253 1.45444,-5.13148 1.45444,-5.13148c0,0 2.14932,-1.69728 3.41016,-1.74436c13.91092,-0.51948 27.11261,-2.10657 32.32102,-0.72423c1.73614,0.46077 4.93792,2.09697 4.93792,2.09697c0,0 0.85038,4.37053 1.02054,5.49685c0.05671,0.37545 0.08967,0.58672 0.12392,0.96487c1.0263,11.33058 0.99909,24.48092 0.7738,29.08044c-0.07509,1.53317 -1.81435,3.97977 -1.81435,3.97977c0,0 -1.2997,2.77001 -5.67144,3.71876c-4.78344,1.03812 -16.50461,1.03894 -28.59163,1.00258c-1.81468,-0.00547 -4.75292,-3.24669 -4.75292,-3.24669z" fill="#582700" stroke="#000000" stroke-width="2.5" stroke-linecap="round"/><path d="M251.82117,136.61172l-0.73076,-0.49949c-0.09037,-0.02765 -0.18069,-0.05481 -0.27095,-0.08149c-0.21086,0.31841 -0.62922,0.69514 -1.37195,0.47596c-0.68454,-0.20201 -0.86288,-0.67953 -0.88992,-1.0521c-2.64863,-0.57198 -5.28863,-0.80224 -8.05752,-0.95852c-7.74485,-0.17203 -15.48708,0.25716 -23.22839,0.52667c-2.53881,0.08838 -8.18576,1.30759 -10.36478,-0.30446c-1.0627,-0.78618 -0.72533,-2.72949 -0.86235,-3.77848c-0.39704,-3.03973 -0.87593,-6.18454 -0.99415,-9.24993c-0.12774,-4.00769 -1.7506,-7.53423 -2.39167,-11.44711c-0.32139,-1.96166 -1.0573,-3.91939 0.64706,-5.68329c0.48124,-0.49805 1.36479,-0.24782 2.05476,-0.30762c2.52161,-0.21853 4.97225,-0.13013 7.48104,0.081c7.95032,0.66906 15.79709,0.91877 23.71012,2.07471c3.19222,0.47013 6.39231,0.42856 9.61845,0.42632c1.89607,-0.00131 3.60522,-0.60138 4.81225,1.52415c0.72082,1.26933 0.3586,5.28833 0.3556,6.77132c-0.01159,5.71845 1.12916,12.69924 0.12683,18.48572c0.11841,0.0346 0.23691,0.06994 0.35549,0.10606l1.31441,0.76345c0,0 1.06356,0.65678 0.40679,1.72033c-0.65678,1.06355 -1.72033,0.40679 -1.72033,0.40679z" data-paper-data="{&quot;index&quot;:null}" fill="#000000" stroke="none" stroke-width="0.5" stroke-linecap="butt"/><path d="M248.78685,154.85091c-0.48381,0.87517 -1.35898,0.39135 -1.35898,0.39135l-0.95724,-0.53525c-0.8296,-0.57748 -2.45138,-1.36463 -3.65272,-2.23402c-0.58369,-0.27161 -1.18935,-0.58377 -1.87115,-0.92821l-0.9575,-0.4739c-0.35448,-0.16566 -0.59322,-0.53232 -0.57603,-0.94771c0.02284,-0.55181 0.48869,-0.98063 1.04049,-0.9578c0.11866,0.00491 0.23164,0.0303 0.33565,0.07264l0.29267,0.11121c0.07539,0.02608 0.15083,0.05196 0.2263,0.07766c0.05518,0.00706 0.10887,0.01859 0.16073,0.03419l1.07232,0.29785l-0.00596,0.02148l0.05413,-0.00679c1.13279,0.44073 2.61442,0.56372 3.33258,1.28616c0.19713,0.08548 0.39312,0.17434 0.58775,0.26717l0.00553,-0.00921l0.0996,0.0598c0.02871,0.01394 0.05739,0.02798 0.08604,0.0421l0.01092,0.01612l0.02289,0.01375l0.00461,-0.00755l0.95913,0.58602c0.30915,0.18087 0.51066,0.52229 0.49482,0.90509c-0.00586,0.14153 -0.04085,0.27497 -0.09897,0.39477l0.30103,0.16408c0,0 0.87517,0.48381 0.39135,1.35898z" fill="#582700" stroke="none" stroke-width="0.5" stroke-linecap="butt"/><g><g><g data-paper-data="{&quot;index&quot;:null}"><g stroke="#000000" stroke-width="3" stroke-linecap="round"><path d="M270.74012,208.25099c0,0 4.89029,9.63346 5.3343,14.22427c-14.43095,9.14907 -24.55795,8.34885 -24.55795,8.34885c-1.91521,0.75723 -3.5634,-6.34577 -3.5634,-6.34577c0,0 -3.67923,-13.76476 -6.03414,-22.57487c-1.54632,-5.78509 -3.96226,-14.82358 -3.96226,-14.82358c0,0 -1.27559,-5.79874 -0.20788,-6.12728c6.42344,-1.97652 12.23785,-5.13659 15.75422,-4.98771c1.17213,0.04963 3.80169,5.16154 3.80169,5.16154l13.43541,27.12456z" data-paper-data="{&quot;origPos&quot;:null}" fill="#582700"/><path d="M272.52896,213.74468l-24.56423,8.57403l-1.15858,-3.21265l24.51487,-8.82841z" data-paper-data="{&quot;origPos&quot;:null}" fill="none"/></g><path d="M246.44245,218.74504l-8.75949,-35.90449l0.98915,-1.06335l15.0898,-5.40633l16.70327,33.71674z" fill="#66c8ff" stroke="#000000" stroke-width="1" stroke-linecap="round"/><path d="M247.77718,221.91067l-0.80603,-2.19712l24.39839,-8.54939l0.80603,2.19712z" fill="#ffffff" stroke="none" stroke-width="0" stroke-linecap="butt"/></g><g fill="#fffc96" stroke="#000000" stroke-width="2" stroke-linecap="round"><path d="M267.99979,204.04348c0,0 4.4444,-0.3391 4.94978,2.56651c0.80858,4.64885 -32.77297,5.13666 -33.91258,0.34025c-0.46562,-1.9597 2.66559,-2.71307 2.66559,-2.71307l0.65122,1.76265c0,0 6.32857,1.26983 14.16524,1.32752c7.7281,0.0569 12.727,-1.26901 12.727,-1.26901z"/><path d="M264.18367,196.26347c0,0 2.5516,-2.85388 3.91215,-0.94807c2.85599,4.00059 -22.55879,28.50959 -24.33107,24.20478c-1.07334,-2.60711 2.00303,-4.31148 2.00303,-4.31148l0.51761,1.28253c0,0 4.49281,-2.95481 10.14128,-8.59668c5.64847,-5.64185 8.39121,-10.48079 8.39121,-10.48079z" data-paper-data="{&quot;index&quot;:null}"/></g></g><path d="M249.11023,229.54892c-0.70278,-2.01839 -3.17692,-10.98663 -5.38565,-19.09932c-0.34165,-1.25483 0.1636,-3.48409 0.1636,-3.48409c0,0 1.13455,-1.39586 1.944,-1.60989c8.93056,-2.3614 17.23985,-5.29999 20.82276,-5.17875c1.19429,0.04041 3.5161,0.61638 3.5161,0.61638c0,0 1.21368,2.66252 1.49473,3.35584c0.09368,0.2311 0.14706,0.361 0.22661,0.59711c2.38333,7.07456 4.36039,15.46316 4.91214,18.42868c0.18392,0.9885 -0.57139,2.80228 -0.57139,2.80228c0,0 -0.42158,1.95583 -3.10901,3.19876c-2.94052,1.36 -10.53158,3.07113 -18.36521,4.81194c-1.1761,0.26135 -3.57067,-1.37644 -3.57067,-1.37644z" fill="#582700" stroke="#000000" stroke-width="2.5" stroke-linecap="round"/></g><path d="M222.1747,166.81357c0.78847,-0.31215 1.76626,0.48382 2.18393,1.77784c0.41768,1.29402 0.11708,2.59607 -0.67139,2.90822c-0.78847,0.31215 -1.76626,-0.48382 -2.18393,-1.77784c-0.41768,-1.29402 -0.11708,-2.59607 0.67139,-2.90822z" data-paper-data="{&quot;index&quot;:null}" fill="#ff8484" stroke="#000000" stroke-width="1" stroke-linecap="butt"/><path d="M231.03125,154.3566c1.89852,-1.19628 4.47373,0.16215 5.75188,3.03414c1.27815,2.87201 0.77525,6.17002 -1.12329,7.36632c-1.89852,1.19628 -4.47373,-0.16215 -5.75188,-3.03414c-1.27815,-2.87201 -0.77525,-6.17002 1.12329,-7.36632z" fill="#ffffff" stroke="#000000" stroke-width="1.75" stroke-linecap="butt"/><g data-paper-data="{&quot;index&quot;:null}" fill="none" stroke="#000000" stroke-width="2.5" stroke-linecap="butt"><path d="M241.23369,160.18807c-0.29915,-0.18296 0.45948,-1.96813 1.69444,-3.98728c1.23495,-2.01916 2.47858,-3.5077 2.77771,-3.32474c0.29913,0.18296 -0.4595,1.96811 -1.69444,3.98727c-1.23495,2.01915 -2.77769,3.32475 -2.77769,3.32475z"/><path d="M245.1769,161.52514c1.99412,1.27496 3.45757,2.54802 3.26866,2.84345c-0.18887,0.29544 -1.95858,-0.49866 -3.95269,-1.77363c-1.99412,-1.27496 -3.45758,-2.54804 -3.26866,-2.84348c0,0 1.95857,0.49867 3.9527,1.77364z" data-paper-data="{&quot;index&quot;:null}"/></g><path d="M186.85455,200.93708v4.94742h-6.552v-4.94742z" data-paper-data="{&quot;index&quot;:null}" fill="#582700" stroke="none" stroke-width="0" stroke-linecap="butt"/><path d="M177.36084,197.3268v2.808h-3.61028v-2.808z" data-paper-data="{&quot;index&quot;:null}" fill="#582700" stroke="none" stroke-width="0" stroke-linecap="butt"/></g></g></svg>