<svg version="1.1" xmlns="http://www.w3.org/2000/svg" xmlns:xlink="http://www.w3.org/1999/xlink" width="1860.5372" height="556.08125" viewBox="0,0,1860.5372,556.08125"><defs><linearGradient x1="237.38866" y1="340.61939" x2="237.38866" y2="-126.21638" gradientUnits="userSpaceOnUse" id="color-1"><stop offset="0" stop-color="#cee0ff"/><stop offset="1" stop-color="#80b7ff"/></linearGradient><linearGradient x1="260.25232" y1="67.11656" x2="260.25232" y2="235.72425" gradientUnits="userSpaceOnUse" id="color-2"><stop offset="0" stop-color="#3d9039"/><stop offset="1" stop-color="#265221"/></linearGradient></defs><g transform="translate(545.53967,126.21638)"><g data-paper-data="{&quot;isPaintingLayer&quot;:true}" fill-rule="nonzero" stroke-linejoin="miter" stroke-miterlimit="10" stroke-dasharray="" stroke-dashoffset="0" style="mix-blend-mode: normal"><path d="M657.05709,-126.21638v466.83577h-839.33685v-466.83577z" data-paper-data="{&quot;index&quot;:null}" fill="url(#color-1)" stroke="none" stroke-width="0" stroke-linecap="butt"/><path d="M737.1191,304.31951l-966.88098,-4.68013l7.71321,-213.94964c0,0 21.90762,-7.64641 48.90925,-7.75048c33.92396,-0.13077 57.86656,6.55972 57.86656,6.55972c0,0 34.55139,-12.55966 59.72207,-13.09825c55.6483,-1.19075 77.81967,13.09825 77.81967,13.09825c0,0 41.77692,-11.56014 85.05187,-11.16174c61.56989,0.56683 94.11434,9.97099 94.11434,9.97099c0,0 35.3909,-13.18458 74.15493,-12.44182c41.75148,0.80001 56.14778,8.86956 56.14778,8.86956c0,0 37.12909,-11.39817 99.47909,-9.78184c68.82983,1.7843 103.21401,12.16333 103.21401,12.16333c0,0 20.24658,-10.69002 56.10255,-14.28901c30.54335,-3.06572 74.20016,4.76301 74.20016,4.76301c0,0 35.95483,-2.43861 49.42357,-0.78988c12.37911,1.51534 28.3961,10.31589 28.3961,10.31589z" fill="url(#color-2)" stroke="#000000" stroke-width="1" stroke-linecap="round"/><path d="M87.08721,333.39342l-38.00675,-65.43316c0,0 117.82319,-32.16444 511.82431,-32.16444c372.04167,0 478.88514,12.33992 478.88514,12.33992v85.25767z" fill="#a9fab2" stroke="#000000" stroke-width="1.5" stroke-linecap="butt"/><path d="M-544.78967,349.41444v-95.75092c0,0 76.12122,-13.8587 451.88156,-13.8587c354.81752,0 456.71453,13.8587 456.71453,13.8587v95.75092z" fill="#a9fab2" stroke="#000000" stroke-width="1.5" stroke-linecap="butt"/><path d="M-257.40043,426.99703v-118.04908c0,0 131.67101,-17.08605 781.64406,-17.08605c613.74711,0 790.0039,17.08605 790.0039,17.08605v118.04908z" fill="#8df99a" stroke="#000000" stroke-width="1.5" stroke-linecap="butt"/><g stroke="#000000" stroke-linecap="butt"><path d="M112.51354,429.11l15.01501,-140.04504l209.96697,-0.4955l33.009,139.03904z" fill="#f5f5f5" stroke-width="1.5"/><path d="M37.29733,300.07883v-217.71772h385.88589v217.71772z" fill="#ffecad" stroke-width="1.5"/><path d="M198.00007,261.52628v-86.5h53.5v86.5z" fill="#836346" stroke-width="1.5"/><path d="M74.50005,224.75001v-76.5h96.5v76.5z" fill="#f5f5f5" stroke-width="1.5"/><path d="M80.50005,219.20079v-65.40155h84.5v65.40155z" fill="#89c6c9" stroke-width="1.5"/><path d="M274.50005,224.75001v-76.5h96.5v76.5z" fill="#f5f5f5" stroke-width="1.5"/><path d="M280.50005,219.20079v-65.40155h84.5v65.40155z" fill="#89c6c9" stroke-width="1.5"/><g stroke-width="1.5"><path d="M176.99028,272.44178l2,-2.73531v-14.76234l4.12752,-1.80247l88.24749,-0.19753l4.12499,2v14.51234l2,2.73531l-0.17351,14.97774l2.79171,2.75316l-106.10449,-0.02285l2.8613,-2.95806z" fill="#cfcfcf"/><g fill="#f5f5f5"><path d="M178.99028,269.44179v-14.49765h96.5v14.49765z"/><path d="M176.9903,287.24226v-15.09859h100.5v15.09859z"/><path d="M173.9903,305.69297v-16h106.5v16z"/></g></g><path d="M-9.61565,87.28079l243.27986,-77.52253l223.64439,77.99429z" fill="#6a6348" stroke-width="1.5"/><path d="M237.66669,223.66875c0,-4.05009 3.28325,-7.33333 7.33333,-7.33333c4.05009,0 7.33333,3.28325 7.33333,7.33333c0,4.05009 -3.28325,7.33333 -7.33333,7.33333c-4.05009,0 -7.33333,-3.28325 -7.33333,-7.33333z" fill="#fffc49" stroke-width="1"/></g><g stroke="#000000" stroke-linecap="butt"><path d="M588.26428,426.60248l7.50751,-135.54053l209.96697,-0.4955l28.5045,93.99399z" fill="#f5f5f5" stroke-width="1.5"/><path d="M505.54058,302.07582v-217.71772h385.88589v217.71772z" fill="#e3efff" stroke-width="1.5"/><path d="M666.24331,263.52327v-86.5h53.5v86.5z" fill="#836346" stroke-width="1.5"/><path d="M542.74329,226.747v-76.5h96.5v76.5z" fill="#f5f5f5" stroke-width="1.5"/><path d="M548.74329,221.19778v-65.40155h84.5v65.40155z" fill="#7d8aff" stroke-width="1.5"/><path d="M742.7433,226.747v-76.5h96.5v76.5z" fill="#f5f5f5" stroke-width="1.5"/><path d="M748.7433,221.19778v-65.40155h84.5v65.40155z" fill="#89c6c9" stroke-width="1.5"/><g stroke-width="1.5"><path d="M645.23352,274.43877l2,-2.73531v-14.76234l4.12752,-1.80247l88.24749,-0.19753l4.12499,2v14.51234l2,2.73531l-0.17351,14.97774l2.79171,2.75316l-106.10449,-0.02285l2.8613,-2.95806z" fill="#cfcfcf"/><g fill="#f5f5f5"><path d="M647.23352,271.43878v-14.49765h96.5v14.49765z"/><path d="M645.23354,289.23925v-15.09859h100.5v15.09859z"/><path d="M642.23354,307.68996v-16h106.5v16z"/></g></g><path d="M458.6276,89.27778l243.27986,-77.52253l223.64439,77.99429z" fill="#6a6348" stroke-width="1.5"/><path d="M705.90993,225.66574c0,-4.05009 3.28325,-7.33333 7.33333,-7.33333c4.05009,0 7.33333,3.28325 7.33333,7.33333c0,4.05009 -3.28325,7.33333 -7.33333,7.33333c-4.05009,0 -7.33333,-3.28325 -7.33333,-7.33333z" fill="#fffc49" stroke-width="1"/></g><g stroke="#000000" stroke-linecap="butt"><path d="M-369.97896,380.55143l10.51051,-91.99699l209.96697,-0.4955l28.5045,93.99399z" fill="#f5f5f5" stroke-width="1.5"/><path d="M-449.69966,299.56831v-217.71772h385.88589v217.71772z" fill="#ffadad" stroke-width="1.5"/><path d="M-288.99693,261.01576v-86.5h53.5v86.5z" fill="#836346" stroke-width="1.5"/><path d="M-412.49695,224.23949v-76.5h96.5v76.5z" fill="#f5f5f5" stroke-width="1.5"/><path d="M-406.49695,218.69027v-65.40155h84.5v65.40155z" fill="#89c6c9" stroke-width="1.5"/><path d="M-212.49694,224.23949v-76.5h96.5v76.5z" fill="#f5f5f5" stroke-width="1.5"/><path d="M-206.49694,218.69027v-65.40155h84.5v65.40155z" fill="#89c6c9" stroke-width="1.5"/><g stroke-width="1.5"><path d="M-310.00672,271.93126l2,-2.73531v-14.76234l4.12752,-1.80247l88.24749,-0.19753l4.12499,2v14.51234l2,2.73531l-0.17351,14.97774l2.79171,2.75316l-106.10449,-0.02285l2.8613,-2.95806z" fill="#cfcfcf"/><g fill="#f5f5f5"><path d="M-308.00672,268.93127v-14.49765h96.5v14.49765z"/><path d="M-310.0067,286.73174v-15.09859h100.5v15.09859z"/><path d="M-313.0067,305.18245v-16h106.5v16z"/></g></g><path d="M-496.61264,86.77027l243.27986,-77.52253l223.64439,77.99429z" fill="#6a6348" stroke-width="1.5"/><path d="M-249.33031,223.15823c0,-4.05009 3.28325,-7.33333 7.33333,-7.33333c4.05009,0 7.33333,3.28325 7.33333,7.33333c0,4.05009 -3.28325,7.33333 -7.33333,7.33333c-4.05009,0 -7.33333,-3.28325 -7.33333,-7.33333z" fill="#fffc49" stroke-width="1"/></g></g></g></svg>