<svg version="1.1" xmlns="http://www.w3.org/2000/svg" xmlns:xlink="http://www.w3.org/1999/xlink" width="189.26654" height="221.55319" viewBox="0,0,189.26654,221.55319"><g transform="translate(-145.36673,-69.22341)"><g data-paper-data="{&quot;isPaintingLayer&quot;:true}" fill-rule="nonzero" stroke-linejoin="miter" stroke-miterlimit="10" stroke-dasharray="" stroke-dashoffset="0" style="mix-blend-mode: normal"><path d="M145.36673,290.77659v-221.55318h189.26654v221.55319z" fill="none" stroke="none" stroke-width="NaN" stroke-linecap="butt"/><g data-paper-data="{&quot;index&quot;:null,&quot;origRot&quot;:0}" stroke="#000000" stroke-linecap="round"><path d="M203.57349,260.99522c0,0 -4.7305,0.59977 -7.029,-0.32349c-1.75962,-0.70679 -2.27844,-2.49344 -2.65041,-4.19769c-1.02102,-4.67791 0.77822,-9.21426 1.23769,-16.61885c0.12515,-2.01667 3.48457,-2.98736 5.70831,-2.74418c2.07985,0.22746 5.67983,0.73775 5.67983,0.73775l34.92965,4.53131c0,0 4.50102,0.71978 5.21207,2.42039c1.71235,4.09537 -0.09108,8.31726 -0.08854,12.69404c0.00086,1.48322 -5.11394,1.34758 -5.11394,1.34758z" data-paper-data="{&quot;origPos&quot;:null}" fill="#ff0000" stroke-width="3"/><path d="M205.36966,237.71859l-1.47875,22.37707c0,0 -2.72068,0.96376 -4.51434,0.8326c-1.70268,-0.12449 -4.44462,-1.48772 -4.44462,-1.48772c0,0 -0.86287,-8.1471 -0.75755,-11.89705c0.1373,-4.88763 3.09369,-10.52871 3.09369,-10.52871z" data-paper-data="{&quot;origPos&quot;:null}" fill="#976e57" stroke-width="2.5"/><path d="M203.23379,260.90923c0,0 -4.7305,0.59977 -7.02901,-0.3235c-1.75962,-0.70679 -2.27844,-2.49344 -2.65042,-4.19768c-1.02102,-4.67791 0.77821,-9.21425 1.23769,-16.61885c0.12515,-2.01667 3.48458,-2.98735 5.7083,-2.74417c2.07985,0.22746 5.67982,0.73775 5.67982,0.73775l34.92966,4.53131c0,0 4.50102,0.71977 5.21207,2.42038c1.71235,4.09537 -0.09108,8.31728 -0.08854,12.69405c0.00086,1.48322 -5.11394,1.34757 -5.11394,1.34757c0,0 -9.57969,0.54444 -15.7112,0.89291c-8.65387,0.49181 -22.17447,1.26022 -22.17447,1.26022z" data-paper-data="{&quot;origPos&quot;:null}" fill="#474747" stroke-width="1.5"/></g><g><g><g data-paper-data="{&quot;origRot&quot;:0}" stroke="#000000" stroke-width="3" stroke-linecap="round"><path d="M290.04793,215.98693c1.66885,1.5399 -5.32709,5.96593 -5.32709,5.96593c0,0 -18.13983,12.18517 -26.68002,17.9738c-3.98833,1.9429 -31.26525,-21.86871 -31.42796,-26.96406c-0.07252,-2.27135 5.13577,-9.66067 7.09994,-9.69735c3.73863,-0.06984 18.11517,7.00847 18.11517,7.00847l-2.74078,2.71834l7.92908,-6.47458c0,0 8.48917,-8.28137 13.11208,-10.82015c2.56389,-1.40802 19.91956,20.2896 19.91956,20.2896z" data-paper-data="{&quot;origPos&quot;:null}" fill="#582700"/><path d="M263.11962,201.94107l19.54749,19.66402" fill="none"/><path d="M260.19036,204.64635l19.75519,19.49615" data-paper-data="{&quot;origPos&quot;:null}" fill="none"/></g><path d="M282.94324,222.11724l-2.02767,1.65963l-20.13457,-20.00089l2.02767,-1.65963z" fill="#ffffff" stroke="none" stroke-width="0" stroke-linecap="butt"/><path d="M257.89969,240.19893l-9.3467,-4.905l-16.49849,-14.95232l-4.36271,-6.33859l0.13293,-4.50627l5.12777,-4.69711l1.02556,-0.93943l16.42249,6.25293l-1.87748,2.03296l1.38913,1.23298l9.57996,-7.83584l20.49765,19.11853l-21.23821,14.4436z" fill="#ffcb66" stroke="#000000" stroke-width="0.5" stroke-linecap="round"/></g><g fill="none" stroke="none" stroke-width="1" stroke-linecap="butt" font-family="sans-serif" font-weight="normal" font-size="12" text-anchor="start"/></g><g data-paper-data="{&quot;origRot&quot;:0}" stroke="#000000" stroke-linecap="round"><path d="M258.80185,216.49361c0,0 1.68495,-4.35667 3.22124,-3.82659c4.53336,1.56424 9.55086,1.55198 13.18245,4.45595c1.50803,1.20588 0.64729,5.25405 0.64729,5.25405l-7.77212,31.03883c0,0 -0.75619,3.21441 -1.26287,5.04749c-0.54173,1.95987 -2.74632,4.44312 -4.88022,3.82876c-7.83502,-2.25568 -13.17676,-2.35924 -17.65861,-4.8888c-1.63282,-0.92157 -3.29858,-1.99625 -3.40279,-3.73064c-0.13616,-2.26558 2.17354,-6.03604 2.17354,-6.03604z" data-paper-data="{&quot;origPos&quot;:null}" fill="#ff0000" stroke-width="3"/><path d="M265.64279,261.50634c0,0 -6.89922,0.4769 -12.01175,-1.15187c-3.9225,-1.24966 -12.05481,-4.88419 -12.05481,-4.88419c0,0 -0.43367,-2.79608 0.04504,-4.27471c0.50428,-1.55764 2.47373,-3.50532 2.47373,-3.50532l23.71012,6.74086z" data-paper-data="{&quot;origPos&quot;:null}" fill="#976e57" stroke-width="2"/><path d="M258.76971,216.81043c0,0 1.68496,-4.35667 3.22125,-3.82658c4.53335,1.56424 9.55085,1.55199 13.18246,4.45598c1.50803,1.20588 0.64728,5.25403 0.64728,5.25403l-7.77211,31.03883c0,0 -0.75617,3.21443 -1.26285,5.0475c-0.54173,1.95987 -2.74633,4.4431 -4.88022,3.82875c-7.83502,-2.25568 -13.17676,-2.35923 -17.65862,-4.88879c-1.63282,-0.92157 -3.29857,-1.99626 -3.40278,-3.73063c-0.13616,-2.26558 2.17353,-6.03604 2.17353,-6.03604z" data-paper-data="{&quot;origPos&quot;:null}" fill="#474747" stroke-width="3"/></g><g><g><path d="M217.37324,205.51943c0,0 2.06901,-13.84898 4.36868,-14.37553c6.89898,-1.57965 22.67099,-0.68525 33.21256,-0.68525c1.62962,0 3.03687,13.00705 3.03687,13.00705l1.89803,29.43701c0,0 0.25932,14.37621 -1.51843,14.37621c-15.82525,0 -34.37349,0.81946 -41.42715,0.01124c-2.35121,-0.2694 -1.46862,-15.41431 -1.46862,-15.41431z" data-paper-data="{&quot;origPos&quot;:null}" fill="#ffcb66" stroke="#000000" stroke-width="3.5" stroke-linecap="round"/><path d="M237.4598,213.39936c-1.37678,0 -1.37678,-2.39076 -1.37678,-2.39076c0,-4.9586 0,-11.51103 0,-16.46964c0,0 0,-2.39076 1.37678,-2.39076c1.37678,0 1.37678,2.39076 1.37678,2.39076c0,4.9586 0,9.9172 0,14.8758v1.59383c0,0 0,2.39076 -1.37678,2.39076z" fill="#ffffff" stroke="none" stroke-width="0.5" stroke-linecap="butt"/><path d="M250.25049,219.48637c-1.37678,0 -1.37678,-3.00346 -1.37678,-3.00346c0,-6.2294 0,-14.4611 0,-20.6905c0,0 0,-3.00346 1.37678,-3.00346c1.37678,0 1.37678,3.00346 1.37678,3.00346c0,6.2294 0,12.4588 0,18.68821v2.00229c0,0 0,3.00346 -1.37678,3.00346z" fill="#ffffff" stroke="none" stroke-width="0.5" stroke-linecap="butt"/></g><g stroke="#000000" stroke-width="0.5" stroke-linecap="butt"><path d="M253.21234,229.07297c0,6.49491 -4.91908,11.76007 -10.98706,11.76007c-6.06799,0 -10.98706,-5.26517 -10.98706,-11.76007c0,-6.49491 4.91908,-11.76007 10.98706,-11.76007c6.06799,0 10.98706,5.26517 10.98706,11.76007z" fill="#ffa924"/><path d="M245.48741,218.22421c0.00045,0.01077 0.00068,0.02176 0.00068,0.03296c0,0.60042 -0.66588,0.60042 -0.66588,0.60042h-0.13317c-0.48653,0 -2.70441,0.02681 -3.03684,-0.10323c-0.2775,-0.10857 -0.21714,-0.52197 -0.41682,-0.72687c-0.19183,-0.19684 -0.46476,-0.31856 -0.72155,-0.44125c-0.40835,-0.19511 -0.96606,-0.19199 -1.26648,-0.50864c-0.27752,-0.29251 -0.3105,-0.74178 -0.28437,-1.126c0.12275,-1.80446 1.35074,-1.82292 2.93699,-1.66022c0.47844,0.09502 0.97214,0.14115 1.43532,0.28506c0.20377,0.06331 0.32537,0.28265 0.53516,0.32717c0.14912,0.03165 0.28941,-0.094 0.43981,-0.12027c0.00642,-0.00112 1.86431,-0.24039 1.88273,-0.24276c1.25605,-0.16079 2.5993,-0.20771 3.8669,-0.12482c0.80772,0.05282 2.63277,0.23324 3.09861,0.96303c0.66341,1.03931 -1.26479,1.74257 -1.7474,1.92047c-1.42824,0.52648 -2.64733,0.19922 -4.10193,0.35201c-0.49549,0.05204 -1.29184,0.36536 -1.82175,0.57295z" fill="#1cc735"/></g></g><path d="M256.45612,194.20395c-12.88209,0.17098 -25.37474,0.30208 -30.48597,-0.64174c-4.67133,-0.86258 -6.09114,-3.51005 -6.09114,-3.51005c0,0 -1.88427,-2.33173 -1.98344,-3.80432c-0.2975,-4.41779 -0.49064,-17.05551 0.46178,-27.9562c0.03178,-0.36381 0.06426,-0.56724 0.12003,-0.92869c0.16728,-1.08436 1.0191,-5.29418 1.0191,-5.29418c0,0 3.39209,-1.60848 5.23675,-2.07084c5.53397,-1.3871 19.62437,-0.01041 34.45736,0.33227c1.34442,0.03106 3.6564,1.63802 3.6564,1.63802c0,0 1.65682,3.0092 1.61421,4.9152c-0.27543,12.32257 -0.63046,25.95574 -0.93773,29.07347c-0.10241,1.03925 -2.04215,5.0734 -2.04215,5.0734z" fill="#582600" stroke="#000000" stroke-width="2.5" stroke-linecap="round"/><g data-paper-data="{&quot;index&quot;:null}" fill="none" stroke="#000000" stroke-width="2.5" stroke-linecap="butt"><path d="M257.17199,177.28411c-0.22292,-0.11363 0.53285,-1.69944 1.68809,-3.54202c1.15523,-1.84256 2.27246,-3.24416 2.49538,-3.13052c0.2229,0.11362 -0.53285,1.69947 -1.68809,3.54204c-1.15524,1.84256 -2.27246,3.24414 -2.49538,3.1305z"/><path d="M260.68053,179.2032c1.80285,1.35554 3.13138,2.59822 2.9674,2.77555c-0.16399,0.17735 -1.75844,-0.77779 -3.56128,-2.13334c-1.80284,-1.35556 -3.13137,-2.59823 -2.96739,-2.77555c0.16399,-0.17733 1.75844,0.7778 3.56129,2.13333z" data-paper-data="{&quot;index&quot;:null}"/></g><g fill="none" stroke="#000000" stroke-width="2.5" stroke-linecap="butt"><path d="M250.21886,174.39163c-1.15524,-1.84258 -1.911,-3.42842 -1.68809,-3.54204c0.22292,-0.11363 1.34014,1.28796 2.49538,3.13052c1.15524,1.84258 1.91101,3.42839 1.6881,3.54202c-0.22292,0.11363 -1.34013,-1.28794 -2.49538,-3.1305z"/><path d="M249.20567,179.44122c1.80285,-1.35554 3.3973,-2.31066 3.56129,-2.13333c0.16399,0.17733 -1.16455,1.42 -2.96739,2.77555c-1.80284,1.35556 -3.3973,2.31069 -3.56129,2.13334c-0.16399,-0.17733 1.16456,-1.42001 2.9674,-2.77555z" data-paper-data="{&quot;index&quot;:null}"/></g><g><g data-paper-data="{&quot;index&quot;:null}"><path d="M266.71568,197.02828c1.96511,-1.21225 3.34245,-6.45425 4.59101,-4.80865c0.63596,0.83822 11.92319,16.35246 11.91365,17.46817c-0.00922,1.07463 -0.45774,2.02534 -1.42187,2.6201c-0.65597,0.40464 -1.88194,0.74126 -2.84079,0.68376c-1.91372,-0.11478 -17.48284,-12.84367 -18.31464,-13.93997c-1.24855,-1.64561 4.10755,-0.81117 6.07264,-2.02341z" fill="#e99b00" stroke="#000000" stroke-width="1.5" stroke-linecap="butt"/><g stroke-linecap="butt"><path d="M262.6238,191.59209c3.5603,-2.19631 7.75028,-2.25839 9.35854,-0.13866c1.60829,2.11971 0.02588,5.61855 -3.53441,7.81486c-3.56031,2.1963 -7.75028,2.25838 -9.35858,0.13866c-1.60829,-2.11971 -0.02588,-5.61855 3.53443,-7.81484z" fill="#ffb727" stroke="#000000" stroke-width="1.5"/><path d="M264.91304,199.88676c0,0 -1.55015,0.54378 -3.22151,0.23589c-0.79475,-0.15749 -2.39127,-1.15392 -2.39127,-1.15392l3.78566,-0.62049z" fill="#ffd683" stroke="none" stroke-width="0"/><path d="M268.07622,198.59933l-1.58502,0.92211c0,0 -0.6315,-0.40572 -0.88574,-0.69839c-0.21713,-0.24995 -0.69148,-1.04939 -0.69148,-1.04939l1.46428,-0.57665z" fill="#ffd683" stroke="none" stroke-width="0"/></g><g><path d="M266.29817,196.25356c-4.91154,3.02985 -12.22203,3.04645 -15.58219,-1.38221c-3.36018,-4.42871 -2.26155,-9.71061 2.64996,-12.74044c4.91154,-3.02985 11.86875,-2.05112 15.22892,2.37756c3.36018,4.42871 2.61482,8.71525 -2.29666,11.74508z" fill="#e99b00" stroke="#000000" stroke-width="1.5" stroke-linecap="butt"/><path d="M252.14938,183.72155c0,0 1.99079,0.30933 4.7321,0.9569c2.73466,0.64598 5.79429,2.24753 7.26245,4.18253c2.93989,3.87477 2.75801,6.09051 -0.81052,8.29193c-1.7361,1.07098 -3.9908,1.22009 -5.94653,0.68311c-2.74507,-0.75371 -5.65935,-2.29926 -7.32645,-4.49653c-2.93989,-3.87477 2.08896,-9.61793 2.08896,-9.61793z" fill="#ffb727" stroke="none" stroke-width="0" stroke-linecap="butt"/><path d="M267.97826,185.29578c0,0 -0.5554,4.30856 -6.42257,7.65768c-5.81948,3.32191 -10.54931,1.77897 -10.54931,1.77897" fill="none" stroke="#000000" stroke-width="0.8" stroke-linecap="round"/><path d="M269.88025,190.25644c0,0 -0.86803,2.78019 -6.59115,5.27436c-3.97127,1.7307 -8.58876,2.08833 -8.58876,2.08833" fill="none" stroke="#000000" stroke-width="0.75" stroke-linecap="round"/><path d="M266.05042,183.32119c0,0 -0.49195,2.5487 -6.29451,5.46236c-6.03289,3.02932 -10.57202,2.03684 -10.57202,2.03684" fill="none" stroke="#000000" stroke-width="0.8" stroke-linecap="round"/><path d="M249.28677,187.46395c0,0 3.72674,-2.35048 8.00758,-3.72774c3.25005,-1.04565 7.93979,-1.39651 7.93979,-1.39651" fill="none" stroke="#000000" stroke-width="0.8" stroke-linecap="round"/><path d="M257.54558,181.0778c0,0 3.85792,0.46017 6.96698,4.9354c3.33171,4.79573 3.21106,8.47916 3.21106,8.47916" fill="none" stroke="#000000" stroke-width="0.8" stroke-linecap="round"/><path d="M265.30784,196.4992c0,0 -1.97244,-2.26252 -2.95678,-3.73163c-0.82874,-1.23691 -1.94217,-3.87683 -3.34316,-6.12662c-1.59311,-2.5583 -3.43397,-4.66973 -3.43397,-4.66973" fill="none" stroke="#000000" stroke-width="0.8" stroke-linecap="round"/><path d="M262.99733,197.79538c0,0 -4.22399,-1.87292 -7.69491,-6.73584c-2.21144,-3.09832 -2.27255,-8.1 -2.27255,-8.1" fill="none" stroke="#000000" stroke-width="0.8" stroke-linecap="round"/><path d="M257.54726,198.44559c0,0 -2.99849,-1.5611 -5.49018,-6.38666c-1.73028,-3.351 -1.58931,-7.00231 -1.58931,-7.00231" fill="none" stroke="#000000" stroke-width="0.8" stroke-linecap="round"/><path d="M251.49164,193.01257c-0.3502,0.21604 -0.85822,0.0958 -1.13466,-0.26858c-0.27646,-0.36435 -0.21665,-0.83485 0.13357,-1.0509c0.3502,-0.21604 0.85822,-0.09581 1.13466,0.26856c0.27646,0.36435 0.21664,0.83489 -0.13356,1.05091z" fill="#ffd683" stroke="none" stroke-width="0" stroke-linecap="butt"/><path d="M250.33017,190.11327c-0.20204,0.12464 -0.47787,0.07798 -0.61611,-0.10418c-0.13822,-0.18218 -0.08649,-0.43089 0.11554,-0.55554c0.20204,-0.12464 0.47788,-0.07798 0.61611,0.10418c0.13822,0.18218 0.0865,0.4309 -0.11554,0.55554z" fill="#ffd683" stroke="none" stroke-width="0" stroke-linecap="butt"/></g></g><path d="M264.00937,200.53832c6.37316,7.55416 6.86347,9.24794 6.86347,9.24794c0.74156,0.9853 -0.38941,1.54014 -0.38941,1.54014c0,0 -2.04763,1.3176 -3.35821,2.16092c-0.86058,0.55377 -2.20513,1.41896 -2.20513,1.41896c0,0 -0.94409,0.418 -1.33616,-0.12774c-2.35864,-3.28327 -4.80641,-6.30703 -5.81678,-8.05785c-0.33679,-0.58361 0.04849,-1.70391 0.04849,-1.70391l3.80112,-3.08431c0,0 1.47711,-1.34585 2.39258,-1.39413z" fill="#582700" stroke="#000000" stroke-width="3" stroke-linecap="round"/><path d="M274.9045,195.012c12.77888,15.87918 13.90002,19.33302 13.90002,19.33302c1.5001,2.06092 -0.53266,3.04569 -0.53266,3.04569c0,0 -3.64139,2.41102 -5.97203,3.95419c-1.53041,1.01331 -3.92148,2.59649 -3.92148,2.59649c0,0 -1.70242,0.73146 -2.49858,-0.40793c-4.78977,-6.85486 -9.71301,-13.19925 -11.80753,-16.8266c-0.69817,-1.20911 -0.12117,-3.413 -0.12117,-3.413l6.68052,-5.75642c0,0 2.57776,-2.53245 4.27288,-2.52542z" fill="#582700" stroke="#000000" stroke-width="3" stroke-linecap="round"/></g><path d="M218.18521,151.63536l0.31992,-12.49106l46.67357,0.9719l-0.31992,12.49106z" fill="#000000" stroke="none" stroke-width="0" stroke-linecap="butt"/><g data-paper-data="{&quot;index&quot;:null}"><g data-paper-data="{&quot;origRot&quot;:0,&quot;index&quot;:null}" stroke="#000000" stroke-width="3" stroke-linecap="round"><path d="M256.94967,232.71739c0,0 -21.6655,14.40704 -23.44768,12.54964c-3.21339,-3.349 -8.0014,-12.6258 -8.0014,-12.6258l-13.04807,-26.42884c0,0 -2.39301,-5.0511 -1.63975,-5.9267c2.25976,-2.62677 8.77753,-4.86756 14.74136,-8.27801c0.9913,-0.56686 4.86203,3.93215 4.86203,3.93215c0,0 5.74365,7.32094 9.41991,12.00669c5.59855,7.13595 14.34559,18.28499 14.34559,18.28499c0,0 4.68331,5.57271 2.76803,6.48592z" data-paper-data="{&quot;origPos&quot;:null}" fill="#582600"/><path d="M230.0278,238.71304l22.9339,-12.10219" fill="none"/><path d="M251.39059,223.73835l-23.06172,11.90523" data-paper-data="{&quot;origPos&quot;:null}" fill="none"/></g><path d="M227.71706,235.20566l-16.52592,-33.48995l0.80906,-1.18934l14.57654,-7.63851l24.33546,30.10823z" fill="#ffcb66" stroke="#000000" stroke-width="1" stroke-linecap="round"/><path d="M229.91247,238.59112l-1.24788,-1.93738l23.50439,-12.30923l1.24788,1.93738z" fill="#ffffff" stroke="none" stroke-width="0" stroke-linecap="butt"/></g><path d="M236.61591,187.81219c-0.71912,1.75685 -2.26155,2.79645 -3.4451,2.32203c-1.18354,-0.47442 -1.56005,-2.28322 -0.84091,-4.04006c0.71912,-1.75685 2.26155,-2.79645 3.4451,-2.32203c1.18354,0.47442 1.56005,2.28322 0.84091,4.04006z" fill="#ff8484" stroke="#000000" stroke-width="1" stroke-linecap="butt"/></g></g></svg>