<svg version="1.1" xmlns="http://www.w3.org/2000/svg" xmlns:xlink="http://www.w3.org/1999/xlink" width="189.26654" height="221.55319" viewBox="0,0,189.26654,221.55319"><g transform="translate(-145.36673,-69.22341)"><g data-paper-data="{&quot;isPaintingLayer&quot;:true}" fill-rule="nonzero" stroke-linejoin="miter" stroke-miterlimit="10" stroke-dasharray="" stroke-dashoffset="0" style="mix-blend-mode: normal"><path d="M145.36673,290.77659v-221.55318h189.26654v221.55319z" fill="none" stroke="none" stroke-width="NaN" stroke-linecap="butt"/><g data-paper-data="{&quot;index&quot;:null,&quot;origRot&quot;:0}" stroke="#000000" stroke-linecap="round"><path d="M205.14247,260.96747c0,0 -4.53308,0.60951 -6.73565,-0.32874c-1.68618,-0.71827 -2.18335,-2.53393 -2.5398,-4.26585c-0.97841,-4.75387 0.74574,-9.36388 1.18604,-16.8887c0.11992,-2.04942 3.33915,-3.03587 5.47009,-2.78874c1.99305,0.23115 5.4428,0.74973 5.4428,0.74973l33.47193,4.60489c0,0 4.31318,0.73147 4.99455,2.45969c1.64089,4.16187 -0.08728,8.45231 -0.08485,12.90016c0.00083,1.5073 -4.90052,1.36946 -4.90052,1.36946z" data-paper-data="{&quot;origPos&quot;:null}" fill="#ff0000" stroke-width="3"/><path d="M206.86369,237.31289l-1.41704,22.74043c0,0 -2.60713,0.97941 -4.32594,0.84612c-1.63162,-0.12651 -4.25913,-1.51187 -4.25913,-1.51187c0,0 -0.82686,-8.27939 -0.72594,-12.09023c0.13157,-4.96699 2.96459,-10.69967 2.96459,-10.69967z" data-paper-data="{&quot;origPos&quot;:null}" fill="#976e57" stroke-width="2.5"/><path d="M204.81695,260.88008c0,0 -4.53308,0.60951 -6.73566,-0.32875c-1.68618,-0.71827 -2.18335,-2.53393 -2.53981,-4.26584c-0.97841,-4.75387 0.74573,-9.36387 1.18604,-16.8887c0.11992,-2.04942 3.33916,-3.03586 5.47008,-2.78873c1.99305,0.23115 5.44279,0.74973 5.44279,0.74973l33.47194,4.60489c0,0 4.31318,0.73146 4.99455,2.45968c1.64089,4.16187 -0.08728,8.45233 -0.08485,12.90017c0.00083,1.5073 -4.90052,1.36945 -4.90052,1.36945c0,0 -9.1799,0.55328 -15.05552,0.90741c-8.29272,0.49979 -21.24906,1.28069 -21.24906,1.28069z" data-paper-data="{&quot;origPos&quot;:null}" fill="#474747" stroke-width="1.5"/></g><g><g><g data-paper-data="{&quot;origRot&quot;:0}" stroke="#000000" stroke-width="3" stroke-linecap="round"><path d="M290.39969,214.69834c1.65656,1.50935 -4.87537,6.23306 -4.87537,6.23306c0,0 -16.90984,12.96805 -24.86897,19.12606c-3.7458,2.10355 -30.77037,-21.18776 -31.11934,-26.35724c-0.15555,-2.30439 4.5521,-9.97915 6.43171,-10.0806c3.57769,-0.19313 17.61379,6.52565 17.61379,6.52565l-2.52168,2.8503l7.34791,-6.83468c0,0 7.81579,-8.68796 12.14672,-11.41741c2.40195,-1.51378 19.84523,19.95487 19.84523,19.95487z" data-paper-data="{&quot;origPos&quot;:null}" fill="#582700"/><path d="M264.07917,201.31364l19.4652,19.33169" fill="none"/><path d="M261.37649,204.15684l19.65774,19.15441" data-paper-data="{&quot;origPos&quot;:null}" fill="none"/></g><path d="M283.82822,221.15644l-1.8789,1.75178l-20.04019,-19.65463l1.8789,-1.75178z" fill="#ffffff" stroke="none" stroke-width="0" stroke-linecap="butt"/><path d="M260.5305,240.33859l-9.13687,-4.67598l-16.36669,-14.64618l-4.41826,-6.29482l-0.04352,-4.58087l4.73259,-4.93794l0.94652,-0.98759l15.96415,5.81365l-1.72092,2.12602l1.37705,1.2068l8.87728,-8.27113l20.35444,18.74664l-19.7914,15.36295z" fill="#ffcb66" stroke="#000000" stroke-width="0.5" stroke-linecap="round"/></g><g fill="none" stroke="none" stroke-width="1" stroke-linecap="butt" font-family="sans-serif" font-weight="normal" font-size="12" text-anchor="start"/></g><g data-paper-data="{&quot;origRot&quot;:0}" stroke="#000000" stroke-linecap="round"><path d="M258.06598,215.74326c0,0 1.61463,-4.42741 3.08681,-3.88873c4.34417,1.58964 9.15227,1.57718 12.6323,4.52831c1.4451,1.22546 0.62028,5.33936 0.62028,5.33936l-7.44777,31.54282c0,0 -0.72463,3.26661 -1.21016,5.12945c-0.51912,1.9917 -2.63171,4.51527 -4.67656,3.89093c-7.50804,-2.29231 -12.62685,-2.39755 -16.92167,-4.96818c-1.56467,-0.93653 -3.16092,-2.02866 -3.26078,-3.79121c-0.13047,-2.30237 2.08283,-6.13406 2.08283,-6.13406z" data-paper-data="{&quot;origPos&quot;:null}" fill="#ff0000" stroke-width="3"/><path d="M264.62143,261.48689c0,0 -6.6113,0.48465 -11.51046,-1.17057c-3.7588,-1.26995 -11.55173,-4.96349 -11.55173,-4.96349c0,0 -0.41557,-2.84148 0.04316,-4.34412c0.48324,-1.58293 2.37049,-3.56224 2.37049,-3.56224l22.72063,6.85032z" data-paper-data="{&quot;origPos&quot;:null}" fill="#976e57" stroke-width="2"/><path d="M258.03518,216.06522c0,0 1.61464,-4.42741 3.08682,-3.88872c4.34416,1.58964 9.15226,1.57719 12.63231,4.52834c1.4451,1.22546 0.62027,5.33934 0.62027,5.33934l-7.44776,31.54282c0,0 -0.72462,3.26663 -1.21014,5.12946c-0.51912,1.9917 -2.63172,4.51525 -4.67656,3.89092c-7.50804,-2.29231 -12.62685,-2.39754 -16.92168,-4.96817c-1.56467,-0.93653 -3.16091,-2.02867 -3.26077,-3.7912c-0.13047,-2.30237 2.08282,-6.13406 2.08282,-6.13406z" data-paper-data="{&quot;origPos&quot;:null}" fill="#474747" stroke-width="3"/></g><g><g><path d="M218.36631,204.59089c0,0 1.98267,-14.07386 4.18636,-14.60895c6.61106,-1.6053 21.72486,-0.69638 31.8265,-0.69638c1.56161,0 2.91013,13.21826 2.91013,13.21826l1.81882,29.91499c0,0 0.2485,14.60964 -1.45506,14.60964c-15.16481,0 -32.93898,0.83277 -39.69827,0.01142c-2.25308,-0.27377 -1.40733,-15.6646 -1.40733,-15.6646z" data-paper-data="{&quot;origPos&quot;:null}" fill="#ffcb66" stroke="#000000" stroke-width="3.5" stroke-linecap="round"/><path d="M237.6146,212.59877c-1.31932,0 -1.31932,-2.42958 -1.31932,-2.42958c0,-5.03912 0,-11.69794 0,-16.73706c0,0 0,-2.42958 1.31932,-2.42958c1.31932,0 1.31932,2.42958 1.31932,2.42958c0,5.03912 0,10.07823 0,15.11735v1.61971c0,0 0,2.42958 -1.31932,2.42958z" fill="#ffffff" stroke="none" stroke-width="0.5" stroke-linecap="butt"/><path d="M249.8715,218.78462c-1.31932,0 -1.31932,-3.05223 -1.31932,-3.05223c0,-6.33055 0,-14.69592 0,-21.02647c0,0 0,-3.05223 1.31932,-3.05223c1.31932,0 1.31932,3.05223 1.31932,3.05223c0,6.33055 0,12.6611 0,18.99166v2.03481c0,0 0,3.05223 -1.31932,3.05223z" fill="#ffffff" stroke="none" stroke-width="0.5" stroke-linecap="butt"/></g><g stroke="#000000" stroke-width="0.5" stroke-linecap="butt"><path d="M252.70974,228.52688c0,6.60037 -4.71379,11.95103 -10.52854,11.95103c-5.81475,0 -10.52854,-5.35066 -10.52854,-11.95103c0,-6.60037 4.71379,-11.95103 10.52854,-11.95103c5.81475,0 10.52854,5.35066 10.52854,11.95103z" fill="#ffa924"/><path d="M245.30719,217.50196c0.00043,0.01095 0.00065,0.02211 0.00065,0.03349c0,0.61017 -0.63809,0.61017 -0.63809,0.61017h-0.12761c-0.46622,0 -2.59155,0.02725 -2.9101,-0.10491c-0.26592,-0.11033 -0.20808,-0.53044 -0.39942,-0.73867c-0.18382,-0.20004 -0.44536,-0.32373 -0.69144,-0.44842c-0.39131,-0.19828 -0.92574,-0.19511 -1.21363,-0.5169c-0.26593,-0.29726 -0.29755,-0.75383 -0.2725,-1.14429c0.11763,-1.83376 1.29437,-1.85252 2.81442,-1.68718c0.45847,0.09657 0.93156,0.14344 1.37542,0.28969c0.19526,0.06434 0.31179,0.28724 0.51283,0.33248c0.14289,0.03216 0.27733,-0.09552 0.42145,-0.12223c0.00615,-0.00114 1.7865,-0.2443 1.80415,-0.2467c1.20363,-0.1634 2.49083,-0.21109 3.70553,-0.12685c0.77401,0.05368 2.5229,0.23703 2.96929,0.97867c0.63572,1.05619 -1.212,1.77086 -1.67448,1.95165c-1.36864,0.53502 -2.53685,0.20245 -3.93075,0.35772c-0.47481,0.05289 -1.23793,0.37129 -1.74572,0.58225z" fill="#1cc735"/></g></g><path d="M256.12575,192.45616c-12.34188,0.29845 -24.31102,0.55261 -29.21927,-0.357c-4.48582,-0.83132 -5.87602,-3.50788 -5.87602,-3.50788c0,0 -1.83171,-2.35122 -1.94327,-3.84668c-0.33467,-4.48639 -0.66163,-17.32674 0.12861,-28.41302c0.02637,-0.37 0.05521,-0.57703 0.10459,-0.94488c0.14811,-1.10353 0.91707,-5.38971 0.91707,-5.38971c0,0 3.23229,-1.66735 4.99467,-2.15504c5.28714,-1.46312 18.80422,-0.20056 33.02124,0.00407c1.28859,0.01855 3.522,1.62912 3.522,1.62912c0,0 1.62137,3.04185 1.60194,4.97911c-0.12556,12.52462 -0.3127,26.38183 -0.57212,29.55298c-0.08646,1.05705 -1.89986,5.17526 -1.89986,5.17526z" fill="#582600" stroke="#000000" stroke-width="2.5" stroke-linecap="round"/><g data-paper-data="{&quot;index&quot;:null}" fill="none" stroke="#000000" stroke-width="2.5" stroke-linecap="butt"><path d="M256.62175,175.25559c-0.21488,-0.11331 0.4915,-1.73209 1.57779,-3.61568c1.08628,-1.88355 2.14108,-3.31866 2.35596,-3.20533c0.21486,0.1133 -0.4915,1.73212 -1.57779,3.6157c-1.08629,1.88355 -2.14108,3.31864 -2.35596,3.20531z"/><path d="M260.00522,177.17178c1.74274,1.36002 3.02971,2.60995 2.87456,2.79174c-0.15514,0.18182 -1.6937,-0.77335 -3.43641,-2.13339c-1.74273,-1.36003 -3.0297,-2.60995 -2.87455,-2.79174c0.15514,-0.1818 1.6937,0.77336 3.43642,2.13338z" data-paper-data="{&quot;index&quot;:null}"/></g><g fill="none" stroke="#000000" stroke-width="2.5" stroke-linecap="butt"><path d="M249.92669,172.38363c-1.12765,-1.86121 -1.86965,-3.46539 -1.65733,-3.58301c0.21233,-0.11763 1.29861,1.29583 2.42625,3.15702c1.12765,1.86121 1.86966,3.46536 1.65734,3.58299c-0.21233,0.11763 -1.2986,-1.29581 -2.42625,-3.157z"/><path d="M249.01254,177.52473c1.7123,-1.39492 3.2294,-2.38094 3.38852,-2.20232c0.15913,0.17861 -1.09994,1.45425 -2.81223,2.84919c-1.71229,1.39494 -3.2294,2.38097 -3.38852,2.20233c-0.15913,-0.17861 1.09995,-1.45426 2.81224,-2.84919z" data-paper-data="{&quot;index&quot;:null}"/></g><g><g data-paper-data="{&quot;index&quot;:null}"><path d="M267.33674,196.20672c1.83595,-1.29538 2.95626,-6.66413 4.21433,-5.03368c0.64081,0.8305 12.0382,16.2177 12.07136,17.35111c0.03191,1.09169 -0.36158,2.07188 -1.26234,2.70743c-0.61285,0.43238 -1.77415,0.81434 -2.69459,0.78727c-1.83704,-0.05401 -17.22943,-12.47249 -18.06756,-13.5587c-1.25807,-1.63046 3.90287,-0.95807 5.7388,-2.25344z" fill="#e99b00" stroke="#000000" stroke-width="1.5" stroke-linecap="butt"/><g stroke-linecap="butt"><path d="M263.21205,190.81952c3.32629,-2.34693 7.33651,-2.54692 8.95702,-0.4467c1.62055,2.1002 0.23776,5.7053 -3.08851,8.05222c-3.3263,2.34692 -7.33651,2.54691 -8.95705,0.4467c-1.62055,-2.1002 -0.23776,-5.7053 3.08853,-8.0522z" fill="#ffb727" stroke="#000000" stroke-width="1.5"/><path d="M265.71878,199.16869c0,0 -1.46389,0.60292 -3.07615,0.34487c-0.76707,-0.13397 -2.33376,-1.09374 -2.33376,-1.09374l3.60184,-0.7539z" fill="#ffd683" stroke="none" stroke-width="0"/><path d="M268.69921,197.7578l-1.48295,0.98829c0,0 -0.62014,-0.39141 -0.87471,-0.68033c-0.21742,-0.24675 -0.70197,-1.04315 -0.70197,-1.04315l1.38041,-0.63351z" fill="#ffd683" stroke="none" stroke-width="0"/></g><g><path d="M266.90754,195.43357c-4.58872,3.23762 -11.58903,3.49342 -14.97479,-0.89445c-3.38577,-4.38793 -2.53389,-9.78809 2.05481,-13.02569c4.58872,-3.23762 11.28844,-2.47103 14.67421,1.91687c3.38577,4.38793 2.83447,8.76566 -1.7542,12.00326z" fill="#e99b00" stroke="#000000" stroke-width="1.5" stroke-linecap="butt"/><path d="M252.88279,183.16862c0,0 1.91821,0.24909 4.568,0.81715c2.64335,0.56667 5.63414,2.09319 7.11348,4.01037c2.96229,3.83909 2.87211,6.09532 -0.46188,8.44769c-1.622,1.14443 -3.77557,1.36955 -5.66884,0.88812c-2.65741,-0.67574 -5.50687,-2.15013 -7.18668,-4.32717c-2.96229,-3.83909 1.63593,-9.83616 1.63593,-9.83616z" fill="#ffb727" stroke="none" stroke-width="0" stroke-linecap="butt"/><path d="M268.10111,184.25002c0,0 -0.36856,4.39388 -5.86034,7.987c-5.44714,3.56391 -10.03519,2.15151 -10.03519,2.15151" fill="none" stroke="#000000" stroke-width="0.8" stroke-linecap="round"/><path d="M270.11061,189.22586c0,0 -0.72588,2.85191 -6.11213,5.57202c-3.73752,1.88749 -8.14592,2.40161 -8.14592,2.40161" fill="none" stroke="#000000" stroke-width="0.75" stroke-linecap="round"/><path d="M266.18004,182.30766c0,0 -0.37451,2.60452 -5.82092,5.75325c-5.6626,3.27373 -10.04716,2.41413 -10.04716,2.41413" fill="none" stroke="#000000" stroke-width="0.8" stroke-linecap="round"/><path d="M250.28326,187.06293c0,0 3.47983,-2.50894 7.5272,-4.04759c3.07279,-1.16818 7.55066,-1.67779 7.55066,-1.67779" fill="none" stroke="#000000" stroke-width="0.8" stroke-linecap="round"/><path d="M257.95028,180.30728c0,0 3.712,0.34124 6.85907,4.78464c3.37242,4.7616 3.39652,8.5064 3.39652,8.5064" fill="none" stroke="#000000" stroke-width="0.8" stroke-linecap="round"/><path d="M265.96845,195.71541c0,0 -1.97469,-2.23333 -2.97303,-3.69316c-0.84054,-1.22911 -2.00689,-3.87379 -3.43384,-6.11287c-1.62263,-2.54611 -3.46559,-4.6303 -3.46559,-4.6303" fill="none" stroke="#000000" stroke-width="0.8" stroke-linecap="round"/><path d="M263.80491,197.10732c0,0 -4.11613,-1.76406 -7.62442,-6.58935c-2.23525,-3.07434 -2.48337,-8.15201 -2.48337,-8.15201" fill="none" stroke="#000000" stroke-width="0.8" stroke-linecap="round"/><path d="M258.61026,197.94579c0,0 -2.93071,-1.48743 -5.49981,-6.30679c-1.78404,-3.34669 -1.78744,-7.05954 -1.78744,-7.05954" fill="none" stroke="#000000" stroke-width="0.8" stroke-linecap="round"/><path d="M252.60509,192.62599c-0.32718,0.23086 -0.81825,0.12535 -1.0968,-0.23568c-0.27857,-0.36099 -0.23912,-0.84078 0.08808,-1.07165c0.32718,-0.23086 0.81825,-0.12536 1.0968,0.23566c0.27857,0.36099 0.23912,0.84082 -0.08807,1.07166z" fill="#ffd683" stroke="none" stroke-width="0" stroke-linecap="butt"/><path d="M251.38291,189.71945c-0.18876,0.13318 -0.45468,0.09482 -0.59397,-0.08567c-0.13928,-0.1805 -0.09916,-0.43478 0.08959,-0.56798c0.18876,-0.13318 0.45469,-0.09482 0.59397,0.08567c0.13928,0.1805 0.09917,0.43479 -0.08959,0.56798z" fill="#ffd683" stroke="none" stroke-width="0" stroke-linecap="butt"/></g></g><path d="M264.87808,199.85994c6.38966,7.46364 6.92342,9.1678 6.92342,9.1678c0.74751,0.97642 -0.31454,1.57687 -0.31454,1.57687c0,0 -1.91098,1.40507 -3.1341,2.30437c-0.80314,0.59053 -2.05796,1.51315 -2.05796,1.51315c0,0 -0.88827,0.45538 -1.28442,-0.08606c-2.38322,-3.25737 -4.84197,-6.24826 -5.87592,-7.99336c-0.34465,-0.5817 -0.01816,-1.73206 -0.01816,-1.73206l3.52324,-3.25664c0,0 1.36355,-1.41511 2.23843,-1.49407z" fill="#582700" stroke="#000000" stroke-width="3" stroke-linecap="round"/><path d="M275.10239,193.89135c12.83972,15.70907 14.04431,19.18012 14.04431,19.18012c1.51471,2.04403 -0.39465,3.11059 -0.39465,3.11059c0,0 -3.39581,2.56762 -5.56926,4.21103c-1.42719,1.07913 -3.65701,2.76514 -3.65701,2.76514c0,0 -1.60261,0.79851 -2.40825,-0.33263c-4.84681,-6.80518 -9.80207,-13.08756 -11.94542,-16.70302c-0.71444,-1.20515 -0.24541,-3.46225 -0.24541,-3.46225l6.17945,-6.06452c0,0 2.37262,-2.65619 3.99622,-2.70445z" fill="#582700" stroke="#000000" stroke-width="3" stroke-linecap="round"/></g><path d="M218.97611,149.56926l0.16631,-12.69628l44.73415,0.53579l-0.16631,12.69628z" fill="#000000" stroke="none" stroke-width="0" stroke-linecap="butt"/><g data-paper-data="{&quot;index&quot;:null}"><g data-paper-data="{&quot;origRot&quot;:0,&quot;index&quot;:null}" stroke="#000000" stroke-width="3" stroke-linecap="round"><path d="M252.68749,229.24637c0,0 -20.76133,14.64098 -22.46914,12.75342c-3.07929,-3.40338 -7.66747,-12.83081 -7.66747,-12.83081l-12.50353,-26.85799c0,0 -2.29314,-5.13312 -1.57131,-6.02293c2.16546,-2.66943 8.41121,-4.9466 14.12615,-8.41243c0.94993,-0.57607 4.65912,3.996 4.65912,3.996c0,0 5.50395,7.43981 9.02678,12.20165c5.3649,7.25183 13.7469,18.58189 13.7469,18.58189c0,0 4.48786,5.6632 2.65251,6.59124z" data-paper-data="{&quot;origPos&quot;:null}" fill="#582600"/><path d="M248.86595,223.04068l-21.9768,12.2987" fill="none"/><path d="M247.36041,220.12153l-22.09928,12.09854" data-paper-data="{&quot;origPos&quot;:null}" fill="none"/></g><path d="M224.67485,231.77505l-15.83625,-34.03375l0.7753,-1.20865l13.96821,-7.76254l23.31987,30.59712z" fill="#ffcb66" stroke="#000000" stroke-width="1" stroke-linecap="round"/><path d="M226.77864,235.21548l-1.1958,-1.96884l22.52348,-12.5091l1.1958,1.96884z" fill="#ffffff" stroke="none" stroke-width="0" stroke-linecap="butt"/></g><path d="M236.88025,185.41851c-0.54267,1.40598 -1.70664,2.23795 -2.59978,1.85828c-0.89314,-0.37967 -1.17726,-1.82723 -0.63458,-3.2332c0.54267,-1.40598 1.70664,-2.23795 2.59978,-1.85828c0.89314,0.37967 1.17726,1.82723 0.63458,3.2332z" fill="#ff8484" stroke="#000000" stroke-width="1" stroke-linecap="butt"/></g></g></svg>