<svg version="1.1" xmlns="http://www.w3.org/2000/svg" xmlns:xlink="http://www.w3.org/1999/xlink" width="306.30631" height="274.77477" viewBox="0,0,306.30631,274.77477"><g transform="translate(-86.84684,-42.61262)"><g data-paper-data="{&quot;isPaintingLayer&quot;:true}" fill-rule="nonzero" stroke-linecap="butt" stroke-linejoin="miter" stroke-miterlimit="10" stroke-dasharray="" stroke-dashoffset="0" style="mix-blend-mode: normal"><path d="M86.84685,317.3874v-274.77477h306.30631v274.77477z" data-paper-data="{&quot;index&quot;:null}" fill="none" stroke="none" stroke-width="0"/><text transform="translate(271.55608,110.72263) rotate(-180) scale(0.1602,-0.1602)" font-size="40" xml:space="preserve" data-paper-data="{&quot;index&quot;:null}" fill="#000000" fill-rule="nonzero" stroke="none" stroke-width="1" stroke-linecap="butt" stroke-linejoin="miter" stroke-miterlimit="10" stroke-dasharray="" stroke-dashoffset="0" font-family="Sans Serif" font-weight="normal" text-anchor="start" style="mix-blend-mode: normal"><tspan x="0" dy="0">AwezomeXD</tspan><tspan x="0" dy="46.15px"> </tspan><tspan x="0" dy="46.15px">MeIzAwezomeDede</tspan></text><g data-paper-data="{&quot;index&quot;:null}"><g><g><g><path d="M203.22063,123.04758c0,0 10.21907,-13.68811 36.85259,-13.68811c12.56916,0 36.29716,-0.98573 36.29716,-0.98573c0,0 5.00195,3.47388 6.97826,3.54446c2.46763,0.08813 5.22623,-3.14261 5.22623,-3.14261c0,0 0.22576,4.15853 -0.27741,7.48059c-1.89528,12.51308 -11.77183,11.5815 -11.77183,11.5815c0,0 3.32754,6.07207 3.06275,10.36383c-0.27836,4.51142 -4.16215,6.58345 -4.16215,6.58345c0,0 2.12673,3.73355 1.92731,7.3239c-0.35632,6.41501 -3.43655,14.79545 -3.43655,14.79545c0,0 -1.88312,23.11827 -5.27923,23.28651c-2.9468,0.14598 -10.15085,-4.96098 -10.15085,-4.96098c0,0 -0.6304,10.19055 -2.46307,10.2147c-2.28601,0.03011 -4.54245,-4.13263 -7.08864,-4.79911c-2.34355,-0.61343 -4.12975,-7.21028 -4.12975,-7.21028c0,0 -2.63919,6.57649 -5.54993,7.145c-2.82462,0.5517 -4.95733,5.5198 -6.12975,5.52871c-4.27384,0.03248 -7.81933,-13.35225 -7.81933,-13.35225c0,0 -12.92577,7.22487 -15.47487,4.44335c-3.00856,-3.28288 -2.45186,-19.19217 -2.45186,-19.19217c0,0 -5.03418,-5.13296 -5.18162,-7.9899c-0.33112,-6.41617 3.3299,-11.10981 3.3299,-11.10981c0,0 -3.23156,0.0176 -4.92241,1.01848c-1.79723,1.06385 -5.56131,5.18723 -5.56131,5.18723c0,0 -0.6793,-5.69775 0.03391,-8.32756c0.75003,-2.76555 4.36136,-7.87902 4.36136,-7.87902c0,0 -4.33869,-4.03222 -5.6907,-9.41397c-0.72461,-2.88435 0.75305,-8.77765 0.75305,-8.77765c0,0 3.82172,4.32773 5.52185,5.06763c1.31882,0.57396 3.19691,-2.73559 3.19691,-2.73559z" fill="#6d0f0a" stroke="#000000" stroke-width="2"/><path d="M201.56252,98.22467c1.55081,-5.32738 6.73365,-11.71858 9.93801,-16.16737c4.54108,-6.30462 13.29966,-8.70955 20.51779,-8.70955c9.48875,0 15.33783,9.89764 15.33783,9.89764c0,0 10.0513,-3.41412 17.19397,-1.25113c6.9004,2.08963 11.25733,10.35324 12.48101,12.41211c1.86421,3.13659 2.69803,17.07961 2.69803,17.07961c0,0 -28.66933,19.97674 -43.70856,19.97674c-16.06645,0 -25.53698,-17.6962 -31.4608,-15.23685c-2.08438,0.86536 -3.23442,-0.12911 -3.23442,-0.12911c0,0 -2.62741,-8.03172 0.23714,-17.87209z" fill="#6d0f0a" stroke="#000000" stroke-width="2"/><path d="M209.01657,86.63298c0,0 2.35725,-2.97195 3.57118,-4.25332c1.15814,-1.22248 3.55292,-3.26657 3.55292,-3.26657c0,0 7.793,6.7169 12.05666,8.44212c4.46797,1.80789 12.26133,0.37479 12.26133,0.37479c0,0 -0.1317,2.31679 0.04719,3.27673c0.18914,1.01494 0.58369,2.65714 0.58369,2.65714c0,0 1.36528,-1.75092 1.75284,-2.5103c0.4186,-0.82018 1.14777,-2.55908 1.14777,-2.55908c0,0 1.42388,3.88267 2.10243,5.34414c0.55566,1.19681 1.67436,2.79036 1.67436,2.79036c0,0 0.10051,-2.1314 0.07035,-3.24339c-0.03193,-1.17732 -0.25693,-3.63575 -0.25693,-3.63575c0,0 9.16413,5.06102 14.94296,7.11986c0.11602,0.04133 4.72382,0.27943 5.06248,0.34472c7.28161,1.40369 5.46452,-8.07582 5.46452,-8.07582c0,0 2.56493,3.63845 3.46106,6.75702c0.90888,3.16298 1.9545,12.08951 1.9545,12.08951c0,0 -5.10141,-3.47971 -10.08637,-4.30217c-0.88456,-0.14594 -10.53631,-1.1954 -10.53631,-1.1954c0,0 -1.28909,-2.23914 -2.00183,-3.18583c-0.69841,-0.92766 -2.23247,-2.43837 -2.23247,-2.43837c0,0 -1.31322,1.788 -1.97371,2.9011c-0.79351,1.33726 -2.46191,4.57404 -2.46191,4.57404c0,0 -0.77119,-1.92147 -1.35974,-2.96104c-0.65475,-1.15651 -2.39135,-3.66468 -2.39135,-3.66468c0,0 -1.34309,0.37922 -2.09272,0.8195c-1.04069,0.61123 -3.56986,2.50628 -3.56986,2.50628c0,0 -0.59722,-2.91442 -1.00634,-4.21914c-0.35396,-1.12882 -1.30692,-3.15819 -1.30692,-3.15819c0,0 -1.70417,1.04046 -2.61241,1.74477c-1.13338,0.8789 -3.66322,3.12179 -3.66322,3.12179c0,0 -6.74197,-8.36611 -10.54906,-10.46173c-3.56119,-1.96027 -11.60506,-1.73305 -11.60506,-1.73305z" fill="#c42d06" stroke="none" stroke-width="0"/></g><path d="M221.74205,133.60133c0,0 -20.38354,-10.61725 -20.6275,-12.06061c-0.33115,-1.95926 1.84644,-3.01312 1.66263,-4.0356c-0.29285,-1.62898 -0.7018,-3.23713 -0.7018,-3.23713c0,0 64.44582,-3.61394 74.50841,-3.76223c2.56353,-0.03778 4.99159,2.59556 4.99159,2.59556l-13.16666,18.16666z" fill="#6d0f0a" stroke="none" stroke-width="NaN"/></g><path d="M248.48234,84.61697c0,0 -4.11007,-2.08631 -1.96814,-7.50006c0.11286,-0.28526 0.87357,-1.40418 1.12011,-1.64409c1.88917,-1.83834 6.85507,-1.67862 6.85507,-1.67862c0,0 -3.45762,4.25618 -4.59378,5.71346c-1.01269,1.29891 -1.41327,5.10931 -1.41327,5.10931z" fill="#6d0f0a" stroke="#000000" stroke-width="1.5"/><path d="M244.12319,73.27319c0,0 1.25394,1.15746 1.53044,2.92684c0.32198,0.89595 0.31603,3.78118 0.31603,3.78118l-1.77105,-1.26351z" fill="#000000" stroke="none" stroke-width="0"/></g><path d="M247.77267,83.0686l3.75983,0.34148c0,0 -3.27187,4.08016 -3.80308,4.19636c-0.74369,0.16268 -2.80364,-5.38646 -2.80364,-5.38646z" fill="#6d0f0a" stroke="none" stroke-width="0"/></g><g data-paper-data="{&quot;index&quot;:null}"><text transform="translate(294.68338,229.00289) rotate(-180) scale(0.27921,-0.27921)" font-size="40" xml:space="preserve" fill="#000000" fill-rule="nonzero" stroke="none" stroke-width="1" stroke-linecap="butt" stroke-linejoin="miter" stroke-miterlimit="10" stroke-dasharray="" stroke-dashoffset="0" font-family="Sans Serif" font-weight="normal" text-anchor="start" style="mix-blend-mode: normal"><tspan x="0" dy="0">AwezomeXD</tspan><tspan x="0" dy="46.15px"> </tspan><tspan x="0" dy="46.15px">MeIzAwezomeDede</tspan></text><g data-paper-data="{&quot;index&quot;:null}"><g><path d="M304.61431,280.72711c-0.97394,-0.3343 -2.81981,-1.05375 -2.81981,-1.05375l2.00112,-62.99775c0,0 3.12264,-3.42551 4.77674,-5.10754c1.78782,-1.81801 6.83093,-5.9246 6.83093,-5.9246c0,0 5.94054,0.17965 11.08569,1.75457c7.39586,2.26385 29.04162,10.52827 29.04162,10.52827c0,0 -0.29139,23.00613 -1.11993,33.98866c-0.74728,9.90532 -3.63272,29.00908 -3.63272,29.00908c0,0 -14.3168,1.48011 -21.61682,1.59314c-7.15813,0.11083 -21.76596,-0.92143 -21.76596,-0.92143c0,0 -1.89659,-0.56514 -2.78087,-0.86866z" fill="#434253" stroke="#000000" stroke-width="2.5"/><path d="M306.04173,281.58894c0,0 3.19421,-16.34268 5.26935,-30.13714c1.48339,-9.86081 2.04443,-18.33187 2.06476,-19.00203c0.15509,-5.11269 -0.3723,-9.50368 -0.00091,-14.70459c0.49814,-6.97594 1.18056,-11.43244 1.18056,-11.43244l2.10035,-1.22928c0,0 -1.17975,18.14658 -2.93073,35.27697c-0.73182,7.15966 -2.77258,22.22022 -3.75528,31.64788c-0.10799,1.03599 0.50491,2.39047 0.4064,3.33489c-0.55015,5.27458 -0.93311,6.24975 -0.93311,6.24975l-3.40139,-0.00403z" fill="#000000" stroke="none" stroke-width="0"/></g><g stroke="#000000" stroke-width="1.5"><path d="M345.29833,263.35312c0.94113,9.66742 -4.93088,16.17699 -12.88074,16.95092c-7.94986,0.77393 -14.77082,-5.25083 -14.91119,-14.96294c-0.15638,-10.82018 5.8426,-16.14324 12.54261,-16.73861c6.71115,-0.59636 14.44659,6.50489 15.24932,14.75063z" fill="#2c262f"/><path d="M323.67438,268.45715c-0.26544,-2.72671 1.31874,-5.06632 3.56101,-5.2846c2.24227,-0.21828 3.76096,1.25807 4.0264,3.98478c0.26545,2.72671 -1.3891,5.14677 -3.63137,5.36505c-2.24227,0.21828 -3.69059,-1.33852 -3.95603,-4.06523z" data-paper-data="{&quot;index&quot;:null}" fill="#1b171c"/></g><g stroke="#000000" stroke-width="1.5"><path d="M334.90073,214.22598c6.72176,-0.46163 14.18059,7.06601 14.65957,15.33688c0.56156,9.69688 -5.56103,15.97134 -13.53511,16.43313c-7.97408,0.46179 -14.55372,-5.82563 -14.31338,-15.53578c0.26776,-10.81801 6.4647,-15.77245 13.18893,-16.23424z" fill="#2c262f"/><path d="M327.75296,233.81557c-0.15839,-2.73501 1.51626,-5.01074 3.76536,-5.14099c2.2491,-0.13025 3.70876,1.40448 3.86715,4.1395c0.15839,2.73502 -1.58973,5.08838 -3.83883,5.21863c-2.2491,0.13025 -3.6353,-1.48212 -3.79369,-4.21714z" data-paper-data="{&quot;index&quot;:null}" fill="#1b171c"/></g></g><g><g><path d="M178.20551,279.8001c0,0 -1.84588,0.71945 -2.81982,1.05375c-0.88428,0.30352 -2.78086,0.86866 -2.78086,0.86866c0,0 -14.60784,1.03226 -21.76596,0.92143c-7.30001,-0.11302 -21.61681,-1.59314 -21.61681,-1.59314c0,0 -2.88544,-19.10377 -3.63272,-29.00909c-0.82854,-10.98252 -1.11993,-33.98866 -1.11993,-33.98866c0,0 21.64575,-8.26442 29.04162,-10.52827c5.14515,-1.57491 11.08569,-1.75457 11.08569,-1.75457c0,0 5.04312,4.1066 6.83094,5.9246c1.6541,1.68203 4.77674,5.10754 4.77674,5.10754l2.00112,62.99775z" fill="#434253" stroke="#000000" stroke-width="2.5"/><path d="M173.95828,281.71567l-3.40139,0.00403c0,0 -0.38295,-0.97517 -0.93311,-6.24976c-0.0985,-0.94441 0.51439,-2.2989 0.40641,-3.33488c-0.98271,-9.42766 -3.02346,-24.48823 -3.75529,-31.64789c-1.75097,-17.13039 -2.93073,-35.27697 -2.93073,-35.27697l2.10035,1.22928c0,0 0.68243,4.4565 1.18057,11.43244c0.37139,5.20091 -0.156,9.59191 -0.00092,14.70459c0.02033,0.67016 0.58138,9.14123 2.06477,19.00203c2.07514,13.79446 5.26935,30.13713 5.26935,30.13713z" fill="#000000" stroke="none" stroke-width="0"/></g><g stroke="#000000" stroke-width="1.5"><path d="M134.70169,263.47986c0.80273,-8.24574 8.53818,-15.34698 15.24933,-14.75062c6.70001,0.59537 12.69899,5.91843 12.54261,16.73861c-0.14037,9.71211 -6.96134,15.73687 -14.9112,14.96294c-7.94986,-0.77392 -13.82187,-7.2835 -12.88074,-16.95092z" fill="#2c262f"/><path d="M152.76463,263.29931c2.24227,0.21828 3.82645,2.55788 3.56101,5.28459c-0.26545,2.72671 -1.71376,4.28351 -3.95603,4.06523c-2.24227,-0.21829 -3.89681,-2.63834 -3.63137,-5.36505c0.26544,-2.72671 1.78413,-4.20306 4.0264,-3.98478z" data-paper-data="{&quot;index&quot;:null}" fill="#1b171c"/></g><g stroke="#000000" stroke-width="1.5"><path d="M130.43973,229.6896c0.47898,-8.27087 7.9378,-15.79851 14.65956,-15.33689c6.72423,0.46179 12.92117,5.41624 13.18893,16.23424c0.24034,9.71016 -6.33929,15.99758 -14.31338,15.53579c-7.97409,-0.46179 -14.09668,-6.73625 -13.53512,-16.43313z" fill="#2c262f"/><path d="M152.24708,233.94232c-0.15839,2.73501 -1.54458,4.34738 -3.79368,4.21713c-2.2491,-0.13025 -3.99721,-2.48361 -3.83882,-5.21863c0.15839,-2.73501 1.61804,-4.26975 3.86714,-4.1395c2.2491,0.13025 3.92375,2.40598 3.76536,5.141z" data-paper-data="{&quot;index&quot;:null}" fill="#1b171c"/></g></g><g stroke="#000000"><g fill="#434253"><path d="M302.93638,282.15582c0,0 -39.39406,0.31655 -59.64769,0.31655c-21.72904,0 -66.6118,-0.31655 -66.6118,-0.31655c0,0 -2.38216,-40.33861 -2.16309,-60.75635c0.20152,-18.78125 2.16309,-54.08575 2.16309,-54.08575c0,0 42.82931,-1.2662 64.39595,-1.2662c21.14461,0 59.33114,1.58275 59.33114,1.58275c0,0 4.66352,44.84767 4.63123,67.07726c-0.03994,25.54257 -2.09882,47.44828 -2.09882,47.44828z" stroke-width="2.5"/><path d="M182.62638,273.74782c1.29409,0 2.34316,0.94416 2.34316,2.10884c0,1.16468 -1.04906,2.10884 -2.34316,2.10884c-1.29409,0 -2.34316,-0.94416 -2.34316,-2.10884c0,-1.16468 1.04906,-2.10884 2.34316,-2.10884z" stroke-width="2"/><path d="M296.08664,273.11069c1.29409,0 2.34316,0.94416 2.34316,2.10884c0,1.16468 -1.04907,2.10884 -2.34316,2.10884c-1.29409,0 -2.34316,-0.94416 -2.34316,-2.10884c0,-1.16468 1.04907,-2.10884 2.34316,-2.10884z" stroke-width="2"/><path d="M291.83152,175.44761c-0.48529,-1.12251 0.08425,-2.44878 1.27209,-2.9623c1.18785,-0.51352 2.54417,-0.01985 3.02946,1.10266c0.48528,1.12251 -0.08426,2.44879 -1.2721,2.96231c-1.18785,0.51352 -2.54417,0.01984 -3.02946,-1.10267z" stroke-width="2"/><path d="M180.91757,172.05907c1.18784,-0.51352 2.54418,-0.01985 3.02946,1.10266c0.48528,1.12251 -0.08426,2.44879 -1.2721,2.96231c-1.18784,0.51352 -2.54417,0.01984 -3.02945,-1.10267c-0.48528,-1.12251 0.08425,-2.44878 1.27209,-2.9623z" stroke-width="2"/></g><g><path d="M187.36312,208.89733c-2.36044,-6.40232 -2.14847,-24.22034 1.17777,-27.70117c8.80798,-9.21732 26.01104,-9.48636 48.15555,-9.48636c20.7312,0 40.80646,1.21551 50.19223,9.11804c4.42593,3.72649 4.09175,24.72433 0.61728,30.38921c-5.21713,8.50616 -20.51325,11.67052 -51.0204,11.67052c-30.50715,0 -45.72795,-4.44989 -49.12243,-13.65691z" fill="#434253" stroke-width="2"/><path d="M191.46432,207.31699c-2.1792,-5.67588 -1.98352,-21.47217 1.08734,-24.55804c8.13172,-8.17147 24.01396,-7.77733 44.45825,-7.77733c19.1395,0 37.67343,0.44494 46.33857,7.45081c4.08612,3.30367 3.77759,21.91897 0.56988,26.94108c-4.81657,7.54101 -18.93828,9.50278 -47.10314,9.50278c-28.16487,0 -42.21704,-3.39695 -45.3509,-11.55929z" fill="#2c262f" stroke-width="1.5"/><path d="M216.73026,204.30872c-0.84859,-2.4182 -0.77238,-9.14817 0.42343,-10.4629c3.16654,-3.48144 9.35117,-4.21571 17.31229,-4.21571c7.45303,0 14.67023,1.09175 18.04449,4.07659c1.59116,1.40752 1.47102,9.33853 0.22192,11.47819c-1.8756,3.21283 -7.37467,4.61891 -18.34223,4.61891c-10.96755,0 -16.43956,-1.85087 -17.65989,-5.32841z" fill="#1b171c" stroke-width="1.5"/></g><g><path d="M187.36312,264.28152c-2.36044,-6.40232 -2.14847,-24.22034 1.17777,-27.70116c8.80798,-9.21732 26.01104,-9.48637 48.15555,-9.48637c20.7312,0 40.80646,1.21551 50.19223,9.11804c4.42593,3.7265 4.09175,24.72433 0.61728,30.38921c-5.21713,8.50616 -20.51325,11.67052 -51.0204,11.67052c-30.50715,0 -45.72795,-4.4499 -49.12243,-13.65692z" fill="#434253" stroke-width="2"/><path d="M191.46432,262.70116c-2.1792,-5.67588 -1.98352,-21.47217 1.08734,-24.55804c8.13172,-8.17147 24.01396,-7.77734 44.45825,-7.77734c19.1395,0 37.67343,0.44494 46.33857,7.45081c4.08612,3.30367 3.77759,21.91898 0.56988,26.94109c-4.81657,7.54101 -18.93828,9.50278 -47.10314,9.50278c-28.16487,0 -42.21704,-3.39695 -45.3509,-11.55929z" fill="#2c262f" stroke-width="1.5"/><path d="M216.73026,259.6929c-0.84859,-2.41819 -0.77238,-9.14816 0.42343,-10.46289c3.16654,-3.48144 9.35117,-4.21571 17.31229,-4.21571c7.45303,0 14.67023,1.09175 18.04449,4.07659c1.59116,1.40752 1.47102,9.33852 0.22192,11.47818c-1.8756,3.21283 -7.37467,4.61891 -18.34223,4.61891c-10.96755,0 -16.43956,-1.85087 -17.65989,-5.32842z" fill="#1b171c" stroke-width="1.5"/></g></g></g><g data-paper-data="{&quot;index&quot;:null}"><path d="M255.68226,159.4396c0,-4.62307 -7.6789,-15.53073 -3.44835,-15.53073c1.1058,0 4.00437,2.33459 6.78121,4.85516c1.31177,1.19071 3.26731,2.34172 4.14189,3.77227c0.80378,1.31474 0.70311,2.94412 0.79968,3.34049c0.1279,0.52495 0.9582,2.14097 0.9582,2.14097c0,0 1.66657,1.97795 4.75703,3.90074c2.07801,1.29287 3.83342,0.66077 5.97399,2.01002c1.36594,0.86098 4.64944,2.7213 3.50219,4.97488c-0.16413,0.32243 -4.63191,0.24975 -4.63191,0.24975c0,0 -1.25418,1.6276 -2.37286,2.04842c-2.91542,1.09671 -4.80128,-1.08587 -5.53343,-1.03821c-2.35456,0.15328 -6.08281,-0.10553 -6.08281,-0.10553c0,0 -0.38807,-0.10557 -1.52854,-0.80571c-4.74075,-2.91039 -3.31628,-7.69547 -3.31628,-9.81253z" fill="#ffd5d5" stroke="#000000" stroke-width="1.5"/><path d="M256.91737,166.12689c0,0 6.59309,1.48578 8.99991,0.65935c0.09502,-0.03263 0.98831,-0.82199 2.22028,-1.24686c1.03345,-0.35642 2.39884,-0.36275 2.82018,-0.36185c1.06661,0.00229 1.45587,1.90079 2.3688,1.90079c3.68048,0 4.53214,-0.51035 4.53214,-0.51035c0,0 0.50134,0.54917 0.67236,1.15381c0.122,0.43135 0.02419,0.94264 -0.30837,1.06756c-1.26796,0.47629 -4.33435,0.20759 -4.33435,0.20759c0,0 -1.57635,1.7083 -2.30614,1.73805c-4.86729,0.19843 -3.95285,-1.18226 -4.81014,-1.18226c-3.30731,0 -5.24678,-0.08543 -6.37721,-0.35945c-0.15889,-0.03852 -1.19083,-0.5453 -1.88836,-1.13084c-1.00786,-0.84606 -1.58911,-1.93553 -1.58911,-1.93553z" fill="#fb95a9" stroke="none" stroke-width="0"/><path d="M270.13277,164.66675c0.65495,-0.08172 2.59529,-0.06303 3.39187,0.94108c1.04646,1.3191 0.88323,3.72747 0.88323,3.72747l-1.891,1.52047c0,0 0.73658,-4.96196 -1.61209,-4.96196c-1.88993,0 -4.26437,0.21059 -4.26437,0.21059c0,0 1.41313,-1.17823 3.49236,-1.43765z" fill="#000000" stroke="none" stroke-width="0"/><path d="M265.83249,158.87901l-0.12635,3.79055l-2.33751,-6.19124z" fill="#000000" stroke="none" stroke-width="0"/></g><g data-paper-data="{&quot;index&quot;:null}"><path d="M229.93005,131.62585c2.41131,-2.95149 10.53162,-0.25987 12.59919,3.86227c0.26008,0.51854 1.70637,-0.66733 5.40284,0.98163c0.86997,0.38809 5.3323,2.85511 7.98427,6.04894c1.26983,1.52929 2.1246,3.99593 1.97118,5.03194c-0.22905,2.80784 -2.67033,5.18657 -4.85989,7.14774c-2.87249,2.57284 1.75248,7.33006 -2.40533,7.33006c-3.03121,0 -16.54137,0.60747 -18.69314,-0.7284c-1.28409,-0.79719 -0.53199,-7.61244 -0.88049,-9.01861c-0.48674,-1.96396 -4.99822,-4.40189 -4.99822,-6.61256c0,-2.58633 2.29137,-12.099 3.87959,-14.04301z" fill="#ee1536" stroke="#000000" stroke-width="2"/><path d="M246.04204,151.81496c0,-3.14019 3.56399,-6.94934 7.26523,-7.10728c3.22449,-0.13759 3.97211,2.15654 3.0535,5.15937c-1.10558,3.61402 -4.40634,5.42259 -7.63376,5.42259c-0.06272,0 2.08362,-1.58996 2.84464,-0.28992c1.01358,1.73146 0.66979,6.51156 0.03616,6.86773c-2.98614,1.67855 -13.402,-0.74155 -16.31172,-0.67209c-0.60085,0.01435 -2.90823,0.59035 -3.45604,-1.26733c-0.44915,-1.5231 0.38106,-5.65028 0.34354,-5.65555c-0.60286,-0.08461 -1.36799,-4.06688 -1.36799,-4.06688c0,0 -2.86476,-2.27685 -2.9505,-2.85725c-0.15338,-1.03828 2.10836,-2.8435 2.10836,-2.8435c0,0 1.25189,1.00644 1.97555,1.57762c0.66583,0.52553 1.57561,2.98741 1.57561,2.98741c0,0 4.12841,-5.5717 8.29185,-4.21031c5.58397,1.82588 4.22558,7.21129 4.22558,6.95539z" fill="#9a1652" stroke="none" stroke-width="0"/><path d="M232.55238,160.80494c0.86132,-1.55025 8.52088,-5.58592 9.70316,-7.17085c2.60911,-3.4977 4.57621,-6.08348 4.57621,-6.08348c0,0 0.91108,5.32297 -0.66029,9.58239c-1.16307,3.15265 6.61433,5.47453 5.8723,5.47453c-1.74455,0 -20.27813,-0.38656 -19.49138,-1.80259z" fill="#000000" stroke="none" stroke-width="0"/></g><g data-paper-data="{&quot;index&quot;:null}"><path d="M221.71423,142.95289c0.89069,-4.00178 0.58801,-10.58196 5.78736,-10.26608c3.61328,0.21953 6.13218,5.53997 5.92273,9.63432c-0.22563,4.36977 -3.22059,5.46494 -5.49448,10.17868c-0.43493,0.56697 -0.26069,2.77319 -0.27481,5.7492c-0.00598,1.25981 -1.32978,3.183 -1.21876,5.69599c0.09503,2.15137 1.64834,3.36172 2.75889,4.56955c0.7432,0.80829 0.23517,1.75371 0.01203,1.89649c-0.39714,0.2541 -3.723,-0.53117 -4.2632,-0.42698c-0.41777,0.08057 -1.41467,-0.40466 -3.6676,-0.27099c-0.86522,0.05133 -1.74026,0.76311 -2.77062,0.82042c-0.75263,0.04187 -1.37176,-0.15857 -2.05041,-0.31313c-0.23329,-0.05314 -1.08031,-0.5319 -1.3218,-0.52625c-0.36531,0.00856 -0.86703,0.48594 -1.2941,0.63526c-0.81551,0.28513 -1.6879,0.69038 -2.40433,0.69435c-3.35115,0.0186 -3.43218,-1.88761 -3.43218,-1.88761c0,0 -3.19834,0.06304 -4.23611,-0.42236c-0.78891,-0.36901 -1.63814,-1.00352 -1.45122,-2.2378c0.26153,-1.72688 1.15935,-2.33605 3.24072,-3.20355c3.13593,-1.30704 6.37212,-0.58009 9.9473,-3.92267c3.36598,-3.14698 5.8436,-14.74796 6.21059,-16.39682z" fill="#ffd5d5" stroke="#000000" stroke-width="1.5"/><path d="M207.79039,168.30773c0,0 -3.22774,0.00278 -3.90159,-0.28946c-0.75236,-0.32628 -0.76402,-1.57737 -0.76402,-1.57737c0,0 2.53799,-0.11037 3.55148,-0.23542c0.8325,-0.10272 2.45499,-0.55138 2.45499,-0.55138l-0.55088,2.84128c0,0 1.72873,0.70646 3.34003,0.82889c0.86868,0.066 0.85851,-1.87392 3.64063,-1.87392c1.03078,0 3.33941,1.26431 4.22936,0.77044c2.21602,-1.22976 5.42799,-5.56313 5.42799,-5.56313l1.95167,-3.36123c0,0 -1.22713,4.47698 -1.22713,4.85975c0,0.48247 3.86198,5.6885 3.31633,5.63879c-0.77073,-0.07022 -6.85345,-0.94261 -7.75492,-0.9628c-0.89298,-0.02 -2.35096,0.94386 -3.25413,0.91287c-0.48925,-0.01678 -0.9746,-0.12523 -1.45022,-0.228c-0.45719,-0.09879 -0.99564,-0.55333 -1.42965,-0.55513c-0.58542,-0.00243 -0.97987,0.42362 -1.40129,0.52162c-1.28656,0.29919 -1.98333,0.90551 -3.15523,0.83681c-1.53941,-0.09024 -3.02343,-2.0126 -3.02343,-2.0126z" fill="#fb95a9" stroke="none" stroke-width="0"/><path d="M207.52223,168.40278c0,0 1.3169,-3.1369 2.5389,-3.45707c0.64631,-0.16933 1.92664,-0.25208 2.92677,0.09011c1.01894,0.34863 2.00454,1.37664 2.00454,1.37664c0,0 -2.60227,-0.57435 -3.98008,-0.18953c-1.80959,0.5054 -1.8321,3.47467 -1.8321,3.47467z" fill="#000000" stroke="none" stroke-width="0"/><path d="M222.09403,167.97302l-0.99277,1.89527l-1.48915,-0.1805z" fill="#000000" stroke="none" stroke-width="0"/></g><g data-paper-data="{&quot;index&quot;:null}"><g><path d="M267.65159,120.71556c2.9249,0.49051 4.8048,3.81715 4.19887,7.43026c-0.60593,3.61311 -3.46822,6.14447 -6.39312,5.65396c-2.9249,-0.49051 -4.8048,-3.81714 -4.19887,-7.43025c0.60593,-3.61311 3.46822,-6.14448 6.39312,-5.65397z" fill="#fb95a9" stroke="#000000" stroke-width="2"/><path d="M244.8641,139.78754c-24.04142,-7.77927 -26.21799,-11.03449 -26.21799,-21.2692c0,-10.23472 14.63347,-8.78562 29.11326,-8.78562c14.47979,0 22.05919,-0.60675 22.05919,9.62797c0,1.66958 -3.20558,11.38494 -3.20558,11.38494c0,0 7.09634,5.30757 5.64148,9.10976c-1.58479,4.1014 -18.29614,2.87485 -27.39037,-0.06784z" fill="#ffd5d5" stroke="#000000" stroke-width="2"/><path d="M255.51975,107.81316c11.74666,0 13.45646,6.5685 13.45646,11.33694c0,2.08275 -2.94653,10.11754 -2.94653,10.11754c0,0 -3.01747,-5.86923 -4.90999,-7.47688c-2.15557,-1.8311 -7.12668,-2.92682 -7.12668,-2.92682l-6.70719,5.97199l-5.46994,-8.29417c0,0 -3.73143,5.01184 -6.35097,6.86716c-2.79306,1.97822 -9.92023,4.65711 -9.92023,4.65711l-3.92482,-0.91908c0,0 -2.25164,-5.38219 -2.22021,-7.99285c0.03019,-2.50765 2.40524,-7.37452 2.40524,-7.37452c0,0 27.51521,-3.96642 33.71486,-3.96642z" fill="#fb95a9" stroke="none" stroke-width="0"/><path d="M213.80262,115.57015c1.58509,-1.18179 7.5811,3.6457 7.5811,6.84405c0,3.19835 -0.97104,6.21229 -2.94821,6.21229c-1.97716,0 -6.52817,-3.85629 -6.52817,-7.6864c0,-3.19835 -0.08189,-3.89583 1.89528,-5.36994z" fill="#ffd5d5" stroke="#000000" stroke-width="2.5"/><path d="M214.27708,124.59396c-0.6307,-1.07092 -0.93925,-2.40558 -1.0878,-3.55097c-0.18217,-1.40463 0.86397,-2.0217 2.10021,-1.28251c2.06769,1.23634 4.8307,3.13355 4.8307,4.44369c0,2.09347 0.10701,3.57997 -1.57939,3.57997c-0.70563,0 -3.25348,-1.47478 -4.26372,-3.19018z" fill="#fb95a9" stroke="none" stroke-width="0"/><path d="M220.54137,125.3624l-1.05293,2.63233c0,0 -4.42231,-8.31025 -4.42231,-8.94992c0,-0.63967 5.47524,6.31759 5.47524,6.31759z" fill="#000000" stroke="none" stroke-width="0"/><path d="M221.12512,125.14153c2.12123,-0.20155 4.47218,-0.6026 5.08757,2.5504c0.10832,0.55502 0.72343,4.18782 -0.9749,5.78992c-0.26473,0.24973 -1.72541,1.15686 -3.14218,1.2023c-1.95657,0.06275 -3.1019,-0.49963 -3.1019,-0.49963c0,0 2.3673,-1.53297 2.16354,-1.70034c-0.64984,-0.53378 -3.46142,-2.28504 -3.65442,-3.8433c-0.2297,-1.85466 1.50105,-3.2978 3.62229,-3.49935z" fill="#6d0f0a" stroke="#000000" stroke-width="2"/><path d="M195.90275,117.14955c0,0 6.69513,0.15822 9.1094,-1.77474c2.43356,-1.9484 5.43458,-11.13321 5.43458,-11.13321c0,0 23.02779,2.27334 32.83793,2.27334c9.08405,0 17.05381,0.02418 22.89134,0.04936c6.3448,0.02738 11.66799,3.18157 12.21912,8.12765c0.13639,1.22401 0.31914,2.87242 0.28563,4.2487c-0.15315,6.29061 -2.8435,11.79458 -2.8435,11.79458c0,0 -4.67645,-7.9239 -6.98266,-11.38922c-2.85228,-4.28583 -7.82207,-8.29821 -7.82207,-8.29821c0,0 -1.13492,3.84249 -2.90711,6.25123c-1.83452,2.49345 -4.98792,2.17368 -4.98792,2.17368c0,0 -0.04185,-3.18675 -0.55596,-4.68323c-0.47325,-1.37755 -1.34329,-3.97147 -1.47877,-2.80657c-0.13628,1.17183 -0.85016,3.93678 -1.15986,5.29939c-0.80157,3.52671 -1.39356,3.97368 -1.39356,3.97368c0,0 -1.64766,-3.31682 -3.32333,-6.42692c-1.42476,-2.64441 -3.91812,-4.23471 -3.91812,-4.23471c0,0 -4.94826,4.25382 -7.72595,5.93033c-2.50922,1.51446 -7.83502,3.69205 -7.83502,3.69205c0,0 1.76048,8.21566 -2.22532,7.61655c-2.81702,-0.42342 -4.01295,-1.00553 -5.43886,-2.2971c-0.85484,-0.77432 -0.95258,-3.77318 -0.95258,-3.77318l2.05562,0.65418c0,0 -0.87933,-6.28422 -2.19509,-6.7171c-2.31671,-0.7622 -0.5219,-0.97415 -4.02654,-0.88705c-0.51011,0.01269 -2.05484,2.96888 -1.99124,5.80853c0.06829,3.04864 1.7654,5.99511 1.7654,5.99511c0,0 -4.58746,1.62925 -7.91273,-0.61892c-6.80931,-4.60367 -8.92279,-8.84822 -8.92279,-8.84822z" fill="#6d0f0a" stroke="#000000" stroke-width="1.5"/><path d="M254.3641,109.52394c-0.98064,0 -2.23715,-1.1439 -4.21274,-1.28536c-2.14036,-0.15326 -5.0089,0.69635 -6.14034,0.73493c-16.3411,0.55726 -34.52541,1.5952 -34.52541,1.5952c0,0 0.79964,-2.57608 0.88781,-3.84612c0.09421,-1.35689 -0.0236,-4.05191 -0.0236,-4.05191c0,0 21.98479,2.79131 35.14603,2.79131c8.44513,0 17.34486,-0.34409 22.89384,0.44485c5.87561,0.83538 8.60044,2.80647 8.60044,2.80647l0.84571,6.90239l-2.52865,-0.69339l-6.02817,-6.49696c0,0 -10.41665,1.09859 -14.91493,1.09859z" fill="#6d0f0a" stroke="none" stroke-width="0"/><path d="M241.51146,133.8715c-0.41727,-1.3202 -0.62528,-2.60882 -0.49057,-2.80983c0.20728,-0.3093 8.77649,2.18872 8.79198,2.57968c0.01479,0.37301 -1.32696,1.15781 -3.06601,1.87075c-0.97984,0.40169 -2.08579,1.06804 -3.14629,0.91952c-1.23006,-0.17226 -1.71923,-1.38988 -2.08911,-2.56012z" fill="#ef3d61" stroke="#000000" stroke-width="1.5"/><path d="M250.41796,125.53377c0,-1.94227 0.5932,-5.26513 3.56744,-6.35933c0.53401,-0.19647 1.74343,-0.08459 3.05918,0.37101c1.34861,0.46698 2.46808,1.24065 2.79541,1.43407c0.64668,0.38213 1.91083,0.08509 1.91083,0.08509c0,0 1.25853,-0.58241 1.97466,-1.05811c0.6012,-0.39936 2.03795,-2.11277 2.03795,-2.11277c0,0 -0.09263,1.49937 -1.32321,3.0671c-0.5071,0.64604 -1.86571,1.76929 -1.86571,1.76929c0,0 1.02698,0.14774 2.2043,-0.03817c0.88434,-0.13965 3.11083,-1.37059 3.11083,-1.37059c0,0 -1.03618,1.67558 -1.74453,2.38199c-0.48914,0.48779 -1.68026,1.06325 -1.68026,1.06325l-0.24836,1.01073c0,0 -1.43807,-1.88835 -2.21859,-2.32355c-0.6311,-0.35188 -2.23854,-0.21756 -2.23854,-0.21756c0,0 -0.3328,7.70962 -5.21391,7.58327c-3.80584,-0.09851 -4.12749,-2.08736 -4.12749,-5.28571z" fill="#000000" stroke="none" stroke-width="0"/><path d="M229.10935,114.73752c0,0 1.49752,1.76232 2.34895,2.37553c0.7836,0.56437 2.15188,0.64293 2.15188,0.64293c0,0 -0.30543,-0.76048 -0.60789,-1.55121c-0.31544,-0.8247 -0.75606,-3.15897 -0.75606,-3.15897c0,0 1.19806,1.80489 1.82816,2.4399c0.60258,0.60727 2.08414,1.50126 2.08414,1.50126c0,0 2.59324,-0.0483 4.29742,-0.0483c4.46107,0 7.35547,3.15879 7.35547,3.15879c0,0 -2.42347,-0.68126 -3.27079,-0.88835c-0.60189,-0.14711 -1.33357,-0.09664 -1.33357,-0.09664c0,0 0.1513,8.51095 -6.22076,8.58114c-5.21905,0.0575 -3.77155,-6.97483 -3.97171,-7.36078c-0.14501,-0.27963 -1.02956,-1.16948 -1.02956,-1.16948c0,0 -1.4211,-0.90533 -1.87858,-1.59267c-0.49768,-0.74774 -0.99708,-2.83314 -0.99708,-2.83314z" fill="#000000" stroke="none" stroke-width="0"/></g><path d="M277.7308,113.62977c0,0 -0.32554,-2.74504 -0.59033,-4.12575c-0.25321,-1.3203 -0.96523,-3.98536 -0.96523,-3.98536c0,0 1.06149,0.70772 1.62623,3.05118c0.3691,1.5316 1.26266,5.50438 1.26266,5.50438z" fill="#000000" stroke="none" stroke-width="0"/></g><g data-paper-data="{&quot;index&quot;:null}"><path d="M258.31879,189.84962c-1.02396,-0.71924 -2.61216,-2.05592 -4.01444,-5.83096c-0.84291,-2.26917 -1.17132,-4.44267 -0.37584,-5.00508c2.46138,-1.74019 13.46271,-2.04366 13.56639,-2.03632c6.29953,0.44584 14.47737,5.73804 14.28523,8.45276c-0.15236,2.15277 -6.00673,4.67397 -12.18175,4.02777c-9.13226,-0.95567 -12.26956,-5.30904 -12.44976,-5.54051c-0.71527,-0.91876 0.83514,1.61277 1.42883,2.61879c0.68043,1.15304 1.95772,2.01422 1.69718,3.07527c-0.29772,1.21248 -1.10686,0.8346 -1.95584,0.23827z" fill="#ee1536" stroke="#000000" stroke-width="1.5"/><path d="M224.56988,164.53009c0.25391,-3.58757 2.35701,-6.64406 5.63625,-8.75125c4.35584,-2.799 10.60094,-4.03303 15.53181,-3.68405c5.30667,0.37557 12.35114,0.6743 14.19104,3.10234c0.49941,0.65907 -0.12127,3.35728 0.048,5.98216c0.09728,1.50864 0.64694,5.18696 1.49128,8.17769c0.61446,2.17653 1.35933,4.67092 2.46802,5.06043c4.59705,1.61509 11.03529,4.62948 9.17776,7.05731c-1.41154,1.84493 -8.84494,1.55331 -14.62252,-0.6596c-5.20029,-1.99179 -8.75162,-5.80691 -10.65631,-6.42799c-3.23121,-1.05364 -10.37147,0.7037 -13.68901,0.00157c-2.16168,-0.4575 -4.01991,-1.31376 -5.39834,-2.18339c-3.41626,-2.15527 -4.33504,-5.45581 -4.17797,-7.67521z" fill="#ffd5d5" stroke="#000000" stroke-width="1.5"/><path d="M254.99731,162.97203c0,0 1.62368,-1.02454 2.33123,-1.67972c0.64149,-0.59401 1.73532,-2.08584 1.73532,-2.08584c0,0 0.30227,2.4594 0.43402,3.71524c0.11911,1.13542 0.32235,3.49502 0.32235,3.49502c0,0 -2.11924,-0.71917 -2.99023,-1.34128c-0.69804,-0.49856 -1.83268,-2.10341 -1.83268,-2.10341z" fill="#fb95a9" stroke="none" stroke-width="0"/><path d="M274.43207,181.35176c0.19426,-0.34108 1.68068,-0.01784 2.93131,0.69446c1.25063,0.7123 2.51274,2.54497 2.31847,2.88605c-0.19426,0.34107 -1.43393,-1.23137 -2.68456,-1.94367c-1.25062,-0.7123 -2.75947,-1.29576 -2.5652,-1.63684z" fill="#fc9ea5" stroke="none" stroke-width="0"/></g><g data-paper-data="{&quot;index&quot;:null}"><path d="M231.77855,188.95305c1.93188,-6.56918 6.88378,-8.81714 11.69561,-7.40207c4.81184,1.41506 7.2656,7.24737 5.33372,13.81657c-1.93189,6.5692 -10.05047,12.89482 -13.65214,11.63576c-3.56602,-1.24659 -5.4551,-11.13817 -3.52322,-17.70737z" fill="#ee1536" stroke="#000000" stroke-width="1.5"/><path d="M234.0063,185.95144c0,0 1.72483,-3.0378 3.95491,-3.89732c0.74802,-0.2883 4.09082,-0.15042 6.71403,1.23112c1.78295,0.939 3.09148,2.91525 3.57843,3.92524c0.83874,1.73962 0.46468,3.73414 0.46468,3.73414c0,0 -1.6527,1.83029 -5.26591,2.05112c-1.90003,0.11613 -4.79871,-1.69179 -6.70365,-3.62928c-1.71759,-1.74693 -2.74248,-3.41501 -2.74248,-3.41501z" fill="#9a1652" stroke="none" stroke-width="0"/><path d="M237.51241,175.78606c-0.11791,-7.10709 1.18014,-11.00582 9.58213,-11.50382c4.91253,-0.29118 7.04843,5.22078 6.95485,7.64488c-0.3131,8.1103 -8.27499,15.98717 -8.27499,15.98717c0,0 2.13601,7.84585 -6.04896,9.63702c-4.00247,0.87588 -4.6925,-6.10481 -4.18361,-7.86837c0.92389,-3.20166 2.94082,-5.2173 2.94082,-5.2173c0,0 -0.91787,-5.52156 -0.97026,-8.6796z" fill="#ffd5d5" stroke="#000000" stroke-width="1.5"/><path d="M244.74211,176.46308c-1.04201,-0.54394 -1.35858,-1.49042 -1.77939,-2.41927c-0.50779,-1.12081 -1.06534,-3.99619 -1.06534,-3.99619c0,0 2.0152,1.2525 3.1381,1.76295c1.10502,0.50232 3.69455,1.10847 3.69455,1.10847c0,0 -1.3182,2.54633 -1.9815,3.101c-0.61645,0.5155 -0.96439,0.987 -2.0064,0.44306z" fill="#fb95a9" stroke="none" stroke-width="0"/><path d="M238.07034,203.87953c-0.64195,0.02783 1.40589,-1.18856 2.1814,-1.74658c0.86024,-0.61898 2.58897,-2.6321 2.66047,-2.26827c0.14459,0.73571 -1.23452,2.30401 -2.02051,2.86957c-0.85307,0.61383 -1.73161,1.09804 -2.82135,1.14529z" fill="#fc9ea5" stroke="none" stroke-width="0"/></g></g></g></svg>