<svg version="1.1" xmlns="http://www.w3.org/2000/svg" xmlns:xlink="http://www.w3.org/1999/xlink" width="84.26678" height="185.30393" viewBox="0,0,84.26678,185.30393"><g transform="translate(-197.89171,-88.09805)"><g data-paper-data="{&quot;isPaintingLayer&quot;:true}" fill-rule="nonzero" stroke-linejoin="miter" stroke-miterlimit="10" stroke-dasharray="" stroke-dashoffset="0" style="mix-blend-mode: normal"><g stroke="#000000" stroke-linecap="round"><path d="M232.08512,171.82795c0,0 -28.22914,5.91484 -28.27891,-12.06568c-0.01835,-6.62461 16.21325,-5.02736 16.21325,-5.02736z" data-paper-data="{&quot;origPos&quot;:null}" fill="#66c8ff" stroke-width="2"/><path d="M224.04132,160.13933c0,0 -15.91916,-1.89997 -15.71052,-2.51368c0.66156,-1.94585 12.44273,-1.38252 12.44273,-1.38252z" data-paper-data="{&quot;origPos&quot;:null}" fill="#0a0a0a" stroke-width="1"/></g><g><g data-paper-data="{&quot;index&quot;:null}"><g stroke="#000000" stroke-width="3" stroke-linecap="round"><path d="M278.12685,198.8408c0,0 2.9198,10.33691 2.48808,14.92429c-15.6623,6.39279 -25.29943,3.78911 -25.29943,3.78911c-1.99294,0.39971 -2.25392,-6.87055 -2.25392,-6.87055c0,0 -0.9747,-14.17598 -1.59858,-23.24931c-0.40966,-5.95792 -1.0497,-15.26645 -1.0497,-15.26645c0,0 -0.14545,-5.92273 0.94803,-6.05365c6.57853,-0.78762 12.79038,-2.84668 16.16085,-2.06925c1.12349,0.25914 2.70627,5.75054 2.70627,5.75054l7.89838,29.04526z" data-paper-data="{&quot;origPos&quot;:null}" fill="#582700"/><path d="M278.82545,204.55614l-25.34773,4.00908l-0.51729,-3.36246l25.34772,-4.26772z" data-paper-data="{&quot;origPos&quot;:null}" fill="none"/></g><path d="M252.67669,204.78299l-1.73302,-36.8268l1.15535,-0.86652l15.59723,-2.59955l9.82048,36.10471z" fill="#66c8ff" stroke="#000000" stroke-width="1" stroke-linecap="round"/><path d="M253.37303,208.1309l-0.36699,-2.30203l25.18283,-4.01465l0.36699,2.30203z" fill="#ffffff" stroke="none" stroke-width="0" stroke-linecap="butt"/></g><g fill="#fffc96" stroke="#000000" stroke-width="2" stroke-linecap="round"><path d="M276.2674,194.21755c0,0 4.35886,0.46489 4.30244,3.4086c-0.09028,4.70982 -32.63647,-0.83964 -32.83846,-5.75378c-0.08252,-2.0078 3.08487,-2.18542 3.08487,-2.18542l0.29885,1.84764c0,0 5.8781,2.38292 13.44102,3.84639c7.45811,1.44319 12.53792,1.03867 12.53792,1.03867z"/><path d="M274.03819,185.89337c0,0 3.00112,-2.34415 3.95866,-0.2286c2.01,4.44084 -27.14776,23.94366 -28.05337,19.39864c-0.54845,-2.75257 2.74428,-3.87382 2.74428,-3.87382l0.25974,1.35222c0,0 4.89612,-2.09478 11.41299,-6.62048c6.51688,-4.52569 10.07493,-8.78464 10.07493,-8.78464z" data-paper-data="{&quot;index&quot;:null}"/></g></g><g data-paper-data="{&quot;origRot&quot;:0}" stroke="#000000" stroke-linecap="round"><path d="M242.50788,225.4554c0,0 -0.1413,-4.79862 1.40195,-4.79787c4.55389,0.00226 8.94659,-1.68985 13.20773,-0.08348c1.76945,0.66704 2.5185,4.88981 2.5185,4.88981l4.7157,32.77023c0,0 0.53104,3.37741 0.76776,5.3287c0.25309,2.08626 -0.75677,5.23806 -2.85505,5.35552c-7.7042,0.43133 -12.42407,2.11945 -17.29132,1.16172c-1.77322,-0.34892 -3.63218,-0.83563 -4.36762,-2.48644c-0.96071,-2.15639 -0.33678,-6.59447 -0.33678,-6.59447z" data-paper-data="{&quot;origPos&quot;:null}" fill="#ff0000" stroke-width="3"/><path d="M265.21979,266.91387c0,0 -5.86927,2.77384 -10.95469,2.9028c-3.90171,0.09894 -12.37852,-0.71033 -12.37852,-0.71033c0,0 -1.41846,-2.57239 -1.54804,-4.1698c-0.13652,-1.68278 0.86615,-4.2353 0.86615,-4.2353l23.28258,-1.38808z" data-paper-data="{&quot;origPos&quot;:null}" fill="#976e57" stroke-width="2"/><path d="M242.59736,225.77407c0,0 -0.1413,-4.79862 1.40195,-4.79786c4.55388,0.00226 8.94659,-1.68985 13.20774,-0.08346c1.76945,0.66704 2.51849,4.8898 2.51849,4.8898l4.7157,32.77023c0,0 0.53106,3.37742 0.76778,5.3287c0.25309,2.08626 -0.75678,5.23805 -2.85505,5.35552c-7.7042,0.43133 -12.42407,2.11946 -17.29132,1.16173c-1.77322,-0.34892 -3.63217,-0.83565 -4.36761,-2.48644c-0.96071,-2.15639 -0.33679,-6.59447 -0.33679,-6.59447z" data-paper-data="{&quot;origPos&quot;:null}" fill="#4b4b4b" stroke-width="3"/></g><path d="M238.96143,262.62419c0,0 0.57104,4.4452 -0.41525,6.59c-0.75505,1.64194 -2.61966,2.10649 -4.3969,2.43429c-4.8783,0.89975 -9.57773,-0.84446 -17.27626,-1.36744c-2.09673,-0.14244 -3.06901,-3.30603 -2.79111,-5.38912c0.25993,-1.94832 0.83113,-5.31917 0.83113,-5.31917l5.1054,-32.71179c0,0 0.79924,-4.21354 2.5765,-4.85947c4.27996,-1.55554 8.65222,0.18871 13.2058,0.24067c1.54314,0.01761 1.34474,4.8142 1.34474,4.8142c0,0 0.45918,8.99361 0.75308,14.75c0.4148,8.12444 1.06287,20.81786 1.06287,20.81786z" fill="#4b4b4b" stroke="#000000" stroke-width="3" stroke-linecap="round"/><g><path d="M221.44627,178.68904c0,0 1.94111,-14.4094 4.09862,-14.95725c6.4725,-1.64357 21.26952,-0.71298 31.15944,-0.71298c1.52888,0 2.84914,13.5334 2.84914,13.5334l1.7807,30.62821c0,0 0.24329,14.95796 -1.42456,14.95796c-14.84697,0 -32.2486,0.85262 -38.86622,0.01169c-2.20586,-0.2803 -1.37783,-16.03807 -1.37783,-16.03807z" data-paper-data="{&quot;origPos&quot;:null}" fill="#66c8ff" stroke="#000000" stroke-width="3.5" stroke-linecap="round"/><path d="M240.29113,186.88784c-1.29167,0 -1.29167,-2.4875 -1.29167,-2.4875c0,-5.15926 0,-11.97684 0,-17.1361c0,0 0,-2.4875 1.29167,-2.4875c1.29167,0 1.29167,2.4875 1.29167,2.4875c0,5.15926 0,10.31851 0,15.47777v1.65833c0,0 0,2.4875 -1.29167,2.4875z" fill="#ffffff" stroke="none" stroke-width="0.5" stroke-linecap="butt"/><path d="M252.29113,193.22118c-1.29167,0 -1.29167,-3.125 -1.29167,-3.125c0,-6.48148 0,-15.04629 0,-21.52777c0,0 0,-3.125 1.29167,-3.125c1.29167,0 1.29167,3.125 1.29167,3.125c0,6.48148 0,12.96296 0,19.44445v2.08333c0,0 0,3.125 -1.29167,3.125z" fill="#ffffff" stroke="none" stroke-width="0.5" stroke-linecap="butt"/></g><g fill="none" stroke="#b9b9b9" stroke-width="3"><path d="M254.52901,168.05332c-0.82753,-1.35809 0.08589,-2.57767 1.30884,-3.7957c1.22296,-1.21801 2.45037,-1.58994 3.11989,-0.61516c1.41955,2.06682 -0.06979,3.04234 -1.0274,3.99608c-1.22297,1.21803 -2.23265,2.33277 -3.40133,0.41479z" stroke-linecap="butt"/><path d="M252.92331,169.98201l2.58997,-2.51944" stroke-linecap="round"/><path d="M249.37681,170.61135c1.22296,-1.21801 2.45037,-1.58994 3.11989,-0.61516c1.41955,2.06682 -0.06979,3.04234 -1.0274,3.99608c-1.22295,1.21802 -2.23264,2.33277 -3.40132,0.41479c-0.82753,-1.35809 0.08588,-2.57767 1.30883,-3.79571z" stroke-linecap="butt"/><path d="M249.05222,173.8163l-2.58996,2.51946" stroke-linecap="round"/><path d="M240.83997,175.88348c0.40066,-1.63508 1.73871,-1.48046 3.25852,-1.02164c1.51981,0.45883 2.48819,1.43557 2.24522,2.68318c-0.51517,2.64527 -2.03348,1.77826 -3.22353,1.41899c-1.51981,-0.45882 -2.84604,-0.77137 -2.2802,-3.08052z" stroke-linecap="butt"/><path d="M241.80804,176.4892l-3.1793,-1.00816" stroke-linecap="round"/><path d="M233.64025,171.50773c0.893,-1.31672 2.0678,-0.52961 3.31104,0.62589c1.24325,1.1555 1.81512,2.52367 1.19118,3.55857c-1.32294,2.19428 -2.43342,0.66261 -3.40693,-0.24218c-1.24325,-1.15551 -2.35641,-2.08274 -1.09529,-3.94227z" stroke-linecap="butt"/><path d="M231.74608,170.07133l2.58519,2.46183" stroke-linecap="round"/><path d="M227.13655,165.38311c0.893,-1.3167 2.0678,-0.52961 3.31104,0.62589c1.24326,1.1555 1.81512,2.52367 1.19118,3.55857c-1.32294,2.19427 -2.43342,0.66261 -3.40693,-0.24218c-1.24325,-1.1555 -2.3564,-2.08273 -1.09528,-3.94227z" stroke-linecap="butt"/><path d="M227.82759,166.40853l-2.5852,-2.46183" stroke-linecap="round"/></g><path d="M256.22231,163.86092c-12.07842,0.45688 -23.79253,0.86384 -28.60919,-0.0072c-4.40211,-0.79607 -5.79739,-3.51918 -5.79739,-3.51918c0,0 -1.82333,-2.38462 -1.95172,-3.91425c-0.38516,-4.58889 -0.86989,-17.73032 -0.23844,-29.08973c0.02107,-0.37912 0.04665,-0.59142 0.09027,-0.96861c0.13085,-1.13156 0.82867,-5.52903 0.82867,-5.52903c0,0 3.14291,-1.7466 4.86197,-2.2675c5.15717,-1.56271 18.40608,-0.4359 32.32665,-0.40073c1.26172,0.00319 3.4688,1.62465 3.4688,1.62465c0,0 1.62627,3.09425 1.63209,5.07777c0.03768,12.82377 0.03217,27.01252 -0.18113,30.2622c-0.07109,1.08323 -1.79353,5.32153 -1.79353,5.32153z" fill="#582700" stroke="#000000" stroke-width="2.5" stroke-linecap="round"/><path d="M253.0209,143.81873c-0.01012,-3.44494 0.3954,-6.23885 0.90576,-6.24034c0.51036,-0.00151 0.9323,2.78997 0.94243,6.2349c0.01012,3.44494 -0.3954,6.23886 -0.90576,6.24035c-0.51036,0.00151 -0.9323,-2.78997 -0.94243,-6.23491z" fill="none" stroke="#000000" stroke-width="2.5" stroke-linecap="butt"/><path d="M246.80476,143.91628c-0.01031,-3.50875 0.29165,-6.35407 0.6744,-6.35518c0.38277,-0.00112 0.70143,2.84237 0.71174,6.35111c0.01031,3.50875 -0.29162,6.35404 -0.67439,6.35517c-0.38277,0.00112 -0.70144,-2.84235 -0.71175,-6.35109z" fill="none" stroke="#000000" stroke-width="2.5" stroke-linecap="butt"/><path d="M250.12059,153.59006c0,0 -2.74579,0.25689 -6.08398,0" fill="none" stroke="#000000" stroke-width="2.5" stroke-linecap="round"/><path d="M216.28302,121.75749c-0.69337,-1.04006 0.34669,-1.73344 0.34669,-1.73344l1.28705,-0.80872c0.11726,-0.04022 0.23444,-0.07968 0.35158,-0.11837c-1.20305,-5.7481 -0.30588,-12.76435 -0.51642,-18.47894c-0.0546,-1.482 -0.55643,-5.48595 0.11979,-6.77959c1.13235,-2.16624 2.86135,-1.626 4.75632,-1.69066c3.22426,-0.11001 6.42386,-0.17979 9.59779,-0.7607c7.86802,-1.43055 15.70135,-1.95312 23.62358,-2.89838c2.49992,-0.29828 4.94599,-0.47191 7.47369,-0.34124c0.69163,0.03575 1.56595,-0.24505 2.06422,0.23595c1.76471,1.70353 1.09735,3.68568 0.8444,5.65733c-0.50455,3.93282 -2.00373,7.51369 -1.99196,11.52339c-0.01149,3.06766 -0.38069,6.22723 -0.67172,9.27893c-0.10044,1.05312 0.30433,2.9835 -0.73037,3.80619c-2.12161,1.68689 -7.80757,0.66489 -10.34791,0.66489c-7.746,0 -15.49847,-0.15957 -23.23265,0.28182c-2.76177,0.25252 -5.39216,0.57451 -8.01929,1.23829c-0.01405,0.37327 -0.17566,0.85671 -0.85277,1.08241c-0.73464,0.24488 -1.16587,-0.11705 -1.38767,-0.42793c-0.08928,0.0298 -0.1786,0.06009 -0.26796,0.09087l-0.71295,0.52461c0,0 -1.04006,0.69337 -1.73344,-0.34669z" fill="#000000" stroke="none" stroke-width="0.5" stroke-linecap="butt"/><g><g stroke="#000000" stroke-width="3" stroke-linecap="round"><path d="M201.87321,199.19266l7.89838,-29.04526c0,0 1.58278,-5.4914 2.70627,-5.75054c3.37048,-0.77744 9.58231,1.28163 16.16085,2.06925c1.09348,0.13092 0.94804,6.05365 0.94804,6.05365c0,0 -0.64004,9.30853 -1.0497,15.26645c-0.62388,9.07333 -1.59858,23.24931 -1.59858,23.24931c0,0 -0.26098,7.27026 -2.25392,6.87055c0,0 -9.63714,2.60367 -25.29943,-3.78911c-0.43173,-4.58738 2.48808,-14.92429 2.48808,-14.92429z" data-paper-data="{&quot;origPos&quot;:null}" fill="#582700"/><path d="M201.69186,201.2869l25.34772,4.26772l-0.51729,3.36246l-25.34773,-4.00908z" data-paper-data="{&quot;origPos&quot;:null}" fill="none"/></g><path d="M202.48331,200.9467l9.82048,-36.10471l15.59723,2.59955l1.15535,0.86652l-1.73303,36.8268z" fill="#66c8ff" stroke="#000000" stroke-width="1" stroke-linecap="round"/><path d="M201.44419,204.46811l0.367,-2.30203l25.18283,4.01465l-0.36699,2.30203z" fill="#ffffff" stroke="none" stroke-width="0" stroke-linecap="butt"/></g></g></g></svg>