<svg version="1.1" xmlns="http://www.w3.org/2000/svg" xmlns:xlink="http://www.w3.org/1999/xlink" width="127.66667" height="127.66667" viewBox="0,0,127.66667,127.66667"><g transform="translate(-176.16667,-116.16666)"><g data-paper-data="{&quot;isPaintingLayer&quot;:true}" fill-rule="nonzero" stroke-linejoin="miter" stroke-miterlimit="10" stroke-dasharray="" stroke-dashoffset="0" style="mix-blend-mode: normal"><g stroke="#000000" stroke-width="1" stroke-linecap="butt"><path d="M227.20346,183.54325c0.46917,-1.20979 1.9223,-4.10586 3.18778,-4.67335c3.60948,-1.61867 4.768,2.16379 5.0193,4.70497c-0.02232,2.36867 -1.29276,6.08852 -3.66655,8.72446c-1.63672,1.81746 -4.06657,2.90403 -5.57216,3.55625c-0.51351,0.22246 -2.09692,0.01206 -4.13469,-3.27194c-1.90548,-3.07081 -3.02945,-7.61389 -1.86385,-8.33739c1.00306,-0.62262 6.70343,0.14696 6.70343,0.14696z" fill="#dc94e7"/><path d="M223.31967,187.87617c0.05457,0.04103 0.08536,0.07251 0.08536,0.07251l0.66462,0.78232c0.29514,0.81924 0.26632,1.55583 0.27364,2.27296c0.009,0.88269 -0.03166,1.73478 -0.61199,2.66167c-4.05862,5.29923 -15.01133,6.88221 -14.91272,-2.28021c0.06015,-3.82177 3.63999,-4.96213 7.38055,-4.99025c2.54859,-0.01917 5.17298,0.36935 6.80494,1.20292c0,0 0.18211,0.09353 0.31561,0.27808z" fill="#f89688"/></g><g><g stroke="#000000" stroke-linecap="round"><path d="M216.88515,198.5375c0,0 2.83381,-5.33538 4.22935,-6.09686c0.74404,-0.40599 3.50137,1.87853 3.50137,1.87853c0,0 4.85585,-3.98278 11.31973,-4.00573c8.27119,-0.02937 19.76598,2.20904 19.76598,2.20904l2.92955,11.40511c0,0 -16.35548,1.18241 -23.29655,0.28621c-6.9741,-0.90047 -18.44941,-5.67629 -18.44941,-5.67629z" fill="#0065cc" stroke-width="0"/><path d="M224.61588,194.31917c0,0 4.85585,-3.98278 11.31973,-4.00573c8.27119,-0.02937 19.76598,2.20904 19.76598,2.20904l2.92955,11.40511c0,0 -16.35548,1.18241 -23.29655,0.28621c-2.47361,-0.31939 -5.51349,-1.1263 -8.40675,-2.03472c-0.19262,-2.66291 -0.99187,-5.3473 -1.88471,-7.00061c-0.12418,-0.22996 -0.2785,-0.53149 -0.45925,-0.88557c0.02094,0.0171 0.03202,0.02627 0.03202,0.02627z" fill="#061382" stroke-width="0"/><path d="M231.85834,201.2716l-2.76678,-2.49975" fill="none" stroke-width="1"/><path d="M216.88515,198.5375c0,0 2.83381,-5.33538 4.22935,-6.09686c0.74404,-0.40599 3.50137,1.87853 3.50137,1.87853c0,0 4.85585,-3.98278 11.31973,-4.00573c8.27119,-0.02937 19.76598,2.20904 19.76598,2.20904l2.92955,11.40511c0,0 -16.35548,1.18241 -23.29655,0.28621c-6.9741,-0.90047 -18.44941,-5.67629 -18.44941,-5.67629z" fill="none" stroke-width="1"/></g><g stroke="#000000" stroke-linecap="round"><path d="M249.43561,195.10034l-1.54615,-6.09314l7.81212,-2.34351c0,0 0.17522,2.72154 1.00421,3.75359c0.41404,0.51544 1.74212,0.74309 2.61695,1.26078c1.02898,0.60891 1.58691,1.46935 1.58691,1.46935c0,0 -0.29429,4.3422 -5.06252,4.56672c-4.0162,0.18911 -6.41152,-2.61378 -6.41152,-2.61378z" fill="#fde0be" stroke-width="0"/><path d="M247.88944,189.00721l7.81212,-2.34351c0,0 0.13066,2.02963 0.70022,3.24808c-2.37296,2.08276 -4.37077,2.32684 -7.50373,3.27402z" fill="#f89688" stroke-width="0"/><path d="M249.43561,195.10034l-1.54615,-6.09314l7.81212,-2.34351c0,0 0.17522,2.72154 1.00421,3.75359c0.41404,0.51544 1.74212,0.74309 2.61695,1.26078c1.02898,0.60891 1.58691,1.46935 1.58691,1.46935c0,0 -0.29429,4.3422 -5.06252,4.56672c-4.0162,0.18911 -6.41152,-2.61378 -6.41152,-2.61378z" fill="none" stroke-width="1"/></g><g><path d="M228.97968,186.58362c0,0 -2.75152,-5.52479 1.18774,-10.55997c1.44987,-1.85322 3.92919,-4.23104 7.60976,-5.3984c16.12662,-5.11483 15.12709,8.9864 15.12709,8.9864c0,0 4.05721,4.22163 3.4145,5.8016c-1.31638,3.236 -7.82916,3.63105 -7.82916,3.63105l0.85445,6.15172c0,0 -9.28479,7.13397 -18.15845,2.8554c-10.18087,-4.90886 -2.20594,-11.46781 -2.20594,-11.46781z" fill="#feecf7" stroke="#000000" stroke-width="0" stroke-linecap="round"/><path d="M228.97968,186.58362c0,0 -2.75152,-5.52479 1.18774,-10.55997c1.44987,-1.85322 3.92919,-4.23104 7.60976,-5.3984c16.12662,-5.11483 15.12709,8.9864 15.12709,8.9864c0,0 4.05721,4.22163 3.4145,5.8016c-1.31638,3.236 -7.82916,3.63105 -7.82916,3.63105l0.85445,6.15172l-4.53266,-4.44197c0,0 -6.17261,0.85524 -8.25783,-0.02664c-2.92244,-1.23594 -7.57388,-4.14379 -7.57388,-4.14379z" fill="#dc94e7" stroke="#000000" stroke-width="0" stroke-linecap="round"/><path d="M228.97968,186.58362c0,0 -2.75152,-5.52479 1.18774,-10.55997c1.44987,-1.85322 3.92919,-4.23104 7.60976,-5.3984c16.12662,-5.11483 15.12709,8.9864 15.12709,8.9864c0,0 4.05721,4.22163 3.4145,5.8016c-1.31638,3.236 -7.82916,3.63105 -7.82916,3.63105l0.85445,6.15172c0,0 -9.28479,7.13397 -18.15845,2.8554c-10.18087,-4.90886 -2.20594,-11.46781 -2.20594,-11.46781z" fill="none" stroke="#000000" stroke-width="1" stroke-linecap="round"/><path d="M244.30892,193.538c0,0.36136 -0.24876,0.48391 -0.41751,0.52549c-0.72886,1.06158 -2.25099,1.70514 -3.81323,1.50007c-4.0342,-0.56383 -8.93636,-2.08045 -9.03357,-6.86882c0,0 0,-0.21509 0.14054,-0.37548c-0.22755,-0.38295 0.15463,-0.67646 0.15463,-0.67646l0.35993,-0.27213c1.75902,-1.60771 4.28156,-0.23988 6.31865,0.24676c1.90304,0.45694 4.40684,1.6004 5.60802,3.17218c0.67638,0.88506 0.83015,1.74829 0.62934,2.4936c0.03291,0.06791 0.05318,0.15162 0.05318,0.25479zM242.17237,193.91973c-1.72769,-0.36856 -4.93909,-0.60107 -6.38347,-1.47983c-0.95239,-0.57944 -1.75381,-1.24362 -2.63891,-1.82639c0.11597,0.13596 0.2316,0.28603 0.34004,0.46231c1.77961,2.89293 3.36976,2.94933 6.74924,3.40508c0.80292,0.11606 1.67394,-0.08828 2.26856,-0.51497c-0.11182,-0.01539 -0.22364,-0.03079 -0.33548,-0.04621zM236.39094,191.51142c1.29997,0.81875 4.38506,0.99093 5.98571,1.33238c0.27766,0.03787 0.55532,0.07583 0.83295,0.11385c0.08589,-0.44207 -0.04545,-0.95665 -0.49669,-1.51452c-1.1029,-1.36352 -3.27109,-2.357 -4.97087,-2.76472c-1.40862,-0.33974 -4.09332,-1.7197 -5.23676,-0.53442l-0.38264,0.29746c0.06121,0.12967 0.06121,0.25327 0.06121,0.25327c-0.00131,0.04283 -0.00167,0.08443 -0.0011,0.12486c1.58393,0.72476 2.7484,1.77244 4.20818,2.69183z" fill="#ff0000" stroke="none" stroke-width="0.5" stroke-linecap="butt"/><path d="M231.33977,187.64281l0.35993,-0.27213c1.75902,-1.60771 4.28156,-0.23988 6.31865,0.24676c1.90304,0.45694 4.40684,1.6004 5.60802,3.17218c0.08099,0.10598 0.15448,0.21163 0.22076,0.31682c-0.36573,0.1067 -0.74959,0.22107 -1.13667,0.33373c-1.10365,-1.36199 -3.2699,-2.35431 -4.96845,-2.76173c-1.40862,-0.33974 -4.09332,-1.7197 -5.23676,-0.53442l-0.38264,0.29746c0.06121,0.12967 0.06121,0.25327 0.06121,0.25327c-0.00065,0.02158 -0.00107,0.04285 -0.00126,0.06381c-0.12495,-0.03742 -0.25022,-0.07332 -0.3758,-0.10774c-0.2301,-0.17192 -0.45971,-0.34366 -0.68908,-0.51364c-0.04396,-0.29007 0.22204,-0.49435 0.22204,-0.49435z" fill="#ab0d46" stroke="none" stroke-width="0.5" stroke-linecap="butt"/><path d="M248.54047,189.16345c0,0 -1.32294,-0.22691 -1.92177,-0.52632c-0.69016,-0.34508 -1.98428,-1.42662 -1.98428,-1.42662" fill="none" stroke="#000000" stroke-width="1" stroke-linecap="round"/></g><g><path d="M239.42635,206.34922l2.27853,4.84326c0,0 -5.00454,0.9459 -7.64078,1.18192c-2.59842,0.23264 -8.06482,0.22418 -8.06482,0.22418c0,0 -11.9282,5.03127 -18.23929,3.91007c-6.07892,-1.07994 -6.6364,-3.93204 -5.99535,-5.52697c0.0499,-0.12414 1.12404,-1.11201 2.51165,-1.45199c2.25223,-0.55185 5.59633,-0.54606 8.71036,-0.93783c11.13478,-1.40081 26.4397,-2.24265 26.4397,-2.24265z" fill="#feecf7" stroke="#000000" stroke-width="0" stroke-linecap="round"/><path d="M239.42635,206.34922l2.27853,4.84326c0,0 -5.00454,0.9459 -7.64078,1.18192c-2.59842,0.23264 -8.06482,0.22418 -8.06482,0.22418c0,0 -9.00375,3.79774 -15.505,4.05892c0.38453,-0.32534 0.72321,-0.70508 1.0036,-1.11148c0.89935,-1.3227 2.27234,-1.29906 3.54903,-2.21972c1.247,-0.89925 1.59463,-1.77058 2.36865,-2.90412c0.60656,-0.88829 2.25242,-1.85603 3.89477,-2.72494c9.18225,-0.85664 18.11603,-1.34805 18.11603,-1.34805z" fill="#dc94e7" stroke="#000000" stroke-width="0" stroke-linecap="butt"/><path d="M239.42635,206.34922l2.27853,4.84326c0,0 -5.00454,0.9459 -7.64078,1.18192c-2.59842,0.23264 -8.06482,0.22418 -8.06482,0.22418c0,0 -11.9282,5.03127 -18.23929,3.91007c-6.07892,-1.07994 -6.6364,-3.93204 -5.99535,-5.52697c0.04107,-0.10217 1.47939,-1.32868 2.47271,-1.5897c2.17266,-0.57091 5.29568,-0.36566 8.7493,-0.80014c11.13478,-1.40081 26.4397,-2.24265 26.4397,-2.24265z" fill="none" stroke="#000000" stroke-width="1" stroke-linecap="round"/><path d="M230.23085,200.02175c0,0 3.17635,1.72804 4.67056,2.79752c1.5919,1.13941 4.60633,3.84244 4.60633,3.84244c0,0 -3.84624,1.87595 -5.98093,2.20069c-2.6967,0.41022 -8.91091,0.0647 -8.91091,0.0647c0,0 -11.97578,5.96107 -18.96064,2.49975c-0.72202,-0.35781 -1.62892,-1.20419 -1.54674,-1.71866c0.2591,-1.622 3.20552,-2.99069 6.35724,-4.43384c2.24551,-1.02821 5.036,-2.44038 5.036,-2.44038c0,0 -3.28855,-2.29712 -1.12327,-5.23199c0.42588,-0.57725 1.67727,-0.49867 3.26143,-0.6668c1.65687,-0.17585 3.63954,-0.58492 3.63954,-0.58492l6.59146,4.68703z" fill="#ff292e" stroke="#000000" stroke-width="0" stroke-linecap="round"/><path d="M234.90139,202.81925c1.5919,1.13941 4.60633,3.84244 4.60633,3.84244c0,0 -3.84624,1.87596 -5.98093,2.20069c-2.6967,0.41023 -8.91091,0.0647 -8.91091,0.0647c0,0 -8.49276,4.22736 -15.34582,3.49514c0.7527,-0.96948 1.50046,-2.09205 1.83052,-2.61934c0.785,-0.4687 1.57825,-0.76857 2.35284,-1.1109c0.50485,-0.01126 0.97723,-0.14864 1.38426,-0.38056c1.26585,-0.27807 2.21021,-1.36579 2.21021,-2.66526c0,-1.00347 -0.56315,-1.88068 -1.40263,-2.35628c-0.09041,-0.1519 -0.18966,-0.27721 -0.2965,-0.37881c0.09899,-0.04982 0.15298,-0.07713 0.15298,-0.07713c0,0 -1.56111,-1.09048 -1.82393,-2.7287c3.35249,0.06052 7.52026,-0.22475 7.52026,-2.97386c0,-0.27691 -0.02455,-0.52619 -0.07068,-0.75055c0.0979,-0.01946 0.15205,-0.03062 0.15205,-0.03062l6.45291,4.58851c-0.25703,0.11721 -0.58397,0.23408 -0.9886,0.38464c-0.23679,0.05428 -0.4805,0.10838 -0.72518,0.17243c0,0 -0.82434,0.21582 -0.59952,1.00715c0.22482,0.79132 1.04917,0.57551 1.04917,0.57551c0.0622,-0.01628 0.12385,-0.03241 0.18494,-0.04839c0.21959,0.00819 0.39584,-0.05949 0.39584,-0.05949c0.13002,-0.05017 0.25576,-0.09976 0.37721,-0.14903c0.71158,-0.20249 1.32913,-0.42281 1.84014,-0.76808c0.13281,0.08347 0.31203,0.1342 0.55359,0.11312c0.85094,-0.07426 0.77359,-0.89112 0.77359,-0.89112c-0.02699,-0.28355 -0.05658,-0.55627 -0.09357,-0.82277c0.02923,-0.07627 0.05712,-0.1552 0.08366,-0.23689c0.86878,0.48109 3.12724,1.75131 4.31778,2.60346z" fill="#ac0e49" stroke="#000000" stroke-width="0" stroke-linecap="round"/><path d="M230.23085,200.02175c0,0 3.17635,1.72804 4.67056,2.79752c1.5919,1.13941 4.60633,3.84244 4.60633,3.84244c0,0 -3.84624,1.87595 -5.98093,2.20069c-2.6967,0.41022 -8.91091,0.0647 -8.91091,0.0647c0,0 -11.97578,5.96107 -18.96064,2.49975c-0.72202,-0.35781 -1.62892,-1.20419 -1.54674,-1.71866c0.2591,-1.622 3.20552,-2.99069 6.35724,-4.43384c2.24551,-1.02821 5.036,-2.44038 5.036,-2.44038c0,0 -3.28855,-2.29712 -1.12327,-5.23199c0.42588,-0.57725 1.67727,-0.49867 3.26143,-0.6668c1.65687,-0.17585 3.63954,-0.58492 3.63954,-0.58492l6.59146,4.68703z" fill="none" stroke="#000000" stroke-width="1" stroke-linecap="round"/><path d="M227.6268,201.11536l-0.97651,0.54682" fill="none" stroke="#000000" stroke-width="1" stroke-linecap="round"/><path d="M230.63772,204.16194c0,0 1.041,-0.41102 1.78149,-0.52252c0.62224,-0.0937 3.18246,-0.25866 3.18246,-0.25866" fill="none" stroke="#000000" stroke-width="0.5" stroke-linecap="round"/><path d="M215.01269,205.16862c-0.45801,-0.09358 -0.94134,-0.14856 -1.46397,-0.14739c0,0 -0.56963,0 -0.56963,-0.54682c0,-0.54682 0.56963,-0.54682 0.56963,-0.54682c1.96334,0.0039 4.5538,0.52036 6.11852,1.67101c0.34749,0.25553 1.44405,1.05634 0.96563,1.65003c-0.68311,0.84771 -3.34093,-0.95318 -4.06819,-1.41861c-0.35293,-0.09186 -0.70506,-0.18658 -1.05667,-0.283l-0.49042,-0.37347c0,0 -0.00176,-0.00169 -0.00489,-0.00492z" fill="#fff1fd" stroke="none" stroke-width="0.5" stroke-linecap="butt"/><path d="M215.87791,203.49648c-0.36466,-0.42008 0.07294,-0.77016 0.07294,-0.77016c1.79723,-1.39059 7.1466,-0.91422 8.20554,1.2842c0.92156,1.91321 -0.92791,2.25461 -2.35105,1.59844c-1.81094,-0.48819 -3.51157,-1.06671 -5.29044,-1.60068l-0.07663,-0.12042l-0.03729,0.03581l-0.25124,-0.24118c-0.09002,-0.02716 -0.18309,-0.08377 -0.27183,-0.186z" fill="#fff1fd" stroke="none" stroke-width="0.5" stroke-linecap="butt"/><path d="M217.63394,201.49982c-0.0007,-0.00101 -0.0014,-0.00201 -0.0021,-0.00302c-0.31598,-0.45499 0.15799,-0.7583 0.15799,-0.7583c1.45727,-0.86832 6.92342,-1.15658 7.58191,0.91779c0.87573,2.75876 -2.51431,1.06019 -3.49088,0.51328c-1.05014,-0.24269 -1.95721,-0.27304 -3.04267,-0.27304h-0.65101c0,0 -0.45992,0.00001 -0.55324,-0.39672z" fill="#dc94e7" stroke="none" stroke-width="0.5" stroke-linecap="butt"/><path d="M219.66724,205.59859c0.34749,0.25553 1.44405,1.05634 0.96563,1.65003c-0.52942,0.65697 -2.24486,-0.27685 -3.32855,-0.94699c0.6297,-0.29409 1.18559,-0.6698 1.68233,-1.1319c0.24264,0.13175 0.47084,0.27461 0.6806,0.42885z" fill="#dc94e7" stroke="none" stroke-width="0.5" stroke-linecap="butt"/><path d="M224.15639,204.01054c0.92156,1.91321 -0.92791,2.25461 -2.35105,1.59844c-0.85668,-0.23093 -1.68867,-0.48209 -2.51593,-0.73919c0.68449,-0.7215 1.25129,-1.62615 1.74481,-2.72841c1.41831,0.297 2.66686,0.92391 3.12218,1.86918z" fill="#dc94e7" stroke="none" stroke-width="0.5" stroke-linecap="butt"/><path d="M215.01269,205.16862c-0.45801,-0.09358 -0.94134,-0.14856 -1.46397,-0.14739c0,0 -0.56963,0 -0.56963,-0.54682c0,-0.54682 0.56963,-0.54682 0.56963,-0.54682c1.96334,0.0039 4.5538,0.52036 6.11852,1.67101c0.34749,0.25553 1.44405,1.05634 0.96563,1.65003c-0.68311,0.84771 -3.34093,-0.95318 -4.06819,-1.41861c-0.35293,-0.09186 -0.70506,-0.18658 -1.05667,-0.283l-0.49042,-0.37347c0,0 -0.00176,-0.00169 -0.00489,-0.00492z" fill="none" stroke="#000000" stroke-width="1" stroke-linecap="butt"/><path d="M215.87791,203.49648c-0.36466,-0.42008 0.07294,-0.77016 0.07294,-0.77016c1.79723,-1.39059 7.1466,-0.91422 8.20554,1.2842c0.92156,1.91321 -0.92791,2.25461 -2.35105,1.59844c-1.81094,-0.48819 -3.51157,-1.06671 -5.29044,-1.60068l-0.07663,-0.12042l-0.03729,0.03581l-0.25124,-0.24118c-0.09002,-0.02716 -0.18309,-0.08377 -0.27183,-0.186z" fill="none" stroke="#000000" stroke-width="1" stroke-linecap="butt"/><path d="M217.63394,201.49982c-0.0007,-0.00101 -0.0014,-0.00201 -0.0021,-0.00302c-0.31598,-0.45499 0.15799,-0.7583 0.15799,-0.7583c1.45727,-0.86832 6.92342,-1.15658 7.58191,0.91779c0.87573,2.75876 -2.51431,1.06019 -3.49088,0.51328c-1.05014,-0.24269 -1.95721,-0.27304 -3.04267,-0.27304h-0.65101c0,0 -0.45992,0.00001 -0.55324,-0.39672z" fill="none" stroke="#000000" stroke-width="1" stroke-linecap="butt"/></g><g><path d="M246.78302,209.85232c8.11699,0 15.96156,-2.34401 24.06495,-2.35549c0.38713,-0.01743 0.64712,0.10674 0.82135,0.27313c0.18753,0.15311 0.3382,0.39203 0.35183,0.76486l0.08863,1.06511c-0.01127,4.60302 -2.8716,6.15721 -6.99512,7.77653c-3.53865,1.38964 -8.12303,3.15987 -11.32076,3.15987c-4.21981,0 -8.51412,0.46904 -12.50888,-1.0847c-2.56176,-0.99638 -5.93059,-3.60726 -4.69275,-6.76014c0.64605,-1.64553 1.65441,-1.58254 2.99031,-2.28783c0,0 0.73232,-0.37854 1.28245,0.11193c2.04193,-0.57693 3.77107,-0.66328 5.918,-0.66328z" fill="#ffeef9" stroke="none" stroke-width="0.5" stroke-linecap="butt"/><path d="M270.84797,207.49682c0.38713,-0.01743 0.64712,0.10673 0.82135,0.27313c0.18753,0.15311 0.33819,0.39203 0.35183,0.76486l0.08864,1.06513c-0.01127,4.60301 -2.8716,6.1572 -6.99514,7.77653c-3.53865,1.38964 -8.12303,3.15987 -11.32076,3.15987c-4.21981,0 -8.51412,0.46904 -12.50888,-1.0847c-2.27802,-0.88604 -5.19424,-3.04872 -4.94188,-5.73392c0.95216,0.77679 1.8794,1.493 2.83182,2.14265c1.5767,1.26852 3.26109,2.15376 5.26508,2.68714c0.53581,0.18559 1.09424,0.35537 1.67999,0.50876c0,0 0.34991,0.09161 0.65597,-0.06339c0.9627,0.11911 1.99708,0.17676 3.11937,0.1754c5.92639,0.57617 15.27946,-2.15807 18.6058,-6.94775c0.48685,-1.53441 0.7168,-3.18281 0.32982,-4.6751c0.67074,-0.03053 1.34298,-0.04763 2.01699,-0.04859z" fill="#db93e6" stroke="none" stroke-width="0.5" stroke-linecap="butt"/><path d="M246.78302,209.85233c8.11699,0 15.96158,-2.34402 24.06495,-2.35549c0.38713,-0.01743 0.64712,0.10673 0.82135,0.27313c0.18753,0.15311 0.33819,0.39203 0.35183,0.76486l0.08864,1.06513c-0.01127,4.60301 -2.8716,6.1572 -6.99514,7.77653c-3.53865,1.38964 -8.12303,3.15987 -11.32076,3.15987c-4.21981,0 -8.51412,0.46904 -12.50888,-1.0847c-2.56176,-0.99638 -5.93059,-3.60726 -4.69275,-6.76014c0.64605,-1.64553 1.65441,-1.58253 2.99031,-2.28781c0,0 0.73233,-0.37854 1.28245,0.11192c2.04193,-0.57693 3.77107,-0.66328 5.918,-0.66328z" fill="none" stroke="#000000" stroke-width="1" stroke-linecap="butt"/><path d="M243.97866,202.19686c0,0 6.52891,-3.8896 9.39265,-4.56801c4.18211,-0.99073 6.11889,0.78233 6.11889,0.78233c0,0 4.49005,0.73911 6.40369,0.36947c3.75894,-0.72611 4.63844,-2.30437 4.63844,-2.30437c0,0 1.43327,1.60886 0.13385,3.30507c-1.32023,1.72333 -3.90219,3.34089 -3.90219,3.34089c0,0 11.83482,10.60475 -10.03606,13.86698c-26.93428,4.01746 -14.76489,-7.64166 -14.76489,-7.64166c0,0 -0.80086,-0.84888 -1.03905,-1.3869c-0.25697,-0.58043 -0.45075,-1.97815 -0.45075,-1.97815c0,0 -3.68029,0.34138 -5.02758,-0.71927c-0.64237,-0.5057 0.26133,-2.63016 0.44876,-2.83258c0.58782,-0.63482 8.08426,-0.23381 8.08426,-0.23381z" fill="#ff292e" stroke="#000000" stroke-width="0" stroke-linecap="round"/><path d="M253.37131,197.62883c4.18211,-0.99073 6.11889,0.78233 6.11889,0.78233c0,0 3.25287,0.53546 5.40122,0.46692c-0.25497,0.05265 -0.59584,0.21778 -0.64347,0.7207c-0.07735,0.81686 0.77359,0.89112 0.77359,0.89112c2.24134,0.17217 4.32594,-0.92746 6.18546,-2.08909c-0.02515,0.43045 -0.17425,0.90201 -0.54083,1.3805c-1.32023,1.72333 -3.90219,3.34089 -3.90219,3.34089c0,0 0.6228,0.55808 1.31865,1.45756c-0.57844,-0.46781 -1.1341,0.0656 -1.1341,0.0656c-0.0781,0.07664 -0.16448,0.14774 -0.25759,0.21431c-0.40545,0.06011 -0.77004,0.26084 -1.07406,0.54174c-1.34045,0.52863 -2.89456,0.90178 -2.566,2.49047c0.21203,1.02522 3.41758,2.3689 4.3686,1.96948c1.28773,-0.54083 1.19231,-2.06399 1.07531,-3.12174c-0.04552,-0.41152 0.09609,-0.95126 -0.11728,-1.28018c0.04883,-0.13169 0.0712,-0.29163 0.01409,-0.46283c2.26627,3.19627 4.45458,9.58839 -11.66367,11.99256c-7.75898,1.15732 -12.27297,1.01372 -14.76763,0.22266c0.36931,-0.45231 0.74818,-0.89454 1.15023,-1.32866c1.35217,-1.29831 3.86726,-2.31067 4.77433,-3.87358c1.14453,-1.97207 -0.16238,-4.90985 -1.405,-7.56375c3.7437,-0.92256 8.89218,-3.68824 5.81621,-6.48214c0.39429,-0.14475 0.75735,-0.25962 1.07525,-0.33493z" fill="#ac0e49" stroke="#000000" stroke-width="0" stroke-linecap="butt"/><path d="M243.97866,202.19686c0,0 6.52891,-3.8896 9.39265,-4.56801c4.18211,-0.99073 6.11889,0.78233 6.11889,0.78233c0,0 4.49005,0.73911 6.40369,0.36947c3.75894,-0.72611 4.63844,-2.30437 4.63844,-2.30437c0,0 1.43327,1.60886 0.13385,3.30507c-1.32023,1.72333 -3.90219,3.34089 -3.90219,3.34089c0,0 11.83482,10.60475 -10.03606,13.86698c-26.93428,4.01746 -14.76489,-7.64166 -14.76489,-7.64166c0,0 -0.80086,-0.84888 -1.03905,-1.3869c-0.25697,-0.58043 -0.45075,-1.97815 -0.45075,-1.97815c0,0 -3.68029,0.34138 -5.02758,-0.71927c-0.64237,-0.5057 0.26133,-2.63016 0.44876,-2.83258c0.58782,-0.63482 8.08426,-0.23381 8.08426,-0.23381z" fill="none" stroke="#000000" stroke-width="1" stroke-linecap="round"/><path d="M242.05069,209.34757h2.27853" fill="none" stroke="#000000" stroke-width="1" stroke-linecap="round"/><path d="M240.73614,206.15077l1.57745,-0.42064" fill="none" stroke="#000000" stroke-width="1" stroke-linecap="round"/><path d="M266.41345,202.95398l-4.20653,-0.16826" fill="none" stroke="#000000" stroke-width="1" stroke-linecap="round"/><path d="M239.66239,206.11287c-0.22342,1.0724 -1.34056,0.85792 -1.34056,0.85792l-0.30213,-0.06611c-0.37976,-0.02804 -0.75951,-0.05609 -1.13926,-0.08413c0,0 -1.1359,-0.08388 -1.04853,-1.1743c0.08738,-1.09043 1.22329,-1.00654 1.22329,-1.00654c0.37976,0.02804 0.75951,0.05608 1.13926,0.08412l0.57424,0.10215c0,0 1.11714,0.21447 0.89371,1.28687z" fill="#000000" stroke="none" stroke-width="0.5" stroke-linecap="butt"/><path d="M269.30544,201.35557c0,0.711 -0.48152,0.95977 -0.81847,1.0468c-0.2536,0.15492 -0.50719,0.30983 -0.76077,0.46474c0,0 -0.96116,0.58714 -1.5728,-0.33551c-0.61164,-0.92266 0.34951,-1.5098 0.34951,-1.5098c0.32133,-0.19629 0.64266,-0.3926 0.96399,-0.58889l0.69928,-0.17098c0,0 1.13926,0 1.13926,1.09364z" fill="#000000" stroke="none" stroke-width="0.5" stroke-linecap="butt"/><path d="M264.3102,208.59043c0,1.09364 -1.13926,1.09364 -1.13926,1.09364h-0.17528c-4.84964,-0.01261 -9.08287,1.33069 -13.51099,3.03445c0,0 -1.05779,0.40617 -1.4809,-0.60926c-0.15063,-0.3615 -0.11357,-0.64578 -0.00336,-0.86202c-0.15494,0.07074 -1.02843,0.41948 -1.51939,-0.45581c-0.46635,-0.83139 0.21771,-1.33146 0.41331,-1.45257c-0.09247,-0.08673 -0.17874,-0.19913 -0.25393,-0.34348c-0.50949,-0.97819 0.50949,-1.46727 0.50949,-1.46727l0.17528,-0.08412c4.39674,-2.10319 9.20945,-4.34226 14.26806,-3.98205c0,0 1.1359,0.08388 1.04853,1.1743c-0.04209,0.52538 -0.32761,0.77815 -0.6122,0.89903c0.23355,-0.01885 0.46802,-0.03694 0.70346,-0.05431l0.26264,-0.00323c0,0 1.13926,0 1.13926,1.09364c0,0.57789 -0.31809,0.85042 -0.61812,0.97894c0.33523,0.09282 0.7934,0.34656 0.7934,1.04009z" fill="#fff1fd" stroke="none" stroke-width="0.5" stroke-linecap="butt"/><path d="M246.78302,207.07615c0,0 -1.8719,-1.5357 -2.28669,-2.39104c-0.36841,-0.75972 -0.07948,-2.48827 -0.07948,-2.48827" fill="none" stroke="#000000" stroke-width="1" stroke-linecap="round"/><path d="M261.59323,203.46196c0,0 0.48646,0.03593 0.7982,0.36636c-0.07919,0.30665 -0.15838,0.61328 -0.23757,0.91993c-0.0329,0.31207 -0.03328,0.54866 -0.03653,0.74531c-0.02909,0.01542 -0.05843,0.02929 -0.08777,0.04174c0.02904,-0.00234 0.0581,-0.00468 0.08715,-0.007c-0.00854,0.44105 -0.04343,0.68266 -0.53374,1.15575c-0.71102,0.68604 -1.25301,2.00382 -2.23469,2.40667c-2.52759,1.03723 -4.85811,-2.22903 -6.4453,-4.10312c2.78705,-1.04118 5.69555,-1.73889 8.69025,-1.52564z" fill="#dc94e7" stroke="#000000" stroke-width="0" stroke-linecap="butt"/><path d="M247.57175,209.34756c0,0 4.44671,-1.96513 6.92794,-2.67695c2.59643,-0.74487 8.32071,-1.69762 8.32071,-1.69762" fill="none" stroke="#000000" stroke-width="1" stroke-linecap="round"/><path d="M247.92228,211.36659c0,0 4.11294,-1.63687 6.5812,-2.23926c2.68414,-0.65508 8.93034,-1.54641 8.93034,-1.54641" fill="none" stroke="#000000" stroke-width="1" stroke-linecap="round"/><path d="M264.3102,208.59043c0,1.09364 -1.13926,1.09364 -1.13926,1.09364h-0.17527c-4.84964,-0.01261 -9.08287,1.33069 -13.51099,3.03445c0,0 -1.05778,0.40617 -1.48089,-0.60926c-0.15063,-0.3615 -0.11357,-0.64578 -0.00337,-0.86202c-0.15494,0.07074 -1.02843,0.41948 -1.51938,-0.45581c-0.46633,-0.83138 0.2177,-1.33146 0.41329,-1.45257c-0.09247,-0.08673 -0.17874,-0.19912 -0.25392,-0.34347c-0.50949,-0.97818 0.50949,-1.46727 0.50949,-1.46727l0.17528,-0.08412c4.39674,-2.10319 9.20945,-4.34227 14.26806,-3.98205c0,0 1.1359,0.08388 1.04853,1.1743c-0.04211,0.52539 -0.32761,0.77815 -0.6122,0.89903c0.23354,-0.01885 0.46802,-0.03692 0.70346,-0.05431l0.26265,-0.00323c0,0 1.13926,0 1.13926,1.09364c0,0.57789 -0.31809,0.85042 -0.61812,0.97894c0.33523,0.09281 0.7934,0.34656 0.7934,1.04009z" fill="none" stroke="#000000" stroke-width="1" stroke-linecap="butt"/></g><g stroke="#000000" stroke-linecap="round"><path d="M249.43561,195.10035c0,0 4.15576,1.2804 8.17029,0.39746c1.63942,-0.36056 2.48998,-3.60027 2.48998,-3.60027c0,0 3.32125,2.1334 3.1301,3.16104c-0.45849,2.46476 -3.93745,9.77112 -5.40863,9.80639c-1.97012,0.04723 -6.8356,-6.4056 -6.8356,-6.4056z" fill="#0066cd" stroke-width="0"/><path d="M263.22598,195.0586c-0.45848,2.46477 -3.93745,9.77112 -5.40863,9.80639c-1.97012,0.04723 -6.8356,-6.4056 -6.8356,-6.4056c0,0 4.45996,2.49289 5.86616,3.00253c1.84072,0.66712 3.71579,-8.47169 3.91177,-9.11044c0.9586,0.68376 2.60236,1.9756 2.4663,2.70713z" fill="#061382" stroke-width="0"/><path d="M249.43561,195.10034c0,0 4.15576,1.28039 8.17029,0.39746c1.63942,-0.36056 2.48998,-3.60027 2.48998,-3.60027c0,0 3.32125,2.13341 3.1301,3.16104c-0.45848,2.46477 -3.93745,9.77112 -5.40863,9.80639c-1.97012,0.04723 -6.8356,-6.4056 -6.8356,-6.4056" fill="none" stroke-width="1"/></g></g><g stroke="#000000"><g stroke-linecap="butt"><path d="M260.65848,175.38856l0.4389,-2.30099c0,0 9.00646,-1.43777 11.10592,-0.53362c1.47384,0.63474 1.73559,4.88928 -0.83965,5.58188c-3.42948,0.92232 -10.70513,-2.74728 -10.70513,-2.74728z" fill="#0066cd" stroke-width="0"/><path d="M260.65849,175.38856l0.15577,-0.81664c0,0 2.06016,0.06228 4.11054,0.31025c1.58475,0.19165 2.97662,0.54958 4.578,0.72893c1.90459,0.2133 3.73029,0.27505 3.71243,0.35863c-0.21178,0.99173 -0.79116,1.88093 -1.85162,2.16614c-3.42948,0.92233 -10.70514,-2.74728 -10.70514,-2.74728z" fill="#061483" stroke-width="0"/><path d="M260.65849,175.38856l0.4389,-2.30099c0,0 9.00646,-1.43776 11.10592,-0.53361c1.47385,0.63473 1.73559,4.88928 -0.83965,5.58188c-3.42948,0.92233 -10.70514,-2.74728 -10.70514,-2.74728z" fill="none" stroke-width="1"/></g><g stroke-linecap="round"><path d="M221.5985,182.35222c0,0 -10.88987,-23.74547 11.81502,-25.8435c23.28025,-2.15119 21.39103,18.75862 21.39103,18.75862c0,0 5.54512,-5.58513 6.50932,-5.13783c0.81385,0.37756 0.09358,5.46067 -0.50432,7.44035c-0.44181,1.46284 -0.93283,4.57313 -2.28479,4.90521c-0.85095,0.20901 -4.72823,-2.21527 -4.72823,-2.21527c0,0 -6.95129,4.97351 -13.58177,7.07145c-6.54748,2.07168 -16.24733,2.09419 -16.24733,2.09419c0,0 -7.21319,-0.02296 -7.65989,-2.45401c-0.38063,-2.07146 5.29095,-4.61923 5.29095,-4.61923z" fill="#fde0be" stroke-width="0"/><path d="M249.92317,182.7538c-0.03214,0.01917 -1.50585,-1.94582 -1.50585,-1.94582l-2.90762,2.89128l-5.60426,-6.68388l-6.35627,5.0203l-1.64865,-6.38836c0,0 -11.08988,4.69365 -11.10019,4.66422c-2.03253,-5.80133 -6.00772,-22.08221 12.61316,-23.80284c23.28025,-2.15119 21.39103,18.75862 21.39103,18.75862c0,0 5.65088,3.64406 5.60718,3.81128c-0.384,1.47013 -0.91129,3.15682 -1.88699,3.39647c-0.85095,0.20901 -4.72823,-2.21527 -4.72823,-2.21527c0,0 -1.54517,1.10552 -3.87334,2.494z" fill="#fc988a" stroke-width="0"/><path d="M255.35514,176.69747l2.90757,-1.73116l-0.62398,5.07002z" fill="#f79587" stroke-width="0.5"/><path d="M233.4135,156.50872c23.28025,-2.15119 21.39103,18.75862 21.39103,18.75862c0,0 5.54512,-5.58513 6.50932,-5.13783c0.81385,0.37756 0.09358,5.46067 -0.50432,7.44035c-0.44181,1.46284 -0.93283,4.57313 -2.28479,4.90521c-0.85095,0.20901 -4.72823,-2.21527 -4.72823,-2.21527c0,0 -6.95129,4.97351 -13.58177,7.07145c-6.54748,2.07168 -16.24733,2.09419 -16.24733,2.09419c0,0 -7.21319,-0.02296 -7.65989,-2.45401c-0.38063,-2.07146 5.29095,-4.61923 5.29095,-4.61923c0,0 -10.88986,-23.74546 11.81503,-25.84349z" fill="none" stroke-width="1"/></g><g stroke-linecap="round"><path d="M260.14852,167.42587c0,0 -1.49074,3.60327 -2.44357,5.11228c-0.82279,1.30308 -2.94078,3.415 -2.94078,3.415c0,0 -11.28885,-3.86224 -18.81028,-3.91303c-7.68262,-0.05189 -17.39653,1.83498 -17.39653,1.83498c0,0 -5.56711,-17.36503 -2.27441,-20.42111c2.39759,-2.22529 9.71479,-4.8905 17.09732,-5.11862c3.36475,-0.10398 12.993,-0.30031 16.42333,2.40868c4.59757,3.63077 10.34492,16.68181 10.34492,16.68181z" fill="#ff292e" stroke-width="0"/><path d="M260.14852,167.42587c0,0 -1.49074,3.60328 -2.44357,5.11228c-0.82279,1.30308 -2.94077,3.415 -2.94077,3.415c0,0 -5.46689,-1.87038 -11.32666,-3.02507c-0.15338,-0.03022 0.83907,-14.27864 3.16556,-20.11025c0.7704,-1.93108 2.34719,-2.74771 3.20054,-2.07379c4.59757,3.63078 10.34492,16.68182 10.34492,16.68182z" fill="#ac0e49" stroke-width="0.5"/><path d="M257.70495,172.53818c-0.82279,1.30308 -2.94077,3.415 -2.94077,3.415c0,0 -11.28885,-3.86224 -18.81029,-3.91302c-7.68262,-0.05189 -17.39652,1.83498 -17.39652,1.83498c0,0 -5.56711,-17.36504 -2.27441,-20.42111c2.3976,-2.22529 9.71479,-4.8905 17.09732,-5.11862c3.36475,-0.10398 12.99299,-0.30032 16.42331,2.40868c4.59757,3.63078 10.34492,16.68182 10.34492,16.68182c0,0 -1.49074,3.60327 -2.44357,5.11227z" fill="none" stroke-width="1"/></g><g stroke-linecap="round"><path d="M219.99029,179.42949c0,0 -3.71408,1.38916 -5.38285,2.25526c-1.69433,0.87937 -4.70761,2.98181 -4.70761,2.98181c0,0 1.14065,-4.02442 1.9994,-5.87787c0.81555,-1.76018 3.03018,-4.97749 3.03018,-4.97749l-9.39261,1.78075c0,0 7.24635,-13.64437 10.62904,-15.60595c2.01747,-1.16992 10.52411,2.88998 10.52411,2.88998c0,0 0.93801,-2.8159 1.66119,-4.16259c0.65854,-1.22631 2.50214,-3.59021 2.50214,-3.59021c0,0 2.24233,5.9049 3.62837,8.72748c1.44394,2.94046 4.8687,8.57614 4.8687,8.57614l15.11555,3.13185l-0.53496,6.80668l-6.41347,-5.45172l-2.15829,3.761l-6.00881,-8.24781l-4.41892,4.66351l-1.72749,-4.90529c0,0 -10.61382,3.90352 -12.91465,5.40193c-0.6272,0.40846 -0.299,1.84252 -0.299,1.84252z" fill="#4fa6ec" stroke-width="0"/><path d="M221.98175,169.89014l-12.0819,14.77644c0,0 1.14065,-4.02442 1.99939,-5.87787c0.81554,-1.76018 3.03018,-4.97749 3.03018,-4.97749l-9.3926,1.78074c0,0 7.24634,-13.64437 10.62904,-15.60595c2.01746,-1.16992 10.52412,2.88998 10.52412,2.88998c0,0 0.938,-2.8159 1.66118,-4.16259c0.65854,-1.22631 2.50214,-3.5902 2.50214,-3.5902l-1.06753,12.06333c0,0 -9.48434,-3.30025 -11.62987,-2.71935c-3.36733,0.91169 -7.33344,8.43128 -7.33344,8.43128z" fill="#66ffff" stroke-width="0"/><path d="M244.70997,175.12587l-0.20365,4.37806l-3.64085,-4.99749z" fill="#66ffff" stroke-width="0"/><path d="M209.89984,184.66658c0,0 1.14065,-4.02442 1.99939,-5.87787c0.81554,-1.76018 3.03018,-4.97749 3.03018,-4.97749l-9.3926,1.78074c0,0 7.24634,-13.64437 10.62904,-15.60595c2.01746,-1.16992 10.52412,2.88998 10.52412,2.88998c0,0 0.938,-2.8159 1.66118,-4.16259c0.65854,-1.22631 2.50214,-3.5902 2.50214,-3.5902c0,0 2.24232,5.90489 3.62836,8.72747c1.44393,2.94046 4.8687,8.57614 4.8687,8.57614l15.11555,3.13185l-0.53496,6.80668l-6.41347,-5.45171l-2.1583,3.761l-6.00882,-8.24781l-4.41893,4.66351l-1.72749,-4.90529c0,0 -10.61382,3.90352 -12.91465,5.40193c-0.6272,0.40846 -0.299,1.84252 -0.299,1.84252c0,0 -3.71406,1.38915 -5.38284,2.25526c-1.66878,0.86612 -4.70761,2.98178 -4.70761,2.98178z" fill="none" stroke-width="1"/></g></g><path d="M176.16667,243.83333v-127.66667h127.66667v127.66667z" fill="none" stroke="none" stroke-width="NaN" stroke-linecap="butt"/><g stroke-linecap="butt"><path d="M231.6165,179.04851l-0.0945,-0.59609c-1.4371,-0.69634 -2.73881,-1.69807 -4.12071,-2.45043c-2.94586,-1.44283 -6.26364,-3.64134 -6.41815,-6.09405c0,0 -0.01744,-0.55725 0.53981,-0.57469c0.55725,-0.01744 0.57469,0.53981 0.57469,0.53981c-0.00488,0.20424 0.03858,0.38794 0.1163,0.55643c0.10943,0.06707 0.17383,0.15149 0.17383,0.15149c0.25284,0.33214 0.55349,0.65051 0.89168,0.95526c0.19621,0.15239 0.38863,0.30272 0.55175,0.46061c2.26515,1.75989 5.71144,3.0224 8.05633,3.81545c1.00486,0.34137 2.99322,0.51029 3.62137,1.46047c0.5576,0.84345 0.31067,1.37948 -0.22511,1.66555c-0.07961,1.63975 -0.48334,4.13386 -1.54013,4.86428c-1.70512,1.17852 -4.83565,0.67973 -6.24971,-0.6327c-0.57865,-0.65586 -1.02478,-1.22761 -1.55372,-1.92454l-0.23195,-0.55358c-0.03526,-0.05961 -0.0624,-0.13345 -0.07674,-0.22483c-0.0246,-0.15677 0.00243,-0.27592 0.05368,-0.36616c0.05053,-0.09065 0.13834,-0.17557 0.28511,-0.23592c0.08341,-0.0343 0.15887,-0.04955 0.22677,-0.05103c0.36098,-0.05665 0.72196,-0.11328 1.08295,-0.16993l0.25566,-0.10302c0.14992,-0.09322 0.29088,-0.09161 0.40542,-0.05688c0.11435,0.02121 0.23648,0.08169 0.32613,0.22432c1.77423,1.9156 4.47168,3.29914 3.34926,-0.65982z" fill="#000000" stroke="none" stroke-width="0.5"/><path d="M244.69038,164.25921c0,0 0.16191,-0.27806 0.45097,-0.2887c0.26794,-0.36534 0.53607,-0.71934 0.80264,-1.06013c0.61504,-0.92016 1.34813,-1.5837 2.16885,-2.31232l0.15421,-0.08975c0.36829,-0.53853 0.79088,-1.02539 1.39525,-1.36784c0,0 0.49062,-0.26482 0.75543,0.22582c0.26482,0.49061 -0.22582,0.75543 -0.22582,0.75543c-0.33637,0.16831 -0.60941,0.42784 -0.84778,0.732c0.01382,0.32256 -0.30379,0.49399 -0.30379,0.49399l-0.05231,0.02352c-0.31026,0.50107 -0.57812,1.04548 -0.89669,1.48205c-1.28522,1.76122 -2.75989,2.9401 -3.99024,4.6318c-1.62974,2.59495 -3.07986,5.46234 -3.85834,8.10478c-0.37388,1.09698 -0.97299,2.15402 -0.69211,3.36761c0.1331,0.57504 1.13658,2.48169 1.96323,1.41225c0.28779,-0.37232 0.01569,-1.92478 0.01547,-2.5673c-0.03109,-0.16285 0.02245,-0.29227 0.09213,-0.38613c0.05605,-0.09561 0.14722,-0.19038 0.29466,-0.22985l0.30192,-0.16077c0.7056,-0.47034 1.1152,-1.0891 1.78559,-1.55534c0.07059,-0.07631 0.17438,-0.13755 0.32691,-0.15487c0.10244,-0.01969 0.22937,-0.01857 0.3508,0.05164c0.12538,0.06288 0.19607,0.16831 0.23589,0.26472c0.06468,0.12774 0.07413,0.24105 0.05486,0.33759l0.00094,0.02995c0.05617,1.79475 -0.44533,4.79572 -1.75503,6.17604c-2.09761,2.2108 -5.01228,0.10294 -5.96996,-1.97016c-1.19087,-4.60302 1.98659,-8.31824 4.78013,-11.73658c0.87781,-1.36735 1.79466,-2.71297 2.66219,-4.20949z" fill="#000000" stroke="none" stroke-width="0.5"/><path d="M239.86596,185.95451c1.37569,1.63251 1.74013,3.58857 0.814,4.36902c-0.92612,0.78045 -2.79212,0.0897 -4.16782,-1.5428c-1.37569,-1.63251 -1.74013,-3.58856 -0.81399,-4.36901c0.92612,-0.78045 2.79212,-0.08971 4.16782,1.54279z" fill="#ff6666" stroke="#000000" stroke-width="1"/></g><g><path d="M203.78945,190.05992c0.88403,-1.52591 2.83767,-2.04626 4.36358,-1.16223c1.52591,0.88403 2.04625,2.83765 1.16221,4.36357c-0.88403,1.52591 -2.83765,2.04625 -4.36355,1.16222c-1.52591,-0.88403 -2.04626,-2.83767 -1.16224,-4.36357z" fill="#3f5479" stroke="#000000" stroke-width="1" stroke-linecap="butt"/><path d="M225.22394,184.75886c3.52801,3.0036 1.81306,12.8655 -2.67588,15.3487c-1.72773,0.95574 -3.81315,0.55367 -5.22249,-0.64293c-0.1281,-0.10875 -0.6084,-1.48406 -0.67904,-1.46471c-0.39921,0.10935 -1.05994,1.15512 -2.14347,1.24891c-1.46362,0.12667 -3.3715,-0.71456 -3.3715,-0.71456c0,0 -3.06415,1.0519 -3.75564,0.15468c-3.58886,-4.65649 -1.52074,-9.84062 1.38018,-12.01286c0.75732,-0.56711 3.66682,-0.44749 5.26048,-0.96832c1.45867,-0.47672 0.85318,-1.25809 1.88081,-1.22098c0.23303,0.00843 1.0203,0.02324 1.67948,0.34166c0.72881,0.35205 1.36575,1.0085 2.35717,0.95992c2.06607,-0.10119 3.36681,-2.66678 5.28991,-1.02953z" fill="#fde0be" stroke="#000000" stroke-width="0" stroke-linecap="butt"/><path d="M212.90484,199.41621c4.42921,-4.81428 13.97678,0.08781 10.21496,4.7651c-1.91802,2.3848 -3.73851,0.58783 -5.89685,0.07522c-0.16521,-0.03924 -0.33896,-0.03684 -0.52114,-0.00982c-0.87142,0.69558 -2.11454,0.82588 -3.13746,0.23325c-0.18784,-0.10883 -0.3582,-0.2362 -0.51016,-0.37849c-0.81941,-0.76728 -1.10291,-1.96788 -0.6974,-3.02715c-0.10624,-0.63835 0.26456,-1.13411 0.55003,-1.62684z" fill="#f89688" stroke="#000000" stroke-width="1" stroke-linecap="butt"/><path d="M222.54807,200.10755c-1.72773,0.95574 -3.81315,0.55367 -5.22248,-0.64292c-0.1281,-0.10875 -0.6084,-1.48406 -0.67904,-1.46471c-0.39921,0.10935 -1.05994,1.15512 -2.14347,1.24891c-1.46363,0.12666 -3.3715,-0.71456 -3.3715,-0.71456c0,0 -3.06415,1.0519 -3.75564,0.15468c-0.64551,-0.83754 -1.10801,-1.69217 -1.41558,-2.54327c1.59887,-0.94142 2.89188,-1.52909 3.8883,-3.249c0.33107,-0.57146 1.42783,-1.97246 1.6478,-2.57184c0.61127,-0.00814 0.51145,-0.00212 1.14622,-0.06546c-0.09032,0.21104 -0.16053,0.42929 -0.20888,0.65468c-0.07028,0.32757 -0.10032,0.68133 -0.09376,1.04463c-0.59017,1.29042 -0.11383,2.84258 1.13922,3.56852c0.17609,0.10202 0.35871,0.18261 0.54484,0.2426c0.68207,0.44539 1.53009,0.43713 2.46587,-0.38047c0.12209,-0.0865 0.23796,-0.18342 0.34611,-0.29037c0.21794,0.5842 0.63224,1.0992 1.21389,1.43618c0.11119,0.06442 0.225,0.12031 0.34064,0.16784c0.67598,0.27789 1.41488,0.2708 2.06487,0.01915c1.65407,-0.21171 3.84599,-0.80675 5.77535,-1.57966c-0.7796,2.17554 -2.04702,4.06021 -3.68276,4.96508z" fill="#f89688" stroke="#000000" stroke-width="0" stroke-linecap="butt"/><path d="M211.6919,189.51284l0.84442,1.77786c0,0 -1.07366,2.14815 -1.23327,3.24439c-0.17899,1.2293 -0.05234,3.62558 -0.05234,3.62558" fill="none" stroke="#000000" stroke-width="1" stroke-linecap="round"/><path d="M217.99872,190.35501l0.66899,1.67623c0,0 -1.11299,1.68596 -1.48987,2.83524c-0.3869,1.17982 -0.68677,3.7528 -0.68677,3.7528" fill="none" stroke="#000000" stroke-width="1" stroke-linecap="round"/><path d="M225.22394,184.75886c3.52801,3.0036 1.81307,12.86549 -2.67588,15.34871c-1.72773,0.95574 -3.81315,0.55367 -5.22248,-0.64292c-0.1281,-0.10875 -0.6084,-1.48406 -0.67904,-1.46471c-0.39921,0.10935 -1.05994,1.15512 -2.14347,1.24891c-1.46363,0.12666 -3.3715,-0.71456 -3.3715,-0.71456c0,0 -3.06415,1.0519 -3.75564,0.15468c-3.58886,-4.65649 -1.52074,-9.84062 1.38018,-12.01286c0.75733,-0.5671 3.66682,-0.44749 5.26048,-0.96832c1.45867,-0.47672 0.85318,-1.25809 1.88081,-1.22098c0.24284,0.00878 0.88719,-0.05131 1.58827,0.2803c0.71543,0.33838 1.49476,1.06802 2.44838,1.0213c2.06607,-0.10119 3.36681,-2.66678 5.28991,-1.02953z" fill="none" stroke="#000000" stroke-width="1" stroke-linecap="butt"/><path d="M222.11643,193.0042c1.73998,-3.00338 4.561,-4.26951 6.81351,-2.96452c2.25252,1.305 2.66803,4.7976 0.92805,7.80099c-1.73998,3.00338 -4.34866,4.50965 -6.6012,3.20465c-2.25252,-1.305 -2.88034,-5.03777 -1.14035,-8.04114z" fill="#93c0c3" stroke="none" stroke-width="0" stroke-linecap="butt"/><path d="M223.2568,201.04534c-2.17412,-1.25956 -2.83468,-4.78082 -1.31349,-7.72498c2.61339,1.54488 5.18225,3.16603 7.79289,4.72579c-1.73836,2.86591 -4.27882,4.27407 -6.4794,2.99918z" fill="#475f86" stroke="none" stroke-width="0" stroke-linecap="butt"/><path d="M223.38291,191.30515c0.68113,0.50441 1.86431,0.78079 2.32699,1.02786c1.02756,0.54868 3.1461,2.01535 5.15655,2.63776c-0.09655,0.68883 -0.29809,1.39527 -0.6083,2.08846c-2.59201,-1.54947 -5.14316,-3.15874 -7.73812,-4.69319c0.26971,-0.39105 0.55893,-0.74547 0.8629,-1.06089z" fill="#475f86" stroke="none" stroke-width="0" stroke-linecap="butt"/><path d="M222.11643,193.0042c1.73998,-3.00338 4.561,-4.26951 6.81351,-2.96452c2.25252,1.305 2.66803,4.7976 0.92805,7.80099c-1.73998,3.00338 -4.34866,4.50965 -6.6012,3.20465c-2.25252,-1.305 -2.88034,-5.03777 -1.14035,-8.04114z" fill="none" stroke="#000000" stroke-width="1" stroke-linecap="butt"/><path d="M225.30674,193.5638c2.4416,-4.21441 7.66646,-6.10202 11.59023,-3.82882c3.92377,2.27321 4.43753,6.89972 1.99595,11.11414c-2.4416,4.21441 -7.60173,5.78807 -11.52549,3.51487c-3.92375,-2.27321 -4.50227,-6.58575 -2.06068,-10.80017z" fill="#3f5479" stroke="#000000" stroke-width="0" stroke-linecap="butt"/><path d="M238.8929,200.84914c-2.4416,4.21441 -7.60173,5.78807 -11.52549,3.51487c-3.33075,-1.92965 -4.251,-5.3288 -2.95962,-8.89002c0.12101,0.16263 0.26047,0.32152 0.41962,0.47585c3.41163,3.30862 10.62045,6.09688 15.01515,2.83717c-0.23822,0.69035 -0.55542,1.38162 -0.94967,2.06212z" fill="#323344" stroke="#000000" stroke-width="0" stroke-linecap="butt"/><path d="M235.37424,190.49295c0.23153,-0.39963 0.7432,-0.53592 1.14283,-0.30439c0.39965,0.23153 0.53592,0.7432 0.30439,1.14283c-0.23153,0.39963 -0.7432,0.53592 -1.14283,0.30439c-0.39965,-0.23153 -0.53592,-0.7432 -0.30439,-1.14283z" fill="#95c2c5" stroke="none" stroke-width="0.5" stroke-linecap="butt"/><path d="M225.30674,193.5638c2.4416,-4.21441 7.66646,-6.10202 11.59023,-3.82882c3.92377,2.27321 4.43753,6.89972 1.99595,11.11414c-2.4416,4.21441 -7.60173,5.78807 -11.52549,3.51487c-3.92375,-2.27321 -4.50227,-6.58575 -2.06068,-10.80017z" fill="none" stroke="#000000" stroke-width="1" stroke-linecap="butt"/><path d="M237.19683,202.45729c0,0 -2.33552,1.63009 -6.85087,-0.73918c-2.48866,-1.30581 -5.37284,-3.18535 -5.37284,-3.18535" fill="none" stroke="#000000" stroke-width="1" stroke-linecap="round"/><path d="M238.86071,200.58622c0,0 -2.53525,-0.63835 -4.15318,-1.31332c-2.56534,-1.07022 -9.75363,-4.48835 -9.75363,-4.48835" fill="none" stroke="#000000" stroke-width="1" stroke-linecap="round"/><path d="M225.73914,192.98431c0,0 4.22706,-0.71781 8.06573,1.11588c3.26753,1.56089 5.80549,4.85848 5.80549,4.85848" fill="none" stroke="#000000" stroke-width="1" stroke-linecap="round"/><path d="M228.05847,190.20431c0,0 3.69377,-0.55284 6.63537,1.04736c2.95601,1.60804 5.62589,4.70304 5.62589,4.70304" fill="none" stroke="#000000" stroke-width="1" stroke-linecap="round"/><path d="M226.1501,202.95176c0,0 -1.33525,-4.03228 0.08304,-7.87009c0.82,-2.21887 4.09837,-5.68674 4.09837,-5.68674" fill="none" stroke="#000000" stroke-width="1" stroke-linecap="round"/><path d="M228.18886,204.32618c0,0 -0.72137,-5.33526 0.87403,-8.70951c1.2447,-2.63251 5.634,-6.52776 5.634,-6.52776" fill="none" stroke="#000000" stroke-width="1" stroke-linecap="round"/><path d="M231.17251,204.95941c0,0 -1.5129,-1.90417 2.4518,-9.29438c1.27613,-2.3787 4.3277,-5.07688 4.3277,-5.07688" fill="none" stroke="#000000" stroke-width="1" stroke-linecap="round"/><path d="M234.39776,204.50834l5.58465,-9.97327" fill="none" stroke="#000000" stroke-width="1" stroke-linecap="round"/></g></g></g></svg>