<svg version="1.1" xmlns="http://www.w3.org/2000/svg" xmlns:xlink="http://www.w3.org/1999/xlink" width="210" height="221" viewBox="0,0,210,221"><g transform="translate(-140,-90)"><g data-paper-data="{&quot;isPaintingLayer&quot;:true}" fill-rule="nonzero" stroke-linejoin="miter" stroke-miterlimit="10" stroke-dasharray="" stroke-dashoffset="0" style="mix-blend-mode: normal"><path d="M140,311v-221h210v221z" fill="none" stroke="none" stroke-width="0" stroke-linecap="butt"/><g data-paper-data="{&quot;index&quot;:null}" stroke="#000000" stroke-linecap="round"><path d="M263.55187,195.74705c0,0 15.97962,-4.81274 17.32038,1.68157c3.63912,17.62687 -25.93531,17.48003 -25.93531,17.48003z" data-paper-data="{&quot;origPos&quot;:null}" fill="#66c8ff" stroke-width="2"/><path d="M263.10371,197.37566c0,0 11.72057,-2.90924 12.78444,-1.13511c0.33553,0.55955 -15.26808,5.60638 -15.26808,5.60638z" data-paper-data="{&quot;origPos&quot;:null}" fill="#0a0a0a" stroke-width="1"/></g><g><path d="M269.29278,240.3765c0,0 2.13738,15.64123 -0.09431,16.09688c-6.69511,1.367 -24.55161,1.90747 -39.72706,3.09374c-1.70476,0.13326 -2.68158,-14.79632 -2.68158,-14.79632l-0.68923,-30.67257c0,0 0.24068,-13.59562 1.80339,-13.71778c10.10872,-0.7902 25.15687,-2.90009 31.90723,-1.77892c2.25012,0.37373 5.41472,14.58195 5.41472,14.58195z" data-paper-data="{&quot;origPos&quot;:null}" fill="#66c8ff" stroke="#000000" stroke-width="3.5" stroke-linecap="round"/><path d="M235.12741,223.42701c-1.32023,0.1032 -1.52405,-2.37634 -1.52405,-2.37634c-0.42269,-5.14277 -0.98125,-11.93855 -1.40395,-17.08131c0,0 -0.20379,-2.47955 1.11644,-2.58275c1.32023,-0.1032 1.52403,2.37634 1.52403,2.37634c0.42269,5.14277 0.84539,10.28552 1.26809,15.42829l0.13586,1.65303c0,0 0.2038,2.47955 -1.11643,2.58275z" fill="#ffffff" stroke="none" stroke-width="0.5" stroke-linecap="butt"/><path d="M247.91178,228.7813c-1.32023,0.1032 -1.57628,-3.01181 -1.57628,-3.01181c-0.53102,-6.46076 -1.23272,-14.99819 -1.76375,-21.45895c0,0 -0.25602,-3.11501 1.06421,-3.21821c1.32023,-0.1032 1.57627,3.01181 1.57627,3.01181c0.53102,6.46076 1.06204,12.92152 1.59306,19.38228l0.17069,2.07667c0,0 0.25603,3.11501 -1.06421,3.21821z" fill="#ffffff" stroke="none" stroke-width="0.5" stroke-linecap="butt"/></g><g fill="none" stroke="#b9b9b9" stroke-width="3"><path d="M258.06883,204.19004c-0.94263,-1.29774 -0.09454,-2.57745 1.07029,-3.87697c1.16485,-1.2995 2.39412,-1.75525 3.14799,-0.829c1.59839,1.96393 0.14391,3.0399 -0.76821,4.05745c-1.16485,1.29952 -2.11883,2.48128 -3.45006,0.64853z" stroke-linecap="butt"/><path d="M256.56274,206.22495l2.47115,-2.69217" stroke-linecap="round"/><path d="M252.97936,207.09753c1.16485,-1.2995 2.39412,-1.75525 3.14798,-0.829c1.59839,1.96393 0.14391,3.0399 -0.76821,4.05745c-1.16485,1.29951 -2.11882,2.48128 -3.45006,0.64853c-0.94263,-1.29774 -0.09455,-2.57745 1.07029,-3.87698z" stroke-linecap="butt"/><path d="M252.87412,210.31724l-2.47115,2.69219" stroke-linecap="round"/><path d="M244.61962,212.94622c0.29415,-1.65883 1.67386,-1.59692 3.26102,-1.24407c1.58717,0.35285 2.6469,1.26044 2.48663,2.52184c-0.3398,2.67451 -1.95432,1.91435 -3.19712,1.63806c-1.58717,-0.35284 -2.96597,-0.57312 -2.55053,-2.91582z" stroke-linecap="butt"/><path d="M242.32916,212.69733l3.32363,0.78635" stroke-linecap="round"/><path d="M236.94496,209.07775c0.82032,-1.37521 2.07779,-0.67105 3.43134,0.3959c1.35357,1.06695 2.03537,2.39239 1.47035,3.46788c-1.19804,2.28035 -2.4424,0.82896 -3.5023,-0.00649c-1.35356,-1.06696 -2.55787,-1.91516 -1.39939,-3.85729z" stroke-linecap="butt"/><path d="M237.7244,210.05306l-2.81875,-2.27756" stroke-linecap="round"/><path d="M229.85856,203.41654c0.82033,-1.37519 2.07779,-0.67105 3.43134,0.3959c1.35357,1.06695 2.03537,2.39239 1.47035,3.46788c-1.19804,2.28034 -2.4424,0.82896 -3.50229,-0.00649c-1.35356,-1.06695 -2.55788,-1.91515 -1.3994,-3.85729z" stroke-linecap="butt"/><path d="M227.81926,202.11429l2.81877,2.27755" stroke-linecap="round"/></g><g><g data-paper-data="{&quot;index&quot;:null}"><g stroke="#000000" stroke-width="3" stroke-linecap="round"><path d="M282.78364,234.27185c0,0 3.63815,10.13846 3.48468,14.74368c-15.62808,7.34096 -25.6551,5.33299 -25.6551,5.33299c-2.0146,0.52114 -2.73874,-6.71945 -2.73874,-6.71945c0,0 -1.88873,-14.08956 -3.09764,-23.10758c-0.79381,-5.9216 -2.03404,-15.17338 -2.03404,-15.17338c0,0 -0.52119,-5.90267 0.58973,-6.10038c6.68344,-1.18944 12.91166,-3.62545 16.41012,-3.05612c1.16615,0.18978 3.13129,5.57381 3.13129,5.57381l9.90967,28.50641z" data-paper-data="{&quot;origPos&quot;:null}" fill="#582700"/><path d="M283.85801,239.9336l-25.69071,5.55551l-0.74081,-3.32442l25.67444,-5.81366z" data-paper-data="{&quot;origPos&quot;:null}" fill="none"/></g><path d="M257.10965,241.76311l-4.08876,-36.65128l1.12799,-0.93572l15.79993,-3.55087l12.32067,35.43474z" fill="#66c8ff" stroke="#000000" stroke-width="1" stroke-linecap="round"/><path d="M258.0328,245.06203l-0.52032,-2.2752l25.52159,-5.55096l0.52032,2.2752z" fill="#ffffff" stroke="none" stroke-width="0" stroke-linecap="butt"/></g><g fill="#fffc96" stroke="#000000" stroke-width="2" stroke-linecap="round"><path d="M280.58994,229.77129c0,0 4.4904,0.19679 4.61771,3.13842c0.20367,4.7065 -33.45535,1.16275 -33.97099,-3.72976c-0.21069,-1.99896 3.01991,-2.37043 3.01991,-2.37043l0.42201,1.82584c0,0 6.16589,2.01807 13.99831,3.01514c7.72391,0.98325 12.89751,0.26807 12.89751,0.26807z"/><path d="M277.78511,221.59943c0,0 2.92421,-2.52373 4.03721,-0.47086c2.33635,4.30926 -26.27982,25.56294 -27.49241,21.08199c-0.73436,-2.71377 2.56518,-4.03477 2.56518,-4.03477l0.35085,1.33375c0,0 4.87937,-2.391 11.2647,-7.30771c6.38534,-4.9167 9.7592,-9.38577 9.7592,-9.38577z" data-paper-data="{&quot;index&quot;:null}"/></g></g><path d="M281.0492,253.91771c0,0 4.47343,-1.02642 6.76529,-0.26656c1.75452,0.58168 2.4255,2.38846 2.94778,4.12242c1.43354,4.7595 0.15151,9.61376 0.43218,17.32516c0.07644,2.10025 -3.04739,3.39358 -5.20141,3.33199c-2.01464,-0.05762 -5.5131,-0.27815 -5.5131,-0.27815l-33.90378,-1.70473c0,0 -4.38204,-0.36046 -5.22879,-2.06162c-2.03913,-4.09672 -0.72246,-8.62555 -1.15099,-13.16021c-0.14523,-1.53674 4.76797,-1.83404 4.76797,-1.83404c0,0 9.12434,-1.38422 14.96441,-2.27018c8.24255,-1.25044 21.12048,-3.20407 21.12048,-3.20407z" data-paper-data="{&quot;index&quot;:null}" fill="#4b4b4b" stroke="#000000" stroke-width="3" stroke-linecap="round"/><path d="M241.54538,265.47173c0,0 2.09014,3.99136 1.88072,6.34323c-0.16029,1.80045 -1.79917,2.86727 -3.40106,3.77589c-4.39697,2.49399 -9.53669,2.43889 -17.14827,4.54589c-2.07307,0.57384 -4.10675,-2.07569 -4.55972,-4.1303c-0.42364,-1.92166 -1.03936,-5.28744 -1.03936,-5.28744l-6.39747,-32.51463c0,0 -0.68734,-4.23595 0.80441,-5.44402c3.59242,-2.90924 8.41636,-2.74364 12.82942,-4.23217c1.49553,-0.50445 2.96465,4.07747 2.96465,4.07747c0,0 3.55687,8.31044 5.83346,13.62958c3.21313,7.50731 8.23321,19.23654 8.23321,19.23654z" data-paper-data="{&quot;index&quot;:null}" fill="#4b4b4b" stroke="#000000" stroke-width="3" stroke-linecap="round"/><path d="M224.26857,200.02193c0,0 -2.15095,-4.06568 -2.32373,-5.13808c-0.51837,-3.21721 -1.83618,-17.34762 -2.98365,-30.12253c-0.17749,-1.97597 1.19713,-5.20427 1.19713,-5.20427c0,0 2.10395,-1.81391 3.39217,-1.93088c14.21276,-1.29052 27.63866,-3.60766 33.0498,-2.51644c1.80372,0.36374 5.17486,1.81976 5.17486,1.81976c0,0 1.11929,4.3166 1.3576,5.43176c0.07943,0.37172 0.12518,0.58085 0.18177,0.95652c1.69538,11.25617 2.4157,24.38778 2.44674,28.99268c0.01034,1.53498 -1.63115,4.07432 -1.63115,4.07432c0,0 -1.17307,2.83783 -5.59497,4.0277c-4.83834,1.30192 -16.83867,1.9531 -29.21572,2.58743z" fill="#582700" stroke="#000000" stroke-width="2.5" stroke-linecap="round"/><g data-paper-data="{&quot;index&quot;:null}"><g data-paper-data="{&quot;origRot&quot;:0}" stroke="#000000" stroke-width="3" stroke-linecap="round"><path d="M272.06756,246.23367c0.33722,2.43066 -9.33747,2.05794 -9.33747,2.05794c0,0 -25.62375,-0.32688 -37.72678,-0.43401c-5.07486,-0.73604 -11.61719,-39.23956 -7.89566,-43.93792c1.65893,-2.09436 11.96982,-5.51053 13.77051,-4.31792c3.42748,2.27001 11.02982,17.62721 11.02982,17.62721l-4.53755,0.74204l12.07219,-0.89308c0,0 13.94944,-2.1736 20.04944,-1.57912c3.38313,0.3297 2.5755,30.73489 2.5755,30.73489z" data-paper-data="{&quot;origPos&quot;:null}" fill="#582700"/><path d="M258.42579,216.75796l2.71462,29.93834" fill="none"/><path d="M256.75758,247.28711l-3.0295,-29.9165" data-paper-data="{&quot;origPos&quot;:null}" fill="none"/></g><path d="M261.00081,247.33065l-3.09012,0.23191l-2.98876,-30.60858l3.09013,-0.23191z" fill="#ffffff" stroke="none" stroke-width="0" stroke-linecap="butt"/><path d="M224.69983,248.03649l-4.7124,-10.25771l-3.53968,-23.78497l0.87448,-8.44088l3.5411,-3.9824l8.1943,-1.03764l1.63885,-0.20752l10.07563,15.88932l-3.238,0.66245l0.31774,1.9792l14.59573,-1.09096l3.98632,30.03914l-30.13492,-0.22292z" fill="#66c8ff" stroke="#000000" stroke-width="0.5" stroke-linecap="round"/></g><path d="M264.20585,157.32185l-0.77659,-0.45818c-0.0941,-0.0226 -0.18811,-0.0447 -0.28205,-0.06633c-0.19776,0.32962 -0.60467,0.72897 -1.37755,0.55135c-0.71236,-0.16371 -0.9221,-0.63061 -0.97098,-1.0011c-2.74428,-0.42413 -5.46025,-0.50757 -8.304,-0.50997c-7.93914,0.25795 -15.84139,1.11607 -23.75179,1.81468c-2.59425,0.22911 -8.30637,1.75977 -10.62901,0.2711c-1.13274,-0.72601 -0.8979,-2.68504 -1.09787,-3.72481c-0.57943,-3.01302 -1.24866,-6.12641 -1.54411,-9.18052c-0.35879,-3.99443 -2.22096,-7.42549 -3.09993,-11.29677c-0.44065,-1.9408 -1.30549,-3.85468 0.33912,-5.71043c0.46436,-0.52398 1.38321,-0.32317 2.08621,-0.42116c2.56925,-0.35811 5.0833,-0.40581 7.66387,-0.3342c8.17779,0.2269 16.22569,0.04085 24.39299,0.75596c3.29502,0.29229 6.56898,0.07322 9.87184,-0.10802c1.94116,-0.10651 3.65689,-0.8005 5.01362,1.2548c0.81021,1.22738 0.66801,5.26027 0.74931,6.74117c0.31349,5.71029 1.87858,12.61703 1.18158,18.45021c0.1232,0.02797 0.24652,0.05669 0.36998,0.08617l1.38917,0.68934c0,0 1.12626,0.59675 0.51436,1.69511c-0.61191,1.09836 -1.73817,0.50162 -1.73817,0.50162z" data-paper-data="{&quot;index&quot;:null}" fill="#000000" stroke="none" stroke-width="0.5" stroke-linecap="butt"/><path d="M239.2195,172.10464c0.72099,1.0335 -0.33875,1.73662 -0.33875,1.73662l-0.70613,0.44732c-1.12444,1.04918 -1.75547,1.54041 -2.62536,1.81676l0.10295,0.20394l-1.25499,0.60255c-0.1441,0.0733 -0.30499,0.12092 -0.47689,0.1361c-0.70502,0.06226 -1.32828,-0.44462 -1.39212,-1.13217c-0.0369,-0.39743 0.12119,-0.76823 0.39736,-1.02242l0.93869,-0.87894l0.02392,0.0243l0.03463,-0.07583c0.82636,-0.60426 1.65889,-1.20067 2.50045,-1.78466c0,0 0.35064,-0.2433 0.79015,-0.2498l0.22539,-0.15414c0,0 1.05975,-0.70313 1.78073,0.33036z" fill="#582700" stroke="none" stroke-width="0.5" stroke-linecap="butt"/><text transform="translate(223.49013,188.05658) rotate(-6.4419) scale(0.38486,0.38486)" font-size="40" xml:space="preserve" fill="#000000" fill-rule="nonzero" stroke="none" stroke-width="1" stroke-linecap="butt" stroke-linejoin="miter" stroke-miterlimit="10" stroke-dasharray="" stroke-dashoffset="0" font-family="Sans Serif" font-weight="normal" text-anchor="start" style="mix-blend-mode: normal"><tspan x="0" dy="0">( ͡° ͜ʖ ͡°)</tspan></text></g></g></svg>