<svg version="1.1" xmlns="http://www.w3.org/2000/svg" xmlns:xlink="http://www.w3.org/1999/xlink" width="127.79288" height="257.12184" viewBox="0,0,127.79288,257.12184"><g transform="translate(-341.76051,-129.02884)"><g data-paper-data="{&quot;isPaintingLayer&quot;:true}" fill-rule="nonzero" stroke-linejoin="miter" stroke-miterlimit="10" stroke-dasharray="" stroke-dashoffset="0" style="mix-blend-mode: normal"><g data-paper-data="{&quot;index&quot;:null}"><g><g><g data-paper-data="{&quot;origRot&quot;:0}" stroke="#000000" stroke-width="3" stroke-linecap="round"><path d="M344.7963,274.28919c0,0 20.79093,-38.35994 24.89135,-36.60017c7.39337,3.17303 21.77732,14.82618 21.77732,14.82618l13.15381,8.85529l-4.65391,-3.83416c0,0 19.65231,-14.23679 25.18906,-14.86346c2.90883,-0.32925 12.24865,10.53647 12.64819,14.20723c0.89627,8.23467 -34.07478,51.95905 -40.39808,49.61982c-13.90329,-7.63022 -43.41003,-23.65988 -43.41003,-23.65988c0,0 -11.31881,-5.74202 -9.19774,-8.55085z" data-paper-data="{&quot;origPos&quot;:null}" fill="#582700"/><path d="M356.94937,281.87425l24.48143,-35.51956" fill="none"/><path d="M386.36014,250.13055l-24.82558,35.29037" data-paper-data="{&quot;origPos&quot;:null}" fill="none"/></g><path d="M381.92911,246.57538l3.36463,2.27083l-25.27327,36.17789l-3.36463,-2.27083z" fill="#ffffff" stroke="none" stroke-width="0" stroke-linecap="butt"/><path d="M396.12098,305.32531l-34.58615,-19.05275l26.00627,-34.82925l15.89545,10.72029l1.77644,-2.25946l-3.2261,-2.90152l22.85786,-13.31256l1.72409,1.30955l8.62036,6.5477l1.20145,7.22791l-5.02895,11.06635l-21.02966,27.33189l-12.70905,9.74383z" fill="#66c8ff" stroke="#000000" stroke-width="0.5" stroke-linecap="round"/></g><g fill="#fffc96" stroke="#000000" stroke-width="2" stroke-linecap="round"><path d="M392.38968,253.85293c0,0 0.74713,8.34777 5.16781,19.83293c4.4828,11.64656 9.9991,20.2272 9.9991,20.2272l3.09746,-0.21722c0,0 0.58759,5.17686 -2.71128,5.80364c-8.07405,1.53404 -26.14416,-48.86891 -18.48445,-50.79711c4.78745,-1.20515 6.75341,5.65059 6.75341,5.65059z"/><path d="M408.27264,254.62838c0,0 -5.96351,7.35173 -11.54256,19.57758c-5.57913,12.22584 -7.6408,20.91704 -7.6408,20.91704l2.27828,-0.09276c0,0 -0.9174,5.73618 -5.5605,5.89319c-7.6667,0.25928 16.07803,-54.15916 23.88064,-52.59741c3.71704,0.744 0.72358,6.47259 0.72358,6.47259z" data-paper-data="{&quot;index&quot;:null}"/></g></g><g stroke="#000000" stroke-linecap="round"><path d="M445.45466,223.24836c0,0 23.67257,-0.93309 23.08808,8.50778c-1.58636,25.62444 -42.0244,14.8571 -42.0244,14.8571z" data-paper-data="{&quot;origPos&quot;:null}" fill="#66c8ff" stroke-width="2"/><path d="M444.23417,225.33569c0,0 17.13174,0.17222 17.92722,3.0005c0.25088,0.89203 -22.9941,2.28248 -22.9941,2.28248z" data-paper-data="{&quot;origPos&quot;:null}" fill="#0a0a0a" stroke-width="1"/></g><g data-paper-data="{&quot;origRot&quot;:0}" stroke="#000000" stroke-linecap="round"><path d="M397.22162,372.08336c0,0 -0.7785,6.35287 -2.93113,8.97654c-1.6479,2.00855 -4.43921,1.99902 -7.05875,1.83078c-7.19031,-0.46181 -13.18738,-4.52072 -23.84276,-7.93883c-2.90206,-0.93091 -3.1449,-5.65022 -2.01186,-8.43638c1.05975,-2.60592 3.06434,-7.07195 3.06434,-7.07195l18.83671,-43.49288c0,0 2.62578,-5.5527 5.35864,-5.82481c6.58118,-0.65537 12.11744,3.28918 18.51164,4.95466c2.1669,0.56444 0.17967,7.13443 0.17967,7.13443z" data-paper-data="{&quot;origPos&quot;:null}" fill="#ff0000" stroke-width="3"/><path d="M363.84893,360.88288l32.1697,10.44646c0,0 0.45614,3.88969 -0.36282,6.1618c-0.77741,2.15684 -3.72778,5.18682 -3.72778,5.18682c0,0 -12.20254,-1.98927 -17.64341,-3.55543c-7.09151,-2.0413 -14.29752,-8.01958 -14.29752,-8.01958z" data-paper-data="{&quot;origPos&quot;:null}" fill="#976e57" stroke-width="2"/><path d="M396.97715,372.49035c0,0 -0.7785,6.35287 -2.93114,8.97654c-1.64789,2.00851 -4.43919,1.99902 -7.05873,1.83077c-7.19032,-0.46181 -13.18738,-4.52073 -23.84276,-7.93884c-2.90205,-0.93093 -3.1449,-5.65023 -2.01186,-8.43639c1.05975,-2.60591 3.06437,-7.07194 3.06437,-7.07194l18.8367,-43.49288c0,0 2.62577,-5.55269 5.35863,-5.8248c6.58119,-0.65538 12.11746,3.28916 18.51165,4.95465c2.16692,0.56442 0.17968,7.13442 0.17968,7.13442z" data-paper-data="{&quot;origPos&quot;:null}" fill="#4b4b4b" stroke-width="3"/></g><path d="M418.49734,372.89028c0,0 -1.75315,-18.06466 -2.87525,-29.62697c-0.79505,-8.19221 -2.03718,-20.99148 -2.03718,-20.99148c0,0 -1.29953,-6.73414 0.91439,-7.07978c6.53298,-1.01996 12.44749,-4.39265 18.9272,-3.08507c2.69072,0.54296 4.73041,6.32861 4.73041,6.32861l14.2551,45.1454c0,0 1.53378,4.64271 2.31936,7.34076c0.8399,2.88468 0.11169,7.55548 -2.8714,8.19252c-10.95296,2.33905 -17.33765,5.77969 -24.53857,5.52282c-2.62341,-0.09359 -5.40128,-0.36219 -6.83362,-2.52454c-1.871,-2.82459 -1.99045,-9.22231 -1.99045,-9.22231z" fill="#4b4b4b" stroke="#000000" stroke-width="3" stroke-linecap="round"/><g><path d="M441.64126,296.50805c0,0 -0.12623,22.52888 -3.34865,22.74582c-9.66726,0.65085 -34.83022,-2.00482 -56.36039,-3.23374c-2.41862,-0.13804 -0.80616,-21.43824 -0.80616,-21.43824l5.16152,-43.50855c0,0 3.05425,-19.18056 5.27134,-19.05401c14.34175,0.8186 35.87784,0.71699 45.12545,3.59539c3.08256,0.95945 4.68398,21.65858 4.68398,21.65858z" data-paper-data="{&quot;origPos&quot;:null}" fill="#66c8ff" stroke="#000000" stroke-width="3.5" stroke-linecap="round"/><path d="M413.35026,267.3996c-1.87311,-0.10691 -1.66361,-3.65248 -1.66361,-3.65248l0.13965,-2.3637c0.43446,-7.35373 0.86894,-14.70749 1.30341,-22.06124c0,0 0.20948,-3.54557 2.08257,-3.43866c1.87311,0.10691 1.66362,3.65248 1.66362,3.65248c-0.43448,7.35377 -1.00861,17.07121 -1.44307,24.42495c0,0 -0.20948,3.54557 -2.08258,3.43866z" fill="#ffffff" stroke="none" stroke-width="0.5" stroke-linecap="butt"/><path d="M396.34622,265.8332c-1.87308,-0.10691 -1.60992,-4.56114 -1.60992,-4.56114l0.17546,-2.96948c0.54581,-9.23842 1.09165,-18.47679 1.63746,-27.71517c0,0 0.26317,-4.4542 2.13627,-4.34729c1.87308,0.10691 1.60992,4.56114 1.60992,4.56114c-0.54582,9.23838 -1.26709,21.44624 -1.8129,30.68462c0,0 -0.26318,4.4542 -2.13628,4.34729z" fill="#ffffff" stroke="none" stroke-width="0.5" stroke-linecap="butt"/></g><path d="M387.38546,232.00766c0,0 -3.12648,-5.76382 -3.39224,-7.29157c-0.79733,-4.58318 -2.94106,-24.73134 -4.81694,-42.9475c-0.29016,-2.81759 1.59365,-7.45224 1.59365,-7.45224c0,0 2.94461,-2.62912 4.76702,-2.82032c20.10661,-2.10954 39.07851,-5.66989 46.76461,-4.21377c2.56203,0.48537 7.3657,2.50065 7.3657,2.50065c0,0 1.67013,6.14144 2.02949,7.72897c0.1198,0.52917 0.18871,0.82689 0.27623,1.36213c2.62218,16.03769 3.9,34.77109 4.03428,41.3446c0.04476,2.19118 -2.23057,5.84726 -2.23057,5.84726c0,0 -1.60595,4.07345 -7.84611,5.85522c-6.82783,1.94958 -23.81316,3.1048 -41.33236,4.24305z" fill="#582700" stroke="#000000" stroke-width="2.5" stroke-linecap="round"/><path d="M395.5954,214.44758c-0.73756,0.07339 -1.744,-3.83415 -2.24794,-8.7277c-0.50391,-4.89351 -0.31449,-8.92003 0.42308,-8.99339c0.73756,-0.07339 1.744,3.83414 2.24794,8.72769c0.50391,4.89352 0.31449,8.92005 -0.42309,8.99341z" fill="#000000" stroke="#000000" stroke-width="2.5" stroke-linecap="butt"/><path d="M403.95805,205.04434c0.51325,4.98417 0.48087,9.06924 -0.07232,9.12427c-0.5532,0.05501 -1.4177,-3.94081 -1.93096,-8.92499c-0.51326,-4.98415 -0.4809,-9.06925 0.07228,-9.12428c0.55316,-0.05504 1.41772,3.94082 1.93098,8.92501z" fill="#000000" stroke="#000000" stroke-width="2.5" stroke-linecap="butt"/><path d="M445.96329,170.46541c-0.84523,1.57952 -2.45222,0.74878 -2.45222,0.74878l-1.10902,-0.63949c-0.13373,-0.0305 -0.26733,-0.06029 -0.40081,-0.0894c-0.27364,0.47427 -0.84218,1.05204 -1.94043,0.81299c-1.01225,-0.22035 -1.31848,-0.88294 -1.39498,-1.41092c-3.89548,-0.55391 -7.74423,-0.62198 -11.77235,-0.57197c-11.24048,0.51749 -22.4169,1.8911 -33.60802,3.03714c-3.67018,0.37586 -11.7312,2.66841 -15.05034,0.58682c-1.61873,-1.01521 -1.3245,-3.81633 -1.62814,-5.29698c-0.87982,-4.29055 -1.88883,-8.72274 -2.3672,-13.07731c-0.58656,-5.69577 -3.29154,-10.55902 -4.61248,-16.06925c-0.66224,-2.76245 -1.92476,-5.4785 0.36839,-8.15872c0.64745,-0.75677 1.95292,-0.48738 2.94678,-0.64048c3.63225,-0.55954 7.19236,-0.67488 10.84904,-0.62117c11.58803,0.17022 22.98397,-0.24669 34.56672,0.6207c4.67299,0.35536 9.30616,-0.01896 13.981,-0.33978c2.74751,-0.18854 5.16418,-1.21154 7.12623,1.69714c1.17172,1.73702 1.04937,7.49715 1.19357,9.60975c0.55601,8.14625 2.90833,17.97702 2.03546,26.31771c0.17505,0.03761 0.35028,0.0763 0.52576,0.11607l1.98122,0.95801c0,0 1.60699,0.83078 0.76181,2.4103z" fill="#000000" stroke="none" stroke-width="0.5" stroke-linecap="butt"/><g fill="none" stroke="#b9b9b9" stroke-width="3"><path d="M389.39201,238.50255c-1.30836,-1.43867 -3.38595,-2.95242 -1.15337,-5.78085c1.05298,-1.33398 2.80158,-0.70224 4.47246,1.13508c1.67088,1.83734 2.89277,3.65128 1.57837,5.51853c-1.85625,2.63707 -3.22656,0.96459 -4.89746,-0.87276z" stroke-linecap="butt"/><path d="M392.9119,238.45182l3.54362,3.80548" stroke-linecap="round"/><path d="M401.54545,243.44784c1.67087,1.83736 2.89274,3.65129 1.57834,5.51855c-1.85625,2.63707 -3.22656,0.96457 -4.89745,-0.87276c-1.30836,-1.43867 -3.38595,-2.95242 -1.15337,-5.78086c1.05298,-1.33398 2.80158,-0.70223 4.47246,1.13508z" stroke-linecap="butt"/><path d="M401.74627,248.04291l3.54363,3.8055" stroke-linecap="round"/><path d="M413.48106,251.66914c0.6261,3.33819 -1.32344,3.67389 -3.56601,4.20207c-1.75599,0.41358 -4.03078,1.5237 -4.55508,-2.28938c-0.24728,-1.79838 1.23926,-3.11043 3.48183,-3.63863c2.24257,-0.5282 4.19596,-0.63782 4.63927,1.72591z" stroke-linecap="butt"/><path d="M412.02622,252.45236l4.69532,-1.17383" stroke-linecap="round"/><path d="M424.29016,246.02812c1.67221,2.75487 -0.0201,3.98436 -1.9203,5.52846c-1.48792,1.20907 -3.22723,3.30031 -4.96091,0.06318c-0.81765,-1.52672 0.12687,-3.42952 2.02705,-4.97361c1.90015,-1.54408 3.67007,-2.56876 4.85415,-0.61805z" stroke-linecap="butt"/><path d="M423.20171,247.43249l3.9562,-3.295" stroke-linecap="round"/><path d="M434.23718,237.8367c1.67221,2.75487 -0.0201,3.98438 -1.92028,5.52846c-1.48792,1.20907 -3.22725,3.30029 -4.96091,0.06318c-0.81765,-1.52672 0.12686,-3.42952 2.02705,-4.9736c1.90015,-1.54408 3.67006,-2.56874 4.85415,-0.61806z" stroke-linecap="butt"/><path d="M433.14873,239.24107l3.95621,-3.29498" stroke-linecap="round"/></g><path d="M397.79027,196.43199c-0.44976,-0.97531 0.5425,-1.41738 0.5425,-1.41738l0.79032,-0.33197c1.27828,-0.84941 2.65252,-1.43399 4.09685,-1.74944c0.10567,-0.0509 0.21185,-0.10146 0.31861,-0.15169c0.02826,-0.01457 0.05681,-0.02928 0.08558,-0.04416l0.04154,-0.02348l-0.05384,-0.12687l1.05325,-0.43192c0.10206,-0.0446 0.21289,-0.0744 0.32998,-0.0864c0.59843,-0.06131 1.13411,0.36586 1.19646,0.95407c0.04616,0.43556 -0.18015,0.83729 -0.54369,1.04136c-0.18468,0.20141 -0.40037,0.29752 -0.40037,0.29752c-0.22918,0.102 -0.4553,0.20451 -0.67893,0.30828c-0.93175,0.50512 -1.67441,1.18889 -2.49521,1.29215c-0.17296,0.10114 -0.34565,0.20498 -0.51839,0.31195l-0.85339,0.80501c-0.16956,0.16304 -0.39422,0.27306 -0.64847,0.29909c-0.3706,0.03797 -0.71715,-0.11141 -0.94209,-0.37036c-0.27855,0.08178 -0.96723,0.19085 -1.32073,-0.57574z" fill="#582700" stroke="none" stroke-width="0.5" stroke-linecap="butt"/><g><g data-paper-data="{&quot;index&quot;:null}"><path d="M374.62516,238.23021c3.17243,1.56299 10.89617,-0.83915 9.41938,2.05679c-0.98385,1.92925 -21.13694,25.49814 -23.93752,26.06123c-1.40319,0.28214 -3.28879,-0.0174 -4.34778,-0.53912c-1.55649,-0.76686 -2.43091,-2.20864 -2.68424,-3.93677c-0.26297,-1.79419 12.94539,-29.00042 13.69762,-30.47551c1.47679,-2.89591 4.68012,5.27038 7.85256,6.83338z" fill="#0091d4" stroke="#000000" stroke-width="1.5" stroke-linecap="butt"/><g stroke-linecap="butt"><path d="M379.48141,228.63636c5.74772,2.83177 8.86505,8.15136 6.96277,11.88163c-1.9023,3.73029 -8.10387,4.45867 -13.85161,1.62689c-5.74773,-2.83182 -8.86503,-8.1514 -6.96275,-11.88168c1.90228,-3.73028 8.10385,-4.45867 13.85158,-1.62688z" fill="#0091d4" stroke="#000000" stroke-width="1.5"/><path d="M380.30593,239.60379l5.72906,0.25047c0,0 -2.13547,1.91967 -3.27402,2.3303c-2.3996,0.82601 -4.81013,0.25711 -4.81013,0.25711z" fill="#00aeff" stroke="none" stroke-width="0"/><path d="M375.18706,238.40135l2.29108,0.63882c0,0 -0.52218,1.38072 -0.7871,1.82601c-0.31016,0.5214 -1.15226,1.29937 -1.15226,1.29937l-2.54644,-1.17104z" fill="#00aeff" stroke="none" stroke-width="0"/></g><g><path d="M375.12077,236.83298c-7.92906,-3.90649 -9.98591,-10.65961 -6.01149,-18.45324c3.97442,-7.79355 14.03044,-10.74447 21.95961,-6.83799c7.92911,3.90649 10.7297,12.1921 6.75528,19.98573c-3.97442,7.79354 -14.77417,9.21201 -22.70334,5.30552z" fill="#00699a" stroke="#000000" stroke-width="1.5" stroke-linecap="butt"/><path d="M393.2028,213.95485c0,0 8.70761,8.25121 5.23028,15.07c-1.97184,3.86676 -5.93087,6.9309 -9.81665,8.6869c-2.76842,1.25107 -6.13142,1.45675 -8.93416,0.0759c-5.76103,-2.83837 -6.52386,-6.36935 -3.04654,-13.18813c1.73654,-3.40521 5.89776,-6.58825 9.79219,-8.16877c3.90391,-1.58436 6.7749,-2.47588 6.7749,-2.47588z" fill="#0091d4" stroke="none" stroke-width="0" stroke-linecap="butt"/><path d="M397.33838,231.395c0,0 -6.64081,3.41887 -15.97596,-0.7783c-9.41161,-4.23155 -11.19288,-11.05768 -11.19288,-11.05768" fill="none" stroke="#000000" stroke-width="0.8" stroke-linecap="round"/><path d="M392.5271,236.77229c0,0 -6.89885,0.33711 -13.14964,-1.6639c-9.0082,-2.8837 -10.91025,-7.18766 -10.91025,-7.18766" fill="none" stroke="#000000" stroke-width="0.75" stroke-linecap="round"/><path d="M399.15724,224.73706c0,0 -6.48199,2.49506 -16.06701,-1.1889c-9.21908,-3.54328 -10.51409,-7.54894 -10.51409,-7.54894" fill="none" stroke="#000000" stroke-width="0.8" stroke-linecap="round"/><path d="M373.56267,214.25785c0,0 7.00403,-0.36232 12.03693,0.67847c6.62911,1.37083 12.65704,4.41791 12.65704,4.41791" fill="none" stroke="#000000" stroke-width="0.8" stroke-linecap="round"/><path d="M372.59692,234.31343c0,0 -0.99976,-5.90577 2.85076,-14.28459c3.59323,-7.81888 9.18793,-9.32233 9.18793,-9.32233" fill="none" stroke="#000000" stroke-width="0.8" stroke-linecap="round"/><path d="M387.74657,211.75496c0,0 -2.24757,3.76291 -4.02961,8.19621c-1.56713,3.89869 -2.62259,8.36856 -3.57058,10.52356c-1.12597,2.55955 -3.53419,6.5917 -3.53419,6.5917" fill="none" stroke="#000000" stroke-width="0.8" stroke-linecap="round"/><path d="M391.7241,212.843c0,0 1.0254,8.06382 -1.54932,13.48868c-4.04114,8.51453 -9.86131,12.36458 -9.86131,12.36458" fill="none" stroke="#000000" stroke-width="0.8" stroke-linecap="round"/><path d="M395.97555,215.71239c0,0 1.02263,5.85004 -0.78517,11.58655c-2.60333,8.26076 -6.68327,11.3666 -6.68327,11.3666" fill="none" stroke="#000000" stroke-width="0.8" stroke-linecap="round"/><path d="M396.23814,228.72226c-0.56536,-0.27853 -0.75864,-1.02417 -0.43165,-1.66536c0.32695,-0.64122 1.05037,-0.93518 1.61573,-0.65664c0.56539,0.27856 0.75865,1.02417 0.43167,1.66536c-0.32697,0.64123 -1.05039,0.9352 -1.61575,0.65666z" fill="#00aeff" stroke="none" stroke-width="0" stroke-linecap="butt"/><path d="M397.30669,223.8254c-0.32619,-0.16071 -0.45805,-0.5509 -0.29456,-0.87147c0.16349,-0.3206 0.56045,-0.45022 0.88662,-0.28954c0.3262,0.16071 0.45806,0.55088 0.29457,0.87146c-0.16349,0.32062 -0.56045,0.45022 -0.88662,0.28954z" fill="#00aeff" stroke="none" stroke-width="0" stroke-linecap="butt"/></g></g><path d="M377.26155,243.18616c1.36273,-0.10324 3.8443,1.77129 3.8443,1.77129l6.30142,4.21368c0,0 0.8189,1.72728 0.45168,2.73336c-1.10157,3.01821 -4.04195,8.36977 -6.7928,14.12147c-0.45727,0.95605 -1.94474,0.46978 -1.94474,0.46978c0,0 -2.17861,-1.12696 -3.57302,-1.8483c-2.12358,-1.09848 -5.44139,-2.81477 -5.44139,-2.81477c0,0 -1.79397,-0.66961 -0.91861,-2.40233c0,0 0.34627,-2.82358 8.07313,-16.2442z" fill="#582700" stroke="#000000" stroke-width="3" stroke-linecap="round"/><path d="M359.99929,236.43539c2.50175,-0.34643 6.87345,3.22072 6.87345,3.22072l11.14975,7.94602c0,0 1.34371,3.43376 0.58236,5.5182c-2.28406,6.2534 -8.1395,17.43989 -13.68399,29.42176c-0.92162,1.9916 -3.5989,1.15066 -3.5989,1.15066c0,0 -3.88425,-2.07591 -6.37037,-3.40459c-3.7861,-2.02346 -9.70146,-5.18485 -9.70146,-5.18485c0,0 -3.2216,-1.18343 -1.46597,-4.79767c0,0 0.88527,-5.78161 16.2151,-33.87023z" fill="#582700" stroke="#000000" stroke-width="3" stroke-linecap="round"/></g><g data-paper-data="{&quot;index&quot;:null}"><g data-paper-data="{&quot;index&quot;:null}" stroke="#000000"><path d="M374.87723,279.56626c-1.49296,-4.65197 9.41791,-42.39662 15.00452,-45.04468c5.28046,-2.50296 22.30071,-0.64881 26.61616,-0.05209c7.22233,0.99864 23.50517,1.3624 26.93768,6.21788c1.14417,1.61848 0.56903,16.89141 -3.90264,26.371c-4.47169,9.47959 -14.39178,24.59044 -21.48742,27.45378c-6.91865,2.79191 -41.00831,-8.21531 -43.16832,-14.94582z" data-paper-data="{&quot;origRot&quot;:0,&quot;origPos&quot;:null}" fill="#582700" stroke-width="3" stroke-linecap="butt"/><path d="M394.17731,240.05298l26.34835,7.44415" data-paper-data="{&quot;origPos&quot;:null}" fill="none" stroke-width="2" stroke-linecap="round"/><path d="M415.83244,288.50066l7.4938,-35.38992" data-paper-data="{&quot;origPos&quot;:null}" fill="none" stroke-width="2" stroke-linecap="round"/><path d="M391.80253,234.92216c0,0 36.00825,6.47307 37.7116,10.57582c1.94571,4.68647 -8.32081,45.66772 -8.32081,45.66772" data-paper-data="{&quot;origPos&quot;:null}" fill="none" stroke-width="1.5" stroke-linecap="round"/><path d="M396.8895,233.37559c0,0 34.29396,6.16489 35.91625,10.07234c1.85309,4.46332 -7.92467,43.49358 -7.92467,43.49358" data-paper-data="{&quot;origPos&quot;:null}" fill="none" stroke-width="1.5" stroke-linecap="round"/></g><path d="M416.94911,235.19585l26.09196,4.27899l-0.84138,20.80395l-16.56429,27.35653l1.30776,-8.49159l4.51587,-19.90449l1.46668,-15.64029l-16.12385,-6.5731z" fill="#66c8ff" stroke="#000000" stroke-width="0.5" stroke-linecap="round"/><path d="M423.82525,290.13899l-1.84208,-0.73258l8.78364,-45.55073l1.84208,0.73258z" fill="#ffffff" stroke="none" stroke-width="0" stroke-linecap="butt"/><path d="M432.04529,242.87911l-0.69208,1.89882l-36.53931,-10.134l0.69209,-1.89882z" fill="#ffffff" stroke="none" stroke-width="0" stroke-linecap="butt"/><path d="M427.05404,286.89681c1.41443,1.62905 -0.24295,3.0193 -0.24295,3.0193l-0.68642,0.57093c-0.52562,0.49622 -1.05129,0.99243 -1.57691,1.48865c0,0 -1.57146,1.48351 -3.08076,-0.06108c-1.5093,-1.5446 0.06214,-3.0281 0.06214,-3.0281c0.52562,-0.49622 1.05129,-0.99243 1.57691,-1.48865l0.87617,-0.73982c0,0 1.65739,-1.39026 3.0718,0.23879z" fill="#000000" stroke="none" stroke-width="0.5" stroke-linecap="butt"/><path d="M430.09446,242.97778c0.004,-0.01188 0.00831,-0.0239 0.01292,-0.03605c0.25397,-0.66881 0.9344,-0.41919 0.9344,-0.41919l0.84349,0.37892c0.8064,0.87644 0.93299,1.37507 0.62761,1.98192l0.13248,0.03993l-0.22679,0.72683c-0.06826,0.23612 -0.25574,0.41907 -0.49007,0.48813c-0.07089,0.17934 -0.2276,0.36149 -0.56693,0.40841c-0.7192,0.09945 -0.82037,-0.60748 -0.82037,-0.60748c-0.06912,-0.75063 -0.3426,-0.90319 -0.91372,-1.37387l-0.60451,-0.35824c-0.23572,-0.13315 -0.38536,-0.39153 -0.3625,-0.67562c0.02776,-0.34488 0.30045,-0.61305 0.63704,-0.6526l0.76594,-0.1059l0.02936,0.20508c0.00056,-0.0001 0.00108,-0.0002 0.00165,-0.00028z" fill="#ffffff" stroke="none" stroke-width="0.5" stroke-linecap="butt"/><path d="M393.67694,235.6771c0,0 -0.37501,0.61134 -0.997,0.24275c-0.62197,-0.36861 -0.24697,-0.97995 -0.24697,-0.97995c0.2865,-0.42584 0.66095,-0.78922 1.09153,-1.10171c-0.00504,-0.00554 -0.01005,-0.01119 -0.01506,-0.01696c-0.47147,-0.54301 0.08098,-1.00644 0.08098,-1.00644l0.32911,-0.2279c0.83798,-0.33147 3.06841,-1.02776 3.82187,-0.42577c0.06368,-0.01525 0.12682,-0.03018 0.18935,-0.04486l0.11178,0.06111l0.00492,-0.06128l0.72402,0.05628v0v0c0.39986,0.03109 0.69839,0.37492 0.66676,0.76795c-0.03164,0.39303 -0.38142,0.68645 -0.78129,0.65537l-0.63517,-0.04939c-1.31036,0.33247 -3.72732,0.91768 -4.34484,2.13081z" fill="#000000" stroke="none" stroke-width="0.5" stroke-linecap="butt"/></g><g stroke="#000000" stroke-width="1.25" stroke-linecap="butt"><g data-paper-data="{&quot;index&quot;:null}" fill="#000000"><path d="M425.70276,225.54994c-18.05167,1.54246 -12.64072,-6.5469 -12.64072,-6.5469l24.08758,-1.97427c0,0 7.75532,6.70188 -11.44684,8.52117z"/></g><g data-paper-data="{&quot;index&quot;:null}" fill="#ffffff"><path d="M425.70282,225.54996c-3.6925,0.31552 -6.40328,0.22801 -8.37948,-0.11081c-0.03542,-0.00607 1.16681,-1.68101 1.05273,-3.18239c-0.13929,-1.8331 -1.59477,-3.55855 -1.58916,-3.559c4.06673,-0.33333 20.36271,-1.66898 20.36271,-1.66898c0,0 7.75532,6.70188 -11.44684,8.52117z"/></g></g></g></g></g></svg>