<svg version="1.1" xmlns="http://www.w3.org/2000/svg" xmlns:xlink="http://www.w3.org/1999/xlink" width="127.66667" height="127.66667" viewBox="0,0,127.66667,127.66667"><g transform="translate(-176.16668,-116.16666)"><g data-paper-data="{&quot;isPaintingLayer&quot;:true}" fill-rule="nonzero" stroke-linejoin="miter" stroke-miterlimit="10" stroke-dasharray="" stroke-dashoffset="0" style="mix-blend-mode: normal"><path d="M176.16668,243.83333v-127.66667h127.66667v127.66667z" fill="none" stroke="none" stroke-width="NaN" stroke-linecap="butt"/><g><path d="M199.71035,195.43906c-0.00228,0.00088 -0.00349,0.0013 -0.00349,0.0013l-0.57353,0.0062c-1.15494,-0.71779 -1.19552,-2.07609 -0.903,-3.33496c1.2023,-1.9911 3.84667,-7.56243 7.04061,-5.37292c1.50998,1.03513 2.07869,2.95708 3.05847,4.40811c2.25209,6.26649 -4.68349,5.08757 -8.61905,4.29227z" fill="#323344" stroke="#000000" stroke-width="1" stroke-linecap="butt"/><path d="M225.42252,182.04407c0.02696,-1.2973 0.40162,-4.51576 1.39657,-5.48195c2.83788,-2.75586 5.22056,0.40199 6.32607,2.70386c0.78939,2.23337 0.86825,6.1634 -0.4605,9.45239c-0.91617,2.26774 -2.82766,4.12004 -4.01926,5.24799c-0.40642,0.38471 -1.96626,0.72873 -5.00458,-1.65994c-2.84108,-2.23361 -5.4515,-6.11801 -4.60375,-7.19663c0.72952,-0.92821 6.3492,-2.15527 6.3492,-2.15527z" fill="#dc94e7" stroke="#000000" stroke-width="1" stroke-linecap="butt"/><path d="M223.25546,187.44424c0.06532,0.01988 0.10502,0.03893 0.10502,0.03893l0.89216,0.50773c0.55761,0.66883 0.78253,1.37083 1.03474,2.04218c0.31044,0.82633 0.56375,1.64093 0.33555,2.71044c-2.00074,6.36798 -11.75097,11.60258 -14.79295,2.95932c-1.25098,-3.61173 1.72271,-5.908 5.22792,-7.21416c2.38824,-0.88994 4.98719,-1.4227 6.80585,-1.19776c0,0 0.20312,0.02557 0.39169,0.15332z" fill="#f89688" stroke="#000000" stroke-width="1" stroke-linecap="butt"/><path d="M204.66105,188.7811c-0.70887,-0.08715 -0.7011,-0.83674 -0.7011,-0.83674c0.02218,-2.00479 1.78874,-6.76175 4.30788,-6.49534c2.58349,0.27322 2.08132,2.94411 3.86862,3.96765c0.84204,0.48221 2.60096,-0.11952 3.54592,-0.10938c0.70634,0.86605 0.94599,0.97639 1.27546,1.99053c0.58167,1.79047 -0.41244,3.35096 -2.33847,3.58029c-3.08496,0.36733 -5.82237,-2.18506 -8.91359,-1.91705l-0.31803,0.04716c0,0 -0.44274,0.06285 -0.72667,-0.22712z" fill="#fcdfbd" stroke="none" stroke-width="0.5" stroke-linecap="butt"/><path d="M215.68237,185.3073c0.70634,0.86605 0.94599,0.97639 1.27546,1.99054c0.58166,1.79047 -0.41244,3.35096 -2.33847,3.58029c-2.38253,0.28369 -4.55776,-1.1741 -6.84878,-1.72922c0.68017,-0.36321 1.30516,-0.69323 1.80238,-0.86749c0.54295,-0.19029 1.04896,-0.10496 1.55095,0.04505c0.6246,0.43167 1.41731,0.60368 2.19558,0.42853c0.31945,-0.05051 0.65289,-0.17791 1.00659,-0.42213c0.0995,-0.06871 0.19437,-0.15528 0.28352,-0.25661c0.73618,-0.6853 1.06678,-1.74108 0.79546,-2.75776c0.09833,-0.00795 0.1912,-0.01211 0.27733,-0.01118z" fill="#f89688" stroke="none" stroke-width="0.5" stroke-linecap="butt"/><path d="M204.66105,188.7811c-0.70887,-0.08715 -0.7011,-0.83674 -0.7011,-0.83674c0.02218,-2.00479 1.78874,-6.76175 4.30787,-6.49534c2.58348,0.27322 2.08132,2.9441 3.86862,3.96764c0.84203,0.48221 2.60095,-0.11952 3.54592,-0.10937c0.70634,0.86605 0.94599,0.97639 1.27546,1.99054c0.58166,1.79047 -0.41244,3.35096 -2.33847,3.58029c-3.08495,0.36733 -5.82237,-2.18506 -8.91359,-1.91705l-0.31804,0.04714c0,0 -0.44274,0.06285 -0.72667,-0.22711z" fill="none" stroke="#000000" stroke-width="1" stroke-linecap="butt"/><path d="M204.71069,186.46992c0.18509,0.5259 -0.34081,0.71099 -0.34081,0.71099l-0.08091,0.02847c-3.26125,1.14779 -4.97336,4.24277 -4.16924,7.67038c0,0 0.03974,0.17148 -0.02179,0.34407l0.14775,0.23704c0,0 -0.23385,0.48785 -0.72139,0.27206c-0.07163,0.01426 -0.14327,0.02852 -0.2149,0.04278c0,0 -0.30935,0.06159 -0.50899,-0.14056c-0.33076,-0.02857 -0.4539,-0.37844 -0.4539,-0.37844l-0.04738,-0.14756c-1.07369,-4.93989 0.67127,-7.75558 5.28701,-9.38008c0,0 0.5259,-0.18509 0.71099,0.34081c0.00426,0.0121 0.00815,0.02403 0.01167,0.03577c0.14892,0.02492 0.31392,0.11425 0.40191,0.36426z" fill="#455d83" stroke="none" stroke-width="0.5" stroke-linecap="butt"/><path d="M199.98789,194.16822c-0.54458,-0.10617 -1.1091,-0.08683 -1.61275,0.07203c-0.07978,-0.01724 -0.1614,-0.02756 -0.24398,-0.03049c-0.25149,-1.6296 -0.16062,-3.00856 0.27479,-4.17631c0.59987,0.43856 1.19003,0.8986 1.77788,1.35128c-0.25558,0.86411 -0.32877,1.80509 -0.19594,2.7835z" fill="#85afb1" stroke="none" stroke-width="0.5" stroke-linecap="butt"/><path d="M199.78422,187.92062c0.50907,0.47005 1.14263,0.89561 1.67106,1.16307c-0.33159,0.37634 -0.61352,0.78883 -0.84168,1.23061c-0.56714,-0.43462 -1.13496,-0.87265 -1.71233,-1.29262c0.24473,-0.39489 0.53901,-0.7612 0.88296,-1.10107z" fill="#85afb1" stroke="none" stroke-width="0.5" stroke-linecap="butt"/><path d="M204.71069,186.46993c0.18509,0.5259 -0.34081,0.71099 -0.34081,0.71099l-0.08091,0.02847c-3.26125,1.14779 -4.97336,4.24277 -4.16924,7.67039c0,0 0.03974,0.17148 -0.02179,0.34407l0.14774,0.23706c0,0 -0.23384,0.48785 -0.72139,0.27206c-0.07163,0.01426 -0.14327,0.02852 -0.2149,0.04278c0,0 -0.30935,0.06158 -0.50899,-0.14056c-0.33077,-0.02856 -0.45391,-0.37844 -0.45391,-0.37844l-0.04738,-0.14756c-1.07369,-4.93989 0.67126,-7.75558 5.28701,-9.38008c0,0 0.5259,-0.18509 0.71099,0.34081c0.00426,0.01209 0.00815,0.02403 0.01167,0.03578c0.14892,0.02492 0.31392,0.11425 0.40191,0.36426z" fill="none" stroke="#000000" stroke-width="1" stroke-linecap="butt"/><path d="M216.2952,192.89299c0,0 2.9886,-0.99374 4.04188,0.52826c0.8451,1.22117 0.00331,2.6576 -0.3041,3.91566c-0.72761,2.97766 -1.66852,7.89709 -5.75224,6.63663c-0.88828,-0.36647 -1.61029,-0.81835 -2.41562,-1.33606l-0.10261,-0.0479c-0.85079,0.85894 -1.84162,1.2555 -2.63922,0.89267c-0.84441,-0.38412 -1.84482,-1.45014 -2.69952,-2.13902c-1.31999,0.70501 -2.7604,1.47162 -4.18029,0.99154c-1.36553,-0.4617 -1.4673,-1.56523 -1.87895,-2.73485c-1.15304,-3.27616 -0.06871,-6.65481 2.41433,-9.04241c1.15743,-1.37745 2.19197,-3.27561 3.96876,-4.01721c1.2496,-0.52155 2.2904,-0.04562 3.11305,0.65937c0.94915,0.81341 1.57781,1.99456 1.41063,3.3248c1.23841,-0.21168 2.61155,0.06384 3.68186,0.63671c1.04807,0.56097 0.86389,1.05184 1.342,1.73181z" fill="#fde0be" stroke="none" stroke-width="0.5" stroke-linecap="butt"/><path d="M220.33709,193.42125c0.84511,1.22119 0.00332,2.6576 -0.3041,3.91565c-0.72762,2.97766 -1.66852,7.8971 -5.75224,6.63664c-0.88828,-0.36647 -1.61029,-0.81835 -2.41561,-1.33607l-0.10261,-0.0479c-0.85079,0.85894 -1.84162,1.2555 -2.63922,0.89267c-0.84441,-0.38412 -1.84481,-1.45015 -2.69952,-2.13903c-1.31999,0.70501 -2.76039,1.47162 -4.18028,0.99153c-1.36554,-0.46171 -1.4673,-1.56523 -1.87895,-2.73485c-0.38574,-1.096 -0.52108,-2.20347 -0.43741,-3.28147c0.12663,0.15182 0.22881,0.31011 0.27915,0.49236l0.00817,0.00441c0.29785,1.11229 0.94884,1.85252 1.76108,2.20253c0.65689,0.33636 1.44526,0.4128 2.19635,0.14846c0.27177,-0.09565 0.5194,-0.22914 0.73905,-0.39246c0.25127,-0.13632 0.49935,-0.3021 0.7405,-0.49766c1.04877,-0.85049 2.3806,-2.39925 3.52228,-4.18316c-0.01498,0.95068 0.0227,1.87775 0.09022,2.62064c-0.02587,0.36863 0.02158,0.74848 0.15207,1.11924c0.07773,0.22086 0.18045,0.42577 0.30387,0.61269c0.52778,1.49959 1.8776,1.607 3.03985,1.15658c0.07065,-0.01881 0.14111,-0.04052 0.21125,-0.0652c0.57855,-0.20362 1.04771,-0.57874 1.37049,-1.0482c0.111,-0.13891 0.20022,-0.28068 0.26261,-0.42114c0.07035,-0.1584 0.14198,-0.33314 0.214,-0.52131c0.23582,0.04649 -0.14406,2.33227 0.09587,2.31845c0.70994,-0.04086 2.03406,-2.63138 2.58739,-3.34512c0.44335,-0.57187 0.65877,-1.12418 0.70364,-1.63827c0.1318,-0.51543 0.11776,-1.07417 -0.07212,-1.61367c-0.08589,-0.24406 -0.20231,-0.46865 -0.34344,-0.671c0.9075,-0.08008 1.99447,0.02536 2.54765,0.8247z" fill="#f89688" stroke="none" stroke-width="0.5" stroke-linecap="butt"/><path d="M216.2952,192.89299c0,0 2.9886,-0.99374 4.04188,0.52826c0.84511,1.22119 0.00332,2.6576 -0.3041,3.91565c-0.72762,2.97766 -1.66852,7.8971 -5.75224,6.63664c-0.88828,-0.36647 -1.61029,-0.81835 -2.41561,-1.33607l-0.10261,-0.0479c-0.85079,0.85894 -1.84162,1.2555 -2.63922,0.89267c-0.84441,-0.38412 -1.84481,-1.45015 -2.69952,-2.13903c-1.31999,0.70501 -2.76039,1.47162 -4.18028,0.99153c-1.36554,-0.46171 -1.4673,-1.56523 -1.87895,-2.73485c-1.15304,-3.27616 -0.06872,-6.65481 2.41431,-9.0424c1.15743,-1.37745 2.19197,-3.27561 3.96877,-4.01721c1.2496,-0.52155 2.2904,-0.04562 3.11303,0.65938c0.94915,0.81341 1.57781,1.99456 1.41063,3.3248c1.23842,-0.21169 2.61155,0.06384 3.68186,0.63672c1.04808,0.56097 0.86389,1.05184 1.342,1.73181z" fill="none" stroke="#000000" stroke-width="1" stroke-linecap="butt"/><path d="M211.61388,190.75473l-3.84331,4.97771" fill="none" stroke="#000000" stroke-width="1" stroke-linecap="round"/><path d="M213.94151,197.81611l2.15651,-4.62047" fill="none" stroke="#000000" stroke-width="1" stroke-linecap="round"/><path d="M189.66091,190.08446c-1.58051,-4.49076 0.26026,-9.59376 4.75103,-11.17428c2.39911,-0.84436 4.16261,-0.28423 6.10231,0.81786c0.6535,0.3713 1.73419,1.16005 2.51482,2.12184c1.23948,1.5271 1.46843,3.39802 1.4513,3.70486c-0.01365,0.24434 -3.30207,-0.39908 -5.30157,2.74886c-2.0395,3.21094 -1.20387,7.44762 -1.20387,7.44762c0,0 -2.20144,0.3453 -3.95636,-0.40711c-1.95554,-0.83843 -3.52467,-2.89288 -4.35766,-5.25967z" fill="#465e85" stroke="#000000" stroke-width="0" stroke-linecap="butt"/><path d="M189.66091,190.08446c-0.19846,-0.56388 -0.34296,-1.1374 -0.43507,-1.7124c0.07135,0.06233 0.14867,0.11701 0.23054,0.1634l0.01101,0.01855l0.04115,0.00956c0.21061,0.10783 0.44827,0.16221 0.6907,0.1525l0.23906,-0.00398l0.13787,-0.03692l0.1464,0.03732l0.08808,0.00041l0.0821,0.03186l0.10007,0.01259l0.01184,0.01024l0.03986,-0.00374l0.03853,0.00485l0.31797,-0.03825l0.31886,-0.02988l0.03664,-0.01289l0.03975,-0.00478l0.0094,-0.01252l0.02755,-0.0097l0.03496,0.01356l0.10007,0.01259l0.01184,0.01024l0.03986,-0.00374l0.03853,0.00485l0.31797,-0.03825l0.31886,-0.02988l0.03664,-0.01289l0.03975,-0.00478l0.0094,-0.01252l6.78757,-2.38887l0.03706,-0.00446l0.31886,-0.02988l0.03664,-0.01289l0.03975,-0.00478l0.0094,-0.01252l0.20551,-0.07233l0.02585,0.00601l0.5424,-0.00903l0.17016,-0.04557l0.30257,-0.03641l0.31886,-0.02988l0.03664,-0.01289l0.03975,-0.00478l0.0094,-0.01252l0.44823,-0.15775l0.02585,0.00601l0.17215,-0.00286l0.19208,0.02417l0.01184,0.01024l0.03986,-0.00374l0.03853,0.00485l0.266,-0.03199c-1.11645,0.22107 -2.58808,0.81084 -3.67726,2.52563c-2.0395,3.21094 -1.20387,7.44762 -1.20387,7.44762c0,0 -2.20144,0.3453 -3.95636,-0.40711c-1.95554,-0.83843 -3.52467,-2.89288 -4.35766,-5.25967z" fill="#323344" stroke="#000000" stroke-width="0" stroke-linecap="butt"/><path d="M192.57934,184.04242l0.00874,0.0147l-0.02458,-0.00375z" fill="#323344" stroke="#000000" stroke-width="0" stroke-linecap="butt"/><path d="M189.66091,190.08446c-1.58052,-4.49077 0.26027,-9.59377 4.75103,-11.17428c2.39911,-0.84436 4.1626,-0.28423 6.1023,0.81786c0.6535,0.3713 1.73418,1.16005 2.51482,2.12184c1.23947,1.52709 1.46844,3.39802 1.45131,3.70486c-0.01365,0.24434 -3.30206,-0.39908 -5.30156,2.74887c-2.0395,3.21094 -1.20387,7.44762 -1.20387,7.44762c0,0 -2.20145,0.34532 -3.95637,-0.40711c-1.95554,-0.83843 -3.52467,-2.89288 -4.35766,-5.25966z" fill="none" stroke="#000000" stroke-width="1" stroke-linecap="butt"/><path d="M196.16492,195.38802c0,0 -1.80777,-5.62114 0.40633,-8.56159c2.3411,-3.10912 7.41105,-2.55527 7.41105,-2.55527" fill="none" stroke="#000000" stroke-width="1" stroke-linecap="round"/><path d="M192.15073,193.80013c0,0 -0.49555,-5.56332 1.25226,-9.23856c1.5868,-3.33666 6.84809,-4.433 6.84809,-4.433" fill="none" stroke="#000000" stroke-width="1" stroke-linecap="round"/><path d="M189.49526,189.09707c0,0 1.3762,-4.63784 2.45678,-6.47631c0.97496,-1.65879 3.74246,-4.07104 3.74246,-4.07104" fill="none" stroke="#000000" stroke-width="1" stroke-linecap="round"/><path d="M197.21357,193.20036c0,0 -2.6428,0.31809 -3.77594,0.05819c-1.10837,-0.25422 -2.95024,-1.60091 -2.95024,-1.60091" fill="none" stroke="#000000" stroke-width="1" stroke-linecap="round"/><path d="M197.84275,191.88778c0,0 -3.27573,-0.43491 -4.75642,-0.9327c-1.3197,-0.44366 -3.70045,-1.91043 -3.70045,-1.91043" fill="none" stroke="#000000" stroke-width="1" stroke-linecap="round"/><path d="M198.08232,189.98485c0,0 -3.37949,-0.79426 -4.72899,-1.71858c-1.47486,-1.01016 -3.77757,-4.10775 -3.77757,-4.10775" fill="none" stroke="#000000" stroke-width="1" stroke-linecap="round"/><path d="M190.939,181.31457c0,0 3.97563,2.88115 5.35735,4.16979c1.14565,1.06848 2.35823,3.02608 2.35823,3.02608" fill="none" stroke="#000000" stroke-width="1" stroke-linecap="round"/><path d="M193.7527,179.23313c0,0 2.87074,1.58985 3.95644,2.74401c1.13943,1.21126 2.72676,4.36054 2.72676,4.36054" fill="none" stroke="#000000" stroke-width="1" stroke-linecap="round"/><path d="M199.3715,179.43792c0,0 1.36753,1.6963 1.87922,2.68698c0.53388,1.03366 1.26033,3.39152 1.26033,3.39152" fill="none" stroke="#000000" stroke-width="1" stroke-linecap="round"/></g><g><g stroke="#000000" stroke-linecap="round"><path d="M217.39262,198.10566c0,0 2.77356,-5.4398 4.13943,-6.21618c0.72822,-0.41394 3.42693,1.9153 3.42693,1.9153c0,0 4.75261,-4.06073 11.07906,-4.08413c8.09534,-0.02994 19.34573,2.25227 19.34573,2.25227l2.86726,11.62832c0,0 -16.00774,1.20555 -22.80124,0.29181c-6.82582,-0.91809 -18.05716,-5.78738 -18.05716,-5.78738z" fill="#0065cc" stroke-width="0"/><path d="M224.95899,193.80477c0,0 4.75261,-4.06073 11.07906,-4.08413c8.09534,-0.02994 19.34573,2.25227 19.34573,2.25227l2.86726,11.62832c0,0 -16.00774,1.20555 -22.80124,0.29181c-2.42102,-0.32564 -5.39627,-1.14834 -8.22801,-2.07454c-0.18852,-2.71503 -0.97078,-5.45195 -1.84464,-7.13762c-0.12154,-0.23446 -0.27258,-0.54189 -0.44949,-0.9029c0.02049,0.01743 0.03134,0.02678 0.03134,0.02678z" fill="#061382" stroke-width="0"/><path d="M232.04747,200.89327l-2.70796,-2.54867" fill="none" stroke-width="1"/><path d="M217.39262,198.10566c0,0 2.77356,-5.4398 4.13943,-6.21618c0.72822,-0.41394 3.42693,1.9153 3.42693,1.9153c0,0 4.75261,-4.06073 11.07906,-4.08413c8.09534,-0.02994 19.34573,2.25227 19.34573,2.25227l2.86726,11.62832c0,0 -16.00774,1.20555 -22.80124,0.29181c-6.82582,-0.91809 -18.05716,-5.78738 -18.05716,-5.78738z" fill="none" stroke-width="1"/></g><g stroke="#000000" stroke-linecap="round"><path d="M249.25102,194.60123l-1.51328,-6.21239l7.64603,-2.38938c0,0 0.17149,2.7748 0.98286,3.82705c0.40524,0.52553 1.70508,0.75763 2.56131,1.28546c1.0071,0.62083 1.55317,1.49811 1.55317,1.49811c0,0 -0.28803,4.42718 -4.95489,4.6561c-3.93081,0.19281 -6.2752,-2.66494 -6.2752,-2.66494z" fill="#fde0be" stroke-width="0"/><path d="M247.73773,188.38884l7.64603,-2.38938c0,0 0.12788,2.06935 0.68533,3.31165c-2.32251,2.12352 -4.27784,2.37238 -7.34419,3.3381z" fill="#f89688" stroke-width="0"/><path d="M249.25102,194.60123l-1.51328,-6.21239l7.64603,-2.38938c0,0 0.17149,2.7748 0.98286,3.82705c0.40524,0.52553 1.70508,0.75763 2.56131,1.28546c1.0071,0.62083 1.55317,1.49811 1.55317,1.49811c0,0 -0.28803,4.42718 -4.95489,4.6561c-3.93081,0.19281 -6.2752,-2.66494 -6.2752,-2.66494z" fill="none" stroke-width="1"/></g><g><path d="M229.23001,185.91782c0,0 -2.69302,-5.63292 1.16249,-10.76664c1.41904,-1.88949 3.84565,-4.31385 7.44797,-5.50405c15.78375,-5.21493 14.80547,9.16228 14.80547,9.16228c0,0 3.97095,4.30425 3.3419,5.91514c-1.28839,3.29933 -7.6627,3.70211 -7.6627,3.70211l0.83628,6.27212c0,0 -9.08739,7.27359 -17.77238,2.91128c-9.96441,-5.00493 -2.15904,-11.69225 -2.15904,-11.69225z" fill="#feecf7" stroke="#000000" stroke-width="0" stroke-linecap="round"/><path d="M229.23001,185.91782c0,0 -2.69302,-5.63292 1.16249,-10.76664c1.41904,-1.88949 3.84565,-4.31385 7.44797,-5.50405c15.78375,-5.21493 14.80547,9.16228 14.80547,9.16228c0,0 3.97095,4.30425 3.3419,5.91514c-1.28839,3.29933 -7.6627,3.70211 -7.6627,3.70211l0.83628,6.27212l-4.43629,-4.52891c0,0 -6.04137,0.87198 -8.08226,-0.02716c-2.86031,-1.26013 -7.41285,-4.22489 -7.41285,-4.22489z" fill="#dc94e7" stroke="#000000" stroke-width="0" stroke-linecap="round"/><path d="M229.23001,185.91782c0,0 -2.69302,-5.63292 1.16249,-10.76664c1.41904,-1.88949 3.84565,-4.31385 7.44797,-5.50405c15.78375,-5.21493 14.80547,9.16228 14.80547,9.16228c0,0 3.97095,4.30425 3.3419,5.91514c-1.28839,3.29933 -7.6627,3.70211 -7.6627,3.70211l0.83628,6.27212c0,0 -9.08739,7.27359 -17.77238,2.91128c-9.96441,-5.00493 -2.15904,-11.69225 -2.15904,-11.69225z" fill="none" stroke="#000000" stroke-width="1" stroke-linecap="round"/><path d="M244.23333,193.00831c0,0.36843 -0.24347,0.49338 -0.40863,0.53577c-0.71336,1.08236 -2.20313,1.73851 -3.73216,1.52943c-3.94843,-0.57486 -8.74636,-2.12117 -8.84151,-7.00325c0,0 0,-0.2193 0.13755,-0.38283c-0.22271,-0.39044 0.15134,-0.6897 0.15134,-0.6897l0.35228,-0.27746c1.72162,-1.63917 4.19053,-0.24457 6.18431,0.25159c1.86258,0.46588 4.31315,1.63172 5.48879,3.23426c0.662,0.90238 0.8125,1.78251 0.61596,2.5424c0.03221,0.06924 0.05205,0.15459 0.05205,0.25978zM242.14221,193.39751c-1.69096,-0.37577 -4.83408,-0.61283 -6.24775,-1.50879c-0.93214,-0.59078 -1.71652,-1.26796 -2.5828,-1.86213c0.1135,0.13862 0.22668,0.29163 0.33281,0.47136c1.74177,2.94955 3.29812,3.00705 6.60574,3.47172c0.78585,0.11833 1.63835,-0.09001 2.22033,-0.52505c-0.10944,-0.01569 -0.21889,-0.03139 -0.32835,-0.04711zM236.4837,190.94207c1.27233,0.83477 4.29183,1.01032 5.85845,1.35846c0.27176,0.03861 0.54351,0.07731 0.81524,0.11608c0.08406,-0.45072 -0.04448,-0.97537 -0.48613,-1.54416c-1.07945,-1.39021 -3.20154,-2.40313 -4.86518,-2.81883c-1.37867,-0.34639 -4.00629,-1.75336 -5.12542,-0.54488l-0.3745,0.30328c0.05991,0.13221 0.05991,0.25823 0.05991,0.25823c-0.00128,0.04367 -0.00163,0.08608 -0.00108,0.1273c1.55025,0.73894 2.68997,1.80713 4.11871,2.74451z" fill="#ff0000" stroke="none" stroke-width="0.5" stroke-linecap="butt"/><path d="M231.53992,186.99774l0.35228,-0.27746c1.72162,-1.63917 4.19053,-0.24457 6.18431,0.25159c1.86258,0.46588 4.31315,1.63172 5.48879,3.23426c0.07927,0.10805 0.1512,0.21577 0.21607,0.32302c-0.35795,0.10879 -0.73365,0.2254 -1.1125,0.34026c-1.08019,-1.38865 -3.20038,-2.40039 -4.86282,-2.81578c-1.37867,-0.34639 -4.00629,-1.75336 -5.12542,-0.54488l-0.3745,0.30328c0.05991,0.13221 0.05991,0.25823 0.05991,0.25823c-0.00064,0.022 -0.00105,0.04369 -0.00123,0.06506c-0.12229,-0.03815 -0.2449,-0.07476 -0.36781,-0.10985c-0.22521,-0.17528 -0.44994,-0.35039 -0.67443,-0.52369c-0.04303,-0.29575 0.21732,-0.50402 0.21732,-0.50402z" fill="#ab0d46" stroke="none" stroke-width="0.5" stroke-linecap="butt"/><path d="M248.37492,188.54814c0,0 -1.29481,-0.23135 -1.88091,-0.53662c-0.67549,-0.35183 -1.94209,-1.45454 -1.94209,-1.45454" fill="none" stroke="#000000" stroke-width="1" stroke-linecap="round"/></g><g><path d="M239.45457,206.07026l2.23009,4.93805c0,0 -4.89814,0.96441 -7.47833,1.20505c-2.54317,0.23719 -7.89335,0.22857 -7.89335,0.22857c0,0 -11.67459,5.12974 -17.8515,3.9866c-5.94968,-1.10108 -6.4953,-4.009 -5.86788,-5.63514c0.04884,-0.12657 1.10014,-1.13377 2.45825,-1.48041c2.20435,-0.56265 5.47735,-0.55675 8.52517,-0.95618c10.89804,-1.42823 25.87756,-2.28654 25.87756,-2.28654z" fill="#feecf7" stroke="#000000" stroke-width="0" stroke-linecap="round"/><path d="M239.45457,206.07026l2.23009,4.93805c0,0 -4.89814,0.96441 -7.47833,1.20505c-2.54317,0.23719 -7.89335,0.22857 -7.89335,0.22857c0,0 -8.81232,3.87207 -15.17535,4.13836c0.37635,-0.33171 0.70783,-0.71888 0.98226,-1.13323c0.88023,-1.34859 2.22403,-1.32448 3.47357,-2.26316c1.22049,-0.91685 1.56073,-1.80523 2.31829,-2.96096c0.59366,-0.90568 2.20453,-1.89236 3.81196,-2.77827c8.98703,-0.87341 17.73086,-1.37443 17.73086,-1.37443z" fill="#dc94e7" stroke="#000000" stroke-width="0" stroke-linecap="butt"/><path d="M239.45457,206.07026l2.23009,4.93805c0,0 -4.89814,0.96441 -7.47833,1.20505c-2.54317,0.23719 -7.89335,0.22857 -7.89335,0.22857c0,0 -11.67459,5.12974 -17.8515,3.9866c-5.94968,-1.10108 -6.4953,-4.009 -5.86788,-5.63514c0.0402,-0.10417 1.44794,-1.35468 2.42014,-1.62081c2.12647,-0.58208 5.18309,-0.37282 8.56328,-0.8158c10.89804,-1.42823 25.87756,-2.28654 25.87756,-2.28654z" fill="none" stroke="#000000" stroke-width="1" stroke-linecap="round"/><path d="M230.45458,199.61895c0,0 3.10882,1.76186 4.57126,2.85227c1.55805,1.16171 4.50839,3.91764 4.50839,3.91764c0,0 -3.76446,1.91266 -5.85377,2.24376c-2.63937,0.41825 -8.72145,0.06597 -8.72145,0.06597c0,0 -11.72116,6.07774 -18.55752,2.54867c-0.70667,-0.36481 -1.59429,-1.22776 -1.51385,-1.7523c0.25359,-1.65374 3.13737,-3.04922 6.22208,-4.52062c2.19777,-1.04833 4.92893,-2.48814 4.92893,-2.48814c0,0 -3.21863,-2.34208 -1.09939,-5.33439c0.41683,-0.58855 1.64161,-0.50843 3.19209,-0.67985c1.62164,-0.17929 3.56216,-0.59637 3.56216,-0.59637l6.45132,4.77876z" fill="#ff292e" stroke="#000000" stroke-width="0" stroke-linecap="round"/><path d="M235.02582,202.4712c1.55805,1.16171 4.50839,3.91764 4.50839,3.91764c0,0 -3.76446,1.91267 -5.85377,2.24376c-2.63937,0.41826 -8.72145,0.06597 -8.72145,0.06597c0,0 -8.31219,4.3101 -15.01955,3.56354c0.7367,-0.98845 1.46856,-2.13299 1.7916,-2.6706c0.76831,-0.47787 1.54469,-0.78361 2.30282,-1.13264c0.49412,-0.01148 0.95645,-0.15155 1.35483,-0.38801c1.23894,-0.28351 2.16322,-1.39252 2.16322,-2.71742c0,-1.02311 -0.55118,-1.91749 -1.37281,-2.4024c-0.08849,-0.15487 -0.18563,-0.28264 -0.2902,-0.38622c0.09689,-0.05079 0.14973,-0.07864 0.14973,-0.07864c0,0 -1.52792,-1.11182 -1.78515,-2.7821c3.28121,0.0617 7.36037,-0.22915 7.36037,-3.03206c0,-0.28233 -0.02403,-0.53649 -0.06918,-0.76524c0.09582,-0.01984 0.14882,-0.03122 0.14882,-0.03122l6.31571,4.67831c-0.25157,0.1195 -0.57155,0.23866 -0.96758,0.39217c-0.23176,0.05534 -0.47028,0.1105 -0.70976,0.1758c0,0 -0.80681,0.22004 -0.58677,1.02686c0.22004,0.80681 1.02686,0.58677 1.02686,0.58677c0.06088,-0.0166 0.12122,-0.03304 0.18101,-0.04934c0.21492,0.00835 0.38742,-0.06065 0.38742,-0.06065c0.12726,-0.05115 0.25032,-0.10171 0.36919,-0.15195c0.69645,-0.20645 1.30087,-0.43109 1.80102,-0.78311c0.12999,0.0851 0.3054,0.13683 0.54182,0.11533c0.83285,-0.07571 0.75714,-0.90856 0.75714,-0.90856c-0.02642,-0.2891 -0.05538,-0.56716 -0.09158,-0.83887c0.02861,-0.07776 0.05591,-0.15824 0.08188,-0.24153c0.85031,0.49051 3.06075,1.78559 4.22598,2.65441z" fill="#ac0e49" stroke="#000000" stroke-width="0" stroke-linecap="round"/><path d="M230.45458,199.61895c0,0 3.10882,1.76186 4.57126,2.85227c1.55805,1.16171 4.50839,3.91764 4.50839,3.91764c0,0 -3.76446,1.91266 -5.85377,2.24376c-2.63937,0.41825 -8.72145,0.06597 -8.72145,0.06597c0,0 -11.72116,6.07774 -18.55752,2.54867c-0.70667,-0.36481 -1.59429,-1.22776 -1.51385,-1.7523c0.25359,-1.65374 3.13737,-3.04922 6.22208,-4.52062c2.19777,-1.04833 4.92893,-2.48814 4.92893,-2.48814c0,0 -3.21863,-2.34208 -1.09939,-5.33439c0.41683,-0.58855 1.64161,-0.50843 3.19209,-0.67985c1.62164,-0.17929 3.56216,-0.59637 3.56216,-0.59637l6.45132,4.77876z" fill="none" stroke="#000000" stroke-width="1" stroke-linecap="round"/><path d="M226.95015,201.29149l0.95575,-0.55752" fill="none" stroke="#000000" stroke-width="1" stroke-linecap="round"/><path d="M230.8528,203.84017c0,0 1.01887,-0.41906 1.74361,-0.53275c0.60901,-0.09553 3.1148,-0.26372 3.1148,-0.26372" fill="none" stroke="#000000" stroke-width="0.5" stroke-linecap="round"/><path d="M215.55997,204.86655c-0.44827,-0.09541 -0.92133,-0.15147 -1.43284,-0.15027c0,0 -0.55752,0 -0.55752,-0.55752c0,-0.55752 0.55752,-0.55752 0.55752,-0.55752c1.9216,0.00398 4.45698,0.53054 5.98843,1.70371c0.3401,0.26053 1.41335,1.07701 0.9451,1.68232c-0.66859,0.8643 -3.2699,-0.97184 -3.9817,-1.44637c-0.34543,-0.09366 -0.69007,-0.19023 -1.0342,-0.28854l-0.47999,-0.38078c0,0 -0.00172,-0.00172 -0.00479,-0.00502z" fill="#fff1fd" stroke="none" stroke-width="0.5" stroke-linecap="butt"/><path d="M216.4068,203.16169c-0.35691,-0.4283 0.07139,-0.78523 0.07139,-0.78523c1.75902,-1.41781 6.99466,-0.93211 8.03108,1.30933c0.90197,1.95065 -0.90818,2.29874 -2.30106,1.62972c-1.77244,-0.49774 -3.43691,-1.08759 -5.17796,-1.63201l-0.075,-0.12278l-0.0365,0.03651l-0.2459,-0.2459c-0.08811,-0.02769 -0.1792,-0.08541 -0.26605,-0.18964z" fill="#fff1fd" stroke="none" stroke-width="0.5" stroke-linecap="butt"/><path d="M218.12549,201.12595c-0.00069,-0.00103 -0.00137,-0.00205 -0.00206,-0.00308c-0.30926,-0.46389 0.15463,-0.77314 0.15463,-0.77314c1.42629,-0.88531 6.77622,-1.17922 7.42071,0.93575c0.85711,2.81275 -2.46085,1.08094 -3.41666,0.52333c-1.02781,-0.24744 -1.9156,-0.27838 -2.97798,-0.27838h-0.63717c0,0 -0.45014,0.00001 -0.54148,-0.40448z" fill="#dc94e7" stroke="none" stroke-width="0.5" stroke-linecap="butt"/><path d="M220.11556,205.30494c0.3401,0.26053 1.41335,1.07701 0.9451,1.68232c-0.51816,0.66983 -2.19713,-0.28227 -3.25778,-0.96552c0.61631,-0.29985 1.16038,-0.68291 1.64656,-1.15405c0.23748,0.13433 0.46083,0.27998 0.66613,0.43724z" fill="#dc94e7" stroke="none" stroke-width="0.5" stroke-linecap="butt"/><path d="M224.50927,203.68581c0.90197,1.95065 -0.90818,2.29874 -2.30106,1.62972c-0.83847,-0.23545 -1.65277,-0.49153 -2.46244,-0.75366c0.66994,-0.73562 1.22469,-1.65798 1.70771,-2.78181c1.38816,0.30281 2.61016,0.94199 3.0558,1.90576z" fill="#dc94e7" stroke="none" stroke-width="0.5" stroke-linecap="butt"/><path d="M215.55997,204.86655c-0.44827,-0.09541 -0.92133,-0.15147 -1.43284,-0.15027c0,0 -0.55752,0 -0.55752,-0.55752c0,-0.55752 0.55752,-0.55752 0.55752,-0.55752c1.9216,0.00398 4.45698,0.53054 5.98843,1.70371c0.3401,0.26053 1.41335,1.07701 0.9451,1.68232c-0.66859,0.8643 -3.2699,-0.97184 -3.9817,-1.44637c-0.34543,-0.09366 -0.69007,-0.19023 -1.0342,-0.28854l-0.47999,-0.38078c0,0 -0.00172,-0.00172 -0.00479,-0.00502z" fill="none" stroke="#000000" stroke-width="1" stroke-linecap="butt"/><path d="M216.4068,203.16169c-0.35691,-0.4283 0.07139,-0.78523 0.07139,-0.78523c1.75902,-1.41781 6.99466,-0.93211 8.03108,1.30933c0.90197,1.95065 -0.90818,2.29874 -2.30106,1.62972c-1.77244,-0.49774 -3.43691,-1.08759 -5.17796,-1.63201l-0.075,-0.12278l-0.0365,0.03651l-0.2459,-0.2459c-0.08811,-0.02769 -0.1792,-0.08541 -0.26605,-0.18964z" fill="none" stroke="#000000" stroke-width="1" stroke-linecap="butt"/><path d="M218.12549,201.12595c-0.00069,-0.00103 -0.00137,-0.00205 -0.00206,-0.00308c-0.30926,-0.46389 0.15463,-0.77314 0.15463,-0.77314c1.42629,-0.88531 6.77622,-1.17922 7.42071,0.93575c0.85711,2.81275 -2.46085,1.08094 -3.41666,0.52333c-1.02781,-0.24744 -1.9156,-0.27838 -2.97798,-0.27838h-0.63717c0,0 -0.45014,0.00001 -0.54148,-0.40448z" fill="none" stroke="#000000" stroke-width="1" stroke-linecap="butt"/></g><g><path d="M246.65483,209.64192c7.94441,0 15.6222,-2.38989 23.5533,-2.40159c0.3789,-0.01777 0.63336,0.10883 0.80389,0.27848c0.18354,0.15611 0.33101,0.3997 0.34435,0.77983l0.08675,1.08596c-0.01103,4.69311 -2.81055,6.27771 -6.8464,7.92873c-3.46341,1.41684 -7.95033,3.22171 -11.08007,3.22171c-4.13009,0 -8.3331,0.47822 -12.24293,-1.10593c-2.50729,-1.01588 -5.8045,-3.67786 -4.59298,-6.89245c0.63231,-1.67774 1.61924,-1.61351 2.92673,-2.33261c0,0 0.71675,-0.38595 1.25518,0.11412c1.99852,-0.58822 3.69089,-0.67626 5.79218,-0.67626z" fill="#ffeef9" stroke="none" stroke-width="0.5" stroke-linecap="butt"/><path d="M270.20813,207.24032c0.3789,-0.01777 0.63336,0.10882 0.80389,0.27848c0.18354,0.15611 0.331,0.3997 0.34435,0.77983l0.08676,1.08598c-0.01103,4.6931 -2.81055,6.2777 -6.84642,7.92873c-3.46341,1.41684 -7.95033,3.22171 -11.08007,3.22171c-4.13009,0 -8.3331,0.47822 -12.24293,-1.10593c-2.22959,-0.90338 -5.0838,-3.10839 -4.83681,-5.84614c0.93192,0.79199 1.83944,1.52222 2.77161,2.18458c1.54318,1.29335 3.19176,2.19591 5.15314,2.73973c0.52442,0.18922 1.07098,0.36232 1.64427,0.51872c0,0 0.34247,0.0934 0.64202,-0.06463c0.94223,0.12144 1.95462,0.18022 3.05305,0.17883c5.80039,0.58745 14.9546,-2.20031 18.21022,-7.08373c0.4765,-1.56444 0.70156,-3.2451 0.32281,-4.7666c0.65648,-0.03113 1.31443,-0.04856 1.97411,-0.04954z" fill="#db93e6" stroke="none" stroke-width="0.5" stroke-linecap="butt"/><path d="M246.65483,209.64193c7.94441,0 15.62222,-2.3899 23.5533,-2.40159c0.3789,-0.01777 0.63336,0.10882 0.80389,0.27848c0.18354,0.15611 0.331,0.3997 0.34435,0.77983l0.08676,1.08598c-0.01103,4.6931 -2.81055,6.2777 -6.84642,7.92873c-3.46341,1.41684 -7.95033,3.22171 -11.08007,3.22171c-4.13009,0 -8.3331,0.47822 -12.24293,-1.10593c-2.50729,-1.01588 -5.8045,-3.67786 -4.59298,-6.89245c0.63231,-1.67774 1.61924,-1.6135 2.92673,-2.33259c0,0 0.71676,-0.38595 1.25518,0.11411c1.99852,-0.58822 3.69089,-0.67626 5.79218,-0.67626z" fill="none" stroke="#000000" stroke-width="1" stroke-linecap="butt"/><path d="M243.9101,201.83663c0,0 6.3901,-3.96572 9.19295,-4.65741c4.09319,-1.01012 5.9888,0.79764 5.9888,0.79764c0,0 4.39459,0.75358 6.26754,0.3767c3.67902,-0.74032 4.53982,-2.34947 4.53982,-2.34947c0,0 1.4028,1.64035 0.131,3.36975c-1.29216,1.75706 -3.81923,3.40628 -3.81923,3.40628c0,0 11.5832,10.8123 -9.82268,14.13838c-26.36163,4.09609 -14.45097,-7.79122 -14.45097,-7.79122c0,0 -0.78383,-0.86549 -1.01696,-1.41404c-0.25151,-0.59179 -0.44117,-2.01687 -0.44117,-2.01687c0,0 -3.60204,0.34806 -4.92069,-0.73335c-0.62871,-0.5156 0.25577,-2.68164 0.43922,-2.88802c0.57532,-0.64724 7.91238,-0.23839 7.91238,-0.23839z" fill="#ff292e" stroke="#000000" stroke-width="0" stroke-linecap="round"/><path d="M253.10305,197.1792c4.09319,-1.01012 5.9888,0.79764 5.9888,0.79764c0,0 3.18371,0.54594 5.28638,0.47606c-0.24955,0.05368 -0.58317,0.22204 -0.62979,0.73481c-0.07571,0.83285 0.75714,0.90856 0.75714,0.90856c2.19369,0.17554 4.23397,-0.94561 6.05395,-2.12998c-0.02462,0.43887 -0.17055,0.91966 -0.52933,1.40752c-1.29216,1.75706 -3.81923,3.40628 -3.81923,3.40628c0,0 0.60956,0.569 1.29061,1.48609c-0.56614,-0.47697 -1.10999,0.06688 -1.10999,0.06688c-0.07644,0.07814 -0.16098,0.15063 -0.25211,0.2185c-0.39683,0.06129 -0.75367,0.26594 -1.05122,0.55234c-1.31195,0.53898 -2.83302,0.91943 -2.51144,2.53921c0.20752,1.04529 3.34492,2.41526 4.27572,2.00803c1.26035,-0.55141 1.16696,-2.10439 1.05245,-3.18284c-0.04455,-0.41957 0.09405,-0.96988 -0.11479,-1.30523c0.04779,-0.13427 0.06969,-0.29734 0.01379,-0.47189c2.21809,3.25883 4.35987,9.77605 -11.41569,12.22727c-7.59402,1.17997 -12.01203,1.03356 -14.45365,0.22702c0.36146,-0.46116 0.73227,-0.91205 1.12577,-1.35466c1.32342,-1.32372 3.78504,-2.35589 4.67282,-3.94939c1.1202,-2.01067 -0.15893,-5.00594 -1.37513,-7.71178c3.6641,-0.94062 8.70312,-3.76042 5.69255,-6.609c0.38591,-0.14758 0.74125,-0.2647 1.05239,-0.34148z" fill="#ac0e49" stroke="#000000" stroke-width="0" stroke-linecap="butt"/><path d="M243.9101,201.83663c0,0 6.3901,-3.96572 9.19295,-4.65741c4.09319,-1.01012 5.9888,0.79764 5.9888,0.79764c0,0 4.39459,0.75358 6.26754,0.3767c3.67902,-0.74032 4.53982,-2.34947 4.53982,-2.34947c0,0 1.4028,1.64035 0.131,3.36975c-1.29216,1.75706 -3.81923,3.40628 -3.81923,3.40628c0,0 11.5832,10.8123 -9.82268,14.13838c-26.36163,4.09609 -14.45097,-7.79122 -14.45097,-7.79122c0,0 -0.78383,-0.86549 -1.01696,-1.41404c-0.25151,-0.59179 -0.44117,-2.01687 -0.44117,-2.01687c0,0 -3.60204,0.34806 -4.92069,-0.73335c-0.62871,-0.5156 0.25577,-2.68164 0.43922,-2.88802c0.57532,-0.64724 7.91238,-0.23839 7.91238,-0.23839z" fill="none" stroke="#000000" stroke-width="1" stroke-linecap="round"/><path d="M244.2532,209.12729h-2.23009" fill="none" stroke="#000000" stroke-width="1" stroke-linecap="round"/><path d="M240.73651,205.86793l1.54391,-0.42887" fill="none" stroke="#000000" stroke-width="1" stroke-linecap="round"/><path d="M265.86789,202.60857l-4.11709,-0.17155" fill="none" stroke="#000000" stroke-width="1" stroke-linecap="round"/><path d="M239.68559,205.82929c-0.21867,1.09339 -1.31206,0.87471 -1.31206,0.87471l-0.29571,-0.0674c-0.37169,-0.02859 -0.74336,-0.05719 -1.11504,-0.08578c0,0 -1.11175,-0.08552 -1.02624,-1.19728c0.08552,-1.11177 1.19728,-1.02624 1.19728,-1.02624c0.37169,0.02859 0.74336,0.05718 1.11504,0.08577l0.56203,0.10415c0,0 1.09339,0.21867 0.87471,1.31206z" fill="#000000" stroke="none" stroke-width="0.5" stroke-linecap="butt"/><path d="M268.6984,200.97888c0,0.72492 -0.47128,0.97855 -0.80107,1.06729c-0.24821,0.15795 -0.49641,0.31589 -0.7446,0.47384c0,0 -0.94072,0.59863 -1.53936,-0.34208c-0.59864,-0.94072 0.34208,-1.53935 0.34208,-1.53935c0.3145,-0.20013 0.629,-0.40028 0.94349,-0.60042l0.68441,-0.17433c0,0 1.11504,0 1.11504,1.11504z" fill="#000000" stroke="none" stroke-width="0.5" stroke-linecap="butt"/><path d="M263.80936,208.35533c0,1.11504 -1.11504,1.11504 -1.11504,1.11504h-0.17155c-4.74653,-0.01286 -8.88976,1.35673 -13.22373,3.09384c0,0 -1.0353,0.41412 -1.44941,-0.62118c-0.14743,-0.36858 -0.11116,-0.65842 -0.00329,-0.87889c-0.15165,0.07212 -1.00656,0.42769 -1.48709,-0.46473c-0.45643,-0.84766 0.21308,-1.35752 0.40452,-1.481c-0.0905,-0.08843 -0.17494,-0.20303 -0.24853,-0.3502c-0.49866,-0.99733 0.49866,-1.49599 0.49866,-1.49599l0.17155,-0.08577c4.30326,-2.14435 9.01365,-4.42724 13.96471,-4.05998c0,0 1.11175,0.08552 1.02624,1.19728c-0.0412,0.53566 -0.32064,0.79338 -0.59918,0.91663c0.22858,-0.01922 0.45807,-0.03766 0.6885,-0.05537l0.25706,-0.00329c0,0 1.11504,0 1.11504,1.11504c0,0.5892 -0.31133,0.86706 -0.60498,0.9981c0.3281,0.09464 0.77653,0.35334 0.77653,1.06045z" fill="#fff1fd" stroke="none" stroke-width="0.5" stroke-linecap="butt"/><path d="M246.65483,206.81142c0,0 -1.8321,-1.56576 -2.23807,-2.43784c-0.36058,-0.77459 -0.07779,-2.53697 -0.07779,-2.53697" fill="none" stroke="#000000" stroke-width="1" stroke-linecap="round"/><path d="M261.15016,203.12649c0,0 0.47612,0.03663 0.78123,0.37353c-0.07751,0.31265 -0.15501,0.62528 -0.23252,0.93793c-0.0322,0.31818 -0.03257,0.5594 -0.03575,0.7599c-0.02847,0.01572 -0.05719,0.02986 -0.0859,0.04256c0.02842,-0.00239 0.05686,-0.00477 0.0853,-0.00714c-0.00836,0.44968 -0.04251,0.69602 -0.52239,1.17837c-0.6959,0.69947 -1.22637,2.04304 -2.18718,2.45377c-2.47385,1.05753 -4.75482,-2.27265 -6.30827,-4.18342c2.72779,-1.06156 5.57446,-1.77292 8.50549,-1.5555z" fill="#dc94e7" stroke="#000000" stroke-width="0" stroke-linecap="butt"/><path d="M247.42679,209.12728c0,0 4.35217,-2.00359 6.78064,-2.72934c2.54123,-0.75945 8.1438,-1.73084 8.1438,-1.73084" fill="none" stroke="#000000" stroke-width="1" stroke-linecap="round"/><path d="M247.76987,211.18583c0,0 4.02549,-1.66891 6.44128,-2.28309c2.62707,-0.6679 8.74047,-1.57668 8.74047,-1.57668" fill="none" stroke="#000000" stroke-width="1" stroke-linecap="round"/><path d="M263.80936,208.35533c0,1.11504 -1.11504,1.11504 -1.11504,1.11504h-0.17154c-4.74653,-0.01286 -8.88976,1.35673 -13.22373,3.09384c0,0 -1.03529,0.41412 -1.4494,-0.62118c-0.14743,-0.36858 -0.11116,-0.65842 -0.0033,-0.87889c-0.15165,0.07212 -1.00656,0.42769 -1.48708,-0.46473c-0.45642,-0.84765 0.21307,-1.35752 0.4045,-1.481c-0.0905,-0.08843 -0.17494,-0.20302 -0.24852,-0.35019c-0.49866,-0.99732 0.49866,-1.49599 0.49866,-1.49599l0.17155,-0.08577c4.30326,-2.14435 9.01365,-4.42725 13.96471,-4.05998c0,0 1.11175,0.08552 1.02624,1.19728c-0.04121,0.53567 -0.32064,0.79338 -0.59918,0.91663c0.22857,-0.01922 0.45807,-0.03764 0.6885,-0.05537l0.25707,-0.00329c0,0 1.11504,0 1.11504,1.11504c0,0.5892 -0.31133,0.86706 -0.60498,0.9981c0.3281,0.09463 0.77653,0.35334 0.77653,1.06045z" fill="none" stroke="#000000" stroke-width="1" stroke-linecap="butt"/></g><g stroke="#000000" stroke-linecap="round"><path d="M249.25102,194.60124c0,0 4.0674,1.30546 7.99658,0.40524c1.60456,-0.36762 2.43704,-3.67073 2.43704,-3.67073c0,0 3.25064,2.17515 3.06355,3.22291c-0.44874,2.513 -3.85374,9.96235 -5.29364,9.99831c-1.92823,0.04815 -6.69027,-6.53097 -6.69027,-6.53097z" fill="#0066cd" stroke-width="0"/><path d="M262.7482,194.55867c-0.44873,2.51301 -3.85374,9.96235 -5.29364,9.99831c-1.92823,0.04815 -6.69027,-6.53097 -6.69027,-6.53097c0,0 4.36514,2.54168 5.74144,3.06129c1.80158,0.68018 3.63679,-8.63749 3.8286,-9.28874c0.93822,0.69714 2.54703,2.01427 2.41386,2.76011z" fill="#061382" stroke-width="0"/><path d="M249.25102,194.60123c0,0 4.0674,1.30545 7.99658,0.40524c1.60456,-0.36762 2.43704,-3.67073 2.43704,-3.67073c0,0 3.25064,2.17516 3.06355,3.22291c-0.44873,2.51301 -3.85374,9.96235 -5.29364,9.99831c-1.92823,0.04815 -6.69027,-6.53097 -6.69027,-6.53097" fill="none" stroke-width="1"/></g></g><g stroke="#000000"><g><path d="M255.04232,167.64062c0,0 2.48896,-1.87931 4.93282,-4.07957c2.11958,-1.9083 4.06708,-4.19618 6.03179,-4.0045c2.75331,0.26861 5.09722,6.05177 4.35038,9.7153c-0.40057,1.96489 -3.54357,3.05528 -3.83632,2.9514c-1.03864,-0.36856 -2.00079,-5.14016 -2.00079,-5.14016l-0.83628,1.39381l-1.02212,-0.83628l-2.88054,4.27433z" fill="#061483" stroke-width="0" stroke-linecap="round"/><path d="M255.04232,167.64061c0,0 2.48896,-1.8793 4.93282,-4.07957c2.11958,-1.9083 4.06708,-4.19618 6.03179,-4.0045c1.47858,0.14425 2.83909,1.87885 3.66628,4.02147c-0.96829,-0.34573 -2.48706,-1.00335 -3.20168,-0.86217c-1.02845,0.20317 -0.57491,1.86048 -1.53216,1.90329c-0.18299,-0.0883 -1.2245,-1.25284 -1.44129,-1.25284c-0.10127,0 -1.74801,1.38499 -3.52478,2.24292c-2.04237,0.98619 -4.25655,1.51483 -4.49274,2.42669z" fill="#0066cd" stroke-width="0" stroke-linecap="butt"/><path d="M255.04232,167.64061c0,0 2.48896,-1.87928 4.93282,-4.07956c2.11957,-1.90831 4.06707,-4.19619 6.03178,-4.00451c2.7533,0.26863 5.09722,6.05179 4.35038,9.71531c-0.40056,1.96489 -3.54355,3.05528 -3.83631,2.9514c-1.03863,-0.36856 -2.00079,-5.14016 -2.00079,-5.14016l-0.83628,1.39381l-1.02213,-0.83628l-2.88053,4.27433z" fill="none" stroke-width="1" stroke-linecap="round"/></g><path d="M259.78126,171.91495l-0.19342,-0.17445c0.10537,-0.00192 0.21039,-0.0039 0.31486,-0.00574z" fill="#0066cd" stroke-width="0" stroke-linecap="butt"/><g stroke-linecap="round"><path d="M254.11311,177.39726c0,0 -1.27721,1.71061 -4.02955,3.28577c-2.42077,1.3854 -6.06684,2.58184 -9.82375,3.58244c-4.83724,1.28832 -9.67396,1.72684 -14.20846,1.58198c-4.74364,-0.15153 -9.09517,-0.95904 -9.919,-2.91467c-0.80472,-1.91025 2.76396,-3.02668 2.76396,-3.02668c0,0 -10.63661,-24.317 14.77434,-30.38495c18.37081,-4.38683 18.39823,19.42035 18.39823,19.42035c0,0 0.59644,-1.27645 1.71185,-1.78922c1.26233,-0.58031 3.18936,-0.18252 5.66875,4.15057c2.06107,3.60201 0.54806,5.61569 -1.19898,6.25233c-1.89734,0.69142 -4.13738,-0.15792 -4.13738,-0.15792z" fill="#f89688" stroke-width="0"/><path d="M233.67064,149.52114c18.37081,-4.38682 18.39823,19.42035 18.39823,19.42035c0,0 0.59644,-1.27645 1.71186,-1.78922c1.19833,-0.5509 2.99564,-0.22034 5.29588,3.52141c-0.51436,1.74052 -0.89712,3.16445 -1.41063,3.28551c-3.81753,0.90002 -9.06532,-1.14525 -12.92199,-1.11504c-8.18286,0.06409 -15.71343,0.35163 -23.98927,0.37168c-1.01256,0.00245 -2.25638,0.15158 -3.63029,0.42323c-1.33292,-7.63615 -0.5891,-20.02612 16.54622,-24.11792z" fill="#ffe2bf" stroke-width="0"/><path d="M250.08356,180.68303c-2.42077,1.3854 -6.06684,2.58184 -9.82375,3.58244c-4.83724,1.28832 -9.67396,1.72684 -14.20846,1.58198c-4.74364,-0.15153 -9.09517,-0.95904 -9.919,-2.91467c-0.80472,-1.91025 2.76396,-3.02668 2.76396,-3.02668c0,0 -10.63661,-24.317 14.77434,-30.38495c18.37081,-4.38683 18.39823,19.42035 18.39823,19.42035c0,0 0.59644,-1.27645 1.71185,-1.78922c1.26233,-0.58031 3.18936,-0.18252 5.66875,4.15057c2.06107,3.60201 0.54806,5.61569 -1.19898,6.25233c-1.89734,0.69142 -4.13738,-0.15792 -4.13738,-0.15792c0,0 -1.27722,1.71061 -4.02956,3.28577z" fill="none" stroke-width="1"/></g><g stroke-linecap="round"><path d="M224.75028,172.47247l-16.35399,-14.49557c0,0 20.60421,-21.52729 41.16563,-16.11242c11.4217,3.00792 13.19278,18.90003 13.19278,18.90003c0,0 -2.48456,3.11839 -5.13762,4.97921c-1.37075,0.96142 -3.05892,0.76976 -3.89922,1.35914c-1.71014,1.19948 -4.34369,3.04661 -4.34369,3.04661c0,0 -8.25114,1.38852 -12.4669,1.78625c-3.97846,0.37532 -12.15699,0.53676 -12.15699,0.53676z" fill="#ff292e" stroke-width="0"/><path d="M252.12071,142.81844c9.13484,4.49382 10.63401,17.94607 10.63401,17.94607c0,0 -2.95959,3.52512 -5.58917,5.36948c-1.4418,1.01126 -2.65441,0.41248 -3.52855,1.02558c-1.68781,1.18381 -4.26281,2.98989 -4.26281,2.98989c0,0 -0.60985,0.10263 -1.58266,0.26007c-0.12563,0.02034 -2.61509,-2.59283 -5.16255,-5.414c-2.30625,-2.55402 -4.7103,-5.27851 -4.53016,-6.37379c0.30525,-1.85598 5.7595,-8.4638 9.8072,-12.52014c1.88337,-1.88739 4.19026,-3.29519 4.21469,-3.28316z" fill="#ac0e49" stroke-width="0.5"/><path d="M224.75028,172.47247l-16.35399,-14.49557c0,0 20.60421,-21.52729 41.16563,-16.11242c11.4217,3.00792 13.19278,18.90003 13.19278,18.90003c0,0 -2.93893,3.36223 -5.65895,5.27001c-1.42777,1.00142 -2.79523,0.65965 -3.64561,1.25611c-1.6351,1.14685 -4.07597,2.85884 -4.07597,2.85884c0,0 -8.25114,1.38852 -12.4669,1.78625c-3.97846,0.37532 -12.15699,0.53676 -12.15699,0.53676z" fill="none" stroke-width="1"/></g><g stroke-linecap="round"><path d="M252.34764,169.31318l3.43805,3.2522l-0.46459,11.4292l-5.48229,-7.43362l-8.45576,4.08849l0.55752,-3.99558l-7.52655,4.46018l3.1593,-3.99557c0,0 -3.52025,0.81309 -5.66931,0.9008c-2.38036,0.09715 -7.98998,-0.34328 -7.98998,-0.34328l1.39381,2.13716c0,0 -8.42757,-0.40507 -9.08781,1.44492c-0.54154,1.51741 0.35329,3.38695 0.35329,3.38695l-7.71239,0.46459l7.89823,-7.06195c0,0 -3.6591,0.07092 -5.50318,-1.08163c-2.44457,-1.52787 -7.87735,-7.28121 -7.87735,-7.28121l6.50442,-0.18583l6.31858,-5.11063l11.61505,2.04426l-5.20354,-11.05751c0,0 7.72838,6.99886 16.0236,10.96944c9.77349,4.67817 13.71093,2.96862 13.71093,2.96862z" fill="#4fa6ec" stroke-width="0"/><path d="M245.75029,169.49901l-0.18584,0.83628l3.1593,3.62389l-7.34072,6.69027l4.36725,-11.15044c0,0 -4.52225,-0.00701 -7.26324,-0.88071c-1.89744,-0.60481 -7.604,-3.85823 -7.604,-3.85823l3.15929,5.4823c0,0 -3.08766,-0.79035 -4.66484,-1.11711c-1.44745,-0.29987 -4.44251,-0.76969 -4.44251,-0.76969c0,0 -0.02387,2.43337 -2.07499,3.13331c-1.49875,0.51145 -6.19376,0.70482 -6.19376,0.70482l5.29646,5.57522c0,0 -1.95408,0.51416 -2.88814,1.19758c-1.75977,1.28756 -6.86944,5.94168 -6.86944,5.94168l-3.3442,0.20146l7.89823,-7.06195c0,0 -3.6591,0.07092 -5.50318,-1.08163c-2.44457,-1.52787 -7.87735,-7.28121 -7.87735,-7.28121l6.50442,-0.18583l6.31858,-5.11063l11.61505,2.04426l-5.20354,-11.05751c0,0 7.72838,6.99886 16.0236,10.96944c9.77349,4.67817 7.11358,3.15445 7.11358,3.15445z" fill="#66ffff" stroke-width="0"/><path d="M242.31224,176.56097c0,0 1.1344,-2.38012 1.82553,-3.58958c0.67112,-1.17445 2.26296,-3.56529 2.26296,-3.56529" fill="none" stroke-width="1"/><path d="M255.78569,172.56538l-0.46459,11.4292l-5.48229,-7.43362l-8.45576,4.08849l0.55752,-3.99558l-7.52655,4.46018l3.1593,-3.99557c0,0 -3.52025,0.81309 -5.66931,0.9008c-2.38036,0.09715 -7.98998,-0.34328 -7.98998,-0.34328l1.39381,2.13716c0,0 -8.42757,-0.40507 -9.08781,1.44492c-0.54154,1.51741 0.35329,3.38695 0.35329,3.38695l-7.71239,0.46459l7.89823,-7.06195c0,0 -3.6591,0.07092 -5.50318,-1.08163c-2.44457,-1.52787 -7.87735,-7.28121 -7.87735,-7.28121l6.50442,-0.18583l6.31858,-5.11063l11.61505,2.04426l-5.20354,-11.05751c0,0 7.72838,6.99886 16.0236,10.96944c9.77349,4.67817 13.71093,2.96862 13.71093,2.96862z" fill="none" stroke-width="1"/></g></g><g stroke="#000000"><path d="M244.63608,192.87041c0,0 -2.11085,3.51206 -5.13725,1.15658c-1.35432,-1.05409 0.98321,-6.59073 0.98471,-7.14189c0.00367,-1.34487 4.17291,-1.49459 4.17291,-1.49459c0,0 2.05596,-2.36986 3.14467,-2.47164c3.52365,-0.32943 4.8217,3.31117 4.8217,3.31117c0,0 4.262,-0.75964 5.24298,0.05015c2.03622,1.68088 5.27515,6.95176 5.48012,8.22646c0.12953,0.80555 -2.03325,4.49846 -4.43273,5.39297c-1.99316,0.74303 -4.28973,-1.22741 -4.28973,-1.22741c0,0 -1.31806,2.29893 -2.56454,2.69646c-1.17866,0.37588 -4.43231,-0.65105 -4.43231,-0.65105c0,0 -0.51644,1.23293 -1.37986,1.89814c-1.29524,0.99791 -3.45036,1.38385 -3.8368,-2.76813c-0.17696,-1.90128 4.23429,-4.618 4.23429,-4.618z" fill="#fde0be" stroke-width="0" stroke-linecap="round"/><path d="M244.63608,192.87041c0,0 -2.11085,3.51206 -5.13725,1.15658c-0.66026,-0.51388 -0.44307,-2.09315 -0.04686,-3.64074c1.14649,1.27583 2.96872,1.29064 4.02872,0.51119c0.68201,-0.50152 0.77453,-1.436 1.07854,-2.22902c0.00657,-0.00108 0.01316,-0.00221 0.01973,-0.00339c0.2082,-0.03727 0.39727,-0.11897 0.55919,-0.2336c0.2952,-0.06531 1.03758,-0.71063 1.04811,-0.80457c0.76387,-0.66666 1.72353,0.45546 2.57305,-0.09794c0.88793,-0.57843 1.79637,-3.11135 1.19877,-4.27022c1.74032,0.78461 2.51971,2.60106 2.64612,2.92232c-1.29334,1.81673 -1.47765,7.0121 -0.29581,8.24284c0.71092,0.74034 2.48056,-0.98112 2.64757,-1.4406c0.66209,-1.8215 1.17557,-3.89476 0.58133,-5.58218c0.11427,-0.24932 0.15629,-0.53483 0.1043,-0.82523c-0.04471,-0.24976 -0.15336,-0.47199 -0.30609,-0.65284c1.05037,-0.05068 2.10245,0.00395 2.53033,0.35715c2.03622,1.68088 5.27515,6.95176 5.48012,8.22646c0.12953,0.80555 -2.03325,4.49846 -4.43273,5.39297c-0.61518,0.22933 -1.25926,0.20018 -1.8558,0.05025c0.32864,-0.45237 0.60373,-0.957 0.76518,-1.44041c0.50083,-1.49968 1.24322,-2.40866 -0.14981,-2.01836c-0.22432,-0.08241 -4.53956,0.53264 -4.53956,0.53264c0,0 0.27283,0.67224 0.40846,1.42997c0.07153,0.3996 0.30675,0.72872 0.62425,0.93067c-0.49324,0.71043 -1.31456,1.73155 -2.10697,1.98426c-1.17866,0.37588 -4.43231,-0.65105 -4.43231,-0.65105c0,0 -0.51644,1.23293 -1.37986,1.89814c-0.23033,0.17746 -0.48787,0.33557 -0.75782,0.45225c-0.22726,-1.6201 -0.67118,-3.3824 -0.17983,-4.08339c1.00279,-1.43066 4.9939,0.91456 5.26108,-1.29512c0.25843,-2.13713 -1.79831,-4.67254 -3.39648,-3.95091c-0.03831,0.00364 -0.07678,0.00889 -0.11532,0.01579c-0.45944,0.08224 -0.82571,0.38087 -1.01265,0.77215z" fill="#f89688" stroke-width="0" stroke-linecap="butt"/><path d="M242.40995,199.84759c-0.02025,-0.21755 0.01958,-0.44578 0.106,-0.6794c-0.04315,0.37658 -0.05567,0.77391 -0.04687,1.18781c-0.02281,-0.16137 -0.04258,-0.33074 -0.05912,-0.50843z" fill="#f89688" stroke-width="0" stroke-linecap="butt"/><path d="M246.02539,195.68196c-0.02978,0.00533 -0.05932,0.01079 -0.08863,0.01637c0.0252,-0.01749 0.0499,-0.03455 0.0741,-0.0512c0.00469,0.0117 0.00955,0.0233 0.01453,0.03482z" fill="#f89688" stroke-width="0" stroke-linecap="butt"/><path d="M244.63608,192.87041c0,0 -2.11085,3.51206 -5.13725,1.15658c-1.35432,-1.05409 0.98321,-6.59073 0.98471,-7.14189c0.00367,-1.34487 4.17291,-1.49459 4.17291,-1.49459c0,0 2.05596,-2.36986 3.14467,-2.47164c3.52365,-0.32943 4.8217,3.31117 4.8217,3.31117c0,0 4.262,-0.75964 5.24298,0.05015c2.03622,1.68088 5.27515,6.95176 5.48012,8.22646c0.12953,0.80555 -2.03325,4.49846 -4.43273,5.39297c-1.99316,0.74303 -4.28973,-1.22741 -4.28973,-1.22741c0,0 -1.31806,2.29893 -2.56454,2.69646c-1.17866,0.37588 -4.43231,-0.65105 -4.43231,-0.65105c0,0 -0.51644,1.23293 -1.37986,1.89814c-1.29524,0.99791 -3.45036,1.38385 -3.8368,-2.76813c-0.17696,-1.90128 4.23429,-4.618 4.23429,-4.618z" fill="none" stroke-width="1" stroke-linecap="round"/><path d="M244.74584,192.85077l1.21416,-2.70943" fill="none" stroke-width="1" stroke-linecap="round"/><path d="M251.0679,189.56683c0,0 -1.29106,1.04787 -2.31488,1.067c-1.72032,0.03216 -3.60033,-1.02417 -4.00736,-1.57867c-0.64909,-0.88428 0.71844,-3.58269 0.71844,-3.58269" fill="none" stroke-width="1" stroke-linecap="round"/><path d="M257.06198,189.51337c0,0 0.24684,4.0261 -0.51429,5.29067c-0.74008,1.22958 -4.33758,0.92551 -4.68391,0.45044c-0.99798,-1.36902 -0.60075,-7.76155 -0.60075,-7.76155l1.05018,-1.0942" fill="none" stroke-width="1" stroke-linecap="round"/><path d="M257.45494,191.70856l0.75207,-1.49394" fill="none" stroke-width="0.5" stroke-linecap="round"/></g></g></g></svg>