<svg version="1.1" xmlns="http://www.w3.org/2000/svg" xmlns:xlink="http://www.w3.org/1999/xlink" width="114.13809" height="164.45953" viewBox="0,0,114.13809,164.45953"><g transform="translate(-182.09456,-108.57376)"><g data-paper-data="{&quot;isPaintingLayer&quot;:true}" fill-rule="nonzero" stroke-linejoin="miter" stroke-miterlimit="10" stroke-dasharray="" stroke-dashoffset="0" style="mix-blend-mode: normal"><g stroke="#000000" stroke-linecap="round"><path d="M226.51766,192.2249c0,0 -28.34669,5.32305 -28.02033,-12.65459c0.12022,-6.62354 16.31486,-4.68711 16.31486,-4.68711z" data-paper-data="{&quot;origPos&quot;:null}" fill="#66c8ff" stroke-width="2"/><path d="M218.72012,180.37057c0,0 -15.87594,-2.23255 -15.65451,-2.84177c0.70212,-1.93158 12.46892,-1.12194 12.46892,-1.12194z" data-paper-data="{&quot;origPos&quot;:null}" fill="#0a0a0a" stroke-width="1"/></g><path d="M203.327,268.97141c0,0 -4.18546,1.60242 -6.50227,1.14931c-1.77362,-0.34688 -2.66447,-2.04952 -3.40183,-3.69948c-2.02393,-4.52891 -1.43621,-9.50702 -2.74203,-17.112c-0.35565,-2.07125 2.48976,-3.76162 4.57967,-3.9824c1.95471,-0.20649 5.36523,-0.44568 5.36523,-0.44568l32.99367,-2.74654c0,0 4.28322,-0.21614 5.32976,1.35887c2.52026,3.79289 1.85541,8.45305 2.87791,12.89064c0.34652,1.50383 -4.36177,2.44128 -4.36177,2.44128c0,0 -8.63215,2.5655 -14.15719,4.20755c-7.79791,2.31756 -19.98119,5.93845 -19.98119,5.93845z" fill="#4b4b4b" stroke="#000000" stroke-width="3" stroke-linecap="round"/><g><path d="M215.73761,198.86194c0,0 2.2421,-14.36565 4.4106,-14.86824c6.50546,-1.50781 21.27978,-0.26791 31.16754,-0.06102c1.52855,0.03198 2.56542,13.59004 2.56542,13.59004l1.13962,30.65876c0,0 -0.06965,14.95978 -1.73714,14.92488c-14.84372,-0.31057 -32.25938,0.17785 -38.85796,-0.80132c-2.19952,-0.32638 -1.04204,-16.06338 -1.04204,-16.06338z" data-paper-data="{&quot;origPos&quot;:null}" fill="#66c8ff" stroke="#000000" stroke-width="3.5" stroke-linecap="round"/><path d="M234.40684,207.45314c-1.29139,-0.02702 -1.23935,-2.51398 -1.23935,-2.51398c0.10793,-5.15813 0.25053,-11.97421 0.35846,-17.13235c0,0 0.05203,-2.48696 1.34342,-2.45994c1.29139,0.02702 1.23935,2.51398 1.23935,2.51398c-0.10793,5.15813 -0.21584,10.31626 -0.32377,15.47438l-0.03469,1.65797c0,0 -0.05203,2.48696 -1.34342,2.45994z" fill="#ffffff" stroke="none" stroke-width="0.5" stroke-linecap="butt"/><path d="M246.16299,207.28237c-1.29139,-0.02702 -1.22602,-3.15133 -1.22602,-3.15133c0.13558,-6.48006 0.31474,-15.04299 0.45032,-21.52306c0,0 0.06537,-3.12432 1.35675,-3.0973c1.29139,0.02702 1.22602,3.15133 1.22602,3.15133c-0.13558,6.48006 -0.27116,12.96012 -0.40674,19.4402l-0.04357,2.08288c0,0 -0.06537,3.12432 -1.35675,3.0973z" fill="#ffffff" stroke="none" stroke-width="0.5" stroke-linecap="butt"/></g><path d="M252.04282,184.44444c-12.0709,0.6248 -23.77821,1.19462 -28.60653,0.39064c-4.41275,-0.73477 -5.84577,-3.43822 -5.84577,-3.43822c0,0 -1.85632,-2.35903 -2.00597,-3.88673c-0.44894,-4.58309 -1.11636,-17.71651 -0.64294,-29.0836c0.0158,-0.37937 0.03842,-0.59202 0.07679,-0.96977c0.1151,-1.13327 0.7517,-5.54001 0.7517,-5.54001c0,0 3.11832,-1.79014 4.82997,-2.33489c5.13494,-1.63427 18.39824,-0.69182 32.31796,-0.85023c1.26165,-0.01436 3.49105,1.57625 3.49105,1.57625c0,0 1.66914,3.07134 1.70254,5.05458c0.216,12.822 0.40781,27.00946 0.23972,30.26179c-0.05602,1.08412 -1.71935,5.34596 -1.71935,5.34596z" fill="#582700" stroke="#000000" stroke-width="2.5" stroke-linecap="round"/><path d="M248.54561,163.19883c-0.05802,-3.44447 0.30861,-6.24375 0.81889,-6.25234c0.51029,-0.00861 0.97101,2.77674 1.02905,6.22119c0.05802,3.44447 -0.30861,6.24376 -0.81889,6.25235c-0.51029,0.00861 -0.97101,-2.77674 -1.02905,-6.2212z" fill="none" stroke="#000000" stroke-width="2.5" stroke-linecap="butt"/><path d="M241.89032,161.8887c-1.34921,-1.67578 -2.29476,-3.15358 -2.11195,-3.30076c0.18281,-0.14719 1.42476,1.09198 2.77397,2.76774c1.34921,1.67578 2.29476,3.15356 2.11195,3.30075c-0.18281,0.14719 -1.42476,-1.09196 -2.77397,-2.76773z" fill="none" stroke="#000000" stroke-width="2.5" stroke-linecap="butt"/><path d="M211.52188,142.90048c-0.70776,-1.03031 0.32255,-1.73809 0.32255,-1.73809l1.27568,-0.82654c0.11669,-0.04185 0.2333,-0.08293 0.3499,-0.12325c-1.28286,-5.73082 -0.48335,-12.75886 -0.77334,-18.46997c-0.0752,-1.48109 -0.63267,-5.47768 0.0255,-6.7806c1.10211,-2.18178 2.83846,-1.66563 4.73235,-1.75664c3.22242,-0.15484 6.42074,-0.2691 9.58628,-0.8941c7.84737,-1.53983 15.67267,-2.17127 23.581,-3.22661c2.49553,-0.33302 4.93895,-0.54064 7.46822,-0.44514c0.69206,0.02613 1.5624,-0.2668 2.0673,0.20722c1.78823,1.67883 1.1485,3.67007 0.923,5.64504c-0.44981,3.93946 -1.89905,7.54083 -1.83152,11.54998c0.03117,3.06752 -0.29406,6.23193 -0.54262,9.28738c-0.08578,1.05442 0.34579,2.97897 -0.67737,3.81598c-2.09794,1.71623 -7.79757,0.7734 -10.33766,0.80872c-7.74525,0.10772 -15.49919,0.05597 -23.22648,0.60487c-2.758,0.2909 -5.38365,0.64944 -8.00129,1.34969c-0.00886,0.37343 -0.16373,0.85906 -0.83764,1.09416c-0.73117,0.25507 -1.16739,-0.10083 -1.39348,-0.40859c-0.08886,0.03104 -0.17775,0.06257 -0.26667,0.09459l-0.70559,0.53447c0,0 -1.03031,0.70776 -1.73809,-0.32255z" fill="#000000" stroke="none" stroke-width="0.5" stroke-linecap="butt"/><g fill="none" stroke="#b9b9b9" stroke-width="3"><path d="M249.0356,188.92057c-0.79894,-1.3751 0.13979,-2.57531 1.38796,-3.76749c1.24817,-1.19216 2.48309,-1.53834 3.13208,-0.54977c1.376,2.09606 -0.13342,3.04022 -1.11077,3.97371c-1.24818,1.19218 -2.28096,2.28556 -3.40926,0.34355z" stroke-linecap="butt"/><path d="M247.38991,190.81527l2.6421,-2.46472" stroke-linecap="round"/><path d="M243.83101,191.37027c1.24817,-1.19216 2.48309,-1.53834 3.13208,-0.54977c1.376,2.09606 -0.13342,3.04022 -1.11077,3.97371c-1.24817,1.19217 -2.28095,2.28556 -3.40925,0.34355c-0.79894,-1.3751 0.13978,-2.57531 1.38794,-3.7675z" stroke-linecap="butt"/><path d="M243.43944,194.56773l-2.6421,2.46474" stroke-linecap="round"/><path d="M235.18576,196.46267c0.43477,-1.62634 1.7693,-1.44377 3.27918,-0.95325c1.50988,0.49052 2.45762,1.48731 2.1886,2.72956c-0.57039,2.63392 -2.07024,1.73533 -3.25251,1.35125c-1.50988,-0.49051 -2.82928,-0.83073 -2.21526,-3.12754z" stroke-linecap="butt"/><path d="M236.14094,197.08852l-3.15751,-1.07445" stroke-linecap="round"/><path d="M228.07913,191.93728c0.92034,-1.29776 2.07843,-0.48623 3.29722,0.69502c1.2188,1.18125 1.76193,2.56109 1.11648,3.5827c-1.36856,2.16613 -2.44675,0.61157 -3.40112,-0.31339c-1.21881,-1.18126 -2.31233,-2.13157 -1.01258,-3.96432z" stroke-linecap="butt"/><path d="M228.74857,192.97694l-2.53313,-2.51537" stroke-linecap="round"/><path d="M221.70498,185.67795c0.92034,-1.29774 2.07843,-0.48623 3.29722,0.69502c1.21881,1.18125 1.76193,2.56109 1.11648,3.5827c-1.36855,2.16612 -2.44675,0.61157 -3.40112,-0.31339c-1.2188,-1.18125 -2.31232,-2.13157 -1.01257,-3.96432z" stroke-linecap="butt"/><path d="M222.37442,186.7176l-2.53314,-2.51537" stroke-linecap="round"/></g><g data-paper-data="{&quot;origRot&quot;:0}" stroke="#000000" stroke-linecap="round"><path d="M248.38767,223.66235c0,0 1.37239,-4.60034 2.83738,-4.11512c4.32293,1.43186 9.02477,1.20442 12.56613,4.06737c1.47057,1.18884 0.85598,5.43327 0.85598,5.43327l-5.81113,32.59381c0,0 -0.55617,3.37336 -0.94404,5.30031c-0.4147,2.06023 -2.36303,4.73562 -4.39209,4.18837c-7.45008,-2.00925 -12.46129,-1.88832 -16.78176,-4.32573c-1.57402,-0.88799 -3.18618,-1.93372 -3.36615,-3.73195c-0.23513,-2.34898 1.75062,-6.36678 1.75062,-6.36678z" data-paper-data="{&quot;origPos&quot;:null}" fill="#ff0000" stroke-width="3"/><path d="M256.9351,270.15511c0,0 -6.44336,0.7909 -11.31214,-0.68326c-3.73549,-1.13103 -11.52963,-4.56072 -11.52963,-4.56072c0,0 -0.53912,-2.88765 -0.16064,-4.44498c0.39871,-1.64056 2.15206,-3.74922 2.15206,-3.74922l22.54116,5.9918z" data-paper-data="{&quot;origPos&quot;:null}" fill="#976e57" stroke-width="2"/><path d="M248.37258,223.993c0,0 1.37239,-4.60035 2.83738,-4.11512c4.32292,1.43186 9.02477,1.20442 12.56613,4.0674c1.47057,1.18884 0.85598,5.43326 0.85598,5.43326l-5.81113,32.59381c0,0 -0.55616,3.37338 -0.94402,5.30032c-0.4147,2.06023 -2.36303,4.73561 -4.39209,4.18837c-7.45008,-2.00925 -12.4613,-1.88831 -16.78177,-4.32572c-1.57402,-0.88799 -3.18616,-1.93373 -3.36614,-3.73195c-0.23513,-2.34898 1.75061,-6.36678 1.75061,-6.36678z" data-paper-data="{&quot;origPos&quot;:null}" fill="#4b4b4b" stroke-width="3"/></g><g><g><g fill="#582700"><path d="M276.85787,191.61434c0.13795,-0.04166 -5.40029,1.51417 -10.6406,2.98696c-4.65357,1.30786 -9.07221,2.55025 -9.07221,2.55025c0,0 -3.87788,-7.25608 -3.11888,-9.84652c0.60887,-2.07804 14.73351,-4.81951 15.12288,-5.11483c1.34816,-1.02258 13.52823,5.55873 15.66982,6.23232c3.48244,1.09528 6.89551,13.06323 9.91376,21.0029c1.62778,4.28201 -27.59038,-14.87752 -17.87478,-17.81107z" stroke="#000000" stroke-width="3" stroke-linecap="round"/><path d="M278.66944,194.08056c-0.0902,0.59506 3.17223,3.88397 3.5445,4.29168c2.65471,2.90737 6.84426,6.87384 8.86579,10.49238c1.28034,2.29182 2.11643,1.42545 -0.58288,1.17647c-1.19537,-0.11026 -3.54048,-1.99787 -4.53875,-2.67979c-4.21465,-2.87905 -9.72164,-6.54619 -12.25895,-10.92304c-0.92277,-1.59178 0.55782,-7.40057 2.88346,-7.31134c0.18341,-0.09561 0.38177,-0.16984 0.5926,-0.21874c1.34501,-0.31195 2.68825,0.5255 3.0002,1.87052c0.54071,0.44089 0.27638,1.04293 -0.17207,1.62694c-0.19953,0.42445 -0.51672,0.79035 -0.92008,1.04721c-0.2233,0.25294 -0.38998,0.47049 -0.41382,0.62774z" stroke="none" stroke-width="0.5" stroke-linecap="butt"/></g><path d="M242.02491,205.43709c-1.08954,-4.48661 -0.20452,-3.29116 9.21121,-7.07837c9.41572,-3.78721 22.45979,-8.03996 22.45979,-8.03996c0,0 10.90115,20.11535 20.31008,18.33422c0.46415,-0.08786 -2.05737,6.04667 -3.78967,6.97731c-5.46832,2.93775 -19.21147,10.86849 -19.21147,10.86849c0,0 -10.46366,6.07093 -15.58039,6.63116c-5.11673,0.56022 -10.3156,-14.9931 -13.39958,-27.69281z" data-paper-data="{&quot;origPos&quot;:null}" fill="#582700" stroke="#000000" stroke-width="3" stroke-linecap="round"/><path d="M253.68211,197.79409c2.69163,0.23218 13.41867,30.65631 11.20006,31.56255" fill="none" stroke="#000000" stroke-width="3" stroke-linecap="round"/><path d="M256.8011,196.99193c4.75306,-0.30871 14.05737,30.24652 11.10556,30.90636" fill="none" stroke="#000000" stroke-width="3" stroke-linecap="round"/><path d="M270.02162,182.15507c-3.21713,0.76043 -6.30961,1.97024 -9.53208,2.71764c-1.3333,0.30924 -5.35575,0.98792 -6.16698,2.0899c-0.18983,0.25787 0.58317,1.90064 0.68848,2.1884c0.77629,2.12121 1.73639,4.21848 2.3046,6.40506c1.04831,-1.2907 3.61198,-1.03123 5.07758,-1.23368c2.68684,-0.37112 5.62998,-1.05765 8.22132,-1.90404c0.86632,-0.28296 1.61462,-0.60109 2.36738,-0.8102c0.09568,-0.04707 0.19079,-0.09478 0.28529,-0.14313c0.37162,-0.08821 0.74338,-0.17586 1.11529,-0.26286l-0.00013,-0.00053l1.20314,-0.27904c0.33225,-0.07706 0.66402,0.1298 0.74109,0.46203c0.07706,0.33223 -0.12979,0.66403 -0.46204,0.7411l-1.20314,0.27904l-0.00014,-0.00057c-0.28488,0.06545 -0.56989,0.13044 -0.85502,0.19488c-0.0673,0.02426 -0.13494,0.04775 -0.20301,0.07069c-3.34975,1.69401 -7.37861,2.6153 -11.05257,3.36066c-1.22142,0.24781 -2.8851,0.87465 -4.27646,0.91519c0.05276,0.03325 0.10554,0.06654 0.15831,0.09981c3.68389,5.27406 6.10225,11.65255 8.41671,17.62326c0.65575,2.85667 1.4802,5.64631 2.14374,8.5072c0.11225,0.48394 0.70391,2.40198 0.29497,3.11774c0.31749,-0.24796 0.78951,-0.59985 0.91895,-0.64753c0.71741,-0.26428 1.21341,-0.61727 1.9401,-0.95147c5.39966,-2.23937 10.5025,-5.04703 15.69658,-7.66871c1.72437,-1.41557 5.01815,-2.67651 5.93955,-4.9457c0.15483,-0.3813 -0.63619,-1.94826 -0.7783,-2.36639c-0.8171,-2.40424 -1.22705,-5.1092 -2.38237,-7.36747c-0.83238,-3.55001 -2.79012,-6.81405 -4.35691,-10.08496c-0.87385,-1.82431 -1.6136,-3.4755 -3.66414,-4.13084c-3.48011,-0.52928 -6.98446,-2.70348 -10.09959,-4.33937c-0.90605,-0.47581 -1.58807,-1.21467 -2.48022,-1.63607zM268.86699,181.17012c0.00025,-0.00106 0.00051,-0.00214 0.00077,-0.00319c0.14422,-0.60046 0.74469,-0.45622 0.74469,-0.45622c0.17311,0.04333 0.33702,0.09614 0.49366,0.15666l0.41991,-0.0974c0,0 0.60157,-0.13952 0.7411,0.46205c0.02445,0.10543 0.02613,0.19664 0.01229,0.27542c0.57949,0.39404 1.12352,0.84207 1.79994,1.19201c3.05865,1.58239 6.4012,3.70004 9.80674,4.22931c2.73165,0.88998 3.5789,3.01152 4.79478,5.38775c1.5523,3.03369 3.33803,6.27553 4.10163,9.60588c1.26801,2.47855 1.57868,5.42282 2.53919,8.03245c0.22485,0.61092 0.88167,1.7101 0.66673,2.39503c-0.83804,2.67054 -4.55976,4.11524 -6.46569,5.70763c-5.22025,2.69802 -10.42976,5.50914 -15.88434,7.77023c-0.69134,0.30715 -3.71652,2.40695 -4.49001,1.61847c-0.31012,-0.31614 -0.02876,-2.57869 -0.17249,-3.1892c-0.73139,-3.10689 -1.58217,-6.12994 -2.30698,-9.22469c-2.23491,-5.76549 -4.5498,-11.9885 -8.08718,-17.0916c-0.12795,-0.07804 -0.2559,-0.1561 -0.38385,-0.23416l-0.63094,-0.15155c-0.22584,-0.04926 -0.41464,-0.22391 -0.47034,-0.46405c-0.06276,-0.27061 0.06282,-0.54092 0.2911,-0.67354l0.23177,-0.14198c-1.55973,-1.92935 -2.12072,-5.07986 -2.92218,-7.35598c-0.25946,-0.73685 -0.9163,-1.78476 -0.42284,-2.61026c0.89605,-1.49896 5.35191,-2.27219 6.936,-2.6396c2.92847,-0.67922 5.75042,-1.74071 8.65648,-2.49951z" fill="#000000" stroke="none" stroke-width="0.5" stroke-linecap="butt"/><path d="M270.01234,182.11498c0.89216,0.42141 1.57845,1.1595 2.48451,1.63532c3.11514,1.63589 6.64348,3.81442 10.1236,4.34371c2.05054,0.65534 2.80125,2.3148 3.6751,4.13912c1.56678,3.27091 3.53572,6.56143 4.3681,10.11144c1.15533,2.25827 1.56275,4.97924 2.37985,7.38348c0.14211,0.41813 0.93164,1.98862 0.77682,2.36992c-0.9214,2.2692 -4.22432,3.54254 -5.9487,4.95812c-5.19407,2.62169 -10.33002,5.44001 -15.72968,7.67936c-0.72668,0.33421 -1.22585,0.68668 -1.94327,0.95096c-0.12942,0.04768 -0.60275,0.39929 -0.92024,0.64725c0.40894,-0.71575 -0.18464,-2.6343 -0.29688,-3.11824c-0.66354,-2.86089 -1.49982,-5.65614 -2.15558,-8.51281c-2.31444,-5.97071 -4.74818,-12.39718 -8.43208,-17.67124c-0.05276,-0.03325 -0.1055,-0.06661 -0.15826,-0.09989c1.39135,-0.04055 3.05788,-0.67357 4.2793,-0.92137c3.67396,-0.74535 7.73367,-1.68721 11.08341,-3.38121c0.06807,-0.02294 0.13653,-0.04654 0.20382,-0.07077c0.28513,-0.06444 0.57349,-0.12961 0.85838,-0.19507l0.00013,0.00056l1.20768,-0.27887c0.33225,-0.07706 0.53016,-0.32701 0.45311,-0.65925c-0.07706,-0.33223 -0.40617,-0.53885 -0.73841,-0.46179l-1.199,0.27909l0.00013,0.00053c-0.37192,0.087 -0.73972,0.17431 -1.11134,0.26251c-0.0945,0.04834 -0.18855,0.09589 -0.28422,0.14298c-0.75278,0.20914 -1.49246,0.52484 -2.35879,0.80781c-2.59135,0.84638 -5.51601,1.51824 -8.20285,1.88936c-1.4656,0.20244 -4.10092,-0.09668 -5.14923,1.19402c-0.56821,-2.18658 -1.52417,-4.29132 -2.30046,-6.41253c-0.10533,-0.28779 -0.87701,-1.93232 -0.68717,-2.19019c0.81123,-1.10198 4.84056,-1.78758 6.17386,-2.09681c3.22247,-0.74741 6.33123,-1.96505 9.54836,-2.72548z" data-paper-data="{&quot;noHover&quot;:false,&quot;origItem&quot;:[&quot;Path&quot;,{&quot;applyMatrix&quot;:true,&quot;segments&quot;:[[[230.82308,152.52668],[0,0],[-0.93988,0.74338]],[[228.33766,155.1429],[0.94139,-0.81156],[-3.23664,2.79023]],[[217.57953,163.04819],[3.97209,-1.58115],[-2.24615,1.33801]],[[214.37799,168.94085],[0.53327,-2.39813],[-0.95612,4.29976]],[[211.99064,182.06795],[0.01066,-4.42845],[-0.7472,2.98879]],[[211.1937,191.43817],[0.307,-3.06867],[-0.05339,0.53367]],[[210.92223,194.45142],[-0.2878,-0.40863],[1.71279,2.43186]],[[219.30646,198.67289],[-2.42854,-1.20161],[6.86452,1.67648]],[[239.98146,203.43859],[-7.00284,-1.16771],[0.95146,0.19601]],[[242.53788,204.03192],[-0.9213,-0.11581],[0.16621,0.02089]],[[243.80278,204.54585],[-0.44366,-0.20624],[-0.68022,-0.7346]],[[243.29624,200.77631],[0,0.60336],[0,-3.56681]],[[243.49813,190.12314],[0.00805,3.55968],[1.09986,-7.69905]],[[248.62011,166.96343],[-2.91121,7.25063],[0.05329,-0.05383]],[[248.78,166.80192],[-0.05329,0.05384],[-1.65725,0.33382]],[[243.46938,166.89261],[1.51307,-0.04199],[-4.5512,0.1263]],[[229.47086,165.94945],[4.42793,1.08501],[-0.08683,-0.00846]],[[229.21129,165.92152],[0.08627,0.01022],[-0.35502,0.00201]],[[228.14624,165.92558],[0.35502,-0.00073],[0,0]],[228.14624,165.92629],[[226.64624,165.92629],[0,0],[-0.41422,0]],[[225.89624,165.17629],[0,0.41422],[0,-0.41422]],[[226.64624,164.42629],[-0.41422,0],[0,0]],[228.14624,164.42629],[[228.14624,164.42695],[0,0],[0.46388,0.00087]],[[229.53787,164.4319],[-0.46387,-0.00238],[0.12507,0.03126]],[[229.91467,164.52296],[-0.12612,-0.02945],[0.948,0.04085]],[[232.93787,164.8319],[-1.10259,-0.09705],[3.29808,0.29029]],[[243.18703,164.82862],[-3.28065,0.2982],[1.78951,-0.16266]],[[249.53285,164.89489],[-1.59443,-1.23936],[0.07225,-2.74287]],[[250.50186,156.68464],[-0.33637,2.72263],[0.04564,-0.36937]],[[250.71591,153.90661],[0.29535,0.25299],[-1.26215,-1.08115]],[[242.84624,153.12628],[1.66228,0],[-4.0176,0]],[[230.82306,152.52665],[4.01487,0.01687],[0,0]]],&quot;closed&quot;:true,&quot;fillColor&quot;:[0,0,0,1]}]}" fill="#66c8ff" stroke="none" stroke-width="0.5" stroke-linecap="butt"/><path d="M262.5471,213.5667c-0.28433,-0.18439 -0.36504,-0.53239 -0.36504,-0.53239l-0.18603,-0.80209c-0.04032,-0.17468 -0.08423,-0.34776 -0.13139,-0.51934l-0.23791,-0.59471l0.04943,-0.01978c-1.49342,-2.82699 -3.35796,-6.06727 -4.38694,-9.21019c-0.01938,-0.0539 -0.03841,-0.1079 -0.05715,-0.16202c-0.05729,-0.09937 -0.11408,-0.1991 -0.17028,-0.29918l-0.05621,0.03444l-0.57289,-0.93515c-0.05014,-0.07771 -0.08793,-0.16522 -0.11003,-0.26048c-0.05206,-0.22445 -0.00694,-0.44873 0.10786,-0.62876l-0.01157,0.00268l-0.17443,-0.75207c-0.15791,-0.24661 -0.31735,-0.49057 -0.47814,-0.73174c0,0 -0.45582,-0.6857 0.22988,-1.14153c0.68569,-0.45583 1.14151,0.22989 1.14151,0.22989c0.01277,0.01926 0.02553,0.03854 0.03829,0.05783c0.19295,0.06826 0.35741,0.2073 0.45503,0.39328l0.40638,0.73302l-0.02176,0.01205l0.04728,0.03794c0.0834,0.21515 0.17008,0.42879 0.25954,0.64114c1.30384,2.16597 2.48584,4.48635 3.4799,6.86627c0.34173,0.59072 0.66633,1.19194 0.96244,1.81109c1.68324,4.33384 3.53498,9.11372 4.27673,13.70189c0.33869,2.09503 0.84404,3.47754 0.54543,5.19523l0.26125,0.02459l-0.10278,1.09208c-0.02478,0.35114 -0.2747,0.66015 -0.63551,0.74383c-0.44298,0.10274 -0.88537,-0.17308 -0.98811,-0.61605l-0.21262,-0.91667c-1.03383,-4.49957 -2.31308,-8.95192 -3.36213,-13.45511z" fill="#ffffff" stroke="none" stroke-width="0.5" stroke-linecap="butt"/><g fill="#fffc96" stroke="#000000" stroke-width="2" stroke-linecap="round"><path d="M270.01617,194.75138c0,0 -0.52734,-4.51936 2.54515,-4.95288c4.91583,-0.6936 6.69334,33.39762 1.6329,34.42313c-2.0676,0.41901 -2.98648,-2.77907 -2.98648,-2.77907l1.85098,-0.61271c0,0 1.11387,-6.38744 0.88158,-14.33837c-0.22908,-7.84076 -1.82712,-12.94976 -1.82712,-12.94976z"/><path d="M261.88159,198.41152c0,0 -3.13199,-2.66724 -1.15528,-3.99587c4.14939,-2.78899 31.17823,23.67058 26.66453,25.35152c-2.7336,1.01803 -4.66226,-2.15034 -4.66226,-2.15034l1.34514,-0.49025c0,0 -3.31215,-4.63989 -9.52649,-10.52588c-6.21434,-5.88601 -11.46552,-8.80139 -11.46552,-8.80139z" data-paper-data="{&quot;index&quot;:null}"/></g></g><g data-paper-data="{&quot;index&quot;:null}"><g data-paper-data="{&quot;index&quot;:null}"><path d="M249.21608,198.01558c2.39448,-0.83029 5.43688,-6.41453 6.20797,-4.19077c0.39274,1.13271 7.16551,21.96223 6.80922,23.23022c-0.34322,1.22129 -1.09906,2.17842 -2.27385,2.58579c-0.79928,0.27714 -2.1628,0.31719 -3.1296,-0.01682c-1.92957,-0.66662 -13.96449,-19.52309 -14.4782,-21.00459c-0.77109,-2.22378 4.47,0.22646 6.86448,-0.60382z" fill="#0091d4" stroke="#000000" stroke-width="1.5" stroke-linecap="butt"/><g stroke-linecap="butt"><path d="M246.68722,190.65186c4.33823,-1.50429 8.66023,-0.40164 9.65346,2.46283c0.99325,2.86446 -1.71837,6.40603 -6.05657,7.91034c-4.33823,1.50428 -8.66025,0.40163 -9.6535,-2.46284c-0.99325,-2.86446 1.71838,-6.40603 6.05659,-7.91031z" fill="#0091d4" stroke="#000000" stroke-width="1.5"/><path d="M246.462,200.7395c0,0 -1.76074,0.18518 -3.38145,-0.63349c-0.76723,-0.4019 -2.09726,-1.98381 -2.09726,-1.98381l4.08025,0.35348z" fill="#00aeff" stroke="none" stroke-width="0"/><path d="M250.11015,200.15909l-1.91405,0.60628c0,0 -0.52249,-0.6389 -0.69268,-1.0434c-0.14535,-0.34547 -0.38417,-1.38876 -0.38417,-1.38876l1.68278,-0.24668z" fill="#00aeff" stroke="none" stroke-width="0"/></g><g><path d="M248.99761,196.9629c-5.9847,2.07518 -13.49707,0.04689 -15.57225,-5.93775c-2.07519,-5.98469 0.6934,-11.69242 6.67805,-13.7676c5.9847,-2.07518 12.82517,0.98775 14.90035,6.97239c2.07519,5.98469 -0.02147,10.65777 -6.00611,12.73295z" fill="#00699a" stroke="#000000" stroke-width="1.5" stroke-linecap="butt"/><path d="M238.36366,178.79702c0,0 1.9483,0.90978 4.56227,2.41494c2.60763,1.5015 5.25221,4.18226 6.15892,6.79711c1.81563,5.23612 0.94073,7.70865 -3.40755,9.21643c-2.11544,0.73352 -4.47712,0.27196 -6.31871,-0.88728c-2.58486,-1.62711 -5.09756,-4.20338 -6.12713,-7.17265c-1.81563,-5.23612 5.13219,-10.36858 5.13219,-10.36858z" fill="#0091d4" stroke="none" stroke-width="0" stroke-linecap="butt"/><path d="M254.14122,184.98065c0,0 -1.90844,4.75134 -8.97362,6.92254c-7.00777,2.15356 -11.38571,-0.92818 -11.38571,-0.92818" fill="none" stroke="#000000" stroke-width="0.8" stroke-linecap="round"/><path d="M254.55378,191.16282c0,0 -1.75483,2.92319 -8.40658,4.16103c-4.61564,0.85893 -9.46847,-0.02683 -9.46847,-0.02683" fill="none" stroke="#000000" stroke-width="0.75" stroke-linecap="round"/><path d="M252.77473,182.19199c0,0 -1.29673,2.76488 -8.16034,4.45821c-7.13605,1.76055 -11.48909,-0.64088 -11.48909,-0.64088" fill="none" stroke="#000000" stroke-width="0.8" stroke-linecap="round"/><path d="M234.27334,182.2156c0,0 4.55702,-1.63327 9.38079,-2.00299c3.66226,-0.28073 8.58716,0.633 8.58716,0.633" fill="none" stroke="#000000" stroke-width="0.8" stroke-linecap="round"/><path d="M244.73774,177.2554c0,0 3.81882,1.60444 5.62169,7.57179c1.93197,6.39471 0.66413,10.55588 0.66413,10.55588" fill="none" stroke="#000000" stroke-width="0.8" stroke-linecap="round"/><path d="M247.91951,196.99206c0,0 -1.32286,-3.12907 -1.87742,-5.07784c-0.46689,-1.64074 -0.79042,-4.95907 -1.53039,-7.91363c-0.84147,-3.35969 -2.0761,-6.27984 -2.0761,-6.27984" fill="none" stroke="#000000" stroke-width="0.8" stroke-linecap="round"/><path d="M245.14427,197.82121c0,0 -3.75598,-3.31587 -5.81004,-9.8261c-1.30871,-4.14787 0.1819,-9.86124 0.1819,-9.86124" fill="none" stroke="#000000" stroke-width="0.8" stroke-linecap="round"/><path d="M239.34559,197.0355c0,0 -2.59436,-2.61758 -3.65443,-8.81101c-0.73613,-4.3009 0.54262,-8.41978 0.54262,-8.41978" fill="none" stroke="#000000" stroke-width="0.8" stroke-linecap="round"/><path d="M234.81434,189.15218c-0.42672,0.14797 -0.91105,-0.13122 -1.08178,-0.62361c-0.17074,-0.49237 0.03679,-1.01147 0.46354,-1.15945c0.42672,-0.14797 0.91106,0.13121 1.08178,0.6236c0.17074,0.49237 -0.0368,1.0115 -0.46353,1.15947z" fill="#00aeff" stroke="none" stroke-width="0" stroke-linecap="butt"/><path d="M234.52202,185.52501c-0.24618,0.08537 -0.51496,-0.04499 -0.60033,-0.29119c-0.08537,-0.24618 0.04501,-0.51496 0.2912,-0.60032c0.24618,-0.08537 0.51495,0.04501 0.60033,0.29118c0.08537,0.24618 -0.04499,0.51496 -0.29119,0.60034z" fill="#00aeff" stroke="none" stroke-width="0" stroke-linecap="butt"/></g></g><path d="M246.87952,201.34c4.19858,10.38793 4.17607,12.45423 4.17607,12.45423c0.45552,1.32978 -0.87821,1.64497 -0.87821,1.64497c0,0 -2.51193,0.92716 -4.1197,1.52058c-1.05572,0.38969 -2.70514,0.99848 -2.70514,0.99848c0,0 -1.09932,0.21168 -1.33245,-0.51965c-1.40242,-4.39972 -2.97699,-8.52885 -3.47079,-10.80575c-0.16462,-0.75897 0.57898,-1.92694 0.57898,-1.92694l4.86128,-2.44817c0,0 1.93484,-1.11909 2.88995,-0.91771z" fill="#582700" stroke="#000000" stroke-width="3" stroke-linecap="round"/><path d="M259.74225,198.08571c8.19121,21.66286 8.26987,25.91029 8.26987,25.91029c0.9004,2.76721 -1.49289,3.31949 -1.49289,3.31949c0,0 -4.48816,1.7261 -7.36078,2.83092c-1.8863,0.72546 -4.83339,1.8589 -4.83339,1.8589c0,0 -1.97541,0.3563 -2.43912,-1.16427c-2.78977,-9.14811 -5.87513,-17.75222 -6.89948,-22.46984c-0.34145,-1.57253 0.93554,-3.92089 0.93554,-3.92089l8.64807,-4.68501c0,0 3.43364,-2.16227 5.17217,-1.67956z" fill="#582700" stroke="#000000" stroke-width="3" stroke-linecap="round"/></g></g><path d="M242.11253,166.57789c1.34921,-1.67577 2.59116,-2.91492 2.77397,-2.76773c0.18281,0.1472 -0.76274,1.62498 -2.11195,3.30075c-1.34921,1.67577 -2.59116,2.91493 -2.77397,2.76774c-0.18281,-0.14718 0.76275,-1.62499 2.11196,-3.30076z" data-paper-data="{&quot;index&quot;:null}" fill="none" stroke="#000000" stroke-width="2.5" stroke-linecap="butt"/><g><g stroke="#000000" stroke-width="3" stroke-linecap="round"><path d="M191.07616,209.84116l17.10123,-24.77013c0,0 3.31761,-4.6534 4.46338,-4.52448c3.43728,0.38674 8.61191,4.39298 14.55489,7.32188c0.98784,0.48683 -1.11745,6.02468 -1.11745,6.02468c0,0 -3.69688,8.56687 -6.06306,14.05011c-3.60347,8.35042 -9.23344,21.39696 -9.23344,21.39696c0,0 -2.66205,6.7704 -4.4089,5.73115c0,0 -9.95471,-0.74669 -22.60266,-11.98074c1.11718,-4.47017 7.30601,-13.24943 7.30601,-13.24943z" data-paper-data="{&quot;origPos&quot;:null}" fill="#582700"/><path d="M190.20921,211.75612l22.48918,12.44819l-1.60523,2.9995l-22.57512,-12.20427z" data-paper-data="{&quot;origPos&quot;:null}" fill="none"/></g><path d="M191.06872,211.69826l21.25994,-30.78971l13.84709,7.63476l0.80176,1.20119l-13.87202,34.15821z" fill="#66c8ff" stroke="#000000" stroke-width="1" stroke-linecap="round"/><path d="M188.91849,214.67426l1.1111,-2.04926l22.41775,12.15471l-1.11109,2.04927z" fill="#ffffff" stroke="none" stroke-width="0" stroke-linecap="butt"/></g><path d="M228.125,171.0625c0.75,0 0.75,0.75 0.75,0.75l-0.07918,-0.08541c1.07081,2.21234 3.16676,2.85288 5.38184,2.23684c0,0 0.72357,-0.19734 0.92091,0.52623c0.19734,0.72357 -0.52623,0.92091 -0.52623,0.92091c-2.94486,0.78939 -5.67153,-0.18876 -7.11816,-3.01316l-0.07918,-0.58541c0,0 0,-0.75 0.75,-0.75z" fill="#000000" stroke="none" stroke-width="0.5" stroke-linecap="butt"/></g></g></svg>