<svg version="1.1" xmlns="http://www.w3.org/2000/svg" xmlns:xlink="http://www.w3.org/1999/xlink" width="189.26654" height="221.55319" viewBox="0,0,189.26654,221.55319"><g transform="translate(-205.36673,-69.22341)"><g data-paper-data="{&quot;isPaintingLayer&quot;:true}" fill-rule="nonzero" stroke-linejoin="miter" stroke-miterlimit="10" stroke-dasharray="" stroke-dashoffset="0" style="mix-blend-mode: normal"><path d="M205.36673,290.77659v-221.55318h189.26654v221.55319z" fill="none" stroke="none" stroke-width="NaN" stroke-linecap="butt"/><g stroke="#000000" stroke-linecap="round"><path d="M295.0346,194.6414c0,0 -28.79047,1.72573 -26.21192,-16.069c0.95002,-6.55617 16.7739,-2.60387 16.7739,-2.60387z" data-paper-data="{&quot;origPos&quot;:null}" fill="#66c8ff" stroke-width="2"/><path d="M288.78542,181.90271c0,0 -15.47056,-4.2061 -15.17447,-4.78273c0.93883,-1.82827 12.51119,0.45079 12.51119,0.45079z" data-paper-data="{&quot;origPos&quot;:null}" fill="#0a0a0a" stroke-width="1"/></g><g data-paper-data="{&quot;origRot&quot;:0}" stroke="#000000" stroke-linecap="round"><path d="M301.85074,232.65186c0,0 -2.21424,-4.19598 -0.79208,-4.84037c4.19661,-1.90148 7.50887,-5.238 12.13245,-5.59471c1.91995,-0.14814 4.44403,3.28318 4.44403,3.28318l18.57698,27.08695c0,0 1.95609,2.77285 3.02163,4.40416c1.13925,1.74414 1.57767,4.96103 -0.30453,5.94223c-6.91079,3.60274 -10.5262,7.07249 -15.4265,8.25771c-1.78526,0.43179 -3.70935,0.77725 -5.1039,-0.37915c-1.82166,-1.51055 -3.17429,-5.70669 -3.17429,-5.70669z" data-paper-data="{&quot;origPos&quot;:null}" fill="#ff0000" stroke-width="3"/><path d="M340.78153,259.92062c0,0 -4.20285,4.9129 -8.8322,7.15292c-3.55179,1.7186 -11.71322,4.54422 -11.71322,4.54422c0,0 -2.42407,-1.68809 -3.23722,-3.05037c-0.85662,-1.43509 -1.04139,-4.11758 -1.04139,-4.11758l20.84811,-10.96271z" data-paper-data="{&quot;origPos&quot;:null}" fill="#976e57" stroke-width="2"/><path d="M302.07158,232.89703c0,0 -2.21424,-4.19598 -0.79208,-4.84036c4.19661,-1.90147 7.50887,-5.23801 12.13246,-5.59469c1.91995,-0.14814 4.44402,3.28318 4.44402,3.28318l18.57697,27.08695c0,0 1.95612,2.77285 3.02166,4.40415c1.13925,1.74414 1.57767,4.96102 -0.30453,5.94223c-6.91079,3.60274 -10.5262,7.0725 -15.42649,8.25772c-1.78526,0.43179 -3.70935,0.77722 -5.10388,-0.37917c-1.82166,-1.51055 -3.1743,-5.70667 -3.1743,-5.70667z" data-paper-data="{&quot;origPos&quot;:null}" fill="#4b4b4b" stroke-width="3"/></g><path d="M283.30906,265.64708c0,0 -1.48369,4.15491 -3.3519,5.61184c-1.43019,1.11534 -3.34257,0.71414 -5.11346,0.23067c-4.86088,-1.32707 -8.36575,-4.90032 -15.16037,-8.70226c-1.85054,-1.03547 -1.3114,-4.23814 -0.11796,-5.94837c1.11623,-1.59959 3.15843,-4.31432 3.15843,-4.31432l19.41833,-26.53473c0,0 2.63056,-3.3564 4.54498,-3.15254c4.61028,0.49092 7.81634,3.92216 11.95138,5.94474c1.4013,0.68543 -0.94357,4.81513 -0.94357,4.81513c0,0 -3.63758,8.10406 -5.96582,13.29109c-3.28604,7.32086 -8.42006,18.75878 -8.42006,18.75878z" fill="#4b4b4b" stroke="#000000" stroke-width="3" stroke-linecap="round"/><g><g><path d="M286.00802,195.10255c0,0 4.09978,-12.4187 6.36097,-12.62176c6.78356,-0.60916 21.59596,2.12011 31.58845,3.3974c1.54474,0.19745 0.87018,12.26715 0.87018,12.26715l-2.74644,27.1597c0,0 -1.97413,13.18315 -3.65929,12.96774c-15.00097,-1.91751 -32.70965,-3.41529 -39.2711,-5.00935c-2.18714,-0.53135 0.98813,-14.27935 0.98813,-14.27935z" data-paper-data="{&quot;origPos&quot;:null}" fill="#66c8ff" stroke="#000000" stroke-width="3.5" stroke-linecap="round"/><path d="M303.83153,204.74516c-1.30506,-0.16683 -0.93589,-2.35395 -0.93589,-2.35395c0.7657,-4.53626 1.77752,-10.53058 2.54321,-15.06684c0,0 0.36918,-2.18712 1.67424,-2.0203c1.30506,0.16683 0.9359,2.35394 0.9359,2.35394c-0.7657,4.53626 -1.53139,9.0725 -2.2971,13.60876l-0.24612,1.45808c0,0 -0.36918,2.18713 -1.67425,2.02031z" fill="#ffffff" stroke="none" stroke-width="0.5" stroke-linecap="butt"/><path d="M315.01607,211.86353c-1.30506,-0.16683 -0.84128,-2.91446 -0.84128,-2.91446c0.96192,-5.69882 2.23306,-13.22939 3.19499,-18.92819c0,0 0.46378,-2.74764 1.76887,-2.58082c1.30506,0.16683 0.84128,2.91446 0.84128,2.91446c-0.96192,5.69882 -1.92388,11.39763 -2.8858,17.09645l-0.30918,1.83176c0,0 -0.46378,2.74765 -1.76887,2.58083z" fill="#ffffff" stroke="none" stroke-width="0.5" stroke-linecap="butt"/></g><g fill="none" stroke="#b9b9b9" stroke-width="3"><path d="M321.01237,190.02382c-0.63455,-1.30097 0.46934,-2.2553 1.88574,-3.16831c1.41641,-0.91298 2.71175,-1.08148 3.24355,-0.13794c1.12752,2.00058 -0.52203,2.66595 -1.63112,3.38084c-1.41642,0.91299 -2.60202,1.76273 -3.49817,-0.07458z" stroke-linecap="butt"/><path d="M319.10379,191.51224l2.99076,-1.8807" stroke-linecap="round"/><path d="M315.42709,191.60755c1.41641,-0.91298 2.71176,-1.08147 3.24355,-0.13794c1.12752,2.00058 -0.52203,2.66595 -1.63112,3.38084c-1.4164,0.91299 -2.602,1.76272 -3.49817,-0.07459c-0.63455,-1.30097 0.46933,-2.25532 1.88574,-3.16832z" stroke-linecap="butt"/><path d="M311.63274,196.26429l2.99074,-1.88072" stroke-linecap="round"/><path d="M306.01926,195.1405c0.64748,-1.38589 1.97647,-1.07713 3.44395,-0.47743c1.46749,0.59971 2.30094,1.58357 1.87029,2.64914c-0.9131,2.25931 -2.31849,1.3009 -3.46755,0.83132c-1.46748,-0.5997 -2.76108,-1.04579 -1.84666,-3.00302z" stroke-linecap="butt"/><path d="M306.90747,195.79811l-3.06265,-1.29704" stroke-linecap="round"/><path d="M299.39427,190.36329c1.09768,-1.04239 2.16785,-0.1986 3.2525,0.97794c1.08465,1.17653 1.4594,2.45335 0.6754,3.2827c-1.66231,1.75846 -2.557,0.26831 -3.40633,-0.65294c-1.08465,-1.17654 -2.07175,-2.13558 -0.52158,-3.60769z" stroke-linecap="butt"/><path d="M297.69363,188.8557l2.24663,2.49844" stroke-linecap="round"/><path d="M293.73208,184.13828c1.09767,-1.04237 2.16784,-0.1986 3.2525,0.97794c1.08466,1.17654 1.4594,2.45335 0.6754,3.2827c-1.66231,1.75845 -2.557,0.26831 -3.40633,-0.65294c-1.08465,-1.17653 -2.07174,-2.13557 -0.52155,-3.60768z" stroke-linecap="butt"/><path d="M292.03146,182.63069l2.24664,2.49844" stroke-linecap="round"/></g></g><g><g data-paper-data="{&quot;index&quot;:null}" stroke="#000000" stroke-width="2.5" stroke-linecap="round"><path d="M289.34319,151.75442c1.52,-4.41717 4.55194,-5.42523 4.55194,-5.42523c0,0 2.75043,-1.50356 4.34951,-1.39342c4.7973,0.33049 18.43757,1.91506 30.06151,4.36892c0.38794,0.0819 0.60299,0.142 0.98539,0.24684c1.14711,0.31458 5.57508,1.73244 5.57508,1.73244c0,0 1.30406,3.5209 1.56896,5.3778c0.79472,5.57066 -2.47018,19.06618 -4.71492,33.42807c-0.20344,1.30173 -2.22714,3.32244 -2.22714,3.32244c0,0 -3.45158,1.18758 -5.4997,0.8789c-13.24147,-1.99555 -27.88488,-4.25222 -31.20505,-4.98792c-1.10672,-0.2452 -3.58983,-1.07114 -5.20785,-2.69534c-1.61805,-1.6242 -3.00081,-3.44449 -2.7839,-5.32695c0.2169,-1.8825 2.88302,-24.69343 4.54618,-29.52655z" fill="#582700"/><path d="M291.38361,136.17392c1.52,-4.41717 4.55191,-5.4252 4.55191,-5.4252c0,0 2.75043,-1.50355 4.34956,-1.39338c4.79733,0.33049 18.43756,1.91503 30.0615,4.36892c0.38794,0.08187 0.603,0.142 0.9854,0.24684c1.14711,0.31458 5.57508,1.73244 5.57508,1.73244c0,0 1.30406,3.5209 1.56896,5.3778c0.79472,5.57066 -2.47019,19.06618 -4.71489,33.42808c-0.20344,1.30173 -2.22711,3.32241 -2.22711,3.32241c0,0 -3.45158,1.18761 -5.49971,0.87894c-13.24147,-1.99555 -27.88487,-4.25222 -31.20505,-4.98792c-1.10672,-0.24525 -3.58983,-1.07114 -5.20786,-2.69538c-1.61805,-1.6242 -3.00081,-3.44446 -2.78393,-5.32695c0.21688,-1.88246 2.88304,-24.69343 4.54618,-29.52658z" fill="#000000"/></g><path d="M299.38896,171.96931c4.77099,-2.31554 8.96332,0.01604 10.42068,4.8564c1.67142,5.55132 -2.26092,8.55072 -2.26092,8.55072c0,0 -2.519,-1.16003 -5.75196,-1.64508c-4.02555,-0.60396 -6.2593,-0.21563 -6.2593,-0.21563c0,0 -2.62086,-8.40512 3.8515,-11.54641z" fill="#ffffff" stroke="#0a0a0a" stroke-width="2" stroke-linecap="butt"/><path d="M325.89216,175.56342c5.892,4.12836 1.97084,12.01121 1.97084,12.01121c0,0 -2.14384,-0.73779 -6.21423,-0.78015c-3.26898,-0.03403 -5.94011,0.71168 -5.94011,0.71168c0,0 -3.40666,-3.58529 -0.87568,-8.80113c2.20683,-4.54783 6.71598,-6.18476 11.05917,-3.14162z" data-paper-data="{&quot;index&quot;:null}" fill="#ffffff" stroke="#0a0a0a" stroke-width="2" stroke-linecap="butt"/></g><g data-paper-data="{&quot;index&quot;:null}"><g><path d="M335.38443,194.81445c0,0 11.17741,19.73739 8.8317,31.762c-0.70688,3.62356 -10.25472,10.24622 -11.15746,10.60072c-3.89841,1.53089 -23.07566,-12.32414 -23.07566,-12.32414c0,0 -8.90668,-5.82726 -11.56806,-9.53705c7.54867,-14.96681 16.44587,-19.28958 16.44587,-19.28958c1.22967,-1.59519 6.15405,3.66939 6.15405,3.66939l14.98898,14.48767l-2.30492,-2.14793c0,0 -13.41616,-12.86045 -11.22962,-13.263c2.01181,-0.37039 12.87651,-6.81359 12.91511,-3.95809z" fill="#582700" stroke="#000000" stroke-width="2.5" stroke-linecap="round"/><path d="M332.18796,211.42983c-0.90008,1.26442 -1.98188,2.45209 -3.08691,3.47873c-2.75113,3.19273 -5.81382,6.64243 -8.93951,9.50253c-0.89167,0.81591 -1.75104,1.6466 -2.61794,2.48971c-0.29191,0.28389 -1.11296,0.82763 -1.39945,1.01159c1.25229,0.47297 2.51875,1.58673 3.82591,1.80887c0.15373,0.02614 0.39224,-0.09969 0.6635,-0.30083c0.68587,-0.88057 1.51103,-1.68969 1.86037,-2.10782c3.62181,-4.98706 8.17466,-9.09568 12.03083,-13.85769c-0.29019,-0.4497 -1.22567,-1.08985 -1.3021,-1.15391c-0.34633,-0.29022 -0.69282,-0.57858 -1.03471,-0.87118zM331.18912,210.54073c-0.37155,-0.34786 -0.73111,-0.70898 -1.0717,-1.09228c0,0 -0.2115,-0.23852 -0.17682,-0.53185c-2.18925,-1.93522 -4.25489,-4.05828 -6.04267,-6.08276c-0.92712,-0.79612 -2.27094,-1.78001 -1.7208,-3.17713c0.39588,-1.00534 2.22389,-1.89532 3.13785,-2.30343c2.93198,-1.30921 5.9124,-2.56016 8.8612,-3.79624c2.00407,0.30048 1.99821,2.15238 2.59896,3.86085c1.30892,3.72247 2.72412,7.39722 4.02855,11.12271c1.28314,2.50509 1.71825,5.11848 2.68567,7.70534c1.33985,3.58277 2.31197,6.46539 1.7484,10.34198c-2.54101,4.54317 -8.57941,9.95305 -14.10337,9.92815c-3.32502,0.92037 -6.30331,-1.47486 -9.02665,-3.04792c-0.45648,-0.26367 -2.25704,-0.94994 -2.4526,-1.38631c-0.13892,-0.31001 -0.10969,-0.67683 0.0275,-1.06918c-1.43396,-0.24923 -2.87337,-1.42393 -4.20004,-1.94328c-1.52062,-1.72138 1.16357,-3.23463 2.5976,-4.59259c3.48038,-3.29574 6.96559,-6.86592 10.06044,-10.49125c1.08863,-1.01141 2.1722,-2.18956 3.04849,-3.44476zM322.55038,229.36347c-0.77457,0.96575 -1.71248,2.14716 -1.68414,2.1637c2.67099,1.55928 6.83732,4.51683 10.09729,3.66784c5.10175,0.02299 10.53326,-4.93854 13.01381,-9.0381c0.43975,-3.5397 -0.51594,-6.16003 -1.73384,-9.4395c-0.95687,-2.57659 -1.39008,-5.15798 -2.66377,-7.65111c-1.32646,-3.74888 -2.73901,-7.45548 -4.06039,-11.20412c-0.18274,-0.51843 -0.79646,-3.07045 -1.12628,-2.99084c-2.95579,1.46751 -6.20745,2.36519 -9.10464,3.94907c-0.23795,0.13009 -2.14819,1.30587 -1.94789,1.62286c0.32565,0.51539 1.0257,1.04178 1.49157,1.44098c3.59574,4.0405 8.76383,6.79768 12.01918,11.00586c-0.16305,0.64926 -0.42158,1.30569 -0.8515,1.81881l-0.33908,0.59292c0,0 -0.05508,0.09539 -0.15925,0.18619c-1.12396,2.37061 -4.12166,4.62039 -5.69287,6.01334c-2.61767,2.41624 -4.49141,5.45517 -7.21655,7.82534c-0.01372,0.01194 -0.02761,0.0242 -0.04166,0.03676z" fill="#000000" stroke="none" stroke-width="0.5" stroke-linecap="butt"/><path d="M329.12343,214.87025c1.10504,-1.02664 2.18977,-2.21243 3.08985,-3.47685c0.34189,0.29261 0.69246,0.58415 1.03879,0.87437c0.07643,0.06404 1.01652,0.70894 1.30671,1.15863c-3.85619,4.76201 -8.46234,8.93918 -12.08416,13.92623c-0.34933,0.41812 -1.17755,1.22563 -1.86342,2.1062c-0.27126,0.20114 -0.51132,0.32601 -0.66505,0.29989c-1.30716,-0.22216 -2.58549,-1.34702 -3.83778,-1.81999c0.28648,-0.18395 1.10757,-0.72765 1.39947,-1.01155c0.86691,-0.84311 1.72449,-1.67639 2.61617,-2.49231c3.12568,-2.8601 6.24827,-6.3719 8.9994,-9.56463z" data-paper-data="{&quot;noHover&quot;:false,&quot;origItem&quot;:[&quot;Path&quot;,{&quot;applyMatrix&quot;:true,&quot;segments&quot;:[[[926.17844,407.1979],[3.2606,1.25965],[-0.27949,0.97418]],[[925.31465,410.11917],[0.29084,-0.97519],[-0.06418,0.21521]],[[924.29914,413.90358],[-0.01258,-1.20526],[13.15638,4.16543]],[[964.1057,425.02121],[-12.99513,-4.87922],[1.17537,0.35239]],[[970.21765,426.67451],[-2.3817,-0.804],[0.75941,0.04146]],[[971.83798,426.41666],[-0.25651,0.23985],[2.18115,-2.03947]],[[976.78433,418.26967],[-1.76682,2.44279],[-0.76669,0.00973]],[[972.89889,418.10481],[0.90089,0.17138],[-2.67549,-0.50896]],[[964.88923,416.67374],[2.68829,0.42712],[-9.42353,-1.49721]],[[936.29671,409.90591],[9.13228,2.58714],[-3.35077,-0.55846]]],&quot;closed&quot;:true}]}" fill="#ffffff" stroke="none" stroke-width="0.5" stroke-linecap="butt"/><path d="M334.56109,215.45133c0.04075,0.0374 0.17506,0.0499 0.23281,0.08325c0.57679,0.33304 0.82382,-0.22164 0.82382,-0.22164l0.34005,-0.58963c0.42992,-0.51313 0.69182,-1.16207 0.85486,-1.81133c-3.25537,-4.20817 -8.37017,-6.94532 -11.96591,-10.98582c-0.46587,-0.39921 -1.19735,-1.00861 -1.52302,-1.52401c-0.2003,-0.31699 1.71544,-1.49459 1.9534,-1.62469c2.89719,-1.58389 6.16888,-2.48216 9.12466,-3.94967c0.3298,-0.07961 0.94723,2.47332 1.12998,2.99175c1.32138,3.74864 2.75613,7.47005 4.08258,11.21892c1.27369,2.49312 1.71672,5.10221 2.67358,7.6788c1.21789,3.27947 2.16602,5.92475 1.72626,9.46445c-2.48054,4.09955 -7.94662,9.08062 -13.04837,9.05763c-3.25996,0.84901 -7.45194,-2.11515 -10.12295,-3.67444c-0.04685,-0.02734 2.59433,-3.31703 2.72358,-3.47184c3.3257,-4.57166 7.35708,-8.36546 10.99465,-12.64175z" data-paper-data="{&quot;noHover&quot;:false,&quot;origItem&quot;:[&quot;Path&quot;,{&quot;applyMatrix&quot;:true,&quot;segments&quot;:[[[926.61254,417.73069],[12.14285,3.5238],[-0.03018,0.12086]],[[926.46822,418.11346],[0.06716,-0.13431],[-0.67082,1.34164]],[924.45576,418.78428],[[923.08279,418.0906],[0,0],[-1.44471,-0.43097]],[[919.22563,415.72869],[1.11205,1.01797],[0.89694,-11.9485]],[[928.15956,380.1298],[-1.74473,12.05571],[0.38029,-1.32836]],[[929.175,375.57071],[0.02742,1.37277],[-0.01686,-0.84429]],[[923.5003,374.93752],[0.60865,-0.05075],[-7.41054,0.61792]],[[901.48814,378.8123],[7.37628,-0.90935],[-0.71866,0.25961]],[[903.08234,385.83106],[-0.2998,-1.20115],[2.16779,8.68513]],[[909.35292,411.92731],[-2.15853,-8.69186],[0.69956,6.26621]],[[913.83986,429.61277],[-1.39861,-6.02998],[1.78014,7.67491]],[[922.29365,449.50563],[-5.21858,-6.1072],[9.74892,4.62723]],[[957.96755,450.34516],[-9.56021,6.37347],[7.18055,-2.44927]],[[972.39433,430.92276],[-3.08539,6.24485],[0.05411,-0.10951]],[[963.14745,427.86406],[0.43501,0.13058],[-11.92317,-4.46591]]],&quot;closed&quot;:true}]}" fill="#66c8ff" stroke="none" stroke-width="0.5" stroke-linecap="butt"/></g><g data-paper-data="{&quot;index&quot;:null}" fill="#fffc96" stroke="#000000" stroke-width="2" stroke-linecap="round"><path d="M332.74358,211.22147c-0.32682,-0.63493 -0.82899,-1.33774 -1.55686,-2.25137c4.0487,-3.89329 6.6366,-7.30758 6.6366,-7.30758l-0.61143,-1.54556c0,0 2.49749,-1.30356 3.34676,0.26591c0.92633,1.71188 -2.99136,6.4386 -7.81507,10.83861z"/><path d="M344.86411,211.4529c0.60289,1.70216 -5.04783,2.34303 -11.6213,2.16286c0.05001,-0.90041 -0.08696,-1.60837 -0.52072,-2.43573c5.32383,0.16528 8.70422,-0.28629 8.70422,-0.28629l-0.41618,-1.14977c0,0 3.02184,-0.6405 3.85399,1.70895z" data-paper-data="{&quot;index&quot;:null}"/></g></g><path d="M297.81134,190.43344c-0.82665,2.01954 -2.59971,3.21459 -3.96023,2.66923c-1.36051,-0.54536 -1.79332,-2.62462 -0.96665,-4.64415c0.82665,-2.01954 2.59971,-3.21459 3.96023,-2.66923c1.36051,0.54536 1.79332,2.62462 0.96665,4.64415z" fill="#ff8484" stroke="#000000" stroke-width="1" stroke-linecap="butt"/><g data-paper-data="{&quot;index&quot;:null}"><path d="M278.72433,185.23945c0.9364,-2.83687 9.75041,7.00798 11.64118,8.01012c2.05499,1.08917 -15.37452,9.70182 -15.37452,9.70182l-2.97508,1.41828l19.51043,-9.74161c0,0 6.56859,-3.70421 7.29387,-1.72598c0,0 7.51774,7.11058 10.34309,24.41698c-3.82184,2.86451 -14.5406,5.87791 -14.5406,5.87791c0,0 -23.49027,7.79344 -26.89844,5.04022c-0.78921,-0.63756 -8.23293,-10.24739 -7.79881,-14.08498c1.44063,-12.73486 18.79888,-28.91279 18.79888,-28.91279z" fill="#582700" stroke="#000000" stroke-width="2.5" stroke-linecap="round"/><path d="M276.68901,202.8222c-0.43312,0.18445 -0.8695,0.3632 -1.30631,0.54385c-0.0964,0.03987 -1.23104,0.38442 -1.66197,0.74185c2.35004,5.96373 5.60063,11.49461 7.64608,17.60918c0.21706,0.52702 0.78593,1.59379 1.19336,2.68802c0.2074,0.28598 0.4058,0.48651 0.5674,0.50877c1.37405,0.18937 2.98784,-0.52363 4.386,-0.60175c-0.22799,-0.27361 -0.8762,-1.07429 -1.07818,-1.44934c-0.59983,-1.11378 -1.19605,-2.2128 -1.82914,-3.30724c-2.21925,-3.83645 -4.19026,-8.24134 -5.93121,-12.29188c-0.77969,-1.37178 -1.48559,-2.8969 -1.98604,-4.44148zM277.96511,202.24921c0.47961,1.5279 1.19026,3.04407 1.95839,4.39551c1.94787,4.59025 4.30256,9.2482 6.73871,13.63082c1.00378,1.80578 3.20603,4.15962 1.14761,5.39894c-1.48695,0.10101 -3.29246,0.82042 -4.80154,0.61819c0.0135,0.43461 -0.07268,0.8098 -0.30877,1.0754c-0.33232,0.37389 -2.34458,0.49244 -2.88294,0.61196c-3.21179,0.71317 -6.93646,2.16645 -9.96453,0.20267c-5.51924,-1.71211 -9.84284,-9.0084 -10.94952,-14.34026c0.65667,-4.045 2.53298,-6.6154 4.99636,-9.76871c1.77863,-2.27679 3.03452,-4.74743 5.10243,-6.84335c2.4729,-3.30687 5.04037,-6.52825 7.51682,-9.8307c1.1366,-1.51568 1.71307,-3.36523 3.80706,-3.03486c2.55342,2.1605 5.13372,4.34576 7.64737,6.57394c0.78356,0.69457 2.32757,2.15733 2.40643,3.28486c0.10958,1.56694 -1.54056,2.12603 -2.71592,2.62882c-2.42028,1.45774 -5.14882,2.92644 -7.94159,4.16888c-0.05765,0.30355 -0.34366,0.47504 -0.34366,0.47504c-0.46035,0.27534 -0.93264,0.5226 -1.41273,0.75282zM280.6356,223.69577c-1.97369,-3.22168 -2.8876,-6.84289 -4.73956,-10.07673c-1.12963,-1.88383 -3.41311,-5.07109 -3.78909,-7.78974c-0.07538,-0.12335 -0.10034,-0.23585 -0.10034,-0.23585l-0.15186,-0.6982c-0.26759,-0.64714 -0.31912,-1.38337 -0.27764,-2.08242c4.57118,-3.175 10.59448,-4.30087 15.45255,-7.20154c0.59033,-0.25181 1.45431,-0.55687 1.9413,-0.96869c0.29952,-0.25329 -1.23668,-2.02705 -1.43318,-2.23167c-2.39257,-2.49128 -5.35459,-4.40936 -7.84221,-6.80296c-0.30404,-0.18314 -1.71881,2.1701 -2.06416,2.62989c-2.49711,3.32462 -5.07195,6.57864 -7.57419,9.9019c-2.05474,2.08695 -3.29867,4.52626 -5.06354,6.79612c-2.24632,2.88907 -4.02379,5.20292 -4.69805,8.87286c1.18586,4.87023 5.04492,11.52838 10.1423,13.10963c2.9856,1.87214 8.07244,0.23136 11.22766,-0.48451c0.03345,-0.00759 -0.53082,-1.48123 -0.99996,-2.68834c-0.01007,-0.01694 -0.02006,-0.03354 -0.03,-0.04977z" fill="#000000" stroke="none" stroke-width="0.5" stroke-linecap="butt"/><path d="M278.66478,207.21839c1.74096,4.05055 3.7522,8.53623 5.97145,12.37268c0.63311,1.09445 1.22673,2.19549 1.82655,3.30928c0.20198,0.37504 0.85024,1.17567 1.07823,1.44929c-1.39818,0.07812 -3.02729,0.79847 -4.40134,0.60911c-0.1616,-0.02227 -0.36183,-0.22235 -0.56924,-0.50834c-0.40742,-1.09424 -0.97984,-2.16034 -1.19691,-2.68735c-2.04546,-6.11457 -5.32769,-11.73061 -7.67773,-17.69433c0.43092,-0.35742 1.57167,-0.70524 1.66806,-0.74512c0.4368,-0.18066 0.87825,-0.36129 1.31136,-0.54575c0.50045,1.54457 1.20986,3.06875 1.98957,4.44054z" data-paper-data="{&quot;noHover&quot;:false,&quot;origItem&quot;:[&quot;Path&quot;,{&quot;applyMatrix&quot;:true,&quot;segments&quot;:[[[926.17844,407.1979],[3.2606,1.25965],[-0.27949,0.97418]],[[925.31465,410.11917],[0.29084,-0.97519],[-0.06418,0.21521]],[[924.29914,413.90358],[-0.01258,-1.20526],[13.15638,4.16543]],[[964.1057,425.02121],[-12.99513,-4.87922],[1.17537,0.35239]],[[970.21765,426.67451],[-2.3817,-0.804],[0.75941,0.04146]],[[971.83798,426.41666],[-0.25651,0.23985],[2.18115,-2.03947]],[[976.78433,418.26967],[-1.76682,2.44279],[-0.76669,0.00973]],[[972.89889,418.10481],[0.90089,0.17138],[-2.67549,-0.50896]],[[964.88923,416.67374],[2.68829,0.42712],[-9.42353,-1.49721]],[[936.29671,409.90591],[9.13228,2.58714],[-3.35077,-0.55846]]],&quot;closed&quot;:true}]}" fill="#ffffff" stroke="none" stroke-width="0.5" stroke-linecap="butt"/><path d="M280.05134,222.15852c0.08028,0.1951 1.68104,4.30779 1.6257,4.32035c-3.15524,0.71587 -8.26974,2.35515 -11.25533,0.48302c-5.09738,-1.58127 -8.9848,-8.26977 -10.17064,-13.13999c0.67427,-3.66993 2.45202,-6.01108 4.69834,-8.90013c1.76488,-2.26986 3.02729,-4.73372 5.08203,-6.82067c2.50223,-3.32326 5.10389,-6.58507 7.60098,-9.9097c0.34534,-0.45978 1.76411,-2.81277 2.06814,-2.62963c2.48762,2.39359 5.46941,4.31858 7.86198,6.80986c0.19651,0.20463 1.7376,1.98195 1.43809,2.23522c-0.48699,0.41182 -1.40845,0.78984 -1.99877,1.04165c-4.85806,2.90066 -10.82192,4.02329 -15.3931,7.19829c-0.04147,0.69905 0.01579,1.42886 0.28338,2.07601l0.15389,0.69521c0,0 0.07205,0.63109 0.75226,0.48017c0.0681,-0.01509 0.20604,0.01466 0.25847,-0.00984c2.28466,5.41039 5.11396,10.46317 6.9946,16.07019z" data-paper-data="{&quot;noHover&quot;:false,&quot;origItem&quot;:[&quot;Path&quot;,{&quot;applyMatrix&quot;:true,&quot;segments&quot;:[[[926.61254,417.73069],[12.14285,3.5238],[-0.03018,0.12086]],[[926.46822,418.11346],[0.06716,-0.13431],[-0.67082,1.34164]],[924.45576,418.78428],[[923.08279,418.0906],[0,0],[-1.44471,-0.43097]],[[919.22563,415.72869],[1.11205,1.01797],[0.89694,-11.9485]],[[928.15956,380.1298],[-1.74473,12.05571],[0.38029,-1.32836]],[[929.175,375.57071],[0.02742,1.37277],[-0.01686,-0.84429]],[[923.5003,374.93752],[0.60865,-0.05075],[-7.41054,0.61792]],[[901.48814,378.8123],[7.37628,-0.90935],[-0.71866,0.25961]],[[903.08234,385.83106],[-0.2998,-1.20115],[2.16779,8.68513]],[[909.35292,411.92731],[-2.15853,-8.69186],[0.69956,6.26621]],[[913.83986,429.61277],[-1.39861,-6.02998],[1.78014,7.67491]],[[922.29365,449.50563],[-5.21858,-6.1072],[9.74892,4.62723]],[[957.96755,450.34516],[-9.56021,6.37347],[7.18055,-2.44927]],[[972.39433,430.92276],[-3.08539,6.24485],[0.05411,-0.10951]],[[963.14745,427.86406],[0.43501,0.13058],[-11.92317,-4.46591]]],&quot;closed&quot;:true}]}" fill="#66c8ff" stroke="none" stroke-width="0.5" stroke-linecap="butt"/></g><path d="M297.8145,266.92954c0.92856,0.12776 5.31662,5.00662 5.97312,5.67563c2.7161,2.76788 -0.1416,-1.2719 -0.68996,1.04249c-0.04248,0.17931 -3.72482,-0.60473 -3.72147,-0.3622c0.02154,1.55931 -3.50418,-1.11602 -3.98374,-0.03264c-1.73556,3.92091 -8.20633,1.01089 -11.7185,0.57754l-1.83294,-1.08649c0,0 -0.01415,-0.01061 -0.03853,-0.03112c-3.16788,1.35269 -8.08616,-0.37246 -11.41147,-0.36888c-4.81052,0 -9.36594,-0.64811 -14.12406,-1.0044c-5.34433,-0.40019 -12.01696,0.92386 -17.11048,-1.40721c-1.28269,-0.58703 -4.66641,-0.02168 -5.93516,-0.63826c-1.11563,-0.54216 -0.89981,0.8812 -2.02385,0.3567c-0.95024,-0.44339 -4.15825,0.38276 -4.98737,-0.2592c0.15286,-1.17627 -5.65394,0.15363 -5.04142,-0.86214c0.69137,-1.14653 11.55229,-6.21233 12.4849,-7.17293c0.48011,-0.49453 2.36251,-0.49131 2.716,-0.70445c1.23584,-0.74516 0.61835,-1.89395 4.0875,-1.80687c2.33691,0.05866 3.41944,-3.43686 5.85593,-3.8174c1.28362,-0.20048 3.24733,-0.18899 4.52793,-0.40793c3.42955,-0.58635 7.04312,-0.73477 10.54895,-0.47954c0.01519,-0.35425 0.03686,-0.71089 0.00113,-1.04637v-0.25c0,0 0,-1.33886 1.17107,-1.67443c0.56342,-0.5226 1.20707,-0.99823 1.37229,-1.71268c0.18126,-0.78383 -0.45683,-1.79354 0.05665,-2.41289c0.45886,-0.55347 5.26136,-2.40627 6.09402,-2.36317c0.48929,0.02533 2.99556,1.92185 3.80598,1.91317c1.329,-0.01424 3.03628,-1.77432 4.36069,-1.66317c2.02568,0.17001 2.8999,2.29702 4.43714,3.10561c2.81942,1.48304 5.49184,-1.21466 7.09764,2.71181c0.3268,0.79908 0.05841,1.72565 0.08761,2.58847c-0.46868,1.67955 -1.28401,2.83409 -2.03156,4.10195c1.44139,-0.65381 2.40566,3.87335 4.47196,4.15764z" fill="#000000" stroke="none" stroke-width="0.5" stroke-linecap="butt"/><path d="M272.8338,227.18358l-0.13846,-0.15057c0.54182,-0.99335 -1.4099,-6.74724 -0.74115,-7.48866c0.60541,-0.67119 3.8276,3.66783 4.40278,2.84866c0.38294,-0.54537 -1.01213,-5.24611 -0.80625,-5.7422c0.24141,-0.58171 2.08412,3.04297 2.61666,2.40953c0.61266,-0.72871 1.63658,-1.18921 1.94768,-2.089c0.78269,-2.26378 -0.84571,-3.61983 0.41087,-6.11858c0.52844,-1.05082 2.07323,-1.27638 2.70026,-2.27153c0.57337,-0.91002 -0.50968,-3.9448 -0.35948,-5.02516c0.22622,-1.62712 -2.05861,-6.31772 -1.30913,-7.39631c1.15112,-1.65659 5.65497,0.58695 7.71351,-0.52049c1.02491,-0.55138 2.12353,-1.23802 3.26859,-1.86782c10.3003,-7.88519 5.65881,-2.65418 8.51768,-0.98721c1.86967,1.0902 2.75561,3.50159 3.72265,5.29913c2.05217,3.81465 4.21302,8.30505 5.52791,12.45586c0.56247,1.77562 1.20231,5.1168 0.23816,6.84661c-0.57241,1.02699 -2.6213,1.99694 -3.65784,2.55772c-5.89322,3.15659 -13.44426,5.42332 -20.00409,6.69151c-3.52504,0.68148 -6.61832,0.8562 -9.78462,2.097c-0.45812,1.25597 -1.8849,1.04044 -1.8849,1.04044l-0.10793,-0.11737c-0.3278,0.14418 -1.57376,0.57966 -2.28931,-0.75047c-0.40028,-0.74406 -0.24808,-1.32218 0.01644,-1.7211z" data-paper-data="{&quot;index&quot;:null}" fill="#000000" stroke="none" stroke-width="0.5" stroke-linecap="butt"/><g fill="#000000" stroke="none" stroke-width="0" stroke-linecap="butt"><path d="M250.05009,234.56739c-0.46357,0.49306 -1.67075,0.11109 -2.6963,-0.85314c-1.02555,-0.96422 -1.48113,-2.14559 -1.01756,-2.63864c0.46357,-0.49306 1.67074,-0.11109 2.6963,0.85314c1.02555,0.96422 1.48113,2.14559 1.01756,2.63864z"/><path d="M243.7296,233.13246c-0.29669,0.31555 -1.12875,0.01518 -1.85848,-0.67091c-0.72972,-0.68609 -1.08077,-1.49808 -0.78408,-1.81363c0.29669,-0.31555 1.12875,-0.01518 1.85848,0.67091c0.72972,0.68609 1.08077,1.49808 0.78408,1.81363z"/></g><g fill="#000000" stroke="none" stroke-width="0" stroke-linecap="butt"><path d="M257.499,190.09857c-0.40984,0.43591 -1.47709,0.09821 -2.38378,-0.75425c-0.90668,-0.85247 -1.30946,-1.8969 -0.89962,-2.33281c0.40984,-0.43591 1.47709,-0.09821 2.38378,0.75425c0.90668,0.85247 1.30946,1.8969 0.89962,2.33281z"/><path d="M251.9111,188.82995c-0.2623,0.27898 -0.99793,0.01342 -1.64307,-0.59314c-0.64514,-0.60657 -0.9555,-1.32444 -0.6932,-1.60342c0.2623,-0.27898 0.99793,-0.01342 1.64307,0.59314c0.64514,0.60657 0.9555,1.32444 0.6932,1.60342z"/></g></g></g></svg>