<svg version="1.1" xmlns="http://www.w3.org/2000/svg" xmlns:xlink="http://www.w3.org/1999/xlink" width="350" height="350" viewBox="0,0,350,350"><defs><linearGradient x1="-835.01851" y1="-895.01851" x2="663.06255" y2="603.06255" gradientUnits="userSpaceOnUse" id="color-1"><stop offset="0" stop-color="#b00000"/><stop offset="1" stop-color="#b00000" stop-opacity="0"/></linearGradient></defs><g transform="translate(-65,-5)"><g data-paper-data="{&quot;isPaintingLayer&quot;:true}" fill-rule="nonzero" stroke-linejoin="miter" stroke-miterlimit="10" stroke-dasharray="" stroke-dashoffset="0" style="mix-blend-mode: normal"><path d="M415,5c0,0 0,37.75759 0,68.25c0,61.95443 0,281.75 0,281.75h-350v-350z" data-paper-data="{&quot;index&quot;:null}" fill-opacity="0.01569" fill="#ffffff" stroke="none" stroke-width="0" stroke-linecap="butt"/><path d="M242.43096,325.17002l-147.60098,-147.60098l142.73906,-142.73906l147.60098,147.60098z" data-paper-data="{&quot;index&quot;:null}" fill="url(#color-1)" stroke="none" stroke-width="0" stroke-linecap="butt"/><path d="M95.75022,180l144.24978,-144.24978l144.24978,144.24978l-144.24978,144.24978z" data-paper-data="{&quot;index&quot;:null}" fill="none" stroke="#000000" stroke-width="14.5" stroke-linecap="butt"/><text transform="translate(168.68295,214.29649) scale(2.85804,2.85804)" font-size="40" xml:space="preserve" fill="#9966ff" fill-rule="nonzero" stroke="none" stroke-width="1" stroke-linecap="butt" stroke-linejoin="miter" stroke-miterlimit="10" stroke-dasharray="" stroke-dashoffset="0" font-family="Sans Serif" font-weight="normal" text-anchor="start" style="mix-blend-mode: normal"><tspan x="0" dy="0">🎶</tspan></text><g data-paper-data="{&quot;index&quot;:null}" fill="none" stroke="#000000" stroke-width="5" stroke-linecap="round"><path d="M209.9063,235.85908c0,0 1.59062,32.9978 0.98474,36.38089c-0.60588,3.38309 -6.42077,-6.02751 -6.42077,-6.02751"/><path d="M217.26221,266.56955c0,0 -3.51073,6.38653 -6.50452,6.21325"/></g><g data-paper-data="{&quot;index&quot;:null}" fill="none" stroke="#000000" stroke-width="5" stroke-linecap="round"><path d="M233.58004,234.04556c0,0 1.59062,32.99782 0.98474,36.3809c-0.60588,3.38308 -6.42077,-6.02752 -6.42077,-6.02752"/><path d="M240.93594,264.75603c0,0 -3.51074,6.38653 -6.50453,6.21324"/></g><g data-paper-data="{&quot;index&quot;:null}" fill="none" stroke="#000000" stroke-width="5" stroke-linecap="round"><path d="M259.25453,234.00951c0,0 1.59062,32.99781 0.98474,36.38089c-0.60588,3.38309 -6.42077,-6.02751 -6.42077,-6.02751"/><path d="M266.61044,264.71999c0,0 -3.51074,6.38653 -6.50453,6.21324"/></g></g></g></svg>