<svg version="1.1" xmlns="http://www.w3.org/2000/svg" xmlns:xlink="http://www.w3.org/1999/xlink" width="173" height="208" viewBox="0,0,173,208"><defs><radialGradient cx="262.81563" cy="143.60015" r="43.87922" gradientUnits="userSpaceOnUse" id="color-1"><stop offset="0" stop-color="#8f8256"/><stop offset="1" stop-color="#8d681f"/></radialGradient><radialGradient cx="263.09866" cy="150.17863" r="18.68929" gradientUnits="userSpaceOnUse" id="color-2"><stop offset="0" stop-color="#0c0b0b"/><stop offset="1" stop-color="#533907"/></radialGradient><radialGradient cx="291.12053" cy="144.29434" r="15.62237" gradientUnits="userSpaceOnUse" id="color-3"><stop offset="0" stop-color="#36270c"/><stop offset="1" stop-color="#0c0b0b"/></radialGradient><radialGradient cx="234.75277" cy="145.09814" r="15.62237" gradientUnits="userSpaceOnUse" id="color-4"><stop offset="0" stop-color="#36270c"/><stop offset="1" stop-color="#0c0b0b"/></radialGradient></defs><g transform="translate(-153.5,-76)"><g data-paper-data="{&quot;isPaintingLayer&quot;:true}" fill-rule="nonzero" stroke-linejoin="miter" stroke-miterlimit="10" stroke-dasharray="" stroke-dashoffset="0" style="mix-blend-mode: normal"><path d="M234.57658,226.65831c0,0 -0.83429,-4.93415 0.86298,-5.15974c5.00834,-0.66572 9.59964,-3.05728 14.51296,-2.0237c2.04029,0.42922 3.46141,4.67957 3.46141,4.67957l9.82216,33.14559c0,0 1.06184,3.40949 1.5982,5.38959c0.5735,2.11709 -0.09116,5.51962 -2.38209,5.94873c-8.41142,1.5755 -13.3631,4.01102 -18.8512,3.73608c-1.9994,-0.10016 -4.11259,-0.33001 -5.15493,-1.92672c-1.36155,-2.08569 -1.30333,-6.75982 -1.30333,-6.75982z" fill="#000000" stroke="#000000" stroke-width="3" stroke-linecap="round"/><path d="M230.70746,262.66591c0,0 0.25625,4.66443 -1.0161,6.8149c-0.97398,1.64628 -3.07606,1.98106 -5.0699,2.18065c-5.47283,0.54786 -10.52442,-1.63744 -18.99704,-2.79176c-2.30755,-0.31438 -3.11593,-3.67892 -2.63254,-5.82146c0.45214,-2.00394 1.36881,-5.46137 1.36881,-5.46137l8.41141,-33.58667c0,0 1.24014,-4.31499 3.2609,-4.8452c4.8663,-1.27679 9.55591,0.88263 14.58913,1.29793c1.70569,0.14073 1.081,5.10929 1.081,5.10929z" fill="#000000" stroke="#000000" stroke-width="3" stroke-linecap="round"/><g data-paper-data="{&quot;index&quot;:null}"><g data-paper-data="{&quot;index&quot;:null}"><path d="M217.0321,170.76308c-0.61572,-3.40786 11.7852,-16.0038 14.26568,-16.02912c2.6959,-0.02752 12.21241,12.88578 12.21241,12.88578l-2.24581,3.09074l14.4842,-20.71776c0,0 4.64156,-7.40744 6.47486,-5.79364c0,0 11.59197,3.08373 24.04516,19.1494c-2.30819,5.0324 -11.55946,14.03239 -11.55946,14.03239c0,0 -19.61604,20.93527 -24.61105,20.01638c-4.99495,-0.91885 -32.48816,-23.43632 -33.06595,-26.63423z" fill="#68330c" stroke="none" stroke-width="3" stroke-linecap="round"/><path d="M255.78081,149.65893c0,0 5.47357,-6.69317 7.25438,-5.08021c0,0 11.35952,3.19492 23.38517,19.17165c-1.26126,2.65011 -4.52163,6.40528 -7.26045,9.30508c-0.3998,-0.35814 -0.76955,-0.67493 -1.07585,-0.93367c-6.78911,-5.7349 -16.78462,-12.94522 -23.93793,-19.43954c-0.07088,-0.06437 1.63471,-3.02332 1.63471,-3.02332z" fill="#ffddb7" stroke="#000000" stroke-width="2" stroke-linecap="butt"/><path d="M255.28252,151.91549l24.17154,20.58386l-2.57349,2.73411l-24.09335,-20.14182z" data-paper-data="{&quot;index&quot;:null}" fill="#ffffff" stroke="#000000" stroke-width="2" stroke-linecap="round"/><path d="M217.28069,170.71159c-0.61571,-3.40784 11.78519,-16.00378 14.26568,-16.0291c2.69588,-0.02752 12.2124,12.88578 12.2124,12.88578l-2.24581,3.09076l14.48419,-20.71777c0,0 4.64155,-7.40746 6.47484,-5.79367c0,0 11.59197,3.08373 24.04516,19.1494c-2.3082,5.0324 -11.55943,14.03241 -11.55943,14.03241c0,0 -19.61603,20.93526 -24.61105,20.01637c-4.99494,-0.91885 -32.48816,-23.43632 -33.06595,-26.63423z" data-paper-data="{&quot;origPos&quot;:null}" fill="none" stroke="#000000" stroke-width="2.5" stroke-linecap="round"/></g><g stroke-linecap="butt"><path d="M283.1872,111.5448c0,0 0.60249,6.9001 -3.16621,6.94586c-1.16265,0.01412 -6.82794,1.74077 -9.53175,-0.06074c-1.33297,-0.88813 3.09781,-4.29275 0.35937,-8.45597c-0.58037,-0.88232 -17.41712,-1.54788 -17.37308,1.61588c0.15852,11.39175 -4.31343,6.45936 -5.01709,6.66816c-9.28366,2.7548 -6.70963,-6.20995 -6.70963,-6.20995l-0.09864,-8.12518l41.43841,-0.50321z" fill="#8c651a" stroke="#000000" stroke-width="2.5"/><g stroke="#000000"><path d="M219.21206,165.67581l-0.6137,-50.53775l87.75196,-1.06557l0.61368,50.53771z" fill="#121010" stroke-width="3"/><path d="M219.24648,169.4018l-0.61369,-50.53773l87.75197,-1.06558l0.61369,50.53775z" fill="url(#color-1)" stroke-width="2.5"/></g><path d="M251.74725,169.00712l-0.45386,-37.37583l23.15675,-0.28119l0.45386,37.37584z" fill="url(#color-2)" stroke="#000000" stroke-width="2.5"/><path d="M275.57136,144.56609c0.15148,-8.63195 7.23589,-15.75105 15.82345,-15.90112c8.58761,-0.15009 15.42643,6.72582 15.27497,15.35767c-0.15148,8.63193 -7.2359,15.75102 -15.82346,15.9011c-8.58762,0.15005 -15.42644,-6.72584 -15.27497,-15.35771z" fill="url(#color-3)" stroke="none" stroke-width="0"/><path d="M219.20356,145.36991c0.15146,-8.63191 7.23591,-15.75102 15.82346,-15.9011c8.58756,-0.15008 15.42643,6.72583 15.27497,15.35769c-0.15148,8.6319 -7.23592,15.75102 -15.82346,15.9011c-8.58756,0.15004 -15.4264,-6.72586 -15.27494,-15.35772z" fill="url(#color-4)" stroke="none" stroke-width="0"/></g></g><g data-paper-data="{&quot;index&quot;:null}" stroke="#000000"><path d="M213.46093,178.77673c0,0 1.81966,-14.41173 4.02742,-14.97233c3.52905,-0.89614 9.50276,-0.78996 15.83098,-0.69722c5.5485,0.08131 11.36953,0.05595 16.0543,0.6343c1.81701,0.22431 3.08218,14.51533 3.08218,14.51533l1.48884,28.00834c0,0 0.5823,16.97307 -1.1244,16.97307c-15.19282,0 -32.99981,0.87248 -39.77159,0.01196c-2.25724,-0.28683 -1.40993,-16.41167 -1.40993,-16.41167z" fill="#68330c" stroke-width="2.5" stroke-linecap="round"/><g><g><path d="M226.63163,163.11664h19.00404v8.89074c-0.29006,1.24583 -0.5134,2.26948 -0.64249,2.79528c-1.26833,5.16634 -8.60108,26.31688 -9.25428,29.83072c-3.14253,-10.72744 -6.16295,-21.6183 -9.10727,-32.54359z" fill="#ffffff" stroke-width="2" stroke-linecap="butt"/><path d="M231.71971,164.01203h8.51527v2.25267c-0.12997,0.30292 -3.96,6.98763 -4.25269,7.84202c-1.4081,-2.60836 -2.9433,-5.22803 -4.26258,-7.88449z" fill="#ffddb7" stroke-width="1.5" stroke-linecap="butt"/><path d="M235.79185,200.63357l0.3525,-26.79042" fill="none" stroke-width="1.5" stroke-linecap="round"/><path d="M235.8692,204.10528v18.54721" fill="none" stroke-width="2" stroke-linecap="round"/><path d="M236.53638,176.97374c0,-0.28257 0.22908,-0.51165 0.51165,-0.51165c0.28257,0 0.51164,0.22908 0.51164,0.51165c0,0.28257 -0.22907,0.51164 -0.51164,0.51164c-0.28257,0 -0.51165,-0.22907 -0.51165,-0.51164z" fill="#000000" stroke-width="0.5" stroke-linecap="butt"/><path d="M236.42268,183.11352c0,-0.28257 0.22907,-0.51164 0.51164,-0.51164c0.28257,0 0.51165,0.22907 0.51165,0.51164c0,0.28257 -0.22908,0.51165 -0.51165,0.51165c-0.28257,0 -0.51164,-0.22908 -0.51164,-0.51165z" fill="#000000" stroke-width="0.5" stroke-linecap="butt"/><path d="M236.40304,189.2533c0,-0.28257 0.22908,-0.51165 0.51165,-0.51165c0.28257,0 0.51164,0.22908 0.51164,0.51165c0,0.28257 -0.22907,0.51165 -0.51164,0.51165c-0.28257,0 -0.51165,-0.22908 -0.51165,-0.51165z" fill="#000000" stroke-width="0.5" stroke-linecap="butt"/><path d="M236.89227,219.95213c0,-0.28257 0.22907,-0.51164 0.51164,-0.51164c0.28257,0 0.51165,0.22907 0.51165,0.51164c0,0.28257 -0.22908,0.51165 -0.51165,0.51165c-0.28257,0 -0.51164,-0.22908 -0.51164,-0.51165z" fill="#000000" stroke-width="0.5" stroke-linecap="butt"/><path d="M236.64523,213.69865c0,-0.28257 0.22908,-0.51164 0.51165,-0.51164c0.28257,0 0.51165,0.22907 0.51165,0.51164c0,0.28257 -0.22908,0.51165 -0.51165,0.51165c-0.28257,0 -0.51165,-0.22908 -0.51165,-0.51165z" fill="#000000" stroke-width="0.5" stroke-linecap="butt"/><path d="M235.53388,206.23992l-17.66667,-27.33334l5.33333,-4.66666l-3,-5.66667l5.33334,-2.66666" fill="none" stroke-width="2" stroke-linecap="round"/><path d="M246.03435,165.72217l4.96346,2.68866l-2.38085,5.65425l3.95609,4.68865l-16.60059,27.76437" fill="none" stroke-width="2" stroke-linecap="round"/><g stroke-width="1.5" stroke-linecap="round"><path d="M243.96014,210.70489l0.08713,-3.31059l2.87498,1.04546l2.0909,-3.22347l0.17424,5.57574z" fill="#ffffff"/><path d="M250.89938,211.04223h-8.45072" fill="none"/></g></g><path d="M235.13252,173.47543l-7.21212,3.04546" fill="none" stroke-width="1.5" stroke-linecap="round"/><path d="M236.25373,173.733l7.33333,2.5" fill="none" stroke-width="1.5" stroke-linecap="round"/></g></g><path d="M219.07524,165.22883c-4.48595,-1.04697 -5.7776,-3.90381 -5.7776,-3.90381c0,0 -1.74978,-2.53363 -1.80124,-4.10361c-0.15439,-4.70997 0.03939,-18.16541 1.28739,-29.74053c0.04166,-0.38631 0.07913,-0.60191 0.14389,-0.98506c0.19422,-1.14945 1.14365,-5.60639 1.14365,-5.60639c0,0 3.32474,-1.61826 5.12035,-2.05942c5.38684,-1.32352 18.95492,0.53061 33.27138,1.30472c1.29759,0.07016 3.48231,1.84425 3.48231,1.84425c0,0 1.50971,3.24836 1.41117,5.2757c-0.63689,13.10709 -1.3901,27.60683 -1.78072,30.91646c-0.06763,0.573 -0.3819,3.0588 -2.19816,5.13045c-0.47864,0.54594 -2.26898,2.77961 -5.84221,3.16651c-8.974,0.97164 -24.94968,-0.41993 -28.46024,-1.23926z" fill="#ffddb7" stroke="#000000" stroke-width="2.5" stroke-linecap="round"/><path d="M248.43087,148.53756c0.17109,-3.52104 0.73539,-6.35473 1.2604,-6.32921c0.52503,0.02552 0.81194,2.90062 0.64087,6.42164c-0.17109,3.52104 -0.7354,6.35474 -1.26041,6.32922c-0.52503,-0.02552 -0.81194,-2.90062 -0.64086,-6.42166z" fill="#000000" stroke="#000000" stroke-width="2.5" stroke-linecap="butt"/><path d="M241.90607,148.3985c0.17426,-3.58626 0.63475,-6.47801 1.02852,-6.45884c0.39375,0.01914 0.57171,2.94193 0.39745,6.5282c-0.17426,3.58626 -0.63472,6.47796 -1.02851,6.45883c-0.39375,-0.01914 -0.57172,-2.94191 -0.39747,-6.52818z" fill="#000000" stroke="#000000" stroke-width="2.5" stroke-linecap="butt"/><path d="M255.78043,142.71459c-0.07892,-0.80681 -0.15596,-1.61312 -0.2374,-2.41886c-0.81323,0.42633 -1.58148,0.79505 -1.72984,0.87228c-1.62936,0.84848 -4.23904,2.25204 -6.03943,2.52491c-0.88036,0.13343 -1.93734,0.48317 -2.67185,-0.01782c-0.90831,-0.61952 -0.7094,-3.05243 -0.69763,-3.98529c0.04426,-3.50733 0.09663,-7.01461 0.14585,-10.5219c-1.65809,1.73061 -4.2701,3.22294 -5.86498,4.76496c-3.58772,3.4687 -7.40563,6.58157 -11.13253,9.85662c-1.27835,1.12338 -2.34041,2.19288 -3.74689,3.16505c-0.53921,0.37272 -0.92866,1.19431 -1.58499,1.16333c-0.91657,-0.04326 -1.59621,-0.90075 -2.39434,-1.35113c-0.10593,-1.60661 -0.21989,-3.64575 -0.09051,-5.49073c-0.80178,1.07307 -1.86503,2.10935 -2.4879,3.04165c-2.17141,3.25005 -6.05722,12.57329 -6.05722,12.57329c-3.87953,-0.13518 -7.41278,-3.7072 -9.62805,-6.57179c-2.07973,-0.06564 -4.13043,-0.28011 -6.22476,-0.31015c-0.49933,-0.00718 -3.28786,-0.00335 -3.5952,-0.21692c-1.8937,-1.31587 -1.30534,-2.56534 -0.75519,-4.23884c0.44018,-1.33898 1.20452,-2.4733 2.1642,-3.44022c-1.116,-0.697 -2.39643,-1.54897 -2.73356,-2.48387c-0.60955,-1.69041 0.05385,-2.35688 0.81997,-3.62499c0.85739,-1.41918 1.94914,-2.63026 3.19445,-3.66965c-0.70614,-0.44605 -1.46174,-0.9538 -1.54652,-1.14584c-0.89488,-2.02735 0.06412,-2.78939 1.00394,-4.24174c1.6212,-2.50535 4.44939,-3.93596 7.11039,-4.98c0.20434,-2.58977 1.46592,-4.1925 2.76177,-6.47596c1.70657,-3.00724 4.82683,-7.38494 9.57771,-10.69273c5.21339,-3.62979 11.73402,-5.68427 13.75494,-6.12088c4.38561,-0.94749 9.98277,-0.7851 12.14796,-0.53609c3.98864,0.45876 11.06053,2.46176 16.11569,5.79054c5.09446,3.35467 7.8044,7.71922 8.17924,8.42559c3.27233,6.16662 5.35381,12.01322 5.26689,18.93422c-0.02402,1.73053 0.91488,10.78343 -1.7598,15.67321c-3.24927,5.94029 -10.52357,8.51294 -10.82609,8.60836c-0.35829,0.11301 -1.82203,-0.13901 -2.01835,-1.21653c-0.47289,-2.59551 0.73251,-7.98121 1.38027,-10.12126c0.12191,-0.34679 0.23396,-0.69677 0.34084,-1.04846c-0.11919,-0.24965 -0.14099,-0.47227 -0.14099,-0.47227z" fill="#000000" stroke="none" stroke-width="0.5" stroke-linecap="butt"/><g><g data-paper-data="{&quot;index&quot;:null}"><path d="M242.80766,182.59492c2.43862,0.14602 6.66339,-3.49472 6.52779,-1.22994c-0.09034,1.50879 -6.34102,22.14665 -7.95785,23.26852c-0.81009,0.56211 -2.08588,0.88055 -2.89992,0.83182c-1.19647,-0.07165 -2.1475,-0.76278 -2.78454,-1.80661c-0.66135,-1.08378 0.1914,-22.18024 0.26045,-23.33386c0.1356,-2.26481 4.41541,2.12397 6.85407,2.26999z" fill="#485e84" stroke="#000000" stroke-width="1.5" stroke-linecap="butt"/><g stroke-linecap="butt"><path d="M243.23399,175.10171c4.41826,0.26457 7.85831,2.84398 7.68364,5.76129c-0.17467,2.9173 -3.89799,5.06777 -8.31623,4.80323c-4.41827,-0.26458 -7.85833,-2.84401 -7.68366,-5.7613c0.17467,-2.91731 3.89797,-5.0678 8.31621,-4.80323z" fill="#485e84" stroke="#000000" stroke-width="1.5"/><path d="M246.78126,181.93881l3.69434,-1.3922c0,0 -0.82172,1.8149 -1.42891,2.38797c-1.29055,1.18243 -2.97283,1.4698 -2.97283,1.4698z" fill="#6987bb" stroke="none" stroke-width="0"/><path d="M243.21044,182.5527l1.62599,-0.20997c0,0 0.05046,1.03048 0.00566,1.38898c-0.05244,0.41978 -0.37067,1.14895 -0.37067,1.14895l-1.93438,-0.06344z" fill="#6987bb" stroke="none" stroke-width="0"/></g><g><path d="M242.73584,181.56096c-6.09506,-0.365 -9.25955,-4.15483 -8.89459,-10.24993c0.36497,-6.09502 5.91418,-10.72149 12.00928,-10.35653c6.09507,0.36497 10.15295,4.93974 9.78799,11.03484c-0.36497,6.09504 -6.80756,9.93661 -12.90266,9.57165z" fill="#2c394f" stroke="#000000" stroke-width="1.5" stroke-linecap="butt"/><path d="M247.86652,161.92938c0,0 7.78624,2.95096 7.46692,8.28368c-0.18105,3.02402 -1.84097,6.07016 -3.81539,8.25429c-1.40668,1.55607 -3.47796,2.60036 -5.63243,2.47136c-4.42849,-0.26519 -5.88526,-2.33154 -5.56593,-7.66427c0.15947,-2.66312 1.91449,-5.84061 3.94284,-7.9141c2.03324,-2.07855 3.60401,-3.43096 3.60401,-3.43096z" fill="#485e84" stroke="none" stroke-width="0" stroke-linecap="butt"/><path d="M255.29458,172.03576c0,0 -3.25906,4.00169 -10.32401,3.83084c-7.12287,-0.17223 -10.13309,-4.08384 -10.13309,-4.08384" fill="none" stroke="#000000" stroke-width="0.8" stroke-linecap="round"/><path d="M253.73351,176.80214c0,0 -4.27247,2.08765 -8.77988,2.49433c-6.49573,0.58608 -8.88663,-1.66901 -8.88663,-1.66901" fill="none" stroke="#000000" stroke-width="0.75" stroke-linecap="round"/><path d="M254.60882,167.2563c0,0 -3.41341,3.36386 -10.49491,3.59116c-6.81115,0.21862 -8.73562,-2.00901 -8.73562,-2.00901" fill="none" stroke="#000000" stroke-width="0.8" stroke-linecap="round"/><path d="M235.5222,167.44989c0,0 4.33205,-2.13239 7.80391,-2.82702c4.57294,-0.91496 9.2279,-0.58778 9.2279,-0.58778" fill="none" stroke="#000000" stroke-width="0.8" stroke-linecap="round"/><path d="M240.44371,180.62327c0,0 -2.26179,-3.53097 -2.13669,-9.96922c0.11675,-6.008 3.24224,-8.49289 3.24224,-8.49289" fill="none" stroke="#000000" stroke-width="0.8" stroke-linecap="round"/><path d="M243.80703,161.99259c0,0 -0.38415,3.03193 -0.28881,6.36924c0.08386,2.93485 0.64908,6.09869 0.64369,7.74309c-0.00639,1.95309 -0.41794,5.20195 -0.41794,5.20195" fill="none" stroke="#000000" stroke-width="0.8" stroke-linecap="round"/><path d="M246.62409,161.61458c0,0 2.87341,4.91331 2.74068,9.10391c-0.20831,6.57729 -2.82909,10.63405 -2.82909,10.63405" fill="none" stroke="#000000" stroke-width="0.8" stroke-linecap="round"/><path d="M250.1059,162.30903c0,0 2.26095,3.48889 2.69949,7.67217c0.63151,6.02404 -1.0934,9.12982 -1.0934,9.12982" fill="none" stroke="#000000" stroke-width="0.8" stroke-linecap="round"/><path d="M253.86105,170.61342c-0.43456,-0.02601 -0.76257,-0.45364 -0.73254,-0.9551c0.03001,-0.50147 0.40666,-0.88685 0.84125,-0.86084c0.43461,0.02602 0.76258,0.45362 0.73255,0.95509c-0.03001,0.50148 -0.40666,0.88689 -0.84126,0.86087z" fill="#6987bb" stroke="none" stroke-width="0" stroke-linecap="butt"/><path d="M253.1863,167.17113c-0.25075,-0.01501 -0.44182,-0.23046 -0.42681,-0.48117c0.01503,-0.25076 0.23046,-0.44181 0.48118,-0.42681c0.25076,0.01501 0.44184,0.23043 0.42682,0.48116c-0.015,0.25075 -0.23045,0.44182 -0.48117,0.42682z" fill="#6987bb" stroke="none" stroke-width="0" stroke-linecap="butt"/></g></g><g><path d="M203.76876,164.31831c2.43097,-2.10514 18.36417,1.83896 19.55862,3.80858c1.29819,2.14068 -4.513,15.85632 -4.513,15.85632l-3.5323,-0.33103l23.4078,1.76359c0,0 8.11497,0.20143 7.69359,2.43c0,0 3.024,10.72044 -3.91538,28.27446c-5.11301,0.53834 -16.68242,-2.59185 -16.68242,-2.59185c0,0 -26.01092,-5.76038 -27.64143,-10.1858c-1.6305,-4.4254 3.34329,-37.04885 5.62453,-39.02429z" fill="#68330c" stroke="none" stroke-width="3" stroke-linecap="round"/><path d="M238.9718,185.28352c0,0 7.93822,1.20427 7.49267,3.39049c0,0 2.8251,10.58738 -4.24561,27.75774c-2.7142,0.24693 -7.25758,-0.58007 -10.87071,-1.39533c0.09686,-0.48896 0.17491,-0.93431 0.2366,-1.3015c1.36761,-8.13857 2.39605,-19.53716 4.19793,-28.32614c0.01785,-0.0871 3.18913,-0.12527 3.18913,-0.12527z" fill="#ffddb7" stroke="#000000" stroke-width="2" stroke-linecap="butt"/><path d="M236.93319,185.95368l-5.0015,29.05448l-3.40252,-0.76162l4.68541,-28.78274z" data-paper-data="{&quot;index&quot;:null}" fill="#ffffff" stroke="#000000" stroke-width="2" stroke-linecap="round"/><path d="M203.92756,164.4925c2.43097,-2.10514 18.36416,1.83897 19.55861,3.80858c1.29819,2.14068 -4.513,15.85633 -4.513,15.85633l-3.5323,-0.33103l23.4078,1.76359c0,0 8.11497,0.20143 7.69359,2.42999c0,0 3.024,10.72044 -3.91539,28.27446c-5.11301,0.53834 -16.68241,-2.59185 -16.68241,-2.59185c0,0 -26.01092,-5.76038 -27.64143,-10.18579c-1.6305,-4.4254 3.34329,-37.04885 5.62453,-39.0243z" data-paper-data="{&quot;origPos&quot;:null}" fill="none" stroke="#000000" stroke-width="2.5" stroke-linecap="round"/></g></g><path d="M153.5,284v-208h173v208z" fill="none" stroke="none" stroke-width="0" stroke-linecap="butt"/><g stroke="#000000" stroke-width="1.25" stroke-linecap="butt"><g data-paper-data="{&quot;index&quot;:null}" fill="#000000"><path d="M229.79612,160.66046c-9.0432,-0.54388 -5.51882,-3.87505 -5.51882,-3.87505l11.33867,0.53524c0,0 2.67866,3.77097 -5.81984,3.3398z"/></g><g data-paper-data="{&quot;index&quot;:null}" fill="#ffffff"><path d="M229.79612,160.66046c-9.0432,-0.54388 -5.51882,-3.87505 -5.51882,-3.87505c0,0 7.67097,0.36211 9.58529,0.45248c0.00265,0.00012 -0.65075,0.84859 -0.68457,1.72623c-0.02771,0.71881 0.56534,1.49821 0.54883,1.50171c-0.92163,0.19521 -2.19235,0.28284 -3.93072,0.19465z"/></g></g></g></g></svg>