<svg version="1.1" xmlns="http://www.w3.org/2000/svg" xmlns:xlink="http://www.w3.org/1999/xlink" width="422.65625" height="257.0021" viewBox="0,0,422.65625,257.0021"><g transform="translate(-106.28679,-54.50196)"><g data-paper-data="{&quot;isPaintingLayer&quot;:true}" fill-rule="nonzero" stroke-linejoin="miter" stroke-miterlimit="10" stroke-dasharray="" stroke-dashoffset="0" style="mix-blend-mode: normal"><path d="M528.94304,136c0,23.74824 -13.2076,43 -29.5,43c-16.2924,0 -29.5,-19.25176 -29.5,-43c0,-23.74824 13.2076,-43 29.5,-43c16.2924,0 29.5,19.25176 29.5,43z" fill="none" stroke="none" stroke-width="0" stroke-linecap="butt"/><path d="M373.71321,311.1602l-267.27562,0.34386l-0.1508,-256.65825l267.27563,-0.34385z" fill="none" stroke="none" stroke-width="NaN" stroke-linecap="butt"/><g data-paper-data="{&quot;index&quot;:null}" stroke="#000000" stroke-linecap="round"><path d="M255.91097,156.40561c0,0 15.52363,-1.61455 15.50608,5.08181c-0.0476,18.17525 -27.04548,12.19635 -27.04548,12.19635z" data-paper-data="{&quot;origPos&quot;:null}" fill="#66c8ff" stroke-width="2"/><path d="M255.1898,157.93017c0,0 11.26731,-0.56943 11.90002,1.39749c0.19954,0.62036 -15.02528,2.5409 -15.02528,2.5409z" data-paper-data="{&quot;origPos&quot;:null}" fill="#0a0a0a" stroke-width="1"/></g><g data-paper-data="{&quot;index&quot;:null}"><g data-paper-data="{&quot;origRot&quot;:0,&quot;index&quot;:null}" stroke="#000000" stroke-width="3" stroke-linecap="round"><path d="M215.97255,215.27942c0,0 -23.39534,-6.34904 -22.97337,-8.89338c0.76084,-4.58761 5.20057,-14.27225 5.20057,-14.27225l12.98439,-27.15522c0,0 2.5387,-5.11586 3.64109,-5.14415c3.30714,-0.08485 8.73081,3.21644 14.74251,5.33322c0.99925,0.35188 -0.2758,6.18693 -0.2758,6.18693c0,0 -2.38945,9.08715 -3.91882,14.90339c-2.3291,8.85756 -5.96796,22.69636 -5.96796,22.69636c0,0 -1.64241,7.14592 -3.43263,6.34511z" data-paper-data="{&quot;origPos&quot;:null}" fill="#582700"/><path d="M196.08396,199.47665l22.33694,8.81314" fill="none"/><path d="M197.48788,196.18792l22.25752,9.03798" data-paper-data="{&quot;origPos&quot;:null}" fill="none"/></g><path d="M197.47875,195.44724l16.45815,-34.40429l1.376,-0.19579l14.15585,5.63709l-9.42211,37.89679z" fill="#66c8ff" stroke="#000000" stroke-width="1" stroke-linecap="round"/><path d="M196.11255,199.31085l0.78662,-2.20481l22.82008,9.09485l-0.7866,2.2048z" fill="#ffffff" stroke="none" stroke-width="0" stroke-linecap="butt"/></g><g data-paper-data="{&quot;index&quot;:null,&quot;origRot&quot;:0}" stroke="#000000" stroke-linecap="round"><path d="M235.28505,263.07619c0,0 0.59381,4.48658 -0.32638,6.66566c-0.70444,1.66818 -2.48265,2.15887 -4.17874,2.51036c-4.65557,0.96476 -9.16847,-0.74491 -16.53636,-1.1862c-2.00669,-0.12019 -2.97045,-3.3068 -2.72704,-5.41548c0.22767,-1.97224 0.73774,-5.38587 0.73774,-5.38587l4.53136,-33.12188c0,0 0.71912,-4.26796 2.41183,-4.94101c4.07634,-1.62082 8.27634,0.09262 12.63161,0.09348c1.47595,0.00031 1.33768,4.8508 1.33768,4.8508z" data-paper-data="{&quot;origPos&quot;:null}" fill="#ff0000" stroke-width="3"/><path d="M212.12401,261.3554l22.26613,1.41912c0,0 0.95728,2.58087 0.82562,4.28176c-0.12498,1.61463 -1.48324,4.21389 -1.48324,4.21389c0,0 -8.10761,0.8122 -11.83906,0.7095c-4.86349,-0.13385 -10.47497,-2.94179 -10.47497,-2.94179z" data-paper-data="{&quot;origPos&quot;:null}" fill="#976e57" stroke-width="2.5"/><path d="M235.19924,263.39828c0,0 0.59381,4.48658 -0.32638,6.66566c-0.70444,1.66818 -2.48264,2.15888 -4.17874,2.51037c-4.65557,0.96476 -9.16847,-0.74491 -16.53636,-1.1862c-2.00669,-0.1202 -2.97045,-3.3068 -2.72704,-5.41549c0.22767,-1.97224 0.73774,-5.38587 0.73774,-5.38587l4.53136,-33.12187c0,0 0.71911,-4.26796 2.41183,-4.94102c4.07634,-1.62082 8.27635,0.09262 12.63161,0.09348c1.47593,0.00029 1.33766,4.85078 1.33766,4.85078c0,0 0.53564,9.08523 0.87848,14.90026c0.48389,8.2072 1.23986,21.02994 1.23986,21.02994z" data-paper-data="{&quot;origPos&quot;:null}" fill="#4b4b4b" stroke-width="1.5"/></g><g data-paper-data="{&quot;index&quot;:null,&quot;origRot&quot;:0}" stroke="#000000" stroke-linecap="round"><path d="M237.19144,227.5312c0,0 -0.33967,-4.83939 1.13483,-4.90821c4.35102,-0.20302 8.47578,-2.10975 12.61553,-0.6797c1.71904,0.59384 2.6148,4.8243 2.6148,4.8243l5.90324,32.87959c0,0 0.65143,3.38667 0.96082,5.34644c0.33079,2.09535 -0.49962,5.32362 -2.49939,5.53683c-7.34244,0.78286 -11.77996,2.70035 -16.47112,1.95262c-1.70907,-0.27242 -3.50594,-0.6801 -4.27901,-2.31397c-1.00985,-2.13427 -0.60304,-6.64408 -0.60304,-6.64408z" data-paper-data="{&quot;origPos&quot;:null}" fill="#ff0000" stroke-width="3"/><path d="M260.65936,268.37318c0,0 -5.48939,3.06569 -10.34264,3.42516c-3.72359,0.27579 -11.85713,-0.1593 -11.85713,-0.1593c0,0 -1.46495,-2.53371 -1.6569,-4.14098c-0.20221,-1.69315 0.64691,-4.31596 0.64691,-4.31596l22.18568,-2.45127z" data-paper-data="{&quot;origPos&quot;:null}" fill="#976e57" stroke-width="2.5"/><path d="M236.6672,263.84285c0,0 0.22245,-12.84545 0.36485,-21.0672c0.10088,-5.82533 0.25851,-14.92666 0.25851,-14.92666c0,0 -0.33968,-4.83939 1.13482,-4.90819c4.35101,-0.20302 8.47578,-2.10975 12.61553,-0.6797c1.71904,0.59384 2.6148,4.8243 2.6148,4.8243l5.90324,32.87959c0,0 0.65143,3.38667 0.96082,5.34644c0.33079,2.09535 -0.49962,5.32362 -2.49938,5.53684c-7.34244,0.78286 -11.77996,2.70035 -16.47112,1.95262c-1.70907,-0.27242 -3.50594,-0.68011 -4.27901,-2.31398c-1.00985,-2.13427 -0.60304,-6.64408 -0.60304,-6.64408z" data-paper-data="{&quot;origPos&quot;:null}" fill="#4b4b4b" stroke-width="1.5"/></g><g><g><path d="M256.3142,206.70605c0,0 0.23577,15.94846 -1.88233,16.14939c-6.35432,0.60286 -22.95558,-0.90695 -37.14533,-1.46025c-1.59403,-0.06216 -0.83409,-15.16276 -0.83409,-15.16276l2.78184,-30.8725c0,0 1.73899,-13.62146 3.2002,-13.56449c9.45213,0.36857 23.62694,-0.02 29.75497,1.88145c2.04267,0.63382 3.38979,15.2617 3.38979,15.2617z" data-paper-data="{&quot;origPos&quot;:null}" fill="#66c8ff" stroke="#000000" stroke-width="3.5" stroke-linecap="round"/><path d="M226.55584,185.76295c-1.23448,-0.04814 -1.14678,-2.56087 -1.14678,-2.56087c0.18191,-5.21159 0.4223,-12.09832 0.60422,-17.3099c0,0 0.08772,-2.51273 1.3222,-2.4646c1.23448,0.04814 1.14677,2.56087 1.14677,2.56087c-0.18191,5.21159 -0.36383,10.42316 -0.54575,15.63476l-0.05847,1.67515c0,0 -0.08771,2.51273 -1.32219,2.4646z" fill="#ffffff" stroke="none" stroke-width="0.5" stroke-linecap="butt"/><path d="M237.80132,192.60772c-1.23448,-0.04814 -1.12431,-3.20484 -1.12431,-3.20484c0.22854,-6.54722 0.53053,-15.1989 0.75907,-21.74612c0,0 0.11019,-3.1567 1.34467,-3.10855c1.23448,0.04814 1.1243,3.20484 1.1243,3.20484c-0.22854,6.54722 -0.45707,13.09444 -0.68561,19.64167l-0.07346,2.10446c0,0 -0.11018,3.1567 -1.34467,3.10855z" fill="#ffffff" stroke="none" stroke-width="0.5" stroke-linecap="butt"/></g><g fill="none" stroke="#b9b9b9" stroke-width="3"><path d="M248.30239,167.89664c-0.74301,-1.40271 0.17298,-2.60061 1.38474,-3.78542c1.21177,-1.18478 2.39796,-1.51475 3.00347,-0.50513c1.28384,2.14068 -0.17397,3.0706 -1.12282,3.99832c-1.21179,1.1848 -2.21607,2.27322 -3.26539,0.29224z" stroke-linecap="butt"/><path d="M246.69976,169.78506l2.56416,-2.44847" stroke-linecap="round"/><path d="M243.28807,170.28861c1.21177,-1.18478 2.39796,-1.51475 3.00347,-0.50513c1.28384,2.14068 -0.17397,3.0706 -1.12282,3.99832c-1.21177,1.18479 -2.21606,2.27322 -3.26538,0.29224c-0.74301,-1.40271 0.17297,-2.60061 1.38473,-3.78544z" stroke-linecap="butt"/><path d="M242.86485,173.51396l-2.56416,2.44849" stroke-linecap="round"/><path d="M234.94324,175.29607c0.44058,-1.63674 1.71393,-1.43068 3.15029,-0.91057c1.43635,0.52012 2.32743,1.54286 2.05122,2.79406c-0.58563,2.6529 -2.00617,1.72051 -3.13086,1.31325c-1.43635,-0.52011 -2.69287,-0.88525 -2.07065,-3.19674z" stroke-linecap="butt"/><path d="M232.84409,174.80714l3.00302,1.13687" stroke-linecap="round"/><path d="M228.21652,170.60761c0.8999,-1.29679 1.99493,-0.45792 3.1424,0.75564c1.14748,1.21355 1.64578,2.61691 1.01297,3.63906c-1.34175,2.16723 -2.34906,0.57864 -3.24759,-0.3716c-1.14747,-1.21356 -2.17865,-2.19168 -0.90779,-4.02307z" stroke-linecap="butt"/><path d="M228.84079,171.6692l-2.38395,-2.58315" stroke-linecap="round"/><path d="M222.21668,164.1785c0.8999,-1.29677 1.99494,-0.45792 3.1424,0.75564c1.14748,1.21355 1.64578,2.61691 1.01297,3.63906c-1.34175,2.16722 -2.34906,0.57864 -3.24758,-0.3716c-1.14747,-1.21355 -2.17865,-2.19167 -0.90779,-4.02307z" stroke-linecap="butt"/><path d="M222.84098,165.24008l-2.38397,-2.58315" stroke-linecap="round"/></g></g><g fill="none" stroke="#b9b9b9" stroke-width="3"><path d="M243.73152,167.34119c-0.53762,-1.3728 0.0558,-2.60559 0.85032,-3.83681c0.79453,-1.2312 1.59195,-1.60716 2.02692,-0.62182c0.92225,2.0892 -0.04534,3.07529 -0.66748,4.03936c-0.79453,1.23122 -1.4505,2.35803 -2.20976,0.41928z" stroke-linecap="butt"/><path d="M244.37097,166.74405l-1.68265,2.54673" stroke-linecap="round"/><path d="M240.38427,169.92692c0.79453,-1.2312 1.59195,-1.60716 2.02692,-0.62182c0.92225,2.0892 -0.04534,3.07529 -0.66748,4.03936c-0.79453,1.23121 -1.4505,2.35803 -2.20976,0.41928c-0.53762,-1.3728 0.05579,-2.60559 0.85031,-3.83682z" stroke-linecap="butt"/><path d="M240.17338,173.16658l-1.68264,2.54675" stroke-linecap="round"/><path d="M234.83809,175.25615c0.2603,-1.65279 1.12959,-1.49649 2.11698,-1.0327c0.98739,0.4638 1.61652,1.45112 1.45867,2.71224c-0.3347,2.67392 -1.32111,1.79752 -2.09425,1.43436c-0.98739,-0.46379 -1.849,-0.77972 -1.48139,-3.11388z" stroke-linecap="butt"/><path d="M233.4015,174.84935l2.06552,1.01908" stroke-linecap="round"/><path d="M230.16061,170.83301c0.58016,-1.33098 1.34339,-0.53535 2.1511,0.63267c0.80771,1.16801 1.17924,2.551 0.77389,3.59711c-0.85948,2.21804 -1.58093,0.66979 -2.21341,-0.2448c-0.8077,-1.16802 -1.5309,-2.1053 -0.71158,-3.98496z" stroke-linecap="butt"/><path d="M230.60954,171.86954l-1.67954,-2.48849" stroke-linecap="round"/><path d="M225.93529,164.64204c0.58016,-1.33096 1.3434,-0.53535 2.15111,0.63267c0.80771,1.16801 1.17924,2.551 0.77388,3.59711c-0.85948,2.21803 -1.58093,0.66979 -2.21341,-0.2448c-0.8077,-1.16801 -1.5309,-2.10529 -0.71158,-3.98496z" stroke-linecap="butt"/><path d="M224.70469,163.19009l1.67955,2.48849" stroke-linecap="round"/></g><path d="M215.83771,153.1012c0.025,-3.29185 1.01722,-17.59584 1.95468,-30.52064c0.14499,-1.99915 1.91366,-4.9976 1.91366,-4.9976c0,0 2.21909,-1.47061 3.42273,-1.38007c13.27986,0.99887 25.99584,0.84736 30.80486,2.80591c1.60301,0.65284 4.47792,2.64711 4.47792,2.64711c0,0 0.35642,4.48492 0.40169,5.63536c0.01508,0.38349 0.02456,0.5994 0.01801,0.98314c-0.19628,11.4983 -1.58245,24.7101 -2.27243,29.30752c-0.22999,1.53247 -2.13671,3.80091 -2.13671,3.80091c0,0 -1.52225,2.64149 -5.77692,3.11691c-4.65535,0.52022 -15.79961,-0.76044 -27.28786,-2.11847c-1.72478,-0.20389 -4.18311,-3.78224 -4.18311,-3.78224z" fill="#582700" stroke="#000000" stroke-width="2.5" stroke-linecap="round"/><path d="M260.07343,124.03653l-0.64312,-0.58183c-0.08306,-0.03767 -0.16612,-0.07483 -0.24919,-0.11152c-0.23341,0.29692 -0.67016,0.62975 -1.35366,0.3283c-0.62995,-0.27784 -0.75011,-0.77721 -0.73728,-1.15455c-2.45908,-0.86435 -4.94531,-1.38438 -7.56172,-1.84415c-7.34579,-1.01963 -14.7513,-1.43479 -22.13939,-2.01033c-2.42297,-0.18876 -7.91805,0.41904 -9.82305,-1.43914c-0.92906,-0.90622 -0.40729,-2.82217 -0.42905,-3.89128c-0.06306,-3.09803 -0.19307,-6.3106 0.01163,-9.40394c0.29312,-4.04129 -0.88506,-7.76254 -1.08983,-11.76468c-0.10265,-2.00641 -0.59982,-4.0542 1.20309,-5.64038c0.50906,-0.44788 1.32325,-0.09982 1.98543,-0.08449c2.42008,0.05609 4.74095,0.41285 7.1044,0.8993c7.48974,1.54156 14.9244,2.65039 22.32833,4.67713c2.98644,0.82144 6.0333,1.12954 9.10086,1.48001c1.80286,0.20599 3.48996,-0.21017 4.4177,2.05775c0.55403,1.35436 -0.20608,5.35345 -0.36235,6.84338c-0.60255,5.7452 -0.24006,12.88492 -1.79161,18.59016c0.10901,0.04771 0.21802,0.09618 0.32702,0.14544l1.17073,0.9109c0,0 0.94327,0.77628 0.20881,1.77324c-0.73445,0.99696 -1.67773,0.22069 -1.67773,0.22069z" data-paper-data="{&quot;index&quot;:null}" fill="#000000" stroke="none" stroke-width="0.5" stroke-linecap="butt"/><g fill="#000000" stroke="#000000" stroke-width="2.5" stroke-linecap="butt"><path d="M229.42948,139.22608c-1.3916,-1.88699 -2.30531,-3.59334 -2.04081,-3.81124c0.2645,-0.21791 1.60704,1.13517 2.99864,3.02217c1.3916,1.88699 2.30531,3.59336 2.04081,3.81126c0,0 -1.60703,-1.13519 -2.99864,-3.02219z"/><path d="M232.38999,141.8087c0.21142,0.27516 -1.04176,1.72084 -2.799,3.22899c-1.75725,1.50818 -3.35317,2.50775 -3.56456,2.23257c-0.21141,-0.27516 1.04176,-1.72083 2.79901,-3.22898c1.75725,-1.50817 3.56456,-2.23258 3.56456,-2.23258z" data-paper-data="{&quot;index&quot;:null}"/></g><g><g data-paper-data="{&quot;index&quot;:null}"><g stroke="#000000" stroke-width="3" stroke-linecap="round"><path d="M276.06367,192.76207c0,0 4.34187,9.84024 4.63798,14.48725c-13.80467,8.91756 -23.30152,7.88215 -23.30152,7.88215c-1.82004,0.7219 -3.18158,-6.48965 -3.18158,-6.48965c0,0 -3.09456,-13.98598 -5.07526,-22.93771c-1.3006,-5.87807 -3.33263,-15.06183 -3.33263,-15.06183c0,0 -1.04579,-5.88579 -0.03362,-6.19369c6.08933,-1.85236 11.6375,-4.91386 14.93848,-4.6846c1.10033,0.07641 3.43679,5.29882 3.43679,5.29882l11.91131,27.69923z" data-paper-data="{&quot;origPos&quot;:null}" fill="#582700"/><path d="M277.59989,198.35125l-23.31336,8.10944l-1.00409,-3.271l23.27369,-8.36751z" data-paper-data="{&quot;origPos&quot;:null}" fill="none"/></g><path d="M252.95013,202.81688l-7.28481,-36.46276l0.95774,-1.05187l14.32508,-5.12233l14.80863,34.43115z" fill="#66c8ff" stroke="#000000" stroke-width="1" stroke-linecap="round"/><path d="M254.12102,206.04434l-0.69954,-2.23734l23.15686,-8.08828l0.69954,2.23734z" fill="#ffffff" stroke="none" stroke-width="0" stroke-linecap="butt"/></g><g fill="#fffc96" stroke="#000000" stroke-width="2" stroke-linecap="round"><path d="M273.59919,188.4507c0,0 4.18608,-0.24282 4.58436,2.70339c0.63721,4.71384 -30.93771,4.45332 -31.88216,-0.41698c-0.38588,-1.98988 2.57691,-2.68062 2.57691,-2.68062l0.56552,1.79501c0,0 5.91446,1.42457 13.27835,1.65864c7.26185,0.23081 11.99515,-0.99634 11.99515,-0.99634z"/><path d="M270.21796,180.50671c0,0 2.47349,-2.8254 3.70191,-0.86987c2.57862,4.10496 -21.95486,28.29087 -23.50692,23.90293c-0.93995,-2.65744 1.9964,-4.30999 1.9964,-4.30999l0.45261,1.30705c0,0 4.30063,-2.88382 9.75838,-8.45583c5.45776,-5.57201 8.16329,-10.39818 8.16329,-10.39818z" data-paper-data="{&quot;index&quot;:null}"/></g></g><g data-paper-data="{&quot;index&quot;:null}" fill="none" stroke="#000000" stroke-width="2.5" stroke-linecap="butt"><path d="M237.52986,142.91584c-0.20283,-0.28228 1.09419,-1.68409 2.89693,-3.13103c1.80275,-1.44694 3.4286,-2.39108 3.63141,-2.10879c0.20282,0.28227 -1.09419,1.68407 -2.89693,3.131c-1.80275,1.44693 -3.6314,2.10881 -3.6314,2.10881z"/><path d="M240.57733,145.62501c1.33277,1.93385 2.19347,3.67073 1.92238,3.87941c-0.27106,0.20871 -1.57124,-1.18984 -2.904,-3.12371c-1.33277,-1.93385 -2.19347,-3.67075 -1.92237,-3.87943c0,0 1.57122,1.18986 2.904,3.12372z" data-paper-data="{&quot;index&quot;:null}"/></g><g data-paper-data="{&quot;index&quot;:null}" stroke="#000000" stroke-width="1" stroke-linecap="butt"><path d="M239.79205,159.81194c0,0 -2.70824,-5.71465 3.15983,-6.70038c5.54254,-0.93105 5.0789,5.23979 5.0789,5.23979l-8.23873,1.46058z" fill="#000000"/><path d="M247.1995,154.65401c0.00226,0.00357 -7.05842,1.15473 -7.05842,1.15473c0,0 -0.22176,-1.15737 -0.21907,-1.16075c0.56524,-0.70844 1.50981,-1.28109 3.02987,-1.53643c2.28695,-0.38417 3.55132,0.44078 4.24763,1.54245z" fill="#ffffff"/><path d="M243.86523,159.08985c-0.13518,0.02396 0.66383,-1.05472 1.80778,-1.61421c0.9712,-0.47498 2.26874,-0.66862 2.27604,-0.60538c0.08417,0.72916 0.08172,1.48111 0.08172,1.48111c0,0 -2.78482,0.4937 -4.16556,0.73847z" fill="#ff8484"/></g><g data-paper-data="{&quot;index&quot;:null}" fill="#582700" stroke="none" stroke-width="0" stroke-linecap="butt"><path d="M278.89489,102.97331v4.18581h-3.86383v-4.18581z" data-paper-data="{&quot;index&quot;:null}"/><path d="M301.4339,111.02296v6.76171h-7.08368v-6.76171z" data-paper-data="{&quot;index&quot;:null}"/></g></g></g></svg>