<svg version="1.1" xmlns="http://www.w3.org/2000/svg" xmlns:xlink="http://www.w3.org/1999/xlink" width="127.66667" height="127.66667" viewBox="0,0,127.66667,127.66667"><g transform="translate(-176.16669,-116.16666)"><g data-paper-data="{&quot;isPaintingLayer&quot;:true}" fill-rule="nonzero" stroke-linejoin="miter" stroke-miterlimit="10" stroke-dasharray="" stroke-dashoffset="0" style="mix-blend-mode: normal"><g stroke="#000000" stroke-width="1" stroke-linecap="butt"><path d="M233.58959,181.48708c0.45612,-1.21477 1.878,-4.12631 3.1373,-4.70739c3.59185,-1.65742 4.79101,2.11235 5.06964,4.65068c0.00317,2.36877 -2.02716,6.10208 -4.37245,8.76341c-1.61707,1.83497 -4.03508,2.94762 -5.53357,3.61601c-0.51109,0.22797 -2.09667,0.03463 -4.16966,-3.22725c-1.93842,-3.05013 -2.31121,-7.58085 -1.15347,-8.31685c0.9963,-0.63338 6.70462,0.07481 6.70462,0.07481z" fill="#dc94e7"/><path d="M229.75265,185.86154c0.05501,0.04044 0.08614,0.07159 0.08614,0.07159l0.673,0.77512c0.30394,0.81602 -0.51695,1.55287 -0.50192,2.26988c0.0185,0.88254 -0.01299,1.73502 -0.58331,2.6681c-4.00136,5.3426 -14.9364,7.04336 -14.9364,-2.11959c0.01902,-3.8222 4.38638,-5.00101 8.12642,-5.06939c2.54824,-0.0466 5.17666,0.31366 6.81749,1.12962c0,0 0.18311,0.09156 0.31858,0.27467z" fill="#f89688"/></g><g><g stroke="#000000"><path d="M255.09416,193.31802l0.95835,9.73519l-37.56842,-0.98638c0,0 1.15965,-9.54107 2.87153,-11.34553c0.59347,-0.62556 6.41997,2.03919 6.41997,2.03919l0.25732,-3.81689z" fill="#0045d8" stroke-width="0" stroke-linecap="round"/><path d="M248.55789,195.08405c-1.50492,0.75211 -3.46626,1.96401 -5.55469,2.32519c-3.234,0.55932 -6.47304,0.03793 -6.47304,0.03793c0,0 -0.49719,3.49312 -0.61336,5.07736l-6.30755,-0.16562c0.10962,-1.29633 0.22595,-3.71336 -0.56584,-5.89166c-0.62872,-1.72966 -1.37315,-3.35633 -1.50415,-3.81326c0.15103,0.06748 0.23634,0.1065 0.23634,0.1065l0.25732,-3.81689l20.66543,3.37873c0,0 0.43609,0.795 0.40582,1.59336c-0.01954,0.51496 -0.48353,1.15655 -0.54628,1.16833z" fill="#080f95" stroke-width="0" stroke-linecap="butt"/><path d="M255.09416,193.31802l0.95835,9.73519l-37.56842,-0.98638c0,0 1.15965,-9.54107 2.87153,-11.34553c0.59347,-0.62556 6.41997,2.03919 6.41997,2.03919l0.25732,-3.81689z" fill="none" stroke-width="1" stroke-linecap="round"/><path d="M233.60817,195.67681l2.1872,1.887" fill="none" stroke-width="1" stroke-linecap="round"/></g><g><path d="M240.61342,209.63624c0,0.33519 -1.63074,2.50378 -2.85523,2.79868c-2.46242,0.59307 -7.38873,0.24178 -11.07692,0.90119c-1.33696,0.23903 -3.19606,0.44866 -4.63054,1.09762c-0.92448,0.41823 -1.74343,2.02085 -6.96282,2.16315c-3.25738,0.0888 -6.83425,-0.83198 -7.71227,-1.14691c-2.50226,-0.89751 -3.34425,-2.76549 -3.30137,-4.09828c0.01257,-0.39041 0.42812,-1.81565 1.76048,-1.48829c0.90605,0.22261 3.46358,1.84521 6.17255,2.24522c3.29288,0.48623 6.89529,0.06209 7.94157,-0.19361c2.51502,-0.61463 4.62961,-2.03761 7.06881,-2.81725c2.58159,-0.82516 5.97162,0.34968 8.04687,-0.15176c2.70956,-0.65471 3.81251,-2.83717 4.39353,-2.55589c0.93799,0.4541 1.15532,2.55874 1.15532,3.24612z" fill="#ab9efa" stroke="none" stroke-width="0" stroke-linecap="butt"/><path d="M237.7582,212.43496c-2.46242,0.59306 -7.38873,0.24178 -11.07692,0.90119c-1.33696,0.23904 -3.19606,0.44867 -4.63054,1.09763c-0.92447,0.41822 -1.74343,2.02085 -6.9628,2.16315c-0.4438,0.0121 -0.89353,0.00545 -1.34155,-0.01584c-0.43617,-1.67958 -1.41883,-3.10604 -2.32625,-4.5779c0.19455,0.04094 0.39047,0.07644 0.58718,0.10547c3.29288,0.48623 6.8953,0.0621 7.94157,-0.19361c2.51503,-0.61465 4.62961,-2.03761 7.06882,-2.81725c2.58159,-0.82514 5.97162,0.34968 8.04687,-0.15176c2.70956,-0.6547 3.81251,-2.83717 4.39353,-2.55589c0.93799,0.45411 1.15532,2.55874 1.15532,3.24612c0,0.3352 -1.63074,2.50378 -2.85523,2.79868z" fill="#9362ec" stroke="none" stroke-width="0" stroke-linecap="butt"/><path d="M240.61342,209.63624c0,0.33519 -1.63074,2.50378 -2.85523,2.79868c-2.46242,0.59307 -7.38873,0.24178 -11.07692,0.90119c-1.33696,0.23903 -3.19606,0.44866 -4.63054,1.09762c-0.92448,0.41823 -1.74343,2.02085 -6.96282,2.16315c-3.25738,0.0888 -6.83425,-0.83198 -7.71227,-1.14691c-2.50226,-0.89751 -3.34425,-2.76549 -3.30137,-4.09828c0.01257,-0.39041 0.42812,-1.81565 1.76048,-1.48829c0.90605,0.22261 3.46358,1.84521 6.17255,2.24522c3.29288,0.48623 6.89529,0.06209 7.94157,-0.19361c2.51502,-0.61463 4.62961,-2.03761 7.06881,-2.81725c2.58159,-0.82516 5.97162,0.34968 8.04687,-0.15176c2.70956,-0.65471 3.81251,-2.83717 4.39353,-2.55589c0.93799,0.4541 1.15532,2.55874 1.15532,3.24612z" fill="none" stroke="#000000" stroke-width="1" stroke-linecap="butt"/><path d="M218.35544,201.20914l-0.52948,-3.73111c0,0 2.8106,-2.12368 7.65675,-1.54147c3.72193,0.44716 4.28049,4.41485 4.28049,4.41485c0,0 4.37503,-4.04059 5.54028,-3.35392c0.51589,0.30401 2.34417,1.10802 2.97465,2.21711c1.53721,2.70415 1.00584,6.62625 1.00584,6.62625c0,0 -0.38263,2.21366 -2.79127,2.88539c-1.68043,0.46864 -4.34287,0.34385 -7.03231,0.50096c-0.85331,0.04984 -1.69638,0.03395 -2.4905,0.25952c-1.84413,0.5238 -3.42297,1.56729 -5.3759,2.2564c-1.55439,0.54848 -3.47151,0.8096 -5.04159,0.85874c-3.6108,0.11301 -7.30255,-0.80321 -10.16225,-2.30084c-1.8351,-0.96105 1.51881,-3.82844 5.17407,-5.95649c3.26663,-1.9018 6.79121,-3.1354 6.79121,-3.1354z" fill="#ae1c51" stroke="#000000" stroke-width="0" stroke-linecap="round"/><path d="M228.49011,197.3114c0.56861,0.50162 0.93755,1.99339 1.10193,3.00395c0.1394,0.857 -0.70861,1.23546 -0.48498,1.75693c0.19854,0.46296 1.42806,0.16605 1.42806,0.16605c0,0 2.84695,-0.84384 4.42863,-2.29243c0.7716,-0.70667 1.64124,-2.23 1.64124,-2.23c0,0 1.33278,0.89999 1.67309,1.49863c1.53721,2.70415 1.00584,6.62625 1.00584,6.62625c0,0 -0.38263,2.21366 -2.79127,2.88539c-1.68043,0.46864 -4.34287,0.34385 -7.03231,0.50096c-0.85331,0.04984 -1.69638,0.03395 -2.4905,0.25952c-1.84413,0.5238 -3.42297,1.56729 -5.3759,2.2564c-1.55439,0.54848 -3.47151,0.8096 -5.04159,0.85874c-0.98536,0.03084 -2.95564,-0.12833 -2.95564,-0.12833c0,0 -0.45608,-2.69671 1.66501,-5.12594c2.44768,-2.80325 7.68327,-4.11214 10.44969,-6.15067c2.49395,-1.83776 2.58263,-4.05842 2.77869,-3.88545z" fill="#710c65" stroke="#000000" stroke-width="0" stroke-linecap="round"/><path d="M229.76313,200.30845c0,0 0.12921,1.06387 -0.40554,1.51144c-0.38839,0.32507 -1.9532,0.58999 -1.9532,0.58999" fill="none" stroke="#000000" stroke-width="1" stroke-linecap="round"/><path d="M235.05968,200.30845c0,-0.46186 1.17442,-0.83628 1.63628,-0.83628c0.46186,0 0.03628,0.37442 0.03628,0.83628c0,0.46186 -0.37442,0.83628 -0.83628,0.83628c-0.46186,0 -0.83628,-0.37442 -0.83628,-0.83628z" fill="#000000" stroke="none" stroke-width="0.5" stroke-linecap="butt"/><path d="M218.35544,201.20914l-0.52948,-3.73111c0,0 2.8106,-2.12368 7.65675,-1.54147c3.72193,0.44716 4.28049,4.41485 4.28049,4.41485c0,0 4.37503,-4.04059 5.54028,-3.35392c0.51589,0.30401 2.34417,1.10802 2.97465,2.21711c1.53721,2.70415 1.00584,6.62625 1.00584,6.62625c0,0 -0.38263,2.21366 -2.79127,2.88539c-1.68043,0.46864 -4.34287,0.34385 -7.03231,0.50096c-0.85331,0.04984 -1.69638,0.03395 -2.4905,0.25952c-1.84413,0.5238 -3.42297,1.56729 -5.3759,2.2564c-1.55439,0.54848 -3.47151,0.8096 -5.04159,0.85874c-3.6108,0.11301 -7.30255,-0.80321 -10.16225,-2.30084c-1.8351,-0.96105 1.51881,-3.82844 5.17407,-5.95649c3.26663,-1.9018 6.79121,-3.1354 6.79121,-3.1354z" fill="none" stroke="#000000" stroke-width="1" stroke-linecap="round"/><path d="M213.18764,203.43917c0,-0.2686 0.12664,-0.50764 0.32345,-0.66064c-0.14245,0.30595 -0.231,0.64203 -0.25346,0.99609c-0.04501,-0.10268 -0.06999,-0.21615 -0.06999,-0.33545z" fill="#db93e6" stroke="none" stroke-width="0.5" stroke-linecap="butt"/><path d="M221.52906,200.84461c5.36301,0.04651 4.6557,6.30284 1.97676,4.47385c-0.56413,-0.38516 -1.14635,-1.13569 -1.75326,-1.58809c-0.80799,-0.60228 -2.20652,-1.18841 -3.05294,-1.67209c-0.29133,-0.13074 -0.16932,-1.01887 0.23482,-1.19223c0.40415,-0.17336 1.73335,-0.02891 2.59462,-0.02144z" fill="#ab9efa" stroke="none" stroke-width="0.5" stroke-linecap="butt"/><path d="M221.58914,206.78427c-0.04287,0.42165 -0.399,0.75067 -0.83196,0.75067c-0.30694,0 -0.57525,-0.16535 -0.72072,-0.41184c-0.2312,-0.13211 -1.05102,-1.37107 -2.08121,-2.38367c-0.87171,-0.85682 -1.89764,-1.52796 -2.33491,-2.16462c-0.32071,-0.46696 -0.11359,-0.78023 0.33214,-0.94991c1.44435,-0.54982 6.80364,3.20573 5.63666,5.15938z" data-paper-data="{&quot;index&quot;:null}" fill="#ab9efa" stroke="none" stroke-width="0.5" stroke-linecap="butt"/><path d="M218.84864,207.16312c0.33475,1.26692 -1.09143,2.00882 -1.79482,0.9035c-0.41897,-0.65837 -0.90974,-1.69156 -1.54123,-2.21345c-0.66411,-0.54886 -1.48386,-0.94215 -1.91308,-1.69329c-0.24648,-0.14548 -0.41184,-0.41378 -0.41184,-0.72072c0,-0.46186 0.37442,-0.83628 0.83628,-0.83628c0.25436,0 0.48222,0.11357 0.6356,0.29277c1.65607,0.45449 3.87257,3.06959 4.18909,4.2675z" fill="#ab9efa" stroke="none" stroke-width="0.5" stroke-linecap="butt"/><path d="M223.50578,205.31838c-0.54218,-0.37016 -1.10106,-1.07782 -1.68251,-1.53396c1.10453,-0.27698 1.94761,-1.21297 2.08707,-2.36577c2.65203,1.51262 1.77818,5.38995 -0.40456,3.89972z" fill="#9362ec" stroke="none" stroke-width="0.5" stroke-linecap="butt"/><path d="M221.58914,206.78427c-0.04287,0.42165 -0.399,0.75067 -0.83196,0.75067c-0.30694,0 -0.57525,-0.16535 -0.72072,-0.41184c-0.16927,-0.09673 -0.6541,-0.7868 -1.30598,-1.54695c0.88983,-0.0642 1.66392,-0.54608 2.12724,-1.25056c0.74673,0.8655 1.14097,1.77304 0.73142,2.45866z" data-paper-data="{&quot;index&quot;:null}" fill="#9362ec" stroke="none" stroke-width="0.5" stroke-linecap="butt"/><path d="M218.84864,207.16312c0.33475,1.26692 -1.09143,2.00882 -1.79482,0.9035c-0.23987,-0.37693 -0.50328,-0.87673 -0.80316,-1.33309c0.74314,-0.05563 1.40506,-0.40263 1.87188,-0.92709c0.36774,0.51507 0.63159,0.99905 0.72609,1.35669z" fill="#9362ec" stroke="none" stroke-width="0.5" stroke-linecap="butt"/><path d="M221.52906,200.84461c5.36301,0.04651 4.6557,6.30284 1.97676,4.47385c-0.56413,-0.38516 -1.14635,-1.13569 -1.75326,-1.58809c-0.80799,-0.60228 -2.20652,-1.18841 -3.05294,-1.67209c-0.29133,-0.13074 -0.16932,-1.01887 0.23482,-1.19223c0.40415,-0.17336 1.73335,-0.02891 2.59462,-0.02144z" fill="none" stroke="#000000" stroke-width="1" stroke-linecap="butt"/><path d="M221.58914,206.78427c-0.04287,0.42165 -0.399,0.75067 -0.83196,0.75067c-0.30694,0 -0.57525,-0.16535 -0.72072,-0.41184c-0.2312,-0.13211 -1.05102,-1.37107 -2.08121,-2.38367c-0.87171,-0.85682 -1.89764,-1.52796 -2.33491,-2.16462c-0.32071,-0.46696 -0.11359,-0.78023 0.33214,-0.94991c1.44435,-0.54982 6.80364,3.20573 5.63666,5.15938z" data-paper-data="{&quot;index&quot;:null}" fill="none" stroke="#000000" stroke-width="1" stroke-linecap="butt"/><path d="M217.05377,208.06667c-0.41897,-0.65837 -0.90974,-1.69156 -1.54123,-2.21345c-0.66411,-0.54886 -1.48386,-0.94215 -1.91308,-1.69329c-0.24648,-0.14548 -0.41184,-0.41378 -0.41184,-0.72072c0,-0.46186 0.37442,-0.83628 0.83628,-0.83628c0.25436,0 0.48222,0.11357 0.6356,0.29277c1.65607,0.45449 3.87257,3.06959 4.18909,4.2675c0.31652,1.1979 -1.09143,2.00881 -1.79482,0.90349z" fill="none" stroke="#000000" stroke-width="1" stroke-linecap="butt"/></g><g><path d="M239.36977,208.914c0,0 0.3915,8.34024 14.60749,6.23944c13.4989,-1.99483 11.63893,-9.15571 11.63893,-9.15571l4.20286,1.887c0,0 -0.00863,1.18868 0.0127,2.61652c0.02049,1.37182 0.09502,2.95119 -1.0369,4.54341c-2.00021,2.81361 -6.76078,4.99215 -16.60204,5.40697c-20.06166,0.84564 -12.82304,-11.53763 -12.82304,-11.53763z" fill="#ab9efa" stroke="#000000" stroke-width="0" stroke-linecap="round"/><path d="M238.24138,214.92627c-0.01726,-0.07859 3.87856,5.67316 16.55063,3.82969c14.35662,-1.86616 15.02695,-10.87116 15.02695,-10.87116c0,0 -0.00863,1.18868 0.0127,2.61652c0.02049,1.37182 0.09502,2.95119 -1.0369,4.54341c-2.00021,2.81361 -6.76078,4.99215 -16.60204,5.40697c-10.11326,0.42629 -13.28882,-2.50921 -13.95136,-5.52542z" fill="#9362ec" stroke="#000000" stroke-width="0" stroke-linecap="round"/><path d="M239.36977,208.914c0,0 0.3915,8.34024 14.60749,6.23944c13.4989,-1.99483 11.63893,-9.15571 11.63893,-9.15571l4.20286,1.887c0,0 -0.00863,1.18868 0.0127,2.61652c0.02049,1.37182 0.09502,2.95119 -1.0369,4.54341c-2.00021,2.81361 -6.76078,4.99215 -16.60204,5.40697c-20.06166,0.84564 -12.82304,-11.53763 -12.82304,-11.53763z" fill="none" stroke="#000000" stroke-width="1" stroke-linecap="round"/><path d="M245.35778,199.14547c1.31642,-1.17593 6.83383,-2.37225 9.54146,-1.8472c1.63401,0.31686 1.35284,1.93808 1.35284,1.93808c0,0 6.50518,-3.29028 7.2311,-2.78214c0.28324,0.19828 1.53295,2.07667 0.92706,3.17351c-0.89762,1.62499 -4.66953,2.61068 -4.66953,2.61068c0,0 0.38686,0.12296 0.98019,0.36644c-4.37977,0.2708 -10.45727,2.81658 -13.09573,2.97807c-0.28949,0.01772 -0.09375,-0.57255 -0.14995,-0.85709c-0.2393,-1.21161 -0.36474,-2.58493 -1.15202,-3.60541c-0.53209,-0.6897 -0.40811,-1.28668 -1.16677,-1.76955c0.06482,-0.07445 0.13195,-0.14336 0.20135,-0.20536z" fill="#ff292e" stroke="#000000" stroke-width="0" stroke-linecap="butt"/><path d="M239.75569,206.14099l-4.26626,-0.16396c0,0 -0.75986,-1.06582 0.64989,-3.95604l0.44322,0.77565c0.89587,1.56777 5.91336,-0.09743 5.42961,2.84951c-0.11145,0.67887 -1.32062,0.92814 -2.47088,1.49438c0.1108,-0.61531 0.21443,-0.99954 0.21443,-0.99954z" fill="#ff292e" stroke="#000000" stroke-width="0" stroke-linecap="butt"/><path d="M258.17177,209.10017c0.36853,-0.08338 0.88232,-0.11124 1.46868,-0.11798c-0.6464,0.16771 -1.32782,0.23565 -2.02895,0.24198c0.20663,-0.04469 0.39459,-0.08651 0.56025,-0.12398z" fill="#ac0e49" stroke="#000000" stroke-width="0" stroke-linecap="butt"/><path d="M243.10087,202.06685c0,0 1.32294,-2.08702 2.25697,-2.92137c1.31642,-1.17593 6.83383,-2.37225 9.54146,-1.8472c1.63401,0.31686 1.35284,1.93808 1.35284,1.93808c0,0 6.50518,-3.29028 7.2311,-2.78214c0.28324,0.19828 1.53295,2.07667 0.92706,3.17351c-0.89762,1.62499 -4.66953,2.61068 -4.66953,2.61068c0,0 3.2768,1.04143 5.38321,3.06446c3.27168,3.14221 4.20444,8.1679 -10.60834,11.59558c-1.79091,0.41442 -10.06451,0.93634 -13.55884,-2.11337c-2.85954,-2.49569 -1.20105,-8.64402 -1.20105,-8.64402l-4.26626,-0.16396c0,0 -0.79623,-1.11685 0.75362,-4.16423c0.36247,-0.7127 6.85777,0.254 6.85777,0.254z" fill="#ae1c51" stroke="#000000" stroke-width="0" stroke-linecap="round"/><path d="M239.75569,206.14099l-4.26626,-0.16396c0,0 -0.5427,-0.76123 0.14011,-2.74157c1.97616,0.73611 6.21238,1.20089 7.42841,1.75617c0.14476,0.0661 -1.20123,0.75924 -1.35092,0.8545c-0.89102,0.56702 -1.4988,1.12815 -2.20328,1.90308c-0.02477,0.02724 -0.04901,0.05479 -0.07273,0.08264c0.13987,-1.0057 0.32469,-1.69088 0.32469,-1.69088z" fill="#710c65" stroke="#000000" stroke-width="0" stroke-linecap="butt"/><path d="M239.0159,206.27236c-0.27303,0.24428 -2.54969,0.17339 -2.50058,-0.53893c-0.05339,-0.11013 -0.08333,-0.23375 -0.08333,-0.36435c0,-0.46186 0.37442,-0.83628 0.83628,-0.83628c0.24056,0 0.4574,0.10157 0.60997,0.26417c1.11623,-0.04955 2.12857,0.58878 1.13765,1.4754z" fill="#000000" stroke="none" stroke-width="0.5" stroke-linecap="butt"/><path d="M254.51556,216.89842c-1.79091,0.41442 -10.06451,0.93634 -13.55884,-2.11337c-0.3195,-0.27885 -0.5826,-0.60331 -0.79791,-0.95967c3.21261,0.17766 11.22397,-3.76602 14.15318,-4.46787c1.7611,-0.42198 5.91336,0.01395 8.68214,-0.70891c0.18548,-0.04842 1.22555,1.94151 1.60247,1.53843c0.40093,-0.42875 1.09917,-3.59532 1.0842,-4.30339c2.77006,3.15444 2.76525,7.79127 -11.16524,11.01479z" fill="#710c65" stroke="#000000" stroke-width="0" stroke-linecap="butt"/><path d="M264.41022,199.62766c-0.89762,1.62499 -4.66953,2.61068 -4.66953,2.61068c0,0 0.88914,0.28259 2.03882,0.8393c-2.6179,0.16708 -5.35164,0.92473 -5.54022,0.30285c-0.44904,-1.48077 4.76725,-4.01273 6.87544,-5.71395c0.29957,-0.18436 0.56161,-0.42379 0.77203,-0.70418c0.43424,0.68131 0.95958,1.87579 0.52345,2.66532z" fill="#710c65" stroke="#000000" stroke-width="0" stroke-linecap="butt"/><path d="M245.2881,205.24039l-2.40164,-3.00204" fill="none" stroke="#000000" stroke-width="1" stroke-linecap="round"/><path d="M245.20225,208.11377c0,0 -1.46726,-0.21889 -1.62111,-0.58326c-0.46565,-1.10286 0.59183,-1.47529 0.59183,-1.47529c0,0 3.3467,-2.24519 5.84223,-2.74497c4.07916,-0.81696 6.42326,-0.04264 6.42326,-0.04264c0,0 1.21563,0.0579 1.55332,0.68722c0.31306,0.58342 -0.18096,1.02823 -0.18096,1.02823c0,0 1.6958,0.03505 2.41724,0.88295c0.94578,1.11157 0.15594,1.39003 0.15594,1.39003c0,0 1.26494,-0.00347 1.66996,0.92131c0.31713,0.72408 -0.51203,1.18013 -0.51203,1.18013c0,0 -5.20712,0.3391 -7.70654,0.76286c-2.47516,0.41965 -7.2179,1.76743 -7.2179,1.76743c0,0 -0.99125,0.44662 -1.27567,-0.67379c-0.23639,-0.93121 0.46081,-1.42764 0.46081,-1.42764c0,0 -1.03151,0.46549 -1.3061,-0.43725c-0.18736,-0.61595 0.70569,-1.23531 0.70569,-1.23531z" fill="#ab9efa" stroke="#000000" stroke-width="0" stroke-linecap="round"/><path d="M250.0152,203.31023c4.07916,-0.81696 6.42326,-0.04264 6.42326,-0.04264c0,0 0.90806,0.04325 1.37255,0.46129c-1.71687,1.49587 -2.92822,4.45112 -5.42574,3.93719c-1.53135,-0.31512 -2.76377,-2.09366 -3.98648,-3.85867c0.55045,-0.21665 1.10154,-0.39407 1.6164,-0.49718z" fill="#9362ec" stroke="#000000" stroke-width="0" stroke-linecap="round"/><path d="M245.93137,209.82921c0,0 3.18295,-0.99515 6.53549,-1.65399c2.90506,-0.5709 7.57412,-0.70476 7.57412,-0.70476" fill="none" stroke="#000000" stroke-width="1" stroke-linecap="round"/><path d="M245.15935,208.02799c0,0 2.227,-1.48295 5.68833,-2.32773c2.06082,-0.50296 6.70582,-0.67431 6.70582,-0.67431" fill="none" stroke="#000000" stroke-width="1" stroke-linecap="round"/><path d="M245.20225,208.11377c0,0 -1.46726,-0.21889 -1.62111,-0.58326c-0.46565,-1.10286 0.59183,-1.47529 0.59183,-1.47529c0,0 3.3467,-2.24519 5.84223,-2.74497c4.07916,-0.81696 6.42326,-0.04264 6.42326,-0.04264c0,0 1.21563,0.0579 1.55332,0.68722c0.31306,0.58342 -0.18096,1.02823 -0.18096,1.02823c0,0 1.6958,0.03505 2.41724,0.88295c0.94578,1.11157 0.15594,1.39003 0.15594,1.39003c0,0 1.26494,-0.00347 1.66996,0.92131c0.31713,0.72408 -0.51203,1.18013 -0.51203,1.18013c0,0 -5.20712,0.3391 -7.70654,0.76286c-2.47516,0.41965 -7.2179,1.76743 -7.2179,1.76743c0,0 -0.99125,0.44662 -1.27567,-0.67379c-0.23639,-0.93121 0.46081,-1.42764 0.46081,-1.42764c0,0 -1.03151,0.46549 -1.3061,-0.43725c-0.18736,-0.61595 0.70569,-1.23531 0.70569,-1.23531z" fill="none" stroke="#000000" stroke-width="1" stroke-linecap="round"/><path d="M263.24969,198.78605c1.15018,0.38339 -0.39644,1.84688 -1.20023,2.63312c-0.13,0.2931 -0.42355,0.49754 -0.76483,0.49754c-0.46186,0 -0.83628,-0.37442 -0.83628,-0.83628c0,-0.18665 0.06115,-0.35902 0.16451,-0.49817c0.39289,-0.79476 2.18393,-1.94719 2.63685,-1.79621z" fill="#000000" stroke="none" stroke-width="0.5" stroke-linecap="butt"/><path d="M245.35778,199.14547c1.31642,-1.17593 6.83383,-2.37225 9.54146,-1.8472c1.63401,0.31686 1.35284,1.93808 1.35284,1.93808c0,0 6.50518,-3.29028 7.2311,-2.78214c0.28324,0.19828 1.53295,2.07667 0.92706,3.17351c-0.89762,1.62499 -4.66953,2.61068 -4.66953,2.61068c0,0 3.2768,1.04143 5.38321,3.06446c3.27168,3.14221 4.20444,8.1679 -10.60834,11.59558c-1.79091,0.41442 -10.06451,0.93634 -13.55884,-2.11337c-2.85954,-2.49569 -1.20105,-8.64402 -1.20105,-8.64402l-4.26626,-0.16396c0,0 -0.79623,-1.11685 0.75362,-4.16423c0.36247,-0.7127 6.85777,0.254 6.85777,0.254c0,0 1.32293,-2.08703 2.25696,-2.92138z" fill="none" stroke="#000000" stroke-width="1" stroke-linecap="round"/></g><g><path d="M238.11091,180.97042c0,0 -1.0256,-4.0956 1.03203,-5.33746c5.68956,-3.43387 12.3485,-2.32847 12.3485,-2.32847c0,0 4.35038,-2.34374 6.74085,-1.58789c2.15327,0.68085 -0.5948,4.24215 -0.56921,7.29582c0.01305,1.55583 1.50782,3.2307 2.03827,4.70018c0.51068,1.41471 0.08678,2.64924 -1.34434,2.88658c-3.02232,0.50121 -7.14433,-3.2593 -7.14433,-3.2593l1.43009,9.19911c0,0 -6.68449,3.43094 -17.20515,2.16149c-7.48165,-0.90275 -8.19837,-6.76105 -8.19837,-6.76105c0,0 2.67148,-2.61667 4.48804,-3.78114c1.80727,-1.15851 6.38364,-3.18789 6.38364,-3.18789z" fill="#ab9efa" stroke="#000000" stroke-width="0" stroke-linecap="round"/><path d="M238.11091,180.97042c0,0 -1.0256,-4.0956 1.03203,-5.33746c5.68956,-3.43387 12.3485,-2.32847 12.3485,-2.32847c0,0 4.35038,-2.34374 6.74085,-1.58789c1.68439,0.5326 0.3696,2.82775 -0.27061,5.26374c-0.70722,0.11136 -9.11847,2.47833 -9.11847,2.47833l2.36947,3.88121l1.43009,9.19911c0,0 -0.97231,0.49906 -2.75892,1.04608c-0.18269,-0.61384 -1.74552,-14.15458 -1.74552,-14.15458c0,0 -13.8315,3.3255 -13.60022,3.21161c1.78302,-0.87801 3.5728,-1.67169 3.5728,-1.67169z" fill="#9362ec" stroke="#000000" stroke-width="0" stroke-linecap="butt"/><path d="M251.49145,173.30449c0,0 4.35038,-2.34374 6.74085,-1.58789c2.15327,0.68085 -0.5948,4.24215 -0.56921,7.29582c0.01305,1.55583 1.50782,3.2307 2.03827,4.70018c0.51068,1.41471 0.08678,2.64924 -1.34434,2.88658c-3.02232,0.50121 -7.14433,-3.2593 -7.14433,-3.2593l1.43009,9.19911c0,0 -6.68449,3.43094 -17.20515,2.16149c-7.48165,-0.90275 -8.19837,-6.76105 -8.19837,-6.76105c0,0 2.67148,-2.61667 4.48804,-3.78114c1.80727,-1.15851 6.38364,-3.18789 6.38364,-3.18789c0,0 -1.02561,-4.0956 1.03202,-5.33746c2.05763,-1.24186 12.34849,-2.32845 12.34849,-2.32845z" fill="none" stroke="#000000" stroke-width="1" stroke-linecap="round"/><g fill="none" stroke="#ae0010" stroke-width="1"><path d="M241.79671,189.17233c-2.61753,1.57784 -5.39303,1.83454 -6.86544,0.66896c-1.51155,-1.19657 0.76842,-4.01856 3.3728,-5.75385c1.96727,-1.31078 4.59452,-2.07518 6.95426,-0.63327c1.65703,1.01252 -0.74184,4.0787 -3.46162,5.71816z" stroke-linecap="butt"/><path d="M238.78255,183.92591l0.82968,5.66099" stroke-linecap="round"/></g><path d="M250.89788,173.87944c-0.15822,0.2769 -0.33031,0.54033 -0.51511,0.79043c-1.85699,2.5132 -4.99844,3.67936 -8.27648,3.61643c-1.07897,-0.02071 -3.58375,-0.18549 -3.34389,-1.83804c0.44548,-3.06916 11.25241,-4.11418 11.71015,-3.31314z" fill="#f89688" stroke="#000000" stroke-width="1" stroke-linecap="butt"/></g><g stroke="#000000" stroke-linecap="round"><path d="M251.34819,183.92591c0,0 1.77797,1.25752 2.70122,1.82735c1.91797,1.18373 3.73173,0.96026 3.73173,0.96026c0,0 -0.86714,1.51828 -0.2845,3.17082c0.49653,1.40832 1.62163,2.66857 1.54419,3.2999c-0.16328,1.33106 -2.47589,2.06611 -4.53298,2.16198c-3.40422,0.15866 -4.60295,-1.12759 -4.60295,-1.12759c0,0 -0.12303,-3.93402 -0.0028,-5.75262c0.10692,-1.6172 1.4461,-4.54009 1.4461,-4.54009z" fill="#aa96c7" stroke-width="0"/><path d="M251.34819,183.92591c0,0 1.77797,1.25752 2.70122,1.82735c1.91797,1.18373 3.73173,0.96026 3.73173,0.96026c0,0 -0.84382,0.99079 -0.55352,2.24277c-0.82894,-0.25009 -1.37266,0.05301 -3.1407,-0.41531c-2.50102,-0.66247 -2.67666,-2.02588 -3.11129,-2.37123c0.1784,-1.1913 0.37255,-2.24383 0.37255,-2.24383z" fill="#a7649a" stroke-width="0"/><path d="M254.0494,185.75327c1.91797,1.18373 3.73173,0.96026 3.73173,0.96026c0,0 -0.86714,1.51828 -0.2845,3.17082c0.49653,1.40832 1.62163,2.66857 1.54419,3.2999c-0.16328,1.33106 -2.47589,2.06611 -4.53298,2.16198c-3.40422,0.15866 -4.60295,-1.12759 -4.60295,-1.12759c0,0 -0.12303,-3.93402 -0.0028,-5.75262c0.10692,-1.6172 1.4461,-4.54009 1.4461,-4.54009c0,0 1.77796,1.25752 2.70121,1.82735z" fill="none" stroke-width="1"/></g><g><path d="M248.48966,193.87559l3.4738,-2.61607l4.54595,2.70184l2.40164,-1.37236l2.61606,3.774c0,0 -6.15589,8.2865 -8.2958,8.63451c-1.97887,0.32182 -4.09836,-6.61886 -4.09836,-6.61886z" fill="#0045d8" stroke="#000000" stroke-width="0" stroke-linecap="round"/><path d="M253.65747,201.33423c1.97357,-1.65742 3.50693,-4.89361 6.18818,-5.8804c0.3998,-0.14713 1.26327,-0.17111 1.42679,0.36231c0.30378,0.99095 -6.57846,9.20631 -8.17912,9.14551c-1.39841,-0.05311 -2.59606,-3.06459 -3.41988,-5.17789c-0.48603,-1.24678 -0.20003,-2.06909 -0.12194,-2.08861c0.13625,-0.09627 1.56123,0.64404 1.64258,1.02069c1.36218,0.92807 2.29633,2.75869 2.4634,2.61838z" fill="#080f95" stroke="none" stroke-width="0.5" stroke-linecap="butt"/><path d="M248.48966,193.8755l3.4738,-2.61607l4.54595,2.70184l2.40164,-1.37236l2.61606,3.774c0,0 -6.15589,8.28651 -8.2958,8.63451c-1.97886,0.32182 -4.09836,-6.61886 -4.09836,-6.61886" fill="none" stroke="#000000" stroke-width="1" stroke-linecap="round"/></g></g><path d="M176.16669,243.83333v-127.66667h127.66667v127.66667z" fill="none" stroke="none" stroke-width="NaN" stroke-linecap="butt"/><g><path d="M279.18634,172.46432c-1.37604,0.34281 -2.417,-1.29064 -4.76993,-2.28338c-2.39914,-1.01222 -4.96572,-1.66201 -5.29197,-1.99092c-0.91322,-0.92067 0.06216,-2.10803 0.59254,-2.83377c0.10194,-0.13949 3.413,-0.45449 6.56761,-0.1581c2.65423,0.24938 5.20221,0.98004 5.59003,2.13109c0.03076,0.09129 0.05255,0.18364 0.06602,0.27638c0.01765,0.08029 0.03056,0.16256 0.03838,0.24652c0.03889,0.41763 -0.95549,4.15448 -2.79268,4.61216z" fill="#0045d8" stroke="none" stroke-width="0.5" stroke-linecap="butt"/><path d="M279.18636,172.46432c-1.37604,0.34281 -2.417,-1.29065 -4.76993,-2.28338c-2.39914,-1.01222 -4.96573,-1.66201 -5.29197,-1.99092c-0.3288,-0.33148 -0.41277,-0.69754 -0.36084,-1.06417c2.05968,-0.22067 4.09794,-0.41322 4.68993,-0.25291c2.9366,0.7952 4.97166,2.86522 7.23776,4.35141c-0.41021,0.60621 -0.91399,1.09274 -1.50496,1.23998z" fill="#080f95" stroke="none" stroke-width="0.5" stroke-linecap="butt"/><path d="M279.18636,172.46432c-1.37604,0.34281 -2.417,-1.29065 -4.76993,-2.28338c-2.39914,-1.01222 -4.96573,-1.66201 -5.29197,-1.99092c-0.91322,-0.92066 0.06216,-2.10803 0.59254,-2.83378c0.10194,-0.13949 3.413,-0.45449 6.56761,-0.15811c2.65422,0.24938 5.20222,0.98004 5.59003,2.1311c0.03076,0.09129 0.05254,0.18363 0.06601,0.27639c0.01765,0.08029 0.03056,0.16256 0.03837,0.24651c0.03889,0.41763 -0.95548,4.15448 -2.79268,4.61217z" fill="none" stroke="#000000" stroke-width="1" stroke-linecap="butt"/><g fill="none" stroke="none" stroke-width="1" stroke-linecap="butt" font-family="sans-serif" font-weight="normal" font-size="12" text-anchor="start"/><g stroke="#000000" stroke-linecap="round"><path d="M229.76903,173.65807c0,0 -10.18089,-24.05798 12.57624,-25.48174c23.33381,-1.45984 20.82531,19.38474 20.82531,19.38474c0,0 5.70831,-5.41822 6.65883,-4.94252c0.8023,0.40152 -0.0684,5.46105 -0.72475,7.42212c-0.485,1.4491 -1.06805,4.54346 -2.42925,4.8353c-0.85677,0.18368 -4.66045,-2.35453 -4.66045,-2.35453c0,0 -7.09572,4.76517 -13.7855,6.66555c-6.60605,1.8766 -16.30228,1.61143 -16.30228,1.61143c0,0 -7.20934,-0.23686 -7.58376,-2.68009c-0.31904,-2.08184 5.42561,-4.46028 5.42561,-4.46028z" fill="#aa96c7" stroke-width="0"/><path d="M258.06933,174.89948c-0.0327,0.01821 -1.44749,-1.98962 -1.44749,-1.98962l-2.99208,2.80377l-5.40358,-6.84713l-6.50234,4.82958l-1.45846,-6.43443c0,0 -11.22419,4.3627 -11.23363,4.33298c-1.8596,-5.85907 -5.3502,-22.25066 13.31351,-23.41832c23.33381,-1.45984 20.82531,19.38474 20.82531,19.38474c0,0 5.54032,3.81004 5.49169,3.97589c-0.42742,1.4581 -1.0045,3.12841 -1.98688,3.33902c-0.85677,0.18368 -4.66045,-2.35453 -4.66045,-2.35453c0,0 -1.57727,1.05921 -3.94561,2.37804z" fill="#a7649a" stroke-width="0"/><path d="M263.67852,169.0069l2.95763,-1.64417l-0.77406,5.04928z" fill="#a7649a" stroke-width="0.5"/><path d="M242.34524,148.17633c23.33381,-1.45984 20.82531,19.38474 20.82531,19.38474c0,0 5.70831,-5.41822 6.65883,-4.94252c0.8023,0.40152 -0.0684,5.46105 -0.72475,7.42212c-0.485,1.4491 -1.06805,4.54346 -2.42925,4.8353c-0.85677,0.18368 -4.66045,-2.35453 -4.66045,-2.35453c0,0 -7.09572,4.76517 -13.7855,6.66555c-6.60605,1.8766 -16.30228,1.61143 -16.30228,1.61143c0,0 -7.20934,-0.23686 -7.58376,-2.68009c-0.31904,-2.08184 5.42561,-4.46028 5.42561,-4.46028c0,0 -10.18088,-24.05797 12.57625,-25.48173z" fill="none" stroke-width="1"/></g><g stroke="#000000" stroke-linecap="round"><path d="M268.74474,159.88153c0,0 -1.59694,3.55747 -2.59411,5.03757c-0.86108,1.2781 -3.04076,3.32629 -3.04076,3.32629c0,0 -11.16935,-4.19532 -18.68596,-4.46915c-7.6777,-0.2797 -17.44329,1.31827 -17.44329,1.31827c0,0 -5.04968,-17.5225 -1.66779,-20.47958c2.46253,-2.1532 9.85555,-4.60024 17.2416,-4.60933c3.36636,-0.00415 12.99618,0.08514 16.34468,2.89467c4.48788,3.76553 9.84564,16.98126 9.84564,16.98126z" fill="#ae1c51" stroke-width="0"/><path d="M268.74474,159.88153c0,0 -1.59694,3.55748 -2.59411,5.03757c-0.86108,1.2781 -3.04075,3.32629 -3.04075,3.32629c0,0 -5.40902,-2.03168 -11.23196,-3.35965c-0.15242,-0.03476 1.26215,-14.24749 3.76056,-20.00753c0.82732,-1.90739 2.42764,-2.67689 3.26062,-1.97797c4.48788,3.76554 9.84565,16.98127 9.84565,16.98127z" fill="#710c65" stroke-width="0.5"/><path d="M266.15065,164.91913c-0.86108,1.2781 -3.04075,3.32629 -3.04075,3.32629c0,0 -11.16935,-4.19532 -18.68597,-4.46914c-7.6777,-0.2797 -17.44328,1.31827 -17.44328,1.31827c0,0 -5.04968,-17.52251 -1.66779,-20.47958c2.46254,-2.15321 9.85555,-4.60024 17.2416,-4.60933c3.36636,-0.00415 12.99618,0.08513 16.34466,2.89466c4.48788,3.76554 9.84565,16.98127 9.84565,16.98127c0,0 -1.59694,3.55747 -2.59411,5.03756z" fill="none" stroke-width="1"/></g><g stroke="#000000" stroke-linecap="round"><path d="M228.24821,170.68894c0,0 -3.75365,1.2784 -5.44737,2.09464c-1.71966,0.82874 -4.79396,2.8409 -4.79396,2.8409c0,0 1.2595,-3.98883 2.17284,-5.81599c0.86739,-1.73523 3.17646,-4.88544 3.17646,-4.88544l-9.44128,1.50142c0,0 7.6478,-13.42346 11.08717,-15.28387c2.05128,-1.10956 10.43377,3.2008 10.43377,3.2008c0,0 1.02111,-2.78685 1.78391,-4.1115c0.69462,-1.20624 2.60752,-3.51442 2.60752,-3.51442c0,0 2.06622,5.9688 3.36795,8.83125c1.3561,2.98199 4.61223,8.71676 4.61223,8.71676l15.01602,3.57875l-0.73658,6.78782l-6.24898,-5.63953l-2.26888,3.69534l-5.76157,-8.42237l-4.55528,4.53043l-1.58127,-4.95437c0,0 -10.72492,3.58704 -13.06917,5.01656c-0.63903,0.38968 -0.35352,1.83285 -0.35352,1.83285z" fill="#346def" stroke-width="0"/><path d="M230.52168,161.21283l-12.51481,14.41164c0,0 1.2595,-3.98883 2.17283,-5.81599c0.86738,-1.73523 3.17646,-4.88544 3.17646,-4.88544l-9.44127,1.50141c0,0 7.64779,-13.42346 11.08717,-15.28387c2.05127,-1.10957 10.43378,3.2008 10.43378,3.2008c0,0 1.0211,-2.78685 1.7839,-4.11149c0.69462,-1.20624 2.60752,-3.51441 2.60752,-3.51441l-1.42481,12.02637c0,0 -9.38229,-3.58008 -11.54411,-3.06305c-3.39289,0.81143 -7.58025,8.21008 -7.58025,8.21008z" fill="#45afff" stroke-width="0"/><path d="M253.08464,167.1203l-0.3334,4.3701l-3.49104,-5.10327z" fill="#45afff" stroke-width="0"/><path d="M218.00689,175.62448c0,0 1.2595,-3.98883 2.17283,-5.81599c0.86738,-1.73523 3.17646,-4.88544 3.17646,-4.88544l-9.44127,1.50141c0,0 7.64779,-13.42346 11.08717,-15.28387c2.05127,-1.10957 10.43378,3.2008 10.43378,3.2008c0,0 1.0211,-2.78685 1.7839,-4.11149c0.69462,-1.20624 2.60752,-3.51441 2.60752,-3.51441c0,0 2.06621,5.96879 3.36794,8.83124c1.35609,2.98199 4.61223,8.71676 4.61223,8.71676l15.01602,3.57875l-0.73658,6.78782l-6.24898,-5.63952l-2.26889,3.69534l-5.76158,-8.42237l-4.55529,4.53043l-1.58127,-4.95437c0,0 -10.72492,3.58704 -13.06917,5.01656c-0.63903,0.38968 -0.35352,1.83285 -0.35352,1.83285c0,0 -3.75363,1.2784 -5.44736,2.09464c-1.69373,0.81624 -4.79396,2.84087 -4.79396,2.84087z" fill="none" stroke-width="1"/></g></g><g stroke="none" stroke-width="0.5" stroke-linecap="butt"><path d="M244.7539,170.78846c-0.42763,-0.12112 -0.37518,-0.59317 -0.37518,-0.59317c0.2875,-2.15256 3.63165,-3.76916 4.64648,-1.09459c1.00691,2.65372 -3.62083,4.25409 -4.2713,1.68778z" fill="#000000"/><path d="M237.29079,171.69615c0.42606,0.1009 0.78565,0.38778 1.02081,0.94915c0.82357,1.96592 -4.0042,3.94565 -4.7951,1.87752c-0.15998,0.03894 -0.37968,0.02665 -0.5595,-0.22507c-0.32405,-0.45368 0.12962,-0.77773 0.12962,-0.77773c0.11168,-0.0796 0.24393,-0.17573 0.39243,-0.28186c0.0154,-0.07442 0.0334,-0.15103 0.0541,-0.22988c0.57275,-0.51402 1.56678,-1.66374 2.38999,-1.74065c0.53977,-0.05043 1.01597,0.12389 1.36765,0.42852zM235.27673,174.07806c-0.00546,-0.04947 -0.00885,-0.0999 -0.01019,-0.15092c-0.15232,0.10922 -0.29299,0.20594 -0.41086,0.27276c-0.19792,0.11221 0.07853,0.00904 0.42104,-0.12184z" fill="#000000"/><path d="M238.13105,178.58252c0,-0.19162 0.06587,-0.31739 0.15232,-0.39992c1.11884,-3.0495 8.02798,-3.61627 10.66647,-4.74704c0.87738,-0.11585 2.61469,-0.66201 3.42853,-0.07444c0.94439,0.68182 0.67701,1.99233 -0.21298,2.52578c-1.8557,1.11228 -5.55057,1.86899 -7.69916,1.82585c-1.67345,0.88967 -3.55816,0.74147 -5.28454,1.39181l-0.49311,0.0355c0,0 -0.55752,0 -0.55752,-0.55752zM239.96576,177.71344c1.42091,-0.33154 2.87244,-0.43142 4.24426,-1.08585c2.12322,-0.03482 11.3169,-2.85014 5.03144,-2.11574c-2.21449,0.94907 -4.81768,1.73472 -7.13435,2.37823c-0.63619,0.17671 -1.52933,0.38979 -2.14134,0.82336z" fill="#000000"/><path d="M242.05279,176.90281c2.31667,-0.64351 5.0253,-1.46404 7.23979,-2.41311c6.28546,-0.73441 -3.01131,2.12335 -5.13453,2.15817c-1.37182,0.65444 -2.82495,0.7496 -4.24587,1.08114c0.61201,-0.43357 1.50442,-0.64948 2.14061,-0.82619z" data-paper-data="{&quot;noHover&quot;:false,&quot;origItem&quot;:[&quot;Path&quot;,{&quot;applyMatrix&quot;:true,&quot;segments&quot;:[[[222.87876,214.37386],[0.54887,-0.38884],[1.27431,-0.29733]],[[226.68512,213.40004],[-1.23028,0.58692],[1.90416,-0.03123]],[[231.19744,211.5026],[5.63696,-0.65864],[-1.98601,0.85115]],[[224.79917,213.63546],[2.07765,-0.57712],[-0.57055,0.15848]]],&quot;closed&quot;:true}]}" fill="#ad5893"/></g><g fill="none" stroke="#000000" stroke-width="1" stroke-linecap="round"><path d="M257.46306,154.42962v-10.02034"/><path d="M259.38057,158.26457v-17.07171"/><path d="M261.44552,156.90375v-14.72125"/><path d="M263.36298,154.55334v-11.38114"/><path d="M265.13298,145.02781v7.54618"/></g><g><path d="M204.60947,196.71308c-0.1389,-1.75802 1.17366,-3.29577 2.93167,-3.43467c1.75802,-0.1389 3.29575,1.17365 3.43465,2.93168c0.1389,1.75802 -1.17365,3.29575 -2.93166,3.43465c-1.75802,0.1389 -3.29577,-1.17365 -3.43467,-2.93165z" fill="#3f5479" stroke="#000000" stroke-width="1" stroke-linecap="butt"/><path d="M219.2419,180.17744c4.60963,0.46877 8.79849,9.56005 6.5138,14.15321c-0.87935,1.76784 -2.8242,2.62116 -4.66378,2.43659c-0.16721,-0.01677 -1.34356,-0.87603 -1.39072,-0.82c-0.26649,0.3167 -0.21646,1.55271 -1.05507,2.24523c-1.13278,0.93544 -3.18089,1.32647 -3.18089,1.32647c0,0 -1.92476,2.60592 -3.00345,2.2601c-5.59837,-1.79472 -6.8401,-7.23627 -5.68593,-10.67165c0.30131,-0.89686 2.76406,-2.45067 3.78004,-3.78439c0.92992,-1.22075 -0.0122,-1.52006 0.85473,-2.07308c0.19659,-0.1254 0.85301,-0.56029 1.57642,-0.67252c0.79981,-0.12411 1.69687,0.05451 2.48533,-0.54849c1.64313,-1.2566 1.25681,-4.10701 3.7695,-3.85148z" fill="#aa96c7" stroke="#000000" stroke-width="0" stroke-linecap="butt"/><path d="M217.42566,199.23778c0.91173,-6.47796 11.55424,-7.86496 11.11404,-1.87877c-0.22444,3.05215 -2.74337,2.60689 -4.81102,3.41066c-0.15826,0.06152 -0.29992,0.16217 -0.43454,0.28787c-0.32226,1.06741 -1.27148,1.88061 -2.45,1.97372c-0.21641,0.0171 -0.42898,0.00901 -0.63485,-0.02182c-1.1102,-0.16622 -2.02535,-0.99345 -2.29312,-2.09562c-0.44996,-0.46509 -0.42629,-1.08374 -0.47114,-1.65142z" fill="#a7649a" stroke="#000000" stroke-width="1" stroke-linecap="butt"/><path d="M225.75569,194.33056c-0.87935,1.76784 -2.8242,2.62116 -4.66377,2.43659c-0.16721,-0.01677 -1.34356,-0.87603 -1.39072,-0.82c-0.26649,0.3167 -0.21646,1.55271 -1.05507,2.24523c-1.13279,0.93543 -3.18089,1.32647 -3.18089,1.32647c0,0 -1.92476,2.60592 -3.00345,2.2601c-1.00696,-0.3228 -1.87298,-0.76361 -2.60947,-1.28949c0.78143,-1.68287 1.51198,-2.90086 1.35542,-4.88239c-0.05202,-0.65838 0.05511,-2.4344 -0.10419,-3.05267c0.49852,-0.35382 0.41977,-0.2922 0.90629,-0.70481c0.0455,0.22501 0.11166,0.44452 0.19986,0.6575c0.12818,0.30954 0.30434,0.61777 0.51606,0.91309c0.24704,1.3973 1.52057,2.40439 2.96421,2.29033c0.20288,-0.01603 0.39896,-0.0534 0.58622,-0.10972c0.81434,-0.02074 1.50767,-0.50911 1.8136,-1.71351c0.05138,-0.14054 0.0917,-0.28611 0.11999,-0.43556c0.51115,0.35709 1.14462,0.54571 1.81474,0.49277c0.12811,-0.01012 0.25352,-0.02876 0.3757,-0.05529c0.71421,-0.15515 1.31838,-0.5806 1.71048,-1.15685c1.24125,-1.11358 2.70752,-2.84812 3.85666,-4.57997c0.59377,2.23343 0.62083,4.50446 -0.21171,6.17818z" fill="#a7649a" stroke="#000000" stroke-width="0" stroke-linecap="butt"/><path d="M210.80333,191.77513l1.70468,0.98383c0,0 0.33617,2.37788 0.82734,3.37084c0.55077,1.11348 2.01583,3.01396 2.01583,3.01396" fill="none" stroke="#000000" stroke-width="1" stroke-linecap="round"/><path d="M216.47274,188.88671l1.50256,0.9998c0,0 0.04133,2.01978 0.38377,3.17979c0.35154,1.19083 1.5659,3.47896 1.5659,3.47896" fill="none" stroke="#000000" stroke-width="1" stroke-linecap="round"/><path d="M219.2419,180.17744c4.60963,0.46877 8.7985,9.56005 6.51381,14.15321c-0.87935,1.76784 -2.8242,2.62116 -4.66377,2.43659c-0.16721,-0.01677 -1.34356,-0.87603 -1.39072,-0.82c-0.26649,0.3167 -0.21646,1.55271 -1.05507,2.24523c-1.13279,0.93543 -3.18089,1.32647 -3.18089,1.32647c0,0 -1.92476,2.60592 -3.00345,2.2601c-5.59837,-1.79472 -6.8401,-7.23627 -5.68593,-10.67165c0.30132,-0.89686 2.76406,-2.45067 3.78004,-3.78439c0.92992,-1.22075 -0.0122,-1.52006 0.85473,-2.07308c0.20487,-0.13069 0.70111,-0.54605 1.46649,-0.67124c0.78103,-0.12776 1.83686,0.03024 2.59526,-0.54977c1.64313,-1.25659 1.25681,-4.10701 3.7695,-3.85148z" fill="none" stroke="#000000" stroke-width="1" stroke-linecap="butt"/><path d="M221.36654,188.72893c-0.27339,-3.46022 1.32958,-6.10439 3.92473,-6.30942c2.59516,-0.20504 4.92058,2.4338 5.19397,5.89402c0.27339,3.46022 -1.01843,6.18147 -3.6136,6.38651c-2.59516,0.20504 -5.23172,-2.51091 -5.5051,-5.97111z" fill="#93c0c3" stroke="none" stroke-width="0" stroke-linecap="butt"/><path d="M226.87165,194.7c-2.50482,0.1979 -5.0482,-2.32534 -5.46806,-5.61256c3.02841,-0.21251 6.06349,-0.33696 9.09809,-0.53566c0.19666,3.34614 -1.09474,5.9479 -3.63004,6.14821z" fill="#475f86" stroke="none" stroke-width="0" stroke-linecap="butt"/><path d="M221.44409,186.61118c0.84709,0.02838 1.97792,-0.41604 2.49907,-0.47543c1.15738,-0.13191 3.73406,-0.12779 5.74234,-0.75718c0.31171,0.6218 0.547,1.31774 0.68531,2.06447c-3.01343,0.1966 -6.02718,0.32076 -9.0345,0.53139c-0.00007,-0.47504 0.03672,-0.93101 0.10778,-1.36325z" fill="#475f86" stroke="none" stroke-width="0" stroke-linecap="butt"/><path d="M221.36654,188.72893c-0.27339,-3.46022 1.32958,-6.10439 3.92473,-6.30942c2.59516,-0.20504 4.92058,2.4338 5.19397,5.89402c0.27339,3.46022 -1.01843,6.18147 -3.6136,6.38651c-2.59516,0.20504 -5.23172,-2.51091 -5.5051,-5.97111z" fill="none" stroke="#000000" stroke-width="1" stroke-linecap="butt"/><path d="M224.31024,187.37775c-0.38362,-4.85546 2.84505,-9.3763 7.36565,-9.73347c4.52061,-0.35717 7.57083,3.15919 7.95445,8.01464c0.38362,4.85546 -2.97006,9.08112 -7.49065,9.43829c-4.52059,0.35716 -7.44581,-2.86399 -7.82943,-7.71945z" fill="#3f5479" stroke="#000000" stroke-width="0" stroke-linecap="butt"/><path d="M239.63034,185.659c0.38362,4.85546 -2.97006,9.08112 -7.49065,9.43829c-3.83738,0.30318 -6.52519,-1.97208 -7.48461,-5.6367c0.19195,0.06515 0.39698,0.11673 0.61562,0.15338c4.68706,0.78593 12.2041,-1.01284 13.97026,-6.19163c0.19596,0.70352 0.32743,1.45263 0.38937,2.23665z" fill="#323344" stroke="#000000" stroke-width="0" stroke-linecap="butt"/><path d="M230.85295,179.13293c-0.03638,-0.46043 0.30738,-0.86317 0.76781,-0.89955c0.46044,-0.03638 0.86317,0.30739 0.89955,0.76781c0.03638,0.46043 -0.30738,0.86317 -0.76781,0.89955c-0.46044,0.03638 -0.86317,-0.30739 -0.89955,-0.76781z" fill="#95c2c5" stroke="none" stroke-width="0.5" stroke-linecap="butt"/><path d="M224.31024,187.37775c-0.38362,-4.85546 2.84505,-9.3763 7.36565,-9.73347c4.52061,-0.35717 7.57083,3.15919 7.95445,8.01464c0.38362,4.85546 -2.97006,9.08112 -7.49065,9.43829c-4.52059,0.35716 -7.44581,-2.86399 -7.82943,-7.71945z" fill="none" stroke="#000000" stroke-width="1" stroke-linecap="butt"/><path d="M239.14754,187.94579c0,0 -0.99668,2.66805 -6.05877,3.28211c-2.78999,0.33846 -6.23134,0.42929 -6.23134,0.42929" fill="none" stroke="#000000" stroke-width="1" stroke-linecap="round"/><path d="M239.45456,185.46083c0,0 -2.44929,0.9143 -4.16433,1.27753c-2.71931,0.57592 -10.57715,1.84458 -10.57715,1.84458" fill="none" stroke="#000000" stroke-width="1" stroke-linecap="round"/><path d="M224.33708,186.65524c0,0 3.07169,-2.99133 7.27264,-3.66194c3.57594,-0.57083 7.5376,0.70217 7.5376,0.70217" fill="none" stroke="#000000" stroke-width="1" stroke-linecap="round"/><path d="M224.6674,183.04985c0,0 2.72642,-2.5527 6.0564,-2.90606c3.3463,-0.35509 7.30151,0.67623 7.30151,0.67623" fill="none" stroke="#000000" stroke-width="1" stroke-linecap="round"/><path d="M230.33574,194.62613c0,0 -3.38894,-2.56073 -4.40098,-6.52507c-0.58513,-2.29203 0.14396,-7.00821 0.14396,-7.00821" fill="none" stroke="#000000" stroke-width="1" stroke-linecap="round"/><path d="M232.79437,194.59963c0,0 -3.6236,-3.98183 -4.2266,-7.6652c-0.47044,-2.87369 0.93035,-8.57252 0.93035,-8.57252" fill="none" stroke="#000000" stroke-width="1" stroke-linecap="round"/><path d="M235.60983,193.42645c0,0 -2.32663,-0.70819 -3.26007,-9.0426c-0.30044,-2.68262 0.67906,-6.63645 0.67906,-6.63645" fill="none" stroke="#000000" stroke-width="1" stroke-linecap="round"/><path d="M236.94149,179.84308l1.06694,11.38052" fill="none" stroke="#000000" stroke-width="1" stroke-linecap="round"/></g></g></g></svg>