<svg version="1.1" xmlns="http://www.w3.org/2000/svg" xmlns:xlink="http://www.w3.org/1999/xlink" width="258.66667" height="258.66667" viewBox="0,0,258.66667,258.66667"><g transform="translate(-110.66666,-50.66667)"><g data-paper-data="{&quot;isPaintingLayer&quot;:true}" fill-rule="nonzero" stroke-linejoin="miter" stroke-miterlimit="10" stroke-dasharray="" stroke-dashoffset="0" style="mix-blend-mode: normal"><path d="M110.66666,309.33335v-258.66667h258.66667v258.66667z" data-paper-data="{&quot;index&quot;:null}" fill="none" stroke="none" stroke-width="0" stroke-linecap="butt"/><g data-paper-data="{&quot;index&quot;:null}" stroke-linecap="butt"><g data-paper-data="{&quot;index&quot;:null}"><path d="M281.37739,224.74945c0,0 0.31673,3.6259 -10.9641,6.69064c-17.1689,4.66441 -49.72286,9.47594 -60.73974,9.62258c-5.33381,0.071 -11.28049,-3.17719 -16.15913,-5.15303c-10.83949,-4.38997 -12.44971,-9.09369 -12.44971,-9.09369c0,0 -1.68348,-4.86202 -0.76881,-6.95363c0.74252,-1.69799 5.70265,-1.03429 5.70265,-1.03429c0,0 43.88628,-7.28994 71.5262,-8.63896c1.19,-0.05809 1.93451,4.24475 3.03907,4.17956c5.99754,-4.84338 14.98457,-5.98719 15.16828,-5.8402c4.52535,3.62074 5.64531,16.22099 5.64531,16.22099z" fill="#0045d8" stroke="#000000" stroke-width="3"/><path d="M205.51958,216.72462c-0.04812,-1.81264 -1.73746,-8.68946 -1.73746,-8.68946c0,0 12.15853,-0.55896 26.87607,-0.68531c12.18245,-0.10458 21.12902,-3.84327 21.12902,-3.84327c0,0 6.19209,8.56069 6.62523,9.05041c0.98512,1.11382 0.67476,2.8886 0.67476,2.8886c0,0 -1.44399,4.79511 -2.43021,7.23587c-1.20686,2.98683 -4.8852,11.272 -4.8852,11.272c0,0 -0.7448,1.54833 -1.89792,0.38282c-2.09799,-2.1205 -5.40621,-7.89774 -7.03854,-10.61703c-0.95545,-0.07291 -1.81314,-0.16899 -2.81287,-0.09297c-2.98345,0.22686 -6.17035,1.286 -9.67233,1.39031c-4.37841,0.13041 -8.33964,0.17342 -11.75763,-0.43646c-8.00912,-1.42909 -12.9936,-4.86683 -13.07294,-7.85546z" fill="#080f95" stroke="none" stroke-width="0"/><path d="M242.72308,221.12974c1.08836,-0.89936 4.13351,-2.9141 4.13351,-2.9141c0,0 -1.01016,2.3895 -3.78374,5.75492c-2.97396,3.60857 -5.8845,1.72779 -5.8845,1.72779c0,0 4.59344,-3.79079 5.53473,-4.56861z" fill="#000000" stroke="none" stroke-width="0"/></g><g data-paper-data="{&quot;index&quot;:null}"><g><path d="M255.16318,203.24431c0,0 -0.53816,11.38189 -19.04013,14.36065c-17.87817,2.87832 -28.12787,0.94437 -33.78043,-0.56519c-3.08405,-0.82362 -8.09022,-1.28477 -8.09022,-1.28477c0,0 -2.06009,-8.36451 -2.79688,-16.87956c-0.68164,-7.87758 -0.03765,-15.80667 -0.18947,-19.2063c-0.46867,-10.49402 3.84449,-8.31969 3.84449,-8.31969l32.67629,6.0832c0,0 -0.15436,2.99064 -0.86503,8.35573c8.83332,4.64768 27.90874,13.57974 28.24136,17.45595z" fill="#ab9efa" stroke="#000000" stroke-width="3"/><path d="M232.75402,196.44743l0.5252,0.5697c0.0532,0.05703 0.09776,0.12175 0.13155,0.19219c0.51606,0.56176 1.01927,1.14827 1.51305,1.75849c4.13013,6.10928 0.8197,10.93991 -6.32831,11.65072c-8.00847,0.76666 -11.9157,-1.90812 -17.15913,-6.79743c-2.75795,-3.00268 -8.90803,-10.1948 -2.62491,-13.17601c0.75161,-0.35663 2.20634,-0.47719 3.01715,-0.65899c3.50424,-0.69604 7.93867,-0.68778 11.32558,0.69951c1.32505,0.54276 2.75652,1.27007 4.0109,2.04216c0.29917,0.17066 0.68316,0.25741 0.97211,0.44006zM225.47814,196.23534c-0.56871,1.95703 -0.8214,4.31456 -1.30817,6.03662c-0.28061,0.88249 -1.45012,3.86101 -0.58327,4.60524c1.87128,1.60655 8.10244,-0.66431 8.68788,-2.79636c-0.10119,-3.81147 -3.35916,-6.10184 -6.79646,-7.84552zM222.14113,194.66071c-0.7147,-0.3292 -1.39044,-0.64732 -1.99507,-0.96489c-3.05783,-0.93457 -4.73091,-0.61261 -7.73198,0.34253c-0.61164,0.19468 -2.24283,0.3654 -2.34585,1.18952c-0.19932,1.59465 1.30446,3.52119 2.16236,4.78647c0.96057,1.42702 4.28198,5.26711 6.3482,5.04588c0.34431,-0.03686 0.83089,-1.13289 0.94445,-1.35063c0.86262,-1.65397 0.99152,-3.67158 1.49681,-5.45057c0.20553,-1.13944 0.52449,-2.20261 0.98325,-3.26689l0.13784,-0.33142z" fill="#b4052c" stroke="none" stroke-width="0.5"/></g><path d="M191.5152,189.25522c0,0 0.46657,-4.71388 1.87365,-6.07842c5.79332,-5.61817 7.62106,-3.20696 7.62106,-3.20696c0,0 -2.93093,27.54557 -4.7025,34.87165c-3.80992,0.0327 -4.79221,-25.58629 -4.79221,-25.58629z" fill="#9362ec" stroke="none" stroke-width="0"/></g><g data-paper-data="{&quot;index&quot;:null}"><path d="M195.77464,217.41448c0,0 -11.19193,1.48556 -15.34964,0.74158c-3.08686,-0.55236 -6.80656,-4.29296 -6.80656,-4.29296c0,0 -0.62678,0.08107 -0.87364,-1.66687c-0.18883,-1.33713 3.05932,-2.1958 3.88008,-4.28306c1.70842,-4.3446 1.77891,-10.21869 1.77891,-10.21869c0,0 -1.9375,-7.2884 3.36545,-8.73398c7.16344,-1.95273 11.83286,2.02346 11.83286,2.02346c0,0 3.32796,9.51601 3.44447,13.90463c0.13524,5.09416 -1.27195,12.52591 -1.27195,12.52591z" fill="#aa96c7" stroke="#000000" stroke-width="2.35"/><path d="M178.97433,204.07608c0,0 0.43011,-2.68589 0.03878,-5.61811c-0.52921,-3.96528 0.02399,-9.02624 3.71653,-9.05794c3.85664,-0.03311 7.5914,-0.44597 10.06667,2.10943c1.53871,1.58852 1.94873,7.2704 1.94873,7.2704c0,0 -2.82462,2.33433 -8.83826,4.52708c-5.5135,2.01038 -6.93243,0.76914 -6.93243,0.76914z" fill="#c172b1" stroke="none" stroke-width="0"/></g><g data-paper-data="{&quot;index&quot;:null}" stroke="none" stroke-width="0"><path d="M176.28218,197.59276c-0.6635,-0.23279 -6.15077,-5.3139 -6.67533,-6.28923c-1.50033,-2.78962 7.86967,-3.71593 8.12003,-9.05546c0.14919,-3.18192 -4.20074,-6.06967 -4.94455,-8.85708c-0.55203,-2.0687 2.35086,-4.3077 2.81,-5.38139c0.26275,-0.61441 2.83502,-1.85949 3.63107,-2.03715c8.69724,1.57041 21.76285,8.90482 21.76285,8.90482l0.12927,5.66116c0,0 -0.18372,7.98033 -4.78701,12.83826c-4.55867,4.81085 -13.50502,6.5111 -20.04633,4.21606z" fill="#ab9efa"/><path d="M199.62996,183.78293c0,0 2.78534,8.33859 -2.09134,12.79187c-1.95987,1.78971 -8.74217,0.63616 -11.91908,1.62805c-4.63006,1.44558 -12.52299,-0.37139 -12.52299,-0.37139c-3.47703,-1.71828 -6.32803,-6.91261 -3.85703,-12.12449c0.74795,-1.57757 6.15375,-1.91523 5.54519,-5.51892c-0.72078,-4.26828 -6.07681,-5.24694 -6.07681,-5.24694c0,0 -1.32867,-1.9678 -0.18733,-4.24359c1.35257,-2.69699 6.76763,-4.97178 7.48816,-4.23046c0.5836,0.60042 -3.82253,5.22125 -3.31894,6.15852c1.81226,3.37299 6.74467,7.79338 6.38343,9.32197c-0.54314,2.29827 -7.63757,8.24053 -7.63757,8.24053c0,0 2.91951,5.30128 3.33105,5.88366c1.38973,1.96667 6.09079,1.35845 8.59359,0.72634c6.02871,-1.52263 11.6017,-1.99802 14.19184,-4.93955c2.44836,-2.78051 2.07785,-8.07561 2.07785,-8.07561z" fill="#000000"/></g><g data-paper-data="{&quot;index&quot;:null}"><g><g><path d="M230.14939,247.16413c-0.1488,-5.60448 -1.08654,-16.64056 5.43057,-21.25742c1.62365,-1.15023 5.84786,-4.47571 9.68027,-1.02606c0.43609,0.39254 -0.69515,1.4519 0.11351,2.91257c0.29849,0.53918 2.17819,0.57958 2.6818,1.21249c1.59087,1.99934 4.92365,3.9277 5.62217,3.84111c2.08806,-5.38263 8.78008,-11.91532 11.04345,-12.43126c4.06732,-0.92716 19.67976,2.38905 19.59449,5.41385c0.56616,2.45546 -3.22922,6.5404 -3.22922,6.5404c0,0 16.56548,8.75097 22.77534,12.23701c10.6929,6.00269 11.02086,10.8524 11.02086,10.8524c0,0 0.70121,2.41846 -3.58476,3.67933c-8.40133,2.47156 -18.88284,3.25957 -31.21086,3.03929c-11.97783,-0.21403 -11.76946,-6.33152 -24.36546,-7.56913c-10.62065,-1.04354 -25.32508,1.86255 -25.57218,-7.44455z" fill="#ae1c51" stroke="#000000" stroke-width="3"/><path d="M295.54285,260.44687c0,0 -11.59512,1.31723 -17.47423,0.54379c-5.93224,-0.78043 -14.16207,-6.61812 -19.91586,-7.37085c-12.17677,-1.593 -19.67515,0.50139 -22.85056,-1.52691c-0.20425,-0.13046 -4.99149,-1.82405 -4.52056,-7.50791c1.13207,-13.66371 7.26078,-15.79471 7.26078,-15.79471c0,0 7.3588,7.75916 15.76496,8.67213c1.6463,0.17879 0.43655,-2.61448 0.43655,-2.61448c0,0 -0.27483,-1.34577 0.09032,-2.24669c0.54685,-1.34919 2.87187,-5.0616 2.87187,-5.0616c0,0 0.83958,2.01193 3.10949,4.36502c2.74013,2.8405 7.90883,5.56225 13.27702,9.03537c5.96762,3.86095 15.89511,7.18906 18.30643,9.30767c2.62605,2.30727 3.64377,10.19913 3.64377,10.19913z" fill="#710c65" stroke="none" stroke-width="0"/><path d="M239.41573,232.37819c0.03755,1.41442 -0.66333,1.92692 -2.12917,1.93951c-1.46584,0.01258 -2.1912,-0.39618 -2.22875,-1.81061c-0.03755,-1.41442 0.85292,-1.92853 2.31876,-1.94112c1.46583,-0.01259 2.0016,0.3978 2.03915,1.81223z" fill="#000000" stroke="none" stroke-width="0"/><path d="M251.08215,232.55248c0,0 1.20709,0.17261 5.37137,2.33256c3.39027,1.75847 5.5731,2.78826 5.5731,2.78826c0,0 -0.53,1.20774 -5.96933,0.14274c-5.66183,-1.10856 -4.97513,-5.26354 -4.97513,-5.26354z" fill="#000000" stroke="none" stroke-width="0"/></g><g><path d="M265.47606,244.72762c-1.74302,-1.16558 -2.15147,-3.58855 -1.82738,-5.0596c0.7689,-3.49018 3.66766,-5.60041 5.54234,-6.10032c7.94389,-2.11839 14.25606,-1.18104 14.15187,0.4591c-0.18779,2.95545 -5.98369,3.24455 -9.62864,5.85042c-1.84373,1.31814 -2.37028,2.73867 -3.45995,3.83597c-1.04029,1.04755 -2.82496,2.3206 -4.77824,1.01442z" fill="#ab9efa" stroke="#000000" stroke-width="2.5"/><path d="M264.46076,240.59521c-0.05809,-2.18796 1.83731,-3.22354 1.83731,-3.22354c0,0 0.88155,0.12523 2.45937,0.86739c2.06943,0.97342 2.79996,2.04363 2.79996,2.04363c0,0 -0.74091,0.81425 -1.45325,1.6591c-0.91742,1.08808 -1.23453,2.51521 -2.37923,2.52504c-2.03352,0.01746 -3.20608,-1.68367 -3.26417,-3.87162z" fill="#9362ec" stroke="none" stroke-width="0"/></g><g><path d="M273.72125,248.74135c-0.58957,-0.66888 0.55057,-4.98695 3.69524,-8.11493c7.47126,-7.43162 11.18,-7.3287 12.69012,-4.90912c1.36635,2.18922 -4.24311,5.19186 -8.12775,9.1143c-3.46753,3.50125 -7.07863,5.24739 -8.25762,3.90973z" fill="#ab9efa" stroke="#000000" stroke-width="2.5"/><path d="M279.21625,246.05754c0,0 -2.93616,2.72686 -4.20232,2.31724c-0.78241,-0.25311 -0.29502,-3.45552 0.02124,-3.98616c0.84611,-1.41962 2.18627,-1.88802 2.18627,-1.88802l3.6214,1.68348c0,0 -0.93672,1.29922 -1.62658,1.87345z" fill="#9362ec" stroke="none" stroke-width="0"/></g><g><path d="M281.98823,252.58204c-2.93312,-1.51168 9.27484,-17.37277 13.86638,-13.98649c3.11201,2.2951 -2.80496,3.43518 -6.31241,7.68983c-3.09752,3.7574 -4.03114,8.11227 -7.55396,6.29666z" fill="#ab9efa" stroke="#000000" stroke-width="2.5"/><path d="M282.19929,251.17754c-0.04656,-1.75383 3.3246,-4.71529 3.3246,-4.71529l1.0757,1.70454c0,0 -1.12423,3.03165 -2.38558,4.0245c-1.04954,0.82613 -1.9868,0.03771 -2.01472,-1.01377z" fill="#9362ec" stroke="none" stroke-width="0"/></g></g><g><path d="M285.38281,271.81594c-6.35204,0.05452 -14.98236,-6.21824 -22.61183,-6.92843c-11.23343,-1.04568 -30.32836,-1.34278 -33.84208,-4.637c-3.21435,-3.01355 -4.70675,-12.12299 -0.08792,-12.80357c1.17769,6.06831 6.87074,6.53138 11.32459,6.59791c5.39046,0.08053 12.80723,-0.1057 18.72682,0.95528c10.48334,1.87895 16.25907,7.327 24.21813,7.25867c13.68191,-0.11746 22.90898,-1.75558 28.04997,-3.50414c2.79162,-0.94948 3.65475,-2.38313 5.02966,-2.58914c1.79973,-0.26968 3.86946,3.90943 3.86946,3.90943c0,0 0.13103,4.19153 -4.40344,7.02458c-4.74615,2.96529 -14.50346,4.58103 -30.27335,4.71642z" fill="#ab9efa" stroke="#000000" stroke-width="3"/><path d="M228.54863,247.30721c0,0 -0.35405,1.65265 1.50344,3.80655c1.21002,1.40312 3.09439,3.09106 7.82141,4.1383c4.15028,0.91945 18.3623,-0.01397 21.77499,0.85299c4.72147,1.19945 7.92085,3.00277 11.75508,4.58089c1.49904,0.61701 3.10305,1.4969 4.92111,1.84628c7.39911,1.42188 10.22439,1.0221 13.30014,0.85477c4.58166,-0.24927 7.33169,-0.81817 7.33169,-0.81817c0,0 1.05651,1.7837 0.56048,3.76765c-0.49601,1.98395 -1.99285,3.31206 -1.99285,3.31206c0,0 -4.57822,2.58665 -13.23126,0.28731c-4.90762,-1.30408 -6.0225,-1.62317 -15.40511,-5.5371c-4.85545,-2.02543 -28.46967,-2.08663 -32.84598,-3.76912c-1.29157,-0.49654 -3.36451,-0.56279 -4.13517,-0.95574c-2.60851,-1.33002 -1.60968,-2.63485 -2.27195,-4.60169c-1.23775,-3.67593 0.91398,-7.76494 0.91398,-7.76494z" fill="#9362ec" stroke="none" stroke-width="0"/></g></g><g data-paper-data="{&quot;index&quot;:null}"><path d="M161.97268,247.08644c2.67741,-3.0464 10.76742,-7.81545 17.2979,-9.46043c-4.63551,-2.52485 -11.13782,-4.29331 -11.34534,-6.17439c-0.651,-5.90097 1.01895,-6.31204 3.11903,-7.83167c1.74969,-1.26612 16.55426,6.49035 16.55426,6.49035c0,0 0.9014,-5.01542 5.51222,-6.15184c3.95563,-0.97495 12.57047,1.74804 18.07144,3.24365c3.63445,0.98813 7.52608,2.60557 9.00798,5.45597c0.9258,1.78074 -0.70388,6.06238 0.88132,4.83184c4.02214,-3.12225 13.98458,-3.2264 16.79538,-1.10108c2.46043,1.86038 3.81627,6.99014 2.93123,9.33084c-0.37393,0.98897 -12.52672,0.28792 -12.27574,1.31582c0.49762,2.03798 -3.04493,4.70483 -2.68171,6.37526c0.96021,4.41592 2.58545,6.86855 2.58545,6.86855c0,0 1.83714,6.45385 -1.70134,9.43305c-4.54711,3.82841 -15.90719,4.40754 -29.5993,4.52511c-24.34707,0.20903 -45.4524,-15.4321 -35.15278,-27.1511z" fill="#ae1c51" stroke="#000000" stroke-width="2.5"/><path d="M223.56352,244.11161c0,0 1.51371,-2.42536 6.75249,-3.45443c4.68765,-0.92082 8.77765,-0.83013 8.77765,-0.83013c0,0 0.44574,1.89411 0.76567,2.81548c0.35803,1.03118 -0.26271,2.69792 -0.26271,2.69792c0,0 -3.85186,0.50427 -9.08542,0.21567c-1.81008,-0.09981 -2.6145,0.43091 -3.49729,0.43728c-1.19036,0.0086 -2.41348,-0.49171 -3.01735,-1.02453c-0.44228,-0.39023 -0.43306,-0.85725 -0.43306,-0.85725z" fill="#710c65" stroke="none" stroke-width="0"/><path d="M183.79619,234.07496c0,0 3.2151,-0.12024 4.57913,-1.82269c-0.32101,-3.20219 2.50483,-6.46491 4.75838,-7.09692c3.80372,-1.06676 14.0471,2.17752 14.0471,2.17752c0,0 0.57701,4.21657 0.86888,6.17243c0.33618,2.25268 0.55367,6.89802 0.55367,6.89802c0,0 -15.98732,0.52573 -19.61166,0.49176c-1.17709,-0.01102 -4.03785,0.85998 -4.03785,0.85998c0,0 -2.19417,-2.82343 -4.42114,-4.47027c-1.82337,-1.34837 -5.41717,-2.20031 -5.44082,-2.69365c-0.01005,-0.20966 -4.31013,-1.30694 -5.9452,-2.99637c-1.58381,-1.63648 -0.2388,-4.86045 0.65325,-4.77611c2.12593,0.201 13.99626,7.25629 13.99626,7.25629z" fill="#710c65" stroke="none" stroke-width="0"/><path d="M173.32433,234.22437c0,0 -2.08135,-1.29949 -3.06991,-2.43325c-0.95812,-1.09885 -0.83298,-2.03162 -0.31015,-2.12028c2.97011,-0.50368 4.92984,2.23847 5.71429,3.91405c0.28195,0.60222 0.44432,1.82864 0.44432,1.82864c0,0 -1.34807,-1.20145 -2.77857,-1.18917z" fill="#000000" stroke="none" stroke-width="0"/><path d="M231.34273,243.20582c0.06986,-0.87579 0.84241,-0.771 3.28468,-0.79196c3.09395,-0.02656 3.87011,0.21474 3.92912,2.43723c0.04343,1.63518 -2.38021,0.54744 -4.36304,-0.03819c-1.66845,-0.49277 -2.96004,-0.2371 -2.85075,-1.60709z" fill="#000000" stroke="none" stroke-width="0"/><path d="M163.69067,247.70762c0,0 0.30219,4.77165 0.79802,6.26273c0.4651,1.39867 2.13407,4.05923 2.13407,4.05923c0,0 0.87242,-1.47675 1.77387,-2.64332c0.41435,-0.53621 0.31559,-1.2009 1.06637,-1.28081c5.00324,-0.5326 15.83523,2.13037 24.59075,2.96481c26.6385,2.53879 30.97459,12.75384 30.97459,12.75384c0,0 -6.54879,4.64774 -31.32251,3.60248c-7.66906,-0.32358 -16.4045,-1.48358 -22.84057,-4.51295c-6.18889,-2.91303 -8.70801,-5.23923 -11.04861,-11.47783c-1.29552,-3.45302 0.8592,-7.22117 2.42477,-8.941c0.6674,-0.73317 1.44924,-0.78719 1.44924,-0.78719z" fill="#710c65" stroke="none" stroke-width="0"/><g><path d="M152.11297,252.77423c-0.08377,-0.54364 7.55813,-4.51335 7.55813,-4.51335c0,0 -1.98195,5.07062 0.51873,10.53097c2.87453,6.27674 11.36592,13.15622 30.49056,14.90398c10.61904,0.97046 30.42374,0.28303 36.78923,-5.23901c1.94954,-1.69122 3.11633,-4.93927 2.22987,-7.48447c-1.11476,-3.20065 -2.59269,-5.09287 -1.07338,-5.45878c2.36685,-0.57001 5.22039,5.56879 5.31163,9.00524c0.1079,4.06424 -0.93029,7.31763 -3.88767,10.25093c-6.59247,6.53882 -19.94861,8.02848 -36.79132,8.17308c-15.01207,0.12887 -40.03363,-13.92323 -40.65113,-15.46321c-0.19949,-0.49752 0.27679,-9.69961 -0.49464,-14.70536z" fill="#ab9efa" stroke="#000000" stroke-width="2.5"/><path d="M153.83138,255.47399c0,0 7.25599,20.70328 33.97129,23.54318c41.49231,4.41073 44.48334,-9.5186 44.48334,-9.5186c0,0 -0.92953,3.45622 -6.53082,7.00982c-5.25287,3.33256 -14.52997,7.36496 -36.782,4.98815c-10.82837,-1.1566 -20.0357,-5.46776 -26.0244,-8.91481c-5.71605,-3.29014 -9.29235,-5.77457 -9.29235,-5.77457l0.17495,-11.33316z" fill="#9362ec" stroke="none" stroke-width="0"/></g><g><g><path d="M197.71941,238.958c17.97707,0.43763 23.32531,10.90649 22.80052,12.18796c-1.05624,2.57916 -9.36331,-5.59117 -23.5738,-6.65313c-11.09549,-0.82916 -16.14198,0.80151 -16.2584,-0.70059c-0.04147,-0.53484 5.91611,-5.10484 17.03168,-4.83424z" fill="#ab9efa" stroke="#000000" stroke-width="2"/><path d="M186.25266,243.17148l-1.35173,-1.36968c0,0 5.0347,-2.37539 7.88061,-2.36659c9.13579,0.02826 13.45997,1.78874 13.45997,1.78874l-2.46395,3.47436z" fill="#9362ec" stroke="none" stroke-width="0"/></g><g><path d="M175.25372,249.19488c-0.22136,-0.28304 -0.65465,-1.81321 2.99563,-2.91814c3.08132,-0.9327 9.75047,-1.4831 15.03528,-1.52848c11.54544,-0.09912 25.37357,6.93043 24.5703,10.78995c-0.4534,2.17849 -11.10108,-3.90053 -22.64654,-3.80141c-11.54547,0.09912 -19.29886,-1.70333 -19.95468,-2.54191z" fill="#ab9efa" stroke="#000000" stroke-width="2"/><path d="M193.74879,250.629c-1.24486,-0.02862 -2.90525,0.24896 -2.90525,0.24896l-2.76906,-5.07994c0,0 5.33946,-0.38015 7.72071,-0.05392c4.65115,0.6372 5.92393,1.05718 5.92393,1.05718l-2.91764,4.07523c0,0 -3.79091,-0.2185 -5.05269,-0.24751z" fill="#9362ec" stroke="none" stroke-width="0"/></g><path d="M171.38613,253.71723c-0.01816,-0.68389 0.22987,-2.90899 3.42153,-3.11257c3.9345,-0.25096 11.29949,1.01295 18.45324,0.95153c7.03589,-0.06041 14.31302,1.80606 18.47542,3.85027c3.50283,1.72029 4.47017,3.5117 4.50784,4.93072c0.08243,3.10522 -12.46939,-4.62875 -25.42626,-4.51751c-12.95688,0.11126 -19.37289,0.11506 -19.43176,-2.10241z" fill="#ab9efa" stroke="#000000" stroke-width="2"/></g></g><g data-paper-data="{&quot;index&quot;:null}" stroke="none" stroke-width="0"><path d="M168.61482,223.04365c-0.13209,-4.97498 2.42118,-7.88059 5.61013,-7.89527c1.784,-0.00821 2.89976,2.74489 5.95485,2.05238c3.71851,-0.84292 6.55852,-5.97916 9.82223,-6.21811c3.6211,-0.26513 9.04174,7.119 9.04174,7.119c0,0 -1.1159,7.29933 -3.08832,13.29295c-2.07448,6.30364 -5.20391,11.19594 -8.15206,10.96788c-3.15802,-0.2443 -18.89266,-8.17315 -19.18858,-19.31885z" fill="#0045d8"/><path d="M197.16517,226.17833c0,0 -1.31727,3.68299 -1.85061,5.67547c-1.17365,4.3845 -4.10249,10.40628 -7.8811,10.27781c-2.18648,-0.07434 -6.2951,-2.70605 -10.9122,-7.06555c-3.10768,-2.93429 -7.24687,-6.66731 -8.16381,-10.86982c-0.23496,-1.07688 1.67549,-2.55123 1.64551,-3.68041c8.94296,7.96505 13.61158,14.80909 15.05867,14.49802z" fill="#080f95"/><path d="M200.29193,219.43667c0,0 -7.31347,-7.50457 -9.55003,-7.99229c-0.46455,-0.1013 -7.13258,5.22024 -10.21066,6.49669c-0.54052,0.22416 -2.09941,0.30803 -3.38603,-0.23666c-1.10257,-0.46677 -1.87884,-1.48949 -3.06654,-2.21812c-0.81572,0.34604 -5.3673,7.89279 -5.3673,7.89279c0,0 11.06248,17.81158 18.23818,18.21413c1.84643,0.10357 4.60333,-2.06874 6.20024,-5.39612c1.21626,-2.53428 2.23268,-5.96661 3.18106,-8.31223c0.86608,-2.14201 1.71984,-3.31624 1.71984,-3.31624c0,0 -0.63322,4.30622 -1.79372,8.84916c-1.28161,5.01709 -5.1479,10.91728 -9.71281,10.03282c-1.06555,-0.20647 -5.04904,-1.81617 -7.84945,-4.35222c-5.98688,-5.42169 -12.17203,-14.1934 -12.30417,-16.32306c-0.06811,-1.09791 1.91665,-3.47208 2.77969,-4.72682c1.16212,-1.68956 2.46692,-3.90655 5.281,-4.5366c1.49354,-0.3344 3.57718,2.46507 5.06606,2.04866c4.70026,-1.31461 9.15659,-7.25793 11.87752,-6.93024c2.72093,0.32768 8.89712,10.80633 8.89712,10.80633z" fill="#000000"/></g></g><g data-paper-data="{&quot;index&quot;:null}" stroke-linecap="butt"><g data-paper-data="{&quot;index&quot;:null}"><path d="M248.62806,162.92841c0,0 14.49043,3.88663 13.70923,12.30578c-0.65213,7.02811 -15.54321,10.90952 -45.27074,9.76904c-14.52753,-0.55736 -32.17756,-12.26485 -40.98934,-17.65371c-5.78107,-3.53541 3.88798,-37.39981 9.81633,-40.68226c15.57,-8.62096 47.03608,-13.0925 61.44052,-3.03155c8.8261,6.1647 5.28088,27.82479 5.28088,27.82479c0,0 -2.4496,3.57916 -3.98687,11.46791z" fill="#aa96c7" stroke="#000000" stroke-width="3"/><path d="M247.42517,158.87043c0,0 -21.93052,-11.09291 -25.64388,-10.7753c-0.64423,1.18401 -2.24401,15.26221 -2.72715,15.0251c-12.0691,-5.92313 -15.71956,-8.82044 -15.71956,-8.82044l-12.99252,15.10038c0,0 -4.78517,-3.32439 -7.35163,-6.68937c0.04685,-2.23388 -2.26961,5.83615 -2.26961,5.83615l-4.17467,-2.39577c0,0 -0.64776,-1.45458 -0.56644,-2.72423c0.3856,-6.01996 2.99576,-23.17855 12.68441,-29.94242c11.28999,-7.88179 64.99541,-0.90434 64.99541,-0.90434c0,0 -1.37281,13.18556 -2.52008,18.02355c-1.52822,3.27002 -3.19524,8.688 -3.19524,8.688z" fill="#c172b1" stroke="none" stroke-width="0"/></g><g><g><path d="M152.66107,154.29069c0,0 -8.99406,8.57886 -14.00692,10.32848c-5.01285,1.74962 -7.82117,6.60409 -9.88981,6.30832c-5.05316,-0.72252 -5.84617,-15.23133 -2.62329,-16.88144c1.80274,-0.923 9.47361,-6.51544 13.06868,-6.69548c8.06378,-0.40383 13.98098,2.12928 13.98098,2.12928l-0.52964,4.81081z" fill="#0045d8" stroke="#000000" stroke-width="3"/><path d="M135.83404,160.25699c6.7227,-0.83438 14.16021,-9.38462 14.16021,-9.38462l0.55704,2.93234c0,0 -4.40862,4.56635 -7.40004,6.84133c-3.93298,2.99104 -14.15585,9.55197 -14.15585,9.55197c0,0 -1.93634,-0.22478 -2.73244,-1.83646c-1.45733,-2.95031 -2.22839,-8.19712 -2.46529,-8.60054c0,0 4.48663,1.43301 12.03637,0.49598z" fill="#080f95" stroke="none" stroke-width="0"/></g><g stroke="#000000"><path d="M258.13143,134.61766c0,0 -55.93284,7.66708 -65.43641,10.76549c-12.40031,4.0428 -24.13183,7.49429 -24.13183,7.49429c0,0 -12.39232,-4.31248 -16.31383,-16.68334c-1.20054,-3.78724 7.76132,-23.97509 9.06428,-26.3319c3.9433,-7.13267 5.9494,-17.10951 17.21934,-21.5559c20.17481,-7.95972 46.31643,-6.43337 63.75672,-2.3738c8.65634,2.01493 15.67918,5.01693 18.24465,7.06133c6.7991,5.41812 -3.20557,20.85081 -3.20557,20.85081z" fill="#ae1c51" stroke-width="3"/><path d="M166.19502,152.29451c0,0 -15.98757,-10.73391 -16.44137,-18.27012c-0.2353,-3.90759 5.11301,-15.51903 11.41566,-25.46445c6.04989,-9.54658 13.01947,-17.51989 14.87909,-17.46494c12.88514,0.3807 17.62866,53.77986 17.62866,53.77986l-27.48206,7.41965z" fill="#710c65" stroke-width="1.5"/></g></g><g><path d="M150.15295,140.29112c0.60125,-0.88951 10.05902,5.729 14.97106,12.33992c2.82265,3.79888 1.79844,8.68611 1.6391,11.72667c-0.1221,2.32983 -6.52051,8.15586 -9.54385,8.60748c-4.85744,0.72559 -9.12433,-29.62931 -7.06631,-32.67408z" fill="#aa96c7" stroke="#000000" stroke-width="3"/><path d="M153.45826,164.62228c0,0 1.09072,0.35772 2.97268,-0.33936c2.38036,-0.88171 8.56039,-6.03911 8.56039,-6.03911c0,0 0.34061,5.40157 0.29765,6.52143c-0.05866,1.52873 -3.50703,4.6738 -6.27493,6.12806c-1.50845,0.79255 -2.56404,0.30793 -2.74118,0.35489c-0.48439,0.12843 -2.81458,-6.62592 -2.81458,-6.62592z" fill="#c172b1" stroke="none" stroke-width="0"/><path d="M156.73273,150.68783c0.03433,-0.59404 8.26234,3.48465 7.82438,4.75981c-0.56527,1.64581 -4.84339,9.53465 -6.96879,7.45511c-0.86803,-0.8493 -1.01802,-9.40311 -0.85558,-12.21491z" fill="#c172b1" stroke="#000000" stroke-width="1.5"/></g><g><g data-paper-data="{&quot;index&quot;:null}"><path d="M193.17189,162.01647c-1.64447,2.0082 -7.1545,-7.19977 -7.78373,-6.746c-0.41356,0.29824 -5.04115,3.17383 -8.77752,6.51233c-3.7978,3.39338 -7.85453,7.04595 -8.00389,6.7484c-0.08125,-0.16188 -2.09142,-13.8537 -0.8487,-15.01707c6.86144,-6.42332 34.16892,-10.11835 34.16892,-10.11835z" fill="#346def" stroke="#000000" stroke-width="3"/><path d="M191.53371,149.95885l7.70477,-4.86127l-7.69963,15.8499z" fill="#45afff" stroke="none" stroke-width="0"/></g><g data-paper-data="{&quot;index&quot;:null}"><path d="M265.89471,143.86626c0,0 6.9855,5.75738 8.9717,9.70435c1.76073,3.49891 2.35078,12.79567 2.35078,12.79567c0,0 -16.50837,-9.71175 -24.69591,-12.35968c-0.8637,-0.27933 2.2559,-2.72338 0.88866,-3.29173c-7.5491,-3.13814 -24.23171,-7.34356 -32.22586,-9.41168c-0.62857,-0.16261 -2.1704,-0.54397 -2.5632,-0.10242c-2.04969,2.30412 -0.31464,10.8269 -2.3655,10.77138c-2.21805,-0.06005 -4.4034,-1.49114 -6.44514,-3.65847c-3.19339,-3.38978 -5.83835,-6.9838 -5.83835,-6.9838c0,0 7.47732,-9.98839 16.16613,-45.5336c1.98354,1.13196 6.32569,10.31921 6.32569,10.31921c0,0 2.27815,-4.90277 3.67415,-3.53253c0.49005,0.48101 0.8714,7.04181 1.00732,7.53693c1.32897,4.841 0.14804,8.7628 0.83464,8.11933c6.81873,-6.3905 19.46912,-11.44318 24.25297,-11.95086c8.31809,-0.88274 29.09842,35.68085 29.09842,35.68085c0,0 -10.9393,0.87014 -19.43649,1.89706z" fill="#45afff" stroke="#000000" stroke-width="3"/><path d="M245.06706,132.18426c0,0 7.96752,7.95633 11.96337,12.32541c4.71068,5.15067 15.31869,16.31133 15.31869,16.31133l-18.07913,-7.68968c0,0 2.26273,-1.56849 -0.05623,-3.55939c-1.52448,-1.30881 -4.90464,-1.95299 -9.90643,-3.43136c-3.79514,-1.12173 -20.45419,-5.55481 -25.26766,-6.63111c-0.80224,-0.17938 -1.5171,1.02666 -1.5171,1.02666c0,0 -1.24725,2.11298 -1.46661,3.4635c-0.31937,1.96614 -0.23754,6.48272 -0.23754,6.48272c0,0 -2.8477,-0.96768 -4.20604,-2.12975c-1.9192,-1.64189 -6.21977,-6.78959 -6.21977,-6.78959c0,0 1.61711,-3.0502 3.84817,-7.36178c4.12915,-7.9797 9.25436,-24.03223 11.49754,-36.28244c0.72782,1.57041 5.57152,29.43567 5.57152,29.43567c0,0 8.98412,-3.53983 16.94983,-6.26387c5.18146,-1.7719 10.45069,-3.28183 10.76173,-2.96318c7.35922,3.47894 12.16391,15.58576 12.16391,15.58576c0,0 -10.35848,-0.01378 -15.37618,-0.92362c-2.35593,-0.4272 -5.74211,-0.6053 -5.74211,-0.6053z" fill="#346def" stroke="none" stroke-width="0"/></g></g></g><g data-paper-data="{&quot;index&quot;:null}" fill="#000000" stroke="none" stroke-width="0.5" stroke-linecap="butt"><path d="M189.06143,74.65883c0.98919,0.14666 0.84253,1.13585 0.84253,1.13585l-0.17095,1.08217c-1.31884,4.38762 -1.2468,8.51092 -1.2468,13.05688c0,4.63321 0.376,9.05239 0.71162,13.64134c0.31611,4.32223 -0.47352,8.48249 -0.47352,12.78723c0,0 0,1 -1,1c-1,0 -1,-1 -1,-1c0,-4.25813 0.79111,-8.37195 0.47886,-12.64135c-0.33911,-4.63673 -0.71695,-9.106 -0.71695,-13.78722c0,-4.74077 -0.04022,-9.05181 1.33116,-13.63157l0.10823,-0.80081c0,0 0.14666,-0.98918 1.13585,-0.84252z"/><path d="M183.85685,126.33335c-0.44722,0.89442 -1.34164,0.44721 -1.34164,0.44721l-1.00955,-0.9364c-1.28468,-6.54962 -0.15985,-14.15742 0.94588,-20.5944c0.54425,-3.16838 -0.01515,-6.90834 0.05566,-10.13172c0.87524,-9.31268 2.22792,-19.05266 0.89385,-28.3762c0,0 -0.14142,-0.98995 0.84853,-1.13137c0.98995,-0.14142 1.13137,0.84853 1.13137,0.84853c1.34951,9.46231 0.01516,19.32378 -0.87709,28.77453c-0.07066,3.3157 0.45162,7.06837 -0.07815,10.33659c-1.0048,6.19872 -2.24833,13.57774 -0.95889,19.8818l-0.05718,-0.46022c0,0 0.89443,0.44721 0.44721,1.34164z"/><path d="M176.62876,67.8188c0.92446,-0.38125 1.30572,0.54322 1.30572,0.54322l0.43364,1.0559c1.80727,3.36164 0.73389,8.06086 0.35131,11.80484c-0.61505,6.01898 0.40418,12.44291 1.1932,18.31229c0.00994,9.68487 -1.19664,19.32698 -1.18833,28.97013c0,0 0,1 -1,1c-1,0 -1,-1 -1,-1c0.00782,-9.6019 1.182,-19.19773 1.19262,-28.8394c-0.76821,-5.99842 -1.79024,-12.49153 -1.18775,-18.6401c0.32013,-3.26698 1.50225,-7.85737 -0.16269,-10.7394l-0.48093,-1.16175c0,0 -0.38125,-0.92448 0.54322,-1.30573z"/><path d="M172.48625,130.69563c-1,0 -1,-1 -1,-1v-0.7619c0,-0.66666 0,-1.33334 0,-2c0,-7.99992 -0.39361,-16.1213 0.05857,-24.11143c0.17138,-3.02841 1.10272,-5.92602 1.37577,-8.94826c1.07244,-8.58328 -0.00578,-17.01213 -0.00578,-25.60698c0,0 0,-1 1,-1c1,0 1,1 1,1c0,8.66436 1.07677,17.16505 -0.00577,25.82158c-0.27301,2.98524 -1.20383,5.85605 -1.36732,8.84484c-0.43522,7.95629 -0.05548,16.03486 -0.05548,24.00025c0,0.66666 0,2.09524 0,2.7619c0,0 0,1 -1,1z"/><path d="M168.13716,83.93577c0.99799,-0.06337 1.06135,0.93462 1.06135,0.93462l0.02053,0.51311c0.55483,2.50313 0.69577,4.76325 0.69577,7.31216c0,4.89897 -0.39546,9.68481 -0.71431,14.5516c-0.37675,5.75069 0.711,11.47831 0.71431,17.2103c0,0 0,1 -1,1c-1,0 -1,-1 -1,-1c0.0035,-5.77723 -1.08989,-11.54305 -0.71003,-17.34105c0.31601,-4.82353 0.71003,-9.56513 0.71003,-14.42086c0,-2.41095 -0.12079,-4.51162 -0.64814,-6.8783l-0.06414,-0.82023c0,0 -0.06337,-0.99799 0.93462,-1.06136z"/><path d="M164.87433,122.30752l-0.53099,-0.9452c0.08718,-3.11966 -1.65198,-6.46854 -1.90224,-9.69102c-0.45147,-5.81334 0.47367,-11.64695 0.47367,-17.45185c0,0 0,-1 1,-1c1,0 1,1 1,1c0,5.75799 -0.91745,11.54426 -0.4787,17.31007c0.24291,3.19219 1.70949,6.28629 1.89075,9.40639c0.13734,0.16286 0.56611,0.76723 -0.03827,1.37161c-0.70711,0.70711 -1.41422,0 -1.41422,0z"/><path d="M161.98614,106.25752l-0.46568,1.16304c-1.58495,4.71391 -0.41838,10.25153 -0.41518,15.13224c0,0 0,1 -1,1c-1,0 -1,-1 -1,-1c0.00357,-5.17665 -1.12024,-10.81078 0.5372,-15.82015l0.4867,-1.21791c0,0 0.3714,-0.92848 1.29987,-0.55709c0.92848,0.37139 0.55709,1.29987 0.55709,1.29987z"/></g><g data-paper-data="{&quot;index&quot;:null}"><path d="M301.58075,209.30602c0.56153,-4.65077 1.50261,-9.91194 6.34921,-9.32676c3.22881,0.38985 7.46865,2.51243 9.71179,5.77097c1.12393,1.63269 1.67752,4.12251 1.49008,5.67493c-0.27551,2.28179 -1.8555,4.0045 -4.1605,5.07489c-2.39311,1.1113 -5.55285,1.52124 -8.02159,1.22316c-4.8466,-0.58518 -5.93055,-3.7664 -5.36902,-8.41719z" fill="#2f429d" stroke="#000000" stroke-width="3" stroke-linecap="butt"/><path d="M274.41541,212.10678c8.47057,1.02275 14.32529,3.81653 13.62083,9.65104c-0.28943,2.39714 -1.30361,9.81221 -5.3414,9.57715c-6.8278,-0.3975 -5.92932,-6.18292 -7.38252,-6.33541c-4.12423,-0.43277 -12.38873,0.48111 -13.40318,-5.00331c-1.13553,-6.13899 4.0357,-8.91221 12.50627,-7.88947z" fill="#c172b1" stroke="#000000" stroke-width="3" stroke-linecap="butt"/><path d="M281.26329,175.67377c4.74264,0.41474 5.50182,7.75698 7.31251,7.9756c4.63223,0.55929 8.32589,-0.18714 11.30162,3.28224c1.44569,1.68552 1.33775,3.19038 2.82654,4.54498c3.02538,2.75272 5.46463,0.59503 7.56276,3.5438c0.49553,1.03104 4.88585,13.88579 2.60392,19.38505c-2.74484,6.61489 -7.98743,8.88155 -11.2904,9.42582c-5.35528,0.88246 -8.40859,-3.81361 -8.40859,-3.81361c0,0 -4.33001,1.22191 -6.54863,0.49909c-2.15866,-0.70328 -3.23397,-3.27144 -6.20342,-4.63094c-0.73553,-0.33675 -1.47759,2.98377 -5.99119,2.02838c-9.86357,-2.08782 -11.07878,-9.87938 -10.4569,-15.02999c1.41704,-11.73618 5.2221,-28.26586 17.29178,-27.21042z" fill="#aa96c7" stroke="#000000" stroke-width="3" stroke-linecap="butt"/><path d="M285.24463,204.0416c0,0 0.48696,0.47037 0.93075,2.31389c0.36501,1.51622 0.50175,4.34464 2.03024,5.29964c0.76665,0.479 4.82297,1.16811 6.27236,0.73879c1.12476,-0.33317 1.86382,-1.19514 2.20193,-1.19611c1.67444,-0.00481 3.2066,-7.19827 3.2066,-7.19827l2.14764,-2.25158c0,0 0.57106,6.50199 0.15437,11.6615c2.15052,2.70018 3.51529,4.6101 3.51529,4.6101l4.78802,-1.48651c0,0 -1.27304,1.88893 -3.0275,3.25615c-0.7642,0.59553 -2.17119,0.83115 -2.68191,1.2049c-3.30539,2.41891 -7.46547,2.15264 -10.07116,-1.00758c-0.31732,-0.38485 -1.15781,-1.73137 -2.22544,-1.30997c-3.75041,1.48032 -4.60555,0.71447 -6.18781,-0.15302c-2.01241,-1.10333 -4.53401,-2.90069 -4.53401,-2.90069c0,0 -0.14165,-1.10685 -0.92658,-1.03152c-1.01057,0.097 -2.24759,1.46764 -3.69757,1.96027c-0.59861,0.20338 -1.56651,-0.28048 -2.04345,-0.21569c-1.05442,0.14323 -2.91174,-0.44132 -3.97564,-1.067c-1.00323,-0.58999 -1.23546,-1.20867 -1.53111,-1.54266c-1.14778,-1.29661 -2.38016,-6.34495 -0.90559,-7.73976c1.78971,-1.6929 6.49666,0.37777 6.49666,0.37777c0,0 3.39178,4.43698 6.39919,4.58496c2.26148,0.11128 3.66469,-6.90761 3.66469,-6.90761z" fill="#c172b1" stroke="none" stroke-width="0" stroke-linecap="butt"/><path d="M283.32095,205.14875c0.00488,-2.75057 0.21459,-5.89309 1.14457,-7.79994c0.82006,-1.68146 2.99174,-3.21663 3.94061,-3.03915c0.43576,0.08151 0.4196,1.40384 0.4196,1.40384c0,0 -1.41774,0.95451 -1.89048,2.0709c-0.52417,1.23782 -1.03599,3.45976 -1.03929,5.31966c-0.0059,3.32832 0.20351,6.45151 -0.69171,8.75201c-0.79656,2.04701 -3.11769,5.07011 -3.11769,5.07011l-2.39542,-0.59585c0,0 2.03284,-3.94044 2.68306,-5.07935c0.90579,-1.58656 0.94358,-4.30103 0.94677,-6.10222z" fill="#000000" stroke="none" stroke-width="0" stroke-linecap="butt"/><path d="M297.10245,210.78149c0.32971,-2.73074 0.30365,-5.68786 1.45234,-7.47152c1.01292,-1.57284 3.21454,-3.06448 4.1358,-2.77616c0.4231,0.1324 0.11959,1.98339 0.11959,1.98339c0,0 -1.2531,0.46425 -1.85439,1.51699c-0.66668,1.16724 -0.69819,3.01648 -0.92114,4.86297c-0.39897,3.30432 -1.29911,6.72709 -2.45976,8.90577c-1.03277,1.93861 -2.36059,2.82321 -2.36059,2.82321l-3.08469,-1.21578c0,0 1.92631,-1.48841 2.70649,-2.54255c1.08684,-1.46847 2.05044,-4.29813 2.26634,-6.08633z" fill="#000000" stroke="none" stroke-width="0" stroke-linecap="butt"/><g fill="#2f429d" stroke-linecap="butt"><path d="M267.52388,184.05003c5.56365,0.67176 9.24914,8.04705 8.23177,16.47317c-1.01737,8.42612 -6.35237,14.71227 -11.91602,14.04052c-5.56365,-0.67176 -9.24913,-8.04705 -8.23176,-16.47317c1.01737,-8.42613 6.35236,-14.71227 11.91601,-14.04052z" stroke="#000000" stroke-width="3"/><path d="M269.10477,192.09164l-2.23745,-7.23212c0,0 3.37875,1.78268 4.40542,3.01114c2.11394,2.6069 2.46941,5.8601 2.46941,5.8601z" stroke="none" stroke-width="0"/><path d="M269.8667,198.99746l-0.21381,-3.13647c0,0 1.97822,0.02263 2.65925,0.14978c0.79742,0.14889 2.15627,0.84237 2.15627,0.84237l-0.34516,3.69516z" stroke="none" stroke-width="0"/></g><g><path d="M247.26611,215.6302c-11.62401,-1.40349 -19.83747,-12.56004 -18.43398,-24.18406c1.4035,-11.62401 10.62918,-18.86188 22.2532,-17.45839c11.62401,1.4035 18.23179,14.17925 16.8283,25.80327c-1.40348,11.62401 -9.0235,17.24267 -20.64752,15.83918z" fill="#2f429d" stroke="#000000" stroke-width="3" stroke-linecap="butt"/><path d="M230.93136,187.70022c0,0 6.54878,-14.56194 16.7189,-13.33399c5.76717,0.69633 11.40561,4.22578 15.3578,8.25752c2.81574,2.8724 4.57497,6.95771 4.07887,11.06652c-1.01974,8.44563 -5.14334,10.99501 -15.31346,9.76706c-5.07889,-0.61323 -10.95777,-4.33998 -14.69195,-8.46206c-3.74326,-4.13211 -6.15017,-7.29506 -6.15017,-7.29506z" fill="#2f429d" stroke="none" stroke-width="0" stroke-linecap="butt"/><path d="M251.13442,174.65146c0,0 7.28249,6.70079 6.13837,20.20365c-1.1535,13.61351 -8.98856,18.92285 -8.98856,18.92285" fill="none" stroke="#000000" stroke-width="1.6" stroke-linecap="round"/><path d="M260.07694,178.19078c0,0 3.50169,8.41913 3.75882,17.0935c0.37055,12.50093 -4.22228,16.81637 -4.22228,16.81637" fill="none" stroke="#000000" stroke-width="1.6" stroke-linecap="round"/><path d="M241.90704,175.41132c0,0 6.04378,6.92244 5.65986,20.50302c-0.36926,13.06208 -4.85562,16.488 -4.85562,16.488" fill="none" stroke="#000000" stroke-width="1.6" stroke-linecap="round"/><path d="M240.07006,211.96633c0,0 -3.58044,-8.53839 -4.50848,-15.264c-1.22236,-8.85863 -0.05775,-17.73056 -0.05775,-17.73056" fill="none" stroke="#000000" stroke-width="1.6" stroke-linecap="round"/><path d="M265.8537,204.06984c0,0 -7.02,3.92091 -19.32862,2.93681c-11.48602,-0.91834 -15.88079,-7.18802 -15.88079,-7.18802" fill="none" stroke="#000000" stroke-width="1.6" stroke-linecap="round"/><path d="M230.58284,195.47764c0,0 5.75886,1.08595 12.1576,1.28945c5.62713,0.17895 11.7482,-0.53701 14.89502,-0.33656c3.73758,0.23809 9.90839,1.40159 9.90839,1.40159" fill="none" stroke="#000000" stroke-width="1.6" stroke-linecap="round"/><path d="M230.18502,190.04194c0,0 9.73672,-4.93157 17.7423,-4.19288c12.5651,1.1594 20.0268,6.64491 20.0268,6.64491" fill="none" stroke="#000000" stroke-width="1.6" stroke-linecap="round"/><path d="M231.91697,183.45788c0,0 6.93943,-3.92404 14.99709,-4.27961c11.60336,-0.51205 17.34844,3.14871 17.34844,3.14871" fill="none" stroke="#000000" stroke-width="1.6" stroke-linecap="round"/><path d="M248.24629,177.23084c-0.10007,0.82883 -0.95647,1.40712 -1.91281,1.29165c-0.95634,-0.11546 -1.65048,-0.88097 -1.55041,-1.7098c0.10006,-0.82883 0.95646,-1.40712 1.9128,-1.29165c0.95634,0.11546 1.65048,0.88097 1.55041,1.7098z" fill="#2f429d" stroke="none" stroke-width="0" stroke-linecap="butt"/><path d="M240.60914,178.88543c-0.47816,-0.05774 -0.819,-0.49218 -0.76126,-0.97034c0.05774,-0.47816 0.49218,-0.819 0.97034,-0.76126c0.47816,0.05774 0.819,0.49218 0.76126,0.97034c-0.05774,0.47816 -0.49218,0.819 -0.97034,0.76126z" fill="#2f429d" stroke="none" stroke-width="0" stroke-linecap="butt"/></g></g><g data-paper-data="{&quot;index&quot;:null}" stroke-linecap="butt"><path d="M210.04976,168.48825c5.08637,0.62351 7.2954,2.03861 10.48899,3.69114c4.57215,2.36587 9.04746,5.1612 8.90404,6.33116c-0.17244,1.40673 -3.95944,1.15595 -9.99589,-0.31617c-3.1913,-0.77826 -7.98184,-2.71149 -10.51622,-3.30552c-4.02097,-0.94246 -5.82839,-0.21094 -10.91174,-1.36001c-6.43788,-1.45525 -6.9979,-3.4779 -6.82351,-4.90049c0.15234,-1.24272 6.48599,-1.65628 18.85433,-0.14011z" fill="#ac447e" stroke="#000000" stroke-width="3.5"/><path d="M198.95105,158.73986c0.47459,-3.87153 1.24267,-3.47523 4.96221,-5.21809c5.32583,-2.49553 8.22848,2.40161 7.75389,6.27314c-0.4746,3.87153 -2.92615,5.74918 -7.00325,5.24939c-4.0771,-0.4998 -6.18745,-2.43292 -5.71286,-6.30445z" fill="#000000" stroke="none" stroke-width="0"/><path d="M240.70469,165.24328c-0.45359,3.70023 -3.15495,6.03597 -6.85517,5.58238c-3.60907,-0.44242 -8.85387,-2.56151 -8.41145,-6.17058c0.45359,-3.70022 5.39647,-6.03696 9.09669,-5.58337c3.70023,0.45359 6.62352,2.47136 6.16993,6.17158z" fill="#000000" stroke="none" stroke-width="0"/></g></g></g></svg>