<svg version="1.1" xmlns="http://www.w3.org/2000/svg" xmlns:xlink="http://www.w3.org/1999/xlink" width="306.30631" height="274.77477" viewBox="0,0,306.30631,274.77477"><g transform="translate(-86.84686,-42.61263)"><g data-paper-data="{&quot;isPaintingLayer&quot;:true}" fill-rule="nonzero" stroke-linecap="butt" stroke-linejoin="miter" stroke-miterlimit="10" stroke-dasharray="" stroke-dashoffset="0" style="mix-blend-mode: normal"><path d="M86.84687,317.38741v-274.77477h306.30631v274.77477z" data-paper-data="{&quot;index&quot;:null}" fill="none" stroke="none" stroke-width="0"/><g data-paper-data="{&quot;index&quot;:null}"><g><g><g><path d="M195.25257,123.4198c0,0 -3.53907,-11.61487 4.17856,-16.4405c5.47831,-3.42545 21.37768,1.22906 32.35834,-0.06737c12.48249,-1.47374 35.93125,-5.23475 35.93125,-5.23475c0,0 5.37476,2.86343 7.34571,2.70181c2.46094,-0.20182 4.8217,-3.73371 4.8217,-3.73371c0,0 0.7118,4.10337 0.60161,7.46153c-0.41506,12.64896 -10.33271,12.88184 -10.33271,12.88184c0,0 4.01653,5.64003 4.25678,9.93324c0.25253,4.51295 -3.36153,7.02605 -3.36153,7.02605c0,0 2.54983,3.45843 2.77275,7.04741c0.14716,2.36932 -0.2768,6.27672 -0.57577,8.71358c-0.51015,4.1585 6.98263,8.05634 6.98263,8.05634c0,0 -3.91653,3.35128 -6.68371,3.93362c-2.81653,0.59273 -9.20552,-2.27935 -9.20552,-2.27935c0,0 -2.45675,0.69739 -2.88804,3.53256c-0.13596,0.89374 0.17301,2.93461 0.33407,3.87181c0.54327,3.16121 -1.38224,5.44883 -1.38224,5.44883c0,0 -1.58974,-3.42331 -2.41005,-4.26505c-0.60206,-0.6178 -1.20902,-0.79818 -1.20902,-0.79818c0,0 -1.31999,4.36163 -0.89548,6.83884c0.9442,5.50984 3.08517,12.31991 1.83158,12.48468c-2.26672,0.29792 -4.99567,-3.57152 -7.60244,-3.93487c-2.39929,-0.33441 -4.94665,-6.67634 -4.94665,-6.67634c0,0 -1.84988,6.84059 -4.67389,7.74645c-2.74043,0.8791 -4.27594,6.06297 -5.43922,6.20929c-4.24054,0.53337 -9.33093,-12.34335 -9.33093,-12.34335c0,0 -11.9895,8.69059 -14.84715,6.22713c-3.37272,-2.90749 -4.68522,-18.77231 -4.68522,-18.77231c0,0 -5.60129,-4.50731 -6.0827,-7.32725c-1.08116,-6.33308 2.0043,-11.42361 2.0043,-11.42361c0,0 -3.2072,0.39638 -4.76903,1.58861c-1.6601,1.26724 -4.91475,5.80351 -4.91475,5.80351c0,0 -1.34265,-5.57882 -0.94271,-8.2741c0.42059,-2.83441 3.40746,-8.33603 3.40746,-8.33603c0,0 -4.78154,-3.49571 -6.75521,-8.68181c-1.05781,-2.77951 -0.28132,-8.8054 -0.28132,-8.8054c0,0 4.3028,3.8498 6.07796,4.38526c1.37703,0.41536 1.36103,-2.59871 1.36103,-2.59871z" fill="#6d0f0a" stroke="#000000" stroke-width="2"/><path d="M194.09891,118.14595c0,0 -3.55099,-7.66827 -1.85999,-17.77661c0.91549,-5.47245 5.31322,-12.42725 7.97385,-17.22108c3.77056,-6.79357 12.18675,-10.20884 19.35509,-11.05517c9.42329,-1.11256 16.39252,8.03101 16.39252,8.03101c0,0 9.58167,-4.5691 16.92868,-3.25848c7.09783,1.26614 12.39361,8.96191 13.85023,10.86311c2.21911,2.89639 4.682,16.64546 4.682,16.64546c0,0 -26.12932,23.20041 -41.06482,24.96374c-15.95563,1.88378 -27.4357,-14.57997 -33.03031,-11.443c-1.96852,1.10377 -3.22724,0.25101 -3.22724,0.25101z" fill="#6d0f0a" stroke="#000000" stroke-width="2"/><path d="M198.28254,87.98363c0,0 1.99252,-3.22784 3.04784,-4.6427c1.00683,-1.34983 3.14541,-3.66063 3.14541,-3.66063c0,0 8.52678,5.75684 12.96333,6.97025c4.64909,1.27155 12.22068,-1.06543 12.22068,-1.06543c0,0 0.14083,2.31622 0.43105,3.24858c0.30683,0.98575 0.8912,2.57037 0.8912,2.57037c0,0 1.15057,-1.89893 1.44643,-2.6985c0.31956,-0.86362 0.83981,-2.67601 0.83981,-2.67601c0,0 1.86931,3.68894 2.71452,5.06077c0.69214,1.12342 1.98997,2.5748 1.98997,2.5748c0,0 -0.1501,-2.12847 -0.31042,-3.22927c-0.16975,-1.16545 -0.68144,-3.58055 -0.68144,-3.58055c0,0 9.6943,3.95163 15.67468,5.3187c0.12007,0.02745 4.72402,-0.27636 5.06799,-0.25123c7.39597,0.54024 4.47994,-8.66083 4.47994,-8.66083c0,0 2.97383,3.31263 4.22943,6.30462c1.27348,3.0346 3.35851,11.77696 3.35851,11.77696c0,0 -5.4742,-2.85759 -10.52122,-3.08989c-0.89558,-0.04121 -10.6038,0.04823 -10.6038,0.04823c0,0 -1.54275,-2.07255 -2.36157,-2.92913c-0.80238,-0.83939 -2.50298,-2.1598 -2.50298,-2.1598c0,0 -1.09453,1.92964 -1.61994,3.1125c-0.63127,1.42107 -1.90864,4.83115 -1.90864,4.83115c0,0 -0.99114,-1.8178 -1.69753,-2.78117c-0.78585,-1.07177 -2.80455,-3.35902 -2.80455,-3.35902c0,0 -1.28936,0.53406 -1.9822,1.05922c-0.96183,0.72903 -3.25138,2.90756 -3.25138,2.90756c0,0 -0.93483,-2.82433 -1.4941,-4.07205c-0.48387,-1.07953 -1.6682,-2.98315 -1.6682,-2.98315c0,0 -1.57042,1.23307 -2.38981,2.03902c-1.02249,1.00574 -3.2719,3.52978 -3.2719,3.52978c0,0 -7.67638,-7.51791 -11.70293,-9.1527c-3.76645,-1.52921 -11.7282,-0.36041 -11.7282,-0.36041z" fill="#c42d06" stroke="none" stroke-width="0"/></g><path d="M216.42716,133.13587c0,0 -18.61748,-5.40327 -19.02899,-6.80807c-0.07138,-0.24369 2.33579,-8.93402 2.072,-9.80088c-0.48185,-1.58339 -4.84084,-0.28511 -4.84084,-0.28511c0,0 63.57756,-11.14523 73.55336,-12.47234c2.54142,-0.3381 5.26148,1.9924 5.26148,1.9924l-10.94581,19.58515z" fill="#6d0f0a" stroke="none" stroke-width="NaN"/></g><path d="M237.23959,81.35413c0,0 -4.32632,-1.59001 -2.83393,-7.21757c0.07863,-0.29651 0.70291,-1.49693 0.91961,-1.76408c1.66059,-2.04716 6.61097,-2.47078 6.61097,-2.47078c0,0 -2.93473,4.63223 -3.89219,6.21267c-0.85341,1.40869 -0.80445,5.23977 -0.80445,5.23977z" fill="#6d0f0a" stroke="#000000" stroke-width="1.5"/><path d="M231.58047,70.59976c0,0 1.38098,1.00246 1.86305,2.7272c0.42481,0.85202 0.75719,3.71804 0.75719,3.71804l-1.90697,-1.04716z" fill="#000000" stroke="none" stroke-width="0"/></g><path d="M236.3533,79.89967l3.77394,-0.10171c0,0 -2.7709,4.43565 -3.28483,4.61332c-0.71949,0.24875 -3.41586,-5.02059 -3.41586,-5.02059z" fill="#6d0f0a" stroke="none" stroke-width="0"/></g><g data-paper-data="{&quot;index&quot;:null}"><text transform="translate(294.68339,229.00289) rotate(-180) scale(0.27921,-0.27921)" font-size="40" xml:space="preserve" fill="#000000" fill-rule="nonzero" stroke="none" stroke-width="1" stroke-linecap="butt" stroke-linejoin="miter" stroke-miterlimit="10" stroke-dasharray="" stroke-dashoffset="0" font-family="Sans Serif" font-weight="normal" text-anchor="start" style="mix-blend-mode: normal"><tspan x="0" dy="0">AwezomeXD</tspan><tspan x="0" dy="46.15px"> </tspan><tspan x="0" dy="46.15px">MeIzAwezomeDede</tspan></text><g data-paper-data="{&quot;index&quot;:null}"><g><path d="M304.61433,280.7271c-0.97394,-0.3343 -2.81981,-1.05375 -2.81981,-1.05375l2.00112,-62.99775c0,0 3.12264,-3.42551 4.77674,-5.10754c1.78782,-1.81801 6.83093,-5.9246 6.83093,-5.9246c0,0 5.94054,0.17965 11.08569,1.75457c7.39586,2.26385 29.04162,10.52827 29.04162,10.52827c0,0 -0.29139,23.00613 -1.11993,33.98866c-0.74728,9.90532 -3.63272,29.00908 -3.63272,29.00908c0,0 -14.3168,1.48011 -21.61682,1.59314c-7.15813,0.11083 -21.76596,-0.92143 -21.76596,-0.92143c0,0 -1.89659,-0.56514 -2.78087,-0.86866z" fill="#434253" stroke="#000000" stroke-width="2.5"/><path d="M306.04174,281.58894c0,0 3.19421,-16.34268 5.26935,-30.13714c1.48339,-9.86081 2.04443,-18.33187 2.06476,-19.00203c0.15509,-5.11269 -0.3723,-9.50368 -0.00091,-14.70459c0.49814,-6.97594 1.18056,-11.43244 1.18056,-11.43244l2.10035,-1.22928c0,0 -1.17975,18.14658 -2.93073,35.27697c-0.73182,7.15966 -2.77258,22.22022 -3.75528,31.64788c-0.10799,1.03599 0.50491,2.39047 0.4064,3.33489c-0.55015,5.27458 -0.93311,6.24975 -0.93311,6.24975l-3.40139,-0.00403z" fill="#000000" stroke="none" stroke-width="0"/></g><g stroke="#000000" stroke-width="1.5"><path d="M345.29834,263.35312c0.94113,9.66742 -4.93088,16.17699 -12.88074,16.95092c-7.94986,0.77393 -14.77082,-5.25083 -14.91119,-14.96294c-0.15638,-10.82018 5.8426,-16.14324 12.54261,-16.73861c6.71115,-0.59636 14.44659,6.50489 15.24932,14.75063z" fill="#2c262f"/><path d="M323.67438,268.45714c-0.26544,-2.72671 1.31874,-5.06632 3.56101,-5.2846c2.24227,-0.21828 3.76096,1.25807 4.0264,3.98478c0.26545,2.72671 -1.3891,5.14677 -3.63137,5.36505c-2.24227,0.21828 -3.69059,-1.33852 -3.95603,-4.06523z" data-paper-data="{&quot;index&quot;:null}" fill="#1b171c"/></g><g stroke="#000000" stroke-width="1.5"><path d="M334.90074,214.22597c6.72176,-0.46163 14.18059,7.06601 14.65957,15.33688c0.56156,9.69688 -5.56103,15.97134 -13.53511,16.43313c-7.97408,0.46179 -14.55372,-5.82563 -14.31338,-15.53578c0.26776,-10.81801 6.4647,-15.77245 13.18893,-16.23424z" fill="#2c262f"/><path d="M327.75297,233.81557c-0.15839,-2.73501 1.51626,-5.01074 3.76536,-5.14099c2.2491,-0.13025 3.70876,1.40448 3.86715,4.1395c0.15839,2.73502 -1.58973,5.08838 -3.83883,5.21863c-2.2491,0.13025 -3.6353,-1.48212 -3.79369,-4.21714z" data-paper-data="{&quot;index&quot;:null}" fill="#1b171c"/></g></g><g><g><path d="M178.20552,279.8001c0,0 -1.84588,0.71945 -2.81982,1.05375c-0.88428,0.30352 -2.78086,0.86866 -2.78086,0.86866c0,0 -14.60784,1.03226 -21.76596,0.92143c-7.30001,-0.11302 -21.61681,-1.59314 -21.61681,-1.59314c0,0 -2.88544,-19.10377 -3.63272,-29.00909c-0.82854,-10.98252 -1.11993,-33.98866 -1.11993,-33.98866c0,0 21.64575,-8.26442 29.04162,-10.52827c5.14515,-1.57491 11.08569,-1.75457 11.08569,-1.75457c0,0 5.04312,4.1066 6.83094,5.9246c1.6541,1.68203 4.77674,5.10754 4.77674,5.10754l2.00112,62.99775z" fill="#434253" stroke="#000000" stroke-width="2.5"/><path d="M173.9583,281.71567l-3.40139,0.00403c0,0 -0.38295,-0.97517 -0.93311,-6.24976c-0.0985,-0.94441 0.51439,-2.2989 0.40641,-3.33488c-0.98271,-9.42766 -3.02346,-24.48823 -3.75529,-31.64789c-1.75097,-17.13039 -2.93073,-35.27697 -2.93073,-35.27697l2.10035,1.22928c0,0 0.68243,4.4565 1.18057,11.43244c0.37139,5.20091 -0.156,9.59191 -0.00092,14.70459c0.02033,0.67016 0.58138,9.14123 2.06477,19.00203c2.07514,13.79446 5.26935,30.13713 5.26935,30.13713z" fill="#000000" stroke="none" stroke-width="0"/></g><g stroke="#000000" stroke-width="1.5"><path d="M134.7017,263.47986c0.80273,-8.24574 8.53818,-15.34698 15.24933,-14.75062c6.70001,0.59537 12.69899,5.91843 12.54261,16.73861c-0.14037,9.71211 -6.96134,15.73687 -14.9112,14.96294c-7.94986,-0.77392 -13.82187,-7.2835 -12.88074,-16.95092z" fill="#2c262f"/><path d="M152.76466,263.29931c2.24227,0.21828 3.82645,2.55788 3.56101,5.28459c-0.26545,2.72671 -1.71376,4.28351 -3.95603,4.06523c-2.24227,-0.21829 -3.89681,-2.63834 -3.63137,-5.36505c0.26544,-2.72671 1.78413,-4.20306 4.0264,-3.98478z" data-paper-data="{&quot;index&quot;:null}" fill="#1b171c"/></g><g stroke="#000000" stroke-width="1.5"><path d="M130.43974,229.6896c0.47898,-8.27087 7.9378,-15.79851 14.65956,-15.33689c6.72423,0.46179 12.92117,5.41624 13.18893,16.23424c0.24034,9.71016 -6.33929,15.99758 -14.31338,15.53579c-7.97409,-0.46179 -14.09668,-6.73625 -13.53512,-16.43313z" fill="#2c262f"/><path d="M152.24709,233.94232c-0.15839,2.73501 -1.54458,4.34738 -3.79368,4.21713c-2.2491,-0.13025 -3.99721,-2.48361 -3.83882,-5.21863c0.15839,-2.73501 1.61804,-4.26975 3.86714,-4.1395c2.2491,0.13025 3.92375,2.40598 3.76536,5.141z" data-paper-data="{&quot;index&quot;:null}" fill="#1b171c"/></g></g><g stroke="#000000"><g fill="#434253"><path d="M302.9364,282.15581c0,0 -39.39406,0.31655 -59.64769,0.31655c-21.72904,0 -66.6118,-0.31655 -66.6118,-0.31655c0,0 -2.38216,-40.33861 -2.16309,-60.75635c0.20152,-18.78125 2.16309,-54.08575 2.16309,-54.08575c0,0 42.82931,-1.2662 64.39595,-1.2662c21.14461,0 59.33114,1.58275 59.33114,1.58275c0,0 4.66352,44.84767 4.63123,67.07726c-0.03994,25.54257 -2.09882,47.44828 -2.09882,47.44828z" stroke-width="2.5"/><path d="M182.62639,273.74782c1.29409,0 2.34316,0.94416 2.34316,2.10884c0,1.16468 -1.04906,2.10884 -2.34316,2.10884c-1.29409,0 -2.34316,-0.94416 -2.34316,-2.10884c0,-1.16468 1.04906,-2.10884 2.34316,-2.10884z" stroke-width="2"/><path d="M296.08664,273.11069c1.29409,0 2.34316,0.94416 2.34316,2.10884c0,1.16468 -1.04907,2.10884 -2.34316,2.10884c-1.29409,0 -2.34316,-0.94416 -2.34316,-2.10884c0,-1.16468 1.04907,-2.10884 2.34316,-2.10884z" stroke-width="2"/><path d="M291.83153,175.44761c-0.48529,-1.12251 0.08425,-2.44878 1.27209,-2.9623c1.18785,-0.51352 2.54417,-0.01985 3.02946,1.10266c0.48528,1.12251 -0.08426,2.44879 -1.2721,2.96231c-1.18785,0.51352 -2.54417,0.01984 -3.02946,-1.10267z" stroke-width="2"/><path d="M180.9176,172.05907c1.18784,-0.51352 2.54418,-0.01985 3.02946,1.10266c0.48528,1.12251 -0.08426,2.44879 -1.2721,2.96231c-1.18784,0.51352 -2.54417,0.01984 -3.02945,-1.10267c-0.48528,-1.12251 0.08425,-2.44878 1.27209,-2.9623z" stroke-width="2"/></g><g><path d="M187.36315,208.89733c-2.36044,-6.40232 -2.14847,-24.22034 1.17777,-27.70117c8.80798,-9.21732 26.01104,-9.48636 48.15555,-9.48636c20.7312,0 40.80646,1.21551 50.19223,9.11804c4.42593,3.72649 4.09175,24.72433 0.61728,30.38921c-5.21713,8.50616 -20.51325,11.67052 -51.0204,11.67052c-30.50715,0 -45.72795,-4.44989 -49.12243,-13.65691z" fill="#434253" stroke-width="2"/><path d="M191.46435,207.31699c-2.1792,-5.67588 -1.98352,-21.47217 1.08734,-24.55804c8.13172,-8.17147 24.01396,-7.77733 44.45825,-7.77733c19.1395,0 37.67343,0.44494 46.33857,7.45081c4.08612,3.30367 3.77759,21.91897 0.56988,26.94108c-4.81657,7.54101 -18.93828,9.50278 -47.10314,9.50278c-28.16487,0 -42.21704,-3.39695 -45.3509,-11.55929z" fill="#2c262f" stroke-width="1.5"/><path d="M216.73028,204.30871c-0.84859,-2.4182 -0.77238,-9.14817 0.42343,-10.4629c3.16654,-3.48144 9.35117,-4.21571 17.31229,-4.21571c7.45303,0 14.67023,1.09175 18.04449,4.07659c1.59116,1.40752 1.47102,9.33853 0.22192,11.47819c-1.8756,3.21283 -7.37467,4.61891 -18.34223,4.61891c-10.96755,0 -16.43956,-1.85087 -17.65989,-5.32841z" fill="#1b171c" stroke-width="1.5"/></g><g><path d="M187.36315,264.28152c-2.36044,-6.40232 -2.14847,-24.22034 1.17777,-27.70116c8.80798,-9.21732 26.01104,-9.48637 48.15555,-9.48637c20.7312,0 40.80646,1.21551 50.19223,9.11804c4.42593,3.7265 4.09175,24.72433 0.61728,30.38921c-5.21713,8.50616 -20.51325,11.67052 -51.0204,11.67052c-30.50715,0 -45.72795,-4.4499 -49.12243,-13.65692z" fill="#434253" stroke-width="2"/><path d="M191.46435,262.70116c-2.1792,-5.67588 -1.98352,-21.47217 1.08734,-24.55804c8.13172,-8.17147 24.01396,-7.77734 44.45825,-7.77734c19.1395,0 37.67343,0.44494 46.33857,7.45081c4.08612,3.30367 3.77759,21.91898 0.56988,26.94109c-4.81657,7.54101 -18.93828,9.50278 -47.10314,9.50278c-28.16487,0 -42.21704,-3.39695 -45.3509,-11.55929z" fill="#2c262f" stroke-width="1.5"/><path d="M216.73028,259.6929c-0.84859,-2.41819 -0.77238,-9.14816 0.42343,-10.46289c3.16654,-3.48144 9.35117,-4.21571 17.31229,-4.21571c7.45303,0 14.67023,1.09175 18.04449,4.07659c1.59116,1.40752 1.47102,9.33852 0.22192,11.47818c-1.8756,3.21283 -7.37467,4.61891 -18.34223,4.61891c-10.96755,0 -16.43956,-1.85087 -17.65989,-5.32842z" fill="#1b171c" stroke-width="1.5"/></g></g></g><g data-paper-data="{&quot;index&quot;:null}"><g><path d="M252.35624,159.43963c0,-4.62307 -8.67534,-15.53073 -3.89581,-15.53073c1.2493,0 4.524,2.33459 7.66116,4.85516c1.48198,1.19071 3.69128,2.34172 4.67934,3.77227c0.90809,1.31474 0.79435,2.94412 0.90345,3.34049c0.1445,0.52495 1.08254,2.14097 1.08254,2.14097c0,0 1.88284,1.97795 5.37432,3.90074c2.34766,1.29287 4.33085,0.66077 6.7492,2.01002c1.54318,0.86098 5.25275,2.7213 3.95663,4.97488c-0.18543,0.32243 -5.23297,0.24975 -5.23297,0.24975c0,0 -1.41692,1.6276 -2.68076,2.04842c-3.29372,1.09671 -5.42431,-1.08587 -6.25146,-1.03821c-2.6601,0.15328 -6.87214,-0.10553 -6.87214,-0.10553c0,0 -0.43843,-0.10557 -1.72689,-0.80571c-5.35592,-2.91039 -3.74661,-7.69547 -3.74661,-9.81253z" fill="#ffd5d5" stroke="#000000" stroke-width="1.5"/><path d="M253.75159,166.12694c0,0 7.44862,1.48578 10.16776,0.65935c0.10736,-0.03263 1.11656,-0.82199 2.5084,-1.24686c1.16756,-0.35642 2.71012,-0.36275 3.18614,-0.36185c1.20503,0.00229 1.6448,1.90079 2.6762,1.90079c4.15807,0 5.12024,-0.51035 5.12024,-0.51035c0,0 0.56642,0.54917 0.75962,1.15381c0.13784,0.43135 0.02733,0.94264 -0.34839,1.06756c-1.4325,0.47629 -4.89679,0.20759 -4.89679,0.20759c0,0 -1.78091,1.7083 -2.6054,1.73805c-5.49889,0.19843 -4.46578,-1.18226 -5.43431,-1.18226c-3.73647,0 -5.92761,-0.08543 -7.20473,-0.35945c-0.1795,-0.03852 -1.34535,-0.5453 -2.1334,-1.13084c-1.13866,-0.84606 -1.79532,-1.93553 -1.79532,-1.93553z" fill="#fb95a9" stroke="none" stroke-width="0"/><path d="M264.73634,166.10441c0,0 1.5965,-1.17823 3.94554,-1.43765c0.73995,-0.08172 2.93208,-0.06303 3.83202,0.94108c1.18225,1.3191 0.99785,3.72747 0.99785,3.72747l-2.13638,1.52047c0,0 0.83215,-4.96196 -1.82128,-4.96196c-2.13519,0 -4.81774,0.21059 -4.81774,0.21059z" fill="#000000" stroke="none" stroke-width="0"/><path d="M263.82356,158.87903l-0.14273,3.79055l-2.64084,-6.19124z" fill="#000000" stroke="none" stroke-width="0"/></g><path d="M245.05061,140.84214c0,-3.1402 -3.27594,-10.10814 -0.71372,-10.10814c2.56223,0 8.22283,-0.70437 8.22283,2.43583c0,1.6451 3.07956,8.01008 2.82118,11.02958c-0.23482,2.74415 0.88196,4.53972 -0.33793,4.53972c-2.56222,0 -9.99234,-4.75679 -9.99234,-7.89699z" fill="#fb95a9" stroke="#000000" stroke-width="2"/></g><g data-paper-data="{&quot;index&quot;:null}"><path d="M228.18003,130.87588c2.41131,-2.95149 10.53162,-0.25987 12.59919,3.86227c0.26008,0.51854 1.70637,-0.66733 5.40284,0.98163c0.86997,0.38809 5.3323,2.85511 7.98427,6.04894c1.26983,1.52929 2.1246,3.99593 1.97118,5.03194c-0.22905,2.80784 -2.67033,5.18657 -4.85989,7.14774c-2.87249,2.57284 1.75248,7.33006 -2.40533,7.33006c-3.03121,0 -16.54137,0.60747 -18.69314,-0.7284c-1.28409,-0.79719 -0.53199,-7.61244 -0.88049,-9.01861c-0.48674,-1.96396 -4.99822,-4.40189 -4.99822,-6.61256c0,-2.58633 2.29137,-12.099 3.87959,-14.04301z" fill="#ee1536" stroke="#000000" stroke-width="2"/><path d="M244.29203,151.06498c0,-3.14019 3.56399,-6.94934 7.26523,-7.10728c3.22449,-0.13759 3.97211,2.15654 3.0535,5.15937c-1.10558,3.61402 -4.40634,5.42259 -7.63376,5.42259c-0.06272,0 2.08362,-1.58996 2.84464,-0.28992c1.01358,1.73146 0.66979,6.51156 0.03616,6.86773c-2.98614,1.67855 -13.402,-0.74155 -16.31172,-0.67209c-0.60085,0.01435 -2.90823,0.59035 -3.45604,-1.26733c-0.44915,-1.5231 0.38106,-5.65028 0.34354,-5.65555c-0.60286,-0.08461 -1.36799,-4.06688 -1.36799,-4.06688c0,0 -2.86476,-2.27685 -2.9505,-2.85725c-0.15338,-1.03828 2.10836,-2.8435 2.10836,-2.8435c0,0 1.25189,1.00644 1.97555,1.57762c0.66583,0.52553 1.57561,2.98741 1.57561,2.98741c0,0 4.12841,-5.5717 8.29185,-4.21031c5.58397,1.82588 4.22558,7.21129 4.22558,6.95539z" fill="#9a1652" stroke="none" stroke-width="0"/><path d="M230.80237,160.05496c0.86132,-1.55025 8.52088,-5.58592 9.70316,-7.17085c2.60911,-3.4977 4.57621,-6.08348 4.57621,-6.08348c0,0 0.91108,5.32297 -0.66029,9.58239c-1.16307,3.15265 6.61433,5.47453 5.8723,5.47453c-1.74455,0 -20.27813,-0.38656 -19.49138,-1.80259z" fill="#000000" stroke="none" stroke-width="0"/></g><g data-paper-data="{&quot;index&quot;:null}"><path d="M219.80545,137.09794c0.85495,-4.18431 1.06863,-6.49008 6.05932,-6.15979c3.46827,0.22954 5.88609,5.79266 5.68504,10.07376c-0.21657,4.56908 -3.09134,5.71421 -5.27397,10.64295c-0.32691,0.46423 -0.41525,3.4172 -0.39265,5.54692c0.0021,0.19844 -0.34002,0.64829 -0.76967,1.21145c-0.26768,0.35085 -0.56933,0.74568 -0.8429,1.15108c-0.59287,0.87862 -1.01684,1.84718 -1.01818,2.15373c-0.00063,0.14626 0.90134,0.60869 1.38588,-0.09881c0.5993,-0.87507 0.82714,-2.98594 1.10231,-3.0964c0.60831,-0.24419 -0.26861,2.62755 -0.44991,3.25284c-0.26754,0.92274 -0.49625,0.66918 -0.4485,1.84642c0.09121,2.2495 1.58219,3.51506 2.64816,4.77798c0.71338,0.84515 0.22573,1.8337 0.01155,1.98299c-0.3812,0.26569 -3.57359,-0.5554 -4.09211,-0.44646c-0.40101,0.08425 -1.3579,-0.42312 -3.52041,-0.28335c-0.8305,0.05367 -1.67042,0.79792 -2.65943,0.85784c-0.72242,0.04378 -1.31671,-0.1658 -1.96812,-0.32741c-0.22393,-0.05556 -1.03696,-0.55616 -1.26876,-0.55025c-0.35065,0.00895 -0.83224,0.50811 -1.24217,0.66424c-0.78278,0.29813 -1.62016,0.72187 -2.30784,0.72602c-3.21667,0.01945 -3.29444,-1.97371 -3.29444,-1.97371c0,0 -3.06999,0.06592 -4.06611,-0.44162c-0.75725,-0.38584 -1.5724,-1.04929 -1.39298,-2.33987c0.25104,-1.80565 1.11282,-2.4426 3.11066,-3.34967c3.01008,-1.36666 6.11638,-0.60655 9.54809,-4.10159c3.23089,-3.29052 4.4746,-16.07415 4.82686,-17.79822z" fill="#ffd5d5" stroke="#000000" stroke-width="1.5"/><path d="M206.94466,168.18385c0,0 -3.0982,0.00291 -3.74501,-0.30266c-0.72216,-0.34116 -0.73336,-1.64932 -0.73336,-1.64932c0,0 2.43615,-0.11541 3.40896,-0.24616c0.7991,-0.10741 2.35647,-0.57653 2.35647,-0.57653l-0.52877,2.97088c0,0 1.65935,0.73869 3.20598,0.8667c0.83382,0.06901 0.82406,-1.95939 3.49453,-1.95939c0.98942,0 3.2054,1.32198 4.05963,0.80558c2.12708,-1.28585 5.08409,-5.42477 5.08409,-5.42477c0,0 0.82151,0.25173 0.82151,0.65196c0,0.50447 3.70699,6.47077 3.18324,6.41879c-0.73979,-0.07343 -6.5784,-0.98561 -7.44369,-1.00672c-0.85715,-0.02091 -2.25662,0.98691 -3.12354,0.95451c-0.46962,-0.01755 -0.93548,-0.13094 -1.39202,-0.2384c-0.43884,-0.1033 -0.95569,-0.57857 -1.37228,-0.58045c-0.56192,-0.00254 -0.94055,0.44294 -1.34505,0.54541c-1.23493,0.31284 -1.90374,0.94681 -3.02861,0.87498c-1.47763,-0.09436 -2.90209,-2.1044 -2.90209,-2.1044z" fill="#fb95a9" stroke="none" stroke-width="0"/><path d="M206.68722,168.28323c0,0 1.26405,-3.27998 2.43701,-3.61475c0.62037,-0.17705 1.84932,-0.26358 2.80931,0.09422c0.97806,0.36453 1.9241,1.43943 1.9241,1.43943c0,0 -2.49784,-0.60054 -3.82036,-0.19817c-1.73697,0.52845 -1.75857,3.63316 -1.75857,3.63316z" fill="#000000" stroke="none" stroke-width="0"/><path d="M220.67426,167.83387l-0.95293,1.98172l-1.42938,-0.18873z" fill="#000000" stroke="none" stroke-width="0"/></g><g data-paper-data="{&quot;index&quot;:null}"><g><path d="M254.13779,118.99314c-0.00131,-3.66357 2.40184,-6.63432 5.36758,-6.63537c2.96573,-0.00105 5.371,2.96801 5.37229,6.63156c0.0013,3.66357 -2.40186,6.63433 -5.3676,6.63538c-2.96573,0.00106 -5.37099,-2.968 -5.37228,-6.63155z" fill="#fb95a9" stroke="#000000" stroke-width="2"/><path d="M240.19409,134.94283c-24.99825,-3.68701 -27.68427,-6.53645 -29.38058,-16.62961c-1.69632,-10.09318 12.97494,-11.08952 27.25445,-13.48943c14.27951,-2.39992 21.65352,-4.25451 23.34984,5.83867c0.27671,1.64649 -1.27427,11.75878 -1.27427,11.75878c0,0 7.87788,4.05801 7.07332,8.04873c-0.88308,4.30735 -17.56658,5.86753 -27.02276,4.47285z" fill="#ffd5d5" stroke="#000000" stroke-width="2"/><path d="M212.81172,111.14421c0,0 26.47723,-8.47201 32.59114,-9.49955c11.58418,-1.94691 14.35904,4.24734 15.14936,8.94984c0.34518,2.05394 -1.22888,10.46597 -1.22888,10.46597c0,0 -3.94853,-5.28794 -6.08132,-6.55968c-2.42925,-1.44851 -7.51321,-1.70514 -7.51321,-1.70514l-5.62462,7.00106l-6.76899,-7.27287c0,0 -2.84914,5.56099 -5.12494,7.82481c-2.42654,2.41377 -9.01113,6.23688 -9.01113,6.23688l-4.02288,-0.25587c0,0 -3.11257,-4.93456 -3.51426,-7.51432c-0.38586,-2.47797 1.14972,-7.67118 1.14972,-7.67118z" fill="#fb95a9" stroke="none" stroke-width="0"/><path d="M204.56938,121.8184c-0.53013,-3.1541 -0.72646,-3.82835 0.97903,-5.60978c1.3673,-1.42816 8.08048,2.33876 8.61059,5.49286c0.53012,3.15411 0.07205,6.28731 -1.87778,6.61501c-1.94982,0.32768 -7.07704,-2.72096 -7.71185,-6.49811z" fill="#ffd5d5" stroke="#000000" stroke-width="2.5"/><path d="M212.24543,127.46834c-0.69588,0.11694 -3.45293,-0.91514 -4.73351,-2.43939c-0.79947,-0.95158 -1.32496,-2.21663 -1.6613,-3.32157c-0.41245,-1.35502 0.51692,-2.13695 1.8586,-1.61287c2.24401,0.87655 5.28323,2.28957 5.50039,3.58158c0.34697,2.06453 0.69887,3.51273 -0.9642,3.79224z" fill="#fb95a9" stroke="none" stroke-width="0"/><path d="M207.37029,119.42582c-0.10602,-0.63083 6.44661,5.32272 6.44661,5.32272l-0.60207,2.77042c0,0 -5.7385,-7.46234 -5.84452,-8.09318z" fill="#000000" stroke="none" stroke-width="0"/><path d="M211.36379,128.48523c-0.53393,-1.79095 0.93368,-3.50098 2.99219,-4.05133c2.05847,-0.55034 4.31044,-1.3355 5.4399,1.6719c0.19882,0.52939 1.40753,4.01 -0.00178,5.87143c-0.21967,0.29015 -1.50978,1.42681 -2.89944,1.70645c-1.91913,0.38619 -3.14182,0.02141 -3.14182,0.02141c0,0 2.08048,-1.90412 1.85181,-2.0354c-0.72933,-0.41869 -3.79226,-1.67969 -4.24088,-3.18443z" fill="#6d0f0a" stroke="#000000" stroke-width="2"/><path d="M198.42381,127.97981c-7.47815,-3.41142 -10.26593,-7.24694 -10.26593,-7.24694c0,0 6.62875,-0.95363 8.68926,-3.26001c2.07697,-2.32482 3.51417,-11.87998 3.51417,-11.87998c0,0 23.08609,-1.57479 32.76054,-3.20074c8.95843,-1.50559 16.82195,-2.80267 22.58292,-3.74537c6.26159,-1.02462 12.03393,1.20369 13.39722,5.99001c0.33739,1.18447 0.79082,2.77981 0.98588,4.1426c0.89159,6.22899 -0.8493,12.10273 -0.8493,12.10273c0,0 -5.9251,-7.03922 -8.77376,-10.07438c-3.52317,-3.75378 -9.08926,-6.88697 -9.08926,-6.88697c0,0 -0.48236,3.97744 -1.83082,6.64659c-1.39589,2.76301 -4.55868,2.97031 -4.55868,2.97031c0,0 -0.56944,-3.13573 -1.32448,-4.52629c-0.69502,-1.28006 -1.98296,-3.6939 -1.92348,-2.52266c0.0598,1.17821 -0.18593,4.02324 -0.2655,5.41834c-0.20597,3.61077 -0.71568,4.14967 -0.71568,4.14967c0,0 -2.17461,-2.99782 -4.34257,-5.78719c-1.84332,-2.37168 -4.56579,-3.52674 -4.56579,-3.52674c0,0 -4.17479,5.01511 -6.63619,7.12883c-2.2235,1.90942 -7.11472,4.93959 -7.11472,4.93959c0,0 3.09781,7.81025 -0.93216,7.88004c-2.84825,0.04934 -4.12411,-0.32649 -5.74437,-1.36387c-0.97135,-0.62191 -1.56477,-3.5631 -1.56477,-3.5631l2.13561,0.30442c0,0 -1.90875,-6.05155 -3.27805,-6.26037c-2.411,-0.36769 -0.67615,-0.87419 -4.11787,-0.20743c-0.50096,0.09705 -1.53436,3.2684 -1.00098,6.05822c0.57264,2.99516 2.73462,5.61958 2.73462,5.61958c0,0 -4.0043,2.35446 -7.65618,0.68851z" fill="#6d0f0a" stroke="#000000" stroke-width="1.5"/><path d="M244.54675,103.5233c-0.96708,0.16254 -2.39581,-0.7573 -4.36752,-0.56936c-2.13615,0.20358 -4.82417,1.51691 -5.93359,1.74247c-16.02275,3.25798 -33.78351,7.29548 -33.78351,7.29548c0,0 0.36161,-2.67298 0.23806,-3.94008c-0.13199,-1.35373 -0.69484,-3.99196 -0.69484,-3.99196c0,0 22.14336,-0.89112 35.12257,-3.07248c8.32833,-1.39973 17.04791,-3.21413 22.65092,-3.35579c5.9328,-0.15002 8.94663,1.34218 8.94663,1.34218l1.97803,6.66676l-2.6086,-0.2647l-7.0216,-5.40797c0,0 -10.09048,2.80986 -14.52656,3.55544z" fill="#6d0f0a" stroke="none" stroke-width="0"/><path d="M238.39186,131.84277c-1.24159,0.03402 -1.9258,-1.0857 -2.48452,-2.17845c-0.63032,-1.2328 -1.04903,-2.46911 -0.9495,-2.68967c0.15314,-0.33938 9.01786,0.7038 9.09793,1.08678c0.07641,0.36541 -1.11672,1.36173 -2.71354,2.35304c-0.89972,0.55853 -1.63651,1.45594 -2.70697,1.48525z" fill="#ef3d61" stroke="#000000" stroke-width="1.5"/><path d="M243.30869,119.96572c-0.3219,-1.91539 -0.28765,-5.29062 2.46409,-6.86264c0.49406,-0.28227 1.70531,-0.3724 3.07836,-0.14116c1.40734,0.237 2.63957,0.81442 2.99443,0.95091c0.70107,0.26969 1.8985,-0.23278 1.8985,-0.23278c0,0 1.14457,-0.78292 1.77196,-1.37075c0.52669,-0.49349 1.65959,-2.42132 1.65959,-2.42132c0,0 0.15715,1.49399 -0.79658,3.244c-0.393,0.72113 -1.54667,2.05404 -1.54667,2.05404c0,0 1.03727,-0.02451 2.16749,-0.40299c0.84898,-0.28428 2.84064,-1.86722 2.84064,-1.86722c0,0 -0.74414,1.82414 -1.32561,2.63819c-0.40151,0.56212 -1.48078,1.32704 -1.48078,1.32704l-0.07739,1.0379c0,0 -1.73114,-1.62388 -2.573,-1.92371c-0.68068,-0.24241 -2.24363,0.15647 -2.24363,0.15647c0,0 0.94961,7.65812 -3.88492,8.34254c-3.76952,0.53364 -4.41637,-1.37441 -4.94647,-4.52851z" fill="#000000" stroke="none" stroke-width="0"/><path d="M220.50535,112.85049c0,0 1.7689,1.48975 2.7102,1.95336c0.86631,0.42668 2.22869,0.27738 2.22869,0.27738c0,0 -0.42724,-0.69934 -0.85657,-1.42901c-0.44777,-0.761 -1.26918,-2.98996 -1.26918,-2.98996c0,0 1.48062,1.58137 2.20727,2.10317c0.6949,0.49904 2.30414,1.13508 2.30414,1.13508c0,0 2.54937,-0.47745 4.22998,-0.7599c4.39939,-0.73938 7.7773,1.89599 7.7773,1.89599c0,0 -2.50284,-0.27018 -3.37278,-0.33397c-0.61794,-0.04534 -1.33115,0.12572 -1.33115,0.12572c0,0 1.55984,8.36815 -4.71247,9.49349c-5.13734,0.92171 -4.87541,-6.25326 -5.13677,-6.6007c-0.18933,-0.25171 -1.20914,-0.98265 -1.20914,-0.98265c0,0 -1.5515,-0.65726 -2.11657,-1.25929c-0.61472,-0.65493 -1.45287,-2.6287 -1.45287,-2.6287z" fill="#000000" stroke="none" stroke-width="0"/></g><path d="M268.2708,103.6995c0,0 -0.77602,-2.65313 -1.26598,-3.97086c-0.46852,-1.26009 -1.61243,-3.77027 -1.61243,-3.77027c0,0 1.1641,0.522 2.10945,2.73944c0.61785,1.44926 2.1575,5.21897 2.1575,5.21897z" fill="#000000" stroke="none" stroke-width="0"/></g><g data-paper-data="{&quot;index&quot;:null}"><path d="M255.19959,182.67556c-1.00101,-2.204 -1.48204,-4.3489 -0.72825,-4.96606c2.33239,-1.90961 13.28484,-2.98899 13.38878,-2.98899c6.31528,0 14.84633,4.70166 14.84633,7.42317c0,2.15815 -5.66177,5.08636 -11.867,4.87772c-9.17694,-0.30857 -12.61375,-4.42959 -12.80984,-4.64776c-0.77835,-0.86597 0.94691,1.54978 1.61014,2.51138c0.76014,1.10213 2.09503,1.87099 1.91005,2.94778c-0.21138,1.23048 -1.04517,0.91066 -1.93413,0.37576c-1.07219,-0.64516 -2.75079,-1.86638 -4.41608,-5.533z" fill="#ee1536" stroke="#000000" stroke-width="1.5"/><path d="M224.16344,165.33484c0,-3.59654 1.88208,-6.79388 5.00437,-9.12732c4.14737,-3.09953 10.28977,-4.77137 15.23297,-4.77137c5.31995,0 12.36793,-0.19935 14.37465,2.09274c0.5447,0.62216 0.11605,3.35746 0.47021,5.96384c0.20355,1.49801 1.01152,5.12835 2.06489,8.05201c0.76659,2.12772 1.6857,4.5633 2.81912,4.87357c4.6996,1.28652 11.33458,3.83886 9.65309,6.39177c-1.27777,1.93997 -8.71321,2.17386 -14.6326,0.37436c-5.32793,-1.61969 -9.13974,-5.17457 -11.08352,-5.65964c-3.29754,-0.8229 -10.29591,1.43415 -13.65474,0.96798c-2.18858,-0.30375 -4.10262,-1.02669 -5.53901,-1.79684c-3.55989,-1.90871 -4.7094,-5.13615 -4.7094,-7.3611z" fill="#ffd5d5" stroke="#000000" stroke-width="1.5"/><path d="M254.40497,161.63252c0,0 1.5473,-1.13661 2.20683,-1.84011c0.59795,-0.63781 1.58373,-2.20314 1.58373,-2.20314c0,0 0.47515,2.43192 0.69523,3.67533c0.19897,1.12418 0.56829,3.46354 0.56829,3.46354c0,0 -2.16472,-0.56777 -3.07746,-1.12683c-0.7315,-0.44803 -1.97661,-1.96878 -1.97661,-1.96878z" fill="#fb95a9" stroke="none" stroke-width="0"/><path d="M275.08882,178.59435c0.16969,-0.35395 1.67522,-0.13645 2.97302,0.48578c1.2978,0.62223 2.68613,2.36122 2.51643,2.71517c-0.1697,0.35394 -1.51728,-1.12707 -2.81508,-1.7493c-1.29779,-0.62223 -2.84406,-1.0977 -2.67436,-1.45165z" fill="#fc9ea5" stroke="none" stroke-width="0"/></g><g data-paper-data="{&quot;index&quot;:null}"><path d="M231.01662,186.66843c2.5441,-6.35721 7.6863,-8.12709 12.34285,-6.26357c4.65656,1.86351 6.54811,7.90162 4.004,14.25883c-2.5441,6.35722 -11.22418,11.88722 -14.69074,10.29339c-3.43224,-1.57805 -4.378,-11.60389 -1.83389,-17.9611z" fill="#ee1536" stroke="#000000" stroke-width="1.5"/><path d="M233.5181,183.8908c0,0 2.00422,-2.86118 4.30555,-3.50609c0.77193,-0.21631 4.08674,0.23689 6.56763,1.86017c1.68622,1.10331 2.8021,3.19439 3.19142,4.24588c0.67057,1.81111 0.10967,3.76134 0.10967,3.76134c0,0 -1.81828,1.66589 -5.43619,1.54424c-1.90251,-0.06397 -4.61734,-2.13774 -6.33064,-4.2466c-1.54479,-1.90145 -2.40744,-3.65892 -2.40744,-3.65892z" fill="#9a1652" stroke="none" stroke-width="0"/><path d="M237.96926,174.10228c0.55432,-7.08643 2.21505,-10.84502 10.62649,-10.5467c4.91806,0.17442 6.52345,5.86357 6.20118,8.26798c-1.07822,8.0444 -9.74893,15.13352 -9.74893,15.13352c0,0 1.38491,8.01261 -6.9327,9.02219c-4.06733,0.49369 -4.09452,-6.52097 -3.42123,-8.22854c1.22234,-3.10001 3.42075,-4.916 3.42075,-4.916c0,0 -0.3919,-5.5836 -0.14558,-8.73245z" fill="#ffd5d5" stroke="#000000" stroke-width="1.5"/><path d="M245.10261,175.4596c-0.98594,-0.64 -1.21165,-1.61216 -1.54278,-2.57662c-0.39958,-1.16379 -0.68288,-4.079 -0.68288,-4.079c0,0 1.88781,1.43735 2.95744,2.05164c1.0526,0.6045 3.57324,1.45269 3.57324,1.45269c0,0 -1.55297,2.41034 -2.26572,2.89984c-0.66241,0.45494 -1.05335,0.89143 -2.03929,0.25145z" fill="#fb95a9" stroke="none" stroke-width="0"/><path d="M235.86951,202.12273c-0.64171,-0.03296 1.51192,-1.05037 2.3367,-1.53259c0.91489,-0.5349 2.82616,-2.37563 2.86295,-2.00666c0.07441,0.74608 -1.44675,2.17702 -2.28268,2.66576c-0.90726,0.53045 -1.82762,0.92947 -2.91696,0.87351z" fill="#fc9ea5" stroke="none" stroke-width="0"/></g></g></g></svg>