<svg version="1.1" xmlns="http://www.w3.org/2000/svg" xmlns:xlink="http://www.w3.org/1999/xlink" width="173" height="208" viewBox="0,0,173,208"><defs><radialGradient cx="266.57723" cy="148.41449" r="46.11088" gradientUnits="userSpaceOnUse" id="color-1"><stop offset="0" stop-color="#8f8256"/><stop offset="1" stop-color="#8d681f"/></radialGradient><radialGradient cx="267.32934" cy="154.77055" r="19.63981" gradientUnits="userSpaceOnUse" id="color-2"><stop offset="0" stop-color="#0c0b0b"/><stop offset="1" stop-color="#533907"/></radialGradient><radialGradient cx="296.30517" cy="147.27675" r="16.41691" gradientUnits="userSpaceOnUse" id="color-3"><stop offset="0" stop-color="#36270c"/><stop offset="1" stop-color="#0c0b0b"/></radialGradient><radialGradient cx="237.25485" cy="151.66084" r="16.41691" gradientUnits="userSpaceOnUse" id="color-4"><stop offset="0" stop-color="#36270c"/><stop offset="1" stop-color="#0c0b0b"/></radialGradient></defs><g transform="translate(-153.5,-76)"><g data-paper-data="{&quot;isPaintingLayer&quot;:true}" fill-rule="nonzero" stroke-linejoin="miter" stroke-miterlimit="10" stroke-dasharray="" stroke-dashoffset="0" style="mix-blend-mode: normal"><path d="M153.5,284v-208h173v208z" fill="none" stroke="none" stroke-width="0" stroke-linecap="butt"/><g data-paper-data="{&quot;index&quot;:null}"><g data-paper-data="{&quot;index&quot;:null}"><path d="M220.44977,177.66206c-0.8815,-3.26264 11.24997,-16.26051 13.84919,-16.4437c2.82494,-0.19909 13.69756,11.70448 13.69756,11.70448l-2.14099,3.1384l13.7538,-21.0007c0,0 4.35433,-7.47425 6.38838,-6.02783c0,0 12.36852,2.24653 26.53866,17.01674c-2.07199,5.02374 -11.14971,14.33591 -11.14971,14.33591c0,0 -19.11987,21.53969 -24.42114,20.96882c-5.30121,-0.57084 -35.68851,-20.6305 -36.51573,-23.69213z" fill="#68330c" stroke="none" stroke-width="3" stroke-linecap="round"/><path d="M259.62004,154.73505c0,0 5.27619,-6.83539 7.25514,-5.38642c0,0 12.13247,2.36915 25.84814,17.08051c-1.1391,2.64847 -4.29793,6.49553 -6.9691,9.48045c-0.444,-0.32145 -0.85364,-0.60474 -1.19273,-0.83585c-7.51585,-5.12256 -18.49599,-11.46964 -26.44629,-17.30473c-0.07878,-0.05784 1.50486,-3.03398 1.50486,-3.03398z" fill="#ffddb7" stroke="#000000" stroke-width="2" stroke-linecap="butt"/><path d="M259.25374,156.95339l26.77047,18.39855l-2.50926,2.81378l-26.65787,-17.97524z" data-paper-data="{&quot;index&quot;:null}" fill="#ffffff" stroke="#000000" stroke-width="2" stroke-linecap="round"/><path d="M220.70687,177.59627c-0.88149,-3.26262 11.24996,-16.26049 13.84918,-16.44368c2.82492,-0.19909 13.69755,11.70447 13.69755,11.70447l-2.14099,3.13841l13.75379,-21.00071c0,0 4.35432,-7.47426 6.38836,-6.02784c0,0 12.36851,2.24653 26.53865,17.01674c-2.072,5.02375 -11.14969,14.33592 -11.14969,14.33592c0,0 -19.11987,21.53967 -24.42114,20.9688c-5.3012,-0.57084 -35.68851,-20.6305 -36.51573,-23.69213z" data-paper-data="{&quot;origPos&quot;:null}" fill="none" stroke="#000000" stroke-width="2.5" stroke-linecap="round"/></g><g stroke-linecap="butt"><path d="M285.71965,116.05177c0,0 1.10935,6.64727 -2.83925,6.93265c-1.21816,0.08805 -7.03914,2.12341 -9.99899,0.55079c-1.45919,-0.77529 2.95117,-4.35757 -0.20847,-8.21634c-0.66962,-0.81781 -18.37032,-0.3858 -18.10517,2.67686c0.95472,11.0278 -4.07587,6.53462 -4.79926,6.78194c-9.54395,3.26302 -7.46539,-5.58793 -7.46539,-5.58793l-0.66583,-7.86652l43.41655,-3.13795z" fill="#8c651a" stroke="#000000" stroke-width="2.5"/><g stroke="#000000"><path d="M222.38351,172.59337l-4.14153,-48.92886l91.94096,-6.64503l4.14151,48.92883z" fill="#121010" stroke-width="3"/><path d="M222.6775,176.20143l-4.14152,-48.92885l91.94097,-6.64503l4.14152,48.92887z" fill="url(#color-1)" stroke-width="2.5"/></g><path d="M256.72974,173.74029l-3.06291,-36.18596l24.26218,-1.75353l3.06291,36.18597z" fill="url(#color-2)" stroke="#000000" stroke-width="2.5"/><path d="M280.01945,148.53459c-0.43863,-8.37355 6.49718,-15.72465 15.49148,-16.41931c8.99439,-0.69469 16.64134,5.53027 17.07999,13.90371c0.43864,8.37353 -6.4972,15.72463 -15.4915,16.41929c-8.99439,0.69465 -16.64135,-5.53028 -17.07998,-13.90375z" fill="url(#color-3)" stroke="none" stroke-width="0"/><path d="M220.96909,152.91869c-0.43864,-8.37351 6.4972,-15.72463 15.4915,-16.41929c8.99434,-0.69467 16.64134,5.53028 17.07998,13.90373c0.43863,8.3735 -6.4972,15.72461 -15.4915,16.41929c-8.99434,0.69464 -16.64131,-5.5303 -17.07995,-13.90376z" fill="url(#color-4)" stroke="none" stroke-width="0"/></g></g><path d="M232.77591,263.32259c0,0 0.30338,4.32996 -1.20298,6.32623c-1.15312,1.52823 -3.64182,1.839 -6.00237,2.02428c-6.47941,0.50858 -12.4601,-1.52002 -22.49103,-2.59157c-2.73196,-0.29184 -3.68902,-3.41512 -3.11672,-5.40402c0.5353,-1.86024 1.62056,-5.06976 1.62056,-5.06976l9.95846,-31.17828c0,0 1.46823,-4.00557 3.86066,-4.49777c5.76133,-1.18523 11.31346,0.81934 17.27241,1.20486c2.0194,0.13064 1.27982,4.74292 1.27982,4.74292z" fill="#000000" stroke="#000000" stroke-width="3" stroke-linecap="round"/><path d="M235.40455,227.62526c0,0 -0.34753,-4.74617 1.58423,-4.78882c5.70029,-0.12586 11.13852,-1.9244 16.52941,-0.45412c2.2386,0.61056 3.32633,4.76957 3.32633,4.76957l7.06818,32.3066c0,0 0.78483,3.32836 1.15052,5.25327c0.391,2.05809 -0.76097,5.20642 -3.38327,5.38173c-9.62815,0.64364 -15.47606,2.4475 -21.60257,1.63633c-2.23197,-0.29553 -4.57619,-0.72502 -5.55546,-2.33849c-1.2792,-2.10759 -0.65609,-6.51841 -0.65609,-6.51841z" fill="#000000" stroke="#000000" stroke-width="3" stroke-linecap="round"/><g data-paper-data="{&quot;index&quot;:null}" stroke="#000000"><path d="M211.45054,183.41214c0,0 2.05372,-13.69463 4.54546,-14.22733c3.98299,-0.85155 10.72508,-0.75065 17.86728,-0.66253c6.26219,0.07727 12.83197,0.05316 18.11932,0.60274c2.05073,0.21315 3.47864,13.79308 3.47864,13.79308l1.68034,26.6147c0,0 0.6572,16.12852 -1.26903,16.12852c-17.14704,0 -37.2445,0.82906 -44.88732,0.01136c-2.54759,-0.27255 -1.59128,-15.59506 -1.59128,-15.59506z" fill="#68330c" stroke-width="2.5" stroke-linecap="round"/><g><g><path d="M226.31537,168.53128h21.44848v8.44835c-0.32737,1.18384 -0.57943,2.15656 -0.72513,2.65619c-1.43147,4.90927 -9.70742,25.0074 -10.44464,28.3464c-3.54674,-10.19367 -6.95568,-20.54262 -10.27872,-30.92428z" fill="#ffffff" stroke-width="2" stroke-linecap="butt"/><path d="M232.05791,169.38211h9.61057v2.14058c-0.14669,0.28785 -4.46937,6.63993 -4.79971,7.45182c-1.58922,-2.47858 -3.32189,-4.96789 -4.81087,-7.49218z" fill="#ffddb7" stroke-width="1.5" stroke-linecap="butt"/><path d="M236.65384,204.18143l0.39784,-25.45738" fill="none" stroke-width="1.5" stroke-linecap="round"/><path d="M236.74114,225.10473v-17.62434" fill="none" stroke-width="2" stroke-linecap="round"/><path d="M237.49413,181.69887c0,-0.26851 0.25854,-0.4862 0.57746,-0.4862c0.31891,0 0.57745,0.21768 0.57745,0.4862c0,0.26851 -0.25853,0.48619 -0.57745,0.48619c-0.31891,0 -0.57746,-0.21767 -0.57746,-0.48619z" fill="#000000" stroke-width="0.5" stroke-linecap="butt"/><path d="M237.36581,187.53314c0,-0.26851 0.25853,-0.48619 0.57745,-0.48619c0.31891,0 0.57746,0.21767 0.57746,0.48619c0,0.26851 -0.25854,0.4862 -0.57746,0.4862c-0.31891,0 -0.57745,-0.21768 -0.57745,-0.4862z" fill="#000000" stroke-width="0.5" stroke-linecap="butt"/><path d="M237.34364,193.36742c0,-0.26851 0.25854,-0.4862 0.57746,-0.4862c0.31891,0 0.57745,0.21768 0.57745,0.4862c0,0.26851 -0.25853,0.4862 -0.57745,0.4862c-0.31891,0 -0.57746,-0.21768 -0.57746,-0.4862z" fill="#000000" stroke-width="0.5" stroke-linecap="butt"/><path d="M237.8958,222.53874c0,-0.26851 0.25853,-0.48619 0.57745,-0.48619c0.31891,0 0.57746,0.21767 0.57746,0.48619c0,0.26851 -0.25854,0.4862 -0.57746,0.4862c-0.31891,0 -0.57745,-0.21768 -0.57745,-0.4862z" fill="#000000" stroke-width="0.5" stroke-linecap="butt"/><path d="M237.61699,216.59641c0,-0.26851 0.25854,-0.48619 0.57746,-0.48619c0.31891,0 0.57746,0.21767 0.57746,0.48619c0,0.26851 -0.25854,0.4862 -0.57746,0.4862c-0.31891,0 -0.57746,-0.21768 -0.57746,-0.4862z" fill="#000000" stroke-width="0.5" stroke-linecap="butt"/><path d="M236.36268,209.50882l-19.93909,-25.97328l6.01934,-4.43446l-3.38588,-5.38471l6.01935,-2.53397" fill="none" stroke-width="2" stroke-linecap="round"/><path d="M248.21381,171.00715l5.6019,2.55488l-2.68709,5.37291l4.46495,4.45535l-18.73589,26.38287" fill="none" stroke-width="2" stroke-linecap="round"/><g stroke-width="1.5" stroke-linecap="round"><path d="M245.87279,213.75162l0.09834,-3.14586l3.24478,0.99344l2.35985,-3.06308l0.19665,5.2983z" fill="#ffffff"/><path d="M244.1669,214.07218h9.53771" fill="none"/></g></g><path d="M235.9097,178.37463l-8.1398,2.89392" fill="none" stroke-width="1.5" stroke-linecap="round"/><path d="M237.17514,178.61938l8.2766,2.37561" fill="none" stroke-width="1.5" stroke-linecap="round"/></g></g><path d="M219.84888,168.81857c-4.65811,-1.2172 -5.87505,-4.04643 -5.87505,-4.04643c0,0 -1.71355,-2.5363 -1.6912,-4.0615c0.06703,-4.57566 0.92498,-17.61884 2.7981,-28.79073c0.06252,-0.37285 0.11235,-0.5803 0.19897,-0.94905c0.25979,-1.10624 1.47325,-5.38684 1.47325,-5.38684c0,0 3.5688,-1.42028 5.47518,-1.7675c5.71913,-1.04168 19.87179,1.36669 34.8626,2.76112c1.35871,0.12637 3.56578,1.94546 3.56578,1.94546c0,0 1.42677,3.21881 1.22473,5.18091c-1.30614,12.68537 -2.80213,26.7164 -3.37316,29.90921c-0.09885,0.55277 -0.54968,2.9499 -2.55705,4.87778c-0.529,0.50805 -2.51704,2.59427 -6.2868,2.80894c-9.46756,0.53914 -26.17007,-1.52881 -29.81536,-2.48137z" fill="#ffddb7" stroke="#000000" stroke-width="2.5" stroke-linecap="round"/><path d="M251.47637,153.94741c0.35088,-3.40775 1.08109,-6.1311 1.63097,-6.08274c0.5499,0.04836 0.71122,2.85012 0.36037,6.25786c-0.35088,3.40775 -1.0811,6.1311 -1.63098,6.08275c-0.5499,-0.04836 -0.71122,-2.85012 -0.36036,-6.25788z" fill="#000000" stroke="#000000" stroke-width="2.5" stroke-linecap="butt"/><path d="M259.47469,148.62943c-0.0436,-0.78616 -0.08525,-1.57175 -0.13154,-2.35699c-0.87442,0.37698 -1.69881,0.70012 -1.8583,0.76836c-1.75167,0.74979 -4.55941,1.99397 -6.46261,2.17772c-0.93064,0.08986 -2.0572,0.38159 -2.80387,-0.13737c-0.92336,-0.64177 -0.5962,-2.99278 -0.53848,-3.89713c0.21707,-3.40015 0.44266,-6.7999 0.66493,-10.19979c-1.82473,1.60417 -4.63924,2.93434 -6.38845,4.35842c-3.93488,3.20341 -8.0941,6.05131 -12.16565,9.06061c-1.39657,1.03223 -2.56348,2.02192 -4.08719,2.9017c-0.58415,0.33731 -1.03293,1.11675 -1.7204,1.0572c-0.96007,-0.08316 -1.6318,-0.94548 -2.44769,-1.41823c-0.03305,-1.56319 -0.05349,-3.54629 0.17207,-5.33012c-0.89385,1.00484 -2.06039,1.96225 -2.75959,2.8386c-2.4375,3.05497 -6.97007,11.92393 -6.97007,11.92393c-4.06589,-0.3055 -7.60111,-3.92922 -9.78721,-6.80748c-2.17997,-0.15715 -4.32223,-0.45736 -6.51925,-0.58066c-0.52381,-0.0294 -3.45122,-0.15104 -3.76345,-0.37201c-1.92387,-1.36152 -1.24548,-2.54708 -0.58656,-4.14566c0.52721,-1.27905 1.38474,-2.34498 2.43919,-3.23977c-1.1376,-0.72627 -2.44026,-1.61022 -2.74868,-2.53225c-0.55764,-1.66711 0.17117,-2.28377 1.03709,-3.47942c0.96905,-1.33808 2.17402,-2.46377 3.53183,-3.41602c-0.71957,-0.46441 -1.48804,-0.99091 -1.56769,-1.181c-0.84077,-2.00676 0.20299,-2.70285 1.2602,-4.06939c1.82369,-2.35734 4.86215,-3.61792 7.70626,-4.51105c0.34049,-2.50291 1.74276,-4.00087 3.21413,-6.15759c1.93772,-2.84035 5.4261,-6.94649 10.57418,-9.94153c5.64923,-3.28659 12.59409,-4.98635 14.73676,-5.31903c4.6498,-0.72195 10.51743,-0.31283 12.77818,0.02603c4.16469,0.62429 11.49085,2.8851 16.63549,6.34127c5.18465,3.48305 7.81704,7.83851 8.17616,8.54055c3.1351,6.12876 5.03571,11.89358 4.60779,18.60312c-0.10939,1.67756 0.43583,10.50114 -2.60972,15.12406c-3.69982,5.61609 -11.46104,7.78461 -11.78324,7.86355c-0.3816,0.09351 -1.90588,-0.21674 -2.05956,-1.27076c-0.37014,-2.53892 1.15719,-7.70892 1.94125,-9.75568c0.14484,-0.33091 0.27949,-0.66536 0.40879,-1.00169c-0.11297,-0.24751 -0.12502,-0.46444 -0.12502,-0.46444z" fill="#000000" stroke="none" stroke-width="0.5" stroke-linecap="butt"/><g><g data-paper-data="{&quot;index&quot;:null}"><path d="M245.49498,184.95457c2.56583,0.07888 6.90232,-3.56412 6.82307,-1.36219c-0.05282,1.46694 -6.04332,21.66139 -7.71049,22.79208c-0.83529,0.56654 -2.16663,0.90853 -3.02313,0.88222c-1.25888,-0.03872 -2.27721,-0.68507 -2.97553,-1.68192c-0.72498,-1.03499 -0.41772,-21.53548 -0.37734,-22.65706c0.07927,-2.20195 4.69759,1.94794 7.26344,2.02681z" fill="#485e84" stroke="#000000" stroke-width="1.5" stroke-linecap="butt"/><g stroke-linecap="butt"><path d="M245.7338,177.66986c4.6487,0.14292 8.33441,2.55809 8.23231,5.39446c-0.1021,2.83636 -3.95342,5.01981 -8.60211,4.87692c-4.64872,-0.14293 -8.33443,-2.55812 -8.23232,-5.39448c0.1021,-2.83637 3.95339,-5.01983 8.60209,-4.87692z" fill="#485e84" stroke="#000000" stroke-width="1.5"/><path d="M249.65088,184.21523l3.84203,-1.44665c0,0 -0.81257,1.78293 -1.43441,2.35486c-1.32273,1.18106 -3.08191,1.50338 -3.08191,1.50338z" fill="#6987bb" stroke="none" stroke-width="0"/><path d="M245.9169,184.90322l1.70222,-0.24573c0,0 0.08176,0.999 0.0447,1.34815c-0.04337,0.40882 -0.35733,1.12485 -0.35733,1.12485l-2.03381,-0.01173z" fill="#6987bb" stroke="none" stroke-width="0"/></g><g><path d="M245.39068,183.95275c-6.41297,-0.19718 -9.84296,-3.79443 -9.62961,-9.72039c0.21335,-5.92591 5.91368,-10.5599 12.32669,-10.36277c6.41299,0.19715 10.80337,4.53332 10.59002,10.45928c-0.21335,5.92592 -6.87406,9.82103 -13.28707,9.62389z" fill="#2c394f" stroke="#000000" stroke-width="1.5" stroke-linecap="butt"/><path d="M250.23273,164.76397c0,0 8.26168,2.66379 8.07501,7.84854c-0.10584,2.94012 -1.76456,5.93982 -3.77775,8.11086c-1.43429,1.54677 -3.58102,2.61385 -5.84785,2.54417c-4.65947,-0.14327 -6.24744,-2.11153 -6.06077,-7.29628c0.09322,-2.58922 1.84823,-5.71888 3.92113,-7.78392c2.0779,-2.07008 3.69026,-3.42337 3.69026,-3.42337z" fill="#485e84" stroke="none" stroke-width="0" stroke-linecap="butt"/><path d="M258.31778,174.38281c0,0 -3.31195,3.96849 -10.73838,3.98475c-7.48728,0.01641 -10.75863,-3.703 -10.75863,-3.703" fill="none" stroke="#000000" stroke-width="0.8" stroke-linecap="round"/><path d="M256.81085,179.04984c0,0 -4.42994,2.13665 -9.15357,2.64761c-6.80735,0.73637 -9.38187,-1.39103 -9.38187,-1.39103" fill="none" stroke="#000000" stroke-width="0.75" stroke-linecap="round"/><path d="M257.46405,169.76103c0,0 -3.49191,3.35332 -10.9246,3.75652c-7.14892,0.3878 -9.23272,-1.72497 -9.23272,-1.72497" fill="none" stroke="#000000" stroke-width="0.8" stroke-linecap="round"/><path d="M237.41917,170.44098c0,0 4.49129,-2.1816 8.11906,-2.94539c4.77831,-1.00605 9.67739,-0.80845 9.67739,-0.80845" fill="none" stroke="#000000" stroke-width="0.8" stroke-linecap="round"/><path d="M242.95667,183.10161c0,0 -2.47449,-3.36924 -2.52269,-9.62211c-0.04497,-5.83502 3.16899,-8.32771 3.16899,-8.32771" fill="none" stroke="#000000" stroke-width="0.8" stroke-linecap="round"/><path d="M245.97005,164.92996c0,0 -0.31897,2.95303 -0.1257,6.19011c0.16997,2.84672 0.85198,5.90332 0.8922,7.49967c0.04777,1.89605 -0.29391,5.06036 -0.29391,5.06036" fill="none" stroke="#000000" stroke-width="0.8" stroke-linecap="round"/><path d="M248.91879,164.4904c0,0 3.15555,4.69532 3.13303,8.76658c-0.03533,6.39001 -2.67527,10.39548 -2.67527,10.39548" fill="none" stroke="#000000" stroke-width="0.8" stroke-linecap="round"/><path d="M252.59578,165.07477c0,0 2.47243,3.32841 3.04981,7.37784c0.83146,5.83132 -0.89391,8.89059 -0.89391,8.89059" fill="none" stroke="#000000" stroke-width="0.8" stroke-linecap="round"/><path d="M256.77219,173.03908c-0.45723,-0.01405 -0.81373,-0.42067 -0.79617,-0.90822c0.01753,-0.48755 0.40245,-0.87137 0.85972,-0.85731c0.45727,0.01406 0.81373,0.42068 0.79618,0.90822c-0.01753,0.48756 -0.40246,0.87139 -0.85973,0.85734z" fill="#6987bb" stroke="none" stroke-width="0" stroke-linecap="butt"/><path d="M255.96733,169.71504c-0.26383,-0.00811 -0.47054,-0.21232 -0.46178,-0.45607c0.0088,-0.24379 0.22977,-0.43481 0.49357,-0.42671c0.26384,0.00811 0.47056,0.21231 0.4618,0.45606c-0.00876,0.24378 -0.22977,0.43481 -0.49357,0.42671z" fill="#6987bb" stroke="none" stroke-width="0" stroke-linecap="butt"/></g></g><g><path d="M203.97516,168.2197c2.49498,-2.10614 19.34267,1.31168 20.65236,3.19282c1.42345,2.04451 -4.2985,15.5082 -4.2985,15.5082l-3.71988,-0.23027l24.63885,1.10851c0,0 8.5303,-0.01366 8.14982,2.16048c0,0 3.47576,10.32845 -3.32429,27.54717c-5.35615,0.65437 -17.597,-2.08586 -17.597,-2.08586c0,0 -27.48489,-4.92112 -29.32118,-9.17487c-1.83628,-4.25373 2.47851,-36.04979 4.81982,-38.02619z" fill="#68330c" stroke="none" stroke-width="3" stroke-linecap="round"/><path d="M241.54045,187.66331c0,0 8.37261,0.96436 7.96556,3.09802c0,0 3.2631,10.20443 -3.68559,27.05411c-2.84434,0.30967 -7.6402,-0.37599 -11.4585,-1.07422c0.08809,-0.47713 0.15768,-0.91145 0.21223,-1.26946c1.20961,-7.93543 1.97199,-19.02664 3.61964,-27.60462c0.01633,-0.08501 3.34665,-0.20382 3.34665,-0.20382z" fill="#ffddb7" stroke="#000000" stroke-width="2" stroke-linecap="butt"/><path d="M239.41762,188.36638l-4.44347,28.33235l-3.59556,-0.6516l4.11899,-28.06043z" data-paper-data="{&quot;index&quot;:null}" fill="#ffffff" stroke="#000000" stroke-width="2" stroke-linecap="round"/><path d="M204.14685,168.38469c2.49498,-2.10614 19.34267,1.31168 20.65236,3.19282c1.42345,2.04451 -4.29851,15.5082 -4.29851,15.5082l-3.71988,-0.23027l24.63885,1.10851c0,0 8.5303,-0.01366 8.14981,2.16047c0,0 3.47576,10.32845 -3.32429,27.54717c-5.35615,0.65437 -17.597,-2.08586 -17.597,-2.08586c0,0 -27.48489,-4.92112 -29.32117,-9.17486c-1.83628,-4.25373 2.47851,-36.04979 4.81982,-38.02619z" data-paper-data="{&quot;origPos&quot;:null}" fill="none" stroke="#000000" stroke-width="2.5" stroke-linecap="round"/></g></g><path d="M231.44851,164.17887c-0.74398,1.86264 -2.33972,2.96485 -3.56418,2.46185c-1.22445,-0.50299 -1.61397,-2.42071 -0.86999,-4.28335c0.74398,-1.86264 2.33972,-2.96485 3.56418,-2.46185c1.22445,0.50299 1.61398,2.42071 0.87,4.28335z" fill="#ff7d7d" stroke="#000000" stroke-width="1.25" stroke-linecap="butt"/><g fill="#000000" stroke="#000000" stroke-width="2.5" stroke-linecap="butt"><path d="M242.49168,156.77603c2.60939,-1.64637 4.88332,-2.76637 5.07897,-2.50164c0.19563,0.26476 -1.7611,1.81399 -4.37049,3.46036c-2.6094,1.64636 -4.88335,2.76639 -5.07898,2.50166c-0.19565,-0.26472 1.76111,-1.814 4.3705,-3.46038z" data-paper-data="{&quot;index&quot;:null}"/><path d="M244.44202,149.78153c2.16892,2.12312 3.72267,4.02266 3.47041,4.24272c-0.25229,0.22007 -2.21503,-1.32266 -4.38396,-3.44577c-2.16893,-2.12312 -3.7227,-4.02267 -3.47044,-4.24273c0.25226,-0.22008 2.21505,1.32267 4.38399,3.44577z" data-paper-data="{&quot;index&quot;:null}"/></g></g></g></svg>