<svg version="1.1" xmlns="http://www.w3.org/2000/svg" xmlns:xlink="http://www.w3.org/1999/xlink" width="234" height="234" viewBox="0,0,234,234"><g transform="translate(-123,-63)"><g data-paper-data="{&quot;isPaintingLayer&quot;:true}" fill-rule="nonzero" stroke-linejoin="miter" stroke-miterlimit="10" stroke-dasharray="" stroke-dashoffset="0" style="mix-blend-mode: normal"><g data-paper-data="{&quot;index&quot;:null}" stroke="#000000" stroke-width="3" stroke-linecap="butt"><path d="M270.59246,205.24138c0,0 -2.0379,11.10785 -10.26551,10.45186c-3.81584,-0.30424 -20.40815,-5.77856 -23.07128,-11.76016c-5.80049,-13.02834 -2.70807,-21.64465 -2.70807,-21.64465c0,0 4.06472,-2.99537 6.58494,-2.65959c7.23324,0.96373 8.18058,5.44518 8.18058,5.44518c0,0 0.34289,2.09385 0.96864,3.36992c0.69018,1.40748 2.99811,4.71941 2.99811,4.71941c0,0 15.52618,1.08299 15.96945,2.3204c0.19752,0.55135 1.34315,9.75763 1.34315,9.75763z" fill="#db93e6"/><path d="M269.07985,200.2817c0,0 16.15076,0.40857 20.72852,3.8839c7.21024,5.47384 3.92878,15.06368 2.58109,16.01078c-4.21979,2.96549 -19.23772,3.65928 -19.23772,3.65928c-2.96273,-0.15381 -10.42813,-0.80295 -12.60895,-1.63107c-3.43589,-1.30471 -2.93329,-5.87132 -2.54713,-10.50012c0.6374,-7.64041 3.44378,-12.06016 11.0842,-11.42276z" fill="#f89587"/></g><g data-paper-data="{&quot;index&quot;:null}"><g><g><g stroke-linecap="butt"><path d="M320.55178,206.95762c-10.89708,-1.30584 -18.92114,-8.30801 -17.26942,-19.15806c1.93951,-12.74058 8.83583,-21.47831 20.56717,-20.0725c9.73786,1.16693 15.99277,6.65494 17.34476,15.95729c0.42479,2.9228 0.09277,6.63591 -0.41601,10.17701c-1.68032,11.69518 -8.49516,14.50207 -20.2265,13.09626z" fill="#485e84" stroke="#000000" stroke-width="3"/><path d="M305.79992,182.40081c0,0 0.86218,1.15093 4.62181,3.15077c2.45037,1.30341 5.07881,3.36792 9.81939,3.936c5.84195,0.70007 10.96237,1.14455 14.52952,1.11601c3.76878,-0.03015 5.53186,-1.96233 5.53186,-1.96233c0,0 1.26327,19.33309 -14.87758,17.94823c-5.05876,-0.43404 -14.56165,-3.36306 -18.77335,-8.22123c-2.22818,-2.5702 -2.00923,-6.80691 -2.09057,-9.07627c-0.15713,-4.38369 1.2389,-6.89119 1.2389,-6.89119z" fill="#343545" stroke="none" stroke-width="0"/></g><g fill="none" stroke="#000000" stroke-width="2" stroke-linecap="round"><path d="M308.26634,188.23169c0,0 -0.38,-3.95623 -0.14427,-6.37392c0.36044,-3.69674 3.01964,-7.97607 3.01964,-7.97607"/><path d="M304.44767,187.03111c0,0 6.85728,-5.71355 13.93176,-2.33819c14.10007,6.72739 9.42203,22.39048 9.42203,22.39048"/><path d="M318.17315,193.05124c0,0 3.8398,-8.16939 6.3946,-11.63545c3.39741,-4.60926 8.81092,-9.16212 8.81092,-9.16212"/><path d="M337.51988,174.89632c0,0 -0.04793,7.84456 -6.77073,15.26872c-4.0442,4.46612 -9.8866,5.93275 -9.8866,5.93275"/><path d="M313.283,189.08051c0,0 -0.09357,-5.94679 2.15232,-9.91172c3.87338,-6.83815 11.70228,-10.63495 11.70228,-10.63495"/><path d="M340.46114,185.48545c0,0 -1.80601,6.74853 -8.47975,11.24913c-3.07749,2.07539 -9.17169,2.40337 -9.17169,2.40337"/><path d="M340.38785,195.05288c0,0 -3.234,4.6123 -7.93751,7.00087c-2.65976,1.35069 -9.05412,0.45663 -9.05412,0.45663"/><path d="M322.0201,167.83803c0,0 5.0313,2.22127 9.72121,6.69616c4.54689,4.33843 9.78832,15.12442 9.78832,15.12442"/><path d="M311.23927,173.06788c0,0 9.01928,-0.81838 16.02105,5.54986c10.0603,9.15002 9.74974,23.95552 9.74974,23.95552"/></g></g><g stroke-linecap="butt"><path d="M320.12604,211.19942c0,0 -8.40116,-6.40555 -11.65256,-9.63692c-2.49879,-2.4834 -6.19933,-8.105 -6.19933,-8.105l1.94281,-3.81231c0,0 5.86088,-1.3961 9.92181,1.06313c7.58891,4.5957 9.4532,14.30213 9.4532,14.30213c0,0 -0.40928,3.92544 -1.02522,5.02529c-0.52467,0.93687 -2.44072,1.16366 -2.44072,1.16366z" fill="#485e84" stroke="#000000" stroke-width="2"/><path d="M313.45398,195.18312l1.97725,-2.10849c0,0 0.55984,0.33947 0.86297,0.56769c0.34522,0.25989 1.15574,1.06851 1.15574,1.06851l-1.69159,2.54199z" fill="#8fbbbe" stroke="none" stroke-width="0"/><path d="M317.09513,198.65444l2.14561,-1.44201c0,0 1.66778,2.70204 2.18181,3.96419c0.41198,1.0116 0.66449,3.02471 0.66449,3.02471l-1.9253,1.33046z" fill="#8fbbbe" stroke="none" stroke-width="0"/><path d="M304.30376,192.76537c0,0 0.94151,-0.22766 2.7435,-0.24934c1.73398,-0.02087 4.27825,0.11672 6.86842,2.44758c2.00062,1.80032 4.16594,3.64985 5.23355,5.82592c2.1901,4.46402 2.00271,9.10215 2.00271,9.10215c0,0 -0.67201,1.23297 -1.19889,0.65152c-0.6293,-0.6945 -2.32452,-4.53992 -2.32452,-4.53992c0,0 0.81617,-3.63146 -3.83718,-7.02027c-2.03266,-1.48028 -6.28316,-3.40919 -8.35162,-4.71786c-1.43007,-0.90478 -1.13596,-1.49976 -1.13596,-1.49976z" fill="#000000" stroke="none" stroke-width="0"/></g></g><g stroke-linecap="butt"><path d="M303.03757,196.89657c0.09366,0.14102 3.37664,3.22235 3.37664,3.22235c0,0 2.80393,4.7778 -8.73736,10.66866c-8.36511,5.54793 -12.79255,1.95692 -12.79255,1.95692c0,0 -8.30479,-5.32478 -9.18949,-9.8477c-0.47097,-2.40778 -2.04702,-6.56865 0.50965,-7.83101c2.01231,-0.9936 6.78114,-0.14156 8.01624,-1.22213c2.21925,-1.94159 2.95657,-14.35685 11.05754,-12.47251c3.4294,0.79771 8.84149,6.49496 7.75933,15.52541z" fill="#fddfbd" stroke="#000000" stroke-width="3"/><path d="M276.3813,196.83649c0,0 1.74289,0.99278 4.10951,4.41209c5.49839,-0.90895 9.22975,-1.24573 9.22975,-1.24573c0,0 2.69241,3.7075 1.37607,5.34497c-1.49804,1.8635 -7.18276,1.6678 -10.07942,1.32068c-2.39613,-0.28713 -3.84384,-2.85685 -4.40379,-5.39419c-0.48622,-2.20321 -0.23211,-4.4378 -0.23211,-4.4378z" fill="#f89587" stroke="none" stroke-width="0"/></g><g stroke-linecap="butt"><g><path d="M266.83098,219.60479c0.50764,-4.23622 4.12913,-8.44659 11.95854,-6.64379c0.42554,-2.77359 -0.13615,-4.66494 1.21052,-5.8468c0.80044,-0.70249 2.64709,-1.57798 4.5367,-1.99647c1.2782,-0.28309 2.21447,-0.5458 3.75968,-0.63867c0.15832,-4.34377 1.11294,-6.76573 2.21631,-8.00726c1.89264,-2.12959 2.77728,-5.27739 4.98856,-5.42838c6.35895,-0.43419 14.18372,7.0857 19.53448,13.29018c2.32408,2.69488 4.78332,8.63807 5.39744,10.51274c0.51198,1.56285 -0.39781,4.49073 -0.7572,7.48978c-1.02685,8.56894 -3.87647,7.01375 -7.00169,6.95139c-2.49084,-0.0497 -5.26049,-2.11801 -6.05431,-1.25604c-1.6435,1.78462 -4.63226,6.80938 -7.31771,6.77806c-2.04695,-0.02387 -4.61478,-0.76447 -5.91138,-0.75669c-2.39519,0.01438 -5.86409,4.76564 -6.09015,4.91419c-2.24567,1.47558 -5.04498,0.62117 -7.91153,-0.46256c-9.59002,-3.62562 -13.52117,-10.86423 -12.55825,-18.89969z" fill="#fddfbd" stroke="#000000" stroke-width="3"/><path d="M274.30526,214.16072c0,0 -3.36656,3.8524 -2.43042,5.97742c1.01681,2.30816 3.41551,4.82658 6.46882,6.35989c1.95614,3.47825 5.85142,7.90292 5.92494,4.98673c0.05769,-2.28855 0.16926,-8.71413 1.2818,-7.97872c0.52447,0.34668 1.76179,2.7272 1.76179,2.7272c0,0 3.51733,1.06656 4.38128,1.42737c2.49022,1.03999 6.06322,-2.35251 6.01158,-2.60618c1.43912,-0.37487 -2.32094,-14.24314 -2.32094,-14.24314l5.74719,5.17842c0,0 4.45343,2.21436 6.33256,3.35953c2.87309,1.75088 5.0019,3.62743 6.5168,3.85432c2.25105,0.33714 5.13154,-7.62488 5.13154,-7.62488c0,0 -1.0023,12.51983 -2.71471,12.57593c-1.85188,0.06068 -6.60766,-0.14983 -9.62969,-1.41997c-2.48318,0.13555 -4.88702,6.75059 -7.77524,6.91893c-3.14472,0.18328 -2.61784,-0.37644 -5.26182,-0.58397c-0.51655,0.41581 -3.3427,1.12675 -3.95393,1.59294c-2.57878,1.96687 -3.54702,3.75809 -4.45865,3.67047c-9.91984,-0.95343 -14.23701,-6.49092 -16.50539,-10.77329c-1.75301,-3.30941 -1.02579,-10.50864 1.28523,-12.29252c1.61636,-1.24766 4.20728,-1.10647 4.20728,-1.10647z" fill="#f89587" stroke="none" stroke-width="0"/></g><path d="M287.1503,226.35599c-3.16953,-4.64103 -11.09242,-14.11287 -11.09242,-14.11287c0,0 1.51351,-1.11073 2.8558,-0.4877c0.89198,0.41403 0.63377,1.02747 0.68393,1.83986c4.37844,5.67662 7.43818,10.22407 7.5527,12.76072z" fill="#000000" stroke="none" stroke-width="0"/><path d="M288.87902,203.34691c0,0 9.59403,7.61498 12.42486,12.80317c-7.22491,-6.22903 -13.44859,-10.39116 -13.44859,-10.39116z" fill="#000000" stroke="none" stroke-width="0"/></g></g><g data-paper-data="{&quot;index&quot;:null}" stroke-linecap="butt"><path d="M282.90147,225.35582c0,0 0.21139,3.60569 -10.68314,6.55483c-16.58096,4.48846 -47.91751,8.99188 -58.48467,9.0436c-5.11607,0.02504 -10.7353,-3.25334 -15.36284,-5.25832c-10.28159,-4.4547 -11.70578,-9.14244 -11.70578,-9.14244c0,0 -1.49042,-4.84567 -0.56015,-6.91625c0.75519,-1.68092 5.49426,-0.9791 5.49426,-0.9791c0,0 42.26551,-6.86949 68.80211,-7.97418c1.1425,-0.04756 1.74683,4.23444 2.80758,4.17909c5.87398,-4.7616 14.52023,-5.82152 14.69263,-5.6739c4.2469,3.63648 5,16.16666 5,16.16666z" fill="#0066cc" stroke="#000000" stroke-width="3"/><path d="M210.3702,216.7346c0,-1.80159 -1.44474,-8.64937 -1.44474,-8.64937c0,0 11.67233,-0.45171 25.78731,-0.45171c11.68368,0 20.35719,-3.63873 20.35719,-3.63873c0,0 5.71929,8.55942 6.12213,9.04974c0.91621,1.11518 0.57345,2.87611 0.57345,2.87611c0,0 -1.50662,4.75248 -2.51439,7.16941c-1.23323,2.95765 -4.97108,11.15908 -4.97108,11.15908c0,0 -0.75356,1.5322 -1.82955,0.36422c-1.95765,-2.12501 -4.98263,-7.89397 -6.47855,-10.61c-0.91426,-0.08061 -1.73421,-0.18338 -2.69472,-0.11638c-2.86642,0.19996 -5.9491,1.22525 -9.3096,1.29901c-4.20151,0.09223 -8.0008,0.10117 -11.26258,-0.53402c-7.64308,-1.48839 -12.33488,-4.94693 -12.33488,-7.91736z" fill="#0f1b82" stroke="none" stroke-width="0"/><path d="M240.50705,225.92176c0,0 4.50087,-3.72766 5.42322,-4.49253c1.06646,-0.88439 4.03756,-2.86042 4.03756,-2.86042c0,0 -1.02941,2.36577 -3.77451,5.68627c-2.94341,3.56039 -5.68627,1.66667 -5.68627,1.66667z" fill="#000000" stroke="none" stroke-width="0"/></g><g data-paper-data="{&quot;index&quot;:null}" stroke-linecap="butt"><g><path d="M265.45956,202.61127c0,0 -0.80576,11.30538 -18.62202,14.10747c-17.21558,2.70761 -26.99419,0.69844 -32.37565,-0.8498c-2.93613,-0.84472 -7.72451,-1.34567 -7.72451,-1.34567c0,0 -1.76235,-8.32924 -2.25205,-16.79677c-0.45304,-7.83361 0.3663,-15.7071 0.30727,-19.08655c-0.18223,-10.43171 3.89805,-8.23432 3.89805,-8.23432l31.17647,6.32353c0,0 -0.22414,2.97042 -1.04214,8.29554c8.35142,4.69367 26.41431,13.73202 26.63457,17.58657z" fill="#feebf7" stroke="#000000" stroke-width="3"/><path d="M244.14581,195.66616l0.48908,0.57059c0.04956,0.05712 0.09063,0.12181 0.12124,0.1921c0.48051,0.56261 0.94808,1.14971 1.406,1.76028c3.80461,6.10591 0.50747,10.87779 -6.36443,11.52312c-7.69837,0.69348 -11.37668,-1.99774 -16.27982,-6.90088c-2.568,-3.00725 -8.28186,-10.20638 -2.18145,-13.11515c0.72976,-0.34796 2.12768,-0.45535 2.90974,-0.62909c3.37773,-0.66175 7.62943,-0.61571 10.84162,0.79171c1.25669,0.55062 2.61073,1.28556 3.79383,2.06347c0.28251,0.17214 0.64848,0.26159 0.92089,0.44556zM237.17479,195.39331c-0.59511,1.9398 -0.89742,4.28028 -1.408,5.98731c-0.29151,0.87454 -1.48872,3.82425 -0.67649,4.57117c1.75336,1.61237 7.78585,-0.59098 8.40148,-2.70456c0,-3.78826 -3.06556,-6.09194 -6.31699,-7.85393zM234.0152,193.80018c-0.67689,-0.33322 -1.31671,-0.65509 -1.88838,-0.97581c-2.90819,-0.95474 -4.52059,-0.64909 -7.42245,0.27441c-0.59143,0.18822 -2.15984,0.34395 -2.27959,1.16198c-0.23171,1.58289 1.16113,3.51007 1.95151,4.77468c0.8847,1.4262 3.97164,5.27034 5.95845,5.06815c0.33108,-0.03369 0.82554,-1.11864 0.93997,-1.33404c0.86922,-1.63615 1.04417,-3.63992 1.57395,-5.40335c0.22609,-1.13048 0.55897,-2.18422 1.02595,-3.23786l0.1406,-0.32816z" fill="#ff0000" stroke="none" stroke-width="0.5"/></g><path d="M204.78746,188.16756c0,0 0.56737,-4.68011 1.95127,-6.02402c5.69789,-5.53324 7.38902,-3.12168 7.38902,-3.12168c0,0 -3.51153,27.34651 -5.39669,34.61118c-3.65394,0 -3.9436,-25.46549 -3.9436,-25.46549z" fill="#db93e6" stroke="none" stroke-width="0"/></g><g data-paper-data="{&quot;index&quot;:null}" stroke="none" stroke-width="0" stroke-linecap="butt"><path d="M188.94254,197.55646c-0.63026,-0.23698 -2.00625,-1.30667 -2.48439,-2.28031c-1.36756,-2.78478 3.88428,-7.65143 4.26027,-12.95508c0.39034,-5.50616 -2.78181,-11.67141 -1.68421,-14.1667c0.26757,-0.60828 2.76566,-1.82356 3.53347,-1.9933c8.2993,1.63467 20.64041,9.03421 20.64041,9.03421l-0.02017,5.62649c0,0 -11.75725,21.43025 -24.24537,16.73469z" fill="#feebf7"/><path d="M211.68091,184.03307c0,0 -3.08698,10.8657 -13.80085,14.20927c-4.47629,1.39695 -11.9981,-0.47587 -11.9981,-0.47587c-3.29019,-1.73708 -0.80198,-7.87581 1.7,-13.03367c0.75732,-1.56122 1.88169,-3.13453 1.38992,-6.72064c-0.58246,-4.24746 -3.3694,-11.23399 -3.3694,-11.23399c0,0 1.20349,-2.28394 2.44253,-0.91439c0.54429,0.60162 1.29152,4.20276 1.75052,5.13841c1.6518,3.36712 2.60674,9.51589 2.22145,11.03174c-0.57929,2.27912 -4.49397,11.8935 -4.49397,11.8935c0,0 -0.36185,1.02351 0.01793,1.60573c1.28247,1.9661 5.79274,1.90079 8.20861,1.29403c5.81933,-1.46157 9.08142,-4.89956 11.63984,-7.80041c2.41837,-2.74204 4.29153,-4.9937 4.29153,-4.9937z" fill="#000000"/></g><path d="M215.5102,167.87343c21.65368,4.28096 23.22349,10.8182 23.22349,10.8182l-1.81868,7.31559c0,0 -7.64408,-2.30456 -13.299,-3.89013c-8.19333,-2.2973 -32.66245,-8.92106 -32.66245,-8.92106c0,0 -1.46005,-1.50958 -1.27159,-2.75926c0.17851,-1.18363 4.25458,-5.13908 4.25458,-5.13908c0,0 2.87638,-1.12074 21.57365,2.57574z" data-paper-data="{&quot;index&quot;:null}" fill="#db93e6" stroke="none" stroke-width="0" stroke-linecap="butt"/><g data-paper-data="{&quot;index&quot;:null}" stroke-linecap="butt"><g data-paper-data="{&quot;index&quot;:null}"><path d="M281.78565,168.1429c-1.05527,6.97896 -14.89344,9.5 -44.64285,9.5c-14.53823,0 -33.14619,-5.99855 -42.15808,-11.04564c-5.91234,-3.31119 2.45137,-37.52137 8.24952,-41.02868c15.22807,-9.21151 46.4996,-14.88605 61.27915,-5.3847c9.05594,5.82181 6.34369,27.60188 6.34369,27.60188c0,0 -2.71105,5.20003 -3.94476,13.14191c4.12843,0.40882 15.68343,1.85774 14.87334,7.21522z" fill="#fddfbd" stroke="#000000" stroke-width="3"/><path d="M265.95522,155.38932c0,0 -22.33967,-10.24403 -26.03812,-9.78429c-0.59836,1.20783 -1.65728,15.33701 -2.14915,15.1186c-12.28729,-5.45608 -16.04614,-8.21132 -16.04614,-8.21132l-11.17647,19.01416c0,0 -6.13673,-6.56529 -8.83029,-9.82941c-0.03882,-2.23403 -2.0442,5.91886 -2.0442,5.91886l-4.26344,-2.23397c0,0 -0.70304,-1.42868 -0.67045,-2.70051c0.15454,-6.03031 2.10499,-23.27636 11.52722,-30.40668c10.97952,-8.30881 64.91295,-3.39535 64.91295,-3.39535c0,0 -0.86631,13.2285 -1.82726,18.10691c-1.40175,3.32621 -2.85983,8.80411 -2.85983,8.80411z" fill="#f89587" stroke="none" stroke-width="0"/></g><g><g><path d="M171.08519,154.44576c0,0 -7.43099,4.75926 -14.56117,7.55892c-4.9421,1.94051 -9.73968,2.3125 -11.81814,2.09625c-5.07715,-0.52826 -6.60554,-10.98617 -3.44828,-12.75862c1.8537,-1.04065 6.1521,-1.62687 9.86723,-1.93353c9.2663,-0.76488 20.30518,0.20938 20.30518,0.20938l-0.34482,4.82758z" fill="#0066cc" stroke="#000000" stroke-width="3"/><path d="M141.49472,158.78757c0,0 2.52285,0.10226 11.36508,-1.34127c7.50827,-1.22577 10.73499,-3.44015 12.84493,-4.63329c1.90652,-1.07811 2.58456,-1.68082 2.58456,-1.68082l0.66904,2.90883c0,0 -9.38653,6.13547 -16.28359,7.78305c-4.05444,0.96852 -8.29113,0.89206 -8.29113,0.89206c0,0 -1.54093,-1.08827 -1.93088,-1.69756c-0.41297,-0.64526 -0.95801,-2.23101 -0.95801,-2.23101z" fill="#0f1b82" stroke="none" stroke-width="0"/></g><g stroke="#000000"><path d="M275.72381,130.7438c0,0 -55.59779,9.80571 -64.9756,13.26616c-12.23621,4.51521 -23.82679,8.4139 -23.82679,8.4139c0,0 -12.54853,-3.83424 -16.94141,-16.04567c-1.34485,-3.73843 6.8365,-24.255 8.04816,-26.66003c3.66696,-7.27859 5.28912,-17.32499 16.38031,-22.20017c29.70961,-13.05899 69.25209,-6.5046 77.21692,-0.64229c7.00181,5.1535 2.5,23.14116 2.5,23.14116z" fill="#ff2d32" stroke-width="3"/><path d="M170.39649,134.10888c-0.75442,-7.63517 17.83772,-43.67546 21.63615,-43.70892c12.89027,-0.11355 19.67742,53.06451 19.67742,53.06451l-27.17742,8.46774c0,0 -13.39378,-10.31006 -14.13615,-17.82333z" fill="#ab164a" stroke-width="1.5"/></g></g><g><path d="M168.0422,140.55266c0.56671,-0.91191 10.27126,5.33916 15.43312,11.75691c2.96621,3.68788 2.13011,8.61077 2.08745,11.65521c-0.03269,2.33281 -4.12203,5.75753 -7.12583,6.32472c-4.82604,0.91127 -12.33452,-26.61543 -10.39474,-29.73685z" fill="#fddfbd" stroke="#000000" stroke-width="3"/><path d="M174.10945,162.11334c0,0 1.10362,0.31565 2.95748,-0.45307c2.3448,-0.97231 7.33124,-4.7447 7.33124,-4.7447c0,0 1.53877,3.76642 1.53877,4.88709c0,1.52986 -3.32527,4.80481 -6.03539,6.36411c-1.47697,0.84979 -2.55036,0.406 -2.72557,0.45972c-0.4791,0.1469 -3.06652,-6.51316 -3.06652,-6.51316z" fill="#f89587" stroke="none" stroke-width="0"/><path d="M175.71627,152.02431c0.01153,-0.59492 8.39995,3.4283 8.01119,4.71931c-0.50175,1.66626 -2.64364,9.37973 -4.84719,7.3832c-0.89995,-0.8154 -3.21852,-9.28655 -3.16399,-12.10251z" fill="#f89587" stroke="#000000" stroke-width="1.5"/></g><g><g data-paper-data="{&quot;index&quot;:null}"><path d="M210.25433,159.8845c-1.56627,2.06977 -5.8172,-6.19184 -6.42857,-5.71428c-0.40182,0.31388 -4.91577,3.36475 -8.52141,6.84403c-3.66492,3.53648 -6.49651,8.09043 -6.65717,7.79882c-0.0874,-0.15865 -3.7031,-14.51189 -2.5059,-15.72204c6.61014,-6.68163 33.7559,-11.42082 33.7559,-11.42082c0,0 -7.62991,15.55425 -9.64285,18.21428z" fill="#50a5eb" stroke="#000000" stroke-width="3"/><path d="M209.76314,148.62687l7.51276,-5.15306l-7.89541,15.63775z" fill="#66ffff" stroke="none" stroke-width="0"/></g><g data-paper-data="{&quot;index&quot;:null}"><path d="M295.96225,160.42264c0,0 -16.81812,-7.75692 -25.10115,-10.08903c-0.87377,-0.24602 2.14984,-2.80786 0.76182,-3.32338c-7.66386,-2.84643 -24.49543,-6.40922 -32.56299,-8.16935c-0.63434,-0.1384 -2.18965,-0.46038 -2.56524,-0.00409c-1.95985,2.381 0.10067,10.83101 -1.95082,10.85415c-2.21872,0.02503 -4.45732,-1.32124 -6.58066,-3.4087c-3.32099,-3.26486 -6.10178,-6.75485 -6.10178,-6.75485c0,0 7.0889,-10.2677 14.40866,-46.11987c3.15289,1.64235 9.88202,8.62211 11.54818,13.89111c1.51358,4.7865 0.48387,8.75069 1.14529,8.08137c6.56873,-6.6472 19.01612,-12.18113 23.77699,-12.87183c8.27813,-1.20098 30.72803,35.05494 30.72803,35.05494c0,0 -14.18464,-2.0086 -22.63621,-0.65669c6.14278,3.56568 14.58055,19.54688 15.12989,23.51622z" fill="#66ffff" stroke="#000000" stroke-width="3"/><path d="M262.57576,128.81311c0,0 8.26668,7.64505 12.42708,11.85773c4.90467,4.9663 15.93274,15.71209 15.93274,15.71209l-18.36064,-6.99094c0,0 2.20094,-1.65406 -0.19264,-3.55461c-1.57353,-1.24941 -4.9759,-1.76353 -10.03069,-3.04906c-3.83535,-0.97541 -20.65211,-4.76659 -25.5033,-5.65758c-0.80852,-0.1485 -1.47662,1.08407 -1.47662,1.08407c0,0 -1.16532,2.15925 -1.33275,3.51718c-0.24376,1.97693 0.01116,6.48706 0.01116,6.48706c0,0 -2.88268,-0.8578 -4.28458,-1.96694c-1.98073,-1.5671 -6.47549,-6.54615 -6.47549,-6.54615c0,0 1.49899,-3.10996 3.56312,-7.5039c3.82021,-8.13212 8.32625,-24.36933 10.09815,-36.69654c0.78749,1.54136 6.69587,29.20044 6.69587,29.20044c0,0 8.84182,-3.88165 16.69724,-6.90906c5.10974,-1.96924 10.3172,-3.68006 10.64023,-3.37357c7.48718,3.19427 20.51967,18.49693 20.51967,18.49693c0,0 -18.11861,-3.00561 -23.16749,-3.72242c-2.37056,-0.33656 -5.76108,-0.38473 -5.76108,-0.38473z" fill="#50a5eb" stroke="none" stroke-width="0"/></g></g></g><path d="M123,297v-234h234v234z" data-paper-data="{&quot;index&quot;:null}" fill="none" stroke="none" stroke-width="0" stroke-linecap="butt"/><path d="M268.30822,243.46953c-1.54583,-1.62174 -1.4284,-3.69166 -0.83051,-4.98095c0.4597,-0.9913 1.29926,-1.4253 1.29926,-1.4253l4.6875,3.20312c0,0 -3.40409,4.61095 -5.15625,3.20312z" data-paper-data="{&quot;index&quot;:null}" fill="#db93e6" stroke="none" stroke-width="0" stroke-linecap="butt"/><g data-paper-data="{&quot;index&quot;:null}" stroke-linecap="butt"><g><g><path d="M233.21133,247.19185c0,-5.57032 -0.61819,-16.54467 5.74821,-21.07676c1.5861,-1.12911 5.72111,-4.39754 9.30795,-0.937c0.40815,0.39378 -0.70351,1.43681 0.03469,2.89514c0.27249,0.53832 2.07379,0.59449 2.54056,1.2277c1.47451,2.00028 4.621,3.94489 5.29298,3.8648c2.13914,-5.3308 8.72202,-11.76512 10.90538,-12.25849c3.9235,-0.8866 18.80892,2.54184 18.65016,5.5468c0.48034,2.44477 -3.26281,6.47152 -3.26281,6.47152c0,0 15.66088,8.83698 21.52639,12.35397c10.09997,6.05598 10.29097,10.87785 10.29097,10.87785c0,0 0.61078,2.40915 -3.53088,3.62549c-8.11846,2.38426 -18.1886,3.07789 -30.0036,2.75382c-11.47937,-0.31486 -11.12385,-6.39191 -23.16989,-7.72916c-10.15694,-1.12755 -24.33011,1.63472 -24.33011,-7.61567z" fill="#ff2d32" stroke="#000000" stroke-width="3"/><path d="M295.57506,260.94849c0,0 -11.15141,1.20998 -16.76884,0.39128c-5.6682,-0.8261 -13.41066,-6.69712 -18.90847,-7.49418c-11.63503,-1.68681 -18.8781,0.33038 -21.87117,-1.71219c-0.19252,-0.13138 -4.7396,-1.85511 -4.14336,-7.49904c1.43332,-13.5677 7.36401,-15.63295 7.36401,-15.63295c0,0 6.85839,7.77292 14.89532,8.75183c1.574,0.19171 0.48514,-2.59423 0.48514,-2.59423c0,0 -0.22927,-1.33962 0.1438,-2.23173c0.55869,-1.336 2.88252,-5.00511 2.88252,-5.00511c0,0 0.7538,2.00639 2.87038,4.36397c2.55502,2.84593 7.44172,5.59459 12.50053,9.09155c5.62371,3.88745 15.05786,7.27923 17.31599,9.40502c2.45923,2.31509 3.23415,10.16577 3.23415,10.16577z" fill="#ab164a" stroke="none" stroke-width="0"/><path d="M240.38179,234.48749c-1.40582,0 -2.09091,-0.41236 -2.09091,-1.81818c0,-1.40581 0.86691,-1.90909 2.27273,-1.90909c1.40581,0 1.90909,0.41236 1.90909,1.81818c0,1.40581 -0.68509,1.90909 -2.09091,1.90909z" fill="#000000" stroke="none" stroke-width="0"/><path d="M253.65452,232.85112c0,0 1.15302,0.18182 5.09091,2.36364c3.20596,1.77629 5.27273,2.81818 5.27273,2.81818c0,0 -0.53893,1.19559 -5.72727,0.09091c-5.40058,-1.14986 -4.63637,-5.27272 -4.63637,-5.27272z" fill="#000000" stroke="none" stroke-width="0"/></g><g><path d="M265.52265,240.02888c0.82611,-3.46156 3.65928,-5.53372 5.46952,-6.01449c7.67085,-2.03725 13.69935,-1.05195 13.55769,0.57693c-0.25528,2.93517 -5.82,3.173 -9.38125,5.73131c-1.80139,1.29408 -2.34243,2.70116 -3.41519,3.78222c-1.02413,1.03206 -2.76777,2.28183 -4.6074,0.96724c-1.64161,-1.17308 -1.97157,-3.58422 -1.62337,-5.04321z" fill="#feebf7" stroke="#000000" stroke-width="2.5"/><path d="M268.12145,237.76963c0,0 0.84208,0.13195 2.33606,0.88289c1.95948,0.98492 2.63269,2.05461 2.63269,2.05461c0,0 -0.73113,0.80278 -1.43566,1.63622c-0.90736,1.07338 -1.24776,2.48878 -2.34559,2.48878c-1.95026,0 -3.03125,-1.70038 -3.03125,-3.875c0,-2.17462 1.84375,-3.1875 1.84375,-3.1875z" fill="#db93e6" stroke="none" stroke-width="0"/></g><g><path d="M274.94966,249.1308c-0.54826,-0.66969 0.65488,-4.95073 3.74974,-8.03212c7.35293,-7.32093 10.90641,-7.187 12.29277,-4.76984c1.25438,2.18705 -4.20064,5.12286 -8.02524,8.98737c-3.41393,3.44954 -6.92085,5.15385 -8.01727,3.81458z" fill="#feebf7" stroke="#000000" stroke-width="2.5"/><path d="M276.19847,248.77755c-0.74376,-0.25819 -0.19492,-3.4362 0.12184,-3.96079c0.84741,-1.40342 2.14434,-1.85743 2.14434,-1.85743l3.42949,1.70373c0,0 -0.93125,1.28302 -1.60733,1.84774c0,0 -2.88472,2.68458 -4.08834,2.26675z" fill="#db93e6" stroke="none" stroke-width="0"/></g><g><path d="M296.43032,239.23795c2.92548,2.30715 -2.77697,3.38954 -6.24837,7.58739c-3.06568,3.70723 -4.07173,8.02661 -7.40333,6.19242c-2.77391,-1.52716 9.33535,-17.18386 13.6517,-13.77981z" fill="#ffffff" stroke="#000000" stroke-width="2.5"/><path d="M283.01674,251.62392c0,-1.74315 3.30779,-4.65713 3.30779,-4.65713l0.98804,1.70296c0,0 -1.15513,3.00289 -2.38984,3.97871c-1.02737,0.81195 -1.90599,0.02052 -1.90599,-1.02455z" fill="#db93e6" stroke="none" stroke-width="0"/></g></g><g><path d="M264.03907,265.08156c-10.74446,-1.13491 -29.04587,-1.59303 -32.33111,-4.89641c-3.00534,-3.02193 -4.20441,-12.08654 0.24164,-12.72341c0.97474,6.04002 6.42167,6.54871 10.69051,6.65282c5.16653,0.12601 12.28277,0.00423 17.9317,1.10901c10.00401,1.95652 15.40332,7.41941 23.03653,7.41941c13.12177,0 22.01074,-1.54908 26.98465,-3.24272c2.70089,-0.91967 3.56499,-2.33689 4.88855,-2.52987c1.73253,-0.25261 3.61067,3.91774 3.61067,3.91774c0,0 0.01894,4.16616 -4.40102,6.94262c-4.62629,2.90607 -14.02312,4.42835 -29.14737,4.42835c-6.09198,0 -14.20739,-6.30674 -21.50475,-7.07754z" fill="#ffffff" stroke="#000000" stroke-width="3"/><path d="M231.67284,247.32037c0,0 -0.38155,1.63918 1.34465,3.79532c1.12449,1.40458 2.88833,3.09793 7.39413,4.17888c3.95604,0.94906 17.60686,0.14278 20.85701,1.03338c4.4966,1.23215 7.51839,3.05135 11.15463,4.65222c1.42164,0.62589 2.93721,1.51392 4.67156,1.8766c7.05837,1.476 9.77755,1.10286 12.73095,0.96282c4.39942,-0.20861 7.05074,-0.75045 7.05074,-0.75045c0,0 0.9676,1.78143 0.44149,3.74862c-0.52611,1.96719 -1.99515,3.27412 -1.99515,3.27412c0,0 -4.45561,2.53125 -12.69397,0.17262c-4.67243,-1.33771 -5.7333,-1.6643 -14.63008,-5.63354c-4.60403,-2.05406 -27.24473,-2.31631 -31.39808,-4.02551c-1.22577,-0.50443 -3.21171,-0.58795 -3.94064,-0.98499c-2.46728,-1.34388 -1.47634,-2.63194 -2.06128,-4.592c-1.09322,-3.66325 1.07405,-7.70807 1.07405,-7.70807z" fill="#db93e6" stroke="none" stroke-width="0"/></g></g><g data-paper-data="{&quot;index&quot;:null}" stroke-linecap="butt"><path d="M165.85554,246.92218c2.64477,-3.00431 10.52321,-7.6742 16.82677,-9.25307c-4.38045,-2.54844 -10.5701,-4.36119 -10.72119,-6.23216c-0.47397,-5.86922 1.13771,-6.26344 3.19003,-7.75556c1.70991,-1.24318 15.70767,6.59056 15.70767,6.59056c0,0 0.99199,-4.97604 5.44195,-6.06594c3.81764,-0.93504 12.00858,1.84424 17.24505,3.37733c3.4597,1.0129 7.14997,2.65331 8.49831,5.49834c0.84236,1.77739 -0.82923,6.01807 0.72204,4.80883c3.93607,-3.0682 13.4911,-3.0867 16.13211,-0.95084c2.3118,1.86962 3.48125,6.97852 2.57305,9.29688c-0.38372,0.97954 -12.01845,0.17924 -11.80397,1.20278c0.42525,2.02935 -3.03938,4.64914 -2.73363,6.31211c0.80826,4.39621 2.30417,6.8472 2.30417,6.8472c0,0 1.59722,6.42873 -1.87145,9.35893c-4.45741,3.76544 -15.36465,4.24401 -28.4962,4.24401c-23.35027,0 -43.18873,-15.72234 -33.0147,-27.27942z" fill="#ff2d32" stroke="#000000" stroke-width="2.5"/><path d="M224.98704,244.49162c0,0 1.51316,-2.39713 6.5625,-3.375c4.51815,-0.875 8.4375,-0.75 8.4375,-0.75c0,0 0.37918,1.88595 0.66248,2.80422c0.31706,1.02772 -0.32057,2.67863 -0.32057,2.67863c0,0 -3.70615,0.46822 -8.71696,0.1368c-1.73303,-0.11462 -2.51784,0.40587 -3.36446,0.40468c-1.14157,-0.00161 -2.30162,-0.5092 -2.86707,-1.0438c-0.41413,-0.39154 -0.39341,-0.85552 -0.39341,-0.85552z" fill="#ab164a" stroke="none" stroke-width="0"/><path d="M191.5491,232.40702c-0.22628,-3.1847 2.56632,-6.4027 4.7432,-7.01149c3.67432,-1.02757 13.4135,2.2836 13.4135,2.2836c0,0 0.44591,4.19484 0.67598,6.14083c0.26499,2.24132 0.35527,6.85917 0.35527,6.85917c0,0 -15.34268,0.38603 -18.81697,0.32135c-1.12836,-0.02101 -3.89355,0.82009 -3.89355,0.82009c0,0 -2.03197,-2.82431 -4.12536,-4.47974c-1.71399,-1.3554 -5.13819,-2.23261 -5.1483,-2.72304c-0.0043,-0.20842 -4.09946,-1.33544 -5.62422,-3.02815c-1.47696,-1.63964 -0.10524,-4.83177 0.74795,-4.74035c2.03331,0.21787 13.23545,7.32984 13.23545,7.32984c0,0 3.08582,-0.09205 4.43705,-1.77211z" fill="#ab164a" stroke="none" stroke-width="0"/><path d="M177.06741,234.23826c0,0 -1.96259,-1.30903 -2.8816,-2.44406c-0.8907,-1.10008 -0.74696,-2.02588 -0.2434,-2.10952c2.86069,-0.47516 4.66995,2.26637 5.37945,3.93806c0.255,0.60082 0.37948,1.82088 0.37948,1.82088c0,0 -1.26201,-1.20535 -2.63393,-1.20535z" fill="#000000" stroke="none" stroke-width="0"/><path d="M232.46919,243.65792c0.08928,-0.86966 0.82736,-0.75893 3.16964,-0.75893c2.96728,0 3.70536,0.24641 3.70536,2.45535c0,1.62521 -2.29617,0.52367 -4.18249,-0.07518c-1.58725,-0.5039 -2.83218,-0.26086 -2.69251,-1.62125z" fill="#000000" stroke="none" stroke-width="0"/><path d="M168.0928,253.7841c0.41035,1.39379 1.94289,4.05178 1.94289,4.05178c0,0 0.8741,-1.45998 1.76815,-2.61149c0.41095,-0.5293 0.33317,-1.19061 1.05509,-1.26362c4.81087,-0.48655 15.12922,2.25199 23.50312,3.15586c25.47743,2.75 29.375,12.9375 29.375,12.9375c0,0 -6.39757,4.5625 -30.125,3.3125c-7.34517,-0.38695 -15.69153,-1.61416 -21.78557,-4.67929c-5.86,-2.94741 -8.21622,-5.2804 -10.30166,-11.49954c-1.15427,-3.44225 1.00768,-7.16821 2.5526,-8.86382c0.6586,-0.72284 1.40963,-0.76985 1.40963,-0.76985c0,0 0.16829,4.74408 0.60575,6.22997z" fill="#ab164a" stroke="none" stroke-width="0"/><g><path d="M156.2569,252.48996c-0.06649,-0.54091 7.36193,-4.42034 7.36193,-4.42034c0,0 -2.02945,5.02166 0.22929,10.46884c2.59644,6.2616 10.56318,13.17005 28.85616,15.06992c10.15726,1.05492 29.1643,0.54081 35.40837,-4.89204c1.91234,-1.6639 3.11381,-4.88147 2.32863,-7.41815c-0.98738,-3.18995 -2.35631,-5.08282 -0.89023,-5.43345c2.28393,-0.54622 4.86375,5.57813 4.86375,8.99365c0,4.03946 -1.07829,7.26345 -3.98861,10.15298c-6.48759,6.44125 -19.33191,7.80755 -35.48507,7.80755c-14.39745,0 -38.03141,-14.17678 -38.58428,-15.71229c-0.17861,-0.49608 0.51231,-9.63595 -0.09993,-14.61665z" fill="#ffffff" stroke="#000000" stroke-width="2.5"/><path d="M157.83585,255.18733c0,0 6.43027,20.63434 31.97368,23.68421c39.67222,4.73684 42.89474,-9.07895 42.89474,-9.07895c0,0 -0.97925,3.42645 -6.44046,6.90981c-5.12151,3.26669 -14.11942,7.19446 -35.39506,4.64283c-10.35323,-1.24167 -19.07184,-5.60413 -24.72629,-9.08049c-5.39703,-3.3181 -8.76287,-5.81736 -8.76287,-5.81736l0.45627,-11.26004z" fill="#db93e6" stroke="none" stroke-width="0"/></g><g><g><path d="M183.8842,243.80852c-0.02614,-0.5318 5.80257,-5.02211 16.45373,-4.65839c17.226,0.58823 22.0876,11.03656 21.55178,12.30545c-1.07843,2.55385 -8.83558,-5.63573 -22.43413,-6.8122c-10.61771,-0.91859 -15.49801,0.65873 -15.57139,-0.83487z" fill="#ffffff" stroke="#000000" stroke-width="2"/><path d="M189.23585,243.23916l-1.26122,-1.37255c0,0 4.88794,-2.31743 7.61649,-2.28441c8.75905,0.10601 12.86042,1.89226 12.86042,1.89226l-2.45098,3.43137z" fill="#db93e6" stroke="none" stroke-width="0"/></g><g><path d="M178.53629,249.13064c-0.20504,-0.28314 -0.58154,-1.80734 2.94662,-2.87414c2.97823,-0.90052 9.3869,-1.39056 14.45534,-1.39056c11.07276,0 24.15277,7.1031 23.28431,10.93138c-0.49019,2.16085 -10.54487,-3.97059 -21.61764,-3.97059c-11.07277,0 -18.46115,-1.8572 -19.06863,-2.69608z" fill="#ffffff" stroke="#000000" stroke-width="2"/><path d="M201.07202,251.00254c0,0 -3.62932,-0.24947 -4.83843,-0.28906c-1.1929,-0.03906 -2.79201,0.2226 -2.79201,0.2226l-2.52576,-5.07146c0,0 5.12937,-0.33219 7.4043,0.01229c4.44348,0.67285 5.65319,1.10104 5.65319,1.10104l-2.9013,4.02459z" fill="#db93e6" stroke="none" stroke-width="0"/></g><path d="M174.71274,253.59144c0,-0.67973 0.29446,-2.88866 3.35993,-3.06372c3.77895,-0.21581 10.80861,1.10294 17.66949,1.10294c6.74783,0 13.67793,1.91675 17.61696,3.98355c3.31486,1.7393 4.19677,3.52765 4.19677,4.93802c0,3.08629 -11.83831,-4.70588 -24.26471,-4.70588c-12.42641,0 -18.57843,-0.05096 -18.57843,-2.25491z" fill="#ffffff" stroke="#000000" stroke-width="2"/></g></g><g data-paper-data="{&quot;index&quot;:null}" stroke="none" stroke-width="0" stroke-linecap="butt"><path d="M180.94286,222.78112c0,-4.94467 2.52216,-7.81014 5.58022,-7.79752c1.71079,0.00706 2.71053,2.75229 5.6575,2.09021c3.58691,-0.80586 6.44077,-5.88542 9.57623,-6.09502c3.47882,-0.23256 8.48837,7.15116 8.48837,7.15116c0,0 -1.25578,7.24368 -3.29961,13.1826c-2.14956,6.24612 -5.27473,11.0808 -8.09574,10.82903c-3.02182,-0.2697 -17.90698,-8.28267 -17.90698,-19.36047z" fill="#0066cc"/><path d="M208.23828,226.13957c0,0 -1.35681,3.64847 -1.91893,5.62382c-1.23695,4.34678 -4.19855,10.30553 -7.81836,10.14563c-2.09459,-0.09252 -5.9671,-2.74267 -10.28318,-7.114c-2.90508,-2.94227 -6.77886,-6.68702 -7.55108,-10.87079c-0.19788,-1.07207 1.67147,-2.52083 1.67147,-3.64312c8.3721,7.99101 12.67433,14.83164 14.06977,14.53488z" fill="#0f1b82"/><path d="M211.40795,219.46716c0,0 -6.82139,-7.51955 -8.95348,-8.02326c-0.44284,-0.10462 -6.9719,5.1264 -9.95578,6.36853c-0.52399,0.21812 -2.02085,0.28816 -3.24064,-0.26406c-1.04531,-0.47323 -1.76359,-1.49611 -2.88386,-2.23027c-0.79095,0.3369 -5.34731,7.79713 -5.34731,7.79713c0,0 10.15371,17.7934 17.02382,18.25463c1.76779,0.11868 4.46653,-2.01639 6.08241,-5.30912c1.23072,-2.50789 2.29266,-5.90987 3.26173,-8.23257c0.88496,-2.12109 1.73348,-3.28062 1.73348,-3.28062c0,0 -0.71678,4.27362 -1.94516,8.77795c-1.35658,4.97446 -5.21394,10.80438 -9.56844,9.88657c-1.01643,-0.21424 -4.79498,-1.84776 -7.41557,-4.39167c-5.60244,-5.43852 -11.30969,-14.20756 -11.38218,-16.32489c-0.03737,-1.09156 1.92615,-3.43381 2.78561,-4.67325c1.1573,-1.66896 2.46483,-3.8608 5.17912,-4.46287c1.44058,-0.31954 3.3672,2.48002 4.80539,2.07894c4.54026,-1.2662 8.96448,-7.13396 11.56507,-6.78512c2.60059,0.34883 8.25581,10.81395 8.25581,10.81395z" fill="#000000"/></g><g data-paper-data="{&quot;index&quot;:null}" stroke-linecap="butt"><path d="M181.4133,204.30304c0.65978,-1.49711 -19.08658,-28.53967 -17.27524,-30.62391c2.097,-2.41293 8.35466,-8.16915 11.21088,-8.62026c4.22524,-0.66735 5.41755,5.43741 8.38788,10.96956c6.08213,11.32782 10.80374,20.408 10.45819,18.67057c-2.46035,-12.37071 -7.49784,-28.90505 -4.2847,-29.69656c5.7089,-1.4063 13.81359,-0.99169 16.89703,3.5733c2.99834,4.439 2.16546,22.66177 2.16546,30.69753c0,6.14578 12.85725,10.93096 12.67617,16.86326c-0.12734,4.17152 0.62862,5.88292 -2.02337,8.16972c-2.96247,2.55453 -8.33143,0.41361 -11.53339,2.2942c-2.16165,1.2696 -1.15492,6.527 -9.43191,6.527c-1.80613,0 -6.00911,-2.17866 -6.00911,-2.17866c0,0 -7.73425,6.07084 -15.0643,3.1092c-2.8094,-1.13511 -2.81198,-3.17561 -5.16736,-5.43292c-0.44289,-0.42446 -2.59257,-3.16732 -3.3586,-5.8501c-0.47478,-1.66277 0.35177,-3.68737 0.12025,-3.95989c-2.7522,-3.23951 -4.5908,-6.00345 -3.75047,-9.69351c0.48695,-2.13828 4.56766,-5.94509 8.03042,-8.02713c1.50065,-0.90228 3.26867,-1.78522 4.09333,-1.96564c0.38445,-0.0841 3.83638,5.22519 3.85883,5.17425z" fill="#fddfbd" stroke="none" stroke-width="0"/><path d="M206.19207,214.60516c0,0 -5.59194,-4.41071 -12.74733,-0.06911c-12.00989,7.28712 -2.08887,16.44985 -2.08887,16.44985c0,0 -3.31425,1.35929 -6.48045,2.19676c-2.95464,0.78151 -9.52996,-0.32388 -10.79243,-1.64982c-1.86048,-1.954 -3.69183,-6.73388 -3.56902,-10.40712c0.0269,-0.8045 -2.36761,-5.14398 -3.62747,-8.49417c-0.60009,-1.59575 -0.32975,-4.52994 -0.32975,-4.52994c0,0 4.12824,8.17372 8.95898,9.34203c1.80419,0.43635 5.93983,-4.1673 5.93983,-4.1673l-1.77775,-4.21314l-3.6643,-7.58303l1.0479,-0.88625c0,0 6.46263,6.45993 11.16173,7.65745c3.72082,0.94822 5.60287,-1.90514 5.60287,-1.90514c0,0 3.23119,1.61493 3.77566,1.90975c2.02761,1.09791 9.13039,0.09006 10.75201,0.49463c1.20043,0.2251 3.78132,4.23544 3.05356,5.4719c-0.33564,0.57024 -5.21515,0.38265 -5.21515,0.38265z" fill="#f89587" stroke="none" stroke-width="0"/><path d="M186.8087,219.88412c0.07092,0.78081 -3.38836,6.11607 -9.33035,6.11607c-5.94199,0 -9.24107,-10.9375 -9.24107,-10.9375c0,0 4.23186,6.39733 8.881,8.09513c1.46908,0.53649 6.75512,-0.91452 7.52203,-2.84271c0.95072,-1.95724 -0.52872,-4.09837 -2.55036,-6.95096c-1.09816,-1.54954 -2.43543,-3.25774 -3.06309,-5.47431c0.00258,0.13143 7.26459,6.29876 7.78184,11.99427z" fill="#000000" stroke="none" stroke-width="0"/><path d="M217.60629,225.20596c-3.7543,1.9201 -6.76586,-0.5749 -8.65603,0.65384c-4.08989,2.6587 -2.38472,6.30237 -10.25443,5.97393c-4.00802,-0.16727 -9.19436,-2.04155 -9.35,-8.75c-0.1,-4.31026 2.65,-5.05 2.65,-5.05c0,0 2.62666,6.56173 5.79208,6.92002c3.285,0.37182 7.45794,-5.56005 10.0088,-5.60376c3.51749,-0.06028 4.81376,1.47626 6.79098,1.3749c3.86547,-0.19816 6.35814,-2.04116 6.35814,-2.04116c0,0 0.30331,4.65914 -3.33954,6.52223z" fill="#f89587" stroke="none" stroke-width="0"/><path d="M181.4133,204.30304c0.65978,-1.49711 -19.08658,-28.53967 -17.27524,-30.62391c2.097,-2.41293 8.35466,-8.16915 11.21088,-8.62026c4.22524,-0.66735 5.41755,5.43741 8.38788,10.96956c6.08213,11.32782 10.80374,20.408 10.45819,18.67057c-2.46035,-12.37071 -7.49784,-28.90505 -4.2847,-29.69656c5.7089,-1.4063 13.81359,-0.99169 16.89703,3.5733c2.99834,4.439 2.16546,22.66177 2.16546,30.69753c0,6.14578 12.85725,10.93096 12.67617,16.86326c-0.12734,4.17152 0.62862,5.88292 -2.02337,8.16972c-2.96247,2.55453 -8.33143,0.41361 -11.53339,2.2942c-2.16165,1.2696 -1.15492,6.527 -9.43191,6.527c-1.80613,0 -6.00911,-2.17866 -6.00911,-2.17866c0,0 -7.73425,6.07084 -15.0643,3.1092c-2.8094,-1.13511 -2.81198,-3.17561 -5.16736,-5.43292c-0.44289,-0.42446 -2.59257,-3.16732 -3.3586,-5.8501c-0.47478,-1.66277 0.35177,-3.68737 0.12025,-3.95989c-2.7522,-3.23951 -4.5908,-6.00345 -3.75047,-9.69351c0.48695,-2.13828 4.56766,-5.94509 8.03042,-8.02713c1.50065,-0.90228 3.26867,-1.78522 4.09333,-1.96564c0.38445,-0.0841 3.83638,5.22519 3.85883,5.17425z" fill="none" stroke="#000000" stroke-width="3"/><path d="M191.17941,231.06049c0,0 -4.09091,-3.75633 -4.09091,-9.0909c0,-3.34838 4.75405,-9.96329 10.76404,-10.29087c2.69578,-0.14694 7.70627,1.25173 8.4965,2.83135c-3.64234,-0.84807 -6.41882,-1.40488 -7.40495,-1.18993c-4.09403,0.89236 -6.84917,3.27133 -9.55999,9.34834c-0.49265,1.10441 4.18167,7.25566 4.18167,7.25566z" fill="#000000" stroke="none" stroke-width="0"/></g><g data-paper-data="{&quot;index&quot;:null}"><path d="M219.12691,158.8757c-1.73271,-0.35258 -2.42812,-3.77169 -2.38526,-7.54972c0.06642,-5.85516 1.61996,-13.47069 1.61996,-13.47069l7.60204,7.44898c0,0 -1.12773,6.24656 -2.66925,9.89682c-1.01733,2.40899 -2.55228,4.00328 -4.16748,3.67462z" fill="#000000" stroke="none" stroke-width="0" stroke-linecap="butt"/><path d="M235.91264,149.43692c0,0 1.60643,-3.98068 4.04605,-7.12307c3.87733,-4.99427 5.08659,-3.74428 5.08659,-3.74428c0,0 0.66327,3.11544 -0.45918,11.47959c-0.66511,4.95618 -2.81024,11.39101 -6.58163,11.27551c-3.46425,-0.10608 -2.09184,-11.88775 -2.09184,-11.88775z" fill="#000000" stroke="none" stroke-width="0" stroke-linecap="butt"/><path d="M233.52705,153.5107c0,0 -1.59152,-0.99657 -4.21878,-3.64133c-4.72996,-4.76145 -12.62193,-13.60162 -18.99923,-20.0838c-4.7315,-4.80931 -8.58337,-7.95369 -9.93309,-9.10383c0.00673,-0.01218 -2.5991,-0.02682 -3.57134,0.66707c-2.335,1.6665 -3.16502,4.57898 -5.13921,4.24703c-2.64444,-0.44466 -0.34655,-4.15244 2.75199,-6.25997c1.47778,-1.00514 3.02425,-1.92031 4.90775,-1.45681c7.91335,1.94738 26.01253,24.74164 26.01253,24.74164c6.08354,5.92574 8.29941,7.62721 8.40989,7.48426c3.29126,-4.25871 8.58451,-14.44297 16.13377,-19.55201c3.26881,-2.2122 6.85501,-3.2104 10.5774,-2.99322c5.70106,0.33263 9.93055,10.48611 9.93055,10.48611c0,0 -7.99179,-9.59193 -12.76003,-7.66212c-14.65037,5.92933 -24.10221,23.12698 -24.10221,23.12698z" fill="#000000" stroke="none" stroke-width="0" stroke-linecap="butt"/><path d="M227.64732,167.34509c0,0 -7.33574,12.91934 -12.25811,11.78651c-4.89166,-1.12577 -2.43576,-21.17426 -2.43576,-21.17426" fill="#ff6666" stroke="#000000" stroke-width="1.9" stroke-linecap="round"/><path d="M214.48404,157.03895c0,0 6.301,7.26533 19.13266,9.69388c7.80647,1.47747 17.29592,-0.61224 17.29592,-0.61224c0,0 -2.23862,3.49434 -12.5,3.46938c-4.67659,-0.01137 -12.0548,-2.30886 -15.31757,-3.85881c-5.05399,-2.40085 -12.18201,-7.10885 -11.46781,-8.95069c0.74531,-1.92205 2.85681,0.25849 2.85681,0.25849z" fill="#000000" stroke="none" stroke-width="0" stroke-linecap="butt"/></g></g></g></svg>