<svg version="1.1" xmlns="http://www.w3.org/2000/svg" xmlns:xlink="http://www.w3.org/1999/xlink" width="189.26654" height="221.55319" viewBox="0,0,189.26654,221.55319"><g transform="translate(-205.36673,-69.22341)"><g data-paper-data="{&quot;isPaintingLayer&quot;:true}" fill-rule="nonzero" stroke-linejoin="miter" stroke-miterlimit="10" stroke-dasharray="" stroke-dashoffset="0" style="mix-blend-mode: normal"><path d="M205.36673,290.77659v-221.55318h189.26654v221.55319z" fill="none" stroke="none" stroke-width="NaN" stroke-linecap="butt"/><g fill="#000000" stroke="#000000" stroke-linecap="round"><path d="M291.42645,176.31836c0,0 -26.30074,8.1988 -27.55018,-10.4324c-0.46034,-6.86435 14.99668,-6.39847 14.99668,-6.39847z" data-paper-data="{&quot;origPos&quot;:null}" stroke-width="2"/><path d="M283.03782,164.79385c0,0 -15.18179,-0.80251 -15.02552,-1.45384c0.49551,-2.06514 11.67464,-2.34467 11.67464,-2.34467z" data-paper-data="{&quot;origPos&quot;:null}" stroke-width="1"/></g><g fill="#000000" stroke="#000000"><g><path d="M310.32274,166.69986c-1.10995,-3.11184 12.22555,-0.91595 14.36409,-1.40098c2.32427,-0.52718 -5.77305,19.32271 -5.77305,19.32271l-1.41588,3.34356l8.99854,-22.30653c0,0 2.75331,-7.87565 4.61081,-6.6886c0,0 10.53714,0.76468 24.0203,13.65969c-1.14042,5.19341 -7.60586,15.43362 -7.60586,15.43362c0,0 -13.395,23.46635 -17.86593,23.52493c-1.03531,0.01356 -13.14063,-2.95707 -15.29664,-6.57285c-7.15461,-11.99881 -4.03637,-38.31554 -4.03637,-38.31554z" stroke-width="2.5" stroke-linecap="round"/><path d="M320.16458,183.29938c-0.22046,0.46778 -0.44719,0.93298 -0.67302,1.40013c-0.04984,0.1031 -0.71761,1.20911 -0.82378,1.82436c5.72832,3.46196 11.88291,5.90881 17.46994,9.71796c0.5136,0.29924 1.655,0.81259 2.68735,1.46474c0.34915,0.09847 0.63562,0.12975 0.77713,0.03368c1.20342,-0.81675 2.00811,-2.58189 3.05641,-3.64631c-0.35729,-0.07314 -1.3879,-0.30067 -1.79074,-0.47974c-1.19634,-0.53178 -2.38022,-1.05343 -3.59012,-1.54483c-4.24119,-1.72253 -8.65712,-4.11183 -12.66161,-6.35991c-1.50563,-0.62578 -3.05303,-1.43631 -4.45157,-2.4101zM320.7949,181.89565c1.3713,0.97428 2.91662,1.77371 4.39991,2.39021c4.51837,2.56549 9.40062,4.89919 14.16773,6.93759c1.96422,0.83988 5.22723,1.29724 4.41551,3.83292c-1.10322,1.14745 -2.05444,3.05485 -3.37236,3.95682c0.29343,0.3648 0.46983,0.74949 0.45708,1.14668c-0.01795,0.55911 -1.52272,2.0963 -1.86814,2.58319c-2.06082,2.90489 -4.04319,6.81319 -7.70159,7.28081c-5.45301,2.46102 -13.59998,-0.74155 -17.93965,-4.54586c-2.11601,-3.95317 -2.31366,-7.50572 -2.42911,-11.97915c-0.08336,-3.22995 -0.70382,-6.25409 -0.44207,-9.53452c-0.20789,-4.61251 -0.28582,-9.21882 -0.48803,-13.83003c-0.09281,-2.11637 -0.84321,-4.12089 1.01795,-5.32961c3.41326,0.04035 6.86379,0.08288 10.28982,0.20988c1.06796,0.0396 3.23366,0.19868 4.02939,1.11385c1.10583,1.27181 0.17241,2.93027 -0.42438,4.20165c-0.95405,2.98191 -2.1433,6.19309 -3.53029,9.25516c0.15223,0.30263 0.03897,0.65434 0.03897,0.65434c-0.18272,0.56552 -0.39311,1.11533 -0.6207,1.65606zM336.85051,198.46794c-3.64807,-1.36802 -6.72301,-3.83604 -10.28331,-5.30135c-2.11395,-0.81738 -5.98315,-1.93483 -8.04788,-4.00886c-0.13953,-0.05251 -0.23236,-0.13163 -0.23236,-0.13163l-0.57373,-0.49321c-0.63148,-0.3667 -1.1511,-0.96422 -1.57339,-1.59606c1.52746,-5.99528 5.52993,-11.26078 7.46144,-17.22431c0.30023,-0.63794 0.7809,-1.51691 0.89575,-2.21899c0.07063,-0.43181 -2.29127,-0.86441 -2.57891,-0.90057c-3.50207,-0.44004 -7.0788,0.01984 -10.59203,-0.26824c-0.35819,0.05906 0.06097,3.09538 0.08868,3.73778c0.20042,4.64507 0.29378,9.28473 0.48928,13.93229c-0.25723,3.26331 0.35225,6.25194 0.44191,9.46611c0.11413,4.09097 0.22253,7.35202 2.08065,10.99462c4.10151,3.35013 11.46801,6.3342 16.50424,4.06129c3.56538,-0.51629 6.49658,-5.55753 8.51118,-8.42443c0.02136,-0.0304 -1.38121,-0.89756 -2.53553,-1.60296c-0.01894,-0.00742 -0.0376,-0.01459 -0.05597,-0.02149z" stroke-width="0.5" stroke-linecap="butt"/><path d="M324.5786,185.67777c4.00449,2.24809 8.50464,4.67829 12.74582,6.40083c1.20991,0.4914 2.39307,1.01663 3.5894,1.54842c0.40284,0.17907 1.43347,0.40652 1.79075,0.47967c-1.04831,1.06441 -1.86026,2.84682 -3.06368,3.66359c-0.14153,0.09604 -0.42915,0.06648 -0.7783,-0.03199c-1.03235,-0.65216 -2.17612,-1.16241 -2.68971,-1.46164c-5.58702,-3.80915 -11.82192,-6.30678 -17.55023,-9.76874c0.10617,-0.61525 0.7766,-1.72844 0.82644,-1.83152c0.22583,-0.46714 0.45531,-0.93759 0.67577,-1.40538c1.39854,0.97379 2.94809,1.78099 4.45372,2.40677z" data-paper-data="{&quot;noHover&quot;:false,&quot;origItem&quot;:[&quot;Path&quot;,{&quot;applyMatrix&quot;:true,&quot;segments&quot;:[[[926.17844,407.1979],[3.2606,1.25965],[-0.27949,0.97418]],[[925.31465,410.11917],[0.29084,-0.97519],[-0.06418,0.21521]],[[924.29914,413.90358],[-0.01258,-1.20526],[13.15638,4.16543]],[[964.1057,425.02121],[-12.99513,-4.87922],[1.17537,0.35239]],[[970.21765,426.67451],[-2.3817,-0.804],[0.75941,0.04146]],[[971.83798,426.41666],[-0.25651,0.23985],[2.18115,-2.03947]],[[976.78433,418.26967],[-1.76682,2.44279],[-0.76669,0.00973]],[[972.89889,418.10481],[0.90089,0.17138],[-2.67549,-0.50896]],[[964.88923,416.67374],[2.68829,0.42712],[-9.42353,-1.49721]],[[936.29671,409.90591],[9.13228,2.58714],[-3.35077,-0.55846]]],&quot;closed&quot;:true}]}" stroke-width="0.5" stroke-linecap="butt"/><path d="M335.39084,197.56025c0.19008,0.11083 4.1248,2.51245 4.08947,2.56272c-2.01459,2.8669 -4.96853,7.9266 -8.5339,8.44289c-5.03623,2.27291 -12.44476,-0.7171 -16.54627,-4.06724c-1.85812,-3.64259 -1.98405,-6.92735 -2.09818,-11.01832c-0.08967,-3.21416 -0.70057,-6.23714 -0.44335,-9.50043c-0.1955,-4.64755 -0.27286,-9.31305 -0.47328,-13.95811c-0.02772,-0.6424 -0.44357,-3.68135 -0.08538,-3.7404c3.51323,0.28809 7.11001,-0.17995 10.61208,0.26009c0.28764,0.03615 2.65574,0.46832 2.5851,0.90013c-0.11485,0.7021 -0.59324,1.68489 -0.89346,2.32284c-1.9315,5.96353 -5.88936,11.18383 -7.41682,17.17911c0.42229,0.63182 0.94223,1.21975 1.57371,1.58645l0.57338,0.4892c0,0 0.46733,0.49232 0.90384,-0.1228c0.04371,-0.06158 0.17151,-0.13432 0.19677,-0.19281c5.31684,3.03188 10.82913,5.36727 15.95629,8.85668z" data-paper-data="{&quot;noHover&quot;:false,&quot;origItem&quot;:[&quot;Path&quot;,{&quot;applyMatrix&quot;:true,&quot;segments&quot;:[[[926.61254,417.73069],[12.14285,3.5238],[-0.03018,0.12086]],[[926.46822,418.11346],[0.06716,-0.13431],[-0.67082,1.34164]],[924.45576,418.78428],[[923.08279,418.0906],[0,0],[-1.44471,-0.43097]],[[919.22563,415.72869],[1.11205,1.01797],[0.89694,-11.9485]],[[928.15956,380.1298],[-1.74473,12.05571],[0.38029,-1.32836]],[[929.175,375.57071],[0.02742,1.37277],[-0.01686,-0.84429]],[[923.5003,374.93752],[0.60865,-0.05075],[-7.41054,0.61792]],[[901.48814,378.8123],[7.37628,-0.90935],[-0.71866,0.25961]],[[903.08234,385.83106],[-0.2998,-1.20115],[2.16779,8.68513]],[[909.35292,411.92731],[-2.15853,-8.69186],[0.69956,6.26621]],[[913.83986,429.61277],[-1.39861,-6.02998],[1.78014,7.67491]],[[922.29365,449.50563],[-5.21858,-6.1072],[9.74892,4.62723]],[[957.96755,450.34516],[-9.56021,6.37347],[7.18055,-2.44927]],[[972.39433,430.92276],[-3.08539,6.24485],[0.05411,-0.10951]],[[963.14745,427.86406],[0.43501,0.13058],[-11.92317,-4.46591]]],&quot;closed&quot;:true}]}" stroke-width="0.5" stroke-linecap="butt"/></g><g data-paper-data="{&quot;index&quot;:null}" stroke-width="2" stroke-linecap="round"><path d="M307.44451,175.01492c0.20885,-2.07524 3.20293,-1.76289 3.20293,-1.76289l0.01673,1.94452c0,0 3.93217,2.56014 9.50159,4.99574c-0.35249,1.31094 -0.56654,2.29393 -0.63446,3.12607c-6.53964,-2.64331 -12.31459,-6.03992 -12.08679,-8.30345z"/><path d="M307.63751,188.90989c-0.12168,-2.91303 3.12436,-3.55036 3.12436,-3.55036l0.05071,1.42952c0,0 3.52466,-1.00009 8.72332,-3.52507c-0.09632,1.08783 0.05286,1.91547 0.46435,2.86932c-6.42852,3.09174 -12.2746,4.88706 -12.36275,2.77658z" data-paper-data="{&quot;index&quot;:null}"/></g></g><g data-paper-data="{&quot;origRot&quot;:0}" fill="#000000" stroke="#000000" stroke-linecap="round"><path d="M303.32765,224.33625c0,0 -1.1255,-4.83291 0.30235,-5.18276c4.21335,-1.0323 7.92634,-3.74576 12.20141,-3.08525c1.77523,0.27427 3.34359,4.38529 3.34359,4.38529l11.15603,32.15231c0,0 1.19143,3.3035 1.81493,5.22801c0.66663,2.05763 0.38578,5.48246 -1.53103,6.07825c-7.03788,2.18758 -11.05436,4.97135 -15.75568,5.10614c-1.71278,0.0491 -3.53342,-0.02201 -4.55602,-1.52858c-1.3358,-1.96796 -1.67863,-6.60921 -1.67863,-6.60921z" data-paper-data="{&quot;origPos&quot;:null}" stroke-width="3"/><path d="M332.93342,261.20852c0,0 -4.85473,4.14563 -9.53262,5.43172c-3.58903,0.98673 -11.59885,2.09207 -11.59885,2.09207c0,0 -1.84551,-2.28572 -2.29654,-3.8758c-0.47515,-1.67504 -0.0767,-4.49069 -0.0767,-4.49069l21.25137,-6.69676z" data-paper-data="{&quot;origPos&quot;:null}" stroke-width="2"/><path d="M303.47649,224.639c0,0 -1.1255,-4.83291 0.30234,-5.18275c4.21334,-1.03229 7.92634,-3.74577 12.20142,-3.08522c1.77523,0.27427 3.34358,4.38529 3.34358,4.38529l11.15602,32.15231c0,0 1.19146,3.3035 1.81496,5.228c0.66663,2.05763 0.38578,5.48245 -1.53103,6.07825c-7.03788,2.18758 -11.05436,4.97136 -15.75568,5.10615c-1.71278,0.0491 -3.53342,-0.02204 -4.556,-1.52859c-1.3358,-1.96796 -1.67864,-6.6092 -1.67864,-6.6092z" data-paper-data="{&quot;origPos&quot;:null}" stroke-width="3"/></g><path d="M297.69342,261.80529c0,0 -0.10356,4.65504 -1.33598,6.7024c-0.94347,1.56734 -2.75757,1.75084 -4.47013,1.80764c-4.70078,0.1559 -8.85405,-2.37532 -15.99328,-4.12461c-1.9444,-0.47643 -2.40099,-3.87847 -1.84128,-5.97398c0.52351,-1.95996 1.54311,-5.3318 1.54311,-5.3318l9.48432,-32.79042c0,0 1.35437,-4.20137 3.11266,-4.58488c4.23429,-0.92359 8.08096,1.55615 12.3407,2.32651c1.44356,0.26106 0.56847,5.15581 0.56847,5.15581c0,0 -0.86188,9.30855 -1.41354,15.26651c-0.77859,8.40894 -1.99506,21.54685 -1.99506,21.54685z" fill="#000000" stroke="#000000" stroke-width="3" stroke-linecap="round"/><g fill="#000000" stroke="#000000"><g><path d="M280.24401,181.09184c0,0 0.87215,-15.07602 2.87587,-15.80193c6.01113,-2.1777 20.0669,-2.29762 29.41978,-3.02238c1.44586,-0.11204 3.59942,13.8171 3.59942,13.8171l3.73212,31.61232c0,0 1.23033,15.48448 -0.34696,15.6067c-14.04077,1.08803 -30.44047,3.24692 -36.75498,2.86035c-2.10482,-0.12885 -2.37548,-16.52074 -2.37548,-16.52074z" data-paper-data="{&quot;origPos&quot;:null}" stroke-width="3.5" stroke-linecap="round"/><path d="M298.61382,188.20801c-1.22153,0.09465 -1.38788,-2.48337 -1.38788,-2.48337c-0.345,-5.34701 -0.80089,-12.41269 -1.14589,-17.75971c0,0 -0.16634,-2.57802 1.05519,-2.67268c1.22153,-0.09465 1.38788,2.48336 1.38788,2.48336c0.345,5.34701 0.69,10.69401 1.035,16.04103l0.11089,1.71868c0,0 0.16634,2.57803 -1.05519,2.67269z" stroke-width="0.5" stroke-linecap="butt"/><path d="M310.38573,193.89243c-1.22153,0.09465 -1.4305,-3.14406 -1.4305,-3.14406c-0.43342,-6.71735 -1.00615,-15.59385 -1.43956,-22.31119c0,0 -0.20897,-3.23872 1.01257,-3.33338c1.22153,-0.09465 1.4305,3.14406 1.4305,3.14406c0.43342,6.71735 0.86683,13.43471 1.30026,20.15206l0.13932,2.15914c0,0 0.20897,3.23873 -1.01257,3.33339z" stroke-width="0.5" stroke-linecap="butt"/></g><g stroke-width="3"><path d="M310.81911,167.64467c-0.87341,-1.34687 -0.09114,-2.67776 0.98395,-4.02974c1.07511,-1.35195 2.21099,-1.82737 2.90934,-0.86619c1.48067,2.03801 0.13744,3.15816 -0.70439,4.21679c-1.07511,1.35197 -1.95542,2.58128 -3.1889,0.67915z" stroke-linecap="butt"/><path d="M309.42957,169.76123l2.28086,-2.80092" stroke-linecap="round"/><path d="M306.11773,170.67337c1.07511,-1.35195 2.211,-1.82737 2.90934,-0.86619c1.48067,2.03801 0.13744,3.15816 -0.70439,4.21679c-1.07509,1.35196 -1.95541,2.58127 -3.1889,0.67914c-0.87341,-1.34687 -0.09116,-2.67777 0.98394,-4.02975z" stroke-linecap="butt"/><path d="M303.74424,176.81967l2.28084,-2.80094" stroke-linecap="round"/><path d="M298.397,176.76296c0.26956,-1.72395 1.5453,-1.66175 3.01327,-1.29761c1.46797,0.36415 2.44908,1.30547 2.30273,2.61628c-0.3103,2.77929 -1.80415,1.99199 -2.9536,1.70686c-1.46796,-0.36414 -2.74308,-0.59087 -2.36238,-3.02552z" stroke-linecap="butt"/><path d="M299.35301,177.31979l-3.07408,-0.81187" stroke-linecap="round"/><path d="M291.29562,172.75558c0.75646,-1.43008 1.92011,-0.70042 3.1731,0.40602c1.253,1.10644 1.88531,2.48249 1.36446,3.60078c-1.10437,2.37109 -2.25697,0.86504 -3.23813,-0.00132c-1.253,-1.10645 -2.36773,-1.98585 -1.29944,-4.00547z" stroke-linecap="butt"/><path d="M292.01769,173.76769l-2.60943,-2.36197" stroke-linecap="round"/><path d="M284.73553,166.8847c0.75646,-1.43006 1.9201,-0.70042 3.1731,0.40602c1.25301,1.10644 1.88531,2.48249 1.36446,3.60078c-1.10437,2.37107 -2.25697,0.86504 -3.23813,-0.00132c-1.253,-1.10644 -2.36771,-1.98584 -1.29942,-4.00547z" stroke-linecap="butt"/><path d="M285.45761,167.89679l-2.60944,-2.36197" stroke-linecap="round"/></g></g><path d="M305.68291,150.38069c0,0 -2.57951,0.46746 -5.75362,0.44585" fill="#000000" stroke="#000000" stroke-width="2.5" stroke-linecap="round"/><path d="M313.608,162.91852c-11.29051,2.14726 -22.24505,4.19256 -26.88094,3.96437c-4.23689,-0.20854 -5.8928,-2.81872 -5.8928,-2.81872c0,0 -2.01521,-2.20222 -2.32961,-3.7594c-0.9432,-4.67154 -3.0634,-18.13546 -3.90913,-29.91948c-0.02823,-0.3933 -0.03109,-0.61545 -0.03788,-1.00989c-0.0204,-1.18329 0.07816,-5.80808 0.07816,-5.80808c0,0 2.73169,-2.23473 4.28086,-3.00975c4.64751,-2.32503 17.23837,-3.00412 30.32202,-4.90048c1.18586,-0.17187 3.46495,1.19126 3.46495,1.19126c0,0 1.91996,2.96026 2.17669,5.00181c1.65991,13.19892 3.45218,27.8093 3.66344,31.18499c0.07043,1.12522 -1.01099,5.72837 -1.01099,5.72837z" fill="#000000" stroke="#000000" stroke-width="2.5" stroke-linecap="round"/><path d="M270.74899,125.11093c-0.78321,-0.97466 0.10614,-1.83299 0.10614,-1.83299l1.10681,-1.01139c0.10508,-0.05769 0.21018,-0.11459 0.31533,-0.17068c-1.8585,-5.75158 -1.90439,-13.10051 -2.82613,-18.95537c-0.23903,-1.51837 -1.21776,-5.57143 -0.74629,-6.99732c0.78948,-2.3877 2.48243,-2.07147 4.25468,-2.40113c3.01544,-0.5609 6.01281,-1.07693 8.92133,-2.11571c7.21125,-2.56529 14.50493,-4.19085 21.82858,-6.26398c2.31104,-0.65418 4.58727,-1.17256 6.97874,-1.38893c0.65435,-0.05921 1.44027,-0.46972 1.96935,-0.04363c1.87385,1.50907 1.49792,3.64266 1.51003,5.70791c0.02416,4.11952 -0.93079,8.01474 -0.41177,12.14175c0.37781,3.16025 0.43119,6.4648 0.54434,9.64742c0.03903,1.09829 0.66388,3.02976 -0.20406,4.0205c-1.77968,2.03147 -7.25144,1.76852 -9.63825,2.1212c-7.27782,1.07536 -14.58193,1.98733 -21.79273,3.51553c-2.56285,0.64342 -4.99347,1.34014 -7.37773,2.38833c0.03409,0.38629 -0.05651,0.90651 -0.6641,1.2329c-0.65921,0.35414 -1.11023,0.04133 -1.358,-0.24798c-0.08011,0.04308 -0.16019,0.08667 -0.24026,0.13077l-0.6034,0.63915c0,0 -0.88937,0.85832 -1.67259,-0.11633z" fill="#000000" stroke="#000000" stroke-width="0.5" stroke-linecap="butt"/><path d="M291.8471,140.54381c4.05555,-3.25668 8.36242,-1.65561 10.54553,3.01984c2.50378,5.3622 -0.65319,9.16141 -0.65319,9.16141c0,0 -2.54681,-0.71577 -5.64462,-0.60847c-3.85726,0.13362 -5.87448,0.94721 -5.87448,0.94721c0,0 -3.87504,-8.10195 1.62675,-12.52z" fill="#000000" stroke="#000000" stroke-width="2" stroke-linecap="butt"/><path d="M316.26476,137.37929c6.19792,3.12049 3.88261,11.90898 3.88261,11.90898c0,0 -2.12505,-0.35418 -5.92853,0.36181c-3.05462,0.57501 -5.41893,1.83546 -5.41893,1.83546c0,0 -3.7875,-3.02904 -2.31479,-8.83225c1.2841,-5.05998 5.21095,-7.57422 9.77963,-5.274z" data-paper-data="{&quot;index&quot;:null}" fill="#000000" stroke="#000000" stroke-width="2" stroke-linecap="butt"/><g data-paper-data="{&quot;index&quot;:null}" fill="#000000" stroke="#000000"><path d="M289.24853,166.50224c0,0 6.38087,25.59979 0.7948,38.5602c-1.68334,3.90555 -13.30277,8.66682 -14.33,8.80893c-4.43604,0.61367 -20.64008,-20.61867 -20.64008,-20.61867c0,0 -7.68539,-9.17218 -9.46472,-14.14522c11.74276,-14.79895 22.08476,-17.13948 22.08476,-17.13948c1.69146,-1.45491 5.40397,5.93274 5.40397,5.93274l11.70401,20.744l-1.82077,-3.09927c0,0 -10.50399,-18.44595 -8.13571,-18.27294c2.17902,0.15916 15.11392,-4.01949 14.40373,-0.77028z" stroke-width="2.5" stroke-linecap="round"/><path d="M281.57612,184.42362c-1.26353,1.17471 -2.69491,2.21005 -4.10805,3.05614c-3.68546,2.82849 -7.76081,5.85867 -11.74648,8.20213c-1.137,0.66853 -2.24445,1.36312 -3.36297,2.06962c-0.37664,0.2379 -1.36906,0.61812 -1.71383,0.74424c1.17157,0.89686 2.18946,2.52445 3.48369,3.15269c0.1522,0.07389 0.43206,-0.00012 0.76559,-0.15012c0.94103,-0.80109 2.00743,-1.48109 2.47875,-1.85466c5.05778,-4.61257 10.84817,-7.96096 16.08934,-12.25085c-0.18213,-0.59349 -0.98195,-1.58873 -1.04422,-1.68337c-0.28213,-0.4288 -0.56492,-0.85555 -0.84181,-1.28579zM280.77613,183.12785c-0.29308,-0.50143 -0.57027,-1.01445 -0.82201,-1.54717c0,0 -0.15618,-0.33137 -0.04325,-0.65402c-1.75695,-2.82478 -3.33666,-5.82697 -4.65473,-8.6374c-0.75021,-1.1697 -1.88227,-2.67227 -0.94597,-4.09822c0.67373,-1.02606 2.79908,-1.50902 3.85201,-1.70869c3.37781,-0.64053 6.79043,-1.20105 10.16641,-1.75383c1.99479,0.91769 1.50223,3.01603 1.67504,5.12635c0.37653,4.59806 0.87556,9.1726 1.24663,13.77278c0.66964,3.21013 0.43335,6.29894 0.75482,9.51092c0.44524,4.44853 0.69387,7.99724 -0.90765,12.231c-3.8228,4.42037 -11.49223,8.81667 -17.20161,7.19814c-3.68235,0.08643 -6.13492,-3.48715 -8.53966,-6.05499c-0.40308,-0.43041 -2.08593,-1.727 -2.17366,-2.27814c-0.06232,-0.39153 0.0643,-0.79909 0.30932,-1.20453c-1.41833,-0.69545 -2.59916,-2.44193 -3.8355,-3.41281c-1.12125,-2.38979 2.05374,-3.33306 3.89435,-4.46011c4.46712,-2.73535 9.01133,-5.78052 13.16611,-9.00061c1.39217,-0.83352 2.82289,-1.85757 4.05937,-3.02868zM266.94524,201.95584c-0.01734,0.00959 -0.03493,0.0195 -0.05276,0.02969c-1.05519,0.87215 -2.33604,1.94185 -2.31107,1.96875c2.3542,2.53716 5.88837,7.09043 9.48466,7.06619c5.27301,1.49482 12.19667,-2.56781 15.84037,-6.5025c1.38492,-3.88736 1.08435,-7.13391 0.68565,-11.2034c-0.31326,-3.19729 -0.08339,-6.24927 -0.74642,-9.44312c-0.38773,-4.63305 -0.87566,-9.24293 -1.2582,-13.87426c-0.0529,-0.6405 -0.01754,-3.71113 -0.37973,-3.71582c-3.44402,0.81319 -7.04452,0.89501 -10.45847,1.85704c-0.2804,0.07902 -2.5659,0.86239 -2.44191,1.27951c0.20159,0.6782 0.78768,1.47666 1.16487,2.06346c2.65927,5.61704 7.28264,10.2315 9.54565,15.94069c-0.33927,0.68931 -0.77924,1.35927 -1.35888,1.81737l-0.50662,0.57475c0,0 -0.08205,0.09232 -0.21369,0.1653c-1.78578,2.36465 -5.47866,4.05286 -7.4704,5.18011c-3.34339,1.98637 -6.08056,4.89304 -9.52306,6.79623z" stroke-width="0.5" stroke-linecap="butt"/><path d="M277.5013,187.44274c1.41314,-0.84608 2.84707,-1.87845 4.1106,-3.05316c0.2769,0.43024 0.56306,0.86178 0.8452,1.29058c0.06226,0.09463 0.86562,1.09658 1.04775,1.69007c-5.24116,4.28989 -11.10474,7.70065 -16.16252,12.31322c-0.47131,0.37355 -1.54045,1.05083 -2.48147,1.85193c-0.33353,0.15 -0.61474,0.2225 -0.76695,0.14862c-1.29423,-0.62825 -2.32148,-2.27184 -3.49304,-3.16871c0.34476,-0.12613 1.33721,-0.50628 1.71385,-0.74418c1.11851,-0.70651 2.2248,-1.40453 3.36181,-2.07306c3.98566,-2.34346 8.13932,-5.42682 11.82477,-8.2553z" data-paper-data="{&quot;noHover&quot;:false,&quot;origItem&quot;:[&quot;Path&quot;,{&quot;applyMatrix&quot;:true,&quot;segments&quot;:[[[926.17844,407.1979],[3.2606,1.25965],[-0.27949,0.97418]],[[925.31465,410.11917],[0.29084,-0.97519],[-0.06418,0.21521]],[[924.29914,413.90358],[-0.01258,-1.20526],[13.15638,4.16543]],[[964.1057,425.02121],[-12.99513,-4.87922],[1.17537,0.35239]],[[970.21765,426.67451],[-2.3817,-0.804],[0.75941,0.04146]],[[971.83798,426.41666],[-0.25651,0.23985],[2.18115,-2.03947]],[[976.78433,418.26967],[-1.76682,2.44279],[-0.76669,0.00973]],[[972.89889,418.10481],[0.90089,0.17138],[-2.67549,-0.50896]],[[964.88923,416.67374],[2.68829,0.42712],[-9.42353,-1.49721]],[[936.29671,409.90591],[9.13228,2.58714],[-3.35077,-0.55846]]],&quot;closed&quot;:true}]}" stroke-width="0.5" stroke-linecap="butt"/><path d="M268.27759,200.83741c4.64225,-4.22676 9.81036,-7.36826 14.69772,-11.1703c0.03234,0.05414 0.16804,0.10699 0.21904,0.16143c0.50934,0.54373 0.91067,-0.01415 0.91067,-0.01415l0.50677,-0.57073c0.57965,-0.45811 1.02113,-1.1186 1.3604,-1.80791c-2.26301,-5.70919 -6.83653,-10.28558 -9.4958,-15.90263c-0.3772,-0.58682 -0.97402,-1.48845 -1.1756,-2.16667c-0.124,-0.41712 2.16768,-1.20099 2.44809,-1.28c3.41396,-0.96203 7.03532,-1.03877 10.47934,-1.85196c0.36219,0.00468 0.33042,3.0774 0.38333,3.7179c0.38254,4.63131 0.88955,9.26439 1.27727,13.89743c0.66302,3.19384 0.43603,6.28005 0.74929,9.47734c0.39871,4.06949 0.68488,7.34216 -0.70004,11.22952c-3.6437,3.93471 -10.60826,8.00953 -15.88126,6.51471c-3.59629,0.02425 -7.15528,-4.5439 -9.50948,-7.08106c-0.04129,-0.04449 3.55586,-3.01459 3.73028,-3.15292z" data-paper-data="{&quot;noHover&quot;:false,&quot;origItem&quot;:[&quot;Path&quot;,{&quot;applyMatrix&quot;:true,&quot;segments&quot;:[[[926.61254,417.73069],[12.14285,3.5238],[-0.03018,0.12086]],[[926.46822,418.11346],[0.06716,-0.13431],[-0.67082,1.34164]],[924.45576,418.78428],[[923.08279,418.0906],[0,0],[-1.44471,-0.43097]],[[919.22563,415.72869],[1.11205,1.01797],[0.89694,-11.9485]],[[928.15956,380.1298],[-1.74473,12.05571],[0.38029,-1.32836]],[[929.175,375.57071],[0.02742,1.37277],[-0.01686,-0.84429]],[[923.5003,374.93752],[0.60865,-0.05075],[-7.41054,0.61792]],[[901.48814,378.8123],[7.37628,-0.90935],[-0.71866,0.25961]],[[903.08234,385.83106],[-0.2998,-1.20115],[2.16779,8.68513]],[[909.35292,411.92731],[-2.15853,-8.69186],[0.69956,6.26621]],[[913.83986,429.61277],[-1.39861,-6.02998],[1.78014,7.67491]],[[922.29365,449.50563],[-5.21858,-6.1072],[9.74892,4.62723]],[[957.96755,450.34516],[-9.56021,6.37347],[7.18055,-2.44927]],[[972.39433,430.92276],[-3.08539,6.24485],[0.05411,-0.10951]],[[963.14745,427.86406],[0.43501,0.13058],[-11.92317,-4.46591]]],&quot;closed&quot;:true}]}" stroke-width="0.5" stroke-linecap="butt"/></g><g data-paper-data="{&quot;index&quot;:null}" fill="#000000" stroke="#000000" stroke-width="1.25" stroke-linecap="butt"><path d="M292.9579,165.11829c-8.53183,0.35984 -6.75439,-8.67142 -6.75439,-8.67142l12.69553,-0.64808c0,0 3.09176,8.93852 -5.94114,9.3195z"/><path d="M291.76776,162.5233c2.37445,0.58588 4.25949,2.01266 3.89601,2.13487c-0.75111,0.25254 -1.64484,0.41536 -2.70587,0.46011c-3.17995,0.13412 -4.92777,-1.03635 -5.86926,-2.55756c-0.1829,-0.29553 2.49869,-0.57544 4.67911,-0.03742z"/><path d="M286.20258,159.4597c-0.02806,-1.22934 0.00094,-3.01284 0.00094,-3.01284l11.15752,-0.56956l0.20707,3.08791c0,0 -11.36462,0.53501 -11.36554,0.49449z"/></g><path d="M287.4927,196.61831l-0.10792,0.17376c-2.1001,-0.48706 -3.46639,-1.5795 -5.45187,-2.28346c-1.36456,-0.48381 -2.30081,-0.21467 -3.69605,-0.85056c-0.86631,-0.39484 -1.58448,-1.2578 -2.53473,-1.31625c-2.39074,-0.14705 -3.26053,1.78531 -6.00471,1.24472c-1.15403,-0.22734 -1.78553,-1.6551 -2.91237,-1.99233c-1.03043,-0.30837 -3.6637,1.54872 -4.74478,1.6937c-4.12893,0.55368 -6.67125,-1.26307 -9.34409,-4.04719c-2.7067,-2.8194 -7.10603,-6.03063 -5.91068,-10.58921c0.54897,-2.09352 2.63452,-3.59356 4.10696,-5.00716c3.12473,-2.99983 6.87134,-6.28555 10.51761,-8.66523c1.55979,-1.01797 4.60708,-2.53023 6.53206,-2.06518c1.14287,0.2761 2.62666,1.9899 3.44482,2.83812c4.62112,4.83108 8.82947,11.49787 11.81008,17.47747c1.60168,3.21325 2.5994,6.14641 4.64372,8.86409c1.33281,0.10458 1.50773,1.53691 1.50773,1.53691l-0.08413,0.13545c0.22679,0.27714 0.98039,1.36072 -0.10917,2.40671c-0.60949,0.58513 -1.20724,0.5935 -1.66249,0.44563z" data-paper-data="{&quot;index&quot;:null}" fill="#000000" stroke="#000000" stroke-width="0.5" stroke-linecap="butt"/><path d="M293.71033,248.1413c1.56444,1.34715 3.87684,3.79928 4.36741,5.94002c0.30408,1.32695 -0.01851,2.10597 -0.3704,3.02036c0.72906,-0.0959 1.48056,-0.27176 1.94695,0.20352c2.7161,2.76788 -1.14161,6.39477 -1.68996,8.70916c-0.31563,1.33217 0.68228,2.85327 0.12813,4.10516c-1.73556,3.92091 -6.53967,4.17756 -10.05184,3.74421l-1.83294,-1.08649c0,0 -0.01415,-0.01061 -0.03853,-0.03112c-3.16788,1.35269 -8.08616,-0.37246 -11.41147,-0.36888c-4.81052,0 -9.36594,-0.64811 -14.12406,-1.0044c-5.34433,-0.40019 -12.01696,-0.27614 -17.11048,-2.60721c-1.28269,-0.58703 -4.03308,1.41165 -5.30183,0.79508c-1.11563,-0.54216 -2.36648,-0.75213 -3.49052,-1.27663c-0.95024,-0.44339 -3.05825,-0.48391 -3.88737,-1.12587c0.15286,-1.17627 2.91273,-4.5797 3.52524,-5.59547c0.69137,-1.14653 1.71896,-1.21233 2.65157,-2.17293c2.15861,-2.22343 2.59205,-3.1233 7.0535,-3.01132c2.33691,0.05866 5.00278,-0.10352 7.43927,-0.48406c1.28362,-0.20048 2.41399,-1.02233 3.69459,-1.24127c3.42955,-0.58635 7.04312,-0.73477 10.54895,-0.47954c0.01519,-0.35425 2.25908,-0.48867 2.22335,-0.82415l1,-0.80556c0,0 1.39628,0.46121 1.52426,0.06309c0.03691,-0.11483 1.49576,0.28204 1.75792,0.20692c0.56342,-0.5226 2.98485,-0.63712 3.15007,-1.35157c0.18126,-0.78383 0.76539,-3.07132 1.27887,-3.69067c0.26525,-0.31994 -0.32495,-0.88273 0.76738,-1.25017c0.7973,-0.26819 0.10865,0.54104 0.45998,0.55923c0.48929,0.02533 0.02889,0.85518 0.83931,0.8465c1.329,-0.01424 2.13628,0.69235 3.46069,0.8035c2.02568,0.17001 2.5999,-2.06965 4.13714,-1.26106c1.85056,0.97341 2.2532,0.77652 3.86511,1.49909c0.89022,-0.31275 3.48971,-0.82747 3.48971,-0.82747z" fill="#000000" stroke="#000000" stroke-width="0.5" stroke-linecap="butt"/></g></g></svg>