<svg version="1.1" xmlns="http://www.w3.org/2000/svg" xmlns:xlink="http://www.w3.org/1999/xlink" width="473.80349" height="368.78016" viewBox="0,0,473.80349,368.78016"><g transform="translate(-3.23291,8.00614)"><g data-paper-data="{&quot;isPaintingLayer&quot;:true}" fill-rule="nonzero" stroke-linejoin="miter" stroke-miterlimit="10" stroke-dasharray="" stroke-dashoffset="0" style="mix-blend-mode: normal"><g><path d="M97.53002,121.34052c0.78081,-4.566 5.11526,-7.63451 9.68127,-6.8537c4.566,0.78081 7.63452,5.11526 6.85371,9.68127c-0.78081,4.566 -5.11527,7.63451 -9.68127,6.8537c-4.566,-0.78081 -7.63452,-5.11526 -6.85371,-9.68127z" data-paper-data="{&quot;index&quot;:null}" fill="#582700" stroke="#000000" stroke-width="2.5" stroke-linecap="butt"/><g data-paper-data="{&quot;index&quot;:null}"><path d="M106.13685,98.62895c0.00063,-0.00365 0.71826,-3.40397 0.71826,-3.40397l7.02458,1.17005c0,0 -0.353,3.49544 -0.35336,3.49755c-0.34894,2.04055 -2.286,3.41187 -4.32655,3.06292c-2.04055,-0.34894 -3.41187,-2.28601 -3.06292,-4.32656z" data-paper-data="{&quot;index&quot;:null}" fill="#1b8fe3" stroke="#000000" stroke-width="5" stroke-linecap="butt"/><path d="M108.96624,79.62837c0.38983,-2.2796 2.55382,-3.81157 4.83342,-3.42175c2.2796,0.38983 3.81158,2.55382 3.42175,4.83342c-0.38983,2.2796 -2.55383,3.81157 -4.83343,3.42174c-2.2796,-0.38983 -3.81157,-2.55382 -3.42175,-4.83342z" fill="#66bfff" stroke="#000000" stroke-width="2.5" stroke-linecap="butt"/><path d="M117.2751,80.94202l-2.35261,17.92595l-9.83407,-1.68168l3.86915,-17.66662" fill="#66bfff" stroke="#000000" stroke-width="2.5" stroke-linecap="round"/><path d="M106.13685,98.62895c0.00063,-0.00365 0.71826,-3.40397 0.71826,-3.40397l7.02458,1.17005c0,0 -0.353,3.49544 -0.35336,3.49755c-0.34894,2.04055 -2.286,3.41187 -4.32655,3.06292c-2.04055,-0.34894 -3.41187,-2.28601 -3.06292,-4.32656z" data-paper-data="{&quot;index&quot;:null}" fill="#1b8fe3" stroke="none" stroke-width="0.5" stroke-linecap="butt"/></g><g data-paper-data="{&quot;index&quot;:null}" fill="#66bfff" stroke-linecap="butt"><path d="M100.89233,114.73509l4.14209,-17.79498l10.06913,1.72187l-2.15838,18.13421c0,0 -1.34928,1.4241 -6.18424,0.54667c-4.59171,-0.83329 -5.8686,-2.60776 -5.8686,-2.60776z" stroke="#000000" stroke-width="2.5"/><path d="M110.89368,93.04446c1.98941,0.3402 3.32637,2.22873 2.98617,4.21815c-0.00035,0.00205 -0.29424,3.29169 -0.29424,3.29169l-7.70094,-1.3473c0,0 0.79027,-3.17282 0.79087,-3.17637c0.3402,-1.98941 2.22872,-3.32638 4.21814,-2.98618z" data-paper-data="{&quot;index&quot;:null}" stroke="none" stroke-width="0.5"/></g></g><g data-paper-data="{&quot;index&quot;:null}"><path d="M66.1736,130.57178c-4.566,0.78081 -8.90046,-2.2877 -9.68127,-6.8537c-0.78081,-4.56601 2.28771,-8.90046 6.85371,-9.68127c4.56601,-0.78081 8.90046,2.2877 9.68127,6.8537c0.78081,4.56601 -2.28771,8.90046 -6.85371,9.68127z" data-paper-data="{&quot;index&quot;:null}" fill="#582700" stroke="#000000" stroke-width="2.5" stroke-linecap="butt"/><g data-paper-data="{&quot;index&quot;:null}"><path d="M64.42047,98.17894c0.34895,2.04055 -1.02237,3.97762 -3.06292,4.32656c-2.04055,0.34895 -3.97761,-1.02237 -4.32655,-3.06292c-0.00036,-0.00211 -0.35336,-3.49755 -0.35336,-3.49755l7.02458,-1.17005c0,0 0.71763,3.40032 0.71826,3.40397z" data-paper-data="{&quot;index&quot;:null}" fill="#1b8fe3" stroke="#000000" stroke-width="5" stroke-linecap="butt"/><path d="M61.5911,79.17836c0.38982,2.2796 -1.14215,4.44359 -3.42175,4.83342c-2.2796,0.38983 -4.4436,-1.14214 -4.83343,-3.42174c-0.38983,-2.2796 1.14215,-4.44359 3.42175,-4.83342c2.2796,-0.38982 4.44359,1.14215 4.83342,3.42175z" fill="#66bfff" stroke="#000000" stroke-width="2.5" stroke-linecap="butt"/><path d="M61.59976,79.06967l3.86915,17.66662l-9.83407,1.68168l-2.35261,-17.92595" fill="#66bfff" stroke="#000000" stroke-width="2.5" stroke-linecap="round"/><path d="M64.42047,98.17894c0.34895,2.04055 -1.02237,3.97762 -3.06292,4.32656c-2.04055,0.34895 -3.97761,-1.02237 -4.32655,-3.06292c-0.00036,-0.00211 -0.35336,-3.49755 -0.35336,-3.49755l7.02458,-1.17005c0,0 0.71763,3.40032 0.71826,3.40397z" data-paper-data="{&quot;index&quot;:null}" fill="#1b8fe3" stroke="none" stroke-width="0.5" stroke-linecap="butt"/></g><g data-paper-data="{&quot;index&quot;:null}" fill="#66bfff" stroke-linecap="butt"><path d="M69.665,114.2851c0,0 -1.27689,1.77447 -5.8686,2.60776c-4.83496,0.87743 -6.18424,-0.54667 -6.18424,-0.54667l-2.15838,-18.13421l10.06913,-1.72187l4.14209,17.79498z" stroke="#000000" stroke-width="2.5"/><path d="M59.66365,92.59445c1.98942,-0.3402 3.87794,0.99677 4.21814,2.98618c0.0006,0.00355 0.79087,3.17637 0.79087,3.17637l-7.70094,1.3473c0,0 -0.29389,-3.28964 -0.29424,-3.29169c-0.3402,-1.98942 0.99676,-3.87795 2.98617,-4.21815z" data-paper-data="{&quot;index&quot;:null}" stroke="none" stroke-width="0.5"/></g></g><g data-paper-data="{&quot;index&quot;:null}" fill="#242525" stroke-linecap="butt"><path d="M47.33577,165.80801c0,-3.93589 3.19067,-7.12656 7.12656,-7.12656c3.93589,0 7.12657,3.19067 7.12657,7.12656c0,0.00407 2.79889,3.88553 2.79889,3.88553l-17.25982,0.41532c0,0 0.2078,-4.29557 0.2078,-4.30086z" stroke="#000000" stroke-width="5"/><path d="M45.0525,176.46201l0.6919,-9.27146l18.54291,0.13838l9.68659,9.13308z" stroke="#000000" stroke-width="2.5"/><path d="M47.33577,165.80801c0,-3.93589 3.19067,-7.12656 7.12656,-7.12656c3.93589,0 7.12657,3.19067 7.12657,7.12656c0,0.00407 2.79889,3.88553 2.79889,3.88553l-17.25982,0.41532c0,0 0.2078,-4.29557 0.2078,-4.30086z" stroke="none" stroke-width="0.5"/></g><g data-paper-data="{&quot;index&quot;:null}" stroke="#000000" stroke-width="2.5"><g fill="#4b4c4d"><g><path d="M45.7708,146.23763c-0.30167,-4.61609 3.19589,-8.60276 7.81199,-8.90442c4.6161,-0.30167 8.60275,3.19591 8.90442,7.812c0.30167,4.61609 -3.19591,8.60275 -7.812,8.90442c-4.6161,0.30167 -8.60274,-3.1959 -8.9044,-7.812z" stroke-linecap="butt"/><path d="M62.52372,145.15919l1.95429,17.78598l-18.34018,1.87675l-0.39135,-18.56634" stroke-linecap="round"/></g></g><path d="M44.34711,169.65381l0.03797,-7.90697l21.6794,-1.41674l1.06671,7.83477z" fill="#686a6b" stroke-linecap="butt"/></g><g data-paper-data="{&quot;index&quot;:null}" fill="#4b4c4d"><path d="M45.20411,119.2269c-0.25862,-3.95743 2.73986,-7.3752 6.69729,-7.63382c3.95743,-0.25862 7.3752,2.73986 7.63382,6.69728c0.25862,3.95743 -2.73986,7.3752 -6.69728,7.63383c-3.95743,0.25862 -7.37521,-2.73986 -7.63383,-6.69729z" stroke="#000000" stroke-width="2.5" stroke-linecap="butt"/><path d="M59.56651,118.30234l2.73755,24.91433l-16.59261,1.08432l-0.5282,-25.0587" stroke="#000000" stroke-width="2.5" stroke-linecap="round"/><path d="M47.38312,145.41308c-0.00013,-0.00201 -0.23311,-5.96801 -0.23311,-5.96801l13.06569,-0.91085c0,0 0.62914,5.99775 0.62923,5.99912c0.24293,3.71738 -2.57366,6.92784 -6.29104,7.17077c-3.71739,0.24293 -6.92784,-2.57366 -7.17077,-6.29104z" data-paper-data="{&quot;index&quot;:null}" stroke="none" stroke-width="0.5" stroke-linecap="butt"/></g><g data-paper-data="{&quot;index&quot;:null}" fill="#242525" stroke-linecap="butt"><path d="M29.88291,165.80801c0,-3.93589 3.19067,-7.12656 7.12656,-7.12656c3.93589,0 7.12657,3.19067 7.12657,7.12656c0,0.00407 2.79889,3.88553 2.79889,3.88553l-17.25982,0.41532c0,0 0.2078,-4.29557 0.2078,-4.30086z" stroke="#000000" stroke-width="5"/><path d="M27.59964,176.46201l0.6919,-9.27146l18.54291,0.13838l9.68659,9.13308z" stroke="#000000" stroke-width="2.5"/><path d="M29.88291,165.80801c0,-3.93589 3.19067,-7.12656 7.12656,-7.12656c3.93589,0 7.12657,3.19067 7.12657,7.12656c0,0.00407 2.79889,3.88553 2.79889,3.88553l-17.25982,0.41532c0,0 0.2078,-4.29557 0.2078,-4.30086z" stroke="none" stroke-width="0.5"/></g><g data-paper-data="{&quot;index&quot;:null}" stroke="#000000" stroke-width="2.5"><g fill="#4b4c4d"><g><path d="M31.64947,144.64896c0.36244,-4.61172 4.39481,-8.05648 9.00654,-7.69404c4.61173,0.36244 8.05647,4.39483 7.69403,9.00655c-0.36244,4.61172 -4.39482,8.05647 -9.00654,7.69403c-4.61173,-0.36244 -8.05647,-4.39482 -7.69403,-9.00654z" stroke-linecap="butt"/><path d="M48.38416,145.98053l-0.61268,17.88253l-18.41992,-0.76878l2.27126,-18.43104" stroke-linecap="round"/></g></g><path d="M26.88741,167.61997l1.16981,-7.82004l21.65885,1.70219l-0.06617,7.90678z" fill="#686a6b" stroke-linecap="butt"/></g><g data-paper-data="{&quot;index&quot;:null}" fill="#4b4c4d"><path d="M34.95637,117.83542c0.31072,-3.95367 3.76771,-6.90687 7.72138,-6.59615c3.95367,0.31072 6.90687,3.76771 6.59615,7.72138c-0.31072,3.95367 -3.76771,6.90688 -7.72138,6.59616c-3.95367,-0.31072 -6.90688,-3.76772 -6.59615,-7.72138z" stroke="#000000" stroke-width="2.5" stroke-linecap="butt"/><path d="M49.30315,118.97697l-0.85822,25.04958l-16.57689,-1.30279l3.06548,-24.8761" stroke="#000000" stroke-width="2.5" stroke-linecap="round"/><path d="M33.36325,144.06376c0.00016,-0.00201 0.62387,-5.93989 0.62387,-5.93989l13.06147,0.96945c0,0 -0.23617,6.02603 -0.23628,6.0274c-0.29188,3.71386 -3.53916,6.48792 -7.25302,6.19605c-3.71386,-0.29188 -6.48792,-3.53915 -6.19604,-7.25302z" data-paper-data="{&quot;index&quot;:null}" stroke="none" stroke-width="0.5" stroke-linecap="butt"/></g><g stroke-width="2.5"><path d="M48.00312,83.28595c-9.09955,1.53547 -16.95969,-0.08508 -17.55611,-3.61962c-0.59643,-3.53454 0.44324,-5.8166 5.50373,-6.39043c3.81037,-0.43207 13.60443,3.06675 13.60443,3.06675c0,0 7.54749,5.40782 -1.55205,6.9433z" data-paper-data="{&quot;index&quot;:null}" fill="#66bfff" stroke="#000000" stroke-linecap="butt"/><g data-paper-data="{&quot;index&quot;:null}"><path d="M35.11676,117.38112l4.38884,-43.45801l16.07365,2.52181l4.85951,40.93621z" fill="#66bfff" stroke="#000000" stroke-linecap="butt"/><path d="M41.30955,114.22326c0,0 1.82541,-3.08819 2.79571,-7.23894c0.83691,-3.58013 1.45429,-8.01106 1.45429,-8.01106l9.5,-0.25l1.75,15.5z" fill="#66bfff" stroke="#5aa9e1" stroke-linecap="butt"/><path d="M46.05955,93.97326c0,0 0.53679,-2.81795 0.56354,-4.50296c0.02154,-1.35676 -0.29644,-3.92285 -0.37454,-6.2617c-0.08807,-2.63712 0.561,-7.23534 0.561,-7.23534" fill="none" stroke="#ffffff" stroke-linecap="round"/><path d="M52.30955,86.22326l-0.5,-10" fill="none" stroke="#ffffff" stroke-linecap="round"/></g></g><path d="M21.65599,49.08209c-0.44319,-15.27763 11.5825,-28.02188 26.86013,-28.46508c15.27763,-0.44319 28.02188,11.5825 28.46508,26.86013c0.44319,15.27763 -11.5825,28.02188 -26.86013,28.46508c-15.27763,0.44319 -28.02188,-11.5825 -28.46508,-26.86013z" fill="#582700" stroke="#000000" stroke-width="2.5" stroke-linecap="butt"/><path d="M39.1942,51.61069c-0.15548,-5.35959 3.67281,-9.8191 8.55072,-9.9606c4.87791,-0.1415 8.95827,4.08859 9.11375,9.44817c0.15548,5.35959 -3.67281,9.81909 -8.55072,9.96059c-4.87791,0.1415 -8.95827,-4.08858 -9.11375,-9.44816z" data-paper-data="{&quot;index&quot;:null}" fill="#ffffff" stroke="#000000" stroke-width="2.5" stroke-linecap="butt"/><path d="M60.68106,50.98737c-0.15548,-5.35959 3.21726,-9.80588 7.53322,-9.93109c4.31595,-0.1252 7.94077,4.1181 8.09625,9.47769c0.15548,5.35959 -3.21726,9.80587 -7.53322,9.93108c-4.31596,0.1252 -7.94078,-4.11809 -8.09626,-9.47768z" data-paper-data="{&quot;index&quot;:null}" fill="#ffffff" stroke="#000000" stroke-width="2.5" stroke-linecap="butt"/><path d="M50.56174,51.53404c-0.05718,-1.97103 1.04155,-3.60208 2.45407,-3.64305c1.41253,-0.04098 2.60396,1.52363 2.66113,3.49466c0.05718,1.97103 -1.04155,3.60208 -2.45407,3.64305c-1.41253,0.04098 -2.60396,-1.52363 -2.66113,-3.49466z" data-paper-data="{&quot;index&quot;:null}" fill="#000000" stroke="none" stroke-width="0" stroke-linecap="butt"/><path d="M69.8284,50.97513c-0.05718,-1.97103 1.04155,-3.60208 2.45407,-3.64305c1.41253,-0.04098 2.60396,1.52363 2.66113,3.49466c0.05718,1.97103 -1.04155,3.60208 -2.45407,3.64305c-1.41253,0.04098 -2.60396,-1.52363 -2.66113,-3.49466z" data-paper-data="{&quot;index&quot;:null}" fill="#000000" stroke="none" stroke-width="0" stroke-linecap="butt"/><path d="M64.14535,65.12905c0,0 -4.66417,2.31078 -10.06158,2.44324c-5.90056,0.14481 -10.17783,-2.10923 -10.17783,-2.10923" data-paper-data="{&quot;index&quot;:null}" fill="none" stroke="#000000" stroke-width="2.5" stroke-linecap="round"/><g fill="#242525" stroke-linecap="butt"><path d="M370.0455,345.2945c0,-3.93589 3.19067,-7.12656 7.12656,-7.12656c3.93589,0 7.12658,3.19067 7.12658,7.12656c0,0.00407 2.79888,3.88553 2.79888,3.88553l-17.25982,0.41532c0,0 0.20779,-4.29557 0.20779,-4.30086z" stroke="#000000" stroke-width="5"/><path d="M367.76225,355.9485l0.6919,-9.27146l18.54291,0.13838l9.68658,9.13308z" stroke="#000000" stroke-width="2.5"/><path d="M370.0455,345.2945c0,-3.93589 3.19067,-7.12656 7.12656,-7.12656c3.93589,0 7.12658,3.19067 7.12658,7.12656c0,0.00407 2.79888,3.88553 2.79888,3.88553l-17.25982,0.41532c0,0 0.20779,-4.29557 0.20779,-4.30086z" stroke="none" stroke-width="0.5"/></g><g stroke="#000000" stroke-width="2.5"><g fill="#4b4c4d"><g><path d="M369.87961,324.64905c0,-4.62595 3.75009,-8.37604 8.37603,-8.37604c4.62595,0 8.37604,3.7501 8.37604,8.37604c0,4.62595 -3.75009,8.37604 -8.37604,8.37604c-4.62595,0 -8.37603,-3.75009 -8.37603,-8.37604z" stroke-linecap="butt"/><path d="M386.66719,324.66538l0.79029,17.87556l-18.42352,0.67677l0.82022,-18.55234" stroke-linecap="round"/></g></g><path d="M366.93196,347.92254l0.55352,-7.88766h21.72564l0.55352,7.88766z" fill="#686a6b" stroke-linecap="butt"/></g><g><path d="M384.52153,144.30981c0,-0.0037 0.1342,-3.47633 0.1342,-3.47633l7.12131,-0.03074c0,0 0.24123,3.50493 0.24123,3.50707c0,2.07017 -1.6782,3.74837 -3.74837,3.74837c-2.07017,0 -3.74837,-1.6782 -3.74837,-3.74837z" data-paper-data="{&quot;index&quot;:null}" fill="#1b8fe3" stroke="#000000" stroke-width="5" stroke-linecap="butt"/><g data-paper-data="{&quot;index&quot;:null}" fill="#66bfff"><path d="M384.10773,132.60419c0,-2.31269 1.87481,-4.1875 4.1875,-4.1875c2.31269,0 4.1875,1.87481 4.1875,4.1875c0,2.31269 -1.87481,4.1875 -4.1875,4.1875c-2.31269,0 -4.1875,-1.87481 -4.1875,-4.1875z" stroke="#000000" stroke-width="2.5" stroke-linecap="butt"/><path d="M392.51913,132.49852l0.70261,10.56601h-9.97682l0.83594,-10.56601" stroke="#000000" stroke-width="2.5" stroke-linecap="round"/><path d="M384.52153,144.30981c0,-0.0037 0.1342,-3.47633 0.1342,-3.47633l7.12131,-0.03074c0,0 0.24123,3.50493 0.24123,3.50707c0,2.07017 -1.6782,3.74837 -3.74837,3.74837c-2.07017,0 -3.74837,-1.6782 -3.74837,-3.74837z" data-paper-data="{&quot;index&quot;:null}" stroke="none" stroke-width="0.5" stroke-linecap="butt"/></g></g><g data-paper-data="{&quot;index&quot;:null}" fill="#66bfff" stroke-linecap="butt"><path d="M382.06687,155.92563l1.08334,-10.73855h10.2153l0.92917,10.73855c0,0 -1.08992,1.63116 -6.00361,1.58125c-4.66647,-0.0474 -6.2242,-1.58125 -6.2242,-1.58125z" stroke="#000000" stroke-width="2.5"/><path d="M388.26898,140.35955c2.01829,0 3.65444,1.63615 3.65444,3.65445c0,0.00208 0.26481,3.29419 0.26481,3.29419l-7.81785,-0.02997c0,0 0.24416,-3.26062 0.24416,-3.26422c0,-2.01829 1.63614,-3.65445 3.65444,-3.65445z" data-paper-data="{&quot;index&quot;:null}" stroke="none" stroke-width="0.5"/></g><g stroke-linecap="butt"><path d="M412.76898,140.35955c2.01829,0 3.65445,1.63615 3.65445,3.65445c0,0.00208 0.26481,3.29419 0.26481,3.29419l-7.81785,-0.02997c0,0 0.24415,-3.26062 0.24415,-3.26422c0,-2.01829 1.63614,-3.65445 3.65444,-3.65445z" data-paper-data="{&quot;index&quot;:null}" fill="#1b8fe3" stroke="#000000" stroke-width="5"/><g data-paper-data="{&quot;index&quot;:null}" fill="#66bfff"><path d="M406.56687,155.92563l1.08333,-10.73855h10.2153l0.92917,10.73855c0,0 -1.08993,1.63116 -6.00361,1.58125c-4.66647,-0.0474 -6.22419,-1.58125 -6.22419,-1.58125z" stroke="#000000" stroke-width="2.5"/><path d="M412.76898,140.35955c2.01829,0 3.65445,1.63615 3.65445,3.65445c0,0.00208 0.26481,3.29419 0.26481,3.29419l-7.81785,-0.02997c0,0 0.24415,-3.26062 0.24415,-3.26422c0,-2.01829 1.63614,-3.65445 3.65444,-3.65445z" data-paper-data="{&quot;index&quot;:null}" stroke="none" stroke-width="0.5"/></g></g><g data-paper-data="{&quot;index&quot;:null}" fill="#66bfff"><path d="M408.60772,132.60419c0,-2.31269 1.87481,-4.1875 4.1875,-4.1875c2.31269,0 4.1875,1.87481 4.1875,4.1875c0,2.31269 -1.87481,4.1875 -4.1875,4.1875c-2.31269,0 -4.1875,-1.87481 -4.1875,-4.1875z" stroke="#000000" stroke-width="2.5" stroke-linecap="butt"/><path d="M417.01913,132.49852l0.70261,10.56601h-9.97682l0.83594,-10.56601" stroke="#000000" stroke-width="2.5" stroke-linecap="round"/><path d="M409.02153,144.30981c0,-0.0037 0.13421,-3.47633 0.13421,-3.47633l7.1213,-0.03074c0,0 0.24123,3.50493 0.24123,3.50707c0,2.07017 -1.6782,3.74837 -3.74837,3.74837c-2.07017,0 -3.74837,-1.6782 -3.74837,-3.74837z" data-paper-data="{&quot;index&quot;:null}" stroke="none" stroke-width="0.5" stroke-linecap="butt"/></g><g fill="#4b4c4d"><path d="M371.07553,297.65884c0,-3.96587 3.21497,-7.18084 7.18084,-7.18084c3.96587,0 7.18084,3.21497 7.18084,7.18084c0,3.96587 -3.21497,7.18085 -7.18084,7.18085c-3.96587,0 -7.18084,-3.21498 -7.18084,-7.18085z" stroke="#000000" stroke-width="2.5" stroke-linecap="butt"/><path d="M385.46764,297.67284l1.10704,25.03981h-16.628l1.10703,-25.03981" stroke="#000000" stroke-width="2.5" stroke-linecap="round"/><path d="M371.23666,323.91511c0,-0.0021 0.16367,-6.24102 0.16367,-6.24102l13.69069,-0.05946c0,0 0.24742,6.29905 0.24742,6.30048c0,3.8941 -3.15679,7.05088 -7.05089,7.05088c-3.8941,0 -7.05088,-3.15678 -7.05088,-7.05088z" data-paper-data="{&quot;index&quot;:null}" stroke="none" stroke-width="0.5" stroke-linecap="butt"/></g><g fill="#242525" stroke-linecap="butt"><path d="M407.5455,345.2945c0,-3.93589 3.19067,-7.12656 7.12656,-7.12656c3.93589,0 7.12658,3.19067 7.12658,7.12656c0,0.00407 2.79888,3.88553 2.79888,3.88553l-17.25982,0.41532c0,0 0.20779,-4.29557 0.20779,-4.30086z" stroke="#000000" stroke-width="5"/><path d="M405.26225,355.9485l0.6919,-9.27146l18.54291,0.13838l9.68658,9.13308z" stroke="#000000" stroke-width="2.5"/><path d="M407.5455,345.2945c0,-3.93589 3.19067,-7.12656 7.12656,-7.12656c3.93589,0 7.12658,3.19067 7.12658,7.12656c0,0.00407 2.79888,3.88553 2.79888,3.88553l-17.25982,0.41532c0,0 0.20779,-4.29557 0.20779,-4.30086z" stroke="none" stroke-width="0.5"/></g><g fill="#4b4c4d"><path d="M408.73666,323.80797c0,-0.0021 0.16367,-6.24102 0.16367,-6.24102l13.69069,-0.05946c0,0 0.24742,6.29905 0.24742,6.30048c0,3.8941 -3.15679,7.05088 -7.05089,7.05088c-3.8941,0 -7.05088,-3.15678 -7.05088,-7.05088z" data-paper-data="{&quot;index&quot;:null}" stroke="#000000" stroke-width="5" stroke-linecap="butt"/><g><path d="M408.57553,297.5517c0,-3.96587 3.21497,-7.18084 7.18084,-7.18084c3.96587,0 7.18084,3.21497 7.18084,7.18084c0,3.96587 -3.21497,7.18085 -7.18084,7.18085c-3.96587,0 -7.18084,-3.21498 -7.18084,-7.18085z" stroke="#000000" stroke-width="2.5" stroke-linecap="butt"/><path d="M422.96765,297.5657l1.10704,25.03981h-16.628l1.10703,-25.03981" stroke="#000000" stroke-width="2.5" stroke-linecap="round"/><path d="M408.73666,323.80797c0,-0.0021 0.16367,-6.24102 0.16367,-6.24102l13.69069,-0.05946c0,0 0.24742,6.29905 0.24742,6.30048c0,3.8941 -3.15679,7.05088 -7.05089,7.05088c-3.8941,0 -7.05088,-3.15678 -7.05088,-7.05088z" data-paper-data="{&quot;index&quot;:null}" stroke="none" stroke-width="0.5" stroke-linecap="butt"/></g></g><g><path d="M408.52248,324.64905c0,-3.99477 3.23841,-7.23318 7.23317,-7.23318c3.99477,0 7.23318,3.23842 7.23318,7.23318c0,3.99477 -3.23841,7.23318 -7.23318,7.23318c-3.99477,0 -7.23317,-3.23841 -7.23317,-7.23318z" fill="#4b4c4d" stroke="none" stroke-width="0" stroke-linecap="butt"/><path d="M424.16719,324.66538l0.79029,17.87556l-18.42352,0.67677l0.82022,-18.55234" fill="#4b4c4d" stroke="#000000" stroke-width="2.5" stroke-linecap="round"/><path d="M404.43196,347.92254l0.55352,-7.88766h21.72564l0.55352,7.88766z" fill="#686a6b" stroke="#000000" stroke-width="2.5" stroke-linecap="butt"/></g><g stroke="#000000" stroke-width="2.5"><g fill="#4b4c4d"><g><path d="M369.87961,254.64905c0,-4.62595 3.75009,-8.37604 8.37603,-8.37604c4.62595,0 8.37604,3.7501 8.37604,8.37604c0,4.62595 -3.75009,8.37604 -8.37604,8.37604c-4.62595,0 -8.37603,-3.75009 -8.37603,-8.37604z" stroke-linecap="butt"/><path d="M386.66719,254.66538l0.79029,10.36805l-18.42352,0.67677l0.82022,-11.04483" stroke-linecap="round"/></g></g><path d="M366.93196,270.41503l0.55352,-7.88766h21.72564l0.55352,7.88766z" fill="#686a6b" stroke-linecap="butt"/></g><g fill="#4b4c4d"><path d="M371.07553,235.16635c0,-3.96587 3.21497,-7.18084 7.18084,-7.18084c3.96587,0 7.18084,3.21497 7.18084,7.18084c0,3.96587 -3.21497,7.18085 -7.18084,7.18085c-3.96587,0 -7.18084,-3.21498 -7.18084,-7.18085z" stroke="#000000" stroke-width="2.5" stroke-linecap="butt"/><path d="M385.46764,235.18035l1.10704,17.5323h-16.628l1.10703,-17.5323" stroke="#000000" stroke-width="2.5" stroke-linecap="round"/><path d="M371.23666,253.91511c0,-0.0021 0.16367,-6.24102 0.16367,-6.24102l13.69069,-0.05946c0,0 0.24742,6.29905 0.24742,6.30048c0,3.8941 -3.15679,7.05088 -7.05089,7.05088c-3.8941,0 -7.05088,-3.15678 -7.05088,-7.05088z" data-paper-data="{&quot;index&quot;:null}" stroke="none" stroke-width="0.5" stroke-linecap="butt"/></g><g fill="#4b4c4d"><path d="M408.73666,253.80797c0,-0.0021 0.16367,-6.24102 0.16367,-6.24102l13.69069,-0.05946c0,0 0.24742,6.29905 0.24742,6.30048c0,3.8941 -3.15679,7.05088 -7.05089,7.05088c-3.8941,0 -7.05088,-3.15678 -7.05088,-7.05088z" data-paper-data="{&quot;index&quot;:null}" stroke="#000000" stroke-width="5" stroke-linecap="butt"/><g><path d="M408.57553,235.0592c0,-3.96587 3.21497,-7.18084 7.18084,-7.18084c3.96587,0 7.18084,3.21497 7.18084,7.18084c0,3.96587 -3.21497,7.18085 -7.18084,7.18085c-3.96587,0 -7.18084,-3.21498 -7.18084,-7.18085z" stroke="#000000" stroke-width="2.5" stroke-linecap="butt"/><path d="M422.96765,235.0732l1.10704,17.5323h-16.628l1.10703,-17.5323" stroke="#000000" stroke-width="2.5" stroke-linecap="round"/><path d="M408.73666,253.80797c0,-0.0021 0.16367,-6.24102 0.16367,-6.24102l13.69069,-0.05946c0,0 0.24742,6.29905 0.24742,6.30048c0,3.8941 -3.15679,7.05088 -7.05089,7.05088c-3.8941,0 -7.05088,-3.15678 -7.05088,-7.05088z" data-paper-data="{&quot;index&quot;:null}" stroke="none" stroke-width="0.5" stroke-linecap="butt"/></g></g><g><path d="M408.52248,254.64905c0,-3.99477 3.23841,-7.23318 7.23317,-7.23318c3.99477,0 7.23318,3.23843 7.23318,7.23318c0,3.99477 -3.23841,7.23318 -7.23318,7.23318c-3.99477,0 -7.23317,-3.23841 -7.23317,-7.23318z" fill="#4b4c4d" stroke="none" stroke-width="0" stroke-linecap="butt"/><path d="M424.16719,254.66538l0.79029,10.36805l-18.42352,0.67677l0.82022,-11.04483" fill="#4b4c4d" stroke="#000000" stroke-width="2.5" stroke-linecap="round"/><path d="M404.43196,270.41503l0.55352,-7.88766h21.72564l0.55352,7.88766z" fill="#686a6b" stroke="#000000" stroke-width="2.5" stroke-linecap="butt"/></g><path d="M463.03916,204.61927c-9.09955,1.53547 -16.95969,-0.08508 -17.55611,-3.61962c-0.59643,-3.53454 0.44324,-5.8166 5.50373,-6.39043c3.81037,-0.43207 13.60443,3.06675 13.60443,3.06675c0,0 7.54749,5.40782 -1.55205,6.9433z" data-paper-data="{&quot;index&quot;:null}" fill="#66bfff" stroke="#000000" stroke-width="2.5" stroke-linecap="butt"/><g stroke-width="2.5"><path d="M449.9528,237.71444c0,0 -2.96571,-7.20259 -1.19318,-22.50866c1.54129,-13.30926 5.58202,-20.94935 5.58202,-20.94935l16.07365,2.52181c0,0 -1.59598,8.34527 -0.53363,18.06456c1.18526,10.84389 5.39314,22.87165 5.39314,22.87165z" fill="#66bfff" stroke="#000000" stroke-linecap="butt"/><path d="M456.14559,234.55659c0,0 1.82541,-3.08819 2.79571,-7.23894c0.83691,-3.58013 1.45429,-8.01106 1.45429,-8.01106l7.16667,0.75c0,0 0.88077,4.91286 1.48186,7.34519c0.59325,2.40059 2.10148,7.15481 2.10148,7.15481z" fill="#66bfff" stroke="#5aafe0" stroke-linecap="butt"/><path d="M459.28521,213.99794c0,0 0.78179,-2.76004 0.95617,-4.43621c0.14041,-1.34965 0.04864,-3.93373 0.1759,-6.27042c0.14348,-2.63469 1.1932,-7.15829 1.1932,-7.15829" fill="none" stroke="#ffffff" stroke-linecap="round"/><path d="M466.19063,206.82577l0.37868,-10.00533" fill="none" stroke="#ffffff" stroke-linecap="round"/></g><path d="M24.50616,41.25849c0.31819,0.21008 -1.93596,3.74931 -2.14662,4.4866c-0.26555,0.92942 1.58053,-2.19021 1.24101,-2.23555c-0.18358,0.156 -0.44518,0.26715 -0.81791,0.26715c-0.82676,0 -1.1067,-0.54684 -1.20148,-0.91714c-10.07075,-3.85085 -15.73199,-14.38773 -14.51942,-25.10102c1.28931,-3.91947 2.50233,-7.83393 4.6595,-11.3921c6.31701,-10.41967 20.69547,-14.0835 32.00475,-14.08846c9.24953,-0.84181 19.58613,0.13905 28.26883,3.5873c1.92036,0.76265 4.23111,1.26626 5.9886,2.37633c2.17316,1.3726 4.12471,3.33466 6.18309,4.9012c1.17858,1.55557 1.76947,3.13993 2.52097,4.90553c1.05946,2.48912 2.64326,4.48079 3.30829,7.17704c1.16364,4.71785 -0.66918,9.62111 -2.86739,13.65283c-1.80803,3.3161 -4.086,11.37072 -7.73958,12.84667c-5.5251,1.1018 -5.25358,-8.54837 -9.41163,-10.57837c-6.88941,-3.36347 -13.34592,-7.14418 -21.28315,-7.12296c-4.85358,-0.69337 -10.90568,-0.19941 -14.89292,2.98902c-0.97425,0.77907 -1.77368,1.76589 -2.77061,2.51572c-1.54175,1.15962 -2.8927,1.91909 -3.91786,3.62776c-1.47646,2.46089 -2.04178,5.32939 -2.60648,8.10244z" fill="#000000" stroke="none" stroke-width="0.5" stroke-linecap="butt"/><g stroke-linecap="butt"><path d="M34.42359,348.87002c0,-3.93589 3.19067,-7.12656 7.12656,-7.12656c3.93589,0 7.12658,3.19067 7.12658,7.12656c0,0.00407 2.79888,3.88553 2.79888,3.88553l-17.25982,0.41532c0,0 0.20779,-4.29557 0.20779,-4.30086z" fill="#242525" stroke="#000000" stroke-width="5"/><path d="M32.14035,359.52402l0.6919,-9.27146l18.54291,0.13838l9.68658,9.13308z" fill="#242525" stroke="#000000" stroke-width="2.5"/><path d="M34.42359,348.87002c0,-3.93589 3.19067,-7.12656 7.12656,-7.12656c3.93589,0 7.12658,3.19067 7.12658,7.12656c0,0.00407 2.79888,3.88553 2.79888,3.88553l-17.25982,0.41532c0,0 0.20779,-4.29557 0.20779,-4.30086z" fill="#0a0b0b" stroke="none" stroke-width="0.5"/></g><g stroke="#000000" stroke-width="2.5"><g><g><path d="M33.83525,328.02342c0.05894,-4.62558 3.8565,-8.32758 8.48207,-8.26864c4.62558,0.05894 8.32758,3.85651 8.26864,8.48208c-0.05894,4.62558 -3.8565,8.32758 -8.48208,8.26864c-4.62558,-0.05894 -8.32756,-3.8565 -8.26862,-8.48208z" fill="#171818" stroke-linecap="butt"/><path d="M50.62125,328.25363l0.56246,17.88418l-18.43065,0.44198l1.05654,-18.54039" fill="#4b4c4d" stroke-linecap="round"/></g></g><path d="M30.59128,351.25745l0.65398,-7.87997l21.72388,0.27681l0.45297,7.89408z" fill="#686a6b" stroke-linecap="butt"/></g><g><path d="M35.37497,301.05064c0.05052,-3.96555 3.3062,-7.13929 7.27175,-7.08876c3.96555,0.05052 7.13929,3.3062 7.08877,7.27175c-0.05052,3.96555 -3.3062,7.1393 -7.27175,7.08878c-3.96555,-0.05052 -7.13929,-3.30622 -7.08877,-7.27177z" fill="#171818" stroke="#000000" stroke-width="2.5" stroke-linecap="butt"/><path d="M49.76574,301.248l0.78791,25.05189l-16.62664,-0.21187l1.42599,-25.02368" fill="#4b4c4d" stroke="#000000" stroke-width="2.5" stroke-linecap="round"/><path d="M35.20154,327.30681c0.00002,-0.0021 0.24318,-6.23843 0.24318,-6.23843l13.69034,0.11499c0,0 0.16715,6.30169 0.16712,6.30312c-0.04962,3.89378 -3.24638,7.01009 -7.14015,6.96047c-3.89378,-0.04962 -7.01009,-3.24636 -6.96047,-7.14014z" data-paper-data="{&quot;index&quot;:null}" fill="#4b4c4d" stroke="none" stroke-width="0.5" stroke-linecap="butt"/></g><path d="M44.60984,266.54796c-7.73307,1.53547 -14.41284,-0.08508 -14.91969,-3.61962c-0.50687,-3.53454 0.37668,-5.8166 4.67723,-6.39043c3.23816,-0.43207 11.56144,3.06675 11.56144,3.06675c0,0 6.41408,5.40782 -1.31898,6.9433z" data-paper-data="{&quot;index&quot;:null}" fill="#66bfff" stroke="#000000" stroke-width="2.5" stroke-linecap="butt"/><g stroke="#000000" stroke-width="2.5" stroke-linecap="butt"><path d="M47.53682,257.60669c-15.38873,0.89679 -28.59074,-10.85124 -29.48753,-26.23997c-0.89679,-15.38873 10.85124,-28.59074 26.23997,-29.48753c15.38873,-0.89679 28.59074,10.85124 29.48753,26.23997c0.89679,15.38873 -10.85125,28.59074 -26.23998,29.48753z" fill="#ffc99a"/><path d="M47.53682,257.60669c-15.38873,0.89679 -28.59074,-10.85124 -29.48753,-26.23997c-0.89679,-15.38873 10.85124,-28.59074 26.23997,-29.48753c15.38873,-0.89679 28.59074,10.85124 29.48753,26.23997c0.89679,15.38873 -10.85125,28.59074 -26.23998,29.48753z" fill="#582700"/></g><path d="M54.94684,233.41605c-0.15548,-5.35959 3.21726,-9.80588 7.53322,-9.93109c4.31595,-0.1252 7.94077,4.1181 8.09625,9.47769c0.15548,5.35959 -3.21726,9.80587 -7.53322,9.93108c-4.31596,0.1252 -7.94078,-4.11809 -8.09626,-9.47768z" data-paper-data="{&quot;index&quot;:null}" fill="#ffffff" stroke="#000000" stroke-width="2.5" stroke-linecap="butt"/><path d="M64.09418,233.40382c-0.05718,-1.97103 1.04155,-3.60208 2.45407,-3.64305c1.41253,-0.04098 2.60396,1.52363 2.66113,3.49466c0.05718,1.97103 -1.04155,3.60208 -2.45407,3.64305c-1.41253,0.04098 -2.60396,-1.52363 -2.66113,-3.49466z" data-paper-data="{&quot;index&quot;:null}" fill="#000000" stroke="none" stroke-width="0" stroke-linecap="butt"/><path d="M65.34955,250.00097c-5.90056,0.14481 -10.17783,-2.10923 -10.17783,-2.10923" data-paper-data="{&quot;index&quot;:null}" fill="none" stroke="#000000" stroke-width="2.5" stroke-linecap="round"/><g stroke-linecap="butt"><path d="M106.42359,164.38353c0,-3.93589 3.19067,-7.12656 7.12656,-7.12656c3.93589,0 7.12658,3.19067 7.12658,7.12656c0,0.00407 2.79888,3.88553 2.79888,3.88553l-17.25982,0.41532c0,0 0.20779,-4.29557 0.20779,-4.30086z" fill="#242525" stroke="#000000" stroke-width="5"/><path d="M104.14035,175.03753l0.6919,-9.27146l18.54291,0.13838l9.68658,9.13308z" fill="#242525" stroke="#000000" stroke-width="2.5"/><path d="M106.42359,164.38353c0,-3.93589 3.19067,-7.12656 7.12656,-7.12656c3.93589,0 7.12658,3.19067 7.12658,7.12656c0,0.00407 2.79888,3.88553 2.79888,3.88553l-17.25982,0.41532c0,0 0.20779,-4.29557 0.20779,-4.30086z" fill="#0a0b0b" stroke="none" stroke-width="0.5"/></g><g stroke="#000000" stroke-width="2.5"><g><g><path d="M108.26118,143.18759c0.29466,-4.61656 4.276,-8.12016 8.89255,-7.8255c4.61656,0.29466 8.12016,4.27601 7.8255,8.89256c-0.29466,4.61656 -4.276,8.12016 -8.89256,7.8255c-4.61656,-0.29466 -8.12015,-4.276 -7.82549,-8.89256z" fill="#171818" stroke-linecap="butt"/><path d="M125.01361,144.2732l-0.34994,17.8896l-18.42922,-0.49813l2.00029,-18.46242" fill="#4b4c4d" stroke-linecap="round"/></g></g><path d="M103.83703,166.22604l1.05482,-7.83638l21.68152,1.38386l0.04997,7.9069z" fill="#686a6b" stroke-linecap="butt"/></g><g><path d="M111.17386,116.32838c0.25261,-3.95782 3.66584,-6.96147 7.62366,-6.70886c3.95782,0.25261 6.96147,3.66584 6.70886,7.62366c-0.25261,3.95782 -3.66584,6.96148 -7.62366,6.70887c-3.95782,-0.25261 -6.96147,-3.66585 -6.70886,-7.62367z" fill="#171818" stroke="#000000" stroke-width="2.5" stroke-linecap="butt"/><path d="M125.53586,117.25908l-0.49017,25.05948l-16.59423,-1.05916l2.69975,-24.91845" fill="#4b4c4d" stroke="#000000" stroke-width="2.5" stroke-linecap="round"/><path d="M109.66222,142.54158c0.00013,-0.0021 0.56087,-6.21792 0.56087,-6.21792l13.66668,0.81272c0,0 -0.15431,6.30202 -0.15441,6.30345c-0.24804,3.88619 -3.5995,6.83548 -7.48569,6.58744c-3.88619,-0.24804 -6.83548,-3.59949 -6.58744,-7.48568z" data-paper-data="{&quot;index&quot;:null}" fill="#4b4c4d" stroke="none" stroke-width="0.5" stroke-linecap="butt"/></g><g stroke-linecap="butt"><path d="M126.42358,164.38353c0,-3.93589 3.19067,-7.12656 7.12656,-7.12656c3.93589,0 7.12658,3.19067 7.12658,7.12656c0,0.00407 2.79888,3.88553 2.79888,3.88553l-17.25982,0.41532c0,0 0.20779,-4.29557 0.20779,-4.30086z" fill="#242525" stroke="#000000" stroke-width="5"/><path d="M124.14035,175.03754l0.6919,-9.27146l18.54291,0.13838l9.68658,9.13308z" fill="#242525" stroke="#000000" stroke-width="2.5"/><path d="M126.42358,164.38353c0,-3.93589 3.19067,-7.12656 7.12656,-7.12656c3.93589,0 7.12658,3.19067 7.12658,7.12656c0,0.00407 2.79888,3.88553 2.79888,3.88553l-17.25982,0.41532c0,0 0.20779,-4.29557 0.20779,-4.30086z" fill="#0a0b0b" stroke="none" stroke-width="0.5"/></g><g stroke="#000000" stroke-width="2.5"><g><g><path d="M124.98162,144.2029c-0.30104,-4.61614 3.19706,-8.60233 7.8132,-8.90336c4.61614,-0.30104 8.60233,3.19707 8.90336,7.81321c0.30104,4.61614 -3.19706,8.60233 -7.81321,8.90336c-4.61614,0.30104 -8.60232,-3.19706 -8.90335,-7.81321z" fill="#171818" stroke-linecap="butt"/><path d="M141.73466,143.12671l1.95189,17.78624l-18.34043,1.87426l-0.38883,-18.56639" fill="#4b4c4d" stroke-linecap="round"/></g></g><path d="M123.55476,167.61885l0.03905,-7.90696l21.67959,-1.41382l1.06564,7.83492z" fill="#686a6b" stroke-linecap="butt"/></g><g><path d="M124.41858,117.19208c-0.25808,-3.95746 2.74085,-7.37484 6.69832,-7.63292c3.95746,-0.25808 7.37484,2.74085 7.63292,6.69832c0.25808,3.95746 -2.74085,7.37485 -6.69832,7.63293c-3.95746,0.25808 -7.37484,-2.74086 -7.63292,-6.69833z" fill="#171818" stroke="#000000" stroke-width="2.5" stroke-linecap="butt"/><path d="M138.78112,116.26947l2.73418,24.91469l-16.59275,1.08208l-0.52481,-25.05877" fill="#4b4c4d" stroke="#000000" stroke-width="2.5" stroke-linecap="round"/><path d="M126.28802,143.3822c-0.00014,-0.0021 -0.24282,-6.23844 -0.24282,-6.23844l13.6578,-0.95027c0,0 0.65681,6.2696 0.65691,6.27102c0.25341,3.88585 -2.69126,7.24137 -6.5771,7.49478c-3.88585,0.25341 -7.24137,-2.69125 -7.49478,-6.57709z" data-paper-data="{&quot;index&quot;:null}" fill="#4b4c4d" stroke="none" stroke-width="0.5" stroke-linecap="butt"/></g><path d="M110.31589,115.15665l5.06349,-46.45801l18.5445,2.52181l5.60652,43.93621z" fill="#66bfff" stroke="#000000" stroke-width="2.5" stroke-linecap="butt"/><path d="M127.45943,81.248c-9.46286,2.64263 -17.96614,1.80521 -18.99262,-1.87045c-1.02648,-3.67566 -0.18072,-6.20806 5.11311,-7.38114c3.98607,-0.88329 14.74687,1.7267 14.74687,1.7267c0,0 8.59549,4.88226 -0.86736,7.5249z" data-paper-data="{&quot;index&quot;:null}" fill="#66bfff" stroke="#000000" stroke-width="2.5" stroke-linecap="butt"/><g stroke="#000000" stroke-width="2.5" stroke-linecap="butt"><path d="M129.53681,73.12021c-15.38873,0.89679 -28.59074,-10.85124 -29.48753,-26.23997c-0.89679,-15.38873 10.85124,-28.59074 26.23997,-29.48753c15.38873,-0.89679 28.59074,10.85124 29.48753,26.23997c0.89679,15.38873 -10.85125,28.59074 -26.23998,29.48753z" fill="#ffc99a"/><path d="M129.53681,73.12021c-15.38873,0.89679 -28.59074,-10.85124 -29.48753,-26.23997c-0.89679,-15.38873 10.85124,-28.59074 26.23997,-29.48753c15.38873,-0.89679 28.59074,10.85124 29.48753,26.23997c0.89679,15.38873 -10.85125,28.59074 -26.23998,29.48753z" fill="#582700"/></g><text transform="translate(366.74523,118.05981) scale(0.2033,0.2033)" font-size="40" xml:space="preserve" fill="#000000" fill-rule="nonzero" stroke="none" stroke-width="1" stroke-linecap="butt" stroke-linejoin="miter" stroke-miterlimit="10" stroke-dasharray="" stroke-dashoffset="0" font-family="Marker" font-weight="normal" text-anchor="start" style="mix-blend-mode: normal"><tspan x="0" dy="0">Sad</tspan></text><text transform="translate(324.3422,118.66969) scale(0.2033,0.2033)" font-size="40" xml:space="preserve" fill="#000000" fill-rule="nonzero" stroke="none" stroke-width="1" stroke-linecap="butt" stroke-linejoin="miter" stroke-miterlimit="10" stroke-dasharray="" stroke-dashoffset="0" font-family="Marker" font-weight="normal" text-anchor="start" style="mix-blend-mode: normal"><tspan x="0" dy="0">Neutral</tspan></text><text transform="translate(291.61226,118.66969) scale(0.2033,0.2033)" font-size="40" xml:space="preserve" fill="#000000" fill-rule="nonzero" stroke="none" stroke-width="1" stroke-linecap="butt" stroke-linejoin="miter" stroke-miterlimit="10" stroke-dasharray="" stroke-dashoffset="0" font-family="Marker" font-weight="normal" text-anchor="start" style="mix-blend-mode: normal"><tspan x="0" dy="0">Happy</tspan></text><text transform="translate(395.94716,118.66969) scale(0.2033,0.2033)" font-size="40" xml:space="preserve" fill="#000000" fill-rule="nonzero" stroke="none" stroke-width="1" stroke-linecap="butt" stroke-linejoin="miter" stroke-miterlimit="10" stroke-dasharray="" stroke-dashoffset="0" font-family="Marker" font-weight="normal" text-anchor="start" style="mix-blend-mode: normal"><tspan x="0" dy="0">Excited</tspan></text><text transform="translate(436.7693,118.66969) scale(0.2033,0.2033)" font-size="40" xml:space="preserve" fill="#000000" fill-rule="nonzero" stroke="none" stroke-width="1" stroke-linecap="butt" stroke-linejoin="miter" stroke-miterlimit="10" stroke-dasharray="" stroke-dashoffset="0" font-family="Marker" font-weight="normal" text-anchor="start" style="mix-blend-mode: normal"><tspan x="0" dy="0">Angry</tspan></text><path d="M389.97409,52.01378c-0.70797,1.91817 -2.22649,3.05324 -3.39168,2.53525c-1.16519,-0.51799 -1.53586,-2.49288 -0.82788,-4.41105c0.70797,-1.91817 2.22649,-3.05324 3.39168,-2.53525c1.16519,0.51799 1.53586,2.49288 0.82788,4.41105z" fill="#000000" stroke="#000000" stroke-width="2.5" stroke-linecap="butt"/><path d="M353.20627,53.03023c-0.70797,1.91817 -2.22649,3.05325 -3.39168,2.53527c-1.16519,-0.51799 -1.53586,-2.49289 -0.82789,-4.41106c0.70797,-1.91817 2.22649,-3.05324 3.39169,-2.53525c1.16519,0.51799 1.53584,2.49288 0.82788,4.41105z" fill="#000000" stroke="#000000" stroke-width="2.5" stroke-linecap="butt"/><path d="M387.81499,38.38223l-22.99122,-1.23199c0,0 2.39652,-4.71896 9.84608,-4.31977c7.44956,0.39919 13.14514,5.55176 13.14514,5.55176z" data-paper-data="{&quot;index&quot;:null}" fill="#ffffff" stroke="#000000" stroke-width="2.5" stroke-linecap="butt"/><path d="M352.32466,36.6908c0,1.27839 -5.18331,2.31472 -11.57724,2.31472c-6.39393,0 -11.57724,-1.03634 -11.57724,-2.31472c0,-1.27839 5.18331,-2.31471 11.57724,-2.31471c6.39393,0 11.57724,1.03633 11.57724,2.31471z" fill="#ffffff" stroke="#000000" stroke-width="2.5" stroke-linecap="butt"/><path d="M300.45162,38.87397c-7.42946,-0.45623 -7.84359,-4.94632 -7.84359,-4.94632l22.92914,1.40805c0,0 -7.6561,3.99451 -15.08555,3.53829z" fill="#ffffff" stroke="#000000" stroke-width="2.5" stroke-linecap="butt"/><path d="M317.36462,52.62364c-0.70797,1.91817 -2.22649,3.05325 -3.39168,2.53527c-1.16519,-0.51799 -1.53585,-2.49289 -0.82788,-4.41106c0.70797,-1.91817 2.22648,-3.05324 3.39168,-2.53525c1.16519,0.51799 1.53586,2.49288 0.82788,4.41105z" fill="#000000" stroke="#000000" stroke-width="2.5" stroke-linecap="butt"/><g stroke="#000000" stroke-width="2.5" stroke-linecap="butt"><path d="M300.45162,87.82667c-7.42946,-0.69128 -7.84359,-7.49448 -7.84359,-7.49448l22.92914,2.13342c0,0 -7.6561,6.05232 -15.08555,5.36106z" fill="#ffffff"/><path d="M307.21306,84.6593c-0.05516,1.00866 -2.12805,1.69279 -4.62997,1.52804c-2.50192,-0.16475 -4.48544,-1.11598 -4.43028,-2.12464c0.05516,-1.00866 2.12806,-1.69279 4.62999,-1.52804c2.50192,0.16475 4.48543,1.11597 4.43027,2.12463z" fill="#ff8484"/></g><g stroke="#000000" stroke-width="2.5" stroke-linecap="butt"><path d="M350.47231,84.64449c0,1.85254 -5.18331,3.35431 -11.57724,3.35431c-6.39393,0 -11.57724,-1.50177 -11.57724,-3.35431c0,-1.85254 5.18331,-3.3543 11.57724,-3.3543c6.39393,0 11.57724,1.50177 11.57724,3.3543z" fill="#ffffff"/><path d="M343.06189,84.66393c0.01916,1.01025 -1.99672,1.87564 -4.50259,1.93288c-2.50588,0.05724 -4.55284,-0.71533 -4.572,-1.72558c-0.01916,-1.01025 1.99671,-1.87564 4.50259,-1.93287c2.50588,-0.05724 4.55284,0.71533 4.572,1.72558z" fill="#ff8484"/></g><g stroke="#000000" stroke-width="2.5" stroke-linecap="butt"><path d="M386.70357,87.84229l-22.99121,-1.82923c0,0 2.39651,-7.00661 9.84607,-6.41392c7.44956,0.5927 13.14514,8.24314 13.14514,8.24314z" data-paper-data="{&quot;index&quot;:null}" fill="#ffffff"/><path d="M379.82254,84.04942c-0.05516,1.00866 -2.12805,1.69279 -4.62998,1.52804c-2.50193,-0.16475 -4.48543,-1.11598 -4.43029,-2.12465c0.05516,-1.00866 2.12806,-1.69279 4.62998,-1.52804c2.50192,0.16475 4.48543,1.11598 4.43029,2.12464z" fill="#ff8484"/></g><g stroke="#000000" stroke-width="2.5"><path d="M296.58889,66.86404c-3.72463,-1.20073 -3.98084,-3.56992 -3.98084,-3.56992l22.92913,1.2009c0,0 -3.55677,1.5827 -8.17427,2.46738c-0.15445,0.02959 -1.75135,-0.30679 -3.29113,-0.31008c-1.01604,-0.00217 -2.21638,0.33159 -2.21638,0.33159c0,0 -1.0571,-0.354 -2.22433,-0.37534c-1.40506,-0.02569 -2.96972,0.27883 -3.04217,0.25547z" fill="#ffffff" stroke-linecap="butt"/><path d="M302.21986,66.98269l2.0376,1.18344" fill="none" stroke-linecap="round"/><path d="M309.25883,68.33519l-2.0376,-1.18344" fill="none" stroke-linecap="round"/><path d="M297.03326,66.64457l-2.03759,1.18345" data-paper-data="{&quot;index&quot;:null}" fill="none" stroke-linecap="round"/></g><g stroke="#000000" stroke-width="2.5"><path d="M340.0991,68.50425l-2.03759,-1.18344" fill="none" stroke-linecap="round"/><path d="M346.58235,68.33519l-2.0376,-1.18344" fill="none" stroke-linecap="round"/><path d="M332.87489,66.98269l-2.03759,1.18344" data-paper-data="{&quot;index&quot;:null}" fill="none" stroke-linecap="round"/><path d="M350.65754,65.27423c0,0.84083 -2.1446,1.57925 -5.37652,1.99912c-0.08994,0.01168 -1.8829,-0.57992 -3.34264,-0.49479c-1.59213,0.09286 -2.85808,0.86254 -2.85808,0.86254c0,0 -1.85791,-0.97289 -3.79098,-1.09661c-1.68063,-0.10756 -3.46328,0.6331 -3.56245,0.61775c-2.79115,-0.43215 -4.22382,-1.11703 -4.22382,-1.88803c0,-1.30719 5.1833,-2.36688 11.57723,-2.36688c6.39393,0 11.57724,1.05969 11.57724,2.36688z" fill="#ffffff" stroke-linecap="butt"/></g><g stroke="#000000" stroke-width="2.5"><path d="M374.82933,66.47549l2.03759,1.18345" fill="none" stroke-linecap="round"/><path d="M382.60922,67.82797l-2.03759,-1.18344" fill="none" stroke-linecap="round"/><path d="M369.64272,66.13738l-2.03759,1.18344" data-paper-data="{&quot;index&quot;:null}" fill="none" stroke-linecap="round"/><path d="M386.88881,67.17283l-5.55876,-0.30458c0,0 -1.60373,-0.58491 -2.41117,-0.62915c-0.96372,-0.0528 -2.9857,0.33344 -2.9857,0.33344c0,0 -2.4841,-0.6433 -3.70249,-0.71006c-1.18763,-0.06508 -3.51792,0.31443 -3.51792,0.31443l-4.81518,-0.26382c0,0 2.3965,-3.81091 9.84607,-3.40273c7.44956,0.40818 13.14515,4.66248 13.14515,4.66248z" data-paper-data="{&quot;index&quot;:null}" fill="#ffffff" stroke-linecap="butt"/></g><g stroke="#000000" stroke-width="2.5" stroke-linecap="butt"><path d="M301.0673,107.90915c-7.42946,-0.69266 -7.84357,-7.50957 -7.84357,-7.50957l22.92913,2.13772c0,0 -7.65609,6.06452 -15.08555,5.37185z" fill="#000000"/><path d="M301.0673,107.90915c-3.55849,-0.33176 -5.50757,-2.06852 -6.57261,-3.78825c-0.00684,-0.01105 4.6065,-1.6936 7.3712,-2.15858c2.31284,-0.38899 4.94316,-0.02738 6.11909,0.36632c1.50876,0.50513 -2.88684,2.34489 -3.50777,3.54307c-0.51378,0.99144 0.61905,1.82201 0.55984,1.83275c-1.3003,0.23597 -2.63866,0.32877 -3.96975,0.20468z" fill="#ff8484"/></g><g stroke="#000000" stroke-width="2.5" stroke-linecap="butt"><path d="M300.14112,23.72127c-7.42946,-1.0091 -7.84357,-10.94034 -7.84357,-10.94034l22.92913,3.11434c0,0 -7.65609,8.83511 -15.08555,7.82601z" fill="#000000"/><path d="M300.14112,23.72125c-3.55849,-0.48333 -5.50757,-3.01353 -6.57261,-5.51892c-0.01257,-0.02956 3.12876,-0.31624 5.71038,0.94294c2.75718,1.34481 4.96276,4.24322 4.83198,4.2778c-1.3003,0.34377 -2.63867,0.47898 -3.96975,0.29818z" fill="#ff8484"/></g><g stroke="#000000" stroke-width="2.5" stroke-linecap="butt"><path d="M386.3331,107.35828l-22.99121,-1.78431c0,0 2.39651,-6.83456 9.84608,-6.25642c7.44956,0.57815 13.14514,8.04073 13.14514,8.04073z" data-paper-data="{&quot;index&quot;:null}" fill="#000000"/><path d="M374.84972,106.43948l-11.50783,-0.86551c0,0 -0.06752,-0.37577 1.15308,-1.85035c0.13513,-0.16325 6.67967,-3.28991 8.50257,-3.6009c1.8229,-0.31099 4.81739,-0.60111 4.38249,0.9947c-0.13797,0.50624 -1.50525,1.27183 -1.98138,2.24569c-0.69973,1.43117 -0.54892,3.07637 -0.54892,3.07637z" data-paper-data="{&quot;index&quot;:null}" fill="#ff8484"/></g><g stroke="#000000" stroke-width="2.5" stroke-linecap="butt"><path d="M388.92641,23.80545l-22.99123,-2.503c0,0 2.39651,-9.58741 9.84608,-8.7764c7.44956,0.81101 13.14515,11.2794 13.14515,11.2794z" data-paper-data="{&quot;index&quot;:null}" fill="#000000"/><path d="M377.44302,22.51659l-11.50784,-1.21412c0,0 0.48819,-1.953 1.70878,-4.02152c0.58643,-0.99381 4.75993,-0.75246 6.65022,0.36704c2.89258,1.71308 3.14884,4.86861 3.14884,4.86861z" data-paper-data="{&quot;index&quot;:null}" fill="#ff8484"/></g><g stroke="#000000" stroke-width="2.5" stroke-linecap="butt"><path d="M351.95419,20.60762c0,2.52618 -5.1833,4.57407 -11.57723,4.57407c-6.39393,0 -11.57724,-2.04788 -11.57724,-4.57406c0,-2.52618 5.18331,-4.57406 11.57724,-4.57406c6.39393,0 11.57723,2.04788 11.57723,4.57407z" fill="#000000"/><path d="M340.37695,25.18171c-5.00025,0 -9.26013,-1.25243 -10.8796,-3.0066c-0.20256,-0.21939 2.94128,-2.27925 5.91089,-1.56988c3.64806,0.87144 7.1275,4.57648 4.96871,4.57648z" fill="#ff8484"/></g><g stroke="#000000" stroke-width="2.5" stroke-linecap="butt"><path d="M351.21325,103.44895c0,1.7964 -5.18331,3.25267 -11.57725,3.25267c-6.39393,0 -11.57724,-1.45626 -11.57724,-3.25267c0,-1.7964 5.18331,-3.25266 11.57724,-3.25266c6.39393,0 11.57725,1.45626 11.57725,3.25266z" fill="#000000"/><path d="M339.63601,106.70162c-5.00025,0 -9.26011,-0.89061 -10.87959,-2.13802c-0.13007,-0.10018 3.73953,-2.72676 7.84235,-3.87825c2.28647,-0.64172 5.15621,-0.26471 6.21891,-0.08419c2.03769,0.34615 -1.85439,1.39578 -3.12016,2.97291c-1.00032,1.2464 0.89144,3.12756 -0.06151,3.12756z" fill="#ff8484"/></g><g data-paper-data="{&quot;index&quot;:null}" stroke="#000000" stroke-width="2.5" stroke-linecap="butt"><path d="M411.78161,30.50087c-15.74615,-0.2213 -11.53793,-16.66559 -11.53793,-16.66559l23.44225,0.12193c0,0 4.76662,16.77796 -11.90432,16.54367z" fill="#000000"/><path d="M409.85914,25.59966c4.31115,1.3247 7.63412,4.14698 6.95221,4.33434c-1.40911,0.38717 -3.07153,0.59437 -5.02974,0.56686c-5.86885,-0.08247 -8.96569,-2.41863 -10.54158,-5.31701c-0.30615,-0.56308 4.66022,-0.80065 8.6191,0.41581z" fill="#ff8484"/><path d="M399.92984,19.38243c0.07569,-2.26639 0.31383,-5.54715 0.31383,-5.54715l20.60234,0.10716l0.06137,5.70694c0,0 -20.98005,-0.19224 -20.97755,-0.26694z" fill="#ffffff"/></g><g stroke="#000000" stroke-width="2.5" stroke-linecap="butt"><g data-paper-data="{&quot;index&quot;:null}" fill="#000000"><path d="M412.70779,41.88517c-18.7066,-0.33863 -11.72316,-7.51747 -11.72316,-7.51747l23.44226,0.12192c0,0 5.85381,7.5488 -11.71909,7.39555z"/></g><g data-paper-data="{&quot;index&quot;:null}" fill="#ffffff"><path d="M412.70779,41.88517c-18.7066,-0.33863 -11.72316,-7.51747 -11.72316,-7.51747c0,0 15.85942,0.08249 19.8172,0.10308c0.00546,0.00003 -1.2692,1.80736 -1.26295,3.62116c0.00512,1.48557 1.29633,3.04239 1.26256,3.05104c-1.88475,0.48264 -4.49911,0.77356 -8.09366,0.74221z"/></g></g><path d="M424.33384,52.01378c-0.70797,1.91817 -2.22648,3.05324 -3.39168,2.53525c-1.16519,-0.51799 -1.53586,-2.49288 -0.82788,-4.41105c0.70797,-1.91817 2.22648,-3.05324 3.39168,-2.53525c1.16519,0.51799 1.53587,2.49288 0.82789,4.41105z" fill="#000000" stroke="#000000" stroke-width="2.5" stroke-linecap="butt"/><g data-paper-data="{&quot;index&quot;:null}" stroke="#000000" stroke-width="2.5" stroke-linecap="butt"><path d="M411.59637,107.14178c-15.74615,-0.22128 -11.53793,-13.00634 -11.53793,-13.00634l23.44225,0.12192c0,0 4.76662,13.11871 -11.90433,12.88442z" fill="#000000"/><path d="M412.45245,98.37803c3.72667,0.36617 2.87184,2.60894 3.04742,4.53647c0.16717,1.83525 1.45885,3.36574 1.12627,3.45712c-1.40911,0.38717 -3.07153,0.59437 -5.02975,0.56685c-5.86885,-0.08248 -8.96569,-2.41862 -10.54158,-5.31701c-0.13093,-0.24083 2.27028,0.20268 3.98863,-0.5436c2.29941,-0.99863 4.40122,-3.16334 7.40902,-2.69983z" fill="#ff8484"/><path d="M399.7446,99.68259c0.07569,-2.26639 0.31384,-5.54716 0.31384,-5.54716l20.60234,0.10715l0.06137,5.70694c0,0 -20.98004,-0.19223 -20.97756,-0.26694z" fill="#ffffff"/></g><g stroke="#000000" stroke-width="2.5" stroke-linecap="butt"><g><g data-paper-data="{&quot;index&quot;:null}" fill="#000000"><path d="M412.70779,88.64181c-18.7066,-0.40272 -11.72316,-8.94008 -11.72316,-8.94008l23.44226,0.145c0,0 5.85381,8.97733 -11.71909,8.79509z"/></g><g data-paper-data="{&quot;index&quot;:null}" fill="#ffffff"><path d="M412.70779,88.64181c-18.7066,-0.40272 -11.72316,-8.94008 -11.72316,-8.94008c0,0 15.85942,0.09808 19.8172,0.12257c0.00546,0.00004 -1.2692,2.14938 -1.26295,4.30642c0.00512,1.76671 1.29633,3.61814 1.26256,3.62842c-1.88475,0.57398 -4.49911,0.91994 -8.09366,0.88267z"/></g></g><path d="M418.44252,84.40351c-0.06424,1.17485 -2.47866,1.97169 -5.39279,1.77979c-2.91414,-0.1919 -5.22444,-1.29984 -5.16021,-2.47469c0.06424,-1.17485 2.47867,-1.97169 5.3928,-1.7798c2.91414,0.1919 5.22444,1.29985 5.1602,2.47469z" fill="#ff8484"/></g><g><path d="M412.65074,68.9924l1.66713,1.21975" fill="none" stroke="#000000" stroke-width="2.5" stroke-linecap="round"/><path d="M421.17159,69.80554l-1.66712,-1.21974" fill="none" stroke="#000000" stroke-width="2.5" stroke-linecap="round"/><g><g stroke-linecap="butt"><g data-paper-data="{&quot;index&quot;:null}" fill="#000000" stroke="#000000" stroke-width="2.5"><path d="M412.70779,69.12626c-0.00941,-0.00017 -2.04969,-1.49007 -4.31887,-1.74508c-2.01537,-0.22648 -4.28953,0.77872 -4.29997,0.77587c-7.49015,-2.03972 -3.10432,-6.54825 -3.10432,-6.54825l23.44226,0.12192c0,0 4.07817,5.25898 -4.79166,6.90887c-0.05446,0.01013 -1.94879,-0.88265 -3.65601,-0.76252c-1.68397,0.11849 -3.18086,1.24999 -3.27142,1.2492z"/></g><g data-paper-data="{&quot;index&quot;:null}" fill="none" stroke="none" stroke-width="1" font-family="sans-serif" font-weight="normal" font-size="12" text-anchor="start"/></g><path d="M402.46277,69.19567l1.85235,-1.21975" fill="none" stroke="#000000" stroke-width="2.5" stroke-linecap="round"/><g stroke-linecap="butt"><g data-paper-data="{&quot;index&quot;:null}" fill="#ffffff" stroke="#000000" stroke-width="2.5"><path d="M412.70779,69.12626c-0.00941,-0.00017 -2.04969,-1.49007 -4.31887,-1.74508c-2.01537,-0.22648 -4.28953,0.77872 -4.29997,0.77587c-7.49015,-2.03972 -3.10432,-6.54825 -3.10432,-6.54825c0,0 14.95787,0.0778 19.07365,0.0992c0.02967,0.00015 -1.11834,1.70066 -1.19633,3.41712c-0.07889,1.73623 0.91125,3.4888 0.77328,3.51447c-0.05446,0.01013 -1.94879,-0.88265 -3.65601,-0.76252c-1.68397,0.11849 -3.18086,1.24999 -3.27142,1.2492z"/></g><g data-paper-data="{&quot;index&quot;:null}" fill="none" stroke="none" stroke-width="1" font-family="sans-serif" font-weight="normal" font-size="12" text-anchor="start"/></g></g></g><g data-paper-data="{&quot;index&quot;:null}" stroke="#000000" stroke-width="2.5" stroke-linecap="butt"><g data-paper-data="{&quot;index&quot;:null}" fill="#000000"><path d="M460.17739,41.76558l-23.44225,0.12192c0,0 -6.98343,-7.17885 11.72316,-7.51747c17.57292,-0.15324 11.71909,7.39555 11.71909,7.39555z"/></g><g data-paper-data="{&quot;index&quot;:null}" fill="#ffffff"><path d="M456.55195,35.11224c0.03376,0.00864 -1.25743,1.56546 -1.26254,3.05103c-0.00625,1.81379 1.2684,3.62112 1.26294,3.62116c-3.95778,0.02058 -19.81721,0.10307 -19.81721,0.10307c0,0 -6.98343,-7.17885 11.72316,-7.51747c3.59454,-0.03135 6.20889,0.25957 8.09365,0.74222z"/></g></g><path d="M460.45482,52.01378c-0.70797,1.91817 -2.22648,3.05324 -3.39168,2.53525c-1.16519,-0.51799 -1.53586,-2.49288 -0.82788,-4.41105c0.70797,-1.91817 2.22648,-3.05324 3.39168,-2.53525c1.16519,0.51799 1.53586,2.49288 0.82788,4.41105z" fill="#000000" stroke="#000000" stroke-width="2.5" stroke-linecap="butt"/><g stroke="#000000" stroke-width="2.5" stroke-linecap="butt"><path d="M459.62168,29.97479l-23.44225,0.12192c0,0 -4.20823,-16.44428 11.53791,-16.66558c16.67095,-0.23429 11.90434,16.54366 11.90434,16.54366z" fill="#000000"/><path d="M436.72043,19.69621c1.39995,-3.32047 4.4998,-6.17378 10.99692,-6.26509c4.3184,-0.06068 7.19832,1.02014 9.09525,2.65518c0.00902,0.00778 -0.05414,3.24443 -0.05414,3.24443c0,0 -20.04257,0.37623 -20.03804,0.36548z" fill="#ffffff"/><path d="M448.03198,30.03507c-3.9287,0.02043 -11.85256,0.06164 -11.85256,0.06164c0,0 -0.36355,-2.03047 -0.47711,-4.04221c-0.00985,-0.17449 3.66488,-0.29205 6.57196,0.51176c3.42425,0.94682 6.14229,3.46681 5.7577,3.4688z" fill="#ff8484"/></g><g stroke="#000000" stroke-width="2.5" stroke-linecap="butt"><g data-paper-data="{&quot;index&quot;:null}"><g data-paper-data="{&quot;index&quot;:null}" fill="#000000"><path d="M460.54786,88.49956l-23.44226,0.145c0,0 -6.98342,-8.53737 11.72318,-8.94008c17.57292,-0.18225 11.71909,8.79508 11.71909,8.79508z"/></g><g data-paper-data="{&quot;index&quot;:null}" fill="#ffffff"><path d="M456.92242,80.58715c0.03376,0.01028 -1.25744,1.86171 -1.26256,3.62841c-0.00625,2.15703 1.26841,4.30638 1.26295,4.30642c-3.95778,0.02448 -19.81721,0.12258 -19.81721,0.12258c0,0 -6.98343,-8.53736 11.72317,-8.94008c3.59454,-0.03727 6.20889,0.30869 8.09365,0.88267z"/></g></g><path d="M449.40331,86.41747c-2.91413,0.1919 -5.32857,-0.60495 -5.3928,-1.77979c-0.06424,-1.17485 2.24606,-2.28279 5.1602,-2.47469c2.91413,-0.1919 5.32857,0.60493 5.3928,1.77978c0.06424,1.17485 -2.24607,2.2828 -5.16021,2.47469z" data-paper-data="{&quot;index&quot;:null}" fill="#ff8484"/></g><g stroke="#000000" stroke-width="2.5" stroke-linecap="butt"><path d="M459.62168,106.23143l-23.44225,0.09962c0,0 -4.20823,-13.43584 11.53791,-13.61665c16.67095,-0.19142 11.90434,13.51704 11.90434,13.51704z" fill="#000000"/><path d="M450.99575,106.28068c-3.9287,0.01669 -14.81633,0.05036 -14.81633,0.05036c0,0 -0.36354,-1.659 -0.47711,-3.30269c-0.00476,-0.06889 2.00654,0.19702 4.60604,-1.53672c2.77992,-1.85407 3.24216,-5.09316 7.70823,-4.75377c6.09488,0.41443 2.9296,2.28175 2.45993,4.87038c-0.40703,2.24338 0.6978,4.67169 0.51923,4.67244z" fill="#ff8484"/><path d="M436.72043,97.83328c1.39995,-2.713 4.4998,-5.0443 10.99692,-5.1189c4.3184,-0.04958 7.19832,0.83351 9.09525,2.16942c0.00902,0.00635 -0.05414,2.65087 -0.05414,2.65087c0,0 -20.04257,0.30739 -20.03804,0.29861z" fill="#ffffff"/></g><g stroke="#000000" stroke-width="2.5"><path d="M460.17739,69.20991l-3.07256,0.01597c0,0 -2.23086,-1.20814 -4.25769,-1.19761c-1.97879,0.01029 -4.0751,1.24095 -4.0751,1.24095c0,0 -2.51456,-1.40996 -4.81779,-1.39798c-2.06149,0.01072 -4.07509,1.44423 -4.07509,1.44423l-3.14404,0.01635c0,0 -6.98343,-7.17884 11.72316,-7.51746c17.57292,-0.15325 11.71909,7.39555 11.71909,7.39555z" fill="#000000" stroke-linecap="butt"/><path d="M449.11904,69.55146l1.5282,1.1181" fill="none" stroke-linecap="round"/><path d="M457.10733,69.44979l1.66712,0.91482" fill="none" stroke-linecap="round"/><path d="M438.21328,70.77119l1.85237,-1.72798" fill="none" stroke-linecap="round"/><path d="M455.84973,68.66593c-0.82365,-0.3144 -1.9411,-0.64314 -3.00258,-0.63762c-1.97879,0.01029 -4.0751,1.24094 -4.0751,1.24094c0,0 -2.51456,-1.40995 -4.81779,-1.39798c-2.06149,0.01072 -4.07509,1.44423 -4.07509,1.44423l-3.14404,0.01635c0,0 -6.98343,-7.17884 11.72316,-7.51747c3.32256,-0.02898 5.80767,0.2174 7.65319,0.63601c0.02132,0.00483 -1.29494,1.53452 -1.34192,3.07503c-0.04823,1.58195 1.17133,3.17531 1.08015,3.14051z" fill="#ffffff" stroke-linecap="butt"/></g><g fill="#242525" stroke-linecap="butt"><path d="M336.36265,275.25232c0.03783,-3.93571 3.25901,-7.09557 7.19472,-7.05774c3.93571,0.03783 7.09559,3.25901 7.05776,7.19472c-0.00004,0.00407 2.76141,3.91224 2.76141,3.91224l-17.26301,0.24943c0,0 0.24906,-4.29337 0.24911,-4.29866z" stroke="#000000" stroke-width="5"/><path d="M333.97712,285.88389l0.78096,-9.26439l18.54072,0.31657l9.59837,9.22574z" stroke="#000000" stroke-width="2.5"/><path d="M336.36265,275.25232c0.03783,-3.93571 3.25901,-7.09557 7.19472,-7.05774c3.93571,0.03783 7.09559,3.25901 7.05776,7.19472c-0.00004,0.00407 2.76141,3.91224 2.76141,3.91224l-17.26301,0.24943c0,0 0.24906,-4.29337 0.24911,-4.29866z" stroke="none" stroke-width="0.5"/></g><g stroke="#000000" stroke-width="2.5"><g fill="#4b4c4d"><g><path d="M339.94599,251.68284c1.35072,-4.42436 6.03236,-6.91606 10.45672,-5.56535c4.42436,1.35072 6.91605,6.03237 5.56534,10.45673c-1.35072,4.42436 -6.03236,6.91606 -10.45673,5.56534c-4.42436,-1.35072 -6.91605,-6.03236 -5.56533,-10.45672z" stroke-linecap="butt"/><path d="M355.99723,256.60021l-4.46357,17.32734l-17.81827,-4.73215l6.20152,-17.50438" stroke-linecap="round"/></g></g><path d="M330.33124,273.08144l2.8325,-7.38231l20.7789,6.34359l-1.77369,7.70555z" fill="#686a6b" stroke-linecap="butt"/></g><g fill="#4b4c4d"><path d="M327.79946,232.7915c-1.92191,-3.46907 -0.66768,-7.83931 2.80138,-9.76121c3.46907,-1.92191 7.83931,-0.66768 9.76121,2.80138c1.92191,3.46907 0.6677,7.83932 -2.80137,9.76122c-3.46907,1.92191 -7.83931,0.66767 -9.76122,-2.80138z" stroke="#000000" stroke-width="2.5" stroke-linecap="butt"/><path d="M340.39546,225.82916l13.10294,21.36658l-14.545,8.05812l-11.16623,-22.43954" stroke="#000000" stroke-width="2.5" stroke-linecap="round"/><path d="M340.6645,255.68054c-0.00101,-0.00184 -2.8813,-5.53852 -2.8813,-5.53852l11.94684,-6.68668c0,0 3.26902,5.39007 3.26971,5.39132c1.88713,3.40628 0.6556,7.69742 -2.75068,9.58455c-3.40628,1.88713 -7.69742,0.65561 -9.58455,-2.75067z" data-paper-data="{&quot;index&quot;:null}" stroke="none" stroke-width="0.5" stroke-linecap="butt"/></g><g data-paper-data="{&quot;index&quot;:null}" fill="#242525" stroke-linecap="butt"><path d="M284.51768,280.62691c-0.00761,-3.93589 3.17689,-7.13271 7.11277,-7.14031c3.93588,-0.00761 7.13272,3.17689 7.14033,7.11278c0.00001,0.00407 2.80638,3.88012 2.80638,3.88012l-17.25898,0.44865c0,0 0.19949,-4.29597 0.19947,-4.30126z" stroke="#000000" stroke-width="5"/><path d="M282.25501,291.28528l0.67399,-9.27278l18.54315,0.10257l9.7042,9.11437z" stroke="#000000" stroke-width="2.5"/><path d="M284.51768,280.62691c-0.00761,-3.93589 3.17689,-7.13271 7.11277,-7.14031c3.93588,-0.00761 7.13272,3.17689 7.14033,7.11278c0.00001,0.00407 2.80638,3.88012 2.80638,3.88012l-17.25898,0.44865c0,0 0.19949,-4.29597 0.19947,-4.30126z" stroke="none" stroke-width="0.5"/></g><g stroke="#000000" stroke-width="2.5"><g fill="#4b4c4d"><g><path d="M295.71772,262.98201c3.11209,-3.42262 8.40954,-3.67435 11.83215,-0.56226c3.42262,3.11209 3.67434,8.40955 0.56225,11.83216c-3.11209,3.42262 -8.40954,3.67435 -11.83216,0.56225c-3.42262,-3.11209 -3.67434,-8.40954 -0.56225,-11.83215z" stroke-linecap="butt"/><path d="M308.12741,274.28787l-6.39036,8.20271l-14.08636,-11.89364l8.03723,-7.61997" stroke-linecap="round"/></g></g><path d="M282.93033,272.66379l5.71593,-5.46349l16.07421,14.61585l-4.89686,6.20825z" fill="#686a6b" stroke-linecap="butt"/></g><g data-paper-data="{&quot;index&quot;:null}" fill="#4b4c4d"><path d="M307.80692,245.25922c-3.92266,-0.58383 -6.62931,-4.23707 -6.04549,-8.15972c0.58384,-3.92266 4.23706,-6.62932 8.15972,-6.0455c3.92266,0.58383 6.62931,4.23706 6.04549,8.15971c-0.58383,3.92266 -4.23706,6.62932 -8.15971,6.04551z" stroke="#000000" stroke-width="2.5" stroke-linecap="butt"/><path d="M315.99469,239.23204l-2.59122,24.92996l-16.44684,-2.44785l4.78115,-24.60403" stroke="#000000" stroke-width="2.5" stroke-linecap="round"/><path d="M298.05554,263.09341c0.00031,-0.00206 1.08065,-6.14892 1.08065,-6.14892l13.55028,1.95664c0,0 -0.68258,6.26684 -0.68279,6.26825c-0.57328,3.85167 -4.16037,6.50933 -8.01205,5.93606c-3.85167,-0.57327 -6.50933,-4.16037 -5.93607,-8.01205z" data-paper-data="{&quot;index&quot;:null}" stroke="none" stroke-width="0.5" stroke-linecap="butt"/></g><path d="M103.8395,41.25849c0.31819,0.21008 -1.93596,3.74931 -2.14662,4.4866c-0.26555,0.92942 1.58053,-2.19021 1.24101,-2.23555c-0.18358,0.156 -0.44518,0.26715 -0.81791,0.26715c-0.82676,0 -1.1067,-0.54684 -1.20148,-0.91714c-10.07075,-3.85085 -15.73199,-14.38773 -14.51942,-25.10102c1.28931,-3.91947 2.50233,-7.83393 4.6595,-11.3921c6.31701,-10.41967 20.69547,-14.0835 32.00475,-14.08846c9.24953,-0.84181 19.58613,0.13905 28.26883,3.5873c1.92036,0.76265 4.23111,1.26626 5.9886,2.37633c2.17316,1.3726 4.12471,3.33466 6.18309,4.9012c1.17858,1.55557 1.76947,3.13993 2.52097,4.90553c1.05946,2.48912 2.64326,4.48079 3.30829,7.17704c1.16364,4.71785 -0.66918,9.62111 -2.86739,13.65283c-1.80803,3.3161 -4.086,11.37072 -7.73958,12.84667c-5.5251,1.1018 -5.25358,-8.54837 -9.41163,-10.57837c-6.88941,-3.36347 -13.34592,-7.14418 -21.28315,-7.12296c-4.85358,-0.69337 -10.90568,-0.19941 -14.89292,2.98902c-0.97425,0.77907 -1.77368,1.76589 -2.77061,2.51572c-1.54175,1.15962 -2.8927,1.91909 -3.91786,3.62776c-1.47646,2.46089 -2.04178,5.32939 -2.60648,8.10244z" fill="#000000" stroke="none" stroke-width="0.5" stroke-linecap="butt"/><g fill="#66bfff" stroke-width="2.5" stroke-linecap="butt"><g data-paper-data="{&quot;index&quot;:null}" stroke="#000000"><path d="M32.14922,303.05981l3.79247,-46.45801l13.88952,2.52181l4.19919,43.93621z"/></g><path d="M45.83337,299.74905c0,0 0.79203,-4.68134 0.85009,-7.00375c0.05249,-2.0995 -0.51676,-6.32959 -0.51676,-6.32959h3.33333l1,13.33333z" stroke="#5aa8e0"/></g><path d="M34.11607,306.48051c0,-4.63229 3.75521,-8.3875 8.3875,-8.3875c4.63228,0 8.3875,3.75521 8.3875,8.3875c0,4.63229 -3.75522,8.3875 -8.3875,8.3875c-4.63228,0 -8.3875,-3.75521 -8.3875,-8.3875z" data-paper-data="{&quot;index&quot;:null}" fill="#582700" stroke="#000000" stroke-width="2.5" stroke-linecap="butt"/><g stroke-linecap="butt"><path d="M42.51898,276.33677c2.01829,0 3.65445,1.63615 3.65445,3.65445c0,0.00208 0.26481,3.29419 0.26481,3.29419l-7.81785,-0.02997c0,0 0.24415,-3.26062 0.24415,-3.26422c0,-2.01829 1.63614,-3.65445 3.65444,-3.65445z" data-paper-data="{&quot;index&quot;:null}" fill="#1b8fe3" stroke="#000000" stroke-width="5"/><path d="M36.31687,299.40283l1.08333,-18.23854h10.2153l0.92917,18.23854c0,0 -1.08993,1.63116 -6.00361,1.58125c-4.66647,-0.0474 -6.22419,-1.58125 -6.22419,-1.58125z" fill="#66bfff" stroke="#000000" stroke-width="2.5"/><path d="M42.51898,276.33676c2.01829,0 3.65445,1.63615 3.65445,3.65445c0,0.00208 0.26481,3.29419 0.26481,3.29419l-7.81785,-0.02997c0,0 0.24415,-3.26062 0.24415,-3.26422c0,-2.01829 1.63614,-3.65445 3.65444,-3.65445z" data-paper-data="{&quot;index&quot;:null}" fill="#1b8fe3" stroke="none" stroke-width="0.5"/></g><g fill="#66bfff"><path d="M38.35773,263.43752c0,-2.31269 1.87481,-4.1875 4.1875,-4.1875c2.31269,0 4.1875,1.87481 4.1875,4.1875c0,2.31269 -1.87481,4.1875 -4.1875,4.1875c-2.31269,0 -4.1875,-1.87481 -4.1875,-4.1875z" stroke="#000000" stroke-width="2.5" stroke-linecap="butt"/><path d="M46.76913,263.33185l0.70261,18.06601h-9.97682l0.83594,-18.06601" stroke="#000000" stroke-width="2.5" stroke-linecap="round"/><path d="M38.77152,282.64315c0,-0.0037 0.13421,-3.47633 0.13421,-3.47633l7.1213,-0.03074c0,0 0.24123,3.50493 0.24123,3.50707c0,2.07017 -1.6782,3.74837 -3.74837,3.74837c-2.07017,0 -3.74837,-1.6782 -3.74837,-3.74837z" data-paper-data="{&quot;index&quot;:null}" stroke="none" stroke-width="0.5" stroke-linecap="butt"/></g><path d="M20.83949,224.25849c0.31819,0.21008 -1.93596,3.74931 -2.14662,4.4866c-0.26555,0.92942 1.58053,-2.19021 1.24101,-2.23555c-0.18358,0.156 -0.44518,0.26715 -0.81791,0.26715c-0.82676,0 -1.1067,-0.54684 -1.20148,-0.91714c-10.07075,-3.85085 -15.73199,-14.38773 -14.51942,-25.10102c1.28931,-3.91947 2.50233,-7.83393 4.6595,-11.3921c6.31701,-10.41967 20.69547,-14.0835 32.00475,-14.08846c9.24953,-0.84181 19.58613,0.13905 28.26883,3.5873c1.92036,0.76265 4.23111,1.26626 5.9886,2.37633c2.17316,1.3726 4.12471,3.33466 6.18309,4.9012c1.17858,1.55557 1.76947,3.13993 2.52097,4.90553c1.05946,2.48912 2.64326,4.48079 3.30829,7.17704c1.16364,4.71785 -0.66918,9.62111 -2.86739,13.65283c-1.80803,3.3161 -4.086,11.37072 -7.73958,12.84667c-5.5251,1.1018 -5.25358,-8.54837 -9.41163,-10.57837c-6.88941,-3.36347 -13.34592,-7.14418 -21.28315,-7.12296c-4.85358,-0.69337 -10.90568,-0.19941 -14.89292,2.98902c-0.97425,0.77907 -1.77368,1.76589 -2.77061,2.51572c-1.54175,1.15962 -2.8927,1.91909 -3.91786,3.62776c-1.47646,2.46089 -2.04178,5.32939 -2.60648,8.10244z" fill="#000000" stroke="none" stroke-width="0.5" stroke-linecap="butt"/><g><path d="M453.11607,173.48051c0,-4.63229 3.75521,-8.3875 8.3875,-8.3875c4.63228,0 8.3875,3.75521 8.3875,8.3875c0,4.63229 -3.75522,8.3875 -8.3875,8.3875c-4.63228,0 -8.3875,-3.75521 -8.3875,-8.3875z" data-paper-data="{&quot;index&quot;:null}" fill="#582700" stroke="#000000" stroke-width="2.5" stroke-linecap="butt"/><g stroke-linecap="butt"><path d="M461.51898,143.33677c2.01829,0 3.65445,1.63615 3.65445,3.65445c0,0.00208 0.26481,3.29419 0.26481,3.29419l-7.81785,-0.02997c0,0 0.24415,-3.26062 0.24415,-3.26422c0,-2.01829 1.63614,-3.65445 3.65444,-3.65445z" data-paper-data="{&quot;index&quot;:null}" fill="#1b8fe3" stroke="#000000" stroke-width="5"/><path d="M455.31687,166.40283l1.08333,-18.23854h10.2153l0.92917,18.23854c0,0 -1.08993,1.63116 -6.00361,1.58125c-4.66647,-0.0474 -6.22419,-1.58125 -6.22419,-1.58125z" fill="#66bfff" stroke="#000000" stroke-width="2.5"/><path d="M461.51898,143.33676c2.01829,0 3.65445,1.63615 3.65445,3.65445c0,0.00208 0.26481,3.29419 0.26481,3.29419l-7.81785,-0.02997c0,0 0.24415,-3.26062 0.24415,-3.26422c0,-2.01829 1.63614,-3.65445 3.65444,-3.65445z" data-paper-data="{&quot;index&quot;:null}" fill="#1b8fe3" stroke="none" stroke-width="0.5"/></g><g fill="#66bfff"><path d="M457.35773,130.43751c0,-2.31269 1.87481,-4.1875 4.1875,-4.1875c2.31269,0 4.1875,1.87481 4.1875,4.1875c0,2.31269 -1.87481,4.1875 -4.1875,4.1875c-2.31269,0 -4.1875,-1.87481 -4.1875,-4.1875z" stroke="#000000" stroke-width="2.5" stroke-linecap="butt"/><path d="M465.76913,130.33184l0.70261,18.06601h-9.97682l0.83594,-18.06601" stroke="#000000" stroke-width="2.5" stroke-linecap="round"/><path d="M457.77153,149.64315c0,-0.0037 0.13421,-3.47633 0.13421,-3.47633l7.1213,-0.03074c0,0 0.24123,3.50493 0.24123,3.50707c0,2.07017 -1.6782,3.74837 -3.74837,3.74837c-2.07017,0 -3.74837,-1.6782 -3.74837,-3.74837z" data-paper-data="{&quot;index&quot;:null}" stroke="none" stroke-width="0.5" stroke-linecap="butt"/></g></g><g><path d="M376.92536,206.64467c-0.57275,-4.59674 2.68933,-8.78743 7.28609,-9.36017c4.59674,-0.57275 8.78743,2.68933 9.36019,7.28609c0.57275,4.59674 -2.68935,8.78745 -7.28609,9.36018c-4.59674,0.57275 -8.78744,-2.68934 -9.36019,-7.28608z" data-paper-data="{&quot;index&quot;:null}" fill="#582700" stroke="#000000" stroke-width="2.5" stroke-linecap="butt"/><g data-paper-data="{&quot;index&quot;:null}"><path d="M378.6068,178.20593c0.00163,-0.00333 1.63013,-3.07336 1.63013,-3.07336l6.42853,3.06394c0,0 -1.30432,3.26212 -1.30523,3.26406c-0.89875,1.86491 -3.13912,2.64816 -5.00402,1.74941c-1.86491,-0.89874 -2.64814,-3.13912 -1.7494,-5.00403z" data-paper-data="{&quot;index&quot;:null}" fill="#1b8fe3" stroke="#000000" stroke-width="5" stroke-linecap="butt"/><path d="M386.57193,160.72498c1.00404,-2.08338 3.50686,-2.95837 5.59024,-1.95434c2.08338,1.00404 2.95838,3.50686 1.95434,5.59024c-1.00404,2.08338 -3.50687,2.95837 -5.59025,1.95434c-2.08338,-1.00404 -2.95837,-3.50686 -1.95434,-5.59024z" fill="#66bfff" stroke="#000000" stroke-width="2.5" stroke-linecap="butt"/><path d="M394.19518,164.28149l-7.21021,16.57972l-8.98757,-4.33132l8.59621,-15.9118" fill="#66bfff" stroke="#000000" stroke-width="2.5" stroke-linecap="round"/><path d="M378.6068,178.20593c0.00163,-0.00333 1.63013,-3.07336 1.63013,-3.07336l6.42853,3.06394c0,0 -1.30432,3.26212 -1.30523,3.26406c-0.89875,1.86491 -3.13912,2.64816 -5.00402,1.74941c-1.86491,-0.89874 -2.64814,-3.13912 -1.7494,-5.00403z" data-paper-data="{&quot;index&quot;:null}" fill="#66bfff" stroke="none" stroke-width="0.5" stroke-linecap="butt"/></g><g data-paper-data="{&quot;index&quot;:null}" fill="#66bfff" stroke-linecap="butt"><path d="M378.23416,199.34921l-1.18005,-18.23253l10.13692,-1.26304l3.17711,17.98372c0,0 -0.87989,1.75341 -5.76202,2.31142c-4.63653,0.52992 -6.37194,-0.79953 -6.37194,-0.79953z" stroke="#000000" stroke-width="2.5"/><path d="M381.53674,175.69328c2.0028,-0.24955 3.82869,1.17175 4.07824,3.17457c0.00027,0.00207 0.67008,3.23616 0.67008,3.23616l-7.76155,0.93686c0,0 -0.16089,-3.2658 -0.16133,-3.26938c-0.24955,-2.00279 1.17175,-3.8287 3.17458,-4.07825z" data-paper-data="{&quot;index&quot;:null}" stroke="none" stroke-width="0.5"/></g></g><g><path d="M433.46934,188.3917c-0.4985,4.60538 -4.63604,7.93466 -9.24141,7.43617c-4.6054,-0.4985 -7.93466,-4.63603 -7.43617,-9.2414c0.49851,-4.6054 4.63603,-7.93466 9.2414,-7.43617c4.6054,0.4985 7.93467,4.63603 7.43618,9.2414z" data-paper-data="{&quot;index&quot;:null}" fill="#582700" stroke="#000000" stroke-width="2.5" stroke-linecap="butt"/><g data-paper-data="{&quot;index&quot;:null}"><path d="M415.73488,200.13099c1.30519,1.60691 1.06057,3.96759 -0.54635,5.27277c-1.60691,1.30519 -3.96759,1.06057 -5.27275,-0.54634c-0.00134,-0.00166 -2.02384,-2.87435 -2.02384,-2.87435l5.54706,-4.46585c0,0 2.29354,2.61089 2.29588,2.61378z" data-paper-data="{&quot;index&quot;:null}" fill="#1b8fe3" stroke="#000000" stroke-width="5" stroke-linecap="butt"/><path d="M403.94762,184.96233c1.45807,1.79516 1.18481,4.4324 -0.61034,5.89048c-1.79515,1.45808 -4.43241,1.18482 -5.89048,-0.61033c-1.45808,-1.79515 -1.18481,-4.4324 0.61034,-5.89048c1.79516,-1.45807 4.4324,-1.18481 5.89048,0.61034z" fill="#66bfff" stroke="#000000" stroke-width="2.5" stroke-linecap="butt"/><path d="M403.90184,184.86337l12.03885,13.49616l-7.74419,6.29004l-10.84458,-14.46615" fill="#66bfff" stroke="#000000" stroke-width="2.5" stroke-linecap="round"/><path d="M415.73488,200.13099c1.30519,1.60691 1.06057,3.96759 -0.54635,5.27277c-1.60691,1.30519 -3.96759,1.06057 -5.27275,-0.54634c-0.00134,-0.00166 -2.02384,-2.87435 -2.02384,-2.87435l5.54706,-4.46585c0,0 2.29354,2.61089 2.29588,2.61378z" data-paper-data="{&quot;index&quot;:null}" fill="#66bfff" stroke="none" stroke-width="0.5" stroke-linecap="butt"/></g><g data-paper-data="{&quot;index&quot;:null}" fill="#66bfff" stroke-linecap="butt"><path d="M425.58726,197.09008l-7.56553,7.69758l-7.96747,-6.39311l5.99587,-8.95709c0,0 1.87093,-0.59012 5.67214,2.52398c3.60997,2.95742 3.86499,5.12864 3.86499,5.12864z" stroke="#000000" stroke-width="2.5"/><path d="M411.00807,205.3494c-1.57417,-1.26312 -1.82633,-3.5632 -0.56321,-5.13739c0.0013,-0.00162 1.85509,-2.73504 1.85509,-2.73504l6.07881,4.91607c0,0 -2.23105,2.39033 -2.2333,2.39314c-1.26312,1.57417 -3.5632,1.82635 -5.13738,0.56322z" data-paper-data="{&quot;index&quot;:null}" stroke="none" stroke-width="0.5"/></g></g><g><path d="M428.61607,173.48051c0,-4.63228 3.75521,-8.3875 8.3875,-8.3875c4.63228,0 8.3875,3.75521 8.3875,8.3875c0,4.63228 -3.75522,8.3875 -8.3875,8.3875c-4.63228,0 -8.3875,-3.75521 -8.3875,-8.3875z" data-paper-data="{&quot;index&quot;:null}" fill="#582700" stroke="#000000" stroke-width="2.5" stroke-linecap="butt"/><g><path d="M433.27151,149.64315c0,-0.0037 0.13421,-3.47633 0.13421,-3.47633l7.1213,-0.03074c0,0 0.24123,3.50493 0.24123,3.50707c0,2.07017 -1.6782,3.74837 -3.74837,3.74837c-2.07017,0 -3.74837,-1.6782 -3.74837,-3.74837z" data-paper-data="{&quot;index&quot;:null}" fill="#1b8fe3" stroke="#000000" stroke-width="5" stroke-linecap="butt"/><path d="M432.85773,130.43751c0,-2.31269 1.87481,-4.1875 4.1875,-4.1875c2.31269,0 4.1875,1.87481 4.1875,4.1875c0,2.31269 -1.87481,4.1875 -4.1875,4.1875c-2.31269,0 -4.1875,-1.87481 -4.1875,-4.1875z" fill="#66bfff" stroke="#000000" stroke-width="2.5" stroke-linecap="butt"/><path d="M441.26913,130.33184l0.70261,18.06601h-9.97682l0.83594,-18.06601" fill="#66bfff" stroke="#000000" stroke-width="2.5" stroke-linecap="round"/><path d="M433.27151,149.64315c0,-0.0037 0.13421,-3.47633 0.13421,-3.47633l7.1213,-0.03074c0,0 0.24123,3.50493 0.24123,3.50707c0,2.07017 -1.6782,3.74837 -3.74837,3.74837c-2.07017,0 -3.74837,-1.6782 -3.74837,-3.74837z" data-paper-data="{&quot;index&quot;:null}" fill="#1b8fe3" stroke="none" stroke-width="0.5" stroke-linecap="butt"/></g><g fill="#66bfff" stroke-linecap="butt"><path d="M430.81687,166.40284l1.08333,-18.23855h10.2153l0.92917,18.23855c0,0 -1.08993,1.63116 -6.00361,1.58125c-4.66647,-0.0474 -6.22419,-1.58125 -6.22419,-1.58125z" stroke="#000000" stroke-width="2.5"/><path d="M437.01898,143.33676c2.01829,0 3.65445,1.63615 3.65445,3.65445c0,0.00208 0.26481,3.29419 0.26481,3.29419l-7.81785,-0.02997c0,0 0.24415,-3.26062 0.24415,-3.26422c0,-2.01829 1.63614,-3.65445 3.65444,-3.65445z" data-paper-data="{&quot;index&quot;:null}" stroke="none" stroke-width="0.5"/></g></g><g><path d="M23.19669,120.34051c0.78081,-4.566 5.11526,-7.63451 9.68127,-6.8537c4.566,0.78081 7.63452,5.11526 6.85371,9.68127c-0.78081,4.566 -5.11527,7.63451 -9.68127,6.8537c-4.566,-0.78081 -7.63452,-5.11526 -6.85371,-9.68127z" data-paper-data="{&quot;index&quot;:null}" fill="#582700" stroke="#000000" stroke-width="2.5" stroke-linecap="butt"/><g data-paper-data="{&quot;index&quot;:null}"><path d="M31.80352,97.62894c0.00063,-0.00365 0.71826,-3.40397 0.71826,-3.40397l7.02458,1.17005c0,0 -0.353,3.49544 -0.35336,3.49755c-0.34894,2.04055 -2.286,3.41187 -4.32655,3.06292c-2.04055,-0.34894 -3.41187,-2.28601 -3.06292,-4.32656z" data-paper-data="{&quot;index&quot;:null}" fill="#1b8fe3" stroke="#000000" stroke-width="5" stroke-linecap="butt"/><path d="M34.6329,78.62836c0.38983,-2.2796 2.55382,-3.81157 4.83342,-3.42175c2.2796,0.38983 3.81158,2.55382 3.42175,4.83342c-0.38983,2.2796 -2.55383,3.81157 -4.83343,3.42174c-2.2796,-0.38983 -3.81157,-2.55382 -3.42175,-4.83342z" fill="#66bfff" stroke="#000000" stroke-width="2.5" stroke-linecap="butt"/><path d="M42.94177,79.94201l-2.35261,17.92595l-9.83407,-1.68168l3.86915,-17.66662" fill="#66bfff" stroke="#000000" stroke-width="2.5" stroke-linecap="round"/><path d="M31.80352,97.62894c0.00063,-0.00365 0.71826,-3.40397 0.71826,-3.40397l7.02458,1.17005c0,0 -0.353,3.49544 -0.35336,3.49755c-0.34894,2.04055 -2.286,3.41187 -4.32655,3.06292c-2.04055,-0.34894 -3.41187,-2.28601 -3.06292,-4.32656z" data-paper-data="{&quot;index&quot;:null}" fill="#1b8fe3" stroke="none" stroke-width="0.5" stroke-linecap="butt"/></g><g data-paper-data="{&quot;index&quot;:null}" fill="#66bfff" stroke-linecap="butt"><path d="M26.559,113.73508l4.14209,-17.79498l10.06913,1.72187l-2.15838,18.13421c0,0 -1.34928,1.4241 -6.18424,0.54667c-4.59171,-0.83329 -5.8686,-2.60776 -5.8686,-2.60776z" stroke="#000000" stroke-width="2.5"/><path d="M36.56035,92.04445c1.98941,0.3402 3.32637,2.22873 2.98617,4.21815c-0.00035,0.00205 -0.29424,3.29169 -0.29424,3.29169l-7.70094,-1.3473c0,0 0.79027,-3.17282 0.79087,-3.17637c0.3402,-1.98941 2.22872,-3.32638 4.21814,-2.98618z" data-paper-data="{&quot;index&quot;:null}" stroke="none" stroke-width="0.5"/></g></g><g data-paper-data="{&quot;index&quot;:null}"><path d="M143.30693,130.02178c-4.566,0.78081 -8.90046,-2.2877 -9.68127,-6.8537c-0.78081,-4.56601 2.28771,-8.90046 6.85371,-9.68127c4.56601,-0.78081 8.90046,2.2877 9.68127,6.8537c0.78081,4.56601 -2.28771,8.90046 -6.85371,9.68127z" data-paper-data="{&quot;index&quot;:null}" fill="#582700" stroke="#000000" stroke-width="2.5" stroke-linecap="butt"/><g data-paper-data="{&quot;index&quot;:null}"><path d="M141.5538,97.62893c0.34895,2.04055 -1.02237,3.97762 -3.06292,4.32656c-2.04055,0.34895 -3.97761,-1.02237 -4.32655,-3.06292c-0.00036,-0.00211 -0.35336,-3.49755 -0.35336,-3.49755l7.02458,-1.17005c0,0 0.71763,3.40032 0.71826,3.40397z" data-paper-data="{&quot;index&quot;:null}" fill="#1b8fe3" stroke="#000000" stroke-width="5" stroke-linecap="butt"/><path d="M138.72443,78.62835c0.38982,2.2796 -1.14215,4.44359 -3.42175,4.83342c-2.2796,0.38983 -4.4436,-1.14214 -4.83343,-3.42174c-0.38983,-2.2796 1.14215,-4.44359 3.42175,-4.83342c2.2796,-0.38982 4.44359,1.14215 4.83342,3.42175z" fill="#66bfff" stroke="#000000" stroke-width="2.5" stroke-linecap="butt"/><path d="M138.73309,78.51966l3.86915,17.66662l-9.83407,1.68168l-2.35261,-17.92595" fill="#66bfff" stroke="#000000" stroke-width="2.5" stroke-linecap="round"/><path d="M141.5538,97.62893c0.34895,2.04055 -1.02237,3.97762 -3.06292,4.32656c-2.04055,0.34895 -3.97761,-1.02237 -4.32655,-3.06292c-0.00036,-0.00211 -0.35336,-3.49755 -0.35336,-3.49755l7.02458,-1.17005c0,0 0.71763,3.40032 0.71826,3.40397z" data-paper-data="{&quot;index&quot;:null}" fill="#1b8fe3" stroke="none" stroke-width="0.5" stroke-linecap="butt"/></g><g data-paper-data="{&quot;index&quot;:null}" fill="#66bfff" stroke-linecap="butt"><path d="M146.79833,113.73509c0,0 -1.27689,1.77447 -5.8686,2.60776c-4.83496,0.87743 -6.18424,-0.54667 -6.18424,-0.54667l-2.15838,-18.13421l10.06913,-1.72187l4.14209,17.79498z" stroke="#000000" stroke-width="2.5"/><path d="M136.79698,92.04444c1.98942,-0.3402 3.87794,0.99677 4.21814,2.98618c0.0006,0.00355 0.79087,3.17637 0.79087,3.17637l-7.70094,1.3473c0,0 -0.29389,-3.28964 -0.29424,-3.29169c-0.3402,-1.98942 0.99676,-3.87795 2.98617,-4.21815z" data-paper-data="{&quot;index&quot;:null}" stroke="none" stroke-width="0.5"/></g></g></g></g></svg>