<svg version="1.1" xmlns="http://www.w3.org/2000/svg" xmlns:xlink="http://www.w3.org/1999/xlink" width="234" height="234" viewBox="0,0,234,234"><g transform="translate(-123,-63)"><g data-paper-data="{&quot;isPaintingLayer&quot;:true}" fill-rule="nonzero" stroke-linejoin="miter" stroke-miterlimit="10" stroke-dasharray="" stroke-dashoffset="0" style="mix-blend-mode: normal"><path d="M123,297v-234h234v234z" data-paper-data="{&quot;index&quot;:null}" fill="none" stroke="none" stroke-width="0" stroke-linecap="butt"/><g><g><g><g data-paper-data="{&quot;origRot&quot;:0}" stroke="#000000" stroke-width="3" stroke-linecap="round"><path d="M280.62197,226.09732c-0.58306,2.39002 -8.47763,-1.10238 -8.47763,-1.10238c0,0 -21.14342,-8.63025 -31.14697,-12.66224c-3.94922,-2.33907 4.29095,-40.58899 9.04643,-43.78818c2.11986,-1.42608 11.88725,-1.28186 12.95789,0.42199c2.03787,3.24314 2.8938,20.12105 2.8938,20.12105l-4.02811,-0.77778l10.33305,3.08358c0,0 12.3451,2.49198 17.19512,5.03125c2.68986,1.40829 -8.77358,29.67265 -8.77358,29.67265z" data-paper-data="{&quot;origPos&quot;:null}" fill="#582700"/><path d="M271.39175,222.9818l8.3754,-28.97051" fill="none"/><path d="M267.5457,222.11239l8.10638,-29.05231" data-paper-data="{&quot;origPos&quot;:null}" fill="none"/></g><path d="M271.05077,223.53161l-2.64614,-0.78621l8.38588,-29.68842l2.64614,0.78621z" fill="#ffffff" stroke="none" stroke-width="0" stroke-linecap="butt"/><path d="M240.68208,212.40197l-0.26843,-11.15476l5.5065,-23.46531l3.72193,-7.63534l4.35167,-2.58609l7.16696,1.68828l1.4334,0.33765l2.71906,18.18058l-2.92166,-0.4303l-0.43895,1.96015l12.497,3.71767l-7.35606,29.47819l-24.92311,-9.9981z" fill="#66c8ff" stroke="#000000" stroke-width="0.5" stroke-linecap="round"/></g><g fill="#fffc96" stroke="#000000" stroke-width="2" stroke-linecap="round"><path d="M269.19243,189.67403c0,0 4.48139,-2.01067 5.89135,1.0899c2.25584,4.96077 -32.23956,17.80757 -34.88207,12.80114c-1.07966,-2.04552 1.92028,-4.04383 1.92028,-4.04383l1.21087,1.75476c0,0 6.91724,-0.88117 15.01964,-3.68519c7.99014,-2.76514 12.74182,-6.09468 12.74182,-6.09468z"/><path d="M262.8763,182.27375c0,0 1.75962,-4.16131 3.74607,-2.50439c4.16984,3.4781 -14.55431,40.49748 -17.69916,36.27854c-1.90459,-2.55505 0.74794,-5.60867 0.74794,-5.60867l0.92621,1.26073c0,0 3.73141,-4.98621 7.83335,-13.43396c4.10196,-8.44775 5.45167,-14.92372 5.45167,-14.92372z" data-paper-data="{&quot;index&quot;:null}"/></g></g><g><g data-paper-data="{&quot;index&quot;:null}"><path d="M288.29365,192.93046c2.18807,0.99956 7.89503,-0.93438 6.98989,1.14975c-0.46106,1.06158 -9.24954,20.28492 -10.31465,20.94576c-1.02592,0.63647 -2.16574,0.81262 -3.23928,0.32221c-0.73038,-0.33368 -1.69672,-1.209 -2.14772,-2.08602c-0.90013,-1.75037 2.9839,-23.06545 3.5869,-24.45389c0.90515,-2.08413 2.93679,3.12265 5.12485,4.12222z" fill="#0091d4" stroke="#000000" stroke-width="1.5" stroke-linecap="butt"/><g stroke-linecap="butt"><path d="M291.30779,186.04539c3.96427,1.81099 6.23279,5.45537 5.06686,8.13995c-1.1659,2.68457 -5.32475,3.39279 -9.28903,1.58182c-3.96427,-1.811 -6.2328,-5.45538 -5.06687,-8.13997c1.1659,-2.68457 5.32476,-3.39278 9.28902,-1.58178z" fill="#0091d4" stroke="#000000" stroke-width="1.5"/><path d="M284.63391,193.0321c0,0 -1.3341,-1.03592 -1.92295,-2.68916c-0.26946,-0.79278 -0.16464,-2.79328 -0.16464,-2.79328l2.58587,2.9542z" fill="#00aeff" stroke="none" stroke-width="0"/><path d="M287.52521,195.03929l-1.71196,-0.83963c0,0 0.05248,-0.79823 0.19648,-1.19718c0.12298,-0.34071 0.63243,-1.23702 0.63243,-1.23702l1.32007,0.94076z" fill="#00aeff" stroke="none" stroke-width="0"/></g><g><path d="M288.8232,192.041c-5.46881,-2.49833 -9.33969,-8.9119 -6.90379,-14.52074c2.43594,-5.60887 8.03381,-7.81166 13.50261,-5.31335c5.46881,2.49833 8.20768,9.19848 5.77177,14.80733c-2.43594,5.60887 -6.90179,7.52505 -12.37056,5.02676z" fill="#00699a" stroke="#000000" stroke-width="1.5" stroke-linecap="butt"/><path d="M293.22727,172.14293c0,0 0.75591,1.9348 1.58623,4.73192c0.82832,2.79034 0.92008,6.43938 -0.14422,8.89004c-2.13125,4.90732 -4.33242,6.07653 -8.3059,4.26136c-1.93309,-0.88309 -3.26376,-2.77478 -3.78488,-4.81533c-0.73144,-2.8641 -0.79977,-6.35183 0.40882,-9.13462c2.13125,-4.90732 10.23994,-3.9334 10.23994,-3.9334z" fill="#0091d4" stroke="none" stroke-width="0" stroke-linecap="butt"/><path d="M300.11377,186.97366c0,0 -4.3866,2.09628 -10.66271,-1.0502c-6.22511,-3.12092 -7.25332,-8.20238 -7.25332,-8.20238" fill="none" stroke="#000000" stroke-width="0.8" stroke-linecap="round"/><path d="M296.40345,191.62032c0,0 -3.09931,0.90487 -8.48713,-2.62789c-3.73861,-2.45138 -6.51338,-6.29412 -6.51338,-6.29412" fill="none" stroke="#000000" stroke-width="0.75" stroke-linecap="round"/><path d="M300.97327,184.09534c0,0 -2.68104,1.09646 -8.50933,-2.25447c-6.05964,-3.48393 -7.5103,-8.06766 -7.5103,-8.06766" fill="none" stroke="#000000" stroke-width="0.8" stroke-linecap="round"/><path d="M288.19698,171.85039c0,0 4.19854,1.86476 7.76457,4.80012c2.70739,2.22855 5.51382,6.13886 5.51382,6.13886" fill="none" stroke="#000000" stroke-width="0.8" stroke-linecap="round"/><path d="M298.61987,175.27677c0,0 1.5972,3.66586 -1.01536,9.08201c-2.79966,5.804 -6.36306,7.90735 -6.36306,7.90735" fill="none" stroke="#000000" stroke-width="0.8" stroke-linecap="round"/><path d="M288.06075,191.34711c0,0 1.10957,-3.09021 1.98635,-4.83629c0.73821,-1.4701 2.65934,-4.03189 4.05816,-6.61233c1.59063,-2.93431 2.62604,-5.81827 2.62604,-5.81827" fill="none" stroke="#000000" stroke-width="0.8" stroke-linecap="round"/><path d="M285.61078,190.09439c0,0 -0.44793,-4.83489 2.34216,-10.80152c1.77766,-3.80153 6.49772,-6.85528 6.49772,-6.85528" fill="none" stroke="#000000" stroke-width="0.8" stroke-linecap="round"/><path d="M282.11896,185.69556c0,0 -0.09795,-3.57107 3.17303,-8.65484c2.27147,-3.53031 5.81507,-5.59653 5.81507,-5.59653" fill="none" stroke="#000000" stroke-width="0.8" stroke-linecap="round"/><path d="M284.08774,177.11586c-0.38995,-0.17813 -0.54361,-0.69663 -0.34317,-1.15808c0.2004,-0.46145 0.67898,-0.69112 1.06894,-0.51298c0.38995,0.17813 0.54362,0.69663 0.34318,1.15808c-0.2004,0.46145 -0.679,0.69113 -1.06894,0.51299z" fill="#00aeff" stroke="none" stroke-width="0" stroke-linecap="butt"/><path d="M286.22997,174.35628c-0.22496,-0.10277 -0.3261,-0.37311 -0.2259,-0.60385c0.10019,-0.23072 0.3638,-0.33445 0.58878,-0.23169c0.22496,0.10277 0.3261,0.37312 0.22591,0.60384c-0.10019,0.23072 -0.3638,0.33446 -0.58877,0.2317z" fill="#00aeff" stroke="none" stroke-width="0" stroke-linecap="butt"/></g></g><path d="M284.53383,193.73361c-3.81669,10.13097 -5.16745,11.57774 -5.16745,11.57774c-0.54511,1.24257 -1.66869,0.58162 -1.66869,0.58162c0,0 -2.3317,-1.00889 -3.82409,-1.65464c-0.97998,-0.42402 -2.51105,-1.08649 -2.51105,-1.08649c0,0 -0.89502,-0.57884 -0.58324,-1.25067c1.87577,-4.0418 3.45795,-8.00626 4.58868,-9.94421c0.37691,-0.64599 1.64452,-0.9794 1.64452,-0.9794l4.93499,1.48995c0,0 2.05768,0.49066 2.58632,1.26609z" fill="#582700" stroke="#000000" stroke-width="3" stroke-linecap="round"/><path d="M295.5086,199.9562c-8.34863,20.75292 -11.03902,23.80967 -11.03902,23.80967c-1.16711,2.55426 -3.17472,1.3588 -3.17472,1.3588c0,0 -4.21103,-1.75345 -6.9063,-2.87571c-1.76983,-0.73694 -4.53497,-1.88831 -4.53497,-1.88831c0,0 -1.59274,-1.05714 -0.92999,-2.44012c3.98724,-8.32025 7.41907,-16.45157 9.76104,-20.46769c0.78066,-1.3387 3.17893,-2.1536 3.17893,-2.1536l8.99228,2.41727c0,0 3.76554,0.74603 4.65275,2.2397z" fill="#582700" stroke="#000000" stroke-width="3" stroke-linecap="round"/></g></g><g stroke="#000000" stroke-linecap="round"><path d="M231.42476,175.43973c0,0 -27.79325,5.35278 -27.47326,-12.72527c0.11787,-6.66054 15.99633,-4.71329 15.99633,-4.71329z" data-paper-data="{&quot;origPos&quot;:null}" fill="#66c8ff" stroke-width="2"/><path d="M223.77946,163.51919c0,0 -15.56598,-2.24502 -15.34887,-2.85764c0.68841,-1.94237 12.22548,-1.12821 12.22548,-1.12821z" data-paper-data="{&quot;origPos&quot;:null}" fill="#0a0a0a" stroke-width="1"/></g><g data-paper-data="{&quot;origRot&quot;:0}" stroke="#000000" stroke-linecap="round"><path d="M240.5281,226.70734c0,0 -0.43003,-4.80732 1.08023,-4.9028c4.45653,-0.28169 8.6523,-2.25389 12.91987,-0.90736c1.77212,0.55914 2.76187,4.75062 2.76187,4.75062l6.6071,32.59581c0,0 0.72501,3.35662 1.0753,5.30028c0.37451,2.07809 -0.4221,5.30437 -2.46832,5.5531c-7.51302,0.9133 -12.02921,2.9019 -16.85047,2.24417c-1.75646,-0.23962 -3.60522,-0.61219 -4.42528,-2.22317c-1.07125,-2.10436 -0.7305,-6.59755 -0.7305,-6.59755z" data-paper-data="{&quot;origPos&quot;:null}" fill="#ff0000" stroke-width="3"/><path d="M265.27434,266.90094c0,0 -5.57496,3.14995 -10.54366,3.59648c-3.81216,0.34259 -12.15668,0.05895 -12.15668,0.05895c0,0 -1.54449,-2.49333 -1.76842,-4.08849c-0.2359,-1.68041 0.59011,-4.30477 0.59011,-4.30477l22.69969,-2.84494z" data-paper-data="{&quot;origPos&quot;:null}" fill="#976e57" stroke-width="2"/><path d="M240.63504,227.0216c0,0 -0.43003,-4.80732 1.08023,-4.90279c4.45652,-0.28169 8.6523,-2.25389 12.91988,-0.90734c1.77212,0.55914 2.76186,4.75061 2.76186,4.75061l6.6071,32.59581c0,0 0.72503,3.35663 1.07532,5.30028c0.37451,2.07809 -0.42211,5.30436 -2.46832,5.5531c-7.51302,0.9133 -12.02921,2.90191 -16.85047,2.24418c-1.75646,-0.23962 -3.60521,-0.61221 -4.42527,-2.22317c-1.07125,-2.10436 -0.73051,-6.59755 -0.73051,-6.59755z" data-paper-data="{&quot;origPos&quot;:null}" fill="#4b4b4b" stroke-width="3"/></g><path d="M234.90965,263.2463c0,0 -0.08063,4.506 -1.34354,6.4954c-0.96681,1.52297 -2.84185,1.71215 -4.61262,1.77807c-4.86053,0.18091 -9.17013,-2.24238 -16.56326,-3.8898c-2.01355,-0.44868 -2.50509,-3.7384 -1.93816,-5.77011c0.53026,-1.90028 1.56554,-5.1702 1.56554,-5.1702l9.62204,-31.79653c0,0 1.37677,-4.07491 3.19298,-4.45733c4.37374,-0.92095 8.36596,1.45449 12.77564,2.17286c1.49437,0.24344 0.6172,4.98639 0.6172,4.98639c0,0 -0.83843,9.0147 -1.37508,14.78459c-0.75741,8.14349 -1.94076,20.86669 -1.94076,20.86669z" fill="#4b4b4b" stroke="#000000" stroke-width="3" stroke-linecap="round"/><g><path d="M220.85519,180.35407c0,0 2.19833,-14.44589 4.32449,-14.95129c6.37845,-1.51623 20.86431,-0.26941 30.55903,-0.06136c1.49871,0.03216 2.51533,13.66595 2.51533,13.66595l1.11737,30.83001c0,0 -0.06829,15.04334 -1.70322,15.00824c-14.55391,-0.3123 -31.62955,0.17884 -38.0993,-0.8058c-2.15658,-0.3282 -1.0217,-16.1531 -1.0217,-16.1531z" data-paper-data="{&quot;origPos&quot;:null}" fill="#66c8ff" stroke="#000000" stroke-width="3.5" stroke-linecap="round"/><path d="M239.15992,188.99326c-1.26618,-0.02717 -1.21515,-2.52802 -1.21515,-2.52802c0.10582,-5.18694 0.24564,-12.04109 0.35146,-17.22805c0,0 0.05101,-2.50085 1.31719,-2.47368c1.26618,0.02717 1.21515,2.52802 1.21515,2.52802c-0.10582,5.18694 -0.21163,10.37388 -0.31745,15.56081l-0.03401,1.66723c0,0 -0.05101,2.50085 -1.31719,2.47368z" fill="#ffffff" stroke="none" stroke-width="0.5" stroke-linecap="butt"/><path d="M250.68654,188.82153c-1.26618,-0.02717 -1.20208,-3.16893 -1.20208,-3.16893c0.13293,-6.51626 0.3086,-15.12701 0.44153,-21.64328c0,0 0.06409,-3.14177 1.33026,-3.1146c1.26618,0.02717 1.20208,3.16893 1.20208,3.16893c-0.13293,6.51626 -0.26587,13.03251 -0.3988,19.54879l-0.04272,2.09451c0,0 -0.06409,3.14177 -1.33026,3.1146z" fill="#ffffff" stroke="none" stroke-width="0.5" stroke-linecap="butt"/></g><g fill="none" stroke="#b9b9b9" stroke-width="3"><path d="M253.50306,170.35717c-0.78334,-1.38278 0.13706,-2.58969 1.36086,-3.78853c1.2238,-1.19882 2.43461,-1.54693 3.07093,-0.55284c1.34914,2.10777 -0.13082,3.0572 -1.08908,3.99591c-1.22381,1.19884 -2.23643,2.29833 -3.3427,0.34547z" stroke-linecap="butt"/><path d="M254.48002,169.78397l-2.59052,2.47849" stroke-linecap="round"/><path d="M248.4001,172.82055c1.2238,-1.19882 2.43461,-1.54693 3.07093,-0.55284c1.34914,2.10777 -0.13082,3.0572 -1.08908,3.99591c-1.2238,1.19883 -2.23642,2.29833 -3.34269,0.34547c-0.78334,-1.38278 0.13705,-2.58969 1.36084,-3.78854z" stroke-linecap="butt"/><path d="M248.01617,176.03587l-2.59052,2.47851" stroke-linecap="round"/><path d="M239.92363,177.9414c0.42628,-1.63542 1.73476,-1.45183 3.21516,-0.95857c1.4804,0.49326 2.40964,1.49562 2.14587,2.74481c-0.55925,2.64863 -2.02982,1.74502 -3.18901,1.3588c-1.4804,-0.49325 -2.77404,-0.83537 -2.17201,-3.14501z" stroke-linecap="butt"/><path d="M240.86016,178.57074l-3.09586,-1.08045" stroke-linecap="round"/><path d="M232.95576,173.39073c0.90237,-1.30501 2.03785,-0.48895 3.23285,0.6989c1.195,1.18785 1.72753,2.5754 1.09468,3.60271c-1.34184,2.17823 -2.39898,0.61499 -3.33472,-0.31514c-1.19501,-1.18786 -2.26718,-2.14348 -0.99281,-3.98646z" stroke-linecap="butt"/><path d="M233.61212,174.4362l-2.48367,-2.52942" stroke-linecap="round"/><path d="M226.70605,167.09644c0.90237,-1.30499 2.03785,-0.48895 3.23285,0.6989c1.19501,1.18785 1.72753,2.5754 1.09468,3.60271c-1.34183,2.17822 -2.39898,0.61499 -3.33472,-0.31514c-1.195,-1.18785 -2.26717,-2.14348 -0.9928,-3.98646z" stroke-linecap="butt"/><path d="M227.36242,168.1419l-2.48368,-2.52942" stroke-linecap="round"/></g><path d="M254.50233,168.80188c-11.75753,-1.52418 -23.15463,-3.03824 -27.67521,-4.69106c-4.13149,-1.51054 -5.04659,-4.44077 -5.04659,-4.44077c0,0 -1.38322,-2.66446 -1.26325,-4.20314c0.35993,-4.61601 1.98881,-17.73388 4.413,-28.90095c0.0809,-0.3727 0.13954,-0.57915 0.24195,-0.94624c0.30721,-1.10128 1.68425,-5.35005 1.68425,-5.35005c0,0 3.31924,-1.21836 5.06541,-1.45373c5.23847,-0.70613 17.87551,2.58097 31.33657,4.89494c1.22007,0.20973 3.09633,2.17983 3.09633,2.17983c0,0 1.07931,3.33628 0.76829,5.30521c-2.01063,12.7295 -4.28094,26.80623 -5.00604,29.99554c-0.2417,1.06312 -2.58453,4.98622 -2.58453,4.98622z" fill="#582700" stroke="#000000" stroke-width="2.5" stroke-linecap="round"/><path d="M222.51289,120.47446c-0.50473,-1.14542 0.6121,-1.6631 0.6121,-1.6631l1.37418,-0.59167c0.11985,-0.02072 0.23951,-0.04067 0.35902,-0.05988c-0.24624,-5.90004 1.7417,-12.71447 2.45025,-18.41878c0.18375,-1.47932 0.33744,-5.53409 1.19812,-6.70688c1.44122,-1.96389 3.02761,-1.1448 4.87112,-0.89871c3.13669,0.41873 6.2431,0.87334 9.40627,0.81661c7.83984,-0.1312 15.50116,0.63282 23.31599,0.99199c2.46602,0.11335 4.86005,0.34156 7.28448,0.88503c0.66337,0.14871 1.55403,0.01325 1.95925,0.57206c1.43523,1.9791 0.47322,3.83648 -0.08622,5.75127c-1.1159,3.81943 -3.13782,7.1268 -3.76652,11.10703c-0.50082,3.04176 -1.36234,6.11614 -2.13104,9.0963c-0.26528,1.02843 -0.18186,3.00995 -1.31415,3.65681c-2.32171,1.32633 -7.65914,-0.61857 -10.11664,-1.03449c-7.49344,-1.26818 -14.96765,-2.69573 -22.52011,-3.52404c-2.71205,-0.20162 -5.30805,-0.31279 -7.95547,-0.08433c-0.07318,0.36804 -0.30668,0.82123 -0.99775,0.93432c-0.74978,0.12268 -1.10918,-0.30703 -1.27411,-0.65176c-0.09113,0.01495 -0.18238,0.03038 -0.27373,0.04629l-0.77345,0.40377c0,0 -1.11682,0.51765 -1.62157,-0.62778z" fill="#000000" stroke="none" stroke-width="0.5" stroke-linecap="butt"/><g><g stroke="#000000" stroke-width="3" stroke-linecap="round"><path d="M229.58458,135.7931l1.81155,30.21107c0,0 0.25941,5.74072 -0.7022,6.3503c-2.88483,1.82882 -9.30112,1.87395 -15.65756,3.24832c-1.05655,0.22845 -2.78641,-5.45886 -2.78641,-5.45886c0,0 -2.33668,-9.0714 -3.83227,-14.87755c-2.27765,-8.84219 -5.83621,-22.65705 -5.83621,-22.65705c0,0 -2.04685,-7.0079 -0.07049,-7.27083c0,0 8.12868,-5.5917 24.68465,-4.56163c1.84531,4.22924 2.38895,15.01621 2.38895,15.01621z" data-paper-data="{&quot;origPos&quot;:null}" fill="#582700"/><path d="M229.09355,133.74016l-24.8802,4.12144l-0.57842,-3.36919l24.79877,-4.36774z" data-paper-data="{&quot;origPos&quot;:null}" fill="none"/></g><path d="M228.46578,134.31972l2.24961,37.55464l-15.3012,2.5613l-1.34563,-0.45209l-9.98651,-35.63059z" fill="#66c8ff" stroke="#000000" stroke-width="1" stroke-linecap="round"/><path d="M228.32185,130.63063l0.38406,2.31079l-24.6474,4.3092l-0.38408,-2.3108z" fill="#ffffff" stroke="none" stroke-width="0" stroke-linecap="butt"/></g><path d="M246.13066,141.61724l4.29196,4.93859l-5.25642,2.91436" fill="none" stroke="#000000" stroke-width="2.5" stroke-linecap="round"/><path d="M259.14439,152.67088l-3.60122,-4.89031l5.9043,-2.66401" data-paper-data="{&quot;index&quot;:null}" fill="none" stroke="#000000" stroke-width="2.5" stroke-linecap="round"/><g stroke="#000000" stroke-width="1.25" stroke-linecap="butt"><g data-paper-data="{&quot;index&quot;:null}" fill="#000000"><path d="M245.00209,158.13936c-9.05302,-2.09082 -4.94152,-4.94977 -4.94152,-4.94977l11.37512,2.46945c0,0 2.08728,4.3623 -6.4336,2.48034z"/></g><g data-paper-data="{&quot;index&quot;:null}" fill="#ffffff"><path d="M245.00209,158.13936c-9.05302,-2.09082 -4.94152,-4.94977 -4.94152,-4.94977c0,0 7.69562,1.67066 9.61609,2.08759c0.00265,0.00057 -0.7976,0.77002 -0.97628,1.6743c-0.14635,0.74062 0.32491,1.64891 0.30763,1.64976c-0.96389,0.04679 -2.26299,-0.0769 -4.00594,-0.46186z"/></g></g></g></g></svg>