<svg version="1.1" xmlns="http://www.w3.org/2000/svg" xmlns:xlink="http://www.w3.org/1999/xlink" width="199.11324" height="221.55319" viewBox="0,0,199.11324,221.55319"><g transform="translate(-195.52004,-69.22341)"><g data-paper-data="{&quot;isPaintingLayer&quot;:true}" fill-rule="nonzero" stroke-linejoin="miter" stroke-miterlimit="10" stroke-dasharray="" stroke-dashoffset="0" style="mix-blend-mode: normal"><path d="M205.36674,290.77659v-221.55318h189.26654v221.55319z" fill="none" stroke="none" stroke-width="NaN" stroke-linecap="butt"/><g data-paper-data="{&quot;index&quot;:null}"><path d="M216.09129,249.25031c-0.20496,-2.25285 -4.06064,-5.72516 -2.00582,-5.85124c1.36892,-0.08399 20.78486,3.36685 22.01641,4.72571c0.61705,0.68084 1.07925,1.81579 1.14769,2.5678c0.10056,1.10531 -0.38962,2.05404 -1.24025,2.75375c-0.88315,0.72645 -19.9671,2.27726 -21.01376,2.34149c-2.05481,0.12608 1.30073,-4.28466 1.09574,-6.53752z" fill="#e99b00" stroke="#000000" stroke-width="1.5" stroke-linecap="butt"/><g stroke-linecap="butt"><path d="M209.32278,249.69123c-0.37137,-4.08164 1.47327,-7.5221 4.12011,-7.68449c2.64685,-0.16239 5.09358,3.01478 5.46495,7.09643c0.37133,4.08164 -1.47331,7.5221 -4.12014,7.68449c-2.64683,0.16242 -5.09357,-3.01477 -5.46493,-7.09641z" fill="#ffb727" stroke="#000000" stroke-width="1.5"/><path d="M214.98044,245.6816l-1.76101,-3.23445c0,0 1.74495,0.55298 2.34388,1.04651c1.24099,1.05291 1.73129,2.56411 1.73129,2.56411z" fill="#ffd683" stroke="none" stroke-width="0"/><path d="M216.02469,248.88888l-0.41294,-1.46811c0,0 0.91946,-0.16024 1.24795,-0.15881c0.38463,0.00168 1.08407,0.21294 1.08407,0.21294l0.20968,1.78122z" fill="#ffd683" stroke="none" stroke-width="0"/></g><g><path d="M215.22539,249.43717c0.51229,5.63067 -2.45858,8.95223 -7.98857,9.29152c-5.52998,0.33927 -10.45446,-4.23881 -10.96678,-9.86954c-0.51232,-5.63069 3.04106,-9.85846 8.57105,-10.19775c5.52996,-0.33926 9.87198,5.14501 10.3843,10.77574z" fill="#e99b00" stroke="#000000" stroke-width="1.5" stroke-linecap="butt"/><path d="M203.23015,239.15815c2.74366,-0.16836 5.71112,1.01724 7.94696,2.58665c1.59293,1.11813 2.81739,2.90241 2.99847,4.89274c0.37219,4.0911 -1.28465,5.65574 -6.12296,5.95259c-2.4162,0.14823 -5.51488,-1.11011 -7.65869,-2.74116c-2.14902,-1.63502 -3.58148,-2.92615 -3.58148,-2.92615c0,0 1.57938,-7.46781 6.41769,-7.76466z" fill="#ffb727" stroke="none" stroke-width="0" stroke-linecap="butt"/><path d="M204.90342,238.9684c0,0 4.04701,2.54665 4.86756,9.04547c0.82728,6.55207 -2.27429,9.7456 -2.27429,9.7456" fill="none" stroke="#000000" stroke-width="0.8" stroke-linecap="round"/><path d="M209.40381,239.87317c0,0 2.46598,3.68779 3.4531,7.77697c1.42258,5.89302 -0.27515,8.33531 -0.27515,8.33531" fill="none" stroke="#000000" stroke-width="0.75" stroke-linecap="round"/><path d="M200.70109,240.12592c0,0 3.49488,2.75874 4.67566,9.2287c1.13572,6.22294 -0.60165,8.23441 -0.60165,8.23441" fill="none" stroke="#000000" stroke-width="0.8" stroke-linecap="round"/><path d="M203.50687,257.61063c0,0 -2.51441,-3.73755 -3.61762,-6.84506c-1.45312,-4.09309 -1.8008,-8.39875 -1.8008,-8.39875" fill="none" stroke="#000000" stroke-width="0.8" stroke-linecap="round"/><path d="M214.67153,251.63985c0,0 -2.86257,2.46501 -8.668,3.06222c-5.41748,0.5573 -8.08244,-2.03456 -8.08244,-2.03456" fill="none" stroke="#000000" stroke-width="0.8" stroke-linecap="round"/><path d="M197.45823,250.6153c0,0 2.77879,0.01709 5.76598,-0.43942c2.62696,-0.40147 5.39341,-1.26975 6.87253,-1.44666c1.75679,-0.21011 4.73434,-0.19192 4.73434,-0.19192" fill="none" stroke="#000000" stroke-width="0.8" stroke-linecap="round"/><path d="M196.72995,248.07334c0,0 4.02104,-3.17879 7.80682,-3.52048c5.9419,-0.5363 9.95043,1.41887 9.95043,1.41887" fill="none" stroke="#000000" stroke-width="0.8" stroke-linecap="round"/><path d="M196.87422,244.80305c0,0 2.82486,-2.45953 6.52529,-3.32437c5.32876,-1.24541 8.35879,-0.00677 8.35879,-0.00677" fill="none" stroke="#000000" stroke-width="0.8" stroke-linecap="round"/><path d="M203.82235,240.44052c0.03654,0.40148 -0.30269,0.74962 -0.75765,0.77751c-0.45497,0.02793 -0.85341,-0.27493 -0.88993,-0.67641c-0.03652,-0.4015 0.30268,-0.74962 0.75764,-0.77751c0.45497,-0.02795 0.85343,0.27491 0.88995,0.67639z" fill="#ffd683" stroke="none" stroke-width="0" stroke-linecap="butt"/><path d="M200.44693,241.8847c-0.22747,0.01395 -0.42897,-0.16251 -0.45004,-0.39413c-0.02107,-0.23162 0.14626,-0.43071 0.37374,-0.44466c0.22748,-0.01394 0.42897,0.16251 0.45004,0.39413c0.02108,0.23162 -0.14626,0.43071 -0.37374,0.44466z" fill="#ffd683" stroke="none" stroke-width="0" stroke-linecap="butt"/></g></g><g data-paper-data="{&quot;origRot&quot;:0}" stroke="#000000" stroke-linecap="round"><path d="M334.8607,217.49156c0,0 1.15731,-4.6697 2.70521,-4.2669c4.56762,1.18867 9.43223,0.69949 13.27191,3.36059c1.59444,1.10503 1.20269,5.37711 1.20269,5.37711l-4.14081,32.86706c0,0 -0.3816,3.39913 -0.67238,5.34469c-0.31089,2.08015 -2.17717,4.85998 -4.31384,4.42669c-7.84523,-1.59085 -13.03695,-1.19077 -17.66027,-3.38355c-1.68435,-0.79887 -3.41739,-1.75311 -3.70825,-3.53851c-0.37996,-2.33222 1.44739,-6.45446 1.44739,-6.45446z" data-paper-data="{&quot;origPos&quot;:null}" fill="#ff0000" stroke-width="3"/><path d="M346.42076,263.4356c0,0 -6.63866,1.14883 -11.77501,-0.05163c-3.94078,-0.92105 -12.2252,-3.91094 -12.2252,-3.91094c0,0 -0.72653,-2.85311 -0.42409,-4.42913c0.31861,-1.66024 2.01545,-3.86335 2.01545,-3.86335l23.73166,4.72598z" data-paper-data="{&quot;origPos&quot;:null}" fill="#976e57" stroke-width="2"/><path d="M334.86423,217.82255c0,0 1.15731,-4.6697 2.70522,-4.26688c4.56761,1.18868 9.43223,0.69949 13.27192,3.36062c1.59444,1.10503 1.20268,5.37709 1.20268,5.37709l-4.14081,32.86706c0,0 -0.38159,3.39914 -0.67236,5.3447c-0.31089,2.08015 -2.17717,4.85997 -4.31384,4.42669c-7.84523,-1.59085 -13.03696,-1.19076 -17.66026,-3.38354c-1.68435,-0.79887 -3.41739,-1.75313 -3.70825,-3.53851c-0.37996,-2.33222 1.44737,-6.45446 1.44737,-6.45446z" data-paper-data="{&quot;origPos&quot;:null}" fill="#474747" stroke-width="3"/></g><g data-paper-data="{&quot;index&quot;:null,&quot;origRot&quot;:0}" stroke="#000000" stroke-linecap="round"><path d="M297.24355,255.3188c0,0 -2.32185,3.88489 -4.48605,4.99595c-1.65679,0.85058 -3.49143,0.09238 -5.16783,-0.72183c-4.60147,-2.23491 -7.39296,-6.46683 -13.43331,-11.54077c-1.64511,-1.38192 -0.46085,-4.48908 1.07851,-5.97959c1.43976,-1.39406 4.03127,-3.73248 4.03127,-3.73248l24.78658,-22.9575c0,0 3.30989,-2.87143 5.18626,-2.31052c4.51869,1.35076 7.03946,5.38475 10.77405,8.18099c1.2656,0.9476 -1.9137,4.64679 -1.9137,4.64679z" data-paper-data="{&quot;origPos&quot;:null}" fill="#ff0000" stroke-width="3"/><path d="M278.46618,239.10827l18.20027,15.4005c0,0 -0.80758,2.62995 -1.99379,3.87373c-1.12603,1.18071 -3.93108,2.33873 -3.93108,2.33873c0,0 -7.4657,-4.56986 -10.60105,-7.04521c-4.08654,-3.22634 -7.12719,-9.02104 -7.12719,-9.02104z" data-paper-data="{&quot;origPos&quot;:null}" fill="#976e57" stroke-width="2.5"/><path d="M296.96675,255.51527c0,0 -2.32185,3.88489 -4.48605,4.99595c-1.65679,0.85058 -3.49143,0.09239 -5.16783,-0.72183c-4.60147,-2.23491 -7.39296,-6.46681 -13.43332,-11.54076c-1.64511,-1.38192 -0.46085,-4.48909 1.07851,-5.97959c1.43976,-1.39406 4.03127,-3.73248 4.03127,-3.73248l24.78658,-22.9575c0,0 3.30988,-2.87143 5.18626,-2.31052c4.51869,1.35076 7.03948,5.38476 10.77406,8.181c1.2656,0.9476 -1.9137,4.64678 -1.9137,4.64678c0,0 -5.27355,7.43881 -8.64889,12.20005c-4.7639,6.7199 -12.20689,17.2189 -12.20689,17.2189z" data-paper-data="{&quot;origPos&quot;:null}" fill="#474747" stroke-width="1.5"/></g><g><g data-paper-data="{&quot;origRot&quot;:0}" stroke="#000000" stroke-width="3" stroke-linecap="round"><path d="M390.1948,219.65603c-0.00697,2.45001 -8.99467,1.0115 -8.99467,1.0115c0,0 -23.8917,-3.15454 -35.18285,-4.59761c-4.64291,-1.29113 -5.65373,-40.23381 -1.55513,-44.48654c1.82703,-1.89573 11.91088,-4.14795 13.43492,-2.76524c2.90089,2.63185 7.96791,18.71565 7.96791,18.71565l-4.33678,0.23542l11.39486,0.44682c0,0 13.31799,-0.61693 18.93723,0.6469c3.11647,0.70093 -1.66548,30.79311 -1.66548,30.79311z" data-paper-data="{&quot;origPos&quot;:null}" fill="#582600"/><path d="M379.92655,218.90836l1.43002,-30.01777" fill="none"/><path d="M376.8873,188.97987l-1.13298,30.03087" data-paper-data="{&quot;origPos&quot;:null}" fill="none"/></g><path d="M379.71212,219.52263l-2.91719,-0.11109l1.26274,-30.71339l2.91719,0.11109z" fill="#ffffff" stroke="none" stroke-width="0" stroke-linecap="butt"/><path d="M345.71011,216.21397l-3.04306,-10.70269l-0.15577,-24.00083l1.93496,-8.28218l3.83524,-3.562l7.79168,-0.12496l1.55833,-0.02499l7.30681,16.88517l-3.11235,0.29995l0.03463,1.99973l13.77829,0.52913l-0.25547,30.2583l-28.11929,-3.54958z" fill="#ffcb66" stroke="#000000" stroke-width="0.5" stroke-linecap="round"/></g><g><g><path d="M317.58836,174.90524c0,0 5.39693,-13.5801 7.70946,-13.61852c6.93755,-0.11528 21.68058,4.18421 31.68263,6.45248c1.54622,0.35065 -0.34362,13.82611 -0.34362,13.82611l-5.49794,30.22018c0,0 -3.3185,14.61504 -5.00525,14.23252c-15.01531,-3.40517 -32.81741,-6.56637 -39.30967,-8.90264c-2.16408,-0.77874 2.42848,-15.92656 2.42848,-15.92656z" data-paper-data="{&quot;origPos&quot;:null}" fill="#ffcb66" stroke="#000000" stroke-width="3.5" stroke-linecap="round"/><path d="M334.69306,187.20758c-1.30632,-0.29624 -0.71353,-2.71744 -0.71353,-2.71744c1.22948,-5.02174 2.85412,-11.65758 4.08359,-16.67932c0,0 0.59278,-2.42119 1.8991,-2.12494c1.30632,0.29624 0.71354,2.71744 0.71354,2.71744c-1.22948,5.02174 -2.45894,10.04345 -3.68842,15.06519l-0.39519,1.61413c0,0 -0.59278,2.42119 -1.8991,2.12495z" fill="#ffffff" stroke="none" stroke-width="0.5" stroke-linecap="butt"/><path d="M345.31986,196.1243c-1.30632,-0.29624 -0.56162,-3.33794 -0.56162,-3.33794c1.54457,-6.30871 3.58559,-14.64521 5.13016,-20.95392c0,0 0.7447,-3.0417 2.05101,-2.74545c1.30632,0.29624 0.56161,3.33794 0.56161,3.33794c-1.54457,6.30871 -3.08912,12.61742 -4.63369,18.92614l-0.49647,2.02779c0,0 -0.7447,3.0417 -2.05101,2.74545z" fill="#ffffff" stroke="none" stroke-width="0.5" stroke-linecap="butt"/></g><g stroke="#000000" stroke-width="0.5" stroke-linecap="butt"><path d="M345.75315,206.47026c-1.61039,6.5776 -7.58319,10.85134 -13.34061,9.54567c-5.75743,-1.30567 -9.11925,-7.69633 -7.50885,-14.27392c1.61039,-6.5776 7.58319,-10.85134 13.34061,-9.54567c5.75743,1.30567 9.11925,7.69633 7.50887,14.27392z" fill="#ffa924"/><path d="M341.11352,193.82118c-0.00224,0.01101 -0.00475,0.02219 -0.00753,0.03352c-0.14887,0.60807 -0.78068,0.46479 -0.78068,0.46479l-0.12636,-0.02866c-0.46162,-0.10468 -2.57265,-0.55476 -2.85582,-0.75799c-0.23639,-0.16966 -0.07661,-0.57533 -0.21526,-0.82581c-0.1332,-0.24062 -0.36199,-0.42263 -0.57522,-0.60214c-0.33907,-0.28546 -0.86902,-0.4023 -1.07555,-0.78762c-0.19078,-0.35595 -0.11069,-0.81804 0.00938,-1.20153c0.56387,-1.80102 1.7336,-1.55549 3.19833,-1.0494c0.43039,0.19918 0.88738,0.35212 1.29117,0.59754c0.17764,0.10796 0.23864,0.35626 0.42665,0.44649c0.13364,0.06414 0.2979,-0.03292 0.44712,-0.02717c0.00637,0.00024 1.82849,0.15769 1.84656,0.15926c1.23163,0.10743 2.51777,0.34894 3.69994,0.70565c0.75329,0.22729 2.44019,0.80272 2.70124,1.64203c0.37177,1.19529 -1.63212,1.4926 -2.13415,1.56893c-1.48568,0.22586 -2.56123,-0.36788 -3.97927,-0.52614c-0.48304,-0.05391 -1.31631,0.09203 -1.87056,0.18824z" fill="#1cc735"/></g></g><path d="M355.88382,167.34508c-12.55867,-0.06928 -24.7369,-0.17258 -29.69744,-1.25245c-4.53361,-0.98693 -5.85883,-3.76818 -5.85883,-3.76818c0,0 -1.78486,-2.46173 -1.84896,-3.9955c-0.19228,-4.6013 -0.10113,-17.75138 1.06808,-29.07254c0.03902,-0.37784 0.07517,-0.58883 0.13751,-0.96376c0.187,-1.1248 1.11026,-5.48772 1.11026,-5.48772c0,0 3.34148,-1.60814 5.14952,-2.05373c5.42408,-1.33675 19.12615,0.36566 33.57481,1.0067c1.30959,0.05811 3.52732,1.77409 3.52732,1.77409c0,0 1.54821,3.1621 1.46454,5.144c-0.54084,12.81326 -1.18825,26.98832 -1.55664,30.22565c-0.12278,1.07911 -2.10245,5.23841 -2.10245,5.23841z" fill="#582600" stroke="#000000" stroke-width="2.5" stroke-linecap="round"/><path d="M357.02342,146.90271c0.1453,-3.44211 0.6926,-6.21572 1.22245,-6.195c0.52985,0.0207 0.8416,2.8279 0.69631,6.27001c-0.1453,3.44211 -0.6926,6.21573 -1.22245,6.19501c-0.52985,-0.0207 -0.8416,-2.8279 -0.69631,-6.27002z" fill="none" stroke="#000000" stroke-width="2.5" stroke-linecap="butt"/><path d="M350.24178,147.33564c0.14798,-3.50588 0.59011,-6.33535 0.98748,-6.31981c0.39738,0.01554 0.59958,2.87021 0.4516,6.37607c-0.14798,3.50588 -0.59008,6.33532 -0.98747,6.3198c-0.39738,-0.01554 -0.59959,-2.87019 -0.45161,-6.37605z" fill="none" stroke="#000000" stroke-width="2.5" stroke-linecap="butt"/><path d="M319.52605,122.32895l0.58793,-12.98768l45.46659,1.90645l-0.58793,12.98768z" fill="#000000" stroke="none" stroke-width="0" stroke-linecap="butt"/><path d="M344.99089,136.75473c0.06245,-1.37941 1.27495,-2.44891 2.70819,-2.38882c0.29429,0.01233 0.57499,0.07135 0.83475,0.16927c1.49535,-0.21195 9.34615,5.09758 7.03693,7.66818c-1.72312,1.91816 -7.15675,-1.44632 -9.01986,-2.78004c-0.51315,-0.36734 -2.1522,-2.04522 -1.56001,-2.66859z" data-paper-data="{&quot;index&quot;:null}" fill="#582600" stroke="none" stroke-width="0.5" stroke-linecap="butt"/><path d="M361.38223,140.44559c-1.44712,1.19492 -5.62657,4.15632 -6.71943,2.12009c-1.46457,-2.72884 4.60909,-7.4545 5.67064,-7.13534c0.1949,-0.07886 0.40187,-0.11742 0.615,-0.10848c1.03799,0.04353 1.82882,1.19704 1.76637,2.57643c0.37839,0.66407 -0.93401,2.21819 -1.33257,2.5473z" data-paper-data="{&quot;index&quot;:null}" fill="#582600" stroke="none" stroke-width="0.5" stroke-linecap="butt"/><g stroke="#000000" stroke-width="1.25" stroke-linecap="butt"><path d="M346.71595,162.4271l-10.77461,-1.18285c0,0 -1.03158,-7.49174 6.21336,-6.75885c7.67046,0.77594 4.56126,7.9417 4.56126,7.9417z" fill="#000000"/><path d="M336.75996,156.67492c0.82507,-1.39406 2.40536,-2.49192 5.39474,-2.18952c1.98694,0.201 3.25055,0.83075 4.03225,1.65365c0.00372,0.00392 -0.20272,1.43145 -0.20272,1.43145c0,0 -9.22695,-0.89106 -9.22428,-0.89558z" fill="#ffffff"/><path d="M341.38905,161.84231c-1.80573,-0.19824 -5.44772,-0.59806 -5.44772,-0.59806c0,0 -0.05569,-0.91681 0.00242,-1.81216c0.00504,-0.07766 1.69943,0.06424 2.99071,0.57296c1.52099,0.59923 2.63136,1.85666 2.45458,1.83725z" fill="#ff8484"/></g><g><g data-paper-data="{&quot;index&quot;:null}"><g stroke="#000000" stroke-width="3" stroke-linecap="round"><path d="M292.83215,188.09312l17.30103,-25.65671c0,0 3.3653,-4.82561 4.6292,-4.75869c3.7917,0.20076 9.70048,3.92203 16.38864,6.52606c1.11169,0.43284 -0.87243,6.0762 -0.87243,6.0762c0,0 -3.55191,8.75386 -5.82533,14.35678c-3.4622,8.53268 -8.87138,21.86398 -8.87138,21.86398c0,0 -2.52242,6.90417 -4.49876,5.96068c0,0 -10.95929,-0.20857 -25.48609,-10.744c0.96317,-4.52393 7.23512,-13.62431 7.23512,-13.62431z" data-paper-data="{&quot;origPos&quot;:null}" fill="#582700"/><path d="M291.99366,190.05207l25.38902,11.2169l-1.58449,3.08173l-25.46899,-10.96868z" data-paper-data="{&quot;origPos&quot;:null}" fill="none"/></g><path d="M292.93277,189.9479l21.50855,-31.89191l15.63084,6.87668l0.9495,1.15621l-13.21021,34.85697z" fill="#ffcb66" stroke="#000000" stroke-width="1" stroke-linecap="round"/><path d="M290.74929,193.03558l1.09832,-2.10623l25.29352,10.92771l-1.09832,2.10623z" fill="#ffffff" stroke="none" stroke-width="0" stroke-linecap="butt"/></g><path d="M311.23923,214.04948c0,0 -2.74486,1.39206 -3.98007,1.01531c-8.22742,-2.50941 -16.19752,-4.96522 -19.21099,-6.61022c-2.75411,-1.50341 -2.99959,-3.49134 -2.99959,-3.49134c0,0 -0.6189,-1.87971 -0.31668,-2.84505c0.90669,-2.89603 3.91847,-11.04678 7.22729,-17.84972c0.11042,-0.22704 0.18152,-0.351 0.3066,-0.57166c0.37525,-0.66198 1.96062,-3.19086 1.96062,-3.19086c0,0 2.5542,-0.34273 3.84094,-0.26445c3.86022,0.23486 12.4715,3.98329 21.81108,7.21904c0.84651,0.29328 1.91693,1.79477 1.91693,1.79477c0,0 0.30636,2.26832 -0.19345,3.48301c-3.23132,7.85322 -6.83828,16.53141 -7.8068,18.47004z" data-paper-data="{&quot;index&quot;:null}" fill="#582700" stroke="#000000" stroke-width="2.5" stroke-linecap="round"/></g></g></g></svg>