<svg version="1.1" xmlns="http://www.w3.org/2000/svg" xmlns:xlink="http://www.w3.org/1999/xlink" width="29.33163" height="42.99264" viewBox="0,0,29.33163,42.99264"><defs><linearGradient x1="240.8678" y1="170.24446" x2="241.53362" y2="184.59881" gradientUnits="userSpaceOnUse" id="color-1"><stop offset="0" stop-color="#000000"/><stop offset="1" stop-color="#000000" stop-opacity="0"/></linearGradient></defs><g transform="translate(-225.71486,-153.63968)"><g data-paper-data="{&quot;isPaintingLayer&quot;:true}" fill-rule="nonzero" stroke-linejoin="miter" stroke-miterlimit="10" stroke-dasharray="" stroke-dashoffset="0" style="mix-blend-mode: normal"><text transform="translate(251.54647,187.72709) rotate(-180) scale(0.38082,-0.38082)" font-size="40" xml:space="preserve" data-paper-data="{&quot;index&quot;:null}" fill="#ffffff" fill-rule="nonzero" stroke="none" stroke-width="1" stroke-linecap="butt" stroke-linejoin="miter" stroke-miterlimit="10" stroke-dasharray="" stroke-dashoffset="0" font-family="Sans Serif" font-weight="normal" text-anchor="start" style="mix-blend-mode: normal"><tspan x="0" dy="0">???</tspan></text><path d="M231.23156,194.23986c0,0 -1.10423,-2.32316 -1.17926,-2.92889c-0.22509,-1.81717 -0.68821,-9.78131 -1.08283,-16.98067c-0.06104,-1.11356 0.75148,-2.90313 0.75148,-2.90313c0,0 1.18628,-0.9817 1.8944,-1.0244c7.81264,-0.47107 15.21288,-1.53312 18.15833,-0.82316c0.98182,0.23665 2.8026,1.11514 2.8026,1.11514c0,0 0.53427,2.44573 0.6444,3.07664c0.03671,0.2103 0.05795,0.32864 0.08207,0.54076c0.72274,6.3557 0.87672,13.74787 0.80931,16.33615c-0.02248,0.86276 -0.96862,2.26039 -0.96862,2.26039c0,0 -0.6949,1.57375 -3.14005,2.16332c-2.67541,0.64509 -9.26387,0.79646 -16.05845,0.93161z" data-paper-data="{&quot;index&quot;:null}" fill="#582700" stroke="#000000" stroke-width="1.25" stroke-linecap="round"/><path d="M254.93474,171.09674c-0.35548,0.60628 -0.96176,0.2508 -0.96176,0.2508l-0.4172,-0.27135c-0.05115,-0.01438 -0.10227,-0.02849 -0.15335,-0.04232c-0.11442,0.18169 -0.34474,0.39883 -0.76504,0.28519c-0.38739,-0.10474 -0.49378,-0.37085 -0.51377,-0.57992c-1.49616,-0.28741 -2.98307,-0.38287 -4.54147,-0.43507c-4.35559,0.003 -8.70198,0.34392 -13.0499,0.59506c-1.42592,0.08236 -4.58438,0.84037 -5.82996,-0.03771c-0.60746,-0.42824 -0.44285,-1.52491 -0.53337,-2.11278c-0.2623,-1.70352 -0.57198,-3.46506 -0.67789,-5.1866c-0.12339,-2.25108 -1.081,-4.21246 -1.49172,-6.40364c-0.20591,-1.09851 -0.64477,-2.18948 0.29055,-3.20291c0.26409,-0.28615 0.76396,-0.15688 1.15102,-0.19937c1.4146,-0.1553 2.79323,-0.13715 4.20614,-0.05077c4.47749,0.27373 8.89137,0.31308 13.35417,0.86097c1.8004,0.22317 3.59864,0.1586 5.41202,0.11581c1.06577,-0.02514 2.01877,-0.38444 2.7246,0.79478c0.42152,0.70421 0.26965,2.96795 0.28705,3.80158c0.0671,3.2145 0.79817,7.12372 0.30925,10.3892c0.06701,0.01791 0.13406,0.03627 0.20118,0.05504l0.74866,0.41222c0,0 0.60628,0.35548 0.2508,0.96176z" data-paper-data="{&quot;index&quot;:null}" fill="#000000" stroke="none" stroke-width="0.5" stroke-linecap="butt"/><path d="M234.30036,180.9561c-0.18456,-0.46284 0.27828,-0.64741 0.27828,-0.64741l0.36821,-0.13765c0.60225,-0.36788 1.24267,-0.61064 1.90934,-0.72682c0.04937,-0.02144 0.09898,-0.0427 0.14883,-0.06379c0.01324,-0.00618 0.02659,-0.01242 0.04006,-0.01873l0.01947,-0.01004l-0.02188,-0.06011l0.49048,-0.17857c0.04757,-0.01857 0.09886,-0.03009 0.15261,-0.0332c0.27474,-0.01587 0.51032,0.19399 0.52619,0.46872c0.01176,0.20344 -0.10026,0.38541 -0.27074,0.4726c-0.08869,0.08974 -0.18931,0.12986 -0.18931,0.12986c-0.10689,0.04257 -0.2124,0.08546 -0.3168,0.12898c-0.43654,0.21515 -0.79053,0.51733 -1.16776,0.54802c-0.08119,0.04337 -0.16233,0.088 -0.24354,0.13407l-0.40717,0.35621c-0.08098,0.07221 -0.18598,0.1186 -0.3027,0.12535c-0.17014,0.00982 -0.32526,-0.06692 -0.42249,-0.19203c-0.12902,0.03215 -0.44601,0.06832 -0.59108,-0.29547z" data-paper-data="{&quot;index&quot;:null}" fill="#582700" stroke="none" stroke-width="0.5" stroke-linecap="butt"/><path d="M233.87326,181.16935c-0.14507,0.36379 -0.46206,0.32762 -0.59108,0.29547c-0.09723,0.12511 -0.25235,0.20185 -0.42249,0.19203c-0.11672,-0.00675 -0.22172,-0.05314 -0.3027,-0.12535l-0.40717,-0.35621c-0.08121,-0.04607 -0.16235,-0.0907 -0.24354,-0.13407c-0.37723,-0.03069 -0.73122,-0.33287 -1.16776,-0.54802c-0.1044,-0.04352 -0.20991,-0.08641 -0.3168,-0.12898c0,0 -0.10062,-0.04012 -0.18931,-0.12986c-0.17048,-0.08719 -0.2825,-0.26916 -0.27074,-0.4726c0.01587,-0.27473 0.25145,-0.48459 0.52619,-0.46872c0.05375,0.00311 0.10504,0.01463 0.15261,0.0332l0.49048,0.17857l-0.02188,0.06011l0.01947,0.01004c0.01347,0.00631 0.02682,0.01255 0.04006,0.01873c0.04985,0.02109 0.09946,0.04235 0.14883,0.06379c0.66667,0.11618 1.30709,0.35894 1.90934,0.72682l0.36821,0.13765c0,0 0.46284,0.18457 0.27828,0.64741z" data-paper-data="{&quot;index&quot;:null}" fill="#582700" stroke="none" stroke-width="0.5" stroke-linecap="butt"/><path d="M229.86013,185.56769l-0.66582,-14.35435l23.34697,-1.93776l0.66582,14.35435z" fill="url(#color-1)" stroke="#000000" stroke-width="0" stroke-linecap="butt"/></g></g></svg>