<svg version="1.1" xmlns="http://www.w3.org/2000/svg" xmlns:xlink="http://www.w3.org/1999/xlink" width="448.60065" height="313.25128" viewBox="0,0,448.60065,313.25128"><defs><linearGradient x1="410.13564" y1="225.74357" x2="423.01293" y2="233.93968" gradientUnits="userSpaceOnUse" id="color-1"><stop offset="0" stop-color="#00ceff"/><stop offset="1" stop-color="#00ceff" stop-opacity="0"/></linearGradient><linearGradient x1="438.88173" y1="153.0074" x2="448.14922" y2="148.80392" gradientUnits="userSpaceOnUse" id="color-2"><stop offset="0" stop-color="#00d0ff"/><stop offset="1" stop-color="#00d0ff" stop-opacity="0"/></linearGradient><linearGradient x1="102.25418" y1="50.57377" x2="102.25418" y2="268.82894" gradientUnits="userSpaceOnUse" id="color-3"><stop offset="0" stop-color="#4ebeff" stop-opacity="0"/><stop offset="1" stop-color="#4ebeff"/></linearGradient><linearGradient x1="102.25418" y1="50.57377" x2="102.25418" y2="268.82894" gradientUnits="userSpaceOnUse" id="color-4"><stop offset="0" stop-color="#8dd5ff" stop-opacity="0"/><stop offset="1" stop-color="#8dd5ff"/></linearGradient><linearGradient x1="79.1353" y1="42.42833" x2="79.1353" y2="245.50683" gradientUnits="userSpaceOnUse" id="color-5"><stop offset="0" stop-color="#4ebeff" stop-opacity="0"/><stop offset="1" stop-color="#4ebeff"/></linearGradient><linearGradient x1="79.1353" y1="42.42833" x2="79.1353" y2="245.50683" gradientUnits="userSpaceOnUse" id="color-6"><stop offset="0" stop-color="#8dd5ff" stop-opacity="0"/><stop offset="1" stop-color="#8dd5ff"/></linearGradient><linearGradient x1="25.23655" y1="219.87764" x2="39.21225" y2="201.09319" gradientUnits="userSpaceOnUse" id="color-7"><stop offset="0" stop-color="#313131"/><stop offset="1" stop-color="#666666"/></linearGradient></defs><g transform="translate(-10.25117,-25.0724)"><g data-paper-data="{&quot;isPaintingLayer&quot;:true}" fill-rule="nonzero" stroke-miterlimit="10" stroke-dasharray="" stroke-dashoffset="0" style="mix-blend-mode: normal"><g stroke-linecap="butt" stroke-linejoin="miter"><path d="M429.72436,34.63312l-0.96513,-2.31113l7.56374,-3.15861l0.96513,2.31113z" fill="#3c3c3c" stroke="#000000" stroke-width="2"/><path d="M402.28432,50.18544l-1.31609,-3.15156l7.56374,-3.15861l1.31609,3.15156z" fill="#3c3c3c" stroke="#000000" stroke-width="2"/><path d="M374.42822,62.06485l-1.31609,-3.15156l7.56374,-3.15861l1.31609,3.15156z" fill="#3c3c3c" stroke="#000000" stroke-width="2"/><path d="M368.46463,73.19128l-2.98313,-7.14353l14.91738,-6.22949l2.98313,7.14353z" fill="#4a4a4a" stroke="#000000" stroke-width="2"/><path d="M379.75792,84.20378l-9.03714,-21.6407l39.95205,-16.68395l4.17099,9.98801l-27.96986,11.68019l4.76764,11.98986l-2.59887,3.84611l-10.50501,2.66897z" fill="#545454" stroke="#000000" stroke-width="2"/><path d="M415.16315,57.39115l-5.87853,-14.07696l40.55005,-16.93367l5.87853,14.07696z" fill="#3c3c3c" stroke="#000000" stroke-width="2"/><path d="M438.96151,36.86827l5.88056,-5.41665l5.29461,-2.21102l0.3685,0.88242l-4.28613,1.78988l-3.78556,3.61724l3.06347,2.72806l0.0631,3.03156l-1.09357,-2.13335l-3.18695,-2.6374l-1.78826,1.66758l-7.05662,1.46151l-0.31084,-0.98873z" fill="#8e8e8e" stroke="none" stroke-width="0"/><path d="M411.76449,47.5498l-0.35096,-0.84041l12.81633,-5.35209l8.68821,1.30668l-2.64574,1.01044l-6.95213,-0.95026z" fill="#8e8e8e" stroke="none" stroke-width="0"/><path d="M424.15153,52.98696l6.87796,-6.57339l3.44941,-1.19372l-7.80611,6.71424z" fill="#8e8e8e" stroke="none" stroke-width="0"/><path d="M372.52338,65.27414l-0.35096,-0.84041l4.17399,1.25269l3.60556,-3.57808l13.90637,-5.13603l7.34699,-4.61333l0.81873,1.01518l-7.35941,5.04279l-13.76336,4.45564l-4.20725,5.09886z" fill="#8e8e8e" stroke="none" stroke-width="0"/><path d="M384.06877,67.33694l-0.42831,-1.20289l7.99982,-5.52902l11.8266,-4.25805l8.85619,-4.4855l0.4387,1.05051l-8.65766,4.77876l-11.88359,4.08827z" fill="#8e8e8e" stroke="none" stroke-width="0"/><path d="M382.42867,72.9814l-0.93256,-0.99232l6.35811,0.45382l0.4387,1.05051z" fill="#8e8e8e" stroke="none" stroke-width="0"/><path d="M375.38413,72.71553l-0.35096,-0.84041l2.73135,-1.14062l5.62005,6.19039l3.57242,0.24518l0.39168,0.91524l-4.2471,-0.00247l-5.75159,-6.18826z" fill="#8e8e8e" stroke="none" stroke-width="0"/><path d="M455.44267,39.27372l-4.73792,-11.34561l2.10103,-0.87739l4.73792,11.34561z" fill="#3c3c3c" stroke="#000000" stroke-width="2"/></g><g stroke="none" stroke-width="0" stroke-linecap="butt" stroke-linejoin="miter"><path d="M224.30198,262.75031c0,0 -1.46801,-6.71558 2.36452,-14.45807c1.81212,-3.66082 7.56145,-8.53766 10.09093,-13.28435c14.89524,-27.95194 36.76259,-71.15865 49.76593,-95.63141c2.00241,-3.76863 -1.9932,-11.12192 0.33938,-15.51709c3.04496,-5.73746 48.60604,-88.66954 48.60604,-88.66954c0,0 15.46272,51.83307 11.07474,60.79212c-5.30849,10.83838 -28.10247,55.50127 -40.83907,80.96126c-1.60305,3.20446 2.29247,8.19779 0.90972,10.93491c-15.9375,31.54799 -43.83534,86.77962 -43.83534,86.77962z" fill="#97d4ff"/><path d="M230.27823,269.06755l4.4907,-8.36901l12.06989,-4.86933l-2.93866,-15.62817c0,0 38.50309,-73.48437 54.99648,-104.96248c1.83541,-3.50293 -1.51347,-11.74378 0.60149,-15.78027c13.42552,-25.623 32.75261,-60.99661 32.75261,-60.99661l4.75401,35.04897c0,0 -25.57439,51.43111 -44.36754,86.85881c-2.11167,3.9808 2.33948,11.05392 0.07488,15.73956c-8.69023,17.98071 -19.98243,39.13257 -28.39809,54.55021c-1.39904,2.56307 -0.97502,9.17853 -2.18988,11.38373c-4.78472,8.68507 -9.68952,10.06651 -9.68952,10.06651z" fill="#66c0ff"/><path d="M192.87907,250.34857c-0.89515,-6.97565 25.54895,-26.86149 29.17908,-29.11815c3.53713,-2.19884 -14.49361,19.83829 -10.54485,21.88603c5.54061,2.87319 23.37775,-3.96778 23.37775,-3.96778l-12.16523,23.45932c0,0 -29.23714,-7.5087 -29.84677,-12.25941z" data-paper-data="{&quot;index&quot;:null}" fill="#525252"/><path d="M253.827,277.12694l12.16523,-23.45933c0,0 4.68553,18.52051 10.22614,21.39369c3.94878,2.04769 11.57222,-25.38636 11.81292,-21.22844c0.24704,4.26729 -0.77062,37.33839 -6.98784,40.62579c-4.2342,2.23887 -27.21644,-17.33169 -27.21644,-17.33169z" fill="#525252"/><path d="M205.58814,320.58116l24.46198,-47.17226l10.90544,5.65519l-24.462,47.17224z" fill="#525252"/><path d="M200.79733,324.85491l5.26065,-10.14456c0,0 5.20995,2.05812 7.61784,3.30673c2.4924,1.29248 7.09178,4.32118 7.09178,4.32118l-5.26064,10.14459c0,0 -5.16625,-2.03541 -7.61785,-3.30672c-2.45162,-1.27129 -7.09177,-4.32119 -7.09177,-4.32119z" fill="#242424"/><path d="M224.05222,244.55968c6.21931,-11.99327 20.98353,-16.67399 32.97681,-10.45465c11.99327,6.21931 16.67395,20.98352 10.45466,32.97679c-6.21931,11.99327 -20.98352,16.67401 -32.97679,10.4547c-11.99327,-6.21931 -16.67399,-20.98353 -10.45465,-32.97681zM239.25593,268.76633c7.00336,3.63172 15.62479,0.89843 19.25652,-6.10493c3.63172,-7.00336 0.89843,-15.62479 -6.10493,-19.25653c-7.00336,-3.63172 -15.6248,-0.89845 -19.25653,6.10489c-3.63172,7.00337 -0.89843,15.62479 6.10493,19.25652z" fill="#242424"/><path d="M229.94521,231.38156l18.56489,-35.02458l12.75052,23.50726l-17.75468,34.23794z" fill="#242424"/></g><g stroke-linecap="butt" stroke-linejoin="miter"><path d="M356.56413,324.52779l-8.60923,-4.11062l9.45444,-19.80123l8.60924,4.11062z" fill="#666666" stroke="#343434" stroke-width="5"/><path d="M427.00122,117.9607l25.79104,55.21586l-81.59184,125.07778l-12.65771,-5.20245z" data-paper-data="{&quot;index&quot;:null}" fill="#66cfff" stroke="none" stroke-width="0"/><path d="M374.77828,300.10189l-6.97492,-4.32074l82.92736,-126.10393l7.23603,3.03583z" fill="url(#color-1)" stroke="none" stroke-width="0"/><path d="M448.2741,173.71442l-21.86136,-54.15974l2.71879,-4.51115l28.7358,56.73725z" fill="url(#color-2)" stroke="none" stroke-width="0"/><path d="M368.07911,308.52958l-15.49661,-7.39912l1.17619,-13.53428l24.10588,11.50973z" fill="#666666" stroke="#343434" stroke-width="3.5"/><path d="M357.90603,335.74039l-20.94912,-10.00251l7.26733,-7.10202l15.34668,6.97512z" data-paper-data="{&quot;index&quot;:null}" fill="#666666" stroke="#343434" stroke-width="3.5"/></g><g stroke="none" stroke-width="0" stroke-linecap="butt" stroke-linejoin="miter"><path d="M106.37527,283.89099l62.04,-104.47697l3.31669,47.51806l-34.27262,75.41713z" fill="#66c7ff"/><path d="M124.50768,294.65826l33.97532,-65.08249l-3.91132,-26.84873l13.84365,-23.31305l3.31669,47.51806l-34.27262,75.41713z" fill="#4ebeff"/><g><path d="M104.97574,283.90522l0.51272,-0.86345l33.45852,19.8682l-0.51272,0.86345z" fill="#727272"/><g><g><g><path d="M105.49773,283.2428l3.67573,-1.74356l8.38707,-14.67023l9.72091,5.7724l-9.13316,15.05813l11.59457,7.47323l4.38392,-12.00006l1.34432,15.69214l3.09461,4.0542c0,0 -29.39991,-17.45808 -32.29088,-19.17481c-0.4485,-0.26631 -0.77707,-0.46143 -0.77707,-0.46143z" fill="#9a9a9a"/><path d="M112.4481,274.67483l2.38858,-4.02244l10.72654,6.36956l-2.38858,4.02244z" fill="#848484"/><path d="M108.13195,281.17983l1.99047,-3.35207l10.72654,6.36956l-1.99047,3.35207z" fill="#848484"/><path d="M116.02061,266.36794l2.58762,-4.35765l9.01939,-1.44517l3.38317,8.80999l-2.58762,4.35765z" fill="#727272"/></g><path d="M131.37143,289.88471l0.57077,-1.9065l3.52762,2.09477l-0.15571,2.15295z" fill="#848484"/></g><g fill="#00639c"><path d="M123.47978,265.04947c0.49553,-0.83452 1.57379,-1.1093 2.40829,-0.61377c0.83452,0.49553 1.1093,1.57379 0.61377,2.40829c-0.49553,0.83452 -1.57379,1.1093 -2.40829,0.61377c-0.83452,-0.49553 -1.1093,-1.57379 -0.61377,-2.40829z"/><path d="M123.52694,265.95343c0.49553,-0.83452 1.57379,-1.1093 2.40829,-0.61377c0.83452,0.49553 1.1093,1.57379 0.61377,2.40829c-0.49553,0.83452 -1.57379,1.1093 -2.40829,0.61377c-0.83452,-0.49553 -1.1093,-1.57379 -0.61377,-2.40829z"/></g></g><g><path d="M100.91596,317.29922l1.1981,-2.01763l9.07935,5.39145l-1.1981,2.01763c0,0 -3.82521,-0.45209 -5.33844,-1.35061c-1.5132,-0.89857 -3.74093,-4.04082 -3.74093,-4.04082z" fill="#525252"/><path d="M101.62133,315.06417l7.48816,-12.61021l-1.06636,-5.864l17.05008,10.35197l-5.92708,1.93859l-7.28843,12.27393z" fill="#595959"/><path d="M101.92226,315.01545l7.48816,-12.61021l-1.77186,-6.28289l9.69634,4.84813l-10.18388,17.14993z" fill="#494949"/><path d="M101.74151,294.60255l0.97763,-6.24218l32.7866,19.46913l-4.25628,4.29526z" fill="#6b6b6b"/><path d="M100.11132,289.01707l0.4992,-0.84069l35.81301,21.26633l-0.4992,0.84069z" fill="#595959"/><path d="M100.51681,288.33412l1.17804,-6.41561l38.862,23.27178l-4.43421,4.67699z" fill="#808080"/><g><g><path d="M112.21803,290.91051l-0.41116,-2.66566l18.87029,11.20542l0.41116,2.66566z" fill="#343434"/><g><path d="M109.741,295.75289l2.87615,-4.84353l18.54693,11.01344l-2.87615,4.84353z" fill="#505050"/><path d="M108.91982,293.17206l2.868,-4.82977l0.83081,2.50342l-2.868,4.82977z" fill="#1c1c1c"/></g></g><g fill="#66c7ff"><path d="M112.01636,293.5784l0.19292,-0.32486l8.08974,4.80379l0.66638,-1.12991l0.45694,0.29534l0.27858,-0.46777l0.63439,0.38221l-0.11802,0.2219l-0.41972,-0.22701l-0.13314,0.2538l0.70179,0.447l-0.17299,0.22124l-1.06799,-0.65027l-0.46653,0.86713l5.0254,2.98413l0.55176,-0.68298l0.93328,0.50679l-0.17183,0.373l-0.59404,-0.34102l-0.44372,0.74718l-11.51252,-6.83629l-0.92357,-0.54845z"/><path d="M113.40218,295.39878l0.54009,-0.9096l0.27515,0.16336l-0.54009,0.9096z"/><path d="M113.50895,295.50165l0.1473,-0.24809l1.37566,0.81689l-0.1473,0.24808z"/><path d="M113.60225,296.52423l0.44192,-0.74423l0.27515,0.16337l-0.44192,0.74423z"/><path d="M113.87736,296.68757l0.1473,-0.24808l1.19225,0.70797l-0.1473,0.24809z"/><path d="M114.31927,295.94338l0.34373,-0.57886l0.18342,0.10892l-0.34373,0.57886z"/><path d="M114.74824,295.63883l0.04913,-0.08272l1.00884,0.59906l-0.04913,0.08272z"/><path d="M117.05113,298.23668l0.78566,-1.32306l0.36686,0.21783l-0.78566,1.32307z"/><path d="M116.32026,296.12496l0.63835,-1.07498l0.27515,0.16337l-0.63835,1.07499z"/><path d="M117.32626,298.40004l0.1473,-0.24809l1.28397,0.76243l-0.1473,0.24808z"/><path d="M117.56894,299.66267l0.49103,-0.82691l0.18342,0.10892l-0.49103,0.82691z"/><path d="M117.66066,299.71715l0.04913,-0.08272l1.00884,0.59906l-0.04913,0.08272z"/><path d="M118.57409,298.80555l0.39287,-0.66154l0.18342,0.10892l-0.39287,0.66154z"/><path d="M119.00305,298.50095l0.0982,-0.16539l1.19225,0.70797l-0.0982,0.1654z"/><path d="M116.99471,295.40698l0.1473,-0.24808l1.46736,0.87135l-0.1473,0.24808z"/></g></g><path d="M101.70112,294.92476l0.29952,-0.50441l29.42391,17.47233l-0.29952,0.50441z" fill="#3e3e3e"/><path d="M100.97382,315.28677l0.79873,-1.34507l10.92888,6.48968l-0.79873,1.34507z" fill="#3e3e3e"/></g></g></g><g><path d="M78.40006,221.20079l-1.72092,-23.70916l11.80552,-24.01634l2.57709,-11.3333l65.13786,-111.56822l-32.69752,74.94162l-22.58304,56.84661l-8.2622,35.57021l-2.08434,20.17405l-18.57563,19.37272l-23.68812,11.34995l17.96851,-20.76885z" data-paper-data="{&quot;index&quot;:null}" fill="url(#color-3)" stroke="url(#color-4)" stroke-width="3.95999" stroke-linecap="round" stroke-linejoin="round"/><path d="M21.88962,218.17356l-9.51118,27.33327l-0.15001,-29.85265l8.17193,-27.44793l15.16532,-10.02087l24.9702,-22.60175l36.28957,-46.20781l49.2167,-66.9475l-65.69992,115.95981l-7.97727,7.14172l-14.4582,21.95741l-19.43091,7.29144z" data-paper-data="{&quot;index&quot;:null}" fill="url(#color-5)" stroke="url(#color-6)" stroke-width="3.95454" stroke-linecap="round" stroke-linejoin="round"/><g data-paper-data="{&quot;index&quot;:null}" stroke="#000000" stroke-width="6.29461" stroke-linejoin="miter"><g><path d="M33.78495,204.52051l21.43393,8.48174l17.44648,19.76688l-6.67841,11.99776l-12.34987,-13.26037l-9.25612,2.61467l-1.06995,-9.61865l-15.61287,-8.22276z" fill="url(#color-7)" stroke-linecap="round"/><path d="M36.97517,208.72364l8.761,6.51826l-4.80845,8.63835l-8.76105,-6.51824z" fill="#666666" stroke-linecap="butt"/><path d="M59.3054,224.89135l8.76099,6.51825l-4.80845,8.63835l-8.76105,-6.51823z" fill="#666666" stroke-linecap="butt"/></g><path d="M44.86327,229.29779c-0.00529,-1.11152 0.32264,-2.39315 0.98625,-3.58523c0.66353,-1.19212 1.53663,-2.06815 2.41388,-2.52308c0.8749,-0.45389 1.75289,-0.48477 2.42397,0.01447c0.67103,0.49926 1.01044,1.4359 1.01553,2.54455c0.00537,1.11155 -0.32262,2.39321 -0.98617,3.58527c-0.66359,1.19214 -1.5367,2.06816 -2.41396,2.52304c-0.87488,0.45395 -1.75286,0.48483 -2.42388,-0.01443c-0.67103,-0.49926 -1.0105,-1.43589 -1.01561,-2.54459z" fill="#003fff" stroke-linecap="butt"/></g></g></g></g></svg>