<svg version="1.1" xmlns="http://www.w3.org/2000/svg" xmlns:xlink="http://www.w3.org/1999/xlink" width="143.62009" height="179.32472" viewBox="0,0,143.62009,179.32472"><g transform="translate(-160.21326,-64.5086)"><g data-paper-data="{&quot;isPaintingLayer&quot;:true}" fill-rule="nonzero" stroke-linejoin="miter" stroke-miterlimit="10" stroke-dasharray="" stroke-dashoffset="0" style="mix-blend-mode: normal"><path d="M176.16668,243.83333v-127.66667h127.66667v127.66667z" fill="none" stroke="none" stroke-width="NaN" stroke-linecap="butt"/><g stroke="#000000"><g><path d="M217.87039,172.88894l-10.67171,-4.69148c0,0 -3.14346,5.84506 -6.23215,4.45822c-2.85983,-1.28407 -2.15196,-4.96107 -2.15196,-4.96107c0,0 -7.57731,4.98667 -8.53042,4.33344c-2.17544,-1.49096 -2.0032,-3.83695 -0.60727,-5.94321c1.30952,-1.97588 4.05142,-3.51841 5.60762,-4.67176c1.01962,-0.75566 1.23515,-1.51854 1.23515,-1.51854c0,0 -2.4313,0.36106 -4.32351,0.79127c-2.41009,0.54798 -4.42563,1.13411 -4.63952,0.42586c-2.09417,-6.93449 4.22548,-7.25443 9.54003,-7.00724c2.81943,0.13115 6.06272,0.04446 6.06272,0.04446c0,0 -0.88869,-0.45667 -1.09447,-1.60098c-0.56192,-3.12458 -0.0284,-9.07867 7.15435,-7.36348c0.96555,0.23057 -1.68436,5.46466 -1.68436,5.46466l3.40707,2.78172l-2.33311,5.61985l10.99264,8.46409z" fill="#f79587" stroke-width="0" stroke-linecap="round"/><path d="M198.81456,167.69461c0,0 -0.04879,0.03211 -0.13904,0.09084c-0.13656,-0.06446 -0.27642,-0.11077 -0.42101,-0.13307c-3.26743,-0.50375 -6.02851,3.71514 -9.61796,1.49115c-0.01293,-0.99491 0.37451,-2.05407 1.04031,-3.05869c1.30952,-1.97588 4.05142,-3.5184 5.60762,-4.67176c1.01961,-0.75566 1.23515,-1.51854 1.23515,-1.51854c0,0 2.50952,0.33687 2.16867,0.39121c0.15954,-0.8434 -2.99999,-1.9296 -4.23657,-2.34593c-1.90647,-0.64187 -4.69905,0.63025 -7.03482,2.67097c-1.6435,-6.44903 4.49619,-6.74745 9.67972,-6.50635c1.06794,0.04968 3.18693,0.07182 3.18693,0.07182c0,0 3.27017,2.96883 5.17876,0.76519c0.33254,-0.38395 -2.30295,-0.79254 -2.30295,-0.79254c0,0 -0.88869,-0.45667 -1.09447,-1.60099c-0.56192,-3.12458 -0.02838,-9.07869 7.15434,-7.36349c0.96555,0.23057 -1.68435,5.46466 -1.68435,5.46466l0.50783,0.41461c-0.84858,0.02626 -1.60218,0.46331 -1.78437,1.64501c-0.30548,1.98143 2.28294,2.00833 2.18458,2.66145c-0.15079,1.0012 -0.79984,1.44204 -1.14875,2.20016c-0.08755,0.17591 -0.1498,0.36816 -0.18135,0.57274c-0.08988,0.58296 0.08821,1.14539 0.44251,1.56203c-0.72414,2.32666 -1.66264,6.18524 -2.14084,7.25828c-0.39433,0.88489 -1.90427,2.28618 -2.79437,2.68854c-1.68913,0.76352 -2.64724,-1.15577 -3.82904,-1.80732c0.01311,-0.09646 0.02343,-0.15004 0.02343,-0.15004z" fill="#fde0be" stroke-width="0" stroke-linecap="butt"/><path d="M208.53808,168.7863c1.58323,-2.33466 2.86672,-5.07036 3.08335,-7.416l6.6651,5.13197c-1.67144,1.22212 -3.26286,2.99657 -3.85835,4.26553c-0.08914,0.15976 -0.15686,0.33436 -0.19872,0.52053z" fill="#fde0be" stroke-width="0" stroke-linecap="butt"/><path d="M198.68736,167.78781c0,0 4.62326,-5.64751 6.14779,-5.48165c3.31946,0.36113 2.23633,5.98452 2.23633,5.98452" fill="none" stroke-width="1" stroke-linecap="round"/><path d="M204.94694,157.92199c0,0 4.36999,1.4313 5.01091,2.7864c0.66298,1.40174 -1.09694,5.48891 -1.09694,5.48891" fill="none" stroke-width="1" stroke-linecap="round"/><path d="M217.87037,172.88895l-10.67171,-4.69148c0,0 -3.14345,5.84505 -6.23214,4.45821c-2.85983,-1.28407 -2.15196,-4.96108 -2.15196,-4.96108c0,0 -7.5773,4.98667 -8.53042,4.33345c-2.17544,-1.49096 -2.0032,-3.83695 -0.60727,-5.94321c1.30952,-1.97587 4.05143,-3.5184 5.60763,-4.67176c1.01961,-0.75566 1.23513,-1.51854 1.23513,-1.51854c0,0 -2.43131,0.36107 -4.32351,0.79128c-2.4101,0.54795 -4.42565,1.1341 -4.63954,0.42585c-2.09416,-6.93449 4.2255,-7.25443 9.54006,-7.00723c2.81943,0.13115 6.06272,0.04446 6.06272,0.04446c0,0 -0.88867,-0.45667 -1.09446,-1.60099c-0.56192,-3.12458 -0.02839,-9.07869 7.15435,-7.36348c0.96555,0.23057 -1.68435,5.46466 -1.68435,5.46466l3.40707,2.78172l-2.33311,5.61985l10.99264,8.46409z" fill="none" stroke-width="1" stroke-linecap="round"/></g><g stroke-linecap="round"><path d="M214.24926,176.61789l4.9468,-13.79135c0,0 4.12621,3.96788 8.29347,7.6624c3.79076,3.36072 7.65944,6.3618 5.30724,10.22953c-2.95271,4.8551 -18.54751,-4.10057 -18.54751,-4.10057z" fill="#feecf7" stroke-width="0"/><path d="M214.24926,176.61789l0.2793,-0.77868c0.27286,0.06327 0.55011,0.1168 0.83145,0.16018c1.08799,0.16775 8.85198,0.06332 9.82282,-0.21508c2.79221,0.10768 1.89103,-1.85298 2.32705,-4.68105c0.02818,-0.18274 0.04713,-0.36477 0.05723,-0.54563c3.76565,3.33299 7.56586,6.31948 5.22968,10.16084c-2.95271,4.8551 -18.54752,-4.10059 -18.54752,-4.10059z" fill="#dc94e7" stroke-width="0"/><path d="M214.24926,176.61789l4.9468,-13.79135c0,0 4.12621,3.96788 8.29346,7.6624c3.79073,3.36072 7.65945,6.36181 5.30724,10.22953c-2.95271,4.8551 -18.54751,-4.10057 -18.54751,-4.10057z" fill="none" stroke-width="1"/></g></g><g><path d="M229.21919,193.1053c0,0 1.39092,-3.36858 3.78463,-7.09929c1.27412,-1.98577 2.49586,-4.53679 4.68729,-5.71387c1.99546,-1.07183 4.93381,-0.80029 7.66689,-0.39131c6.3148,0.94494 9.33116,8.15743 9.33116,8.15743z" fill="#f89688" stroke="#000000" stroke-width="1" stroke-linecap="butt"/><path d="M228.94629,193.26787c0,0 7.57326,-3.32608 13.93343,-4.50733c4.07746,-0.75729 12.15862,-0.95638 12.15862,-0.95638l6.35575,14.94159l-40.69911,1.44956c0,0 -3.84157,-8.87466 -2.51107,-10.63669c0.51124,-0.67705 10.7624,-0.29075 10.7624,-0.29075z" fill="#0066cd" stroke="#000000" stroke-width="0" stroke-linecap="round"/><path d="M220.69497,204.1953c0,0 -2.48891,-5.74978 -2.76616,-8.91207c1.60468,-0.04097 3.55231,-0.79554 5.12842,-0.78882c2.21826,0.00947 6.09094,1.21487 8.18292,1.89998c3.0425,0.9964 6.64048,-0.38223 9.28249,1.26236c1.30988,0.81536 2.66213,1.56407 4.07691,2.11079c0.36983,0.23182 0.68731,0.44656 0.80457,0.57757c0.48029,0.53662 1.68916,1.69424 3.17568,2.85703z" fill="#061382" stroke="#000000" stroke-width="0" stroke-linecap="butt"/><path d="M242.87971,188.76053c4.07745,-0.75729 12.15862,-0.95638 12.15862,-0.95638l6.35575,14.94159l-3.48557,0.12414c0.17544,-2.82462 -1.40429,-5.85138 -3.61076,-7.24181c-0.0605,-0.09105 -0.12816,-0.1816 -0.20334,-0.27144c-3.49966,-4.18251 -8.29833,-5.46688 -13.72994,-6.04056c0.84604,-0.21327 1.69084,-0.40242 2.51525,-0.55554z" fill="#061382" stroke="#000000" stroke-width="0" stroke-linecap="butt"/><path d="M228.94629,193.26787c0,0 7.57326,-3.32608 13.93343,-4.50733c4.07746,-0.75729 12.15862,-0.95638 12.15862,-0.95638l6.35575,14.94159l-40.69911,1.44956c0,0 -3.84157,-8.87466 -2.51107,-10.63669c0.51124,-0.67705 10.7624,-0.29075 10.7624,-0.29075z" fill="none" stroke="#000000" stroke-width="1" stroke-linecap="round"/><path d="M207.85195,210.28669c1.80542,0.70627 2.54986,1.58364 4.64157,1.58364c0,0 0.07156,-0.00001 0.17282,0.02093c0.14433,-0.02756 0.25501,-0.0175 0.25501,-0.0175l0.56984,0.05525c4.1904,0.00341 7.46857,0.17318 11.405,-1.51567c5.52461,-2.40699 12.38776,-3.90543 18.08093,-5.79563c0.0734,-0.0327 0.84286,3.4773 0.84286,3.4773c-1.21956,0.41128 -5.65408,1.76718 -8.55751,2.2672c-3.05654,0.52639 -5.8471,0.65634 -5.8471,0.65634c0,0 -0.86173,1.49922 -2.76305,2.98229c-0.7494,0.58455 -2.88239,2.06967 -6.12803,2.51081c-2.51596,0.34197 -9.21476,-0.05582 -13.24962,-0.94865c-3.11469,-0.68921 -4.02535,-1.88686 -4.03802,-1.9381c-0.02901,-0.10212 0.09318,-3.15157 0.21404,-3.28137c0.10615,-0.14177 0.27291,-0.26526 0.5344,-0.28912l0.87176,-0.21772c0.61545,-0.12325 1.23172,-0.24249 1.84863,-0.35816c0,0 0.82197,-0.15412 0.97608,0.66783c0.00108,0.00573 0.0021,0.01143 0.00308,0.01709c0.08579,0.05124 0.14501,0.10271 0.1673,0.12325z" fill="#ffedf8" stroke="none" stroke-width="0.5" stroke-linecap="butt"/><path d="M224.89618,210.41334c5.52461,-2.40699 12.38776,-3.90543 18.08093,-5.79563c0.0734,-0.0327 0.84286,3.4773 0.84286,3.4773c-1.21956,0.41128 -5.65408,1.76718 -8.55751,2.2672c-3.05654,0.52639 -5.8471,0.65634 -5.8471,0.65634c0,0 -0.86173,1.49922 -2.76305,2.98229c-0.7494,0.58455 -2.88239,2.06967 -6.12803,2.51081c-1.50167,0.20411 -4.49345,0.14469 -7.51952,-0.12623c0.03715,-0.05612 0.07338,-0.11353 0.10863,-0.17227c0.48289,-0.80482 0.86631,-2.88553 0.70629,-4.28354c4.03464,0.01047 7.24352,0.12822 11.07649,-1.51625z" fill="#de95ea" stroke="none" stroke-width="0.5" stroke-linecap="butt"/><path d="M207.85195,210.28669c1.80542,0.70627 2.54986,1.58364 4.64157,1.58364c0,0 0.07156,-0.00001 0.17282,0.02093c0.14433,-0.02756 0.25501,-0.0175 0.25501,-0.0175l0.56984,0.05525c4.1904,0.00341 7.46857,0.17318 11.405,-1.51567c5.52461,-2.40699 12.38776,-3.90543 18.08093,-5.79563c0.0734,-0.0327 0.84286,3.4773 0.84286,3.4773c-1.21956,0.41128 -5.65408,1.76718 -8.55751,2.2672c-3.05654,0.52639 -5.8471,0.65634 -5.8471,0.65634c0,0 -0.86173,1.49922 -2.76305,2.98229c-0.7494,0.58455 -2.88239,2.06967 -6.12803,2.51081c-2.51596,0.34197 -9.21476,-0.05582 -13.24962,-0.94865c-3.11469,-0.68921 -4.02535,-1.88686 -4.03802,-1.9381c-0.02901,-0.10212 0.09318,-3.15157 0.21404,-3.28137c0.10615,-0.14177 0.27291,-0.26526 0.5344,-0.28912l0.87176,-0.21772c0.61545,-0.12325 1.23172,-0.24249 1.84863,-0.35816c0,0 0.82197,-0.15412 0.97608,0.66783c0.00108,0.00573 0.0021,0.01143 0.00308,0.01709c0.08579,0.05124 0.14501,0.10271 0.1673,0.12325z" fill="none" stroke="#000000" stroke-width="1" stroke-linecap="butt"/><path d="M228.05427,201.4077c0,0 -2.29463,-7.56979 8.619,-6.27339c1.18054,0.14023 -0.14467,4.82384 -0.14467,4.82384c0,0 1.71131,0.97787 2.81953,1.64694c1.45306,0.87726 2.64418,3.70526 2.64418,3.70526c0,0 -5.42303,1.38386 -12.38646,3.76344c-2.66106,0.90934 -5.45185,3.58286 -8.39115,3.99614c-3.09002,0.43448 -7.0206,0.25106 -10.11665,-0.47992c-3.0322,-0.7159 -5.26395,-1.9661 -5.12168,-2.81949c0.902,-5.41083 10.92743,-5.35221 10.92743,-5.35221l-0.89204,-1.78407l-2.05693,-0.75276c0,0 0.49307,-2.21376 1.95442,-3.60366c1.58675,-1.50916 4.17537,-2.20665 4.81474,-2.27177c1.80653,-0.18399 7.33026,5.40163 7.33026,5.40163z" fill="#ff292e" stroke="#000000" stroke-width="0" stroke-linecap="round"/><path d="M236.5286,199.95813c0,0 1.71131,0.97787 2.81953,1.64694c1.45306,0.87726 2.64418,3.70526 2.64418,3.70526c0,0 -5.42303,1.38386 -12.38646,3.76344c-2.66105,0.90934 -5.45185,3.58285 -8.39115,3.99614c-2.01657,0.28354 -4.39113,0.30393 -6.65812,0.0807c0.73572,-1.11251 0.95892,-2.69265 1.00917,-3.932c0.0002,-0.00486 0.00048,-0.00965 0.00085,-0.01435c0.07329,0.00578 0.14738,0.00872 0.22216,0.00872c0.44431,0 0.86435,-0.10394 1.23711,-0.28885c0.05717,-0.01396 0.10992,-0.03328 0.1567,-0.0596c0.108,-0.06075 0.2037,-0.13389 0.28951,-0.21698c0.56273,-0.54478 0.70117,-1.51672 1.1043,-2.22218l-1.37281,-2.40241c-0.1603,-0.28052 -0.42395,-0.42797 -0.7429,-0.49095l-0.44889,-0.89778l-1.36936,-0.50113c0.93289,-0.3125 1.929,-1.01023 2.84795,-1.36907c1.69752,-0.66287 3.1317,-0.97629 3.41747,-1.26205c0.18058,-0.18059 0.31551,-0.60441 0.44222,-0.82615c0.30321,-0.53062 0.39693,-1.43418 0.39337,-2.40773c2.30463,1.08848 6.31084,5.13958 6.31084,5.13958c0,0 -0.27217,-0.89787 -0.18322,-2.02219c1.14586,-0.03851 3.1178,-0.55161 4.58163,-1.05165c0.89563,-0.07029 1.82358,-0.28117 2.70097,-0.61607c0.30301,-0.11566 0.59999,-0.24612 0.88752,-0.39069c0.33522,0.02199 0.68227,0.06041 1.02864,0.09512c-0.17626,1.24615 -0.5412,2.53592 -0.5412,2.53592z" fill="#ac0e49" stroke="#000000" stroke-width="0" stroke-linecap="round"/><path d="M228.05427,201.4077c0,0 -2.29463,-7.56979 8.619,-6.27339c1.18054,0.14023 -0.14467,4.82384 -0.14467,4.82384c0,0 1.71131,0.97787 2.81953,1.64694c1.45306,0.87726 2.64418,3.70526 2.64418,3.70526c0,0 -5.42303,1.38386 -12.38646,3.76344c-2.66106,0.90934 -5.45185,3.58286 -8.39115,3.99614c-3.09002,0.43448 -7.0206,0.25106 -10.11665,-0.47992c-3.0322,-0.7159 -5.26395,-1.9661 -5.12168,-2.81949c0.902,-5.41083 10.92743,-5.35221 10.92743,-5.35221l-0.89204,-1.78407l-2.05693,-0.75276c0,0 0.49307,-2.21376 1.95442,-3.60366c1.58675,-1.50916 4.17537,-2.20665 4.81474,-2.27177c1.80653,-0.18399 7.33026,5.40163 7.33026,5.40163z" fill="none" stroke="#000000" stroke-width="1" stroke-linecap="round"/><path d="M233.29497,198.95459l-1.56106,0.33451" fill="none" stroke="#000000" stroke-width="1.5" stroke-linecap="round"/><path d="M224.45353,203.78782c0,0 0.40861,0.08172 0.59127,0.41822c0.21707,0.13609 0.49151,0.41762 0.34045,0.93123c-0.23598,0.80231 -1.03827,0.56633 -1.03827,0.56633l-1.10932,-0.33513c-0.16865,-0.10969 -0.34194,-0.20361 -0.51914,-0.28358c-0.16654,-0.04738 -0.33247,-0.09686 -0.49771,-0.1483l-0.70153,-0.15942c0,0 -0.06467,-0.01492 -0.15336,-0.05458c-0.92279,-0.11001 -1.89481,-0.00006 -2.83451,0.12735c0,0 -0.82895,0.11052 -0.93947,-0.71842c-0.11052,-0.82895 0.71842,-0.93947 0.71842,-0.93947c1.67724,-0.22031 3.46946,-0.36423 5.00866,0.3252c0.37487,0.10372 0.7533,0.19487 1.13454,0.27057z" fill="#d791e2" stroke="#000000" stroke-width="1" stroke-linecap="butt"/><path d="M220.62417,201.03829l0.38195,-0.08181c0.76154,-0.04312 1.41672,0.09866 2.05097,0.26049c1.02012,-0.00553 2.0415,0.025 3.04864,0.09163l0.56095,0.15844c0,0 0.79337,0.26446 0.52891,1.05782c-0.0819,0.2457 -0.21453,0.38995 -0.35862,0.47202c-0.1615,0.10635 -0.31821,0.13994 -0.31821,0.13994c-1.21613,0.25423 -2.19716,-0.01206 -3.18162,-0.24929c-0.92026,-0.00101 -1.84068,0.02897 -2.74794,0.08995c0,0 -0.83442,0.05563 -0.89006,-0.7788c-0.02842,-0.42621 0.1754,-0.64925 0.3816,-0.76546c0.17942,-0.30393 0.54343,-0.39493 0.54343,-0.39493z" fill="#d791e2" stroke="#000000" stroke-width="1" stroke-linecap="butt"/><path d="M213.31809,205.93502c-0.20257,-0.09722 -0.40046,-0.29278 -0.42658,-0.68466c-0.05563,-0.83443 0.7788,-0.89006 0.7788,-0.89006c1.97493,-0.13066 4.55285,0.12302 6.47783,0.59728c0.72558,0.17876 2.9135,0.9737 1.50714,2.52823c-0.43147,0.47693 -1.2923,0.00946 -1.92712,-0.09361c-1.91159,-0.31036 -3.76588,-1.06732 -5.76094,-1.18675l-0.00652,0.00163c0,0 -0.39556,0 -0.64259,-0.27205z" fill="#fff0fd" stroke="none" stroke-width="0.5" stroke-linecap="butt"/><path d="M220.14814,204.95758c0.72558,0.17876 2.9135,0.9737 1.50714,2.52823c-0.43147,0.47693 -1.2923,0.00946 -1.92712,-0.09361c-0.36698,-0.05958 -0.73184,-0.13562 -1.096,-0.22044c0.32872,-0.45747 0.5223,-1.01857 0.5223,-1.6249c0,-0.288 -0.04368,-0.56582 -0.12477,-0.82716c0.38965,0.07118 0.76505,0.15082 1.11846,0.23788z" fill="#de95ea" stroke="none" stroke-width="0.5" stroke-linecap="butt"/><path d="M213.31809,205.93502c-0.20257,-0.09722 -0.40046,-0.29278 -0.42658,-0.68466c-0.05563,-0.83443 0.7788,-0.89006 0.7788,-0.89006c1.97493,-0.13066 4.55285,0.12302 6.47783,0.59728c0.72558,0.17876 2.9135,0.9737 1.50714,2.52823c-0.43147,0.47693 -1.2923,0.00946 -1.92712,-0.09361c-1.91159,-0.31036 -3.76588,-1.06732 -5.76094,-1.18675l-0.00652,0.00163c0,0 -0.39556,0 -0.64259,-0.27205z" fill="none" stroke="#000000" stroke-width="1" stroke-linecap="butt"/><path d="M239.42797,211.82004c3.82187,-3.82082 7.77789,-3.05568 12.6486,-4.77755c6.29826,-1.98936 12.79619,-4.63363 18.23927,-0.01786c0,0 0.43792,0.37536 0.27467,0.8663l0.10976,1.2039c-0.54944,2.16183 -1.29715,3.98584 -2.44897,5.65157c-0.30951,0.44761 -2.20215,2.34659 -4.48785,3.85404c-2.33975,1.5431 -5.08859,2.69559 -6.72679,3.18363c-3.17927,0.94716 -7.08277,0.63271 -10.29613,0.12625c-2.13063,-0.33581 -7.72843,-2.79898 -7.30099,-7.84945c0,0 -0.3618,-2.19499 -0.01157,-2.24082z" fill="#de95ea" stroke="none" stroke-width="0.5" stroke-linecap="butt"/><path d="M239.42797,211.82004c3.82187,-3.82082 7.77789,-3.05568 12.6486,-4.77755c2.45238,-0.77461 4.93503,-1.6485 7.3739,-2.15444c5.1849,0.27482 7.25146,3.97697 7.18139,8.30712c-0.07058,4.36243 -14.3888,7.95027 -17.7168,7.87427c-1.6621,-0.03796 -3.49061,-0.48026 -5.17368,-0.25567c-2.23908,-1.21109 -4.58408,-3.41792 -4.30183,-6.75293c0,0 -0.3618,-2.19499 -0.01157,-2.24082z" fill="#fdebf6" stroke="none" stroke-width="0.5" stroke-linecap="butt"/><path d="M239.42797,211.82004c3.82187,-3.82082 7.77789,-3.05568 12.6486,-4.77755c6.29826,-1.98936 12.79619,-4.63363 18.23927,-0.01786c0,0 0.43792,0.37536 0.27467,0.8663l0.10976,1.2039c-0.54944,2.16183 -1.29715,3.98584 -2.44897,5.65157c-0.30951,0.44761 -2.20215,2.34659 -4.48785,3.85404c-2.33975,1.5431 -5.08859,2.69559 -6.72679,3.18363c-3.17927,0.94716 -7.08277,0.63271 -10.29613,0.12625c-2.13063,-0.33581 -7.72843,-2.79898 -7.30099,-7.84945c0,0 -0.3618,-2.19499 -0.01157,-2.24082z" fill="none" stroke="#000000" stroke-width="1" stroke-linecap="butt"/><path d="M242.54104,206.30978c0,0 -3.8121,3.08216 -5.29829,3.26664c-1.41025,0.17506 -2.45397,-2.56836 -2.41942,-2.85233c0.0881,-0.72439 8.06983,-4.81581 8.06983,-4.81581c0,0 -0.08674,-0.71264 0.48334,-1.34976c0.95362,-1.06578 3.2175,-2.44792 6.93826,-3.79109c2.59236,-0.93582 6.95947,-1.67427 8.95077,-1.06144c0.72576,0.22335 0.88148,2.15293 0.88148,2.15293c0,0 2.22629,0.58597 3.22461,0.67926c1.08724,0.10161 3.05485,-0.09239 3.05485,-0.09239c0,0 0.96489,1.88483 -0.21128,3.2395c-0.53156,0.61224 -2.19488,1.57279 -2.19488,1.57279c0,0 3.50115,1.89339 3.45974,4.69488c-0.06329,4.28165 -4.81493,10.09675 -15.38046,10.94437c-1.58322,0.12701 -7.71452,-0.74487 -9.20033,-3.71328c-2.42232,-4.83943 1.28501,-7.17237 1.28501,-7.17237z" fill="#ac0e49" stroke="#000000" stroke-width="0" stroke-linecap="round"/><path d="M242.54104,206.30978c0,0 -3.8121,3.08216 -5.29829,3.26664c-1.41025,0.17506 -2.45397,-2.56836 -2.41942,-2.85233c0.0881,-0.72439 8.06983,-4.81581 8.06983,-4.81581c0,0 -0.08674,-0.71264 0.48334,-1.34976c0.95362,-1.06578 3.2175,-2.44792 6.93826,-3.79109c2.59236,-0.93582 6.95947,-1.67427 8.95077,-1.06144c0.72576,0.22335 0.88148,2.15293 0.88148,2.15293c0,0 2.22629,0.58597 3.22461,0.67926c1.08724,0.10161 3.05485,-0.09239 3.05485,-0.09239c0,0 0.11312,0.22095 0.21467,0.56593c-1.0931,0.55768 -1.9617,1.33327 -2.72075,2.27002c-0.07882,0.0338 -1.1921,0.55473 -1.92189,-0.01754c-1.04128,-0.81654 -1.78815,-2.82524 -1.78815,-2.82524l-1.80276,-2.5286c0,0 0.86375,1.74644 -0.44603,2.98309c-1.36664,1.29034 -5.2977,3.65535 -8.69557,4.40449c-3.36382,0.74165 -6.20157,-0.12608 -6.20157,-0.12608l-0.61052,3.12952l1.65122,1.69586l-1.54713,2.50438l3.0085,-0.07466c0,0 14.02003,-3.92308 16.10279,-4.15004c0.84501,-0.09208 4.16456,2.16863 4.16456,2.16863l-2.47186,4.58436c0,0 -1.27137,-0.15531 -3.75944,0.21191c-4.34127,0.64075 -10.41518,1.8843 -11.0139,2.3912c-0.30942,0.16153 -0.58475,0.37944 -0.81235,0.64009c-0.56287,0.3852 -0.97729,0.97145 -1.13978,1.65531c-1.61606,-0.58844 -3.10167,-1.4746 -3.73725,-2.74437c-2.42232,-4.83943 1.28501,-7.17237 1.28501,-7.17237z" fill="#ff292e" stroke="#000000" stroke-width="0" stroke-linecap="round"/><path d="M242.54104,206.30978c0,0 -3.8121,3.08216 -5.29829,3.26664c-1.41025,0.17506 -2.45397,-2.56836 -2.41942,-2.85233c0.0881,-0.72439 8.06983,-4.81581 8.06983,-4.81581c0,0 -0.08674,-0.71264 0.48334,-1.34976c0.95362,-1.06578 3.2175,-2.44792 6.93826,-3.79109c2.59236,-0.93582 6.95947,-1.67427 8.95077,-1.06144c0.72576,0.22335 0.88148,2.15293 0.88148,2.15293c0,0 2.22629,0.58597 3.22461,0.67926c1.08724,0.10161 3.05485,-0.09239 3.05485,-0.09239c0,0 0.96489,1.88483 -0.21128,3.2395c-0.53156,0.61224 -2.19488,1.57279 -2.19488,1.57279c0,0 3.50115,1.89339 3.45974,4.69488c-0.06329,4.28165 -4.81493,10.09675 -15.38046,10.94437c-1.58322,0.12701 -7.71452,-0.74487 -9.20033,-3.71328c-2.42232,-4.83943 1.28501,-7.17237 1.28501,-7.17237z" fill="none" stroke="#000000" stroke-width="1" stroke-linecap="round"/><path d="M242.65841,206.54453l-0.58686,-1.05636" fill="none" stroke="#000000" stroke-width="1" stroke-linecap="round"/><path d="M243.01053,201.96698l1.87797,2.11271" fill="none" stroke="#000000" stroke-width="1" stroke-linecap="round"/><path d="M259.97094,198.15234c0,0 -0.2183,1.74906 -1.49904,2.46779c-3.52137,1.97617 -10.29695,3.16612 -10.29695,3.16612" fill="none" stroke="#000000" stroke-width="1" stroke-linecap="round"/><path d="M260.90991,203.08201l2.87564,-0.05868" fill="none" stroke="#000000" stroke-width="1" stroke-linecap="round"/><path d="M244.00819,207.83562l1.70191,-0.17605" fill="none" stroke="#000000" stroke-width="1" stroke-linecap="round"/><path d="M259.72126,202.7667c0.374,0.74799 -0.374,1.12199 -0.374,1.12199l-0.44485,0.21563c-3.84821,1.37231 -7.6633,3.14229 -11.83294,2.92292c0,0 -0.83483,-0.04911 -0.78573,-0.88395c0.04911,-0.83484 0.88394,-0.78574 0.88394,-0.78574c3.89341,0.25901 7.58562,-1.54564 11.17219,-2.82835l0.25939,-0.13649c0,0 0.74799,-0.374 1.122,0.374z" fill="#de95ea" stroke="none" stroke-width="0.5" stroke-linecap="butt"/><path d="M245.51938,210.65259c0,-0.83628 0.83628,-0.83628 0.83628,-0.83628l-0.05185,0.00733c5.73031,-0.76077 10.56578,-2.70284 16.02674,-4.65354c0,0 0.78756,-0.28127 1.06883,0.50629c0.28127,0.78757 -0.50629,1.06884 -0.50629,1.06884c-5.56049,1.98555 -10.52612,3.9538 -16.36824,4.73631l-0.16921,0.00734c0,0 -0.83628,0 -0.83628,-0.83628z" fill="#de95ea" stroke="none" stroke-width="0.5" stroke-linecap="butt"/><path d="M261.45277,204.78393c0,0.78839 -0.74324,0.83354 -0.82837,0.83613c-4.0974,1.88209 -9.24978,3.62026 -13.74362,3.9303c0,0 -0.83443,0.05563 -0.89006,-0.7788c-0.05563,-0.83443 0.7788,-0.89006 0.7788,-0.89006c4.33173,-0.27723 9.40153,-2.01424 13.31726,-3.85539l0.5297,-0.07845c0,0 0.83628,0 0.83628,0.83628z" fill="#de95ea" stroke="none" stroke-width="0.5" stroke-linecap="butt"/><path d="M247.06946,207.02724c0,0 -0.83483,-0.04911 -0.78573,-0.88395c0.00264,-0.04507 0.00759,-0.08756 0.01456,-0.12763c0.14365,0.3458 0.4465,0.69104 0.8214,1.01412c-0.01675,-0.00083 -0.03348,-0.00167 -0.05024,-0.00255z" fill="#ffeffc" stroke="none" stroke-width="0.5" stroke-linecap="butt"/><path d="M253.85827,204.26492c-0.03692,-0.00769 -0.07563,-0.01758 -0.11603,-0.02952c0.06511,-0.02228 0.13017,-0.04474 0.19519,-0.06734c-0.03881,0.05857 -0.06938,0.0989 -0.07916,0.09686z" fill="#ffeffc" stroke="none" stroke-width="0.5" stroke-linecap="butt"/><path d="M245.51938,210.65259c0,-0.83628 0.83628,-0.83628 0.83628,-0.83628l-0.05185,0.00733c1.50717,-0.20009 2.95243,-0.48191 4.36345,-0.82411c1.26357,0.47067 2.48598,0.7456 3.63347,0.72443c-2.50054,0.76567 -5.04225,1.39142 -7.77586,1.75757l-0.16921,0.00734c0,0 -0.83628,0 -0.83628,-0.83628z" fill="#ffeffc" stroke="none" stroke-width="0.5" stroke-linecap="butt"/><path d="M262.33054,205.17009c0,0 0.78756,-0.28127 1.06883,0.50629c0.28127,0.78757 -0.50629,1.06884 -0.50629,1.06884c-1.85683,0.66304 -3.64732,1.32416 -5.42627,1.93983c0.63251,-0.46446 1.21844,-1.0989 1.7483,-1.93152c0.11061,-0.17382 0.21678,-0.36645 0.31523,-0.57272c0.91981,-0.33254 1.85054,-0.67149 2.80019,-1.01071z" fill="#ffeffc" stroke="none" stroke-width="0.5" stroke-linecap="butt"/><path d="M246.88078,209.55035c0,0 -0.83443,0.05563 -0.89006,-0.7788c-0.05563,-0.83443 0.7788,-0.89006 0.7788,-0.89006c0.44146,-0.02826 0.89057,-0.07166 1.34535,-0.12881c0.66497,0.41901 1.33511,0.74561 1.69787,0.90238c0.28959,0.12514 0.57746,0.24143 0.86322,0.34769c-1.29092,0.27165 -2.56761,0.4629 -3.79516,0.5476z" fill="#ffeffc" stroke="none" stroke-width="0.5" stroke-linecap="butt"/><path d="M261.45277,204.78393c0,0.78839 -0.74324,0.83354 -0.82837,0.83613c-0.34338,0.15772 -0.69416,0.31444 -1.05134,0.46939c0.2844,-0.62165 0.49728,-1.35604 0.55461,-2.0694l0.48882,-0.07241c0,0 0.83628,0 0.83628,0.83628z" fill="#ffeffc" stroke="none" stroke-width="0.5" stroke-linecap="butt"/><path d="M259.72126,202.7667c0.374,0.74799 -0.374,1.12199 -0.374,1.12199l-0.44485,0.21563c-3.84821,1.37231 -7.6633,3.14229 -11.83294,2.92292c0,0 -0.83483,-0.04911 -0.78573,-0.88395c0.04911,-0.83484 0.88394,-0.78574 0.88394,-0.78574c3.89341,0.25901 7.58562,-1.54564 11.17219,-2.82835l0.25939,-0.13649c0,0 0.74799,-0.374 1.122,0.374z" fill="none" stroke="#000000" stroke-width="1" stroke-linecap="butt"/><path d="M245.51938,210.65259c0,-0.83628 0.83628,-0.83628 0.83628,-0.83628l-0.05185,0.00733c5.73031,-0.76077 10.56578,-2.70284 16.02674,-4.65354c0,0 0.78756,-0.28127 1.06883,0.50629c0.28127,0.78757 -0.50629,1.06884 -0.50629,1.06884c-5.56049,1.98555 -10.52612,3.9538 -16.36824,4.73631l-0.16921,0.00734c0,0 -0.83628,0 -0.83628,-0.83628z" fill="none" stroke="#000000" stroke-width="1" stroke-linecap="butt"/><path d="M261.45277,204.78393c0,0.78839 -0.74324,0.83354 -0.82837,0.83613c-4.0974,1.88209 -9.24978,3.62026 -13.74362,3.9303c0,0 -0.83443,0.05563 -0.89006,-0.7788c-0.05563,-0.83443 0.7788,-0.89006 0.7788,-0.89006c4.33173,-0.27723 9.40153,-2.01424 13.31726,-3.85539l0.5297,-0.07845c0,0 0.83628,0 0.83628,0.83628z" fill="none" stroke="#000000" stroke-width="1" stroke-linecap="butt"/></g><g><path d="M255.91236,175.08129l4.8584,-0.15928c0,0 -3.13956,-4.59675 -1.09418,-5.78095c2.82513,-1.63566 4.51896,3.63051 4.51896,3.63051c0,0 -0.90698,-4.9072 -0.3808,-6.28424c0.54452,-1.42507 3.63758,-1.12495 3.91133,-0.69085c1.53733,2.4378 1.08894,8.48836 1.08894,8.48836c0,0 2.14683,-4.45151 3.78433,-4.84886c1.11215,-0.26986 1.98936,3.26117 1.7995,3.84401c-1.27543,3.9155 -5.98207,9.28803 -5.98207,9.28803c0,0 1.90399,1.19041 2.46086,2.65032c0.73978,1.93943 -0.16679,4.4415 -3.94925,4.37049c-1.20736,-0.02266 -0.50276,-2.87922 -0.50276,-2.87922c0,0 -2.44594,-0.33931 -2.97391,-0.93168c-0.55877,-0.62691 -0.29156,-2.73205 -0.29156,-2.73205h-6.0531z" fill="#f89688" stroke="#000000" stroke-width="0" stroke-linecap="round"/><path d="M259.67659,169.14105c1.95791,-1.13357 3.37246,1.04778 4.05642,2.4938c-0.00304,-0.00533 -0.0061,-0.01067 -0.00913,-0.01601c0,0 -0.27661,-0.48406 -0.76067,-0.20745c-0.20948,0.1197 -0.27651,0.27826 -0.28514,0.41962c-1.06337,0.45447 -0.7305,1.73299 -0.70818,3.08347c-0.43808,-0.01782 -0.86872,-0.06649 -1.2957,-0.13895c-0.5128,-0.79308 -2.82534,-4.57628 -0.99759,-5.63447z" fill="#fcdfbd" stroke="#000000" stroke-width="0" stroke-linecap="butt"/><path d="M264.2752,172.21404c0,-0.26032 -0.12155,-0.39909 -0.25114,-0.47307c-0.23376,-1.51662 -0.58303,-4.27558 -0.20932,-5.25365c0.54452,-1.42507 3.63758,-1.12495 3.91133,-0.69085c0.55608,0.8818 0.85235,2.2363 1.00401,3.60615c-0.07403,-0.16109 -0.15878,-0.31126 -0.25498,-0.44787c-0.55471,-0.11165 -1.80712,-0.42307 -2.31907,0.03709c-1.28609,1.156 0.90442,7.30527 -1.74955,3.68935c-0.05787,-0.07884 -0.11445,-0.15866 -0.16983,-0.23933c0.02415,-0.0631 0.03854,-0.13827 0.03854,-0.22783z" fill="#fcdfbd" stroke="#000000" stroke-width="0" stroke-linecap="butt"/><path d="M268.81501,174.28483c0,0 2.14683,-4.45151 3.78433,-4.84886c1.11215,-0.26986 1.98936,3.26117 1.7995,3.84401c-0.14497,0.44504 -0.33426,0.90891 -0.55593,1.38156c-0.78291,-1.3412 -1.5881,-2.62833 -3.23412,-1.04239c-0.26636,0.42405 -0.51631,0.86176 -0.7133,1.32215c-0.10837,0.25327 -1.1193,2.33663 -1.56236,1.81654c-0.43708,-0.51308 0.30659,-2.16505 0.45484,-2.62008c0.0153,-0.04695 0.03021,-0.09482 0.0447,-0.14356c-0.00994,0.18647 -0.01766,0.2906 -0.01766,0.2906z" fill="#fcdfbd" stroke="#000000" stroke-width="0" stroke-linecap="butt"/><path d="M255.91236,175.08129l4.8584,-0.1593c0,0 -3.13957,-4.59675 -1.09419,-5.78095c2.82513,-1.63566 4.51897,3.63051 4.51897,3.63051c0,0 -0.90698,-4.9072 -0.38081,-6.28423c0.54452,-1.42507 3.63759,-1.12495 3.91133,-0.69085c1.53734,2.43781 1.08894,8.48836 1.08894,8.48836c0,0 2.14683,-4.45151 3.78434,-4.84886c1.11215,-0.26986 1.98935,3.26118 1.7995,3.84403c-1.27544,3.9155 -5.98207,9.28802 -5.98207,9.28802c0,0 1.90399,1.19041 2.46087,2.65032c0.73978,1.93942 -0.16679,4.4415 -3.94926,4.37049c-1.20736,-0.02267 -0.50276,-2.87922 -0.50276,-2.87922c0,0 -2.44594,-0.33931 -2.97392,-0.93168c-0.55877,-0.62691 -0.29156,-2.73205 -0.29156,-2.73205h-6.0531z" fill="none" stroke="#000000" stroke-width="1" stroke-linecap="round"/><path d="M260.29289,175.00164l2.62832,0.07965" fill="none" stroke="#000000" stroke-width="1" stroke-linecap="round"/><path d="M223.17786,189.73616l4.93805,-14.57522l18.95575,-1.11504c0,0 5.63184,-5.35582 9.96308,1.87219c0.28454,0.47485 1.0363,2.88328 1.16236,5.05384c0.14279,2.45862 -0.35942,4.67966 -0.35942,4.67966l-5.50937,0.02262l1.43363,2.62833l-14.8938,0.55752l-8.68142,5.41593c0,0 -2.12345,-0.82694 -3.11233,-1.46747c-1.27426,-0.82538 -3.89652,-3.07236 -3.89652,-3.07236z" fill="#feecf7" stroke="#000000" stroke-width="0" stroke-linecap="round"/><path d="M223.90521,187.58929l4.2107,-12.42835l18.95575,-1.11504c0,0 5.63184,-5.35582 9.96308,1.87219c0.28454,0.47485 1.0363,2.88328 1.16236,5.05384c0.14279,2.45862 -0.35942,4.67966 -0.35942,4.67966l-5.50937,0.02262l-3.58406,-3.50442c0,0 -1.74877,-2.68771 -11.33083,-2.00823c-7.23647,0.51315 -13.50818,7.42773 -13.50818,7.42773z" fill="#dc94e7" stroke="#000000" stroke-width="0" stroke-linecap="round"/><path d="M223.17786,189.73615l4.93805,-14.57522l18.95575,-1.11504c0,0 5.63184,-5.35582 9.96308,1.87219c0.28455,0.47485 1.0363,2.88328 1.16236,5.05384c0.14278,2.45862 -0.35942,4.67966 -0.35942,4.67966l-5.50937,0.02262l1.43362,2.62832l-14.8938,0.55752l-8.68141,5.41593c0,0 -2.12345,-0.82694 -3.11233,-1.46747c-1.27426,-0.82538 -3.89652,-3.07235 -3.89652,-3.07235z" fill="none" stroke="#000000" stroke-width="1" stroke-linecap="round"/><path d="M247.39023,179.62111l4.77876,6.0531" fill="none" stroke="#000000" stroke-width="1" stroke-linecap="round"/><path d="M232.81501,189.8158c-1.36361,0 -2.18931,-1.41573 -1.51327,-3.62389c1.19469,-3.90225 6.51072,-5.68174 9.1593,-4.73894c2.7198,0.96816 -0.86003,3.23403 -2.80615,4.85225c-2.2835,1.89876 -4.10367,3.51058 -4.83986,3.51058z" fill="none" stroke="#ff0000" stroke-width="1" stroke-linecap="butt"/><path d="M234.56723,182.80696l2.07079,3.34513" fill="none" stroke="#ff0000" stroke-width="1" stroke-linecap="round"/></g><g stroke="#000000"><g stroke-linecap="butt"><path d="M256.66747,173.65074l1.1065,-2.06466c0,0 9.02454,1.31958 10.75782,2.80986c1.21679,1.04619 0.19506,5.18453 -2.46947,5.07583c-3.54838,-0.14476 -9.39484,-5.82103 -9.39484,-5.82103z" fill="#0066cd" stroke-width="0"/><path d="M256.66747,173.65075l0.39271,-0.73278c0,0 1.94739,0.67513 3.82997,1.52453c1.45504,0.65651 2.67634,1.41405 4.15094,2.06378c1.75379,0.77275 3.47761,1.3773 3.43559,1.45173c-0.49848,0.88311 -1.31713,1.55852 -2.41437,1.51378c-3.54838,-0.14475 -9.39485,-5.82104 -9.39485,-5.82104z" fill="#061483" stroke-width="0"/><path d="M256.66747,173.65075l1.1065,-2.06466c0,0 9.02454,1.31959 10.75781,2.80987c1.2168,1.04619 0.19506,5.18453 -2.46947,5.07583c-3.54838,-0.14475 -9.39485,-5.82104 -9.39485,-5.82104z" fill="none" stroke-width="1"/></g><g stroke-linecap="round"><path d="M217.31147,168.62277c0,0 -3.29567,-25.91477 18.99857,-21.13139c22.85919,4.90461 14.80725,24.29418 14.80725,24.29418c0,0 6.96085,-3.67267 7.7473,-2.95765c0.66383,0.60352 -1.54265,5.23908 -2.70487,6.94959c-0.8588,1.26395 -2.25693,4.08534 -3.64633,3.9982c-0.87452,-0.05486 -3.85008,-3.52711 -3.85008,-3.52711c0,0 -8.11996,2.66876 -15.0744,2.68925c-6.86739,0.02024 -16.13064,-2.85717 -16.13064,-2.85717c0,0 -6.87667,-2.17762 -6.57643,-4.63107c0.25583,-2.09055 6.42963,-2.82687 6.42963,-2.82687z" fill="#fde0be" stroke-width="0"/><path d="M244.22164,177.47105c-0.03641,0.00869 -0.85552,-2.30693 -0.85552,-2.30693l-3.63881,1.89018l-3.35061,-8.05329l-7.56611,2.89124l0.33592,-6.5891c0,0 -11.98577,1.16485 -11.98682,1.13368c-0.20587,-6.14364 0.86629,-22.86845 19.15036,-18.94546c22.85919,4.90461 14.80725,24.29418 14.80725,24.29418c0,0 4.30357,5.16632 4.21189,5.31285c-0.8058,1.28819 -1.81308,2.7402 -2.8158,2.67731c-0.87452,-0.05486 -3.85008,-3.52711 -3.85008,-3.52711c0,0 -1.80494,0.59322 -4.44168,1.22245z" fill="#fc988a" stroke-width="0"/><path d="M251.21533,173.31488l3.29206,-0.78309l-2.11068,4.65183z" fill="#f79587" stroke-width="0.5"/><path d="M236.31002,147.49138c22.85919,4.90461 14.80725,24.29418 14.80725,24.29418c0,0 6.96085,-3.67267 7.7473,-2.95765c0.66383,0.60352 -1.54265,5.23908 -2.70487,6.94959c-0.8588,1.26395 -2.25693,4.08534 -3.64633,3.9982c-0.87452,-0.05486 -3.85008,-3.52711 -3.85008,-3.52711c0,0 -8.11996,2.66876 -15.0744,2.68925c-6.86739,0.02024 -16.13064,-2.85717 -16.13064,-2.85717c0,0 -6.87667,-2.17762 -6.57643,-4.63107c0.25583,-2.09055 6.42963,-2.82687 6.42963,-2.82687c0,0 -3.29566,-25.91476 18.99858,-21.13138z" fill="none" stroke-width="1"/></g><g stroke-linecap="round"><path d="M258.56053,165.89956c0,0 -2.49947,2.99307 -3.85974,4.14837c-1.17463,0.99763 -3.82697,2.38005 -3.82697,2.38005c0,0 -9.61867,-7.05949 -16.78117,-9.35579c-7.31599,-2.34552 -17.14987,-3.44796 -17.14987,-3.44796c0,0 -0.123,-18.23519 3.93254,-20.16754c2.95305,-1.40705 10.73236,-1.76366 17.84568,0.22497c3.24206,0.90636 12.48893,3.59646 14.95291,7.20683c3.30238,4.83886 4.88665,19.01106 4.88665,19.01106z" fill="#ff292e" stroke-width="0"/><path d="M258.56053,165.89956c0,0 -2.49948,2.99308 -3.85974,4.14837c-1.17463,0.99763 -3.82696,2.38005 -3.82696,2.38005c0,0 -4.65807,-3.41872 -9.90494,-6.27188c-0.13734,-0.07468 5.06801,-13.37532 9.03098,-18.24511c1.3123,-1.61259 3.06109,-1.92065 3.67403,-1.02251c3.30237,4.83887 4.88664,19.01107 4.88664,19.01107z" fill="#ac0e49" stroke-width="0.5"/><path d="M254.70078,170.04794c-1.17463,0.99763 -3.82696,2.38005 -3.82696,2.38005c0,0 -9.61867,-7.05949 -16.78118,-9.35578c-7.31599,-2.34552 -17.14986,-3.44796 -17.14986,-3.44796c0,0 -0.123,-18.2352 3.93254,-20.16754c2.95306,-1.40705 10.73236,-1.76366 17.84568,0.22497c3.24206,0.90636 12.48893,3.59645 14.95289,7.20682c3.30237,4.83887 4.88664,19.01107 4.88664,19.01107c0,0 -2.49947,2.99307 -3.85974,4.14836z" fill="none" stroke-width="1"/></g><g stroke-linecap="round"><path d="M216.65024,165.353c0,0 -3.9595,0.21569 -5.81085,0.54349c-1.8797,0.33282 -5.38359,1.43864 -5.38359,1.43864c0,0 2.29125,-3.49961 3.66468,-5.01171c1.30432,-1.43601 4.37926,-3.84442 4.37926,-3.84442l-9.49553,-1.10769c0,0 10.99289,-10.85516 14.80722,-11.71616c2.2749,-0.51351 9.17944,5.9031 9.17944,5.9031c0,0 1.7367,-2.40689 2.8293,-3.47589c0.99493,-0.97346 3.46075,-2.67834 3.46075,-2.67834c0,0 0.37512,6.30517 0.85427,9.41299c0.49916,3.23761 2.08315,9.63925 2.08315,9.63925l13.48876,7.50612l-2.54473,6.33572l-4.49108,-7.11929l-3.18366,2.9441l-3.26928,-9.66664l-5.61069,3.12976l-0.18256,-5.19738c0,0 -11.29534,0.55309 -13.93883,1.29541c-0.7206,0.20235 -0.83599,1.66896 -0.83599,1.66896z" fill="#4fa6ec" stroke-width="0"/><path d="M221.40159,156.84478l-15.94579,10.49035c0,0 2.29125,-3.49961 3.66467,-5.01171c1.30431,-1.43601 4.37926,-3.84442 4.37926,-3.84442l-9.49552,-1.10769c0,0 10.99288,-10.85516 14.80722,-11.71616c2.27489,-0.51352 9.17945,5.9031 9.17945,5.9031c0,0 1.73669,-2.40689 2.82929,-3.47589c0.99493,-0.97346 3.46075,-2.67833 3.46075,-2.67833l-4.62396,11.19297c0,0 -8.06458,-5.9839 -10.28566,-6.07075c-3.48591,-0.13632 -9.51803,5.85429 -9.51803,5.85429z" fill="#66ffff" stroke-width="0"/><path d="M241.52635,168.63373l-1.50277,4.1171l-1.98092,-5.85719z" fill="#66ffff" stroke-width="0"/><path d="M205.4558,167.33514c0,0 2.29125,-3.49961 3.66467,-5.01171c1.30431,-1.43601 4.37926,-3.84442 4.37926,-3.84442l-9.49552,-1.10769c0,0 10.99288,-10.85516 14.80722,-11.71616c2.27489,-0.51352 9.17945,5.9031 9.17945,5.9031c0,0 1.73669,-2.40689 2.82929,-3.47589c0.99493,-0.97346 3.46075,-2.67833 3.46075,-2.67833c0,0 0.37512,6.30515 0.85426,9.41297c0.49915,3.23761 2.08315,9.63925 2.08315,9.63925l13.48876,7.50612l-2.54473,6.33572l-4.49108,-7.11928l-3.18367,2.94409l-3.26929,-9.66664l-5.6107,3.12976l-0.18256,-5.19738c0,0 -11.29534,0.55309 -13.93883,1.29541c-0.7206,0.20235 -0.83599,1.66896 -0.83599,1.66896c0,0 -3.95948,0.21569 -5.81084,0.54349c-1.85136,0.3278 -5.38359,1.43861 -5.38359,1.43861z" fill="none" stroke-width="1"/></g></g><g stroke="none" stroke-width="0.5" stroke-linecap="butt"><path d="M225.75614,164.54968c0.46651,0.07625 0.47283,0.48338 0.46398,0.6055c0.82929,1.0185 1.74994,1.95492 2.66686,2.69222l0.08621,0.09329c1.02607,-0.55127 1.99658,-1.14428 2.94114,-1.75777l0.19609,-0.28246c0,0 0.23206,-0.32121 0.57569,-0.22638c1.85919,-1.24218 3.64762,-2.5424 5.60024,-3.73171c3.37014,-2.83701 7.73348,-5.45644 11.85663,-6.99121c0.25002,-0.04121 0.50002,-0.08239 0.75005,-0.1236l0.34792,-0.03058c0,0 0.5556,-0.04621 0.60181,0.50939c0.04621,0.5556 -0.50939,0.60181 -0.50939,0.60181l-0.26296,0.02023c-0.21415,0.03359 -0.42829,0.06717 -0.64244,0.10076c-3.99387,1.49549 -8.22685,4.06596 -11.49065,6.81851c-0.27846,0.16926 -0.55382,0.34078 -0.82669,0.51409c-0.47025,2.26486 -2.35785,4.12315 -2.99641,6.35681c-0.20346,0.71171 -0.45214,2.13255 -1.23671,2.52262c-0.45719,0.2273 -1.34548,-0.06292 -1.77652,-0.16409c-0.90109,-1.54781 -0.89914,-2.77431 -0.66271,-4.28268c-0.7367,0.45546 -1.49308,0.89531 -2.28114,1.31044c-0.14708,0.10328 -0.28638,0.11335 -0.40238,0.08637c-0.11949,-0.01523 -0.24819,-0.07427 -0.35072,-0.22607l-0.21915,-0.2515c-0.71237,-0.58134 -1.42192,-1.26449 -2.09349,-2.00827c-0.10249,1.58052 -0.25604,3.72336 -0.78871,4.13222c-2.41101,1.85055 -3.3391,-3.70297 -3.27973,-4.87075c0.20377,-1.25759 0.41013,-2.51477 0.61561,-3.77208l0.14773,-0.42133c-1.60824,-3.6981 -3.77177,-6.61975 -3.93035,-10.93252c0,0 -0.01973,-0.55718 0.53744,-0.57691c0.55718,-0.01973 0.57691,0.53744 0.57691,0.53744c0.14646,4.31839 2.42473,7.16773 4.00588,10.92129c0.46025,0.93416 1.07117,1.90259 1.76761,2.82503c0.00411,0.0006 0.00824,0.00126 0.01239,0.00194z" fill="#000000"/><path d="M232.3858,176.05674c-0.0568,-0.03316 -0.11527,-0.07893 -0.16201,-0.14148c-2.78266,0.73551 -5.49917,0.47882 -8.18813,-1.46254c0,0 -0.45192,-0.3265 -0.12543,-0.77842c0.3265,-0.45191 0.77842,-0.12543 0.77842,-0.12543c3.33987,2.41458 6.69293,1.89787 10.21858,0.15061c0.41848,-0.25785 0.86557,-0.47817 1.33187,-0.6344c0.0416,-0.08223 0.11318,-0.16253 0.2297,-0.23125c0.20426,-0.12043 0.37289,-0.10277 0.49921,-0.04268c0.16529,-0.00899 0.38228,0.04328 0.51173,0.32855c0.07104,0.15651 0.07189,0.28667 0.03912,0.39185c1.01921,1.71221 3.15989,5.51769 0.36218,6.23134c-1.59692,0.40734 -3.23314,-1.47243 -4.42588,-2.25906c-0.46352,-0.46268 -0.74953,-0.8923 -1.06935,-1.42707zM234.15736,176.61767c0.89111,0.58027 2.2898,2.19774 3.45788,2.04232c1.45678,-0.19382 -0.25239,-3.25135 -1.02419,-4.5378c-0.40242,0.12915 -0.78433,0.32665 -1.14187,0.5518c-0.69346,0.34037 -1.38208,0.63732 -2.06643,0.88082c0.22764,0.38832 0.43623,0.72884 0.77461,1.06286z" fill="#000000"/><path d="M233.32888,175.54047c0.68435,-0.24348 1.41196,-0.57987 2.10542,-0.92021c0.35754,-0.22513 0.77231,-0.4217 1.17474,-0.55085c0.77182,1.28644 2.49534,4.44218 1.03856,4.63599c-1.16808,0.1554 -2.65341,-1.49487 -3.54451,-2.07513c-0.33836,-0.33401 -0.54653,-0.70147 -0.77419,-1.0898z" data-paper-data="{&quot;noHover&quot;:false,&quot;origItem&quot;:[&quot;Path&quot;,{&quot;applyMatrix&quot;:true,&quot;segments&quot;:[[[820.01743,447.02635],[-0.69561,-0.49336],[1.74527,0.76936]],[[826.72931,449.64121],[-2.02274,0.61303],[2.52266,-0.76454]],[[823.60349,441.90486],[1.73842,2.05393],[-0.67499,0.34504]],[[821.74184,443.21199],[0.56777,-0.50199],[-1.12905,0.80311]],[[818.33875,445.36901],[1.14098,-0.629],[0.51531,0.62153]]],&quot;closed&quot;:true}]}" fill="#ff6666"/></g><path d="M200.5401,165.14999c0,0 -1.63989,-12.09522 -10.22207,-19.29862c-4.76187,-3.99684 -19.92565,-9.96306 -22.6076,-15.97841c-3.76382,-8.44188 8.62728,-16.98052 11.63016,-20.30841c4.76476,-5.28044 -5.90288,-12.96765 -5.90288,-12.96765" fill="none" stroke="#000000" stroke-width="2.5" stroke-linecap="round"/><g><path d="M164.96213,79.67086l-2.16254,-0.20646l-0.27306,-0.5044c0.09606,-1.35643 1.27854,-2.02602 2.52849,-2.3546c2.32205,0.1345 8.4836,-0.12581 8.03707,3.72073c-0.2111,1.8185 0.44165,16.47992 -0.38468,18.0235c-1.20337,1.31681 -4.0837,1.30104 -5.07054,-0.47243c-1.3202,-2.37257 -0.97508,-6.53711 -1.31368,-10.42386c-0.3531,-4.05314 -1.36108,-7.78249 -1.36108,-7.78249z" fill="#465e85" stroke="#000000" stroke-width="0" stroke-linecap="butt"/><path d="M164.96213,79.67086l-2.16254,-0.20646l-0.27306,-0.5044c0.09606,-1.35643 1.27854,-2.02602 2.52849,-2.3546c2.32205,0.1345 8.4836,-0.12581 8.03707,3.72073c-0.03416,0.29427 -5.19869,0.18637 -5.19869,0.18637l1.08978,14.80466l3.81408,-0.89284c0,0 0.09485,3.58028 -0.08985,3.92532c-1.20337,1.31681 -4.0837,1.30104 -5.07054,-0.47243c-1.3202,-2.37257 -0.97508,-6.53711 -1.31368,-10.42386c-0.3531,-4.05314 -1.36108,-7.78249 -1.36108,-7.78249z" fill="#323344" stroke="#000000" stroke-width="0" stroke-linecap="butt"/><path d="M162.7996,79.4644l-0.27306,-0.5044c0.09606,-1.35643 1.27854,-2.02602 2.52849,-2.3546c2.32205,0.1345 8.4836,-0.12581 8.03707,3.72073c-0.2111,1.8185 0.44165,16.47992 -0.38468,18.0235c-1.20337,1.31681 -4.0837,1.30104 -5.07054,-0.47243c-1.3202,-2.37257 -0.97508,-6.53711 -1.31368,-10.42386c-0.3531,-4.05314 -1.36108,-7.78249 -1.36108,-7.78249z" fill="none" stroke="#000000" stroke-width="1" stroke-linecap="butt"/><path d="M173.06844,79.70521c-0.37881,0.40907 -0.78787,0.03026 -0.78787,0.03026l-0.06293,-0.05828c-2.53673,-2.34909 -6.07301,-2.41951 -8.72957,-0.10914c0,0 -0.13313,0.11516 -0.31449,0.14125l-0.14074,0.24127c0,0 -0.54061,0.02076 -0.5772,-0.51114c-0.04603,-0.0567 -0.09207,-0.11341 -0.1381,-0.17012c0,0 -0.1988,-0.24488 -0.11314,-0.51578c-0.12904,-0.30589 0.12297,-0.57804 0.12297,-0.57804l0.10842,-0.11075c3.86841,-3.25434 7.17298,-3.02455 10.76328,0.30017c0,0 0.40907,0.37881 0.03026,0.78787c-0.00872,0.00941 -0.01745,0.01842 -0.02619,0.027c0.04743,0.14335 0.0454,0.33097 -0.13468,0.52543z" fill="#455d83" stroke="none" stroke-width="0.5" stroke-linecap="butt"/><path d="M164.05592,79.11947c-0.16017,-0.53121 -0.44064,-1.02151 -0.81612,-1.39287c-0.02197,-0.07861 -0.05093,-0.15562 -0.08686,-0.23003c1.32405,-0.98272 2.58613,-1.54569 3.82214,-1.70537c-0.10804,0.73519 -0.23962,1.47181 -0.36575,2.20296c-0.88354,0.17708 -1.74999,0.55135 -2.55342,1.12531z" fill="#85afb1" stroke="none" stroke-width="0.5" stroke-linecap="butt"/><path d="M169.48689,76.02455c-0.17826,0.66958 -0.25908,1.42849 -0.24912,2.02067c-0.48757,-0.11771 -0.98396,-0.17464 -1.48115,-0.17033c0.11982,-0.7044 0.24236,-1.411 0.34445,-2.11762c0.46346,0.03223 0.92475,0.12163 1.38583,0.26728z" fill="#85afb1" stroke="none" stroke-width="0.5" stroke-linecap="butt"/><path d="M173.06843,79.70522c-0.37881,0.40907 -0.78787,0.03026 -0.78787,0.03026l-0.06293,-0.05828c-2.53673,-2.34909 -6.07301,-2.41951 -8.72958,-0.10915c0,0 -0.13313,0.11516 -0.31449,0.14125l-0.14075,0.24127c0,0 -0.5406,0.02077 -0.5772,-0.51114c-0.04603,-0.0567 -0.09207,-0.11341 -0.1381,-0.17012c0,0 -0.19879,-0.24489 -0.11314,-0.51578c-0.12906,-0.30589 0.12296,-0.57804 0.12296,-0.57804l0.10842,-0.11075c3.86841,-3.25434 7.17298,-3.02456 10.76328,0.30017c0,0 0.40907,0.37881 0.03026,0.78787c-0.00871,0.00941 -0.01745,0.01842 -0.0262,0.02701c0.04743,0.14335 0.0454,0.33097 -0.13468,0.52543z" fill="none" stroke="#000000" stroke-width="1" stroke-linecap="butt"/><path d="M162.85004,68.08001c3.2347,-3.49308 8.6071,-4.24568 12.10019,-1.01097c1.86612,1.72808 2.19343,3.54922 2.12358,5.77905c-0.02353,0.75125 -0.21699,2.0751 -0.7035,3.21429c-0.77246,1.80877 -2.32047,2.88414 -2.59986,3.01214c-0.22248,0.10192 -1.18756,-3.10687 -4.90476,-3.40678c-3.79159,-0.30591 -7.14907,2.4098 -7.14907,2.4098c0,0 -1.33248,-1.78608 -1.48572,-3.68934c-0.17075,-2.12083 0.91435,-4.46722 2.61915,-6.3082z" fill="#465e85" stroke="#000000" stroke-width="0" stroke-linecap="butt"/><path d="M162.85004,68.08001c0.40616,-0.4386 0.84602,-0.83399 1.31164,-1.18373c-0.02184,0.09219 -0.03414,0.18609 -0.03697,0.28015l-0.01127,0.01839l0.01074,0.04086c0.00289,0.23659 0.06566,0.47217 0.18736,0.68207l0.11505,0.20959l0.09698,0.10473l0.03529,0.14691l0.04073,0.0781l0.01012,0.08748l0.03555,0.09438l-0.00353,0.01525l0.0219,0.03351l0.01368,0.03634l0.18218,0.2634l0.17519,0.26809l0.0285,0.02639l0.02277,0.03293l0.01546,0.00247l0.02143,0.01985l0.00431,0.03725l0.03555,0.09438l-0.00353,0.01525l0.0219,0.03351l0.01368,0.03634l0.18218,0.2634l0.17519,0.26809l0.0285,0.02639l0.02277,0.03293l0.01546,0.00247l5.27963,4.8891l0.02123,0.0307l0.17519,0.26809l0.0285,0.02639l0.02277,0.03293l0.01546,0.00247l0.15986,0.14803l0.00675,0.02567l0.26104,0.47554l0.11969,0.12925l0.17336,0.25064l0.17519,0.26809l0.0285,0.02639l0.02277,0.03293l0.01546,0.00247l0.34865,0.32286l0.00675,0.02567l0.08285,0.15093l0.06823,0.18117l-0.00353,0.01525l0.0219,0.03351l0.01368,0.03634l0.1524,0.22035c-0.71641,-0.88436 -1.92463,-1.91087 -3.94951,-2.07423c-3.79159,-0.30591 -7.14907,2.4098 -7.14907,2.4098c0,0 -1.33248,-1.78608 -1.48572,-3.68934c-0.17075,-2.12083 0.91435,-4.46722 2.61915,-6.3082z" fill="#323344" stroke="#000000" stroke-width="0" stroke-linecap="butt"/><path d="M169.5558,67.84252l-0.00893,0.01459l-0.00815,-0.02349z" fill="#323344" stroke="#000000" stroke-width="0" stroke-linecap="butt"/><path d="M162.85004,68.08001c3.23471,-3.49309 8.60711,-4.24568 12.10019,-1.01097c1.86612,1.72808 2.19342,3.54921 2.12357,5.77905c-0.02353,0.75125 -0.217,2.07509 -0.7035,3.21429c-0.77245,1.80876 -2.32046,2.88415 -2.59985,3.01215c-0.22248,0.10192 -1.18756,-3.10686 -4.90477,-3.40677c-3.79159,-0.30591 -7.14907,2.4098 -7.14907,2.4098c0,0 -1.3325,-1.78607 -1.48572,-3.68934c-0.17075,-2.12083 0.91435,-4.46722 2.61915,-6.30819z" fill="none" stroke="#000000" stroke-width="1" stroke-linecap="butt"/><path d="M161.19343,76.30713c0,0 4.1285,-4.22146 7.76229,-3.63493c3.84224,0.62017 5.71769,5.36294 5.71769,5.36294" fill="none" stroke="#000000" stroke-width="1" stroke-linecap="round"/><path d="M160.72514,72.01576c0,0 4.68957,-3.03383 8.75573,-3.20254c3.69158,-0.15316 7.1159,3.98896 7.1159,3.98896" fill="none" stroke="#000000" stroke-width="1" stroke-linecap="round"/><path d="M163.64611,67.47283c0,0 4.74422,-0.94649 6.87448,-0.84844c1.92206,0.08846 5.34684,1.4109 5.34684,1.4109" fill="none" stroke="#000000" stroke-width="1" stroke-linecap="round"/><path d="M163.61766,76.21403c0,0 -1.51432,-2.18916 -1.8131,-3.31267c-0.29224,-1.09896 0.0396,-3.35637 0.0396,-3.35637" fill="none" stroke="#000000" stroke-width="1" stroke-linecap="round"/><path d="M165.07217,76.15817c0,0 -1.14359,-3.10028 -1.39409,-4.64219c-0.22327,-1.37426 -0.03664,-4.16434 -0.03664,-4.16434" fill="none" stroke="#000000" stroke-width="1" stroke-linecap="round"/><path d="M166.86708,75.48228c0,0 -0.87414,-3.35971 -0.68619,-4.98458c0.2054,-1.77579 1.87092,-5.25769 1.87092,-5.25769" fill="none" stroke="#000000" stroke-width="1" stroke-linecap="round"/><path d="M171.2033,65.11898c0,0 -0.69359,4.86061 -1.18876,6.68396c-0.41058,1.51181 -1.57636,3.49764 -1.57636,3.49764" fill="none" stroke="#000000" stroke-width="1" stroke-linecap="round"/><path d="M174.35705,66.63663c0,0 -0.06691,3.2809 -0.58124,4.77966c-0.53977,1.57293 -2.58475,4.44619 -2.58475,4.44619" fill="none" stroke="#000000" stroke-width="1" stroke-linecap="round"/><path d="M176.7973,71.70198c0,0 -0.86237,2.00097 -1.4999,2.91576c-0.6652,0.95446 -2.4118,2.69704 -2.4118,2.69704" fill="none" stroke="#000000" stroke-width="1" stroke-linecap="round"/><path d="M167.26051,97.3169c0,0 1.71004,-0.81455 2.55087,-0.8247c0.95973,-0.01159 2.89811,0.7589 2.89811,0.7589" fill="none" stroke="#000000" stroke-width="1" stroke-linecap="round"/><path d="M170.76966,81.62942c2.17677,0.19944 5.36912,3.7753 3.68018,5.90487c-0.83944,1.05843 -2.8474,0.48777 -3.97437,0.45056c-1.22958,0.48272 -4.4211,1.88499 -4.73041,0.62138c-0.29471,-0.17864 -0.38711,-0.53016 -0.38711,-0.53016c-0.14601,-0.57289 -0.22605,-1.16649 -0.24221,-1.75869c-0.26403,-0.20981 -0.33528,-0.44281 -0.3271,-0.64515c-0.01045,-0.17877 0.04077,-0.38262 0.23269,-0.57576c1.35705,-1.72021 3.354,-3.68643 5.74834,-3.46705z" fill="#292a39" stroke="#000000" stroke-width="1" stroke-linecap="butt"/><path d="M165.23499,86.71568c0,0 3.11397,-1.19884 4.64891,-1.45087c1.3013,-0.21367 4.22421,0.07448 4.22421,0.07448" fill="none" stroke="#000000" stroke-width="0.5" stroke-linecap="round"/><path d="M165.22923,87.85013c0,0 3.3607,-1.10605 5.03513,-1.3556c1.59019,-0.237 4.7717,-0.10596 4.7717,-0.10596" fill="none" stroke="#000000" stroke-width="0.5" stroke-linecap="round"/><path d="M164.95663,85.88802c0,0 3.28509,-1.81484 4.82237,-2.16298c1.31102,-0.29691 3.83108,0.20325 3.83108,0.20325" fill="none" stroke="#000000" stroke-width="0.5" stroke-linecap="round"/></g></g></g></svg>