<svg version="1.1" xmlns="http://www.w3.org/2000/svg" xmlns:xlink="http://www.w3.org/1999/xlink" width="95.19457" height="27.22973" viewBox="0,0,95.19457,27.22973"><g transform="translate(-192.41844,-166.76014)"><g data-paper-data="{&quot;isPaintingLayer&quot;:true}" fill-rule="nonzero" stroke-linejoin="miter" stroke-miterlimit="10" stroke-dasharray="" stroke-dashoffset="0" style="mix-blend-mode: normal"><g><path d="M267.92975,174.4091c7.53062,0.86174 11.55666,12.14419 5.39319,17.14467c-4.47564,3.63112 -15.51136,0.62896 -18.30917,-1.823c-1.57115,-1.37694 1.91751,-2.15407 1.91751,-2.15407l0.41255,-6.62276c0,0 1.23201,-7.61521 10.58593,-6.54484z" data-paper-data="{&quot;index&quot;:null}" fill="#5a3000" stroke="#000000" stroke-width="1.5" stroke-linecap="round"/><path d="M275.89859,184.58803c-0.29606,0.11733 -0.6035,0.20414 -0.92949,0.10272c-0.14318,-0.04455 -0.26829,-0.3425 -0.37937,-0.24176c-0.0446,0.04046 -0.02045,0.12974 -0.06721,0.16768c-0.19604,0.15907 -0.66517,0.23156 -0.90652,0.185c-0.24349,-0.04697 -0.48595,-0.14637 -0.68095,-0.29957c-0.03335,-0.02621 0.03224,-0.15918 0.00439,-0.12718c-0.04085,0.04693 0.01054,0.16612 -0.05016,0.17978c-0.56604,0.12741 -1.52767,-0.53439 -1.86262,-0.9211c-0.1019,-0.03765 -0.3823,0.27312 -0.47932,0.31728c-0.17107,0.07786 -0.52233,0.14809 -0.71258,0.11169c-0.43743,-0.0837 -0.83616,-0.44775 -1.11872,-0.76148c-0.09834,-0.10918 -0.16262,-0.34564 -0.30669,-0.31667c-0.21645,0.04353 -0.3966,0.23048 -0.61716,0.24052c-0.98953,0.045 -1.48863,-0.78086 -1.90114,-1.53224c-0.20783,-0.4389 -0.3294,-0.17704 -0.77367,-0.13482c-0.17004,0.01616 -0.60674,-0.00823 -0.77181,-0.05088c-0.53481,-0.13823 -1.04417,-0.59427 -1.39994,-0.99992c-0.02538,-0.02894 0.01086,-0.0875 -0.01681,-0.11426c-0.01915,-0.01852 -0.00451,0.05665 -0.02182,0.07691c-0.06707,0.07854 -0.14433,0.14861 -0.2254,0.21261c-0.02148,0.01696 -0.62215,0.41994 -0.63487,0.42508c-0.40527,0.16398 -1.46578,0.27542 -1.50681,-0.38178c-0.23505,0.4895 -1.14256,0.30685 -1.45723,-0.01225c-0.03627,-0.03678 -0.00509,-0.12203 -0.0506,-0.14649c-0.03654,-0.01963 0.0289,0.08773 0.00901,0.12413c-0.04624,0.08467 -0.12406,0.14836 -0.19411,0.2147c-0.22629,0.21429 -0.36865,0.32906 -0.67098,0.42997c-0.9266,0.30933 -1.86836,-0.54435 -2.15109,-1.36975c-0.06974,-0.20359 -0.04013,-0.42855 -0.05813,-0.64301c0.00992,-0.17593 0.1144,-0.3967 -0.00243,-0.52862c-0.02835,-0.03201 -0.08359,0.02117 -0.12634,0.02221c-0.16104,0.00394 -0.59226,-0.01649 -0.7435,-0.05331c-0.56212,-0.13682 -1.02269,-0.45441 -1.47451,-0.80006c-0.11158,-0.08536 -0.25925,-0.13994 -0.33129,-0.26056c-0.16476,-0.27589 -0.10178,-0.43223 -0.03743,-0.68191c0.13521,-0.52469 0.55509,-1.28344 1.12349,-1.5166c-0.36673,-0.11756 -0.64248,-0.28655 -1.02024,-0.55106c-0.29758,-0.21057 -0.57813,-0.4622 -0.75872,-0.78967c-0.12184,-0.22091 -0.13274,-0.55955 -0.12381,-0.80597c0.02686,-0.74118 0.15073,-1.61066 0.8563,-2.05669c0.03312,-0.02094 0.65067,-0.11109 0.66258,-0.11291c0.5076,-0.07767 1.14763,-0.26436 1.62134,-0.03272c-0.20612,-0.31426 -0.38756,-0.62651 -0.49256,-1.00106c-0.07352,-0.27138 -0.1791,-0.52369 -0.08901,-0.8158c0.02795,-0.09062 0.12652,-0.14137 0.19275,-0.20925c0.35745,-0.36633 0.75374,-0.65077 1.23452,-0.82465c1.02308,-0.37 2.09256,-0.12577 3.07433,0.24432c0.30925,0.11657 0.67741,0.17909 0.9436,0.37269l0.00133,-0.00356c-0.04758,-0.20133 -0.09841,-0.42753 -0.08842,-0.6204c0.01585,-0.30606 0.13213,-0.93967 0.39038,-1.14113c0.10796,-0.08422 0.66001,-0.1589 0.80255,-0.16666c0.73379,-0.03999 1.60188,0.32484 2.22152,0.69591c0.29592,0.1772 0.57268,0.43911 0.84051,0.65641c0.27438,0.22264 0.69446,0.70753 1.02175,0.82305c0.05085,0.01795 0.47548,-0.59753 0.50212,-0.62574c0.34615,-0.36651 0.82511,-0.51736 1.31696,-0.55417c1.12477,-0.08419 2.44621,0.64167 3.24617,1.37528c0.39688,0.36554 0.74288,0.79361 1.11289,1.16049c0.02541,0.02519 -0.02086,-0.07196 -0.01216,-0.10667c0.02767,-0.11055 0.07578,-0.21502 0.11912,-0.32043c0.05363,-0.1304 0.07167,-0.28715 0.1716,-0.38662c0.32026,-0.3188 0.84031,-0.19797 1.21195,-0.06384c1.17278,0.42329 1.74728,1.60263 2.05404,2.70658c0.00535,0.07554 0.01654,0.15099 0.02145,0.22654c0.11266,-0.22281 0.45546,-0.29164 0.66036,-0.34397c0.52506,-0.13407 0.94541,-0.20862 1.48446,-0.07171c1.15826,0.29419 2.11579,1.35182 2.34642,2.52926c0.00556,0.0284 0.00263,0.72714 0.00254,0.76501c-0.14418,0.7129 -0.34708,1.40085 -0.55352,2.09806c-0.0556,0.18779 -0.21239,0.34871 -0.22111,0.54437c-0.00169,0.03794 0.0736,-0.03741 0.11041,-0.02809c0.13585,0.03438 0.27529,0.07562 0.39081,0.15493c0.18121,0.1244 0.25037,0.44276 0.34104,0.63135c0.43403,0.90268 0.41582,1.66512 0.20684,2.62359c-0.24869,1.13368 -1.22196,2.49632 -2.32501,2.95771c-0.61419,0.2569 -1.30482,0.25165 -1.95433,0.15111z" data-paper-data="{&quot;index&quot;:null}" fill="#000000" stroke="none" stroke-width="0.5" stroke-linecap="butt"/><g data-paper-data="{&quot;index&quot;:null}" stroke="none" stroke-linecap="butt"><path d="M258.16015,185.91394c-0.61361,-1.42607 0.04503,-3.07955 1.47111,-3.69315c1.42607,-0.6136 3.07955,0.04503 3.69315,1.47111c0.61361,1.42607 -0.04504,3.07955 -1.47111,3.69315c-1.42607,0.61361 -3.07955,-0.04503 -3.69315,-1.47111z" fill="#e0e0e0" stroke-width="0"/><path d="M265.81264,186.80777c-0.60934,-1.41617 0.04473,-3.05816 1.46089,-3.6675c1.41616,-0.60934 3.05817,0.04473 3.66751,1.46089c0.60934,1.41617 -0.04473,3.05817 -1.46089,3.66751c-1.41616,0.60934 -3.05817,-0.04473 -3.66751,-1.4609z" fill="#e0e0e0" stroke-width="0"/><path d="M259.78739,187.39266c-0.84631,-0.51104 -1.24509,-1.70359 -1.19561,-2.90033c-0.05454,0.68314 0.02546,1.35048 0.22768,1.81799c0.22149,0.51476 0.56715,0.87116 0.96794,1.08235zM262.63642,185.79602c-0.05696,0.07731 -0.1196,0.15284 -0.18814,0.22628c-0.24208,0.23039 -0.49567,0.56211 -0.78691,0.82908c0.00135,-0.00059 0.0027,-0.00117 0.00406,-0.00176c0.4971,-0.21275 0.80845,-0.59216 0.97099,-1.0536zM262.26981,183.29284c-1.0445,-0.96947 -1.62284,-0.92776 -2.64207,-0.4497c-0.28062,0.47104 -0.44026,1.07614 -0.47,1.6799c0.07248,-0.44693 0.95456,-1.01394 0.95456,-1.01394c0,0 -0.35965,0.64584 -0.38273,1.32826c-0.02681,0.7928 0.38643,1.74326 0.88154,1.85812c0.57728,0.13392 1.10071,-0.7753 1.42192,-1.08613c0.63064,-0.64824 0.60384,-1.58891 0.23677,-2.31651zM262.52557,187.56011c-0.84098,0.76704 -2.05232,1.05148 -3.38871,0.51217c-1.89307,-1.30875 -1.51488,-5.98642 0.54563,-6.87172c2.2038,-1.29326 3.36984,0.47668 3.78179,2.40678c0.09245,0.19633 0.17173,0.40689 0.23605,0.63088c0.03859,0.44646 0.01374,0.8775 -0.06633,1.28168c-0.00149,0.03696 -0.00329,0.07351 -0.0054,0.10966c-0.13441,0.83247 -0.55152,1.4883 -1.10304,1.93054z" fill="#000000" stroke-width="0.5"/><path d="M270.98615,187.06567c-0.29303,1.38145 -1.22719,2.45332 -3.0785,2.05955c-3.02146,-0.46807 -3.3348,-4.20592 -1.50074,-6.15628c1.84038,-2.09954 5.81982,0.47422 5.11754,2.93496c-0.06023,0.15121 -0.26436,0.63765 -0.5383,1.16178zM269.99747,184.24348c-0.52032,-0.76762 -1.85926,-1.10866 -2.69938,-0.53884c-0.05696,0.04259 -0.1135,0.08733 -0.16956,0.13406c-0.173,0.15874 -0.31562,0.36602 -0.41252,0.62747c-0.01148,0.11052 -0.13952,0.58703 -0.13952,0.58703c0,0 0.70353,-1.0297 1.20709,-1.21801c1.04413,-0.39044 1.77827,-0.14316 2.21388,0.40829zM266.61095,185.34252c-0.06999,0.66796 -0.0729,1.34628 0.3112,1.93136c0.53996,0.82252 1.7628,0.26688 2.48568,-0.34851c0.0492,-0.26314 0.10991,-0.54245 0.26339,-0.8383c0.07763,-0.08311 0.14605,-0.16555 0.20582,-0.24712c-0.0684,-1.09847 -0.79528,-2.38524 -2.1071,-1.37046c-0.31199,0.24134 -0.99514,0.99673 -1.15897,0.87303zM269.12801,187.82217c-0.52385,0.30075 -1.1139,0.48616 -1.64358,0.42109c0.46053,0.20029 0.96052,0.21805 1.33449,-0.08277c0.13489,-0.10851 0.23407,-0.22127 0.30909,-0.33832z" fill="#000000" stroke-width="0.5"/></g><g fill="#40c2f4" stroke="#000000" stroke-width="1.5" stroke-linecap="round"><path d="M282.75101,177.40731c0,0 2.72047,-0.91389 4.112,-0.4594c0.99184,0.32395 0.87806,1.98778 0.13846,2.08935c-3.00672,0.41291 -4.25046,-1.62996 -4.25046,-1.62996z"/><path d="M284.5201,170.84177c0.79736,-0.25219 1.53243,1.09665 0.67917,2.01256c-0.86058,0.92376 -3.51079,0.99045 -3.51079,0.99045c0,0 1.39763,-2.54946 2.83162,-3.00301z"/></g></g><g><path d="M207.91472,173.40821c7.57967,-0.03654 12.91407,10.68946 7.38645,16.38495c-4.01391,4.13581 -15.32759,2.46227 -18.3962,0.35905c-1.72322,-1.18109 1.64879,-2.36607 1.64879,-2.36607l-0.375,-6.625c0,0 0.3211,-7.70754 9.73596,-7.75293z" data-paper-data="{&quot;index&quot;:null}" fill="#5a3000" stroke="#000000" stroke-width="1.5" stroke-linecap="round"/><path d="M204.62693,187.89397v-3" data-paper-data="{&quot;index&quot;:null}" fill="none" stroke="#000000" stroke-width="1.5" stroke-linecap="round"/><path d="M201.87694,187.89397v-3.375" data-paper-data="{&quot;index&quot;:null}" fill="none" stroke="#000000" stroke-width="1.5" stroke-linecap="round"/><path d="M209.45194,177.89397l-6.25,6l-5.375,-5.75" data-paper-data="{&quot;index&quot;:null}" fill="none" stroke="#000000" stroke-width="1.5" stroke-linecap="round"/><path d="M217.03338,182.57132c-0.28007,0.15159 -0.57507,0.2742 -0.91078,0.21212c-0.14745,-0.02728 -0.30698,-0.3083 -0.40534,-0.19511c-0.0395,0.04546 -0.00493,0.13125 -0.04687,0.17446c-0.17582,0.18117 -0.63305,0.30874 -0.87822,0.2911c-0.24733,-0.01779 -0.49987,-0.08776 -0.71164,-0.21678c-0.03623,-0.02207 0.01315,-0.16188 -0.01072,-0.12681c-0.035,0.05144 0.03014,0.1637 -0.02851,0.18445c-0.54697,0.19358 -1.58022,-0.34964 -1.95863,-0.69393c-0.10564,-0.02531 -0.34724,0.3165 -0.43835,0.37184c-0.16064,0.09758 -0.50112,0.20893 -0.69434,0.19533c-0.44427,-0.03128 -0.88332,-0.34553 -1.20105,-0.62358c-0.11058,-0.09677 -0.20243,-0.32394 -0.34204,-0.27811c-0.20978,0.06887 -0.3665,0.27586 -0.58433,0.31195c-0.97723,0.16192 -1.57066,-0.599 -2.06929,-1.29621c-0.25836,-0.41118 -0.34805,-0.13676 -0.78419,-0.0422c-0.16693,0.03619 -0.60344,0.06372 -0.7724,0.04092c-0.54742,-0.07389 -1.10722,-0.46638 -1.50855,-0.82702c-0.02864,-0.02573 0.00042,-0.08817 -0.03022,-0.11146c-0.02121,-0.01612 0.00223,0.05678 -0.01255,0.07895c-0.05729,0.08594 -0.12571,0.16466 -0.19862,0.23782c-0.01932,0.01938 -0.56802,0.49069 -0.58004,0.49731c-0.38299,0.21084 -1.42282,0.44715 -1.54143,-0.20056c-0.1754,0.5139 -1.09816,0.44005 -1.44842,0.16048c-0.04038,-0.03222 -0.01951,-0.12057 -0.0676,-0.13946c-0.03861,-0.01516 0.03909,0.08369 0.02365,0.1222c-0.03589,0.08955 -0.10561,0.16201 -0.1673,0.23619c-0.19931,0.23959 -0.32707,0.37042 -0.61531,0.50644c-0.88343,0.41693 -1.91969,-0.31916 -2.29823,-1.10525c-0.09337,-0.19389 -0.09063,-0.42078 -0.1339,-0.6316c-0.011,-0.17586 0.06659,-0.40747 -0.06504,-0.52461c-0.03194,-0.02842 -0.0805,0.03092 -0.12282,0.03702c-0.15944,0.02299 -0.59004,0.05379 -0.74458,0.03514c-0.57437,-0.06927 -1.06933,-0.33004 -1.55892,-0.61973c-0.12091,-0.07154 -0.274,-0.10824 -0.35983,-0.21948c-0.19628,-0.25443 -0.15228,-0.41712 -0.11796,-0.67267c0.0721,-0.53701 0.39912,-1.34017 0.9359,-1.63903c-0.37807,-0.07328 -0.6719,-0.20841 -1.07835,-0.42631c-0.32044,-0.17382 -0.62882,-0.39045 -0.84694,-0.69421c-0.14715,-0.20492 -0.19809,-0.53988 -0.21842,-0.78562c-0.06114,-0.73915 -0.04115,-1.61719 0.6066,-2.14367c0.03041,-0.02471 0.63292,-0.1874 0.64453,-0.19062c0.49481,-0.13727 1.10822,-0.39847 1.60605,-0.22458c-0.2419,-0.28762 -0.45906,-0.57618 -0.6077,-0.93565c-0.10516,-0.26075 -0.23988,-0.49878 -0.18503,-0.7995c0.01702,-0.09329 0.10889,-0.15537 0.1666,-0.23061c0.31153,-0.4061 0.67132,-0.73548 1.12812,-0.96509c0.97204,-0.48861 2.06292,-0.3728 3.08163,-0.12164c0.32088,0.07911 0.69386,0.09757 0.98111,0.25827l0.0009,-0.00369c-0.0711,-0.19428 -0.14837,-0.41286 -0.1613,-0.60555c-0.02053,-0.30578 0.01987,-0.94871 0.25243,-1.17935c0.09722,-0.09642 0.63654,-0.23598 0.77716,-0.26058c0.72388,-0.12664 1.62908,0.13277 2.28832,0.42781c0.31483,0.1409 0.62066,0.36818 0.91236,0.55221c0.29883,0.18857 0.77339,0.62026 1.11207,0.6962c0.05262,0.0118 0.40134,-0.64966 0.42445,-0.68082c0.30029,-0.40494 0.758,-0.61146 1.24202,-0.70629c1.10688,-0.21686 2.50501,0.34733 3.38626,0.981c0.43739,0.31595 0.83167,0.70001 1.24254,1.02047c0.02821,0.02201 -0.02924,-0.06897 -0.02471,-0.10448c0.01439,-0.11304 0.04977,-0.2225 0.08031,-0.33229c0.03779,-0.13584 0.03715,-0.29361 0.12459,-0.40422c0.28024,-0.3545 0.81093,-0.29614 1.19585,-0.20698c1.21467,0.28136 1.92485,1.38433 2.36024,2.44416c0.01426,0.07437 0.03431,0.14797 0.04814,0.2224c0.08548,-0.23459 0.4177,-0.34355 0.61496,-0.41978c0.50548,-0.19534 0.91404,-0.31916 1.46551,-0.24708c1.18496,0.15489 2.26104,1.09163 2.62955,2.23345c0.00889,0.02755 0.08877,0.72171 0.09316,0.75932c-0.0587,0.72496 -0.17868,1.4321 -0.30105,2.14887c-0.03296,0.19305 -0.16958,0.37142 -0.15505,0.56673c0.00282,0.03787 0.06865,-0.04586 0.1063,-0.04097c0.13897,0.01805 0.28231,0.04247 0.40641,0.10754c0.19467,0.10206 0.30107,0.40998 0.41345,0.58649c0.53793,0.84491 0.61016,1.60414 0.51621,2.58061c-0.11263,1.15516 -0.9176,2.62351 -1.95821,3.21233c-0.57942,0.32786 -1.26582,0.40447 -1.92266,0.3816z" data-paper-data="{&quot;index&quot;:null}" fill="#000000" stroke="none" stroke-width="0.5" stroke-linecap="butt"/></g><g><path d="M237.80882,173.8769c7.48712,-1.18142 14.38099,8.61539 9.77743,15.08072c-3.3429,4.69483 -14.77955,4.75002 -18.13073,3.13462c-1.8819,-0.90715 1.27234,-2.58804 1.27234,-2.58804l-1.37174,-6.49227c0,0 -0.84721,-7.66756 8.4527,-9.13503z" data-paper-data="{&quot;index&quot;:null}" fill="#5a3000" stroke="#000000" stroke-width="1.5" stroke-linecap="round"/><path d="M236.28841,185.47556l0.4533,2.96555" data-paper-data="{&quot;index&quot;:null}" fill="none" stroke="#000000" stroke-width="1.5" stroke-linecap="round"/><path d="M234.27631,189.07087l-0.50997,-3.33625" data-paper-data="{&quot;index&quot;:null}" fill="none" stroke="#000000" stroke-width="1.5" stroke-linecap="round"/><path d="M240.15974,177.62506l-5.27163,6.87549l-6.18212,-4.87181" data-paper-data="{&quot;index&quot;:null}" fill="none" stroke="#000000" stroke-width="1.5" stroke-linecap="round"/><path d="M248.20734,181.55696c-0.25395,0.19217 -0.52704,0.35795 -0.86827,0.3473c-0.14988,-0.00469 -0.35004,-0.25838 -0.43017,-0.13162c-0.03218,0.05091 0.01496,0.13049 -0.01997,0.17954c-0.14643,0.20566 -0.57913,0.40085 -0.82415,0.42046c-0.24718,0.01979 -0.50739,-0.01122 -0.73622,-0.10676c-0.03915,-0.01634 -0.01146,-0.16201 -0.02976,-0.12373c-0.02683,0.05614 0.05453,0.15727 -0.00031,0.18664c-0.51144,0.27401 -1.61491,-0.10685 -2.041,-0.39001c-0.10825,-0.00906 -0.29543,0.36533 -0.37713,0.43381c-0.14405,0.12073 -0.4638,0.28225 -0.65685,0.298c-0.4439,0.03621 -0.92539,-0.20809 -1.28148,-0.43494c-0.12393,-0.07895 -0.24905,-0.28963 -0.38014,-0.22323c-0.19697,0.09978 -0.32061,0.32807 -0.53048,0.39666c-0.94154,0.30772 -1.64314,-0.35479 -2.24139,-0.96866c-0.31752,-0.36742 -0.36472,-0.0826 -0.78156,0.07678c-0.15955,0.061 -0.58688,0.15417 -0.75735,0.15716c-0.5523,0.00967 -1.16498,-0.29372 -1.61619,-0.58958c-0.0322,-0.02111 -0.01291,-0.08722 -0.04671,-0.10561c-0.0234,-0.01273 0.01078,0.05579 -0.00048,0.07994c-0.04365,0.09361 -0.09939,0.18176 -0.1604,0.2651c-0.01617,0.02208 -0.48735,0.57088 -0.49824,0.57924c-0.34673,0.26629 -1.33892,0.65701 -1.55404,0.03465c-0.09574,0.5345 -1.01906,0.60093 -1.40754,0.3775c-0.04478,-0.02575 -0.0375,-0.11624 -0.0879,-0.12764c-0.04046,-0.00915 0.05129,0.07682 0.04184,0.11722c-0.02195,0.09394 -0.07992,0.17611 -0.12969,0.25876c-0.16082,0.26696 -0.26734,0.41559 -0.53172,0.5936c-0.81029,0.54563 -1.94587,-0.02543 -2.43885,-0.74529c-0.12159,-0.17756 -0.15317,-0.40225 -0.2278,-0.60412c-0.03745,-0.17218 0.00426,-0.41285 -0.14356,-0.50876c-0.03587,-0.02327 -0.0749,0.04273 -0.11582,0.05515c-0.15414,0.04682 -0.57514,0.14233 -0.73072,0.14724c-0.57824,0.01831 -1.10692,-0.16467 -1.63466,-0.37706c-0.13033,-0.05245 -0.28721,-0.0656 -0.38886,-0.16259c-0.23247,-0.22185 -0.21356,-0.38932 -0.21825,-0.64712c-0.00987,-0.54174 0.19204,-1.38509 0.67749,-1.76163c-0.3848,-0.01531 -0.69568,-0.10449 -1.13038,-0.25848c-0.34303,-0.12341 -0.6806,-0.29095 -0.94211,-0.55827c-0.17642,-0.18033 -0.27739,-0.50375 -0.33462,-0.7436c-0.17212,-0.72142 -0.28504,-1.5924 0.27572,-2.21072c0.02633,-0.02902 0.59734,-0.28088 0.60833,-0.28582c0.46839,-0.21046 1.03529,-0.56135 1.55368,-0.46468c-0.28258,-0.24777 -0.54085,-0.5002 -0.7421,-0.83308c-0.14335,-0.24187 -0.31249,-0.45681 -0.30371,-0.76236c0.00273,-0.09479 0.08416,-0.17004 0.12984,-0.25314c0.24659,-0.44851 0.55248,-0.82847 0.96934,-1.12447c0.88705,-0.62988 1.9829,-0.68023 3.02787,-0.58588c0.32915,0.02972 0.70064,-0.00839 1.00887,0.10706l0.00033,-0.00378c-0.09964,-0.18131 -0.20905,-0.3857 -0.25095,-0.57422c-0.0665,-0.29917 -0.12371,-0.94082 0.07133,-1.20395c0.08153,-0.11 0.59357,-0.32945 0.72886,-0.37502c0.69643,-0.23457 1.63044,-0.11491 2.32669,0.07713c0.33251,0.09171 0.66917,0.27017 0.98532,0.40801c0.32389,0.14125 0.85823,0.49628 1.2045,0.52017c0.0538,0.00371 0.29857,-0.70284 0.3167,-0.73714c0.23566,-0.44566 0.6569,-0.71897 1.12104,-0.88585c1.0614,-0.38162 2.52873,-0.03517 3.49561,0.45807c0.48011,0.24623 0.92789,0.56631 1.38247,0.821c0.03121,0.01749 -0.03933,-0.06376 -0.04021,-0.09955c-0.00286,-0.11392 0.01558,-0.22747 0.02918,-0.34061c0.01683,-0.13999 -0.00764,-0.29585 0.06208,-0.4184c0.22346,-0.39277 0.75687,-0.41527 1.15084,-0.3853c1.24324,0.09459 2.11192,1.07759 2.70246,2.05946c0.02533,0.07136 0.05627,0.14109 0.08119,0.21257c0.04905,-0.24481 0.36099,-0.40272 0.54447,-0.50788c0.47016,-0.26948 0.85532,-0.45361 1.41135,-0.46568c1.19476,-0.02594 2.40003,0.73745 2.93684,1.81048c0.01295,0.02589 0.1968,0.70001 0.20682,0.73653c0.05152,0.72551 0.03976,1.44266 0.0271,2.16969c-0.00341,0.19581 -0.11151,0.39278 -0.06764,0.58365c0.00851,0.03701 0.06093,-0.05571 0.09889,-0.05656c0.1401,-0.00316 0.28549,-0.00068 0.41799,0.0449c0.20786,0.07147 0.35956,0.35978 0.49732,0.51728c0.65942,0.75393 0.84554,1.49353 0.90022,2.47298c0.06321,1.15892 -0.51065,2.73204 -1.45034,3.47133c-0.52323,0.41165 -1.19017,0.59109 -1.84292,0.66773z" data-paper-data="{&quot;index&quot;:null}" fill="#000000" stroke="none" stroke-width="0.5" stroke-linecap="butt"/><path d="M239.54773,186.1734l2.41196,-0.9573c0,0 2.17067,2.71687 1.55344,3.31718c-1.08781,1.05797 -7.38725,2.33473 -7.38725,2.33473c0,0 3.83205,-2.00737 4.74899,-2.91279c0.78072,-0.77094 0.91385,-2.61384 0.91385,-2.61384z" data-paper-data="{&quot;index&quot;:null}" fill="#e1e1e1" stroke="#000000" stroke-width="0.9" stroke-linecap="round"/></g></g></g></svg>