<svg version="1.1" xmlns="http://www.w3.org/2000/svg" xmlns:xlink="http://www.w3.org/1999/xlink" width="210" height="221" viewBox="0,0,210,221"><g transform="translate(-140,-90)"><g data-paper-data="{&quot;isPaintingLayer&quot;:true}" fill-rule="nonzero" stroke-linejoin="miter" stroke-miterlimit="10" stroke-dasharray="" stroke-dashoffset="0" style="mix-blend-mode: normal"><g data-paper-data="{&quot;index&quot;:null}"><g data-paper-data="{&quot;origRot&quot;:0,&quot;index&quot;:null}" stroke="#000000" stroke-width="3" stroke-linecap="round"><path d="M224.87545,251.61991c0,0 -23.81999,-6.94488 -23.32008,-9.44902c0.90136,-4.51511 5.70945,-13.96601 5.70945,-13.96601l14.03087,-26.48458c0,0 2.73819,-4.98689 3.86925,-4.98347c3.39312,0.01027 8.86691,3.4294 14.97489,5.69391c1.01526,0.37643 -0.44631,6.11053 -0.44631,6.11053c0,0 -2.69011,8.91842 -4.41192,14.62665c-2.62216,8.69308 -6.71891,22.27493 -6.71891,22.27493c0,0 -1.87286,7.01996 -3.68726,6.17706z" data-paper-data="{&quot;origPos&quot;:null}" fill="#582700"/><path d="M227.57053,244.77748l-22.66967,-9.35155" fill="none"/><path d="M229.00956,241.78523l-22.5823,-9.57162" data-paper-data="{&quot;origPos&quot;:null}" fill="none"/></g><path d="M206.43747,231.48087l17.78418,-33.55442l1.41601,-0.15443l14.36535,5.97773l-10.66227,37.20857z" fill="#616161" stroke="#000000" stroke-width="1" stroke-linecap="round"/><path d="M204.93457,235.26279l0.86479,-2.15798l23.1576,9.64387l-0.86478,2.15797z" fill="#ffffff" stroke="none" stroke-width="0" stroke-linecap="butt"/></g><g data-paper-data="{&quot;index&quot;:null}" stroke="#000000" stroke-linecap="round"><path d="M270.77735,199.31281c0,0 16.2585,-1.95303 16.44288,4.67557c0.50049,17.99137 -28.04158,12.69058 -28.04158,12.69058z" data-paper-data="{&quot;origPos&quot;:null}" fill="#7c7c7c" stroke-width="2"/><path d="M270.06591,200.83834c0,0 11.81895,-0.82124 12.54316,1.1112c0.22841,0.60948 -15.70692,2.85858 -15.70692,2.85858z" data-paper-data="{&quot;origPos&quot;:null}" fill="#0a0a0a" stroke-width="1"/></g><g><path d="M268.68983,244.25963c0,0 -0.6105,15.77433 -2.84411,15.83391c-6.70088,0.1788 -24.04165,-2.40223 -38.90313,-3.87992c-1.66949,-0.166 -0.05966,-15.03723 -0.05966,-15.03723l4.58012,-30.32296c0,0 2.55772,-13.34543 4.0881,-13.19327c9.89957,0.98432 24.79606,1.53034 31.12476,3.81124c2.10957,0.76031 2.73638,15.30266 2.73638,15.30266z" data-paper-data="{&quot;origPos&quot;:null}" fill="#7c7c7c" stroke="#000000" stroke-width="3.5" stroke-linecap="round"/><path d="M238.58693,221.61313c-1.29291,-0.12856 -1.06572,-2.60565 -1.06572,-2.60565c0.47126,-5.1377 1.09401,-11.92678 1.56525,-17.06447c0,0 0.22722,-2.4771 1.52014,-2.34855c1.29291,0.12856 1.06571,2.60565 1.06571,2.60565c-0.47126,5.1377 -0.94251,10.27538 -1.41377,15.41308l-0.15149,1.6514c0,0 -0.22721,2.4771 -1.52014,2.34855z" fill="#ffffff" stroke="none" stroke-width="0.5" stroke-linecap="butt"/><path d="M250.02014,229.11432c-1.29291,-0.12856 -1.00749,-3.2405 -1.00749,-3.2405c0.59204,-6.45439 1.37437,-14.98341 1.9664,-21.4378c0,0 0.28545,-3.11194 1.57837,-2.98337c1.29291,0.12856 1.00749,3.2405 1.00749,3.2405c-0.59204,6.45439 -1.18407,12.90877 -1.77611,19.36316l-0.1903,2.07462c0,0 -0.28544,3.11195 -1.57836,2.98338z" fill="#ffffff" stroke="none" stroke-width="0.5" stroke-linecap="butt"/></g><g fill="none" stroke="#b9b9b9" stroke-width="3"><path d="M264.03706,206.67054c-0.68858,-1.44221 0.3495,-2.55446 1.69691,-3.631c1.34742,-1.07651 2.61278,-1.31096 3.18255,-0.26746c1.20806,2.21252 -0.3809,3.01844 -1.43598,3.86137c-1.34743,1.07653 -2.47104,2.07386 -3.44348,0.03709z" stroke-linecap="butt"/><path d="M262.23424,208.4117l2.84742,-2.2201" stroke-linecap="round"/><path d="M258.62367,208.64617c1.34742,-1.07651 2.61278,-1.31097 3.18254,-0.26747c1.20806,2.21252 -0.3809,3.01844 -1.43598,3.86137c-1.34743,1.07652 -2.47102,2.07387 -3.44348,0.03709c-0.68858,-1.44221 0.34949,-2.55446 1.69691,-3.631z" stroke-linecap="butt"/><path d="M257.97135,211.79822l-2.84743,2.22012" stroke-linecap="round"/><path d="M249.54836,212.94778c0.56784,-1.58214 1.88997,-1.28063 3.36272,-0.65647c1.47277,0.62416 2.34118,1.70262 1.97063,2.91675c-0.78564,2.57431 -2.21517,1.54431 -3.36839,1.05556c-1.47277,-0.62415 -2.76693,-1.08145 -1.96497,-3.31584z" stroke-linecap="butt"/><path d="M247.37848,212.30337l3.07596,1.35377" stroke-linecap="round"/><path d="M242.79669,207.80052c1.02759,-1.21113 2.1218,-0.29851 3.24676,0.98808c1.12499,1.2866 1.55687,2.71061 0.82716,3.67111c-1.54724,2.03656 -2.50099,0.39044 -3.38191,-0.617c-1.12498,-1.28661 -2.14321,-2.33178 -0.69202,-4.04219z" stroke-linecap="butt"/><path d="M243.38279,208.89678l-2.33322,-2.73411" stroke-linecap="round"/><path d="M236.91988,200.99052c1.0276,-1.2111 2.1218,-0.29851 3.24676,0.98808c1.12499,1.2866 1.55687,2.71061 0.82716,3.67112c-1.54723,2.03655 -2.50098,0.39043 -3.38189,-0.61701c-1.12498,-1.28661 -2.14323,-2.33178 -0.69204,-4.0422z" stroke-linecap="butt"/><path d="M235.17275,199.35267l2.33324,2.73411" stroke-linecap="round"/></g><path d="M233.3644,199.28468c0,0 -1.77828,-4.22731 -1.86156,-5.31022c-0.24986,-3.24874 -0.40974,-17.43952 -0.51132,-30.26544c-0.01571,-1.98386 1.58609,-5.08952 1.58609,-5.08952c0,0 2.20193,-1.63659 3.47077,-1.64828c13.99902,-0.12906 27.31071,-1.34541 32.51407,0.18275c1.73446,0.50939 4.91417,2.23504 4.91417,2.23504c0,0 0.74959,4.3934 0.89352,5.52426c0.04797,0.37696 0.07599,0.58911 0.10133,0.96814c0.75858,11.35684 0.41404,24.5035 0.07662,29.09564c-0.11248,1.53073 -1.9202,3.92798 -1.9202,3.92798c0,0 -1.37357,2.73289 -5.79193,3.5588c-4.83447,0.90368 -16.61931,0.57565 -28.77113,0.20017z" fill="#582700" stroke="#000000" stroke-width="2.5" stroke-linecap="round"/><path d="M275.82179,159.97795l-0.72268,-0.51989c-0.0902,-0.03019 -0.18036,-0.05987 -0.27046,-0.08907c-0.21968,0.31242 -0.64942,0.67732 -1.39088,0.43736c-0.6834,-0.22116 -0.85118,-0.70359 -0.86939,-1.07683c-2.64923,-0.64615 -5.298,-0.95046 -8.07816,-1.18438c-7.78278,-0.3893 -15.5774,-0.17739 -23.36726,-0.12515c-2.55472,0.01714 -8.26176,1.07765 -10.41373,-0.59519c-1.04951,-0.81582 -0.66344,-2.74923 -0.77591,-3.80183c-0.32588,-3.05019 -0.73152,-6.20774 -0.77646,-9.27575c-0.03176,-4.01038 -1.5784,-7.58166 -2.12857,-11.51165c-0.27582,-1.97023 -0.96853,-3.94818 0.78765,-5.66387c0.49586,-0.48444 1.37818,-0.20947 2.07335,-0.24991c2.54059,-0.14774 5.00239,0.00941 7.51973,0.29088c7.97738,0.89196 15.86074,1.36177 23.78888,2.73948c3.19823,0.55959 6.41671,0.60781 9.66041,0.69608c1.9064,0.05189 3.63931,-0.50011 4.80164,1.65883c0.69412,1.28927 0.233,5.29719 0.1942,6.77979c-0.14956,5.71685 0.82902,12.72809 -0.31834,18.48516c0.11821,0.03791 0.2365,0.07657 0.35486,0.11601l1.30315,0.80016c0,0 1.0535,0.68647 0.36751,1.73136c-0.68599,1.04489 -1.7395,0.35843 -1.7395,0.35843z" data-paper-data="{&quot;index&quot;:null}" fill="#000000" stroke="none" stroke-width="0.5" stroke-linecap="butt"/><path d="M249.36552,174.9218c0.5495,-0.02412 1.13986,2.94712 1.31866,6.6364c0.1788,3.68929 -0.12171,6.6996 -0.6712,6.7237c-0.5495,0.02412 -1.13987,-2.94711 -1.31867,-6.63639c-0.1788,-3.68929 0.1217,-6.69961 0.67121,-6.72372z" data-paper-data="{&quot;index&quot;:null}" fill="none" stroke="#580000" stroke-width="2.5" stroke-linecap="butt"/><g data-paper-data="{&quot;index&quot;:null}" stroke="#000000" stroke-width="1.25" stroke-linecap="butt"><g data-paper-data="{&quot;index&quot;:null}" fill="#000000"><path d="M260.74881,196.78609c-9.78928,0.47397 -6.67411,-3.83883 -6.67411,-3.83883l13.06048,-0.58656c0,0 4.03101,3.82358 -6.38638,4.42538z"/></g><g data-paper-data="{&quot;index&quot;:null}" fill="#ffffff"><path d="M256.2243,196.55398c-0.01897,-0.00405 0.67026,-0.89535 0.64421,-1.7187c-0.03179,-1.00526 -0.77721,-1.97859 -0.77417,-1.97873c2.20501,-0.09904 11.04084,-0.49585 11.04084,-0.49585c0,0 4.03101,3.82358 -6.38637,4.42539c-2.0024,0.09695 -3.46486,-0.00638 -4.52449,-0.23211z"/></g></g><path d="M259.49685,174.3859c0.5495,-0.02412 1.13987,2.94712 1.31866,6.6364c0.1788,3.68929 -0.12172,6.69959 -0.67121,6.7237c-0.5495,0.02412 -1.13986,-2.94711 -1.31867,-6.63639c-0.1788,-3.68929 0.12171,-6.69962 0.67121,-6.72373z" data-paper-data="{&quot;index&quot;:null}" fill="none" stroke="#580000" stroke-width="2.5" stroke-linecap="butt"/><g><g><g data-paper-data="{&quot;index&quot;:null}" stroke="#000000"><path d="M303.71066,240.2725c-2.76748,4.1539 -29.44824,5.26408 -33.96608,2.08756c-4.63341,-3.25778 -9.12842,-15.33076 -10.67839,-22.5788c-1.54995,-7.24806 0.75932,-17.69269 1.87779,-18.57538c3.3554,-2.6481 15.22582,0.13407 20.64047,0.80138c3.23534,0.39872 15.90645,2.30925 19.28814,4.9855c3.57774,2.83141 4.75092,30.40862 2.8381,33.27969z" data-paper-data="{&quot;origRot&quot;:0,&quot;origPos&quot;:null}" fill="#582700" stroke-width="3" stroke-linecap="butt"/><path d="M276.33873,210.07606l20.43208,-0.13824" data-paper-data="{&quot;origPos&quot;:null}" fill="none" stroke-width="2" stroke-linecap="round"/><path d="M273.3062,213.35485l-0.88399,25.34786" data-paper-data="{&quot;origPos&quot;:null}" fill="none" stroke-width="2" stroke-linecap="round"/><path d="M268.05971,239.50952c0,0 -0.12824,-29.64811 2.11899,-32.45833c1.96733,-2.4602 29.22976,-0.14454 29.22976,-0.14454" data-paper-data="{&quot;origPos&quot;:null}" fill="none" stroke-width="1.5" stroke-linecap="round"/><path d="M266.14002,235.96446c0,0 -0.12214,-28.23665 2.01811,-30.91307c1.87368,-2.34308 27.83821,-0.13766 27.83821,-0.13766" data-paper-data="{&quot;origPos&quot;:null}" fill="none" stroke-width="1.5" stroke-linecap="round"/></g><path d="M280.90776,203.68099l-12.86355,1.45027l-1.72845,10.85911l-0.27887,14.3125l-0.56761,5.99088l-7.12634,-21.59735l3.10354,-14.23791l19.6812,1.95647z" fill="#616161" stroke="#000000" stroke-width="0.5" stroke-linecap="round"/><path d="M268.09729,205.85985l1.46634,-0.15326l-1.76255,32.46523l-1.46634,0.15325z" fill="#ffffff" stroke="none" stroke-width="0" stroke-linecap="butt"/><path d="M297.11197,204.74429l0.16284,1.41396l-28.30095,0.06353l-0.16283,-1.41396z" fill="#ffffff" stroke="none" stroke-width="0" stroke-linecap="butt"/><path d="M266.84229,235.93973l0.50319,0.66372c0.29253,0.43364 0.58505,0.86726 0.87756,1.3009c0,0 0.87454,1.2964 -0.49545,2.06117c-1.37,0.76477 -2.24455,-0.53164 -2.24455,-0.53164c-0.29253,-0.43364 -0.58505,-0.86726 -0.87756,-1.30089l-0.39575,-0.5141c0,0 -0.95347,-1.24926 0.36281,-2.08883c1.31628,-0.83958 2.26976,0.40968 2.26976,0.40968z" fill="#000000" stroke="none" stroke-width="0.5" stroke-linecap="butt"/><path d="M270.20781,205.23742c0.00038,0.00016 0.00077,0.00033 0.00114,0.0005l0.05788,-0.13336l0.53642,0.21413c0.23697,0.08936 0.38682,0.32161 0.34537,0.5602c-0.03413,0.19655 -0.18873,0.3436 -0.38342,0.38989l-0.50223,0.13005c-0.49807,0.21237 -0.72362,0.26477 -0.90771,0.75998c0,0 -0.19953,0.45967 -0.70324,0.25861c-0.23765,-0.09487 -0.31876,-0.2473 -0.33814,-0.38187c-0.15756,-0.09033 -0.26083,-0.24904 -0.26817,-0.42156l-0.0347,-0.53413l0.10318,-0.0024c-0.11308,-0.46755 0.0677,-0.78152 0.80881,-1.22476l0.67919,-0.09959c0,0 0.53791,-0.04241 0.60265,0.45751c0.00117,0.00908 0.00214,0.01803 0.00294,0.02681z" fill="#ffffff" stroke="none" stroke-width="0.5" stroke-linecap="butt"/><path d="M297.91472,207.069c-0.23118,-0.93598 -1.87908,-1.7816 -2.76977,-2.25035l-0.46934,-0.08472c-0.29547,-0.05332 -0.4967,-0.31699 -0.44948,-0.5889c0.04723,-0.27191 0.32504,-0.44911 0.6205,-0.39578v0v0l0.53499,0.09657l-0.00736,0.04239l0.09196,-0.02057c0.04273,0.02156 0.08583,0.04342 0.12928,0.06559c0.65373,-0.26731 2.14657,0.6188 2.69494,0.99899l0.19795,0.21549c0,0 0.31783,0.41641 -0.12093,0.69627c-0.00466,0.00296 -0.0093,0.00586 -0.01395,0.00868c0.25641,0.2916 0.46302,0.6072 0.59473,0.94871c0,0 0.16277,0.48356 -0.35398,0.61736c-0.51674,0.13382 -0.67951,-0.34973 -0.67951,-0.34973z" fill="#000000" stroke="none" stroke-width="0.5" stroke-linecap="butt"/></g><path d="M263.98331,203.39132c0,0 -1.77931,4.5817 -2.3875,11.76233c-0.61672,7.28152 0.12926,13.21837 0.12926,13.21837l1.73651,0.68646c0,0 -1.03604,2.87344 -2.98894,2.35025c-4.77977,-1.28054 -1.38938,-32.44907 3.26885,-31.48285c2.91146,0.60391 2.18354,4.71625 2.18354,4.71625z" fill="#fffc96" stroke="#000000" stroke-width="2" stroke-linecap="round"/><path d="M296.31482,204.02485c0,0 -6.38884,-1.23491 -15.57481,-1.01968c-9.18599,0.21523 -15.08465,1.36429 -15.08465,1.36429l0.81115,1.16782c0,0 -3.74609,0.99026 -5.38002,-1.39796c-2.6979,-3.94339 37.82888,-5.47066 39.4792,-0.98948c0.7862,2.13477 -3.64381,2.03723 -3.64381,2.03723z" data-paper-data="{&quot;index&quot;:null}" fill="#fffc96" stroke="#000000" stroke-width="2" stroke-linecap="round"/></g><path d="M140,311v-221h210v221z" fill="none" stroke="none" stroke-width="0" stroke-linecap="butt"/><path d="M280.67089,253.91771c0,0 4.45214,-1.02642 6.7331,-0.26656c1.74617,0.58168 2.41396,2.38846 2.93375,4.12242c1.42672,4.7595 0.15079,9.61376 0.43012,17.32516c0.07608,2.10025 -3.03289,3.39358 -5.17666,3.33199c-2.00505,-0.05762 -5.48687,-0.27815 -5.48687,-0.27815l-33.74245,-1.70473c0,0 -4.36119,-0.36046 -5.20391,-2.06162c-2.02943,-4.09672 -0.71902,-8.62555 -1.14551,-13.16021c-0.14454,-1.53674 4.74528,-1.83404 4.74528,-1.83404c0,0 9.08092,-1.38422 14.8932,-2.27018c8.20333,-1.25044 21.01998,-3.20407 21.01998,-3.20407z" data-paper-data="{&quot;index&quot;:null}" fill="#171717" stroke="#000000" stroke-width="3" stroke-linecap="round"/><path d="M241.35505,265.47173c0,0 2.08019,3.99136 1.87177,6.34323c-0.15953,1.80045 -1.79061,2.86727 -3.38488,3.77589c-4.37605,2.49399 -9.49131,2.43889 -17.06667,4.54589c-2.06321,0.57384 -4.08721,-2.07569 -4.53802,-4.1303c-0.42162,-1.92166 -1.03441,-5.28744 -1.03441,-5.28744l-6.36703,-32.51463c0,0 -0.68407,-4.23595 0.80058,-5.44402c3.57533,-2.90924 8.37631,-2.74364 12.76837,-4.23217c1.48841,-0.50445 2.95054,4.07747 2.95054,4.07747c0,0 3.53994,8.31044 5.8057,13.62958c3.19784,7.50731 8.19403,19.23654 8.19403,19.23654z" data-paper-data="{&quot;index&quot;:null}" fill="#171717" stroke="#000000" stroke-width="3" stroke-linecap="round"/></g></g></svg>