<svg version="1.1" xmlns="http://www.w3.org/2000/svg" xmlns:xlink="http://www.w3.org/1999/xlink" width="234" height="234" viewBox="0,0,234,234"><g transform="translate(-123,-63)"><g data-paper-data="{&quot;isPaintingLayer&quot;:true}" fill-rule="nonzero" stroke-linejoin="miter" stroke-miterlimit="10" stroke-dasharray="" stroke-dashoffset="0" style="mix-blend-mode: normal"><path d="M123,297v-234h234v234z" data-paper-data="{&quot;index&quot;:null}" fill="none" stroke="none" stroke-width="0" stroke-linecap="butt"/><g data-paper-data="{&quot;index&quot;:null}"><g data-paper-data="{&quot;index&quot;:null}" stroke="#2f3bd4"><path d="M282.10739,261.9465c-1.96553,4.21141 -27.41173,9.57443 -32.28192,7.43762c-4.99478,-2.19147 -11.32747,-12.38344 -14.02587,-18.68985c-2.69839,-6.30641 -2.2227,-16.13618 -1.29551,-17.11773c2.78158,-2.94467 14.64939,-2.3658 19.96242,-2.64635c3.17463,-0.16764 15.66619,-0.50841 19.36143,1.36124c3.90949,1.97804 9.63797,26.7442 8.27944,29.65502z" data-paper-data="{&quot;origRot&quot;:0,&quot;origPos&quot;:null}" fill="#ffffff" stroke-width="3" stroke-linecap="butt"/><path d="M250.77345,239.08947l19.60545,-3.46269" data-paper-data="{&quot;origPos&quot;:null}" fill="none" stroke-width="2" stroke-linecap="round"/><path d="M251.78753,265.63677l-3.38026,-23.08459" data-paper-data="{&quot;origPos&quot;:null}" fill="none" stroke-width="2" stroke-linecap="round"/></g><path d="M243.7172,264.04773c1.12443,-0.97484 2.24885,0 2.24885,0l0.59414,0.51847c0.35337,0.34466 0.70675,0.68932 1.06012,1.03398c0,0 1.05645,1.0304 -0.13206,1.94632c-1.18851,0.91591 -2.24497,-0.11449 -2.24497,-0.11449c-0.35337,-0.34466 -0.70675,-0.68932 -1.06012,-1.03398l-0.46598,-0.40062c0,0 -1.12443,-0.97484 0,-1.94969z" fill="#2f3bd4" stroke="none" stroke-width="0.5" stroke-linecap="butt"/><path d="M270.99914,232.84362c-0.37825,-0.80931 -2.10244,-1.30543 -3.03632,-1.58416h-0.46502c-0.29274,0 -0.53006,-0.20575 -0.53006,-0.45955c0,-0.2538 0.23732,-0.45955 0.53006,-0.45955v0v0h0.53006v0.03957l0.08491,-0.03364c0.04464,0.01254 0.08971,0.02528 0.13513,0.03823c0.58342,-0.34872 2.1654,0.20938 2.75566,0.46389l0.2261,0.16267c0,0 0.37481,0.32495 0,0.6499c-0.00399,0.00346 -0.00796,0.00683 -0.01195,0.01014c0.29498,0.22202 0.54612,0.47388 0.72964,0.76145c0,0 0.23704,0.41103 -0.23705,0.61655c-0.4741,0.20551 -0.71115,-0.20552 -0.71115,-0.20552z" fill="#2f3bd4" stroke="none" stroke-width="0.5" stroke-linecap="butt"/></g><g data-paper-data="{&quot;index&quot;:null}"><g data-paper-data="{&quot;index&quot;:null}" stroke="#2f3bd4"><path d="M244.47313,261.9465c-1.96553,4.21141 -27.41173,9.57443 -32.28192,7.43762c-4.99478,-2.19147 -11.32747,-12.38344 -14.02587,-18.68985c-2.69839,-6.30641 -2.2227,-16.13618 -1.29551,-17.11773c2.78158,-2.94467 14.64939,-2.3658 19.96242,-2.64635c3.17463,-0.16764 15.66619,-0.50841 19.36143,1.36124c3.90949,1.97804 9.63797,26.7442 8.27944,29.65502z" data-paper-data="{&quot;origRot&quot;:0,&quot;origPos&quot;:null}" fill="#ffffff" stroke-width="3" stroke-linecap="butt"/><path d="M213.13919,239.08947l19.60545,-3.46269" data-paper-data="{&quot;origPos&quot;:null}" fill="none" stroke-width="2" stroke-linecap="round"/><path d="M214.15327,265.63677l-3.38026,-23.08459" data-paper-data="{&quot;origPos&quot;:null}" fill="none" stroke-width="2" stroke-linecap="round"/></g><path d="M206.08293,264.04773c1.12443,-0.97484 2.24885,0 2.24885,0l0.59414,0.51847c0.35337,0.34466 0.70675,0.68932 1.06012,1.03398c0,0 1.05645,1.0304 -0.13206,1.94632c-1.18851,0.91591 -2.24497,-0.11449 -2.24497,-0.11449c-0.35337,-0.34466 -0.70675,-0.68932 -1.06012,-1.03398l-0.46598,-0.40062c0,0 -1.12443,-0.97484 0,-1.94969z" fill="#2f3bd4" stroke="none" stroke-width="0.5" stroke-linecap="butt"/><path d="M233.36487,232.84362c-0.37825,-0.80931 -2.10244,-1.30543 -3.03632,-1.58416h-0.46502c-0.29274,0 -0.53006,-0.20575 -0.53006,-0.45955c0,-0.2538 0.23732,-0.45955 0.53006,-0.45955v0v0h0.53006v0.03957l0.08491,-0.03364c0.04464,0.01254 0.08971,0.02528 0.13513,0.03823c0.58342,-0.34872 2.1654,0.20938 2.75566,0.46389l0.2261,0.16267c0,0 0.37481,0.32495 0,0.6499c-0.00399,0.00346 -0.00796,0.00683 -0.01195,0.01014c0.29498,0.22202 0.54612,0.47388 0.72964,0.76145c0,0 0.23704,0.41103 -0.23705,0.61655c-0.4741,0.20551 -0.71115,-0.20552 -0.71115,-0.20552z" fill="#2f3bd4" stroke="none" stroke-width="0.5" stroke-linecap="butt"/></g><g data-paper-data="{&quot;index&quot;:null}"><g stroke="#2f3bd4" stroke-width="3" stroke-linecap="round"><path d="M283.84383,254.47662c0,0 4.63371,9.01797 4.87763,13.24755c-15.46139,7.87769 -25.96803,6.77863 -25.96803,6.77863c-2.0302,0.62606 -3.40848,-5.95263 -3.40848,-5.95263c0,0 -3.17615,-12.7662 -5.20906,-20.93719c-1.33488,-5.36542 -3.42049,-13.74821 -3.42049,-13.74821c0,0 -1.05232,-5.3682 0.07505,-5.6313c6.78243,-1.58284 12.98696,-4.27391 16.64128,-4.01065c1.21811,0.08775 3.71293,4.8743 3.71293,4.8743l12.69917,25.3795z" data-paper-data="{&quot;origPos&quot;:null}" fill="#ffffff"/><path d="M285.44508,259.58329l-25.98528,6.98508l-1.05354,-2.99039l25.94599,-7.22032z" data-paper-data="{&quot;origPos&quot;:null}" fill="none"/></g><path d="M258.04479,263.23356l-7.41271,-33.26964l1.08054,-0.94036l15.96939,-4.41878l15.7882,31.54766z" fill="#ffffff" stroke="#2f3bd4" stroke-width="1" stroke-linecap="round"/><path d="M259.28392,266.18712l-0.73475,-2.0456l25.81144,-6.96842l0.73476,2.0456z" fill="#ffffff" stroke="none" stroke-width="0" stroke-linecap="butt"/></g><g data-paper-data="{&quot;index&quot;:null}" fill="#ffffff" stroke="#2f3bd4" stroke-linecap="round"><path d="M231.64653,228.07864c0,0 -30.57578,0.1281 -26.80862,-16.07177c1.38792,-5.96856 17.90726,-1.5415 17.90726,-1.5415z" data-paper-data="{&quot;origPos&quot;:null}" stroke-width="2"/><path d="M225.77456,216.07238c0,0 -16.13053,-4.64211 -15.7835,-5.15632c1.10038,-1.63033 13.21697,1.04624 13.21697,1.04624z" data-paper-data="{&quot;origPos&quot;:null}" stroke-width="1"/></g><g data-paper-data="{&quot;index&quot;:null}"><path d="M221.25975,224.92328c0,0 5.07648,-9.86316 7.43369,-9.93822c7.07158,-0.22524 22.24252,2.55962 32.51446,3.98317c1.58794,0.22006 0.08484,9.93604 0.08484,9.93604l-4.65561,21.81503c0,0 -2.92421,10.5637 -4.65649,10.32362c-15.42046,-2.13703 -33.67534,-4.04164 -40.36997,-5.58607c-2.23153,-0.5148 1.97527,-11.48726 1.97527,-11.48726z" data-paper-data="{&quot;origPos&quot;:null}" fill="#ffffff" stroke="#2f3bd4" stroke-width="3.5" stroke-linecap="round"/><path d="M239.09119,233.40676c-1.34157,-0.18592 -0.81325,-1.93684 -0.81325,-1.93684c1.09578,-3.63152 2.54374,-8.4303 3.63953,-12.06183c0,0 0.52832,-1.75092 1.86988,-1.56499c1.34157,0.18592 0.81324,1.93684 0.81324,1.93684c-1.09578,3.63152 -2.19154,7.26304 -3.28732,10.89455l-0.35221,1.16728c0,0 -0.52832,1.75092 -1.86988,1.56499z" fill="#2f3bd4" stroke="none" stroke-width="0.5" stroke-linecap="butt"/><path d="M251.38354,234.80474c-1.34157,-0.18592 -0.67784,-2.38556 -0.67784,-2.38556c1.3766,-4.56221 3.19566,-10.59084 4.57226,-15.15305c0,0 0.66372,-2.19963 2.00528,-2.01371c1.34157,0.18592 0.67784,2.38555 0.67784,2.38555c-1.3766,4.56221 -2.75317,9.12442 -4.12978,13.68664l-0.44246,1.46643c0,0 -0.66371,2.19963 -2.00527,2.01371z" fill="#2f3bd4" stroke="none" stroke-width="0.5" stroke-linecap="butt"/></g><g data-paper-data="{&quot;index&quot;:null}" fill="none" stroke="#2f3bd4" stroke-width="3"><path d="M255.75905,224.67653c-0.57104,-1.37527 0.63668,-2.30527 2.16557,-3.17686c1.52888,-0.87157 2.8827,-0.98048 3.37105,0.02055c1.03541,2.12247 -0.71866,2.72664 -1.91581,3.40911c-1.52891,0.87159 -2.81434,1.68946 -3.6208,-0.2528z" stroke-linecap="butt"/><path d="M256.9068,224.32583l-3.22511,1.79176" stroke-linecap="round"/><path d="M249.86454,226.03123c1.52888,-0.87157 2.8827,-0.98048 3.37107,0.02055c1.03541,2.12247 -0.71866,2.72665 -1.91581,3.40912c-1.52888,0.87158 -2.81434,1.68945 -3.6208,-0.25281c-0.57104,-1.37527 0.63667,-2.30527 2.16555,-3.17688z" stroke-linecap="butt"/><path d="M245.6216,230.64916l3.22511,-1.79178" stroke-linecap="round"/><path d="M239.87821,229.20663c0.7634,-1.39854 2.1203,-1.01294 3.60137,-0.31994c1.48106,0.693 2.27942,1.75084 1.76208,2.82952c-1.0969,2.2871 -2.48972,1.2268 -3.64943,0.68418c-1.48107,-0.693 -2.79214,-1.21864 -1.714,-3.19374z" stroke-linecap="butt"/><path d="M240.755,229.93031l-3.08797,-1.49323" stroke-linecap="round"/><path d="M233.32973,223.94074c1.20715,-1.02122 2.26017,-0.09612 3.30601,1.17328c1.04585,1.2694 1.34923,2.60669 0.48139,3.42367c-1.8401,1.73227 -2.66815,0.14859 -3.48709,-0.8454c-1.04586,-1.26941 -2.00509,-2.30931 -0.3003,-3.75153z" stroke-linecap="butt"/><path d="M233.82966,224.99133l-2.16219,-2.69279" stroke-linecap="round"/><path d="M227.87561,217.22821c1.20714,-1.0212 2.26017,-0.09612 3.30601,1.17328c1.04586,1.2694 1.34923,2.60669 0.48139,3.42368c-1.84008,1.73226 -2.66815,0.14858 -3.48709,-0.84541c-1.04585,-1.2694 -2.00508,-2.30931 -0.30028,-3.75153z" stroke-linecap="butt"/><path d="M228.37557,218.2788l-2.1622,-2.6928" stroke-linecap="round"/></g><path d="M286.51565,273.71862c-3.55602,1.06918 -20.34858,2.80616 -21.73441,2.94752c-1.38581,0.14136 -2.72865,-0.73862 -3.92753,-1.76911c-1.19887,-1.03048 -1.81145,-2.61446 -1.99397,-3.32062c-0.54761,-2.11851 -2.23521,-11.46354 -3.72804,-19.91398c-0.23092,-1.30708 0.63748,-3.5124 0.63748,-3.5124c0,0 1.48441,-1.29505 2.44261,-1.42692c10.5717,-1.45505 20.50363,-3.56005 24.6071,-3.06122c1.36783,0.16627 3.96284,0.99341 3.96284,0.99341c0,0 1.05188,2.82469 1.28554,3.55653c0.07788,0.24396 0.12252,0.38117 0.1835,0.6287c1.82747,7.41708 3.01838,16.12273 3.27022,19.18487c0.08393,1.02071 -1.01839,2.77891 -1.01839,2.77891c0,0 -0.73696,1.93717 -3.98694,2.91431z" fill="#ffffff" stroke="#2f3bd4" stroke-width="2.5" stroke-linecap="round"/><g data-paper-data="{&quot;index&quot;:null}"><g stroke="#2f3bd4" stroke-width="3" stroke-linecap="round"><path d="M196.39913,253.45667l15.91634,-23.97756c0,0 3.10095,-4.5124 4.3227,-4.48061c3.66527,0.09535 9.4806,3.3753 16.01415,5.61054c1.08599,0.37153 -0.65721,5.60277 -0.65721,5.60277c0,0 -3.16166,8.12572 -5.18527,13.32659c-3.08177,7.92042 -7.89664,20.2951 -7.89664,20.2951c0,0 -2.22438,6.4022 -4.16031,5.58183c0,0 -10.58256,0.06584 -24.92182,-9.27186c0.79199,-4.17882 6.56807,-12.68678 6.56807,-12.68678z" data-paper-data="{&quot;origPos&quot;:null}" fill="#ffffff"/><path d="M195.64954,255.27607l24.84254,9.70859l-1.43542,2.86846l-24.91216,-9.47868z" data-paper-data="{&quot;origPos&quot;:null}" fill="none"/></g><path d="M196.55262,255.15833l19.78724,-29.80473l15.29352,5.95043l0.95146,1.03991l-11.68884,32.3338z" fill="#ffffff" stroke="#2f3bd4" stroke-width="1" stroke-linecap="round"/><path d="M194.53935,258.04631l0.99591,-1.96081l24.74157,9.44516l-0.99589,1.96082z" fill="#ffffff" stroke="none" stroke-width="0" stroke-linecap="butt"/></g><g data-paper-data="{&quot;index&quot;:null}"><path d="M256.63286,266.52518c1.11377,-2.02711 -0.76699,-7.42012 1.40448,-6.52334c1.10606,0.45681 21.12296,9.14055 21.79002,10.15404c0.64249,0.97622 0.79668,2.04844 0.25023,3.043c-0.37181,0.67665 -1.32093,1.56178 -2.25765,1.96397c-1.86953,0.80269 -24.22612,-3.33391 -25.67276,-3.93135c-2.17147,-0.89679 3.37191,-2.67923 4.48571,-4.70634z" fill="#0091d4" stroke="#000000" stroke-width="1.5" stroke-linecap="butt"/><g stroke-linecap="butt"><path d="M249.4599,263.54013c2.01791,-3.67266 5.92125,-5.7135 8.71833,-4.55833c2.79708,1.15515 3.42877,5.06886 1.41088,8.74152c-2.01792,3.67265 -5.92127,5.71351 -8.71838,4.55835c-2.79708,-1.15515 -3.42876,-5.06886 -1.41084,-8.74151z" fill="#0091d4" stroke="#000000" stroke-width="1.5"/><path d="M256.63906,269.95704c0,0 -1.12854,1.22602 -2.88711,1.73929c-0.84293,0.23403 -2.94834,0.08916 -2.94834,0.08916l3.18472,-2.35432z" fill="#00aeff" stroke="none" stroke-width="0"/><path d="M258.83415,267.29444l-0.9321,1.58468c0,0 -0.83981,-0.06779 -1.25627,-0.21203c-0.35567,-0.12318 -1.28623,-0.62148 -1.28623,-0.62148l1.02785,-1.21509z" fill="#00aeff" stroke="none" stroke-width="0"/></g><g><path d="M255.71007,266.00821c-2.78378,5.06652 -9.64973,8.54434 -15.49364,6.13093c-5.84394,-2.41345 -8.01105,-7.71052 -5.22729,-12.777c2.78378,-5.06652 9.92053,-7.47687 15.76446,-5.06345c5.84394,2.41345 7.74023,6.64302 4.95648,11.7095z" fill="#00699a" stroke="#000000" stroke-width="1.5" stroke-linecap="butt"/><path d="M234.86121,261.41731c0,0 2.0599,-0.66324 5.03067,-1.37613c2.96354,-0.71115 6.81177,-0.71208 9.36514,0.3424c5.11299,2.11158 6.28451,4.20153 4.26194,7.8827c-0.98399,1.7909 -3.01431,2.99374 -5.17919,3.4345c-3.03861,0.61866 -6.71618,0.60138 -9.6156,-0.59605c-5.11299,-2.11158 -3.86295,-9.68743 -3.86295,-9.68743z" fill="#0091d4" stroke="none" stroke-width="0" stroke-linecap="butt"/><path d="M250.68105,255.30981c0,0 2.08826,4.15951 -1.40086,9.96742c-3.46078,5.76071 -8.84443,6.60578 -8.84443,6.60578" fill="none" stroke="#000000" stroke-width="0.8" stroke-linecap="round"/><path d="M255.47579,258.89503c0,0 0.86815,2.92543 -3.00356,7.89193c-2.68659,3.44626 -6.81293,5.95688 -6.81293,5.95688" fill="none" stroke="#000000" stroke-width="0.75" stroke-linecap="round"/><path d="M247.67133,254.43727c0,0 1.0816,2.53793 -2.61064,7.92144c-3.83881,5.59719 -8.70953,6.84972 -8.70953,6.84972" fill="none" stroke="#000000" stroke-width="0.8" stroke-linecap="round"/><path d="M234.41417,266.12432c0,0 2.08105,-3.89092 5.27293,-7.16418c2.42331,-2.48512 6.62174,-5.02382 6.62174,-5.02382" fill="none" stroke="#000000" stroke-width="0.8" stroke-linecap="round"/><path d="M238.31262,256.43702c0,0 3.90745,-1.41125 9.54341,1.16321c6.03956,2.75884 8.15797,6.1471 8.15797,6.1471" fill="none" stroke="#000000" stroke-width="0.8" stroke-linecap="round"/><path d="M254.95779,266.70651c0,0 -3.22615,-1.11181 -5.04214,-1.97412c-1.52896,-0.72603 -4.17581,-2.58603 -6.85675,-3.95701c-3.04857,-1.55896 -6.05939,-2.59646 -6.05939,-2.59646" fill="none" stroke="#000000" stroke-width="0.8" stroke-linecap="round"/><path d="M253.56999,268.97314c0,0 -5.1078,0.30704 -11.31902,-2.44662c-3.95735,-1.75445 -7.0455,-6.24878 -7.0455,-6.24878" fill="none" stroke="#000000" stroke-width="0.8" stroke-linecap="round"/><path d="M248.8378,272.14273c0,0 -3.76619,0.00854 -9.03372,-3.17518c-3.65789,-2.21087 -5.73774,-5.5797 -5.73774,-5.5797" fill="none" stroke="#000000" stroke-width="0.8" stroke-linecap="round"/><path d="M239.85006,270.09779c-0.1985,0.36125 -0.74916,0.49317 -1.22996,0.29458c-0.4808,-0.19854 -0.70963,-0.65239 -0.51115,-1.01366c0.1985,-0.36125 0.74916,-0.49317 1.22995,-0.29459c0.4808,0.19854 0.70964,0.65239 0.51117,1.01366z" fill="#00aeff" stroke="none" stroke-width="0" stroke-linecap="butt"/><path d="M237.00085,268.02599c-0.1145,0.20841 -0.40222,0.29689 -0.64262,0.19761c-0.24038,-0.09926 -0.34245,-0.3487 -0.22793,-0.55713c0.1145,-0.20841 0.40222,-0.29689 0.64262,-0.19762c0.24038,0.09926 0.34245,0.34871 0.22795,0.55713z" fill="#00aeff" stroke="none" stroke-width="0" stroke-linecap="butt"/></g></g><g><g stroke="#2f3bd4" stroke-width="2.5" stroke-linecap="round"><path d="M225.5514,188.56646c1.90581,-4.49728 5.51656,-5.46672 5.51656,-5.46672c0,0 3.2899,-1.4835 5.17857,-1.33666c5.66607,0.44057 21.76069,2.35456 35.44922,5.11719c0.45684,0.0922 0.70974,0.1584 1.15946,0.274c1.34908,0.3469 6.55171,1.89466 6.55171,1.89466c0,0 1.45633,3.63809 1.72425,5.54782c0.80378,5.72918 -3.38779,19.49868 -6.39395,34.17823c-0.27244,1.33051 -2.71543,3.35973 -2.71543,3.35973c0,0 -4.11147,1.14462 -6.52641,0.78468c-15.61291,-2.32697 -32.87761,-4.95139 -36.78665,-5.77617c-1.30301,-0.2749 -4.21979,-1.17446 -6.09384,-2.87427c-1.87408,-1.6998 -3.46508,-3.59569 -3.1625,-5.52142c0.30257,-1.92577 4.01366,-25.2603 6.09897,-30.18107z" data-paper-data="{&quot;index&quot;:null}" fill="#ffffff"/><path d="M227.09726,182.43815c1.90581,-4.49728 5.51653,-5.46669 5.51653,-5.46669c0,0 3.2899,-1.4835 5.17861,-1.33663c5.6661,0.44057 21.76069,2.35452 35.44922,5.11719c0.45684,0.09218 0.70974,0.1584 1.15946,0.274c1.34908,0.3469 6.55171,1.89466 6.55171,1.89466c0,0 1.45633,3.63809 1.72425,5.54782c0.80378,5.72918 -3.38779,19.49868 -6.3939,34.17824c-0.27244,1.33051 -2.7154,3.35969 -2.7154,3.35969c0,0 -4.11147,1.14465 -6.52641,0.78472c-15.61291,-2.32697 -32.87761,-4.95139 -36.78665,-5.77617c-1.30301,-0.27494 -4.21979,-1.17446 -6.09384,-2.8743c-1.87408,-1.6998 -3.46508,-3.59565 -3.16254,-5.52143c0.30254,-1.92575 4.01369,-25.2603 6.09897,-30.1811z" data-paper-data="{&quot;index&quot;:null}" fill="#2f3bd4"/></g><g data-paper-data="{&quot;index&quot;:null}" fill="none" stroke="none" stroke-width="1" stroke-linecap="butt" font-family="sans-serif" font-weight="normal" font-size="12" text-anchor="start"/><g data-paper-data="{&quot;index&quot;:null}" fill="none" stroke="none" stroke-width="1" stroke-linecap="butt" font-family="sans-serif" font-weight="normal" font-size="12" text-anchor="start"/></g><path d="M210.17891,277.94255c-3.75374,-0.23835 -19.96799,-4.40544 -21.30519,-4.75116c-1.33718,-0.34572 -2.16862,-1.61461 -2.79915,-2.97234c-0.63053,-1.35771 -0.46996,-3.02254 -0.31518,-3.73367c0.46427,-2.13341 3.18073,-11.29441 5.66766,-19.56703c0.38465,-1.27957 2.18894,-3.00683 2.18894,-3.00683c0,0 1.95443,-0.67993 2.89457,-0.47223c10.37267,2.29137 20.45454,3.76632 23.99518,5.63248c1.18022,0.62206 3.1857,2.2721 3.1857,2.2721c0,0 -0.32357,2.95497 -0.44309,3.70722c-0.03986,0.25076 -0.06151,0.39208 -0.1185,0.64033c-1.70786,7.43847 -4.58856,15.84187 -5.75523,18.74036c-0.38891,0.96615 -2.20388,2.20253 -2.20388,2.20253c0,0 -1.56114,1.52609 -4.99182,1.30823z" fill="#ffffff" stroke="#2f3bd4" stroke-width="2.5" stroke-linecap="round"/></g></g></svg>