<svg version="1.1" xmlns="http://www.w3.org/2000/svg" xmlns:xlink="http://www.w3.org/1999/xlink" width="69.24232" height="181.07187" viewBox="0,0,69.24232,181.07187"><g transform="translate(-199.25132,-92.06247)"><g data-paper-data="{&quot;isPaintingLayer&quot;:true}" fill-rule="nonzero" stroke-linejoin="miter" stroke-miterlimit="10" stroke-dasharray="" stroke-dashoffset="0" style="mix-blend-mode: normal"><g data-paper-data="{&quot;index&quot;:null}" stroke="#000000" stroke-linecap="round"><path d="M251.28037,158.15447c0,0 16.2316,-1.59725 16.21325,5.02736c-0.04977,17.98052 -28.27891,12.06568 -28.27891,12.06568z" data-paper-data="{&quot;origPos&quot;:null}" fill="#66c8ff" stroke-width="2"/><path d="M250.52631,159.66269c0,0 11.78117,-0.56333 12.44273,1.38252c0.20864,0.61371 -15.71052,2.51368 -15.71052,2.51368z" data-paper-data="{&quot;origPos&quot;:null}" fill="#0a0a0a" stroke-width="1"/></g><g data-paper-data="{&quot;index&quot;:null}"><g data-paper-data="{&quot;origRot&quot;:0,&quot;index&quot;:null}" stroke="#000000" stroke-width="3" stroke-linecap="round"><path d="M225.4855,216.70966c0,0 -24.93902,-3.98757 -24.73291,-6.5347c0.37164,-4.59265 4.10619,-14.56241 4.10619,-14.56241l11.02917,-28.0066c0,0 2.17415,-5.28522 3.31926,-5.41988c3.43531,-0.40396 9.38454,2.32247 15.83738,3.82519c1.07258,0.2498 0.27994,6.12104 0.27994,6.12104c0,0 -1.65477,9.18261 -2.7139,15.05994c-1.61297,8.9506 -4.13299,22.93478 -4.13299,22.93478c0,0 -1.05495,7.19806 -2.99216,6.58267z" data-paper-data="{&quot;origPos&quot;:null}" fill="#582700"/><path d="M203.33087,203.07018l24.06297,6.51731" fill="none"/><path d="M228.49197,206.44114l-24.0009,-6.74647" data-paper-data="{&quot;origPos&quot;:null}" fill="none"/></g><path d="M204.41367,198.96595l13.98129,-35.4837l1.41462,-0.32615l15.25446,4.18136l-6.3359,38.24228z" fill="#66c8ff" stroke="#000000" stroke-width="1" stroke-linecap="round"/><path d="M203.34544,202.90409l0.61686,-2.24801l24.5918,6.74799l-0.61684,2.248z" fill="#ffffff" stroke="none" stroke-width="0" stroke-linecap="butt"/></g><g data-paper-data="{&quot;origRot&quot;:0,&quot;index&quot;:null}" stroke="#000000" stroke-linecap="round"><path d="M244.52208,261.52776c0,0 0.71368,4.42452 -0.20317,6.59994c-0.70186,1.66537 -2.55059,2.18964 -4.31637,2.57439c-4.84686,1.05611 -9.59993,-0.53609 -17.31128,-0.81129c-2.10022,-0.07495 -3.17371,-3.20564 -2.96293,-5.2966c0.19715,-1.95568 0.65968,-5.34316 0.65968,-5.34316l4.05106,-32.85902c0,0 0.66336,-4.23706 2.41895,-4.93981c4.22774,-1.69233 8.6538,-0.08955 13.20672,-0.18403c1.54292,-0.03201 1.49883,4.76849 1.49883,4.76849z" data-paper-data="{&quot;origPos&quot;:null}" fill="#ff0000" stroke-width="3"/><path d="M220.27443,260.33262l23.3059,0.91625c0,0 1.05417,2.53171 0.95175,4.2169c-0.09721,1.59971 -1.46328,4.20029 -1.46328,4.20029c0,0 -8.45867,0.98077 -12.36159,0.96088c-5.08699,-0.02594 -11.01123,-2.68034 -11.01123,-2.68034z" data-paper-data="{&quot;origPos&quot;:null}" fill="#976e57" stroke-width="2"/><path d="M244.4391,261.84818c0,0 0.71367,4.42453 -0.20317,6.59994c-0.70186,1.66536 -2.55058,2.18963 -4.31636,2.57439c-4.84686,1.05611 -9.59993,-0.53609 -17.3113,-0.81129c-2.10022,-0.07495 -3.17371,-3.20564 -2.96293,-5.2966c0.19715,-1.95567 0.65968,-5.34317 0.65968,-5.34317l4.05105,-32.85901c0,0 0.66337,-4.23705 2.41895,-4.9398c4.22774,-1.69235 8.6538,-0.08957 13.20672,-0.18405c1.54292,-0.03201 1.49883,4.76848 1.49883,4.76848z" data-paper-data="{&quot;origPos&quot;:null}" fill="#4b4b4b" stroke-width="3"/></g><g data-paper-data="{&quot;index&quot;:null,&quot;origRot&quot;:0}" stroke="#000000" stroke-linecap="round"><path d="M225.31766,228.73191c0,0 -1.22602,-4.6415 0.27718,-4.99081c4.43571,-1.0307 8.33013,-3.67503 12.84457,-3.07703c1.87463,0.24833 3.56193,4.19112 3.56193,4.19112l12.02562,30.84657c0,0 1.28326,3.16896 1.95639,5.01568c0.71969,1.97449 0.45103,5.27317 -1.56593,5.86351c-7.40558,2.16751 -11.61954,4.8822 -16.57716,5.05339c-1.80614,0.06236 -3.72705,0.00999 -4.81775,-1.43099c-1.42476,-1.88229 -1.82374,-6.34622 -1.82374,-6.34622z" data-paper-data="{&quot;origPos&quot;:null}" fill="#ff0000" stroke-width="3"/><path d="M256.84108,263.95852c0,0 -5.08716,4.0328 -10.01077,5.31185c-3.77758,0.98133 -12.21702,2.11582 -12.21702,2.11582c0,0 -1.96494,-2.18361 -2.45347,-3.71c-0.51464,-1.60795 -0.11706,-4.32138 -0.11706,-4.32138l22.36091,-6.63275z" data-paper-data="{&quot;origPos&quot;:null}" fill="#976e57" stroke-width="2.5"/><path d="M231.35822,264.14725c0,0 -2.09886,-12.53546 -3.44221,-20.5588c-0.95182,-5.68475 -2.43889,-14.56645 -2.43889,-14.56645c0,0 -1.22603,-4.6415 0.27717,-4.99079c4.4357,-1.0307 8.33013,-3.67503 12.84457,-3.07703c1.87463,0.24833 3.56193,4.19112 3.56193,4.19112l12.02562,30.84657c0,0 1.28326,3.16896 1.95639,5.01568c0.71969,1.97449 0.45103,5.27317 -1.56592,5.86352c-7.40558,2.16751 -11.61954,4.8822 -16.57716,5.05339c-1.80614,0.06236 -3.72705,0.00998 -4.81775,-1.431c-1.42476,-1.88229 -1.82374,-6.34622 -1.82374,-6.34622z" data-paper-data="{&quot;origPos&quot;:null}" fill="#4b4b4b" stroke-width="1.5"/></g><g><path d="M249.98414,205.35935c0,0 0.22676,15.70186 -1.32277,16.0427c-4.64863,1.02252 -16.80411,0.65376 -27.19136,1.06507c-1.16687,0.0462 -0.66201,-14.88724 -0.66201,-14.88724l1.93105,-30.6135c0,0 1.22646,-13.54167 2.2961,-13.58403c6.91918,-0.27397 17.29232,-1.61256 21.78386,-0.15171c1.49719,0.48695 2.53286,14.81244 2.53286,14.81244z" data-paper-data="{&quot;origPos&quot;:null}" fill="#66c8ff" stroke="#000000" stroke-width="3.5" stroke-linecap="round"/><path d="M228.69966,192.3074c-1.29167,0 -1.29167,-3.125 -1.29167,-3.125c0,-6.48148 0,-15.04629 0,-21.52778c0,0 0,-3.125 1.29167,-3.125c1.29167,0 1.29166,3.125 1.29166,3.125c0,6.48148 0,12.96296 0,19.44445v2.08333c0,0 0,3.125 -1.29166,3.125z" fill="#ffffff" stroke="none" stroke-width="0.5" stroke-linecap="butt"/></g><g fill="none" stroke="#b9b9b9" stroke-width="3"><path d="M244.04547,168.47288c-0.56214,-1.35809 0.05834,-2.57767 0.8891,-3.7957c0.83076,-1.21801 1.66455,-1.58994 2.11936,-0.61516c0.96431,2.06682 -0.04741,3.04234 -0.69792,3.99608c-0.83077,1.21803 -1.51665,2.33277 -2.31054,0.41479z" stroke-linecap="butt"/><path d="M244.71408,167.88214l-1.75939,2.51944" stroke-linecap="round"/><path d="M240.54556,171.03091c0.83076,-1.21801 1.66455,-1.58994 2.11936,-0.61516c0.96431,2.06682 -0.04741,3.04234 -0.69792,3.99608c-0.83076,1.21802 -1.51665,2.33277 -2.31054,0.41479c-0.56214,-1.35809 0.05833,-2.57767 0.88909,-3.79571z" stroke-linecap="butt"/><path d="M240.32506,174.23586l-1.75938,2.51946" stroke-linecap="round"/><path d="M234.74644,176.30304c0.27217,-1.63508 1.18111,-1.48046 2.21353,-1.02164c1.03242,0.45883 1.69024,1.43557 1.52519,2.68318c-0.34996,2.64527 -1.38136,1.77826 -2.18976,1.41899c-1.03242,-0.45882 -1.93333,-0.77137 -1.54895,-3.08052z" stroke-linecap="butt"/><path d="M233.24434,175.9006l2.15972,1.00816" stroke-linecap="round"/><path d="M229.85564,171.92729c0.60662,-1.31672 1.40466,-0.52961 2.2492,0.62589c0.84455,1.1555 1.23302,2.52367 0.80918,3.55857c-0.89868,2.19428 -1.65303,0.66261 -2.31435,-0.24218c-0.84454,-1.15551 -1.60072,-2.08274 -0.74403,-3.94227z" stroke-linecap="butt"/><path d="M228.56891,170.49089l1.75614,2.46183" stroke-linecap="round"/><path d="M225.43763,165.80267c0.60662,-1.3167 1.40467,-0.52961 2.24921,0.62589c0.84455,1.1555 1.23302,2.52367 0.80917,3.55857c-0.89868,2.19427 -1.65303,0.66261 -2.31435,-0.24218c-0.84454,-1.1555 -1.60072,-2.08273 -0.74403,-3.94227z" stroke-linecap="butt"/><path d="M225.90705,166.82809l-1.75615,-2.46183" stroke-linecap="round"/></g><path d="M213.82251,158.05291c-0.45994,-3.22404 -1.545,-17.37122 -2.48313,-30.1607c-0.14512,-1.97822 1.24102,-5.18723 1.24102,-5.18723c0,0 2.0773,-1.7847 3.33512,-1.88387c13.87754,-1.09423 27.00232,-3.22583 32.26343,-2.06004c1.75371,0.38859 5.0204,1.891 5.0204,1.891c0,0 1.03037,4.33163 1.24695,5.44995c0.07219,0.37278 0.11385,0.58251 0.16371,0.95892c1.49392,11.27845 2.01048,24.41867 1.97557,29.02357c-0.01163,1.53496 -1.64824,4.05139 -1.64824,4.05139c0,0 -1.18405,2.82138 -5.51282,3.95008c-4.73642,1.23502 -16.44754,1.72049 -28.52572,2.18394c-1.81335,0.06957 -4.8831,-3.04739 -4.8831,-3.04739z" fill="#582700" stroke="#000000" stroke-width="2.5" stroke-linecap="round"/><path d="M218.69074,150.57375c-0.509,0.03735 -1.12591,-2.71763 -1.37793,-6.15336c-0.25202,-3.43572 -0.0437,-6.25121 0.46531,-6.28853c0.509,-0.03735 1.12593,2.71761 1.37794,6.15335c0.25202,3.43572 0.04369,6.25122 -0.46532,6.28855z" fill="none" stroke="#000000" stroke-width="2.5" stroke-linecap="butt"/><path d="M255.32726,122.76224l-0.75079,-0.46885c-0.09144,-0.02389 -0.1828,-0.04729 -0.27409,-0.07022c-0.19751,0.32686 -0.59994,0.72056 -1.3511,0.53228c-0.69231,-0.17353 -0.89024,-0.64327 -0.93266,-1.0144c-2.67002,-0.46197 -5.31728,-0.58288 -8.09026,-0.62453c-7.74534,0.14835 -15.4632,0.89731 -23.18675,1.48668c-2.53298,0.19328 -8.12469,1.64494 -10.3685,0.12437c-1.0943,-0.74157 -0.83757,-2.69716 -1.01785,-3.73959c-0.52239,-3.02071 -1.1309,-6.14303 -1.37577,-9.20091c-0.29334,-3.99898 -2.06063,-7.4554 -2.86295,-11.33843c-0.40223,-1.94669 -1.21846,-3.87232 0.41151,-5.70518c0.46023,-0.51752 1.35338,-0.30404 2.04028,-0.39232c2.51042,-0.32261 4.96262,-0.33561 7.47799,-0.2284c7.97119,0.33975 15.82157,0.2648 23.77563,1.09256c3.20893,0.33773 6.40456,0.16388 9.62785,0.02825c1.89439,-0.07971 3.57727,-0.74994 4.87116,1.32387c0.77269,1.23844 0.57696,5.26898 0.63528,6.75083c0.22487,5.71404 1.65329,12.64169 0.89108,18.46467c0.11974,0.02967 0.2396,0.06008 0.35957,0.09127l1.34485,0.70845c0,0 1.08981,0.61224 0.47758,1.70204c-0.61224,1.0898 -1.70204,0.47758 -1.70204,0.47758z" data-paper-data="{&quot;index&quot;:null}" fill="#000000" stroke="none" stroke-width="0.5" stroke-linecap="butt"/><path d="M229.43727,156.42475c-0.31623,0.94868 -1.26491,0.63246 -1.26491,0.63246l-0.11661,-0.06476c-2.18151,-0.22107 -4.12974,-0.69542 -6.34562,-0.4456c0,0 -0.99388,0.11043 -1.10432,-0.88345c-0.11043,-0.99388 0.88345,-1.10432 0.88345,-1.10432c2.3643,-0.25925 4.44159,0.21433 6.76549,0.44329l0.55006,0.15747c0,0 0.94868,0.31623 0.63246,1.26491z" fill="#000000" stroke="none" stroke-width="0.5" stroke-linecap="butt"/><path d="M224.38302,140.44463c-0.44721,0.89443 -1.34164,0.44721 -1.34164,0.44721l-0.97855,-0.49521c-0.85277,-0.54268 -2.50571,-1.2621 -3.74197,-2.08107c-0.59442,-0.24724 -1.21247,-0.53409 -1.90793,-0.85005l-0.97628,-0.4339c-0.36103,-0.15086 -0.61472,-0.50734 -0.61472,-0.92308c0,-0.55228 0.44772,-1 1,-1c0.11876,0 0.23269,0.0207 0.33837,0.0587l0.29702,0.09901c0.0764,0.02294 0.15285,0.04568 0.22932,0.06824c0.05542,0.00477 0.10955,0.01407 0.16201,0.02751l1.08372,0.25326l-0.00507,0.02171l0.0538,-0.00902c1.15004,0.39351 2.63549,0.45514 3.38291,1.14726c0.2005,0.07726 0.39999,0.15794 0.59829,0.24264l0.00514,-0.00943l0.10199,0.05563c0.02926,0.01274 0.0585,0.02558 0.08771,0.03851l0.01158,0.01565l0.02344,0.01279l0.00429,-0.00773l0.98254,0.54586c0.31636,0.16793 0.53182,0.50073 0.53182,0.88386c0,0.14165 -0.02945,0.27642 -0.08256,0.39852l0.30756,0.15149c0,0 0.89443,0.44721 0.44721,1.34164z" fill="#582700" stroke="none" stroke-width="0.5" stroke-linecap="butt"/><g data-paper-data="{&quot;index&quot;:null}"><g><path d="M249.00964,163.07399c0,0 8.81654,23.9722 4.01473,36.90529c-1.44701,3.89733 -13.26536,9.51307 -14.33316,9.74217c-4.61127,0.98933 -23.39092,-17.90709 -23.39092,-17.90709c0,0 -8.83292,-8.10114 -11.11288,-12.70923c11.12031,-15.25248 21.7958,-18.43144 21.7958,-18.43144c1.6576,-1.54802 6.16826,5.20085 6.16826,5.20085l14.01027,18.83475l-2.16901,-2.80751c0,0 -12.55968,-16.73949 -10.05657,-16.78759c2.30307,-0.04427 15.55191,-5.22019 15.07347,-2.0402z" fill="#582700" stroke="#000000" stroke-width="2.5" stroke-linecap="round"/><path d="M242.42434,180.95291c-1.23099,1.24066 -2.64987,2.36284 -4.06519,3.30188c-3.63986,3.04539 -7.67283,6.31942 -11.66815,8.92682c-1.13976,0.74382 -2.24632,1.50997 -3.36352,2.28853c-0.37619,0.26216 -1.38779,0.71645 -1.7397,0.86856c1.30515,0.75417 2.50907,2.22297 3.92099,2.70846c0.16604,0.0571 0.45404,-0.03916 0.79218,-0.21314c0.92288,-0.85324 1.9875,-1.60168 2.45201,-2.0025c4.93493,-4.88023 10.744,-8.61439 15.89826,-13.20176c-0.24034,-0.55266 -1.16294,-1.43478 -1.23618,-1.5199c-0.33185,-0.3857 -0.66422,-0.76938 -0.99069,-1.15694zM241.47679,179.78262c-0.34935,-0.45436 -0.68295,-0.92127 -0.99143,-1.40937c0,0 -0.19146,-0.30366 -0.09938,-0.62326c-2.07931,-2.55004 -3.98699,-5.28624 -5.60389,-7.86217c-0.88485,-1.0539 -2.19843,-2.39248 -1.33205,-3.84449c0.62342,-1.04482 2.81715,-1.7 3.90721,-1.98662c3.49695,-0.91946 7.03708,-1.76534 10.53935,-2.60048c2.172,0.69976 1.82739,2.75646 2.18301,4.76454c0.77483,4.37526 1.67646,8.71689 2.44573,13.09469c0.96843,3.01783 0.97479,6.00118 1.57747,9.05224c0.8347,4.22567 1.3886,7.60622 0.05465,11.81087c-3.65293,4.58433 -11.35029,9.49317 -17.48377,8.457c-3.86269,0.41563 -6.73477,-2.78962 -9.47366,-5.03474c-0.45909,-0.37632 -2.33452,-1.46761 -2.47215,-1.9882c-0.09777,-0.36982 0.00168,-0.77209 0.22575,-1.18303c-1.54787,-0.53874 -2.93283,-2.10682 -4.31216,-2.92611c-1.37538,-2.19036 1.88346,-3.38179 3.72484,-4.6289c4.46898,-3.02671 8.99344,-6.35748 13.09422,-9.82081c1.39431,-0.9251 2.81343,-2.03639 4.01629,-3.27115zM228.49427,199.08742c-0.01743,0.01077 -0.03509,0.02186 -0.053,0.03324c-1.03699,0.9317 -2.29484,2.07321 -2.26639,2.09676c2.68325,2.22026 6.77276,6.26724 10.55014,5.91903c5.6647,0.95697 12.60584,-3.5645 16.1106,-7.66692c1.13488,-3.85291 0.55133,-6.93901 -0.20323,-10.8054c-0.59284,-3.03772 -0.60292,-5.98517 -1.56304,-8.98799c-0.78949,-4.4078 -1.68236,-8.78434 -2.46625,-13.19096c-0.10841,-0.60943 -0.32443,-3.55719 -0.70545,-3.52895c-3.5523,1.09101 -7.32933,1.49482 -10.83776,2.72585c-0.28816,0.10112 -2.62541,1.05884 -2.46072,1.44764c0.26777,0.63214 0.94953,1.34486 1.39431,1.87349c3.2578,5.14614 8.49702,9.15337 11.34598,14.42368c-0.2997,0.69167 -0.70683,1.37387 -1.27821,1.86555l-0.48501,0.59693c0,0 -0.07862,0.09595 -0.21095,0.17782c-1.68171,2.42894 -5.42339,4.38153 -7.42358,5.64248c-3.3498,2.20694 -5.98665,5.24161 -9.44747,7.37774z" fill="#000000" stroke="none" stroke-width="0.5" stroke-linecap="butt"/><path d="M238.39103,184.21628c1.41531,-0.93904 2.83712,-2.0586 4.06811,-3.29926c0.32647,0.38756 0.66278,0.77552 0.99463,1.16122c0.07323,0.08512 1.0001,0.97334 1.24044,1.526c-5.15425,4.58737 -11.03509,8.38795 -15.97002,13.26818c-0.4645,0.40081 -1.53222,1.14689 -2.4551,2.00013c-0.33814,0.17398 -0.62769,0.26891 -0.79374,0.21182c-1.41191,-0.48551 -2.62698,-1.9688 -3.93214,-2.72298c0.35192,-0.15211 1.36354,-0.60633 1.73973,-0.86849c1.1172,-0.77857 2.22225,-1.54791 3.36202,-2.29174c3.99533,-2.6074 8.1062,-5.9395 11.74605,-8.98489z" data-paper-data="{&quot;noHover&quot;:false,&quot;origItem&quot;:[&quot;Path&quot;,{&quot;applyMatrix&quot;:true,&quot;segments&quot;:[[[926.17844,407.1979],[3.2606,1.25965],[-0.27949,0.97418]],[[925.31465,410.11917],[0.29084,-0.97519],[-0.06418,0.21521]],[[924.29914,413.90358],[-0.01258,-1.20526],[13.15638,4.16543]],[[964.1057,425.02121],[-12.99513,-4.87922],[1.17537,0.35239]],[[970.21765,426.67451],[-2.3817,-0.804],[0.75941,0.04146]],[[971.83798,426.41666],[-0.25651,0.23985],[2.18115,-2.03947]],[[976.78433,418.26967],[-1.76682,2.44279],[-0.76669,0.00973]],[[972.89889,418.10481],[0.90089,0.17138],[-2.67549,-0.50896]],[[964.88923,416.67374],[2.68829,0.42712],[-9.42353,-1.49721]],[[936.29671,409.90591],[9.13228,2.58714],[-3.35077,-0.55846]]],&quot;closed&quot;:true}]}" fill="#ffffff" stroke="none" stroke-width="0.5" stroke-linecap="butt"/><path d="M229.80221,197.89452c4.53006,-4.47271 9.70223,-7.95224 14.52489,-12.03982c0.03845,0.049 0.18542,0.08741 0.2435,0.13501c0.5801,0.47538 0.95586,-0.09586 0.95586,-0.09586l0.48551,-0.59309c0.57139,-0.49168 0.98088,-1.16495 1.28059,-1.85661c-2.84897,-5.27031 -8.03266,-9.24555 -11.29046,-14.39168c-0.44478,-0.52864 -1.14633,-1.33933 -1.4141,-1.97148c-0.1647,-0.38879 2.17901,-1.34755 2.46717,-1.44867c3.50843,-1.23102 7.30782,-1.63185 10.86012,-2.72287c0.38101,-0.02825 0.60099,2.9212 0.7094,3.53063c0.78389,4.4066 1.69872,8.80366 2.4882,13.21145c0.96012,3.0028 0.97605,5.98282 1.56889,9.02054c0.75455,3.86639 1.32514,6.97884 0.19025,10.83175c-3.50476,4.10242 -10.48787,8.63928 -16.15257,7.68232c-3.77737,0.34822 -7.8942,-3.71078 -10.57745,-5.93105c-0.04706,-0.03894 3.48831,-3.21214 3.6602,-3.36055z" data-paper-data="{&quot;noHover&quot;:false,&quot;origItem&quot;:[&quot;Path&quot;,{&quot;applyMatrix&quot;:true,&quot;segments&quot;:[[[926.61254,417.73069],[12.14285,3.5238],[-0.03018,0.12086]],[[926.46822,418.11346],[0.06716,-0.13431],[-0.67082,1.34164]],[924.45576,418.78428],[[923.08279,418.0906],[0,0],[-1.44471,-0.43097]],[[919.22563,415.72869],[1.11205,1.01797],[0.89694,-11.9485]],[[928.15956,380.1298],[-1.74473,12.05571],[0.38029,-1.32836]],[[929.175,375.57071],[0.02742,1.37277],[-0.01686,-0.84429]],[[923.5003,374.93752],[0.60865,-0.05075],[-7.41054,0.61792]],[[901.48814,378.8123],[7.37628,-0.90935],[-0.71866,0.25961]],[[903.08234,385.83106],[-0.2998,-1.20115],[2.16779,8.68513]],[[909.35292,411.92731],[-2.15853,-8.69186],[0.69956,6.26621]],[[913.83986,429.61277],[-1.39861,-6.02998],[1.78014,7.67491]],[[922.29365,449.50563],[-5.21858,-6.1072],[9.74892,4.62723]],[[957.96755,450.34516],[-9.56021,6.37347],[7.18055,-2.44927]],[[972.39433,430.92276],[-3.08539,6.24485],[0.05411,-0.10951]],[[963.14745,427.86406],[0.43501,0.13058],[-11.92317,-4.46591]]],&quot;closed&quot;:true}]}" fill="#66c8ff" stroke="none" stroke-width="0.5" stroke-linecap="butt"/></g><g data-paper-data="{&quot;index&quot;:null}" fill="#fffc96" stroke="#000000" stroke-width="2" stroke-linecap="round"><path d="M253.74244,170.20608c0.71677,2.07131 -4.49939,6.60823 -10.66264,10.61673c-0.24723,-0.76517 -0.67691,-1.63779 -1.3189,-2.78589c5.20957,-3.58692 8.70852,-6.90831 8.70852,-6.90831l-0.39724,-1.82901c0,0 3.01312,-0.99252 3.67026,0.90649z"/><path d="M256.50547,183.29281c0.35915,2.00146 -6.03675,1.68192 -13.30809,0.28161c0.21995,-0.99138 0.19701,-1.80304 -0.13393,-2.80157c5.8855,1.15562 9.72412,1.27101 9.72412,1.27101l-0.25253,-1.35358c0,0 3.47472,-0.16001 3.97043,2.60254z" data-paper-data="{&quot;index&quot;:null}"/></g></g></g></g></svg>