<svg version="1.1" xmlns="http://www.w3.org/2000/svg" xmlns:xlink="http://www.w3.org/1999/xlink" width="198.39269" height="235.72471" viewBox="0,0,198.39269,235.72471"><g transform="translate(-113.64615,-32.60545)"><g data-paper-data="{&quot;isPaintingLayer&quot;:true}" fill-rule="nonzero" stroke-linejoin="miter" stroke-miterlimit="10" stroke-dasharray="" stroke-dashoffset="0" style="mix-blend-mode: normal"><g stroke="#000000" stroke-width="2"><g stroke-linecap="round"><path d="M267.29306,116.76833l23.51096,-11.0581l-3.83199,-7.49598l11.60168,-8.19586c0,0 0.05046,-5.05962 1.80934,-2.81922c3.64385,4.6414 12.44976,18.26119 10.33113,22.68446c-2.4989,4.73858 -12.44853,8.5475 -20.10214,11.59225c-10.13089,4.03026 -19.68491,5.85334 -22.82168,6.49764c-2.41501,0.49603 -7.42566,-0.40419 -5.97584,-6.16412c0.64064,-2.54526 4.39801,-4.55036 5.33972,-5.16713" fill="#493940"/><g><path d="M282.29432,88.23732l16.96272,-6.58678c0,0 5.64428,10.95057 9.22712,18.89842c0.17876,0.39658 -8.19541,9.01279 -17.38888,5.16534z" fill="#29181a"/><path d="M303.59326,104.37357l-10.00897,-20.1203" fill="none"/><path d="M287.10575,86.74266l9.61387,19.35318" fill="none"/></g></g><path d="M296.36956,93.67679c-5.31367,3.47904 -12.89116,1.30505 -16.92483,-4.85572c-4.03366,-6.16078 -2.38784,-16.57177 2.92582,-20.05081c5.31367,-3.47904 11.77132,4.93739 15.80497,11.09817c4.03366,6.16078 3.50769,10.32931 -1.80597,13.80834z" fill="#034aa0" stroke-linecap="butt"/></g><path d="M290.3851,129.89738l-1.6241,3.3156l-3.04476,-3.79063l7.58314,-5.09701l2.50445,11.07218z" data-paper-data="{&quot;index&quot;:null}" fill="#4ac2e4" stroke="#000000" stroke-width="1.5" stroke-linecap="butt"/><g><path d="M208.026,150.2498c0,0 -17.64438,1.12945 -28.97961,7.60945c-4.04907,2.31473 6.38798,13.93946 6.38798,13.93946l-13.68782,12.56029c0,0 -3.98473,0.95786 -5.93534,-1.11777c-6.98149,-7.42901 -9.65592,-18.22077 -5.80474,-26.9036c2.22615,-5.01903 7.74061,-9.26883 13.00148,-11.92402c9.73365,-4.91262 28.71338,-5.19699 28.71338,-5.19699" data-paper-data="{&quot;index&quot;:null}" fill="#493940" stroke="#000000" stroke-width="2" stroke-linecap="round"/><g data-paper-data="{&quot;index&quot;:null}" stroke="#000000" stroke-width="2" stroke-linecap="round"><path d="M180.94864,166.05773c3.98626,3.36522 11.42987,10.05 11.42987,10.05c0,0 -11.16064,-0.94796 -12.97674,1.25465c-1.68171,2.03963 2.45229,11.50967 2.45229,11.50967c0,0 -15.20765,-1.47746 -19.60227,-14.89987c-2.31637,-7.07484 12.63934,-13.02799 18.69681,-7.91446z" fill="#29181a"/><path d="M176.41899,182.8167l-11.56442,-13.75897" fill="none"/><path d="M187.1647,177.90699l-15.27784,-12.63498" fill="none"/></g><g><g><g data-paper-data="{&quot;index&quot;:null}" stroke-linecap="butt"><path d="M184.96046,194.97124c-1.53907,0.82102 -3.56264,0.84515 -5.07055,1.09836c-3.83897,0.64459 -7.05627,0.02527 -10.52061,-2.47955c-2.26995,-1.64124 -4.22102,-6.11857 -4.22102,-6.11857c0,0 -1.35186,-1.02265 -2.24052,-1.8503c-6.41124,-5.97095 -0.85937,-17.67336 6.80396,-14.80393c1.18936,-3.34508 5.89824,-5.04887 9.40452,-4.20719c1.83184,-7.83066 10.95408,-7.5869 14.86929,-6.08236c3.96567,1.52397 3.95997,5.47543 4.51412,9.23073c0.3968,2.68895 1.86497,5.97613 0.66711,7.95038c-0.92889,1.53099 -4.07306,3.0181 -6.16266,2.74146c0.05958,1.20858 -0.81367,1.71584 0.08995,1.50231c6.06821,0.18711 10.84101,4.79634 7.86057,9.41413c-1.73183,2.68326 -7.3049,2.49556 -10.62918,0.87771c-1.40914,0.51784 -4.84374,2.44874 -5.365,2.7268z" fill="#000000" stroke="none" stroke-width="0.5"/><path d="M172.59047,193.22785c-3.60307,-1.65647 -5.85172,-6.24133 -5.85172,-6.24133c0,0 2.05867,0.5297 3.31521,-0.01876c1.61019,-0.70281 2.63703,-2.12838 2.63703,-2.12838c0,0 1.53778,1.91434 4.57401,1.9683c1.5489,0.02755 3.75046,-0.34304 5.32667,-1.51105c0.69343,-0.51384 1.24777,-1.35442 1.70387,-2.03042c1.08293,-1.60508 -0.11096,-7.16277 -1.84441,-5.88058c-1.73344,1.2822 2.34034,6.96664 -3.88008,7.79014c-2.34193,0.47394 -3.82521,-0.87368 -4.63313,-2.1541c-0.61982,-0.9823 -0.66556,-1.86456 -1.46606,-2.22066c-0.05788,-0.02574 -0.11603,-0.05051 -0.17436,-0.07365c-0.093,-0.09802 -0.22993,-0.43636 -0.26518,-0.2863c-0.59843,2.54811 -0.85842,4.4503 -2.11337,5.04025c-1.24797,0.58667 -3.4888,-0.12921 -4.82282,-1.06924c-1.85742,-1.30888 -2.85605,-5.57062 -2.20443,-7.66203c1.02153,-3.27857 3.76795,-5.77461 7.61005,-3.50311c0,0 1.35991,-3.29732 3.25779,-4.01035c2.91859,-1.09656 6.86589,-0.14772 6.86589,-0.14772c0,0 0.80896,-3.74409 1.27366,-4.42455c2.02337,-2.96259 9.98912,-2.97818 12.24281,-1.25424c1.00436,0.76827 1.47612,5.17831 2.00583,8.40211c0.37433,2.27816 1.11016,3.42841 0.66693,4.71778c-0.36779,1.06992 -3.25004,1.56582 -4.6832,1.56779c-2.83802,0.25036 -3.2384,-0.97509 -3.98224,-2.291c-0.75474,-1.33517 -0.61109,-3.00895 -1.42856,-2.96681c-0.47218,0.02433 -0.80491,0.14518 -1.02043,0.33981c-0.84168,0.76002 0.10436,2.64513 1.5157,4.3009c0.70521,0.82733 1.52659,1.5974 2.29919,2.14124c-0.40398,2.05102 -0.31609,3.79031 1.01838,3.99043c3.15788,0.47358 7.77532,0.72619 8.39336,4.32758c0.92343,5.3811 -5.9052,2.42604 -9.60629,2.19972c0,0 -10.70931,5.8563 -16.73014,3.08828z" data-paper-data="{&quot;noHover&quot;:false,&quot;origItem&quot;:[&quot;Path&quot;,{&quot;applyMatrix&quot;:true,&quot;segments&quot;:[[[125.34693,572.28539],[0,0],[9.5542,-5.52752]],[[145.54599,551.07879],[11.14375,11.83056],[-10.91121,-11.58371]],[[107.57608,545.25957],[8.92382,23.60675],[-9.24736,2.75866]],[[90.51041,533.59623],[-7.75722,5.74017],[3.88909,-2.87784]],[[112.67488,537.77718],[-8,5.32104],[3.55223,-2.3627]],[[121.56111,526.31161],[0.8478,3.25941],[-1.02169,-3.92792]],[[112.17218,515.72545],[4.67659,5.03597],[-6.61787,-7.12642]],[[93.41811,498.19218],[3.75558,0.25364],[-8.42726,-0.56913]],[[65.29972,520.83032],[0.14573,-10.67857],[-0.03346,2.45263]],[69.30791,534.47925],[[52.53764,546.09621],[5.43661,-7.52196],[-3.5353,4.89133]],[[51.05266,561.36841],[0,0],[-13.26873,0.68565]],[[37.92637,582.55127],[-2.85957,-9.81424],[1.82415,6.26062]],[[54.54959,597.04786],[-6.76135,-0.19141],[0.48636,0.01376]],[[60.40089,595.84818],[-0.42349,1.56607],[13.81008,-4.46101]],[[66.51333,576.78502],[-7.92441,0],[0.45883,0]],[[67.78843,576.9226],[-0.39199,-0.09017],[0.18278,-0.03861]],[[68.34153,576.81785],[-0.18592,0.03133],[5.92404,-0.99864]],[[88.94775,574.78697],[-8.88942,8.88657],[14.07723,-12.27659]],[[86.57225,549.06928],[-2.19099,6.03276],[2.19099,-6.03276]],[[101.21156,563.65055],[0.04598,-5.76358],[-0.14966,18.76182]],[[73.9804,586.91918],[11.7383,0.37577],[-0.47154,-0.0151]],[[72.1505,586.94196],[0.72344,-0.02236],[-0.09676,2.96479]],[[71.1221,594.74753],[0.41982,-1.89247],[-0.76716,3.45832]],[67.36008,602.72239],[[89.01534,607.42214],[-11.66391,1.81815],[19.49071,-3.03818]]],&quot;closed&quot;:true}]}" fill="#034aa0" stroke="#034aa0" stroke-width="1"/></g><path d="M183.01911,177.848c0,0 2.26797,5.82025 -3.19231,7.59375c-5.14716,1.67179 -7.02938,-2.30982 -7.60097,-3.61673c-0.58732,-1.34289 -0.00044,0.38748 -0.47236,2.08083c-0.35168,1.2619 -1.48223,2.43788 -3.10201,2.65642c-4.27024,0.57613 -6.42719,-4.00592 -6.42719,-4.00592" fill="none" stroke="#000000" stroke-width="2" stroke-linecap="round"/></g><path d="M198.02958,177.52106c0,0 -3.02688,2.37143 -7.03384,1.49908c-1.81382,-0.39488 -3.26178,-1.99826 -3.93525,-3.34228c-0.53791,-1.07351 -0.47784,-1.98072 -0.47784,-1.98072" fill="none" stroke="#000000" stroke-width="2" stroke-linecap="round"/></g></g><path d="M223.52826,218.24673l-1.65938,1.22959c0,0 0.78689,0.5423 -3.72952,4.80925c-7.12283,6.72941 -21.66647,17.72615 -29.32534,12.39579c-1.02839,-0.71572 -1.60794,-2.01966 -1.28983,-3.02504c0.27692,-0.87523 1.00131,-3.12014 2.56934,-4.69402c9.06017,-9.09397 29.48658,-15.75718 29.48658,-15.75718z" data-paper-data="{&quot;index&quot;:null}" fill="#034aa0" stroke="#000000" stroke-width="2" stroke-linecap="round"/><g><path d="M254.91319,203.24774l22.52359,31.11695l-18.23487,0.02205l-16.86885,-24.98755z" fill="#030419" stroke="none" stroke-width="0" stroke-linecap="round"/><path d="M263.72553,214.82227c0,0 20.02305,27.35364 23.66607,36.87096c2.23229,5.83182 -2.6476,7.74533 -2.6476,7.74533c0,0 -8.07128,1.22593 -15.58013,0.37477c0.03477,-0.22563 0.062,-0.45431 0.08141,-0.6857c0.18908,-2.25495 -0.39757,-4.39315 -1.52509,-6.11525c0.00788,-0.07411 0.01497,-0.14855 0.02123,-0.22325c0.19698,-2.34914 -0.44794,-4.57157 -1.66917,-6.32884l0.27881,0.00089l-15.87282,-26.95447z" fill="#11132d" stroke="none" stroke-width="0" stroke-linecap="round"/><path d="M271.36312,240.13795c4.25386,-1.07102 7.86044,-3.20183 8.5972,-2.23213c2.9725,3.91221 5.85409,9.97854 7.17138,13.41996c0.41275,1.07828 0.58236,2.02263 0.58461,2.84568c-0.09534,-0.0837 -0.19482,-0.16368 -0.29877,-0.23969c-0.67562,-0.49402 -1.4378,-0.85932 -2.23305,-1.12005c-0.63373,-0.22645 -1.30227,3.10341 -1.99722,3.03726c-2.63305,-0.34038 -4.542,-0.70495 -6.4432,-0.60472c-4.07436,0.21482 -6.73752,-2.07408 -6.73752,-2.07408c0,0 -4.34928,-7.56463 -7.41729,-13.17296c0,0 4.50503,1.21552 8.77385,0.14072z" fill="#3e2b33" stroke="#000000" stroke-width="2" stroke-linecap="round"/><path d="M269.2895,251.57657l-23.61575,-38.8612l12.35764,-4.45926c0,0 6.39032,7.10803 12.07327,15.70314c5.42692,8.2079 13.84556,18.743 17.28709,27.73395c2.23229,5.83182 -2.64761,7.74532 -2.64761,7.74532c0,0 -8.07129,1.22591 -15.58014,0.37477" fill="none" stroke="#000000" stroke-width="2" stroke-linecap="round"/><path d="M265.03065,255.66486c1.14013,-0.81345 3.74151,-2.03982 3.74151,-2.03982c0,0 -0.03097,-2.76437 0.58528,-2.90585c0.62616,0.1053 1.13209,1.58125 1.8947,1.98185c1.51496,0.7958 3.33492,0.74194 4.16663,1.02827c1.48132,0.50993 4.01065,0.15526 5.7234,0.06491c0.11862,-0.00625 1.9969,-0.05292 3.43604,-0.75781c1.14918,-0.56288 1.86094,-1.825 2.32691,-1.77272l1.78207,6.94623c0,0 1.53412,4.46186 0.65873,5.78098c-0.87539,1.31911 -5.46803,1.53374 -6.97099,1.91787c-1.50296,0.38416 -12.41227,1.08605 -12.41227,1.08605c0,0 -3.25901,0.48447 -5.84132,-1.02456c-1.76881,-1.03363 -2.92294,-2.89883 -2.69538,-5.13956c0.22073,-2.17362 1.99094,-3.74017 3.98912,-5.16582z" fill="#034aa0" stroke="none" stroke-width="0" stroke-linecap="butt"/><path d="M266.51984,266.05192c0,0 -0.50053,-4.60709 2.16257,-6.81233" fill="none" stroke="#000000" stroke-width="2" stroke-linecap="round"/><path d="M274.68154,267.09665c0,0 -1.51367,-2.95204 1.44467,-7.30975" fill="none" stroke="#000000" stroke-width="2" stroke-linecap="round"/><path d="M287.24411,251.26931c0,0 3.41482,7.0718 1.62233,13.01087c-3.88726,1.64683 -8.9963,2.59987 -14.61993,2.96163c-1.45416,0.09355 -7.74422,0.48552 -10.32702,-1.03097c-1.76915,-1.03875 -2.92384,-2.91252 -2.69693,-5.16301c0.22011,-2.18309 3.72477,-6.27597 8.90828,-7.70722c0.02747,0.27011 -1.52267,-2.84676 -1.52267,-2.84676c0,0 1.89607,3.44348 8.02476,3.54692c5.67217,0.09573 10.16771,-3.05655 10.16771,-3.05655" fill="none" stroke="#000000" stroke-width="2" stroke-linecap="round"/><path d="M265.23229,233.18829c-3.51285,1.0206 1.57036,4.40413 1.57036,4.40413c0,0 -2.21056,0.06629 -4.39585,-0.63057c-0.90883,-0.28982 -1.99082,-0.19301 -2.62496,-1.11362c-1.6363,-2.37553 -1.83783,-3.28989 -3.26799,-6.43419c1.27168,-1.54147 0.68147,-5.94472 0.79838,-6.16298c0.33221,-0.62019 3.75483,6.6959 4.06142,6.07051c0.87137,-1.77756 1.54856,-3.62082 1.54856,-3.62082c0,0 0.82329,2.05805 -0.07553,4.83153c-0.34491,1.06432 2.3856,2.65605 2.3856,2.65605z" fill="#034aa0" stroke="#000000" stroke-width="1.5" stroke-linecap="butt"/></g><g><g data-paper-data="{&quot;index&quot;:null}"><g><path d="M237.71844,214.72835c0,0 7.52411,16.18969 7.8914,20.5102c0.38081,4.47949 -6.92737,14.26465 -6.92737,14.26465l0.27876,0.00565c-1.25729,1.72819 -1.94801,3.93493 -1.79967,6.28812c0.00472,0.07484 0.01026,0.14941 0.01661,0.22369c-1.16285,1.69521 -1.79359,3.81912 -1.6512,6.07797c0.01461,0.2318 0.03712,0.46105 0.06721,0.68744c-7.52464,0.67467 -15.5686,-0.74044 -15.5686,-0.74044c0,0 -4.83913,-2.02761 -2.48676,-7.8056c2.35237,-5.77799 12.22892,-17.22784 12.22892,-17.22784l-5.64714,-17.65731z" fill="#030419" stroke="none" stroke-width="0" stroke-linecap="round"/><path d="M241.80646,226.7075c3.73352,2.91232 3.63526,6.5527 3.80343,8.53104c0.38081,4.47949 -6.92737,14.26465 -6.92737,14.26465l0.27876,0.00565c-1.25729,1.72819 -1.94801,3.93493 -1.79967,6.28812c0.00472,0.07484 0.01026,0.14941 0.01661,0.22369c-1.16285,1.69521 -1.79359,3.81912 -1.6512,6.07797c0.01461,0.2318 0.03712,0.46105 0.06721,0.68744c-7.52463,0.67467 -15.56859,-0.74044 -15.56859,-0.74044c0,0 -4.83913,-2.02761 -2.48676,-7.8056c2.35237,-5.77798 12.22891,-17.22784 12.22891,-17.22784c0,0 -0.96043,-4.25225 -2.65466,-6.29945c0,0 9.99322,-7.67154 14.69334,-4.00521z" fill="#11132d" stroke="none" stroke-width="0" stroke-linecap="round"/><path d="M242.9183,243.44687c-1.87862,3.26647 -3.94682,6.03565 -3.94682,6.03565l-6.31987,6.8024c0,0 -2.60586,-1.80674 -10.90184,-0.93144c-0.69617,0.04981 -1.36766,0.18567 -2.00593,0.39719c-0.80046,0.242 -1.57001,0.58932 -2.25568,1.06735c-0.10548,0.07354 -0.2066,0.15116 -0.30366,0.2326c0.01927,-0.8228 0.20837,-1.76294 0.64333,-2.83127c1.38815,-3.40964 5.39644,-8.79437 8.44913,-12.63584c0.75663,-0.95214 3.19343,1.40549 7.54704,1.82094c3.91526,0.37362 9.87689,-1.31831 9.0943,0.04242z" fill="#3e2b33" stroke="#000000" stroke-width="2" stroke-linecap="round"/><path d="M235.59416,262.78605c-7.52464,0.67467 -15.56861,-0.74044 -15.56861,-0.74044c0,0 -4.83913,-2.02761 -2.48676,-7.8056c2.35237,-5.77799 12.22892,-17.22784 12.22892,-17.22784l-6.68661,-18.86578l14.5103,-1.613c0,0 7.65115,14.38464 8.01843,18.70515c0.38081,4.47949 -6.92737,14.26465 -6.92737,14.26465l0.27877,0.00565" fill="none" stroke="#000000" stroke-width="2" stroke-linecap="round"/><path d="M240.05333,254.55635c2.08336,1.27979 3.04067,3.6024 3.39762,5.75537c0.36798,2.21946 -0.66624,4.16285 -2.36606,5.32043c-2.48158,1.68998 -5.76374,1.43926 -5.76374,1.43926c0,0 -10.92893,0.07848 -12.45268,-0.19752c-1.52374,-0.27598 -6.11956,-0.16227 -7.07595,-1.41592c-0.95639,-1.25366 0.29364,-5.81502 0.29364,-5.81502l1.34117,-7.05784c0.46163,-0.08543 1.25118,1.12304 2.43318,1.60262c1.48023,0.60058 3.35722,0.51305 3.47598,0.51081c1.71457,-0.03212 4.26052,0.14119 5.70644,-0.47335c1.22051,-0.51874 2.25898,-0.24066 4.10503,-0.68793c1.10169,0.17162 4.16513,-0.66426 6.90535,1.01904z" fill="#034aa0" stroke="none" stroke-width="0" stroke-linecap="butt"/><path d="M238.82383,258.13594c2.79581,2.01018 2.58617,6.64264 2.58617,6.64264" fill="none" stroke="#000000" stroke-width="2" stroke-linecap="round"/><path d="M218.7034,252.82947c0,0 3.92766,2.37664 9.58105,1.87619c6.10841,-0.54071 9.41055,-3.77211 9.41055,-3.77211c0,0 -1.87654,2.68801 -1.86612,2.41654c5.26188,1.05799 7.48174,5.00127 7.83865,7.16373c0.36795,2.22924 -0.66629,4.18122 -2.36613,5.34394c-2.48161,1.69747 -5.76376,1.44569 -5.76376,1.44569c0,0 -15.26644,-0.22547 -19.24855,-1.59109c-2.16201,-5.79776 1.964,-12.97546 1.964,-12.97546" fill="none" stroke="#000000" stroke-width="2" stroke-linecap="round"/></g><path d="M218.90039,254.2401l6.72014,-7.36508l-0.79618,2.61669l6.96304,-5.86805l-6.16088,14.02661" fill="#034aa0" stroke="#000000" stroke-width="0" stroke-linecap="round"/><path d="M219.39484,253.24171l5.40907,-6.2307l0.16495,2.17786l7.10035,-5.72177l-4.97742,11.58337" fill="none" stroke="#000000" stroke-width="1.5" stroke-linecap="round"/></g><path d="M232.08279,258.93071c4.6871,4.32325 2.13498,8.39946 2.13498,8.39946" data-paper-data="{&quot;index&quot;:null}" fill="none" stroke="#000000" stroke-width="2" stroke-linecap="round"/></g><path d="M137.89667,118.4486c0,14.23027 -5.42866,25.76618 -12.12526,25.76618c-6.6966,0 -12.12526,-11.53591 -12.12526,-25.76618c0,-14.23027 5.42866,-25.76618 12.12526,-25.76618c6.6966,0 12.12526,11.53591 12.12526,25.76618z" fill="none" stroke="none" stroke-width="0" stroke-linecap="butt"/><g data-paper-data="{&quot;index&quot;:null}" stroke-linecap="round"><path d="M238.7051,149.2644l16.92748,43.22408c0,0 3.05941,-0.37114 6.06839,1.03238c2.51444,1.17286 4.96762,3.87814 5.818,6.29047c0.79963,2.26838 -0.01283,5.04957 -1.2853,7.14554c-1.7001,2.80033 -6.72937,5.03201 -6.72937,5.03201l-34.52788,7.88567c0,0 -7.2189,1.27572 -9.95803,-3.15329c-4.43525,-7.17148 1.95376,-14.73294 1.95376,-14.73294l-12.00749,-50.64724" fill="#493940" stroke="#000000" stroke-width="2"/><path d="M267.75531,201.99774c0.0309,0.89895 -0.26002,1.95832 -0.65388,3.00197c-0.45508,1.20588 -1.98625,2.91517 -3.38573,4.02695c-2.36624,1.87979 -4.86642,2.88004 -4.86642,2.88004c0,0 -14.66967,4.6377 -21.19153,6.10814c-5.53445,1.24778 -15.46586,2.15663 -15.46586,2.15663c0,0 -3.52988,-0.5449 -4.78633,-1.71447c-0.7406,-0.6894 -1.36651,-1.099 -1.75716,-1.80436c-1.05339,-1.90201 -1.40182,-5.58234 -1.40182,-5.58234l52.56802,-12.29829c0,0 0.87556,1.32987 0.9407,3.22576z" fill="#11132d" stroke="#11132d" stroke-width="1"/><path d="M250.52682,202.21868c0,0 1.8512,4.51558 -6.37549,6.39772c-7.89283,2.00014 -8.85757,-2.71539 -8.85757,-2.71539" fill="#43406f" stroke="#000000" stroke-width="2"/><path d="M240.95079,210.35972l0.59731,5.85099" fill="none" stroke="#000000" stroke-width="2"/><path d="M249.79634,214.09264l-1.6062,-5.96009" fill="none" stroke="#000000" stroke-width="2"/><path d="M203.51099,148.38577c0,0 6.03098,-3.43769 16.41588,-4.9205c10.3849,-1.4828 17.70755,0.86728 17.70755,0.86728l6.04028,19.19478l-35.74134,-2.12817z" fill="#29181a" stroke="#000000" stroke-width="2"/><path d="M223.95125,207.62329c9.33639,-2.21803 42.38398,-10.06913 42.38398,-10.06913c0,0 1.53521,2.50492 1.60035,4.40081c0.0309,0.89895 -0.26002,1.95832 -0.65388,3.00197c-1.22454,3.24476 -4.34036,6.10647 -8.30387,7.49001c-3.96352,1.38353 -21.65608,7.17934 -36.15992,7.95631c-5.26338,0.28196 -8.00936,-2.77193 -8.96977,-5.73415c-0.73242,-2.25902 -0.21823,-4.59379 -0.21823,-4.59379c0,0 5.71404,-1.35748 10.32134,-2.45202z" fill="none" stroke="#000000" stroke-width="2"/></g><path d="M224.28408,61.45516c0,0 2.59138,-10.01477 8.49862,-17.85616c4.77416,-6.33733 12.21417,-11.67899 20.37564,-9.49678c17.42043,4.65787 25.87944,37.35483 25.87944,37.35483" data-paper-data="{&quot;index&quot;:null}" fill="#034aa0" stroke="#000000" stroke-width="2" stroke-linecap="round"/><path d="M177.51949,101.43543c0,0 -15.03862,-30.24048 -4.93305,-45.17512c4.73447,-6.99689 13.85473,-7.83802 21.61397,-6.18001c9.60073,2.05151 18.12127,7.91768 18.12127,7.91768" data-paper-data="{&quot;index&quot;:null}" fill="#034aa0" stroke="#000000" stroke-width="2" stroke-linecap="round"/><g stroke="#000000"><g><path d="M306.49809,120.30416c2.18534,4.80726 2.49423,9.60008 1.65711,14.72847c-0.70653,4.3285 -2.07976,9.00267 -5.34656,13.04562c-4.22164,5.22467 -9.6003,10.04645 -16.98085,11.90622c-15.82378,3.98731 -36.42668,1.18147 -36.42668,1.18147l-30.12997,-4.94466c0,0 -10.19193,-2.878 -16.08492,-5.93563c-6.63058,-3.44034 -13.09246,-10.67557 -16.80748,-15.83332c-1.59043,-2.20803 -3.29848,-4.86373 -4.50508,-7.69217c-2.04449,-4.79257 -3.17729,-10.16394 -3.69704,-15.29587c-1.17274,-11.57907 1.06819,-21.89336 1.06819,-21.89336c0,0 3.05506,-15.98833 17.32726,-26.30156c5.13945,-3.71382 12.06066,-7.11647 19.30926,-9.03867c11.00679,-2.52921 22.36703,-3.12532 30.78349,-1.80585c6.17616,0.96824 14.60449,2.53132 22.26653,6.32956c7.67917,3.80673 14.58935,9.85361 18.40216,15.26082c10.74707,15.24132 6.26629,33.19414 6.26629,33.19414c0,0 9.19946,4.95817 12.89838,13.09482z" fill="#034aa0" stroke-width="2" stroke-linecap="round"/><path d="M291.65703,157.82053l-7.7811,-10.64944l0.55086,-0.40247l7.78108,10.64945z" fill="#000000" stroke-width="1.5" stroke-linecap="butt"/><path d="M303.26448,146.83979l-8.01801,-8.44811l0.65432,-0.59254l8.018,8.44812z" fill="#000000" stroke-width="1.5" stroke-linecap="butt"/></g><path d="M198.16837,146.28392l9.02332,-9.61955l0.49757,0.46671l-9.02332,9.61955z" data-paper-data="{&quot;index&quot;:null}" fill="#000000" stroke-width="1.5" stroke-linecap="butt"/><path d="M187.51253,136.23091l9.93798,-8.67136l0.44851,0.51404l-9.93797,8.67134z" data-paper-data="{&quot;index&quot;:null}" fill="#000000" stroke-width="1.5" stroke-linecap="butt"/><path d="M180.44045,122.90639l9.1547,-5.47659l0.28328,0.47351l-9.15471,5.47658z" data-paper-data="{&quot;index&quot;:null}" fill="#000000" stroke-width="1.5" stroke-linecap="butt"/></g><path d="M225.36688,49.56774c4.19292,-10.16804 7.69817,-7.06001 7.69817,-7.06001" data-paper-data="{&quot;index&quot;:null}" fill="none" stroke="#000000" stroke-width="7.5" stroke-linecap="round"/><path d="M246.29337,42.74021c0,0 3.04542,-3.55978 8.59445,5.93642" data-paper-data="{&quot;index&quot;:null}" fill="none" stroke="#000000" stroke-width="7.5" stroke-linecap="round"/><path d="M197.87103,115.51871c0,0 -2.63012,-6.14959 -1.80868,-12.9107" fill="none" stroke="#000000" stroke-width="2" stroke-linecap="round"/><path d="M293.2563,112.26125c-0.10884,3.29177 -0.34911,4.67458 -0.94358,6.48345c-0.75189,2.28784 -1.87708,4.56411 -1.87708,4.56411" data-paper-data="{&quot;index&quot;:null}" fill="none" stroke="#000000" stroke-width="2" stroke-linecap="round"/><g stroke-opacity="0.48387" stroke="#f9fbff" stroke-linecap="butt"><path d="M270.38419,132.35629c-0.39282,6.83532 -10.91142,24.59662 -21.64365,34.30542c-5.82852,5.27269 -11.76711,6.70977 -16.07314,6.07809c-25.24932,-3.70389 -22.20962,-57.23306 -10.19956,-58.28995c7.28762,-0.62894 16.85628,8.98344 27.36049,12.01157c9.8853,2.84968 20.95925,-1.12493 20.55585,5.89489z" fill="#f9fbff" stroke-width="2.5"/><g fill="none" stroke-width="6.5"><path d="M270.38419,132.35629c-0.39282,6.83532 -10.91142,24.59662 -21.64365,34.30542c-5.82852,5.27269 -11.76711,6.70977 -16.07314,6.07809c-25.24932,-3.70389 -22.20962,-57.23306 -10.19956,-58.28995c7.28762,-0.62894 16.85628,8.98344 27.36049,12.01157c9.8853,2.84968 20.95925,-1.12493 20.55585,5.89489z"/></g></g><g stroke-linecap="butt"><path d="M215.19818,126.8751c-12.032,-4.54225 -17.5861,-17.93256 -13.06544,-31.15114c4.52065,-13.2186 17.40423,-21.25991 29.43622,-16.71766c12.032,4.54224 17.19411,19.54576 12.67346,32.76436c-4.52065,13.2186 -17.01222,19.64666 -29.04421,15.10444z" fill="#ffffff" stroke="#f9fbff" stroke-width="2"/><path d="M215.19818,126.70844c-12.032,-4.54225 -17.5861,-17.93256 -13.06544,-31.15114c4.52065,-13.2186 17.40423,-21.25991 29.43622,-16.71766c12.032,4.54224 17.19411,19.54576 12.67346,32.76436c-4.52065,13.2186 -17.01222,19.64666 -29.04421,15.10444z" fill="none" stroke-opacity="0.43548" stroke="#f9fbff" stroke-width="7.5"/><path d="M215.19817,126.70843c-12.032,-4.54225 -17.5861,-17.93256 -13.06544,-31.15114c4.52065,-13.2186 17.40423,-21.25991 29.43622,-16.71766c12.032,4.54224 17.19411,19.54576 12.67346,32.76436c-4.52065,13.2186 -17.01222,19.64666 -29.04421,15.10444z" fill="none" stroke-opacity="0.43548" stroke="#f9fbff" stroke-width="5"/></g><g data-paper-data="{&quot;index&quot;:null}" stroke-linecap="butt"><path d="M277.25795,131.54177c-9.81835,4.54222 -20.01174,-1.88584 -23.70068,-15.10444c-3.68894,-13.2186 0.52344,-28.22212 10.34181,-32.76436c9.81835,-4.54225 20.33162,3.49906 24.02057,16.71766c3.68895,13.21858 -0.84331,26.60889 -10.66167,31.15114z" fill="#ffffff" stroke="#f9fbff" stroke-width="2"/><path d="M277.25795,131.37511c-9.81835,4.54222 -20.01174,-1.88584 -23.70068,-15.10444c-3.68894,-13.2186 0.52344,-28.22212 10.34181,-32.76436c9.81835,-4.54225 20.33162,3.49906 24.02057,16.71766c3.68895,13.21858 -0.84331,26.60889 -10.66167,31.15114z" fill="none" stroke-opacity="0.43548" stroke="#f9fbff" stroke-width="7.5"/><path d="M277.25796,131.37509c-9.81835,4.54222 -20.01174,-1.88584 -23.70068,-15.10444c-3.68894,-13.2186 0.52344,-28.22212 10.34181,-32.76436c9.81835,-4.54225 20.33162,3.49906 24.02057,16.71766c3.68895,13.21858 -0.84331,26.60889 -10.66167,31.15114z" fill="none" stroke-opacity="0.43548" stroke="#f9fbff" stroke-width="5"/></g><g data-paper-data="{&quot;index&quot;:null}"><g><path d="M271.82227,128.44359c5.86568,2.49913 6.61701,4.68877 6.7008,5.99325c0.15621,2.43173 -5.657,2.14511 -10.78733,1.68721c-7.2151,-0.644 -11.92127,-3.3189 -16.36033,-5.40632c-6.69954,-3.15045 -9.15035,-4.54725 -14.9485,-9.30312c-6.1248,-5.0238 10.06042,0.32838 17.63081,2.03717c5.90588,1.33306 17.76456,4.99178 17.76456,4.99178z" fill="#6273b7" stroke="none" stroke-width="0" stroke-linecap="round"/><path d="M267.28385,126.89953c0.06479,0.80548 -3.21212,2.61759 -4.30494,2.53879c-1.09287,-0.07879 -7.3041,-4.66901 -7.36891,-5.47451c-0.05718,-0.7107 4.51253,0.62899 6.38138,1.27515z" fill="#470f10" stroke="none" stroke-width="0" stroke-linecap="butt"/><path d="M267.98825,127.15949c-1.94748,1.50465 -5.55205,2.43769 -5.55205,2.43769c0,0 -2.33013,-1.64758 -3.69098,-2.60982c-1.68376,-1.19056 -5.1207,-3.67135 -5.1207,-3.67135" fill="none" stroke="#000000" stroke-width="2" stroke-linecap="round"/><path d="M278.84169,132.93754c-0.23234,2.41334 -5.31592,3.60834 -12.24943,2.6837c-8.22209,-1.09649 -15.48554,-3.92849 -20.78038,-6.75039c-5.54231,-2.95379 -10.68158,-7.69648 -10.75188,-8.62636c-0.09928,-1.31274 5.76622,0.44619 13.91137,1.82175c7.2432,1.22323 30.2625,6.79854 29.87037,10.87131z" fill="none" stroke="#000000" stroke-width="2" stroke-linecap="round"/></g><path d="M262.10192,129.54724c0,0 0.39461,2.76909 -1.45469,4.24516" fill="none" stroke="#000000" stroke-width="2" stroke-linecap="round"/></g><path d="M202.72443,107.65321c0.43614,0.26769 0.69613,0.57968 0.69613,0.57968l1.7996,2.17456c1.35755,2.44452 3.34076,4.30093 5.16848,6.45456c0.70381,0.82931 1.92578,1.3202 2.25766,2.35604c0.0624,0.19477 0.11633,0.39125 0.16299,0.58918l0.08529,-0.02559l0.9833,3.27768c0.07928,0.24372 0.12213,0.50387 0.12213,0.77403c0,1.38071 -1.11929,2.5 -2.5,2.5c-0.32934,0 -0.64381,-0.06368 -0.93176,-0.17941l-2.61272,-0.97977l0.08041,-0.21442l-0.64992,-0.08796c-3.10344,-3.53499 -8.26529,-6.69273 -9.33496,-11.53578c-0.45038,-2.03917 -0.16219,-4.17615 -0.37198,-6.25391c0,0 -0.24876,-2.48759 2.23883,-2.73635c2.48759,-0.24876 2.73635,2.23883 2.73635,2.23883c0.03519,0.35512 0.0566,0.71152 0.07017,1.06862z" fill="#000000" stroke="none" stroke-width="0.5" stroke-linecap="butt"/><path d="M289.04863,116.59728c2.23607,-1.11803 3.3541,1.11803 3.3541,1.11803l0.59727,1.7847c-0.09846,7.63949 -5.11645,10.14645 -11.30287,13.52807c0,0 -2.19474,1.19713 -3.39187,-0.99761c-1.19713,-2.19474 0.99761,-3.39187 0.99761,-3.39187c4.33115,-2.35705 8.79353,-3.80235 8.69713,-9.13859l-0.0694,0.45137c0,0 -1.11803,-2.23607 1.11803,-3.3541z" fill="#000000" stroke="none" stroke-width="0.5" stroke-linecap="butt"/><path d="M223.59431,175.69131l-0.65369,-1.63423l0.03625,-0.0145l-0.07322,-0.08873c-0.39823,-1.65429 -0.51146,-3.5478 -0.96517,-5.22235c-1.63665,-3.21743 -4.60351,-5.25325 -5.99785,-8.67441l-0.0676,-0.20128c-0.36827,-0.66201 -0.68801,-1.3331 -0.96925,-2.01321c-0.21965,-0.12949 -0.43617,-0.25403 -0.64798,-0.37357c0,0 -1.30237,-0.7442 -0.55815,-2.04657c0.08101,-0.14175 0.16862,-0.25927 0.26045,-0.35613c-0.37369,-1.3407 -0.65651,-2.71385 -0.91774,-4.11911c0,0 -0.03418,-0.18797 -0.03167,-0.46943l-0.11808,-0.27552c-0.1438,-0.31554 -0.22391,-0.66621 -0.22391,-1.0356c0,-1.38071 1.11929,-2.5 2.5,-2.5c0.77872,0 1.47428,0.35604 1.93278,0.91421l1.65444,1.98533l-0.14997,0.12497l0.39052,0.21866c0.1532,0.39628 0.3064,0.79257 0.45961,1.18885c1.47059,1.46595 2.12358,3.86293 3.39065,5.58325c0.95826,1.30105 2.08572,2.54299 3.1228,3.84383l-0.00002,0.00001c0.74077,0.56279 1.51888,1.00513 2.32307,1.26919c3.26747,1.07288 7.31676,-0.76382 10.27788,-1.94825c2.17623,-0.87048 5.19717,-2.40969 7.498,-2.72618c1.82159,-0.25057 4.32326,-1.47329 5.51575,-0.07366c3.18448,3.73763 -0.70867,6.88217 -2.64776,8.88757c-0.29925,0.30949 -4.13724,4.13888 -4.30599,4.26034c-3.11903,2.24481 -6.58467,3.13803 -8.71219,6.61356c0.14272,3.38113 1.13127,8.42594 -1.7272,11.16135c-1.49219,1.42795 -3.18568,3.48067 -5.24325,3.30145c-1.62738,-0.14175 -2.10687,-2.53715 -2.82527,-4.00425c-0.29738,-0.6073 -1.37416,-6.7015 -1.42899,-7.08182c-0.17851,-1.23804 -0.31876,-2.49111 -0.4802,-3.74222c-0.28078,-0.17389 -0.49991,-0.43785 -0.61704,-0.75154z" fill="#000000" stroke="none" stroke-width="0.5" stroke-linecap="butt"/><path d="M199.83334,106.16668c0,0 2.06742,100.30389 -14.53755,109.96458c-16.64536,9.68419 -21.79578,-35.29791 -21.79578,-35.29791" fill="none" stroke="#000000" stroke-width="6.5" stroke-linecap="round"/><path d="M212.5,124.83335c0,0 1.4253,44.55945 0.4065,69.98958c-0.97754,24.40033 -11.51211,24.37474 -16.94405,19.30834c-7.38753,-6.89039 -9.79578,-37.29791 -9.79578,-37.29791" fill="none" stroke="#000000" stroke-width="6.5" stroke-linecap="round"/></g></g></svg>