<svg version="1.1" xmlns="http://www.w3.org/2000/svg" xmlns:xlink="http://www.w3.org/1999/xlink" width="127.66667" height="127.66667" viewBox="0,0,127.66667,127.66667"><g transform="translate(-176.16669,-116.16668)"><g data-paper-data="{&quot;isPaintingLayer&quot;:true}" fill-rule="nonzero" stroke-linejoin="miter" stroke-miterlimit="10" stroke-dasharray="" stroke-dashoffset="0" style="mix-blend-mode: normal"><g><g stroke="#000000" stroke-linecap="round"><path d="M217.39265,198.1057c0,0 2.77356,-5.4398 4.13943,-6.21618c0.72822,-0.41394 3.42693,1.9153 3.42693,1.9153c0,0 4.75261,-4.06073 11.07906,-4.08413c8.09534,-0.02994 19.34573,2.25227 19.34573,2.25227l2.86726,11.62832c0,0 -16.00774,1.20555 -22.80124,0.29181c-6.82582,-0.91809 -18.05716,-5.78738 -18.05716,-5.78738z" fill="#0065cc" stroke-width="0"/><path d="M224.95903,193.80481c0,0 4.75261,-4.06073 11.07906,-4.08413c8.09534,-0.02994 19.34573,2.25227 19.34573,2.25227l2.86726,11.62832c0,0 -16.00774,1.20555 -22.80124,0.29181c-2.42102,-0.32564 -5.39627,-1.14834 -8.22801,-2.07454c-0.18852,-2.71503 -0.97078,-5.45195 -1.84464,-7.13762c-0.12154,-0.23446 -0.27258,-0.54189 -0.44949,-0.9029c0.02049,0.01743 0.03134,0.02678 0.03134,0.02678z" fill="#061382" stroke-width="0"/><path d="M229.33955,198.34464l2.70796,2.54867" fill="none" stroke-width="1"/><path d="M217.39265,198.1057c0,0 2.77356,-5.4398 4.13943,-6.21618c0.72822,-0.41394 3.42693,1.9153 3.42693,1.9153c0,0 4.75261,-4.06073 11.07906,-4.08413c8.09534,-0.02994 19.34573,2.25227 19.34573,2.25227l2.86726,11.62832c0,0 -16.00774,1.20555 -22.80124,0.29181c-6.82582,-0.91809 -18.05716,-5.78738 -18.05716,-5.78738z" fill="none" stroke-width="1"/></g><g fill="none" stroke="none" stroke-width="1" stroke-linecap="butt" font-family="sans-serif" font-weight="normal" font-size="12" text-anchor="start"/><g><path d="M229.23004,185.91785c0,0 -2.69302,-5.63292 1.16249,-10.76664c1.41904,-1.88949 3.84565,-4.31385 7.44797,-5.50405c15.78375,-5.21493 14.80547,9.16228 14.80547,9.16228c0,0 3.97095,4.30425 3.3419,5.91514c-1.28839,3.29933 -7.6627,3.70211 -7.6627,3.70211l0.83628,6.27212c0,0 -9.08739,7.27359 -17.77238,2.91128c-9.96441,-5.00493 -2.15904,-11.69225 -2.15904,-11.69225z" fill="#feecf7" stroke="#000000" stroke-width="0" stroke-linecap="round"/><path d="M229.23004,185.91785c0,0 -2.69302,-5.63292 1.16249,-10.76664c1.41904,-1.88949 3.84565,-4.31385 7.44797,-5.50405c15.78375,-5.21493 14.80547,9.16228 14.80547,9.16228c0,0 3.97095,4.30425 3.3419,5.91514c-1.28839,3.29933 -7.6627,3.70211 -7.6627,3.70211l0.83628,6.27212l-4.43629,-4.52891c0,0 -6.04137,0.87198 -8.08226,-0.02716c-2.86031,-1.26013 -7.41285,-4.22489 -7.41285,-4.22489z" fill="#dc94e7" stroke="#000000" stroke-width="0" stroke-linecap="round"/><path d="M229.23004,185.91785c0,0 -2.69302,-5.63292 1.16249,-10.76664c1.41904,-1.88949 3.84565,-4.31385 7.44797,-5.50405c15.78375,-5.21493 14.80547,9.16228 14.80547,9.16228c0,0 3.97095,4.30425 3.3419,5.91514c-1.28839,3.29933 -7.6627,3.70211 -7.6627,3.70211l0.83628,6.27212c0,0 -9.08739,7.27359 -17.77238,2.91128c-9.96441,-5.00493 -2.15904,-11.69225 -2.15904,-11.69225z" fill="none" stroke="#000000" stroke-width="1" stroke-linecap="round"/><path d="M244.23337,193.00835c0,0.36843 -0.24347,0.49338 -0.40863,0.53577c-0.71336,1.08236 -2.20313,1.73851 -3.73216,1.52943c-3.94843,-0.57486 -8.74636,-2.12117 -8.84151,-7.00325c0,0 0,-0.2193 0.13755,-0.38283c-0.22271,-0.39044 0.15134,-0.6897 0.15134,-0.6897l0.35228,-0.27746c1.72162,-1.63917 4.19053,-0.24457 6.18431,0.25159c1.86258,0.46588 4.31315,1.63172 5.48879,3.23426c0.662,0.90238 0.8125,1.78251 0.61596,2.5424c0.03221,0.06924 0.05205,0.15459 0.05205,0.25978zM242.14224,193.39754c-1.69096,-0.37577 -4.83408,-0.61283 -6.24775,-1.50879c-0.93214,-0.59078 -1.71652,-1.26796 -2.5828,-1.86213c0.1135,0.13862 0.22668,0.29163 0.33281,0.47136c1.74177,2.94955 3.29812,3.00705 6.60574,3.47172c0.78585,0.11833 1.63835,-0.09001 2.22033,-0.52505c-0.10944,-0.01569 -0.21889,-0.03139 -0.32835,-0.04711zM236.48374,190.94211c1.27233,0.83477 4.29183,1.01032 5.85845,1.35846c0.27176,0.03861 0.54351,0.07731 0.81524,0.11608c0.08406,-0.45072 -0.04448,-0.97537 -0.48613,-1.54416c-1.07945,-1.39021 -3.20154,-2.40313 -4.86518,-2.81883c-1.37867,-0.34639 -4.00629,-1.75336 -5.12542,-0.54488l-0.3745,0.30328c0.05991,0.13221 0.05991,0.25823 0.05991,0.25823c-0.00128,0.04367 -0.00163,0.08608 -0.00108,0.1273c1.55025,0.73894 2.68997,1.80713 4.11871,2.74451z" fill="#ff0000" stroke="none" stroke-width="0.5" stroke-linecap="butt"/><path d="M231.53996,186.99778l0.35228,-0.27746c1.72162,-1.63917 4.19053,-0.24457 6.18431,0.25159c1.86258,0.46588 4.31315,1.63172 5.48879,3.23426c0.07927,0.10805 0.1512,0.21577 0.21607,0.32302c-0.35795,0.10879 -0.73365,0.2254 -1.1125,0.34026c-1.08019,-1.38865 -3.20038,-2.40039 -4.86282,-2.81578c-1.37867,-0.34639 -4.00629,-1.75336 -5.12542,-0.54488l-0.3745,0.30328c0.05991,0.13221 0.05991,0.25823 0.05991,0.25823c-0.00064,0.022 -0.00105,0.04369 -0.00123,0.06506c-0.12229,-0.03815 -0.2449,-0.07476 -0.36781,-0.10985c-0.22521,-0.17528 -0.44994,-0.35039 -0.67443,-0.52369c-0.04303,-0.29575 0.21732,-0.50402 0.21732,-0.50402z" fill="#ab0d46" stroke="none" stroke-width="0.5" stroke-linecap="butt"/><path d="M248.37496,188.54817c0,0 -1.29481,-0.23135 -1.88091,-0.53662c-0.67549,-0.35183 -1.94209,-1.45454 -1.94209,-1.45454" fill="none" stroke="#000000" stroke-width="1" stroke-linecap="round"/></g><g><path d="M239.45458,206.0703l2.23009,4.93805c0,0 -4.89814,0.96441 -7.47833,1.20505c-2.54317,0.23719 -7.89335,0.22857 -7.89335,0.22857c0,0 -11.67459,5.12974 -17.8515,3.9866c-5.94968,-1.10108 -6.4953,-4.009 -5.86788,-5.63514c0.04884,-0.12657 1.10014,-1.13377 2.45825,-1.48041c2.20435,-0.56265 5.47735,-0.55675 8.52517,-0.95618c10.89804,-1.42823 25.87756,-2.28654 25.87756,-2.28654z" fill="#feecf7" stroke="#000000" stroke-width="0" stroke-linecap="round"/><path d="M239.45458,206.0703l2.23009,4.93805c0,0 -4.89814,0.96441 -7.47833,1.20505c-2.54317,0.23719 -7.89335,0.22857 -7.89335,0.22857c0,0 -8.81232,3.87207 -15.17535,4.13836c0.37635,-0.33171 0.70783,-0.71888 0.98226,-1.13323c0.88023,-1.34859 2.22403,-1.32448 3.47357,-2.26316c1.22049,-0.91685 1.56073,-1.80523 2.31829,-2.96096c0.59366,-0.90568 2.20453,-1.89236 3.81196,-2.77827c8.98703,-0.87341 17.73086,-1.37443 17.73086,-1.37443z" fill="#dc94e7" stroke="#000000" stroke-width="0" stroke-linecap="butt"/><path d="M239.45458,206.0703l2.23009,4.93805c0,0 -4.89814,0.96441 -7.47833,1.20505c-2.54317,0.23719 -7.89335,0.22857 -7.89335,0.22857c0,0 -11.67459,5.12974 -17.8515,3.9866c-5.94968,-1.10108 -6.4953,-4.009 -5.86788,-5.63514c0.0402,-0.10417 1.44794,-1.35468 2.42014,-1.62081c2.12647,-0.58208 5.18309,-0.37282 8.56328,-0.8158c10.89804,-1.42823 25.87756,-2.28654 25.87756,-2.28654z" fill="none" stroke="#000000" stroke-width="1" stroke-linecap="round"/><path d="M230.45461,199.61897c0,0 3.10882,1.76186 4.57126,2.85227c1.55805,1.16171 4.50839,3.91764 4.50839,3.91764c0,0 -3.76446,1.91266 -5.85377,2.24376c-2.63937,0.41825 -8.72145,0.06597 -8.72145,0.06597c0,0 -11.72116,6.07774 -18.55752,2.54867c-0.70667,-0.36481 -1.59429,-1.22776 -1.51385,-1.7523c0.25359,-1.65374 3.13737,-3.04922 6.22208,-4.52062c2.19777,-1.04833 4.92893,-2.48814 4.92893,-2.48814c0,0 -3.21863,-2.34208 -1.09939,-5.33439c0.41683,-0.58855 1.64161,-0.50843 3.19209,-0.67985c1.62164,-0.17929 3.56216,-0.59637 3.56216,-0.59637l6.45132,4.77876z" fill="#ff292e" stroke="#000000" stroke-width="0" stroke-linecap="round"/><path d="M235.02584,202.47123c1.55805,1.16171 4.50839,3.91764 4.50839,3.91764c0,0 -3.76446,1.91267 -5.85377,2.24376c-2.63937,0.41826 -8.72145,0.06597 -8.72145,0.06597c0,0 -8.31219,4.3101 -15.01955,3.56354c0.7367,-0.98845 1.46856,-2.13299 1.7916,-2.6706c0.76831,-0.47787 1.54469,-0.78361 2.30282,-1.13264c0.49412,-0.01148 0.95645,-0.15155 1.35483,-0.38801c1.23894,-0.28351 2.16322,-1.39252 2.16322,-2.71742c0,-1.02311 -0.55118,-1.91749 -1.37281,-2.4024c-0.08849,-0.15487 -0.18563,-0.28264 -0.2902,-0.38622c0.09689,-0.05079 0.14973,-0.07864 0.14973,-0.07864c0,0 -1.52792,-1.11182 -1.78515,-2.7821c3.28121,0.0617 7.36037,-0.22915 7.36037,-3.03206c0,-0.28233 -0.02403,-0.53649 -0.06918,-0.76524c0.09582,-0.01984 0.14882,-0.03122 0.14882,-0.03122l6.31571,4.67831c-0.25157,0.1195 -0.57155,0.23866 -0.96758,0.39217c-0.23176,0.05534 -0.47028,0.1105 -0.70976,0.1758c0,0 -0.80681,0.22004 -0.58677,1.02686c0.22004,0.80681 1.02686,0.58677 1.02686,0.58677c0.06088,-0.0166 0.12122,-0.03304 0.18101,-0.04934c0.21492,0.00835 0.38742,-0.06065 0.38742,-0.06065c0.12726,-0.05115 0.25032,-0.10171 0.36919,-0.15195c0.69645,-0.20645 1.30087,-0.43109 1.80102,-0.78311c0.12999,0.0851 0.3054,0.13683 0.54182,0.11533c0.83285,-0.07571 0.75714,-0.90856 0.75714,-0.90856c-0.02642,-0.2891 -0.05538,-0.56716 -0.09158,-0.83887c0.02861,-0.07776 0.05591,-0.15824 0.08188,-0.24153c0.85031,0.49051 3.06075,1.78559 4.22598,2.65441z" fill="#ac0e49" stroke="#000000" stroke-width="0" stroke-linecap="round"/><path d="M230.45461,199.61897c0,0 3.10882,1.76186 4.57126,2.85227c1.55805,1.16171 4.50839,3.91764 4.50839,3.91764c0,0 -3.76446,1.91266 -5.85377,2.24376c-2.63937,0.41825 -8.72145,0.06597 -8.72145,0.06597c0,0 -11.72116,6.07774 -18.55752,2.54867c-0.70667,-0.36481 -1.59429,-1.22776 -1.51385,-1.7523c0.25359,-1.65374 3.13737,-3.04922 6.22208,-4.52062c2.19777,-1.04833 4.92893,-2.48814 4.92893,-2.48814c0,0 -3.21863,-2.34208 -1.09939,-5.33439c0.41683,-0.58855 1.64161,-0.50843 3.19209,-0.67985c1.62164,-0.17929 3.56216,-0.59637 3.56216,-0.59637l6.45132,4.77876z" fill="none" stroke="#000000" stroke-width="1" stroke-linecap="round"/><path d="M226.95018,201.29152l0.95575,-0.55752" fill="none" stroke="#000000" stroke-width="1" stroke-linecap="round"/><path d="M230.85284,203.84021c0,0 1.01887,-0.41906 1.74361,-0.53275c0.60901,-0.09553 3.1148,-0.26372 3.1148,-0.26372" fill="none" stroke="#000000" stroke-width="0.5" stroke-linecap="round"/><path d="M215.56,204.86659c-0.44827,-0.09541 -0.92133,-0.15147 -1.43284,-0.15027c0,0 -0.55752,0 -0.55752,-0.55752c0,-0.55752 0.55752,-0.55752 0.55752,-0.55752c1.9216,0.00398 4.45698,0.53054 5.98843,1.70371c0.3401,0.26053 1.41335,1.07701 0.9451,1.68232c-0.66859,0.8643 -3.2699,-0.97184 -3.9817,-1.44637c-0.34543,-0.09366 -0.69007,-0.19023 -1.0342,-0.28854l-0.47999,-0.38078c0,0 -0.00172,-0.00172 -0.00479,-0.00502z" fill="#fff1fd" stroke="none" stroke-width="0.5" stroke-linecap="butt"/><path d="M216.40684,203.16173c-0.35691,-0.4283 0.07139,-0.78523 0.07139,-0.78523c1.75902,-1.41781 6.99466,-0.93211 8.03108,1.30933c0.90197,1.95065 -0.90818,2.29874 -2.30106,1.62972c-1.77244,-0.49774 -3.43691,-1.08759 -5.17796,-1.63201l-0.075,-0.12278l-0.0365,0.03651l-0.2459,-0.2459c-0.08811,-0.02769 -0.1792,-0.08541 -0.26605,-0.18964z" fill="#fff1fd" stroke="none" stroke-width="0.5" stroke-linecap="butt"/><path d="M218.12551,201.12598c-0.00069,-0.00103 -0.00137,-0.00205 -0.00206,-0.00308c-0.30926,-0.46389 0.15463,-0.77314 0.15463,-0.77314c1.42629,-0.88531 6.77622,-1.17922 7.42071,0.93575c0.85711,2.81275 -2.46085,1.08094 -3.41666,0.52333c-1.02781,-0.24744 -1.9156,-0.27838 -2.97798,-0.27838h-0.63717c0,0 -0.45014,0.00001 -0.54148,-0.40448z" fill="#dc94e7" stroke="none" stroke-width="0.5" stroke-linecap="butt"/><path d="M220.11557,205.30497c0.3401,0.26053 1.41335,1.07701 0.9451,1.68232c-0.51816,0.66983 -2.19713,-0.28227 -3.25778,-0.96552c0.61631,-0.29985 1.16038,-0.68291 1.64656,-1.15405c0.23748,0.13433 0.46083,0.27998 0.66613,0.43724z" fill="#dc94e7" stroke="none" stroke-width="0.5" stroke-linecap="butt"/><path d="M224.50928,203.68585c0.90197,1.95065 -0.90818,2.29874 -2.30106,1.62972c-0.83847,-0.23545 -1.65277,-0.49153 -2.46244,-0.75366c0.66994,-0.73562 1.22469,-1.65798 1.70771,-2.78181c1.38816,0.30281 2.61016,0.94199 3.0558,1.90576z" fill="#dc94e7" stroke="none" stroke-width="0.5" stroke-linecap="butt"/><path d="M215.56,204.86659c-0.44827,-0.09541 -0.92133,-0.15147 -1.43284,-0.15027c0,0 -0.55752,0 -0.55752,-0.55752c0,-0.55752 0.55752,-0.55752 0.55752,-0.55752c1.9216,0.00398 4.45698,0.53054 5.98843,1.70371c0.3401,0.26053 1.41335,1.07701 0.9451,1.68232c-0.66859,0.8643 -3.2699,-0.97184 -3.9817,-1.44637c-0.34543,-0.09366 -0.69007,-0.19023 -1.0342,-0.28854l-0.47999,-0.38078c0,0 -0.00172,-0.00172 -0.00479,-0.00502z" fill="none" stroke="#000000" stroke-width="1" stroke-linecap="butt"/><path d="M216.40684,203.16173c-0.35691,-0.4283 0.07139,-0.78523 0.07139,-0.78523c1.75902,-1.41781 6.99466,-0.93211 8.03108,1.30933c0.90197,1.95065 -0.90818,2.29874 -2.30106,1.62972c-1.77244,-0.49774 -3.43691,-1.08759 -5.17796,-1.63201l-0.075,-0.12278l-0.0365,0.03651l-0.2459,-0.2459c-0.08811,-0.02769 -0.1792,-0.08541 -0.26605,-0.18964z" fill="none" stroke="#000000" stroke-width="1" stroke-linecap="butt"/><path d="M218.12551,201.12598c-0.00069,-0.00103 -0.00137,-0.00205 -0.00206,-0.00308c-0.30926,-0.46389 0.15463,-0.77314 0.15463,-0.77314c1.42629,-0.88531 6.77622,-1.17922 7.42071,0.93575c0.85711,2.81275 -2.46085,1.08094 -3.41666,0.52333c-1.02781,-0.24744 -1.9156,-0.27838 -2.97798,-0.27838h-0.63717c0,0 -0.45014,0.00001 -0.54148,-0.40448z" fill="none" stroke="#000000" stroke-width="1" stroke-linecap="butt"/></g><g><path d="M246.65487,209.64196c7.94441,0 15.6222,-2.38989 23.5533,-2.40159c0.3789,-0.01777 0.63336,0.10883 0.80389,0.27848c0.18354,0.15611 0.33101,0.3997 0.34435,0.77983l0.08675,1.08596c-0.01103,4.69311 -2.81055,6.27771 -6.8464,7.92873c-3.46341,1.41684 -7.95033,3.22171 -11.08007,3.22171c-4.13009,0 -8.3331,0.47822 -12.24293,-1.10593c-2.50729,-1.01588 -5.8045,-3.67786 -4.59298,-6.89245c0.63231,-1.67774 1.61924,-1.61351 2.92673,-2.33261c0,0 0.71675,-0.38595 1.25518,0.11412c1.99852,-0.58822 3.69089,-0.67626 5.79218,-0.67626z" fill="#ffeef9" stroke="none" stroke-width="0.5" stroke-linecap="butt"/><path d="M270.20815,207.24036c0.3789,-0.01777 0.63336,0.10882 0.80389,0.27848c0.18354,0.15611 0.331,0.3997 0.34435,0.77983l0.08676,1.08598c-0.01103,4.6931 -2.81055,6.2777 -6.84642,7.92873c-3.46341,1.41684 -7.95033,3.22171 -11.08007,3.22171c-4.13009,0 -8.3331,0.47822 -12.24293,-1.10593c-2.22959,-0.90338 -5.0838,-3.10839 -4.83681,-5.84614c0.93192,0.79199 1.83944,1.52222 2.77161,2.18458c1.54318,1.29335 3.19176,2.19591 5.15314,2.73973c0.52442,0.18922 1.07098,0.36232 1.64427,0.51872c0,0 0.34247,0.0934 0.64202,-0.06463c0.94223,0.12144 1.95462,0.18022 3.05305,0.17883c5.80039,0.58745 14.9546,-2.20031 18.21022,-7.08373c0.4765,-1.56444 0.70156,-3.2451 0.32281,-4.7666c0.65648,-0.03113 1.31443,-0.04856 1.97411,-0.04954z" fill="#db93e6" stroke="none" stroke-width="0.5" stroke-linecap="butt"/><path d="M246.65487,209.64197c7.94441,0 15.62222,-2.3899 23.5533,-2.40159c0.3789,-0.01777 0.63336,0.10882 0.80389,0.27848c0.18354,0.15611 0.331,0.3997 0.34435,0.77983l0.08676,1.08598c-0.01103,4.6931 -2.81055,6.2777 -6.84642,7.92873c-3.46341,1.41684 -7.95033,3.22171 -11.08007,3.22171c-4.13009,0 -8.3331,0.47822 -12.24293,-1.10593c-2.50729,-1.01588 -5.8045,-3.67786 -4.59298,-6.89245c0.63231,-1.67774 1.61924,-1.6135 2.92673,-2.33259c0,0 0.71676,-0.38595 1.25518,0.11411c1.99852,-0.58822 3.69089,-0.67626 5.79218,-0.67626z" fill="none" stroke="#000000" stroke-width="1" stroke-linecap="butt"/><path d="M243.91014,201.83667c0,0 6.3901,-3.96572 9.19295,-4.65741c4.09319,-1.01012 5.9888,0.79764 5.9888,0.79764c0,0 4.39459,0.75358 6.26754,0.3767c3.67902,-0.74032 4.53982,-2.34947 4.53982,-2.34947c0,0 1.4028,1.64035 0.131,3.36975c-1.29216,1.75706 -3.81923,3.40628 -3.81923,3.40628c0,0 11.5832,10.8123 -9.82268,14.13838c-26.36163,4.09609 -14.45097,-7.79122 -14.45097,-7.79122c0,0 -0.78383,-0.86549 -1.01696,-1.41404c-0.25151,-0.59179 -0.44117,-2.01687 -0.44117,-2.01687c0,0 -3.60204,0.34806 -4.92069,-0.73335c-0.62871,-0.5156 0.25577,-2.68164 0.43922,-2.88802c0.57532,-0.64724 7.91238,-0.23839 7.91238,-0.23839z" fill="#ff292e" stroke="#000000" stroke-width="0" stroke-linecap="round"/><path d="M253.10309,197.17922c4.09319,-1.01012 5.9888,0.79764 5.9888,0.79764c0,0 3.18371,0.54594 5.28638,0.47606c-0.24955,0.05368 -0.58317,0.22204 -0.62979,0.73481c-0.07571,0.83285 0.75714,0.90856 0.75714,0.90856c2.19369,0.17554 4.23397,-0.94561 6.05395,-2.12998c-0.02462,0.43887 -0.17055,0.91966 -0.52933,1.40752c-1.29216,1.75706 -3.81923,3.40628 -3.81923,3.40628c0,0 0.60956,0.569 1.29061,1.48609c-0.56614,-0.47697 -1.10999,0.06688 -1.10999,0.06688c-0.07644,0.07814 -0.16098,0.15063 -0.25211,0.2185c-0.39683,0.06129 -0.75367,0.26594 -1.05122,0.55234c-1.31195,0.53898 -2.83302,0.91943 -2.51144,2.53921c0.20752,1.04529 3.34492,2.41526 4.27572,2.00803c1.26035,-0.55141 1.16696,-2.10439 1.05245,-3.18284c-0.04455,-0.41957 0.09405,-0.96988 -0.11479,-1.30523c0.04779,-0.13427 0.06969,-0.29734 0.01379,-0.47189c2.21809,3.25883 4.35987,9.77605 -11.41569,12.22727c-7.59402,1.17997 -12.01203,1.03356 -14.45365,0.22702c0.36146,-0.46116 0.73227,-0.91205 1.12577,-1.35466c1.32342,-1.32372 3.78504,-2.35589 4.67282,-3.94939c1.1202,-2.01067 -0.15893,-5.00594 -1.37513,-7.71178c3.6641,-0.94062 8.70312,-3.76042 5.69255,-6.609c0.38591,-0.14758 0.74125,-0.2647 1.05239,-0.34148z" fill="#ac0e49" stroke="#000000" stroke-width="0" stroke-linecap="butt"/><path d="M243.91014,201.83667c0,0 6.3901,-3.96572 9.19295,-4.65741c4.09319,-1.01012 5.9888,0.79764 5.9888,0.79764c0,0 4.39459,0.75358 6.26754,0.3767c3.67902,-0.74032 4.53982,-2.34947 4.53982,-2.34947c0,0 1.4028,1.64035 0.131,3.36975c-1.29216,1.75706 -3.81923,3.40628 -3.81923,3.40628c0,0 11.5832,10.8123 -9.82268,14.13838c-26.36163,4.09609 -14.45097,-7.79122 -14.45097,-7.79122c0,0 -0.78383,-0.86549 -1.01696,-1.41404c-0.25151,-0.59179 -0.44117,-2.01687 -0.44117,-2.01687c0,0 -3.60204,0.34806 -4.92069,-0.73335c-0.62871,-0.5156 0.25577,-2.68164 0.43922,-2.88802c0.57532,-0.64724 7.91238,-0.23839 7.91238,-0.23839z" fill="none" stroke="#000000" stroke-width="1" stroke-linecap="round"/><path d="M244.25324,209.12733h-2.23009" fill="none" stroke="#000000" stroke-width="1" stroke-linecap="round"/><path d="M240.73653,205.86797l1.54391,-0.42887" fill="none" stroke="#000000" stroke-width="1" stroke-linecap="round"/><path d="M265.86792,202.60859l-4.11709,-0.17155" fill="none" stroke="#000000" stroke-width="1" stroke-linecap="round"/><path d="M239.6856,205.82933c-0.21867,1.09339 -1.31206,0.87471 -1.31206,0.87471l-0.29571,-0.0674c-0.37169,-0.02859 -0.74336,-0.05719 -1.11504,-0.08578c0,0 -1.11175,-0.08552 -1.02624,-1.19728c0.08552,-1.11177 1.19728,-1.02624 1.19728,-1.02624c0.37169,0.02859 0.74336,0.05718 1.11504,0.08577l0.56203,0.10415c0,0 1.09339,0.21867 0.87471,1.31206z" fill="#000000" stroke="none" stroke-width="0.5" stroke-linecap="butt"/><path d="M268.6984,200.97892c0,0.72492 -0.47128,0.97855 -0.80107,1.06729c-0.24821,0.15795 -0.49641,0.31589 -0.7446,0.47384c0,0 -0.94072,0.59863 -1.53936,-0.34208c-0.59864,-0.94072 0.34208,-1.53935 0.34208,-1.53935c0.3145,-0.20013 0.629,-0.40028 0.94349,-0.60042l0.68441,-0.17433c0,0 1.11504,0 1.11504,1.11504z" fill="#000000" stroke="none" stroke-width="0.5" stroke-linecap="butt"/><path d="M263.80938,208.35535c0,1.11504 -1.11504,1.11504 -1.11504,1.11504h-0.17155c-4.74653,-0.01286 -8.88976,1.35673 -13.22373,3.09384c0,0 -1.0353,0.41412 -1.44941,-0.62118c-0.14743,-0.36858 -0.11116,-0.65842 -0.00329,-0.87889c-0.15165,0.07212 -1.00656,0.42769 -1.48709,-0.46473c-0.45643,-0.84766 0.21308,-1.35752 0.40452,-1.481c-0.0905,-0.08843 -0.17494,-0.20303 -0.24853,-0.3502c-0.49866,-0.99733 0.49866,-1.49599 0.49866,-1.49599l0.17155,-0.08577c4.30326,-2.14435 9.01365,-4.42724 13.96471,-4.05998c0,0 1.11175,0.08552 1.02624,1.19728c-0.0412,0.53566 -0.32064,0.79338 -0.59918,0.91663c0.22858,-0.01922 0.45807,-0.03766 0.6885,-0.05537l0.25706,-0.00329c0,0 1.11504,0 1.11504,1.11504c0,0.5892 -0.31133,0.86706 -0.60498,0.9981c0.3281,0.09464 0.77653,0.35334 0.77653,1.06045z" fill="#fff1fd" stroke="none" stroke-width="0.5" stroke-linecap="butt"/><path d="M246.65487,206.81146c0,0 -1.8321,-1.56576 -2.23807,-2.43784c-0.36058,-0.77459 -0.07779,-2.53697 -0.07779,-2.53697" fill="none" stroke="#000000" stroke-width="1" stroke-linecap="round"/><path d="M261.15018,203.12652c0,0 0.47612,0.03663 0.78123,0.37353c-0.07751,0.31265 -0.15501,0.62528 -0.23252,0.93793c-0.0322,0.31818 -0.03257,0.5594 -0.03575,0.7599c-0.02847,0.01572 -0.05719,0.02986 -0.0859,0.04256c0.02842,-0.00239 0.05686,-0.00477 0.0853,-0.00714c-0.00836,0.44968 -0.04251,0.69602 -0.52239,1.17837c-0.6959,0.69947 -1.22637,2.04304 -2.18718,2.45377c-2.47385,1.05753 -4.75482,-2.27265 -6.30827,-4.18342c2.72779,-1.06156 5.57446,-1.77292 8.50549,-1.5555z" fill="#dc94e7" stroke="#000000" stroke-width="0" stroke-linecap="butt"/><path d="M247.42681,209.1273c0,0 4.35217,-2.00359 6.78064,-2.72934c2.54123,-0.75945 8.1438,-1.73084 8.1438,-1.73084" fill="none" stroke="#000000" stroke-width="1" stroke-linecap="round"/><path d="M247.76991,211.18586c0,0 4.02549,-1.66891 6.44128,-2.28309c2.62707,-0.6679 8.74047,-1.57668 8.74047,-1.57668" fill="none" stroke="#000000" stroke-width="1" stroke-linecap="round"/><path d="M263.80938,208.35535c0,1.11504 -1.11504,1.11504 -1.11504,1.11504h-0.17154c-4.74653,-0.01286 -8.88976,1.35673 -13.22373,3.09384c0,0 -1.03529,0.41412 -1.4494,-0.62118c-0.14743,-0.36858 -0.11116,-0.65842 -0.0033,-0.87889c-0.15165,0.07212 -1.00656,0.42769 -1.48708,-0.46473c-0.45642,-0.84765 0.21307,-1.35752 0.4045,-1.481c-0.0905,-0.08843 -0.17494,-0.20302 -0.24852,-0.35019c-0.49866,-0.99732 0.49866,-1.49599 0.49866,-1.49599l0.17155,-0.08577c4.30326,-2.14435 9.01365,-4.42725 13.96471,-4.05998c0,0 1.11175,0.08552 1.02624,1.19728c-0.04121,0.53567 -0.32064,0.79338 -0.59918,0.91663c0.22857,-0.01922 0.45807,-0.03764 0.6885,-0.05537l0.25707,-0.00329c0,0 1.11504,0 1.11504,1.11504c0,0.5892 -0.31133,0.86706 -0.60498,0.9981c0.3281,0.09463 0.77653,0.35334 0.77653,1.06045z" fill="none" stroke="#000000" stroke-width="1" stroke-linecap="butt"/></g><g stroke="#000000" stroke-linecap="round"><path d="M249.25104,194.60128c0,0 4.0674,1.30546 7.99658,0.40524c1.60456,-0.36762 2.43704,-3.67073 2.43704,-3.67073c0,0 3.25064,2.17515 3.06355,3.22291c-0.44874,2.513 -3.85374,9.96235 -5.29364,9.99831c-1.92823,0.04815 -6.69027,-6.53097 -6.69027,-6.53097z" fill="#0066cd" stroke-width="0"/><path d="M262.74823,194.5587c-0.44873,2.51301 -3.85374,9.96235 -5.29364,9.99831c-1.92823,0.04815 -6.69027,-6.53097 -6.69027,-6.53097c0,0 4.36514,2.54168 5.74144,3.06129c1.80158,0.68018 3.63679,-8.63749 3.8286,-9.28874c0.93822,0.69714 2.54703,2.01427 2.41386,2.76011z" fill="#061382" stroke-width="0"/><path d="M249.25104,194.60125c0,0 4.0674,1.30545 7.99658,0.40524c1.60456,-0.36762 2.43704,-3.67073 2.43704,-3.67073c0,0 3.25064,2.17516 3.06355,3.22291c-0.44873,2.51301 -3.85374,9.96235 -5.29364,9.99831c-1.92823,0.04815 -6.69027,-6.53097 -6.69027,-6.53097" fill="none" stroke-width="1"/></g></g><path d="M176.16669,243.83336v-127.66667h127.66667v127.66667z" fill="none" stroke="none" stroke-width="NaN" stroke-linecap="butt"/><g><g stroke="#000000" stroke-width="1" stroke-linecap="round"><path d="M250.69513,175.29089c0,0 -1.26783,-7.02694 3.46829,-7.86797c4.77491,-0.84792 7.06268,7.74408 7.06268,7.74408c0,0 5.27068,-1.00044 5.6077,-0.48004c1.16372,1.79692 2.81707,13.48888 2.81707,13.48888c0,0 -1.63138,1.23094 -2.4193,1.4498c-0.68408,0.19003 -2.04088,-0.21087 -2.04088,-0.21087c0,0 -2.1317,0.60777 -2.99125,0.65301c-0.65117,0.03428 -1.71671,-0.40522 -1.71671,-0.40522c0,0 -1.84812,0.88973 -2.60048,0.84547c-0.62988,-0.03705 -1.6119,-1.09326 -1.6119,-1.09326z" fill="#f89688"/><path d="M267.66855,181.11389c0,0 -1.27339,-0.08555 -2.36512,0.47383c-1.12435,0.5761 -2.06617,1.60676 -3.21697,1.84727c-0.98546,0.20597 -2.22331,-0.23356 -2.74925,-1.29338c-2.3226,-4.68025 4.61453,-4.12505 4.61453,-4.12505" fill="none"/><path d="M254.90751,185.94578c0,0 0.44465,-1.86685 1.92651,-2.3238c1.64301,-0.50664 2.90535,1.08485 2.90535,1.08485l0.86726,-1.23894" fill="none"/><path d="M260.11105,189.41479l-0.49557,-2.47787" fill="none"/><path d="M263.82784,186.06964l1.36283,2.84956" fill="none"/></g><g><path d="M257.63318,178.26435c1.37177,4.11001 -1.57947,9.30073 -4.44763,10.89962c-2.07144,1.15475 -4.1588,-0.74941 -4.26115,-0.65004c-0.88938,0.86358 -1.58618,2.0016 -3.00758,2.63217c-2.61685,1.16091 -6.50547,1.48992 -10.21283,1.48992c-8.27938,0 -14.99114,-3.49456 -14.99114,-7.80531c0,-1.87783 0.77806,-4.09636 2.9001,-5.44302c2.74931,-1.74473 7.41831,-2.36229 12.09106,-2.36229c3.2687,0 6.78863,-0.81815 9.2521,0.10641c0.44646,0.16756 6.71354,-5.34934 12.6771,1.13253z" fill="#dc94e7" stroke="#000000" stroke-width="0" stroke-linecap="butt"/><path d="M245.11992,177.02543l-0.74336,0.61946" fill="none" stroke="#000000" stroke-width="1" stroke-linecap="round"/><path d="M251.06682,184.45905c0,0 -0.42189,2.23171 -0.7391,3.02472c-0.23771,0.59425 -0.99542,1.31156 -0.99542,1.31156" fill="none" stroke="#000000" stroke-width="1" stroke-linecap="round"/><path d="M229.89811,189.16772c-0.68174,-2.19165 2.07131,-5.11692 5.99625,-6.07526c3.92494,-0.95834 7.28772,-0.08244 7.96944,2.10922c0.68173,2.19166 -2.44299,5.36471 -6.36794,6.32306c-3.92494,0.95835 -6.91603,-0.16535 -7.59776,-2.357z" fill="none" stroke="#ab0d47" stroke-width="1" stroke-linecap="butt"/><path d="M233.72165,184.08736l6.56637,5.32744" fill="none" stroke="#ab0d47" stroke-width="1" stroke-linecap="round"/><path d="M257.63318,178.26435c1.37177,4.11001 -1.57947,9.30073 -4.44763,10.89962c-2.07144,1.15475 -4.1588,-0.74941 -4.26115,-0.65004c-0.88938,0.86358 -1.58618,2.0016 -3.00758,2.63217c-2.61685,1.16091 -6.50547,1.48992 -10.21283,1.48992c-8.27938,0 -14.99114,-3.49456 -14.99114,-7.80531c0,-1.87783 0.77806,-4.09636 2.9001,-5.44302c2.74931,-1.74473 7.41831,-2.36229 12.09106,-2.36229c3.2687,0 6.78863,-0.81815 9.2521,0.10641c0.44646,0.16756 6.71354,-5.34934 12.6771,1.13253z" fill="none" stroke="#000000" stroke-width="1" stroke-linecap="butt"/></g></g><g stroke="#000000" stroke-linecap="round"><g><path d="M261.26878,163.88991c0,0 5.00075,-2.77372 5.88201,-2.1443c0.60211,0.43005 1.9595,4.55283 0.30202,6.12677c-1.44457,1.37176 -5.89968,0.24662 -5.89968,0.24662z" fill="#0066cd" stroke-width="0"/><path d="M267.45282,167.87237c-1.44457,1.37176 -5.89968,0.24662 -5.89968,0.24662l-0.18553,-2.75924c0.46405,0.03943 0.93574,0.05025 1.41323,0.03074c1.92462,-0.07862 3.71534,-0.6406 5.2599,-1.56418c0.32158,1.40205 0.36273,3.1433 -0.58794,4.04606z" fill="#061483" stroke-width="0"/><path d="M261.26878,163.88991c0,0 5.00075,-2.77372 5.88201,-2.1443c0.60211,0.43005 1.9595,4.55283 0.30201,6.12677c-1.44457,1.37176 -5.89967,0.24663 -5.89967,0.24663z" fill="none" stroke-width="1"/></g><g><path d="M221.9114,178.44298c0,0 -13.84244,-22.64292 9.18706,-29.16743c22.91192,-6.4912 24.6407,15.84463 24.6407,15.84463c0,0 3.00745,-5.89317 4.06463,-5.26085c2.03775,1.21884 3.32754,9.61085 2.35064,11.43512c-0.73571,1.37385 -6.1422,0.5104 -6.1422,0.5104c0,0 -1.23916,5.12048 -9.50104,8.35958c-11.53318,4.52162 -31.27467,7.2707 -32.00312,4.05261c-0.55231,-2.43992 7.40332,-5.77407 7.40332,-5.77407z" fill="#fde0be" stroke-width="0"/><path d="M221.9114,178.44296c0,0 -13.84244,-22.64292 9.18706,-29.16743c22.91192,-6.4912 24.6407,15.84463 24.6407,15.84463l0.45813,3.12487c0,0 6.0785,-1.88149 6.11366,-1.61108c0.26381,2.02881 0.24744,3.90616 -0.15652,4.66051c-0.73571,1.37385 -6.1422,0.5104 -6.1422,0.5104c0,0 -1.23916,5.12048 -9.50104,8.35958c-0.23219,0.09103 -1.4855,-2.15108 -2.87915,-3.42014c-1.42908,-1.30132 -2.99638,-1.63162 -2.99638,-1.63162l-4.83681,5.0526l-6.43938,-3.78189l-7.44806,2.0596z" fill="#f89688" stroke-width="0"/><path d="M231.09846,149.27555c22.91192,-6.4912 24.6407,15.84463 24.6407,15.84463c0,0 3.00745,-5.89317 4.06463,-5.26085c2.03775,1.21884 3.32754,9.61085 2.35064,11.43512c-0.73571,1.37385 -6.1422,0.5104 -6.1422,0.5104c0,0 -1.23916,5.12048 -9.50104,8.35958c-11.53318,4.52162 -31.27467,7.2707 -32.00312,4.05261c-0.55231,-2.43992 7.40332,-5.77407 7.40332,-5.77407c0,0 -13.84243,-22.64291 9.18707,-29.16742z" fill="none" stroke-width="1"/><path d="M258.09027,168.03722l2.04618,-4.54749l0.23211,5.68199z" fill="#f89688" stroke-width="0.5"/></g><g><path d="M260.20484,159.80431c0.08987,1.72985 -8.44838,6.99714 -12.0593,7.86949c-6.56331,1.58562 -30.72047,2.02463 -30.72047,2.02463l-7.14218,-13.65791c0,0 6.30655,-10.51695 20.93299,-12.68058c15.22755,-2.25255 25.78902,0.83981 25.78902,0.83981c0,0 1.857,4.92096 2.44925,7.83991c0.38707,1.90771 0.62243,5.29619 0.75068,7.76465z" fill="#ff292e" stroke-width="0"/><path d="M248.14555,167.67379c-0.49813,0.12034 -1.09762,0.23409 -1.7802,0.34153c-0.22793,0.03588 -4.22866,-11.75178 -3.13432,-14.64873c1.07204,-2.83792 7.51125,-7.41628 11.2408,-9.09837c1.48133,-0.66809 2.53309,-0.06849 2.53309,-0.06849c0,0 1.857,4.92096 2.44925,7.83991c0.38701,1.90739 0.62236,5.29506 0.75062,7.76341c0.08992,1.73047 -8.44833,6.99838 -12.05923,7.87073z" fill="#ac0e49" stroke-width="0.5"/><path d="M260.21058,159.91564c0.08571,1.67308 -8.45414,6.8858 -12.06505,7.75816c-6.56331,1.58562 -30.72047,2.02464 -30.72047,2.02464l-7.14218,-13.65791c0,0 6.30655,-10.51695 20.93299,-12.68058c15.22755,-2.25255 25.78902,0.83981 25.78902,0.83981c0,0 1.857,4.92096 2.44925,7.83991c0.39292,1.93657 0.62951,5.39901 0.75642,7.876z" fill="none" stroke-width="1"/></g><g><path d="M211.04496,181.66057c0.5875,-2.65284 3.54041,-7.71702 3.54041,-7.71702l-10.04961,5.32081c0,0 0.7197,-4.27348 1.60281,-6.50131c0.9926,-2.50404 4.06279,-7.79141 4.06279,-7.79141l12.48264,-0.39833c0,0 -1.36248,-3.30242 -1.43488,-5.07486c-0.07468,-1.82814 0.99342,-5.73205 0.99342,-5.73205c0,0 6.14371,10.6913 16.54042,13.49207c9.16217,2.4682 17.04942,-2.58851 17.04942,-2.58851l2.61508,9.37896l-10.79563,-2.01414l-1.39592,4.07453l-5.12293,-7.93734l-5.79539,8.38335l-2.88779,-5.12711c0,0 -4.87849,2.64641 -6.74654,3.91015c-1.60227,1.08395 -3.7873,3.216 -3.7873,3.216c0,0 -7.93307,3.09353 -8.15561,5.24344c-0.07294,0.70462 1.28014,1.28687 1.28014,1.28687l-3.84697,4.17466c0,0 -0.68748,-5.16532 -0.14857,-7.59879z" fill="#4fa6ec" stroke-width="0"/><path d="M211.04496,181.66057c0.5875,-2.65284 3.54041,-7.71702 3.54041,-7.71702l-10.04961,5.32081c0,0 0.7197,-4.27348 1.60281,-6.50131c0.99259,-2.50404 4.06279,-7.79141 4.06279,-7.79141l12.48264,-0.39833c0,0 -1.36248,-3.30242 -1.43488,-5.07486c-0.07468,-1.82813 0.99342,-5.73205 0.99342,-5.73205l2.31949,3.95024c0,0 0.60294,3.03603 1.0483,4.02399c0.87053,1.9311 2.5885,5.23873 2.5885,5.23873c0,0 -6.93822,-0.21626 -9.34008,0.9007c-2.53844,1.18046 -5.50346,6.00212 -5.50346,6.00212l7.7715,-0.98706c0,0 -3.30614,2.90259 -5.79194,5.91026c-2.64256,3.19732 -4.47462,6.50361 -4.4829,6.2278c-0.03701,-1.23216 -0.0037,-2.48438 0.19301,-3.37264z" fill="#66ffff" stroke-width="0"/><path d="M211.04496,181.66057c0.5875,-2.65283 3.54041,-7.71702 3.54041,-7.71702l-10.04961,5.32081c0,0 0.71971,-4.27348 1.60282,-6.50131c0.99259,-2.50405 4.06278,-7.79141 4.06278,-7.79141l12.48264,-0.39833c0,0 -1.36248,-3.30242 -1.43488,-5.07486c-0.07468,-1.82814 0.99342,-5.73205 0.99342,-5.73205c0,0 6.1437,10.69131 16.54041,13.49208c9.16217,2.46819 17.04943,-2.58852 17.04943,-2.58852l2.61508,9.37896l-10.79563,-2.01414l-1.39592,4.07453l-5.12293,-7.93734l-5.79539,8.38335l-2.88779,-5.12711c0,0 -4.87848,2.64641 -6.74653,3.91015c-1.60228,1.08393 -3.78731,3.216 -3.78731,3.216c0,0 -7.93307,3.09353 -8.15561,5.24344c-0.07294,0.70462 1.28014,1.28687 1.28014,1.28687l-3.84697,4.17466c0,0 -0.68748,-5.16531 -0.14857,-7.59879z" fill="none" stroke-width="1"/></g></g><g><path d="M242.0542,194.46379c0.24872,-4.45779 4.91665,-7.42347 9.37441,-7.17476c4.45777,0.24872 6.62859,3.43644 6.37987,7.89421c-0.24872,4.45777 -4.06409,7.86989 -8.52186,7.62117c-4.45779,-0.24872 -7.48115,-3.88285 -7.23244,-8.34063z" fill="#465e85" stroke="#000000" stroke-width="0" stroke-linecap="butt"/><path d="M257.8085,195.18325c-0.24872,4.45777 -4.06408,7.86989 -8.52186,7.62117c-4.45779,-0.24872 -7.48114,-3.88285 -7.23243,-8.34063c0.12781,-2.29069 1.42253,-4.18738 3.25601,-5.45638c0.79524,1.37972 1.97121,3.04542 3.14662,4.43564c0.22777,0.47051 0.4831,0.91506 0.7617,1.31928c-0.03164,1.4947 1.12738,2.75661 2.63177,2.84055c0.61458,0.03429 1.19375,-0.13321 1.67307,-0.44487c1.33911,-0.55449 3.03448,-1.57792 4.30354,-2.78698c0.0031,0.26562 -0.00303,0.53649 -0.01842,0.81223z" fill="#313243" stroke="#000000" stroke-width="0" stroke-linecap="butt"/><path d="M222.3161,197.94928l0.40376,-7.23654l19.40345,1.0826l-0.40376,7.23654z" fill="#313243" stroke="#000000" stroke-width="1" stroke-linecap="butt"/><path d="M248.97639,188.34877c0.02573,-0.46114 0.42043,-0.81412 0.88157,-0.78839c0.46114,0.02573 0.81412,0.42043 0.78839,0.88157c-0.02573,0.46114 -0.42043,0.81412 -0.88157,0.78839c-0.46114,-0.02573 -0.81412,-0.42043 -0.78839,-0.88157z" fill="#8bb5bc" stroke="none" stroke-width="0.5" stroke-linecap="butt"/><path d="M252.53271,188.94604c0.02573,-0.46114 0.42043,-0.81412 0.88157,-0.78839c0.46114,0.02573 0.81412,0.42043 0.78839,0.88157c-0.02573,0.46114 -0.42043,0.81412 -0.88157,0.78839c-0.46114,-0.02573 -0.81412,-0.42043 -0.78839,-0.88157z" fill="#8bb5bc" stroke="none" stroke-width="0.5" stroke-linecap="butt"/><path d="M251.4286,187.28902c4.45779,0.24872 6.62859,3.43644 6.37987,7.89421c-0.24872,4.45777 -4.06408,7.86989 -8.52186,7.62117c-4.45777,-0.24872 -7.48114,-3.88285 -7.23243,-8.34063c0.24872,-4.45777 4.91664,-7.42347 9.37441,-7.17476z" fill="none" stroke="#000000" stroke-width="1" stroke-linecap="butt"/><path d="M245.29088,192.2114c0,0 3.79499,-1.53366 6.54246,-1.47273c2.34762,0.05206 5.87189,2.00584 5.87189,2.00584" fill="none" stroke="#000000" stroke-width="1" stroke-linecap="round"/><path d="M246.15164,195.37045l11.37169,0.63447" fill="none" stroke="#000000" stroke-width="1" stroke-linecap="round"/><path d="M255.9851,199.26941c0,0 -3.32689,1.04538 -6.01036,0.7975c-2.33675,-0.21586 -4.73369,-2.67327 -4.73369,-2.67327" fill="none" stroke="#000000" stroke-width="1" stroke-linecap="round"/><path d="M246.62161,188.37691c0,0 2.75394,2.93018 2.63329,5.00298c-0.32405,5.56745 -4.35923,7.34482 -4.35923,7.34482" fill="none" stroke="#000000" stroke-width="1" stroke-linecap="round"/><path d="M250.64653,187.724c0,0 2.90361,3.2553 2.70547,5.80017c-0.48893,6.27924 -4.3966,8.78314 -4.3966,8.78314" fill="none" stroke="#000000" stroke-width="1" stroke-linecap="round"/><path d="M253.7479,187.89705c0,0 2.44633,3.01083 2.38113,6.83599c-0.08223,4.82358 -2.00878,6.50635 -2.00878,6.50635" fill="none" stroke="#000000" stroke-width="1" stroke-linecap="round"/><path d="M224.58112,194.52591c-0.11394,2.04222 -1.132,3.64614 -2.27389,3.58243c-1.14189,-0.06371 -1.9752,-1.77091 -1.86126,-3.81315c0.11394,-2.04222 1.132,-3.64614 2.27389,-3.58243c1.14189,0.06371 1.9752,1.77091 1.86126,3.81315z" fill="#465e85" stroke="#000000" stroke-width="1" stroke-linecap="butt"/><path d="M226.61029,198.18889c0,0 2.99079,-4.1665 1.39726,-5.71327c-1.64365,-1.59544 -6.12723,-1.25621 -8.63961,-2.14466c-2.22969,-0.78848 -2.63463,-2.86756 -2.2066,-3.26953c10.34384,-9.71388 17.67286,2.41278 17.67286,2.41278c0,0 4.68192,-2.00876 9.80831,0.89654c0.92966,0.52687 1.43249,3.15491 0.78254,5.44139c-0.50515,1.7771 -2.1195,3.38802 -2.1195,3.38802c0,0 -0.11923,3.23439 -1.47741,3.39542c-1.17688,0.13953 -4.77004,-1.51043 -4.77004,-1.51043c0,0 -1.98265,0.24314 -2.7658,0.03209c-0.70089,-0.18888 -1.71373,-1.23926 -1.71373,-1.23926c0,0 -2.28535,1.1484 -4.57928,0.86909c-1.00079,-0.12186 -1.389,-2.55816 -1.389,-2.55816z" fill="#f89587" stroke="#000000" stroke-width="0" stroke-linecap="round"/><path d="M228.00757,192.4756c-1.62532,-1.57764 -6.02757,-1.26354 -8.55482,-2.11539c1.88267,-1.01666 3.37167,-2.08538 5.00121,-2.23733c1.37949,-0.12863 4.82371,-0.46775 8.57938,-0.94074c1.16371,1.2378 1.80087,2.29203 1.80087,2.29203c0,0 4.68192,-2.00876 9.80831,0.89654c0.92966,0.52687 1.43249,3.15491 0.78254,5.44139c-0.2394,0.84218 -0.72791,1.64705 -1.17567,2.26082c-0.47577,-0.21324 0.57113,-2.9785 0.57113,-2.9785c0,0 -1.14523,0.97827 -2.37181,1.56182c-0.83851,0.39892 -1.79268,0.48157 -2.13804,0.4623c-0.30298,-0.0169 -1.1397,-1.02995 -1.33677,-1.75024c-0.20551,-0.7511 0.23089,-1.22173 0.01929,-1.7988c-0.20929,-0.57077 -0.77784,-0.30525 -0.77784,-0.30525c0,0 -2.74968,4.60861 -3.70611,5.11144c-0.5567,-0.36587 -1.14885,-0.68352 -1.77079,-0.94667c-0.64366,-0.27232 -0.22597,-4.20414 -0.22597,-4.20414c0,0 -2.9165,3.3756 -3.4984,3.34313c-0.4827,-0.02693 -0.95994,-0.02275 -1.42976,0.01082c0.70012,-1.34484 1.36893,-3.18536 0.42328,-4.10328z" fill="#fde0be" stroke="#000000" stroke-width="0" stroke-linecap="round"/><path d="M226.61029,198.18889c0,0 2.99079,-4.1665 1.39727,-5.71328c-1.64364,-1.59544 -6.12725,-1.2562 -8.63962,-2.14466c-2.22969,-0.78848 -2.63463,-2.86756 -2.20659,-3.26953c10.34384,-9.71388 17.67286,2.41278 17.67286,2.41278c0,0 4.68192,-2.00876 9.80831,0.89654c0.92966,0.52687 1.43249,3.1549 0.78254,5.44138c-0.50515,1.7771 -2.11951,3.38803 -2.11951,3.38803c0,0 -0.11923,3.23439 -1.4774,3.39542c-1.17688,0.13954 -4.77005,-1.51043 -4.77005,-1.51043c0,0 -1.98265,0.24314 -2.7658,0.03209c-0.70089,-0.18888 -1.71373,-1.23926 -1.71373,-1.23926c0,0 -2.28535,1.14841 -4.57929,0.86908c-1.00079,-0.12186 -1.389,-2.55816 -1.389,-2.55816z" fill="none" stroke="#000000" stroke-width="1" stroke-linecap="round"/><path d="M221.59801,189.37385l0.00854,1.2768" fill="none" stroke="#000000" stroke-width="1" stroke-linecap="round"/><path d="M232.10897,186.84927l-1.39626,0.7198" fill="none" stroke="#000000" stroke-width="1" stroke-linecap="round"/><path d="M232.5919,199.63939l0.73925,-6.10103l1.00751,-0.90102" fill="none" stroke="#000000" stroke-width="1" stroke-linecap="round"/><path d="M236.74002,201.06739l1.93106,-1.72697c0,0 1.84245,0.27878 2.70816,0.1979c0.70468,-0.06584 2.10312,-0.6474 2.10312,-0.6474" fill="none" stroke="#000000" stroke-width="1" stroke-linecap="round"/><path d="M240.54036,197.29093c0,0 -1.73349,-1.39655 -1.78002,-2.48066c-0.03255,-0.75857 1.39674,-2.0876 1.39674,-2.0876" fill="none" stroke="#000000" stroke-width="1" stroke-linecap="round"/><path d="M239.26392,195.86364l-0.58396,3.31775" fill="none" stroke="#000000" stroke-width="1" stroke-linecap="round"/></g><g stroke="none" stroke-width="0.5" stroke-linecap="butt"><path d="M233.50504,177.43075c0.16761,0.05516 0.26471,0.14591 0.31915,0.2442c0.05804,0.0962 0.08828,0.22562 0.05252,0.39841c-0.01581,0.0764 -0.04011,0.1399 -0.07022,0.19262c-1.63659,3.78342 -7.35066,-0.88079 -9.17159,-2.2745l-0.3479,-0.31747c0,0 -0.1286,-0.1185 -0.17539,-0.29479c-2.69948,-1.22565 -5.21943,-3.41588 -7.67181,-4.81151c0,0 -0.48445,-0.27594 -0.2085,-0.76039c0.27595,-0.48445 0.76037,-0.2085 0.76037,-0.2085c3.08352,1.7579 6.3056,4.85731 9.84595,5.49173c1.96494,0.73996 4.16223,2.08191 6.2395,2.25207l0.29134,0.05704c0.04263,0.00511 0.08811,0.01516 0.13656,0.0311z" fill="#000000"/><path d="M245.25602,168.471l0.0182,0.44565c0.04845,1.35471 -0.2269,2.59862 -0.66117,3.87864c-2.32733,3.09479 -4.30118,7.47907 -9.00665,4.42872c-0.16367,-0.08806 -0.23783,-0.20824 -0.26628,-0.32481c-0.04253,-0.12446 -0.04108,-0.28214 0.07821,-0.46444c0.03079,-0.04707 0.06323,-0.08628 0.09667,-0.11873l0.14192,-0.19994c2.29188,-1.40702 4.0887,-3.92299 5.89155,-5.87943c1.03057,-1.11837 2.24084,-1.69588 2.9666,-3.061c2.47779,-2.30179 6.58103,-4.68785 8.10742,-7.76381c0,0 0.25662,-0.49496 0.75157,-0.23834c0.49495,0.25662 0.23834,0.75157 0.23834,0.75157c-1.67629,3.13517 -5.57271,5.62772 -8.21425,7.93138c-0.0649,0.12901 -0.13454,0.25119 -0.20829,0.36759c0.06124,0.12656 0.06616,0.24697 0.06616,0.24697z" fill="#000000"/><path d="M249.76914,174.78184c-0.40998,-0.37782 -0.03218,-0.7878 -0.03218,-0.7878l0.2105,-0.20736c0.2112,-0.37056 0.41203,-0.7364 0.59631,-1.10727c-2.32444,2.25023 -4.2722,5.13733 -6.87996,6.81663c-0.12243,0.09494 -0.24747,0.18887 -0.37495,0.28168c1.19988,-0.22356 2.38935,-0.51507 3.45135,-0.96357c2.09557,-0.59849 4.38872,-3.12458 4.79518,-5.62739c-0.19177,0.38579 -0.39986,0.76679 -0.61903,1.15179l-0.35941,0.41111c0,0 -0.3778,0.41 -0.7878,0.03218zM240.26867,180.24364l0.08718,-0.00015c0.01872,-0.00284 0.03746,-0.00566 0.05621,-0.00849c0.95188,-0.48464 1.83967,-1.04945 2.61251,-1.65258c2.79666,-1.69382 4.8959,-5.04253 7.44683,-7.34184c-0.87623,0.25147 -1.73667,0.5413 -2.45194,1.13501c0,0 -0.43199,0.35244 -0.78443,-0.07955c-0.35244,-0.43199 0.07955,-0.78443 0.07955,-0.78443c1.09525,-0.88112 2.38658,-1.19532 3.7058,-1.58549l0.56846,-0.03769c0.16859,-0.04245 0.30139,0.00146 0.39957,0.06834c0.07876,0.04164 0.15521,0.10655 0.20595,0.20763c0.12229,0.02033 0.25212,0.09071 0.359,0.26119c0.18717,0.29854 0.06734,0.52669 -0.04617,0.65417c0.87917,3.55766 -2.14256,7.80636 -5.3923,8.78458c-1.93961,0.81914 -4.28297,1.13042 -6.37745,1.44881c-2.61125,1.28674 -5.64765,1.99947 -8.23807,1.46316c0,0 -0.54594,-0.11303 -0.43292,-0.65898c0.11303,-0.54594 0.65898,-0.43291 0.65898,-0.43291c2.21215,0.458 4.78125,-0.10163 7.06128,-1.147c0.13516,-0.27962 0.48196,-0.29379 0.48196,-0.29379z" fill="#000000"/><path d="M250.50633,174.77306l0.3608,-0.40831c0.21916,-0.385 0.52147,-0.82508 0.71325,-1.21087c-0.40645,2.50282 -2.75831,5.11584 -4.8539,5.71432c-1.062,0.4485 -2.27986,0.72251 -3.47975,0.94608c0.12748,-0.09281 0.25276,-0.18646 0.37519,-0.2814c2.60776,-1.67932 4.63448,-4.64488 6.95892,-6.8951c-0.18429,0.37087 -0.38179,0.73992 -0.593,1.11048l-0.21045,0.20744c0,0 -0.37051,0.41957 0.03948,0.79738c0.40998,0.37782 0.68944,0.01999 0.68944,0.01999z" data-paper-data="{&quot;noHover&quot;:false,&quot;origItem&quot;:[&quot;Path&quot;,{&quot;applyMatrix&quot;:true,&quot;segments&quot;:[[[834.14744,373.93499],[0.70711,0.70711],[-0.70711,-0.70711]],[834.14744,372.52077],[[834.53988,372.16455],[0,0],[0.40564,-0.64864]],[[835.68962,370.22381],[-0.35742,0.65116],[-4.33049,3.86259]],[[822.86059,381.93661],[4.79646,-2.81868],[-0.22637,0.16117]],[[822.168,382.41397],[0.23526,-0.157],[2.16675,-0.31282]],[[828.4239,380.93977],[-1.9361,0.72604],[3.79941,-0.91918]],[[837.42959,371.20568],[-0.91166,4.45568],[-0.37194,0.67737]],[[836.23588,373.22454],[0.42096,-0.67392],[0,0]],[835.56165,373.93499]],&quot;closed&quot;:true}]}" fill="#ffffff"/></g></g></g></svg>