<svg version="1.1" xmlns="http://www.w3.org/2000/svg" xmlns:xlink="http://www.w3.org/1999/xlink" width="199.11324" height="221.55319" viewBox="0,0,199.11324,221.55319"><g transform="translate(-195.52004,-69.22341)"><g data-paper-data="{&quot;isPaintingLayer&quot;:true}" fill-rule="nonzero" stroke-linejoin="miter" stroke-miterlimit="10" stroke-dasharray="" stroke-dashoffset="0" style="mix-blend-mode: normal"><g data-paper-data="{&quot;index&quot;:null}"><g data-paper-data="{&quot;origRot&quot;:0,&quot;index&quot;:null}" stroke="#000000" stroke-width="3" stroke-linecap="round"><path d="M322.93234,213.47975c-1.92903,0.64064 -3.07788,-6.54302 -3.07788,-6.54302c0,0 -2.70242,-13.95009 -4.43211,-22.87886c-1.13578,-5.86301 -2.91032,-15.02322 -2.91032,-15.02322c0,0 -0.86925,-5.8604 0.19998,-6.12417c6.43268,-1.58685 12.34581,-4.39076 15.78607,-4.03168c1.14676,0.11968 3.38975,5.37608 3.38975,5.37608l11.39393,27.86018c0,0 3.86443,9.92015 4.296,14.50756c0.23937,2.54424 -24.64545,6.8571 -24.64545,6.8571z" data-paper-data="{&quot;origPos&quot;:null}" fill="#582600"/><path d="M320.93115,206.38307l23.97583,-6.83097" fill="none"/><path d="M343.70276,196.19206l-23.91076,7.05931" data-paper-data="{&quot;origPos&quot;:null}" fill="none"/></g><path d="M319.54462,202.39308l-6.83474,-38.15628l15.19857,-4.3802l1.41875,0.30765l14.44345,35.2981z" fill="#ffcb66" stroke="#000000" stroke-width="1" stroke-linecap="round"/><path d="M320.3886,206.45476l-0.64616,-2.23975l24.5016,-7.06854l0.64616,2.23975z" fill="#ffffff" stroke="none" stroke-width="0" stroke-linecap="butt"/></g><path d="M205.36674,290.77659v-221.55318h189.26654v221.55319z" fill="none" stroke="none" stroke-width="NaN" stroke-linecap="butt"/><g data-paper-data="{&quot;origRot&quot;:0}" stroke="#000000" stroke-linecap="round"><path d="M302.12628,218.43709c0,0 -0.7701,-4.65315 0.78778,-4.84702c4.59712,-0.57201 8.80997,-2.77301 13.32132,-1.74669c1.87335,0.42618 3.18164,4.44217 3.18164,4.44217l9.04525,31.30387c0,0 0.97769,3.22061 1.47179,5.09013c0.52828,1.99885 -0.07896,5.19415 -2.18166,5.57306c-7.72043,1.39131 -12.26405,3.62967 -17.30242,3.31116c-1.83556,-0.11605 -3.77569,-0.35541 -4.73392,-1.86956c-1.25173,-1.97788 -1.20225,-6.37658 -1.20225,-6.37658z" data-paper-data="{&quot;origPos&quot;:null}" fill="#ff0000" stroke-width="3"/><path d="M330.47351,255.92885c0,0 -5.56189,3.44013 -10.67838,4.20692c-3.92556,0.58829 -12.58809,0.86943 -12.58809,0.86943c0,0 -1.7682,-2.3251 -2.10789,-3.86368c-0.35785,-1.6208 0.3205,-4.23185 0.3205,-4.23185l23.32056,-4.28697z" data-paper-data="{&quot;origPos&quot;:null}" fill="#976e57" stroke-width="2"/><path d="M302.25831,218.73601c0,0 -0.7701,-4.65315 0.78779,-4.84701c4.59711,-0.57201 8.80997,-2.77301 13.32134,-1.74667c1.87335,0.42618 3.18163,4.44216 3.18163,4.44216l9.04525,31.30387c0,0 0.9777,3.22061 1.47181,5.09013c0.52828,1.99885 -0.07897,5.19414 -2.18166,5.57306c-7.72043,1.39131 -12.26405,3.62968 -17.30242,3.31117c-1.83556,-0.11605 -3.77569,-0.35543 -4.73391,-1.86956c-1.25173,-1.97788 -1.20226,-6.37658 -1.20226,-6.37658z" data-paper-data="{&quot;origPos&quot;:null}" fill="#474747" stroke-width="3"/></g><g data-paper-data="{&quot;index&quot;:null,&quot;origRot&quot;:0}" stroke="#000000" stroke-linecap="round"><path d="M299.29882,252.97263c0,0 0.25469,4.3921 -0.90345,6.4223c-0.88661,1.55421 -2.81359,1.87752 -4.64188,2.07312c-5.01839,0.53687 -9.66188,-1.50209 -17.43942,-2.55692c-2.11825,-0.28729 -2.87401,-3.45298 -2.43956,-5.47273c0.40635,-1.88907 1.23274,-5.14884 1.23274,-5.14884l7.57513,-31.6647c0,0 1.11952,-4.06869 2.97107,-4.57572c4.45889,-1.22107 8.77019,0.79484 13.38933,1.16679c1.56536,0.12605 1.01321,4.80791 1.01321,4.80791z" data-paper-data="{&quot;origPos&quot;:null}" fill="#ff0000" stroke-width="3"/><path d="M274.87794,249.3339l23.49698,3.27053c0,0 0.79953,2.57896 0.51768,4.21364c-0.26754,1.55177 -1.92544,3.95125 -1.92544,3.95125c0,0 -8.66689,0.09508 -12.6159,-0.32225c-5.14708,-0.54396 -10.86389,-3.73922 -10.86389,-3.73922z" data-paper-data="{&quot;origPos&quot;:null}" fill="#976e57" stroke-width="2.5"/><path d="M299.18092,253.277c0,0 0.25469,4.3921 -0.90345,6.4223c-0.88661,1.55421 -2.81359,1.87753 -4.64188,2.07312c-5.01839,0.53687 -9.66187,-1.50207 -17.43942,-2.55691c-2.11825,-0.28729 -2.87401,-3.45299 -2.43956,-5.47273c0.40635,-1.88907 1.23274,-5.14884 1.23274,-5.14884l7.57513,-31.6647c0,0 1.11951,-4.06869 2.97107,-4.57572c4.45889,-1.22107 8.77021,0.79484 13.38934,1.16679c1.56536,0.12605 1.0132,4.80791 1.0132,4.80791c0,0 -0.19146,8.83708 -0.314,14.49329c-0.17297,7.98305 -0.44319,20.45554 -0.44319,20.45554z" data-paper-data="{&quot;origPos&quot;:null}" fill="#474747" stroke-width="1.5"/></g><g><g><path d="M281.83818,171.23861c0,0 1.97578,-14.14328 4.17183,-14.68102c6.58811,-1.61322 21.64943,-0.69982 31.716,-0.69982c1.55619,0 2.90003,13.28345 2.90003,13.28345l1.81251,30.06256c0,0 0.24763,14.68171 -1.45,14.68171c-15.11216,0 -32.82461,0.83687 -39.56043,0.01147c-2.24526,-0.27512 -1.40244,-15.74187 -1.40244,-15.74187z" data-paper-data="{&quot;origPos&quot;:null}" fill="#ffcb66" stroke="#000000" stroke-width="3.5" stroke-linecap="round"/><path d="M301.01962,179.28599c-1.31474,0 -1.31474,-2.44156 -1.31474,-2.44156c0,-5.06397 0,-11.75564 0,-16.81963c0,0 0,-2.44156 1.31474,-2.44156c1.31474,0 1.31474,2.44156 1.31474,2.44156c0,5.06397 0,10.12794 0,15.19192v1.6277c0,0 0,2.44156 -1.31474,2.44156z" fill="#ffffff" stroke="none" stroke-width="0.5" stroke-linecap="butt"/><path d="M313.23397,185.50236c-1.31474,0 -1.31474,-3.06729 -1.31474,-3.06729c0,-6.36178 0,-14.76841 0,-21.13019c0,0 0,-3.06729 1.31474,-3.06729c1.31474,0 1.31474,3.06729 1.31474,3.06729c0,6.36178 0,12.72355 0,19.08534v2.04486c0,0 0,3.06729 -1.31474,3.06729z" fill="#ffffff" stroke="none" stroke-width="0.5" stroke-linecap="butt"/></g><g stroke="#000000" stroke-width="0.5" stroke-linecap="butt"><path d="M316.06234,195.29267c0,6.63292 -4.69742,12.00998 -10.49199,12.00998c-5.79456,0 -10.49199,-5.37706 -10.49199,-12.00998c0,-6.63292 4.69742,-12.00998 10.49199,-12.00998c5.79456,0 10.49199,5.37706 10.49199,12.00998z" fill="#ffa924"/><path d="M308.68552,184.21337c0.00043,0.01101 0.00065,0.02222 0.00065,0.03365c0,0.61318 -0.63588,0.61318 -0.63588,0.61318h-0.12717c-0.4646,0 -2.58255,0.02739 -2.9,-0.10543c-0.265,-0.11087 -0.20736,-0.53306 -0.39803,-0.74232c-0.18319,-0.20103 -0.44382,-0.32533 -0.68904,-0.45063c-0.38996,-0.19926 -0.92253,-0.19607 -1.20942,-0.51945c-0.26501,-0.29873 -0.29652,-0.75755 -0.27155,-1.14994c0.11721,-1.84281 1.28988,-1.86166 2.80465,-1.69551c0.45687,0.09704 0.92833,0.14414 1.37064,0.29112c0.19459,0.06465 0.31071,0.28866 0.51105,0.33413c0.1424,0.03233 0.27637,-0.09599 0.41999,-0.12283c0.00613,-0.00115 1.7803,-0.2455 1.79789,-0.24792c1.19945,-0.16421 2.48217,-0.21213 3.69266,-0.12747c0.77133,0.05394 2.51414,0.2382 2.95898,0.9835c0.63351,1.0614 -1.2078,1.77959 -1.66866,1.96128c-1.36388,0.53767 -2.52805,0.20345 -3.91709,0.35948c-0.47317,0.05315 -1.23363,0.37312 -1.73966,0.58512z" fill="#1cc735"/></g></g><path d="M317.29937,162.85668c-12.03882,-1.07876 -23.70994,-2.16082 -28.37722,-3.63576c-4.26559,-1.34799 -5.30422,-4.22605 -5.30422,-4.22605c0,0 -1.50616,-2.59663 -1.4395,-4.13019c0.19997,-4.60068 1.38594,-17.69745 3.45304,-28.88504c0.06898,-0.37338 0.12129,-0.58072 0.21239,-0.94933c0.27331,-1.10583 1.52325,-5.37927 1.52325,-5.37927c0,0 3.33905,-1.33387 5.1103,-1.63252c5.31372,-0.89599 18.31271,1.90213 32.11641,3.70261c1.25112,0.1632 3.23473,2.05148 3.23473,2.05148c0,0 1.22068,3.27552 0.97488,5.24376c-1.58911,12.72499 -3.39419,26.79845 -4.01793,29.99485c-0.2079,1.06547 -2.45399,5.05107 -2.45399,5.05107z" fill="#582600" stroke="#000000" stroke-width="2.5" stroke-linecap="round"/><path d="M320.10004,142.5774c0.42689,-3.41841 1.18351,-6.13832 1.68994,-6.07506c0.50643,0.06322 0.57091,2.88568 0.14401,6.30407c-0.42689,3.41841 -1.18351,6.13833 -1.68994,6.07507c-0.50643,-0.06322 -0.57091,-2.88568 -0.14401,-6.30408z" fill="none" stroke="#000000" stroke-width="2.5" stroke-linecap="butt"/><path d="M313.55983,142.46356c0.43479,-3.48173 1.0952,-6.26576 1.47501,-6.21832c0.37983,0.04743 0.33526,2.90838 -0.09954,6.39009c-0.43479,3.48173 -1.09517,6.26573 -1.475,6.21831c-0.37983,-0.04743 -0.33527,-2.90836 0.09953,-6.39008z" fill="none" stroke="#000000" stroke-width="2.5" stroke-linecap="butt"/><path d="M286.1904,115.07472l1.64883,-12.89501l43.44626,5.5553l-1.64883,12.89501z" fill="#000000" stroke="none" stroke-width="0" stroke-linecap="butt"/><path d="M309.40779,131.49746c0.17511,-1.36956 1.42735,-2.33784 2.79689,-2.16273c0.28121,0.03595 0.54549,0.11732 0.78644,0.23579c1.45185,-0.09098 8.53775,5.83119 6.10829,8.20714c-1.81283,1.77292 -6.74298,-2.01667 -8.41841,-3.49552c-0.46145,-0.40731 -1.89325,-2.21111 -1.27322,-2.78468z" data-paper-data="{&quot;index&quot;:null}" fill="#582600" stroke="none" stroke-width="0.5" stroke-linecap="butt"/><g data-paper-data="{&quot;index&quot;:null}"><g data-paper-data="{&quot;origRot&quot;:0,&quot;index&quot;:null}" stroke="#000000" stroke-width="3" stroke-linecap="round"><path d="M280.38431,211.14389c0,0 -24.78057,-4.87633 -24.48355,-7.41448c0.53553,-4.57645 4.62402,-14.40637 4.62402,-14.40637l12.02307,-27.59452c0,0 2.36167,-5.20416 3.51086,-5.29779c3.44753,-0.28093 9.29553,2.6564 15.69055,4.38878c1.06296,0.28797 0.06098,6.12714 0.06098,6.12714c0,0 -1.98191,9.11759 -3.2504,14.95332c-1.93181,8.88724 -4.95002,22.77243 -4.95002,22.77243c0,0 -1.31152,7.15575 -3.22553,6.47152z" data-paper-data="{&quot;origPos&quot;:null}" fill="#582600"/><path d="M258.7313,196.72131l23.81468,7.37315" fill="none"/><path d="M283.75588,200.98941l-23.74445,-7.59997" data-paper-data="{&quot;origPos&quot;:null}" fill="none"/></g><path d="M259.96011,192.6584l15.24054,-34.96134l1.42536,-0.27539l15.09528,4.72389l-7.69863,37.9914z" fill="#ffcb66" stroke="#000000" stroke-width="1" stroke-linecap="round"/><path d="M258.75184,196.55584l0.69681,-2.22452l24.33492,7.62259l-0.69681,2.22452z" fill="#ffffff" stroke="none" stroke-width="0" stroke-linecap="butt"/></g><path d="M324.81987,136.49328c-1.4877,1.07439 -5.74348,3.68941 -6.6215,1.57244c-1.17666,-2.83706 5.04317,-7.05787 6.0346,-6.65448c0.19352,-0.06292 0.39523,-0.0847 0.59888,-0.05866c0.99186,0.12683 1.65396,1.33989 1.47883,2.70943c0.30742,0.69217 -1.08108,2.13535 -1.49083,2.43126z" data-paper-data="{&quot;index&quot;:null}" fill="#582600" stroke="none" stroke-width="0.5" stroke-linecap="butt"/><g data-paper-data="{&quot;index&quot;:null}" stroke="#000000" stroke-width="1" stroke-linecap="butt"><g data-paper-data="{&quot;index&quot;:null}" fill="#000000"><path d="M305.36898,149.59129c7.48337,0.87 4.58125,3.73778 4.58125,3.73778l-9.97832,-1.1953c0,0 -2.57868,-3.39466 5.39705,-2.54244z"/></g><g data-paper-data="{&quot;index&quot;:null}" fill="#ffffff"><path d="M305.36899,149.59129c1.53074,0.17797 2.62693,0.43952 3.40227,0.743c0.01388,0.00544 -0.62035,0.59241 -0.70362,1.21775c-0.10165,0.76352 0.34186,1.59245 0.33956,1.59218c-1.68465,-0.2018 -8.43529,-1.01049 -8.43529,-1.01049c0,0 -2.57868,-3.39466 5.39705,-2.54244z"/></g></g><g data-paper-data="{&quot;index&quot;:null}"><path d="M216.09129,249.25031c-0.20496,-2.25285 -4.06064,-5.72516 -2.00582,-5.85124c1.36892,-0.08399 20.78486,3.36685 22.01641,4.72571c0.61705,0.68084 1.07925,1.81579 1.14769,2.5678c0.10056,1.10531 -0.38962,2.05404 -1.24025,2.75375c-0.88315,0.72645 -19.9671,2.27726 -21.01376,2.34149c-2.05481,0.12608 1.30073,-4.28466 1.09574,-6.53752z" fill="#e99b00" stroke="#000000" stroke-width="1.5" stroke-linecap="butt"/><g stroke-linecap="butt"><path d="M209.32278,249.69123c-0.37137,-4.08164 1.47327,-7.5221 4.12011,-7.68449c2.64685,-0.16239 5.09358,3.01478 5.46495,7.09643c0.37133,4.08164 -1.47331,7.5221 -4.12014,7.68449c-2.64683,0.16242 -5.09357,-3.01477 -5.46493,-7.09641z" fill="#ffb727" stroke="#000000" stroke-width="1.5"/><path d="M214.98044,245.6816l-1.76101,-3.23445c0,0 1.74495,0.55298 2.34388,1.04651c1.24099,1.05291 1.73129,2.56411 1.73129,2.56411z" fill="#ffd683" stroke="none" stroke-width="0"/><path d="M216.02469,248.88888l-0.41294,-1.46811c0,0 0.91946,-0.16024 1.24795,-0.15881c0.38463,0.00168 1.08407,0.21294 1.08407,0.21294l0.20968,1.78122z" fill="#ffd683" stroke="none" stroke-width="0"/></g><g><path d="M215.22539,249.43717c0.51229,5.63067 -2.45858,8.95223 -7.98857,9.29152c-5.52998,0.33927 -10.45446,-4.23881 -10.96678,-9.86954c-0.51232,-5.63069 3.04106,-9.85846 8.57105,-10.19775c5.52996,-0.33926 9.87198,5.14501 10.3843,10.77574z" fill="#e99b00" stroke="#000000" stroke-width="1.5" stroke-linecap="butt"/><path d="M203.23015,239.15815c2.74366,-0.16836 5.71112,1.01724 7.94696,2.58665c1.59293,1.11813 2.81739,2.90241 2.99847,4.89274c0.37219,4.0911 -1.28465,5.65574 -6.12296,5.95259c-2.4162,0.14823 -5.51488,-1.11011 -7.65869,-2.74116c-2.14902,-1.63502 -3.58148,-2.92615 -3.58148,-2.92615c0,0 1.57938,-7.46781 6.41769,-7.76466z" fill="#ffb727" stroke="none" stroke-width="0" stroke-linecap="butt"/><path d="M204.90342,238.9684c0,0 4.04701,2.54665 4.86756,9.04547c0.82728,6.55207 -2.27429,9.7456 -2.27429,9.7456" fill="none" stroke="#000000" stroke-width="0.8" stroke-linecap="round"/><path d="M209.40381,239.87317c0,0 2.46598,3.68779 3.4531,7.77697c1.42258,5.89302 -0.27515,8.33531 -0.27515,8.33531" fill="none" stroke="#000000" stroke-width="0.75" stroke-linecap="round"/><path d="M200.70109,240.12592c0,0 3.49488,2.75874 4.67566,9.2287c1.13572,6.22294 -0.60165,8.23441 -0.60165,8.23441" fill="none" stroke="#000000" stroke-width="0.8" stroke-linecap="round"/><path d="M203.50687,257.61063c0,0 -2.51441,-3.73755 -3.61762,-6.84506c-1.45312,-4.09309 -1.8008,-8.39875 -1.8008,-8.39875" fill="none" stroke="#000000" stroke-width="0.8" stroke-linecap="round"/><path d="M214.67153,251.63985c0,0 -2.86257,2.46501 -8.668,3.06222c-5.41748,0.5573 -8.08244,-2.03456 -8.08244,-2.03456" fill="none" stroke="#000000" stroke-width="0.8" stroke-linecap="round"/><path d="M197.45823,250.6153c0,0 2.77879,0.01709 5.76598,-0.43942c2.62696,-0.40147 5.39341,-1.26975 6.87253,-1.44666c1.75679,-0.21011 4.73434,-0.19192 4.73434,-0.19192" fill="none" stroke="#000000" stroke-width="0.8" stroke-linecap="round"/><path d="M196.72995,248.07334c0,0 4.02104,-3.17879 7.80682,-3.52048c5.9419,-0.5363 9.95043,1.41887 9.95043,1.41887" fill="none" stroke="#000000" stroke-width="0.8" stroke-linecap="round"/><path d="M196.87422,244.80305c0,0 2.82486,-2.45953 6.52529,-3.32437c5.32876,-1.24541 8.35879,-0.00677 8.35879,-0.00677" fill="none" stroke="#000000" stroke-width="0.8" stroke-linecap="round"/><path d="M203.82235,240.44052c0.03654,0.40148 -0.30269,0.74962 -0.75765,0.77751c-0.45497,0.02793 -0.85341,-0.27493 -0.88993,-0.67641c-0.03652,-0.4015 0.30268,-0.74962 0.75764,-0.77751c0.45497,-0.02795 0.85343,0.27491 0.88995,0.67639z" fill="#ffd683" stroke="none" stroke-width="0" stroke-linecap="butt"/><path d="M200.44693,241.8847c-0.22747,0.01395 -0.42897,-0.16251 -0.45004,-0.39413c-0.02107,-0.23162 0.14626,-0.43071 0.37374,-0.44466c0.22748,-0.01394 0.42897,0.16251 0.45004,0.39413c0.02108,0.23162 -0.14626,0.43071 -0.37374,0.44466z" fill="#ffd683" stroke="none" stroke-width="0" stroke-linecap="butt"/></g></g></g></g></svg>