<svg version="1.1" xmlns="http://www.w3.org/2000/svg" xmlns:xlink="http://www.w3.org/1999/xlink" width="210" height="221" viewBox="0,0,210,221"><g transform="translate(-140,-90)"><g data-paper-data="{&quot;isPaintingLayer&quot;:true}" fill-rule="nonzero" stroke-linejoin="miter" stroke-miterlimit="10" stroke-dasharray="" stroke-dashoffset="0" style="mix-blend-mode: normal"><path d="M140,311v-221h210v221z" fill="none" stroke="none" stroke-width="0" stroke-linecap="butt"/><g data-paper-data="{&quot;index&quot;:null}" stroke="#000000" stroke-linecap="round"><path d="M262.23752,196.90156c0,0 16.2316,-1.59725 16.21325,5.02736c-0.04977,17.98052 -28.27891,12.06568 -28.27891,12.06568z" data-paper-data="{&quot;origPos&quot;:null}" fill="#66c8ff" stroke-width="2"/><path d="M261.48344,198.40979c0,0 11.78117,-0.56333 12.44273,1.38252c0.20864,0.61371 -15.71052,2.51368 -15.71052,2.51368z" data-paper-data="{&quot;origPos&quot;:null}" fill="#0a0a0a" stroke-width="1"/></g><g><path d="M264.68168,243.17864c0,0 0.82804,15.75777 -1.37782,16.03807c-6.6176,0.84095 -24.01925,-0.01169 -38.86622,-0.01169c-1.66786,0 -1.42457,-14.95796 -1.42457,-14.95796l1.78071,-30.62821c0,0 1.32025,-13.5334 2.84914,-13.5334c9.88992,0 24.68694,-0.93059 31.15944,0.71298c2.1575,0.54786 4.09861,14.95725 4.09861,14.95725z" data-paper-data="{&quot;origPos&quot;:null}" fill="#66c8ff" stroke="#000000" stroke-width="3.5" stroke-linecap="round"/><path d="M232.82346,223.62117c-1.29166,0 -1.29167,-2.4875 -1.29167,-2.4875c0,-5.15926 0,-11.97684 0,-17.1361c0,0 0.00001,-2.4875 1.29167,-2.4875c1.29166,0 1.29166,2.4875 1.29166,2.4875c0,5.15926 0,10.31851 0,15.47777v1.65833c0,0 0,2.4875 -1.29166,2.4875z" fill="#ffffff" stroke="none" stroke-width="0.5" stroke-linecap="butt"/><path d="M244.82346,229.9545c-1.29166,0 -1.29167,-3.125 -1.29167,-3.125c0,-6.48148 0,-15.04629 0,-21.52778c0,0 0.00001,-3.125 1.29167,-3.125c1.29166,0 1.29166,3.125 1.29166,3.125c0,6.48148 0,12.96296 0,19.44445v2.08333c0,0 0,3.125 -1.29166,3.125z" fill="#ffffff" stroke="none" stroke-width="0.5" stroke-linecap="butt"/></g><g fill="none" stroke="#b9b9b9" stroke-width="3"><path d="M254.89468,205.31998c-0.82753,-1.35809 0.08589,-2.57767 1.30884,-3.7957c1.22296,-1.21801 2.45037,-1.58994 3.11989,-0.61516c1.41955,2.06682 -0.06978,3.04234 -1.0274,3.99608c-1.22297,1.21803 -2.23265,2.33277 -3.40133,0.41479z" stroke-linecap="butt"/><path d="M253.28898,207.24868l2.58997,-2.51944" stroke-linecap="round"/><path d="M249.74248,207.87801c1.22296,-1.21801 2.45037,-1.58994 3.11989,-0.61516c1.41955,2.06682 -0.06978,3.04234 -1.0274,3.99608c-1.22296,1.21802 -2.23264,2.33277 -3.40132,0.41479c-0.82753,-1.35809 0.08588,-2.57767 1.30883,-3.79571z" stroke-linecap="butt"/><path d="M249.41789,211.08296l-2.58997,2.51946" stroke-linecap="round"/><path d="M241.20565,213.15014c0.40066,-1.63508 1.7387,-1.48046 3.25851,-1.02164c1.51981,0.45883 2.48819,1.43557 2.24522,2.68318c-0.51516,2.64527 -2.03348,1.77826 -3.22353,1.41899c-1.51981,-0.45882 -2.84605,-0.77137 -2.2802,-3.08052z" stroke-linecap="butt"/><path d="M238.99443,212.7477l3.1793,1.00816" stroke-linecap="round"/><path d="M234.00593,208.77439c0.893,-1.31672 2.06779,-0.52961 3.31104,0.62589c1.24326,1.1555 1.81512,2.52367 1.19118,3.55857c-1.32294,2.19428 -2.43342,0.66261 -3.40694,-0.24218c-1.24325,-1.15551 -2.3564,-2.08274 -1.09528,-3.94227z" stroke-linecap="butt"/><path d="M232.11175,207.33799l2.58519,2.46183" stroke-linecap="round"/><path d="M227.50223,202.64975c0.893,-1.3167 2.0678,-0.52961 3.31104,0.62589c1.24326,1.1555 1.81512,2.52367 1.19118,3.55857c-1.32294,2.19427 -2.43342,0.66261 -3.40693,-0.24218c-1.24325,-1.1555 -2.3564,-2.08273 -1.09528,-3.94227z" stroke-linecap="butt"/><path d="M225.60806,201.21336l2.58521,2.46183" stroke-linecap="round"/></g><g><g data-paper-data="{&quot;index&quot;:null}"><g stroke="#000000" stroke-width="3" stroke-linecap="round"><path d="M277.74249,237.3408c0,0 2.9198,10.33691 2.48808,14.92429c-15.6623,6.39279 -25.29943,3.78911 -25.29943,3.78911c-1.99294,0.39971 -2.25392,-6.87055 -2.25392,-6.87055c0,0 -0.9747,-14.17598 -1.59858,-23.24931c-0.40966,-5.95792 -1.0497,-15.26645 -1.0497,-15.26645c0,0 -0.14545,-5.92273 0.94803,-6.05365c6.57853,-0.78762 12.79038,-2.84668 16.16085,-2.06925c1.12349,0.25914 2.70627,5.75054 2.70627,5.75054l7.89838,29.04526z" data-paper-data="{&quot;origPos&quot;:null}" fill="#582700"/><path d="M278.44117,243.05614l-25.34773,4.00908l-0.51729,-3.36246l25.34772,-4.26772z" data-paper-data="{&quot;origPos&quot;:null}" fill="none"/></g><path d="M252.29236,243.28299l-1.73302,-36.8268l1.15535,-0.86652l15.59723,-2.59955l9.82048,36.10471z" fill="#66c8ff" stroke="#000000" stroke-width="1" stroke-linecap="round"/><path d="M252.9887,246.6309l-0.36699,-2.30203l25.18283,-4.01465l0.36699,2.30203z" fill="#ffffff" stroke="none" stroke-width="0" stroke-linecap="butt"/></g><g fill="#fffc96" stroke="#000000" stroke-width="2" stroke-linecap="round"><path d="M275.88307,232.71755c0,0 4.35886,0.46489 4.30244,3.4086c-0.09028,4.70982 -32.63647,-0.83964 -32.83846,-5.75378c-0.08253,-2.0078 3.08488,-2.18542 3.08488,-2.18542l0.29885,1.84764c0,0 5.87811,2.38292 13.44101,3.84639c7.45811,1.44319 12.53791,1.03867 12.53791,1.03867z"/><path d="M273.65385,224.39337c0,0 3.00112,-2.34415 3.95865,-0.2286c2.01,4.44084 -27.14775,23.94366 -28.05336,19.39864c-0.54845,-2.75257 2.74428,-3.87382 2.74428,-3.87382l0.25975,1.35222c0,0 4.89612,-2.09478 11.41298,-6.62048c6.51687,-4.52569 10.07493,-8.78464 10.07493,-8.78464z" data-paper-data="{&quot;index&quot;:null}"/></g></g><path d="M279.30698,253.91771c0,0 4.36261,-1.02642 6.59769,-0.26656c1.71105,0.58168 2.36541,2.38846 2.87475,4.12242c1.39803,4.7595 0.14776,9.61376 0.42148,17.32516c0.07454,2.10025 -2.9719,3.39358 -5.07256,3.33199c-1.96473,-0.05762 -5.37653,-0.27815 -5.37653,-0.27815l-33.06388,-1.70473c0,0 -4.27348,-0.36046 -5.09926,-2.06162c-1.98861,-4.09672 -0.70456,-8.62555 -1.12247,-13.16021c-0.14163,-1.53674 4.64985,-1.83404 4.64985,-1.83404c0,0 8.8983,-1.38422 14.59369,-2.27018c8.03835,-1.25044 20.59726,-3.20407 20.59726,-3.20407z" data-paper-data="{&quot;index&quot;:null}" fill="#4b4b4b" stroke="#000000" stroke-width="3" stroke-linecap="round"/><path d="M240.53179,265.47173c0,0 2.03836,3.99136 1.83413,6.34323c-0.15632,1.80045 -1.75461,2.86727 -3.31681,3.77589c-4.28805,2.49399 -9.30043,2.43889 -16.72345,4.54589c-2.02171,0.57384 -4.00501,-2.07569 -4.44676,-4.1303c-0.41315,-1.92166 -1.01361,-5.28744 -1.01361,-5.28744l-6.23898,-32.51463c0,0 -0.67031,-4.23595 0.78448,-5.44402c3.50343,-2.90924 8.20786,-2.74364 12.51159,-4.23217c1.45848,-0.50445 2.89121,4.07747 2.89121,4.07747c0,0 3.46876,8.31044 5.68895,13.62958c3.13353,7.50731 8.02925,19.23654 8.02925,19.23654z" data-paper-data="{&quot;index&quot;:null}" fill="#4b4b4b" stroke="#000000" stroke-width="3" stroke-linecap="round"/><path d="M225.9261,198.70555c0,0 -1.61748,-4.27944 -1.66187,-5.3641c-0.13318,-3.25396 0.21089,-17.43852 0.5645,-30.25748c0.05469,-1.98278 1.75669,-5.03601 1.75669,-5.03601c0,0 2.24636,-1.56659 3.50777,-1.5387c13.91722,0.30782 27.18987,-0.49224 32.30697,1.19706c1.7057,0.5631 4.80463,2.3866 4.80463,2.3866c0,0 0.58925,4.41332 0.69221,5.54777c0.03431,0.37815 0.05464,0.59102 0.06637,0.97054c0.3514,11.37153 -0.45696,24.49703 -0.95507,29.07503c-0.16603,1.526 -2.04757,3.86498 -2.04757,3.86498c0,0 -1.46196,2.68788 -5.88234,3.37528c-4.83667,0.75211 -16.53717,0.05666 -28.60069,-0.69766z" fill="#582700" stroke="#000000" stroke-width="2.5" stroke-linecap="round"/><g data-paper-data="{&quot;index&quot;:null}"><g data-paper-data="{&quot;origRot&quot;:0}" stroke="#000000" stroke-width="3" stroke-linecap="round"><path d="M265.24868,252.55505c0.01358,2.45277 -9.29518,0.86989 -9.29518,0.86989c0,0 -24.73948,-3.5375 -36.43092,-5.16152c-4.8134,-1.36634 -6.18951,-40.37063 -1.98615,-44.56329c1.87371,-1.86894 12.28499,-3.96371 13.87313,-2.55519c3.02292,2.68099 8.40058,18.86405 8.40058,18.86405l-4.48382,0.16685l11.79023,0.62824c0,0 13.77043,-0.40623 19.59349,0.94828c3.22953,0.75122 -1.46136,30.8027 -1.46136,30.8027z" data-paper-data="{&quot;origPos&quot;:null}" fill="#582700"/><path d="M254.62122,251.64352l1.22438,-30.03021" fill="none"/><path d="M250.30648,251.6798l0.91704,-30.04804" data-paper-data="{&quot;origPos&quot;:null}" fill="none"/></g><path d="M254.40463,252.2551l-3.01837,-0.15753l1.04544,-30.72927l3.01838,0.15753z" fill="#ffffff" stroke="none" stroke-width="0" stroke-linecap="butt"/><path d="M219.20609,248.40277l-3.23847,-10.76351l-0.36482,-24.03139l1.93115,-8.26114l3.93681,-3.50527l8.05838,-0.00142l1.61167,-0.00028l7.70123,17.02093l-3.21676,0.25089l0.05279,2.00261l14.25626,0.74847l-0.00744,30.28965l-29.11574,-4.00013z" fill="#66c8ff" stroke="#000000" stroke-width="0.5" stroke-linecap="round"/></g><path d="M269.51465,160.75461l-0.6998,-0.54202c-0.08858,-0.03297 -0.17711,-0.06544 -0.26564,-0.09744c-0.22939,0.30532 -0.66941,0.65652 -1.39781,0.39363c-0.67135,-0.24231 -0.821,-0.72959 -0.82585,-1.1031c-2.60998,-0.7283 -5.23163,-1.11499 -7.98635,-1.43547c-7.72096,-0.63181 -15.47501,-0.66328 -23.21866,-0.85412c-2.53956,-0.06258 -8.24898,0.81901 -10.32839,-0.91963c-1.01411,-0.84793 -0.56191,-2.76775 -0.63637,-3.82303c-0.21575,-3.05795 -0.50699,-6.22565 -0.44291,-9.29265c0.11057,-4.0082 -1.29994,-7.62491 -1.70745,-11.56897c-0.20429,-1.97729 -0.82261,-3.97528 0.98352,-5.63481c0.50996,-0.46857 1.37711,-0.16631 2.06941,-0.18502c2.53014,-0.06835 4.97121,0.16548 7.46301,0.52528c7.89653,1.14016 15.71461,1.85557 23.54498,3.47953c3.15866,0.65893 6.35558,0.80753 9.57613,0.99695c1.89279,0.11133 3.63457,-0.38616 4.71322,1.80733c0.64413,1.30991 0.04381,5.30028 -0.04727,6.78049c-0.35127,5.70766 0.37278,12.74389 -0.97154,18.4606c0.11615,0.04156 0.23233,0.08389 0.34856,0.12699l1.26675,0.84018c0,0 1.02267,0.71879 0.30387,1.74146c-0.71879,1.02267 -1.74146,0.30387 -1.74146,0.30387z" data-paper-data="{&quot;index&quot;:null}" fill="#000000" stroke="none" stroke-width="0.5" stroke-linecap="butt"/><path d="M240.75439,174.63747c0.54697,-0.00696 1.02839,2.98035 1.07532,6.6723c0.04693,3.69195 -0.3584,6.69051 -0.90538,6.69745c-0.54697,0.00696 -1.02839,-2.98034 -1.07533,-6.6723c-0.04693,-3.69195 0.35839,-6.69053 0.90537,-6.69747z" data-paper-data="{&quot;index&quot;:null}" fill="none" stroke="#000000" stroke-width="2.5" stroke-linecap="butt"/><path d="M243.61253,172.6449c0.57995,1.10732 -0.52736,1.68727 -0.52736,1.68727l-0.7354,0.36538c-1.20969,0.91648 -1.87737,1.33388 -2.7518,1.51111l0.07634,0.21411l-1.28494,0.45819c-0.14801,0.0567 -0.30934,0.086 -0.47761,0.08185c-0.69015,-0.01701 -1.23583,-0.59027 -1.21883,-1.28041c0.00983,-0.39894 0.20553,-0.7496 0.50223,-0.97122l1.01022,-0.76814l0.02039,0.0268l0.04224,-0.07146c0.86987,-0.50783 1.74484,-1.00719 2.6271,-1.49319c0,0 0.36762,-0.20248 0.79415,-0.15976l0.23605,-0.12791c0,0 1.10732,-0.57995 1.68727,0.52736z" fill="#582700" stroke="none" stroke-width="0.5" stroke-linecap="butt"/><path d="M250.24905,174.9715c0.54698,-0.00696 1.02838,2.98036 1.07532,6.67231c0.04694,3.69195 -0.3584,6.69051 -0.90539,6.69745c-0.54698,0.00696 -1.02839,-2.98034 -1.07533,-6.6723c-0.04694,-3.69195 0.3584,-6.69052 0.90537,-6.69747z" data-paper-data="{&quot;index&quot;:null}" fill="none" stroke="#000000" stroke-width="2.5" stroke-linecap="butt"/><path d="M249.55349,172.70564l0.22945,0.13938c0.42811,-0.02164 0.78531,0.19869 0.78531,0.19869c0.85725,0.52887 1.70655,1.07072 2.55035,1.62078l0.03867,0.07345l0.02169,-0.02577l0.97115,0.81696c0.28542,0.23595 0.46362,0.59584 0.45379,0.99479c-0.01701,0.69015 -0.59027,1.23583 -1.28041,1.21883c-0.16829,-0.00415 -0.32797,-0.04137 -0.47301,-0.10528l-1.26081,-0.52094l0.08681,-0.21008c-0.86465,-0.22008 -1.51096,-0.66986 -2.67403,-1.64482l-0.71653,-0.40117c0,0 -1.07741,-0.63379 -0.44362,-1.7112c0.63379,-1.07741 1.7112,-0.44362 1.7112,-0.44362z" data-paper-data="{&quot;index&quot;:null}" fill="#582700" stroke="none" stroke-width="0.5" stroke-linecap="butt"/><g data-paper-data="{&quot;index&quot;:null}" stroke="#000000" stroke-width="1.25" stroke-linecap="butt"><g data-paper-data="{&quot;index&quot;:null}" fill="#000000"><path d="M252.25075,191.08192c10.00131,-0.05594 6.3602,3.86895 6.3602,3.86895l-12.52936,0.23173c0,0 -3.22395,-3.96003 6.16916,-4.10068z"/></g><g data-paper-data="{&quot;index&quot;:null}" fill="#ffffff"><path d="M252.25075,191.08192c10.00131,-0.05594 6.3602,3.86895 6.3602,3.86895c0,0 -8.4765,0.15677 -10.59185,0.19589c-0.00292,0.00005 0.65539,-0.98195 0.62907,-1.95118c-0.02155,-0.79384 -0.7313,-1.60947 -0.71337,-1.61452c1.00112,-0.2818 2.39458,-0.47038 4.31595,-0.49915z"/></g></g></g></g></svg>