<svg version="1.1" xmlns="http://www.w3.org/2000/svg" xmlns:xlink="http://www.w3.org/1999/xlink" width="95.86394" height="95.86394" viewBox="0,0,95.86394,95.86394"><g transform="translate(-192.06803,-132.06803)"><g data-paper-data="{&quot;isPaintingLayer&quot;:true}" fill-rule="nonzero" stroke-linejoin="miter" stroke-miterlimit="10" stroke-dasharray="" stroke-dashoffset="0" style="mix-blend-mode: normal"><path d="M192.06803,227.93197v-95.86394h95.86394v95.86394z" fill="none" stroke="none" stroke-width="0" stroke-linecap="butt"/><g><g stroke="#000000"><path d="M239.17116,203.00858l1.61194,2.98507c0,0 -3.67439,1.6812 -5.17791,2.14213c-0.90221,0.27659 -3.0012,0.36533 -3.0012,0.36533l-1.67164,-1.85075l-0.77612,2.32836c0,0 -6.45258,5.24074 -9.14627,6.66269c-2.14142,1.13041 -5.7791,0.8 -5.7791,0.8l-1.61194,-1.25373l-0.2388,1.31344c0,0 -2.54189,-0.37299 -3.88539,-0.75947c-1.44775,-0.41646 -4.51176,-1.65607 -4.51176,-1.65607l-2.58792,-5.88297c0,0 3.84996,-3.04838 7.43103,-3.68685c20.74677,-3.69893 29.34509,-1.50718 29.34509,-1.50718z" fill="#f68386" stroke-width="0" stroke-linecap="round"/><path d="M239.17116,203.00858l1.61194,2.98507c0,0 -3.67439,1.6812 -5.17791,2.14213c-0.90221,0.27659 -3.0012,0.36533 -3.0012,0.36533l-1.67164,-1.85075l-0.77612,2.32836c0,0 -6.45258,5.24074 -9.14627,6.66269c-0.79142,0.41777 -1.78721,0.63602 -2.72821,0.74515c0.14421,-0.20378 0.22896,-0.45263 0.22896,-0.72127c0,-0.05355 -0.00337,-0.10631 -0.0099,-0.15809c0.07189,-0.23472 0.17552,-0.47537 0.3894,-0.70547c3.31307,-3.5643 5.20803,-5.11883 5.47125,-10.43216c0.01682,-0.33955 0.17829,-1.01844 0.28923,-1.76555c10.1144,-0.71857 14.52047,0.40455 14.52047,0.40455z" fill="#e86597" stroke-width="0" stroke-linecap="butt"/><path d="M239.17116,203.00858l1.61194,2.98507c0,0 -3.67438,1.6812 -5.17791,2.14213c-0.90221,0.27659 -3.00119,0.36533 -3.00119,0.36533l-1.67164,-1.85075l-0.77612,2.32836c0,0 -6.45257,5.24074 -9.14627,6.66269c-2.14142,1.13041 -5.7791,0.8 -5.7791,0.8l-1.61194,-1.25373l-0.23881,1.31343c0,0 -2.54189,-0.37299 -3.88539,-0.75947c-1.44775,-0.41646 -4.51177,-1.65607 -4.51177,-1.65607l-2.58792,-5.88297c0,0 3.84995,-3.04838 7.43103,-3.68684c20.74677,-3.69893 29.34509,-1.50718 29.34509,-1.50718z" fill="none" stroke-width="1" stroke-linecap="round"/></g><g stroke="#000000" stroke-width="1"><path d="M254.15622,178.29216c3.09939,0 6.08955,2.39315 6.08955,5.49254c0,3.09939 -3.04986,6.26866 -6.14925,6.26866c-3.09939,0 -3.03969,-11.76119 0.0597,-11.76119z" fill="#d90250" stroke-linecap="butt"/><path d="M255.05175,174.82947c0,0 1.1574,1.41688 2.74496,1.52728c1.16609,0.08109 3.82221,-1.58699 3.82221,-1.58699c0,0 0.25471,2.65072 0.7256,3.35706c0.38898,0.58347 1.48335,0.52354 1.48335,0.52354c0,0 0.05533,2.62145 0.33442,3.84517c0.22785,0.99905 1.21782,2.9608 1.21782,2.9608c0,0 -1.86753,0.17055 -2.49673,0.53839c-0.6626,0.38737 -1.56297,1.25266 -1.56297,1.25266c0,0 -1.75569,-4.05379 -2.62616,-4.55406c-0.86076,-0.49469 -2.56787,1.56899 -2.56787,1.56899c0,0 -0.23624,-2.89688 -0.64038,-3.62433c-0.4787,-0.86166 -2.04618,-1.21149 -2.04618,-1.21149z" fill="#feecf7" stroke-linecap="round"/></g><g stroke="#000000"><path d="M218.63384,196.97872c0,0 -1.82069,-3.89007 -2.25424,-4.9017c-0.19789,-0.46175 -0.07863,-1.06076 0.24189,-1.25684c2.03362,-1.24411 9.94203,-5.88452 16.40798,-6.93577c7.1401,-1.16085 20.05214,4.557 20.05214,4.557l-1.61194,13.01493z" fill="#4fa7ed" stroke-width="0" stroke-linecap="round"/><path d="M233.02947,183.88441c7.1401,-1.16085 20.05214,4.557 20.05214,4.557l-1.61194,13.01493l-10.65211,-5.46884l-3.22121,-3.46893l-2.01154,1.56341l-3.15135,-4.69651l-1.2527,1.32308c0,0 -0.34935,4.76828 -0.86132,4.3283c-1.19816,-1.02968 -2.29084,-1.63918 -3.83915,-3.00481c-0.99012,-0.8733 -2.90698,-3.55774 -4.02542,-4.40962c3.17887,-1.55941 7.08661,-3.17092 10.5746,-3.738z" fill="#2e67e5" stroke-width="0" stroke-linecap="butt"/><path d="M218.63384,196.97872c0,0 -1.82069,-3.89007 -2.25425,-4.9017c-0.19789,-0.46174 -0.07863,-1.06076 0.24189,-1.25685c2.03362,-1.24411 9.94203,-5.88452 16.40798,-6.93577c7.14009,-1.16085 20.05214,4.557 20.05214,4.557l-1.61194,13.01493z" fill="none" stroke-width="1" stroke-linecap="round"/></g><g stroke="#000000" stroke-linecap="round"><path d="M223.33494,192.76796c1.11164,0.18949 3.03117,4.37961 3.03117,4.37961c0,0 2.8928,-3.70869 4,-3.5c5.24004,0.98768 7.86517,9.77544 7.86517,9.77544c0,0 -2.59631,1.06604 -4.11826,1.39786c-1.89313,0.41273 -6.37191,0.8892 -6.37191,0.8892c0,0 -10.62967,10.85346 -21.80517,5.17665c-0.72988,-0.37075 -0.71619,-4.79318 0.89321,-6.9556c1.23162,-1.65483 3.54188,-2.19123 5.15,-3.26959c2.19904,-1.47461 3.63696,-3.13896 3.63696,-3.13896l-0.25,-2.25c0,0 5.96754,-2.84574 7.96883,-2.50461z" fill="#000000" stroke-width="0"/><path d="M223.33495,192.76796c0.68205,0.11626 1.66824,1.73856 2.3286,2.97506c-0.12027,0.81717 0.07854,1.62831 0.74746,2.29129c1.78224,1.76644 5.15828,1.72059 7.09789,0.31852c0.40865,-0.2954 0.81302,-1.15256 0.98916,-2.01705c2.48771,2.91776 3.73324,7.08722 3.73324,7.08722c0,0 -2.59631,1.06604 -4.11826,1.39786c-1.89312,0.41273 -6.37191,0.8892 -6.37191,0.8892c0,0 -10.62968,10.85347 -21.80517,5.17665c-0.72987,-0.37075 -0.71618,-4.79318 0.89321,-6.9556c1.23163,-1.65484 3.54188,-2.19124 5.15,-3.26959c2.19904,-1.47461 3.63696,-3.13896 3.63696,-3.13896l-0.25,-2.25c0,0 5.96753,-2.84574 7.96883,-2.50461z" fill="#f27056" stroke-width="0"/><path d="M223.33495,192.76796c0.16417,0.02798 0.34597,0.14323 0.5366,0.31935c-0.03896,0.04802 -0.07442,0.09899 -0.10602,0.15252c-1.15584,0.66048 0.73502,6.54113 1.49518,6.54113c0.78703,0 1.17257,-0.67887 1.2829,-1.62115c0.95692,0.86463 2.31713,1.25142 3.66659,1.22268c-0.22252,0.06516 -0.42715,0.13856 -0.59439,0.22901c-3.1337,1.69485 -5.73859,4.16543 -8.99441,5.816c-1.1783,0.59735 -3.43,0.88896 -3.86634,2.41453c-0.35599,1.24464 -0.84677,2.92359 -0.26481,4.24111c-3.21432,0.75058 -6.8544,0.68302 -10.5543,-1.19642c-0.72987,-0.37075 -0.71618,-4.79318 0.89321,-6.9556c1.23163,-1.65484 3.54188,-2.19124 5.15,-3.26959c2.19904,-1.47461 3.63696,-3.13896 3.63696,-3.13896l-0.25,-2.25c0,0 5.96753,-2.84574 7.96883,-2.50461z" fill="#f79d58" stroke-width="0"/><path d="M215.3661,195.27255c0,0 5.96753,-2.84573 7.96882,-2.5046c1.11165,0.18948 3.03118,4.3796 3.03118,4.3796c0,0 2.8928,-3.70869 4,-3.5c5.24004,0.98767 7.86517,9.77544 7.86517,9.77544c0,0 -2.59631,1.06605 -4.11826,1.39786c-1.89312,0.41274 -6.3719,0.8892 -6.3719,0.8892c0,0 -10.62968,10.85348 -21.80518,5.17666c-0.72988,-0.37075 -0.71617,-4.79318 0.89322,-6.9556c1.23163,-1.65483 3.54188,-2.19123 5.15,-3.26959c2.19903,-1.47461 3.63696,-3.13896 3.63696,-3.13896l-0.25,-2.25z" fill="none" stroke-width="1"/></g><g><g stroke="#000000"><path d="M236.24578,206.71008c0,0 9.4826,-2.0272 15.64274,-2.24126c6.16015,-0.21406 15.28263,1.16663 15.28263,1.16663c0,0 0.31433,4.93493 -0.83892,8.44964c-0.55491,1.69118 -4.77302,4.14738 -4.77302,4.14738l-1.85074,-1.13432l0.2985,1.91044c0,0 -4.19017,1.32534 -6.24803,1.68976c-1.6902,0.29931 -5.21465,0.34009 -5.21465,0.34009l-0.47761,-1.49254l-1.25373,1.43284c0,0 -6.39089,-0.1721 -8.86432,-4.64562c-0.45884,-0.82987 -0.88329,-2.37626 -1.01348,-3.82418c-0.18072,-2.00989 0.03955,-3.88538 0.03955,-3.88538z" fill="#f28184" stroke-width="0" stroke-linecap="round"/><path d="M267.17116,205.63544c0,0 0.31433,4.93493 -0.83892,8.44964c-0.55491,1.69118 -4.77302,4.14738 -4.77302,4.14738l-1.85074,-1.13432l0.2985,1.91044c0,0 -3.1042,0.98185 -5.28112,1.48774c0.71393,-0.56163 1.33596,-1.14399 1.61833,-1.36191c4.26272,-3.28978 5.82738,-8.90875 4.17434,-14.29359c3.68928,0.34613 6.65262,0.79463 6.65262,0.79463z" fill="#e86597" stroke-width="0" stroke-linecap="butt"/><path d="M236.24578,206.71006c0,0 9.4826,-2.0272 15.64274,-2.24126c6.16015,-0.21406 15.28263,1.16663 15.28263,1.16663c0,0 0.31434,4.93494 -0.83892,8.44963c-0.55492,1.69118 -4.77302,4.14738 -4.77302,4.14738l-1.85075,-1.13433l0.29851,1.91045c0,0 -4.19017,1.32534 -6.24804,1.68976c-1.6902,0.29931 -5.21465,0.34009 -5.21465,0.34009l-0.47761,-1.49254l-1.25373,1.43284c0,0 -6.3909,-0.1721 -8.86433,-4.64562c-0.45884,-0.82987 -0.88329,-2.37626 -1.01348,-3.82419c-0.18072,-2.00989 0.03955,-3.88538 0.03955,-3.88538z" fill="none" stroke-width="1" stroke-linecap="round"/></g><g stroke="#000000" stroke-linecap="round"><path d="M240.54431,196.68024c0,0 1.69644,-1.53689 4.2819,-2.03912c6.34324,-1.23219 8.61362,-1.06536 8.61362,-1.06536l2.38806,3.16418l1.31343,-2.80597c0,0 2.57649,1.78372 3.24107,2.24382c0.29522,0.20438 0.56405,0.74462 0.49202,1.03274c-0.19727,0.78905 -1.10623,4.42493 -1.10623,4.42493c0,0 5.54943,1.75415 4.99412,6.99849c-0.63384,5.9861 -8.21364,7.6945 -9.92292,8.07722c-18.98603,4.25109 -15.54881,-9.10557 -15.54881,-9.10557c0,0 -3.73781,-5.4198 -4.40089,-6.38128c-0.19362,-0.28075 -0.27647,-0.65642 -0.11592,-0.83892c0.60033,-0.6824 2.06448,-2.34603 2.4589,-2.78779c0.2095,-0.23465 0.78561,-0.05429 1.05695,0.16707c0.41882,0.34167 1.47856,1.423 1.47856,1.423z" fill="#000000" stroke-width="0"/><path d="M240.5443,196.68023c0,0 1.69644,-1.53689 4.2819,-2.03912c6.34324,-1.23219 8.61362,-1.06536 8.61362,-1.06536l2.38806,3.16418l0.13875,-0.29642c0.57807,1.97216 4.16643,5.36257 4.22747,5.35341c1.28841,0.53787 5.02887,2.48652 4.56821,6.83703c-0.63385,5.9861 -8.21364,7.6945 -9.92292,8.07722c-18.98603,4.2511 -15.54881,-9.10557 -15.54881,-9.10557c0,0 -1.39746,-2.02631 -2.635,-3.82075c0.98813,0.53182 2.22223,0.82634 3.6004,0.72033c2.71224,-0.20863 1.50076,-4.50423 -0.03641,-6.77579z" fill="#f27056" stroke-width="0"/><path d="M240.5443,196.68023c0,0 1.69644,-1.53689 4.2819,-2.03912c6.34324,-1.23219 8.61362,-1.06536 8.61362,-1.06536l0.32483,0.43039c-0.69712,2.37981 -1.37329,5.65304 0.23362,8.50536c1.0002,1.77539 4.38437,3.82657 4.62192,4.05822c-0.05553,1.31168 -0.5121,2.64572 -0.6592,3.95347c-0.01862,0.10853 -0.03024,0.21945 -0.03438,0.33228c-3.76696,0.10153 -8.35566,0.69419 -10.5831,3.77049c-0.55777,0.77034 -0.67798,1.56591 -0.52234,2.29103c-0.0005,0.02052 -0.00075,0.0411 -0.00075,0.06173c0,0.17789 0.01858,0.35145 0.05391,0.51883c-9.93603,-0.75127 -7.58376,-9.89196 -7.58376,-9.89196c0,0 -1.39746,-2.02631 -2.63501,-3.82075c0.98813,0.53183 2.22223,0.82635 3.6004,0.72033c2.71224,-0.20864 1.50076,-4.50423 -0.03641,-6.7758z" fill="#f79d58" stroke-width="0"/><path d="M240.54431,196.68024c0,0 1.69644,-1.53689 4.2819,-2.03912c6.34324,-1.23219 8.61362,-1.06536 8.61362,-1.06536l2.38806,3.16418l1.31343,-2.80597c0,0 2.57648,1.78372 3.24107,2.24382c0.29521,0.20438 0.56405,0.74462 0.49202,1.03274c-0.19726,0.78905 -1.10623,4.42493 -1.10623,4.42493c0,0 5.54943,1.75415 4.99412,6.99849c-0.63384,5.9861 -8.21364,7.6945 -9.92292,8.07722c-18.98603,4.25109 -15.54881,-9.10557 -15.54881,-9.10557c0,0 -3.73781,-5.4198 -4.40089,-6.38128c-0.19362,-0.28075 -0.27647,-0.65642 -0.11592,-0.83892c0.60033,-0.6824 2.06448,-2.34603 2.4589,-2.78779c0.2095,-0.23465 0.78561,-0.05429 1.05695,0.16707c0.41882,0.34167 1.47856,1.423 1.47856,1.423z" fill="none" stroke-width="1"/></g><g stroke-linecap="butt"><path d="M252.01512,198.66039c0.23717,0.71151 -0.47434,0.94868 -0.47434,0.94868l-0.72418,0.24087c-0.61344,0.25258 -1.16811,0.5985 -1.68033,1.0042c1.01815,0.08199 2.04013,0.10592 3.04234,0.10592h0.48614c0.14227,-0.03341 0.31078,-0.02434 0.49204,0.08325c0.13064,0.06044 0.26482,0.16475 0.33884,0.34479c0.09004,0.17259 0.0834,0.34242 0.04548,0.48127c-0.03485,0.21031 -0.13838,0.34574 -0.25726,0.43295c-0.34558,0.39735 -0.71093,0.74813 -1.08729,1.07078c0.77569,0.06214 1.55109,0.12915 2.3257,0.2052c0.06525,0.00081 0.1362,0.00987 0.21326,0.02913c0.22416,0.05604 0.362,0.16388 0.44543,0.28628c0.08701,0.11987 0.14194,0.28604 0.11895,0.51596c-0.01632,0.16322 -0.06477,0.28717 -0.13051,0.38122l-0.1208,0.29588c-0.42743,0.47229 -0.88844,0.92378 -1.37469,1.35574c0.50447,0.01299 1.00652,0.01939 1.50472,0.01754l0.40697,-0.05671c0,0 0.74421,-0.09303 0.83723,0.65118c0.09303,0.74421 -0.65118,0.83723 -0.65118,0.83723l-0.59303,0.06829c-1.08309,-0.00341 -2.18044,-0.03947 -3.28083,-0.09475c-1.57892,1.1497 -3.2945,2.14125 -4.93075,3.00759c0,0 -0.66284,0.35092 -1.01376,-0.31193c-0.35092,-0.66284 0.31193,-1.01376 0.31193,-1.01376c1.04584,-0.55362 2.13416,-1.15984 3.19453,-1.8304c-0.84722,-0.05886 -1.69134,-0.12325 -2.52723,-0.18702c-0.14996,0.02137 -0.32441,-0.00242 -0.49645,-0.13522c-0.1233,-0.07545 -0.24222,-0.19537 -0.29392,-0.38537c-0.0705,-0.18385 -0.04537,-0.35085 0.00956,-0.48456c0.06149,-0.21258 0.19175,-0.33543 0.32805,-0.40619l0.26332,-0.21917c0.45711,-0.50774 0.94301,-0.93491 1.44212,-1.32734c-0.77419,-0.05663 -1.54747,-0.11438 -2.31885,-0.17697l-0.16492,0.00137c-0.14159,0.03475 -0.3098,0.02701 -0.49282,-0.07831c-0.13102,-0.05888 -0.26696,-0.16134 -0.34328,-0.33965c-0.09156,-0.17099 -0.08665,-0.34114 -0.05078,-0.48023c0.03172,-0.2063 0.12885,-0.34174 0.24272,-0.43065c0.3117,-0.38915 0.62577,-0.77817 0.94822,-1.15857c-0.66328,-0.14592 -1.31653,-0.32822 -1.95411,-0.55506c0,0 -0.70631,-0.25225 -0.45405,-0.95856c0.25225,-0.70631 0.95856,-0.45405 0.95856,-0.45405c0.85101,0.3052 1.73411,0.52187 2.6324,0.67449c0.89876,-0.8934 1.89911,-1.66456 3.10236,-2.17056l0.77582,-0.25913c0,0 0.71151,-0.23717 0.94868,0.47434zM250.03972,203.20958c0.32645,-0.24146 0.65053,-0.49163 0.9681,-0.76267c-1.09396,-0.02597 -2.19813,-0.0943 -3.28877,-0.2392c-0.22966,0.25418 -0.4523,0.51542 -0.67018,0.77909c0.99591,0.07856 1.99322,0.14985 2.99085,0.22279zM248.59327,206.15417c0.94457,0.07188 1.89712,0.14014 2.84843,0.19389c0.57927,-0.44076 1.13383,-0.90584 1.64982,-1.39756c-0.89396,-0.07906 -1.78949,-0.14917 -2.68506,-0.21603c-0.62285,0.44731 -1.23921,0.89541 -1.8132,1.4197z" fill="#feecf7" stroke="none" stroke-width="0.5"/><path d="M252.01514,198.66041c0.23717,0.71151 -0.47434,0.94868 -0.47434,0.94868l-0.72418,0.24086c-0.61344,0.25258 -1.16812,0.5985 -1.68034,1.00421c1.01816,0.08199 2.04012,0.10592 3.04234,0.10592h0.48615c0.14227,-0.03341 0.31078,-0.02434 0.49204,0.08326c0.13064,0.06044 0.26481,0.16475 0.33883,0.34479c0.09004,0.17259 0.0834,0.34242 0.04548,0.48127c-0.03485,0.21031 -0.13837,0.34574 -0.25726,0.43295c-0.34558,0.39735 -0.71093,0.74813 -1.08729,1.07078c0.77569,0.06214 1.55109,0.12914 2.3257,0.2052c0.06526,0.00081 0.13619,0.00987 0.21326,0.02913c0.22416,0.05604 0.362,0.16388 0.44543,0.28628c0.08702,0.11987 0.14194,0.28604 0.11895,0.51595c-0.01632,0.16321 -0.06477,0.28717 -0.13051,0.38122l-0.1208,0.29587c-0.42743,0.47229 -0.88844,0.92378 -1.3747,1.35574c0.50448,0.01299 1.00652,0.01939 1.50472,0.01754l0.40698,-0.05671c0,0 0.74421,-0.09303 0.83723,0.65118c0.09303,0.74421 -0.65118,0.83723 -0.65118,0.83723l-0.59303,0.0683c-1.08309,-0.00341 -2.18043,-0.03948 -3.28083,-0.09476c-1.57891,1.1497 -3.2945,2.14126 -4.93075,3.00759c0,0 -0.66285,0.35092 -1.01376,-0.31192c-0.35091,-0.66284 0.31193,-1.01376 0.31193,-1.01376c1.04584,-0.55362 2.13416,-1.15984 3.19454,-1.8304c-0.84722,-0.05886 -1.69134,-0.12325 -2.52723,-0.18702c-0.14996,0.02137 -0.32441,-0.00242 -0.49645,-0.13522c-0.1233,-0.07545 -0.24221,-0.19537 -0.29391,-0.38536c-0.0705,-0.18385 -0.04538,-0.35085 0.00956,-0.48456c0.06149,-0.21258 0.19175,-0.33544 0.32805,-0.4062l0.26332,-0.21917c0.45711,-0.50774 0.94302,-0.9349 1.44212,-1.32734c-0.77419,-0.05663 -1.54747,-0.11438 -2.31885,-0.17697l-0.16493,0.00136c-0.14159,0.03475 -0.30979,0.02702 -0.49281,-0.07831c-0.13102,-0.05888 -0.26696,-0.16134 -0.34328,-0.33965c-0.09157,-0.17098 -0.08666,-0.34114 -0.05078,-0.48023c0.03171,-0.2063 0.12886,-0.34174 0.24273,-0.43066c0.3117,-0.38916 0.62577,-0.77817 0.94822,-1.15857c-0.66328,-0.14592 -1.31653,-0.32822 -1.95411,-0.55505c0,0 -0.70631,-0.25225 -0.45406,-0.95856c0.25225,-0.7063 0.95856,-0.45405 0.95856,-0.45405c0.85101,0.30521 1.73411,0.52187 2.6324,0.67449c0.89876,-0.8934 1.8991,-1.66456 3.10236,-2.17056l0.77582,-0.25914c0,0 0.71152,-0.23716 0.94869,0.47435zM250.03973,203.20958c0.32646,-0.24145 0.65053,-0.49163 0.9681,-0.76268c-1.09395,-0.02596 -2.19813,-0.0943 -3.28877,-0.2392c-0.22967,0.25417 -0.4523,0.51542 -0.67018,0.77909c0.99591,0.07855 1.99322,0.14986 2.99085,0.22279zM248.59327,206.15415c0.94457,0.07187 1.89712,0.14014 2.84843,0.19389c0.57926,-0.44076 1.13383,-0.90584 1.64983,-1.39755c-0.89397,-0.07907 -1.7895,-0.14917 -2.68506,-0.21604c-0.62285,0.4473 -1.2392,0.89541 -1.81319,1.41969z" fill="none" stroke="#000000" stroke-width="1"/></g></g><path d="M243.76816,191.6653c0,0 -7.31502,-3.79018 -10.34564,-5.28224c-0.47759,-0.23513 -1.99658,1.29289 -2.40892,1.01181c-3.0877,-2.10478 -4.37976,-5.22211 -4.37976,-5.22211c0,0 0.9002,-1.0058 2.43661,-2.20653c1.37736,-1.07643 3.3598,-2.30952 4.11368,-3.11504c1.19119,-1.27278 2.16613,-3.99186 2.16613,-3.99186l17.01493,-2.50747c0,0 3.11513,1.36121 3.02529,3.58613c-0.13111,3.2468 -2.61001,8.23452 -2.26393,10.48735c0.24763,1.61195 1.82064,3.06369 2.68121,4.50569c0.24442,0.40955 0.52298,1.34817 0.09109,2.26198c-0.53505,1.13207 -1.90504,2.22607 -2.75432,2.22897c-8.35569,0.02848 -9.37636,-1.75669 -9.37636,-1.75669z" fill="#ff292e" stroke="#000000" stroke-width="0" stroke-linecap="round"/><path d="M253.12656,184.42534c0.24764,1.61195 1.82064,3.06369 2.68121,4.50569c0.24442,0.40956 0.52298,1.34817 0.09109,2.26198c-0.53504,1.13207 -1.90504,2.22607 -2.75432,2.22897c-8.35569,0.02848 -9.37636,-1.75669 -9.37636,-1.75669c0,0 -3.26926,-2.27739 -6.75656,-3.36615c0.5437,-1.0021 1.63887,-2.75368 3.85655,-4.96664c1.95475,-1.95059 4.3118,-3.13264 4.38747,-3.1593c-0.18829,0.39712 -0.29617,0.85162 -0.29617,1.38362c0,1.48597 -1.92311,3.58974 -1.29435,4.69008c0.27766,0.48591 0.07109,0.878 0.70046,1.16904c1.78133,0.82375 5.23652,0.83802 6.37811,-0.12107c0.95188,-0.79971 -0.1655,-3.54003 -0.1655,-3.54003c0.34958,-0.69915 1.0503,-2.3068 2.03633,-3.30443c0.38972,-0.39431 0.92477,-0.08882 1.34751,-0.51109c-0.54324,1.78769 -0.99698,3.43466 -0.83547,4.486z" fill="#d90250" stroke="#000000" stroke-width="0" stroke-linecap="butt"/><g stroke-linecap="butt"><path d="M216.04802,206.31268c-0.72761,0.1819 -0.90951,-0.54571 -0.90951,-0.54571l-0.06569,-0.26326c-0.1259,-0.62516 -0.46725,-1.1545 -0.86716,-1.66463c-0.79831,-0.03169 -1.58565,-0.06651 -2.33955,-0.06651h-0.75c0,0 -0.75,0 -0.75,-0.75c0,-0.75 0.75,-0.75 0.75,-0.75h0.75c0.36531,0 0.74208,0.01032 1.12639,0.02543c-0.18815,-0.28534 -0.34985,-0.58615 -0.4629,-0.91326c0,0 -0.13866,-0.41597 0.11412,-0.71782c0.13536,-0.51935 0.72239,-0.51935 0.72239,-0.51935l0.0017,0.0102c0.49569,-0.08103 0.99433,-0.14054 1.49507,-0.18531c-0.09988,-0.06975 -0.2005,-0.13986 -0.30186,-0.21047c0,0 -0.61442,-0.4301 -0.18433,-1.04452c0.4301,-0.61442 1.04452,-0.18433 1.04452,-0.18433c0.62852,0.44183 1.23478,0.86818 1.81953,1.31106c1.23703,-0.03706 2.47851,-0.04972 3.71181,-0.1375c-1.32106,-0.82298 -2.69925,-1.18414 -4.33643,-1.18414c0,0 -0.75,0 -0.75,-0.75c0,-0.75 0.75,-0.75 0.75,-0.75c0.02924,0 0.05842,0.00011 0.08753,0.00033l0.60061,0.00223c1.80244,-0.30503 3.38974,-0.27015 4.83693,-1.45802c0,0 0.58047,-0.47493 1.0554,0.10554c0.47493,0.58047 -0.10554,1.0554 -0.10554,1.0554c-0.74813,0.61033 -1.51165,0.96261 -2.30959,1.19424c0.75213,0.35614 1.4751,0.81994 2.18459,1.39482l0.27922,0.37739c0.10436,0.08837 0.19156,0.22161 0.22991,0.42163c0.03416,0.13321 0.04487,0.30229 -0.03422,0.46934c-0.07176,0.17033 -0.2049,0.2751 -0.32695,0.33846c-0.15978,0.09588 -0.30515,0.124 -0.43247,0.11366c-1.22777,0.1618 -2.47671,0.20701 -3.72686,0.23884c0.33173,0.31181 0.65568,0.64199 0.97201,0.99786l0.02279,0.06747c0.06086,0.07847 0.11144,0.18014 0.14426,0.3114c0.07563,0.30254 -0.00598,0.51073 -0.12714,0.65073c-0.0927,0.13196 -0.24288,0.24736 -0.48616,0.27493c-1.11269,0.26136 -2.31556,0.32068 -3.5306,0.30975c0.25255,0.37998 0.46319,0.79335 0.58459,1.27784l0.05931,0.23674c0,0 0.1819,0.72761 -0.54571,0.90951zM217.89478,202.3356c-0.37635,-0.35366 -0.7627,-0.68097 -1.16063,-0.99517c-0.84496,0.03546 -1.68504,0.09294 -2.51398,0.20474c0.15739,0.29841 0.34619,0.57177 0.54806,0.83469c1.05509,0.04481 2.12161,0.06446 3.12656,-0.04426z" fill="#feecf7" stroke="none" stroke-width="0.5"/><path d="M216.04803,206.31268c-0.72761,0.1819 -0.90951,-0.5457 -0.90951,-0.5457l-0.06569,-0.26326c-0.1259,-0.62516 -0.46725,-1.1545 -0.86716,-1.66463c-0.79832,-0.03169 -1.58566,-0.06651 -2.33955,-0.06651h-0.75c0,0 -0.75,0 -0.75,-0.75c0,-0.75 0.75,-0.75 0.75,-0.75h0.75c0.36531,0 0.74209,0.01032 1.1264,0.02542c-0.18815,-0.28534 -0.34985,-0.58614 -0.4629,-0.91325c0,0 -0.13866,-0.41597 0.11412,-0.71782c0.13536,-0.51935 0.72239,-0.51935 0.72239,-0.51935l0.00171,0.0102c0.49569,-0.08103 0.99433,-0.14055 1.49507,-0.18531c-0.09989,-0.06975 -0.2005,-0.13986 -0.30187,-0.21047c0,0 -0.61442,-0.4301 -0.18433,-1.04453c0.43009,-0.61442 1.04452,-0.18433 1.04452,-0.18433c0.62851,0.44182 1.23478,0.86818 1.81952,1.31106c1.23703,-0.03706 2.47851,-0.04973 3.71181,-0.1375c-1.32106,-0.82297 -2.69926,-1.18413 -4.33644,-1.18413c0,0 -0.75,0 -0.75,-0.75c0,-0.75 0.75,-0.75 0.75,-0.75c0.02923,0 0.05841,0.00011 0.08754,0.00032l0.60061,0.00223c1.80245,-0.30503 3.38975,-0.27015 4.83694,-1.45802c0,0 0.58047,-0.47493 1.0554,0.10554c0.47493,0.58047 -0.10554,1.0554 -0.10554,1.0554c-0.74813,0.61034 -1.51164,0.9626 -2.30959,1.19424c0.75213,0.35614 1.4751,0.81995 2.18459,1.39483l0.27922,0.37739c0.10437,0.08837 0.19156,0.22161 0.22991,0.42163c0.03416,0.13321 0.04487,0.30229 -0.03422,0.46934c-0.07175,0.17033 -0.2049,0.2751 -0.32695,0.33847c-0.15977,0.09588 -0.30515,0.124 -0.43247,0.11366c-1.22778,0.16179 -2.47671,0.20702 -3.72686,0.23885c0.33173,0.31182 0.65568,0.64198 0.97201,0.99785l0.02279,0.06747c0.06087,0.07847 0.11144,0.18014 0.14426,0.3114c0.07564,0.30254 -0.00598,0.51074 -0.12714,0.65073c-0.0927,0.13196 -0.24288,0.24736 -0.48615,0.27493c-1.11269,0.26135 -2.31556,0.32068 -3.5306,0.30975c0.25255,0.37998 0.46318,0.79335 0.58458,1.27784l0.05931,0.23674c0,0 0.1819,0.72761 -0.5457,0.90951zM217.89478,202.3356c-0.37635,-0.35366 -0.7627,-0.68097 -1.16063,-0.99517c-0.84497,0.03546 -1.68503,0.09294 -2.51398,0.20474c0.15739,0.29841 0.34619,0.57177 0.54806,0.8347c1.05509,0.04481 2.12161,0.06446 3.12655,-0.04427z" fill="none" stroke="#000000" stroke-width="1"/></g><path d="M233.84043,186.08455c-0.43027,-0.21184 -2.32611,1.64324 -2.70333,1.39332c-3.17679,-2.10476 -4.50327,-5.30512 -4.50327,-5.30512c0,0 0.9002,-1.00581 2.43661,-2.20654c1.37736,-1.07643 3.3598,-2.30951 4.11368,-3.11503c1.19119,-1.27278 2.16613,-3.99186 2.16613,-3.99186l17.01493,-2.50746c0,0 3.11513,1.3612 3.02529,3.58612c-0.13111,3.24679 -2.61002,8.23452 -2.26393,10.48735c0.24763,1.61195 1.82064,3.06369 2.68121,4.50569c0.24442,0.40955 0.52298,1.34817 0.09109,2.26198c-0.53504,1.13207 -1.90504,2.22608 -2.75432,2.22897c-5.76272,0.01965 -8.71368,-1.647 -8.71368,-1.647l-0.66268,-0.10968c0,0 -6.89711,-4.08868 -9.92773,-5.58074z" fill="none" stroke="#000000" stroke-width="1" stroke-linecap="round"/><path d="M243.70846,191.90409c0,0 -0.81303,-3.67402 -0.17163,-6.78522c0.37776,-1.83238 2.14178,-4.91627 2.14178,-4.91627" fill="none" stroke="#000000" stroke-width="1" stroke-linecap="round"/><path d="M234.15622,183.30709c0,0 0.21527,-2.51149 0.27983,-3.26471c0.03417,-0.39863 0.47122,-0.85487 0.7964,-0.8056c0.68887,0.10437 3.22227,0.48822 3.22227,0.48822l1.37313,-2.08955" fill="none" stroke="#000000" stroke-width="1" stroke-linecap="round"/><path d="M242.09652,193.15783l-3.34328,-4.0597l-2.86567,1.79104l-2.38806,-4.1791l-3.22388,2.86567l-2.02985,-2.26866l-3.22388,3.10448l-1.13433,-1.37313h-4.0597l-0.77612,-1.61194l2.26866,-0.77612l-0.35821,-2.44776l3.04478,1.37313l2.86567,-3.76119l3.70149,3.22388l3.58209,-3.10448l3.22388,4l2.86567,-1.91045l1.13433,2.80597l1.61194,-0.59701c0,0 -0.03079,1.85405 0.07044,2.78534c0.09765,0.89837 0.52658,2.7072 0.52658,2.7072z" fill="#feecf7" stroke="#000000" stroke-width="1" stroke-linecap="round"/><g stroke="#000000" stroke-linecap="round"><path d="M244.12638,191.8444l3.22388,-2.26866l5.61194,3.58209l3.76119,-1.73134c0,0 0.59535,0.34114 0.81306,0.65434c0.55428,0.79739 2.58993,4.24119 2.58993,4.24119c0,0 -4.9728,6.71865 -7.85893,6.53798c-3.73209,-0.23363 -6.35003,-8.32903 -6.35003,-8.32903z" fill="#4fa6ec" stroke-width="0"/><path d="M247.35025,189.57574l5.61194,3.58209l3.76119,-1.73134c0,0 0.59535,0.34114 0.81306,0.65434c0.55428,0.79739 2.58993,4.24119 2.58993,4.24119c0,0 -4.9728,6.71865 -7.85893,6.53798c-0.37348,-0.02338 1.35147,-4.50813 1.35147,-4.50813z" fill="#2e67e5" stroke-width="0"/><path d="M244.12638,191.8444l3.22388,-2.26866l5.61194,3.58209l3.76119,-1.73134c0,0 0.59534,0.34114 0.81305,0.65434c0.55428,0.79739 2.58993,4.24118 2.58993,4.24118c0,0 -4.9728,6.71866 -7.85893,6.53799c-3.73208,-0.23363 -6.35003,-8.32903 -6.35003,-8.32903" fill="none" stroke-width="1"/></g><path d="M231.29055,175.36678c0,0 1.74845,-5.55498 2.24353,-6.69746c0.18582,-0.42881 0.86095,-0.46672 0.86095,-0.46672l7.04988,3.37807c0,0 8.08787,-3.01129 10.01879,-2.84802c1.27916,0.10816 1.8567,1.61921 1.8567,1.61921c0,0 -4.13765,0.60406 -5.80687,2.09197c-1.29335,1.15286 -2.73044,4.17669 -2.73044,4.17669l-0.83582,-2.02985l-4.29851,4.0597l-2.50746,-5.37313l-2.14925,1.37313l-0.83582,-0.77612z" fill="#feecf7" stroke="#000000" stroke-width="1" stroke-linecap="round"/><path d="M230.93617,191.49079l2.71429,4.07143" fill="none" stroke="#000000" stroke-width="1" stroke-linecap="round"/></g><g stroke="#000000"><g stroke-linecap="butt"><path d="M268.23793,170.65578l1.23583,-1.98994c0,0 8.92209,1.89202 10.55688,3.48973c1.14765,1.12161 -0.13574,5.18642 -2.78793,4.90814c-3.53195,-0.3706 -9.00477,-6.40793 -9.00477,-6.40793z" fill="#0066cd" stroke-width="0"/><path d="M268.23794,170.65578l0.43861,-0.70626c0,0 1.90041,0.79786 3.72503,1.76551c1.41024,0.7479 2.58078,1.58173 4.01097,2.32412c1.70098,0.88296 3.38276,1.59613 3.33609,1.66772c-0.55376,0.84955 -1.41378,1.47142 -2.50593,1.35684c-3.53195,-0.37059 -9.00478,-6.40794 -9.00478,-6.40794z" fill="#061483" stroke-width="0"/><path d="M268.23794,170.65578l1.23583,-1.98994c0,0 8.92209,1.89203 10.55688,3.48974c1.14765,1.12161 -0.13574,5.18642 -2.78793,4.90814c-3.53195,-0.37059 -9.00478,-6.40794 -9.00478,-6.40794z" fill="none" stroke-width="1"/></g><g stroke-linecap="round"><path d="M229.28237,163.1299c0,0 -1.63744,-26.07213 20.30664,-19.87767c22.50016,6.35143 13.22891,25.18845 13.22891,25.18845c0,0 7.18075,-3.2216 7.92005,-2.45791c0.62401,0.6446 -1.8734,5.13012 -3.14227,6.76309c-0.9376,1.20665 -2.51269,3.93321 -3.89372,3.7577c-0.86924,-0.11048 -3.61748,-3.7653 -3.61748,-3.7653c0,0 -8.27354,2.14586 -15.21514,1.72311c-6.85472,-0.41746 -15.91577,-3.87935 -15.91577,-3.87935c0,0 -6.72391,-2.61144 -6.26793,-5.04077c0.38854,-2.06999 6.59671,-2.41137 6.59671,-2.41137z" fill="#fde0be" stroke-width="0"/><path d="M255.57392,173.67515c-0.03689,0.00635 -0.70676,-2.35676 -0.70676,-2.35676l-3.75187,1.65443l-2.83057,-8.25044l-7.73499,2.40318l0.75515,-6.55429c0,0 -12.03565,0.39864 -12.0347,0.36747c0.18608,-6.14428 2.32191,-22.76676 20.31881,-17.68652c22.50016,6.35143 13.22891,25.18845 13.22891,25.18845c0,0 3.96557,5.43008 3.86475,5.57047c-0.88626,1.23421 -1.98402,2.61908 -2.9807,2.49242c-0.86924,-0.11048 -3.61748,-3.7653 -3.61748,-3.7653c0,0 -1.83907,0.47698 -4.51056,0.93689z" fill="#fc988a" stroke-width="0"/><path d="M262.81827,169.97313l3.33527,-0.5717l-2.40284,4.50786z" fill="#f79587" stroke-width="0.5"/><path d="M249.58897,143.25223c22.50016,6.35143 13.22891,25.18845 13.22891,25.18845c0,0 7.18075,-3.2216 7.92005,-2.45791c0.62401,0.6446 -1.8734,5.13012 -3.14227,6.76309c-0.9376,1.20665 -2.51269,3.93321 -3.89372,3.7577c-0.86924,-0.11048 -3.61748,-3.7653 -3.61748,-3.7653c0,0 -8.27354,2.14586 -15.21514,1.72311c-6.85472,-0.41746 -15.91577,-3.87935 -15.91577,-3.87935c0,0 -6.72391,-2.61144 -6.26793,-5.04077c0.38854,-2.06999 6.59671,-2.41137 6.59671,-2.41137c0,0 -1.63744,-26.07211 20.30664,-19.87765z" fill="none" stroke-width="1"/></g><g stroke-linecap="round"><path d="M270.62111,163.041c0,0 -2.68513,2.8277 -4.11627,3.89396c-1.23582,0.92074 -3.97087,2.13133 -3.97087,2.13133c0,0 -9.14922,-7.65812 -16.15082,-10.40622c-7.15164,-2.807 -16.89527,-4.53389 -16.89527,-4.53389c0,0 1.03936,-18.20596 5.20981,-19.87593c3.03672,-1.21599 10.82294,-1.07611 17.79506,1.3618c3.1777,1.11113 12.23435,4.38506 14.46322,8.14512c2.98728,5.03949 3.66515,19.28384 3.66515,19.28384z" fill="#ff292e" stroke-width="0"/><path d="M270.62111,163.041c0,0 -2.68514,2.82771 -4.11627,3.89396c-1.23582,0.92074 -3.97086,2.13133 -3.97086,2.13133c0,0 -4.43073,-3.70862 -9.4851,-6.89036c-0.1323,-0.08328 5.9101,-13.02515 10.17537,-17.63249c1.41241,-1.52568 3.17726,-1.72167 3.73172,-0.78629c2.98728,5.03949 3.66515,19.28385 3.66515,19.28385z" fill="#ac0e49" stroke-width="0.5"/><path d="M266.50484,166.93496c-1.23582,0.92074 -3.97086,2.13133 -3.97086,2.13133c0,0 -9.14922,-7.65812 -16.15083,-10.40621c-7.15164,-2.807 -16.89526,-4.53389 -16.89526,-4.53389c0,0 1.03936,-18.20597 5.20981,-19.87593c3.03673,-1.21599 10.82294,-1.07611 17.79506,1.3618c3.1777,1.11113 12.23435,4.38505 14.46321,8.1451c2.98728,5.03949 3.66515,19.28385 3.66515,19.28385c0,0 -2.68513,2.8277 -4.11626,3.89395z" fill="none" stroke-width="1"/></g><g stroke-linecap="round"><path d="M228.83086,159.82463c0,0 -3.9652,-0.03709 -5.83367,0.17207c-1.89709,0.21236 -5.46433,1.09263 -5.46433,1.09263c0,0 2.50962,-3.34648 3.97662,-4.76797c1.39319,-1.34997 4.61536,-3.55752 4.61536,-3.55752l-9.40564,-1.71057c0,0 11.66234,-10.13252 15.52378,-10.74869c2.30301,-0.36748 8.78458,6.47609 8.78458,6.47609c0,0 1.88656,-2.29131 3.04506,-3.28852c1.05495,-0.90807 3.62441,-2.45235 3.62441,-2.45235c0,0 -0.02746,6.31626 0.25265,9.4483c0.29182,3.26284 1.46461,9.75241 1.46461,9.75241l12.98298,8.35049l-2.94333,6.16067l-4.02824,-7.39103l-3.36481,2.73522l-2.64659,-9.85534l-5.79874,2.76584l0.14903,-5.19846c0,0 -11.30763,-0.16787 -13.99305,0.40448c-0.73203,0.15601 -0.94065,1.61229 -0.94065,1.61229z" fill="#4fa6ec" stroke-width="0"/><path d="M234.11476,151.63651l-16.58191,9.45282c0,0 2.50962,-3.34648 3.97661,-4.76797c1.39318,-1.34997 4.61536,-3.55752 4.61536,-3.55752l-9.40563,-1.71058c0,0 11.66233,-10.13252 15.52378,-10.74869c2.303,-0.3675 8.78459,6.4761 8.78459,6.4761c0,0 1.88655,-2.29132 3.04505,-3.28852c1.05495,-0.90807 3.6244,-2.45234 3.6244,-2.45234l-5.32787,10.87554c0,0 -7.66683,-6.48568 -9.87787,-6.7139c-3.47013,-0.3582 -9.87177,5.23582 -9.87177,5.23582z" fill="#66ffff" stroke-width="0"/><path d="M253.44731,164.68403l-1.76209,4.01297l-1.60362,-5.97153z" fill="#66ffff" stroke-width="0"/><path d="M217.53286,161.08933c0,0 2.50962,-3.34648 3.97661,-4.76797c1.39318,-1.34997 4.61536,-3.55752 4.61536,-3.55752l-9.40563,-1.71058c0,0 11.66233,-10.13252 15.52378,-10.74869c2.303,-0.3675 8.78459,6.4761 8.78459,6.4761c0,0 1.88655,-2.29132 3.04505,-3.28852c1.05495,-0.90807 3.6244,-2.45234 3.6244,-2.45234c0,0 -0.02747,6.31624 0.25265,9.44829c0.29181,3.26283 1.46461,9.75241 1.46461,9.75241l12.98298,8.35049l-2.94333,6.16067l-4.02825,-7.39102l-3.36482,2.73522l-2.6466,-9.85534l-5.79875,2.76584l0.14903,-5.19846c0,0 -11.30763,-0.16787 -13.99305,0.40448c-0.73203,0.15601 -0.94065,1.61229 -0.94065,1.61229c0,0 -3.96518,-0.03708 -5.83366,0.17207c-1.86848,0.20915 -5.46433,1.0926 -5.46433,1.0926z" fill="none" stroke-width="1"/></g></g><path d="M250.31083,170.13958l0.06308,3.28267l8.74263,-0.96277l-2.74987,3.26279l1.92175,3.019l-4.47842,-1.40494l-2.06123,0.9453l-2.84642,-2.40361l-5.18343,2.46548l0.17647,-2.8406c0,0 2.43149,-2.3669 3.57376,-3.32183c0.96682,-0.80826 2.84168,-2.04148 2.84168,-2.04148z" fill="#feecf7" stroke="#000000" stroke-width="1" stroke-linecap="round"/><g><path d="M207.20177,188.60311c-0.44205,-1.7072 0.58357,-3.4495 2.29076,-3.89154c1.7072,-0.44205 3.44947,0.58357 3.89152,2.29077c0.44205,1.7072 -0.58357,3.44947 -2.29075,3.89152c-1.7072,0.44205 -3.44949,-0.58356 -3.89153,-2.29074z" fill="#3f5479" stroke="#000000" stroke-width="1" stroke-linecap="butt"/><path d="M218.74074,169.77786c4.62101,-0.33876 10.32481,7.88709 8.87237,12.80719c-0.55904,1.89368 -2.32617,3.07173 -4.16985,3.20938c-0.16758,0.01252 -1.47526,-0.62942 -1.51198,-0.56606c-0.20746,0.35817 0.05644,1.56672 -0.64919,2.39431c-0.95316,1.11792 -2.90224,1.85863 -2.90224,1.85863c0,0 -1.44304,2.90055 -2.56539,2.74727c-5.82496,-0.79538 -7.99267,-5.93865 -7.45256,-9.52227c0.141,-0.93555 2.29654,-2.89338 3.06551,-4.38326c0.70382,-1.36367 -0.27596,-1.49486 0.48179,-2.18999c0.17182,-0.15764 0.74276,-0.69989 1.4357,-0.93603c0.76611,-0.2611 1.68057,-0.24096 2.35233,-0.9717c1.39997,-1.52282 0.5246,-4.26284 3.04348,-4.44751z" fill="#fde0be" stroke="#000000" stroke-width="0" stroke-linecap="butt"/><path d="M220.26172,188.8641c-0.22692,-6.53788 10.01308,-9.75173 10.61899,-3.78003c0.30893,3.04476 -2.24904,3.04364 -4.14573,4.19421c-0.14517,0.08806 -0.2672,0.21178 -0.37795,0.35895c-0.13202,1.10715 -0.92562,2.07282 -2.07007,2.36914c-0.21014,0.05442 -0.42091,0.08336 -0.62899,0.08875c-1.12221,0.02908 -2.16708,-0.6267 -2.62217,-1.66561c-0.52388,-0.37991 -0.60799,-0.99326 -0.75073,-1.54452z" fill="#f89688" stroke="#000000" stroke-width="1" stroke-linecap="butt"/><path d="M227.61311,182.58502c-0.55904,1.89368 -2.32617,3.07173 -4.16984,3.20938c-0.16758,0.01252 -1.47526,-0.62942 -1.51198,-0.56606c-0.20746,0.35817 0.05644,1.56672 -0.64919,2.39431c-0.95317,1.11791 -2.90224,1.85863 -2.90224,1.85863c0,0 -1.44304,2.90055 -2.56539,2.74727c-1.04771,-0.14305 -1.97712,-0.4268 -2.79374,-0.8168c0.47736,-1.79299 0.98532,-3.11933 0.48707,-5.04359c-0.16554,-0.63935 -0.36842,-2.407 -0.63265,-2.9882c0.4295,-0.43501 0.36266,-0.36064 0.77014,-0.85147c0.08388,0.21369 0.18715,0.41838 0.31099,0.6128c0.17998,0.28258 0.40698,0.55553 0.66677,0.80961c0.48591,1.3332 1.91496,2.10383 3.31688,1.74084c0.19702,-0.05101 0.38362,-0.12186 0.55827,-0.20984c0.79836,-0.16183 1.39637,-0.76317 1.48853,-2.00238c0.0262,-0.14733 0.04062,-0.29769 0.04253,-0.44978c0.5654,0.26291 1.22198,0.33866 1.87274,0.17017c0.12441,-0.03221 0.24468,-0.07234 0.3604,-0.1197c0.67641,-0.2768 1.19754,-0.8007 1.48363,-1.43627c1.02904,-1.31219 2.17185,-3.27497 3.00283,-5.18006c0.97256,2.0964 1.39354,4.32823 0.86426,6.12109z" fill="#f89688" stroke="#000000" stroke-width="0" stroke-linecap="butt"/><path d="M212.44414,182.66461l1.84961,0.6729c0,0 0.74395,2.28339 1.40006,3.17598c0.73575,1.00094 2.50854,2.61815 2.50854,2.61815" fill="none" stroke="#000000" stroke-width="1" stroke-linecap="round"/><path d="M217.52594,178.83572l1.65335,0.72371c0,0 0.39141,1.98192 0.93007,3.06485c0.55297,1.11171 2.14619,3.15423 2.14619,3.15423" fill="none" stroke="#000000" stroke-width="1" stroke-linecap="round"/><path d="M218.74074,169.77786c4.62101,-0.33876 10.32481,7.88708 8.87238,12.80718c-0.55904,1.89368 -2.32617,3.07173 -4.16984,3.20938c-0.16758,0.01252 -1.47526,-0.62942 -1.51198,-0.56606c-0.20746,0.35817 0.05644,1.56672 -0.64919,2.39431c-0.95317,1.11791 -2.90224,1.85863 -2.90224,1.85863c0,0 -1.44304,2.90055 -2.56539,2.74727c-5.82496,-0.79538 -7.99267,-5.93865 -7.45256,-9.52227c0.14101,-0.93556 2.29654,-2.89338 3.06551,-4.38326c0.70382,-1.36367 -0.27596,-1.49486 0.48179,-2.18999c0.17907,-0.16429 0.59564,-0.65948 1.32766,-0.91568c0.74698,-0.26144 1.81421,-0.28916 2.46038,-0.99205c1.39998,-1.52281 0.5246,-4.26284 3.04348,-4.44751z" fill="none" stroke="#000000" stroke-width="1" stroke-linecap="butt"/><path d="M222.31794,177.83054c-0.87005,-3.36018 0.24944,-6.24252 2.76957,-6.89506c2.52014,-0.65254 5.26844,1.54244 6.13849,4.90263c0.87005,3.36018 0.07037,6.26441 -2.44978,6.91694c-2.52014,0.65254 -5.58824,-1.56434 -6.45829,-4.92452z" fill="#93c0c3" stroke="none" stroke-width="0" stroke-linecap="butt"/><path d="M228.77623,182.75508c-2.43241,0.62983 -5.37529,-1.41347 -6.35954,-4.57784c2.9455,-0.73512 5.91287,-1.38469 8.86688,-2.10727c0.77469,3.26115 -0.04534,6.04765 -2.50733,6.68512z" fill="#475f86" stroke="none" stroke-width="0" stroke-linecap="butt"/><path d="M222.02661,175.73152c0.83915,-0.11913 1.87564,-0.75316 2.37856,-0.90214c1.11689,-0.33087 3.65515,-0.77422 5.52363,-1.74275c0.41495,0.55823 0.7675,1.20274 1.03337,1.9141c-2.93352,0.71685 -5.87992,1.36243 -8.805,2.09204c-0.08256,-0.46782 -0.12549,-0.92325 -0.13056,-1.36125z" fill="#475f86" stroke="none" stroke-width="0" stroke-linecap="butt"/><path d="M222.31794,177.83054c-0.87005,-3.36018 0.24944,-6.24252 2.76957,-6.89506c2.52014,-0.65254 5.26844,1.54244 6.13849,4.90263c0.87005,3.36018 0.07037,6.26441 -2.44978,6.91694c-2.52014,0.65254 -5.58824,-1.56434 -6.45829,-4.92452z" fill="none" stroke="#000000" stroke-width="1" stroke-linecap="butt"/><path d="M224.98237,175.9888c-1.22088,-4.71509 1.17377,-9.72788 5.56367,-10.86456c4.38993,-1.13668 8.00437,1.79662 9.22525,6.51171c1.22088,4.71509 -1.34813,9.45889 -5.73804,10.59557c-4.38991,1.13667 -7.83,-1.52761 -9.05087,-6.24272z" fill="#3f5479" stroke="#000000" stroke-width="0" stroke-linecap="butt"/><path d="M239.77132,171.63595c1.22088,4.71509 -1.34813,9.45889 -5.73804,10.59557c-3.72644,0.96489 -6.76849,-0.80912 -8.34967,-4.25148c0.20036,0.03083 0.41122,0.04602 0.6329,0.04416c4.75234,-0.03986 11.84285,-3.11652 12.68295,-8.52333c0.31513,0.65881 0.5747,1.3737 0.77183,2.13507z" fill="#323344" stroke="#000000" stroke-width="0" stroke-linecap="butt"/><path d="M229.99407,166.73312c-0.11577,-0.44711 0.15283,-0.90343 0.59996,-1.0192c0.44712,-0.11578 0.90343,0.15284 1.0192,0.59996c0.11577,0.44711 -0.15283,0.90343 -0.59996,1.0192c-0.44712,0.11578 -0.90343,-0.15284 -1.0192,-0.59996z" fill="#95c2c5" stroke="none" stroke-width="0.5" stroke-linecap="butt"/><path d="M224.98237,175.9888c-1.22088,-4.71509 1.17377,-9.72788 5.56367,-10.86456c4.38993,-1.13668 8.00437,1.79662 9.22525,6.51171c1.22088,4.71509 -1.34813,9.45889 -5.73804,10.59557c-4.38991,1.13667 -7.83,-1.52761 -9.05087,-6.24272z" fill="none" stroke="#000000" stroke-width="1" stroke-linecap="butt"/><path d="M239.69293,173.97192c0,0 -0.51828,2.80058 -5.39685,4.28429c-2.68883,0.81776 -6.06214,1.50476 -6.06214,1.50476" fill="none" stroke="#000000" stroke-width="1" stroke-linecap="round"/><path d="M239.56378,171.47137c0,0 -2.25333,1.32571 -3.87925,1.98121c-2.57799,1.03935 -10.09619,3.65314 -10.09619,3.65314" fill="none" stroke="#000000" stroke-width="1" stroke-linecap="round"/><path d="M224.88331,175.27258c0,0 2.50562,-3.47924 6.52631,-4.86911c3.4225,-1.18308 7.54502,-0.6173 7.54502,-0.6173" fill="none" stroke="#000000" stroke-width="1" stroke-linecap="round"/><path d="M224.58262,171.66464c0,0 2.24177,-2.98732 5.4598,-3.91353c3.23382,-0.93074 7.30801,-0.60185 7.30801,-0.60185" fill="none" stroke="#000000" stroke-width="1" stroke-linecap="round"/><path d="M232.1749,182.08079c0,0 -3.78209,-1.93339 -5.46712,-5.66178c-0.97422,-2.15561 -1.0751,-6.92676 -1.0751,-6.92676" fill="none" stroke="#000000" stroke-width="1" stroke-linecap="round"/><path d="M234.5916,181.6278c0,0 -4.25995,-3.29215 -5.49336,-6.81487c-0.96226,-2.74836 -0.57229,-8.60385 -0.57229,-8.60385" fill="none" stroke="#000000" stroke-width="1" stroke-linecap="round"/><path d="M237.16057,179.98359c0,0 -2.41425,-0.29344 -4.78068,-8.33916c-0.76169,-2.5897 -0.48359,-6.65355 -0.48359,-6.65355" fill="none" stroke="#000000" stroke-width="1" stroke-linecap="round"/><path d="M236.1134,166.37532l3.02681,11.02239" fill="none" stroke="#000000" stroke-width="1" stroke-linecap="round"/></g><g stroke="none" stroke-width="0.5" stroke-linecap="butt"><path d="M237.76425,167.21094c-1.22888,-0.73542 -0.77181,-5.59008 -0.94241,-6.95464c-0.13815,-1.10588 -0.25411,-1.92693 0.19242,-2.97169l0.03189,-0.37277c0,0 0.01892,-0.13248 0.10314,-0.25836c-0.12082,-0.37852 -0.22699,-0.74344 -0.31511,-1.08865c-0.88522,-3.58865 -2.67527,-11.38052 -2.67527,-11.38052c0,0 2.85307,7.53541 3.75703,11.11008c0.55948,2.29671 2.14179,6.00068 3.3429,8.00277c1.18382,-0.44281 4.95285,-2.47662 8.7402,-3.79804c10.58769,-3.69408 12.91053,-3.17748 12.91053,-3.17748c0,0 -5.1786,1.52303 -8.64075,2.71581c-1.62371,0.5594 -2.86989,1.2589 -3.02728,1.30561c-2.38941,2.52921 -2.92855,8.71709 -7.5719,8.17948c-1.6682,-1.06517 -0.97006,-3.18899 -0.22288,-4.92548c-0.75261,0.32945 -1.50029,0.63845 -2.24171,0.90626c0,0 -0.18417,0.06578 -0.37332,0.01034c-0.29947,1.51965 -1.43276,3.67556 -3.06749,2.69727z" fill="#000000"/><path d="M244.00842,176.90024c0.90525,1.28843 2.19073,0.25129 2.49152,-1.09689c0.34469,-1.54494 0.65827,-3.51162 0.42123,-5.17003c-1.12504,0.01744 -2.24376,0.14675 -3.3762,0.14675c-0.72264,-0.00271 -1.45292,-0.05312 -2.17886,-0.15272c1.13294,1.98968 1.41066,4.3197 2.64231,6.27289zM247.877,169.5618c0.46325,1.86541 0.35264,5.55555 -0.66609,7.20571c-1.1002,1.78214 -2.65019,2.79784 -4.12938,0.75257c-1.34714,-2.17108 -1.53705,-4.82235 -3.03802,-6.89915l-0.16355,-0.15283c0,0 -0.05328,-0.05329 -0.10108,-0.14026c-0.8609,-0.20841 -2.5777,-0.89283 -3.53332,-1.61259c-2.12627,-1.60148 -3.35738,-3.73705 -3.35738,-3.73705c0,0 2.90288,2.30777 5.94188,3.69178c1.6876,0.76857 3.41718,1.00077 4.71492,0.99504c1.11686,0 4.33202,-0.10322 4.33202,-0.10322z" fill="#000000"/><path d="M241.33072,170.58428c0.72594,0.0996 1.48095,0.13835 2.20357,0.14106c1.13244,0 2.29665,-0.11815 3.42168,-0.13559c0.23702,1.65841 -0.06682,3.70221 -0.41152,5.24714c-0.30079,1.34818 -1.63424,2.4074 -2.53949,1.11898c-1.23164,-1.95319 -1.5413,-4.38191 -2.67424,-6.37161z" data-paper-data="{&quot;noHover&quot;:false,&quot;origItem&quot;:[&quot;Path&quot;,{&quot;applyMatrix&quot;:true,&quot;segments&quot;:[[[729.15247,381.60533],[-2.20914,-3.50334],[1.6237,2.31099]],[[733.62138,379.63788],[-0.53952,2.41817],[0.61826,-2.77107]],[[734.37693,370.36466],[0.42514,2.9746],[-2.01791,0.03128]],[[728.32121,370.62788],[2.03121,0],[-1.29615,-0.00486]],[[724.41309,370.35396],[1.30208,0.17864],[2.03209,3.56881]]],&quot;closed&quot;:true}]}" fill="#ff6666"/></g></g></g></svg>