<svg version="1.1" xmlns="http://www.w3.org/2000/svg" xmlns:xlink="http://www.w3.org/1999/xlink" width="302.18281" height="141.20055" viewBox="0,0,302.18281,141.20055"><defs><linearGradient x1="240" y1="144.04552" x2="240" y2="215.25035" gradientUnits="userSpaceOnUse" id="color-1"><stop offset="0" stop-color="#f7b58f"/><stop offset="1" stop-color="#f77d36"/></linearGradient></defs><g transform="translate(-84.47476,-106.33016)"><g data-paper-data="{&quot;isPaintingLayer&quot;:true}" fill-rule="nonzero" stroke-linecap="butt" stroke-linejoin="miter" stroke-miterlimit="10" stroke-dasharray="" stroke-dashoffset="0" style="mix-blend-mode: normal"><path d="M84.47476,247.5307v-141.20054h302.18281v141.20055z" fill="none" stroke="none" stroke-width="NaN"/><path d="M100.02941,211.45729c0,0 -2.66667,-13.05876 -2.66667,-21.23385c0,-5.49216 1.82799,-17.79819 2.73055,-26.67418c1.08122,-10.63295 -0.06388,-17.50374 -0.06388,-17.50374c0,0 66.7841,-2 103.80436,-2c17.71098,0 64.09596,2.57412 91.00338,2.88859c50.64141,0.59186 83.13344,-0.88859 83.13344,-0.88859c0,0 4.66667,11.83278 4.66667,19.51125c0,5.513 -2.30685,18.89863 -3.36459,28.19362c-1.25812,11.05582 -1.30208,17.7069 -1.30208,17.7069c0,0 -9.6187,2.66667 -19.80348,2.66667c-8.469,0 -46.51764,-3.1389 -69.33221,-3.35329c-21.08436,-0.19814 -67.07885,4.42997 -90.33371,4.47857c-22.8433,0.04773 -42.91371,-1.45723 -58.30195,-2.11308c-26.26922,-1.11959 -40.16983,-1.67887 -40.16983,-1.67887z" fill="url(#color-1)" stroke="#000000" stroke-width="7"/><text transform="translate(147.45436,189.90344) scale(0.79187,0.79187)" font-size="40" xml:space="preserve" fill="#a34d1c" fill-rule="nonzero" stroke="none" stroke-width="1" stroke-linecap="butt" stroke-linejoin="miter" stroke-miterlimit="10" stroke-dasharray="" stroke-dashoffset="0" font-family="Sans Serif" font-weight="normal" text-anchor="start" style="mix-blend-mode: normal"><tspan x="0" dy="0">ADD A SONG</tspan></text><text transform="translate(340.27588,199.49532) scale(1.62461,1.62461)" font-size="40" xml:space="preserve" fill="#a34d1c" fill-rule="nonzero" stroke="none" stroke-width="1" stroke-linecap="butt" stroke-linejoin="miter" stroke-miterlimit="10" stroke-dasharray="" stroke-dashoffset="0" font-family="Sans Serif" font-weight="normal" text-anchor="start" style="mix-blend-mode: normal"><tspan x="0" dy="0">+</tspan></text><text transform="translate(101.01782,192.9186) scale(1.07655,1.07655)" font-size="40" xml:space="preserve" fill="#9966ff" fill-rule="nonzero" stroke="none" stroke-width="1" stroke-linecap="butt" stroke-linejoin="miter" stroke-miterlimit="10" stroke-dasharray="" stroke-dashoffset="0" font-family="Sans Serif" font-weight="normal" text-anchor="start" style="mix-blend-mode: normal"><tspan x="0" dy="0">📙</tspan></text></g></g></svg>