<svg version="1.1" xmlns="http://www.w3.org/2000/svg" xmlns:xlink="http://www.w3.org/1999/xlink" width="27.5535" height="34.77857" viewBox="0,0,27.5535,34.77857"><g transform="translate(-226.17673,-162.78539)"><g data-paper-data="{&quot;isPaintingLayer&quot;:true}" fill-rule="nonzero" stroke-linejoin="miter" stroke-miterlimit="10" stroke-dasharray="" stroke-dashoffset="0" style="mix-blend-mode: normal"><path d="M249.10851,196.93941c-7.30131,0.27618 -14.3824,0.52218 -17.29403,-0.00436c-2.66104,-0.48122 -3.50447,-2.12732 -3.50447,-2.12732c0,0 -1.10219,-1.44148 -1.1798,-2.36614c-0.23282,-2.77395 -0.52584,-10.71785 -0.14414,-17.58452c0.01273,-0.22917 0.0282,-0.35751 0.05456,-0.58552c0.07909,-0.68402 0.50092,-3.34226 0.50092,-3.34226c0,0 1.89986,-1.0558 2.93902,-1.37069c3.11747,-0.94464 11.12634,-0.2635 19.54122,-0.24224c0.76271,0.00193 2.09686,0.98209 2.09686,0.98209c0,0 0.98307,1.87045 0.98658,3.06947c0.02278,7.75187 0.01945,16.32887 -0.10949,18.29327c-0.04298,0.6548 -1.08418,3.21683 -1.08418,3.21683z" fill="#582600" stroke="#000000" stroke-width="1.25" stroke-linecap="round"/><path d="M249.20283,184.53484c-0.00612,-2.08244 0.23901,-3.77134 0.54752,-3.77223c0.30851,-0.00092 0.56356,1.68651 0.56969,3.76895c0.00612,2.08244 -0.23901,3.77135 -0.54752,3.77224c-0.30851,0.00092 -0.56356,-1.68651 -0.56969,-3.76896z" fill="none" stroke="#000000" stroke-width="1.25" stroke-linecap="butt"/><path d="M245.31629,184.96801c-0.00624,-2.12101 0.1763,-3.84098 0.40767,-3.84166c0.23138,-0.00068 0.42401,1.71819 0.43024,3.8392c0.00624,2.12101 -0.17628,3.84097 -0.40766,3.84165c-0.23138,0.00068 -0.42401,-1.71818 -0.43025,-3.83918z" fill="none" stroke="#000000" stroke-width="1.25" stroke-linecap="butt"/><path d="M226.76162,170.64379v-7.8584h26.47677v7.8584z" fill="#000000" stroke="none" stroke-width="0" stroke-linecap="butt"/><path d="M247.41023,180.28307c-1.118,0.75828 -4.36471,2.65256 -5.31577,1.45051c-1.27456,-1.61091 3.42827,-4.61864 4.29184,-4.45277c0.15355,-0.05256 0.31826,-0.08109 0.48964,-0.08109c0.83463,0 1.51123,0.6766 1.51123,1.51123c0.32779,0.39147 -0.66901,1.36326 -0.97694,1.57211z" fill="#582600" stroke="none" stroke-width="0.5" stroke-linecap="butt"/><path d="M232.34841,192.7964c-0.36659,-0.26675 -0.09983,-0.63334 -0.09983,-0.63334l0.25434,-0.30468c1.03967,-0.70409 1.87198,-0.95832 3.13702,-0.92032c0,0 0.45314,0.01461 0.43853,0.46774c-0.01461,0.45314 -0.46774,0.43853 -0.46774,0.43853c-1.07375,-0.03731 -1.71923,0.15882 -2.59664,0.76298l-0.03234,0.08928c0,0 -0.26675,0.36659 -0.63334,0.09983z" fill="#000000" stroke="none" stroke-width="0.5" stroke-linecap="butt"/></g></g></svg>