<svg version="1.1" xmlns="http://www.w3.org/2000/svg" xmlns:xlink="http://www.w3.org/1999/xlink" width="158.09809" height="216.17298" viewBox="0,0,158.09809,216.17298"><g transform="translate(-158.99509,-66.3791)"><g data-paper-data="{&quot;isPaintingLayer&quot;:true}" fill-rule="nonzero" stroke="none" stroke-width="0" stroke-linecap="butt" stroke-linejoin="miter" stroke-miterlimit="10" stroke-dasharray="" stroke-dashoffset="0" style="mix-blend-mode: normal"><path d="M227.68984,282.55209c0,0 -0.41779,-59.70729 10.18963,-58.10936c15.62002,2.42342 -10.18963,58.10936 -10.18963,58.10936z" data-paper-data="{&quot;index&quot;:null}" fill="#12fa05"/><path d="M244.47782,112.33207c0,9.80044 1.53326,20.06935 0.42949,26.8662c-1.21424,7.47718 -5.6604,6.90912 -8.77844,6.90912c-3.36611,0 -14.93602,-29.7571 -12.39799,-35.70238c1.9952,-4.67369 7.23681,6.48103 7.23681,6.48103c0,0 1.36399,-20.4868 2.48666,-27.97552c1.10338,-7.36007 2.77418,-24.57549 4.91274,-22.33128c4.6935,4.92539 6.11073,28.83008 6.11073,45.75283z" fill="#12fa05"/><path d="M238.57143,144.75301c-12.09761,-0.1272 -1.81309,-64.48235 -1.81309,-64.48235c0,0 14.25337,64.61316 1.81309,64.48235z" fill="#ffffff"/><path d="M238.17059,144.99531c-6.47085,2.26175 -13.38294,-34.01104 -13.38294,-34.01104c0,0 20.03707,31.68523 13.38294,34.01104z" fill="#ffffff"/><path d="M202.43113,165.19403c-5.5721,7.76602 -43.43604,-29.60813 -43.43604,-29.60813c0,0 51.59632,18.12849 43.43604,29.60813z" fill="#12fa05"/><path d="M201.62829,163.92793c-4.29259,5.98273 -32.75983,-21.63911 -32.75983,-21.63911c0,0 37.174,15.48693 32.75983,21.63911z" fill="#ffffff"/><path d="M317.09318,128.10592c0,0 -35.2487,42.72147 -41.84298,35.2698c-9.66854,-11.02306 41.84298,-35.2698 41.84298,-35.2698z" data-paper-data="{&quot;index&quot;:null}" fill="#12fa05"/><path d="M302.87818,134.9868c0,0 -22.46156,34.64991 -28.20891,29.57755c-5.91014,-5.21603 28.20891,-29.57755 28.20891,-29.57755z" data-paper-data="{&quot;index&quot;:null}" fill="#ffffff"/><path d="M230.53797,268.7371c0,0 -0.73534,-44.51019 7.45725,-43.42715c8.42464,1.11371 -7.45725,43.42715 -7.45725,43.42715z" data-paper-data="{&quot;index&quot;:null}" fill="#ffffff"/><path d="M286.04108,223.89216c-5.16053,-5.73435 -11.54744,-11.0035 -14.42115,-15.51264c-3.16135,-4.96048 -0.02133,-6.772 1.97095,-8.2755c2.15079,-1.62311 25.21241,10.20924 26.72128,14.91172c1.18615,3.69669 -8.03667,-0.30261 -8.03667,-0.30261c0,0 9.91604,12.64478 13.14199,17.56787c3.17052,4.8385 11.16794,15.71711 8.61979,15.43518c-5.59246,-0.61874 -19.08531,-13.9223 -27.99619,-23.82401z" fill="#12fa05"/><g fill="#ffffff"><path d="M273.60201,203.2634c6.29259,-5.82852 32.34998,32.32689 32.34998,32.32689c0,0 -38.8208,-26.33328 -32.34998,-32.32689z"/><path d="M273.69041,202.94332c2.23074,-4.3175 23.46298,10.9964 23.46298,10.9964c0,0 -25.75689,-6.55661 -23.46298,-10.9964z"/></g><g fill="#12fa05"><path d="M173.27031,244.53536c0,0 27.28514,-40.50522 34.26673,-34.57571c7.17933,6.09746 -34.26673,34.57571 -34.26673,34.57571z" data-paper-data="{&quot;index&quot;:null}"/><path d="M187.06433,252.06041c0,0 11.27766,-47.03541 19.94324,-43.75559c8.91104,3.37273 -19.94324,43.75559 -19.94324,43.75559z" data-paper-data="{&quot;index&quot;:null}"/></g><g fill="#ffffff"><path d="M181.29443,237.19846c0,0 18.80719,-29.01256 23.61948,-24.76545c4.94859,4.36741 -23.61948,24.76545 -23.61948,24.76545z" data-paper-data="{&quot;index&quot;:null}"/><path d="M190.80241,242.58841c0,0 7.7735,-33.68993 13.74654,-31.3407c6.14223,2.41577 -13.74654,31.3407 -13.74654,31.3407z" data-paper-data="{&quot;index&quot;:null}"/></g><path d="M205.96945,165.82875c0,1.53112 -1.31423,2.77234 -2.93542,2.77234c-1.62119,0 -2.93542,-1.24122 -2.93542,-2.77234c0,-1.53112 1.31423,-2.77234 2.93542,-2.77234c1.62119,0 2.93542,1.24122 2.93542,2.77234z" fill="#fafafa"/></g></g></svg>