<svg version="1.1" xmlns="http://www.w3.org/2000/svg" xmlns:xlink="http://www.w3.org/1999/xlink" width="60.4915" height="33.27121" viewBox="0,0,60.4915,33.27121"><g transform="translate(-198.69873,-159.58869)"><g data-paper-data="{&quot;isPaintingLayer&quot;:true}" fill-rule="nonzero" stroke-linejoin="miter" stroke-miterlimit="10" stroke-dasharray="" stroke-dashoffset="0" style="mix-blend-mode: normal"><g stroke-linecap="butt"><path d="M214.49616,186.84336l-3.4469,1.97821l-3.44691,-1.97821l3.44691,-1.97821z" fill="#ffd240" stroke="none" stroke-width="0"/><path d="M211.04926,183.39646l1.97821,3.4469l-1.97821,3.44691l-1.9782,-3.44691z" fill="#ffd240" stroke="none" stroke-width="0"/><path d="M213.48659,184.40603l-1.03852,3.83614l-3.83614,1.03853l1.03853,-3.83614z" fill="#ffd240" stroke="none" stroke-width="0"/><path d="M208.61192,184.40603l3.83614,1.03852l1.03852,3.83614l-3.83613,-1.03853z" fill="#ffd240" stroke="none" stroke-width="0"/><path d="M211.04926,188.82158l-3.44691,-1.97821l1.10587,-0.63467c0.47538,1.18634 1.63589,2.02423 2.99209,2.02423c0.14318,0 0.2842,-0.00934 0.42244,-0.02745z" fill="#e69030" stroke="none" stroke-width="0"/><path d="M211.04926,190.29027l-1.90064,-3.31176c0.58925,0.763 1.51308,1.25441 2.5517,1.25441c0.19003,0 0.37622,-0.01645 0.55722,-0.04801z" fill="#e69030" stroke="none" stroke-width="0"/><path d="M212.44806,188.24217l-3.83614,1.03853l0.60133,-2.22119c0.59098,0.71661 1.48568,1.17343 2.48707,1.17343c0.26743,0 0.52725,-0.03258 0.7757,-0.09399z" fill="#e69030" stroke="none" stroke-width="0"/><path d="M213.48659,189.28071l-3.83613,-1.03853l-0.2692,-0.99441c0.58601,0.60738 1.40842,0.98516 2.31907,0.98516c0.50737,0 0.98735,-0.11727 1.41432,-0.32618z" fill="#e69030" stroke="none" stroke-width="0"/><path d="M214.49616,186.84336l-3.4469,1.97821l-3.44691,-1.97821l3.44691,-1.97821z" fill="none" stroke="#000000" stroke-width="0.75"/><path d="M211.04926,183.39646l1.97821,3.4469l-1.97821,3.44691l-1.9782,-3.44691z" fill="none" stroke="#000000" stroke-width="0.75"/><path d="M213.48659,184.40603l-1.03852,3.83614l-3.83614,1.03853l1.03853,-3.83614z" fill="none" stroke="#000000" stroke-width="0.75"/><path d="M208.61192,184.40603l3.83614,1.03852l1.03852,3.83614l-3.83613,-1.03853z" fill="none" stroke="#000000" stroke-width="0.75"/></g><g stroke-linecap="butt"><path d="M208.90221,186.85471c0,-1.19205 0.96634,-2.15839 2.15839,-2.15839c1.19205,0 2.15839,0.96634 2.15839,2.15839c0,1.19205 -0.96634,2.1584 -2.15839,2.1584c-1.19205,0 -2.15839,-0.96635 -2.15839,-2.1584z" fill="#ffd240" stroke="none" stroke-width="NaN"/><path d="M208.90221,186.85471c0,-0.2856 0.05546,-0.55823 0.15622,-0.80773c0.32338,1.43792 1.60806,2.51209 3.14363,2.51209c0.06381,0 0.12719,-0.00186 0.19008,-0.00552c-0.36678,0.28788 -0.82912,0.45955 -1.33154,0.45955c-1.19205,0 -2.15839,-0.96635 -2.15839,-2.1584z" fill="#e69030" stroke="none" stroke-width="NaN"/><path d="M208.90221,186.85471c0,-1.19205 0.96634,-2.15839 2.15839,-2.15839c1.19205,0 2.15839,0.96634 2.15839,2.15839c0,1.19205 -0.96634,2.1584 -2.15839,2.1584c-1.19205,0 -2.15839,-0.96635 -2.15839,-2.1584z" fill="none" stroke="#000000" stroke-width="0.75"/></g><path d="M210.15962,187.84053l-0.00388,-0.56391c0,0 0.44346,0.01531 0.48638,0.01508c0.00868,-0.23397 0.05412,-0.78786 0.05412,-0.78786l-0.43833,-0.04077c0,0 0.15257,-0.26632 0.41672,-0.47904c0.28263,-0.2276 0.67986,-0.40262 0.73738,-0.40262c0.17764,0 0.02922,1.39483 -0.0804,1.74981c0.26297,0.03394 0.48321,0.02591 0.48321,0.02591l-0.10502,0.63303z" fill="#bd7728" stroke="none" stroke-width="0.5" stroke-linecap="butt"/><path d="M211.0812,186.12419c-0.08211,-0.16773 -0.04495,-0.36286 0.0785,-0.48922c0.45657,-1.49063 2.47022,2.21961 0.2743,0.72875c-0.14658,-0.01145 -0.28348,-0.09791 -0.3528,-0.23953z" fill="#fff98b" stroke="none" stroke-width="0.5" stroke-linecap="butt"/><g stroke-linecap="butt"><g><path d="M223.03686,186.52628l-3.4469,1.97821l-3.44691,-1.97821l3.44691,-1.97821z" fill="#cccccc" stroke="none" stroke-width="0"/><path d="M219.58996,183.07938l1.97821,3.4469l-1.97821,3.44691l-1.97821,-3.44691z" fill="#cccccc" stroke="none" stroke-width="0"/><path d="M222.02729,184.08895l-1.03853,3.83614l-3.83614,1.03853l1.03853,-3.83614z" fill="#cccccc" stroke="none" stroke-width="0"/><path d="M217.15262,184.08895l3.83614,1.03853l1.03853,3.83614l-3.83614,-1.03853z" fill="#cccccc" stroke="none" stroke-width="0"/><path d="M219.58996,188.50449l-3.44691,-1.97821l1.10587,-0.63466c0.47538,1.18634 1.63589,2.02423 2.9921,2.02423c0.14318,0 0.28419,-0.00934 0.42244,-0.02745z" fill="#999999" stroke="none" stroke-width="0"/><path d="M219.58996,189.97319l-1.90064,-3.31176c0.58925,0.763 1.51308,1.25441 2.5517,1.25441c0.19003,0 0.37622,-0.01645 0.55721,-0.048z" fill="#999999" stroke="none" stroke-width="0"/><path d="M220.98876,187.92509l-3.83614,1.03853l0.60133,-2.2212c0.59098,0.71661 1.48568,1.17343 2.48707,1.17343c0.26743,0 0.52724,-0.03258 0.77569,-0.09399z" fill="#999999" stroke="none" stroke-width="0"/><path d="M222.02729,188.96362l-3.83614,-1.03853l-0.2692,-0.99441c0.58601,0.60738 1.40842,0.98516 2.31907,0.98516c0.50737,0 0.98735,-0.11727 1.41431,-0.32618z" fill="#999999" stroke="none" stroke-width="0"/><path d="M223.03686,186.52628l-3.4469,1.97821l-3.44691,-1.97821l3.44691,-1.97821z" fill="none" stroke="#000000" stroke-width="0.75"/><path d="M219.58996,183.07938l1.97821,3.4469l-1.97821,3.44691l-1.97821,-3.44691z" fill="none" stroke="#000000" stroke-width="0.75"/><path d="M222.02729,184.08895l-1.03853,3.83614l-3.83614,1.03853l1.03853,-3.83614z" fill="none" stroke="#000000" stroke-width="0.75"/><path d="M217.15262,184.08895l3.83614,1.03853l1.03853,3.83614l-3.83614,-1.03853z" fill="none" stroke="#000000" stroke-width="0.75"/></g><g><g><path d="M217.44291,186.53762c0,-1.19205 0.96634,-2.15839 2.15839,-2.15839c1.19205,0 2.15839,0.96634 2.15839,2.15839c0,1.19205 -0.96634,2.15839 -2.15839,2.15839c-1.19205,0 -2.15839,-0.96635 -2.15839,-2.15839z" fill="#cccccc" stroke="none" stroke-width="NaN"/><path d="M217.44291,186.53762c0,-0.2856 0.05546,-0.55823 0.15622,-0.80773c0.32338,1.43792 1.60806,2.51209 3.14363,2.51209c0.06381,0 0.12719,-0.00186 0.19008,-0.00552c-0.36678,0.28788 -0.82912,0.45955 -1.33154,0.45955c-1.19205,0 -2.15839,-0.96635 -2.15839,-2.15839z" fill="#999999" stroke="none" stroke-width="NaN"/><path d="M217.44291,186.53762c0,-1.19205 0.96634,-2.15839 2.15839,-2.15839c1.19205,0 2.15839,0.96634 2.15839,2.15839c0,1.19205 -0.96634,2.15839 -2.15839,2.15839c-1.19205,0 -2.15839,-0.96635 -2.15839,-2.15839z" fill="none" stroke="#000000" stroke-width="0.75"/></g><path d="M220.44092,187.64118l-1.69671,-0.09098l0.00687,-0.6105c0,0 1.44223,-0.75948 0.94962,-0.79076c-0.37831,-0.02402 -0.403,0.3047 -0.403,0.3047l-0.51932,-0.08219c0,0 0.00876,-0.74004 0.82345,-0.88016c0.41276,-0.071 0.88708,0.22488 0.9196,0.5656c0.06134,0.64264 -0.81254,0.93401 -0.81254,0.93401l0.80548,0.06432z" fill="#828282" stroke="none" stroke-width="0.5"/><path d="M219.6219,185.8071c-0.08211,-0.16773 -0.04495,-0.36286 0.07851,-0.48922c0.45657,-1.49063 2.47022,2.21961 0.2743,0.72875c-0.14658,-0.01145 -0.28348,-0.09791 -0.3528,-0.23953z" fill="#f2f2f2" stroke="none" stroke-width="0.5"/></g></g><g stroke-linecap="butt"><g><path d="M232.03686,187.12628l-3.4469,1.97821l-3.44691,-1.97821l3.44691,-1.97821z" fill="#f29561" stroke="none" stroke-width="0"/><path d="M228.58996,183.67938l1.97821,3.4469l-1.97821,3.44691l-1.97821,-3.44691z" fill="#f29561" stroke="none" stroke-width="0"/><path d="M231.02729,184.68895l-1.03853,3.83614l-3.83614,1.03853l1.03853,-3.83614z" fill="#f29561" stroke="none" stroke-width="0"/><path d="M226.15262,184.68895l3.83614,1.03853l1.03853,3.83614l-3.83614,-1.03853z" fill="#f29561" stroke="none" stroke-width="0"/><path d="M228.58996,189.10449l-3.44691,-1.97821l1.10587,-0.63466c0.47538,1.18634 1.63589,2.02423 2.9921,2.02423c0.14318,0 0.28419,-0.00934 0.42244,-0.02745z" fill="#cc4729" stroke="none" stroke-width="0"/><path d="M228.58996,190.57319l-1.90064,-3.31176c0.58925,0.763 1.51308,1.25441 2.5517,1.25441c0.19003,0 0.37622,-0.01645 0.55721,-0.048z" fill="#cc4729" stroke="none" stroke-width="0"/><path d="M229.98876,188.52509l-3.83614,1.03853l0.60133,-2.2212c0.59098,0.71661 1.48568,1.17343 2.48707,1.17343c0.26743,0 0.52724,-0.03258 0.77569,-0.09399z" fill="#cc4729" stroke="none" stroke-width="0"/><path d="M231.02729,189.56362l-3.83614,-1.03853l-0.2692,-0.99441c0.58601,0.60738 1.40842,0.98516 2.31907,0.98516c0.50737,0 0.98735,-0.11727 1.41431,-0.32618z" fill="#cc4729" stroke="none" stroke-width="0"/><path d="M232.03686,187.12628l-3.4469,1.97821l-3.44691,-1.97821l3.44691,-1.97821z" fill="none" stroke="#000000" stroke-width="0.75"/><path d="M228.58996,183.67938l1.97821,3.4469l-1.97821,3.44691l-1.97821,-3.44691z" fill="none" stroke="#000000" stroke-width="0.75"/><path d="M231.02729,184.68895l-1.03853,3.83614l-3.83614,1.03853l1.03853,-3.83614z" fill="none" stroke="#000000" stroke-width="0.75"/><path d="M226.15262,184.68895l3.83614,1.03853l1.03853,3.83614l-3.83614,-1.03853z" fill="none" stroke="#000000" stroke-width="0.75"/></g><g><g><path d="M226.44291,187.13762c0,-1.19205 0.96634,-2.15839 2.15839,-2.15839c1.19205,0 2.15839,0.96634 2.15839,2.15839c0,1.19205 -0.96634,2.15839 -2.15839,2.15839c-1.19205,0 -2.15839,-0.96635 -2.15839,-2.15839z" fill="#f29561" stroke="none" stroke-width="NaN"/><path d="M226.44291,187.13762c0,-0.2856 0.05546,-0.55823 0.15622,-0.80773c0.32338,1.43792 1.60806,2.51209 3.14363,2.51209c0.06381,0 0.12719,-0.00186 0.19008,-0.00552c-0.36678,0.28788 -0.82912,0.45955 -1.33154,0.45955c-1.19205,0 -2.15839,-0.96635 -2.15839,-2.15839z" fill="#cc4729" stroke="none" stroke-width="NaN"/><path d="M226.44291,187.13762c0,-1.19205 0.96634,-2.15839 2.15839,-2.15839c1.19205,0 2.15839,0.96634 2.15839,2.15839c0,1.19205 -0.96634,2.15839 -2.15839,2.15839c-1.19205,0 -2.15839,-0.96635 -2.15839,-2.15839z" fill="none" stroke="#000000" stroke-width="0.75"/></g><path d="M227.71063,187.35584l0.54406,0.03331c0,0 0.13207,0.39853 0.43368,0.28106c0.23716,-0.09237 -0.24658,-0.58035 -0.24658,-0.58035l0.50999,-0.41747l-1.12571,-0.05185l0.12955,-0.56016l1.75176,0.14851l-0.03874,0.51939l-0.51106,0.45026c0,0 0.43053,0.42052 0.27506,0.7776c-0.08324,0.19118 -0.38933,0.32135 -0.81148,0.29316c-0.28662,-0.01914 -0.4086,-0.00945 -0.55122,-0.08676c-0.47768,-0.25896 -0.35931,-0.8067 -0.35931,-0.8067z" fill="#bc452a" stroke="none" stroke-width="0.5"/><path d="M228.6219,186.4071c-0.08211,-0.16773 -0.04495,-0.36286 0.07851,-0.48922c0.45657,-1.49063 2.47022,2.21961 0.2743,0.72875c-0.14658,-0.01145 -0.28348,-0.09791 -0.3528,-0.23953z" fill="#f2ba91" stroke="none" stroke-width="0.5"/></g></g><g stroke-linecap="butt"><g><g><path d="M241.23686,187.72628l-3.4469,1.97821l-3.44691,-1.97821l3.44691,-1.97821z" fill="#cc7a00" stroke="none" stroke-width="0"/><path d="M237.78996,184.27938l1.97821,3.4469l-1.97821,3.44691l-1.97821,-3.44691z" fill="#cc7a00" stroke="none" stroke-width="0"/><path d="M240.22729,185.28895l-1.03853,3.83614l-3.83614,1.03853l1.03853,-3.83614z" fill="#cc7a00" stroke="none" stroke-width="0"/><path d="M235.35262,185.28895l3.83614,1.03853l1.03853,3.83614l-3.83614,-1.03853z" fill="#cc7a00" stroke="none" stroke-width="0"/><path d="M237.78996,189.70449l-3.44691,-1.97821l1.10587,-0.63466c0.47538,1.18634 1.63589,2.02423 2.9921,2.02423c0.14318,0 0.28419,-0.00934 0.42244,-0.02745z" fill="#994b1f" stroke="none" stroke-width="0"/><path d="M237.78996,191.17319l-1.90064,-3.31176c0.58925,0.763 1.51308,1.25441 2.5517,1.25441c0.19003,0 0.37622,-0.01645 0.55721,-0.048z" fill="#994b1f" stroke="none" stroke-width="0"/><path d="M239.18876,189.12509l-3.83614,1.03853l0.60133,-2.2212c0.59098,0.71661 1.48568,1.17343 2.48707,1.17343c0.26743,0 0.52724,-0.03258 0.77569,-0.09399z" fill="#994b1f" stroke="none" stroke-width="0"/><path d="M240.22729,190.16362l-3.83614,-1.03853l-0.2692,-0.99441c0.58601,0.60738 1.40842,0.98516 2.31907,0.98516c0.50737,0 0.98735,-0.11727 1.41431,-0.32618z" fill="#994b1f" stroke="none" stroke-width="0"/><path d="M241.23686,187.72628l-3.4469,1.97821l-3.44691,-1.97821l3.44691,-1.97821z" fill="none" stroke="#000000" stroke-width="0.75"/><path d="M237.78996,184.27938l1.97821,3.4469l-1.97821,3.44691l-1.97821,-3.44691z" fill="none" stroke="#000000" stroke-width="0.75"/><path d="M240.22729,185.28895l-1.03853,3.83614l-3.83614,1.03853l1.03853,-3.83614z" fill="none" stroke="#000000" stroke-width="0.75"/><path d="M235.35262,185.28895l3.83614,1.03853l1.03853,3.83614l-3.83614,-1.03853z" fill="none" stroke="#000000" stroke-width="0.75"/></g><g><g><path d="M235.64291,187.73762c0,-1.19205 0.96634,-2.15839 2.15839,-2.15839c1.19205,0 2.15839,0.96634 2.15839,2.15839c0,1.19205 -0.96634,2.15839 -2.15839,2.15839c-1.19205,0 -2.15839,-0.96635 -2.15839,-2.15839z" fill="#cc7a00" stroke="none" stroke-width="NaN"/><path d="M235.64291,187.73762c0,-0.2856 0.05546,-0.55823 0.15622,-0.80773c0.32338,1.43792 1.60806,2.51209 3.14363,2.51209c0.06381,0 0.12719,-0.00186 0.19008,-0.00552c-0.36678,0.28788 -0.82912,0.45955 -1.33154,0.45955c-1.19205,0 -2.15839,-0.96635 -2.15839,-2.15839z" fill="#994b1f" stroke="none" stroke-width="NaN"/><path d="M235.64291,187.73762c0,-1.19205 0.96634,-2.15839 2.15839,-2.15839c1.19205,0 2.15839,0.96634 2.15839,2.15839c0,1.19205 -0.96634,2.15839 -2.15839,2.15839c-1.19205,0 -2.15839,-0.96635 -2.15839,-2.15839z" fill="none" stroke="#000000" stroke-width="0.75"/></g></g></g><path d="M237.70771,188.84892l0.02243,-0.54912l-0.9348,-0.12405c0,0 0.11891,-1.25722 0.15583,-1.55652l0.78949,0.09965c-0.02296,0.18492 -0.16894,0.87352 -0.16206,0.87445l0.30842,0.06746c0.00171,-0.0679 0.08573,-0.84034 0.08562,-0.90821l0.79563,0.06818c-0.0005,0.33285 -0.28574,2.14179 -0.28574,2.14179z" fill="#803f1a" stroke="none" stroke-width="0.5"/></g><g stroke-linecap="butt"><g><g><path d="M249.82576,188.65961l-3.4469,1.97821l-3.44691,-1.97821l3.44691,-1.97821z" fill="#cc7a00" stroke="none" stroke-width="0"/><path d="M246.37886,185.21271l1.97821,3.4469l-1.97821,3.44691l-1.97821,-3.44691z" fill="#cc7a00" stroke="none" stroke-width="0"/><path d="M248.81619,186.22228l-1.03853,3.83614l-3.83614,1.03853l1.03853,-3.83614z" fill="#cc7a00" stroke="none" stroke-width="0"/><path d="M243.94151,186.22228l3.83614,1.03853l1.03853,3.83614l-3.83614,-1.03853z" fill="#cc7a00" stroke="none" stroke-width="0"/><path d="M246.37886,190.63782l-3.44691,-1.97821l1.10587,-0.63466c0.47538,1.18634 1.63589,2.02423 2.9921,2.02423c0.14318,0 0.28419,-0.00934 0.42244,-0.02745z" fill="#994b1f" stroke="none" stroke-width="0"/><path d="M246.37886,192.10652l-1.90064,-3.31176c0.58925,0.763 1.51308,1.25441 2.5517,1.25441c0.19003,0 0.37622,-0.01645 0.55721,-0.048z" fill="#994b1f" stroke="none" stroke-width="0"/><path d="M247.77765,190.05842l-3.83614,1.03853l0.60133,-2.2212c0.59098,0.71661 1.48568,1.17343 2.48707,1.17343c0.26743,0 0.52724,-0.03258 0.77569,-0.09399z" fill="#994b1f" stroke="none" stroke-width="0"/><path d="M248.81619,191.09695l-3.83614,-1.03853l-0.2692,-0.99441c0.58601,0.60738 1.40842,0.98516 2.31907,0.98516c0.50737,0 0.98735,-0.11727 1.41431,-0.32618z" fill="#994b1f" stroke="none" stroke-width="0"/><path d="M249.82576,188.65961l-3.4469,1.97821l-3.44691,-1.97821l3.44691,-1.97821z" fill="none" stroke="#000000" stroke-width="0.75"/><path d="M246.37886,185.21271l1.97821,3.4469l-1.97821,3.44691l-1.97821,-3.44691z" fill="none" stroke="#000000" stroke-width="0.75"/><path d="M248.81619,186.22228l-1.03853,3.83614l-3.83614,1.03853l1.03853,-3.83614z" fill="none" stroke="#000000" stroke-width="0.75"/><path d="M243.94151,186.22228l3.83614,1.03853l1.03853,3.83614l-3.83614,-1.03853z" fill="none" stroke="#000000" stroke-width="0.75"/></g><g><g><path d="M244.2318,188.67095c0,-1.19205 0.96634,-2.15839 2.15839,-2.15839c1.19205,0 2.15839,0.96634 2.15839,2.15839c0,1.19205 -0.96634,2.15839 -2.15839,2.15839c-1.19205,0 -2.15839,-0.96635 -2.15839,-2.15839z" fill="#cc7a00" stroke="none" stroke-width="NaN"/><path d="M244.2318,188.67095c0,-0.2856 0.05546,-0.55823 0.15622,-0.80773c0.32338,1.43792 1.60806,2.51209 3.14363,2.51209c0.06381,0 0.12719,-0.00186 0.19008,-0.00552c-0.36678,0.28788 -0.82912,0.45955 -1.33154,0.45955c-1.19205,0 -2.15839,-0.96635 -2.15839,-2.15839z" fill="#994b1f" stroke="none" stroke-width="NaN"/><path d="M244.2318,188.67095c0,-1.19205 0.96634,-2.15839 2.15839,-2.15839c1.19205,0 2.15839,0.96634 2.15839,2.15839c0,1.19205 -0.96634,2.15839 -2.15839,2.15839c-1.19205,0 -2.15839,-0.96635 -2.15839,-2.15839z" fill="none" stroke="#000000" stroke-width="0.75"/></g></g></g><path d="M245.40304,189.09914l0.88427,0.08297c0.07546,-0.08049 0.00316,-0.2211 -0.12277,-0.302c-0.23021,-0.14788 -0.63963,-0.22452 -0.65308,-0.27687c-0.02714,-0.0792 0.23058,-1.06711 0.23058,-1.06711l1.60264,0.09356l-0.05828,0.73719l-0.92173,-0.12034l-0.01226,0.22075c0,0 0.63977,0.09887 0.77592,0.33484c0.22408,0.38834 0.01036,0.98903 -0.97114,1.06455l-0.88641,-0.10504z" fill="#803f1a" stroke="none" stroke-width="0.5"/></g><g stroke-linecap="butt"><g><path d="M206.30924,186.91906l-3.6239,1.6315l-3.23684,-2.30594l3.62391,-1.6315z" fill="#999cff" stroke="none" stroke-width="0"/><path d="M203.21609,183.15147l1.6315,3.6239l-2.30594,3.23684l-1.6315,-3.62391z" fill="#999cff" stroke="none" stroke-width="0"/><path d="M205.54295,184.39465l-1.40885,3.71613l-3.91934,0.65825l1.40885,-3.71613z" fill="#999cff" stroke="none" stroke-width="0"/><path d="M200.69167,183.91775l3.71613,1.40885l0.65825,3.91934l-3.71613,-1.40885z" fill="#999cff" stroke="none" stroke-width="0"/><path d="M202.68533,188.55056l-3.23684,-2.30594l1.16266,-0.52342c0.35704,1.22716 1.43001,2.17456 2.77971,2.30725c0.14249,0.01401 0.28374,0.01851 0.4231,0.01401z" fill="#6567a8" stroke="none" stroke-width="0"/><path d="M202.54165,190.01221l-1.56752,-3.48182c0.51178,0.81699 1.3831,1.39642 2.41674,1.49803c0.18912,0.01859 0.37602,0.02044 0.55923,0.00674z" fill="#6567a8" stroke="none" stroke-width="0"/><path d="M204.1341,188.11078l-3.91934,0.65825l0.81575,-2.15171c0.51804,0.77099 1.36375,1.31315 2.36034,1.41112c0.26615,0.02616 0.5279,0.01916 0.78116,-0.01765z" fill="#6567a8" stroke="none" stroke-width="0"/><path d="M205.06605,189.24593l-3.71613,-1.40885l-0.17062,-1.01598c0.52378,0.6618 1.30528,1.11822 2.21156,1.20732c0.50494,0.04964 0.99409,-0.02011 1.43944,-0.18625z" fill="#6567a8" stroke="none" stroke-width="0"/><path d="M206.30924,186.91906l-3.6239,1.6315l-3.23684,-2.30594l3.62391,-1.6315z" fill="none" stroke="#000000" stroke-width="0.75"/><path d="M203.21609,183.15147l1.6315,3.6239l-2.30594,3.23684l-1.6315,-3.62391z" fill="none" stroke="#000000" stroke-width="0.75"/><path d="M205.54295,184.39465l-1.40885,3.71613l-3.91934,0.65825l1.40885,-3.71613z" fill="none" stroke="#000000" stroke-width="0.75"/><path d="M200.69167,183.91775l3.71613,1.40885l0.65825,3.91934l-3.71613,-1.40885z" fill="none" stroke="#000000" stroke-width="0.75"/></g><g><path d="M200.74101,186.38307c0.11662,-1.18633 1.17287,-2.0535 2.3592,-1.93687c1.18633,0.11662 2.0535,1.17287 1.93687,2.3592c-0.11662,1.18633 -1.17287,2.0535 -2.3592,1.93687c-1.18633,-0.11662 -2.05349,-1.17288 -1.93687,-2.3592z" fill="#999cff" stroke="none" stroke-width="NaN"/><path d="M200.74101,186.38307c0.02794,-0.28423 0.10981,-0.55013 0.23449,-0.78857c0.18115,1.46266 1.35458,2.65736 2.88278,2.80759c0.0635,0.00624 0.12676,0.01059 0.18971,0.0131c-0.39318,0.25062 -0.8701,0.37623 -1.37011,0.32708c-1.18633,-0.11662 -2.05349,-1.17288 -1.93687,-2.3592z" fill="#6567a8" stroke="none" stroke-width="NaN"/><path d="M200.74101,186.38307c0.11662,-1.18633 1.17287,-2.0535 2.3592,-1.93687c1.18633,0.11662 2.0535,1.17287 1.93687,2.3592c-0.11662,1.18633 -1.17287,2.0535 -2.3592,1.93687c-1.18633,-0.11662 -2.05349,-1.17288 -1.93687,-2.3592z" fill="none" stroke="#000000" stroke-width="0.75"/></g><path d="M202.66317,186.7045c-0.06462,0.31542 0.49295,0.34175 0.86954,0.4564c0.18026,0.05488 0.21987,0.56812 0.03186,0.59962c-0.52658,0.0882 -1.57212,-0.38459 -1.61826,-0.89424c-0.04551,-0.50267 0.31748,-1.19809 0.92863,-1.1923c0.08272,0.00078 0.39612,-0.00502 0.6516,0.04174c0.20059,0.03672 0.36139,0.12074 0.3743,0.16541c0.08522,0.07487 -0.15318,0.61797 -0.34237,0.58539c-0.06236,-0.01074 -0.11642,-0.03688 -0.15909,-0.07364c-0.33809,-0.03402 -0.63467,-0.18396 -0.73621,0.31162z" fill="#555780" stroke="none" stroke-width="0.5"/><path d="M202.98102,185.86923c-0.06531,-0.17496 -0.00923,-0.36552 0.126,-0.47919c0.60021,-1.43881 2.24122,2.45063 0.20169,0.75209c-0.14476,-0.02574 -0.27254,-0.12517 -0.32767,-0.2729z" fill="#d9daff" stroke="none" stroke-width="0.5"/></g><g stroke-linecap="butt"><g><g><path d="M258.43686,188.52628l-3.4469,1.97821l-3.44691,-1.97821l3.44691,-1.97821z" fill="#cc7a00" stroke="none" stroke-width="0"/><path d="M254.98996,185.07938l1.97821,3.4469l-1.97821,3.44691l-1.97821,-3.44691z" fill="#cc7a00" stroke="none" stroke-width="0"/><path d="M257.42729,186.08895l-1.03853,3.83614l-3.83614,1.03853l1.03853,-3.83614z" fill="#cc7a00" stroke="none" stroke-width="0"/><path d="M252.55262,186.08895l3.83614,1.03853l1.03853,3.83614l-3.83614,-1.03853z" fill="#cc7a00" stroke="none" stroke-width="0"/><path d="M254.98996,190.50449l-3.44691,-1.97821l1.10587,-0.63466c0.47538,1.18634 1.63589,2.02423 2.9921,2.02423c0.14318,0 0.28419,-0.00934 0.42244,-0.02745z" fill="#994b1f" stroke="none" stroke-width="0"/><path d="M254.98996,191.97319l-1.90064,-3.31176c0.58925,0.763 1.51308,1.25441 2.5517,1.25441c0.19003,0 0.37622,-0.01645 0.55721,-0.048z" fill="#994b1f" stroke="none" stroke-width="0"/><path d="M256.38876,189.92509l-3.83614,1.03853l0.60133,-2.2212c0.59098,0.71661 1.48568,1.17343 2.48707,1.17343c0.26743,0 0.52724,-0.03258 0.77569,-0.09399z" fill="#994b1f" stroke="none" stroke-width="0"/><path d="M257.42729,190.96362l-3.83614,-1.03853l-0.2692,-0.99441c0.58601,0.60738 1.40842,0.98516 2.31907,0.98516c0.50737,0 0.98735,-0.11727 1.41431,-0.32618z" fill="#994b1f" stroke="none" stroke-width="0"/><path d="M258.43686,188.52628l-3.4469,1.97821l-3.44691,-1.97821l3.44691,-1.97821z" fill="none" stroke="#000000" stroke-width="0.75"/><path d="M254.98996,185.07938l1.97821,3.4469l-1.97821,3.44691l-1.97821,-3.44691z" fill="none" stroke="#000000" stroke-width="0.75"/><path d="M257.42729,186.08895l-1.03853,3.83614l-3.83614,1.03853l1.03853,-3.83614z" fill="none" stroke="#000000" stroke-width="0.75"/><path d="M252.55262,186.08895l3.83614,1.03853l1.03853,3.83614l-3.83614,-1.03853z" fill="none" stroke="#000000" stroke-width="0.75"/></g><g><g><path d="M252.84291,188.53762c0,-1.19205 0.96634,-2.15839 2.15839,-2.15839c1.19205,0 2.15839,0.96634 2.15839,2.15839c0,1.19205 -0.96634,2.15839 -2.15839,2.15839c-1.19205,0 -2.15839,-0.96635 -2.15839,-2.15839z" fill="#cc7a00" stroke="none" stroke-width="NaN"/><path d="M252.84291,188.53762c0,-0.2856 0.05546,-0.55823 0.15622,-0.80773c0.32338,1.43792 1.60806,2.51209 3.14363,2.51209c0.06381,0 0.12719,-0.00186 0.19008,-0.00552c-0.36678,0.28788 -0.82912,0.45955 -1.33154,0.45955c-1.19205,0 -2.15839,-0.96635 -2.15839,-2.15839z" fill="#994b1f" stroke="none" stroke-width="NaN"/><path d="M252.84291,188.53762c0,-1.19205 0.96634,-2.15839 2.15839,-2.15839c1.19205,0 2.15839,0.96634 2.15839,2.15839c0,1.19205 -0.96634,2.15839 -2.15839,2.15839c-1.19205,0 -2.15839,-0.96635 -2.15839,-2.15839z" fill="none" stroke="#000000" stroke-width="0.75"/></g></g></g><path d="M255.94334,188.71424c0,0.00892 -0.00029,0.01778 -0.00087,0.02656c0.47854,0.95292 -1.44912,1.33877 -1.93295,0.77429c-0.74469,-0.86881 0.75501,-2.16745 1.44592,-2.26208c0.13619,-0.01865 0.63286,0.4696 0.60966,0.52026c-0.03198,0.06983 -0.2404,0.14259 -0.4412,0.25154c-0.19563,0.10614 -0.38402,0.24931 -0.39496,0.25765c0.35576,0.10324 0.7144,0.41249 0.7144,0.43177zM254.63168,189.03421c0.1791,0.13437 0.44788,0.07561 0.47101,-0.10387c0.01206,-0.09362 -0.17292,-0.17806 -0.29542,-0.14832c-0.11235,0.02728 -0.19887,0.23472 -0.17559,0.25219z" fill="#803f1a" stroke="none" stroke-width="0.5"/></g><g><g stroke-linecap="butt"><path d="M237.41814,163.65637c0,-0.78547 0.63675,-1.42222 1.42222,-1.42222c0.78547,0 1.42222,0.63675 1.42222,1.42222c0,0.78547 -0.63675,1.42222 -1.42222,1.42222c-0.78547,0 -1.42222,-0.63675 -1.42222,-1.42222z" fill="#f29561" stroke="#000000" stroke-width="0"/><path d="M237.41814,163.65637c0,-0.28098 0.08149,-0.54292 0.22211,-0.7635c0.37415,0.90914 1.26875,1.54918 2.31284,1.54918c0.02464,0 0.0492,-0.00035 0.07367,-0.00106c-0.25463,0.38423 -0.69092,0.6376 -1.18639,0.6376c-0.78547,0 -1.42223,-0.63675 -1.42223,-1.42222z" fill="#cc4729" stroke="#000000" stroke-width="0"/><path d="M238.68172,162.78295c0.19526,-0.19526 0.59243,-0.11468 0.8871,0.17999c0.29467,0.29467 0.37525,0.69184 0.17999,0.8871c-0.19526,0.19526 -0.59242,0.11468 -0.88709,-0.17999c-0.29467,-0.29467 -0.37526,-0.69184 -0.18,-0.8871z" fill="#f2ba91" stroke="none" stroke-width="0.5"/><path d="M237.41814,163.65637c0,-0.78547 0.63676,-1.42222 1.42223,-1.42222c0.78547,0 1.42222,0.63675 1.42222,1.42222c0,0.78547 -0.63675,1.42222 -1.42222,1.42222c-0.78547,0 -1.42223,-0.63675 -1.42223,-1.42222z" fill="none" stroke="#000000" stroke-width="1"/></g><g stroke-linecap="butt"><path d="M238.14542,166.27454c0,-0.78547 0.63675,-1.42222 1.42222,-1.42222c0.78547,0 1.42222,0.63675 1.42222,1.42222c0,0.78547 -0.63675,1.42222 -1.42222,1.42222c-0.78547,0 -1.42222,-0.63675 -1.42222,-1.42222z" fill="#f29561" stroke="#000000" stroke-width="0"/><path d="M238.14541,166.27454c0,-0.28098 0.08148,-0.54292 0.2221,-0.7635c0.37415,0.90914 1.26875,1.54918 2.31284,1.54918c0.02464,0 0.0492,-0.00035 0.07367,-0.00106c-0.25463,0.38423 -0.69092,0.6376 -1.18639,0.6376c-0.78547,0 -1.42222,-0.63675 -1.42222,-1.42222z" fill="#cc4729" stroke="#000000" stroke-width="0"/><path d="M239.409,165.40113c0.19526,-0.19526 0.59243,-0.11468 0.8871,0.17999c0.29467,0.29467 0.37525,0.69184 0.17999,0.8871c-0.19526,0.19526 -0.59242,0.11468 -0.88709,-0.17999c-0.29467,-0.29467 -0.37525,-0.69184 -0.17999,-0.8871z" fill="#f2ba91" stroke="none" stroke-width="0.5"/><path d="M238.14541,166.27454c0,-0.78547 0.63675,-1.42222 1.42222,-1.42222c0.78547,0 1.42222,0.63675 1.42222,1.42222c0,0.78547 -0.63675,1.42222 -1.42222,1.42222c-0.78547,0 -1.42222,-0.63675 -1.42222,-1.42222z" fill="none" stroke="#000000" stroke-width="1"/></g><g stroke-linecap="butt"><path d="M239.59996,168.38364c0,-0.78547 0.63675,-1.42222 1.42222,-1.42222c0.78547,0 1.42222,0.63675 1.42222,1.42222c0,0.78547 -0.63675,1.42222 -1.42222,1.42222c-0.78547,0 -1.42222,-0.63675 -1.42222,-1.42222z" fill="#f29561" stroke="#000000" stroke-width="0"/><path d="M239.59996,168.38364c0,-0.28098 0.08148,-0.54292 0.2221,-0.7635c0.37415,0.90914 1.26875,1.54918 2.31284,1.54918c0.02464,0 0.0492,-0.00036 0.07367,-0.00107c-0.25463,0.38423 -0.69092,0.6376 -1.18639,0.6376c-0.78547,0 -1.42222,-0.63675 -1.42222,-1.42222z" fill="#cc4729" stroke="#000000" stroke-width="0"/><path d="M240.86354,167.51021c0.19526,-0.19526 0.59243,-0.11468 0.8871,0.17999c0.29467,0.29467 0.37525,0.69184 0.17999,0.8871c-0.19526,0.19526 -0.59242,0.11468 -0.88709,-0.17999c-0.29467,-0.29467 -0.37525,-0.69184 -0.17999,-0.8871z" fill="#f2ba91" stroke="none" stroke-width="0.5"/><path d="M239.59996,168.38364c0,-0.78547 0.63675,-1.42222 1.42222,-1.42222c0.78547,0 1.42222,0.63675 1.42222,1.42222c0,0.78547 -0.63675,1.42222 -1.42222,1.42222c-0.78547,0 -1.42222,-0.63675 -1.42222,-1.42222z" fill="none" stroke="#000000" stroke-width="1"/></g><g stroke-linecap="butt"><path d="M241.92724,169.22c0,-0.78547 0.63675,-1.42222 1.42222,-1.42222c0.78547,0 1.42223,0.63675 1.42223,1.42222c0,0.78547 -0.63676,1.42222 -1.42223,1.42222c-0.78547,0 -1.42222,-0.63675 -1.42222,-1.42222z" fill="#f29561" stroke="#000000" stroke-width="0"/><path d="M241.92723,169.22c0,-0.28098 0.08148,-0.54292 0.2221,-0.7635c0.37415,0.90914 1.26875,1.54918 2.31284,1.54918c0.02464,0 0.0492,-0.00036 0.07367,-0.00107c-0.25463,0.38423 -0.69092,0.6376 -1.18639,0.6376c-0.78547,0 -1.42222,-0.63675 -1.42222,-1.42222z" fill="#cc4729" stroke="#000000" stroke-width="0"/><path d="M243.19082,168.34659c0.19526,-0.19526 0.59243,-0.11468 0.8871,0.17999c0.29467,0.29467 0.37525,0.69184 0.17999,0.8871c-0.19526,0.19526 -0.59242,0.11468 -0.88709,-0.17999c-0.29467,-0.29467 -0.37526,-0.69184 -0.18,-0.8871z" fill="#f2ba91" stroke="none" stroke-width="0.5"/><path d="M241.92723,169.22c0,-0.78547 0.63675,-1.42222 1.42222,-1.42222c0.78547,0 1.42222,0.63675 1.42222,1.42222c0,0.78547 -0.63675,1.42222 -1.42222,1.42222c-0.78547,0 -1.42222,-0.63675 -1.42222,-1.42222z" fill="none" stroke="#000000" stroke-width="1"/></g><g stroke-linecap="butt"><path d="M244.43633,168.56545c0,-0.78547 0.63675,-1.42222 1.42222,-1.42222c0.78547,0 1.42222,0.63675 1.42222,1.42222c0,0.78547 -0.63675,1.42222 -1.42222,1.42222c-0.78547,0 -1.42222,-0.63675 -1.42222,-1.42222z" fill="#f29561" stroke="#000000" stroke-width="0"/><path d="M244.43632,168.56545c0,-0.28098 0.08148,-0.54292 0.2221,-0.7635c0.37415,0.90914 1.26875,1.54918 2.31284,1.54918c0.02464,0 0.0492,-0.00035 0.07367,-0.00106c-0.25463,0.38423 -0.69092,0.6376 -1.18639,0.6376c-0.78547,0 -1.42222,-0.63675 -1.42222,-1.42222z" fill="#cc4729" stroke="#000000" stroke-width="0"/><path d="M245.69991,167.69204c0.19526,-0.19526 0.59243,-0.11468 0.8871,0.17999c0.29467,0.29467 0.37525,0.69184 0.17999,0.8871c-0.19526,0.19526 -0.59242,0.11468 -0.88709,-0.17999c-0.29467,-0.29467 -0.37525,-0.69184 -0.17999,-0.8871z" fill="#f2ba91" stroke="none" stroke-width="0.5"/><path d="M244.43632,168.56545c0,-0.78547 0.63675,-1.42222 1.42222,-1.42222c0.78547,0 1.42222,0.63675 1.42222,1.42222c0,0.78547 -0.63675,1.42222 -1.42222,1.42222c-0.78547,0 -1.42222,-0.63675 -1.42222,-1.42222z" fill="none" stroke="#000000" stroke-width="1"/></g><g stroke-linecap="butt"><path d="M246.29087,166.5291c0,-0.78547 0.63675,-1.42222 1.42222,-1.42222c0.78547,0 1.42222,0.63675 1.42222,1.42222c0,0.78547 -0.63675,1.42222 -1.42222,1.42222c-0.78547,0 -1.42222,-0.63675 -1.42222,-1.42222z" fill="#f29561" stroke="#000000" stroke-width="0"/><path d="M246.29087,166.52909c0,-0.28098 0.08148,-0.54292 0.2221,-0.7635c0.37415,0.90914 1.26875,1.54918 2.31284,1.54918c0.02464,0 0.0492,-0.00036 0.07367,-0.00107c-0.25463,0.38423 -0.69092,0.6376 -1.18639,0.6376c-0.78547,0 -1.42222,-0.63675 -1.42222,-1.42222z" fill="#cc4729" stroke="#000000" stroke-width="0"/><path d="M247.55445,165.65568c0.19526,-0.19526 0.59243,-0.11468 0.8871,0.17999c0.29467,0.29467 0.37525,0.69184 0.17999,0.8871c-0.19526,0.19526 -0.59242,0.11468 -0.88709,-0.17999c-0.29467,-0.29467 -0.37525,-0.69184 -0.17999,-0.8871z" fill="#f2ba91" stroke="none" stroke-width="0.5"/><path d="M246.29087,166.52909c0,-0.78547 0.63675,-1.42222 1.42222,-1.42222c0.78547,0 1.42222,0.63675 1.42222,1.42222c0,0.78547 -0.63675,1.42222 -1.42222,1.42222c-0.78547,0 -1.42222,-0.63675 -1.42222,-1.42222z" fill="none" stroke="#000000" stroke-width="1"/></g><g stroke-linecap="butt"><path d="M247.59996,164.09273c0,-0.78547 0.63675,-1.42222 1.42222,-1.42222c0.78547,0 1.42222,0.63675 1.42222,1.42222c0,0.78547 -0.63675,1.42222 -1.42222,1.42222c-0.78547,0 -1.42222,-0.63675 -1.42222,-1.42222z" fill="#f29561" stroke="#000000" stroke-width="0"/><path d="M247.59996,164.09273c0,-0.28098 0.08148,-0.54292 0.2221,-0.76349c0.37415,0.90914 1.26875,1.54918 2.31284,1.54918c0.02464,0 0.0492,-0.00036 0.07367,-0.00107c-0.25463,0.38423 -0.69092,0.6376 -1.18639,0.6376c-0.78547,0 -1.42222,-0.63676 -1.42222,-1.42223z" fill="#cc4729" stroke="#000000" stroke-width="0"/><path d="M248.86354,163.2193c0.19526,-0.19526 0.59243,-0.11468 0.8871,0.17999c0.29467,0.29467 0.37525,0.69184 0.17999,0.8871c-0.19526,0.19526 -0.59242,0.11468 -0.88709,-0.17999c-0.29467,-0.29467 -0.37525,-0.69184 -0.17999,-0.8871z" fill="#f2ba91" stroke="none" stroke-width="0.5"/><path d="M247.59996,164.09273c0,-0.78547 0.63675,-1.42222 1.42222,-1.42222c0.78547,0 1.42222,0.63675 1.42222,1.42222c0,0.78547 -0.63675,1.42223 -1.42222,1.42223c-0.78547,0 -1.42222,-0.63676 -1.42222,-1.42223z" fill="none" stroke="#000000" stroke-width="1"/></g><g stroke-linecap="butt"><path d="M248.47269,161.51091c0,-0.78547 0.63675,-1.42222 1.42222,-1.42222c0.78547,0 1.42222,0.63675 1.42222,1.42222c0,0.78547 -0.63675,1.42222 -1.42222,1.42222c-0.78547,0 -1.42222,-0.63675 -1.42222,-1.42222z" fill="#f29561" stroke="#000000" stroke-width="0"/><path d="M248.47268,161.51091c0,-0.28098 0.08148,-0.54292 0.2221,-0.7635c0.37415,0.90914 1.26875,1.54919 2.31284,1.54919c0.02464,0 0.0492,-0.00036 0.07367,-0.00107c-0.25463,0.38423 -0.69092,0.6376 -1.18639,0.6376c-0.78547,0 -1.42222,-0.63675 -1.42222,-1.42222z" fill="#cc4729" stroke="#000000" stroke-width="0"/><path d="M249.73627,160.63749c0.19526,-0.19526 0.59243,-0.11468 0.8871,0.17999c0.29467,0.29467 0.37525,0.69184 0.17999,0.8871c-0.19526,0.19526 -0.59242,0.11468 -0.88709,-0.17999c-0.29467,-0.29467 -0.37525,-0.69184 -0.17999,-0.8871z" fill="#f2ba91" stroke="none" stroke-width="0.5"/><path d="M248.47268,161.51091c0,-0.78547 0.63675,-1.42222 1.42222,-1.42222c0.78547,0 1.42222,0.63675 1.42222,1.42222c0,0.78547 -0.63675,1.42222 -1.42222,1.42222c-0.78547,0 -1.42222,-0.63675 -1.42222,-1.42222z" fill="none" stroke="#000000" stroke-width="1"/></g><g><g stroke="#000000" stroke-linecap="butt"><path d="M241.50092,178.82943c0,0 -0.54246,0.01331 -0.81654,-0.04233c-0.29546,-0.05999 -0.89691,-0.30554 -0.89691,-0.30554l0.56665,-4.32887l2.31315,0.46962z" fill="#f29561" stroke-width="0"/><path d="M241.50092,178.82943c0,0 -0.54246,0.01331 -0.81654,-0.04233c-0.29546,-0.05999 -0.89691,-0.30554 -0.89691,-0.30554l0.56665,-4.32887c0,0 0.42351,0.08598 0.70679,0.14349c0.03534,0.00718 -0.1346,0.49594 -0.25265,1.12067c-0.19249,1.01867 -0.38912,2.37 -0.38912,2.37c0,0 0.33777,0.09179 0.66548,0.08086c0.36235,-0.01209 0.71658,-0.12144 0.68082,0.00754c-0.1144,0.41263 -0.26453,0.95417 -0.26453,0.95417z" fill="#cc4729" stroke-width="0"/><path d="M241.50092,178.82943c0,0 -0.54246,0.01331 -0.81654,-0.04233c-0.29546,-0.05999 -0.89691,-0.30554 -0.89691,-0.30554l0.56665,-4.32886l2.31314,0.46962z" fill="none" stroke-width="1"/></g><g stroke="#000000" stroke-linecap="butt"><path d="M239.48042,174.51842l0.31439,-1.54857l3.84876,0.78138l-0.31439,1.54857z" fill="#f29561" stroke-width="0"/><path d="M241.03548,174.83413l0.31439,-1.54857l1.55506,0.31571l-0.31439,1.54857z" fill="#f2ba91" stroke-width="0"/><path d="M239.48042,174.51842l0.31439,-1.54857l3.84875,0.78138l-0.31439,1.54857z" fill="none" stroke-width="1"/></g><g stroke-linecap="butt"><path d="M239.75623,171.77992c-0.10344,-1.30353 0.86942,-2.44412 2.17295,-2.54756c1.30353,-0.10344 2.44412,0.86943 2.54756,2.17296c0.10344,1.30353 -0.86943,2.44411 -2.17297,2.54755c-1.30353,0.10344 -2.44411,-0.86942 -2.54755,-2.17296z" fill="#f29561" stroke="#000000" stroke-width="0"/><path d="M239.75622,171.77991c-0.037,-0.46629 0.06373,-0.91174 0.26805,-1.29631c0.74065,1.45949 2.30958,2.40387 4.0423,2.26637c0.04089,-0.00324 0.08161,-0.00707 0.12212,-0.01147c-0.37196,0.67119 -1.06265,1.14912 -1.88491,1.21437c-1.30353,0.10344 -2.44412,-0.86943 -2.54756,-2.17296z" fill="#cc4729" stroke="#000000" stroke-width="0"/><path d="M241.73819,170.16404c0.29833,-0.34976 0.96807,-0.26834 1.4959,0.18188c0.52783,0.45022 0.71386,1.09872 0.41553,1.44848c-0.29833,0.34976 -0.96806,0.26834 -1.49589,-0.18188c-0.52783,-0.45022 -0.71387,-1.09873 -0.41554,-1.44849z" fill="#f2ba91" stroke="none" stroke-width="0.5"/><path d="M239.75622,171.77991c-0.10344,-1.30353 0.86943,-2.44411 2.17296,-2.54755c1.30353,-0.10344 2.44411,0.86943 2.54755,2.17296c0.10344,1.30353 -0.86943,2.44411 -2.17296,2.54755c-1.30353,0.10344 -2.44412,-0.86943 -2.54756,-2.17296z" fill="none" stroke="#000000" stroke-width="1"/></g><path d="M240.70491,172.96874l1.10997,-3.48053" fill="none" stroke="#000000" stroke-width="0.5" stroke-linecap="round"/><path d="M243.23839,169.95889l-0.86946,3.75327" fill="none" stroke="#000000" stroke-width="0.5" stroke-linecap="round"/><path d="M240.40631,170.58488l3.46213,0.41834" fill="none" stroke="#000000" stroke-width="0.5" stroke-linecap="round"/><path d="M243.60776,172.77486l-3.48514,-0.70834" fill="none" stroke="#000000" stroke-width="0.5" stroke-linecap="round"/></g></g><g><g stroke-linecap="butt"><path d="M205.87744,164.57345c0,-0.78547 0.63675,-1.42222 1.42222,-1.42222c0.78547,0 1.42222,0.63675 1.42222,1.42222c0,0.78547 -0.63675,1.42222 -1.42222,1.42222c-0.78547,0 -1.42222,-0.63675 -1.42222,-1.42222z" fill="#ffd240" stroke="#000000" stroke-width="0"/><path d="M205.87744,164.57345c0,-0.28098 0.08149,-0.54292 0.22211,-0.7635c0.37415,0.90914 1.26875,1.54918 2.31284,1.54918c0.02464,0 0.0492,-0.00035 0.07367,-0.00106c-0.25463,0.38423 -0.69092,0.6376 -1.18639,0.6376c-0.78547,0 -1.42223,-0.63675 -1.42223,-1.42222z" fill="#e69030" stroke="#000000" stroke-width="0"/><path d="M207.14102,163.70003c0.19526,-0.19526 0.59243,-0.11468 0.8871,0.17999c0.29467,0.29467 0.37525,0.69184 0.17999,0.8871c-0.19526,0.19526 -0.59242,0.11468 -0.88709,-0.17999c-0.29467,-0.29467 -0.37526,-0.69184 -0.18,-0.8871z" fill="#fff98b" stroke="none" stroke-width="0.5"/><path d="M205.87744,164.57345c0,-0.78547 0.63676,-1.42222 1.42223,-1.42222c0.78547,0 1.42222,0.63675 1.42222,1.42222c0,0.78547 -0.63675,1.42222 -1.42222,1.42222c-0.78547,0 -1.42223,-0.63675 -1.42223,-1.42222z" fill="none" stroke="#000000" stroke-width="1"/></g><g stroke-linecap="butt"><path d="M206.60472,167.19162c0,-0.78547 0.63675,-1.42222 1.42222,-1.42222c0.78547,0 1.42222,0.63675 1.42222,1.42222c0,0.78547 -0.63675,1.42222 -1.42222,1.42222c-0.78547,0 -1.42222,-0.63675 -1.42222,-1.42222z" fill="#ffd240" stroke="#000000" stroke-width="0"/><path d="M206.60471,167.19162c0,-0.28098 0.08148,-0.54292 0.2221,-0.7635c0.37415,0.90914 1.26875,1.54918 2.31284,1.54918c0.02464,0 0.0492,-0.00035 0.07367,-0.00106c-0.25463,0.38423 -0.69092,0.6376 -1.18639,0.6376c-0.78547,0 -1.42222,-0.63675 -1.42222,-1.42222z" fill="#e69030" stroke="#000000" stroke-width="0"/><path d="M207.8683,166.31821c0.19526,-0.19526 0.59243,-0.11468 0.8871,0.17999c0.29467,0.29467 0.37525,0.69184 0.17999,0.8871c-0.19526,0.19526 -0.59242,0.11468 -0.88709,-0.17999c-0.29467,-0.29467 -0.37525,-0.69184 -0.17999,-0.8871z" fill="#fff98b" stroke="none" stroke-width="0.5"/><path d="M206.60471,167.19162c0,-0.78547 0.63675,-1.42222 1.42222,-1.42222c0.78547,0 1.42222,0.63675 1.42222,1.42222c0,0.78547 -0.63675,1.42222 -1.42222,1.42222c-0.78547,0 -1.42222,-0.63675 -1.42222,-1.42222z" fill="none" stroke="#000000" stroke-width="1"/></g><g stroke-linecap="butt"><path d="M207.95926,169.30073c0,-0.78547 0.63675,-1.42222 1.42222,-1.42222c0.78547,0 1.42222,0.63675 1.42222,1.42222c0,0.78547 -0.63675,1.42222 -1.42222,1.42222c-0.78547,0 -1.42222,-0.63675 -1.42222,-1.42222z" fill="#ffd240" stroke="#000000" stroke-width="0"/><path d="M207.95926,169.30073c0,-0.28098 0.08148,-0.54292 0.2221,-0.7635c0.37415,0.90914 1.26875,1.54918 2.31284,1.54918c0.02464,0 0.0492,-0.00036 0.07367,-0.00107c-0.25463,0.38423 -0.69092,0.6376 -1.18639,0.6376c-0.78547,0 -1.42222,-0.63675 -1.42222,-1.42222z" fill="#e69030" stroke="#000000" stroke-width="0"/><path d="M209.22284,168.42729c0.19526,-0.19526 0.59243,-0.11468 0.8871,0.17999c0.29467,0.29467 0.37525,0.69184 0.17999,0.8871c-0.19526,0.19526 -0.59242,0.11468 -0.88709,-0.17999c-0.29467,-0.29467 -0.37525,-0.69184 -0.17999,-0.8871z" fill="#fff98b" stroke="none" stroke-width="0.5"/><path d="M207.95926,169.30073c0,-0.78547 0.63675,-1.42222 1.42222,-1.42222c0.78547,0 1.42222,0.63675 1.42222,1.42222c0,0.78547 -0.63675,1.42222 -1.42222,1.42222c-0.78547,0 -1.42222,-0.63675 -1.42222,-1.42222z" fill="none" stroke="#000000" stroke-width="1"/></g><g stroke-linecap="butt"><path d="M210.38654,170.13708c0,-0.78547 0.63675,-1.42222 1.42222,-1.42222c0.78547,0 1.42223,0.63675 1.42223,1.42222c0,0.78547 -0.63676,1.42222 -1.42223,1.42222c-0.78547,0 -1.42222,-0.63675 -1.42222,-1.42222z" fill="#ffd240" stroke="#000000" stroke-width="0"/><path d="M210.38653,170.13708c0,-0.28098 0.08148,-0.54292 0.2221,-0.7635c0.37415,0.90914 1.26875,1.54918 2.31284,1.54918c0.02464,0 0.0492,-0.00036 0.07367,-0.00107c-0.25463,0.38423 -0.69092,0.6376 -1.18639,0.6376c-0.78547,0 -1.42222,-0.63675 -1.42222,-1.42222z" fill="#e69030" stroke="#000000" stroke-width="0"/><path d="M211.65012,169.26368c0.19526,-0.19526 0.59243,-0.11468 0.8871,0.17999c0.29467,0.29467 0.37525,0.69184 0.17999,0.8871c-0.19526,0.19526 -0.59242,0.11468 -0.88709,-0.17999c-0.29467,-0.29467 -0.37526,-0.69184 -0.18,-0.8871z" fill="#fff98b" stroke="none" stroke-width="0.5"/><path d="M210.38653,170.13708c0,-0.78547 0.63675,-1.42222 1.42222,-1.42222c0.78547,0 1.42222,0.63675 1.42222,1.42222c0,0.78547 -0.63675,1.42222 -1.42222,1.42222c-0.78547,0 -1.42222,-0.63675 -1.42222,-1.42222z" fill="none" stroke="#000000" stroke-width="1"/></g><g stroke-linecap="butt"><path d="M212.89563,169.48253c0,-0.78547 0.63675,-1.42222 1.42222,-1.42222c0.78547,0 1.42222,0.63675 1.42222,1.42222c0,0.78547 -0.63675,1.42222 -1.42222,1.42222c-0.78547,0 -1.42222,-0.63675 -1.42222,-1.42222z" fill="#ffd240" stroke="#000000" stroke-width="0"/><path d="M212.89562,169.48253c0,-0.28098 0.08148,-0.54292 0.2221,-0.7635c0.37415,0.90914 1.26875,1.54918 2.31284,1.54918c0.02464,0 0.0492,-0.00035 0.07367,-0.00106c-0.25463,0.38423 -0.69092,0.6376 -1.18639,0.6376c-0.78547,0 -1.42222,-0.63675 -1.42222,-1.42222z" fill="#e69030" stroke="#000000" stroke-width="0"/><path d="M214.15921,168.60913c0.19526,-0.19526 0.59243,-0.11468 0.8871,0.17999c0.29467,0.29467 0.37525,0.69184 0.17999,0.8871c-0.19526,0.19526 -0.59242,0.11468 -0.88709,-0.17999c-0.29467,-0.29467 -0.37525,-0.69184 -0.17999,-0.8871z" fill="#fff98b" stroke="none" stroke-width="0.5"/><path d="M212.89562,169.48253c0,-0.78547 0.63675,-1.42222 1.42222,-1.42222c0.78547,0 1.42222,0.63675 1.42222,1.42222c0,0.78547 -0.63675,1.42222 -1.42222,1.42222c-0.78547,0 -1.42222,-0.63675 -1.42222,-1.42222z" fill="none" stroke="#000000" stroke-width="1"/></g><g stroke-linecap="butt"><path d="M214.75017,167.44618c0,-0.78547 0.63675,-1.42222 1.42222,-1.42222c0.78547,0 1.42222,0.63675 1.42222,1.42222c0,0.78547 -0.63675,1.42222 -1.42222,1.42222c-0.78547,0 -1.42222,-0.63675 -1.42222,-1.42222z" fill="#ffd240" stroke="#000000" stroke-width="0"/><path d="M214.75017,167.44617c0,-0.28098 0.08148,-0.54292 0.2221,-0.7635c0.37415,0.90914 1.26875,1.54918 2.31284,1.54918c0.02464,0 0.0492,-0.00036 0.07367,-0.00107c-0.25463,0.38423 -0.69092,0.6376 -1.18639,0.6376c-0.78547,0 -1.42222,-0.63675 -1.42222,-1.42222z" fill="#e69030" stroke="#000000" stroke-width="0"/><path d="M216.01375,166.57277c0.19526,-0.19526 0.59243,-0.11468 0.8871,0.17999c0.29467,0.29467 0.37525,0.69184 0.17999,0.8871c-0.19526,0.19526 -0.59242,0.11468 -0.88709,-0.17999c-0.29467,-0.29467 -0.37525,-0.69184 -0.17999,-0.8871z" fill="#fff98b" stroke="none" stroke-width="0.5"/><path d="M214.75017,167.44617c0,-0.78547 0.63675,-1.42222 1.42222,-1.42222c0.78547,0 1.42222,0.63675 1.42222,1.42222c0,0.78547 -0.63675,1.42222 -1.42222,1.42222c-0.78547,0 -1.42222,-0.63675 -1.42222,-1.42222z" fill="none" stroke="#000000" stroke-width="1"/></g><g stroke-linecap="butt"><path d="M216.05926,165.00982c0,-0.78547 0.63675,-1.42222 1.42222,-1.42222c0.78547,0 1.42222,0.63675 1.42222,1.42222c0,0.78547 -0.63675,1.42222 -1.42222,1.42222c-0.78547,0 -1.42222,-0.63675 -1.42222,-1.42222z" fill="#ffd240" stroke="#000000" stroke-width="0"/><path d="M216.05926,165.00982c0,-0.28098 0.08148,-0.54292 0.2221,-0.76349c0.37415,0.90914 1.26875,1.54918 2.31284,1.54918c0.02464,0 0.0492,-0.00036 0.07367,-0.00107c-0.25463,0.38423 -0.69092,0.6376 -1.18639,0.6376c-0.78547,0 -1.42222,-0.63676 -1.42222,-1.42223z" fill="#e69030" stroke="#000000" stroke-width="0"/><path d="M217.32284,164.13638c0.19526,-0.19526 0.59243,-0.11468 0.8871,0.17999c0.29467,0.29467 0.37525,0.69184 0.17999,0.8871c-0.19526,0.19526 -0.59242,0.11468 -0.88709,-0.17999c-0.29467,-0.29467 -0.37525,-0.69184 -0.17999,-0.8871z" fill="#fff98b" stroke="none" stroke-width="0.5"/><path d="M216.05926,165.00982c0,-0.78547 0.63675,-1.42222 1.42222,-1.42222c0.78547,0 1.42222,0.63675 1.42222,1.42222c0,0.78547 -0.63675,1.42223 -1.42222,1.42223c-0.78547,0 -1.42222,-0.63676 -1.42222,-1.42223z" fill="none" stroke="#000000" stroke-width="1"/></g><g stroke-linecap="butt"><path d="M216.93199,162.42799c0,-0.78547 0.63675,-1.42222 1.42222,-1.42222c0.78547,0 1.42222,0.63675 1.42222,1.42222c0,0.78547 -0.63675,1.42222 -1.42222,1.42222c-0.78547,0 -1.42222,-0.63675 -1.42222,-1.42222z" fill="#ffd240" stroke="#000000" stroke-width="0"/><path d="M216.93198,162.42799c0,-0.28098 0.08148,-0.54292 0.2221,-0.7635c0.37415,0.90914 1.26875,1.54919 2.31284,1.54919c0.02464,0 0.0492,-0.00036 0.07367,-0.00107c-0.25463,0.38423 -0.69092,0.6376 -1.18639,0.6376c-0.78547,0 -1.42222,-0.63675 -1.42222,-1.42222z" fill="#e69030" stroke="#000000" stroke-width="0"/><path d="M218.19557,161.55458c0.19526,-0.19526 0.59243,-0.11468 0.8871,0.17999c0.29467,0.29467 0.37525,0.69184 0.17999,0.8871c-0.19526,0.19526 -0.59242,0.11468 -0.88709,-0.17999c-0.29467,-0.29467 -0.37525,-0.69184 -0.17999,-0.8871z" fill="#fff98b" stroke="none" stroke-width="0.5"/><path d="M216.93198,162.42799c0,-0.78547 0.63675,-1.42222 1.42222,-1.42222c0.78547,0 1.42222,0.63675 1.42222,1.42222c0,0.78547 -0.63675,1.42222 -1.42222,1.42222c-0.78547,0 -1.42222,-0.63675 -1.42222,-1.42222z" fill="none" stroke="#000000" stroke-width="1"/></g><g><g stroke="#000000" stroke-linecap="butt"><path d="M209.96022,179.74652c0,0 -0.54246,0.01331 -0.81654,-0.04233c-0.29546,-0.05999 -0.89691,-0.30554 -0.89691,-0.30554l0.56665,-4.32887l2.31315,0.46962z" fill="#ffd240" stroke-width="0"/><path d="M209.96022,179.74652c0,0 -0.54246,0.01331 -0.81654,-0.04233c-0.29546,-0.05999 -0.89691,-0.30554 -0.89691,-0.30554l0.56665,-4.32887c0,0 0.42351,0.08598 0.70679,0.14349c0.03534,0.00718 -0.1346,0.49594 -0.25265,1.12067c-0.19249,1.01867 -0.38912,2.37 -0.38912,2.37c0,0 0.33777,0.09179 0.66548,0.08086c0.36235,-0.01209 0.71658,-0.12144 0.68082,0.00754c-0.1144,0.41263 -0.26453,0.95417 -0.26453,0.95417z" fill="#e69030" stroke-width="0"/><path d="M209.96022,179.74652c0,0 -0.54246,0.01331 -0.81654,-0.04233c-0.29546,-0.05999 -0.89691,-0.30554 -0.89691,-0.30554l0.56665,-4.32886l2.31314,0.46962z" fill="none" stroke-width="1"/></g><g stroke="#000000" stroke-linecap="butt"><path d="M207.93972,175.43551l0.31439,-1.54857l3.84876,0.78138l-0.31439,1.54857z" fill="#ffd240" stroke-width="0"/><path d="M209.49478,175.75122l0.31439,-1.54857l1.55506,0.31571l-0.31439,1.54857z" fill="#fff98b" stroke-width="0"/><path d="M207.93972,175.43551l0.31439,-1.54857l3.84875,0.78138l-0.31439,1.54857z" fill="none" stroke-width="1"/></g><g stroke-linecap="butt"><path d="M208.21553,172.69701c-0.10344,-1.30353 0.86942,-2.44412 2.17295,-2.54756c1.30353,-0.10344 2.44412,0.86943 2.54756,2.17296c0.10344,1.30353 -0.86943,2.44411 -2.17297,2.54755c-1.30353,0.10344 -2.44411,-0.86942 -2.54755,-2.17296z" fill="#ffd240" stroke="#000000" stroke-width="0"/><path d="M208.21552,172.69699c-0.037,-0.46629 0.06373,-0.91174 0.26805,-1.29631c0.74065,1.45949 2.30958,2.40387 4.0423,2.26637c0.04089,-0.00324 0.08161,-0.00707 0.12212,-0.01147c-0.37196,0.67119 -1.06265,1.14912 -1.88491,1.21437c-1.30353,0.10344 -2.44412,-0.86943 -2.54756,-2.17296z" fill="#e69030" stroke="#000000" stroke-width="0"/><path d="M210.19749,171.08112c0.29833,-0.34976 0.96807,-0.26834 1.4959,0.18188c0.52783,0.45022 0.71386,1.09872 0.41553,1.44848c-0.29833,0.34976 -0.96806,0.26834 -1.49589,-0.18188c-0.52783,-0.45022 -0.71387,-1.09873 -0.41554,-1.44849z" fill="#fff98b" stroke="none" stroke-width="0.5"/><path d="M208.21552,172.69699c-0.10344,-1.30353 0.86943,-2.44411 2.17296,-2.54755c1.30353,-0.10344 2.44411,0.86943 2.54755,2.17296c0.10344,1.30353 -0.86943,2.44411 -2.17296,2.54755c-1.30353,0.10344 -2.44412,-0.86943 -2.54756,-2.17296z" fill="none" stroke="#000000" stroke-width="1"/></g><path d="M210.27418,170.40529l-1.10997,3.48053" fill="none" stroke="#000000" stroke-width="0.5" stroke-linecap="round"/><path d="M210.82823,174.62924l0.86946,-3.75327" fill="none" stroke="#000000" stroke-width="0.5" stroke-linecap="round"/><path d="M208.86561,171.50196l3.46213,0.41834" fill="none" stroke="#000000" stroke-width="0.5" stroke-linecap="round"/><path d="M212.06706,173.69195l-3.48514,-0.70834" fill="none" stroke="#000000" stroke-width="0.5" stroke-linecap="round"/></g></g><g><g stroke-linecap="butt"><path d="M221.81814,164.45637c0,-0.78547 0.63675,-1.42222 1.42222,-1.42222c0.78547,0 1.42222,0.63675 1.42222,1.42222c0,0.78547 -0.63675,1.42222 -1.42222,1.42222c-0.78547,0 -1.42222,-0.63675 -1.42222,-1.42222z" fill="#cccccc" stroke="#000000" stroke-width="0"/><path d="M221.81814,164.45637c0,-0.28098 0.08149,-0.54292 0.22211,-0.7635c0.37415,0.90914 1.26875,1.54918 2.31284,1.54918c0.02464,0 0.0492,-0.00035 0.07367,-0.00106c-0.25463,0.38423 -0.69092,0.6376 -1.18639,0.6376c-0.78547,0 -1.42223,-0.63675 -1.42223,-1.42222z" fill="#999999" stroke="#000000" stroke-width="0"/><path d="M223.08172,163.58295c0.19526,-0.19526 0.59243,-0.11468 0.8871,0.17999c0.29467,0.29467 0.37525,0.69184 0.17999,0.8871c-0.19526,0.19526 -0.59242,0.11468 -0.88709,-0.17999c-0.29467,-0.29467 -0.37526,-0.69184 -0.18,-0.8871z" fill="#f2f2f2" stroke="none" stroke-width="0.5"/><path d="M221.81814,164.45637c0,-0.78547 0.63676,-1.42222 1.42223,-1.42222c0.78547,0 1.42222,0.63675 1.42222,1.42222c0,0.78547 -0.63675,1.42222 -1.42222,1.42222c-0.78547,0 -1.42223,-0.63675 -1.42223,-1.42222z" fill="none" stroke="#000000" stroke-width="1"/></g><g stroke-linecap="butt"><path d="M222.54542,167.07454c0,-0.78547 0.63675,-1.42222 1.42222,-1.42222c0.78547,0 1.42222,0.63675 1.42222,1.42222c0,0.78547 -0.63675,1.42222 -1.42222,1.42222c-0.78547,0 -1.42222,-0.63675 -1.42222,-1.42222z" fill="#cccccc" stroke="#000000" stroke-width="0"/><path d="M222.54541,167.07454c0,-0.28098 0.08148,-0.54292 0.2221,-0.7635c0.37415,0.90914 1.26875,1.54918 2.31284,1.54918c0.02464,0 0.0492,-0.00035 0.07367,-0.00106c-0.25463,0.38423 -0.69092,0.6376 -1.18639,0.6376c-0.78547,0 -1.42222,-0.63675 -1.42222,-1.42222z" fill="#999999" stroke="#000000" stroke-width="0"/><path d="M223.809,166.20113c0.19526,-0.19526 0.59243,-0.11468 0.8871,0.17999c0.29467,0.29467 0.37525,0.69184 0.17999,0.8871c-0.19526,0.19526 -0.59242,0.11468 -0.88709,-0.17999c-0.29467,-0.29467 -0.37525,-0.69184 -0.17999,-0.8871z" fill="#f2f2f2" stroke="none" stroke-width="0.5"/><path d="M222.54541,167.07454c0,-0.78547 0.63675,-1.42222 1.42222,-1.42222c0.78547,0 1.42222,0.63675 1.42222,1.42222c0,0.78547 -0.63675,1.42222 -1.42222,1.42222c-0.78547,0 -1.42222,-0.63675 -1.42222,-1.42222z" fill="none" stroke="#000000" stroke-width="1"/></g><g stroke-linecap="butt"><path d="M223.99996,169.18364c0,-0.78547 0.63675,-1.42222 1.42222,-1.42222c0.78547,0 1.42222,0.63675 1.42222,1.42222c0,0.78547 -0.63675,1.42222 -1.42222,1.42222c-0.78547,0 -1.42222,-0.63675 -1.42222,-1.42222z" fill="#cccccc" stroke="#000000" stroke-width="0"/><path d="M223.99996,169.18364c0,-0.28098 0.08148,-0.54292 0.2221,-0.7635c0.37415,0.90914 1.26875,1.54918 2.31284,1.54918c0.02464,0 0.0492,-0.00036 0.07367,-0.00107c-0.25463,0.38423 -0.69092,0.6376 -1.18639,0.6376c-0.78547,0 -1.42222,-0.63675 -1.42222,-1.42222z" fill="#999999" stroke="#000000" stroke-width="0"/><path d="M225.26354,168.31021c0.19526,-0.19526 0.59243,-0.11468 0.8871,0.17999c0.29467,0.29467 0.37525,0.69184 0.17999,0.8871c-0.19526,0.19526 -0.59242,0.11468 -0.88709,-0.17999c-0.29467,-0.29467 -0.37525,-0.69184 -0.17999,-0.8871z" fill="#f2f2f2" stroke="none" stroke-width="0.5"/><path d="M223.99996,169.18364c0,-0.78547 0.63675,-1.42222 1.42222,-1.42222c0.78547,0 1.42222,0.63675 1.42222,1.42222c0,0.78547 -0.63675,1.42222 -1.42222,1.42222c-0.78547,0 -1.42222,-0.63675 -1.42222,-1.42222z" fill="none" stroke="#000000" stroke-width="1"/></g><g stroke-linecap="butt"><path d="M226.32724,170.02c0,-0.78547 0.63675,-1.42222 1.42222,-1.42222c0.78547,0 1.42223,0.63675 1.42223,1.42222c0,0.78547 -0.63676,1.42222 -1.42223,1.42222c-0.78547,0 -1.42222,-0.63675 -1.42222,-1.42222z" fill="#cccccc" stroke="#000000" stroke-width="0"/><path d="M226.32723,170.02c0,-0.28098 0.08148,-0.54292 0.2221,-0.7635c0.37415,0.90914 1.26875,1.54918 2.31284,1.54918c0.02464,0 0.0492,-0.00036 0.07367,-0.00107c-0.25463,0.38423 -0.69092,0.6376 -1.18639,0.6376c-0.78547,0 -1.42222,-0.63675 -1.42222,-1.42222z" fill="#999999" stroke="#000000" stroke-width="0"/><path d="M227.59082,169.14659c0.19526,-0.19526 0.59243,-0.11468 0.8871,0.17999c0.29467,0.29467 0.37525,0.69184 0.17999,0.8871c-0.19526,0.19526 -0.59242,0.11468 -0.88709,-0.17999c-0.29467,-0.29467 -0.37526,-0.69184 -0.18,-0.8871z" fill="#f2f2f2" stroke="none" stroke-width="0.5"/><path d="M226.32723,170.02c0,-0.78547 0.63675,-1.42222 1.42222,-1.42222c0.78547,0 1.42222,0.63675 1.42222,1.42222c0,0.78547 -0.63675,1.42222 -1.42222,1.42222c-0.78547,0 -1.42222,-0.63675 -1.42222,-1.42222z" fill="none" stroke="#000000" stroke-width="1"/></g><g stroke-linecap="butt"><path d="M228.83633,169.36545c0,-0.78547 0.63675,-1.42222 1.42222,-1.42222c0.78547,0 1.42222,0.63675 1.42222,1.42222c0,0.78547 -0.63675,1.42222 -1.42222,1.42222c-0.78547,0 -1.42222,-0.63675 -1.42222,-1.42222z" fill="#cccccc" stroke="#000000" stroke-width="0"/><path d="M228.83632,169.36545c0,-0.28098 0.08148,-0.54292 0.2221,-0.7635c0.37415,0.90914 1.26875,1.54918 2.31284,1.54918c0.02464,0 0.0492,-0.00035 0.07367,-0.00106c-0.25463,0.38423 -0.69092,0.6376 -1.18639,0.6376c-0.78547,0 -1.42222,-0.63675 -1.42222,-1.42222z" fill="#999999" stroke="#000000" stroke-width="0"/><path d="M230.09991,168.49204c0.19526,-0.19526 0.59243,-0.11468 0.8871,0.17999c0.29467,0.29467 0.37525,0.69184 0.17999,0.8871c-0.19526,0.19526 -0.59242,0.11468 -0.88709,-0.17999c-0.29467,-0.29467 -0.37525,-0.69184 -0.17999,-0.8871z" fill="#f2f2f2" stroke="none" stroke-width="0.5"/><path d="M228.83632,169.36545c0,-0.78547 0.63675,-1.42222 1.42222,-1.42222c0.78547,0 1.42222,0.63675 1.42222,1.42222c0,0.78547 -0.63675,1.42222 -1.42222,1.42222c-0.78547,0 -1.42222,-0.63675 -1.42222,-1.42222z" fill="none" stroke="#000000" stroke-width="1"/></g><g stroke-linecap="butt"><path d="M230.69087,167.3291c0,-0.78547 0.63675,-1.42222 1.42222,-1.42222c0.78547,0 1.42222,0.63675 1.42222,1.42222c0,0.78547 -0.63675,1.42222 -1.42222,1.42222c-0.78547,0 -1.42222,-0.63675 -1.42222,-1.42222z" fill="#cccccc" stroke="#000000" stroke-width="0"/><path d="M230.69087,167.32909c0,-0.28098 0.08148,-0.54292 0.2221,-0.7635c0.37415,0.90914 1.26875,1.54918 2.31284,1.54918c0.02464,0 0.0492,-0.00036 0.07367,-0.00107c-0.25463,0.38423 -0.69092,0.6376 -1.18639,0.6376c-0.78547,0 -1.42222,-0.63675 -1.42222,-1.42222z" fill="#999999" stroke="#000000" stroke-width="0"/><path d="M231.95445,166.45568c0.19526,-0.19526 0.59243,-0.11468 0.8871,0.17999c0.29467,0.29467 0.37525,0.69184 0.17999,0.8871c-0.19526,0.19526 -0.59242,0.11468 -0.88709,-0.17999c-0.29467,-0.29467 -0.37525,-0.69184 -0.17999,-0.8871z" fill="#f2f2f2" stroke="none" stroke-width="0.5"/><path d="M230.69087,167.32909c0,-0.78547 0.63675,-1.42222 1.42222,-1.42222c0.78547,0 1.42222,0.63675 1.42222,1.42222c0,0.78547 -0.63675,1.42222 -1.42222,1.42222c-0.78547,0 -1.42222,-0.63675 -1.42222,-1.42222z" fill="none" stroke="#000000" stroke-width="1"/></g><g stroke-linecap="butt"><path d="M231.99996,164.89273c0,-0.78547 0.63675,-1.42222 1.42222,-1.42222c0.78547,0 1.42222,0.63675 1.42222,1.42222c0,0.78547 -0.63675,1.42222 -1.42222,1.42222c-0.78547,0 -1.42222,-0.63675 -1.42222,-1.42222z" fill="#cccccc" stroke="#000000" stroke-width="0"/><path d="M231.99996,164.89273c0,-0.28098 0.08148,-0.54292 0.2221,-0.76349c0.37415,0.90914 1.26875,1.54918 2.31284,1.54918c0.02464,0 0.0492,-0.00036 0.07367,-0.00107c-0.25463,0.38423 -0.69092,0.6376 -1.18639,0.6376c-0.78547,0 -1.42222,-0.63676 -1.42222,-1.42223z" fill="#999999" stroke="#000000" stroke-width="0"/><path d="M233.26354,164.0193c0.19526,-0.19526 0.59243,-0.11468 0.8871,0.17999c0.29467,0.29467 0.37525,0.69184 0.17999,0.8871c-0.19526,0.19526 -0.59242,0.11468 -0.88709,-0.17999c-0.29467,-0.29467 -0.37525,-0.69184 -0.17999,-0.8871z" fill="#f2f2f2" stroke="none" stroke-width="0.5"/><path d="M231.99996,164.89273c0,-0.78547 0.63675,-1.42222 1.42222,-1.42222c0.78547,0 1.42222,0.63675 1.42222,1.42222c0,0.78547 -0.63675,1.42223 -1.42222,1.42223c-0.78547,0 -1.42222,-0.63676 -1.42222,-1.42223z" fill="none" stroke="#000000" stroke-width="1"/></g><g stroke-linecap="butt"><path d="M232.87269,162.31091c0,-0.78547 0.63675,-1.42222 1.42222,-1.42222c0.78547,0 1.42222,0.63675 1.42222,1.42222c0,0.78547 -0.63675,1.42222 -1.42222,1.42222c-0.78547,0 -1.42222,-0.63675 -1.42222,-1.42222z" fill="#cccccc" stroke="#000000" stroke-width="0"/><path d="M232.87268,162.31091c0,-0.28098 0.08148,-0.54292 0.2221,-0.7635c0.37415,0.90914 1.26875,1.54919 2.31284,1.54919c0.02464,0 0.0492,-0.00036 0.07367,-0.00107c-0.25463,0.38423 -0.69092,0.6376 -1.18639,0.6376c-0.78547,0 -1.42222,-0.63675 -1.42222,-1.42222z" fill="#999999" stroke="#000000" stroke-width="0"/><path d="M234.13627,161.43749c0.19526,-0.19526 0.59243,-0.11468 0.8871,0.17999c0.29467,0.29467 0.37525,0.69184 0.17999,0.8871c-0.19526,0.19526 -0.59242,0.11468 -0.88709,-0.17999c-0.29467,-0.29467 -0.37525,-0.69184 -0.17999,-0.8871z" fill="#f2f2f2" stroke="none" stroke-width="0.5"/><path d="M232.87268,162.31091c0,-0.78547 0.63675,-1.42222 1.42222,-1.42222c0.78547,0 1.42222,0.63675 1.42222,1.42222c0,0.78547 -0.63675,1.42222 -1.42222,1.42222c-0.78547,0 -1.42222,-0.63675 -1.42222,-1.42222z" fill="none" stroke="#000000" stroke-width="1"/></g><g><g stroke="#000000" stroke-linecap="butt"><path d="M225.90092,179.62943c0,0 -0.54246,0.01331 -0.81654,-0.04233c-0.29546,-0.05999 -0.89691,-0.30554 -0.89691,-0.30554l0.56665,-4.32887l2.31315,0.46962z" fill="#cccccc" stroke-width="0"/><path d="M225.90092,179.62943c0,0 -0.54246,0.01331 -0.81654,-0.04233c-0.29546,-0.05999 -0.89691,-0.30554 -0.89691,-0.30554l0.56665,-4.32887c0,0 0.42351,0.08598 0.70679,0.14349c0.03534,0.00718 -0.1346,0.49594 -0.25265,1.12067c-0.19249,1.01867 -0.38912,2.37 -0.38912,2.37c0,0 0.33777,0.09179 0.66548,0.08086c0.36235,-0.01209 0.71658,-0.12144 0.68082,0.00754c-0.1144,0.41263 -0.26453,0.95417 -0.26453,0.95417z" fill="#999999" stroke-width="0"/><path d="M225.90092,179.62943c0,0 -0.54246,0.01331 -0.81654,-0.04233c-0.29546,-0.05999 -0.89691,-0.30554 -0.89691,-0.30554l0.56665,-4.32886l2.31314,0.46962z" fill="none" stroke-width="1"/></g><g stroke="#000000" stroke-linecap="butt"><path d="M223.88042,175.31842l0.31439,-1.54857l3.84876,0.78138l-0.31439,1.54857z" fill="#cccccc" stroke-width="0"/><path d="M225.43548,175.63413l0.31439,-1.54857l1.55506,0.31571l-0.31439,1.54857z" fill="#f2f2f2" stroke-width="0"/><path d="M223.88042,175.31842l0.31439,-1.54857l3.84875,0.78138l-0.31439,1.54857z" fill="none" stroke-width="1"/></g><g stroke-linecap="butt"><path d="M224.15623,172.57992c-0.10344,-1.30353 0.86942,-2.44412 2.17295,-2.54756c1.30353,-0.10344 2.44412,0.86943 2.54756,2.17296c0.10344,1.30353 -0.86943,2.44411 -2.17297,2.54755c-1.30353,0.10344 -2.44411,-0.86942 -2.54755,-2.17296z" fill="#cccccc" stroke="#000000" stroke-width="0"/><path d="M224.15622,172.57991c-0.037,-0.46629 0.06373,-0.91174 0.26805,-1.29631c0.74065,1.45949 2.30958,2.40387 4.0423,2.26637c0.04089,-0.00324 0.08161,-0.00707 0.12212,-0.01147c-0.37196,0.67119 -1.06265,1.14912 -1.88491,1.21437c-1.30353,0.10344 -2.44412,-0.86943 -2.54756,-2.17296z" fill="#999999" stroke="#000000" stroke-width="0"/><path d="M226.13819,170.96404c0.29833,-0.34976 0.96807,-0.26834 1.4959,0.18188c0.52783,0.45022 0.71386,1.09872 0.41553,1.44848c-0.29833,0.34976 -0.96806,0.26834 -1.49589,-0.18188c-0.52783,-0.45022 -0.71387,-1.09873 -0.41554,-1.44849z" fill="#f2f2f2" stroke="none" stroke-width="0.5"/><path d="M224.15622,172.57991c-0.10344,-1.30353 0.86943,-2.44411 2.17296,-2.54755c1.30353,-0.10344 2.44411,0.86943 2.54755,2.17296c0.10344,1.30353 -0.86943,2.44411 -2.17296,2.54755c-1.30353,0.10344 -2.44412,-0.86943 -2.54756,-2.17296z" fill="none" stroke="#000000" stroke-width="1"/></g><path d="M225.10491,173.76874l1.10997,-3.48053" fill="none" stroke="#000000" stroke-width="0.5" stroke-linecap="round"/><path d="M227.63839,170.75889l-0.86946,3.75327" fill="none" stroke="#000000" stroke-width="0.5" stroke-linecap="round"/><path d="M224.80631,171.38488l3.46213,0.41834" fill="none" stroke="#000000" stroke-width="0.5" stroke-linecap="round"/><path d="M228.00776,173.57486l-3.48514,-0.70834" fill="none" stroke="#000000" stroke-width="0.5" stroke-linecap="round"/></g></g></g></g></svg>