<svg version="1.1" xmlns="http://www.w3.org/2000/svg" xmlns:xlink="http://www.w3.org/1999/xlink" width="199.11324" height="221.55319" viewBox="0,0,199.11324,221.55319"><g transform="translate(-195.52004,-69.22341)"><g data-paper-data="{&quot;isPaintingLayer&quot;:true}" fill-rule="nonzero" stroke-linejoin="miter" stroke-miterlimit="10" stroke-dasharray="" stroke-dashoffset="0" style="mix-blend-mode: normal"><path d="M205.36674,290.77659v-221.55318h189.26654v221.55319z" fill="none" stroke="none" stroke-width="NaN" stroke-linecap="butt"/><g data-paper-data="{&quot;index&quot;:null}" fill="#000000"><path d="M315.97885,155.09303c-0.92745,-3.07913 12.92452,0.15263 15.21034,-0.13228c2.48435,-0.30969 -7.55732,18.05117 -7.55732,18.05117l-1.74606,3.08838l11.17834,-20.64171c0,0 3.50113,-7.3236 5.36271,-6.02806c0,0 11.01995,1.62259 24.20351,15.13156c-1.59884,4.88634 -9.18496,14.16535 -9.18496,14.16535c0,0 -15.89007,21.38354 -20.59533,21.06254c-1.08958,-0.07435 -13.5885,-3.94561 -15.57699,-7.59649c-6.5987,-12.11526 -1.29426,-37.10046 -1.29426,-37.10046z" stroke="#000000" stroke-width="2.5" stroke-linecap="round"/><path d="M325.04875,171.84887c-0.2678,0.4302 -0.54201,0.85739 -0.8154,1.2865c-0.06034,0.09471 -0.84759,1.09948 -1.00657,1.6808c5.75627,3.80467 12.0389,6.6714 17.61988,10.79725c0.51696,0.33041 1.67752,0.91924 2.71273,1.632c0.35952,0.12393 0.6583,0.1781 0.8145,0.09788c1.32815,-0.68206 2.31009,-2.30767 3.49424,-3.24039c-0.37002,-0.10032 -1.4361,-0.40556 -1.84587,-0.61133c-1.2169,-0.61112 -2.42148,-1.21146 -3.65575,-1.78499c-4.32659,-2.01041 -8.78559,-4.67524 -12.82289,-7.16991c-1.53485,-0.7274 -3.09938,-1.63556 -4.49487,-2.68779zM325.81953,170.55533c1.3668,1.05041 2.93002,1.94776 4.44209,2.66436c4.55313,2.84253 9.50669,5.49337 14.36195,7.85118c2.00054,0.9715 5.39607,1.68555 4.34742,4.04982c-1.24825,1.00778 -2.39521,2.75749 -3.85033,3.51167c0.28044,0.37475 0.43629,0.75869 0.39231,1.13869c-0.0619,0.5349 -1.76235,1.88272 -2.16303,2.32072c-2.39037,2.61309 -4.77554,6.19546 -8.65801,6.33547c-5.92278,1.90105 -14.24201,-1.85878 -18.5119,-5.87476c-1.92048,-3.97119 -1.85478,-7.39618 -1.6318,-11.69773c0.161,-3.10584 -0.25855,-6.05955 0.2692,-9.18473c0.1365,-4.44277 0.40918,-8.86864 0.55154,-13.30971c0.06534,-2.03827 -0.56932,-4.02472 1.48056,-5.02736c3.58562,0.32668 7.21024,0.65858 10.80262,1.06947c1.11982,0.1281 3.38459,0.46345 4.15078,1.40856c1.06477,1.31347 -0.0443,2.82587 -0.76965,3.99527c-1.23264,2.78034 -2.73024,5.76083 -4.42425,8.58155c0.13676,0.30319 -0.00939,0.63108 -0.00939,0.63108c-0.23565,0.52714 -0.49917,1.03688 -0.7801,1.53645zM341.42469,187.80932c-3.73029,-1.62026 -6.77331,-4.24748 -10.40384,-5.95367c-2.15969,-0.96254 -6.14176,-2.36103 -8.15297,-4.52505c-0.14265,-0.06214 -0.23417,-0.14589 -0.23417,-0.14589l-0.56524,-0.52158c-0.6357,-0.40509 -1.13605,-1.0222 -1.53143,-1.664c2.0675,-5.62302 6.68107,-10.33706 9.17095,-15.89551c0.36476,-0.58671 0.93782,-1.38943 1.11262,-2.05333c0.1075,-0.40833 -2.34252,-1.02263 -2.64216,-1.08156c-3.64821,-0.71764 -7.44422,-0.57815 -11.11588,-1.15095c-0.38115,0.02644 -0.17419,2.97484 -0.19452,3.59351c-0.14686,4.47339 -0.40589,8.93256 -0.55811,13.40791c-0.52166,3.1091 -0.11093,6.02782 -0.26408,9.11906c-0.19493,3.93449 -0.332,7.0723 1.34122,10.72376c4.05444,3.56015 11.56992,7.04452 17.04001,5.28878c3.78842,-0.19452 7.25839,-4.78381 9.59723,-7.36435c0.02479,-0.02737 -1.38312,-0.97764 -2.54248,-1.75179c-0.01934,-0.00871 -0.0384,-0.01717 -0.0572,-0.02533z" stroke="none" stroke-width="0.5" stroke-linecap="butt"/><path d="M329.50657,174.50312c4.0373,2.49463 8.58168,5.20585 12.90828,7.21625c1.23427,0.57351 2.43781,1.17725 3.65472,1.78839c0.40975,0.20578 1.47586,0.51094 1.84589,0.61127c-1.18416,0.93276 -2.17506,2.5743 -3.50319,3.25637c-0.1562,0.08019 -0.45634,0.02758 -0.81586,-0.09635c-1.03523,-0.71277 -2.19849,-1.29881 -2.71546,-1.62922c-5.58102,-4.12584 -11.94412,-7.04809 -17.70039,-10.85274c0.159,-0.58131 0.94958,-1.59273 1.00991,-1.68745c0.27339,-0.42912 0.55087,-0.86112 0.81868,-1.2913c1.39548,1.05223 2.96254,1.95739 4.4974,2.68479z" data-paper-data="{&quot;noHover&quot;:false,&quot;origItem&quot;:[&quot;Path&quot;,{&quot;applyMatrix&quot;:true,&quot;segments&quot;:[[[926.17844,407.1979],[3.2606,1.25965],[-0.27949,0.97418]],[[925.31465,410.11917],[0.29084,-0.97519],[-0.06418,0.21521]],[[924.29914,413.90358],[-0.01258,-1.20526],[13.15638,4.16543]],[[964.1057,425.02121],[-12.99513,-4.87922],[1.17537,0.35239]],[[970.21765,426.67451],[-2.3817,-0.804],[0.75941,0.04146]],[[971.83798,426.41666],[-0.25651,0.23985],[2.18115,-2.03947]],[[976.78433,418.26967],[-1.76682,2.44279],[-0.76669,0.00973]],[[972.89889,418.10481],[0.90089,0.17138],[-2.67549,-0.50896]],[[964.88923,416.67374],[2.68829,0.42712],[-9.42353,-1.49721]],[[936.29671,409.90591],[9.13228,2.58714],[-3.35077,-0.55846]]],&quot;closed&quot;:true}]}" stroke="none" stroke-width="0.5" stroke-linecap="butt"/><path d="M339.95988,186.81532c0.1913,0.12235 4.14343,2.75844 4.1024,2.80369c-2.33884,2.58055 -5.83416,7.18561 -9.62253,7.38013c-5.4701,1.75574 -13.02931,-1.73787 -17.08375,-5.29803c-1.67323,-3.65147 -1.55276,-6.81349 -1.35782,-10.748c0.15317,-3.09124 -0.25644,-6.04301 0.26522,-9.15211c0.15222,-4.47535 0.43005,-8.95794 0.57691,-13.43134c0.02031,-0.61866 -0.18297,-3.5693 0.19817,-3.59573c3.67164,0.57279 7.48935,0.42719 11.13758,1.14482c0.29963,0.05896 2.75619,0.67336 2.64868,1.08167c-0.17481,0.66392 -0.75344,1.56646 -1.11821,2.15314c-2.48989,5.55846 -7.05308,10.23291 -9.12057,15.85592c0.39537,0.6418 0.89677,1.24972 1.5325,1.65481l0.56518,0.51772c0,0 0.45345,0.51175 0.95975,-0.04156c0.0507,-0.05541 0.19068,-0.11439 0.22174,-0.16837c5.35675,3.35734 10.97261,6.06295 16.09473,9.84324z" data-paper-data="{&quot;noHover&quot;:false,&quot;origItem&quot;:[&quot;Path&quot;,{&quot;applyMatrix&quot;:true,&quot;segments&quot;:[[[926.61254,417.73069],[12.14285,3.5238],[-0.03018,0.12086]],[[926.46822,418.11346],[0.06716,-0.13431],[-0.67082,1.34164]],[924.45576,418.78428],[[923.08279,418.0906],[0,0],[-1.44471,-0.43097]],[[919.22563,415.72869],[1.11205,1.01797],[0.89694,-11.9485]],[[928.15956,380.1298],[-1.74473,12.05571],[0.38029,-1.32836]],[[929.175,375.57071],[0.02742,1.37277],[-0.01686,-0.84429]],[[923.5003,374.93752],[0.60865,-0.05075],[-7.41054,0.61792]],[[901.48814,378.8123],[7.37628,-0.90935],[-0.71866,0.25961]],[[903.08234,385.83106],[-0.2998,-1.20115],[2.16779,8.68513]],[[909.35292,411.92731],[-2.15853,-8.69186],[0.69956,6.26621]],[[913.83986,429.61277],[-1.39861,-6.02998],[1.78014,7.67491]],[[922.29365,449.50563],[-5.21858,-6.1072],[9.74892,4.62723]],[[957.96755,450.34516],[-9.56021,6.37347],[7.18055,-2.44927]],[[972.39433,430.92276],[-3.08539,6.24485],[0.05411,-0.10951]],[[963.14745,427.86406],[0.43501,0.13058],[-11.92317,-4.46591]]],&quot;closed&quot;:true}]}" stroke="none" stroke-width="0.5" stroke-linecap="butt"/></g><g data-paper-data="{&quot;origRot&quot;:0}" fill="#000000" stroke="#000000" stroke-linecap="round"><path d="M302.36732,216.39292c0,0 -0.72281,-4.87204 0.7394,-5.07502c4.31477,-0.59892 8.26887,-2.90346 12.50315,-1.82885c1.7583,0.44623 2.98623,4.65112 2.98623,4.65112l8.4897,32.7764c0,0 0.91764,3.37211 1.38139,5.32957c0.49583,2.09288 -0.07412,5.43848 -2.04767,5.83521c-7.24625,1.45676 -11.51081,3.80041 -16.23974,3.46691c-1.72282,-0.12151 -3.54379,-0.37212 -4.44317,-1.95751c-1.17486,-2.07092 -1.12842,-6.67653 -1.12842,-6.67653z" data-paper-data="{&quot;origPos&quot;:null}" stroke-width="3"/><path d="M328.97351,255.64828c0,0 -5.22029,3.60195 -10.02254,4.40481c-3.68445,0.61596 -11.81496,0.91033 -11.81496,0.91033c0,0 -1.6596,-2.43447 -1.97843,-4.04543c-0.33587,-1.69705 0.30082,-4.43092 0.30082,-4.43092l21.88825,-4.48862z" data-paper-data="{&quot;origPos&quot;:null}" stroke-width="2"/><path d="M302.49124,216.70589c0,0 -0.72281,-4.87204 0.73941,-5.07501c4.31476,-0.59892 8.26887,-2.90346 12.50317,-1.82883c1.7583,0.44623 2.98622,4.65111 2.98622,4.65111l8.4897,32.7764c0,0 0.91766,3.37211 1.38141,5.32957c0.49583,2.09288 -0.07413,5.43847 -2.04767,5.83521c-7.24625,1.45676 -11.51081,3.80042 -16.23974,3.46692c-1.72282,-0.12151 -3.54379,-0.37214 -4.44316,-1.95751c-1.17486,-2.07092 -1.12843,-6.67653 -1.12843,-6.67653z" data-paper-data="{&quot;origPos&quot;:null}" stroke-width="3"/></g><g data-paper-data="{&quot;index&quot;:null,&quot;origRot&quot;:0}" fill="#000000" stroke="#000000" stroke-linecap="round"><path d="M299.71351,252.553c0,0 0.23905,4.5987 -0.84797,6.7244c-0.83215,1.62733 -2.64079,1.96583 -4.35678,2.17063c-4.71017,0.56212 -9.06846,-1.57274 -16.36832,-2.6772c-1.98815,-0.30081 -2.6975,-3.61541 -2.28973,-5.73017c0.38139,-1.97793 1.15703,-5.39104 1.15703,-5.39104l7.10988,-33.1542c0,0 1.05077,-4.26007 2.7886,-4.79096c4.18504,-1.27851 8.23154,0.83222 12.56699,1.22167c1.46922,0.13198 0.95098,5.03407 0.95098,5.03407z" data-paper-data="{&quot;origPos&quot;:null}" stroke-width="3"/><path d="M276.79252,248.7431l22.05383,3.42438c0,0 0.75042,2.70028 0.48589,4.41186c-0.2511,1.62477 -1.80718,4.13712 -1.80718,4.13712c0,0 -8.13458,0.09955 -11.84106,-0.33741c-4.83096,-0.56954 -10.19665,-3.9151 -10.19665,-3.9151z" data-paper-data="{&quot;origPos&quot;:null}" stroke-width="2.5"/><path d="M299.60286,252.87168c0,0 0.23905,4.5987 -0.84797,6.7244c-0.83215,1.62733 -2.64079,1.96584 -4.35678,2.17063c-4.71017,0.56212 -9.06845,-1.57272 -16.36832,-2.67719c-1.98815,-0.30081 -2.6975,-3.61542 -2.28973,-5.73017c0.38139,-1.97793 1.15703,-5.39104 1.15703,-5.39104l7.10988,-33.1542c0,0 1.05076,-4.26007 2.7886,-4.79096c4.18504,-1.27851 8.23156,0.83222 12.567,1.22167c1.46922,0.13198 0.95097,5.03407 0.95097,5.03407c0,0 -0.1797,9.25278 -0.29471,15.17505c-0.16234,8.35856 -0.41598,21.41776 -0.41598,21.41776z" data-paper-data="{&quot;origPos&quot;:null}" stroke-width="1.5"/></g><g fill="#000000"><g><path d="M283.32528,166.97424c0,0 1.85443,-14.80858 3.9156,-15.3716c6.18348,-1.6891 20.31975,-0.73273 29.76805,-0.73273c1.46061,0 2.72191,13.90831 2.72191,13.90831l1.70118,31.47669c0,0 0.23243,15.37233 -1.36095,15.37233c-14.18399,0 -30.80857,0.87624 -37.13069,0.01201c-2.10736,-0.28807 -1.3163,-16.48237 -1.3163,-16.48237z" data-paper-data="{&quot;origPos&quot;:null}" stroke="#000000" stroke-width="3.5" stroke-linecap="round"/><path d="M301.32863,175.40016c-1.23399,0 -1.23399,-2.55641 -1.23399,-2.55641c0,-5.30218 0,-12.30863 0,-17.61081c0,0 0,-2.55641 1.23399,-2.55641c1.23399,0 1.23399,2.55641 1.23399,2.55641c0,5.30218 0,10.60436 0,15.90654v1.70427c0,0 0,2.55641 -1.23399,2.55641z" stroke="none" stroke-width="0.5" stroke-linecap="butt"/><path d="M312.79278,181.90894c-1.23399,0 -1.23399,-3.21157 -1.23399,-3.21157c0,-6.66103 0,-15.46311 0,-22.12414c0,0 0,-3.21157 1.23399,-3.21157c1.23399,0 1.23399,3.21157 1.23399,3.21157c0,6.66103 0,13.32207 0,19.98311v2.14104c0,0 0,3.21157 -1.23399,3.21157z" stroke="none" stroke-width="0.5" stroke-linecap="butt"/></g><g stroke="#000000" stroke-width="0.5" stroke-linecap="butt"><path d="M315.44745,192.15979c0,6.94494 -4.40891,12.57493 -9.84758,12.57493c-5.43867,0 -9.84758,-5.62999 -9.84758,-12.57493c0,-6.94494 4.40891,-12.57493 9.84758,-12.57493c5.43867,0 9.84758,5.62999 9.84758,12.57493z"/><path d="M308.52369,180.55932c0.0004,0.01152 0.00061,0.02327 0.00061,0.03524c0,0.64203 -0.59682,0.64203 -0.59682,0.64203h-0.11936c-0.43607,0 -2.42393,0.02867 -2.72189,-0.11039c-0.24872,-0.11609 -0.19462,-0.55813 -0.37359,-0.77723c-0.17193,-0.21048 -0.41656,-0.34063 -0.64672,-0.47183c-0.366,-0.20863 -0.86587,-0.20529 -1.13513,-0.54388c-0.24873,-0.31278 -0.2783,-0.79318 -0.25488,-1.20403c0.11002,-1.92949 1.21065,-1.94923 2.63239,-1.77526c0.42882,0.10161 0.87131,0.15093 1.28646,0.30482c0.18263,0.06769 0.29163,0.30224 0.47966,0.34984c0.13365,0.03384 0.2594,-0.10051 0.39419,-0.12861c0.00575,-0.0012 1.67096,-0.25705 1.68747,-0.25958c1.12578,-0.17193 2.32973,-0.22211 3.46586,-0.13347c0.72395,0.05648 2.35972,0.2494 2.77725,1.02976c0.59461,1.11133 -1.13361,1.86331 -1.56618,2.05353c-1.28012,0.56295 -2.37277,0.21302 -3.67652,0.3764c-0.4441,0.05565 -1.15786,0.39067 -1.63281,0.61264z"/></g></g><path d="M317.94961,156.05249c-11.97373,1.65125 -23.5899,3.21674 -28.46916,2.82716c-4.45932,-0.35604 -6.11752,-2.9275 -6.11752,-2.9275c0,0 -2.05061,-2.19226 -2.32991,-3.70164c-0.83789,-4.52815 -2.62217,-17.55691 -3.11922,-28.92299c-0.0166,-0.37935 -0.01217,-0.59314 -0.00615,-0.97278c0.01809,-1.13896 0.27683,-5.58393 0.27683,-5.58393c0,0 2.95441,-2.04938 4.61341,-2.73802c4.97698,-2.06594 18.27235,-2.25726 32.12792,-3.6014c1.25584,-0.12182 3.61269,1.273 3.61269,1.273c0,0 1.92482,2.9179 2.12711,4.8911c1.30796,12.75696 2.70816,26.87645 2.81786,30.13127c0.03658,1.08495 -1.2575,5.47303 -1.2575,5.47303z" fill="#000000" stroke="#000000" stroke-width="2.5" stroke-linecap="round"/><path d="M316.1265,135.66205c-0.35135,-3.42698 -0.22463,-6.24732 0.28307,-6.29937c0.5077,-0.05207 1.20412,2.68388 1.55549,6.11086c0.35135,3.42698 0.22464,6.24733 -0.28307,6.29938c-0.5077,0.05207 -1.20412,-2.68388 -1.55549,-6.11087z" fill="#000000" stroke="#000000" stroke-width="2.5" stroke-linecap="butt"/><path d="M309.72765,137.01928c-0.35788,-3.49047 -0.33929,-6.35169 0.04147,-6.39074c0.38077,-0.03904 0.97957,2.75889 1.33745,6.24935c0.35788,3.49047 0.33932,6.35167 -0.04147,6.39073c-0.38077,0.03904 -0.97958,-2.75887 -1.33746,-6.24933z" fill="#000000" stroke="#000000" stroke-width="2.5" stroke-linecap="butt"/><path d="M276.90848,116.47334l-1.28793,-12.93604l43.58452,-4.3393l1.28793,12.93604z" fill="#000000" stroke="none" stroke-width="0" stroke-linecap="butt"/><path d="M303.2199,127.2651c-0.13678,-1.37393 0.86611,-2.59858 2.24004,-2.73538c0.2821,-0.0281 0.55791,-0.00812 0.81931,0.05323c1.39437,-0.41457 9.62884,3.76581 7.79475,6.6265c-1.36859,2.13462 -7.02359,-0.45154 -8.98824,-1.51654c-0.54111,-0.29332 -2.34129,-1.72968 -1.86583,-2.4278z" data-paper-data="{&quot;index&quot;:null}" fill="#000000" stroke="none" stroke-width="0.5" stroke-linecap="butt"/><path d="M319.36009,128.67372c-1.20855,1.38093 -4.76869,4.88456 -6.09952,3.0187c-1.78349,-2.50051 3.33011,-8.00984 4.38679,-7.8393c0.17444,-0.10475 0.36613,-0.17127 0.57045,-0.19159c0.99501,-0.09906 1.91253,0.93442 2.04932,2.30833c0.45495,0.60549 -0.57415,2.32353 -0.90701,2.70387z" data-paper-data="{&quot;index&quot;:null}" fill="#000000" stroke="none" stroke-width="0.5" stroke-linecap="butt"/><g fill="#000000" stroke="#000000" stroke-width="1.25" stroke-linecap="butt"><path d="M310.41012,153.05607l-12.54647,2.25716c0,0 -3.66052,-8.10578 4.75501,-9.69397c8.90981,-1.68146 7.79147,7.4368 7.79147,7.4368z"/><path d="M297.26395,149.88682c0.46591,-1.8473 1.88233,-3.61225 5.35471,-4.26757c2.30798,-0.43556 3.94305,-0.14646 5.09897,0.52111c0.0055,0.00318 0.24847,1.68204 0.24847,1.68204c0,0 -10.70368,2.07041 -10.70217,2.06443z"/><path d="M304.20723,154.172c-2.10268,0.37828 -6.34359,1.14123 -6.34359,1.14123c0,0 -0.36839,-1.01547 -0.60128,-2.04466c-0.0202,-0.08927 1.93813,-0.49398 3.56406,-0.35061c1.91519,0.16889 3.58663,1.217 3.38078,1.25403z"/></g><g data-paper-data="{&quot;index&quot;:null}" fill="#000000"><path d="M216.09129,249.25031c-0.20496,-2.25285 -4.06064,-5.72516 -2.00582,-5.85124c1.36892,-0.08399 20.78486,3.36685 22.01641,4.72571c0.61705,0.68084 1.07925,1.81579 1.14769,2.5678c0.10056,1.10531 -0.38962,2.05404 -1.24025,2.75375c-0.88315,0.72645 -19.9671,2.27726 -21.01376,2.34149c-2.05481,0.12608 1.30073,-4.28466 1.09574,-6.53752z" stroke="#000000" stroke-width="1.5" stroke-linecap="butt"/><g stroke-linecap="butt"><path d="M209.32278,249.69123c-0.37137,-4.08164 1.47327,-7.5221 4.12011,-7.68449c2.64685,-0.16239 5.09358,3.01478 5.46495,7.09643c0.37133,4.08164 -1.47331,7.5221 -4.12014,7.68449c-2.64683,0.16242 -5.09357,-3.01477 -5.46493,-7.09641z" stroke="#000000" stroke-width="1.5"/><path d="M214.98044,245.6816l-1.76101,-3.23445c0,0 1.74495,0.55298 2.34388,1.04651c1.24099,1.05291 1.73129,2.56411 1.73129,2.56411z" stroke="none" stroke-width="0"/><path d="M216.02469,248.88888l-0.41294,-1.46811c0,0 0.91946,-0.16024 1.24795,-0.15881c0.38463,0.00168 1.08407,0.21294 1.08407,0.21294l0.20968,1.78122z" stroke="none" stroke-width="0"/></g><g><path d="M215.22539,249.43717c0.51229,5.63067 -2.45858,8.95223 -7.98857,9.29152c-5.52998,0.33927 -10.45446,-4.23881 -10.96678,-9.86954c-0.51232,-5.63069 3.04106,-9.85846 8.57105,-10.19775c5.52996,-0.33926 9.87198,5.14501 10.3843,10.77574z" stroke="#000000" stroke-width="1.5" stroke-linecap="butt"/><path d="M203.23015,239.15815c2.74366,-0.16836 5.71112,1.01724 7.94696,2.58665c1.59293,1.11813 2.81739,2.90241 2.99847,4.89274c0.37219,4.0911 -1.28465,5.65574 -6.12296,5.95259c-2.4162,0.14823 -5.51488,-1.11011 -7.65869,-2.74116c-2.14902,-1.63502 -3.58148,-2.92615 -3.58148,-2.92615c0,0 1.57938,-7.46781 6.41769,-7.76466z" stroke="none" stroke-width="0" stroke-linecap="butt"/><path d="M204.90342,238.9684c0,0 4.04701,2.54665 4.86756,9.04547c0.82728,6.55207 -2.27429,9.7456 -2.27429,9.7456" stroke="#000000" stroke-width="0.8" stroke-linecap="round"/><path d="M209.40381,239.87317c0,0 2.46598,3.68779 3.4531,7.77697c1.42258,5.89302 -0.27515,8.33531 -0.27515,8.33531" stroke="#000000" stroke-width="0.75" stroke-linecap="round"/><path d="M200.70109,240.12592c0,0 3.49488,2.75874 4.67566,9.2287c1.13572,6.22294 -0.60165,8.23441 -0.60165,8.23441" stroke="#000000" stroke-width="0.8" stroke-linecap="round"/><path d="M203.50687,257.61063c0,0 -2.51441,-3.73755 -3.61762,-6.84506c-1.45312,-4.09309 -1.8008,-8.39875 -1.8008,-8.39875" stroke="#000000" stroke-width="0.8" stroke-linecap="round"/><path d="M214.67153,251.63985c0,0 -2.86257,2.46501 -8.668,3.06222c-5.41748,0.5573 -8.08244,-2.03456 -8.08244,-2.03456" stroke="#000000" stroke-width="0.8" stroke-linecap="round"/><path d="M197.45823,250.6153c0,0 2.77879,0.01709 5.76598,-0.43942c2.62696,-0.40147 5.39341,-1.26975 6.87253,-1.44666c1.75679,-0.21011 4.73434,-0.19192 4.73434,-0.19192" stroke="#000000" stroke-width="0.8" stroke-linecap="round"/><path d="M196.72995,248.07334c0,0 4.02104,-3.17879 7.80682,-3.52048c5.9419,-0.5363 9.95043,1.41887 9.95043,1.41887" stroke="#000000" stroke-width="0.8" stroke-linecap="round"/><path d="M196.87422,244.80305c0,0 2.82486,-2.45953 6.52529,-3.32437c5.32876,-1.24541 8.35879,-0.00677 8.35879,-0.00677" stroke="#000000" stroke-width="0.8" stroke-linecap="round"/><path d="M203.82235,240.44052c0.03654,0.40148 -0.30269,0.74962 -0.75765,0.77751c-0.45497,0.02793 -0.85341,-0.27493 -0.88993,-0.67641c-0.03652,-0.4015 0.30268,-0.74962 0.75764,-0.77751c0.45497,-0.02795 0.85343,0.27491 0.88995,0.67639z" stroke="none" stroke-width="0" stroke-linecap="butt"/><path d="M200.44693,241.8847c-0.22747,0.01395 -0.42897,-0.16251 -0.45004,-0.39413c-0.02107,-0.23162 0.14626,-0.43071 0.37374,-0.44466c0.22748,-0.01394 0.42897,0.16251 0.45004,0.39413c0.02108,0.23162 -0.14626,0.43071 -0.37374,0.44466z" stroke="none" stroke-width="0" stroke-linecap="butt"/></g></g><g data-paper-data="{&quot;index&quot;:null}" fill="#000000"><path d="M294.61416,156.25968c0,0 5.30444,24.98519 -1.29425,37.10046c-1.98849,3.65087 -14.48742,7.52214 -15.57699,7.59649c-4.70526,0.321 -20.59533,-21.06254 -20.59533,-21.06254c0,0 -7.58612,-9.27901 -9.18497,-14.16534c13.18357,-13.50897 24.20351,-15.13156 24.20351,-15.13156c1.86158,-1.29555 5.36271,6.02806 5.36271,6.02806l11.17834,20.64171l-1.74606,-3.08838c0,0 -10.04167,-18.36086 -7.55732,-18.05117c2.28583,0.28492 16.1378,-2.94684 15.21035,0.13228z" stroke="#000000" stroke-width="2.5" stroke-linecap="round"/><path d="M285.54425,173.01556c-1.39548,1.05224 -2.96002,1.96039 -4.49487,2.6878c-4.03729,2.49467 -8.4963,5.1595 -12.82289,7.16991c-1.23427,0.57352 -2.43884,1.17387 -3.65574,1.78498c-0.40977,0.20577 -1.47586,0.51102 -1.84587,0.61134c1.18415,0.93273 2.16609,2.55833 3.49424,3.24039c0.1562,0.08022 0.45498,0.02605 0.8145,-0.09788c1.03521,-0.71276 2.19577,-1.30159 2.71273,-1.632c5.58098,-4.12585 11.86361,-6.99258 17.61988,-10.79725c-0.15899,-0.58132 -0.94623,-1.5861 -1.00658,-1.6808c-0.2734,-0.4291 -0.5476,-0.85629 -0.8154,-1.28649zM284.77347,171.72198c-0.28093,-0.49957 -0.54445,-1.00931 -0.7801,-1.53645c0,0 -0.14615,-0.32788 -0.00939,-0.63107c-1.69401,-2.82073 -3.19161,-5.80121 -4.42425,-8.58155c-0.72535,-1.1694 -1.83441,-2.6818 -0.76965,-3.99527c0.76619,-0.94511 3.03095,-1.28047 4.15078,-1.40856c3.59238,-0.41089 7.217,-0.74278 10.80262,-1.06946c2.04988,1.00264 1.41521,2.98908 1.48056,5.02736c0.14236,4.44107 0.41504,8.86694 0.55154,13.30971c0.52775,3.12517 0.10821,6.07889 0.2692,9.18473c0.22298,4.30155 0.28867,7.72654 -1.6318,11.69773c-4.2699,4.01597 -12.58912,7.77581 -18.5119,5.87476c-3.88246,-0.14001 -6.26763,-3.72238 -8.658,-6.33547c-0.40068,-0.438 -2.10113,-1.78582 -2.16303,-2.32072c-0.04397,-0.38 0.11188,-0.76394 0.39231,-1.13869c-1.45513,-0.75418 -2.60208,-2.50388 -3.85034,-3.51166c-1.04864,-2.36426 2.34689,-3.07832 4.34742,-4.04982c4.85526,-2.35781 9.80881,-5.00865 14.36195,-7.85117c1.51207,-0.7166 3.07528,-1.61395 4.44208,-2.66436zM269.16837,188.976c-0.01879,0.00816 -0.03786,0.01662 -0.0572,0.02533c-1.15935,0.77415 -2.56726,1.72442 -2.54247,1.75178c2.33884,2.58055 5.80881,7.16983 9.59723,7.36436c5.47009,1.75574 12.98556,-1.72863 17.04001,-5.28878c1.67322,-3.65146 1.53615,-6.78927 1.34122,-10.72376c-0.15315,-3.09124 0.25757,-6.00996 -0.26409,-9.11906c-0.15222,-4.47536 -0.41125,-8.93452 -0.55811,-13.40791c-0.02033,-0.61867 0.18663,-3.56708 -0.19452,-3.59352c-3.67166,0.57279 -7.46767,0.43331 -11.11588,1.15095c-0.29963,0.05894 -2.74966,0.67323 -2.64216,1.08156c0.17481,0.66389 0.74786,1.46661 1.11262,2.05333c2.48988,5.55846 7.10345,10.2725 9.17094,15.89551c-0.39538,0.64181 -0.89572,1.25891 -1.53142,1.664l-0.56524,0.52159c0,0 -0.09152,0.08375 -0.23417,0.14589c-2.0112,2.16402 -5.99328,3.56251 -8.15297,4.52505c-3.63053,1.70619 -6.67355,4.3334 -10.40384,5.95366z" stroke="none" stroke-width="0.5" stroke-linecap="butt"/><path d="M281.08645,175.66978c1.53486,-0.7274 3.10192,-1.63255 4.4974,-2.68479c0.2678,0.43018 0.54529,0.86219 0.81868,1.2913c0.06033,0.09471 0.85091,1.10613 1.00992,1.68745c-5.75627,3.80465 -12.11937,6.7269 -17.70039,10.85274c-0.51697,0.33041 -1.68024,0.91645 -2.71546,1.62922c-0.35952,0.12393 -0.65966,0.17654 -0.81586,0.09635c-1.32813,-0.68207 -2.31903,-2.32362 -3.50319,-3.25638c0.37003,-0.10032 1.43614,-0.40548 1.84589,-0.61126c1.21691,-0.61113 2.42045,-1.21487 3.65472,-1.78839c4.3266,-2.0104 8.87098,-4.72161 12.90828,-7.21625z" data-paper-data="{&quot;noHover&quot;:false,&quot;origItem&quot;:[&quot;Path&quot;,{&quot;applyMatrix&quot;:true,&quot;segments&quot;:[[[926.17844,407.1979],[3.2606,1.25965],[-0.27949,0.97418]],[[925.31465,410.11917],[0.29084,-0.97519],[-0.06418,0.21521]],[[924.29914,413.90358],[-0.01258,-1.20526],[13.15638,4.16543]],[[964.1057,425.02121],[-12.99513,-4.87922],[1.17537,0.35239]],[[970.21765,426.67451],[-2.3817,-0.804],[0.75941,0.04146]],[[971.83798,426.41666],[-0.25651,0.23985],[2.18115,-2.03947]],[[976.78433,418.26967],[-1.76682,2.44279],[-0.76669,0.00973]],[[972.89889,418.10481],[0.90089,0.17138],[-2.67549,-0.50896]],[[964.88923,416.67374],[2.68829,0.42712],[-9.42353,-1.49721]],[[936.29671,409.90591],[9.13228,2.58714],[-3.35077,-0.55846]]],&quot;closed&quot;:true}]}" stroke="none" stroke-width="0.5" stroke-linecap="butt"/><path d="M286.72786,178.13874c0.03106,0.05398 0.17104,0.11296 0.22174,0.16837c0.5063,0.5533 0.95975,0.04156 0.95975,0.04156l0.56519,-0.51771c0.63573,-0.40509 1.13713,-1.01301 1.5325,-1.65481c-2.0675,-5.62301 -6.63069,-10.29746 -9.12057,-15.85592c-0.36477,-0.58668 -0.9434,-1.48922 -1.11821,-2.15314c-0.10751,-0.4083 2.34905,-1.02271 2.64868,-1.08167c3.64824,-0.71763 7.46594,-0.57203 11.13758,-1.14482c0.38114,0.02643 0.17787,2.97708 0.19817,3.59573c0.14686,4.47339 0.42469,8.95599 0.57691,13.43133c0.52167,3.10909 0.11206,6.06088 0.26522,9.15211c0.19494,3.93451 0.31541,7.09653 -1.35782,10.748c-4.05444,3.56016 -11.61365,7.05378 -17.08375,5.29803c-3.78837,-0.19452 -7.28369,-4.79958 -9.62253,-7.38013c-0.04103,-0.04526 3.91111,-2.68134 4.10241,-2.80369c5.12212,-3.78029 10.73798,-6.4859 16.09473,-9.84324z" data-paper-data="{&quot;noHover&quot;:false,&quot;origItem&quot;:[&quot;Path&quot;,{&quot;applyMatrix&quot;:true,&quot;segments&quot;:[[[926.61254,417.73069],[12.14285,3.5238],[-0.03018,0.12086]],[[926.46822,418.11346],[0.06716,-0.13431],[-0.67082,1.34164]],[924.45576,418.78428],[[923.08279,418.0906],[0,0],[-1.44471,-0.43097]],[[919.22563,415.72869],[1.11205,1.01797],[0.89694,-11.9485]],[[928.15956,380.1298],[-1.74473,12.05571],[0.38029,-1.32836]],[[929.175,375.57071],[0.02742,1.37277],[-0.01686,-0.84429]],[[923.5003,374.93752],[0.60865,-0.05075],[-7.41054,0.61792]],[[901.48814,378.8123],[7.37628,-0.90935],[-0.71866,0.25961]],[[903.08234,385.83106],[-0.2998,-1.20115],[2.16779,8.68513]],[[909.35292,411.92731],[-2.15853,-8.69186],[0.69956,6.26621]],[[913.83986,429.61277],[-1.39861,-6.02998],[1.78014,7.67491]],[[922.29365,449.50563],[-5.21858,-6.1072],[9.74892,4.62723]],[[957.96755,450.34516],[-9.56021,6.37347],[7.18055,-2.44927]],[[972.39433,430.92276],[-3.08539,6.24485],[0.05411,-0.10951]],[[963.14745,427.86406],[0.43501,0.13058],[-11.92317,-4.46591]]],&quot;closed&quot;:true}]}" stroke="none" stroke-width="0.5" stroke-linecap="butt"/></g></g></g></svg>