<svg version="1.1" xmlns="http://www.w3.org/2000/svg" xmlns:xlink="http://www.w3.org/1999/xlink" width="210.50081" height="229.64528" viewBox="0,0,210.50081,229.64528"><g transform="translate(-111.31288,-38.68633)"><g data-paper-data="{&quot;isPaintingLayer&quot;:true}" fill-rule="nonzero" stroke-linejoin="miter" stroke-miterlimit="10" stroke-dasharray="" stroke-dashoffset="0" style="mix-blend-mode: normal"><g stroke="#000000" stroke-width="2"><g stroke-linecap="round"><path d="M279.2104,129.84301l21.16346,-15.07166l-5.10672,-6.69293l9.95505,-10.13252c0,0 -0.85219,-4.9876 1.27786,-3.09657c4.41279,3.9176 15.50529,15.74971 14.209,20.47978c-1.61428,5.10811 -10.72567,10.62947 -17.71403,14.98965c-9.2503,5.77146 -18.32637,9.26827 -21.29808,10.46137c-2.28791,0.91855 -7.37879,0.92585 -6.97885,-5.00027c0.17671,-2.61869 3.51652,-5.26139 4.33321,-6.03615" fill="#f5d9b5"/><g><path d="M288.88606,99.09502l15.51705,-9.50476c0,0 7.50574,9.76916 12.44785,16.95114c0.24659,0.35837 -6.45772,10.32922 -16.18975,8.18205z" fill="#965646"/><path d="M312.72009,111.17653l-13.43496,-18.0141" fill="none"/><path d="M293.354,96.7667l12.90946,17.32969" fill="none"/></g></g><path d="M303.70545,101.9386c-4.60847,4.37044 -12.45211,3.5819 -17.5193,-1.76126c-5.06718,-5.34316 -5.30338,-15.88079 -0.69491,-20.25123c4.60847,-4.37044 12.46287,2.7602 17.53003,8.10335c5.06718,5.34316 5.29264,9.53869 0.68417,13.90913z" fill="#4ac2e4" stroke-linecap="butt"/></g><path d="M288.14268,127.76954l-1.48812,3.37881l-3.19618,-3.66386l7.3699,-5.40074l2.95201,10.96134z" data-paper-data="{&quot;index&quot;:null}" fill="#4ac2e4" stroke="#000000" stroke-width="1.5" stroke-linecap="butt"/><g><path d="M209.79842,154.64787c0,0 -17.00464,4.84167 -26.70986,13.5759c-3.46681,3.11997 9.19599,12.26983 9.19599,12.26983l-10.71634,15.1749c0,0 -3.69137,1.78026 -6.03742,0.16497c-8.39683,-5.78142 -13.29671,-15.76167 -11.37235,-25.06329c1.11236,-5.37671 5.60138,-10.69827 10.18036,-14.40767c8.47203,-6.86314 26.96074,-11.16179 26.96074,-11.16179" data-paper-data="{&quot;index&quot;:null}" fill="#f5d9b5" stroke="#000000" stroke-width="2" stroke-linecap="round"/><g data-paper-data="{&quot;index&quot;:null}" stroke="#000000" stroke-width="2" stroke-linecap="round"><path d="M186.68443,175.83318c4.60869,2.44439 13.29948,7.40055 13.29948,7.40055c0,0 -11.10814,1.43788 -12.41643,3.97522c-1.21145,2.3496 4.83488,10.72893 4.83488,10.72893c0,0 -15.17549,1.77772 -22.31381,-10.40908c-3.76255,-6.42355 9.59257,-15.40986 16.59582,-11.69563z" fill="#965646"/><path d="M171.59112,182.17455l14.21671,10.99684" fill="none"/><path d="M195.26963,186.09668l-17.60773,-9.1117" fill="none"/></g><g><g><g data-paper-data="{&quot;index&quot;:null}" stroke-linecap="butt"><path d="M196.73032,203.24059c-1.33021,1.12843 -3.30274,1.58069 -4.72278,2.14759c-3.61529,1.44322 -6.89077,1.51954 -10.80711,-0.19455c-2.56611,-1.12312 -5.4214,-5.08551 -5.4214,-5.08551c0,0 -1.53782,-0.71306 -2.58164,-1.33366c-7.53064,-4.47725 -4.58387,-17.09018 3.51341,-15.90931c0.45373,-3.52112 4.6948,-6.18378 8.2998,-6.10399c0.13139,-8.04099 9.09822,-9.73525 13.2433,-9.09428c4.19851,0.64929 5.03003,4.51226 6.36714,8.06495c0.95743,2.54386 3.08864,5.44542 2.33621,7.62862c-0.58348,1.69302 -3.34125,3.81245 -5.44202,3.98476c0.31426,1.16854 -0.43171,1.84926 0.40617,1.44916c5.97012,-1.10265 11.61102,2.39088 9.67649,7.53525c-1.1241,2.98923 -6.61044,3.98642 -10.20201,3.10952c-1.26746,0.8046 -4.21505,3.41928 -4.66557,3.80145z" fill="#000000" stroke="none" stroke-width="0.5"/><path d="M184.27181,204.15728c-3.87222,-0.8556 -7.04109,-4.86002 -7.04109,-4.86002c0,0 2.12416,0.08156 3.23598,-0.72064c1.42476,-1.02798 2.12629,-2.63871 2.12629,-2.63871c0,0 1.90841,1.54512 4.88716,0.95465c1.51957,-0.3012 3.59267,-1.12976 4.88566,-2.60517c0.56884,-0.64908 0.93251,-1.58801 1.23506,-2.34529c0.71833,-1.79806 -1.62583,-6.97669 -3.04831,-5.35638c-1.42247,1.62033 3.76307,6.31274 -2.14173,8.4353c-2.18838,0.9593 -3.92348,-0.0435 -4.98431,-1.1237c-0.81384,-0.8287 -1.04545,-1.68125 -1.90322,-1.85969c-0.06202,-0.0129 -0.12409,-0.02478 -0.18601,-0.03505c-0.11166,-0.0761 -0.31715,-0.37774 -0.31981,-0.22363c-0.04504,2.61706 0.10384,4.53114 -0.99766,5.37356c-1.09536,0.83773 -3.43698,0.61281 -4.93987,-0.02328c-2.09254,-0.88569 -3.97133,-4.83916 -3.77755,-7.02113c0.3038,-3.42055 2.45911,-6.44176 6.69521,-5.03574c0,0 0.63052,-3.51057 2.33429,-4.60947c2.62005,-1.68996 6.67877,-1.59886 6.67877,-1.59886c0,0 -0.00256,-3.83049 0.30744,-4.59394c1.34984,-3.32398 9.1315,-5.02671 11.69923,-3.81934c1.14431,0.53807 2.53961,4.74807 3.74024,7.78649c0.84845,2.14715 1.81124,3.11542 1.65123,4.46942c-0.13278,1.12355 -2.84456,2.21878 -4.24478,2.52431c-2.72057,0.84589 -3.37146,-0.26692 -4.37719,-1.39539c-1.02046,-1.14498 -1.23465,-2.8112 -2.02464,-2.59684c-0.4563,0.12381 -0.75588,0.3124 -0.92529,0.54827c-0.66157,0.92108 0.66235,2.56298 2.39243,3.88219c0.86447,0.65915 1.83035,1.23775 2.70061,1.60558c0.03968,2.09005 0.49404,3.77123 1.84063,3.68412c3.18654,-0.20615 7.75268,-0.93745 9.11964,2.45128c2.04242,5.06335 -5.25723,3.62196 -8.92226,4.18482c0,0 -9.22562,7.99208 -15.69619,6.56235z" data-paper-data="{&quot;noHover&quot;:false,&quot;origItem&quot;:[&quot;Path&quot;,{&quot;applyMatrix&quot;:true,&quot;segments&quot;:[[[125.34693,572.28539],[0,0],[9.5542,-5.52752]],[[145.54599,551.07879],[11.14375,11.83056],[-10.91121,-11.58371]],[[107.57608,545.25957],[8.92382,23.60675],[-9.24736,2.75866]],[[90.51041,533.59623],[-7.75722,5.74017],[3.88909,-2.87784]],[[112.67488,537.77718],[-8,5.32104],[3.55223,-2.3627]],[[121.56111,526.31161],[0.8478,3.25941],[-1.02169,-3.92792]],[[112.17218,515.72545],[4.67659,5.03597],[-6.61787,-7.12642]],[[93.41811,498.19218],[3.75558,0.25364],[-8.42726,-0.56913]],[[65.29972,520.83032],[0.14573,-10.67857],[-0.03346,2.45263]],[69.30791,534.47925],[[52.53764,546.09621],[5.43661,-7.52196],[-3.5353,4.89133]],[[51.05266,561.36841],[0,0],[-13.26873,0.68565]],[[37.92637,582.55127],[-2.85957,-9.81424],[1.82415,6.26062]],[[54.54959,597.04786],[-6.76135,-0.19141],[0.48636,0.01376]],[[60.40089,595.84818],[-0.42349,1.56607],[13.81008,-4.46101]],[[66.51333,576.78502],[-7.92441,0],[0.45883,0]],[[67.78843,576.9226],[-0.39199,-0.09017],[0.18278,-0.03861]],[[68.34153,576.81785],[-0.18592,0.03133],[5.92404,-0.99864]],[[88.94775,574.78697],[-8.88942,8.88657],[14.07723,-12.27659]],[[86.57225,549.06928],[-2.19099,6.03276],[2.19099,-6.03276]],[[101.21156,563.65055],[0.04598,-5.76358],[-0.14966,18.76182]],[[73.9804,586.91918],[11.7383,0.37577],[-0.47154,-0.0151]],[[72.1505,586.94196],[0.72344,-0.02236],[-0.09676,2.96479]],[[71.1221,594.74753],[0.41982,-1.89247],[-0.76716,3.45832]],[67.36008,602.72239],[[89.01534,607.42214],[-11.66391,1.81815],[19.49071,-3.03818]]],&quot;closed&quot;:true}]}" fill="#47c1e2" stroke="#47c1e2" stroke-width="1"/></g><path d="M191.20567,186.91724c0,0 3.44948,5.20769 -1.51116,8.09767c-4.67618,2.72423 -7.35916,-0.76826 -8.19464,-1.92443c-0.85847,-1.18799 0.08166,0.37877 -0.02083,2.13366c-0.07638,1.30776 -0.93214,2.69655 -2.46885,3.25327c-4.05127,1.46769 -7.12994,-2.55343 -7.12994,-2.55343" fill="none" stroke="#000000" stroke-width="2" stroke-linecap="round"/></g><path d="M205.80612,183.41785c0,0 -2.45581,2.95883 -6.55662,2.95513c-1.85631,-0.00167 -3.61107,-1.26192 -4.55398,-2.43276c-0.75311,-0.93519 -0.88659,-1.83453 -0.88659,-1.83453" fill="none" stroke="#000000" stroke-width="2" stroke-linecap="round"/></g></g><path d="M223.18965,219.28623l-1.37932,1.53718c0,0 0.8796,0.37362 -2.69014,5.45906c-5.62984,8.02026 -17.67484,21.70835 -26.24651,18.02087c-1.15096,-0.49512 -1.98004,-1.65648 -1.86985,-2.70521c0.09592,-0.91296 0.35576,-3.25751 1.57659,-5.11368c7.05404,-10.72508 25.73089,-21.3464 25.73089,-21.3464z" data-paper-data="{&quot;index&quot;:null}" fill="#4ac2e4" stroke="#000000" stroke-width="2" stroke-linecap="round"/><g><path d="M255.60646,206.74774l24.34531,29.41814l-19.70971,0.02084l-18.23321,-23.62337z" fill="#3a3b3f" stroke="none" stroke-width="0" stroke-linecap="round"/><path d="M265.13158,217.69037c0,0 21.64252,25.86028 25.58019,34.858c2.41283,5.51344 -2.86174,7.32248 -2.86174,7.32248c0,0 -8.72408,1.159 -16.84025,0.35431c0.03759,-0.21331 0.06702,-0.42951 0.08799,-0.64827c0.20438,-2.13184 -0.42973,-4.15331 -1.64843,-5.78139c0.00852,-0.07007 0.01619,-0.14044 0.02295,-0.21107c0.21292,-2.22089 -0.48416,-4.32199 -1.80417,-5.98332l0.30137,0.00084l-17.15662,-25.4829z" fill="#585a5e" stroke="none" stroke-width="0" stroke-linecap="round"/><path d="M273.38687,241.62394c4.59792,-1.01255 8.4962,-3.02702 9.29254,-2.11026c3.21292,3.69862 6.32757,9.43377 7.7514,12.6873c0.44613,1.01941 0.62946,1.91221 0.63189,2.69032c-0.10306,-0.07913 -0.21058,-0.15474 -0.32293,-0.2266c-0.73026,-0.46705 -1.5541,-0.8124 -2.41367,-1.0589c-0.68499,-0.21409 -1.40759,2.93398 -2.15876,2.87145c-2.84601,-0.3218 -4.90936,-0.66647 -6.96432,-0.5717c-4.4039,0.20309 -7.28246,-1.96085 -7.28246,-1.96085c0,0 -4.70106,-7.15165 -8.01721,-12.45378c0,0 4.86939,1.14916 9.48349,0.13304z" fill="#a08c83" stroke="#000000" stroke-width="2" stroke-linecap="round"/><path d="M271.14547,252.43807l-25.52579,-36.73959l13.35712,-4.2158c0,0 6.90718,6.71997 13.04976,14.84583c5.86586,7.75979 14.9654,17.71974 18.68527,26.21983c2.41283,5.51344 -2.86175,7.32247 -2.86175,7.32247c0,0 -8.72409,1.15899 -16.84026,0.35431" fill="none" stroke="#000000" stroke-width="2" stroke-linecap="round"/><path d="M266.54222,256.30316c1.23235,-0.76904 4.04413,-1.92845 4.04413,-1.92845c0,0 -0.03347,-2.61345 0.63262,-2.74721c0.6768,0.09955 1.22365,1.49492 2.04794,1.87365c1.6375,0.75235 3.60464,0.70143 4.50363,0.97213c1.60112,0.48209 4.33503,0.14679 6.1863,0.06137c0.12822,-0.00591 2.15842,-0.05003 3.71394,-0.71644c1.24212,-0.53215 2.01146,-1.72537 2.51511,-1.67594l1.92621,6.567c0,0 1.6582,4.21826 0.71201,5.46537c-0.94619,1.2471 -5.91029,1.45 -7.53481,1.81317c-1.62452,0.36319 -13.41617,1.02676 -13.41617,1.02676c0,0 -3.5226,0.45802 -6.31376,-0.96863c-1.91187,-0.9772 -3.15934,-2.74057 -2.91338,-4.85897c0.23859,-2.05495 2.15196,-3.53598 4.31176,-4.88379z" fill="#4ac2e4" stroke="none" stroke-width="0" stroke-linecap="butt"/><path d="M268.15184,266.12316c0,0 -0.54101,-4.35556 2.33747,-6.44042" fill="none" stroke="#000000" stroke-width="2" stroke-linecap="round"/><path d="M276.97373,267.11085c0,0 -1.63609,-2.79088 1.56151,-6.91068" fill="none" stroke="#000000" stroke-width="2" stroke-linecap="round"/><path d="M290.55226,252.14759c0,0 3.69102,6.68572 1.75355,12.30055c-4.20166,1.55692 -9.72392,2.45793 -15.80239,2.79994c-1.57178,0.08844 -8.37058,0.45901 -11.16228,-0.97469c-1.91223,-0.98204 -3.16032,-2.75351 -2.91505,-4.88114c0.23791,-2.0639 4.02603,-5.93334 9.62878,-7.28645c0.02969,0.25536 -1.64583,-2.69134 -1.64583,-2.69134c0,0 2.04943,3.25548 8.6738,3.35328c6.13093,0.0905 10.99007,-2.88968 10.99007,-2.88968" fill="none" stroke="#000000" stroke-width="2" stroke-linecap="round"/><path d="M266.76016,235.0537c-3.79697,0.96488 1.69738,4.16368 1.69738,4.16368c0,0 -2.38936,0.06267 -4.75139,-0.59615c-0.98233,-0.274 -2.15184,-0.18247 -2.83726,-1.05282c-1.76864,-2.24584 -1.98647,-3.11028 -3.53231,-6.08291c1.37454,-1.45731 0.73659,-5.62017 0.86296,-5.82651c0.35907,-0.58633 4.05853,6.33034 4.3899,5.73909c0.94185,-1.68052 1.6738,-3.42314 1.6738,-3.42314c0,0 0.88987,1.9457 -0.08163,4.56775c-0.37281,1.00622 2.57854,2.51104 2.57854,2.51104z" fill="#4ac2e4" stroke="#000000" stroke-width="1.5" stroke-linecap="butt"/></g><g><g data-paper-data="{&quot;index&quot;:null}"><g><path d="M237.02093,217.60158c0,0 8.13267,15.30582 8.52966,19.39045c0.41161,4.23493 -7.48765,13.48588 -7.48765,13.48588l0.3013,0.00534c-1.35899,1.63384 -2.10557,3.7201 -1.94523,5.94482c0.0051,0.07076 0.0111,0.14125 0.01795,0.21148c-1.25691,1.60266 -1.93865,3.61062 -1.78474,5.74615c0.01579,0.21915 0.04012,0.43588 0.07265,0.64991c-8.13324,0.63783 -16.8278,-0.70002 -16.8278,-0.70002c0,0 -5.23053,-1.91691 -2.6879,-7.37946c2.54263,-5.46254 13.218,-16.28729 13.218,-16.28729l-6.10388,-16.69332z" fill="#3a3b3f" stroke="none" stroke-width="0" stroke-linecap="round"/><path d="M241.43954,228.92672c4.03548,2.75332 3.92928,6.19496 4.11105,8.06529c0.41161,4.23493 -7.48765,13.48588 -7.48765,13.48588l0.3013,0.00534c-1.35899,1.63384 -2.10557,3.7201 -1.94523,5.94482c0.0051,0.07076 0.0111,0.14125 0.01795,0.21148c-1.25691,1.60266 -1.93865,3.61062 -1.78474,5.74615c0.01579,0.21915 0.04012,0.43588 0.07265,0.64991c-8.13323,0.63783 -16.82779,-0.70002 -16.82779,-0.70002c0,0 -5.23051,-1.91691 -2.68788,-7.37946c2.54263,-5.46253 13.21799,-16.28729 13.21799,-16.28729c0,0 -1.03811,-4.0201 -2.86937,-5.95554c0,0 10.80148,-7.25271 15.88174,-3.78655z" fill="#585a5e" stroke="none" stroke-width="0" stroke-linecap="round"/><path d="M242.64138,244.75222c-2.03056,3.08814 -4.26604,5.70614 -4.26604,5.70614l-6.83103,6.43103c0,0 -2.81662,-1.70811 -11.78358,-0.88059c-0.75247,0.04709 -1.47828,0.17554 -2.16817,0.37551c-0.8652,0.22879 -1.69699,0.55715 -2.43812,1.00908c-0.11402,0.06953 -0.22332,0.1429 -0.32822,0.2199c0.02083,-0.77788 0.22523,-1.66669 0.69537,-2.67669c1.50043,-3.22349 5.8329,-8.31424 9.13249,-11.94599c0.81783,-0.90016 3.45171,1.32875 8.15744,1.72152c4.23192,0.35322 10.67573,-1.24633 9.82985,0.04011z" fill="#a08c83" stroke="#000000" stroke-width="2" stroke-linecap="round"/><path d="M234.72492,263.03559c-8.13324,0.63783 -16.82781,-0.70002 -16.82781,-0.70002c0,0 -5.23053,-1.91691 -2.6879,-7.37946c2.54263,-5.46254 13.218,-16.28729 13.218,-16.28729l-7.22743,-17.83581l15.6839,-1.52494c0,0 8.26997,13.59931 8.66697,17.68395c0.41161,4.23493 -7.48765,13.48588 -7.48765,13.48588l0.30131,0.00534" fill="none" stroke="#000000" stroke-width="2" stroke-linecap="round"/><path d="M239.54466,255.25517c2.25186,1.20992 3.28659,3.40573 3.67242,5.44116c0.39774,2.09829 -0.72012,3.93558 -2.55742,5.02996c-2.6823,1.59772 -6.22992,1.36068 -6.22992,1.36068c0,0 -11.81287,0.07419 -13.45986,-0.18674c-1.64698,-0.26091 -6.61452,-0.15341 -7.64825,-1.33862c-1.03375,-1.18522 0.3174,-5.49755 0.3174,-5.49755l1.44965,-6.67252c0.49897,-0.08076 1.35238,1.06172 2.62998,1.51512c1.59995,0.56779 3.62876,0.48504 3.75712,0.48292c1.85325,-0.03037 4.60512,0.13349 6.16798,-0.4475c1.31923,-0.49042 2.44168,-0.22752 4.43705,-0.65037c1.19079,0.16225 4.50201,-0.628 7.46385,0.96341z" fill="#4ac2e4" stroke="none" stroke-width="0" stroke-linecap="butt"/><path d="M238.2157,258.63934c3.02193,1.90044 2.79535,6.27999 2.79535,6.27999" fill="none" stroke="#000000" stroke-width="2" stroke-linecap="round"/><path d="M216.46801,253.62258c0,0 4.24532,2.24689 10.35597,1.77376c6.60245,-0.51119 10.17167,-3.56617 10.17167,-3.56617c0,0 -2.02832,2.54126 -2.01706,2.28461c5.68746,1.00023 8.08686,4.72823 8.47265,6.77263c0.39771,2.10753 -0.72019,3.95295 -2.55751,5.05219c-2.68233,1.60479 -6.22994,1.36676 -6.22994,1.36676c0,0 -16.5012,-0.21316 -20.80537,-1.50422c-2.33687,-5.48124 2.12284,-12.26707 2.12284,-12.26707" fill="none" stroke="#000000" stroke-width="2" stroke-linecap="round"/></g><path d="M216.68085,254.95619l7.26366,-6.96298l-0.86058,2.47384l7.52622,-5.54768l-6.65918,13.26083" fill="#4ac2e4" stroke="#000000" stroke-width="0" stroke-linecap="round"/><path d="M217.21534,254.01231l5.84655,-5.89054l0.17829,2.05896l7.67463,-5.40939l-5.38,10.95098" fill="none" stroke="#000000" stroke-width="1.5" stroke-linecap="round"/></g><path d="M230.92951,259.39072c5.0662,4.08723 2.30766,7.94089 2.30766,7.94089" data-paper-data="{&quot;index&quot;:null}" fill="none" stroke="#000000" stroke-width="2" stroke-linecap="round"/></g><path d="M135.5634,118.44861c0,14.23027 -5.42866,25.76618 -12.12526,25.76618c-6.6966,0 -12.12526,-11.53591 -12.12526,-25.76618c0,-14.23027 5.42866,-25.76618 12.12526,-25.76618c6.6966,0 12.12526,11.53591 12.12526,25.76618z" fill="none" stroke="none" stroke-width="0" stroke-linecap="butt"/><g data-paper-data="{&quot;index&quot;:null}" stroke-linecap="round"><path d="M242.46613,153.05689l12.56402,44.68787c0,0 3.08113,-0.06636 5.93633,1.62823c2.38594,1.41609 4.55917,4.351 5.16649,6.83568c0.57108,2.33641 -0.5128,5.02348 -1.98656,6.98315c-1.96905,2.61822 -7.19459,4.34091 -7.19459,4.34091l-35.13905,4.4278c0,0 -7.30975,0.5546 -9.59684,-4.12388c-3.7033,-7.57543 3.40308,-14.46706 3.40308,-14.46706l-6.93315,-51.58735" fill="#f5d9b5" stroke="#000000" stroke-width="2"/><path d="M266.15164,208.40773c-0.05827,0.89759 -0.45266,1.92294 -0.94794,2.92247c-0.57225,1.15489 -2.26517,2.70415 -3.76785,3.67188c-2.54076,1.63623 -5.12769,2.38399 -5.12769,2.38399c0,0 -15.05682,3.16225 -21.69223,3.97963c-5.63081,0.6936 -15.6034,0.61452 -15.6034,0.61452c0,0 -3.45858,-0.89177 -4.59303,-2.18001c-0.66869,-0.75935 -1.25096,-1.22891 -1.56985,-1.9695c-0.85986,-1.99697 -0.84214,-5.69372 -0.84214,-5.69372l53.52749,-7.0323c0,0 0.73957,1.41004 0.61665,3.30306z" fill="#585960" stroke="#585960" stroke-width="1"/><path d="M248.98592,206.92153c0,0 1.39495,4.6767 -6.97768,5.73494c-8.0521,1.20873 -8.54514,-3.57917 -8.54514,-3.57917" fill="#ffffff" stroke="#000000" stroke-width="2"/><path d="M238.66576,219.95567l-0.01498,-5.88138" fill="none" stroke="#000000" stroke-width="2"/><path d="M246.07517,212.57494l1.0081,6.08985" fill="none" stroke="#000000" stroke-width="2"/><path d="M207.53205,148.6975c0,0 6.34176,-2.82358 16.82245,-3.27074c10.4807,-0.44715 17.53463,2.6165 17.53463,2.6165l4.10984,19.69857l-35.35493,-5.65699z" fill="#965745" stroke="#000000" stroke-width="2"/><path d="M222.00573,209.66793c9.51014,-1.2826 43.17276,-5.82257 43.17276,-5.82257c0,0 1.27962,2.64463 1.1567,4.53765c-0.05827,0.89759 -0.45266,1.92294 -0.94794,2.92247c-1.53983,3.10756 -4.92372,5.64665 -9.00475,6.6309c-4.08104,0.98424 -22.26057,4.99956 -36.77007,4.33648c-5.26543,-0.24064 -7.69551,-3.55143 -8.35786,-6.5942c-0.50512,-2.32044 0.23774,-4.59283 0.23774,-4.59283c0,0 5.82038,-0.78497 10.51343,-1.4179z" fill="none" stroke="#000000" stroke-width="2"/></g><g><g><path d="M231.49335,66.36056c0,0 3.05141,-9.88432 9.31467,-17.44437c5.0619,-6.10994 12.74081,-11.1021 20.79273,-8.54507c17.18658,5.4579 24.12563,38.51082 24.12563,38.51082" data-paper-data="{&quot;index&quot;:null}" fill="#4ac2e4" stroke="#000000" stroke-width="2" stroke-linecap="round"/><path d="M182.9312,104.13715c0,0 -13.62513,-30.9031 -2.84024,-45.35483c5.05272,-6.77063 14.20213,-7.18941 21.87645,-5.17462c9.49567,2.49297 17.73602,8.7466 17.73602,8.7466" data-paper-data="{&quot;index&quot;:null}" fill="#4ac2e4" stroke="#000000" stroke-width="2" stroke-linecap="round"/><g stroke="#000000"><g><path d="M307.90018,129.94586c1.96086,4.90311 1.04795,9.70508 -0.02525,14.78931c-0.90579,4.29122 -1.49356,8.89693 -4.94368,12.7846c-4.45858,5.02401 -10.0543,9.59209 -17.51291,11.10882c-15.99114,3.25184 -36.44237,-0.50308 -36.44237,-0.50308l-29.86929,-6.3317c0,0 -10.04804,-3.34588 -15.79345,-6.67259c-6.46452,-3.74308 -12.58515,-11.26917 -16.05787,-16.59308c-1.4867,-2.27918 -3.07021,-5.01095 -4.14481,-7.89214c-1.82084,-4.88193 -2.70421,-10.2999 -2.98626,-15.45037c-0.63642,-11.62089 2.07874,-21.8206 2.07874,-21.8206c0,0 3.79062,-15.83006 18.52415,-25.47277c5.30558,-3.47237 12.37662,-6.55153 19.7063,-8.13673c11.11191,-2.01789 22.48757,-2.08839 30.83404,-0.38141c6.12482,1.25262 14.47193,3.20349 21.95025,7.35172c7.49506,4.1575 14.11844,10.51725 17.67729,16.09489c10.03128,15.72166 4.72568,33.44824 4.72568,33.44824c0,0 8.96051,5.37798 12.27948,13.67687z" fill="#4ac2e4" stroke-width="2" stroke-linecap="round"/><path d="M294.34128,165.7363l-7.28068,-10.99763l0.56885,-0.3766l7.28066,10.99764z" fill="#000000" stroke-width="1.5" stroke-linecap="butt"/><path d="M306.44372,155.30371l-7.61904,-8.80959l0.68099,-0.56168l7.61904,8.8096z" fill="#000000" stroke-width="1.5" stroke-linecap="butt"/></g><path d="M201.48555,149.8919l9.45822,-9.1923l0.47547,0.48921l-9.45822,9.1923z" data-paper-data="{&quot;index&quot;:null}" fill="#000000" stroke-width="1.5" stroke-linecap="butt"/><path d="M191.30566,139.35723l10.32808,-8.20286l0.42428,0.53421l-10.32806,8.20284z" data-paper-data="{&quot;index&quot;:null}" fill="#000000" stroke-width="1.5" stroke-linecap="butt"/><path d="M184.85687,125.72014l9.39799,-5.0477l0.26108,0.48609l-9.39799,5.04769z" data-paper-data="{&quot;index&quot;:null}" fill="#000000" stroke-width="1.5" stroke-linecap="butt"/></g><path d="M275.30755,94.23758c10.33041,-0.32628 19.24933,9.16633 19.92096,21.20238c0.67162,12.03604 -7.15838,22.0577 -17.48878,22.384c-10.33041,0.32631 -19.24933,-9.16634 -19.92095,-21.20238c-0.67162,-12.03604 7.15838,-22.05769 17.48879,-22.38399z" fill="#ffffff" stroke="#000000" stroke-width="2" stroke-linecap="butt"/><path d="M219.12568,129.73702c-11.85478,-4.63294 -16.93775,-16.72449 -11.96916,-28.13725c4.96859,-11.41276 18.10728,-17.82499 29.96205,-13.19203c11.85477,4.63293 16.49082,18.12567 11.52221,29.53843c-4.96859,11.41276 -17.66034,16.42378 -29.51511,11.79085z" fill="#ffffff" stroke="#000000" stroke-width="2" stroke-linecap="butt"/><path d="M232.49015,60.83657c4.6583,-9.96342 8.0162,-6.69673 8.0162,-6.69673" data-paper-data="{&quot;index&quot;:null}" fill="none" stroke="#000000" stroke-width="7.5" stroke-linecap="round"/><g stroke="#000000" stroke-width="2"><path d="M274.39268,138.9151c-0.63948,6.34992 -11.78244,22.35044 -22.84726,30.83471c-6.00914,4.60767 -11.98937,5.63472 -16.26502,4.81957c-25.0712,-4.77988 -20.09975,-54.50972 -8.07243,-54.86315c7.29765,-0.20292 16.50176,9.25909 26.87805,12.63375c9.76491,3.17581 20.96337,0.05379 20.30665,6.57511z" fill="#e26172" stroke-linecap="butt"/><path d="M242.23161,173.8279c0,0 -7.74258,4.10418 -13.92225,-0.69607c-16.44171,-15.06776 -9.96785,-38.07159 -9.96785,-38.07159c0,0 15.01276,0.99078 22.42203,12.56774c7.97123,12.45503 1.46806,26.19991 1.46806,26.19991z" fill="#f7a3a3" stroke-linecap="round"/><path d="M228.39266,120.14983c0,0 3.00967,0.2782 4.94096,1.10746c0.89786,0.38553 1.33625,0.42469 1.87547,0.81953c1.48235,1.08542 4.33075,2.61955 4.33075,2.61955c0,0 -6.84987,9.23134 -9.55503,7.25053c-2.70517,-1.98079 -1.59213,-11.79707 -1.59213,-11.79707z" fill="#ffffff" stroke-linecap="butt"/></g><g data-paper-data="{&quot;index&quot;:null}"><g><path d="M275.88525,135.47421c5.74392,2.76752 6.39328,4.98954 6.41671,6.29649c0.04368,2.43634 -5.75008,1.88141 -10.85378,1.18694c-7.17763,-0.9767 -11.75518,-3.86623 -16.09303,-6.15655c-6.54679,-3.45666 -8.93045,-4.96524 -14.50263,-9.98394c-5.88612,-5.30146 10.03451,0.79293 17.51783,2.84972c5.83797,1.60455 17.51491,5.80735 17.51491,5.80735z" fill="#bbe9f3" stroke="none" stroke-width="0" stroke-linecap="round"/><path d="M271.42303,133.72206c0.02751,0.80762 -3.32964,2.46635 -4.41767,2.33716c-1.08806,-0.12922 -7.08055,-5.00155 -7.10806,-5.80918c-0.02427,-0.71259 4.47863,0.83685 6.31563,1.56866z" fill="#d94a32" stroke="none" stroke-width="0" stroke-linecap="butt"/><path d="M272.11458,134.01432c-2.01492,1.41304 -5.65877,2.17852 -5.65877,2.17852c0,0 -2.25151,-1.75349 -3.56642,-2.77759c-1.62696,-1.2671 -4.94558,-3.90405 -4.94558,-3.90405" fill="none" stroke="#000000" stroke-width="2" stroke-linecap="round"/><path d="M282.68951,140.28774c-0.34363,2.40001 -5.477,3.35884 -12.36036,2.11478c-8.16262,-1.47527 -15.28744,-4.63988 -20.44624,-7.70344c-5.3999,-3.20675 -10.31452,-8.18185 -10.34178,-9.11398c-0.03852,-1.31592 5.73945,0.71217 13.81232,2.46266c7.17894,1.55663 29.916,8.18972 29.33609,12.24001z" fill="none" stroke="#000000" stroke-width="2" stroke-linecap="round"/></g><path d="M266.12424,136.1275c0,0 0.26622,2.78437 -1.6493,4.17341" fill="none" stroke="#000000" stroke-width="2" stroke-linecap="round"/></g><path d="M253.74821,54.65223c0,0 3.20666,-3.41524 8.31094,6.32722" data-paper-data="{&quot;index&quot;:null}" fill="none" stroke="#000000" stroke-width="7.5" stroke-linecap="round"/><path d="M298.04416,120.29964c-0.26085,3.28322 -0.56475,4.65345 -1.24218,6.43293c-0.8568,2.25066 -2.08599,4.47249 -2.08599,4.47249" data-paper-data="{&quot;index&quot;:null}" fill="none" stroke="#000000" stroke-width="2" stroke-linecap="round"/></g><path d="M202.61024,119.14583c0,0 -2.34314,-6.26456 -1.21015,-12.9805" fill="none" stroke="#000000" stroke-width="2" stroke-linecap="round"/></g><path d="M202.65755,114.7013c0.00314,-0.49286 0.0125,-1.00102 0.00914,-1.53462c0,0 0,-2.5 2.5,-2.5c1.55057,0 2.13944,0.96171 2.36307,1.69217c0.77792,0.98447 0.54419,1.93841 0.22325,2.55366c0.06263,0.50923 0.15889,0.95274 0.28807,1.35361c1.94373,3.13659 4.56238,5.03539 7.493,7.73486c0.62753,0.57803 1.21024,1.19998 1.77422,1.84047l1.68156,0.63058c0.9763,0.34031 1.67684,1.269 1.67684,2.36132c0,1.38071 -1.11929,2.5 -2.5,2.5c-0.22872,0 -0.45026,-0.03071 -0.66073,-0.08824l-2.61228,-0.65307l0.02284,-0.09136l-0.21462,0.03518c-3.54957,-1.5991 -4.36202,-3.23358 -6.7761,-6.08657c-1.43836,-1.69988 -3.2404,-2.73131 -4.31362,-4.80192c-0.47309,-0.91275 -0.71546,-1.76233 -0.83746,-2.60779c-0.19774,-0.39183 -0.38866,-0.79835 -0.57257,-1.22143z" fill="#000000" stroke="none" stroke-width="0.5" stroke-linecap="butt"/><path d="M280.8019,134.74134c0.04941,-0.03426 0.07852,-0.05173 0.07852,-0.05173c3.29752,-1.97217 7.153,-3.27842 9.6312,-6.3726c0.99622,-1.39445 0.95321,-3.38873 2.00174,-4.74856c0.01213,-0.01573 0.02431,-0.03142 0.03653,-0.04706l-0.01443,-0.00619l0.9773,-2.28038c0.36945,-0.91919 1.26922,-1.56816 2.32056,-1.56816c1.38071,0 2.5,1.11929 2.5,2.5c0,0.11851 -0.00825,0.23509 -0.0242,0.34921l-0.32844,2.62754l-0.22906,-0.02863l0.12008,0.50912c-0.97531,1.76737 -1.87759,3.43505 -2.96947,4.9816c-0.20816,0.39653 -0.35098,0.65774 -0.37413,0.6896c-2.99088,4.11712 -7.45414,7.19437 -12.04331,9.16942l-1.37801,-1.30409c-0.37513,-0.17639 -0.744,-0.48818 -1.06218,-1.0052l-1.0446,-0.98857c0,0 0,-2.00971 1.8019,-2.42534z" fill="#000000" stroke="none" stroke-width="0.5" stroke-linecap="butt"/><path d="M204.16668,117.5c0,0 -2.90804,25.89278 -3.92683,51.32291c-0.97754,24.40034 0.15455,48.37474 -9.94405,48.64167c-15.96734,0.42206 -17.46245,-25.96458 -17.46245,-25.96458" fill="none" stroke="#000000" stroke-width="6.5" stroke-linecap="round"/><path d="M217.16668,129.16667c0,0 1.75863,38.89278 0.73983,64.32291c-0.97754,24.40033 -13.51211,29.37474 -18.94405,24.30834c-7.38753,-6.89039 -5.12911,-32.29791 -5.12911,-32.29791" fill="none" stroke="#000000" stroke-width="6.5" stroke-linecap="round"/><path d="M302.50001,91.5c0,0 13.5049,112.05331 -2.46244,111.63125c-10.09861,-0.26693 -7.63318,-20.57467 -7.61072,-26.30833c0.02246,-5.73367 2.07317,-51.32291 2.07317,-51.32291" data-paper-data="{&quot;index&quot;:null}" fill="none" stroke="#000000" stroke-width="6.5" stroke-linecap="round"/><path d="M174.15098,194.99247c-1.39595,-1.91943 0.06943,-3.38708 0.49699,-3.75308c-0.7261,0.0874 -1.48077,0.13561 -2.27296,0.13561c0,0 -1.75,0 -1.75,-1.75c0,-1.75 1.75,-1.75 1.75,-1.75c5.10656,0 8.57086,-2.29906 13.17703,-3.83975c0.49249,-0.30359 0.98601,-0.60646 1.48042,-0.9091l0.05464,-0.01126l-0.0085,-0.01517l2.40918,-1.34969c0.40724,-0.23839 0.88128,-0.37502 1.38724,-0.37502c0.83983,0 1.59172,0.37646 2.09615,0.96984c1.04155,-0.15803 2.08526,-0.29434 3.13108,-0.42247c0.4766,-0.20112 0.96556,-0.39701 1.47039,-0.58804l2.66442,-1.21284c0,0 2.00368,-0.91076 3.24076,0.68982l0.37758,-0.10788c0.16417,-0.05098 0.33869,-0.07844 0.51963,-0.07844c0.9665,0 1.75,0.7835 1.75,1.75c0,0.57982 -0.28198,1.09378 -0.71629,1.41222l-1.98371,1.48778l-0.02733,-0.03644c-0.04814,0.05114 -0.09705,0.10165 -0.14676,0.15146c-1.59221,1.59523 -5.42657,2.34704 -7.37646,3.6715c-3.65376,2.48182 -5.98989,6.72426 -9.43721,9.45421c-2.66099,2.10725 -6.325,2.50357 -9.53192,3.08667l-0.03428,-0.00512l0.00145,0.01013l-1.7202,0.24574c-0.09031,0.01438 -0.18293,0.02185 -0.27729,0.02185c-0.12872,0 -0.25419,-0.0139 -0.375,-0.04027c-0.12081,0.02638 -0.24628,0.04027 -0.375,0.04027c-0.9665,0 -1.75,-0.7835 -1.75,-1.75c0,-0.55122 0.25485,-1.04292 0.65316,-1.36369l1.30048,-1.06403l0.31236,-0.49977l0.03668,0.02292c0.11048,-0.17141 0.23613,-0.33319 0.38081,-0.48289c0.25681,-0.26572 0.56534,-0.4498 0.90408,-0.58616c-0.59663,-0.06864 -1.24175,-0.37538 -1.81159,-1.1589z" fill="#000000" stroke="none" stroke-width="0.5" stroke-linecap="butt"/><path d="M301.70188,99.49066c0.31412,0.28361 0.59031,0.68966 0.782,1.26471c0.86963,2.60888 -1.73925,3.47851 -1.73925,3.47851l-5.11963,-2.10888c0.02452,-1.04394 -0.16696,-2.11567 0.07357,-3.13182c0.39531,-1.6701 1.70191,-3.15212 1.67643,-4.86818c-0.03047,-2.05205 -1.52707,-3.93252 -1.45104,-5.98338c0.00307,-0.08282 0.00759,-0.16543 0.01347,-0.24786l-0.04878,0.00488l-0.24632,-2.46319c-0.01145,-0.1019 -0.01733,-0.20549 -0.01733,-0.31044c0,-1.51878 1.23122,-2.75 2.75,-2.75c0.83082,0 1.57558,0.36843 2.07983,0.95082l1.73976,1.9883l-0.09185,0.08037l0.28198,0.16329c0.63719,1.17115 1.27439,2.3423 1.91158,3.51345c0,0 1.30377,2.4213 -1.11752,3.72507c-0.13654,0.07352 -0.26954,0.1352 -0.39894,0.18614c0.21286,1.58379 0.0988,2.84623 -0.53963,4.99299c-0.15075,0.50691 -0.3499,1.01009 -0.53832,1.51524z" fill="#000000" stroke="none" stroke-width="0.5" stroke-linecap="butt"/></g></g></svg>