<svg version="1.1" xmlns="http://www.w3.org/2000/svg" xmlns:xlink="http://www.w3.org/1999/xlink" width="234" height="234" viewBox="0,0,234,234"><g transform="translate(-123,-63)"><g data-paper-data="{&quot;isPaintingLayer&quot;:true}" fill-rule="nonzero" stroke-linejoin="miter" stroke-miterlimit="10" stroke-dasharray="" stroke-dashoffset="0" style="mix-blend-mode: normal"><g data-paper-data="{&quot;index&quot;:null}" stroke="#000000" stroke-width="3" stroke-linecap="butt"><path d="M272.07197,203.12458c0,0 -0.09747,11.29283 -8.31533,12.06139c-3.81132,0.35645 -21.09782,-2.18318 -24.74986,-7.61774c-7.95439,-11.83685 -6.38967,-20.85657 -6.38967,-20.85657c0,0 3.4891,-3.64971 6.02952,-3.7523c7.29121,-0.29443 8.99505,3.95737 8.99505,3.95737c0,0 0.69783,2.00371 1.53369,3.15317c0.92193,1.26784 3.76499,4.13357 3.76499,4.13357c0,0 15.48113,-1.60297 16.13058,-0.46021c0.28938,0.50919 3.00102,9.38133 3.00102,9.38133z" fill="#db93e6"/><path d="M269.72903,198.49889c0,0 15.98045,-2.37474 21.08763,0.26165c8.0441,4.15246 6.46055,14.16371 5.29579,15.32846c-3.64699,3.64693 -18.32193,6.91281 -18.32193,6.91281c-2.94504,0.35794 -10.41086,1.00219 -12.7016,0.56141c-3.60907,-0.69445 -3.89921,-5.27946 -4.31476,-9.90571c-0.68591,-7.6362 1.31867,-12.4727 8.95488,-13.15861z" fill="#f89587"/></g><g data-paper-data="{&quot;index&quot;:null}"><g><g><g stroke-linecap="butt"><path d="M339.61686,175.99344c0.78099,11.78944 -5.30381,15.94828 -17.0717,17.00531c-10.93104,0.98186 -20.23253,-4.2045 -20.86628,-15.16124c-0.74417,-12.86587 4.19068,-22.84356 15.95857,-23.90059c9.7682,-0.87741 17.02504,3.19449 20.27633,12.01439c1.02156,2.77122 1.4666,6.47248 1.70307,10.04212z" fill="#485e84" stroke="#000000" stroke-width="3"/><path d="M303.0224,172.03408c0,0 1.08207,0.94717 5.17464,2.12405c2.66736,0.76704 5.66673,2.24173 10.42208,1.81459c5.86014,-0.52637 10.96147,-1.1532 14.44518,-1.9207c3.68064,-0.81089 5.0048,-3.06663 5.0048,-3.06663c0,0 5.24422,18.65108 -10.83303,20.64284c-5.03882,0.62425 -14.9425,-0.27086 -20.06994,-4.15024c-2.71265,-2.05237 -3.37687,-6.24242 -3.92696,-8.4456c-1.06259,-4.25586 -0.21679,-6.99831 -0.21679,-6.99831z" fill="#343545" stroke="none" stroke-width="0"/></g><g fill="none" stroke="#000000" stroke-width="2" stroke-linecap="round"><path d="M306.64417,177.2269c0,0 -1.19201,-3.79148 -1.46267,-6.20551c-0.41385,-3.69114 1.30033,-8.42882 1.30033,-8.42882"/><path d="M302.65956,176.84415c0,0 5.52366,-7.01114 13.14424,-5.1759c15.18849,3.65779 13.85958,19.95044 13.85958,19.95044"/><path d="M317.33496,179.88771c0,0 2.06258,-8.78798 3.84323,-12.70843c2.36794,-5.21349 6.71985,-10.78982 6.71985,-10.78982"/><path d="M332.49717,158.11608c0,0 1.57954,7.68402 -3.4579,16.34072c-3.03035,5.20757 -8.44171,7.85366 -8.44171,7.85366"/><path d="M311.7278,177.01715c0,0 -1.32451,-5.79816 0.05052,-10.14259c2.37143,-7.49264 9.24302,-12.83013 9.24302,-12.83013"/><path d="M337.57,167.86527c0,0 -0.36757,6.97632 -5.96317,12.76282c-2.58033,2.66836 -8.4741,4.25275 -8.4741,4.25275"/><path d="M339.48193,177.24002c0,0 -2.20743,5.18258 -6.31351,8.49444c-2.32191,1.8728 -8.7627,2.32393 -8.7627,2.32393"/><path d="M315.87078,154.42477c0,0 5.38251,1.12985 10.8983,4.53512c5.34759,3.30143 12.71142,12.76633 12.71142,12.76633"/><path d="M306.40853,161.7762c0,0 8.65362,-2.67059 16.82359,2.10757c11.7388,6.86536 14.50466,21.41353 14.50466,21.41353"/></g></g><g stroke-linecap="butt"><path d="M323.00814,197.23661c0,0 -9.54669,-4.52452 -13.39741,-7.01154c-2.95939,-1.91135 -7.74506,-6.64355 -7.74506,-6.64355l1.11017,-4.13228c0,0 5.44406,-2.58092 9.92663,-1.01709c8.37685,2.92242 12.2131,12.0314 12.2131,12.0314c0,0 0.41349,3.92499 0.03897,5.12865c-0.31903,1.02529 -2.14642,1.64441 -2.14642,1.64441z" fill="#485e84" stroke="#000000" stroke-width="2"/><path d="M313.16033,182.9517l1.49713,-2.47262c0,0 0.61807,0.21602 0.96193,0.37643c0.39161,0.18268 1.35216,0.80567 1.35216,0.80567l-1.12779,2.83748z" fill="#8fbbbe" stroke="none" stroke-width="0"/><path d="M317.44209,185.59268l1.80002,-1.85554c0,0 2.19177,2.29754 2.95631,3.42568c0.61277,0.9042 1.27717,2.82122 1.27717,2.82122l-1.60762,1.70072z" fill="#8fbbbe" stroke="none" stroke-width="0"/><path d="M303.70768,182.48367c0,0 0.87384,-0.41793 2.63218,-0.81275c1.69198,-0.37992 4.20949,-0.77283 7.22664,0.97035c2.33041,1.3464 4.83216,2.70679 6.32774,4.61423c3.06805,3.91293 3.84637,8.48913 3.84637,8.48913c0,0 -0.40177,1.34551 -1.03776,0.88593c-0.75962,-0.54894 -3.21528,-3.95932 -3.21528,-3.95932c0,0 0.04551,-3.72178 -5.20933,-6.07216c-2.29541,-1.02669 -6.85348,-2.0324 -9.14832,-2.88378c-1.5866,-0.58863 -1.42223,-1.23165 -1.42223,-1.23165z" fill="#000000" stroke="none" stroke-width="0"/></g></g><g stroke-linecap="butt"><path d="M303.32555,186.78759c0.12087,0.11853 3.97137,2.45225 3.97137,2.45225c0,0 3.73359,4.09263 -6.33554,12.24838c-7.03309,7.16175 -12.10885,4.56671 -12.10885,4.56671c0,0 -9.22833,-3.48721 -11.03156,-7.72842c-0.95995,-2.25781 -3.36443,-6.0015 -1.12505,-7.76651c1.76257,-1.38922 6.60444,-1.54445 7.58866,-2.85761c1.76846,-2.35952 -0.08434,-14.65787 8.23129,-14.49408c3.52028,0.06934 9.99599,4.52068 10.80966,13.57927z" fill="#fddfbd" stroke="#000000" stroke-width="3"/><path d="M277.23604,192.25557c0,0 1.91084,0.60986 4.93498,3.46418c5.19046,-2.02921 8.77092,-3.13231 8.77092,-3.13231c0,0 3.4026,3.06871 2.45436,4.94352c-1.07913,2.13361 -6.6809,3.12079 -9.58658,3.38179c-2.40359,0.2159 -4.35263,-1.99782 -5.42649,-4.36393c-0.93246,-2.05453 -1.14718,-4.29325 -1.14718,-4.29325z" fill="#f89587" stroke="none" stroke-width="0"/></g><g stroke-linecap="butt"><g><path d="M272.61387,216.50919c-0.38169,-4.24942 2.28816,-9.11916 10.32121,-8.97883c-0.15877,-2.80155 -1.10039,-4.53535 -0.02803,-5.97074c0.6374,-0.85318 2.2624,-2.09251 4.02419,-2.89369c1.19173,-0.54195 2.05319,-0.99307 3.54557,-1.4043c-0.74573,-4.28221 -0.31401,-6.84946 0.50798,-8.29278c1.40998,-2.47573 1.62276,-5.73854 3.75468,-6.34472c6.13074,-1.74318 15.34461,3.99098 21.8655,8.95124c2.83231,2.15446 6.47034,7.45862 7.45979,9.16523c0.82488,1.42275 0.5419,4.47563 0.81213,7.48403c0.77209,8.59565 -2.33805,7.66507 -5.40829,8.25202c-2.44702,0.46782 -5.58531,-0.9813 -6.18317,0.02652c-1.23778,2.08661 -3.11978,7.62184 -5.75337,8.14799c-2.00742,0.40105 -4.67301,0.20894 -5.93983,0.48538c-2.34016,0.51066 -4.74858,5.8779 -4.93893,6.07009c-1.89094,1.90912 -4.80657,1.65367 -7.83552,1.18782c-10.13334,-1.55851 -15.47988,-7.82476 -16.2039,-15.88526z" fill="#fddfbd" stroke="#000000" stroke-width="3"/><path d="M278.79701,209.63378c0,0 -2.49466,4.46669 -1.13828,6.35144c1.47327,2.04719 4.342,4.01356 7.64687,4.88049c2.63479,2.99709 7.36281,6.518 6.83011,3.64993c-0.41806,-2.25079 -1.64116,-8.55987 -0.40032,-8.07111c0.58495,0.23041 2.28896,2.30266 2.28896,2.30266c0,0 3.66202,0.31412 4.582,0.48797c2.65174,0.50108 5.44371,-3.5585 5.34061,-3.79595c1.33013,-0.66511 -5.22358,-13.45244 -5.22358,-13.45244l6.69596,3.87431c0,0 4.81577,1.24289 6.8915,1.97357c3.17367,1.11715 5.64529,2.51155 7.17432,2.41942c2.27203,-0.1369 3.43913,-8.52313 3.43913,-8.52313c0,0 1.61526,12.45559 -0.04831,12.86551c-1.79907,0.44332 -6.49514,1.2234 -9.71485,0.60744c-2.40111,0.64745 -3.38121,7.61714 -6.17177,8.38065c-3.03837,0.83131 -2.63899,0.17452 -5.26855,0.51968c-0.41912,0.51387 -3.03645,1.7953 -3.53774,2.3781c-2.11494,2.4588 -2.69077,4.41183 -3.60076,4.51513c-9.90197,1.12401 -15.27342,-3.39806 -18.38039,-7.11707c-2.40107,-2.87404 -3.18229,-10.0676 -1.29135,-12.29187c1.32255,-1.55568 3.88645,-1.95474 3.88645,-1.95474z" fill="#f89587" stroke="none" stroke-width="0"/></g><path d="M280.11397,207.39445c0,0 1.25032,-1.40041 2.69262,-1.06921c0.95843,0.2201 0.83302,0.87375 1.05053,1.65808c5.46024,4.64548 9.39633,8.45972 10.0343,10.91751c-4.0629,-3.88303 -13.77745,-11.50638 -13.77745,-11.50638z" fill="#000000" stroke="none" stroke-width="0"/><path d="M290.81202,196.03331c0,0 10.9644,5.46034 14.8094,9.94887c-8.35941,-4.59571 -15.3108,-7.37702 -15.3108,-7.37702z" fill="#000000" stroke="none" stroke-width="0"/></g></g><path d="M123,297v-234h234v234z" data-paper-data="{&quot;index&quot;:null}" fill="none" stroke="none" stroke-width="0" stroke-linecap="butt"/><path d="M268.30822,243.46953c-1.54583,-1.62174 -1.4284,-3.69166 -0.83051,-4.98095c0.4597,-0.9913 1.29926,-1.4253 1.29926,-1.4253l4.6875,3.20312c0,0 -3.40409,4.61095 -5.15625,3.20312z" data-paper-data="{&quot;index&quot;:null}" fill="#db93e6" stroke="none" stroke-width="0" stroke-linecap="butt"/><g data-paper-data="{&quot;index&quot;:null}" stroke-linecap="butt"><path d="M282.37851,226.50473c0,0 0.21444,3.5336 -10.83751,6.42377c-16.82055,4.39872 -48.60991,8.81209 -59.32976,8.86278c-5.19,0.02454 -10.89042,-3.18829 -15.58483,-5.15318c-10.43016,-4.36563 -11.87493,-8.95964 -11.87493,-8.95964c0,0 -1.51195,-4.74878 -0.56824,-6.77796c0.7661,-1.64731 5.57365,-0.95952 5.57365,-0.95952c0,0 42.87624,-6.73214 69.79629,-7.81474c1.15901,-0.04661 1.77207,4.14977 2.84815,4.09553c5.95886,-4.66639 14.73005,-5.70512 14.90494,-5.56045c4.30827,3.56377 5.07225,15.84342 5.07225,15.84342z" fill="#0066cc" stroke="#000000" stroke-width="3"/><path d="M208.79919,218.05591c0,-1.76557 -1.46562,-8.47643 -1.46562,-8.47643c0,0 11.84099,-0.44268 26.15993,-0.44268c11.85251,0 20.65135,-3.56598 20.65135,-3.56598c0,0 5.80193,8.38828 6.21059,8.8688c0.92945,1.09288 0.58174,2.8186 0.58174,2.8186c0,0 -1.52839,4.65745 -2.55072,7.02606c-1.25105,2.89851 -5.04291,10.93596 -5.04291,10.93596c0,0 -0.76445,1.50157 -1.85599,0.35694c-1.98593,-2.08252 -5.05462,-7.73613 -6.57216,-10.39786c-0.92747,-0.079 -1.75927,-0.17971 -2.73366,-0.11405c-2.90784,0.19596 -6.03506,1.20075 -9.44412,1.27304c-4.26222,0.09039 -8.11641,0.09915 -11.42532,-0.52334c-7.75352,-1.45863 -12.51312,-4.84802 -12.51312,-7.75906z" fill="#0f1b82" stroke="none" stroke-width="0"/><path d="M239.37152,227.05938c0,0 4.5659,-3.65313 5.50158,-4.40271c1.08187,-0.86671 4.0959,-2.80323 4.0959,-2.80323c0,0 -1.04428,2.31847 -3.82905,5.57258c-2.98595,3.48921 -5.76844,1.63335 -5.76844,1.63335z" fill="#000000" stroke="none" stroke-width="0"/></g><g data-paper-data="{&quot;index&quot;:null}" stroke-linecap="butt"><g><path d="M264.68458,204.21495c0,0 -0.8174,11.07934 -18.8911,13.8254c-17.46434,2.65347 -27.38425,0.68447 -32.84347,-0.83281c-2.97856,-0.82783 -7.83613,-1.31876 -7.83613,-1.31876c0,0 -1.78781,-8.1627 -2.28459,-16.46093c-0.45959,-7.67698 0.37159,-15.39305 0.31171,-18.70493c-0.18486,-10.22313 3.95438,-8.06968 3.95438,-8.06968l31.62696,6.1971c0,0 -0.22738,2.91103 -1.0572,8.12968c8.47209,4.59982 26.79599,13.45746 27.01943,17.23494z" fill="#feebf7" stroke="#000000" stroke-width="3"/><path d="M243.06283,197.40872l0.49615,0.55918c0.05027,0.05598 0.09194,0.11938 0.12299,0.18826c0.48746,0.55136 0.96178,1.12672 1.42632,1.72508c3.85959,5.98382 0.51481,10.66029 -6.45639,11.29272c-7.80961,0.67962 -11.54107,-1.95779 -16.51506,-6.7629c-2.60511,-2.94712 -8.40153,-10.00231 -2.21297,-12.85292c0.74031,-0.341 2.15843,-0.44624 2.95179,-0.61651c3.42654,-0.64852 7.73967,-0.6034 10.99828,0.77588c1.27485,0.53961 2.64845,1.25985 3.84865,2.02221c0.2866,0.1687 0.65785,0.25636 0.9342,0.43665zM235.99111,197.14132c-0.60371,1.90102 -0.91039,4.1947 -1.42835,5.8676c-0.29573,0.85705 -1.51024,3.74778 -0.68627,4.47977c1.7787,1.58014 7.89835,-0.57916 8.52288,-2.65048c0,-3.71252 -3.10986,-5.97014 -6.40827,-7.6969zM230.8702,194.62374c-2.95021,-0.93565 -4.58591,-0.63612 -7.5297,0.26892c-0.59998,0.18446 -2.19105,0.33708 -2.31253,1.13875c-0.23506,1.55124 1.17791,3.43988 1.97971,4.67921c0.89749,1.39769 4.02903,5.16497 6.04455,4.96682c0.33586,-0.03302 0.83747,-1.09628 0.95355,-1.30737c0.88178,-1.60343 1.05925,-3.56714 1.59669,-5.29531c0.22935,-1.10788 0.56704,-2.14055 1.04077,-3.17312l0.14263,-0.3216c-0.68667,-0.32656 -1.33574,-0.64199 -1.91567,-0.9563z" fill="#ff0000" stroke="none" stroke-width="0.5"/></g><path d="M203.13577,190.06003c0,0 0.57557,-4.58653 1.97947,-5.90357c5.78022,-5.4226 7.49579,-3.05926 7.49579,-3.05926c0,0 -3.56227,26.79974 -5.47467,33.91916c-3.70673,0 -4.00058,-24.95633 -4.00058,-24.95633z" fill="#db93e6" stroke="none" stroke-width="0"/></g><g data-paper-data="{&quot;index&quot;:null}" stroke-linecap="butt"><path d="M190.56053,219.32068c-2.98831,-0.5637 -6.50984,-4.23745 -6.50984,-4.23745c0,0 -0.61173,0.07371 -0.80672,-1.63052c-0.14916,-1.30371 3.03247,-2.11273 3.88473,-4.13847c1.77397,-4.21654 1.99424,-9.93622 1.99424,-9.93622c0,0 -1.69637,-7.11375 3.49911,-8.47713c7.01828,-1.84171 11.45752,2.0694 11.45752,2.0694c0,0 2.99133,9.29464 2.99133,13.56931c0,4.96187 -1.56069,12.18725 -1.56069,12.18725c0,0 -10.92472,1.35309 -14.94968,0.59383z" fill="#fddfbd" stroke="#000000" stroke-width="2.35"/><path d="M189.51312,205.59729c0,0 0.48774,-2.61196 0.18282,-5.47067c-0.41236,-3.86587 0.25643,-8.78967 3.84896,-8.78967c3.75219,0 7.39564,-0.37083 9.73732,2.13835c1.45568,1.55979 1.70776,7.09631 1.70776,7.09631c0,0 -2.80779,2.2496 -8.71386,4.33464c-5.41486,1.91163 -6.763,0.69103 -6.763,0.69103z" fill="#f89587" stroke="none" stroke-width="0"/></g><g data-paper-data="{&quot;index&quot;:null}" stroke="none" stroke-width="0" stroke-linecap="butt"><path d="M187.06191,199.26123c-0.63937,-0.23224 -2.03524,-1.28055 -2.52029,-2.23472c-1.38732,-2.7291 3.94041,-7.49844 4.32183,-12.69605c0.39598,-5.39607 -2.82201,-11.43805 -1.70855,-13.88345c0.27144,-0.59612 2.80563,-1.7871 3.58453,-1.95345c8.41922,1.60199 20.93866,8.85358 20.93866,8.85358l-0.02046,5.51399c0,0 -11.92714,21.00177 -24.59571,16.40009z" fill="#feebf7"/><path d="M210.12887,186.00822c0,0 -3.13159,10.64845 -14.00027,13.92517c-4.54097,1.36901 -12.17147,-0.46636 -12.17147,-0.46636c-3.33774,-1.70235 -0.81357,-7.71834 1.72456,-12.77307c0.76826,-1.53001 1.90888,-3.07186 1.41,-6.58627c-0.59088,-4.16253 -3.41809,-11.00937 -3.41809,-11.00937c0,0 1.22088,-2.23828 2.47782,-0.89611c0.55215,0.58959 1.31018,4.11873 1.77581,5.03567c1.67567,3.2998 2.64441,9.32563 2.25355,10.81117c-0.58766,2.23355 -4.55891,11.6557 -4.55891,11.6557c0,0 -0.36708,1.00304 0.01819,1.57362c1.301,1.92679 5.87644,1.86279 8.32722,1.26816c5.90341,-1.43235 9.21264,-4.8016 11.80803,-7.64445c2.45331,-2.68721 4.35354,-4.89385 4.35354,-4.89385z" fill="#000000"/></g><path d="M192.12809,167.64744c0,0 2.91794,-1.09833 21.88538,2.52424c21.96657,4.19537 23.55906,10.6019 23.55906,10.6019l-1.84496,7.16932c0,0 -7.75454,-2.25848 -13.49117,-3.81235c-8.31173,-2.25137 -33.13442,-8.74269 -33.13442,-8.74269c0,0 -1.48114,-1.4794 -1.28996,-2.70409c0.18109,-1.15997 4.31606,-5.03633 4.31606,-5.03633z" data-paper-data="{&quot;index&quot;:null}" fill="#db93e6" stroke="none" stroke-width="0" stroke-linecap="butt"/><g data-paper-data="{&quot;index&quot;:null}" stroke-linecap="butt"><g><g><path d="M231.97038,247.90419c0,-5.45895 -0.62712,-16.21388 5.83127,-20.65535c1.60902,-1.10654 5.80378,-4.30962 9.44245,-0.91827c0.41405,0.3859 -0.71368,1.40808 0.03519,2.83725c0.27643,0.52755 2.10376,0.5826 2.57727,1.20315c1.49581,1.96029 4.68777,3.86602 5.36946,3.78753c2.17005,-5.22421 8.84805,-11.52988 11.06296,-12.01339c3.98019,-0.86887 19.0807,2.49102 18.91965,5.4359c0.48728,2.39589 -3.30996,6.34213 -3.30996,6.34213c0,0 15.88717,8.66029 21.83744,12.10696c10.24591,5.9349 10.43967,10.66036 10.43967,10.66036c0,0 0.61961,2.36098 -3.5819,3.553c-8.23577,2.33659 -18.45143,3.01635 -30.43715,2.69876c-11.64524,-0.30856 -11.28459,-6.26411 -23.50469,-7.57462c-10.3037,-1.10501 -24.68167,1.60204 -24.68167,-7.4634z" fill="#ff2d32" stroke="#000000" stroke-width="3"/><path d="M295.23524,261.38578c0,0 -11.31255,1.18579 -17.01115,0.38346c-5.7501,-0.80958 -13.60444,-6.56322 -19.18169,-7.34434c-11.80315,-1.65309 -19.15088,0.32377 -22.1872,-1.67796c-0.1953,-0.12875 -4.80809,-1.81802 -4.20323,-7.3491c1.45403,-13.29642 7.47042,-15.32038 7.47042,-15.32038c0,0 6.95749,7.6175 15.11055,8.57684c1.59674,0.18788 0.49215,-2.54236 0.49215,-2.54236c0,0 -0.23258,-1.31284 0.14588,-2.18711c0.56676,-1.30929 2.92417,-4.90504 2.92417,-4.90504c0,0 0.7647,1.96628 2.91186,4.27672c2.59194,2.78903 7.54925,5.48273 12.68116,8.90977c5.70497,3.80972 15.27544,7.13368 17.5662,9.21697c2.49476,2.2688 3.28088,9.96251 3.28088,9.96251z" fill="#ab164a" stroke="none" stroke-width="0"/><path d="M241.36555,233.58292c0,1.3777 -0.69499,1.87092 -2.12112,1.87092c-1.42613,0 -2.12112,-0.40412 -2.12112,-1.78183c0,-1.3777 0.87944,-1.87092 2.30557,-1.87092c1.42613,0 1.93668,0.40412 1.93668,1.78183z" fill="#000000" stroke="none" stroke-width="0"/><path d="M257.87343,236.16658c3.25229,1.74077 5.34892,2.76183 5.34892,2.76183c0,0 -0.54672,1.17168 -5.81003,0.08909c-5.47861,-1.12687 -4.70336,-5.1673 -4.70336,-5.1673c0,0 1.16968,0.17818 5.16447,2.31638z" fill="#000000" stroke="none" stroke-width="0"/></g><g><path d="M266.39542,245.8268c-1.66533,-1.14962 -2.00006,-3.51255 -1.64683,-4.94237c0.83804,-3.39234 3.71215,-5.42307 5.54855,-5.89423c7.7817,-1.99652 13.89731,-1.03092 13.7536,0.56539c-0.25897,2.87649 -5.9041,3.10956 -9.51681,5.61672c-1.82742,1.26821 -2.37628,2.64715 -3.46454,3.7066c-1.03893,1.01142 -2.80777,2.23621 -4.67398,0.9479z" fill="#feebf7" stroke="#000000" stroke-width="2.5"/><path d="M265.51453,241.79411c0,-2.13114 1.87039,-3.12377 1.87039,-3.12377c0,0 0.85425,0.12931 2.36982,0.86524c1.98779,0.96523 2.67073,2.01353 2.67073,2.01353c0,0 -0.74169,0.78673 -1.4564,1.60351c-0.92047,1.05192 -1.26579,2.43902 -2.37948,2.43902c-1.97844,0 -3.07505,-1.66638 -3.07505,-3.79752z" fill="#db93e6" stroke="none" stroke-width="0"/></g><g><path d="M274.31181,249.80437c-0.55619,-0.6563 0.66434,-4.85174 3.80392,-7.87152c7.45918,-7.17455 11.06401,-7.0433 12.4704,-4.67447c1.27251,2.14332 -4.26134,5.02043 -8.1412,8.80767c-3.46326,3.38057 -7.02086,5.0508 -8.13312,3.73831z" fill="#feebf7" stroke="#000000" stroke-width="2.5"/><path d="M279.72608,247.23674c0,0 -2.92641,2.63091 -4.14742,2.22143c-0.75451,-0.25303 -0.19774,-3.3675 0.1236,-3.8816c0.85966,-1.37536 2.17533,-1.82029 2.17533,-1.82029l3.47905,1.66967c0,0 -0.94471,1.25737 -1.63056,1.8108z" fill="#db93e6" stroke="none" stroke-width="0"/></g><g><path d="M282.25391,253.6136c-2.814,-1.49662 9.47024,-16.84028 13.84896,-13.50429c2.96775,2.26102 -2.8171,3.32177 -6.33866,7.43569c-3.10998,3.63311 -4.13057,7.86613 -7.51031,6.06861z" fill="#ffffff" stroke="#000000" stroke-width="2.5"/><path d="M282.49545,252.24763c0,-1.70829 3.35559,-4.56401 3.35559,-4.56401l1.00232,1.66891c0,0 -1.17182,2.94285 -2.42437,3.89916c-1.04221,0.79572 -1.93353,0.02011 -1.93353,-1.00406z" fill="#db93e6" stroke="none" stroke-width="0"/></g></g><g><path d="M263.24356,265.43621c-10.89972,-1.11222 -29.46558,-1.56118 -32.79829,-4.79851c-3.04877,-2.96151 -4.26516,-11.84488 0.24513,-12.46902c0.98883,5.91925 6.51447,6.41777 10.84499,6.5198c5.24119,0.12349 12.46025,0.00415 18.19081,1.08684c10.14856,1.9174 15.62589,7.27106 23.3694,7.27106c13.31137,0 22.32879,-1.5181 27.37457,-3.17788c2.73992,-0.90128 3.6165,-2.29017 4.95919,-2.47929c1.75756,-0.24756 3.66284,3.83941 3.66284,3.83941c0,0 0.01922,4.08286 -4.46461,6.80381c-4.69314,2.84797 -14.22575,4.33981 -29.56854,4.33981c-6.18001,0 -14.41268,-6.18064 -21.81549,-6.93603z" fill="#ffffff" stroke="#000000" stroke-width="3"/><path d="M230.40967,248.03013c0,0 -0.38706,1.60641 1.36408,3.71944c1.14074,1.3765 2.93006,3.03599 7.50097,4.09533c4.0132,0.93009 17.86128,0.13993 21.15839,1.01272c4.56157,1.20751 7.62703,2.99034 11.31581,4.5592c1.44218,0.61338 2.97965,1.48365 4.73906,1.83908c7.16036,1.44649 9.91883,1.08081 12.91491,0.94357c4.46299,-0.20444 7.15262,-0.73545 7.15262,-0.73545c0,0 0.98158,1.74581 0.44787,3.67367c-0.53371,1.92786 -2.02398,3.20866 -2.02398,3.20866c0,0 -4.52,2.48064 -12.8774,0.16917c-4.73994,-1.31096 -5.81614,-1.63102 -14.84148,-5.5209c-4.67056,-2.01299 -27.63841,-2.26999 -31.85178,-3.94502c-1.24348,-0.49435 -3.25812,-0.5762 -3.99758,-0.9653c-2.50294,-1.31701 -1.49768,-2.57932 -2.09107,-4.50019c-1.10902,-3.59 1.08957,-7.55395 1.08957,-7.55395z" fill="#db93e6" stroke="none" stroke-width="0"/></g></g><g data-paper-data="{&quot;index&quot;:null}" stroke-linecap="butt"><path d="M163.6413,247.63991c2.68298,-2.94424 10.67526,-7.52076 17.06991,-9.06806c-4.44375,-2.49748 -10.72284,-4.27399 -10.87611,-6.10755c-0.48081,-5.75187 1.15415,-6.1382 3.23613,-7.60049c1.73462,-1.21832 15.93464,6.45879 15.93464,6.45879c0,0 1.00632,-4.87655 5.52058,-5.94466c3.87281,-0.91635 12.1821,1.80736 17.49424,3.3098c3.50969,0.99264 7.25329,2.60025 8.62111,5.3884c0.85453,1.74185 -0.84122,5.89774 0.73247,4.71268c3.99295,-3.00685 13.68605,-3.02499 16.36522,-0.93183c2.3452,1.83224 3.53155,6.83899 2.61023,9.111c-0.38926,0.95995 -12.19211,0.17565 -11.97453,1.17873c0.4314,1.98877 -3.0833,4.55618 -2.77313,6.1859c0.81993,4.30832 2.33746,6.7103 2.33746,6.7103c0,0 1.6203,6.3002 -1.89849,9.17181c-4.52181,3.69015 -15.58666,4.15915 -28.90796,4.15915c-23.68768,0 -43.8128,-15.40799 -33.49176,-26.73399z" fill="#ff2d32" stroke="#000000" stroke-width="2.5"/><path d="M223.62724,245.25795c0,0 1.53503,-2.3492 6.65733,-3.30752c4.58344,-0.8575 8.55942,-0.735 8.55942,-0.735c0,0 0.38466,1.84824 0.67205,2.74815c0.32164,1.00717 -0.3252,2.62507 -0.3252,2.62507c0,0 -3.7597,0.45885 -8.84292,0.13406c-1.75808,-0.11233 -2.55423,0.39776 -3.41308,0.39659c-1.15807,-0.00158 -2.33488,-0.49902 -2.9085,-1.02293c-0.42011,-0.38371 -0.39909,-0.83841 -0.39909,-0.83841z" fill="#ab164a" stroke="none" stroke-width="0"/><path d="M185.20497,235.15164c0,0 3.13041,-0.09021 4.50116,-1.73668c-0.22955,-3.12102 2.6034,-6.27468 4.81174,-6.8713c3.72741,-1.00703 13.60732,2.23794 13.60732,2.23794c0,0 0.45236,4.11097 0.68575,6.01805c0.26882,2.19651 0.3604,6.72203 0.3604,6.72203c0,0 -15.56438,0.37831 -19.08887,0.31492c-1.14466,-0.02059 -3.94981,0.80369 -3.94981,0.80369c0,0 -2.06133,-2.76784 -4.18497,-4.39017c-1.73875,-1.32829 -5.21243,-2.18797 -5.22269,-2.66859c-0.00436,-0.20425 -4.1587,-1.30873 -5.70549,-2.9676c-1.4983,-1.60686 -0.10676,-4.73516 0.75876,-4.64557c2.06269,0.21352 13.4267,7.18329 13.4267,7.18329z" fill="#ab164a" stroke="none" stroke-width="0"/><path d="M175.01519,235.20959c0,0 -1.99095,-1.28285 -2.92324,-2.39519c-0.90357,-1.07808 -0.75776,-1.98537 -0.24692,-2.06734c2.90202,-0.46566 4.73743,2.22105 5.45718,3.85932c0.25868,0.5888 0.38496,1.78447 0.38496,1.78447c0,0 -1.28025,-1.18125 -2.67199,-1.18125z" fill="#000000" stroke="none" stroke-width="0"/><path d="M231.21752,244.44091c0.09057,-0.85228 0.83931,-0.74376 3.21544,-0.74376c3.01015,0 3.7589,0.24149 3.7589,2.40626c0,1.59271 -2.32935,0.5132 -4.24293,-0.07368c-1.61019,-0.49382 -2.87311,-0.25564 -2.73142,-1.58883z" fill="#000000" stroke="none" stroke-width="0"/><path d="M165.29641,248.25922c0,0 0.17072,4.64923 0.6145,6.10541c0.41628,1.36592 1.97096,3.97077 1.97096,3.97077c0,0 0.88673,-1.43079 1.7937,-2.55928c0.41689,-0.51871 0.33799,-1.1668 1.07034,-1.23835c4.88038,-0.47682 15.34783,2.20696 23.84273,3.09276c25.84557,2.69501 29.79946,12.67882 29.79946,12.67882c0,0 -6.49001,4.47128 -30.5603,3.24627c-7.45131,-0.37921 -15.91827,-1.58188 -22.10037,-4.58573c-5.94468,-2.88848 -8.33495,-5.17483 -10.45052,-11.26962c-1.17095,-3.37342 1.02224,-7.02488 2.58948,-8.68659c0.66812,-0.70839 1.43,-0.75446 1.43,-0.75446z" fill="#ab164a" stroke="none" stroke-width="0"/><g><path d="M153.90395,253.09636c-0.06745,-0.5301 7.46831,-4.33196 7.46831,-4.33196c0,0 -2.05878,4.92125 0.2326,10.25952c2.63396,6.13641 10.71582,12.90673 29.27313,14.76861c10.30403,1.03383 29.58571,0.52999 35.92001,-4.79423c1.93997,-1.63063 3.15881,-4.78387 2.36228,-7.26983c-1.00164,-3.12617 -2.39035,-4.98119 -0.90309,-5.32481c2.31693,-0.5353 4.93403,5.4666 4.93403,8.81383c0,3.9587 -1.09387,7.11822 -4.04624,9.94998c-6.58133,6.31246 -19.61125,7.65144 -35.99782,7.65144c-14.60549,0 -38.58095,-13.89332 -39.14181,-15.39813c-0.18119,-0.48616 0.51972,-9.44329 -0.10137,-14.3244z" fill="#ffffff" stroke="#000000" stroke-width="2.5"/><path d="M155.50573,255.7398c0,0 6.52318,20.22177 32.43569,23.21066c40.24548,4.64213 43.51456,-8.89742 43.51456,-8.89742c0,0 -0.9934,3.35794 -6.53352,6.77165c-5.19551,3.20137 -14.32344,7.05061 -35.90651,4.55c-10.50283,-1.21684 -19.34742,-5.49208 -25.08358,-8.89893c-5.47501,-3.25176 -8.88949,-5.70105 -8.88949,-5.70105l0.46286,-11.0349z" fill="#db93e6" stroke="none" stroke-width="0"/></g><g><g><path d="M181.93047,244.58851c-0.02652,-0.52117 5.88641,-4.9217 16.69148,-4.56525c17.47491,0.57647 22.40676,10.81589 21.8632,12.05941c-1.09401,2.50278 -8.96325,-5.52305 -22.7583,-6.676c-10.77113,-0.90023 -15.72195,0.64556 -15.79639,-0.81818z" fill="#ffffff" stroke="#000000" stroke-width="2"/><path d="M187.35945,244.03052l-1.27944,-1.34511c0,0 4.95857,-2.27109 7.72655,-2.23873c8.88562,0.10389 13.04625,1.85443 13.04625,1.85443l-2.4864,3.36276z" fill="#db93e6" stroke="none" stroke-width="0"/></g><g><path d="M176.50529,249.8042c-0.208,-0.27748 -0.58994,-1.7712 2.9892,-2.81667c3.02127,-0.88252 9.52254,-1.36276 14.66422,-1.36276c11.23276,0 24.50177,6.96108 23.62076,10.71282c-0.49727,2.11765 -10.69724,-3.8912 -21.93001,-3.8912c-11.23277,0 -18.72791,-1.82006 -19.34417,-2.64217z" fill="#ffffff" stroke="#000000" stroke-width="2"/><path d="M194.4583,251.3554c-1.21013,-0.03828 -2.83235,0.21815 -2.83235,0.21815l-2.56226,-4.97006c0,0 5.20349,-0.32555 7.51129,0.01204c4.50769,0.6594 5.73488,1.07903 5.73488,1.07903l-2.94322,3.94412c0,0 -3.68176,-0.24448 -4.90834,-0.28328z" fill="#db93e6" stroke="none" stroke-width="0"/></g><path d="M172.62649,254.17581c0,-0.66614 0.29871,-2.8309 3.40848,-3.00246c3.83355,-0.21149 10.96479,1.08089 17.92481,1.08089c6.84533,0 13.87557,1.87842 17.87152,3.9039c3.36276,1.70453 4.25741,3.45712 4.25741,4.83929c0,3.02458 -12.00937,-4.61179 -24.61533,-4.61179c-12.60596,0 -18.84688,-0.04994 -18.84688,-2.20982z" fill="#ffffff" stroke="#000000" stroke-width="2"/></g></g><g data-paper-data="{&quot;index&quot;:null}" stroke="none" stroke-width="0" stroke-linecap="butt"><path d="M178.94663,223.98152c0,-4.8458 2.5586,-7.65398 5.66085,-7.64161c1.73551,0.00692 2.7497,2.69726 5.73925,2.04842c3.63874,-0.78974 6.53383,-5.76774 9.7146,-5.97315c3.52909,-0.22791 8.61103,7.00818 8.61103,7.00818c0,0 -1.27393,7.09884 -3.34729,12.91902c-2.18062,6.12123 -5.35095,10.85925 -8.21272,10.61251c-3.06548,-0.26431 -18.16573,-8.11706 -18.16573,-18.97337z" fill="#0066cc"/><path d="M206.63646,227.27282c0,0 -1.37642,3.57553 -1.94666,5.51138c-1.25482,4.25987 -4.25921,10.09948 -7.93133,9.94278c-2.12486,-0.09067 -6.05332,-2.68783 -10.43177,-6.97176c-2.94706,-2.88344 -6.87681,-6.55332 -7.66019,-10.65344c-0.20074,-1.05064 1.69562,-2.47043 1.69562,-3.57028c8.49308,7.83124 12.85748,14.5351 14.27308,14.24427z" fill="#0f1b82"/><path d="M209.85195,220.73385c0,0 -6.91996,-7.3692 -9.08286,-7.86284c-0.44924,-0.10252 -7.07264,5.02391 -10.09964,6.2412c-0.53156,0.21376 -2.05005,0.2824 -3.28747,-0.25878c-1.06041,-0.46377 -1.78907,-1.4662 -2.92553,-2.18568c-0.80238,0.33016 -5.42458,7.64123 -5.42458,7.64123c0,0 10.30043,17.43763 17.26981,17.88964c1.79333,0.11631 4.53107,-1.97608 6.1703,-5.20297c1.2485,-2.45775 2.32579,-5.79171 3.30886,-8.06797c0.89775,-2.07868 1.75853,-3.21503 1.75853,-3.21503c0,0 -0.72714,4.18817 -1.97327,8.60244c-1.37618,4.875 -5.28928,10.58836 -9.7067,9.6889c-1.03111,-0.20995 -4.86426,-1.81081 -7.52272,-4.30386c-5.68339,-5.32978 -11.47311,-13.92349 -11.54665,-15.99849c-0.03791,-1.06973 1.95398,-3.36515 2.82586,-4.57981c1.17403,-1.63559 2.50045,-3.78361 5.25396,-4.37364c1.4614,-0.31315 3.41586,2.43043 4.87483,2.03737c4.60586,-1.24089 9.09401,-6.99133 11.73218,-6.64946c2.63816,0.34185 8.3751,10.59773 8.3751,10.59773z" fill="#000000"/></g><g data-paper-data="{&quot;index&quot;:null}" stroke-linecap="butt"><g data-paper-data="{&quot;index&quot;:null}"><path d="M280.11,183.57261c-1.84571,6.81269 -15.8813,7.73621 -45.43591,4.33732c-14.44304,-1.661 -32.24382,-9.74624 -40.62006,-15.7899c-5.49532,-3.96499 6.72217,-36.99561 12.88306,-39.81751c16.18077,-7.41137 47.89586,-9.47596 61.4931,1.65175c8.33149,6.81833 3.14861,28.14591 3.14861,28.14591c0,0 -3.28741,4.85623 -5.4204,12.60516c4.05469,0.87783 15.36849,3.63742 13.95161,8.86727z" fill="#fddfbd" stroke="#000000" stroke-width="3"/><path d="M265.84033,169.09392c0,0 -21.023,-12.72928 -24.74976,-12.6951c-0.73244,1.13157 -3.39869,15.04725 -3.86239,14.77407c-11.58347,-6.82419 -15.00292,-9.99084 -15.00292,-9.99084l-13.27567,17.61273c0,0 -5.34645,-7.22342 -7.64945,-10.77391c0.21668,-2.22383 -2.70704,5.64655 -2.70704,5.64655l-3.98029,-2.70644c0,0 -0.53521,-1.49964 -0.35753,-2.75942c0.84249,-5.97317 4.75054,-22.88345 14.92572,-28.89059c11.85692,-6.99999 64.87582,4.04323 64.87582,4.04323c0,0 -2.372,13.04291 -3.88402,17.77958c-1.77259,3.14428 -3.84698,8.41972 -3.84698,8.41972z" fill="#f89587" stroke="none" stroke-width="0"/></g><g><g><path d="M171.6993,157.31757c0,0 -7.92608,3.8791 -15.32943,5.8458c-5.13144,1.36316 -9.94011,1.18459 -11.98025,0.73229c-4.98355,-1.10487 -5.30711,-11.66892 -1.96802,-13.06905c1.96046,-0.82205 6.29769,-0.91334 10.02353,-0.79353c9.29301,0.29881 20.1483,2.52789 20.1483,2.52789l-0.89411,4.75657z" fill="#0066cc" stroke="#000000" stroke-width="3"/><path d="M141.80655,158.25021c0,0 2.49465,0.38983 11.4439,-0.03402c7.59915,-0.35992 11.05774,-2.19114 13.29018,-3.13541c2.01721,-0.85323 2.75967,-1.37453 2.75967,-1.37453l0.33232,2.96622c0,0 -10.02604,5.02288 -17.06618,5.87168c-4.13855,0.49895 -8.33876,-0.06105 -8.33876,-0.06105c0,0 -1.4065,-1.2572 -1.72429,-1.90705c-0.33654,-0.68821 -0.69684,-2.32585 -0.69684,-2.32585z" fill="#0f1b82" stroke="none" stroke-width="0"/></g><g stroke="#000000"><path d="M278.36073,145.72584c0,0 -56.35405,3.38942 -66.06581,5.75579c-12.67195,3.08765 -24.63207,5.63658 -24.63207,5.63658c0,0 -12.0283,-5.24281 -14.99725,-17.87617c-0.90892,-3.8676 9.56289,-23.3151 11.04139,-25.56595c4.47454,-6.81198 7.23388,-16.60726 18.80944,-20.18334c31.00707,-9.57914 69.54177,1.45009 76.78468,8.184c6.36717,5.91971 -0.16026,23.27525 -0.16026,23.27525z" fill="#ff2d32" stroke-width="3"/><path d="M185.34589,156.35686c0,0 -12.12814,-11.7728 -12.00726,-19.32169c0.12284,-7.67137 22.71087,-41.3515 26.48825,-40.95077c12.81883,1.35991 13.48591,54.9652 13.48591,54.9652l-27.9669,5.30725z" fill="#ab164a" stroke-width="1.5"/></g></g><g><path d="M170.26355,143.16777c0.66719,-0.84119 9.594,6.4777 13.98883,13.44317c2.52545,4.00263 1.13238,8.79776 0.74217,11.81739c-0.299,2.3138 -4.75284,5.24888 -7.80178,5.46917c-4.89855,0.35392 -9.21292,-27.85038 -6.92922,-30.72974z" fill="#fddfbd" stroke="#000000" stroke-width="3"/><path d="M173.82774,165.28045c0,0 1.06033,0.43967 2.98988,-0.11221c2.44054,-0.69805 7.82532,-3.87603 7.82532,-3.87603c0,0 1.09839,3.91757 0.97035,5.0309c-0.17479,1.51984 -3.85246,4.39344 -6.72298,5.63289c-1.56439,0.67548 -2.58004,0.11196 -2.76024,0.14531c-0.49275,0.0912 -2.30231,-6.82086 -2.30231,-6.82086z" fill="#f89587" stroke="none" stroke-width="0"/><path d="M183.99628,161.04476c-0.68884,1.59803 -3.69798,9.01628 -5.65899,6.78106c-0.8009,-0.91288 -2.13646,-9.59346 -1.76056,-12.38475c0.07942,-0.58971 7.95326,4.36555 7.41955,5.60369z" fill="#f89587" stroke="#000000" stroke-width="1.5"/></g><g><g data-paper-data="{&quot;index&quot;:null}"><path d="M209.99061,167.19578c-1.79249,1.87727 -5.07169,-6.81591 -5.73362,-6.41133c-0.43505,0.26592 -5.26801,2.78109 -9.24755,5.82564c-4.04497,3.09461 -7.37831,7.29522 -7.5046,6.98717c-0.0687,-0.16759 -2.02086,-14.83994 -0.69324,-15.90539c7.33024,-5.88267 34.8397,-7.4894 34.8397,-7.4894c0,0 -9.35703,14.58068 -11.6607,16.99331z" fill="#50a5eb" stroke="#000000" stroke-width="3"/><path d="M210.78882,155.95575l8.0523,-4.26098l-9.63033,14.6333z" fill="#66ffff" stroke="none" stroke-width="0"/></g><g data-paper-data="{&quot;index&quot;:null}"><path d="M295.0758,177.52258c0,0 -15.82177,-9.62761 -23.78411,-12.89079c-0.83994,-0.34424 2.45656,-2.54385 1.13653,-3.21458c-7.28847,-3.7034 -23.60277,-9.16587 -31.41641,-11.8362c-0.61437,-0.20997 -2.12271,-0.70753 -2.54797,-0.29714c-2.21905,2.1415 -1.13744,10.77159 -3.17814,10.56019c-2.20705,-0.22862 -4.27717,-1.82184 -6.14812,-4.13822c-2.92623,-3.6229 -5.29008,-7.40775 -5.29008,-7.40775c0,0 8.21558,-9.39055 19.58354,-44.17167c2.9446,1.99182 8.83222,9.69468 9.88549,15.11954c0.9568,4.92808 -0.51908,8.74867 0.21448,8.1593c7.28517,-5.85319 20.28331,-9.92876 25.09192,-10.07101c8.36113,-0.24733 26.52177,38.3361 26.52177,38.3361c0,0 -13.86228,-3.61605 -22.41296,-3.23859c5.69518,4.24415 12.25184,21.08472 12.34408,25.09083z" fill="#66ffff" stroke="#000000" stroke-width="3"/><path d="M265.51935,142.30561c0,0 7.33909,8.53946 10.99095,13.19989c4.30515,5.49414 14.0333,17.42953 14.0333,17.42953l-17.4417,-9.04288c0,0 2.37551,-1.39178 0.21474,-3.55335c-1.42048,-1.42101 -4.74183,-2.32049 -9.61665,-4.17511c-3.69879,-1.40721 -19.97229,-7.0949 -24.68992,-8.5343c-0.78626,-0.2399 -1.59081,0.90827 -1.59081,0.90827c0,0 -1.40438,2.01197 -1.72586,3.34188c-0.46803,1.93613 -0.73006,6.44585 -0.73006,6.44585c0,0 -2.7658,-1.18152 -4.0318,-2.44357c-1.78872,-1.78314 -5.68518,-7.24312 -5.68518,-7.24312c0,0 1.84448,-2.91833 4.39711,-7.04767c4.72429,-7.64241 11.05594,-23.25848 14.22463,-35.30253c0.60623,1.62124 3.31585,29.77425 3.31585,29.77425c0,0 9.2274,-2.84605 17.37727,-4.95615c5.30127,-1.37256 10.67009,-2.47722 10.95599,-2.13583c7.07321,4.02877 18.27202,20.7202 18.27202,20.7202c0,0 -17.65658,-5.05599 -22.5905,-6.34494c-2.31658,-0.60519 -5.6794,-1.04042 -5.6794,-1.04042z" fill="#50a5eb" stroke="none" stroke-width="0"/></g></g></g><g data-paper-data="{&quot;index&quot;:null}" stroke="none" stroke-width="0" stroke-linecap="butt"><g fill="#000000"><path d="M194.21516,118.88759c0,0 3.92613,0.76656 10.90965,7.25566c4.63801,4.30966 9.5556,10.08943 15.18979,16.44894c6.83142,7.71088 14.35557,16.16712 19.08104,22.51556c1.71634,-0.41406 3.14133,-1.69973 5.64142,-3.60688c5.33235,-4.06769 12.71743,-10.84305 18.29691,-17.17829c6.75544,-7.6705 12.00988,-14.87593 12.00988,-14.87593c0,0 -0.60867,3.38208 -3.47829,7.99983c-7.30102,11.74872 -28.9432,31.35615 -32.49913,31.11325c-0.84429,-0.05767 -9.01826,-9.88548 -17.82647,-19.69219c-6.03583,-6.72004 -12.3069,-14.17764 -17.42387,-19.77014c-5.68322,-6.21139 -9.90094,-10.20979 -9.90094,-10.20979z" data-paper-data="{&quot;index&quot;:null}"/><path d="M221.3942,148.83854c-0.22691,0.1373 2.76985,0.94236 2.76985,0.94236c0,0 5.28993,5.02719 6.98429,7.3878c1.12218,1.56343 2.19277,5.39787 2.19277,5.39787c0,0 -1.35184,10.9586 -6.576,10.31245c-2.56781,-0.3176 -2.37283,-2.87239 -2.56681,-7.37368c-0.17504,-4.06184 -1.20535,-13.08903 -2.80409,-16.6668z" data-paper-data="{&quot;index&quot;:null}"/><path d="M254.36937,170.47531c-1.53047,3.29677 -3.41618,5.52608 -5.15776,5.4949c-0.84136,-0.09886 -1.50758,-0.40208 -1.8123,-1.28502c-1.1188,-3.24178 0.86666,-10.5875 0.86666,-10.5875l0.37057,-5.12472c0,0 7.56027,-6.18179 8.99576,-5.74899c0.53391,0.16097 -0.29954,7.15433 -0.42894,8.20055c-0.4161,3.36425 -1.74845,6.71243 -2.83399,9.05078z" data-paper-data="{&quot;index&quot;:null}"/></g><g><path d="M245.71994,179.79814c0,0 -5.31674,2.11894 -11.33683,1.72597c-2.396,-0.15639 -16.82437,-1.87207 -21.77387,-3.82676c-2.88221,-1.13827 -3.45938,-9.07596 -3.77796,-10.53971c-0.16199,-0.74435 4.67025,-0.60365 8.46803,0.77579c0.98219,0.35676 2.87356,0.55274 3.66762,1.14989c0.37633,0.28298 0.56486,1.05617 0.12824,1.27045c-0.80809,0.3966 -2.78098,0.13096 -2.78098,0.13096c0,0 0.69426,1.38849 1.37897,2.0457c2.4274,2.32987 5.10503,4.05179 6.98107,5.28164c5.01735,3.28917 19.04572,1.98606 19.04572,1.98606z" fill="#000000"/><path d="M218.14703,177.13004c0,0 -2.91362,-0.78477 -3.77359,-1.49868c-0.68331,-0.56725 -1.39225,-2.12474 -1.39225,-2.12474c-0.53698,-1.78239 -1.64634,-4.73975 -1.64634,-4.73975c0,0 2.50344,0.489 3.45042,0.60612c0.49419,0.86082 -0.78537,0.78306 0.63298,2.6861c2.69824,3.38409 6.4074,5.42529 6.4074,5.42529c0,0 -2.374,-0.09754 -3.67863,-0.35435z" fill="#ffffff"/></g></g></g></g></svg>