<svg version="1.1" xmlns="http://www.w3.org/2000/svg" xmlns:xlink="http://www.w3.org/1999/xlink" width="173" height="208" viewBox="0,0,173,208"><defs><radialGradient cx="258.64952" cy="145.83488" r="45.00377" gradientUnits="userSpaceOnUse" id="color-1"><stop offset="0" stop-color="#8f8256"/><stop offset="1" stop-color="#8d681f"/></radialGradient><radialGradient cx="258.66589" cy="152.41943" r="19.16826" gradientUnits="userSpaceOnUse" id="color-2"><stop offset="0" stop-color="#0c0b0b"/><stop offset="1" stop-color="#533907"/></radialGradient><radialGradient cx="287.62706" cy="147.67656" r="16.02274" gradientUnits="userSpaceOnUse" id="color-3"><stop offset="0" stop-color="#36270c"/><stop offset="1" stop-color="#0c0b0b"/></radialGradient><radialGradient cx="229.82882" cy="146.19341" r="16.02274" gradientUnits="userSpaceOnUse" id="color-4"><stop offset="0" stop-color="#36270c"/><stop offset="1" stop-color="#0c0b0b"/></radialGradient></defs><g transform="translate(-153.5,-76)"><g data-paper-data="{&quot;isPaintingLayer&quot;:true}" fill-rule="nonzero" stroke-linejoin="miter" stroke-miterlimit="10" stroke-dasharray="" stroke-dashoffset="0" style="mix-blend-mode: normal"><path d="M153.5,284v-208h173v208z" fill="none" stroke="none" stroke-width="0" stroke-linecap="butt"/><path d="M229.32426,227.25914c0,0 -1.35908,-4.82555 0.34969,-5.22029c5.04226,-1.16484 9.48139,-4.00498 14.60156,-3.46956c2.12619,0.22235 4.01373,4.30868 4.01373,4.30868l13.43377,31.99289c0,0 1.4344,3.28575 2.18548,5.20205c0.80307,2.04887 0.47495,5.50092 -1.81867,6.15771c-8.42135,2.41147 -13.22369,5.33149 -18.85234,5.60856c-2.0506,0.10094 -4.23066,0.08427 -5.45862,-1.3998c-1.60402,-1.93856 -2.02558,-6.59495 -2.02558,-6.59495z" fill="#000000" stroke="#000000" stroke-width="3" stroke-linecap="round"/><path d="M227.27804,262.66591c0,0 0.26281,4.66443 -1.04214,6.8149c-0.99894,1.64628 -3.1549,1.98106 -5.19984,2.18065c-5.61309,0.54786 -10.79415,-1.63744 -19.48391,-2.79176c-2.36669,-0.31438 -3.19578,-3.67892 -2.70001,-5.82146c0.46373,-2.00394 1.40389,-5.46137 1.40389,-5.46137l8.62698,-33.58667c0,0 1.27193,-4.31499 3.34447,-4.8452c4.99101,-1.27679 9.80082,0.88263 14.96302,1.29793c1.74941,0.14073 1.10871,5.10929 1.10871,5.10929z" fill="#000000" stroke="#000000" stroke-width="3" stroke-linecap="round"/><g data-paper-data="{&quot;index&quot;:null}"><g data-paper-data="{&quot;index&quot;:null}"><path d="M210.6013,171.11847c-0.48922,-3.43003 12.74305,-15.51262 15.28605,-15.43731c2.76386,0.08185 11.97905,13.37052 11.97905,13.37052l-2.43005,2.99711l15.70504,-20.11323c0,0 5.06475,-7.21308 6.87634,-5.52625c0,0 11.75099,3.55136 23.84449,20.10892c-2.57475,4.93464 -12.4297,13.55199 -12.4297,13.55199c0,0 -20.97311,20.12242 -26.0537,19.00168c-5.08053,-1.12069 -32.31843,-24.73476 -32.7775,-27.95347z" fill="#68330c" stroke="none" stroke-width="3" stroke-linecap="round"/><path d="M251.18829,151.60335c0,0 5.88766,-6.46566 7.64551,-4.78179c0,0 11.50815,3.65304 23.16723,20.10438c-1.40276,2.59677 -4.90015,6.21661 -7.8275,9.00293c-0.3948,-0.37406 -0.76055,-0.70559 -1.06367,-0.97654c-6.7188,-6.00555 -16.66211,-13.61536 -23.72254,-20.39447c-0.06996,-0.06719 1.801,-2.95453 1.801,-2.95453z" fill="#ffddb7" stroke="#000000" stroke-width="2" stroke-linecap="butt"/><path d="M250.58379,153.83784l23.91434,21.54732l-2.75101,2.62747l-23.8526,-21.10247z" data-paper-data="{&quot;index&quot;:null}" fill="#ffffff" stroke="#000000" stroke-width="2" stroke-linecap="round"/><path d="M210.85819,171.07711c-0.48921,-3.43001 12.74304,-15.5126 15.28605,-15.43729c2.76384,0.08185 11.97903,13.37051 11.97903,13.37051l-2.43005,2.99713l15.70503,-20.11324c0,0 5.06474,-7.2131 6.87632,-5.52628c0,0 11.75099,3.55136 23.84449,20.10892c-2.57476,4.93464 -12.42968,13.55201 -12.42968,13.55201c0,0 -20.9731,20.12241 -26.0537,19.00167c-5.08052,-1.12069 -32.31843,-24.73476 -32.7775,-27.95347z" data-paper-data="{&quot;origPos&quot;:null}" fill="none" stroke="#000000" stroke-width="2.5" stroke-linecap="round"/></g><g stroke-linecap="butt"><path d="M280.85948,114.63218c0,0 0.33037,6.91886 -3.53363,6.81172c-1.19205,-0.03305 -7.06959,1.4624 -9.76547,-0.4473c-1.32906,-0.94146 3.35317,-4.16357 0.72004,-8.43444c-0.55805,-0.90514 -17.78439,-2.25304 -17.87088,0.9099c-0.31144,11.3888 -4.68904,6.27909 -5.41882,6.45918c-9.62835,2.37599 -6.61759,-6.47698 -6.61759,-6.47698l0.23692,-8.1225l42.48637,1.17796z" fill="#8c651a" stroke="#000000" stroke-width="2.5"/><g stroke="#000000"><path d="M213.04692,166.12381l1.47345,-50.52105l89.97117,2.49455l-1.47347,50.52101z" fill="#121010" stroke-width="3"/><path d="M212.92719,169.84812l1.47346,-50.52103l89.97119,2.49454l-1.47346,50.52105z" fill="url(#color-1)" stroke-width="2.5"/></g><path d="M246.24988,170.77201l1.08972,-37.36348l23.74237,0.65829l-1.08972,37.36349z" fill="url(#color-2)" stroke="#000000" stroke-width="2.5"/><path d="M271.68121,147.31741c0.51432,-8.61871 8.07047,-15.4446 16.8771,-15.24623c8.80669,0.19835 15.52898,7.34599 15.01467,15.96459c-0.51432,8.61869 -8.07048,15.44457 -16.87711,15.24621c-8.8067,-0.19839 -15.52899,-7.34601 -15.01467,-15.96463z" fill="url(#color-3)" stroke="none" stroke-width="0"/><path d="M213.88292,145.83427c0.5143,-8.61867 8.07049,-15.44457 16.87711,-15.24621c8.80664,0.19836 15.52898,7.346 15.01467,15.96461c-0.51432,8.61866 -8.0705,15.44457 -16.87711,15.24621c-8.80664,-0.1984 -15.52895,-7.34602 -15.01464,-15.96464z" fill="url(#color-4)" stroke="none" stroke-width="0"/></g></g><g data-paper-data="{&quot;index&quot;:null}" stroke="#000000"><path d="M209.58951,178.77673c0,0 1.86629,-14.41173 4.13063,-14.97233c3.6195,-0.89614 9.7463,-0.78996 16.23671,-0.69722c5.6907,0.08131 11.66092,0.05595 16.46574,0.6343c1.86357,0.22431 3.16117,14.51533 3.16117,14.51533l1.52699,28.00834c0,0 0.59723,16.97307 -1.15321,16.97307c-15.58219,0 -33.84555,0.87248 -40.79088,0.01196c-2.31509,-0.28683 -1.44607,-16.41167 -1.44607,-16.41167z" fill="#68330c" stroke-width="2.5" stroke-linecap="round"/><g><g><path d="M223.09776,163.11664h19.49109v8.89074c-0.2975,1.24583 -0.52656,2.26948 -0.65895,2.79528c-1.30083,5.16634 -8.82151,26.31688 -9.49146,29.83072c-3.22307,-10.72744 -6.32089,-21.6183 -9.34067,-32.54359z" fill="#ffffff" stroke-width="2" stroke-linecap="butt"/><path d="M228.31624,164.01203h8.73351v2.25267c-0.1333,0.30292 -4.06149,6.98763 -4.36168,7.84202c-1.44418,-2.60836 -3.01873,-5.22803 -4.37183,-7.88449z" fill="#ffddb7" stroke-width="1.5" stroke-linecap="butt"/><path d="M232.85427,173.84315l-0.36154,26.79042" fill="none" stroke-width="1.5" stroke-linecap="round"/><path d="M232.57208,204.10528v18.54721" fill="none" stroke-width="2" stroke-linecap="round"/><path d="M233.25636,176.97374c0,-0.28257 0.23495,-0.51165 0.52477,-0.51165c0.28981,0 0.52476,0.22908 0.52476,0.51165c0,0.28257 -0.23494,0.51164 -0.52476,0.51164c-0.28981,0 -0.52477,-0.22907 -0.52477,-0.51164z" fill="#000000" stroke-width="0.5" stroke-linecap="butt"/><path d="M233.13974,183.11352c0,-0.28257 0.23494,-0.51164 0.52476,-0.51164c0.28981,0 0.52477,0.22907 0.52477,0.51164c0,0.28257 -0.23495,0.51165 -0.52477,0.51165c-0.28981,0 -0.52476,-0.22908 -0.52476,-0.51165z" fill="#000000" stroke-width="0.5" stroke-linecap="butt"/><path d="M233.11959,189.2533c0,-0.28257 0.23495,-0.51165 0.52477,-0.51165c0.28981,0 0.52476,0.22908 0.52476,0.51165c0,0.28257 -0.23494,0.51165 -0.52476,0.51165c-0.28981,0 -0.52477,-0.22908 -0.52477,-0.51165z" fill="#000000" stroke-width="0.5" stroke-linecap="butt"/><path d="M233.62137,219.95213c0,-0.28257 0.23494,-0.51164 0.52476,-0.51164c0.28981,0 0.52477,0.22907 0.52477,0.51164c0,0.28257 -0.23495,0.51165 -0.52477,0.51165c-0.28981,0 -0.52476,-0.22908 -0.52476,-0.51165z" fill="#000000" stroke-width="0.5" stroke-linecap="butt"/><path d="M233.368,213.69865c0,-0.28257 0.23495,-0.51164 0.52477,-0.51164c0.28981,0 0.52477,0.22907 0.52477,0.51164c0,0.28257 -0.23495,0.51165 -0.52477,0.51165c-0.28981,0 -0.52477,-0.22908 -0.52477,-0.51165z" fill="#000000" stroke-width="0.5" stroke-linecap="butt"/><path d="M232.22816,206.23992l-18.11944,-27.33334l5.47002,-4.66666l-3.07688,-5.66667l5.47002,-2.66666" fill="none" stroke-width="2" stroke-linecap="round"/><path d="M242.99774,165.72217l5.09066,2.68866l-2.44186,5.65425l4.05748,4.68865l-17.02603,27.76437" fill="none" stroke-width="2" stroke-linecap="round"/><g stroke-width="1.5" stroke-linecap="round"><path d="M240.87037,210.70489l0.08937,-3.31059l2.94866,1.04546l2.14448,-3.22347l0.1787,5.57574z" fill="#ffffff"/><path d="M239.32015,211.04223h8.6673" fill="none"/></g></g><path d="M231.81652,173.47543l-7.39695,3.04546" fill="none" stroke-width="1.5" stroke-linecap="round"/><path d="M240.48773,176.233l-7.52127,-2.5" fill="none" stroke-width="1.5" stroke-linecap="round"/></g></g><path d="M212.9253,165.67164c-4.55358,-1.22805 -5.7584,-4.13494 -5.7584,-4.13494c0,0 -1.68775,-2.60251 -1.67517,-4.17329c0.03771,-4.71236 0.79604,-18.14886 2.55649,-29.66384c0.05876,-0.3843 0.10613,-0.5982 0.18844,-0.97841c0.24685,-1.14062 1.40523,-5.55539 1.40523,-5.55539c0,0 3.47446,-1.48207 5.33292,-1.85004c5.57541,-1.10394 19.40264,1.29898 34.04172,2.65314c1.32684,0.12273 3.49189,1.98397 3.49189,1.98397c0,0 1.412,3.30692 1.22668,5.3286c-1.19793,13.07047 -2.57299,27.52773 -3.11096,30.81879c-0.09313,0.56978 -0.51861,3.04079 -2.46606,5.03707c-0.51322,0.52608 -2.44085,2.6853 -6.11873,2.92694c-9.23683,0.60686 -25.55058,-1.43155 -29.11406,-2.3926z" fill="#ffddb7" stroke="#000000" stroke-width="2.5" stroke-linecap="round"/><path d="M243.70285,150.18479c0.32181,-3.5112 1.01797,-6.31968 1.55494,-6.27288c0.53698,0.0468 0.7114,2.93116 0.38961,6.44235c-0.32181,3.5112 -1.01799,6.31968 -1.55494,6.27289c-0.53698,-0.0468 -0.7114,-2.93116 -0.3896,-6.44237z" fill="#000000" stroke="#000000" stroke-width="2.5" stroke-linecap="butt"/><path d="M237.02212,149.78119c0.32777,-3.57624 0.91997,-6.44693 1.32269,-6.4118c0.40272,0.0351 0.46349,2.9627 0.13573,6.53894c-0.32777,3.57624 -0.91992,6.44688 -1.32268,6.41179c-0.40272,-0.0351 -0.46351,-2.96268 -0.13575,-6.53892z" fill="#000000" stroke="#000000" stroke-width="2.5" stroke-linecap="butt"/><path d="M251.47678,144.6647c-0.04731,-0.80935 -0.09271,-1.61812 -0.14266,-2.4265c-0.85113,0.39299 -1.65376,0.73025 -1.80901,0.8014c-1.70504,0.78169 -4.43778,2.07826 -6.29415,2.27787c-0.90773,0.09761 -2.00547,0.40419 -2.73733,-0.12617c-0.90505,-0.65585 -0.60001,-3.07869 -0.54914,-4.01031c0.19126,-3.50265 0.39083,-7.00492 0.58717,-10.50733c-1.77118,1.66193 -4.51,3.04709 -6.20856,4.52315c-3.82094,3.32033 -7.86297,6.27578 -11.81848,9.39697c-1.35677,1.07061 -2.48964,2.09615 -3.97142,3.01047c-0.56807,0.35055 -1.00135,1.15566 -1.67266,1.09809c-0.93749,-0.0804 -1.59831,-0.96475 -2.39748,-1.44713c-0.04173,-1.60958 -0.07368,-3.65167 0.13565,-5.48988c-0.86628,1.03966 -1.999,2.03196 -2.67609,2.93824c-2.36044,3.1593 -6.73039,12.31726 -6.73039,12.31726c-3.97006,-0.29242 -7.44229,-4.00481 -9.5933,-6.9569c-2.12854,-0.14994 -4.22115,-0.44741 -6.36613,-0.56238c-0.51141,-0.02742 -3.36921,-0.13671 -3.67529,-0.36256c-1.8859,-1.39159 -1.23098,-2.61618 -0.59757,-4.26598c0.5068,-1.32003 1.33726,-2.42241 2.36095,-3.34961c-1.11467,-0.7417 -2.39138,-1.64489 -2.69797,-2.5927c-0.55434,-1.71374 0.15323,-2.35275 0.99109,-3.58875c0.93767,-1.38323 2.10686,-2.54904 3.42628,-3.53707c-0.70509,-0.47433 -1.45829,-1.01231 -1.53718,-1.20763c-0.83273,-2.06197 0.18175,-2.78449 1.20528,-4.19752c1.7656,-2.43753 4.72341,-3.75225 7.49379,-4.68751c0.31715,-2.57935 1.67665,-4.12959 3.09962,-6.35861c1.87396,-2.93555 5.25367,-7.18309 10.25991,-10.29546c5.4936,-3.41534 12.2613,-5.20365 14.35047,-5.55794c4.53372,-0.76883 10.26285,-0.37955 12.47134,-0.04292c4.06841,0.62016 11.23225,2.90835 16.27422,6.43943c5.08117,3.55854 7.6767,8.02941 8.03145,8.75041c3.09689,6.29427 4.98676,12.22048 4.60977,19.13227c-0.09661,1.72814 0.48897,10.81166 -2.45541,15.58894c-3.57692,5.80361 -11.13853,8.0791 -11.45251,8.16216c-0.37187,0.09838 -1.86141,-0.2128 -2.01777,-1.29739c-0.37663,-2.61255 1.08269,-7.94493 1.83551,-10.05695c0.13935,-0.34156 0.26874,-0.68671 0.39291,-1.03377c-0.11175,-0.25427 -0.12483,-0.4776 -0.12483,-0.4776z" fill="#000000" stroke="none" stroke-width="0.5" stroke-linecap="butt"/><g><g data-paper-data="{&quot;index&quot;:null}"><path d="M236.92961,184.06226c2.45941,0.46686 7.24772,-2.58393 6.80306,-0.3569c-0.29626,1.48364 -9.4469,21.115 -11.24261,22.01347c-0.89972,0.45018 -2.23989,0.59731 -3.06087,0.44147c-1.20667,-0.22907 -2.07991,-1.03976 -2.58612,-2.1586c-0.52553,-1.16165 3.19948,-21.96061 3.42597,-23.09499c0.44469,-2.22705 4.20115,2.6886 6.6606,3.15546z" fill="#485e84" stroke="#000000" stroke-width="1.5" stroke-linecap="butt"/><g stroke-linecap="butt"><path d="M238.37819,176.69102c4.45593,0.84586 7.6038,3.85708 7.03098,6.72574c-0.57281,2.86867 -4.64942,4.50848 -9.10536,3.66265c-4.45594,-0.84587 -7.60381,-3.85711 -7.031,-6.72576c0.57281,-2.86868 4.6494,-4.50851 9.10534,-3.66265z" fill="#485e84" stroke="#000000" stroke-width="1.5"/><path d="M241.05821,183.93677l3.94444,-0.89201c0,0 -1.08127,1.69045 -1.7762,2.1783c-1.47222,1.0016 -3.22142,1.06424 -3.22142,1.06424z" fill="#6987bb" stroke="none" stroke-width="0"/><path d="M237.3448,184.07362l1.68149,0.00665c0,0 -0.0883,1.02812 -0.18242,1.37756c-0.11019,0.40917 -0.53249,1.08992 -0.53249,1.08992l-1.95797,-0.3184z" fill="#6987bb" stroke="none" stroke-width="0"/></g><g><path d="M236.99666,183.02787c-6.14704,-1.1669 -8.85077,-5.34153 -7.65398,-11.33501c1.19677,-5.99341 7.46511,-9.84633 13.6122,-8.67947c6.14707,1.16687 9.65269,6.23757 8.45591,12.23105c-1.19677,5.99343 -8.26702,8.95032 -14.41411,7.78346z" fill="#2c394f" stroke="#000000" stroke-width="1.5" stroke-linecap="butt"/><path d="M244.87235,164.24603c0,0 7.51603,3.95359 6.46893,9.1974c-0.59374,2.97361 -2.69396,5.7738 -4.99715,7.67799c-1.64091,1.35663 -3.88812,2.11817 -6.06097,1.70571c-4.46627,-0.84783 -5.66733,-3.0885 -4.62023,-8.33232c0.52291,-2.61872 2.73762,-5.53654 5.08063,-7.32394c2.34867,-1.79176 4.1288,-2.92484 4.1288,-2.92484z" fill="#485e84" stroke="none" stroke-width="0" stroke-linecap="butt"/><path d="M251.05484,175.24503c0,0 -3.85543,3.53614 -11.0148,2.43357c-7.21806,-1.11159 -9.74846,-5.38655 -9.74846,-5.38655" fill="none" stroke="#000000" stroke-width="0.8" stroke-linecap="round"/><path d="M248.82207,179.76345c0,0 -4.62641,1.50501 -9.26391,1.31273c-6.68323,-0.27708 -8.80841,-2.82823 -8.80841,-2.82823" fill="none" stroke="#000000" stroke-width="0.75" stroke-linecap="round"/><path d="M251.00517,170.41687c0,0 -3.92593,2.88351 -11.15608,2.17341c-6.95411,-0.68299 -8.60883,-3.14531 -8.60883,-3.14531" fill="none" stroke="#000000" stroke-width="0.8" stroke-linecap="round"/><path d="M231.57469,168.08759c0,0 4.69303,-1.54148 8.31677,-1.77142c4.773,-0.3029 9.4611,0.6363 9.4611,0.6363" fill="none" stroke="#000000" stroke-width="0.8" stroke-linecap="round"/><path d="M234.79343,181.79562c0,0 -1.82107,-3.7988 -0.82166,-10.1641c0.93264,-5.93994 4.44677,-7.9902 4.44677,-7.9902" fill="none" stroke="#000000" stroke-width="0.8" stroke-linecap="round"/><path d="M240.73675,163.77247c0,0 -0.80131,2.95462 -1.1565,6.27528c-0.31235,2.92021 -0.16634,6.13099 -0.3946,7.76027c-0.2711,1.93514 -1.12963,5.10116 -1.12963,5.10116" fill="none" stroke="#000000" stroke-width="0.8" stroke-linecap="round"/><path d="M243.65188,163.76987c0,0 2.25559,5.24981 1.55293,9.38615c-1.10284,6.49214 -4.31683,10.16717 -4.31683,10.16717" fill="none" stroke="#000000" stroke-width="0.8" stroke-linecap="round"/><path d="M247.09755,164.91816c0,0 1.82591,3.75697 1.70502,7.96152c-0.1741,6.05468 -2.34848,8.90539 -2.34848,8.90539" fill="none" stroke="#000000" stroke-width="0.8" stroke-linecap="round"/><path d="M249.79016,173.6458c-0.43826,-0.08318 -0.7138,-0.55039 -0.61533,-1.04349c0.09844,-0.49311 0.53358,-0.82537 0.97187,-0.74218c0.43832,0.0832 0.71381,0.55037 0.61535,1.04348c-0.09845,0.49312 -0.53359,0.82541 -0.97188,0.74221z" fill="#6987bb" stroke="none" stroke-width="0" stroke-linecap="butt"/><path d="M249.57052,170.14455c-0.25289,-0.048 -0.41796,-0.2868 -0.36873,-0.53333c0.04925,-0.24657 0.29415,-0.4075 0.54701,-0.35951c0.2529,0.048 0.41798,0.28678 0.36874,0.53332c-0.04922,0.24657 -0.29414,0.40751 -0.547,0.35952z" fill="#6987bb" stroke="none" stroke-width="0" stroke-linecap="butt"/></g></g><g><path d="M199.7171,160.78911c2.75663,-1.76558 18.42064,4.24859 19.36813,6.35873c1.02978,2.29341 -6.73626,15.12125 -6.73626,15.12125l-3.54624,-0.79471l23.55842,4.8401c0,0 8.22273,1.27158 7.49242,3.42496c0,0 1.62196,11.02594 -7.81107,27.50952c-5.27104,-0.14176 -16.60891,-4.77273 -16.60891,-4.77273c0,0 -25.66338,-9.14572 -26.72148,-13.74774c-1.0581,-4.602 8.41818,-36.28259 11.00501,-37.93939z" fill="#68330c" stroke="none" stroke-width="3" stroke-linecap="round"/><path d="M232.66568,186.22062c0,0 7.90718,2.24228 7.15803,4.35049c0,0 1.43777,10.86778 -8.07679,26.95371c-2.79281,-0.11375 -7.29977,-1.53365 -10.86259,-2.81903c0.16471,-0.47188 0.30439,-0.90302 0.41685,-1.25884c2.49296,-7.88661 5.08275,-19.04947 8.1053,-27.52343c0.02995,-0.08398 3.25918,0.29708 3.25918,0.29708z" fill="#ffddb7" stroke="#000000" stroke-width="2" stroke-linecap="butt"/><path d="M230.50234,186.61562l-9.02092,28.13924l-3.35596,-1.20439l8.66275,-27.91163z" data-paper-data="{&quot;index&quot;:null}" fill="#ffffff" stroke="#000000" stroke-width="2" stroke-linecap="round"/><path d="M199.85493,160.98274c2.75663,-1.76558 18.42063,4.24859 19.36812,6.35873c1.02978,2.29341 -6.73626,15.12126 -6.73626,15.12126l-3.54624,-0.79471l23.55842,4.8401c0,0 8.22273,1.27158 7.49242,3.42495c0,0 1.62196,11.02594 -7.81108,27.50952c-5.27104,-0.14176 -16.6089,-4.77273 -16.6089,-4.77273c0,0 -25.66338,-9.14572 -26.72148,-13.74773c-1.0581,-4.602 8.41818,-36.28259 11.00501,-37.9394z" data-paper-data="{&quot;origPos&quot;:null}" fill="none" stroke="#000000" stroke-width="2.5" stroke-linecap="round"/></g></g><g stroke="#000000" stroke-width="1.25" stroke-linecap="butt"><g data-paper-data="{&quot;index&quot;:null}" fill="#000000"><path d="M221.89757,162.82837c-12.37379,-1.21831 -7.35412,-5.482 -7.35412,-5.482l15.52285,1.33138c0,0 3.46421,5.18861 -8.16872,4.15061z"/></g><g data-paper-data="{&quot;index&quot;:null}" fill="#ffffff"><path d="M221.89757,162.82837c-12.37379,-1.21831 -7.35412,-5.482 -7.35412,-5.482c0,0 10.50169,0.90073 13.12244,1.12551c0.00362,0.00031 -0.93985,1.09956 -1.03511,2.27144c-0.07803,0.95981 0.69204,2.03436 0.66918,2.03814c-1.27502,0.21103 -3.02287,0.25924 -5.40239,0.04692z"/></g></g></g></g></svg>