<svg version="1.1" xmlns="http://www.w3.org/2000/svg" xmlns:xlink="http://www.w3.org/1999/xlink" width="258.66667" height="258.66667" viewBox="0,0,258.66667,258.66667"><g transform="translate(-167.43869,-52.08782)"><g data-paper-data="{&quot;isPaintingLayer&quot;:true}" fill-rule="nonzero" stroke-linejoin="miter" stroke-miterlimit="10" stroke-dasharray="" stroke-dashoffset="0" style="mix-blend-mode: normal"><g data-paper-data="{&quot;index&quot;:null}" stroke="#000000" stroke-width="3" stroke-linecap="butt"><path d="M344.19528,200.8373c0,0 -1.10738,11.23882 -9.36104,11.26911c-3.82793,0.01405 -20.81791,-4.0619 -23.96911,-9.80139c-6.86353,-12.50101 -4.49815,-21.34458 -4.49815,-21.34458c0,0 3.80162,-3.32293 6.34103,-3.19783c7.28832,0.35905 8.60495,4.74623 8.60495,4.74623c0,0 0.51578,2.0581 1.24545,3.27773c0.80481,1.34523 3.38009,4.45382 3.38009,4.45382c0,0 15.56246,-0.21155 16.10707,0.98473c0.24267,0.53303 2.14971,9.61219 2.14971,9.61219z" fill="#db93e6"/><path d="M342.27558,196.02055c0,0 16.12882,-0.93555 20.97966,2.14717c7.64036,4.85546 5.16752,14.6849 3.90323,15.74077c-3.95864,3.30604 -18.86691,5.24596 -18.86691,5.24596c-2.96526,0.09303 -10.45878,0.06679 -12.7009,-0.57716c-3.53247,-1.01455 -3.41126,-5.60713 -3.41126,-10.25201c0,-7.66695 2.42922,-12.30472 10.09618,-12.30472z" fill="#f89587"/></g><g data-paper-data="{&quot;index&quot;:null}" stroke-linecap="butt"><path d="M346.5552,228.24452c0,0 0.11397,3.61013 -11.19486,6.29034c-17.21151,4.07915 -49.62516,7.80984 -60.5133,7.6013c-5.27148,-0.10096 -10.96621,-3.51705 -15.67593,-5.63558c-10.46419,-4.70699 -11.79646,-9.42883 -11.79646,-9.42883c0,0 -1.39596,-4.88136 -0.37795,-6.9286c0.82642,-1.66197 5.68856,-0.84357 5.68856,-0.84357c0,0 43.74117,-5.8271 71.11189,-6.278c1.17841,-0.01941 1.67773,4.27657 2.77214,4.24736c6.18867,-4.61594 15.12685,-5.46269 15.30021,-5.31085c4.2706,3.74032 4.6857,16.28642 4.6857,16.28642z" fill="#0066cc" stroke="#000000" stroke-width="3"/><path d="M272.07923,217.83876c0.05187,-1.80121 -1.23938,-8.68314 -1.23938,-8.68314c0,0 12.03823,-0.16414 26.57997,0.18349c12.03693,0.28775 21.07744,-3.1366 21.07744,-3.1366c0,0 5.64576,8.69848 6.04666,9.19862c0.9118,1.13751 0.50798,2.88963 0.50798,2.88963c0,0 -1.689,4.71438 -2.79683,7.10598c-1.35568,2.92666 -5.44268,11.03431 -5.44268,11.03431c0,0 -0.82046,1.51332 -1.89535,0.31909c-1.95566,-2.17278 -4.906,-8.01503 -6.36894,-10.76734c-0.93958,-0.10311 -1.78136,-0.22606 -2.77284,-0.18273c-2.95884,0.12933 -6.16425,1.07848 -9.62847,1.06946c-4.33119,-0.01127 -8.24561,-0.0959 -11.58772,-0.81129c-2.36383,-0.50598 -4.61788,-7.2193 -6.36997,-8.00219c-4.05254,-1.81082 -6.16959,1.85608 -6.10988,-0.21731z" fill="#0f1b82" stroke="none" stroke-width="0"/><path d="M302.86273,227.76622c0,0 4.74427,-3.61602 5.71653,-4.35802c1.12416,-0.85794 4.24199,-2.76038 4.24199,-2.76038c0,0 -1.12865,2.33992 -4.05235,5.59212c-3.13491,3.48715 -5.90617,1.52627 -5.90617,1.52627z" fill="#000000" stroke="none" stroke-width="0"/></g><path d="M332.63986,208.8052c0,0 -1.95681,11.12603 -18.53717,11.74834c-16.02136,0.60132 -24.73866,-2.57862 -29.48827,-4.76797c-2.59139,-1.19451 -6.91221,-2.27225 -6.91221,-2.27225c0,0 -0.71088,-8.48268 -0.24407,-16.9484c0.43186,-7.83193 2.03054,-15.54923 2.34148,-18.91142c0.9598,-10.37844 4.4505,-7.70234 4.4505,-7.70234l27.80165,10.05681c0,0 -0.5255,2.92179 -1.84781,8.10929c7.12351,5.67206 22.65081,16.83455 22.43588,20.68795z" data-paper-data="{&quot;index&quot;:null}" fill="#feebf7" stroke="#000000" stroke-width="3" stroke-linecap="butt"/><path d="M278.76625,187.11168c0,0 1.02368,-4.57752 2.43318,-5.74398c0.7837,-0.64857 -3.36636,-8.30008 2.53266,-9.1943c5.8304,-0.88381 23.08417,5.5904 26.59405,7.70806c1.42032,0.85694 -1.84673,7.0783 -1.60712,7.36292c0.96808,1.14994 -22.42593,-3.23241 -22.42593,-3.23241c0,0 -4.16651,21.87554 -6.67324,28.85923c-3.33842,-0.4429 -0.8536,-25.75954 -0.8536,-25.75954z" data-paper-data="{&quot;index&quot;:null}" fill="#db93e6" stroke="none" stroke-width="0" stroke-linecap="butt"/><path d="M316.69909,197.7268l0.42972,0.62575c0.04363,0.06272 0.0777,0.13192 0.10043,0.20541c0.42194,0.61679 0.82775,1.25633 1.22089,1.91799c3.14202,6.52296 -0.79286,10.86072 -7.8739,10.66843c-7.92911,-0.24467 -11.35365,-3.3623 -15.76006,-8.82434c-2.25495,-3.2968 -7.21106,-11.13651 -0.64368,-13.28482c0.78562,-0.25699 2.22321,-0.19416 3.04115,-0.27185c3.52203,-0.24755 7.84949,0.31351 10.95361,2.10012c1.21441,0.69896 2.50583,1.59272 3.61787,2.50842c0.26718,0.20513 0.62938,0.3383 0.88484,0.55396zM307.47164,202.38434c-0.40241,0.83289 -1.97775,3.61617 -1.23994,4.45615c1.5927,1.81325 8.00591,0.35703 8.88786,-1.66666c0.45623,-3.76089 -2.39052,-6.41951 -5.49193,-8.56288c-0.8401,1.85366 -1.43006,4.14058 -2.15599,5.77339zM306.59946,194.64637c-0.64971,-0.41286 -1.263,-0.80996 -1.80698,-1.19766c-2.84882,-1.30035 -4.52887,-1.19235 -7.59744,-0.62726c-0.62541,0.11517 -2.24257,0.07966 -2.46313,0.87727c-0.42677,1.54337 0.76061,3.62545 1.41381,4.97673c0.72986,1.52314 3.41288,5.71369 5.46203,5.75378c0.34147,0.00668 0.97605,-1.01049 1.11861,-1.21047c1.08289,-1.51897 1.5025,-3.48706 2.25479,-5.17353c0.36656,-1.09491 0.83271,-2.10068 1.43551,-3.09011l0.18281,-0.30875z" data-paper-data="{&quot;index&quot;:null}" fill="#ff0000" stroke="none" stroke-width="0.5" stroke-linecap="butt"/><g data-paper-data="{&quot;index&quot;:null}" stroke-linecap="butt"><g><g><path d="M296.95828,247.87918c0.15864,-5.83342 -0.12861,-17.31741 6.17743,-22.15334c1.57106,-1.20481 5.67612,-4.68593 9.05768,-1.11251c0.38479,0.40663 -0.7235,1.51459 -0.0488,3.0314c0.24905,0.5599 1.99515,0.59333 2.43,1.24986c1.37368,2.07396 4.37116,4.06606 5.02543,3.97271c2.2273,-5.61276 8.79756,-12.44382 10.93,-12.99128c3.832,-0.9838 18.17687,2.39668 17.93726,5.54582c0.39642,2.55347 -3.35003,6.8232 -3.35003,6.8232c0,0 14.94323,9.03354 20.53405,12.63394c9.62698,6.1996 9.67497,11.24653 9.67497,11.24653c0,0 0.524,2.51434 -3.52907,3.84653c-7.9448,2.61135 -17.73507,3.47974 -29.18929,3.30696c-11.12884,-0.16787 -10.61083,-6.53696 -22.26036,-7.76752c-9.82262,-1.03759 -23.65273,2.05501 -23.38929,-7.63231z" fill="#ff2d32" stroke="#000000" stroke-width="3"/><path d="M357.07462,261.40619c0,0 -10.85408,1.42439 -16.28104,0.64622c-5.47602,-0.78519 -12.8209,-6.82435 -18.13242,-7.58153c-11.24079,-1.60242 -18.32581,0.61218 -21.17165,-1.48466c-0.18305,-0.13487 -4.54575,-1.87591 -3.80651,-7.79482c1.77707,-14.22876 7.59011,-16.47518 7.59011,-16.47518c0,0 6.43295,8.04334 14.20287,8.95516c1.52171,0.17857 0.54459,-2.7236 0.54459,-2.7236c0,0 -0.18429,-1.39966 0.20308,-2.33917c0.58012,-1.40698 2.9393,-5.28217 2.9393,-5.28217c0,0 0.67423,2.09052 2.66069,4.52962c2.39795,2.94433 7.06096,5.75391 11.86966,9.34471c5.34567,3.99177 14.40253,7.41072 16.53292,9.60508c2.32012,2.38975 2.8484,10.60032 2.8484,10.60032z" fill="#ab164a" stroke="none" stroke-width="0"/><path d="M306.36024,232.44489c-0.04003,1.47221 -0.71908,2.00893 -2.08307,2.02875c-1.36399,0.01982 -2.01694,-0.40237 -1.97691,-1.87459c0.04004,-1.47221 0.89549,-2.01149 2.25948,-2.03131c1.36398,-0.01982 1.84054,0.40493 1.80051,1.87715z" fill="#000000" stroke="none" stroke-width="0"/><path d="M317.20159,232.5728c0,0 1.11352,0.17415 4.87211,2.4035c3.05997,1.81498 5.03558,2.87695 5.03558,2.87695c0,0 -0.55693,1.25965 -5.55944,0.17595c-5.20714,-1.12802 -4.34825,-5.45639 -4.34825,-5.45639z" fill="#000000" stroke="none" stroke-width="0"/></g><g><path d="M329.94361,245.18078c-1.55934,-1.20534 -1.81083,-3.72572 -1.43144,-5.25853c0.90011,-3.63671 3.708,-5.84669 5.47807,-6.3757c7.50063,-2.24164 13.32169,-1.29482 13.13786,0.413c-0.33128,3.0774 -5.7372,3.40493 -9.26534,6.1343c-1.78465,1.38061 -2.34965,2.86177 -3.42128,4.00903c-1.02305,1.09525 -2.7504,2.42863 -4.49786,1.0779z" fill="#feebf7" stroke="#000000" stroke-width="2.5"/><path d="M331.09799,237.51964c0,0 0.81326,0.12631 2.2414,0.89165c1.87312,1.00382 2.49585,2.11453 2.49585,2.11453c0,0 -0.73225,0.85101 -1.43955,1.73375c-0.91094,1.13688 -1.28152,2.62393 -2.34668,2.63941c-1.89223,0.02749 -2.89262,-1.73796 -2.83069,-4.01529c0.06193,-2.27734 1.87967,-3.36405 1.87967,-3.36405z" fill="#db93e6" stroke="none" stroke-width="0"/></g><g><path d="M337.39947,249.32116c-0.51288,-0.69359 0.77639,-5.19379 3.86692,-8.46437c7.34264,-7.7704 10.78657,-7.68025 12.06284,-5.16847c1.15477,2.27266 -4.22155,5.42405 -8.04241,9.52503c-3.41059,3.66061 -6.86169,5.49487 -7.88735,4.1078z" fill="#feebf7" stroke="#000000" stroke-width="2.5"/><path d="M338.62118,248.93361c-0.71428,-0.2599 -0.09125,-3.59576 0.23102,-4.14959c0.86217,-1.48165 2.13343,-1.9754 2.13343,-1.9754l3.27893,1.73584c0,0 -0.94009,1.35677 -1.61213,1.95769c0,0 -2.87534,2.85205 -4.03125,2.43146z" fill="#db93e6" stroke="none" stroke-width="0"/></g><g><path d="M358.52272,238.65812c2.77273,2.37487 -2.79088,3.5888 -6.27854,8.03388c-3.08004,3.92557 -4.17915,8.46314 -7.35939,6.5893c-2.64788,-1.56018 9.54696,-18.12715 13.63793,-14.62318z" fill="#ffffff" stroke="#000000" stroke-width="2.5"/><path d="M345.15551,251.81828c0.04965,-1.82548 3.34201,-4.92374 3.34201,-4.92374l0.91014,1.76946c0,0 -1.20628,3.16102 -2.43204,4.20034c-1.01993,0.86479 -1.84986,0.04836 -1.8201,-1.04607z" fill="#db93e6" stroke="none" stroke-width="0"/></g></g><g><path d="M347.02255,273.28774c-5.91072,0.0859 -13.60504,-6.4043 -20.66332,-7.10861c-10.39245,-1.03702 -28.13627,-1.2587 -31.22968,-4.67179c-2.82985,-3.12229 -3.73509,-12.59814 0.59681,-13.32779c0.77373,6.31156 6.04409,6.76748 10.18295,6.81631c5.00922,0.05912 11.91718,-0.16875 17.36657,0.90855c9.65062,1.90787 14.7337,7.55266 22.13979,7.44502c12.73134,-0.18502 21.39995,-1.93262 26.27409,-3.77639c2.64672,-1.00119 3.52546,-2.49754 4.81514,-2.71829c1.68818,-0.28897 3.39167,4.05188 3.39167,4.05188c0,0 -0.10027,4.36266 -4.46779,7.33259c-4.5714,3.10857 -13.73198,4.83527 -28.40622,5.04853z" fill="#ffffff" stroke="#000000" stroke-width="3"/><path d="M295.46189,248.03544c0,0 -0.41689,1.72198 1.19655,3.95562c1.05103,1.45506 2.71416,3.20353 7.05511,4.272c3.8113,0.9381 17.07891,-0.09875 20.20699,0.78809c4.32772,1.22694 7.20779,3.08946 10.69024,4.71467c1.36151,0.6354 2.80669,1.54401 4.47911,1.89936c6.80631,1.44619 9.45522,1.01707 12.32473,0.82878c4.27445,-0.2805 6.86232,-0.88532 6.86232,-0.88532c0,0 0.88806,1.85194 0.32159,3.91946c-0.56648,2.06752 -2.02903,3.4569 -2.02903,3.4569c0,0 -4.39512,2.71363 -12.32118,0.35977c-4.4953,-1.335 -5.51531,-1.66206 -14.03433,-5.69333c-4.40854,-2.08615 -26.36811,-2.04154 -30.3492,-3.7729c-1.17493,-0.51096 -3.09941,-0.57044 -3.79534,-0.97595c-2.35559,-1.37257 -1.35745,-2.73543 -1.86917,-4.77983c-0.95637,-3.82086 1.26161,-8.08729 1.26161,-8.08729z" fill="#db93e6" stroke="none" stroke-width="0"/></g></g><g data-paper-data="{&quot;index&quot;:null}" stroke-linecap="butt"><path d="M223.57006,248.22995c2.80349,-3.11001 11.1072,-8.03587 17.72705,-9.78984c-4.55975,-2.47692 -11.0226,-4.16401 -11.16007,-6.05706c-0.43124,-5.93846 1.26121,-6.37732 3.42737,-7.93991c1.80475,-1.30188 16.37889,6.29907 16.37889,6.29907c0,0 1.09429,-5.06866 5.76725,-6.28184c4.00896,-1.0408 12.55721,1.57743 18.02483,3.0042c3.61241,0.94266 7.45936,2.51586 8.83999,5.36723c0.86254,1.78135 -0.93538,6.12106 0.70284,4.85744c4.1567,-3.20619 14.16478,-3.45743 16.90723,-1.35644c2.40059,1.8391 3.56871,6.98985 2.59171,9.36221c-0.41279,1.00236 -12.59005,0.47413 -12.37677,1.50654c0.42286,2.04693 -3.23507,4.78707 -2.9333,6.46549c0.79773,4.43705 2.3373,6.88537 2.3373,6.88537c0,0 1.60151,6.47834 -2.06411,9.53326c-4.71049,3.92572 -16.13999,4.67627 -29.89388,4.99578c-24.45692,0.56815 -45.06092,-14.88785 -34.27632,-26.85153z" fill="#ff2d32" stroke="#000000" stroke-width="2.5"/><path d="M285.53099,244.32714c0,0 1.61151,-2.46694 6.91102,-3.58112c4.742,-0.99697 8.84571,-0.96562 8.84571,-0.96562c0,0 0.37619,1.90269 0.66272,2.8267c0.32067,1.03415 -0.36552,2.72329 -0.36552,2.72329c0,0 -3.887,0.56484 -9.13161,0.35078c-1.81389,-0.07403 -2.64168,0.47272 -3.52841,0.49212c-1.19565,0.02614 -2.40504,-0.46021 -2.99135,-0.98841c-0.42941,-0.38685 -0.40255,-0.85772 -0.40255,-0.85772z" fill="#ab164a" stroke="none" stroke-width="0"/><path d="M245.97556,234.79433c0,0 3.23309,-0.1684 4.66702,-1.90446c-0.20163,-3.22302 2.75907,-6.55326 5.04588,-7.22339c3.85987,-1.13112 14.02384,1.98865 14.02384,1.98865c0,0 0.42043,4.24172 0.63979,6.20889c0.25265,2.26572 0.29591,6.94493 0.29591,6.94493c0,0 -16.07411,0.76466 -19.71234,0.78363c-1.1816,0.00615 -4.08719,0.9261 -4.08719,0.9261c0,0 -2.09689,-2.81374 -4.27111,-4.44101c-1.78017,-1.33234 -5.3569,-2.13831 -5.36204,-2.63524c-0.00219,-0.21118 -4.27891,-1.25408 -5.85713,-2.93298c-1.52874,-1.62626 -0.05655,-4.8957 0.83606,-4.82378c2.12726,0.17139 13.7813,7.10867 13.7813,7.10867z" fill="#ab164a" stroke="none" stroke-width="0"/><path d="M235.45419,235.09867c0,0 -2.04107,-1.27929 -2.99102,-2.40758c-0.92069,-1.09354 -0.75985,-2.03558 -0.2315,-2.13263c3.00154,-0.5513 4.86609,2.18393 5.59065,3.86137c0.26041,0.60288 0.37724,1.8367 0.37724,1.8367c0,0 -1.30843,-1.19123 -2.74537,-1.15785z" fill="#000000" stroke="none" stroke-width="0"/><path d="M293.37701,243.29993c0.10317,-0.88381 0.87501,-0.78951 3.32829,-0.8465c3.10791,-0.0722 3.87823,0.15965 3.85369,2.39899c-0.01805,1.64757 -2.4108,0.58674 -4.37987,0.02555c-1.65688,-0.47221 -2.96351,-0.19554 -2.80211,-1.57805z" fill="#000000" stroke="none" stroke-width="0"/><path d="M225.83712,255.13188c0.41432,1.40299 1.98996,4.06026 1.98996,4.06026c0,0 0.93175,-1.50134 1.88096,-2.69045c0.4363,-0.54658 0.36219,-1.2151 1.11913,-1.30668c5.04428,-0.6103 15.82123,1.91486 24.58195,2.62742c26.65434,2.16793 30.62346,12.4008 30.62346,12.4008c0,0 -6.75147,4.78095 -31.58953,4.09108c-7.68898,-0.21355 -16.41726,-1.25456 -22.76607,-4.2136c-6.10498,-2.84539 -8.54695,-5.15316 -10.66214,-11.40715c-1.17074,-3.46153 1.13506,-7.29136 2.77204,-9.0479c0.69784,-0.74882 1.48499,-0.81475 1.48499,-0.81475c0,0 0.12356,4.80527 0.56525,6.30097z" fill="#ab164a" stroke="none" stroke-width="0"/><g><path d="M213.45463,254.10792c-0.06363,-0.54674 7.75995,-4.6603 7.75995,-4.6603c0,0 -2.18142,5.14014 0.12385,10.60733c2.64993,6.2846 10.9175,13.09429 30.05634,14.5752c10.62693,0.8223 30.54049,-0.16137 37.14084,-5.82091c2.02145,-1.73333 3.31562,-5.02442 2.5214,-7.5769c-0.99873,-3.20982 -2.41151,-5.09543 -0.87206,-5.48656c2.39824,-0.60931 5.0323,5.53655 4.99435,8.99908c-0.04488,4.09506 -1.21009,7.38964 -4.29044,10.38975c-6.86662,6.68775 -20.33484,8.38538 -37.25356,8.77841c-15.07979,0.35031 -39.67635,-13.44651 -40.23836,-14.9897c-0.18156,-0.49856 0.64363,-9.78102 0.05771,-14.81537z" fill="#ffffff" stroke="#000000" stroke-width="2.5"/><path d="M215.07845,256.80395c0,0 6.50579,20.76184 33.22591,23.23217c41.4998,3.83674 45.02853,-10.24759 45.02853,-10.24759c0,0 -1.06372,3.49744 -6.82246,7.16161c-5.40052,3.43626 -14.86851,7.63702 -37.12412,5.56795c-10.83011,-1.00685 -19.91346,-5.2172 -25.79728,-8.60382c-5.61595,-3.23245 -9.11354,-5.68421 -9.11354,-5.68421l0.60298,-11.4261z" fill="#db93e6" stroke="none" stroke-width="0"/></g><g><g><path d="M242.48772,244.63478c-0.02147,-0.53848 6.13337,-5.23242 17.28528,-5.12285c18.03587,0.17719 23.0118,10.65102 22.43649,11.95041c-1.15791,2.61524 -9.19172,-5.4983 -23.42168,-6.36008c-11.11071,-0.67289 -16.23982,1.04488 -16.30009,-0.46749z" fill="#ffffff" stroke="#000000" stroke-width="2"/><path d="M248.09935,243.92735l-1.30574,-1.36075c0,0 5.14534,-2.46825 8.00284,-2.50117c9.17299,-0.10565 13.44889,1.60539 13.44889,1.60539l-2.60526,3.53823z" fill="#db93e6" stroke="none" stroke-width="0"/></g><g><path d="M236.82726,250.16024c-0.21161,-0.28204 -0.58902,-1.81806 3.1182,-2.98539c3.12938,-0.98537 9.84722,-1.63809 15.15587,-1.76141c11.59754,-0.26942 25.21854,6.61317 24.2664,10.51527c-0.53743,2.20251 -11.00052,-3.76866 -22.59807,-3.49924c-11.59755,0.26942 -19.31545,-1.43357 -19.94241,-2.26921z" fill="#ffffff" stroke="#000000" stroke-width="2"/><path d="M260.41023,251.50958c0,0 -3.79856,-0.16459 -5.06453,-0.17531c-1.24901,-0.01057 -2.92681,0.2936 -2.92681,0.2936l-2.58913,-5.0798c0,0 5.37616,-0.46157 7.75508,-0.1677c4.6466,0.57399 5.90888,0.97864 5.90888,0.97864l-3.08351,4.15057z" fill="#db93e6" stroke="none" stroke-width="0"/></g><path d="M232.77294,254.7755c0.00755,-0.68908 0.3405,-2.93558 3.5532,-3.18764c3.96044,-0.31073 11.30861,0.85512 18.49465,0.68819c7.06763,-0.16418 14.30488,1.61032 18.40764,3.60972c3.45264,1.68258 4.35648,3.47408 4.34081,4.90386c-0.03429,3.12876 -12.34709,-4.4826 -25.36242,-4.18024c-13.01534,0.30236 -19.45835,0.40039 -19.43387,-1.8339z" fill="#ffffff" stroke="#000000" stroke-width="2"/></g></g><g data-paper-data="{&quot;index&quot;:null}" stroke-linecap="butt"><path d="M272.96997,225.55459c0,0 -10.76292,-1.42811 -14.39903,-3.19476c-2.6996,-1.31163 -5.09315,-5.8254 -5.09315,-5.8254c0,0 -0.60213,-0.08199 -0.3418,-1.81211c0.19916,-1.3235 3.44229,-1.31684 4.78456,-3.09922c2.79393,-3.71 4.501,-9.29536 4.501,-9.29536c0,0 0.24588,-7.44494 5.55286,-7.47576c7.16889,-0.04164 10.37467,4.9383 10.37467,4.9383c0,0 0.41703,9.92333 -0.70193,14.13924c-1.29884,4.89368 -4.67717,11.62508 -4.67717,11.62508z" fill="#fddfbd" stroke="#000000" stroke-width="2.35"/><path d="M261.16532,208.56021c0,0 1.14843,-2.45272 1.60622,-5.34924c0.61908,-3.91701 2.54516,-8.60402 5.96801,-7.69555c3.57497,0.94884 7.1434,1.50446 8.71767,4.57131c0.97862,1.90645 -0.23048,7.43062 -0.23048,7.43062c0,0 -3.26404,1.50866 -9.43695,2.07153c-5.6595,0.51607 -6.62446,-1.02867 -6.62446,-1.02867z" fill="#f89587" stroke="none" stroke-width="0"/></g><g data-paper-data="{&quot;index&quot;:null}" stroke="none" stroke-width="0" stroke-linecap="butt"><path d="M260.48844,201.69136c-0.54838,-0.39073 -1.60391,-1.77761 -1.81628,-2.84133c-0.60741,-3.0424 5.71713,-6.39893 7.44109,-11.42865c1.78978,-5.22176 0.30537,-11.99446 2.00636,-14.12468c0.41466,-0.51928 3.14091,-1.05306 3.92657,-1.02015c7.60222,3.709 17.63214,14.02681 17.63214,14.02681l-1.46287,5.43303c0,0 -16.86133,17.69701 -27.72699,9.95498z" fill="#feebf7"/><path d="M285.93507,194.45365c0,0 -5.77108,9.71018 -16.98415,10.19342c-4.68485,0.20189 -11.47451,-3.53784 -11.47451,-3.53784c-2.73447,-2.52299 1.24526,-7.81799 4.98666,-12.16141c1.13248,-1.3147 2.62282,-2.54692 3.06746,-6.13918c0.52664,-4.25474 -0.37477,-11.72241 -0.37477,-11.72241c0,0 1.74911,-1.89877 2.59536,-0.2572c0.37174,0.72111 0.17016,4.39343 0.37378,5.41552c0.73275,3.67818 0.07838,9.86615 -0.68288,11.23244c-1.14457,2.05425 -7.39464,10.34265 -7.39464,10.34265c0,0 -0.6123,0.89644 -0.39459,1.5566c0.73519,2.2293 5.11128,3.3232 7.60196,3.35649c5.99952,0.08018 10.0344,-2.40593 13.25137,-4.55339c3.04086,-2.02988 5.42896,-3.72567 5.42896,-3.72567z" fill="#000000"/></g><g data-paper-data="{&quot;index&quot;:null}" stroke-linecap="butt"><g data-paper-data="{&quot;index&quot;:null}"><path d="M361.33851,165.88276c-0.13919,7.05692 -13.53228,11.35525 -43.02932,15.22207c-14.4149,1.88968 -33.64469,-1.63933 -43.23615,-5.47224c-6.29257,-2.51462 -2.44644,-37.52169 2.84664,-41.75289c13.90158,-11.1127 44.17025,-20.80377 60.0594,-13.30406c9.73584,4.59533 9.87756,26.54317 9.87756,26.54317c0,0 -2.01215,5.5083 -2.20311,13.54316c4.14655,-0.13126 15.79185,-0.19655 15.685,5.22078z" fill="#fddfbd" stroke="#000000" stroke-width="3"/><path d="M343.98466,155.295c0,0 -23.48167,-7.25342 -27.08899,-6.31686c-0.43629,1.27536 0.35028,15.42231 -0.16581,15.26969c-12.89223,-3.8127 -16.97732,-6.05599 -16.97732,-6.05599l-8.6102,20.30557c0,0 -6.93802,-5.71195 -10.033,-8.59827c-0.32887,-2.21003 -1.25753,6.13435 -1.25753,6.13435l-4.51764,-1.66086c0,0 -0.88277,-1.32518 -1.01577,-2.59046c-0.63059,-5.99924 -0.93832,-23.3525 7.47718,-31.64703c9.80641,-9.66544 63.92095,-11.80391 63.92095,-11.80391c0,0 0.86047,13.22888 0.54177,18.19081c-0.95751,3.48019 -1.69121,9.10114 -1.69121,9.10114z" fill="#f89587" stroke="none" stroke-width="0"/></g><g><g><path d="M249.79681,166.69064c0,0 -6.74935,5.68476 -13.45514,9.38745c-4.64794,2.56642 -9.35647,3.55884 -11.44541,3.61458c-5.10274,0.13615 -7.97748,-10.03439 -5.07739,-12.20218c1.70271,-1.27277 5.88845,-2.41272 9.5322,-3.19967c9.08827,-1.96283 20.16014,-2.43166 20.16014,-2.43166l0.28559,4.83145z" fill="#0066cc" stroke="#000000" stroke-width="3"/><path d="M232.11604,172.03463c7.28525,-2.19129 10.19677,-4.80629 12.13373,-6.26356c1.75021,-1.31677 2.34416,-2.0025 2.34416,-2.0025l1.04145,2.79719c0,0 -8.50941,7.30348 -15.13381,9.83356c-3.89415,1.4873 -8.10484,1.96217 -8.10484,1.96217c0,0 -1.66931,-0.87874 -2.13515,-1.43218c-0.49334,-0.58611 -1.23987,-2.08756 -1.23987,-2.08756c0,0 2.51474,-0.22653 11.09433,-2.80712z" fill="#0f1b82" stroke="none" stroke-width="0"/></g><g stroke="#000000"><path d="M350.46698,129.58886c0,0 -53.85159,16.9491 -62.70006,21.59912c-11.54552,6.06736 -22.53102,11.43952 -22.53102,11.43952c0,0 -12.94045,-2.17066 -18.8833,-13.70751c-1.81936,-3.53191 3.62584,-24.93784 4.51462,-27.47996c2.68978,-7.69348 2.99235,-17.8655 13.35578,-24.14095c27.76017,-16.80985 67.81914,-15.45078 76.47838,-10.67347c7.61226,4.19969 5.48667,22.6199 5.48667,22.6199z" fill="#ff2d32" stroke-width="3"/><path d="M246.47058,146.61577c-1.74044,-7.47234 12.00947,-45.62349 15.77133,-46.15038c12.76616,-1.78806 26.4078,50.05668 26.4078,50.05668l-25.84623,11.92842c0,0 -14.62026,-8.48168 -16.3329,-15.83472z" fill="#ab164a" stroke-width="1.5"/></g></g><g><path d="M244.97382,153.31092c0.44337,-0.97784 10.8781,3.95881 16.83035,9.65118c3.42039,3.27105 3.23126,8.26085 3.58468,11.28501c0.27081,2.31727 -3.3387,6.24447 -6.24329,7.19728c-4.66665,1.53082 -15.68934,-24.78641 -14.17174,-28.13348z" fill="#fddfbd" stroke="#000000" stroke-width="3"/><path d="M253.79204,173.90005c0,0 1.13528,0.16952 2.8735,-0.83364c2.19853,-1.26884 6.65233,-5.65736 6.65233,-5.65736c0,0 2.01528,3.53446 2.16094,4.64562c0.19886,1.51688 -2.67253,5.19627 -5.15698,7.0946c-1.35398,1.03456 -2.47595,0.73405 -2.64269,0.81009c-0.45594,0.20793 -3.88708,-6.05932 -3.88708,-6.05932z" fill="#f89587" stroke="none" stroke-width="0"/><path d="M254.07387,163.68778c-0.0659,-0.59137 8.7743,2.30739 8.55664,3.63798c-0.28091,1.71734 -1.40204,9.64378 -3.8464,7.9506c-0.9983,-0.69151 -4.39828,-8.78943 -4.71023,-11.58859z" fill="#f89587" stroke="#000000" stroke-width="1.5"/></g><g><g data-paper-data="{&quot;index&quot;:null}"><path d="M289.34061,166.99201c-1.28395,2.2558 -6.57266,-5.38319 -7.11677,-4.83022c-0.35762,0.36345 -4.43672,3.97516 -7.55954,7.89358c-3.17416,3.98285 -5.38981,8.86621 -5.58701,8.59796c-0.10728,-0.14595 -5.55794,-13.90745 -4.52819,-15.26295c5.68558,-7.48413 31.98506,-15.71151 31.98506,-15.71151c0,0 -5.54345,16.41403 -7.19356,19.31314z" fill="#50a5eb" stroke="#000000" stroke-width="3"/><path d="M287.39032,155.89377l6.77923,-6.08585l-5.79584,16.53133z" fill="#66ffff" stroke="none" stroke-width="0"/></g><g data-paper-data="{&quot;index&quot;:null}"><path d="M374.39139,156.38533c0,0 -17.68369,-5.5051 -26.19958,-6.7408c-0.89833,-0.13036 1.76664,-3.06348 0.32339,-3.39421c-7.96883,-1.82614 -25.1207,-3.17094 -33.3486,-3.86752c-0.64695,-0.05478 -2.23091,-0.17187 -2.54401,0.32937c-1.63374,2.61554 1.50763,10.72604 -0.52345,11.01564c-2.19665,0.31321 -4.59125,-0.73067 -6.9679,-2.52443c-3.71718,-2.8055 -6.92801,-5.90444 -6.92801,-5.90444c0,0 5.69417,-11.10201 8.29178,-47.60145c3.33961,1.21861 10.91888,7.26451 13.25577,12.27224c2.12289,4.54916 1.61718,8.61356 2.18599,7.86395c5.64901,-7.44461 17.27151,-14.5495 21.90221,-15.85316c8.0518,-2.26678 35.02378,30.76354 35.02378,30.76354c0,0 -14.32539,-0.14784 -22.52954,2.29113c6.55414,2.737 16.99756,17.48589 18.05817,21.35015z" fill="#66ffff" stroke="#000000" stroke-width="3"/><path d="M337.17951,129.38349c0,0 9.19025,6.50569 13.86292,10.14187c5.50858,4.28666 17.83983,13.50787 17.83983,13.50787l-19.11356,-4.54512c0,0 1.96728,-1.92611 -0.65303,-3.49942c-1.72258,-1.03429 -5.16291,-1.10181 -10.34191,-1.71941c-3.9296,-0.46861 -21.09647,-2.04179 -26.02232,-2.29467c-0.82097,-0.04215 -1.32319,1.2668 -1.32319,1.2668c0,0 -0.87477,2.2924 -0.86428,3.66057c0.01527,1.99185 0.85425,6.43058 0.85425,6.43058c0,0 -2.96972,-0.47584 -4.50389,-1.39335c-2.16762,-1.29635 -7.27142,-5.64893 -7.27142,-5.64893c0,0 1.08204,-3.27841 2.55754,-7.90337c2.73079,-8.55968 5.0881,-25.24483 5.24268,-37.69778c0.98116,1.42593 10.43453,28.0824 10.43453,28.0824c0,0 8.26227,-4.99798 15.65755,-9.02075c4.81043,-2.61669 9.75134,-4.98986 10.11147,-4.72796c7.83885,2.19399 22.74982,15.67287 22.74982,15.67287c0,0 -18.35557,-0.62506 -23.45479,-0.67954c-2.39419,-0.02558 -5.76221,0.36736 -5.76221,0.36736z" fill="#50a5eb" stroke="none" stroke-width="0"/></g></g></g><g data-paper-data="{&quot;index&quot;:null}"><path d="M297.67078,169.40387c2.00134,-0.41152 6.29701,5.4385 15.35313,6.48719c8.46243,0.97994 17.06067,-2.52167 17.06067,-2.52167c0,0 -2.40511,5.34484 -16.46551,5.17242c-11.47333,-0.14069 -21.91757,-7.9105 -15.94828,-9.13793z" fill="#000000" stroke="none" stroke-width="0" stroke-linecap="butt"/><path d="M308.01563,176.30045c0,0 -4.04081,4.31796 -8.01355,7.44827c-2.87557,2.2658 -5.87966,3.74519 -6.50283,3.30148c-1.30427,-0.92866 0.01494,-7.48101 1.65502,-12.15606c0.52934,-1.50887 2.0727,-3.01256 2.44893,-3.92566c0.35662,-0.8655 10.24001,5.33197 10.24001,5.33197" fill="#ff6666" stroke="#000000" stroke-width="2" stroke-linecap="round"/></g><g data-paper-data="{&quot;index&quot;:null}" fill="#000000" stroke="none" stroke-linecap="butt"><path d="M298.53288,144.8349c0,0 4.20392,3.52922 6.43275,5.40034c2.41188,2.02479 7.53276,6.3238 7.53276,6.3238c0,0 -0.13595,2.64756 -0.64458,5.43925c-0.6578,3.61048 -1.93893,7.578 -4.35542,7.578c-3.34813,0 -4.26862,-7.83845 -5.73636,-13.78157c-0.44858,-1.81634 -1.68047,-4.25701 -2.19147,-5.977c-0.9136,-3.07517 -1.03769,-4.98281 -1.03769,-4.98281z" stroke-width="0"/><path d="M334.45141,144.22368c0.69953,-0.23483 0.46076,3.62848 0.46076,3.62848c0,0 0.09457,6.65213 -1.07234,12.30475c-1.05162,5.09415 -3.25732,9.24698 -5.22076,9.24698c-4.14213,0 -2.67241,-5.99789 -2.67241,-12.75862c0,-5.2446 6.08491,-11.60929 8.50475,-12.42159z" stroke-width="0"/><path d="M347.15356,117.33491c0,0 0.79262,1.41769 0.48182,3.26992c-0.75931,4.52516 -4.80789,13.23847 -11.20038,22.68922c-4.39315,6.49489 -12.89312,15.61237 -19.075,19.99149c-0.14818,0.10497 -10.88875,-11.15476 -22.39044,-21.63612c-8.93019,-8.13798 -19.0521,-15.38352 -21.17171,-16.9662c-3.71927,-2.77713 -4.74775,-4.24486 -4.74775,-4.24486c0,0 2.20979,0.51682 5.99637,2.72548c4.34586,2.53488 15.65529,11.06143 15.97332,11.32379c9.17547,7.56928 26.47859,24.74383 26.47859,24.74383c0,0 13.21504,-12.90625 18.20188,-19.95161c4.89656,-6.91783 11.45329,-21.94494 11.45329,-21.94494z" stroke-width="NaN"/></g><g data-paper-data="{&quot;index&quot;:null}"><path d="M392.57417,211.01455c3.17585,0.70083 7.19012,3.22418 9.10702,6.68471c0.96046,1.73389 1.27024,4.26565 0.93328,5.7926c-0.49527,2.24436 -2.23473,3.80591 -4.63259,4.64795c-2.48952,0.87423 -5.6741,0.97612 -8.10235,0.44027c-4.7671,-1.05197 -5.53777,-4.32325 -4.5283,-8.89775c1.00947,-4.57451 2.45583,-9.71975 7.22294,-8.66778z" fill="#485e84" stroke="#000000" stroke-width="3" stroke-linecap="butt"/><path d="M344.83057,226.47884c-0.53544,-6.22013 4.88014,-8.47931 13.21178,-6.64074c8.33165,1.83857 13.88816,5.18643 12.62176,10.92524c-0.5203,2.35781 -2.24808,9.63976 -6.24411,9.01461c-6.75719,-1.05711 -5.30243,-6.72828 -6.73402,-7.02083c-4.06289,-0.83029 -12.37705,-0.72137 -12.8554,-6.27828z" fill="#f89587" stroke="#000000" stroke-width="3" stroke-linecap="butt"/><path d="M348.54112,209.64706c2.54738,-11.54369 7.93595,-27.62698 19.8466,-25.40718c4.68016,0.87226 4.72445,8.25351 6.50544,8.64653c4.55625,1.00544 8.30485,0.62036 10.93047,4.36171c1.27561,1.81765 1.02238,3.30497 2.37293,4.79744c2.74446,3.03287 5.38129,1.12166 7.18386,4.25982c0.3933,1.07421 3.51758,14.29382 0.71362,19.54614c-3.37279,6.31786 -8.81031,8.06595 -12.15047,8.28766c-5.41558,0.35948 -7.99957,-4.61031 -7.99957,-4.61031c0,0 -4.42803,0.79667 -6.56618,-0.13769c-2.08037,-0.90911 -2.90182,-3.56936 -5.72559,-5.21015c-0.69944,-0.40642 -1.75971,2.82658 -6.15952,1.43841c-9.61491,-3.03358 -10.06956,-10.90622 -8.9516,-15.97235z" fill="#fddfbd" stroke="#000000" stroke-width="3" stroke-linecap="butt"/><path d="M369.60196,212.86004c0,0 0.4391,0.51532 0.7022,2.39317c0.2164,1.54446 0.07847,4.37282 1.50725,5.47141c0.71664,0.55102 4.68712,1.62986 6.17129,1.34298c1.15175,-0.22263 1.97084,-1.00895 2.30745,-0.97716c1.66704,0.15743 3.8889,-6.85375 3.8889,-6.85375l2.35567,-2.03292c0,0 -0.06155,6.52673 -0.97613,11.6216c1.87882,2.89582 3.05213,4.92898 3.05213,4.92898l4.90951,-1.01566c0,0 -1.45006,1.75671 -3.32872,2.94753c-0.81829,0.51868 -2.2415,0.61689 -2.78602,0.9394c-3.52418,2.0873 -7.63889,1.41927 -9.92616,-1.97854c-0.27855,-0.4138 -0.98462,-1.83541 -2.08806,-1.51942c-3.87619,1.11001 -4.65311,0.26492 -6.14388,-0.75178c-1.89605,-1.2931 -4.23166,-3.3263 -4.23166,-3.3263c0,0 -0.03374,-1.11537 -0.82228,-1.11644c-1.01522,-0.00136 -2.3792,1.24298 -3.87009,1.59282c-0.61549,0.14443 -1.53196,-0.43091 -2.01294,-0.41264c-1.06334,0.0404 -2.85529,-0.72134 -3.85357,-1.44715c-0.94134,-0.68442 -1.11255,-1.32269 -1.37445,-1.68375c-1.01675,-1.40171 -1.75426,-6.54569 -0.15149,-7.79108c1.9453,-1.51155 6.42951,1.0054 6.42951,1.0054c0,0 2.94597,4.7447 5.92489,5.18334c2.24006,0.32984 4.31667,-6.52007 4.31667,-6.52007z" fill="#f89587" stroke="none" stroke-width="0" stroke-linecap="butt"/><path d="M367.58012,213.77557c0.27133,-2.73715 0.7845,-5.84458 1.89484,-7.65236c0.97911,-1.59411 3.28931,-2.91166 4.21652,-2.64309c0.42582,0.12334 0.28162,1.43788 0.28162,1.43788c0,0 -1.50355,0.81267 -2.08222,1.87801c-0.64163,1.18121 -1.36631,3.34312 -1.54978,5.19395c-0.32832,3.31211 -0.42248,6.44088 -1.53636,8.64384c-0.99113,1.9602 -3.59422,4.74421 -3.59422,4.74421l-2.32642,-0.82512c0,0 2.40502,-3.72496 3.16252,-4.79552c1.05522,-1.49135 1.35582,-4.18939 1.5335,-5.98179z" fill="#000000" stroke="none" stroke-width="0" stroke-linecap="butt"/><path d="M380.75109,220.71701c0.59272,-2.68595 0.85327,-5.63169 2.16936,-7.29567c1.16053,-1.46731 3.4963,-2.73863 4.3853,-2.36242c0.40827,0.17277 -0.07313,1.98564 -0.07313,1.98564c0,0 -1.29219,0.34066 -1.99264,1.3302c-0.77663,1.09715 -0.98714,2.93465 -1.38793,4.75085c-0.71722,3.25013 -1.94471,6.56958 -3.31098,8.62557c-1.21572,1.82943 -2.623,2.58123 -2.623,2.58123l-2.9524,-1.50891c0,0 2.06144,-1.29479 2.94008,-2.26839c1.22399,-1.35627 2.45719,-4.07926 2.84533,-5.83813z" fill="#000000" stroke="none" stroke-width="0" stroke-linecap="butt"/><g stroke-linecap="butt"><path d="M340.68122,204.06574c1.82892,-8.28793 7.74781,-14.02765 13.22021,-12.82004c5.4724,1.20761 8.42604,8.90527 6.59712,17.19318c-1.82892,8.28791 -7.74782,14.02764 -13.22022,12.82003c-5.4724,-1.20761 -8.42603,-8.90527 -6.59711,-17.19318z" fill="#485e84" stroke="#000000" stroke-width="3"/><path d="M354.6958,199.40263l-1.52627,-7.41487c0,0 3.19014,2.10163 4.09296,3.42377c1.85144,2.79944 1.89007,6.07178 1.89007,6.07178z" fill="#8fbbbe" stroke="none" stroke-width="0"/><path d="M354.78508,206.34973l0.09107,-3.14243c0,0 1.96672,0.21417 2.63223,0.4067c0.77925,0.22545 2.06452,1.04732 2.06452,1.04732l-0.70152,3.64434z" fill="#8fbbbe" stroke="none" stroke-width="0"/></g><g><path d="M330.67944,220.71473c-11.43336,-2.52303 -18.52732,-14.42282 -16.00429,-25.85619c2.52304,-11.43337 12.40653,-17.74339 23.8399,-15.22036c11.43336,2.52303 16.77233,15.87885 14.2493,27.31222c-2.52303,11.43337 -10.65154,16.28736 -22.08491,13.76433z" fill="#343545" stroke="#000000" stroke-width="3" stroke-linecap="butt"/><path d="M317.12739,191.33359c0,0 7.92874,-13.85898 17.93206,-11.65152c5.67259,1.25178 10.94257,5.31088 14.48557,9.70655c2.52421,3.13168 3.87937,7.3682 2.98754,11.40963c-1.83315,8.30712 -6.18434,10.445 -16.18766,8.23754c-4.99559,-1.10239 -10.48577,-5.38115 -13.80303,-9.84562c-3.32534,-4.47533 -5.41449,-7.85658 -5.41449,-7.85658z" fill="#485e84" stroke="none" stroke-width="0" stroke-linecap="butt"/><path d="M338.49961,180.30349c0,0 6.59906,7.37481 4.15216,20.70331c-2.46697,13.43773 -10.77955,17.96303 -10.77955,17.96303" fill="none" stroke="#000000" stroke-width="1.6" stroke-linecap="round"/><path d="M347.05718,184.69251c0,0 2.66957,8.71877 2.08511,17.37725c-0.84229,12.47803 -5.83161,16.32821 -5.83161,16.32821" fill="none" stroke="#000000" stroke-width="1.6" stroke-linecap="round"/><path d="M329.24202,180.16581c0,0 5.34468,7.47541 3.64688,20.95491c-1.63298,12.96487 -6.43015,15.94003 -6.43015,15.94003" fill="none" stroke="#000000" stroke-width="1.6" stroke-linecap="round"/><path d="M323.87221,216.37092c0,0 -2.73639,-8.8451 -3.00848,-15.62898c-0.35838,-8.93538 1.66027,-17.65275 1.66027,-17.65275" fill="none" stroke="#000000" stroke-width="1.6" stroke-linecap="round"/><path d="M350.29955,211.00949c0,0 -7.36683,3.22237 -19.52221,1.05043c-11.34302,-2.02679 -15.1097,-8.69275 -15.1097,-8.69275" fill="none" stroke="#000000" stroke-width="1.6" stroke-linecap="round"/><path d="M316.02703,199.04065c0,0 5.62656,1.63877 11.97549,2.46122c5.58331,0.72328 11.74496,0.60369 14.85756,1.10807c3.69693,0.59907 9.72599,2.35492 9.72599,2.35492" fill="none" stroke="#000000" stroke-width="1.6" stroke-linecap="round"/><path d="M316.15771,193.59197c0,0 10.16869,-3.96506 18.06505,-2.45426c12.39366,2.37126 19.28883,8.55387 19.28883,8.55387" fill="none" stroke="#000000" stroke-width="1.6" stroke-linecap="round"/><path d="M318.51937,187.20671c0,0 7.28694,-3.23328 15.34115,-2.80655c11.59839,0.6145 16.96179,4.81463 16.96179,4.81463" fill="none" stroke="#000000" stroke-width="1.6" stroke-linecap="round"/><path d="M333.34619,183.6912c-0.94065,-0.20758 -1.55737,-1.03673 -1.37747,-1.85197c0.1799,-0.81523 1.08829,-1.30784 2.02895,-1.10026c0.94065,0.20758 1.55737,1.03673 1.37747,1.85197c-0.1799,0.81523 -1.08829,1.30784 -2.02895,1.10026z" fill="#8fbbbe" stroke="none" stroke-width="0" stroke-linecap="butt"/><path d="M327.61364,183.49787c-0.47033,-0.10379 -0.76747,-0.56921 -0.66368,-1.03953c0.10379,-0.47033 0.56921,-0.76747 1.03953,-0.66368c0.47033,0.10379 0.76747,0.56921 0.66368,1.03953c-0.10379,0.47033 -0.56921,0.76747 -1.03953,0.66368z" fill="#8fbbbe" stroke="none" stroke-width="0" stroke-linecap="butt"/></g></g><path d="M167.4387,310.75449v-258.66667h258.66667v258.66667z" data-paper-data="{&quot;index&quot;:null}" fill="none" stroke="none" stroke-width="0" stroke-linecap="butt"/><g data-paper-data="{&quot;index&quot;:null}" stroke="none" stroke-width="0" stroke-linecap="butt"><path d="M246.29921,218.89505c1.09326,-4.82229 4.18654,-7.05921 7.16613,-6.37078c1.66689,0.38514 2.03493,3.28347 5.05535,3.28934c3.67631,0.00714 7.58261,-4.31574 10.68682,-3.82691c3.44415,0.54235 6.69721,8.85093 6.69721,8.85093c0,0 -2.82625,6.78676 -6.13257,12.12682c-3.47736,5.61628 -8.75515,8.86244 -11.45068,7.99319c-2.88741,-0.93115 -14.47152,-11.25897 -12.02226,-22.06261z" fill="#0066cc"/><path d="M272.1766,228.20528c0,0 -2.1299,3.2582 -3.11485,5.06038c-2.16739,3.96571 -6.37315,9.1222 -9.86803,8.16593c-1.00918,-0.27613 -4.87689,-0.00678 -7.01758,-1.11578c-2.14907,-1.11333 -2.5723,-3.60955 -4.19686,-6.22335c-2.18266,-3.51175 -2.37399,-9.89269 -2.20208,-14.14366c0.04404,-1.08929 2.18745,-2.08889 2.43558,-3.18341c6.39811,9.64429 6.54572,17.38867 7.97225,17.40777z" fill="#0f1b82"/><path d="M276.74305,222.39881c0,0 -4.99002,-8.84164 -6.95798,-9.80428c-0.40876,-0.19994 -7.93279,3.45808 -11.11746,4.00974c-0.55924,0.09687 -2.03454,-0.16578 -3.10205,-0.97402c-0.91481,-0.69264 -1.38917,-1.84901 -2.31939,-2.81269c-0.84586,0.15369 -6.93889,6.4219 -6.93889,6.4219c0,0 1.1543,18.98493 7.75242,20.9537c1.69779,0.5066 8.48597,-0.80628 10.78988,-3.66025c1.75475,-2.17371 4.67247,-4.81631 6.13109,-6.86728c1.33203,-1.87294 2.41592,-2.81616 2.41592,-2.81616c0,0 -1.64392,4.00937 -3.83779,8.13064c-2.42285,4.55142 -12.28778,8.77112 -16.33159,6.91327c-0.94391,-0.43366 -4.26777,-2.86218 -6.26106,-5.92254c-4.26136,-6.54261 -3.0745,-15.74342 -2.67706,-17.82438c0.2049,-1.07281 2.63769,-2.92297 3.74992,-3.94171c1.49766,-1.37178 3.25744,-3.22028 6.03767,-3.20733c1.47557,0.00687 2.73554,3.16312 4.22681,3.08994c4.70784,-0.23103 10.31991,-4.97539 12.77902,-4.0602c2.45911,0.91519 5.66057,12.37166 5.66057,12.37166z" fill="#000000"/></g></g></g></svg>