<svg version="1.1" xmlns="http://www.w3.org/2000/svg" xmlns:xlink="http://www.w3.org/1999/xlink" width="258.66667" height="258.66667" viewBox="0,0,258.66667,258.66667"><g transform="translate(-107.43868,-52.08777)"><g data-paper-data="{&quot;isPaintingLayer&quot;:true}" fill-rule="nonzero" stroke-linejoin="miter" stroke-miterlimit="10" stroke-dasharray="" stroke-dashoffset="0" style="mix-blend-mode: normal"><path d="M193.44363,245.39108l-2.95454,-15.45454c0,0 3.48066,-8.00264 9.55163,-8.62332c12.53426,-1.28146 61.58473,1.3506 61.58473,1.3506c0,0 3.98684,-0.98702 5.20432,1.38706c0.60508,1.17991 -0.08116,5.4714 0.53651,8.14476c1.08544,4.69793 3.35008,8.19545 3.35008,8.19545z" data-paper-data="{&quot;index&quot;:null}" fill="#0f1b82" stroke="#000000" stroke-width="2.5" stroke-linecap="butt"/><g data-paper-data="{&quot;index&quot;:null}" stroke-linecap="butt"><path d="M215.24621,193.22406c6.60388,0 24.92223,-1.68021 31.71839,5.00774c-5.03265,19.67402 10.5252,25.79995 10.5252,25.79995c0,0 -9.93367,6.24359 -31.73077,5.73077c-15.25441,-0.35889 -26.98718,-10.83334 -26.98718,-10.83334c0,0 1.21572,-25.70512 16.47436,-25.70512z" fill="#ffffff" stroke="#000000" stroke-width="2.5"/><path d="M205.48875,212.7266c0,0 0.6531,-3.38082 -0.39368,-8.08776c-0.19583,-0.88056 -8.6416,-0.68501 -12.32516,-2.45914c-5.3271,-2.56572 -7.66904,-7.26648 -7.85679,-8.6797c-0.48601,-3.65822 6.43348,-5.53197 10.08549,-8.00035c5.97553,-4.03883 10.82705,-7.57305 16.71514,-7.57305c16.97648,0 30.73864,8.95431 30.73864,20c0,11.0457 -13.87579,14.09091 -29.94318,10.11364c-4.2492,3.18181 -7.02045,4.68636 -7.02045,4.68636z" fill="#db93e6" stroke="none" stroke-width="0"/><g stroke="none" stroke-width="0.5"><path d="M218.73857,216.08672c-1.63236,0.53811 -0.07853,2.07054 -0.07853,2.07054c1.41518,0.43328 3.54426,0.37043 5.00133,0.3748c5.42615,0.01626 9.70721,-2.13499 12.82316,-6.48443c0.10486,-0.39648 0.17087,-0.80438 0.20491,-1.2159c-2.74423,1.72522 -5.55617,3.59895 -8.70846,4.25285c0,0 -7.78849,0.52285 -9.24241,1.00214zM235.29015,207.6553c0.52005,-0.33338 1.03568,-0.65783 1.54815,-0.96052c0.19295,-0.20246 0.46891,-0.37527 0.86042,-0.48204c1.68834,-0.46045 2.1488,1.22788 2.1488,1.22788l0.41493,1.65357c0.08203,1.48178 -0.13091,2.98873 -0.51483,4.42225c-3.79142,5.60386 -9.12597,8.4983 -15.98637,8.51558c-1.73471,0.00437 -4.55445,0.04961 -6.18915,-0.57758c-5.09555,-1.95504 -5.23701,-7.63143 -3.81122,-11.9639l1.61836,-1.34489l2.8332,1.22443l-1.13117,1.22725c-0.12662,0.37417 -0.25448,0.80505 -0.36489,1.26803h1.2047c1.60415,0 3.30835,0.11581 4.99945,0.13387c3.97652,-1.1131 8.17162,-2.13822 11.78992,-4.09136l0.28515,-0.14347c0,0 0.11347,-0.05672 0.29456,-0.10909z" fill="#ff0000"/><path d="M219.81431,207.78789c-0.42503,0.33527 -2.11649,1.49903 -2.11649,1.49903l-2.61206,-0.88793c0,0 2.43536,-3.76665 5.19804,-5.85294c5.16718,-3.90209 13.56669,-5.31795 17.86354,0.87372c0.32584,0.46951 1.1421,3.00789 1.1421,3.00789l-3.29809,0.87086c0,0 -0.2981,-1.38257 -0.70637,-1.85475c-1.29595,-1.49884 -4.72408,-3.32558 -6.86294,-2.98663c-3.65961,0.57995 -5.92575,3.21514 -8.60772,5.33075z" fill="#ab164a"/></g></g><g data-paper-data="{&quot;index&quot;:null}" stroke-linecap="butt"><g data-paper-data="{&quot;index&quot;:null}"><path d="M285.75712,200.6824c-1.76719,6.83349 -15.79122,7.91847 -45.38299,4.85994c-14.46118,-1.49467 -32.35384,-9.37453 -40.79908,-15.32138c-5.54059,-3.90149 6.29594,-37.07052 12.42395,-39.96314c16.09441,-7.5971 47.78364,-10.02655 61.50804,0.94393c8.40941,6.722 3.47233,28.10781 3.47233,28.10781c0,0 -3.23129,4.89375 -5.27497,12.66671c4.06453,0.8311 15.40933,3.46031 14.05273,8.70611z" fill="#fddfbd" stroke="#000000" stroke-width="3"/><path d="M271.32176,186.36887c0,0 -21.1681,-12.48649 -24.89422,-12.40942c-0.71936,1.13991 -3.22529,15.08536 -3.6921,14.81754c-11.66124,-6.69042 -15.11691,-9.81751 -15.11691,-9.81751l-13.07209,17.76435c0,0 -5.42924,-7.16142 -7.77294,-10.68517c0.19106,-2.22618 -2.64189,5.67733 -2.64189,5.67733l-4.01118,-2.66046c0,0 -0.55243,-1.49338 -0.38925,-2.75512c0.77369,-5.98246 4.48687,-22.9366 14.59224,-29.06044c11.77557,-7.13598 64.91806,3.29632 64.91806,3.29632c0,0 -2.22175,13.06934 -3.67915,17.8231c-1.73629,3.16447 -3.74983,8.46344 -3.74983,8.46344z" fill="#f89587" stroke="none" stroke-width="0"/></g><g><g><path d="M177.05145,175.67673c0,0 -7.88091,3.97006 -15.26114,6.02183c-5.11542,1.42213 -9.92582,1.29891 -11.97103,0.87012c-4.99593,-1.04744 -5.44105,-11.60707 -2.1183,-13.04553c1.95087,-0.84455 6.28676,-0.98575 10.01373,-0.90883c9.29584,0.19184 20.17606,2.29584 20.17606,2.29584l-0.83931,4.76655z" fill="#0066cc" stroke="#000000" stroke-width="3"/><path d="M147.17144,176.95334c0,0 2.49897,0.36109 11.44275,-0.16572c7.59451,-0.44735 11.03178,-2.31825 13.25321,-3.28815c2.00726,-0.87638 2.74367,-1.40619 2.74367,-1.40619l0.36644,2.9622c0,0 -9.96758,5.13792 -16.99748,6.06769c-4.13253,0.54655 -8.33891,0.03493 -8.33891,0.03493c0,0 -1.42089,-1.24093 -1.74613,-1.88708c-0.34444,-0.6843 -0.72356,-2.31768 -0.72356,-2.31768z" fill="#0f1b82" stroke="none" stroke-width="0"/></g><g stroke="#000000"><path d="M283.57239,162.85825c0,0 -56.3113,4.03775 -65.99519,6.51573c-12.63558,3.23328 -24.56556,5.91969 -24.56556,5.91969c0,0 -12.08784,-5.10404 -15.20199,-17.70239c-0.95338,-3.85688 9.29392,-23.42362 10.74642,-25.69133c4.39584,-6.86302 7.04227,-16.68942 18.57591,-20.39848c30.89477,-9.93535 69.55386,0.64966 76.87378,7.29977c6.43487,5.84604 0.10761,23.27556 0.10761,23.27556z" fill="#ff2d32" stroke-width="3"/><path d="M190.68606,174.55904c0,0 -12.26283,-11.63244 -12.22883,-19.18222c0.03455,-7.67228 22.23347,-41.61014 26.01521,-41.2529c12.83364,1.2123 14.11759,54.80636 14.11759,54.80636l-27.90398,5.62876z" fill="#ab164a" stroke-width="1.5"/></g></g><g><path d="M175.45297,161.5444c0.65746,-0.84882 9.66792,6.36685 14.14262,13.28128c2.57134,3.9733 1.23354,8.78414 0.87811,11.80806c-0.09696,0.8249 -2.48426,1.44047 -3.38339,2.28155c-1.62649,1.52149 -2.39318,3.11259 -4.35492,3.27705c-4.89416,0.41028 -9.53283,-27.7425 -7.28242,-30.64795z" fill="#fddfbd" stroke="#000000" stroke-width="3"/><path d="M179.27139,183.6146c0,0 1.06532,0.42744 2.98839,-0.14661c2.43234,-0.72609 7.78019,-3.96583 7.78019,-3.96583c0,0 1.14338,3.90467 1.02817,5.0194c-0.15729,1.52176 -3.80163,4.43748 -6.6577,5.70989c-1.55651,0.69344 -2.57859,0.14165 -2.75839,0.17707c-0.49166,0.09687 -2.38065,-6.79391 -2.38065,-6.79391z" fill="#f89587" stroke="none" stroke-width="0"/><path d="M181.90693,173.74422c0.07263,-0.59058 8.00298,4.27373 7.48355,5.51793c-0.6704,1.60585 -3.59396,9.05823 -5.58057,6.84574c-0.81135,-0.90361 -2.24672,-9.56824 -1.90297,-12.36367z" fill="#f89587" stroke="#000000" stroke-width="1.5"/></g><g><g data-paper-data="{&quot;index&quot;:null}"><path d="M215.45388,185.11362c-1.77077,1.89777 -5.14979,-6.75709 -5.80702,-6.34492c-0.43196,0.2709 -5.23565,2.84153 -9.17989,5.93168c-4.00909,3.14095 -7.29386,7.37965 -7.42369,7.07307c-0.07063,-0.16679 -2.19151,-14.8157 -0.87624,-15.89636c7.26205,-5.96663 34.7512,-7.88986 34.7512,-7.88986c0,0 -9.18861,14.68739 -11.46436,17.12638z" fill="#50a5eb" stroke="#000000" stroke-width="3"/><path d="M216.12269,173.86515l8.00274,-4.35337l-9.46129,14.74317z" fill="#66ffff" stroke="none" stroke-width="0"/></g><g data-paper-data="{&quot;index&quot;:null}"><path d="M300.6523,194.46053c0,0 -15.93152,-9.44489 -23.93089,-12.61622c-0.84384,-0.33455 2.42712,-2.57195 1.09946,-3.22744c-7.33061,-3.61927 -23.7067,-8.89363 -31.55055,-11.47386c-0.61675,-0.20289 -2.13071,-0.68306 -2.55122,-0.2678c-2.19426,2.16689 -1.0134,10.78396 -3.0564,10.59607c-2.20954,-0.20321 -4.29788,-1.77249 -6.19535,-4.06719c-2.96774,-3.58899 -5.37498,-7.34638 -5.37498,-7.34638c0,0 8.10696,-9.48448 19.07389,-44.39413c2.96733,1.95779 8.94322,9.5924 10.05884,15.00477c1.01346,4.91675 -0.41836,8.75407 0.30837,8.15629c7.21733,-5.93664 20.16769,-10.16153 24.97435,-10.35911c8.35774,-0.34355 26.96122,38.02833 26.96122,38.02833c0,0 -13.90298,-3.45628 -22.44875,-2.98044c5.74365,4.17832 12.49368,20.94233 12.63202,24.94711z" fill="#66ffff" stroke="#000000" stroke-width="3"/><path d="M270.6925,159.58605c0,0 7.43689,8.45443 11.14214,13.07252c4.3681,5.44423 14.23296,17.26687 14.23296,17.26687l-17.54461,-8.84155c0,0 2.35933,-1.41902 0.17383,-3.55558c-1.43673,-1.40456 -4.76822,-2.26575 -9.66406,-4.06415c-3.71475,-1.36456 -20.05263,-6.86457 -24.78651,-8.24959c-0.78897,-0.23084 -1.58025,0.92651 -1.58025,0.92651c0,0 -1.38114,2.028 -1.68729,3.36152c-0.44572,1.94139 -0.65583,6.45383 -0.65583,6.45383c0,0 -2.77922,-1.14963 -4.05966,-2.39702c-1.80912,-1.76243 -5.76817,-7.1772 -5.76817,-7.1772c0,0 1.81079,-2.93937 4.31572,-7.09782c4.63603,-7.69627 10.78754,-23.38417 13.81741,-35.46389c0.62485,1.61416 3.65829,29.73411 3.65829,29.73411c0,0 9.19404,-2.95205 17.31908,-5.15581c5.28512,-1.43348 10.64087,-2.59986 10.93068,-2.26178c7.1191,3.9471 18.50927,20.50854 18.50927,20.50854c0,0 -17.71359,-4.85245 -22.66202,-6.08454c-2.3234,-0.5785 -5.691,-0.97499 -5.691,-0.97499z" fill="#50a5eb" stroke="none" stroke-width="0"/></g></g></g><g data-paper-data="{&quot;index&quot;:null}" stroke-linecap="butt"><g><g><path d="M228.19374,251.17067c0,-5.00376 -0.65719,-14.86192 6.11082,-18.93305c1.68615,-1.01427 6.08201,-3.95027 9.89512,-0.8417c0.4339,0.35373 -0.74789,1.29068 0.03688,2.60068c0.28968,0.48357 2.20461,0.53402 2.70083,1.10283c1.56753,1.79683 4.91251,3.54365 5.62688,3.47171c2.27408,-4.7886 9.27223,-10.56849 11.59332,-11.01168c4.17101,-0.79642 19.99545,2.28331 19.82667,4.98264c0.51064,2.19611 -3.46864,5.8133 -3.46864,5.8133c0,0 16.64882,7.93817 22.88434,11.09745c10.73711,5.44003 12.07652,8.86238 12.07652,8.86238c0,0 -0.48705,3.0732 -4.88998,4.16583c-8.63059,2.14176 -19.33599,2.76484 -31.89631,2.47373c-12.20352,-0.28284 -11.82557,-5.74179 -24.63151,-6.94303c-10.79767,-1.01286 -25.86492,1.46846 -25.86492,-6.84108z" fill="#ff2d32" stroke="#000000" stroke-width="3"/><path d="M294.4916,263.52813c0,0 -11.85488,1.08691 -17.82667,0.35148c-6.02577,-0.74208 -14.25664,-6.01596 -20.10127,-6.73195c-12.369,-1.51524 -20.06899,0.29678 -23.25087,-1.53804c-0.20467,-0.11802 -5.03859,-1.66643 -4.40474,-6.73632c1.52374,-12.18774 7.82855,-14.04293 7.82855,-14.04293c0,0 7.29104,6.98234 15.83496,7.86169c1.67329,0.17221 0.51574,-2.33037 0.51574,-2.33037c0,0 -0.24373,-1.20337 0.15287,-2.00474c0.59394,-1.20011 3.06436,-4.49604 3.06436,-4.49604c0,0 0.80135,1.80232 3.05145,3.92011c2.7162,2.55647 7.91117,5.02556 13.2891,8.16685c5.97847,3.49206 16.00775,6.53886 18.40833,8.44844c2.61437,2.07962 3.43817,9.13181 3.43817,9.13181z" fill="#ab164a" stroke="none" stroke-width="0"/><path d="M243.79022,234.87942c0,0 1.22576,0.16333 5.41206,2.12324c3.4082,1.59563 7.6508,5.25882 7.6508,5.25882c0,0 -2.61838,-1.65329 -8.13402,-2.64561c-5.74127,-1.0329 -4.92885,-4.73643 -4.92885,-4.73643z" fill="#000000" stroke="none" stroke-width="0"/></g><g fill="#db93e6" stroke="#000000" stroke-width="2.5"><path d="M264.26916,249.26653c-1.74517,-1.05377 -2.09595,-3.21967 -1.72578,-4.53027c0.87822,-3.10949 3.89011,-4.97089 5.81455,-5.40276c8.15475,-1.83004 14.56355,-0.94496 14.41295,0.51825c-0.27139,2.63663 -6.18715,2.85027 -9.97305,5.14838c-1.91503,1.16246 -2.4902,2.42642 -3.63063,3.39753c-1.08874,0.92709 -2.94237,2.04974 -4.89805,0.86886z"/></g><g fill="#db93e6" stroke="#000000" stroke-width="2.5"><path d="M272.56508,252.91241c-0.58285,-0.60158 0.69619,-4.4472 3.98628,-7.21518c7.81677,-6.57632 11.59441,-6.45601 13.06823,-4.2847c1.33351,1.96461 -4.46563,4.60182 -8.5315,8.07327c-3.62929,3.09869 -7.35743,4.62965 -8.52302,3.4266z"/></g><g fill="none" stroke="none" stroke-width="1" font-family="sans-serif" font-weight="normal" font-size="12" text-anchor="start"/></g><g><path d="M284.50937,271.78033c-6.47628,0 -16.69454,-6.80166 -24.45224,-7.49406c-11.42225,-1.01947 -29.74181,-2.56737 -33.23429,-5.53476c-3.19493,-2.71457 -4.69691,-6.76632 0.02961,-7.33841c1.03623,5.42569 6.82677,5.88264 11.3649,5.97616c5.49245,0.11319 13.0576,0.0038 19.06288,0.99621c2.70612,0.44721 5.09531,1.09836 7.28731,1.82069c6.42261,2.11645 11.15251,4.8441 17.20243,4.8441c13.94953,0 23.39924,-1.39152 28.68692,-2.9129c2.87127,-0.82614 3.78988,-4.37194 5.19693,-4.54529c1.84182,-0.22691 3.83844,5.792 3.83844,5.792c0,0 0.02013,3.74242 -4.67865,6.23649c-4.91813,2.61049 -14.22592,2.15976 -30.30425,2.15976z" fill="#ffffff" stroke="#000000" stroke-width="3"/><path d="M226.55823,251.28613c0,0 -0.40562,1.47246 1.42947,3.4093c1.19542,1.26172 3.07053,2.78284 7.86057,3.75385c4.2056,0.85254 18.71755,0.12826 22.17273,0.92828c4.78026,1.10682 7.99268,2.74099 11.8583,4.17904c1.51133,0.56223 3.1225,1.35994 4.96626,1.68573c7.50363,1.32587 10.39434,0.99069 13.53405,0.86489c3.59774,-0.14415 8.87395,4.51141 8.87395,4.51141l-2.34828,-0.69525c0,0 -4.73668,2.27379 -13.49474,0.15506c-4.96718,-1.20166 -10.18589,-3.31321 -19.6439,-6.87874c-4.89446,-1.84514 -24.87249,-0.71708 -29.28785,-2.25244c-3.03791,-1.05638 -5.53671,-1.97701 -6.60781,-5.00976c-1.16218,-3.29066 0.68726,-4.65136 0.68726,-4.65136z" fill="#db93e6" stroke="none" stroke-width="0"/></g></g><g data-paper-data="{&quot;index&quot;:null}"><path d="M310.68798,221.72285c-0.85546,-4.60578 -1.53135,-9.90755 3.26836,-10.79902c3.19757,-0.59391 7.87823,0.16312 10.99344,2.60141c1.56088,1.2217 2.83395,3.4319 3.1195,4.9693c0.41971,2.25971 -0.57258,4.37619 -2.45182,6.0871c-1.95108,1.77631 -4.84349,3.11271 -7.28834,3.5668c-4.79971,0.89148 -6.78569,-1.8198 -7.64115,-6.42559z" fill="#485e84" stroke="#000000" stroke-width="3" stroke-linecap="butt"/><path d="M276.03103,243.79125c-2.92,-5.51817 1.18482,-9.71137 9.57344,-11.26943c8.38862,-1.55805 14.81099,-0.64364 15.88418,5.13442c0.44093,2.37395 1.69142,9.75285 -2.23179,10.73645c-6.63404,1.66324 -7.50741,-4.12602 -8.93968,-3.8368c-4.06482,0.82081 -11.67747,4.16517 -14.28613,-0.76463z" fill="#f89587" stroke="#000000" stroke-width="3" stroke-linecap="butt"/><path d="M272.87991,226.84586c-2.15872,-11.62264 -3.47276,-28.53365 8.35994,-31.13718c4.64953,-1.02302 7.57038,5.75589 9.36355,5.42283c4.58742,-0.85205 7.88864,-2.66925 11.76596,-0.24894c1.88372,1.17585 2.2309,2.64408 4.05674,3.49129c3.71031,1.72162 5.3924,-1.06696 8.27656,1.11912c0.78127,0.8356 8.81602,11.78832 8.2837,17.71838c-0.64031,7.1331 -4.96475,10.86427 -7.95364,12.3717c-4.84606,2.44407 -9.16437,-1.12355 -9.16437,-1.12355c0,0 -3.76619,2.46128 -6.09944,2.43526c-2.2702,-0.02532 -4.06453,-2.1542 -7.30469,-2.56313c-0.80258,-0.10129 -0.51733,3.28916 -5.11004,3.72776c-10.03644,0.95848 -13.52685,-6.11275 -14.47425,-11.21353z" fill="#fddfbd" stroke="#000000" stroke-width="3" stroke-linecap="butt"/><path d="M293.52512,221.58645c0,0 0.60536,0.30314 1.58032,1.92949c0.80187,1.3376 1.77846,3.99559 3.52265,4.44961c0.87482,0.22772 4.95154,-0.32818 6.20613,-1.17142c0.97358,-0.65438 1.42094,-1.69797 1.74327,-1.80004c1.59632,-0.5055 0.9064,-7.82789 0.9064,-7.82789l1.37573,-2.79093c0,0 2.48997,6.0334 3.63583,11.08129c2.8598,1.93319 4.73342,3.34738 4.73342,3.34738l4.12407,-2.85078c0,0 -0.64968,2.18326 -1.91479,4.01272c-0.55105,0.79687 -1.82313,1.44261 -2.19865,1.95202c-2.4304,3.29695 -6.47962,4.28737 -9.91137,2.05135c-0.41792,-0.27231 -1.62274,-1.30574 -2.51541,-0.58425c-3.13584,2.53447 -4.18092,2.05951 -5.95023,1.70507c-2.25031,-0.4508 -5.19412,-1.41151 -5.19412,-1.41151c0,0 -0.46627,-1.01379 -1.19272,-0.7071c-0.93527,0.39488 -1.70562,2.07279 -2.94183,2.97663c-0.51036,0.37314 -1.57868,0.20099 -2.0144,0.40549c-0.96329,0.4521 -2.91043,0.44993 -4.11278,0.17117c-1.13378,-0.26286 -1.54047,-0.78374 -1.92249,-1.01399c-1.48309,-0.89388 -4.16925,-5.34237 -3.17946,-7.11442c1.20132,-2.15078 6.31217,-1.58301 6.31217,-1.58301c0,0 4.56378,3.21914 7.47773,2.46068c2.19121,-0.57034 1.43047,-7.68757 1.43047,-7.68757z" fill="#f89587" stroke="none" stroke-width="0" stroke-linecap="butt"/><path d="M292.02073,223.21833c-0.81818,-2.62606 -1.55816,-5.68741 -1.2412,-7.78514c0.2795,-1.84978 1.89249,-3.96431 2.851,-4.07881c0.44019,-0.05258 0.82034,1.21403 0.82034,1.21403c0,0 -1.06728,1.33493 -1.1844,2.54161c-0.12987,1.33793 0.04644,3.61124 0.59968,5.38695c0.99003,3.17768 2.12415,6.0952 1.95812,8.55816c-0.14772,2.19155 -1.4582,5.77058 -1.4582,5.77058l-2.46397,0.14802c0,0 0.76096,-4.36811 1.0407,-5.64938c0.38968,-1.78487 -0.38628,-4.38634 -0.92206,-6.106z" fill="#000000" stroke="none" stroke-width="0" stroke-linecap="butt"/><path d="M306.85613,224.47042c-0.50229,-2.70432 -1.41177,-5.51823 -0.84927,-7.56384c0.49602,-1.80384 2.1506,-3.88578 3.11592,-3.88626c0.44333,-0.00023 0.70744,1.85679 0.70744,1.85679c0,0 -1.05683,0.81785 -1.31566,2.00226c-0.28698,1.31322 0.23616,3.08721 0.5758,4.91584c0.60779,3.27235 0.77279,6.80765 0.31704,9.23377c-0.40554,2.15878 -1.40793,3.40009 -1.40793,3.40009l-3.30713,-0.23732c0,0 1.39284,-1.99651 1.82195,-3.23577c0.59777,-1.72634 0.67075,-4.71468 0.34183,-6.48558z" fill="#000000" stroke="none" stroke-width="0" stroke-linecap="butt"/><g stroke-linecap="butt"><path d="M263.46526,224.77373c-1.54988,-8.34461 1.66029,-15.93885 7.17012,-16.96222c5.50983,-1.02337 11.23286,4.91167 12.78275,13.25627c1.54989,8.3446 -1.66029,15.93885 -7.17012,16.96222c-5.50983,1.02337 -11.23285,-4.91167 -12.78274,-13.25627z" fill="#485e84" stroke="#000000" stroke-width="3"/><path d="M274.54951,215.01194l-4.29847,-6.2316c0,0 3.75732,0.69029 5.10446,1.55537c2.79698,1.85513 4.10937,4.85302 4.10937,4.85302z" fill="#8fbbbe" stroke="none" stroke-width="0"/><path d="M277.34241,221.37359l-1.14229,-2.92888c0,0 1.8944,-0.5702 2.58228,-0.6526c0.80545,-0.09648 2.30952,0.15875 2.30952,0.15875l0.77606,3.6292z" fill="#8fbbbe" stroke="none" stroke-width="0"/></g><g><path d="M275.71621,222.71508c2.1381,11.51155 -3.45214,19.15244 -14.96371,21.29054c-11.51156,2.13811 -22.68637,-6.05049 -24.82447,-17.56206c-2.13809,-11.51156 4.4999,-21.17784 16.01147,-23.31594c11.51155,-2.1381 21.6386,8.07588 23.7767,19.58745z" fill="#343545" stroke="#000000" stroke-width="3" stroke-linecap="butt"/><path d="M236.81051,222.24118c0,0 1.89269,-15.85415 11.96442,-17.72482c5.71137,-1.06081 12.14744,0.62028 17.12474,3.28509c3.54607,1.89854 6.44686,5.27049 7.20262,9.33956c1.55347,8.36392 -1.61865,12.03013 -11.69038,13.9008c-5.02975,0.9342 -11.75427,-0.86322 -16.55057,-3.67946c-4.80797,-2.82309 -8.05085,-5.12117 -8.05085,-5.12117z" fill="#485e84" stroke="none" stroke-width="0" stroke-linecap="butt"/><path d="M252.18487,203.74622c0,0 8.95354,4.21538 11.90119,17.44216c2.9718,13.33517 -2.91618,20.74523 -2.91618,20.74523" fill="none" stroke="#000000" stroke-width="1.6" stroke-linecap="round"/><path d="M261.77668,204.4483c0,0 5.85991,6.98606 8.7002,15.18628c4.09323,11.81762 1.00168,17.30939 1.00168,17.30939" fill="none" stroke="#000000" stroke-width="1.6" stroke-linecap="round"/><path d="M243.60737,207.23167c0,0 7.83785,4.79744 11.53414,17.87096c3.55516,12.57438 0.29911,17.18551 0.29911,17.18551" fill="none" stroke="#000000" stroke-width="1.6" stroke-linecap="round"/><path d="M252.78993,242.66221c0,0 -5.97074,-7.0763 -8.86824,-13.2163c-3.81644,-8.08729 -5.3592,-16.90133 -5.3592,-16.90133" fill="none" stroke="#000000" stroke-width="1.6" stroke-linecap="round"/><path d="M275.0306,227.41417c0,0 -5.52559,5.84139 -17.56494,8.58447c-11.23475,2.55976 -17.30384,-2.10812 -17.30384,-2.10812" fill="none" stroke="#000000" stroke-width="1.6" stroke-linecap="round"/><path d="M238.80459,229.7667c0,0 5.82,-0.68653 11.9866,-2.40654c5.42297,-1.51259 11.04956,-4.02689 14.11224,-4.77699c3.63764,-0.89091 9.87392,-1.62669 9.87392,-1.62669" fill="none" stroke="#000000" stroke-width="1.6" stroke-linecap="round"/><path d="M236.79887,224.69891c0,0 7.81556,-7.61846 15.67552,-9.30847c12.33653,-2.65254 21.09753,0.34961 21.09753,0.34961" fill="none" stroke="#000000" stroke-width="1.6" stroke-linecap="round"/><path d="M236.48192,217.89825c0,0 5.44777,-5.82026 13.03007,-8.57c10.91883,-3.95973 17.49593,-2.18525 17.49593,-2.18525" fill="none" stroke="#000000" stroke-width="1.6" stroke-linecap="round"/><path d="M248.76179,208.87621c-0.94709,0.17591 -1.83844,-0.34689 -1.9909,-1.1677c-0.15245,-0.82081 0.49173,-1.62881 1.43882,-1.80472c0.94709,-0.17591 1.83844,0.34689 1.9909,1.1677c0.15245,0.82081 -0.49173,1.62881 -1.43882,1.80472z" fill="#8fbbbe" stroke="none" stroke-width="0" stroke-linecap="butt"/><path d="M243.40818,210.93495c-0.47354,0.08794 -0.92873,-0.22464 -1.01668,-0.69818c-0.08794,-0.47354 0.22464,-0.92873 0.69818,-1.01668c0.47354,-0.08794 0.92873,0.22464 1.01668,0.69818c0.08794,0.47354 -0.22464,0.92873 -0.69818,1.01668z" fill="#8fbbbe" stroke="none" stroke-width="0" stroke-linecap="butt"/></g></g><g data-paper-data="{&quot;index&quot;:null}"><path d="M142.45573,259.69541c0.04291,-2.37269 0.31871,-5.81881 3.07482,-7.52162c6.85396,-4.23458 22.09778,-5.13463 40.28455,-5.13463c13.89933,0 26.66114,7.88185 35.95675,10.89469c6.77011,2.19428 11.00646,5.57911 10.84012,7.07406c-0.04946,0.44452 -0.81265,9.36937 -3.06916,10.82439c-9.3509,6.02954 -19.99707,7.92561 -45.29022,6.83186c-25.47621,-1.10167 -41.86168,-19.38558 -41.79687,-22.96875z" fill="#feebf7" stroke="#000000" stroke-width="3" stroke-linecap="butt"/><path d="M149.33072,251.02354c0,0 -0.85702,11.40583 8.3769,18.90276c6.15,4.99312 17.23214,9.84766 27.71685,10.08161c42.01478,0.9375 44.375,-8.35938 44.375,-8.35938c0,0 0.68592,0.67169 -0.27244,2.04323c-2.1789,3.11831 -10.79434,8.25926 -41.49387,8.36778c-7.09949,0.02509 -16.90422,-2.37613 -25.40016,-6.40668c-6.66769,-3.16321 -12.52927,-7.62219 -15.64443,-10.73438c-3.54264,-3.53925 -4.03768,-6.94364 -1.58803,-11.31122c1.36085,-2.42631 3.93018,-2.58373 3.93018,-2.58373z" fill="#db93e6" stroke="none" stroke-width="0" stroke-linecap="butt"/><path d="M148.45728,252.69664c0,0 0.19616,-0.80444 0.55322,-1.85988c0.42551,-1.25776 1.07954,-2.872 1.90242,-3.90611c1.57197,-1.97546 3.60286,-2.15397 3.60286,-2.15397c0,0 1.03856,-2.49371 -1.7208,-5.10628c-4.10738,-3.88888 -8.30779,-11.83342 -4.821,-12.09218c5.61435,-0.41665 7.71955,3.02156 12.37885,3.67109c2.56586,0.3577 9.09054,-1.60258 11.5513,-1.23081c11.43766,1.72799 17.4943,5.76147 23.88649,5.76147c7.42,0 17.99823,1.81155 17.99823,1.81155c0,0 17.1764,-1.57532 20.74602,2.46762c1.51939,1.72085 0.8307,5.56538 1.49035,6.75472c0.97786,1.76307 -13.31599,2.65924 -13.31599,2.65924c0,0 -2.02589,4.14777 -2.51302,5.65117c-0.09052,0.2808 -3.13594,-0.69261 -4.51499,-0.60297c1.54816,0.39257 5.05381,1.82103 7.053,3.40093c2.22006,1.75446 4.30238,5.33147 4.22307,8.94107c-0.05558,2.52922 -0.1106,3.31283 -1.84309,4.56686c-3.46326,2.50682 -12.34571,3.89743 -32.34739,3.89743c-16.62448,0 -32.37699,-6.16021 -39.56011,-12.70795c-5.78254,-5.27105 -4.74942,-9.92299 -4.74942,-9.92299z" fill="#ff2d32" stroke="#000000" stroke-width="3" stroke-linecap="butt"/><path d="M172.9617,237.93432c0,0 1.0487,-7.63432 7.20291,-10.38502c1.94703,-0.87025 5.30499,-0.12679 8.13901,0.04759c5.71761,0.35181 21.74287,6.69036 25.06768,12.2837c0.61122,1.02826 0.70571,4.01157 -1.2869,6.39719c-2.23335,2.67386 -6.6227,4.71336 -6.6227,4.71336" fill="#ff2d32" stroke="#000000" stroke-width="3" stroke-linecap="round"/><path d="M163.5899,232.80193c0,0 7.35993,6.47973 9.94747,6.43283c0.96356,-0.01746 1.22174,-3.29604 2.17097,-5.63931c0.6245,-1.54162 2.18845,-2.49546 2.18845,-2.49546c0,0 0.64119,-2.58746 3.85865,-2.61502c5.50421,-0.04715 13.9913,2.29145 13.9913,2.29145l2.05794,7.91685c0,0 8.55221,2.07068 9.73645,3.95491c1.98068,3.15145 -1.91387,7.57735 -1.91387,7.57735c0,0 -2.86888,11.22741 -1.25909,13.90152c9.87123,3.05054 15.92779,7.88748 15.92779,7.88748c0,0 -11.2474,7.68115 -49.86269,-1.57412c-7.90365,-1.89434 -16.0926,-5.43397 -18.39317,-11.40963c-0.93069,-2.41743 -2.91851,-3.66692 -2.37716,-6.178c0.60006,-2.78338 3.79129,-6.54985 3.79129,-6.54985l1.55454,11.69666c0,0 1.88868,-1.06233 5.17001,-2.44972c6.17484,-2.61081 15.64185,-6.37274 15.20655,-6.37274c-6.42111,0 -20.4042,-4.19193 -20.4042,-4.19193c0,0 -6.10742,-8.92719 -5.75019,-14.18044c7.16191,4.20342 14.49681,4.78435 14.57172,4.02852z" fill="#ab164a" stroke="none" stroke-width="0" stroke-linecap="butt"/><path d="M165.70845,251.91805c2.73112,-0.27785 8.68308,0.7872 15.24232,1.59114c12.93811,1.58578 17.66118,3.70369 20.17852,6.58346c1.18669,1.35755 3.04988,3.27329 2.90481,4.66654c-0.16667,1.60067 -15.42964,-2.70596 -25.68042,-4.85094c-11.20229,-2.34408 -16.39003,-4.10551 -15.31958,-5.31572c0.42271,-0.47792 -0.3959,-2.36213 2.67435,-2.67448z" fill="#feebf7" stroke="none" stroke-width="0" stroke-linecap="butt"/><path d="M180.70077,248.34253c19.49882,2.39707 26.83333,9.87038 26.83333,13c0,3.12961 -7.23299,-6.89357 -26.66666,-8.33334c-15.61107,-1.15657 -16.83334,0.46296 -16.83334,-2.66666c0,-3.12962 0.05025,-4.04272 16.66667,-2z" fill="#feebf7" stroke="none" stroke-width="0" stroke-linecap="butt"/><path d="M171.70077,241.17586c4.99277,0.19731 15.58119,0.36598 24.17501,3.71797c5.08214,1.98227 9.68486,6.95964 11.43627,8.2331c1.34292,0.97644 -0.72127,2.5618 -0.77795,2.88226c-0.28285,1.5991 -8.94939,-6.16666 -23,-8.16666c-10.11531,-1.43984 -19,1.45804 -19,-2.5c0,-0.6247 2.9494,-4.33333 7.16667,-4.16667z" fill="#feebf7" stroke="none" stroke-width="0" stroke-linecap="butt"/><path d="M167.80945,242.76344c0,0 -0.16277,-0.9911 10.34647,-0.79152c13.66265,0.25947 16.07528,3.22282 16.07528,3.22282c0,0 -11.70038,11.09843 -16.44565,11.03644c-4.74527,-0.06199 -9.9761,-13.46774 -9.9761,-13.46774z" fill="#db93e6" stroke="none" stroke-width="0" stroke-linecap="butt"/><path d="M165.70845,251.91805c2.73112,-0.27785 8.68308,0.7872 15.24232,1.59114c12.93811,1.58578 17.66118,3.70369 20.17852,6.58346c1.18669,1.35755 3.04988,3.27329 2.90481,4.66654c-0.16667,1.60067 -15.42964,-2.70596 -25.68042,-4.85094c-11.20229,-2.34408 -16.39003,-4.10551 -15.31958,-5.31572c0.42271,-0.47792 -0.3959,-2.36213 2.67435,-2.67448z" fill="none" stroke="#000000" stroke-width="2" stroke-linecap="butt"/><path d="M180.70077,248.34253c19.49882,2.39707 26.83333,9.87038 26.83333,13c0,3.12961 -7.23299,-6.89357 -26.66666,-8.33334c-15.61107,-1.15657 -16.83334,0.46296 -16.83334,-2.66666c0,-3.12962 0.05025,-4.04272 16.66667,-2z" fill="none" stroke="#000000" stroke-width="2" stroke-linecap="butt"/><path d="M171.70077,241.17586c4.99277,0.19731 15.58119,0.36598 24.17501,3.71797c5.08214,1.98227 9.68486,6.95964 11.43627,8.2331c1.34292,0.97644 -0.72127,2.5618 -0.77795,2.88226c-0.28285,1.5991 -8.94939,-6.16666 -23,-8.16666c-10.11531,-1.43984 -19,1.45804 -19,-2.5c0,-0.6247 2.9494,-4.33333 7.16667,-4.16667z" fill="none" stroke="#000000" stroke-width="2" stroke-linecap="butt"/></g><g data-paper-data="{&quot;index&quot;:null}" stroke-linecap="butt"><path d="M176.17348,212.27422c0,0 4.99489,-1.83232 6.61264,-4.20353c1.75128,-2.56695 2.34978,-10.36346 2.34978,-10.36346c0,0 4.44132,4.17093 7.05635,5.37467c3.12646,1.43916 11.62011,2.38675 11.62011,2.38675c0,0 1.86864,6.50038 -0.66688,11.66245c-2.86195,5.82662 -17.71887,10.83754 -23.91646,8.05976c-9.09962,-4.07847 -3.05556,-12.91666 -3.05556,-12.91666z" fill="#fddfbd" stroke="#000000" stroke-width="2.5"/><path d="M185.12347,206.10199c0,0 -0.96957,-6.26649 1.34781,-6.37597c1.29734,-0.06129 4.48997,2.07665 7.61464,3.22449c4.6895,1.72268 9.47643,2.71814 9.47643,2.71814v7.08334c0,0 -3.32597,1.41603 -9.35789,0.14768c-5.4053,-1.13659 -9.081,-6.79769 -9.081,-6.79769z" fill="#f89587" stroke="none" stroke-width="0"/><path d="M182.61802,194.82664c0,0 -1.82015,-3.72561 1.59546,-6.87332c1.19957,-1.10548 5.15648,-1.0136 6.85975,-0.59813c1.96388,0.47904 1.60554,1.38826 1.60554,1.38826c0,0 -9.83758,2.7673 -5.86382,8.41071c2.49631,3.54518 7.30707,5.60858 9.64922,5.68529c11.74412,0.38461 16.53846,-3.52565 16.53846,-3.52565c0,0 -0.27262,1.89017 -2.54248,3.48278c-2.15838,1.51438 -6.18404,2.73517 -11.17547,2.73517c-10.97489,0 -16.66667,-10.70512 -16.66667,-10.70512z" fill="#000000" stroke="none" stroke-width="0"/></g><g data-paper-data="{&quot;index&quot;:null}" stroke="none" stroke-width="0" stroke-linecap="butt"><path d="M169.9663,216.53747c0,0 2.72868,-4.66309 4.30908,-2.76723c1.98252,2.37826 3.55833,9.01198 9.46091,9.01198c7.55027,0 13.04968,-1.03994 14.65694,-1.46732c0.65089,-0.17308 0.16854,2.24528 0.16854,2.24528c0,0 -1.74011,4.38205 -4.71523,7.45914c-3.52936,3.65032 -8.65626,6.44102 -12.69646,6.47274c-4.25363,0.0334 -11.18377,-20.95459 -11.18377,-20.95459z" fill="#0066cc"/><path d="M167.75662,221.49537c0,0 -0.45853,-3.17708 0.42586,-3.86801c0.85364,-0.66691 2.55014,-1.83102 2.55014,-1.83102c0,0 6.96318,20.15185 10.30612,21.79978c1.60257,0.79 14.21787,-8.49206 14.21787,-8.49206c0,0 -5.61245,14.83696 -15.2174,14.83696c-0.36026,0 -5.11286,-5.14016 -8.30678,-11.16476c-2.71711,-5.1252 -3.97583,-11.28089 -3.97583,-11.28089z" fill="#0f1b82"/><path d="M195.18495,222.87438c-3.76247,0.98462 -10.77204,1.31771 -14.6558,0.81329c-3.44446,-0.44736 -6.37651,-9.63887 -6.37651,-9.63887c0,0 -3.96347,2.52037 -4.21087,2.70732c-0.91576,0.692 -1.59559,2.26848 -1.59559,2.26848c-0.6235,1.75564 0.42657,3.90812 1.61056,7.15492c2.36779,6.49314 7.04681,15.45314 9.63655,15.49622c8.82024,0.14673 16.66667,-15.83334 16.66667,-15.83334c0,0 0.34418,3.11237 -1.25125,6.70171c-2.40713,5.41548 -7.92045,12.08035 -15.28721,12.08035c-4.39055,0 -13.53978,-14.55053 -14.36066,-23.72916c-0.60507,-6.76551 10.27275,-11.10603 10.27275,-11.10603c0,0 -0.37719,0.77836 0.61709,3.04439c1.26064,2.87309 4.10285,7.43667 5.85854,8.12521c3.34322,1.31114 15.87164,-1.65343 15.87164,-1.65343l1.61244,0.89594c0,0 -0.55857,1.66552 -4.40835,2.673z" fill="#000000"/></g><g data-paper-data="{&quot;index&quot;:null}" stroke-linecap="butt"><path d="M243.81692,197.50591c1.5167,1.72753 0.39529,6.2313 -3.48598,9.6389c-3.88127,3.4076 -8.14355,5.79229 -9.66026,4.06476c-1.00561,-1.14539 -0.70165,-3.86089 0.74865,-6.55414c0.73711,-1.36883 1.77032,-2.73193 3.07823,-3.88021c3.88127,-3.4076 7.80265,-4.99684 9.31936,-3.26931z" fill="#ff6666" stroke="#000000" stroke-width="2.35"/><g fill="#000000" stroke="none"><path d="M239.2598,177.89311c0,0 2.91249,17.48042 -10.28726,15.04182c-3.75581,-0.69387 -7.16803,-4.62083 -8.04325,-9.17101c-0.89239,-4.63943 0.81559,-9.87106 3.58642,-7.13464c0.96206,0.95011 2.30202,2.27342 2.91103,2.87487c3.09723,3.05876 -1.33919,9.52446 3.00229,9.20757c2.53106,-0.18474 4.20114,-2.56524 4.20114,-5.8186c0,-17.94925 -28.33334,-45.27778 -28.33334,-45.27778c0,0 2.01366,0.02138 5.03352,2.74056c4.46699,4.02223 10.91559,11.7473 14.51598,16.14665c4.49013,5.48654 13.41347,21.39057 13.41347,21.39057z" stroke-width="0"/><path d="M252.9635,197.24496c-9.01006,0 -7.97324,-11.88522 -7.97324,-11.88522c0,0 -1.87445,-2.02272 -1.6027,-3.47511c0.38327,-2.04846 1.91778,-3.42379 3.54665,-4.05973c1.40809,-0.54974 4.81214,-0.67008 6.95522,-1.50587c17.56892,-6.85185 24.62963,-17.59259 24.62963,-17.59259c0,0 0.01672,1.03536 -0.97797,2.56167c-1.82842,2.80562 -5.58751,7.27007 -8.64932,10.01192c-3.7176,3.32913 -16.44308,10.77249 -16.44308,10.77249c0,0 -1.05571,2.52108 -0.58558,4.94373c0.48565,2.50267 2.51257,4.91273 3.47595,5.12109c1.25231,0.27084 7.37847,-7.84391 7.37847,-7.84391c0,0 3.40819,1.04731 4.17907,2.47223c0.53214,0.98362 -1.35573,2.34106 -1.74581,2.86764c-3.46356,4.6755 -7.96217,7.61165 -12.18729,7.61165z" stroke-width="NaN"/></g></g><path d="M107.43868,310.75444v-258.66667h258.66667v258.66667z" data-paper-data="{&quot;index&quot;:null}" fill="none" stroke="none" stroke-width="0" stroke-linecap="butt"/></g></g></svg>