<svg version="1.1" xmlns="http://www.w3.org/2000/svg" xmlns:xlink="http://www.w3.org/1999/xlink" width="105.26851" height="184.12693" viewBox="0,0,105.26851,184.12693"><g transform="translate(-185.01926,-89.92045)"><g data-paper-data="{&quot;isPaintingLayer&quot;:true}" fill-rule="nonzero" stroke-linejoin="miter" stroke-miterlimit="10" stroke-dasharray="" stroke-dashoffset="0" style="mix-blend-mode: normal"><g data-paper-data="{&quot;index&quot;:null}" stroke="#000000" stroke-linecap="round"><path d="M256.78037,157.65446c0,0 16.2316,-1.59725 16.21325,5.02736c-0.04977,17.98052 -28.27891,12.06568 -28.27891,12.06568z" data-paper-data="{&quot;origPos&quot;:null}" fill="#66c8ff" stroke-width="2"/><path d="M256.02631,159.16269c0,0 11.78117,-0.56333 12.44273,1.38252c0.20864,0.61371 -15.71052,2.51368 -15.71052,2.51368z" data-paper-data="{&quot;origPos&quot;:null}" fill="#0a0a0a" stroke-width="1"/></g><g data-paper-data="{&quot;index&quot;:null}"><g data-paper-data="{&quot;origRot&quot;:0,&quot;index&quot;:null}" stroke="#000000" stroke-width="3" stroke-linecap="round"><path d="M209.05688,215.95539c0,0 -23.31399,-9.71152 -22.51768,-12.13974c1.43579,-4.37824 7.3992,-13.1976 7.3992,-13.1976l17.27537,-24.64901c0,0 3.35032,-4.62989 4.49515,-4.49291c3.43448,0.41096 8.58073,4.45359 14.50292,7.42427c0.98436,0.49381 -1.15987,6.01665 -1.15987,6.01665c0,0 -3.75716,8.54063 -6.16194,14.00706c-3.66226,8.32484 -9.38401,21.33133 -9.38401,21.33133c0,0 -2.70969,6.75149 -4.44917,5.69995z" data-paper-data="{&quot;origPos&quot;:null}" fill="#582700"/><path d="M212.57852,209.47733l-21.87039,-11.96609" fill="none"/><path d="M192.62585,194.50083l21.75643,12.17438" data-paper-data="{&quot;origPos&quot;:null}" fill="none"/></g><path d="M192.72108,193.77425l21.89488,-31.22792l1.45166,0.01385l13.85286,7.63417l-15.10705,35.69864z" fill="#66c8ff" stroke="#000000" stroke-width="1" stroke-linecap="round"/><path d="M190.76116,197.35317l1.12568,-2.0413l22.33058,12.3141l-1.12566,2.0413z" fill="#ffffff" stroke="none" stroke-width="0" stroke-linecap="butt"/></g><g data-paper-data="{&quot;index&quot;:null,&quot;origRot&quot;:0}" stroke="#000000" stroke-linecap="round"><path d="M235.21379,263.1822c0,0 0.62089,4.43851 -0.34127,6.59425c-0.73657,1.65031 -2.59587,2.13574 -4.36931,2.48346c-4.86789,0.95442 -9.58661,-0.73693 -17.29051,-1.17349c-2.09821,-0.1189 -3.10592,-3.27137 -2.85141,-5.35746c0.23805,-1.95111 0.77139,-5.32817 0.77139,-5.32817l4.73802,-32.76702c0,0 0.75192,-4.22223 2.52182,-4.88807c4.26225,-1.60345 8.65379,0.09163 13.20768,0.09248c1.54326,0.00031 1.39869,4.79883 1.39869,4.79883z" data-paper-data="{&quot;origPos&quot;:null}" fill="#ff0000" stroke-width="3"/><path d="M210.99647,261.47984l23.2816,1.40392c0,0 1.00094,2.55322 0.86327,4.23589c-0.13068,1.59733 -1.55088,4.16874 -1.55088,4.16874c0,0 -8.47736,0.8035 -12.37899,0.7019c-5.08529,-0.13242 -10.95269,-2.91027 -10.95269,-2.91027z" data-paper-data="{&quot;origPos&quot;:null}" fill="#976e57" stroke-width="2.5"/><path d="M235.12407,263.50084c0,0 0.62089,4.43851 -0.34127,6.59425c-0.73657,1.65031 -2.59586,2.13575 -4.36931,2.48347c-4.86789,0.95442 -9.58661,-0.73693 -17.29051,-1.17349c-2.09821,-0.11891 -3.10592,-3.27137 -2.85141,-5.35747c0.23805,-1.95111 0.77139,-5.32817 0.77139,-5.32817l4.73802,-32.76701c0,0 0.75191,-4.22223 2.52182,-4.88808c4.26225,-1.60345 8.6538,0.09163 13.20768,0.09248c1.54324,0.00029 1.39867,4.79881 1.39867,4.79881c0,0 0.56007,8.98789 0.91854,14.74062c0.50596,8.11927 1.2964,20.80463 1.2964,20.80463z" data-paper-data="{&quot;origPos&quot;:null}" fill="#4b4b4b" stroke-width="1.5"/></g><g data-paper-data="{&quot;index&quot;:null,&quot;origRot&quot;:0}" stroke="#000000" stroke-linecap="round"><path d="M237.20712,228.01803c0,0 -0.35516,-4.78754 1.18659,-4.85562c4.54945,-0.20084 8.86232,-2.08715 13.19087,-0.67242c1.79744,0.58748 2.73405,4.77261 2.73405,4.77261l6.17246,32.52733c0,0 0.68114,3.35039 1.00464,5.28916c0.34588,2.0729 -0.52241,5.26658 -2.61338,5.47751c-7.6773,0.77447 -12.31719,2.67142 -17.2223,1.9317c-1.78701,-0.2695 -3.66583,-0.67281 -4.47416,-2.28918c-1.05591,-2.1114 -0.63054,-6.5729 -0.63054,-6.5729z" data-paper-data="{&quot;origPos&quot;:null}" fill="#ff0000" stroke-width="3"/><path d="M261.74532,268.42244c0,0 -5.73974,3.03284 -10.81432,3.38846c-3.89341,0.27284 -12.39788,-0.15759 -12.39788,-0.15759c0,0 -1.53176,-2.50656 -1.73246,-4.09661c-0.21143,-1.67501 0.67641,-4.26972 0.67641,-4.26972l23.19748,-2.42501z" data-paper-data="{&quot;origPos&quot;:null}" fill="#976e57" stroke-width="2.5"/><path d="M236.65897,263.94064c0,0 0.23259,-12.70783 0.38149,-20.84149c0.10548,-5.76292 0.2703,-14.76674 0.2703,-14.76674c0,0 -0.35517,-4.78754 1.18657,-4.8556c4.54944,-0.20084 8.86232,-2.08715 13.19087,-0.67242c1.79744,0.58748 2.73405,4.77261 2.73405,4.77261l6.17246,32.52733c0,0 0.68114,3.35039 1.00464,5.28916c0.34588,2.0729 -0.52241,5.26658 -2.61337,5.47752c-7.6773,0.77447 -12.31719,2.67142 -17.2223,1.9317c-1.78701,-0.2695 -3.66583,-0.67282 -4.47416,-2.28919c-1.05591,-2.1114 -0.63054,-6.5729 -0.63054,-6.5729z" data-paper-data="{&quot;origPos&quot;:null}" fill="#4b4b4b" stroke-width="1.5"/></g><g><g><path d="M257.20199,207.41599c0,0 0.24652,15.77759 -1.96818,15.97637c-6.64411,0.5964 -24.00249,-0.89723 -38.83937,-1.44461c-1.66673,-0.06149 -0.87213,-15.00031 -0.87213,-15.00031l2.90871,-30.54174c0,0 1.8183,-13.47552 3.34615,-13.41916c9.8832,0.36462 24.70447,-0.01979 31.11197,1.86129c2.13583,0.62703 3.54438,15.09819 3.54438,15.09819z" data-paper-data="{&quot;origPos&quot;:null}" fill="#66c8ff" stroke="#000000" stroke-width="3.5" stroke-linecap="round"/><path d="M226.08648,186.69727c-1.29078,-0.04762 -1.19908,-2.53343 -1.19908,-2.53343c0.19021,-5.15575 0.44156,-11.9687 0.63178,-17.12445c0,0 0.09172,-2.48581 1.3825,-2.43819c1.29078,0.04762 1.19907,2.53343 1.19907,2.53343c-0.19021,5.15575 -0.38042,10.31149 -0.57064,15.46725l-0.06114,1.6572c0,0 -0.09171,2.48581 -1.38249,2.43819z" fill="#ffffff" stroke="none" stroke-width="0.5" stroke-linecap="butt"/><path d="M237.84482,193.46871c-1.29078,-0.04762 -1.17558,-3.1705 -1.17558,-3.1705c0.23896,-6.47707 0.55473,-15.03606 0.79369,-21.51314c0,0 0.11522,-3.12288 1.406,-3.07525c1.29078,0.04762 1.17557,3.1705 1.17557,3.1705c-0.23896,6.47707 -0.47792,12.95415 -0.71688,19.43123l-0.07681,2.08191c0,0 -0.11521,3.12288 -1.40599,3.07525z" fill="#ffffff" stroke="none" stroke-width="0.5" stroke-linecap="butt"/></g><g fill="none" stroke="#b9b9b9" stroke-width="3"><path d="M248.8248,169.02238c-0.7769,-1.38768 0.18087,-2.57275 1.44789,-3.74486c1.26703,-1.17209 2.50732,-1.49852 3.14045,-0.49972c1.34239,2.11775 -0.1819,3.0377 -1.17403,3.95548c-1.26705,1.17211 -2.31714,2.24887 -3.41431,0.28911z" stroke-linecap="butt"/><path d="M249.83018,168.46833l-2.6811,2.42224" stroke-linecap="round"/><path d="M243.58179,171.38872c1.26703,-1.17209 2.50732,-1.49852 3.14045,-0.49972c1.34239,2.11775 -0.1819,3.0377 -1.17403,3.95548c-1.26703,1.1721 -2.31713,2.24887 -3.4143,0.28911c-0.7769,-1.38768 0.18086,-2.57275 1.44788,-3.74488z" stroke-linecap="butt"/><path d="M240.45817,177.00178l2.6811,-2.42226" stroke-linecap="round"/><path d="M234.85639,176.34253c0.46067,-1.6192 1.7921,-1.41535 3.29396,-0.90081c1.50186,0.51455 2.43357,1.52633 2.14477,2.76413c-0.61234,2.62448 -2.09766,1.70208 -3.27365,1.29918c-1.50186,-0.51454 -2.81568,-0.87577 -2.16508,-3.16249z" stroke-linecap="butt"/><path d="M235.80148,176.98353l-3.13997,-1.12469" stroke-linecap="round"/><path d="M227.82289,171.70431c0.94094,-1.2829 2.08591,-0.45301 3.28571,0.74754c1.19981,1.20055 1.72084,2.58887 1.05917,3.60007c-1.40294,2.14401 -2.45619,0.57244 -3.3957,-0.36762c-1.1998,-1.20056 -2.27801,-2.1682 -0.94919,-3.97997z" stroke-linecap="butt"/><path d="M225.98296,170.19905l2.49267,2.55547" stroke-linecap="round"/><path d="M221.54942,165.34408c0.94094,-1.28288 2.08592,-0.45301 3.28571,0.74754c1.19981,1.20055 1.72084,2.58887 1.05917,3.60007c-1.40294,2.144 -2.45619,0.57244 -3.39569,-0.36762c-1.1998,-1.20055 -2.27801,-2.16819 -0.94919,-3.97997z" stroke-linecap="butt"/><path d="M219.7095,163.83881l2.49269,2.55547" stroke-linecap="round"/></g></g><g fill="none" stroke="#b9b9b9" stroke-width="3"><path d="M244.04547,168.47288c-0.56214,-1.35809 0.05834,-2.57767 0.8891,-3.7957c0.83076,-1.21801 1.66455,-1.58994 2.11936,-0.61516c0.96431,2.06682 -0.04741,3.04234 -0.69792,3.99608c-0.83077,1.21803 -1.51665,2.33277 -2.31054,0.41479z" stroke-linecap="butt"/><path d="M242.95469,170.40158l1.75939,-2.51944" stroke-linecap="round"/><path d="M240.54556,171.03091c0.83076,-1.21801 1.66455,-1.58994 2.11936,-0.61516c0.96431,2.06682 -0.04741,3.04234 -0.69792,3.99608c-0.83076,1.21802 -1.51665,2.33277 -2.31054,0.41479c-0.56214,-1.35809 0.05833,-2.57767 0.88909,-3.79571z" stroke-linecap="butt"/><path d="M240.32506,174.23586l-1.75938,2.51946" stroke-linecap="round"/><path d="M234.74644,176.30304c0.27217,-1.63508 1.18111,-1.48046 2.21353,-1.02164c1.03242,0.45883 1.69024,1.43557 1.52519,2.68318c-0.34996,2.64527 -1.38136,1.77826 -2.18976,1.41899c-1.03242,-0.45882 -1.93333,-0.77137 -1.54895,-3.08052z" stroke-linecap="butt"/><path d="M235.40406,176.90876l-2.15972,-1.00816" stroke-linecap="round"/><path d="M229.85564,171.92729c0.60662,-1.31672 1.40466,-0.52961 2.2492,0.62589c0.84455,1.1555 1.23302,2.52367 0.80918,3.55857c-0.89868,2.19428 -1.65303,0.66261 -2.31435,-0.24218c-0.84454,-1.15551 -1.60072,-2.08274 -0.74403,-3.94227z" stroke-linecap="butt"/><path d="M230.32505,172.95272l-1.75614,-2.46183" stroke-linecap="round"/><path d="M225.43763,165.80265c0.60662,-1.3167 1.40467,-0.52961 2.24921,0.62589c0.84455,1.1555 1.23302,2.52367 0.80917,3.55857c-0.89868,2.19427 -1.65303,0.66261 -2.31435,-0.24218c-0.84454,-1.1555 -1.60072,-2.08273 -0.74403,-3.94227z" stroke-linecap="butt"/><path d="M225.90705,166.82809l-1.75615,-2.46183" stroke-linecap="round"/></g><path d="M215.99529,156.00121c-0.11047,-3.25481 0.33261,-17.43661 0.7757,-30.2528c0.06852,-1.98235 1.79181,-5.02363 1.79181,-5.02363c0,0 2.25724,-1.55088 3.51843,-1.51417c13.91473,0.40494 27.19263,-0.30245 32.29781,1.42252c1.70173,0.57498 4.78786,2.42008 4.78786,2.42008c0,0 0.55843,4.41733 0.65345,5.55246c0.03166,0.37839 0.05053,0.59138 0.05961,0.97097c0.27202,11.37371 -0.62793,24.49325 -1.15799,29.06767c-0.17669,1.5248 -2.07449,3.85058 -2.07449,3.85058c0,0 -1.48067,2.67765 -5.90574,3.33415c-4.84179,0.71834 -16.53718,-0.05877 -28.59513,-0.89728c-1.81032,-0.1259 -4.52696,-3.55499 -4.52696,-3.55499z" fill="#582700" stroke="#000000" stroke-width="2.5" stroke-linecap="round"/><path d="M261.05546,125.38002l-0.696,-0.54689c-0.08833,-0.0336 -0.17665,-0.06668 -0.26495,-0.09931c-0.23152,0.30371 -0.67398,0.65184 -1.40053,0.38385c-0.66963,-0.24699 -0.81588,-0.73531 -0.81813,-1.10885c-2.60483,-0.7465 -5.22373,-1.15148 -7.97613,-1.49118c-7.71634,-0.68569 -15.47,-0.77129 -23.21212,-1.01617c-2.53907,-0.08032 -8.25449,0.76142 -10.32172,-0.9917c-1.00817,-0.85498 -0.54257,-2.77161 -0.60967,-3.82739c-0.19442,-3.05938 -0.46352,-6.22903 -0.37803,-9.29552c0.13854,-4.00732 -1.24668,-7.6338 -1.62665,-11.5806c-0.19048,-1.97866 -0.79484,-3.98093 1.02283,-5.6278c0.51323,-0.46501 1.37824,-0.15669 2.07064,-0.17057c2.53055,-0.05069 4.96993,0.20017 7.45918,0.57734c7.88839,1.19525 15.70128,1.9652 23.52015,3.64379c3.15398,0.68096 6.34977,0.85188 9.56895,1.06377c1.89197,0.12454 3.63718,-0.36078 4.70048,1.84018c0.63498,1.31437 0.00683,5.30047 -0.09461,6.78c-0.3911,5.70507 0.28382,12.74618 -1.10035,18.45337c0.11586,0.04238 0.23175,0.0855 0.34767,0.12941l1.26083,0.84901c0,0 1.01763,0.72592 0.29171,1.74354c-0.72591,1.01762 -1.74354,0.29171 -1.74354,0.29171z" data-paper-data="{&quot;index&quot;:null}" fill="#000000" stroke="none" stroke-width="0.5" stroke-linecap="butt"/><g fill="none" stroke="#000000" stroke-width="2.5" stroke-linecap="butt"><path d="M229.67444,141.78623c-1.53208,-1.8041 -2.55742,-3.45062 -2.29013,-3.6776c0.26728,-0.22699 1.72594,1.05155 3.25803,2.85566c1.53208,1.8041 2.55742,3.45064 2.29014,3.67762c0,0 -1.72594,-1.05157 -3.25803,-2.85568z"/><path d="M232.8744,144.20911c0.23228,0.2627 -1.01691,1.74658 -2.7901,3.31433c-1.7732,1.56777 -3.39895,2.62574 -3.63121,2.36302c-0.23227,-0.2627 1.01691,-1.74658 2.79011,-3.31432c1.7732,-1.56776 3.63121,-2.36303 3.63121,-2.36303z" data-paper-data="{&quot;index&quot;:null}"/></g><g><g data-paper-data="{&quot;index&quot;:null}"><g stroke="#000000" stroke-width="3" stroke-linecap="round"><path d="M281.51923,191.3491c0,0 6.05289,8.87353 7.10112,13.36035c-12.81946,11.03797 -22.78446,11.63128 -22.78446,11.63128c-1.76267,1.01223 -4.32015,-5.79837 -4.32015,-5.79837c0,0 -5.4284,-13.13168 -8.90287,-21.5366c-2.28148,-5.51901 -5.84599,-14.14181 -5.84599,-14.14181c0,0 -2.01977,-5.5696 -1.02455,-6.04117c5.98737,-2.83703 11.22308,-6.76312 14.66591,-7.09689c1.14761,-0.11127 4.39317,4.59267 4.39317,4.59267l16.71778,25.03052z" data-paper-data="{&quot;origPos&quot;:null}" fill="#582700"/><path d="M283.99766,196.54628l-22.76036,11.85518l-1.55885,-3.02384l22.67818,-12.10044z" data-paper-data="{&quot;origPos&quot;:null}" fill="none"/></g><path d="M259.27596,205.06977l-13.34438,-34.36777l0.82015,-1.18871l13.96301,-7.42063l20.78332,31.11342z" fill="#66c8ff" stroke="#000000" stroke-width="1" stroke-linecap="round"/><path d="M260.99998,208.02293l-1.0794,-2.06614l22.60226,-11.80809l1.0794,2.06614z" fill="#ffffff" stroke="none" stroke-width="0" stroke-linecap="butt"/></g><g fill="#fffc96" stroke="#000000" stroke-width="2" stroke-linecap="round"><path d="M278.28717,187.55623c0,0 4.28069,-0.94416 5.16252,1.86493c1.41087,4.49445 -31.21202,9.57362 -32.96493,4.97832c-0.7162,-1.87752 2.23063,-3.05235 2.23063,-3.05235l0.87042,1.65693c0,0 6.33063,0.39175 13.96663,-0.62361c7.53018,-1.00131 12.21822,-2.9989 12.21822,-2.9989z"/><path d="M273.52858,180.37173c0,0 2.10078,-3.17623 3.68088,-1.47456c3.31685,3.57207 -18.13321,31.32868 -20.436,27.30693c-1.39461,-2.43567 1.37121,-4.54502 1.37121,-4.54502l0.67593,1.19961c0,0 3.97681,-3.54189 8.71801,-9.90371c4.7412,-6.36181 6.76164,-11.53057 6.76164,-11.53057z" data-paper-data="{&quot;index&quot;:null}"/></g></g><g data-paper-data="{&quot;index&quot;:null}" fill="none" stroke="#000000" stroke-width="2.5" stroke-linecap="butt"><path d="M238.28784,145.02922c-0.2236,-0.27012 1.07321,-1.71257 2.89648,-3.22179c1.82327,-1.50923 3.4826,-2.51373 3.70618,-2.24361c0.22359,0.27011 -1.07322,1.71255 -2.89648,3.22177c-1.82327,1.50922 -3.70617,2.24363 -3.70617,2.24363z"/><path d="M241.58389,147.57337c1.47256,1.853 2.44378,3.53202 2.16924,3.75017c-0.27451,0.21818 -1.69082,-1.10716 -3.16338,-2.96017c-1.47256,-1.853 -2.44378,-3.53204 -2.16923,-3.75019c0,0 1.69081,1.10717 3.16338,2.96018z" data-paper-data="{&quot;index&quot;:null}"/></g><g data-paper-data="{&quot;index&quot;:null}" stroke="#000000" stroke-width="1" stroke-linecap="butt"><g data-paper-data="{&quot;index&quot;:null}" fill="#000000"><path d="M249.87595,157.62179l-11.48119,3.00487c0,0 -3.84983,-2.92676 4.76484,-5.14903c9.19338,-2.27981 6.71634,2.14416 6.71634,2.14416z"/></g><g data-paper-data="{&quot;index&quot;:null}" fill="#ffffff"><path d="M243.15962,155.47764c9.19338,-2.27981 6.71634,2.14416 6.71634,2.14416c0,0 -7.76739,2.03289 -9.70577,2.5402c-0.00268,0.00071 0.38447,-1.04986 0.14431,-1.93615c-0.19671,-0.7259 -1.03173,-1.31852 -1.01635,-1.32717c0.85871,-0.48245 2.09932,-0.96648 3.86146,-1.42106z"/></g></g></g></g></svg>