<svg version="1.1" xmlns="http://www.w3.org/2000/svg" xmlns:xlink="http://www.w3.org/1999/xlink" width="173" height="208" viewBox="0,0,173,208"><defs><radialGradient cx="264.5126" cy="143.56934" r="43.87922" gradientUnits="userSpaceOnUse" id="color-1"><stop offset="0" stop-color="#8f8256"/><stop offset="1" stop-color="#8d681f"/></radialGradient><radialGradient cx="265.30864" cy="150.10561" r="18.68929" gradientUnits="userSpaceOnUse" id="color-2"><stop offset="0" stop-color="#0c0b0b"/><stop offset="1" stop-color="#533907"/></radialGradient><radialGradient cx="292.78524" cy="142.05036" r="15.62237" gradientUnits="userSpaceOnUse" id="color-3"><stop offset="0" stop-color="#36270c"/><stop offset="1" stop-color="#0c0b0b"/></radialGradient><radialGradient cx="236.65252" cy="147.2549" r="15.62237" gradientUnits="userSpaceOnUse" id="color-4"><stop offset="0" stop-color="#36270c"/><stop offset="1" stop-color="#0c0b0b"/></radialGradient></defs><g transform="translate(-153.5,-76)"><g data-paper-data="{&quot;isPaintingLayer&quot;:true}" fill-rule="nonzero" stroke-linejoin="miter" stroke-miterlimit="10" stroke-dasharray="" stroke-dashoffset="0" style="mix-blend-mode: normal"><g data-paper-data="{&quot;index&quot;:null}"><g data-paper-data="{&quot;index&quot;:null}"><path d="M220.99081,174.22567c-0.88004,-3.34935 10.49904,-16.87549 12.96996,-17.0945c2.6855,-0.23803 13.18167,11.89243 13.18167,11.89243l-1.99752,3.25674l12.82157,-21.78589c0,0 4.04875,-7.74739 6.00251,-6.28173c0,0 11.79743,2.16879 25.46756,17.21259c-1.90803,5.19733 -10.42798,14.89249 -10.42798,14.89249c0,0 -17.92072,22.40362 -22.97226,21.87773c-5.05148,-0.52586 -34.21962,-20.82687 -35.04547,-23.96988z" fill="#68330c" stroke="none" stroke-width="3" stroke-linecap="round"/><path d="M257.97255,150.15915c0,0 4.934,-7.1003 6.83537,-5.63137c0,0 11.57438,2.29781 24.81131,17.28633c-1.05039,2.74054 -4.00746,6.7389 -6.51141,9.8438c-0.42654,-0.32582 -0.81992,-0.61275 -1.14549,-0.84677c-7.21635,-5.18705 -17.74456,-11.59453 -25.38331,-17.51022c-0.0757,-0.05863 1.39355,-3.14178 1.39355,-3.14178z" fill="#ffddb7" stroke="#000000" stroke-width="2" stroke-linecap="butt"/><path d="M257.65206,152.44773l25.70561,18.63278l-2.35205,2.92678l-25.59311,-18.19819z" data-paper-data="{&quot;index&quot;:null}" fill="#ffffff" stroke="#000000" stroke-width="2" stroke-linecap="round"/><path d="M221.23461,174.15492c-0.88003,-3.34933 10.49903,-16.87547 12.96995,-17.09448c2.68548,-0.23803 13.18166,11.89242 13.18166,11.89242l-1.99752,3.25675l12.82156,-21.7859c0,0 4.04874,-7.7474 6.00249,-6.28174c0,0 11.79742,2.16879 25.46755,17.21259c-1.90804,5.19734 -10.42796,14.89251 -10.42796,14.89251c0,0 -17.92072,22.4036 -22.97226,21.87771c-5.05147,-0.52586 -34.21962,-20.82687 -35.04547,-23.96988z" data-paper-data="{&quot;origPos&quot;:null}" fill="none" stroke="#000000" stroke-width="2.5" stroke-linecap="round"/></g><g stroke-linecap="butt"><path d="M282.3179,110.0206c0,0 1.13965,6.83196 -2.61396,7.17197c-1.158,0.1049 -6.6711,2.26882 -9.50738,0.68402c-1.39827,-0.78129 2.75302,-4.52163 -0.30228,-8.45822c-0.6475,-0.8343 -17.4848,-0.18258 -17.19377,2.96805c1.04791,11.34456 -3.79567,6.77657 -4.48087,7.03969c-9.04009,3.47158 -7.17422,-5.66684 -7.17422,-5.66684l-0.73305,-8.09265l41.27249,-3.73865z" fill="#8c651a" stroke="#000000" stroke-width="2.5"/><g stroke="#000000"><path d="M222.76672,168.98366l-4.5596,-50.33537l87.40058,-7.9171l4.55958,50.33534z" fill="#121010" stroke-width="3"/><path d="M223.09209,172.69557l-4.55959,-50.33536l87.40059,-7.9171l4.55959,50.33538z" fill="url(#color-1)" stroke-width="2.5"/></g><path d="M255.46271,169.76329l-3.3721,-37.22616l23.06402,-2.08922l3.3721,37.22617z" fill="url(#color-2)" stroke="#000000" stroke-width="2.5"/><path d="M277.3048,143.53592c-0.52327,-8.61741 5.98339,-16.26816 14.53296,-17.08859c8.54965,-0.82046 15.90469,5.50023 16.42798,14.11753c0.52328,8.61739 -5.98341,16.26814 -14.53298,17.08857c-8.54965,0.82042 -15.9047,-5.50024 -16.42797,-14.11757z" fill="url(#color-3)" stroke="none" stroke-width="0"/><path d="M221.17202,148.74048c-0.52328,-8.61737 5.98341,-16.26814 14.53298,-17.08857c8.5496,-0.82044 15.90469,5.50024 16.42797,14.11755c0.52327,8.61736 -5.98341,16.26812 -14.53298,17.08857c-8.5496,0.82041 -15.90466,-5.50026 -16.42794,-14.11758z" fill="url(#color-4)" stroke="none" stroke-width="0"/></g></g><path d="M233.7338,262.98257c0,0 0.2856,4.5009 -1.13248,6.57597c-1.08554,1.58856 -3.4284,1.9116 -5.65062,2.10419c-6.0997,0.52866 -11.72992,-1.58003 -21.17301,-2.69388c-2.57186,-0.30336 -3.47284,-3.54994 -2.93408,-5.61736c0.50393,-1.93368 1.52559,-5.2699 1.52559,-5.2699l9.37487,-32.40912c0,0 1.38219,-4.1637 3.63442,-4.67533c5.4237,-1.23202 10.65047,0.85169 16.26021,1.25242c1.90106,0.13579 1.20482,4.93016 1.20482,4.93016z" fill="#000000" stroke="#000000" stroke-width="3" stroke-linecap="round"/><path d="M236.20839,225.876c0,0 -0.32716,-4.93354 1.49139,-4.97787c5.36624,-0.13083 10.48578,-2.00037 15.56075,-0.47205c2.10742,0.63466 3.1314,4.95786 3.1314,4.95786l6.65398,33.58198c0,0 0.73884,3.45976 1.0831,5.46066c0.36809,2.13934 -0.71638,5.41196 -3.18501,5.59418c-9.06392,0.66905 -14.56913,2.54412 -20.33662,1.70092c-2.10117,-0.3072 -4.30801,-0.75364 -5.2299,-2.43081c-1.20424,-2.19079 -0.61765,-6.77574 -0.61765,-6.77574z" fill="#000000" stroke="#000000" stroke-width="3" stroke-linecap="round"/><g data-paper-data="{&quot;index&quot;:null}" stroke="#000000"><path d="M213.65813,179.91745c0,0 1.93336,-14.23526 4.27909,-14.78899c3.74958,-0.88517 10.09657,-0.78028 16.82022,-0.68868c5.89521,0.08032 12.07999,0.05526 17.0575,0.62654c1.93055,0.22156 3.27478,14.33759 3.27478,14.33759l1.58187,27.66538c0,0 0.61868,16.76524 -1.19466,16.76524c-16.14219,0 -35.06191,0.86179 -42.25684,0.01181c-2.39829,-0.28331 -1.49803,-16.21071 -1.49803,-16.21071z" fill="#68330c" stroke-width="2.5" stroke-linecap="round"/><g><g><path d="M227.65185,164.44913h20.19156v8.78187c-0.30819,1.23057 -0.54548,2.24169 -0.68264,2.76105c-1.34758,5.10308 -9.13855,25.99463 -9.83256,29.46545c-3.3389,-10.59609 -6.54806,-21.35359 -9.67637,-32.14509z" fill="#ffffff" stroke-width="2" stroke-linecap="butt"/><path d="M233.05787,165.33355h9.04737v2.22509c-0.13809,0.29921 -4.20745,6.90206 -4.51843,7.746c-1.49609,-2.57642 -3.12722,-5.16401 -4.52894,-7.78795z" fill="#ffddb7" stroke-width="1.5" stroke-linecap="butt"/><path d="M237.38447,201.50666l0.37453,-26.46238" fill="none" stroke-width="1.5" stroke-linecap="round"/><path d="M237.46665,223.25596v-18.3201" fill="none" stroke-width="2" stroke-linecap="round"/><path d="M238.17552,178.13655c0,-0.2791 0.24339,-0.50539 0.54362,-0.50539c0.30023,0 0.54361,0.22627 0.54361,0.50539c0,0.2791 -0.24338,0.50538 -0.54361,0.50538c-0.30023,0 -0.54362,-0.22626 -0.54362,-0.50538z" fill="#000000" stroke-width="0.5" stroke-linecap="butt"/><path d="M238.05472,184.20114c0,-0.2791 0.24338,-0.50538 0.54361,-0.50538c0.30023,0 0.54362,0.22626 0.54362,0.50538c0,0.2791 -0.24339,0.50539 -0.54362,0.50539c-0.30023,0 -0.54361,-0.22627 -0.54361,-0.50539z" fill="#000000" stroke-width="0.5" stroke-linecap="butt"/><path d="M238.03385,190.26574c0,-0.2791 0.24339,-0.50539 0.54362,-0.50539c0.30023,0 0.54361,0.22627 0.54361,0.50539c0,0.2791 -0.24338,0.50539 -0.54361,0.50539c-0.30023,0 -0.54362,-0.22627 -0.54362,-0.50539z" fill="#000000" stroke-width="0.5" stroke-linecap="butt"/><path d="M238.55365,220.58867c0,-0.2791 0.24338,-0.50538 0.54361,-0.50538c0.30023,0 0.54362,0.22626 0.54362,0.50538c0,0.2791 -0.24339,0.50539 -0.54362,0.50539c-0.30023,0 -0.54361,-0.22627 -0.54361,-0.50539z" fill="#000000" stroke-width="0.5" stroke-linecap="butt"/><path d="M238.29118,214.41176c0,-0.2791 0.24339,-0.50538 0.54362,-0.50538c0.30023,0 0.54362,0.22626 0.54362,0.50538c0,0.2791 -0.24339,0.50539 -0.54362,0.50539c-0.30023,0 -0.54362,-0.22627 -0.54362,-0.50539z" fill="#000000" stroke-width="0.5" stroke-linecap="butt"/><path d="M237.11038,207.04436l-18.77062,-26.99864l5.6666,-4.60952l-3.18746,-5.59728l5.66661,-2.63401" fill="none" stroke-width="2" stroke-linecap="round"/><path d="M248.26701,167.02275l5.27362,2.65574l-2.52962,5.58502l4.2033,4.63124l-17.63793,27.4244" fill="none" stroke-width="2" stroke-linecap="round"/><g stroke-width="1.5" stroke-linecap="round"><path d="M246.06318,211.45465l0.09258,-3.27005l3.05463,1.03266l2.22156,-3.184l0.18512,5.50747z" fill="#ffffff"/><path d="M244.45725,211.78787h8.97879" fill="none"/></g></g><path d="M236.68394,174.68107l-7.66279,3.00817" fill="none" stroke-width="1.5" stroke-linecap="round"/><path d="M237.87522,174.93548l7.79158,2.46939" fill="none" stroke-width="1.5" stroke-linecap="round"/></g></g><path d="M220.3072,165.12624c-4.44773,-1.19896 -5.64146,-4.0981 -5.64146,-4.0981c0,0 -1.66257,-2.59169 -1.66059,-4.16251c0.00592,-4.7125 0.65732,-18.15355 2.29836,-29.67952c0.05477,-0.38467 0.09956,-0.59887 0.17732,-0.97959c0.23321,-1.14217 1.33372,-5.56424 1.33372,-5.56424c0,0 3.37786,-1.50422 5.18744,-1.88404c5.42876,-1.1395 18.9259,1.1751 33.20775,2.4358c1.29445,0.11425 3.41755,1.96164 3.41755,1.96164c0,0 1.39833,3.29785 1.2309,5.32065c-1.0824,13.07784 -2.32842,27.54356 -2.8314,30.83799c-0.08707,0.57036 -0.48573,3.04403 -2.37142,5.0527c-0.49694,0.52934 -2.36223,2.70082 -5.94655,2.96593c-9.00185,0.66581 -24.92096,-1.26843 -28.4016,-2.20672z" fill="#ffddb7" stroke="#000000" stroke-width="2.5" stroke-linecap="round"/><path d="M250.21364,149.44326c0.29078,-3.51319 0.95115,-6.32605 1.47498,-6.28267c0.52386,0.04337 0.71279,2.92656 0.42205,6.43973c-0.29078,3.51319 -0.95116,6.32605 -1.47499,6.28268c-0.52386,-0.04337 -0.71279,-2.92656 -0.42204,-6.43975z" fill="#000000" stroke="#000000" stroke-width="2.5" stroke-linecap="butt"/><path d="M243.69735,149.08231c0.29616,-3.57826 0.85475,-6.45266 1.24764,-6.42011c0.39287,0.03253 0.47129,2.95968 0.17515,6.53794c-0.29616,3.57826 -0.85472,6.45261 -1.24762,6.4201c-0.39287,-0.03253 -0.47132,-2.95965 -0.17517,-6.53791z" fill="#000000" stroke="#000000" stroke-width="2.5" stroke-linecap="butt"/><path d="M257.75703,143.87367c-0.05143,-0.80903 -0.10099,-1.61749 -0.15497,-2.42554c-0.82727,0.39841 -1.60761,0.74079 -1.75851,0.81293c-1.65728,0.79255 -4.31319,2.10655 -6.12182,2.318c-0.8844,0.10341 -1.95267,0.41698 -2.66971,-0.10869c-0.88672,-0.65006 -0.60516,-3.0748 -0.56167,-4.00671c0.16354,-3.50379 0.33521,-7.00727 0.5037,-10.51086c-1.716,1.6732 -4.37727,3.07581 -6.02368,4.56268c-3.70364,3.34465 -7.62525,6.32584 -11.4614,9.4722c-1.31583,1.07924 -2.41365,2.112 -3.85239,3.03575c-0.55157,0.35417 -0.96874,1.16202 -1.62365,1.10874c-0.91458,-0.07441 -1.56466,-0.95453 -2.34699,-1.43179c-0.05122,-1.60928 -0.09575,-3.65112 0.09632,-5.49063c-0.83782,1.04517 -1.93571,2.04468 -2.58993,2.95526c-2.28072,3.1743 -6.48143,12.35995 -6.48143,12.35995c-3.87268,-0.26707 -7.28238,-3.95722 -9.39892,-6.89552c-2.07629,-0.13635 -4.11851,-0.42045 -6.21061,-0.52174c-0.49879,-0.02416 -3.28585,-0.1152 -3.58574,-0.33909c-1.84784,-1.37952 -1.21732,-2.60827 -0.61056,-4.26207c0.48548,-1.32324 1.28796,-2.43089 2.27999,-3.36461c-1.09164,-0.73457 -2.34235,-1.62959 -2.64748,-2.57542c-0.55169,-1.71016 0.13399,-2.35368 0.94282,-3.595c0.90516,-1.38919 2.03748,-2.56244 3.31744,-3.55887c-0.69056,-0.46981 -1.42845,-1.00298 -1.50664,-1.1978c-0.8254,-2.05661 0.15897,-2.78559 1.14765,-4.20512c1.70549,-2.44875 4.58072,-3.78232 7.27569,-4.73525c0.29233,-2.58131 1.60769,-4.14021 2.98046,-6.37825c1.80788,-2.94745 5.07525,-7.21646 9.93592,-10.36072c5.33385,-3.45033 11.92059,-5.2818 13.9552,-5.64942c4.4153,-0.79775 10.0037,-0.44505 12.15915,-0.12253c3.97073,0.59418 10.97038,2.8366 15.90937,6.33542c4.9774,3.52603 7.53728,7.98024 7.88788,8.69896c3.06066,6.27437 4.94205,12.18839 4.61972,19.10244c-0.08288,1.72872 0.54752,10.8083 -2.29196,15.60427c-3.44947,5.82632 -10.80707,8.15003 -11.11266,8.23509c-0.36192,0.10075 -1.81624,-0.20091 -1.9758,-1.28448c-0.38431,-2.61009 1.0036,-7.95167 1.72378,-10.06845c0.13363,-0.34245 0.25753,-0.68841 0.37631,-1.03625c-0.11062,-0.25355 -0.12483,-0.47679 -0.12483,-0.47679z" fill="#000000" stroke="none" stroke-width="0.5" stroke-linecap="butt"/><g><g data-paper-data="{&quot;index&quot;:null}"><path d="M243.63766,191.72924c2.30088,0.82107 7.37413,-1.49534 6.61161,0.64153c-0.508,1.42357 -12.27218,19.49554 -14.13793,20.12139c-0.93481,0.31359 -2.24878,0.26316 -3.01685,-0.01091c-1.12888,-0.40286 -1.84914,-1.33203 -2.16941,-2.51221c-0.33246,-1.22534 6.37649,-21.24477 6.76489,-22.33321c0.76254,-2.13687 3.64681,3.27228 5.94771,4.09338z" fill="#485e84" stroke="#000000" stroke-width="1.5" stroke-linecap="butt"/><g stroke-linecap="butt"><path d="M246.13914,184.65304c4.16869,1.48761 6.75178,4.92491 5.76954,7.67745c-0.98224,2.75252 -5.1579,3.77793 -9.32659,2.29034c-4.16869,-1.48762 -6.75178,-4.92494 -5.76954,-7.67747c0.98224,-2.75253 5.15788,-3.77796 9.32657,-2.29034z" fill="#485e84" stroke="#000000" stroke-width="1.5"/><path d="M247.63642,192.20863l3.93613,-0.30538c0,0 -1.29575,1.51331 -2.03879,1.89407c-1.56937,0.77508 -3.26497,0.58135 -3.26497,0.58135z" fill="#6987bb" stroke="none" stroke-width="0"/><path d="M244.0362,191.80116l1.61995,0.25236c0,0 -0.23926,1.0036 -0.38236,1.33532c-0.16755,0.38844 -0.67672,0.99977 -0.67672,0.99977l-1.83974,-0.60101z" fill="#6987bb" stroke="none" stroke-width="0"/></g><g><path d="M243.85737,190.71633c-5.75078,-2.05221 -7.7313,-6.57487 -5.67911,-12.32569c2.05218,-5.75075 8.67243,-8.6439 14.42325,-6.59172c5.7508,2.05219 8.37003,7.578 6.31784,13.32882c-2.05218,5.75076 -9.31113,7.64079 -15.06195,5.5886z" fill="#2c394f" stroke="#000000" stroke-width="1.5" stroke-linecap="butt"/><path d="M254.26514,173.29794c0,0 6.65269,5.00751 4.85718,10.03902c-1.01817,2.85322 -3.46254,5.31478 -5.96826,6.86079c-1.7852,1.10145 -4.06568,1.52591 -6.09845,0.80051c-4.17834,-1.49108 -5.00026,-3.88198 -3.20475,-8.91348c0.89667,-2.51269 3.46906,-5.07381 5.99566,-6.49854c2.53271,-1.42822 4.41861,-2.28829 4.41861,-2.28829z" fill="#485e84" stroke="none" stroke-width="0" stroke-linecap="butt"/><path d="M258.57613,185.07632c0,0 -4.24672,2.93264 -10.98302,0.79604c-6.79151,-2.15409 -8.58993,-6.75059 -8.58993,-6.75059" fill="none" stroke="#000000" stroke-width="0.8" stroke-linecap="round"/><path d="M255.74636,189.21731c0,0 -4.68543,0.81177 -9.12714,-0.05619c-6.40106,-1.25082 -8.06725,-4.08377 -8.06725,-4.08377" fill="none" stroke="#000000" stroke-width="0.75" stroke-linecap="round"/><path d="M259.25205,180.29546c0,0 -4.21686,2.27706 -11.0802,0.51818c-6.60132,-1.69173 -7.82731,-4.36811 -7.82731,-4.36811" fill="none" stroke="#000000" stroke-width="0.8" stroke-linecap="round"/><path d="M240.87039,175.15238c0,0 4.75515,-0.83808 8.28288,-0.53575c4.64656,0.39818 9.02503,2.01202 9.02503,2.01202" fill="none" stroke="#000000" stroke-width="0.8" stroke-linecap="round"/><path d="M241.9182,189.17597c0,0 -1.186,-4.02205 0.73166,-10.16933c1.78954,-5.73649 5.48451,-7.24993 5.48451,-7.24993" fill="none" stroke="#000000" stroke-width="0.8" stroke-linecap="round"/><path d="M250.34943,172.22522c0,0 -1.21539,2.80411 -2.05561,6.03532c-0.73888,2.84156 -1.07948,6.03739 -1.54377,7.61488c-0.55145,1.87365 -1.8537,4.8784 -1.8537,4.8784" fill="none" stroke="#000000" stroke-width="0.8" stroke-linecap="round"/><path d="M253.16002,172.64876c0,0 1.38734,5.52019 0.08989,9.50707c-2.0364,6.25758 -5.68561,9.42129 -5.68561,9.42129" fill="none" stroke="#000000" stroke-width="0.8" stroke-linecap="round"/><path d="M256.30947,174.28773c0,0 1.19694,3.9814 0.45008,8.12076c-1.0755,5.96081 -3.59896,8.46149 -3.59896,8.46149" fill="none" stroke="#000000" stroke-width="0.8" stroke-linecap="round"/><path d="M257.59672,183.31028c-0.41002,-0.14631 -0.6056,-0.64849 -0.43676,-1.12163c0.16881,-0.47315 0.6381,-0.73806 1.04815,-0.59173c0.41005,0.14633 0.60561,0.6485 0.43677,1.12163c-0.16882,0.47316 -0.63812,0.73808 -1.04816,0.59175z" fill="#6987bb" stroke="none" stroke-width="0" stroke-linecap="butt"/><path d="M257.90988,179.81652c-0.23659,-0.08443 -0.35989,-0.34465 -0.2755,-0.5812c0.08445,-0.23658 0.34465,-0.35989 0.58121,-0.2755c0.2366,0.08442 0.35991,0.34464 0.27552,0.5812c-0.08442,0.23659 -0.34465,0.35989 -0.58121,0.2755z" fill="#6987bb" stroke="none" stroke-width="0" stroke-linecap="butt"/></g></g><g><path d="M211.25402,163.2798c2.92206,-1.34269 17.12046,6.8931 17.71748,9.11788c0.64889,2.41801 -8.7606,13.96574 -8.7606,13.96574l-3.29941,-1.30408l21.98456,8.22891c0,0 7.73602,2.4591 6.70919,4.4814c0,0 -0.08939,11.13841 -11.6539,26.0569c-5.05999,-0.91062 -15.29536,-7.14649 -15.29536,-7.14649c0,0 -23.36826,-12.79354 -23.69836,-17.4982c-0.3301,-4.70464 13.55435,-34.64208 16.2964,-35.90206z" fill="#68330c" stroke="none" stroke-width="3" stroke-linecap="round"/><path d="M239.20368,193.23996c0,0 7.28632,3.37273 6.24809,5.34761c0,0 -0.24323,10.95511 -11.82672,25.46853c-2.6752,-0.52069 -6.80702,-2.58332 -10.04884,-4.37494c0.22951,-0.44246 0.42881,-0.84831 0.59057,-1.18368c3.58551,-7.4331 7.75553,-18.09125 11.93962,-26.02764c0.04147,-0.07865 3.09729,0.7701 3.09729,0.7701z" fill="#ffddb7" stroke="#000000" stroke-width="2" stroke-linecap="butt"/><path d="M237.05904,193.31429l-12.9146,26.50266l-3.05457,-1.68131l12.5352,-26.32999z" data-paper-data="{&quot;index&quot;:null}" fill="#ffffff" stroke="#000000" stroke-width="2" stroke-linecap="round"/><path d="M211.35788,163.49139c2.92206,-1.34269 17.12046,6.8931 17.71748,9.11788c0.64889,2.41801 -8.76061,13.96574 -8.76061,13.96574l-3.29941,-1.30408l21.98456,8.22891c0,0 7.73602,2.4591 6.70919,4.48139c0,0 -0.08939,11.13841 -11.6539,26.0569c-5.05999,-0.91062 -15.29536,-7.14649 -15.29536,-7.14649c0,0 -23.36826,-12.79354 -23.69836,-17.49819c-0.3301,-4.70464 13.55435,-34.64208 16.2964,-35.90206z" data-paper-data="{&quot;origPos&quot;:null}" fill="none" stroke="#000000" stroke-width="2.5" stroke-linecap="round"/></g></g><path d="M224.82271,155.03255c0.68211,0.36678 0.29528,0.99711 0.29528,0.99711l-0.64262,1.03598c-0.95805,2.67511 3.17649,2.61855 5.09519,2.34239c0,0 0.77372,-0.11059 0.90124,0.61024c0.12752,0.72083 -0.64618,0.83141 -0.64618,0.83141c-3.50259,0.4974 -7.87909,-0.27085 -6.79902,-4.3575l0.7272,-1.19612c0,0 0.38682,-0.63032 1.06892,-0.26354z" fill="#000000" stroke="none" stroke-width="0.5" stroke-linecap="butt"/><path d="M153.5,284v-208h173v208z" fill="none" stroke="none" stroke-width="0" stroke-linecap="butt"/></g></g></svg>