<svg version="1.1" xmlns="http://www.w3.org/2000/svg" xmlns:xlink="http://www.w3.org/1999/xlink" width="189.26654" height="221.55319" viewBox="0,0,189.26654,221.55319"><g transform="translate(-205.36673,-69.22341)"><g data-paper-data="{&quot;isPaintingLayer&quot;:true}" fill-rule="nonzero" stroke-linejoin="miter" stroke-miterlimit="10" stroke-dasharray="" stroke-dashoffset="0" style="mix-blend-mode: normal"><path d="M205.36673,290.77659v-221.55318h189.26654v221.55319z" fill="none" stroke="none" stroke-width="NaN" stroke-linecap="butt"/><g data-paper-data="{&quot;index&quot;:null}"><g><g data-paper-data="{&quot;origRot&quot;:0}" stroke="#000000" stroke-width="3" stroke-linecap="round"><path d="M350.29598,212.54171c0.72381,2.35194 -8.45605,3.41785 -8.45605,3.41785c0,0 -24.20289,3.47556 -35.62687,5.16392c-4.90559,0.02498 -17.5027,-37.05363 -14.78027,-42.24814c1.21357,-2.31555 10.36009,-7.21988 12.25632,-6.30831c3.60929,1.73508 13.33909,15.78376 13.33909,15.78376l-4.15231,1.40593l11.22786,-2.67217c0,0 12.78311,-4.21584 18.63118,-4.53268c3.24338,-0.17572 7.56107,29.98984 7.56107,29.98984z" data-paper-data="{&quot;origPos&quot;:null}" fill="#582700"/><path d="M340.07532,214.61874l-7.5591,-29.18207" fill="none"/><path d="M328.19134,186.73848l7.85222,29.1138" data-paper-data="{&quot;origPos&quot;:null}" fill="none"/></g><path d="M340.04974,215.26627l-2.87346,0.68727l-7.92942,-29.80379l2.87346,-0.68726z" fill="#ffffff" stroke="none" stroke-width="0" stroke-linecap="butt"/><path d="M305.95697,221.34523l-6.15448,-9.43791l-7.30885,-22.97911l-0.58582,-8.47078l2.67198,-4.46029l7.54912,-2.24012l1.50981,-0.44803l12.14954,14.20787l-2.9409,1.13463l0.63005,1.90871l13.57305,-3.2418l8.77445,29.09316l-28.4369,4.24705z" fill="#66c8ff" stroke="#000000" stroke-width="0.5" stroke-linecap="round"/></g><g fill="#fffc96" stroke="#000000" stroke-width="2" stroke-linecap="round"><path d="M320.40028,187.15697c0,0 3.09709,-4.03309 6.04778,-2.09715c4.72099,3.09742 -20.51109,31.884 -25.61531,28.94642c-2.08546,-1.20023 -0.35755,-4.46008 -0.35755,-4.46008l2.05337,0.88307c0,0 5.95697,-4.3174 11.99661,-10.8956c5.95595,-6.48705 8.60579,-11.79151 8.60579,-11.79151z"/><path d="M310.61736,184.05552c0,0 -0.56893,-4.47823 2.15286,-4.0784c5.71344,0.83929 7.92351,42.25854 2.7697,40.25564c-3.12126,-1.21299 -2.27463,-5.19996 -2.27463,-5.19996l1.52751,0.60552c0,0 0.82541,-6.20143 0.16239,-15.56527c-0.663,-9.36385 -2.83792,-15.61814 -2.83792,-15.61814z" data-paper-data="{&quot;index&quot;:null}"/></g></g><g stroke="#000000" stroke-linecap="round"><path d="M278.01977,179.84507c0,0 -29.25891,7.89121 -30.64888,-10.04101c-0.51212,-6.60682 16.68342,-6.15842 16.68342,-6.15842z" data-paper-data="{&quot;origPos&quot;:null}" fill="#66c8ff" stroke-width="2"/><path d="M268.68763,168.75292c0,0 -16.88935,-0.7724 -16.71551,-1.3993c0.55125,-1.98766 12.98774,-2.25671 12.98774,-2.25671z" data-paper-data="{&quot;origPos&quot;:null}" fill="#0a0a0a" stroke-width="1"/></g><g data-paper-data="{&quot;origRot&quot;:0}" stroke="#000000" stroke-linecap="round"><path d="M296.12136,231.84614c0,0 -2.85431,-3.96519 -1.48308,-4.79664c4.04631,-2.45344 6.98592,-6.24694 11.6844,-7.19157c1.95106,-0.39227 5.01772,2.76026 5.01772,2.76026l22.82398,25.05633c0,0 2.39231,2.55811 3.71219,4.07385c1.41119,1.62058 2.30648,4.8195 0.50946,6.04976c-6.59804,4.51717 -9.83051,8.48372 -14.69851,10.30142c-1.77349,0.66222 -3.7015,1.25462 -5.29352,0.26084c-2.07961,-1.29811 -4.04918,-5.37225 -4.04918,-5.37225z" data-paper-data="{&quot;origPos&quot;:null}" fill="#ff0000" stroke-width="3"/><path d="M339.87127,254.51657c0,0 -3.63603,5.50066 -8.07987,8.3512c-3.40945,2.18703 -11.39925,6.07593 -11.39925,6.07593c0,0 -2.72279,-1.40165 -3.74627,-2.67711c-1.0782,-1.34362 -1.63909,-4.03396 -1.63909,-4.03396l19.89156,-13.72239z" data-paper-data="{&quot;origPos&quot;:null}" fill="#976e57" stroke-width="2"/><path d="M296.38206,232.06627c0,0 -2.85431,-3.96519 -1.48308,-4.79663c4.0463,-2.45343 6.98592,-6.24695 11.68441,-7.19155c1.95106,-0.39227 5.01771,2.76026 5.01771,2.76026l22.82397,25.05633c0,0 2.39234,2.55811 3.71223,4.07383c1.41119,1.62058 2.30648,4.81949 0.50946,6.04976c-6.59804,4.51717 -9.83051,8.48373 -14.69851,10.30143c-1.77349,0.66222 -3.7015,1.25459 -5.29351,0.26083c-2.07961,-1.29811 -4.04919,-5.37224 -4.04919,-5.37224z" data-paper-data="{&quot;origPos&quot;:null}" fill="#4b4b4b" stroke-width="3"/></g><path d="M284.07512,263.94321c0,0 -0.26082,4.4749 -1.69527,6.40445c-1.09814,1.47715 -3.12105,1.59469 -5.02711,1.59365c-5.23189,-0.00287 -9.7709,-2.57301 -17.6546,-4.488c-2.14716,-0.52156 -2.54841,-3.80925 -1.86046,-5.807c0.64345,-1.86851 1.8827,-5.07916 1.8827,-5.07916l11.57213,-31.23685c0,0 1.63745,-3.99779 3.60458,-4.30957c4.73721,-0.75084 8.9369,1.75981 13.6494,2.63942c1.597,0.29809 0.47077,4.97851 0.47077,4.97851c0,0 -1.24965,8.92704 -2.0495,14.64082c-1.12889,8.0643 -2.89264,20.66376 -2.89264,20.66376z" fill="#4b4b4b" stroke="#000000" stroke-width="3" stroke-linecap="round"/><path d="M298.27429,157.8805c0,0 -2.86964,0.44992 -6.40075,0.42912" fill="none" stroke="#000000" stroke-width="2.5" stroke-linecap="round"/><g><g><path d="M265.99266,186.9733c0,0 0.56906,-14.43887 2.82245,-15.19249c6.76015,-2.26084 22.70604,-2.79388 33.29865,-3.76517c1.6375,-0.15016 4.46976,13.1022 4.46976,13.1022l5.11676,30.11075c0,0 1.82804,14.76676 0.04167,14.93057c-15.90187,1.45812 -34.45058,4.01022 -41.6265,3.82861c-2.39195,-0.06053 -3.15637,-15.72336 -3.15637,-15.72336z" data-paper-data="{&quot;origPos&quot;:null}" fill="#66c8ff" stroke="#000000" stroke-width="3.5" stroke-linecap="round"/><path d="M287.03563,193.22965c-1.38344,0.12685 -1.64412,-2.33282 -1.64412,-2.33282c-0.54065,-5.10155 -1.25507,-11.84288 -1.7957,-16.94445c0,0 -0.26067,-2.45968 1.12277,-2.58654c1.38344,-0.12685 1.64411,2.33281 1.64411,2.33281c0.54065,5.10155 1.08128,10.2031 1.62193,15.30465l0.17377,1.63977c0,0 0.26067,2.4597 -1.12278,2.58655z" fill="#ffffff" stroke="none" stroke-width="0.5" stroke-linecap="butt"/><path d="M300.55193,198.31361c-1.38344,0.12685 -1.71091,-2.96318 -1.71091,-2.96318c-0.6792,-6.40899 -1.57673,-14.87801 -2.25592,-21.28698c0,0 -0.32746,-3.09004 1.05598,-3.2169c1.38344,-0.12685 1.71091,2.96319 1.71091,2.96319c0.6792,6.40899 1.35839,12.81798 2.03761,19.22697l0.21831,2.06003c0,0 0.32746,3.09005 -1.05598,3.21691z" fill="#ffffff" stroke="none" stroke-width="0.5" stroke-linecap="butt"/></g><g fill="none" stroke="#b9b9b9" stroke-width="3"><path d="M300.30181,172.87639c-1.02863,-1.26164 -0.17812,-2.55727 1.0041,-3.88178c1.18223,-1.32449 2.45787,-1.8128 3.2771,-0.91468c1.737,1.90429 0.24406,3.01516 -0.68165,4.05228c-1.18222,1.3245 -2.14682,2.52596 -3.59953,0.74421z" stroke-linecap="butt"/><path d="M301.2941,172.1956l-2.50999,2.74563" stroke-linecap="round"/><path d="M295.05159,175.91183c1.18223,-1.32449 2.45788,-1.8128 3.27711,-0.91469c1.737,1.90429 0.24406,3.01516 -0.68165,4.05229c-1.1822,1.3245 -2.14682,2.52595 -3.59954,0.7442c-1.02863,-1.26164 -0.17814,-2.55727 1.00408,-3.8818z" stroke-linecap="butt"/><path d="M295.03978,179.11279l-2.50997,2.74564" stroke-linecap="round"/><path d="M286.46068,181.96338c0.25779,-1.65615 1.70712,-1.63466 3.38298,-1.33023c1.67587,0.30444 2.81542,1.17513 2.68592,2.43266c-0.27456,2.66628 -1.99162,1.95807 -3.30387,1.7197c-1.67586,-0.30443 -3.12909,-0.48322 -2.76503,-2.82212z" stroke-linecap="butt"/><path d="M284.05015,181.78259l3.51084,0.68465" stroke-linecap="round"/><path d="M278.29086,178.34365c0.81847,-1.3897 2.15922,-0.72677 3.61188,0.29371c1.45266,1.02047 2.20854,2.31717 1.64872,3.40178c-1.18699,2.29967 -2.53688,0.89418 -3.67438,0.09512c-1.45266,-1.02048 -2.7421,-1.82802 -1.58622,-3.79061z" stroke-linecap="butt"/><path d="M276.11159,177.10935l3.02684,2.18041" stroke-linecap="round"/><path d="M270.68324,172.92627c0.81846,-1.38968 2.15922,-0.72677 3.61189,0.29371c1.45267,1.02048 2.20854,2.31718 1.64872,3.40179c-1.187,2.29966 -2.53688,0.89418 -3.67438,0.09512c-1.45266,-1.02047 -2.74208,-1.82801 -1.58621,-3.79062z" stroke-linecap="butt"/><path d="M268.50398,171.69193l3.02686,2.18041" stroke-linecap="round"/></g></g><path d="M301.19811,173.28703c-12.66487,-1.37924 -24.94198,-2.75258 -29.82412,-4.34367c-4.46196,-1.45414 -5.48121,-4.35728 -5.48121,-4.35728c0,0 -1.5196,-2.63344 -1.40891,-4.16486c0.33209,-4.59425 1.92766,-17.6573 4.40198,-28.78974c0.08258,-0.37155 0.14319,-0.57752 0.24897,-0.94374c0.31732,-1.09865 1.74782,-5.33954 1.74782,-5.33954c0,0 3.55573,-1.25001 5.43114,-1.50433c5.62621,-0.76293 19.25814,2.35911 33.76481,4.50395c1.31484,0.19441 3.35652,2.13167 3.35652,2.13167c0,0 1.20072,3.30501 0.88968,5.2665c-2.01086,12.6813 -4.28493,26.70527 -5.02684,29.88507c-0.24728,1.05994 -2.72052,4.98818 -2.72052,4.98818z" fill="#582700" stroke="#000000" stroke-width="2.5" stroke-linecap="round"/><path d="M266.29218,125.61613c-0.55656,-1.13315 0.63855,-1.66086 0.63855,-1.66086l1.47104,-0.60429c0.12867,-0.02198 0.25713,-0.04322 0.38545,-0.06371c-0.33523,-5.86404 1.72174,-12.66323 2.41585,-18.3437c0.18,-1.47315 0.29696,-5.5069 1.20873,-6.6831c1.5268,-1.96958 3.24293,-1.17349 5.22879,-0.95017c3.3789,0.37998 6.72565,0.79601 10.12737,0.70291c8.43117,-0.22139 16.68101,0.44945 25.0911,0.71595c2.65387,0.08411 5.23167,0.28325 7.84592,0.79555c0.7153,0.14017 1.6717,-0.00486 2.11425,0.54612c1.56738,1.95134 0.55476,3.80942 -0.02414,5.71995c-1.15473,3.8109 -3.29011,7.12315 -3.91887,11.08831c-0.50241,3.03047 -1.39242,6.09757 -2.18369,9.0699c-0.27307,1.02572 -0.15971,2.99516 -1.36991,3.65151c-2.48147,1.34581 -8.24574,-0.52626 -10.89406,-0.91132c-8.07525,-1.17414 -16.13174,-2.50697 -24.26524,-3.24303c-2.91953,-0.16903 -5.71321,-0.24947 -8.55814,0.00843c-0.07431,0.36683 -0.32008,0.82018 -1.06206,0.94065c-0.80501,0.1307 -1.19671,-0.29242 -1.37823,-0.63333c-0.09784,0.01592 -0.1958,0.03233 -0.29388,0.04921l-0.82712,0.41048c0,0 -1.19513,0.5277 -1.7517,-0.60545z" fill="#000000" stroke="none" stroke-width="0.5" stroke-linecap="butt"/><path d="M284.38612,146.14809c5.26144,-1.79943 9.39905,0.96132 10.38909,5.92839c1.13547,5.69664 -3.32245,8.26457 -3.32245,8.26457c0,0 -2.51291,-1.41925 -5.84972,-2.24258c-4.15486,-1.02517 -6.54084,-0.8746 -6.54084,-0.8746c0,0 -1.8138,-8.63467 5.32391,-11.07579z" fill="#ffffff" stroke="#0a0a0a" stroke-width="2" stroke-linecap="butt"/><path d="M311.35216,150.49682c5.72036,4.72677 0.73092,12.15208 0.73092,12.15208c0,0 -2.16641,-0.95978 -6.43077,-1.43122c-3.42475,-0.37862 -6.30922,0.0812 -6.30922,0.0812c0,0 -3.17411,-3.92459 0.06061,-8.8444c2.82045,-4.28971 7.73178,-5.44193 11.94844,-1.95767z" data-paper-data="{&quot;index&quot;:null}" fill="#ffffff" stroke="#0a0a0a" stroke-width="2" stroke-linecap="butt"/><g><g stroke="#000000" stroke-width="3" stroke-linecap="round"><path d="M242.45732,198.64511l18.25627,-24.62501c0,0 3.54034,-4.62524 4.74758,-4.48666c3.62172,0.41572 9.04352,4.46546 15.28527,7.44438c1.0375,0.49515 -1.23212,6.01504 -1.23212,6.01504c0,0 -3.97514,8.5354 -6.51943,13.99848c-3.87471,8.31974 -9.92844,21.31831 -9.92844,21.31831c0,0 -2.86776,6.74771 -4.70086,5.69377c0,0 -10.49215,-0.83063 -23.73144,-12.17096c1.218,-4.46059 7.82318,-13.18733 7.82318,-13.18733z" data-paper-data="{&quot;origPos&quot;:null}" fill="#582700"/><path d="M241.52594,200.5527l23.60759,12.63744l-1.71966,2.98584l-23.70042,-12.39424z" data-paper-data="{&quot;origPos&quot;:null}" fill="none"/></g><path d="M242.43295,200.50208l22.69582,-30.60931l14.53599,7.75127l0.83488,1.20792l-14.93407,34.04001z" fill="#66c8ff" stroke="#000000" stroke-width="1" stroke-linecap="round"/><path d="M240.13872,203.45985l1.19007,-2.03981l23.53487,12.34336l-1.19005,2.03982z" fill="#ffffff" stroke="none" stroke-width="0" stroke-linecap="butt"/></g><g data-paper-data="{&quot;index&quot;:null}" stroke="#000000" stroke-width="1" stroke-linecap="butt"><g data-paper-data="{&quot;index&quot;:null}" fill="#000000"><path d="M275.38468,165.4437c-11.09189,-2.33815 -6.14336,-5.7744 -6.14336,-5.7744l13.93331,2.75169c0,0 2.648,5.12197 -7.78992,3.02275z"/></g><g data-paper-data="{&quot;index&quot;:null}" fill="#ffffff"><path d="M275.38469,165.44374c-11.09189,-2.33815 -6.14336,-5.7744 -6.14336,-5.7744c0,0 9.42634,1.86158 11.7787,2.32616c0.00321,0.00067 -0.95495,0.92105 -1.1518,1.99165c-0.16123,0.87684 0.43484,1.94277 0.41379,1.94401c-1.17466,0.06926 -2.76223,-0.05801 -4.89732,-0.48739z"/></g></g><path d="M261.01804,180.42689l0.19756,0.053c0.14167,2.15118 -0.50854,3.77519 -0.60766,5.87945c-0.06813,1.44619 8.12716,2.26446 7.92234,3.78403c-0.12718,0.94351 -8.41199,1.88073 -8.19289,2.8072c0.55125,2.33097 9.31932,1.93753 9.59617,4.72072c0.11642,1.17043 -7.73409,2.85484 -7.73073,4.03105c0.00309,1.07558 10.20955,3.72526 10.66124,4.71809c1.7251,3.79193 -6.94466,6.0846 -8.83595,9.44889c-1.91525,3.40691 -3.71563,8.54741 -8.42508,8.72271c-2.16281,0.0805 -4.2023,-1.48159 -5.98158,-2.48183c-3.77587,-2.12267 -8.00539,-4.75784 -11.33863,-7.55923c-1.42588,-1.19837 -3.75544,-3.67748 -3.86748,-5.65467c-0.06653,-1.17386 1.14443,-3.09019 1.71952,-4.11886c3.28669,-5.82166 8.44999,-11.77958 13.31087,-16.3634c2.61209,-2.4632 5.13091,-4.26721 7.14051,-7.01066c-0.28568,-1.30603 1.03471,-1.88805 1.03471,-1.88805l0.15401,0.04132c0.19963,-0.29731 1.0187,-1.33229 2.33529,-0.59213c0.7365,0.41403 0.91753,0.98377 0.90775,1.46233z" data-paper-data="{&quot;index&quot;:null}" fill="#000000" stroke="none" stroke-width="0.5" stroke-linecap="butt"/><path d="M303.98118,257.42955c0.92856,0.12776 -2.98338,2.60662 -2.32689,3.27563c1.84695,1.88216 5.81982,3.16356 5.22757,4.09197c-0.2787,0.43689 -4.94206,0.27659 -5.11753,1.01719c-0.31563,1.33217 0.68228,2.85327 0.12813,4.10516c-1.73556,3.92091 -6.53967,4.17756 -10.05184,3.74421l-1.83294,-1.08649c0,0 -0.01415,-0.01061 -0.03853,-0.03112c-3.16788,1.35269 -8.08616,-0.37246 -11.41147,-0.36888c-4.81052,0 -9.36594,-0.64811 -14.12406,-1.0044c-5.34433,-0.40019 -12.01696,0.92386 -17.11048,-1.40721c-1.28269,-0.58703 -2.16641,0.64498 -3.43516,0.02841c-1.11563,-0.54216 -2.56648,0.29787 -3.69052,-0.22663c-0.95024,-0.44339 -4.65825,-0.78391 -5.48737,-1.42587c0.15286,-1.17627 -4.90394,-1.01303 -4.29142,-2.0288c0.69137,-1.14653 8.71896,-4.21233 9.65157,-5.17293c0.80956,-0.83387 3.02098,-3.15353 3.51686,-4.15894c0.82635,-1.67541 1.74839,-3.17237 4.53663,-3.10238c0.55491,0.01393 1.11428,0.15637 1.67731,0.36041c0.69382,0.25143 6.14321,-2.6536 6.84671,-2.34029c1.12982,0.50316 -2.47974,4.17466 -1.33475,3.99582c1.28362,-0.20048 2.41399,-1.02233 3.69459,-1.24127c3.42955,-0.58635 -2.79022,0.09857 0.71561,0.3538c0.01519,-0.35425 1.25908,-0.48867 1.22335,-0.82415l0.16667,0.19444c0,0 -2.55556,0.10558 -1.38449,-0.22999c0.56342,-0.5226 1.65151,-3.38712 1.81673,-4.10157c0.18126,-0.78383 0.93205,-3.90465 1.44554,-4.524c0.15015,-0.18112 1.31838,1.84973 3.52427,1.75045c4.53516,-0.20411 3.00957,-1.92039 3.56975,-1.89139c0.48929,0.02533 3.49556,1.92184 4.30598,1.91316c1.329,-0.01424 6.86961,-1.27432 8.19402,-1.16316c1.71026,0.14354 0.80913,2.47095 2.70978,2.95225c0.2557,0.06475 -0.46302,-0.9365 0.93584,-1.52439c0.51889,-0.21806 -0.10658,-1.52299 -0.04181,-1.48892c1.61226,0.84806 2.74045,3.70805 3.71125,6.73586c0.21053,0.6566 9.24698,0.32109 9.44603,0.97467c0.48822,1.60301 -7.88139,4.14038 -7.39299,5.33461c0.3268,0.79908 2.39175,-0.60769 2.42095,0.25513c-0.46868,1.67955 2.71599,-0.66591 1.96844,0.60195c1.44139,-0.65381 2.23899,-3.12665 4.3053,-2.84236z" fill="#000000" stroke="none" stroke-width="0.5" stroke-linecap="butt"/><g fill="#000000" stroke="none" stroke-width="0" stroke-linecap="butt"><path d="M244.20623,246.20476c-0.56209,0.91504 -2.56066,0.70902 -4.46392,-0.46013c-1.90326,-1.16915 -2.9905,-2.85872 -2.42841,-3.77375c0.56209,-0.91504 2.56066,-0.70902 4.46392,0.46013c1.90326,1.16915 2.9905,2.85872 2.42841,3.77375z"/><path d="M233.92357,246.00405c-0.35974,0.58562 -1.7492,0.38597 -3.10345,-0.44593c-1.35425,-0.8319 -2.16046,-1.98102 -1.80072,-2.56664c0.35974,-0.58562 1.7492,-0.38597 3.10345,0.44593c1.35425,0.8319 2.16046,1.98102 1.80072,2.56664z"/></g><g fill="#000000" stroke="none" stroke-width="0" stroke-linecap="butt"><path d="M234.20623,195.95476c-0.56209,0.91504 -2.56066,0.70902 -4.46392,-0.46013c-1.90326,-1.16915 -2.9905,-2.85872 -2.42841,-3.77375c0.56209,-0.91504 2.56066,-0.70902 4.46392,0.46013c1.90326,1.16915 2.9905,2.85872 2.42841,3.77375z"/><path d="M223.92357,195.75405c-0.35974,0.58562 -1.7492,0.38597 -3.10345,-0.44593c-1.35425,-0.8319 -2.16046,-1.98102 -1.80072,-2.56664c0.35974,-0.58562 1.7492,-0.38597 3.10345,0.44593c1.35425,0.8319 2.16046,1.98102 1.80072,2.56664z"/></g></g></g></svg>