<svg version="1.1" xmlns="http://www.w3.org/2000/svg" xmlns:xlink="http://www.w3.org/1999/xlink" width="135.01865" height="186.92783" viewBox="0,0,135.01865,186.92783"><g transform="translate(-144.61442,-78.30701)"><g data-paper-data="{&quot;isPaintingLayer&quot;:true}" fill-rule="nonzero" stroke-linejoin="miter" stroke-miterlimit="10" stroke-dasharray="" stroke-dashoffset="0" style="mix-blend-mode: normal"><g stroke="#000000" stroke-width="1.5"><g data-paper-data="{&quot;index&quot;:null}"><path d="M188.135,188.48093c0.17196,-0.04936 5.54984,-1.36687 11.09986,-1.72208c5.32644,-0.34088 10.83342,0.54888 11.40456,2.36183c1.2036,3.82055 -6.68906,9.24022 -17.36141,12.96301c-10.67237,3.72279 -14.96096,8.48542 -18.01164,6.28262c-14.21048,-10.26084 1.60334,-16.65274 12.86861,-19.8854z" fill="#f0d5b1" stroke-linecap="butt"/><path d="M179.97747,195.2152l8.28953,8.33346" fill="none" stroke-linecap="round"/><path d="M184.74212,213.14066c0,0 -3.4901,-1.42347 -5.17856,-2.41446c-2.19259,-1.28682 -6.8642,-4.65344 -6.8642,-4.65344c0,0 1.49154,-3.92727 2.66505,-5.66831c1.22119,-1.81177 5.85885,-3.44813 5.85885,-3.44813l9.42049,7.03391l-5.90159,9.15037z" fill="#955544" stroke-linecap="butt"/><path d="M188.39278,207.06024l-10.66081,-6.71425l-0.99199,-0.92339" fill="none" stroke-linecap="round"/><path d="M174.59698,203.84647l11.26518,7.5237" fill="none" stroke-linecap="round"/></g><g data-paper-data="{&quot;index&quot;:null}"><g><path d="" data-paper-data="{&quot;index&quot;:null}" fill="#f0d5b1" stroke-linecap="butt"/><path d="" data-paper-data="{&quot;index&quot;:null}" fill="#955544" stroke-linecap="butt"/><path d="" data-paper-data="{&quot;index&quot;:null}" fill="none" stroke-linecap="round"/><path d="" data-paper-data="{&quot;index&quot;:null}" fill="none" stroke-linecap="round"/></g><path d="M194.19599,210.14705c0,0 1.45515,-1.47672 6.4283,-0.65886c2.11499,0.34784 4.82541,0.65881 5.12432,2.54248c0.25066,1.57965 -1.25576,2.24665 -3.9653,3.67044c-2.29309,1.20497 -1.37528,1.50851 -3.35802,2.78766c-1.43568,0.92621 -3.23202,2.30229 -5.37163,3.3679c-2.43102,1.21074 -5.91703,0.42711 -9.06195,0.58215c-2.42679,0.11962 -4.22385,2.49394 -6.95143,1.37959c-5.23119,-2.13717 -4.68829,-5.05808 -5.43972,-8.27984c-0.59502,-2.55102 -3.2059,-5.27971 -1.67963,-8.03445c3.45381,-6.23377 19.64092,-7.57565 19.64092,-7.57565c0,0 5.72198,11.77638 3.01377,13.19287c-4.69805,2.45723 -6.58428,-6.68231 -6.58428,-6.68231c0,0 2.22806,8.86218 0.0246,9.63228c-6.46817,2.26066 -7.53204,-5.89381 -7.01651,-3.4865c0.23404,1.09293 0.30265,2.2487 0.00733,3.29907c-0.94583,3.36394 -5.70809,1.45596 -5.70809,1.45596c0,0 1.65084,0.363 3.20899,0.1342c1.34209,-0.19708 2.60095,-0.91806 2.84608,-1.69529c0.7701,-2.44175 -1.75159,-6.72735 -1.75159,-6.72735c0,0 1.05066,2.75646 2.51642,4.93757c1.32017,1.96442 2.94054,3.43628 5.06662,2.45508c2.95721,-1.36475 0.79216,-10.08727 0.79216,-10.08727c0,0 2.65737,7.60008 4.78486,7.35808c1.73916,-0.19785 3.43382,-3.56786 3.43382,-3.56786z" fill="#46b8d9" stroke-linecap="round"/></g></g><g stroke="#000000" stroke-width="1.5"><path d="M235.7597,257.6272c0,3.78738 -5.2465,6.85765 -11.71836,6.85765c-6.47187,0 -11.71836,-3.07029 -11.71836,-6.85765c0,-3.78737 5.2465,-6.85764 11.71836,-6.85764c6.47187,0 11.71836,3.07024 11.71836,6.85764z" fill="#46b8d9" stroke-linecap="butt"/><path d="M214.12096,252.56411l9.55575,-12.33735l-0.88014,-9.29309l12.32189,1.60225c0,0 0.2814,7.22033 -1.00586,11.376c-1.28727,4.15566 -4.65214,6.8897 -4.65214,6.8897z" fill="#494d5f" stroke-linecap="round"/><path d="M222.44453,241.92512c0,0 2.57835,2.28459 5.77508,2.31671c1.94488,0.01953 5.71698,-1.3233 5.71698,-1.3233c0,0 -1.19203,3.65838 -2.07388,5.01448c-0.86115,1.32424 -3.15664,3.02881 -3.15664,3.02881l-13.70496,1.28182z" fill="#f0d5b1" stroke-linecap="round"/><path d="M254.56945,249.87234l-9.65634,-22.55975l8.75106,-4.61449l13.88099,28.45604z" fill="#494d5f" stroke-linecap="butt"/><path d="M269.4563,256.85816c0,4.07054 -4.59349,7.37036 -10.25987,7.37036c-5.66638,0 -10.25987,-3.29982 -10.25987,-7.37036c0,-4.07053 4.5935,-7.37036 10.25987,-7.37036c5.66638,0 10.25987,3.29982 10.25987,7.37036z" fill="#46b8d9" stroke-linecap="butt"/><path d="M222.78399,264.22849l1.70998,-7.43446" fill="none" stroke-linecap="round"/><path d="M230.62978,262.17759l0.90528,-5.51176" fill="none" stroke-linecap="round"/><path d="M253.56357,261.79305l0.40234,-4.99905" fill="none" stroke-linecap="round"/><path d="M261.30876,256.79403l-0.20117,6.02448" fill="none" stroke-linecap="round"/><path d="M252.25594,244.36055l9.55575,-4.87085l5.83404,11.7926l-12.67394,-1.15364z" fill="#f0d5b1" stroke-linecap="round"/></g><g stroke="#000000" stroke-width="1.5"><path d="M221.86984,232.82985c0,0 -7.9075,4.45199 -13.66885,5.97539c-5.76132,1.5234 -9.60164,4.62394 -10.81765,1.07255c-2.72324,-7.95333 3.10676,-8.06757 8.86808,-9.591c5.56684,-1.47197 15.6184,2.54306 15.6184,2.54306z" fill="#49c0e0" stroke-linecap="butt"/><path d="M253.80789,214.05246c2.53834,6.04209 -3.13302,14.60341 -12.66735,19.12227c-9.31797,4.4163 -18.84625,7.50868 -22.4302,-0.82687c-1.3416,-3.12024 2.95736,-8.75756 2.95736,-8.75756l-19.71381,-43.28063l24.41162,2.22496l17.64248,29.48211c0,0 8.25674,-1.6375 9.7999,2.0357z" fill="#f0d5b1" stroke-linecap="butt"/><path d="M254.12865,216.59462c0.20438,1.45639 -0.58128,4.81723 -0.58128,4.81723c0,0 -4.4459,8.05569 -10.54907,10.77625c-8.26365,3.68359 -17.71918,5.22573 -17.71918,5.22573c0,0 -3.94829,-1.38966 -5.14464,-2.81324c-0.93909,-1.11751 -1.93554,-4.46234 -1.93554,-4.46234c0,0 15.34706,-3.26022 21.33645,-6.19957c5.57218,-2.73461 13.43869,-10.86659 13.43869,-10.86659c0,0 0.98997,2.34953 1.15459,3.52253z" fill="#494d5f" stroke-linecap="round"/><path d="M240.32725,223.99782c2.25929,-1.05517 6.40944,-4.05214 6.40944,-4.05214c0,0 -1.44169,5.77389 -4.21232,7.06787c-2.77067,1.29396 -9.24648,-0.78224 -9.24648,-0.78224c0,0 4.82292,-1.19364 7.04941,-2.23346z" fill="#e7e7e8" stroke-linecap="round"/><path d="M240.28722,228.51355l1.0451,4.7198" fill="none" stroke-linecap="round"/><path d="M248.47531,227.08634l-2.7186,-2.61516" fill="none" stroke-linecap="round"/><path d="M207.49257,191.42993l-3.0331,-10.32317l22.21925,-2.36585l6.75742,11.5076z" fill="#955544" stroke-linecap="butt"/><path d="M225.77521,186.33734l1.4329,4.17498" fill="none" stroke-linecap="round"/></g><g stroke="#000000" stroke-width="1.5"><g><path d="M246.69753,146.30402c-4.28086,-3.18767 -7.90287,-7.43026 -7.16482,-9.18193c1.09439,-2.59737 6.16584,-3.65202 12.7305,-2.17559c2.765,0.62187 8.06995,3.82702 11.19511,5.03317c3.38405,1.30606 5.79124,-0.07871 7.93838,-0.98181c4.54351,-1.91099 5.23064,-3.47801 5.84168,-0.99683c4.19113,17.01931 -10.2854,19.00184 -20.96501,14.17459c-0.16304,-0.07369 -5.11523,-2.55016 -9.57582,-5.87162z" data-paper-data="{&quot;index&quot;:null}" fill="#f0d5b1" stroke-linecap="butt"/><path d="M272.27438,126.04109c0,0 2.20039,3.06027 3.10432,4.79691c1.1738,2.25512 3.34276,7.58935 3.34276,7.58935c0,0 -3.35021,2.53459 -5.26941,3.38603c-1.99716,0.88602 -6.79553,-0.19174 -6.79553,-0.19174l-4.24355,-10.9642l9.86144,-4.61632z" data-paper-data="{&quot;index&quot;:null}" fill="#955544" stroke-linecap="butt"/><path d="M265.95103,129.25257l5.46417,11.35244l0.34979,1.30937" data-paper-data="{&quot;index&quot;:null}" fill="none" stroke-linecap="round"/><path d="M270.38485,126.94586l5.54608,12.35926" data-paper-data="{&quot;index&quot;:null}" fill="none" stroke-linecap="round"/><path d="M260.65647,134.86232c-0.26417,-0.01605 -1.64166,-0.12613 -2.24129,-0.60405c-0.85484,-0.68134 -1.06571,-1.8225 -2.22671,-2.04376c-3.33485,-0.63556 -6.98888,-1.00727 -7.20483,-3.1632c-0.22541,-2.2502 6.57523,-2.36113 6.57523,-2.36113c0,0 -6.03491,-1.88576 -5.90534,-4.0178c0.21813,-3.58876 7.11634,-2.87183 7.11634,-2.87183c0,0 -3.97004,-1.64416 -2.77108,-3.79517c1.56278,-2.80367 7.09688,1.40706 7.71604,1.4447c5.60455,0.34067 9.91101,4.5147 9.61876,9.32296c-0.29225,4.80827 -5.07258,8.43 -10.67712,8.08933z" data-paper-data="{&quot;index&quot;:null}" fill="#46b8d9" stroke-linecap="butt"/></g><path d="M225.1225,89.33914c7.37868,-3.324 13.95966,-4.25898 15.26315,-3.65953c9.5887,4.4095 21.82731,36.1368 7.01021,41.44764c-14.81709,5.31082 -33.64587,-4.92547 -38.18077,-20.57401c-1.24522,-4.29678 6.69831,-13.06546 15.90741,-17.21405z" data-paper-data="{&quot;index&quot;:null}" fill="#49c0e0" stroke-linecap="butt"/><path d="M184.84754,98.7876c4.65532,15.61312 -5.63816,34.41073 -20.97206,37.96361c-15.3339,3.55288 -22.21265,-29.75008 -16.53584,-38.64732c0.7717,-1.20948 6.81171,-3.98478 14.81537,-5.18283c9.9891,-1.49524 21.41433,1.5795 22.69258,5.86655z" fill="#49c0e0" stroke-linecap="butt"/><path d="M255.73104,130.03934c0,0 18.37694,8.5908 14.2966,30.91563c-2.05705,11.25479 -14.2217,21.67667 -51.58202,26.3535c-28.2224,3.53293 -54.90505,-12.13035 -60.81093,-37.61959c-5.90589,-25.48925 13.7231,-52.63626 39.70309,-56.80279c57.35329,-9.19801 58.3933,37.15327 58.3933,37.15327z" fill="#49c0e0" stroke-linecap="butt"/><path d="M240.96897,155.75634c-0.15576,9.5906 -22.10395,35.93595 -32.09125,36.90494c-7.93807,0.77017 -14.00613,-18.50333 -15.6585,-31.56662c-1.63565,-12.93111 -3.01017,-22.12334 8.40006,-22.87315c5.87829,-0.38624 14.14417,12.55233 22.74194,15.57913c8.09115,2.84839 16.71144,-4.42725 16.60776,1.95572z" fill="#c25e5d" stroke-linecap="butt"/><path d="M247.67024,153.31328c-1.4196,3.53796 -10.22879,4.5811 -19.67593,2.32992c-9.44712,-2.25116 -15.95471,-6.94415 -14.53509,-10.48209c1.4196,-3.53796 10.22879,-4.58109 19.67593,-2.32992c9.44712,2.25116 15.95471,6.94415 14.53509,10.48209z" fill="#c8dee6" stroke-linecap="butt"/><path d="M239.9816,146.15807c0,0 -4.84932,3.298 -8.25249,2.39553c-3.40321,-0.90246 -5.73922,-5.66219 -5.73922,-5.66219c0,0 4.31766,-0.60857 7.72086,0.29389c3.4032,0.90246 6.27091,2.97275 6.27091,2.97275z" fill="#c04915" stroke-linecap="butt"/><path d="M232.01256,147.31701c0,0 -0.68803,2.83298 -1.28138,3.97988c-0.58821,1.137 -1.54173,3.21809 -1.54173,3.21809" fill="none" stroke-linecap="round"/><path d="M216.27959,118.99469c2.60041,11.22316 -4.03289,22.34667 -14.81592,24.84511c-10.78302,2.49844 -21.63243,-4.57432 -24.23285,-15.7975c-2.60041,-11.22316 4.03289,-22.34668 14.81592,-24.84511c10.78302,-2.49843 21.63243,4.57433 24.23285,15.7975z" fill="#ffffff" stroke-linecap="butt"/><path d="M252.06405,121.42706c3.19578,10.05704 0.59283,19.94212 -5.81389,22.07892c-6.4067,2.13682 -14.19101,-4.28378 -17.38678,-14.34081c-3.19578,-10.05704 -0.59283,-19.94212 5.81389,-22.07892c6.4067,-2.13682 14.19101,4.28378 17.38678,14.34081z" fill="#ffffff" stroke-linecap="butt"/><path d="M208.79679,84.30041c0.60838,3.46785 -6.37817,3.51208 -6.37817,3.51208c0,0 -4.57722,7.77267 -7.72392,6.19331c-3.1467,-1.57938 -2.2741,-6.89404 0.0175,-11.45984c2.29161,-4.56581 12.84687,-5.30036 14.08454,1.75444z" data-paper-data="{&quot;index&quot;:null}" fill="#000000" stroke-linecap="butt"/><path d="M231.92177,91.30153c0,0 -5.86696,-2.94262 -4.06987,-5.44917c3.65592,-5.09922 12.27233,-0.12216 12.51055,4.46499c0.23823,4.58717 -0.99593,9.17973 -4.23088,9.12713c-3.23497,-0.05261 -4.20977,-8.14293 -4.20977,-8.14293z" data-paper-data="{&quot;index&quot;:null}" fill="#000000" stroke-linecap="butt"/><path d="M193.4129,150.67027c0,0 10.89598,6.44273 15.08322,11.7162c4.53809,5.71532 12.42011,23.71457 12.42011,23.71457c0,0 -8.81933,9.70282 -15.51741,4.89177c-10.75262,-7.72326 -11.98589,-40.32253 -11.98589,-40.32253z" fill="#f1898a" stroke-linecap="round"/><path d="M216.54068,152.4939l-4.24145,6.01824l-0.1729,-11.41318z" fill="#ffffff" stroke-linecap="butt"/></g><path d="M207.16667,133.86667c3,0 3,3 3,3l-0.0393,0.84653c0.02585,0.15844 0.0393,0.32105 0.0393,0.48681c0,0.55244 -0.14932,1.07 -0.4098,1.51453c-1.68214,7.07266 -4.73686,13.63418 -3.93954,21.17593c0.97273,9.20089 4.62496,17.86777 2.60725,27.31136c-1.17537,5.50116 -7.00038,15.2057 -13.86968,9.94882c-1.18643,-0.90794 -1.32908,-2.67607 -1.99362,-4.01411c-0.14374,-11.54777 4.83,-22.38187 1.10217,-33.95986c-0.58689,-1.82279 -2.21866,-3.13568 -3.10737,-4.83191c-1.40715,-2.68575 -2.5622,-5.54622 -3.22702,-8.50449c-0.3646,-1.62237 -1.19404,-3.45641 -1.03197,-5.06294c-0.87667,-0.52368 -1.46374,-1.48195 -1.46374,-2.57734c0,-1.65685 1.34315,-3 3,-3c0.32419,0 0.63637,0.05142 0.92883,0.14656l3.26654,0.97996l-0.07263,0.24211c1.86722,-0.00662 3.72933,0.10699 5.56499,0.40246c0.35918,0.05781 0.71542,0.14534 1.07028,0.24465c1.15334,-0.39061 2.26647,-0.97744 3.46968,-1.13839l2.19948,-0.91645c0.20398,-0.88685 0.85138,-2.29424 2.90617,-2.29424zM202.07298,144.75966c-0.03175,-0.00179 -0.06351,-0.00372 -0.09528,-0.00578c-2.19982,0.73294 -4.52538,1.3165 -6.45171,1.097c-0.67583,-0.07701 -1.32695,-0.25342 -1.9641,-0.48601c1.18638,2.06277 1.50849,5.68781 2.21538,7.0237c0.4569,0.86345 1.41696,1.37521 1.92569,2.20917c0.95097,1.55892 1.67342,3.36956 2.20969,5.25823c-0.13322,-1.59643 -0.17373,-3.2143 -0.07177,-4.86864c0.21942,-3.56037 1.20123,-6.89886 2.2321,-10.22767zM201.20377,168.15309c0.35054,8.52907 -2.60284,16.36447 -2.76504,24.77704c0.02412,2.46781 3.25139,-3.79432 3.31135,-3.92929c1.79009,-4.02944 1.2758,-8.84495 0.7706,-13.11581c-0.31146,-2.63304 -0.82123,-5.18898 -1.31692,-7.73195z" fill="#000000" stroke="none" stroke-width="0.5" stroke-linecap="butt"/><path d="M253.7228,207.62262c0.04357,0.0749 0.08599,0.15342 0.12715,0.23574c1.34164,2.68328 -1.34164,4.02492 -1.34164,4.02492l-4.98514,-2.72205c0.98775,-7.75589 0.59608,-15.42915 1.20997,-23.246c0.43189,-5.49937 0.90298,-6.64062 -0.47577,-11.64978c-1.03062,-4.48071 -1.61324,-8.338 -1.75591,-12.97183c-0.12171,-3.95299 0.38218,-7.00836 -1.11123,-10.62388c-0.20876,-0.50541 -0.55103,-1.07487 -0.95738,-1.68851c-4.42648,0.47449 -8.65248,-1.51392 -7.39544,-8.20212c0.21685,-1.15375 4.61136,-3.38982 7.04901,-4.57963c1.25067,-1.29707 2.71195,-2.26778 4.38641,-2.33268c10.67559,-0.41378 5.7039,9.68695 1.82389,12.92742c0.22214,0.53158 0.42805,1.07124 0.64639,1.60273c1.78573,4.3468 1.41639,8.04446 1.55543,12.70945c0.12611,4.23104 0.63275,7.61596 1.57743,11.69484c1.45052,5.36367 1.08199,7.91544 0.63883,13.58275c-0.55794,7.13511 -0.33125,14.16608 -0.99199,21.23864zM247.18998,141.32267c-0.10761,0.19917 -0.15487,0.37534 -0.15306,0.53985c0.51219,-0.33075 0.98994,-0.72089 1.42237,-1.15095c-0.16984,0.11448 -0.28431,0.17171 -0.28431,0.17171c-0.32209,0.16098 -0.6512,0.30563 -0.98499,0.43939z" fill="#000000" stroke="none" stroke-width="0.5" stroke-linecap="butt"/></g></g></svg>