<svg version="1.1" xmlns="http://www.w3.org/2000/svg" xmlns:xlink="http://www.w3.org/1999/xlink" width="234" height="234" viewBox="0,0,234,234"><g transform="translate(-123,-63)"><g data-paper-data="{&quot;isPaintingLayer&quot;:true}" fill-rule="nonzero" stroke-linejoin="miter" stroke-miterlimit="10" stroke-dasharray="" stroke-dashoffset="0" style="mix-blend-mode: normal"><path d="M123,297v-234h234v234z" data-paper-data="{&quot;index&quot;:null}" fill="none" stroke="none" stroke-width="0" stroke-linecap="butt"/><g><g><g><g data-paper-data="{&quot;origRot&quot;:0}" stroke="#000000" stroke-width="3" stroke-linecap="round"><path d="M276.06851,225.47745c-0.73233,2.40592 -8.22039,-1.76221 -8.22039,-1.76221c0,0 -20.10368,-10.42204 -29.61877,-15.30051c-3.70579,-2.69182 6.94685,-41.27761 11.81655,-44.20155c2.17076,-1.30338 11.71803,-0.42693 12.65024,1.39915c1.77438,3.47577 1.46905,20.83699 1.46905,20.83699l-3.88869,-1.09761l9.90171,3.93106c0,0 11.91048,3.47487 16.48411,6.43905c2.53657,1.64396 -10.5938,29.75557 -10.5938,29.75557z" data-paper-data="{&quot;origPos&quot;:null}" fill="#582700"/><path d="M267.24804,221.59592l10.15664,-29.06568" fill="none"/><path d="M263.54369,220.41799l9.89896,-29.16959" data-paper-data="{&quot;origPos&quot;:null}" fill="none"/></g><path d="M266.87717,222.13397l-2.53591,-1.00315l10.21551,-29.80065l2.53591,1.00315z" fill="#ffffff" stroke="none" stroke-width="0" stroke-linecap="butt"/><path d="M237.91616,208.46221l0.49265,-11.45201l6.97676,-23.63769l4.15876,-7.54743l4.43305,-2.32573l6.89828,2.26489l1.37966,0.45297l1.42946,18.83525l-2.8296,-0.65896l-0.56222,1.97611l11.97612,4.74235l-9.19363,29.66203l-23.70935,-12.10585z" fill="#66c8ff" stroke="#000000" stroke-width="0.5" stroke-linecap="round"/></g><g fill="#fffc96" stroke="#000000" stroke-width="2" stroke-linecap="round"><path d="M267.3514,187.29631c0,0 4.52102,-1.72632 5.69066,1.55649c1.87136,5.25234 -32.75097,15.84504 -34.99758,10.51705c-0.91791,-2.1769 2.15274,-4.00107 2.15274,-4.00107l1.06597,1.8887c0,0 6.82792,-0.38705 14.94568,-2.6563c8.00528,-2.23779 12.88007,-5.2956 12.88007,-5.2956z"/><path d="M261.67238,179.24093c0,0 2.00349,-4.13346 3.83496,-2.28717c3.84452,3.87561 -16.98299,40.41818 -19.77443,35.85978c-1.69056,-2.76064 1.1116,-5.69227 1.1116,-5.69227l0.82089,1.36116c0,0 3.98866,-4.83176 8.57427,-13.18346c4.58562,-8.3517 6.34476,-14.88791 6.34476,-14.88791z" data-paper-data="{&quot;index&quot;:null}"/></g></g><g><g data-paper-data="{&quot;index&quot;:null}"><path d="M285.82073,192.05862c2.07326,1.18764 7.78826,-0.36862 6.7615,1.69977c-0.52301,1.05356 -10.42384,20.09903 -11.51076,20.69683c-1.04692,0.57575 -2.17412,0.67125 -3.19132,0.08856c-0.69205,-0.39646 -1.57832,-1.36562 -1.96022,-2.29808c-0.76222,-1.86103 4.48143,-23.41608 5.16545,-24.79404c1.02677,-2.06839 2.6621,3.41934 4.73535,4.60698z" fill="#0091d4" stroke="#000000" stroke-width="1.5" stroke-linecap="butt"/><g stroke-linecap="butt"><path d="M289.23615,185.22731c3.75627,2.15173 5.72916,6.05592 4.40657,8.72024c-1.32257,2.66432 -5.43979,3.07988 -9.19607,0.92816c-3.75627,-2.15174 -5.72917,-6.05593 -4.40658,-8.72027c1.32257,-2.66432 5.4398,-3.07987 9.19606,-0.92813z" fill="#0091d4" stroke="#000000" stroke-width="1.5"/><path d="M282.23294,191.88978c0,0 -1.23522,-1.16119 -1.69945,-2.89944c-0.20998,-0.83259 0.02805,-2.87498 0.02805,-2.87498l2.33014,3.22052z" fill="#00aeff" stroke="none" stroke-width="0"/><path d="M284.92604,194.16255l-1.61824,-0.98822c0,0 0.10539,-0.81416 0.27331,-1.21228c0.1434,-0.34001 0.70257,-1.22059 0.70257,-1.22059l1.22794,1.06261z" fill="#00aeff" stroke="none" stroke-width="0"/></g><g><path d="M286.3991,191.18656c-5.18187,-2.96839 -8.5351,-9.83013 -5.77188,-15.39664c2.76326,-5.56654 8.38972,-7.40647 13.57157,-4.4381c5.18187,2.96839 7.40807,10.03939 4.64484,15.60591c-2.76326,5.56654 -7.26267,7.19719 -12.4445,4.22884z" fill="#00699a" stroke="#000000" stroke-width="1.5" stroke-linecap="butt"/><path d="M292.05564,171.12253c0,0 0.60862,2.03927 1.23166,4.96786c0.62154,2.92148 0.46425,6.66805 -0.74307,9.10022c-2.41763,4.87029 -4.65056,5.90434 -8.41555,3.74765c-1.83166,-1.04925 -3.00559,-3.08722 -3.37731,-5.21735c-0.52176,-2.98985 -0.35246,-6.56935 1.01853,-9.33114c2.41763,-4.87029 10.28574,-3.26724 10.28574,-3.26724z" fill="#0091d4" stroke="none" stroke-width="0" stroke-linecap="butt"/><path d="M297.78961,186.83557c0,0 -4.43407,1.82114 -10.36195,-1.87175c-5.87972,-3.66287 -6.54171,-8.94733 -6.54171,-8.94733" fill="none" stroke="#000000" stroke-width="0.8" stroke-linecap="round"/><path d="M293.84458,191.32093c0,0 -3.09383,0.69614 -8.1264,-3.32634c-3.49211,-2.7912 -5.94692,-6.93645 -5.94692,-6.93645" fill="none" stroke="#000000" stroke-width="0.75" stroke-linecap="round"/><path d="M298.8255,183.94984c0,0 -2.69754,0.9237 -8.1734,-2.9453c-5.69322,-4.02257 -6.80228,-8.82843 -6.80228,-8.82843" fill="none" stroke="#000000" stroke-width="0.8" stroke-linecap="round"/><path d="M287.1535,170.44746c0,0 3.98184,2.22431 7.27232,5.49866c2.49818,2.48591 4.9794,6.70276 4.9794,6.70276" fill="none" stroke="#000000" stroke-width="0.8" stroke-linecap="round"/><path d="M297.1199,174.73654c0,0 1.31458,3.87612 -1.60845,9.23197c-3.13236,5.73939 -6.76143,7.62918 -6.76143,7.62918" fill="none" stroke="#000000" stroke-width="0.8" stroke-linecap="round"/><path d="M285.70006,190.41856c0,0 1.29491,-3.08424 2.27103,-4.80831c0.82185,-1.45156 2.87506,-3.9337 4.41849,-6.47392c1.75505,-2.88858 2.96344,-5.76696 2.96344,-5.76696" fill="none" stroke="#000000" stroke-width="0.8" stroke-linecap="round"/><path d="M283.38768,188.95193c0,0 -0.11091,-4.98846 3.0231,-10.89523c1.99678,-3.76339 6.82196,-6.54091 6.82196,-6.54091" fill="none" stroke="#000000" stroke-width="0.8" stroke-linecap="round"/><path d="M280.26891,184.18329c0,0 0.14596,-3.66712 3.69071,-8.63322c2.46159,-3.44859 6.06877,-5.30181 6.06877,-5.30181" fill="none" stroke="#000000" stroke-width="0.8" stroke-linecap="round"/><path d="M282.77623,175.53724c-0.36948,-0.21164 -0.48472,-0.75449 -0.25736,-1.21247c0.22732,-0.45797 0.71115,-0.65764 1.08066,-0.44599c0.36948,0.21164 0.48473,0.75449 0.25737,1.21247c-0.22732,0.45797 -0.71117,0.65765 -1.08066,0.446z" fill="#00aeff" stroke="none" stroke-width="0" stroke-linecap="butt"/><path d="M285.05918,172.86889c-0.21316,-0.12211 -0.29381,-0.40672 -0.18015,-0.63571c0.11366,-0.22898 0.37861,-0.31562 0.59178,-0.19352c0.21316,0.12211 0.29381,0.40673 0.18016,0.63571c-0.11366,0.22898 -0.37861,0.31563 -0.59178,0.19353z" fill="#00aeff" stroke="none" stroke-width="0" stroke-linecap="butt"/></g></g><path d="M282.08751,192.60125c-4.42047,10.09802 -5.8401,11.47998 -5.8401,11.47998c-0.61751,1.23279 -1.67214,0.47159 -1.67214,0.47159c0,0 -2.21316,-1.20791 -3.62969,-1.98104c-0.93016,-0.50766 -2.3834,-1.30081 -2.3834,-1.30081c0,0 -0.83655,-0.65999 -0.48599,-1.32526c2.10904,-4.00231 3.92559,-7.94727 5.16318,-9.84903c0.41253,-0.63392 1.67542,-0.88106 1.67542,-0.88106l4.72781,1.89513c0,0 1.98014,0.65635 2.44488,1.4905z" fill="#582700" stroke="#000000" stroke-width="3" stroke-linecap="round"/><path d="M292.40456,199.79721c-9.57402,20.64587 -12.41345,23.57788 -12.41345,23.57788c-1.31493,2.53067 -3.19835,1.15573 -3.19835,1.15573c0,0 -4.00161,-2.11117 -6.56284,-3.4624c-1.68181,-0.88729 -4.30943,-2.27355 -4.30943,-2.27355c0,0 -1.48686,-1.20224 -0.74474,-2.57014c4.46474,-8.22957 8.37324,-16.30696 10.93671,-20.24818c0.85449,-1.31373 3.25628,-1.96997 3.25628,-1.96997l8.63494,3.14817c0,0 3.63392,1.04548 4.40089,2.64246z" fill="#582700" stroke="#000000" stroke-width="3" stroke-linecap="round"/></g></g><g stroke="#000000" stroke-linecap="round"><path d="M231.73262,172.79692c0,0 -27.26306,5.49961 -26.94918,-13.07433c0.11562,-6.84324 15.69118,-4.84258 15.69118,-4.84258z" data-paper-data="{&quot;origPos&quot;:null}" fill="#66c8ff" stroke-width="2"/><path d="M224.23316,160.54939c0,0 -15.26904,-2.3066 -15.05608,-2.93603c0.67528,-1.99565 11.99226,-1.15915 11.99226,-1.15915z" data-paper-data="{&quot;origPos&quot;:null}" fill="#0a0a0a" stroke-width="1"/></g><g data-paper-data="{&quot;origRot&quot;:0}" stroke="#000000" stroke-linecap="round"><path d="M240.6623,225.47081c0,0 -0.42182,-4.93919 1.05962,-5.03729c4.37152,-0.28942 8.48725,-2.31571 12.67341,-0.93225c1.73832,0.57447 2.70919,4.88093 2.70919,4.88093l6.48107,33.48992c0,0 0.71118,3.4487 1.05479,5.44567c0.36737,2.1351 -0.41405,5.44987 -2.42123,5.70542c-7.36971,0.93836 -11.79974,2.9815 -16.52903,2.30572c-1.72296,-0.24619 -3.53645,-0.62898 -4.34086,-2.28415c-1.05081,-2.16208 -0.71657,-6.77852 -0.71657,-6.77852z" data-paper-data="{&quot;origPos&quot;:null}" fill="#ff0000" stroke-width="3"/><path d="M264.93648,266.76694c0,0 -5.46861,3.23635 -10.34252,3.69513c-3.73944,0.35199 -11.92478,0.06056 -11.92478,0.06056c0,0 -1.51502,-2.56172 -1.73468,-4.20064c-0.2314,-1.72651 0.57885,-4.42285 0.57885,-4.42285l22.26667,-2.92298z" data-paper-data="{&quot;origPos&quot;:null}" fill="#976e57" stroke-width="2"/><path d="M240.7672,225.79369c0,0 -0.42182,-4.93919 1.05962,-5.03728c4.37151,-0.28942 8.48725,-2.31571 12.67342,-0.93223c1.73832,0.57447 2.70918,4.88092 2.70918,4.88092l6.48107,33.48992c0,0 0.7112,3.44871 1.0548,5.44567c0.36737,2.1351 -0.41406,5.44986 -2.42123,5.70542c-7.36971,0.93836 -11.79974,2.98151 -16.52903,2.30573c-1.72296,-0.24619 -3.53644,-0.629 -4.34085,-2.28415c-1.05081,-2.16208 -0.71658,-6.77852 -0.71658,-6.77852z" data-paper-data="{&quot;origPos&quot;:null}" fill="#4b4b4b" stroke-width="3"/></g><path d="M235.15102,263.01205c0,0 -0.0791,4.6296 -1.31791,6.67357c-0.94837,1.56474 -2.78764,1.75912 -4.52463,1.82684c-4.76781,0.18588 -8.9952,-2.30388 -16.2473,-3.99649c-1.97514,-0.46099 -2.4573,-3.84094 -1.90118,-5.92839c0.52015,-1.9524 1.53567,-5.31202 1.53567,-5.31202l9.43849,-32.66872c0,0 1.35051,-4.18669 3.13207,-4.57959c4.2903,-0.94621 8.20637,1.49439 12.53193,2.23246c1.46587,0.25012 0.60543,5.12317 0.60543,5.12317c0,0 -0.82244,9.26198 -1.34885,15.19014c-0.74296,8.36687 -1.90374,21.43907 -1.90374,21.43907z" fill="#4b4b4b" stroke="#000000" stroke-width="3" stroke-linecap="round"/><g><path d="M221.36467,177.84606c0,0 2.15639,-14.84215 4.24199,-15.36141c6.25677,-1.55782 20.4663,-0.2768 29.97608,-0.06304c1.47012,0.03304 2.46735,14.04081 2.46735,14.04081l1.09606,31.67568c0,0 -0.06699,15.45598 -1.67073,15.41993c-14.27628,-0.32087 -31.02618,0.18375 -37.37251,-0.8279c-2.11544,-0.33721 -1.00221,-16.59619 -1.00221,-16.59619z" data-paper-data="{&quot;origPos&quot;:null}" fill="#66c8ff" stroke="#000000" stroke-width="3.5" stroke-linecap="round"/><path d="M239.32022,186.72222c-1.24202,-0.02792 -1.19197,-2.59737 -1.19197,-2.59737c0.1038,-5.32922 0.24095,-12.37138 0.34476,-17.70062c0,0 0.05004,-2.56945 1.29206,-2.54153c1.24202,0.02792 1.19197,2.59737 1.19197,2.59737c-0.1038,5.32922 -0.20759,10.65844 -0.31139,15.98765l-0.03336,1.71296c0,0 -0.05004,2.56945 -1.29206,2.54153z" fill="#ffffff" stroke="none" stroke-width="0.5" stroke-linecap="butt"/><path d="M250.62695,186.54578c-1.24202,-0.02792 -1.17915,-3.25586 -1.17915,-3.25586c0.1304,-6.695 0.30271,-15.54195 0.43311,-22.23696c0,0 0.06287,-3.22795 1.30488,-3.20003c1.24202,0.02792 1.17915,3.25586 1.17915,3.25586c-0.1304,6.695 -0.26079,13.39 -0.39119,20.08501l-0.0419,2.15197c0,0 -0.06287,3.22795 -1.30488,3.20003z" fill="#ffffff" stroke="none" stroke-width="0.5" stroke-linecap="butt"/></g><g fill="none" stroke="#b9b9b9" stroke-width="3"><path d="M253.38975,167.57494c-0.7684,-1.42071 0.13445,-2.66073 1.3349,-3.89245c1.20046,-1.2317 2.38817,-1.58937 3.01235,-0.56801c1.3234,2.16558 -0.12832,3.14106 -1.06831,4.10551c-1.20047,1.23172 -2.19376,2.36137 -3.27893,0.35495z" stroke-linecap="butt"/><path d="M254.34807,166.98601l-2.5411,2.54647" stroke-linecap="round"/><path d="M248.38413,170.10589c1.20046,-1.2317 2.38817,-1.58937 3.01235,-0.56801c1.3234,2.16558 -0.12832,3.14106 -1.06831,4.10551c-1.20046,1.23171 -2.19375,2.36137 -3.27892,0.35495c-0.7684,-1.42071 0.13444,-2.66073 1.33488,-3.89246z" stroke-linecap="butt"/><path d="M248.00753,173.40941l-2.5411,2.54649" stroke-linecap="round"/><path d="M240.06936,175.3672c0.41815,-1.68028 1.70166,-1.49166 3.15382,-0.98487c1.45216,0.50679 2.36367,1.53664 2.10494,2.8201c-0.54859,2.72128 -1.9911,1.79289 -3.12817,1.39607c-1.45216,-0.50678 -2.72112,-0.85828 -2.13058,-3.23128z" stroke-linecap="butt"/><path d="M237.95121,174.90373l3.03681,1.11009" stroke-linecap="round"/><path d="M233.2344,170.69171c0.88516,-1.34081 1.99898,-0.50236 3.17118,0.71807c1.17221,1.22043 1.69458,2.64604 1.0738,3.70154c-1.31624,2.23798 -2.35322,0.63186 -3.2711,-0.32378c-1.17222,-1.22044 -2.22394,-2.20227 -0.97387,-4.09581z" stroke-linecap="butt"/><path d="M233.87824,171.76586l-2.43629,-2.5988" stroke-linecap="round"/><path d="M227.10391,164.22476c0.88516,-1.34078 1.99898,-0.50236 3.17118,0.71807c1.17222,1.22043 1.69458,2.64604 1.0738,3.70154c-1.31623,2.23797 -2.35322,0.63186 -3.2711,-0.32378c-1.17221,-1.22043 -2.22393,-2.20227 -0.97386,-4.09581z" stroke-linecap="butt"/><path d="M227.74776,165.2989l-2.4363,-2.5988" stroke-linecap="round"/></g><path d="M255.86199,165.21314c-11.44537,-2.18683 -22.53814,-4.34418 -26.8874,-6.27964c-3.97493,-1.76887 -4.73054,-4.82414 -4.73054,-4.82414c0,0 -1.22701,-2.80736 -1.03549,-4.37988c0.57455,-4.71756 2.80105,-18.09194 5.7129,-29.4224c0.09718,-0.37815 0.16455,-0.58689 0.28253,-0.95815c0.35392,-1.11378 1.90726,-5.40063 1.90726,-5.40063c0,0 3.31039,-1.07437 5.0324,-1.2234c5.166,-0.44709 17.38825,3.5953 30.46458,6.68281c1.1852,0.27984 2.92863,2.40081 2.92863,2.40081c0,0 0.89697,3.48063 0.49761,5.48454c-2.58182,12.95563 -5.48281,27.27994 -6.34651,30.51419c-0.2879,1.07809 -2.77176,4.97961 -2.77176,4.97961z" fill="#582700" stroke="#000000" stroke-width="2.5" stroke-linecap="round"/><path d="M226.84603,113.92832c-0.4394,-1.20209 0.67963,-1.67414 0.67963,-1.67414l1.37471,-0.53433c0.11841,-0.01491 0.2366,-0.02904 0.35461,-0.04243c0.04244,-6.06727 2.31762,-12.95445 3.28604,-18.77029c0.25115,-1.50824 0.59666,-5.66083 1.49625,-6.81868c1.50637,-1.93887 3.02115,-1.01433 4.81537,-0.66416c3.05283,0.59583 6.07428,1.22687 9.1759,1.33621c7.68687,0.28066 15.15581,1.47048 22.7946,2.253c2.41047,0.24694 4.74489,0.60793 7.09393,1.29402c0.64274,0.18773 1.52181,0.09592 1.89194,0.69079c1.31091,2.10685 0.27914,3.9618 -0.36099,5.89699c-1.27687,3.86012 -3.41673,7.14681 -4.22402,11.19775c-0.63689,3.09471 -1.62873,6.2038 -2.52509,9.22111c-0.30933,1.04126 -0.32289,3.07897 -1.46327,3.68275c-2.33831,1.23801 -7.47379,-1.04045 -9.86137,-1.59741c-7.28022,-1.69826 -14.53396,-3.55904 -21.89315,-4.80906c-2.64725,-0.35055 -5.18517,-0.60214 -7.7898,-0.50795c-0.08939,0.37379 -0.33994,0.82644 -1.0224,0.90588c-0.74045,0.08617 -1.07189,-0.3738 -1.21688,-0.73629c-0.08999,0.01052 -0.18013,0.02151 -0.27039,0.033l-0.77715,0.37336c0,0 -1.11902,0.47201 -1.55845,-0.73008z" fill="#000000" stroke="none" stroke-width="0.5" stroke-linecap="butt"/><g><g stroke="#000000" stroke-width="3" stroke-linecap="round"><path d="M227.59106,128.51782l5.05273,30.62107c0,0 0.87746,5.82879 0.00665,6.56632c-2.61243,2.21262 -8.86055,3.02788 -14.90571,5.1928c-1.00481,0.35985 -3.3095,-5.23815 -3.3095,-5.23815c0,0 -3.26428,-8.97959 -5.35359,-14.72699c-3.18181,-8.75271 -8.15302,-22.42776 -8.15302,-22.42776c0,0 -2.75731,-6.908 -0.85983,-7.41332c0,0 7.3134,-6.68226 23.5602,-7.61555c2.25855,4.09582 3.96208,15.04155 3.96208,15.04155z" data-paper-data="{&quot;origPos&quot;:null}" fill="#582700"/><path d="M226.88915,126.48112l-23.79867,7.18967l-0.9303,-3.36979l23.69251,-7.43132z" data-paper-data="{&quot;origPos&quot;:null}" fill="none"/></g><path d="M226.34042,127.14797l6.27871,38.06458l-14.63317,4.4488l-1.36059,-0.30016l-13.60939,-35.17308z" fill="#66c8ff" stroke="#000000" stroke-width="1" stroke-linecap="round"/><path d="M225.79874,123.39956l0.62573,2.31272l-23.55137,7.35342l-0.62575,-2.31272z" fill="#ffffff" stroke="none" stroke-width="0" stroke-linecap="butt"/></g><path d="M248.96743,136.87467l3.96731,5.29499l-5.28975,2.71207" fill="none" stroke="#000000" stroke-width="2.5" stroke-linecap="round"/><path d="M261.18531,148.90651l-3.29293,-5.20887l5.91243,-2.42086" data-paper-data="{&quot;index&quot;:null}" fill="none" stroke="#000000" stroke-width="2.5" stroke-linecap="round"/><g stroke="#000000" stroke-width="1.25" stroke-linecap="butt"><g data-paper-data="{&quot;index&quot;:null}" fill="#000000"><path d="M247.06741,153.76874c-8.76857,-2.62501 -4.60314,-5.34087 -4.60314,-5.34087l11.02529,3.13654c0,0 1.83513,4.58686 -6.42215,2.20435z"/></g><g data-paper-data="{&quot;index&quot;:null}" fill="#ffffff"><path d="M247.06741,153.76874c-8.76857,-2.62501 -4.60314,-5.34087 -4.60314,-5.34087c0,0 7.45895,2.12196 9.32035,2.65151c0.00257,0.00073 -0.81842,0.74789 -1.03694,1.66634c-0.17899,0.75223 0.23903,1.70921 0.22206,1.70917c-0.94656,-0.00305 -2.21332,-0.19878 -3.90235,-0.68613z"/></g></g></g></g></svg>