<svg version="1.1" xmlns="http://www.w3.org/2000/svg" xmlns:xlink="http://www.w3.org/1999/xlink" width="192.67761" height="239.15617" viewBox="0,0,192.67761,239.15617"><g transform="translate(-114.90167,-29.174)"><g data-paper-data="{&quot;isPaintingLayer&quot;:true}" fill-rule="nonzero" stroke-linejoin="miter" stroke-miterlimit="10" stroke-dasharray="" stroke-dashoffset="0" style="mix-blend-mode: normal"><g><path d="M254.91319,203.24774l22.52359,31.11695l-18.23487,0.02205l-16.86885,-24.98755z" fill="#3a3b3f" stroke="none" stroke-width="0" stroke-linecap="round"/><path d="M263.72553,214.82227c0,0 20.02305,27.35364 23.66607,36.87096c2.23229,5.83182 -2.6476,7.74533 -2.6476,7.74533c0,0 -8.07128,1.22593 -15.58013,0.37477c0.03477,-0.22563 0.062,-0.45431 0.08141,-0.6857c0.18908,-2.25495 -0.39757,-4.39315 -1.52509,-6.11525c0.00788,-0.07411 0.01497,-0.14855 0.02123,-0.22325c0.19698,-2.34914 -0.44794,-4.57157 -1.66917,-6.32884l0.27881,0.00089l-15.87282,-26.95447z" fill="#585a5e" stroke="none" stroke-width="0" stroke-linecap="round"/><path d="M271.36312,240.13795c4.25386,-1.07102 7.86044,-3.20183 8.5972,-2.23213c2.9725,3.91221 5.85409,9.97854 7.17138,13.41996c0.41275,1.07828 0.58236,2.02263 0.58461,2.84568c-0.09534,-0.0837 -0.19482,-0.16368 -0.29877,-0.23969c-0.67562,-0.49402 -1.4378,-0.85932 -2.23305,-1.12005c-0.63373,-0.22645 -1.30227,3.10341 -1.99722,3.03726c-2.63305,-0.34038 -4.542,-0.70495 -6.4432,-0.60472c-4.07436,0.21482 -6.73752,-2.07408 -6.73752,-2.07408c0,0 -4.34928,-7.56463 -7.41729,-13.17296c0,0 4.50503,1.21552 8.77385,0.14072z" fill="#a08c83" stroke="#000000" stroke-width="2" stroke-linecap="round"/><path d="M269.2895,251.57657l-23.61575,-38.8612l12.35764,-4.45926c0,0 6.39032,7.10803 12.07327,15.70314c5.42692,8.2079 13.84556,18.743 17.28709,27.73395c2.23229,5.83182 -2.64761,7.74532 -2.64761,7.74532c0,0 -8.07129,1.22591 -15.58014,0.37477" fill="none" stroke="#000000" stroke-width="2" stroke-linecap="round"/><path d="M265.03065,255.66486c1.14013,-0.81345 3.74151,-2.03982 3.74151,-2.03982c0,0 -0.03097,-2.76437 0.58528,-2.90585c0.62616,0.1053 1.13209,1.58125 1.8947,1.98185c1.51496,0.7958 3.33492,0.74194 4.16663,1.02827c1.48132,0.50993 4.01065,0.15526 5.7234,0.06491c0.11862,-0.00625 1.9969,-0.05292 3.43604,-0.75781c1.14918,-0.56288 1.86094,-1.825 2.32691,-1.77272l1.78207,6.94623c0,0 1.53412,4.46186 0.65873,5.78098c-0.87539,1.31911 -5.46803,1.53374 -6.97099,1.91787c-1.50296,0.38416 -12.41227,1.08605 -12.41227,1.08605c0,0 -3.25901,0.48447 -5.84132,-1.02456c-1.76881,-1.03363 -2.92294,-2.89883 -2.69538,-5.13956c0.22073,-2.17362 1.99094,-3.74017 3.98912,-5.16582z" fill="#4ac2e4" stroke="none" stroke-width="0" stroke-linecap="butt"/><path d="M266.51984,266.05192c0,0 -0.50053,-4.60709 2.16257,-6.81233" fill="none" stroke="#000000" stroke-width="2" stroke-linecap="round"/><path d="M274.68154,267.09665c0,0 -1.51367,-2.95204 1.44467,-7.30975" fill="none" stroke="#000000" stroke-width="2" stroke-linecap="round"/><path d="M287.24411,251.26931c0,0 3.41482,7.0718 1.62233,13.01087c-3.88726,1.64683 -8.9963,2.59987 -14.61993,2.96163c-1.45416,0.09355 -7.74422,0.48552 -10.32702,-1.03097c-1.76915,-1.03875 -2.92384,-2.91252 -2.69693,-5.16301c0.22011,-2.18309 3.72477,-6.27597 8.90828,-7.70722c0.02747,0.27011 -1.52267,-2.84676 -1.52267,-2.84676c0,0 1.89607,3.44348 8.02476,3.54692c5.67217,0.09573 10.16771,-3.05655 10.16771,-3.05655" fill="none" stroke="#000000" stroke-width="2" stroke-linecap="round"/><path d="M265.23229,233.18829c-3.51285,1.0206 1.57036,4.40413 1.57036,4.40413c0,0 -2.21056,0.06629 -4.39585,-0.63057c-0.90883,-0.28982 -1.99082,-0.19301 -2.62496,-1.11362c-1.6363,-2.37553 -1.83783,-3.28989 -3.26799,-6.43419c1.27168,-1.54147 0.68147,-5.94472 0.79838,-6.16298c0.33221,-0.62019 3.75483,6.6959 4.06142,6.07051c0.87137,-1.77756 1.54856,-3.62082 1.54856,-3.62082c0,0 0.82329,2.05805 -0.07553,4.83153c-0.34491,1.06432 2.3856,2.65605 2.3856,2.65605z" fill="#4ac2e4" stroke="#000000" stroke-width="1.5" stroke-linecap="butt"/></g><g><g data-paper-data="{&quot;index&quot;:null}"><g><path d="M237.71844,214.72835c0,0 7.52411,16.18969 7.8914,20.5102c0.38081,4.47949 -6.92737,14.26465 -6.92737,14.26465l0.27876,0.00565c-1.25729,1.72819 -1.94801,3.93493 -1.79967,6.28812c0.00472,0.07484 0.01026,0.14941 0.01661,0.22369c-1.16285,1.69521 -1.79359,3.81912 -1.6512,6.07797c0.01461,0.2318 0.03712,0.46105 0.06721,0.68744c-7.52464,0.67467 -15.5686,-0.74044 -15.5686,-0.74044c0,0 -4.83913,-2.02761 -2.48676,-7.8056c2.35237,-5.77799 12.22892,-17.22784 12.22892,-17.22784l-5.64714,-17.65731z" fill="#3a3b3f" stroke="none" stroke-width="0" stroke-linecap="round"/><path d="M241.80646,226.7075c3.73352,2.91232 3.63526,6.5527 3.80343,8.53104c0.38081,4.47949 -6.92737,14.26465 -6.92737,14.26465l0.27876,0.00565c-1.25729,1.72819 -1.94801,3.93493 -1.79967,6.28812c0.00472,0.07484 0.01026,0.14941 0.01661,0.22369c-1.16285,1.69521 -1.79359,3.81912 -1.6512,6.07797c0.01461,0.2318 0.03712,0.46105 0.06721,0.68744c-7.52463,0.67467 -15.56859,-0.74044 -15.56859,-0.74044c0,0 -4.83913,-2.02761 -2.48676,-7.8056c2.35237,-5.77798 12.22891,-17.22784 12.22891,-17.22784c0,0 -0.96043,-4.25225 -2.65466,-6.29945c0,0 9.99322,-7.67154 14.69334,-4.00521z" fill="#585a5e" stroke="none" stroke-width="0" stroke-linecap="round"/><path d="M242.9183,243.44687c-1.87862,3.26647 -3.94682,6.03565 -3.94682,6.03565l-6.31987,6.8024c0,0 -2.60586,-1.80674 -10.90184,-0.93144c-0.69617,0.04981 -1.36766,0.18567 -2.00593,0.39719c-0.80046,0.242 -1.57001,0.58932 -2.25568,1.06735c-0.10548,0.07354 -0.2066,0.15116 -0.30366,0.2326c0.01927,-0.8228 0.20837,-1.76294 0.64333,-2.83127c1.38815,-3.40964 5.39644,-8.79437 8.44913,-12.63584c0.75663,-0.95214 3.19343,1.40549 7.54704,1.82094c3.91526,0.37362 9.87689,-1.31831 9.0943,0.04242z" fill="#a08c83" stroke="#000000" stroke-width="2" stroke-linecap="round"/><path d="M235.59416,262.78605c-7.52464,0.67467 -15.56861,-0.74044 -15.56861,-0.74044c0,0 -4.83913,-2.02761 -2.48676,-7.8056c2.35237,-5.77799 12.22892,-17.22784 12.22892,-17.22784l-6.68661,-18.86578l14.5103,-1.613c0,0 7.65115,14.38464 8.01843,18.70515c0.38081,4.47949 -6.92737,14.26465 -6.92737,14.26465l0.27877,0.00565" fill="none" stroke="#000000" stroke-width="2" stroke-linecap="round"/><path d="M240.05333,254.55635c2.08336,1.27979 3.04067,3.6024 3.39762,5.75537c0.36798,2.21946 -0.66624,4.16285 -2.36606,5.32043c-2.48158,1.68998 -5.76374,1.43926 -5.76374,1.43926c0,0 -10.92893,0.07848 -12.45268,-0.19752c-1.52374,-0.27598 -6.11956,-0.16227 -7.07595,-1.41592c-0.95639,-1.25366 0.29364,-5.81502 0.29364,-5.81502l1.34117,-7.05784c0.46163,-0.08543 1.25118,1.12304 2.43318,1.60262c1.48023,0.60058 3.35722,0.51305 3.47598,0.51081c1.71457,-0.03212 4.26052,0.14119 5.70644,-0.47335c1.22051,-0.51874 2.25898,-0.24066 4.10503,-0.68793c1.10169,0.17162 4.16513,-0.66426 6.90535,1.01904z" fill="#4ac2e4" stroke="none" stroke-width="0" stroke-linecap="butt"/><path d="M238.82383,258.13594c2.79581,2.01018 2.58617,6.64264 2.58617,6.64264" fill="none" stroke="#000000" stroke-width="2" stroke-linecap="round"/><path d="M218.7034,252.82947c0,0 3.92766,2.37664 9.58105,1.87619c6.10841,-0.54071 9.41055,-3.77211 9.41055,-3.77211c0,0 -1.87654,2.68801 -1.86612,2.41654c5.26188,1.05799 7.48174,5.00127 7.83865,7.16373c0.36795,2.22924 -0.66629,4.18122 -2.36613,5.34394c-2.48161,1.69747 -5.76376,1.44569 -5.76376,1.44569c0,0 -15.26644,-0.22547 -19.24855,-1.59109c-2.16201,-5.79776 1.964,-12.97546 1.964,-12.97546" fill="none" stroke="#000000" stroke-width="2" stroke-linecap="round"/></g><path d="M218.90039,254.2401l6.72014,-7.36508l-0.79618,2.61669l6.96304,-5.86805l-6.16088,14.02661" fill="#4ac2e4" stroke="#000000" stroke-width="0" stroke-linecap="round"/><path d="M219.39484,253.24171l5.40907,-6.2307l0.16495,2.17786l7.10035,-5.72177l-4.97742,11.58337" fill="none" stroke="#000000" stroke-width="1.5" stroke-linecap="round"/></g><path d="M232.08279,258.93071c4.6871,4.32325 2.13498,8.39946 2.13498,8.39946" data-paper-data="{&quot;index&quot;:null}" fill="none" stroke="#000000" stroke-width="2" stroke-linecap="round"/></g><g stroke="#000000" stroke-width="2"><g stroke-linecap="round"><path d="M266.59362,119.47016l19.64678,-17.0015l-5.71552,-6.18116l8.95446,-11.02672c0,0 -1.31904,-4.88492 0.97994,-3.20334c4.76279,3.4837 16.92233,14.21626 16.07818,19.04755c-1.12504,5.23765 -9.67475,11.59417 -16.22048,16.59435c-8.6644,6.61862 -17.36999,10.9563 -20.21584,12.4245c-2.19102,1.13035 -7.25849,1.61802 -7.41956,-4.3194c-0.0712,-2.62368 3.00434,-5.56975 3.74428,-6.41812" fill="#f5d9b5"/><g><path d="M273.32455,87.94634l14.55088,-10.92663c0,0 8.39412,9.01729 13.99191,15.70085c0.2793,0.3335 -5.45418,10.89252 -15.34541,9.6733z" fill="#965646"/><path d="M298.19226,97.72483l-15.07492,-16.66592" fill="none"/><path d="M277.55285,85.20679l14.48719,16.03414" fill="none"/></g></g><path d="M288.3461,89.37878c-4.17549,4.78583 -12.05854,4.74096 -17.60733,-0.10018c-5.54876,-4.84114 -6.77831,-15.30946 -2.60283,-20.09528c4.17549,-4.78583 12.66772,1.57181 18.21649,6.41295c5.54876,4.84114 6.16915,8.99668 1.99366,13.7825z" fill="#4ac2e4" stroke-linecap="butt"/></g><path d="M288.23551,136.45177l-1.72003,3.26686l-2.93301,-3.87775l7.72845,-4.87386l2.18073,11.14046z" data-paper-data="{&quot;index&quot;:null}" fill="#4ac2e4" stroke="#000000" stroke-width="1.5" stroke-linecap="butt"/><g><path d="M202.384,149.94056c0,0 -17.52806,2.31662 -28.40056,9.54619c-3.88378,2.58249 7.31336,13.47701 7.31336,13.47701l-12.80974,13.45465c0,0 -3.91107,1.22437 -5.9972,-0.71501c-7.46654,-6.94135 -10.86255,-17.52822 -7.60561,-26.45096c1.88265,-5.15772 7.098,-9.76967 12.16787,-12.77355c9.38025,-5.55778 28.2976,-7.12127 28.2976,-7.12127" data-paper-data="{&quot;index&quot;:null}" fill="#f5d9b5" stroke="#000000" stroke-width="2" stroke-linecap="round"/><g data-paper-data="{&quot;index&quot;:null}" stroke="#000000" stroke-width="2" stroke-linecap="round"><path d="M176.43406,167.53831c4.20411,3.08877 12.08151,9.25642 12.08151,9.25642c0,0 -11.19916,-0.19325 -12.8626,2.12681c-1.54036,2.14839 3.2228,11.31811 3.2228,11.31811c0,0 -15.27267,-0.44866 -20.56233,-13.5442c-2.78815,-6.90254 11.73212,-13.85059 18.12059,-9.15715z" fill="#965646"/><path d="M160.57887,171.6167l12.46586,12.94788" fill="none"/><path d="M167.34004,167.3654l16.09503,11.57606" fill="none"/></g><g><g><g data-paper-data="{&quot;index&quot;:null}" stroke-linecap="butt"><path d="M182.38642,196.1155c-1.48021,0.92294 -3.49754,1.08346 -4.98496,1.43776c-3.78677,0.90198 -7.0385,0.50102 -10.66385,-1.76451c-2.37545,-1.48445 -4.62399,-5.82003 -4.62399,-5.82003c0,0 -1.41774,-0.92917 -2.36017,-1.69501c-6.79927,-5.52506 -2.04911,-17.5752 5.79027,-15.22902c0.9611,-3.41767 5.54437,-5.43509 9.09944,-4.83175c1.29966,-7.93635 10.41757,-8.30825 14.42533,-7.07113c4.0594,1.2531 4.32016,5.19595 5.12627,8.90534c0.5772,2.65607 2.26368,5.83678 1.20167,7.88731c-0.82355,1.59014 -3.86028,3.28588 -5.96378,3.15075c0.14094,1.20181 -0.69612,1.7668 0.19103,1.49283c6.06702,-0.22249 11.13975,4.05443 8.47747,8.86267c-1.54696,2.79392 -7.12,2.98244 -10.54582,1.59243c-1.37102,0.61167 -4.6676,2.76977 -5.16893,3.08234z" fill="#000000" stroke="none" stroke-width="0.5"/><path d="M169.92699,195.21018c-3.70656,-1.40976 -6.25925,-5.83255 -6.25925,-5.83255c0,0 2.0897,0.38969 3.3064,-0.24225c1.55914,-0.80978 2.48752,-2.30136 2.48752,-2.30136c0,0 1.66336,1.80629 4.69631,1.6554c1.54723,-0.07696 3.71879,-0.59515 5.21266,-1.86678c0.65721,-0.55942 1.1536,-1.43547 1.56308,-2.14069c0.97225,-1.67445 -0.59369,-7.13899 -2.23673,-5.74283c-1.64303,1.39618 2.80477,6.79298 -3.34596,8.03404c-2.30464,0.63077 -3.87542,-0.61376 -4.76783,-1.83679c-0.68464,-0.93828 -0.78977,-1.81543 -1.61246,-2.11676c-0.05949,-0.02177 -0.11917,-0.04256 -0.17894,-0.06174c-0.0994,-0.09152 -0.25883,-0.41986 -0.28389,-0.26777c-0.42526,2.58266 -0.55639,4.49805 -1.76871,5.17128c-1.20556,0.66948 -3.48958,0.10633 -4.88393,-0.74161c-1.94145,-1.18066 -3.22517,-5.36537 -2.71605,-7.49595c0.79812,-3.33998 3.37,-6.01554 7.35653,-4.00826c0,0 1.13448,-3.3815 2.97996,-4.22089c2.83801,-1.29086 6.8403,-0.61034 6.8403,-0.61034c0,0 0.55466,-3.79012 0.97242,-4.50035c1.819,-3.09229 9.76557,-3.64495 12.13038,-2.07691c1.05388,0.6988 1.82193,5.06699 2.56781,8.24774c0.5271,2.24774 1.33879,3.34575 0.98353,4.66208c-0.29481,1.09229 -3.13707,1.7814 -4.56683,1.88001c-2.81468,0.44115 -3.29678,-0.75451 -4.12765,-2.01728c-0.84304,-1.28124 -0.8126,-2.9609 -1.62537,-2.86373c-0.46946,0.05612 -0.79329,0.19912 -0.99519,0.40784c-0.78852,0.81505 0.28248,2.63208 1.80226,4.18891c0.75939,0.77789 1.63084,1.49083 2.43834,1.98134c-0.26476,2.07359 -0.05979,3.80299 1.28513,3.91269c3.18263,0.25957 7.80659,0.20027 8.66607,3.75178c1.28417,5.30659 -5.72817,2.81871 -9.4361,2.84246c0,0 -10.29005,6.56509 -16.48382,4.20935z" data-paper-data="{&quot;noHover&quot;:false,&quot;origItem&quot;:[&quot;Path&quot;,{&quot;applyMatrix&quot;:true,&quot;segments&quot;:[[[125.34693,572.28539],[0,0],[9.5542,-5.52752]],[[145.54599,551.07879],[11.14375,11.83056],[-10.91121,-11.58371]],[[107.57608,545.25957],[8.92382,23.60675],[-9.24736,2.75866]],[[90.51041,533.59623],[-7.75722,5.74017],[3.88909,-2.87784]],[[112.67488,537.77718],[-8,5.32104],[3.55223,-2.3627]],[[121.56111,526.31161],[0.8478,3.25941],[-1.02169,-3.92792]],[[112.17218,515.72545],[4.67659,5.03597],[-6.61787,-7.12642]],[[93.41811,498.19218],[3.75558,0.25364],[-8.42726,-0.56913]],[[65.29972,520.83032],[0.14573,-10.67857],[-0.03346,2.45263]],[69.30791,534.47925],[[52.53764,546.09621],[5.43661,-7.52196],[-3.5353,4.89133]],[[51.05266,561.36841],[0,0],[-13.26873,0.68565]],[[37.92637,582.55127],[-2.85957,-9.81424],[1.82415,6.26062]],[[54.54959,597.04786],[-6.76135,-0.19141],[0.48636,0.01376]],[[60.40089,595.84818],[-0.42349,1.56607],[13.81008,-4.46101]],[[66.51333,576.78502],[-7.92441,0],[0.45883,0]],[[67.78843,576.9226],[-0.39199,-0.09017],[0.18278,-0.03861]],[[68.34153,576.81785],[-0.18592,0.03133],[5.92404,-0.99864]],[[88.94775,574.78697],[-8.88942,8.88657],[14.07723,-12.27659]],[[86.57225,549.06928],[-2.19099,6.03276],[2.19099,-6.03276]],[[101.21156,563.65055],[0.04598,-5.76358],[-0.14966,18.76182]],[[73.9804,586.91918],[11.7383,0.37577],[-0.47154,-0.0151]],[[72.1505,586.94196],[0.72344,-0.02236],[-0.09676,2.96479]],[[71.1221,594.74753],[0.41982,-1.89247],[-0.76716,3.45832]],[67.36008,602.72239],[[89.01534,607.42214],[-11.66391,1.81815],[19.49071,-3.03818]]],&quot;closed&quot;:true}]}" fill="#47c1e2" stroke="#47c1e2" stroke-width="1"/></g><path d="M179.29491,179.16213c0,0 2.65526,5.65407 -2.673,7.79172c-5.02273,2.01505 -7.16913,-1.83058 -7.82754,-3.09599c-0.67653,-1.30023 0.0257,0.38663 -0.33099,2.10794c-0.2658,1.28274 -1.31447,2.53228 -2.91583,2.85954c-4.22166,0.86276 -6.68268,-3.56342 -6.68268,-3.56342" fill="none" stroke="#000000" stroke-width="2" stroke-linecap="round"/></g><path d="M194.24915,177.82379c0,0 -2.86008,2.57014 -6.91675,1.96995c-1.83633,-0.27167 -3.3891,-1.77377 -4.15166,-3.06933c-0.60907,-1.03479 -0.6103,-1.94399 -0.6103,-1.94399" fill="none" stroke="#000000" stroke-width="2" stroke-linecap="round"/></g></g><path d="M217.52217,214.93076l-1.863,0.89144c0,0 0.66934,0.68211 -4.57636,4.01189c-8.273,5.25139 -24.64312,13.28038 -31.14802,6.5903c-0.87343,-0.8983 -1.19433,-2.28868 -0.69076,-3.21518c0.43839,-0.80656 1.57663,-2.87267 3.41544,-4.11947c10.62481,-7.2042 31.94582,-9.85963 31.94582,-9.85963z" data-paper-data="{&quot;index&quot;:null}" fill="#4ac2e4" stroke="#000000" stroke-width="2" stroke-linecap="round"/><path d="M139.15219,119.12634c0,14.23027 -5.42866,25.76618 -12.12526,25.76618c-6.6966,0 -12.12526,-11.53591 -12.12526,-25.76618c0,-14.23027 5.42866,-25.76618 12.12526,-25.76618c6.6966,0 12.12526,11.53591 12.12526,25.76618z" fill="none" stroke="none" stroke-width="0" stroke-linecap="butt"/><g data-paper-data="{&quot;index&quot;:null}" stroke-linecap="round"><path d="M236.32992,146.67454l17.10987,44.62627c0,0 3.05837,-0.38175 6.07367,1.0684c2.51973,1.21182 4.98454,4.00548 5.84509,6.49603c0.80919,2.34193 0.00815,5.21249 -1.25581,7.37553c-1.68874,2.88993 -6.70955,5.19138 -6.70955,5.19138l-34.50071,8.12474c0,0 -7.21477,1.31368 -9.97275,-3.25947c-4.46577,-7.40484 1.89285,-15.20744 1.89285,-15.20744l-12.21993,-52.28675" fill="#f5d9b5" stroke="#000000" stroke-width="2"/><path d="M265.60391,201.12229c0.03464,0.92797 -0.25192,2.02138 -0.64151,3.09854c-0.45014,1.24459 -1.97446,3.00834 -3.36954,4.15537c-2.35881,1.93939 -4.85524,2.9708 -4.85524,2.9708c0,0 -14.65278,4.78082 -21.16959,6.2958c-5.53016,1.28558 -15.4594,2.21933 -15.4594,2.21933c0,0 -3.53272,-0.56406 -4.79423,-1.77192c-0.74358,-0.71197 -1.3713,-1.13507 -1.76494,-1.86336c-1.06146,-1.96385 -1.42525,-5.76308 -1.42525,-5.76308l52.52545,-12.67171c0,0 0.88123,1.37318 0.95426,3.33026z" fill="#585960" stroke="#585960" stroke-width="1"/><path d="M248.37362,201.34269c0,0 1.87027,4.6621 -6.34993,6.60131c-7.88579,2.06117 -8.87029,-2.80695 -8.87029,-2.80695" fill="#ffffff" stroke="#000000" stroke-width="2"/><path d="M239.45152,215.78218l-0.62172,-6.04005" fill="none" stroke="#000000" stroke-width="2"/><path d="M246.06128,207.44632l1.63123,6.15311" fill="none" stroke="#000000" stroke-width="2"/><path d="M201.12648,145.7519c0,0 6.01767,-3.54592 16.3981,-5.07196c10.38043,-1.52603 17.71403,0.90314 17.71403,0.90314l6.12104,19.8168l-35.75599,-2.21274z" fill="#965745" stroke="#000000" stroke-width="2"/><path d="M221.81613,206.90985c9.32869,-2.28545 42.34902,-10.37515 42.34902,-10.37515c0,0 1.54587,2.58643 1.6189,4.54352c0.03464,0.92797 -0.25192,2.02138 -0.64151,3.09854c-1.21125,3.34891 -4.31569,6.30156 -8.27409,7.72798c-3.95841,1.4264 -21.62975,7.40134 -36.13273,8.19694c-5.26306,0.28871 -8.02218,-2.86493 -8.99506,-5.92316c-0.74193,-2.33223 -0.23736,-4.74211 -0.23736,-4.74211c0,0 5.70932,-1.39874 10.31283,-2.52655z" fill="none" stroke="#000000" stroke-width="2"/></g><g><g><path d="M212.87559,59.29833c0,0 2.07277,-10.13482 7.5688,-18.2697c4.44183,-6.57453 11.59721,-12.29185 19.86013,-10.53237c17.63697,3.75557 27.76679,35.97408 27.76679,35.97408" data-paper-data="{&quot;index&quot;:null}" fill="#4ac2e4" stroke="#000000" stroke-width="2" stroke-linecap="round"/><path d="M168.22956,101.63134c0,0 -16.57434,-29.42682 -7.25042,-44.86155c4.36826,-7.23117 13.43318,-8.54036 21.26744,-7.28369c9.69355,1.55491 18.50458,6.975 18.50458,6.975" data-paper-data="{&quot;index&quot;:null}" fill="#4ac2e4" stroke="#000000" stroke-width="2" stroke-linecap="round"/><g stroke="#000000"><g><path d="M298.00807,113.84016c2.42975,4.68848 2.98477,9.45906 2.41258,14.62373c-0.48293,4.35911 -1.61389,9.09773 -4.66839,13.30338c-3.94729,5.43492 -9.07078,10.52701 -16.34588,12.76399c-15.59772,4.79604 -36.31768,3.05377 -36.31768,3.05377l-30.34445,-3.38816c0,0 -10.32648,-2.34989 -16.36896,-5.10033c-6.79878,-3.09469 -13.62429,-9.98793 -17.59973,-14.94775c-1.70191,-2.12329 -3.54432,-4.68761 -4.89482,-7.45024c-2.28832,-4.68106 -3.69593,-9.98703 -4.479,-15.08543c-1.76684,-11.50341 -0.05947,-21.91932 -0.05947,-21.91932c0,0 2.22854,-16.12431 15.95131,-27.15809c4.9416,-3.9733 11.6786,-7.72747 18.81872,-10.02001c10.86211,-3.09207 22.17665,-4.27179 30.64983,-3.38702c6.21778,0.64925 14.71537,1.77668 22.56265,5.17573c7.86483,3.40665 15.07693,9.09005 19.16284,14.29398c11.51688,14.66829 7.96556,32.82783 7.96556,32.82783c0,0 9.44234,4.47837 13.55492,12.41396z" fill="#4ac2e4" stroke-width="2" stroke-linecap="round"/><path d="M285.1165,152.0703l-8.31863,-10.23507l0.52942,-0.43028l8.31861,10.23508z" fill="#000000" stroke-width="1.5" stroke-linecap="butt"/><path d="M296.14374,140.507l-8.44198,-8.02446l0.62297,-0.62542l8.44198,8.02447z" fill="#000000" stroke-width="1.5" stroke-linecap="butt"/></g><path d="M191.15818,145.35823l8.51654,-10.07099l0.52092,0.4405l-8.51654,10.07099z" data-paper-data="{&quot;index&quot;:null}" fill="#000000" stroke-width="1.5" stroke-linecap="butt"/><path d="M179.99933,135.86669l9.47875,-9.17111l0.47436,0.49028l-9.47875,9.17109z" data-paper-data="{&quot;index&quot;:null}" fill="#000000" stroke-width="1.5" stroke-linecap="butt"/><path d="M172.25113,122.9236l8.86085,-5.94028l0.30726,0.4583l-8.86086,5.94026z" data-paper-data="{&quot;index&quot;:null}" fill="#000000" stroke-width="1.5" stroke-linecap="butt"/></g><path d="M259.15639,79.77667c10.24814,-1.414 20.05916,7.76539 21.91353,20.50278c1.85436,12.7374 -4.95016,24.20937 -15.1983,25.62339c-10.24814,1.41403 -20.05916,-7.7654 -21.91352,-20.50278c-1.85435,-12.7374 4.95016,-24.20936 15.1983,-25.62337z" fill="#ffffff" stroke="#000000" stroke-width="2" stroke-linecap="butt"/><path d="M206.74737,123.50837c-12.25368,-3.69861 -18.50314,-16.01783 -14.6829,-28.65253c3.82023,-12.63471 16.26354,-20.80044 28.51722,-17.10183c12.25368,3.6986 18.1964,17.55221 14.37618,30.18693c-3.82023,12.63471 -15.95679,19.26601 -28.21047,15.56742z" fill="#ffffff" stroke="#000000" stroke-width="2" stroke-linecap="butt"/><path d="M213.28515,50.70375c3.6643,-10.37027 7.3248,-7.44667 7.3248,-7.44667" data-paper-data="{&quot;index&quot;:null}" fill="none" stroke="#000000" stroke-width="7.5" stroke-linecap="round"/><g stroke="#000000" stroke-width="2"><path d="M262.66119,128.29493c-0.01118,6.78813 -9.52476,24.87293 -19.70062,34.99256c-5.52636,5.49582 -11.37649,7.19802 -15.71169,6.77466c-25.42034,-2.4824 -25.36932,-55.64034 -13.43507,-57.25118c7.24232,-0.96519 17.33345,8.10546 27.99174,10.61116c10.03029,2.35803 20.8671,-2.09855 20.85563,4.87281z" fill="#e26172" stroke-linecap="butt"/><path d="M234.09344,168.56245c0,0 -7.30098,5.14103 -13.92333,0.69461c-17.8456,-14.26101 -13.66804,-39.27981 -13.66804,-39.27981c0,0 15.03758,-0.49475 23.5508,10.99943c9.15891,12.36598 4.04055,27.58575 4.04055,27.58575z" fill="#f7a3a3" stroke-linecap="round"/><path d="M215.03641,113.15879c0,0 3.02247,-0.01493 5.02606,0.66439c0.93147,0.31581 1.37159,0.3122 1.94707,0.67477c1.58203,0.99666 4.56769,2.32791 4.56769,2.32791c0,0 -5.90778,10.47714 -8.79486,8.65829c-2.88709,-1.81883 -2.74594,-12.32532 -2.74594,-12.32532z" fill="#ffffff" stroke-linecap="butt"/></g><g data-paper-data="{&quot;index&quot;:null}"><g><path d="M263.79686,123.75261c5.98647,2.19407 6.84945,4.34218 7.00024,5.64061c0.2811,2.42047 -5.53915,2.43328 -10.68626,2.2399c-7.23867,-0.27198 -12.07622,-2.70124 -16.61678,-4.55755c-6.85274,-2.80164 -9.37216,-4.07052 -15.40729,-8.52183c-6.37512,-4.70208 10.064,-0.18958 17.71225,1.1275c5.96664,1.02748 17.99782,4.07132 17.99782,4.07132z" fill="#bbe9f3" stroke="none" stroke-width="0" stroke-linecap="round"/><path d="M259.18503,122.44405c0.10615,0.80108 -3.07321,2.77936 -4.16865,2.75689c-1.09547,-0.02247 -7.53462,-4.2871 -7.64077,-5.08819c-0.09367,-0.70682 4.53891,0.39603 6.43853,0.94519z" fill="#d94a32" stroke="none" stroke-width="0" stroke-linecap="butt"/><path d="M259.9018,122.66744c-1.86749,1.60284 -5.41931,2.72007 -5.41931,2.72007c0,0 -2.41181,-1.52553 -3.82034,-2.41649c-1.74278,-1.10237 -5.30279,-3.40306 -5.30279,-3.40306" fill="none" stroke="#000000" stroke-width="2" stroke-linecap="round"/><path d="M271.03817,127.87951c-0.10789,2.42209 -5.12326,3.87702 -12.09516,3.31028c-8.26761,-0.67208 -15.66712,-3.12668 -21.10012,-5.67247c-5.68692,-2.66477 -11.06336,-7.1368 -11.18141,-8.06183c-0.16668,-1.3059 5.78153,0.14897 13.98666,1.10372c7.29654,0.849 30.57216,5.23277 30.39006,9.32032z" fill="none" stroke="#000000" stroke-width="2" stroke-linecap="round"/></g><path d="M254.14618,125.35482c0,0 0.53653,2.74512 -1.23438,4.31437" fill="none" stroke="#000000" stroke-width="2" stroke-linecap="round"/></g><path d="M233.83879,42.47546c0,0 2.85826,-3.71173 8.88845,5.48644" data-paper-data="{&quot;index&quot;:null}" fill="none" stroke="#000000" stroke-width="7.5" stroke-linecap="round"/><path d="M189.27861,114.64904c0,0 -2.94298,-6.00615 -2.47044,-12.80057" fill="none" stroke="#000000" stroke-width="2" stroke-linecap="round"/></g><path d="M284.37005,106.48908c0.06063,3.29302 -0.10817,4.68636 -0.60881,6.52341c-0.6332,2.3235 -1.63981,4.65463 -1.63981,4.65463" data-paper-data="{&quot;index&quot;:null}" fill="none" stroke="#000000" stroke-width="2" stroke-linecap="round"/></g><path d="M209.06944,124.95137c-1.11803,2.23607 -3.3541,1.11803 -3.3541,1.11803l-1.66839,-0.8684c-2.48384,-1.90457 -5.22233,-1.04768 -7.648,-3.26657c-0.73719,-0.67435 -0.74106,-1.87304 -1.3024,-2.69953c-1.03608,-1.52549 -3.13357,-2.0755 -4.2463,-3.54602c-2.61358,-3.45393 -2.51686,-8.14661 -2.51686,-12.18889c0,0 0,-2.5 2.5,-2.5c2.5,0 2.5,2.5 2.5,2.5c0,2.78925 -0.40164,6.75737 1.48314,9.14445c1.2024,1.52284 3.30276,2.2012 4.42036,3.78732c0.40073,0.56872 0.25465,1.43064 0.6976,1.96714c0.8941,1.08295 2.84234,0.23944 4.14164,0.77237c1.07379,0.44043 1.91802,1.30738 2.87703,1.96106l0.99827,0.46493c0,0 2.23607,1.11803 1.11803,3.3541z" fill="#000000" stroke="none" stroke-width="0.5" stroke-linecap="butt"/><path d="M278.94762,107.50138c-0.01715,-0.54022 0.17015,-1.15469 0.78461,-1.76915c1.76777,-1.76777 3.53553,0 3.53553,0l0.5999,3.5542c-2.13851,2.66157 -0.53222,3.39896 -1.25206,6.71624c-1.16031,5.34713 -6.23074,8.20441 -10.54193,10.66794c0,0 -2.17061,1.24035 -3.41096,-0.93026c-1.24035,-2.17061 0.93026,-3.41096 0.93026,-3.41096c2.76721,-1.58126 7.50083,-3.68313 8.12474,-7.33206c0.42559,-2.48908 -0.87456,-2.74051 0.06821,-5.59361c0.23417,-0.70867 0.68959,-1.30956 1.16169,-1.90234z" fill="#000000" stroke="none" stroke-width="0.5" stroke-linecap="butt"/><path d="M208.22831,143.66718l0.92316,-0.13171c1.0212,0.49298 2.24624,0.69294 3.06361,1.47893c0.85017,0.81753 1.03766,2.12746 1.70096,3.10273c1.20263,1.76824 2.53614,3.44449 3.85065,5.13123c2.52274,3.23712 8.0438,5.26704 11.93629,6.14318c3.43457,0.77307 5.88188,0.08432 8.84084,-1.69997c1.59465,-0.96159 4.34361,-3.50214 5.99947,-3.8346c0.12104,-0.0243 0.24237,-0.04461 0.36396,-0.0613l-0.01359,-0.05436l2.61228,-0.65307c0.21047,-0.05753 0.43201,-0.08824 0.66073,-0.08824c1.38071,0 2.5,1.11929 2.5,2.5c0,0.61475 -0.22189,1.17768 -0.58995,1.61307l-1.6113,1.93356c-0.72829,1.02154 -3.3508,4.75454 -3.97758,5.32757c-2.106,1.9254 -5.25785,2.36025 -7.47036,4.11257c-3.91445,3.10028 -6.27184,6.50443 -7.81244,11.13714c-0.3139,0.9323 -0.7252,1.83729 -0.94171,2.79689c-0.73883,3.27457 -0.7033,13.36324 -8.08451,8.62007c-1.34412,-0.86373 -0.58769,-3.14129 -0.84066,-4.71885c-0.49771,-3.1037 -0.70551,-6.23269 -1.28892,-9.32824c-0.5726,-3.03819 -1.7088,-7.27443 -3.36917,-9.89021c-2.9745,-4.68606 -6.59291,-8.82719 -8.56156,-14.17628c-0.43328,-1.17729 -0.47538,-3.32133 -0.46607,-5.0401c-0.13937,-0.1668 -0.2702,-0.36586 -0.38851,-0.60248c-1.11803,-2.23607 1.11803,-3.3541 1.11803,-3.3541l0.84419,-0.12044c0.26567,-0.09052 0.57661,-0.14349 0.94051,-0.14349c0.02072,0 0.04126,0.00017 0.06164,0.00051z" fill="#000000" stroke="none" stroke-width="0.5" stroke-linecap="butt"/><path d="M190.83334,105.16667c0,0 2.56742,101.30389 -14.03755,110.96458c-16.64536,9.68419 -16.29578,-35.29791 -16.29578,-35.29791" fill="none" stroke="#000000" stroke-width="6.5" stroke-linecap="round"/><path d="M207.50005,124.83334c0,0 -1.5747,44.55945 -2.5935,69.98958c-0.97754,24.40033 -8.51211,24.37474 -13.94405,19.30834c-7.38753,-6.89039 -8.79578,-37.29791 -8.79578,-37.29791" fill="none" stroke="#000000" stroke-width="6.5" stroke-linecap="round"/><path d="M287.6667,79.50002c0,0 14.67157,109.05331 -1.29577,108.63125c-10.09861,-0.26693 -9.63319,-15.40801 -9.61073,-21.14167c0.02246,-5.73367 4.07317,-57.15624 4.07317,-57.15624" data-paper-data="{&quot;index&quot;:null}" fill="none" stroke="#000000" stroke-width="6.5" stroke-linecap="round"/></g></g></svg>