<svg version="1.1" xmlns="http://www.w3.org/2000/svg" xmlns:xlink="http://www.w3.org/1999/xlink" width="267.42642" height="257.0021" viewBox="0,0,267.42642,257.0021"><g transform="translate(-106.28679,-54.50196)"><g data-paper-data="{&quot;isPaintingLayer&quot;:true}" fill-rule="nonzero" stroke-linejoin="miter" stroke-miterlimit="10" stroke-dasharray="" stroke-dashoffset="0" style="mix-blend-mode: normal"><path d="M373.71321,311.1602l-267.27562,0.34386l-0.1508,-256.65825l267.27563,-0.34385z" fill="none" stroke="none" stroke-width="NaN" stroke-linecap="butt"/><g><g data-paper-data="{&quot;origRot&quot;:0}" stroke="#000000" stroke-width="3" stroke-linecap="round"><path d="M226.64822,224.34397c0,0 -19.90407,-19.53538 -17.86817,-21.7854c3.67086,-4.05693 14.31588,-11.00792 14.31588,-11.00792l8.58311,-6.66611l-3.48496,2.23801c0,0 -4.73557,-14.68037 -3.90619,-18.23467c0.43572,-1.86732 9.45678,-5.81373 11.89217,-5.43151c5.46339,0.85743 25.6467,30.14185 22.74658,33.67598c-7.96646,7.34326 -24.76878,22.95581 -24.76878,22.95581c0,0 -6.18519,6.05895 -7.50964,4.25581z" data-paper-data="{&quot;origPos&quot;:null}" fill="#582700"/><path d="M234.19698,218.08245l-17.2684,-21.3445" fill="none"/><path d="M220.43745,194.3185l17.04545,21.51934" data-paper-data="{&quot;origPos&quot;:null}" fill="none"/></g><path d="M217.18039,196.46572l2.19914,-1.70416l17.51335,21.95056l-2.19912,1.70415z" fill="#ffffff" stroke="none" stroke-width="0" stroke-linecap="butt"/><path d="M257.89067,197.72915l-19.86332,18.25486l-16.48838,-22.17504l10.38442,-8.05222l-1.0498,-1.49415l-2.57155,1.50952l-3.4326,-16.51696l1.22016,-0.84814l6.10082,-4.24072l4.88757,0.49442l5.95731,5.03253l12.80101,17.78851l3.40572,9.586z" fill="#66c8ff" stroke="#000000" stroke-width="0.5" stroke-linecap="round"/></g><g data-paper-data="{&quot;index&quot;:null}" stroke="#000000" stroke-linecap="round"><path d="M277.22031,164.02444c0,0 16.86109,0.09184 16.13316,6.67895c-1.97568,17.87874 -30.36919,9.07303 -30.36919,9.07303z" data-paper-data="{&quot;origPos&quot;:null}" fill="#66c8ff" stroke-width="2"/><path d="M276.28352,165.44649c0,0 12.17427,0.65944 12.64625,2.66333c0.14885,0.63201 -16.42337,0.87361 -16.42337,0.87361z" data-paper-data="{&quot;origPos&quot;:null}" fill="#0a0a0a" stroke-width="1"/></g><g data-paper-data="{&quot;index&quot;:null,&quot;origRot&quot;:0}" stroke="#000000" stroke-linecap="round"><path d="M226.85379,265.44551c0,0 -1.82961,4.1175 -3.83545,5.46226c-1.53555,1.02948 -3.43944,0.48082 -5.19363,-0.14111c-4.81502,-1.70713 -8.08035,-5.5995 -14.65721,-9.96621c-1.79125,-1.1893 -0.99279,-4.40754 0.35012,-6.05955c1.25601,-1.54513 3.53724,-4.1566 3.53724,-4.1566l21.74799,-25.56517c0,0 2.92736,-3.22093 4.8489,-2.87289c4.62739,0.83816 7.60147,4.56412 11.62698,6.92539c1.36419,0.80022 -1.33506,4.8288 -1.33506,4.8288z" data-paper-data="{&quot;origPos&quot;:null}" fill="#ff0000" stroke-width="3"/><path d="M206.35619,251.43646l19.83028,13.2688c0,0 -0.48332,2.70226 -1.50674,4.06986c-0.97151,1.29824 -3.60504,2.76105 -3.60504,2.76105c0,0 -7.92518,-3.70719 -11.32006,-5.81652c-4.42481,-2.74924 -8.12341,-8.16618 -8.12341,-8.16618z" data-paper-data="{&quot;origPos&quot;:null}" fill="#976e57" stroke-width="2.5"/><path d="M226.60371,265.67149c0,0 -1.82961,4.1175 -3.83545,5.46226c-1.53555,1.02948 -3.43944,0.48083 -5.19364,-0.1411c-4.81502,-1.70713 -8.08035,-5.5995 -14.65721,-9.96621c-1.79124,-1.18931 -0.99279,-4.40754 0.35012,-6.05956c1.25601,-1.54513 3.53724,-4.1566 3.53724,-4.1566l21.74799,-25.56516c0,0 5.61524,-9.42094 7.53679,-9.0729c4.62739,0.83816 10.08261,2.56413 14.10812,4.92539c1.36419,0.8002 -6.5041,13.02878 -6.5041,13.02878c0,0 -4.3213,7.97644 -7.08717,13.08177c-3.90366,7.20558 -10.0027,18.46336 -10.0027,18.46336z" data-paper-data="{&quot;origPos&quot;:null}" fill="#4b4b4b" stroke-width="1.5"/></g><g data-paper-data="{&quot;index&quot;:null,&quot;origRot&quot;:0}" stroke="#000000" stroke-linecap="round"><path d="M250.81541,228.01803c0,0 -0.36717,-4.78754 1.2267,-4.85562c4.70324,-0.20084 9.16191,-2.08715 13.63678,-0.67242c1.8582,0.58748 2.82647,4.77261 2.82647,4.77261l6.38112,32.52733c0,0 0.70417,3.35039 1.0386,5.28916c0.35757,2.0729 -0.54007,5.26658 -2.70172,5.47751c-7.93683,0.77447 -12.73357,2.67142 -17.80449,1.9317c-1.84742,-0.2695 -3.78975,-0.67281 -4.62541,-2.28918c-1.0916,-2.1114 -0.65186,-6.5729 -0.65186,-6.5729z" data-paper-data="{&quot;origPos&quot;:null}" fill="#ff0000" stroke-width="3"/><path d="M276.18311,268.42244c0,0 -5.93377,3.03284 -11.17989,3.38846c-4.02503,0.27284 -12.81699,-0.15759 -12.81699,-0.15759c0,0 -1.58354,-2.50656 -1.79103,-4.09661c-0.21858,-1.67501 0.69928,-4.26972 0.69928,-4.26972l23.98166,-2.42501z" data-paper-data="{&quot;origPos&quot;:null}" fill="#976e57" stroke-width="2.5"/><path d="M250.24873,263.94064c0,0 0.24045,-12.70783 0.39439,-20.84149c0.10905,-5.76292 0.27944,-14.76674 0.27944,-14.76674c0,0 -0.36718,-4.78754 1.22668,-4.8556c4.70323,-0.20084 9.16191,-2.08715 13.63678,-0.67242c1.8582,0.58748 2.82647,4.77261 2.82647,4.77261l6.38112,32.52733c0,0 0.70417,3.35039 1.0386,5.28916c0.35757,2.0729 -0.54007,5.26658 -2.70171,5.47752c-7.93683,0.77447 -12.73357,2.67142 -17.80449,1.9317c-1.84742,-0.2695 -3.78975,-0.67282 -4.62541,-2.28919c-1.0916,-2.1114 -0.65186,-6.5729 -0.65186,-6.5729z" data-paper-data="{&quot;origPos&quot;:null}" fill="#4b4b4b" stroke-width="1.5"/></g><g><g><path d="M268.28183,210.86277c0,0 -0.83517,15.75882 -3.13335,15.80923c-6.89455,0.15129 -24.69652,-2.49842 -39.9629,-4.03557c-1.71498,-0.17268 0.13618,-15.02507 0.13618,-15.02507l5.10925,-30.27925c0,0 2.80607,-13.32398 4.37815,-13.16569c10.1693,1.02394 25.48393,1.63033 31.96335,3.93519c2.1598,0.76829 2.61347,15.30121 2.61347,15.30121z" data-paper-data="{&quot;origPos&quot;:null}" fill="#66c8ff" stroke="#000000" stroke-width="3.5" stroke-linecap="round"/><path d="M237.61695,188.11202c-1.32815,-0.13373 -1.06191,-2.60786 -1.06191,-2.60786c0.55221,-5.13153 1.28192,-11.91248 1.83413,-17.04401c0,0 0.26626,-2.47413 1.59441,-2.3404c1.32815,0.13373 1.0619,2.60786 1.0619,2.60786c-0.55221,5.13153 -1.10442,10.26306 -1.65663,15.39459l-0.17749,1.64942c0,0 -0.26625,2.47413 -1.5944,2.3404z" fill="#ffffff" stroke="none" stroke-width="0.5" stroke-linecap="butt"/><path d="M249.27806,195.65371c-1.32815,-0.13373 -0.99368,-3.24194 -0.99368,-3.24194c0.69373,-6.44665 1.61045,-14.96543 2.30419,-21.41209c0,0 0.33449,-3.10821 1.66264,-2.97448c1.32815,0.13373 0.99367,3.24194 0.99367,3.24194c-0.69373,6.44665 -1.38747,12.8933 -2.0812,19.33996l-0.22298,2.07213c0,0 -0.33448,3.10821 -1.66263,2.97448z" fill="#ffffff" stroke="none" stroke-width="0.5" stroke-linecap="butt"/></g><g fill="none" stroke="#b9b9b9" stroke-width="3"><path d="M262.2919,171.99536c-0.70555,-1.43647 0.36421,-2.55493 1.75208,-3.63979c1.38787,-1.08485 2.68976,-1.3277 3.27386,-0.28884c1.23844,2.20268 -0.39738,3.01877 -1.48414,3.86823c-1.38788,1.08487 -2.5454,2.08908 -3.54181,0.06041z" stroke-linecap="butt"/><path d="M263.3672,171.5097l-2.9328,2.23775" stroke-linecap="round"/><path d="M256.72035,174.00622c1.38787,-1.08485 2.68976,-1.3277 3.27386,-0.28884c1.23844,2.20268 -0.39738,3.01877 -1.48414,3.86823c-1.38787,1.08486 -2.54539,2.08908 -3.5418,0.06041c-0.70555,-1.43647 0.3642,-2.55493 1.75207,-3.6398z" stroke-linecap="butt"/><path d="M253.11076,179.39811l2.9328,-2.23777" stroke-linecap="round"/><path d="M247.37808,178.36617c0.58698,-1.58481 1.94627,-1.29249 3.45991,-0.67879c1.51363,0.61372 2.40483,1.68547 2.02146,2.90122c-0.81284,2.57772 -2.28126,1.55817 -3.46647,1.07762c-1.51363,-0.61371 -2.84388,-1.06189 -2.0149,-3.30004z" stroke-linecap="butt"/><path d="M245.14746,177.73696l3.16121,1.33191" stroke-linecap="round"/><path d="M240.44333,173.26853c1.05916,-1.21719 2.18289,-0.31268 3.33759,0.96533c1.15471,1.27801 1.59628,2.69803 0.84395,3.66277c-1.59517,2.04552 -2.57308,0.40711 -3.47726,-0.59361c-1.1547,-1.27802 -2.20004,-2.31551 -0.70427,-4.03448z" stroke-linecap="butt"/><path d="M241.0441,174.35999l-2.39473,-2.71625" stroke-linecap="round"/><path d="M234.41144,166.50347c1.05915,-1.21717 2.1829,-0.31268 3.33759,0.96533c1.15471,1.27801 1.59628,2.69803 0.84395,3.66277c-1.59517,2.04551 -2.57308,0.40711 -3.47725,-0.59361c-1.1547,-1.27801 -2.20004,-2.3155 -0.70427,-4.03448z" stroke-linecap="butt"/><path d="M232.6175,164.87867l2.39475,2.71626" stroke-linecap="round"/></g></g><g fill="none" stroke="#b9b9b9" stroke-width="3"><path d="M258.31561,171.46623c-0.43266,-1.40899 0.33588,-2.55778 1.32048,-3.68325c0.9846,-1.12545 1.88175,-1.40906 2.24507,-0.39243c0.77033,2.15555 -0.37438,3.02108 -1.14535,3.90235c-0.98461,1.12547 -1.80918,2.16321 -2.42021,0.17334z" stroke-linecap="butt"/><path d="M259.06634,170.94789l-2.07875,2.32375" stroke-linecap="round"/><path d="M254.44304,173.64816c0.9846,-1.12545 1.88175,-1.40906 2.24507,-0.39243c0.77033,2.15555 -0.37438,3.02108 -1.14535,3.90235c-0.9846,1.12546 -1.80918,2.16321 -2.42021,0.17334c-0.43266,-1.40899 0.33587,-2.55778 1.32047,-3.68326z" stroke-linecap="butt"/><path d="M251.79452,179.13682l2.07874,-2.32377" stroke-linecap="round"/><path d="M247.9158,178.29155c0.45486,-1.59811 1.37293,-1.35022 2.38541,-0.78698c1.01248,0.56325 1.58434,1.60285 1.28109,2.82667c-0.64297,2.59482 -1.61072,1.62569 -2.40349,1.18465c-1.01248,-0.56324 -1.90538,-0.96739 -1.26299,-3.22433z" stroke-linecap="butt"/><path d="M246.41435,177.73576l2.11283,1.22634" stroke-linecap="round"/><path d="M243.35519,173.43296c0.76468,-1.24684 1.50102,-0.38133 2.24574,0.85539c0.74473,1.23673 0.99774,2.63777 0.45115,3.62322c-1.15893,2.08944 -1.77065,0.48791 -2.35381,-0.48049c-0.74472,-1.23674 -1.42301,-2.23728 -0.3431,-3.99812z" stroke-linecap="butt"/><path d="M243.72811,174.50148l-1.54225,-2.63042" stroke-linecap="round"/><path d="M239.46791,166.88382c0.76468,-1.24682 1.50103,-0.38133 2.24575,0.85539c0.74473,1.23673 0.99774,2.63777 0.45114,3.62322c-1.15893,2.08943 -1.77065,0.48791 -2.35381,-0.48049c-0.74472,-1.23673 -1.42302,-2.23727 -0.3431,-3.99812z" stroke-linecap="butt"/><path d="M239.84084,167.95235l-1.54226,-2.63042" stroke-linecap="round"/></g><path d="M232.03773,157.36843c0.17581,-3.25224 1.89387,-17.34331 3.49047,-30.07381c0.24694,-1.96909 2.29245,-4.8508 2.29245,-4.8508c0,0 2.46285,-1.35088 3.75857,-1.20577c14.29571,1.60092 28.03449,2.03883 33.13921,4.19674c1.70158,0.7193 4.71603,2.82314 4.71603,2.82314c0,0 0.18218,4.449 0.17905,5.5881c-0.00104,0.37971 -0.00057,0.59353 -0.025,0.97249c-0.73172,11.35493 -2.82584,24.34834 -3.77877,28.86018c-0.31764,1.50394 -2.47924,3.65777 -2.47924,3.65777c0,0 -1.76327,2.54028 -6.37937,2.81353c-5.05081,0.29901 -17.02756,-1.48171 -29.37227,-3.35479c-1.85337,-0.28123 -4.34634,-3.93139 -4.34634,-3.93139z" fill="#582700" stroke="#000000" stroke-width="2.5" stroke-linecap="round"/><path d="M267.21983,156.91909c-0.52378,-0.06145 -0.71178,-2.88367 -0.28289,-6.30356c0.4289,-3.41988 1.2012,-6.14243 1.72499,-6.08095c0.52378,0.06145 0.60069,2.88366 0.17178,6.30355c-0.4289,3.41988 -1.20121,6.14244 -1.725,6.08097z" fill="none" stroke="#000000" stroke-width="2.5" stroke-linecap="butt"/><path d="M281.17261,130.73865l-0.66819,-0.60476c-0.088,-0.04107 -0.17601,-0.08163 -0.26405,-0.12173c-0.26548,0.28266 -0.75217,0.59142 -1.47665,0.26191c-0.66772,-0.3037 -0.77492,-0.80279 -0.744,-1.17514c-2.61649,-0.9679 -5.27783,-1.59676 -8.0825,-2.17206c-7.88662,-1.3472 -15.865,-2.09975 -23.81738,-3.01c-2.60802,-0.29853 -8.56961,0.04821 -10.54282,-1.87629c-0.96233,-0.93857 -0.31225,-2.80801 -0.28743,-3.86565c0.07193,-3.06476 0.07677,-6.24581 0.43763,-9.29356c0.49921,-3.98054 -0.60488,-7.71278 -0.6451,-11.67764c-0.02016,-1.98771 -0.4645,-4.03455 1.55417,-5.51891c0.56998,-0.41912 1.43348,-0.03751 2.14787,0.00826c2.6109,0.16728 5.10107,0.62713 7.63135,1.21712c8.01847,1.86968 15.99699,3.30915 23.90084,5.65438c3.18792,0.94986 6.46427,1.39516 9.76109,1.88331c1.93759,0.28689 3.77829,-0.04642 4.67764,2.23787c0.53708,1.36414 -0.46455,5.28139 -0.70064,6.74669c-0.91039,5.65024 -0.84166,12.72332 -2.77508,18.29023c0.11555,0.05219 0.23108,0.10513 0.34657,0.15886l1.22308,0.95436c0,0 0.98355,0.8108 0.14535,1.76217c-0.83821,0.95138 -1.82175,0.1406 -1.82175,0.1406z" data-paper-data="{&quot;index&quot;:null}" fill="#000000" stroke="none" stroke-width="0.5" stroke-linecap="butt"/><path d="M248.58255,161.23043c-0.50981,0.86995 -1.40917,0.37681 -1.40917,0.37681l-0.1054,-0.08602c-2.16893,-0.63737 -4.05075,-1.47832 -6.34836,-1.66025c0,0 -1.03021,-0.08319 -0.94422,-1.07973c0.086,-0.99653 1.11622,-0.91334 1.11622,-0.91334c2.45007,0.20129 4.46295,1.06634 6.77474,1.7389l0.52662,0.26053c0,0 0.89936,0.49314 0.38955,1.36309z" fill="#000000" stroke="none" stroke-width="0.5" stroke-linecap="butt"/><path d="M275.20621,148.30472c-0.63187,0.79146 -1.45009,0.18025 -1.45009,0.18025l-0.89399,-0.67452c-0.75694,-0.69685 -2.29037,-1.72136 -3.3813,-2.76324c-0.55373,-0.35717 -1.12355,-0.75776 -1.76608,-1.20184l-0.90391,-0.61393c-0.33618,-0.21761 -0.52251,-0.61631 -0.43967,-1.02425c0.11004,-0.54192 0.65342,-0.89496 1.21367,-0.78852c0.12047,0.0229 0.23193,0.06517 0.33155,0.12282l0.28157,0.15439c0.07292,0.03724 0.14595,0.07429 0.21903,0.11116c0.05527,0.01536 0.10832,0.03492 0.15886,0.05822l1.04889,0.45738l-0.00947,0.02033l0.05637,0.00152c1.08822,0.60778 2.58281,0.95454 3.20311,1.77775c0.188,0.11445 0.3743,0.23207 0.55857,0.3534l0.00709,-0.00826l0.09237,0.07424c0.02714,0.01814 0.05425,0.03637 0.0813,0.05469l0.00863,0.01758l0.02122,0.01707l0.00589,-0.00675l0.88796,0.72499c0.28746,0.22575 0.43972,0.59384 0.36338,0.96979c-0.02823,0.13899 -0.08495,0.26557 -0.16316,0.37514l0.2818,0.20792c0,0 0.81823,0.61121 0.18634,1.40268z" fill="#582700" stroke="none" stroke-width="0.5" stroke-linecap="butt"/><g data-paper-data="{&quot;index&quot;:null}"><g><path d="M276.15599,166.85727c0,0 14.68709,21.22648 13.00648,34.9261c-0.50645,4.12832 -11.01635,12.36589 -12.03359,12.83968c-4.39293,2.04602 -27.85702,-11.90401 -27.85702,-11.90401c0,0 -10.84496,-5.79669 -14.25622,-9.73936c7.46561,-17.43988 17.41959,-23.04025 17.41959,-23.04025c1.28922,-1.89442 7.46236,3.60439 7.46236,3.60439l18.65678,15.0117l-2.86201,-2.21868c0,0 -16.68981,-13.31634 -14.18636,-13.95175c2.30339,-0.58464 14.35759,-8.73114 14.64996,-5.52782z" fill="#582700" stroke="#000000" stroke-width="2.5" stroke-linecap="round"/><path d="M273.88575,185.78343c-0.93528,1.49536 -2.08816,2.91974 -3.28199,4.16529c-2.91697,3.81597 -6.17335,7.94661 -9.55399,11.42047c-0.96441,0.991 -1.89002,1.99589 -2.82331,3.01535c-0.31427,0.34328 -1.22028,1.02272 -1.53691,1.25333c1.49478,0.42609 3.06159,1.57056 4.59833,1.7104c0.18072,0.01645 0.44671,-0.14484 0.74417,-0.39346c0.71988,-1.04634 1.60766,-2.02416 1.97695,-2.52298c3.77219,-5.90391 8.70135,-10.89947 12.76512,-16.57031c-0.37586,-0.48064 -1.51736,-1.12105 -1.61165,-1.18656c-0.42722,-0.29684 -0.85447,-0.5916 -1.27673,-0.89151zM272.64911,184.8688c-0.46149,-0.35946 -0.91021,-0.73482 -1.33885,-1.13669c0,0 -0.2662,-0.25012 -0.25139,-0.58241c-2.70928,-1.98953 -5.29136,-4.20036 -7.54231,-6.3238c-1.14533,-0.81625 -2.79066,-1.80837 -2.27313,-3.42341c0.3724,-1.16213 2.4174,-2.31483 3.44301,-2.84977c3.29023,-1.71605 6.64174,-3.37075 9.95782,-5.00609c2.35258,0.16934 2.50634,2.2494 3.35187,4.11753c1.84227,4.07033 3.80378,8.07816 5.64109,12.15227c1.70679,2.70545 2.43849,5.60363 3.78584,8.42739c1.86606,3.91086 3.24451,7.06634 2.92638,11.46677c-2.55596,5.31482 -9.0969,11.89618 -15.5118,12.33149c-3.78022,1.31237 -7.44538,-1.12756 -10.74329,-2.66561c-0.55279,-0.2578 -2.70256,-0.87744 -2.96741,-1.35106c-0.18815,-0.33646 -0.18602,-0.75083 -0.06079,-1.20294c-1.68629,-0.15962 -3.45915,-1.35802 -5.04431,-1.82995c-1.91451,-1.80548 1.07034,-3.72988 2.61738,-5.37505c3.75462,-3.9928 7.49107,-8.29417 10.76957,-12.62475c1.17611,-1.22706 2.33188,-2.64091 3.24033,-4.12392zM264.29754,206.68529c-0.0149,0.01457 -0.02995,0.0295 -0.04518,0.04477c-0.81547,1.14944 -1.80184,2.55474 -1.76753,2.57094c3.23595,1.52697 8.32903,4.49871 12.03993,3.27194c5.92461,-0.40204 11.79988,-6.42906 14.32412,-11.24064c0.20362,-4.01174 -1.13304,-6.87406 -2.83123,-10.45456c-1.33423,-2.81311 -2.06094,-5.67552 -3.75573,-8.36833c-1.86491,-4.09851 -3.82611,-8.14233 -5.68511,-12.24102c-0.2571,-0.56684 -1.19082,-3.38113 -1.5668,-3.26408c-3.30414,1.89581 -7.00116,3.17654 -10.22718,5.19813c-0.26496,0.16605 -2.38061,1.64656 -2.1206,1.98573c0.42274,0.55144 1.28106,1.08384 1.85651,1.49305c4.5246,4.23567 10.76327,6.8984 14.90726,11.35091c-0.13298,0.74275 -0.37621,1.50156 -0.83081,2.11383l-0.34222,0.69425c0,0 -0.05567,0.11175 -0.16874,0.22244c-1.09928,2.75631 -4.38424,5.53407 -6.08749,7.23004c-2.82936,2.93282 -4.7411,6.50249 -7.69924,9.39259z" fill="#000000" stroke="none" stroke-width="0.5" stroke-linecap="butt"/><path d="M270.62642,189.90379c1.19382,-1.24554 2.35028,-2.66807 3.28557,-4.16343c0.42227,0.29991 0.85451,0.5979 1.28173,0.89474c0.09427,0.06551 1.24155,0.71085 1.61741,1.19149c-4.06376,5.67084 -9.04889,10.74783 -12.82108,16.65174c-0.36929,0.49881 -1.26076,1.47506 -1.98064,2.5214c-0.29747,0.24862 -0.56534,0.40898 -0.74606,0.39254c-1.53674,-0.13985 -3.11828,-1.29579 -4.61306,-1.72189c0.31663,-0.23061 1.22269,-0.90999 1.53695,-1.25327c0.93329,-1.01947 1.85661,-2.02711 2.82103,-3.01812c3.38063,-3.47386 6.70118,-7.67926 9.61815,-11.49523z" data-paper-data="{&quot;noHover&quot;:false,&quot;origItem&quot;:[&quot;Path&quot;,{&quot;applyMatrix&quot;:true,&quot;segments&quot;:[[[926.17844,407.1979],[3.2606,1.25965],[-0.27949,0.97418]],[[925.31465,410.11917],[0.29084,-0.97519],[-0.06418,0.21521]],[[924.29914,413.90358],[-0.01258,-1.20526],[13.15638,4.16543]],[[964.1057,425.02121],[-12.99513,-4.87922],[1.17537,0.35239]],[[970.21765,426.67451],[-2.3817,-0.804],[0.75941,0.04146]],[[971.83798,426.41666],[-0.25651,0.23985],[2.18115,-2.03947]],[[976.78433,418.26967],[-1.76682,2.44279],[-0.76669,0.00973]],[[972.89889,418.10481],[0.90089,0.17138],[-2.67549,-0.50896]],[[964.88923,416.67374],[2.68829,0.42712],[-9.42353,-1.49721]],[[936.29671,409.90591],[9.13228,2.58714],[-3.35077,-0.55846]]],&quot;closed&quot;:true}]}" fill="#ffffff" stroke="none" stroke-width="0.5" stroke-linecap="butt"/><path d="M265.32175,205.21826c3.46444,-5.41261 7.81555,-10.01089 11.66763,-15.11798c0.05055,0.03858 0.20757,0.04135 0.27749,0.07396c0.69847,0.32562 0.93715,-0.31796 0.93715,-0.31796l0.34366,-0.69063c0.45461,-0.61226 0.70238,-1.36295 0.83537,-2.1057c-4.144,-4.4525 -10.31909,-7.0972 -14.84369,-11.33286c-0.57545,-0.40921 -1.47746,-1.03218 -1.90021,-1.58363c-0.26001,-0.33915 1.86187,-1.8222 2.12684,-1.98825c3.22602,-2.02158 6.94624,-3.30467 10.25038,-5.20049c0.37597,-0.11706 1.31409,2.69794 1.57119,3.26478c1.859,4.09866 3.84724,8.15726 5.71214,12.25577c1.69478,2.69279 2.43529,5.58549 3.76952,8.39859c1.69818,3.58051 3.02821,6.47148 2.82459,10.48322c-2.52424,4.81158 -8.43793,10.86342 -14.36254,11.26548c-3.71088,1.22678 -8.83435,-1.75022 -12.0703,-3.2772c-0.05676,-0.02678 2.72416,-3.9424 2.86079,-4.12707z" data-paper-data="{&quot;noHover&quot;:false,&quot;origItem&quot;:[&quot;Path&quot;,{&quot;applyMatrix&quot;:true,&quot;segments&quot;:[[[926.61254,417.73069],[12.14285,3.5238],[-0.03018,0.12086]],[[926.46822,418.11346],[0.06716,-0.13431],[-0.67082,1.34164]],[924.45576,418.78428],[[923.08279,418.0906],[0,0],[-1.44471,-0.43097]],[[919.22563,415.72869],[1.11205,1.01797],[0.89694,-11.9485]],[[928.15956,380.1298],[-1.74473,12.05571],[0.38029,-1.32836]],[[929.175,375.57071],[0.02742,1.37277],[-0.01686,-0.84429]],[[923.5003,374.93752],[0.60865,-0.05075],[-7.41054,0.61792]],[[901.48814,378.8123],[7.37628,-0.90935],[-0.71866,0.25961]],[[903.08234,385.83106],[-0.2998,-1.20115],[2.16779,8.68513]],[[909.35292,411.92731],[-2.15853,-8.69186],[0.69956,6.26621]],[[913.83986,429.61277],[-1.39861,-6.02998],[1.78014,7.67491]],[[922.29365,449.50563],[-5.21858,-6.1072],[9.74892,4.62723]],[[957.96755,450.34516],[-9.56021,6.37347],[7.18055,-2.44927]],[[972.39433,430.92276],[-3.08539,6.24485],[0.05411,-0.10951]],[[963.14745,427.86406],[0.43501,0.13058],[-11.92317,-4.46591]]],&quot;closed&quot;:true}]}" fill="#66c8ff" stroke="none" stroke-width="0.5" stroke-linecap="butt"/></g><g data-paper-data="{&quot;index&quot;:null}" fill="#fffc96" stroke="#000000" stroke-width="2" stroke-linecap="round"><path d="M282.64552,172.67632c1.2238,1.84465 -2.91444,7.48102 -8.13279,12.82652c-0.43445,-0.68557 -1.07835,-1.43267 -2.00255,-2.39759c4.36257,-4.71146 7.07086,-8.76255 7.07086,-8.76255l-0.84382,-1.68429c0,0 2.78631,-1.67328 3.9083,0.01793z"/><path d="M288.60349,184.74624c0.84747,1.86087 -5.65689,3.05442 -13.30365,3.40339c-0.02001,-1.0153 -0.2404,-1.7988 -0.81569,-2.6915c6.19476,-0.26089 10.07991,-1.05147 10.07991,-1.05147l-0.58283,-1.25623c0,0 3.45254,-0.97268 4.62226,1.59582z" data-paper-data="{&quot;index&quot;:null}"/></g></g><path d="M260.34894,156.48403c-0.52378,-0.06145 -0.60067,-2.88367 -0.17178,-6.30356c0.4289,-3.41988 1.2012,-6.14243 1.72499,-6.08095c0.52379,0.06145 0.6007,2.88366 0.17179,6.30355c-0.4289,3.41988 -1.20121,6.14244 -1.725,6.08097z" fill="none" stroke="#000000" stroke-width="2.5" stroke-linecap="butt"/><path d="M257.96053,144.72783l0.20702,-0.08272c-0.01241,-0.10073 -0.0087,-0.20862 0.0136,-0.31851c0.06035,-0.29722 0.24107,-0.53102 0.45593,-0.62551l0.6711,-0.3123l0.00133,0.00648l0.01596,-0.00727l0.00936,-0.01083c0.01944,-0.00672 0.03886,-0.01338 0.05831,-0.01996l0.06949,-0.03162l0.00158,0.0079c0.13144,-0.04327 0.26294,-0.0833 0.39451,-0.12055c0.55412,-0.45236 1.44843,-0.33211 2.19528,-0.50727l0.03061,0.01308l0.00039,-0.01742l0.68527,-0.07386c0.03336,-0.00449 0.06705,-0.00558 0.10081,-0.00302c0.0491,-0.00886 0.0982,-0.01783 0.14731,-0.02699l0.19247,-0.04321c0.06892,-0.01753 0.14003,-0.02069 0.21075,-0.00725c0.32888,0.06249 0.52499,0.46048 0.43799,0.88892c-0.06549,0.32253 -0.27272,0.57037 -0.51149,0.64656l-0.64974,0.22615c-0.46393,0.16643 -0.87717,0.31904 -1.2701,0.44359c-0.86522,0.49546 -1.96288,0.86656 -2.55621,1.19108l-0.66075,0.27347c0,0 -0.60308,0.24574 -0.72851,-0.49874c-0.12543,-0.74448 0.47766,-0.99023 0.47766,-0.99023z" data-paper-data="{&quot;index&quot;:null}" fill="#582700" stroke="none" stroke-width="0.5" stroke-linecap="butt"/><g stroke="#000000" stroke-width="1" stroke-linecap="butt"><path d="M249.61678,164.4289l-10.92709,-1.30791c0,0 -0.97193,-7.65418 6.37617,-6.83847c7.77967,0.86362 4.55093,8.14638 4.55093,8.14638z" fill="#000000"/><path d="M239.56679,158.46615c0.85169,-1.41476 2.46712,-2.52021 5.49908,-2.18363c2.01523,0.22371 3.29178,0.87814 4.07713,1.72514c0.00373,0.00403 -0.22022,1.45874 -0.22022,1.45874c0,0 -9.35875,-0.99568 -9.35599,-1.00026z" fill="#ffffff"/><path d="M244.2145,163.78229c-1.83128,-0.21919 -5.52481,-0.66128 -5.52481,-0.66128c0,0 -0.04731,-0.93604 0.0207,-1.84909c0.0059,-0.0792 1.72471,0.08148 3.03057,0.61266c1.53816,0.6257 2.65282,1.91917 2.47354,1.89772z" fill="#ff8484"/></g><path d="M312.35455,130.60417v10.28033h-13.6145v-10.28033z" data-paper-data="{&quot;index&quot;:null}" fill="#582700" stroke="none" stroke-width="0" stroke-linecap="butt"/><path d="M292.62741,123.10231v5.83478h-7.50186v-5.83478z" data-paper-data="{&quot;index&quot;:null}" fill="#582700" stroke="none" stroke-width="0" stroke-linecap="butt"/></g></g></svg>