<svg version="1.1" xmlns="http://www.w3.org/2000/svg" xmlns:xlink="http://www.w3.org/1999/xlink" width="234" height="234" viewBox="0,0,234,234"><g transform="translate(-123,-63)"><g data-paper-data="{&quot;isPaintingLayer&quot;:true}" fill-rule="nonzero" stroke-linejoin="miter" stroke-miterlimit="10" stroke-dasharray="" stroke-dashoffset="0" style="mix-blend-mode: normal"><path d="M123,297v-234h234v234z" data-paper-data="{&quot;index&quot;:null}" fill="none" stroke="none" stroke-width="0" stroke-linecap="butt"/><g><g><g data-paper-data="{&quot;origRot&quot;:0}" stroke="#000000" stroke-width="3" stroke-linecap="round"><path d="M281.29154,194.73341c1.4856,1.96731 -6.44211,5.98903 -6.44211,5.98903c0,0 -20.66657,11.2272 -30.40446,16.57142c-4.42885,1.6384 -28.92263,-28.98623 -28.29488,-34.75381c0.27984,-2.57101 6.82146,-10.18138 8.85881,-9.95077c3.87795,0.43892 17.64246,10.41039 17.64246,10.41039l-3.2596,2.68545l9.21295,-6.20226c0,0 10.07454,-8.16188 15.25287,-10.38428c2.87194,-1.23255 17.43394,25.63482 17.43394,25.63482z" data-paper-data="{&quot;origPos&quot;:null}" fill="#582700"/><path d="M255.63266,175.16803l17.14683,24.87796" fill="none"/><path d="M252.18014,177.81265l17.38788,24.71744" data-paper-data="{&quot;origPos&quot;:null}" fill="none"/></g><path d="M272.98508,200.66166l-2.35659,1.59049l-17.70144,-25.33906l2.35659,-1.59049z" fill="#ffffff" stroke="none" stroke-width="0" stroke-linecap="butt"/><path d="M244.29163,217.58617l-8.90144,-6.8246l-14.72921,-19.1433l-3.52229,-7.75089l0.8415,-5.06244l6.03771,-4.58602l1.20755,-0.91721l16.00968,9.32414l-2.25956,2.03223l1.24422,1.58253l11.1332,-7.50851l18.21484,24.39447l-24.2242,13.34458z" fill="#c51c21" stroke="#000000" stroke-width="0.5" stroke-linecap="round"/></g><g fill="#fffc96" stroke="#000000" stroke-width="2" stroke-linecap="round"><path d="M245.28007,180.77004c0,0 1.37696,-4.80177 4.7301,-3.95768c5.36487,1.35051 -7.29146,36.65282 -12.94654,35.57838c-2.31053,-0.439 -1.89898,-4.06488 -1.89898,-4.06488l2.16946,0.15214c0,0 3.86363,-6.0099 7.00339,-14.16717c3.09625,-8.04423 3.61954,-13.89102 3.61954,-13.89102z"/><path d="M235.33468,181.08217c0,0 -2.09662,-4.01231 0.5068,-4.53341c5.46496,-1.09386 22.09581,37.02091 16.72604,36.83931c-3.25203,-0.10997 -3.89458,-4.1276 -3.89458,-4.1276l1.59571,0.06497c0,0 -1.444,-6.08733 -5.35163,-14.65033c-3.90758,-8.56301 -8.08443,-13.71217 -8.08443,-13.71217z" data-paper-data="{&quot;index&quot;:null}"/></g></g><g stroke="#000000" stroke-linecap="round"><path d="M224.05327,175.34912c0,0 -28.32287,7.54146 -29.43396,-10.40594c-0.40938,-6.6124 16.17093,-5.95886 16.17093,-5.95886z" data-paper-data="{&quot;origPos&quot;:null}" fill="#c51c21" stroke-width="2"/><path d="M215.19392,164.14649c0,0 -16.28083,-0.97387 -16.10511,-1.59865c0.55716,-1.98093 12.55626,-2.10155 12.55626,-2.10155z" data-paper-data="{&quot;origPos&quot;:null}" fill="#0a0a0a" stroke-width="1"/></g><g data-paper-data="{&quot;origRot&quot;:0}" stroke="#000000" stroke-linecap="round"><path d="M237.49414,228.30065c0,0 -1.39186,-4.60164 0.12584,-4.99697c4.47851,-1.16651 8.35611,-3.92927 12.96558,-3.47025c1.9141,0.19059 3.7532,4.07971 3.7532,4.07971l13.19326,30.46249c0,0 1.40402,3.12801 2.14627,4.9532c0.79358,1.95143 0.6235,5.25685 -1.40911,5.90886c-7.46305,2.39405 -11.66341,5.23692 -16.69951,5.56037c-1.83473,0.11784 -3.78977,0.12451 -4.94396,-1.28228c-1.50771,-1.83762 -2.05297,-6.28718 -2.05297,-6.28718z" data-paper-data="{&quot;origPos&quot;:null}" fill="#ff0000" stroke-width="3"/><path d="M270.65186,262.54193c0,0 -5.0471,4.1872 -10.01401,5.61693c-3.81079,1.09694 -12.35747,2.49023 -12.35747,2.49023c0,0 -2.06644,-2.12221 -2.61094,-3.63286c-0.5736,-1.59139 -0.25412,-4.31574 -0.25412,-4.31574l22.53171,-7.31672z" data-paper-data="{&quot;origPos&quot;:null}" fill="#976e57" stroke-width="2"/><path d="M237.66533,228.58569c0,0 -1.39186,-4.60164 0.12585,-4.99696c4.4785,-1.16651 8.35611,-3.92927 12.96559,-3.47024c1.9141,0.19059 3.75319,4.0797 3.75319,4.0797l13.19326,30.46249c0,0 1.40404,3.12802 2.14629,4.9532c0.79358,1.95143 0.62349,5.25684 -1.40911,5.90886c-7.46305,2.39405 -11.6634,5.23693 -16.69951,5.56038c-1.83473,0.11784 -3.78976,0.12448 -4.94395,-1.28228c-1.50771,-1.83762 -2.05297,-6.28718 -2.05297,-6.28718z" data-paper-data="{&quot;origPos&quot;:null}" fill="#4b4b4b" stroke-width="3"/></g><path d="M229.6712,263.79374c0,0 -0.08367,4.48097 -1.39412,6.45932c-1.00321,1.51451 -2.94884,1.70264 -4.78628,1.76819c-5.04353,0.17991 -9.51538,-2.22992 -17.18685,-3.86819c-2.08936,-0.44619 -2.5994,-3.71763 -2.01113,-5.73806c0.55022,-1.88972 1.62448,-5.14148 1.62448,-5.14148l9.9843,-31.61991c0,0 1.42861,-4.05228 3.31319,-4.43257c4.5384,-0.91583 8.68093,1.44641 13.25664,2.16079c1.55063,0.24209 0.64044,4.95869 0.64044,4.95869c0,0 -0.87,8.96463 -1.42685,14.70247c-0.78592,8.09826 -2.01383,20.75078 -2.01383,20.75078z" fill="#4b4b4b" stroke="#000000" stroke-width="3" stroke-linecap="round"/><g><path d="M213.6523,182.81545c0,0 1.12164,-14.49771 3.28067,-15.16971c6.47704,-2.01604 21.56095,-1.94487 31.60594,-2.51822c1.55285,-0.08864 3.69205,13.34546 3.69205,13.34546l3.61514,30.47346c0,0 1.12937,14.9187 -0.56464,15.01538c-15.07976,0.86074 -32.70394,2.72078 -39.47491,2.26492c-2.25699,-0.15194 -2.3454,-15.93121 -2.3454,-15.93121z" data-paper-data="{&quot;origPos&quot;:null}" fill="#c51c21" stroke="#000000" stroke-width="3.5" stroke-linecap="round"/><path d="M233.27622,189.90793c-1.31192,0.07488 -1.45864,-2.40844 -1.45864,-2.40844c-0.3043,-5.15058 -0.70642,-11.95669 -1.01073,-17.10728c0,0 -0.14673,-2.48332 1.1652,-2.5582c1.31192,-0.07488 1.45864,2.40844 1.45864,2.40844c0.3043,5.15058 0.60861,10.30116 0.91291,15.45173l0.09781,1.65554c0,0 0.14673,2.48332 -1.1652,2.5582z" fill="#ffffff" stroke="none" stroke-width="0.5" stroke-linecap="butt"/><path d="M245.18586,188.81079c-1.31192,0.07488 -1.49625,-3.04485 -1.49625,-3.04485c-0.38229,-6.47058 -0.88747,-15.02098 -1.26976,-21.49156c0,0 -0.18432,-3.11975 1.12759,-3.19463c1.31192,-0.07488 1.49625,3.04485 1.49625,3.04485c0.38229,6.47058 0.76459,12.94115 1.14688,19.41175l0.12289,2.07983c0,0 0.18432,3.11975 -1.12759,3.19463z" fill="#ffffff" stroke="none" stroke-width="0.5" stroke-linecap="butt"/></g><path d="M246.41018,168.03055c-12.27048,-0.79723 -24.16704,-1.60635 -28.94926,-2.97184c-4.37062,-1.24795 -5.49543,-4.101 -5.49543,-4.101c0,0 -1.59365,-2.56072 -1.5623,-4.09543c0.09405,-4.6041 0.98904,-17.72501 2.82562,-28.95783c0.0613,-0.37489 0.10956,-0.58341 0.19347,-0.95404c0.2517,-1.11191 1.42146,-5.41338 1.42146,-5.41338c0,0 3.3645,-1.41151 5.15895,-1.75146c5.38336,-1.01987 18.67131,1.4738 32.75401,2.95133c1.27642,0.13392 3.33883,1.97536 3.33883,1.97536c0,0 1.31942,3.24612 1.11619,5.21956c-1.31387,12.75863 -2.81534,26.87043 -3.37379,30.0805c-0.18614,1.07004 -2.37593,5.10703 -2.37593,5.10703z" fill="#582700" stroke="#000000" stroke-width="2.5" stroke-linecap="round"/><path d="M245.41542,146.52124c0.35296,-3.42745 1.05787,-6.16429 1.57446,-6.11289c0.5166,0.05138 0.64927,2.87157 0.29633,6.29899c-0.35296,3.42745 -1.05787,6.1643 -1.57446,6.1129c-0.5166,-0.05138 -0.64927,-2.87157 -0.29633,-6.299z" fill="#000000" stroke="#000000" stroke-width="2.5" stroke-linecap="butt"/><path d="M239.85454,146.23419c0.35949,-3.49093 0.96503,-6.28964 1.35246,-6.25109c0.38745,0.03854 0.41012,2.89975 0.05063,6.39066c-0.35949,3.49093 -0.96499,6.28961 -1.35245,6.25108c-0.38745,-0.03854 -0.41013,-2.89973 -0.05065,-6.39065z" fill="#000000" stroke="#000000" stroke-width="2.5" stroke-linecap="butt"/><g fill="none" stroke="#b9b9b9" stroke-width="3"><path d="M246.62642,170.27966c-0.92061,-1.30783 -0.0648,-2.57831 1.10549,-3.86519c1.17029,-1.28686 2.39501,-1.72933 3.13252,-0.79501c1.56371,1.98104 0.10856,3.04127 -0.80782,4.04892c-1.1703,1.28688 -2.13007,2.45829 -3.43019,0.61128z" stroke-linecap="butt"/><path d="M245.10932,172.29821l2.48196,-2.66536" stroke-linecap="round"/><path d="M241.54433,173.13208c1.17029,-1.28686 2.39501,-1.72933 3.13252,-0.79501c1.56371,1.98104 0.10856,3.04127 -0.80782,4.04892c-1.17029,1.28687 -2.13006,2.45829 -3.43018,0.61128c-0.92061,-1.30783 -0.06481,-2.57831 1.10547,-3.8652z" stroke-linecap="butt"/><path d="M241.40367,176.35046l-2.48196,2.66538" stroke-linecap="round"/><path d="M233.18459,178.89026c0.3105,-1.65556 1.67865,-1.57878 3.24935,-1.20883c1.5707,0.36995 2.61188,1.28891 2.43868,2.5485c-0.36722,2.67069 -1.96048,1.89316 -3.19038,1.60349c-1.5707,-0.36994 -2.93616,-0.60507 -2.49764,-2.94314z" stroke-linecap="butt"/><path d="M234.20357,179.43885l-3.28861,-0.82215" stroke-linecap="round"/><path d="M225.61389,174.93928c0.82933,-1.36628 2.06899,-0.64859 3.39986,0.43289c1.33089,1.08148 1.99243,2.4142 1.41975,3.48352c-1.21427,2.26729 -2.43249,0.80258 -3.47463,-0.04425c-1.3309,-1.08149 -2.5162,-1.94262 -1.34498,-3.87214z" stroke-linecap="butt"/><path d="M226.37624,175.92292l-2.77093,-2.30782" stroke-linecap="round"/><path d="M218.64697,169.202c0.82934,-1.36626 2.06899,-0.64859 3.39986,0.43289c1.3309,1.08148 1.99243,2.4142 1.41975,3.48352c-1.21426,2.26728 -2.43249,0.80258 -3.47463,-0.04425c-1.33089,-1.08148 -2.51619,-1.94262 -1.34497,-3.87214z" stroke-linecap="butt"/><path d="M219.40933,170.18564l-2.77094,-2.30781" stroke-linecap="round"/></g><path d="M244.17447,140.2021c-0.24759,0.53692 -0.72994,0.46053 -0.92504,0.40325c-0.15755,0.18137 -0.40027,0.28599 -0.65984,0.2594c-0.17808,-0.01823 -0.33543,-0.09529 -0.45419,-0.20948l-0.59772,-0.56383c-0.12099,-0.07492 -0.24194,-0.14765 -0.36308,-0.21849c-0.57489,-0.07232 -1.09505,-0.55123 -1.74765,-0.90502c-0.15663,-0.07268 -0.315,-0.14448 -0.47552,-0.21592c0,0 -0.15107,-0.06731 -0.28042,-0.20838c-0.25462,-0.14293 -0.41313,-0.4243 -0.3808,-0.72937c0.04367,-0.41198 0.41886,-0.71117 0.838,-0.66823c0.08201,0.0084 0.15964,0.02927 0.23112,0.06051l0.7377,0.30252l-0.03771,0.08886l0.02909,0.01644c0.02015,0.01042 0.04015,0.02073 0.05994,0.03093c0.07478,0.03518 0.14915,0.07059 0.22316,0.10624c1.01161,0.22094 1.97413,0.63038 2.86944,1.22531l0.55354,0.23251c0,0 0.69498,0.30963 0.37997,0.99274z" fill="#582700" stroke="none" stroke-width="0.5" stroke-linecap="butt"/><g><g data-paper-data="{&quot;index&quot;:null}"><path d="M260.39932,169.47763c2.22199,-1.09473 4.4656,-6.81441 5.49995,-4.78611c0.52686,1.03316 9.77801,20.08845 9.59383,21.3451c-0.17743,1.21038 -0.78987,2.22021 -1.88004,2.75732c-0.74172,0.36541 -2.06239,0.57521 -3.04519,0.3776c-1.96153,-0.39439 -16.07679,-16.90208 -16.76588,-18.25333c-1.03435,-2.02832 4.37537,-0.34586 6.59735,-1.44058z" fill="#0091d4" stroke="#000000" stroke-width="1.5" stroke-linecap="butt"/><g stroke-linecap="butt"><path d="M256.99802,162.75806c4.02572,-1.98339 8.36931,-1.47322 9.70167,1.13947c1.33236,2.61269 -0.851,6.33854 -4.87672,8.32195c-4.02573,1.98338 -8.36932,1.47322 -9.70169,-1.13948c-1.33236,-2.61269 0.85102,-6.33854 4.87673,-8.32192z" fill="#c51c21" stroke="#000000" stroke-width="1.5"/><path d="M258.07003,172.42735c0,0 -1.68834,0.39846 -3.36902,-0.18008c-0.79744,-0.28761 -2.29313,-1.63215 -2.29313,-1.63215l4.01264,-0.17543z" fill="#ff242b" stroke="none" stroke-width="0"/><path d="M261.54297,171.41375l-1.78353,0.8202c0,0 -0.58981,-0.54489 -0.80705,-0.91008c-0.18555,-0.31188 -0.55128,-1.27894 -0.55128,-1.27894l1.60467,-0.44743z" fill="#ff242b" stroke="none" stroke-width="0"/></g><g><path d="M260.05217,168.49903c-5.5536,2.73611 -13.11777,1.74261 -15.90146,-3.716c-2.78369,-5.45867 -0.82215,-11.26193 4.73141,-13.99804c5.5536,-2.73611 12.59686,-0.66928 15.38055,4.78934c2.78369,5.45867 1.34307,10.18857 -4.21046,12.92468z" fill="#781114" stroke="#000000" stroke-width="1.5" stroke-linecap="butt"/><path d="M247.38751,152.47514c0,0 2.01085,0.62442 4.74515,1.73411c2.72767,1.107 5.64219,3.3364 6.85847,5.72142c2.43552,4.77589 1.90124,7.24899 -2.1338,9.23699c-1.96304,0.96715 -4.31849,0.82309 -6.2575,-0.05316c-2.72161,-1.22991 -5.49452,-3.37604 -6.8756,-6.08432c-2.43552,-4.77589 3.6633,-10.55505 3.6633,-10.55505z" fill="#c51c21" stroke="none" stroke-width="0" stroke-linecap="butt"/><path d="M263.52006,156.4003c0,0 -1.2476,4.78104 -7.83951,7.74482c-6.53835,2.9397 -11.18959,0.54512 -11.18959,0.54512" fill="none" stroke="#000000" stroke-width="0.8" stroke-linecap="round"/><path d="M264.71238,162.25685c0,0 -1.3322,3.0145 -7.64156,5.03425c-4.37806,1.40151 -9.21003,1.1654 -9.21003,1.1654" fill="none" stroke="#000000" stroke-width="0.75" stroke-linecap="round"/><path d="M261.83448,153.90701c0,0 -0.90703,2.80557 -7.36409,5.28729c-6.71336,2.58025 -11.25336,0.83271 -11.25336,0.83271" fill="none" stroke="#000000" stroke-width="0.8" stroke-linecap="round"/><path d="M243.84781,156.25686c0,0 4.22197,-2.13418 8.86501,-3.09431c3.52505,-0.72897 8.43069,-0.4752 8.43069,-0.4752" fill="none" stroke="#000000" stroke-width="0.8" stroke-linecap="round"/><path d="M253.388,150.19998c0,0 3.91854,1.05302 6.43524,6.52938c2.69691,5.86854 1.99668,10.00495 1.99668,10.00495" fill="none" stroke="#000000" stroke-width="0.8" stroke-linecap="round"/><path d="M259.00762,168.66252c0,0 -1.68672,-2.82413 -2.47535,-4.61684c-0.66397,-1.50937 -1.40322,-4.64007 -2.50084,-7.37072c-1.24815,-3.10509 -2.82235,-5.74064 -2.82235,-5.74064" fill="none" stroke="#000000" stroke-width="0.8" stroke-linecap="round"/><path d="M256.41524,169.80405c0,0 -4.07646,-2.69658 -6.90688,-8.66017c-1.80334,-3.79958 -1.08515,-9.44749 -1.08515,-9.44749" fill="none" stroke="#000000" stroke-width="0.8" stroke-linecap="round"/><path d="M250.6764,169.78254c0,0 -2.85759,-2.17534 -4.68097,-7.96119c-1.26619,-4.01786 -0.54994,-8.11524 -0.54994,-8.11524" fill="none" stroke="#000000" stroke-width="0.8" stroke-linecap="round"/><path d="M245.26157,162.81827c-0.39598,0.19509 -0.90266,-0.01081 -1.13167,-0.45993c-0.22902,-0.44909 -0.09366,-0.97132 0.30234,-1.16642c0.39598,-0.19509 0.90266,0.0108 1.13166,0.45991c0.22902,0.44909 0.09365,0.97134 -0.30233,1.16642z" fill="#ff242b" stroke="none" stroke-width="0" stroke-linecap="butt"/><path d="M244.51315,159.38847c-0.22845,0.11254 -0.50648,0.02177 -0.62099,-0.20279c-0.11451,-0.22453 -0.02215,-0.49781 0.20632,-0.61037c0.22845,-0.11254 0.50648,-0.02176 0.62099,0.20279c0.11451,0.22453 0.02215,0.49782 -0.20631,0.61038z" fill="#ff242b" stroke="none" stroke-width="0" stroke-linecap="butt"/></g></g><path d="M258.55284,172.94876c5.4119,9.39983 5.65443,11.37747 5.65443,11.37747c0.6131,1.2136 -0.6434,1.6826 -0.6434,1.6826c0,0 -2.3238,1.20209 -3.81116,1.97147c-0.97665,0.50523 -2.50255,1.29455 -2.50255,1.29455c0,0 -1.04183,0.34059 -1.3621,-0.32903c-1.9267,-4.0285 -3.98615,-7.77674 -4.75769,-9.8907c-0.2572,-0.70466 0.31636,-1.91445 0.31636,-1.91445l4.41352,-2.95127c0,0 1.7381,-1.31292 2.69256,-1.24061z" fill="#582700" stroke="#000000" stroke-width="3" stroke-linecap="round"/><path d="M270.64335,168.22056c10.73703,19.67332 11.35708,23.72277 11.35708,23.72277c1.22965,2.53142 -1.02677,3.36029 -1.02677,3.36029c0,0 -4.14313,2.21424 -6.79492,3.63148c-1.74128,0.93061 -4.46182,2.38458 -4.46182,2.38458c0,0 -1.87517,0.589 -2.52067,-0.80592c-3.88337,-8.39212 -7.98453,-16.22716 -9.58429,-20.60705c-0.53325,-1.45995 0.40788,-3.86496 0.40788,-3.86496l7.8093,-5.56541c0,0 3.06195,-2.49844 4.81418,-2.2558z" fill="#582700" stroke="#000000" stroke-width="3" stroke-linecap="round"/></g><g data-paper-data="{&quot;index&quot;:null}"><g data-paper-data="{&quot;index&quot;:null}" stroke="#000000"><path d="M260.2228,198.42952c-1.51287,4.71406 -25.38933,12.42354 -30.23516,10.46808c-4.9698,-2.00549 -11.91785,-12.58916 -15.04983,-19.22868c-3.13196,-6.63952 -3.53479,-17.3367 -2.73341,-18.47029c2.40414,-3.40079 13.80867,-3.65557 18.8672,-4.35502c3.02255,-0.41794 14.94356,-1.71659 18.642,0.03649c3.91287,1.85471 11.55486,28.29112 10.50919,31.54937z" data-paper-data="{&quot;origRot&quot;:0,&quot;origPos&quot;:null}" fill="#582700" stroke-width="3" stroke-linecap="butt"/><path d="M246.70498,170.7543l-18.45443,5.2139" data-paper-data="{&quot;origPos&quot;:null}" fill="none" stroke-width="2" stroke-linecap="round"/><path d="M231.53769,204.68714l-5.24867,-24.78716" data-paper-data="{&quot;origPos&quot;:null}" fill="none" stroke-width="2" stroke-linecap="round"/><path d="M227.78292,206.55374c0,0 -7.19069,-28.70334 -5.82791,-31.98575c1.19303,-2.87357 26.41327,-7.40732 26.41327,-7.40732" data-paper-data="{&quot;origPos&quot;:null}" fill="none" stroke-width="1.5" stroke-linecap="round"/><path d="M225.20001,203.59511c0,0 -6.84836,-27.33686 -5.55045,-30.46298c1.13625,-2.73678 25.1558,-7.05468 25.1558,-7.05468" data-paper-data="{&quot;origPos&quot;:null}" fill="none" stroke-width="1.5" stroke-linecap="round"/></g><path d="M230.8587,168.63408l-11.29317,4.60381l1.02727,10.95449l3.16292,13.94114l0.91596,5.94753l-11.60166,-19.16056l-0.5893,-14.57112l18.27485,-2.99701z" fill="#c51c21" stroke="#000000" stroke-width="0.5" stroke-linecap="round"/><path d="M219.78743,173.93082l1.2902,-0.5131l6.15208,31.90381l-1.2902,0.5131z" fill="#ffffff" stroke="none" stroke-width="0" stroke-linecap="butt"/><path d="M245.77437,165.63586l0.48474,1.32994l-25.59219,7.09787l-0.48474,-1.32994z" fill="#ffffff" stroke="none" stroke-width="0" stroke-linecap="butt"/><path d="M223.67807,203.56381c0.99066,-1.14099 2.1515,-0.16725 2.1515,-0.16725l0.61367,0.51817c0.36815,0.34755 0.73632,0.6951 1.10447,1.04265c0,0 1.10064,1.03905 0.04352,2.12089c-1.05712,1.08183 -2.15777,0.04278 -2.15777,0.04278c-0.36815,-0.34755 -0.73632,-0.6951 -1.10447,-1.04265l-0.48077,-0.39988c0,0 -1.16083,-0.97373 -0.17016,-2.11472z" fill="#000000" stroke="none" stroke-width="0.5" stroke-linecap="butt"/><path d="M221.54855,172.80283c0.0004,0.00006 0.00077,0.00013 0.00116,0.0002l0.02056,-0.14364l0.53646,0.07417c0.23574,0.0277 0.42674,0.21553 0.44618,0.45708c0.01601,0.19898 -0.08879,0.37995 -0.25389,0.47321l-0.4234,0.25091c-0.40001,0.32967 -0.59156,0.43652 -0.63997,0.96226c0,0 -0.07086,0.49513 -0.57459,0.42548c-0.23767,-0.03286 -0.34743,-0.16044 -0.39708,-0.28605c-0.16412,-0.04837 -0.29543,-0.17651 -0.34324,-0.34189l-0.15885,-0.50907l0.09279,-0.02797c-0.21389,-0.42504 -0.12522,-0.77428 0.43958,-1.38814l0.59078,-0.26539c0,0 0.47658,-0.17484 0.65446,0.2936c0.00323,0.00851 0.00625,0.01693 0.00905,0.02525z" fill="#ffffff" stroke="none" stroke-width="0.5" stroke-linecap="butt"/><path d="M247.05545,167.68943c-0.43251,-0.84968 -2.12535,-1.25956 -3.04313,-1.49242l-0.44488,0.03459c-0.28007,0.02177 -0.52506,-0.18374 -0.54722,-0.45902c-0.02215,-0.27528 0.18694,-0.51609 0.467,-0.53787v0v0l0.50711,-0.03942l0.00345,0.04292l0.07829,-0.0428c0.0438,0.01028 0.08802,0.02074 0.13262,0.03142c0.52772,-0.42163 2.08992,0.06605 2.67684,0.29821l0.23051,0.15962c0,0 0.38694,0.32458 0.05672,0.70491c-0.00351,0.00404 -0.00702,0.008 -0.01055,0.01188c0.30158,0.21887 0.56384,0.47338 0.76451,0.77164c0,0 0.26265,0.42819 -0.17298,0.68636c-0.43564,0.25816 -0.6983,-0.17002 -0.6983,-0.17002z" fill="#000000" stroke="none" stroke-width="0.5" stroke-linecap="butt"/></g><g stroke="#000000" stroke-width="1.25" stroke-linecap="butt"><g data-paper-data="{&quot;index&quot;:null}" fill="#000000"><path d="M224.62449,160.59635c-13.44923,-1.27423 -8.01739,-5.96824 -8.01739,-5.96824l16.87098,1.38278c0,0 3.78984,5.6658 -8.85358,4.58546z"/></g><g data-paper-data="{&quot;index&quot;:null}" fill="#ffffff"><path d="M224.62449,160.59635c-13.44923,-1.27423 -8.01739,-5.96824 -8.01739,-5.96824c0,0 11.41374,0.9355 14.26208,1.16896c0.00393,0.00032 -1.01549,1.20882 -1.11305,2.49273c-0.07991,1.05157 0.76214,2.2247 0.73733,2.22895c-1.38413,0.23731 -3.28277,0.2986 -5.869,0.07761z"/></g></g><g data-paper-data="{&quot;index&quot;:null}" stroke="#000000" stroke-width="2" stroke-linecap="butt"><path d="M258.43046,122.09627c0,0 -33.39229,-6.17737 -42.18073,-1.67783c-9.58772,4.90876 -7.23708,26.5311 -7.23708,26.5311c0,0 -12.01921,-28.16316 2.16234,-45.88685c5.19525,-6.49287 28.33555,-10.59793 40.04827,-2.65815c8.5591,5.80201 7.20722,23.69173 7.20722,23.69173z" fill="#901111"/><path d="M215.40625,124.11832c-2.44348,-1.23323 -3.87502,-1.77031 -3.79789,-3.11533c0.08492,-1.48066 1.90389,-2.29678 4.94925,-3.14469c3.15715,-0.87904 7.62981,-1.74772 12.70792,-0.86386c2.16364,0.3766 5.09932,1.7966 7.49749,1.93176c2.60279,0.14669 4.73998,-3.63355 7.12208,-3.00749c3.03609,0.79794 5.69613,2.90699 7.74607,4.01118c2.80613,1.51153 5.44113,-0.13699 7.00174,0.31632c1.06763,0.31013 1.57186,2.65996 1.52408,3.49303c-0.0514,0.89622 -0.96778,2.88091 -2.27841,2.95876c-2.08388,0.12377 -5.32096,-1.84312 -8.84754,-0.00511c-3.96145,2.06466 -8.59668,2.60612 -13.52973,2.32809c-1.85567,-0.10458 -3.59114,-1.4545 -5.32127,-1.6604c-1.58031,-0.18807 -3.05438,-1.19665 -4.50981,-1.20317c-1.91055,-0.00857 -3.74786,0.99186 -5.33881,0.6488c-1.94553,-0.41953 -3.57105,-2.00449 -4.92519,-2.68792z" data-paper-data="{&quot;index&quot;:null}" fill="#ffffff"/><path d="M202.73739,154.9476c-1.03733,-2.01667 -0.14656,-3.84683 0.76011,-5.87928c0.49953,-1.1198 0.40734,-2.73537 1.40333,-3.45573c1.60541,-1.16114 4.05014,-1.78868 5.64798,-1.16362c1.19262,0.46653 1.65401,1.81852 2.34162,3.15532c0.52383,1.01838 -0.1231,2.48659 -0.12012,3.61739c0.00617,2.34224 -0.15248,4.35007 -2.04333,5.71763c-1.29603,0.93737 -2.87698,2.58069 -4.23273,2.33787c-1.57711,-0.28247 -2.89173,-2.6476 -3.75687,-4.32953z" fill="#ffffff"/></g></g></g></svg>