<svg version="1.1" xmlns="http://www.w3.org/2000/svg" xmlns:xlink="http://www.w3.org/1999/xlink" width="189.26654" height="221.55319" viewBox="0,0,189.26654,221.55319"><g transform="translate(-205.36673,-69.22341)"><g data-paper-data="{&quot;isPaintingLayer&quot;:true}" fill-rule="nonzero" stroke-linejoin="miter" stroke-miterlimit="10" stroke-dasharray="" stroke-dashoffset="0" style="mix-blend-mode: normal"><path d="M205.36673,290.77659v-221.55318h189.26654v221.55319z" fill="none" stroke="none" stroke-width="NaN" stroke-linecap="butt"/><g data-paper-data="{&quot;index&quot;:null}"><g><g data-paper-data="{&quot;origRot&quot;:0}" stroke="#000000" stroke-width="3" stroke-linecap="round"><path d="M348.75729,215.97072c0.39028,2.41992 -8.54853,2.3748 -8.54853,2.3748c0,0 -23.65323,0.54094 -34.82394,0.84375c-4.70645,-0.56435 -11.99635,-38.85717 -8.71551,-43.68289c1.4625,-2.15116 10.86494,-5.91754 12.56524,-4.78559c3.23637,2.15456 10.75084,17.25858 10.75084,17.25858l-4.16255,0.89594l11.10972,-1.30225c0,0 12.80012,-2.64671 18.44786,-2.25868c3.13228,0.21521 3.37689,30.65634 3.37689,30.65634z" data-paper-data="{&quot;origPos&quot;:null}" fill="#582700"/><path d="M335.21076,186.94874l3.47931,29.85484" fill="none"/><path d="M330.8962,187.72068l3.76915,29.82232" data-paper-data="{&quot;origPos&quot;:null}" fill="none"/></g><path d="M338.58193,217.44282l-2.84366,0.33665l-3.75408,-30.51602l2.84366,-0.33664z" fill="#ffffff" stroke="none" stroke-width="0" stroke-linecap="butt"/><path d="M305.11066,219.37848l-4.68198,-10.10101l-4.0403,-23.67178l0.53208,-8.47291l3.13767,-4.10348l7.52694,-1.31547l1.50538,-0.2631l9.81384,15.55253l-2.96608,0.77231l0.35761,1.969l13.43171,-1.58565l4.656,29.9126l-27.81218,0.79774z" fill="#66c8ff" stroke="#000000" stroke-width="0.5" stroke-linecap="round"/></g><g fill="#fffc96" stroke="#000000" stroke-width="2" stroke-linecap="round"><path d="M323.3725,187.20014c0,0 3.49007,-3.62867 6.06908,-1.35396c4.1263,3.63944 -23.78179,29.16394 -28.29615,25.63703c-1.84445,-1.44101 0.23308,-4.4671 0.23308,-4.4671l1.85465,1.12256c0,0 6.26869,-3.56723 12.90855,-9.36712c6.54785,-5.71953 9.77329,-10.66303 9.77329,-10.66303z"/><path d="M314.39361,182.94879c0,0 0.03276,-4.51049 2.59065,-3.78701c5.36938,1.51868 2.14026,42.86975 -2.54233,40.26404c-2.83588,-1.57807 -1.50938,-5.43125 -1.50938,-5.43125l1.38632,0.78409c0,0 1.59209,-6.05236 2.16547,-15.4204c0.5734,-9.36805 -0.70425,-15.83317 -0.70425,-15.83317z" data-paper-data="{&quot;index&quot;:null}"/></g></g><g stroke="#000000" stroke-linecap="round"><path d="M282.50923,179.51174c0,0 -28.27969,7.89121 -29.62314,-10.04101c-0.49498,-6.60682 16.12507,-6.15842 16.12507,-6.15842z" data-paper-data="{&quot;origPos&quot;:null}" fill="#66c8ff" stroke-width="2"/><path d="M273.4894,168.41959c0,0 -16.32411,-0.7724 -16.15608,-1.3993c0.5328,-1.98766 12.55307,-2.25671 12.55307,-2.25671z" data-paper-data="{&quot;origPos&quot;:null}" fill="#0a0a0a" stroke-width="1"/></g><g data-paper-data="{&quot;origRot&quot;:0}" stroke="#000000" stroke-linecap="round"><path d="M300.11203,232.04015c0,0 -2.51779,-4.1166 -1.14518,-4.87063c4.05039,-2.225 7.1128,-5.84909 11.70256,-6.53172c1.90591,-0.28347 4.67703,3.03363 4.67703,3.03363l20.5294,26.27841c0,0 2.15587,2.68632 3.33908,4.27262c1.26507,1.69602 1.9383,4.93909 0.13108,6.06765c-6.63547,4.14378 -9.99077,7.9244 -14.79612,9.4692c-1.75066,0.5628 -3.64625,1.04733 -5.12315,-0.03298c-1.92923,-1.41114 -3.58686,-5.58747 -3.58686,-5.58747z" data-paper-data="{&quot;origPos&quot;:null}" fill="#ff0000" stroke-width="3"/><path d="M340.9746,257.09647c0,0 -3.8361,5.28974 -8.29372,7.88913c-3.42003,1.99434 -11.36095,5.43379 -11.36095,5.43379c0,0 -2.54365,-1.55015 -3.45518,-2.88015c-0.96027,-1.40108 -1.34116,-4.1179 -1.34116,-4.1179l20.01062,-12.59652z" data-paper-data="{&quot;origPos&quot;:null}" fill="#976e57" stroke-width="2"/><path d="M300.35046,232.27435c0,0 -2.51779,-4.1166 -1.14518,-4.87062c4.05038,-2.22499 7.1128,-5.8491 11.70257,-6.53169c1.90591,-0.28347 4.67702,3.03363 4.67702,3.03363l20.52939,26.27841c0,0 2.1559,2.68632 3.33911,4.2726c1.26507,1.69602 1.9383,4.93908 0.13108,6.06765c-6.63547,4.14378 -9.99077,7.92441 -14.79612,9.46921c-1.75066,0.5628 -3.64625,1.0473 -5.12313,-0.03299c-1.92923,-1.41114 -3.58688,-5.58746 -3.58688,-5.58746z" data-paper-data="{&quot;origPos&quot;:null}" fill="#4b4b4b" stroke-width="3"/></g><path d="M287.68231,263.94321c0,0 -0.25209,4.4749 -1.63854,6.40445c-1.06138,1.47715 -3.01659,1.59469 -4.85887,1.59365c-5.05679,-0.00287 -9.44389,-2.57301 -17.06374,-4.488c-2.0753,-0.52156 -2.46312,-3.80925 -1.79819,-5.807c0.62191,-1.86851 1.81969,-5.07916 1.81969,-5.07916l11.18484,-31.23685c0,0 1.58265,-3.99779 3.48395,-4.30957c4.57867,-0.75084 8.63781,1.75981 13.19259,2.63942c1.54355,0.29809 0.45502,4.97851 0.45502,4.97851c0,0 -1.20783,8.92704 -1.98091,14.64082c-1.09111,8.0643 -2.79583,20.66376 -2.79583,20.66376z" fill="#4b4b4b" stroke="#000000" stroke-width="3" stroke-linecap="round"/><path d="M300.04708,157.8805c0,0 -2.7736,0.44992 -6.18654,0.42912" fill="none" stroke="#000000" stroke-width="2.5" stroke-linecap="round"/><g><g><path d="M270.54484,186.9733c0,0 0.55001,-14.43887 2.72799,-15.19249c6.53391,-2.26084 21.94612,-2.79388 32.18423,-3.76517c1.58269,-0.15016 4.32017,13.1022 4.32017,13.1022l4.94552,30.11075c0,0 1.76686,14.76676 0.04028,14.93057c-15.36967,1.45812 -33.2976,4.01022 -40.23336,3.82861c-2.3119,-0.06053 -3.05073,-15.72336 -3.05073,-15.72336z" data-paper-data="{&quot;origPos&quot;:null}" fill="#66c8ff" stroke="#000000" stroke-width="3.5" stroke-linecap="round"/><path d="M290.88355,193.22965c-1.33714,0.12685 -1.58909,-2.33282 -1.58909,-2.33282c-0.52255,-5.10155 -1.21307,-11.84288 -1.7356,-16.94445c0,0 -0.25194,-2.45968 1.0852,-2.58654c1.33714,-0.12685 1.58908,2.33281 1.58908,2.33281c0.52255,5.10155 1.04509,10.2031 1.56765,15.30465l0.16796,1.63977c0,0 0.25194,2.4597 -1.08521,2.58655z" fill="#ffffff" stroke="none" stroke-width="0.5" stroke-linecap="butt"/><path d="M303.94749,198.31361c-1.33714,0.12685 -1.65365,-2.96318 -1.65365,-2.96318c-0.65647,-6.40899 -1.52397,-14.87801 -2.18042,-21.28698c0,0 -0.3165,-3.09004 1.02064,-3.2169c1.33714,-0.12685 1.65365,2.96319 1.65365,2.96319c0.65647,6.40899 1.31293,12.81798 1.96942,19.22697l0.211,2.06003c0,0 0.3165,3.09005 -1.02064,3.21691z" fill="#ffffff" stroke="none" stroke-width="0.5" stroke-linecap="butt"/></g><g fill="none" stroke="#b9b9b9" stroke-width="3"><path d="M303.70574,172.87639c-0.99421,-1.26164 -0.17216,-2.55727 0.97049,-3.88178c1.14266,-1.32449 2.37561,-1.8128 3.16742,-0.91468c1.67886,1.90429 0.23589,3.01516 -0.65884,4.05228c-1.14265,1.3245 -2.07497,2.52596 -3.47906,0.74421z" stroke-linecap="butt"/><path d="M304.66483,172.1956l-2.42599,2.74563" stroke-linecap="round"/><path d="M298.63123,175.91183c1.14266,-1.32449 2.37562,-1.8128 3.16743,-0.91469c1.67886,1.90429 0.23589,3.01516 -0.65884,4.05229c-1.14263,1.3245 -2.07497,2.52595 -3.47907,0.7442c-0.99421,-1.26164 -0.17218,-2.55727 0.97047,-3.8818z" stroke-linecap="butt"/><path d="M296.19385,181.85843l2.42597,-2.74564" stroke-linecap="round"/><path d="M290.32784,181.96338c0.24916,-1.65615 1.64998,-1.63466 3.26976,-1.33023c1.61978,0.30444 2.72119,1.17513 2.59603,2.43266c-0.26537,2.66628 -1.92497,1.95807 -3.1933,1.7197c-1.61977,-0.30443 -3.02436,-0.48322 -2.67249,-2.82212z" stroke-linecap="butt"/><path d="M287.99799,181.78259l3.39334,0.68465" stroke-linecap="round"/><path d="M282.43145,178.34365c0.79108,-1.3897 2.08696,-0.72677 3.491,0.29371c1.40404,1.02047 2.13462,2.31717 1.59354,3.40178c-1.14727,2.29967 -2.45197,0.89418 -3.55141,0.09512c-1.40404,-1.02048 -2.65033,-1.82802 -1.53313,-3.79061z" stroke-linecap="butt"/><path d="M283.25065,179.28976l-2.92554,-2.18041" stroke-linecap="round"/><path d="M275.07843,172.92627c0.79107,-1.38968 2.08696,-0.72677 3.49101,0.29371c1.40405,1.02048 2.13462,2.31718 1.59354,3.40179c-1.14728,2.29966 -2.45197,0.89418 -3.55141,0.09512c-1.40404,-1.02047 -2.65031,-1.82801 -1.53312,-3.79062z" stroke-linecap="butt"/><path d="M272.97211,171.69193l2.92556,2.18041" stroke-linecap="round"/></g></g><path d="M305.22236,172.96026c-12.29022,-0.86059 -24.20574,-1.73113 -28.98999,-3.1213c-4.37249,-1.27052 -5.48422,-4.12932 -5.48422,-4.12932c0,0 -1.58304,-2.56892 -1.54342,-4.10344c0.11889,-4.60355 1.0859,-17.71965 2.98625,-28.94283c0.06343,-0.37458 0.1129,-0.58283 0.19897,-0.95303c0.25816,-1.11059 1.45324,-5.40598 1.45324,-5.40598c0,0 3.37863,-1.3941 5.17843,-1.7248c5.39936,-0.99206 18.69995,1.57021 32.80229,3.12045c1.2782,0.14052 3.3348,1.99257 3.3348,1.99257c0,0 1.30461,3.25289 1.09041,5.22527c-1.38479,12.75167 -2.96477,26.85551 -3.54152,30.06267c-0.19223,1.06906 -2.40794,5.09468 -2.40794,5.09468z" fill="#582700" stroke="#000000" stroke-width="2.5" stroke-linecap="round"/><path d="M269.42224,126.75955c-0.5872,-1.10936 0.54366,-1.6854 0.54366,-1.6854l1.39395,-0.66382c0.12329,-0.02722 0.2464,-0.05368 0.36941,-0.0794c-0.58127,-5.8449 1.1064,-12.72181 1.52717,-18.42536c0.10912,-1.47914 0.04488,-5.51392 0.87367,-6.72627c1.38783,-2.03012 3.07995,-1.30488 5.00737,-1.16289c3.27948,0.2416 6.52948,0.52052 9.81021,0.28855c8.13171,-0.5656 16.12751,-0.2324 24.26029,-0.3097c2.56637,-0.02438 5.06433,0.06927 7.61123,0.4743c0.69688,0.11082 1.61404,-0.07315 2.06558,0.45924c1.59922,1.8855 0.70301,3.78322 0.22791,5.71562c-0.94767,3.85453 -2.86418,7.25094 -3.29719,11.2381c-0.35205,3.04818 -1.07676,6.14879 -1.71029,9.15068c-0.21864,1.03592 -0.02267,2.9989 -1.16246,3.70408c-2.33709,1.44593 -7.98548,-0.18893 -10.55971,-0.46544c-7.84931,-0.84317 -15.68748,-1.84565 -23.57379,-2.24877c-2.82662,-0.04961 -5.52783,-0.01585 -8.26367,0.35803c-0.05565,0.36953 -0.27306,0.83249 -0.98425,0.98316c-0.7716,0.16346 -1.16843,-0.24326 -1.35868,-0.57644c-0.09378,0.0199 -0.18765,0.0403 -0.28162,0.06117l-0.78067,0.44389c0,0 -1.13088,0.57603 -1.71809,-0.53333z" fill="#000000" stroke="none" stroke-width="0.5" stroke-linecap="butt"/><path d="M287.79616,146.5333c5.0016,-2.01269 9.11827,0.57647 10.29245,5.49848c1.34665,5.64497 -2.8453,8.39262 -2.8453,8.39262c0,0 -2.48889,-1.31528 -5.74719,-2.00153c-4.0571,-0.85449 -6.35447,-0.60659 -6.35447,-0.60659c0,0 -2.13071,-8.55256 4.6545,-11.28299z" fill="#ffffff" stroke="#0a0a0a" stroke-width="2" stroke-linecap="butt"/><path d="M314.0265,149.77641c5.73139,4.4887 1.23953,12.11094 1.23953,12.11094c0,0 -2.13411,-0.87039 -6.27264,-1.16719c-3.32369,-0.23837 -6.08884,0.33886 -6.08884,0.33886c0,0 -3.23741,-3.79128 -0.32992,-8.83866c2.53512,-4.40094 7.22706,-5.75272 11.45185,-2.44395z" data-paper-data="{&quot;index&quot;:null}" fill="#ffffff" stroke="#0a0a0a" stroke-width="2" stroke-linecap="butt"/><g><g stroke="#000000" stroke-width="3" stroke-linecap="round"><path d="M249.77079,199.82114l14.93183,-26.29555c0,0 2.91161,-4.95002 4.08681,-4.93153c3.52562,0.05542 9.16783,3.54711 15.48442,5.89276c1.04994,0.38989 -0.54509,6.10406 -0.54509,6.10406c0,0 -2.91397,8.88185 -4.77906,14.56667c-2.84035,8.65744 -7.27803,22.18361 -7.27803,22.18361c0,0 -2.03949,6.99443 -3.91361,6.12745c0,0 -10.17401,0.21111 -24.10579,-9.75862c0.69673,-4.55669 6.11852,-13.88883 6.11852,-13.88883z" data-paper-data="{&quot;origPos&quot;:null}" fill="#582700"/><path d="M249.07825,201.81041l24.03631,10.2348l-1.33569,3.13957l-24.0997,-9.98375z" data-paper-data="{&quot;origPos&quot;:null}" fill="none"/></g><path d="M249.94474,201.6704l18.56336,-32.68611l14.79679,6.27205l0.93093,1.1188l-10.73764,35.33081z" fill="#66c8ff" stroke="#000000" stroke-width="1" stroke-linecap="round"/><path d="M248.05375,204.83885l0.92717,-2.14634l23.93516,9.94951l-0.92715,2.14635z" fill="#ffffff" stroke="none" stroke-width="0" stroke-linecap="butt"/></g><g data-paper-data="{&quot;index&quot;:null}" stroke="#000000" stroke-width="1" stroke-linecap="butt"><g data-paper-data="{&quot;index&quot;:null}" fill="#000000"><path d="M280.41531,164.70806c-9.67882,-2.04028 -5.36071,-5.03876 -5.36071,-5.03876l12.15825,2.40113c0,0 2.31065,4.46945 -6.79751,2.63767z"/></g><g data-paper-data="{&quot;index&quot;:null}" fill="#ffffff"><path d="M280.41532,164.7081c-9.67882,-2.04028 -5.36072,-5.03876 -5.36072,-5.03876c0,0 8.22546,1.62442 10.27814,2.02982c0.0028,0.00058 -0.8333,0.80371 -1.00506,1.73792c-0.14069,0.76513 0.37944,1.69527 0.36107,1.69635c-1.02501,0.06043 -2.41033,-0.05062 -4.27342,-0.4253z"/></g></g><path d="M265.03928,179.45952l0.2039,0.01621c0.53034,2.08959 0.18618,3.80474 0.47121,5.89195c0.19589,1.43448 6.07005,1.41607 6.14487,2.94755c0.04645,0.95091 -5.59663,2.71183 -5.21277,3.58305c0.96579,2.19193 6.84959,0.54454 7.62774,3.23104c0.32724,1.12977 -4.41963,3.87982 -4.20251,5.03582c0.19855,1.0571 6.71662,3.80733 7.34127,4.70151c2.38565,3.41517 -1.72292,5.24561 -2.97114,8.89765c-1.26404,3.69829 -2.1,9.08042 -6.69912,10.10887c-2.11215,0.47231 -4.40161,-0.69302 -6.33307,-1.35317c-4.09881,-1.40094 -8.73689,-3.22338 -12.52382,-5.37218c-1.61996,-0.91921 -4.36136,-2.93356 -4.83094,-4.85744c-0.2788,-1.14221 0.56364,-3.24674 0.94216,-4.3628c2.17368,-6.32211 6.16795,-13.11934 10.11461,-18.51039c2.12082,-2.89698 4.26974,-5.12879 5.74717,-8.19184c-0.51832,-1.23235 0.67427,-2.04468 0.67427,-2.04468l0.15895,0.01264c0.14226,-0.32864 0.75955,-1.49527 2.18875,-1.00677c0.79949,0.27325 1.08106,0.8006 1.15844,1.27296z" data-paper-data="{&quot;index&quot;:null}" fill="#000000" stroke="none" stroke-width="0.5" stroke-linecap="butt"/><path d="M303.98118,257.42955c0.92856,0.12776 -2.98338,2.60662 -2.32689,3.27563c1.84695,1.88216 2.81982,2.91356 2.22757,3.84197c-0.2787,0.43689 -1.94206,0.52659 -2.11753,1.26719c-0.31563,1.33217 0.68228,2.85327 0.12813,4.10516c-1.73556,3.92091 -6.53967,4.17756 -10.05184,3.74421l-1.83294,-1.08649c0,0 -0.01415,-0.01061 -0.03853,-0.03112c-3.16788,1.35269 -8.08616,-0.37246 -11.41147,-0.36888c-4.81052,0 -9.36594,-0.64811 -14.12406,-1.0044c-5.34433,-0.40019 -12.01696,0.92386 -17.11048,-1.40721c-1.28269,-0.58703 -2.16641,0.64498 -3.43516,0.02841c-1.11563,-0.54216 -2.56648,0.29787 -3.69052,-0.22663c-0.40143,-0.18731 -0.89347,-0.26703 -1.39044,-0.34503c-0.67943,-0.10664 -1.36807,-0.21007 -1.84693,-0.58084c0.15286,-1.17627 -4.15394,0.23697 -3.54142,-0.7788c0.69137,-1.14653 5.71896,-5.96233 6.65157,-6.92293c0.80956,-0.83387 3.02098,-3.15353 3.51686,-4.15894c0.82635,-1.67541 1.74839,-3.17237 4.53663,-3.10238c0.55491,0.01393 1.11428,0.15637 1.67731,0.36041c0.69382,0.25143 4.39321,-1.4036 5.09671,-1.09029c1.12982,0.50316 -0.72974,2.92466 0.41525,2.74582c1.28362,-0.20048 2.41399,-1.02233 3.69459,-1.24127c3.42955,-0.58635 -2.79022,0.09857 0.71561,0.3538c0.01519,-0.35425 1.25908,-0.48867 1.22335,-0.82415l0.16667,0.19444c0,0 -2.55556,0.10558 -1.38449,-0.22999c0.56342,-0.5226 4.90151,-0.63712 5.06673,-1.35157c0.18126,-0.78383 0.18205,-2.90465 0.69554,-3.524c0.15015,-0.18112 -1.18162,-1.90027 1.02427,-1.99955c4.53516,-0.20411 3.00957,-1.92039 3.56975,-1.89139c0.48929,0.02533 3.49556,1.92184 4.30598,1.91316c1.329,-0.01424 6.86961,-1.27432 8.19402,-1.16316c1.71026,0.14354 0.80913,2.47095 2.70978,2.95225c0.2557,0.06475 -0.46302,-0.9365 0.93584,-1.52439c0.51889,-0.21806 -0.10658,-1.52299 -0.04181,-1.48892c1.61226,0.84806 2.74045,3.70805 3.71125,6.73586c0.21053,0.6566 3.99698,1.07109 4.19603,1.72467c0.48822,1.60301 -2.63139,3.39038 -2.14299,4.58461c0.3268,0.79908 2.39175,-0.60769 2.42095,0.25513c-0.46868,1.67955 2.71599,-0.66591 1.96844,0.60195c1.44139,-0.65381 2.23899,-3.12665 4.3053,-2.84236z" fill="#000000" stroke="none" stroke-width="0.5" stroke-linecap="butt"/><g fill="#000000" stroke="none" stroke-width="0" stroke-linecap="butt"><path d="M237.27345,244.02346c-0.30694,0.49967 -1.39828,0.38717 -2.43757,-0.25126c-1.0393,-0.63843 -1.633,-1.56104 -1.32606,-2.0607c0.30694,-0.49967 1.39828,-0.38717 2.43757,0.25126c1.0393,0.63843 1.633,1.56104 1.32606,2.0607z"/><path d="M231.65849,243.91386c-0.19644,0.31978 -0.95517,0.21076 -1.69467,-0.24351c-0.7395,-0.45427 -1.17974,-1.08176 -0.9833,-1.40154c0.19644,-0.31978 0.95517,-0.21076 1.69467,0.24351c0.7395,0.45427 1.17974,1.08176 0.9833,1.40154z"/></g><g fill="#000000" stroke="none" stroke-width="0" stroke-linecap="butt"><path d="M225.68467,193.27358c-0.24846,0.40448 -1.13189,0.31341 -1.9732,-0.20339c-0.8413,-0.5168 -1.3219,-1.26365 -1.07344,-1.66812c0.24846,-0.40448 1.13189,-0.31341 1.9732,0.20339c0.8413,0.5168 1.3219,1.26365 1.07344,1.66812z"/><path d="M221.1394,193.18486c-0.15902,0.25886 -0.7732,0.17061 -1.37182,-0.19712c-0.59862,-0.36773 -0.95499,-0.87567 -0.79598,-1.13454c0.15902,-0.25886 0.7732,-0.17061 1.37182,0.19712c0.59862,0.36773 0.95499,0.87567 0.79598,1.13454z"/></g></g></g></svg>