<svg version="1.1" xmlns="http://www.w3.org/2000/svg" xmlns:xlink="http://www.w3.org/1999/xlink" width="28.40408" height="43.21855" viewBox="0,0,28.40408,43.21855"><g transform="translate(-225.75072,-152.13455)"><g data-paper-data="{&quot;isPaintingLayer&quot;:true}" fill-rule="nonzero" stroke-width="1.25" stroke-linejoin="miter" stroke-miterlimit="10" stroke-dasharray="" stroke-dashoffset="0" style="mix-blend-mode: normal"><path d="M248.33866,194.72856c-6.7905,0.25687 -13.3762,0.48565 -16.08413,-0.00405c-2.47487,-0.44755 -3.25929,-1.97849 -3.25929,-1.97849c0,0 -1.02509,-1.34064 -1.09726,-2.2006c-0.21653,-2.57988 -0.48906,-9.96801 -0.13405,-16.35428c0.01184,-0.21314 0.02623,-0.3325 0.05076,-0.54455c0.07356,-0.63616 0.46588,-3.10843 0.46588,-3.10843c0,0 1.76695,-0.98194 2.7334,-1.27478c2.89937,-0.87856 10.34792,-0.24507 18.17409,-0.2253c0.70934,0.00179 1.95016,0.91338 1.95016,0.91338c0,0 0.91429,1.7396 0.91756,2.85474c0.02119,7.20954 0.01808,15.18647 -0.10183,17.01345c-0.03996,0.60899 -1.00832,2.99177 -1.00832,2.99177z" fill="#582700" stroke="#000000" stroke-linecap="round"/><path d="M237.93641,183.3379c-0.00568,-1.93675 0.2223,-3.50749 0.50923,-3.50833c0.28692,-0.00084 0.52415,1.56853 0.52984,3.50527c0.00568,1.93675 -0.2223,3.5075 -0.50923,3.50833c-0.28692,0.00084 -0.52415,-1.56852 -0.52984,-3.50527z" fill="none" stroke="#000000" stroke-linecap="butt"/><path d="M242.18385,183.51564c-0.0058,-1.97262 0.16397,-3.57226 0.37915,-3.57289c0.2152,-0.00063 0.39434,1.59799 0.40014,3.57061c0.0058,1.97262 -0.16395,3.57225 -0.37915,3.57289c-0.2152,0.00063 -0.39435,-1.59798 -0.40015,-3.57058z" fill="none" stroke="#000000" stroke-linecap="butt"/><path d="M242.20464,188.95425c0,0 -1.54368,0.14443 -3.42041,0" fill="none" stroke="#000000" stroke-linecap="round"/><path d="M225.88472,171.05794c-0.38981,-0.58473 0.19491,-0.97454 0.19491,-0.97454l0.72358,-0.45467c0.06592,-0.02262 0.1318,-0.04479 0.19765,-0.06654c-0.67635,-3.23159 -0.17196,-7.17613 -0.29033,-10.38888c-0.0307,-0.83318 -0.31283,-3.08421 0.06735,-3.8115c0.63661,-1.21785 1.60865,-0.91415 2.67401,-0.9505c1.81268,-0.06185 3.6115,-0.10107 5.39589,-0.42766c4.42341,-0.80426 8.82733,-1.09804 13.28122,-1.62947c1.40545,-0.16769 2.78064,-0.26531 4.20172,-0.19185c0.38884,0.0201 0.88038,-0.13777 1.16052,0.13264c0.99212,0.95773 0.61693,2.0721 0.47473,3.18056c-0.28366,2.21104 -1.12651,4.22421 -1.11988,6.47847c-0.00646,1.72465 -0.21403,3.50096 -0.37764,5.21663c-0.05646,0.59207 0.1711,1.67733 -0.41061,2.13985c-1.19277,0.94838 -4.38943,0.3738 -5.81761,0.3738c-4.35482,0 -8.71326,-0.08971 -13.06144,0.15845c-1.55267,0.14198 -3.03148,0.32299 -4.50845,0.69617c-0.0079,0.20986 -0.09876,0.48164 -0.47943,0.60853c-0.41302,0.13768 -0.65545,-0.06581 -0.78015,-0.24059c-0.0502,0.01675 -0.10041,0.03378 -0.15064,0.05109l-0.40082,0.29493c0,0 -0.58473,0.38981 -0.97455,-0.19491z" fill="#000000" stroke="none" stroke-linecap="butt"/></g></g></svg>