<svg version="1.1" xmlns="http://www.w3.org/2000/svg" xmlns:xlink="http://www.w3.org/1999/xlink" width="137.73674" height="137.15643" viewBox="0,0,137.73674,137.15643"><g transform="translate(-171.11322,-111.2606)"><g data-paper-data="{&quot;isPaintingLayer&quot;:true}" fill-rule="nonzero" stroke-linecap="round" stroke-linejoin="miter" stroke-miterlimit="10" stroke-dasharray="" stroke-dashoffset="0" style="mix-blend-mode: normal"><path d="M269.33113,173.79274l-2.65162,69.44647c0,0 -43.55525,5.58253 -49.99468,0.62682c-9.36829,-7.20977 -0.39534,-65.34216 -0.39534,-65.34216" data-paper-data="{&quot;index&quot;:null}" fill="#ffcde0" stroke="#561b25" stroke-width="1.5"/><path d="M218.66362,194.03367c0,0 -7.98532,6.22562 -20.57092,14.91131c-0.75906,0.52384 -7.13321,-4.62778 -10.3781,-8.69516c-4.42454,-5.54602 -13.74517,-21.54264 -13.74517,-21.54264c0,0 34.14467,-65.12878 64.1321,-64.9462c37.25192,0.22682 67.90665,68.39066 67.90665,68.39066c0,0 -10.142,15.4889 -14.84968,20.79669c-3.45254,3.89266 -10.08662,8.70497 -10.81733,8.14223c-12.11563,-9.33009 -23.82022,-17.67849 -23.82022,-17.67849" data-paper-data="{&quot;index&quot;:null}" fill="#ffcde0" stroke="#561b25" stroke-width="1.5"/><path d="M269.33113,173.79274l-2.65162,69.44647c0,0 -43.55525,5.58253 -49.99468,0.62682c-9.36829,-7.20977 -0.39534,-65.34216 -0.39534,-65.34216" data-paper-data="{&quot;index&quot;:null}" fill="#39fa4c" stroke="#26a633" stroke-width="5"/><path d="M218.66362,194.03367c0,0 -7.98532,6.22562 -20.57092,14.91131c-0.75906,0.52384 -7.13321,-4.62778 -10.3781,-8.69516c-4.42454,-5.54602 -13.74517,-21.54264 -13.74517,-21.54264c0,0 34.14467,-65.12878 64.1321,-64.9462c37.25192,0.22682 67.90665,68.39066 67.90665,68.39066c0,0 -10.142,15.4889 -14.84968,20.79669c-3.45254,3.89266 -10.08662,8.70497 -10.81733,8.14223c-12.11563,-9.33009 -23.82022,-17.67849 -23.82022,-17.67849" data-paper-data="{&quot;index&quot;:null}" fill="#39fa4c" stroke="#26a633" stroke-width="5"/></g></g></svg>