<svg version="1.1" xmlns="http://www.w3.org/2000/svg" xmlns:xlink="http://www.w3.org/1999/xlink" width="95.86394" height="95.86394" viewBox="0,0,95.86394,95.86394"><g transform="translate(-192.06803,-132.06803)"><g data-paper-data="{&quot;isPaintingLayer&quot;:true}" fill-rule="nonzero" stroke-linejoin="miter" stroke-miterlimit="10" stroke-dasharray="" stroke-dashoffset="0" style="mix-blend-mode: normal"><g><path d="M233.53854,181.41568c0,0 3.63098,-6.85512 5.81873,-5.93667c3.70059,1.55358 3.87189,6.67981 2.15823,10.02712c-2.3662,4.62193 -7.80443,7.47498 -7.80443,7.47498c0,0 -1.64278,-0.04082 -2.74497,-0.38829c-0.31446,-0.09913 -1.56026,-0.75736 -2.39165,-1.77344c-1.48753,-1.81798 -2.74807,-4.73539 -2.79534,-7.31752c-0.02524,-1.37883 1.84136,-1.63311 2.08115,-1.65147c2.3402,-0.17916 5.67828,-0.4347 5.67828,-0.4347z" fill="#ff292e" stroke="#000000" stroke-width="1" stroke-linecap="round"/><path d="M227.94033,185.15368l4.486,1.06286l-1.85151,3.58077l0.52185,4.9825l-3.20304,-0.30348l-2.14059,2.65458c0,0 -2.29522,-3.17741 -3.45153,-4.77816c-1.16803,-1.61696 -1.456,-6.69165 -0.25928,-7.74376c1.4639,-1.28699 4.88192,-4.29197 4.88192,-4.29197z" fill="#feecf7" stroke="#000000" stroke-width="1" stroke-linecap="round"/><path d="M215.16749,189.34911c-0.1382,-3.29355 2.00567,-5.3075 5.05781,-5.43557c3.05214,-0.12807 5.48209,1.69396 5.62029,4.98751c0.1382,3.29355 -1.75327,5.35947 -4.80541,5.48754c-3.05214,0.12807 -5.73449,-1.74592 -5.87269,-5.03947z" fill="#f89688" stroke="#000000" stroke-width="1" stroke-linecap="butt"/><path d="M205.91377,186.06454c-0.00243,0.00017 -0.00371,0.00023 -0.00371,0.00023l-0.55032,-0.16163c-0.89485,-1.02389 -0.53684,-2.33479 0.1107,-3.45328c1.73154,-1.55299 5.8882,-6.10871 8.30314,-3.08161c1.14169,1.4311 1.12409,3.43535 1.63721,5.10932c0.3231,6.65105 -5.96549,3.49734 -9.49701,1.58697z" fill="#323344" stroke="#000000" stroke-width="1" stroke-linecap="butt"/><path d="M212.5936,181.14339c-0.65248,-0.29044 -0.42606,-1.00506 -0.42606,-1.00506c0.60691,-1.91084 3.68614,-5.94417 6.01754,-4.95343c2.39096,1.01606 1.1304,3.42372 2.5407,4.92476c0.66442,0.70718 2.5224,0.64556 3.42317,0.93132c0.42251,1.03463 0.61947,1.21016 0.63828,2.27631c0.03321,1.88229 -1.37342,3.08427 -3.28242,2.74091c-3.05769,-0.54996 -4.93,-3.79073 -7.96465,-4.43751l-0.31793,-0.04781c0,0 -0.44178,-0.06924 -0.62862,-0.4295z" fill="#fcdfbd" stroke="none" stroke-width="0.5" stroke-linecap="butt"/><path d="M224.14896,181.04098c0.42251,1.03463 0.61947,1.21016 0.63828,2.27632c0.0332,1.88229 -1.37342,3.08427 -3.28242,2.74091c-2.36146,-0.42474 -4.01591,-2.45442 -6.0448,-3.65464c0.7566,-0.14865 1.45075,-0.28169 1.97718,-0.30308c0.57486,-0.02336 1.03386,0.20607 1.47013,0.49619c0.47124,0.59532 1.17911,0.99141 1.9746,1.05127c0.32027,0.04502 0.67639,0.02059 1.086,-0.10964c0.11524,-0.03664 0.23126,-0.09172 0.34612,-0.16258c0.90427,-0.44033 1.52889,-1.35347 1.56643,-2.40506c0.09636,0.02112 0.1864,0.04427 0.26849,0.07033z" fill="#f89688" stroke="none" stroke-width="0.5" stroke-linecap="butt"/><path d="M212.5936,181.14339c-0.65248,-0.29044 -0.42606,-1.00506 -0.42606,-1.00506c0.60691,-1.91084 3.68614,-5.94417 6.01753,-4.95343c2.39095,1.01606 1.1304,3.42371 2.5407,4.92475c0.66442,0.70717 2.52239,0.64556 3.42318,0.93133c0.42251,1.03463 0.61947,1.21016 0.63828,2.27632c0.0332,1.88229 -1.37342,3.08427 -3.28242,2.74091c-3.05768,-0.54996 -4.93,-3.79073 -7.96465,-4.43751l-0.31793,-0.04783c0,0 -0.44178,-0.06924 -0.62862,-0.42949z" fill="none" stroke="#000000" stroke-width="1" stroke-linecap="butt"/><path d="M213.31628,178.94753c0.02337,0.55703 -0.53366,0.5804 -0.53366,0.5804l-0.08569,0.0036c-3.4543,0.14495 -5.99591,2.60471 -6.22823,6.11771c0,0 -0.01209,0.17561 -0.12136,0.32269l0.07205,0.26987c0,0 -0.36618,0.39825 -0.7694,0.04944c-0.07267,-0.00729 -0.14535,-0.01458 -0.21802,-0.02187c0,0 -0.31385,-0.03147 -0.44572,-0.28313c-0.30799,-0.12396 -0.32354,-0.49454 -0.32354,-0.49454l-0.0022,-0.15496c0.41633,-5.03805 2.90777,-7.22112 7.79672,-7.42626c0,0 0.55703,-0.02337 0.5804,0.53366c0.00054,0.01282 0.00077,0.02536 0.00071,0.03761c0.13514,0.06734 0.26685,0.20098 0.27796,0.46579z" fill="#455d83" stroke="none" stroke-width="0.5" stroke-linecap="butt"/><path d="M206.55048,184.93022c-0.48981,-0.26063 -1.03535,-0.40706 -1.56343,-0.40228c-0.07126,-0.0398 -0.14631,-0.07351 -0.22443,-0.10044c0.23557,-1.63198 0.72533,-2.92423 1.4829,-3.91383c0.44557,0.59467 0.87559,1.20706 1.30554,1.81173c-0.49688,0.75174 -0.84178,1.63029 -1.00058,2.60482z" fill="#85afb1" stroke="none" stroke-width="0.5" stroke-linecap="butt"/><path d="M208.18092,178.89568c0.34954,0.59827 0.83113,1.19035 1.25837,1.60053c-0.42707,0.26305 -0.81721,0.57518 -1.16448,0.93103c-0.41543,-0.58134 -0.8305,-1.16616 -1.25999,-1.73648c0.34942,-0.30617 0.73788,-0.57052 1.16611,-0.79508z" fill="#85afb1" stroke="none" stroke-width="0.5" stroke-linecap="butt"/><path d="M213.31628,178.94754c0.02337,0.55703 -0.53366,0.5804 -0.53366,0.5804l-0.08569,0.0036c-3.4543,0.14495 -5.99591,2.60471 -6.22824,6.11771c0,0 -0.01209,0.17561 -0.12136,0.32269l0.07204,0.26988c0,0 -0.36617,0.39825 -0.7694,0.04944c-0.07267,-0.00729 -0.14535,-0.01458 -0.21802,-0.02187c0,0 -0.31385,-0.03148 -0.44572,-0.28313c-0.308,-0.12395 -0.32355,-0.49454 -0.32355,-0.49454l-0.0022,-0.15496c0.41633,-5.03805 2.90776,-7.22111 7.79672,-7.42626c0,0 0.55703,-0.02337 0.5804,0.53366c0.00054,0.01281 0.00077,0.02536 0.00071,0.03762c0.13514,0.06734 0.26685,0.20098 0.27796,0.46579z" fill="none" stroke="#000000" stroke-width="1" stroke-linecap="butt"/><path d="M222.5189,188.47477c0,0 3.14854,-0.07727 3.71122,1.68604c0.45147,1.41479 -0.77325,2.54262 -1.43479,3.65599c-1.56579,2.63518 -3.90285,7.06511 -7.44017,4.66659c-0.74247,-0.60999 -1.30096,-1.25309 -1.9199,-1.98349l-0.08414,-0.07579c-1.06461,0.57291 -2.12807,0.6627 -2.78487,0.08268c-0.69535,-0.61406 -1.34068,-1.92584 -1.95684,-2.83436c-1.46837,0.28861 -3.0699,0.60097 -4.28759,-0.27299c-1.17108,-0.84049 -0.94601,-1.92561 -0.998,-3.16447c-0.14561,-3.47009 1.87848,-6.38456 4.95073,-7.94257c1.50935,-0.97921 3.05331,-2.49232 4.96924,-2.68248c1.34746,-0.13373 2.2038,0.62551 2.78461,1.54008c0.67011,1.05521 0.92627,2.3685 0.37776,3.59186c1.24623,0.15935 2.47897,0.82402 3.33522,1.68458c0.83846,0.84269 0.51891,1.25833 0.77751,2.04832z" fill="#fde0be" stroke="none" stroke-width="0.5" stroke-linecap="butt"/><path d="M226.23012,190.16082c0.45147,1.41481 -0.77324,2.54262 -1.43479,3.65598c-1.5658,2.63518 -3.90285,7.06512 -7.44017,4.6666c-0.74247,-0.60999 -1.30096,-1.25309 -1.91989,-1.98349l-0.08414,-0.07579c-1.06461,0.57291 -2.12807,0.6627 -2.78487,0.08268c-0.69535,-0.61406 -1.34067,-1.92585 -1.95683,-2.83437c-1.46837,0.28861 -3.06989,0.60097 -4.28758,-0.27299c-1.17108,-0.8405 -0.94601,-1.92561 -0.998,-3.16447c-0.04871,-1.16088 0.1454,-2.25957 0.54035,-3.2661c0.07676,0.18219 0.12823,0.36342 0.12313,0.55243l0.00652,0.0066c-0.0401,1.15078 0.36623,2.0489 1.04079,2.62094c0.52997,0.51359 1.26161,0.81703 2.05716,0.78364c0.28786,-0.01208 0.56368,-0.0674 0.82147,-0.15943c0.28014,-0.05696 0.56582,-0.14304 0.85359,-0.25961c1.25148,-0.50699 2.97768,-1.59909 4.59072,-2.97164c-0.29206,0.90483 -0.52688,1.80246 -0.67933,2.53267c-0.13243,0.345 -0.19803,0.72213 -0.18155,1.11484c0.00982,0.23393 0.04819,0.45991 0.11162,0.67473c0.06665,1.58835 1.32621,2.08543 2.56933,1.99421c0.07307,0.00265 0.14679,0.00248 0.22108,-0.00064c0.6128,-0.02571 1.17108,-0.2474 1.61693,-0.60209c0.14674,-0.10042 0.27349,-0.20994 0.37419,-0.32604c0.11356,-0.13094 0.23312,-0.27713 0.35696,-0.43605c0.21195,0.11335 -0.81914,2.18844 -0.58564,2.24532c0.6909,0.16833 2.71407,-1.92234 3.45178,-2.44328c0.59108,-0.4174 0.95846,-0.88268 1.15156,-1.36123c0.27663,-0.45444 0.42644,-0.9929 0.40246,-1.56434c-0.01085,-0.2585 -0.05657,-0.5073 -0.13243,-0.74206c0.89131,0.18854 1.90005,0.60694 2.19557,1.53301z" fill="#f89688" stroke="none" stroke-width="0.5" stroke-linecap="butt"/><path d="M222.5189,188.47477c0,0 3.14854,-0.07727 3.71122,1.68604c0.45147,1.41481 -0.77324,2.54262 -1.43479,3.65598c-1.5658,2.63518 -3.90285,7.06512 -7.44017,4.6666c-0.74247,-0.60999 -1.30096,-1.25309 -1.91989,-1.98349l-0.08414,-0.07579c-1.06461,0.57291 -2.12807,0.6627 -2.78487,0.08268c-0.69535,-0.61406 -1.34067,-1.92585 -1.95683,-2.83437c-1.46837,0.28861 -3.06989,0.60097 -4.28758,-0.27299c-1.17108,-0.8405 -0.94601,-1.92561 -0.998,-3.16447c-0.14561,-3.47009 1.87847,-6.38456 4.95071,-7.94257c1.50935,-0.97921 3.05331,-2.49232 4.96925,-2.68248c1.34746,-0.13373 2.2038,0.62551 2.78459,1.54008c0.67011,1.05521 0.92627,2.3685 0.37776,3.59186c1.24624,0.15935 2.47897,0.82402 3.33522,1.68459c0.83847,0.84269 0.51891,1.25833 0.77751,2.04832z" fill="none" stroke="#000000" stroke-width="1" stroke-linecap="butt"/><path d="M213.53663,188.6999l5.12987,-3.63773" fill="none" stroke="#000000" stroke-width="1" stroke-linecap="round"/><path d="M218.82962,192.49549l3.41229,-3.78887" fill="none" stroke="#000000" stroke-width="1" stroke-linecap="round"/><path d="M197.8671,178.00761c-0.19959,-4.75658 3.05171,-9.09918 7.8083,-9.29877c2.54112,-0.10663 4.06404,0.94427 5.59715,2.56496c0.51652,0.54603 1.31962,1.61608 1.78522,2.76398c0.73926,1.82259 0.41164,3.67878 0.30561,3.96723c-0.08443,0.22969 -3.04142,-1.34636 -5.87335,1.08009c-2.8886,2.47502 -3.32716,6.77099 -3.32716,6.77099c0,0 -2.20628,-0.31291 -3.66482,-1.54519c-1.62528,-1.37316 -2.52575,-3.7964 -2.63094,-6.30329z" fill="#465e85" stroke="#000000" stroke-width="0" stroke-linecap="butt"/><path d="M197.8671,178.00761c-0.02506,-0.59725 0.00429,-1.18797 0.08419,-1.7648c0.05003,0.08045 0.108,0.15534 0.17275,0.22362l0.00511,0.02095l0.03656,0.02117c0.16992,0.16465 0.38132,0.28609 0.61602,0.34763l0.22979,0.06603l0.14264,0.00497l0.12911,0.07847l0.08412,0.02613l0.06921,0.05446l0.09202,0.04128l0.00833,0.01325l0.03921,0.00807l0.03543,0.0159l0.31528,0.05631l0.31368,0.06458l0.03881,-0.00163l0.03941,0.00704l0.01264,-0.00923l0.02918,-0.00122l0.02947,0.02318l0.09202,0.04128l0.00833,0.01325l0.03921,0.00807l0.03543,0.0159l0.31528,0.05631l0.31368,0.06458l0.03881,-0.00163l0.03941,0.00704l0.01264,-0.00923l7.18935,-0.30167l0.03675,0.00657l0.31368,0.06458l0.03881,-0.00163l0.03941,0.00704l0.01264,-0.00923l0.21768,-0.00913l0.02297,0.0133l0.52138,0.14982l0.17605,0.00613l0.30001,0.05358l0.31368,0.06458l0.03881,-0.00163l0.03941,0.00704l0.01264,-0.00923l0.47476,-0.01992l0.02297,0.0133l0.16548,0.04755l0.17664,0.07923l0.00833,0.01325l0.03921,0.00807l0.03543,0.0159l0.26375,0.04711c-1.13233,-0.11474 -2.71205,0.01936 -4.25469,1.34113c-2.8886,2.47502 -3.32716,6.77099 -3.32716,6.77099c0,0 -2.20628,-0.31291 -3.66482,-1.54519c-1.62528,-1.37316 -2.52575,-3.7964 -2.63094,-6.30329z" fill="#323344" stroke="#000000" stroke-width="0" stroke-linecap="butt"/><path d="M202.42337,173.08178l0.00406,0.01661l-0.02241,-0.01077z" fill="#323344" stroke="#000000" stroke-width="0" stroke-linecap="butt"/><path d="M197.8671,178.00761c-0.19959,-4.75659 3.05172,-9.09918 7.8083,-9.29877c2.54112,-0.10663 4.06403,0.94427 5.59714,2.56496c0.51652,0.54603 1.31961,1.61608 1.78522,2.76398c0.73926,1.82258 0.41165,3.67878 0.30562,3.96723c-0.08443,0.22969 -3.04141,-1.34636 -5.87335,1.08011c-2.8886,2.47502 -3.32716,6.77099 -3.32716,6.77099c0,0 -2.20629,-0.3129 -3.66483,-1.54519c-1.62528,-1.37316 -2.52575,-3.7964 -2.63094,-6.30328z" fill="none" stroke="#000000" stroke-width="1" stroke-linecap="butt"/><path d="M202.53793,184.97993c0,0 -0.08669,-5.90405 2.88986,-8.06936c3.14729,-2.28953 7.83425,-0.27866 7.83425,-0.27866" fill="none" stroke="#000000" stroke-width="1" stroke-linecap="round"/><path d="M199.16276,182.28857c0,0 1.15139,-5.46539 3.89666,-8.46966c2.49237,-2.72751 7.84442,-2.23894 7.84442,-2.23894" fill="none" stroke="#000000" stroke-width="1" stroke-linecap="round"/><path d="M197.99713,177.0149c0,0 2.6711,-4.03345 4.24164,-5.47602c1.41704,-1.30159 4.76853,-2.80008 4.76853,-2.80008" fill="none" stroke="#000000" stroke-width="1" stroke-linecap="round"/><path d="M204.17995,183.19408c0,0 -2.62043,-0.46788 -3.6282,-1.04748c-0.98575,-0.56694 -2.35382,-2.39297 -2.35382,-2.39297" fill="none" stroke="#000000" stroke-width="1" stroke-linecap="round"/><path d="M205.16515,182.12256c0,0 -3.00576,-1.37293 -4.27642,-2.28159c-1.13251,-0.80985 -2.98088,-2.90817 -2.98088,-2.90817" fill="none" stroke="#000000" stroke-width="1" stroke-linecap="round"/><path d="M205.95021,180.37265c0,0 -3.00001,-1.74692 -4.0206,-3.02517c-1.1154,-1.39697 -2.41269,-5.03215 -2.41269,-5.03215" fill="none" stroke="#000000" stroke-width="1" stroke-linecap="round"/><path d="M201.65154,169.99371c0,0 2.96046,3.91693 3.90543,5.55302c0.78351,1.35656 1.37128,3.58301 1.37128,3.58301" fill="none" stroke="#000000" stroke-width="1" stroke-linecap="round"/><path d="M204.95058,168.8251c0,0 2.28102,2.35917 2.98217,3.78017c0.73585,1.4913 1.33388,4.96693 1.33388,4.96693" fill="none" stroke="#000000" stroke-width="1" stroke-linecap="round"/><path d="M210.26441,170.66248c0,0 0.8123,2.02181 1.01224,3.11876c0.20861,1.14454 0.21452,3.61176 0.21452,3.61176" fill="none" stroke="#000000" stroke-width="1" stroke-linecap="round"/></g><g><g stroke="#000000" stroke-width="1"><path d="M252.69964,182.73523c0,-1.53387 0.31547,-4.99917 1.32734,-5.99764c0.99434,-0.98116 9.68564,4.98037 9.68564,5.99764c0,3.04115 -2.41339,5.09091 -5.45454,5.09091c-3.04115,0 -5.55844,-2.04976 -5.55844,-5.09091z" fill="#d90250" stroke-linecap="butt"/><path d="M262.31004,174.47548c0,0 -1.14583,3.18296 -0.17478,3.99391c1.50924,1.2604 5.88907,0.83726 5.88907,0.83726c0,0 -2.44714,1.85716 -2.92096,3.08046c-0.47852,1.23545 0.06381,4.29616 0.06381,4.29616c0,0 -2.42769,-4.05732 -4.38107,-3.99147c-0.88372,0.02979 -1.07348,2.01744 -1.07348,2.01744c0,0 -1.39632,-3.38831 -2.27085,-4.22562c-0.72495,-0.6941 -2.61226,-0.4497 -2.61226,-0.4497c0,0 -0.01778,-1.28272 -0.46809,-3.11848c-0.25303,-1.0315 -1.60984,-2.90749 -1.60984,-2.90749c0,0 3.58372,1.21425 5.2469,1.2956c1.50767,0.07374 4.31154,-0.82807 4.31154,-0.82807z" fill="#fdebf6" stroke-linecap="round"/></g><g stroke="#000000" stroke-linecap="round"><path d="M216.12821,198.89106c0,0 1.80667,-6.93923 2.11723,-8.13208c0.08761,-0.3365 0.8114,-0.59868 1.6187,-0.53784c0.73772,0.0556 2.39749,0.22758 4.53715,0.38695c9.71077,0.72329 30.32432,2.20505 30.32432,2.20505l0.31169,15.16883z" fill="#4fa6ed" stroke-width="0"/><path d="M254.72561,192.81314l0.31169,15.16883l-13.5994,-3.17743c-0.26487,-1.39792 -1.01829,-6.75002 -1.75514,-7.1849c-0.49515,-0.86653 -3.05372,-0.1427 -4.05988,0.10555c-2.23072,0.55039 -6.69201,1.45215 -8.14126,3.81854l-3.88452,-0.9076c1.16177,-0.89254 2.14088,-2.02634 2.77165,-3.11327c0.58228,-1.00338 1.88124,-3.31432 1.24133,-4.27418l-2.64347,-2.59855c9.92162,0.73703 29.75899,2.163 29.75899,2.163z" fill="#2e67e5" stroke-width="0"/><path d="M216.12821,198.89106c0,0 1.80667,-6.93923 2.11723,-8.13208c0.08761,-0.3365 0.8114,-0.59868 1.6187,-0.53784c0.73772,0.0556 2.39749,0.22758 4.53715,0.38695c9.71077,0.72329 30.32432,2.20505 30.32432,2.20505l0.31169,15.16883z" fill="none" stroke-width="1"/></g><path d="M227.76458,185.38458l6.54545,-4.83117l-0.98701,-5.81818c0,0 6.76544,-2.59679 8.81376,-3.27347c0.98881,-0.32666 2.82261,-0.57069 2.82261,-0.57069c0,0 4.65328,1.37707 7.9239,4.74913c2.43302,2.50849 4.23706,6.9441 4.76055,8.80674c0.25094,0.89288 -0.58913,3.18066 -1.03263,4.99336c-0.35143,1.43636 -0.20257,2.40044 -0.83594,3.36214c-1.46874,2.23015 -3.4912,2.03667 -3.4912,2.03667c0,0 -1.43077,0.13353 -2.04456,-0.037c-0.79784,-0.22166 -2.33679,-1.18029 -2.33679,-1.18029c0,0 -13.64238,-1.26786 -16.57367,-2.39815c-3.35867,-1.29508 -3.56446,-5.83911 -3.56446,-5.83911z" fill="#ff292e" stroke="#000000" stroke-width="0" stroke-linecap="round"/><path d="M257.64384,184.44694c0.25094,0.89288 -0.58913,3.18066 -1.03263,4.99336c-0.35143,1.43636 -0.20257,2.40044 -0.83594,3.36214c-1.46874,2.23015 -3.4912,2.03667 -3.4912,2.03667c0,0 -1.43077,0.13353 -2.04456,-0.037c-0.79784,-0.22166 -2.33679,-1.18029 -2.33679,-1.18029c0,0 -3.76343,-0.34976 -7.7617,-0.84564c1.69769,-0.98854 3.27948,-2.90617 4.04483,-3.64811c3.86602,-3.74775 2.12901,-6.37984 2.56099,-7.4144c0.05251,-0.12577 0.03472,-0.2791 0.16875,-0.35507c0.21452,-0.12158 1.92597,2.50311 1.87438,2.85476c-0.32287,2.20085 -2.3182,5.41094 0.17757,7.20979c0.12003,0.08651 2.27738,1.13129 2.65555,0.69276c0.18027,-0.20904 1.97885,-1.29996 2.3882,-2.45199c1.20095,-3.37989 1.50946,-9.2618 1.34812,-10.55705c1.14812,2.05457 1.96088,4.18878 2.28444,5.34005z" fill="#d90251" stroke="#000000" stroke-width="0" stroke-linecap="butt"/><g><path d="M237.57359,210.93085c0,0 -2.38284,1.55187 -3.22615,1.46377c-0.63812,-0.06667 -1.46951,-1.1585 -2.00449,-1.9701c-0.32234,-0.48902 -0.55342,-0.58603 -0.61147,-0.15933c-0.12733,0.93581 -0.45529,2.52782 -1.2515,3.15301c-1.20887,0.94921 -6.97012,0.31073 -7.286,0.45007c-3.44544,1.5199 -7.3625,2.97426 -10.62565,3.47012c-1.0431,0.15851 -2.46458,-1.5188 -2.46458,-1.5188c0,0 -3.66397,1.40371 -5.85437,-1.63326c-0.80668,-1.11845 -1.039,-3.61198 -1.10218,-4.65492c-0.00803,-0.13245 -0.09419,-0.36737 -0.00802,-0.5478c0.10519,-0.22028 2.18212,-2.03821 2.95141,-2.10809c4.44933,-0.40417 29.66226,-0.29206 29.66226,-0.29206c0,0 1.34573,0.71151 1.55548,1.42748c0.25653,0.87565 0.26524,2.91992 0.26524,2.91992z" fill="#f38285" stroke="#000000" stroke-width="0" stroke-linecap="round"/><path d="M234.34743,212.39464c-0.63813,-0.06667 -1.46952,-1.1585 -2.00449,-1.9701c-0.32234,-0.48902 -0.55342,-0.58603 -0.61147,-0.15933c-0.12733,0.93581 -0.45529,2.52782 -1.2515,3.15301c-1.20887,0.94921 -6.97011,0.31072 -7.28599,0.45007c-1.99601,0.88051 -4.1503,1.73901 -6.24404,2.40191c0.28435,-0.92786 0.43738,-1.91314 0.43738,-2.93416c0,-2.58013 -0.97714,-4.93203 -2.58155,-6.70583c8.90797,-0.10028 20.94709,-0.04674 20.94709,-0.04674c0,0 1.34573,0.71151 1.55548,1.42748c0.25653,0.87565 0.26524,2.91992 0.26524,2.91992c0,0 -2.38284,1.55188 -3.22615,1.46377z" fill="#e96698" stroke="#000000" stroke-width="0" stroke-linecap="round"/><path d="M237.57359,210.93085c0,0 -2.38284,1.55187 -3.22615,1.46377c-0.63812,-0.06667 -1.46951,-1.1585 -2.00449,-1.9701c-0.32234,-0.48902 -0.55342,-0.58603 -0.61147,-0.15933c-0.12733,0.93581 -0.45529,2.52782 -1.2515,3.15301c-1.20887,0.94921 -6.97012,0.31073 -7.286,0.45007c-3.44544,1.5199 -7.3625,2.97426 -10.62565,3.47012c-1.0431,0.15851 -2.46458,-1.5188 -2.46458,-1.5188c0,0 -3.66397,1.40371 -5.85437,-1.63326c-0.80668,-1.11845 -1.039,-3.61198 -1.10218,-4.65492c-0.00803,-0.13245 -0.09419,-0.36737 -0.00802,-0.5478c0.10519,-0.22028 2.18212,-2.03821 2.95141,-2.10809c4.44933,-0.40417 29.66226,-0.29206 29.66226,-0.29206c0,0 1.34573,0.71151 1.55548,1.42748c0.25653,0.87565 0.26524,2.91992 0.26524,2.91992z" fill="none" stroke="#000000" stroke-width="1" stroke-linecap="round"/><path d="M215.92117,200.31568l0.61539,-3.79487l9.12821,-2.25641l1.97306,4.29813c0,0 1.2416,-1.35972 2.96496,-2.00159c1.32804,-0.49462 3.15044,0.97866 3.62452,1.20893c1.27221,0.61793 2.20669,1.7253 2.20669,1.7253l0.82052,7.17949c0,0 -1.99578,1.78611 -3.90913,2.20274c-2.65957,0.57912 -10.56023,0.94795 -10.56023,0.94795c0,0 -2.61291,1.93389 -6.04966,2.77263c-3.10767,0.75842 -6.98247,0.47178 -8.51769,-0.24516c-0.45383,-0.21193 -1.96413,-1.18658 -2.55081,-2.44496c-0.76821,-1.64774 -0.46587,-3.78196 0.69282,-5.32731c1.05145,-1.40232 3.26334,-1.28908 5.23389,-1.97618c2.31042,-0.80561 4.32748,-2.28868 4.32748,-2.28868z" fill="#f27056" stroke="#000000" stroke-width="0" stroke-linecap="round"/><path d="M215.92117,200.31568l0.61539,-3.79487l9.12821,-2.25641l0.52515,1.14398c-0.21229,0.94728 -0.43449,3.45915 -0.43449,3.77726c0,0.69036 0.55965,1.25 1.25,1.25c0.65287,0 0.81891,-1.21481 0.82142,-1.25c0.02215,-0.31008 0.58335,-0.83859 0.74433,-1.45979c0.51823,-0.40309 1.22172,-0.86327 2.03161,-1.16491c1.32804,-0.49462 3.15044,0.97866 3.62452,1.20893c0.46722,0.22694 0.88889,0.51988 1.23545,0.79975c-1.55191,0.97604 -3.41977,3.23627 -4.89524,3.92193c-1.74905,0.8128 -3.65663,0.39984 -5.48096,1.09979c-1.61091,0.61807 -6.72237,3.833 -9.32747,6.35695c-0.83742,0.34883 -1.44441,1.13999 -1.5292,2.08171c-0.01901,0.0793 -0.02907,0.1551 -0.02963,0.22707c-0.00084,0.10856 0.0126,0.21126 0.03835,0.30889c0.01747,0.14173 0.04679,0.27978 0.08695,0.41314c-2.47819,0.20837 -4.95384,-0.08741 -6.10775,-0.62628c-0.45383,-0.21193 -1.96413,-1.18658 -2.55081,-2.44496c-0.76821,-1.64774 -0.46587,-3.78196 0.69282,-5.32731c1.05145,-1.40232 3.26334,-1.28908 5.23389,-1.97618c2.31042,-0.80561 4.32748,-2.28868 4.32748,-2.28868z" fill="#f79d58" stroke="#000000" stroke-width="0" stroke-linecap="round"/><path d="M227.43399,199.36422c0,0 2.75362,-2.96429 4.03571,-2.96429c1.28209,0 3.96429,2.25 3.96429,2.25c0,0 -1.96791,2.60714 -3.25,2.60714c-1.15461,0 -4.75,-1.89285 -4.75,-1.89285z" fill="#000000" stroke="none" stroke-width="0.5" stroke-linecap="butt"/><path d="M215.92117,200.31568l0.61538,-3.79487l9.12821,-2.25641l1.97305,4.29812c0,0 1.24161,-1.35972 2.96497,-2.00158c1.32803,-0.49462 3.15044,0.97866 3.62452,1.20893c1.27221,0.61793 2.20669,1.7253 2.20669,1.7253l0.82051,7.17949c0,0 -1.99578,1.78612 -3.90912,2.20275c-2.65957,0.57912 -10.56024,0.94795 -10.56024,0.94795c0,0 -2.61291,1.93389 -6.04966,2.77262c-3.10767,0.75842 -6.98247,0.47178 -8.51769,-0.24515c-0.45383,-0.21194 -1.96412,-1.18658 -2.55081,-2.44496c-0.76821,-1.64774 -0.46587,-3.78196 0.69282,-5.32731c1.05144,-1.40232 3.26334,-1.28908 5.23388,-1.97618c2.31042,-0.8056 4.32748,-2.28868 4.32748,-2.28868z" fill="none" stroke="#000000" stroke-width="1" stroke-linecap="round"/><path d="M223.36332,201.30195c-0.12621,0.87821 -1.84164,1.35722 -3.61418,1.61292c0.68482,0.40756 1.18157,0.74011 1.18157,0.95413c0,0.66506 -2.47803,0.83807 -5.02232,0.8283c0.96959,1.23472 1.76854,2.61519 0.21631,2.61519c-0.54558,0 -1.66896,-1.28019 -2.5092,-2.66695c-1.06493,-0.04195 -1.99226,-0.10183 -2.5597,-0.15111c-0.06617,0.0191 -0.1361,0.02934 -0.20842,0.02934c-0.1356,0 -0.26279,-0.03599 -0.37256,-0.09893c-0.22552,-0.12933 -0.37744,-0.37246 -0.37744,-0.65107c0,-0.3862 0.2919,-0.70422 0.66712,-0.74547c0.52304,-0.36552 1.17933,-0.47106 1.89524,-0.45146c-0.1632,-0.60498 -0.13687,-1.08001 0.1936,-1.26884c0.42543,-0.2431 1.20003,-0.2756 2.13842,-0.24049c-0.74581,-0.74802 -1.49359,-1.73662 -0.86851,-2.33205c0.33684,-0.32086 1.59157,-0.68368 3.06231,-1.00616c0.29091,-0.16426 0.76805,-0.25939 1.33229,-0.2713c2.1021,-0.39899 4.2231,-0.67739 4.56763,-0.6247c0.39495,0.06039 0.75,0.16659 0.75,0.75c0,0.60096 -0.51993,0.99518 -1.28005,1.25237c0.60783,0.59755 0.96001,1.40787 0.8079,2.4663zM221.44656,200.82154c0.34602,-0.14426 -0.4831,-0.59613 -0.59642,-0.95347c-0.07844,-0.24738 -0.23301,-0.46348 -0.42963,-0.64314c-1.66201,0.14292 -3.37472,0.04453 -3.71032,0.06073c-0.23669,0.01143 -0.92691,0.23863 -0.92525,0.30523c0.01305,0.52411 0.51392,1.069 1.19848,1.59177c1.59584,0.09293 3.28677,0.12932 4.46314,-0.36112zM215.07982,202.90572c-0.40419,-0.19235 -0.76074,-0.37098 -0.72804,-0.12847c0.24306,0.04191 0.48653,0.08618 0.72804,0.12847z" fill="#efdee9" stroke="none" stroke-width="0.5" stroke-linecap="butt"/><path d="M223.36333,201.30195c-0.12622,0.87821 -1.84164,1.35722 -3.61418,1.61292c0.68482,0.40756 1.18156,0.7401 1.18156,0.95413c0,0.66506 -2.47803,0.83808 -5.02232,0.8283c0.96959,1.23471 1.76854,2.61519 0.2163,2.61519c-0.54559,0 -1.66895,-1.28018 -2.5092,-2.66695c-1.06493,-0.04195 -1.99226,-0.10183 -2.5597,-0.15112c-0.06617,0.0191 -0.13609,0.02934 -0.20841,0.02934c-0.1356,0 -0.2628,-0.03598 -0.37256,-0.09893c-0.22552,-0.12932 -0.37744,-0.37246 -0.37744,-0.65107c0,-0.3862 0.2919,-0.70423 0.66711,-0.74547c0.52305,-0.36552 1.17934,-0.47106 1.89524,-0.45146c-0.1632,-0.60498 -0.13687,-1.08 0.1936,-1.26884c0.42543,-0.2431 1.20003,-0.2756 2.13842,-0.24049c-0.74581,-0.74802 -1.49359,-1.73663 -0.86851,-2.33205c0.33684,-0.32086 1.59158,-0.68367 3.06231,-1.00616c0.29091,-0.16426 0.76805,-0.25939 1.33228,-0.2713c2.10209,-0.39898 4.2231,-0.67739 4.56763,-0.62471c0.39496,0.0604 0.75,0.16659 0.75,0.75c0,0.60096 -0.51993,0.99518 -1.28004,1.25237c0.60783,0.59755 0.96001,1.40787 0.8079,2.4663zM221.44657,200.82154c0.34602,-0.14425 -0.48311,-0.59613 -0.59642,-0.95348c-0.07845,-0.24737 -0.233,-0.46348 -0.42963,-0.64313c-1.66201,0.14292 -3.37472,0.04452 -3.71032,0.06072c-0.23669,0.01142 -0.92692,0.23863 -0.92525,0.30523c0.01304,0.52411 0.51392,1.069 1.19848,1.59177c1.59584,0.09294 3.28677,0.12932 4.46315,-0.36112zM215.07983,202.90572c-0.40419,-0.19234 -0.76074,-0.37098 -0.72804,-0.12847c0.24307,0.04191 0.48654,0.08618 0.72804,0.12847z" fill="none" stroke="#000000" stroke-width="1" stroke-linecap="butt"/></g><g><g stroke="#000000"><path d="M238.82951,205.88038c0,0 1.5573,-1.68619 11.89481,-1.21113c10.08872,0.46363 16.62467,2.25009 16.62467,2.25009l-0.10389,6.7013c0,0 -1.37853,1.51311 -2.1519,2.16535c-0.63742,0.53758 -2.15979,1.47102 -2.15979,1.47102l-1.24676,-0.98702l-0.62337,2.02598c0,0 -4.02908,1.95244 -6.2997,2.31968c-2.98677,0.48307 -6.94706,0.32967 -6.94706,0.32967l-1.35065,-1.55844l-0.98701,1.4026c0,0 -7.0457,-1.28854 -8.11763,-6.01985c-1.06614,-4.70571 1.46828,-8.88924 1.46828,-8.88924z" fill="#f38285" stroke-width="0" stroke-linecap="round"/><path d="M267.34899,206.91934l-0.10389,6.7013c0,0 -1.37853,1.51311 -2.1519,2.16535c-0.63742,0.53758 -2.15979,1.47102 -2.15979,1.47102l-1.24676,-0.98702l-0.62337,2.02598c0,0 -4.02908,1.95244 -6.2997,2.31968c-1.14498,0.18518 -2.43301,0.27684 -3.58616,0.31945c4.47623,-2.95709 8.80818,-4.33279 9.46105,-10.57623c0.1423,-1.36082 0.32603,-3.34162 -0.29529,-4.78476c4.42361,0.63946 7.00581,1.34525 7.00581,1.34525z" fill="#e96698" stroke-width="0" stroke-linecap="butt"/><path d="M238.82951,205.88038c0,0 1.5573,-1.68619 11.89481,-1.21113c10.08872,0.46363 16.62467,2.25009 16.62467,2.25009l-0.10389,6.7013c0,0 -1.37853,1.51311 -2.1519,2.16535c-0.63742,0.53758 -2.15979,1.47102 -2.15979,1.47102l-1.24676,-0.98702l-0.62337,2.02598c0,0 -4.02908,1.95244 -6.2997,2.31968c-2.98677,0.48307 -6.94706,0.32967 -6.94706,0.32967l-1.35065,-1.55844l-0.98701,1.4026c0,0 -7.0457,-1.28854 -8.11763,-6.01985c-1.06614,-4.70571 1.46828,-8.88924 1.46828,-8.88924z" fill="none" stroke-width="1" stroke-linecap="round"/></g><path d="M241.02665,201.59831c0,0 -0.16113,-1.39132 0.83177,-2.4497c0.83775,-0.89299 2.76154,-1.45452 3.62241,-1.69853c2.38877,-0.67707 5.54691,-0.99258 7.61229,-0.93073c1.04307,0.03123 1.7958,1.00507 2.22024,1.74876c0.26481,0.464 1.47051,-1.05415 2.4616,-1.18214c0.51031,-0.06591 1.241,1.39616 1.29032,1.60632c0.27224,1.16 -0.46485,3.6929 -0.46485,3.6929c0,0 0.55816,0.68997 1.86673,1.27423c1.03935,0.46406 2.76995,0.7404 3.51636,1.41464c1.50659,1.3609 1.82454,4.21388 1.60024,5.17225c-0.24267,1.03685 -3.9622,4.09279 -8.88811,5.69858c-4.94282,1.6113 -11.0967,1.76786 -14.05848,0.12839c-4.16169,-2.30368 -1.99875,-5.63074 -3.73745,-8.31564c-1.08094,-1.66919 -1.81499,-3.6801 -2.00342,-6.10256c-0.17057,-2.19284 1.96643,-1.49939 1.96643,-1.49939l2.16393,1.44263z" fill="#000000" stroke="#000000" stroke-width="0" stroke-linecap="round"/><path d="M241.85842,199.14863c0.83775,-0.893 2.76153,-1.45453 3.62241,-1.69853c2.38877,-0.67707 5.54691,-0.99258 7.61229,-0.93073c1.04307,0.03123 1.7958,1.00507 2.22024,1.74876c0.12484,0.21875 0.32768,0.06251 0.74971,-0.2465c0.24134,1.38489 1.33505,3.38885 1.76753,3.8773c0.27689,0.31272 0.59618,0.53046 0.94266,0.66744c0.25423,0.24382 0.79832,0.6932 1.69391,1.09308c1.03934,0.46406 2.76994,0.7404 3.51636,1.41464c1.50659,1.3609 1.82454,4.21388 1.60024,5.17225c-0.24267,1.03686 -3.9622,4.0928 -8.88811,5.69858c-4.94281,1.61129 -11.09669,1.76786 -14.05848,0.12839c-4.1617,-2.30368 -1.99875,-5.63074 -3.73745,-8.31564c-0.39041,-0.60287 -0.73557,-1.25031 -1.02611,-1.94562c1.44896,-0.35535 2.86577,-1.1564 3.48748,-1.91535c1.02413,-1.2502 0.74361,-2.73538 -0.06577,-3.8863c0.12523,-0.28958 0.30525,-0.5869 0.56311,-0.86176z" fill="#f27056" stroke="#000000" stroke-width="0" stroke-linecap="round"/><path d="M241.85842,199.14863c0.83775,-0.893 2.76153,-1.45453 3.62241,-1.69853c1.93411,-0.5482 4.3726,-0.85938 6.32706,-0.92514c-0.81693,1.80489 -0.30703,5.20341 0.53947,7.30698c0.42385,1.05329 2.5756,1.46263 4.50623,2.2612c1.73506,0.71768 3.29154,1.87585 3.25475,1.96104c-2.24437,5.19674 -10.33761,4.35496 -13.11812,7.14551c-0.54778,0.44603 -0.90301,1.11946 -0.92179,1.8764c-1.35367,-0.17705 -2.53773,-0.50819 -3.43126,-1.00279c-4.1617,-2.30368 -1.99875,-5.63074 -3.73745,-8.31564c-0.39041,-0.60287 -0.73557,-1.25031 -1.02611,-1.94562c1.44896,-0.35535 2.86577,-1.1564 3.48748,-1.91535c1.02413,-1.2502 0.74361,-2.73538 -0.06577,-3.8863c0.12523,-0.28958 0.30525,-0.5869 0.56311,-0.86176z" fill="#f79d58" stroke="#000000" stroke-width="0" stroke-linecap="butt"/><path d="M241.02665,201.59831c0,0 -0.16113,-1.39132 0.83177,-2.4497c0.83775,-0.89299 2.76154,-1.45452 3.62241,-1.69853c2.38877,-0.67707 5.54691,-0.99258 7.61229,-0.93073c1.04307,0.03123 1.7958,1.00507 2.22024,1.74876c0.26481,0.464 1.47051,-1.05415 2.4616,-1.18214c0.51031,-0.06591 1.241,1.39616 1.29032,1.60632c0.27224,1.16 -0.46485,3.6929 -0.46485,3.6929c0,0 0.55816,0.68997 1.86673,1.27423c1.03935,0.46406 2.76995,0.7404 3.51636,1.41464c1.50659,1.3609 1.82454,4.21388 1.60024,5.17225c-0.24267,1.03685 -3.9622,4.09279 -8.88811,5.69858c-4.94282,1.6113 -11.0967,1.76786 -14.05848,0.12839c-4.16169,-2.30368 -1.99875,-5.63074 -3.73745,-8.31564c-1.08094,-1.66919 -1.81499,-3.6801 -2.00342,-6.10256c-0.17057,-2.19284 1.96643,-1.49939 1.96643,-1.49939l2.16393,1.44263z" fill="none" stroke="#000000" stroke-width="1" stroke-linecap="round"/><g stroke-linecap="butt"><path d="M252.5393,199.88264c0.33541,0.67082 -0.33541,1.00623 -0.33541,1.00623l-0.28805,0.14305c0.5596,0.02759 1.12093,0.04773 1.68439,0.04974l0.74487,0.13696c0.11233,0.00088 0.23865,0.03169 0.37833,0.10851c0.01207,0.00664 0.0238,0.01338 0.0352,0.02022c0.10958,0.0623 0.22778,0.1599 0.29716,0.30922c0.07127,0.14842 0.07158,0.30171 0.05011,0.42592c-0.00196,0.01314 -0.0042,0.02648 -0.00674,0.04002c-0.03069,0.16366 -0.09089,0.28417 -0.166,0.37263c-0.53966,0.9156 -1.17733,1.59747 -1.87592,2.14471c0.44693,0.02105 0.89431,0.04362 1.34243,0.06754c0.13178,-0.02352 0.28547,-0.00723 0.4564,0.08619c0.12846,0.05748 0.26734,0.15699 0.34667,0.3288c0.08984,0.16654 0.08613,0.33736 0.05503,0.47461c-0.03493,0.24208 -0.15084,0.38946 -0.28308,0.47906l-0.30906,0.36081c-0.31457,0.16901 -0.62234,0.3469 -0.92498,0.53136c0.77796,-0.05489 1.54567,-0.12761 2.29457,-0.22164l0.71423,-0.10215c0,0 0.74247,-0.10607 0.84853,0.63639c0.10607,0.74246 -0.6364,0.84852 -0.6364,0.84852l-0.74031,0.10564c-1.57037,0.19547 -3.22415,0.30171 -4.88359,0.34753c-1.49498,1.05791 -2.97474,2.12269 -4.67506,2.86811c0,0 -0.68712,0.30062 -0.98773,-0.3865c-0.30061,-0.68712 0.3865,-0.98773 0.3865,-0.98773c0.93212,-0.4069 1.79954,-0.91534 2.64092,-1.46765c-0.89839,-0.00556 -1.78614,-0.02461 -2.65055,-0.05242c-0.14683,0.02838 -0.31942,0.01288 -0.49728,-0.10792c-0.12738,-0.06797 -0.25404,-0.18034 -0.3171,-0.36598c-0.08077,-0.17865 -0.06503,-0.34724 -0.01845,-0.4839c0.04904,-0.21714 0.17105,-0.34798 0.30289,-0.42678l0.07122,-0.06763c0.60063,-0.45947 1.24815,-0.81898 1.91169,-1.13797c-0.58706,-0.00733 -1.17552,-0.01108 -1.7661,-0.01108h-0.31777c-0.15437,0.02898 -0.33995,0.01536 -0.51934,-0.11905c-0.12448,-0.07349 -0.242,-0.19234 -0.29658,-0.38456c-0.07493,-0.18524 -0.05513,-0.35121 -0.00199,-0.48564c0.05899,-0.21587 0.19676,-0.34051 0.33617,-0.41246c0.92758,-0.72615 1.77093,-1.47722 2.6271,-2.20645c-1.03601,0.01313 -2.06888,0.10702 -3.10023,0.36499c0,0 -0.72761,0.1819 -0.90951,-0.5457c-0.1819,-0.7276 0.5457,-0.90951 0.5457,-0.90951c1.75599,-0.43876 3.51009,-0.44594 5.27539,-0.36457c0.53455,-0.39376 1.09593,-0.76931 1.70324,-1.11745l0.45228,-0.22743c0,0 0.67082,-0.33541 1.00623,0.33541zM250.61562,204.54065c0.92134,-0.48705 1.77566,-1.08314 2.47019,-1.96694c-1.0901,-0.01292 -2.17375,-0.09694 -3.25275,-0.15936c-0.84801,0.65233 -1.63025,1.34934 -2.44237,2.05101c1.07822,0.01331 2.15184,0.03912 3.22493,0.07529zM248.41734,207.10742c0.81395,0.00817 1.63768,0.00551 2.4615,-0.01196c0.4745,-0.33625 0.95159,-0.6703 1.4386,-0.99122c-0.54518,-0.02411 -1.08985,-0.04547 -1.63462,-0.06395c-0.74611,0.35444 -1.51184,0.68189 -2.26548,1.06713z" fill="#efdee9" stroke="none" stroke-width="0.5"/><path d="M252.5393,199.88264c0.33541,0.67082 -0.33541,1.00623 -0.33541,1.00623l-0.28805,0.14305c0.5596,0.02759 1.12093,0.04773 1.68439,0.04974l0.74487,0.13696c0.11233,0.00088 0.23865,0.03169 0.37833,0.10851c0.01207,0.00664 0.0238,0.01338 0.0352,0.02022c0.10958,0.0623 0.22778,0.1599 0.29716,0.30922c0.07127,0.14842 0.07158,0.30171 0.05011,0.42592c-0.00196,0.01314 -0.0042,0.02648 -0.00674,0.04002c-0.03069,0.16366 -0.09089,0.28417 -0.166,0.37263c-0.53966,0.9156 -1.17733,1.59747 -1.87592,2.14471c0.44693,0.02105 0.89431,0.04362 1.34243,0.06754c0.13178,-0.02352 0.28547,-0.00723 0.4564,0.08619c0.12846,0.05748 0.26734,0.15699 0.34667,0.3288c0.08984,0.16654 0.08613,0.33736 0.05503,0.47461c-0.03493,0.24208 -0.15084,0.38946 -0.28308,0.47906l-0.30906,0.36081c-0.31457,0.16901 -0.62234,0.3469 -0.92498,0.53136c0.77796,-0.05489 1.54567,-0.12761 2.29457,-0.22164l0.71423,-0.10215c0,0 0.74247,-0.10607 0.84853,0.63639c0.10607,0.74246 -0.6364,0.84852 -0.6364,0.84852l-0.74031,0.10564c-1.57037,0.19547 -3.22415,0.30171 -4.88359,0.34753c-1.49498,1.05791 -2.97474,2.12269 -4.67506,2.86811c0,0 -0.68712,0.30062 -0.98773,-0.3865c-0.30061,-0.68712 0.3865,-0.98773 0.3865,-0.98773c0.93212,-0.4069 1.79954,-0.91534 2.64092,-1.46765c-0.89839,-0.00556 -1.78614,-0.02461 -2.65055,-0.05242c-0.14683,0.02838 -0.31942,0.01288 -0.49728,-0.10792c-0.12738,-0.06797 -0.25404,-0.18034 -0.3171,-0.36598c-0.08077,-0.17865 -0.06503,-0.34724 -0.01845,-0.4839c0.04904,-0.21714 0.17105,-0.34798 0.30289,-0.42678l0.07122,-0.06763c0.60063,-0.45947 1.24815,-0.81898 1.91169,-1.13797c-0.58706,-0.00733 -1.17552,-0.01108 -1.7661,-0.01108h-0.31777c-0.15437,0.02898 -0.33995,0.01536 -0.51934,-0.11905c-0.12448,-0.07349 -0.242,-0.19234 -0.29658,-0.38456c-0.07493,-0.18524 -0.05513,-0.35121 -0.00199,-0.48564c0.05899,-0.21587 0.19676,-0.34051 0.33617,-0.41246c0.92758,-0.72615 1.77093,-1.47722 2.6271,-2.20645c-1.03601,0.01313 -2.06888,0.10702 -3.10023,0.36499c0,0 -0.72761,0.1819 -0.90951,-0.5457c-0.1819,-0.7276 0.5457,-0.90951 0.5457,-0.90951c1.75599,-0.43876 3.51009,-0.44594 5.27539,-0.36457c0.53455,-0.39376 1.09593,-0.76931 1.70324,-1.11745l0.45228,-0.22743c0,0 0.67082,-0.33541 1.00623,0.33541zM250.61562,204.54065c0.92134,-0.48705 1.77566,-1.08314 2.47019,-1.96694c-1.0901,-0.01292 -2.17375,-0.09694 -3.25275,-0.15936c-0.84801,0.65233 -1.63025,1.34934 -2.44237,2.05101c1.07822,0.01331 2.15184,0.03912 3.22493,0.07529zM248.41734,207.10742c0.81395,0.00817 1.63768,0.00551 2.4615,-0.01196c0.4745,-0.33625 0.95159,-0.6703 1.4386,-0.99122c-0.54518,-0.02411 -1.08985,-0.04547 -1.63462,-0.06395c-0.74611,0.35444 -1.51184,0.68189 -2.26548,1.06713z" fill="none" stroke="#000000" stroke-width="1"/></g></g><path d="M227.76458,185.38458l6.54545,-4.83117l-0.98701,-5.81818c0,0 6.76544,-2.59679 8.81376,-3.27347c0.98881,-0.32666 2.82261,-0.57069 2.82261,-0.57069c0,0 4.65328,1.37707 7.9239,4.74913c2.43302,2.50849 4.23706,6.9441 4.76055,8.80674c0.25094,0.89288 -0.58913,3.18066 -1.03263,4.99336c-0.35143,1.43636 -0.20257,2.40044 -0.83594,3.36214c-1.46874,2.23015 -3.4912,2.03667 -3.4912,2.03667c0,0 -1.43077,0.13353 -2.04456,-0.037c-0.79784,-0.22166 -2.33679,-1.18029 -2.33679,-1.18029c0,0 -13.64238,-1.26786 -16.57367,-2.39815c-3.35867,-1.29508 -3.56446,-5.83911 -3.56446,-5.83911z" fill="none" stroke="#000000" stroke-width="1" stroke-linecap="round"/><path d="M255.92043,192.50145l1.09091,-4.36363l2.49351,2.18182l-2.12987,3.01299z" fill="#feecf7" stroke="#000000" stroke-width="1" stroke-linecap="round"/><path d="M239.66067,177.38458l0.2078,5.55845c0,0 -3.71223,1.97602 -4.67538,2.50219c-0.43072,0.2353 -0.95228,0.85055 -0.96912,1.18174c-0.04803,0.94468 -0.27757,5.45892 -0.27757,5.45892" fill="none" stroke="#000000" stroke-width="1" stroke-linecap="round"/><path d="M246.72561,180.7612c0,0 1.39103,2.20529 1.75987,2.79003c0.16912,0.26812 0.30243,0.80057 0.22711,1.03908c-0.28452,0.90098 -2.03893,6.4566 -2.03893,6.4566" fill="none" stroke="#000000" stroke-width="1" stroke-linecap="round"/><path d="M231.71262,187.56638l2.4935,3.37662l2.96104,-1.4026l3.06494,2.28571l3.58441,-3.06493l1.81818,2.02598l1.4026,-1.76623l0.88312,4.10389l-2.07792,2.02598l-3.06493,-0.88312l-2.28572,2.49351l-3.37662,-2.5974l-4,2.07792l-2.7013,-2.38961l-2.23377,0.72727c0,0 -1.01574,-2.11276 -1.92955,-2.74917c-1.01494,-0.70684 -3.88863,-1.30277 -3.88863,-1.30277c0,0 1.39404,-1.41642 1.44838,-2.2237c0.06497,-0.96521 -1.08474,-3.1789 -1.08474,-3.1789l3.37662,0.31169l1.61039,-1.1948l0.88312,4z" fill="#feecf7" stroke="#000000" stroke-width="1" stroke-linecap="round"/><g stroke="#000000" stroke-width="1" stroke-linecap="round"><path d="M231.1412,181.69627l-0.36364,-6.96104l13.66234,-1.76623l3.06493,-3.74026l3.79221,2.85715l6.07792,-2.59741l-0.25974,8.31169l-3.06494,-0.41558l-3.16883,2.44156l-2.90909,-1.81818l-3.63637,3.58441l-1.0909,-2.5974l-3.27273,2.90909l-2.33766,-2.23377l-1.76623,2.07792l-2.23377,-1.76623z" fill="#feecf7"/><path d="M243.45289,174.31964l0.77922,-0.93507" fill="none"/></g><g stroke="#000000" stroke-linecap="round"><path d="M246.15419,195.15079l1.45455,-1.97402c0,0 1.7157,1.92411 4.31329,1.83733c3.55994,-0.11893 4.36203,-2.5646 4.36203,-2.5646c0,0 2.51475,2.35673 2.00194,3.67003c-0.3863,0.98933 -3.89522,6.92418 -6.15923,7.04926c-2.10408,0.02195 -5.557,-5.99201 -5.557,-5.99201z" fill="#4ea5eb" stroke-width="0"/><path d="M247.60873,193.17679c0,0 1.7157,1.92411 4.31329,1.83733c3.55994,-0.11893 4.36203,-2.5646 4.36203,-2.5646c0,0 2.51475,2.35672 2.00194,3.67003c-0.34614,0.88644 -3.19915,5.74323 -5.41739,6.83382c0.14606,-0.60192 0.66788,-5.31229 0.66788,-5.31229c0,0 -3.3163,-1.57255 -4.5584,-2.44406c-0.53925,-0.37836 -0.96529,-1.19763 -1.41687,-1.95575z" fill="#2e67e5" stroke-width="0"/><path d="M246.15418,195.15081l1.45455,-1.97402c0,0 1.7157,1.92411 4.31329,1.83733c3.55994,-0.11893 4.36203,-2.5646 4.36203,-2.5646c0,0 2.51475,2.35672 2.00194,3.67003c-0.38631,0.98933 -3.89522,6.92418 -6.15923,7.04926c-2.10408,0.02195 -5.55699,-5.99201 -5.55699,-5.99201" fill="none" stroke-width="1"/></g></g><path d="M192.06803,227.93197v-95.86394h95.86394v95.86394z" fill="none" stroke="none" stroke-width="0" stroke-linecap="butt"/><g stroke="#000000"><g stroke-linecap="butt"><path d="M263.64545,169.55783l0.65893,-2.24787c0,0 9.10318,-0.56177 11.10556,0.5408c1.4057,0.77402 1.25557,5.03397 -1.37449,5.47477c-3.50248,0.58701 -10.38999,-3.7677 -10.38999,-3.7677z" fill="#0066cd" stroke-width="0"/><path d="M263.64546,169.55783l0.23387,-0.79781c0,0 2.04454,0.26084 4.06141,0.70553c1.55885,0.34372 2.90968,0.83431 4.48628,1.16738c1.87511,0.39614 3.68633,0.63381 3.66049,0.71527c-0.30651,0.96666 -0.96901,1.79579 -2.05205,1.97732c-3.50248,0.58702 -10.39,-3.76771 -10.39,-3.76771z" fill="#061483" stroke-width="0"/><path d="M263.64546,169.55783l0.65893,-2.24787c0,0 9.10318,-0.56176 11.10556,0.54081c1.40571,0.77402 1.25557,5.03397 -1.37449,5.47477c-3.50248,0.58702 -10.39,-3.76771 -10.39,-3.76771z" fill="none" stroke-width="1"/></g><g stroke-linecap="round"><path d="M224.09572,172.71896c0,0 -8.54716,-24.68569 14.25423,-24.58247c23.37919,0.10583 19.48061,20.73566 19.48061,20.73566c0,0 6.05829,-5.02384 6.97483,-4.48557c0.77361,0.45434 -0.43391,5.44421 -1.22009,7.35694c-0.58094,1.41337 -1.36988,4.46175 -2.74756,4.66179c-0.86715,0.1259 -4.49234,-2.66129 -4.49234,-2.66129c0,0 -7.39886,4.27936 -14.20087,5.72754c-6.71688,1.43005 -16.3736,0.51624 -16.3736,0.51624c0,0 -7.1773,-0.71905 -7.38729,-3.18187c-0.17893,-2.09852 5.71209,-4.08698 5.71209,-4.08698z" fill="#fde0be" stroke-width="0"/><path d="M252.24938,175.85253c-0.03385,0.01598 -1.31102,-2.08207 -1.31102,-2.08207l-3.1731,2.59713l-4.93298,-7.19358l-6.81113,4.38335l-1.02435,-6.51765c0,0 -11.49113,3.60136 -11.49855,3.57108c-1.46311,-5.97043 -3.84833,-22.55896 14.85168,-22.47432c23.37919,0.10583 19.48061,20.73566 19.48061,20.73566c0,0 5.27277,4.17245 5.21314,4.33469c-0.5241,1.4262 -1.21172,3.05412 -2.20599,3.19849c-0.86715,0.1259 -4.49234,-2.66129 -4.49234,-2.66129c0,0 -1.64465,0.95123 -4.09598,2.10851z" fill="#fc988a" stroke-width="0"/><path d="M258.24053,170.34876l3.06109,-1.44245l-1.11042,4.98613z" fill="#f79587" stroke-width="0.5"/><path d="M238.34992,148.13649c23.37919,0.10583 19.48061,20.73566 19.48061,20.73566c0,0 6.05829,-5.02384 6.97483,-4.48557c0.77361,0.45434 -0.43391,5.44421 -1.22009,7.35694c-0.58094,1.41337 -1.36988,4.46175 -2.74756,4.66179c-0.86715,0.1259 -4.49234,-2.66129 -4.49234,-2.66129c0,0 -7.39886,4.27936 -14.20087,5.72754c-6.71688,1.43005 -16.3736,0.51624 -16.3736,0.51624c0,0 -7.1773,-0.71905 -7.38729,-3.18187c-0.17893,-2.09852 5.71209,-4.08698 5.71209,-4.08698c0,0 -8.54715,-24.68568 14.25424,-24.58246z" fill="none" stroke-width="1"/></g><g stroke-linecap="round"><path d="M263.90642,161.5831c0,0 -1.83156,3.44256 -2.92559,4.85257c-0.94473,1.21758 -3.25665,3.11522 -3.25665,3.11522c0,0 -10.86337,-4.93379 -18.34478,-5.7103c-7.64174,-0.79316 -17.49242,0.14733 -17.49242,0.14733c0,0 -3.86507,-17.82129 -0.29278,-20.54529c2.60117,-1.98349 10.14145,-3.93001 17.51154,-3.44453c3.35908,0.22127 12.96131,0.95515 16.11418,3.98259c4.22568,4.05757 8.68651,17.60239 8.68651,17.60239z" fill="#ff292e" stroke-width="0"/><path d="M263.90642,161.5831c0,0 -1.83156,3.44257 -2.92559,4.85257c-0.94473,1.21758 -3.25664,3.11522 -3.25664,3.11522c0,0 -5.26084,-2.3893 -10.9818,-4.10418c-0.14976,-0.04489 2.2133,-14.131 5.09179,-19.71083c0.95318,-1.84771 2.60143,-2.50833 3.38574,-1.7552c4.22568,4.05758 8.68651,17.6024 8.68651,17.6024z" fill="#ac0e49" stroke-width="0.5"/><path d="M260.98083,166.43568c-0.94473,1.21758 -3.25664,3.11522 -3.25664,3.11522c0,0 -10.86337,-4.93379 -18.34478,-5.71029c-7.64174,-0.79316 -17.49241,0.14733 -17.49241,0.14733c0,0 -3.86507,-17.8213 -0.29278,-20.54529c2.60118,-1.98349 10.14145,-3.93001 17.51154,-3.44453c3.35908,0.22127 12.96131,0.95514 16.11416,3.98258c4.22568,4.05758 8.68651,17.6024 8.68651,17.6024c0,0 -1.83156,3.44256 -2.92559,4.85256z" fill="none" stroke-width="1"/></g><g stroke-linecap="round"><path d="M222.77711,169.65466c0,0 -3.83082,1.0242 -5.57539,1.72519c-1.77129,0.71174 -4.97342,2.51353 -4.97342,2.51353c0,0 1.52376,-3.89554 2.5574,-5.65745c0.98163,-1.67326 3.49646,-4.66178 3.49646,-4.66178l-9.52063,0.86587c0,0 8.52945,-12.88125 12.08567,-14.50719c2.12097,-0.96972 10.19604,3.89225 10.19604,3.89225c0,0 1.20542,-2.71223 2.0552,-3.98282c0.77383,-1.15702 2.83698,-3.33194 2.83698,-3.33194c0,0 1.66193,6.09375 2.76907,9.03695c1.15339,3.0661 4.01822,9.00603 4.01822,9.00603l14.74269,4.57616l-1.18942,6.72326l-5.85734,-6.04529l-2.51122,3.53513l-5.18469,-8.78926l-4.8484,4.21525l-1.24598,-5.04913c0,0 -10.94103,2.86086 -13.37574,4.13022c-0.66369,0.34601 -0.47545,1.80507 -0.47545,1.80507z" fill="#4fa6ec" stroke-width="0"/><path d="M225.67998,160.35207l-13.4517,13.54132c0,0 1.52376,-3.89554 2.55739,-5.65745c0.98162,-1.67326 3.49646,-4.66178 3.49646,-4.66178l-9.52062,0.86586c0,0 8.52944,-12.88125 12.08567,-14.50719c2.12096,-0.96973 10.19605,3.89225 10.19605,3.89225c0,0 1.20541,-2.71223 2.05519,-3.98282c0.77383,-1.15702 2.83698,-3.33193 2.83698,-3.33193l-2.22687,11.90398c0,0 -9.12152,-4.20027 -11.31311,-3.82915c-3.4396,0.58243 -8.11297,7.6841 -8.11297,7.6841z" fill="#66ffff" stroke-width="0"/><path d="M247.79676,167.75705l-0.62527,4.33797l-3.14151,-5.32557z" fill="#66ffff" stroke-width="0"/><path d="M212.2283,173.89339c0,0 1.52376,-3.89554 2.55739,-5.65745c0.98162,-1.67326 3.49646,-4.66178 3.49646,-4.66178l-9.52062,0.86586c0,0 8.52944,-12.88125 12.08567,-14.50719c2.12096,-0.96973 10.19605,3.89225 10.19605,3.89225c0,0 1.20541,-2.71223 2.05519,-3.98282c0.77383,-1.15702 2.83698,-3.33193 2.83698,-3.33193c0,0 1.66192,6.09374 2.76905,9.03694c1.15338,3.0661 4.01822,9.00603 4.01822,9.00603l14.74269,4.57616l-1.18942,6.72326l-5.85734,-6.04528l-2.51123,3.53513l-5.1847,-8.78926l-4.84841,4.21525l-1.24598,-5.04913c0,0 -10.94103,2.86086 -13.37574,4.13022c-0.66369,0.34601 -0.47545,1.80507 -0.47545,1.80507c0,0 -3.8308,1.0242 -5.57538,1.72519c-1.74458,0.70101 -4.97342,2.5135 -4.97342,2.5135z" fill="none" stroke-width="1"/></g></g><g><path d="M223.02377,154.24586c0,0 2.71037,5.45869 5.63374,8.88329c2.14134,2.50849 7.0456,6.96237 7.0456,6.96237c0,0 2.4182,-1.93988 5.11531,-4.46059c3.36084,-3.14103 7.31012,-7.13658 9.35845,-8.85423c2.32796,-1.95216 5.54153,-3.46926 5.54153,-3.46926c0,0 -8.27518,8.13817 -11.82939,11.48313c-0.08081,0.07605 -0.81705,2.25967 -1.27549,4.44035c-0.47743,2.27106 -0.69284,4.53991 -1.57015,4.47363c-2.5102,-0.1896 -2.02609,-4.49986 -2.64577,-3.95241c-1.3167,1.16325 -2.27969,2.00178 -2.27969,2.00178c0,0 -1.4281,-0.83671 -3.33382,-2.4163c-0.03495,-0.02896 -0.11577,0.80801 -0.12431,1.85172c-0.01127,1.37638 -0.03591,3.04718 -1.04247,2.92024c-0.96969,-0.12227 -1.85884,-1.79659 -2.25509,-3.85c-0.40041,-2.07497 -0.30324,-4.52906 -0.37629,-4.6129c-4.38072,-5.02636 -5.96216,-11.4008 -5.96216,-11.4008z" fill="#000000" stroke="#000000" stroke-width="0" stroke-linecap="round"/><path d="M245.33695,173.53704c-0.89437,1.17909 -1.96986,1.96285 -3.15443,2.65599c1.40273,-0.05564 2.83156,-0.24338 3.75355,-0.87907c0.67899,-0.46814 1.01006,-1.44032 1.3857,-2.26737c-0.60154,0.02886 -1.22421,0.08615 -1.84303,0.12101zM232.7947,175.82033c0,0 4.68732,0.14511 6.55229,0.40659c0.1467,-0.00435 0.30112,-0.00683 0.46194,-0.00827c1.64673,-0.87326 3.17742,-1.61726 4.37697,-3.02843c-0.23298,-0.00846 -1.26503,-1.05328 -1.26503,-1.05328c0,0 3.48079,-0.18639 4.77335,-0.21574l0.48593,0.06659c0.09788,-0.00896 0.20945,0.01234 0.32985,0.08978c0.09152,0.04957 0.18906,0.13072 0.23871,0.26155c0.05707,0.12778 0.0451,0.2541 0.01517,0.35379c-0.03073,0.13957 -0.09463,0.23329 -0.1702,0.29595c-0.71607,0.97915 -0.94764,2.47477 -2.00884,3.23195c-1.79764,1.28264 -5.18594,1.07131 -7.30108,1.11936c-0.80844,-0.11335 -2.86978,-0.26575 -4.10897,-0.52961c-1.62834,-0.34672 -2.3801,-0.99023 -2.3801,-0.99023z" fill="#000000" stroke="none" stroke-width="0.5" stroke-linecap="butt"/><path d="M245.50367,173.11776c0.61882,-0.03488 1.26409,-0.0714 1.86563,-0.10027c-0.37564,0.82704 -0.70615,1.85652 -1.38516,2.32468c-0.92199,0.63569 -2.44647,0.82434 -3.84919,0.87997c1.18458,-0.69313 2.33412,-1.55507 3.22848,-2.73417z" data-paper-data="{&quot;noHover&quot;:false,&quot;origItem&quot;:[&quot;Path&quot;,{&quot;applyMatrix&quot;:true,&quot;segments&quot;:[[[815.6142,327.59136],[0,0],[-1.65831,2.07269]],[[809.83498,332.20743],[2.15617,-1.1879],[2.51774,-0.03472]],[[816.60604,330.80527],[-1.68264,1.09707],[1.23918,-0.80793]],[[819.1958,326.80402],[-0.7119,1.46551],[-1.07993,0.02386]],[[815.88553,326.93555],[1.1112,-0.03384],[0,0]]],&quot;closed&quot;:true}]}" fill="#ffffff" stroke="none" stroke-width="0.5" stroke-linecap="butt"/></g><path d="M247.89113,172.91637l0.99551,3.12872l8.10623,-3.41315l-1.70658,3.9109l2.70208,2.34654l-4.69308,-0.0711l-1.70658,1.49326l-3.41315,-1.49326l-4.26644,3.8398l-0.63996,-2.77319c0,0 1.65657,-2.96144 2.47952,-4.20218c0.69654,-1.05017 2.14246,-2.76634 2.14246,-2.76634z" fill="#feecf7" stroke="#000000" stroke-width="1" stroke-linecap="round"/></g></g></svg>