<svg version="1.1" xmlns="http://www.w3.org/2000/svg" xmlns:xlink="http://www.w3.org/1999/xlink" width="127.66667" height="127.66667" viewBox="0,0,127.66667,127.66667"><g transform="translate(-176.16667,-116.16666)"><g data-paper-data="{&quot;isPaintingLayer&quot;:true}" fill-rule="nonzero" stroke-linejoin="miter" stroke-miterlimit="10" stroke-dasharray="" stroke-dashoffset="0" style="mix-blend-mode: normal"><g stroke="#000000" stroke-width="1" stroke-linecap="butt"><path d="M227.20346,183.54325c0.46917,-1.20979 1.9223,-4.10586 3.18778,-4.67335c3.60948,-1.61867 4.768,2.16379 5.0193,4.70497c-0.02232,2.36867 -1.29276,6.08852 -3.66655,8.72446c-1.63672,1.81746 -4.06657,2.90403 -5.57216,3.55625c-0.51351,0.22246 -2.09692,0.01206 -4.13469,-3.27194c-1.90548,-3.07081 -3.02945,-7.61389 -1.86385,-8.33739c1.00306,-0.62262 6.70343,0.14696 6.70343,0.14696z" fill="#dc94e7"/><path d="M223.31967,187.87617c0.05457,0.04103 0.08536,0.07251 0.08536,0.07251l0.66462,0.78232c0.29514,0.81924 0.26632,1.55583 0.27364,2.27296c0.009,0.88269 -0.03166,1.73478 -0.61199,2.66167c-4.05862,5.29923 -15.01133,6.88221 -14.91272,-2.28021c0.06015,-3.82177 3.63999,-4.96213 7.38055,-4.99025c2.54859,-0.01917 5.17298,0.36935 6.80494,1.20292c0,0 0.18211,0.09353 0.31561,0.27808z" fill="#f89688"/></g><g><g stroke="#000000" stroke-linecap="round"><path d="M217.39262,198.10566c0,0 2.77356,-5.4398 4.13943,-6.21618c0.72822,-0.41394 3.42693,1.9153 3.42693,1.9153c0,0 4.75261,-4.06073 11.07906,-4.08413c8.09534,-0.02994 19.34573,2.25227 19.34573,2.25227l2.86726,11.62832c0,0 -16.00774,1.20555 -22.80124,0.29181c-6.82582,-0.91809 -18.05716,-5.78738 -18.05716,-5.78738z" fill="#0065cc" stroke-width="0"/><path d="M224.95899,193.80477c0,0 4.75261,-4.06073 11.07906,-4.08413c8.09534,-0.02994 19.34573,2.25227 19.34573,2.25227l2.86726,11.62832c0,0 -16.00774,1.20555 -22.80124,0.29181c-2.42102,-0.32564 -5.39627,-1.14834 -8.22801,-2.07454c-0.18852,-2.71503 -0.97078,-5.45195 -1.84464,-7.13762c-0.12154,-0.23446 -0.27258,-0.54189 -0.44949,-0.9029c0.02049,0.01743 0.03134,0.02678 0.03134,0.02678z" fill="#080f95" stroke-width="0"/><path d="M232.04747,200.89327l-2.70796,-2.54867" fill="none" stroke-width="1"/><path d="M217.39262,198.10566c0,0 2.77356,-5.4398 4.13943,-6.21618c0.72822,-0.41394 3.42693,1.9153 3.42693,1.9153c0,0 4.75261,-4.06073 11.07906,-4.08413c8.09534,-0.02994 19.34573,2.25227 19.34573,2.25227l2.86726,11.62832c0,0 -16.00774,1.20555 -22.80124,0.29181c-6.82582,-0.91809 -18.05716,-5.78738 -18.05716,-5.78738z" fill="none" stroke-width="1"/></g><g stroke="#000000" stroke-linecap="round"><path d="M249.25102,194.60123l-1.51328,-6.21239l7.64603,-2.38938c0,0 0.17149,2.7748 0.98286,3.82705c0.40524,0.52553 1.70508,0.75763 2.56131,1.28546c1.0071,0.62083 1.55317,1.49811 1.55317,1.49811c0,0 -0.28803,4.42718 -4.95489,4.6561c-3.93081,0.19281 -6.2752,-2.66494 -6.2752,-2.66494z" fill="#aa96c7" stroke-width="0"/><path d="M247.73773,188.38884l7.64603,-2.38938c0,0 0.12788,2.06935 0.68533,3.31165c-2.32251,2.12352 -4.27784,2.37238 -7.34419,3.3381z" fill="#a7649a" stroke-width="0"/><path d="M249.25102,194.60123l-1.51328,-6.21239l7.64603,-2.38938c0,0 0.17149,2.7748 0.98286,3.82705c0.40524,0.52553 1.70508,0.75763 2.56131,1.28546c1.0071,0.62083 1.55317,1.49811 1.55317,1.49811c0,0 -0.28803,4.42718 -4.95489,4.6561c-3.93081,0.19281 -6.2752,-2.66494 -6.2752,-2.66494z" fill="none" stroke-width="1"/></g><g><path d="M229.23001,185.91782c0,0 -2.69302,-5.63292 1.16249,-10.76664c1.41904,-1.88949 3.84565,-4.31385 7.44797,-5.50405c15.78375,-5.21493 14.80547,9.16228 14.80547,9.16228c0,0 3.97095,4.30425 3.3419,5.91514c-1.28839,3.29933 -7.6627,3.70211 -7.6627,3.70211l0.83628,6.27212c0,0 -9.08739,7.27359 -17.77238,2.91128c-9.96441,-5.00493 -2.15904,-11.69225 -2.15904,-11.69225z" fill="#ab9efa" stroke="#000000" stroke-width="0" stroke-linecap="round"/><path d="M229.23001,185.91782c0,0 -2.69302,-5.63292 1.16249,-10.76664c1.41904,-1.88949 3.84565,-4.31385 7.44797,-5.50405c15.78375,-5.21493 14.80547,9.16228 14.80547,9.16228c0,0 3.97095,4.30425 3.3419,5.91514c-1.28839,3.29933 -7.6627,3.70211 -7.6627,3.70211l0.83628,6.27212l-4.43629,-4.52891c0,0 -6.04137,0.87198 -8.08226,-0.02716c-2.86031,-1.26013 -7.41285,-4.22489 -7.41285,-4.22489z" fill="#9362ec" stroke="#000000" stroke-width="0" stroke-linecap="round"/><path d="M229.23001,185.91782c0,0 -2.69302,-5.63292 1.16249,-10.76664c1.41904,-1.88949 3.84565,-4.31385 7.44797,-5.50405c15.78375,-5.21493 14.80547,9.16228 14.80547,9.16228c0,0 3.97095,4.30425 3.3419,5.91514c-1.28839,3.29933 -7.6627,3.70211 -7.6627,3.70211l0.83628,6.27212c0,0 -9.08739,7.27359 -17.77238,2.91128c-9.96441,-5.00493 -2.15904,-11.69225 -2.15904,-11.69225z" fill="none" stroke="#000000" stroke-width="1" stroke-linecap="round"/><path d="M244.23333,193.00831c0,0.36843 -0.24347,0.49338 -0.40863,0.53577c-0.71336,1.08236 -2.20313,1.73851 -3.73216,1.52943c-3.94843,-0.57486 -8.74636,-2.12117 -8.84151,-7.00325c0,0 0,-0.2193 0.13755,-0.38283c-0.22271,-0.39044 0.15134,-0.6897 0.15134,-0.6897l0.35228,-0.27746c1.72162,-1.63917 4.19053,-0.24457 6.18431,0.25159c1.86258,0.46588 4.31315,1.63172 5.48879,3.23426c0.662,0.90238 0.8125,1.78251 0.61596,2.5424c0.03221,0.06924 0.05205,0.15459 0.05205,0.25978zM242.14221,193.39751c-1.69096,-0.37577 -4.83408,-0.61283 -6.24775,-1.50879c-0.93214,-0.59078 -1.71652,-1.26796 -2.5828,-1.86213c0.1135,0.13862 0.22668,0.29163 0.33281,0.47136c1.74177,2.94955 3.29812,3.00705 6.60574,3.47172c0.78585,0.11833 1.63835,-0.09001 2.22033,-0.52505c-0.10944,-0.01569 -0.21889,-0.03139 -0.32835,-0.04711zM236.4837,190.94207c1.27233,0.83477 4.29183,1.01032 5.85845,1.35846c0.27176,0.03861 0.54351,0.07731 0.81524,0.11608c0.08406,-0.45072 -0.04448,-0.97537 -0.48613,-1.54416c-1.07945,-1.39021 -3.20154,-2.40313 -4.86518,-2.81883c-1.37867,-0.34639 -4.00629,-1.75336 -5.12542,-0.54488l-0.3745,0.30328c0.05991,0.13221 0.05991,0.25823 0.05991,0.25823c-0.00128,0.04367 -0.00163,0.08608 -0.00108,0.1273c1.55025,0.73894 2.68997,1.80713 4.11871,2.74451z" fill="#ae0010" stroke="none" stroke-width="0.5" stroke-linecap="butt"/><path d="M231.53992,186.99774l0.35228,-0.27746c1.72162,-1.63917 4.19053,-0.24457 6.18431,0.25159c1.86258,0.46588 4.31315,1.63172 5.48879,3.23426c0.07927,0.10805 0.1512,0.21577 0.21607,0.32302c-0.35795,0.10879 -0.73365,0.2254 -1.1125,0.34026c-1.08019,-1.38865 -3.20038,-2.40039 -4.86282,-2.81578c-1.37867,-0.34639 -4.00629,-1.75336 -5.12542,-0.54488l-0.3745,0.30328c0.05991,0.13221 0.05991,0.25823 0.05991,0.25823c-0.00064,0.022 -0.00105,0.04369 -0.00123,0.06506c-0.12229,-0.03815 -0.2449,-0.07476 -0.36781,-0.10985c-0.22521,-0.17528 -0.44994,-0.35039 -0.67443,-0.52369c-0.04303,-0.29575 0.21732,-0.50402 0.21732,-0.50402z" fill="#710c65" stroke="none" stroke-width="0.5" stroke-linecap="butt"/><path d="M248.37492,188.54814c0,0 -1.29481,-0.23135 -1.88091,-0.53662c-0.67549,-0.35183 -1.94209,-1.45454 -1.94209,-1.45454" fill="none" stroke="#000000" stroke-width="1" stroke-linecap="round"/></g><g><path d="M239.45457,206.07026l2.23009,4.93805c0,0 -4.89814,0.96441 -7.47833,1.20505c-2.54317,0.23719 -7.89335,0.22857 -7.89335,0.22857c0,0 -11.67459,5.12974 -17.8515,3.9866c-5.94968,-1.10108 -6.4953,-4.009 -5.86788,-5.63514c0.04884,-0.12657 1.10014,-1.13377 2.45825,-1.48041c2.20435,-0.56265 5.47735,-0.55675 8.52517,-0.95618c10.89804,-1.42823 25.87756,-2.28654 25.87756,-2.28654z" fill="#ab9efa" stroke="#000000" stroke-width="0" stroke-linecap="round"/><path d="M239.45457,206.07026l2.23009,4.93805c0,0 -4.89814,0.96441 -7.47833,1.20505c-2.54317,0.23719 -7.89335,0.22857 -7.89335,0.22857c0,0 -8.81232,3.87207 -15.17535,4.13836c0.37635,-0.33171 0.70783,-0.71888 0.98226,-1.13323c0.88023,-1.34859 2.22403,-1.32448 3.47357,-2.26316c1.22049,-0.91685 1.56073,-1.80523 2.31829,-2.96096c0.59366,-0.90568 2.20453,-1.89236 3.81196,-2.77827c8.98703,-0.87341 17.73086,-1.37443 17.73086,-1.37443z" fill="#9362ec" stroke="#000000" stroke-width="0" stroke-linecap="butt"/><path d="M239.45457,206.07026l2.23009,4.93805c0,0 -4.89814,0.96441 -7.47833,1.20505c-2.54317,0.23719 -7.89335,0.22857 -7.89335,0.22857c0,0 -11.67459,5.12974 -17.8515,3.9866c-5.94968,-1.10108 -6.4953,-4.009 -5.86788,-5.63514c0.0402,-0.10417 1.44794,-1.35468 2.42014,-1.62081c2.12647,-0.58208 5.18309,-0.37282 8.56328,-0.8158c10.89804,-1.42823 25.87756,-2.28654 25.87756,-2.28654z" fill="none" stroke="#000000" stroke-width="1" stroke-linecap="round"/><path d="M230.45458,199.61895c0,0 3.10882,1.76186 4.57126,2.85227c1.55805,1.16171 4.50839,3.91764 4.50839,3.91764c0,0 -3.76446,1.91266 -5.85377,2.24376c-2.63937,0.41825 -8.72145,0.06597 -8.72145,0.06597c0,0 -11.72116,6.07774 -18.55752,2.54867c-0.70667,-0.36481 -1.59429,-1.22776 -1.51385,-1.7523c0.25359,-1.65374 3.13737,-3.04922 6.22208,-4.52062c2.19777,-1.04833 4.92893,-2.48814 4.92893,-2.48814c0,0 -3.21863,-2.34208 -1.09939,-5.33439c0.41683,-0.58855 1.64161,-0.50843 3.19209,-0.67985c1.62164,-0.17929 3.56216,-0.59637 3.56216,-0.59637l6.45132,4.77876z" fill="#ae1c51" stroke="#000000" stroke-width="0" stroke-linecap="round"/><path d="M235.02582,202.4712c1.55805,1.16171 4.50839,3.91764 4.50839,3.91764c0,0 -3.76446,1.91267 -5.85377,2.24376c-2.63937,0.41826 -8.72145,0.06597 -8.72145,0.06597c0,0 -8.31219,4.3101 -15.01955,3.56354c0.7367,-0.98845 1.46856,-2.13299 1.7916,-2.6706c0.76831,-0.47787 1.54469,-0.78361 2.30282,-1.13264c0.49412,-0.01148 0.95645,-0.15155 1.35483,-0.38801c1.23894,-0.28351 2.16322,-1.39252 2.16322,-2.71742c0,-1.02311 -0.55118,-1.91749 -1.37281,-2.4024c-0.08849,-0.15487 -0.18563,-0.28264 -0.2902,-0.38622c0.09689,-0.05079 0.14973,-0.07864 0.14973,-0.07864c0,0 -1.52792,-1.11182 -1.78515,-2.7821c3.28121,0.0617 7.36037,-0.22915 7.36037,-3.03206c0,-0.28233 -0.02403,-0.53649 -0.06918,-0.76524c0.09582,-0.01984 0.14882,-0.03122 0.14882,-0.03122l6.31571,4.67831c-0.25157,0.1195 -0.57155,0.23866 -0.96758,0.39217c-0.23176,0.05534 -0.47028,0.1105 -0.70976,0.1758c0,0 -0.80681,0.22004 -0.58677,1.02686c0.22004,0.80681 1.02686,0.58677 1.02686,0.58677c0.06088,-0.0166 0.12122,-0.03304 0.18101,-0.04934c0.21492,0.00835 0.38742,-0.06065 0.38742,-0.06065c0.12726,-0.05115 0.25032,-0.10171 0.36919,-0.15195c0.69645,-0.20645 1.30087,-0.43109 1.80102,-0.78311c0.12999,0.0851 0.3054,0.13683 0.54182,0.11533c0.83285,-0.07571 0.75714,-0.90856 0.75714,-0.90856c-0.02642,-0.2891 -0.05538,-0.56716 -0.09158,-0.83887c0.02861,-0.07776 0.05591,-0.15824 0.08188,-0.24153c0.85031,0.49051 3.06075,1.78559 4.22598,2.65441z" fill="#710c65" stroke="#000000" stroke-width="0" stroke-linecap="round"/><path d="M230.45458,199.61895c0,0 3.10882,1.76186 4.57126,2.85227c1.55805,1.16171 4.50839,3.91764 4.50839,3.91764c0,0 -3.76446,1.91266 -5.85377,2.24376c-2.63937,0.41825 -8.72145,0.06597 -8.72145,0.06597c0,0 -11.72116,6.07774 -18.55752,2.54867c-0.70667,-0.36481 -1.59429,-1.22776 -1.51385,-1.7523c0.25359,-1.65374 3.13737,-3.04922 6.22208,-4.52062c2.19777,-1.04833 4.92893,-2.48814 4.92893,-2.48814c0,0 -3.21863,-2.34208 -1.09939,-5.33439c0.41683,-0.58855 1.64161,-0.50843 3.19209,-0.67985c1.62164,-0.17929 3.56216,-0.59637 3.56216,-0.59637l6.45132,4.77876z" fill="none" stroke="#000000" stroke-width="1" stroke-linecap="round"/><path d="M226.95015,201.29149l0.95575,-0.55752" fill="none" stroke="#000000" stroke-width="1" stroke-linecap="round"/><path d="M230.8528,203.84017c0,0 1.01887,-0.41906 1.74361,-0.53275c0.60901,-0.09553 3.1148,-0.26372 3.1148,-0.26372" fill="none" stroke="#000000" stroke-width="0.5" stroke-linecap="round"/><path d="M215.55997,204.86655c-0.44827,-0.09541 -0.92133,-0.15147 -1.43284,-0.15027c0,0 -0.55752,0 -0.55752,-0.55752c0,-0.55752 0.55752,-0.55752 0.55752,-0.55752c1.9216,0.00398 4.45698,0.53054 5.98843,1.70371c0.3401,0.26053 1.41335,1.07701 0.9451,1.68232c-0.66859,0.8643 -3.2699,-0.97184 -3.9817,-1.44637c-0.34543,-0.09366 -0.69007,-0.19023 -1.0342,-0.28854l-0.47999,-0.38078c0,0 -0.00172,-0.00172 -0.00479,-0.00502z" fill="#ab9efa" stroke="none" stroke-width="0.5" stroke-linecap="butt"/><path d="M216.4068,203.16169c-0.35691,-0.4283 0.07139,-0.78523 0.07139,-0.78523c1.75902,-1.41781 6.99466,-0.93211 8.03108,1.30933c0.90197,1.95065 -0.90818,2.29874 -2.30106,1.62972c-1.77244,-0.49774 -3.43691,-1.08759 -5.17796,-1.63201l-0.075,-0.12278l-0.0365,0.03651l-0.2459,-0.2459c-0.08811,-0.02769 -0.1792,-0.08541 -0.26605,-0.18964z" fill="#ab9efa" stroke="none" stroke-width="0.5" stroke-linecap="butt"/><path d="M218.12549,201.12595c-0.00069,-0.00103 -0.00137,-0.00205 -0.00206,-0.00308c-0.30926,-0.46389 0.15463,-0.77314 0.15463,-0.77314c1.42629,-0.88531 6.77622,-1.17922 7.42071,0.93575c0.85711,2.81275 -2.46085,1.08094 -3.41666,0.52333c-1.02781,-0.24744 -1.9156,-0.27838 -2.97798,-0.27838h-0.63717c0,0 -0.45014,0.00001 -0.54148,-0.40448z" fill="#dc94e7" stroke="none" stroke-width="0.5" stroke-linecap="butt"/><path d="M220.11556,205.30494c0.3401,0.26053 1.41335,1.07701 0.9451,1.68232c-0.51816,0.66983 -2.19713,-0.28227 -3.25778,-0.96552c0.61631,-0.29985 1.16038,-0.68291 1.64656,-1.15405c0.23748,0.13433 0.46083,0.27998 0.66613,0.43724z" fill="#9362ec" stroke="none" stroke-width="0.5" stroke-linecap="butt"/><path d="M224.50927,203.68581c0.90197,1.95065 -0.90818,2.29874 -2.30106,1.62972c-0.83847,-0.23545 -1.65277,-0.49153 -2.46244,-0.75366c0.66994,-0.73562 1.22469,-1.65798 1.70771,-2.78181c1.38816,0.30281 2.61016,0.94199 3.0558,1.90576z" fill="#9362ec" stroke="none" stroke-width="0.5" stroke-linecap="butt"/><path d="M215.55997,204.86655c-0.44827,-0.09541 -0.92133,-0.15147 -1.43284,-0.15027c0,0 -0.55752,0 -0.55752,-0.55752c0,-0.55752 0.55752,-0.55752 0.55752,-0.55752c1.9216,0.00398 4.45698,0.53054 5.98843,1.70371c0.3401,0.26053 1.41335,1.07701 0.9451,1.68232c-0.66859,0.8643 -3.2699,-0.97184 -3.9817,-1.44637c-0.34543,-0.09366 -0.69007,-0.19023 -1.0342,-0.28854l-0.47999,-0.38078c0,0 -0.00172,-0.00172 -0.00479,-0.00502z" fill="none" stroke="#000000" stroke-width="1" stroke-linecap="butt"/><path d="M216.4068,203.16169c-0.35691,-0.4283 0.07139,-0.78523 0.07139,-0.78523c1.75902,-1.41781 6.99466,-0.93211 8.03108,1.30933c0.90197,1.95065 -0.90818,2.29874 -2.30106,1.62972c-1.77244,-0.49774 -3.43691,-1.08759 -5.17796,-1.63201l-0.075,-0.12278l-0.0365,0.03651l-0.2459,-0.2459c-0.08811,-0.02769 -0.1792,-0.08541 -0.26605,-0.18964z" fill="none" stroke="#000000" stroke-width="1" stroke-linecap="butt"/><path d="M218.12549,201.12595c-0.00069,-0.00103 -0.00137,-0.00205 -0.00206,-0.00308c-0.30926,-0.46389 0.15463,-0.77314 0.15463,-0.77314c1.42629,-0.88531 6.77622,-1.17922 7.42071,0.93575c0.85711,2.81275 -2.46085,1.08094 -3.41666,0.52333c-1.02781,-0.24744 -1.9156,-0.27838 -2.97798,-0.27838h-0.63717c0,0 -0.45014,0.00001 -0.54148,-0.40448z" fill="#9362ec" stroke="#000000" stroke-width="1" stroke-linecap="butt"/></g><g><path d="M246.65483,209.64192c7.94441,0 15.6222,-2.38989 23.5533,-2.40159c0.3789,-0.01777 0.63336,0.10883 0.80389,0.27848c0.18354,0.15611 0.33101,0.3997 0.34435,0.77983l0.08675,1.08596c-0.01103,4.69311 -2.81055,6.27771 -6.8464,7.92873c-3.46341,1.41684 -7.95033,3.22171 -11.08007,3.22171c-4.13009,0 -8.3331,0.47822 -12.24293,-1.10593c-2.50729,-1.01588 -5.8045,-3.67786 -4.59298,-6.89245c0.63231,-1.67774 1.61924,-1.61351 2.92673,-2.33261c0,0 0.71675,-0.38595 1.25518,0.11412c1.99852,-0.58822 3.69089,-0.67626 5.79218,-0.67626z" fill="#ab9efa" stroke="none" stroke-width="0.5" stroke-linecap="butt"/><path d="M270.20813,207.24032c0.3789,-0.01777 0.63336,0.10882 0.80389,0.27848c0.18354,0.15611 0.331,0.3997 0.34435,0.77983l0.08676,1.08598c-0.01103,4.6931 -2.81055,6.2777 -6.84642,7.92873c-3.46341,1.41684 -7.95033,3.22171 -11.08007,3.22171c-4.13009,0 -8.3331,0.47822 -12.24293,-1.10593c-2.22959,-0.90338 -5.0838,-3.10839 -4.83681,-5.84614c0.93192,0.79199 1.83944,1.52222 2.77161,2.18458c1.54318,1.29335 3.19176,2.19591 5.15314,2.73973c0.52442,0.18922 1.07098,0.36232 1.64427,0.51872c0,0 0.34247,0.0934 0.64202,-0.06463c0.94223,0.12144 1.95462,0.18022 3.05305,0.17883c5.80039,0.58745 14.9546,-2.20031 18.21022,-7.08373c0.4765,-1.56444 0.70156,-3.2451 0.32281,-4.7666c0.65648,-0.03113 1.31443,-0.04856 1.97411,-0.04954z" fill="#9362ec" stroke="none" stroke-width="0.5" stroke-linecap="butt"/><path d="M246.65483,209.64193c7.94441,0 15.62222,-2.3899 23.5533,-2.40159c0.3789,-0.01777 0.63336,0.10882 0.80389,0.27848c0.18354,0.15611 0.331,0.3997 0.34435,0.77983l0.08676,1.08598c-0.01103,4.6931 -2.81055,6.2777 -6.84642,7.92873c-3.46341,1.41684 -7.95033,3.22171 -11.08007,3.22171c-4.13009,0 -8.3331,0.47822 -12.24293,-1.10593c-2.50729,-1.01588 -5.8045,-3.67786 -4.59298,-6.89245c0.63231,-1.67774 1.61924,-1.6135 2.92673,-2.33259c0,0 0.71676,-0.38595 1.25518,0.11411c1.99852,-0.58822 3.69089,-0.67626 5.79218,-0.67626z" fill="none" stroke="#000000" stroke-width="1" stroke-linecap="butt"/><path d="M243.9101,201.83663c0,0 6.3901,-3.96572 9.19295,-4.65741c4.09319,-1.01012 5.9888,0.79764 5.9888,0.79764c0,0 4.39459,0.75358 6.26754,0.3767c3.67902,-0.74032 4.53982,-2.34947 4.53982,-2.34947c0,0 1.4028,1.64035 0.131,3.36975c-1.29216,1.75706 -3.81923,3.40628 -3.81923,3.40628c0,0 11.5832,10.8123 -9.82268,14.13838c-26.36163,4.09609 -14.45097,-7.79122 -14.45097,-7.79122c0,0 -0.78383,-0.86549 -1.01696,-1.41404c-0.25151,-0.59179 -0.44117,-2.01687 -0.44117,-2.01687c0,0 -3.60204,0.34806 -4.92069,-0.73335c-0.62871,-0.5156 0.25577,-2.68164 0.43922,-2.88802c0.57532,-0.64724 7.91238,-0.23839 7.91238,-0.23839z" fill="#ae1c51" stroke="#000000" stroke-width="0" stroke-linecap="round"/><path d="M253.10305,197.1792c4.09319,-1.01012 5.9888,0.79764 5.9888,0.79764c0,0 3.18371,0.54594 5.28638,0.47606c-0.24955,0.05368 -0.58317,0.22204 -0.62979,0.73481c-0.07571,0.83285 0.75714,0.90856 0.75714,0.90856c2.19369,0.17554 4.23397,-0.94561 6.05395,-2.12998c-0.02462,0.43887 -0.17055,0.91966 -0.52933,1.40752c-1.29216,1.75706 -3.81923,3.40628 -3.81923,3.40628c0,0 0.60956,0.569 1.29061,1.48609c-0.56614,-0.47697 -1.10999,0.06688 -1.10999,0.06688c-0.07644,0.07814 -0.16098,0.15063 -0.25211,0.2185c-0.39683,0.06129 -0.75367,0.26594 -1.05122,0.55234c-1.31195,0.53898 -2.83302,0.91943 -2.51144,2.53921c0.20752,1.04529 3.34492,2.41526 4.27572,2.00803c1.26035,-0.55141 1.16696,-2.10439 1.05245,-3.18284c-0.04455,-0.41957 0.09405,-0.96988 -0.11479,-1.30523c0.04779,-0.13427 0.06969,-0.29734 0.01379,-0.47189c2.21809,3.25883 4.35987,9.77605 -11.41569,12.22727c-7.59402,1.17997 -12.01203,1.03356 -14.45365,0.22702c0.36146,-0.46116 0.73227,-0.91205 1.12577,-1.35466c1.32342,-1.32372 3.78504,-2.35589 4.67282,-3.94939c1.1202,-2.01067 -0.15893,-5.00594 -1.37513,-7.71178c3.6641,-0.94062 8.70312,-3.76042 5.69255,-6.609c0.38591,-0.14758 0.74125,-0.2647 1.05239,-0.34148z" fill="#710c65" stroke="#000000" stroke-width="0" stroke-linecap="butt"/><path d="M243.9101,201.83663c0,0 6.3901,-3.96572 9.19295,-4.65741c4.09319,-1.01012 5.9888,0.79764 5.9888,0.79764c0,0 4.39459,0.75358 6.26754,0.3767c3.67902,-0.74032 4.53982,-2.34947 4.53982,-2.34947c0,0 1.4028,1.64035 0.131,3.36975c-1.29216,1.75706 -3.81923,3.40628 -3.81923,3.40628c0,0 11.5832,10.8123 -9.82268,14.13838c-26.36163,4.09609 -14.45097,-7.79122 -14.45097,-7.79122c0,0 -0.78383,-0.86549 -1.01696,-1.41404c-0.25151,-0.59179 -0.44117,-2.01687 -0.44117,-2.01687c0,0 -3.60204,0.34806 -4.92069,-0.73335c-0.62871,-0.5156 0.25577,-2.68164 0.43922,-2.88802c0.57532,-0.64724 7.91238,-0.23839 7.91238,-0.23839z" fill="none" stroke="#000000" stroke-width="1" stroke-linecap="round"/><path d="M244.2532,209.12729h-2.23009" fill="none" stroke="#000000" stroke-width="1" stroke-linecap="round"/><path d="M240.73651,205.86793l1.54391,-0.42887" fill="none" stroke="#000000" stroke-width="1" stroke-linecap="round"/><path d="M265.8679,202.60857l-4.11709,-0.17155" fill="none" stroke="#000000" stroke-width="1" stroke-linecap="round"/><path d="M239.68559,205.82929c-0.21867,1.09339 -1.31206,0.87471 -1.31206,0.87471l-0.29571,-0.0674c-0.37169,-0.02859 -0.74336,-0.05719 -1.11504,-0.08578c0,0 -1.11175,-0.08552 -1.02624,-1.19728c0.08552,-1.11177 1.19728,-1.02624 1.19728,-1.02624c0.37169,0.02859 0.74336,0.05718 1.11504,0.08577l0.56203,0.10415c0,0 1.09339,0.21867 0.87471,1.31206z" fill="#000000" stroke="none" stroke-width="0.5" stroke-linecap="butt"/><path d="M268.6984,200.97888c0,0.72492 -0.47128,0.97855 -0.80107,1.06729c-0.24821,0.15795 -0.49641,0.31589 -0.7446,0.47384c0,0 -0.94072,0.59863 -1.53936,-0.34208c-0.59864,-0.94072 0.34208,-1.53935 0.34208,-1.53935c0.3145,-0.20013 0.629,-0.40028 0.94349,-0.60042l0.68441,-0.17433c0,0 1.11504,0 1.11504,1.11504z" fill="#000000" stroke="none" stroke-width="0.5" stroke-linecap="butt"/><path d="M263.80936,208.35533c0,1.11504 -1.11504,1.11504 -1.11504,1.11504h-0.17155c-4.74653,-0.01286 -8.88976,1.35673 -13.22373,3.09384c0,0 -1.0353,0.41412 -1.44941,-0.62118c-0.14743,-0.36858 -0.11116,-0.65842 -0.00329,-0.87889c-0.15165,0.07212 -1.00656,0.42769 -1.48709,-0.46473c-0.45643,-0.84766 0.21308,-1.35752 0.40452,-1.481c-0.0905,-0.08843 -0.17494,-0.20303 -0.24853,-0.3502c-0.49866,-0.99733 0.49866,-1.49599 0.49866,-1.49599l0.17155,-0.08577c4.30326,-2.14435 9.01365,-4.42724 13.96471,-4.05998c0,0 1.11175,0.08552 1.02624,1.19728c-0.0412,0.53566 -0.32064,0.79338 -0.59918,0.91663c0.22858,-0.01922 0.45807,-0.03766 0.6885,-0.05537l0.25706,-0.00329c0,0 1.11504,0 1.11504,1.11504c0,0.5892 -0.31133,0.86706 -0.60498,0.9981c0.3281,0.09464 0.77653,0.35334 0.77653,1.06045z" fill="#ab9efa" stroke="none" stroke-width="0.5" stroke-linecap="butt"/><path d="M246.65483,206.81142c0,0 -1.8321,-1.56576 -2.23807,-2.43784c-0.36058,-0.77459 -0.07779,-2.53697 -0.07779,-2.53697" fill="none" stroke="#000000" stroke-width="1" stroke-linecap="round"/><path d="M261.15016,203.12649c0,0 0.47612,0.03663 0.78123,0.37353c-0.07751,0.31265 -0.15501,0.62528 -0.23252,0.93793c-0.0322,0.31818 -0.03257,0.5594 -0.03575,0.7599c-0.02847,0.01572 -0.05719,0.02986 -0.0859,0.04256c0.02842,-0.00239 0.05686,-0.00477 0.0853,-0.00714c-0.00836,0.44968 -0.04251,0.69602 -0.52239,1.17837c-0.6959,0.69947 -1.22637,2.04304 -2.18718,2.45377c-2.47385,1.05753 -4.75482,-2.27265 -6.30827,-4.18342c2.72779,-1.06156 5.57446,-1.77292 8.50549,-1.5555z" fill="#9362ec" stroke="#000000" stroke-width="0" stroke-linecap="butt"/><path d="M247.42679,209.12728c0,0 4.35217,-2.00359 6.78064,-2.72934c2.54123,-0.75945 8.1438,-1.73084 8.1438,-1.73084" fill="none" stroke="#000000" stroke-width="1" stroke-linecap="round"/><path d="M247.76987,211.18583c0,0 4.02549,-1.66891 6.44128,-2.28309c2.62707,-0.6679 8.74047,-1.57668 8.74047,-1.57668" fill="none" stroke="#000000" stroke-width="1" stroke-linecap="round"/><path d="M263.80936,208.35533c0,1.11504 -1.11504,1.11504 -1.11504,1.11504h-0.17154c-4.74653,-0.01286 -8.88976,1.35673 -13.22373,3.09384c0,0 -1.03529,0.41412 -1.4494,-0.62118c-0.14743,-0.36858 -0.11116,-0.65842 -0.0033,-0.87889c-0.15165,0.07212 -1.00656,0.42769 -1.48708,-0.46473c-0.45642,-0.84765 0.21307,-1.35752 0.4045,-1.481c-0.0905,-0.08843 -0.17494,-0.20302 -0.24852,-0.35019c-0.49866,-0.99732 0.49866,-1.49599 0.49866,-1.49599l0.17155,-0.08577c4.30326,-2.14435 9.01365,-4.42725 13.96471,-4.05998c0,0 1.11175,0.08552 1.02624,1.19728c-0.04121,0.53567 -0.32064,0.79338 -0.59918,0.91663c0.22857,-0.01922 0.45807,-0.03764 0.6885,-0.05537l0.25707,-0.00329c0,0 1.11504,0 1.11504,1.11504c0,0.5892 -0.31133,0.86706 -0.60498,0.9981c0.3281,0.09463 0.77653,0.35334 0.77653,1.06045z" fill="none" stroke="#000000" stroke-width="1" stroke-linecap="butt"/></g><g stroke="#000000" stroke-linecap="round"><path d="M249.25102,194.60124c0,0 4.0674,1.30546 7.99658,0.40524c1.60456,-0.36762 2.43704,-3.67073 2.43704,-3.67073c0,0 3.25064,2.17515 3.06355,3.22291c-0.44874,2.513 -3.85374,9.96235 -5.29364,9.99831c-1.92823,0.04815 -6.69027,-6.53097 -6.69027,-6.53097z" fill="#0045d8" stroke-width="0"/><path d="M262.7482,194.55867c-0.44873,2.51301 -3.85374,9.96235 -5.29364,9.99831c-1.92823,0.04815 -6.69027,-6.53097 -6.69027,-6.53097c0,0 4.36514,2.54168 5.74144,3.06129c1.80158,0.68018 3.63679,-8.63749 3.8286,-9.28874c0.93822,0.69714 2.54703,2.01427 2.41386,2.76011z" fill="#080f95" stroke-width="0"/><path d="M249.25102,194.60123c0,0 4.0674,1.30545 7.99658,0.40524c1.60456,-0.36762 2.43704,-3.67073 2.43704,-3.67073c0,0 3.25064,2.17516 3.06355,3.22291c-0.44873,2.51301 -3.85374,9.96235 -5.29364,9.99831c-1.92823,0.04815 -6.69027,-6.53097 -6.69027,-6.53097" fill="none" stroke-width="1"/></g></g><path d="M176.16667,243.83333v-127.66667h127.66667v127.66667z" fill="none" stroke="none" stroke-width="NaN" stroke-linecap="butt"/><g><path d="M270.59515,179.48948c-1.37479,0.34778 -2.42166,-1.28189 -4.77816,-2.2661c-2.40279,-1.00353 -4.97171,-1.64403 -5.29914,-1.97175c-0.91654,-0.91735 0.05453,-2.10824 0.58228,-2.83589c0.10144,-0.13986 3.41133,-0.46684 6.56699,-0.18187c2.65512,0.23977 5.20573,0.9612 5.59771,2.11085c0.03109,0.09118 0.05321,0.18345 0.06702,0.27614c0.01794,0.08022 0.03114,0.16245 0.03927,0.24638c0.04041,0.41749 -0.94044,4.15791 -2.77597,4.62224z" fill="#0045d8" stroke="none" stroke-width="0.5" stroke-linecap="butt"/><path d="M270.59516,179.48948c-1.37479,0.34778 -2.42166,-1.2819 -4.77816,-2.2661c-2.40279,-1.00353 -4.97172,-1.64403 -5.29914,-1.97175c-0.33,-0.33029 -0.41529,-0.69604 -0.36469,-1.06286c2.05887,-0.22813 4.09642,-0.42805 4.68899,-0.26989c2.93946,0.78456 4.982,2.8472 7.25346,4.32518c-0.40802,0.60769 -0.91003,1.09604 -1.50046,1.24542z" fill="#080f95" stroke="none" stroke-width="0.5" stroke-linecap="butt"/><path d="M270.59516,179.48948c-1.37479,0.34778 -2.42166,-1.2819 -4.77816,-2.2661c-2.40279,-1.00353 -4.97172,-1.64403 -5.29914,-1.97175c-0.91654,-0.91734 0.05453,-2.10824 0.58228,-2.8359c0.10144,-0.13986 3.41133,-0.46684 6.56699,-0.18188c2.65511,0.23977 5.20574,0.9612 5.59771,2.11086c0.03109,0.09118 0.05321,0.18344 0.06701,0.27615c0.01794,0.08022 0.03114,0.16245 0.03927,0.24637c0.04041,0.41749 -0.94043,4.15791 -2.77597,4.62225z" fill="none" stroke="#000000" stroke-width="1" stroke-linecap="butt"/><g fill="none" stroke="none" stroke-width="1" stroke-linecap="butt" font-family="sans-serif" font-weight="normal" font-size="12" text-anchor="start"/><g stroke="#000000" stroke-linecap="round"><path d="M221.18248,180.86211c0,0 -10.26791,-24.02097 12.48392,-25.5271c23.32837,-1.5443 20.89535,19.30923 20.89535,19.30923c0,0 5.68866,-5.43885 6.64089,-4.96659c0.80375,0.39862 -0.04863,5.46126 -0.69787,7.4247c-0.47975,1.45084 -1.0516,4.54729 -2.41174,4.84406c-0.8561,0.18678 -4.66895,-2.33764 -4.66895,-2.33764c0,0 -7.07843,4.79083 -13.76128,6.71541c-6.59921,1.9005 -16.29634,1.67043 -16.29634,1.67043c0,0 -7.21015,-0.21076 -7.59341,-2.65262c-0.32658,-2.08067 5.40943,-4.47989 5.40943,-4.47989z" fill="#aa96c7" stroke-width="0"/><path d="M249.4871,182.00107c-0.03264,0.01833 -1.45468,-1.98437 -1.45468,-1.98437l-2.98191,2.81459l-5.42833,-6.82753l-6.48482,4.85309l-1.48174,-6.42911c0,0 -11.20833,4.40331 -11.21787,4.37362c-1.88079,-5.8523 -5.43071,-22.23115 13.22865,-23.46636c23.32837,-1.5443 20.89535,19.30923 20.89535,19.30923c0,0 5.55408,3.78996 5.50605,3.95599c-0.42214,1.45963 -0.99317,3.13202 -1.97478,3.34619c-0.8561,0.18678 -4.66895,-2.33764 -4.66895,-2.33764c0,0 -1.57342,1.06491 -3.93697,2.39231z" fill="#a7649a" stroke-width="0"/><path d="M255.07491,176.08822l2.95166,-1.65487l-0.75578,5.05205z" fill="#a7649a" stroke-width="0.5"/><path d="M233.66637,155.33501c23.32837,-1.5443 20.89535,19.30923 20.89535,19.30923c0,0 5.68866,-5.43885 6.64089,-4.96659c0.80375,0.39862 -0.04863,5.46126 -0.69787,7.4247c-0.47975,1.45084 -1.0516,4.54729 -2.41174,4.84406c-0.8561,0.18678 -4.66895,-2.33764 -4.66895,-2.33764c0,0 -7.07843,4.79083 -13.76128,6.71541c-6.59921,1.9005 -16.29634,1.67043 -16.29634,1.67043c0,0 -7.21015,-0.21076 -7.59341,-2.65262c-0.32658,-2.08067 5.40943,-4.47989 5.40943,-4.47989c0,0 -10.2679,-24.02096 12.48393,-25.52709z" fill="none" stroke-width="1"/></g><g stroke="#000000" stroke-linecap="round"><path d="M260.10808,166.94459c0,0 -1.58405,3.56323 -2.57586,5.04693c-0.85645,1.28121 -3.0287,3.33727 -3.0287,3.33727c0,0 -11.18447,-4.15486 -18.70202,-4.40148c-7.67866,-0.25191 -17.43841,1.3814 -17.43841,1.3814c0,0 -5.11308,-17.5041 -1.74192,-20.4734c2.45472,-2.1621 9.83883,-4.63589 17.2248,-4.67172c3.36632,-0.01633 12.9964,0.03809 16.35505,2.83548c4.50148,3.74926 9.90705,16.94551 9.90705,16.94551z" fill="#ae1c51" stroke-width="0"/><path d="M260.10808,166.94459c0,0 -1.58405,3.56324 -2.57586,5.04693c-0.85645,1.28121 -3.02869,3.33727 -3.02869,3.33727c0,0 -5.41634,-2.01209 -11.24405,-3.31897c-0.15254,-0.0342 1.21057,-14.25196 3.68811,-20.02101c0.82041,-1.91037 2.41793,-2.68566 3.25344,-1.98976c4.50148,3.74927 9.90705,16.94552 9.90705,16.94552z" fill="#710c65" stroke-width="0.5"/><path d="M257.53222,171.99153c-0.85645,1.28121 -3.02869,3.33727 -3.02869,3.33727c0,0 -11.18447,-4.15486 -18.70202,-4.40146c-7.67866,-0.25191 -17.4384,1.3814 -17.4384,1.3814c0,0 -5.11308,-17.50411 -1.74192,-20.4734c2.45473,-2.16211 9.83883,-4.63589 17.2248,-4.67172c3.36632,-0.01633 12.9964,0.03808 16.35503,2.83547c4.50148,3.74927 9.90705,16.94552 9.90705,16.94552c0,0 -1.58405,3.56323 -2.57586,5.04692z" fill="none" stroke-width="1"/></g><g stroke="#000000" stroke-linecap="round"><path d="M219.65092,177.89851c0,0 -3.749,1.29198 -5.43975,2.11435c-1.71665,0.83496 -4.78365,2.85823 -4.78365,2.85823c0,0 1.24505,-3.99336 2.15177,-5.82382c0.8611,-1.73836 3.15876,-4.89691 3.15876,-4.89691l-9.43579,1.53559c0,0 7.59916,-13.45106 11.03177,-15.32391c2.04725,-1.11698 10.44529,3.16301 10.44529,3.16301c0,0 1.01101,-2.79053 1.76902,-4.11793c0.69025,-1.20875 2.59478,-3.52384 2.59478,-3.52384c0,0 2.08782,5.96128 3.3999,8.819c1.36689,2.97706 4.64375,8.70001 4.64375,8.70001l15.02888,3.52437l-0.712,6.79044l-6.26936,-5.61687l-2.25549,3.70353l-5.79202,-8.40146l-4.53885,4.54689l-1.59919,-4.94861c0,0 -10.71186,3.62584 -13.05092,5.06384c-0.63761,0.39199 -0.34688,1.83412 -0.34688,1.83412z" fill="#346def" stroke-width="0"/><path d="M221.89008,168.41424l-12.46255,14.45685c0,0 1.24505,-3.99336 2.15176,-5.82382c0.86109,-1.73836 3.15876,-4.89691 3.15876,-4.89691l-9.43578,1.53558c0,0 7.59915,-13.45105 11.03177,-15.32391c2.04724,-1.11699 10.4453,3.16301 10.4453,3.16301c0,0 1.011,-2.79053 1.76901,-4.11792c0.69025,-1.20875 2.59478,-3.52383 2.59478,-3.52383l-1.38126,12.03145c0,0 -9.39519,-3.54609 -11.55513,-3.02125c-3.38993,0.82371 -7.55048,8.23747 -7.55048,8.23747z" fill="#45afff" stroke-width="0"/><path d="M244.47427,174.23999l-0.31758,4.37127l-3.50949,-5.0906z" fill="#45afff" stroke-width="0"/><path d="M209.42753,182.87109c0,0 1.24505,-3.99336 2.15176,-5.82382c0.86109,-1.73836 3.15876,-4.89691 3.15876,-4.89691l-9.43578,1.53558c0,0 7.59915,-13.45105 11.03177,-15.32391c2.04724,-1.11699 10.4453,3.16301 10.4453,3.16301c0,0 1.011,-2.79053 1.76901,-4.11792c0.69025,-1.20875 2.59478,-3.52383 2.59478,-3.52383c0,0 2.08781,5.96127 3.39989,8.81899c1.36688,2.97706 4.64375,8.70001 4.64375,8.70001l15.02888,3.52437l-0.712,6.79044l-6.26935,-5.61686l-2.2555,3.70353l-5.79203,-8.40146l-4.53886,4.54689l-1.59919,-4.94861c0,0 -10.71186,3.62584 -13.05092,5.06384c-0.63761,0.39199 -0.34688,1.83412 -0.34688,1.83412c0,0 -3.74898,1.29198 -5.43974,2.11435c-1.69076,0.82237 -4.78365,2.8582 -4.78365,2.8582z" fill="none" stroke-width="1"/></g></g><g stroke-linecap="butt"><path d="M229.57005,179.76377c0.36326,1.1539 -0.78136,2.54237 -2.55659,3.10124c-1.77523,0.55887 -3.50882,0.0765 -3.87209,-1.0774c-0.36326,-1.1539 0.78136,-2.54237 2.55659,-3.10124c1.77523,-0.55887 3.50882,-0.0765 3.87209,1.0774z" fill="#000000" stroke="#000000" stroke-width="0"/><path d="M242.64533,178.96112c0.20214,1.33409 -1.7597,2.73765 -4.38187,3.13494c-2.62217,0.3973 -4.91172,-0.36212 -5.11385,-1.6962c-0.20214,-1.33409 1.7597,-2.73765 4.38187,-3.13494c2.62217,-0.3973 4.91172,0.36212 5.11385,1.6962z" fill="#000000" stroke="none" stroke-width="0"/><path d="M243.6195,185.07506c-0.23749,0.89097 -12.32688,5.97475 -13.49342,3.98125c-0.74392,-0.42874 -1.24298,-1.21952 -1.24298,-2.12413c0,-1.36122 1.13003,-2.46471 2.524,-2.46471c0.27743,0 13.64957,-4.7842 12.2124,0.60759z" fill="#ad5893" stroke="#000000" stroke-width="1"/></g><g fill="none" stroke="#000000" stroke-width="1" stroke-linecap="round"><path d="M248.18498,149.23385v10.02035"/><path d="M250.10245,163.08915v-17.07171"/><path d="M252.16742,161.72835v-14.72125"/><path d="M254.0849,147.99677v11.38114"/><path d="M255.85487,157.39858v-7.54619"/></g><g><path d="M203.40812,190.89126c0.72655,-1.60688 2.61815,-2.32052 4.22503,-1.59398c1.60688,0.72655 2.32051,2.61813 1.59396,4.22502c-0.72655,1.60688 -2.61813,2.32051 -4.225,1.59397c-1.60688,-0.72655 -2.32052,-2.61815 -1.59399,-4.22501z" fill="#3f5479" stroke="#000000" stroke-width="1" stroke-linecap="butt"/><path d="M224.20292,183.46733c3.81144,2.63465 3.09415,12.61881 -1.12312,15.53967c-1.62318,1.1242 -3.7384,0.93329 -5.26064,-0.11594c-0.13837,-0.09536 -0.75417,-1.41556 -0.82251,-1.38923c-0.38622,0.14883 -0.93875,1.25559 -2.00742,1.45757c-1.44353,0.27281 -3.42616,-0.37284 -3.42616,-0.37284c0,0 -2.94322,1.35389 -3.7212,0.53055c-4.03775,-4.2731 -2.49995,-9.6385 0.16849,-12.09072c0.69664,-0.6402 3.60346,-0.81296 5.13685,-1.49099c1.40351,-0.62061 0.72271,-1.33732 1.74888,-1.40344c0.2327,-0.01498 1.01749,-0.0792 1.70528,0.17151c0.76044,0.27718 1.46,0.86645 2.44156,0.71869c2.04551,-0.30788 3.08239,-2.99098 5.15999,-1.55484z" fill="#aa96c7" stroke="#000000" stroke-width="0" stroke-linecap="butt"/><path d="M213.41586,199.28623c3.92407,-5.2342 13.91512,-1.31432 10.64134,3.71665c-1.66919,2.56512 -3.66071,0.95978 -5.85959,0.66621c-0.16831,-0.02247 -0.34094,-0.00265 -0.5195,0.04248c-0.79727,0.77947 -2.02105,1.03378 -3.09825,0.54672c-0.19781,-0.08944 -0.38009,-0.19908 -0.54554,-0.32542c-0.89223,-0.68123 -1.2947,-1.84735 -0.99747,-2.94195c-0.16972,-0.62447 0.14949,-1.15493 0.3841,-1.6738z" fill="#a7649a" stroke="#000000" stroke-width="1" stroke-linecap="butt"/><path d="M223.07981,199.00699c-1.62318,1.1242 -3.7384,0.93329 -5.26063,-0.11594c-0.13837,-0.09536 -0.75417,-1.41556 -0.82251,-1.38923c-0.38622,0.14883 -0.93875,1.25559 -2.00742,1.45757c-1.44355,0.2728 -3.42616,-0.37284 -3.42616,-0.37284c0,0 -2.94322,1.35389 -3.7212,0.53055c-0.72625,-0.76857 -1.27212,-1.57252 -1.6635,-2.38849c1.49641,-1.09702 2.72395,-1.81139 3.54286,-3.62256c0.27209,-0.60178 1.22282,-2.10571 1.38158,-2.72412c0.60737,-0.06939 0.50866,-0.0534 1.13388,-0.18008c-0.06871,0.21903 -0.11667,0.44323 -0.14217,0.67234c-0.03708,0.33298 -0.03148,0.68795 0.01148,1.04877c-0.45778,1.3431 0.17182,2.83967 1.49135,3.43629c0.18544,0.08384 0.37521,0.14571 0.56642,0.18673c0.72329,0.37474 1.56621,0.28148 2.41528,-0.62585c0.1128,-0.09831 0.21837,-0.20636 0.31525,-0.32361c0.27543,0.55939 0.73929,1.03024 1.3518,1.3072c0.11709,0.05294 0.23593,0.09714 0.35576,0.13284c0.70044,0.2087 1.43491,0.12754 2.05638,-0.18802c1.6245,-0.37652 3.74569,-1.18838 5.58782,-2.15088c-0.55748,2.24276 -1.62952,4.24503 -3.16627,5.30938z" fill="#a7649a" stroke="#000000" stroke-width="0" stroke-linecap="butt"/><path d="M211.21587,189.55442l1.01846,1.68421c0,0 -0.85282,2.245 -0.90169,3.35172c-0.05481,1.24105 0.31152,3.61255 0.31152,3.61255" fill="none" stroke="#000000" stroke-width="1" stroke-linecap="round"/><path d="M217.57534,189.75986l0.83372,1.60068c0,0 -0.9383,1.78908 -1.19803,2.97036c-0.26663,1.21267 -0.30695,3.80276 -0.30695,3.80276" fill="none" stroke="#000000" stroke-width="1" stroke-linecap="round"/><path d="M224.20292,183.46733c3.81144,2.63465 3.09416,12.6188 -1.12312,15.53968c-1.62318,1.1242 -3.7384,0.93329 -5.26063,-0.11594c-0.13837,-0.09536 -0.75417,-1.41556 -0.82251,-1.38923c-0.38622,0.14883 -0.93875,1.25559 -2.00742,1.45757c-1.44355,0.2728 -3.42616,-0.37284 -3.42616,-0.37284c0,0 -2.94322,1.35389 -3.7212,0.53055c-4.03775,-4.2731 -2.49995,-9.6385 0.16849,-12.09072c0.69665,-0.64019 3.60346,-0.81296 5.13685,-1.49099c1.40351,-0.62061 0.72271,-1.33732 1.74888,-1.40344c0.2425,-0.01562 0.87757,-0.14002 1.60837,0.1196c0.74576,0.26492 1.59433,0.91273 2.53846,0.77061c2.04551,-0.30788 3.08239,-2.99098 5.15999,-1.55484z" fill="none" stroke="#000000" stroke-width="1" stroke-linecap="butt"/><path d="M221.93798,191.98275c1.43001,-3.16273 4.10983,-4.70539 6.48186,-3.63288c2.37204,1.07252 3.13572,4.50585 1.7057,7.66859c-1.43001,3.16273 -3.87447,4.92303 -6.24653,3.85051c-2.37204,-1.07252 -3.37104,-4.72351 -1.94102,-7.88624z" fill="#93c0c3" stroke="none" stroke-width="0" stroke-linecap="butt"/><path d="M223.87901,199.86899c-2.28948,-1.03518 -3.29983,-4.47243 -2.08158,-7.5543c2.75514,1.275 5.47364,2.63036 8.22753,3.92044c-1.44219,3.02579 -3.82862,4.68163 -6.14596,3.63386z" fill="#475f86" stroke="none" stroke-width="0" stroke-linecap="butt"/><path d="M223.02767,190.16525c0.72828,0.43356 1.93321,0.58989 2.41834,0.78931c1.07741,0.44286 3.33235,1.68968 5.39508,2.10733c-0.02698,0.69504 -0.15666,1.41813 -0.39579,2.13894c-2.73434,-1.28171 -5.43401,-2.62703 -8.16977,-3.8935c0.22914,-0.41613 0.48136,-0.79777 0.75215,-1.14208z" fill="#475f86" stroke="none" stroke-width="0" stroke-linecap="butt"/><path d="M221.93798,191.98275c1.43001,-3.16273 4.10983,-4.70539 6.48186,-3.63288c2.37204,1.07252 3.13572,4.50585 1.7057,7.66859c-1.43001,3.16273 -3.87447,4.92303 -6.24653,3.85051c-2.37204,-1.07252 -3.37104,-4.72351 -1.94102,-7.88624z" fill="none" stroke="#000000" stroke-width="1" stroke-linecap="butt"/><path d="M225.16832,192.21958c2.00664,-4.43802 7.01586,-6.8401 11.14782,-4.97186c4.13196,1.86824 5.10711,6.41992 3.10048,10.85794c-2.00664,4.43802 -6.98294,6.52123 -11.11489,4.653c-4.13194,-1.86824 -5.14003,-6.10103 -3.1334,-10.53906z" fill="#3f5479" stroke="#000000" stroke-width="0" stroke-linecap="butt"/><path d="M239.41661,198.10568c-2.00664,4.43802 -6.98294,6.52123 -11.11489,4.653c-3.50748,-1.58589 -4.76398,-4.87562 -3.83625,-8.54839c0.1367,0.14968 0.2914,0.29378 0.46523,0.43137c3.72624,2.9498 11.17834,5.00106 15.22398,1.31705c-0.16779,0.71076 -0.41406,1.43035 -0.73808,2.14696z" fill="#323344" stroke="#000000" stroke-width="0" stroke-linecap="butt"/><path d="M234.8771,188.15456c0.19029,-0.42084 0.68571,-0.60775 1.10654,-0.41747c0.42086,0.19029 0.60775,0.68571 0.41747,1.10654c-0.19029,0.42084 -0.68571,0.60775 -1.10654,0.41747c-0.42086,-0.19029 -0.60775,-0.68571 -0.41747,-1.10654z" fill="#95c2c5" stroke="none" stroke-width="0.5" stroke-linecap="butt"/><path d="M225.16832,192.21958c2.00664,-4.43802 7.01586,-6.8401 11.14782,-4.97186c4.13196,1.86824 5.10711,6.41992 3.10048,10.85794c-2.00664,4.43802 -6.98294,6.52123 -11.11489,4.653c-4.13194,-1.86824 -5.14003,-6.10103 -3.1334,-10.53906z" fill="none" stroke="#000000" stroke-width="1" stroke-linecap="butt"/><path d="M237.89037,199.87582c0,0 -2.16027,1.85609 -6.89047,-0.0484c-2.60707,-1.04965 -5.6652,-2.63047 -5.6652,-2.63047" fill="none" stroke="#000000" stroke-width="1" stroke-linecap="round"/><path d="M239.35822,197.84731c0,0 -2.58649,-0.38088 -4.26395,-0.89019c-2.65974,-0.80755 -10.15458,-3.48757 -10.15458,-3.48757" fill="none" stroke="#000000" stroke-width="1" stroke-linecap="round"/><path d="M225.54042,191.59964c0,0 4.13376,-1.13811 8.13698,0.30137c3.4076,1.22532 6.26346,4.25177 6.26346,4.25177" fill="none" stroke="#000000" stroke-width="1" stroke-linecap="round"/><path d="M227.56926,188.60106c0,0 3.61971,-0.92049 6.70696,0.37664c3.10237,1.30349 6.06918,4.11513 6.06918,4.11513" fill="none" stroke="#000000" stroke-width="1" stroke-linecap="round"/><path d="M226.94892,201.47563c0,0 -1.7329,-3.87805 -0.70664,-7.83874c0.59334,-2.28992 3.50741,-6.06909 3.50741,-6.06909" fill="none" stroke="#000000" stroke-width="1" stroke-linecap="round"/><path d="M229.11523,202.63867c0,0 -1.25279,-5.23602 -0.00382,-8.75325c0.97443,-2.74406 4.95095,-7.05986 4.95095,-7.05986" fill="none" stroke="#000000" stroke-width="1" stroke-linecap="round"/><path d="M232.14734,202.96949c0,0 -1.69623,-1.74285 1.50734,-9.4934c1.03114,-2.49469 3.79674,-5.48529 3.79674,-5.48529" fill="none" stroke="#000000" stroke-width="1" stroke-linecap="round"/><path d="M235.3111,202.19724l4.55631,-10.48306" fill="none" stroke="#000000" stroke-width="1" stroke-linecap="round"/></g></g></g></svg>