<svg version="1.1" xmlns="http://www.w3.org/2000/svg" xmlns:xlink="http://www.w3.org/1999/xlink" width="117.67278" height="162.79287" viewBox="0,0,117.67278,162.79287"><g transform="translate(-179.97395,-110.24042)"><g data-paper-data="{&quot;isPaintingLayer&quot;:true}" fill-rule="nonzero" stroke-linejoin="miter" stroke-miterlimit="10" stroke-dasharray="" stroke-dashoffset="0" style="mix-blend-mode: normal"><path d="M203.327,268.97141c0,0 -4.18546,1.60242 -6.50227,1.14931c-1.77362,-0.34688 -2.66447,-2.04952 -3.40183,-3.69948c-2.02393,-4.52891 -1.43621,-9.50702 -2.74203,-17.112c-0.35565,-2.07125 2.48976,-3.76162 4.57967,-3.9824c1.95471,-0.20649 5.36523,-0.44568 5.36523,-0.44568l32.99367,-2.74654c0,0 4.28322,-0.21614 5.32976,1.35887c2.52026,3.79289 1.85541,8.45305 2.87791,12.89064c0.34652,1.50383 -4.36177,2.44128 -4.36177,2.44128c0,0 -8.63215,2.5655 -14.15719,4.20755c-7.79791,2.31756 -19.98119,5.93845 -19.98119,5.93845z" fill="#4b4b4b" stroke="#000000" stroke-width="3" stroke-linecap="round"/><g stroke="#000000" stroke-linecap="round"><path d="M226.6184,193.03603c0,0 -28.85557,5.26861 -28.52336,-12.52517c0.12238,-6.5558 16.60775,-4.63917 16.60775,-4.63917z" data-paper-data="{&quot;origPos&quot;:null}" fill="#66c8ff" stroke-width="2"/><path d="M218.68088,181.30294c0,0 -16.16095,-2.20972 -15.93554,-2.81271c0.71472,-1.91182 12.69276,-1.11047 12.69276,-1.11047z" data-paper-data="{&quot;origPos&quot;:null}" fill="#0a0a0a" stroke-width="1"/></g><g><path d="M215.64483,199.60519c0,0 2.28235,-14.21873 4.48978,-14.71618c6.62225,-1.49239 21.6618,-0.26517 31.72707,-0.0604c1.55599,0.03165 2.61147,13.45105 2.61147,13.45105l1.16008,30.3452c0,0 -0.0709,14.80678 -1.76833,14.77224c-15.1102,-0.30739 -32.83851,0.17603 -39.55554,-0.79312c-2.23901,-0.32304 -1.06075,-15.89909 -1.06075,-15.89909z" data-paper-data="{&quot;origPos&quot;:null}" fill="#66c8ff" stroke="#000000" stroke-width="3.5" stroke-linecap="round"/><path d="M234.64921,208.10853c-1.31457,-0.02674 -1.2616,-2.48827 -1.2616,-2.48827c0.10987,-5.10538 0.25503,-11.85174 0.3649,-16.95713c0,0 0.05296,-2.46152 1.36754,-2.43478c1.31457,0.02674 1.2616,2.48827 1.2616,2.48827c-0.10987,5.10538 -0.21971,10.21075 -0.32958,15.31612l-0.03531,1.64101c0,0 -0.05296,2.46152 -1.36754,2.43478z" fill="#ffffff" stroke="none" stroke-width="0.5" stroke-linecap="butt"/><path d="M246.61641,207.9395c-1.31457,-0.02674 -1.24803,-3.1191 -1.24803,-3.1191c0.13801,-6.41379 0.32039,-14.88914 0.4584,-21.30293c0,0 0.06654,-3.09237 1.38111,-3.06562c1.31457,0.02674 1.24803,3.1191 1.24803,3.1191c-0.13801,6.41379 -0.27603,12.82757 -0.41404,19.24138l-0.04435,2.06158c0,0 -0.06654,3.09237 -1.38111,3.06562z" fill="#ffffff" stroke="none" stroke-width="0.5" stroke-linecap="butt"/></g><path d="M252.60179,185.33515c-12.2876,0.61841 -24.20508,1.1824 -29.12008,0.38664c-4.49197,-0.72726 -5.95071,-3.40306 -5.95071,-3.40306c0,0 -1.88964,-2.3349 -2.04198,-3.84698c-0.457,-4.53622 -1.1364,-17.53531 -0.65448,-28.78615c0.01608,-0.37549 0.03911,-0.58597 0.07817,-0.95985c0.11717,-1.12168 0.76519,-5.48335 0.76519,-5.48335c0,0 3.1743,-1.77183 4.91668,-2.31101c5.22712,-1.61756 18.72853,-0.68474 32.89814,-0.84153c1.2843,-0.01421 3.55372,1.56013 3.55372,1.56013c0,0 1.6991,3.03993 1.7331,5.00288c0.21988,12.69086 0.41513,26.73322 0.24402,29.95229c-0.05703,1.07303 -1.75022,5.29128 -1.75022,5.29128z" fill="#582700" stroke="#000000" stroke-width="2.5" stroke-linecap="round"/><path d="M211.35341,144.21607c-0.72047,-1.01977 0.32834,-1.72031 0.32834,-1.72031l1.29858,-0.81809c0.11878,-0.04142 0.23749,-0.08208 0.35618,-0.12199c-1.30589,-5.67221 -0.49203,-12.62837 -0.78722,-18.28107c-0.07655,-1.46594 -0.64403,-5.42166 0.02596,-6.71125c1.1219,-2.15947 2.88942,-1.64859 4.81731,-1.73867c3.28027,-0.15326 6.53601,-0.26635 9.75837,-0.88496c7.98825,-1.52408 15.95403,-2.14906 24.00433,-3.19361c2.54033,-0.32961 5.02761,-0.53511 7.60229,-0.44059c0.70448,0.02586 1.59045,-0.26407 2.10441,0.2051c1.82033,1.66166 1.16912,3.63253 0.93957,5.58731c-0.45789,3.89917 -1.93314,7.46371 -1.8644,11.43185c0.03173,3.03615 -0.29934,6.16819 -0.55236,9.19239c-0.08732,1.04364 0.352,2.9485 -0.68953,3.77695c-2.1356,1.69868 -7.93755,0.76549 -10.52324,0.80045c-7.88429,0.10662 -15.77743,0.0554 -23.64345,0.59868c-2.80751,0.28792 -5.4803,0.6428 -8.14493,1.33589c-0.00902,0.36961 -0.16667,0.85027 -0.85268,1.08297c-0.7443,0.25246 -1.18835,-0.0998 -1.4185,-0.40441c-0.09046,0.03072 -0.18094,0.06193 -0.27146,0.09362l-0.71826,0.529c0,0 -1.04881,0.70052 -1.76929,-0.31925z" fill="#000000" stroke="none" stroke-width="0.5" stroke-linecap="butt"/><g fill="none" stroke="#b9b9b9" stroke-width="3"><path d="M249.54059,189.7655c-0.81328,-1.36104 0.1423,-2.54897 1.41288,-3.72896c1.27058,-1.17997 2.52767,-1.52261 3.18831,-0.54415c1.4007,2.07462 -0.13582,3.00913 -1.13071,3.93307c-1.27059,1.17999 -2.32191,2.26218 -3.47046,0.34004z" stroke-linecap="butt"/><path d="M247.86535,191.64082l2.68953,-2.43951" stroke-linecap="round"/><path d="M244.24256,192.19014c1.27058,-1.17997 2.52767,-1.52261 3.18831,-0.54415c1.4007,2.07462 -0.13582,3.00913 -1.13071,3.93307c-1.27058,1.17998 -2.3219,2.26218 -3.47045,0.34004c-0.81328,-1.36104 0.14229,-2.54897 1.41286,-3.72897z" stroke-linecap="butt"/><path d="M243.84396,195.3549l-2.68953,2.43953" stroke-linecap="round"/><path d="M235.44211,197.23046c0.44258,-1.60971 1.80106,-1.429 3.33805,-0.9435c1.53699,0.4855 2.50174,1.4721 2.22789,2.70164c-0.58063,2.60698 -2.10741,1.71758 -3.3109,1.33743c-1.53699,-0.48549 -2.88007,-0.82223 -2.25503,-3.09555z" stroke-linecap="butt"/><path d="M233.20025,196.78645l3.21419,1.06346" stroke-linecap="round"/><path d="M228.2079,192.75135c0.93686,-1.28449 2.11574,-0.48126 3.35641,0.68791c1.24068,1.16917 1.79356,2.5349 1.13652,3.54606c-1.39313,2.14398 -2.49067,0.60532 -3.46218,-0.31018c-1.24069,-1.16918 -2.35384,-2.10977 -1.03076,-3.92377z" stroke-linecap="butt"/><path d="M228.88936,193.78038l-2.57861,-2.48964" stroke-linecap="round"/><path d="M221.71932,186.55604c0.93686,-1.28447 2.11574,-0.48126 3.35641,0.68791c1.24069,1.16917 1.79356,2.5349 1.13652,3.54606c-1.39312,2.14397 -2.49067,0.60532 -3.46218,-0.31018c-1.24068,-1.16917 -2.35383,-2.10977 -1.03075,-3.92377z" stroke-linecap="butt"/><path d="M222.40078,187.58506l-2.57862,-2.48964" stroke-linecap="round"/></g><g data-paper-data="{&quot;origRot&quot;:0}" stroke="#000000" stroke-linecap="round"><path d="M248.88103,224.15196c0,0 1.39703,-4.55329 2.88832,-4.07303c4.40054,1.41722 9.18678,1.1921 12.79172,4.02577c1.49697,1.17668 0.87135,5.3777 0.87135,5.3777l-5.91545,32.26046c0,0 -0.56615,3.33886 -0.96099,5.2461c-0.42214,2.03916 -2.40545,4.68719 -4.47094,4.14553c-7.58383,-1.9887 -12.685,-1.86901 -17.08303,-4.28149c-1.60228,-0.87891 -3.24338,-1.91394 -3.42658,-3.69378c-0.23935,-2.32496 1.78205,-6.30166 1.78205,-6.30166z" data-paper-data="{&quot;origPos&quot;:null}" fill="#ff0000" stroke-width="3"/><path d="M257.5819,270.1692c0,0 -6.55903,0.78281 -11.51522,-0.67627c-3.80255,-1.11946 -11.73661,-4.51408 -11.73661,-4.51408c0,0 -0.5488,-2.85812 -0.16352,-4.39952c0.40587,-1.62378 2.19069,-3.71087 2.19069,-3.71087l22.94582,5.93052z" data-paper-data="{&quot;origPos&quot;:null}" fill="#976e57" stroke-width="2"/><path d="M248.86566,224.47922c0,0 1.39703,-4.5533 2.88832,-4.07303c4.40053,1.41722 9.18678,1.1921 12.79172,4.0258c1.49697,1.17668 0.87135,5.37769 0.87135,5.37769l-5.91545,32.26046c0,0 -0.56614,3.33888 -0.96097,5.24611c-0.42214,2.03916 -2.40545,4.68718 -4.47094,4.14553c-7.58383,-1.9887 -12.68501,-1.869 -17.08304,-4.28148c-1.60228,-0.87891 -3.24336,-1.91395 -3.42657,-3.69378c-0.23935,-2.32496 1.78204,-6.30166 1.78204,-6.30166z" data-paper-data="{&quot;origPos&quot;:null}" fill="#4b4b4b" stroke-width="3"/></g><g><g><g fill="#582700"><path d="M277.54867,190.82439c0.13944,-0.04429 -5.46125,1.61829 -10.76064,3.19207c-4.70603,1.39755 -9.17448,2.72509 -9.17448,2.72509c0,0 -4.1123,-7.09391 -3.39905,-9.67407c0.57216,-2.06979 14.88411,-5.09635 15.27362,-5.39723c1.34865,-1.04181 13.89464,5.19994 16.08952,5.81889c3.56909,1.00644 7.31602,12.77317 10.56909,20.5626c1.75443,4.20098 -28.41856,-14.10868 -18.59806,-17.22735z" stroke="#000000" stroke-width="3" stroke-linecap="round"/><path d="M279.44864,193.22452c-0.0782,0.59082 3.31711,3.7728 3.70528,4.16797c2.76812,2.81793 7.12244,6.64977 9.26242,10.18548c1.35536,2.23936 2.18645,1.36349 -0.56632,1.1771c-1.21904,-0.08255 -3.64878,-1.89828 -4.6803,-2.55088c-4.35501,-2.75525 -10.04325,-6.26162 -12.72546,-10.53625c-0.97547,-1.55461 0.39859,-7.33543 2.76743,-7.2988c0.18447,-0.09868 0.38464,-0.17655 0.59809,-0.22962c1.36168,-0.33856 2.74783,0.46027 3.09603,1.78426c0.56035,0.42426 0.3051,1.02586 -0.13794,1.61372c-0.19336,0.42443 -0.50781,0.79355 -0.91243,1.05668c-0.22148,0.25525 -0.38613,0.47423 -0.4068,0.63036z" stroke="none" stroke-width="0.5" stroke-linecap="butt"/></g><path d="M242.41516,205.2762c-1.21133,-4.41539 -0.28334,-3.25214 9.21248,-7.20886c9.4958,-3.95672 22.67352,-8.45472 22.67352,-8.45472c0,0 11.55368,19.66241 21.08841,17.69091c0.47035,-0.09726 -1.95562,6.02903 -3.6973,6.98841c-5.49796,3.02846 -19.30309,11.18144 -19.30309,11.18144c0,0 -10.5101,6.23979 -15.70458,6.90783c-5.19448,0.66803 -10.84072,-14.60684 -14.26946,-27.10498z" data-paper-data="{&quot;origPos&quot;:null}" fill="#582700" stroke="#000000" stroke-width="3" stroke-linecap="round"/><path d="M254.104,197.45429c2.74456,0.16994 14.3566,30.03701 12.11943,30.98305" fill="none" stroke="#000000" stroke-width="3" stroke-linecap="round"/><path d="M257.25985,196.59124c4.83011,-0.41107 14.99723,29.61732 12.00827,30.33582" fill="none" stroke="#000000" stroke-width="3" stroke-linecap="round"/><path d="M270.37531,181.61611c-3.25668,0.82394 -6.37625,2.08978 -9.63866,2.90094c-1.34982,0.33562 -5.42796,1.09656 -6.22836,2.20502c-0.18729,0.25939 0.63692,1.86777 0.75067,2.15017c0.8385,2.08174 1.8635,4.13571 2.49173,6.28676c1.03736,-1.30047 3.65233,-1.10068 5.13924,-1.33356c2.7259,-0.42693 5.70544,-1.17165 8.3233,-2.06674c0.87518,-0.29924 1.62946,-0.63066 2.39076,-0.85431c0.0963,-0.04871 0.192,-0.09803 0.28707,-0.14797c0.37618,-0.09554 0.75252,-0.19053 1.12902,-0.28489l-0.00014,-0.00052l1.21805,-0.30285c0.33637,-0.08364 0.67874,0.11369 0.76476,0.44073c0.08602,0.32704 -0.11691,0.65996 -0.45328,0.7436l-1.21805,0.30285l-0.00015,-0.00056c-0.28843,0.0711 -0.577,0.14174 -0.8657,0.21183c-0.06794,0.0255 -0.13623,0.05025 -0.20499,0.07446c-3.37032,1.75068 -7.44942,2.75182 -11.17136,3.571c-1.23737,0.27235 -2.91617,0.92958 -4.33122,1.00061c0.05445,0.03173 0.10893,0.06349 0.16339,0.09525c3.86959,5.13696 6.47649,11.39489 8.96833,17.25163c0.73263,2.81217 1.63541,5.55427 2.37606,8.37045c0.12529,0.47638 0.77125,2.36117 0.37143,3.07852c0.31744,-0.25241 0.78978,-0.61111 0.92041,-0.66116c0.72407,-0.27745 1.22078,-0.63776 1.95269,-0.98461c5.44404,-2.33587 10.57303,-5.22748 15.79912,-7.93709c1.72254,-1.43905 5.0458,-2.75996 5.93165,-5.02585c0.14886,-0.38075 -0.69196,-1.91372 -0.84614,-2.3243c-0.88649,-2.36089 -1.3655,-5.02841 -2.59287,-7.23736c-0.92823,-3.49432 -2.99519,-6.68067 -4.66444,-9.8825c-0.931,-1.78579 -1.72157,-3.40323 -3.82337,-4.00615c-3.55378,-0.44642 -7.16982,-2.51998 -10.37746,-4.06953c-0.93295,-0.45069 -1.64392,-1.16666 -2.56149,-1.56383zM269.17774,180.66712c0.00023,-0.00106 0.00047,-0.00213 0.00071,-0.00318c0.13306,-0.59738 0.74744,-0.46798 0.74744,-0.46798c0.17716,0.03903 0.34518,0.08764 0.50597,0.14405l0.42512,-0.10571c0,0 0.60903,-0.15143 0.76477,0.44075c0.02729,0.10378 0.03109,0.194 0.0188,0.27226c0.59875,0.37703 1.16264,0.80829 1.85902,1.13953c3.14893,1.49786 6.59902,3.51906 10.07691,3.96713c2.80033,0.81997 3.71105,2.90046 5.00274,5.22478c1.64908,2.96742 3.54049,6.13562 4.3937,9.41411c1.34709,2.42441 1.73053,5.33093 2.76766,7.89188c0.24279,0.59953 0.93634,1.6726 0.73325,2.35512c-0.79184,2.66118 -4.54642,4.17343 -6.44969,5.79148c-5.25097,2.78573 -10.48844,5.68314 -15.98788,8.04172c-0.69655,0.31929 -3.72729,2.46431 -4.53248,1.70127c-0.32283,-0.30594 -0.0882,-2.55103 -0.24841,-3.15195c-0.81532,-3.05809 -1.75024,-6.03057 -2.55858,-9.07679c-2.40619,-5.65543 -4.90424,-11.76181 -8.62082,-16.73287c-0.132,-0.07438 -0.264,-0.14878 -0.39599,-0.22317l-0.64556,-0.13595c-0.23096,-0.04373 -0.42709,-0.21236 -0.48927,-0.44874c-0.07006,-0.26638 0.05157,-0.53664 0.28086,-0.67295l0.23262,-0.14565c-1.63141,-1.87448 -2.27432,-4.97953 -3.14197,-7.21399c-0.28088,-0.72337 -0.97329,-1.7457 -0.48996,-2.57352c0.87766,-1.50317 5.3947,-2.36729 6.99842,-2.76604c2.96478,-0.73716 5.81241,-1.85023 8.75255,-2.66565z" fill="#000000" stroke="none" stroke-width="0.5" stroke-linecap="butt"/><path d="M270.36495,181.57663c0.91757,0.39718 1.63288,1.11229 2.56584,1.56299c3.20764,1.54954 6.8482,3.62686 10.402,4.07329c2.1018,0.60292 2.90371,2.22831 3.83471,4.0141c1.66925,3.20183 3.74821,6.41413 4.67643,9.90845c1.22738,2.20894 1.70417,4.89236 2.59067,7.25325c0.15418,0.41059 0.99356,1.94709 0.84472,2.32784c-0.88585,2.2659 -4.21813,3.59928 -5.94068,5.03834c-5.22607,2.70962 -10.38852,5.61251 -15.83256,7.94837c-0.73191,0.34686 -1.23185,0.70672 -1.95592,0.98417c-0.13062,0.05005 -0.6043,0.4085 -0.92174,0.66091c0.39982,-0.71734 -0.2481,-2.6026 -0.37338,-3.07897c-0.74065,-2.81618 -1.6556,-5.56356 -2.38824,-8.37573c-2.49182,-5.85673 -5.11547,-12.16181 -8.98507,-17.29877c-0.05445,-0.03173 -0.10889,-0.06357 -0.16334,-0.09532c1.41505,-0.07104 3.0966,-0.73445 4.33397,-1.00679c3.72194,-0.81917 7.83197,-1.84135 11.20228,-3.59202c0.06875,-0.02421 0.13788,-0.04908 0.20581,-0.07456c0.2887,-0.0701 0.58068,-0.14099 0.86912,-0.2121l0.00014,0.00055l1.22268,-0.30278c0.33637,-0.08364 0.53207,-0.33536 0.44607,-0.66241c-0.08602,-0.32704 -0.42567,-0.52418 -0.76203,-0.44055l-1.21384,0.3028l0.00014,0.00052c-0.37651,0.09436 -0.74883,0.18892 -1.12501,0.28445c-0.09507,0.04993 -0.1897,0.09908 -0.28598,0.14779c-0.76133,0.22367 -1.50687,0.5525 -2.38207,0.85175c-2.61787,0.89508 -5.57893,1.62488 -8.30483,2.05181c-1.48691,0.23288 -4.1757,-0.00455 -5.21307,1.29591c-0.62823,-2.15104 -1.64919,-4.2125 -2.48769,-6.29424c-0.11377,-0.28243 -0.93668,-1.89259 -0.74938,-2.15197c0.80041,-1.10846 4.88538,-1.87639 6.2352,-2.212c3.26241,-0.81117 6.39837,-2.08512 9.65505,-2.90906z" data-paper-data="{&quot;noHover&quot;:false,&quot;origItem&quot;:[&quot;Path&quot;,{&quot;applyMatrix&quot;:true,&quot;segments&quot;:[[[230.82308,152.52668],[0,0],[-0.93988,0.74338]],[[228.33766,155.1429],[0.94139,-0.81156],[-3.23664,2.79023]],[[217.57953,163.04819],[3.97209,-1.58115],[-2.24615,1.33801]],[[214.37799,168.94085],[0.53327,-2.39813],[-0.95612,4.29976]],[[211.99064,182.06795],[0.01066,-4.42845],[-0.7472,2.98879]],[[211.1937,191.43817],[0.307,-3.06867],[-0.05339,0.53367]],[[210.92223,194.45142],[-0.2878,-0.40863],[1.71279,2.43186]],[[219.30646,198.67289],[-2.42854,-1.20161],[6.86452,1.67648]],[[239.98146,203.43859],[-7.00284,-1.16771],[0.95146,0.19601]],[[242.53788,204.03192],[-0.9213,-0.11581],[0.16621,0.02089]],[[243.80278,204.54585],[-0.44366,-0.20624],[-0.68022,-0.7346]],[[243.29624,200.77631],[0,0.60336],[0,-3.56681]],[[243.49813,190.12314],[0.00805,3.55968],[1.09986,-7.69905]],[[248.62011,166.96343],[-2.91121,7.25063],[0.05329,-0.05383]],[[248.78,166.80192],[-0.05329,0.05384],[-1.65725,0.33382]],[[243.46938,166.89261],[1.51307,-0.04199],[-4.5512,0.1263]],[[229.47086,165.94945],[4.42793,1.08501],[-0.08683,-0.00846]],[[229.21129,165.92152],[0.08627,0.01022],[-0.35502,0.00201]],[[228.14624,165.92558],[0.35502,-0.00073],[0,0]],[228.14624,165.92629],[[226.64624,165.92629],[0,0],[-0.41422,0]],[[225.89624,165.17629],[0,0.41422],[0,-0.41422]],[[226.64624,164.42629],[-0.41422,0],[0,0]],[228.14624,164.42629],[[228.14624,164.42695],[0,0],[0.46388,0.00087]],[[229.53787,164.4319],[-0.46387,-0.00238],[0.12507,0.03126]],[[229.91467,164.52296],[-0.12612,-0.02945],[0.948,0.04085]],[[232.93787,164.8319],[-1.10259,-0.09705],[3.29808,0.29029]],[[243.18703,164.82862],[-3.28065,0.2982],[1.78951,-0.16266]],[[249.53285,164.89489],[-1.59443,-1.23936],[0.07225,-2.74287]],[[250.50186,156.68464],[-0.33637,2.72263],[0.04564,-0.36937]],[[250.71591,153.90661],[0.29535,0.25299],[-1.26215,-1.08115]],[[242.84624,153.12628],[1.66228,0],[-4.0176,0]],[[230.82306,152.52665],[4.01487,0.01687],[0,0]]],&quot;closed&quot;:true,&quot;fillColor&quot;:[0,0,0,1]}]}" fill="#66c8ff" stroke="none" stroke-width="0.5" stroke-linecap="butt"/><path d="M263.48626,212.8647c-0.29358,-0.17614 -0.38367,-0.5187 -0.38367,-0.5187l-0.20765,-0.78955c-0.04502,-0.17195 -0.09366,-0.34224 -0.14558,-0.51098l-0.25571,-0.58319l0.04985,-0.02067c-1.58444,-2.7642 -3.55601,-5.9291 -4.67502,-9.01623c-0.02095,-0.0529 -0.04155,-0.10592 -0.06186,-0.15906c-0.06058,-0.09706 -0.12065,-0.19448 -0.18013,-0.29226l-0.05641,0.03532l-0.6044,-0.91262c-0.0528,-0.07578 -0.09326,-0.16153 -0.11793,-0.2553c-0.0581,-0.22094 -0.01732,-0.44387 0.0954,-0.62457l-0.01172,0.00291l-0.1947,-0.74032c-0.16634,-0.24051 -0.33417,-0.47838 -0.50332,-0.71345c0,0 -0.47956,-0.66839 0.20787,-1.13468c0.68741,-0.46629 1.16696,0.20212 1.16696,0.20212c0.01344,0.01878 0.02686,0.03757 0.04029,0.05638c0.19792,0.06326 0.36847,0.19719 0.47207,0.37905l0.43032,0.71631l-0.02187,0.01241l0.04898,0.03649c0.08979,0.21104 0.18289,0.42051 0.27879,0.62865c1.3764,2.11431 2.63234,4.38412 3.69837,6.71702c0.36127,0.57694 0.70536,1.16465 1.02085,1.77073c1.81206,4.25104 3.80578,8.9397 4.66549,13.46332c0.39255,2.06556 0.93844,3.42236 0.67379,5.12868l0.26644,0.01853l-0.07964,1.08292c-0.01719,0.34801 -0.26447,0.65934 -0.62976,0.75016c-0.44847,0.11151 -0.90499,-0.15159 -1.01967,-0.58765l-0.23733,-0.90235c-1.15494,-4.42946 -2.55856,-8.80674 -3.72906,-13.23944z" fill="#ffffff" stroke="none" stroke-width="0.5" stroke-linecap="butt"/><g fill="#fffc96" stroke="#000000" stroke-width="2" stroke-linecap="round"><path d="M270.65758,194.08056c0,0 -0.63994,-4.46029 2.47701,-4.95753c4.98697,-0.79555 7.5749,32.89901 2.44834,34.0262c-2.09461,0.46055 -3.10283,-2.6836 -3.10283,-2.6836l1.86973,-0.64741c0,0 0.98763,-6.34526 0.56955,-14.20774c-0.41229,-7.75352 -2.15535,-12.77349 -2.15535,-12.77349z"/><path d="M262.46269,197.88308c0,0 -3.24836,-2.56972 -1.26702,-3.92834c4.15909,-2.85196 32.2708,22.72991 27.71564,24.49351c-2.75871,1.06809 -4.79389,-2.02423 -4.79389,-2.02423l1.35774,-0.515c0,0 -3.47677,-4.5177 -9.93558,-10.20395c-6.45879,-5.68628 -11.86952,-8.45445 -11.86952,-8.45445z" data-paper-data="{&quot;index&quot;:null}"/></g></g><g data-paper-data="{&quot;index&quot;:null}"><g data-paper-data="{&quot;index&quot;:null}"><path d="M249.564,197.77268c2.41788,-0.87479 5.38652,-6.46811 6.22207,-4.28478c0.42558,1.11212 7.79413,21.57294 7.46051,22.83556c-0.32139,1.21612 -1.06874,2.18001 -2.25501,2.60922c-0.80709,0.29199 -2.19383,0.36192 -3.18537,0.05288c-1.97895,-0.61677 -14.6577,-19.0083 -15.21434,-20.46286c-0.83555,-2.18335 4.55428,0.12478 6.97216,-0.75z" fill="#0091d4" stroke="#000000" stroke-width="1.5" stroke-linecap="butt"/><g stroke-linecap="butt"><path d="M246.82214,190.54229c4.38062,-1.58491 8.8043,-0.58984 9.88056,2.22255c1.07628,2.81238 -1.6024,6.37709 -5.983,7.96203c-4.38062,1.5849 -8.80432,0.58983 -9.8806,-2.22256c-1.07628,-2.81238 1.60241,-6.37709 5.98302,-7.962z" fill="#0091d4" stroke="#000000" stroke-width="1.5"/><path d="M246.82343,200.52924c0,0 -1.78767,0.22236 -3.45576,-0.55173c-0.78999,-0.38065 -2.1797,-1.91643 -2.1797,-1.91643l4.16053,0.25912z" fill="#00aeff" stroke="none" stroke-width="0"/><path d="M250.52287,199.87387l-1.93407,0.64245c0,0 -0.54633,-0.6206 -0.72878,-1.01708c-0.15582,-0.33862 -0.4227,-1.36568 -0.4227,-1.36568l1.70692,-0.28148z" fill="#00aeff" stroke="none" stroke-width="0"/></g><g><path d="M249.31761,196.73588c-6.04319,2.1864 -13.73484,0.34626 -15.98349,-5.52957c-2.24866,-5.87588 0.4385,-11.58533 6.48164,-13.77172c6.04319,-2.1864 13.07469,0.69246 15.32334,6.5683c2.24866,5.87588 0.22167,10.54659 -5.82145,12.73299z" fill="#00699a" stroke="#000000" stroke-width="1.5" stroke-linecap="butt"/><path d="M238.08041,178.99657c0,0 2.00356,0.85696 4.69819,2.28827c2.68809,1.42784 5.44071,4.02175 6.42322,6.58906c1.9674,5.14093 1.13351,7.60699 -3.25726,9.19558c-2.13611,0.77283 -4.55013,0.36858 -6.45079,-0.7376c-2.66778,-1.55264 -5.28381,-4.04609 -6.39945,-6.96138c-1.9674,-5.14093 4.98609,-10.37397 4.98609,-10.37397z" fill="#0091d4" stroke="none" stroke-width="0" stroke-linecap="butt"/><path d="M254.27845,184.76489c0,0 -1.83365,4.74396 -8.97424,7.04938c-7.08257,2.28669 -11.6084,-0.6655 -11.6084,-0.6655" fill="none" stroke="#000000" stroke-width="0.8" stroke-linecap="round"/><path d="M254.83958,190.87312c0,0 -1.71909,2.93155 -8.46026,4.3042c-4.67769,0.95248 -9.63664,0.18381 -9.63664,0.18381" fill="none" stroke="#000000" stroke-width="0.75" stroke-linecap="round"/><path d="M252.82406,182.03581c0,0 -1.2565,2.76472 -8.20287,4.5928c-7.2221,1.90065 -11.70704,-0.37891 -11.70704,-0.37891" fill="none" stroke="#000000" stroke-width="0.8" stroke-linecap="round"/><path d="M233.99582,182.47021c0,0 4.60034,-1.7174 9.50103,-2.19042c3.72066,-0.35915 8.75358,0.43559 8.75358,0.43559" fill="none" stroke="#000000" stroke-width="0.8" stroke-linecap="round"/><path d="M244.53206,177.32949c0,0 3.92306,1.50279 5.89418,7.36757c2.11227,6.28479 0.91707,10.43053 0.91707,10.43053" fill="none" stroke="#000000" stroke-width="0.8" stroke-linecap="round"/><path d="M248.2211,196.78869c0,0 -1.41776,-3.0669 -2.02667,-4.98293c-0.51264,-1.61318 -0.91771,-4.88956 -1.7383,-7.79672c-0.93313,-3.3058 -2.25633,-6.16793 -2.25633,-6.16793" fill="none" stroke="#000000" stroke-width="0.8" stroke-linecap="round"/><path d="M245.41569,197.67081c0,0 -3.89821,-3.19769 -6.13738,-9.59407c-1.42665,-4.07534 -0.04021,-9.76197 -0.04021,-9.76197" fill="none" stroke="#000000" stroke-width="0.8" stroke-linecap="round"/><path d="M239.49645,197.02215c0,0 -2.70008,-2.53252 -3.92042,-8.63751c-0.84742,-4.23948 0.35984,-8.34362 0.35984,-8.34362" fill="none" stroke="#000000" stroke-width="0.8" stroke-linecap="round"/><path d="M234.70489,189.3221c-0.43089,0.1559 -0.93017,-0.10961 -1.11518,-0.59304c-0.18501,-0.48341 0.01433,-1.00169 0.44525,-1.1576c0.43089,-0.1559 0.93018,0.1096 1.11518,0.59303c0.18501,0.48341 -0.01434,1.00172 -0.44524,1.15762z" fill="#00aeff" stroke="none" stroke-width="0" stroke-linecap="butt"/><path d="M234.32452,185.73943c-0.24858,0.08994 -0.5251,-0.03308 -0.6176,-0.2748c-0.0925,-0.2417 0.03404,-0.51056 0.28263,-0.6005c0.24858,-0.08994 0.52509,0.0331 0.6176,0.27479c0.0925,0.2417 -0.03402,0.51056 -0.28262,0.60051z" fill="#00aeff" stroke="none" stroke-width="0" stroke-linecap="butt"/></g></g><path d="M247.26205,201.11418c4.51023,10.18582 4.53454,12.23097 4.53454,12.23097c0.49396,1.30573 -0.85617,1.64725 -0.85617,1.64725c0,0 -2.5352,0.97325 -4.15786,1.59618c-1.0655,0.40906 -2.7302,1.04812 -2.7302,1.04812c0,0 -1.11393,0.23388 -1.3679,-0.4846c-1.52776,-4.32247 -3.22455,-8.37336 -3.77912,-10.61543c-0.18487,-0.74736 0.54519,-1.91961 0.54519,-1.91961l4.89136,-2.53052c0,0 1.9435,-1.15035 2.92012,-0.9723z" fill="#582700" stroke="#000000" stroke-width="3" stroke-linecap="round"/><path d="M260.27804,197.60822c8.83114,21.25392 9.00825,25.4551 9.00825,25.4551c0.97957,2.71821 -1.44346,3.31788 -1.44346,3.31788c0,0 -4.52814,1.80773 -7.42635,2.96479c-1.9031,0.75977 -4.87645,1.9468 -4.87645,1.9468c0,0 -2.00222,0.39645 -2.50889,-1.09789c-3.04817,-8.99028 -6.38472,-17.4357 -7.53499,-22.08114c-0.38342,-1.54847 0.8625,-3.90059 0.8625,-3.90059l8.69405,-4.82806c0,0 3.44499,-2.2159 5.22532,-1.77687z" fill="#582700" stroke="#000000" stroke-width="3" stroke-linecap="round"/></g></g><g><g stroke="#000000" stroke-width="3" stroke-linecap="round"><path d="M189.79216,209.03353l18.65907,-23.57878c0,0 3.61201,-4.42404 4.77014,-4.23599c3.47436,0.56414 8.52865,4.79785 14.41946,8.00734c0.97916,0.53347 -1.44593,5.89587 -1.44593,5.89587c0,0 -4.19891,8.27218 -6.88641,13.5668c-4.09281,8.06318 -10.48732,20.66093 -10.48732,20.66093c0,0 -3.0545,6.55125 -4.77684,5.43158c0,0 -10.08131,-1.26478 -22.36094,-13.03814c1.36568,-4.35936 8.10877,-12.70961 8.10877,-12.70961z" data-paper-data="{&quot;origPos&quot;:null}" fill="#582700"/><path d="M188.81232,210.88047l22.22153,13.49418l-1.78616,2.87987l-22.32144,-13.25763z" data-paper-data="{&quot;origPos&quot;:null}" fill="none"/></g><path d="M189.68906,210.86876l23.19641,-29.3087l13.68383,8.27915l0.75325,1.22972l-15.85933,33.02915z" fill="#66c8ff" stroke="#000000" stroke-width="1" stroke-linecap="round"/><path d="M187.35007,213.69656l1.23495,-1.96677l22.16402,13.20032l-1.23494,1.96678z" fill="#ffffff" stroke="none" stroke-width="0" stroke-linecap="butt"/></g><g fill="#ffffff" stroke="#000000" stroke-width="2.5" stroke-linecap="butt"><path d="M258.14386,167.38526c-1.05572,1.84348 -3.04224,3.08557 -5.31886,3.08557c-3.38274,0 -6.125,-2.74225 -6.125,-6.125c0,-3.38274 2.74226,-6.125 6.125,-6.125c3.38275,0 6.125,2.74226 6.125,6.125c0,1.10612 -0.29321,2.14376 -0.80614,3.03943z" data-paper-data="{&quot;index&quot;:null}"/><path d="M231.48055,164.8736c0,-3.38274 2.74225,-6.125 6.125,-6.125c3.38275,0 6.125,2.74226 6.125,6.125c0,3.38275 -2.74225,6.125 -6.125,6.125c-2.27663,0 -4.26314,-1.24209 -5.31886,-3.08557c-0.51293,-0.89568 -0.80614,-1.93331 -0.80614,-3.03943z" data-paper-data="{&quot;index&quot;:null}"/></g><g fill="#9e3eff" stroke="none" stroke-width="0.5" stroke-linecap="butt"><path d="M211.5695,163.61146c-1.24034,2.17061 -3.41096,0.93026 -3.41096,0.93026l-2.42955,-1.92297c-0.4766,-1.2289 -1.44922,-2.36876 -1.42979,-3.6867c0.02155,-1.46176 3.87464,-5.21532 2.47245,-6.69797c-1.73709,-1.83677 -5.17259,-2.40319 -5.83713,-4.84237c-0.68117,-2.50026 6.69617,-8.31584 2.99394,-9.39877c0,0 -2.02184,-1.47043 -0.55141,-3.49227c1.47043,-2.02184 3.49227,-0.55141 3.49227,-0.55141c1.03238,0.93963 2.86178,1.44292 3.09712,2.8189c0.37913,2.21679 -0.79304,4.44205 -1.48958,6.58045c-0.32222,0.98924 -0.88054,1.90972 -1.53843,2.7157c-0.24872,0.30471 -1.29037,0.15695 -1.07518,0.48619c0.3383,0.5176 1.22486,0.26945 1.76538,0.56979c1.12889,0.62727 2.54028,1.07612 3.1975,2.18784c0.92417,1.5633 1.3744,3.49622 1.23306,5.30676c-0.13466,1.72485 -2.82957,2.66654 -2.7606,4.39527c0.02389,0.59873 0.64681,1.00887 0.9702,1.51331l0.37044,-0.32296c0,0 2.1706,1.24034 0.93026,3.41096z"/><path d="M221.7695,162.21146c-1.24034,2.17061 -3.41096,0.93026 -3.41096,0.93026l-2.42955,-1.92297c-0.4766,-1.2289 -1.44922,-2.36876 -1.4298,-3.68669c0.02155,-1.46176 3.87464,-5.21532 2.47245,-6.69797c-1.73709,-1.83677 -5.17259,-2.40319 -5.83712,-4.84236c-0.68117,-2.50026 6.69617,-8.31584 2.99393,-9.39877c0,0 -2.02184,-1.47043 -0.55141,-3.49227c1.47043,-2.02184 3.49227,-0.55141 3.49227,-0.55141c1.03238,0.93963 2.86178,1.44292 3.09712,2.8189c0.37913,2.21679 -0.79304,4.44205 -1.48958,6.58045c-0.32222,0.98924 -0.88054,1.90972 -1.53843,2.7157c-0.24872,0.30471 -1.29037,0.15695 -1.07518,0.48619c0.3383,0.5176 1.22486,0.26945 1.76538,0.56979c1.12889,0.62727 2.54028,1.07612 3.1975,2.18784c0.92417,1.5633 1.37441,3.49622 1.23306,5.30675c-0.13466,1.72485 -2.82957,2.66654 -2.7606,4.39527c0.02389,0.59873 0.64681,1.00887 0.9702,1.51331l0.37045,-0.32296c0,0 2.1706,1.24034 0.93026,3.41096z"/><path d="M232.7695,161.41146c-1.24034,2.17061 -3.41096,0.93026 -3.41096,0.93026l-2.42955,-1.92297c-0.4766,-1.2289 -1.44922,-2.36876 -1.4298,-3.68669c0.02155,-1.46176 3.87464,-5.21532 2.47245,-6.69797c-1.73709,-1.83677 -5.17259,-2.40319 -5.83712,-4.84237c-0.68117,-2.50026 6.69617,-8.31584 2.99393,-9.39877c0,0 -2.02184,-1.47043 -0.55141,-3.49227c1.47043,-2.02184 3.49227,-0.55141 3.49227,-0.55141c1.03238,0.93963 2.86178,1.44292 3.09712,2.8189c0.37913,2.21679 -0.79304,4.44205 -1.48958,6.58045c-0.32222,0.98924 -0.88054,1.90972 -1.53843,2.71569c-0.24872,0.30471 -1.29037,0.15695 -1.07518,0.48619c0.3383,0.5176 1.22486,0.26946 1.76538,0.56979c1.12889,0.62727 2.54028,1.07612 3.1975,2.18784c0.92417,1.5633 1.37441,3.49622 1.23306,5.30676c-0.13466,1.72485 -2.82957,2.66654 -2.7606,4.39527c0.02389,0.59873 0.64681,1.00887 0.9702,1.51331l0.37045,-0.32296c0,0 2.1706,1.24034 0.93026,3.41096z"/></g></g></g></svg>