<svg version="1.1" xmlns="http://www.w3.org/2000/svg" xmlns:xlink="http://www.w3.org/1999/xlink" width="374.77477" height="288.28829" viewBox="0,0,374.77477,288.28829"><g transform="translate(-52.61261,-35.85585)"><g data-paper-data="{&quot;isPaintingLayer&quot;:true}" fill-rule="nonzero" stroke-linejoin="miter" stroke-miterlimit="10" stroke-dasharray="" stroke-dashoffset="0" style="mix-blend-mode: normal"><path d="M52.61262,324.14414v-288.28829h374.77477v288.28829z" fill="none" stroke="none" stroke-width="none" stroke-linecap="butt"/><g><g><g data-paper-data="{&quot;origRot&quot;:0}" stroke="#000000" stroke-width="3" stroke-linecap="round"><path d="M268.21621,128.7217c2.22893,-1.0171 4.53438,7.44325 4.53438,7.44325c0,0 6.73675,22.21029 9.96393,32.68687c0.69303,4.59935 -34.28467,21.74692 -39.79617,19.93883c-2.45685,-0.80599 -8.55637,-8.68354 -7.91258,-10.59375c1.22537,-3.63592 13.80275,-14.78401 13.80275,-14.78401l1.95703,3.69411l-4.17406,-10.1512c0,0 -5.91359,-11.3887 -7.02385,-16.83044c-0.61576,-3.01803 28.64858,-11.40368 28.64858,-11.40368z" data-paper-data="{&quot;origPos&quot;:null}" fill="#582700"/><path d="M271.66408,138.01336l-27.84945,11.28578" fill="none"/><path d="M245.69213,153.17015l27.74196,-11.55101" data-paper-data="{&quot;origPos&quot;:null}" fill="none"/></g><path d="M272.3084,137.94431l1.0716,2.59742l-28.41427,11.72258l-1.0716,-2.59742z" fill="#ffffff" stroke="none" stroke-width="0" stroke-linecap="butt"/><path d="M282.96887,169.06027l-8.50152,7.13086l-21.74495,10.15968l-8.30307,1.76679l-4.77803,-1.86626l-3.24533,-6.7615l-0.64907,-1.35229l12.40525,-13.44142l1.52351,2.59642l1.80307,-0.86544l-5.05727,-12.26985l27.5959,-12.41336l8.07706,26.07223z" fill="#66c8ff" stroke="#000000" stroke-width="0.5" stroke-linecap="round"/></g><g fill="#fffc96" stroke="#000000" stroke-width="2" stroke-linecap="round"><path d="M247.1677,160.42039c0,0 -4.41317,-2.32651 -2.89931,-5.37333c2.42211,-4.87478 34.34746,14.66438 32.13573,19.87579c-0.90367,2.12925 -4.36509,0.97634 -4.36509,0.97634l0.59417,-2.05358c0,0 -5.08414,-4.96911 -12.41689,-9.69093c-7.23114,-4.6564 -12.84156,-6.38059 -12.84156,-6.38059z"/><path d="M245.43118,170.04538c0,0 -4.35425,1.17728 -4.32937,-1.43403c0.05221,-5.48155 40.74059,-13.50659 39.4606,-8.38296c-0.77519,3.10297 -4.83612,2.88145 -4.83612,2.88145l0.39113,-1.52028c0,0 -6.24953,0.11656 -15.42588,2.08412c-9.17636,1.96754 -15.06945,4.90693 -15.06945,4.90693z" data-paper-data="{&quot;index&quot;:null}"/></g></g><g data-paper-data="{&quot;origRot&quot;:0}" stroke="#000000" stroke-linecap="round"><path d="M238.04394,224.42535c0,0 -1.93165,-4.39494 -0.50089,-4.97334c4.22196,-1.70674 7.6587,-4.92355 12.21124,-5.03355c1.89045,-0.04568 4.16935,3.58742 4.16935,3.58742l16.66805,28.60597c0,0 1.7596,2.93134 2.71124,4.65121c1.01746,1.83883 1.2641,5.13926 -0.63677,6.03551c-6.97935,3.2908 -10.72086,6.62668 -15.59182,7.56536c-1.77457,0.34197 -3.68032,0.58841 -4.98148,-0.6658c-1.69969,-1.63831 -2.78673,-5.9862 -2.78673,-5.9862z" data-paper-data="{&quot;origPos&quot;:null}" fill="#ff0000" stroke-width="3"/><path d="M274.65337,254.33162c0,0 -4.3995,4.77357 -9.06491,6.8014c-3.57946,1.55582 -11.7405,3.98659 -11.7405,3.98659c0,0 -2.28009,-1.85214 -2.99962,-3.28419c-0.758,-1.50858 -0.78644,-4.25082 -0.78644,-4.25082l21.06032,-10.02338z" data-paper-data="{&quot;origPos&quot;:null}" fill="#976e57" stroke-width="2"/><path d="M238.24647,224.68715c0,0 -1.93165,-4.39494 -0.50088,-4.97333c4.22195,-1.70674 7.6587,-4.92355 12.21126,-5.03354c1.89045,-0.04568 4.16934,3.58741 4.16934,3.58741l16.66805,28.60598c0,0 1.75962,2.93133 2.71126,4.6512c1.01746,1.83883 1.26409,5.13926 -0.63677,6.03552c-6.97935,3.2908 -10.72085,6.62669 -15.59181,7.56536c-1.77457,0.34197 -3.68032,0.58838 -4.98148,-0.6658c-1.69969,-1.63831 -2.78674,-5.9862 -2.78674,-5.9862z" data-paper-data="{&quot;origPos&quot;:null}" fill="#4b4b4b" stroke-width="3"/></g><path d="M229.48083,258.62014c0,0 -0.23045,4.4758 -1.58325,6.41045c-1.03563,1.48106 -2.95318,1.60581 -4.76039,1.61157c-4.96055,0.0158 -9.27383,-2.53814 -16.75585,-4.42499c-2.03777,-0.51389 -2.43057,-3.80013 -1.78582,-5.80032c0.60305,-1.87079 1.76595,-5.08584 1.76595,-5.08584l10.85443,-31.27791c0,0 1.53749,-4.0036 3.40143,-4.32239c4.48869,-0.76774 8.48002,1.72793 12.95142,2.59072c1.51529,0.29239 0.46509,4.9768 0.46509,4.9768c0,0 -1.15126,8.93143 -1.88813,14.64802c-1.04,8.06827 -2.66488,20.67393 -2.66488,20.67393z" fill="#4b4b4b" stroke="#000000" stroke-width="3" stroke-linecap="round"/><g stroke="#000000" stroke-linecap="round"><path d="M226.47024,171.36569c0,0 -23.67359,16.47516 -30.74531,-0.0564c-2.60546,-6.09076 12.95979,-10.96301 12.95979,-10.96301z" data-paper-data="{&quot;origPos&quot;:null}" fill="#66c8ff" stroke-width="2"/><path d="M214.49857,163.74948c0,0 -15.39594,4.47151 -15.4437,3.82507c-0.15138,-2.04965 10.91327,-6.13461 10.91327,-6.13461z" data-paper-data="{&quot;origPos&quot;:null}" fill="#0a0a0a" stroke-width="1"/></g><g><g><path d="M214.78271,184.58887c0,0 0.57204,-14.5283 2.66819,-15.27739c6.28842,-2.24731 21.1072,-2.71787 30.95295,-3.65159c1.52205,-0.14434 4.11411,13.20395 4.11411,13.20395l4.66439,30.32329c0,0 1.6544,14.86818 -0.00599,15.02565c-14.78065,1.40172 -32.02406,3.89343 -38.69151,3.68104c-2.22247,-0.07079 -2.88585,-15.83635 -2.88585,-15.83635z" data-paper-data="{&quot;origPos&quot;:null}" fill="#66c8ff" stroke="#000000" stroke-width="3.5" stroke-linecap="round"/><path d="M234.31746,190.97189c-1.2859,0.12195 -1.52075,-2.35444 -1.52075,-2.35444c-0.48709,-5.13621 -1.13075,-11.92335 -1.61783,-17.05956c0,0 -0.23485,-2.47638 1.05105,-2.59833c1.2859,-0.12195 1.52075,2.35444 1.52075,2.35444c0.48709,5.13621 0.97419,10.27242 1.46128,15.40864l0.15657,1.65093c0,0 0.23484,2.47638 -1.05106,2.59833z" fill="#ffffff" stroke="none" stroke-width="0.5" stroke-linecap="butt"/><path d="M246.8618,196.14401c-1.2859,0.12195 -1.58093,-2.98909 -1.58093,-2.98909c-0.61192,-6.45253 -1.42054,-14.97908 -2.03246,-21.43161c0,0 -0.29503,-3.11104 0.99086,-3.23299c1.2859,-0.12195 1.58093,2.98909 1.58093,2.98909c0.61192,6.45253 1.22385,12.90506 1.83577,19.3576l0.19669,2.07403c0,0 0.29503,3.11104 -0.99086,3.23299z" fill="#ffffff" stroke="none" stroke-width="0.5" stroke-linecap="butt"/></g><g fill="none" stroke="#b9b9b9" stroke-width="3"><path d="M246.71356,170.87728c-0.95205,-1.2739 -0.15785,-2.57426 0.94464,-3.90231c1.1025,-1.32803 2.28931,-1.81418 3.04787,-0.90697c1.60834,1.92356 0.21776,3.03534 -0.64553,4.07523c-1.10251,1.32805 -2.00244,2.53313 -3.34698,0.73406z" stroke-linecap="butt"/><path d="M247.63765,170.19624l-2.34053,2.75271" stroke-linecap="round"/><path d="M241.82588,173.91031c1.1025,-1.32803 2.28932,-1.81418 3.04788,-0.90696c1.60834,1.92356 0.21776,3.03534 -0.64553,4.07523c-1.1025,1.32804 -2.00243,2.53313 -3.34696,0.73405c-0.95205,-1.2739 -0.15787,-2.57426 0.94462,-3.90232z" stroke-linecap="butt"/><path d="M239.46479,179.88431l2.34053,-2.75272" stroke-linecap="round"/><path d="M233.82491,179.96487c0.2445,-1.6656 1.59117,-1.63801 3.14751,-1.32472c1.55634,0.3133 2.61261,1.19425 2.48852,2.45922c-0.26313,2.68209 -1.85651,1.9623 -3.07516,1.71699c-1.55634,-0.31329 -2.90615,-0.49923 -2.56085,-2.85148z" stroke-linecap="butt"/><path d="M231.58557,179.77299l3.26028,0.70349" stroke-linecap="round"/><path d="M226.24424,176.28839c0.7647,-1.39515 2.00856,-0.72247 3.35534,0.3105c1.34679,1.03296 2.04527,2.34103 1.52183,3.43022c-1.10986,2.30938 -2.35999,0.8894 -3.41458,0.08056c-1.34679,-1.03297 -2.54251,-1.85097 -1.46259,-3.82126z" stroke-linecap="butt"/><path d="M224.22292,175.03724l2.80607,2.20676" stroke-linecap="round"/><path d="M219.19135,170.80515c0.7647,-1.39513 2.00857,-0.72247 3.35535,0.3105c1.3468,1.03296 2.04527,2.34103 1.52183,3.43022c-1.10986,2.30937 -2.35999,0.88939 -3.41457,0.08055c-1.34679,-1.03296 -2.54251,-1.85095 -1.46258,-3.82125z" stroke-linecap="butt"/><path d="M217.17004,169.55399l2.80608,2.20676" stroke-linecap="round"/></g></g><g><path d="M244.55467,150.67248c-6.70089,10.05957 -13.22896,19.79457 -16.75503,23.18954c-3.22259,3.10278 -6.24711,2.6397 -6.24711,2.6397c0,0 -3.0007,0.08212 -4.31595,-0.70932c-3.94575,-2.37429 -14.88342,-9.67496 -23.72292,-16.83722c-0.29502,-0.23904 -0.45217,-0.38406 -0.73241,-0.64025c-0.84077,-0.76855 -3.99729,-3.90877 -3.99729,-3.90877c0,0 0.42402,-3.57054 1.00815,-5.26916c1.75235,-5.09586 10.42242,-15.17719 18.6007,-26.44215c0.74126,-1.02102 3.34792,-1.86105 3.34792,-1.86105c0,0 3.46061,0.49309 5.0721,1.64962c10.41842,7.4771 21.91816,15.78835 24.42783,17.86379c0.83657,0.69182 3.26421,4.56951 3.26421,4.56951z" fill="#582700" stroke="#000000" stroke-width="2.5" stroke-linecap="round"/><path d="M187.03861,158.40231c-1.24912,-0.04677 -1.20235,-1.2959 -1.20235,-1.2959l0.09787,-1.51689c0.03604,-0.11862 0.07266,-0.23671 0.10987,-0.35433c-5.36437,-2.38989 -10.52726,-7.22488 -15.2834,-10.39979c-1.23343,-0.82336 -4.77328,-2.76065 -5.42615,-4.06621c-1.09326,-2.18623 0.35696,-3.27165 1.41394,-4.84579c1.79845,-2.67834 3.61508,-5.31315 5.00231,-8.22637c3.44655,-7.2162 7.6089,-13.87269 11.48063,-20.84871c1.22174,-2.20135 2.51303,-4.28605 4.0988,-6.25878c0.4339,-0.53978 0.71812,-1.41299 1.39979,-1.53534c2.41421,-0.43333 3.63046,1.26815 5.08081,2.6275c2.89299,2.7115 4.91833,6.02331 8.17592,8.36126c2.48025,1.80527 4.8256,3.95436 7.12928,5.9769c0.79496,0.69797 2.59692,1.49996 2.65813,2.82044c0.12548,2.7076 -4.03189,6.71893 -5.51914,8.77842c-4.53489,6.27977 -9.20291,12.47133 -13.37304,18.99993c-1.41215,2.38683 -2.69107,4.70783 -3.69099,7.22627c0.2944,0.22993 0.5917,0.64397 0.37827,1.32504c-0.23156,0.73895 -0.77745,0.87665 -1.15934,0.87447c-0.02811,0.08982 -0.05586,0.17997 -0.08321,0.27044l0.00791,0.88512c0,0 -0.04678,1.24912 -1.29591,1.20235z" fill="#000000" stroke="none" stroke-width="0.5" stroke-linecap="butt"/><path d="M210.24823,151.95355c0.49734,-5.27984 4.66635,-7.65287 9.56002,-6.38599c5.61247,1.45294 6.13495,6.37094 6.13495,6.37094c0,0 -2.29907,1.55091 -4.39181,4.06243c-2.60578,3.12726 -3.43336,5.23807 -3.43336,5.23807c0,0 -8.54451,-2.12277 -7.86981,-9.28545z" fill="#ffffff" stroke="#0a0a0a" stroke-width="2" stroke-linecap="butt"/><path d="M225.68113,130.24093c6.58703,-2.89314 11.28934,4.55019 11.28934,4.55019c0,0 -1.74343,1.44944 -3.89248,4.90652c-1.72592,2.77642 -2.47508,5.44658 -2.47508,5.44658c0,0 -4.83276,1.05074 -7.97712,-3.81998c-2.74165,-4.24691 -1.80018,-8.95071 3.05532,-11.08333z" data-paper-data="{&quot;index&quot;:null}" fill="#ffffff" stroke="#0a0a0a" stroke-width="2" stroke-linecap="butt"/><g data-paper-data="{&quot;index&quot;:null}" stroke="#000000" stroke-width="1" stroke-linecap="butt"><path d="M232.74179,168.52684c-9.24292,8.48182 -15.79682,-3.3456 -15.79682,-3.3456l13.64702,-12.74762c0,0 11.93556,7.11326 2.14979,16.09321z" fill="#000000"/><path d="M228.94808,166.73871c3.22185,-1.58993 6.6901,-1.77196 6.39751,-1.29054c-0.60461,0.9948 -1.45437,2.02384 -2.60381,3.07867c-3.44497,3.16133 -6.51643,3.50132 -9.01421,2.68395c-0.48525,-0.15878 2.26192,-3.01205 5.2205,-4.47205z" fill="#ff8484"/><path d="M219.79633,168.56636c-1.19541,-1.35433 -2.85137,-3.38513 -2.85137,-3.38513l11.99375,-11.20332l3.15612,3.27253c0,0 -12.25908,11.36056 -12.29848,11.31592z" fill="#ffffff"/></g></g><g data-paper-data="{&quot;index&quot;:null}"><g data-paper-data="{&quot;origRot&quot;:0,&quot;index&quot;:null}" stroke="#000000" stroke-width="3" stroke-linecap="round"><path d="M220.30818,222.82555c0,0 -25.217,-1.39936 -25.27416,-3.95418c-0.10307,-4.6065 2.58545,-14.90773 2.58545,-14.90773l8.0878,-28.99309c0,0 1.61859,-5.48095 2.74375,-5.73275c3.37546,-0.7554 9.57375,1.34417 16.14699,2.1747c1.09259,0.13806 0.90849,6.05971 0.90849,6.05971c0,0 -0.7008,9.30416 -1.14933,15.25929c-0.68308,9.06907 -1.75029,23.23838 -1.75029,23.23838c0,0 -0.30842,7.2684 -2.29871,6.85569z" data-paper-data="{&quot;origPos&quot;:null}" fill="#582700"/><path d="M221.47331,215.54478l-24.60602,-4.00584" fill="none"/><path d="M197.67392,208.06195l24.56786,4.24019" data-paper-data="{&quot;origPos&quot;:null}" fill="none"/></g><path d="M197.52191,207.34505l10.2546,-36.73435l1.37353,-0.47003l15.60384,2.58897l-2.36589,38.69131z" fill="#66c8ff" stroke="#000000" stroke-width="1" stroke-linecap="round"/><path d="M196.86474,211.37224l0.38219,-2.29955l25.15576,4.18085l-0.38219,2.29955z" fill="#ffffff" stroke="none" stroke-width="0" stroke-linecap="butt"/></g><path d="M222.87376,159.57422c-0.37169,0.20955 -0.85707,-0.23114 -1.23278,-0.26878c-0.33414,0.10331 -0.71413,0.13985 -1.08581,0.14292c-0.33642,0.08083 -0.67045,0.17487 -0.96161,0.22641c0,0 -0.34048,0.06028 -0.52006,-0.1916c-0.09543,0.08511 -0.19366,0.16697 -0.29521,0.24482c0,0 -0.92171,0.6846 -1.6063,-0.23711c-0.6846,-0.92171 0.23711,-1.6063 0.23711,-1.6063c0.80701,-0.5709 1.21737,-1.34324 1.94245,-2.03714c0.65939,-0.63104 1.59271,-0.99922 2.16039,-1.69924c0.4282,-0.52804 0.82357,-1.09031 1.3201,-1.55469l0.45765,-0.40338c0,0 0.86167,-0.75877 1.62044,0.10289c0.75877,0.86167 -0.10289,1.62044 -0.10289,1.62044l-0.33222,0.29226l-0.06395,0.61236c-0.50923,0.99149 -1.02015,1.40965 -1.80324,2.09421c-0.05356,0.17913 -0.09351,0.37609 -0.03614,0.53974c0.01868,0.03533 0.03536,0.07137 0.04978,0.10823c0.41813,0.76536 1.93731,1.06397 0.25226,2.01396z" fill="#000000" stroke="none" stroke-width="0.5" stroke-linecap="butt"/><path d="M236.06569,139.21313c-0.46872,1.87674 -1.1598,0.49129 -2.00868,0.29128c-0.03937,-0.00412 -0.07854,-0.01063 -0.11756,-0.01926c-0.173,-0.01189 -0.3523,0.0789 -0.51079,0.17809c-0.45218,0.93668 -0.71974,1.54026 -1.54053,2.29437l-0.57341,0.22418l-0.19361,0.39787c0,0 -0.50288,1.03214 -1.53502,0.52927c-1.03215,-0.50288 -0.52927,-1.53503 -0.52927,-1.53503l0.26744,-0.5483c0.31596,-0.60196 0.75312,-1.13236 1.14858,-1.68537c0.52426,-0.7331 0.63154,-1.73065 1.06495,-2.53388c0.47658,-0.88324 1.11232,-1.48388 1.44856,-2.41346c0,0 0.41543,-1.07033 1.48577,-0.65492c1.07035,0.41542 0.65492,1.48576 0.65492,1.48576c-0.04812,0.11857 -0.10097,0.23499 -0.1577,0.3496c0.29049,0.10629 0.32276,0.45056 0.32276,0.45056c0.02758,0.2944 0.02557,0.6414 0.03693,0.98721c0.09568,0.35916 0.1613,0.73522 0.15039,1.08479c0.136,0.35224 0.68971,0.70326 0.58631,1.11723z" data-paper-data="{&quot;index&quot;:null}" fill="#000000" stroke="none" stroke-width="0.5" stroke-linecap="butt"/><path d="M223.64551,171.96762c0.43093,-5.67858 7.44878,-8.56806 12.44486,-8.42619c0.4694,0.14849 1.00195,0.16736 1.40819,0.44547c1.75405,1.20076 1.21344,3.79504 3.16862,4.92969c2.01053,1.16678 3.70727,0.16447 5.44157,1.91537c1.16972,1.18093 1.18923,2.17069 -0.24998,2.6928c-1.50455,0.54581 -3.39279,-0.35556 -4.75318,-0.89966c-1.90049,-0.58661 -4.33695,-1.22044 -6.34385,-0.79058c-0.92817,0.1988 -4.19304,7.9015 -5.12179,8.11473c-2.77711,0.63759 -3.01167,-6.19806 -5.86267,-6.36656c0,0 -0.81785,-0.04845 -0.76939,-0.86629c0.03166,-0.53438 0.39178,-0.6989 0.63762,-0.74877z" fill="#000000" stroke="none" stroke-width="0.5" stroke-linecap="butt"/><path d="M244.36903,165.92641c-0.94868,-0.31623 -0.63246,-1.26491 -0.63246,-1.26491l0.1681,-0.47989c0.69666,-3.3901 -1.2217,-5.50518 -3.05147,-8.24918c0,0 -0.5547,-0.83205 0.27735,-1.38675c0.83205,-0.5547 1.38675,0.27735 1.38675,0.27735c2.14924,3.22461 4.1313,5.74645 3.34853,9.75082l-0.2319,0.72011c0,0 -0.31623,0.94868 -1.26491,0.63246z" fill="#000000" stroke="none" stroke-width="0.5" stroke-linecap="butt"/><path d="M240.08526,165.77772c-1,0 -1,-1 -1,-1v-0.2c0.00723,-1.94779 -0.63195,-3.6729 -1.16152,-5.52528c0,0 -0.27472,-0.96152 0.6868,-1.23625c0.96152,-0.27472 1.23625,0.6868 1.23625,0.6868c0.5833,2.04281 1.23172,3.92683 1.23848,6.07472v0.2c0,0 0,1 -1,1z" fill="#000000" stroke="none" stroke-width="0.5" stroke-linecap="butt"/></g></g></svg>