<svg version="1.1" xmlns="http://www.w3.org/2000/svg" xmlns:xlink="http://www.w3.org/1999/xlink" width="127.66667" height="127.66667" viewBox="0,0,127.66667,127.66667"><g transform="translate(-176.16667,-116.16666)"><g data-paper-data="{&quot;isPaintingLayer&quot;:true}" fill-rule="nonzero" stroke-linejoin="miter" stroke-miterlimit="10" stroke-dasharray="" stroke-dashoffset="0" style="mix-blend-mode: normal"><path d="M176.16667,243.83333v-127.66667h127.66667v127.66667z" fill="none" stroke="none" stroke-width="NaN" stroke-linecap="butt"/><g stroke="#000000" stroke-width="1" stroke-linecap="butt"><path d="M227.21968,183.95731c0.47578,-1.19627 1.94938,-4.05999 3.23269,-4.62114c3.66033,-1.60058 4.83517,2.13961 5.09001,4.6524c-0.02263,2.34221 -1.31097,6.02049 -3.71821,8.62698c-1.65978,1.79715 -4.12386,2.87158 -5.65066,3.51652c-0.52074,0.21997 -2.12646,0.01193 -4.19294,-3.23538c-1.93233,-3.0365 -3.07213,-7.52882 -1.89011,-8.24424c1.01719,-0.61566 6.79787,0.14532 6.79787,0.14532z" fill="#dc94e7"/><path d="M223.28117,188.24182c0.05534,0.04057 0.08656,0.0717 0.08656,0.0717l0.67398,0.77358c0.2993,0.81009 0.27007,1.53845 0.2775,2.24756c0.00913,0.87283 -0.03211,1.7154 -0.62061,2.63193c-4.1158,5.24002 -15.22281,6.80532 -15.12282,-2.25473c0.061,-3.77907 3.69127,-4.90669 7.48453,-4.93449c2.5845,-0.01896 5.24586,0.36522 6.90081,1.18948c0,0 0.18468,0.09249 0.32006,0.27497z" fill="#f89688"/></g><g><g stroke="#000000" stroke-linecap="round"><path d="M217.27062,198.35701c0,0 2.81263,-5.37902 4.19775,-6.14673c0.73848,-0.40932 3.47521,1.8939 3.47521,1.8939c0,0 4.81957,-4.01536 11.23515,-4.0385c8.20939,-0.02961 19.61828,2.22711 19.61828,2.22711l2.90765,11.4984c0,0 -16.23326,1.19208 -23.12247,0.28855c-6.92198,-0.90783 -18.31156,-5.72272 -18.31156,-5.72272z" fill="#0065cc" stroke-width="0"/><path d="M224.94359,194.10418c0,0 4.81957,-4.01536 11.23515,-4.0385c8.20939,-0.02961 19.61828,2.22711 19.61828,2.22711l2.90765,11.4984c0,0 -16.23326,1.19208 -23.12247,0.28855c-2.45513,-0.322 -5.47229,-1.13551 -8.34393,-2.05136c-0.19118,-2.6847 -0.98446,-5.39104 -1.87063,-7.05787c-0.12325,-0.23184 -0.27642,-0.53584 -0.45582,-0.89281c0.02078,0.01724 0.03178,0.02648 0.03178,0.02648z" fill="#080f95" stroke-width="0"/><path d="M232.13193,201.11348l-2.74611,-2.52019" fill="none" stroke-width="1"/><path d="M217.27062,198.35701c0,0 2.81263,-5.37902 4.19775,-6.14673c0.73848,-0.40932 3.47521,1.8939 3.47521,1.8939c0,0 4.81957,-4.01536 11.23515,-4.0385c8.20939,-0.02961 19.61828,2.22711 19.61828,2.22711l2.90765,11.4984c0,0 -16.23326,1.19208 -23.12247,0.28855c-6.92198,-0.90783 -18.31156,-5.72272 -18.31156,-5.72272z" fill="none" stroke-width="1"/></g><g stroke="#000000" stroke-linecap="round"><path d="M249.57785,194.89174l-1.5346,-6.14298l7.75375,-2.36268c0,0 0.17391,2.7438 0.99671,3.78429c0.41095,0.51966 1.7291,0.74917 2.59739,1.2711c1.02129,0.61389 1.57505,1.48137 1.57505,1.48137c0,0 -0.29209,4.37772 -5.0247,4.60408c-3.98619,0.19066 -6.36361,-2.63516 -6.36361,-2.63516z" fill="#aa96c7" stroke-width="0"/><path d="M248.04324,188.74876l7.75375,-2.36268c0,0 0.12968,2.04623 0.69499,3.27465c-2.35523,2.09979 -4.33811,2.34587 -7.44766,3.3008z" fill="#a7649a" stroke-width="0"/><path d="M249.57785,194.89174l-1.5346,-6.14298l7.75375,-2.36268c0,0 0.17391,2.7438 0.99671,3.78429c0.41095,0.51966 1.7291,0.74917 2.59739,1.2711c1.02129,0.61389 1.57505,1.48137 1.57505,1.48137c0,0 -0.29209,4.37772 -5.0247,4.60408c-3.98619,0.19066 -6.36361,-2.63516 -6.36361,-2.63516z" fill="none" stroke-width="1"/></g><g><path d="M229.27478,186.30535c0,0 -2.73096,-5.56998 1.17887,-10.64635c1.43903,-1.86838 3.89983,-4.26565 7.5529,-5.44255c16.00612,-5.15666 15.01405,9.05991 15.01405,9.05991c0,0 4.02689,4.25616 3.38898,5.84905c-1.30654,3.26247 -7.77065,3.66075 -7.77065,3.66075l0.84806,6.20204c0,0 -9.21542,7.19232 -18.02276,2.87875c-10.10479,-4.94901 -2.18946,-11.56161 -2.18946,-11.56161z" fill="#ab9efa" stroke="#000000" stroke-width="0" stroke-linecap="round"/><path d="M229.27478,186.30535c0,0 -2.73096,-5.56998 1.17887,-10.64635c1.43903,-1.86838 3.89983,-4.26565 7.5529,-5.44255c16.00612,-5.15666 15.01405,9.05991 15.01405,9.05991c0,0 4.02689,4.25616 3.38898,5.84905c-1.30654,3.26247 -7.77065,3.66075 -7.77065,3.66075l0.84806,6.20204l-4.49879,-4.47831c0,0 -6.12648,0.86224 -8.19613,-0.02686c-2.90061,-1.24605 -7.51728,-4.17769 -7.51728,-4.17769z" fill="#9362ec" stroke="#000000" stroke-width="0" stroke-linecap="round"/><path d="M229.27478,186.30535c0,0 -2.73096,-5.56998 1.17887,-10.64635c1.43903,-1.86838 3.89983,-4.26565 7.5529,-5.44255c16.00612,-5.15666 15.01405,9.05991 15.01405,9.05991c0,0 4.02689,4.25616 3.38898,5.84905c-1.30654,3.26247 -7.77065,3.66075 -7.77065,3.66075l0.84806,6.20204c0,0 -9.21542,7.19232 -18.02276,2.87875c-10.10479,-4.94901 -2.18946,-11.56161 -2.18946,-11.56161z" fill="none" stroke="#000000" stroke-width="1" stroke-linecap="round"/><path d="M244.48947,193.31662c0,0.36431 -0.2469,0.48787 -0.41439,0.52978c-0.72341,1.07027 -2.23417,1.71909 -3.78474,1.51234c-4.00406,-0.56844 -8.86958,-2.09747 -8.96607,-6.925c0,0 0,-0.21685 0.13949,-0.37855c-0.22585,-0.38608 0.15347,-0.68199 0.15347,-0.68199l0.35724,-0.27436c1.74587,-1.62086 4.24957,-0.24184 6.27144,0.24878c1.88882,0.46067 4.37392,1.61349 5.56612,3.19812c0.67133,0.8923 0.82395,1.76259 0.62464,2.51399c0.03266,0.06847 0.05278,0.15286 0.05278,0.25688zM242.36889,193.70147c-1.71478,-0.37157 -4.90218,-0.60598 -6.33577,-1.49193c-0.94527,-0.58418 -1.7407,-1.25379 -2.61919,-1.84132c0.1151,0.13707 0.22987,0.28837 0.3375,0.46609c1.76631,2.9166 3.34459,2.97345 6.6988,3.43293c0.79692,0.11701 1.66143,-0.089 2.25161,-0.51918c-0.11098,-0.01551 -0.22197,-0.03104 -0.33298,-0.04658zM236.63066,191.27346c1.29026,0.82544 4.35229,0.99903 5.94099,1.34328c0.27559,0.03818 0.55117,0.07645 0.82673,0.11478c0.08524,-0.44568 -0.04511,-0.96447 -0.49298,-1.52691c-1.09466,-1.37468 -3.24664,-2.37628 -4.93372,-2.78734c-1.39809,-0.34252 -4.06273,-1.73377 -5.19763,-0.53879l-0.37978,0.29989c0.06075,0.13073 0.06075,0.25534 0.06075,0.25534c-0.0013,0.04318 -0.00165,0.08512 -0.0011,0.12588c1.57209,0.73068 2.72787,1.78694 4.17674,2.71385z" fill="#ae0010" stroke="none" stroke-width="0.5" stroke-linecap="butt"/><path d="M231.61723,187.3732l0.35724,-0.27436c1.74587,-1.62086 4.24957,-0.24184 6.27144,0.24878c1.88882,0.46067 4.37392,1.61349 5.56612,3.19812c0.08039,0.10684 0.15333,0.21336 0.21911,0.31941c-0.36299,0.10757 -0.74399,0.22288 -1.12817,0.33646c-1.09541,-1.37313 -3.24547,-2.37357 -4.93133,-2.78432c-1.39809,-0.34252 -4.06273,-1.73377 -5.19763,-0.53879l-0.37978,0.29989c0.06075,0.13073 0.06075,0.25534 0.06075,0.25534c-0.00065,0.02175 -0.00106,0.0432 -0.00125,0.06433c-0.12401,-0.03772 -0.24835,-0.07392 -0.37299,-0.10862c-0.22838,-0.17332 -0.45628,-0.34648 -0.68393,-0.51784c-0.04364,-0.29245 0.22038,-0.49839 0.22038,-0.49839z" fill="#710c65" stroke="none" stroke-width="0.5" stroke-linecap="butt"/><path d="M248.68941,188.90628c0,0 -1.31305,-0.22877 -1.90741,-0.53062c-0.68501,-0.3479 -1.96945,-1.43829 -1.96945,-1.43829" fill="none" stroke="#000000" stroke-width="1" stroke-linecap="round"/></g><g><path d="M239.64339,206.23263l2.26151,4.88288c0,0 -4.96715,0.95363 -7.58369,1.19159c-2.579,0.23454 -8.00455,0.22602 -8.00455,0.22602c0,0 -11.83907,5.07243 -18.103,3.94206c-6.0335,-1.08878 -6.58681,-3.96421 -5.95055,-5.57218c0.04953,-0.12516 1.11564,-1.1211 2.49288,-1.46387c2.23541,-0.55636 5.55452,-0.55053 8.64528,-0.9455c11.05158,-1.41227 26.24213,-2.26099 26.24213,-2.26099z" fill="#ab9efa" stroke="#000000" stroke-width="0" stroke-linecap="round"/><path d="M239.64339,206.23263l2.26151,4.88288c0,0 -4.96715,0.95363 -7.58369,1.19159c-2.579,0.23454 -8.00455,0.22602 -8.00455,0.22602c0,0 -8.93647,3.82881 -15.38915,4.09212c0.38165,-0.328 0.7178,-0.71085 0.9961,-1.12057c0.89263,-1.33352 2.25536,-1.30968 3.52251,-2.23787c1.23768,-0.90661 1.58272,-1.78506 2.35095,-2.92788c0.60202,-0.89556 2.23559,-1.87122 3.86566,-2.74723c9.11364,-0.86365 17.98066,-1.35907 17.98066,-1.35907z" fill="#9362ec" stroke="#000000" stroke-width="0" stroke-linecap="butt"/><path d="M239.64339,206.23263l2.26151,4.88288c0,0 -4.96715,0.95363 -7.58369,1.19159c-2.579,0.23454 -8.00455,0.22602 -8.00455,0.22602c0,0 -11.83907,5.07243 -18.103,3.94206c-6.0335,-1.08878 -6.58681,-3.96421 -5.95055,-5.57218c0.04077,-0.10301 1.46834,-1.33954 2.45424,-1.6027c2.15643,-0.57558 5.25611,-0.36865 8.68392,-0.80669c11.05158,-1.41227 26.24213,-2.26099 26.24213,-2.26099z" fill="none" stroke="#000000" stroke-width="1" stroke-linecap="round"/><path d="M230.5166,199.8534c0,0 3.15262,1.74217 4.63566,2.8204c1.58,1.14873 4.57191,3.87387 4.57191,3.87387c0,0 -3.8175,1.89129 -5.93624,2.21869c-2.67655,0.41358 -8.84432,0.06523 -8.84432,0.06523c0,0 -11.88629,6.00983 -18.81896,2.52019c-0.71663,-0.36073 -1.61675,-1.21404 -1.53518,-1.73272c0.25716,-1.63526 3.18157,-3.01515 6.30974,-4.47011c2.22873,-1.03662 4.99837,-2.46034 4.99837,-2.46034c0,0 -3.26398,-2.31591 -1.11488,-5.27479c0.4227,-0.58197 1.66474,-0.50275 3.23706,-0.67225c1.64449,-0.17729 3.61234,-0.58971 3.61234,-0.58971l6.54221,4.72537z" fill="#ae1c51" stroke="#000000" stroke-width="0" stroke-linecap="round"/><path d="M235.15224,202.67378c1.58,1.14873 4.57191,3.87387 4.57191,3.87387c0,0 -3.8175,1.8913 -5.93624,2.21869c-2.67655,0.41359 -8.84432,0.06523 -8.84432,0.06523c0,0 -8.4293,4.26194 -15.23115,3.52373c0.74708,-0.97741 1.48925,-2.10916 1.81684,-2.64076c0.77913,-0.47253 1.56645,-0.77485 2.33526,-1.11999c0.50108,-0.01135 0.96992,-0.14986 1.37392,-0.38367c1.25639,-0.28034 2.1937,-1.37696 2.1937,-2.68706c0,-1.01168 -0.55895,-1.89607 -1.39215,-2.37556c-0.08974,-0.15314 -0.18825,-0.27948 -0.29429,-0.3819c0.09826,-0.05022 0.15184,-0.07776 0.15184,-0.07776c0,0 -1.54945,-1.0994 -1.8103,-2.75102c3.32744,0.06101 7.46407,-0.22659 7.46407,-2.99818c0,-0.27918 -0.02437,-0.5305 -0.07015,-0.75669c0.09717,-0.01962 0.15092,-0.03087 0.15092,-0.03087l6.40469,4.62604c-0.25511,0.11816 -0.5796,0.23599 -0.98121,0.38779c-0.23503,0.05472 -0.47691,0.10927 -0.71976,0.17384c0,0 -0.81818,0.21758 -0.59504,1.01539c0.22314,0.7978 1.04133,0.58021 1.04133,0.58021c0.06174,-0.01641 0.12293,-0.03267 0.18356,-0.04879c0.21795,0.00826 0.39288,-0.05997 0.39288,-0.05997c0.12905,-0.05058 0.25385,-0.10057 0.37439,-0.15025c0.70626,-0.20414 1.3192,-0.42627 1.82639,-0.77436c0.13182,0.08415 0.3097,0.1353 0.54945,0.11404c0.84458,-0.07486 0.76781,-0.89841 0.76781,-0.89841c-0.02679,-0.28587 -0.05616,-0.56082 -0.09287,-0.8295c0.02901,-0.07689 0.0567,-0.15647 0.08303,-0.23883c0.86229,0.48503 3.10387,1.76564 4.28552,2.62475z" fill="#710c65" stroke="#000000" stroke-width="0" stroke-linecap="round"/><path d="M230.5166,199.8534c0,0 3.15262,1.74217 4.63566,2.8204c1.58,1.14873 4.57191,3.87387 4.57191,3.87387c0,0 -3.8175,1.89129 -5.93624,2.21869c-2.67655,0.41358 -8.84432,0.06523 -8.84432,0.06523c0,0 -11.88629,6.00983 -18.81896,2.52019c-0.71663,-0.36073 -1.61675,-1.21404 -1.53518,-1.73272c0.25716,-1.63526 3.18157,-3.01515 6.30974,-4.47011c2.22873,-1.03662 4.99837,-2.46034 4.99837,-2.46034c0,0 -3.26398,-2.31591 -1.11488,-5.27479c0.4227,-0.58197 1.66474,-0.50275 3.23706,-0.67225c1.64449,-0.17729 3.61234,-0.58971 3.61234,-0.58971l6.54221,4.72537z" fill="none" stroke="#000000" stroke-width="1" stroke-linecap="round"/><path d="M226.9628,201.50725l0.96921,-0.55129" fill="none" stroke="#000000" stroke-width="1" stroke-linecap="round"/><path d="M230.92043,204.02745c0,0 1.03322,-0.41438 1.76817,-0.5268c0.61759,-0.09446 3.15868,-0.26077 3.15868,-0.26077" fill="none" stroke="#000000" stroke-width="0.5" stroke-linecap="round"/><path d="M215.41215,205.04237c-0.45459,-0.09434 -0.93431,-0.14978 -1.45303,-0.14859c0,0 -0.56537,0 -0.56537,-0.55129c0,-0.55129 0.56537,-0.55129 0.56537,-0.55129c1.94867,0.00394 4.51977,0.52461 6.0728,1.68467c0.34489,0.25762 1.43326,1.06498 0.95841,1.66352c-0.67801,0.85464 -3.31597,-0.96098 -4.0378,-1.43021c-0.3503,-0.09261 -0.69979,-0.1881 -1.04877,-0.28532l-0.48675,-0.37653c0,0 -0.00174,-0.0017 -0.00486,-0.00496z" fill="#ab9efa" stroke="none" stroke-width="0.5" stroke-linecap="butt"/><path d="M216.27091,203.35655c-0.36194,-0.42351 0.0724,-0.77646 0.0724,-0.77646c1.7838,-1.40197 7.0932,-0.9217 8.14422,1.2947c0.91468,1.92886 -0.92097,2.27306 -2.33348,1.61151c-1.79741,-0.49218 -3.48533,-1.07544 -5.25091,-1.61378l-0.07606,-0.12141l-0.03701,0.0361l-0.24936,-0.24315c-0.08935,-0.02738 -0.18172,-0.08446 -0.2698,-0.18752z" fill="#ab9efa" stroke="none" stroke-width="0.5" stroke-linecap="butt"/><path d="M218.01382,201.34356c-0.0007,-0.00102 -0.00139,-0.00203 -0.00209,-0.00305c-0.31362,-0.45871 0.15681,-0.7645 0.15681,-0.7645c1.44638,-0.87542 6.87169,-1.16604 7.52526,0.92529c0.86919,2.78132 -2.49552,1.06886 -3.4648,0.51748c-1.04229,-0.24468 -1.94259,-0.27527 -3.01993,-0.27527h-0.64615c0,0 -0.45648,0.00001 -0.54911,-0.39996z" fill="#dc94e7" stroke="none" stroke-width="0.5" stroke-linecap="butt"/><path d="M220.03192,205.47586c0.34489,0.25762 1.43326,1.06498 0.95841,1.66352c-0.52546,0.66235 -2.22808,-0.27912 -3.30368,-0.95473c0.62499,-0.2965 1.17673,-0.67528 1.66976,-1.14116c0.24083,0.13283 0.46732,0.27685 0.67551,0.43235z" fill="#9362ec" stroke="none" stroke-width="0.5" stroke-linecap="butt"/><path d="M224.48753,203.87482c0.91468,1.92886 -0.92097,2.27306 -2.33348,1.61151c-0.85028,-0.23282 -1.67605,-0.48604 -2.49713,-0.74524c0.67938,-0.7274 1.24194,-1.63946 1.73177,-2.75073c1.40772,0.29943 2.64693,0.93147 3.09885,1.88447z" fill="#9362ec" stroke="none" stroke-width="0.5" stroke-linecap="butt"/><path d="M215.41215,205.04237c-0.45459,-0.09434 -0.93431,-0.14978 -1.45303,-0.14859c0,0 -0.56537,0 -0.56537,-0.55129c0,-0.55129 0.56537,-0.55129 0.56537,-0.55129c1.94867,0.00394 4.51977,0.52461 6.0728,1.68467c0.34489,0.25762 1.43326,1.06498 0.95841,1.66352c-0.67801,0.85464 -3.31597,-0.96098 -4.0378,-1.43021c-0.3503,-0.09261 -0.69979,-0.1881 -1.04877,-0.28532l-0.48675,-0.37653c0,0 -0.00174,-0.0017 -0.00486,-0.00496z" fill="none" stroke="#000000" stroke-width="1" stroke-linecap="butt"/><path d="M216.27091,203.35655c-0.36194,-0.42351 0.0724,-0.77646 0.0724,-0.77646c1.7838,-1.40197 7.0932,-0.9217 8.14422,1.2947c0.91468,1.92886 -0.92097,2.27306 -2.33348,1.61151c-1.79741,-0.49218 -3.48533,-1.07544 -5.25091,-1.61378l-0.07606,-0.12141l-0.03701,0.0361l-0.24936,-0.24315c-0.08935,-0.02738 -0.18172,-0.08446 -0.2698,-0.18752z" fill="none" stroke="#000000" stroke-width="1" stroke-linecap="butt"/><path d="M218.01382,201.34356c-0.0007,-0.00102 -0.00139,-0.00203 -0.00209,-0.00305c-0.31362,-0.45871 0.15681,-0.7645 0.15681,-0.7645c1.44638,-0.87542 6.87169,-1.16604 7.52526,0.92529c0.86919,2.78132 -2.49552,1.06886 -3.4648,0.51748c-1.04229,-0.24468 -1.94259,-0.27527 -3.01993,-0.27527h-0.64615c0,0 -0.45648,0.00001 -0.54911,-0.39996z" fill="#9362ec" stroke="#000000" stroke-width="1" stroke-linecap="butt"/></g><g><path d="M246.94509,209.76438c8.05633,0 15.84229,-2.36319 23.88513,-2.37476c0.38424,-0.01757 0.64228,0.10761 0.81522,0.27537c0.18613,0.15437 0.33567,0.39523 0.3492,0.77112l0.08797,1.07383c-0.01119,4.64067 -2.85015,6.20757 -6.94285,7.84014c-3.5122,1.40101 -8.06234,3.18571 -11.23617,3.18571c-4.18828,0 -8.4505,0.47288 -12.41541,-1.09357c-2.54261,-1.00453 -5.88628,-3.63677 -4.65769,-6.81544c0.64122,-1.65899 1.64205,-1.59548 2.96796,-2.30655c0,0 0.72685,-0.38164 1.27286,0.11284c2.02668,-0.58165 3.74289,-0.6687 5.87378,-0.6687z" fill="#ab9efa" stroke="none" stroke-width="0.5" stroke-linecap="butt"/><path d="M270.83022,207.38961c0.38424,-0.01757 0.64228,0.1076 0.81522,0.27537c0.18613,0.15437 0.33566,0.39523 0.3492,0.77112l0.08798,1.07385c-0.01119,4.64066 -2.85015,6.20756 -6.94287,7.84014c-3.5122,1.40101 -8.06234,3.18571 -11.23617,3.18571c-4.18828,0 -8.4505,0.47288 -12.41541,-1.09357c-2.261,-0.89329 -5.15542,-3.07366 -4.90495,-5.78082c0.94505,0.78314 1.86535,1.50521 2.81066,2.16017c1.56492,1.2789 3.23673,2.17138 5.22574,2.70912c0.53181,0.18711 1.08607,0.35827 1.66744,0.51292c0,0 0.34729,0.09236 0.65107,-0.06391c0.9555,0.12008 1.98216,0.17821 3.09606,0.17683c5.88211,0.58089 15.16529,-2.17573 18.46677,-7.00458c0.48321,-1.54696 0.71144,-3.20884 0.32736,-4.71334c0.66573,-0.03078 1.33295,-0.04802 2.00192,-0.04899z" fill="#9362ec" stroke="none" stroke-width="0.5" stroke-linecap="butt"/><path d="M246.94509,209.76439c8.05633,0 15.84231,-2.3632 23.88513,-2.37476c0.38424,-0.01757 0.64228,0.1076 0.81522,0.27537c0.18613,0.15437 0.33566,0.39523 0.3492,0.77112l0.08798,1.07385c-0.01119,4.64066 -2.85015,6.20756 -6.94287,7.84014c-3.5122,1.40101 -8.06234,3.18571 -11.23617,3.18571c-4.18828,0 -8.4505,0.47288 -12.41541,-1.09357c-2.54261,-1.00453 -5.88628,-3.63677 -4.65769,-6.81544c0.64122,-1.65899 1.64205,-1.59547 2.96796,-2.30653c0,0 0.72686,-0.38164 1.27286,0.11284c2.02668,-0.58165 3.74289,-0.6687 5.87378,-0.6687z" fill="none" stroke="#000000" stroke-width="1" stroke-linecap="butt"/><path d="M244.16169,202.0463c0,0 6.48013,-3.92141 9.32246,-4.60537c4.15086,-0.99883 6.07317,0.78873 6.07317,0.78873c0,0 4.4565,0.74516 6.35584,0.37249c3.73085,-0.73205 4.60378,-2.32322 4.60378,-2.32322c0,0 1.42256,1.62202 0.13285,3.3321c-1.31036,1.73743 -3.87304,3.36822 -3.87304,3.36822c0,0 11.74639,10.6915 -9.96107,13.98041c-26.73302,4.05032 -14.65456,-7.70417 -14.65456,-7.70417c0,0 -0.79487,-0.85582 -1.03129,-1.39824c-0.25505,-0.58518 -0.44739,-1.99434 -0.44739,-1.99434c0,0 -3.65279,0.34417 -4.99001,-0.72516c-0.63757,-0.50984 0.25937,-2.65168 0.44541,-2.85575c0.58343,-0.64001 8.02385,-0.23573 8.02385,-0.23573z" fill="#ae1c51" stroke="#000000" stroke-width="0" stroke-linecap="round"/><path d="M253.48415,197.44091c4.15086,-0.99883 6.07317,0.78873 6.07317,0.78873c0,0 3.22856,0.53984 5.36086,0.47074c-0.25307,0.05308 -0.59139,0.21956 -0.63866,0.7266c-0.07678,0.82354 0.76781,0.89841 0.76781,0.89841c2.2246,0.17358 4.29362,-0.93504 6.13924,-2.10618c-0.02497,0.43397 -0.17295,0.90938 -0.53679,1.39179c-1.31036,1.73743 -3.87304,3.36822 -3.87304,3.36822c0,0 0.61815,0.56264 1.30879,1.46949c-0.57412,-0.47164 -1.12563,0.06613 -1.12563,0.06613c-0.07752,0.07727 -0.16325,0.14895 -0.25566,0.21606c-0.40242,0.06061 -0.76429,0.26297 -1.06603,0.54617c-1.33043,0.53296 -2.87293,0.90916 -2.54682,2.51084c0.21044,1.03361 3.39204,2.38827 4.33596,1.98559c1.27811,-0.54525 1.1834,-2.08088 1.06728,-3.14728c-0.04518,-0.41488 0.09538,-0.95904 -0.11641,-1.29065c0.04846,-0.13277 0.07067,-0.29402 0.01398,-0.46662c2.24934,3.22242 4.42129,9.66682 -11.57652,12.09066c-7.70101,1.16679 -12.18126,1.02201 -14.65728,0.22448c0.36655,-0.45601 0.74259,-0.90186 1.14163,-1.33952c1.34206,-1.30893 3.83836,-2.32957 4.73865,-3.90526c1.13598,-1.98821 -0.16117,-4.95001 -1.3945,-7.62562c3.71572,-0.93011 8.82573,-3.71841 5.77275,-6.53516c0.39135,-0.14593 0.75169,-0.26174 1.06722,-0.33766z" fill="#710c65" stroke="#000000" stroke-width="0" stroke-linecap="butt"/><path d="M244.16169,202.0463c0,0 6.48013,-3.92141 9.32246,-4.60537c4.15086,-0.99883 6.07317,0.78873 6.07317,0.78873c0,0 4.4565,0.74516 6.35584,0.37249c3.73085,-0.73205 4.60378,-2.32322 4.60378,-2.32322c0,0 1.42256,1.62202 0.13285,3.3321c-1.31036,1.73743 -3.87304,3.36822 -3.87304,3.36822c0,0 11.74639,10.6915 -9.96107,13.98041c-26.73302,4.05032 -14.65456,-7.70417 -14.65456,-7.70417c0,0 -0.79487,-0.85582 -1.03129,-1.39824c-0.25505,-0.58518 -0.44739,-1.99434 -0.44739,-1.99434c0,0 -3.65279,0.34417 -4.99001,-0.72516c-0.63757,-0.50984 0.25937,-2.65168 0.44541,-2.85575c0.58343,-0.64001 8.02385,-0.23573 8.02385,-0.23573z" fill="none" stroke="#000000" stroke-width="1" stroke-linecap="round"/><path d="M244.50962,209.2555h-2.26151" fill="none" stroke="#000000" stroke-width="1" stroke-linecap="round"/><path d="M240.94339,206.03256l1.56566,-0.42408" fill="none" stroke="#000000" stroke-width="1" stroke-linecap="round"/><path d="M266.42884,202.80961l-4.17509,-0.16963" fill="none" stroke="#000000" stroke-width="1" stroke-linecap="round"/><path d="M239.87766,205.99435c-0.22175,1.08117 -1.33054,0.86494 -1.33054,0.86494l-0.29988,-0.06665c-0.37693,-0.02827 -0.75383,-0.05655 -1.13075,-0.08482c0,0 -1.12741,-0.08456 -1.0407,-1.1839c0.08672,-1.09935 1.21415,-1.01477 1.21415,-1.01477c0.37693,0.02827 0.75383,0.05654 1.13075,0.08481l0.56995,0.10299c0,0 1.10879,0.21623 0.88703,1.2974z" fill="#000000" stroke="none" stroke-width="0.5" stroke-linecap="butt"/><path d="M269.29922,201.19813c0,0.71682 -0.47792,0.96762 -0.81236,1.05537c-0.25171,0.15619 -0.5034,0.31236 -0.75509,0.46855c0,0 -0.95397,0.59194 -1.56105,-0.33826c-0.60707,-0.93021 0.3469,-1.52215 0.3469,-1.52215c0.31893,-0.19789 0.63786,-0.39581 0.95678,-0.59371l0.69405,-0.17238c0,0 1.13075,0 1.13075,1.10258z" fill="#000000" stroke="none" stroke-width="0.5" stroke-linecap="butt"/><path d="M264.3413,208.49217c0,1.10258 -1.13075,1.10258 -1.13075,1.10258h-0.17397c-4.8134,-0.01272 -9.015,1.34157 -13.41003,3.05927c0,0 -1.04989,0.40949 -1.46983,-0.61424c-0.14951,-0.36446 -0.11273,-0.65106 -0.00334,-0.86907c-0.15379,0.07131 -1.02074,0.42291 -1.50804,-0.45954c-0.46286,-0.83819 0.21608,-1.34235 0.41022,-1.46445c-0.09177,-0.08744 -0.1774,-0.20076 -0.25203,-0.34629c-0.50569,-0.98619 0.50569,-1.47928 0.50569,-1.47928l0.17397,-0.08481c4.36389,-2.12039 9.14064,-4.37778 14.16145,-4.01462c0,0 1.12741,0.08456 1.0407,1.1839c-0.04178,0.52968 -0.32516,0.78452 -0.60762,0.90639c0.2318,-0.01901 0.46452,-0.03724 0.6982,-0.05475l0.26068,-0.00325c0,0 1.13075,0 1.13075,1.10258c0,0.58262 -0.31572,0.85737 -0.6135,0.98695c0.33272,0.09358 0.78747,0.34939 0.78747,1.0486z" fill="#ab9efa" stroke="none" stroke-width="0.5" stroke-linecap="butt"/><path d="M246.94509,206.96551c0,0 -1.85791,-1.54827 -2.2696,-2.4106c-0.36566,-0.76594 -0.07889,-2.50862 -0.07889,-2.50862" fill="none" stroke="#000000" stroke-width="1" stroke-linecap="round"/><path d="M261.64463,203.32175c0,0 0.48283,0.03622 0.79224,0.36936c-0.0786,0.30916 -0.15719,0.61829 -0.2358,0.92745c-0.03265,0.31463 -0.03303,0.55315 -0.03625,0.75141c-0.02887,0.01554 -0.058,0.02953 -0.08711,0.04208c0.02882,-0.00236 0.05766,-0.00472 0.0865,-0.00706c-0.00848,0.44466 -0.04311,0.68824 -0.52975,1.1652c-0.7057,0.69165 -1.24365,2.02021 -2.21799,2.42635c-2.5087,1.04571 -4.82181,-2.24726 -6.39714,-4.13668c2.76622,-1.0497 5.65299,-1.75311 8.62532,-1.53812z" fill="#9362ec" stroke="#000000" stroke-width="0" stroke-linecap="butt"/><path d="M247.72792,209.25549c0,0 4.41348,-1.9812 6.87617,-2.69885c2.57703,-0.75096 8.25853,-1.7115 8.25853,-1.7115" fill="none" stroke="#000000" stroke-width="1" stroke-linecap="round"/><path d="M248.07584,211.29104c0,0 4.0822,-1.65026 6.53203,-2.25758c2.66408,-0.66044 8.86361,-1.55906 8.86361,-1.55906" fill="none" stroke="#000000" stroke-width="1" stroke-linecap="round"/><path d="M264.3413,208.49217c0,1.10258 -1.13075,1.10258 -1.13075,1.10258h-0.17396c-4.8134,-0.01272 -9.015,1.34157 -13.41003,3.05927c0,0 -1.04988,0.40949 -1.46982,-0.61424c-0.14951,-0.36446 -0.11273,-0.65106 -0.00335,-0.86907c-0.15379,0.07131 -1.02074,0.42291 -1.50803,-0.45954c-0.46285,-0.83818 0.21607,-1.34235 0.4102,-1.46445c-0.09177,-0.08744 -0.1774,-0.20075 -0.25202,-0.34628c-0.50569,-0.98618 0.50569,-1.47928 0.50569,-1.47928l0.17397,-0.08481c4.36389,-2.12039 9.14064,-4.37778 14.16145,-4.01462c0,0 1.12741,0.08456 1.0407,1.1839c-0.04179,0.52969 -0.32516,0.78452 -0.60762,0.90639c0.23179,-0.01901 0.46452,-0.03722 0.6982,-0.05475l0.26069,-0.00325c0,0 1.13075,0 1.13075,1.10258c0,0.58262 -0.31572,0.85737 -0.6135,0.98695c0.33272,0.09357 0.78747,0.34939 0.78747,1.0486z" fill="none" stroke="#000000" stroke-width="1" stroke-linecap="butt"/></g><g stroke="#000000" stroke-linecap="round"><path d="M249.57785,194.89175c0,0 4.1247,1.29087 8.10924,0.40071c1.62717,-0.36351 2.47137,-3.62972 2.47137,-3.62972c0,0 3.29644,2.15085 3.10671,3.1869c-0.45506,2.48492 -3.90803,9.85104 -5.36822,9.8866c-1.9554,0.04761 -6.78452,-6.458 -6.78452,-6.458z" fill="#0045d8" stroke-width="0"/><path d="M263.26519,194.84965c-0.45505,2.48493 -3.90803,9.85104 -5.36822,9.8866c-1.9554,0.04761 -6.78452,-6.458 -6.78452,-6.458c0,0 4.42664,2.51328 5.82233,3.02709c1.82696,0.67258 3.68803,-8.54098 3.88254,-9.18496c0.95144,0.68935 2.58291,1.99176 2.44787,2.72927z" fill="#080f95" stroke-width="0"/><path d="M249.57785,194.89174c0,0 4.1247,1.29086 8.10924,0.40071c1.62717,-0.36351 2.47137,-3.62972 2.47137,-3.62972c0,0 3.29644,2.15086 3.10671,3.1869c-0.45505,2.48493 -3.90803,9.85104 -5.36822,9.8866c-1.9554,0.04761 -6.78452,-6.458 -6.78452,-6.458" fill="none" stroke-width="1"/></g></g><g><path d="M271.22269,179.94883c-1.39416,0.34389 -2.45578,-1.26757 -4.84548,-2.24078c-2.43664,-0.99232 -5.04175,-1.62566 -5.3738,-1.94972c-0.92945,-0.9071 0.0553,-2.08468 0.59048,-2.8042c0.10287,-0.1383 3.45939,-0.46162 6.65951,-0.17984c2.69253,0.23709 5.27907,0.95046 5.67657,2.08727c0.03153,0.09016 0.05396,0.1814 0.06796,0.27305c0.01819,0.07932 0.03158,0.16063 0.03982,0.24363c0.04098,0.41283 -0.95369,4.11145 -2.81508,4.5706z" fill="#0045d8" stroke="none" stroke-width="0.5" stroke-linecap="butt"/><path d="M271.2227,179.94883c-1.39416,0.34389 -2.45578,-1.26758 -4.84548,-2.24078c-2.43664,-0.99232 -5.04176,-1.62566 -5.3738,-1.94972c-0.33465,-0.3266 -0.42114,-0.68826 -0.36983,-1.05098c2.08788,-0.22558 4.15413,-0.42327 4.75505,-0.26687c2.98087,0.77579 5.05219,2.81539 7.35565,4.27686c-0.41377,0.6009 -0.92285,1.08379 -1.5216,1.23151z" fill="#080f95" stroke="none" stroke-width="0.5" stroke-linecap="butt"/><path d="M271.2227,179.94883c-1.39416,0.34389 -2.45578,-1.26758 -4.84548,-2.24078c-2.43664,-0.99232 -5.04176,-1.62566 -5.3738,-1.94972c-0.92945,-0.90709 0.0553,-2.08468 0.59048,-2.80421c0.10287,-0.1383 3.45939,-0.46162 6.65951,-0.17985c2.69252,0.23709 5.27908,0.95046 5.67657,2.08728c0.03153,0.09016 0.05396,0.18139 0.06795,0.27306c0.01819,0.07932 0.03158,0.16063 0.03982,0.24362c0.04098,0.41283 -0.95368,4.11145 -2.81508,4.57061z" fill="none" stroke="#000000" stroke-width="1" stroke-linecap="butt"/><g fill="none" stroke="none" stroke-width="1" stroke-linecap="butt" font-family="sans-serif" font-weight="normal" font-size="12" text-anchor="start"/><g stroke="#000000" stroke-linecap="round"><path d="M221.11387,181.30612c0,0 -10.41257,-23.75259 12.6598,-25.24189c23.65703,-1.52705 21.18973,19.09349 21.18973,19.09349c0,0 5.7688,-5.37808 6.73445,-4.9111c0.81507,0.39417 -0.04932,5.40024 -0.7077,7.34174c-0.48651,1.43463 -1.06642,4.49648 -2.44572,4.78994c-0.86816,0.18469 -4.73473,-2.31152 -4.73473,-2.31152c0,0 -7.17815,4.7373 -13.95515,6.64038c-6.69218,1.87927 -16.52593,1.65177 -16.52593,1.65177c0,0 -7.31173,-0.20841 -7.70039,-2.62298c-0.33118,-2.05742 5.48564,-4.42984 5.48564,-4.42984z" fill="#aa96c7" stroke-width="0"/><path d="M249.81726,182.43236c-0.0331,0.01813 -1.47517,-1.9622 -1.47517,-1.9622l-3.02392,2.78314l-5.50481,-6.75125l-6.57618,4.79887l-1.50262,-6.35728c0,0 -11.36624,4.35411 -11.37591,4.32475c-1.90729,-5.78691 -5.50722,-21.98276 13.41502,-23.20417c23.65703,-1.52705 21.18973,19.09349 21.18973,19.09349c0,0 5.63233,3.74762 5.58362,3.91179c-0.42809,1.44332 -1.00716,3.09703 -2.0026,3.3088c-0.86816,0.18469 -4.73473,-2.31152 -4.73473,-2.31152c0,0 -1.59559,1.05301 -3.99244,2.36558z" fill="#a7649a" stroke-width="0"/><path d="M255.48379,176.58557l2.99324,-1.63638l-0.76643,4.9956z" fill="#a7649a" stroke-width="0.5"/><path d="M233.77364,156.06424c23.65703,-1.52705 21.18973,19.09349 21.18973,19.09349c0,0 5.7688,-5.37808 6.73445,-4.9111c0.81507,0.39417 -0.04932,5.40024 -0.7077,7.34174c-0.48651,1.43463 -1.06642,4.49648 -2.44572,4.78994c-0.86816,0.18469 -4.73473,-2.31152 -4.73473,-2.31152c0,0 -7.17815,4.7373 -13.95515,6.64038c-6.69218,1.87927 -16.52593,1.65177 -16.52593,1.65177c0,0 -7.31173,-0.20841 -7.70039,-2.62298c-0.33118,-2.05742 5.48564,-4.42984 5.48564,-4.42984c0,0 -10.41256,-23.75258 12.65981,-25.24188z" fill="none" stroke-width="1"/></g><g stroke="#000000" stroke-linecap="round"><path d="M260.58787,167.5441c0,0 -1.60637,3.52342 -2.61215,4.99054c-0.86852,1.2669 -3.07137,3.29998 -3.07137,3.29998c0,0 -11.34204,-4.10844 -18.9655,-4.3523c-7.78684,-0.2491 -17.68409,1.36597 -17.68409,1.36597c0,0 -5.18511,-17.30853 -1.76646,-20.24465c2.4893,-2.13794 9.97744,-4.58409 17.46747,-4.61952c3.41375,-0.01615 13.1795,0.03766 16.58547,2.8038c4.5649,3.70737 10.04662,16.75618 10.04662,16.75618z" fill="#ae1c51" stroke-width="0"/><path d="M260.58787,167.5441c0,0 -1.60637,3.52343 -2.61215,4.99054c-0.86852,1.2669 -3.07136,3.29998 -3.07136,3.29998c0,0 -5.49265,-1.98961 -11.40246,-3.28189c-0.15469,-0.03382 1.22762,-14.09272 3.74007,-19.79732c0.83197,-1.88903 2.45199,-2.65565 3.29928,-1.96753c4.5649,3.70738 10.04662,16.75619 10.04662,16.75619z" fill="#710c65" stroke-width="0.5"/><path d="M257.97572,172.53465c-0.86852,1.2669 -3.07136,3.29998 -3.07136,3.29998c0,0 -11.34204,-4.10844 -18.9655,-4.35228c-7.78684,-0.2491 -17.68408,1.36597 -17.68408,1.36597c0,0 -5.18511,-17.30854 -1.76646,-20.24465c2.48931,-2.13795 9.97744,-4.58409 17.46747,-4.61952c3.41375,-0.01615 13.1795,0.03765 16.58545,2.80379c4.5649,3.70738 10.04662,16.75619 10.04662,16.75619c0,0 -1.60637,3.52342 -2.61215,4.99053z" fill="none" stroke-width="1"/></g><g stroke="#000000" stroke-linecap="round"><path d="M219.56074,178.37564c0,0 -3.80182,1.27754 -5.51639,2.09073c-1.74083,0.82563 -4.85104,2.8263 -4.85104,2.8263c0,0 1.26259,-3.94874 2.18208,-5.75875c0.87323,-1.71894 3.20326,-4.8422 3.20326,-4.8422l-9.56872,1.51843c0,0 7.70622,-13.30077 11.18719,-15.1527c2.07609,-1.1045 10.59245,3.12767 10.59245,3.12767c0,0 1.02525,-2.75935 1.79394,-4.07192c0.69997,-1.19524 2.63134,-3.48447 2.63134,-3.48447c0,0 2.11723,5.89468 3.4478,8.72047c1.38615,2.9438 4.70917,8.60281 4.70917,8.60281l15.24061,3.48499l-0.72203,6.71457l-6.35768,-5.55411l-2.28727,3.66215l-5.87362,-8.30759l-4.60279,4.49609l-1.62172,-4.89332c0,0 -10.86277,3.58533 -13.23479,5.00726c-0.64659,0.38761 -0.35177,1.81363 -0.35177,1.81363z" fill="#346def" stroke-width="0"/><path d="M221.83144,168.99733l-12.63813,14.29533c0,0 1.26259,-3.94874 2.18207,-5.75875c0.87322,-1.71894 3.20326,-4.8422 3.20326,-4.8422l-9.56871,1.51842c0,0 7.70621,-13.30076 11.18719,-15.1527c2.07608,-1.10451 10.59246,3.12767 10.59246,3.12767c0,0 1.02524,-2.75935 1.79393,-4.07191c0.69997,-1.19524 2.63134,-3.48446 2.63134,-3.48446l-1.40072,11.89702c0,0 -9.52755,-3.50647 -11.71792,-2.98749c-3.43769,0.81451 -7.65685,8.14543 -7.65685,8.14543z" fill="#45afff" stroke-width="0"/><path d="M244.73381,174.75799l-0.32205,4.32243l-3.55893,-5.03372z" fill="#45afff" stroke-width="0"/><path d="M209.19332,183.29266c0,0 1.26259,-3.94874 2.18207,-5.75875c0.87322,-1.71894 3.20326,-4.8422 3.20326,-4.8422l-9.56871,1.51842c0,0 7.70621,-13.30076 11.18719,-15.1527c2.07608,-1.10451 10.59246,3.12767 10.59246,3.12767c0,0 1.02524,-2.75935 1.79393,-4.07191c0.69997,-1.19524 2.63134,-3.48446 2.63134,-3.48446c0,0 2.11722,5.89467 3.44779,8.72046c1.38614,2.9438 4.70917,8.60281 4.70917,8.60281l15.24061,3.48499l-0.72203,6.71457l-6.35767,-5.5541l-2.28728,3.66215l-5.87363,-8.30759l-4.60281,4.49609l-1.62172,-4.89332c0,0 -10.86277,3.58533 -13.23479,5.00726c-0.64659,0.38761 -0.35177,1.81363 -0.35177,1.81363c0,0 -3.8018,1.27754 -5.51638,2.09073c-1.71458,0.81318 -4.85104,2.82627 -4.85104,2.82627z" fill="none" stroke-width="1"/></g></g><g stroke-linecap="butt"><path d="M229.61961,180.22006c0.36838,1.14101 -0.79237,2.51396 -2.59261,3.06659c-1.80024,0.55263 -3.55825,0.07565 -3.92664,-1.06536c-0.36838,-1.14101 0.79237,-2.51396 2.59261,-3.06659c1.80024,-0.55263 3.55825,-0.07565 3.92664,1.06536z" fill="#000000" stroke="#000000" stroke-width="0"/><path d="M242.8791,179.42637c0.20499,1.31918 -1.78449,2.70706 -4.4436,3.09991c-2.65911,0.39286 -4.98092,-0.35807 -5.1859,-1.67725c-0.20499,-1.31918 1.78449,-2.70706 4.4436,-3.09991c2.65911,-0.39286 4.98092,0.35807 5.1859,1.67725z" fill="#000000" stroke="none" stroke-width="0"/><path d="M243.867,185.472c-0.24084,0.88102 -12.50055,5.90799 -13.68352,3.93677c-0.7544,-0.42395 -1.26049,-1.20589 -1.26049,-2.1004c0,-1.34601 1.14595,-2.43717 2.55956,-2.43717c0.28134,0 13.84187,-4.73075 12.38445,0.6008z" fill="#ad5893" stroke="#000000" stroke-width="1"/></g><g fill="none" stroke="#000000" stroke-width="1" stroke-linecap="round"><path d="M248.4968,150.03124v9.90839"/><path d="M250.44128,146.85077v16.88097"/><path d="M252.53534,147.82937v14.55677"/><path d="M254.47984,148.80799v11.25398"/><path d="M256.27474,150.64287v7.46188"/></g><g><path d="M203.0891,191.22322c0.73679,-1.58893 2.65504,-2.29459 4.28455,-1.57617c1.62952,0.71843 2.3532,2.58888 1.61642,4.17781c-0.73679,1.58893 -2.65502,2.29458 -4.28452,1.57616c-1.62952,-0.71843 -2.35321,-2.5889 -1.61645,-4.1778z" fill="#3f5479" stroke="#000000" stroke-width="1" stroke-linecap="butt"/><path d="M224.17687,183.88224c3.86514,2.60521 3.13774,12.47782 -1.13894,15.36605c-1.64605,1.11164 -3.79107,0.92286 -5.33475,-0.11464c-0.14032,-0.09429 -0.7648,-1.39974 -0.8341,-1.37371c-0.39166,0.14717 -0.95198,1.24156 -2.0357,1.44128c-1.46387,0.26976 -3.47443,-0.36867 -3.47443,-0.36867c0,0 -2.98469,1.33876 -3.77363,0.52462c-4.09464,-4.22536 -2.53517,-9.53081 0.17086,-11.95563c0.70645,-0.63305 3.65423,-0.80388 5.20922,-1.47433c1.42328,-0.61368 0.73289,-1.32238 1.77352,-1.38776c0.23598,-0.01481 1.03182,-0.07832 1.7293,0.16959c0.77115,0.27408 1.48057,0.85677 2.47596,0.71066c2.07433,-0.30444 3.12582,-2.95756 5.23269,-1.53747z" fill="#aa96c7" stroke="#000000" stroke-width="0" stroke-linecap="butt"/><path d="M213.23784,199.52439c3.97935,-5.17572 14.11116,-1.29964 10.79126,3.67512c-1.69271,2.53646 -3.71228,0.94906 -5.94214,0.65877c-0.17068,-0.02222 -0.34574,-0.00262 -0.52682,0.04201c-0.8085,0.77076 -2.04952,1.02223 -3.1419,0.54061c-0.2006,-0.08844 -0.38544,-0.19686 -0.55323,-0.32178c-0.9048,-0.67362 -1.31294,-1.82671 -1.01152,-2.90908c-0.17211,-0.61749 0.1516,-1.14203 0.38951,-1.6551z" fill="#a7649a" stroke="#000000" stroke-width="1" stroke-linecap="butt"/><path d="M223.03793,199.24827c-1.64605,1.11164 -3.79107,0.92286 -5.33474,-0.11464c-0.14032,-0.09429 -0.7648,-1.39974 -0.8341,-1.37371c-0.39166,0.14717 -0.95198,1.24156 -2.0357,1.44128c-1.46389,0.26975 -3.47443,-0.36867 -3.47443,-0.36867c0,0 -2.98469,1.33876 -3.77363,0.52462c-0.73648,-0.75998 -1.29004,-1.55495 -1.68694,-2.3618c1.51749,-1.08476 2.76233,-1.79115 3.59277,-3.58209c0.27592,-0.59506 1.24005,-2.08218 1.40104,-2.69368c0.61593,-0.06861 0.51583,-0.0528 1.14985,-0.17807c-0.06968,0.21658 -0.11831,0.43828 -0.14417,0.66483c-0.0376,0.32926 -0.03192,0.68026 0.01164,1.03705c-0.46423,1.32809 0.17424,2.80794 1.51236,3.3979c0.18805,0.0829 0.3805,0.14408 0.5744,0.18464c0.73348,0.37055 1.58828,0.27834 2.44931,-0.61886c0.11439,-0.09721 0.22145,-0.20405 0.31969,-0.31999c0.27931,0.55314 0.74971,1.01873 1.37084,1.29259c0.11874,0.05235 0.23925,0.09605 0.36077,0.13136c0.71031,0.20637 1.45513,0.12612 2.08535,-0.18592c1.64739,-0.37231 3.79846,-1.1751 5.66654,-2.12685c-0.56533,2.2177 -1.65248,4.1976 -3.21088,5.25006z" fill="#a7649a" stroke="#000000" stroke-width="0" stroke-linecap="butt"/><path d="M211.00685,189.90132l1.03281,1.66539c0,0 -0.86483,2.21992 -0.91439,3.31427c-0.05558,1.22718 0.31591,3.57219 0.31591,3.57219" fill="none" stroke="#000000" stroke-width="1" stroke-linecap="round"/><path d="M217.45592,190.10446l0.84547,1.5828c0,0 -0.95152,1.76909 -1.21491,2.93717c-0.27039,1.19912 -0.31127,3.76027 -0.31127,3.76027" fill="none" stroke="#000000" stroke-width="1" stroke-linecap="round"/><path d="M224.17687,183.88224c3.86514,2.60521 3.13775,12.47781 -1.13894,15.36606c-1.64605,1.11164 -3.79107,0.92286 -5.33474,-0.11464c-0.14032,-0.09429 -0.7648,-1.39974 -0.8341,-1.37371c-0.39166,0.14717 -0.95198,1.24156 -2.0357,1.44128c-1.46389,0.26975 -3.47443,-0.36867 -3.47443,-0.36867c0,0 -2.98469,1.33876 -3.77363,0.52462c-4.09464,-4.22536 -2.53517,-9.53081 0.17086,-11.95563c0.70646,-0.63304 3.65423,-0.80388 5.20922,-1.47433c1.42328,-0.61368 0.73289,-1.32238 1.77352,-1.38776c0.24592,-0.01545 0.88993,-0.13846 1.63103,0.11826c0.75627,0.26196 1.61679,0.90253 2.57422,0.762c2.07433,-0.30444 3.12582,-2.95756 5.23269,-1.53747z" fill="none" stroke="#000000" stroke-width="1" stroke-linecap="butt"/><path d="M221.88002,192.30252c1.45016,-3.12739 4.16773,-4.65282 6.57318,-3.59229c2.40546,1.06054 3.1799,4.45551 1.72973,7.58291c-1.45016,3.12739 -3.92905,4.86803 -6.33453,3.80749c-2.40546,-1.06054 -3.41853,-4.67073 -1.96837,-7.79813z" fill="#93c0c3" stroke="none" stroke-width="0" stroke-linecap="butt"/><path d="M223.84839,200.10064c-2.32174,-1.02361 -3.34632,-4.42246 -2.11091,-7.4699c2.79396,1.26075 5.55075,2.60097 8.34344,3.87664c-1.46251,2.99198 -3.88256,4.62932 -6.23255,3.59326z" fill="#475f86" stroke="none" stroke-width="0" stroke-linecap="butt"/><path d="M222.98506,190.50532c0.73854,0.42872 1.96045,0.5833 2.45241,0.78049c1.09259,0.43791 3.3793,1.6708 5.47109,2.08379c-0.02736,0.68727 -0.15887,1.40229 -0.40137,2.11504c-2.77286,-1.26739 -5.51057,-2.59768 -8.28487,-3.85c0.23237,-0.41148 0.48814,-0.78886 0.76275,-1.12932z" fill="#475f86" stroke="none" stroke-width="0" stroke-linecap="butt"/><path d="M221.88002,192.30252c1.45016,-3.12739 4.16773,-4.65282 6.57318,-3.59229c2.40546,1.06054 3.1799,4.45551 1.72973,7.58291c-1.45016,3.12739 -3.92905,4.86803 -6.33453,3.80749c-2.40546,-1.06054 -3.41853,-4.67073 -1.96837,-7.79813z" fill="none" stroke="#000000" stroke-width="1" stroke-linecap="butt"/><path d="M225.15587,192.5367c2.03491,-4.38843 7.1147,-6.76368 11.30487,-4.91631c4.19017,1.84737 5.17906,6.34819 3.14416,10.73663c-2.03491,4.38843 -7.08132,6.44837 -11.27148,4.60101c-4.19015,-1.84737 -5.21244,-6.03286 -3.17754,-10.42131z" fill="#3f5479" stroke="#000000" stroke-width="0" stroke-linecap="butt"/><path d="M239.60489,198.35703c-2.03491,4.38843 -7.08132,6.44837 -11.27148,4.60101c-3.55689,-1.56817 -4.8311,-4.82115 -3.8903,-8.45288c0.13863,0.14801 0.29551,0.2905 0.47178,0.42655c3.77874,2.91684 11.33582,4.94518 15.43846,1.30233c-0.17015,0.70282 -0.41989,1.41437 -0.74848,2.12297z" fill="#323344" stroke="#000000" stroke-width="0" stroke-linecap="butt"/><path d="M235.00143,188.5171c0.19297,-0.41614 0.69537,-0.60096 1.12213,-0.41281c0.42679,0.18816 0.61631,0.67805 0.42335,1.09418c-0.19297,0.41614 -0.69537,0.60096 -1.12213,0.41281c-0.42679,-0.18816 -0.61631,-0.67805 -0.42335,-1.09418z" fill="#95c2c5" stroke="none" stroke-width="0.5" stroke-linecap="butt"/><path d="M225.15587,192.5367c2.03491,-4.38843 7.1147,-6.76368 11.30487,-4.91631c4.19017,1.84737 5.17906,6.34819 3.14416,10.73663c-2.03491,4.38843 -7.08132,6.44837 -11.27148,4.60101c-4.19015,-1.84737 -5.21244,-6.03286 -3.17754,-10.42131z" fill="none" stroke="#000000" stroke-width="1" stroke-linecap="butt"/><path d="M238.05715,200.1074c0,0 -2.1907,1.83535 -6.98755,-0.04786c-2.6438,-1.03792 -5.74501,-2.60108 -5.74501,-2.60108" fill="none" stroke="#000000" stroke-width="1" stroke-linecap="round"/><path d="M239.54568,198.10155c0,0 -2.62293,-0.37662 -4.32402,-0.88024c-2.69721,-0.79853 -10.29764,-3.4486 -10.29764,-3.4486" fill="none" stroke="#000000" stroke-width="1" stroke-linecap="round"/><path d="M225.53321,191.92369c0,0 4.192,-1.12539 8.25162,0.298c3.45561,1.21163 6.3517,4.20427 6.3517,4.20427" fill="none" stroke="#000000" stroke-width="1" stroke-linecap="round"/><path d="M227.59063,188.95861c0,0 3.67071,-0.91021 6.80145,0.37243c3.14608,1.28893 6.15468,4.06915 6.15468,4.06915" fill="none" stroke="#000000" stroke-width="1" stroke-linecap="round"/><path d="M226.96155,201.68933c0,0 -1.75731,-3.83472 -0.7166,-7.75116c0.6017,-2.26434 3.55682,-6.00128 3.55682,-6.00128" fill="none" stroke="#000000" stroke-width="1" stroke-linecap="round"/><path d="M229.15838,202.83938c0,0 -1.27044,-5.17752 -0.00387,-8.65545c0.98816,-2.7134 5.0207,-6.98098 5.0207,-6.98098" fill="none" stroke="#000000" stroke-width="1" stroke-linecap="round"/><path d="M232.23321,203.1665c0,0 -1.72013,-1.72338 1.52858,-9.38733c1.04567,-2.46682 3.85023,-5.424 3.85023,-5.424" fill="none" stroke="#000000" stroke-width="1" stroke-linecap="round"/><path d="M240.06204,192.03695l-4.6205,10.36593" fill="none" stroke="#000000" stroke-width="1" stroke-linecap="round"/></g></g></g></svg>