<svg version="1.1" xmlns="http://www.w3.org/2000/svg" xmlns:xlink="http://www.w3.org/1999/xlink" width="127.66667" height="127.66667" viewBox="0,0,127.66667,127.66667"><g transform="translate(-176.16668,-116.16666)"><g data-paper-data="{&quot;isPaintingLayer&quot;:true}" fill-rule="nonzero" stroke-linejoin="miter" stroke-miterlimit="10" stroke-dasharray="" stroke-dashoffset="0" style="mix-blend-mode: normal"><g><path d="M206.13311,172.81713c-0.00234,-0.00074 -0.00354,-0.00114 -0.00354,-0.00114l-0.45265,-0.35225c-0.45681,-1.2808 0.35717,-2.36895 1.36991,-3.17187c2.18056,-0.80943 7.71876,-3.52251 8.85473,0.17948c0.53704,1.75018 -0.21464,3.60822 -0.35142,5.3537c-2.13954,6.30581 -6.83261,1.06489 -9.41699,-2.00789z" fill="#323344" stroke="#000000" stroke-width="1" stroke-linecap="butt"/><path d="M234.59333,178.34507c0.82885,-0.99834 3.126,-3.28354 4.50614,-3.42008c3.93658,-0.38947 3.8348,3.56512 3.26662,6.05468c-0.77289,2.23913 -3.15821,5.36349 -6.24585,7.10981c-2.12892,1.20407 -4.77797,1.46332 -6.41272,1.60399c-0.55756,0.04798 -1.99235,-0.65405 -2.88255,-4.41498c-0.8324,-3.5168 -0.45647,-8.18172 0.8785,-8.49789c1.1488,-0.2721 6.31025,2.2668 6.31025,2.2668z" fill="#dc94e7" stroke="#000000" stroke-width="1" stroke-linecap="butt"/><path d="M229.53521,181.22143c0.03874,0.05623 0.05794,0.09585 0.05794,0.09585l0.38198,0.95279c0.01988,0.87057 -0.24122,1.55992 -0.46186,2.24229c-0.27158,0.8399 -0.58059,1.63505 -1.42508,2.32985c-5.5306,3.73722 -16.41948,1.76236 -13.41814,-6.89509c1.26993,-3.60512 5.02662,-3.55039 8.58274,-2.38997c2.42291,0.79065 4.78834,1.992 6.07138,3.30039c0,0 0.14302,0.1465 0.21104,0.36386z" fill="#f89688" stroke="#000000" stroke-width="1" stroke-linecap="butt"/><path d="M214.15261,170.68979c-0.50043,-0.50958 -0.02761,-1.09129 -0.02761,-1.09129c1.26563,-1.55494 5.60988,-4.17735 7.41522,-2.40034c1.85146,1.82239 -0.20449,3.59971 0.55676,5.51348c0.35864,0.90162 2.10968,1.52595 2.8428,2.12226c0.01346,1.11749 0.13229,1.35306 -0.24134,2.35175c-0.65967,1.76322 -2.4092,2.36534 -4.05911,1.34555c-2.64271,-1.63339 -3.1955,-5.3351 -5.78127,-7.05011l-0.27823,-0.16111c0,0 -0.38559,-0.2265 -0.42722,-0.63018z" fill="#fcdfbd" stroke="none" stroke-width="0.5" stroke-linecap="butt"/><path d="M224.93978,174.83389c0.01346,1.11749 0.13229,1.35306 -0.24136,2.35176c-0.65967,1.76321 -2.4092,2.36534 -4.05911,1.34555c-2.04097,-1.26149 -2.83542,-3.75661 -4.2825,-5.61749c0.75839,0.1393 1.45293,0.2702 1.95051,0.44343c0.54334,0.18918 0.88617,0.571 1.18557,1.00095c0.21997,0.72668 0.73318,1.35487 1.45122,1.7024c0.28141,0.15937 0.62166,0.26731 1.05049,0.29643c0.12064,0.00819 0.24877,-0.00048 0.38163,-0.02427c1.00277,-0.07786 1.91885,-0.69816 2.33956,-1.66267c0.08189,0.05501 0.15715,0.10958 0.22398,0.16393z" fill="#f89688" stroke="none" stroke-width="0.5" stroke-linecap="butt"/><path d="M214.15261,170.68979c-0.50043,-0.50958 -0.02761,-1.09129 -0.02761,-1.09129c1.26563,-1.55494 5.60988,-4.17735 7.41522,-2.40035c1.85145,1.82238 -0.20449,3.5997 0.55677,5.51347c0.35865,0.90161 2.10967,1.52595 2.84279,2.12227c0.01346,1.11749 0.13229,1.35306 -0.24136,2.35176c-0.65967,1.76321 -2.4092,2.36534 -4.05911,1.34555c-2.64271,-1.63339 -3.1955,-5.3351 -5.78127,-7.05011l-0.27823,-0.16114c0,0 -0.38559,-0.2265 -0.42722,-0.63017z" fill="none" stroke="#000000" stroke-width="1" stroke-linecap="butt"/><path d="M215.63051,168.91218c-0.18261,0.52676 -0.70939,0.34415 -0.70939,0.34415l-0.08104,-0.02811c-3.26661,-1.13246 -6.53342,0.22334 -8.03838,3.40614c0,0 -0.07567,0.15893 -0.23129,0.25567l-0.03197,0.27748c0,0 -0.48674,0.23613 -0.73389,-0.23628c-0.06493,-0.03344 -0.12987,-0.06689 -0.19479,-0.10034c0,0 -0.28042,-0.14443 -0.31076,-0.42691c-0.24103,-0.2283 -0.11955,-0.57875 -0.11955,-0.57875l0.0548,-0.14496c2.23563,-4.53401 5.35426,-5.6508 9.97757,-4.04801c0,0 0.52676,0.18261 0.34415,0.70939c-0.0042,0.01212 -0.00859,0.02387 -0.01314,0.03526c0.10102,0.11222 0.1745,0.28486 0.08769,0.53528z" fill="#455d83" stroke="none" stroke-width="0.5" stroke-linecap="butt"/><path d="M207.14157,171.9955c-0.36002,-0.42217 -0.81381,-0.75852 -1.30683,-0.9478c-0.05169,-0.06316 -0.10914,-0.12207 -0.17193,-0.17577c0.81787,-1.43175 1.74759,-2.45422 2.81539,-3.09689c0.19633,0.71669 0.3717,1.44412 0.54983,2.16437c-0.73804,0.51703 -1.3812,1.20779 -1.88646,2.0561z" fill="#85afb1" stroke="none" stroke-width="0.5" stroke-linecap="butt"/><path d="M210.87225,166.97991c0.10568,0.68478 0.33647,1.41228 0.58342,1.95058c-0.49379,0.08802 -0.97126,0.23525 -1.42486,0.43889c-0.17318,-0.69322 -0.34476,-1.38953 -0.53506,-2.07766c0.43738,-0.15662 0.89574,-0.26002 1.37649,-0.31182z" fill="#85afb1" stroke="none" stroke-width="0.5" stroke-linecap="butt"/><path d="M215.6305,168.91219c-0.18261,0.52676 -0.70939,0.34415 -0.70939,0.34415l-0.08104,-0.02811c-3.26661,-1.13246 -6.53342,0.22334 -8.03839,3.40615c0,0 -0.07567,0.15893 -0.23129,0.25567l-0.032,0.27749c0,0 -0.48674,0.23614 -0.73389,-0.23628c-0.06493,-0.03344 -0.12987,-0.06689 -0.19479,-0.10034c0,0 -0.28041,-0.14444 -0.31076,-0.42691c-0.24104,-0.22831 -0.11955,-0.57875 -0.11955,-0.57875l0.0548,-0.14496c2.23563,-4.53401 5.35426,-5.65081 9.97757,-4.04801c0,0 0.52676,0.18261 0.34415,0.70939c-0.00419,0.01211 -0.00859,0.02387 -0.01314,0.03527c0.10102,0.11222 0.1745,0.28486 0.08769,0.53528z" fill="none" stroke="#000000" stroke-width="1" stroke-linecap="butt"/><path d="M220.69612,181.1513c0,0 2.95734,1.08323 2.83387,2.93002c-0.09907,1.48177 -1.65216,2.08164 -2.67603,2.87467c-2.42339,1.87698 -6.22272,5.1406 -8.63342,1.61157c-0.4669,-0.83984 -0.75051,-1.64301 -1.05834,-2.54954l-0.05046,-0.10137c-1.20056,0.1424 -2.22281,-0.16424 -2.62102,-0.94478c-0.42159,-0.82636 -0.54065,-2.28341 -0.78053,-3.35464c-1.47187,-0.27022 -3.07633,-0.56721 -3.88846,-1.82695c-0.78106,-1.21153 -0.17358,-2.13841 0.23256,-3.30995c1.13764,-3.28154 4.08982,-5.25019 7.51945,-5.57245c1.76336,-0.3572 3.75477,-1.19836 5.60687,-0.67235c1.30256,0.36995 1.82065,1.39041 2.02542,2.4543c0.23624,1.22749 -0.00726,2.54317 -0.96635,3.48c1.10087,0.60546 2.00379,1.67604 2.48463,2.79074c0.47083,1.09154 0.02107,1.36097 -0.02818,2.19075z" fill="#fde0be" stroke="none" stroke-width="0.5" stroke-linecap="butt"/><path d="M223.53001,184.08134c-0.09907,1.48179 -1.65215,2.08165 -2.67602,2.87466c-2.4234,1.87698 -6.22272,5.1406 -8.63343,1.61158c-0.4669,-0.83984 -0.75051,-1.64301 -1.05832,-2.54955l-0.05046,-0.10137c-1.20056,0.1424 -2.22281,-0.16424 -2.62102,-0.94478c-0.42159,-0.82636 -0.54064,-2.2834 -0.78054,-3.35465c-1.47187,-0.27022 -3.07632,-0.5672 -3.88845,-1.82696c-0.78106,-1.21155 -0.17358,-2.13841 0.23256,-3.30995c0.38057,-1.0978 0.96424,-2.04868 1.70092,-2.84012c0.00456,0.19765 -0.01405,0.38514 -0.08813,0.55909l0.00365,0.00853c-0.4595,1.05582 -0.411,2.04039 0.00667,2.82002c0.30459,0.67221 0.87389,1.2229 1.62622,1.48372c0.27221,0.09437 0.54911,0.1441 0.82268,0.15306c0.28149,0.04978 0.57886,0.07452 0.88931,0.07165c1.35022,-0.01251 3.35672,-0.39515 5.36082,-1.08019c-0.60365,0.73457 -1.1514,1.48348 -1.56114,2.10684c-0.24977,0.27236 -0.44914,0.59911 -0.57791,0.9705c-0.0767,0.22122 -0.1239,0.44552 -0.14372,0.66864c-0.52073,1.50206 0.46864,2.42657 1.65855,2.79778c0.067,0.02928 0.13565,0.05615 0.20591,0.08051c0.57951,0.2009 1.18019,0.19948 1.72508,0.03312c0.17334,-0.03959 0.33144,-0.09497 0.46771,-0.16604c0.15368,-0.08015 0.31853,-0.17228 0.49205,-0.27468c0.15558,0.1832 -1.56491,1.73531 -1.36856,1.87389c0.58096,0.41007 3.23008,-0.79257 4.10747,-1.00655c0.70299,-0.17144 1.21545,-0.46949 1.57067,-0.84384c0.42407,-0.32127 0.76097,-0.76722 0.94831,-1.3076c0.08475,-0.24445 0.1335,-0.49268 0.14905,-0.73891c0.75998,0.5024 1.54489,1.2617 1.48004,2.23162z" fill="#f89688" stroke="none" stroke-width="0.5" stroke-linecap="butt"/><path d="M220.69612,181.1513c0,0 2.95734,1.08323 2.83387,2.93002c-0.09907,1.48179 -1.65215,2.08165 -2.67602,2.87466c-2.4234,1.87698 -6.22272,5.1406 -8.63343,1.61158c-0.4669,-0.83984 -0.75051,-1.64301 -1.05832,-2.54955l-0.05046,-0.10137c-1.20056,0.1424 -2.22281,-0.16424 -2.62102,-0.94478c-0.42159,-0.82636 -0.54064,-2.2834 -0.78054,-3.35465c-1.47187,-0.27022 -3.07632,-0.5672 -3.88845,-1.82696c-0.78106,-1.21155 -0.17358,-2.13841 0.23256,-3.30995c1.13764,-3.28154 4.08982,-5.2502 7.51943,-5.57245c1.76336,-0.3572 3.75477,-1.19836 5.60688,-0.67234c1.30256,0.36995 1.82065,1.39041 2.0254,2.45429c0.23624,1.22749 -0.00726,2.54317 -0.96635,3.48c1.10088,0.60545 2.00379,1.67604 2.48463,2.79074c0.47084,1.09155 0.02107,1.36097 -0.02818,2.19075z" fill="none" stroke="#000000" stroke-width="1" stroke-linecap="butt"/><path d="M212.25759,178.06535l6.10677,-1.50205" fill="none" stroke="#000000" stroke-width="1" stroke-linecap="round"/><path d="M220.35339,181.26536l-4.56439,2.2728" fill="none" stroke="#000000" stroke-width="1" stroke-linecap="round"/><path d="M201.60342,162.3699c1.5594,-4.49813 6.17718,-7.3451 10.67533,-5.78571c2.40304,0.83309 3.43423,2.36942 4.26585,4.43956c0.28018,0.69745 0.6347,1.98753 0.6467,3.22619c0.01906,1.96672 -0.96671,3.57329 -1.17116,3.80272c-0.16282,0.1827 -2.3354,-2.36831 -5.86006,-1.15001c-3.59519,1.24267 -5.57927,5.0782 -5.57927,5.0782c0,0 -1.93763,-1.10052 -2.84238,-2.78197c-1.00818,-1.87369 -0.95682,-4.4583 -0.13497,-6.82898z" fill="#465e85" stroke="#000000" stroke-width="0" stroke-linecap="butt"/><path d="M201.60342,162.3699c0.1958,-0.56481 0.43984,-1.10356 0.72577,-1.61085c0.01702,0.09321 0.04348,0.18414 0.07867,0.27141l-0.00295,0.02136l0.02626,0.03311c0.09766,0.21552 0.24977,0.40604 0.44551,0.54938l0.18954,0.14574l0.13087,0.05696l0.09133,0.12036l0.06867,0.05516l0.04441,0.07605l0.07047,0.07217l0.00288,0.01539l0.03352,0.0219l0.02712,0.02779l0.27262,0.16805l0.26812,0.17516l0.0367,0.01273l0.03408,0.02101l0.01515,-0.00395l0.02759,0.00957l0.01893,0.03239l0.07047,0.07217l0.00288,0.01539l0.03352,0.0219l0.02712,0.02779l0.27262,0.16805l0.26812,0.17516l0.0367,0.01273l0.03408,0.02101l0.01515,-0.00395l6.79872,2.35695l0.03178,0.01959l0.26812,0.17516l0.0367,0.01273l0.03408,0.02101l0.01515,-0.00395l0.20585,0.07136l0.01649,0.0208l0.43006,0.33066l0.16151,0.0703l0.25943,0.1599l0.26812,0.17516l0.0367,0.01273l0.03408,0.02101l0.01515,-0.00395l0.44896,0.15565l0.01649,0.0208l0.1365,0.10495l0.13525,0.13851l0.00288,0.01539l0.03352,0.0219l0.02712,0.02779l0.22807,0.14059c-1.01127,-0.52216 -2.53005,-0.97698 -4.45004,-0.31333c-3.59519,1.24267 -5.57927,5.0782 -5.57927,5.0782c0,0 -1.93763,-1.10052 -2.84238,-2.78197c-1.00818,-1.87369 -0.95682,-4.4583 -0.13497,-6.82898z" fill="#323344" stroke="#000000" stroke-width="0" stroke-linecap="butt"/><path d="M207.64915,159.45912l-0.00231,0.01696l-0.0169,-0.01823z" fill="#323344" stroke="#000000" stroke-width="0" stroke-linecap="butt"/><path d="M201.60342,162.3699c1.5594,-4.49814 6.17719,-7.3451 10.67533,-5.78571c2.40304,0.83309 3.43422,2.36941 4.26584,4.43955c0.28018,0.69745 0.6347,1.98752 0.6467,3.22619c0.01905,1.96672 -0.96669,3.57329 -1.17115,3.80272c-0.16282,0.1827 -2.33539,-2.36829 -5.86006,-1.14999c-3.59519,1.24267 -5.57927,5.0782 -5.57927,5.0782c0,0 -1.93766,-1.10051 -2.84239,-2.78197c-1.00818,-1.87369 -0.95682,-4.4583 -0.13497,-6.82897z" fill="none" stroke="#000000" stroke-width="1" stroke-linecap="butt"/><path d="M203.39058,170.56964c0,0 2.08539,-5.52417 5.64879,-6.44648c3.7678,-0.97521 7.3902,2.61495 7.3902,2.61495" fill="none" stroke="#000000" stroke-width="1" stroke-linecap="round"/><path d="M201.23816,166.82769c0,0 3.07621,-4.66187 6.73225,-6.44948c3.31924,-1.62294 8.11884,0.79509 8.11884,0.79509" fill="none" stroke="#000000" stroke-width="1" stroke-linecap="round"/><path d="M202.08859,161.49412c0,0 3.96461,-2.77225 5.95488,-3.53803c1.79574,-0.69095 5.4633,-0.85537 5.4633,-0.85537" fill="none" stroke="#000000" stroke-width="1" stroke-linecap="round"/><path d="M205.5733,169.51072c0,0 -2.26606,-1.39662 -2.99092,-2.30554c-0.70902,-0.88904 -1.31178,-3.08967 -1.31178,-3.08967" fill="none" stroke="#000000" stroke-width="1" stroke-linecap="round"/><path d="M206.88291,168.87539c0,0 -2.29248,-2.37993 -3.14117,-3.69141c-0.75642,-1.16887 -1.7061,-3.799 -1.7061,-3.799" fill="none" stroke="#000000" stroke-width="1" stroke-linecap="round"/><path d="M208.25522,167.5355c0,0 -2.14992,-2.72575 -2.63039,-4.28929c-0.52511,-1.70876 -0.3983,-5.56642 -0.3983,-5.56642" fill="none" stroke="#000000" stroke-width="1" stroke-linecap="round"/><path d="M208.06406,156.30322c0,0 1.31701,4.72993 1.59584,6.59861c0.2312,1.54942 -0.03885,3.83625 -0.03885,3.83625" fill="none" stroke="#000000" stroke-width="1" stroke-linecap="round"/><path d="M211.56179,156.42642c0,0 1.25645,3.03152 1.38739,4.61066c0.13742,1.65728 -0.58137,5.10994 -0.58137,5.10994" fill="none" stroke="#000000" stroke-width="1" stroke-linecap="round"/><path d="M215.83102,160.0852c0,0 0.0139,2.17885 -0.20253,3.27266c-0.22585,1.14125 -1.12551,3.43861 -1.12551,3.43861" fill="none" stroke="#000000" stroke-width="1" stroke-linecap="round"/></g><path d="M176.16668,243.83333v-127.66667h127.66667v127.66667z" fill="none" stroke="none" stroke-width="NaN" stroke-linecap="butt"/><g><g stroke="#000000"><path d="M254.29413,193.31798l1.75835,9.73519l-37.56842,-0.98638c0,0 0.35965,-9.54107 2.07153,-11.34553c0.59347,-0.62556 6.41997,2.03919 6.41997,2.03919l0.25732,-3.81689z" fill="#0066cd" stroke-width="0" stroke-linecap="round"/><path d="M247.75783,195.084c-1.50492,0.75211 -3.46626,1.96401 -5.55469,2.32519c-3.234,0.55932 -6.47304,0.03793 -6.47304,0.03793c0,0 0.30281,3.49312 0.18664,5.07736l-6.30755,-0.16562c0.10962,-1.29633 -0.57405,-3.71336 -1.36584,-5.89166c-0.62872,-1.72966 -1.37315,-3.35633 -1.50415,-3.81326c0.15103,0.06748 0.23634,0.1065 0.23634,0.1065l0.25732,-3.81689l20.66543,3.37873c0,0 0.43609,0.795 0.40582,1.59336c-0.01954,0.51496 -0.48353,1.15655 -0.54628,1.16833z" fill="#061483" stroke-width="0" stroke-linecap="butt"/><path d="M254.29413,193.31798l1.75835,9.73519l-37.56842,-0.98638c0,0 0.35965,-9.54107 2.07153,-11.34553c0.59347,-0.62556 6.41997,2.03919 6.41997,2.03919l0.25732,-3.81689z" fill="none" stroke-width="1" stroke-linecap="round"/><path d="M232.8081,195.67673l2.1872,1.887" fill="none" stroke-width="1" stroke-linecap="round"/></g><g><path d="M240.61342,209.63623c0,0.33519 -1.63074,2.50378 -2.85523,2.79868c-2.46242,0.59307 -7.38873,0.24178 -11.07692,0.90119c-1.33696,0.23903 -3.19606,0.44866 -4.63054,1.09762c-0.92448,0.41823 -1.74343,2.02085 -6.96282,2.16315c-3.25738,0.0888 -6.83425,-0.83198 -7.71227,-1.14691c-2.50226,-0.89751 -3.34425,-2.76549 -3.30137,-4.09828c0.01257,-0.39041 0.42812,-1.81565 1.76048,-1.48829c0.90605,0.22261 3.46358,1.84521 6.17255,2.24522c3.29288,0.48623 6.89529,0.06209 7.94157,-0.19361c2.51502,-0.61463 4.62961,-2.03761 7.06881,-2.81725c2.58159,-0.82516 5.97162,0.34968 8.04687,-0.15176c2.70956,-0.65471 3.81251,-2.83717 4.39353,-2.55589c0.93799,0.4541 1.15532,2.55874 1.15532,3.24612z" fill="#feecf7" stroke="none" stroke-width="0" stroke-linecap="butt"/><path d="M237.75819,212.4349c-2.46242,0.59306 -7.38873,0.24178 -11.07692,0.90119c-1.33696,0.23904 -3.19606,0.44867 -4.63054,1.09763c-0.92447,0.41822 -1.74343,2.02085 -6.9628,2.16315c-0.4438,0.0121 -0.89353,0.00545 -1.34155,-0.01584c-0.43617,-1.67958 -1.41883,-3.10604 -2.32625,-4.5779c0.19455,0.04094 0.39047,0.07644 0.58718,0.10547c3.29288,0.48623 6.8953,0.0621 7.94157,-0.19361c2.51503,-0.61465 4.62961,-2.03761 7.06882,-2.81725c2.58159,-0.82514 5.97162,0.34968 8.04687,-0.15176c2.70956,-0.6547 3.81251,-2.83717 4.39353,-2.55589c0.93799,0.45411 1.15532,2.55874 1.15532,3.24612c0,0.3352 -1.63074,2.50378 -2.85523,2.79868z" fill="#dd95e8" stroke="none" stroke-width="0" stroke-linecap="butt"/><path d="M240.61342,209.63623c0,0.33519 -1.63074,2.50378 -2.85523,2.79868c-2.46242,0.59307 -7.38873,0.24178 -11.07692,0.90119c-1.33696,0.23903 -3.19606,0.44866 -4.63054,1.09762c-0.92448,0.41823 -1.74343,2.02085 -6.96282,2.16315c-3.25738,0.0888 -6.83425,-0.83198 -7.71227,-1.14691c-2.50226,-0.89751 -3.34425,-2.76549 -3.30137,-4.09828c0.01257,-0.39041 0.42812,-1.81565 1.76048,-1.48829c0.90605,0.22261 3.46358,1.84521 6.17255,2.24522c3.29288,0.48623 6.89529,0.06209 7.94157,-0.19361c2.51502,-0.61463 4.62961,-2.03761 7.06881,-2.81725c2.58159,-0.82516 5.97162,0.34968 8.04687,-0.15176c2.70956,-0.65471 3.81251,-2.83717 4.39353,-2.55589c0.93799,0.4541 1.15532,2.55874 1.15532,3.24612z" fill="none" stroke="#000000" stroke-width="1" stroke-linecap="butt"/><path d="M218.35539,201.20906l-1.32948,-3.73111c0,0 2.8106,-2.12368 7.65675,-1.54147c3.72193,0.44716 5.08049,4.41485 5.08049,4.41485c0,0 3.57503,-4.04059 4.74028,-3.35392c0.51589,0.30401 2.34417,1.10802 2.97465,2.21711c1.53721,2.70415 1.80584,6.62625 1.80584,6.62625c0,0 -0.38263,2.21366 -2.79127,2.88539c-1.68043,0.46864 -4.34287,0.34385 -7.03231,0.50096c-0.85331,0.04984 -1.69638,0.03395 -2.4905,0.25952c-1.84413,0.5238 -3.42297,1.56729 -5.3759,2.2564c-1.55439,0.54848 -3.47151,0.8096 -5.04159,0.85874c-3.6108,0.11301 -7.30255,-0.80321 -10.16225,-2.30084c-1.8351,-0.96105 1.51881,-3.82844 5.17407,-5.95649c3.26663,-1.9018 6.79121,-3.1354 6.79121,-3.1354z" fill="#ff292e" stroke="#000000" stroke-width="0" stroke-linecap="round"/><path d="M227.6901,197.3114c0.56861,0.50162 1.73755,1.99339 1.90193,3.00395c0.1394,0.857 -0.70861,1.23546 -0.48498,1.75693c0.19854,0.46296 1.42806,0.16605 1.42806,0.16605c0,0 2.04695,-0.84384 3.62863,-2.29243c0.7716,-0.70667 1.64124,-2.23 1.64124,-2.23c0,0 1.33278,0.89999 1.67309,1.49863c1.53721,2.70415 1.80584,6.62625 1.80584,6.62625c0,0 -0.38263,2.21366 -2.79127,2.88539c-1.68043,0.46864 -4.34287,0.34385 -7.03231,0.50096c-0.85331,0.04984 -1.69638,0.03395 -2.4905,0.25952c-1.84413,0.5238 -3.42297,1.56729 -5.3759,2.2564c-1.55439,0.54848 -3.47151,0.8096 -5.04159,0.85874c-0.98536,0.03084 -2.95564,-0.12833 -2.95564,-0.12833c0,0 -0.45608,-2.69671 1.66501,-5.12594c2.44768,-2.80325 7.68327,-4.11214 10.44969,-6.15067c2.49395,-1.83776 1.78263,-4.05842 1.97869,-3.88545z" fill="#ac0e49" stroke="#000000" stroke-width="0" stroke-linecap="round"/><path d="M229.76313,200.30844c0,0 0.12921,1.06387 -0.40554,1.51144c-0.38839,0.32507 -1.9532,0.58999 -1.9532,0.58999" fill="none" stroke="#000000" stroke-width="1" stroke-linecap="round"/><path d="M235.05963,200.30844c0,-0.46186 0.37442,-0.83628 0.83628,-0.83628c0.46186,0 0.83628,0.37442 0.83628,0.83628c0,0.46186 -0.37442,0.83628 -0.83628,0.83628c-0.46186,0 -0.83628,-0.37442 -0.83628,-0.83628z" fill="#000000" stroke="none" stroke-width="0.5" stroke-linecap="butt"/><path d="M218.35539,201.20906l-1.32948,-3.73111c0,0 2.8106,-2.12368 7.65675,-1.54147c3.72193,0.44716 5.08049,4.41485 5.08049,4.41485c0,0 3.57503,-4.04059 4.74028,-3.35392c0.51589,0.30401 2.34417,1.10802 2.97465,2.21711c1.53721,2.70415 1.80584,6.62625 1.80584,6.62625c0,0 -0.38263,2.21366 -2.79127,2.88539c-1.68043,0.46864 -4.34287,0.34385 -7.03231,0.50096c-0.85331,0.04984 -1.69638,0.03395 -2.4905,0.25952c-1.84413,0.5238 -3.42297,1.56729 -5.3759,2.2564c-1.55439,0.54848 -3.47151,0.8096 -5.04159,0.85874c-3.6108,0.11301 -7.30255,-0.80321 -10.16225,-2.30084c-1.8351,-0.96105 1.51881,-3.82844 5.17407,-5.95649c3.26663,-1.9018 6.79121,-3.1354 6.79121,-3.1354z" fill="none" stroke="#000000" stroke-width="1" stroke-linecap="round"/><path d="M213.18761,203.43915c0,-0.2686 0.12664,-0.50764 0.32345,-0.66064c-0.14245,0.30595 -0.231,0.64203 -0.25346,0.99609c-0.04501,-0.10268 -0.06999,-0.21615 -0.06999,-0.33545z" fill="#db93e6" stroke="none" stroke-width="0.5" stroke-linecap="butt"/><path d="M221.529,200.84453c5.36301,0.04651 4.6557,6.30284 1.97676,4.47385c-0.56413,-0.38516 -1.14635,-1.13569 -1.75326,-1.58809c-0.80799,-0.60228 -2.20652,-1.18841 -3.05294,-1.67209c-0.29133,-0.13074 -0.16932,-1.01887 0.23482,-1.19223c0.40415,-0.17336 1.73335,-0.02891 2.59462,-0.02144z" fill="#f0e0ec" stroke="none" stroke-width="0.5" stroke-linecap="butt"/><path d="M221.58913,206.78426c-0.04287,0.42165 -0.399,0.75067 -0.83196,0.75067c-0.30694,0 -0.57525,-0.16535 -0.72072,-0.41184c-0.2312,-0.13211 -1.05102,-1.37107 -2.08121,-2.38367c-0.87171,-0.85682 -1.89764,-1.52796 -2.33491,-2.16462c-0.32071,-0.46696 -0.11359,-0.78023 0.33214,-0.94991c1.44435,-0.54982 6.80364,3.20573 5.63666,5.15938z" data-paper-data="{&quot;index&quot;:null}" fill="#f0e0ec" stroke="none" stroke-width="0.5" stroke-linecap="butt"/><path d="M218.84858,207.16312c0.33475,1.26692 -1.09143,2.00882 -1.79482,0.9035c-0.41897,-0.65837 -0.90974,-1.69156 -1.54123,-2.21345c-0.66411,-0.54886 -1.48386,-0.94215 -1.91308,-1.69329c-0.24648,-0.14548 -0.41184,-0.41378 -0.41184,-0.72072c0,-0.46186 0.37442,-0.83628 0.83628,-0.83628c0.25436,0 0.48222,0.11357 0.6356,0.29277c1.65607,0.45449 3.87257,3.06959 4.18909,4.2675z" fill="#f0e0ec" stroke="none" stroke-width="0.5" stroke-linecap="butt"/><path d="M223.50574,205.31838c-0.54218,-0.37016 -1.10106,-1.07782 -1.68251,-1.53396c1.10453,-0.27698 1.94761,-1.21297 2.08707,-2.36577c2.65203,1.51262 1.77818,5.38995 -0.40456,3.89972z" fill="#db93e6" stroke="none" stroke-width="0.5" stroke-linecap="butt"/><path d="M221.58913,206.78426c-0.04287,0.42165 -0.399,0.75067 -0.83196,0.75067c-0.30694,0 -0.57525,-0.16535 -0.72072,-0.41184c-0.16927,-0.09673 -0.6541,-0.7868 -1.30598,-1.54695c0.88983,-0.0642 1.66392,-0.54608 2.12724,-1.25056c0.74673,0.8655 1.14097,1.77304 0.73142,2.45866z" data-paper-data="{&quot;index&quot;:null}" fill="#db93e6" stroke="none" stroke-width="0.5" stroke-linecap="butt"/><path d="M218.84858,207.16312c0.33475,1.26692 -1.09143,2.00882 -1.79482,0.9035c-0.23987,-0.37693 -0.50328,-0.87673 -0.80316,-1.33309c0.74314,-0.05563 1.40506,-0.40263 1.87188,-0.92709c0.36774,0.51507 0.63159,0.99905 0.72609,1.35669z" fill="#db93e6" stroke="none" stroke-width="0.5" stroke-linecap="butt"/><path d="M221.529,200.84453c5.36301,0.04651 4.6557,6.30284 1.97676,4.47385c-0.56413,-0.38516 -1.14635,-1.13569 -1.75326,-1.58809c-0.80799,-0.60228 -2.20652,-1.18841 -3.05294,-1.67209c-0.29133,-0.13074 -0.16932,-1.01887 0.23482,-1.19223c0.40415,-0.17336 1.73335,-0.02891 2.59462,-0.02144z" fill="none" stroke="#000000" stroke-width="1" stroke-linecap="butt"/><path d="M221.58913,206.78426c-0.04287,0.42165 -0.399,0.75067 -0.83196,0.75067c-0.30694,0 -0.57525,-0.16535 -0.72072,-0.41184c-0.2312,-0.13211 -1.05102,-1.37107 -2.08121,-2.38367c-0.87171,-0.85682 -1.89764,-1.52796 -2.33491,-2.16462c-0.32071,-0.46696 -0.11359,-0.78023 0.33214,-0.94991c1.44435,-0.54982 6.80364,3.20573 5.63666,5.15938z" data-paper-data="{&quot;index&quot;:null}" fill="none" stroke="#000000" stroke-width="1" stroke-linecap="butt"/><path d="M217.05375,208.06662c-0.41897,-0.65837 -0.90974,-1.69156 -1.54123,-2.21345c-0.66411,-0.54886 -1.48386,-0.94215 -1.91308,-1.69329c-0.24648,-0.14548 -0.41184,-0.41378 -0.41184,-0.72072c0,-0.46186 0.37442,-0.83628 0.83628,-0.83628c0.25436,0 0.48222,0.11357 0.6356,0.29277c1.65607,0.45449 3.87257,3.06959 4.18909,4.2675c0.31652,1.1979 -1.09143,2.00881 -1.79482,0.90349z" fill="none" stroke="#000000" stroke-width="1" stroke-linecap="butt"/></g><g><path d="M239.36971,208.91399c0,0 0.3915,8.34024 14.60749,6.23944c13.4989,-1.99483 11.63893,-9.15571 11.63893,-9.15571l4.20286,1.887c0,0 -0.00863,1.18868 0.0127,2.61652c0.02049,1.37182 0.09502,2.95119 -1.0369,4.54341c-2.00021,2.81361 -6.76078,4.99215 -16.60204,5.40697c-20.06166,0.84564 -12.82304,-11.53763 -12.82304,-11.53763z" fill="#ffeffa" stroke="#000000" stroke-width="0" stroke-linecap="round"/><path d="M238.24138,214.9262c-0.01726,-0.07859 3.87856,5.67316 16.55063,3.82969c14.35662,-1.86616 15.02695,-10.87116 15.02695,-10.87116c0,0 -0.00863,1.18868 0.0127,2.61652c0.02049,1.37182 0.09502,2.95119 -1.0369,4.54341c-2.00021,2.81361 -6.76078,4.99215 -16.60204,5.40697c-10.11326,0.42629 -13.28882,-2.50921 -13.95136,-5.52542z" fill="#dd95e8" stroke="#000000" stroke-width="0" stroke-linecap="round"/><path d="M239.36971,208.91399c0,0 0.3915,8.34024 14.60749,6.23944c13.4989,-1.99483 11.63893,-9.15571 11.63893,-9.15571l4.20286,1.887c0,0 -0.00863,1.18868 0.0127,2.61652c0.02049,1.37182 0.09502,2.95119 -1.0369,4.54341c-2.00021,2.81361 -6.76078,4.99215 -16.60204,5.40697c-20.06166,0.84564 -12.82304,-11.53763 -12.82304,-11.53763z" fill="none" stroke="#000000" stroke-width="1" stroke-linecap="round"/><path d="M244.55778,199.14542c1.31642,-1.17593 6.83383,-2.37225 9.54146,-1.8472c1.63401,0.31686 1.35284,1.93808 1.35284,1.93808c0,0 6.50518,-3.29028 7.2311,-2.78214c0.28324,0.19828 1.53295,2.07667 0.92706,3.17351c-0.89762,1.62499 -3.86953,2.61068 -3.86953,2.61068c0,0 0.38686,0.12296 0.98019,0.36644c-4.37977,0.2708 -10.45727,2.81658 -13.09573,2.97807c-0.28949,0.01772 -0.09375,-0.57255 -0.14995,-0.85709c-0.2393,-1.21161 -0.36474,-2.58493 -1.15202,-3.60541c-0.53209,-0.6897 -1.20811,-1.28668 -1.96677,-1.76955c0.06482,-0.07445 0.13195,-0.14336 0.20135,-0.20536z" fill="#ff292e" stroke="#000000" stroke-width="0" stroke-linecap="butt"/><path d="M239.75568,206.14098l-4.26626,-0.16396c0,0 -0.75986,-1.06582 0.64989,-3.95604l0.44322,0.77565c0.89587,1.56777 5.91336,-0.09743 5.42961,2.84951c-0.11145,0.67887 -1.32062,0.92814 -2.47088,1.49438c0.1108,-0.61531 0.21443,-0.99954 0.21443,-0.99954z" fill="#ff292e" stroke="#000000" stroke-width="0" stroke-linecap="butt"/><path d="M258.17176,209.10014c0.36853,-0.08338 0.88232,-0.11124 1.46868,-0.11798c-0.6464,0.16771 -1.32782,0.23565 -2.02895,0.24198c0.20663,-0.04469 0.39459,-0.08651 0.56025,-0.12398z" fill="#ac0e49" stroke="#000000" stroke-width="0" stroke-linecap="butt"/><path d="M243.10081,202.06679c0,0 0.52294,-2.08702 1.45697,-2.92137c1.31642,-1.17593 6.83383,-2.37225 9.54146,-1.8472c1.63401,0.31686 1.35284,1.93808 1.35284,1.93808c0,0 6.50518,-3.29028 7.2311,-2.78214c0.28324,0.19828 1.53295,2.07667 0.92706,3.17351c-0.89762,1.62499 -3.86953,2.61068 -3.86953,2.61068c0,0 3.2768,1.04143 5.38321,3.06446c3.27168,3.14221 4.20444,8.1679 -10.60834,11.59558c-1.79091,0.41442 -10.06451,0.93634 -13.55884,-2.11337c-2.85954,-2.49569 -1.20105,-8.64402 -1.20105,-8.64402l-4.26626,-0.16396c0,0 -0.79623,-1.11685 0.75362,-4.16423c0.36247,-0.7127 6.85777,0.254 6.85777,0.254z" fill="#ff292e" stroke="#000000" stroke-width="0" stroke-linecap="round"/><path d="M239.75568,206.14098l-4.26626,-0.16396c0,0 -0.5427,-0.76123 0.14011,-2.74157c1.97616,0.73611 6.21238,1.20089 7.42841,1.75617c0.14476,0.0661 -1.20123,0.75924 -1.35092,0.8545c-0.89102,0.56702 -1.4988,1.12815 -2.20328,1.90308c-0.02477,0.02724 -0.04901,0.05479 -0.07273,0.08264c0.13987,-1.0057 0.32469,-1.69088 0.32469,-1.69088z" fill="#ac0e49" stroke="#000000" stroke-width="0" stroke-linecap="butt"/><path d="M239.01589,206.27232c-0.27303,0.24428 -2.54969,0.17339 -2.50058,-0.53893c-0.05339,-0.11013 -0.08333,-0.23375 -0.08333,-0.36435c0,-0.46186 0.37442,-0.83628 0.83628,-0.83628c0.24056,0 0.4574,0.10157 0.60997,0.26417c1.11623,-0.04955 2.12857,0.58878 1.13765,1.4754z" fill="#000000" stroke="none" stroke-width="0.5" stroke-linecap="butt"/><path d="M254.51556,216.89838c-1.79091,0.41442 -10.06451,0.93634 -13.55884,-2.11337c-0.3195,-0.27885 -0.5826,-0.60331 -0.79791,-0.95967c3.21261,0.17766 11.22397,-3.76602 14.15318,-4.46787c1.7611,-0.42198 5.91336,0.01395 8.68214,-0.70891c0.18548,-0.04842 1.22555,1.94151 1.60247,1.53843c0.40093,-0.42875 1.09917,-3.59532 1.0842,-4.30339c2.77006,3.15444 2.76525,7.79127 -11.16524,11.01479z" fill="#ac0e49" stroke="#000000" stroke-width="0" stroke-linecap="butt"/><path d="M263.61022,199.62765c-0.89762,1.62499 -3.86953,2.61068 -3.86953,2.61068c0,0 0.88914,0.28259 2.03882,0.8393c-2.6179,0.16708 -5.35164,0.92473 -5.54022,0.30285c-0.44904,-1.48077 3.96725,-4.01273 6.07544,-5.71395c0.29957,-0.18436 0.56161,-0.42379 0.77203,-0.70418c0.43424,0.68131 0.95958,1.87579 0.52345,2.66532z" fill="#ac0e49" stroke="#000000" stroke-width="0" stroke-linecap="butt"/><path d="M242.88638,202.23833l2.40164,3.00204" fill="none" stroke="#000000" stroke-width="1" stroke-linecap="round"/><path d="M245.20225,208.11375c0,0 -1.46726,-0.21889 -1.62111,-0.58326c-0.46565,-1.10286 0.59183,-1.47529 0.59183,-1.47529c0,0 3.3467,-2.24519 5.84223,-2.74497c4.07916,-0.81696 6.42326,-0.04264 6.42326,-0.04264c0,0 1.21563,0.0579 1.55332,0.68722c0.31306,0.58342 -0.18096,1.02823 -0.18096,1.02823c0,0 1.6958,0.03505 2.41724,0.88295c0.94578,1.11157 0.15594,1.39003 0.15594,1.39003c0,0 1.26494,-0.00347 1.66996,0.92131c0.31713,0.72408 -0.51203,1.18013 -0.51203,1.18013c0,0 -5.20712,0.3391 -7.70654,0.76286c-2.47516,0.41965 -7.2179,1.76743 -7.2179,1.76743c0,0 -0.99125,0.44662 -1.27567,-0.67379c-0.23639,-0.93121 0.46081,-1.42764 0.46081,-1.42764c0,0 -1.03151,0.46549 -1.3061,-0.43725c-0.18736,-0.61595 0.70569,-1.23531 0.70569,-1.23531z" fill="#feeffb" stroke="#000000" stroke-width="0" stroke-linecap="round"/><path d="M250.0152,203.31023c4.07916,-0.81696 6.42326,-0.04264 6.42326,-0.04264c0,0 0.90806,0.04325 1.37255,0.46129c-1.71687,1.49587 -2.92822,4.45112 -5.42574,3.93719c-1.53135,-0.31512 -2.76377,-2.09366 -3.98648,-3.85867c0.55045,-0.21665 1.10154,-0.39407 1.6164,-0.49718z" fill="#dd95e8" stroke="#000000" stroke-width="0" stroke-linecap="round"/><path d="M245.93131,209.82921c0,0 3.18295,-0.99515 6.53549,-1.65399c2.90506,-0.5709 7.57412,-0.70476 7.57412,-0.70476" fill="none" stroke="#000000" stroke-width="1" stroke-linecap="round"/><path d="M245.15935,208.02798c0,0 2.227,-1.48295 5.68833,-2.32773c2.06082,-0.50296 6.70582,-0.67431 6.70582,-0.67431" fill="none" stroke="#000000" stroke-width="1" stroke-linecap="round"/><path d="M245.20225,208.11375c0,0 -1.46726,-0.21889 -1.62111,-0.58326c-0.46565,-1.10286 0.59183,-1.47529 0.59183,-1.47529c0,0 3.3467,-2.24519 5.84223,-2.74497c4.07916,-0.81696 6.42326,-0.04264 6.42326,-0.04264c0,0 1.21563,0.0579 1.55332,0.68722c0.31306,0.58342 -0.18096,1.02823 -0.18096,1.02823c0,0 1.6958,0.03505 2.41724,0.88295c0.94578,1.11157 0.15594,1.39003 0.15594,1.39003c0,0 1.26494,-0.00347 1.66996,0.92131c0.31713,0.72408 -0.51203,1.18013 -0.51203,1.18013c0,0 -5.20712,0.3391 -7.70654,0.76286c-2.47516,0.41965 -7.2179,1.76743 -7.2179,1.76743c0,0 -0.99125,0.44662 -1.27567,-0.67379c-0.23639,-0.93121 0.46081,-1.42764 0.46081,-1.42764c0,0 -1.03151,0.46549 -1.3061,-0.43725c-0.18736,-0.61595 0.70569,-1.23531 0.70569,-1.23531z" fill="none" stroke="#000000" stroke-width="1" stroke-linecap="round"/><path d="M262.44968,198.78601c1.15018,0.38339 0.40356,1.84688 -0.40023,2.63312c-0.13,0.2931 -0.42355,0.49754 -0.76483,0.49754c-0.46186,0 -0.83628,-0.37442 -0.83628,-0.83628c0,-0.18665 0.06115,-0.35902 0.16451,-0.49817c0.39289,-0.79476 1.38393,-1.94719 1.83685,-1.79621z" fill="#000000" stroke="none" stroke-width="0.5" stroke-linecap="butt"/><path d="M244.55778,199.14542c1.31642,-1.17593 6.83383,-2.37225 9.54146,-1.8472c1.63401,0.31686 1.35284,1.93808 1.35284,1.93808c0,0 6.50518,-3.29028 7.2311,-2.78214c0.28324,0.19828 1.53295,2.07667 0.92706,3.17351c-0.89762,1.62499 -3.86953,2.61068 -3.86953,2.61068c0,0 3.2768,1.04143 5.38321,3.06446c3.27168,3.14221 4.20444,8.1679 -10.60834,11.59558c-1.79091,0.41442 -10.06451,0.93634 -13.55884,-2.11337c-2.85954,-2.49569 -1.20105,-8.64402 -1.20105,-8.64402l-4.26626,-0.16396c0,0 -0.79623,-1.11685 0.75362,-4.16423c0.36247,-0.7127 6.85777,0.254 6.85777,0.254c0,0 0.52293,-2.08703 1.45696,-2.92138z" fill="none" stroke="#000000" stroke-width="1" stroke-linecap="round"/></g><g><path d="M236.51091,180.97036c0,0 -1.0256,-4.0956 1.03203,-5.33746c5.68956,-3.43387 12.3485,-2.32847 12.3485,-2.32847c0,0 4.35038,-2.34374 6.74085,-1.58789c2.15327,0.68085 -0.5948,4.24215 -0.56921,7.29582c0.01305,1.55583 1.50782,3.2307 2.03827,4.70018c0.51068,1.41471 0.08678,2.64924 -1.34434,2.88658c-3.02232,0.50121 -7.14433,-3.2593 -7.14433,-3.2593l2.23009,9.19911c0,0 -6.68449,3.43094 -17.20515,2.16149c-7.48165,-0.90275 -8.99837,-6.76105 -8.99837,-6.76105c0,0 2.67148,-2.61667 4.48804,-3.78114c1.80727,-1.15851 6.38364,-3.18789 6.38364,-3.18789z" fill="#feecf7" stroke="#000000" stroke-width="0" stroke-linecap="round"/><path d="M236.51091,180.97036c0,0 -1.0256,-4.0956 1.03203,-5.33746c5.68956,-3.43387 12.3485,-2.32847 12.3485,-2.32847c0,0 4.35038,-2.34374 6.74085,-1.58789c1.68439,0.5326 0.3696,2.82775 -0.27061,5.26374c-0.70722,0.11136 -9.11847,2.47833 -9.11847,2.47833l2.36947,3.88121l2.23009,9.19911c0,0 -0.97231,0.49906 -2.75892,1.04608c-0.18269,-0.61384 -2.54552,-14.15458 -2.54552,-14.15458c0,0 -13.8315,3.3255 -13.60022,3.21161c1.78302,-0.87801 3.5728,-1.67169 3.5728,-1.67169z" fill="#dc94e7" stroke="#000000" stroke-width="0" stroke-linecap="butt"/><path d="M249.89145,173.30443c0,0 4.35038,-2.34374 6.74085,-1.58789c2.15327,0.68085 -0.5948,4.24215 -0.56921,7.29582c0.01305,1.55583 1.50782,3.2307 2.03827,4.70018c0.51068,1.41471 0.08678,2.64924 -1.34434,2.88658c-3.02232,0.50121 -7.14433,-3.2593 -7.14433,-3.2593l2.23009,9.19911c0,0 -6.68449,3.43094 -17.20515,2.16149c-7.48165,-0.90275 -8.99837,-6.76105 -8.99837,-6.76105c0,0 2.67148,-2.61667 4.48804,-3.78114c1.80727,-1.15851 6.38364,-3.18789 6.38364,-3.18789c0,0 -1.02561,-4.0956 1.03202,-5.33746c2.05763,-1.24186 12.34849,-2.32845 12.34849,-2.32845z" fill="none" stroke="#000000" stroke-width="1" stroke-linecap="round"/><g fill="none" stroke="#ff0000" stroke-width="1"><path d="M240.99671,189.17228c-2.61753,1.57784 -5.39303,1.83454 -6.86544,0.66896c-1.51155,-1.19657 -0.03158,-4.01856 2.5728,-5.75385c1.96727,-1.31078 4.59452,-2.07518 6.95426,-0.63327c1.65703,1.01252 0.05816,4.0787 -2.66162,5.71816z" stroke-linecap="butt"/><path d="M237.1825,183.92588l1.62968,5.66099" stroke-linecap="round"/></g><path d="M249.29788,173.87938c-0.15822,0.2769 -0.33031,0.54033 -0.51511,0.79043c-1.85699,2.5132 -4.99844,3.67936 -8.27648,3.61643c-1.07897,-0.02071 -3.58375,-0.18549 -3.34389,-1.83804c0.44548,-3.06916 11.25241,-4.11418 11.71015,-3.31314z" fill="#f89688" stroke="#000000" stroke-width="1" stroke-linecap="butt"/></g><g stroke="#000000" stroke-linecap="round"><path d="M249.74819,183.92588c0,0 1.77797,1.25752 2.70122,1.82735c1.91797,1.18373 3.73173,0.96026 3.73173,0.96026c0,0 -0.06714,1.51828 0.5155,3.17082c0.49653,1.40832 1.62163,2.66857 1.54419,3.2999c-0.16328,1.33106 -2.47589,2.06611 -4.53298,2.16198c-3.40422,0.15866 -4.60295,-1.12759 -4.60295,-1.12759c0,0 -0.12303,-3.93402 -0.0028,-5.75262c0.10692,-1.6172 0.6461,-4.54009 0.6461,-4.54009z" fill="#fddfbd" stroke-width="0"/><path d="M249.74819,183.92588c0,0 1.77797,1.25752 2.70122,1.82735c1.91797,1.18373 3.73173,0.96026 3.73173,0.96026c0,0 -0.04382,0.99079 0.24648,2.24277c-0.82894,-0.25009 -1.37266,0.05301 -3.1407,-0.41531c-2.50102,-0.66247 -3.47666,-2.02588 -3.91129,-2.37123c0.1784,-1.1913 0.37255,-2.24383 0.37255,-2.24383z" fill="#fa9789" stroke-width="0"/><path d="M252.4494,185.75322c1.91797,1.18373 3.73173,0.96026 3.73173,0.96026c0,0 -0.06714,1.51828 0.5155,3.17082c0.49653,1.40832 1.62163,2.66857 1.54419,3.2999c-0.16328,1.33106 -2.47589,2.06611 -4.53298,2.16198c-3.40422,0.15866 -4.60295,-1.12759 -4.60295,-1.12759c0,0 -0.12303,-3.93402 -0.0028,-5.75262c0.10692,-1.6172 0.6461,-4.54009 0.6461,-4.54009c0,0 1.77796,1.25752 2.70121,1.82735z" fill="none" stroke-width="1"/></g><g><path d="M247.68964,193.87551l3.4738,-2.61607l4.54595,2.70184l2.40164,-1.37236l2.61606,3.774c0,0 -5.35589,8.2865 -7.4958,8.63451c-1.97887,0.32182 -4.89836,-6.61886 -4.89836,-6.61886z" fill="#0066cd" stroke="#000000" stroke-width="0" stroke-linecap="round"/><path d="M253.65747,201.33418c1.97357,-1.65742 2.70693,-4.89361 5.38818,-5.8804c0.3998,-0.14713 1.26327,-0.17111 1.42679,0.36231c0.30378,0.99095 -5.77846,9.20631 -7.37912,9.14551c-1.39841,-0.05311 -3.39606,-3.06459 -4.21988,-5.17789c-0.48603,-1.24678 -0.20003,-2.06909 -0.12194,-2.08861c0.13625,-0.09627 1.56123,0.64404 1.64258,1.02069c1.36218,0.92807 3.09633,2.75869 3.2634,2.61838z" fill="#061484" stroke="none" stroke-width="0.5" stroke-linecap="butt"/><path d="M247.68964,193.87549l3.4738,-2.61607l4.54595,2.70184l2.40164,-1.37236l2.61606,3.774c0,0 -5.35589,8.28651 -7.4958,8.63451c-1.97886,0.32182 -4.89836,-6.61886 -4.89836,-6.61886" fill="none" stroke="#000000" stroke-width="1" stroke-linecap="round"/></g></g><g stroke="#000000"><g stroke-linecap="butt"><path d="M266.22634,180.15681l1.5812,-1.72827c0,0 8.42096,3.503 9.73348,5.37449c0.92141,1.31379 -1.0887,5.07269 -3.64425,4.31066c-3.40326,-1.01481 -7.67044,-7.95688 -7.67044,-7.95688z" fill="#0066cd" stroke-width="0"/><path d="M266.22635,180.15681l0.56119,-0.61338c0,0 1.72093,1.13426 3.33611,2.42141c1.24835,0.99486 2.24529,2.03002 3.51426,3.02314c1.50925,1.18116 3.03089,2.19188 2.97183,2.25367c-0.70076,0.73301 -1.66062,1.18585 -2.71297,0.87206c-3.40326,-1.0148 -7.67044,-7.95689 -7.67044,-7.95689z" fill="#061483" stroke-width="0"/><path d="M266.22635,180.15681l1.5812,-1.72827c0,0 8.42096,3.50301 9.73348,5.3745c0.92142,1.3138 -1.0887,5.07269 -3.64425,4.31066c-3.40326,-1.0148 -7.67044,-7.95689 -7.67044,-7.95689z" fill="none" stroke-width="1"/></g><g stroke-linecap="round"><path d="M229.32345,165.5845c0,0 3.19277,-25.92766 23.62046,-15.79733c20.94532,10.38705 8.36313,27.19412 8.36313,27.19412c0,0 7.65128,-1.84386 8.23726,-0.95707c0.49461,0.74851 -2.78626,4.69729 -4.3342,6.06861c-1.1438,1.01331 -3.19416,3.4031 -4.51922,2.97623c-0.83403,-0.2687 -2.86207,-4.36716 -2.86207,-4.36716c0,0 -8.52722,0.58524 -15.27219,-1.10884c-6.66054,-1.67288 -14.92892,-6.74448 -14.92892,-6.74448c0,0 -6.12788,-3.80523 -5.23224,-6.10902c0.76315,-1.96301 6.92799,-1.15507 6.92799,-1.15507z" fill="#fde0be" stroke-width="0"/><path d="M253.22287,180.79194c-0.03743,-0.00055 -0.26057,-2.44661 -0.26057,-2.44661l-3.9924,0.93508l-1.2625,-8.63064l-8.0453,0.93736l1.94946,-6.30307c0,0 -11.90316,-1.82502 -11.89648,-1.85548c1.3146,-6.00488 6.47556,-21.94956 23.22883,-13.64141c20.94532,10.38705 8.36313,27.19412 8.36313,27.19412c0,0 2.89756,6.06759 2.77261,6.18701c-1.09843,1.04985 -2.43248,2.20884 -3.38879,1.90076c-0.83403,-0.2687 -2.86207,-4.36716 -2.86207,-4.36716c0,0 -1.89546,0.1301 -4.60596,0.09007z" fill="#fc988a" stroke-width="0"/><path d="M261.02514,178.4876l3.3835,0.0524l-3.19203,3.98816z" fill="#f79587" stroke-width="0.5"/><path d="M252.94388,149.78718c20.94532,10.38705 8.36313,27.19412 8.36313,27.19412c0,0 7.65128,-1.84386 8.23726,-0.95707c0.49461,0.74851 -2.78626,4.69729 -4.3342,6.06861c-1.1438,1.01331 -3.19416,3.4031 -4.51922,2.97623c-0.83403,-0.2687 -2.86207,-4.36716 -2.86207,-4.36716c0,0 -8.52722,0.58524 -15.27219,-1.10884c-6.66054,-1.67288 -14.92892,-6.74448 -14.92892,-6.74448c0,0 -6.12788,-3.80523 -5.23224,-6.10902c0.76315,-1.96301 6.92799,-1.15507 6.92799,-1.15507c0,0 3.19278,-25.92764 23.62046,-15.79731z" fill="none" stroke-width="1"/></g><g stroke-linecap="round"><path d="M269.97129,173.11125c0,0 -3.16003,2.28475 -4.76306,3.06915c-1.38427,0.67736 -4.2955,1.36347 -4.2955,1.36347c0,0 -7.58215,-9.21229 -13.95778,-13.20298c-6.51226,-4.07623 -15.77111,-7.56825 -15.77111,-7.56825c0,0 4.37491,-17.70304 8.78159,-18.57627c3.20874,-0.63586 10.83597,0.93578 17.23978,4.61615c2.91868,1.67741 11.21735,6.56347 12.71552,10.66973c2.00796,5.5035 0.05058,19.629 0.05058,19.629z" fill="#ff292e" stroke-width="0"/><path d="M269.97129,173.11125c0,0 -3.16003,2.28476 -4.76306,3.06915c-1.38427,0.67736 -4.29549,1.36347 -4.29549,1.36347c0,0 -3.67184,-4.46126 -8.05369,-8.51952c-0.1147,-0.10622 8.20808,-11.71373 13.249,-15.45662c1.66926,-1.23943 3.44001,-1.10699 3.81271,-0.0855c2.00796,5.50351 0.05057,19.62901 0.05057,19.62901z" fill="#ac0e49" stroke-width="0.5"/><path d="M265.20822,176.18042c-1.38427,0.67736 -4.29549,1.36347 -4.29549,1.36347c0,0 -7.58215,-9.21229 -13.9578,-13.20298c-6.51226,-4.07623 -15.7711,-7.56824 -15.7711,-7.56824c0,0 4.37492,-17.70304 8.78159,-18.57627c3.20875,-0.63585 10.83597,0.93578 17.23978,4.61615c2.91868,1.67741 11.21735,6.56347 12.71553,10.66971c2.00796,5.50351 0.05057,19.62901 0.05057,19.62901c0,0 -3.16003,2.28475 -4.76306,3.06915z" fill="none" stroke-width="1"/></g><g stroke-linecap="round"><path d="M229.48846,162.25262c0,0 -3.89054,-0.76679 -5.76555,-0.90537c-1.90374,-0.1407 -5.5721,0.06747 -5.5721,0.06747c0,0 3.08306,-2.82698 4.78679,-3.95394c1.618,-1.07027 5.19165,-2.64655 5.19165,-2.64655l-8.92964,-3.41372c0,0 13.3291,-7.81109 17.23797,-7.70549c2.33129,0.06299 7.44146,7.98332 7.44146,7.98332c0,0 2.27632,-1.90462 3.59866,-2.67139c1.20416,-0.69823 4.01409,-1.74281 4.01409,-1.74281c0,0 -1.19038,6.20313 -1.49194,9.33318c-0.31416,3.26077 -0.35673,9.85531 -0.35673,9.85531l11.22278,10.59895l-4.02769,5.51313l-2.59798,-8.00653l-3.81104,2.06867l-0.78605,-10.17419l-6.20897,1.65045l1.10398,-5.08208c0,0 -11.08325,-2.24774 -13.82814,-2.17981c-0.74824,0.01851 -1.22152,1.41145 -1.22152,1.41145z" fill="#4fa6ec" stroke-width="0"/><path d="M236.19013,155.17783l-18.03932,6.23688c0,0 3.08306,-2.82698 4.78678,-3.95394c1.61799,-1.07027 5.19165,-2.64655 5.19165,-2.64655l-8.92963,-3.41373c0,0 13.3291,-7.81109 17.23797,-7.70549c2.33128,0.06298 7.44147,7.98332 7.44147,7.98332c0,0 2.27631,-1.90463 3.59865,-2.67139c1.20416,-0.69823 4.01409,-1.7428 4.01409,-1.7428l-7.23988,9.70813c0,0 -6.34107,-7.78686 -8.47224,-8.41843c-3.34479,-0.99123 -10.66725,3.32797 -10.66725,3.32797z" fill="#66ffff" stroke-width="0"/><path d="M252.7887,171.56296l-2.4711,3.61975l-0.4763,-6.16472z" fill="#66ffff" stroke-width="0"/><path d="M218.15082,161.4147c0,0 3.08306,-2.82698 4.78678,-3.95394c1.61799,-1.07027 5.19165,-2.64655 5.19165,-2.64655l-8.92963,-3.41373c0,0 13.3291,-7.81109 17.23797,-7.70549c2.33128,0.06298 7.44147,7.98332 7.44147,7.98332c0,0 2.27631,-1.90463 3.59865,-2.67139c1.20416,-0.69823 4.01409,-1.7428 4.01409,-1.7428c0,0 -1.19038,6.20312 -1.49195,9.33317c-0.31417,3.26075 -0.35673,9.85531 -0.35673,9.85531l11.22278,10.59895l-4.02769,5.51313l-2.59798,-8.00652l-3.81105,2.06866l-0.78606,-10.17419l-6.20898,1.65045l1.10398,-5.08208c0,0 -11.08325,-2.24774 -13.82814,-2.17981c-0.74824,0.01851 -1.22152,1.41145 -1.22152,1.41145c0,0 -3.89052,-0.76679 -5.76554,-0.90537c-1.87503,-0.13858 -5.57209,0.06744 -5.57209,0.06744z" fill="none" stroke-width="1"/></g></g><g stroke="#000000"><path d="M248.75235,189.17739c0,0 -3.88594,1.29989 -4.65766,-2.45666c-0.34535,-1.68109 5.02776,-4.37335 5.38682,-4.79149c0.87615,-1.0203 4.14384,1.57338 4.14384,1.57338c0,0 3.10245,-0.46698 3.99645,0.16264c2.89345,2.03778 1.5163,5.6492 1.5163,5.6492c0,0 3.73432,2.19012 3.9544,3.44297c0.45685,2.60056 -0.50311,8.71212 -1.17503,9.81456c-0.42464,0.69669 -4.46751,2.10039 -6.87306,1.22236c-1.99821,-0.72934 -2.46498,-3.71917 -2.46498,-3.71917c0,0 -2.49526,0.89224 -3.70129,0.38506c-1.1404,-0.4796 -2.9477,-3.37346 -2.9477,-3.37346c0,0 -1.1934,0.60219 -2.28197,0.54733c-1.633,-0.08229 -3.52249,-1.18835 -1.12,-4.59664c1.10013,-1.56072 6.21889,-0.76192 6.21889,-0.76192z" fill="#fde0be" stroke-width="0" stroke-linecap="round"/><path d="M248.75235,189.17739c0,0 -3.88594,1.29989 -4.65766,-2.45666c-0.16837,-0.81955 1.02238,-1.87944 2.32869,-2.79898c0.04331,1.71474 1.41938,2.90937 2.73161,3.00501c0.84432,0.06154 1.52153,-0.589 2.26771,-0.99462c0.0057,0.00344 0.01144,0.00686 0.01721,0.01024c0.18253,0.10687 0.37935,0.16752 0.57693,0.1855c0.26689,0.14205 1.25051,0.13343 1.31952,0.06883c1.01381,-0.0109 1.01486,1.46562 2.02025,1.59649c1.05086,0.13678 3.38657,-1.19942 3.68472,-2.46875c0.81386,1.72682 0.22693,3.61426 0.11442,3.94066c-2.16331,0.54161 -5.67738,4.37267 -5.57792,6.07607c0.05983,1.02466 2.52345,0.86482 2.94886,0.62387c1.68638,-0.95517 3.42324,-2.19831 4.06719,-3.86738c0.24881,-0.11538 0.46616,-0.30521 0.61523,-0.55981c0.1282,-0.21896 0.1899,-0.45851 0.1912,-0.69522c0.83166,0.64359 1.59622,1.36834 1.69223,1.91481c0.45685,2.60056 -0.50311,8.71212 -1.17503,9.81456c-0.42464,0.69669 -4.46751,2.10039 -6.87306,1.22236c-0.61674,-0.2251 -1.08759,-0.66555 -1.44386,-1.16697c0.54369,-0.13058 1.08059,-0.33567 1.51729,-0.59843c1.35476,-0.81517 2.50961,-1.02429 1.19682,-1.63213c-0.11706,-0.20834 -3.79797,-2.543 -3.79797,-2.543c0,0 -0.22909,0.68838 -0.61802,1.35266c-0.20511,0.35032 -0.23997,0.75336 -0.12967,1.11312c-0.83644,0.21992 -2.12412,0.46305 -2.89083,0.14062c-1.1404,-0.4796 -2.9477,-3.37346 -2.9477,-3.37346c0,0 -1.1934,0.60219 -2.28197,0.54733c-0.29039,-0.01464 -0.58892,-0.06163 -0.86996,-0.14824c0.87929,-1.37958 1.68617,-3.00798 2.51505,-3.22195c1.69165,-0.43671 3.20363,3.93855 4.84179,2.43174c1.58439,-1.45733 1.66689,-4.72102 -0.01706,-5.21014c-0.0315,-0.02211 -0.06416,-0.0431 -0.09794,-0.06289c-0.40279,-0.23583 -0.87525,-0.24659 -1.2715,-0.07044z" fill="#f89688" stroke-width="0" stroke-linecap="butt"/><path d="M242.52847,193.03743c0.12588,-0.17858 0.30438,-0.32628 0.52182,-0.4478c-0.27737,0.25834 -0.54492,0.55236 -0.80702,0.87282c0.08746,-0.13752 0.1824,-0.27916 0.28522,-0.42502z" fill="#f89688" stroke-width="0" stroke-linecap="butt"/><path d="M247.98298,192.21764c-0.0261,-0.01528 -0.05211,-0.03032 -0.07803,-0.0451c0.03053,0.00307 0.06039,0.00614 0.0896,0.00918c-0.00403,0.01193 -0.00787,0.02392 -0.01156,0.03592z" fill="#f89688" stroke-width="0" stroke-linecap="butt"/><path d="M248.75235,189.17739c0,0 -3.88594,1.29989 -4.65766,-2.45666c-0.34535,-1.68109 5.02776,-4.37335 5.38682,-4.79149c0.87615,-1.0203 4.14384,1.57338 4.14384,1.57338c0,0 3.10245,-0.46698 3.99645,0.16264c2.89345,2.03778 1.5163,5.6492 1.5163,5.6492c0,0 3.73432,2.19012 3.9544,3.44297c0.45685,2.60056 -0.50311,8.71212 -1.17503,9.81456c-0.42464,0.69669 -4.46751,2.10039 -6.87306,1.22236c-1.99821,-0.72934 -2.46498,-3.71917 -2.46498,-3.71917c0,0 -2.49526,0.89224 -3.70129,0.38506c-1.1404,-0.4796 -2.9477,-3.37346 -2.9477,-3.37346c0,0 -1.1934,0.60219 -2.28197,0.54733c-1.633,-0.08229 -3.52249,-1.18835 -1.12,-4.59664c1.10013,-1.56072 6.21889,-0.76192 6.21889,-0.76192z" fill="none" stroke-width="1" stroke-linecap="round"/><path d="M251.53137,187.96185l-2.68282,1.27188" fill="none" stroke-width="1" stroke-linecap="round"/><path d="M255.78872,190.84211c0,0 -1.66227,-0.04158 -2.45325,-0.69192c-1.32908,-1.09274 -2.07273,-3.11691 -2.02216,-3.80291c0.08067,-1.09397 2.87296,-2.25784 2.87296,-2.25784" fill="none" stroke-width="1" stroke-linecap="round"/><path d="M260.38158,194.69407c0,0 -2.42689,3.22191 -3.82689,3.68925c-1.36129,0.4544 -3.8995,-2.11308 -3.85435,-2.69923c0.13015,-1.68915 4.58359,-6.29232 4.58359,-6.29232l1.50918,-0.15007" fill="none" stroke-width="1" stroke-linecap="round"/><path d="M260.7969,195.97092l-1.54208,0.64765" fill="none" stroke-width="0.5" stroke-linecap="round"/></g><g stroke-linecap="butt"><path d="M232.05994,161.7984c0.30503,-2.94017 2.93577,-5.07635 5.87595,-4.77133c2.94016,0.30503 5.07635,2.93577 4.77133,5.87595c-0.30503,2.94017 -2.93578,5.07635 -5.87595,4.77133c-2.94017,-0.30503 -5.07635,-2.93577 -4.77133,-5.87595z" fill="#ffffff" stroke="none" stroke-width="0"/><path d="M243.94797,170.39316c0.30291,-2.91974 2.9154,-5.04111 5.83514,-4.7382c2.91975,0.30291 5.0411,2.9154 4.73819,5.83514c-0.30291,2.91974 -2.9154,5.0411 -5.83513,4.73819c-2.91975,-0.30291 -5.04111,-2.9154 -4.7382,-5.83513z" fill="#ffffff" stroke="none" stroke-width="0"/><path d="M233.39069,165.7677c-0.93179,-1.63557 -0.4867,-3.98805 0.70733,-5.93108c-0.72529,1.0847 -1.21229,2.26814 -1.3105,3.23301c-0.11011,1.0613 0.13328,1.97474 0.60319,2.69807zM239.60905,165.76087c-0.16649,0.07557 -0.34076,0.1429 -0.5229,0.20129c-0.61638,0.15801 -1.346,0.47375 -2.07807,0.64686c0.00279,0.00029 0.00558,0.00058 0.00838,0.00087c1.02384,0.1082 1.89377,-0.2331 2.5926,-0.84901zM241.32521,161.25999c-0.8353,-2.5816 -1.83524,-3.04957 -3.97333,-3.2019c-0.90398,0.52218 -1.73145,1.37952 -2.34176,2.35535c0.53567,-0.67545 1.19866,-1.15833 1.89781,-1.27162c0,0 0.55194,-0.07868 0.63063,0.47326c0.07868,0.55194 -0.47326,0.63063 -0.47326,0.63063c-1.63676,0.18555 -2.99051,3.91743 -1.65789,5.12852c0.83503,0.75887 2.54963,-0.26597 3.37224,-0.48418c1.65033,-0.49151 2.47969,-2.07978 2.54556,-3.63006zM237.78597,168.58979c-2.1103,0.49357 -4.38778,-0.15905 -6.10782,-2.29689c-1.93041,-3.93382 3.04369,-11.35675 7.29072,-10.91388c4.86417,-0.10205 5.15783,3.92283 4.04941,7.51335c-0.02872,0.41218 -0.09259,0.8358 -0.19379,1.26781c-0.35064,0.77788 -0.79236,1.47116 -1.30092,2.06853c-0.03681,0.06003 -0.07376,0.11913 -0.11085,0.17725c-0.99677,1.25869 -2.29928,1.96119 -3.62672,2.18383z" fill="#000000" stroke="none" stroke-width="0.5"/><path d="M252.30676,175.62805c-1.77038,2.02373 -4.31875,2.93734 -7.02981,0.56301c-4.58681,-3.58488 -1.63511,-10.08827 3.225,-11.62592c5.00918,-1.77971 9.23196,6.19481 5.77874,9.63212c-0.24058,0.19535 -1.03175,0.81415 -1.97395,1.43078zM253.28542,170.0191c-0.15164,-1.75917 -2.06015,-3.56986 -3.98578,-3.40329c-0.13424,0.01786 -0.26978,0.0397 -0.40635,0.06526c-0.435,0.10311 -0.86458,0.31512 -1.26852,0.65962c-0.12175,0.173 -0.24887,0.34675 -0.37802,0.52185c0.95721,-0.1832 1.72664,-0.7336 2.7385,-0.57873c2.09807,0.32109 3.08845,1.41409 3.30014,2.73529zM246.63604,168.69954c-0.73686,1.04513 -1.37186,2.16978 -1.27704,3.49902c0.13329,1.86864 2.68183,2.0812 4.45495,1.72998c0.32623,-0.39162 0.68659,-0.79944 1.21653,-1.14857c0.20621,-0.06601 0.39654,-0.13945 0.57165,-0.21948c0.90681,-1.88921 0.89416,-4.70307 -2.22883,-4.23522c-0.74275,0.11127 -1.36268,0.55303 -2.15509,0.6715c0,0 -0.42479,0.06055 -0.58218,-0.29724zM248.51579,175.15909c-1.15003,0.01319 -2.30294,-0.22683 -3.12281,-0.82705c0.57935,0.76071 1.39381,1.25472 2.2948,1.10218c0.32501,-0.05503 0.59457,-0.1503 0.82801,-0.27513z" fill="#000000" stroke="none" stroke-width="0.5"/><path d="M228.42912,170.17884c-0.00362,-0.01723 -0.00678,-0.03512 -0.00943,-0.05369c-0.08292,-0.5816 0.49869,-0.66454 0.49869,-0.66454c4.19112,-0.58408 7.89645,2.27013 11.14816,4.56661c2.20945,0.78727 3.75521,2.66468 5.8002,3.49597c0.47017,0.19113 2.36012,0.77602 2.24556,1.49915c-0.25217,1.59182 -2.66459,0.62791 -4.34464,-0.25809l-0.61105,-0.14682c-0.56894,-0.31069 -1.11127,-0.66164 -1.63706,-1.03599c-1.77773,-0.8444 -3.24072,-2.34881 -5.04562,-3.13052c-0.91943,-0.39821 -1.89493,-0.69526 -2.88792,-0.96572c-0.5111,-0.05918 -1.11289,-0.22571 -1.71049,-0.45102c-0.97868,-0.25863 -1.95304,-0.53255 -2.88703,-0.89155c-0.94002,-1.0035 -0.97045,-1.61031 -0.55938,-1.9638z" fill="#ff6666" stroke="#000000" stroke-width="1"/></g></g></g></svg>