<svg version="1.1" xmlns="http://www.w3.org/2000/svg" xmlns:xlink="http://www.w3.org/1999/xlink" width="258.66667" height="258.66667" viewBox="0,0,258.66667,258.66667"><g transform="translate(-107.43869,-52.08778)"><g data-paper-data="{&quot;isPaintingLayer&quot;:true}" fill-rule="nonzero" stroke-linejoin="miter" stroke-miterlimit="10" stroke-dasharray="" stroke-dashoffset="0" style="mix-blend-mode: normal"><g data-paper-data="{&quot;index&quot;:null}" stroke="#000000" stroke-width="3" stroke-linecap="butt"><path d="M252.69465,188.54629c0,0 -1.49335,11.19408 -9.74317,10.94042c-3.82615,-0.11764 -20.66586,-4.77566 -23.61775,-10.62015c-6.42943,-12.72971 -3.76122,-21.48668 -3.76122,-21.48668c0,0 3.91368,-3.19019 6.44728,-2.9778c7.27166,0.60955 8.43659,5.03943 8.43659,5.03943c0,0 0.44468,2.07463 1.13196,3.31864c0.75805,1.37212 3.22487,4.56746 3.22487,4.56746c0,0 15.56053,0.32395 16.06366,1.53825c0.22419,0.54106 1.81777,9.68045 1.81777,9.68045z" fill="#db93e6"/><path d="M250.94178,183.66635c0,0 16.15146,-0.38015 20.89338,2.86762c7.4688,5.11542 4.65929,14.85398 3.35942,15.86573c-4.07002,3.1679 -19.0362,4.59382 -19.0362,4.59382c-2.9667,-0.00903 -10.45489,-0.29304 -12.67353,-1.01374c-3.49548,-1.13547 -3.21635,-5.72116 -3.05657,-10.36329c0.26375,-7.66241 2.85108,-12.21387 10.5135,-11.95012z" fill="#f89587"/></g><g data-paper-data="{&quot;index&quot;:null}" stroke-linecap="butt"><path d="M274.21152,223.06111c0,0 -17.09145,7.39265 -29.0602,9.01998c-13.93725,1.89497 -49.56049,1.66967 -49.56049,1.66967l-5.86207,-37.75862c0,0 24.24698,-6.70415 49.38257,-1.74556c12.40368,2.44692 37.43856,16.96127 37.6864,17.2628c1.34436,1.6356 -2.58621,11.55172 -2.58621,11.55172z" fill="#0066cc" stroke="#000000" stroke-width="3"/><path d="M210.15422,215.48894c0,0 0.00767,-1.28726 0.37985,-2.63808c1.59794,-5.79967 7.27377,-20.69525 20.98379,-20.69525c16.90326,0 28.93939,13.63636 28.93939,13.63636c0,0 -5.46921,2.62383 -7.75763,4.5086c-2.65258,2.1847 -7.22727,7.83315 -7.22727,7.83315l-4.40904,-1.43265c0,0 3.2985,-5.52458 2.44623,-6.08118c-2.6465,-1.72837 -12.478,-0.77323 -20.83711,1.13168c-6.91432,1.57567 -12.51821,3.73738 -12.51821,3.73738z" fill="#0f1b82" stroke="none" stroke-width="0"/><path d="M242.6047,214.21696c-1.74556,4.24898 -5.48539,8.11225 -8.16301,11.79213c-0.9113,1.45616 -3.13063,1.88308 -3.17859,-0.46839c-0.04599,-2.25489 2.75574,-6.17391 4.27838,-7.69195c2.03497,-2.54023 5.22063,-6.01437 8.422,-7.12201l-0.24981,1.13736c0,0 -0.77527,1.5176 -1.10897,2.35286z" fill="#000000" stroke="none" stroke-width="0.5"/></g><g data-paper-data="{&quot;index&quot;:null}" stroke-linecap="butt"><g><path d="M245.69923,257.51697c0,0 -20.06624,-1.95421 -20.98898,-7.16316c-0.36891,-2.08255 -2.428,-9.69784 1.06641,-12.05907c6.64792,-4.4921 22.7116,-3.40935 33.73836,-3.40935c31.32036,0 43.28947,10.28366 49.86842,19.53948c2.64174,3.71663 -0.13941,9.96373 -4.29108,14.32489c-7.98945,8.39261 -43.25648,5.7409 -59.39313,-11.23278z" fill="#ffffff" stroke="#000000" stroke-width="3"/><path d="M245.87666,256.60325c0,0 -14.96665,-1.10372 -18.49924,-4.73208c-5.38498,-5.53097 0.00608,-13.30155 12.38082,-13.30155c18.64474,0 40.11925,15.02032 45.53887,27.56933c0.53715,1.24377 1.05619,2.3521 1.56639,3.28593c-0.76305,1.0802 -1.70167,2.13537 -2.97758,2.29439c-10.84657,1.35185 -24.25926,-5.91281 -24.25926,-5.91281c0,0 -6.92077,-3.79891 -9.45868,-5.4976c-1.70945,-1.14418 -4.29132,-3.70562 -4.29132,-3.70562z" fill="#db93e6" stroke="none" stroke-width="0"/></g><g><g><path d="M228.14116,243.13256c0,0 -0.72037,-12.7683 7.83904,-23.87841c0.93327,-1.21138 5.75279,-3.99391 8.87759,-2.07509c3.8609,2.37082 5.94611,11.34827 5.94611,11.34827c0,0 10.0694,-13.30294 13.71992,-13.30294c4.58165,0 11.27748,3.28911 15.55062,8.285c0.7895,0.92304 -1.46042,2.88992 -0.61732,3.83697c3.9018,4.38288 9.21798,8.43594 12.72777,11.85975c11.65038,5.6216 15.08987,18.15654 9.48178,21.67644c-9.76823,6.131 -28.73128,1.83279 -40.78921,-3.94879c-6.70847,-3.21661 -9.67117,-7.98078 -11.05262,-8.63285c-2.45952,-1.16094 -6.63166,0.51902 -10.58541,-0.3466c-5.722,-1.25276 -11.09827,-4.82177 -11.09827,-4.82177z" fill="#ff2d32" stroke="#000000" stroke-width="3"/><path d="M250.5576,231.16603c0,0 1.00868,-1.63321 1.5889,-2.50431c0.87715,-1.3169 3.66195,-4.12827 3.66195,-4.12827c0.06262,2.91294 2.45154,4.15639 2.45154,4.15639c0,0 17.52033,-2.65552 22.27479,6.69443c1.93631,3.80788 -1.28364,9.70151 -1.28364,9.70151c0,0 7.10799,3.4517 8.71782,7.88738c1.77834,4.89999 1.2831,9.5262 1.2831,9.5262c0,0 -4.83028,-0.29714 -9.15124,-1.01224c-3.76189,-0.62257 -6.80158,-1.04001 -10.20632,-1.98205c-3.52613,-0.97563 -7.77515,-2.88834 -11.48377,-5.28472c-2.87776,-1.85951 -5.26435,-4.84359 -7.79219,-7.07373c-2.10387,-1.21812 -6.188,-0.04243 -10.00786,-0.25256c-4.95498,-0.27258 -7.8723,-1.6415 -11.76949,-4.71364c-3.7573,-2.96187 1.27848,-12.08936 3.9773,-14.80358c1.28861,-1.29596 1.37307,-2.41805 2.12845,-3.94349c0.82667,-1.66941 2.32234,-3.71485 3.79952,-4.38964c1.64683,-0.75229 4.51241,-1.10117 4.51241,-1.10117l-2.29593,5.04324c0,0 4.85163,5.41693 6.66082,6.97262c0.93401,0.80314 2.93384,1.20762 2.93384,1.20762z" fill="#ab164a" stroke="none" stroke-width="0"/><path d="M235.98254,228.48264c-0.2671,-0.25484 -0.50983,-0.68444 -0.25222,-1.32848c0.38005,-0.95012 1.22679,-0.8113 1.5214,-0.7297c1.11558,-0.65562 2.03571,0.56699 2.76994,1.63247c1.28723,1.86798 1.97137,4.59316 0.00686,5.18436c-2.43843,0.73383 -4.14199,-2.48083 -4.04597,-4.75865z" fill="#000000" stroke="none" stroke-width="0.5"/></g><g><g><path d="M273.74535,248.35758c-2.72728,-1.15936 0.32901,-7.31945 5.37878,-10.68182c5.00616,-3.33334 12.04546,-3.50785 12.5,0.07576c0.58439,4.6073 -1.73627,1.89394 -9.4697,4.31818c-5.789,1.81471 -4.13503,8.10478 -8.40909,6.28788z" fill="#feebf7" stroke="#000000" stroke-width="2.5"/><path d="M274.84956,247.44138c0,0 -1.58806,0.61298 -1.10827,-0.46085c0.19437,-0.43502 1.09873,-3.77206 1.62675,-4.48071c0.65997,-0.88574 1.58119,-1.5618 1.58119,-1.5618c0,0 1.31914,0.4434 1.70781,0.85428c0.37861,0.40025 0.0881,1.15441 0.0881,1.15441c0,0 -2.11519,4.49468 -3.89558,4.49468z" fill="#db93e6" stroke="none" stroke-width="0"/></g><g><path d="M264.88171,242.14545c-3.58912,-1.41825 -1.35407,-8.65051 5.98484,-10.68182c10.94817,-3.0303 15.91725,-0.58908 15.46037,2.22611c-0.30303,1.86718 -4.14507,-1.49184 -12.74475,2.9021c-6.78098,3.46469 -5.44045,6.84183 -8.70046,5.55362z" fill="#feebf7" stroke="#000000" stroke-width="2.5"/><path d="M266.07438,241.83947c0,0 -1.74534,-0.67443 -1.71631,-2.33621c0.02506,-1.43469 1.09152,-4.51947 2.13064,-4.61787c0.72275,-0.06844 2.21671,-0.05432 3.01293,0.55107c0.97654,0.7425 0.64896,1.82103 0.64896,1.82103c0,0 -3.28748,3.47434 -4.07623,4.582z" fill="#db93e6" stroke="none" stroke-width="0"/></g><g><path d="M266.67375,224.94897c4.24954,0 8.49835,-0.35755 9.74867,1.81149c2.12813,3.69185 -6.57103,2.28428 -10.65776,3.49153c-5.95865,1.76023 -9.17614,7.91863 -9.17614,4.69697c0,-3.22166 3.87203,-9.99999 10.08523,-9.99999z" fill="#feebf7" stroke="#000000" stroke-width="2.5"/><path d="M257.71772,233.98114c0,0 1.02284,-2.70639 1.75535,-3.66969c0.57221,-0.75249 1.7788,-2.01046 1.7788,-2.01046l2.15453,1.6194l-5.68869,4.06075z" fill="#db93e6" stroke="none" stroke-width="0"/></g></g></g></g><g data-paper-data="{&quot;index&quot;:null}" stroke-linecap="butt"><path d="M209.12484,213.58407c-10.17994,-4.13245 -23.2602,-38.69016 -23.2602,-38.69016l39.80769,-13.65385c0,0 4.71141,5.36777 6.99759,9.14985c2.80089,4.63358 8.57934,16.61938 8.57934,16.61938c0,0 17.22523,8.48092 20.76942,11.56681c3.86404,3.36438 1.53827,7.85627 1.53827,7.85627c0,0 -33.40726,-17.81498 -54.43211,7.1517z" fill="#feebf7" stroke="#000000" stroke-width="3"/><path d="M220.33109,167.5422c0,0 -8.72829,1.4132 -17.96587,4.18218c-7.6299,2.28707 -16.7165,8.40793 -15.42727,8.028c0.12521,-0.0369 -0.48584,-2.14355 -0.43275,-4.62849c0.02079,-0.97272 0.75427,-0.66878 2.40941,-1.30189c10.43575,-3.99178 33.80348,-9.8798 34.51647,-9.8798c6.24082,0 10.3,11.2 10.3,11.2c0,0 -1.85918,-2.2 -9.1,-4.8c-5.87364,-2.10908 -4.3,-2.8 -4.3,-2.8z" fill="#db93e6" stroke="none" stroke-width="0"/><path d="M236.9414,191.61771c-2.08218,-2.60216 -5.0025,-4.74555 -8.32616,-6.20753c-0.29715,-0.13071 -4.12412,6.46357 -4.48539,6.33563c-0.69115,-0.24476 -4.10297,0.38431 -3.82716,-1.64436c0.08197,-0.6029 4.79121,-5.87052 4.61164,-5.92218c-3.33105,-0.9582 -7.34261,-1.02547 -7.34261,-1.02547c0,0 -4.05363,0.03642 -4.50498,0.80537c-0.24099,0.41057 0.61439,0.72919 0.88621,1.12004c0.93238,1.34068 1.75202,2.38859 3.18633,3.23622c4.57435,2.07172 9.70877,4.58389 14.58175,5.68312c1.64866,0.3719 5.33727,0.23765 5.36474,-0.11521c0.06576,-0.84466 0.13789,-1.47733 -0.14437,-2.26565zM215.79925,180.66958c0.16455,-0.12583 6.55824,-0.85118 11.61008,0.78509c4.85863,1.57369 9.88163,5.42087 12.42324,8.75838c1.78932,4.87724 0.28062,7.11124 -4.85661,6.41128c-5.97854,-0.8146 -13.42196,-3.28323 -18.8933,-5.77861c-1.89903,-1.1517 -7.53796,-5.34911 -6.54845,-8.06052c0.76868,-2.10631 6.19942,-2.09575 6.26505,-2.11562z" fill="#ff0000" stroke="none" stroke-width="0.5"/></g><path d="M202.07818,191.19273c0,-2.70619 0.89863,-2.8661 3.05254,-2.8661c2.15392,0 3.39153,0.07516 3.39153,2.78136c0,2.7062 -1.35763,6.59492 -1.35763,6.59492c0,0 -5.08644,-3.80397 -5.08644,-6.51017z" data-paper-data="{&quot;index&quot;:null}" fill="#db93e6" stroke="none" stroke-width="0" stroke-linecap="butt"/><g data-paper-data="{&quot;index&quot;:null}"><g><g stroke-linecap="butt"><path d="M151.69377,254.00808c0,-1.06453 1.60628,-3.52693 3.05647,-4.43509c1.19331,-0.7473 2.28092,-0.0495 2.28092,-0.0495c0,0 -1.7564,4.4776 1.4419,7.44384c7.36325,6.82899 20.25266,17.17588 35.31531,17.17588c10.46878,0 16.50913,0.19809 21.73243,-7.22681c4.74556,-6.7458 9.029,-21.31723 11.30202,-18.83742c0.51046,0.55689 1.96234,2.5473 1.73566,3.91645c-0.24688,1.49116 -2.22419,2.39433 -2.89937,3.72196c-0.56969,1.1202 0.92319,19.72514 -6.05951,23.73228c-11.30898,6.48984 -16.30712,8.20705 -33.78419,4.96381c-24.03204,-4.45966 -34.12162,-13.6876 -34.12162,-30.40541z" fill="#f0f0f0" stroke="#000000" stroke-width="3"/><path d="M191.13509,281.0759c31.61346,4.16301 33.04688,-10.3125 33.04688,-10.3125c0,0 -2.41662,13.75 -23.51562,13.75c-7.90081,0 -24.90301,-2.31091 -32.722,-5.98396c-13.06154,-6.13578 -15.01238,-15.73479 -15.01238,-15.73479c0,0 17.26442,15.52394 38.20312,18.28125z" fill="#db93e6" stroke="none" stroke-width="0"/></g><g><g><path d="M170.07616,242.26612c2.30401,-1.20402 1.88786,-3.79214 1.88786,-3.79214c0,0 -7.65235,-11.82894 -6.2367,-12.77758c0.76921,-0.51545 4.32993,-5.70013 7.29795,-4.75971c5.04519,1.59857 10.1946,9.99461 10.1946,9.99461c0,0 -2.83713,-8.97019 4.83136,-9.90874c9.73904,-1.19196 22.29388,0.29461 28.67744,2.56712c1.94,0.69062 2.1551,3.27755 0.81709,6.51286c-1.69594,4.10079 -4.95606,10.31497 -4.95606,10.31497c0,0 4.99727,-8.82272 5.32655,-9.13684c2.2738,-2.16916 8.73962,-8.56858 11.97267,-6.22672c2.56136,1.85532 3.6489,10.23957 1.38365,14.15348c-0.55959,0.96686 -6.4531,6.22476 -8.3251,10.23793c-1.86701,4.00246 0.23679,11.50163 -1.89076,15.97743c-3.64904,7.67661 -12.27738,11.68703 -20.76509,11.68703c-22.67553,0 -49.59301,-15.29033 -45.86538,-23.94231c5.27104,-12.2343 11.76118,-11.82828 15.64992,-10.90139z" fill="#ef2a2e" stroke="#000000" stroke-width="3" stroke-linecap="butt"/><path d="M200.60067,236.1671c-1.92194,0 -16.30737,4.02584 -23.2922,3.87962c-1.82705,-0.03825 -4.28381,-2.7477 -4.53211,-3.06146c-2.73835,-3.4603 -6.0828,-10.00351 -4.90028,-10.73523c6.75912,-4.18237 34.91972,-0.08292 34.91972,-0.08292c0,0 1.58537,2.93202 1.58537,6.09756c0,3.16553 -1.35582,3.90244 -3.78049,3.90244z" fill="#ab164a" stroke="none" stroke-width="0" stroke-linecap="butt"/><path d="M167.80015,260.68295c0.4878,-0.73545 1.43417,-4.20592 22.02439,-0.70326c15.97508,2.71758 22.83702,9.43104 22.83702,9.43104l6.99224,-3.84974c0,0 -1.16562,11.09044 -23.25,10.35874c-5.45845,-0.18086 -18.43498,-4.01039 -27.64159,-8.67856c-7.23496,-3.66845 -11.40365,-7.89773 -12.08192,-9.05843c-2.79074,-4.7757 -0.09788,-8.73293 5.10077,-13.30945c0.01444,9.79658 5.40296,16.73855 6.01909,15.80965z" fill="#ab164a" stroke="none" stroke-width="0" stroke-linecap="butt"/><path d="M224.99093,240.6793l3.78049,-4.14634" fill="none" stroke="#000000" stroke-width="2.5" stroke-linecap="round"/></g><g stroke-linecap="butt"><g><path d="M188.76483,248.32807c14.13849,0 20.8,5.37878 20.8,9.3c0,3.92122 -5.86151,-2.5 -20,-2.5c-14.13849,0 -18.6,-3.57878 -18.6,-3.9c0,-1.72122 3.66151,-2.9 17.8,-2.9z" fill="#f0f0f0" stroke="none" stroke-width="0"/><path d="M196.82892,235.76482c11.49349,0 18.24324,5.41316 18.24324,9.25676c0,3.8436 -7.56327,-3.60169 -19.05405,-3.85135c-12.43944,-0.27027 -17.56757,1.88414 -17.56757,-1.95946c0,-3.84361 6.88489,-3.44595 18.37838,-3.44595z" fill="#f0f0f0" stroke="none" stroke-width="0"/><path d="M190.61271,242.25131c15.46331,1.40756 22.43243,5.47784 22.43243,7.56757c0,2.08972 -11.77005,-1.75676 -21.62162,-1.75676c-9.85156,0 -16.42162,-1.34811 -16.42162,-3.43784c0,-2.08972 5.2187,-3.31892 15.61081,-2.37297z" fill="#f0f0f0" stroke="none" stroke-width="0"/><path d="M186.94215,251.53296c-0.80917,-0.27685 -5.56779,-3.11465 -7.60485,-7.05129c-1.70968,-3.30398 -0.07808,-7.09505 -0.07808,-7.09505c0,0 11.45654,-1.54756 15.72051,-1.23785c4.34607,0.31568 9.95343,1.37585 9.95343,1.37585c0,0 -13.24513,15.63206 -17.99101,14.00834z" fill="#db93e6" stroke="none" stroke-width="0"/><path d="M196.82892,235.76482c11.49349,0 18.24324,5.41316 18.24324,9.25676c0,3.8436 -7.56327,-3.60169 -19.05405,-3.85135c-12.43944,-0.27027 -17.56757,1.88414 -17.56757,-1.95946c0,-3.84361 6.88489,-3.44595 18.37838,-3.44595z" fill="none" stroke="#000000" stroke-width="2.3"/></g><path d="M188.76483,248.32807c14.13849,0 20.8,5.37878 20.8,9.3c0,3.92122 -5.86151,-2.5 -20,-2.5c-14.13849,0 -18.6,-3.57878 -18.6,-3.9c0,-1.72122 3.66151,-2.9 17.8,-2.9z" fill="none" stroke="#000000" stroke-width="2.3"/><path d="M190.61271,242.25131c15.46331,1.40756 22.43243,5.47784 22.43243,7.56757c0,2.08972 -11.77005,-1.75676 -21.62162,-1.75676c-9.85156,0 -16.42162,-1.34811 -16.42162,-3.43784c0,-2.08972 5.2187,-3.31892 15.61081,-2.37297z" fill="none" stroke="#000000" stroke-width="2.3"/></g></g></g><path d="M214.85983,242.52382l-1.83536,-1.40854c0,0 4.70811,-8.10446 7.06224,-9.95725c1.33356,-1.20916 6.10849,-4.78361 6.10849,-4.78361l2.45427,4.91464z" fill="#ab164a" stroke="none" stroke-width="0" stroke-linecap="butt"/></g><g data-paper-data="{&quot;index&quot;:null}" stroke-linecap="butt"><path d="M180.22086,212.83781c0,0 1.6329,-3.01512 2.73739,-4.4904c1.33099,-1.77783 4.69655,-5.43922 4.69655,-5.43922c0,0 -4.7274,-7.49088 -3.68438,-13.17219c0.70392,-3.83426 6.37147,-4.83936 8.60337,-4.83936c4.13649,0 6.26877,-1.15087 9.12834,3.46679c3.42884,5.53693 7.34225,15.67165 7.34225,21.82732c0,11.28935 -6.34473,11.02941 -15.44118,11.02941c-9.09646,0 -13.38235,-8.38236 -13.38235,-8.38236z" fill="#fddfbd" stroke="#000000" stroke-width="2.5"/><path d="M187.21221,198.76091c-0.35832,0.62619 -2.40063,-5.49773 -2.07676,-6.84037c0.80808,-3.34997 6.22974,-6.58273 8.8354,-6.58273c1.76758,0 3.71083,0.34202 5.10402,1.73419c2.54376,2.54191 4.65858,8.03261 4.65858,8.03261c0,0 -3.44415,-2.85504 -8.88025,-1.97269c-3.40707,0.55302 -6.83957,4.22845 -7.64099,5.62898z" fill="#f89587" stroke="none" stroke-width="0"/></g><g data-paper-data="{&quot;index&quot;:null}" stroke="none" stroke-linecap="butt"><path d="M207.15372,189.63827c-0.00414,-0.01285 -5.0993,-2.63182 -7.43134,-2.63002c-2.65942,0.00205 -6.44434,-1.5102 -8.87099,-0.96202c-2.85248,0.64437 -4.32182,3.44464 -7.16055,4.70545c-0.97237,0.81554 -3.56474,4.14554 -5.02467,3.07883c-1.0555,-0.7712 0.40472,-4.20561 0.61138,-5.02772c0.85828,-3.41438 2.02574,-5.10363 4.12059,-7.98096c1.47769,-2.02966 2.47586,-5.69227 5.32916,-5.80619c7.14981,0 16.19082,5.95199 19.407,13.03551c0.08823,0.08079 1.28306,1.73809 0.57155,1.97526c-0.71151,0.23717 -1.55213,-0.38813 -1.55213,-0.38813z" fill="#feebf7" stroke-width="0.5"/><path d="M185.74725,174.68714c0,0 1.76384,3.29551 1.29558,4.52178c-1.39517,3.65361 -6.68287,10.06177 -6.43555,11.74247c0.15589,1.05937 3.76309,-1.5838 4.69139,-2.36755c2.32715,-1.96477 4.21309,-3.84785 8.11163,-3.788c14.15969,0.2174 15.70652,5.86957 15.70652,5.86957c0,0 -4.85155,-3.99868 -17.22826,-3.36957c-1.66953,0.08486 -11.15999,9.45818 -13.75911,8.7762c-0.88818,-0.23305 -1.46299,-0.74872 -1.44012,-1.46945c0.07675,-2.41922 1.18435,-6.90686 6.99902,-15.88182c2.04162,-3.15123 2.05891,-4.03363 2.05891,-4.03363z" fill="#000000" stroke-width="0"/></g><g data-paper-data="{&quot;index&quot;:null}" stroke-linecap="butt"><g data-paper-data="{&quot;index&quot;:null}"><path d="M262.67741,134.56997c2.34211,6.65838 -8.69607,15.3767 -34.96861,29.33309c-12.83912,6.82034 -32.08645,10.25244 -42.41285,10.02297c-6.77474,-0.15054 -15.43759,-34.2862 -11.96247,-40.1037c9.12693,-15.27892 34.0816,-34.96073 51.59122,-33.50337c10.72876,0.89298 18.55121,21.39998 18.55121,21.39998c0,0 0.0453,5.86413 2.68156,13.4566c3.83772,-1.57574 14.722,-5.71697 16.51995,-0.60559z" fill="#fddfbd" stroke="#000000" stroke-width="3"/><path d="M242.714,130.73347c0,0 -24.53459,1.43345 -27.58512,3.57452c0.0382,1.34738 5.73149,14.32203 5.19464,14.3599c-13.41087,0.94594 -18.02299,0.2761 -18.02299,0.2761l-0.95011,22.03518c0,0 -8.49951,-2.91906 -12.40957,-4.53806c-1.08234,-1.95472 0.97143,6.18611 0.97143,6.18611l-4.81319,0.02723c0,0 -1.29112,-0.93189 -1.85899,-2.07037c-2.69253,-5.39803 -9.0607,-21.54353 -4.08472,-32.26078c5.7984,-12.48859 55.7336,-33.45125 55.7336,-33.45125c0,0 5.44085,12.08888 6.88082,16.84795c0.32251,3.59508 1.60469,9.1168 1.60469,9.1168z" fill="#f89587" stroke="none" stroke-width="0"/></g><g><g><path d="M158.48895,174.4067c0,0 -4.3298,7.68915 -9.31325,13.5066c-3.45416,4.03221 -7.51652,6.61143 -9.45352,7.39552c-4.7316,1.91533 -10.9875,-6.60333 -9.03075,-9.6498c1.14885,-1.78865 4.66988,-4.32287 7.80695,-6.33658c7.82451,-5.0226 18.03031,-9.34089 18.03031,-9.34089l1.96025,4.42514z" fill="#0066cc" stroke="#000000" stroke-width="3"/><path d="M134.39364,192.12292c0,0 2.27597,-1.09324 9.40759,-6.51623c6.05572,-4.60488 7.86649,-8.07421 9.1701,-10.11775c1.17792,-1.84652 1.49397,-2.69688 1.49397,-2.69688l1.95547,2.255c0,0 -5.41116,9.82193 -10.72922,14.51258c-3.12623,2.75739 -6.90364,4.67743 -6.90364,4.67743c0,0 -1.87138,-0.23819 -2.50159,-0.59333c-0.66741,-0.37611 -1.89268,-1.52084 -1.89268,-1.52084z" fill="#0f1b82" stroke="none" stroke-width="0"/></g><g stroke="#000000"><path d="M239.77893,104.38556c0,0 -44.49981,34.74238 -51.15821,42.19783c-8.68792,9.7279 -17.09489,18.60845 -17.09489,18.60845c0,0 -12.88073,2.50079 -22.48897,-6.22263c-2.94149,-2.6706 -5.34128,-24.62749 -5.3995,-27.31987c-0.17622,-8.14822 -3.45673,-17.78148 4.05111,-27.29012c20.11102,-25.47048 58.10697,-38.23274 67.89113,-36.79212c8.60117,1.26643 13.06407,19.26378 13.06407,19.26378z" fill="#ff2d32" stroke-width="3"/><path d="M169.18558,165.87829c0,0 -16.6652,-2.82166 -20.84552,-9.10857c-4.24815,-6.38891 -4.73654,-46.93927 -1.39774,-48.75078c11.33049,-6.14751 42.27192,37.63147 42.27192,37.63147l-20.02866,20.22789z" fill="#ab164a" stroke-width="1.5"/></g></g><g><path d="M149.28391,163.56488c0.07267,-1.07119 11.57561,-0.1034 19.14496,3.1427c4.34964,1.86533 5.92074,6.60512 7.31131,9.31376c1.06552,2.07551 -0.93925,7.01841 -3.3259,8.92849c-3.8345,3.06882 -23.3791,-17.71832 -23.13038,-21.38495z" fill="#fddfbd" stroke="#000000" stroke-width="3"/><path d="M164.75686,179.7594c0,0 1.12271,-0.23899 2.39928,-1.78757c1.61462,-1.9587 4.24854,-7.6295 4.24854,-7.6295c0,0 3.12588,2.60434 3.65162,3.59404c0.7177,1.35106 -0.68255,5.80326 -2.34442,8.45172c-0.90569,1.44336 -2.06183,1.555 -2.19136,1.68464c-0.35419,0.3545 -5.76366,-4.31335 -5.76366,-4.31335z" fill="#f89587" stroke="none" stroke-width="0"/><path d="M161.4428,170.09568c-0.26891,-0.5308 9.02656,-0.91306 9.28889,0.40945c0.33858,1.70691 2.06565,9.52372 -0.817,8.79428c-1.1773,-0.29791 -7.19898,-6.6913 -8.47188,-9.20374z" fill="#f89587" stroke="#000000" stroke-width="1.5"/></g><g><g data-paper-data="{&quot;index&quot;:null}"><path d="M195.63181,160.83432c-0.41222,2.56266 -8.04212,-2.73916 -8.358,-2.0306c-0.20761,0.4657 -2.76275,5.27765 -4.31475,10.04182c-1.57752,4.8425 -1.94177,10.19261 -2.22046,10.01045c-0.15162,-0.09911 -10.0783,-11.07862 -9.58874,-12.70898c2.70304,-9.00176 24.45292,-25.92201 24.45292,-25.92201c0,0 0.5588,17.31583 0.02902,20.60931z" fill="#50a5eb" stroke="#000000" stroke-width="3"/><path d="M189.91671,151.12282l4.21727,-8.07529l0.3635,17.51413z" fill="#66ffff" stroke="none" stroke-width="0"/></g><g data-paper-data="{&quot;index&quot;:null}"><path d="M271.57536,121.10127c0,0 -18.49158,1.03956 -26.90062,2.86584c-0.88707,0.19265 0.58133,-3.48825 -0.88632,-3.29236c-8.10352,1.08159 -24.63938,5.83141 -32.5898,8.06174c-0.62513,0.17536 -2.14972,0.62066 -2.26735,1.19982c-0.6138,3.02216 5.17007,9.51795 3.3692,10.5008c-1.94768,1.06298 -4.55622,0.92425 -7.4107,0.07688c-4.46451,-1.32531 -8.55757,-3.10286 -8.55757,-3.10286c0,0 1.44351,-12.39332 -8.91159,-47.48932c3.55488,-0.02871 12.77199,2.97847 16.71528,6.85002c3.58218,3.51702 4.53254,7.50098 4.80266,6.59959c2.68262,-8.95192 11.07912,-19.67856 14.95955,-22.52201c6.74723,-4.94415 43.58217,16.54252 43.58217,16.54252c0,0 -13.46915,4.88061 -20.29875,10.03942c7.09764,0.26718 22.04656,10.42221 24.39384,13.66993z" fill="#66ffff" stroke="#000000" stroke-width="3"/><path d="M227.26175,108.84866c0,0 10.88707,2.8734 16.53754,4.64196c6.6613,2.08495 21.44169,6.40124 21.44169,6.40124l-19.49447,2.43966c0,0 1.16774,-2.49327 -1.83771,-3.0488c-1.97577,-0.3652 -5.22169,0.77693 -10.2888,2.013c-3.8447,0.93788 -20.47462,5.47905 -25.17683,6.96804c-0.78369,0.24816 -0.79547,1.6501 -0.79547,1.6501c0,0 -0.01616,2.45359 0.47303,3.73136c0.71217,1.86024 3.05314,5.72367 3.05314,5.72367c0,0 -2.9482,0.59481 -4.70659,0.27297c-2.48441,-0.45472 -8.78969,-2.74323 -8.78969,-2.74323c0,0 -0.13518,-3.44972 -0.37362,-8.29848c-0.44129,-8.97388 -4.07927,-25.42735 -8.29754,-37.14511c1.41855,0.99178 19.61216,22.64649 19.61216,22.64649c0,0 5.98746,-7.57597 11.50455,-13.93479c3.58872,-4.13623 7.38498,-8.09009 7.81404,-7.97096c8.11068,-0.69152 26.799,6.70874 26.799,6.70874c0,0 -17.41108,5.84568 -22.20617,7.58123c-2.2514,0.81488 -5.26826,2.36294 -5.26826,2.36294z" fill="#50a5eb" stroke="none" stroke-width="0"/></g></g></g><g data-paper-data="{&quot;index&quot;:null}"><g><path d="M204.98807,156.95023c2.02677,0.25871 7.31277,1.97249 16.06738,-0.57111c8.18068,-2.37686 15.34943,-8.53754 15.34943,-8.53754c0,0 -0.34532,5.85925 -13.37332,11.15036c-9.16773,3.72333 -23.22917,0.91997 -22.76639,-1.8565c0.07386,-0.44312 1.23753,-0.63011 4.7229,-0.18521z" fill="#000000" stroke="none" stroke-width="0" stroke-linecap="butt"/><path d="M217.19741,159.29783c0,0 -1.65119,5.34667 -4.09998,9.77216c-1.7725,3.20328 -3.96829,11.13145 -4.71473,10.96398c-0.91694,-0.20571 -3.66075,-2.5944 -5.3361,-6.68917c-1.17909,-2.88184 -1.52614,-7.31529 -1.65017,-9.35804c-0.09691,-1.59609 -0.45706,-4.58045 -0.46418,-5.568c-0.00675,-0.93607 16.10621,0.94591 16.10621,0.94591" fill="#ff6666" stroke="#000000" stroke-width="2" stroke-linecap="round"/></g><g fill="#000000" stroke="none" stroke-width="0" stroke-linecap="butt"><path d="M204.24283,137.81287c2.80939,1.34085 7.90955,4.87047 7.90955,4.87047c0,0 1.2065,12.3 -2.6,12.7c-6.37142,0.66953 -15,-21.1 -15,-21.1c0,0 6.65126,2.07901 9.69045,3.52953z"/><path d="M225.45238,126.38335c0,0 1.5,4.00822 1.5,12.9c0,8.89178 -2.09512,13.1 -3.5,13.1c-4.80488,0 -4.7,-9.9 -4.7,-9.9z"/><path d="M217.75239,145.96194c0,0 -14.66735,-7.94345 -23.56388,-11.46971c-4.46792,-1.77092 -18.38194,-4.82987 -24.83122,-6.92397c-7.13107,-2.31549 -6.6049,-3.5849 -6.6049,-3.5849c0,0 11.51693,1.59324 22.57371,4.70298c6.48037,1.82262 12.54805,5.36029 16.05961,6.55923c7.17374,2.4493 15.38243,7.20039 15.38243,7.20039c0,0 5.02533,-14.07564 7.68779,-21.89545c2.04489,-6.00597 4.56777,-17.10665 6.20809,-22.20247c0.55001,-1.70867 2.28836,-2.36469 2.28836,-2.36469c0,0 -2.56833,15.20649 -4.8047,22.76181c-2.63217,8.89249 -10.39529,27.21678 -10.39529,27.21678z"/></g></g><g data-paper-data="{&quot;index&quot;:null}"><path d="M294.45774,204.52764c3.2017,-3.41968 7.07033,-7.10739 10.63398,-3.77088c2.3741,2.22278 4.53969,6.44084 4.42322,10.3951c-0.05835,1.98129 -1.08335,4.31689 -2.15208,5.45837c-1.57084,1.67776 -3.8635,2.13357 -6.35547,1.63468c-2.58721,-0.51796 -5.3783,-2.05478 -7.19354,-3.75432c-3.56365,-3.33652 -2.55783,-6.5433 0.64388,-9.96298z" fill="#485e84" stroke="#000000" stroke-width="3" stroke-linecap="butt"/><path d="M256.13837,189.70383c2.71235,-5.62316 8.52277,-4.80382 14.7511,1.02752c6.22831,5.83136 9.29982,11.54527 5.28321,15.83532c-1.65024,1.7626 -6.85085,7.14456 -9.96901,4.5685c-5.27272,-4.35607 -1.12861,-8.49186 -2.21071,-9.47374c-3.07103,-2.78663 -10.27773,-6.934 -7.85458,-11.95758z" fill="#f89587" stroke="#000000" stroke-width="3" stroke-linecap="butt"/><path d="M267.91572,177.1193c8.07947,-8.62948 20.91835,-19.71427 30.03056,-11.72937c3.58053,3.13759 -0.14656,9.50891 1.18483,10.75543c3.40603,3.18894 6.82669,4.7699 7.17656,9.32721c0.16999,2.21407 -0.8065,3.36417 -0.40618,5.33678c0.81349,4.00857 4.05636,3.70975 4.00602,7.32842c-0.20966,1.12456 -4.26573,14.08865 -9.35667,17.17595c-6.12373,3.71363 -11.69233,2.44351 -14.67835,0.9304c-4.84138,-2.45329 -4.52883,-8.04597 -4.52883,-8.04597c0,0 -4.21499,-1.57351 -5.57743,-3.46784c-1.32562,-1.84313 -0.67517,-4.55028 -2.26698,-7.40195c-0.39429,-0.70635 -2.9554,1.53356 -6.03163,-1.90476c-6.72249,-7.51378 -3.09772,-14.51709 0.44809,-18.30428z" fill="#fddfbd" stroke="#000000" stroke-width="3" stroke-linecap="butt"/><path d="M284.39162,190.62595c0,0 0.11481,0.66722 -0.61678,2.4166c-0.60171,1.43879 -2.16309,3.80115 -1.49456,5.47488c0.33532,0.83949 3.20008,3.79276 4.62297,4.30309c1.10421,0.39602 2.20982,0.13751 2.48312,0.33656c1.35354,0.98577 6.841,-3.91129 6.841,-3.91129l3.06313,-0.54691c0,0 -3.38221,5.58234 -6.76775,9.49799c0.13885,3.44912 0.11092,5.79637 0.11092,5.79637l4.74083,1.63076c0,0 -2.14331,0.77131 -4.36662,0.83724c-0.96843,0.02872 -2.24264,-0.61278 -2.8755,-0.61315c-4.09594,-0.00237 -7.2943,-2.67587 -7.5284,-6.76511c-0.02851,-0.49798 0.08934,-2.0809 -1.02092,-2.37198c-3.90019,-1.0225 -4.13736,-2.14568 -4.90097,-3.78061c-0.97121,-2.0794 -1.94297,-5.01958 -1.94297,-5.01958c0,0 0.53992,-0.97656 -0.13777,-1.37971c-0.8725,-0.51902 -2.68043,-0.1445 -4.14122,-0.60411c-0.60308,-0.18974 -1.09787,-1.1521 -1.52088,-1.38172c-0.93519,-0.50766 -2.08792,-2.07692 -2.57632,-3.21042c-0.46054,-1.06886 -0.28222,-1.70519 -0.32331,-2.14933c-0.15952,-1.72428 1.83008,-6.52489 3.84392,-6.7785c2.44423,-0.30781 5.01727,4.14444 5.01727,4.14444c0,0 0.1136,5.58372 2.45207,7.48055c1.75846,1.42637 7.03872,-3.40607 7.03872,-3.40607z" fill="#f89587" stroke="none" stroke-width="0" stroke-linecap="butt"/><path d="M282.18556,190.38211c1.62959,-2.21587 3.65607,-4.62684 5.53324,-5.61536c1.65528,-0.87167 4.31441,-0.82649 4.97492,-0.12252c0.30333,0.32328 -0.49124,1.38039 -0.49124,1.38039c0,0 -1.70777,-0.06797 -2.74892,0.55317c-1.15441,0.68868 -2.8805,2.17851 -3.98242,3.67685c-1.97189,2.6813 -3.64888,5.32439 -5.73066,6.651c-1.85238,1.18043 -5.51146,2.24716 -5.51146,2.24716l-1.58009,-1.89641c0,0 3.9687,-1.97709 5.16632,-2.51149c1.66835,-0.74446 3.30317,-2.91175 4.3703,-4.36279z" fill="#000000" stroke="none" stroke-width="0" stroke-linecap="butt"/><path d="M289.9733,203.07102c1.8799,-2.00789 3.60663,-4.40866 5.58741,-5.16854c1.74668,-0.67006 4.40421,-0.57207 4.97694,0.20499c0.26303,0.35686 -1.07578,1.67057 -1.07578,1.67057c0,0 -1.2852,-0.36613 -2.39243,0.12769c-1.22765,0.54751 -2.34604,2.02058 -3.6172,3.37829c-2.27477,2.42963 -5.02382,4.6586 -7.24772,5.73005c-1.97886,0.95338 -3.57277,0.88217 -3.57277,0.88217l-1.76971,-2.80386c0,0 2.43355,-0.06213 3.68591,-0.45134c1.7446,-0.54218 4.1943,-2.25522 5.42534,-3.57006z" fill="#000000" stroke="none" stroke-width="0" stroke-linecap="butt"/><g stroke-linecap="butt"><path d="M264.00237,168.30938c5.80073,-6.19565 13.81949,-8.11325 17.91039,-4.2831c4.0909,3.83015 2.70479,11.95766 -3.09595,18.1533c-5.80074,6.19563 -13.81951,8.11324 -17.91041,4.28309c-4.0909,-3.83015 -2.70478,-11.95766 3.09596,-18.1533z" fill="#485e84" stroke="#000000" stroke-width="3"/><path d="M278.43516,171.44739l2.46955,-7.15619c0,0 1.67185,3.43495 1.77396,5.03267c0.16447,3.35225 -1.47153,6.18655 -1.47153,6.18655z" fill="#8fbbbe" stroke="none" stroke-width="0"/><path d="M274.96825,177.46828l1.68127,-2.6564c0,0 1.58236,1.18744 2.05657,1.69251c0.55525,0.59141 1.24149,1.95392 1.24149,1.95392l-2.46237,2.77671z" fill="#8fbbbe" stroke="none" stroke-width="0"/></g><g><path d="M272.92377,176.95411c-8.00225,8.54701 -17.46974,8.57567 -26.01675,0.57341c-8.54701,-8.00224 -8.57856,-21.85608 -0.5763,-30.40309c8.00225,-8.54701 19.72195,-8.93281 28.26896,-0.93055c8.54701,8.00225 6.32636,22.21322 -1.6759,30.76023z" fill="#343545" stroke="#000000" stroke-width="3" stroke-linecap="butt"/><path d="M250.23803,145.34346c0,0 13.88909,-7.87589 21.36707,-0.87453c4.24053,3.97026 6.70278,10.14977 7.50795,15.73784c0.57364,3.98121 -0.42181,8.31638 -3.25042,11.33754c-5.81416,6.20998 -10.64723,5.82928 -18.12521,-1.17208c-3.73446,-3.49642 -6.27405,-9.97721 -6.84996,-15.50929c-0.57731,-5.54556 -0.64945,-9.51949 -0.64945,-9.51949z" fill="#485e84" stroke="none" stroke-width="0" stroke-linecap="butt"/><path d="M274.24702,146.75828c0,0 1.91407,9.70936 -6.98941,19.92524c-8.97645,10.2996 -18.43458,9.95164 -18.43458,9.95164" fill="none" stroke="#000000" stroke-width="1.6" stroke-linecap="round"/><path d="M279.36868,154.89855c0,0 -2.1513,8.8609 -7.07069,16.01006c-7.08951,10.30289 -13.34487,11.06945 -13.34487,11.06945" fill="none" stroke="#000000" stroke-width="1.6" stroke-linecap="round"/><path d="M266.35465,141.91758c0,0 0.78385,9.15603 -7.55234,19.88391c-8.01792,10.3183 -13.66167,10.43025 -13.66167,10.43025" fill="none" stroke="#000000" stroke-width="1.6" stroke-linecap="round"/><path d="M243.26781,170.31899c0,0 2.15826,-9.00364 5.38469,-14.97736c4.24968,-7.86826 10.43267,-14.3365 10.43267,-14.3365" fill="none" stroke="#000000" stroke-width="1.6" stroke-linecap="round"/><path d="M268.73324,179.18814c0,0 -7.98006,-0.98621 -17.32718,-9.05478c-8.72246,-7.52935 -8.56193,-15.18422 -8.56193,-15.18422" fill="none" stroke="#000000" stroke-width="1.6" stroke-linecap="round"/><path d="M245.3602,151.41116c0,0 4.00356,4.27965 9.04484,8.22564c4.43335,3.47013 9.79408,6.51032 12.214,8.53188c2.8742,2.40106 7.16423,6.98673 7.16423,6.98673" fill="none" stroke="#000000" stroke-width="1.6" stroke-linecap="round"/><path d="M248.25198,146.79131c0,0 10.76881,1.77663 16.78994,7.10402c9.4504,8.36157 12.2273,17.19654 12.2273,17.19654" fill="none" stroke="#000000" stroke-width="1.6" stroke-linecap="round"/><path d="M253.54041,142.50393c0,0 7.9169,0.93608 14.62677,5.41156c9.66249,6.44488 12.13316,12.79333 12.13316,12.79333" fill="none" stroke="#000000" stroke-width="1.6" stroke-linecap="round"/><path d="M268.08642,147.04334c-0.70319,-0.65837 -0.81068,-1.68613 -0.2401,-2.29556c0.57059,-0.60944 1.60319,-0.56977 2.30638,0.08861c0.70319,0.65837 0.81068,1.68613 0.2401,2.29556c-0.57059,0.60944 -1.60319,0.56977 -2.30638,-0.08861z" fill="#8fbbbe" stroke="none" stroke-width="0" stroke-linecap="butt"/><path d="M263.25439,143.95287c-0.35158,-0.32919 -0.36975,-0.88107 -0.04057,-1.23266c0.32918,-0.35158 0.88106,-0.36975 1.23265,-0.04057c0.35159,0.32918 0.36976,0.88106 0.04058,1.23265c-0.32919,0.35159 -0.88107,0.36976 -1.23266,0.04058z" fill="#8fbbbe" stroke="none" stroke-width="0" stroke-linecap="butt"/></g></g><g data-paper-data="{&quot;index&quot;:null}" stroke="none" stroke-width="0" stroke-linecap="butt"><path d="M170.9816,222.94924c0,0 -0.36391,-6.04324 6.63497,-8.07944c1.99399,-0.58011 5.3266,0.4988 8.52632,0.4988c6.92046,0 9.53034,-6.27741 13.39433,-6.43185c4.19326,-0.16759 9.95366,5.48366 9.95366,5.48366c0,0 3.18496,3.53609 2.06733,4.42411c-1.25382,0.99624 -9.22877,1.26606 -9.22877,1.26606c0,0 -1.22355,7.82863 -4.41407,12.62229c-2.92415,4.39344 -7.0718,5.70025 -11.61118,5.70025c-14.43067,0 -15.32258,-15.48387 -15.32258,-15.48387z" fill="#0066cc"/><path d="M173.74388,218.9677c0,0 7.10435,12.37491 11.18055,13.125c4.28948,0.78934 16.73611,-8.95833 16.73611,-8.95833c0,0 0.4185,5.62219 -2.83312,9.85306c-2.23915,2.91349 -7.13313,4.93861 -11.40299,4.93861c-5.991,0 -13.95112,-8.06037 -16.21923,-13.29335c-1.69584,-3.91263 2.53868,-5.66498 2.53868,-5.66498z" fill="#0f1b82"/><path d="M171.16897,222.95441c0.63281,1.99362 10.13387,14.24661 16.02929,14.50977c3.17945,0.14192 8.13608,-1.20191 11.44381,-6.44261c2.07077,-3.28089 3.01524,-11.04941 3.95914,-11.77129c1.6157,-1.23565 -0.24072,9.8603 -2.09044,13.00302c-3.15082,5.35336 -10.94549,10.34246 -15.81251,10.34246c-8.0593,0 -17.44276,-18.60857 -17.44276,-18.60857c0,0 0.38174,-2.45598 1.97148,-4.8643c1.56559,-2.37174 3.80025,-6.52745 5.45877,-7.93517c0.34575,-0.29347 2.50348,-0.98958 4.24324,-0.31627c2.35084,0.9098 5.44771,3.24502 8.67875,2.23011c4.16091,-1.30699 8.1583,-7.04135 12.40568,-6.79444c6.77,0.39356 10.17534,8.73499 10.23915,8.70585c0.05477,-0.02501 -9.2567,-5.22558 -11.00805,-4.8826c-1.33111,0.26068 -10.53051,6.89948 -12.23676,7.48536c-2.28859,0.78584 -7.38187,-2.91859 -9.2368,-2.13301c-2.84914,1.20664 -6.70193,7.15681 -6.60199,7.47169z" fill="#000000"/></g><path d="M107.43869,310.75446v-258.66667h258.66667v258.66667z" data-paper-data="{&quot;index&quot;:null}" fill="none" stroke="none" stroke-width="0" stroke-linecap="butt"/></g></g></svg>