<svg version="1.1" xmlns="http://www.w3.org/2000/svg" xmlns:xlink="http://www.w3.org/1999/xlink" width="234" height="234" viewBox="0,0,234,234"><g transform="translate(-123,-63)"><g data-paper-data="{&quot;isPaintingLayer&quot;:true}" fill-rule="nonzero" stroke-linejoin="miter" stroke-miterlimit="10" stroke-dasharray="" stroke-dashoffset="0" style="mix-blend-mode: normal"><path d="M123,297v-234h234v234z" data-paper-data="{&quot;index&quot;:null}" fill="none" stroke="none" stroke-width="0" stroke-linecap="butt"/><path d="M280.77998,270.04526c0,0 -23.94076,-8.60793 -23.23038,-11.00918c1.28087,-4.32964 6.96497,-13.16652 6.96497,-13.16652l4.14873,-7.94522l-1.87624,2.86397c0,0 -9.80139,-9.7981 -10.59138,-12.81392c-0.41505,-1.58443 5.19751,-7.57131 7.3051,-8.06931c4.728,-1.11715 32.88193,14.93091 32.00462,18.60566c-3.37759,8.26743 -10.45038,25.80091 -10.45038,25.80091c0,0 -2.47605,6.69516 -4.27502,5.73364z" data-paper-data="{&quot;index&quot;:null}" fill="#4b4b4b" stroke="#000000" stroke-width="3" stroke-linecap="round"/><g><g><g data-paper-data="{&quot;origRot&quot;:0}" stroke="#000000" stroke-width="3" stroke-linecap="round"><path d="M294.09913,209.94679c1.0889,2.21491 -7.62785,4.63567 -7.62785,4.63567c0,0 -22.8722,7.0394 -33.66018,10.40932c-4.74791,0.75575 -23.06366,-33.98598 -21.28287,-39.52183c0.79382,-2.46771 8.84546,-8.67436 10.8326,-8.05667c3.78235,1.1757 15.52369,13.60023 15.52369,13.60023l-3.79052,2.00731l10.43581,-4.31231c0,0 11.68787,-6.06862 17.30062,-7.25307c3.11287,-0.6569 12.26867,28.49132 12.26867,28.49132z" data-paper-data="{&quot;origPos&quot;:null}" fill="#582700"/><path d="M272.40726,185.82738l12.1336,27.69387" fill="none"/><path d="M280.83867,215.34036l-12.4063,-27.58277" data-paper-data="{&quot;origPos&quot;:null}" fill="none"/></g><path d="M284.62284,214.16458l-2.6702,1.10698l-12.59482,-28.25268l2.6702,-1.10698z" fill="#ffffff" stroke="none" stroke-width="0" stroke-linecap="butt"/><path d="M252.59958,225.24897l-7.51781,-8.40375l-10.86851,-21.60508l-1.96402,-8.27848l1.85299,-4.80322l6.94346,-3.3374l1.3887,-0.66748l14.11159,12.22113l-2.66177,1.55885l0.925,1.79115l12.61366,-5.22438l13.29624,27.42493l-26.84648,8.43232z" fill="#66c8ff" stroke="#000000" stroke-width="0.5" stroke-linecap="round"/></g><g fill="#fffc96" stroke="#000000" stroke-width="2" stroke-linecap="round"><path d="M260.95423,189.332c0,0 2.3352,-4.44466 5.51272,-2.97245c5.08384,2.35546 -14.61239,34.54555 -20.04112,32.40506c-2.21805,-0.87456 -1.08167,-4.35151 -1.08167,-4.35151l2.13468,0.56612c0,0 5.0587,-5.15165 9.82473,-12.5484c4.7,-7.29426 6.39237,-12.92786 6.39237,-12.92786z"/><path d="M250.96626,187.72689c0,0 -1.28943,-4.33792 1.41308,-4.34869c5.67295,-0.02258 14.64247,40.55396 9.31978,39.34394c-3.22351,-0.7328 -3.06071,-4.79651 -3.06071,-4.79651l1.57951,0.37037c0,0 -0.22284,-6.24757 -2.40887,-15.39655c-2.18602,-9.149 -5.32398,-15.00163 -5.32398,-15.00163z" data-paper-data="{&quot;index&quot;:null}"/></g></g><g stroke="#000000" stroke-linecap="round"><path d="M245.4401,179.7249c0,0 -29.33673,5.32305 -28.99897,-12.65459c0.12442,-6.62354 16.88467,-4.68711 16.88467,-4.68711z" data-paper-data="{&quot;origPos&quot;:null}" fill="#66c8ff" stroke-width="2"/><path d="M237.37022,167.87057c0,0 -16.43042,-2.23255 -16.20126,-2.84177c0.72664,-1.93158 12.90441,-1.12194 12.90441,-1.12194z" data-paper-data="{&quot;origPos&quot;:null}" fill="#0a0a0a" stroke-width="1"/></g><g data-paper-data="{&quot;index&quot;:null}"><path d="M239.84374,184.21323c0,0 1.52238,-14.28464 3.08642,-14.72256c4.6921,-1.31376 15.38006,0.3622 22.52872,0.8615c1.10512,0.0772 1.94739,13.65212 1.94739,13.65212l1.03356,30.66125c0,0 0.05202,14.94249 -1.15355,14.85829c-10.73176,-0.7496 -23.31715,-0.77713 -28.09356,-1.95063c-1.59212,-0.39117 -0.86315,-16.07785 -0.86315,-16.07785z" data-paper-data="{&quot;origPos&quot;:null}" fill="#66c8ff" stroke="#000000" stroke-width="3.5" stroke-linecap="round"/><path d="M259.51984,195.97793l0.0656,-2.0823c0.20408,-6.47828 0.40817,-12.95654 0.61225,-19.43481c0,0 0.09839,-3.12345 1.4345,-3.08136c1.33612,0.04209 1.23772,3.16554 1.23772,3.16554c-0.20408,6.47828 -0.47377,15.03884 -0.67785,21.51711c0,0 -0.0984,3.12345 -1.43451,3.08136c-1.33611,-0.04209 -1.23771,-3.16554 -1.23771,-3.16554z" fill="#ffffff" stroke="none" stroke-width="0.5" stroke-linecap="butt"/></g><path d="M239.02717,262.73093c0,0 -1.52425,4.23281 -3.42832,5.71201c-1.45765,1.13239 -3.39912,0.71596 -5.19651,0.21615c-4.93359,-1.37194 -8.48035,-5.0301 -15.36874,-8.93385c-1.87609,-1.0632 -1.31539,-4.32819 -0.0959,-6.0683c1.1406,-1.62754 3.22652,-4.38915 3.22652,-4.38915l19.83702,-26.99501c0,0 2.68633,-3.41397 4.63067,-3.19884c4.68233,0.51804 7.92605,4.03023 12.11934,6.10893c1.42104,0.70443 -0.97812,4.90832 -0.97812,4.90832c0,0 -3.72863,8.25322 -6.11516,13.53572c-3.36829,7.4556 -8.63082,19.10405 -8.63082,19.10405z" fill="#4b4b4b" stroke="#000000" stroke-width="3" stroke-linecap="round"/><g fill="none" stroke="#b9b9b9" stroke-width="3"><path d="M263.81971,179.20048c-0.64005,-1.33091 0.14901,-2.48313 1.19287,-3.62582c1.04388,-1.14267 2.06571,-1.46944 2.58732,-0.51221c1.10595,2.02962 -0.14987,2.93157 -0.96725,3.82632c-1.0439,1.14269 -1.90902,2.19132 -2.81295,0.31171z" stroke-linecap="butt"/><path d="M264.64801,178.65643l-2.20888,2.36204" stroke-linecap="round"/><path d="M259.50015,181.53327c1.04388,-1.14267 2.06571,-1.46944 2.58733,-0.51221c1.10595,2.02962 -0.14987,2.93157 -0.96726,3.82632c-1.04388,1.14269 -1.90902,2.19133 -2.81295,0.31171c-0.64005,-1.33091 0.14901,-2.48313 1.19287,-3.62583z" stroke-linecap="butt"/><path d="M256.9267,186.97707l2.20887,-2.36205" stroke-linecap="round"/><path d="M252.31154,186.39517c0.37954,-1.56613 1.47646,-1.38235 2.7138,-0.90054c1.23734,0.48181 2.00496,1.44868 1.767,2.64532c-0.50449,2.53718 -1.7282,1.66184 -2.69706,1.28456c-1.23734,-0.48181 -2.31976,-0.81756 -1.78375,-3.02934z" stroke-linecap="butt"/><path d="M250.50323,185.94979l2.58694,1.05452" stroke-linecap="round"/><path d="M246.51682,181.9894c0.77521,-1.2464 1.71852,-0.45702 2.707,0.68935c0.98848,1.14636 1.41775,2.48036 0.87262,3.46201c-1.15584,2.08139 -2.0236,0.57577 -2.79761,-0.32187c-0.98848,-1.14637 -1.87678,-2.06927 -0.78202,-3.82949z" stroke-linecap="butt"/><path d="M247.0546,182.99602l-2.05364,-2.44071" stroke-linecap="round"/><path d="M241.34826,175.91543c0.77521,-1.24638 1.71853,-0.45701 2.70701,0.68935c0.98848,1.14636 1.41775,2.48036 0.87261,3.46201c-1.15584,2.08138 -2.02359,0.57577 -2.7976,-0.32187c-0.98847,-1.14635 -1.87679,-2.06926 -0.78201,-3.82949z" stroke-linecap="butt"/><path d="M239.83244,174.48134l2.05365,2.44072" stroke-linecap="round"/></g><path d="M273.13935,172.22997c-12.48212,0.76292 -24.58878,1.46669 -29.59642,0.718c-4.57664,-0.68425 -6.09759,-3.37122 -6.09759,-3.37122c0,0 -1.95413,-2.33772 -2.13049,-3.86366c-0.52909,-4.57781 -1.40464,-17.7032 -1.07478,-29.07536c0.01101,-0.37954 0.03142,-0.59244 0.06581,-0.97062c0.10315,-1.13455 0.69985,-5.54844 0.69985,-5.54844c0,0 3.20162,-1.82578 4.96516,-2.3901c5.29061,-1.69298 19.02869,-0.90235 33.43053,-1.22004c1.30534,-0.0288 3.63471,1.53625 3.63471,1.53625c0,0 1.77046,3.05215 1.83295,5.03494c0.40404,12.81914 0.80228,27.00398 0.67412,30.25813c-0.04271,1.08473 -1.70391,5.36548 -1.70391,5.36548z" fill="#582700" stroke="#000000" stroke-width="2.5" stroke-linecap="round"/><path d="M230.62354,131.15097c-0.74689,-1.02217 0.3093,-1.74172 0.3093,-1.74172l1.30843,-0.84112c0.12016,-0.04319 0.24024,-0.0856 0.36035,-0.12725c-1.40818,-5.71596 -0.6798,-12.75294 -1.06029,-18.46056c-0.09867,-1.48018 -0.73181,-5.47028 -0.06908,-6.78069c1.10974,-2.19433 2.91378,-1.69806 4.87228,-1.81074c3.33237,-0.19171 6.64037,-0.34257 9.90726,-1.00378c8.09875,-1.62959 16.18746,-2.35056 24.3561,-3.49637c2.57767,-0.36157 5.10319,-0.59714 7.72182,-0.53059c0.71651,0.01821 1.61301,-0.28467 2.14215,0.18355c1.87409,1.65831 1.24014,3.65681 1.03459,5.63431c-0.41,3.94449 -1.85896,7.56234 -1.73264,11.57059c0.07543,3.06707 -0.21655,6.2351 -0.43073,9.29331c-0.07392,1.05537 0.39977,2.97492 -0.64722,3.82362c-2.14678,1.74019 -8.05802,0.86261 -10.68599,0.927c-8.01324,0.19635 -16.03771,0.23333 -24.02616,0.87065c-2.84988,0.32246 -5.56184,0.71103 -8.26071,1.44122c-0.0039,0.37352 -0.15733,0.8609 -0.85137,1.10371c-0.75302,0.26343 -1.20944,-0.08747 -1.44773,-0.39263c-0.09151,0.03205 -0.18305,0.0646 -0.27462,0.09764l-0.72262,0.54253c0,0 -1.05619,0.71953 -1.8031,-0.30264z" fill="#000000" stroke="none" stroke-width="0.5" stroke-linecap="butt"/><g data-paper-data="{&quot;index&quot;:null}" stroke="#000000" stroke-width="1.25" stroke-linecap="butt"><g data-paper-data="{&quot;index&quot;:null}" fill="#000000"><path d="M263.46864,163.9889l-11.49399,0.05978c0,0 -3.42405,-3.51986 5.74799,-3.68589c8.6162,-0.07513 5.746,3.62612 5.746,3.62612z"/></g><g data-paper-data="{&quot;index&quot;:null}" fill="#ffffff"><path d="M261.69104,160.7267c0.01655,0.00423 -0.61653,0.76756 -0.61903,1.49595c-0.00306,0.88932 0.62191,1.77548 0.61923,1.7755c-1.94054,0.01009 -9.71659,0.05053 -9.71659,0.05053c0,0 -3.42405,-3.51986 5.74799,-3.68589c1.76244,-0.01537 3.04428,0.12727 3.9684,0.36392z"/></g></g><g><g data-paper-data="{&quot;index&quot;:null}"><path d="M278.64635,179.48133c2.43663,-0.64664 5.82047,-5.82499 6.44683,-3.63698c0.31904,1.1145 5.73805,21.58055 5.30276,22.77759c-0.41931,1.15297 -1.23265,2.02566 -2.42812,2.34292c-0.81337,0.21583 -2.17337,0.16779 -3.11467,-0.21488c-1.87867,-0.76374 -12.66195,-19.66599 -13.07923,-21.12364c-0.62634,-2.18802 4.43583,0.50163 6.87246,-0.145z" fill="#0091d4" stroke="#000000" stroke-width="1.5" stroke-linecap="butt"/><g stroke-linecap="butt"><path d="M276.59665,172.23757c4.41461,-1.17155 8.64742,0.1635 9.45422,2.98191c0.80682,2.8184 -2.11787,6.05291 -6.53248,7.22446c-4.41462,1.17154 -8.64743,-0.1635 -9.45425,-2.98192c-0.80682,-2.8184 2.11789,-6.0529 6.53249,-7.22444z" fill="#0091d4" stroke="#000000" stroke-width="1.5"/><path d="M275.73137,181.92662c0,0 -1.7647,0.06634 -3.32624,-0.82404c-0.73829,-0.43531 -1.96191,-2.04139 -1.96191,-2.04139l4.03972,0.59907z" fill="#00aeff" stroke="none" stroke-width="0"/><path d="M279.40022,181.59994l-1.94411,0.46166c0,0 -0.47957,-0.64774 -0.62332,-1.04765c-0.12275,-0.34153 -0.29423,-1.36025 -0.29423,-1.36025l1.69101,-0.13044z" fill="#00aeff" stroke="none" stroke-width="0"/></g><g><path d="M278.49573,178.45488c-6.09009,1.61617 -13.44031,-0.81182 -15.12598,-6.70024c-1.68567,-5.88847 1.43339,-11.20298 7.52344,-12.81915c6.09009,-1.61617 12.70561,1.76438 14.39129,7.65281c1.68567,5.88847 -0.6987,10.2504 -6.78872,11.86658z" fill="#00699a" stroke="#000000" stroke-width="1.5" stroke-linecap="butt"/><path d="M269.06333,160.30586c0,0 1.88185,0.99882 4.3886,2.6126c2.50067,1.60986 4.96318,4.35641 5.69969,6.92921c1.47483,5.15193 0.44665,7.47472 -3.97819,8.649c-2.15269,0.57128 -4.47458,-0.02265 -6.23435,-1.25464c-2.47002,-1.72923 -4.80787,-4.3669 -5.64419,-7.28841c-1.47483,-5.15193 5.76841,-9.64774 5.76841,-9.64774z" fill="#0091d4" stroke="none" stroke-width="0" stroke-linecap="butt"/><path d="M284.37806,167.25565c0,0 -2.20195,4.44918 -9.37384,6.08909c-7.11361,1.6266 -11.27632,-1.61571 -11.27632,-1.61571" fill="none" stroke="#000000" stroke-width="0.8" stroke-linecap="round"/><path d="M284.3959,173.2285c0,0 -1.93284,2.70042 -8.6338,3.46879c-4.64979,0.53317 -9.42484,-0.62696 -9.42484,-0.62696" fill="none" stroke="#000000" stroke-width="0.75" stroke-linecap="round"/><path d="M283.19485,164.48647c0,0 -1.46671,2.57723 -8.40754,3.77028c-7.21634,1.24041 -11.39751,-1.3459 -11.39751,-1.3459" fill="none" stroke="#000000" stroke-width="0.8" stroke-linecap="round"/><path d="M264.77386,163.33451c0,0 4.64065,-1.28172 9.46656,-1.3311c3.66389,-0.03751 8.50893,1.1541 8.50893,1.1541" fill="none" stroke="#000000" stroke-width="0.8" stroke-linecap="round"/><path d="M275.50716,159.22766c0,0 3.69995,1.78577 5.11561,7.64026c1.51703,6.27377 -0.00966,10.19592 -0.00966,10.19592" fill="none" stroke="#000000" stroke-width="0.8" stroke-linecap="round"/><path d="M277.42054,178.41448c0,0 -1.11814,-3.09386 -1.54641,-5.00359c-0.36056,-1.60789 -0.47175,-4.82034 -1.02069,-7.70932c-0.62423,-3.28512 -1.66782,-6.17244 -1.66782,-6.17244" fill="none" stroke="#000000" stroke-width="0.8" stroke-linecap="round"/><path d="M274.6049,179.03584c0,0 -3.52864,-3.42803 -5.15986,-9.82066c-1.0393,-4.07295 0.80779,-9.47404 0.80779,-9.47404" fill="none" stroke="#000000" stroke-width="0.8" stroke-linecap="round"/><path d="M268.88182,177.91191c0,0 -2.41651,-2.68259 -3.0783,-8.70738c-0.45955,-4.18379 1.07529,-8.06459 1.07529,-8.06459" fill="none" stroke="#000000" stroke-width="0.8" stroke-linecap="round"/><path d="M264.87162,170.04121c-0.43423,0.11524 -0.89869,-0.18407 -1.03735,-0.66854c-0.13868,-0.48445 0.10091,-0.9706 0.53518,-1.08585c0.43423,-0.11524 0.8987,0.18406 1.03737,0.66853c0.13868,0.48445 -0.10092,0.97062 -0.53517,1.08586z" fill="#00aeff" stroke="none" stroke-width="0" stroke-linecap="butt"/><path d="M264.81112,166.53365c-0.25052,0.06648 -0.50982,-0.07598 -0.57916,-0.31821c-0.06936,-0.24222 0.07753,-0.49248 0.32805,-0.55897c0.25052,-0.06648 0.50983,0.07599 0.57916,0.31821c0.06936,0.24222 -0.07753,0.49249 -0.32805,0.55897z" fill="#00aeff" stroke="none" stroke-width="0" stroke-linecap="butt"/></g></g><path d="M276.10886,182.53077c3.51983,10.25877 3.36609,12.24492 3.36609,12.24492c0.369,1.30805 -0.97886,1.52655 -0.97886,1.52655c0,0 -2.55973,0.73236 -4.1981,1.2011c-1.07582,0.30781 -2.75664,0.7887 -2.75664,0.7887c0,0 -1.10791,0.13381 -1.29352,-0.58445c-1.11661,-4.32116 -2.42179,-8.39296 -2.76871,-10.61447c-0.11565,-0.74051 0.69887,-1.81678 0.69887,-1.81678l4.99535,-2.04627c0,0 1.99739,-0.95362 2.93547,-0.69928z" fill="#582700" stroke="#000000" stroke-width="3" stroke-linecap="round"/><path d="M289.12146,180.2171c6.77825,21.3577 6.58663,25.4483 6.58663,25.4483c0.72055,2.71897 -1.69724,3.09825 -1.69724,3.09825c0,0 -4.578,1.37539 -7.50811,2.25574c-1.92406,0.57806 -4.93013,1.48122 -4.93013,1.48122c0,0 -1.9893,0.21731 -2.35433,-1.27479c-2.19604,-8.97674 -4.72094,-17.44897 -5.44094,-22.05192c-0.24001,-1.53431 1.18057,-3.71213 1.18057,-3.71213l8.90752,-3.95748c0,0 3.55585,-1.8619 5.25602,-1.2872z" fill="#582700" stroke="#000000" stroke-width="3" stroke-linecap="round"/></g><path d="M266.23055,153.4486c0,-2.34721 1.90279,-4.25 4.25,-4.25c2.34721,0 4.25,1.90279 4.25,4.25c0,2.34721 -1.90279,4.25 -4.25,4.25c-1.5797,0 -2.9581,-0.86186 -3.69064,-2.14101c-0.35591,-0.62149 -0.55936,-1.34148 -0.55936,-2.10899z" data-paper-data="{&quot;index&quot;:null}" fill="#ffffff" stroke="#000000" stroke-width="1.75" stroke-linecap="butt"/><g><path d="M244.11305,172.65518c2.45198,-2.17438 5.67557,11.70437 6.97001,13.63872c1.40689,2.10234 -20.22382,1.04623 -20.22382,1.04623l-3.66403,-0.22898l24.26792,1.08756c0,0 8.40091,-0.03276 8.03154,2.20703c0,0 3.44838,10.62872 -3.20629,28.37564c-5.27331,0.6856 -17.33526,-2.1095 -17.33526,-2.1095c0,0 -27.08015,-5.00762 -28.89904,-9.38413c-0.42118,-1.01344 -2.43974,-13.95198 0.06744,-17.33047c8.31996,-11.21133 33.99154,-17.30211 33.99154,-17.30211z" fill="#582700" stroke="#000000" stroke-width="2.5" stroke-linecap="round"/><path d="M232.58085,188.11013c-0.52145,-0.05404 -1.04298,-0.11514 -1.56595,-0.17468c-0.11541,-0.01314 -1.40613,-0.28499 -2.01943,-0.17532c-0.95449,6.83811 -0.79798,13.7422 -2.13065,20.56216c-0.07521,0.60922 -0.10152,1.91034 -0.29976,3.15253c0.04634,0.37763 0.13035,0.67024 0.27541,0.77599c1.23347,0.89929 3.19038,1.07643 4.59264,1.737c-0.07308,-0.37682 -0.2685,-1.46955 -0.26118,-1.92802c0.02173,-1.36157 0.03898,-2.70737 0.01785,-4.06821c-0.07406,-4.77033 0.40216,-9.94454 0.90961,-14.66497c-0.01303,-1.69845 0.12902,-3.50225 0.48147,-5.21648zM234.13329,188.24157c-0.36364,1.68762 -0.49623,3.48552 -0.48339,5.15877c-0.59943,5.33625 -0.83998,10.94969 -0.8517,16.34716c-0.00483,2.22394 0.85818,5.59206 -1.8171,5.67612c-1.50105,-0.68567 -3.6479,-0.95742 -5.00572,-1.93967c-0.22299,0.41551 -0.51064,0.72285 -0.88456,0.84852c-0.52634,0.1769 -2.54782,-0.76805 -3.13635,-0.93834c-3.51115,-1.01588 -7.92324,-1.60546 -9.80134,-5.04056c-4.43767,-4.50635 -4.67863,-13.63278 -2.85817,-19.22436c2.8363,-3.45655 6.05764,-4.88709 10.16665,-6.55725c2.96683,-1.2059 5.53055,-2.86839 8.68046,-3.75246c4.20169,-1.80945 8.44893,-3.48894 12.65166,-5.29236c1.9289,-0.8277 3.4944,-2.26318 5.35148,-0.85344c1.30959,3.37078 2.63186,6.77895 3.86602,10.19245c0.38471,1.06406 1.09166,3.24925 0.55578,4.35024c-0.74474,1.53006 -2.65336,1.18921 -4.06965,1.04469c-3.1459,0.09935 -6.59753,0.0472 -9.98873,-0.25133c-0.22098,0.25501 -0.59232,0.26601 -0.59232,0.26601c-0.59732,0.01709 -1.19097,0.0015 -1.78298,-0.03417zM225.07867,209.7979c-0.16922,-4.06369 0.90933,-7.94649 0.86511,-11.95771c-0.07517,-2.36336 -0.56438,-6.55732 0.54698,-9.30955c-0.0063,-0.15548 0.03055,-0.27431 0.03055,-0.27431l0.23163,-0.73585c0.09134,-0.74862 0.4412,-1.46756 0.86134,-2.10271c6.17078,-0.584 12.64057,1.51996 18.94131,1.34436c0.71095,0.07327 1.71697,0.24013 2.41434,0.10877c0.4289,-0.08079 -0.10146,-2.55412 -0.18141,-2.84957c-0.97344,-3.59719 -2.81212,-6.95467 -3.93108,-10.50996c-0.1962,-0.3317 -2.85068,1.13705 -3.43636,1.38784c-4.23489,1.81344 -8.50701,3.5197 -12.74615,5.32916c-3.13222,0.88256 -5.66731,2.52189 -8.61698,3.7285c-3.75434,1.53576 -6.74017,2.77711 -9.38981,5.87197c-1.49265,5.19933 -1.35679,13.48219 2.7417,17.64412c1.88659,3.32668 7.72533,4.45515 11.18295,5.43879c0.03667,0.01043 0.28849,-1.67065 0.48803,-3.05132c-0.00059,-0.02121 -0.00129,-0.04205 -0.00214,-0.06252z" fill="#000000" stroke="none" stroke-width="0.5" stroke-linecap="butt"/><path d="M232.11401,193.27866c-0.50746,4.72044 -0.98843,9.9917 -0.91438,14.76203c0.02112,1.36086 0.00027,2.70719 -0.02147,4.06876c-0.00732,0.45847 0.18818,1.55119 0.26126,1.92801c-1.40227,-0.66057 -3.37807,-0.83885 -4.61155,-1.73813c-0.14506,-0.10576 -0.23111,-0.39891 -0.27745,-0.77654c0.19824,-1.24219 0.22074,-2.54456 0.29595,-3.15377c1.33268,-6.81996 1.19166,-13.82069 2.14614,-20.6588c0.6133,-0.10967 1.91173,0.1623 2.02713,0.17544c0.52297,0.05954 1.05045,0.12151 1.5719,0.17555c-0.35243,1.71423 -0.49057,3.51899 -0.47754,5.21745z" data-paper-data="{&quot;noHover&quot;:false,&quot;origItem&quot;:[&quot;Path&quot;,{&quot;applyMatrix&quot;:true,&quot;segments&quot;:[[[926.17844,407.1979],[3.2606,1.25965],[-0.27949,0.97418]],[[925.31465,410.11917],[0.29084,-0.97519],[-0.06418,0.21521]],[[924.29914,413.90358],[-0.01258,-1.20526],[13.15638,4.16543]],[[964.1057,425.02121],[-12.99513,-4.87922],[1.17537,0.35239]],[[970.21765,426.67451],[-2.3817,-0.804],[0.75941,0.04146]],[[971.83798,426.41666],[-0.25651,0.23985],[2.18115,-2.03947]],[[976.78433,418.26967],[-1.76682,2.44279],[-0.76669,0.00973]],[[972.89889,418.10481],[0.90089,0.17138],[-2.67549,-0.50896]],[[964.88923,416.67374],[2.68829,0.42712],[-9.42353,-1.49721]],[[936.29671,409.90591],[9.13228,2.58714],[-3.35077,-0.55846]]],&quot;closed&quot;:true}]}" fill="#ffffff" stroke="none" stroke-width="0.5" stroke-linecap="butt"/><path d="M225.3456,208.04656c-0.02791,0.22549 -0.70549,4.93075 -0.76612,4.91349c-3.45763,-0.98364 -9.32248,-2.12804 -11.20906,-5.45471c-4.09848,-4.16193 -4.24542,-12.4882 -2.75276,-17.68753c2.64964,-3.09486 5.65057,-4.36169 9.40491,-5.89746c2.94968,-1.20661 5.51608,-2.8593 8.6483,-3.74185c4.23913,-1.80946 8.54156,-3.50898 12.77643,-5.32242c0.58567,-0.2508 3.2439,-1.71721 3.44009,-1.38551c1.11896,3.55529 2.97315,6.92964 3.94658,10.52683c0.07995,0.29545 0.61316,2.77472 0.18426,2.8555c-0.69737,0.13136 -1.79892,0.00287 -2.50988,-0.0704c-6.30075,0.1756 -12.71096,-1.90021 -18.88173,-1.31621c-0.42013,0.63516 -0.76096,1.35106 -0.85229,2.09969l-0.22805,0.73411c0,0 -0.2728,0.6309 0.47075,0.84614c0.07444,0.02155 0.19243,0.12193 0.25672,0.12642c-0.71745,6.28378 -0.71092,12.51742 -1.92815,18.77389z" data-paper-data="{&quot;noHover&quot;:false,&quot;origItem&quot;:[&quot;Path&quot;,{&quot;applyMatrix&quot;:true,&quot;segments&quot;:[[[926.61254,417.73069],[12.14285,3.5238],[-0.03018,0.12086]],[[926.46822,418.11346],[0.06716,-0.13431],[-0.67082,1.34164]],[924.45576,418.78428],[[923.08279,418.0906],[0,0],[-1.44471,-0.43097]],[[919.22563,415.72869],[1.11205,1.01797],[0.89694,-11.9485]],[[928.15956,380.1298],[-1.74473,12.05571],[0.38029,-1.32836]],[[929.175,375.57071],[0.02742,1.37277],[-0.01686,-0.84429]],[[923.5003,374.93752],[0.60865,-0.05075],[-7.41054,0.61792]],[[901.48814,378.8123],[7.37628,-0.90935],[-0.71866,0.25961]],[[903.08234,385.83106],[-0.2998,-1.20115],[2.16779,8.68513]],[[909.35292,411.92731],[-2.15853,-8.69186],[0.69956,6.26621]],[[913.83986,429.61277],[-1.39861,-6.02998],[1.78014,7.67491]],[[922.29365,449.50563],[-5.21858,-6.1072],[9.74892,4.62723]],[[957.96755,450.34516],[-9.56021,6.37347],[7.18055,-2.44927]],[[972.39433,430.92276],[-3.08539,6.24485],[0.05411,-0.10951]],[[963.14745,427.86406],[0.43501,0.13058],[-11.92317,-4.46591]]],&quot;closed&quot;:true}]}" fill="#66c8ff" stroke="none" stroke-width="0.5" stroke-linecap="butt"/></g><g fill="#9e3eff" stroke="none" stroke-width="0.5" stroke-linecap="butt"><path d="M227.7195,149.01146c-1.24035,2.17061 -3.41096,0.93026 -3.41096,0.93026l-2.42955,-1.92296c-0.4766,-1.2289 -1.44922,-2.36876 -1.4298,-3.68669c0.02154,-1.46176 3.87465,-5.21532 2.47246,-6.69797c-1.73708,-1.83677 -5.17259,-2.40319 -5.83712,-4.84237c-0.68118,-2.50026 6.69617,-8.31584 2.99393,-9.39877c0,0 -2.02184,-1.47043 -0.55141,-3.49227c1.47043,-2.02184 3.49227,-0.55141 3.49227,-0.55141c1.03237,0.93963 2.86179,1.44292 3.09712,2.8189c0.37913,2.21679 -0.79304,4.44205 -1.48958,6.58045c-0.32222,0.98924 -0.88054,1.90972 -1.53843,2.7157c-0.24872,0.3047 -1.29037,0.15694 -1.07517,0.48618c0.33831,0.51759 1.22486,0.26946 1.76537,0.56979c1.12889,0.62727 2.54029,1.07612 3.1975,2.18784c0.92417,1.5633 1.3744,3.49622 1.23306,5.30675c-0.13466,1.72486 -2.82957,2.66654 -2.7606,4.39527c0.02389,0.59873 0.6468,1.00887 0.9702,1.51331l0.37045,-0.32296c0,0 2.17061,1.24035 0.93026,3.41096z"/><path d="M237.9195,147.61146c-1.24034,2.17061 -3.41096,0.93026 -3.41096,0.93026l-2.42955,-1.92296c-0.4766,-1.2289 -1.44922,-2.36876 -1.4298,-3.6867c0.02155,-1.46176 3.87464,-5.21532 2.47245,-6.69797c-1.73709,-1.83677 -5.17259,-2.40319 -5.83712,-4.84237c-0.68117,-2.50026 6.69617,-8.31584 2.99393,-9.39877c0,0 -2.02184,-1.47043 -0.55141,-3.49227c1.47043,-2.02184 3.49227,-0.55141 3.49227,-0.55141c1.03238,0.93963 2.86178,1.44292 3.09712,2.8189c0.37913,2.21679 -0.79304,4.44205 -1.48958,6.58045c-0.32222,0.98924 -0.88054,1.90972 -1.53843,2.7157c-0.24872,0.30471 -1.29037,0.15694 -1.07518,0.48618c0.3383,0.5176 1.22486,0.26946 1.76538,0.56979c1.12889,0.62727 2.54028,1.07612 3.1975,2.18784c0.92417,1.5633 1.37441,3.49622 1.23306,5.30676c-0.13466,1.72485 -2.82957,2.66654 -2.7606,4.39527c0.02389,0.59873 0.64681,1.00887 0.9702,1.51331l0.37045,-0.32296c0,0 2.1706,1.24034 0.93026,3.41096z"/><path d="M248.9195,146.81146c-1.24034,2.17061 -3.41096,0.93026 -3.41096,0.93026l-2.42955,-1.92297c-0.4766,-1.2289 -1.44922,-2.36876 -1.4298,-3.6867c0.02155,-1.46176 3.87465,-5.21532 2.47246,-6.69797c-1.73709,-1.83677 -5.17259,-2.40319 -5.83713,-4.84237c-0.68117,-2.50026 6.69617,-8.31584 2.99393,-9.39877c0,0 -2.02184,-1.47043 -0.55141,-3.49227c1.47043,-2.02184 3.49227,-0.55141 3.49227,-0.55141c1.03238,0.93963 2.86178,1.44292 3.09712,2.8189c0.37913,2.21679 -0.79305,4.44205 -1.48958,6.58045c-0.32222,0.98924 -0.88053,1.90972 -1.53843,2.7157c-0.24872,0.30471 -1.29037,0.15695 -1.07518,0.48619c0.3383,0.5176 1.22486,0.26945 1.76537,0.56979c1.12889,0.62727 2.54029,1.07612 3.1975,2.18784c0.92417,1.5633 1.3744,3.49622 1.23306,5.30676c-0.13466,1.72485 -2.82957,2.66654 -2.7606,4.39527c0.02389,0.59873 0.64681,1.00887 0.97021,1.51331l0.37044,-0.32296c0,0 2.1706,1.24034 0.93026,3.41096z"/></g></g></g></svg>