<svg version="1.1" xmlns="http://www.w3.org/2000/svg" xmlns:xlink="http://www.w3.org/1999/xlink" width="84.93345" height="182.00642" viewBox="0,0,84.93345,182.00642"><g transform="translate(-197.22503,-91.39556)"><g data-paper-data="{&quot;isPaintingLayer&quot;:true}" fill-rule="nonzero" stroke-linejoin="miter" stroke-miterlimit="10" stroke-dasharray="" stroke-dashoffset="0" style="mix-blend-mode: normal"><g stroke="#000000" stroke-linecap="round"><path d="M231.0851,174.49461c0,0 -28.22914,5.91484 -28.27891,-12.06568c-0.01835,-6.62461 16.21325,-5.02736 16.21325,-5.02736z" data-paper-data="{&quot;origPos&quot;:null}" fill="#66c8ff" stroke-width="2"/><path d="M223.0413,162.80599c0,0 -15.91916,-1.89997 -15.71052,-2.51368c0.66156,-1.94585 12.44273,-1.38252 12.44273,-1.38252z" data-paper-data="{&quot;origPos&quot;:null}" fill="#0a0a0a" stroke-width="1"/></g><g><g data-paper-data="{&quot;index&quot;:null}"><g stroke="#000000" stroke-width="3" stroke-linecap="round"><path d="M278.12685,200.50747c0,0 2.9198,10.33691 2.48808,14.92429c-15.6623,6.39279 -25.29943,3.78911 -25.29943,3.78911c-1.99294,0.39971 -2.25392,-6.87055 -2.25392,-6.87055c0,0 -0.9747,-14.17598 -1.59858,-23.24931c-0.40966,-5.95792 -1.0497,-15.26645 -1.0497,-15.26645c0,0 -0.14545,-5.92273 0.94803,-6.05365c6.57853,-0.78762 12.79038,-2.84668 16.16085,-2.06925c1.12349,0.25914 2.70627,5.75054 2.70627,5.75054l7.89838,29.04526z" data-paper-data="{&quot;origPos&quot;:null}" fill="#582700"/><path d="M278.82545,206.22281l-25.34773,4.00908l-0.51729,-3.36246l25.34772,-4.26772z" data-paper-data="{&quot;origPos&quot;:null}" fill="none"/></g><path d="M252.67667,206.44966l-1.73302,-36.8268l1.15535,-0.86652l15.59723,-2.59955l9.82048,36.10471z" fill="#66c8ff" stroke="#000000" stroke-width="1" stroke-linecap="round"/><path d="M253.37301,209.79757l-0.36699,-2.30203l25.18283,-4.01465l0.36699,2.30203z" fill="#ffffff" stroke="none" stroke-width="0" stroke-linecap="butt"/></g><g fill="#fffc96" stroke="#000000" stroke-width="2" stroke-linecap="round"><path d="M276.26738,195.88422c0,0 4.35886,0.46489 4.30244,3.4086c-0.09028,4.70982 -32.63647,-0.83964 -32.83846,-5.75378c-0.08252,-2.0078 3.08487,-2.18542 3.08487,-2.18542l0.29885,1.84764c0,0 5.8781,2.38292 13.44102,3.84639c7.45811,1.44319 12.53792,1.03867 12.53792,1.03867z"/><path d="M274.03817,187.56004c0,0 3.00112,-2.34415 3.95866,-0.2286c2.01,4.44084 -27.14776,23.94366 -28.05337,19.39864c-0.54845,-2.75257 2.74428,-3.87382 2.74428,-3.87382l0.25974,1.35222c0,0 4.89612,-2.09478 11.41299,-6.62048c6.51688,-4.52569 10.07493,-8.78464 10.07493,-8.78464z" data-paper-data="{&quot;index&quot;:null}"/></g></g><g data-paper-data="{&quot;origRot&quot;:0}" stroke="#000000" stroke-linecap="round"><path d="M243.28584,226.30649c0,0 -0.14268,-4.71069 1.41564,-4.70996c4.59835,0.00222 9.03394,-1.65888 13.33668,-0.08195c1.78672,0.65482 2.54309,4.80021 2.54309,4.80021l4.76174,32.16974c0,0 0.53622,3.31553 0.77526,5.23105c0.25555,2.04803 -0.76415,5.14208 -2.88292,5.25738c-7.77943,0.42343 -12.54537,2.08062 -17.46014,1.14044c-1.79053,-0.34253 -3.66765,-0.82031 -4.41026,-2.44088c-0.97009,-2.11688 -0.34007,-6.47363 -0.34007,-6.47363z" data-paper-data="{&quot;origPos&quot;:null}" fill="#ff0000" stroke-width="3"/><path d="M266.21951,267.00527c0,0 -5.92657,2.72301 -11.06164,2.84961c-3.9398,0.09713 -12.49938,-0.69731 -12.49938,-0.69731c0,0 -1.43232,-2.52525 -1.56315,-4.0934c-0.13785,-1.65195 0.8746,-4.1577 0.8746,-4.1577l23.5099,-1.36265z" data-paper-data="{&quot;origPos&quot;:null}" fill="#976e57" stroke-width="2"/><path d="M243.37619,226.61932c0,0 -0.14268,-4.71069 1.41564,-4.70995c4.59834,0.00222 9.03394,-1.65888 13.33669,-0.08193c1.78672,0.65482 2.54309,4.8002 2.54309,4.8002l4.76174,32.16974c0,0 0.53624,3.31554 0.77528,5.23105c0.25555,2.04803 -0.76417,5.14207 -2.88292,5.25738c-7.77943,0.42343 -12.54537,2.08062 -17.46014,1.14045c-1.79053,-0.34253 -3.66763,-0.82033 -4.41025,-2.44088c-0.97009,-2.11688 -0.34008,-6.47363 -0.34008,-6.47363z" data-paper-data="{&quot;origPos&quot;:null}" fill="#4b4b4b" stroke-width="3"/></g><path d="M239.70478,262.7942c0,0 0.57662,4.36374 -0.41931,6.46925c-0.76242,1.61186 -2.64523,2.06789 -4.43982,2.38968c-4.92593,0.88327 -9.67124,-0.82899 -17.44493,-1.34238c-2.1172,-0.13983 -3.09897,-3.24545 -2.81836,-5.29037c0.26247,-1.91262 0.83924,-5.2217 0.83924,-5.2217l5.15524,-32.11237c0,0 0.80705,-4.13633 2.60166,-4.77042c4.32175,-1.52704 8.73669,0.18525 13.33473,0.23626c1.55821,0.01729 1.35787,4.72598 1.35787,4.72598c0,0 0.46366,8.82881 0.76043,14.47972c0.41885,7.97557 1.07325,20.43639 1.07325,20.43639z" fill="#4b4b4b" stroke="#000000" stroke-width="3" stroke-linecap="round"/><g><path d="M222.0186,180.39709c0,0 1.96006,-14.14536 4.13864,-14.68317c6.5357,-1.61346 21.47718,-0.69992 31.46366,-0.69992c1.54381,0 2.87696,13.28541 2.87696,13.28541l1.79808,30.06698c0,0 0.24567,14.68387 -1.43847,14.68387c-14.99193,0 -32.56344,0.837 -39.24569,0.01148c-2.22739,-0.27516 -1.39128,-15.74418 -1.39128,-15.74418z" data-paper-data="{&quot;origPos&quot;:null}" fill="#66c8ff" stroke="#000000" stroke-width="3.5" stroke-linecap="round"/><path d="M241.04746,188.44565c-1.30427,0 -1.30427,-2.44192 -1.30427,-2.44192c0,-5.06472 0,-11.75738 0,-16.82209c0,0 0,-2.44192 1.30427,-2.44192c1.30427,0 1.30427,2.44192 1.30427,2.44192c0,5.06472 0,10.12943 0,15.19415v1.62794c0,0 0,2.44192 -1.30427,2.44192z" fill="#ffffff" stroke="none" stroke-width="0.5" stroke-linecap="butt"/><path d="M253.16461,194.66293c-1.30427,0 -1.30427,-3.06774 -1.30427,-3.06774c0,-6.36272 0,-14.77058 0,-21.13329c0,0 0,-3.06774 1.30427,-3.06774c1.30427,0 1.30427,3.06774 1.30427,3.06774c0,6.36272 0,12.72542 0,19.08815v2.04515c0,0 0,3.06774 -1.30427,3.06774z" fill="#ffffff" stroke="none" stroke-width="0.5" stroke-linecap="butt"/></g><g fill="none" stroke="#b9b9b9" stroke-width="3"><path d="M255.42435,169.95626c-0.83561,-1.3332 0.08672,-2.53044 1.32162,-3.72614c1.2349,-1.19569 2.47429,-1.5608 3.15035,-0.60388c1.43341,2.02894 -0.07048,2.98659 -1.03743,3.92286c-1.23491,1.19571 -2.25445,2.29002 -3.43454,0.40719z" stroke-linecap="butt"/><path d="M253.80296,171.84961l2.61526,-2.47327" stroke-linecap="round"/><path d="M250.22184,172.46741c1.2349,-1.19569 2.47429,-1.5608 3.15035,-0.60388c1.43341,2.02894 -0.07048,2.98659 -1.03743,3.92286c-1.23489,1.1957 -2.25444,2.29002 -3.43453,0.40719c-0.83561,-1.3332 0.08672,-2.53044 1.3216,-3.72615z" stroke-linecap="butt"/><path d="M249.89407,175.61363l-2.61524,2.4733" stroke-linecap="round"/><path d="M241.60165,177.64294c0.40457,-1.60512 1.75568,-1.45334 3.29034,-1.00292c1.53465,0.45043 2.51248,1.40927 2.26714,2.63402c-0.5202,2.59679 -2.05333,1.74568 -3.255,1.39299c-1.53465,-0.45042 -2.87384,-0.75723 -2.30247,-3.02408z" stroke-linecap="butt"/><path d="M239.36883,177.24787l3.21034,0.98969" stroke-linecap="round"/><path d="M234.33164,173.34736c0.90172,-1.2926 2.08799,-0.51991 3.34337,0.61442c1.25539,1.13433 1.83284,2.47742 1.20281,3.49337c-1.33586,2.15408 -2.45718,0.65047 -3.44019,-0.23774c-1.25539,-1.13434 -2.37942,-2.04457 -1.10598,-3.87003z" stroke-linecap="butt"/><path d="M232.41898,171.93729l2.61043,2.41672" stroke-linecap="round"/><path d="M227.76444,167.33497c0.90172,-1.29258 2.08799,-0.51991 3.34337,0.61442c1.2554,1.13433 1.83284,2.47742 1.20281,3.49337c-1.33586,2.15407 -2.45718,0.65047 -3.44019,-0.23774c-1.25539,-1.13433 -2.37941,-2.04456 -1.10597,-3.87003z" stroke-linecap="butt"/><path d="M228.46223,168.34161l-2.61044,-2.41672" stroke-linecap="round"/></g><path d="M255.84696,166.94182c-12.087,0.03455 -23.80819,0.03194 -28.59147,-1.00688c-4.3716,-0.94941 -5.67087,-3.7196 -5.67087,-3.7196c0,0 -1.73889,-2.44688 -1.81376,-3.98006c-0.22458,-4.59954 -0.24982,-17.74989 0.77817,-29.0803c0.0343,-0.37815 0.0673,-0.58943 0.12406,-0.96487c0.17031,-1.12629 1.02137,-5.49669 1.02137,-5.49669c0,0 3.20202,-1.63571 4.93823,-2.09623c5.20862,-1.38154 18.41007,0.20753 32.32092,0.7291c1.26083,0.04728 3.40992,1.74486 3.40992,1.74486c0,0 1.51716,3.14919 1.45366,5.1317c-0.41043,12.81725 -0.91174,26.99714 -1.23847,30.23738c-0.10889,1.08008 -1.97837,5.25561 -1.97837,5.25561z" fill="#582700" stroke="#000000" stroke-width="2.5" stroke-linecap="round"/><path d="M253.34781,146.8c0.11026,-3.44319 0.61317,-6.22123 1.12326,-6.20488c0.5101,0.01632 0.83424,2.82085 0.72398,6.26402c-0.11026,3.44319 -0.61317,6.22124 -1.12326,6.20489c-0.5101,-0.01632 -0.83424,-2.82085 -0.72398,-6.26403z" fill="none" stroke="#000000" stroke-width="2.5" stroke-linecap="butt"/><path d="M247.13207,146.68028c0.1123,-3.50697 0.51349,-6.34 0.89605,-6.32773c0.38257,0.01226 0.60169,2.86515 0.48938,6.3721c-0.1123,3.50697 -0.51347,6.33997 -0.89604,6.32772c-0.38257,-0.01226 -0.6017,-2.86513 -0.48939,-6.37208z" fill="none" stroke="#000000" stroke-width="2.5" stroke-linecap="butt"/><path d="M250.10784,156.46401c0,0 -2.75309,0.16079 -6.08027,-0.2126" fill="none" stroke="#000000" stroke-width="2.5" stroke-linecap="round"/><path d="M217.40323,123.46851c-0.6566,-1.06365 0.40704,-1.72026 0.40704,-1.72026l1.31453,-0.76325c0.11859,-0.0361 0.23707,-0.07144 0.3555,-0.106c-1.00146,-5.78663 0.14032,-12.76724 0.1296,-18.4857c-0.00278,-1.48301 -0.36439,-5.50205 0.35662,-6.77126c1.20736,-2.12535 2.91642,-1.52503 4.81249,-1.52343c3.22614,0.00271 6.42622,0.04478 9.61851,-0.42486c7.91321,-1.15475 15.76001,-1.40329 23.71043,-2.07113c2.50881,-0.21074 4.95946,-0.2988 7.48106,-0.07988c0.68995,0.0599 1.57356,-0.19018 2.05471,0.30794c1.7041,1.76416 0.96789,3.72178 0.6462,5.68338c-0.64167,3.91279 -2.26505,7.43909 -2.3934,11.44675c-0.11867,3.06538 -0.59805,6.21012 -0.99554,9.24978c-0.13717,1.04897 0.19989,2.99232 -0.86292,3.77835c-2.17926,1.61172 -7.82604,0.39166 -10.36482,0.3029c-7.74126,-0.27067 -15.48342,-0.70103 -23.22831,-0.53017c-2.76892,0.15586 -5.40893,0.38574 -8.05765,0.95732c-0.02708,0.37255 -0.20549,0.85005 -0.89006,1.05195c-0.74274,0.21907 -1.16107,-0.15772 -1.37187,-0.47615c-0.09026,0.02666 -0.18059,0.05382 -0.27097,0.08145l-0.73085,0.49938c0,0 -1.06365,0.6566 -1.72026,-0.40704z" fill="#000000" stroke="none" stroke-width="0.5" stroke-linecap="butt"/><g><g stroke="#000000" stroke-width="3" stroke-linecap="round"><path d="M201.20653,200.52599l7.89838,-29.04526c0,0 1.58278,-5.4914 2.70627,-5.75054c3.37048,-0.77744 9.58231,1.28163 16.16085,2.06925c1.09348,0.13092 0.94804,6.05365 0.94804,6.05365c0,0 -0.64004,9.30853 -1.0497,15.26645c-0.62388,9.07333 -1.59858,23.24931 -1.59858,23.24931c0,0 -0.26098,7.27026 -2.25392,6.87055c0,0 -9.63714,2.60367 -25.29943,-3.78911c-0.43173,-4.58738 2.48808,-14.92429 2.48808,-14.92429z" data-paper-data="{&quot;origPos&quot;:null}" fill="#582700"/><path d="M201.02518,202.62023l25.34772,4.26772l-0.51729,3.36246l-25.34773,-4.00908z" data-paper-data="{&quot;origPos&quot;:null}" fill="none"/></g><path d="M201.81663,202.28003l9.82048,-36.10471l15.59723,2.59955l1.15535,0.86652l-1.73303,36.8268z" fill="#66c8ff" stroke="#000000" stroke-width="1" stroke-linecap="round"/><path d="M200.77751,205.80144l0.367,-2.30203l25.18283,4.01465l-0.36699,2.30203z" fill="#ffffff" stroke="none" stroke-width="0" stroke-linecap="butt"/></g></g></g></svg>