<svg version="1.1" xmlns="http://www.w3.org/2000/svg" xmlns:xlink="http://www.w3.org/1999/xlink" width="95.86394" height="95.86394" viewBox="0,0,95.86394,95.86394"><g transform="translate(-192.06803,-132.06803)"><g data-paper-data="{&quot;isPaintingLayer&quot;:true}" fill-rule="nonzero" stroke-linejoin="miter" stroke-miterlimit="10" stroke-dasharray="" stroke-dashoffset="0" style="mix-blend-mode: normal"><g><g stroke="#000000" stroke-width="1"><path d="M250.50676,182.73524c0,-1.53387 0.04136,-4.99917 1.05323,-5.99764c0.99434,-0.98116 9.95975,4.98037 9.95975,5.99764c0,3.04115 -2.13928,5.09091 -5.18043,5.09091c-3.04115,0 -5.83255,-2.04976 -5.83255,-5.09091z" fill="#d90250" stroke-linecap="butt"/><path d="M259.56894,174.47549c0,0 -0.87172,3.18296 0.09933,3.99391c1.50924,1.2604 6.16318,0.83726 6.16318,0.83726c0,0 -2.44714,1.85716 -2.92096,3.08046c-0.47852,1.23545 0.33792,4.29616 0.33792,4.29616c0,0 -2.7018,-4.05732 -4.65518,-3.99147c-0.88372,0.02979 -1.07348,2.01744 -1.07348,2.01744c0,0 -1.39632,-3.38831 -2.27085,-4.22562c-0.72495,-0.6941 -2.61226,-0.4497 -2.61226,-0.4497c0,0 -0.29189,-1.28272 -0.7422,-3.11848c-0.25303,-1.0315 -1.88395,-2.90749 -1.88395,-2.90749c0,0 3.58372,1.21425 5.2469,1.2956c1.50767,0.07374 4.31154,-0.82807 4.31154,-0.82807z" fill="#fdebf6" stroke-linecap="round"/></g><g stroke="#000000" stroke-linecap="round"><path d="M214.75766,198.89107c0,0 1.25845,-6.93923 1.56901,-8.13208c0.08761,-0.3365 0.8114,-0.59868 1.6187,-0.53784c0.73772,0.0556 2.39749,0.22758 4.53715,0.38695c9.71077,0.72329 30.59843,2.20505 30.59843,2.20505l1.8193,15.16883z" fill="#4fa6ed" stroke-width="0"/><path d="M253.08095,192.81315l1.8193,15.16883l-14.28468,-3.17743c-0.26487,-1.39792 -1.56651,-6.75002 -2.30336,-7.1849c-0.49515,-0.86653 -3.05372,-0.1427 -4.05988,0.10555c-2.23072,0.55039 -6.69201,1.45215 -8.14126,3.81854l-3.88452,-0.9076c1.16177,-0.89254 2.14088,-2.02634 2.77165,-3.11327c0.58228,-1.00338 1.60713,-3.31432 0.96722,-4.27418l-2.91758,-2.59855c9.92162,0.73703 30.0331,2.163 30.0331,2.163z" fill="#2e67e5" stroke-width="0"/><path d="M214.75766,198.89107c0,0 1.25845,-6.93923 1.56901,-8.13208c0.08761,-0.3365 0.8114,-0.59868 1.6187,-0.53784c0.73772,0.0556 2.39749,0.22758 4.53715,0.38695c9.71077,0.72329 30.59843,2.20505 30.59843,2.20505l1.8193,15.16883z" fill="none" stroke-width="1"/></g><path d="M225.84581,185.38459l6.27134,-4.83117l-1.53523,-5.81818c0,0 6.76544,-2.59679 8.81376,-3.27347c0.98881,-0.32666 2.82261,-0.57069 2.82261,-0.57069c0,0 4.65328,1.37707 7.9239,4.74913c2.43302,2.50849 4.78528,6.9441 5.30877,8.80674c0.25094,0.89288 -0.31502,3.18066 -0.75852,4.99336c-0.35143,1.43636 0.07154,2.40044 -0.56183,3.36214c-1.46874,2.23015 -3.21709,2.03667 -3.21709,2.03667c0,0 -1.43077,0.13353 -2.04456,-0.037c-0.79784,-0.22166 -2.6109,-1.18029 -2.6109,-1.18029c0,0 -13.91649,-1.26786 -16.84778,-2.39815c-3.35867,-1.29508 -3.56446,-5.83911 -3.56446,-5.83911z" fill="#ff292e" stroke="#000000" stroke-width="0" stroke-linecap="round"/><path d="M255.45096,184.44695c0.25094,0.89288 -0.31502,3.18066 -0.75852,4.99336c-0.35143,1.43636 0.07154,2.40044 -0.56183,3.36214c-1.46874,2.23015 -3.21709,2.03667 -3.21709,2.03667c0,0 -1.43077,0.13353 -2.04456,-0.037c-0.79784,-0.22166 -2.6109,-1.18029 -2.6109,-1.18029c0,0 -3.76343,-0.34976 -7.7617,-0.84564c1.69769,-0.98854 3.00537,-2.90617 3.77072,-3.64811c3.86602,-3.74775 1.8549,-6.37984 2.28688,-7.4144c0.05251,-0.12577 0.03472,-0.2791 0.16875,-0.35507c0.21452,-0.12158 1.92597,2.50311 1.87438,2.85476c-0.32287,2.20085 -2.04409,5.41094 0.45168,7.20979c0.12003,0.08651 2.55149,1.13129 2.92966,0.69276c0.18027,-0.20904 1.70474,-1.29996 2.11409,-2.45199c1.20095,-3.37989 1.23535,-9.2618 1.07401,-10.55705c1.14812,2.05457 1.96088,4.18878 2.28444,5.34005z" fill="#d90251" stroke="#000000" stroke-width="0" stroke-linecap="butt"/><g><path d="M237.43653,210.93086c0,0 -2.38284,1.55187 -3.22615,1.46377c-0.63812,-0.06667 -1.46951,-1.1585 -2.00449,-1.9701c-0.32234,-0.48902 -0.55342,-0.58603 -0.61147,-0.15933c-0.12733,0.93581 -0.31823,2.52782 -1.11444,3.15301c-1.20887,0.94921 -6.97012,0.31073 -7.286,0.45007c-3.44544,1.5199 -7.3625,2.97426 -10.62565,3.47012c-1.0431,0.15851 -2.46458,-1.5188 -2.46458,-1.5188c0,0 -3.66397,1.40371 -5.85437,-1.63326c-0.80668,-1.11845 -1.17606,-3.61198 -1.23924,-4.65492c-0.00803,-0.13245 -0.09419,-0.36737 -0.00802,-0.5478c0.10519,-0.22028 1.90801,-2.03821 2.6773,-2.10809c4.44933,-0.40417 29.66226,-0.29206 29.66226,-0.29206c0,0 1.61984,0.71151 1.82959,1.42748c0.25653,0.87565 0.26524,2.91992 0.26524,2.91992z" fill="#f38285" stroke="#000000" stroke-width="0" stroke-linecap="round"/><path d="M234.21037,212.39465c-0.63813,-0.06667 -1.46952,-1.1585 -2.00449,-1.9701c-0.32234,-0.48902 -0.55342,-0.58603 -0.61147,-0.15933c-0.12733,0.93581 -0.31823,2.52782 -1.11444,3.15301c-1.20887,0.94921 -6.97011,0.31072 -7.28599,0.45007c-1.99601,0.88051 -4.1503,1.73901 -6.24404,2.40191c0.28435,-0.92786 0.43738,-1.91314 0.43738,-2.93416c0,-2.58013 -1.38831,-4.93203 -2.99272,-6.70583c8.90797,-0.10028 20.94709,-0.04674 20.94709,-0.04674c0,0 1.61984,0.71151 1.82959,1.42748c0.25653,0.87565 0.26524,2.91992 0.26524,2.91992c0,0 -2.38284,1.55188 -3.22615,1.46377z" fill="#e96698" stroke="#000000" stroke-width="0" stroke-linecap="round"/><path d="M237.43653,210.93086c0,0 -2.38284,1.55187 -3.22615,1.46377c-0.63812,-0.06667 -1.46951,-1.1585 -2.00449,-1.9701c-0.32234,-0.48902 -0.55342,-0.58603 -0.61147,-0.15933c-0.12733,0.93581 -0.31823,2.52782 -1.11444,3.15301c-1.20887,0.94921 -6.97012,0.31073 -7.286,0.45007c-3.44544,1.5199 -7.3625,2.97426 -10.62565,3.47012c-1.0431,0.15851 -2.46458,-1.5188 -2.46458,-1.5188c0,0 -3.66397,1.40371 -5.85437,-1.63326c-0.80668,-1.11845 -1.17606,-3.61198 -1.23924,-4.65492c-0.00803,-0.13245 -0.09419,-0.36737 -0.00802,-0.5478c0.10519,-0.22028 1.90801,-2.03821 2.6773,-2.10809c4.44933,-0.40417 29.66226,-0.29206 29.66226,-0.29206c0,0 1.61984,0.71151 1.82959,1.42748c0.25653,0.87565 0.26524,2.91992 0.26524,2.91992z" fill="none" stroke="#000000" stroke-width="1" stroke-linecap="round"/><path d="M214.55062,200.31569l0.61539,-3.79487l9.12821,-2.25641l1.97306,4.29813c0,0 1.2416,-1.35972 2.96496,-2.00159c1.32804,-0.49462 3.15044,0.97866 3.62452,1.20893c1.27221,0.61793 2.20669,1.7253 2.20669,1.7253l1.77991,7.17949c0,0 -1.72167,1.78611 -3.63502,2.20274c-2.65957,0.57912 -10.56023,0.94795 -10.56023,0.94795c0,0 -2.47585,1.93389 -5.9126,2.77263c-3.10767,0.75842 -7.11953,0.47178 -8.65475,-0.24516c-0.45383,-0.21193 -1.96413,-1.18658 -2.55081,-2.44496c-0.76821,-1.64774 -1.01409,-3.78196 0.1446,-5.32731c1.05145,-1.40232 3.12628,-1.28908 5.09683,-1.97618c2.31042,-0.80561 3.77926,-2.28868 3.77926,-2.28868z" fill="#f27056" stroke="#000000" stroke-width="0" stroke-linecap="round"/><path d="M214.55062,200.31569l0.61539,-3.79487l9.12821,-2.25641l0.52515,1.14398c-0.21229,0.94728 -0.43449,3.45915 -0.43449,3.77726c0,0.69036 0.55965,1.25 1.25,1.25c0.65287,0 0.81891,-1.21481 0.82142,-1.25c0.02215,-0.31008 0.58335,-0.83859 0.74433,-1.45979c0.51823,-0.40309 1.22172,-0.86327 2.03161,-1.16491c1.32804,-0.49462 3.15044,0.97866 3.62452,1.20893c0.46722,0.22694 0.88889,0.51988 1.23545,0.79975c-1.55191,0.97604 -2.87155,3.23627 -4.34702,3.92193c-1.74905,0.8128 -3.65663,0.39984 -5.48096,1.09979c-1.61091,0.61807 -6.03709,3.833 -8.64219,6.35695c-0.83742,0.34883 -1.44441,1.13999 -1.5292,2.08171c-0.01901,0.0793 -0.02907,0.1551 -0.02963,0.22707c-0.00084,0.10856 0.0126,0.21126 0.03835,0.30889c0.01747,0.14173 0.18385,0.27978 0.22401,0.41314c-2.47819,0.20837 -5.0909,-0.08741 -6.24481,-0.62628c-0.45383,-0.21193 -1.96413,-1.18658 -2.55081,-2.44496c-0.76821,-1.64774 -1.01409,-3.78196 0.1446,-5.32731c1.05145,-1.40232 3.12628,-1.28908 5.09683,-1.97618c2.31042,-0.80561 3.77926,-2.28868 3.77926,-2.28868z" fill="#f79d58" stroke="#000000" stroke-width="0" stroke-linecap="round"/><path d="M226.06344,199.36423c0,0 2.75362,-2.96429 4.03571,-2.96429c1.28209,0 3.96429,2.25 3.96429,2.25c0,0 -1.96791,2.60714 -3.25,2.60714c-1.15461,0 -4.75,-1.89285 -4.75,-1.89285z" fill="#000000" stroke="none" stroke-width="0.5" stroke-linecap="butt"/><path d="M214.55062,200.31569l0.61538,-3.79487l9.12821,-2.25641l1.97305,4.29812c0,0 1.24161,-1.35972 2.96497,-2.00158c1.32803,-0.49462 3.15044,0.97866 3.62452,1.20893c1.27221,0.61793 2.20669,1.7253 2.20669,1.7253l1.7799,7.17949c0,0 -1.72167,1.78612 -3.63501,2.20275c-2.65957,0.57912 -10.56024,0.94795 -10.56024,0.94795c0,0 -2.47585,1.93389 -5.9126,2.77262c-3.10767,0.75842 -7.11953,0.47178 -8.65475,-0.24515c-0.45383,-0.21194 -1.96412,-1.18658 -2.55081,-2.44496c-0.76821,-1.64774 -1.01409,-3.78196 0.1446,-5.32731c1.05144,-1.40232 3.12628,-1.28908 5.09682,-1.97618c2.31042,-0.8056 3.77926,-2.28868 3.77926,-2.28868z" fill="none" stroke="#000000" stroke-width="1" stroke-linecap="round"/><path d="M221.99277,201.30196c-0.12621,0.87821 -1.29342,1.35722 -3.06596,1.61292c0.68482,0.40756 1.18157,0.74011 1.18157,0.95413c0,0.66506 -2.47803,0.83807 -5.02232,0.8283c0.96959,1.23472 2.17971,2.61519 0.62748,2.61519c-0.54558,0 -2.08013,-1.28019 -2.92037,-2.66695c-1.06493,-0.04195 -1.99226,-0.10183 -2.5597,-0.15111c-0.06617,0.0191 -0.1361,0.02934 -0.20842,0.02934c-0.1356,0 -0.26279,-0.03599 -0.37256,-0.09893c-0.22552,-0.12933 -0.37744,-0.37246 -0.37744,-0.65107c0,-0.3862 0.2919,-0.70422 0.66712,-0.74547c0.52304,-0.36552 1.17933,-0.47106 1.89524,-0.45146c-0.1632,-0.60498 -0.68509,-1.08001 -0.35462,-1.26884c0.42543,-0.2431 1.20003,-0.2756 2.13842,-0.24049c-0.74581,-0.74802 -1.49359,-1.73662 -0.86851,-2.33205c0.33684,-0.32086 1.59157,-0.68368 3.06231,-1.00616c0.29091,-0.16426 0.76805,-0.25939 1.33229,-0.2713c2.1021,-0.39899 4.2231,-0.67739 4.56763,-0.6247c0.39495,0.06039 0.75,0.16659 0.75,0.75c0,0.60096 -0.51993,0.99518 -1.28005,1.25237c0.60783,0.59755 0.96001,1.40787 0.8079,2.4663zM220.07601,200.82155c0.34602,-0.14426 -0.4831,-0.59613 -0.59642,-0.95347c-0.07844,-0.24738 -0.23301,-0.46348 -0.42963,-0.64314c-1.66201,0.14292 -3.37472,0.04453 -3.71032,0.06073c-0.23669,0.01143 -0.92691,0.23863 -0.92525,0.30523c0.01305,0.52411 0.51392,1.069 1.19848,1.59177c1.59584,0.09293 3.28677,0.12932 4.46314,-0.36112zM214.25749,202.90573c-0.40419,-0.19235 -0.76074,-0.37098 -0.72804,-0.12847c0.24306,0.04191 0.48653,0.08618 0.72804,0.12847z" fill="#efdee9" stroke="none" stroke-width="0.5" stroke-linecap="butt"/><path d="M221.99278,201.30196c-0.12622,0.87821 -1.29342,1.35722 -3.06596,1.61292c0.68482,0.40756 1.18156,0.7401 1.18156,0.95413c0,0.66506 -2.47803,0.83808 -5.02232,0.8283c0.96959,1.23471 2.17971,2.61519 0.62747,2.61519c-0.54559,0 -2.08012,-1.28018 -2.92037,-2.66695c-1.06493,-0.04195 -1.99226,-0.10183 -2.5597,-0.15112c-0.06617,0.0191 -0.13609,0.02934 -0.20841,0.02934c-0.1356,0 -0.2628,-0.03598 -0.37256,-0.09893c-0.22552,-0.12932 -0.37744,-0.37246 -0.37744,-0.65107c0,-0.3862 0.2919,-0.70423 0.66711,-0.74547c0.52305,-0.36552 1.17934,-0.47106 1.89524,-0.45146c-0.1632,-0.60498 -0.68509,-1.08 -0.35462,-1.26884c0.42543,-0.2431 1.20003,-0.2756 2.13842,-0.24049c-0.74581,-0.74802 -1.49359,-1.73663 -0.86851,-2.33205c0.33684,-0.32086 1.59158,-0.68367 3.06231,-1.00616c0.29091,-0.16426 0.76805,-0.25939 1.33228,-0.2713c2.10209,-0.39898 4.2231,-0.67739 4.56763,-0.62471c0.39496,0.0604 0.75,0.16659 0.75,0.75c0,0.60096 -0.51993,0.99518 -1.28004,1.25237c0.60783,0.59755 0.96001,1.40787 0.8079,2.4663zM220.07602,200.82155c0.34602,-0.14425 -0.48311,-0.59613 -0.59642,-0.95348c-0.07845,-0.24737 -0.233,-0.46348 -0.42963,-0.64313c-1.66201,0.14292 -3.37472,0.04452 -3.71032,0.06072c-0.23669,0.01142 -0.92692,0.23863 -0.92525,0.30523c0.01304,0.52411 0.51392,1.069 1.19848,1.59177c1.59584,0.09294 3.28677,0.12932 4.46315,-0.36112zM214.2575,202.90573c-0.40419,-0.19234 -0.76074,-0.37098 -0.72804,-0.12847c0.24307,0.04191 0.48654,0.08618 0.72804,0.12847z" fill="none" stroke="#000000" stroke-width="1" stroke-linecap="butt"/></g><g><g stroke="#000000"><path d="M238.28129,205.88039c0,0 1.28319,-1.68619 11.6207,-1.21113c10.08872,0.46363 17.03584,2.25009 17.03584,2.25009l0.30728,6.7013c0,0 -1.37853,1.51311 -2.1519,2.16535c-0.63742,0.53758 -2.15979,1.47102 -2.15979,1.47102l-1.24676,-0.98702l-0.62337,2.02598c0,0 -4.02908,1.95244 -6.2997,2.31968c-2.98677,0.48307 -6.94706,0.32967 -6.94706,0.32967l-1.35065,-1.55844l-0.98701,1.4026c0,0 -7.0457,-1.28854 -8.11763,-6.01985c-1.06614,-4.70571 0.92006,-8.88924 0.92006,-8.88924z" fill="#f38285" stroke-width="0" stroke-linecap="round"/><path d="M266.93782,206.91935l0.30728,6.7013c0,0 -1.37853,1.51311 -2.1519,2.16535c-0.63742,0.53758 -2.15979,1.47102 -2.15979,1.47102l-1.24676,-0.98702l-0.62337,2.02598c0,0 -4.02908,1.95244 -6.2997,2.31968c-1.14498,0.18518 -2.43301,0.27684 -3.58616,0.31945c4.47623,-2.95709 8.67112,-4.33279 9.32399,-10.57623c0.1423,-1.36082 -0.35925,-3.34162 -0.98057,-4.78476c4.42361,0.63946 7.41698,1.34525 7.41698,1.34525z" fill="#e96698" stroke-width="0" stroke-linecap="butt"/><path d="M238.28129,205.88039c0,0 1.28319,-1.68619 11.6207,-1.21113c10.08872,0.46363 17.03584,2.25009 17.03584,2.25009l0.30728,6.7013c0,0 -1.37853,1.51311 -2.1519,2.16535c-0.63742,0.53758 -2.15979,1.47102 -2.15979,1.47102l-1.24676,-0.98702l-0.62337,2.02598c0,0 -4.02908,1.95244 -6.2997,2.31968c-2.98677,0.48307 -6.94706,0.32967 -6.94706,0.32967l-1.35065,-1.55844l-0.98701,1.4026c0,0 -7.0457,-1.28854 -8.11763,-6.01985c-1.06614,-4.70571 0.92006,-8.88924 0.92006,-8.88924z" fill="none" stroke-width="1" stroke-linecap="round"/></g><path d="M239.6561,201.59832c0,0 -0.16113,-1.39132 0.83177,-2.4497c0.83775,-0.89299 2.76154,-1.45452 3.62241,-1.69853c2.38877,-0.67707 5.54691,-0.99258 7.61229,-0.93073c1.04307,0.03123 1.7958,1.00507 2.22024,1.74876c0.26481,0.464 1.47051,-1.05415 2.4616,-1.18214c0.51031,-0.06591 1.241,1.39616 1.29032,1.60632c0.27224,1.16 0.08337,3.6929 0.08337,3.6929c0,0 0.55816,0.68997 1.86673,1.27423c1.03935,0.46406 2.76995,0.7404 3.51636,1.41464c1.50659,1.3609 2.50982,4.21388 2.28552,5.17225c-0.24267,1.03685 -3.82514,4.09279 -8.75105,5.69858c-4.94282,1.6113 -11.0967,1.76786 -14.05848,0.12839c-4.16169,-2.30368 -2.13581,-5.63074 -3.87451,-8.31564c-1.08094,-1.66919 -3.04849,-3.6801 -3.23692,-6.10256c-0.17057,-2.19284 1.96643,-1.49939 1.96643,-1.49939l2.16393,1.44263z" fill="#000000" stroke="#000000" stroke-width="0" stroke-linecap="round"/><path d="M240.48787,199.14864c0.83775,-0.893 2.76153,-1.45453 3.62241,-1.69853c2.38877,-0.67707 5.54691,-0.99258 7.61229,-0.93073c1.04307,0.03123 1.7958,1.00507 2.22024,1.74876c0.12484,0.21875 0.32768,0.06251 0.74971,-0.2465c0.24134,1.38489 1.88327,3.38885 2.31575,3.8773c0.27689,0.31272 0.59618,0.53046 0.94266,0.66744c0.25423,0.24382 0.79832,0.6932 1.69391,1.09308c1.03934,0.46406 2.76994,0.7404 3.51636,1.41464c1.50659,1.3609 2.50982,4.21388 2.28552,5.17225c-0.24267,1.03686 -3.82514,4.0928 -8.75105,5.69858c-4.94281,1.61129 -11.09669,1.76786 -14.05848,0.12839c-4.1617,-2.30368 -2.13581,-5.63074 -3.87451,-8.31564c-0.39041,-0.60287 -1.14674,-1.25031 -1.43728,-1.94562c1.44896,-0.35535 2.59166,-1.1564 3.21337,-1.91535c1.02413,-1.2502 0.19539,-2.73538 -0.61399,-3.8863c0.12523,-0.28958 0.30525,-0.5869 0.56311,-0.86176z" fill="#f27056" stroke="#000000" stroke-width="0" stroke-linecap="round"/><path d="M240.48787,199.14864c0.83775,-0.893 2.76153,-1.45453 3.62241,-1.69853c1.93411,-0.5482 4.3726,-0.85938 6.32706,-0.92514c-0.81693,1.80489 0.24119,5.20341 1.08769,7.30698c0.42385,1.05329 2.98677,1.46263 4.9174,2.2612c1.73506,0.71768 3.56565,1.87585 3.52886,1.96104c-2.24437,5.19674 -10.20055,4.35496 -12.98106,7.14551c-0.54778,0.44603 -0.90301,1.11946 -0.92179,1.8764c-1.35367,-0.17705 -2.53773,-0.50819 -3.43126,-1.00279c-4.1617,-2.30368 -2.13581,-5.63074 -3.87451,-8.31564c-0.39041,-0.60287 -1.14674,-1.25031 -1.43728,-1.94562c1.44896,-0.35535 2.59166,-1.1564 3.21337,-1.91535c1.02413,-1.2502 0.19539,-2.73538 -0.61399,-3.8863c0.12523,-0.28958 0.30525,-0.5869 0.56311,-0.86176z" fill="#f79d58" stroke="#000000" stroke-width="0" stroke-linecap="butt"/><path d="M239.6561,201.59832c0,0 -0.16113,-1.39132 0.83177,-2.4497c0.83775,-0.89299 2.76154,-1.45452 3.62241,-1.69853c2.38877,-0.67707 5.54691,-0.99258 7.61229,-0.93073c1.04307,0.03123 1.7958,1.00507 2.22024,1.74876c0.26481,0.464 1.47051,-1.05415 2.4616,-1.18214c0.51031,-0.06591 1.241,1.39616 1.29032,1.60632c0.27224,1.16 0.08337,3.6929 0.08337,3.6929c0,0 0.55816,0.68997 1.86673,1.27423c1.03935,0.46406 2.76995,0.7404 3.51636,1.41464c1.50659,1.3609 2.50982,4.21388 2.28552,5.17225c-0.24267,1.03685 -3.82514,4.09279 -8.75105,5.69858c-4.94282,1.6113 -11.0967,1.76786 -14.05848,0.12839c-4.16169,-2.30368 -2.13581,-5.63074 -3.87451,-8.31564c-1.08094,-1.66919 -3.04849,-3.6801 -3.23692,-6.10256c-0.17057,-2.19284 1.96643,-1.49939 1.96643,-1.49939l2.16393,1.44263z" fill="none" stroke="#000000" stroke-width="1" stroke-linecap="round"/><g stroke-linecap="butt"><path d="M251.16875,199.88265c0.33541,0.67082 -0.33541,1.00623 -0.33541,1.00623l-0.28805,0.14305c0.5596,0.02759 1.12093,0.04773 1.68439,0.04974l0.74487,0.13696c0.11233,0.00088 0.23865,0.03169 0.37833,0.10851c0.01207,0.00664 0.0238,0.01338 0.0352,0.02022c0.10958,0.0623 0.22778,0.1599 0.29716,0.30922c0.07127,0.14842 0.6198,0.30171 0.59833,0.42592c-0.00196,0.01314 -0.0042,0.02648 -0.00674,0.04002c-0.03069,0.16366 -0.09089,0.28417 -0.166,0.37263c-0.53966,0.9156 -1.17733,1.59747 -1.87592,2.14471c0.44693,0.02105 0.89431,0.04362 1.34243,0.06754c0.13178,-0.02352 0.28547,-0.00723 0.4564,0.08619c0.12846,0.05748 0.26734,0.15699 0.34667,0.3288c0.08984,0.16654 0.08613,0.33736 0.05503,0.47461c-0.03493,0.24208 0.26033,0.38946 0.12809,0.47906l-0.30906,0.36081c-0.31457,0.16901 -0.62234,0.3469 -0.92498,0.53136c0.77796,-0.05489 1.54567,-0.12761 2.29457,-0.22164l0.71423,-0.10215c0,0 0.74247,-0.10607 0.84853,0.63639c0.10607,0.74246 -0.36229,0.84852 -0.36229,0.84852l-0.74031,0.10564c-1.57037,0.19547 -3.22415,0.30171 -4.88359,0.34753c-1.49498,1.05791 -2.97474,2.12269 -4.67506,2.86811c0,0 -0.68712,0.30062 -0.98773,-0.3865c-0.30061,-0.68712 0.3865,-0.98773 0.3865,-0.98773c0.93212,-0.4069 1.79954,-0.91534 2.64092,-1.46765c-0.89839,-0.00556 -1.78614,-0.02461 -2.65055,-0.05242c-0.14683,0.02838 -0.31942,0.01288 -0.49728,-0.10792c-0.12738,-0.06797 -0.25404,-0.18034 -0.3171,-0.36598c-0.08077,-0.17865 -0.06503,-0.34724 -0.01845,-0.4839c0.04904,-0.21714 -0.10306,-0.34798 0.02878,-0.42678l0.07122,-0.06763c0.60063,-0.45947 1.11109,-0.81898 1.77463,-1.13797c-0.58706,-0.00733 -1.17552,-0.01108 -1.7661,-0.01108h-0.31777c-0.15437,0.02898 -0.33995,0.01536 -0.51934,-0.11905c-0.12448,-0.07349 -0.51611,-0.19234 -0.57069,-0.38456c-0.07493,-0.18524 -0.05513,-0.35121 -0.00199,-0.48564c0.05899,-0.21587 0.19676,-0.34051 0.33617,-0.41246c0.92758,-0.72615 1.77093,-1.47722 2.6271,-2.20645c-1.03601,0.01313 -2.06888,0.10702 -3.10023,0.36499c0,0 -0.72761,0.1819 -0.90951,-0.5457c-0.1819,-0.7276 -0.00252,-0.90951 -0.00252,-0.90951c1.75599,-0.43876 3.51009,-0.44594 5.27539,-0.36457c0.53455,-0.39376 1.09593,-0.76931 1.70324,-1.11745l0.45228,-0.22743c0,0 0.67082,-0.33541 1.00623,0.33541zM249.79329,204.54066c0.92134,-0.48705 1.77566,-1.08314 2.47019,-1.96694c-1.0901,-0.01292 -2.17375,-0.09694 -3.25275,-0.15936c-0.84801,0.65233 -1.63025,1.34934 -2.44237,2.05101c1.07822,0.01331 2.15184,0.03912 3.22493,0.07529zM248.00617,207.10743c0.81395,0.00817 1.63768,0.00551 2.4615,-0.01196c0.4745,-0.33625 0.95159,-0.6703 1.4386,-0.99122c-0.54518,-0.02411 -1.08985,-0.04547 -1.63462,-0.06395c-0.74611,0.35444 -1.51184,0.68189 -2.26548,1.06713z" fill="#efdee9" stroke="none" stroke-width="0.5"/><path d="M251.16875,199.88265c0.33541,0.67082 -0.33541,1.00623 -0.33541,1.00623l-0.28805,0.14305c0.5596,0.02759 1.12093,0.04773 1.68439,0.04974l0.74487,0.13696c0.11233,0.00088 0.23865,0.03169 0.37833,0.10851c0.01207,0.00664 0.0238,0.01338 0.0352,0.02022c0.10958,0.0623 0.22778,0.1599 0.29716,0.30922c0.07127,0.14842 0.6198,0.30171 0.59833,0.42592c-0.00196,0.01314 -0.0042,0.02648 -0.00674,0.04002c-0.03069,0.16366 -0.09089,0.28417 -0.166,0.37263c-0.53966,0.9156 -1.17733,1.59747 -1.87592,2.14471c0.44693,0.02105 0.89431,0.04362 1.34243,0.06754c0.13178,-0.02352 0.28547,-0.00723 0.4564,0.08619c0.12846,0.05748 0.26734,0.15699 0.34667,0.3288c0.08984,0.16654 0.08613,0.33736 0.05503,0.47461c-0.03493,0.24208 0.26033,0.38946 0.12809,0.47906l-0.30906,0.36081c-0.31457,0.16901 -0.62234,0.3469 -0.92498,0.53136c0.77796,-0.05489 1.54567,-0.12761 2.29457,-0.22164l0.71423,-0.10215c0,0 0.74247,-0.10607 0.84853,0.63639c0.10607,0.74246 -0.36229,0.84852 -0.36229,0.84852l-0.74031,0.10564c-1.57037,0.19547 -3.22415,0.30171 -4.88359,0.34753c-1.49498,1.05791 -2.97474,2.12269 -4.67506,2.86811c0,0 -0.68712,0.30062 -0.98773,-0.3865c-0.30061,-0.68712 0.3865,-0.98773 0.3865,-0.98773c0.93212,-0.4069 1.79954,-0.91534 2.64092,-1.46765c-0.89839,-0.00556 -1.78614,-0.02461 -2.65055,-0.05242c-0.14683,0.02838 -0.31942,0.01288 -0.49728,-0.10792c-0.12738,-0.06797 -0.25404,-0.18034 -0.3171,-0.36598c-0.08077,-0.17865 -0.06503,-0.34724 -0.01845,-0.4839c0.04904,-0.21714 -0.10306,-0.34798 0.02878,-0.42678l0.07122,-0.06763c0.60063,-0.45947 1.11109,-0.81898 1.77463,-1.13797c-0.58706,-0.00733 -1.17552,-0.01108 -1.7661,-0.01108h-0.31777c-0.15437,0.02898 -0.33995,0.01536 -0.51934,-0.11905c-0.12448,-0.07349 -0.51611,-0.19234 -0.57069,-0.38456c-0.07493,-0.18524 -0.05513,-0.35121 -0.00199,-0.48564c0.05899,-0.21587 0.19676,-0.34051 0.33617,-0.41246c0.92758,-0.72615 1.77093,-1.47722 2.6271,-2.20645c-1.03601,0.01313 -2.06888,0.10702 -3.10023,0.36499c0,0 -0.72761,0.1819 -0.90951,-0.5457c-0.1819,-0.7276 -0.00252,-0.90951 -0.00252,-0.90951c1.75599,-0.43876 3.51009,-0.44594 5.27539,-0.36457c0.53455,-0.39376 1.09593,-0.76931 1.70324,-1.11745l0.45228,-0.22743c0,0 0.67082,-0.33541 1.00623,0.33541zM249.79329,204.54066c0.92134,-0.48705 1.77566,-1.08314 2.47019,-1.96694c-1.0901,-0.01292 -2.17375,-0.09694 -3.25275,-0.15936c-0.84801,0.65233 -1.63025,1.34934 -2.44237,2.05101c1.07822,0.01331 2.15184,0.03912 3.22493,0.07529zM248.00617,207.10743c0.81395,0.00817 1.63768,0.00551 2.4615,-0.01196c0.4745,-0.33625 0.95159,-0.6703 1.4386,-0.99122c-0.54518,-0.02411 -1.08985,-0.04547 -1.63462,-0.06395c-0.74611,0.35444 -1.51184,0.68189 -2.26548,1.06713z" fill="none" stroke="#000000" stroke-width="1"/></g></g><path d="M225.84581,185.38459l6.27134,-4.83117l-1.53523,-5.81818c0,0 6.76544,-2.59679 8.81376,-3.27347c0.98881,-0.32666 2.82261,-0.57069 2.82261,-0.57069c0,0 4.65328,1.37707 7.9239,4.74913c2.43302,2.50849 4.78528,6.9441 5.30877,8.80674c0.25094,0.89288 -0.31502,3.18066 -0.75852,4.99336c-0.35143,1.43636 0.07154,2.40044 -0.56183,3.36214c-1.46874,2.23015 -3.21709,2.03667 -3.21709,2.03667c0,0 -1.43077,0.13353 -2.04456,-0.037c-0.79784,-0.22166 -2.6109,-1.18029 -2.6109,-1.18029c0,0 -13.91649,-1.26786 -16.84778,-2.39815c-3.35867,-1.29508 -3.56446,-5.83911 -3.56446,-5.83911z" fill="none" stroke="#000000" stroke-width="1" stroke-linecap="round"/><path d="M254.27577,192.50146l0.8168,-4.36363l2.49351,2.18182l-1.85576,3.01299z" fill="#feecf7" stroke="#000000" stroke-width="1" stroke-linecap="round"/><path d="M237.19368,177.38459l0.48191,5.55845c0,0 -3.43812,1.97602 -4.40127,2.50219c-0.43072,0.2353 -0.95228,0.85055 -0.96912,1.18174c-0.04803,0.94468 -0.00346,5.45892 -0.00346,5.45892" fill="none" stroke="#000000" stroke-width="1" stroke-linecap="round"/><path d="M244.53273,180.76121c0,0 1.39103,2.20529 1.75987,2.79003c0.16912,0.26812 0.30243,0.80057 0.22711,1.03908c-0.28452,0.90098 -1.76482,6.4566 -1.76482,6.4566" fill="none" stroke="#000000" stroke-width="1" stroke-linecap="round"/><path d="M229.79385,187.56639l2.4935,3.37662l2.96104,-1.4026l3.06494,2.28571l3.58441,-3.06493l1.81818,2.02598l1.4026,-1.76623l1.15723,4.10389l-1.80381,2.02598l-3.06493,-0.88312l-2.28572,2.49351l-3.37662,-2.5974l-4,2.07792l-2.97541,-2.38961l-1.95966,0.72727c0,0 -1.56396,-2.11276 -2.47777,-2.74917c-1.01494,-0.70684 -3.88863,-1.30277 -3.88863,-1.30277c0,0 1.39404,-1.41642 1.44838,-2.2237c0.06497,-0.96521 -1.35885,-3.1789 -1.35885,-3.1789l3.65073,0.31169l1.33628,-1.1948l1.15723,4z" fill="#feecf7" stroke="#000000" stroke-width="1" stroke-linecap="round"/><g stroke="#000000" stroke-width="1" stroke-linecap="round"><path d="M228.94832,181.69628l-0.91186,-6.96104l13.66234,-1.76623l3.06493,-3.74026l3.79221,2.85715l6.07792,-2.59741l0.01437,8.31169l-3.06494,-0.41558l-2.89472,2.44156l-3.1832,-1.81818l-3.36226,3.58441l-1.36501,-2.5974l-2.99862,2.90909l-2.33766,-2.23377l-1.76623,2.07792l-2.23377,-1.76623z" fill="#feecf7"/><path d="M240.71179,174.31965l0.77922,-0.93507" fill="none"/></g><g stroke="#000000" stroke-linecap="round"><path d="M244.78364,195.1508l1.18044,-1.97402c0,0 1.98981,1.92411 4.5874,1.83733c3.55994,-0.11893 4.08792,-2.5646 4.08792,-2.5646c0,0 2.78886,2.35673 2.27605,3.67003c-0.3863,0.98933 -3.347,6.92418 -5.61101,7.04926c-2.10408,0.02195 -6.10522,-5.99201 -6.10522,-5.99201z" fill="#4ea5eb" stroke-width="0"/><path d="M245.96407,193.1768c0,0 1.98981,1.92411 4.5874,1.83733c3.55994,-0.11893 4.08792,-2.5646 4.08792,-2.5646c0,0 2.78886,2.35672 2.27605,3.67003c-0.34614,0.88644 -2.65093,5.74323 -4.86917,6.83382c0.14606,-0.60192 0.11966,-5.31229 0.11966,-5.31229c0,0 -3.3163,-1.57255 -4.5584,-2.44406c-0.53925,-0.37836 -1.2394,-1.19763 -1.69098,-1.95575z" fill="#2e67e5" stroke-width="0"/><path d="M244.78363,195.15082l1.18044,-1.97402c0,0 1.98981,1.92411 4.5874,1.83733c3.55994,-0.11893 4.08792,-2.5646 4.08792,-2.5646c0,0 2.78886,2.35672 2.27605,3.67003c-0.38631,0.98933 -3.347,6.92418 -5.61101,7.04926c-2.10408,0.02195 -6.10521,-5.99201 -6.10521,-5.99201" fill="none" stroke-width="1"/></g></g><path d="M192.06803,227.93197v-95.86394h95.86394v95.86394z" fill="none" stroke="none" stroke-width="0" stroke-linecap="butt"/><g stroke="#000000"><g stroke-linecap="butt"><path d="M260.76815,171.19156l0.87688,-2.17214c0,0 9.11429,0.33652 10.99848,1.63073c1.32273,0.90856 0.75425,5.13308 -1.90642,5.31299c-3.54324,0.23959 -9.96893,-4.77158 -9.96893,-4.77158z" fill="#0066cd" stroke-width="0"/><path d="M260.76816,171.19156l0.31122,-0.77092c0,0 2.00896,0.46071 3.9723,1.10167c1.51747,0.49541 2.81348,1.11651 4.34966,1.60308c1.82703,0.5787 3.60609,0.99339 3.57236,1.07192c-0.40012,0.93182 -1.14098,1.69175 -2.23662,1.76585c-3.54324,0.2396 -9.96894,-4.77159 -9.96894,-4.77159z" fill="#061483" stroke-width="0"/><path d="M260.76816,171.19156l0.87688,-2.17214c0,0 9.11429,0.33653 10.99848,1.63074c1.32274,0.90856 0.75425,5.13308 -1.90642,5.31299c-3.54324,0.2396 -9.96894,-4.77159 -9.96894,-4.77159z" fill="none" stroke-width="1"/></g><g stroke-linecap="round"><path d="M221.09927,170.44649c0,0 -6.07715,-25.4068 16.60348,-23.0609c23.25537,2.40534 17.34616,22.55156 17.34616,22.55156c0,0 6.52314,-4.40346 7.38227,-3.77763c0.72516,0.52825 -0.9674,5.37513 -1.93794,7.20122c-0.71717,1.34936 -1.80217,4.30533 -3.19287,4.36888c-0.87532,0.03998 -4.20873,-3.09034 -4.20873,-3.09034c0,0 -7.78397,3.5307 -14.69545,4.30269c-6.82498,0.76232 -16.34496,-1.09708 -16.34496,-1.09708c0,0 -7.07174,-1.42166 -7.03842,-3.89319c0.02839,-2.10595 6.08646,-3.50521 6.08646,-3.50521z" fill="#fde0be" stroke-width="0"/><path d="M248.80809,176.33458c-0.03526,0.01258 -1.09983,-2.20095 -1.09983,-2.20095l-3.41321,2.27238l-4.20135,-7.64399l-7.20932,3.69203l-0.37819,-6.5868c0,0 -11.78968,2.4534 -11.79409,2.42254c-0.86865,-6.08541 -1.61033,-22.82813 16.99063,-20.9042c23.25537,2.40534 17.34616,22.55156 17.34616,22.55156c0,0 4.83672,4.67095 4.76142,4.82652c-0.66186,1.36773 -1.5063,2.9201 -2.50996,2.96595c-0.87532,0.03998 -4.20873,-3.09034 -4.20873,-3.09034c0,0 -1.73025,0.78481 -4.28354,1.69532z" fill="#fc988a" stroke-width="0"/><path d="M255.31164,171.44691l3.18815,-1.1343l-1.59556,4.85269z" fill="#f79587" stroke-width="0.5"/><path d="M237.70273,147.38559c23.25537,2.40534 17.34616,22.55156 17.34616,22.55156c0,0 6.52314,-4.40346 7.38227,-3.77763c0.72516,0.52825 -0.9674,5.37513 -1.93794,7.20122c-0.71717,1.34936 -1.80217,4.30533 -3.19287,4.36888c-0.87532,0.03998 -4.20873,-3.09034 -4.20873,-3.09034c0,0 -7.78397,3.5307 -14.69545,4.30269c-6.82498,0.76232 -16.34496,-1.09708 -16.34496,-1.09708c0,0 -7.07174,-1.42166 -7.03842,-3.89319c0.02839,-2.10595 6.08646,-3.50521 6.08646,-3.50521c0,0 -6.07714,-25.40678 16.60349,-23.06089z" fill="none" stroke-width="1"/></g><g stroke-linecap="round"><path d="M261.81239,163.2812c0,0 -2.16135,3.24567 -3.3888,4.54122c-1.05993,1.11873 -3.54732,2.77971 -3.54732,2.77971c0,0 -10.32529,-5.97859 -17.69402,-7.48734c-7.52664,-1.54111 -17.42206,-1.57427 -17.42206,-1.57427c0,0 -2.09308,-18.11508 1.72987,-20.47443c2.78369,-1.71797 10.47889,-2.91324 17.76546,-1.70505c3.32101,0.55066 12.80447,2.22563 15.64421,5.54857c3.806,4.45362 6.91266,18.37157 6.91266,18.37157z" fill="#ff292e" stroke-width="0"/><path d="M261.81239,163.2812c0,0 -2.16135,3.24568 -3.3888,4.54122c-1.05993,1.11873 -3.54731,2.77971 -3.54731,2.77971c0,0 -5.00027,-2.89526 -10.52476,-5.16465c-0.14461,-0.0594 3.59277,-13.8447 7.00622,-19.11428c1.13033,-1.74496 2.83558,-2.24023 3.542,-1.41359c3.80599,4.45363 6.91266,18.37158 6.91266,18.37158z" fill="#ac0e49" stroke-width="0.5"/><path d="M258.42359,167.82242c-1.05993,1.11873 -3.54731,2.77971 -3.54731,2.77971c0,0 -10.32529,-5.97859 -17.69403,-7.48733c-7.52664,-1.54111 -17.42205,-1.57426 -17.42205,-1.57426c0,0 -2.09308,-18.11509 1.72987,-20.47443c2.7837,-1.71797 10.47889,-2.91324 17.76546,-1.70505c3.32101,0.55066 12.80447,2.22562 15.64419,5.54855c3.80599,4.45363 6.91266,18.37158 6.91266,18.37158c0,0 -2.16135,3.24567 -3.38879,4.54121z" fill="none" stroke-width="1"/></g><g stroke-linecap="round"><path d="M220.08853,167.26734c0,0 -3.913,0.64235 -5.71807,1.16833c-1.83272,0.53402 -5.19657,2.01205 -5.19657,2.01205c0,0 1.89961,-3.72674 3.10156,-5.37841c1.14148,-1.56857 3.93812,-4.2952 3.93812,-4.2952l-9.55963,-0.07496c0,0 9.75531,-11.97965 13.45426,-13.24784c2.20608,-0.75636 9.76366,4.87644 9.76366,4.87644c0,0 1.4664,-2.58049 2.43707,-3.76132c0.8839,-1.07527 3.15101,-3.03668 3.15101,-3.03668c0,0 1.05437,6.22769 1.86659,9.26552c0.84615,3.16469 3.11273,9.35764 3.11273,9.35764l14.22098,6.00434l-1.84509,6.57364l-5.23421,-6.5922l-2.84682,3.27093l-4.29486,-9.25668l-5.23958,3.71781l-0.74321,-5.14722c0,0 -11.16941,1.77061 -13.71718,2.79429c-0.6945,0.27904 -0.65072,1.74954 -0.65072,1.74954z" fill="#4fa6ec" stroke-width="0"/><path d="M223.89251,158.29545l-14.71863,12.15228c0,0 1.89961,-3.72674 3.10155,-5.37841c1.14147,-1.56857 3.93812,-4.2952 3.93812,-4.2952l-9.55962,-0.07496c0,0 9.7553,-11.97965 13.45426,-13.24784c2.20607,-0.75637 9.76367,4.87644 9.76367,4.87644c0,0 1.46639,-2.58049 2.43706,-3.76132c0.8839,-1.07527 3.15101,-3.03667 3.15101,-3.03667l-3.38718,11.62716c0,0 -8.66405,-5.07726 -10.88152,-4.92355c-3.48021,0.24122 -8.82957,6.84867 -8.82957,6.84867z" fill="#66ffff" stroke-width="0"/><path d="M245.17349,167.84034l-1.049,4.25541l-2.60233,-5.60879z" fill="#66ffff" stroke-width="0"/><path d="M209.17388,170.44772c0,0 1.89961,-3.72674 3.10155,-5.37841c1.14147,-1.56857 3.93812,-4.2952 3.93812,-4.2952l-9.55962,-0.07496c0,0 9.7553,-11.97965 13.45426,-13.24784c2.20607,-0.75637 9.76367,4.87644 9.76367,4.87644c0,0 1.46639,-2.58049 2.43706,-3.76132c0.8839,-1.07527 3.15101,-3.03667 3.15101,-3.03667c0,0 1.05436,6.22768 1.86658,9.26551c0.84614,3.16469 3.11273,9.35764 3.11273,9.35764l14.22098,6.00434l-1.84509,6.57364l-5.23421,-6.59219l-2.84683,3.27093l-4.29487,-9.25668l-5.23959,3.71781l-0.74321,-5.14722c0,0 -11.16941,1.77061 -13.71718,2.79429c-0.6945,0.27904 -0.65072,1.74954 -0.65072,1.74954c0,0 -3.91298,0.64235 -5.71806,1.16833c-1.80508,0.52598 -5.19657,2.01202 -5.19657,2.01202z" fill="none" stroke-width="1"/></g></g><path d="M245.15003,172.91638l0.99551,3.12872l8.10623,-3.41315l-1.43247,3.9109l2.70208,2.34654l-4.69308,-0.0711l-1.43247,1.49326l-3.68726,-1.49326l-3.99233,3.8398l-0.63996,-2.77319c0,0 1.10835,-2.96144 1.9313,-4.20218c0.69654,-1.05017 2.14246,-2.76634 2.14246,-2.76634z" fill="#feecf7" stroke="#000000" stroke-width="1" stroke-linecap="round"/><g stroke="none" stroke-width="0.5" stroke-linecap="butt"><path d="M233.28414,168.83762l0.09659,0.08249c0.95405,-0.66822 7.16542,-6.57829 10.24152,-9.13966c3.4754,-2.89387 10.90303,-6.37531 10.90303,-6.37531c0,0 -2.42378,1.54027 -5.22929,3.46134c-2.52585,1.72957 -5.23786,4.34611 -6.6199,5.82314c-0.2566,0.20087 -0.50985,0.40361 -0.76043,0.60782c-0.20037,2.30447 -1.85611,4.37203 -2.22731,6.66533c-0.11827,0.7307 -0.19797,2.17095 -0.93118,2.65065c-0.42725,0.27953 -1.34353,0.0959 -1.78349,0.04617c-1.07702,-1.43098 -1.21945,-2.64918 -1.16222,-4.17489c-0.67796,0.53901 -1.37731,1.06483 -2.11103,1.56985c-0.1339,0.11988 -0.27105,0.14627 -0.38941,0.13313c-0.12046,-0.00105 -0.25521,-0.04455 -0.37489,-0.18321l-0.24722,-0.22395c-0.77585,-0.49344 -1.56087,-1.08832 -2.31534,-1.74789c0.08427,1.5816 0.18402,3.72762 -0.29682,4.19632c-2.17642,2.1215 -3.75177,-3.28416 -3.83028,-4.45082c0.05432,-1.27284 0.11126,-2.54556 0.16732,-3.81832l0.0971,-0.4358c-0.80163,-1.37382 -2.50211,-3.76191 -3.37327,-5.67691c-1.33751,-2.94012 -1.35085,-5.35312 -1.35085,-5.35312c0,0 1.45622,3.74487 6.87218,11.31884c1.82219,2.54826 4.27684,4.80675 4.62518,5.02478z" fill="#000000"/><path d="M237.72498,176.57802c-0.06031,-0.02625 -0.12377,-0.06482 -0.17754,-0.12143c-1.23476,0.48802 -3.2169,0.72746 -4.95031,0.40458c-2.02432,-0.37708 -3.19395,-1.9078 -3.19395,-1.9078c0,0 2.51151,1.00319 5.08657,0.94087c2.03077,-0.04915 4.00863,-1.00585 5.46165,-1.95386c0.38522,-0.30531 1.93952,-1.1446 1.93952,-1.1446c0,0 0.65198,0.54223 0.63182,0.65054c1.21367,1.58034 3.78742,5.10737 1.09317,6.14539c-1.53787,0.59248 -3.38398,-1.08161 -4.66104,-1.72237c-0.51476,-0.4049 -0.84936,-0.79787 -1.2299,-1.29127zM239.55025,176.92652c0.95321,0.47134 2.53258,1.91292 3.67424,1.62109c1.42383,-0.36395 -0.63336,-3.19903 -1.55123,-4.3857c-0.38442,0.17562 -0.74042,0.41671 -1.06897,0.68238c-0.64858,0.41963 -1.29744,0.79558 -1.94838,1.11794c0.27177,0.35882 0.51899,0.67242 0.89433,0.96428z" fill="#000000"/><path d="M238.60072,175.95434c0.65094,-0.32235 1.33389,-0.74203 1.98245,-1.16165c0.32855,-0.26567 0.7173,-0.50968 1.10174,-0.68531c0.91789,1.18665 3.00088,4.11756 1.57705,4.48151c-1.14167,0.29182 -2.81094,-1.17215 -3.76414,-1.64348c-0.37533,-0.29186 -0.62531,-0.63227 -0.89709,-0.99109z" data-paper-data="{&quot;noHover&quot;:false,&quot;origItem&quot;:[&quot;Path&quot;,{&quot;applyMatrix&quot;:true,&quot;segments&quot;:[[[820.01743,447.02635],[-0.69561,-0.49336],[1.74527,0.76936]],[[826.72931,449.64121],[-2.02274,0.61303],[2.52266,-0.76454]],[[823.60349,441.90486],[1.73842,2.05393],[-0.67499,0.34504]],[[821.74184,443.21199],[0.56777,-0.50199],[-1.12905,0.80311]],[[818.33875,445.36901],[1.14098,-0.629],[0.51531,0.62153]]],&quot;closed&quot;:true}]}" fill="#ff6666"/></g><g><path d="M198.87651,186.00591c0.22792,-1.74871 1.8303,-2.98154 3.579,-2.75362c1.74871,0.22792 2.98152,1.83029 2.7536,3.579c-0.22792,1.74871 -1.83029,2.98152 -3.57898,2.7536c-1.74871,-0.22792 -2.98154,-1.83029 -2.75362,-3.57898z" fill="#3f5479" stroke="#000000" stroke-width="1" stroke-linecap="butt"/><path d="M216.61418,172.85628c4.41284,1.41256 6.62961,11.1739 3.44385,15.19483c-1.22617,1.5476 -3.3055,1.97996 -5.06706,1.4187c-0.16012,-0.05101 -1.13319,-1.1351 -1.19092,-1.09005c-0.32627,0.2547 -0.5331,1.47431 -1.49687,1.97827c-1.30185,0.68076 -3.38653,0.63948 -3.38653,0.63948c0,0 -2.42238,2.15119 -3.40615,1.58962c-5.10577,-2.91443 -5.19451,-8.49514 -3.3544,-11.61732c0.48038,-0.81509 3.21137,-1.82561 4.48137,-2.92021c1.16241,-1.00188 0.30263,-1.48969 1.26524,-1.85131c0.21828,-0.08201 0.95049,-0.37163 1.68147,-0.33173c0.80818,0.04409 1.64887,0.40449 2.54503,-0.02229c1.8676,-0.88936 2.07953,-3.758 4.48495,-2.98803z" fill="#fde0be" stroke="#000000" stroke-width="0" stroke-linecap="butt"/><path d="M210.89284,191.12823c2.23259,-6.14906 12.93173,-5.30361 11.26225,0.4619c-0.85121,2.93963 -3.22346,1.98273 -5.4127,2.3412c-0.16756,0.02743 -0.32698,0.09659 -0.4847,0.19172c-0.53617,0.97761 -1.63314,1.57677 -2.80541,1.42397c-0.21525,-0.02805 -0.42157,-0.07997 -0.61659,-0.15272c-1.05178,-0.39237 -1.77591,-1.39109 -1.80981,-2.5248c-0.34397,-0.54815 -0.19279,-1.1485 -0.11919,-1.71316z" fill="#f89688" stroke="#000000" stroke-width="1" stroke-linecap="butt"/><path d="M220.05805,188.05109c-1.22617,1.5476 -3.3055,1.97996 -5.06705,1.4187c-0.16012,-0.05101 -1.13319,-1.1351 -1.19092,-1.09005c-0.32627,0.2547 -0.5331,1.47431 -1.49687,1.97827c-1.30186,0.68075 -3.38653,0.63948 -3.38653,0.63948c0,0 -2.42238,2.15119 -3.40615,1.58962c-0.91836,-0.5242 -1.67441,-1.13469 -2.28613,-1.80159c1.11278,-1.48472 2.07957,-2.52517 2.33647,-4.49621c0.08536,-0.65489 0.55771,-2.3703 0.52981,-3.00814c0.56094,-0.243 0.47115,-0.199 1.03253,-0.502c-0.00205,0.22955 0.01725,0.458 0.05947,0.68462c0.06135,0.32936 0.16991,0.66737 0.31593,1.00012c-0.04748,1.41819 0.99008,2.66701 2.42608,2.85418c0.20181,0.02631 0.40137,0.03032 0.59624,0.01397c0.801,0.14823 1.5804,-0.18609 2.12895,-1.30109c0.07936,-0.12687 0.14892,-0.26094 0.20752,-0.40131c0.4262,0.45514 1.00691,0.77076 1.67348,0.85765c0.12743,0.01661 0.25399,0.02433 0.37902,0.02365c0.73085,-0.00399 1.40999,-0.2952 1.91286,-0.77782c1.44483,-0.8326 3.23831,-2.22615 4.72098,-3.68271c0.11872,2.30796 -0.32478,4.53542 -1.48567,6.00062z" fill="#f89688" stroke="#000000" stroke-width="0" stroke-linecap="butt"/><path d="M205.95821,182.45658l1.46417,1.31531c0,0 -0.1632,2.39597 0.11184,3.46908c0.30842,1.20336 1.34847,3.36588 1.34847,3.36588" fill="none" stroke="#000000" stroke-width="1" stroke-linecap="round"/><path d="M212.10265,180.80402l1.26314,1.2891c0,0 -0.37755,1.98461 -0.28258,3.19037c0.09749,1.23781 0.81204,3.72772 0.81204,3.72772" fill="none" stroke="#000000" stroke-width="1" stroke-linecap="round"/><path d="M216.61418,172.85628c4.41284,1.41256 6.62962,11.1739 3.44386,15.19483c-1.22617,1.5476 -3.3055,1.97996 -5.06705,1.4187c-0.16012,-0.05101 -1.13319,-1.1351 -1.19092,-1.09005c-0.32627,0.2547 -0.5331,1.47431 -1.49687,1.97827c-1.30186,0.68075 -3.38653,0.63948 -3.38653,0.63948c0,0 -2.42238,2.15119 -3.40615,1.58962c-5.10577,-2.91443 -5.19451,-8.49514 -3.3544,-11.61732c0.48039,-0.81509 3.21137,-1.82561 4.48137,-2.92021c1.16241,-1.00188 0.30263,-1.48969 1.26524,-1.85131c0.22749,-0.08547 0.79893,-0.38913 1.57365,-0.35323c0.79056,0.03663 1.79084,0.40972 2.65285,-0.00079c1.8676,-0.88935 2.07953,-3.758 4.48495,-2.98803z" fill="none" stroke="#000000" stroke-width="1" stroke-linecap="butt"/><path d="M216.92312,181.66233c0.44861,-3.44188 2.56407,-5.69709 5.14548,-5.36064c2.58142,0.33646 4.3104,3.39941 3.86179,6.8413c-0.44861,3.44188 -2.27561,5.8369 -4.85703,5.50043c-2.58142,-0.33646 -4.59885,-3.53923 -4.15024,-6.98111z" fill="#93c0c3" stroke="none" stroke-width="0" stroke-linecap="butt"/><path d="M221.07336,188.64346c-2.49156,-0.32474 -4.45771,-3.31971 -4.1882,-6.62264c3.00682,0.41881 6.00196,0.92514 9.01199,1.35876c-0.50005,3.31439 -2.30194,5.5926 -4.82379,5.2639z" fill="#475f86" stroke="none" stroke-width="0" stroke-linecap="butt"/><path d="M217.43726,179.60651c0.82288,0.20307 2.0212,0.00229 2.54336,0.05203c1.15962,0.11046 3.67967,0.64772 5.77472,0.44757c0.17629,0.67285 0.26246,1.40241 0.24325,2.16159c-2.98888,-0.43128 -5.96308,-0.93347 -8.9489,-1.34976c0.09824,-0.46478 0.2286,-0.90326 0.38757,-1.31143z" fill="#475f86" stroke="none" stroke-width="0" stroke-linecap="butt"/><path d="M216.92312,181.66233c0.44861,-3.44188 2.56407,-5.69709 5.14548,-5.36064c2.58142,0.33646 4.3104,3.39941 3.86179,6.8413c-0.44861,3.44188 -2.27561,5.8369 -4.85703,5.50043c-2.58142,-0.33646 -4.59885,-3.53923 -4.15024,-6.98111z" fill="none" stroke="#000000" stroke-width="1" stroke-linecap="butt"/><path d="M220.08276,180.94966c0.6295,-4.82974 4.72385,-8.58456 9.22049,-7.99848c4.49667,0.58609 6.75316,4.65754 6.12366,9.48728c-0.6295,4.82974 -4.78506,8.2699 -9.28171,7.68382c-4.49665,-0.58609 -6.69194,-4.34286 -6.06243,-9.17261z" fill="#3f5479" stroke="#000000" stroke-width="0" stroke-linecap="butt"/><path d="M235.42693,182.43847c-0.6295,4.82974 -4.78506,8.2699 -9.28171,7.68382c-3.81705,-0.4975 -5.97582,-3.27975 -6.15611,-7.06359c0.17432,0.10347 0.36423,0.19635 0.57055,0.27746c4.42296,1.73888 12.14951,1.53468 14.94916,-3.16652c0.04612,0.72884 0.01974,1.48894 -0.08192,2.26882z" fill="#323344" stroke="#000000" stroke-width="0" stroke-linecap="butt"/><path d="M228.19006,174.23725c0.05969,-0.45798 0.47935,-0.78088 0.93735,-0.72118c0.45799,0.05969 0.78087,0.47936 0.72118,0.93735c-0.05969,0.45798 -0.47935,0.78088 -0.93735,0.72118c-0.45799,-0.05969 -0.78087,-0.47936 -0.72118,-0.93735z" fill="#95c2c5" stroke="none" stroke-width="0.5" stroke-linecap="butt"/><path d="M220.08276,180.94966c0.6295,-4.82974 4.72385,-8.58456 9.22049,-7.99848c4.49667,0.58609 6.75316,4.65754 6.12366,9.48728c-0.6295,4.82974 -4.78506,8.2699 -9.28171,7.68382c-4.49665,-0.58609 -6.69194,-4.34286 -6.06243,-9.17261z" fill="none" stroke="#000000" stroke-width="1" stroke-linecap="butt"/><path d="M234.48132,184.57592c0,0 -1.52725,2.40403 -6.60684,1.95723c-2.79963,-0.24624 -6.18528,-0.86955 -6.18528,-0.86955" fill="none" stroke="#000000" stroke-width="1" stroke-linecap="round"/><path d="M235.29593,182.20826c0,0 -2.58548,0.38765 -4.33857,0.38809c-2.77962,0.00071 -10.7299,-0.38424 -10.7299,-0.38424" fill="none" stroke="#000000" stroke-width="1" stroke-linecap="round"/><path d="M220.25851,180.24831c0,0 3.62423,-2.2909 7.87302,-2.07763c3.61666,0.18154 7.22911,2.24684 7.22911,2.24684" fill="none" stroke="#000000" stroke-width="1" stroke-linecap="round"/><path d="M221.32781,176.78937c0,0 3.19567,-1.93321 6.52669,-1.58981c3.34735,0.3451 7.0035,2.1726 7.0035,2.1726" fill="none" stroke="#000000" stroke-width="1" stroke-linecap="round"/><path d="M224.47779,189.28803c0,0 -2.78564,-3.20662 -2.95538,-7.29458c-0.09814,-2.3635 1.59117,-6.82671 1.59117,-6.82671" fill="none" stroke="#000000" stroke-width="1" stroke-linecap="round"/><path d="M226.88869,189.77093c0,0 -2.72114,-4.64552 -2.54883,-8.37394c0.13445,-2.90884 2.68425,-8.19442 2.68425,-8.19442" fill="none" stroke="#000000" stroke-width="1" stroke-linecap="round"/><path d="M229.88597,189.2058c0,0 -2.1297,-1.17434 -1.31818,-9.5215c0.26121,-2.68672 2.03774,-6.35226 2.03774,-6.35226" fill="none" stroke="#000000" stroke-width="1" stroke-linecap="round"/><path d="M233.99979,176.19204l-1.3113,11.35496" fill="none" stroke="#000000" stroke-width="1" stroke-linecap="round"/></g></g></g></svg>