<svg version="1.1" xmlns="http://www.w3.org/2000/svg" xmlns:xlink="http://www.w3.org/1999/xlink" width="189.26654" height="221.55319" viewBox="0,0,189.26654,221.55319"><g transform="translate(-145.36673,-69.22341)"><g data-paper-data="{&quot;isPaintingLayer&quot;:true}" fill-rule="nonzero" stroke-linejoin="miter" stroke-miterlimit="10" stroke-dasharray="" stroke-dashoffset="0" style="mix-blend-mode: normal"><path d="M145.36673,290.77659v-221.55318h189.26654v221.55319z" fill="none" stroke="none" stroke-width="NaN" stroke-linecap="butt"/><g data-paper-data="{&quot;origRot&quot;:0}" stroke="#000000" stroke-linecap="round"><path d="M242.12372,217.61942c0,0 -0.75659,-4.74071 0.77396,-4.93822c4.51645,-0.58278 8.65537,-2.82519 13.08756,-1.77955c1.84048,0.4342 3.12581,4.52575 3.12581,4.52575l8.88652,31.89288c0,0 0.96053,3.2812 1.44596,5.18591c0.51901,2.03646 -0.07758,5.29188 -2.14338,5.67792c-7.58495,1.41749 -12.04884,3.69797 -16.9988,3.37346c-1.80335,-0.11823 -3.70943,-0.36209 -4.65085,-1.90474c-1.22977,-2.0151 -1.18116,-6.49656 -1.18116,-6.49656z" data-paper-data="{&quot;origPos&quot;:null}" fill="#ff0000" stroke-width="3"/><path d="M269.9735,255.81662c0,0 -5.46429,3.50486 -10.491,4.28607c-3.85667,0.59936 -12.3672,0.88579 -12.3672,0.88579c0,0 -1.73717,-2.36885 -2.0709,-3.93638c-0.35157,-1.6513 0.31488,-4.31148 0.31488,-4.31148l22.91133,-4.36763z" data-paper-data="{&quot;origPos&quot;:null}" fill="#976e57" stroke-width="2"/><path d="M242.25342,217.92396c0,0 -0.75659,-4.74071 0.77397,-4.93821c4.51644,-0.58278 8.65537,-2.82519 13.08758,-1.77953c1.84048,0.4342 3.1258,4.52574 3.1258,4.52574l8.88652,31.89288c0,0 0.96055,3.28121 1.44598,5.18591c0.51901,2.03646 -0.07759,5.29187 -2.14338,5.67792c-7.58495,1.41749 -12.04884,3.69798 -16.9988,3.37347c-1.80335,-0.11823 -3.70943,-0.36211 -4.65084,-1.90474c-1.22977,-2.0151 -1.18117,-6.49656 -1.18117,-6.49656z" data-paper-data="{&quot;origPos&quot;:null}" fill="#474747" stroke-width="3"/></g><g data-paper-data="{&quot;index&quot;:null,&quot;origRot&quot;:0}" stroke="#000000" stroke-linecap="round"><path d="M239.34587,252.80478c0,0 0.25022,4.47474 -0.8876,6.54314c-0.87105,1.58346 -2.76422,1.91284 -4.56042,2.11212c-4.93033,0.54697 -9.49233,-1.53034 -17.13339,-2.60502c-2.08108,-0.2927 -2.82358,-3.51796 -2.39675,-5.57572c0.39922,-1.92461 1.21111,-5.24572 1.21111,-5.24572l7.4422,-32.2605c0,0 1.09988,-4.14524 2.91894,-4.66182c4.38065,-1.24405 8.61629,0.80979 13.15438,1.18874c1.53789,0.12842 0.99543,4.89837 0.99543,4.89837z" data-paper-data="{&quot;origPos&quot;:null}" fill="#ff0000" stroke-width="3"/><path d="M215.35349,249.09758l23.08465,3.33207c0,0 0.7855,2.6275 0.5086,4.29294c-0.26284,1.58097 -1.89165,4.02559 -1.89165,4.02559c0,0 -8.5148,0.09687 -12.39452,-0.32831c-5.05676,-0.55419 -10.67325,-3.80957 -10.67325,-3.80957z" data-paper-data="{&quot;origPos&quot;:null}" fill="#976e57" stroke-width="2.5"/><path d="M239.23002,253.11487c0,0 0.25022,4.47474 -0.8876,6.54314c-0.87105,1.58346 -2.76422,1.91285 -4.56042,2.11213c-4.93033,0.54697 -9.49232,-1.53033 -17.13339,-2.60502c-2.08108,-0.2927 -2.82358,-3.51796 -2.39675,-5.57571c0.39922,-1.92461 1.21111,-5.24572 1.21111,-5.24572l7.4422,-32.2605c0,0 1.09987,-4.14524 2.91894,-4.66182c4.38065,-1.24405 8.61631,0.80979 13.15439,1.18874c1.53789,0.12842 0.99542,4.89837 0.99542,4.89837c0,0 -0.1881,9.00336 -0.30849,14.76599c-0.16993,8.13325 -0.43542,20.84043 -0.43542,20.84043z" data-paper-data="{&quot;origPos&quot;:null}" fill="#474747" stroke-width="1.5"/></g><g><g><g data-paper-data="{&quot;origRot&quot;:0}" stroke="#000000" stroke-width="3" stroke-linecap="round"><path d="M288.71132,201.50251c-0.01828,2.24012 -7.9203,0.88196 -7.9203,0.88196c0,0 -21.00897,-2.99828 -30.93798,-4.37157c-4.07934,-1.20268 -4.77592,-36.8146 -1.14811,-40.68353c1.61717,-1.72464 10.50208,-3.73588 11.83638,-2.46434c2.53973,2.42027 6.91901,17.15059 6.91901,17.15059l-3.81752,0.19457l10.02521,0.46289c0,0 11.72283,-0.50058 16.66148,0.68179c2.73901,0.65575 -1.61819,28.14762 -1.61819,28.14762z" data-paper-data="{&quot;origPos&quot;:null}" fill="#582700"/><path d="M281.08615,173.33009l-1.40715,27.43983" fill="none"/><path d="M276.00694,200.84363l1.14581,-27.45323" data-paper-data="{&quot;origPos&quot;:null}" fill="none"/></g><path d="M279.48728,201.33055l-2.56657,-0.11548l1.26338,-28.07666l2.56657,0.11548z" fill="#ffffff" stroke="none" stroke-width="0" stroke-linecap="butt"/><path d="M249.55945,198.12059l-2.62485,-9.80048l-0.01817,-21.94581l1.74378,-7.56355l3.39265,-3.23861l6.85727,-0.07711l1.37146,-0.01543l6.34632,15.47373l-2.74035,0.25941l0.02057,1.82861l12.12221,0.5495l-0.37472,27.66535l-24.72729,-3.37964z" fill="#ffcb66" stroke="#000000" stroke-width="0.5" stroke-linecap="round"/></g><g fill="none" stroke="none" stroke-width="1" stroke-linecap="butt" font-family="sans-serif" font-weight="normal" font-size="12" text-anchor="start"/></g><g><g data-paper-data="{&quot;index&quot;:null}"><path d="M287.13915,172.24555c2.19689,0.40437 6.95733,-2.55459 6.58178,-0.51433c-0.1913,1.03924 -4.0539,19.95439 -4.87833,20.77169c-0.7941,0.78719 -1.78975,1.19246 -2.8676,0.99407c-0.73333,-0.135 -1.79619,-0.69706 -2.39226,-1.37347c-1.18966,-1.35 -2.21952,-21.04003 -1.96933,-22.39926c0.37556,-2.04027 3.32886,2.11694 5.52574,2.52131z" fill="#e99b00" stroke="#000000" stroke-width="1.5" stroke-linecap="butt"/><g stroke-linecap="butt"><path d="M288.40152,165.52721c3.98025,0.73262 6.81472,3.45703 6.33095,6.08512c-0.48374,2.62809 -4.10251,4.16469 -8.08276,3.43208c-3.98025,-0.73263 -6.81472,-3.45704 -6.33097,-6.08514c0.48374,-2.62809 4.10252,-4.16468 8.08276,-3.43205z" fill="#ffb727" stroke="#000000" stroke-width="1.5"/><path d="M283.84331,173.16383c0,0 -1.43053,-0.62348 -2.31728,-1.95579c-0.41353,-0.64171 -0.7456,-2.43282 -0.7456,-2.43282l2.9748,2.04488z" fill="#ffd683" stroke="none" stroke-width="0"/><path d="M286.89279,174.30482l-1.73115,-0.36726c0,0 -0.12285,-0.71702 -0.07749,-1.10116c0.03874,-0.32807 0.30919,-1.23183 0.30919,-1.23183l1.39749,0.54244z" fill="#ffd683" stroke="none" stroke-width="0"/></g><g><path d="M287.42929,171.39762c-5.49085,-1.01069 -10.36907,-5.83182 -9.3584,-11.32263c1.01069,-5.49085 5.61486,-8.66354 11.10568,-7.65286c5.49085,1.01069 9.40409,6.33299 8.39342,11.82381c-1.01069,5.49085 -4.64987,8.16235 -10.14067,7.15168z" fill="#e99b00" stroke="#000000" stroke-width="1.5" stroke-linecap="butt"/><path d="M287.20048,152.79198c0,0 1.0983,1.54457 2.44817,3.83504c1.3466,2.2849 2.20885,5.49005 1.76727,7.88914c-0.88427,4.80406 -2.63,6.31946 -6.61947,5.58516c-1.94088,-0.35725 -3.551,-1.73788 -4.45904,-3.42732c-1.27454,-2.37131 -2.08109,-5.43902 -1.57963,-8.16325c0.88427,-4.80406 8.44271,-5.71876 8.44271,-5.71876z" fill="#ffb727" stroke="none" stroke-width="0" stroke-linecap="butt"/><path d="M296.58229,164.41946c0,0 -3.52889,2.81334 -9.88993,1.40652c-6.30935,-1.39538 -8.3263,-5.66154 -8.3263,-5.66154" fill="none" stroke="#000000" stroke-width="0.8" stroke-linecap="round"/><path d="M294.21095,169.3389c0,0 -2.61633,1.47841 -8.2546,-0.4643c-3.9124,-1.34805 -7.24814,-4.13693 -7.24814,-4.13693" fill="none" stroke="#000000" stroke-width="0.75" stroke-linecap="round"/><path d="M296.74691,161.68722c0,0 -2.19627,1.55618 -8.195,-0.12939c-6.23685,-1.75247 -8.53048,-5.4862 -8.53048,-5.4862" fill="none" stroke="#000000" stroke-width="0.8" stroke-linecap="round"/><path d="M282.55098,153.66196c0,0 4.20408,0.72885 8.06337,2.54248c2.93003,1.37691 6.30889,4.21856 6.30889,4.21856" fill="none" stroke="#000000" stroke-width="0.8" stroke-linecap="round"/><path d="M292.73082,154.40813c0,0 2.23051,2.89038 1.01856,8.24956c-1.29875,5.74296 -4.07989,8.38228 -4.07989,8.38228" fill="none" stroke="#000000" stroke-width="0.8" stroke-linecap="round"/><path d="M286.58999,170.92419c0,0 0.34607,-2.97428 0.76807,-4.70956c0.35532,-1.461 1.54989,-4.14593 2.26699,-6.73298c0.81543,-2.94182 1.1383,-5.71756 1.1383,-5.71756" fill="none" stroke="#000000" stroke-width="0.8" stroke-linecap="round"/><path d="M284.10165,170.3534c0,0 -1.43829,-4.17529 -0.18294,-10.0599c0.79983,-3.74927 4.42658,-7.48189 4.42658,-7.48189" fill="none" stroke="#000000" stroke-width="0.8" stroke-linecap="round"/><path d="M279.99719,167.23003c0,0 -0.85121,-3.13487 1.02855,-8.34446c1.30537,-3.61767 4.07649,-6.21985 4.07649,-6.21985" fill="none" stroke="#000000" stroke-width="0.8" stroke-linecap="round"/><path d="M279.95013,159.21568c-0.39151,-0.07206 -0.6415,-0.49669 -0.55833,-0.94845c0.08314,-0.45174 0.46794,-0.75953 0.85947,-0.68747c0.39151,0.07206 0.64151,0.49669 0.55834,0.94844c-0.08314,0.45174 -0.46796,0.75954 -0.85947,0.68748z" fill="#ffd683" stroke="none" stroke-width="0" stroke-linecap="butt"/><path d="M281.3029,156.30752c-0.22587,-0.04158 -0.37527,-0.25838 -0.3337,-0.48425c0.04157,-0.22587 0.25838,-0.37527 0.48425,-0.3337c0.22587,0.04158 0.37527,0.25839 0.3337,0.48425c-0.04157,0.22587 -0.25838,0.37528 -0.48425,0.3337z" fill="#ffd683" stroke="none" stroke-width="0" stroke-linecap="butt"/></g></g><path d="M282.76406,173.04734c-1.29688,9.7901 -2.21246,11.36461 -2.21246,11.36461c-0.22886,1.21763 -1.38849,0.87946 -1.38849,0.87946c0,0 -2.32907,-0.38116 -3.81978,-0.62513c-0.97887,-0.16019 -2.50822,-0.41047 -2.50822,-0.41047c0,0 -0.93491,-0.31563 -0.79572,-0.97771c0.83746,-3.98312 1.4253,-7.8336 2.03655,-9.79406c0.20375,-0.65349 1.28165,-1.22575 1.28165,-1.22575l4.79165,0.23632c0,0 1.97003,-0.01689 2.6148,0.55274z" fill="#582700" stroke="#000000" stroke-width="3" stroke-linecap="round"/><path d="M294.06825,176.17125c-3.13731,20.17076 -4.92354,23.46161 -4.92354,23.46161c-0.51265,2.51316 -2.58778,1.89614 -2.58778,1.89614c0,0 -4.19165,-0.62774 -6.8745,-1.0295c-1.76168,-0.26382 -4.51408,-0.676 -4.51408,-0.676c0,0 -1.66951,-0.58561 -1.364,-1.95309c1.83806,-8.22701 3.213,-16.16543 4.47855,-20.22793c0.42185,-1.35416 2.42189,-2.59956 2.42189,-2.59956l8.66756,0.16753c0,0 3.57272,-0.16513 4.69587,0.9608z" fill="#582700" stroke="#000000" stroke-width="3" stroke-linecap="round"/></g><g><g><path d="M222.19161,169.53286c0,0 1.94111,-14.4094 4.09862,-14.95725c6.4725,-1.64357 21.26952,-0.71298 31.15944,-0.71298c1.52888,0 2.84914,13.5334 2.84914,13.5334l1.7807,30.62821c0,0 0.24329,14.95796 -1.42456,14.95796c-14.84697,0 -32.2486,0.85262 -38.86622,0.01169c-2.20586,-0.2803 -1.37783,-16.03807 -1.37783,-16.03807z" data-paper-data="{&quot;origPos&quot;:null}" fill="#ffcb66" stroke="#000000" stroke-width="3.5" stroke-linecap="round"/><path d="M241.03647,177.73166c-1.29167,0 -1.29167,-2.4875 -1.29167,-2.4875c0,-5.15926 0,-11.97684 0,-17.1361c0,0 0,-2.4875 1.29167,-2.4875c1.29167,0 1.29167,2.4875 1.29167,2.4875c0,5.15926 0,10.31851 0,15.47777v1.65833c0,0 0,2.4875 -1.29167,2.4875z" fill="#ffffff" stroke="none" stroke-width="0.5" stroke-linecap="butt"/><path d="M253.03647,184.06499c-1.29167,0 -1.29167,-3.125 -1.29167,-3.125c0,-6.48148 0,-15.04629 0,-21.52777c0,0 0,-3.125 1.29167,-3.125c1.29167,0 1.29167,3.125 1.29167,3.125c0,6.48148 0,12.96296 0,19.44445v2.08333c0,0 0,3.125 -1.29167,3.125z" fill="#ffffff" stroke="none" stroke-width="0.5" stroke-linecap="butt"/></g><g stroke="#000000" stroke-width="0.5" stroke-linecap="butt"><path d="M255.81522,194.03952c0,6.75773 -4.61499,12.23596 -10.30787,12.23596c-5.69288,0 -10.30787,-5.47823 -10.30787,-12.23596c0,-6.75773 4.61499,-12.23596 10.30787,-12.23596c5.69288,0 10.30787,5.47823 10.30787,12.23596z" fill="#ffa924"/><path d="M248.56783,182.75175c0.00042,0.01121 0.00064,0.02264 0.00064,0.03429c0,0.62472 -0.62472,0.62472 -0.62472,0.62472h-0.12494c-0.45645,0 -2.53723,0.0279 -2.84911,-0.10741c-0.26035,-0.11296 -0.20372,-0.54309 -0.39105,-0.75628c-0.17997,-0.20481 -0.43603,-0.33145 -0.67695,-0.45911c-0.38311,-0.20301 -0.90634,-0.19975 -1.18819,-0.52921c-0.26036,-0.30435 -0.29131,-0.7718 -0.26679,-1.17157c0.11516,-1.87748 1.26724,-1.8967 2.75543,-1.72741c0.44886,0.09887 0.91204,0.14686 1.34659,0.2966c0.19117,0.06587 0.30526,0.29409 0.50208,0.34041c0.1399,0.03293 0.27152,-0.0978 0.41262,-0.12514c0.00602,-0.00117 1.74906,-0.25012 1.76634,-0.25258c1.1784,-0.1673 2.43862,-0.21612 3.62786,-0.12987c0.75779,0.05496 2.47002,0.24268 2.90706,1.002c0.6224,1.08137 -1.1866,1.81308 -1.63938,1.99818c-1.33995,0.54778 -2.48368,0.20728 -3.84836,0.36625c-0.46486,0.05415 -1.21198,0.38014 -1.70913,0.59613z" fill="#1cc735"/></g></g><path d="M256.98884,154.7047c-12.07842,0.45688 -23.79253,0.86384 -28.60919,-0.0072c-4.40211,-0.79607 -5.79739,-3.51918 -5.79739,-3.51918c0,0 -1.82333,-2.38462 -1.95172,-3.91425c-0.38516,-4.58889 -0.86989,-17.73032 -0.23844,-29.08973c0.02107,-0.37912 0.04665,-0.59142 0.09027,-0.96861c0.13085,-1.13156 0.82867,-5.52903 0.82867,-5.52903c0,0 3.14291,-1.7466 4.86197,-2.2675c5.15717,-1.56271 18.40608,-0.4359 32.32665,-0.40073c1.26172,0.00319 3.4688,1.62465 3.4688,1.62465c0,0 1.62627,3.09425 1.63209,5.07777c0.03768,12.82377 0.03217,27.01252 -0.18113,30.2622c-0.07109,1.08323 -1.79353,5.32153 -1.79353,5.32153z" fill="#582600" stroke="#000000" stroke-width="2.5" stroke-linecap="round"/><path d="M257.19482,134.23397c-0.01012,-3.44494 0.3954,-6.23885 0.90576,-6.24034c0.51036,-0.00151 0.9323,2.78997 0.94243,6.2349c0.01012,3.44494 -0.3954,6.23886 -0.90576,6.24035c-0.51036,0.00151 -0.9323,-2.78997 -0.94243,-6.23491z" fill="none" stroke="#000000" stroke-width="2.5" stroke-linecap="butt"/><path d="M250.69298,134.95057c-0.01031,-3.50875 0.29165,-6.35407 0.6744,-6.35518c0.38277,-0.00112 0.70143,2.84237 0.71174,6.35111c0.01031,3.50875 -0.29162,6.35404 -0.67439,6.35517c-0.38277,0.00112 -0.70144,-2.84235 -0.71175,-6.35109z" fill="none" stroke="#000000" stroke-width="2.5" stroke-linecap="butt"/><path d="M220.07074,111.25429v-13h43.8v13z" fill="#000000" stroke="none" stroke-width="0" stroke-linecap="butt"/><path d="M254.22934,127.20036c-1.84948,1.25441 -7.22045,4.38808 -8.79378,2.39956c-2.10848,-2.6649 5.67133,-7.64052 7.09991,-7.36613c0.25403,-0.08695 0.5265,-0.13414 0.81,-0.13414c1.38071,0 2.5,1.11929 2.5,2.5c0.54227,0.64759 -1.10674,2.25522 -1.61613,2.60071z" fill="#582600" stroke="none" stroke-width="0.5" stroke-linecap="butt"/><g data-paper-data="{&quot;index&quot;:null}"><g data-paper-data="{&quot;origRot&quot;:0,&quot;index&quot;:null}" stroke="#000000" stroke-width="3" stroke-linecap="round"><path d="M226.29128,208.17081c0,0 -25.19106,-1.80717 -25.20687,-4.36259c-0.02853,-4.60758 2.8263,-14.86395 2.8263,-14.86395l8.55584,-28.85843c0,0 1.70706,-5.45404 2.83615,-5.68761c3.38724,-0.70071 9.55074,1.4989 16.10969,2.43567c1.09021,0.15572 0.81033,6.07362 0.81033,6.07362c0,0 -0.85125,9.2916 -1.39607,15.2387c-0.82972,9.05684 -2.12605,23.20702 -2.12605,23.20702c0,0 -0.42598,7.26246 -2.40933,6.8176z" data-paper-data="{&quot;origPos&quot;:null}" fill="#582600"/><path d="M203.03606,196.50641l24.53798,4.40343" fill="none"/><path d="M228.39487,197.68006l-24.49603,-4.63713" data-paper-data="{&quot;origPos&quot;:null}" fill="none"/></g><path d="M203.75843,192.32366l10.84762,-36.56362l1.38095,-0.44775l15.55991,2.8411l-2.99159,38.64797z" fill="#ffcb66" stroke="#000000" stroke-width="1" stroke-linecap="round"/><path d="M203.0362,196.33968l0.41935,-2.29307l25.08483,4.58732l-0.41935,2.29307z" fill="#ffffff" stroke="none" stroke-width="0" stroke-linecap="butt"/></g><path d="M229.31287,147.90092c-0.60644,-0.44129 -0.16515,-1.04772 -0.16515,-1.04772l0.42075,-0.50404c1.71991,-1.16477 3.09678,-1.58532 5.18951,-1.52247c0,0 0.74961,0.02417 0.72544,0.77378c-0.02417,0.74961 -0.77378,0.72544 -0.77378,0.72544c-1.77628,-0.06171 -2.84409,0.26273 -4.29557,1.26218l-0.05349,0.14769c0,0 -0.44129,0.60644 -1.04772,0.16515z" fill="#000000" stroke="none" stroke-width="0.5" stroke-linecap="butt"/></g></g></svg>