<svg version="1.1" xmlns="http://www.w3.org/2000/svg" xmlns:xlink="http://www.w3.org/1999/xlink" width="35.6892" height="30.25251" viewBox="0,0,35.6892,30.25251"><g transform="translate(-221.59595,-164.61984)"><g data-paper-data="{&quot;isPaintingLayer&quot;:true}" fill-rule="nonzero" stroke-linejoin="miter" stroke-miterlimit="10" stroke-dasharray="" stroke-dashoffset="0" style="mix-blend-mode: normal"><g><path d="M232.27943,167.50533c0.02534,-0.3983 4.62561,-2.12191 5.6916,-2.38532c0.11745,-0.02902 0.67332,3.79017 -0.08192,5.75805c-0.24617,0.64143 -0.49133,0.46093 -1.12091,0.70871c0,0 -0.85238,-1.33014 -1.49802,-1.91719c-0.8121,-0.73841 -2.99075,-2.16425 -2.99075,-2.16425z" fill="#a5004d" stroke="#000000" stroke-width="1" stroke-linecap="butt"/><path d="M228.50272,184.3168c-0.00756,0.30046 -3.61638,0.87295 -5.65678,-0.5317c-0.09942,-0.06844 -0.75504,1.18978 0.8641,3.36717c1.19495,1.60694 3.45937,2.89119 3.61516,2.71632c0.0167,-0.01874 -0.60289,4.90431 -0.0666,5.00377c0.62804,0.11647 1.08206,-1.08849 2.50558,-2.42991c0.74847,-0.70531 1.94674,-1.55617 3.10453,-2.28187c0.45497,-0.57424 6.67419,3.2679 16.54912,-0.13852c3.4236,-1.18099 3.98978,-2.42371 3.76464,-3.53655c-0.18778,-0.92819 -1.01061,-1.76602 -0.39174,-2.40232c1.06078,-1.09067 2.98391,-0.23817 3.2444,-0.81533c1.06537,-2.36049 1.35871,-5.5551 1.33216,-5.59825c-0.21857,-0.35523 -1.10626,1.36017 -2.32145,2.05355c-1.03112,0.58836 -2.43414,0.14919 -2.43414,0.14919c0,0 1.31819,-10.51201 -5.99437,-11.36855c-6.78838,-0.79514 -9.14726,4.41811 -9.95851,4.24244c0,0 -6.31743,-2.10419 -9.37682,1.15802c-5.51862,5.88447 1.23585,9.81061 1.22071,10.41253z" fill="#a5004d" stroke="#000000" stroke-width="2.5" stroke-linecap="butt"/><path d="M229.62285,183.45827l16.77778,-13.83334c0,0 1.63013,0.31384 2.10496,0.56709c0.60461,0.32246 1.22837,1.21069 1.22837,1.21069l-21.66666,21.38889l0.16468,-3.79301c0,0 -3.9487,-1.42076 -3.83823,-3.27265c6.58782,1.16567 5.2291,-2.26767 5.2291,-2.26767z" fill="#c90862" stroke="none" stroke-width="0" stroke-linecap="butt"/><path d="M237.75882,189.92757l13.59795,-9.95176l0.04742,0.69481c0,0 1.71681,0.82303 4.02616,0.24788c0.27521,0.15637 -0.07305,1.08431 -0.07977,1.25882c-4.45778,0.38115 -4.08152,2.99732 -4.08152,2.99732l-4.60527,4.32748c0,0 -2.7332,0.71737 -4.01253,0.77849c-1.6116,0.077 -4.89244,-0.35305 -4.89244,-0.35305z" fill="#c90862" stroke="none" stroke-width="0" stroke-linecap="butt"/><path d="M231.61373,184.47421c0,0 1.3602,-1.49448 2.86252,-3.02753c1.606,-1.63885 3.37442,-3.32178 3.81723,-3.2702c0.21677,-0.02679 0.10477,4.50811 0.61776,4.53053c0.89283,0.03901 5.82114,-4.42843 6.46662,-4.3365c0.28374,0.0404 2.24756,2.75342 2.80199,2.97551c0.40283,0.16136 3.27817,-3.83749 3.27817,-3.83749" fill="none" stroke="#000000" stroke-width="1" stroke-linecap="round"/><path d="M239.96158,188.98164c-1.40406,0 -2.15811,-3.15869 -2.07768,-4.82122c-0.93513,0.46875 -1.63581,1.57492 -2.6521,1.57492c-0.34904,0 -2.74619,-0.43214 -2.28051,-1.36352c-0.0005,-0.00919 -0.00076,-0.01844 -0.00076,-0.02776c0,-0.27614 0.22386,-0.5 0.5,-0.5c0.21522,0 0.39867,0.13597 0.46915,0.32669c0.28391,0.23664 0.58085,0.62817 1.22733,0.56146c1.24066,-0.12802 2.10648,-1.66695 3.57092,-1.77631c0.26035,-0.01945 4.24408,-0.27043 3.60087,0.85519c-0.05865,0.10263 -0.22329,0.16844 -0.45305,0.20836c0.62536,1.5948 -0.14578,4.96218 -1.90417,4.96218z" fill="#000000" stroke="none" stroke-width="0.5" stroke-linecap="butt"/><path d="M248.46248,188.13567c-1.85306,0.64642 -3.19018,-2.68723 -2.27377,-4.02298c-0.45004,-0.06844 -1.65548,0.01854 -1.81749,-0.26498c-1.23397,-0.72827 0.11687,-1.16052 2.04441,-1.21474c1.16474,-0.03276 2.81438,-0.10384 3.45098,0.48299c0.49392,-0.0815 1.14918,-0.52277 1.42511,-0.52988c1.07355,-0.02764 -0.37678,1.67023 -1.45069,1.67023c-0.07137,0 -0.13926,-0.01495 -0.20069,-0.0419c-0.20329,0.0678 -0.4149,0.13389 -0.63148,0.19674c0.44331,1.03032 0.34681,3.41294 -0.54638,3.72452z" fill="#000000" stroke="none" stroke-width="0.5" stroke-linecap="butt"/></g></g></g></svg>