<svg version="1.1" xmlns="http://www.w3.org/2000/svg" xmlns:xlink="http://www.w3.org/1999/xlink" width="258.66667" height="258.66667" viewBox="0,0,258.66667,258.66667"><g transform="translate(-110.66666,-50.66668)"><g data-paper-data="{&quot;isPaintingLayer&quot;:true}" fill-rule="nonzero" stroke-linejoin="miter" stroke-miterlimit="10" stroke-dasharray="" stroke-dashoffset="0" style="mix-blend-mode: normal"><path d="M110.66666,309.33335v-258.66667h258.66667v258.66667z" data-paper-data="{&quot;index&quot;:null}" fill="none" stroke="none" stroke-width="0" stroke-linecap="butt"/><g data-paper-data="{&quot;index&quot;:null}" stroke-linecap="butt"><g data-paper-data="{&quot;index&quot;:null}"><path d="M281.28214,225.41398c0,0 0.35524,3.61844 -11.27746,6.68961c-17.70442,4.67419 -51.30491,9.51217 -62.68736,9.67067c-5.51082,0.07674 -11.68049,-3.15852 -16.73677,-5.1251c-11.23416,-4.36941 -12.93426,-9.06211 -12.93426,-9.06211c0,0 -1.77703,-4.85062 -0.84803,-6.93913c0.75414,-1.69548 5.8845,-1.03855 5.8845,-1.03855c0,0 45.29089,-7.32402 73.84046,-8.70087c1.22917,-0.05928 2.03164,4.23429 3.17247,4.16801c6.15982,-4.84048 15.43718,-5.99193 15.62814,-5.84545c4.70391,3.60864 5.95832,16.18293 5.95832,16.18293z" fill="#0045d8" stroke="#000000" stroke-width="3"/><path d="M202.83736,217.48854c-0.0637,-1.80903 -1.86232,-8.67049 -1.86232,-8.67049c0,0 12.55894,-0.57127 27.7654,-0.7136c12.58716,-0.11781 21.8027,-3.85902 21.8027,-3.85902c0,0 6.46423,8.53704 6.91557,9.02533c1.0265,1.11056 0.7195,2.88219 0.7195,2.88219c0,0 -1.45507,4.78729 -2.4553,7.22435c-1.224,2.98231 -4.96089,11.25527 -4.96089,11.25527c0,0 -0.75764,1.54611 -1.95814,0.38416c-2.18418,-2.11403 -5.64708,-7.87628 -7.35471,-10.58843c-0.98783,-0.0717 -1.8748,-0.16666 -2.90723,-0.08968c-3.081,0.2297 -6.36583,1.29028 -9.98356,1.39824c-4.52315,0.13499 -8.61591,0.18229 -12.15237,-0.42263c-8.28675,-1.41745 -13.46366,-4.84294 -13.56868,-7.82562z" fill="#080f95" stroke="none" stroke-width="0"/><path d="M235.62947,226.40977c0,0 4.71711,-3.78841 5.68373,-4.56574c1.11766,-0.89879 4.24863,-2.91294 4.24863,-2.91294c0,0 -1.02535,2.38592 -3.86531,5.74779c-3.04512,3.60476 -6.06705,1.73088 -6.06705,1.73088z" fill="#000000" stroke="none" stroke-width="0"/></g><g data-paper-data="{&quot;index&quot;:null}"><g><path d="M254.02949,203.97999c0,0 -0.46829,11.36014 -19.56316,14.35346c-18.45109,2.89239 -29.05689,0.97354 -34.90924,-0.52683c-3.19307,-0.8186 -8.36943,-1.27333 -8.36943,-1.27333c0,0 -2.19317,-8.34583 -3.02016,-16.84335c-0.76506,-7.86136 -0.16078,-15.77561 -0.34388,-19.1684c-0.56523,-10.47291 3.90828,-8.3076 3.90828,-8.3076l33.81089,6.03523c0,0 -0.13643,2.98493 -0.82939,8.34028c9.1632,4.62882 28.94247,13.52232 29.31605,17.39055z" fill="#ab9efa" stroke="#000000" stroke-width="3"/><path d="M230.82199,197.22113l0.54708,0.56801c0.05542,0.05686 0.10197,0.12141 0.13742,0.19167c0.53756,0.56009 1.06205,1.14488 1.57697,1.75337c4.31474,6.09275 0.93136,10.91754 -6.4491,11.63484c-8.26914,0.77399 -12.32707,-1.89123 -17.78274,-6.76516c-2.8729,-2.99375 -9.28318,-10.16496 -2.81389,-13.14725c0.77387,-0.35676 2.27609,-0.47868 3.11249,-0.66102c3.61551,-0.69853 8.19761,-0.69518 11.70796,0.68565c1.37334,0.54022 2.85807,1.26452 4.16016,2.03372c0.31044,0.16999 0.70788,0.25614 1.00786,0.43812zM223.30226,197.01751c-0.57254,1.95383 -0.81546,4.307 -1.30516,6.02622c-0.28313,0.88106 -1.46861,3.85504 -0.56716,4.59685c1.94598,1.60132 8.36704,-0.67196 8.95552,-2.80046c-0.13396,-3.80388 -3.51803,-6.08617 -7.0832,-7.82263zM219.842,195.44962c-0.74101,-0.32775 -1.4417,-0.64452 -2.06891,-0.96079c-3.16682,-0.92938 -4.89311,-0.60618 -7.98671,0.35038c-0.63051,0.19497 -2.31467,0.36716 -2.41477,1.18977c-0.19364,1.59176 1.37505,3.51285 2.27126,4.7747c1.00355,1.42316 4.46514,5.25206 6.59843,5.02898c0.35548,-0.03717 0.8498,-1.13159 0.96547,-1.34902c0.87859,-1.65169 0.99623,-3.66548 1.50461,-5.44153c0.20358,-1.13742 0.52496,-2.19886 0.99078,-3.26156l0.13988,-0.33091z" fill="#b4052c" stroke="none" stroke-width="0.5"/></g><path d="M188.15499,190.08852c0,0 0.44574,-4.70514 1.88914,-6.06855c5.94282,-5.61354 7.85,-3.20907 7.85,-3.20907c0,0 -2.81604,27.49472 -4.59009,34.80838c-3.9365,0.03683 -5.14906,-25.53078 -5.14906,-25.53078z" fill="#9362ec" stroke="none" stroke-width="0"/></g><g data-paper-data="{&quot;index&quot;:null}"><path d="M176.91849,218.94488c-3.19386,-0.54788 -7.06624,-4.27703 -7.06624,-4.27703c0,0 -0.64701,0.0816 -0.91557,-1.66263c-0.20542,-1.33431 3.14422,-2.19488 3.97621,-4.27894c1.73179,-4.33794 1.75932,-10.20059 1.75932,-10.20059c0,0 -2.05819,-7.27197 3.41013,-8.72056c7.38683,-1.95679 12.24234,2.00644 12.24234,2.00644c0,0 3.51214,9.49366 3.66637,13.87353c0.17904,5.08402 -1.21769,12.50273 -1.21769,12.50273c0,0 -11.55303,1.49499 -15.85487,0.75705z" fill="#aa96c7" stroke="#000000" stroke-width="2.35"/><path d="M175.31094,204.89412c0,0 0.42372,-2.68111 -0.00325,-5.60714c-0.57742,-3.9569 -0.04484,-9.00854 3.77038,-9.04425c3.98477,-0.0373 7.84066,-0.45348 10.41803,2.09419c1.60218,1.58372 2.06967,7.25399 2.06967,7.25399c0,0 -2.90064,2.33287 -9.09754,4.52794c-5.68152,2.01252 -7.15725,0.77528 -7.15725,0.77528z" fill="#c172b1" stroke="none" stroke-width="0"/></g><g data-paper-data="{&quot;index&quot;:null}" stroke="none" stroke-width="0"><path d="M172.4792,198.42653c-0.68738,-0.23162 -6.39649,-5.29669 -6.94603,-6.26953c-1.57178,-2.78249 8.10299,-3.71731 8.32049,-9.04664c0.1296,-3.17584 -4.38737,-6.05312 -5.17745,-8.83425c-0.58635,-2.06403 2.39588,-4.30184 2.86203,-5.37393c0.26675,-0.6135 2.91504,-1.85898 3.73622,-2.03716c8.99885,1.55773 22.55594,8.86334 22.55594,8.86334l0.17723,5.6499c0,0 -0.1283,7.96487 -4.84735,12.81834c-4.67331,4.80644 -13.90435,6.5132 -20.6811,4.22989z" fill="#ab9efa"/><path d="M196.49766,184.61804c0,0 2.94236,8.31915 -2.0623,12.76907c-2.01131,1.78835 -9.02827,0.64455 -12.30328,1.63799c-4.77305,1.44784 -12.94272,-0.35685 -12.94272,-0.35685c-3.60602,-1.71107 -6.59199,-6.89207 -4.07893,-12.09644c0.76069,-1.57529 6.34382,-1.91824 5.68721,-5.51419c-0.7777,-4.25912 -6.31956,-5.22995 -6.31956,-5.22995c0,0 -1.38807,-1.96247 -0.22628,-4.23505c1.37681,-2.6932 6.95457,-4.96949 7.7048,-4.23041c0.60766,0.59859 -3.90951,5.21522 -3.38193,6.15009c1.89859,3.36436 7.02928,7.77064 6.6678,9.29663c-0.54348,2.29436 -7.82824,8.23278 -7.82824,8.23278c0,0 3.05758,5.28766 3.48731,5.86844c1.45115,1.96127 6.30401,1.34905 8.88524,0.71544c6.21765,-1.52629 11.97248,-2.00689 14.62615,-4.9455c2.50842,-2.77776 2.08474,-8.06205 2.08474,-8.06205z" fill="#000000"/></g><g data-paper-data="{&quot;index&quot;:null}"><g><g><path d="M228.52178,247.84115c-0.19697,-5.59332 -1.25104,-16.6067 5.4474,-21.22168c1.66884,-1.14978 6.00801,-4.47338 9.99459,-1.03473c0.45362,0.3913 -0.70711,1.44982 0.13974,2.90673c0.3126,0.53778 2.25516,0.57604 2.78043,1.20715c1.65924,1.99367 5.11784,3.91456 5.83894,3.82737c2.11606,-5.37437 8.98045,-11.90163 11.31519,-12.41904c4.19556,-0.92983 20.35326,2.36266 20.28848,5.38161c0.60395,2.45002 -3.28626,6.53113 -3.28626,6.53113c0,0 17.18438,8.71553 23.62784,12.18787c11.09511,5.97912 11.47139,10.81895 11.47139,10.81895c0,0 0.7432,2.41294 -3.67571,3.67607c-8.66192,2.47598 -19.48624,3.27399 -32.22632,3.06774c-12.37818,-0.20041 -12.21006,-6.30612 -25.23488,-7.52741c-10.98224,-1.02977 -26.15371,1.88681 -26.48082,-7.40174z" fill="#ae1c51" stroke="#000000" stroke-width="3"/><path d="M296.19441,261.02574c0,0 -11.97093,1.32743 -18.0517,0.56199c-6.13571,-0.77236 -14.68451,-6.58952 -20.63563,-7.33443c-12.59438,-1.57646 -20.32622,0.52209 -23.62296,-1.49873c-0.21205,-0.12996 -5.17171,-1.81496 -4.72894,-7.48818c1.06439,-13.63813 7.38066,-15.77171 7.38066,-15.77171c0,0 7.66359,7.73582 16.3566,8.63773c1.70249,0.17662 0.43093,-2.60983 0.43093,-2.60983c0,0 -0.29435,-1.34283 0.076,-2.24238c0.55465,-1.34715 2.92843,-5.05483 2.92843,-5.05483c0,0 0.88303,2.00705 3.24665,4.35302c2.85324,2.8319 8.21499,5.54261 13.78865,9.00299c6.19604,3.84679 16.47965,7.15743 18.98758,9.26922c2.73125,2.29985 3.84371,10.17509 3.84371,10.17509z" fill="#710c65" stroke="none" stroke-width="0"/><path d="M237.98254,233.07403c0.04972,1.41161 -0.67055,1.92388 -2.18508,1.93805c-1.51454,0.01418 -2.26719,-0.39299 -2.3169,-1.8046c-0.04971,-1.41161 0.86644,-1.9257 2.38097,-1.93987c1.51453,-0.01417 2.07129,0.39482 2.121,1.80643z" fill="#000000" stroke="none" stroke-width="0"/><path d="M250.03862,233.23513c0,0 1.2486,0.17093 5.56815,2.32206c3.51668,1.75129 5.78011,2.77664 5.78011,2.77664c0,0 -0.53834,1.20595 -6.16693,0.14903c-5.85884,-1.10014 -5.18132,-5.24772 -5.18132,-5.24772z" fill="#000000" stroke="none" stroke-width="0"/></g><g><path d="M265.00561,245.37048c-1.81004,-1.16137 -2.25078,-3.57914 -1.92724,-5.04765c0.76757,-3.48418 3.74655,-5.59346 5.67978,-6.09446c8.19197,-2.12299 14.72149,-1.19444 14.62648,0.4426c-0.17125,2.94986 -6.15785,3.2448 -9.90403,5.84956c-1.89493,1.31759 -2.42805,2.73589 -3.54554,3.83225c-1.06685,1.04664 -2.9011,2.31916 -4.92948,1.0177z" fill="#ab9efa" stroke="#000000" stroke-width="2.5"/><path d="M263.92463,241.24728c-0.0769,-2.1836 1.8736,-3.21924 1.8736,-3.21924c0,0 0.91186,0.12401 2.54792,0.86298c2.14582,0.96921 2.90892,2.03652 2.90892,2.03652c0,0 -0.75931,0.81347 -1.48884,1.65745c-0.93957,1.08698 -1.25622,2.51165 -2.43895,2.52272c-2.10106,0.01967 -3.32579,-1.67683 -3.40268,-3.86042z" fill="#9362ec" stroke="none" stroke-width="0"/></g><g><path d="M273.55623,249.36727c-0.61436,-0.66693 0.53043,-4.97777 3.75565,-8.10308c7.66263,-7.42526 11.49561,-7.32663 13.07467,-4.91347c1.42871,2.18343 -4.34431,5.18636 -8.32801,9.10538c-3.55597,3.49819 -7.2738,5.24489 -8.50235,3.91115z" fill="#ab9efa" stroke="#000000" stroke-width="2.5"/><path d="M279.2134,246.68262c0,0 -3.01287,2.72475 -4.32434,2.31733c-0.8104,-0.25175 -0.33149,-3.4484 -0.00879,-3.97836c0.86331,-1.41777 2.24447,-1.88672 2.24447,-1.88672l3.75493,1.67618c0,0 -0.95788,1.29772 -1.66627,1.87158z" fill="#9362ec" stroke="none" stroke-width="0"/></g><g><path d="M282.12796,253.19128c-3.04241,-1.50549 9.4496,-17.34891 14.22009,-13.97433c3.23331,2.28717 -2.87183,3.43154 -6.46322,7.6817c-3.17163,3.75344 -4.10276,8.10079 -7.75684,6.29263z" fill="#ab9efa" stroke="#000000" stroke-width="2.5"/><path d="M282.33522,251.7893c-0.06162,-1.75035 3.39891,-4.7097 3.39891,-4.7097l1.12464,1.70001c0,0 -1.13827,3.02693 -2.43395,4.01923c-1.07811,0.82567 -2.05265,0.03983 -2.0896,-1.00956z" fill="#9362ec" stroke="none" stroke-width="0"/></g></g><g><path d="M285.78386,272.38371c-6.56306,0.06142 -15.52903,-6.18952 -23.41793,-6.8899c-11.61541,-1.03124 -31.34825,-1.3067 -35.00434,-4.59058c-3.34458,-3.00412 -4.95692,-12.09403 -0.18959,-12.77836c1.26368,6.05508 7.14981,6.51098 11.75243,6.57247c5.57052,0.07443 13.23273,-0.11961 19.35754,0.93276c10.8468,1.8637 16.85679,7.2947 25.08026,7.21772c14.13643,-0.13232 23.658,-1.77741 28.95663,-3.5282c2.87722,-0.9507 3.75804,-2.38248 5.17712,-2.5896c1.85756,-0.27114 4.02842,3.89749 4.02842,3.89749c0,0 0.16773,4.18316 -4.49584,7.01565c-4.88126,2.9647 -14.95091,4.58802 -31.24468,4.74054z" fill="#ab9efa" stroke="#000000" stroke-width="3"/><path d="M226.86882,247.98569c0,0 -0.35309,1.64979 1.58284,3.79742c1.26111,1.39903 3.22123,3.08159 8.11367,4.12156c4.29554,0.91305 18.97343,-0.0342 22.5064,0.82729c4.88788,1.19189 8.20766,2.98815 12.18169,4.55894c1.5537,0.61413 3.21789,1.49054 5.09916,1.83722c7.65637,1.41095 10.5726,1.00883 13.74945,0.83844c4.73226,-0.25383 7.56943,-0.82464 7.56943,-0.82464c0,0 1.10544,1.77905 0.6082,3.75964c-0.49723,1.98061 -2.03365,3.30776 -2.03365,3.30776c0,0 -4.71066,2.58662 -13.66947,0.30134c-5.08103,-1.29611 -6.23549,-1.61333 -15.9606,-5.50924c-5.03269,-2.0161 -29.43344,-2.05114 -33.96839,-3.72551c-1.3384,-0.49414 -3.48084,-0.55798 -4.28019,-0.94931c-2.70559,-1.32453 -1.68359,-2.62789 -2.38306,-4.59014c-1.30731,-3.66734 0.88452,-7.7507 0.88452,-7.7507z" fill="#9362ec" stroke="none" stroke-width="0"/></g></g><g data-paper-data="{&quot;index&quot;:null}"><path d="M158.0751,247.8388c2.74304,-3.04338 11.06558,-7.81199 17.80074,-9.46093c-4.80929,-2.51479 -11.54167,-4.2726 -11.77061,-6.14976c-0.71819,-5.88866 1.00418,-6.30077 3.16245,-7.81973c1.79816,-1.26556 17.15535,6.45936 17.15535,6.45936c0,0 0.89271,-5.00656 5.64826,-6.14584c4.07977,-0.9774 13.00239,1.73075 18.69799,3.21736c3.76306,0.98218 7.7967,2.59214 9.34991,5.43532c0.97035,1.77621 -0.68056,6.05127 0.94792,4.82138c4.13194,-3.12058 14.42521,-3.23549 17.34595,-1.11745c2.55667,1.85402 3.99721,6.97223 3.10076,9.3093c-0.37876,0.98744 -12.94149,0.30117 -12.67422,1.32678c0.5299,2.03343 -3.11001,4.69895 -2.72181,6.3657c1.02623,4.40618 2.72448,6.85221 2.72448,6.85221c0,0 1.94808,6.43917 -1.68522,9.41642c-4.66894,3.82592 -16.40269,4.41644 -30.54966,4.54887c-25.1559,0.23546 -47.08439,-15.35169 -36.5323,-27.05905z" fill="#ae1c51" stroke="#000000" stroke-width="2.5"/><path d="M221.69316,244.80189c0,0 1.54538,-2.42227 6.95061,-3.45509c4.8366,-0.92417 9.06344,-0.83817 9.06344,-0.83817c0,0 0.47518,1.88989 0.81287,2.80911c0.37789,1.02876 -0.25065,2.69291 -0.25065,2.69291c0,0 -3.97619,0.50753 -9.38618,0.22526c-1.8711,-0.09761 -2.69821,0.43293 -3.61033,0.44028c-1.2299,0.00989 -2.49759,-0.48809 -3.12568,-1.0192c-0.46003,-0.38898 -0.4541,-0.85509 -0.4541,-0.85509z" fill="#710c65" stroke="none" stroke-width="0"/><path d="M180.52472,234.82881c0,0 3.32118,-0.12356 4.71749,-1.82416c-0.35639,-3.19554 2.53835,-6.45498 4.86204,-7.08823c3.9221,-1.06885 14.53147,2.15776 14.53147,2.15776c0,0 0.62875,4.20768 0.94541,6.15937c0.36474,2.24788 0.62529,6.88387 0.62529,6.88387c0,0 -16.51542,0.54231 -20.26067,0.51241c-1.21636,-0.00969 -4.16563,0.86275 -4.16563,0.86275c0,0 -2.28896,-2.81548 -4.60277,-4.45662c-1.89446,-1.34373 -5.61447,-2.19002 -5.64271,-2.68237c-0.01199,-0.20923 -4.46368,-1.29961 -6.1662,-2.98393c-1.64915,-1.63152 -0.28423,-4.85064 0.63816,-4.76745c2.19824,0.19825 14.51811,7.2266 14.51811,7.2266z" fill="#710c65" stroke="none" stroke-width="0"/><path d="M169.70541,234.98949c0,0 -2.16066,-1.29464 -3.19087,-2.42509c-0.99849,-1.09565 -0.87638,-2.02672 -0.33683,-2.11578c3.0651,-0.50597 5.1112,2.22863 5.93469,3.90006c0.29599,0.60073 0.47322,1.82456 0.47322,1.82456c0,0 -1.40221,-1.19761 -2.88023,-1.18377z" fill="#000000" stroke="none" stroke-width="0"/><path d="M229.72434,243.88932c0.06544,-0.87416 0.8645,-0.77041 3.38791,-0.79403c3.19673,-0.02992 4.00058,0.21004 4.0787,2.42811c0.05748,1.63193 -2.45522,0.549 -4.50857,-0.0333c-1.72779,-0.48997 -3.06042,-0.23337 -2.95805,-1.60079z" fill="#000000" stroke="none" stroke-width="0"/><path d="M159.85503,248.45689c0,0 0.34905,4.76196 0.87288,6.24956c0.49137,1.39541 2.23642,4.04891 2.23642,4.04891c0,0 0.89007,-1.47482 1.81253,-2.64009c0.42401,-0.53562 0.31683,-1.19891 1.09199,-1.27948c5.16567,-0.53708 16.37876,2.10872 25.43216,2.93187c27.54479,2.50444 32.104,12.69466 32.104,12.69466c0,0 -6.73094,4.64584 -32.33736,3.62994c-7.92682,-0.31449 -16.96199,-1.46257 -23.63566,-4.47891c-6.41736,-2.90049 -9.03828,-5.21934 -11.5049,-11.44312c-1.36527,-3.44482 0.8321,-7.20794 2.43653,-8.92612c0.68397,-0.73247 1.49141,-0.78724 1.49141,-0.78724z" fill="#710c65" stroke="none" stroke-width="0"/><g><path d="M147.93103,253.52631c-0.09075,-0.54248 7.77491,-4.51283 7.77491,-4.51283c0,0 -2.00883,5.06286 0.61721,10.50973c3.01864,6.26124 11.84571,13.11786 31.62044,14.8411c10.98,0.95685 31.43863,0.24894 37.97342,-5.26929c2.00139,-1.69004 3.18197,-4.933 2.24637,-7.47223c-1.17656,-3.19314 -2.71829,-5.08002 -1.15122,-5.44688c2.44123,-0.57151 5.43711,5.55209 5.55788,8.9817c0.14284,4.05613 -0.9048,7.30428 -3.93801,10.2351c-6.76147,6.53324 -20.55071,8.03471 -37.95295,8.1976c-15.51078,0.14517 -41.4736,-13.85175 -42.12353,-15.38803c-0.20998,-0.49633 0.21119,-9.68088 -0.62452,-14.67595z" fill="#ab9efa" stroke="#000000" stroke-width="2.5"/><path d="M149.72747,256.21887c0,0 7.65719,20.65465 35.28366,23.45951c42.90747,4.35632 45.89064,-9.54896 45.89064,-9.54896c0,0 -0.93383,3.45046 -6.69415,7.00326c-5.40201,3.33181 -14.95683,7.36652 -37.96788,5.01892c-11.19772,-1.14239 -20.74477,-5.43494 -26.95941,-8.86862c-5.93169,-3.27737 -9.6462,-5.75298 -9.6462,-5.75298l0.09337,-11.3111z" fill="#9362ec" stroke="none" stroke-width="0"/></g><g><g><path d="M177.38771,244.53046c-0.04697,-0.53375 6.07366,-5.10133 17.56133,-4.84353c18.57884,0.41695 24.18584,10.85936 23.65347,12.13889c-1.07151,2.57525 -9.71811,-5.56988 -24.40981,-6.61408c-11.47122,-0.81531 -16.67311,0.81773 -16.80499,-0.6813z" fill="#ab9efa" stroke="#000000" stroke-width="2"/><path d="M183.13307,243.90475l-1.40728,-1.36549c0,0 5.18397,-2.37629 8.12468,-2.37064c9.44012,0.01814 13.92181,1.77039 13.92181,1.77039l-2.51917,3.47026z" fill="#9362ec" stroke="none" stroke-width="0"/></g><g><path d="M171.81449,249.92846c-0.23091,-0.28223 -0.69043,-1.80893 3.07284,-2.91571c3.17668,-0.93428 10.0636,-1.49095 15.52396,-1.54207c11.929,-0.11165 26.27163,6.88885 25.47139,10.74168c-0.45169,2.17471 -11.50069,-3.88063 -23.42969,-3.76898c-11.92902,0.11167 -19.95441,-1.6787 -20.63852,-2.5149z" fill="#ab9efa" stroke="#000000" stroke-width="2"/><path d="M196.159,251.58084c0,0 -3.91878,-0.21389 -5.22279,-0.24146c-1.28651,-0.0272 -3.00002,0.25168 -3.00002,0.25168l-2.90042,-5.06692c0,0 5.51426,-0.3853 7.97729,-0.06233c4.81089,0.63082 6.12927,1.04858 6.12927,1.04858l-2.98332,4.07045z" fill="#9362ec" stroke="none" stroke-width="0"/></g><path d="M167.85297,254.44616c-0.02404,-0.68252 0.2151,-2.90352 3.51142,-3.11022c4.06353,-0.25481 11.68342,0.99851 19.07483,0.92932c7.26963,-0.06805 14.80339,1.78674 19.1201,3.82235c3.6327,1.71305 4.64605,3.49988 4.69592,4.91607c0.10913,3.09904 -12.92015,-4.6059 -26.30745,-4.4806c-13.38731,0.12533 -20.01685,0.13619 -20.09479,-2.07686z" fill="#ab9efa" stroke="#000000" stroke-width="2"/></g></g><g data-paper-data="{&quot;index&quot;:null}" stroke="none" stroke-width="0"><path d="M164.75285,223.83586c-0.17484,-4.96507 2.44101,-7.86779 5.73599,-7.88595c1.84333,-0.01015 3.01745,2.73631 6.1689,2.04179c3.83578,-0.84537 6.73073,-5.97465 10.10123,-6.21673c3.73957,-0.26859 9.3976,7.09506 9.3976,7.09506c0,0 -1.09673,7.28623 -3.08859,13.27026c-2.09489,6.29357 -5.29078,11.17971 -8.33882,10.95535c-3.26502,-0.24033 -19.58457,-8.13628 -19.9763,-19.25977z" fill="#0045d8"/><path d="M194.27779,226.93294c0,0 -1.33273,3.6772 -1.86845,5.66636c-1.17891,4.3772 -4.15879,10.39037 -8.06418,10.26633c-2.25983,-0.07177 -6.52551,-2.6938 -11.32992,-7.03964c-3.23377,-2.92511 -7.53952,-6.64624 -8.51939,-10.83949c-0.2511,-1.07452 1.71159,-2.54807 1.67189,-3.675c9.30207,7.93956 14.17888,14.76501 15.67174,14.45296z" fill="#080f95"/><path d="M197.45664,220.20106c0,0 -7.61478,-7.48178 -9.92955,-7.96608c-0.48079,-0.10059 -7.32975,5.21785 -10.50044,6.49519c-0.55678,0.22432 -2.1669,0.30973 -3.50056,-0.23246c-1.14288,-0.46463 -1.95287,-1.4845 -3.18572,-2.21038c-0.84019,0.34625 -5.48509,7.88321 -5.48509,7.88321c0,0 11.56806,17.76443 18.98573,18.15827c1.90868,0.10134 4.74061,-2.06974 6.365,-5.39236c1.23719,-2.53064 2.26099,-5.95735 3.22284,-8.29942c0.87839,-2.13876 1.75151,-3.31162 1.75151,-3.31162c0,0 -0.62109,4.29847 -1.78518,8.83377c-1.28559,5.00868 -5.23507,10.90154 -9.95875,10.02385c-1.10261,-0.20487 -5.23111,-1.80704 -8.1443,-4.33501c-6.22798,-5.40445 -12.68667,-14.15212 -12.83963,-16.27746c-0.07884,-1.09567 1.95367,-3.46738 2.83577,-4.7206c1.18778,-1.68752 2.51891,-3.9016 5.42181,-4.53352c1.54068,-0.33539 3.71526,2.45629 5.25049,2.03905c4.84658,-1.31722 9.4054,-7.2538 12.21944,-6.92975c2.81403,0.32403 9.27662,10.7753 9.27662,10.7753z" fill="#000000"/></g></g><g data-paper-data="{&quot;index&quot;:null}" stroke-linecap="butt"><g data-paper-data="{&quot;index&quot;:null}"><path d="M246.96588,163.75044c0,0 15.00273,3.86302 14.26047,12.26651c-0.61964,7.01503 -15.97646,10.90523 -46.70232,9.79978c-15.01539,-0.54026 -33.34322,-12.2053 -42.48988,-17.57386c-6.00077,-3.5221 3.72897,-37.33068 9.82934,-40.61323c16.02179,-8.62121 48.50079,-13.11866 63.4623,-3.09335c9.16744,6.14286 5.67126,27.76434 5.67126,27.76434z" fill="#aa96c7" stroke="#000000" stroke-width="3"/><path d="M245.69168,159.70174c0,0 -22.74607,-11.04696 -26.58059,-10.72587c-0.65654,1.18239 -2.20099,15.23471 -2.70205,14.99861c-12.51653,-5.89821 -16.31084,-8.7858 -16.31084,-8.7858l-13.30855,15.08506c0,0 -4.97008,-3.31258 -7.64792,-6.66813c0.03118,-2.22955 -2.30015,5.82719 -2.30015,5.82719l-4.3321,-2.38646c0,0 -0.68054,-1.45101 -0.60631,-2.71826c0.35201,-6.00857 2.91672,-23.13635 12.87571,-29.89763c11.60502,-7.87876 67.15193,-0.97423 67.15193,-0.97423c0,0 -1.31683,13.16118 -2.46497,17.99094c-1.55387,3.26529 -3.2346,8.67447 -3.2346,8.67447z" fill="#c172b1" stroke="none" stroke-width="0"/></g><g><g><path d="M147.73788,155.23547c0,0 -9.22728,8.57194 -14.39351,10.32365c-5.16622,1.75172 -8.03059,6.59975 -10.17036,6.30685c-5.22695,-0.71552 -6.15824,-15.19499 -2.84081,-16.84541c1.85565,-0.92317 9.73874,-6.51308 13.45207,-6.69674c8.32908,-0.41194 14.46278,2.10968 14.46278,2.10968l-0.51018,4.80195z" fill="#0045d8" stroke="#000000" stroke-width="3"/><path d="M117.95587,160.72689c0,0 4.64703,1.42524 12.44085,0.48173c6.94005,-0.84015 14.55919,-9.38181 14.55919,-9.38181l0.59819,2.92597c0,0 -4.52015,4.56225 -7.5936,6.83606c-4.04082,2.9895 -14.55338,9.54882 -14.55338,9.54882c0,0 -2.00252,-0.2222 -2.83756,-1.82984c-1.52859,-2.94291 -2.36578,-8.17857 -2.61367,-8.58094z" fill="#080f95" stroke="none" stroke-width="0"/></g><g stroke="#000000"><path d="M256.56726,135.48477c0,0 -57.73555,7.71371 -67.53156,10.81651c-12.7819,4.04855 -24.87731,7.5062 -24.87731,7.5062c0,0 -12.83808,-4.29036 -16.98553,-16.63261c-1.26971,-3.77849 7.83477,-23.93659 9.16292,-26.29021c4.01955,-7.12302 6.01547,-17.0825 17.62627,-21.53258c20.78499,-7.96635 47.80855,-6.47181 65.86069,-2.43944c8.96003,2.00143 16.2398,4.98979 18.90642,7.02735c7.06721,5.39998 -3.15147,20.81341 -3.15147,20.81341z" fill="#ae1c51" stroke-width="3"/><path d="M161.70689,153.2283c0,0 -16.60253,-10.69522 -17.12955,-18.21613c-0.27327,-3.89966 5.16353,-15.49421 11.59927,-25.42705c6.17763,-9.53452 13.31773,-17.49985 15.23967,-17.44707c13.31698,0.36576 18.63022,53.65486 18.63022,53.65486l-28.33963,7.43539z" fill="#710c65" stroke-width="1.5"/></g></g><g><path d="M145.03827,141.26611c0.6144,-0.88841 10.43804,5.70667 15.56457,12.2992c2.94591,3.78832 1.9253,8.66708 1.7841,11.70185c-0.10821,2.32541 -6.67466,8.14705 -9.79515,8.60112c-5.01353,0.72952 -9.65655,-29.56109 -7.55351,-32.60215z" fill="#aa96c7" stroke="#000000" stroke-width="3"/><path d="M148.64127,165.54591c0,0 1.12978,0.3558 3.06901,-0.34198c2.45279,-0.88259 8.79875,-6.03669 8.79875,-6.03669c0,0 0.39361,5.39058 0.35786,6.5083c-0.04883,1.5258 -3.58774,4.66849 -6.43654,6.12295c-1.55257,0.79266 -2.64703,0.31016 -2.8297,0.35722c-0.49951,0.12871 -2.95936,-6.60981 -2.95936,-6.60981z" fill="#c172b1" stroke="none" stroke-width="0"/><path d="M151.91727,151.63517c0.0309,-0.5929 8.56425,3.46871 8.12154,4.74185c-0.57139,1.64321 -4.93107,9.52128 -7.14326,7.44816c-0.90348,-0.84667 -1.12442,-9.38352 -0.97826,-12.18998z" fill="#c172b1" stroke="#000000" stroke-width="1.5"/></g><g><g data-paper-data="{&quot;index&quot;:null}"><path d="M189.65671,162.90144c-1.68372,2.00608 -7.44818,-7.17775 -8.09485,-6.72417c-0.42502,0.29811 -5.18447,3.17315 -9.01946,6.50922c-3.89804,3.39089 -8.06164,7.04078 -8.21827,6.74397c-0.08519,-0.16148 -2.26787,-13.8242 -0.99276,-14.98666c7.0403,-6.4183 35.22826,-10.13618 35.22826,-10.13618z" fill="#346def" stroke="#000000" stroke-width="3"/><path d="M187.87102,150.86927l7.92375,-4.86022l-7.83369,15.82727z" fill="#45afff" stroke="none" stroke-width="0"/></g><g data-paper-data="{&quot;index&quot;:null}"><path d="M264.66036,144.70664c0,0 7.2624,5.73839 9.34517,9.67541c1.84632,3.4901 2.52771,12.76796 2.52771,12.76796c0,0 -17.13278,-9.67447 -25.61328,-12.30818c-0.89461,-0.27782 2.30998,-2.72052 0.89285,-3.28625c-7.82458,-3.12365 -25.09494,-7.30243 -33.37114,-9.35767c-0.65075,-0.16161 -2.24685,-0.54051 -2.64932,-0.0994c-2.10016,2.30187 -0.24162,10.80599 -2.36117,10.75285c-2.29234,-0.0575 -4.56146,-1.48337 -6.68789,-3.64419c-3.32583,-3.37961 -6.08656,-6.96366 -6.08656,-6.96366c0,0 7.64918,-9.97702 16.35308,-45.46204c2.05828,1.12756 6.61583,10.29199 6.61583,10.29199c0,0 2.31616,-4.89565 3.7692,-3.52964c0.51007,0.47953 0.95471,7.02703 1.09897,7.52103c1.41053,4.83003 0.22054,8.74544 0.92504,8.10248c6.99642,-6.38547 20.02894,-11.44218 24.96811,-11.95414c8.58816,-0.89018 30.3422,35.57872 30.3422,35.57872c0,0 -11.29674,0.8805 -20.06885,1.91477z" fill="#45afff" stroke="#000000" stroke-width="3"/><path d="M255.50588,145.35856c4.9072,5.13536 15.95439,16.26242 15.95439,16.26242l-18.74024,-7.65465c0,0 2.32595,-1.5679 -0.08555,-3.55234c-1.58531,-1.30455 -5.08295,-1.94376 -10.26264,-3.4137c-3.93013,-1.11533 -21.17788,-5.52134 -26.15988,-6.59022c-0.83033,-0.17815 -1.55968,1.02631 -1.55968,1.02631c0,0 -1.27246,2.11021 -1.48871,3.45832c-0.31482,1.96264 -0.19544,6.47026 -0.19544,6.47026c0,0 -2.94995,-0.96265 -4.36247,-2.12094c-1.99574,-1.63655 -6.47916,-6.7694 -6.47916,-6.7694c0,0 1.64741,-3.046 3.91949,-7.35157c4.20507,-7.96858 9.37708,-23.99525 11.60045,-36.22389c0.76415,1.56652 5.98398,29.37174 5.98398,29.37174c0,0 9.25585,-3.54277 17.46572,-6.27026c5.34028,-1.77415 10.77326,-3.28692 11.09711,-2.96924c7.63102,3.46399 12.68902,15.54176 12.68902,15.54176c0,0 -10.70338,-0.00233 -15.89512,-0.90485c-2.43764,-0.42377 -5.93792,-0.59778 -5.93792,-0.59778c0,0 8.2941,7.93194 12.45665,12.28803z" fill="#346def" stroke="none" stroke-width="0"/></g></g></g><g data-paper-data="{&quot;index&quot;:null}" fill="#000000" stroke="none" stroke-width="0.5" stroke-linecap="butt"><path d="M184.73575,75.71979c1.02325,0.14529 0.87934,1.13269 0.87934,1.13269l-0.16829,1.08023c-1.3289,4.38044 -1.22267,8.49557 -1.1876,13.03261c0.03573,4.6241 0.45832,9.0342 0.84051,13.61377c0.35996,4.3134 -0.42387,8.46636 -0.39067,12.76265c0,0 0.00771,0.99804 -1.02557,0.99915c-1.0333,0.0011 -1.04101,-0.99693 -1.04101,-0.99693c-0.03284,-4.24975 0.75288,-8.35638 0.39731,-12.61705c-0.38615,-4.62727 -0.81105,-9.08733 -0.84715,-13.75937c-0.03656,-4.73147 -0.11138,-9.03399 1.27034,-13.60628l0.10566,-0.79935c0,0 0.14391,-0.98739 1.16717,-0.84211z"/><path d="M179.75644,127.29863c-0.45521,0.89317 -1.38285,0.44781 -1.38285,0.44781l-1.05038,-0.93344c-1.37796,-6.53535 -0.27435,-14.12945 0.81853,-20.55502c0.53792,-3.16278 -0.06894,-6.89477 -0.02063,-10.1119c0.83258,-9.29538 2.15516,-19.01772 0.70478,-28.32149c0,0 -0.15376,-0.98785 0.86805,-1.13008c1.0218,-0.14223 1.17556,0.84562 1.17556,0.84562c1.46742,9.44225 0.1647,19.28583 -0.68436,28.71901c-0.04744,3.30927 0.52117,7.054 -0.00103,10.31639c-0.99044,6.18767 -2.21846,13.55358 -0.83748,19.84384l-0.06263,-0.45926c0,0 0.92766,0.44535 0.47245,1.33851z"/><path d="M171.83652,68.90688c0.95229,-0.38152 1.35337,0.54071 1.35337,0.54071l0.45621,1.05335c1.89336,3.35304 0.8205,8.04423 0.45405,11.78127c-0.58911,6.00785 0.51358,12.41804 1.37414,18.27503c0.08497,9.66585 -1.08741,19.29037 -1.00446,28.91458c0,0 0.00771,0.99804 -1.02557,0.99915c-1.0333,0.0011 -1.04101,-0.99693 -1.04101,-0.99693c-0.06597,-9.58308 1.07328,-19.16137 1.0099,-28.78412c-0.84005,-5.98578 -1.94618,-12.46502 -1.37105,-18.60219c0.30559,-3.26091 1.49164,-7.84361 -0.25094,-10.71814l-0.5059,-1.15894c0,0 -0.40108,-0.92224 0.55123,-1.30375z"/><path d="M168.04096,131.66488c-1.0333,0.0011 -1.04101,-0.99693 -1.04101,-0.99693l-0.00587,-0.76041c-0.00515,-0.66536 -0.01028,-1.33072 -0.01543,-1.99608c-0.06169,-7.98421 -0.53105,-16.08922 -0.12543,-24.06416c0.15372,-3.02265 1.09372,-5.9156 1.35255,-8.93221c1.04195,-8.5676 -0.13716,-16.97872 -0.20345,-25.5567c0,0 -0.00771,-0.99804 1.02557,-0.99915c1.0333,-0.0011 1.04101,0.99693 1.04101,0.99693c0.06683,8.64736 1.245,17.13018 0.19318,25.77091c-0.25906,2.97969 -1.19874,5.84588 -1.34462,8.82899c-0.38834,7.94113 0.06635,16.00343 0.12778,23.95319c0.00515,0.66535 0.01615,2.09111 0.0213,2.75647c0,0 0.00771,0.99804 -1.02557,0.99915z"/><path d="M163.18651,85.00159c1.03072,-0.06435 1.10389,0.93161 1.10389,0.93161l0.02516,0.51207c0.59261,2.4976 0.75568,4.75312 0.77533,7.29703c0.03777,4.88935 -0.33393,9.66624 -0.62587,14.52383c-0.34494,5.73981 0.82318,11.455 0.87081,17.17573c0,0 0.00771,0.99804 -1.02557,0.99915c-1.0333,0.0011 -1.04101,-0.99693 -1.04101,-0.99693c-0.04094,-5.76588 -1.21519,-11.51917 -0.8674,-17.30621c0.28934,-4.81439 0.6599,-9.54713 0.62245,-14.39333c-0.01859,-2.40622 -0.1596,-4.50262 -0.72276,-6.86408l-0.07261,-0.81856c0,0 -0.07318,-0.99597 0.95754,-1.06031z"/><path d="M161.57232,123.3001c-0.72521,0.7065 -1.46131,0.00156 -1.46131,0.00156l-0.55596,-0.94276c0.06602,-3.11362 -1.75686,-6.45402 -2.0403,-9.66989c-0.51133,-5.80144 0.39961,-11.62461 0.35484,-17.41812c0,0 -0.00771,-0.99804 1.02557,-0.99915c1.0333,-0.0011 1.04101,0.99693 1.04101,0.99693c0.04439,5.74667 -0.85897,11.52259 -0.36114,17.2766c0.27561,3.18567 1.81488,6.27207 2.02623,9.38584c0.14318,0.16239 0.59088,0.7651 -0.02895,1.36896z"/><path d="M156.41729,105.98962c0.96226,0.36963 0.58566,1.2967 0.58566,1.2967l-0.47222,1.16127c-1.60137,4.70641 -0.35325,10.23185 -0.31231,15.10299c0,0 0.00771,0.99804 -1.02557,0.99915c-1.0333,0.0011 -1.04101,-0.99693 -1.04101,-0.99693c-0.03624,-5.1665 -1.24091,-10.78834 0.43306,-15.7897l0.49351,-1.21606c0,0 0.3766,-0.92708 1.33884,-0.55743z"/></g><g data-paper-data="{&quot;index&quot;:null}"><path d="M302.03891,209.97863c0.54435,-4.64227 1.47618,-9.89414 6.48862,-9.31545c3.3393,0.38551 7.73663,2.49927 10.07957,5.74893c1.17394,1.62824 1.76516,4.11256 1.58345,5.66214c-0.2671,2.27761 -1.88638,3.99867 -4.25986,5.06951c-2.4642,1.11176 -5.72595,1.52439 -8.27917,1.22961c-5.01242,-0.57869 -6.15701,-3.75247 -5.61264,-8.39475z" fill="#2f429d" stroke="#000000" stroke-width="3" stroke-linecap="butt"/><path d="M273.99087,212.80383c8.76043,1.01141 14.83157,3.79325 14.14866,9.61708c-0.28057,2.39276 -1.27133,9.79439 -5.44534,9.56424c-7.05815,-0.3892 -6.17437,-6.16425 -7.67713,-6.31484c-4.26486,-0.42736 -12.79739,0.49382 -13.88791,-4.97871c-1.22067,-6.12568 4.10131,-8.89917 12.86172,-7.88777z" fill="#c172b1" stroke="#000000" stroke-width="3" stroke-linecap="butt"/><path d="M263.12819,203.61086c1.37369,-11.7147 5.17794,-28.21612 17.65751,-27.17607c4.90372,0.4087 5.7448,7.73568 7.61744,7.95188c4.79074,0.55309 8.60159,-0.19595 11.70313,3.26334c1.50681,1.68062 1.40688,3.18265 2.95568,4.53295c3.14733,2.74399 5.65113,0.58784 7.84184,3.5285c0.52,1.02847 5.15559,13.85314 2.84011,19.34412c-2.78519,6.60494 -8.18481,8.87293 -11.59353,9.41977c-5.52675,0.88664 -8.71791,-3.79685 -8.71791,-3.79685c0,0 -4.46472,1.22429 -6.76277,0.50533c-2.23593,-0.69951 -3.36685,-3.26144 -6.44563,-4.615c-0.7626,-0.33528 -1.50375,2.97953 -6.17496,2.031c-10.20799,-2.07285 -11.52374,-9.84777 -10.92088,-14.98896z" fill="#aa96c7" stroke="#000000" stroke-width="3" stroke-linecap="butt"/><path d="M285.11832,204.74252c0,0 0.50679,0.46891 0.97958,2.30832c0.38887,1.51284 0.55197,4.33556 2.1387,5.287c0.79586,0.47722 4.99251,1.16051 6.48684,0.73043c1.15963,-0.33375 1.91665,-1.19485 2.266,-1.19619c1.73014,-0.00666 3.25783,-7.18768 3.25783,-7.18768l2.20177,-2.24953c0,0 0.6402,6.4886 0.24944,11.63844c2.24294,2.6925 3.66786,4.59717 3.66786,4.59717l4.93593,-1.48888c0,0 -1.30085,1.88662 -3.10316,3.25309c-0.78505,0.59519 -2.23705,0.8319 -2.76189,1.20548c-3.39675,2.41782 -7.69736,2.15665 -10.41416,-0.99449c-0.33085,-0.38374 -1.2097,-1.7267 -2.30962,-1.30494c-3.86384,1.48156 -4.75334,0.71816 -6.39497,-0.14589c-2.08789,-1.09894 -4.70729,-2.88999 -4.70729,-2.88999c0,0 -0.15491,-1.10452 -0.96538,-1.02847c-1.04345,0.09792 -2.3111,1.46723 -3.80553,1.9605c-0.61696,0.20363 -1.62082,-0.27821 -2.11313,-0.21302c-1.08842,0.14412 -3.01207,-0.43724 -4.11621,-1.06052c-1.04116,-0.58771 -1.2859,-1.20493 -1.59396,-1.53793c-1.19598,-1.2928 -2.50832,-6.32988 -0.99542,-7.72357c1.83623,-1.69156 6.71583,0.36986 6.71583,0.36986c0,0 3.5389,4.42452 6.64756,4.5689c2.33762,0.10858 3.7334,-6.89808 3.7334,-6.89808z" fill="#c172b1" stroke="none" stroke-width="0" stroke-linecap="butt"/><path d="M283.13926,205.8496c-0.01617,-2.74517 0.17627,-5.88175 1.12251,-7.78588c0.83439,-1.67906 3.06652,-3.21361 4.04834,-3.03753c0.45089,0.08088 0.44438,1.40063 0.44438,1.40063c0,0 -1.45757,0.9542 -1.93744,2.06892c-0.53207,1.23598 -1.0438,3.45411 -1.03286,5.31037c0.01956,3.32178 0.26002,6.43861 -0.64725,8.73559c-0.80729,2.04386 -3.18236,5.06359 -3.18236,5.06359l-2.47975,-0.59204c0,0 2.07011,-3.93494 2.73319,-5.07233c0.92371,-1.58445 0.94182,-4.29363 0.93122,-6.09129z" fill="#000000" stroke="none" stroke-width="0" stroke-linecap="butt"/><path d="M297.42294,211.45612c0.31961,-2.72575 0.26987,-5.67704 1.44305,-7.45846c1.0345,-1.57087 3.2979,-3.06201 4.25205,-2.77527c0.4382,0.13169 0.13886,1.97937 0.13886,1.97937c0,0 -1.29121,0.46472 -1.90441,1.51605c-0.67988,1.16569 -0.69817,3.01135 -0.9143,4.85445c-0.38676,3.29827 -1.29047,6.71531 -2.47295,8.891c-1.0522,1.93594 -2.41739,2.82027 -2.41739,2.82027l-3.19675,-1.20999c0,0 1.97894,-1.48763 2.77697,-2.54055c1.1117,-1.46679 2.08554,-4.29194 2.29484,-6.07688z" fill="#000000" stroke="none" stroke-width="0" stroke-linecap="butt"/><g fill="#2f429d" stroke-linecap="butt"><path d="M266.65358,184.80976c5.75403,0.66431 9.61908,8.02107 8.63283,16.43176c-0.98625,8.4107 -6.45036,14.6904 -12.20439,14.0261c-5.75403,-0.66432 -9.61907,-8.02107 -8.63282,-16.43176c0.98625,-8.41071 6.45035,-14.6904 12.20438,-14.0261z" stroke="#000000" stroke-width="3"/><path d="M268.34914,192.83385l-2.36771,-7.21546c0,0 3.50496,1.77544 4.57528,3.00036c2.2044,2.59944 2.59679,5.84587 2.59679,5.84587z" stroke="none" stroke-width="0"/><path d="M269.1897,199.72524l-0.24512,-3.13008c0,0 2.04424,0.0204 2.74892,0.14655c0.82512,0.14772 2.23454,0.83834 2.23454,0.83834l-0.32815,3.68829z" stroke="none" stroke-width="0"/></g><g><path d="M267.17769,200.5194c-1.36055,11.60273 -9.19088,17.21877 -21.21265,15.83085c-12.02176,-1.38791 -20.59466,-12.5135 -19.2341,-24.11625c1.36056,-11.60274 10.83752,-18.83658 22.85929,-17.44866c12.02177,1.38792 18.94803,14.13131 17.58747,25.73406z" fill="#2f429d" stroke="#000000" stroke-width="3" stroke-linecap="butt"/><path d="M228.87112,188.49311c0,0 6.65447,-14.54057 17.17259,-13.32625c5.96453,0.6886 11.81786,4.20491 15.9327,8.22438c2.93162,2.86366 4.78091,6.939 4.29999,11.0403c-0.98855,8.43018 -5.22975,10.9791 -15.74787,9.76478c-5.25267,-0.60642 -11.35598,-4.31937 -15.24626,-8.42925c-3.89973,-4.11987 -6.41114,-7.27396 -6.41114,-7.27396z" fill="#2f429d" stroke="none" stroke-width="0" stroke-linecap="butt"/><path d="M249.64613,175.44767c0,0 7.57657,6.67961 6.49851,20.15723c-1.0869,13.58808 -9.14183,18.89563 -9.14183,18.89563" fill="none" stroke="#000000" stroke-width="1.6" stroke-linecap="round"/><path d="M258.9136,178.97021c0,0 3.68318,8.39874 4.01577,17.0558c0.47928,12.47599 -4.23314,16.78801 -4.23314,16.78801" fill="none" stroke="#000000" stroke-width="1.6" stroke-linecap="round"/><path d="M240.11742,176.21622c0,0 6.29834,6.90219 6.00638,20.45654c-0.28081,13.03685 -4.89008,16.46099 -4.89008,16.46099" fill="none" stroke="#000000" stroke-width="1.6" stroke-linecap="round"/><path d="M238.50123,212.70154c0,0 -3.76547,-8.51768 -4.77627,-15.22907c-1.33136,-8.83989 -0.19641,-17.69569 -0.19641,-17.69569" fill="none" stroke="#000000" stroke-width="1.6" stroke-linecap="round"/><path d="M265.08223,204.79211c0,0 -7.22343,3.92094 -19.94936,2.95235c-11.87544,-0.90388 -16.46485,-7.1564 -16.46485,-7.1564" fill="none" stroke="#000000" stroke-width="1.6" stroke-linecap="round"/><path d="M228.57104,196.25565c0,0 5.95893,1.07748 12.57223,1.27352c5.81582,0.17241 12.13512,-0.54891 15.38823,-0.35232c3.86383,0.2335 10.24902,1.38791 10.24902,1.38791" fill="none" stroke="#000000" stroke-width="1.6" stroke-linecap="round"/><path d="M228.11806,190.83108c0,0 10.02278,-4.93263 18.30054,-4.20422c12.9923,1.14327 20.74468,6.60978 20.74468,6.60978" fill="none" stroke="#000000" stroke-width="1.6" stroke-linecap="round"/><path d="M229.85688,184.25803c0,0 7.14016,-3.92399 15.46329,-4.28775c11.98564,-0.52384 17.95019,3.1234 17.95019,3.1234" fill="none" stroke="#000000" stroke-width="1.6" stroke-linecap="round"/><path d="M246.68172,178.0252c-0.09701,0.82731 -0.97746,1.40542 -1.96652,1.29123c-0.98907,-0.11419 -1.71223,-0.87742 -1.61521,-1.70473c0.097,-0.82731 0.97745,-1.40542 1.96651,-1.29123c0.98907,0.11419 1.71223,0.87742 1.61521,1.70473z" fill="#2f429d" stroke="none" stroke-width="0" stroke-linecap="butt"/><path d="M238.80314,179.68494c-0.49451,-0.0571 -0.85005,-0.49031 -0.79408,-0.9676c0.05597,-0.47727 0.50225,-0.81792 0.99677,-0.76082c0.49451,0.0571 0.85005,0.49031 0.79408,0.9676c-0.05597,0.47727 -0.50225,0.81792 -0.99677,0.76082z" fill="#2f429d" stroke="none" stroke-width="0" stroke-linecap="butt"/></g></g><g data-paper-data="{&quot;index&quot;:null}" stroke-linecap="butt"><path d="M187.66547,169.50253c0.14782,-1.24045 6.68911,-1.66018 19.48084,-0.16063c5.26049,0.61667 7.55395,2.02655 10.8666,3.67232c4.7426,2.35618 9.38844,5.14109 9.24927,6.30891c-0.16734,1.40416 -4.08233,1.15805 -10.33107,-0.30453c-3.30352,-0.7732 -8.26844,-2.69737 -10.89176,-3.28743c-4.1621,-0.93618 -6.02404,-0.2041 -11.28546,-1.34531c-6.66338,-1.44529 -7.25765,-3.46335 -7.08843,-4.88334z" fill="#ac447e" stroke="#000000" stroke-width="3.5"/><path d="M195.60306,159.62487c0.46051,-3.86446 1.25722,-3.46976 5.08713,-5.21331c5.48385,-2.49651 8.5209,2.38782 8.06037,6.25227c-0.46054,3.86447 -2.97921,5.74112 -7.19588,5.24681c-4.21668,-0.49432 -6.41219,-2.42132 -5.95166,-6.28577z" fill="#000000" stroke="none" stroke-width="0"/><path d="M238.79663,166.06949c-0.44015,3.69346 -3.21342,6.02761 -7.0403,5.57898c-3.73262,-0.43756 -9.16833,-2.54671 -8.73902,-6.14918c0.44016,-3.69345 5.52955,-6.03107 9.35643,-5.58244c3.82691,0.44861 6.86306,2.45921 6.42291,6.15266z" fill="#000000" stroke="none" stroke-width="0"/></g></g></g></svg>