<svg version="1.1" xmlns="http://www.w3.org/2000/svg" xmlns:xlink="http://www.w3.org/1999/xlink" width="128.75797" height="160.45954" viewBox="0,0,128.75797,160.45954"><g transform="translate(-170.39159,-112.57375)"><g data-paper-data="{&quot;isPaintingLayer&quot;:true}" fill-rule="nonzero" stroke-linejoin="miter" stroke-miterlimit="10" stroke-dasharray="" stroke-dashoffset="0" style="mix-blend-mode: normal"><path d="M202.11787,269.00847c0,0 -4.29902,1.57924 -6.67869,1.13268c-1.82174,-0.34186 -2.73676,-2.01987 -3.49413,-3.64596c-2.07884,-4.46339 -1.47518,-9.36949 -2.81643,-16.86445c-0.3653,-2.04129 2.55731,-3.7072 4.70392,-3.92479c2.00774,-0.2035 5.5108,-0.43923 5.5108,-0.43923l33.88884,-2.70681c0,0 4.39943,-0.21301 5.47436,1.33921c2.58864,3.73802 1.90575,8.33076 2.95599,12.70416c0.35592,1.48207 -4.48011,2.40596 -4.48011,2.40596c0,0 -8.86635,2.52839 -14.54129,4.14668c-8.00948,2.28403 -20.52331,5.85254 -20.52331,5.85254z" fill="#4b4b4b" stroke="#000000" stroke-width="3" stroke-linecap="round"/><g stroke="#000000" stroke-linecap="round"><path d="M226.0412,194.17161c0,0 -29.63846,5.19239 -29.29724,-12.34398c0.1257,-6.46096 17.05834,-4.57206 17.05834,-4.57206z" data-paper-data="{&quot;origPos&quot;:null}" fill="#66c8ff" stroke-width="2"/><path d="M217.88832,182.60825c0,0 -16.59942,-2.17775 -16.36789,-2.77202c0.73411,-1.88416 13.03713,-1.09441 13.03713,-1.09441z" data-paper-data="{&quot;origPos&quot;:null}" fill="#0a0a0a" stroke-width="1"/></g><g><path d="M214.7699,200.64574c0,0 2.34427,-14.01304 4.61159,-14.50329c6.80192,-1.4708 22.24952,-0.26133 32.58787,-0.05953c1.59821,0.03119 2.68232,13.25646 2.68232,13.25646l1.19155,29.90621c0,0 -0.07282,14.59258 -1.81631,14.55854c-15.52016,-0.30294 -33.72947,0.17348 -40.62874,-0.78165c-2.29976,-0.31837 -1.08953,-15.66909 -1.08953,-15.66909z" data-paper-data="{&quot;origPos&quot;:null}" fill="#66c8ff" stroke="#000000" stroke-width="3.5" stroke-linecap="round"/><path d="M234.2899,209.02606c-1.35024,-0.02635 -1.29583,-2.45227 -1.29583,-2.45227c0.11285,-5.03152 0.26195,-11.68029 0.3748,-16.71182c0,0 0.0544,-2.42591 1.40464,-2.39956c1.35024,0.02635 1.29583,2.45227 1.29583,2.45227c-0.11285,5.03152 -0.22567,10.06304 -0.33852,15.09455l-0.03627,1.61727c0,0 -0.0544,2.42591 -1.40464,2.39956z" fill="#ffffff" stroke="none" stroke-width="0.5" stroke-linecap="butt"/><path d="M246.58178,208.85948c-1.35024,-0.02635 -1.28189,-3.07398 -1.28189,-3.07398c0.14175,-6.32101 0.32908,-14.67375 0.47084,-20.99475c0,0 0.06835,-3.04763 1.41858,-3.02127c1.35024,0.02635 1.28189,3.07398 1.28189,3.07398c-0.14175,6.32101 -0.28352,12.642 -0.42527,18.96303l-0.04555,2.03176c0,0 -0.06835,3.04763 -1.41858,3.02127z" fill="#ffffff" stroke="none" stroke-width="0.5" stroke-linecap="butt"/></g><path d="M252.72956,186.58213c-12.62098,0.60946 -24.8618,1.16529 -29.91015,0.38105c-4.61384,-0.71674 -6.11216,-3.35383 -6.11216,-3.35383c0,0 -1.94091,-2.30112 -2.09738,-3.79133c-0.4694,-4.4706 -1.16723,-17.28164 -0.67224,-28.36972c0.01652,-0.37006 0.04017,-0.57749 0.08029,-0.94596c0.12035,-1.10545 0.78595,-5.40403 0.78595,-5.40403c0,0 3.26042,-1.7462 5.05008,-2.27758c5.36894,-1.59416 19.23666,-0.67483 33.79071,-0.82936c1.31914,-0.014 3.65014,1.53756 3.65014,1.53756c0,0 1.7452,2.99595 1.78012,4.93051c0.22585,12.50727 0.42639,26.34649 0.25064,29.51899c-0.05858,1.05751 -1.79771,5.21473 -1.79771,5.21473z" fill="#582700" stroke="#000000" stroke-width="2.5" stroke-linecap="round"/><path d="M237.37055,179.42937c-1.05199,2.6591 -3.30837,4.23262 -5.03975,3.51456c-1.73137,-0.71807 -2.28214,-3.45581 -1.23015,-6.11492c1.05199,-2.6591 3.30836,-4.23261 5.03975,-3.51454c1.73137,0.71807 2.28215,3.45579 1.23015,6.11491z" fill="#ff8484" stroke="#000000" stroke-width="1.25" stroke-linecap="butt"/><path d="M249.07298,165.85802c-0.06066,-3.35992 0.32267,-6.09049 0.85621,-6.09887c0.53354,-0.0084 1.01526,2.70858 1.07594,6.06848c0.06066,3.35992 -0.32267,6.0905 -0.85621,6.09888c-0.53354,0.0084 -1.01526,-2.70858 -1.07594,-6.06849z" fill="none" stroke="#000000" stroke-width="2.5" stroke-linecap="butt"/><path d="M242.1144,164.58005c-1.41069,-1.63465 -2.39934,-3.07618 -2.20819,-3.21974c0.19114,-0.14357 1.48969,1.06517 2.90038,2.6998c1.41069,1.63465 2.39934,3.07616 2.20819,3.21973c-0.19114,0.14357 -1.48969,-1.06515 -2.90038,-2.69979z" fill="none" stroke="#000000" stroke-width="2.5" stroke-linecap="butt"/><path d="M210.36205,146.05791c-0.74002,-1.00502 0.33725,-1.69542 0.33725,-1.69542l1.33381,-0.80626c0.122,-0.04082 0.24393,-0.08089 0.36584,-0.12023c-1.34132,-5.59015 -0.50538,-12.44568 -0.80858,-18.01661c-0.07863,-1.44473 -0.6615,-5.34323 0.02666,-6.61416c1.15234,-2.12823 2.96781,-1.62474 4.94801,-1.71352c3.36927,-0.15104 6.71334,-0.2625 10.02313,-0.87216c8.20498,-1.50203 16.38689,-2.11797 24.6556,-3.14741c2.60925,-0.32484 5.16402,-0.52737 7.80855,-0.43422c0.72359,0.02549 1.6336,-0.26025 2.16151,0.20213c1.86972,1.63762 1.20084,3.57998 0.96506,5.50648c-0.47031,3.84276 -1.98559,7.35574 -1.91498,11.26647c0.03259,2.99223 -0.30746,6.07896 -0.56735,9.05941c-0.08969,1.02854 0.36155,2.90585 -0.70824,3.72231c-2.19354,1.67411 -8.15291,0.75442 -10.80875,0.78887c-8.0982,0.10508 -16.20549,0.0546 -24.28493,0.59002c-2.88368,0.28375 -5.62899,0.6335 -8.36591,1.31656c-0.00926,0.36426 -0.17119,0.83797 -0.87581,1.0673c-0.76449,0.24881 -1.22059,-0.09836 -1.45699,-0.39856c-0.09291,0.03028 -0.18585,0.06103 -0.27883,0.09227l-0.73775,0.52135c0,0 -1.07727,0.69039 -1.81729,-0.31463z" fill="#000000" stroke="none" stroke-width="0.5" stroke-linecap="butt"/><g fill="none" stroke="#b9b9b9" stroke-width="3"><path d="M249.5853,190.94839c-0.83535,-1.34135 0.14616,-2.5121 1.45121,-3.67502c1.30505,-1.1629 2.59625,-1.50058 3.27481,-0.53628c1.4387,2.04461 -0.1395,2.9656 -1.16139,3.87617c-1.30506,1.16292 -2.38491,2.22945 -3.56462,0.33512z" stroke-linecap="butt"/><path d="M250.62711,190.39236l-2.7625,2.40422" stroke-linecap="round"/><path d="M244.14353,193.33796c1.30505,-1.1629 2.59625,-1.50058 3.27481,-0.53628c1.4387,2.04461 -0.1395,2.9656 -1.16139,3.87617c-1.30505,1.16291 -2.3849,2.22945 -3.56461,0.33512c-0.83535,-1.34135 0.14615,-2.5121 1.45119,-3.67503z" stroke-linecap="butt"/><path d="M243.73411,196.45693l-2.7625,2.40424" stroke-linecap="round"/><path d="M235.10431,198.30536c0.45459,-1.58642 1.84993,-1.40833 3.42862,-0.92985c1.57869,0.47848 2.56962,1.4508 2.28834,2.66256c-0.59638,2.56927 -2.16459,1.69273 -3.40073,1.31808c-1.57869,-0.47847 -2.95821,-0.81034 -2.31621,-3.05077z" stroke-linecap="butt"/><path d="M232.80162,197.86777l3.3014,1.04808" stroke-linecap="round"/><path d="M227.67382,193.89105c0.96228,-1.26591 2.17314,-0.4743 3.44747,0.67796c1.27434,1.15226 1.84222,2.49823 1.16736,3.49476c-1.43093,2.11296 -2.55825,0.59656 -3.55611,-0.30569c-1.27435,-1.15227 -2.4177,-2.07925 -1.05873,-3.86701z" stroke-linecap="butt"/><path d="M228.37377,194.90519l-2.64857,-2.45362" stroke-linecap="round"/><path d="M221.0092,187.78536c0.96228,-1.26589 2.17314,-0.4743 3.44747,0.67796c1.27435,1.15226 1.84222,2.49823 1.16736,3.49476c-1.43092,2.11295 -2.55825,0.59656 -3.55611,-0.30569c-1.27434,-1.15226 -2.41769,-2.07925 -1.05872,-3.86701z" stroke-linecap="butt"/><path d="M221.70915,188.79949l-2.64858,-2.45362" stroke-linecap="round"/></g><g data-paper-data="{&quot;origRot&quot;:0}" stroke="#000000" stroke-linecap="round"><path d="M248.90785,224.8374c0,0 1.43493,-4.48742 2.96668,-4.01411c4.51993,1.39672 9.43603,1.17485 13.13878,3.96753c1.53758,1.15966 0.89499,5.2999 0.89499,5.2999l-6.07594,31.79377c0,0 -0.58151,3.29056 -0.98706,5.17021c-0.43359,2.00966 -2.47071,4.61938 -4.59224,4.08556c-7.78959,-1.95993 -13.02916,-1.84197 -17.54652,-4.21955c-1.64575,-0.8662 -3.33138,-1.88625 -3.51955,-3.64034c-0.24584,-2.29133 1.8304,-6.2105 1.8304,-6.2105z" data-paper-data="{&quot;origPos&quot;:null}" fill="#ff0000" stroke-width="3"/><path d="M257.84478,270.18895c0,0 -6.73699,0.77149 -11.82764,-0.66649c-3.90572,-1.10327 -12.05504,-4.44878 -12.05504,-4.44878c0,0 -0.56369,-2.81677 -0.16796,-4.33587c0.41688,-1.60029 2.25013,-3.65719 2.25013,-3.65719l23.56837,5.84473z" data-paper-data="{&quot;origPos&quot;:null}" fill="#976e57" stroke-width="2"/><path d="M248.89206,225.15993c0,0 1.43493,-4.48743 2.96668,-4.01411c4.51992,1.39672 9.43603,1.17485 13.13878,3.96756c1.53758,1.15966 0.89499,5.29989 0.89499,5.29989l-6.07594,31.79377c0,0 -0.5815,3.29058 -0.98704,5.17022c-0.43359,2.00966 -2.47071,4.61937 -4.59224,4.08556c-7.78959,-1.95993 -13.02917,-1.84196 -17.54653,-4.21954c-1.64575,-0.8662 -3.33136,-1.88626 -3.51954,-3.64034c-0.24584,-2.29133 1.83039,-6.2105 1.83039,-6.2105z" data-paper-data="{&quot;origPos&quot;:null}" fill="#4b4b4b" stroke-width="3"/></g><g><g><g fill="#582700"><path d="M276.4617,188.17762c0.13632,-0.06069 -5.35405,2.26302 -10.54896,4.46234c-4.61326,1.95305 -8.99354,3.80804 -8.99354,3.80804c0,0 -5.1118,-6.42235 -4.72038,-9.03369c0.31398,-2.0948 14.50281,-6.83814 14.86057,-7.18085c1.23872,-1.18665 14.83268,3.35103 17.14943,3.68245c3.76725,0.53888 9.11402,11.575 13.44075,18.78444c2.33348,3.88818 -30.78848,-10.24937 -21.18787,-14.52273z" stroke="#000000" stroke-width="3" stroke-linecap="round"/><path d="M278.70945,190.28712c-0.0029,0.58735 3.87002,3.27474 4.31686,3.61266c3.18657,2.4097 8.12105,5.61282 10.7609,8.80255c1.67195,2.02024 2.40492,1.06035 -0.42404,1.22136c-1.25278,0.0713 -3.96435,-1.40083 -5.10014,-1.91019c-4.79528,-2.15055 -11.04655,-4.86917 -14.33489,-8.71366c-1.19591,-1.39818 -0.54713,-7.22092 1.87118,-7.48048c0.17513,-0.11948 0.36896,-0.22056 0.57954,-0.29905c1.34339,-0.50077 2.85951,0.10734 3.38634,1.35828c0.62606,0.3449 0.44417,0.96486 0.06916,1.59479c-0.14186,0.43904 -0.41427,0.8391 -0.79234,1.1468c-0.19249,0.27715 -0.33179,0.51176 -0.33256,0.66697z" stroke="none" stroke-width="0.5" stroke-linecap="butt"/></g><path d="M242.543,206.68666c-1.80799,-4.16551 -0.71131,-3.14401 8.44958,-8.19617c9.16087,-5.05216 22.00284,-11.09258 22.00284,-11.09258c0,0 14.32694,17.78164 23.78547,14.6654c0.46659,-0.15373 -1.20906,6.1379 -2.85894,7.29298c-5.20819,3.6462 -18.21444,13.338 -18.21444,13.338c0,0 -9.89763,7.4106 -15.10336,8.71138c-5.20573,1.30077 -12.94355,-12.92814 -18.06117,-24.71897z" data-paper-data="{&quot;origPos&quot;:null}" fill="#582700" stroke="#000000" stroke-width="3" stroke-linecap="round"/><path d="M253.43603,197.58239c2.81846,-0.17608 18.53097,27.5745 16.37451,28.77831" fill="none" stroke="#000000" stroke-width="3" stroke-linecap="round"/><path d="M256.53929,196.34516c4.86787,-1.00413 19.12916,27.08432 16.17715,28.15942" fill="none" stroke="#000000" stroke-width="3" stroke-linecap="round"/><path d="M267.9563,180.06991c-3.21109,1.21157 -6.22504,2.83804 -9.44363,4.03783c-1.33169,0.49641 -5.38793,1.74882 -6.05939,2.93227c-0.15712,0.27693 0.89166,1.74654 1.04426,2.00844c1.12485,1.93059 2.43612,3.81077 3.35574,5.83533c0.88794,-1.40071 3.57824,-1.53144 5.06296,-1.94452c2.72188,-0.75726 5.66089,-1.85682 8.21184,-3.0583c0.85282,-0.40166 1.57827,-0.81972 2.32487,-1.13328c0.09178,-0.05962 0.18288,-0.11977 0.27326,-0.18045c0.37087,-0.14031 0.74197,-0.2801 1.11331,-0.41929l-0.00021,-0.00049l1.20169,-0.44794c0.33185,-0.12371 0.70633,0.02651 0.83648,0.33551c0.13015,0.30899 -0.03335,0.65977 -0.36521,0.78347l-1.20169,0.44794l-0.00023,-0.00053c-0.28464,0.10547 -0.56947,0.21051 -0.85451,0.31504c-0.06591,0.0334 -0.13227,0.06611 -0.19918,0.09836c-3.20644,2.13173 -7.23244,3.61908 -10.91819,4.884c-1.22534,0.42054 -2.85042,1.27238 -4.28295,1.51826c0.0596,0.02423 0.11924,0.04849 0.17885,0.07274c4.6102,4.53947 8.07954,10.33226 11.37951,15.74719c1.11191,2.65787 2.38807,5.22602 3.50867,7.8868c0.18956,0.45009 1.09265,2.21215 0.7785,2.96329c0.29063,-0.28634 0.72528,-0.6959 0.85186,-0.76113c0.70168,-0.36152 1.16095,-0.7757 1.8616,-1.20605c5.24326,-2.96239 10.0933,-6.42879 15.06593,-9.72938c1.56805,-1.62162 4.7824,-3.32733 5.39051,-5.65295c0.10219,-0.39078 -0.95371,-1.7846 -1.16416,-2.16676c-1.21002,-2.1975 -2.04473,-4.74558 -3.58233,-6.75204c-1.39985,-3.30035 -3.91989,-6.15765 -6.03674,-9.07967c-1.18064,-1.62973 -2.19633,-3.11238 -4.41615,-3.43974c-3.67888,0.00669 -7.63264,-1.56957 -11.1022,-2.68448c-1.00913,-0.32427 -1.82656,-0.93557 -2.81307,-1.20944zM266.6128,179.2915c0.00009,-0.00106 0.00021,-0.00214 0.00031,-0.00319c0.05794,-0.60059 0.70074,-0.5507 0.70074,-0.5507c0.18557,0.01606 0.36308,0.04263 0.53424,0.07774l0.41941,-0.15635c0,0 0.60085,-0.22398 0.83649,0.33552c0.04129,0.09805 0.05688,0.18578 0.05453,0.26382c0.65905,0.29394 1.28963,0.64523 2.04219,0.88222c3.40302,1.07169 7.1809,2.61746 10.78267,2.62184c2.95975,0.45245 4.15802,2.3728 5.77615,4.48403c2.06583,2.69537 4.40466,5.55681 5.70002,8.65552c1.68758,2.20217 2.45596,4.99582 3.84547,7.37012c0.32528,0.55583 1.17137,1.5184 1.05315,2.21097c-0.46097,2.70034 -4.0899,4.64689 -5.81883,6.46604c-4.98809,3.3781 -9.9479,6.86371 -15.24465,9.85521c-0.66821,0.39899 -3.47742,2.87389 -4.39695,2.22833c-0.36868,-0.25884 -0.42137,-2.48292 -0.66271,-3.05041c-1.22811,-2.88797 -2.56697,-5.67733 -3.78643,-8.55457c-3.18654,-5.22881 -6.52528,-10.88701 -10.95802,-15.28337c-0.14416,-0.05625 -0.28832,-0.11253 -0.43246,-0.1688l-0.67541,-0.05241c-0.24101,-0.01396 -0.46275,-0.15435 -0.55682,-0.37769c-0.106,-0.25169 -0.01719,-0.53105 0.19871,-0.69291l0.21808,-0.17139c-1.9058,-1.6291 -2.96435,-4.58448 -4.13875,-6.66073c-0.38018,-0.67215 -1.21852,-1.58526 -0.83364,-2.45482c0.69889,-1.57895 5.1889,-2.98696 6.77109,-3.57675c2.92495,-1.09034 5.68169,-2.53355 8.57137,-3.69732z" fill="#000000" stroke="none" stroke-width="0.5" stroke-linecap="butt"/><path d="M267.94061,180.03261c0.98651,0.27388 1.80824,0.88379 2.81739,1.20807c3.46956,1.11489 7.4488,2.69178 11.1277,2.6851c2.21983,0.32735 3.2481,1.81637 4.42873,3.4461c2.11685,2.92202 4.65249,5.80319 6.05233,9.10354c1.53761,2.00645 2.37211,4.57035 3.58215,6.76786c0.21045,0.38217 1.26534,1.77962 1.16317,2.1704c-0.60811,2.32563 -3.83003,4.04466 -5.39809,5.66629c-4.97261,3.30059 -9.85527,6.7822 -15.09853,9.74458c-0.70065,0.43035 -1.16327,0.84449 -1.86495,1.20602c-0.12658,0.06521 -0.56262,0.4747 -0.85326,0.76105c0.31415,-0.75113 -0.59099,-2.51341 -0.78055,-2.96349c-1.1206,-2.66078 -2.40985,-5.23258 -3.52177,-7.89045c-3.29995,-5.41492 -6.79248,-11.25172 -11.40269,-15.79118c-0.0596,-0.02423 -0.11921,-0.04857 -0.17881,-0.07282c1.43253,-0.24589 3.05961,-1.10412 4.28496,-1.52465c3.68575,-1.26491 7.74053,-2.77669 10.94696,-4.90841c0.0669,-0.03224 0.1341,-0.06517 0.2,-0.09855c0.28504,-0.10453 0.57332,-0.21023 0.85796,-0.31573l0.00022,0.00052l1.20642,-0.44846c0.33185,-0.12371 0.49853,-0.39419 0.36841,-0.7032c-0.13015,-0.30899 -0.50183,-0.45937 -0.83366,-0.33567l-1.19741,0.44737l0.00021,0.00049c-0.37136,0.1392 -0.73842,0.27806 -1.10928,0.41836c-0.09038,0.06067 -0.18041,0.12051 -0.27217,0.18014c-0.74663,0.3136 -1.46352,0.72802 -2.31636,1.1297c-2.55097,1.20146 -5.47309,2.28413 -8.19497,3.0414c-1.48472,0.41307 -4.25512,0.51621 -5.14307,1.91691c-0.91962,-2.02455 -2.22775,-3.91257 -3.3526,-5.84315c-0.15262,-0.26193 -1.20031,-1.73343 -1.04318,-2.01036c0.67148,-1.18345 4.73376,-2.44353 6.06546,-2.93995c3.21859,-1.1998 6.24819,-2.83625 9.45927,-4.04781z" data-paper-data="{&quot;noHover&quot;:false,&quot;origItem&quot;:[&quot;Path&quot;,{&quot;applyMatrix&quot;:true,&quot;segments&quot;:[[[230.82308,152.52668],[0,0],[-0.93988,0.74338]],[[228.33766,155.1429],[0.94139,-0.81156],[-3.23664,2.79023]],[[217.57953,163.04819],[3.97209,-1.58115],[-2.24615,1.33801]],[[214.37799,168.94085],[0.53327,-2.39813],[-0.95612,4.29976]],[[211.99064,182.06795],[0.01066,-4.42845],[-0.7472,2.98879]],[[211.1937,191.43817],[0.307,-3.06867],[-0.05339,0.53367]],[[210.92223,194.45142],[-0.2878,-0.40863],[1.71279,2.43186]],[[219.30646,198.67289],[-2.42854,-1.20161],[6.86452,1.67648]],[[239.98146,203.43859],[-7.00284,-1.16771],[0.95146,0.19601]],[[242.53788,204.03192],[-0.9213,-0.11581],[0.16621,0.02089]],[[243.80278,204.54585],[-0.44366,-0.20624],[-0.68022,-0.7346]],[[243.29624,200.77631],[0,0.60336],[0,-3.56681]],[[243.49813,190.12314],[0.00805,3.55968],[1.09986,-7.69905]],[[248.62011,166.96343],[-2.91121,7.25063],[0.05329,-0.05383]],[[248.78,166.80192],[-0.05329,0.05384],[-1.65725,0.33382]],[[243.46938,166.89261],[1.51307,-0.04199],[-4.5512,0.1263]],[[229.47086,165.94945],[4.42793,1.08501],[-0.08683,-0.00846]],[[229.21129,165.92152],[0.08627,0.01022],[-0.35502,0.00201]],[[228.14624,165.92558],[0.35502,-0.00073],[0,0]],[228.14624,165.92629],[[226.64624,165.92629],[0,0],[-0.41422,0]],[[225.89624,165.17629],[0,0.41422],[0,-0.41422]],[[226.64624,164.42629],[-0.41422,0],[0,0]],[228.14624,164.42629],[[228.14624,164.42695],[0,0],[0.46388,0.00087]],[[229.53787,164.4319],[-0.46387,-0.00238],[0.12507,0.03126]],[[229.91467,164.52296],[-0.12612,-0.02945],[0.948,0.04085]],[[232.93787,164.8319],[-1.10259,-0.09705],[3.29808,0.29029]],[[243.18703,164.82862],[-3.28065,0.2982],[1.78951,-0.16266]],[[249.53285,164.89489],[-1.59443,-1.23936],[0.07225,-2.74287]],[[250.50186,156.68464],[-0.33637,2.72263],[0.04564,-0.36937]],[[250.71591,153.90661],[0.29535,0.25299],[-1.26215,-1.08115]],[[242.84624,153.12628],[1.66228,0],[-4.0176,0]],[[230.82306,152.52665],[4.01487,0.01687],[0,0]]],&quot;closed&quot;:true,&quot;fillColor&quot;:[0,0,0,1]}]}" fill="#66c8ff" stroke="none" stroke-width="0.5" stroke-linecap="butt"/><path d="M264.998,211.47796c-0.32202,-0.13559 -0.45832,-0.45925 -0.45832,-0.45925l-0.31417,-0.74598c-0.06821,-0.16248 -0.13991,-0.3229 -0.21473,-0.48139l-0.33632,-0.53825l0.0481,-0.02642c-1.97356,-2.50476 -4.39364,-5.35297 -5.93495,-8.23147c-0.02822,-0.0491 -0.0561,-0.09837 -0.0837,-0.14779c-0.07433,-0.08734 -0.1482,-0.17508 -0.22151,-0.26326l-0.05289,0.04156l-0.73441,-0.81683c-0.06364,-0.0675 -0.11601,-0.14628 -0.15333,-0.23488c-0.08791,-0.20875 -0.07533,-0.43177 0.01603,-0.62248l-0.01157,0.00431l-0.29458,-0.69947c-0.20073,-0.21438 -0.40265,-0.42601 -0.60554,-0.63472c0,0 -0.57547,-0.59364 0.06434,-1.1352c0.63979,-0.54156 1.21525,0.05209 1.21525,0.05209c0.01614,0.01669 0.03225,0.03338 0.04838,0.05009c0.20987,0.03716 0.40105,0.14683 0.53024,0.3117l0.53153,0.64662l-0.02067,0.01486l0.05464,0.02957c0.11891,0.19512 0.24099,0.38829 0.36575,0.57982c1.67714,1.89536 3.25175,3.95775 4.64107,6.10551c0.44306,0.51898 0.87002,1.05063 1.27023,1.6038c2.3987,3.92993 5.03935,8.26504 6.50314,12.5802c0.66839,1.97038 1.40089,3.22874 1.35299,4.92986l0.27387,-0.01511l0.05958,1.0686c0.02771,0.34236 -0.18378,0.67755 -0.54416,0.81189c-0.44245,0.16493 -0.94178,-0.03535 -1.11528,-0.44735l-0.35907,-0.85256c-1.75236,-4.18629 -3.75131,-8.29056 -5.51994,-12.47809z" fill="#ffffff" stroke="none" stroke-width="0.5" stroke-linecap="butt"/><g fill="#fffc96" stroke="#000000" stroke-width="2" stroke-linecap="round"><path d="M269.86367,192.22014c0,0 -1.23164,-4.28065 1.87953,-5.1554c4.97773,-1.39956 11.99318,31.21803 6.91631,32.95921c-2.0743,0.71142 -3.51014,-2.23664 -3.51014,-2.23664l1.8209,-0.86605c0,0 0.1817,-6.32636 -1.26602,-13.9607c-1.42765,-7.52854 -3.85597,-12.21879 -3.85597,-12.21879z"/><path d="M262.00823,196.95935c0,0 -3.64363,-2.10716 -1.80143,-3.68242c3.86699,-3.30671 35.83378,18.19728 31.42182,20.48937c-2.67199,1.38816 -5.14744,-1.38118 -5.14744,-1.38118l1.31644,-0.67276c0,0 -4.12949,-3.98305 -11.44916,-8.73667c-7.31966,-4.75365 -13.19226,-6.78519 -13.19226,-6.78519z" data-paper-data="{&quot;index&quot;:null}"/></g></g><g data-paper-data="{&quot;index&quot;:null}"><g data-paper-data="{&quot;index&quot;:null}"><path d="M248.85169,198.45974c2.34984,-1.15669 4.64767,-6.99495 5.78271,-4.96468c0.57813,1.03416 10.7447,20.11817 10.56886,21.39412c-0.16943,1.22897 -0.80562,2.26447 -1.9585,2.83198c-0.78438,0.38609 -2.18821,0.62736 -3.23863,0.44887c-2.09646,-0.35621 -17.40456,-16.75513 -18.16073,-18.10772c-1.13505,-2.03029 4.65647,-0.44588 7.00631,-1.60256z" fill="#0091d4" stroke="#000000" stroke-width="1.5" stroke-linecap="butt"/><g stroke-linecap="butt"><path d="M245.11847,191.73309c4.25736,-2.09565 8.89385,-1.67443 10.35591,0.9408c1.46207,2.61522 -0.80394,6.43413 -5.06126,8.5298c-4.25736,2.09564 -8.89388,1.67442 -10.35595,-0.94081c-1.46207,-2.61522 0.80395,-6.43413 5.06129,-8.52977z" fill="#0091d4" stroke="#000000" stroke-width="1.5"/><path d="M246.41761,201.49631c0,0 -1.79252,0.44029 -3.59269,-0.10849c-0.85437,-0.27362 -2.46989,-1.60175 -2.46989,-1.60175l4.27274,-0.26545z" fill="#00aeff" stroke="none" stroke-width="0"/><path d="M250.10172,200.39434l-1.8871,0.86922c0,0 -0.63729,-0.53858 -0.87471,-0.90344c-0.20277,-0.31161 -0.60815,-1.28241 -0.60815,-1.28241l1.70256,-0.48802z" fill="#00aeff" stroke="none" stroke-width="0"/></g><g><path d="M248.46592,197.47687c-5.87315,2.89097 -13.94912,2.05109 -17.0038,-3.41282c-3.05469,-5.46396 -1.05876,-11.38066 4.81434,-14.27161c5.87315,-2.89097 13.41149,-0.95331 16.46617,4.51062c3.05469,5.46396 1.5964,10.28285 -4.27668,13.17381z" fill="#00699a" stroke="#000000" stroke-width="1.5" stroke-linecap="butt"/><path d="M234.71134,181.53583c0,0 2.15274,0.58796 5.08425,1.65123c2.92439,1.0607 6.06605,3.25333 7.40074,5.64065c2.67262,4.78054 2.14345,7.29536 -2.12377,9.39587c-2.07601,1.02188 -4.58812,0.92768 -6.66841,0.08325c-2.91991,-1.18524 -5.90935,-3.29668 -7.4249,-6.00761c-2.67262,-4.78054 3.7321,-10.76345 3.7321,-10.76345z" fill="#0091d4" stroke="none" stroke-width="0" stroke-linecap="butt"/><path d="M251.96475,185.15531c0,0 -1.25178,4.8664 -8.22757,8.01055c-6.91912,3.11861 -11.91403,0.79683 -11.91403,0.79683" fill="none" stroke="#000000" stroke-width="0.8" stroke-linecap="round"/><path d="M253.33025,191.05683c0,0 -1.37058,3.08028 -8.06063,5.26275c-4.64221,1.51441 -9.79467,1.38127 -9.79467,1.38127" fill="none" stroke="#000000" stroke-width="0.75" stroke-linecap="round"/><path d="M250.12826,182.66867c0,0 -0.92094,2.8595 -7.76088,5.51279c-7.11145,2.75862 -11.97728,1.08931 -11.97728,1.08931" fill="none" stroke="#000000" stroke-width="0.8" stroke-linecap="round"/><path d="M231.00104,185.44101c0,0 4.46401,-2.25257 9.39574,-3.32606c3.74422,-0.81504 8.97543,-0.66563 8.97543,-0.66563" fill="none" stroke="#000000" stroke-width="0.8" stroke-linecap="round"/><path d="M241.06814,179.10162c0,0 4.19241,0.97999 6.96287,6.4677c2.96886,5.88072 2.28985,10.08269 2.28985,10.08269" fill="none" stroke="#000000" stroke-width="0.8" stroke-linecap="round"/><path d="M247.35557,197.66523c0,0 -1.84307,-2.82146 -2.71247,-4.61868c-0.73195,-1.51315 -1.57044,-4.66567 -2.78431,-7.40544c-1.38034,-3.11545 -3.10046,-5.74852 -3.10046,-5.74852" fill="none" stroke="#000000" stroke-width="0.8" stroke-linecap="round"/><path d="M244.61184,198.8774c0,0 -4.38734,-2.64005 -7.5,-8.61404c-1.98318,-3.80622 -1.30955,-9.53843 -1.30955,-9.53843" fill="none" stroke="#000000" stroke-width="0.8" stroke-linecap="round"/><path d="M238.49656,198.98133c0,0 -3.08015,-2.13916 -5.11688,-7.95532c-1.41434,-4.03891 -0.71764,-8.20171 -0.71764,-8.20171" fill="none" stroke="#000000" stroke-width="0.8" stroke-linecap="round"/><path d="M232.61392,192.0511c-0.41876,0.20613 -0.96197,0.00882 -1.2133,-0.44071c-0.25132,-0.44952 -0.11557,-0.98105 0.30322,-1.1872c0.41876,-0.20613 0.96198,-0.00884 1.2133,0.4407c0.25132,0.44952 0.11556,0.98108 -0.30321,1.18722z" fill="#00aeff" stroke="none" stroke-width="0" stroke-linecap="butt"/><path d="M231.76079,188.59606c-0.24158,0.11892 -0.53932,0.03313 -0.66496,-0.19164c-0.12566,-0.22475 -0.03167,-0.50337 0.20993,-0.6223c0.24158,-0.11892 0.53931,-0.03311 0.66496,0.19163c0.12566,0.22475 0.03169,0.50337 -0.20991,0.62231z" fill="#00aeff" stroke="none" stroke-width="0" stroke-linecap="butt"/></g></g><path d="M246.94052,202.01347c5.91904,9.39543 6.20957,11.39176 6.20957,11.39176c0.67297,1.21491 -0.65827,1.71712 -0.65827,1.71712c0,0 -2.45658,1.26757 -4.02892,2.07888c-1.03245,0.53276 -2.64553,1.36508 -2.64553,1.36508c0,0 -1.10457,0.36754 -1.4567,-0.30319c-2.11831,-4.03521 -4.37356,-7.78385 -5.22995,-9.90658c-0.28548,-0.70757 0.30602,-1.94462 0.30602,-1.94462l4.65486,-3.08376c0,0 1.8307,-1.36694 2.84889,-1.31464z" fill="#582700" stroke="#000000" stroke-width="3" stroke-linecap="round"/><path d="M259.74662,196.96304c11.75983,19.67699 12.48623,23.76203 12.48623,23.76203c1.35129,2.53522 -1.03955,3.42359 -1.03955,3.42359c0,0 -4.3787,2.33187 -7.18126,3.8244c-1.84029,0.98005 -4.71552,2.51126 -4.71552,2.51126c0,0 -1.9885,0.63723 -2.69892,-0.76049c-4.27402,-8.40895 -8.77105,-16.24928 -10.54671,-20.6473c-0.59188,-1.466 0.37189,-3.92082 0.37189,-3.92082l8.23076,-5.80402c0,0 3.22206,-2.59585 5.09305,-2.38863z" fill="#582700" stroke="#000000" stroke-width="3" stroke-linecap="round"/></g></g><path d="M242.34674,169.15413c1.41069,-1.63464 2.70924,-2.84337 2.90038,-2.69979c0.19114,0.14358 -0.7975,1.58509 -2.20819,3.21973c-1.41069,1.63464 -2.70924,2.84338 -2.90038,2.6998c-0.19114,-0.14356 0.79751,-1.5851 2.2082,-3.21974z" data-paper-data="{&quot;index&quot;:null}" fill="none" stroke="#000000" stroke-width="2.5" stroke-linecap="butt"/><g><g stroke="#000000" stroke-width="3" stroke-linecap="round"><path d="M183.63759,203.75173l24.84485,-17.60308c0,0 4.77166,-3.27414 5.86895,-2.79602c3.29184,1.43432 7.16145,6.76686 12.13603,11.34147c0.82687,0.76038 -3.02103,5.23366 -3.02103,5.23366c0,0 -6.38974,6.78226 -10.47949,11.12326c-6.22829,6.61091 -15.95923,16.93967 -15.95923,16.93967c0,0 -4.79194,5.44129 -6.19758,3.93136c0,0 -9.65193,-3.80793 -18.65275,-18.17817c2.52769,-3.79308 11.46024,-9.99218 11.46024,-9.99218z" data-paper-data="{&quot;origPos&quot;:null}" fill="#582700"/><path d="M182.16897,205.25509l18.39174,18.57586l-2.54602,2.27736l-18.55448,-18.37669z" data-paper-data="{&quot;origPos&quot;:null}" fill="none"/></g><path d="M183.04114,205.47049l30.88538,-21.88007l11.33369,11.40989l0.41544,1.36417l-24.61486,27.31436z" fill="#66c8ff" stroke="#000000" stroke-width="1" stroke-linecap="round"/><path d="M179.96119,207.55548l1.75376,-1.55139l18.41388,18.28151l-1.75374,1.5514z" fill="#ffffff" stroke="none" stroke-width="0" stroke-linecap="butt"/></g></g></g></svg>