<svg version="1.1" xmlns="http://www.w3.org/2000/svg" xmlns:xlink="http://www.w3.org/1999/xlink" width="189.26654" height="221.55319" viewBox="0,0,189.26654,221.55319"><g transform="translate(-145.36673,-69.22342)"><g data-paper-data="{&quot;isPaintingLayer&quot;:true}" fill-rule="nonzero" stroke-linejoin="miter" stroke-miterlimit="10" stroke-dasharray="" stroke-dashoffset="0" style="mix-blend-mode: normal"><path d="M145.36673,290.7766v-221.55318h189.26654v221.55319z" fill="none" stroke="none" stroke-width="NaN" stroke-linecap="butt"/><g data-paper-data="{&quot;origRot&quot;:0}" stroke="#000000" stroke-linecap="round"><path d="M242.83253,217.51233c0,0 -0.90607,-4.74685 0.63396,-4.99118c4.54448,-0.72093 8.65796,-3.10029 13.16606,-2.18043c1.872,0.38196 3.29271,4.45997 3.29271,4.45997l9.93041,31.82107c0,0 1.06839,3.27243 1.61571,5.17421c0.58518,2.03332 0.08,5.32623 -1.99504,5.77619c-7.6189,1.65216 -12.05947,4.0795 -17.06898,3.90056c-1.82504,-0.0652 -3.7576,-0.25372 -4.75466,-1.77764c-1.30247,-1.99064 -1.38747,-6.50068 -1.38747,-6.50068z" data-paper-data="{&quot;origPos&quot;:null}" fill="#ff0000" stroke-width="3"/><path d="M272.10579,255.11064c0,0 -5.41442,3.68896 -10.46835,4.62472c-3.87757,0.71795 -12.46519,1.25979 -12.46519,1.25979c0,0 -1.82554,-2.33141 -2.20955,-3.89849c-0.40453,-1.65082 0.18903,-4.34696 0.18903,-4.34696l23.01129,-5.077z" data-paper-data="{&quot;origPos&quot;:null}" fill="#976e57" stroke-width="2"/><path d="M242.97264,217.81486c0,0 -0.90607,-4.74685 0.63397,-4.99118c4.54447,-0.72093 8.65796,-3.10029 13.16608,-2.18041c1.872,0.38196 3.29271,4.45996 3.29271,4.45996l9.93041,31.82107c0,0 1.06842,3.27244 1.61574,5.1742c0.58518,2.03332 0.07999,5.32621 -1.99504,5.77619c-7.6189,1.65216 -12.05947,4.07951 -17.06898,3.90057c-1.82504,-0.0652 -3.7576,-0.25373 -4.75465,-1.77765c-1.30247,-1.99064 -1.38748,-6.50069 -1.38748,-6.50069z" data-paper-data="{&quot;origPos&quot;:null}" fill="#474747" stroke-width="3"/></g><g data-paper-data="{&quot;index&quot;:null,&quot;origRot&quot;:0}" stroke="#000000" stroke-linecap="round"><path d="M233.48229,252.80478c0,0 0.25285,4.47474 -0.89693,6.54314c-0.88021,1.58346 -2.79327,1.91284 -4.60835,2.11212c-4.98215,0.54697 -9.5921,-1.53034 -17.31347,-2.60502c-2.10295,-0.2927 -2.85326,-3.51796 -2.42194,-5.57572c0.40342,-1.92461 1.22384,-5.24572 1.22384,-5.24572l7.52042,-32.2605c0,0 1.11144,-4.14524 2.94962,-4.66182c4.42669,-1.24405 8.70685,0.80979 13.29264,1.18874c1.55405,0.12842 1.00589,4.89837 1.00589,4.89837z" data-paper-data="{&quot;origPos&quot;:null}" fill="#ff0000" stroke-width="3"/><path d="M209.23773,249.09758l23.32728,3.33207c0,0 0.79376,2.6275 0.51395,4.29294c-0.2656,1.58097 -1.91153,4.02559 -1.91153,4.02559c0,0 -8.6043,0.09687 -12.52479,-0.32831c-5.10991,-0.55419 -10.78543,-3.80957 -10.78543,-3.80957z" data-paper-data="{&quot;origPos&quot;:null}" fill="#976e57" stroke-width="2.5"/><path d="M233.36522,253.11487c0,0 0.25285,4.47474 -0.89693,6.54314c-0.88021,1.58346 -2.79327,1.91285 -4.60835,2.11213c-4.98215,0.54697 -9.59209,-1.53033 -17.31347,-2.60502c-2.10295,-0.2927 -2.85326,-3.51796 -2.42194,-5.57571c0.40342,-1.92461 1.22384,-5.24572 1.22384,-5.24572l7.52042,-32.2605c0,0 1.11143,-4.14524 2.94962,-4.66182c4.42669,-1.24405 8.70687,0.80979 13.29265,1.18874c1.55405,0.12842 1.00588,4.89837 1.00588,4.89837c0,0 -0.19008,9.00336 -0.31173,14.76599c-0.17172,8.13325 -0.44,20.84043 -0.44,20.84043z" data-paper-data="{&quot;origPos&quot;:null}" fill="#474747" stroke-width="1.5"/></g><g><g><g data-paper-data="{&quot;origRot&quot;:0}" stroke="#000000" stroke-width="3" stroke-linecap="round"><path d="M283.73134,189.84599c1.29045,1.84056 -6.02432,5.28844 -6.02432,5.28844c0,0 -19.09062,9.66731 -28.08752,14.27188c-4.06847,1.37022 -25.39817,-27.32044 -24.65819,-32.57337c0.32988,-2.34159 6.49235,-9.10891 8.33488,-8.8397c3.50712,0.51243 15.70712,10.02034 15.70712,10.02034l-3.03801,2.36066l8.54574,-5.40379c0,0 9.38562,-7.16996 14.15166,-9.05236c2.64326,-1.04399 15.06862,23.92787 15.06862,23.92787z" data-paper-data="{&quot;origPos&quot;:null}" fill="#582700"/><path d="M275.84808,194.4568l-14.83032,-23.22793" fill="none"/><path d="M257.80582,173.54669l15.05388,23.08816" data-paper-data="{&quot;origPos&quot;:null}" fill="none"/></g><path d="M276.01655,195.02538l-2.18604,1.38591l-15.32016,-23.66526l2.18604,-1.38591z" fill="#ffffff" stroke="none" stroke-width="0" stroke-linecap="butt"/><path d="M249.43992,209.66362l-7.87859,-6.49245l-12.80505,-17.91768l-2.96853,-7.18458l0.91322,-4.60238l5.61583,-4.01785l1.12317,-0.80358l14.25709,8.98077l-2.11101,1.79238l1.0827,1.48197l10.32731,-6.54245l15.81407,22.81673l-22.3824,11.50028z" fill="#ffcb66" stroke="#000000" stroke-width="0.5" stroke-linecap="round"/></g><g fill="none" stroke="none" stroke-width="1" stroke-linecap="butt" font-family="sans-serif" font-weight="normal" font-size="12" text-anchor="start"/></g><g><g><path d="M215.42745,174.14497c0,0 1.77527,-14.43303 3.94819,-15.00841c6.51876,-1.72616 21.48211,-0.98475 31.47516,-1.11115c1.54483,-0.01955 3.05363,13.49588 3.05363,13.49588l2.19482,30.60294c0,0 0.43901,14.95363 -1.24625,14.97494c-15.0018,0.18974 -32.57387,1.26469 -39.27136,0.5084c-2.23248,-0.25209 -1.59931,-16.01915 -1.59931,-16.01915z" data-paper-data="{&quot;origPos&quot;:null}" fill="#ffcb66" stroke="#000000" stroke-width="3.5" stroke-linecap="round"/><path d="M234.57471,182.10227c-1.30515,0.0165 -1.33728,-2.47078 -1.33728,-2.47078c-0.06663,-5.15884 -0.15467,-11.97586 -0.2213,-17.1347c0,0 -0.03213,-2.4873 1.27302,-2.50381c1.30515,-0.0165 1.33728,2.47078 1.33728,2.47078c0.06663,5.15884 0.13326,10.31767 0.19989,15.47651l0.02142,1.65819c0,0 0.03213,2.4873 -1.27302,2.50381z" fill="#ffffff" stroke="none" stroke-width="0.5" stroke-linecap="butt"/><path d="M246.78164,188.28171c-1.30515,0.0165 -1.34549,-3.10824 -1.34549,-3.10824c-0.0837,-6.48095 -0.19432,-15.04506 -0.27801,-21.52601c0,0 -0.04036,-3.12474 1.26479,-3.14125c1.30515,-0.0165 1.34549,3.10824 1.34549,3.10824c0.0837,6.48095 0.16741,12.9619 0.25111,19.44285l0.0269,2.08316c0,0 0.04036,3.12474 -1.26479,3.14125z" fill="#ffffff" stroke="none" stroke-width="0.5" stroke-linecap="butt"/></g><g stroke="#000000" stroke-width="0.5" stroke-linecap="butt"><path d="M249.71817,198.21992c0.08727,6.75718 -4.5051,12.29394 -10.25734,12.36669c-5.75224,0.07275 -10.48611,-5.34605 -10.57339,-12.10324c-0.08727,-6.75718 4.5051,-12.29394 10.25734,-12.36669c5.75224,-0.07275 10.48611,5.34605 10.57339,12.10324z" fill="#ffa924"/><path d="M242.24944,187.0257c0.00057,0.01119 0.00094,0.02263 0.00109,0.03429c0.00807,0.62466 -0.62316,0.63265 -0.62316,0.63265l-0.12623,0.0016c-0.46122,0.00583 -2.56333,0.06032 -2.88021,-0.07099c-0.26452,-0.10962 -0.21285,-0.54044 -0.4049,-0.75122c-0.1845,-0.20249 -0.44486,-0.32585 -0.68994,-0.45043c-0.38973,-0.1981 -0.91837,-0.18815 -1.20742,-0.51399c-0.267,-0.301 -0.30432,-0.76802 -0.2847,-1.16806c0.09211,-1.87879 1.25596,-1.91274 2.76186,-1.76249c0.45482,0.09313 0.92345,0.1352 1.36445,0.27937c0.19401,0.06342 0.31225,0.29016 0.51171,0.33396c0.14178,0.03115 0.27309,-0.10126 0.41531,-0.1304c0.00606,-0.00125 1.76408,-0.27245 1.7815,-0.27513c1.18853,-0.18234 2.46126,-0.24727 3.66401,-0.17623c0.7664,0.04527 2.49891,0.2111 2.95032,0.96477c0.64286,1.07333 -1.17556,1.8281 -1.63067,2.01896c-1.34684,0.56485 -2.50689,0.239 -3.88376,0.4154c-0.469,0.06009 -1.21972,0.3956 -1.71925,0.61792z" fill="#1cc735"/></g></g><path d="M246.56009,160.82249c-12.21322,-0.14435 -24.05627,-0.32045 -28.87375,-1.42994c-4.40288,-1.01401 -5.67422,-3.80313 -5.67422,-3.80313c0,0 -1.72037,-2.47235 -1.77309,-4.00647c-0.15812,-4.60237 0.01306,-17.75165 1.22121,-29.0656c0.04032,-0.3776 0.0768,-0.58836 0.13978,-0.96292c0.18893,-1.12366 1.1142,-5.48098 1.1142,-5.48098c0,0 3.25979,-1.58814 5.02094,-2.0229c5.28345,-1.30432 18.59843,0.47998 32.64613,1.20738c1.27324,0.06593 3.41927,1.79514 3.41927,1.79514c0,0 1.48582,3.17129 1.39203,5.15266c-0.60642,12.80977 -1.32499,26.98069 -1.70358,30.21575c-0.12618,1.07836 -2.07756,5.22575 -2.07756,5.22575z" fill="#582600" stroke="#000000" stroke-width="2.5" stroke-linecap="round"/><g><g data-paper-data="{&quot;index&quot;:null}"><path d="M265.41807,166.86352c2.04922,-0.93669 4.25456,-6.09948 5.1336,-4.21614c0.44775,0.95931 8.28288,18.63935 8.07863,19.7825c-0.19676,1.10106 -0.7825,2.00637 -1.78791,2.46594c-0.68404,0.31265 -1.88902,0.46649 -2.77531,0.25767c-1.76886,-0.41673 -14.09441,-15.90811 -14.68003,-17.1628c-0.87904,-1.88336 3.98177,-0.19049 6.031,-1.12718z" fill="#e99b00" stroke="#000000" stroke-width="1.5" stroke-linecap="butt"/><g stroke-linecap="butt"><path d="M262.54471,160.64706c3.71274,-1.69707 7.6404,-1.10616 8.77271,1.3198c1.13232,2.42595 -0.95949,5.76834 -4.67222,7.46541c-3.71274,1.69706 -7.64042,1.10616 -8.77274,-1.31981c-1.13232,-2.42595 0.9595,-5.76833 4.67224,-7.46538z" fill="#ffb727" stroke="#000000" stroke-width="1.5"/><path d="M263.23248,169.51453c0,0 -1.54429,0.31571 -3.05278,-0.26127c-0.71535,-0.28572 -2.03336,-1.55742 -2.03336,-1.55742l3.64749,-0.04515z" fill="#ffd683" stroke="none" stroke-width="0"/><path d="M266.41484,168.68788l-1.64312,0.6984c0,0 -0.51929,-0.5149 -0.70572,-0.85488c-0.15922,-0.29036 -0.46267,-1.18464 -0.46267,-1.18464l1.46979,-0.36285z" fill="#ffd683" stroke="none" stroke-width="0"/></g><g><path d="M265.16341,166.00348c-5.1218,2.34112 -11.9586,1.21608 -14.32433,-3.85242c-2.36573,-5.06853 -0.41396,-10.31581 4.70781,-12.65693c5.1218,-2.34112 11.45409,-0.25011 13.81982,4.8184c2.36573,5.06853 0.91849,9.34981 -4.20327,11.69092z" fill="#e99b00" stroke="#000000" stroke-width="1.5" stroke-linecap="butt"/><path d="M254.13114,150.93598c0,0 1.80683,0.62837 4.25606,1.721c2.44327,1.08997 5.02304,3.21105 6.05669,5.42561c2.06984,4.43457 1.51189,6.67936 -2.20943,8.38038c-1.81044,0.82753 -3.94425,0.62828 -5.67845,-0.22817c-2.43414,-1.20212 -4.88784,-3.24305 -6.06157,-5.75775c-2.06984,-4.43457 3.63669,-9.54106 3.63669,-9.54106z" fill="#ffb727" stroke="none" stroke-width="0" stroke-linecap="butt"/><path d="M268.65247,155.02393c0,0 -1.27354,4.33355 -7.34456,6.85294c-6.02169,2.49893 -10.17303,0.17703 -10.17303,0.17703" fill="none" stroke="#000000" stroke-width="0.8" stroke-linecap="round"/><path d="M269.56195,160.41041c0,0 -1.2982,2.71668 -7.0849,4.38145c-4.01539,1.15518 -8.39445,0.80071 -8.39445,0.80071" fill="none" stroke="#000000" stroke-width="0.75" stroke-linecap="round"/><path d="M267.196,152.69695c0,0 -0.9061,2.53797 -6.8405,4.62067c-6.16996,2.16539 -10.23939,0.43804 -10.23939,0.43804" fill="none" stroke="#000000" stroke-width="0.8" stroke-linecap="round"/><path d="M250.79992,154.32824c0,0 3.8953,-1.82923 8.13819,-2.57344c3.22125,-0.56503 7.66665,-0.19232 7.66665,-0.19232" fill="none" stroke="#000000" stroke-width="0.8" stroke-linecap="round"/><path d="M259.6384,149.0667c0,0 3.52583,1.07481 5.64869,6.15185c2.27487,5.44062 1.5172,9.20076 1.5172,9.20076" fill="none" stroke="#000000" stroke-width="0.8" stroke-linecap="round"/><path d="M264.19463,166.10078c0,0 -1.44773,-2.62936 -2.11068,-4.29036c-0.55816,-1.39845 -1.13679,-4.28081 -2.05256,-6.80782c-1.04134,-2.87354 -2.39252,-5.32734 -2.39252,-5.32734" fill="none" stroke="#000000" stroke-width="0.8" stroke-linecap="round"/><path d="M261.80782,167.06962c0,0 -3.62069,-2.5814 -6.01393,-8.11272c-1.52481,-3.52417 -0.70625,-8.66515 -0.70625,-8.66515" fill="none" stroke="#000000" stroke-width="0.8" stroke-linecap="round"/><path d="M256.59922,166.88525c0,0 -2.52968,-2.07004 -4.01407,-7.41003c-1.03078,-3.70823 -0.25973,-7.43224 -0.25973,-7.43224" fill="none" stroke="#000000" stroke-width="0.8" stroke-linecap="round"/><path d="M251.88961,160.36525c-0.36519,0.16693 -0.81904,-0.03577 -1.01367,-0.45281c-0.19463,-0.41699 -0.05636,-0.89036 0.30885,-1.0573c0.36519,-0.16693 0.81905,0.03577 1.01367,0.4528c0.19463,0.41699 0.05636,0.89038 -0.30884,1.05731z" fill="#ffd683" stroke="none" stroke-width="0" stroke-linecap="butt"/><path d="M251.31145,157.20929c-0.21069,0.09631 -0.46038,0.00536 -0.55769,-0.20315c-0.09732,-0.20849 -0.00542,-0.45559 0.20527,-0.55189c0.21068,-0.0963 0.46038,-0.00534 0.55769,0.20315c0.09732,0.20849 0.00542,0.45559 -0.20529,0.55189z" fill="#ffd683" stroke="none" stroke-width="0" stroke-linecap="butt"/></g></g><path d="M262.27364,170.04181c4.63509,8.74576 4.79689,10.56008 4.79689,10.56008c0.52071,1.12671 -0.63368,1.51926 -0.63368,1.51926c0,0 -2.14482,1.03188 -3.51762,1.69233c-0.90143,0.43369 -2.30979,1.11127 -2.30979,1.11127c0,0 -0.95573,0.28135 -1.22668,-0.3398c-1.63003,-3.73692 -3.38883,-7.22151 -4.02678,-9.1756c-0.21264,-0.65136 0.34365,-1.74052 0.34365,-1.74052l4.09332,-2.57047c0,0 1.61644,-1.14999 2.48069,-1.0565z" fill="#582700" stroke="#000000" stroke-width="3" stroke-linecap="round"/><path d="M273.42604,166.07425c9.16564,18.28747 9.60899,22.00606 9.60899,22.00606c1.04147,2.34873 -1.03119,3.04149 -1.03119,3.04149c0,0 -3.82612,1.90468 -6.27499,3.12376c-1.60805,0.8005 -4.12042,2.0512 -4.12042,2.0512c0,0 -1.71949,0.48447 -2.26426,-0.80886c-3.27737,-7.78095 -6.76884,-15.05906 -8.09174,-19.10772c-0.44097,-1.34955 0.48428,-3.52045 0.48428,-3.52045l7.25283,-4.86206c0,0 2.85309,-2.19542 4.43646,-1.92338z" fill="#582700" stroke="#000000" stroke-width="3" stroke-linecap="round"/></g><path d="M247.7967,140.38733c0.1629,-3.44118 0.71258,-6.21147 1.22774,-6.18758c0.51516,0.02387 0.80073,2.83289 0.63783,6.27405c-0.1629,3.44118 -0.71258,6.21148 -1.22774,6.18759c-0.51516,-0.02387 -0.80073,-2.83289 -0.63783,-6.27406z" fill="none" stroke="#000000" stroke-width="2.5" stroke-linecap="butt"/><path d="M241.19864,140.77969c0.16593,-3.50492 0.61366,-6.3317 1.00002,-6.31378c0.38637,0.01791 0.56509,2.87373 0.39917,6.37864c-0.16593,3.50492 -0.61362,6.33168 -1,6.31377c-0.38637,-0.01791 -0.56509,-2.87371 -0.39918,-6.37863z" fill="none" stroke="#000000" stroke-width="2.5" stroke-linecap="butt"/><path d="M211.53186,116.0876l0.6533,-12.98391l44.2056,2.17819l-0.6533,12.98391z" fill="#000000" stroke="none" stroke-width="0" stroke-linecap="butt"/><path d="M245.15722,133.21493c-1.92964,1.16088 -7.50783,4.02358 -8.9958,1.95927c-1.99408,-2.76645 6.1078,-7.34903 7.53582,-7.00393c0.26074,-0.07421 0.53812,-0.1078 0.82424,-0.09369c1.39349,0.06867 2.46691,1.24223 2.39752,2.62123c0.51474,0.67375 -1.23033,2.19739 -1.76179,2.51712z" fill="#582600" stroke="none" stroke-width="0.5" stroke-linecap="butt"/><g data-paper-data="{&quot;index&quot;:null}"><g data-paper-data="{&quot;origRot&quot;:0,&quot;index&quot;:null}" stroke="#000000" stroke-width="3" stroke-linecap="round"><path d="M212.87855,211.40107c0,0 -25.2859,-3.42204 -25.13592,-5.97319c0.27038,-4.5999 3.81521,-14.65164 3.81521,-14.65164l10.50164,-28.24906c0,0 2.07556,-5.33309 3.22933,-5.49362c3.46127,-0.48162 9.53386,2.10948 16.08723,3.46574c1.08929,0.22545 0.42281,6.11314 0.42281,6.11314c0,0 -1.46171,9.2177 -2.39726,15.11751c-1.42475,8.98481 -3.65077,23.02245 -3.65077,23.02245c0,0 -0.9011,7.22009 -2.8723,6.64871z" data-paper-data="{&quot;origPos&quot;:null}" fill="#582600"/><path d="M190.18483,198.26655l24.45873,5.97098" fill="none"/><path d="M215.68101,201.06717l-24.40126,-6.2015" data-paper-data="{&quot;origPos&quot;:null}" fill="none"/></g><path d="M191.18486,194.13885l13.31301,-35.79108l1.42167,-0.35809l15.50649,3.83501l-5.52615,38.37589z" fill="#ffcb66" stroke="#000000" stroke-width="1" stroke-linecap="round"/><path d="M190.19578,198.10017l0.57178,-2.2614l24.99825,6.18962l-0.57178,2.2614z" fill="#ffffff" stroke="none" stroke-width="0" stroke-linecap="butt"/></g><g data-paper-data="{&quot;index&quot;:null}" stroke="#000000" stroke-width="1" stroke-linecap="butt"><g data-paper-data="{&quot;index&quot;:null}" fill="#000000"><path d="M226.88749,148.88847c5.49898,1.18802 3.13454,3.1095 3.13454,3.1095l-7.32977,-1.61032c0,0 -1.67098,-2.7096 4.19523,-1.49917z"/></g><g data-paper-data="{&quot;index&quot;:null}" fill="#ffffff"><path d="M226.88749,148.88846c1.12482,0.24301 1.92063,0.51671 2.47495,0.79838c0.00993,0.00505 -0.50392,0.39542 -0.61104,0.85417c-0.1308,0.56012 0.13888,1.2083 0.13718,1.20793c-1.23749,-0.27187 -6.19632,-1.36131 -6.19632,-1.36131c0,0 -1.67098,-2.7096 4.19523,-1.49917z"/></g></g></g></g></svg>