<svg version="1.1" xmlns="http://www.w3.org/2000/svg" xmlns:xlink="http://www.w3.org/1999/xlink" width="127.66667" height="127.66667" viewBox="0,0,127.66667,127.66667"><g transform="translate(-176.16668,-116.16666)"><g data-paper-data="{&quot;isPaintingLayer&quot;:true}" fill-rule="nonzero" stroke-linejoin="miter" stroke-miterlimit="10" stroke-dasharray="" stroke-dashoffset="0" style="mix-blend-mode: normal"><g><path d="M204.92076,181.1553c-0.00243,-0.00029 -0.00369,-0.00049 -0.00369,-0.00049l-0.50889,-0.26458c-0.68089,-1.17708 -0.07711,-2.39447 0.77372,-3.36731c1.99821,-1.19042 6.95449,-4.86027 8.7412,-1.42475c0.84469,1.6242 0.4414,3.58754 0.62251,5.32899c-0.96394,6.58876 -6.52739,2.28293 -9.62484,-0.27185z" fill="#323344" stroke="#000000" stroke-width="1" stroke-linecap="butt"/><path d="M233.91141,181.44545c0.63465,-1.13178 2.48067,-3.79469 3.81337,-4.17857c3.80124,-1.09494 4.41629,2.81285 4.30768,5.36412c-0.35524,2.34198 -2.13622,5.84619 -4.85714,8.12207c-1.87607,1.5692 -4.43458,2.30324 -6.01693,2.73721c-0.5397,0.14802 -2.07778,-0.28298 -3.63342,-3.82092c-1.45466,-3.3083 -1.92851,-7.96428 -0.67272,-8.51665c1.08065,-0.47536 6.61613,1.0883 6.61613,1.0883z" fill="#dc94e7" stroke="#000000" stroke-width="1" stroke-linecap="butt"/><path d="M229.45683,185.18906c0.04826,0.04829 0.07433,0.08378 0.07433,0.08378l0.54798,0.86801c0.17699,0.85262 0.04485,1.57783 -0.04877,2.28884c-0.11523,0.87517 -0.27533,1.71308 -0.98027,2.54914c-4.76358,4.67574 -15.83007,4.70258 -14.44381,-4.35491c0.59705,-3.77533 4.3017,-4.40086 8.00904,-3.90264c2.52596,0.33946 5.06962,1.09325 6.5681,2.14803c0,0 0.16715,0.11821 0.27336,0.3197z" fill="#f89688" stroke="#000000" stroke-width="1" stroke-linecap="butt"/><path d="M212.42334,177.61281c-0.58433,-0.41067 -0.2245,-1.0683 -0.2245,-1.0683c0.96357,-1.75817 4.76197,-5.12295 6.85889,-3.70172c2.1505,1.45753 0.44984,3.57734 1.54464,5.32189c0.51577,0.8219 2.35085,1.11928 3.17971,1.57319c0.21533,1.09664 0.3748,1.30681 0.18793,2.35663c-0.32994,1.85344 -1.94175,2.76202 -3.74885,2.05742c-2.89452,-1.12857 -4.10761,-4.66928 -6.96087,-5.88841l-0.30279,-0.10813c0,0 -0.42019,-0.15305 -0.53412,-0.54254z" fill="#fcdfbd" stroke="none" stroke-width="0.5" stroke-linecap="butt"/><path d="M223.78207,179.73789c0.21533,1.09664 0.3748,1.30681 0.18792,2.35664c-0.32994,1.85343 -1.94175,2.76202 -3.74885,2.05742c-2.23545,-0.8716 -3.468,-3.18193 -5.22774,-4.75044c0.77107,-0.00014 1.47784,0.003 1.99855,0.08339c0.56859,0.08779 0.97481,0.40135 1.34704,0.77004c0.34774,0.67493 0.9661,1.19994 1.73516,1.4119c0.3056,0.10585 0.65975,0.15048 1.08677,0.10159c0.12013,-0.01377 0.24459,-0.04547 0.37096,-0.09287c0.97216,-0.25792 1.76095,-1.03366 2.00032,-2.05834c0.09049,0.03928 0.17437,0.07935 0.24993,0.12073z" fill="#f89688" stroke="none" stroke-width="0.5" stroke-linecap="butt"/><path d="M212.42334,177.61281c-0.58433,-0.41067 -0.2245,-1.0683 -0.2245,-1.0683c0.96357,-1.75817 4.76197,-5.12295 6.85889,-3.70173c2.15049,1.45752 0.44984,3.57733 1.54465,5.32188c0.51577,0.82189 2.35084,1.11928 3.1797,1.57321c0.21533,1.09664 0.3748,1.30681 0.18792,2.35664c-0.32994,1.85343 -1.94175,2.76202 -3.74885,2.05742c-2.89452,-1.12857 -4.10761,-4.66928 -6.96087,-5.88841l-0.30279,-0.10816c0,0 -0.42019,-0.15305 -0.53412,-0.54253z" fill="none" stroke="#000000" stroke-width="1" stroke-linecap="butt"/><path d="M213.55541,175.59726c-0.08434,0.55111 -0.63545,0.46676 -0.63545,0.46676l-0.08479,-0.01298c-3.41754,-0.52307 -6.38532,1.40114 -7.28989,4.80362c0,0 -0.04569,0.17 -0.18124,0.29327l0.01873,0.2787c0,0 -0.43603,0.32026 -0.76452,-0.09968c-0.0699,-0.02114 -0.13983,-0.0423 -0.20973,-0.06346c0,0 -0.30192,-0.09132 -0.38285,-0.36368c-0.27833,-0.18095 -0.22224,-0.54758 -0.22224,-0.54758l0.02769,-0.1525c1.37886,-4.86355 4.2441,-6.52589 9.08104,-5.78559c0,0 0.55111,0.08434 0.46676,0.63545c-0.00195,0.01268 -0.00413,0.02503 -0.00655,0.03705c0.11965,0.09211 0.22315,0.24859 0.18305,0.5106z" fill="#455d83" stroke="none" stroke-width="0.5" stroke-linecap="butt"/><path d="M205.76402,180.16485c-0.43044,-0.35009 -0.93756,-0.59884 -1.45668,-0.69585c-0.06225,-0.05278 -0.12942,-0.10032 -0.20088,-0.14178c0.54547,-1.55606 1.27497,-2.72979 2.20894,-3.55496c0.3227,0.66937 0.62671,1.3531 0.93217,2.02926c-0.63237,0.64197 -1.14002,1.43764 -1.48352,2.36334z" fill="#85afb1" stroke="none" stroke-width="0.5" stroke-linecap="butt"/><path d="M208.52619,174.55732c0.22777,0.65439 0.58632,1.32814 0.92654,1.81293c-0.46974,0.17586 -0.9127,0.407 -1.322,0.68932c-0.29568,-0.65048 -0.59036,-1.30427 -0.90195,-1.94665c0.40184,-0.23313 0.83395,-0.41772 1.29741,-0.55561z" fill="#85afb1" stroke="none" stroke-width="0.5" stroke-linecap="butt"/><path d="M213.5554,175.59728c-0.08434,0.55111 -0.63545,0.46676 -0.63545,0.46676l-0.08479,-0.01298c-3.41754,-0.52307 -6.38532,1.40114 -7.2899,4.80363c0,0 -0.04569,0.17 -0.18124,0.29327l0.0187,0.27871c0,0 -0.43602,0.32027 -0.76452,-0.09968c-0.0699,-0.02114 -0.13983,-0.0423 -0.20973,-0.06346c0,0 -0.30191,-0.09134 -0.38285,-0.36368c-0.27834,-0.18095 -0.22224,-0.54758 -0.22224,-0.54758l0.02769,-0.1525c1.37886,-4.86355 4.2441,-6.5259 9.08104,-5.78559c0,0 0.55111,0.08434 0.46676,0.63545c-0.00194,0.01267 -0.00413,0.02503 -0.00655,0.03706c0.11965,0.09211 0.22315,0.24859 0.18305,0.5106z" fill="none" stroke="#000000" stroke-width="1" stroke-linecap="butt"/><path d="M220.7508,186.71854c0,0 3.10447,0.53057 3.31701,2.36925c0.17052,1.47525 -1.24848,2.34608 -2.11206,3.31121c-2.044,2.28428 -5.19052,6.18116 -8.19965,3.14625c-0.61108,-0.74157 -1.03526,-1.4802 -1.50196,-2.31613l-0.06797,-0.09058c-1.15502,0.35714 -2.21586,0.24043 -2.74866,-0.45523c-0.56407,-0.73648 -0.94465,-2.148 -1.3743,-3.15818c-1.49645,0.00041 -3.12818,-0.00155 -4.15474,-1.09366c-0.98727,-1.05031 -0.55742,-2.07176 -0.36985,-3.29743c0.52544,-3.43315 3.07296,-5.90323 6.38777,-6.84037c1.66969,-0.67018 3.47616,-1.8576 5.39284,-1.67521c1.34799,0.12829 2.04208,1.03824 2.43585,2.04756c0.45433,1.16452 0.45276,2.50256 -0.3211,3.59738c1.19221,0.3964 2.27385,1.28604 2.94832,2.2954c0.66046,0.98839 0.26685,1.33471 0.36845,2.15973z" fill="#fde0be" stroke="none" stroke-width="0.5" stroke-linecap="butt"/><path d="M224.06782,189.0878c0.17052,1.47527 -1.24847,2.34609 -2.11205,3.3112c-2.04401,2.28428 -5.19052,6.18116 -8.19966,3.14626c-0.61108,-0.74157 -1.03526,-1.4802 -1.50194,-2.31614l-0.06797,-0.09058c-1.15502,0.35714 -2.21586,0.24043 -2.74866,-0.45523c-0.56407,-0.73648 -0.94464,-2.148 -1.37431,-3.15818c-1.49645,0.00041 -3.12817,-0.00154 -4.15473,-1.09367c-0.98727,-1.05033 -0.55742,-2.07176 -0.36985,-3.29743c0.17578,-1.14853 0.57786,-2.18927 1.15928,-3.10088c0.04022,0.19356 0.05583,0.38133 0.01442,0.56581l0.00513,0.00773c-0.26099,1.12151 -0.03523,2.08108 0.51652,2.77232c0.42113,0.60604 1.08063,1.04469 1.86771,1.16517c0.2848,0.04358 0.56612,0.04243 0.83679,0.00176c0.28587,-0.00193 0.58279,-0.03138 0.88762,-0.09035c1.3257,-0.25648 3.22991,-0.99565 5.07709,-2.03183c-0.46087,0.83163 -0.86416,1.66725 -1.1544,2.35441c-0.19641,0.31302 -0.3334,0.67047 -0.39287,1.05899c-0.03544,0.23144 -0.04129,0.46059 -0.02043,0.6836c-0.24051,1.57145 0.89973,2.30181 2.13715,2.45172c0.07119,0.01667 0.14356,0.0307 0.21706,0.04195c0.60628,0.09279 1.1968,-0.01723 1.70263,-0.2794c0.16334,-0.07028 0.3088,-0.15335 0.42998,-0.24788c0.13666,-0.10661 0.28213,-0.22704 0.43427,-0.35913c0.18615,0.15205 -1.22529,1.9897 -1.00712,2.09048c0.64553,0.29826 3.0335,-1.36363 3.85773,-1.73273c0.6604,-0.29574 1.11051,-0.68156 1.39218,-1.11396c0.35898,-0.39265 0.60968,-0.89218 0.69621,-1.45753c0.03914,-0.25574 0.04219,-0.50871 0.01296,-0.75368c0.83831,0.35668 1.74758,0.96152 1.85921,1.92717z" fill="#f89688" stroke="none" stroke-width="0.5" stroke-linecap="butt"/><path d="M220.7508,186.71854c0,0 3.10447,0.53057 3.31701,2.36925c0.17052,1.47527 -1.24847,2.34609 -2.11205,3.3112c-2.04401,2.28428 -5.19052,6.18116 -8.19966,3.14626c-0.61108,-0.74157 -1.03526,-1.4802 -1.50194,-2.31614l-0.06797,-0.09058c-1.15502,0.35714 -2.21586,0.24043 -2.74866,-0.45523c-0.56407,-0.73648 -0.94464,-2.148 -1.37431,-3.15818c-1.49645,0.00041 -3.12817,-0.00154 -4.15473,-1.09367c-0.98727,-1.05033 -0.55742,-2.07176 -0.36985,-3.29743c0.52544,-3.43315 3.07296,-5.90324 6.38775,-6.84037c1.66969,-0.67018 3.47616,-1.8576 5.39285,-1.6752c1.34799,0.12829 2.04208,1.03824 2.43583,2.04755c0.45433,1.16452 0.45276,2.50256 -0.3211,3.59738c1.19222,0.39639 2.27385,1.28604 2.94832,2.2954c0.66047,0.9884 0.26685,1.33471 0.36845,2.15973z" fill="none" stroke="#000000" stroke-width="1" stroke-linecap="butt"/><path d="M217.62779,182.62785l-5.73445,2.58163" fill="none" stroke="#000000" stroke-width="1" stroke-linecap="round"/><path d="M216.3562,189.95344l4.07812,-3.06075" fill="none" stroke="#000000" stroke-width="1" stroke-linecap="round"/><path d="M198.5765,171.69946c0.72027,-4.70598 4.74707,-8.34106 9.45304,-7.62082c2.51408,0.38479 3.80608,1.70932 4.99835,3.59494c0.40167,0.63528 0.98367,1.83999 1.21946,3.05605c0.3744,1.93085 -0.30459,3.68918 -0.46418,3.95182c-0.1271,0.20912 -2.72517,-1.90694 -5.97141,-0.07134c-3.31119,1.87234 -4.56895,6.00341 -4.56895,6.00341c0,0 -2.1047,-0.73197 -3.29861,-2.2221c-1.33038,-1.66048 -1.74728,-4.21177 -1.36769,-6.69198z" fill="#465e85" stroke="#000000" stroke-width="0" stroke-linecap="butt"/><path d="M198.5765,171.69946c0.09043,-0.59091 0.23302,-1.1649 0.42251,-1.71554c0.03358,0.08859 0.07606,0.17323 0.12644,0.2527l0.00097,0.02155l0.0318,0.02782c0.13503,0.1943 0.31908,0.35418 0.53752,0.45975l0.21277,0.10906l0.13902,0.03236l0.11158,0.10186l0.07751,0.04183l0.05743,0.06676l0.08236,0.05823l0.00562,0.01462l0.03694,0.01547l0.0317,0.02243l0.29852,0.11597l0.29536,0.12378l0.0384,0.00589l0.03732,0.0145l0.0142,-0.00662l0.02887,0.00442l0.02446,0.02843l0.08236,0.05823l0.00562,0.01462l0.03694,0.01547l0.0317,0.02243l0.29852,0.11597l0.29536,0.12378l0.0384,0.00589l0.03732,0.0145l0.0142,-0.00662l7.11285,1.08862l0.03479,0.01351l0.29536,0.12378l0.0384,0.00589l0.03732,0.0145l0.0142,-0.00662l0.21535,0.03297l0.01998,0.01748l0.48276,0.24745l0.17157,0.03993l0.28408,0.11034l0.29536,0.12378l0.0384,0.00589l0.03732,0.0145l0.0142,-0.00662l0.4697,0.0719l0.01998,0.01748l0.15321,0.07852l0.15807,0.11177l0.00562,0.01462l0.03694,0.01547l0.0317,0.02243l0.24973,0.09703c-1.08903,-0.33069 -2.66501,-0.50334 -4.43334,0.49657c-3.31119,1.87234 -4.56895,6.00341 -4.56895,6.00341c0,0 -2.1047,-0.73197 -3.29861,-2.2221c-1.33038,-1.66048 -1.74728,-4.21177 -1.36769,-6.69198z" fill="#323344" stroke="#000000" stroke-width="0" stroke-linecap="butt"/><path d="M203.99617,167.74339l0.0008,0.01709l-0.01992,-0.01487z" fill="#323344" stroke="#000000" stroke-width="0" stroke-linecap="butt"/><path d="M198.5765,171.69946c0.72026,-4.70599 4.74708,-8.34106 9.45304,-7.62082c2.51408,0.38479 3.80607,1.70932 4.99834,3.59494c0.40167,0.63528 0.98367,1.83998 1.21946,3.05605c0.37439,1.93085 -0.30457,3.68918 -0.46417,3.95182c-0.1271,0.20912 -2.72516,-1.90693 -5.97141,-0.07132c-3.31119,1.87234 -4.56895,6.00341 -4.56895,6.00341c0,0 -2.10472,-0.73195 -3.29862,-2.2221c-1.33038,-1.66048 -1.74728,-4.21177 -1.36769,-6.69197z" fill="none" stroke="#000000" stroke-width="1" stroke-linecap="butt"/><path d="M201.81702,179.44083c0,0 1.05202,-5.8102 4.3899,-7.3617c3.52932,-1.64051 7.74123,1.2354 7.74123,1.2354" fill="none" stroke="#000000" stroke-width="1" stroke-linecap="round"/><path d="M199.0234,176.14982c0,0 2.18244,-5.14131 5.45494,-7.56061c2.97103,-2.19643 8.12876,-0.68621 8.12876,-0.68621" fill="none" stroke="#000000" stroke-width="1" stroke-linecap="round"/><path d="M198.8953,170.75038c0,0 3.39793,-3.44349 5.2169,-4.55657c1.64119,-1.0043 5.21855,-1.82925 5.21855,-1.82925" fill="none" stroke="#000000" stroke-width="1" stroke-linecap="round"/><path d="M203.77224,178.00466c0,0 -2.48125,-0.96379 -3.35854,-1.72666c-0.85811,-0.74618 -1.84888,-2.80151 -1.84888,-2.80151" fill="none" stroke="#000000" stroke-width="1" stroke-linecap="round"/><path d="M204.94538,177.14296c0,0 -2.68507,-1.92613 -3.75693,-3.0625c-0.95533,-1.0128 -2.36496,-3.42783 -2.36496,-3.42783" fill="none" stroke="#000000" stroke-width="1" stroke-linecap="round"/><path d="M206.05276,175.57701c0,0 -2.60739,-2.29202 -3.36267,-3.74289c-0.82546,-1.58564 -1.39836,-5.40262 -1.39836,-5.40262" fill="none" stroke="#000000" stroke-width="1" stroke-linecap="round"/><path d="M203.83354,164.56448c0,0 2.15065,4.41378 2.76281,6.20122c0.50758,1.48207 0.65553,3.78003 0.65553,3.78003" fill="none" stroke="#000000" stroke-width="1" stroke-linecap="round"/><path d="M207.29587,164.05312c0,0 1.78394,2.75431 2.19829,4.28376c0.43486,1.6051 0.35228,5.13081 0.35228,5.13081" fill="none" stroke="#000000" stroke-width="1" stroke-linecap="round"/><path d="M212.15636,166.87955c0,0 0.40769,2.14041 0.39262,3.25534c-0.01574,1.16328 -0.48513,3.58546 -0.48513,3.58546" fill="none" stroke="#000000" stroke-width="1" stroke-linecap="round"/></g><path d="M176.16668,243.83333v-127.66667h127.66667v127.66667z" fill="none" stroke="none" stroke-width="NaN" stroke-linecap="butt"/><g><g stroke="#000000"><path d="M254.29413,193.31798l1.75835,9.73519l-37.56842,-0.98638c0,0 0.35965,-9.54107 2.07153,-11.34553c0.59347,-0.62556 6.41997,2.03919 6.41997,2.03919l0.25732,-3.81689z" fill="#0066cd" stroke-width="0" stroke-linecap="round"/><path d="M247.75783,195.084c-1.50492,0.75211 -3.46626,1.96401 -5.55469,2.32519c-3.234,0.55932 -6.47304,0.03793 -6.47304,0.03793c0,0 0.30281,3.49312 0.18664,5.07736l-6.30755,-0.16562c0.10962,-1.29633 -0.57405,-3.71336 -1.36584,-5.89166c-0.62872,-1.72966 -1.37315,-3.35633 -1.50415,-3.81326c0.15103,0.06748 0.23634,0.1065 0.23634,0.1065l0.25732,-3.81689l20.66543,3.37873c0,0 0.43609,0.795 0.40582,1.59336c-0.01954,0.51496 -0.48353,1.15655 -0.54628,1.16833z" fill="#061483" stroke-width="0" stroke-linecap="butt"/><path d="M254.29413,193.31798l1.75835,9.73519l-37.56842,-0.98638c0,0 0.35965,-9.54107 2.07153,-11.34553c0.59347,-0.62556 6.41997,2.03919 6.41997,2.03919l0.25732,-3.81689z" fill="none" stroke-width="1" stroke-linecap="round"/><path d="M232.8081,195.67673l2.1872,1.887" fill="none" stroke-width="1" stroke-linecap="round"/></g><g><path d="M240.61342,209.63623c0,0.33519 -1.63074,2.50378 -2.85523,2.79868c-2.46242,0.59307 -7.38873,0.24178 -11.07692,0.90119c-1.33696,0.23903 -3.19606,0.44866 -4.63054,1.09762c-0.92448,0.41823 -1.74343,2.02085 -6.96282,2.16315c-3.25738,0.0888 -6.83425,-0.83198 -7.71227,-1.14691c-2.50226,-0.89751 -3.34425,-2.76549 -3.30137,-4.09828c0.01257,-0.39041 0.42812,-1.81565 1.76048,-1.48829c0.90605,0.22261 3.46358,1.84521 6.17255,2.24522c3.29288,0.48623 6.89529,0.06209 7.94157,-0.19361c2.51502,-0.61463 4.62961,-2.03761 7.06881,-2.81725c2.58159,-0.82516 5.97162,0.34968 8.04687,-0.15176c2.70956,-0.65471 3.81251,-2.83717 4.39353,-2.55589c0.93799,0.4541 1.15532,2.55874 1.15532,3.24612z" fill="#feecf7" stroke="none" stroke-width="0" stroke-linecap="butt"/><path d="M237.75819,212.4349c-2.46242,0.59306 -7.38873,0.24178 -11.07692,0.90119c-1.33696,0.23904 -3.19606,0.44867 -4.63054,1.09763c-0.92447,0.41822 -1.74343,2.02085 -6.9628,2.16315c-0.4438,0.0121 -0.89353,0.00545 -1.34155,-0.01584c-0.43617,-1.67958 -1.41883,-3.10604 -2.32625,-4.5779c0.19455,0.04094 0.39047,0.07644 0.58718,0.10547c3.29288,0.48623 6.8953,0.0621 7.94157,-0.19361c2.51503,-0.61465 4.62961,-2.03761 7.06882,-2.81725c2.58159,-0.82514 5.97162,0.34968 8.04687,-0.15176c2.70956,-0.6547 3.81251,-2.83717 4.39353,-2.55589c0.93799,0.45411 1.15532,2.55874 1.15532,3.24612c0,0.3352 -1.63074,2.50378 -2.85523,2.79868z" fill="#dd95e8" stroke="none" stroke-width="0" stroke-linecap="butt"/><path d="M240.61342,209.63623c0,0.33519 -1.63074,2.50378 -2.85523,2.79868c-2.46242,0.59307 -7.38873,0.24178 -11.07692,0.90119c-1.33696,0.23903 -3.19606,0.44866 -4.63054,1.09762c-0.92448,0.41823 -1.74343,2.02085 -6.96282,2.16315c-3.25738,0.0888 -6.83425,-0.83198 -7.71227,-1.14691c-2.50226,-0.89751 -3.34425,-2.76549 -3.30137,-4.09828c0.01257,-0.39041 0.42812,-1.81565 1.76048,-1.48829c0.90605,0.22261 3.46358,1.84521 6.17255,2.24522c3.29288,0.48623 6.89529,0.06209 7.94157,-0.19361c2.51502,-0.61463 4.62961,-2.03761 7.06881,-2.81725c2.58159,-0.82516 5.97162,0.34968 8.04687,-0.15176c2.70956,-0.65471 3.81251,-2.83717 4.39353,-2.55589c0.93799,0.4541 1.15532,2.55874 1.15532,3.24612z" fill="none" stroke="#000000" stroke-width="1" stroke-linecap="butt"/><path d="M218.35539,201.20906l-1.32948,-3.73111c0,0 2.8106,-2.12368 7.65675,-1.54147c3.72193,0.44716 5.08049,4.41485 5.08049,4.41485c0,0 3.57503,-4.04059 4.74028,-3.35392c0.51589,0.30401 2.34417,1.10802 2.97465,2.21711c1.53721,2.70415 1.80584,6.62625 1.80584,6.62625c0,0 -0.38263,2.21366 -2.79127,2.88539c-1.68043,0.46864 -4.34287,0.34385 -7.03231,0.50096c-0.85331,0.04984 -1.69638,0.03395 -2.4905,0.25952c-1.84413,0.5238 -3.42297,1.56729 -5.3759,2.2564c-1.55439,0.54848 -3.47151,0.8096 -5.04159,0.85874c-3.6108,0.11301 -7.30255,-0.80321 -10.16225,-2.30084c-1.8351,-0.96105 1.51881,-3.82844 5.17407,-5.95649c3.26663,-1.9018 6.79121,-3.1354 6.79121,-3.1354z" fill="#ff292e" stroke="#000000" stroke-width="0" stroke-linecap="round"/><path d="M227.6901,197.3114c0.56861,0.50162 1.73755,1.99339 1.90193,3.00395c0.1394,0.857 -0.70861,1.23546 -0.48498,1.75693c0.19854,0.46296 1.42806,0.16605 1.42806,0.16605c0,0 2.04695,-0.84384 3.62863,-2.29243c0.7716,-0.70667 1.64124,-2.23 1.64124,-2.23c0,0 1.33278,0.89999 1.67309,1.49863c1.53721,2.70415 1.80584,6.62625 1.80584,6.62625c0,0 -0.38263,2.21366 -2.79127,2.88539c-1.68043,0.46864 -4.34287,0.34385 -7.03231,0.50096c-0.85331,0.04984 -1.69638,0.03395 -2.4905,0.25952c-1.84413,0.5238 -3.42297,1.56729 -5.3759,2.2564c-1.55439,0.54848 -3.47151,0.8096 -5.04159,0.85874c-0.98536,0.03084 -2.95564,-0.12833 -2.95564,-0.12833c0,0 -0.45608,-2.69671 1.66501,-5.12594c2.44768,-2.80325 7.68327,-4.11214 10.44969,-6.15067c2.49395,-1.83776 1.78263,-4.05842 1.97869,-3.88545z" fill="#ac0e49" stroke="#000000" stroke-width="0" stroke-linecap="round"/><path d="M229.76313,200.30844c0,0 0.12921,1.06387 -0.40554,1.51144c-0.38839,0.32507 -1.9532,0.58999 -1.9532,0.58999" fill="none" stroke="#000000" stroke-width="1" stroke-linecap="round"/><path d="M235.05963,200.30844c0,-0.46186 0.37442,-0.83628 0.83628,-0.83628c0.46186,0 0.83628,0.37442 0.83628,0.83628c0,0.46186 -0.37442,0.83628 -0.83628,0.83628c-0.46186,0 -0.83628,-0.37442 -0.83628,-0.83628z" fill="#000000" stroke="none" stroke-width="0.5" stroke-linecap="butt"/><path d="M218.35539,201.20906l-1.32948,-3.73111c0,0 2.8106,-2.12368 7.65675,-1.54147c3.72193,0.44716 5.08049,4.41485 5.08049,4.41485c0,0 3.57503,-4.04059 4.74028,-3.35392c0.51589,0.30401 2.34417,1.10802 2.97465,2.21711c1.53721,2.70415 1.80584,6.62625 1.80584,6.62625c0,0 -0.38263,2.21366 -2.79127,2.88539c-1.68043,0.46864 -4.34287,0.34385 -7.03231,0.50096c-0.85331,0.04984 -1.69638,0.03395 -2.4905,0.25952c-1.84413,0.5238 -3.42297,1.56729 -5.3759,2.2564c-1.55439,0.54848 -3.47151,0.8096 -5.04159,0.85874c-3.6108,0.11301 -7.30255,-0.80321 -10.16225,-2.30084c-1.8351,-0.96105 1.51881,-3.82844 5.17407,-5.95649c3.26663,-1.9018 6.79121,-3.1354 6.79121,-3.1354z" fill="none" stroke="#000000" stroke-width="1" stroke-linecap="round"/><path d="M213.18761,203.43915c0,-0.2686 0.12664,-0.50764 0.32345,-0.66064c-0.14245,0.30595 -0.231,0.64203 -0.25346,0.99609c-0.04501,-0.10268 -0.06999,-0.21615 -0.06999,-0.33545z" fill="#db93e6" stroke="none" stroke-width="0.5" stroke-linecap="butt"/><path d="M221.529,200.84453c5.36301,0.04651 4.6557,6.30284 1.97676,4.47385c-0.56413,-0.38516 -1.14635,-1.13569 -1.75326,-1.58809c-0.80799,-0.60228 -2.20652,-1.18841 -3.05294,-1.67209c-0.29133,-0.13074 -0.16932,-1.01887 0.23482,-1.19223c0.40415,-0.17336 1.73335,-0.02891 2.59462,-0.02144z" fill="#f0e0ec" stroke="none" stroke-width="0.5" stroke-linecap="butt"/><path d="M221.58913,206.78426c-0.04287,0.42165 -0.399,0.75067 -0.83196,0.75067c-0.30694,0 -0.57525,-0.16535 -0.72072,-0.41184c-0.2312,-0.13211 -1.05102,-1.37107 -2.08121,-2.38367c-0.87171,-0.85682 -1.89764,-1.52796 -2.33491,-2.16462c-0.32071,-0.46696 -0.11359,-0.78023 0.33214,-0.94991c1.44435,-0.54982 6.80364,3.20573 5.63666,5.15938z" data-paper-data="{&quot;index&quot;:null}" fill="#f0e0ec" stroke="none" stroke-width="0.5" stroke-linecap="butt"/><path d="M218.84858,207.16312c0.33475,1.26692 -1.09143,2.00882 -1.79482,0.9035c-0.41897,-0.65837 -0.90974,-1.69156 -1.54123,-2.21345c-0.66411,-0.54886 -1.48386,-0.94215 -1.91308,-1.69329c-0.24648,-0.14548 -0.41184,-0.41378 -0.41184,-0.72072c0,-0.46186 0.37442,-0.83628 0.83628,-0.83628c0.25436,0 0.48222,0.11357 0.6356,0.29277c1.65607,0.45449 3.87257,3.06959 4.18909,4.2675z" fill="#f0e0ec" stroke="none" stroke-width="0.5" stroke-linecap="butt"/><path d="M223.50574,205.31838c-0.54218,-0.37016 -1.10106,-1.07782 -1.68251,-1.53396c1.10453,-0.27698 1.94761,-1.21297 2.08707,-2.36577c2.65203,1.51262 1.77818,5.38995 -0.40456,3.89972z" fill="#db93e6" stroke="none" stroke-width="0.5" stroke-linecap="butt"/><path d="M221.58913,206.78426c-0.04287,0.42165 -0.399,0.75067 -0.83196,0.75067c-0.30694,0 -0.57525,-0.16535 -0.72072,-0.41184c-0.16927,-0.09673 -0.6541,-0.7868 -1.30598,-1.54695c0.88983,-0.0642 1.66392,-0.54608 2.12724,-1.25056c0.74673,0.8655 1.14097,1.77304 0.73142,2.45866z" data-paper-data="{&quot;index&quot;:null}" fill="#db93e6" stroke="none" stroke-width="0.5" stroke-linecap="butt"/><path d="M218.84858,207.16312c0.33475,1.26692 -1.09143,2.00882 -1.79482,0.9035c-0.23987,-0.37693 -0.50328,-0.87673 -0.80316,-1.33309c0.74314,-0.05563 1.40506,-0.40263 1.87188,-0.92709c0.36774,0.51507 0.63159,0.99905 0.72609,1.35669z" fill="#db93e6" stroke="none" stroke-width="0.5" stroke-linecap="butt"/><path d="M221.529,200.84453c5.36301,0.04651 4.6557,6.30284 1.97676,4.47385c-0.56413,-0.38516 -1.14635,-1.13569 -1.75326,-1.58809c-0.80799,-0.60228 -2.20652,-1.18841 -3.05294,-1.67209c-0.29133,-0.13074 -0.16932,-1.01887 0.23482,-1.19223c0.40415,-0.17336 1.73335,-0.02891 2.59462,-0.02144z" fill="none" stroke="#000000" stroke-width="1" stroke-linecap="butt"/><path d="M221.58913,206.78426c-0.04287,0.42165 -0.399,0.75067 -0.83196,0.75067c-0.30694,0 -0.57525,-0.16535 -0.72072,-0.41184c-0.2312,-0.13211 -1.05102,-1.37107 -2.08121,-2.38367c-0.87171,-0.85682 -1.89764,-1.52796 -2.33491,-2.16462c-0.32071,-0.46696 -0.11359,-0.78023 0.33214,-0.94991c1.44435,-0.54982 6.80364,3.20573 5.63666,5.15938z" data-paper-data="{&quot;index&quot;:null}" fill="none" stroke="#000000" stroke-width="1" stroke-linecap="butt"/><path d="M217.05375,208.06662c-0.41897,-0.65837 -0.90974,-1.69156 -1.54123,-2.21345c-0.66411,-0.54886 -1.48386,-0.94215 -1.91308,-1.69329c-0.24648,-0.14548 -0.41184,-0.41378 -0.41184,-0.72072c0,-0.46186 0.37442,-0.83628 0.83628,-0.83628c0.25436,0 0.48222,0.11357 0.6356,0.29277c1.65607,0.45449 3.87257,3.06959 4.18909,4.2675c0.31652,1.1979 -1.09143,2.00881 -1.79482,0.90349z" fill="none" stroke="#000000" stroke-width="1" stroke-linecap="butt"/></g><g><path d="M239.36971,208.91399c0,0 0.3915,8.34024 14.60749,6.23944c13.4989,-1.99483 11.63893,-9.15571 11.63893,-9.15571l4.20286,1.887c0,0 -0.00863,1.18868 0.0127,2.61652c0.02049,1.37182 0.09502,2.95119 -1.0369,4.54341c-2.00021,2.81361 -6.76078,4.99215 -16.60204,5.40697c-20.06166,0.84564 -12.82304,-11.53763 -12.82304,-11.53763z" fill="#ffeffa" stroke="#000000" stroke-width="0" stroke-linecap="round"/><path d="M238.24138,214.9262c-0.01726,-0.07859 3.87856,5.67316 16.55063,3.82969c14.35662,-1.86616 15.02695,-10.87116 15.02695,-10.87116c0,0 -0.00863,1.18868 0.0127,2.61652c0.02049,1.37182 0.09502,2.95119 -1.0369,4.54341c-2.00021,2.81361 -6.76078,4.99215 -16.60204,5.40697c-10.11326,0.42629 -13.28882,-2.50921 -13.95136,-5.52542z" fill="#dd95e8" stroke="#000000" stroke-width="0" stroke-linecap="round"/><path d="M239.36971,208.91399c0,0 0.3915,8.34024 14.60749,6.23944c13.4989,-1.99483 11.63893,-9.15571 11.63893,-9.15571l4.20286,1.887c0,0 -0.00863,1.18868 0.0127,2.61652c0.02049,1.37182 0.09502,2.95119 -1.0369,4.54341c-2.00021,2.81361 -6.76078,4.99215 -16.60204,5.40697c-20.06166,0.84564 -12.82304,-11.53763 -12.82304,-11.53763z" fill="none" stroke="#000000" stroke-width="1" stroke-linecap="round"/><path d="M244.55778,199.14542c1.31642,-1.17593 6.83383,-2.37225 9.54146,-1.8472c1.63401,0.31686 1.35284,1.93808 1.35284,1.93808c0,0 6.50518,-3.29028 7.2311,-2.78214c0.28324,0.19828 1.53295,2.07667 0.92706,3.17351c-0.89762,1.62499 -3.86953,2.61068 -3.86953,2.61068c0,0 0.38686,0.12296 0.98019,0.36644c-4.37977,0.2708 -10.45727,2.81658 -13.09573,2.97807c-0.28949,0.01772 -0.09375,-0.57255 -0.14995,-0.85709c-0.2393,-1.21161 -0.36474,-2.58493 -1.15202,-3.60541c-0.53209,-0.6897 -1.20811,-1.28668 -1.96677,-1.76955c0.06482,-0.07445 0.13195,-0.14336 0.20135,-0.20536z" fill="#ff292e" stroke="#000000" stroke-width="0" stroke-linecap="butt"/><path d="M239.75568,206.14098l-4.26626,-0.16396c0,0 -0.75986,-1.06582 0.64989,-3.95604l0.44322,0.77565c0.89587,1.56777 5.91336,-0.09743 5.42961,2.84951c-0.11145,0.67887 -1.32062,0.92814 -2.47088,1.49438c0.1108,-0.61531 0.21443,-0.99954 0.21443,-0.99954z" fill="#ff292e" stroke="#000000" stroke-width="0" stroke-linecap="butt"/><path d="M258.17176,209.10014c0.36853,-0.08338 0.88232,-0.11124 1.46868,-0.11798c-0.6464,0.16771 -1.32782,0.23565 -2.02895,0.24198c0.20663,-0.04469 0.39459,-0.08651 0.56025,-0.12398z" fill="#ac0e49" stroke="#000000" stroke-width="0" stroke-linecap="butt"/><path d="M243.10081,202.06679c0,0 0.52294,-2.08702 1.45697,-2.92137c1.31642,-1.17593 6.83383,-2.37225 9.54146,-1.8472c1.63401,0.31686 1.35284,1.93808 1.35284,1.93808c0,0 6.50518,-3.29028 7.2311,-2.78214c0.28324,0.19828 1.53295,2.07667 0.92706,3.17351c-0.89762,1.62499 -3.86953,2.61068 -3.86953,2.61068c0,0 3.2768,1.04143 5.38321,3.06446c3.27168,3.14221 4.20444,8.1679 -10.60834,11.59558c-1.79091,0.41442 -10.06451,0.93634 -13.55884,-2.11337c-2.85954,-2.49569 -1.20105,-8.64402 -1.20105,-8.64402l-4.26626,-0.16396c0,0 -0.79623,-1.11685 0.75362,-4.16423c0.36247,-0.7127 6.85777,0.254 6.85777,0.254z" fill="#ff292e" stroke="#000000" stroke-width="0" stroke-linecap="round"/><path d="M239.75568,206.14098l-4.26626,-0.16396c0,0 -0.5427,-0.76123 0.14011,-2.74157c1.97616,0.73611 6.21238,1.20089 7.42841,1.75617c0.14476,0.0661 -1.20123,0.75924 -1.35092,0.8545c-0.89102,0.56702 -1.4988,1.12815 -2.20328,1.90308c-0.02477,0.02724 -0.04901,0.05479 -0.07273,0.08264c0.13987,-1.0057 0.32469,-1.69088 0.32469,-1.69088z" fill="#ac0e49" stroke="#000000" stroke-width="0" stroke-linecap="butt"/><path d="M239.01589,206.27232c-0.27303,0.24428 -2.54969,0.17339 -2.50058,-0.53893c-0.05339,-0.11013 -0.08333,-0.23375 -0.08333,-0.36435c0,-0.46186 0.37442,-0.83628 0.83628,-0.83628c0.24056,0 0.4574,0.10157 0.60997,0.26417c1.11623,-0.04955 2.12857,0.58878 1.13765,1.4754z" fill="#000000" stroke="none" stroke-width="0.5" stroke-linecap="butt"/><path d="M254.51556,216.89838c-1.79091,0.41442 -10.06451,0.93634 -13.55884,-2.11337c-0.3195,-0.27885 -0.5826,-0.60331 -0.79791,-0.95967c3.21261,0.17766 11.22397,-3.76602 14.15318,-4.46787c1.7611,-0.42198 5.91336,0.01395 8.68214,-0.70891c0.18548,-0.04842 1.22555,1.94151 1.60247,1.53843c0.40093,-0.42875 1.09917,-3.59532 1.0842,-4.30339c2.77006,3.15444 2.76525,7.79127 -11.16524,11.01479z" fill="#ac0e49" stroke="#000000" stroke-width="0" stroke-linecap="butt"/><path d="M263.61022,199.62765c-0.89762,1.62499 -3.86953,2.61068 -3.86953,2.61068c0,0 0.88914,0.28259 2.03882,0.8393c-2.6179,0.16708 -5.35164,0.92473 -5.54022,0.30285c-0.44904,-1.48077 3.96725,-4.01273 6.07544,-5.71395c0.29957,-0.18436 0.56161,-0.42379 0.77203,-0.70418c0.43424,0.68131 0.95958,1.87579 0.52345,2.66532z" fill="#ac0e49" stroke="#000000" stroke-width="0" stroke-linecap="butt"/><path d="M245.28802,205.24037l-2.40164,-3.00204" fill="none" stroke="#000000" stroke-width="1" stroke-linecap="round"/><path d="M245.20225,208.11375c0,0 -1.46726,-0.21889 -1.62111,-0.58326c-0.46565,-1.10286 0.59183,-1.47529 0.59183,-1.47529c0,0 3.3467,-2.24519 5.84223,-2.74497c4.07916,-0.81696 6.42326,-0.04264 6.42326,-0.04264c0,0 1.21563,0.0579 1.55332,0.68722c0.31306,0.58342 -0.18096,1.02823 -0.18096,1.02823c0,0 1.6958,0.03505 2.41724,0.88295c0.94578,1.11157 0.15594,1.39003 0.15594,1.39003c0,0 1.26494,-0.00347 1.66996,0.92131c0.31713,0.72408 -0.51203,1.18013 -0.51203,1.18013c0,0 -5.20712,0.3391 -7.70654,0.76286c-2.47516,0.41965 -7.2179,1.76743 -7.2179,1.76743c0,0 -0.99125,0.44662 -1.27567,-0.67379c-0.23639,-0.93121 0.46081,-1.42764 0.46081,-1.42764c0,0 -1.03151,0.46549 -1.3061,-0.43725c-0.18736,-0.61595 0.70569,-1.23531 0.70569,-1.23531z" fill="#feeffb" stroke="#000000" stroke-width="0" stroke-linecap="round"/><path d="M250.0152,203.31023c4.07916,-0.81696 6.42326,-0.04264 6.42326,-0.04264c0,0 0.90806,0.04325 1.37255,0.46129c-1.71687,1.49587 -2.92822,4.45112 -5.42574,3.93719c-1.53135,-0.31512 -2.76377,-2.09366 -3.98648,-3.85867c0.55045,-0.21665 1.10154,-0.39407 1.6164,-0.49718z" fill="#dd95e8" stroke="#000000" stroke-width="0" stroke-linecap="round"/><path d="M245.93131,209.82921c0,0 3.18295,-0.99515 6.53549,-1.65399c2.90506,-0.5709 7.57412,-0.70476 7.57412,-0.70476" fill="none" stroke="#000000" stroke-width="1" stroke-linecap="round"/><path d="M245.15935,208.02798c0,0 2.227,-1.48295 5.68833,-2.32773c2.06082,-0.50296 6.70582,-0.67431 6.70582,-0.67431" fill="none" stroke="#000000" stroke-width="1" stroke-linecap="round"/><path d="M245.20225,208.11375c0,0 -1.46726,-0.21889 -1.62111,-0.58326c-0.46565,-1.10286 0.59183,-1.47529 0.59183,-1.47529c0,0 3.3467,-2.24519 5.84223,-2.74497c4.07916,-0.81696 6.42326,-0.04264 6.42326,-0.04264c0,0 1.21563,0.0579 1.55332,0.68722c0.31306,0.58342 -0.18096,1.02823 -0.18096,1.02823c0,0 1.6958,0.03505 2.41724,0.88295c0.94578,1.11157 0.15594,1.39003 0.15594,1.39003c0,0 1.26494,-0.00347 1.66996,0.92131c0.31713,0.72408 -0.51203,1.18013 -0.51203,1.18013c0,0 -5.20712,0.3391 -7.70654,0.76286c-2.47516,0.41965 -7.2179,1.76743 -7.2179,1.76743c0,0 -0.99125,0.44662 -1.27567,-0.67379c-0.23639,-0.93121 0.46081,-1.42764 0.46081,-1.42764c0,0 -1.03151,0.46549 -1.3061,-0.43725c-0.18736,-0.61595 0.70569,-1.23531 0.70569,-1.23531z" fill="none" stroke="#000000" stroke-width="1" stroke-linecap="round"/><path d="M262.44968,198.78601c1.15018,0.38339 0.40356,1.84688 -0.40023,2.63312c-0.13,0.2931 -0.42355,0.49754 -0.76483,0.49754c-0.46186,0 -0.83628,-0.37442 -0.83628,-0.83628c0,-0.18665 0.06115,-0.35902 0.16451,-0.49817c0.39289,-0.79476 1.38393,-1.94719 1.83685,-1.79621z" fill="#000000" stroke="none" stroke-width="0.5" stroke-linecap="butt"/><path d="M244.55778,199.14542c1.31642,-1.17593 6.83383,-2.37225 9.54146,-1.8472c1.63401,0.31686 1.35284,1.93808 1.35284,1.93808c0,0 6.50518,-3.29028 7.2311,-2.78214c0.28324,0.19828 1.53295,2.07667 0.92706,3.17351c-0.89762,1.62499 -3.86953,2.61068 -3.86953,2.61068c0,0 3.2768,1.04143 5.38321,3.06446c3.27168,3.14221 4.20444,8.1679 -10.60834,11.59558c-1.79091,0.41442 -10.06451,0.93634 -13.55884,-2.11337c-2.85954,-2.49569 -1.20105,-8.64402 -1.20105,-8.64402l-4.26626,-0.16396c0,0 -0.79623,-1.11685 0.75362,-4.16423c0.36247,-0.7127 6.85777,0.254 6.85777,0.254c0,0 0.52293,-2.08703 1.45696,-2.92138z" fill="none" stroke="#000000" stroke-width="1" stroke-linecap="round"/></g><g><path d="M236.51091,180.97036c0,0 -1.0256,-4.0956 1.03203,-5.33746c5.68956,-3.43387 12.3485,-2.32847 12.3485,-2.32847c0,0 4.35038,-2.34374 6.74085,-1.58789c2.15327,0.68085 -0.5948,4.24215 -0.56921,7.29582c0.01305,1.55583 1.50782,3.2307 2.03827,4.70018c0.51068,1.41471 0.08678,2.64924 -1.34434,2.88658c-3.02232,0.50121 -7.14433,-3.2593 -7.14433,-3.2593l2.23009,9.19911c0,0 -6.68449,3.43094 -17.20515,2.16149c-7.48165,-0.90275 -8.99837,-6.76105 -8.99837,-6.76105c0,0 2.67148,-2.61667 4.48804,-3.78114c1.80727,-1.15851 6.38364,-3.18789 6.38364,-3.18789z" fill="#feecf7" stroke="#000000" stroke-width="0" stroke-linecap="round"/><path d="M236.51091,180.97036c0,0 -1.0256,-4.0956 1.03203,-5.33746c5.68956,-3.43387 12.3485,-2.32847 12.3485,-2.32847c0,0 4.35038,-2.34374 6.74085,-1.58789c1.68439,0.5326 0.3696,2.82775 -0.27061,5.26374c-0.70722,0.11136 -9.11847,2.47833 -9.11847,2.47833l2.36947,3.88121l2.23009,9.19911c0,0 -0.97231,0.49906 -2.75892,1.04608c-0.18269,-0.61384 -2.54552,-14.15458 -2.54552,-14.15458c0,0 -13.8315,3.3255 -13.60022,3.21161c1.78302,-0.87801 3.5728,-1.67169 3.5728,-1.67169z" fill="#dc94e7" stroke="#000000" stroke-width="0" stroke-linecap="butt"/><path d="M249.89145,173.30443c0,0 4.35038,-2.34374 6.74085,-1.58789c2.15327,0.68085 -0.5948,4.24215 -0.56921,7.29582c0.01305,1.55583 1.50782,3.2307 2.03827,4.70018c0.51068,1.41471 0.08678,2.64924 -1.34434,2.88658c-3.02232,0.50121 -7.14433,-3.2593 -7.14433,-3.2593l2.23009,9.19911c0,0 -6.68449,3.43094 -17.20515,2.16149c-7.48165,-0.90275 -8.99837,-6.76105 -8.99837,-6.76105c0,0 2.67148,-2.61667 4.48804,-3.78114c1.80727,-1.15851 6.38364,-3.18789 6.38364,-3.18789c0,0 -1.02561,-4.0956 1.03202,-5.33746c2.05763,-1.24186 12.34849,-2.32845 12.34849,-2.32845z" fill="none" stroke="#000000" stroke-width="1" stroke-linecap="round"/><g fill="none" stroke="#ff0000" stroke-width="1"><path d="M240.99671,189.17228c-2.61753,1.57784 -5.39303,1.83454 -6.86544,0.66896c-1.51155,-1.19657 -0.03158,-4.01856 2.5728,-5.75385c1.96727,-1.31078 4.59452,-2.07518 6.95426,-0.63327c1.65703,1.01252 0.05816,4.0787 -2.66162,5.71816z" stroke-linecap="butt"/><path d="M237.1825,183.92588l1.62968,5.66099" stroke-linecap="round"/></g><path d="M249.29788,173.87938c-0.15822,0.2769 -0.33031,0.54033 -0.51511,0.79043c-1.85699,2.5132 -4.99844,3.67936 -8.27648,3.61643c-1.07897,-0.02071 -3.58375,-0.18549 -3.34389,-1.83804c0.44548,-3.06916 11.25241,-4.11418 11.71015,-3.31314z" fill="#f89688" stroke="#000000" stroke-width="1" stroke-linecap="butt"/></g><g stroke="#000000" stroke-linecap="round"><path d="M249.74819,183.92588c0,0 1.77797,1.25752 2.70122,1.82735c1.91797,1.18373 3.73173,0.96026 3.73173,0.96026c0,0 -0.06714,1.51828 0.5155,3.17082c0.49653,1.40832 1.62163,2.66857 1.54419,3.2999c-0.16328,1.33106 -2.47589,2.06611 -4.53298,2.16198c-3.40422,0.15866 -4.60295,-1.12759 -4.60295,-1.12759c0,0 -0.12303,-3.93402 -0.0028,-5.75262c0.10692,-1.6172 0.6461,-4.54009 0.6461,-4.54009z" fill="#fddfbd" stroke-width="0"/><path d="M249.74819,183.92588c0,0 1.77797,1.25752 2.70122,1.82735c1.91797,1.18373 3.73173,0.96026 3.73173,0.96026c0,0 -0.04382,0.99079 0.24648,2.24277c-0.82894,-0.25009 -1.37266,0.05301 -3.1407,-0.41531c-2.50102,-0.66247 -3.47666,-2.02588 -3.91129,-2.37123c0.1784,-1.1913 0.37255,-2.24383 0.37255,-2.24383z" fill="#fa9789" stroke-width="0"/><path d="M252.4494,185.75322c1.91797,1.18373 3.73173,0.96026 3.73173,0.96026c0,0 -0.06714,1.51828 0.5155,3.17082c0.49653,1.40832 1.62163,2.66857 1.54419,3.2999c-0.16328,1.33106 -2.47589,2.06611 -4.53298,2.16198c-3.40422,0.15866 -4.60295,-1.12759 -4.60295,-1.12759c0,0 -0.12303,-3.93402 -0.0028,-5.75262c0.10692,-1.6172 0.6461,-4.54009 0.6461,-4.54009c0,0 1.77796,1.25752 2.70121,1.82735z" fill="none" stroke-width="1"/></g><g><path d="M247.68964,193.87551l3.4738,-2.61607l4.54595,2.70184l2.40164,-1.37236l2.61606,3.774c0,0 -5.35589,8.2865 -7.4958,8.63451c-1.97887,0.32182 -4.89836,-6.61886 -4.89836,-6.61886z" fill="#0066cd" stroke="#000000" stroke-width="0" stroke-linecap="round"/><path d="M253.65747,201.33418c1.97357,-1.65742 2.70693,-4.89361 5.38818,-5.8804c0.3998,-0.14713 1.26327,-0.17111 1.42679,0.36231c0.30378,0.99095 -5.77846,9.20631 -7.37912,9.14551c-1.39841,-0.05311 -3.39606,-3.06459 -4.21988,-5.17789c-0.48603,-1.24678 -0.20003,-2.06909 -0.12194,-2.08861c0.13625,-0.09627 1.56123,0.64404 1.64258,1.02069c1.36218,0.92807 3.09633,2.75869 3.2634,2.61838z" fill="#061484" stroke="none" stroke-width="0.5" stroke-linecap="butt"/><path d="M247.68964,193.87549l3.4738,-2.61607l4.54595,2.70184l2.40164,-1.37236l2.61606,3.774c0,0 -5.35589,8.28651 -7.4958,8.63451c-1.97886,0.32182 -4.89836,-6.61886 -4.89836,-6.61886" fill="none" stroke="#000000" stroke-width="1" stroke-linecap="round"/></g></g><g stroke="#000000"><g stroke-linecap="butt"><path d="M265.35051,177.50686l1.24261,-1.9857c0,0 8.91559,1.92243 10.54493,3.5257c1.14381,1.12551 -0.15342,5.18593 -2.80463,4.89862c-3.53066,-0.38263 -8.98287,-6.43859 -8.98287,-6.43859z" fill="#0066cd" stroke-width="0"/><path d="M265.35052,177.50686l0.44101,-0.70475c0,0 1.89768,0.80434 3.71901,1.77821c1.40768,0.7527 2.57539,1.59052 4.00302,2.33778c1.69796,0.88875 3.3773,1.60764 3.33038,1.67908c-0.55667,0.84766 -1.41879,1.4666 -2.51055,1.3483c-3.53066,-0.38262 -8.98287,-6.4386 -8.98287,-6.4386z" fill="#061483" stroke-width="0"/><path d="M265.35052,177.50686l1.24261,-1.9857c0,0 8.91559,1.92244 10.54493,3.52571c1.14382,1.12551 -0.15342,5.18593 -2.80463,4.89862c-3.53066,-0.38262 -8.98287,-6.4386 -8.98287,-6.4386z" fill="none" stroke-width="1"/></g><g stroke-linecap="round"><path d="M226.42083,169.84824c0,0 -1.54856,-26.07756 20.37427,-19.80834c22.47837,6.42809 13.14298,25.2334 13.14298,25.2334c0,0 7.19169,-3.19711 7.92837,-2.43091c0.62181,0.64672 -1.89087,5.12371 -3.16531,6.75234c-0.94172,1.20344 -2.52608,3.92461 -3.9065,3.74441c-0.86886,-0.11344 -3.60462,-3.7776 -3.60462,-3.7776c0,0 -8.2808,2.11764 -15.22093,1.67124c-6.85325,-0.44082 -15.90245,-3.93357 -15.90245,-3.93357c0,0 -6.71498,-2.63434 -6.25071,-5.06212c0.39559,-2.06867 6.60489,-2.38887 6.60489,-2.38887z" fill="#fde0be" stroke-width="0"/><path d="M252.6763,180.48305c-0.03691,0.00622 -0.69871,-2.35915 -0.69871,-2.35915l-3.75749,1.64164l-2.80243,-8.26004l-7.74314,2.37679l0.77747,-6.55168c0,0 -12.03695,0.35761 -12.03587,0.32644c0.20701,-6.14361 2.3995,-22.75871 20.37898,-17.61716c22.47837,6.42809 13.14298,25.2334 13.14298,25.2334c0,0 3.94703,5.44357 3.84575,5.58362c-0.89046,1.23118 -1.99293,2.61231 -2.98918,2.48226c-0.86886,-0.11344 -3.60462,-3.7776 -3.60462,-3.7776c0,0 -1.84069,0.47072 -4.51373,0.92152z" fill="#fc988a" stroke-width="0"/><path d="M259.93321,176.80575l3.3372,-0.56032l-2.41819,4.49965z" fill="#f79587" stroke-width="0.5"/><path d="M246.79508,150.0399c22.47837,6.42809 13.14298,25.2334 13.14298,25.2334c0,0 7.19169,-3.19711 7.92837,-2.43091c0.62181,0.64672 -1.89087,5.12371 -3.16531,6.75234c-0.94172,1.20344 -2.52608,3.92461 -3.9065,3.74441c-0.86886,-0.11344 -3.60462,-3.7776 -3.60462,-3.7776c0,0 -8.2808,2.11764 -15.22093,1.67124c-6.85325,-0.44082 -15.90245,-3.93357 -15.90245,-3.93357c0,0 -6.71498,-2.63434 -6.25071,-5.06212c0.39559,-2.06867 6.60489,-2.38887 6.60489,-2.38887c0,0 -1.54855,-26.07754 20.37427,-19.80832z" fill="none" stroke-width="1"/></g><g stroke-linecap="round"><path d="M267.75962,169.90025c0,0 -2.69476,2.81853 -4.12952,3.87989c-1.23896,0.91652 -3.97811,2.11777 -3.97811,2.11777c0,0 -9.12308,-7.68926 -16.11525,-10.46121c-7.14202,-2.83137 -16.87971,-4.59146 -16.87971,-4.59146c0,0 1.10141,-18.20232 5.27753,-19.85804c3.04085,-1.20563 10.82654,-1.03921 17.79032,1.42245c3.1739,1.12195 12.21933,4.42673 14.43537,8.19437c2.97008,5.04965 3.5994,19.29624 3.5994,19.29624z" fill="#ff292e" stroke-width="0"/><path d="M267.75962,169.90025c0,0 -2.69476,2.81854 -4.12952,3.87989c-1.23896,0.91652 -3.9781,2.11777 -3.9781,2.11777c0,0 -4.41805,-3.7237 -9.46155,-6.92265c-0.13202,-0.08373 5.95447,-13.00494 10.23541,-17.59771c1.4176,-1.52087 3.18311,-1.71082 3.73439,-0.77358c2.97008,5.04966 3.5994,19.29625 3.5994,19.29625z" fill="#ac0e49" stroke-width="0.5"/><path d="M263.63011,173.78016c-1.23896,0.91652 -3.9781,2.11777 -3.9781,2.11777c0,0 -9.12308,-7.68926 -16.11527,-10.4612c-7.14202,-2.83137 -16.8797,-4.59145 -16.8797,-4.59145c0,0 1.10142,-18.20232 5.27753,-19.85804c3.04086,-1.20562 10.82654,-1.03921 17.79032,1.42245c3.1739,1.12195 12.21933,4.42673 14.43536,8.19435c2.97008,5.04966 3.5994,19.29625 3.5994,19.29625c0,0 -2.69476,2.81853 -4.12952,3.87989z" fill="none" stroke-width="1"/></g><g stroke-linecap="round"><path d="M225.98058,166.54145c0,0 -3.96506,-0.0506 -5.83421,0.15218c-1.89781,0.20588 -5.46803,1.074 -5.46803,1.074c0,0 2.521,-3.3379 3.99285,-4.75438c1.39778,-1.34522 4.62745,-3.54176 4.62745,-3.54176l-9.39975,-1.74262c0,0 11.69681,-10.09271 15.56033,-10.69572c2.30424,-0.35962 8.76246,6.506 8.76246,6.506c0,0 1.89435,-2.28486 3.05625,-3.27812c1.05804,-0.90448 3.63274,-2.43998 3.63274,-2.43998c0,0 -0.049,6.31612 0.22046,9.4491c0.2807,3.26382 1.43136,9.75734 1.43136,9.75734l12.95443,8.3947l-2.96431,6.15061l-4.00304,-7.40472l-3.37412,2.72374l-2.61297,-9.8643l-5.80815,2.74606l0.16674,-5.19793c0,0 -11.30699,-0.20642 -13.99435,0.35678c-0.73255,0.15352 -0.94614,1.60907 -0.94614,1.60907z" fill="#4fa6ec" stroke-width="0"/><path d="M231.29238,158.37139l-16.61404,9.39625c0,0 2.521,-3.3379 3.99284,-4.75438c1.39777,-1.34522 4.62745,-3.54176 4.62745,-3.54176l-9.39974,-1.74263c0,0 11.69681,-10.09271 15.56033,-10.69572c2.30423,-0.35963 8.76247,6.506 8.76247,6.506c0,0 1.89434,-2.28486 3.05624,-3.27811c1.05804,-0.90448 3.63274,-2.43997 3.63274,-2.43997l-5.36491,10.85731c0,0 -7.64469,-6.51178 -9.85493,-6.74753c-3.46889,-0.37002 -9.88956,5.20214 -9.88956,5.20214z" fill="#66ffff" stroke-width="0"/><path d="M250.58034,171.48474l-1.77577,4.00694l-1.58326,-5.97695z" fill="#66ffff" stroke-width="0"/><path d="M214.67834,167.76763c0,0 2.521,-3.3379 3.99284,-4.75438c1.39777,-1.34522 4.62745,-3.54176 4.62745,-3.54176l-9.39974,-1.74263c0,0 11.69681,-10.09271 15.56033,-10.69572c2.30423,-0.35963 8.76247,6.506 8.76247,6.506c0,0 1.89434,-2.28486 3.05624,-3.27811c1.05804,-0.90448 3.63274,-2.43997 3.63274,-2.43997c0,0 -0.04899,6.31611 0.22045,9.44909c0.28069,3.2638 1.43136,9.75734 1.43136,9.75734l12.95443,8.3947l-2.96431,6.15061l-4.00304,-7.40471l-3.37412,2.72373l-2.61298,-9.8643l-5.80816,2.74606l0.16674,-5.19793c0,0 -11.30699,-0.20642 -13.99435,0.35678c-0.73255,0.15352 -0.94614,1.60907 -0.94614,1.60907c0,0 -3.96504,-0.0506 -5.8342,0.15218c-1.86918,0.20278 -5.46802,1.07397 -5.46802,1.07397z" fill="none" stroke-width="1"/></g></g><g stroke="#000000"><path d="M249.79588,189.53868c0,0 -3.5868,1.98119 -5.02511,-1.57388c-0.64366,-1.59092 4.15399,-5.21045 4.43152,-5.68664c0.6772,-1.16193 4.36005,0.79807 4.36005,0.79807c0,0 2.96686,-1.02032 3.95996,-0.56274c3.21426,1.48094 2.51289,5.28186 2.51289,5.28186c0,0 4.06881,1.47871 4.51181,2.67111c0.91959,2.47506 1.08067,8.65948 0.61917,9.86524c-0.29165,0.762 -4.01401,2.87366 -6.53869,2.44512c-2.09717,-0.35597 -3.0969,-3.21209 -3.0969,-3.21209c0,0 -2.29277,1.32877 -3.57064,1.04803c-1.20832,-0.26547 -3.50915,-2.78479 -3.50915,-2.78479c0,0 -1.06482,0.80807 -2.14538,0.95097c-1.62096,0.21437 -3.6793,-0.53177 -1.93278,-4.31833c0.79975,-1.73395 5.97859,-1.87398 5.97859,-1.87398z" fill="#fde0be" stroke-width="0" stroke-linecap="round"/><path d="M249.79588,189.53868c0,0 -3.5868,1.98119 -5.02511,-1.57388c-0.3138,-0.77558 0.66565,-2.03334 1.78414,-3.17397c0.35268,1.67864 1.92211,2.60472 3.23001,2.46149c0.84152,-0.09217 1.38994,-0.85444 2.05046,-1.3883c0.00623,0.00236 0.01249,0.00468 0.01877,0.00696c0.19885,0.07209 0.40339,0.09616 0.60097,0.07811c0.28818,0.09145 1.25402,-0.09491 1.31021,-0.17093c0.99512,-0.19405 1.26317,1.25794 2.27565,1.20482c1.05827,-0.05553 3.11384,-1.79206 3.17753,-3.09438c1.11273,1.55117 0.87678,3.51363 0.82515,3.855c-2.0297,0.92388 -4.79304,5.32727 -4.38717,6.98459c0.24413,0.99696 2.63825,0.39422 3.01306,0.08032c1.48584,-1.2444 2.96927,-2.78112 3.30075,-4.53912c0.22384,-0.15847 0.40329,-0.38448 0.50386,-0.66183c0.08649,-0.23854 0.10385,-0.48529 0.06232,-0.71833c0.93433,0.48258 1.81735,1.05713 2.01059,1.57721c0.91959,2.47506 1.08067,8.65948 0.61917,9.86524c-0.29165,0.762 -4.01401,2.87366 -6.53869,2.44512c-0.64728,-0.10987 -1.19001,-0.45791 -1.63109,-0.88662c0.51111,-0.22674 1.00206,-0.52555 1.38406,-0.86295c1.18501,-1.04672 2.283,-1.46123 0.88194,-1.82166c-0.15282,-0.18373 -4.19522,-1.81425 -4.19522,-1.81425c0,0 -0.10083,0.71845 -0.36323,1.44212c-0.13837,0.38164 -0.09977,0.78433 0.07375,1.11822c-0.78288,0.36755 -2.00538,0.83954 -2.81773,0.66108c-1.20832,-0.26547 -3.50915,-2.78479 -3.50915,-2.78479c0,0 -1.06482,0.80807 -2.14538,0.95097c-0.28826,0.03811 -0.59036,0.04588 -0.88244,0.01153c0.61532,-1.51585 1.11442,-3.26331 1.89093,-3.62364c1.58478,-0.73542 3.86305,3.29428 5.20172,1.51607c1.29473,-1.71982 0.78567,-4.94464 -0.95897,-5.12115c-0.03498,-0.01604 -0.07089,-0.03079 -0.1077,-0.04413c-0.43879,-0.1591 -0.90541,-0.08425 -1.26327,0.16065z" fill="#f89688" stroke-width="0" stroke-linecap="butt"/><path d="M244.37266,194.4606c0.09151,-0.1984 0.24037,-0.37595 0.43223,-0.53478c-0.22608,0.30424 -0.43605,0.6418 -0.63588,1.00438c0.06114,-0.15106 0.1289,-0.30755 0.20366,-0.46959z" fill="#f89688" stroke-width="0" stroke-linecap="butt"/><path d="M249.589,192.66793c-0.02844,-0.0103 -0.05673,-0.0204 -0.0849,-0.03025c0.03057,-0.0025 0.06051,-0.00489 0.08979,-0.00716c-0.0018,0.01247 -0.00342,0.02494 -0.00486,0.03742z" fill="#f89688" stroke-width="0" stroke-linecap="butt"/><path d="M249.79588,189.53868c0,0 -3.5868,1.98119 -5.02511,-1.57388c-0.64366,-1.59092 4.15399,-5.21045 4.43152,-5.68664c0.6772,-1.16193 4.36005,0.79807 4.36005,0.79807c0,0 2.96686,-1.02032 3.95996,-0.56274c3.21426,1.48094 2.51289,5.28186 2.51289,5.28186c0,0 4.06881,1.47871 4.51181,2.67111c0.91959,2.47506 1.08067,8.65948 0.61917,9.86524c-0.29165,0.762 -4.01401,2.87366 -6.53869,2.44512c-2.09717,-0.35597 -3.0969,-3.21209 -3.0969,-3.21209c0,0 -2.29277,1.32877 -3.57064,1.04803c-1.20832,-0.26547 -3.50915,-2.78479 -3.50915,-2.78479c0,0 -1.06482,0.80807 -2.14538,0.95097c-1.62096,0.21437 -3.6793,-0.53177 -1.93278,-4.31833c0.79975,-1.73395 5.97859,-1.87398 5.97859,-1.87398z" fill="none" stroke-width="1" stroke-linecap="round"/><path d="M249.9007,189.5767l2.40858,-1.73606" fill="none" stroke-width="1" stroke-linecap="round"/><path d="M257.01729,189.90351c0,0 -1.64239,0.2597 -2.53792,-0.23687c-1.50478,-0.83436 -2.6022,-2.69069 -2.67653,-3.37452c-0.11849,-1.09051 2.41728,-2.74015 2.41728,-2.74015" fill="none" stroke-width="1" stroke-linecap="round"/><path d="M262.231,192.86139c0,0 -1.80422,3.60765 -3.09665,4.32046c-1.25668,0.69308 -4.21732,-1.37306 -4.27893,-1.95772c-0.17745,-1.68484 3.37012,-7.01747 3.37012,-7.01747l1.45717,-0.42052" fill="none" stroke-width="1" stroke-linecap="round"/><path d="M262.87038,194.04209l-1.39954,0.91583" fill="none" stroke-width="0.5" stroke-linecap="round"/></g><g stroke-linecap="butt"><path d="M241.25279,171.55191c-0.28004,-2.94266 1.87843,-5.55515 4.82108,-5.8352c2.94265,-0.28005 5.55515,1.87842 5.8352,4.82108c0.28004,2.94266 -1.87842,5.55515 -4.82108,5.8352c-2.94265,0.28005 -5.55515,-1.87842 -5.8352,-4.82108z" fill="#ffffff" stroke="none" stroke-width="0"/><path d="M238.52579,164.86691c0.26448,2.77917 -1.72437,5.24179 -4.44223,5.50045c-2.71786,0.25865 -5.13553,-1.78463 -5.40001,-4.5638c-0.26448,-2.77917 1.72437,-5.24179 4.44223,-5.50045c2.71786,-0.25865 5.13553,1.78463 5.40001,4.5638z" fill="#ffffff" stroke="none" stroke-width="NaN"/><path d="M232.28917,162.52275c-1.57305,2.35357 -1.26661,6.94994 2.31859,5.68157c4.6452,-1.43797 2.30712,-8.18021 -2.21699,-5.78768c-0.03373,0.03537 -0.06761,0.07073 -0.1016,0.10611zM238.58818,167.1814c-0.01001,0.11982 -0.02159,0.23786 -0.03469,0.35374c-0.19483,0.40089 -0.35189,0.81312 -0.50912,1.21827c0.04995,0.07444 0.08264,0.16203 0.09173,0.25755c0.02001,0.21014 -0.07938,0.40412 -0.24265,0.51474l-0.24364,0.17174c-0.34555,0.72786 -0.80105,1.37706 -1.62831,1.8206c-3.06372,1.64261 -7.41323,-0.48801 -8.06989,-3.63772c-1.02421,-4.63347 3.85899,-9.87434 8.305,-9.12126c2.92671,1.92475 3.77243,5.65268 2.33157,8.42232zM231.92718,169.17753c-1.26048,-0.75575 -1.75118,-2.52246 -1.56477,-4.30401c-0.31235,0.57898 -0.50704,1.21997 -0.49345,1.96148c0.02103,0.24481 0.06211,0.48227 0.12333,0.71037c0.28879,0.80275 1.05357,1.35308 1.93486,1.63216z" fill="#000000" stroke="none" stroke-width="0.5"/><path d="M246.11182,165.16932c5.39817,-1.2251 8.221,6.19803 5.45149,10.12837c-2.31151,2.39151 -6.94981,2.83645 -9.45246,0.41009c-0.38879,-0.37692 -0.60273,-0.85946 -0.73616,-1.38422l-0.08985,-0.16456l0.03424,-0.01869l-0.06812,-0.05592c-0.1481,-0.68295 -0.57519,-2.31687 -0.34438,-3.28479c0.01469,-0.26767 0.05015,-0.53415 0.10746,-0.79447l0.08763,-0.57945c0.02372,-0.18398 0.1382,-0.34302 0.30073,-0.42551c0.53587,-2.23734 2.81864,-2.90897 4.70942,-3.83085zM243.19869,173.5953c-0.09753,0.64769 -0.02199,1.21716 0.88377,1.48757c0.0681,0.0103 0.13569,0.01999 0.20277,0.02909c-0.20056,-0.13862 -0.39977,-0.3041 -0.59625,-0.49848c-0.20606,-0.32756 -0.3682,-0.66868 -0.49029,-1.0182zM248.22891,174.74536c1.97235,-0.90351 2.62707,-3.0808 1.68189,-6.29982c-2.88274,-4.58949 -7.50056,1.99978 -5.35066,5.47196c2.59964,2.58749 6.00054,-2.84597 2.6302,-5.19364c0,0 -0.45578,-0.3211 -0.13468,-0.77687c0.3211,-0.45578 0.77686,-0.13468 0.77686,-0.13468c2.73884,1.94788 2.1406,5.30314 0.39639,6.93301zM242.94858,171.08735c0.20582,-1.70685 1.11041,-3.33018 2.30586,-4.31668c-1.54463,0.68776 -3.17506,1.57573 -2.80878,3.62854c0.06738,0.37761 0.28687,0.51406 0.50292,0.68811z" fill="#000000" stroke="none" stroke-width="0.5"/><path d="M226.24237,174.63629c-0.00696,-0.01617 -0.01357,-0.03309 -0.01983,-0.05077c-0.19584,-0.55389 0.35805,-0.74974 0.35805,-0.74974c3.994,-1.39812 8.18889,0.67038 11.82923,2.28141c2.32123,0.33667 4.20649,1.87284 6.37515,2.28505c0.49862,0.09479 2.46673,0.29597 2.49684,1.02749c0.0663,1.61031 -2.48872,1.14042 -4.31038,0.60269l-0.62799,-0.02359c-0.61899,-0.19254 -1.21983,-0.4298 -1.80903,-0.69327c-1.90923,-0.47772 -3.63987,-1.66451 -5.56336,-2.07541c-0.97987,-0.20933 -1.99475,-0.30842 -3.02156,-0.378c-0.51274,0.04265 -1.13554,-0.0021 -1.76582,-0.10529c-1.01044,-0.06081 -2.01969,-0.13746 -3.00607,-0.30546c-1.11926,-0.79871 -1.26858,-1.38763 -0.93521,-1.81516z" fill="#ff6666" stroke="#000000" stroke-width="1"/></g></g></g></svg>