<svg version="1.1" xmlns="http://www.w3.org/2000/svg" xmlns:xlink="http://www.w3.org/1999/xlink" width="374.77477" height="288.28829" viewBox="0,0,374.77477,288.28829"><g transform="translate(-52.61265,-35.85585)"><g data-paper-data="{&quot;isPaintingLayer&quot;:true}" fill-rule="nonzero" stroke-linejoin="miter" stroke-miterlimit="10" stroke-dasharray="" stroke-dashoffset="0" style="mix-blend-mode: normal"><g stroke="#000000" stroke-linecap="round"><path d="M233.88516,196.91858c0,0 -28.22914,5.91484 -28.27891,-12.06568c-0.01835,-6.62461 16.21325,-5.02736 16.21325,-5.02736z" data-paper-data="{&quot;origPos&quot;:null}" fill="#66c8ff" stroke-width="2"/><path d="M225.84129,185.22997c0,0 -15.91916,-1.89997 -15.71052,-2.51368c0.66156,-1.94585 12.44273,-1.38252 12.44273,-1.38252z" data-paper-data="{&quot;origPos&quot;:null}" fill="#0a0a0a" stroke-width="1"/></g><g data-paper-data="{&quot;origRot&quot;:0}" stroke="#000000" stroke-linecap="round"><path d="M252.007,223.6806c0,0 0.48084,-4.5335 2.12843,-4.35367c4.86178,0.53068 9.77451,-0.55232 14.11256,1.45439c1.80138,0.83328 2.04522,4.89524 2.04522,4.89524l0.72083,31.39497c0,0 0.12236,3.24091 0.11823,5.10519c-0.00442,1.99324 -1.49754,4.84291 -3.75328,4.70994c-8.28237,-0.48816 -13.54389,0.55309 -18.61445,-0.91337c-1.84728,-0.53426 -3.76798,-1.20817 -4.33587,-2.84749c-0.74186,-2.14139 0.50855,-6.24667 0.50855,-6.24667z" data-paper-data="{&quot;origPos&quot;:null}" fill="#ff0000" stroke-width="3"/><path d="M270.79821,265.34282c0,0 -6.63164,1.92988 -12.0782,1.46103c-4.17878,-0.35971 -13.12273,-2.10538 -13.12273,-2.10538c0,0 -1.17582,-2.58611 -1.10387,-4.10484c0.07577,-1.5999 1.48231,-3.8863 1.48231,-3.8863l25.04096,1.39567z" data-paper-data="{&quot;origPos&quot;:null}" fill="#976e57" stroke-width="2"/><path d="M252.06064,223.99096c0,0 0.48084,-4.5335 2.12843,-4.35365c4.86177,0.53067 9.77451,-0.55232 14.11257,1.4544c1.80138,0.83328 2.04522,4.89523 2.04522,4.89523l0.72082,31.39498c0,0 0.12238,3.24091 0.11825,5.10519c-0.00442,1.99324 -1.49756,4.84291 -3.7533,4.70995c-8.28237,-0.48816 -13.54389,0.55311 -18.61444,-0.91336c-1.84728,-0.53426 -3.76797,-1.2082 -4.33587,-2.84749c-0.74186,-2.14139 0.50854,-6.24667 0.50854,-6.24667z" data-paper-data="{&quot;origPos&quot;:null}" fill="#4b4b4b" stroke-width="3"/></g><path d="M215.34504,262.44743c0,0 -3.20993,3.17166 -5.64814,3.79789c-1.86655,0.47941 -3.55838,-0.56787 -5.07749,-1.63754c-4.16975,-2.93611 -6.0648,-7.38719 -11.06625,-13.22816c-1.36218,-1.59081 0.52343,-4.25349 2.41216,-5.34893c1.76654,-1.02456 4.90852,-2.71015 4.90852,-2.71015l30.18225,-16.67104c0,0 3.98754,-2.04589 5.7652,-1.17391c4.28095,2.09986 5.94533,6.31655 9.11279,9.61145c1.0734,1.11659 -2.96444,3.95532 -2.96444,3.95532c0,0 -6.98509,5.91816 -11.45593,9.70609c-6.31003,5.34621 -16.16869,13.69898 -16.16869,13.69898z" fill="#4b4b4b" stroke="#000000" stroke-width="3" stroke-linecap="round"/><g><g><path d="M226.06669,198.07995c0,0 4.08644,-13.31122 6.46433,-13.56028c7.13367,-0.74723 22.78632,1.95315 33.33515,3.17309c1.63075,0.18859 1.14553,13.0783 1.14553,13.0783l-2.3858,29.02256c0,0 -1.83324,14.09655 -3.6122,13.89082c-15.83613,-1.8314 -34.51642,-3.17613 -41.45727,-4.78323c-2.31361,-0.53569 0.77422,-15.25222 0.77422,-15.25222z" data-paper-data="{&quot;origPos&quot;:null}" fill="#66c8ff" stroke="#000000" stroke-width="3.5" stroke-linecap="round"/><path d="M245.01996,208.11467c-1.37773,-0.15932 -1.02971,-2.49858 -1.02971,-2.49858c0.72182,-4.85178 1.67566,-11.26308 2.39749,-16.11486c0,0 0.34802,-2.33924 1.72575,-2.17991c1.37773,0.15932 1.02971,2.49858 1.02971,2.49858c-0.72182,4.85178 -1.44364,9.70357 -2.16546,14.55537l-0.23201,1.55951c0,0 -0.34803,2.33924 -1.72576,2.17992z" fill="#ffffff" stroke="none" stroke-width="0.5" stroke-linecap="butt"/><path d="M256.93336,215.55081c-1.37773,-0.15932 -0.94052,-3.0981 -0.94052,-3.0981c0.90681,-6.09521 2.1051,-14.14959 3.01191,-20.2448c0,0 0.43722,-2.93876 1.81494,-2.77944c1.37773,0.15932 0.94051,3.0981 0.94051,3.0981c-0.90681,6.09521 -1.81361,12.19042 -2.72044,18.28564l-0.29148,1.95918c0,0 -0.43721,2.93876 -1.81493,2.77944z" fill="#ffffff" stroke="none" stroke-width="0.5" stroke-linecap="butt"/></g><g fill="none" stroke="#b9b9b9" stroke-width="3"><path d="M262.84152,192.15889c-0.69265,-1.37923 0.45226,-2.41345 1.9271,-3.40804c1.47485,-0.99457 2.83606,-1.19293 3.41381,-0.19366c1.22496,2.11875 -0.50008,2.85243 -1.65492,3.63121c-1.47486,0.99458 -2.70777,1.91834 -3.68599,-0.02949z" stroke-linecap="butt"/><path d="M263.97403,191.72474l-3.115,2.04982" stroke-linecap="round"/><path d="M256.98818,193.92894c1.47485,-0.99457 2.83607,-1.19293 3.41382,-0.19365c1.22496,2.11875 -0.50009,2.85243 -1.65493,3.63121c-1.47485,0.99457 -2.70776,1.91834 -3.68595,-0.0295c-0.69265,-1.37923 0.45224,-2.41345 1.92707,-3.40805z" stroke-linecap="butt"/><path d="M256.19358,196.90283l-3.115,2.04983" stroke-linecap="round"/><path d="M247.14498,197.83385c0.65611,-1.48821 2.06167,-1.17777 3.61855,-0.55881c1.55687,0.61896 2.45312,1.65694 2.01942,2.80022c-0.91959,2.42407 -2.41776,1.42145 -3.63682,0.9368c-1.55687,-0.61896 -2.92772,-1.07646 -2.00112,-3.17819z" stroke-linecap="butt"/><path d="M244.84274,197.18262l3.25007,1.34025" stroke-linecap="round"/><path d="M240.07779,192.83075c1.13672,-1.1281 2.27965,-0.24299 3.44407,0.99702c1.16441,1.24 1.58297,2.59717 0.77266,3.49343c-1.71806,1.90032 -2.68825,0.32297 -3.60003,-0.64799c-1.16441,-1.24001 -2.222,-2.24929 -0.6167,-3.84244z" stroke-linecap="butt"/><path d="M238.2584,191.24632l2.41301,2.63401" stroke-linecap="round"/><path d="M233.99765,186.2689c1.13671,-1.12808 2.27968,-0.24299 3.44408,0.99702c1.16444,1.24 1.58296,2.59717 0.77266,3.49344c-1.71806,1.90032 -2.68824,0.32295 -3.60002,-0.64801c-1.16441,-1.24 -2.222,-2.24927 -0.6167,-3.84243z" stroke-linecap="butt"/><path d="M234.5913,187.31843l-2.41302,-2.634" stroke-linecap="round"/></g></g><path d="M52.61265,324.14414v-288.28829h374.77477v288.28829z" fill="none" stroke="none" stroke-width="NaN" stroke-linecap="butt"/><g><g data-paper-data="{&quot;index&quot;:null}" stroke="#000000" stroke-width="2.5" stroke-linecap="round"><path d="M227.13454,153.82259c1.39832,-4.37193 4.35513,-5.42734 4.35513,-5.42734c0,0 2.66963,-1.53612 4.24289,-1.46228c4.71982,0.22162 18.15357,1.48525 29.62525,3.64616c0.38285,0.07212 0.59542,0.12654 0.97332,0.22132c1.13364,0.28439 5.51398,1.58214 5.51398,1.58214c0,0 1.35669,3.4308 1.65681,5.24927c0.90037,5.45536 -2.01709,18.78303 -3.91375,32.93989c-0.17188,1.28314 -2.1165,3.3117 -2.1165,3.3117c0,0 -3.36521,1.24078 -5.38385,0.98154c-13.05084,-1.67594 -27.4845,-3.57828 -30.76193,-4.22969c-1.09248,-0.21712 -3.54953,-0.97515 -5.17391,-2.53595c-1.6244,-1.56081 -3.02188,-3.31929 -2.84923,-5.17322c0.17264,-1.85396 2.30177,-24.31992 3.83179,-29.10354z" fill="#582700"/><path d="M228.73733,139.46159c1.39832,-4.37193 4.35511,-5.42731 4.35511,-5.42731c0,0 2.66964,-1.53612 4.24293,-1.46224c4.71984,0.22162 18.15358,1.48522 29.62525,3.64616c0.38286,0.07209 0.59542,0.12654 0.97332,0.22132c1.13364,0.28439 5.51398,1.58214 5.51398,1.58214c0,0 1.35669,3.43081 1.65681,5.24927c0.90037,5.45536 -2.01709,18.78303 -3.91372,32.93989c-0.17188,1.28314 -2.11647,3.31167 -2.11647,3.31167c0,0 -3.36521,1.2408 -5.38385,0.98157c-13.05084,-1.67594 -27.4845,-3.57828 -30.76193,-4.22969c-1.09248,-0.21715 -3.54954,-0.97514 -5.17392,-2.53599c-1.6244,-1.56081 -3.02188,-3.31926 -2.84926,-5.17322c0.17262,-1.85393 2.30179,-24.31992 3.83178,-29.10357z" fill="#000000"/></g><path d="M236.41247,175.29022c4.93359,-1.38958 8.93293,0.67426 10.01321,4.42346c1.23897,4.29989 -2.9113,6.26591 -2.9113,6.26591c0,0 -2.42157,-1.05883 -5.6067,-1.66258c-3.966,-0.75177 -6.22235,-0.62466 -6.22235,-0.62466c0,0 -1.96579,-6.51702 4.72714,-8.40214z" fill="#ffffff" stroke="#000000" stroke-width="2" stroke-linecap="butt"/><path d="M262.74751,178.6979c5.55527,3.54117 1.0405,9.18196 1.0405,9.18196c0,0 -2.08011,-0.71343 -6.134,-1.04602c-3.25572,-0.2671 -5.97552,0.09658 -5.97552,0.09658c0,0 -3.11978,-2.94899 -0.19583,-6.68603c2.54949,-3.25842 7.16987,-4.1568 11.26485,-1.5465z" data-paper-data="{&quot;index&quot;:null}" fill="#ffffff" stroke="#000000" stroke-width="2" stroke-linecap="butt"/><path d="M238.31434,184.98124l-0.40442,-0.08707c-0.87779,0.04072 -1.89673,-0.04266 -2.62803,-0.50351c-0.27272,0.56984 -0.86159,1.17829 -1.01035,1.18575c-2.21461,0.1111 -1.19242,-1.14399 -1.16605,-1.66174c0.01231,-0.24171 -0.50757,-0.47627 -0.655,-0.56844c0,0 -0.05194,-0.03468 -0.11129,-0.09481c-0.16015,0.00033 -0.30911,-0.00042 -0.44188,-0.00406c0,0 -1.1032,-0.03141 -1.08468,-0.86513c0.01852,-0.83373 1.12171,-0.80232 1.12171,-0.80232c1.32478,0.03896 3.09302,-0.01316 4.31824,0.43662c0.55886,0.20516 0.95542,0.62244 1.51757,0.82225c0.5178,0.18402 1.08935,0.26247 1.61783,0.42747l0.6955,0.3224c0,0 0.93645,0.45588 0.35298,1.15463c-0.58347,0.69876 -1.51991,0.24287 -1.51991,0.24287l-0.09229,-0.04935c-0.24438,0.08555 -0.50993,0.04443 -0.50993,0.04443z" fill="#000000" stroke="none" stroke-width="0.5" stroke-linecap="butt"/><path d="M254.31361,187.13395c0,0 -0.26946,-0.01704 -0.47792,-0.15184l-0.10489,0.02791c0,0 -1.0499,0.23989 -1.38913,-0.55919c-0.33922,-0.79907 0.71068,-1.03897 0.71068,-1.03897l0.77458,-0.16255c0.56293,-0.04632 1.1397,0.0001 1.69843,-0.06687c0.60657,-0.07271 1.12305,-0.39073 1.72818,-0.46932c1.32665,-0.1723 3.01657,0.25584 4.30768,0.50132c0,0 1.07481,0.20541 0.82553,1.01405c-0.24929,0.80863 -1.32411,0.60321 -1.32411,0.60321c-0.12932,-0.02486 -0.27334,-0.05597 -0.4278,-0.0905c-0.07655,0.04536 -0.13779,0.06772 -0.13779,0.06772c-0.17184,0.05745 -0.74876,0.17275 -0.81433,0.40867c-0.14047,0.50534 0.44393,1.93512 -1.65792,1.35468c-0.14116,-0.03898 -0.51456,-0.75206 -0.59517,-1.36032c-0.85351,0.28853 -1.86365,0.1513 -2.69782,-0.07557l-0.41823,-0.00239z" data-paper-data="{&quot;index&quot;:null}" fill="#000000" stroke="none" stroke-width="0.5" stroke-linecap="butt"/><g data-paper-data="{&quot;index&quot;:null}" stroke="#000000" stroke-width="1" stroke-linecap="butt"><path d="M231.12156,196.10318c-9.38309,-3.62368 -3.21642,-12.54103 -3.21642,-12.54103l14.0152,5.27048c0,0 -0.86461,11.10705 -10.79879,7.27054z" fill="#000000"/><path d="M231.05664,192.74102c2.28874,1.74935 3.6535,4.17668 3.2035,4.13773c-0.92992,-0.0805 -1.97168,-0.32497 -3.13857,-0.7756c-3.49723,-1.35059 -4.83433,-3.4366 -5.13569,-5.52217c-0.05855,-0.40517 2.96905,0.55362 5.07076,2.16004z" fill="#ff8484"/><path d="M226.48732,186.81538c0.54782,-1.34082 1.41786,-3.25323 1.41786,-3.25323l12.31734,4.63198l-1.22854,3.43215c0,0 -12.52471,-4.76669 -12.50666,-4.81089z" fill="#ffffff"/></g><path d="M226.66715,189.99736c0.41765,-0.32161 0.93743,-0.04476 0.93743,-0.04476l0.40276,0.24121c1.78386,1.58888 4.63705,2.26125 6.76146,3.39391c0.74559,0.39752 2.27312,1.00811 2.63179,1.85791c0.02365,0.05605 0.04509,0.11275 0.06456,0.17002l0.02934,-0.01373l0.44361,0.94752c0.06161,0.12472 0.09466,0.26582 0.09083,0.41454c-0.00714,0.27657 -0.14029,0.52024 -0.3431,0.67749c0.05313,0.11772 0.08122,0.24894 0.07767,0.38671c-0.00864,0.33526 -0.20248,0.62219 -0.48111,0.76543l-0.56251,0.30248c0.0594,0.18097 0.05544,0.33464 0.05544,0.33464l-0.00001,0.00001l-0.00614,0.23785c-0.02839,0.41716 0.14743,0.90402 -0.08518,1.25146c-0.37459,0.55953 -0.91534,1.27225 -1.58827,1.24821c-0.2151,-0.00769 -0.36566,-0.14151 -0.48734,-0.32945c-0.23586,-0.12186 -0.4092,-0.34633 -0.4625,-0.61288l-0.11465,-0.51461c-0.16903,-0.25907 -0.32017,-0.50566 -0.4743,-0.73658c-0.65477,1.49957 0.66271,3.44483 0.45804,4.91242c-0.15112,1.08362 -0.58875,2.31936 -2.10435,2.0823c-0.61358,-0.09598 -1.16521,-0.58413 -1.49706,-1.10908c-0.147,-0.23253 -0.02439,-2.00718 -0.03549,-2.38041c-0.02333,-0.78428 -0.06899,-1.58888 -0.1425,-2.3925c-0.19058,-1.36011 -0.48017,-2.69906 -1.03879,-3.97456c-0.02626,-0.05998 -0.05305,-0.11914 -0.08031,-0.17753c-0.26029,-0.32563 -0.48593,-0.67784 -0.66921,-1.05337l-0.52654,-0.77884c-0.07045,-0.04798 -0.13972,-0.09356 -0.20771,-0.13639l-0.02116,0.02344l-0.8098,-0.73115c-0.18762,-0.16736 -0.30314,-0.41309 -0.29615,-0.68412c0.00131,-0.05059 0.00682,-0.10008 0.01622,-0.14814c-0.13379,-0.15609 -0.26361,-0.31755 -0.38957,-0.4843c-0.24749,-0.32762 -0.68345,-0.58941 -0.72173,-0.99823c-0.0639,-0.68245 -0.12251,-1.61721 0.44016,-2.00866c0.14021,-0.09754 0.41449,-0.05312 0.73614,0.06174zM231.75023,198.89219c0.01249,0.08132 0.02467,0.16283 0.03654,0.24447c0.03124,-0.06393 0.06453,-0.12697 0.09996,-0.18915c-0.04568,-0.01797 -0.09119,-0.0364 -0.13651,-0.05533z" fill="#000000" stroke="none" stroke-width="0.5" stroke-linecap="butt"/></g><g data-paper-data="{&quot;index&quot;:null}"><g data-paper-data="{&quot;origRot&quot;:0,&quot;index&quot;:null}" stroke="#000000" stroke-width="3" stroke-linecap="round"><path d="M212.94826,241.69363c0,0 -23.20315,-9.97342 -22.37955,-12.39253c1.485,-4.36179 7.54733,-13.11345 7.54733,-13.11345l17.55182,-24.45293c0,0 3.40225,-4.59189 4.54546,-4.442c3.4296,0.44962 8.53004,4.54992 14.41841,7.5871c0.97874,0.50485 -1.22757,6.00321 -1.22757,6.00321c0,0 -3.85309,8.49776 -6.31926,13.93678c-3.75572,8.28306 -9.62358,21.22434 -9.62358,21.22434c0,0 -2.78553,6.72053 -4.51307,5.64948z" data-paper-data="{&quot;origPos&quot;:null}" fill="#582700"/><path d="M194.80835,223.04405l21.7343,12.21161" fill="none"/><path d="M218.37788,232.47407l-21.61799,-12.41861" data-paper-data="{&quot;origPos&quot;:null}" fill="none"/></g><path d="M196.86329,219.32996l22.2451,-30.97942l1.45141,0.0302l13.76603,7.78967l-15.50806,35.52626z" fill="#66c8ff" stroke="#000000" stroke-width="1" stroke-linecap="round"/><path d="M194.86321,222.88661l1.14859,-2.02849l22.19052,12.56475l-1.14859,2.02849z" fill="#ffffff" stroke="none" stroke-width="0" stroke-linecap="butt"/></g><path d="M189.76538,237.41639c-2.31314,-1.99194 -2.19103,-4.07628 -2.19103,-4.07628c0,0 -0.24678,-2.03342 0.20719,-2.97738c1.36195,-2.83184 5.62586,-10.72752 9.92928,-17.18892c0.14362,-0.21564 0.23216,-0.33163 0.38837,-0.53835c0.46865,-0.62011 2.40119,-2.96453 2.40119,-2.96453c0,0 2.45279,0.06083 3.64401,0.34957c3.57364,0.8662 10.9747,6.11499 19.14858,10.9543c0.74087,0.43861 1.47748,2.15614 1.47748,2.15614c0,0 -0.11475,2.38252 -0.79793,3.55094c-4.41681,7.55414 -9.33151,15.89601 -10.58183,17.73317c-0.41675,0.6124 -1.5192,1.91963 -2.89675,2.50853c-1.37755,0.58892 -2.81717,0.98756 -3.90727,0.40017c-1.09012,-0.58738 -14.29036,-7.72784 -16.82131,-9.90736z" fill="#582700" stroke="#000000" stroke-width="2.5" stroke-linecap="round"/><g><g data-paper-data="{&quot;index&quot;:null}"><g stroke="#000000" stroke-width="3" stroke-linecap="round"><path d="M290.06255,227.7124c0,0 3.66194,10.09788 3.56412,14.70449c-15.15731,7.51208 -24.95792,5.61432 -24.95792,5.61432c-1.9587,0.54323 -2.74637,-6.68895 -2.74637,-6.68895c0,0 -2.00045,-14.06793 -3.28086,-23.0721c-0.84076,-5.91251 -2.15435,-15.15008 -2.15435,-15.15008c0,0 -0.5747,-5.89658 0.5064,-6.10647c6.50406,-1.26274 12.55019,-3.76698 15.96817,-3.23609c1.13933,0.17696 3.11628,5.53908 3.11628,5.53908l9.98449,28.3958z" data-paper-data="{&quot;origPos&quot;:null}" fill="#582700"/><path d="M291.17393,233.362l-24.99014,5.83722l-0.75984,-3.31608l24.97137,-6.09518z" data-paper-data="{&quot;origPos&quot;:null}" fill="none"/></g><path d="M265.11044,235.48507l-4.39984,-36.60407l1.08945,-0.94805l15.36758,-3.72411l12.41362,35.29722z" fill="#66c8ff" stroke="#000000" stroke-width="1" stroke-linecap="round"/><path d="M266.04783,238.77365l-0.53301,-2.26935l24.82527,-5.83082l0.53301,2.26935z" fill="#ffffff" stroke="none" stroke-width="0" stroke-linecap="butt"/></g><g fill="#fffc96" stroke="#000000" stroke-width="2" stroke-linecap="round"><path d="M287.87262,223.23621c0,0 4.3811,0.14748 4.53836,3.08753c0.2516,4.70397 -32.6114,1.52999 -33.16932,-3.35654c-0.22795,-1.99652 2.91822,-2.40343 2.91822,-2.40343l0.43209,1.82109c0,0 6.03547,1.95025 13.68462,2.86126c7.54315,0.89838 12.58023,0.12643 12.58023,0.12643z"/><path d="M285.04544,215.09567c0,0 2.82317,-2.55567 3.93164,-0.51515c2.32684,4.28334 -25.33938,25.84985 -26.5723,21.3825c-0.74668,-2.70553 2.45605,-4.06269 2.45605,-4.06269l0.35714,1.32981c0,0 4.73127,-2.44442 10.90268,-7.43093c6.17142,-4.9865 9.41116,-9.49232 9.41116,-9.49232z" data-paper-data="{&quot;index&quot;:null}"/></g></g><path d="M292.80597,247.13126c-3.0136,1.44022 -17.6236,4.8725 -18.82954,5.15373c-1.20592,0.28123 -2.49079,-0.48068 -3.66591,-1.40996c-1.17513,-0.92928 -1.89653,-2.47969 -2.13826,-3.1799c-0.72526,-2.10058 -3.28252,-11.43875 -5.5657,-19.88626c-0.35317,-1.30662 0.16036,-3.63595 0.16036,-3.63595c0,0 1.1609,-1.46451 1.9908,-1.69368c9.1563,-2.52852 17.67407,-5.65472 21.34981,-5.5543c1.22526,0.03347 3.6083,0.61744 3.6083,0.61744c0,0 1.25074,2.76888 1.54053,3.49012c0.09659,0.24043 0.15165,0.37557 0.23374,0.6213c2.46006,7.36324 4.50619,16.10028 5.07856,19.19005c0.19078,1.02992 -0.58018,2.92764 -0.58018,2.92764c0,0 -0.42829,2.04352 -3.18255,3.35978z" data-paper-data="{&quot;index&quot;:null}" fill="#582700" stroke="#000000" stroke-width="2.5" stroke-linecap="round"/><path d="M197.33582,165.24327v6.28033h-8.3172v-6.28033z" data-paper-data="{&quot;index&quot;:null}" fill="#582700" stroke="none" stroke-width="0" stroke-linecap="butt"/><path d="M212.58092,157.74141v2.98293h-3.83519v-2.98293z" data-paper-data="{&quot;index&quot;:null}" fill="#582700" stroke="none" stroke-width="0" stroke-linecap="butt"/></g></g></svg>