<svg version="1.1" xmlns="http://www.w3.org/2000/svg" xmlns:xlink="http://www.w3.org/1999/xlink" width="306.30631" height="274.77477" viewBox="0,0,306.30631,274.77477"><g transform="translate(-86.84686,-42.61264)"><g data-paper-data="{&quot;isPaintingLayer&quot;:true}" fill-rule="nonzero" stroke-linecap="butt" stroke-linejoin="miter" stroke-miterlimit="10" stroke-dasharray="" stroke-dashoffset="0" style="mix-blend-mode: normal"><path d="M86.84686,317.38741v-274.77477h306.30631v274.77477z" data-paper-data="{&quot;index&quot;:null}" fill="none" stroke="none" stroke-width="0"/><text transform="translate(271.55605,110.72268) rotate(-180) scale(0.1602,-0.1602)" font-size="40" xml:space="preserve" data-paper-data="{&quot;index&quot;:null}" fill="#000000" fill-rule="nonzero" stroke="none" stroke-width="1" stroke-linecap="butt" stroke-linejoin="miter" stroke-miterlimit="10" stroke-dasharray="" stroke-dashoffset="0" font-family="Sans Serif" font-weight="normal" text-anchor="start" style="mix-blend-mode: normal"><tspan x="0" dy="0">AwezomeXD</tspan><tspan x="0" dy="46.150000000000006px"> </tspan><tspan x="0" dy="46.150000000000006px">MeIzAwezomeDede</tspan></text><g data-paper-data="{&quot;index&quot;:null}"><g><g><g><path d="M198.96894,139.07727c0,0 -7.01974,-9.90722 -1.21661,-16.91952c4.11931,-4.97763 20.67531,-5.57198 30.68756,-10.26351c11.38161,-5.33319 32.44953,-16.2937 32.44953,-16.2937c0,0 6.00335,1.0233 7.82288,0.24866c2.27187,-0.96723 3.39901,-5.06321 3.39901,-5.06321c0,0 1.96893,3.66983 2.92287,6.89153c3.59314,12.135 -5.74553,15.48211 -5.74553,15.48211c0,0 5.58956,4.08649 7.17082,8.08511c1.66216,4.2033 -0.97551,7.72746 -0.97551,7.72746c0,0 3.50998,2.47841 4.8528,5.81416c0.88647,2.20214 1.71578,6.04399 2.20016,8.45087c0.82663,4.1073 9.16609,5.44467 9.16609,5.44467c0,0 -2.66054,4.41495 -5.10309,5.83984c-2.48614,1.45029 -9.45473,0.73848 -9.45473,0.73848c0,0 -2.11169,1.43622 -1.62732,4.26281c0.1527,0.89104 1.0892,2.73047 1.53747,3.56913c1.51202,2.82881 0.40574,5.60676 0.40574,5.60676c0,0 -2.58776,-2.7477 -3.63158,-3.28796c-0.7661,-0.39653 -1.39898,-0.3764 -1.39898,-0.3764c0,0 0.12208,4.55536 1.3058,6.77248c2.63283,4.93133 6.81123,10.7194 5.67348,11.27092c-2.05727,0.99722 -5.86677,-1.81479 -8.45519,-1.33794c-2.38239,0.4389 -6.79891,-4.77677 -6.79891,-4.77677c0,0 0.40064,7.07497 -1.99387,8.82481c-2.32363,1.69807 -2.14687,7.1017 -3.20473,7.60723c-3.85626,1.84283 -12.74599,-8.77294 -12.74599,-8.77294c0,0 -8.63896,12.02674 -12.12744,10.58961c-4.11725,-1.69618 -10.36355,-16.33854 -10.36355,-16.33854c0,0 -6.73648,-2.51198 -8.08222,-5.03642c-3.02225,-5.66945 -1.69867,-11.47304 -1.69867,-11.47304c0,0 -2.91875,1.38711 -4.02516,3.01086c-1.17601,1.72592 -2.83489,7.05683 -2.83489,7.05683c0,0 -3.03268,-4.8712 -3.50271,-7.55516c-0.49426,-2.8225 0.60619,-8.98514 0.60619,-8.98514c0,0 -5.63966,-1.81031 -9.14742,-6.10993c-1.88,-2.30438 -3.04251,-8.26785 -3.04251,-8.26785c0,0 5.29693,2.29727 7.15038,2.24589c1.43775,-0.03986 0.47252,-2.89524 0.47252,-2.89524z" fill="#6d0f0a" stroke="#000000" stroke-width="2"/><path d="M199.19536,133.18043c-1.52025,1.66801 -2.98358,1.25547 -2.98358,1.25547c0,0 -5.78708,-6.15807 -7.3685,-16.28413c-0.85614,-5.48204 1.1252,-13.4685 2.13916,-18.85661c1.43697,-7.63575 8.34758,-13.52977 14.88374,-16.59247c8.59223,-4.02613 18.0883,2.45456 18.0883,2.45456c0,0 7.65302,-7.35641 15.03861,-8.42843c7.13511,-1.03568 14.58668,4.59851 16.56832,5.94365c3.01894,2.04926 9.69009,14.32112 9.69009,14.32112c0,0 -17.48437,30.25388 -31.10269,36.6351c-14.54848,6.81708 -30.63283,-5.18878 -34.95344,-0.44826z" fill="#6d0f0a" stroke="#000000" stroke-width="2"/><path d="M190.67468,104.49245c0,0 0.87352,-3.69137 1.42906,-5.36674c0.53002,-1.59839 1.83121,-4.46549 1.83121,-4.46549c0,0 9.90671,2.77566 14.49957,2.52879c4.81292,-0.25869 11.26188,-4.86316 11.26188,-4.86316c0,0 0.86375,2.15373 1.43306,2.94709c0.60191,0.83879 1.65598,2.15844 1.65598,2.15844c0,0 0.49336,-2.1648 0.52211,-3.01687c0.03104,-0.92031 -0.04651,-2.8043 -0.04651,-2.8043c0,0 2.9368,2.91167 4.17134,3.94715c1.01098,0.84797 2.70013,1.81628 2.70013,1.81628c0,0 -0.81335,-1.97265 -1.31248,-2.9668c-0.52846,-1.05253 -1.77532,-3.18322 -1.77532,-3.18322c0,0 10.4457,0.69448 16.55212,0.1068c0.12259,-0.01181 4.39609,-1.75132 4.73045,-1.8359c7.18922,-1.81856 1.52161,-9.63143 1.52161,-9.63143c0,0 3.86641,2.20639 6.00109,4.65008c2.1651,2.47851 6.89949,10.11798 6.89949,10.11798c0,0 -6.09587,-0.98641 -10.95883,0.38399c-0.86292,0.24317 -10.04805,3.38817 -10.04805,3.38817c0,0 -2.11738,-1.48062 -3.16446,-2.03543c-1.02607,-0.54368 -3.05617,-1.26073 -3.05617,-1.26073c0,0 -0.43049,2.17627 -0.55628,3.46445c-0.15116,1.54761 -0.28852,5.18649 -0.28852,5.18649c0,0 -1.51361,-1.41273 -2.48765,-2.10433c-1.08361,-0.76943 -3.72036,-2.30378 -3.72036,-2.30378c0,0 -1.05529,0.91326 -1.54728,1.63003c-0.683,0.99506 -2.16915,3.78421 -2.16915,3.78421c0,0 -1.77743,-2.38568 -2.70148,-3.39351c-0.79948,-0.87197 -2.52346,-2.30525 -2.52346,-2.30525c0,0 -1.1017,1.66523 -1.62528,2.68837c-0.65334,1.27677 -1.9925,4.38117 -1.9925,4.38117c0,0 -9.65476,-4.715 -13.99135,-4.99726c-4.05648,-0.26405 -11.24394,3.35477 -11.24394,3.35477z" fill="#c42d06" stroke="none" stroke-width="0"/></g><path d="M222.12673,141.62365c0,0 -19.37156,0.74053 -20.2049,-0.46294c-0.14456,-0.20878 -0.59936,-9.21485 -1.12294,-9.95437c-0.95639,-1.3508 -4.68394,1.25529 -4.68394,1.25529c0,0 56.82349,-30.61718 65.87244,-35.02108c2.30531,-1.12194 5.6213,0.23237 5.6213,0.23237l-4.21445,22.03696z" fill="#6d0f0a" stroke="none" stroke-width="NaN"/></g><path d="M225.55617,85.92137c0,0 -4.60696,-0.14527 -4.9645,-5.95636c-0.01882,-0.30619 0.19523,-1.64217 0.31668,-1.96402c0.93066,-2.46624 5.49516,-4.42866 5.49516,-4.42866c0,0 -1.32502,5.32115 -1.7355,7.12281c-0.36588,1.60588 0.88818,5.22623 0.88818,5.22623z" fill="#6d0f0a" stroke="#000000" stroke-width="1.5"/><path d="M216.79569,77.49904c0,0 1.62656,0.51605 2.62771,2.00092c0.67172,0.67468 1.89055,3.28983 1.89055,3.28983l-2.13983,-0.39269z" fill="#000000" stroke="none" stroke-width="0"/></g><path d="M224.25661,84.82041l3.54949,-1.2861c0,0 -1.23151,5.08292 -1.66323,5.41354c-0.60439,0.46287 -4.82425,-3.68794 -4.82425,-3.68794z" fill="#6d0f0a" stroke="none" stroke-width="0"/></g><g data-paper-data="{&quot;index&quot;:null}"><g><path d="M305.15075,281.20389c-0.98651,-0.33862 -2.85622,-1.06736 -2.85622,-1.06736l2.02696,-63.81123c0,0 3.16296,-3.46974 4.83842,-5.17349c1.81091,-1.84148 6.91914,-6.0011 6.91914,-6.0011c0,0 6.01725,0.18197 11.22884,1.77723c7.49136,2.29308 29.41663,10.66422 29.41663,10.66422c0,0 -0.29515,23.3032 -1.13439,34.42755c-0.75693,10.03323 -3.67963,29.38367 -3.67963,29.38367c0,0 -14.50168,1.49922 -21.89596,1.61371c-7.25056,0.11226 -22.04702,-0.93333 -22.04702,-0.93333c0,0 -1.92108,-0.57244 -2.81678,-0.87988z" fill="#434253" stroke="#000000" stroke-width="2.5"/><path d="M306.59659,282.07685c0,0 3.23545,-16.55371 5.33739,-30.5263c1.50254,-9.98814 2.07083,-18.56859 2.09142,-19.2474c0.15709,-5.17871 -0.37711,-9.6264 -0.00092,-14.89447c0.50457,-7.06602 1.1958,-11.58007 1.1958,-11.58007l2.12747,-1.24515c0,0 -1.19498,18.38091 -2.96857,35.7325c-0.74127,7.25212 -2.80838,22.50715 -3.80377,32.05655c-0.10938,1.04936 0.51143,2.42133 0.41165,3.37795c-0.55725,5.34269 -0.94516,6.33045 -0.94516,6.33045l-3.44531,-0.00408z" fill="#000000" stroke="none" stroke-width="0"/></g><g stroke="#000000" stroke-width="1.5"><path d="M330.91389,248.66445c6.79781,-0.60406 14.63313,6.58888 15.44623,14.9411c0.95328,9.79226 -4.99455,16.38589 -13.04707,17.16981c-8.05252,0.78393 -14.96156,-5.31863 -15.10374,-15.15615c-0.1584,-10.9599 5.91804,-16.35169 12.70457,-16.95475z" fill="#2c262f"/><path d="M324.45693,268.77549c-0.26887,-2.76192 1.33577,-5.13174 3.60699,-5.35284c2.27122,-0.2211 3.80952,1.27431 4.07839,4.03623c0.26888,2.76192 -1.40704,5.21323 -3.67826,5.43433c-2.27122,0.2211 -3.73824,-1.3558 -4.00711,-4.11772z" data-paper-data="{&quot;index&quot;:null}" fill="#1b171c"/></g><g stroke="#000000" stroke-width="1.5"><path d="M335.82825,213.84404c6.80856,-0.46759 14.3637,7.15725 14.84887,15.53492c0.56881,9.8221 -5.63284,16.17758 -13.70989,16.64533c-8.07705,0.46775 -14.74165,-5.90085 -14.49821,-15.73639c0.27122,-10.9577 6.54818,-15.97612 13.35924,-16.44387z" fill="#2c262f"/><path d="M328.58818,233.68658c-0.16044,-2.77032 1.53584,-5.07544 3.81398,-5.20737c2.27815,-0.13193 3.75665,1.42261 3.91709,4.19295c0.16044,2.77034 -1.61026,5.15409 -3.8884,5.28602c-2.27814,0.13193 -3.68224,-1.50126 -3.84268,-4.2716z" data-paper-data="{&quot;index&quot;:null}" fill="#1b171c"/></g></g><g data-paper-data="{&quot;index&quot;:null}"><g><path d="M177.70553,280.24702c0,0 -1.88024,0.73284 -2.8723,1.07336c-0.90074,0.30917 -2.83261,0.88483 -2.83261,0.88483c0,0 -14.87968,1.05147 -22.17101,0.93858c-7.43586,-0.11513 -22.01909,-1.62279 -22.01909,-1.62279c0,0 -2.93913,-19.45928 -3.70032,-29.54893c-0.84396,-11.1869 -1.14077,-34.62117 -1.14077,-34.62117c0,0 22.04857,-8.41822 29.58207,-10.7242c5.2409,-1.60422 11.29199,-1.78722 11.29199,-1.78722c0,0 5.13697,4.18302 6.95806,6.03485c1.68488,1.71333 4.86563,5.20259 4.86563,5.20259l2.03836,64.1701z" fill="#434253" stroke="#000000" stroke-width="2.5"/><path d="M173.37927,282.19824l-3.46469,0.0041c0,0 -0.39007,-0.99331 -0.95047,-6.36606c-0.10034,-0.96198 0.52396,-2.34168 0.41397,-3.39694c-1.00099,-9.6031 -3.07972,-24.94394 -3.82517,-32.23684c-1.78356,-17.44918 -2.98527,-35.93346 -2.98527,-35.93346l2.13944,1.25216c0,0 0.69513,4.53943 1.20254,11.64519c0.3783,5.29769 -0.15891,9.77041 -0.00094,14.97823c0.0207,0.68263 0.59219,9.31135 2.10319,19.35565c2.11376,14.05117 5.36741,30.69797 5.36741,30.69797z" fill="#000000" stroke="none" stroke-width="0"/></g><g stroke="#000000" stroke-width="1.5"><path d="M133.39213,263.62307c0.81767,-8.39919 8.69707,-15.63258 15.53311,-15.02512c6.82469,0.60645 12.93531,6.02857 12.77602,17.05011c-0.14298,9.89284 -7.09089,16.02972 -15.18869,15.24139c-8.0978,-0.78832 -14.07908,-7.41904 -13.12044,-17.26637z" fill="#2c262f"/><path d="M151.79121,263.43917c2.284,0.22234 3.89766,2.60548 3.62728,5.38293c-0.27039,2.77745 -1.74565,4.36322 -4.02965,4.14088c-2.284,-0.22235 -3.96933,-2.68744 -3.69895,-5.46489c0.27038,-2.77745 1.81733,-4.28127 4.10133,-4.05893z" data-paper-data="{&quot;index&quot;:null}" fill="#1b171c"/></g><g stroke="#000000" stroke-width="1.5"><path d="M129.05084,229.20399c0.4879,-8.42479 8.08552,-16.09251 14.93237,-15.6223c6.84937,0.47038 13.16163,5.51703 13.43437,16.53635c0.24482,9.89086 -6.45726,16.29528 -14.57974,15.8249c-8.12248,-0.47038 -14.35901,-6.86161 -13.787,-16.73894z" fill="#2c262f"/><path d="M151.26403,233.53585c-0.16134,2.78591 -1.57333,4.42828 -3.86428,4.29561c-2.29096,-0.13268 -4.0716,-2.52983 -3.91026,-5.31575c0.16134,-2.7859 1.64816,-4.3492 3.93911,-4.21653c2.29095,0.13267 3.99677,2.45075 3.83543,5.23667z" data-paper-data="{&quot;index&quot;:null}" fill="#1b171c"/></g></g><g data-paper-data="{&quot;index&quot;:null}" fill="#434253" stroke="#000000"><path d="M302.9364,282.15581c0,0 -39.39406,0.31655 -59.64769,0.31655c-21.72904,0 -66.6118,-0.31655 -66.6118,-0.31655c0,0 -4.38216,-25.00528 -4.16309,-53.75635c-0.46515,-31.11458 4.16309,-61.08575 4.16309,-61.08575c0,0 42.82931,-1.2662 64.39595,-1.2662c21.14461,0 59.33114,1.58275 59.33114,1.58275c0,0 7.99686,28.51433 7.2979,63.41059c-1.03994,32.54257 -4.76549,51.11495 -4.76549,51.11495z" stroke-width="2.5"/><path d="M182.1264,274.24782c1.29409,0 2.34316,0.94416 2.34316,2.10884c0,1.16468 -1.04906,2.10884 -2.34316,2.10884c-1.29409,0 -2.34316,-0.94416 -2.34316,-2.10884c0,-1.16468 1.04906,-2.10884 2.34316,-2.10884z" stroke-width="2"/><path d="M296.58667,273.61069c1.29409,0 2.34316,0.94416 2.34316,2.10884c0,1.16468 -1.04907,2.10884 -2.34316,2.10884c-1.29409,0 -2.34316,-0.94416 -2.34316,-2.10884c0,-1.16468 1.04907,-2.10884 2.34316,-2.10884z" stroke-width="2"/><path d="M292.33154,174.94761c-0.48529,-1.12251 0.08425,-2.44878 1.27209,-2.9623c1.18785,-0.51352 2.54417,-0.01985 3.02946,1.10266c0.48528,1.12251 -0.08426,2.44879 -1.2721,2.96231c-1.18785,0.51352 -2.54417,0.01984 -3.02946,-1.10267z" stroke-width="2"/><path d="M180.4176,171.55907c1.18784,-0.51352 2.54418,-0.01985 3.02946,1.10266c0.48528,1.12251 -0.08426,2.44879 -1.2721,2.96231c-1.18784,0.51352 -2.54417,0.01984 -3.02945,-1.10267c-0.48528,-1.12251 0.08425,-2.44878 1.27209,-2.9623z" stroke-width="2"/></g><g data-paper-data="{&quot;index&quot;:null}" stroke="#000000"><path d="M185.3853,208.8506c-2.45268,-6.65252 -2.23243,-25.16686 1.2238,-28.78372c9.15219,-9.57753 27.02753,-9.85708 50.03744,-9.85708c21.54137,0 42.40116,1.26301 52.15372,9.47437c4.59889,3.87212 4.25165,25.69054 0.6414,31.5768c-5.42101,8.83858 -21.3149,12.1266 -53.01425,12.1266c-31.69935,0 -47.51498,-4.62378 -51.04211,-14.19061z" fill="#434253" stroke-width="2"/><path d="M189.64677,207.2085c-2.26436,-5.8977 -2.06104,-22.3113 1.12983,-25.51776c8.4495,-8.4908 24.95241,-8.08126 46.19565,-8.08126c19.88746,0 39.14569,0.46232 48.14946,7.74198c4.2458,3.43277 3.92522,22.77555 0.59215,27.99392c-5.0048,7.83571 -19.67838,9.87414 -48.94391,9.87414c-29.26554,0 -43.86686,-3.5297 -47.12319,-12.01102z" fill="#2c262f" stroke-width="1.5"/><path d="M215.90007,204.08267c-0.88175,-2.5127 -0.80256,-9.50567 0.43998,-10.87178c3.29029,-3.6175 9.71661,-4.38046 17.98885,-4.38046c7.74429,0 15.24354,1.13441 18.74966,4.2359c1.65334,1.46252 1.5285,9.70347 0.23059,11.92675c-1.94889,3.33838 -7.66286,4.79941 -19.05903,4.79941c-11.39616,0 -17.08201,-1.9232 -18.35003,-5.53664z" fill="#1b171c" stroke-width="1.5"/></g><g data-paper-data="{&quot;index&quot;:null}" stroke="#000000"><path d="M185.3853,265.23479c-2.45268,-6.65252 -2.23243,-25.16686 1.2238,-28.78371c9.15219,-9.57753 27.02753,-9.85709 50.03744,-9.85709c21.54137,0 42.40116,1.26301 52.15372,9.47437c4.59889,3.87213 4.25165,25.69054 0.6414,31.5768c-5.42101,8.83858 -21.3149,12.1266 -53.01425,12.1266c-31.69935,0 -47.51498,-4.62379 -51.04211,-14.19062z" fill="#434253" stroke-width="2"/><path d="M189.64677,263.59268c-2.26436,-5.8977 -2.06104,-22.3113 1.12983,-25.51776c8.4495,-8.4908 24.95241,-8.08127 46.19565,-8.08127c19.88746,0 39.14569,0.46232 48.14946,7.74198c4.2458,3.43277 3.92522,22.77556 0.59215,27.99393c-5.0048,7.83571 -19.67838,9.87414 -48.94391,9.87414c-29.26554,0 -43.86686,-3.5297 -47.12319,-12.01102z" fill="#2c262f" stroke-width="1.5"/><path d="M215.90007,260.46685c-0.88175,-2.51269 -0.80256,-9.50566 0.43998,-10.87177c3.29029,-3.6175 9.71661,-4.38046 17.98885,-4.38046c7.74429,0 15.24354,1.13441 18.74966,4.2359c1.65334,1.46252 1.5285,9.70346 0.23059,11.92674c-1.94889,3.33838 -7.66286,4.79941 -19.05903,4.79941c-11.39616,0 -17.08201,-1.9232 -18.35003,-5.53665z" fill="#1b171c" stroke-width="1.5"/></g><path d="M250.14543,133.91171c0,0 3.31848,0.88777 4.81931,4.20915c1.22346,2.70754 0.73583,7.87095 0.37996,8.61908c-1.6779,3.52735 -1.45669,6.73729 -2.09274,7.98323c-1.40471,2.75164 -2.80652,-0.41146 -2.80652,-0.41146l-6.4,-17.3l6.1,-3.1z" data-paper-data="{&quot;index&quot;:null}" fill="#fb95a9" stroke="#000000" stroke-width="2"/><g data-paper-data="{&quot;index&quot;:null}"><path d="M227.48004,132.29126c2.41131,-2.95149 10.53162,-0.25987 12.59919,3.86227c0.26008,0.51854 1.70637,-0.66733 5.40284,0.98163c0.86997,0.38809 5.3323,2.85511 7.98427,6.04894c1.26983,1.52929 2.1246,3.99593 1.97118,5.03194c-0.22905,2.80784 -2.67033,5.18657 -4.85989,7.14774c-2.87249,2.57284 1.75248,7.33006 -2.40533,7.33006c-3.03121,0 -16.54137,0.60747 -18.69314,-0.7284c-1.28409,-0.79719 -0.53199,-7.61244 -0.88049,-9.01861c-0.48674,-1.96396 -4.99822,-4.40189 -4.99822,-6.61256c0,-2.58633 2.29137,-12.099 3.87959,-14.04301z" fill="#ee1536" stroke="#000000" stroke-width="2"/><path d="M243.59202,152.48037c0,-3.14019 3.56399,-6.94934 7.26523,-7.10728c3.22449,-0.13759 3.97211,2.15654 3.0535,5.15937c-1.10558,3.61402 -4.40634,5.42259 -7.63376,5.42259c-0.06272,0 2.08362,-1.58996 2.84464,-0.28992c1.01358,1.73146 0.66979,6.51156 0.03616,6.86773c-2.98614,1.67855 -13.402,-0.74155 -16.31172,-0.67209c-0.60085,0.01435 -2.90823,0.59035 -3.45604,-1.26733c-0.44915,-1.5231 0.38106,-5.65028 0.34354,-5.65555c-0.60286,-0.08461 -1.36799,-4.06688 -1.36799,-4.06688c0,0 -2.86476,-2.27685 -2.9505,-2.85725c-0.15338,-1.03828 2.10836,-2.8435 2.10836,-2.8435c0,0 1.25189,1.00644 1.97555,1.57762c0.66583,0.52553 1.57561,2.98741 1.57561,2.98741c0,0 4.12841,-5.5717 8.29185,-4.21031c5.58397,1.82588 4.22558,7.21129 4.22558,6.95539z" fill="#9a1652" stroke="none" stroke-width="0"/><path d="M230.10236,161.47034c0.86132,-1.55025 8.52088,-5.58592 9.70316,-7.17085c2.60911,-3.4977 4.57621,-6.08348 4.57621,-6.08348c0,0 0.91108,5.32297 -0.66029,9.58239c-1.16307,3.15265 6.61433,5.47453 5.8723,5.47453c-1.74455,0 -20.27813,-0.38656 -19.49138,-1.80259z" fill="#000000" stroke="none" stroke-width="0"/></g><g data-paper-data="{&quot;index&quot;:null}"><path d="M229.85842,145.1316c-0.33324,5.14108 -6.5882,17.43845 -6.5882,17.43845c0,0 -0.58035,1.27915 -1.58087,2.3327c-0.55664,0.58613 -0.90619,1.15553 -2.16578,1.2688c-0.84248,0.07577 -3.46955,-0.64919 -4.34205,-1.88079c-0.76369,-1.078 -0.42185,-3.38402 -0.33544,-4.15208c0.34268,-3.04586 1.83083,-7.14164 2.56254,-12.06937c0.9098,-6.1271 1.41437,-13.64095 2.48637,-15.89263c0.27655,-0.58087 1.05635,0.41211 1.34164,0.4263c1.25362,0.06236 1.79691,0.67283 3.33346,1.99542c2.62075,2.2558 5.55484,6.13572 5.28833,10.24747z" fill="#ffd5d5" stroke="#000000" stroke-width="2"/><path d="M223.92719,158.98899c0,0 -0.61416,2.61026 -1.9443,4.38467c-0.82651,1.1026 -1.63723,1.74755 -2.39862,1.78563c-1.37066,0.06855 -3.40002,-0.49683 -3.89036,-1.82014c-1.18008,-3.18477 2.32573,-12.09699 2.32573,-12.09699l5.90755,7.74684z" fill="#fb95a9" stroke="none" stroke-width="0"/></g><g data-paper-data="{&quot;index&quot;:null}"><path d="M255.19958,184.17557c-1.00101,-2.204 -1.48204,-4.3489 -0.72825,-4.96606c2.33239,-1.90961 13.28484,-2.98899 13.38878,-2.98899c6.31528,0 14.84633,4.70166 14.84633,7.42317c0,2.15815 -5.66177,5.08636 -11.867,4.87772c-9.17694,-0.30857 -12.61375,-4.42959 -12.80984,-4.64776c-0.77835,-0.86597 0.94691,1.54978 1.61014,2.51138c0.76014,1.10213 2.09503,1.87099 1.91005,2.94778c-0.21138,1.23048 -1.04517,0.91066 -1.93413,0.37576c-1.07219,-0.64516 -2.75079,-1.86638 -4.41608,-5.533z" fill="#ee1536" stroke="#000000" stroke-width="1.5"/><path d="M224.16344,166.83485c0,-3.59654 1.88208,-6.79388 5.00437,-9.12732c4.14737,-3.09953 10.28977,-4.77137 15.23297,-4.77137c5.31995,0 12.36793,-0.19935 14.37465,2.09274c0.5447,0.62216 0.11605,3.35746 0.47021,5.96384c0.20355,1.49801 1.01152,5.12835 2.06489,8.05201c0.76659,2.12772 1.6857,4.5633 2.81912,4.87357c4.6996,1.28652 11.33458,3.83886 9.65309,6.39177c-1.27777,1.93997 -8.71321,2.17386 -14.6326,0.37436c-5.32793,-1.61969 -9.13974,-5.17457 -11.08352,-5.65964c-3.29754,-0.8229 -10.29591,1.43415 -13.65474,0.96798c-2.18858,-0.30375 -4.10262,-1.02669 -5.53901,-1.79684c-3.55989,-1.90871 -4.7094,-5.13615 -4.7094,-7.3611z" fill="#ffd5d5" stroke="#000000" stroke-width="1.5"/><path d="M254.40496,163.13252c0,0 1.5473,-1.13661 2.20683,-1.84011c0.59795,-0.63781 1.58373,-2.20314 1.58373,-2.20314c0,0 0.47515,2.43192 0.69523,3.67533c0.19897,1.12418 0.56829,3.46354 0.56829,3.46354c0,0 -2.16472,-0.56777 -3.07746,-1.12683c-0.7315,-0.44803 -1.97661,-1.96878 -1.97661,-1.96878z" fill="#fb95a9" stroke="none" stroke-width="0"/><path d="M275.08881,180.09436c0.16969,-0.35395 1.67522,-0.13645 2.97302,0.48578c1.2978,0.62223 2.68613,2.36122 2.51643,2.71517c-0.1697,0.35394 -1.51728,-1.12707 -2.81508,-1.7493c-1.29779,-0.62223 -2.84406,-1.0977 -2.67436,-1.45165z" fill="#fc9ea5" stroke="none" stroke-width="0"/></g><g data-paper-data="{&quot;index&quot;:null}"><path d="M231.01661,188.16844c2.5441,-6.35721 7.6863,-8.12709 12.34285,-6.26357c4.65656,1.86351 6.54811,7.90162 4.004,14.25883c-2.5441,6.35722 -11.22418,11.88722 -14.69074,10.29339c-3.43224,-1.57805 -4.378,-11.60389 -1.83389,-17.9611z" fill="#ee1536" stroke="#000000" stroke-width="1.5"/><path d="M233.51809,185.39081c0,0 2.00422,-2.86118 4.30555,-3.50609c0.77193,-0.21631 4.08674,0.23689 6.56763,1.86017c1.68622,1.10331 2.8021,3.19439 3.19142,4.24588c0.67057,1.81111 0.10967,3.76134 0.10967,3.76134c0,0 -1.81828,1.66589 -5.43619,1.54424c-1.90251,-0.06397 -4.61734,-2.13774 -6.33064,-4.2466c-1.54479,-1.90145 -2.40744,-3.65892 -2.40744,-3.65892z" fill="#9a1652" stroke="none" stroke-width="0"/><path d="M237.96925,175.60229c0.55432,-7.08643 2.21505,-10.84502 10.62649,-10.5467c4.91806,0.17442 6.52345,5.86357 6.20118,8.26798c-1.07822,8.0444 -9.74893,15.13352 -9.74893,15.13352c0,0 1.38491,8.01261 -6.9327,9.02219c-4.06733,0.49369 -4.09452,-6.52097 -3.42123,-8.22854c1.22234,-3.10001 3.42075,-4.916 3.42075,-4.916c0,0 -0.3919,-5.5836 -0.14558,-8.73245z" fill="#ffd5d5" stroke="#000000" stroke-width="1.5"/><path d="M245.1026,176.95961c-0.98594,-0.64 -1.21165,-1.61216 -1.54278,-2.57662c-0.39958,-1.16379 -0.68288,-4.079 -0.68288,-4.079c0,0 1.88781,1.43735 2.95744,2.05164c1.0526,0.6045 3.57324,1.45269 3.57324,1.45269c0,0 -1.55297,2.41034 -2.26572,2.89984c-0.66241,0.45494 -1.05335,0.89143 -2.03929,0.25145z" fill="#fb95a9" stroke="none" stroke-width="0"/><path d="M235.8695,203.62274c-0.64171,-0.03296 1.51192,-1.05037 2.3367,-1.53259c0.91489,-0.5349 2.82616,-2.37563 2.86295,-2.00666c0.07441,0.74608 -1.44675,2.17702 -2.28268,2.66576c-0.90726,0.53045 -1.82762,0.92947 -2.91696,0.87351z" fill="#fc9ea5" stroke="none" stroke-width="0"/></g><g data-paper-data="{&quot;index&quot;:null}"><g><g><path d="M252.90509,119.08187c-1.00604,-3.52272 0.49017,-7.03866 3.3419,-7.85307c2.85172,-0.81441 5.97905,1.38111 6.98509,4.90383c1.00604,3.52273 -0.49019,7.03868 -3.34192,7.85309c-2.85172,0.81442 -5.97904,-1.3811 -6.98508,-4.90382z" fill="#fb95a9" stroke="#000000" stroke-width="2"/><path d="M243.87051,138.24422c-25.05089,3.31053 -28.41539,1.30703 -32.81487,-7.93386c-4.39948,-9.2409 9.43594,-14.22286 22.50967,-20.44711c13.07373,-6.22427 19.65633,-10.03018 24.05581,-0.78927c0.71768,1.50747 1.99961,11.65737 1.99961,11.65737c0,0 8.68876,1.74178 9.00958,5.80014c0.33214,4.38437 -15.28371,10.46044 -24.75979,11.71274z" fill="#ffd5d5" stroke="#000000" stroke-width="2"/><path d="M211.01099,122.86823c0,0 23.13837,-15.40893 28.73602,-18.0739c10.60601,-5.0494 14.97332,0.14629 17.02307,4.45171c0.89527,1.8805 1.68869,10.40167 1.68869,10.40167c0,0 -5.24741,-4.00221 -7.64721,-4.64024c-0.95014,-0.25261 -2.73678,-0.96049 -2.73678,-0.96049c0,0 -0.8115,1.91054 -1.24572,3.03755c-0.60119,1.56038 -2.40755,4.70823 -2.40755,4.70823l-1.95529,-3.29297l-2.83621,5.20376l-8.50412,-5.1375c0,0 -1.21472,6.12917 -2.78235,8.93036c-1.67148,2.98674 -6.95503,8.46916 -6.95503,8.46916l-3.93879,0.85729c0,0 -4.34658,-3.89167 -5.44041,-6.26234c-1.0507,-2.27712 -0.99832,-7.69234 -0.99832,-7.69234z" fill="#fb95a9" stroke="none" stroke-width="0"/><path d="M206.0123,135.39369c-1.37486,-2.88776 -1.74859,-3.48231 -0.59708,-5.66318c0.92319,-1.7484 8.41208,0.03287 9.78692,2.92065c1.37485,2.88778 1.79367,6.02647 0.00849,6.87637c-1.78518,0.84989 -7.38388,-0.51036 -9.0303,-3.96856z" fill="#ffd5d5" stroke="#000000" stroke-width="2.5"/><path d="M214.94359,138.72173c-0.63712,0.30331 -3.57151,0.06697 -5.22103,-1.04761c-1.02979,-0.69582 -1.8821,-1.76824 -2.50859,-2.73856c-0.76828,-1.18994 -0.08898,-2.19679 1.34497,-2.06077c2.39836,0.22748 5.70859,0.75277 6.27178,1.93567c0.89989,1.89018 1.63549,3.18633 0.11285,3.91125z" fill="#fb95a9" stroke="none" stroke-width="0"/><path d="M208.04961,132.32467c-0.27498,-0.57756 7.65924,3.35054 7.65924,3.35054l0.18084,2.82932c0,0 -7.56511,-5.60232 -7.84008,-6.17989z" fill="#000000" stroke="none" stroke-width="0"/><path d="M214.37466,139.94142c-1.00465,-1.57583 -0.06231,-3.6228 1.76632,-4.71663c1.8286,-1.09381 3.77888,-2.46651 5.68985,0.1158c0.33639,0.45456 2.45336,3.47019 1.60862,5.64677c-0.13168,0.33928 -1.06058,1.7862 -2.32025,2.43624c-1.73962,0.89773 -3.01548,0.88228 -3.01548,0.88228c0,0 1.47847,-2.40171 1.22256,-2.46524c-0.8162,-0.20262 -4.10753,-0.57521 -4.95164,-1.8992z" fill="#6d0f0a" stroke="#000000" stroke-width="2"/><path d="M201.79218,143.00436c-8.12702,-1.22961 -11.85987,-4.15346 -11.85987,-4.15346c0,0 6.11303,-2.7351 7.46196,-5.51816c1.35971,-2.80531 0.12116,-12.38825 0.12116,-12.38825c0,0 21.76894,-7.84612 30.62647,-12.06309c8.20197,-3.90483 15.40822,-7.30887 20.68973,-9.79546c5.74046,-2.70266 11.9026,-2.14295 14.52634,2.08593c0.64931,1.04651 1.5229,2.45632 2.08425,3.71336c2.56579,5.7456 2.50262,11.87156 2.50262,11.87156c0,0 -7.62851,-5.14425 -11.20037,-7.28173c-4.41759,-2.64356 -10.62957,-4.13002 -10.62957,-4.13002c0,0 0.62702,3.95721 0.06232,6.89385c-0.58457,3.0399 -3.56922,4.10669 -3.56922,4.10669c0,0 -1.40762,-2.85931 -2.51509,-3.98946c-1.01945,-1.04036 -2.92002,-3.0084 -2.5416,-1.89838c0.38066,1.11663 0.92464,3.91997 1.23075,5.28339c0.79225,3.52882 0.44988,4.18684 0.44988,4.18684c0,0 -2.91341,-2.28645 -5.76327,-4.37426c-2.42313,-1.77519 -5.35799,-2.13927 -5.35799,-2.13927c0,0 -2.63923,5.96781 -4.42652,8.67554c-1.61454,2.44602 -5.48713,6.7015 -5.48713,6.7015c0,0 5.1211,6.66113 1.2648,7.83352c-2.72551,0.8286 -4.05551,0.81711 -5.89816,0.26389c-1.10467,-0.33165 -2.48201,-2.9973 -2.48201,-2.9973l2.13721,-0.29297c0,0 -3.49529,-5.29598 -4.86935,-5.12125c-2.41938,0.30767 -0.88998,-0.65522 -4.01685,0.92991c-0.45514,0.23072 -0.57912,3.56389 0.69896,6.10044c1.37213,2.72325 4.17101,4.65409 4.17101,4.65409c0,0 -3.27498,3.44166 -7.24375,2.84117z" fill="#6d0f0a" stroke="#000000" stroke-width="1.5"/><path d="M239.43895,106.83574c-0.88542,0.42154 -2.51164,-0.07118 -4.3562,0.65032c-1.9984,0.78165 -4.22316,2.78185 -5.22816,3.30303c-14.51478,7.52753 -30.48715,16.28137 -30.48715,16.28137c0,0 -0.38536,-2.66967 -0.8517,-3.85428c-0.4982,-1.26561 -1.76304,-3.6483 -1.76304,-3.6483c0,0 21.04986,-6.93009 32.93309,-12.58755c7.62508,-3.63023 15.51268,-7.76654 20.86198,-9.43948c5.66415,-1.77143 8.97167,-1.16304 8.97167,-1.16304l3.73064,5.86861l-2.58117,0.4609l-8.23557,-3.27482c0,0 -8.9329,5.46959 -12.99439,7.40323z" fill="#6d0f0a" stroke="none" stroke-width="0"/><path d="M236.52671,132.26875c0.0542,-0.36837 8.86511,-1.79646 9.04714,-1.45013c0.1737,0.33044 -3.12822,6.10595 -4.1496,6.42772c0,0 -4.93277,-4.73819 -4.89754,-4.97759z" fill="#ef3d61" stroke="#000000" stroke-width="1.5"/><path d="M218.87766,122.39902c0,0 2.10964,0.94748 3.142,1.13514c0.95011,0.17272 2.21929,-0.34451 2.21929,-0.34451c0,0 -0.60266,-0.55536 -1.21565,-1.1393c-0.63933,-0.60901 -2.04056,-2.52722 -2.04056,-2.52722c0,0 1.85756,1.11465 2.69945,1.41715c0.80511,0.2893 2.52709,0.45959 2.52709,0.45959c0,0 2.32064,-1.15833 3.85935,-1.89088c4.02791,-1.91763 7.99908,-0.30975 7.99908,-0.30975c0,0 -2.48097,0.42661 -3.33505,0.60387c-0.60668,0.12588 -1.24562,0.48599 -1.24562,0.48599c0,0 3.79513,7.61946 -1.92802,10.42192c-4.68756,2.29537 -6.40352,-4.67631 -6.75014,-4.93875c-0.25112,-0.19013 -1.43229,-0.61335 -1.43229,-0.61335c0,0 -1.67228,-0.20655 -2.38079,-0.63051c-0.77078,-0.46122 -2.11812,-2.12943 -2.11812,-2.12943z" fill="#000000" stroke="none" stroke-width="0"/></g><path d="M262.30163,100.4985c0,0 -1.47393,-2.33855 -2.3065,-3.47137c-0.79615,-1.08326 -2.58465,-3.18346 -2.58465,-3.18346c0,0 1.26263,0.18271 2.77989,2.05585c0.99163,1.22421 3.50615,4.4271 3.50615,4.4271z" fill="#000000" stroke="none" stroke-width="0"/></g><path d="M257.75131,120.32777c0,0 -5.31515,0.20793 -8.0996,0.68878c-1.32476,0.22878 -3.02813,0.85841 -4.71601,1.32766c-1.86828,0.51942 -3.27884,1.7419 -3.27884,1.7419c0,0 -0.33951,-0.67312 -0.01758,-1.53055c0.32515,-0.86599 1.19103,-1.79387 1.84662,-2.51532c0.79976,-0.88009 1.82779,-1.56916 2.65688,-1.90224c1.385,-0.5564 4.77651,-0.19279 6.82191,0.01936c0.97559,0.10119 1.64414,0.07136 1.64414,0.07136l3.65062,-1.22227l-1.68443,1.97753l2.80667,-0.187l-1.63038,1.53083z" fill="#000000" stroke="none" stroke-width="0"/></g><g data-paper-data="{&quot;index&quot;:null}"><path d="M245.48848,151.88957c0.31758,0 3.63225,0.10673 3.93065,0.53877c1.33824,1.93757 -0.34292,6.78522 -0.8631,7.58224c-0.49564,0.75943 -2.84323,1.49437 -3.60601,1.49437c-1.74182,0 -3,-2.32127 -3,-4.61538c0,-2.29411 1.79664,-5 3.53846,-5z" fill="#fd96aa" stroke="#000000" stroke-width="1.5"/><path d="M244.86555,154.56431c0,-0.89092 0.53377,-2.58568 0.53377,-2.58568c0,0 -0.81215,-0.59137 -2.15109,-0.83204c-3.5962,-0.64641 -10.41342,-1.46661 -9.58073,-5.89658c0.03455,-0.18378 0.29905,-0.76307 0.74205,-1.20909c0.39569,-0.39838 0.94934,-0.67488 1.36082,-0.71617c2.61682,-0.26256 7.31343,1.52607 10.90324,2.80277c2.35425,0.83728 4.45659,1.18678 4.87944,1.18678c4.24569,0 7.3125,3.88769 7.3125,8.375c0,4.48731 -2.31681,7.75 -6.5625,7.75c-4.24569,0 -7.4375,-4.38769 -7.4375,-8.875z" fill="#ffd5d5" stroke="#000000" stroke-width="2"/><path d="M257.90245,156.9649c0,0 -0.34526,2.49276 -2.05627,4.21688c-0.96367,0.97106 -2.61326,1.48763 -3.99461,1.29818c-2.14798,-0.2946 -3.623,-1.43109 -4.51488,-2.7743c-1.61932,-2.43875 -1.52514,-5.55894 -1.52514,-5.55894c0,0 2.82352,4.97121 4.67142,5.5735c1.52522,0.49712 2.75672,-0.79266 3.2383,-0.76702c0.98819,0.05261 0.32921,0.85134 0.96662,0.65647c1.90339,-0.58193 3.21457,-2.64476 3.21457,-2.64476z" fill="#fb95a9" stroke="none" stroke-width="0"/><path d="M254.18078,162.65183c0,0 0.13813,-1.21919 -0.34844,-2.20255c-0.32538,-0.65758 -0.81095,-1.14719 -0.86242,-1.42386c-0.04507,-0.24228 1.40411,-0.43217 2.20899,0.57336c1.03693,1.29542 0.84803,1.90619 0.84803,1.90619z" fill="#000000" stroke="none" stroke-width="0"/><path d="M245.5654,156.2742c0,0 0.80576,-0.61428 1.23432,-0.85917c0.46578,-0.26616 1.45799,-0.67929 1.45799,-0.67929c0,0 -0.91782,1.39623 -1.22445,2.21391c-0.30873,0.8233 -0.31401,2.63224 -0.31401,2.63224z" fill="#000000" stroke="none" stroke-width="0"/><path d="M239.50343,145.89279c0,0.3767 -0.2727,1.00919 -0.69032,0.96305c-0.82404,-0.09104 -1.87893,-0.28638 -2.84958,-1.30382c-0.61347,-0.64305 -0.43926,-1.86061 -0.43926,-1.86061c0,0 1.59096,-0.0914 2.25871,-0.0043c0.75823,0.0989 1.72045,0.51819 1.72045,0.51819z" fill="#f7426f" stroke="#000000" stroke-width="1"/></g><g data-paper-data="{&quot;index&quot;:null}"><path d="M212.77522,151.32627c0.37059,-0.34432 0.26173,-0.44905 -0.35095,-0.38204c-2.72641,0.2982 -10.30616,0.54917 -11.94466,-5.57246c-0.05007,-0.18705 -0.19795,-0.89129 0.10961,-1.48773c0.36428,-0.70644 1.02758,-0.84782 1.37169,-0.86445c0.97062,-0.0469 2.43406,0.14999 4.16591,0.53818c1.90836,0.42776 3.85413,1.06835 6.04772,1.42648c3.36959,0.55012 6.74432,0.42458 8.35627,0.42458c2.98802,0 4.3683,1.54274 5.59776,2.7217c0.82704,0.79307 1.78749,1.85105 2.18353,2.84754c0.42382,1.06641 0.75762,2.27745 0.53977,4.04403c-0.63636,2.60145 -2.0519,4.04844 -3.63083,4.25815c-1.77061,0.23518 -3.19414,-0.71318 -3.19414,-0.71318c0,0 -0.42136,4.00338 -4.22335,4.00338c-2.95882,0 -7.19048,-1.73928 -7.48118,-4.74044c-0.33171,-3.42455 1.43613,-5.55912 2.45286,-6.50374z" fill="#ffd5d5" stroke="#000000" stroke-width="2"/><path d="M227.34249,151.40844c0,0 0.6567,1.45505 0.51551,2.95027c-0.1044,1.10562 -0.6317,2.27226 -1.65324,2.98565c-0.96642,0.6749 -4.12675,0.58006 -4.12675,0.58006c0,0 -0.84835,2.80522 -2.41269,3.51048c-1.25488,0.56574 -3.62472,0.36187 -5.78223,-0.68179c-1.69631,-0.82055 -2.46916,-2.41609 -2.46916,-2.41609c0,0 0.27016,0.13595 0.85247,-0.10928c0.38664,-0.16283 0.23657,-2.30332 0.80595,-2.54623c0.2504,-0.10683 0.5787,0.50953 0.87941,0.48792c1.47365,-0.10591 1.19022,-5.10353 1.19022,-5.10353l-1.18362,-1.1561c0,0 -3.87794,0.61531 -7.37662,-0.24561c-1.19324,-0.29362 -2.27926,-0.82208 -3.23768,-1.51982c-1.25101,-0.91075 -1.94149,-3.04504 -1.94149,-3.04504c0,0 0.75999,-0.02067 1.21669,0.06902c1.15837,0.22748 3.04363,2.3482 5.65175,2.8833c2.29079,0.47 4.68506,0.73335 6.71226,0.7053c0.87965,-0.01217 1.94899,-0.1478 2.57482,-0.18157c0.12783,-0.0069 0.29184,-0.253 0.63416,-0.33914c0.29455,-0.07413 0.49103,0.07867 0.54982,0.10211c0.8907,0.35508 1.27438,2.326 2.09148,3.07982c1.64463,1.51725 3.51828,2.44009 4.13921,2.39582c2.22288,-0.15849 2.36974,-2.40552 2.36974,-2.40552z" fill="#fb95a9" stroke="none" stroke-width="0"/><path d="M219.48535,158.83704c0,0 0.75798,-0.15239 1.12719,-1.00677c0.27812,-0.64358 0.27386,-1.90177 -0.09511,-2.58205c-0.14904,-0.27478 -3.5612,-0.3811 -3.86699,-1.15891c-0.43012,-0.97007 -0.52223,-2.60941 -0.52223,-2.60941c0,0 1.62596,1.45982 2.93407,1.63109c0.71359,0.09343 1.27892,0.27214 1.70876,0.22584c0.24002,-0.02585 0.43777,-0.22018 0.59551,-0.30154c0.45316,-0.23374 0.58447,-0.56282 1.04395,-0.77703c0.34398,-0.16035 0.74456,-0.24514 0.89458,-0.06048c0.18674,0.22986 0.06376,0.79873 -0.12459,1.24378c-0.40925,0.96703 -0.98653,1.96041 -0.91259,2.89965c0.07054,0.89608 1.00317,2.42439 1.00317,2.42439z" fill="#000000" stroke="none" stroke-width="0"/><path d="M221.98535,159.69419c0,0 -2.0686,0.27887 -3.64236,0.28435c-0.69652,0.00242 -1.35354,-0.16358 -1.59359,-0.2354c-2.75119,-0.82312 -3.4069,-3.62038 -3.4069,-3.62038c0,0 2.20914,1.9773 3.73503,2.24778c2.38416,0.4226 4.47926,-0.60492 4.47926,-0.60492l0.42857,1.92857z" fill="#000000" stroke="none" stroke-width="0"/><path d="M227.77107,156.90846c0,0 -0.32302,1.11744 -1.72681,1.77541c-1.23905,0.58076 -2.55891,0.36745 -2.55891,0.36745c0,0 -0.00315,-1.16277 0.44704,-2.13996c0.30413,-0.66013 1.11954,-1.16415 1.32276,-1.23925c0.22523,-0.08323 0.91188,-0.09768 1.40562,0.17806c0.77855,0.43479 1.1103,1.0583 1.1103,1.0583z" fill="#871847" stroke="#000000" stroke-width="1"/><path d="M211.12821,150.05132c0,0 4.64286,-0.80189 4.64286,0.21429c0,1.04826 -1.35521,1.13074 -2.20158,1.46113c-0.55418,0.21633 -0.72699,0.6103 -0.72699,0.6103z" fill="#000000" stroke="none" stroke-width="0"/></g></g></g></svg>