<svg version="1.1" xmlns="http://www.w3.org/2000/svg" xmlns:xlink="http://www.w3.org/1999/xlink" width="132.46782" height="183.64288" viewBox="0,0,132.46782,183.64288"><g transform="translate(-154.84848,-81.59198)"><g data-paper-data="{&quot;isPaintingLayer&quot;:true}" fill-rule="nonzero" stroke-linejoin="miter" stroke-miterlimit="10" stroke-dasharray="" stroke-dashoffset="0" style="mix-blend-mode: normal"><g stroke="#000000" stroke-width="1.5"><g data-paper-data="{&quot;index&quot;:null}"><path d="M192.99244,188.64258c0.17221,-0.0485 5.55663,-1.339 11.10837,-1.66634c5.32808,-0.31414 10.83053,0.60325 11.39256,2.41904c1.18441,3.82655 -6.73535,9.20652 -17.42626,12.87571c-10.69092,3.66917 -15.00336,8.41022 -18.04295,6.19213c-14.1588,-10.33204 1.68691,-16.64449 12.96826,-19.82055z" fill="#f0d5b1" stroke-linecap="butt"/><path d="M184.80122,195.33581l8.24759,8.37497" fill="none" stroke-linecap="round"/><path d="M189.47583,213.28496c0,0 -3.48291,-1.44097 -5.16638,-2.44042c-2.1861,-1.29781 -6.84076,-4.68783 -6.84076,-4.68783c0,0 1.51123,-3.91974 2.69347,-5.65486c1.23027,-1.80562 5.87608,-3.41868 5.87608,-3.41868l9.38506,7.08111l-5.94745,9.12063z" fill="#955544" stroke-linecap="butt"/><path d="M193.15696,207.22294l-10.62698,-6.76768l-0.98735,-0.92836" fill="none" stroke-linecap="round"/><path d="M190.60474,211.52012l-11.22727,-7.58015" fill="none" stroke-linecap="round"/></g><g data-paper-data="{&quot;index&quot;:null}"><g><path d="" data-paper-data="{&quot;index&quot;:null}" fill="#f0d5b1" stroke-linecap="butt"/><path d="" data-paper-data="{&quot;index&quot;:null}" fill="#955544" stroke-linecap="butt"/><path d="" data-paper-data="{&quot;index&quot;:null}" fill="none" stroke-linecap="round"/><path d="" data-paper-data="{&quot;index&quot;:null}" fill="none" stroke-linecap="round"/></g><path d="M198.9446,210.33885c0,0 1.46255,-1.4694 6.43153,-0.62658c2.11322,0.35845 4.82204,0.68302 5.11149,2.56817c0.24273,1.58088 -1.26702,2.24032 -3.98367,3.65049c-2.29911,1.19344 -1.38283,1.50158 -3.37197,2.77077c-1.44031,0.91899 -3.24354,2.28604 -5.38847,3.34089c-2.43706,1.19852 -5.9191,0.39741 -9.06476,0.53666c-2.42736,0.10744 -4.23631,2.47271 -6.95827,1.34468c-5.22039,-2.1634 -4.66284,-5.08154 -5.39809,-8.30704c-0.58221,-2.55398 -3.17935,-5.29573 -1.63928,-8.04278c3.48506,-6.21636 19.6787,-7.47697 19.6787,-7.47697c0,0 5.6628,11.80495 2.94752,13.20783c-4.71033,2.43362 -6.55066,-6.71527 -6.55066,-6.71527c0,0 2.18355,8.87325 -0.02375,9.63229c-6.47944,2.22816 -7.50237,-5.93154 -6.99892,-3.52168c0.22855,1.09409 0.29136,2.25019 -0.00923,3.29907c-0.96271,3.35915 -5.71533,1.42729 -5.71533,1.42729c0,0 1.649,0.37128 3.20828,0.1503c1.34306,-0.19034 2.60552,-0.905 2.85455,-1.68098c0.78235,-2.43785 -1.7178,-6.73606 -1.7178,-6.73606c0,0 1.03681,2.7617 2.49161,4.95014c1.3103,1.97102 2.92326,3.451 5.05423,2.48048c2.96402,-1.34989 0.84278,-10.08316 0.84278,-10.08316c0,0 2.61919,7.61333 4.74787,7.382c1.74013,-0.18911 3.45169,-3.55058 3.45169,-3.55058z" fill="#46b8d9" stroke-linecap="round"/></g></g><g stroke="#000000" stroke-width="1.5"><path d="M235.7597,257.79131c0,3.69674 -5.2465,6.69354 -11.71836,6.69354c-6.47187,0 -11.71836,-2.99681 -11.71836,-6.69354c0,-3.69673 5.2465,-6.69353 11.71836,-6.69353c6.47187,0 11.71836,2.99677 11.71836,6.69353z" fill="#46b8d9" stroke-linecap="butt"/><path d="M214.12096,252.84939l9.55575,-12.0421l-0.88014,-9.0707l12.32189,1.56391c0,0 0.2814,7.04754 -1.00586,11.10376c-1.28727,4.05621 -4.65214,6.72482 -4.65214,6.72482z" fill="#494d5f" stroke-linecap="round"/><path d="M222.44453,242.465c0,0 2.57835,2.22992 5.77508,2.26127c1.94488,0.01906 5.71698,-1.29163 5.71698,-1.29163c0,0 -1.19203,3.57083 -2.07388,4.89448c-0.86115,1.29255 -3.15664,2.95633 -3.15664,2.95633l-13.70496,1.25114z" fill="#f0d5b1" stroke-linecap="round"/><path d="M254.56945,250.22203l-9.65634,-22.01987l8.75106,-4.50406l13.88099,27.77506z" fill="#494d5f" stroke-linecap="butt"/><path d="M269.4563,257.04068c0,3.97313 -4.59349,7.19398 -10.25987,7.19398c-5.66638,0 -10.25987,-3.22085 -10.25987,-7.19398c0,-3.97312 4.5935,-7.19398 10.25987,-7.19398c5.66638,0 10.25987,3.22085 10.25987,7.19398z" fill="#46b8d9" stroke-linecap="butt"/><path d="M222.78399,264.23463l1.70998,-7.25655" fill="none" stroke-linecap="round"/><path d="M230.62978,262.23281l0.90528,-5.37986" fill="none" stroke-linecap="round"/><path d="M253.56357,261.85747l0.40234,-4.87942" fill="none" stroke-linecap="round"/><path d="M261.10759,262.85839l0.20117,-5.88031" fill="none" stroke-linecap="round"/><path d="M252.25594,244.84215l9.55575,-4.75429l5.83404,11.51039l-12.67394,-1.12603z" fill="#f0d5b1" stroke-linecap="round"/></g><g stroke="#000000" stroke-width="1.5"><path d="M225.49924,234.15523c0,0 -7.92975,4.41224 -13.69867,5.9067c-5.7689,1.49446 -9.62473,4.57569 -10.8229,1.01824c-2.68328,-7.96689 3.14722,-8.05187 8.91611,-9.54636c5.57416,-1.44401 15.60544,2.62142 15.60544,2.62142z" fill="#49c0e0" stroke-linecap="butt"/><path d="M257.53115,215.53838c2.50799,6.05475 -3.20628,14.5875 -12.76317,19.05845c-9.34002,4.36947 -18.8837,7.41398 -22.42577,-0.93944c-1.32592,-3.12693 3.00128,-8.7426 3.00128,-8.7426l-19.49632,-43.37904l24.40015,2.34746l17.49427,29.57029c0,0 8.26485,-1.59603 9.78955,2.08487z" fill="#f0d5b1" stroke-linecap="butt"/><path d="M257.83913,218.08212c0.19706,1.45739 -0.60545,4.81425 -0.60545,4.81425c0,0 -4.48628,8.03328 -10.60303,10.72317c-8.28203,3.64207 -17.74519,5.13673 -17.74519,5.13673c0,0 -3.94127,-1.40946 -5.13046,-2.83903c-0.93347,-1.12221 -1.91312,-4.472 -1.91312,-4.472c0,0 15.36323,-3.18315 21.36729,-6.0924c5.58583,-2.7066 13.49307,-10.799 13.49307,-10.799c0,0 0.97816,2.35446 1.13689,3.52828z" fill="#494d5f" stroke-linecap="round"/><path d="M244.00075,225.41595c2.26456,-1.04381 6.4297,-4.01992 6.4297,-4.01992c0,0 -1.47065,5.76659 -4.24775,7.04664c-2.77713,1.28004 -9.24244,-0.82864 -9.24244,-0.82864c0,0 4.82885,-1.16942 7.06053,-2.19805z" fill="#e7e7e8" stroke-linecap="round"/><path d="M244.95946,234.65641l-1.02139,-4.72499" fill="none" stroke-linecap="round"/><path d="M252.1332,228.54533l-2.70544,-2.62877" fill="none" stroke-linecap="round"/><path d="M211.32995,192.68367l-2.98125,-10.33826l22.23085,-2.25429l6.69957,11.54138z" fill="#955544" stroke-linecap="butt"/><path d="M229.63793,187.68291l1.41192,4.18211" fill="none" stroke-linecap="round"/></g><g stroke="#000000" stroke-width="1.5"><g><path d="M253.90751,152.75321c-4.03375,-3.49513 -7.33252,-7.99363 -6.46711,-9.68601c1.28323,-2.50945 6.41872,-3.18666 12.85641,-1.22943c2.71153,0.82438 7.76526,4.41258 10.79281,5.84625c3.27834,1.55243 5.78123,0.34922 7.98921,-0.39283c4.67224,-1.57019 5.47323,-3.0822 5.89935,-0.56267c2.9227,17.28237 -11.66071,18.19031 -21.95463,12.58749c-0.15715,-0.08553 -4.91292,-2.92098 -9.11601,-6.56282z" data-paper-data="{&quot;index&quot;:null}" fill="#f0d5b1" stroke-linecap="butt"/><path d="M280.91104,134.43463c0,0 1.96836,3.21442 2.74156,5.01307c1.00404,2.33566 2.7731,7.8155 2.7731,7.8155c0,0 -3.52825,2.28023 -5.5051,2.98761c-2.05714,0.73611 -6.7628,-0.69311 -6.7628,-0.69311l-3.42219,-11.24767l10.17545,-3.87539z" data-paper-data="{&quot;index&quot;:null}" fill="#955544" stroke-linecap="butt"/><path d="M274.36777,137.17032l4.6108,11.72499l0.25213,1.33162" data-paper-data="{&quot;index&quot;:null}" fill="none" stroke-linecap="round"/><path d="M283.57798,147.93249l-4.61813,-12.73511" data-paper-data="{&quot;index&quot;:null}" fill="none" stroke-linecap="round"/><path d="M268.67336,142.37372c-0.26227,-0.03552 -1.62787,-0.24704 -2.19056,-0.76794c-0.80219,-0.74262 -0.92819,-1.89623 -2.06968,-2.20263c-3.2788,-0.88012 -6.8954,-1.52068 -6.95153,-3.68669c-0.0586,-2.2607 6.73166,-1.86906 6.73166,-1.86906c0,0 -5.87915,-2.32632 -5.59246,-4.44298c0.48258,-3.56284 7.30901,-2.3384 7.30901,-2.3384c0,0 -3.83777,-1.93289 -2.48322,-3.98946c1.76557,-2.6806 6.97357,1.92736 7.58826,2.01063c5.56409,0.75368 9.55051,5.23436 8.90393,10.00791c-0.64657,4.77355 -5.68133,8.03233 -11.2454,7.27866z" data-paper-data="{&quot;index&quot;:null}" fill="#46b8d9" stroke-linecap="butt"/></g><path d="M236.59859,94.35045c7.60403,-2.76996 14.2361,-3.21634 15.49175,-2.52227c9.23684,5.10565 19.09877,37.65019 3.92991,41.85219c-15.16886,4.20199 -33.19021,-7.39697 -36.55698,-23.3377c-0.92448,-4.37701 7.64498,-12.53507 17.13533,-15.99217z" data-paper-data="{&quot;index&quot;:null}" fill="#49c0e0" stroke-linecap="butt"/><path d="M195.7358,100.79856c3.48948,15.91431 -8.16421,33.90033 -23.71862,36.31102c-15.55443,2.41068 -19.95477,-31.30937 -13.63635,-39.76305c0.85893,-1.14919 7.08742,-3.4708 15.15769,-4.07447c10.07225,-0.7534 21.23918,3.15676 22.19732,7.52651z" fill="#49c0e0" stroke-linecap="butt"/><path d="M264.11758,137.20012c0,0 17.69227,9.92458 11.97425,31.88708c-2.88267,11.07213 -15.78381,20.56712 -53.38751,22.47188c-28.40625,1.43889 -53.8592,-16.1523 -57.86642,-42.0081c-4.00722,-25.85582 17.57313,-51.47897 43.78988,-53.71534c57.87599,-4.937 55.48982,41.3645 55.48982,41.3645z" fill="#49c0e0" stroke-linecap="butt"/><path d="M247.49648,161.75662c-0.86366,9.5529 -24.69767,34.20529 -34.72927,34.43401c-7.97328,0.18179 -12.6013,-19.48722 -13.28435,-32.63688c-0.67614,-13.0166 -1.368,-22.28524 10.06644,-22.19028c5.89076,0.04896 13.17848,13.56269 21.52922,17.21621c7.85868,3.43819 16.99278,-3.18092 16.41796,3.17697z" fill="#c25e5d" stroke-linecap="butt"/><path d="M254.35988,159.81517c-1.67701,3.42345 -10.5392,3.81312 -19.79426,0.87037c-9.25505,-2.94273 -15.39827,-8.10353 -13.72123,-11.52697c1.67701,-3.42345 10.5392,-3.81311 19.79426,-0.87037c9.25505,2.94273 15.39827,8.10353 13.72123,11.52697z" fill="#c8dee6" stroke-linecap="butt"/><path d="M247.2207,152.11164c0,0 -5.07965,2.93084 -8.40688,1.77949c-3.32726,-1.15134 -5.30536,-6.0706 -5.30536,-6.0706c0,0 4.35081,-0.28802 7.67806,0.86331c3.32725,1.15134 6.03423,3.42778 6.03423,3.42778z" fill="#c04915" stroke-linecap="butt"/><path d="M239.18783,152.67885c0,0 -0.89539,2.77443 -1.57182,3.87437c-0.67058,1.09045 -1.77519,3.09544 -1.77519,3.09544" fill="none" stroke-linecap="round"/><path d="M225.5896,123.27192c1.76441,11.38456 -5.67232,21.98779 -16.61042,23.68301c-10.9381,1.69523 -21.23551,-6.15951 -22.99992,-17.5441c-1.76441,-11.38456 5.67232,-21.9878 16.61042,-23.68301c10.9381,-1.69522 21.23551,6.15952 22.99992,17.5441z" fill="#ffffff" stroke-linecap="butt"/><path d="M261.09668,128.34053c2.44429,10.2656 -0.88163,19.93143 -7.42866,21.58923c-6.54702,1.6578 -13.83587,-5.32017 -16.28013,-15.58577c-2.44429,-10.2656 0.88163,-19.93143 7.42866,-21.58923c6.54702,-1.6578 13.83587,5.32017 16.28013,15.58577z" fill="#ffffff" stroke-linecap="butt"/><path d="M220.68962,88.11974c0.3506,3.50331 -6.62014,3.03142 -6.62014,3.03142c0,0 -5.13877,7.41339 -8.16024,5.60594c-3.02146,-1.80746 -1.75872,-7.04316 0.86384,-11.42725c2.62257,-4.38409 13.20324,-4.33706 13.9165,2.78988z" data-paper-data="{&quot;index&quot;:null}" fill="#000000" stroke-linecap="butt"/><path d="M243.23437,96.80966c0,0 -5.6336,-3.36789 -3.6563,-5.73486c4.02254,-4.81528 12.24784,0.78456 12.14662,5.37677c-0.10121,4.59224 -1.67119,9.08111 -4.89342,8.78973c-3.22225,-0.29139 -3.59687,-8.4316 -3.59687,-8.4316z" data-paper-data="{&quot;index&quot;:null}" fill="#000000" stroke-linecap="butt"/><path d="M200.44593,153.17214c0,0 10.39039,7.22986 14.17672,12.79819c4.10358,6.03488 10.63472,24.56711 10.63472,24.56711c0,0 -9.51186,9.02496 -15.83632,3.73235c-10.15284,-8.49632 -8.9751,-41.09763 -8.9751,-41.09763z" fill="#f1898a" stroke-linecap="round"/><path d="M223.37586,156.69892l-4.67436,5.68855l0.6705,-11.39478z" fill="#ffffff" stroke-linecap="butt"/></g><path d="M213.80225,146.05905c-4.71009,-3.21234 -11.91438,-3.73465 -15.6043,1.32052c-3.05104,4.1799 -2.72795,4.74506 -4.26179,9.77069c-0.05172,0.16944 -1.44321,4.50673 -1.43616,5.04974c0.11042,8.49732 4.83321,17.55581 7.27922,25.53262c1.4491,4.87849 3.05592,9.6531 4.86206,14.41124c3.3907,8.93254 7.35726,17.85977 4.40575,27.56157c-1.65292,5.43325 -5.98287,10.68093 -12.31831,8.61714c-1.20423,-0.39228 -2.09178,-1.43127 -3.09174,-2.20852c-0.51813,-0.40273 -0.81803,-1.48238 -1.45532,-1.32584c-0.6853,0.16833 -0.73835,1.22555 -0.91636,1.9084c-0.83628,3.20791 0.23239,4.99223 2.44998,7.14706c5.58015,6.82132 15.3977,5.74085 19.51723,-2.13886c0.64638,-1.23638 1.66224,-5.28502 2.10905,-6.51409c1.38646,-3.81387 3.99521,-8.45036 3.5097,-12.66336c-0.20153,-1.74875 -1.21574,-3.30409 -1.83157,-4.95318c-1.33542,-3.57606 -2.25591,-7.33328 -3.63791,-10.92534c-2.23397,-5.41773 -3.00988,-10.78658 -4.15486,-16.51733c-1.92559,-9.63779 -5.08875,-19.72876 -2.6398,-29.64916c1.14391,-4.63386 4.06346,-8.22559 6.24281,-12.31671c0.35872,-0.67339 0.67695,-1.38089 0.97233,-2.10657zM219.4248,148.1008c-0.37825,0.96486 -0.78504,1.9084 -1.25471,2.80024c-1.93564,3.6755 -4.70288,6.87394 -5.75719,11.01662c-0.48176,1.89295 -0.24572,7.2775 -0.24623,7.94901c-0.00519,6.79043 1.61999,12.4763 2.93976,19.0685c1.07148,5.35203 1.72166,10.446 3.84514,15.48267c1.39757,3.63481 2.33504,7.46302 3.69542,11.07466c0.79176,2.10202 1.92597,4.14709 2.16843,6.38016c0.57825,5.32558 -2.05883,10.48487 -3.82363,15.33664c-0.9993,2.74727 -1.11799,4.79023 -2.55762,7.48591c-6.0593,11.34592 -20.91875,12.92169 -29.14944,3.19448c-2.08065,-2.12794 -3.20088,-2.79696 -4.03781,-6.00042c-1.13586,-4.34763 0.69415,-11.42356 5.57143,-12.94412c4.43978,-1.38416 7.11066,5.9853 9.99197,3.0396c0.57708,-0.58997 1.36662,-0.99566 1.8044,-1.69526c1.76023,-2.81299 1.20627,-6.99497 1.21862,-10.08947c0.02289,-5.73664 -2.80262,-10.66178 -4.80795,-15.94386c-1.85362,-4.88248 -3.50096,-9.78409 -4.9901,-14.7894c-2.43012,-7.93016 -5.57792,-15.59534 -6.8307,-23.79124c-0.17861,-1.16849 -0.71468,-2.29347 -0.70459,-3.47549c0.01405,-1.64648 1.18988,-5.16355 1.70148,-6.81425c1.77252,-5.71906 1.59419,-6.7744 5.26724,-11.69865c4.86845,-6.52688 13.12034,-7.0775 20.3133,-4.66648c0.92719,0.31078 1.62453,0.5991 2.19828,0.90295c0.20901,-0.32217 0.39839,-0.51155 0.39839,-0.51155l5.21209,2.96974c-0.31223,0.72837 -0.60053,1.48033 -0.88132,2.24133c0.30333,0.80653 0.35772,1.91904 -0.75479,3.03156c-0.17703,0.17703 -0.35406,0.32451 -0.52985,0.44614z" fill="#000000" stroke="none" stroke-width="0.5" stroke-linecap="butt"/><path d="M266.2136,143.18565c-0.76714,0.39319 -2.44002,0.93468 -3.78027,-0.85231c-0.03975,-0.05299 -0.07744,-0.1057 -0.11316,-0.15809c-1.77676,-0.03575 -2.70155,-0.0177 -5.07719,0.82504c-7.47226,2.65071 -6.41005,10.53335 -6.40964,16.86639c0.0005,7.66708 2.50164,13.9409 5.73089,20.89966c1.98443,4.27626 3.78587,9.16515 6.42651,13.09481c0.63428,0.9439 1.68497,1.60233 2.17467,2.62871c1.24461,2.60864 1.7534,5.53448 3.05613,8.11458c2.64,6.15518 5.00421,12.54435 5.91633,19.2214c0.24197,1.7713 -0.04586,5.13993 -0.35184,6.90482c-0.14711,0.84853 -0.38625,1.68018 -0.64184,2.50257c-0.00834,0.02682 -0.02225,0.05681 -0.04039,0.08885c0.60589,-0.52711 1.34792,-0.92469 1.88791,-1.52169c1.79931,-1.98927 3.40416,-4.80455 4.36131,-7.30789c3.22021,-8.42217 -0.00376,-19.03194 -1.80189,-27.40769c-2.06331,-12.88805 -4.76864,-25.825 -7.64117,-38.54447c-0.89777,-3.9753 -2.40493,-7.81857 -3.03869,-11.86484c-0.17635,-1.12594 -0.54239,-2.33033 -0.65765,-3.48985zM265.27163,136.54498c1.28855,-1.01035 2.54607,-2.33517 3.97553,-1.91712c1.90997,0.55859 2.46302,3.19027 3.20471,5.03686c0.37928,0.94429 -0.01318,2.03652 0.04441,3.0525c0.15291,2.69706 0.30604,3.21221 0.92347,5.79352c3.75572,15.70148 7.47566,31.50237 10.02913,47.47112c2.30235,10.76377 5.48379,23.27957 0.03796,33.61775c-2.45069,4.65231 -10.12572,15.59611 -15.9149,7.4395c-2.11763,-2.98361 1.10377,-9.101 0.59969,-12.57772c-0.87235,-6.01676 -3.01379,-11.77574 -5.39316,-17.33249c-1.24588,-2.51388 -1.75148,-5.34573 -2.94387,-7.88542c-0.86412,-1.84051 -2.46878,-3.2568 -3.40046,-5.06405c-5.59251,-10.84818 -11.60157,-21.89927 -11.60081,-34.31277c0.00014,-2.30531 -0.16057,-8.36178 0.39269,-10.92717c1.99804,-9.26465 10.00325,-12.69436 18.60731,-12.7395c0,0 0.70942,0 1.43829,0.34498z" fill="#000000" stroke="none" stroke-width="0.5" stroke-linecap="butt"/></g></g></svg>