<svg version="1.1" xmlns="http://www.w3.org/2000/svg" xmlns:xlink="http://www.w3.org/1999/xlink" width="31.95929" height="42.61157" viewBox="0,0,31.95929,42.61157"><g transform="translate(-222.13787,-154.04192)"><g data-paper-data="{&quot;isPaintingLayer&quot;:true}" fill-rule="nonzero" stroke-linejoin="miter" stroke-miterlimit="10" stroke-dasharray="" stroke-dashoffset="0" style="mix-blend-mode: normal"><text transform="translate(229.78632,187.72709) scale(0.38082,0.38082)" font-size="40" xml:space="preserve" data-paper-data="{&quot;index&quot;:null}" fill="#ffffff" fill-rule="nonzero" stroke="none" stroke-width="1" stroke-linecap="butt" stroke-linejoin="miter" stroke-miterlimit="10" stroke-dasharray="" stroke-dashoffset="0" font-family="Sans Serif" font-weight="normal" text-anchor="start" style="mix-blend-mode: normal"><tspan x="0" dy="0">???</tspan></text><path d="M247.45137,196.02479c-6.79458,-0.13515 -13.38304,-0.28652 -16.05845,-0.93161c-2.44515,-0.58957 -3.14005,-2.16332 -3.14005,-2.16332c0,0 -0.94614,-1.39763 -0.96862,-2.26039c-0.06741,-2.58828 0.08657,-9.98045 0.80931,-16.33615c0.02412,-0.21212 0.04536,-0.33046 0.08207,-0.54076c0.11013,-0.63091 0.6444,-3.07664 0.6444,-3.07664c0,0 1.82078,-0.87849 2.8026,-1.11514c2.94545,-0.70996 10.34569,0.35209 18.15833,0.82316c0.70812,0.0427 1.8944,1.0244 1.8944,1.0244c0,0 0.81252,1.78957 0.75148,2.90313c-0.39462,7.19936 -0.85774,15.1635 -1.08283,16.98067c-0.07503,0.60573 -1.17926,2.92889 -1.17926,2.92889z" data-paper-data="{&quot;index&quot;:null}" fill="#582700" stroke="#000000" stroke-width="1.25" stroke-linecap="round"/><path d="M244.60861,183.94124c0.10797,-1.96984 0.36972,-3.55716 0.5846,-3.54538c0.21489,0.01178 0.30157,1.6182 0.19359,3.58803c-0.10797,1.96984 -0.3697,3.55714 -0.58459,3.54537c-0.21489,-0.01178 -0.30157,-1.61819 -0.1936,-3.58802z" data-paper-data="{&quot;index&quot;:null}" fill="none" stroke="#000000" stroke-width="1.25" stroke-linecap="butt"/><path d="M247.03243,180.95609c-0.14507,0.36379 -0.46206,0.32762 -0.59108,0.29547c-0.09723,0.12511 -0.25235,0.20185 -0.42249,0.19203c-0.11672,-0.00675 -0.22172,-0.05314 -0.3027,-0.12535l-0.40717,-0.35621c-0.08121,-0.04607 -0.16235,-0.0907 -0.24354,-0.13407c-0.37723,-0.03069 -0.73122,-0.33287 -1.16776,-0.54802c-0.1044,-0.04352 -0.20991,-0.08641 -0.3168,-0.12898c0,0 -0.10062,-0.04012 -0.18931,-0.12986c-0.17048,-0.08719 -0.2825,-0.26916 -0.27074,-0.4726c0.01587,-0.27473 0.25145,-0.48459 0.52619,-0.46872c0.05375,0.00311 0.10504,0.01463 0.15261,0.0332l0.49048,0.17857l-0.02188,0.06011l0.01947,0.01004c0.01347,0.00631 0.02682,0.01255 0.04006,0.01873c0.04985,0.02109 0.09946,0.04235 0.14883,0.06379c0.66667,0.11618 1.30709,0.35894 1.90934,0.72682l0.36821,0.13765c0,0 0.46284,0.18457 0.27828,0.64741z" data-paper-data="{&quot;index&quot;:null}" fill="#582700" stroke="none" stroke-width="0.5" stroke-linecap="butt"/><path d="M242.0188,187.99788c0.39037,0.15945 0.23092,0.54983 0.23092,0.54983l-0.26572,0.64213c-0.31264,1.60575 1.88522,1.26476 2.8867,0.96319c0,0 0.4039,-0.12117 0.52507,0.28273c0.12117,0.4039 -0.28273,0.52507 -0.28273,0.52507c-1.82871,0.54668 -4.21636,0.43268 -3.94301,-1.99175l0.29894,-0.74028c0,0 0.15945,-0.39037 0.54983,-0.23092z" data-paper-data="{&quot;index&quot;:null}" fill="#000000" stroke="none" stroke-width="0.5" stroke-linecap="butt"/><path d="M248.48231,184.22488c0.10797,-1.96984 0.36972,-3.55716 0.5846,-3.54538c0.21489,0.01178 0.30157,1.6182 0.19359,3.58803c-0.10797,1.96984 -0.3697,3.55714 -0.58459,3.54537c-0.21489,-0.01178 -0.30157,-1.61819 -0.1936,-3.58802z" data-paper-data="{&quot;index&quot;:null}" fill="none" stroke="#000000" stroke-width="1.25" stroke-linecap="butt"/><path d="M247.45953,181.16936c-0.18456,-0.46284 0.27828,-0.64741 0.27828,-0.64741l0.36821,-0.13765c0.60225,-0.36788 1.24267,-0.61064 1.90934,-0.72682c0.04937,-0.02144 0.09898,-0.0427 0.14883,-0.06379c0.01324,-0.00618 0.02659,-0.01242 0.04006,-0.01873l0.01947,-0.01004l-0.02188,-0.06011l0.49048,-0.17857c0.04757,-0.01857 0.09886,-0.03009 0.15261,-0.0332c0.27474,-0.01587 0.51032,0.19399 0.52619,0.46872c0.01176,0.20344 -0.10026,0.38541 -0.27074,0.4726c-0.08869,0.08974 -0.18931,0.12986 -0.18931,0.12986c-0.10689,0.04257 -0.2124,0.08546 -0.3168,0.12898c-0.43654,0.21515 -0.79053,0.51733 -1.16776,0.54802c-0.08119,0.04337 -0.16233,0.088 -0.24354,0.13407l-0.40717,0.35621c-0.08098,0.07221 -0.18598,0.1186 -0.3027,0.12535c-0.17014,0.00982 -0.32526,-0.06692 -0.42249,-0.19203c-0.12902,0.03215 -0.44601,0.06832 -0.59108,-0.29547z" data-paper-data="{&quot;index&quot;:null}" fill="#582700" stroke="none" stroke-width="0.5" stroke-linecap="butt"/><g data-paper-data="{&quot;index&quot;:null}" stroke="#000000" stroke-width="1.1" stroke-linecap="butt"><path d="M253.43579,170.09047c0,0 -18.27549,-3.42039 -23.08717,-0.93867c-5.24929,2.70742 -3.96902,14.64624 -3.96902,14.64624c0,0 -6.57044,-15.55294 1.19705,-25.33441c2.84553,-3.58333 15.51261,-5.84307 21.92124,-1.45594c4.68312,3.2059 3.93791,13.08278 3.93791,13.08278z" fill="#901111"/><path d="M229.88586,171.19433c-1.33708,-0.68161 -2.12047,-0.97855 -2.07786,-1.72113c0.04691,-0.81748 1.04277,-1.26754 2.7099,-1.73481c1.72832,-0.48441 4.17669,-0.96272 6.95595,-0.47324c1.18416,0.20856 2.79059,0.99342 4.10319,1.06875c1.42459,0.08175 2.5955,-2.00477 3.89916,-1.65842c1.66157,0.44144 3.11693,1.60666 4.23864,2.21691c1.5355,0.83536 2.97826,-0.07405 3.83232,0.17669c0.58427,0.17154 0.85958,1.46908 0.83318,1.92902c-0.02839,0.49481 -0.53057,1.59032 -1.24796,1.63292c-1.14066,0.06773 -2.91188,-1.01917 -4.84271,-0.0054c-2.16892,1.13878 -4.70617,1.43638 -7.40619,1.28144c-1.01567,-0.05829 -1.96519,-0.8041 -2.91211,-0.91829c-0.86493,-0.1043 -1.67146,-0.66159 -2.4681,-0.66561c-1.04574,-0.00528 -2.05169,0.54653 -2.92239,0.35666c-1.06477,-0.2322 -1.95403,-1.10776 -2.69502,-1.4855z" data-paper-data="{&quot;index&quot;:null}" fill="#ffffff"/><path d="M222.94248,188.21209c-0.56719,-1.11375 -0.07909,-2.12395 0.41778,-3.24585c0.27375,-0.61811 0.22376,-1.51013 0.76913,-1.90757c0.87907,-0.64062 2.21738,-0.98638 3.09177,-0.64082c0.65265,0.25793 0.90479,1.00452 1.28076,1.7428c0.28642,0.56243 -0.06811,1.37286 -0.06682,1.9972c0.00269,1.2932 -0.08474,2.40171 -1.1201,3.15622c-0.70966,0.51717 -1.57547,1.42401 -2.31748,1.28954c-0.86315,-0.15642 -1.58202,-1.46264 -2.05506,-2.39152z" fill="#ffffff"/></g></g></g></svg>