<svg version="1.1" xmlns="http://www.w3.org/2000/svg" xmlns:xlink="http://www.w3.org/1999/xlink" width="199.11324" height="221.55319" viewBox="0,0,199.11324,221.55319"><g transform="translate(-195.52004,-69.22341)"><g data-paper-data="{&quot;isPaintingLayer&quot;:true}" fill-rule="nonzero" stroke-linejoin="miter" stroke-miterlimit="10" stroke-dasharray="" stroke-dashoffset="0" style="mix-blend-mode: normal"><path d="M205.36674,290.77659v-221.55318h189.26654v221.55319z" fill="none" stroke="none" stroke-width="NaN" stroke-linecap="butt"/><g data-paper-data="{&quot;index&quot;:null}" fill="#000000"><g data-paper-data="{&quot;origRot&quot;:0,&quot;index&quot;:null}" stroke="#000000" stroke-width="3" stroke-linecap="round"><path d="M317.99283,250.30272c-1.91283,0.68751 -3.23657,-6.46599 -3.23657,-6.46599c0,0 -3.0419,-13.88002 -4.98888,-22.76394c-1.27845,-5.83356 -3.27593,-14.94775 -3.27593,-14.94775c0,0 -1.01193,-5.83745 0.05053,-6.12724c6.39204,-1.7433 12.23503,-4.6906 15.68302,-4.41555c1.14934,0.09167 3.51988,5.2918 3.51988,5.2918l12.07015,27.57395c0,0 4.10527,9.82294 4.64861,14.39845c0.30136,2.53764 -24.47085,7.45625 -24.47085,7.45625z" data-paper-data="{&quot;origPos&quot;:null}"/><path d="M315.81911,243.25697l23.80206,-7.41379"/><path d="M338.33535,232.5135l-23.73144,7.64049" data-paper-data="{&quot;origPos&quot;:null}"/></g><path d="M314.33567,239.30199l-7.76347,-37.97821l15.0872,-4.74963l1.42583,0.27295l15.3002,34.93527z" stroke="#000000" stroke-width="1" stroke-linecap="round"/><path d="M315.27848,243.34188l-0.7006,-2.22333l24.32188,-7.66411l0.7006,2.22333z" stroke="none" stroke-width="0" stroke-linecap="butt"/></g><g data-paper-data="{&quot;origRot&quot;:0}" fill="#000000" stroke="#000000" stroke-linecap="round"><path d="M310.25588,214.26227c0,0 0.78461,-4.74295 2.38763,-4.45877c4.73029,0.8386 9.62203,-0.01795 13.73684,2.34369c1.7087,0.98068 1.6672,5.26919 1.6672,5.26919l-1.46175,33.07889c0,0 -0.10387,3.4175 -0.2367,5.37906c-0.14201,2.09726 -1.80285,5.00997 -4.0054,4.74005c-8.08711,-0.99098 -13.31792,-0.19843 -18.1883,-2.0338c-1.77435,-0.66866 -3.61104,-1.48851 -4.05462,-3.24631c-0.57947,-2.29615 0.9301,-6.54415 0.9301,-6.54415z" data-paper-data="{&quot;origPos&quot;:null}" stroke-width="3"/><path d="M325.80288,259.18683c0,0 -6.63559,1.64869 -11.94353,0.84147c-4.07243,-0.61934 -12.72135,-2.97171 -12.72135,-2.97171c0,0 -0.97426,-2.78915 -0.79882,-4.38319c0.1848,-1.67923 1.72184,-4.00418 1.72184,-4.00418l24.45616,2.91165z" data-paper-data="{&quot;origPos&quot;:null}" stroke-width="2"/><path d="M310.28701,214.59197c0,0 0.78461,-4.74295 2.38764,-4.45876c4.73028,0.8386 9.62203,-0.01795 13.73685,2.34372c1.7087,0.98068 1.6672,5.26917 1.6672,5.26917l-1.46175,33.07889c0,0 -0.10385,3.4175 -0.23668,5.37907c-0.14201,2.09726 -1.80286,5.00996 -4.0054,4.74005c-8.08711,-0.99098 -13.31792,-0.19842 -18.1883,-2.03379c-1.77435,-0.66866 -3.61103,-1.48853 -4.05461,-3.2463c-0.57947,-2.29615 0.93009,-6.54415 0.93009,-6.54415z" data-paper-data="{&quot;origPos&quot;:null}" stroke-width="3"/></g><g fill="#000000"><g><path d="M277.82338,205.19953c0,0 2.05139,-14.4094 4.33147,-14.95725c6.84021,-1.64357 22.47786,-0.71298 32.92965,-0.71298c1.61573,0 3.011,13.5334 3.011,13.5334l1.88186,30.62821c0,0 0.25711,14.95796 -1.50549,14.95796c-15.69045,0 -34.08068,0.85262 -41.07425,0.01169c-2.33117,-0.2803 -1.4561,-16.03807 -1.4561,-16.03807z" data-paper-data="{&quot;origPos&quot;:null}" stroke="#000000" stroke-width="3.5" stroke-linecap="round"/><path d="M297.73882,213.39833c-1.36505,0 -1.36505,-2.4875 -1.36505,-2.4875c0,-5.15926 0,-11.97684 0,-17.1361c0,0 0,-2.4875 1.36505,-2.4875c1.36505,0 1.36505,2.4875 1.36505,2.4875c0,5.15926 0,10.31851 0,15.47777v1.65833c0,0 0,2.4875 -1.36505,2.4875z" stroke="none" stroke-width="0.5" stroke-linecap="butt"/><path d="M310.42056,219.73166c-1.36505,0 -1.36505,-3.125 -1.36505,-3.125c0,-6.48148 0,-15.04629 0,-21.52777c0,0 0,-3.125 1.36505,-3.125c1.36505,0 1.36505,3.125 1.36505,3.125c0,6.48148 0,12.96296 0,19.44445v2.08333c0,0 0,3.125 -1.36505,3.125z" stroke="none" stroke-width="0.5" stroke-linecap="butt"/></g><g stroke="#000000" stroke-width="0.5" stroke-linecap="butt"><path d="M313.35718,229.70619c0,6.75773 -4.87717,12.23596 -10.89347,12.23596c-6.0163,0 -10.89347,-5.47823 -10.89347,-12.23596c0,-6.75773 4.87717,-12.23596 10.89347,-12.23596c6.0163,0 10.89347,5.47823 10.89347,12.23596z"/><path d="M305.69806,218.41842c0.00045,0.01121 0.00067,0.02264 0.00067,0.03429c0,0.62472 -0.66021,0.62472 -0.66021,0.62472h-0.13204c-0.48238,0 -2.68138,0.0279 -3.01097,-0.10741c-0.27514,-0.11296 -0.2153,-0.54309 -0.41327,-0.75628c-0.1902,-0.20481 -0.4608,-0.33145 -0.71541,-0.45911c-0.40487,-0.20301 -0.95783,-0.19976 -1.25569,-0.52922c-0.27515,-0.30435 -0.30786,-0.7718 -0.28194,-1.17157c0.1217,-1.87748 1.33924,-1.89669 2.91197,-1.72741c0.47436,0.09887 0.96385,0.14686 1.42309,0.2966c0.20203,0.06587 0.3226,0.29409 0.53061,0.34041c0.14785,0.03293 0.28694,-0.0978 0.43606,-0.12514c0.00636,-0.00117 1.84842,-0.25012 1.86669,-0.25258c1.24535,-0.1673 2.57716,-0.21612 3.83396,-0.12987c0.80084,0.05496 2.61034,0.24268 3.07221,1.002c0.65776,1.08137 -1.25401,1.81308 -1.73252,1.99818c-1.41607,0.54778 -2.62478,0.20728 -4.06699,0.36625c-0.49127,0.05415 -1.28083,0.38014 -1.80623,0.59613z"/></g></g><g data-paper-data="{&quot;index&quot;:null,&quot;origRot&quot;:0}" fill="#000000" stroke="#000000" stroke-linecap="round"><path d="M301.51483,239.42333c0,0 5.07217,-0.10728 5.0598,1.43592c-0.03647,4.55375 1.71881,8.95833 -0.01069,13.20798c-0.71816,1.76466 -5.18631,2.48376 -5.18631,2.48376l-34.6664,4.48338c0,0 -3.57318,0.5071 -5.63702,0.72999c-2.20663,0.2383 -5.52982,-0.79388 -5.63825,-2.89293c-0.39811,-7.70706 -2.1468,-12.43878 -1.09822,-17.29911c0.38203,-1.7707 0.91027,-3.62616 2.66034,-4.34989c2.28603,-0.94539 6.97145,-0.29005 6.97145,-0.29005z" data-paper-data="{&quot;origPos&quot;:null}" stroke-width="3"/><path d="M257.53201,261.84081c0,0 -2.88739,-5.88878 -2.9856,-10.97497c-0.07533,-3.9023 0.84336,-12.37316 0.84336,-12.37316c0,0 2.72909,-1.4002 4.41819,-1.51846c1.77935,-0.12459 4.46931,0.89615 4.46931,0.89615l1.29253,23.2918z" data-paper-data="{&quot;origPos&quot;:null}" stroke-width="2.5"/><path d="M263.63204,237.01958c0,0 13.39913,0.88896 21.97526,1.45795c6.07642,0.40315 15.57004,1.03301 15.57004,1.03301c0,0 5.07217,-0.10729 5.0598,1.43591c-0.03647,4.55374 1.71881,8.95834 -0.01069,13.20799c-0.71816,1.76467 -5.18631,2.48376 -5.18631,2.48376l-34.6664,4.48338c0,0 -3.57318,0.5071 -5.63702,0.72999c-2.20662,0.2383 -5.52982,-0.79388 -5.63825,-2.89293c-0.39812,-7.70707 -2.14679,-12.43878 -1.09821,-17.29911c0.38202,-1.7707 0.91027,-3.62616 2.66034,-4.34989c2.28603,-0.94539 6.97145,-0.29005 6.97145,-0.29005z" data-paper-data="{&quot;origPos&quot;:null}" stroke-width="1.5"/></g><path d="M313.00911,197.78585c-12.04602,-0.99516 -23.72437,-1.99619 -28.40178,-3.43868c-4.27485,-1.31834 -5.33343,-4.18914 -5.33343,-4.18914c0,0 -1.52414,-2.58611 -1.46814,-4.1201c0.16803,-4.60195 1.26305,-17.70666 3.25245,-28.90832c0.06639,-0.37385 0.11725,-0.58156 0.20579,-0.95079c0.26562,-1.1077 1.48587,-5.38972 1.48587,-5.38972c0,0 3.32971,-1.35701 5.09885,-1.66796c5.30739,-0.93284 18.32548,1.77496 32.14134,3.47958c1.25223,0.15451 3.24889,2.02898 3.24889,2.02898c0,0 1.24339,3.26697 1.01125,5.23688c-1.50073,12.73571 -3.20808,26.82136 -3.80963,30.02201c-0.2005,1.06688 -2.41888,5.06798 -2.41888,5.06798z" fill="#000000" stroke="#000000" stroke-width="2.5" stroke-linecap="round"/><path d="M315.66894,177.48761c0.40316,-3.42128 1.14086,-6.14638 1.64772,-6.08665c0.50685,0.05971 0.59093,2.88165 0.18778,6.30293c-0.40316,3.42128 -1.14087,6.14639 -1.64772,6.08666c-0.50685,-0.05971 -0.59093,-2.88165 -0.18778,-6.30294z" fill="#000000" stroke="#000000" stroke-width="2.5" stroke-linecap="butt"/><path d="M309.1281,177.41918c0.41062,-3.48466 1.05168,-6.27321 1.43181,-6.22841c0.38014,0.0448 0.35544,2.90599 -0.05518,6.39063c-0.41062,3.48466 -1.05165,6.27318 -1.4318,6.22841c-0.38014,-0.0448 -0.35545,-2.90597 0.05517,-6.39061z" fill="#000000" stroke="#000000" stroke-width="2.5" stroke-linecap="butt"/><path d="M281.5692,150.221l1.55928,-12.90615l43.48379,5.25359l-1.55928,12.90615z" fill="#000000" stroke="none" stroke-width="0" stroke-linecap="butt"/><path d="M304.90004,166.48217c0.16561,-1.37075 1.41108,-2.3477 2.78182,-2.18209c0.28145,0.03399 0.5463,0.11354 0.78806,0.23033c1.45118,-0.10106 8.57802,5.77179 6.16512,8.16455c-1.80048,1.78546 -6.75682,-1.96981 -8.44248,-3.437c-0.46427,-0.4041 -1.90856,-2.19791 -1.29252,-2.77578z" data-paper-data="{&quot;index&quot;:null}" fill="#000000" stroke="none" stroke-width="0.5" stroke-linecap="butt"/><path d="M320.34641,171.37089c-1.48021,1.0847 -5.71773,3.72919 -6.61042,1.61836c-1.19632,-2.82882 4.99405,-7.09271 5.98826,-6.69621c0.19307,-0.06426 0.39463,-0.08744 0.59847,-0.06281c0.99272,0.11994 1.66322,1.32838 1.49761,2.69911c0.31222,0.69002 -1.06623,2.14279 -1.47391,2.44155z" data-paper-data="{&quot;index&quot;:null}" fill="#000000" stroke="none" stroke-width="0.5" stroke-linecap="butt"/><g data-paper-data="{&quot;index&quot;:null}" fill="#000000"><path d="M216.09129,249.25031c-0.20496,-2.25285 -4.06064,-5.72516 -2.00582,-5.85124c1.36892,-0.08399 20.78486,3.36685 22.01641,4.72571c0.61705,0.68084 1.07925,1.81579 1.14769,2.5678c0.10056,1.10531 -0.38962,2.05404 -1.24025,2.75375c-0.88315,0.72645 -19.9671,2.27726 -21.01376,2.34149c-2.05481,0.12608 1.30073,-4.28466 1.09574,-6.53752z" stroke="#000000" stroke-width="1.5" stroke-linecap="butt"/><g stroke-linecap="butt"><path d="M209.32278,249.69123c-0.37137,-4.08164 1.47327,-7.5221 4.12011,-7.68449c2.64685,-0.16239 5.09358,3.01478 5.46495,7.09643c0.37133,4.08164 -1.47331,7.5221 -4.12014,7.68449c-2.64683,0.16242 -5.09357,-3.01477 -5.46493,-7.09641z" stroke="#000000" stroke-width="1.5"/><path d="M214.98044,245.6816l-1.76101,-3.23445c0,0 1.74495,0.55298 2.34388,1.04651c1.24099,1.05291 1.73129,2.56411 1.73129,2.56411z" stroke="none" stroke-width="0"/><path d="M216.02469,248.88888l-0.41294,-1.46811c0,0 0.91946,-0.16024 1.24795,-0.15881c0.38463,0.00168 1.08407,0.21294 1.08407,0.21294l0.20968,1.78122z" stroke="none" stroke-width="0"/></g><g><path d="M215.22539,249.43717c0.51229,5.63067 -2.45858,8.95223 -7.98857,9.29152c-5.52998,0.33927 -10.45446,-4.23881 -10.96678,-9.86954c-0.51232,-5.63069 3.04106,-9.85846 8.57105,-10.19775c5.52996,-0.33926 9.87198,5.14501 10.3843,10.77574z" stroke="#000000" stroke-width="1.5" stroke-linecap="butt"/><path d="M203.23015,239.15815c2.74366,-0.16836 5.71112,1.01724 7.94696,2.58665c1.59293,1.11813 2.81739,2.90241 2.99847,4.89274c0.37219,4.0911 -1.28465,5.65574 -6.12296,5.95259c-2.4162,0.14823 -5.51488,-1.11011 -7.65869,-2.74116c-2.14902,-1.63502 -3.58148,-2.92615 -3.58148,-2.92615c0,0 1.57938,-7.46781 6.41769,-7.76466z" stroke="none" stroke-width="0" stroke-linecap="butt"/><path d="M204.90342,238.9684c0,0 4.04701,2.54665 4.86756,9.04547c0.82728,6.55207 -2.27429,9.7456 -2.27429,9.7456" stroke="#000000" stroke-width="0.8" stroke-linecap="round"/><path d="M209.40381,239.87317c0,0 2.46598,3.68779 3.4531,7.77697c1.42258,5.89302 -0.27515,8.33531 -0.27515,8.33531" stroke="#000000" stroke-width="0.75" stroke-linecap="round"/><path d="M200.70109,240.12592c0,0 3.49488,2.75874 4.67566,9.2287c1.13572,6.22294 -0.60165,8.23441 -0.60165,8.23441" stroke="#000000" stroke-width="0.8" stroke-linecap="round"/><path d="M203.50687,257.61063c0,0 -2.51441,-3.73755 -3.61762,-6.84506c-1.45312,-4.09309 -1.8008,-8.39875 -1.8008,-8.39875" stroke="#000000" stroke-width="0.8" stroke-linecap="round"/><path d="M214.67153,251.63985c0,0 -2.86257,2.46501 -8.668,3.06222c-5.41748,0.5573 -8.08244,-2.03456 -8.08244,-2.03456" stroke="#000000" stroke-width="0.8" stroke-linecap="round"/><path d="M197.45823,250.6153c0,0 2.77879,0.01709 5.76598,-0.43942c2.62696,-0.40147 5.39341,-1.26975 6.87253,-1.44666c1.75679,-0.21011 4.73434,-0.19192 4.73434,-0.19192" stroke="#000000" stroke-width="0.8" stroke-linecap="round"/><path d="M196.72995,248.07334c0,0 4.02104,-3.17879 7.80682,-3.52048c5.9419,-0.5363 9.95043,1.41887 9.95043,1.41887" stroke="#000000" stroke-width="0.8" stroke-linecap="round"/><path d="M196.87422,244.80305c0,0 2.82486,-2.45953 6.52529,-3.32437c5.32876,-1.24541 8.35879,-0.00677 8.35879,-0.00677" stroke="#000000" stroke-width="0.8" stroke-linecap="round"/><path d="M203.82235,240.44052c0.03654,0.40148 -0.30269,0.74962 -0.75765,0.77751c-0.45497,0.02793 -0.85341,-0.27493 -0.88993,-0.67641c-0.03652,-0.4015 0.30268,-0.74962 0.75764,-0.77751c0.45497,-0.02795 0.85343,0.27491 0.88995,0.67639z" stroke="none" stroke-width="0" stroke-linecap="butt"/><path d="M200.44693,241.8847c-0.22747,0.01395 -0.42897,-0.16251 -0.45004,-0.39413c-0.02107,-0.23162 0.14626,-0.43071 0.37374,-0.44466c0.22748,-0.01394 0.42897,0.16251 0.45004,0.39413c0.02108,0.23162 -0.14626,0.43071 -0.37374,0.44466z" stroke="none" stroke-width="0" stroke-linecap="butt"/></g></g><g data-paper-data="{&quot;index&quot;:null}" fill="#000000"><path d="M288.58225,189.51311c3.21573,0.01751 -3.94071,12.31006 -4.33951,14.57879c-0.43339,2.46578 -15.03662,-12.52429 -15.03662,-12.52429l-2.43958,-2.57589l16.44981,16.74632c0,0 5.97284,5.49712 4.1878,6.89626c0,0 -4.78667,10.05782 -21.57109,18.69391c-4.20153,-2.96306 -10.84417,-12.93926 -10.84417,-12.93926c0,0 -15.77552,-21.46819 -14.08714,-25.87181c0.39099,-1.01972 7.76148,-11.83109 11.83527,-12.66c13.51873,-2.75066 35.84524,9.65597 35.84524,9.65597z" stroke="#000000" stroke-width="2.5" stroke-linecap="round"/><path d="M269.90189,193.26352c-0.33261,-0.38231 -0.66046,-0.76986 -0.99039,-1.1572c-0.07281,-0.08549 -0.80216,-1.13305 -1.31117,-1.45572c-5.32709,4.38546 -9.91213,9.54947 -15.49479,13.67307c-0.46764,0.39716 -1.37126,1.33368 -2.35657,2.11399c-0.22402,0.30729 -0.36354,0.57701 -0.33271,0.74986c0.26204,1.46988 1.52767,2.88583 2.07162,4.29165c0.20453,-0.32426 0.80935,-1.25372 1.12637,-1.58502c0.94148,-0.98384 1.86904,-1.95905 2.77968,-2.97052c3.19214,-3.54561 7.04875,-7.02565 10.61886,-10.15253c1.14599,-1.25363 2.47349,-2.48257 3.88909,-3.50759zM270.91211,194.38014c-1.40544,0.99814 -2.7222,2.22898 -3.85119,3.46401c-4.0541,3.51785 -8.04253,7.47477 -11.72198,11.42374c-1.51606,1.62711 -3.19562,4.66333 -5.14779,2.96673c-0.59685,-1.48913 -1.93269,-3.09927 -2.22638,-4.7117c-0.44057,0.15804 -0.85336,0.19429 -1.20369,0.04068c-0.49315,-0.21623 -1.28229,-2.23747 -1.58333,-2.74909c-1.79607,-3.05225 -4.52023,-6.38412 -3.51412,-10.13657c-0.07826,-6.2199 5.9585,-13.06851 11.05116,-15.97107c4.36003,-0.66983 7.61478,0.39858 11.66126,1.87472c2.92167,1.06582 5.86839,1.53201 8.70086,2.95409c4.20687,1.43494 8.35761,2.99509 12.56114,4.43513c1.92924,0.66093 4.01449,0.63748 4.37106,2.8914c-1.36507,3.33166 -2.74657,6.69908 -4.19411,10.01248c-0.45124,1.03285 -1.43678,3.09934 -2.5652,3.55425c-1.56821,0.63218 -2.6883,-0.87206 -3.59319,-1.90879c-2.29588,-1.99467 -4.70528,-4.30136 -6.9043,-6.7489c-0.32998,0.04171 -0.6005,-0.19427 -0.6005,-0.19427c-0.43472,-0.38004 -0.84462,-0.78161 -1.23969,-1.19683zM249.83672,204.2315c2.6441,-3.09015 6.04899,-5.22766 8.74595,-8.19721c1.55423,-1.78188 4.06027,-5.17783 6.71943,-6.46501c0.10129,-0.11812 0.20822,-0.18102 0.20822,-0.18102l0.66456,-0.38718c0.57388,-0.48875 1.31069,-0.78584 2.04031,-0.97534c4.76813,3.62737 7.91979,9.42169 12.5022,13.43386c0.45376,0.52095 1.05284,1.30444 1.63614,1.66647c0.35877,0.22266 1.66535,-1.93902 1.80967,-2.20814c1.75717,-3.27671 2.73839,-6.94635 4.36398,-10.288c0.08663,-0.37211 -2.79258,-1.03996 -3.37802,-1.24104c-4.2331,-1.45383 -8.41967,-3.01071 -12.65308,-4.47025c-2.8189,-1.41154 -5.72957,-1.87589 -8.63959,-2.92992c-3.70385,-1.34156 -6.66311,-2.39388 -10.64491,-1.86652c-4.59367,2.83044 -10.13111,8.9916 -10.05884,14.73611c-0.92637,3.67856 2.44181,8.34306 4.2219,11.33649c0.01888,0.03173 1.34065,-1.03511 2.42107,-1.91606c0.014,-0.01592 0.02769,-0.03168 0.041,-0.04724z" stroke="none" stroke-width="0.5" stroke-linecap="butt"/><path d="M266.05576,196.74555c-3.57009,3.12689 -7.49609,6.67493 -10.68823,10.22056c-0.91063,1.01148 -1.84114,1.9847 -2.78263,2.96854c-0.31702,0.33127 -0.92176,1.26079 -1.1263,1.58505c-0.54397,-1.40583 -1.82221,-2.83504 -2.08427,-4.30491c-0.0308,-0.17286 0.10762,-0.44432 0.33165,-0.75161c0.98531,-0.78032 1.88707,-1.72026 2.3547,-2.11742c5.58266,-4.12363 10.24438,-9.34827 15.57147,-13.73373c0.509,0.32267 1.24372,1.37538 1.31654,1.46086c0.32993,0.38734 0.66142,0.77944 0.99401,1.16175c-1.41559,1.02502 -2.74096,2.25725 -3.88695,3.51088z" data-paper-data="{&quot;noHover&quot;:false,&quot;origItem&quot;:[&quot;Path&quot;,{&quot;applyMatrix&quot;:true,&quot;segments&quot;:[[[926.17844,407.1979],[3.2606,1.25965],[-0.27949,0.97418]],[[925.31465,410.11917],[0.29084,-0.97519],[-0.06418,0.21521]],[[924.29914,413.90358],[-0.01258,-1.20526],[13.15638,4.16543]],[[964.1057,425.02121],[-12.99513,-4.87922],[1.17537,0.35239]],[[970.21765,426.67451],[-2.3817,-0.804],[0.75941,0.04146]],[[971.83798,426.41666],[-0.25651,0.23985],[2.18115,-2.03947]],[[976.78433,418.26967],[-1.76682,2.44279],[-0.76669,0.00973]],[[972.89889,418.10481],[0.90089,0.17138],[-2.67549,-0.50896]],[[964.88923,416.67374],[2.68829,0.42712],[-9.42353,-1.49721]],[[936.29671,409.90591],[9.13228,2.58714],[-3.35077,-0.55846]]],&quot;closed&quot;:true}]}" stroke="none" stroke-width="0.5" stroke-linecap="butt"/><path d="M251.217,203.12309c-0.17313,0.14694 -3.85342,3.1509 -3.88463,3.09839c-1.78009,-2.99345 -5.15592,-7.6868 -4.22955,-11.36532c-0.07227,-5.74451 5.48685,-11.94477 10.08053,-14.7752c3.98181,-0.52736 6.96908,0.51621 10.67294,1.85778c2.91001,1.05404 5.85196,1.52917 8.67085,2.94071c4.2334,1.45954 8.43685,3.04127 12.66994,4.49509c0.58542,0.20106 3.4657,0.87309 3.37906,1.24519c-1.62558,3.34164 -2.60733,7.03382 -4.3645,10.31054c-0.14433,0.26912 -1.45294,2.43701 -1.81168,2.21435c-0.58333,-0.36204 -1.27619,-1.18016 -1.72992,-1.70112c-4.58241,-4.01218 -7.71101,-9.74672 -12.47914,-13.37409c-0.7296,0.18951 -1.45794,0.49031 -2.03184,0.97908l-0.66084,0.38828c0,0 -0.62233,0.28322 -0.24207,0.92966c0.03807,0.06473 0.05336,0.21586 0.09584,0.26141c-4.78217,4.13488 -9.01742,8.70883 -14.13501,12.49524z" data-paper-data="{&quot;noHover&quot;:false,&quot;origItem&quot;:[&quot;Path&quot;,{&quot;applyMatrix&quot;:true,&quot;segments&quot;:[[[926.61254,417.73069],[12.14285,3.5238],[-0.03018,0.12086]],[[926.46822,418.11346],[0.06716,-0.13431],[-0.67082,1.34164]],[924.45576,418.78428],[[923.08279,418.0906],[0,0],[-1.44471,-0.43097]],[[919.22563,415.72869],[1.11205,1.01797],[0.89694,-11.9485]],[[928.15956,380.1298],[-1.74473,12.05571],[0.38029,-1.32836]],[[929.175,375.57071],[0.02742,1.37277],[-0.01686,-0.84429]],[[923.5003,374.93752],[0.60865,-0.05075],[-7.41054,0.61792]],[[901.48814,378.8123],[7.37628,-0.90935],[-0.71866,0.25961]],[[903.08234,385.83106],[-0.2998,-1.20115],[2.16779,8.68513]],[[909.35292,411.92731],[-2.15853,-8.69186],[0.69956,6.26621]],[[913.83986,429.61277],[-1.39861,-6.02998],[1.78014,7.67491]],[[922.29365,449.50563],[-5.21858,-6.1072],[9.74892,4.62723]],[[957.96755,450.34516],[-9.56021,6.37347],[7.18055,-2.44927]],[[972.39433,430.92276],[-3.08539,6.24485],[0.05411,-0.10951]],[[963.14745,427.86406],[0.43501,0.13058],[-11.92317,-4.46591]]],&quot;closed&quot;:true}]}" stroke="none" stroke-width="0.5" stroke-linecap="butt"/></g><path d="M306.21361,187.18403c0,1.44974 -0.93329,2.625 -2.08456,2.625c-1.15127,0 -2.08456,-1.17525 -2.08456,-2.625c0,-1.44974 0.93329,-2.625 2.08456,-2.625c1.15127,0 2.08456,1.17525 2.08456,2.625z" fill="#000000" stroke="#000000" stroke-width="1" stroke-linecap="butt"/></g></g></svg>