<svg version="1.1" xmlns="http://www.w3.org/2000/svg" xmlns:xlink="http://www.w3.org/1999/xlink" width="306.30631" height="274.77477" viewBox="0,0,306.30631,274.77477"><g transform="translate(-86.84686,-42.61262)"><g data-paper-data="{&quot;isPaintingLayer&quot;:true}" fill-rule="nonzero" stroke-linecap="butt" stroke-linejoin="miter" stroke-miterlimit="10" stroke-dasharray="" stroke-dashoffset="0" style="mix-blend-mode: normal"><path d="M86.84686,317.38739v-274.77477h306.30631v274.77477z" data-paper-data="{&quot;index&quot;:null}" fill="none" stroke="none" stroke-width="0"/><text transform="translate(271.55609,110.72264) rotate(-180) scale(0.1602,-0.1602)" font-size="40" xml:space="preserve" data-paper-data="{&quot;index&quot;:null}" fill="#000000" fill-rule="nonzero" stroke="none" stroke-width="1" stroke-linecap="butt" stroke-linejoin="miter" stroke-miterlimit="10" stroke-dasharray="" stroke-dashoffset="0" font-family="Sans Serif" font-weight="normal" text-anchor="start" style="mix-blend-mode: normal"><tspan x="0" dy="0">AwezomeXD</tspan><tspan x="0" dy="46.150000000000006px"> </tspan><tspan x="0" dy="46.150000000000006px">MeIzAwezomeDede</tspan></text><g data-paper-data="{&quot;index&quot;:null}"><g><g><g><path d="M203.71772,124.11419c0,0 10.01359,-13.83914 36.64414,-14.23674c12.56776,-0.18764 36.2784,-1.52748 36.2784,-1.52748c0,0 5.05326,3.39882 7.0304,3.43989c2.46867,0.05128 5.17873,-3.22028 5.17873,-3.22028c0,0 0.28781,4.1547 -0.16571,7.4839c-1.70826,12.53997 -11.59762,11.75594 -11.59762,11.75594c0,0 3.41781,6.02172 3.21712,10.31695c-0.21098,4.51507 -4.06341,6.64485 -4.06341,6.64485c0,0 2.18223,3.70138 2.03643,7.29431c-0.26051,6.41961 -3.21529,14.8451 -3.21529,14.8451c0,0 -1.53779,23.14381 -4.93101,23.36273c-2.94429,0.18996 -10.22378,-4.80889 -10.22378,-4.80889c0,0 -0.4782,10.19882 -2.31031,10.25033c-2.2853,0.06424 -4.60363,-4.06435 -7.15949,-4.69275c-2.35245,-0.57838 -4.23693,-7.14783 -4.23693,-7.14783c0,0 -2.54072,6.61516 -5.44265,7.22706c-2.81607,0.5938 -4.87437,5.59319 -6.04653,5.6196c-4.27288,0.09628 -8.01779,-13.23403 -8.01779,-13.23403c0,0 -12.81647,7.41703 -15.40681,4.67387c-3.05724,-3.2376 -2.7381,-19.15343 -2.7381,-19.15343c0,0 -5.11025,-5.05724 -5.30032,-7.91166c-0.42686,-6.41051 3.16368,-11.15828 3.16368,-11.15828c0,0 -3.23094,0.06584 -4.90666,1.09185c-1.78115,1.09056 -5.48325,5.26967 -5.48325,5.26967c0,0 -0.76428,-5.68698 -0.09041,-8.32714c0.70866,-2.77644 4.24325,-7.94325 4.24325,-7.94325c0,0 -4.3984,-3.967 -5.8306,-9.32797c-0.76759,-2.87321 0.62193,-8.78791 0.62193,-8.78791c0,0 3.8859,4.27019 5.59689,4.98463c1.32725,0.55421 3.15572,-2.78301 3.15572,-2.78301z" fill="#6d0f0a" stroke="#000000" stroke-width="2"/><path d="M201.71893,117.19243c0,0 -2.74702,-7.9916 -0.02969,-17.87364c1.47111,-5.34994 6.55796,-11.8178 9.69555,-16.31393c4.44645,-6.37171 13.16815,-8.90712 20.38548,-9.01488c9.4877,-0.14165 15.48388,9.66757 15.48388,9.66757c0,0 9.99922,-3.56379 17.17338,-1.50767c6.93082,1.98638 11.41063,10.18403 12.66491,12.2244c1.91083,3.10841 2.9527,17.03743 2.9527,17.03743c0,0 -28.36792,20.4025 -43.40547,20.62701c-16.06466,0.23985 -25.79831,-17.313 -31.68476,-14.76549c-2.07123,0.89638 -3.23599,-0.08081 -3.23599,-0.08081z" fill="#6d0f0a" stroke="#000000" stroke-width="2"/><path d="M208.96938,87.61713c0,0 2.31262,-3.00681 3.50729,-4.30616c1.13976,-1.23964 3.50376,-3.31925 3.50376,-3.31925c0,0 7.8924,6.59981 12.18134,8.26119c4.49446,1.74099 12.26556,0.19171 12.26556,0.19171c0,0 -0.0971,2.3185 0.0961,3.27566c0.20427,1.012 0.62329,2.64813 0.62329,2.64813c0,0 1.33899,-1.77111 1.71517,-2.53619c0.40631,-0.82634 1.10944,-2.57593 1.10944,-2.57593c0,0 1.48169,3.86098 2.18198,5.31216c0.57347,1.18838 1.71583,2.76505 1.71583,2.76505c0,0 0.06868,-2.13266 0.02192,-3.24408c-0.0495,-1.17671 -0.31118,-3.63151 -0.31118,-3.63151c0,0 9.23866,4.92365 15.04758,6.89599c0.11662,0.0396 4.72746,0.20888 5.06706,0.26911c7.30175,1.29483 5.34335,-8.1565 5.34335,-8.1565c0,0 2.61896,3.59976 3.56155,6.7046c0.956,3.14906 2.13476,12.05899 2.13476,12.05899c0,0 -5.15279,-3.40317 -10.14947,-4.15112c-0.88664,-0.13272 -10.55298,-1.03798 -10.55298,-1.03798c0,0 -1.32238,-2.21965 -2.04917,-3.15559c-0.71218,-0.91713 -2.26862,-2.40477 -2.26862,-2.40477c0,0 -1.28638,1.8074 -1.93018,2.93024c-0.77346,1.34895 -2.39335,4.61028 -2.39335,4.61028c0,0 -0.79979,-1.90974 -1.40379,-2.94041c-0.67194,-1.1466 -2.44579,-3.62857 -2.44579,-3.62857c0,0 -1.33728,0.39923 -2.08025,0.85065c-1.03145,0.62669 -3.53205,2.55929 -3.53205,2.55929c0,0 -0.64066,-2.90518 -1.06921,-4.20365c-0.37077,-1.12341 -1.35392,-3.13833 -1.35392,-3.13833c0,0 -1.68845,1.06578 -2.58607,1.78357c-1.12013,0.89572 -3.61621,3.17613 -3.61621,3.17613c0,0 -6.86611,-8.26453 -10.70406,-10.30308c-3.59006,-1.90689 -11.62964,-1.55961 -11.62964,-1.55961z" fill="#c42d06" stroke="none" stroke-width="0"/></g><path d="M222.39463,134.39025c0,0 -20.53977,-10.31177 -20.80525,-11.75133c-0.36036,-1.9541 1.80125,-3.04035 1.6022,-4.05997c-0.31714,-1.62442 -0.75005,-3.22629 -0.75005,-3.22629c0,0 64.38469,-4.57561 74.44394,-4.8741c2.56268,-0.07605 5.02978,2.52075 5.02978,2.52075l-12.89399,18.36119z" fill="#6d0f0a" stroke="none" stroke-width="NaN"/></g><path d="M248.40067,85.01216c0,0 -4.14075,-2.02472 -2.07988,-7.46984c0.10859,-0.28691 0.85251,-1.41707 1.09544,-1.66063c1.86152,-1.86634 6.82925,-1.78077 6.82925,-1.78077c0,0 -3.3937,4.30732 -4.50798,5.7814c-0.99319,1.31388 -1.33684,5.12984 -1.33684,5.12984z" fill="#6d0f0a" stroke="#000000" stroke-width="1.5"/><path d="M243.87267,73.73472c0,0 1.27108,1.13861 1.57396,2.90367c0.33532,0.89104 0.37244,3.77604 0.37244,3.77604l-1.78971,-1.23693z" fill="#000000" stroke="none" stroke-width="0"/></g><path d="M247.66796,83.47456l3.76451,0.28531c0,0 -3.21059,4.12855 -3.74001,4.25267c-0.74118,0.17376 -2.88374,-5.34401 -2.88374,-5.34401z" fill="#6d0f0a" stroke="none" stroke-width="0"/></g><text transform="translate(292.68339,231.0029) rotate(-180) scale(0.27921,-0.27921)" font-size="40" xml:space="preserve" data-paper-data="{&quot;index&quot;:null}" fill="#000000" fill-rule="nonzero" stroke="none" stroke-width="1" stroke-linecap="butt" stroke-linejoin="miter" stroke-miterlimit="10" stroke-dasharray="" stroke-dashoffset="0" font-family="Sans Serif" font-weight="normal" text-anchor="start" style="mix-blend-mode: normal"><tspan x="0" dy="0">AwezomeXD</tspan><tspan x="0" dy="46.150000000000006px"> </tspan><tspan x="0" dy="46.150000000000006px">MeIzAwezomeDede</tspan></text><text transform="translate(294.68339,229.0029) rotate(-180) scale(0.27921,-0.27921)" font-size="40" xml:space="preserve" data-paper-data="{&quot;index&quot;:null}" fill="#000000" fill-rule="nonzero" stroke="none" stroke-width="1" stroke-linecap="butt" stroke-linejoin="miter" stroke-miterlimit="10" stroke-dasharray="" stroke-dashoffset="0" font-family="Sans Serif" font-weight="normal" text-anchor="start" style="mix-blend-mode: normal"><tspan x="0" dy="0">AwezomeXD</tspan><tspan x="0" dy="46.150000000000006px"> </tspan><tspan x="0" dy="46.150000000000006px">MeIzAwezomeDede</tspan></text><g data-paper-data="{&quot;index&quot;:null}"><g><path d="M304.61434,280.7271c-0.97394,-0.3343 -2.81981,-1.05375 -2.81981,-1.05375l2.00112,-62.99775c0,0 3.12264,-3.42551 4.77674,-5.10754c1.78782,-1.81801 6.83093,-5.9246 6.83093,-5.9246c0,0 5.94054,0.17965 11.08569,1.75457c7.39586,2.26385 29.04162,10.52827 29.04162,10.52827c0,0 -0.29139,23.00613 -1.11993,33.98866c-0.74728,9.90532 -3.63272,29.00908 -3.63272,29.00908c0,0 -14.3168,1.48011 -21.61682,1.59314c-7.15813,0.11083 -21.76596,-0.92143 -21.76596,-0.92143c0,0 -1.89659,-0.56514 -2.78087,-0.86866z" fill="#434253" stroke="#000000" stroke-width="2.5"/><path d="M306.04174,281.58894c0,0 3.19421,-16.34268 5.26935,-30.13714c1.48339,-9.86081 2.04443,-18.33187 2.06476,-19.00203c0.15509,-5.11269 -0.3723,-9.50368 -0.00091,-14.70459c0.49814,-6.97594 1.18056,-11.43244 1.18056,-11.43244l2.10035,-1.22928c0,0 -1.17975,18.14658 -2.93073,35.27697c-0.73182,7.15966 -2.77258,22.22022 -3.75528,31.64788c-0.10799,1.03599 0.50491,2.39047 0.4064,3.33489c-0.55015,5.27458 -0.93311,6.24975 -0.93311,6.24975l-3.40139,-0.00403z" fill="#000000" stroke="none" stroke-width="0"/></g><g stroke="#000000" stroke-width="1.5"><path d="M345.29835,263.35314c0.94113,9.66742 -4.93088,16.17699 -12.88074,16.95092c-7.94986,0.77393 -14.77082,-5.25083 -14.91119,-14.96294c-0.15638,-10.82018 5.8426,-16.14324 12.54261,-16.73861c6.71115,-0.59636 14.44659,6.50489 15.24932,14.75063z" fill="#2c262f"/><path d="M323.67439,268.45714c-0.26544,-2.72671 1.31874,-5.06632 3.56101,-5.2846c2.24227,-0.21828 3.76096,1.25807 4.0264,3.98478c0.26545,2.72671 -1.3891,5.14677 -3.63137,5.36505c-2.24227,0.21828 -3.69059,-1.33852 -3.95603,-4.06523z" data-paper-data="{&quot;index&quot;:null}" fill="#1b171c"/></g><g stroke="#000000" stroke-width="1.5"><path d="M334.90075,214.22598c6.72176,-0.46163 14.18059,7.06601 14.65957,15.33688c0.56156,9.69688 -5.56103,15.97134 -13.53511,16.43313c-7.97408,0.46179 -14.55372,-5.82563 -14.31338,-15.53578c0.26776,-10.81801 6.4647,-15.77245 13.18893,-16.23424z" fill="#2c262f"/><path d="M327.75297,233.81558c-0.15839,-2.73501 1.51626,-5.01074 3.76536,-5.14099c2.2491,-0.13025 3.70876,1.40448 3.86715,4.1395c0.15839,2.73502 -1.58973,5.08838 -3.83883,5.21863c-2.2491,0.13025 -3.6353,-1.48212 -3.79369,-4.21714z" data-paper-data="{&quot;index&quot;:null}" fill="#1b171c"/></g></g><g data-paper-data="{&quot;index&quot;:null}"><g><path d="M178.20552,279.80011c0,0 -1.84588,0.71945 -2.81982,1.05375c-0.88428,0.30352 -2.78086,0.86866 -2.78086,0.86866c0,0 -14.60784,1.03226 -21.76596,0.92143c-7.30001,-0.11302 -21.61681,-1.59314 -21.61681,-1.59314c0,0 -2.88544,-19.10377 -3.63272,-29.00909c-0.82854,-10.98252 -1.11993,-33.98866 -1.11993,-33.98866c0,0 21.64575,-8.26442 29.04162,-10.52827c5.14515,-1.57491 11.08569,-1.75457 11.08569,-1.75457c0,0 5.04312,4.1066 6.83094,5.9246c1.6541,1.68203 4.77674,5.10754 4.77674,5.10754l2.00112,62.99775z" fill="#434253" stroke="#000000" stroke-width="2.5"/><path d="M173.9583,281.71568l-3.40139,0.00403c0,0 -0.38295,-0.97517 -0.93311,-6.24976c-0.0985,-0.94441 0.51439,-2.2989 0.40641,-3.33488c-0.98271,-9.42766 -3.02346,-24.48823 -3.75529,-31.64789c-1.75097,-17.13039 -2.93073,-35.27697 -2.93073,-35.27697l2.10035,1.22928c0,0 0.68243,4.4565 1.18057,11.43244c0.37139,5.20091 -0.156,9.59191 -0.00092,14.70459c0.02033,0.67016 0.58138,9.14123 2.06477,19.00203c2.07514,13.79446 5.26935,30.13713 5.26935,30.13713z" fill="#000000" stroke="none" stroke-width="0"/></g><g stroke="#000000" stroke-width="1.5"><path d="M134.7017,263.47987c0.80273,-8.24574 8.53818,-15.34698 15.24933,-14.75062c6.70001,0.59537 12.69899,5.91843 12.54261,16.73861c-0.14037,9.71211 -6.96134,15.73687 -14.9112,14.96294c-7.94986,-0.77392 -13.82187,-7.2835 -12.88074,-16.95092z" fill="#2c262f"/><path d="M152.76465,263.29933c2.24227,0.21828 3.82645,2.55788 3.56101,5.28459c-0.26545,2.72671 -1.71376,4.28351 -3.95603,4.06523c-2.24227,-0.21829 -3.89681,-2.63834 -3.63137,-5.36505c0.26544,-2.72671 1.78413,-4.20306 4.0264,-3.98478z" data-paper-data="{&quot;index&quot;:null}" fill="#1b171c"/></g><g stroke="#000000" stroke-width="1.5"><path d="M130.43975,229.68961c0.47898,-8.27087 7.9378,-15.79851 14.65956,-15.33689c6.72423,0.46179 12.92117,5.41624 13.18893,16.23424c0.24034,9.71016 -6.33929,15.99758 -14.31338,15.53579c-7.97409,-0.46179 -14.09668,-6.73625 -13.53512,-16.43313z" fill="#2c262f"/><path d="M152.2471,233.94233c-0.15839,2.73501 -1.54458,4.34738 -3.79368,4.21713c-2.2491,-0.13025 -3.99721,-2.48361 -3.83882,-5.21863c0.15839,-2.73501 1.61804,-4.26975 3.86714,-4.1395c2.2491,0.13025 3.92375,2.40598 3.76536,5.141z" data-paper-data="{&quot;index&quot;:null}" fill="#1b171c"/></g></g><g data-paper-data="{&quot;index&quot;:null}" fill="#434253" stroke="#000000"><path d="M302.9364,282.15582c0,0 -39.39406,0.31655 -59.64769,0.31655c-21.72904,0 -66.6118,-0.31655 -66.6118,-0.31655c0,0 -2.38216,-40.33861 -2.16309,-60.75635c0.20152,-18.78125 2.16309,-54.08575 2.16309,-54.08575c0,0 42.82931,-1.2662 64.39595,-1.2662c21.14461,0 59.33114,1.58275 59.33114,1.58275c0,0 4.66352,44.84767 4.63123,67.07726c-0.03994,25.54257 -2.09882,47.44828 -2.09882,47.44828z" stroke-width="2.5"/><path d="M182.6264,273.74783c1.29409,0 2.34316,0.94416 2.34316,2.10884c0,1.16468 -1.04906,2.10884 -2.34316,2.10884c-1.29409,0 -2.34316,-0.94416 -2.34316,-2.10884c0,-1.16468 1.04906,-2.10884 2.34316,-2.10884z" stroke-width="2"/><path d="M296.08665,273.11069c1.29409,0 2.34316,0.94416 2.34316,2.10884c0,1.16468 -1.04907,2.10884 -2.34316,2.10884c-1.29409,0 -2.34316,-0.94416 -2.34316,-2.10884c0,-1.16468 1.04907,-2.10884 2.34316,-2.10884z" stroke-width="2"/><path d="M291.83153,175.44762c-0.48529,-1.12251 0.08425,-2.44878 1.27209,-2.9623c1.18785,-0.51352 2.54417,-0.01985 3.02946,1.10266c0.48528,1.12251 -0.08426,2.44879 -1.2721,2.96231c-1.18785,0.51352 -2.54417,0.01984 -3.02946,-1.10267z" stroke-width="2"/><path d="M180.91759,172.05908c1.18784,-0.51352 2.54418,-0.01985 3.02946,1.10266c0.48528,1.12251 -0.08426,2.44879 -1.2721,2.96231c-1.18784,0.51352 -2.54417,0.01984 -3.02945,-1.10267c-0.48528,-1.12251 0.08425,-2.44878 1.27209,-2.9623z" stroke-width="2"/></g><g data-paper-data="{&quot;index&quot;:null}" stroke="#000000"><path d="M186.71136,208.57511c-2.38275,-6.46282 -2.16877,-24.44922 1.1889,-27.96294c8.89121,-9.30442 26.25684,-9.576 48.61061,-9.576c20.92711,0 41.19208,1.22699 50.66654,9.2042c4.46775,3.7617 4.13041,24.95797 0.62311,30.67638c-5.26643,8.58654 -20.70709,11.7808 -51.50253,11.7808c-30.79544,0 -46.16007,-4.49195 -49.58663,-13.78597z" fill="#434253" stroke-width="2"/><path d="M190.85131,206.97981c-2.19979,-5.72952 -2.00226,-21.67508 1.09762,-24.79011c8.20856,-8.24868 24.24089,-7.85082 44.87837,-7.85082c19.32036,0 38.02944,0.44915 46.77646,7.52122c4.12474,3.33489 3.81329,22.1261 0.57527,27.19567c-4.86209,7.61227 -19.11725,9.59258 -47.54826,9.59258c-28.43103,0 -42.61599,-3.42905 -45.77946,-11.66852z" fill="#2c262f" stroke-width="1.5"/><path d="M216.35601,203.94312c-0.85661,-2.44105 -0.77968,-9.23462 0.42743,-10.56177c3.19647,-3.51434 9.43954,-4.25555 17.47589,-4.25555c7.52346,0 14.80886,1.10206 18.21501,4.11511c1.6062,1.42082 1.48492,9.42678 0.22402,11.58666c-1.89332,3.24319 -7.44436,4.66256 -18.51556,4.66256c-11.07119,0 -16.59491,-1.86836 -17.82677,-5.37876z" fill="#1b171c" stroke-width="1.5"/></g><g data-paper-data="{&quot;index&quot;:null}" stroke="#000000"><path d="M186.71136,264.14932c-2.38275,-6.46282 -2.16877,-24.44922 1.1889,-27.96293c8.89121,-9.30442 26.25684,-9.57601 48.61061,-9.57601c20.92711,0 41.19208,1.22699 50.66654,9.2042c4.46775,3.76171 4.13041,24.95797 0.62311,30.67638c-5.26643,8.58654 -20.70709,11.7808 -51.50253,11.7808c-30.79544,0 -46.16007,-4.49196 -49.58663,-13.78598z" fill="#434253" stroke-width="2"/><path d="M190.85131,262.55402c-2.19979,-5.72952 -2.00226,-21.67508 1.09762,-24.79011c8.20856,-8.24868 24.24089,-7.85083 44.87837,-7.85083c19.32036,0 38.02944,0.44915 46.77646,7.52122c4.12474,3.33489 3.81329,22.12611 0.57527,27.19568c-4.86209,7.61227 -19.11725,9.59258 -47.54826,9.59258c-28.43103,0 -42.61599,-3.42905 -45.77946,-11.66852z" fill="#2c262f" stroke-width="1.5"/><path d="M216.35601,259.51734c-0.85661,-2.44104 -0.77968,-9.23461 0.42743,-10.56176c3.19647,-3.51434 9.43954,-4.25555 17.47589,-4.25555c7.52346,0 14.80886,1.10206 18.21501,4.11511c1.6062,1.42082 1.48492,9.42677 0.22402,11.58665c-1.89332,3.24319 -7.44436,4.66256 -18.51556,4.66256c-11.07119,0 -16.59491,-1.86836 -17.82677,-5.37877z" fill="#1b171c" stroke-width="1.5"/></g><g data-paper-data="{&quot;index&quot;:null}"><path d="M255.68229,159.43961c0,-4.62307 -7.6789,-15.53073 -3.44835,-15.53073c1.1058,0 4.00437,2.33459 6.78121,4.85516c1.31177,1.19071 3.26731,2.34172 4.14189,3.77227c0.80378,1.31474 0.70311,2.94412 0.79968,3.34049c0.1279,0.52495 0.9582,2.14097 0.9582,2.14097c0,0 1.66657,1.97795 4.75703,3.90074c2.07801,1.29287 3.83342,0.66077 5.97399,2.01002c1.36594,0.86098 4.64944,2.7213 3.50219,4.97488c-0.16413,0.32243 -4.63191,0.24975 -4.63191,0.24975c0,0 -1.25418,1.6276 -2.37286,2.04842c-2.91542,1.09671 -4.80128,-1.08587 -5.53343,-1.03821c-2.35456,0.15328 -6.08281,-0.10553 -6.08281,-0.10553c0,0 -0.38807,-0.10557 -1.52854,-0.80571c-4.74075,-2.91039 -3.31628,-7.69547 -3.31628,-9.81253z" fill="#ffd5d5" stroke="#000000" stroke-width="1.5"/><path d="M256.91738,166.1269c0,0 6.59309,1.48578 8.99991,0.65935c0.09502,-0.03263 0.98831,-0.82199 2.22028,-1.24686c1.03345,-0.35642 2.39884,-0.36275 2.82018,-0.36185c1.06661,0.00229 1.45587,1.90079 2.3688,1.90079c3.68048,0 4.53214,-0.51035 4.53214,-0.51035c0,0 0.50134,0.54917 0.67236,1.15381c0.122,0.43135 0.02419,0.94264 -0.30837,1.06756c-1.26796,0.47629 -4.33435,0.20759 -4.33435,0.20759c0,0 -1.57635,1.7083 -2.30614,1.73805c-4.86729,0.19843 -3.95285,-1.18226 -4.81014,-1.18226c-3.30731,0 -5.24678,-0.08543 -6.37721,-0.35945c-0.15889,-0.03852 -1.19083,-0.5453 -1.88836,-1.13084c-1.00786,-0.84606 -1.58911,-1.93553 -1.58911,-1.93553z" fill="#fb95a9" stroke="none" stroke-width="0"/><path d="M270.13279,164.66676c0.65495,-0.08172 2.59529,-0.06303 3.39187,0.94108c1.04646,1.3191 0.88323,3.72747 0.88323,3.72747l-1.891,1.52047c0,0 0.73658,-4.96196 -1.61209,-4.96196c-1.88993,0 -4.26437,0.21059 -4.26437,0.21059c0,0 1.41313,-1.17823 3.49236,-1.43765z" fill="#000000" stroke="none" stroke-width="0"/><path d="M265.8325,158.87902l-0.12635,3.79055l-2.33751,-6.19124z" fill="#000000" stroke="none" stroke-width="0"/></g><g data-paper-data="{&quot;index&quot;:null}"><path d="M229.93006,131.62586c2.41131,-2.95149 10.53162,-0.25987 12.59919,3.86227c0.26008,0.51854 1.70637,-0.66733 5.40284,0.98163c0.86997,0.38809 5.3323,2.85511 7.98427,6.04894c1.26983,1.52929 2.1246,3.99593 1.97118,5.03194c-0.22905,2.80784 -2.67033,5.18657 -4.85989,7.14774c-2.87249,2.57284 1.75248,7.33006 -2.40533,7.33006c-3.03121,0 -16.54137,0.60747 -18.69314,-0.7284c-1.28409,-0.79719 -0.53199,-7.61244 -0.88049,-9.01861c-0.48674,-1.96396 -4.99822,-4.40189 -4.99822,-6.61256c0,-2.58633 2.29137,-12.099 3.87959,-14.04301z" fill="#ee1536" stroke="#000000" stroke-width="2"/><path d="M246.04205,151.81497c0,-3.14019 3.56399,-6.94934 7.26523,-7.10728c3.22449,-0.13759 3.97211,2.15654 3.0535,5.15937c-1.10558,3.61402 -4.40634,5.42259 -7.63376,5.42259c-0.06272,0 2.08362,-1.58996 2.84464,-0.28992c1.01358,1.73146 0.66979,6.51156 0.03616,6.86773c-2.98614,1.67855 -13.402,-0.74155 -16.31172,-0.67209c-0.60085,0.01435 -2.90823,0.59035 -3.45604,-1.26733c-0.44915,-1.5231 0.38106,-5.65028 0.34354,-5.65555c-0.60286,-0.08461 -1.36799,-4.06688 -1.36799,-4.06688c0,0 -2.86476,-2.27685 -2.9505,-2.85725c-0.15338,-1.03828 2.10836,-2.8435 2.10836,-2.8435c0,0 1.25189,1.00644 1.97555,1.57762c0.66583,0.52553 1.57561,2.98741 1.57561,2.98741c0,0 4.12841,-5.5717 8.29185,-4.21031c5.58397,1.82588 4.22558,7.21129 4.22558,6.95539z" fill="#9a1652" stroke="none" stroke-width="0"/><path d="M232.5524,160.80495c0.86132,-1.55025 8.52088,-5.58592 9.70316,-7.17085c2.60911,-3.4977 4.57621,-6.08348 4.57621,-6.08348c0,0 0.91108,5.32297 -0.66029,9.58239c-1.16307,3.15265 6.61433,5.47453 5.8723,5.47453c-1.74455,0 -20.27813,-0.38656 -19.49138,-1.80259z" fill="#000000" stroke="none" stroke-width="0"/></g><g data-paper-data="{&quot;index&quot;:null}"><path d="M221.71424,142.95289c0.89069,-4.00178 0.58801,-10.58196 5.78736,-10.26608c3.61328,0.21953 6.13218,5.53997 5.92273,9.63432c-0.22563,4.36977 -3.22059,5.46494 -5.49448,10.17868c-0.43493,0.56697 -0.26069,2.77319 -0.27481,5.7492c-0.00598,1.25981 -1.32978,3.183 -1.21876,5.69599c0.09503,2.15137 1.64834,3.36172 2.75889,4.56955c0.7432,0.80829 0.23517,1.75371 0.01203,1.89649c-0.39714,0.2541 -3.723,-0.53117 -4.2632,-0.42698c-0.41777,0.08057 -1.41467,-0.40466 -3.6676,-0.27099c-0.86522,0.05133 -1.74026,0.76311 -2.77062,0.82042c-0.75263,0.04187 -1.37176,-0.15857 -2.05041,-0.31313c-0.23329,-0.05314 -1.08031,-0.5319 -1.3218,-0.52625c-0.36531,0.00856 -0.86703,0.48594 -1.2941,0.63526c-0.81551,0.28513 -1.6879,0.69038 -2.40433,0.69435c-3.35115,0.0186 -3.43218,-1.88761 -3.43218,-1.88761c0,0 -3.19834,0.06304 -4.23611,-0.42236c-0.78891,-0.36901 -1.63814,-1.00352 -1.45122,-2.2378c0.26153,-1.72688 1.15935,-2.33605 3.24072,-3.20355c3.13593,-1.30704 6.37212,-0.58009 9.9473,-3.92267c3.36598,-3.14698 5.8436,-14.74796 6.21059,-16.39682z" fill="#ffd5d5" stroke="#000000" stroke-width="1.5"/><path d="M207.7904,168.30773c0,0 -3.22774,0.00278 -3.90159,-0.28946c-0.75236,-0.32628 -0.76402,-1.57737 -0.76402,-1.57737c0,0 2.53799,-0.11037 3.55148,-0.23542c0.8325,-0.10272 2.45499,-0.55138 2.45499,-0.55138l-0.55088,2.84128c0,0 1.72873,0.70646 3.34003,0.82889c0.86868,0.066 0.85851,-1.87392 3.64063,-1.87392c1.03078,0 3.33941,1.26431 4.22936,0.77044c2.21602,-1.22976 5.42799,-5.56313 5.42799,-5.56313l1.95167,-3.36123c0,0 -1.22713,4.47698 -1.22713,4.85975c0,0.48247 3.86198,5.6885 3.31633,5.63879c-0.77073,-0.07022 -6.85345,-0.94261 -7.75492,-0.9628c-0.89298,-0.02 -2.35096,0.94386 -3.25413,0.91287c-0.48925,-0.01678 -0.9746,-0.12523 -1.45022,-0.228c-0.45719,-0.09879 -0.99564,-0.55333 -1.42965,-0.55513c-0.58542,-0.00243 -0.97987,0.42362 -1.40129,0.52162c-1.28656,0.29919 -1.98333,0.90551 -3.15523,0.83681c-1.53941,-0.09024 -3.02343,-2.0126 -3.02343,-2.0126z" fill="#fb95a9" stroke="none" stroke-width="0"/><path d="M207.52225,168.40278c0,0 1.3169,-3.1369 2.5389,-3.45707c0.64631,-0.16933 1.92664,-0.25208 2.92677,0.09011c1.01894,0.34863 2.00454,1.37664 2.00454,1.37664c0,0 -2.60227,-0.57435 -3.98008,-0.18953c-1.80959,0.5054 -1.8321,3.47467 -1.8321,3.47467z" fill="#000000" stroke="none" stroke-width="0"/><path d="M222.09405,167.97303l-0.99277,1.89527l-1.48915,-0.1805z" fill="#000000" stroke="none" stroke-width="0"/></g><g data-paper-data="{&quot;index&quot;:null}"><g><path d="M267.68992,121.50344c2.91111,0.56667 4.70356,3.94123 4.00355,7.5373c-0.7,3.59607 -3.62738,6.05188 -6.53848,5.48521c-2.91111,-0.56667 -4.70356,-3.94122 -4.00355,-7.53729c0.7,-3.59607 3.62738,-6.05189 6.53848,-5.48522z" fill="#fb95a9" stroke="#000000" stroke-width="2"/><path d="M218.75846,118.02818c0.26708,-10.23124 14.85775,-8.40077 29.33261,-8.02292c14.47486,0.37785 22.06751,-0.0309 21.80044,10.20033c-0.04357,1.66901 -3.50158,11.29741 -3.50158,11.29741c0,0 6.95542,5.49094 5.40184,9.25387c-1.69127,4.05865 -18.36493,2.39643 -27.37927,-0.78257c-23.83023,-8.40399 -25.92111,-11.7149 -25.65404,-21.94612z" fill="#ffd5d5" stroke="#000000" stroke-width="2"/><path d="M222.09203,111.37413c0,0 27.60934,-3.24706 33.80688,-3.08528c11.74266,0.30653 13.28047,6.91741 13.15604,11.68423c-0.05435,2.08204 -3.20954,10.0372 -3.20954,10.0372c0,0 -2.86329,-5.94597 -4.71321,-7.60246c-2.10706,-1.88672 -7.04788,-3.11179 -7.04788,-3.11179l-6.86075,5.79493l-5.25164,-8.43408c0,0 -3.86095,4.91276 -6.52801,6.69909c-2.84373,1.90467 -10.03838,4.39666 -10.03838,4.39666l-3.8995,-1.02119c0,0 -2.11042,-5.43911 -2.01088,-8.04806c0.09562,-2.506 2.59686,-7.30924 2.59686,-7.30924z" fill="#fb95a9" stroke="none" stroke-width="0"/><path d="M211.95882,120.27325c0.08346,-3.19726 0.0198,-3.89664 2.03476,-5.31865c1.61539,-1.14002 7.48338,3.84229 7.39992,7.03955c-0.08347,3.19726 -1.13282,6.18483 -3.10932,6.13324c-1.97649,-0.0516 -6.42532,-4.02533 -6.32537,-7.85414z" fill="#ffd5d5" stroke="#000000" stroke-width="2.5"/><path d="M218.41141,127.28808c-0.70539,-0.01842 -3.21389,-1.55918 -4.17902,-3.30036c-0.60254,-1.08702 -0.87616,-2.42927 -0.99477,-3.57815c-0.14546,-1.40891 0.91643,-1.99847 2.13296,-1.22727c2.03473,1.28987 4.74729,3.25854 4.7131,4.56823c-0.05463,2.09276 0.01356,3.58155 -1.67227,3.53754z" fill="#fb95a9" stroke="none" stroke-width="0"/><path d="M215.16597,118.46103c0.01669,-0.63945 5.30852,6.45832 5.30852,6.45832l-1.12126,2.60396c0,0 -4.20395,-8.42282 -4.18726,-9.06227z" fill="#000000" stroke="none" stroke-width="0"/><path d="M217.35144,128.11741c-0.18123,-1.86002 1.58659,-3.2575 3.71237,-3.40363c2.12576,-0.14613 4.48638,-0.48569 5.01928,2.68229c0.0938,0.55766 0.6139,4.20527 -1.12566,5.76251c-0.27115,0.24274 -1.75501,1.11145 -3.17248,1.1199c-1.95755,0.01168 -3.08781,-0.5804 -3.08781,-0.5804c0,0 2.40649,-1.47067 2.20717,-1.6433c-0.63569,-0.55055 -3.40061,-2.37458 -3.55288,-3.93735z" fill="#6d0f0a" stroke="#000000" stroke-width="2"/><path d="M204.74748,125.14435c-6.68686,-4.77979 -8.6889,-9.07803 -8.6889,-9.07803c0,0 6.68872,0.33287 9.15261,-1.53643c2.48357,-1.88423 5.72325,-10.9876 5.72325,-10.9876c0,0 22.96062,2.87347 32.76742,3.12947c9.08096,0.23705 17.04737,0.46919 22.88226,0.64669c6.34193,0.19294 11.581,3.48496 12.00287,8.44374c0.1044,1.22716 0.24407,2.87977 0.17466,4.25471c-0.31725,6.28447 -3.15031,11.71636 -3.15031,11.71636c0,0 -4.46808,-8.04323 -6.68308,-11.56755c-2.73947,-4.3588 -7.60286,-8.4995 -7.60286,-8.4995c0,0 -1.23481,3.81157 -3.06925,6.17324c-1.89896,2.44473 -5.04294,2.04278 -5.04294,2.04278c0,0 0.04132,-3.18675 -0.43356,-4.69614c-0.43714,-1.38943 -1.2392,-4.00517 -1.40503,-2.8442c-0.16681,1.16788 -0.9526,3.91326 -1.29775,5.26732c-0.89333,3.50459 -1.49678,3.93596 -1.49678,3.93596c0,0 -1.56055,-3.35868 -3.15449,-6.51145c-1.35527,-2.68069 -3.80628,-4.33551 -3.80628,-4.33551c0,0 -5.05758,4.12324 -7.87807,5.7267c-2.54789,1.44847 -7.9287,3.48634 -7.9287,3.48634c0,0 1.54549,8.25881 -2.42332,7.55589c-2.80502,-0.49678 -3.98535,-1.1099 -5.37707,-2.43824c-0.83434,-0.79636 -0.85379,-3.79675 -0.85379,-3.79675l2.03785,0.7076c0,0 -0.71504,-6.30502 -2.01906,-6.77209c-2.29603,-0.82239 -0.4963,-0.98744 -4.00202,-0.99182c-0.51027,-0.00063 -2.13162,2.91425 -2.14214,5.75459c-0.01128,3.04939 1.60836,6.03914 1.60836,6.03914c0,0 -4.62841,1.50899 -7.89388,-0.82519z" fill="#6d0f0a" stroke="#000000" stroke-width="1.5"/><path d="M254.69901,109.96889c-0.9803,-0.02559 -2.20653,-1.20189 -4.17776,-1.39485c-2.13563,-0.20906 -5.02537,0.56541 -6.15743,0.57445c-16.35008,0.13065 -34.55528,0.69372 -34.55528,0.69372c0,0 0.86659,-2.55433 0.98787,-3.82164c0.12958,-1.35397 0.08214,-4.05115 0.08214,-4.05115c0,0 21.90446,3.36406 35.06122,3.7075c8.44226,0.22037 17.34794,0.10864 22.87444,1.04211c5.85181,0.98842 8.52428,3.02994 8.52428,3.02994l0.6653,6.92211l-2.50969,-0.75914l-5.85658,-6.65205c0,0 -10.44177,0.82639 -14.93852,0.70901z" fill="#6d0f0a" stroke="none" stroke-width="0"/><path d="M243.23697,136.58653c-1.22514,-0.2043 -1.68237,-1.43427 -2.02159,-2.61376c-0.38268,-1.33063 -0.55699,-2.62424 -0.41708,-2.82167c0.21528,-0.30378 8.71639,2.417 8.72167,2.80823c0.00505,0.37327 -1.35672,1.12279 -3.11378,1.79011c-0.98998,0.37598 -2.11295,1.01324 -3.16921,0.8371z" fill="#ef3d61" stroke="#000000" stroke-width="1.5"/><path d="M250.3364,125.87031c0.05068,-1.94161 0.73039,-5.24786 3.73217,-6.26407c0.53896,-0.18247 1.74505,-0.03907 3.04846,0.45071c1.33597,0.50202 2.43487,1.30463 2.75704,1.50653c0.63649,0.39887 1.90796,0.13492 1.90796,0.13492c0,0 1.2733,-0.54937 2.0016,-1.00622c0.61142,-0.38354 2.09239,-2.05887 2.09239,-2.05887c0,0 -0.13173,1.49645 -1.4028,3.03153c-0.52378,0.63259 -1.91124,1.72 -1.91124,1.72c0,0 1.02278,0.17448 2.20455,0.01936c0.88769,-0.11653 3.14554,-1.28895 3.14554,-1.28895c0,0 -1.07955,1.64797 -1.80609,2.33566c-0.5017,0.47486 -1.70743,1.01904 -1.70743,1.01904l-0.27465,1.0039c0,0 -1.3883,-1.92523 -2.1572,-2.38065c-0.6217,-0.36823 -2.2321,-0.2759 -2.2321,-0.2759c0,0 -0.53387,7.69831 -5.41002,7.44463c-3.80197,-0.19779 -4.07161,-2.19436 -3.98815,-5.39162z" fill="#000000" stroke="none" stroke-width="0"/><path d="M229.31679,114.52168c0,0 1.45102,1.8008 2.28616,2.43602c0.76861,0.58462 2.13437,0.69886 2.13437,0.69886c0,0 -0.28548,-0.76819 -0.5672,-1.56654c-0.29381,-0.83265 -0.67337,-3.17762 -0.67337,-3.17762c0,0 1.15056,1.83553 1.76387,2.48677c0.58652,0.62278 2.04425,1.55513 2.04425,1.55513c0,0 2.59362,0.01939 4.29722,0.06386c4.45955,0.11642 7.27054,3.34966 7.27054,3.34966c0,0 -2.40486,-0.74427 -3.24649,-0.9734c-0.59784,-0.16277 -1.33059,-0.13141 -1.33059,-0.13141c0,0 -0.07085,8.512 -6.44257,8.41589c-5.21878,-0.07872 -3.58826,-7.07088 -3.77828,-7.46192c-0.13766,-0.28332 -0.99869,-1.19595 -0.99869,-1.19595c0,0 -1.39699,-0.94211 -1.83638,-1.64115c-0.478,-0.76047 -0.92281,-2.85819 -0.92281,-2.85819z" fill="#000000" stroke="none" stroke-width="0"/></g><path d="M277.95061,114.68308c0,0 -0.2538,-2.7526 -0.48247,-4.13975c-0.21867,-1.32646 -0.8609,-4.00919 -0.8609,-4.00919c0,0 1.04266,0.73518 1.54606,3.09258c0.329,1.54071 1.11859,5.53545 1.11859,5.53545z" fill="#000000" stroke="none" stroke-width="0"/></g><g data-paper-data="{&quot;index&quot;:null}"><path d="M259.28664,188.80449c-1.0602,-0.66466 -2.71619,-1.91638 -4.31413,-5.61285c-0.96052,-2.22194 -1.40224,-4.37529 -0.63729,-4.97855c2.36694,-1.86663 13.3373,-2.74548 13.44122,-2.74358c6.31423,0.11552 14.75784,4.97244 14.70806,7.6935c-0.03947,2.1578 -5.75386,4.98195 -11.95424,4.65984c-9.16976,-0.47638 -12.53061,-4.65958 -12.72268,-4.8813c-0.76238,-0.88006 0.9184,1.56685 1.56393,2.54042c0.73985,1.11585 2.06046,1.90901 1.85581,2.98223c-0.23385,1.22641 -1.06165,0.89139 -1.94068,0.34032z" fill="#ee1536" stroke="#000000" stroke-width="1.5"/><path d="M224.25875,165.2861c0.06579,-3.59594 2.00603,-6.75831 5.17049,-9.03425c4.20337,-3.02315 10.37532,-4.58235 15.3177,-4.49193c5.31906,0.09732 12.3695,0.02693 14.33396,2.35534c0.53322,0.63203 0.05462,3.35903 0.36104,5.97145c0.17611,1.50149 0.91753,5.146 1.91725,8.08844c0.72754,2.14139 1.60194,4.59337 2.7295,4.92432c4.67529,1.37227 11.26246,4.04556 9.53456,6.56728c-1.31304,1.91628 -8.75152,2.01412 -14.637,0.10664c-5.29741,-1.71688 -9.04355,-5.34088 -10.97814,-5.86143c-3.28193,-0.88309 -10.32042,1.24557 -13.67016,0.71804c-2.18266,-0.34373 -4.08315,-1.10157 -5.50522,-1.89786c-3.52437,-1.97351 -4.61466,-5.22144 -4.57396,-7.44602z" fill="#ffd5d5" stroke="#000000" stroke-width="1.5"/><path d="M254.56293,162.1376c0,0 1.56783,-1.10812 2.24012,-1.79943c0.60952,-0.62677 1.62377,-2.17381 1.62377,-2.17381c0,0 0.43059,2.44021 0.62789,3.68743c0.17838,1.12763 0.50484,3.47336 0.50484,3.47336c0,0 -2.15397,-0.60727 -3.05633,-1.18293c-0.72319,-0.46133 -1.94027,-2.0046 -1.94027,-2.0046z" fill="#fb95a9" stroke="none" stroke-width="0"/><path d="M274.93304,179.47495c0.17614,-0.35078 1.67744,-0.10579 2.96364,0.54008c1.28621,0.64587 2.64249,2.40996 2.46635,2.76075c-0.17614,0.35078 -1.49641,-1.15463 -2.78261,-1.8005c-1.28618,-0.64587 -2.82349,-1.14954 -2.64735,-1.50033z" fill="#fc9ea5" stroke="none" stroke-width="0"/></g><g data-paper-data="{&quot;index&quot;:null}"><path d="M231.61611,187.60802c2.29195,-6.45239 7.36052,-8.42325 12.0868,-6.74443c4.72627,1.67881 6.85397,7.63781 4.56201,14.09021c-2.29198,6.4524 -10.74771,12.3197 -14.27431,10.86352c-3.49168,-1.44176 -4.83123,-11.42262 -2.53927,-17.87502z" fill="#ee1536" stroke="#000000" stroke-width="1.5"/><path d="M234.0063,184.7341c0,0 1.89008,-2.93783 4.16425,-3.67281c0.76282,-0.24652 4.09289,0.07589 6.63574,1.60028c1.72832,1.0361 2.92564,3.08165 3.35603,4.117c0.74132,1.78332 0.25761,3.75411 0.25761,3.75411c0,0 -1.75132,1.73614 -5.37121,1.75697c-1.90354,0.01095 -4.69788,-1.95439 -6.49284,-3.99419c-1.61842,-1.83919 -2.54956,-3.56135 -2.54956,-3.56135z" fill="#9a1652" stroke="none" stroke-width="0"/><path d="M238.06885,174.77801c0.27504,-7.10274 1.78656,-10.92378 10.20323,-10.9567c4.92112,-0.01926 6.74914,5.60232 6.52174,8.01754c-0.76083,8.0806 -9.14585,15.50544 -9.14585,15.50544c0,0 1.69915,7.95191 -6.57229,9.28802c-4.04476,0.65336 -4.34796,-6.3548 -3.74239,-8.08754c1.09941,-3.14571 3.22465,-5.04681 3.22465,-5.04681c0,0 -0.61132,-5.56386 -0.48911,-8.71997z" fill="#ffd5d5" stroke="#000000" stroke-width="1.5"/><path d="M245.25007,175.85353c-1.01035,-0.6007 -1.27413,-1.56322 -1.64297,-2.51391c-0.44507,-1.14716 -0.84287,-4.04896 -0.84287,-4.04896c0,0 1.94291,1.36195 3.03588,1.93367c1.07558,0.56261 3.62764,1.31095 3.62764,1.31095c0,0 -1.4569,2.46959 -2.14984,2.98676c-0.644,0.48065 -1.01746,0.9322 -2.02782,0.33151z" fill="#fb95a9" stroke="none" stroke-width="0"/><path d="M237.07339,202.85939c-0.6425,-0.00769 1.46942,-1.10905 2.27458,-1.62336c0.89314,-0.5705 2.73049,-2.48502 2.78177,-2.11778c0.10372,0.74257 -1.35997,2.23226 -2.17601,2.75352c-0.88569,0.56574 -1.78963,1.00067 -2.88033,0.98762z" fill="#fc9ea5" stroke="none" stroke-width="0"/></g></g></g></svg>