<svg version="1.1" xmlns="http://www.w3.org/2000/svg" xmlns:xlink="http://www.w3.org/1999/xlink" width="199.11324" height="221.55319" viewBox="0,0,199.11324,221.55319"><g transform="translate(-195.52004,-69.22341)"><g data-paper-data="{&quot;isPaintingLayer&quot;:true}" fill-rule="nonzero" stroke-linejoin="miter" stroke-miterlimit="10" stroke-dasharray="" stroke-dashoffset="0" style="mix-blend-mode: normal"><g data-paper-data="{&quot;index&quot;:null}"><g data-paper-data="{&quot;origRot&quot;:0,&quot;index&quot;:null}" stroke="#000000" stroke-width="3" stroke-linecap="round"><path d="M326.1392,214.09605c-1.84,0.8637 -3.82815,-6.13431 -3.82815,-6.13431c0,0 -4.32899,-13.53396 -7.09976,-22.19638c-1.8194,-5.68812 -4.66201,-14.57507 -4.66201,-14.57507c0,0 -1.55442,-5.71696 -0.52377,-6.10501c6.2006,-2.33452 11.74173,-5.81631 15.20033,-5.86552c1.15287,-0.01642 4.0002,4.93873 4.0002,4.93873l14.60054,26.32177c0,0 5.00755,9.39509 5.9772,13.89957c0.5378,2.49825 -23.66461,9.7162 -23.66461,9.7162z" data-paper-data="{&quot;origPos&quot;:null}" fill="#582600"/><path d="M323.31491,207.28495l23.00274,-9.61127" fill="none"/><path d="M321.81433,204.30948l22.91119,-9.83034" data-paper-data="{&quot;origPos&quot;:null}" fill="none"/></g><path d="M321.46744,203.48636l-11.28761,-37.08376l14.57582,-6.14231l1.44513,0.13816l18.50608,33.34807z" fill="#ffcb66" stroke="#000000" stroke-width="1" stroke-linecap="round"/><path d="M322.78461,207.42014l-0.90583,-2.1479l23.49682,-9.90919l0.90583,2.1479z" fill="#ffffff" stroke="none" stroke-width="0" stroke-linecap="butt"/></g><path d="M205.36674,290.77659v-221.55318h189.26654v221.55319z" fill="none" stroke="none" stroke-width="NaN" stroke-linecap="butt"/><g data-paper-data="{&quot;origRot&quot;:0}" stroke="#000000" stroke-linecap="round"><path d="M302.38268,219.05034c0,0 -0.80389,-4.58749 0.82234,-4.77862c4.7988,-0.56394 9.19646,-2.73388 13.90573,-1.72204c1.95554,0.42017 3.32122,4.37948 3.32122,4.37948l9.44206,30.86211c0,0 1.02058,3.17516 1.53635,5.0183c0.55146,1.97064 -0.08243,5.12085 -2.27737,5.49441c-8.05913,1.37168 -12.80208,3.57845 -18.06149,3.26443c-1.91609,-0.11441 -3.94133,-0.35039 -4.9416,-1.84318c-1.30665,-1.94997 -1.255,-6.28659 -1.255,-6.28659z" data-paper-data="{&quot;origPos&quot;:null}" fill="#ff0000" stroke-width="3"/><path d="M331.97351,256.01302c0,0 -5.80589,3.39158 -11.14685,4.14755c-4.09777,0.57999 -13.14034,0.85716 -13.14034,0.85716c0,0 -1.84577,-2.29229 -2.20036,-3.80916c-0.37355,-1.59793 0.33456,-4.17213 0.33456,-4.17213l24.34364,-4.22647z" data-paper-data="{&quot;origPos&quot;:null}" fill="#976e57" stroke-width="2"/><path d="M302.5205,219.34504c0,0 -0.80389,-4.58749 0.82236,-4.77861c4.79879,-0.56394 9.19646,-2.73388 13.90576,-1.72202c1.95554,0.42017 3.32121,4.37947 3.32121,4.37947l9.44206,30.86211c0,0 1.0206,3.17516 1.53638,5.0183c0.55146,1.97064 -0.08244,5.12084 -2.27737,5.49441c-8.05913,1.37168 -12.80208,3.57846 -18.06149,3.26444c-1.91609,-0.11441 -3.94133,-0.35041 -4.94159,-1.84318c-1.30665,-1.94997 -1.25501,-6.28659 -1.25501,-6.28659z" data-paper-data="{&quot;origPos&quot;:null}" fill="#474747" stroke-width="3"/></g><g data-paper-data="{&quot;index&quot;:null,&quot;origRot&quot;:0}" stroke="#000000" stroke-linecap="round"><path d="M299.43117,253.09852c0,0 0.26586,4.33012 -0.94309,6.33167c-0.9255,1.53228 -2.93703,1.85102 -4.84552,2.04386c-5.23855,0.52929 -10.08575,-1.48089 -18.20449,-2.52084c-2.21118,-0.28324 -3.0001,-3.40425 -2.54658,-5.3955c0.42418,-1.86241 1.28682,-5.07618 1.28682,-5.07618l7.90745,-31.21785c0,0 1.16864,-4.01127 3.10142,-4.51115c4.65451,-1.20384 9.15494,0.78362 13.97673,1.15032c1.63403,0.12427 1.05766,4.74006 1.05766,4.74006z" data-paper-data="{&quot;origPos&quot;:null}" fill="#ff0000" stroke-width="3"/><path d="M273.93893,249.51114l24.5278,3.22438c0,0 0.83461,2.54257 0.5404,4.15418c-0.27927,1.52987 -2.00991,3.89549 -2.00991,3.89549c0,0 -9.04711,0.09374 -13.16937,-0.3177c-5.37289,-0.53628 -11.34049,-3.68645 -11.34049,-3.68645z" data-paper-data="{&quot;origPos&quot;:null}" fill="#976e57" stroke-width="2.5"/><path d="M299.3081,253.39859c0,0 0.26586,4.33012 -0.94309,6.33167c-0.9255,1.53228 -2.93703,1.85103 -4.84552,2.04386c-5.23855,0.52929 -10.08574,-1.48087 -18.20449,-2.52083c-2.21118,-0.28324 -3.0001,-3.40426 -2.54658,-5.3955c0.42418,-1.86241 1.28682,-5.07618 1.28682,-5.07618l7.90745,-31.21785c0,0 1.16863,-4.01127 3.10142,-4.51115c4.65451,-1.20384 9.15496,0.78362 13.97674,1.15032c1.63403,0.12427 1.05765,4.74006 1.05765,4.74006c0,0 -0.19986,8.71237 -0.32778,14.28876c-0.18055,7.87039 -0.46264,20.16687 -0.46264,20.16687z" data-paper-data="{&quot;origPos&quot;:null}" fill="#474747" stroke-width="1.5"/></g><g><g><path d="M281.20453,172.51792c0,0 2.06246,-13.94369 4.35485,-14.47384c6.87713,-1.59045 22.59919,-0.68994 33.10739,-0.68994c1.62446,0 3.02726,13.096 3.02726,13.096l1.89202,29.63832c0,0 0.2585,14.47452 -1.51362,14.47452c-15.77514,0 -34.26464,0.82506 -41.29596,0.01131c-2.34376,-0.27124 -1.46397,-15.51972 -1.46397,-15.51972z" data-paper-data="{&quot;origPos&quot;:null}" fill="#ffcb66" stroke="#000000" stroke-width="3.5" stroke-linecap="round"/><path d="M301.22747,180.45174c-1.37242,0 -1.37242,-2.4071 -1.37242,-2.4071c0,-4.99251 0,-11.58975 0,-16.58227c0,0 0,-2.4071 1.37242,-2.4071c1.37242,0 1.37242,2.4071 1.37242,2.4071c0,4.99251 0,9.98502 0,14.97753v1.60473c0,0 0,2.4071 -1.37242,2.4071z" fill="#ffffff" stroke="none" stroke-width="0.5" stroke-linecap="butt"/><path d="M313.97766,186.58038c-1.37242,0 -1.37242,-3.024 -1.37242,-3.024c0,-6.272 0,-14.56 0,-20.832c0,0 0,-3.024 1.37242,-3.024c1.37242,0 1.37242,3.024 1.37242,3.024c0,6.272 0,12.544 0,18.81601v2.016c0,0 0,3.024 -1.37242,3.024z" fill="#ffffff" stroke="none" stroke-width="0.5" stroke-linecap="butt"/></g><g stroke="#000000" stroke-width="0.5" stroke-linecap="butt"><path d="M316.93012,196.23253c0,6.53932 -4.9035,11.8405 -10.95227,11.8405c-6.04877,0 -10.95227,-5.30118 -10.95227,-11.8405c0,-6.53932 4.9035,-11.8405 10.95227,-11.8405c6.04877,0 10.95227,5.30118 10.95227,11.8405z" fill="#ffa924"/><path d="M309.22966,185.30958c0.00045,0.01085 0.00068,0.02191 0.00068,0.03318c0,0.60453 -0.66377,0.60453 -0.66377,0.60453h-0.13275c-0.48499,0 -2.69585,0.027 -3.02722,-0.10394c-0.27663,-0.10931 -0.21646,-0.52554 -0.4155,-0.73184c-0.19122,-0.19819 -0.46329,-0.32074 -0.71927,-0.44427c-0.40706,-0.19645 -0.963,-0.1933 -1.26247,-0.51212c-0.27664,-0.29451 -0.30952,-0.74686 -0.28347,-1.13371c0.12236,-1.8168 1.34646,-1.83539 2.92769,-1.67158c0.47692,0.09567 0.96906,0.14211 1.43077,0.28701c0.20312,0.06374 0.32434,0.28459 0.53347,0.32941c0.14865,0.03187 0.28849,-0.09464 0.43842,-0.1211c0.0064,-0.00113 1.8584,-0.24204 1.87676,-0.24442c1.25207,-0.16189 2.59107,-0.20914 3.85466,-0.12567c0.80516,0.05318 2.62443,0.23484 3.0888,0.96962c0.66131,1.04642 -1.26078,1.75448 -1.74187,1.9336c-1.42372,0.53008 -2.63895,0.20058 -4.08894,0.35441c-0.49392,0.0524 -1.28775,0.36785 -1.81598,0.57686z" fill="#1cc735"/></g></g><path d="M316.53203,164.90833c-11.95695,-1.76866 -23.54663,-3.5195 -28.12146,-5.26016c-4.1811,-1.59083 -5.05265,-4.52383 -5.05265,-4.52383c0,0 -1.35448,-2.67888 -1.19982,-4.20607c0.46398,-4.58159 2.40045,-17.58859 5.10692,-28.63894c0.09032,-0.3688 0.15445,-0.5728 0.26658,-0.93556c0.33639,-1.0883 1.8298,-5.28287 1.8298,-5.28287c0,0 3.41018,-1.13982 5.19566,-1.33622c5.35643,-0.58921 18.17318,2.95115 31.85062,5.54174c1.23968,0.23481 3.11151,2.23394 3.11151,2.23394c0,0 1.03047,3.34025 0.67199,5.29111c-2.31759,12.61266 -4.92828,26.55917 -5.73464,29.71445c-0.26878,1.05176 -2.74015,4.90173 -2.74015,4.90173z" fill="#582600" stroke="#000000" stroke-width="2.5" stroke-linecap="round"/><path d="M320.49322,144.82344c0.62259,-3.38823 1.53423,-6.06017 2.03619,-5.96793c0.50196,0.09222 0.40417,2.91372 -0.21842,6.30194c-0.62259,3.38823 -1.53423,6.06018 -2.03619,5.96794c-0.50196,-0.09222 -0.40417,-2.91372 0.21842,-6.30195z" fill="none" stroke="#000000" stroke-width="2.5" stroke-linecap="butt"/><path d="M313.97035,144.33403c0.63412,-3.45099 1.45339,-6.19249 1.82984,-6.12331c0.37647,0.06917 0.16761,2.92284 -0.46652,6.37381c-0.63412,3.45099 -1.45336,6.19246 -1.82983,6.1233c-0.37647,-0.06917 -0.16762,-2.92282 0.46651,-6.37381z" fill="none" stroke="#000000" stroke-width="2.5" stroke-linecap="butt"/><path d="M288.21975,115.41793l2.38699,-12.77898l43.05532,8.04233l-2.38699,12.77898z" fill="#000000" stroke="none" stroke-width="0" stroke-linecap="butt"/><path d="M310.45523,133.1475c0.25352,-1.35724 1.5593,-2.25197 2.91653,-1.99847c0.27868,0.05205 0.53785,0.14848 0.7716,0.28059c1.45467,-0.00741 8.18862,6.3121 5.62666,8.54454c-1.9117,1.66583 -6.61598,-2.40075 -8.20368,-3.97343c-0.43729,-0.43315 -1.76309,-2.31623 -1.11112,-2.85324z" data-paper-data="{&quot;index&quot;:null}" fill="#582600" stroke="none" stroke-width="0.5" stroke-linecap="butt"/><g data-paper-data="{&quot;index&quot;:null}"><g data-paper-data="{&quot;origRot&quot;:0,&quot;index&quot;:null}" stroke="#000000" stroke-width="3" stroke-linecap="round"><path d="M278.58617,211.91162c0,0 -24.52048,-6.04992 -24.10302,-8.57106c0.75268,-4.54578 5.30427,-14.17003 5.30427,-14.17003l13.32246,-26.99118c0,0 2.60662,-5.08589 3.75896,-5.12474c3.45699,-0.11657 9.1586,3.09569 15.46395,5.1304c1.04805,0.33822 -0.23063,6.1231 -0.23063,6.1231c0,0 -2.4135,9.01296 -3.95823,14.78172c-2.35249,8.78525 -6.02797,22.5111 -6.02797,22.5111c0,0 -1.65052,7.08524 -3.5298,6.31071z" data-paper-data="{&quot;origPos&quot;:null}" fill="#582600"/><path d="M281.08083,204.97303l-23.43688,-8.49795" fill="none"/><path d="M259.08117,193.2079l23.35593,8.72117" data-paper-data="{&quot;origPos&quot;:null}" fill="none"/></g><path d="M259.06468,192.47524l16.88681,-34.19656l1.43685,-0.20726l14.85341,5.4368l-9.49762,37.58205z" fill="#ffcb66" stroke="#000000" stroke-width="1" stroke-linecap="round"/><path d="M257.67233,196.31078l0.80187,-2.18884l23.94466,8.77186l-0.80187,2.18884z" fill="#ffffff" stroke="none" stroke-width="0" stroke-linecap="butt"/></g><path d="M325.5548,139.02056c-1.54698,0.98714 -5.94597,3.35332 -6.70091,1.1894c-1.01172,-2.89998 5.44035,-6.75646 6.40696,-6.29677c0.19681,-0.05169 0.39944,-0.06184 0.60127,-0.02415c0.98294,0.18361 1.57425,1.4327 1.32072,2.78993c0.26714,0.70869 -1.20198,2.06971 -1.62805,2.34159z" data-paper-data="{&quot;index&quot;:null}" fill="#582600" stroke="none" stroke-width="0.5" stroke-linecap="butt"/><g data-paper-data="{&quot;index&quot;:null}" stroke="#000000" stroke-width="1" stroke-linecap="butt"><g data-paper-data="{&quot;index&quot;:null}" fill="#000000"><path d="M305.3835,150.97939c7.42102,1.29852 4.35893,3.99482 4.35893,3.99482l-9.89316,-1.76663c0,0 -2.37938,-3.53721 5.5342,-2.22816z"/></g><g data-paper-data="{&quot;index&quot;:null}" fill="#ffffff"><path d="M305.38351,150.97939c1.51798,0.26563 2.59734,0.58972 3.35397,0.93725c0.01355,0.00623 -0.65337,0.55579 -0.77242,1.17531c-0.14535,0.75641 0.2498,1.60945 0.24752,1.60906c-1.67027,-0.29826 -8.3633,-1.49347 -8.3633,-1.49347c0,0 -2.37938,-3.53721 5.5342,-2.22816z"/></g></g><g data-paper-data="{&quot;index&quot;:null}"><path d="M216.09129,249.25031c-0.20496,-2.25285 -4.06064,-5.72516 -2.00582,-5.85124c1.36892,-0.08399 20.78486,3.36685 22.01641,4.72571c0.61705,0.68084 1.07925,1.81579 1.14769,2.5678c0.10056,1.10531 -0.38962,2.05404 -1.24025,2.75375c-0.88315,0.72645 -19.9671,2.27726 -21.01376,2.34149c-2.05481,0.12608 1.30073,-4.28466 1.09574,-6.53752z" fill="#e99b00" stroke="#000000" stroke-width="1.5" stroke-linecap="butt"/><g stroke-linecap="butt"><path d="M209.32278,249.69123c-0.37137,-4.08164 1.47327,-7.5221 4.12011,-7.68449c2.64685,-0.16239 5.09358,3.01478 5.46495,7.09643c0.37133,4.08164 -1.47331,7.5221 -4.12014,7.68449c-2.64683,0.16242 -5.09357,-3.01477 -5.46493,-7.09641z" fill="#ffb727" stroke="#000000" stroke-width="1.5"/><path d="M214.98044,245.6816l-1.76101,-3.23445c0,0 1.74495,0.55298 2.34388,1.04651c1.24099,1.05291 1.73129,2.56411 1.73129,2.56411z" fill="#ffd683" stroke="none" stroke-width="0"/><path d="M216.02469,248.88888l-0.41294,-1.46811c0,0 0.91946,-0.16024 1.24795,-0.15881c0.38463,0.00168 1.08407,0.21294 1.08407,0.21294l0.20968,1.78122z" fill="#ffd683" stroke="none" stroke-width="0"/></g><g><path d="M215.22539,249.43717c0.51229,5.63067 -2.45858,8.95223 -7.98857,9.29152c-5.52998,0.33927 -10.45446,-4.23881 -10.96678,-9.86954c-0.51232,-5.63069 3.04106,-9.85846 8.57105,-10.19775c5.52996,-0.33926 9.87198,5.14501 10.3843,10.77574z" fill="#e99b00" stroke="#000000" stroke-width="1.5" stroke-linecap="butt"/><path d="M203.23015,239.15815c2.74366,-0.16836 5.71112,1.01724 7.94696,2.58665c1.59293,1.11813 2.81739,2.90241 2.99847,4.89274c0.37219,4.0911 -1.28465,5.65574 -6.12296,5.95259c-2.4162,0.14823 -5.51488,-1.11011 -7.65869,-2.74116c-2.14902,-1.63502 -3.58148,-2.92615 -3.58148,-2.92615c0,0 1.57938,-7.46781 6.41769,-7.76466z" fill="#ffb727" stroke="none" stroke-width="0" stroke-linecap="butt"/><path d="M204.90342,238.9684c0,0 4.04701,2.54665 4.86756,9.04547c0.82728,6.55207 -2.27429,9.7456 -2.27429,9.7456" fill="none" stroke="#000000" stroke-width="0.8" stroke-linecap="round"/><path d="M209.40381,239.87317c0,0 2.46598,3.68779 3.4531,7.77697c1.42258,5.89302 -0.27515,8.33531 -0.27515,8.33531" fill="none" stroke="#000000" stroke-width="0.75" stroke-linecap="round"/><path d="M200.70109,240.12592c0,0 3.49488,2.75874 4.67566,9.2287c1.13572,6.22294 -0.60165,8.23441 -0.60165,8.23441" fill="none" stroke="#000000" stroke-width="0.8" stroke-linecap="round"/><path d="M203.50687,257.61063c0,0 -2.51441,-3.73755 -3.61762,-6.84506c-1.45312,-4.09309 -1.8008,-8.39875 -1.8008,-8.39875" fill="none" stroke="#000000" stroke-width="0.8" stroke-linecap="round"/><path d="M214.67153,251.63985c0,0 -2.86257,2.46501 -8.668,3.06222c-5.41748,0.5573 -8.08244,-2.03456 -8.08244,-2.03456" fill="none" stroke="#000000" stroke-width="0.8" stroke-linecap="round"/><path d="M197.45823,250.6153c0,0 2.77879,0.01709 5.76598,-0.43942c2.62696,-0.40147 5.39341,-1.26975 6.87253,-1.44666c1.75679,-0.21011 4.73434,-0.19192 4.73434,-0.19192" fill="none" stroke="#000000" stroke-width="0.8" stroke-linecap="round"/><path d="M196.72995,248.07334c0,0 4.02104,-3.17879 7.80682,-3.52048c5.9419,-0.5363 9.95043,1.41887 9.95043,1.41887" fill="none" stroke="#000000" stroke-width="0.8" stroke-linecap="round"/><path d="M196.87422,244.80305c0,0 2.82486,-2.45953 6.52529,-3.32437c5.32876,-1.24541 8.35879,-0.00677 8.35879,-0.00677" fill="none" stroke="#000000" stroke-width="0.8" stroke-linecap="round"/><path d="M203.82235,240.44052c0.03654,0.40148 -0.30269,0.74962 -0.75765,0.77751c-0.45497,0.02793 -0.85341,-0.27493 -0.88993,-0.67641c-0.03652,-0.4015 0.30268,-0.74962 0.75764,-0.77751c0.45497,-0.02795 0.85343,0.27491 0.88995,0.67639z" fill="#ffd683" stroke="none" stroke-width="0" stroke-linecap="butt"/><path d="M200.44693,241.8847c-0.22747,0.01395 -0.42897,-0.16251 -0.45004,-0.39413c-0.02107,-0.23162 0.14626,-0.43071 0.37374,-0.44466c0.22748,-0.01394 0.42897,0.16251 0.45004,0.39413c0.02108,0.23162 -0.14626,0.43071 -0.37374,0.44466z" fill="#ffd683" stroke="none" stroke-width="0" stroke-linecap="butt"/></g></g></g></g></svg>