<svg version="1.1" xmlns="http://www.w3.org/2000/svg" xmlns:xlink="http://www.w3.org/1999/xlink" width="199.11324" height="221.55319" viewBox="0,0,199.11324,221.55319"><g transform="translate(-195.52004,-69.22341)"><g data-paper-data="{&quot;isPaintingLayer&quot;:true}" fill-rule="nonzero" stroke-linejoin="miter" stroke-miterlimit="10" stroke-dasharray="" stroke-dashoffset="0" style="mix-blend-mode: normal"><path d="M205.36674,290.77659v-221.55318h189.26654v221.55319z" fill="none" stroke="none" stroke-width="NaN" stroke-linecap="butt"/><g data-paper-data="{&quot;index&quot;:null}"><g data-paper-data="{&quot;origRot&quot;:0,&quot;index&quot;:null}" stroke="#000000" stroke-width="3" stroke-linecap="round"><path d="M352.62504,188.57263c-0.34879,2.00248 -7.22049,-0.38595 -7.22049,-0.38595c0,0 -13.56744,-4.22284 -22.25131,-6.92567c-5.70219,-1.7748 -14.61114,-4.54766 -14.61114,-4.54766c0,0 -5.57372,-2.00836 -5.29997,-3.07506c1.64711,-6.41751 1.97624,-12.95346 3.92099,-15.81393c0.64824,-0.9535 6.3402,-0.44116 6.3402,-0.44116l29.93462,3.1511c0,0 10.56764,1.29167 14.81284,3.08297c2.35445,0.99347 -5.62577,24.95534 -5.62577,24.95534z" data-paper-data="{&quot;origPos&quot;:null}" fill="#582600"/><path d="M345.42649,186.9762l5.33182,-24.35312" fill="none"/><path d="M347.22851,162.09336l-5.09987,24.40388" data-paper-data="{&quot;origPos&quot;:null}" fill="none"/></g><path d="M341.2555,186.30888l-36.84607,-12.04087l3.33591,-15.46138l0.94256,-1.10411l37.92997,3.98562z" fill="#ffcb66" stroke="#000000" stroke-width="1" stroke-linecap="round"/><path d="M345.23283,187.48804l-2.2788,-0.49102l5.37144,-24.9287l2.2788,0.49102z" fill="#ffffff" stroke="none" stroke-width="0" stroke-linecap="butt"/></g><g data-paper-data="{&quot;origRot&quot;:0}" stroke="#000000" stroke-linecap="round"><path d="M296.00353,220.21407c0,0 -2.05731,-4.33753 -0.6438,-4.95687c4.1711,-1.82752 7.51385,-5.1419 12.06135,-5.38284c1.88835,-0.10006 4.27085,3.46597 4.27085,3.46597l17.4843,28.1145c0,0 1.84324,2.87949 2.84395,4.57127c1.06994,1.80879 1.41148,5.10076 -0.46283,6.05134c-6.88176,3.49025 -10.52573,6.93242 -15.36766,8.01089c-1.76399,0.39289 -3.66187,0.69405 -4.99857,-0.52218c-1.74612,-1.58872 -2.95784,-5.90353 -2.95784,-5.90353z" data-paper-data="{&quot;origPos&quot;:null}" fill="#ff0000" stroke-width="3"/><path d="M333.4584,249.05451c0,0 -4.26032,4.89818 -8.86543,7.05943c-3.53322,1.65818 -11.62092,4.32278 -11.62092,4.32278c0,0 -2.33243,-1.78577 -3.09289,-3.19653c-0.80109,-1.48615 -0.90841,-4.22643 -0.90841,-4.22643l20.76317,-10.62526z" data-paper-data="{&quot;origPos&quot;:null}" fill="#976e57" stroke-width="2"/><path d="M296.21355,220.46993c0,0 -2.05731,-4.33753 -0.64379,-4.95686c4.17109,-1.82752 7.51385,-5.1419 12.06137,-5.38284c1.88835,-0.10006 4.27085,3.46596 4.27085,3.46596l17.4843,28.1145c0,0 1.84326,2.87948 2.84397,4.57124c1.06994,1.80879 1.41146,5.10075 -0.46283,6.05134c-6.88176,3.49025 -10.52573,6.93243 -15.36766,8.0109c-1.76399,0.39289 -3.66188,0.69405 -4.99856,-0.52219c-1.74612,-1.58872 -2.95785,-5.90353 -2.95785,-5.90353z" data-paper-data="{&quot;origPos&quot;:null}" fill="#474747" stroke-width="3"/></g><g data-paper-data="{&quot;index&quot;:null,&quot;origRot&quot;:0}" stroke="#000000" stroke-linecap="round"><path d="M286.81399,252.32865c0,0 0.08965,4.48083 -1.12158,6.50712c-0.92725,1.55122 -2.83101,1.81252 -4.6332,1.94729c-4.94677,0.36988 -9.43137,-1.86963 -17.029,-3.21753c-2.06925,-0.36711 -2.69566,-3.6169 -2.19534,-5.65804c0.46795,-1.90906 1.39837,-5.19893 1.39837,-5.19893l8.59385,-31.97299c0,0 1.24777,-4.10315 3.08417,-4.55419c4.42243,-1.08622 8.58172,1.11813 13.10331,1.65952c1.5323,0.18347 0.8192,4.9309 0.8192,4.9309z" data-paper-data="{&quot;origPos&quot;:null}" fill="#ff0000" stroke-width="3"/><path d="M262.96995,247.76378l22.95037,4.15744c0,0 0.69081,2.65396 0.35439,4.3084c-0.31934,1.57053 -2.03474,3.9552 -2.03474,3.9552c0,0 -8.5128,-0.20842 -12.37479,-0.7724c-5.03364,-0.7351 -10.52983,-4.18972 -10.52983,-4.18972z" data-paper-data="{&quot;origPos&quot;:null}" fill="#976e57" stroke-width="2.5"/><path d="M286.68712,252.63438c0,0 0.08965,4.48083 -1.12158,6.50712c-0.92725,1.55122 -2.83101,1.81253 -4.6332,1.94729c-4.94677,0.36988 -9.43136,-1.86961 -17.029,-3.21752c-2.06925,-0.36711 -2.69566,-3.61691 -2.19534,-5.65804c0.46795,-1.90906 1.39837,-5.19893 1.39837,-5.19893l8.59385,-31.97299c0,0 1.24776,-4.10315 3.08417,-4.55419c4.42243,-1.08622 8.58174,1.11814 13.10332,1.65952c1.5323,0.18347 0.81919,4.9309 0.81919,4.9309c0,0 -0.51072,8.99083 -0.8376,14.74544c-0.46137,8.12193 -1.1822,20.81143 -1.1822,20.81143z" data-paper-data="{&quot;origPos&quot;:null}" fill="#474747" stroke-width="1.5"/></g><g><g><path d="M272.32379,171.73243c0,0 2.4137,-14.33781 4.58806,-14.81444c6.52303,-1.42993 21.28147,-0.01346 31.16603,0.31163c1.52805,0.05025 2.40275,13.61974 2.40275,13.61974l0.77297,30.67019c0,0 -0.24852,14.95788 -1.91546,14.90305c-14.83895,-0.48803 -32.2592,-0.20787 -38.8456,-1.26587c-2.19545,-0.35265 -0.84991,-16.07469 -0.84991,-16.07469z" data-paper-data="{&quot;origPos&quot;:null}" fill="#ffcb66" stroke="#000000" stroke-width="3.5" stroke-linecap="round"/><path d="M290.88896,180.54623c-1.29097,-0.04246 -1.2092,-2.52861 -1.2092,-2.52861c0.16958,-5.15647 0.39368,-11.97036 0.56327,-17.12684c0,0 0.08177,-2.48616 1.37274,-2.4437c1.29097,0.04246 1.2092,2.52861 1.2092,2.52861c-0.16958,5.15647 -0.33918,10.31293 -0.50876,15.4694l-0.05451,1.65743c0,0 -0.08177,2.48616 -1.37274,2.4437z" fill="#ffffff" stroke="none" stroke-width="0.5" stroke-linecap="butt"/><path d="M302.6743,187.27059c-1.29097,-0.04246 -1.18825,-3.16577 -1.18825,-3.16577c0.21305,-6.47798 0.49457,-15.03816 0.70762,-21.51614c0,0 0.10272,-3.12331 1.39369,-3.08085c1.29097,0.04246 1.18825,3.16577 1.18825,3.16577c-0.21305,6.47798 -0.4261,12.95596 -0.63914,19.43395l-0.06848,2.0822c0,0 -0.10272,3.12331 -1.39369,3.08085z" fill="#ffffff" stroke="none" stroke-width="0.5" stroke-linecap="butt"/></g><g stroke="#000000" stroke-width="0.5" stroke-linecap="butt"><path d="M305.12368,197.33107c-0.22213,6.75408 -5.0147,12.07765 -10.7045,11.89052c-5.68981,-0.18713 -10.12222,-5.81409 -9.9001,-12.56818c0.22213,-6.75408 5.0147,-12.07765 10.7045,-11.89052c5.68981,0.18713 10.12222,5.81409 9.9001,12.56818z" fill="#ffa924"/><path d="M298.25124,185.81117c0.00005,0.01122 -0.0001,0.02265 -0.00049,0.03429c-0.02053,0.62438 -0.64492,0.60385 -0.64492,0.60385l-0.12488,-0.0041c-0.4562,-0.01501 -2.53677,-0.05552 -2.84404,-0.201c-0.2565,-0.12146 -0.18575,-0.54949 -0.36598,-0.76872c-0.17314,-0.21062 -0.4249,-0.34561 -0.6615,-0.48112c-0.37623,-0.21549 -0.89929,-0.22945 -1.17015,-0.56799c-0.25022,-0.31275 -0.26578,-0.78096 -0.22813,-1.17971c0.17681,-1.87268 1.3289,-1.85401 2.81072,-1.63591c0.44537,0.11357 0.90672,0.17676 1.33612,0.34071c0.1889,0.07212 0.29542,0.30396 0.49062,0.35673c0.13874,0.03751 0.27459,-0.08882 0.41651,-0.1115c0.00605,-0.00097 1.75633,-0.19249 1.77369,-0.19439c1.18327,-0.12848 2.4444,-0.13584 3.63017,-0.01055c0.75558,0.07984 2.46071,0.32374 2.87256,1.09702c0.58652,1.10124 -1.24556,1.7731 -1.70417,1.94321c-1.35723,0.50344 -2.48915,0.12552 -3.85831,0.23955c-0.46638,0.03884 -1.22382,0.34009 -1.7278,0.53963z" fill="#1cc735"/></g></g><path d="M307.40094,159.76877c-12.08344,-0.2957 -23.80017,-0.61854 -28.55328,-1.78765c-4.34403,-1.06849 -5.56714,-3.87315 -5.56714,-3.87315c0,0 -1.67139,-2.49348 -1.70434,-4.02813c-0.09883,-4.60396 0.23523,-17.75009 1.57238,-29.04818c0.04462,-0.37707 0.08337,-0.58736 0.15036,-0.96111c0.20101,-1.12123 1.17116,-5.46675 1.17116,-5.46675c0,0 3.24551,-1.54762 4.99367,-1.96053c5.24444,-1.23872 18.39753,0.71043 32.28893,1.61185c1.25908,0.08172 3.36097,1.83737 3.36097,1.83737c0,0 1.43055,3.18946 1.31291,5.1695c-0.76046,12.80126 -1.64898,26.96216 -2.06411,30.19228c-0.13836,1.07671 -2.12123,5.19958 -2.12123,5.19958z" fill="#582600" stroke="#000000" stroke-width="2.5" stroke-linecap="round"/><path d="M308.88046,139.35054c0.2043,-3.43889 0.7829,-6.20214 1.29237,-6.17188c0.50946,0.03024 0.75686,2.84258 0.55258,6.28146c-0.2043,3.43889 -0.7829,6.20215 -1.29237,6.17189c-0.50946,-0.03024 -0.75686,-2.84258 -0.55258,-6.28147z" fill="none" stroke="#000000" stroke-width="2.5" stroke-linecap="butt"/><path d="M302.34664,139.66112c0.20806,-3.5026 0.68652,-6.3236 1.0686,-6.3009c0.38209,0.0227 0.52318,2.88051 0.31511,6.3831c-0.20806,3.5026 -0.68649,6.32358 -1.06859,6.30089c-0.38209,-0.0227 -0.52319,-2.88049 -0.31512,-6.38308z" fill="none" stroke="#000000" stroke-width="2.5" stroke-linecap="butt"/><path d="M273.25849,114.10504l0.80904,-12.9748l43.71509,2.72584l-0.80904,12.9748z" fill="#000000" stroke="none" stroke-width="0" stroke-linecap="butt"/><path d="M297.49212,128.9874c0.08593,-1.37804 1.27271,-2.42549 2.65074,-2.33958c0.28295,0.01763 0.55195,0.08171 0.80008,0.18429c1.44289,-0.18495 8.89796,5.26519 6.62772,7.7937c-1.69404,1.88675 -6.85958,-1.5751 -8.6274,-2.94218c-0.48691,-0.37652 -2.03267,-2.08367 -1.45114,-2.69625z" data-paper-data="{&quot;index&quot;:null}" fill="#582600" stroke="none" stroke-width="0.5" stroke-linecap="butt"/><path d="M313.19575,132.97313c-1.41489,1.16862 -5.49211,4.05415 -6.50557,1.99857c-1.35819,-2.75476 4.5748,-7.37009 5.59031,-7.03186c0.18902,-0.07533 0.3889,-0.11015 0.59383,-0.09737c0.998,0.06224 1.73737,1.2298 1.65145,2.60782c0.35166,0.67078 -0.94031,2.20096 -1.33,2.52282z" data-paper-data="{&quot;index&quot;:null}" fill="#582600" stroke="none" stroke-width="0.5" stroke-linecap="butt"/><g data-paper-data="{&quot;index&quot;:null}"><path d="M216.09129,249.25031c-0.20496,-2.25285 -4.06064,-5.72516 -2.00582,-5.85124c1.36892,-0.08399 20.78486,3.36685 22.01641,4.72571c0.61705,0.68084 1.07925,1.81579 1.14769,2.5678c0.10056,1.10531 -0.38962,2.05404 -1.24025,2.75375c-0.88315,0.72645 -19.9671,2.27726 -21.01376,2.34149c-2.05481,0.12608 1.30073,-4.28466 1.09574,-6.53752z" fill="#e99b00" stroke="#000000" stroke-width="1.5" stroke-linecap="butt"/><g stroke-linecap="butt"><path d="M209.32278,249.69123c-0.37137,-4.08164 1.47327,-7.5221 4.12011,-7.68449c2.64685,-0.16239 5.09358,3.01478 5.46495,7.09643c0.37133,4.08164 -1.47331,7.5221 -4.12014,7.68449c-2.64683,0.16242 -5.09357,-3.01477 -5.46493,-7.09641z" fill="#ffb727" stroke="#000000" stroke-width="1.5"/><path d="M214.98044,245.6816l-1.76101,-3.23445c0,0 1.74495,0.55298 2.34388,1.04651c1.24099,1.05291 1.73129,2.56411 1.73129,2.56411z" fill="#ffd683" stroke="none" stroke-width="0"/><path d="M216.02469,248.88888l-0.41294,-1.46811c0,0 0.91946,-0.16024 1.24795,-0.15881c0.38463,0.00168 1.08407,0.21294 1.08407,0.21294l0.20968,1.78122z" fill="#ffd683" stroke="none" stroke-width="0"/></g><g><path d="M215.22539,249.43717c0.51229,5.63067 -2.45858,8.95223 -7.98857,9.29152c-5.52998,0.33927 -10.45446,-4.23881 -10.96678,-9.86954c-0.51232,-5.63069 3.04106,-9.85846 8.57105,-10.19775c5.52996,-0.33926 9.87198,5.14501 10.3843,10.77574z" fill="#e99b00" stroke="#000000" stroke-width="1.5" stroke-linecap="butt"/><path d="M203.23015,239.15815c2.74366,-0.16836 5.71112,1.01724 7.94696,2.58665c1.59293,1.11813 2.81739,2.90241 2.99847,4.89274c0.37219,4.0911 -1.28465,5.65574 -6.12296,5.95259c-2.4162,0.14823 -5.51488,-1.11011 -7.65869,-2.74116c-2.14902,-1.63502 -3.58148,-2.92615 -3.58148,-2.92615c0,0 1.57938,-7.46781 6.41769,-7.76466z" fill="#ffb727" stroke="none" stroke-width="0" stroke-linecap="butt"/><path d="M204.90342,238.9684c0,0 4.04701,2.54665 4.86756,9.04547c0.82728,6.55207 -2.27429,9.7456 -2.27429,9.7456" fill="none" stroke="#000000" stroke-width="0.8" stroke-linecap="round"/><path d="M209.40381,239.87317c0,0 2.46598,3.68779 3.4531,7.77697c1.42258,5.89302 -0.27515,8.33531 -0.27515,8.33531" fill="none" stroke="#000000" stroke-width="0.75" stroke-linecap="round"/><path d="M200.70109,240.12592c0,0 3.49488,2.75874 4.67566,9.2287c1.13572,6.22294 -0.60165,8.23441 -0.60165,8.23441" fill="none" stroke="#000000" stroke-width="0.8" stroke-linecap="round"/><path d="M203.50687,257.61063c0,0 -2.51441,-3.73755 -3.61762,-6.84506c-1.45312,-4.09309 -1.8008,-8.39875 -1.8008,-8.39875" fill="none" stroke="#000000" stroke-width="0.8" stroke-linecap="round"/><path d="M214.67153,251.63985c0,0 -2.86257,2.46501 -8.668,3.06222c-5.41748,0.5573 -8.08244,-2.03456 -8.08244,-2.03456" fill="none" stroke="#000000" stroke-width="0.8" stroke-linecap="round"/><path d="M197.45823,250.6153c0,0 2.77879,0.01709 5.76598,-0.43942c2.62696,-0.40147 5.39341,-1.26975 6.87253,-1.44666c1.75679,-0.21011 4.73434,-0.19192 4.73434,-0.19192" fill="none" stroke="#000000" stroke-width="0.8" stroke-linecap="round"/><path d="M196.72995,248.07334c0,0 4.02104,-3.17879 7.80682,-3.52048c5.9419,-0.5363 9.95043,1.41887 9.95043,1.41887" fill="none" stroke="#000000" stroke-width="0.8" stroke-linecap="round"/><path d="M196.87422,244.80305c0,0 2.82486,-2.45953 6.52529,-3.32437c5.32876,-1.24541 8.35879,-0.00677 8.35879,-0.00677" fill="none" stroke="#000000" stroke-width="0.8" stroke-linecap="round"/><path d="M203.82235,240.44052c0.03654,0.40148 -0.30269,0.74962 -0.75765,0.77751c-0.45497,0.02793 -0.85341,-0.27493 -0.88993,-0.67641c-0.03652,-0.4015 0.30268,-0.74962 0.75764,-0.77751c0.45497,-0.02795 0.85343,0.27491 0.88995,0.67639z" fill="#ffd683" stroke="none" stroke-width="0" stroke-linecap="butt"/><path d="M200.44693,241.8847c-0.22747,0.01395 -0.42897,-0.16251 -0.45004,-0.39413c-0.02107,-0.23162 0.14626,-0.43071 0.37374,-0.44466c0.22748,-0.01394 0.42897,0.16251 0.45004,0.39413c0.02108,0.23162 -0.14626,0.43071 -0.37374,0.44466z" fill="#ffd683" stroke="none" stroke-width="0" stroke-linecap="butt"/></g></g><g data-paper-data="{&quot;index&quot;:null}"><path d="M272.7642,155.90018c2.11297,-2.42417 6.75056,11.02255 8.20851,12.80596c1.5846,1.93828 -19.30407,3.21102 -19.30407,3.21102l-3.5439,0.16582l23.42458,-1.5246c0,0 8.06349,-0.93449 7.95766,1.33107c0,0 4.49235,10.19268 0.07394,28.54416c-4.98762,1.24751 -16.88091,-0.2353 -16.88091,-0.2353c0,0 -26.56065,-2.06925 -28.79354,-6.22338c-0.51705,-0.96196 -3.89303,-13.60366 -1.86086,-17.2304c6.7437,-12.03515 30.71858,-20.84436 30.71858,-20.84436z" fill="#582700" stroke="#000000" stroke-width="2.5" stroke-linecap="round"/><path d="M263.40742,172.49753c-0.50674,0.00229 -1.01434,-0.00245 -1.52314,-0.00547c-0.11229,-0.00067 -1.38194,-0.13227 -1.95869,0.04257c-0.15677,6.89823 0.76065,13.74278 0.23868,20.66359c-0.00454,0.61352 0.11477,1.90942 0.06242,3.1652c0.08646,0.37032 0.19965,0.6521 0.3507,0.74162c1.28439,0.76129 3.18323,0.72724 4.60316,1.23318c-0.11204,-0.36664 -0.42111,-1.43162 -0.46503,-1.88805c-0.13042,-1.35547 -0.2634,-2.69478 -0.43488,-4.04493c-0.60114,-4.73284 -0.71876,-9.92613 -0.75596,-14.67183c-0.20122,-1.68653 -0.26523,-3.49442 -0.11727,-5.23588zM264.91277,172.46148c-0.16169,1.71622 -0.08923,3.51722 0.10902,5.17872c0.0173,5.36756 0.41003,10.97207 0.99849,16.33737c0.24247,2.21069 1.44543,5.46529 -1.11424,5.83606c-1.51759,-0.52027 -3.60934,-0.55985 -5.02236,-1.39024c-0.16797,0.43688 -0.41004,0.7732 -0.75514,0.93824c-0.48577,0.23232 -2.53193,-0.48975 -3.116,-0.5958c-3.48453,-0.63262 -7.78683,-0.74488 -9.972,-3.95707c-4.76206,-4.00201 -6.00751,-13.04606 -4.88065,-18.79847c2.33955,-3.73966 5.27395,-5.50719 9.03413,-7.60815c2.71496,-1.51695 4.99211,-3.4444 7.91865,-4.66117c3.8337,-2.24934 7.72559,-4.37442 11.56097,-6.6179c1.76029,-1.02965 3.10409,-2.62433 5.04403,-1.42271c1.63209,3.20931 3.28052,6.45442 4.84492,9.71427c0.48765,1.01617 1.4093,3.11193 1.01705,4.26363c-0.54515,1.60055 -2.41583,1.46671 -3.7919,1.47514c-3.00985,0.43648 -6.33016,0.75521 -9.61979,0.82263c-0.18387,0.27716 -0.53924,0.32797 -0.53924,0.32797c-0.57169,0.08111 -1.14349,0.12936 -1.71594,0.15747zM258.61303,194.85646c-0.61402,-4.02036 -0.00975,-7.99491 -0.49791,-11.97656c-0.33477,-2.34065 -1.27055,-6.45612 -0.50915,-9.31063c-0.02333,-0.15384 -0.00115,-0.2759 -0.00115,-0.2759l0.14067,-0.75615c0.00454,-0.75379 0.26062,-1.50584 0.59349,-2.18218c5.86072,-1.2429 12.30723,0.15343 18.33813,-0.69754c0.69085,-0.00352 1.67543,0.05431 2.3305,-0.1511c0.4029,-0.12635 -0.38123,-2.52742 -0.49083,-2.81245c-1.33444,-3.47041 -3.47314,-6.60968 -4.94268,-10.02284c-0.22527,-0.30859 -2.61109,1.43606 -3.14564,1.74818c-3.86514,2.25687 -7.77794,4.41123 -11.6476,6.66461c-2.9097,1.21337 -5.16193,3.11472 -7.86035,4.63054c-3.43453,1.92933 -6.16381,3.48356 -8.3643,6.84373c-0.85565,5.32739 0.19514,13.54438 4.59323,17.24052c2.18127,3.10354 7.91342,3.59817 11.34296,4.20449c0.03636,0.00642 0.09139,-1.69128 0.12961,-3.08482c-0.00292,-0.02101 -0.00592,-0.04166 -0.00901,-0.0619z" fill="#000000" stroke="none" stroke-width="0.5" stroke-linecap="butt"/><path d="M263.53338,177.68419c0.03722,4.74569 0.16103,10.03594 0.76218,14.76879c0.1715,1.35016 0.30105,2.69039 0.43146,4.04587c0.04391,0.45642 0.35306,1.52138 0.4651,1.88802c-1.41996,-0.50593 -3.33708,-0.47099 -4.62146,-1.23226c-0.15104,-0.08954 -0.26626,-0.37163 -0.35272,-0.74195c0.05234,-1.25578 -0.07076,-2.55251 -0.06623,-3.16602c0.52195,-6.92083 -0.39132,-13.86306 -0.23455,-20.76129c0.57674,-0.17483 1.8538,-0.04394 1.96609,-0.04328c0.5088,0.00302 1.02222,0.00797 1.52895,0.0057c-0.14796,1.74146 -0.08007,3.54987 0.12116,5.23641z" data-paper-data="{&quot;noHover&quot;:false,&quot;origItem&quot;:[&quot;Path&quot;,{&quot;applyMatrix&quot;:true,&quot;segments&quot;:[[[926.17844,407.1979],[3.2606,1.25965],[-0.27949,0.97418]],[[925.31465,410.11917],[0.29084,-0.97519],[-0.06418,0.21521]],[[924.29914,413.90358],[-0.01258,-1.20526],[13.15638,4.16543]],[[964.1057,425.02121],[-12.99513,-4.87922],[1.17537,0.35239]],[[970.21765,426.67451],[-2.3817,-0.804],[0.75941,0.04146]],[[971.83798,426.41666],[-0.25651,0.23985],[2.18115,-2.03947]],[[976.78433,418.26967],[-1.76682,2.44279],[-0.76669,0.00973]],[[972.89889,418.10481],[0.90089,0.17138],[-2.67549,-0.50896]],[[964.88923,416.67374],[2.68829,0.42712],[-9.42353,-1.49721]],[[936.29671,409.90591],[9.13228,2.58714],[-3.35077,-0.55846]]],&quot;closed&quot;:true}]}" fill="#ffffff" stroke="none" stroke-width="0.5" stroke-linecap="butt"/><path d="M258.67477,193.0873c-0.00175,0.22708 -0.1296,4.97596 -0.18974,4.96532c-3.42955,-0.60633 -9.18855,-1.11399 -11.36979,-4.21752c-4.39809,-3.69614 -5.46434,-11.95508 -4.60868,-17.28247c2.2005,-3.36017 4.94144,-4.94133 8.37598,-6.87066c2.69843,-1.51581 4.97923,-3.43381 7.88893,-4.64717c3.86965,-2.25337 7.8123,-4.40428 11.67743,-6.66116c0.53453,-0.31212 2.92421,-2.05484 3.14947,-1.74625c1.46954,3.41314 3.62497,6.56752 4.95942,10.03794c0.10959,0.28504 0.8971,2.6917 0.49421,2.81803c-0.65509,0.20542 -1.72715,0.196 -2.41798,0.1995c-6.03091,0.85097 -12.41708,-0.52379 -18.2778,0.71911c-0.33286,0.67634 -0.5806,1.42439 -0.58513,2.1782l-0.13741,0.75405c0,0 -0.19184,0.65628 0.54607,0.79036c0.07388,0.01343 0.19833,0.10053 0.26057,0.09809c0.00925,6.3219 0.70816,12.51623 0.23445,18.86464z" data-paper-data="{&quot;noHover&quot;:false,&quot;origItem&quot;:[&quot;Path&quot;,{&quot;applyMatrix&quot;:true,&quot;segments&quot;:[[[926.61254,417.73069],[12.14285,3.5238],[-0.03018,0.12086]],[[926.46822,418.11346],[0.06716,-0.13431],[-0.67082,1.34164]],[924.45576,418.78428],[[923.08279,418.0906],[0,0],[-1.44471,-0.43097]],[[919.22563,415.72869],[1.11205,1.01797],[0.89694,-11.9485]],[[928.15956,380.1298],[-1.74473,12.05571],[0.38029,-1.32836]],[[929.175,375.57071],[0.02742,1.37277],[-0.01686,-0.84429]],[[923.5003,374.93752],[0.60865,-0.05075],[-7.41054,0.61792]],[[901.48814,378.8123],[7.37628,-0.90935],[-0.71866,0.25961]],[[903.08234,385.83106],[-0.2998,-1.20115],[2.16779,8.68513]],[[909.35292,411.92731],[-2.15853,-8.69186],[0.69956,6.26621]],[[913.83986,429.61277],[-1.39861,-6.02998],[1.78014,7.67491]],[[922.29365,449.50563],[-5.21858,-6.1072],[9.74892,4.62723]],[[957.96755,450.34516],[-9.56021,6.37347],[7.18055,-2.44927]],[[972.39433,430.92276],[-3.08539,6.24485],[0.05411,-0.10951]],[[963.14745,427.86406],[0.43501,0.13058],[-11.92317,-4.46591]]],&quot;closed&quot;:true}]}" fill="#ffcb66" stroke="none" stroke-width="0.5" stroke-linecap="butt"/></g><path d="M288.66233,149.47358c0,0 0.55481,-1.20378 1.37355,-1.18266c1.09876,0.02836 4.62966,1.33758 4.62966,1.33758" fill="none" stroke="#000000" stroke-width="1" stroke-linecap="round"/></g></g></svg>