<svg version="1.1" xmlns="http://www.w3.org/2000/svg" xmlns:xlink="http://www.w3.org/1999/xlink" width="199.11324" height="221.55319" viewBox="0,0,199.11324,221.55319"><g transform="translate(-195.52004,-69.22341)"><g data-paper-data="{&quot;isPaintingLayer&quot;:true}" fill-rule="nonzero" stroke-linejoin="miter" stroke-miterlimit="10" stroke-dasharray="" stroke-dashoffset="0" style="mix-blend-mode: normal"><path d="M205.36674,290.77659v-221.55318h189.26654v221.55319z" fill="none" stroke="none" stroke-width="NaN" stroke-linecap="butt"/><g data-paper-data="{&quot;index&quot;:null}"><path d="M216.09129,249.25031c-0.20496,-2.25285 -4.06064,-5.72516 -2.00582,-5.85124c1.36892,-0.08399 20.78486,3.36685 22.01641,4.72571c0.61705,0.68084 1.07925,1.81579 1.14769,2.5678c0.10056,1.10531 -0.38962,2.05404 -1.24025,2.75375c-0.88315,0.72645 -19.9671,2.27726 -21.01376,2.34149c-2.05481,0.12608 1.30073,-4.28466 1.09574,-6.53752z" fill="#e99b00" stroke="#000000" stroke-width="1.5" stroke-linecap="butt"/><g stroke-linecap="butt"><path d="M209.32278,249.69123c-0.37137,-4.08164 1.47327,-7.5221 4.12011,-7.68449c2.64685,-0.16239 5.09358,3.01478 5.46495,7.09643c0.37133,4.08164 -1.47331,7.5221 -4.12014,7.68449c-2.64683,0.16242 -5.09357,-3.01477 -5.46493,-7.09641z" fill="#ffb727" stroke="#000000" stroke-width="1.5"/><path d="M214.98044,245.6816l-1.76101,-3.23445c0,0 1.74495,0.55298 2.34388,1.04651c1.24099,1.05291 1.73129,2.56411 1.73129,2.56411z" fill="#ffd683" stroke="none" stroke-width="0"/><path d="M216.02469,248.88888l-0.41294,-1.46811c0,0 0.91946,-0.16024 1.24795,-0.15881c0.38463,0.00168 1.08407,0.21294 1.08407,0.21294l0.20968,1.78122z" fill="#ffd683" stroke="none" stroke-width="0"/></g><g><path d="M215.22539,249.43717c0.51229,5.63067 -2.45858,8.95223 -7.98857,9.29152c-5.52998,0.33927 -10.45446,-4.23881 -10.96678,-9.86954c-0.51232,-5.63069 3.04106,-9.85846 8.57105,-10.19775c5.52996,-0.33926 9.87198,5.14501 10.3843,10.77574z" fill="#e99b00" stroke="#000000" stroke-width="1.5" stroke-linecap="butt"/><path d="M203.23015,239.15815c2.74366,-0.16836 5.71112,1.01724 7.94696,2.58665c1.59293,1.11813 2.81739,2.90241 2.99847,4.89274c0.37219,4.0911 -1.28465,5.65574 -6.12296,5.95259c-2.4162,0.14823 -5.51488,-1.11011 -7.65869,-2.74116c-2.14902,-1.63502 -3.58148,-2.92615 -3.58148,-2.92615c0,0 1.57938,-7.46781 6.41769,-7.76466z" fill="#ffb727" stroke="none" stroke-width="0" stroke-linecap="butt"/><path d="M204.90342,238.9684c0,0 4.04701,2.54665 4.86756,9.04547c0.82728,6.55207 -2.27429,9.7456 -2.27429,9.7456" fill="none" stroke="#000000" stroke-width="0.8" stroke-linecap="round"/><path d="M209.40381,239.87317c0,0 2.46598,3.68779 3.4531,7.77697c1.42258,5.89302 -0.27515,8.33531 -0.27515,8.33531" fill="none" stroke="#000000" stroke-width="0.75" stroke-linecap="round"/><path d="M200.70109,240.12592c0,0 3.49488,2.75874 4.67566,9.2287c1.13572,6.22294 -0.60165,8.23441 -0.60165,8.23441" fill="none" stroke="#000000" stroke-width="0.8" stroke-linecap="round"/><path d="M203.50687,257.61063c0,0 -2.51441,-3.73755 -3.61762,-6.84506c-1.45312,-4.09309 -1.8008,-8.39875 -1.8008,-8.39875" fill="none" stroke="#000000" stroke-width="0.8" stroke-linecap="round"/><path d="M214.67153,251.63985c0,0 -2.86257,2.46501 -8.668,3.06222c-5.41748,0.5573 -8.08244,-2.03456 -8.08244,-2.03456" fill="none" stroke="#000000" stroke-width="0.8" stroke-linecap="round"/><path d="M197.45823,250.6153c0,0 2.77879,0.01709 5.76598,-0.43942c2.62696,-0.40147 5.39341,-1.26975 6.87253,-1.44666c1.75679,-0.21011 4.73434,-0.19192 4.73434,-0.19192" fill="none" stroke="#000000" stroke-width="0.8" stroke-linecap="round"/><path d="M196.72995,248.07334c0,0 4.02104,-3.17879 7.80682,-3.52048c5.9419,-0.5363 9.95043,1.41887 9.95043,1.41887" fill="none" stroke="#000000" stroke-width="0.8" stroke-linecap="round"/><path d="M196.87422,244.80305c0,0 2.82486,-2.45953 6.52529,-3.32437c5.32876,-1.24541 8.35879,-0.00677 8.35879,-0.00677" fill="none" stroke="#000000" stroke-width="0.8" stroke-linecap="round"/><path d="M203.82235,240.44052c0.03654,0.40148 -0.30269,0.74962 -0.75765,0.77751c-0.45497,0.02793 -0.85341,-0.27493 -0.88993,-0.67641c-0.03652,-0.4015 0.30268,-0.74962 0.75764,-0.77751c0.45497,-0.02795 0.85343,0.27491 0.88995,0.67639z" fill="#ffd683" stroke="none" stroke-width="0" stroke-linecap="butt"/><path d="M200.44693,241.8847c-0.22747,0.01395 -0.42897,-0.16251 -0.45004,-0.39413c-0.02107,-0.23162 0.14626,-0.43071 0.37374,-0.44466c0.22748,-0.01394 0.42897,0.16251 0.45004,0.39413c0.02108,0.23162 -0.14626,0.43071 -0.37374,0.44466z" fill="#ffd683" stroke="none" stroke-width="0" stroke-linecap="butt"/></g></g><g data-paper-data="{&quot;index&quot;:null}"><g data-paper-data="{&quot;origRot&quot;:0,&quot;index&quot;:null}" stroke="#000000" stroke-width="3" stroke-linecap="round"><path d="M354.63221,184.99485c-0.15235,2.0271 -7.34536,0.32724 -7.34536,0.32724c0,0 -14.15246,-2.86574 -23.21076,-4.69995c-5.94806,-1.20443 -15.24115,-3.08616 -15.24115,-3.08616c0,0 -5.84146,-1.44951 -5.67129,-2.53799c1.02389,-6.54855 0.70221,-13.08514 2.38363,-16.12327c0.56047,-1.01272 6.3717,-1.0636 6.3717,-1.0636l30.60769,0.18684c0,0 10.8232,0.24434 15.29854,1.60872c2.48209,0.75669 -3.19301,25.38816 -3.19301,25.38816z" data-paper-data="{&quot;origPos&quot;:null}" fill="#582600"/><path d="M347.18779,184.11533l2.95588,-24.75991" fill="none"/><path d="M346.51867,159.17601l-2.71608,24.78758" data-paper-data="{&quot;origPos&quot;:null}" fill="none"/></g><path d="M342.90016,183.86215l-38.4922,-8.3525l1.82688,-15.7148l0.84321,-1.19159l38.7821,0.22966z" fill="#ffcb66" stroke="#000000" stroke-width="1" stroke-linecap="round"/><path d="M347.0431,184.64376l-2.3552,-0.26414l2.93831,-25.3366l2.3552,0.26414z" fill="#ffffff" stroke="none" stroke-width="0" stroke-linecap="butt"/></g><g data-paper-data="{&quot;origRot&quot;:0}" stroke="#000000" stroke-linecap="round"><path d="M295.55725,221.23016c0,0 -2.40811,-4.17597 -1.02048,-4.89673c4.09473,-2.12681 7.23912,-5.67611 11.83322,-6.24801c1.90771,-0.23749 4.5884,3.14532 4.5884,3.14532l19.8169,26.76472c0,0 2.08289,2.73742 3.22323,4.35172c1.21924,1.72596 1.80971,4.98426 -0.02068,6.06898c-6.72054,3.98277 -10.16094,7.68149 -14.99155,9.11015c-1.75987,0.52047 -3.66232,0.95922 -5.10816,-0.1563c-1.88868,-1.45717 -3.43752,-5.67213 -3.43752,-5.67213z" data-paper-data="{&quot;origPos&quot;:null}" fill="#ff0000" stroke-width="3"/><path d="M335.6817,247.26266c0,0 -3.95753,5.1958 -8.46768,7.68709c-3.46036,1.9114 -11.46515,5.15865 -11.46515,5.15865c0,0 -2.49792,-1.61094 -3.37376,-2.96249c-0.92265,-1.42378 -1.23468,-4.14894 -1.23468,-4.14894l20.26971,-12.111z" data-paper-data="{&quot;origPos&quot;:null}" fill="#976e57" stroke-width="2"/><path d="M295.78922,221.47002c0,0 -2.40811,-4.17597 -1.02047,-4.89672c4.09472,-2.12681 7.23912,-5.67611 11.83325,-6.24801c1.90771,-0.23749 4.5884,3.14531 4.5884,3.14531l19.8169,26.76472c0,0 2.08291,2.73741 3.22325,4.35169c1.21924,1.72596 1.80969,4.98425 -0.02068,6.06898c-6.72054,3.98277 -10.16094,7.6815 -14.99155,9.11016c-1.75987,0.52047 -3.66233,0.95922 -5.10815,-0.15631c-1.88868,-1.45717 -3.43753,-5.67213 -3.43753,-5.67213z" data-paper-data="{&quot;origPos&quot;:null}" fill="#474747" stroke-width="3"/></g><g data-paper-data="{&quot;index&quot;:null,&quot;origRot&quot;:0}" stroke="#000000" stroke-linecap="round"><path d="M284.58742,252.32865c0,0 0.09116,4.48083 -1.14052,6.50712c-0.94291,1.55122 -2.87881,1.81252 -4.71144,1.94729c-5.0303,0.36988 -9.59063,-1.86963 -17.31655,-3.21753c-2.10419,-0.36711 -2.74118,-3.6169 -2.23241,-5.65804c0.47585,-1.90906 1.42198,-5.19893 1.42198,-5.19893l8.73896,-31.97299c0,0 1.26884,-4.10315 3.13625,-4.55419c4.49711,-1.08622 8.72663,1.11813 13.32457,1.65952c1.55817,0.18347 0.83303,4.9309 0.83303,4.9309z" data-paper-data="{&quot;origPos&quot;:null}" fill="#ff0000" stroke-width="3"/><path d="M260.34076,247.76378l23.3379,4.15744c0,0 0.70247,2.65396 0.36037,4.3084c-0.32473,1.57053 -2.0691,3.9552 -2.0691,3.9552c0,0 -8.65654,-0.20842 -12.58375,-0.7724c-5.11864,-0.7351 -10.70763,-4.18972 -10.70763,-4.18972z" data-paper-data="{&quot;origPos&quot;:null}" fill="#976e57" stroke-width="2.5"/><path d="M284.45841,252.63438c0,0 0.09116,4.48083 -1.14052,6.50712c-0.94291,1.55122 -2.87881,1.81253 -4.71144,1.94729c-5.0303,0.36988 -9.59062,-1.86961 -17.31655,-3.21752c-2.10419,-0.36711 -2.74118,-3.61691 -2.23241,-5.65804c0.47585,-1.90906 1.42198,-5.19893 1.42198,-5.19893l8.73896,-31.97299c0,0 1.26883,-4.10315 3.13625,-4.55419c4.49711,-1.08622 8.72665,1.11814 13.32458,1.65952c1.55817,0.18347 0.83302,4.9309 0.83302,4.9309c0,0 -0.51934,8.99083 -0.85174,14.74544c-0.46916,8.12193 -1.20216,20.81143 -1.20216,20.81143z" data-paper-data="{&quot;origPos&quot;:null}" fill="#474747" stroke-width="1.5"/></g><g><g><path d="M270.47066,171.07809c0,0 2.72239,-14.29096 4.942,-14.72749c6.65881,-1.30963 21.63741,0.37823 31.6811,0.88519c1.55265,0.07837 2.188,13.66166 2.188,13.66166l0.21187,30.67922c0,0 -0.53262,14.95077 -2.2264,14.86527c-15.07782,-0.76106 -32.79447,-0.80157 -39.47115,-1.98061c-2.22555,-0.393 -0.56326,-16.08761 -0.56326,-16.08761z" data-paper-data="{&quot;origPos&quot;:null}" fill="#ffcb66" stroke="#000000" stroke-width="3.5" stroke-linecap="round"/><path d="M289.18116,180.2321c-1.31175,-0.06621 -1.18209,-2.55044 -1.18209,-2.55044c0.26893,-5.15248 0.6243,-11.96109 0.89323,-17.11357c0,0 0.12966,-2.48423 1.44142,-2.41802c1.31175,0.06621 1.18209,2.55044 1.18209,2.55044c-0.26893,5.15248 -0.53786,10.30494 -0.80679,15.45742l-0.08645,1.65615c0,0 -0.12966,2.48423 -1.44142,2.41802z" fill="#ffffff" stroke="none" stroke-width="0.5" stroke-linecap="butt"/><path d="M301.03762,187.17223c-1.31175,-0.06621 -1.14886,-3.1871 -1.14886,-3.1871c0.33785,-6.47296 0.78429,-15.02651 1.12214,-21.49947c0,0 0.16289,-3.12089 1.47465,-3.05468c1.31175,0.06621 1.14886,3.1871 1.14886,3.1871c-0.33785,6.47296 -0.6757,12.94592 -1.01355,19.41889l-0.10859,2.08059c0,0 -0.16289,3.12089 -1.47465,3.05468z" fill="#ffffff" stroke="none" stroke-width="0.5" stroke-linecap="butt"/></g><g stroke="#000000" stroke-width="0.5" stroke-linecap="butt"><path d="M303.33965,197.27608c-0.35225,6.74885 -5.32456,11.98331 -11.10595,11.69149c-5.7814,-0.29182 -10.18259,-5.99941 -9.83034,-12.74826c0.35225,-6.74885 5.32456,-11.98331 11.10595,-11.69149c5.7814,0.29182 10.18259,5.99941 9.83034,12.74826z" fill="#ffa924"/><path d="M296.56795,185.63165c-0.00016,0.01122 -0.00053,0.02264 -0.00114,0.03428c-0.03256,0.6239 -0.667,0.59188 -0.667,0.59188l-0.12689,-0.0064c-0.46355,-0.0234 -2.57813,-0.1022 -2.88781,-0.25331c-0.25851,-0.12616 -0.17858,-0.55282 -0.35771,-0.77533c-0.17209,-0.21377 -0.42554,-0.35337 -0.66355,-0.49321c-0.37848,-0.22238 -0.91002,-0.24596 -1.17908,-0.58943c-0.24855,-0.3173 -0.2556,-0.78572 -0.20986,-1.18371c0.21482,-1.86911 1.38581,-1.82924 2.88831,-1.5839c0.45068,0.12175 0.91856,0.19342 1.35207,0.36524c0.19071,0.07558 0.29467,0.30935 0.49214,0.3657c0.14036,0.04006 0.28084,-0.08375 0.42556,-0.10382c0.00617,-0.00086 1.78929,-0.16013 1.80698,-0.16171c1.20545,-0.10668 2.4878,-0.09083 3.69104,0.05627c0.76671,0.09373 2.49577,0.36897 2.90004,1.1497c0.57571,1.11185 -1.29956,1.74987 -1.76903,1.91152c-1.38934,0.47837 -2.5331,0.07969 -3.92728,0.1685c-0.47491,0.03025 -1.25064,0.31751 -1.76678,0.50774z" fill="#1cc735"/></g></g><path d="M305.38604,160.29908c-12.28117,-0.48707 -24.18906,-0.99547 -29.00298,-2.23973c-4.39962,-1.13717 -5.59805,-3.96085 -5.59805,-3.96085c0,0 -1.65923,-2.51964 -1.66802,-4.05462c-0.02633,-4.60495 0.52509,-17.74414 2.06665,-29.01963c0.05144,-0.37632 0.09422,-0.58597 0.16837,-0.95861c0.22244,-1.11791 1.27885,-5.44751 1.27885,-5.44751c0,0 3.32483,-1.49601 5.10894,-1.88118c5.35228,-1.15549 18.6944,1.00177 32.80407,2.12313c1.27887,0.10165 3.38769,1.89038 3.38769,1.89038c0,0 1.40315,3.21172 1.25164,5.18965c-0.97941,12.78761 -2.11092,26.93266 -2.58505,30.15579c-0.15802,1.07438 -2.24053,5.16533 -2.24053,5.16533z" fill="#582600" stroke="#000000" stroke-width="2.5" stroke-linecap="round"/><path d="M307.21926,139.90685c0.26312,-3.43522 0.89593,-6.18896 1.41344,-6.15063c0.51751,0.03831 0.72376,2.85421 0.46066,6.28943c-0.26312,3.43522 -0.89593,6.18897 -1.41344,6.15064c-0.51751,-0.03831 -0.72376,-2.85421 -0.46066,-6.28944z" fill="none" stroke="#000000" stroke-width="2.5" stroke-linecap="butt"/><path d="M300.57094,140.11389c0.26797,-3.49886 0.79988,-6.31193 1.18801,-6.28318c0.38812,0.02875 0.48555,2.88844 0.21757,6.38729c-0.26797,3.49886 -0.79985,6.31191 -1.188,6.28317c-0.38812,-0.02875 -0.48556,-2.88842 -0.21758,-6.38727z" fill="none" stroke="#000000" stroke-width="2.5" stroke-linecap="butt"/><path d="M271.40699,114.10024l1.0316,-12.96036l44.40377,3.41798l-1.0316,12.96036z" fill="#000000" stroke="none" stroke-width="0" stroke-linecap="butt"/><path d="M295.807,129.36461c0.10957,-1.37651 1.33311,-2.40503 2.73285,-2.2973c0.28741,0.02211 0.55989,0.09044 0.81052,0.19694c1.47005,-0.16207 8.96226,5.40548 6.61325,7.89771c-1.75282,1.85968 -6.94916,-1.68356 -8.72458,-3.07847c-0.489,-0.38419 -2.03317,-2.11561 -1.43203,-2.7189z" data-paper-data="{&quot;index&quot;:null}" fill="#582600" stroke="none" stroke-width="0.5" stroke-linecap="butt"/><path d="M311.7096,133.5986c-1.45742,1.14606 -5.64945,3.96664 -6.64678,1.89527c-1.33657,-2.77593 4.77018,-7.2967 5.79727,-6.94242c0.1934,-0.07233 0.3972,-0.10398 0.60535,-0.08795c1.01372,0.07804 1.74667,1.25717 1.63711,2.63365c0.34675,0.67627 -0.99152,2.18579 -1.39293,2.50144z" data-paper-data="{&quot;index&quot;:null}" fill="#582600" stroke="none" stroke-width="0.5" stroke-linecap="butt"/><g data-paper-data="{&quot;index&quot;:null}" stroke="#000000" stroke-width="1" stroke-linecap="butt"><g data-paper-data="{&quot;index&quot;:null}" fill="#000000"><path d="M289.84989,147.83674c7.26556,0.47711 4.59983,3.33491 4.59983,3.33491l-9.68955,-0.66964c0,0 -2.65032,-3.10252 5.0897,-2.66524z"/></g><g data-paper-data="{&quot;index&quot;:null}" fill="#ffffff"><path d="M289.8499,147.83674c1.48618,0.09761 2.55682,0.2948 3.3197,0.54677c0.01366,0.00452 -0.5708,0.59132 -0.62152,1.18887c-0.06195,0.72958 0.40551,1.49585 0.40328,1.49572c-1.63589,-0.11306 -8.19118,-0.56611 -8.19118,-0.56611c0,0 -2.65032,-3.10252 5.0897,-2.66524z"/></g></g><g data-paper-data="{&quot;index&quot;:null}"><path d="M272.5915,155.88586c2.34651,-2.23975 5.90707,11.54653 7.23342,13.44518c1.44158,2.06353 -19.8338,1.59193 -19.8338,1.59193l-3.60527,-0.12995l23.86648,0.43184c0,0 8.25031,-0.2596 7.95117,1.98928c0,0 3.689,10.53145 -2.3428,28.45113c-5.15988,0.82773 -17.08638,-1.64058 -17.08638,-1.64058c0,0 -26.74002,-4.27442 -28.65087,-8.60011c-0.44248,-1.00168 -2.79276,-13.88066 -0.42627,-17.32552c7.85313,-11.43161 32.89428,-18.21323 32.89428,-18.21323z" fill="#582700" stroke="#000000" stroke-width="2.5" stroke-linecap="round"/><path d="M261.70396,171.64616c-0.5137,-0.03993 -1.02767,-0.08693 -1.54301,-0.13232c-0.11373,-0.01002 -1.38919,-0.24692 -1.98845,-0.12073c-0.74315,6.8612 -0.39323,13.75838 -1.50837,20.61166c-0.05657,0.61101 -0.04542,1.91234 -0.20484,3.1594c0.05624,0.37623 0.14708,0.66646 0.29257,0.76825c1.23705,0.86563 3.16413,0.98986 4.56017,1.61231c-0.08248,-0.3747 -0.30547,-1.46172 -0.31132,-1.92022c-0.01735,-1.36162 -0.03866,-2.70736 -0.09808,-4.0671c-0.20829,-4.76647 0.1124,-9.95151 0.47667,-14.68381c-0.06105,-1.69743 0.02721,-3.50437 0.32465,-5.22745zM263.23247,171.73563c-0.30921,1.69679 -0.38834,3.49756 -0.32817,5.1698c-0.43711,5.35035 -0.51384,10.96809 -0.37198,16.36377c0.05846,2.2232 1.00182,5.5667 -1.62344,5.72297c-1.49378,-0.64487 -3.61012,-0.85854 -4.97167,-1.80375c-0.20722,0.42137 -0.48101,0.73636 -0.8447,0.87208c-0.51193,0.19105 -2.52426,-0.69895 -3.10714,-0.85328c-3.47747,-0.92067 -7.82771,-1.39089 -9.76997,-4.77393c-4.48666,-4.38476 -4.9827,-13.50112 -3.35356,-19.13968c2.68754,-3.53179 5.81083,-5.04876 9.79918,-6.82921c2.8797,-1.28554 5.35051,-3.01661 8.41918,-3.98539c4.07541,-1.9222 8.19926,-3.71572 12.27588,-5.63193c1.87101,-0.87945 3.36782,-2.35666 5.23189,-0.99762c1.38205,3.3341 2.77762,6.70524 4.08679,10.08407c0.40809,1.05326 1.16454,3.2185 0.6695,4.33353c-0.68799,1.54958 -2.57231,1.26039 -3.96747,1.15417c-3.08701,0.18426 -6.47865,0.22532 -9.81791,0.01849c-0.2098,0.26088 -0.57422,0.28191 -0.57422,0.28191c-0.58619,0.03321 -1.16971,0.03366 -1.75219,0.01399zM254.95173,193.52805c-0.28169,-4.05753 0.6673,-7.96794 0.50988,-11.97641c-0.14098,-2.3604 -0.74067,-6.53951 0.27268,-9.32068c-0.01061,-0.15525 0.02221,-0.27504 0.02221,-0.27504l0.20659,-0.74181c0.06845,-0.75079 0.39164,-1.4789 0.78625,-2.12516c6.04425,-0.75041 12.45856,1.17803 18.64207,0.83236c0.70037,0.05404 1.6932,0.19368 2.37442,0.04354c0.41898,-0.09235 -0.17224,-2.55039 -0.25916,-2.84356c-1.05831,-3.5695 -2.95967,-6.87601 -4.15972,-10.39971c-0.20214,-0.32628 -2.76759,1.21358 -3.33571,1.48009c-4.1079,1.92708 -8.25542,3.74804 -12.36762,5.67127c-3.05133,0.96679 -5.49467,2.67393 -8.35751,3.95972c-3.64381,1.63655 -6.54117,2.95804 -9.05565,6.12324c-1.31831,5.23761 -0.94949,13.51357 3.19426,17.5632c1.94752,3.27444 7.71431,4.24481 11.13829,5.13469c0.0363,0.00943 0.23587,-1.67779 0.39263,-3.0633c-0.00118,-0.02118 -0.00247,-0.04201 -0.00388,-0.06244z" fill="#000000" stroke="none" stroke-width="0.5" stroke-linecap="butt"/><path d="M261.39229,176.82529c-0.36425,4.7323 -0.68688,10.01448 -0.47858,14.78095c0.05943,1.35975 0.07719,2.70612 0.09453,4.06775c0.00584,0.45849 0.22891,1.5455 0.31139,1.9202c-1.39606,-0.62245 -3.34174,-0.74731 -4.57879,-1.61292c-0.14548,-0.10181 -0.23834,-0.39252 -0.29458,-0.76875c0.15941,-1.24706 0.1445,-2.54953 0.20105,-3.16053c1.11513,-6.8533 0.77767,-13.84748 1.52082,-20.70868c0.59925,-0.12618 1.88228,0.11062 1.996,0.12064c0.51534,0.04539 1.03519,0.09309 1.54888,0.13303c-0.29744,1.72308 -0.38182,3.53086 -0.32076,5.2283z" data-paper-data="{&quot;noHover&quot;:false,&quot;origItem&quot;:[&quot;Path&quot;,{&quot;applyMatrix&quot;:true,&quot;segments&quot;:[[[926.17844,407.1979],[3.2606,1.25965],[-0.27949,0.97418]],[[925.31465,410.11917],[0.29084,-0.97519],[-0.06418,0.21521]],[[924.29914,413.90358],[-0.01258,-1.20526],[13.15638,4.16543]],[[964.1057,425.02121],[-12.99513,-4.87922],[1.17537,0.35239]],[[970.21765,426.67451],[-2.3817,-0.804],[0.75941,0.04146]],[[971.83798,426.41666],[-0.25651,0.23985],[2.18115,-2.03947]],[[976.78433,418.26967],[-1.76682,2.44279],[-0.76669,0.00973]],[[972.89889,418.10481],[0.90089,0.17138],[-2.67549,-0.50896]],[[964.88923,416.67374],[2.68829,0.42712],[-9.42353,-1.49721]],[[936.29671,409.90591],[9.13228,2.58714],[-3.35077,-0.55846]]],&quot;closed&quot;:true}]}" fill="#ffffff" stroke="none" stroke-width="0.5" stroke-linecap="butt"/><path d="M255.16414,191.77018c-0.02101,0.22615 -0.5528,4.94787 -0.61285,4.93226c-3.42399,-0.88989 -9.21688,-1.87548 -11.16437,-5.14991c-4.14375,-4.04963 -4.52468,-12.36869 -3.20636,-17.60629c2.51449,-3.1652 5.42596,-4.51256 9.06977,-6.14911c2.86285,-1.28578 5.33657,-3.00713 8.38788,-3.97391c4.11218,-1.92322 8.28966,-3.73825 12.39756,-5.66534c0.5681,-0.26651 3.13731,-1.80413 3.33943,-1.47785c1.20007,3.52368 3.11709,6.84664 4.17541,10.41615c0.08691,0.29318 0.68109,2.75707 0.26212,2.8494c-0.68123,0.15014 -1.76681,0.05146 -2.46716,-0.0026c-6.18351,0.34567 -12.53851,-1.55625 -18.58275,-0.80584c-0.39459,0.64626 -0.709,1.37108 -0.77744,2.12189l-0.20311,0.73998c0,0 -0.24999,0.63802 0.48642,0.8331c0.07372,0.01954 0.19247,0.1167 0.25574,0.11945c-0.5261,6.3007 -0.34253,12.53172 -1.36028,18.81861z" data-paper-data="{&quot;noHover&quot;:false,&quot;origItem&quot;:[&quot;Path&quot;,{&quot;applyMatrix&quot;:true,&quot;segments&quot;:[[[926.61254,417.73069],[12.14285,3.5238],[-0.03018,0.12086]],[[926.46822,418.11346],[0.06716,-0.13431],[-0.67082,1.34164]],[924.45576,418.78428],[[923.08279,418.0906],[0,0],[-1.44471,-0.43097]],[[919.22563,415.72869],[1.11205,1.01797],[0.89694,-11.9485]],[[928.15956,380.1298],[-1.74473,12.05571],[0.38029,-1.32836]],[[929.175,375.57071],[0.02742,1.37277],[-0.01686,-0.84429]],[[923.5003,374.93752],[0.60865,-0.05075],[-7.41054,0.61792]],[[901.48814,378.8123],[7.37628,-0.90935],[-0.71866,0.25961]],[[903.08234,385.83106],[-0.2998,-1.20115],[2.16779,8.68513]],[[909.35292,411.92731],[-2.15853,-8.69186],[0.69956,6.26621]],[[913.83986,429.61277],[-1.39861,-6.02998],[1.78014,7.67491]],[[922.29365,449.50563],[-5.21858,-6.1072],[9.74892,4.62723]],[[957.96755,450.34516],[-9.56021,6.37347],[7.18055,-2.44927]],[[972.39433,430.92276],[-3.08539,6.24485],[0.05411,-0.10951]],[[963.14745,427.86406],[0.43501,0.13058],[-11.92317,-4.46591]]],&quot;closed&quot;:true}]}" fill="#ffcb66" stroke="none" stroke-width="0.5" stroke-linecap="butt"/></g></g></g></svg>