<svg version="1.1" xmlns="http://www.w3.org/2000/svg" xmlns:xlink="http://www.w3.org/1999/xlink" width="137.73674" height="137.15604" viewBox="0,0,137.73674,137.15604"><g transform="translate(-171.11322,-111.2606)"><g data-paper-data="{&quot;isPaintingLayer&quot;:true}" fill-rule="nonzero" stroke-linecap="round" stroke-linejoin="miter" stroke-miterlimit="10" stroke-dasharray="" stroke-dashoffset="0" style="mix-blend-mode: normal"><path d="M216.28949,181.15377c0,0 -8.97295,-58.13239 0.39534,-65.34216c6.43943,-4.95571 49.99468,0.62682 49.99468,0.62682l2.65162,69.44647" data-paper-data="{&quot;index&quot;:null}" fill="#ffcde0" stroke="#561b25" stroke-width="1.5"/><path d="M256.52095,166.26555c0,0 11.70459,-8.34839 23.82022,-17.67849c0.73071,-0.56274 7.3648,4.24958 10.81733,8.14224c4.70768,5.30779 14.84968,20.79669 14.84968,20.79669c0,0 -30.65473,68.16383 -67.90665,68.39066c-29.98742,0.18259 -64.1321,-64.9462 -64.1321,-64.9462c0,0 9.32064,-15.99662 13.74518,-21.54264c3.24489,-4.06737 9.61903,-9.21901 10.3781,-8.69516c12.5856,8.6857 20.57092,14.91132 20.57092,14.91132" data-paper-data="{&quot;index&quot;:null}" fill="#ffcde0" stroke="#561b25" stroke-width="1.5"/><path d="M216.28949,181.15377c0,0 -8.97295,-58.13239 0.39534,-65.34216c6.43943,-4.95571 49.99468,0.62682 49.99468,0.62682l2.65162,69.44647" data-paper-data="{&quot;index&quot;:null}" fill="#39acfa" stroke="#256fa0" stroke-width="5"/><path d="M256.52095,166.26555c0,0 11.70459,-8.34839 23.82022,-17.67849c0.73071,-0.56274 7.3648,4.24958 10.81733,8.14224c4.70768,5.30779 14.84968,20.79669 14.84968,20.79669c0,0 -30.65473,68.16383 -67.90665,68.39066c-29.98742,0.18259 -64.1321,-64.9462 -64.1321,-64.9462c0,0 9.32064,-15.99662 13.74518,-21.54264c3.24489,-4.06737 9.61903,-9.21901 10.3781,-8.69516c12.5856,8.6857 20.57092,14.91132 20.57092,14.91132" data-paper-data="{&quot;index&quot;:null}" fill="#39acfa" stroke="#256fa0" stroke-width="5"/></g></g></svg>