<svg version="1.1" xmlns="http://www.w3.org/2000/svg" xmlns:xlink="http://www.w3.org/1999/xlink" width="234" height="234" viewBox="0,0,234,234"><g transform="translate(-123,-63)"><g data-paper-data="{&quot;isPaintingLayer&quot;:true}" fill-rule="nonzero" stroke-linejoin="miter" stroke-miterlimit="10" stroke-dasharray="" stroke-dashoffset="0" style="mix-blend-mode: normal"><path d="M123,297v-234h234v234z" data-paper-data="{&quot;index&quot;:null}" fill="none" stroke="none" stroke-width="0" stroke-linecap="butt"/><g><g><g data-paper-data="{&quot;origRot&quot;:0}" stroke="#000000" stroke-width="3" stroke-linecap="round"><path d="M285.33779,190.77853c1.35661,1.96397 -5.90579,6.0028 -5.90579,6.0028c0,0 -18.93338,11.2718 -27.85468,16.63703c-4.05621,1.648 -26.42608,-28.92145 -25.84236,-34.6901c0.26021,-2.57148 6.25965,-10.19575 8.12404,-9.96961c3.54869,0.43041 16.13114,10.37126 16.13114,10.37126l-2.98769,2.69243l8.44221,-6.22207c0,0 9.23392,-8.18349 13.97702,-10.41708c2.63057,-1.23877 15.91611,25.59534 15.91611,25.59534z" data-paper-data="{&quot;origPos&quot;:null}" fill="#582700"/><path d="M277.5385,196.10943l-15.65452,-24.83915" fill="none"/><path d="M258.71981,173.92232l15.87541,24.6781" data-paper-data="{&quot;origPos&quot;:null}" fill="none"/></g><path d="M277.72572,196.72462l-2.15945,1.59555l-16.16142,-25.29902l2.15945,-1.59555z" fill="#ffffff" stroke="none" stroke-width="0" stroke-linecap="butt"/><path d="M251.43649,213.71096l-8.13641,-6.80477l-13.45083,-19.11008l-3.21155,-7.74279l0.77825,-5.06402l5.53344,-4.59898l1.10669,-0.9198l14.63842,9.28864l-2.07134,2.03706l1.13629,1.57974l10.20185,-7.53246l16.63281,24.35335l-22.19294,13.39685z" fill="#66c8ff" stroke="#000000" stroke-width="0.5" stroke-linecap="round"/></g><g fill="#fffc96" stroke="#000000" stroke-width="2" stroke-linecap="round"><path d="M252.39966,176.89462c0,0 1.26792,-4.80453 4.33561,-3.96782c4.90817,1.3387 -6.73187,36.66682 -11.90611,35.6048c-2.11408,-0.43393 -1.73163,-4.06051 -1.73163,-4.06051l1.98543,0.14739c0,0 3.54581,-6.01803 6.43251,-14.18172c2.84668,-8.05057 3.33491,-13.89821 3.33491,-13.89821z"/><path d="M243.29642,177.22849c0,0 -1.91261,-4.00752 0.47106,-4.53427c5.00367,-1.10576 20.16491,36.97064 15.2504,36.80078c-2.97632,-0.10286 -3.55804,-4.11887 -3.55804,-4.11887l1.46041,0.06147c0,0 -1.312,-6.08386 -4.87492,-14.63786c-3.56292,-8.55402 -7.37768,-13.69377 -7.37768,-13.69377z" data-paper-data="{&quot;index&quot;:null}"/></g></g><g stroke="#000000" stroke-linecap="round"><path d="M227.27068,173.6811c0,0 -25.46972,9.14681 -27.45622,-8.70677c-0.73191,-6.57784 14.45244,-6.87263 14.45244,-6.87263z" data-paper-data="{&quot;origPos&quot;:null}" fill="#66c8ff" stroke-width="2"/><path d="M218.56983,163.00355c0,0 -14.92807,-0.04209 -14.80135,-0.67585c0.40186,-2.00941 11.3586,-2.81535 11.3586,-2.81535z" data-paper-data="{&quot;origPos&quot;:null}" fill="#0a0a0a" stroke-width="1"/></g><g data-paper-data="{&quot;origRot&quot;:0}" stroke="#000000" stroke-linecap="round"><path d="M238.32237,226.12313c0,0 -0.40793,-4.78067 1.02634,-4.87546c4.2323,-0.27966 8.21712,-2.24047 12.2698,-0.90097c1.6829,0.55622 2.62243,4.72451 2.62243,4.72451l6.27154,32.41544c0,0 0.68822,3.33806 1.02069,5.27096c0.35548,2.06659 -0.40136,5.27486 -2.34463,5.52199c-7.13504,0.90744 -11.42415,2.88453 -16.00274,2.22995c-1.66806,-0.23847 -3.42373,-0.60917 -4.20238,-2.21129c-1.01715,-2.09278 -0.69312,-6.56097 -0.69312,-6.56097z" data-paper-data="{&quot;origPos&quot;:null}" fill="#ff0000" stroke-width="3"/><path d="M261.81954,266.09605c0,0 -5.29472,3.13187 -10.01342,3.5754c-3.62035,0.34029 -11.54494,0.05735 -11.54494,0.05735c0,0 -1.46652,-2.47964 -1.67903,-4.06597c-0.22388,-1.67111 0.56081,-4.2808 0.56081,-4.2808l21.55767,-2.82677z" data-paper-data="{&quot;origPos&quot;:null}" fill="#976e57" stroke-width="2"/><path d="M238.4239,226.43565c0,0 -0.40793,-4.78067 1.02634,-4.87545c4.23229,-0.27966 8.21712,-2.24047 12.26982,-0.90095c1.6829,0.55622 2.62243,4.72451 2.62243,4.72451l6.27153,32.41544c0,0 0.68823,3.33807 1.02071,5.27095c0.35548,2.06659 -0.40137,5.27486 -2.34463,5.52199c-7.13504,0.90744 -11.42415,2.88454 -16.00274,2.22995c-1.66806,-0.23847 -3.42373,-0.60919 -4.20238,-2.21128c-1.01715,-2.09278 -0.69312,-6.56098 -0.69312,-6.56098z" data-paper-data="{&quot;origPos&quot;:null}" fill="#4b4b4b" stroke-width="3"/></g><path d="M233.91594,262.79374c0,0 -0.07658,4.48097 -1.27593,6.45932c-0.91815,1.51451 -2.69884,1.70264 -4.3805,1.76819c-4.61595,0.17991 -8.70867,-2.22992 -15.72977,-3.86819c-1.91223,-0.44619 -2.37903,-3.71763 -1.84063,-5.73806c0.50357,-1.88972 1.48676,-5.14148 1.48676,-5.14148l9.13784,-31.61991c0,0 1.3075,-4.05228 3.0323,-4.43257c4.15365,-0.91583 7.94497,1.44641 12.13275,2.16079c1.41918,0.24209 0.58614,4.95869 0.58614,4.95869c0,0 -0.79624,8.96463 -1.30588,14.70247c-0.71929,8.09826 -1.8431,20.75078 -1.8431,20.75078z" fill="#4b4b4b" stroke="#000000" stroke-width="3" stroke-linecap="round"/><g><path d="M218.17168,181.72901c0,0 0.24017,-14.53727 2.17645,-15.33149c5.80879,-2.38267 19.59442,-3.17337 28.74123,-4.31963c1.41401,-0.1772 4.09561,13.11197 4.09561,13.11197l4.95232,30.21541c0,0 1.8393,14.82896 0.29676,15.02226c-13.73139,1.72081 -29.73347,4.58456 -35.94461,4.51631c-2.07037,-0.02275 -3.00514,-15.77029 -3.00514,-15.77029z" data-paper-data="{&quot;origPos&quot;:null}" fill="#66c8ff" stroke="#000000" stroke-width="3.5" stroke-linecap="round"/><path d="M236.48538,187.68839c-1.19462,0.14971 -1.46306,-2.32103 -1.46306,-2.32103c-0.55679,-5.12449 -1.29255,-11.89612 -1.84935,-17.02062c0,0 -0.26846,-2.47074 0.92615,-2.62045c1.19462,-0.14971 1.46306,2.32103 1.46306,2.32103c0.55679,5.12449 1.1136,10.24897 1.67038,15.37346l0.17897,1.64716c0,0 0.26846,2.47074 -0.92615,2.62045z" fill="#ffffff" stroke="none" stroke-width="0.5" stroke-linecap="butt"/><path d="M247.30754,185.91269c-1.19462,0.14971 -1.53187,-2.95423 -1.53187,-2.95423c-0.69949,-6.4378 -1.62381,-14.94488 -2.3233,-21.38268c0,0 -0.33726,-3.10394 0.85736,-3.25365c1.19462,-0.14971 1.53187,2.95423 1.53187,2.95423c0.69949,6.4378 1.39898,12.8756 2.09848,19.31341l0.22484,2.06929c0,0 0.33726,3.10394 -0.85736,3.25365z" fill="#ffffff" stroke="none" stroke-width="0.5" stroke-linecap="butt"/></g><path d="M250.91441,161.74819c-10.97765,2.66543 -21.63034,5.21494 -26.188,5.24251c-4.16539,0.02521 -5.90778,-2.39565 -5.90778,-2.39565c0,0 -2.07638,-2.00956 -2.45524,-3.48966c-1.13659,-4.4403 -3.82558,-17.26966 -5.18844,-28.55206c-0.04548,-0.37655 -0.05834,-0.58994 -0.08287,-0.96872c-0.07357,-1.13635 -0.18617,-5.5872 -0.18617,-5.5872c0,0 2.57838,-2.29365 4.06287,-3.12114c4.4535,-2.48248 16.77311,-3.80589 29.521,-6.32565c1.15544,-0.22838 3.45266,0.96056 3.45266,0.96056c0,0 2.01724,2.7433 2.36147,4.69207c2.22552,12.59912 4.64473,26.54798 5.00472,29.78162c0.12001,1.07789 -0.73244,5.56027 -0.73244,5.56027z" fill="#582700" stroke="#000000" stroke-width="2.5" stroke-linecap="round"/><path d="M207.16321,127.68822c-0.81236,-0.89517 0.02116,-1.76762 0.02116,-1.76762l1.03989,-1.03116c0.10046,-0.06105 0.20096,-0.12135 0.30159,-0.18087c-2.08329,-5.42975 -2.46086,-12.4915 -3.62995,-18.07043c-0.30318,-1.44682 -1.44663,-5.2907 -1.04869,-6.68646c0.66635,-2.33724 2.34126,-2.12343 4.06473,-2.5347c2.93246,-0.69977 5.84922,-1.35547 8.65514,-2.50891c6.95739,-2.84999 14.03816,-4.80105 21.1281,-7.18393c2.23728,-0.75194 4.44657,-1.37145 6.78257,-1.70681c0.63918,-0.09177 1.39149,-0.52823 1.92976,-0.14683c1.90635,1.3508 1.63417,3.42175 1.7395,5.40633c0.21012,3.95863 -0.5503,7.75378 0.14557,11.69325c0.51361,3.01768 0.71551,6.19136 0.97053,9.24464c0.088,1.05367 0.78831,2.877 -0.01822,3.87558c-1.65375,2.04755 -7.03288,2.08624 -9.35812,2.55237c-7.09013,1.42134 -14.21343,2.68701 -21.21733,4.54007c-2.48479,0.755 -4.83743,1.55419 -7.1287,2.68875c0.05092,0.36951 -0.01441,0.87439 -0.59563,1.22051c-0.63059,0.37552 -1.08715,0.09886 -1.34328,-0.16604c-0.07663,0.04567 -0.15321,0.09184 -0.22974,0.1385l-0.56296,0.64652c0,0 -0.83352,0.87244 -1.64589,-0.02273z" fill="#000000" stroke="none" stroke-width="0.5" stroke-linecap="butt"/><g fill="none" stroke="#b9b9b9" stroke-width="3"><path d="M247.62081,167.3306c-0.91191,-1.25302 -0.19875,-2.57025 0.80086,-3.92181c0.99962,-1.35154 2.09466,-1.86323 2.81908,-0.97262c1.53593,1.88836 0.26378,3.02993 -0.51895,4.08823c-0.99963,1.35157 -1.81313,2.57582 -3.10099,0.80622z" stroke-linecap="butt"/><path d="M248.46737,166.62976l-2.12346,2.80265" stroke-linecap="round"/><path d="M243.13181,170.46854c0.99962,-1.35154 2.09466,-1.86323 2.81908,-0.97262c1.53593,1.88836 0.26378,3.02993 -0.51895,4.08823c-0.99962,1.35155 -1.81313,2.57582 -3.10098,0.80621c-0.91191,-1.25302 -0.19877,-2.57025 0.80085,-3.92182z" stroke-linecap="butt"/><path d="M243.17748,173.68951l-2.12346,2.80267" stroke-linecap="round"/><path d="M235.80538,176.69458c0.1941,-1.67049 1.44829,-1.67201 2.90342,-1.39243c1.45514,0.27959 2.45616,1.13751 2.36609,2.40488c-0.19098,2.68715 -1.68877,2.00196 -2.82817,1.78305c-1.45514,-0.27958 -2.71544,-0.4363 -2.44132,-2.79548z" stroke-linecap="butt"/><path d="M233.71686,176.55115l3.04922,0.63288" stroke-linecap="round"/><path d="M228.67441,173.18279c0.68379,-1.41135 1.85527,-0.7657 3.12981,0.23792c1.27454,1.00361 1.95109,2.29628 1.48573,3.39652c-0.98673,2.33282 -2.17907,0.94019 -3.17708,0.15432c-1.27454,-1.00362 -2.40413,-1.79559 -1.43844,-3.78875z" stroke-linecap="butt"/><path d="M229.42416,174.12122l-2.65662,-2.14561" stroke-linecap="round"/><path d="M221.9984,167.85324c0.6838,-1.41133 1.85527,-0.7657 3.12981,0.23792c1.27454,1.00361 1.95109,2.29628 1.48573,3.39652c-0.98672,2.33281 -2.17907,0.94019 -3.17708,0.15432c-1.27454,-1.00361 -2.40411,-1.79558 -1.43843,-3.78876z" stroke-linecap="butt"/><path d="M222.74818,168.79165l-2.65663,-2.14561" stroke-linecap="round"/></g><g><g stroke="#000000" stroke-width="3" stroke-linecap="round"><path d="M200.30517,201.02682l9.2615,-28.40915c0,0 1.83412,-5.36476 2.89478,-5.54325c3.18194,-0.53548 8.81482,1.96066 14.87257,3.2147c1.00692,0.20844 0.47916,6.10578 0.47916,6.10578c0,0 -1.21161,9.23933 -1.98709,15.15296c-1.181,9.00588 -3.02613,23.07648 -3.02613,23.07648c0,0 -0.72442,7.23322 -2.54889,6.69263c0,0 -9.12335,1.91087 -23.24621,-5.58088c-0.09684,-4.60648 3.30034,-14.70926 3.30034,-14.70926z" data-paper-data="{&quot;origPos&quot;:null}" fill="#582700"/><path d="M199.99789,203.10283l23.25934,6.06171l-0.70337,3.31709l-23.27651,-5.80374z" data-paper-data="{&quot;origPos&quot;:null}" fill="none"/></g><path d="M200.75551,202.81986l11.51472,-35.31382l14.31395,3.70352l1.01561,0.94658l-4.05119,36.60993z" fill="#66c8ff" stroke="#000000" stroke-width="1" stroke-linecap="round"/><path d="M199.55694,206.25834l0.49348,-2.27005l23.12297,5.79755l-0.49346,2.27006z" fill="#ffffff" stroke="none" stroke-width="0" stroke-linecap="butt"/></g><g data-paper-data="{&quot;index&quot;:null}" fill="#ffffff" stroke-linecap="butt"><path d="M249.21642,142.68438c-1.27443,2.00396 -3.23944,2.99768 -5.21458,2.36121c-2.93478,-0.9457 -4.78058,-5.13235 -4.12271,-9.35117c0.65787,-4.2188 3.57028,-6.87219 6.50507,-5.92648c2.93478,0.9457 4.78058,5.13237 4.12271,9.35117c-0.21512,1.3795 -0.67129,2.59162 -1.29048,3.56527z" data-paper-data="{&quot;index&quot;:null}" stroke="#000000" stroke-width="2.5"/><path d="M247.85671,141.3548c0.35521,-0.68963 0.97167,-1.05198 1.59162,-0.8522c0.55723,0.17956 0.97706,0.76809 1.14085,1.49646c1.79662,2.35663 -3.99668,5.18255 -4.67261,5.18075c-1.51817,-0.00403 -1.33112,-2.88552 -0.7425,-3.81282c0.3361,-0.5295 1.58419,-1.36607 2.68264,-2.01219z" data-paper-data="{&quot;index&quot;:null}" stroke="none" stroke-width="0.5"/><path d="M249.54679,141.42936c1.82076,0.58672 2.97462,3.12833 2.57721,5.67683c-0.39741,2.54851 -2.19559,4.13885 -4.01635,3.55212c-1.82076,-0.58672 -2.97461,-3.12833 -2.57721,-5.67683c0.3974,-2.5485 2.19559,-4.13885 4.01635,-3.55212z" data-paper-data="{&quot;index&quot;:null}" stroke="#000000" stroke-width="2.5"/></g><g data-paper-data="{&quot;index&quot;:null}" fill="#ffffff" stroke-linecap="butt"><path d="M227.22119,141.17208c-0.65787,-4.2188 1.18793,-8.40546 4.12271,-9.35117c2.93478,-0.9457 5.8472,1.70768 6.50507,5.92649c0.65787,4.21882 -1.18793,8.40546 -4.12271,9.35116c-1.97514,0.63647 -3.94015,-0.35725 -5.21458,-2.36121c-0.61919,-0.97366 -1.07537,-2.18577 -1.29049,-3.56527z" data-paper-data="{&quot;index&quot;:null}" stroke="#000000" stroke-width="2.5"/><path d="M232.55403,145.41996c0.58862,0.9273 0.77567,3.8088 -0.7425,3.81283c-0.67593,0.00179 -6.46922,-2.82413 -4.6726,-5.18076c0.16379,-0.72837 0.58361,-1.3169 1.14084,-1.49647c0.61996,-0.19977 1.23642,0.16258 1.59163,0.85221c1.09845,0.64612 2.34654,1.48268 2.68264,2.01218z" data-paper-data="{&quot;index&quot;:null}" stroke="none" stroke-width="0.5"/><path d="M232.19766,147.03447c0.3974,2.5485 -0.75645,5.0901 -2.57721,5.67683c-1.82076,0.58672 -3.61894,-1.00361 -4.01635,-3.55212c-0.3974,-2.5485 0.75645,-5.0901 2.57721,-5.67683c1.82076,-0.58672 3.61894,1.00362 4.01635,3.55212z" data-paper-data="{&quot;index&quot;:null}" stroke="#000000" stroke-width="2.5"/></g><g><g data-paper-data="{&quot;index&quot;:null}"><path d="M266.25854,163.85556c2.03547,-1.09953 4.09806,-6.82381 5.04155,-4.79788c0.48058,1.03196 8.91765,20.06601 8.74709,21.323c-0.16431,1.21071 -0.72647,2.22182 -1.72514,2.76129c-0.67944,0.36701 -1.88855,0.57968 -2.78777,0.38424c-1.79471,-0.39008 -14.6878,-16.86603 -15.31638,-18.21571c-0.9435,-2.02594 4.0052,-0.35541 6.04066,-1.45492z" fill="#0091d4" stroke="#000000" stroke-width="1.5" stroke-linecap="butt"/><g stroke-linecap="butt"><path d="M263.15608,157.14378c3.68778,-1.99209 7.66254,-1.49144 8.87786,1.1182c1.21534,2.60964 -0.78896,6.34008 -4.47674,8.33216c-3.68779,1.99208 -7.66255,1.49145 -8.87788,-1.11819c-1.21534,-2.60964 0.78898,-6.34007 4.47676,-8.33215z" fill="#0091d4" stroke="#000000" stroke-width="1.5"/><path d="M264.12191,166.81022c0,0 -1.54593,0.40214 -3.08327,-0.17271c-0.72942,-0.28585 -2.09626,-1.62705 -2.09626,-1.62705l3.67293,-0.18419z" fill="#00aeff" stroke="none" stroke-width="0"/><path d="M267.30222,165.78907l-1.6337,0.82406c0,0 -0.53897,-0.54357 -0.73724,-0.90827c-0.16932,-0.31147 -0.50255,-1.27768 -0.50255,-1.27768l1.46943,-0.45091z" fill="#00aeff" stroke="none" stroke-width="0"/></g><g><path d="M265.94236,162.87776c-5.08738,2.74811 -12.00912,1.77121 -14.54829,-3.68105c-2.53917,-5.45228 -0.73461,-11.25953 4.35275,-14.00764c5.08738,-2.74811 11.53062,-0.69679 14.06979,4.75546c2.53917,5.45228 1.21312,10.18509 -3.87425,12.93321z" fill="#00699a" stroke="#000000" stroke-width="1.5" stroke-linecap="butt"/><path d="M254.37618,146.88242c0,0 1.83947,0.61999 4.34036,1.72366c2.4948,1.10098 5.15884,3.32388 6.26829,5.70613c2.22158,4.77032 1.72863,7.24446 -1.96768,9.24117c-1.79827,0.9714 -3.9539,0.8325 -5.72724,-0.03948c-2.48905,-1.2239 -5.02362,-3.36385 -6.2834,-6.06896c-2.22158,-4.77032 3.36968,-10.56251 3.36968,-10.56251z" fill="#0091d4" stroke="none" stroke-width="0" stroke-linecap="butt"/><path d="M269.13563,150.7721c0,0 -1.14948,4.7835 -7.18759,7.76155c-5.98904,2.95384 -10.2424,0.56956 -10.2424,0.56956" fill="none" stroke="#000000" stroke-width="0.8" stroke-linecap="round"/><path d="M270.21763,156.62573c0,0 -1.22411,3.01725 -7.00211,5.05069c-4.00934,1.411 -8.43154,1.18547 -8.43154,1.18547" fill="none" stroke="#000000" stroke-width="0.75" stroke-linecap="round"/><path d="M267.59684,148.28263c0,0 -0.83464,2.8074 -6.74855,5.30312c-6.14866,2.59478 -10.30121,0.85728 -10.30121,0.85728" fill="none" stroke="#000000" stroke-width="0.8" stroke-linecap="round"/><path d="M251.13038,150.67168c0,0 3.86764,-2.14329 8.11882,-3.11354c3.22754,-0.73664 7.71713,-0.49361 7.71713,-0.49361" fill="none" stroke="#000000" stroke-width="0.8" stroke-linecap="round"/><path d="M259.8719,144.59426c0,0 3.58485,1.0444 5.87962,6.51496c2.4591,5.86233 1.81162,10.00006 1.81162,10.00006" fill="none" stroke="#000000" stroke-width="0.8" stroke-linecap="round"/><path d="M264.98604,163.04353c0,0 -1.53933,-2.82029 -2.25828,-4.61118c-0.60531,-1.50783 -1.27693,-4.63676 -2.27723,-7.36485c-1.13747,-3.1022 -2.5741,-5.73417 -2.5741,-5.73417" fill="none" stroke="#000000" stroke-width="0.8" stroke-linecap="round"/><path d="M262.6115,164.19068c0,0 -3.72679,-2.68753 -6.30793,-8.64461c-1.64452,-3.79544 -0.9782,-9.44463 -0.9782,-9.44463" fill="none" stroke="#000000" stroke-width="0.8" stroke-linecap="round"/><path d="M257.35893,164.18172c0,0 -2.61204,-2.16897 -4.27172,-7.95054c-1.15253,-4.01488 -0.49047,-8.11361 -0.49047,-8.11361" fill="none" stroke="#000000" stroke-width="0.8" stroke-linecap="round"/><path d="M252.41395,157.22965c-0.36275,0.19595 -0.82617,-0.00883 -1.03505,-0.45742c-0.20891,-0.44856 -0.08418,-0.97106 0.27856,-1.16701c0.36275,-0.19595 0.82618,0.00883 1.03505,0.45741c0.20891,0.44856 0.08418,0.97107 -0.27856,1.16702z" fill="#00aeff" stroke="none" stroke-width="0" stroke-linecap="butt"/><path d="M251.73439,153.80166c-0.20927,0.11304 -0.4636,0.02287 -0.56804,-0.20141c-0.10446,-0.22428 -0.01948,-0.49774 0.1898,-0.61079c0.20927,-0.11304 0.4636,-0.02286 0.56805,0.20141c0.10446,0.22428 0.01949,0.49774 -0.1898,0.6108z" fill="#00aeff" stroke="none" stroke-width="0" stroke-linecap="butt"/></g></g><path d="M264.563,167.33053c4.93844,9.38749 5.15727,11.3645 5.15727,11.3645c0.55922,1.2122 -0.59156,1.68391 -0.59156,1.68391c0,0 -2.12882,1.20711 -3.49138,1.97971c-0.8947,0.50733 -2.29257,1.29996 -2.29257,1.29996c0,0 -0.9541,0.34285 -1.24617,-0.32604c-1.75707,-4.02408 -3.63607,-7.7676 -4.33888,-9.87979c-0.23428,-0.70406 0.2926,-1.91504 0.2926,-1.91504l4.04427,-2.96077c0,0 1.59293,-1.31665 2.46642,-1.24643z" fill="#582700" stroke="#000000" stroke-width="3" stroke-linecap="round"/><path d="M275.63661,162.57615c9.79606,19.6488 10.35716,23.69668 10.35716,23.69668c1.12143,2.5286 -0.94512,3.36238 -0.94512,3.36238c0,0 -3.7956,2.22318 -6.22496,3.64615c-1.59522,0.93437 -4.08756,2.39421 -4.08756,2.39421c0,0 -1.71723,0.59308 -2.30582,-0.80035c-3.54102,-8.38319 -7.28227,-16.20885 -8.73952,-20.585c-0.48575,-1.45871 0.37946,-3.86565 0.37946,-3.86565l7.15648,-5.5822c0,0 2.80649,-2.50501 4.40988,-2.2662z" fill="#582700" stroke="#000000" stroke-width="3" stroke-linecap="round"/></g><g fill="#9e3eff" stroke="none" stroke-width="0.5" stroke-linecap="butt"><path d="M204.3695,143.41145c-1.24035,2.17061 -3.41096,0.93026 -3.41096,0.93026l-2.42955,-1.92296c-0.4766,-1.2289 -1.44922,-2.36876 -1.4298,-3.68669c0.02154,-1.46176 3.87465,-5.21532 2.47246,-6.69797c-1.73708,-1.83677 -5.17259,-2.40319 -5.83712,-4.84237c-0.68118,-2.50026 6.69617,-8.31584 2.99393,-9.39877c0,0 -2.02184,-1.47043 -0.55141,-3.49227c1.47043,-2.02184 3.49227,-0.55141 3.49227,-0.55141c1.03237,0.93963 2.86179,1.44292 3.09712,2.8189c0.37913,2.21679 -0.79304,4.44205 -1.48958,6.58045c-0.32222,0.98924 -0.88054,1.90972 -1.53843,2.7157c-0.24872,0.3047 -1.29037,0.15694 -1.07517,0.48618c0.33831,0.51759 1.22486,0.26946 1.76537,0.56979c1.12889,0.62727 2.54029,1.07612 3.1975,2.18784c0.92417,1.5633 1.3744,3.49622 1.23306,5.30675c-0.13466,1.72486 -2.82957,2.66654 -2.7606,4.39527c0.02389,0.59873 0.6468,1.00887 0.9702,1.51331l0.37045,-0.32296c0,0 2.17061,1.24035 0.93026,3.41096z"/><path d="M214.5695,142.01145c-1.24034,2.17061 -3.41096,0.93026 -3.41096,0.93026l-2.42955,-1.92296c-0.4766,-1.2289 -1.44922,-2.36876 -1.4298,-3.6867c0.02155,-1.46176 3.87464,-5.21532 2.47245,-6.69797c-1.73709,-1.83677 -5.17259,-2.40319 -5.83712,-4.84237c-0.68117,-2.50026 6.69617,-8.31584 2.99393,-9.39877c0,0 -2.02184,-1.47043 -0.55141,-3.49227c1.47043,-2.02184 3.49227,-0.55141 3.49227,-0.55141c1.03238,0.93963 2.86178,1.44292 3.09712,2.8189c0.37913,2.21679 -0.79304,4.44205 -1.48958,6.58045c-0.32222,0.98924 -0.88054,1.90972 -1.53843,2.7157c-0.24872,0.30471 -1.29037,0.15694 -1.07518,0.48618c0.3383,0.5176 1.22486,0.26946 1.76538,0.56979c1.12889,0.62727 2.54028,1.07612 3.1975,2.18784c0.92417,1.5633 1.37441,3.49622 1.23306,5.30676c-0.13466,1.72485 -2.82957,2.66654 -2.7606,4.39527c0.02389,0.59873 0.64681,1.00887 0.9702,1.51331l0.37045,-0.32296c0,0 2.1706,1.24034 0.93026,3.41096z"/><path d="M225.5695,141.21145c-1.24034,2.17061 -3.41096,0.93026 -3.41096,0.93026l-2.42955,-1.92297c-0.4766,-1.2289 -1.44922,-2.36876 -1.4298,-3.6867c0.02155,-1.46176 3.87465,-5.21532 2.47246,-6.69797c-1.73709,-1.83677 -5.17259,-2.40319 -5.83713,-4.84237c-0.68117,-2.50026 6.69617,-8.31584 2.99393,-9.39877c0,0 -2.02184,-1.47043 -0.55141,-3.49227c1.47043,-2.02184 3.49227,-0.55141 3.49227,-0.55141c1.03238,0.93963 2.86178,1.44292 3.09712,2.8189c0.37913,2.21679 -0.79305,4.44205 -1.48958,6.58045c-0.32222,0.98924 -0.88053,1.90972 -1.53843,2.7157c-0.24872,0.30471 -1.29037,0.15695 -1.07518,0.48619c0.3383,0.5176 1.22486,0.26945 1.76537,0.56979c1.12889,0.62727 2.54029,1.07612 3.1975,2.18784c0.92417,1.5633 1.3744,3.49622 1.23306,5.30676c-0.13466,1.72485 -2.82957,2.66654 -2.7606,4.39527c0.02389,0.59873 0.64681,1.00887 0.97021,1.51331l0.37044,-0.32296c0,0 2.1706,1.24034 0.93026,3.41096z"/></g></g></g></svg>