<svg version="1.1" xmlns="http://www.w3.org/2000/svg" xmlns:xlink="http://www.w3.org/1999/xlink" width="350" height="350" viewBox="0,0,350,350"><g transform="translate(-65,-5)"><g data-paper-data="{&quot;isPaintingLayer&quot;:true}" fill-rule="nonzero" stroke-linecap="butt" stroke-linejoin="miter" stroke-miterlimit="10" stroke-dasharray="" stroke-dashoffset="0" style="mix-blend-mode: normal"><path d="M65,355v-350h350v350z" fill-opacity="0.01569" fill="#ffffff" stroke="none" stroke-width="0"/><path d="M96.2601,178l143.9899,-143.9899l143.9899,143.9899l-143.9899,143.9899z" fill="#fa3939" stroke="none" stroke-width="0"/><path d="M240,324.24978l-144.24978,-144.24978l144.24978,-144.24978l144.24978,144.24978z" fill="none" stroke="#540d0d" stroke-width="14.5"/><path d="M105.18703,179.58284l134.15471,-134.15471l134.15471,134.15471c0,0 -88.43962,-71.04748 -132.32335,-71.04748c-54.16774,0 -135.98606,71.04748 -135.98606,71.04748z" fill="#ffffff" stroke="none" stroke-width="0"/><path d="M164.61079,180c0,-41.63631 33.7529,-75.38921 75.38922,-75.38921c41.63632,0 75.38921,33.7529 75.38921,75.38921c0,41.63631 -33.7529,75.38922 -75.38921,75.38922c-41.63631,0 -75.38922,-33.7529 -75.38922,-75.38922z" fill-opacity="0.13725" fill="#fafafa" stroke="none" stroke-width="0"/></g></g></svg>