<svg version="1.1" xmlns="http://www.w3.org/2000/svg" xmlns:xlink="http://www.w3.org/1999/xlink" width="306.30631" height="274.77477" viewBox="0,0,306.30631,274.77477"><g transform="translate(-86.84686,-42.61264)"><g data-paper-data="{&quot;isPaintingLayer&quot;:true}" fill-rule="nonzero" stroke-linecap="butt" stroke-linejoin="miter" stroke-miterlimit="10" stroke-dasharray="" stroke-dashoffset="0" style="mix-blend-mode: normal"><path d="M86.84686,317.38741v-274.77477h306.30631v274.77477z" data-paper-data="{&quot;index&quot;:null}" fill="none" stroke="none" stroke-width="0"/><text transform="translate(271.55603,110.72269) rotate(-180) scale(0.1602,-0.1602)" font-size="40" xml:space="preserve" data-paper-data="{&quot;index&quot;:null}" fill="#000000" fill-rule="nonzero" stroke="none" stroke-width="1" stroke-linecap="butt" stroke-linejoin="miter" stroke-miterlimit="10" stroke-dasharray="" stroke-dashoffset="0" font-family="Sans Serif" font-weight="normal" text-anchor="start" style="mix-blend-mode: normal"><tspan x="0" dy="0">AwezomeXD</tspan><tspan x="0" dy="46.150000000000006px"> </tspan><tspan x="0" dy="46.150000000000006px">MeIzAwezomeDede</tspan></text><g data-paper-data="{&quot;index&quot;:null}"><g><g><g><path d="M204.50451,130.22547c0,0 -4.65203,-11.21554 2.55962,-16.76898c5.11914,-3.94205 21.39585,-0.85612 32.19834,-3.21448c12.27992,-2.6809 35.25168,-8.70491 35.25168,-8.70491c0,0 5.62779,2.32705 7.57368,1.97449c2.42966,-0.44022 4.43567,-4.18499 4.43567,-4.18499c0,0 1.10757,4.01467 1.32454,7.36763c0.81725,12.62937 -9.03072,13.82581 -9.03072,13.82581c0,0 4.54609,5.22261 5.2028,9.47209c0.6903,4.46699 -2.66218,7.3197 -2.66218,7.3197c0,0 2.87415,3.19403 3.4451,6.74429c0.37692,2.34376 0.33505,6.27386 0.27452,8.72826c-0.10324,4.18838 7.73315,7.33894 7.73315,7.33894c0,0 -3.572,3.71632 -6.26941,4.56507c-2.74553,0.86387 -9.38358,-1.37314 -9.38358,-1.37314c0,0 -2.37726,0.93303 -2.53073,3.79672c-0.04838,0.90274 0.45764,2.90386 0.70909,3.82095c0.8482,3.09338 -0.84567,5.55745 -0.84567,5.55745c0,0 -1.91519,-3.25245 -2.81348,-4.01041c-0.6593,-0.55631 -1.28092,-0.6768 -1.28092,-0.6768c0,0 -0.88952,4.46933 -0.22604,6.8935c1.47568,5.39187 4.2689,11.96141 3.03727,12.24734c-2.227,0.51699 -5.31937,-3.06868 -7.94913,-3.17675c-2.42045,-0.09946 -5.5726,-6.16351 -5.5726,-6.16351c0,0 -1.17572,6.98808 -3.89823,8.16434c-2.64192,1.14148 -3.66593,6.45014 -4.80946,6.70891c-4.16856,0.94331 -10.48731,-11.37721 -10.48731,-11.37721c0,0 -11.08731,9.81557 -14.17103,7.64175c-3.63953,-2.56566 -6.48895,-18.22758 -6.48895,-18.22758c0,0 -6.01315,-3.94111 -6.76657,-6.70085c-1.69202,-6.19789 0.88365,-11.5644 0.88365,-11.5644c0,0 -3.15342,0.70646 -4.59188,2.04495c-1.52893,1.42272 -4.32693,6.25405 -4.32693,6.25405c0,0 -1.87892,-5.42174 -1.74305,-8.14316c0.14292,-2.86189 2.58048,-8.62794 2.58048,-8.62794c0,0 -5.0989,-3.01401 -7.56765,-7.98356c-1.32314,-2.66343 -1.13647,-8.73629 -1.13647,-8.73629c0,0 4.65685,3.41301 6.47567,3.77326c1.4109,0.27945 1.10181,-2.71876 1.10181,-2.71876z" fill="#6d0f0a" stroke="#000000" stroke-width="2"/><path d="M206.03098,124.52511c-1.85182,1.29002 -3.1875,0.56374 -3.1875,0.56374c0,0 -4.28006,-7.28652 -3.58029,-17.5114c0.37885,-5.53555 4.07923,-12.88513 6.26097,-17.91503c3.09188,-7.12811 11.13595,-11.34582 18.18798,-12.88539c9.27039,-2.02387 17.09595,6.39845 17.09595,6.39845c0,0 9.09181,-5.47945 16.53146,-4.88967c7.18733,0.56974 13.20656,7.7139 14.8412,9.4644c2.49029,2.6668 6.27887,16.1111 6.27887,16.1111c0,0 -23.74875,25.63197 -38.44191,28.8397c-15.69674,3.42683 -28.72379,-11.84218 -33.98674,-8.17591z" fill="#6d0f0a" stroke="#000000" stroke-width="2"/><path d="M204.07337,94.6626c0,0 1.66911,-3.40636 2.5818,-4.91716c0.87076,-1.44136 2.77443,-3.94922 2.77443,-3.94922c0,0 9.04631,4.90016 13.57985,5.67628c4.75074,0.81332 12.05909,-2.24906 12.05909,-2.24906c0,0 0.36548,2.29152 0.74501,3.19124c0.40126,0.95124 1.137,2.47151 1.137,2.47151c0,0 0.9604,-2.00185 1.17709,-2.82641c0.23403,-0.8906 0.57552,-2.74501 0.57552,-2.74501c0,0 2.21925,3.48963 3.1939,4.77274c0.79815,1.05075 2.23099,2.36903 2.23099,2.36903c0,0 -0.35642,-2.10378 -0.62305,-3.18377c-0.28231,-1.14341 -1.02649,-3.49728 -1.02649,-3.49728c0,0 10.03269,2.98994 16.11768,3.76882c0.12216,0.01562 4.67474,-0.73454 5.01953,-0.743c7.41345,-0.18171 3.61628,-9.05552 3.61628,-9.05552c0,0 3.28195,3.00768 4.82261,5.86333c1.56262,2.89636 4.48811,11.39445 4.48811,11.39445c0,0 -5.72619,-2.31155 -10.77187,-2.05185c-0.89534,0.04607 -10.54883,1.07941 -10.54883,1.07941c0,0 -1.73703,-1.91268 -2.63528,-2.68554c-0.88022,-0.75737 -2.70119,-1.90609 -2.70119,-1.90609c0,0 -0.90163,2.02695 -1.30951,3.25531c-0.49005,1.47573 -1.42966,4.99389 -1.42966,4.99389c0,0 -1.16326,-1.71279 -1.96001,-2.60289c-0.88637,-0.99026 -3.11797,-3.07031 -3.11797,-3.07031c0,0 -1.23129,0.65697 -1.86977,1.24702c-0.88636,0.81915 -2.95315,3.21004 -2.95315,3.21004c0,0 -1.20513,-2.72001 -1.88311,-3.90741c-0.58657,-1.02733 -1.95045,-2.80674 -1.95045,-2.80674c0,0 -1.44305,1.37998 -2.18015,2.26181c-0.91981,1.10045 -2.91305,3.83131 -2.91305,3.83131c0,0 -8.37125,-6.73558 -12.53772,-7.97096c-3.89734,-1.1556 -11.70765,0.78208 -11.70765,0.78208z" fill="#c42d06" stroke="none" stroke-width="0"/></g><path d="M226.52385,137.83585c0,0 -19.05476,-3.56675 -19.60096,-4.92486c-0.09474,-0.23561 1.45572,-9.11886 1.10886,-9.95595c-0.63359,-1.52903 -4.84562,0.18709 -4.84562,0.18709c0,0 62.192,-17.27647 71.99141,-19.56762c2.49651,-0.58368 5.43036,1.47118 5.43036,1.47118l-8.98891,20.55696z" fill="#6d0f0a" stroke="none" stroke-width="NaN"/></g><path d="M242.20086,84.27525c0,0 -4.46048,-1.16165 -3.52255,-6.90769c0.04943,-0.30277 0.55397,-1.55818 0.74366,-1.84516c1.45359,-2.19899 6.33929,-3.10212 6.33929,-3.10212c0,0 -2.47024,4.89573 -3.26943,6.5618c-0.71234,1.48502 -0.29096,5.29317 -0.29096,5.29317z" fill="#6d0f0a" stroke="#000000" stroke-width="1.5"/><path d="M235.5225,74.12235c0,0 1.47193,0.86337 2.11948,2.53305c0.50566,0.80666 1.11525,3.62675 1.11525,3.62675l-1.99977,-0.85671z" fill="#000000" stroke="none" stroke-width="0"/></g><path d="M241.17727,82.91388l3.74615,-0.46831c0,0 -2.32632,4.68411 -2.82052,4.91093c-0.69188,0.31755 -3.88801,-4.66452 -3.88801,-4.66452z" fill="#6d0f0a" stroke="none" stroke-width="0"/></g><path d="M254.70935,158.68539c-2.8576,-2.66303 14.79875,-1.09104 14.79875,-1.09104c0,0 -1.04668,7.29658 -5.86596,7.72655c-0.71551,0.085 -1.7737,-0.02826 -2.67193,-0.55968c-2.80558,-1.65986 -5.80176,-5.64801 -6.26086,-6.07584z" data-paper-data="{&quot;index&quot;:null}" fill="#fb95a9" stroke="#000000" stroke-width="2"/><g data-paper-data="{&quot;index&quot;:null}"><path d="M229.05145,131.57698c2.41131,-2.95149 10.53162,-0.25987 12.59919,3.86227c0.26008,0.51854 1.70637,-0.66733 5.40284,0.98163c0.86997,0.38809 5.76087,2.42654 8.41284,5.62037c1.26983,1.52929 1.69603,4.4245 1.54261,5.46051c-0.22905,2.80784 -2.67033,5.18657 -4.85989,7.14774c-2.87249,2.57284 1.75248,7.33006 -2.40533,7.33006c-3.03121,0 -16.54137,0.60747 -18.69314,-0.7284c-1.28409,-0.79719 -0.53199,-7.61244 -0.88049,-9.01861c-0.48674,-1.96396 -4.99822,-4.40189 -4.99822,-6.61256c0,-2.58633 2.29137,-12.099 3.87959,-14.04301z" fill="#ee1536" stroke="#000000" stroke-width="2"/><path d="M245.16343,151.7661c0,-3.14019 3.56399,-6.94934 7.26523,-7.10728c1.42906,-0.06098 2.65733,0.06996 3.18396,0.81425c0.66164,0.93511 0.38103,2.67311 -0.13046,4.34512c-1.10558,3.61402 -4.40634,5.42259 -7.63376,5.42259c-0.06272,0 2.08362,-1.58996 2.84464,-0.28992c1.01358,1.73146 0.66979,6.51156 0.03616,6.86773c-2.98614,1.67855 -13.402,-0.74155 -16.31172,-0.67209c-0.60085,0.01435 -2.90823,0.59035 -3.45604,-1.26733c-0.44915,-1.5231 0.38106,-5.65028 0.34354,-5.65555c-0.60286,-0.08461 -1.36799,-4.06688 -1.36799,-4.06688c0,0 -2.86476,-2.27685 -2.9505,-2.85725c-0.15338,-1.03828 2.10836,-2.8435 2.10836,-2.8435c0,0 1.25189,1.00644 1.97555,1.57762c0.66583,0.52553 1.57561,2.98741 1.57561,2.98741c0,0 4.12841,-5.5717 8.29185,-4.21031c5.58397,1.82588 4.22558,7.21129 4.22558,6.95539z" fill="#9a1652" stroke="none" stroke-width="0"/><path d="M231.67377,160.75606c0.86132,-1.55025 8.52088,-5.58592 9.70316,-7.17085c2.60911,-3.4977 4.57621,-6.08348 4.57621,-6.08348c0,0 0.91108,5.32297 -0.66029,9.58239c-1.16307,3.15265 6.61433,5.47453 5.8723,5.47453c-1.74455,0 -20.27813,-0.38656 -19.49138,-1.80259z" fill="#000000" stroke="none" stroke-width="0"/></g><g data-paper-data="{&quot;index&quot;:null}"><path d="M233.92159,141.38026c0.80442,5.08868 -2.59592,18.45982 -2.59592,18.45982c0,0 -0.28511,1.37539 -1.02973,2.62302c-0.41426,0.69409 -0.63017,1.32638 -1.8341,1.71362c-0.80524,0.25903 -3.52741,0.12896 -4.64918,-0.88086c-0.98187,-0.88388 -1.15505,-3.20866 -1.23948,-3.97694c-0.33487,-3.04673 0.21706,-7.3694 -0.15176,-12.33748c-0.45858,-6.17728 -1.61717,-13.6184 -1.06606,-16.05059c0.14218,-0.62745 1.12109,0.16995 1.40252,0.12111c1.23669,-0.21459 1.90083,0.26161 3.69041,1.21429c3.05233,1.62489 6.76715,4.76538 7.41053,8.83522z" fill="#ffd5d5" stroke="#000000" stroke-width="2"/><path d="M231.17981,156.20214c0,0 -0.02568,2.68142 -0.93347,4.70471c-0.56408,1.25724 -1.2133,2.06456 -1.94771,2.26899c-1.32211,0.368 -3.4261,0.26229 -4.1952,-0.92095c-1.85096,-2.84768 -0.38886,-12.31239 -0.38886,-12.31239l7.46523,6.25964z" fill="#fb95a9" stroke="none" stroke-width="0"/></g><g data-paper-data="{&quot;index&quot;:null}"><g><path d="M304.61434,280.7271c-0.97394,-0.3343 -2.81981,-1.05375 -2.81981,-1.05375l2.00112,-62.99775c0,0 3.12264,-3.42551 4.77674,-5.10754c1.78782,-1.81801 6.83093,-5.9246 6.83093,-5.9246c0,0 5.94054,0.17965 11.08569,1.75457c7.39586,2.26385 29.04162,10.52827 29.04162,10.52827c0,0 -0.29139,23.00613 -1.11993,33.98866c-0.74728,9.90532 -3.63272,29.00908 -3.63272,29.00908c0,0 -14.3168,1.48011 -21.61682,1.59314c-7.15813,0.11083 -21.76596,-0.92143 -21.76596,-0.92143c0,0 -1.89659,-0.56514 -2.78087,-0.86866z" fill="#434253" stroke="#000000" stroke-width="2.5"/><path d="M306.04175,281.58894c0,0 3.19421,-16.34268 5.26935,-30.13714c1.48339,-9.86081 2.04443,-18.33187 2.06476,-19.00203c0.15509,-5.11269 -0.3723,-9.50368 -0.00091,-14.70459c0.49814,-6.97594 1.18056,-11.43244 1.18056,-11.43244l2.10035,-1.22928c0,0 -1.17975,18.14658 -2.93073,35.27697c-0.73182,7.15966 -2.77258,22.22022 -3.75528,31.64788c-0.10799,1.03599 0.50491,2.39047 0.4064,3.33489c-0.55015,5.27458 -0.93311,6.24975 -0.93311,6.24975l-3.40139,-0.00403z" fill="#000000" stroke="none" stroke-width="0"/></g><g stroke="#000000" stroke-width="1.5"><path d="M345.29835,263.35312c0.94113,9.66742 -4.93088,16.17699 -12.88074,16.95092c-7.94986,0.77393 -14.77082,-5.25083 -14.91119,-14.96294c-0.15638,-10.82018 5.8426,-16.14324 12.54261,-16.73861c6.71115,-0.59636 14.44659,6.50489 15.24932,14.75063z" fill="#2c262f"/><path d="M323.6744,268.45714c-0.26544,-2.72671 1.31874,-5.06632 3.56101,-5.2846c2.24227,-0.21828 3.76096,1.25807 4.0264,3.98478c0.26545,2.72671 -1.3891,5.14677 -3.63137,5.36505c-2.24227,0.21828 -3.69059,-1.33852 -3.95603,-4.06523z" data-paper-data="{&quot;index&quot;:null}" fill="#1b171c"/></g><g stroke="#000000" stroke-width="1.5"><path d="M334.90075,214.22597c6.72176,-0.46163 14.18059,7.06601 14.65957,15.33688c0.56156,9.69688 -5.56103,15.97134 -13.53511,16.43313c-7.97408,0.46179 -14.55372,-5.82563 -14.31338,-15.53578c0.26776,-10.81801 6.4647,-15.77245 13.18893,-16.23424z" fill="#2c262f"/><path d="M327.75298,233.81557c-0.15839,-2.73501 1.51626,-5.01074 3.76536,-5.14099c2.2491,-0.13025 3.70876,1.40448 3.86715,4.1395c0.15839,2.73502 -1.58973,5.08838 -3.83883,5.21863c-2.2491,0.13025 -3.6353,-1.48212 -3.79369,-4.21714z" data-paper-data="{&quot;index&quot;:null}" fill="#1b171c"/></g></g><g data-paper-data="{&quot;index&quot;:null}"><g><path d="M178.20553,279.8001c0,0 -1.84588,0.71945 -2.81982,1.05375c-0.88428,0.30352 -2.78086,0.86866 -2.78086,0.86866c0,0 -14.60784,1.03226 -21.76596,0.92143c-7.30001,-0.11302 -21.61681,-1.59314 -21.61681,-1.59314c0,0 -2.88544,-19.10377 -3.63272,-29.00909c-0.82854,-10.98252 -1.11993,-33.98866 -1.11993,-33.98866c0,0 21.64575,-8.26442 29.04162,-10.52827c5.14515,-1.57491 11.08569,-1.75457 11.08569,-1.75457c0,0 5.04312,4.1066 6.83094,5.9246c1.6541,1.68203 4.77674,5.10754 4.77674,5.10754l2.00112,62.99775z" fill="#434253" stroke="#000000" stroke-width="2.5"/><path d="M173.95831,281.71567l-3.40139,0.00403c0,0 -0.38295,-0.97517 -0.93311,-6.24976c-0.0985,-0.94441 0.51439,-2.2989 0.40641,-3.33488c-0.98271,-9.42766 -3.02346,-24.48823 -3.75529,-31.64789c-1.75097,-17.13039 -2.93073,-35.27697 -2.93073,-35.27697l2.10035,1.22928c0,0 0.68243,4.4565 1.18057,11.43244c0.37139,5.20091 -0.156,9.59191 -0.00092,14.70459c0.02033,0.67016 0.58138,9.14123 2.06477,19.00203c2.07514,13.79446 5.26935,30.13713 5.26935,30.13713z" fill="#000000" stroke="none" stroke-width="0"/></g><g stroke="#000000" stroke-width="1.5"><path d="M134.70171,263.47986c0.80273,-8.24574 8.53818,-15.34698 15.24933,-14.75062c6.70001,0.59537 12.69899,5.91843 12.54261,16.73861c-0.14037,9.71211 -6.96134,15.73687 -14.9112,14.96294c-7.94986,-0.77392 -13.82187,-7.2835 -12.88074,-16.95092z" fill="#2c262f"/><path d="M152.76465,263.29932c2.24227,0.21828 3.82645,2.55788 3.56101,5.28459c-0.26545,2.72671 -1.71376,4.28351 -3.95603,4.06523c-2.24227,-0.21829 -3.89681,-2.63834 -3.63137,-5.36505c0.26544,-2.72671 1.78413,-4.20306 4.0264,-3.98478z" data-paper-data="{&quot;index&quot;:null}" fill="#1b171c"/></g><g stroke="#000000" stroke-width="1.5"><path d="M130.43976,229.6896c0.47898,-8.27087 7.9378,-15.79851 14.65956,-15.33689c6.72423,0.46179 12.92117,5.41624 13.18893,16.23424c0.24034,9.71016 -6.33929,15.99758 -14.31338,15.53579c-7.97409,-0.46179 -14.09668,-6.73625 -13.53512,-16.43313z" fill="#2c262f"/><path d="M152.2471,233.94232c-0.15839,2.73501 -1.54458,4.34738 -3.79368,4.21713c-2.2491,-0.13025 -3.99721,-2.48361 -3.83882,-5.21863c0.15839,-2.73501 1.61804,-4.26975 3.86714,-4.1395c2.2491,0.13025 3.92375,2.40598 3.76536,5.141z" data-paper-data="{&quot;index&quot;:null}" fill="#1b171c"/></g></g><g data-paper-data="{&quot;index&quot;:null}" fill="#434253" stroke="#000000"><path d="M302.9364,282.15581c0,0 -39.39406,0.31655 -59.64769,0.31655c-21.72904,0 -66.6118,-0.31655 -66.6118,-0.31655c0,0 -2.38216,-40.33861 -2.16309,-60.75635c0.20152,-18.78125 2.16309,-54.08575 2.16309,-54.08575c0,0 42.82931,-1.2662 64.39595,-1.2662c21.14461,0 59.33114,1.58275 59.33114,1.58275c0,0 4.66352,44.84767 4.63123,67.07726c-0.03994,25.54257 -2.09882,47.44828 -2.09882,47.44828z" stroke-width="2.5"/><path d="M182.6264,273.74782c1.29409,0 2.34316,0.94416 2.34316,2.10884c0,1.16468 -1.04906,2.10884 -2.34316,2.10884c-1.29409,0 -2.34316,-0.94416 -2.34316,-2.10884c0,-1.16468 1.04906,-2.10884 2.34316,-2.10884z" stroke-width="2"/><path d="M296.08667,273.11069c1.29409,0 2.34316,0.94416 2.34316,2.10884c0,1.16468 -1.04907,2.10884 -2.34316,2.10884c-1.29409,0 -2.34316,-0.94416 -2.34316,-2.10884c0,-1.16468 1.04907,-2.10884 2.34316,-2.10884z" stroke-width="2"/><path d="M291.83154,175.44761c-0.48529,-1.12251 0.08425,-2.44878 1.27209,-2.9623c1.18785,-0.51352 2.54417,-0.01985 3.02946,1.10266c0.48528,1.12251 -0.08426,2.44879 -1.2721,2.96231c-1.18785,0.51352 -2.54417,0.01984 -3.02946,-1.10267z" stroke-width="2"/><path d="M180.9176,172.05907c1.18784,-0.51352 2.54418,-0.01985 3.02946,1.10266c0.48528,1.12251 -0.08426,2.44879 -1.2721,2.96231c-1.18784,0.51352 -2.54417,0.01984 -3.02945,-1.10267c-0.48528,-1.12251 0.08425,-2.44878 1.27209,-2.9623z" stroke-width="2"/></g><g data-paper-data="{&quot;index&quot;:null}" stroke="#000000"><path d="M186.71137,208.5751c-2.38275,-6.46282 -2.16877,-24.44922 1.1889,-27.96294c8.89121,-9.30442 26.25684,-9.576 48.61061,-9.576c20.92711,0 41.19208,1.22699 50.66654,9.2042c4.46775,3.7617 4.13041,24.95797 0.62311,30.67638c-5.26643,8.58654 -20.70709,11.7808 -51.50253,11.7808c-30.79544,0 -46.16007,-4.49195 -49.58663,-13.78597z" fill="#434253" stroke-width="2"/><path d="M190.85132,206.9798c-2.19979,-5.72952 -2.00226,-21.67508 1.09762,-24.79011c8.20856,-8.24868 24.24089,-7.85082 44.87837,-7.85082c19.32036,0 38.02944,0.44915 46.77646,7.52122c4.12474,3.33489 3.81329,22.1261 0.57527,27.19567c-4.86209,7.61227 -19.11725,9.59258 -47.54826,9.59258c-28.43103,0 -42.61599,-3.42905 -45.77946,-11.66852z" fill="#2c262f" stroke-width="1.5"/><path d="M216.35601,203.94311c-0.85661,-2.44105 -0.77968,-9.23462 0.42743,-10.56177c3.19647,-3.51434 9.43954,-4.25555 17.47589,-4.25555c7.52346,0 14.80886,1.10206 18.21501,4.11511c1.6062,1.42082 1.48492,9.42678 0.22402,11.58666c-1.89332,3.24319 -7.44436,4.66256 -18.51556,4.66256c-11.07119,0 -16.59491,-1.86836 -17.82677,-5.37876z" fill="#1b171c" stroke-width="1.5"/></g><g data-paper-data="{&quot;index&quot;:null}" stroke="#000000"><path d="M186.71137,264.14932c-2.38275,-6.46282 -2.16877,-24.44922 1.1889,-27.96293c8.89121,-9.30442 26.25684,-9.57601 48.61061,-9.57601c20.92711,0 41.19208,1.22699 50.66654,9.2042c4.46775,3.76171 4.13041,24.95797 0.62311,30.67638c-5.26643,8.58654 -20.70709,11.7808 -51.50253,11.7808c-30.79544,0 -46.16007,-4.49196 -49.58663,-13.78598z" fill="#434253" stroke-width="2"/><path d="M190.85132,262.554c-2.19979,-5.72952 -2.00226,-21.67508 1.09762,-24.79011c8.20856,-8.24868 24.24089,-7.85083 44.87837,-7.85083c19.32036,0 38.02944,0.44915 46.77646,7.52122c4.12474,3.33489 3.81329,22.12611 0.57527,27.19568c-4.86209,7.61227 -19.11725,9.59258 -47.54826,9.59258c-28.43103,0 -42.61599,-3.42905 -45.77946,-11.66852z" fill="#2c262f" stroke-width="1.5"/><path d="M216.35601,259.51733c-0.85661,-2.44104 -0.77968,-9.23461 0.42743,-10.56176c3.19647,-3.51434 9.43954,-4.25555 17.47589,-4.25555c7.52346,0 14.80886,1.10206 18.21501,4.11511c1.6062,1.42082 1.48492,9.42677 0.22402,11.58665c-1.89332,3.24319 -7.44436,4.66256 -18.51556,4.66256c-11.07119,0 -16.59491,-1.86836 -17.82677,-5.37877z" fill="#1b171c" stroke-width="1.5"/></g><g data-paper-data="{&quot;index&quot;:null}"><path d="M260.25636,187.90097c-1.09443,-0.60668 -2.81534,-1.76752 -4.60978,-5.37269c-1.07865,-2.16706 -1.63553,-4.29353 -0.90414,-4.93706c2.26311,-1.99123 13.17032,-3.45886 13.2742,-3.46255c6.31128,-0.22427 15.00392,4.17149 15.10056,6.89128c0.07664,2.15679 -5.47758,5.2842 -11.6863,5.29605c-9.18212,0.0175 -12.7631,-3.97887 -12.96681,-4.18994c-0.80861,-0.83778 1.00135,1.51518 1.6983,2.45262c0.79879,1.07443 2.16015,1.79541 2.01352,2.87809c-0.16755,1.2372 -1.01217,0.9472 -1.91957,0.4442z" fill="#ee1536" stroke="#000000" stroke-width="1.5"/><path d="M224.01421,166.30063c-0.12772,-3.59427 1.63963,-6.85643 4.67709,-9.29927c4.03468,-3.24484 10.11384,-5.13375 15.05392,-5.30929c5.31659,-0.18892 12.35305,-0.63842 14.4399,1.58096c0.56646,0.60243 0.2352,3.35122 0.6817,5.94338c0.25663,1.48983 1.193,5.08919 2.34953,7.9736c0.84166,2.09915 1.84669,4.50055 2.99041,4.77038c4.74231,1.11882 11.46374,3.43394 9.87397,6.04495c-1.20808,1.98412 -8.63052,2.4819 -14.61008,0.89374c-5.38209,-1.42947 -9.31773,-4.84675 -11.27751,-5.26249c-3.32467,-0.70528 -10.23848,1.79886 -13.61175,1.45226c-2.19798,-0.22584 -4.13649,-0.88035 -5.59932,-1.59901c-3.62542,-1.78109 -4.88882,-4.96567 -4.96783,-7.18922z" fill="#ffd5d5" stroke="#000000" stroke-width="1.5"/><path d="M254.10519,161.52671c0,0 1.50596,-1.19084 2.14009,-1.91732c0.57492,-0.65864 1.50449,-2.25799 1.50449,-2.25799c0,0 0.56121,2.41352 0.82531,3.64833c0.23876,1.11641 0.69092,3.44118 0.69092,3.44118c0,0 -2.18351,-0.49053 -3.11553,-1.01683c-0.74694,-0.42177 -2.04527,-1.89735 -2.04527,-1.89735z" fill="#fb95a9" stroke="none" stroke-width="0"/><path d="M275.37832,177.74336c0.15701,-0.35975 1.66932,-0.19585 2.98839,0.3799c1.31908,0.57575 2.76828,2.26435 2.61126,2.6241c-0.15702,0.35974 -1.55635,-1.07248 -2.87542,-1.64823c-1.31907,-0.57575 -2.88124,-0.99602 -2.72422,-1.35577z" fill="#fc9ea5" stroke="none" stroke-width="0"/></g><g data-paper-data="{&quot;index&quot;:null}"><path d="M231.16254,187.21777c2.18245,-6.49026 7.21694,-8.54661 11.97095,-6.94799c4.75401,1.59861 6.98224,7.52075 4.79978,14.01101c-2.18245,6.49027 -10.5377,12.49981 -14.08843,11.10351c-3.51558,-1.38247 -5.02384,-11.33923 -2.84138,-17.82949z" fill="#ee1536" stroke="#000000" stroke-width="1.5"/><path d="M233.50381,184.30384c0,0 1.84009,-2.96939 4.1015,-3.74274c0.75854,-0.25939 4.09359,0.00662 6.66187,1.48777c1.74562,1.0067 2.97737,3.0317 3.42522,4.05962c0.77139,1.77052 0.32109,3.74921 0.32109,3.74921c0,0 -1.72169,1.76553 -5.34071,1.8476c-1.9031,0.04315 -4.73029,-1.87461 -6.55951,-3.88375c-1.64931,-1.81154 -2.60946,-3.5177 -2.60946,-3.5177z" fill="#9a1652" stroke="none" stroke-width="0"/><path d="M237.39726,174.28041c0.1548,-7.10639 1.60146,-10.95246 10.01636,-11.12779c4.92008,-0.10252 6.84297,5.48731 6.65647,7.90604c-0.62398,8.09232 -8.88216,15.65798 -8.88216,15.65798c0,0 1.83347,7.92202 -6.41418,9.3979c-4.03312,0.72171 -4.45488,-6.28031 -3.87871,-8.02305c1.04602,-3.16387 3.13879,-5.10065 3.13879,-5.10065c0,0 -0.70538,-5.55271 -0.63659,-8.71043z" fill="#ffd5d5" stroke="#000000" stroke-width="1.5"/><path d="M244.59567,175.2343c-1.02038,-0.58352 -1.30042,-1.54144 -1.68528,-2.48575c-0.46441,-1.13947 -0.91126,-4.03413 -0.91126,-4.03413c0,0 1.96568,1.32887 3.06817,1.88202c1.08494,0.54433 3.6493,1.24938 3.6493,1.24938c0,0 -1.41492,2.49389 -2.099,3.02271c-0.63577,0.49148 -1.00154,0.94927 -2.02192,0.36577z" fill="#fb95a9" stroke="none" stroke-width="0"/><path d="M236.87711,202.37461c-0.64255,0.00319 1.45043,-1.13376 2.24678,-1.66161c0.88335,-0.58552 2.68804,-2.53086 2.74553,-2.16454c0.11627,0.74071 -1.32199,2.25496 -2.1291,2.78995c-0.87598,0.58065 -1.77244,1.03081 -2.8632,1.03622z" fill="#fc9ea5" stroke="none" stroke-width="0"/></g><g data-paper-data="{&quot;index&quot;:null}"><path d="M241.05602,156.261c0,2.29411 -1.25818,4.61538 -3,4.61538c-0.76278,0 -3.11037,-0.73494 -3.60601,-1.49437c-0.52018,-0.79702 -2.20134,-5.64467 -0.8631,-7.58224c0.2984,-0.43204 3.61307,-0.53877 3.93065,-0.53877c1.74182,0 3.53846,2.70589 3.53846,5z" fill="#fd96aa" stroke="#000000" stroke-width="1.5"/><path d="M238.14049,153.93573c0,4.48731 -3.19181,8.875 -7.4375,8.875c-4.24569,0 -6.5625,-3.26269 -6.5625,-7.75c0,-4.48731 3.06681,-8.375 7.3125,-8.375c0.42285,0 2.52519,-0.3495 4.87944,-1.18678c3.58981,-1.2767 8.28642,-3.06533 10.90324,-2.80277c0.41148,0.04129 0.96513,0.31779 1.36082,0.71617c0.443,0.44602 0.7075,1.02531 0.74205,1.20909c0.83269,4.42997 -5.98453,5.25017 -9.58073,5.89658c-1.33894,0.24067 -2.15109,0.83204 -2.15109,0.83204c0,0 0.53377,1.69476 0.53377,2.58568z" fill="#ffd5d5" stroke="#000000" stroke-width="2"/><path d="M225.10358,156.33634c0,0 1.31118,2.06283 3.21457,2.64476c0.63741,0.19487 -0.02157,-0.60386 0.96662,-0.65647c0.48158,-0.02564 1.71308,1.26414 3.2383,0.76702c1.8479,-0.60229 4.67142,-5.5735 4.67142,-5.5735c0,0 0.09418,3.12019 -1.52514,5.55894c-0.89188,1.34321 -2.3669,2.4797 -4.51488,2.7743c-1.38135,0.18945 -3.03094,-0.32712 -3.99461,-1.29818c-1.71101,-1.72412 -2.05627,-4.21688 -2.05627,-4.21688z" fill="#fb95a9" stroke="none" stroke-width="0"/><path d="M226.9791,160.8764c0,0 -0.1889,-0.61077 0.84803,-1.90619c0.80488,-1.00553 2.25406,-0.81564 2.20899,-0.57336c-0.05147,0.27667 -0.53704,0.76628 -0.86242,1.42386c-0.48657,0.98336 -0.34844,2.20255 -0.34844,2.20255z" fill="#000000" stroke="none" stroke-width="0"/><path d="M236.28679,158.95332c0,0 -0.00528,-1.80894 -0.31401,-2.63224c-0.30663,-0.81768 -1.22445,-2.21391 -1.22445,-2.21391c0,0 0.99221,0.41313 1.45799,0.67929c0.42856,0.24489 1.23432,0.85917 1.23432,0.85917z" fill="#000000" stroke="none" stroke-width="0"/><path d="M243.50261,143.57673c0,0 0.96222,-0.41929 1.72045,-0.51819c0.66775,-0.0871 2.25871,0.0043 2.25871,0.0043c0,0 0.17421,1.21756 -0.43926,1.86061c-0.97065,1.01744 -2.02554,1.21278 -2.84958,1.30382c-0.41762,0.04614 -0.69032,-0.58635 -0.69032,-0.96305z" fill="#f7426f" stroke="#000000" stroke-width="1"/></g><g data-paper-data="{&quot;index&quot;:null}"><path d="M270.32482,151.27122c0.98554,0.91565 2.69914,2.98473 2.37761,6.30422c-0.28178,2.90909 -4.38362,4.59501 -7.25167,4.59501c-3.68535,0 -4.09378,-3.88056 -4.09378,-3.88056c0,0 -1.37986,0.91927 -3.09615,0.6913c-1.53049,-0.20328 -2.9026,-1.60588 -3.51944,-4.12752c-0.21117,-1.71239 0.11239,-2.88628 0.52321,-3.91997c0.38389,-0.96592 1.31487,-1.99144 2.11654,-2.76018c1.19174,-1.14279 2.52968,-2.6382 5.42603,-2.6382c1.5625,0 4.83369,0.12169 8.09991,-0.41155c2.1263,-0.34715 4.01238,-0.96808 5.86219,-1.38272c1.67872,-0.37628 3.09727,-0.56713 4.03811,-0.52167c0.33355,0.01612 0.97651,0.15316 1.32961,0.83793c0.29813,0.57814 0.15478,1.26078 0.10625,1.44209c-1.58824,5.93383 -8.93545,5.69056 -11.57822,5.40151c-0.59388,-0.06496 -0.6994,-0.1063 -0.34018,0.22746z" fill="#ffd5d5" stroke="#000000" stroke-width="2"/><path d="M256.20446,151.35089c0,0 0.14235,2.17809 2.29704,2.33172c0.60189,0.04291 2.41805,-0.85162 4.01223,-2.32232c0.79204,-0.7307 1.16395,-2.64115 2.02732,-2.98534c0.05698,-0.02272 0.24744,-0.17084 0.53295,-0.09898c0.33181,0.0835 0.49079,0.32205 0.6147,0.32874c0.60663,0.03273 1.64317,0.1642 2.49583,0.176c1.96501,0.02719 4.28583,-0.22808 6.50634,-0.68366c2.5281,-0.51868 4.35553,-2.57434 5.47836,-2.79484c0.44269,-0.08694 1.17936,-0.0669 1.17936,-0.0669c0,0 -0.6693,2.06881 -1.88193,2.95162c-0.92901,0.67633 -1.98172,1.18858 -3.13835,1.47319c-3.39135,0.83451 -7.15032,0.23808 -7.15032,0.23808l-1.14731,1.12063c0,0 -0.27473,4.8443 1.15371,4.94696c0.29148,0.02095 0.60971,-0.5765 0.85243,-0.47295c0.55191,0.23546 0.40644,2.31029 0.78122,2.46812c0.56445,0.23771 0.82632,0.10593 0.82632,0.10593c0,0 -0.74914,1.54659 -2.39341,2.34197c-2.09132,1.01164 -4.38846,1.20925 -5.60484,0.66087c-1.51635,-0.68362 -2.33867,-3.40278 -2.33867,-3.40278c0,0 -3.06338,0.09194 -4.00015,-0.56226c-0.9902,-0.6915 -1.50132,-1.82235 -1.60252,-2.89405c-0.13686,-1.44935 0.49969,-2.85976 0.49969,-2.85976z" fill="#fb95a9" stroke="none" stroke-width="0"/><path d="M260.15097,158.48233c0,0 0.90401,-1.48142 0.97239,-2.35001c0.07167,-0.91042 -0.4879,-1.87333 -0.88459,-2.81069c-0.18257,-0.43139 -0.30178,-0.98281 -0.12077,-1.20562c0.14542,-0.179 0.53371,-0.09681 0.86714,0.05862c0.44538,0.20764 0.57266,0.52662 1.01192,0.75319c0.1529,0.07886 0.34458,0.26723 0.57724,0.29229c0.41666,0.04488 0.96464,-0.12835 1.65634,-0.21891c1.26798,-0.16602 2.84406,-1.58105 2.84406,-1.58105c0,0 -0.08929,1.58905 -0.50621,2.52936c-0.29641,0.75395 -3.60389,0.85701 -3.74836,1.12336c-0.35765,0.65941 -0.36178,1.879 -0.09219,2.50284c0.35788,0.82817 1.09261,0.97588 1.09261,0.97588z" fill="#000000" stroke="none" stroke-width="0"/><path d="M261.81267,157.51303c0,0 2.03082,0.996 4.34184,0.58636c1.47907,-0.26218 3.62044,-2.17882 3.62044,-2.17882c0,0 -0.63559,2.71144 -3.30238,3.50931c-0.23268,0.06962 -0.86955,0.23053 -1.5447,0.22818c-1.52548,-0.00532 -3.53062,-0.27563 -3.53062,-0.27563z" fill="#000000" stroke="none" stroke-width="0"/><path d="M257.46285,158.40311c-1.36072,-0.63778 -1.67383,-1.72093 -1.67383,-1.72093c0,0 0.32157,-0.60438 1.07624,-1.02583c0.4786,-0.26728 1.14418,-0.25328 1.3625,-0.1726c0.19699,0.07279 0.98738,0.56135 1.28218,1.20123c0.43638,0.94721 0.43333,2.07431 0.43333,2.07431c0,0 -1.27937,0.20676 -2.48041,-0.35618z" fill="#871847" stroke="#000000" stroke-width="1"/><path d="M270.25962,152.25099c0,0 -0.16751,-0.38189 -0.70469,-0.59158c-0.82041,-0.32025 -2.13404,-0.4002 -2.13404,-1.4163c0,-0.98501 4.50042,-0.20772 4.50042,-0.20772z" fill="#000000" stroke="none" stroke-width="0"/></g><g data-paper-data="{&quot;index&quot;:null}"><g><g><g><path d="M259.44664,123.94853c0.42765,-3.63851 3.16212,-6.30746 6.10758,-5.96124c2.94546,0.34621 4.98652,3.57646 4.55884,7.21498c-0.42767,3.63851 -3.16215,6.30746 -6.10761,5.96124c-2.94547,-0.34621 -4.98652,-3.57645 -4.55884,-7.21497z" fill="#fb95a9" stroke="#000000" stroke-width="2"/><path d="M243.7313,138.15581c-24.39459,-6.58868 -26.72846,-9.73303 -27.23132,-19.95538c-0.50285,-10.22237 14.18417,-9.494 28.64644,-10.20542c14.4623,-0.71143 22.00272,-1.68984 22.50557,8.53253c0.08203,1.66758 -2.64233,11.5287 -2.64233,11.5287c0,0 7.34853,4.95251 6.08224,8.82159c-1.38135,4.17431 -18.13278,3.7703 -27.3606,1.278z" fill="#ffd5d5" stroke="#000000" stroke-width="2"/><path d="M219.32379,111.31473c0,0 27.2871,-5.31352 33.47927,-5.61811c11.73247,-0.57714 13.76294,5.89942 13.99721,10.66212c0.10232,2.08022 -2.44588,10.25007 -2.44588,10.25007c0,0 -3.3022,-5.71389 -5.27141,-7.22662c-0.77965,-0.59893 -2.15607,-1.94006 -2.15607,-1.94006c0,0 -1.48446,1.45088 -2.31909,2.32386c-1.15556,1.20866 -4.03455,3.41848 -4.03455,3.41848l-0.53687,-3.79191l-4.62094,3.71081l-5.87084,-8.01543c0,0 -3.48068,5.18914 -6.00589,7.17092c-2.69248,2.11304 -9.67942,5.13886 -9.67942,5.13886l-3.96524,-0.72515c0,0 -2.51338,-5.26506 -2.61023,-7.87411c-0.09307,-2.5061 2.04001,-7.48379 2.04001,-7.48379z" fill="#fb95a9" stroke="none" stroke-width="0"/><path d="M209.88838,120.9504c-0.15717,-3.19449 -0.27321,-3.88709 1.62914,-5.45656c1.52513,-1.25824 7.75107,3.26882 7.90821,6.46331c0.15716,3.19448 -0.66464,6.25249 -2.63942,6.34964c-1.97479,0.09713 -6.61829,-3.31366 -6.80648,-7.13916z" fill="#ffd5d5" stroke="#000000" stroke-width="2.5"/><path d="M216.85006,127.46027c-0.70478,0.03467 -3.32202,-1.31313 -4.41532,-2.97684c-0.68256,-1.03864 -1.05631,-2.35654 -1.26096,-3.49325c-0.25096,-1.394 0.76358,-2.06172 2.03466,-1.38415c2.12593,1.13327 4.97881,2.89244 5.0432,4.20098c0.10287,2.09093 0.28278,3.57038 -1.40159,3.65324z" fill="#fb95a9" stroke="none" stroke-width="0"/><path d="M212.95016,118.90223c-0.03144,-0.63891 5.77902,6.04094 5.77902,6.04094l-0.92232,2.68087c0,0 -4.82525,-8.08293 -4.85668,-8.72184z" fill="#000000" stroke="none" stroke-width="0"/><path d="M215.85542,128.36693c-0.32056,-1.84115 1.33719,-3.36757 3.44598,-3.67311c2.10874,-0.30552 4.43719,-0.82161 5.20673,2.29735c0.13546,0.54902 0.92831,4.14723 -0.68926,5.83084c-0.25213,0.26243 -1.66646,1.24023 -3.0793,1.35522c-1.95115,0.15882 -3.12273,-0.34662 -3.12273,-0.34662c0,0 2.28913,-1.64742 2.0774,-1.80458c-0.67528,-0.50121 -3.56949,-2.11217 -3.83884,-3.65908z" fill="#6d0f0a" stroke="#000000" stroke-width="2"/><path d="M203.06355,126.34985c-7.02727,-4.26357 -9.34678,-8.39913 -9.34678,-8.39913c0,0 6.69483,-0.17092 9.01121,-2.22017c2.33489,-2.06563 4.88103,-11.38678 4.88103,-11.38678c0,0 23.11169,1.13919 32.90997,0.6572c9.0731,-0.4463 17.03439,-0.81371 22.86612,-1.07538c6.33849,-0.28439 11.81021,2.60446 12.6037,7.51749c0.19639,1.21582 0.4599,2.85329 0.49405,4.22955c0.1561,6.29053 -2.26057,11.92002 -2.26057,11.92002c0,0 -5.06012,-7.68457 -7.5338,-11.0324c-3.05939,-4.14048 -8.22034,-7.90386 -8.22034,-7.90386c0,0 -0.94474,3.8936 -2.59646,6.3865c-1.7098,2.58055 -4.87511,2.41609 -4.87511,2.41609c0,0 -0.19835,-3.18082 -0.78538,-4.65023c-0.54035,-1.35264 -1.53679,-3.90068 -1.61487,-2.73053c-0.07857,1.1771 -0.65573,3.97377 -0.8981,5.34997c-0.62734,3.56184 -1.19663,4.03734 -1.19663,4.03734c0,0 -1.80863,-3.23183 -3.63507,-6.25585c-1.55297,-2.5712 -4.12146,-4.03709 -4.12146,-4.03709c0,0 -4.7333,4.49181 -7.42525,6.30277c-2.43175,1.63593 -7.64413,4.07256 -7.64413,4.07256c0,0 2.16201,8.11923 -1.84842,7.71667c-2.83443,-0.28452 -4.0575,-0.80715 -5.54515,-2.02711c-0.89185,-0.73136 -1.13681,-3.7218 -1.13681,-3.7218l2.08527,0.55239c0,0 -1.18706,-6.2334 -2.52248,-6.60112c-2.35136,-0.64746 -0.56914,-0.94735 -4.06525,-0.68817c-0.50887,0.03773 -1.90651,3.06626 -1.70345,5.89934c0.21799,3.0416 2.0578,5.90113 2.0578,5.90113c0,0 -4.34751,1.91558 -7.77922,-0.16651z" fill="#6d0f0a" stroke="#000000" stroke-width="1.5"/><path d="M251.7329,107.46211c-0.97946,0.04816 -2.29064,-1.03263 -4.2708,-1.07685c-2.14529,-0.04793 -4.96863,0.94163 -6.09681,1.03572c-16.294,1.35948 -34.40535,3.2896 -34.40535,3.2896c0,0 0.67212,-2.61227 0.69777,-3.88511c0.02742,-1.35986 -0.22264,-4.04584 -0.22264,-4.04584c0,0 22.0954,1.70778 35.24073,1.06115c8.43495,-0.41495 17.307,-1.1959 22.88805,-0.68053c5.90956,0.54568 8.72794,2.3805 8.72794,2.3805l1.18381,6.85251l-2.55968,-0.56832l-6.34009,-6.19294c0,0 -10.35007,1.60906 -14.84293,1.83007z" fill="#6d0f0a" stroke="none" stroke-width="0"/><path d="M242.19388,134.69933c0,0 -3.06462,-4.67824 -2.93994,-4.88563c0.19184,-0.31911 8.87343,1.75488 8.9081,2.14459c0.03309,0.37184 -5.96816,2.74104 -5.96816,2.74104z" fill="#ef3d61" stroke="#000000" stroke-width="1.5"/><path d="M226.76482,113.91015c0,0 1.58228,1.68661 2.46283,2.25724c0.81039,0.52517 2.18087,0.53642 2.18087,0.53642c0,0 -0.3424,-0.74457 -0.68335,-1.51948c-0.35559,-0.80819 -0.91035,-3.118 -0.91035,-3.118c0,0 1.28527,1.74385 1.94582,2.34714c0.63169,0.57696 2.15538,1.39706 2.15538,1.39706c0,0 2.5877,-0.17565 4.28984,-0.25937c4.4557,-0.21917 7.5018,2.7936 7.5018,2.7936c0,0 -2.45398,-0.56141 -3.31048,-0.7266c-0.60838,-0.11739 -1.33671,-0.03101 -1.33671,-0.03101c0,0 0.56928,8.49324 -5.79165,8.87641c-5.20994,0.31385 -4.10969,-6.78109 -4.32856,-7.15675c-0.15857,-0.27215 -1.08577,-1.11747 -1.08577,-1.11747c0,0 -1.46387,-0.83441 -1.95456,-1.49846c-0.5338,-0.72241 -1.13508,-2.78074 -1.13508,-2.78074z" fill="#000000" stroke="none" stroke-width="0"/></g><path d="M275.27311,110.4149c0,0 -0.46002,-2.72574 -0.79231,-4.09177c-0.31775,-1.30627 -1.15987,-3.93313 -1.15987,-3.93313c0,0 1.09497,0.65472 1.77417,2.96761c0.44391,1.51161 1.53158,5.43568 1.53158,5.43568z" fill="#000000" stroke="none" stroke-width="0"/></g></g><path d="M251.7776,117.14048c0.52014,-0.23068 1.73428,-0.19747 3.0768,0.17185c1.37604,0.37855 2.54334,1.07798 2.88253,1.24976c0.67008,0.3394 1.91231,-0.039 1.91231,-0.039c0,0 1.21809,-0.66277 1.90187,-1.18393c0.57404,-0.43752 1.89666,-2.24048 1.89666,-2.24048c0,0 0.00478,1.50222 -1.12155,3.14646c-0.46412,0.67756 -1.74705,1.88655 -1.74705,1.88655c0,0 1.03439,0.08084 2.19718,-0.18103c0.87344,-0.19669 3.0154,-1.56943 3.0154,-1.56943c0,0 -0.92534,1.73926 -1.58639,2.49012c-0.45649,0.51848 -1.60777,1.16997 -1.60777,1.16997l-0.18228,1.02469c0,0 -1.55749,-1.79111 -2.36458,-2.17479c-0.65258,-0.31022 -2.24793,-0.07195 -2.24793,-0.07195c0,0 0.16786,7.71495 -4.71116,7.90542c-3.80421,0.14852 -4.25417,-1.8153 -4.46157,-5.00692c-0.12595,-1.93816 0.25051,-5.29253 3.14753,-6.57729z" fill="#000000" stroke="none" stroke-width="0"/></g></g></g></svg>