<svg version="1.1" xmlns="http://www.w3.org/2000/svg" xmlns:xlink="http://www.w3.org/1999/xlink" width="234" height="234" viewBox="0,0,234,234"><g transform="translate(-123,-63)"><g data-paper-data="{&quot;isPaintingLayer&quot;:true}" fill-rule="nonzero" stroke-linejoin="miter" stroke-miterlimit="10" stroke-dasharray="" stroke-dashoffset="0" style="mix-blend-mode: normal"><path d="M123,297v-234h234v234z" data-paper-data="{&quot;index&quot;:null}" fill="none" stroke="none" stroke-width="0" stroke-linecap="butt"/><g data-paper-data="{&quot;index&quot;:null}"><g data-paper-data="{&quot;index&quot;:null}" stroke="#2f3bd4"><path d="M279.6385,260.53648c-1.85406,4.58214 -25.85719,10.41727 -30.45119,8.09236c-4.71152,-2.38439 -10.68508,-13.47357 -13.23045,-20.33513c-2.54536,-6.86157 -2.09665,-17.55666 -1.22204,-18.62462c2.62383,-3.20389 13.81861,-2.57406 18.83034,-2.87931c2.99459,-0.1824 14.77775,-0.55317 18.26343,1.48107c3.68778,2.15217 9.09139,29.09851 7.80991,32.26558z" data-paper-data="{&quot;origRot&quot;:0,&quot;origPos&quot;:null}" fill="#ffffff" stroke-width="3" stroke-linecap="butt"/><path d="M250.08153,235.66733l18.49361,-3.76751" data-paper-data="{&quot;origPos&quot;:null}" fill="none" stroke-width="2" stroke-linecap="round"/><path d="M251.0381,264.55161l-3.18856,-25.11675" data-paper-data="{&quot;origPos&quot;:null}" fill="none" stroke-width="2" stroke-linecap="round"/></g><path d="M243.42544,262.82268c1.06066,-1.06066 2.12132,0 2.12132,0l0.56045,0.56411c0.33333,0.375 0.66667,0.75 1,1.125c0,0 0.99654,1.12111 -0.12457,2.11766c-1.12111,0.99654 -2.11766,-0.12457 -2.11766,-0.12457c-0.33333,-0.375 -0.66667,-0.75 -1,-1.125l-0.43955,-0.43589c0,0 -1.06066,-1.06066 0,-2.12132z" fill="#2f3bd4" stroke="none" stroke-width="0.5" stroke-linecap="butt"/><path d="M269.1602,228.87165c-0.3568,-0.88055 -1.98321,-1.42035 -2.86413,-1.72361h-0.43865c-0.27614,0 -0.5,-0.22386 -0.5,-0.5c0,-0.27614 0.22386,-0.5 0.5,-0.5v0v0h0.5v0.04305l0.08009,-0.0366c0.04211,0.01364 0.08462,0.0275 0.12747,0.0416c0.55033,-0.37942 2.0426,0.22781 2.59938,0.50473l0.21328,0.17699c0,0 0.35355,0.35356 0,0.70711c-0.00376,0.00376 -0.00751,0.00743 -0.01127,0.01103c0.27825,0.24156 0.51515,0.5156 0.68826,0.82848c0,0 0.2236,0.44721 -0.22361,0.67082c-0.44721,0.2236 -0.67082,-0.22361 -0.67082,-0.22361z" fill="#2f3bd4" stroke="none" stroke-width="0.5" stroke-linecap="butt"/></g><g data-paper-data="{&quot;index&quot;:null}"><g data-paper-data="{&quot;index&quot;:null}" stroke="#2f3bd4"><path d="M244.1385,260.53648c-1.85406,4.58214 -25.85719,10.41727 -30.45119,8.09236c-4.71152,-2.38439 -10.68508,-13.47357 -13.23045,-20.33513c-2.54536,-6.86157 -2.09665,-17.55666 -1.22204,-18.62462c2.62383,-3.20389 13.81861,-2.57406 18.83034,-2.87931c2.99459,-0.1824 14.77775,-0.55317 18.26343,1.48107c3.68778,2.15217 9.09139,29.09851 7.80991,32.26558z" data-paper-data="{&quot;origRot&quot;:0,&quot;origPos&quot;:null}" fill="#ffffff" stroke-width="3" stroke-linecap="butt"/><path d="M214.58153,235.66733l18.49361,-3.76751" data-paper-data="{&quot;origPos&quot;:null}" fill="none" stroke-width="2" stroke-linecap="round"/><path d="M215.5381,264.55161l-3.18856,-25.11675" data-paper-data="{&quot;origPos&quot;:null}" fill="none" stroke-width="2" stroke-linecap="round"/></g><path d="M207.92544,262.82268c1.06066,-1.06066 2.12132,0 2.12132,0l0.56045,0.56411c0.33333,0.375 0.66667,0.75 1,1.125c0,0 0.99654,1.12111 -0.12457,2.11766c-1.12111,0.99654 -2.11766,-0.12457 -2.11766,-0.12457c-0.33333,-0.375 -0.66667,-0.75 -1,-1.125l-0.43955,-0.43589c0,0 -1.06066,-1.06066 0,-2.12132z" fill="#2f3bd4" stroke="none" stroke-width="0.5" stroke-linecap="butt"/><path d="M233.6602,228.87165c-0.3568,-0.88055 -1.98321,-1.42035 -2.86413,-1.72361h-0.43865c-0.27614,0 -0.5,-0.22386 -0.5,-0.5c0,-0.27614 0.22386,-0.5 0.5,-0.5v0v0h0.5v0.04305l0.08009,-0.0366c0.04211,0.01364 0.08462,0.0275 0.12747,0.0416c0.55033,-0.37942 2.0426,0.22781 2.59938,0.50473l0.21328,0.17699c0,0 0.35355,0.35356 0,0.70711c-0.00376,0.00376 -0.00751,0.00743 -0.01127,0.01103c0.27825,0.24156 0.51515,0.5156 0.68826,0.82848c0,0 0.2236,0.44721 -0.22361,0.67082c-0.44721,0.2236 -0.67082,-0.22361 -0.67082,-0.22361z" fill="#2f3bd4" stroke="none" stroke-width="0.5" stroke-linecap="butt"/></g><g data-paper-data="{&quot;index&quot;:null}"><g stroke="#2f3bd4" stroke-width="3" stroke-linecap="round"><path d="M281.27646,252.40902c0,0 4.37093,9.81183 4.60102,14.41374c-14.58456,8.57117 -24.49536,7.37536 -24.49536,7.37536c-1.91507,0.68117 -3.21518,-6.47665 -3.21518,-6.47665c0,0 -2.99603,-13.89002 -4.91365,-22.78031c-1.25918,-5.83774 -3.22651,-14.95848 -3.22651,-14.95848c0,0 -0.99264,-5.84077 0.07079,-6.12703c6.39779,-1.72218 12.25046,-4.65015 15.69754,-4.36371c1.14903,0.09547 3.50237,5.30339 3.50237,5.30339l11.97899,27.61368z" data-paper-data="{&quot;origPos&quot;:null}" fill="#ffffff"/><path d="M282.7869,257.96524l-24.51164,7.59998l-0.99379,-3.25364l24.47457,-7.85593z" data-paper-data="{&quot;origPos&quot;:null}" fill="none"/></g><path d="M256.9405,261.93684l-6.99233,-36.19839l1.01926,-1.02314l15.06375,-4.80777l14.89284,34.32483z" fill="#ffffff" stroke="#2f3bd4" stroke-width="1" stroke-linecap="round"/><path d="M258.10936,265.1504l-0.69308,-2.22568l24.34765,-7.58186l0.69309,2.22568z" fill="#ffffff" stroke="none" stroke-width="0" stroke-linecap="butt"/></g><g data-paper-data="{&quot;index&quot;:null}" fill="#ffffff" stroke="#2f3bd4" stroke-linecap="round"><path d="M232.03931,223.6872c0,0 -28.84181,0.13938 -25.28828,-17.48658c1.30921,-6.49398 16.89173,-1.6772 16.89173,-1.6772z" data-paper-data="{&quot;origPos&quot;:null}" stroke-width="2"/><path d="M226.50034,210.62402c0,0 -15.21576,-5.05076 -14.88841,-5.61024c1.03798,-1.77385 12.46743,1.13834 12.46743,1.13834z" data-paper-data="{&quot;origPos&quot;:null}" stroke-width="1"/></g><g data-paper-data="{&quot;index&quot;:null}"><path d="M222.24157,220.25407c0,0 4.78859,-10.73142 7.01212,-10.81309c6.67055,-0.24507 20.98113,2.78495 30.67054,4.33381c1.49789,0.23943 0.08003,10.81072 0.08003,10.81072l-4.39159,23.73542c0,0 -2.75838,11.49363 -4.39242,11.23242c-14.54595,-2.32515 -31.76559,-4.39743 -38.08056,-6.07782c-2.10498,-0.56012 1.86325,-12.49849 1.86325,-12.49849z" data-paper-data="{&quot;origPos&quot;:null}" fill="#ffffff" stroke="#2f3bd4" stroke-width="3.5" stroke-linecap="round"/><path d="M239.06178,229.48436c-1.26549,-0.20229 -0.76713,-2.10734 -0.76713,-2.10734c1.03364,-3.95121 2.39948,-9.17243 3.43313,-13.12364c0,0 0.49836,-1.90505 1.76384,-1.70276c1.26549,0.20229 0.76712,2.10734 0.76712,2.10734c-1.03364,3.95121 -2.06726,7.90241 -3.10089,11.85361l-0.33224,1.27004c0,0 -0.49836,1.90505 -1.76384,1.70276z" fill="#2f3bd4" stroke="none" stroke-width="0.5" stroke-linecap="butt"/><path d="M250.65702,231.00541c-1.26549,-0.20229 -0.6394,-2.59556 -0.6394,-2.59556c1.29853,-4.96383 3.01443,-11.52316 4.31296,-16.48699c0,0 0.62608,-2.39327 1.89156,-2.19098c1.26549,0.20229 0.6394,2.59555 0.6394,2.59555c-1.29853,4.96383 -2.59704,9.92765 -3.89558,14.89149l-0.41737,1.59552c0,0 -0.62607,2.39327 -1.89155,2.19098z" fill="#2f3bd4" stroke="none" stroke-width="0.5" stroke-linecap="butt"/></g><g data-paper-data="{&quot;index&quot;:null}" fill="none" stroke="#2f3bd4" stroke-width="3"><path d="M254.78439,219.9856c-0.53866,-1.49634 0.60057,-2.5082 2.04276,-3.45652c1.44218,-0.9483 2.71922,-1.06679 3.17988,0.02236c0.97669,2.30931 -0.6779,2.96667 -1.80716,3.70922c-1.4422,0.94832 -2.65474,1.83818 -3.41546,-0.27505z" stroke-linecap="butt"/><path d="M255.86705,219.60403l-3.04221,1.94949" stroke-linecap="round"/><path d="M249.22416,221.45956c1.44218,-0.9483 2.71922,-1.06679 3.17989,0.02236c0.97669,2.30931 -0.6779,2.96668 -1.80716,3.70923c-1.44218,0.94831 -2.65474,1.83817 -3.41546,-0.27506c-0.53866,-1.49634 0.60056,-2.5082 2.04274,-3.45654z" stroke-linecap="butt"/><path d="M245.22184,226.48401l3.04221,-1.94951" stroke-linecap="round"/><path d="M239.80416,224.91449c0.72011,-1.52166 2.00006,-1.10211 3.39713,-0.3481c1.39707,0.75401 2.15015,1.90497 1.66215,3.0786c-1.03469,2.48844 -2.34853,1.3348 -3.44247,0.74441c-1.39708,-0.754 -2.6338,-1.32592 -1.6168,-3.47489z" stroke-linecap="butt"/><path d="M240.63123,225.70188l-2.91285,-1.62468" stroke-linecap="round"/><path d="M233.62705,219.18504c1.13869,-1.11112 2.13199,-0.10458 3.11852,1.27656c0.98654,1.38115 1.27271,2.83616 0.45409,3.72506c-1.73575,1.88476 -2.51684,0.16167 -3.28933,-0.91982c-0.98655,-1.38116 -1.89138,-2.5126 -0.28327,-4.08178z" stroke-linecap="butt"/><path d="M234.09863,220.32812l-2.03957,-2.92984" stroke-linecap="round"/><path d="M228.48224,211.8816c1.13868,-1.1111 2.13199,-0.10458 3.11852,1.27656c0.98655,1.38115 1.27271,2.83616 0.45409,3.72507c-1.73573,1.88475 -2.51684,0.16166 -3.28933,-0.91983c-0.98654,-1.38115 -1.89137,-2.5126 -0.28325,-4.08178z" stroke-linecap="butt"/><path d="M228.95385,213.02468l-2.03958,-2.92985" stroke-linecap="round"/></g><path d="M283.79676,273.34491c-3.35436,1.1633 -19.1946,3.05319 -20.50184,3.20699c-1.30722,0.1538 -2.57391,-0.80364 -3.7048,-1.92485c-1.13088,-1.12119 -1.70872,-2.84461 -1.88089,-3.61294c-0.51655,-2.305 -2.10845,-12.47269 -3.51662,-21.66702c-0.21782,-1.42214 0.60133,-3.8216 0.60133,-3.8216c0,0 1.40023,-1.40905 2.30409,-1.55253c9.97217,-1.58314 19.34085,-3.87344 23.21161,-3.3307c1.29026,0.18091 3.7381,1.08086 3.7381,1.08086c0,0 0.99223,3.07335 1.21264,3.86961c0.07346,0.26544 0.11557,0.41473 0.17309,0.68405c1.72383,8.07001 2.84721,17.54203 3.08476,20.87373c0.07917,1.11056 -0.96064,3.02354 -0.96064,3.02354c0,0 -0.69517,2.1077 -3.76084,3.17086z" fill="#ffffff" stroke="#2f3bd4" stroke-width="2.5" stroke-linecap="round"/><g data-paper-data="{&quot;index&quot;:null}"><g stroke="#2f3bd4" stroke-width="3" stroke-linecap="round"><path d="M198.79081,251.29928l15.01371,-26.08832c0,0 2.92509,-4.90963 4.07756,-4.87504c3.45741,0.10374 8.94295,3.67243 15.10598,6.10444c1.0244,0.40424 -0.61994,6.09599 -0.61994,6.09599c0,0 -2.98236,8.84103 -4.89121,14.49974c-2.907,8.61766 -7.44882,22.0817 -7.44882,22.0817c0,0 -2.09823,6.96579 -3.92438,6.0732c0,0 -9.98242,0.07164 -23.50849,-10.08807c0.74708,-4.54668 6.19559,-13.80361 6.19559,-13.80361z" data-paper-data="{&quot;origPos&quot;:null}" fill="#ffffff"/><path d="M198.08373,253.27885l23.4337,10.56324l-1.35402,3.12097l-23.49937,-10.3131z" data-paper-data="{&quot;origPos&quot;:null}" fill="none"/></g><path d="M198.9356,253.15074l18.66509,-32.42846l14.42621,6.47425l0.8975,1.13145l-11.02596,35.18017z" fill="#ffffff" stroke="#2f3bd4" stroke-width="1" stroke-linecap="round"/><path d="M197.0365,256.29295l0.93943,-2.13342l23.33846,10.27662l-0.93941,2.13343z" fill="#ffffff" stroke="none" stroke-width="0" stroke-linecap="butt"/></g><g data-paper-data="{&quot;index&quot;:null}"><path d="M255.60865,265.51822c1.05061,-2.20556 -0.72349,-8.07332 1.32483,-7.0976c1.04333,0.49702 19.92506,9.9452 20.55429,11.04791c0.60605,1.06216 0.7515,2.22877 0.23604,3.31088c-0.35072,0.73622 -1.24602,1.69926 -2.12962,2.13686c-1.76351,0.87335 -22.85224,-3.6274 -24.21684,-4.27743c-2.04832,-0.97573 3.18069,-2.91509 4.23132,-5.12064z" fill="#0091d4" stroke="#000000" stroke-width="1.5" stroke-linecap="butt"/><g stroke-linecap="butt"><path d="M248.84247,262.2704c1.90347,-3.99597 5.58545,-6.21646 8.22391,-4.9596c2.63846,1.25684 3.23432,5.51508 1.33087,9.51104c-1.90348,3.99596 -5.58547,6.21648 -8.22395,4.95962c-2.63846,-1.25684 -3.23431,-5.51508 -1.33083,-9.51103z" fill="#0091d4" stroke="#000000" stroke-width="1.5"/><path d="M255.61449,269.25219c0,0 -1.06454,1.33395 -2.72338,1.8924c-0.79513,0.25463 -2.78114,0.09701 -2.78114,0.09701l3.00411,-2.56157z" fill="#00aeff" stroke="none" stroke-width="0"/><path d="M257.6851,266.3552l-0.87924,1.72418c0,0 -0.79218,-0.07376 -1.18503,-0.23069c-0.3355,-0.13402 -1.21329,-0.67619 -1.21329,-0.67619l0.96956,-1.32205z" fill="#00aeff" stroke="none" stroke-width="0"/></g><g><path d="M254.73819,264.95575c-2.62591,5.51253 -9.10249,9.29651 -14.61498,6.67064c-5.51253,-2.62591 -7.55674,-8.38928 -4.93085,-13.90177c2.62591,-5.51253 9.35793,-8.13506 14.87045,-5.50919c5.51253,2.62591 7.30128,7.22781 4.67539,12.7403z" fill="#00699a" stroke="#000000" stroke-width="1.5" stroke-linecap="butt"/><path d="M235.07168,259.9607c0,0 1.94308,-0.72163 4.74538,-1.49727c2.79548,-0.77375 6.42547,-0.77477 8.83404,0.37254c4.82303,2.29746 5.92811,4.57139 4.02024,8.57662c-0.92819,1.94855 -2.84337,3.25728 -4.88547,3.73684c-2.86629,0.67312 -6.3353,0.65432 -9.07029,-0.64852c-4.82303,-2.29746 -3.64388,-10.54022 -3.64388,-10.54022z" fill="#0091d4" stroke="none" stroke-width="0" stroke-linecap="butt"/><path d="M249.99437,253.31556c0,0 1.96983,4.52567 -1.32142,10.84486c-3.26452,6.26783 -8.34286,7.18729 -8.34286,7.18729" fill="none" stroke="#000000" stroke-width="0.8" stroke-linecap="round"/><path d="M254.51719,257.21639c0,0 0.81892,3.18296 -2.83323,8.58666c-2.53423,3.74964 -6.42656,6.48127 -6.42656,6.48127" fill="none" stroke="#000000" stroke-width="0.75" stroke-linecap="round"/><path d="M247.15533,252.36621c0,0 1.02026,2.76135 -2.46259,8.61877c-3.62111,6.08991 -8.21561,7.45271 -8.21561,7.45271" fill="none" stroke="#000000" stroke-width="0.8" stroke-linecap="round"/><path d="M234.64999,265.08208c0,0 1.96303,-4.23344 4.9739,-7.79485c2.28588,-2.70389 6.24622,-5.46607 6.24622,-5.46607" fill="none" stroke="#000000" stroke-width="0.8" stroke-linecap="round"/><path d="M238.32736,254.542c0,0 3.68586,-1.53548 9.0022,1.26561c5.69705,3.0017 7.69533,6.68823 7.69533,6.68823" fill="none" stroke="#000000" stroke-width="0.8" stroke-linecap="round"/><path d="M254.02857,265.71552c0,0 -3.04319,-1.20968 -4.7562,-2.1479c-1.44225,-0.78994 -3.939,-2.81368 -6.4679,-4.30535c-2.87568,-1.6962 -5.71576,-2.82503 -5.71576,-2.82503" fill="none" stroke="#000000" stroke-width="0.8" stroke-linecap="round"/><path d="M252.71947,268.18168c0,0 -4.81813,0.33407 -10.67711,-2.662c-3.73293,-1.9089 -6.64594,-6.79886 -6.64594,-6.79886" fill="none" stroke="#000000" stroke-width="0.8" stroke-linecap="round"/><path d="M248.25565,271.63029c0,0 -3.55261,0.00929 -8.52141,-3.45469c-3.45045,-2.40549 -5.41235,-6.07089 -5.41235,-6.07089" fill="none" stroke="#000000" stroke-width="0.8" stroke-linecap="round"/><path d="M239.77761,269.40533c-0.18724,0.39305 -0.70667,0.53658 -1.16021,0.32051c-0.45353,-0.21602 -0.66939,-0.70982 -0.48216,-1.10289c0.18724,-0.39305 0.70667,-0.53658 1.1602,-0.32052c0.45353,0.21602 0.6694,0.70982 0.48218,1.10289z" fill="#00aeff" stroke="none" stroke-width="0" stroke-linecap="butt"/><path d="M237.08998,267.15115c-0.10801,0.22676 -0.37941,0.32303 -0.60618,0.21501c-0.22675,-0.108 -0.32303,-0.3794 -0.215,-0.60617c0.10801,-0.22676 0.37941,-0.32303 0.60618,-0.21502c0.22675,0.108 0.32303,0.37941 0.21502,0.60618z" fill="#00aeff" stroke="none" stroke-width="0" stroke-linecap="butt"/></g></g><g><g stroke="#2f3bd4" stroke-width="2.5" stroke-linecap="round"><path d="M226.28984,180.69673c1.79773,-4.89318 5.20371,-5.94796 5.20371,-5.94796c0,0 3.10333,-1.61409 4.88489,-1.45433c5.34474,0.47935 20.52663,2.56183 33.43887,5.56766c0.43093,0.10032 0.66949,0.17234 1.09371,0.29812c1.27257,0.37744 6.18016,2.06145 6.18016,2.06145c0,0 1.37374,3.95835 1.62647,6.0362c0.7582,6.23352 -3.19567,21.21517 -6.03134,37.18697c-0.25699,1.44764 -2.56144,3.65549 -2.56144,3.65549c0,0 -3.87831,1.24538 -6.15629,0.85376c-14.72749,-2.53181 -31.0131,-5.38726 -34.70045,-6.28465c-1.22912,-0.2991 -3.98048,-1.27785 -5.74825,-3.12729c-1.7678,-1.84944 -3.26857,-3.91222 -2.98315,-6.00748c0.28541,-2.0953 3.78604,-27.48398 5.75309,-32.83794z" data-paper-data="{&quot;index&quot;:null}" fill="#ffffff"/><path d="M227.74803,174.02894c1.79773,-4.89318 5.20368,-5.94793 5.20368,-5.94793c0,0 3.10333,-1.61409 4.88493,-1.45429c5.34477,0.47935 20.52663,2.56179 33.43887,5.56766c0.43093,0.10029 0.66949,0.17234 1.09371,0.29812c1.27257,0.37744 6.18016,2.06145 6.18016,2.06145c0,0 1.37374,3.95835 1.62647,6.0362c0.7582,6.23352 -3.19567,21.21517 -6.0313,37.18698c-0.25699,1.44764 -2.56141,3.65545 -2.56141,3.65545c0,0 -3.87831,1.24541 -6.15629,0.8538c-14.72749,-2.53181 -31.0131,-5.38726 -34.70045,-6.28465c-1.22912,-0.29914 -3.98048,-1.27785 -5.74825,-3.12733c-1.7678,-1.84944 -3.26857,-3.91218 -2.98319,-6.00749c0.28538,-2.09527 3.78607,-27.48398 5.75309,-32.83797z" data-paper-data="{&quot;index&quot;:null}" fill="#2f3bd4"/></g><g data-paper-data="{&quot;index&quot;:null}" fill="none" stroke="none" stroke-width="1" stroke-linecap="butt" font-family="sans-serif" font-weight="normal" font-size="12" text-anchor="start"/><g data-paper-data="{&quot;index&quot;:null}" fill="none" stroke="none" stroke-width="1" stroke-linecap="butt" font-family="sans-serif" font-weight="normal" font-size="12" text-anchor="start"/></g><path d="M211.78913,277.94068c-3.54086,-0.25933 -18.83559,-4.79325 -20.09696,-5.16941c-1.26135,-0.37615 -2.04564,-1.75675 -2.64041,-3.234c-0.59477,-1.47723 -0.44331,-3.28862 -0.29731,-4.06235c0.43794,-2.32122 3.00035,-12.28867 5.34624,-21.28953c0.36284,-1.39221 2.0648,-3.27152 2.0648,-3.27152c0,0 1.84359,-0.73978 2.73042,-0.5138c9.78443,2.49308 19.29455,4.09787 22.6344,6.12831c1.11329,0.67682 3.00504,2.47212 3.00504,2.47212c0,0 -0.30522,3.2151 -0.41796,4.03357c-0.0376,0.27284 -0.05802,0.4266 -0.11178,0.6967c-1.61101,8.09329 -4.32834,17.23644 -5.42885,20.39009c-0.36685,1.0512 -2.0789,2.39642 -2.0789,2.39642c0,0 -1.47261,1.66043 -4.70873,1.4234z" fill="#ffffff" stroke="#2f3bd4" stroke-width="2.5" stroke-linecap="round"/></g></g></svg>