<svg version="1.1" xmlns="http://www.w3.org/2000/svg" xmlns:xlink="http://www.w3.org/1999/xlink" width="127.66667" height="127.66667" viewBox="0,0,127.66667,127.66667"><g transform="translate(-176.16667,-116.16666)"><g data-paper-data="{&quot;isPaintingLayer&quot;:true}" fill-rule="nonzero" stroke-linejoin="miter" stroke-miterlimit="10" stroke-dasharray="" stroke-dashoffset="0" style="mix-blend-mode: normal"><g><path d="M204.43779,196.06142c-0.00232,0.00076 -0.00355,0.00112 -0.00355,0.00112l-0.57312,-0.02261c-1.11744,-0.77489 -1.08975,-2.13351 -0.73438,-3.3761c1.30077,-1.92822 4.22159,-7.35972 7.30154,-5.01257c1.45609,1.10965 1.92756,3.05773 2.83324,4.55614c1.93456,6.37168 -4.93307,4.84596 -8.82373,3.85402z" fill="#323344" stroke="#000000" stroke-width="1" stroke-linecap="butt"/><path d="M230.79019,183.97455c0.09208,-1.29431 0.62788,-4.48989 1.67011,-5.4049c2.9727,-2.60987 5.19378,0.66365 6.18231,3.01813c0.67624,2.27019 0.55764,6.19923 -0.9346,9.41734c-1.0289,2.21887 -3.03099,3.97284 -4.27774,5.03952c-0.42523,0.36381 -2.00037,0.62907 -4.9149,-1.90917c-2.72533,-2.37347 -5.13738,-6.38406 -4.23654,-7.41874c0.77522,-0.8904 6.44942,-1.8337 6.44942,-1.8337z" fill="#dc94e7" stroke="#000000" stroke-width="1" stroke-linecap="butt"/><path d="M228.35469,189.25908c0.06423,0.02314 0.10293,0.04416 0.10293,0.04416l0.86554,0.55189c0.52332,0.69599 0.7127,1.4084 0.93088,2.09157c0.26855,0.84087 0.48063,1.66717 0.19901,2.72387c-2.318,6.25948 -12.31881,10.99783 -14.9229,2.2127c-1.06802,-3.67 2.01722,-5.81404 5.58361,-6.94252c2.42992,-0.76888 5.05235,-1.17046 6.85741,-0.85446c0,0 0.20158,0.03574 0.3835,0.17279z" fill="#f89688" stroke="#000000" stroke-width="1" stroke-linecap="butt"/><path d="M209.71661,189.66047c-0.7036,-0.12264 -0.6582,-0.87089 -0.6582,-0.87089c0.12283,-2.00115 2.12605,-6.66339 4.62863,-6.27081c2.56651,0.40261 1.93084,3.04491 3.66449,4.15692c0.81676,0.52389 2.60368,0.01124 3.54694,0.06883c0.66196,0.90043 0.89577,1.02266 1.17389,2.05207c0.49102,1.81742 -0.5802,3.32602 -2.51532,3.45834c-3.09951,0.21194 -5.7053,-2.47469 -8.80607,-2.36226l-0.32,0.03113c0,0 -0.44533,0.04053 -0.71435,-0.26332z" fill="#fcdfbd" stroke="none" stroke-width="0.5" stroke-linecap="butt"/><path d="M220.89847,186.74452c0.66196,0.90043 0.89577,1.02266 1.17389,2.05208c0.49101,1.81742 -0.5802,3.32602 -2.51532,3.45834c-2.39377,0.16368 -4.49305,-1.4015 -6.7533,-2.07097c0.69755,-0.32859 1.33833,-0.62682 1.84367,-0.77588c0.55182,-0.16278 1.0529,-0.05215 1.54673,0.12288c0.60214,0.46249 1.3852,0.67409 2.17129,0.53825c0.32158,-0.0344 0.66101,-0.1449 1.02652,-0.37104c0.10283,-0.06363 0.20193,-0.14532 0.29605,-0.24205c0.76967,-0.64747 1.15287,-1.68531 0.93294,-2.71433c0.0986,-0.00301 0.19157,-0.0025 0.27754,0.00276z" fill="#f89688" stroke="none" stroke-width="0.5" stroke-linecap="butt"/><path d="M209.71661,189.66047c-0.7036,-0.12264 -0.6582,-0.87089 -0.6582,-0.87089c0.12283,-2.00115 2.12605,-6.66339 4.62862,-6.27081c2.5665,0.40262 1.93084,3.0449 3.66449,4.15691c0.81675,0.52388 2.60367,0.01125 3.54694,0.06884c0.66196,0.90043 0.89577,1.02266 1.17389,2.05208c0.49101,1.81742 -0.5802,3.32602 -2.51532,3.45834c-3.0995,0.21194 -5.7053,-2.47469 -8.80607,-2.36226l-0.32,0.03111c0,0 -0.44533,0.04053 -0.71435,-0.26331z" fill="none" stroke="#000000" stroke-width="1" stroke-linecap="butt"/><path d="M209.88224,187.3547c0.15845,0.53453 -0.37609,0.69298 -0.37609,0.69298l-0.08223,0.02438c-3.31478,0.98257 -5.18015,3.98767 -4.54917,7.45133c0,0 0.03108,0.17326 -0.03904,0.34254l0.13565,0.24417c0,0 -0.25806,0.4755 -0.73415,0.23549c-0.07225,0.01064 -0.14452,0.02129 -0.21677,0.03193c0,0 -0.31205,0.04598 -0.50129,-0.16595c-0.32891,-0.04515 -0.43432,-0.40076 -0.43432,-0.40076l-0.03991,-0.14975c-0.82427,-4.98757 1.0599,-7.71208 5.75139,-9.10274c0,0 0.53453,-0.15845 0.69298,0.37609c0.00365,0.0123 0.00693,0.02441 0.00985,0.03631c0.14748,0.03237 0.30779,0.12987 0.38311,0.38398z" fill="#455d83" stroke="none" stroke-width="0.5" stroke-linecap="butt"/><path d="M204.77881,194.80612c-0.53856,-0.13338 -1.10334,-0.14242 -1.61433,-0.00905c-0.07881,-0.02123 -0.15982,-0.03563 -0.24214,-0.0427c-0.16934,-1.64018 -0.00933,-3.01283 0.48417,-4.15724c0.57709,0.46813 1.1434,0.95723 1.70778,1.43885c-0.29865,0.85018 -0.419,1.78631 -0.33547,2.77015z" fill="#85afb1" stroke="none" stroke-width="0.5" stroke-linecap="butt"/><path d="M204.88914,188.55617c0.48483,0.49503 1.09621,0.95186 1.61055,1.24553c-0.35007,0.35921 -0.65236,0.75703 -0.90242,1.18679c-0.5446,-0.46255 -1.0897,-0.92855 -1.64526,-1.37698c0.26425,-0.38211 0.57656,-0.73317 0.93714,-1.05534z" fill="#85afb1" stroke="none" stroke-width="0.5" stroke-linecap="butt"/><path d="M209.88224,187.35471c0.15845,0.53453 -0.37609,0.69298 -0.37609,0.69298l-0.08223,0.02438c-3.31478,0.98257 -5.18015,3.98767 -4.54918,7.45134c0,0 0.03108,0.17326 -0.03904,0.34254l0.13565,0.24418c0,0 -0.25805,0.47549 -0.73415,0.23549c-0.07225,0.01064 -0.14452,0.02129 -0.21677,0.03193c0,0 -0.31205,0.04597 -0.50129,-0.16595c-0.32892,-0.04513 -0.43433,-0.40076 -0.43433,-0.40076l-0.03991,-0.14975c-0.82427,-4.98757 1.05989,-7.71208 5.75139,-9.10274c0,0 0.53453,-0.15845 0.69298,0.37609c0.00364,0.01229 0.00693,0.02441 0.00986,0.03632c0.14748,0.03237 0.30779,0.12987 0.38311,0.38398z" fill="none" stroke="#000000" stroke-width="1" stroke-linecap="butt"/><path d="M221.12958,194.35142c0,0 3.03474,-0.8424 4.01026,0.73057c0.78271,1.26207 -0.13016,2.65441 -0.50035,3.89545c-0.87623,2.93736 -2.063,7.80333 -6.07826,6.33939c-0.86876,-0.41061 -1.56716,-0.89818 -2.34548,-1.45568l-0.10008,-0.05299c-0.89285,0.81513 -1.90235,1.16143 -2.68072,0.759c-0.82405,-0.42604 -1.76967,-1.54095 -2.5887,-2.27189c-1.35373,0.63783 -2.83082,1.33114 -4.22481,0.78036c-1.34063,-0.52969 -1.38685,-1.63694 -1.73924,-2.82576c-0.98706,-3.32993 0.26557,-6.64987 2.86538,-8.90975c1.22514,-1.31758 2.3537,-3.16139 4.16549,-3.81283c1.27422,-0.45814 2.2898,0.06946 3.07601,0.81487c0.90711,0.86005 1.47566,2.07128 1.24189,3.39144c1.24748,-0.14922 2.60505,0.19491 3.64524,0.82081c1.01857,0.6129 0.80998,1.09389 1.25334,1.79702z" fill="#fde0be" stroke="none" stroke-width="0.5" stroke-linecap="butt"/><path d="M225.13984,195.082c0.78272,1.26208 -0.13015,2.65441 -0.50036,3.89544c-0.87624,2.93737 -2.06299,7.80334 -6.07826,6.3394c-0.86876,-0.41061 -1.56716,-0.89818 -2.34547,-1.45569l-0.10008,-0.05299c-0.89285,0.81513 -1.90235,1.16143 -2.68072,0.759c-0.82405,-0.42604 -1.76966,-1.54097 -2.58869,-2.2719c-1.35373,0.63783 -2.83081,1.33114 -4.2248,0.78036c-1.34063,-0.5297 -1.38685,-1.63694 -1.73924,-2.82576c-0.33021,-1.11399 -0.40976,-2.22686 -0.27207,-3.29929c0.11885,0.15799 0.21295,0.32121 0.25407,0.50576l0.00794,0.00481c0.24162,1.12585 0.85461,1.89783 1.64825,2.28819c0.63917,0.36892 1.42271,0.48486 2.18613,0.25857c0.27623,-0.08188 0.53025,-0.20277 0.75783,-0.35486c0.2578,-0.12353 0.51389,-0.27664 0.76456,-0.45985c1.09016,-0.79675 2.49808,-2.27668 3.72791,-4.001c-0.0627,0.94873 -0.07163,1.87652 -0.04149,2.62186c-0.04434,0.36687 -0.01604,0.74862 0.09567,1.12547c0.06654,0.22449 0.15885,0.43429 0.27272,0.62718c0.4518,1.5242 1.79453,1.69927 2.97793,1.30777c0.07151,-0.01524 0.14297,-0.03338 0.21425,-0.05451c0.58805,-0.17431 1.07545,-0.52539 1.4214,-0.97806c0.11784,-0.13316 0.21407,-0.27027 0.28343,-0.40742c0.07822,-0.15467 0.15853,-0.32559 0.23991,-0.50991c0.23319,0.05827 -0.261,2.3221 -0.02068,2.32034c0.7111,-0.00515 2.16364,-2.52592 2.75211,-3.21097c0.47151,-0.54889 0.71439,-1.08968 0.78503,-1.60086c0.15752,-0.50816 0.17155,-1.0669 0.00901,-1.61525c-0.07353,-0.24806 -0.17852,-0.47821 -0.30931,-0.6874c0.91038,-0.03441 1.99068,0.12549 2.50302,0.9516z" fill="#f89688" stroke="none" stroke-width="0.5" stroke-linecap="butt"/><path d="M221.12958,194.35142c0,0 3.03474,-0.8424 4.01026,0.73057c0.78272,1.26208 -0.13015,2.65441 -0.50036,3.89544c-0.87624,2.93737 -2.06299,7.80334 -6.07826,6.3394c-0.86876,-0.41061 -1.56716,-0.89818 -2.34547,-1.45569l-0.10008,-0.05299c-0.89285,0.81513 -1.90235,1.16143 -2.68072,0.759c-0.82405,-0.42604 -1.76966,-1.54097 -2.58869,-2.2719c-1.35373,0.63783 -2.83081,1.33114 -4.2248,0.78036c-1.34063,-0.5297 -1.38685,-1.63694 -1.73924,-2.82576c-0.98706,-3.32993 0.26556,-6.64987 2.86536,-8.90975c1.22514,-1.31758 2.3537,-3.16139 4.1655,-3.81284c1.27422,-0.45814 2.2898,0.06946 3.07599,0.81488c0.90711,0.86005 1.47566,2.07128 1.24189,3.39144c1.24749,-0.14923 2.60505,0.19491 3.64524,0.82082c1.01858,0.61289 0.80998,1.09389 1.25334,1.79702z" fill="none" stroke="#000000" stroke-width="1" stroke-linecap="butt"/><path d="M212.47312,196.7592l4.08843,-4.77843" fill="none" stroke="#000000" stroke-width="1" stroke-linecap="round"/><path d="M220.91745,194.64379l-2.38583,4.50634" fill="none" stroke="#000000" stroke-width="1" stroke-linecap="round"/><path d="M194.66994,190.2089c-1.353,-4.56446 0.74171,-9.56859 5.30619,-10.92159c2.43849,-0.72282 4.17163,-0.07483 6.05354,1.12328c0.63403,0.40365 1.67374,1.24567 2.4051,2.24546c1.16122,1.58742 1.29594,3.46748 1.26341,3.77307c-0.0259,0.24334 -3.27786,-0.5644 -5.43292,2.47915c-2.19818,3.10447 -1.57636,7.37776 -1.57636,7.37776c0,0 -2.216,0.23432 -3.93093,-0.60528c-1.91097,-0.93558 -3.37495,-3.06623 -4.08803,-5.47187z" fill="#465e85" stroke="#000000" stroke-width="0" stroke-linecap="butt"/><path d="M194.66994,190.2089c-0.16989,-0.57313 -0.28541,-1.15319 -0.34853,-1.73209c0.06813,0.06583 0.1426,0.12433 0.22205,0.17477l0.01007,0.01908l0.04062,0.01162c0.20493,0.11827 0.43955,0.18452 0.68217,0.18699l0.23896,0.00803l0.13955,-0.02995l0.14435,0.04463l0.08795,0.00483l0.0804,0.03594l0.09931,0.0176l0.01131,0.01082l0.04,-0.00173l0.03823,0.00678l0.31949,-0.02224l0.31996,-0.01383l0.03724,-0.01104l0.03994,-0.00277l0.01001,-0.01203l0.02801,-0.0083l0.03423,0.0153l0.09931,0.0176l0.01131,0.01082l0.04,-0.00173l0.03823,0.00678l0.31949,-0.02224l0.31996,-0.01383l0.03724,-0.01104l0.03994,-0.00277l0.01001,-0.01203l6.89897,-2.045l0.03724,-0.00259l0.31996,-0.01383l0.03724,-0.01104l0.03994,-0.00277l0.01001,-0.01203l0.20889,-0.06192l0.02552,0.0073l0.54217,0.01822l0.17224,-0.03696l0.30402,-0.02116l0.31996,-0.01383l0.03724,-0.01104l0.03994,-0.00277l0.01001,-0.01203l0.45559,-0.13505l0.02552,0.0073l0.17208,0.00578l0.19062,0.03379l0.01131,0.01082l0.04,-0.00173l0.03823,0.00678l0.26728,-0.0186c-1.12614,0.16473 -2.62553,0.67984 -3.79946,2.33777c-2.19818,3.10447 -1.57636,7.37776 -1.57636,7.37776c0,0 -2.216,0.23432 -3.93093,-0.60528c-1.91097,-0.93558 -3.37495,-3.06623 -4.08803,-5.47187z" fill="#323344" stroke="#000000" stroke-width="0" stroke-linecap="butt"/><path d="M197.8881,184.32105l0.00799,0.01512l-0.02436,-0.00498z" fill="#323344" stroke="#000000" stroke-width="0" stroke-linecap="butt"/><path d="M194.66994,190.2089c-1.353,-4.56447 0.74172,-9.56859 5.30619,-10.92159c2.43849,-0.72282 4.17162,-0.07483 6.05353,1.12328c0.63403,0.40365 1.67373,1.24567 2.4051,2.24546c1.16122,1.58741 1.29595,3.46747 1.26342,3.77307c-0.0259,0.24334 -3.27785,-0.5644 -5.43292,2.47917c-2.19818,3.10447 -1.57636,7.37776 -1.57636,7.37776c0,0 -2.21601,0.23433 -3.93094,-0.60527c-1.91097,-0.93558 -3.37495,-3.06623 -4.08803,-5.47186z" fill="none" stroke="#000000" stroke-width="1" stroke-linecap="butt"/><path d="M200.8994,195.8324c0,0 -1.5232,-5.70484 0.83577,-8.53038c2.49428,-2.98763 7.53002,-2.17987 7.53002,-2.17987" fill="none" stroke="#000000" stroke-width="1" stroke-linecap="round"/><path d="M196.97002,194.04492c0,0 -0.21554,-5.58119 1.71463,-9.16402c1.75236,-3.25276 7.06207,-4.0835 7.06207,-4.0835" fill="none" stroke="#000000" stroke-width="1" stroke-linecap="round"/><path d="M194.55408,189.21444c0,0 1.60737,-4.56288 2.77891,-6.34476c1.05703,-1.60774 3.94217,-3.87796 3.94217,-3.87796" fill="none" stroke="#000000" stroke-width="1" stroke-linecap="round"/><path d="M202.05659,193.70015c0,0 -2.65544,0.18497 -3.7741,-0.1315c-1.09421,-0.30956 -2.86612,-1.74704 -2.86612,-1.74704" fill="none" stroke="#000000" stroke-width="1" stroke-linecap="round"/><path d="M202.75089,192.42082c0,0 -3.24976,-0.59886 -4.70358,-1.17038c-1.29575,-0.50937 -3.59984,-2.09385 -3.59984,-2.09385" fill="none" stroke="#000000" stroke-width="1" stroke-linecap="round"/><path d="M203.08573,190.53233c0,0 -3.33533,-0.96297 -4.63672,-1.95389c-1.42227,-1.08295 -3.56652,-4.29227 -3.56652,-4.29227" fill="none" stroke="#000000" stroke-width="1" stroke-linecap="round"/><path d="M196.38683,181.51426c0,0 3.82592,3.07717 5.14119,4.43357c1.09054,1.12466 2.20329,3.14068 2.20329,3.14068" fill="none" stroke="#000000" stroke-width="1" stroke-linecap="round"/><path d="M199.3015,179.57674c0,0 2.78728,1.73201 3.81365,2.93924c1.07716,1.26696 2.50434,4.49197 2.50434,4.49197" fill="none" stroke="#000000" stroke-width="1" stroke-linecap="round"/><path d="M204.90292,180.06344c0,0 1.28062,1.76283 1.74192,2.77796c0.4813,1.05917 1.08842,3.45053 1.08842,3.45053" fill="none" stroke="#000000" stroke-width="1" stroke-linecap="round"/></g><g><path d="M229.21918,193.1053c0,0 1.39092,-3.36858 3.78463,-7.09929c1.27412,-1.98577 2.49586,-4.53679 4.68729,-5.71387c1.99546,-1.07183 4.93381,-0.80029 7.66689,-0.39131c6.3148,0.94494 9.33116,8.15743 9.33116,8.15743z" fill="#f89688" stroke="#000000" stroke-width="1" stroke-linecap="butt"/><path d="M228.94628,193.26787c0,0 7.57326,-3.32608 13.93343,-4.50733c4.07746,-0.75729 12.15862,-0.95638 12.15862,-0.95638l6.35575,14.94159l-40.69911,1.44956c0,0 -3.84157,-8.87466 -2.51107,-10.63669c0.51124,-0.67705 10.7624,-0.29075 10.7624,-0.29075z" fill="#0066cd" stroke="#000000" stroke-width="0" stroke-linecap="round"/><path d="M220.69496,204.1953c0,0 -2.48891,-5.74978 -2.76616,-8.91207c1.60468,-0.04097 3.55231,-0.79554 5.12842,-0.78882c2.21826,0.00947 6.09094,1.21487 8.18292,1.89998c3.0425,0.9964 6.64048,-0.38223 9.28249,1.26236c1.30988,0.81536 2.66213,1.56407 4.07691,2.11079c0.36983,0.23182 0.68731,0.44656 0.80457,0.57757c0.48029,0.53662 1.68916,1.69424 3.17568,2.85703z" fill="#061382" stroke="#000000" stroke-width="0" stroke-linecap="butt"/><path d="M242.87971,188.76053c4.07745,-0.75729 12.15862,-0.95638 12.15862,-0.95638l6.35575,14.94159l-3.48557,0.12414c0.17544,-2.82462 -1.40429,-5.85138 -3.61076,-7.24181c-0.0605,-0.09105 -0.12816,-0.1816 -0.20334,-0.27144c-3.49966,-4.18251 -8.29833,-5.46688 -13.72994,-6.04056c0.84604,-0.21327 1.69084,-0.40242 2.51525,-0.55554z" fill="#061382" stroke="#000000" stroke-width="0" stroke-linecap="butt"/><path d="M228.94628,193.26787c0,0 7.57326,-3.32608 13.93343,-4.50733c4.07746,-0.75729 12.15862,-0.95638 12.15862,-0.95638l6.35575,14.94159l-40.69911,1.44956c0,0 -3.84157,-8.87466 -2.51107,-10.63669c0.51124,-0.67705 10.7624,-0.29075 10.7624,-0.29075z" fill="none" stroke="#000000" stroke-width="1" stroke-linecap="round"/><path d="M207.85195,210.28669c1.80542,0.70627 2.54986,1.58364 4.64157,1.58364c0,0 0.07156,-0.00001 0.17282,0.02093c0.14433,-0.02756 0.25501,-0.0175 0.25501,-0.0175l0.56984,0.05525c4.1904,0.00341 7.46857,0.17318 11.405,-1.51567c5.52461,-2.40699 12.38776,-3.90543 18.08093,-5.79563c0.0734,-0.0327 0.84286,3.4773 0.84286,3.4773c-1.21956,0.41128 -5.65408,1.76718 -8.55751,2.2672c-3.05654,0.52639 -5.8471,0.65634 -5.8471,0.65634c0,0 -0.86173,1.49922 -2.76305,2.98229c-0.7494,0.58455 -2.88239,2.06967 -6.12803,2.51081c-2.51596,0.34197 -9.21476,-0.05582 -13.24962,-0.94865c-3.11469,-0.68921 -4.02535,-1.88686 -4.03802,-1.9381c-0.02901,-0.10212 0.09318,-3.15157 0.21404,-3.28137c0.10615,-0.14177 0.27291,-0.26526 0.5344,-0.28912l0.87176,-0.21772c0.61545,-0.12325 1.23172,-0.24249 1.84863,-0.35816c0,0 0.82197,-0.15412 0.97608,0.66783c0.00108,0.00573 0.0021,0.01143 0.00308,0.01709c0.08579,0.05124 0.14501,0.10271 0.1673,0.12325z" fill="#ffedf8" stroke="none" stroke-width="0.5" stroke-linecap="butt"/><path d="M224.89618,210.41334c5.52461,-2.40699 12.38776,-3.90543 18.08093,-5.79563c0.0734,-0.0327 0.84286,3.4773 0.84286,3.4773c-1.21956,0.41128 -5.65408,1.76718 -8.55751,2.2672c-3.05654,0.52639 -5.8471,0.65634 -5.8471,0.65634c0,0 -0.86173,1.49922 -2.76305,2.98229c-0.7494,0.58455 -2.88239,2.06967 -6.12803,2.51081c-1.50167,0.20411 -4.49345,0.14469 -7.51952,-0.12623c0.03715,-0.05612 0.07338,-0.11353 0.10863,-0.17227c0.48289,-0.80482 0.86631,-2.88553 0.70629,-4.28354c4.03464,0.01047 7.24352,0.12822 11.07649,-1.51625z" fill="#de95ea" stroke="none" stroke-width="0.5" stroke-linecap="butt"/><path d="M207.85195,210.28669c1.80542,0.70627 2.54986,1.58364 4.64157,1.58364c0,0 0.07156,-0.00001 0.17282,0.02093c0.14433,-0.02756 0.25501,-0.0175 0.25501,-0.0175l0.56984,0.05525c4.1904,0.00341 7.46857,0.17318 11.405,-1.51567c5.52461,-2.40699 12.38776,-3.90543 18.08093,-5.79563c0.0734,-0.0327 0.84286,3.4773 0.84286,3.4773c-1.21956,0.41128 -5.65408,1.76718 -8.55751,2.2672c-3.05654,0.52639 -5.8471,0.65634 -5.8471,0.65634c0,0 -0.86173,1.49922 -2.76305,2.98229c-0.7494,0.58455 -2.88239,2.06967 -6.12803,2.51081c-2.51596,0.34197 -9.21476,-0.05582 -13.24962,-0.94865c-3.11469,-0.68921 -4.02535,-1.88686 -4.03802,-1.9381c-0.02901,-0.10212 0.09318,-3.15157 0.21404,-3.28137c0.10615,-0.14177 0.27291,-0.26526 0.5344,-0.28912l0.87176,-0.21772c0.61545,-0.12325 1.23172,-0.24249 1.84863,-0.35816c0,0 0.82197,-0.15412 0.97608,0.66783c0.00108,0.00573 0.0021,0.01143 0.00308,0.01709c0.08579,0.05124 0.14501,0.10271 0.1673,0.12325z" fill="none" stroke="#000000" stroke-width="1" stroke-linecap="butt"/><path d="M228.05426,201.4077c0,0 -2.29463,-7.56979 8.619,-6.27339c1.18054,0.14023 -0.14467,4.82384 -0.14467,4.82384c0,0 1.71131,0.97787 2.81953,1.64694c1.45306,0.87726 2.64418,3.70526 2.64418,3.70526c0,0 -5.42303,1.38386 -12.38646,3.76344c-2.66106,0.90934 -5.45185,3.58286 -8.39115,3.99614c-3.09002,0.43448 -7.0206,0.25106 -10.11665,-0.47992c-3.0322,-0.7159 -5.26395,-1.9661 -5.12168,-2.81949c0.902,-5.41083 10.92743,-5.35221 10.92743,-5.35221l-0.89204,-1.78407l-2.05693,-0.75276c0,0 0.49307,-2.21376 1.95442,-3.60366c1.58675,-1.50916 4.17537,-2.20665 4.81474,-2.27177c1.80653,-0.18399 7.33026,5.40163 7.33026,5.40163z" fill="#ff292e" stroke="#000000" stroke-width="0" stroke-linecap="round"/><path d="M236.52859,199.95813c0,0 1.71131,0.97787 2.81953,1.64694c1.45306,0.87726 2.64418,3.70526 2.64418,3.70526c0,0 -5.42303,1.38386 -12.38646,3.76344c-2.66105,0.90934 -5.45185,3.58285 -8.39115,3.99614c-2.01657,0.28354 -4.39113,0.30393 -6.65812,0.0807c0.73572,-1.11251 0.95892,-2.69265 1.00917,-3.932c0.0002,-0.00486 0.00048,-0.00965 0.00085,-0.01435c0.07329,0.00578 0.14738,0.00872 0.22216,0.00872c0.44431,0 0.86435,-0.10394 1.23711,-0.28885c0.05717,-0.01396 0.10992,-0.03328 0.1567,-0.0596c0.108,-0.06075 0.2037,-0.13389 0.28951,-0.21698c0.56273,-0.54478 0.70117,-1.51672 1.1043,-2.22218l-1.37281,-2.40241c-0.1603,-0.28052 -0.42395,-0.42797 -0.7429,-0.49095l-0.44889,-0.89778l-1.36936,-0.50113c0.93289,-0.3125 1.929,-1.01023 2.84795,-1.36907c1.69752,-0.66287 3.1317,-0.97629 3.41747,-1.26205c0.18058,-0.18059 0.31551,-0.60441 0.44222,-0.82615c0.30321,-0.53062 0.39693,-1.43418 0.39337,-2.40773c2.30463,1.08848 6.31084,5.13958 6.31084,5.13958c0,0 -0.27217,-0.89787 -0.18322,-2.02219c1.14586,-0.03851 3.1178,-0.55161 4.58163,-1.05165c0.89563,-0.07029 1.82358,-0.28117 2.70097,-0.61607c0.30301,-0.11566 0.59999,-0.24612 0.88752,-0.39069c0.33522,0.02199 0.68227,0.06041 1.02864,0.09512c-0.17626,1.24615 -0.5412,2.53592 -0.5412,2.53592z" fill="#ac0e49" stroke="#000000" stroke-width="0" stroke-linecap="round"/><path d="M228.05426,201.4077c0,0 -2.29463,-7.56979 8.619,-6.27339c1.18054,0.14023 -0.14467,4.82384 -0.14467,4.82384c0,0 1.71131,0.97787 2.81953,1.64694c1.45306,0.87726 2.64418,3.70526 2.64418,3.70526c0,0 -5.42303,1.38386 -12.38646,3.76344c-2.66106,0.90934 -5.45185,3.58286 -8.39115,3.99614c-3.09002,0.43448 -7.0206,0.25106 -10.11665,-0.47992c-3.0322,-0.7159 -5.26395,-1.9661 -5.12168,-2.81949c0.902,-5.41083 10.92743,-5.35221 10.92743,-5.35221l-0.89204,-1.78407l-2.05693,-0.75276c0,0 0.49307,-2.21376 1.95442,-3.60366c1.58675,-1.50916 4.17537,-2.20665 4.81474,-2.27177c1.80653,-0.18399 7.33026,5.40163 7.33026,5.40163z" fill="none" stroke="#000000" stroke-width="1" stroke-linecap="round"/><path d="M233.29496,198.95459l-1.56106,0.33451" fill="none" stroke="#000000" stroke-width="1.5" stroke-linecap="round"/><path d="M224.45352,203.78782c0,0 0.40861,0.08172 0.59127,0.41822c0.21707,0.13609 0.49151,0.41762 0.34045,0.93123c-0.23598,0.80231 -1.03827,0.56633 -1.03827,0.56633l-1.10932,-0.33513c-0.16865,-0.10969 -0.34194,-0.20361 -0.51914,-0.28358c-0.16654,-0.04738 -0.33247,-0.09686 -0.49771,-0.1483l-0.70153,-0.15942c0,0 -0.06467,-0.01492 -0.15336,-0.05458c-0.92279,-0.11001 -1.89481,-0.00006 -2.83451,0.12735c0,0 -0.82895,0.11052 -0.93947,-0.71842c-0.11052,-0.82895 0.71842,-0.93947 0.71842,-0.93947c1.67724,-0.22031 3.46946,-0.36423 5.00866,0.3252c0.37487,0.10372 0.7533,0.19487 1.13454,0.27057z" fill="#d791e2" stroke="#000000" stroke-width="1" stroke-linecap="butt"/><path d="M220.62417,201.03829l0.38195,-0.08181c0.76154,-0.04312 1.41672,0.09866 2.05097,0.26049c1.02012,-0.00553 2.0415,0.025 3.04864,0.09163l0.56095,0.15844c0,0 0.79337,0.26446 0.52891,1.05782c-0.0819,0.2457 -0.21453,0.38995 -0.35862,0.47202c-0.1615,0.10635 -0.31821,0.13994 -0.31821,0.13994c-1.21613,0.25423 -2.19716,-0.01206 -3.18162,-0.24929c-0.92026,-0.00101 -1.84068,0.02897 -2.74794,0.08995c0,0 -0.83442,0.05563 -0.89006,-0.7788c-0.02842,-0.42621 0.1754,-0.64925 0.3816,-0.76546c0.17942,-0.30393 0.54343,-0.39493 0.54343,-0.39493z" fill="#d791e2" stroke="#000000" stroke-width="1" stroke-linecap="butt"/><path d="M213.31808,205.93502c-0.20257,-0.09722 -0.40046,-0.29278 -0.42658,-0.68466c-0.05563,-0.83443 0.7788,-0.89006 0.7788,-0.89006c1.97493,-0.13066 4.55285,0.12302 6.47783,0.59728c0.72558,0.17876 2.9135,0.9737 1.50714,2.52823c-0.43147,0.47693 -1.2923,0.00946 -1.92712,-0.09361c-1.91159,-0.31036 -3.76588,-1.06732 -5.76094,-1.18675l-0.00652,0.00163c0,0 -0.39556,0 -0.64259,-0.27205z" fill="#fff0fd" stroke="none" stroke-width="0.5" stroke-linecap="butt"/><path d="M220.14813,204.95758c0.72558,0.17876 2.9135,0.9737 1.50714,2.52823c-0.43147,0.47693 -1.2923,0.00946 -1.92712,-0.09361c-0.36698,-0.05958 -0.73184,-0.13562 -1.096,-0.22044c0.32872,-0.45747 0.5223,-1.01857 0.5223,-1.6249c0,-0.288 -0.04368,-0.56582 -0.12477,-0.82716c0.38965,0.07118 0.76505,0.15082 1.11846,0.23788z" fill="#de95ea" stroke="none" stroke-width="0.5" stroke-linecap="butt"/><path d="M213.31808,205.93502c-0.20257,-0.09722 -0.40046,-0.29278 -0.42658,-0.68466c-0.05563,-0.83443 0.7788,-0.89006 0.7788,-0.89006c1.97493,-0.13066 4.55285,0.12302 6.47783,0.59728c0.72558,0.17876 2.9135,0.9737 1.50714,2.52823c-0.43147,0.47693 -1.2923,0.00946 -1.92712,-0.09361c-1.91159,-0.31036 -3.76588,-1.06732 -5.76094,-1.18675l-0.00652,0.00163c0,0 -0.39556,0 -0.64259,-0.27205z" fill="none" stroke="#000000" stroke-width="1" stroke-linecap="butt"/><path d="M239.42796,211.82004c3.82187,-3.82082 7.77789,-3.05568 12.6486,-4.77755c6.29826,-1.98936 12.79619,-4.63363 18.23927,-0.01786c0,0 0.43792,0.37536 0.27467,0.8663l0.10976,1.2039c-0.54944,2.16183 -1.29715,3.98584 -2.44897,5.65157c-0.30951,0.44761 -2.20215,2.34659 -4.48785,3.85404c-2.33975,1.5431 -5.08859,2.69559 -6.72679,3.18363c-3.17927,0.94716 -7.08277,0.63271 -10.29613,0.12625c-2.13063,-0.33581 -7.72843,-2.79898 -7.30099,-7.84945c0,0 -0.3618,-2.19499 -0.01157,-2.24082z" fill="#de95ea" stroke="none" stroke-width="0.5" stroke-linecap="butt"/><path d="M239.42796,211.82004c3.82187,-3.82082 7.77789,-3.05568 12.6486,-4.77755c2.45238,-0.77461 4.93503,-1.6485 7.3739,-2.15444c5.1849,0.27482 7.25146,3.97697 7.18139,8.30712c-0.07058,4.36243 -14.3888,7.95027 -17.7168,7.87427c-1.6621,-0.03796 -3.49061,-0.48026 -5.17368,-0.25567c-2.23908,-1.21109 -4.58408,-3.41792 -4.30183,-6.75293c0,0 -0.3618,-2.19499 -0.01157,-2.24082z" fill="#fdebf6" stroke="none" stroke-width="0.5" stroke-linecap="butt"/><path d="M239.42796,211.82004c3.82187,-3.82082 7.77789,-3.05568 12.6486,-4.77755c6.29826,-1.98936 12.79619,-4.63363 18.23927,-0.01786c0,0 0.43792,0.37536 0.27467,0.8663l0.10976,1.2039c-0.54944,2.16183 -1.29715,3.98584 -2.44897,5.65157c-0.30951,0.44761 -2.20215,2.34659 -4.48785,3.85404c-2.33975,1.5431 -5.08859,2.69559 -6.72679,3.18363c-3.17927,0.94716 -7.08277,0.63271 -10.29613,0.12625c-2.13063,-0.33581 -7.72843,-2.79898 -7.30099,-7.84945c0,0 -0.3618,-2.19499 -0.01157,-2.24082z" fill="none" stroke="#000000" stroke-width="1" stroke-linecap="butt"/><path d="M242.54103,206.30978c0,0 -3.8121,3.08216 -5.29829,3.26664c-1.41025,0.17506 -2.45397,-2.56836 -2.41942,-2.85233c0.0881,-0.72439 8.06983,-4.81581 8.06983,-4.81581c0,0 -0.08674,-0.71264 0.48334,-1.34976c0.95362,-1.06578 3.2175,-2.44792 6.93826,-3.79109c2.59236,-0.93582 6.95947,-1.67427 8.95077,-1.06144c0.72576,0.22335 0.88148,2.15293 0.88148,2.15293c0,0 2.22629,0.58597 3.22461,0.67926c1.08724,0.10161 3.05485,-0.09239 3.05485,-0.09239c0,0 0.96489,1.88483 -0.21128,3.2395c-0.53156,0.61224 -2.19488,1.57279 -2.19488,1.57279c0,0 3.50115,1.89339 3.45974,4.69488c-0.06329,4.28165 -4.81493,10.09675 -15.38046,10.94437c-1.58322,0.12701 -7.71452,-0.74487 -9.20033,-3.71328c-2.42232,-4.83943 1.28501,-7.17237 1.28501,-7.17237z" fill="#ac0e49" stroke="#000000" stroke-width="0" stroke-linecap="round"/><path d="M242.54103,206.30978c0,0 -3.8121,3.08216 -5.29829,3.26664c-1.41025,0.17506 -2.45397,-2.56836 -2.41942,-2.85233c0.0881,-0.72439 8.06983,-4.81581 8.06983,-4.81581c0,0 -0.08674,-0.71264 0.48334,-1.34976c0.95362,-1.06578 3.2175,-2.44792 6.93826,-3.79109c2.59236,-0.93582 6.95947,-1.67427 8.95077,-1.06144c0.72576,0.22335 0.88148,2.15293 0.88148,2.15293c0,0 2.22629,0.58597 3.22461,0.67926c1.08724,0.10161 3.05485,-0.09239 3.05485,-0.09239c0,0 0.11312,0.22095 0.21467,0.56593c-1.0931,0.55768 -1.9617,1.33327 -2.72075,2.27002c-0.07882,0.0338 -1.1921,0.55473 -1.92189,-0.01754c-1.04128,-0.81654 -1.78815,-2.82524 -1.78815,-2.82524l-1.80276,-2.5286c0,0 0.86375,1.74644 -0.44603,2.98309c-1.36664,1.29034 -5.2977,3.65535 -8.69557,4.40449c-3.36382,0.74165 -6.20157,-0.12608 -6.20157,-0.12608l-0.61052,3.12952l1.65122,1.69586l-1.54713,2.50438l3.0085,-0.07466c0,0 14.02003,-3.92308 16.10279,-4.15004c0.84501,-0.09208 4.16456,2.16863 4.16456,2.16863l-2.47186,4.58436c0,0 -1.27137,-0.15531 -3.75944,0.21191c-4.34127,0.64075 -10.41518,1.8843 -11.0139,2.3912c-0.30942,0.16153 -0.58475,0.37944 -0.81235,0.64009c-0.56287,0.3852 -0.97729,0.97145 -1.13978,1.65531c-1.61606,-0.58844 -3.10167,-1.4746 -3.73725,-2.74437c-2.42232,-4.83943 1.28501,-7.17237 1.28501,-7.17237z" fill="#ff292e" stroke="#000000" stroke-width="0" stroke-linecap="round"/><path d="M242.54103,206.30978c0,0 -3.8121,3.08216 -5.29829,3.26664c-1.41025,0.17506 -2.45397,-2.56836 -2.41942,-2.85233c0.0881,-0.72439 8.06983,-4.81581 8.06983,-4.81581c0,0 -0.08674,-0.71264 0.48334,-1.34976c0.95362,-1.06578 3.2175,-2.44792 6.93826,-3.79109c2.59236,-0.93582 6.95947,-1.67427 8.95077,-1.06144c0.72576,0.22335 0.88148,2.15293 0.88148,2.15293c0,0 2.22629,0.58597 3.22461,0.67926c1.08724,0.10161 3.05485,-0.09239 3.05485,-0.09239c0,0 0.96489,1.88483 -0.21128,3.2395c-0.53156,0.61224 -2.19488,1.57279 -2.19488,1.57279c0,0 3.50115,1.89339 3.45974,4.69488c-0.06329,4.28165 -4.81493,10.09675 -15.38046,10.94437c-1.58322,0.12701 -7.71452,-0.74487 -9.20033,-3.71328c-2.42232,-4.83943 1.28501,-7.17237 1.28501,-7.17237z" fill="none" stroke="#000000" stroke-width="1" stroke-linecap="round"/><path d="M242.6584,206.54453l-0.58686,-1.05636" fill="none" stroke="#000000" stroke-width="1" stroke-linecap="round"/><path d="M243.01052,201.96698l1.87797,2.11271" fill="none" stroke="#000000" stroke-width="1" stroke-linecap="round"/><path d="M259.97093,198.15234c0,0 -0.2183,1.74906 -1.49904,2.46779c-3.52137,1.97617 -10.29695,3.16612 -10.29695,3.16612" fill="none" stroke="#000000" stroke-width="1" stroke-linecap="round"/><path d="M263.78554,203.02333l-2.87564,0.05868" fill="none" stroke="#000000" stroke-width="1" stroke-linecap="round"/><path d="M245.71009,207.65957l-1.70191,0.17605" fill="none" stroke="#000000" stroke-width="1" stroke-linecap="round"/><path d="M259.72125,202.7667c0.374,0.74799 -0.374,1.12199 -0.374,1.12199l-0.44485,0.21563c-3.84821,1.37231 -7.6633,3.14229 -11.83294,2.92292c0,0 -0.83483,-0.04911 -0.78573,-0.88395c0.04911,-0.83484 0.88394,-0.78574 0.88394,-0.78574c3.89341,0.25901 7.58562,-1.54564 11.17219,-2.82835l0.25939,-0.13649c0,0 0.74799,-0.374 1.122,0.374z" fill="#de95ea" stroke="none" stroke-width="0.5" stroke-linecap="butt"/><path d="M245.51937,210.65259c0,-0.83628 0.83628,-0.83628 0.83628,-0.83628l-0.05185,0.00733c5.73031,-0.76077 10.56578,-2.70284 16.02674,-4.65354c0,0 0.78756,-0.28127 1.06883,0.50629c0.28127,0.78757 -0.50629,1.06884 -0.50629,1.06884c-5.56049,1.98555 -10.52612,3.9538 -16.36824,4.73631l-0.16921,0.00734c0,0 -0.83628,0 -0.83628,-0.83628z" fill="#de95ea" stroke="none" stroke-width="0.5" stroke-linecap="butt"/><path d="M261.45276,204.78393c0,0.78839 -0.74324,0.83354 -0.82837,0.83613c-4.0974,1.88209 -9.24978,3.62026 -13.74362,3.9303c0,0 -0.83443,0.05563 -0.89006,-0.7788c-0.05563,-0.83443 0.7788,-0.89006 0.7788,-0.89006c4.33173,-0.27723 9.40153,-2.01424 13.31726,-3.85539l0.5297,-0.07845c0,0 0.83628,0 0.83628,0.83628z" fill="#de95ea" stroke="none" stroke-width="0.5" stroke-linecap="butt"/><path d="M247.06946,207.02724c0,0 -0.83483,-0.04911 -0.78573,-0.88395c0.00264,-0.04507 0.00759,-0.08756 0.01456,-0.12763c0.14365,0.3458 0.4465,0.69104 0.8214,1.01412c-0.01675,-0.00083 -0.03348,-0.00167 -0.05024,-0.00255z" fill="#ffeffc" stroke="none" stroke-width="0.5" stroke-linecap="butt"/><path d="M253.85826,204.26492c-0.03692,-0.00769 -0.07563,-0.01758 -0.11603,-0.02952c0.06511,-0.02228 0.13017,-0.04474 0.19519,-0.06734c-0.03881,0.05857 -0.06938,0.0989 -0.07916,0.09686z" fill="#ffeffc" stroke="none" stroke-width="0.5" stroke-linecap="butt"/><path d="M245.51937,210.65259c0,-0.83628 0.83628,-0.83628 0.83628,-0.83628l-0.05185,0.00733c1.50717,-0.20009 2.95243,-0.48191 4.36345,-0.82411c1.26357,0.47067 2.48598,0.7456 3.63347,0.72443c-2.50054,0.76567 -5.04225,1.39142 -7.77586,1.75757l-0.16921,0.00734c0,0 -0.83628,0 -0.83628,-0.83628z" fill="#ffeffc" stroke="none" stroke-width="0.5" stroke-linecap="butt"/><path d="M262.33054,205.17009c0,0 0.78756,-0.28127 1.06883,0.50629c0.28127,0.78757 -0.50629,1.06884 -0.50629,1.06884c-1.85683,0.66304 -3.64732,1.32416 -5.42627,1.93983c0.63251,-0.46446 1.21844,-1.0989 1.7483,-1.93152c0.11061,-0.17382 0.21678,-0.36645 0.31523,-0.57272c0.91981,-0.33254 1.85054,-0.67149 2.80019,-1.01071z" fill="#ffeffc" stroke="none" stroke-width="0.5" stroke-linecap="butt"/><path d="M246.88077,209.55035c0,0 -0.83443,0.05563 -0.89006,-0.7788c-0.05563,-0.83443 0.7788,-0.89006 0.7788,-0.89006c0.44146,-0.02826 0.89057,-0.07166 1.34535,-0.12881c0.66497,0.41901 1.33511,0.74561 1.69787,0.90238c0.28959,0.12514 0.57746,0.24143 0.86322,0.34769c-1.29092,0.27165 -2.56761,0.4629 -3.79516,0.5476z" fill="#ffeffc" stroke="none" stroke-width="0.5" stroke-linecap="butt"/><path d="M261.45276,204.78393c0,0.78839 -0.74324,0.83354 -0.82837,0.83613c-0.34338,0.15772 -0.69416,0.31444 -1.05134,0.46939c0.2844,-0.62165 0.49728,-1.35604 0.55461,-2.0694l0.48882,-0.07241c0,0 0.83628,0 0.83628,0.83628z" fill="#ffeffc" stroke="none" stroke-width="0.5" stroke-linecap="butt"/><path d="M259.72125,202.7667c0.374,0.74799 -0.374,1.12199 -0.374,1.12199l-0.44485,0.21563c-3.84821,1.37231 -7.6633,3.14229 -11.83294,2.92292c0,0 -0.83483,-0.04911 -0.78573,-0.88395c0.04911,-0.83484 0.88394,-0.78574 0.88394,-0.78574c3.89341,0.25901 7.58562,-1.54564 11.17219,-2.82835l0.25939,-0.13649c0,0 0.74799,-0.374 1.122,0.374z" fill="none" stroke="#000000" stroke-width="1" stroke-linecap="butt"/><path d="M245.51937,210.65259c0,-0.83628 0.83628,-0.83628 0.83628,-0.83628l-0.05185,0.00733c5.73031,-0.76077 10.56578,-2.70284 16.02674,-4.65354c0,0 0.78756,-0.28127 1.06883,0.50629c0.28127,0.78757 -0.50629,1.06884 -0.50629,1.06884c-5.56049,1.98555 -10.52612,3.9538 -16.36824,4.73631l-0.16921,0.00734c0,0 -0.83628,0 -0.83628,-0.83628z" fill="none" stroke="#000000" stroke-width="1" stroke-linecap="butt"/><path d="M261.45276,204.78393c0,0.78839 -0.74324,0.83354 -0.82837,0.83613c-4.0974,1.88209 -9.24978,3.62026 -13.74362,3.9303c0,0 -0.83443,0.05563 -0.89006,-0.7788c-0.05563,-0.83443 0.7788,-0.89006 0.7788,-0.89006c4.33173,-0.27723 9.40153,-2.01424 13.31726,-3.85539l0.5297,-0.07845c0,0 0.83628,0 0.83628,0.83628z" fill="none" stroke="#000000" stroke-width="1" stroke-linecap="butt"/></g><g stroke="#000000" stroke-width="1"><path d="M252.70382,172.97734l1.67257,0.47787c0,0 0.00079,-2.11955 0.3845,-2.87274c0.32237,-0.63281 1.76594,-1.34849 1.76594,-1.34849c0,0 -0.04327,-1.08138 0.40252,-1.42812c0.18995,-0.14773 2.42957,-1.35817 3.01257,-1.03876c0.47736,0.26152 0.64686,5.33414 0.64686,5.33414c0,0 2.62642,-6.32125 3.89427,-6.96612c0.1785,-0.09079 2.88377,1.42116 2.63567,2.50324c-0.44072,1.92224 -3.70353,6.46859 -4.12806,10.42914c-0.25667,2.39462 2.59597,4.52456 1.83453,5.87482c-0.43224,0.76649 -2.32124,2.23014 -3.50552,1.88883c-1.28109,-0.36921 -1.84593,-2.57947 -1.84593,-2.57947c0,0 -2.18763,0.17552 -2.84814,-0.49819c-0.66687,-0.68021 -1.13417,-3.56376 -1.13417,-3.56376l-2.30974,0.1593z" fill="#f89688" stroke-linecap="round"/><path d="M256.60646,168.99502l0.55752,4.69912l-2.54867,-0.55752" fill="none" stroke-linecap="round"/><path d="M255.73036,179.26938l1.91151,-0.63717" fill="none" stroke-linecap="round"/><path d="M254.56962,174.76558c0.98451,2.93903 -1.31299,6.35854 -5.13158,7.63767c-3.8186,1.27913 -7.76741,0.15614 -8.53749,-2.84622c-0.42698,-1.66469 1.15369,-6.51782 4.97228,-7.79696c3.8186,-1.27913 7.71228,0.06648 8.69679,3.00551z" fill="#dc94e7" stroke-linecap="butt"/></g><g><path d="M248.67284,181.72025c0,0 3.13215,2.08023 4.27706,3.4511c1.2059,1.44392 2.78489,5.00465 2.78489,5.00465l-1.76549,0.9292l-2.97344,-2.13716c0,0 -1.43489,-1.76137 -2.69537,-1.86229c-5.7671,-0.46176 -16.72498,5.30034 -16.72498,5.30034c0,0 -3.09862,-0.47588 -4.33951,-0.19461c-1.05014,0.23803 -2.62952,1.77425 -2.62952,1.77425c0,0 -2.06496,-1.93926 -1.50923,-3.22171c0.64024,-1.47748 5.13313,-4.5836 5.13313,-4.5836l-0.09292,-5.38939c0,0 5.34815,-4.61831 11.42339,-4.61054c6.98964,0.00894 9.11201,5.53975 9.11201,5.53975z" fill="#fdebf6" stroke="#000000" stroke-width="0" stroke-linecap="round"/><path d="M235.94275,187.22857c0.00151,0.08742 2.03909,-0.81238 2.1906,-0.91525c0.24782,-0.16826 0.86744,-0.60221 1.62525,-1.06999c-0.691,-0.42304 -1.38313,-1.0008 -1.84784,-1.53551c-1.18065,0.57285 -2.00069,1.61762 -1.96802,3.52074zM242.91016,183.75499c0.12191,-0.31578 0.26049,-0.55799 0.40816,-0.7377c-0.76269,-0.00003 -1.62732,-0.01291 -2.48934,0.04344c0.43044,0.33635 0.80118,0.70508 1.03688,1.05074c0.36741,-0.15858 0.72243,-0.28429 1.04428,-0.35648zM234.3131,187.82754c-0.7048,-3.21437 2.92188,-6.76716 6.08983,-6.84322c0.55589,-0.01335 4.80552,-0.0354 5.10258,1.02081c0.1541,0.15169 0.24964,0.36269 0.24964,0.596c0,0.36912 -0.75348,2.17053 -1.94313,2.71394c-1.18965,0.54339 -8.92273,5.14025 -9.49891,2.51246z" fill="#ff0000" stroke="none" stroke-width="0.5" stroke-linecap="butt"/><path d="M248.67284,181.72025c0,0 3.13215,2.08023 4.27706,3.4511c1.2059,1.44392 2.78489,5.00465 2.78489,5.00465l-1.76549,0.9292l-2.97344,-2.13716c0,0 -0.7925,-0.9728 -1.71693,-1.51392c-0.02483,-0.05957 -0.04926,-0.09623 -0.04926,-0.09623c-0.82964,-1.24447 -1.39279,-3.34272 -2.69245,-4.07534c-2.05751,-1.15982 -5.84429,-0.73346 -8.14642,-0.72269c-3.54626,0.77967 -5.10154,3.48055 -6.9133,6.24333c-0.00086,-0.04149 -0.00183,-0.08278 -0.00292,-0.12388c0.00803,-0.04995 0.00803,-0.08296 0.00803,-0.08296c0,-0.89824 0,-2.16814 0,-3.06637c0,0 0,-0.55752 -0.55752,-0.55752c-0.14448,0 -0.25152,0.03744 -0.33082,0.09292c-0.22044,0 -0.46434,0 -0.71731,0c-0.41222,-0.1222 -0.92806,-0.13017 -1.57284,0c-0.0314,0 -0.0624,0 -0.09295,0l-0.07369,-4.27434c0,0 5.34816,-4.61831 11.42339,-4.61054c6.98965,0.00894 9.11201,5.53975 9.11201,5.53975z" fill="#dc94e7" stroke="#000000" stroke-width="0" stroke-linecap="butt"/><path d="M248.67282,181.72026c0,0 3.13216,2.08022 4.27706,3.4511c1.20591,1.44392 2.78489,5.00465 2.78489,5.00465l-1.76548,0.9292l-2.97345,-2.13717c0,0 -1.43488,-1.76137 -2.69537,-1.86229c-5.76709,-0.46175 -16.72497,5.30034 -16.72497,5.30034c0,0 -3.09862,-0.47588 -4.33951,-0.19461c-1.05014,0.23804 -2.62952,1.77426 -2.62952,1.77426c0,0 -2.06496,-1.93926 -1.50923,-3.2217c0.64024,-1.47748 5.13313,-4.58361 5.13313,-4.58361l-0.09292,-5.38938" fill="none" stroke="#000000" stroke-width="1" stroke-linecap="round"/><path d="M231.66841,186.92379l-0.09292,2.41593" fill="none" stroke="#000000" stroke-width="1" stroke-linecap="round"/><path d="M246.164,182.18486l5.9469,5.66814l-1.02213,1.02213" fill="none" stroke="#000000" stroke-width="1" stroke-linecap="round"/><path d="M240.40293,180.98432c0.55589,-0.01335 4.80551,-0.0354 5.10256,1.02081c0.1541,0.15169 0.24964,0.36269 0.24964,0.596c0,0.06587 -0.02398,0.17733 -0.07016,0.3191c-1.38912,-0.66286 -3.37933,-0.49776 -4.78108,-0.45984c-1.56728,0.04239 -2.53838,0.03734 -3.9242,0.78868c-0.67251,0.18292 -1.28111,0.45712 -1.77949,0.86075c1.18998,-1.75355 3.28076,-3.07935 5.20271,-3.1255z" fill="#ac0e49" stroke="none" stroke-width="0.5" stroke-linecap="butt"/></g><path d="M176.16667,243.83333v-127.66667h127.66667v127.66667z" fill="none" stroke="none" stroke-width="NaN" stroke-linecap="butt"/><g stroke="#000000"><g stroke-linecap="round"><path d="M259.48922,165.07912c0,0 6.6792,-5.8032 10.0354,-1.23894c0.71283,0.96942 0.17535,1.82584 -0.9258,2.31494c-1.16969,0.51954 -2.97541,0.65643 -4.59414,1.19539c-2.81214,0.93631 -4.88714,2.56045 -4.88714,2.56045l0.37168,-4.83187z" fill="#0066cd" stroke-width="0"/><path d="M269.52462,163.84017c0.71283,0.96941 0.17535,1.82584 -0.9258,2.31494c-1.16969,0.51955 -2.97541,0.65644 -4.59414,1.19539c-2.81215,0.93631 -4.88714,2.56045 -4.88714,2.56045l0.22499,-2.92487c2.68069,-1.33089 5.61532,-2.97318 7.69305,-4.76771c0.01102,-0.00951 0.0227,-0.01961 0.03501,-0.03026c0.90251,0.19498 1.75114,0.69614 2.45402,1.65204z" fill="#061482" stroke-width="0"/><path d="M269.52463,163.84016c0.71283,0.96942 0.17534,1.82584 -0.9258,2.31494c-1.16969,0.51955 -2.97542,0.65644 -4.59414,1.19541c-2.81215,0.93632 -4.88715,2.56045 -4.88715,2.56045l0.37168,-4.83185c0,0 6.67923,-5.80321 10.03541,-1.23895z" fill="none" stroke-width="1"/></g><g><path d="M223.43612,170.90211c0,2.2238 -1.63634,4.76991 -3.65487,4.76991c-2.01853,0 -3.65487,-2.54611 -3.65487,-4.76991c0,-2.2238 1.63634,-4.02655 3.65487,-4.02655c2.01853,0 3.65487,1.80275 3.65487,4.02655z" fill="#f99688" stroke-width="1" stroke-linecap="butt"/><path d="M220.33878,173.19415c0,0 -11.4703,-25.38755 12.37503,-27.22103c31.37649,-2.41255 22.68691,21.52193 22.68691,21.52193c0,0 3.95903,-5.68756 4.06371,-5.1292c0.14507,0.7737 -0.25634,4.82346 -1.03138,8.28031c-0.30409,1.3563 -0.66007,4.22125 -1.59466,4.51811c-0.77557,0.24637 -2.18104,-1.97012 -2.18104,-1.97012c0,0 -2.33664,2.30634 -6.863,4.08837c-7.3103,2.87809 -19.73443,5.38494 -32.77849,2.05416c-1.23503,-0.31537 -1.44839,-1.59711 -0.14626,-2.82393c1.76003,-1.65825 5.46916,-3.31861 5.46916,-3.31861z" fill="#fde0be" stroke-width="0" stroke-linecap="round"/><path d="M232.71381,145.97312c31.37649,-2.41255 22.68691,21.52193 22.68691,21.52193c0,0 3.95903,-5.68756 4.06371,-5.1292c0.14507,0.7737 -0.25634,4.82346 -1.03138,8.28031c-0.06552,0.29223 -0.13345,0.6545 -0.20906,1.04603c-0.5042,-0.30701 -1.03827,-0.58862 -1.59179,-0.8463c0.00492,-0.04252 0.00745,-0.08577 0.00745,-0.1296c0,-0.61582 -0.49923,-1.11504 -1.11504,-1.11504c-0.36209,0 -0.68387,0.17259 -0.88755,0.43999c-2.25757,-0.7874 -4.62439,-1.24312 -6.50077,-1.45078c-7.81773,-0.86522 -19.67567,-0.10632 -27.88412,4.40431c-1.0117,-2.37946 -10.14261,-25.28357 12.46164,-27.02162z" fill="#f89688" stroke-width="0" stroke-linecap="round"/><path d="M232.71381,145.97312c31.37647,-2.41255 22.68691,21.52191 22.68691,21.52191c0,0 3.95902,-5.68756 4.06371,-5.1292c0.14507,0.7737 -0.25634,4.82346 -1.03138,8.28031c-0.30409,1.3563 -0.66007,4.22125 -1.59466,4.51811c-0.77557,0.24637 -2.18104,-1.97012 -2.18104,-1.97012c0,0 -2.33664,2.30634 -6.86299,4.08837c-7.3103,2.87809 -19.73443,5.38494 -32.77849,2.05416c-1.23503,-0.31537 -1.44839,-1.59711 -0.14627,-2.82393c1.76003,-1.65825 5.46916,-3.31861 5.46916,-3.31861c0,0 -11.47028,-25.38753 12.37504,-27.22101z" fill="none" stroke-width="1" stroke-linecap="round"/><path d="M256.88745,170.46849l1.11504,-3.59292" fill="none" stroke-width="1" stroke-linecap="round"/></g><g stroke-linecap="round"><path d="M219.09985,170.4685c0,0 -6.6421,-17.09697 -5.61641,-20.08904c1.30644,-3.81105 11.57157,-9.15364 18.82599,-9.38026c8.82149,-0.27557 14.12839,0.76763 18.65389,3.61249c3.07578,1.93353 5.67636,6.40548 5.67636,6.40548l-1.23894,16.23008c0,0 -7.185,-5.46926 -19.70444,-4.39628c-12.19199,1.04491 -16.59645,7.61752 -16.59645,7.61752z" fill="#ff292e" stroke-width="0"/><path d="M249.68384,164.44535c0,0 -0.05203,-20.92976 3.47754,-18.00325c2.22798,1.84732 3.47827,4.57505 3.47827,4.57505l-1.23894,16.23008c0,0 -2.44118,-1.3835 -3.45959,-1.88264c-0.86046,-0.42171 -2.25727,-0.91924 -2.25727,-0.91924z" fill="#ac0e49" stroke-width="0.5"/><path d="M213.48341,150.37944c1.30644,-3.81104 11.57157,-9.15364 18.82599,-9.38026c8.82149,-0.27557 14.12838,0.76763 18.65389,3.61249c3.07578,1.93352 5.67636,6.40548 5.67636,6.40548l-1.23894,16.23009c0,0 -7.185,-5.46925 -19.70444,-4.39627c-12.19198,1.04491 -16.59644,7.61751 -16.59644,7.61751c0,0 -6.64211,-17.09697 -5.61642,-20.08904z" fill="none" stroke-width="1"/></g></g><g stroke="#000000"><path d="M252.91529,167.73l0.94351,3.68822l-14.15248,-8.83457c0,0 -8.619,0.84233 -11.9602,2.03875c-3.2,1.14585 -7.68173,4.99462 -7.68173,4.99462c0,0 -4.69687,-0.67526 -6.61477,-0.59792c-1.54708,0.06239 -4.02104,1.02679 -4.02104,1.02679c0,0 0.22437,-3.14542 0.99679,-4.56364c0.93891,-1.7239 4.23535,-5.04289 4.23535,-5.04289c0,0 -10.01656,-5.26086 -8.36439,-6.59898c1.11982,-0.90697 6.41862,-4.21592 11.5388,-4.44757c3.08901,-0.13975 7.20408,2.64081 7.20408,2.64081c0,0 0.38442,-4.47561 3.84621,-5.67748c1.96208,-0.68119 6.87537,-1.35587 6.87537,-1.35587c0,0 -4.08508,3.8278 -4.06789,6.59298c0.0417,6.71112 8.18499,10.99041 8.18499,10.99041c0,0 5.13644,-0.54893 9.02431,0.64833c4.61972,1.42263 16.87903,7.32853 16.87903,7.32853z" fill="#4fa6ec" stroke-width="0" stroke-linecap="round"/><path d="M216.58238,155.58495l4.42685,5.28763l-6.7821,6.44286c0,0 2.81527,1.34809 3.72124,2.02809c-1.50063,-0.17714 -3.43061,-0.36749 -4.49871,-0.32441c-1.54708,0.06239 -4.02104,1.02679 -4.02104,1.02679c0,0 0.22436,-3.14542 0.99679,-4.56364c0.93891,-1.7239 4.23535,-5.04289 4.23535,-5.04289c0,0 -10.01656,-5.26085 -8.36439,-6.59898c1.11982,-0.90697 6.41862,-4.2159 11.5388,-4.44757c3.08901,-0.13976 7.20408,2.64081 7.20408,2.64081c0,0 0.38441,-4.47562 3.84621,-5.67748c1.96208,-0.68119 6.87537,-1.35587 6.87537,-1.35587c0,0 -0.63182,0.59203 -1.39746,1.47863c-3.94708,0.87721 -5.69536,5.43413 -6.17271,9.00665c-0.08764,0.21 -0.16359,0.43453 -0.22881,0.67127c-3.00578,-0.20265 -8.37243,-2.24587 -8.37243,-2.24587z" fill="#66ffff" stroke-width="0" stroke-linecap="butt"/><path d="M252.91537,167.73002l0.94349,3.68822l-14.15249,-8.83458c0,0 -8.61899,0.84234 -11.9602,2.03875c-3.20001,1.14585 -7.68173,4.99461 -7.68173,4.99461c0,0 -4.69687,-0.67526 -6.61477,-0.59792c-1.54709,0.06238 -4.02104,1.02678 -4.02104,1.02678c0,0 0.22436,-3.14542 0.99678,-4.56364c0.93891,-1.7239 4.23534,-5.04289 4.23534,-5.04289c0,0 -10.01656,-5.26086 -8.36439,-6.59898c1.11982,-0.90695 6.41862,-4.2159 11.5388,-4.44755c3.08901,-0.13976 7.20408,2.64081 7.20408,2.64081c0,0 0.38441,-4.47562 3.8462,-5.67748c1.96208,-0.68119 6.87537,-1.35587 6.87537,-1.35587c0,0 -4.08509,3.82779 -4.0679,6.59298c0.0417,6.71112 8.18498,10.99041 8.18498,10.99041c0,0 5.13644,-0.54893 9.02432,0.64833c4.61972,1.42263 16.87902,7.32853 16.87902,7.32853z" fill="none" stroke-width="1" stroke-linecap="round"/></g><g stroke-linecap="butt"><path d="M223.08591,155.09753c0.39062,-0.28625 0.75972,-0.50816 1.10979,-0.67319c0.65047,-1.11211 1.50367,-1.79948 3.70599,-1.22016c2.65093,2.12112 2.99291,3.85531 4.61749,6.68775l0.07066,0.1398c0.06568,0.09965 0.11774,0.23883 0.07363,0.40449c-0.01723,0.10508 -0.06934,0.21595 -0.18909,0.30804c-0.10965,0.10392 -0.22728,0.1381 -0.33377,0.13872c-0.17429,0.01814 -0.30558,-0.05868 -0.39387,-0.14116c-2.12232,-1.61726 -3.77252,-6.65029 -7.01993,-5.33178c-0.3287,0.71327 -0.56059,1.59595 -1.08198,2.32919c-0.50438,0.70931 -1.07769,1.32399 -1.43553,2.02089c-0.06548,0.36059 -0.10055,0.72117 -0.09808,1.07741v0.07434c0,0 0,0.31851 -0.24074,0.47405c0.00359,0.0415 0.00805,0.08344 0.01344,0.12582c0,0 0.06916,0.55322 -0.48406,0.62236c-0.55322,0.06916 -0.62237,-0.48406 -0.62237,-0.48406c-0.1066,-0.86473 0.05769,-1.56717 0.3668,-2.21136c0.31002,-1.54924 1.07084,-3.06275 1.94163,-4.3412z" fill="#000000" stroke="none" stroke-width="0.5"/><path d="M239.10505,153.06157c-0.25885,1.04175 0.38151,5.88907 -1.3253,5.88003c-0.0522,-0.00028 -0.10178,-0.00261 -0.14888,-0.00688c-0.06349,0.09476 -0.16988,0.17795 -0.34562,0.217c-0.54424,0.12094 -0.66519,-0.4233 -0.66519,-0.4233c-0.71769,-3.29903 -0.15751,-10.72368 5.1026,-8.79782c2.20604,1.3715 4.33692,2.43251 6.03137,4.45343l0.23507,0.60539c0.06241,0.09899 0.10312,0.23114 0.0586,0.39291c-0.01697,0.10616 -0.06686,0.22033 -0.18452,0.31013c-0.10742,0.10181 -0.22809,0.13282 -0.33562,0.13262c-0.16915,0.01838 -0.29424,-0.0449 -0.3822,-0.12386c-1.91676,-1.19113 -6.31724,-6.65703 -8.04032,-2.63966z" fill="#000000" stroke="none" stroke-width="0.5"/><path d="M242.21213,167.95276c0.23184,2.78209 -0.49229,5.11341 -1.61739,5.20717c-1.12511,0.09375 -2.22514,-2.08555 -2.45698,-4.86764c-0.23184,-2.78209 0.4923,-5.11341 1.61741,-5.20718c1.12511,-0.09375 2.22513,2.08556 2.45697,4.86765z" fill="#000000" stroke="none" stroke-width="0"/><path d="M233.04458,168.90485c0.93685,2.71684 0.87825,5.20137 -0.13085,5.54934c-1.00912,0.34797 -2.58662,-1.57239 -3.52347,-4.28923c-0.93685,-2.71684 -0.87825,-5.20137 0.13086,-5.54934c1.00912,-0.34797 2.58662,1.57239 3.52347,4.28923z" fill="#000000" stroke="none" stroke-width="0"/><path d="M239.42216,177.80637c0.42604,1.92403 -0.08969,3.67443 -1.15192,3.90963c-1.06222,0.23521 -2.26869,-1.13384 -2.69473,-3.05787c-0.42604,-1.92403 0.08969,-3.67444 1.15192,-3.90965c1.06222,-0.23521 2.2687,1.13386 2.69474,3.05789z" fill="#ff6666" stroke="#000000" stroke-width="1"/></g></g></g></svg>