<svg version="1.1" xmlns="http://www.w3.org/2000/svg" xmlns:xlink="http://www.w3.org/1999/xlink" width="374.77477" height="288.28829" viewBox="0,0,374.77477,288.28829"><g transform="translate(-52.61261,-35.85585)"><g data-paper-data="{&quot;isPaintingLayer&quot;:true}" fill-rule="nonzero" stroke-linejoin="miter" stroke-miterlimit="10" stroke-dasharray="" stroke-dashoffset="0" style="mix-blend-mode: normal"><path d="M52.61262,324.14414v-288.28829h374.77477v288.28829z" fill="none" stroke="none" stroke-width="none" stroke-linecap="butt"/><path d="M322.74758,142.69388v6.25312h-8.28117v-6.25312z" data-paper-data="{&quot;index&quot;:null}" fill="#582700" stroke="none" stroke-width="0" stroke-linecap="butt"/><path d="M303.02044,135.19202v3.16811h-4.07329v-3.16811z" data-paper-data="{&quot;index&quot;:null}" fill="#582700" stroke="none" stroke-width="0" stroke-linecap="butt"/><g data-paper-data="{&quot;index&quot;:null}"><g data-paper-data="{&quot;index&quot;:null}"><g stroke="#000000" stroke-width="3" stroke-linecap="round"><path d="M300.93695,204.60868l-28.39244,-12.20019c0,0 -5.35402,-2.39506 -5.443,-3.54482c-0.26697,-3.44928 2.80253,-9.27828 4.63243,-15.66203c0.30415,-1.06109 6.32241,-0.02159 6.32241,-0.02159c0,0 9.39445,2.04044 15.40735,3.34645c9.15707,1.98891 23.4639,5.09631 23.4639,5.09631c0,0 7.37465,1.35751 6.65597,3.26707c0,0 9.87765,4.97264 9.60577,8.31425c-0.14342,1.76278 -6.53507,4.08535 -11.23416,2.77682c-5.89948,-1.64279 -3.04105,8.25473 -6.1843,13.34432c-4.74631,-0.26702 -14.83391,-4.71654 -14.83391,-4.71654z" data-paper-data="{&quot;origPos&quot;:null}" fill="#582700"/><path d="M303.04471,205.10467l8.30839,-24.41074l3.34885,1.01987l-8.04458,24.44986z" data-paper-data="{&quot;origPos&quot;:null}" fill="none"/></g><path d="M302.82123,204.2709l-35.29285,-15.16784l5.08535,-15.02468l1.06412,-1.01102l37.2914,7.2826z" fill="#66c8ff" stroke="#000000" stroke-width="1" stroke-linecap="round"/><path d="M306.25076,205.83061l-2.29072,-0.71091l8.02454,-24.28602l2.29072,0.71091z" fill="#ffffff" stroke="none" stroke-width="0" stroke-linecap="butt"/></g><g fill="#fffc96" stroke="#000000" stroke-width="2" stroke-linecap="round"><path d="M298.62866,203.2216c0,0 1.2053,-4.9602 0.89713,-12.55078c-0.31251,-7.69725 -1.82571,-13.86813 -1.82571,-13.86813l-1.83787,-0.57484c0,0 0.67543,-3.10411 2.71043,-2.71888c4.9807,0.94285 5.56215,33.95396 0.74422,33.33092c-3.01128,-0.38942 -2.80524,-4.76846 -2.80524,-4.76846z"/><path d="M289.57528,199.18964c0,0 4.89918,-2.87303 10.53215,-8.6305c5.63298,-5.75746 8.5336,-10.28046 8.5336,-10.28046l-1.33867,-0.46126c0,0 1.65747,-3.08528 4.37938,-2.12686c4.49441,1.58256 -19.9477,27.45543 -24.16352,24.79694c-2.00835,-1.26646 0.8509,-3.87855 0.8509,-3.87855z" data-paper-data="{&quot;index&quot;:null}"/></g></g><g data-paper-data="{&quot;origRot&quot;:0}" stroke="#000000" stroke-linecap="round"><path d="M261.42034,219.36983c0,0 1.80731,-4.46977 3.27186,-3.86395c4.32165,1.78767 9.17578,1.95345 12.57056,5.10198c1.40968,1.30743 0.41223,5.48575 0.41223,5.48575l-8.78208,31.99507c0,0 -0.86238,3.31518 -1.42714,5.20304c-0.60383,2.01843 -2.83755,4.52188 -4.87676,3.80719c-7.48734,-2.62403 -12.65042,-2.92177 -16.88295,-5.71127c-1.54198,-1.01626 -3.10959,-2.19289 -3.13978,-3.99988c-0.03948,-2.36041 2.34834,-6.19845 2.34834,-6.19845z" data-paper-data="{&quot;origPos&quot;:null}" fill="#ff0000" stroke-width="3"/><path d="M266.20518,266.41376c0,0 -6.69336,0.25035 -11.57263,-1.62501c-3.74353,-1.43885 -11.46232,-5.50709 -11.46232,-5.50709c0,0 -0.30566,-2.92258 0.21762,-4.44287c0.55125,-1.60155 2.53566,-3.55653 2.53566,-3.55653l22.66143,7.85222z" data-paper-data="{&quot;origPos&quot;:null}" fill="#976e57" stroke-width="2"/><path d="M261.37634,219.69807c0,0 1.80731,-4.46977 3.27187,-3.86394c4.32164,1.78766 9.17578,1.95345 12.57057,5.102c1.40968,1.30743 0.41223,5.48574 0.41223,5.48574l-8.78209,31.99508c0,0 -0.86235,3.31518 -1.42712,5.20304c-0.60383,2.01843 -2.83755,4.52187 -4.87676,3.80719c-7.48734,-2.62403 -12.65043,-2.92176 -16.88294,-5.71126c-1.54198,-1.01626 -3.10958,-2.19291 -3.13978,-3.99988c-0.03948,-2.36041 2.34832,-6.19845 2.34832,-6.19845z" data-paper-data="{&quot;origPos&quot;:null}" fill="#4b4b4b" stroke-width="3"/></g><path d="M228.47201,258.02126c0,0 -1.65165,4.18613 -3.5955,5.60876c-1.48811,1.08909 -3.40981,0.61588 -5.18533,0.06355c-4.87355,-1.5161 -8.29341,-5.27666 -15.03568,-9.38077c-1.83629,-1.11777 -1.17519,-4.3648 0.09462,-6.06832c1.18767,-1.5933 3.35294,-4.29244 3.35294,-4.29244l20.61453,-26.40037c0,0 2.78404,-3.33356 4.71492,-3.06146c4.64992,0.65522 7.77238,4.261 11.88602,6.46179c1.39406,0.74582 -1.12857,4.87735 -1.12857,4.87735c0,0 -3.9744,8.13999 -6.51824,13.35c-3.59031,7.35332 -9.19973,18.84194 -9.19973,18.84194z" fill="#4b4b4b" stroke="#000000" stroke-width="3" stroke-linecap="round"/><g stroke="#000000" stroke-linecap="round"><path d="M249.76812,181.1247c0,0 -29.12761,5.91484 -29.17896,-12.06568c-0.01894,-6.62461 16.72928,-5.02736 16.72928,-5.02736z" data-paper-data="{&quot;origPos&quot;:null}" fill="#66c8ff" stroke-width="2"/><path d="M241.46827,169.43607c0,0 -16.42583,-1.89997 -16.21055,-2.51368c0.68261,-1.94585 12.83876,-1.38252 12.83876,-1.38252z" data-paper-data="{&quot;origPos&quot;:null}" fill="#0a0a0a" stroke-width="1"/></g><g><g><path d="M237.86406,179.3591c0,0 4.30088,-13.92927 6.58803,-14.13337c6.86144,-0.61232 21.79197,2.61834 31.8714,4.16327c1.55818,0.23884 0.72236,13.81232 0.72236,13.81232l-3.12197,30.53037c0,0 -2.16303,14.81233 -3.86284,14.5518c-15.13144,-2.31928 -33.00393,-4.19549 -39.61279,-6.05984c-2.20294,-0.62144 1.18086,-16.05641 1.18086,-16.05641z" data-paper-data="{&quot;origPos&quot;:null}" fill="#66c8ff" stroke="#000000" stroke-width="3.5" stroke-linecap="round"/><path d="M255.74849,190.40106c-1.31642,-0.20177 -0.91548,-2.65874 -0.91548,-2.65874c0.83159,-5.09592 1.93048,-11.82981 2.76208,-16.92572c0,0 0.40094,-2.45695 1.71735,-2.25518c1.31642,0.20177 0.91548,2.65874 0.91548,2.65874c-0.83159,5.09592 -1.66317,10.19184 -2.49476,15.28776l-0.2673,1.63798c0,0 -0.40095,2.45695 -1.71736,2.25518z" fill="#ffffff" stroke="none" stroke-width="0.5" stroke-linecap="butt"/><path d="M266.95758,198.53119c-1.31642,-0.20177 -0.81272,-3.28841 -0.81272,-3.28841c1.04472,-6.40191 2.42522,-14.86157 3.46993,-21.26348c0,0 0.50371,-3.08663 1.82013,-2.88487c1.31642,0.20177 0.81272,3.28841 0.81272,3.28841c-1.04472,6.40191 -2.08942,12.80382 -3.13413,19.20575l-0.33581,2.05776c0,0 -0.50371,3.08663 -1.82013,2.88487z" fill="#ffffff" stroke="none" stroke-width="0.5" stroke-linecap="butt"/></g><g fill="none" stroke="#b9b9b9" stroke-width="3"><path d="M273.29498,174.02189c-0.62447,-1.47069 0.50301,-2.53261 1.94573,-3.54464c1.44271,-1.01202 2.75359,-1.18764 3.27882,-0.12025c1.11361,2.2632 -0.5615,2.99409 -1.69119,3.78654c-1.44273,1.01203 -2.65144,1.95536 -3.53336,-0.12163z" stroke-linecap="butt"/><path d="M274.39333,173.59214l-3.04568,2.08393" stroke-linecap="round"/><path d="M267.63175,175.74368c1.44271,-1.01202 2.7536,-1.18764 3.27882,-0.12024c1.11361,2.2632 -0.5615,2.99409 -1.69119,3.78654c-1.44272,1.01203 -2.65143,1.95536 -3.53334,-0.12164c-0.62447,-1.47069 0.50299,-2.5326 1.94571,-3.54465z" stroke-linecap="butt"/><path d="M266.78435,178.85857l-3.04569,2.08393" stroke-linecap="round"/><path d="M258.08157,179.61753c0.67189,-1.55242 2.01065,-1.19069 3.48563,-0.50008c1.47497,0.69062 2.30448,1.80663 1.85576,3.00097c-0.95142,2.53232 -2.35907,1.43877 -3.51401,0.89802c-1.47498,-0.69061 -2.77623,-1.20649 -1.82736,-3.3989z" stroke-linecap="butt"/><path d="M255.89283,178.8746l3.07772,1.49243" stroke-linecap="round"/><path d="M251.44921,174.17079c1.12235,-1.16106 2.19279,-0.20009 3.2736,1.13543c1.08082,1.33552 1.44311,2.77623 0.64042,3.70097c-1.70196,1.96068 -2.58684,0.27435 -3.43317,-0.77141c-1.08082,-1.33553 -2.06584,-2.42527 -0.48084,-4.06498z" stroke-linecap="butt"/><path d="M249.75028,172.45616l2.23791,2.83544" stroke-linecap="round"/><path d="M245.80808,167.10541c1.12234,-1.16104 2.1928,-0.20009 3.27361,1.13544c1.08083,1.33552 1.44311,2.77623 0.64042,3.70097c-1.70196,1.96067 -2.58684,0.27434 -3.43316,-0.77141c-1.08082,-1.33552 -2.06585,-2.42525 -0.48083,-4.06496z" stroke-linecap="butt"/><path d="M246.34707,168.22619l-2.23792,-2.83544" stroke-linecap="round"/></g></g><g><path d="M275.0027,173.07278c-12.46955,-0.22691 -24.56091,-0.48306 -29.47209,-1.62511c-4.4885,-1.04374 -5.76698,-3.84141 -5.76698,-3.84141c0,0 -1.73922,-2.48392 -1.7822,-4.01836c-0.12902,-4.60333 0.13847,-17.75114 1.45182,-29.05666c0.04383,-0.37732 0.08257,-0.58784 0.14951,-0.96196c0.20082,-1.12235 1.17631,-5.47332 1.17631,-5.47332c0,0 3.33967,-1.56607 5.14101,-1.98892c5.40399,-1.26856 18.98694,0.6057 33.32554,1.42806c1.29961,0.07454 3.47867,1.81822 3.47867,1.81822c0,0 1.49479,3.18126 1.38504,5.16194c-0.70949,12.80538 -1.54311,26.97111 -1.95246,30.20353c-0.13645,1.07748 -2.15817,5.21159 -2.15817,5.21159z" fill="#582700" stroke="#000000" stroke-width="2.5" stroke-linecap="round"/><path d="M236.31499,128.77807c-0.6536,-1.07761 0.45829,-1.71106 0.45829,-1.71106l1.37308,-0.73464c0.12314,-0.03353 0.24616,-0.06629 0.3691,-0.0983c-0.90393,-5.80694 0.42972,-12.76121 0.54629,-18.47857c0.03023,-1.48271 -0.2531,-5.50864 0.519,-6.76197c1.29292,-2.09874 3.04257,-1.46158 4.99851,-1.41897c3.32797,0.0725 6.62821,0.18378 9.9318,-0.2167c8.18892,-0.98331 16.28912,-1.06205 24.50557,-1.55777c2.59276,-0.15643 5.12279,-0.19146 7.71914,0.08195c0.71041,0.0748 1.6275,-0.15609 2.11274,0.35232c1.71855,1.8006 0.91539,3.74184 0.53977,5.69602c-0.74926,3.89799 -2.50263,7.38834 -2.7245,11.39229c-0.19085,3.0621 -0.75556,6.19574 -1.23343,9.2261c-0.16493,1.04575 0.13942,2.99594 -0.9745,3.75879c-2.28407,1.56421 -8.08197,0.22229 -10.69897,0.07862c-7.97975,-0.43806 -15.95685,-1.03579 -23.95018,-1.0325c-2.85984,0.09593 -5.58841,0.26866 -8.33353,0.7828c-0.03625,0.37188 -0.23096,0.8454 -0.94167,1.03245c-0.7711,0.20294 -1.19422,-0.1828 -1.40458,-0.50572c-0.09371,0.0247 -0.18751,0.04989 -0.28136,0.07557l-0.76507,0.48345c0,0 -1.11191,0.63344 -1.76553,-0.44416z" fill="#000000" stroke="none" stroke-width="0.5" stroke-linecap="butt"/><path d="M254.8212,144.85895c4.86639,-2.42503 9.24652,-0.19082 10.86513,4.61462c1.85635,5.51127 -2.12863,8.60062 -2.12863,8.60062c0,0 -2.62611,-1.10159 -5.97263,-1.5119c-4.16695,-0.51089 -6.46194,-0.07112 -6.46194,-0.07112c0,0 -2.90371,-8.3424 3.69807,-11.63222z" fill="#ffffff" stroke="#0a0a0a" stroke-width="2" stroke-linecap="butt"/><path d="M282.27452,146.16569c6.17622,3.99128 2.31905,11.96253 2.31905,11.96253c0,0 -2.22906,-0.68811 -6.42889,-0.63653c-3.37293,0.04143 -6.11059,0.84857 -6.11059,0.84857c0,0 -3.59952,-3.50571 -1.11289,-8.77857c2.16817,-4.59755 6.7806,-6.33811 11.33331,-3.39601z" data-paper-data="{&quot;index&quot;:null}" fill="#ffffff" stroke="#0a0a0a" stroke-width="2" stroke-linecap="butt"/><g data-paper-data="{&quot;index&quot;:null}" stroke="#000000" stroke-width="1" stroke-linecap="butt"><path d="M252.91554,172.73765c-12.51084,-3.21851 -5.87155,-15.11131 -5.87155,-15.11131l18.6671,4.63122c0,0 0.45006,13.88761 -12.79555,10.48008z" fill="#000000"/><path d="M252.36146,168.57819c3.17291,1.85803 5.25883,4.68207 4.67771,4.69487c-1.20086,0.02646 -2.56776,-0.13516 -4.12362,-0.53541c-4.66299,-1.19957 -6.66571,-3.6042 -7.34341,-6.14891c-0.13166,-0.49437 3.87567,0.28323 6.7893,1.98945z" fill="#ff8484"/><path d="M245.68602,161.85213c0.51295,-1.73669 1.358,-4.22579 1.358,-4.22579l16.40568,4.07017l-1.09073,4.42189c0,0 -16.68984,-4.20901 -16.67293,-4.26626z" fill="#ffffff"/></g></g><g><path d="M247.82893,173.59242c3.07493,-1.20845 1.07742,12.88319 1.58844,15.13282c0.55542,2.44502 -19.26744,-5.85425 -19.26744,-5.85425l-3.33973,-1.45273l22.27477,9.21994c0,0 7.85863,2.8083 6.70533,4.78181c0,0 -0.61468,11.12282 -13.23481,25.50008c-5.17292,-1.13975 -15.43059,-7.83453 -15.43059,-7.83453c0,0 -23.48687,-13.8428 -23.60643,-18.55758c-0.02767,-1.09177 2.75607,-13.89534 6.31707,-16.21319c11.81705,-7.69166 37.99337,-4.72237 37.99337,-4.72237z" fill="#582700" stroke="#000000" stroke-width="2.5" stroke-linecap="round"/><path d="M231.4801,184.17416c-0.46755,-0.22684 -0.93263,-0.46033 -1.39962,-0.69284c-0.10306,-0.05131 -1.21054,-0.74218 -1.82297,-0.84669c-3.35922,6.0837 -5.70453,12.60466 -9.41045,18.54356c-0.2901,0.54533 -0.78421,1.75539 -1.41765,2.85214c-0.09299,0.36944 -0.12012,0.67196 -0.02278,0.82006c0.82759,1.25933 2.5915,2.0866 3.66289,3.17933c0.06773,-0.37772 0.27952,-1.46748 0.45182,-1.89452c0.51165,-1.26823 1.01342,-2.52321 1.48478,-3.80526c1.65232,-4.49409 3.96435,-9.1806 6.1418,-13.43143c0.60075,-1.59559 1.38438,-3.23747 2.3322,-4.72434zM232.88271,184.82193c-0.94867,1.45815 -1.72132,3.0977 -2.31316,4.66962c-2.4856,4.79668 -4.73602,9.97432 -6.69478,15.02695c-0.80707,2.08186 -1.21644,5.52891 -3.74561,4.70358c-1.1546,-1.14963 -3.06179,-2.12972 -3.97557,-3.5088c-0.35823,0.31391 -0.73782,0.50463 -1.13242,0.49601c-0.55546,-0.01214 -2.10261,-1.58056 -2.59086,-1.93897c-2.91296,-2.13828 -6.82127,-4.18164 -7.33585,-8.03448c-2.51875,-5.72141 0.54966,-14.35291 4.26791,-18.97616c3.89659,-2.27976 7.4217,-2.53134 11.86241,-2.70743c3.20632,-0.12714 6.20088,-0.81826 9.46208,-0.58201c4.57754,-0.27526 9.15071,-0.41338 13.72705,-0.68265c2.10036,-0.12358 4.08063,-0.93936 5.30649,1.00892c0.00679,3.60046 0.01193,7.24025 -0.06715,10.85524c-0.02465,1.12686 -0.1529,3.41296 -1.05077,4.26332c-1.24778,1.18176 -2.90751,0.21743 -4.17822,-0.39658c-2.97425,-0.97004 -6.1794,-2.18535 -9.23919,-3.61104c-0.29844,0.16423 -0.64926,0.04905 -0.64926,0.04905c-0.56408,-0.18585 -1.11296,-0.40107 -1.65305,-0.63455zM216.64624,201.95699c1.30842,-3.86424 3.71702,-7.13734 5.12325,-10.91019c0.78266,-2.23951 1.83921,-6.33393 3.87046,-8.53678c0.05023,-0.14779 0.12752,-0.24667 0.12752,-0.24667l0.48191,-0.6111c0.35548,-0.67048 0.94171,-1.22578 1.56334,-1.67884c5.97451,1.53822 11.25829,5.69571 17.20683,7.66046c0.63762,0.3089 1.51706,0.8052 2.21584,0.9178c0.42978,0.06926 0.82694,-2.42711 0.85888,-2.73092c0.38889,-3.69898 -0.11689,-7.46578 0.12096,-11.17468c-0.06356,-0.37706 -3.07299,0.10188 -3.71053,0.13892c-4.60998,0.26778 -9.21606,0.42257 -13.82857,0.6852c-3.24412,-0.23168 -6.20357,0.44743 -9.39413,0.58102c-4.06092,0.17004 -7.29779,0.32397 -10.88951,2.32796c-3.27049,4.36655 -6.13266,12.17223 -3.80642,17.45635c0.56165,3.75414 5.60804,6.78448 8.48262,8.87446c0.03048,0.02216 0.87235,-1.46766 1.55699,-2.69369c0.0071,-0.02007 0.01397,-0.03983 0.02056,-0.0593z" fill="#000000" stroke="none" stroke-width="0.5" stroke-linecap="butt"/><path d="M229.17887,188.85851c-2.17746,4.25084 -4.52897,9.02665 -6.18128,13.52075c-0.47137,1.28205 -0.9767,2.53631 -1.48836,3.80455c-0.17228,0.42705 -0.38402,1.51682 -0.45174,1.89454c-1.0714,-1.09273 -2.85254,-1.92745 -3.68014,-3.18678c-0.09732,-0.14811 -0.07191,-0.45182 0.02108,-0.82126c0.63344,-1.09675 1.12445,-2.30927 1.41453,-2.85459c3.70592,-5.93889 6.10057,-12.54516 9.45978,-18.62885c0.61242,0.10451 1.72706,0.7981 1.83011,0.84941c0.46699,0.23251 0.93731,0.46883 1.40486,0.69567c-0.94781,1.48687 -1.72812,3.13098 -2.32886,4.72657z" data-paper-data="{&quot;noHover&quot;:false,&quot;origItem&quot;:[&quot;Path&quot;,{&quot;applyMatrix&quot;:true,&quot;segments&quot;:[[[926.17844,407.1979],[3.2606,1.25965],[-0.27949,0.97418]],[[925.31465,410.11917],[0.29084,-0.97519],[-0.06418,0.21521]],[[924.29914,413.90358],[-0.01258,-1.20526],[13.15638,4.16543]],[[964.1057,425.02121],[-12.99513,-4.87922],[1.17537,0.35239]],[[970.21765,426.67451],[-2.3817,-0.804],[0.75941,0.04146]],[[971.83798,426.41666],[-0.25651,0.23985],[2.18115,-2.03947]],[[976.78433,418.26967],[-1.76682,2.44279],[-0.76669,0.00973]],[[972.89889,418.10481],[0.90089,0.17138],[-2.67549,-0.50896]],[[964.88923,416.67374],[2.68829,0.42712],[-9.42353,-1.49721]],[[936.29671,409.90591],[9.13228,2.58714],[-3.35077,-0.55846]]],&quot;closed&quot;:true}]}" fill="#ffffff" stroke="none" stroke-width="0.5" stroke-linecap="butt"/><path d="M217.52756,200.40646c-0.10744,0.20182 -2.43832,4.38094 -2.48874,4.34428c-2.87459,-2.08998 -7.93963,-5.14407 -8.50127,-8.8982c-2.32622,-5.28412 0.54125,-13.13421 3.81176,-17.50076c3.59172,-2.00399 6.85188,-2.17669 10.9128,-2.34673c3.19055,-0.13359 6.18409,-0.81462 9.4282,-0.58295c4.61251,-0.26262 9.24446,-0.40086 13.85443,-0.66864c0.63756,-0.03703 3.64963,-0.51253 3.71317,-0.13547c-0.23784,3.7089 0.27633,7.49675 -0.11257,11.19572c-0.03195,0.30381 -0.4286,2.8067 -0.85837,2.73743c-0.69878,-0.1126 -1.6813,-0.60523 -2.31893,-0.91414c-5.94854,-1.96475 -11.18683,-6.07573 -17.16134,-7.61395c-0.62162,0.45307 -1.19833,1.00858 -1.5538,1.67906l-0.47792,0.61068c0,0 -0.48247,0.49887 0.13436,0.95179c0.06176,0.04534 0.13574,0.17926 0.19417,0.2052c-2.93777,5.64448 -5.18123,11.48666 -8.57595,16.93665z" data-paper-data="{&quot;noHover&quot;:false,&quot;origItem&quot;:[&quot;Path&quot;,{&quot;applyMatrix&quot;:true,&quot;segments&quot;:[[[926.61254,417.73069],[12.14285,3.5238],[-0.03018,0.12086]],[[926.46822,418.11346],[0.06716,-0.13431],[-0.67082,1.34164]],[924.45576,418.78428],[[923.08279,418.0906],[0,0],[-1.44471,-0.43097]],[[919.22563,415.72869],[1.11205,1.01797],[0.89694,-11.9485]],[[928.15956,380.1298],[-1.74473,12.05571],[0.38029,-1.32836]],[[929.175,375.57071],[0.02742,1.37277],[-0.01686,-0.84429]],[[923.5003,374.93752],[0.60865,-0.05075],[-7.41054,0.61792]],[[901.48814,378.8123],[7.37628,-0.90935],[-0.71866,0.25961]],[[903.08234,385.83106],[-0.2998,-1.20115],[2.16779,8.68513]],[[909.35292,411.92731],[-2.15853,-8.69186],[0.69956,6.26621]],[[913.83986,429.61277],[-1.39861,-6.02998],[1.78014,7.67491]],[[922.29365,449.50563],[-5.21858,-6.1072],[9.74892,4.62723]],[[957.96755,450.34516],[-9.56021,6.37347],[7.18055,-2.44927]],[[972.39433,430.92276],[-3.08539,6.24485],[0.05411,-0.10951]],[[963.14745,427.86406],[0.43501,0.13058],[-11.92317,-4.46591]]],&quot;closed&quot;:true}]}" fill="#66c8ff" stroke="none" stroke-width="0.5" stroke-linecap="butt"/></g><path d="M261.88284,187.57444l-0.01552,-0.00455c-0.01268,0.00971 -0.02539,0.01935 -0.03813,0.02891l0.00178,0.10489c-0.62998,0.88941 -2.0654,2.36147 -3.77067,-0.84689c-0.61472,-1.15656 1.22035,-3.6575 0.53557,-5.81741c-0.70043,-2.20922 -3.92357,-4.07283 -4.811,-4.78918c-3.13049,-2.52696 -5.65436,-5.58175 -8.23136,-8.61248c0,0 -0.58829,-0.69187 0.1256,-1.26201c0.34354,-0.27436 0.65798,-0.25648 0.89179,-0.16409v0c0.02544,-0.00291 0.04003,-0.00356 0.04003,-0.00356l0.73189,-0.03129c2.22234,0.01369 4.31227,0.66983 6.51849,0.88871c0.7473,0.07414 1.49653,-0.14122 2.24745,-0.16153c0.84823,-0.02294 1.3385,0.17941 2.16271,0.29167c1.76102,0.23984 3.59004,0.21629 4.95599,1.5023c1.21398,1.14291 0.87947,1.9058 1.47376,3.23699c0.35633,0.79817 4.69296,3.17022 4.27326,5.81145c-0.107,0.51646 -2.45607,-0.40265 -3.06,1.61257c-0.4086,1.36343 -0.54321,3.06043 -1.27496,4.24872c-0.19865,0.32259 -0.41061,0.76885 -0.61757,1.1923c0.76042,-0.32379 -1.22321,3.95129 -1.45312,2.9804c-0.07386,-0.31192 -0.02059,-0.54662 0.08574,-0.72153c-0.03855,-0.02737 -0.07621,-0.0589 -0.11253,-0.0951c-0.20376,0.21011 -0.42306,0.41133 -0.65244,0.58898zM272.9945,187.5037c-0.00265,-0.03203 -0.00452,-0.0644 -0.00563,-0.09687c-0.03582,0.01447 -0.07206,0.02813 -0.10867,0.04105c0.03899,0.01832 0.07713,0.03693 0.11431,0.05582z" fill="#000000" stroke="none" stroke-width="0.5" stroke-linecap="butt"/><path d="M254.43092,157.18801c-0.08384,-0.08153 -0.16954,-0.15984 -0.25799,-0.23391c-0.13591,-0.0034 -0.29832,-0.06494 -0.42353,-0.28725c-0.3734,0.09732 -0.7693,0.26254 -1.21255,0.51804c0,0 -0.82481,0.46946 -1.1478,-0.7294c-0.32299,-1.19887 0.50182,-1.66833 0.50182,-1.66833c2.01939,-1.137 3.37001,-0.85673 5.42618,-0.34125c1.04254,0.26137 2.02074,-0.07851 3.05358,0.43757c0.5572,0.27841 1.3564,1.08728 1.86127,1.56432l-0.09184,-0.32996c0,0 0.87213,-0.22523 1.02709,1.04242v0.00001c0.15496,1.26765 -0.71718,1.49288 -0.71718,1.49288l-1.18496,-0.04766c-0.15876,-0.15061 -0.4722,-0.45969 -0.78321,-0.7418c-1.31397,0.62347 -2.51076,0.33879 -3.85767,0.75786c-0.43537,0.13545 -1.53478,0.77337 -1.8567,0.10595c-0.33758,-0.69989 -0.4012,-1.19811 -0.33653,-1.53949z" fill="#000000" stroke="none" stroke-width="0.5" stroke-linecap="butt"/><path d="M283.02693,157.43802c0.06467,0.34138 0.00104,0.8396 -0.33653,1.53949c-0.32192,0.66742 -1.42133,0.02951 -1.8567,-0.10595c-1.34692,-0.41906 -2.54371,-0.13438 -3.85768,-0.75786c-0.31101,0.28211 -0.62445,0.59119 -0.78321,0.7418l-1.18495,0.04766c0,0 -0.87214,-0.22523 -0.71718,-1.49289v-0.00001c0.15496,-1.26765 1.02709,-1.04242 1.02709,-1.04242l-0.09184,0.32996c0.50487,-0.47704 1.30408,-1.2859 1.86126,-1.56432c1.03283,-0.51608 2.01104,-0.1762 3.05358,-0.43757c2.05618,-0.51549 3.4068,-0.79576 5.42618,0.34124c0,0 0.82481,0.46946 0.50182,1.66833c-0.32299,1.19887 -1.1478,0.7294 -1.1478,0.7294c-0.44326,-0.2555 -0.83916,-0.42072 -1.21255,-0.51804c-0.1252,0.22231 -0.2876,0.28385 -0.42353,0.28725c-0.08844,0.07407 -0.17414,0.15238 -0.25798,0.23391z" data-paper-data="{&quot;index&quot;:null}" fill="#000000" stroke="none" stroke-width="0.5" stroke-linecap="butt"/></g></g></svg>