<svg version="1.1" xmlns="http://www.w3.org/2000/svg" xmlns:xlink="http://www.w3.org/1999/xlink" width="30.07119" height="37.20556" viewBox="0,0,30.07119,37.20556"><g transform="translate(-285.24515,-160.71097)"><g data-paper-data="{&quot;isPaintingLayer&quot;:true}" fill-rule="nonzero" stroke-linejoin="miter" stroke-miterlimit="10" stroke-dasharray="" stroke-dashoffset="0" style="mix-blend-mode: normal"><path d="M307.15805,197.278c-7.28241,-0.5932 -14.34258,-1.19021 -17.17103,-2.05894c-2.58502,-0.79396 -3.22692,-2.5286 -3.22692,-2.5286c0,0 -0.92313,-1.56222 -0.89034,-2.48955c0.09839,-2.78196 0.75121,-10.70441 1.946,-17.47711c0.03987,-0.22603 0.07047,-0.35163 0.12374,-0.57489c0.15979,-0.66978 0.89445,-3.25908 0.89445,-3.25908c0,0 2.01184,-0.82261 3.08105,-1.01181c3.20762,-0.56758 11.07884,1.06022 19.4316,2.08106c0.75708,0.09253 1.96533,1.22425 1.96533,1.22425c0,0 0.75389,1.974 0.61493,3.16494c-0.89834,7.69968 -1.92063,16.21553 -2.28204,18.1507c-0.12047,0.64506 -1.45867,3.06524 -1.45867,3.06524z" fill="#582600" stroke="#000000" stroke-width="1.25" stroke-linecap="round"/><path d="M308.72543,184.97249c0.24133,-2.06842 0.68537,-3.71623 0.9918,-3.68047c0.30643,0.03574 0.3592,1.74152 0.11789,3.80994c-0.24133,2.06842 -0.68537,3.71624 -0.9918,3.68048c-0.30643,-0.03574 -0.3592,-1.74152 -0.11789,-3.80995z" fill="none" stroke="#000000" stroke-width="1.25" stroke-linecap="butt"/><path d="M304.81496,184.94085c0.24579,-2.10673 0.63138,-3.79283 0.86119,-3.76602c0.22982,0.02681 0.21688,1.7564 -0.02892,3.86312c-0.24579,2.10673 -0.63136,3.79282 -0.86118,3.76601c-0.22982,-0.02681 -0.21688,-1.75639 0.02891,-3.86311z" fill="none" stroke="#000000" stroke-width="1.25" stroke-linecap="butt"/><path d="M288.09348,168.51371l0.93361,-7.80274l26.28925,3.14556l-0.93361,7.80274z" fill="#000000" stroke="none" stroke-width="0" stroke-linecap="butt"/><g data-paper-data="{&quot;index&quot;:null}" stroke="#000000" stroke-width="0.625" stroke-linecap="butt"><g data-paper-data="{&quot;index&quot;:null}" fill="#000000"><path d="M293.51124,188.72921c4.86057,0.85389 2.85906,2.63995 2.85906,2.63995l-6.4798,-1.16188c0,0 -1.56236,-2.33859 3.62074,-1.47808z"/></g><g data-paper-data="{&quot;index&quot;:null}" fill="#ffffff"><path d="M293.51123,188.7292c0.99424,0.17466 1.70136,0.38833 2.19721,0.61774c0.00889,0.00411 -0.42708,0.36818 -0.50426,0.77815c-0.09423,0.50057 0.1656,1.06467 0.16409,1.0644c-1.09399,-0.19616 -5.47778,-0.9822 -5.47778,-0.9822c0,0 -1.56236,-2.33859 3.62074,-1.47808z"/></g></g><path d="M306.11084,182.45282c-0.70688,-0.47152 -1.42746,-0.89761 -2.10823,-1.40687c0,0 -0.6,-0.45 -0.15,-1.05c0.45,-0.6 1.05,-0.15 1.05,-0.15c0.65666,0.4939 1.35656,0.90323 2.04028,1.3588l0.42822,0.48453c0.08051,0.08255 0.14215,0.18359 0.17793,0.29615c0.07675,0.21208 0.10198,0.52941 -0.23866,0.80691c-0.00585,0.00482 -0.01178,0.00954 -0.01778,0.01418c-0.34563,0.27002 -0.64957,0.17446 -0.83909,0.05275c-0.13624,-0.08041 -0.24485,-0.20266 -0.30813,-0.34908z" fill="#582600" stroke="none" stroke-width="0.5" stroke-linecap="butt"/><path d="M311.0805,180.5439c0.06165,0.05975 0.11918,0.13745 0.16923,0.23756c0.33541,0.67082 -0.33541,1.00623 -0.33541,1.00623c-0.4681,0.23392 -0.94029,0.46019 -1.41909,0.67133l-0.64283,0.42856c-0.12072,0.08304 -0.26696,0.13165 -0.42456,0.13165c-0.41421,0 -0.75,-0.33579 -0.75,-0.75c0,-0.02863 0.0016,-0.05688 0.00473,-0.08467l0.07582,-0.7582l0.20457,0.02046c0.06731,-0.68364 0.45442,-0.87681 1.61994,-1.39943l0.76555,-0.06464c0,0 0.61812,0 0.73206,0.56115z" fill="#582600" stroke="none" stroke-width="0.5" stroke-linecap="butt"/></g></g></svg>