<svg version="1.1" xmlns="http://www.w3.org/2000/svg" xmlns:xlink="http://www.w3.org/1999/xlink" width="210" height="221" viewBox="0,0,210,221"><g transform="translate(-140,-90)"><g data-paper-data="{&quot;isPaintingLayer&quot;:true}" fill-rule="nonzero" stroke-linejoin="miter" stroke-miterlimit="10" stroke-dasharray="" stroke-dashoffset="0" style="mix-blend-mode: normal"><path d="M140,311v-221h210v221z" fill="none" stroke="none" stroke-width="0" stroke-linecap="butt"/><g data-paper-data="{&quot;index&quot;:null}" stroke="#000000" stroke-linecap="round"><path d="M261.27132,192.75898c0,0 15.61508,-1.62782 15.59742,5.12359c-0.04788,18.32469 -27.20479,12.29663 -27.20479,12.29663z" data-paper-data="{&quot;origPos&quot;:null}" fill="#66c8ff" stroke-width="2"/><path d="M260.54588,194.29607c0,0 11.33369,-0.57411 11.97012,1.40898c0.20072,0.62546 -15.11379,2.56179 -15.11379,2.56179z" data-paper-data="{&quot;origPos&quot;:null}" fill="#0a0a0a" stroke-width="1"/></g><g><path d="M263.62264,242.4697c0,0 0.79659,16.05939 -1.32549,16.34506c-6.36624,0.85705 -23.10693,-0.01191 -37.38997,-0.01191c-1.60451,0 -1.37046,-15.24427 -1.37046,-15.24427l1.71307,-31.21447c0,0 1.2701,-13.79244 2.74092,-13.79244c9.51427,0 23.74926,-0.9484 29.97591,0.72663c2.07555,0.55835 3.94293,15.24355 3.94293,15.24355z" data-paper-data="{&quot;origPos&quot;:null}" fill="#66c8ff" stroke="#000000" stroke-width="3.5" stroke-linecap="round"/><path d="M232.97449,222.53788c-1.2426,0 -1.24261,-2.53511 -1.24261,-2.53511c0,-5.25801 0,-12.20609 0,-17.4641c0,0 0.00001,-2.53511 1.24261,-2.53511c1.2426,0 1.2426,2.53511 1.2426,2.53511c0,5.25801 0,10.51602 0,15.77403v1.69007c0,0 0,2.53511 -1.2426,2.53511z" fill="#ffffff" stroke="none" stroke-width="0.5" stroke-linecap="butt"/><path d="M244.5187,228.99244c-1.2426,0 -1.24261,-3.18482 -1.24261,-3.18482c0,-6.60554 0,-15.33429 0,-21.93984c0,0 0.00001,-3.18482 1.24261,-3.18482c1.2426,0 1.2426,3.18482 1.2426,3.18482c0,6.60554 0,13.21108 0,19.81664v2.12321c0,0 0,3.18482 -1.2426,3.18482z" fill="#ffffff" stroke="none" stroke-width="0.5" stroke-linecap="butt"/></g><g fill="none" stroke="#b9b9b9" stroke-width="3"><path d="M254.20738,203.88639c-0.7961,-1.38409 0.08263,-2.62701 1.25913,-3.86835c1.17651,-1.24132 2.3573,-1.62037 3.00139,-0.62693c1.36563,2.10638 -0.06713,3.10057 -0.98838,4.07257c-1.17652,1.24134 -2.14785,2.37742 -3.27214,0.42273z" stroke-linecap="butt"/><path d="M252.66267,205.852l2.4916,-2.56766" stroke-linecap="round"/><path d="M249.25088,206.49338c1.17651,-1.24132 2.3573,-1.62037 3.00139,-0.62693c1.36563,2.10638 -0.06713,3.10057 -0.98838,4.07257c-1.17651,1.24133 -2.14784,2.37742 -3.27213,0.42273c-0.7961,-1.38409 0.08262,-2.62701 1.25912,-3.86836z" stroke-linecap="butt"/><path d="M246.44702,212.32737l2.4916,-2.56769" stroke-linecap="round"/><path d="M241.0383,211.86642c0.38544,-1.66638 1.67266,-1.5088 3.13474,-1.0412c1.46208,0.46761 2.39368,1.46305 2.15994,2.73454c-0.49559,2.6959 -1.95624,1.8123 -3.10109,1.44615c-1.46208,-0.4676 -2.73795,-0.78613 -2.19359,-3.13948z" stroke-linecap="butt"/><path d="M241.96961,212.48374l-3.05854,-1.02746" stroke-linecap="round"/><path d="M234.11205,207.40692c0.85908,-1.34192 1.98925,-0.53975 3.18528,0.63787c1.19604,1.17762 1.74618,2.57198 1.14594,3.62668c-1.27269,2.23628 -2.34099,0.67529 -3.27753,-0.24682c-1.19603,-1.17763 -2.2669,-2.12261 -1.05368,-4.01773z" stroke-linecap="butt"/><path d="M234.77681,208.45197l-2.487,-2.50895" stroke-linecap="round"/><path d="M227.85538,201.16504c0.85908,-1.3419 1.98926,-0.53975 3.18528,0.63787c1.19604,1.17762 1.74618,2.57198 1.14594,3.62668c-1.27269,2.23627 -2.34099,0.67529 -3.27752,-0.24682c-1.19603,-1.17762 -2.2669,-2.1226 -1.05368,-4.01773z" stroke-linecap="butt"/><path d="M228.52017,202.21011l-2.48702,-2.50895" stroke-linecap="round"/></g><g><g data-paper-data="{&quot;index&quot;:null}"><g stroke="#000000" stroke-width="3" stroke-linecap="round"><path d="M276.18736,235.75576c0,0 2.8089,10.53477 2.39358,15.20996c-15.0674,6.51515 -24.33848,3.86164 -24.33848,3.86164c-1.91724,0.40736 -2.16831,-7.00206 -2.16831,-7.00206c0,0 -0.93768,-14.44732 -1.53786,-23.69433c-0.3941,-6.07196 -1.00983,-15.55867 -1.00983,-15.55867c0,0 -0.13993,-6.0361 0.91202,-6.16952c6.32866,-0.8027 12.30456,-2.90117 15.54701,-2.10886c1.08082,0.2641 2.60348,5.86061 2.60348,5.86061l7.59838,29.60122z" data-paper-data="{&quot;origPos&quot;:null}" fill="#582700"/><path d="M276.85951,241.5805l-24.38495,4.08582l-0.49764,-3.42682l24.38494,-4.34941z" data-paper-data="{&quot;origPos&quot;:null}" fill="none"/></g><path d="M251.70391,241.81169l-1.66719,-37.5317l1.11147,-0.88311l15.0048,-2.64931l9.44747,36.79579z" fill="#66c8ff" stroke="#000000" stroke-width="1" stroke-linecap="round"/><path d="M252.3738,245.22368l-0.35305,-2.34609l24.22631,-4.09149l0.35305,2.34609z" fill="#ffffff" stroke="none" stroke-width="0" stroke-linecap="butt"/></g><g fill="#fffc96" stroke="#000000" stroke-width="2" stroke-linecap="round"><path d="M274.39857,231.04402c0,0 4.1933,0.47379 4.13902,3.47384c-0.08685,4.79997 -31.39684,-0.85571 -31.59116,-5.86391c-0.0794,-2.04623 2.96771,-2.22725 2.96771,-2.22725l0.2875,1.88301c0,0 5.65484,2.42853 12.93048,3.92001c7.17483,1.47081 12.06168,1.05855 12.06168,1.05855z"/><path d="M272.25402,222.5605c0,0 2.88713,-2.38902 3.80829,-0.23298c1.93365,4.52584 -26.1166,24.40197 -26.98781,19.76995c-0.52762,-2.80526 2.64004,-3.94797 2.64004,-3.94797l0.24988,1.3781c0,0 4.71015,-2.13488 10.97948,-6.7472c6.26934,-4.61232 9.69225,-8.95279 9.69225,-8.95279z" data-paper-data="{&quot;index&quot;:null}"/></g></g><path d="M277.69243,253.41433c0,0 4.19691,-1.04607 6.34709,-0.27166c1.64606,0.59281 2.27556,2.43418 2.76556,4.20133c1.34493,4.8506 0.14215,9.79778 0.40547,17.65678c0.07171,2.14045 -2.85902,3.45854 -4.87989,3.39577c-1.8901,-0.05872 -5.17231,-0.28347 -5.17231,-0.28347l-31.80802,-1.73736c0,0 -4.11116,-0.36736 -4.90558,-2.10108c-1.91308,-4.17514 -0.6778,-8.79065 -1.07984,-13.41211c-0.13625,-1.56615 4.47324,-1.86915 4.47324,-1.86915c0,0 8.56032,-1.41072 14.03938,-2.31363c7.73303,-1.27437 19.81492,-3.2654 19.81492,-3.2654z" data-paper-data="{&quot;index&quot;:null}" fill="#4b4b4b" stroke="#000000" stroke-width="3" stroke-linecap="round"/><path d="M240.39004,265.1895c0,0 1.96094,4.06776 1.76446,6.46465c-0.15038,1.83491 -1.68796,2.92215 -3.19083,3.84816c-4.12518,2.54173 -8.94717,2.48557 -16.08824,4.6329c-1.94492,0.58482 -3.85289,-2.11542 -4.27786,-4.20936c-0.39746,-1.95844 -0.97511,-5.38865 -0.97511,-5.38865l-6.00201,-33.13699c0,0 -0.64485,-4.31703 0.75468,-5.54822c3.37036,-2.96493 7.8961,-2.79616 12.03636,-4.31318c1.40308,-0.51411 2.78139,4.15552 2.78139,4.15552c0,0 3.33701,8.46951 5.47287,13.89046c3.01451,7.65101 7.72428,19.60475 7.72428,19.60475z" data-paper-data="{&quot;index&quot;:null}" fill="#4b4b4b" stroke="#000000" stroke-width="3" stroke-linecap="round"/><path d="M225.04798,194.97155c0,0 -1.29969,-4.45455 -1.27809,-5.56066c0.0648,-3.31831 1.2351,-17.72538 2.3337,-30.74276c0.16992,-2.01348 1.98497,-5.01248 1.98497,-5.01248c0,0 2.2497,-1.45263 3.45925,-1.34513c13.34499,1.18614 26.13667,1.20491 30.95004,3.24427c1.60446,0.67979 4.47205,2.72907 4.47205,2.72907c0,0 0.30447,4.52623 0.33615,5.68666c0.01055,0.38681 0.01747,0.60462 0.00626,0.99141c-0.33595,11.58925 -1.88933,24.88993 -2.6387,29.51546c-0.24979,1.54185 -2.19492,3.80305 -2.19492,3.80305c0,0 -1.56292,2.64243 -5.84804,3.06436c-4.68867,0.46165 -15.88223,-0.97974 -27.42086,-2.50378z" fill="#582700" stroke="#000000" stroke-width="2.5" stroke-linecap="round"/><g data-paper-data="{&quot;index&quot;:null}"><g data-paper-data="{&quot;origRot&quot;:0}" stroke="#000000" stroke-width="3" stroke-linecap="round"><path d="M263.9276,250.24209c0.01306,2.49972 -8.94212,0.88654 -8.94212,0.88654c0,0 -23.7998,-3.60521 -35.04717,-5.26032c-4.63057,-1.39249 -5.95441,-41.14337 -1.91071,-45.41628c1.80254,-1.90471 11.81837,-4.03958 13.34619,-2.6041c2.9081,2.73231 8.0815,19.22513 8.0815,19.22513l-4.31351,0.17004l11.3424,0.64027c0,0 13.24739,-0.41401 18.84927,0.96643c3.10686,0.7656 -1.40585,31.3923 -1.40585,31.3923z" data-paper-data="{&quot;origPos&quot;:null}" fill="#582700"/><path d="M254.88168,218.70809l-1.17787,30.60502" fill="none"/><path d="M250.43516,218.72689l-0.88221,30.62319" data-paper-data="{&quot;origPos&quot;:null}" fill="none"/></g><path d="M253.49544,249.9364l-2.90372,-0.16055l1.00573,-31.31746l2.90373,0.16055z" fill="#ffffff" stroke="none" stroke-width="0" stroke-linecap="butt"/><path d="M219.63384,246.01033l-3.11546,-10.96953l-0.35096,-24.49138l1.8578,-8.41927l3.78728,-3.57236l7.7523,-0.00145l1.55045,-0.00029l7.40871,17.34673l-3.09458,0.25569l0.05078,2.04094l13.71477,0.7628l-0.00716,30.86943l-28.00984,-4.0767z" fill="#66c8ff" stroke="#000000" stroke-width="0.5" stroke-linecap="round"/></g><path d="M269.14862,159.10183l-0.63985,-0.59525c-0.0831,-0.03909 -0.16619,-0.07768 -0.2493,-0.11578c-0.23834,0.29618 -0.68164,0.62583 -1.36547,0.31271c-0.63028,-0.2886 -0.74511,-0.79365 -0.72765,-1.17389c-2.46296,-0.90456 -4.95735,-1.46236 -7.58344,-1.96116c-7.3762,-1.12702 -14.81972,-1.64544 -22.24382,-2.32533c-2.43476,-0.22297 -7.96911,0.31565 -9.86279,-1.58336c-0.92354,-0.92613 -0.37565,-2.85063 -0.38466,-3.92874c-0.02609,-3.12411 -0.11816,-6.36459 0.12498,-9.48035c0.34351,-4.07025 -0.79669,-7.83767 -0.95444,-11.87516c-0.07908,-2.02413 -0.55448,-4.09529 1.27803,-5.67008c0.51741,-0.44465 1.33213,-0.08278 1.99798,-0.05839c2.43347,0.08919 4.76351,0.48017 7.13483,1.00247c7.51468,1.65513 14.97918,2.87327 22.40169,5.01639c2.9939,0.86841 6.05476,1.22012 9.1359,1.61481c1.81085,0.23198 3.51276,-0.16481 4.41858,2.13409c0.54093,1.37285 -0.27178,5.39424 -0.4469,6.89421c-0.67526,5.78385 -0.39668,12.98658 -2.02599,18.71734c0.10906,0.04956 0.21812,0.09991 0.32716,0.15104l1.16657,0.9341c0,0 0.93939,0.79532 0.18866,1.79049c-0.75074,0.99517 -1.69013,0.19986 -1.69013,0.19986z" data-paper-data="{&quot;index&quot;:null}" fill="#000000" stroke="none" stroke-width="0.5" stroke-linecap="butt"/><path d="M243.57352,169.5719c0.49129,1.16276 -0.60628,1.68322 -0.60628,1.68322l-0.72777,0.32553c-1.2158,0.85636 -1.88162,1.23907 -2.73174,1.36449l0.06063,0.22258l-1.26092,0.38547c-0.14548,0.04839 -0.30212,0.06808 -0.46345,0.0533c-0.66167,-0.0606 -1.15169,-0.67795 -1.09449,-1.37891c0.03306,-0.40519 0.24174,-0.74961 0.53975,-0.95643l1.01549,-0.71798l0.01799,0.02855l0.04479,-0.07005c0.86532,-0.46201 1.73502,-0.91507 2.61094,-1.35408c0,0 0.36497,-0.1829 0.772,-0.1127l0.23422,-0.11531c0,0 1.09758,-0.52047 1.58888,0.64228z" fill="#582700" stroke="none" stroke-width="0.5" stroke-linecap="butt"/><path d="M249.2744,170.00637l0.21206,0.15617c0.41235,0.00484 0.74228,0.25137 0.74228,0.25137c0.79181,0.59174 1.57522,1.1962 2.35286,1.80866l0.03279,0.07715l0.02235,-0.02486l0.88411,0.89194c0.26009,0.25792 0.40988,0.63518 0.37681,1.04037c-0.0572,0.70096 -0.63995,1.22007 -1.30162,1.15948c-0.16134,-0.01478 -0.31246,-0.06266 -0.44794,-0.13677l-1.17977,-0.60899l0.09579,-0.20824c-0.8172,-0.2781 -1.41115,-0.77617 -2.47019,-1.84086l-0.66424,-0.45302c0,0 -0.99699,-0.71229 -0.32463,-1.76847c0.67236,-1.05619 1.66935,-0.34391 1.66935,-0.34391z" data-paper-data="{&quot;index&quot;:null}" fill="#582700" stroke="none" stroke-width="0.5" stroke-linecap="butt"/><g fill="#b67dff" stroke="none" stroke-width="0.5" stroke-linecap="butt"><path d="M222.20612,173.71951c-0.64312,1.07187 -1.71499,0.42875 -1.71499,0.42875l-0.56756,-0.34063c-2.15359,-1.35561 -3.87593,-2.64451 -2.96728,-5.4828c0.33389,-1.04294 1.50447,-1.7223 1.72741,-2.79445c0.11789,-0.56693 -1.09496,-0.43272 -1.54094,-0.80207c-1.18353,-0.98017 -2.21863,-2.18634 -2.36899,-3.83438c-0.13387,-1.46724 3.48732,-4.42322 2.64345,-5.4732c-0.65749,-0.81808 -2.79664,-1.2724 -3.77043,-1.80253c0,0 -1.09737,-0.59857 -0.4988,-1.69593c0.59857,-1.09737 1.69593,-0.4988 1.69593,-0.4988c2.20501,1.20526 5.63813,1.74338 5.07449,5.10538c-0.15561,0.92816 -2.78569,3.42209 -2.64591,4.28555c0.34787,2.14896 3.6487,2.20691 3.86785,4.25244c0.24319,2.27003 -3.41558,4.04841 -1.17416,5.85439c0.38326,0.30881 0.84508,0.50483 1.26762,0.75725l0.54355,0.32604c0,0 1.07187,0.64312 0.42875,1.71499z"/><path d="M228.87279,172.27506c-0.64312,1.07187 -1.71499,0.42875 -1.71499,0.42875l-0.56755,-0.34063c-2.15359,-1.3556 -3.87593,-2.64451 -2.96729,-5.4828c0.33389,-1.04295 1.50448,-1.7223 1.72742,-2.79445c0.11789,-0.56694 -1.09497,-0.43272 -1.54094,-0.80207c-1.18353,-0.98018 -2.21863,-2.18633 -2.36899,-3.83437c-0.13387,-1.46724 3.48732,-4.42322 2.64345,-5.47321c-0.65749,-0.81808 -2.79663,-1.2724 -3.77042,-1.80253c0,0 -1.09737,-0.59857 -0.49881,-1.69594c0.59857,-1.09737 1.69593,-0.4988 1.69593,-0.4988c2.20501,1.20526 5.63813,1.74337 5.07449,5.10538c-0.15561,0.92816 -2.78568,3.4221 -2.64591,4.28556c0.34787,2.14896 3.6487,2.2069 3.86784,4.25244c0.24319,2.27003 -3.41557,4.04842 -1.17415,5.8544c0.38326,0.30881 0.84508,0.50483 1.26762,0.75725l0.54355,0.32604c0,0 1.07187,0.64312 0.42875,1.71499z"/><path d="M235.87279,171.6084c-0.64312,1.07187 -1.71499,0.42875 -1.71499,0.42875l-0.56756,-0.34063c-2.15359,-1.3556 -3.87593,-2.64451 -2.96728,-5.4828c0.33389,-1.04295 1.50447,-1.7223 1.72741,-2.79445c0.11789,-0.56694 -1.09496,-0.43272 -1.54094,-0.80207c-1.18353,-0.98018 -2.21863,-2.18633 -2.36899,-3.83437c-0.13387,-1.46724 3.48732,-4.42322 2.64345,-5.47321c-0.65749,-0.81808 -2.79663,-1.2724 -3.77042,-1.80253c0,0 -1.09737,-0.59856 -0.49881,-1.69593c0.59857,-1.09737 1.69593,-0.4988 1.69593,-0.4988c2.20501,1.20526 5.63813,1.74337 5.07449,5.10538c-0.15561,0.92816 -2.78569,3.4221 -2.64591,4.28556c0.34787,2.14896 3.6487,2.2069 3.86784,4.25244c0.24319,2.27003 -3.41557,4.04842 -1.17415,5.8544c0.38326,0.30881 0.84508,0.50483 1.26762,0.75725l0.54355,0.32604c0,0 1.07187,0.64312 0.42875,1.71499z"/></g><path d="M244.75,182.02083c0,2.38173 -2.68629,4.3125 -6,4.3125c-2.07008,0 -4.77031,0.74651 -5.84875,-0.3997c-0.64789,-0.6886 -0.15125,-3.01894 -0.15125,-3.9128c0,-2.38173 2.68629,-4.3125 6,-4.3125c3.31371,0 6,1.93077 6,4.3125z" fill="#ffffff" stroke="#000000" stroke-width="1" stroke-linecap="butt"/><path d="M254.81808,178.83333c3.31371,0 6,1.93077 6,4.3125c0,0.89386 0.49664,3.2242 -0.15125,3.9128c-1.07844,1.14621 -3.77867,0.3997 -5.84875,0.3997c-3.31371,0 -6,-1.93077 -6,-4.3125c0,-2.38173 2.68629,-4.3125 6,-4.3125z" data-paper-data="{&quot;index&quot;:null}" fill="#ffffff" stroke="#000000" stroke-width="1" stroke-linecap="butt"/><g data-paper-data="{&quot;index&quot;:null}" stroke="#000000" stroke-width="1.25" stroke-linecap="butt"><path d="M252.67673,198.92648c-8.51637,0.11969 -6.08133,-8.45136 -6.08133,-8.45136l11.9755,-0.06228c0,0 2.14978,8.40059 -5.89416,8.51364z" fill="#000000"/><path d="M253.65883,196.42268c2.0224,-0.62143 4.55948,-0.50008 4.40308,-0.21243c-0.80505,1.48064 -2.38707,2.67408 -5.38518,2.7162c-1.00035,0.01406 -1.8496,-0.09179 -2.56945,-0.28958c-0.34836,-0.09571 1.34918,-1.53747 3.55154,-2.2142z" fill="#ff8484"/><path d="M258.73122,193.24661c0.00128,0.03816 -10.7164,0.13638 -10.7164,0.13638l0.03135,-2.9154l10.52473,-0.05475c0,0 0.12166,1.67598 0.16032,2.83377z" fill="#ffffff"/></g></g></g></svg>