<svg version="1.1" xmlns="http://www.w3.org/2000/svg" xmlns:xlink="http://www.w3.org/1999/xlink" width="189.26654" height="221.55319" viewBox="0,0,189.26654,221.55319"><g transform="translate(-145.36673,-69.22341)"><g data-paper-data="{&quot;isPaintingLayer&quot;:true}" fill-rule="nonzero" stroke-linejoin="miter" stroke-miterlimit="10" stroke-dasharray="" stroke-dashoffset="0" style="mix-blend-mode: normal"><path d="M145.36673,290.77659v-221.55318h189.26654v221.55319z" fill="none" stroke="none" stroke-width="NaN" stroke-linecap="butt"/><g data-paper-data="{&quot;origRot&quot;:0}" stroke="#000000" stroke-linecap="round"><path d="M241.42946,216.5477c0,0 -0.6923,-4.85547 0.7082,-5.05776c4.13272,-0.59689 7.91998,-2.89358 11.9756,-1.82263c1.68411,0.44471 2.86023,4.6353 2.86023,4.6353l8.13149,32.6649c0,0 0.87892,3.36064 1.32311,5.31144c0.47491,2.08576 -0.07099,5.41998 -1.96127,5.81536c-6.9405,1.4518 -11.02513,3.78749 -15.55452,3.45512c-1.65013,-0.12109 -3.39426,-0.37085 -4.2557,-1.95085c-1.12528,-2.06388 -1.08081,-6.65382 -1.08081,-6.65382z" data-paper-data="{&quot;origPos&quot;:null}" fill="#ff0000" stroke-width="3"/><path d="M266.91302,255.66952c0,0 -5.00002,3.5897 -9.59964,4.38982c-3.52899,0.61387 -11.31644,0.90723 -11.31644,0.90723c0,0 -1.58957,-2.42619 -1.89495,-4.03167c-0.3217,-1.69127 0.28812,-4.41585 0.28812,-4.41585l20.96469,-4.47336z" data-paper-data="{&quot;origPos&quot;:null}" fill="#976e57" stroke-width="2"/><path d="M241.54814,216.85961c0,0 -0.6923,-4.85547 0.70821,-5.05775c4.13271,-0.59689 7.91998,-2.89358 11.97561,-1.82261c1.68411,0.44471 2.86022,4.63529 2.86022,4.63529l8.13149,32.6649c0,0 0.87893,3.36064 1.32313,5.31144c0.47491,2.08576 -0.071,5.41997 -1.96127,5.81536c-6.9405,1.4518 -11.02513,3.7875 -15.55452,3.45513c-1.65013,-0.12109 -3.39426,-0.37088 -4.25569,-1.95085c-1.12528,-2.06388 -1.08081,-6.65382 -1.08081,-6.65382z" data-paper-data="{&quot;origPos&quot;:null}" fill="#474747" stroke-width="3"/></g><g data-paper-data="{&quot;index&quot;:null,&quot;origRot&quot;:0}" stroke="#000000" stroke-linecap="round"><path d="M238.88763,252.58478c0,0 0.22896,4.58306 -0.81218,6.70153c-0.79704,1.62179 -2.52936,1.95914 -4.17295,2.16325c-4.51143,0.56021 -8.68583,-1.56739 -15.67767,-2.66809c-1.90427,-0.29979 -2.58368,-3.60311 -2.19312,-5.71068c0.3653,-1.9712 1.10821,-5.3727 1.10821,-5.3727l6.80988,-33.04142c0,0 1.00643,-4.24558 2.67094,-4.77467c4.00845,-1.27416 7.88422,0.82939 12.03673,1.21752c1.40722,0.13153 0.91086,5.01694 0.91086,5.01694z" data-paper-data="{&quot;origPos&quot;:null}" fill="#ff0000" stroke-width="3"/><path d="M216.93374,248.78784l21.12329,3.41273c0,0 0.71876,2.69109 0.46539,4.39685c-0.24051,1.61924 -1.73092,4.12305 -1.73092,4.12305c0,0 -7.79135,0.09921 -11.34143,-0.33626c-4.62711,-0.56761 -9.76641,-3.90179 -9.76641,-3.90179z" data-paper-data="{&quot;origPos&quot;:null}" fill="#976e57" stroke-width="2.5"/><path d="M238.78163,252.90237c0,0 0.22896,4.58306 -0.81218,6.70153c-0.79704,1.62179 -2.52936,1.95915 -4.17295,2.16325c-4.51143,0.56021 -8.68582,-1.56737 -15.67767,-2.66808c-1.90427,-0.29979 -2.58368,-3.60312 -2.19312,-5.71068c0.3653,-1.9712 1.10821,-5.3727 1.10821,-5.3727l6.80988,-33.04142c0,0 1.00642,-4.24558 2.67094,-4.77467c4.00845,-1.27416 7.88424,0.82939 12.03674,1.21752c1.40722,0.13153 0.91085,5.01694 0.91085,5.01694c0,0 -0.17212,9.2213 -0.28228,15.12342c-0.15549,8.33013 -0.39843,21.34491 -0.39843,21.34491z" data-paper-data="{&quot;origPos&quot;:null}" fill="#474747" stroke-width="1.5"/></g><g><g><g data-paper-data="{&quot;origRot&quot;:0}" stroke="#000000" stroke-width="3" stroke-linecap="round"><path d="M287.54817,171.8888c1.5121,1.54913 -4.24969,6.63283 -4.24969,6.63283c0,0 -14.9022,13.93583 -21.91536,20.55198c-3.31553,2.28069 -27.95827,-21.59498 -28.36794,-27.00771c-0.1826,-2.41283 3.88979,-10.55379 5.57141,-10.69795c3.20081,-0.2744 15.89883,6.4875 15.89883,6.4875l-2.20507,3.03898l6.453,-7.31329c0,0 6.83724,-9.26571 10.6651,-12.21437c2.12295,-1.63535 18.14972,20.52203 18.14972,20.52203z" data-paper-data="{&quot;origPos&quot;:null}" fill="#582700"/><path d="M263.72207,158.38521l17.79762,19.87632" fill="none"/><path d="M279.3215,181.10697l-17.96675,-19.68658" data-paper-data="{&quot;origPos&quot;:null}" fill="none"/></g><path d="M281.78355,178.79167l-1.64998,1.87436l-18.3187,-20.20333l1.64998,-1.87436z" fill="#ffffff" stroke="none" stroke-width="0" stroke-linecap="butt"/><path d="M261.27657,199.37087l-8.27151,-4.71869l-14.93437,-15.02625l-4.07556,-6.51077l-0.12502,-4.80177l4.14613,-5.27214l0.82922,-1.05444l14.40792,5.77419l-1.50146,2.26356l1.25606,1.23754l7.79583,-8.85003l18.58313,19.24506l-17.43817,16.50461z" fill="#ffcb66" stroke="#000000" stroke-width="0.5" stroke-linecap="round"/></g><g fill="none" stroke="none" stroke-width="1" stroke-linecap="butt" font-family="sans-serif" font-weight="normal" font-size="12" text-anchor="start"/></g><g><g><path d="M223.16174,167.41745c0,0 1.74605,-14.76271 3.7191,-15.32887c5.91912,-1.6985 19.46085,-0.78002 28.51045,-0.80316c1.39898,-0.00357 2.63536,13.85429 2.63536,13.85429l1.69344,31.36536c0,0 0.25389,15.31944 -1.27225,15.32334c-13.58548,0.03475 -29.50678,0.94873 -35.56388,0.10293c-2.01902,-0.28192 -1.2943,-16.42303 -1.2943,-16.42303z" data-paper-data="{&quot;origPos&quot;:null}" fill="#ffcb66" stroke="#000000" stroke-width="3.5" stroke-linecap="round"/><path d="M240.42257,175.77059c-1.18192,0.00302 -1.18712,-2.54468 -1.18712,-2.54468c-0.01079,-5.28414 -0.02504,-12.26673 -0.03583,-17.55087c0,0 -0.00519,-2.5477 1.17672,-2.55074c1.18192,-0.00302 1.18712,2.54468 1.18712,2.54468c0.01079,5.28414 0.02157,10.56826 0.03236,15.85239l0.00347,1.69847c0,0 0.00519,2.5477 -1.17672,2.55074z" fill="#ffffff" stroke="none" stroke-width="0.5" stroke-linecap="butt"/><path d="M251.41622,182.22913c-1.18192,0.00302 -1.18846,-3.19761 -1.18846,-3.19761c-0.01355,-6.63835 -0.03146,-15.41047 -0.04501,-22.04882c0,0 -0.00654,-3.20064 1.17539,-3.20366c1.18192,-0.00302 1.18846,3.19761 1.18846,3.19761c0.01355,6.63835 0.0271,13.27672 0.04065,19.91508l0.00436,2.13375c0,0 0.00654,3.20064 -1.17539,3.20366z" fill="#ffffff" stroke="none" stroke-width="0.5" stroke-linecap="butt"/></g><g stroke="#000000" stroke-width="0.5" stroke-linecap="butt"><path d="M253.97972,192.43857c0.01413,6.92129 -4.19729,12.54292 -9.40646,12.55624c-5.20918,0.01332 -9.4435,-5.5867 -9.45763,-12.50799c-0.01413,-6.92129 4.19729,-12.54292 9.40646,-12.55624c5.20918,-0.01332 9.4435,5.5867 9.45763,12.50799z" fill="#ffa924"/><path d="M247.32451,180.89456c0.00041,0.01148 0.00063,0.02319 0.00066,0.03512c0.00131,0.63984 -0.57033,0.64131 -0.57033,0.64131l-0.11432,0.0003c-0.41767,0.00107 -2.3216,0.03452 -2.60726,-0.10334c-0.23847,-0.11508 -0.18755,-0.55575 -0.3594,-0.77367c-0.16511,-0.20935 -0.39968,-0.33845 -0.6204,-0.46864c-0.35098,-0.20702 -0.82975,-0.20248 -1.08834,-0.53924c-0.23887,-0.3111 -0.26817,-0.7898 -0.24657,-1.1993c0.10145,-1.92319 1.1556,-1.94556 2.5177,-1.77567c0.41092,0.10021 0.83485,0.14828 1.23279,0.30063c0.17507,0.06701 0.27993,0.30049 0.46014,0.34747c0.12808,0.0334 0.24825,-0.1008 0.37729,-0.12913c0.00551,-0.00121 1.59993,-0.26027 1.61573,-0.26283c1.07792,-0.1741 2.23097,-0.22706 3.31934,-0.1415c0.69352,0.05452 2.26066,0.24278 2.66215,1.01944c0.57178,1.10608 -1.08198,1.85974 -1.49591,2.05038c-1.22495,0.56417 -2.27222,0.2181 -3.52062,0.38412c-0.42526,0.05655 -1.10821,0.39218 -1.56267,0.61455z" fill="#1cc735"/></g></g><path d="M255.74028,150.79294c-11.00469,1.23755 -21.67952,2.40083 -26.12802,1.8177c-4.06564,-0.53294 -5.49509,-3.22754 -5.49509,-3.22754c0,0 -1.80109,-2.32129 -2.00551,-3.87671c-0.61329,-4.66628 -1.80495,-18.06876 -1.87568,-29.72084c-0.00236,-0.38889 0.0089,-0.60754 0.02723,-0.99589c0.05501,-1.16505 0.44167,-5.70474 0.44167,-5.70474c0,0 2.77075,-1.98591 4.31101,-2.62804c4.62077,-1.92642 16.78468,-1.61976 29.49978,-2.47184c1.15246,-0.07723 3.26051,1.43946 3.26051,1.43946c0,0 1.66156,3.05925 1.77992,5.08648c0.76528,13.10628 1.56891,27.61063 1.55932,30.94613c-0.00318,1.11183 -1.33467,5.55417 -1.33467,5.55417z" fill="#582600" stroke="#000000" stroke-width="2.5" stroke-linecap="round"/><path d="M254.7617,129.85424c-0.20558,-3.52083 0.00553,-6.40268 0.47154,-6.43677c0.46601,-0.0341 1.01044,2.79248 1.21603,6.3133c0.20558,3.52083 -0.00553,6.40269 -0.47154,6.43678c-0.46601,0.0341 -1.01044,-2.79248 -1.21603,-6.31331z" fill="none" stroke="#000000" stroke-width="2.5" stroke-linecap="butt"/><g><g data-paper-data="{&quot;index&quot;:null}"><path d="M266.73592,152.98425c1.62008,-1.395 2.5227,-7.04619 3.68013,-5.3621c0.58956,0.85782 11.08695,16.76086 11.13794,17.94848c0.04909,1.1439 -0.28495,2.17947 -1.07981,2.8639c-0.5408,0.46564 -1.57377,0.88942 -2.3987,0.87955c-1.64641,-0.01971 -15.66628,-12.72998 -16.43737,-13.85192c-1.15745,-1.68411 3.47772,-1.0829 5.0978,-2.47789z" fill="#e99b00" stroke="#000000" stroke-width="1.5" stroke-linecap="butt"/><g stroke-linecap="butt"><path d="M262.94035,147.41915c2.93521,-2.52741 6.5233,-2.81771 8.01421,-0.64839c1.49094,2.16929 0.32012,5.97674 -2.61507,8.50416c-2.93521,2.52741 -6.52331,2.81771 -8.01423,0.64839c-1.49094,-2.16929 -0.3201,-5.97674 2.61509,-8.50414z" fill="#ffb727" stroke="#000000" stroke-width="1.5"/><path d="M265.34238,156.12215c0,0 -1.29986,0.66154 -2.74877,0.42341c-0.68956,-0.12502 -2.11084,-1.09978 -2.11084,-1.09978l3.21193,-0.86281z" fill="#ffd683" stroke="none" stroke-width="0"/><path d="M267.9854,154.58303l-1.30969,1.06594c0,0 -0.5628,-0.39789 -0.79624,-0.69568c-0.19937,-0.25432 -0.64834,-1.07953 -0.64834,-1.07953l1.22451,-0.69193z" fill="#ffd683" stroke="none" stroke-width="0"/></g><g><path d="M266.33698,152.1823c-4.0492,3.48661 -10.31442,3.89553 -13.42939,-0.63673c-3.11498,-4.5323 -2.45339,-10.21103 1.59579,-13.69763c4.0492,-3.48661 10.06439,-2.81759 13.17936,1.71468c3.11498,4.5323 2.70342,9.13307 -1.34574,12.61965z" fill="#e99b00" stroke="#000000" stroke-width="1.5" stroke-linecap="butt"/><path d="M253.54496,139.60549c0,0 1.72278,0.22259 4.1068,0.76488c2.37824,0.54097 5.08569,2.08125 6.44671,4.06152c2.72536,3.96541 2.68697,6.33269 -0.25503,8.86597c-1.43129,1.23244 -3.35597,1.51176 -5.06078,1.04509c-2.39288,-0.65503 -4.97276,-2.14353 -6.51822,-4.3922c-2.72536,-3.96541 1.28052,-10.34526 1.28052,-10.34526z" fill="#ffb727" stroke="none" stroke-width="0" stroke-linecap="butt"/><path d="M267.19599,140.43331c0,0 -0.24758,4.61402 -5.09896,8.49149c-4.81195,3.84597 -8.94789,2.45741 -8.94789,2.45741" fill="none" stroke="#000000" stroke-width="0.8" stroke-linecap="round"/><path d="M269.08931,145.60965c0,0 -0.59659,3.00458 -5.36985,5.96466c-3.31217,2.05401 -7.25101,2.68164 -7.25101,2.68164" fill="none" stroke="#000000" stroke-width="0.75" stroke-linecap="round"/><path d="M265.43884,138.43554c0,0 -0.28652,2.73815 -5.10561,6.14881c-5.01039,3.54606 -8.95367,2.73298 -8.95367,2.73298" fill="none" stroke="#000000" stroke-width="0.8" stroke-linecap="round"/><path d="M251.28976,143.7406c0,0 3.0697,-2.70036 6.66594,-4.39487c2.73029,-1.28651 6.73143,-1.91081 6.73143,-1.91081" fill="none" stroke="#000000" stroke-width="0.8" stroke-linecap="round"/><path d="M258.03007,136.50375c0,0 3.33116,0.28314 6.23337,4.8784c3.11005,4.92433 3.20196,8.84995 3.20196,8.84995" fill="none" stroke="#000000" stroke-width="0.8" stroke-linecap="round"/><path d="M265.50116,152.49666c0,0 -1.81064,-2.30177 -2.73225,-3.8122c-0.77593,-1.27172 -1.87029,-4.02099 -3.19042,-6.33978c-1.50118,-2.63676 -3.19101,-4.78481 -3.19101,-4.78481" fill="none" stroke="#000000" stroke-width="0.8" stroke-linecap="round"/><path d="M263.58945,153.99945c0,0 -3.71985,-1.76672 -6.95279,-6.75509c-2.0598,-3.17826 -2.37741,-8.49677 -2.37741,-8.49677" fill="none" stroke="#000000" stroke-width="0.8" stroke-linecap="round"/><path d="M258.95248,154.98296c0,0 -2.6529,-1.50052 -5.0445,-6.50155c-1.66078,-3.47285 -1.73357,-7.3654 -1.73357,-7.3654" fill="none" stroke="#000000" stroke-width="0.8" stroke-linecap="round"/><path d="M253.47388,149.52631c-0.28871,0.24861 -0.73053,0.14786 -0.9868,-0.22504c-0.25628,-0.37287 -0.22997,-0.87669 0.05876,-1.12531c0.28871,-0.24861 0.73053,-0.14787 0.9868,0.22502c0.25628,0.37287 0.22996,0.87671 -0.05875,1.12532z" fill="#ffd683" stroke="none" stroke-width="0" stroke-linecap="butt"/><path d="M252.32458,146.50363c-0.16657,0.14342 -0.40547,0.10856 -0.53361,-0.07788c-0.12815,-0.18644 -0.09699,-0.45385 0.06958,-0.59728c0.16657,-0.14342 0.40548,-0.10855 0.53361,0.07788c0.12815,0.18644 0.09699,0.45386 -0.06958,0.59728z" fill="#ffd683" stroke="none" stroke-width="0" stroke-linecap="butt"/></g></g><path d="M264.60237,156.86377c5.86325,7.69653 6.37333,9.47247 6.37333,9.47247c0.68787,1.00867 -0.2521,1.65955 -0.2521,1.65955c0,0 -1.68523,1.5115 -2.76387,2.47894c-0.70828,0.63526 -1.81484,1.62778 -1.81484,1.62778c0,0 -0.78706,0.49529 -1.15205,-0.0644c-2.19578,-3.36717 -4.4542,-6.45343 -5.41306,-8.26223c-0.31962,-0.60293 -0.04878,-1.81555 -0.04878,-1.81555l3.09453,-3.48513c0,0 1.19473,-1.51102 1.97685,-1.6114z" fill="#582700" stroke="#000000" stroke-width="3" stroke-linecap="round"/><path d="M273.64796,150.40068c11.7953,16.2115 12.93941,19.82638 12.93941,19.82638c1.39507,2.11253 -0.29505,3.26912 -0.29505,3.26912c0,0 -2.99333,2.7602 -4.90917,4.52686c-1.25804,1.16007 -3.22356,2.97254 -3.22356,2.97254c0,0 -1.42042,0.86938 -2.16325,-0.30033c-4.469,-7.03721 -9.02531,-13.52416 -11.01296,-17.27155c-0.66254,-1.24913 -0.28484,-3.62493 -0.28484,-3.62493l5.4209,-6.48236c0,0 2.07521,-2.83248 3.52852,-2.91572z" fill="#582600" stroke="#000000" stroke-width="3" stroke-linecap="round"/></g><path d="M248.86468,131.00154c-0.20939,-3.58605 -0.09578,-6.51385 0.25371,-6.53941c0.34951,-0.02556 0.80259,2.86077 1.01198,6.44682c0.20939,3.58605 0.09581,6.51382 -0.2537,6.5394c-0.34951,0.02556 -0.80259,-2.86075 -1.01199,-6.4468z" fill="none" stroke="#000000" stroke-width="2.5" stroke-linecap="butt"/><path d="M219.54809,108.73225l-0.74091,-13.28884l40.00077,-2.79413l0.74091,13.28884z" fill="#000000" stroke="none" stroke-width="0" stroke-linecap="butt"/><path d="M251.65259,122.85354c-1.61756,1.40026 -6.34406,4.94619 -7.89425,3.01385c-2.07747,-2.5896 4.74394,-8.17207 6.06424,-7.98272c0.22704,-0.10508 0.47319,-0.1707 0.73209,-0.18879c1.26095,-0.08808 2.34694,0.98467 2.42563,2.39606c0.53214,0.62739 -0.88221,2.37592 -1.32772,2.76159z" fill="#582600" stroke="none" stroke-width="0.5" stroke-linecap="butt"/><g><path d="M233.23407,151.38851c0,0 5.64657,25.38541 -0.00199,38.02164c-1.70217,3.80788 -13.00891,8.21603 -14.00293,8.33095c-4.29267,0.49629 -19.50486,-20.82514 -19.50486,-20.82514c0,0 -7.23288,-9.22742 -8.85064,-14.17202c11.62591,-14.29758 21.65177,-16.35126 21.65177,-16.35126c1.66112,-1.39248 5.0961,5.97906 5.0961,5.97906l10.87978,20.73008l-1.69508,-3.09896c0,0 -9.76769,-18.43593 -7.48594,-18.20752c2.0994,0.21017 14.66387,-3.59163 13.91378,-0.40681z" fill="#582600" stroke="#000000" stroke-width="2.5" stroke-linecap="round"/><path d="M225.47347,168.8629c-1.24264,1.12681 -2.64442,2.11215 -4.02488,2.91143c-3.61258,2.69741 -7.60538,5.58405 -11.49795,7.79612c-1.11045,0.63103 -2.19289,1.2885 -3.28627,1.95741c-0.36817,0.22525 -1.33336,0.57568 -1.66855,0.69155c1.11257,0.91254 2.06232,2.54148 3.29862,3.19229c0.14539,0.07653 0.41691,0.01046 0.74172,-0.12922c0.92399,-0.76649 1.96654,-1.41056 2.42877,-1.76719c4.97232,-4.42211 10.62636,-7.58042 15.76919,-11.68003c-0.16391,-0.58936 -0.91582,-1.58976 -0.97402,-1.68455c-0.26369,-0.42949 -0.52803,-0.85698 -0.78664,-1.28777zM224.72738,167.5663c-0.2728,-0.50134 -0.53004,-1.01372 -0.76233,-1.54489c0,0 -0.14409,-0.33041 -0.02871,-0.64562c-1.63899,-2.82687 -3.10342,-5.82427 -4.31921,-8.62626c-0.70057,-1.17113 -1.76294,-2.67963 -0.83106,-4.06205c0.67054,-0.99475 2.73097,-1.41871 3.75094,-1.58975c3.27207,-0.54864 6.57617,-1.01758 9.84474,-1.47978c1.90651,0.9532 1.3894,3.00912 1.51406,5.09315c0.27163,4.54073 0.66194,9.06126 0.92827,13.60397c0.58215,3.18007 0.29254,6.21839 0.53868,9.39175c0.34092,4.39504 0.51006,7.89849 -1.11969,12.03181c-3.77684,4.2629 -11.26487,8.408 -16.74169,6.67324c-3.55491,-0.0049 -5.85017,-3.58674 -8.11936,-6.17625c-0.38035,-0.43404 -1.97833,-1.75303 -2.05197,-2.29834c-0.05232,-0.38739 0.07797,-0.78596 0.32249,-1.17954c-1.3547,-0.72008 -2.45929,-2.47018 -3.63291,-3.45723c-1.03426,-2.38263 2.04815,-3.23459 3.84666,-4.30033c4.36494,-2.58651 8.81046,-5.47645 12.8837,-8.54833c1.35995,-0.78742 2.76091,-1.76164 3.97735,-2.88556zM211.00625,185.78354c-0.01693,0.00903 -0.0341,0.01836 -0.05151,0.02797c-1.03555,0.83373 -2.29281,1.8566 -2.26927,1.88372c2.22103,2.55803 5.54041,7.13184 9.01103,7.19593c5.05822,1.60217 11.82001,-2.23233 15.41434,-6.02096c1.41383,-3.79723 1.18857,-7.00416 0.88499,-11.02451c-0.23851,-3.15869 0.04413,-6.16089 -0.53192,-9.32474c-0.28174,-4.57549 -0.66064,-9.1306 -0.93741,-13.70426c-0.03828,-0.63253 0.05708,-3.65787 -0.29232,-3.67133c-3.33943,0.71719 -6.81521,0.70975 -10.12861,1.57437c-0.27214,0.07103 -2.49307,0.78713 -2.38175,1.20126c0.181,0.67332 0.73059,1.47456 1.08287,2.06211c2.45397,5.6008 6.82315,10.26157 8.8929,15.94349c-0.34111,0.67104 -0.77901,1.32052 -1.34746,1.75784l-0.5003,0.55403c0,0 -0.08102,0.08898 -0.20951,0.15767c-1.77028,2.28677 -5.36729,3.8602 -7.31162,4.92243c-3.2657,1.87585 -5.96481,4.67351 -9.3245,6.46495z" fill="#000000" stroke="none" stroke-width="0.5" stroke-linecap="butt"/><path d="M221.48139,171.73865c1.38044,-0.79927 2.78465,-1.78163 4.02727,-2.90845c0.25861,0.43079 0.52612,0.86308 0.78979,1.29257c0.05818,0.09478 0.81339,1.10189 0.97728,1.69123c-5.14283,4.09961 -10.86872,7.3176 -15.84106,11.7397c-0.46222,0.35663 -1.50736,0.99795 -2.43134,1.76444c-0.32483,0.13968 -0.59761,0.20423 -0.743,0.1277c-1.2363,-0.65081 -2.19473,-2.29575 -3.30732,-3.2083c0.33518,-0.11588 1.3004,-0.46625 1.66855,-0.69149c1.09336,-0.66892 2.17476,-1.32979 3.28521,-1.96085c3.89256,-2.21206 7.96199,-5.14919 11.57456,-7.8466z" data-paper-data="{&quot;noHover&quot;:false,&quot;origItem&quot;:[&quot;Path&quot;,{&quot;applyMatrix&quot;:true,&quot;segments&quot;:[[[926.17844,407.1979],[3.2606,1.25965],[-0.27949,0.97418]],[[925.31465,410.11917],[0.29084,-0.97519],[-0.06418,0.21521]],[[924.29914,413.90358],[-0.01258,-1.20526],[13.15638,4.16543]],[[964.1057,425.02121],[-12.99513,-4.87922],[1.17537,0.35239]],[[970.21765,426.67451],[-2.3817,-0.804],[0.75941,0.04146]],[[971.83798,426.41666],[-0.25651,0.23985],[2.18115,-2.03947]],[[976.78433,418.26967],[-1.76682,2.44279],[-0.76669,0.00973]],[[972.89889,418.10481],[0.90089,0.17138],[-2.67549,-0.50896]],[[964.88923,416.67374],[2.68829,0.42712],[-9.42353,-1.49721]],[[936.29671,409.90591],[9.13228,2.58714],[-3.35077,-0.55846]]],&quot;closed&quot;:true}]}" fill="#ffffff" stroke="none" stroke-width="0.5" stroke-linecap="butt"/><path d="M212.31415,184.71389c4.56369,-4.05205 9.61312,-7.02167 14.40485,-10.64916c0.03013,0.05416 0.16001,0.10955 0.20813,0.16446c0.48063,0.54832 0.879,0.00833 0.879,0.00833l0.50038,-0.55006c0.56846,-0.4373 1.00761,-1.07744 1.34873,-1.74847c-2.06978,-5.68193 -6.39161,-10.30396 -8.84558,-15.90476c-0.35227,-0.58755 -0.91017,-1.49074 -1.09116,-2.16406c-0.11132,-0.41412 2.11558,-1.13059 2.38773,-1.20161c3.31337,-0.8646 6.80922,-0.85166 10.14865,-1.56885c0.34939,0.01346 0.25748,3.04095 0.29575,3.67348c0.27677,4.57364 0.67359,9.15207 0.95535,13.72755c0.57608,3.16384 0.29551,6.19984 0.53403,9.35852c0.30357,4.02036 0.51444,7.25267 -0.8994,11.0499c-3.59433,3.78863 -10.39581,7.63414 -15.45404,6.03199c-3.47062,-0.06406 -6.81367,-4.65316 -9.03468,-7.21118c-0.03896,-0.04487 3.49123,-2.88399 3.66227,-3.01605z" data-paper-data="{&quot;noHover&quot;:false,&quot;origItem&quot;:[&quot;Path&quot;,{&quot;applyMatrix&quot;:true,&quot;segments&quot;:[[[926.61254,417.73069],[12.14285,3.5238],[-0.03018,0.12086]],[[926.46822,418.11346],[0.06716,-0.13431],[-0.67082,1.34164]],[924.45576,418.78428],[[923.08279,418.0906],[0,0],[-1.44471,-0.43097]],[[919.22563,415.72869],[1.11205,1.01797],[0.89694,-11.9485]],[[928.15956,380.1298],[-1.74473,12.05571],[0.38029,-1.32836]],[[929.175,375.57071],[0.02742,1.37277],[-0.01686,-0.84429]],[[923.5003,374.93752],[0.60865,-0.05075],[-7.41054,0.61792]],[[901.48814,378.8123],[7.37628,-0.90935],[-0.71866,0.25961]],[[903.08234,385.83106],[-0.2998,-1.20115],[2.16779,8.68513]],[[909.35292,411.92731],[-2.15853,-8.69186],[0.69956,6.26621]],[[913.83986,429.61277],[-1.39861,-6.02998],[1.78014,7.67491]],[[922.29365,449.50563],[-5.21858,-6.1072],[9.74892,4.62723]],[[957.96755,450.34516],[-9.56021,6.37347],[7.18055,-2.44927]],[[972.39433,430.92276],[-3.08539,6.24485],[0.05411,-0.10951]],[[963.14745,427.86406],[0.43501,0.13058],[-11.92317,-4.46591]]],&quot;closed&quot;:true}]}" fill="#ffcb66" stroke="none" stroke-width="0.5" stroke-linecap="butt"/></g><g stroke="#000000" stroke-width="1" stroke-linecap="butt"><path d="M242.3835,147.0814l-8.97433,1.15344c0,0 -2.30206,-6.85274 3.72015,-7.68727c6.37589,-0.88355 5.25419,6.53382 5.25419,6.53382z" fill="#000000"/><path d="M233.17992,143.75025c0.3969,-1.48939 1.46454,-2.85835 3.9494,-3.20269c1.65159,-0.22887 2.80009,0.09925 3.59532,0.71116c0.00378,0.00292 0.11542,1.39358 0.11542,1.39358c0,0 -7.66143,1.10278 -7.66014,1.09796z" fill="#ffffff"/><path d="M237.95331,147.67322c-1.50401,0.1933 -4.53749,0.58318 -4.53749,0.58318c0,0 -0.22447,-0.85347 -0.35239,-1.71067c-0.0111,-0.07435 1.39156,-0.29737 2.53883,-0.0893c1.35138,0.24509 2.49826,1.19786 2.35104,1.21677z" fill="#ff8484"/></g></g></g></svg>