<svg version="1.1" xmlns="http://www.w3.org/2000/svg" xmlns:xlink="http://www.w3.org/1999/xlink" width="34.10974" height="42.82687" viewBox="0,0,34.10974,42.82687"><g transform="translate(-221.6519,-153.96756)"><g data-paper-data="{&quot;isPaintingLayer&quot;:true}" fill-rule="nonzero" stroke-linejoin="miter" stroke-miterlimit="10" stroke-dasharray="" stroke-dashoffset="0" style="mix-blend-mode: normal"><text transform="translate(229.48055,186.43444) rotate(4.70488) scale(0.38082,0.38082)" font-size="40" xml:space="preserve" fill="#ffffff" fill-rule="nonzero" stroke="none" stroke-width="1" stroke-linecap="butt" stroke-linejoin="miter" stroke-miterlimit="10" stroke-dasharray="" stroke-dashoffset="0" font-family="Sans Serif" font-weight="normal" text-anchor="start" style="mix-blend-mode: normal"><tspan x="0" dy="0">???</tspan></text><path d="M246.40548,196.15313c-6.7606,-0.69201 -13.31444,-1.38328 -15.92793,-2.24564c-2.38855,-0.78814 -2.95203,-2.41359 -2.95203,-2.41359c0,0 -0.82831,-1.47053 -0.77995,-2.33222c0.14512,-2.58509 0.90491,-9.93972 2.14653,-16.21472c0.04144,-0.20943 0.07231,-0.32563 0.12615,-0.53221c0.16151,-0.61975 0.89458,-3.01342 0.89458,-3.01342c0,0 1.8867,-0.72618 2.88462,-0.8815c2.99376,-0.46597 10.28195,1.19949 18.02963,2.30979c0.70223,0.10064 1.80399,1.17633 1.80399,1.17633c0,0 0.663,1.85019 0.51082,2.95499c-0.98381,7.14273 -2.09861,15.04205 -2.47199,16.83463c-0.12446,0.59753 -1.41552,2.82229 -1.41552,2.82229z" fill="#582700" stroke="#000000" stroke-width="1.25" stroke-linecap="round"/><path d="M244.8406,184.19692c0.26918,-1.95435 0.66024,-3.51485 0.87343,-3.48548c0.2132,0.02937 0.16782,1.63748 -0.10136,3.59182c-0.26918,1.95435 -0.66022,3.51483 -0.87342,3.48547c-0.2132,-0.02937 -0.16782,-1.63747 0.10135,-3.59181z" fill="none" stroke="#000000" stroke-width="1.25" stroke-linecap="butt"/><path d="M247.54736,181.32159c-0.17442,0.35067 -0.48738,0.28862 -0.61332,0.24599c-0.10716,0.11671 -0.26806,0.18047 -0.43682,0.15673c-0.11577,-0.0163 -0.21661,-0.07115 -0.2914,-0.14976l-0.37658,-0.38841c-0.07716,-0.05258 -0.15436,-0.10371 -0.23172,-0.15359c-0.37344,-0.06153 -0.70145,-0.39173 -1.11887,-0.64196c-0.10048,-0.05194 -0.20212,-0.10334 -0.30515,-0.15453c0,0 -0.09699,-0.04824 -0.17802,-0.14495c-0.16275,-0.10088 -0.25947,-0.29142 -0.23106,-0.49321c0.03835,-0.2725 0.29035,-0.46233 0.56286,-0.42398c0.05331,0.00751 0.10349,0.0232 0.14937,0.04561l0.47418,0.2182l-0.02674,0.05811l0.01858,0.0116c0.01291,0.00739 0.0257,0.01471 0.03839,0.02195c0.04795,0.02511 0.09565,0.05037 0.1431,0.07578c0.65489,0.17047 1.27324,0.46494 1.84329,0.88098l0.35568,0.16739c0,0 0.44614,0.22191 0.22424,0.66805z" fill="#582700" stroke="none" stroke-width="0.5" stroke-linecap="butt"/><g stroke="#000000" stroke-width="0.625" stroke-linecap="butt"><g data-paper-data="{&quot;index&quot;:null}" fill="#000000"><path d="M242.1379,191.02796c-5.07409,-1.36332 -2.68349,-2.84488 -2.68349,-2.84488l6.37917,1.62604c0,0 1.08211,2.45461 -3.69567,1.21884z"/></g><g data-paper-data="{&quot;index&quot;:null}" fill="#ffffff"><path d="M242.1379,191.02796c-5.07409,-1.36332 -2.68349,-2.84488 -2.68349,-2.84488c0,0 4.3157,1.10007 5.3927,1.3746c0.00149,0.00038 -0.46863,0.40622 -0.59017,0.90087c-0.09954,0.40513 0.1465,0.91706 0.13671,0.91712c-0.54634,0.00345 -1.27846,-0.09492 -2.25576,-0.3477z"/></g></g><path d="M248.58865,184.86807c0.26918,-1.95435 0.66024,-3.51485 0.87343,-3.48548c0.2132,0.02937 0.16782,1.63748 -0.10136,3.59182c-0.26918,1.95435 -0.66022,3.51483 -0.87342,3.48547c-0.2132,-0.02937 -0.16782,-1.63747 0.10135,-3.59181z" fill="none" stroke="#000000" stroke-width="1.25" stroke-linecap="butt"/><path d="M247.28292,182.0139c-0.2219,-0.44614 0.22424,-0.66805 0.22424,-0.66805l0.35568,-0.16739c0.57005,-0.41604 1.1884,-0.71051 1.84329,-0.88098c0.04745,-0.02541 0.09515,-0.05067 0.1431,-0.07578c0.01269,-0.00724 0.02548,-0.01456 0.03839,-0.02195l0.01858,-0.0116l-0.02674,-0.05811l0.47418,-0.2182c0.04588,-0.02241 0.09606,-0.0381 0.14937,-0.04561c0.27251,-0.03835 0.52451,0.15148 0.56286,0.42398c0.02841,0.20179 -0.06831,0.39233 -0.23106,0.49321c-0.08103,0.09671 -0.17802,0.14495 -0.17802,0.14495c-0.10303,0.05119 -0.20467,0.10259 -0.30515,0.15453c-0.41742,0.25023 -0.74543,0.58043 -1.11887,0.64196c-0.07736,0.04988 -0.15456,0.10101 -0.23172,0.15359l-0.37658,0.38841c-0.07479,0.07861 -0.17563,0.13346 -0.2914,0.14976c-0.16876,0.02374 -0.32966,-0.04002 -0.43682,-0.15673c-0.12594,0.04263 -0.4389,0.10468 -0.61332,-0.24599z" data-paper-data="{&quot;index&quot;:null}" fill="#582700" stroke="none" stroke-width="0.5" stroke-linecap="butt"/><g data-paper-data="{&quot;index&quot;:null}" stroke="#000000" stroke-width="1.1" stroke-linecap="butt"><path d="M254.35122,171.24384c0,0 -17.90059,-5.02605 -22.91322,-2.98039c-5.46852,2.23172 -5.25101,14.237 -5.25101,14.237c0,0 -5.16669,-16.07389 3.43686,-25.12873c3.15181,-3.31713 15.96927,-4.44574 21.96402,0.49191c4.38068,3.6082 2.76335,13.38021 2.76335,13.38021z" fill="#901111"/><path d="M230.79609,170.25696c-1.27143,-0.79738 -2.02544,-1.16257 -1.9172,-1.89846c0.11915,-0.81011 1.15097,-1.17017 2.85294,-1.4879c1.76444,-0.32938 4.24556,-0.5889 6.97052,0.14488c1.16103,0.31265 2.6916,1.23675 3.99237,1.42807c1.41175,0.20764 2.76291,-1.76694 4.03076,-1.30645c1.61593,0.58692 2.96233,1.87649 4.02557,2.58372c1.45545,0.96812 2.9731,0.1901 3.80159,0.51552c0.56678,0.22263 0.72604,1.53945 0.659,1.99525c-0.07212,0.49035 -0.66937,1.53706 -1.38772,1.51594c-1.14217,-0.0336 -2.81014,-1.27314 -4.82319,-0.43442c-2.26128,0.94215 -4.81492,1.01379 -7.4906,0.62024c-1.00651,-0.14804 -1.88622,-0.97505 -2.8193,-1.17268c-0.85229,-0.18052 -1.60628,-0.80707 -2.39942,-0.88165c-1.04116,-0.09791 -2.09204,0.36262 -2.9425,0.09634c-1.04001,-0.32562 -1.8482,-1.27652 -2.55281,-1.71842z" data-paper-data="{&quot;index&quot;:null}" fill="#ffffff"/><path d="M222.37232,186.59265c-0.46629,-1.15962 0.10939,-2.12261 0.7037,-3.19607c0.32744,-0.59143 0.35667,-1.48437 0.9351,-1.83192c0.93236,-0.56022 2.29604,-0.78606 3.13639,-0.36438c0.62723,0.31474 0.81223,1.08074 1.12132,1.84941c0.23547,0.58559 -0.18947,1.36143 -0.24349,1.98343c-0.1119,1.28835 -0.29719,2.38476 -1.39532,3.04457c-0.75269,0.45226 -1.69544,1.27883 -2.42261,1.07916c-0.8459,-0.23227 -1.44621,-1.59705 -1.8351,-2.56418z" fill="#ffffff"/></g></g></g></svg>