<svg version="1.1" xmlns="http://www.w3.org/2000/svg" xmlns:xlink="http://www.w3.org/1999/xlink" width="183.18182" height="183.18182" viewBox="0,0,183.18182,183.18182"><g transform="translate(-148.40909,-92.40909)"><g data-paper-data="{&quot;isPaintingLayer&quot;:true}" fill-rule="nonzero" stroke="none" stroke-width="0" stroke-linecap="butt" stroke-linejoin="miter" stroke-miterlimit="10" stroke-dasharray="" stroke-dashoffset="0" style="mix-blend-mode: normal"><path d="" data-paper-data="{&quot;index&quot;:null}" fill="#87a9bc"/><path d="" data-paper-data="{&quot;index&quot;:null}" fill="#87a9bc"/><path d="M148.40909,275.59091v-183.18182h183.18182v183.18182z" fill="none"/><path d="M164.268,171.00548c0.11879,-3.50269 6.3911,-17.50525 19.3766,-29.1746c3.4126,-3.06671 6.74579,-6.76012 10.58814,-9.75609c20.88639,-16.28558 46.73678,-29.43071 49.61859,-29.52765c0.80346,-0.02702 5.63673,-1.06656 9.19834,2.94728c8.04846,9.0704 20.32255,28.71026 21.48138,32.01282c0.12941,0.36882 -1.2098,3.21113 -4.35821,6.25754c-3.79282,3.66995 -9.78436,7.38611 -9.82519,7.68098c-0.24805,1.79131 44.6061,-1.54591 45.08702,1.05971c0.04867,0.26366 4.83071,2.22155 6.91492,7.30509c0.97512,2.3784 2.65114,5.16051 3.25615,8.84993c1.28801,7.85444 0.49938,23.91176 -0.88707,30.56181c-0.57478,2.7569 -6.62797,5.13763 -8.98571,6.28583c-2.67066,1.30059 -44.43363,-0.35778 -48.85244,0.71922c-0.69246,0.16878 13.6461,9.17272 18.92683,15.63785c1.46687,1.79587 2.37664,5.12082 2.20052,6.03463c-1.60233,8.31399 -31.85841,30.05203 -36.03154,29.68896c-4.9068,-0.4269 -34.91268,-23.96654 -55.87248,-42.88382c-5.26279,-4.74993 -10.8419,-11.52279 -14.6827,-17.50833c-3.30035,-5.14329 -5.63362,-9.49429 -6.24004,-10.9074c-2.51917,-5.8703 -0.98032,-13.30187 -0.91311,-15.28377zM242.94062,249.68405c1.5175,0 25.59008,-20.05496 25.85725,-21.46663c0.2944,-1.55551 -12.96156,-8.82326 -23.06136,-20.1071c-1.38337,-1.54555 -6.33297,-7.08463 -4.29469,-9.62736c2.29317,-2.86071 12.25906,-1.29452 15.14459,-1.62431c2.56694,-0.29338 27.03114,2.15003 40.15401,1.76901c4.05084,-0.11762 7.92571,-0.89209 8.58813,-1.60466c0.79066,-0.85051 2.277,-13.60549 1.3812,-23.46332c-1.09589,-12.0598 -6.25482,-12.16436 -6.63147,-14.27691c-0.22297,-1.2506 -57.07175,-0.97686 -58.12777,-1.55465c-1.52532,-0.83457 -0.63352,-4.28237 0.30583,-5.18134c2.36037,-2.2589 9.64462,-7.27706 15.18097,-10.57137c5.5643,-3.31094 9.37483,-4.89492 9.36044,-5.91041c-0.06375,-4.50011 -19.28472,-26.09524 -20.85714,-26.09524c-1.17809,0 -20.9721,11.11169 -40.28562,25.01682c-10.41386,7.49765 -21.36077,15.04662 -27.8023,23.41314c-4.61828,5.99841 -6.45005,14.6162 -6.34065,18.42719c0.07301,2.54344 1.1603,9.69291 4.3101,15.058c6.34676,10.81045 63.42744,57.79915 67.11847,57.79915z" fill="#e40000"/><path d="M242.94324,249.734c-3.69103,0 -60.82347,-47.02929 -67.17023,-57.83974c-3.1498,-5.36509 -4.23792,-12.52611 -4.31093,-15.06955c-0.1094,-3.81099 1.72511,-12.44304 6.34339,-18.44145c6.44153,-8.36652 17.40567,-15.93903 27.81953,-23.43668c19.31352,-13.90513 39.14228,-25.02658 40.32037,-25.02658c1.57242,0 20.81526,21.60259 20.87901,26.1027c0.01439,1.01549 -3.84443,2.68685 -9.40873,5.99779c-5.53635,3.29431 -12.80442,8.3171 -15.16479,10.576c-0.93935,0.89897 -1.8196,4.24744 -0.29428,5.08201c1.05602,0.57779 57.9461,0.33768 58.16907,1.58828c0.37665,2.11255 5.53799,2.22848 6.63388,14.28828c0.8958,9.85783 -0.59194,22.63003 -1.3826,23.48054c-0.66242,0.71257 -4.53815,1.48999 -8.58899,1.60761c-13.12287,0.38102 -37.59892,-2.04289 -40.16586,-1.74951c-2.88553,0.32979 -12.88125,-1.22178 -15.17442,1.63893c-2.03828,2.54273 2.8943,7.98342 4.27767,9.52897c10.0998,11.28384 23.393,18.643 23.0986,20.19851c-0.26717,1.41167 -24.36317,21.47389 -25.88067,21.47389z" data-paper-data="{&quot;noHover&quot;:false,&quot;origItem&quot;:[&quot;Path&quot;,{&quot;applyMatrix&quot;:true,&quot;segments&quot;:[[[242.94062,249.68405],[0,0],[1.5175,0]],[[268.79787,228.21742],[-0.26717,1.41167],[0.2944,-1.55551]],[[245.73651,208.11032],[10.0998,11.28384],[-1.38337,-1.54555]],[[241.44182,198.48296],[-2.03828,2.54273],[2.29317,-2.86071]],[[256.58641,196.85865],[-2.88553,0.32979],[2.56694,-0.29338]],[[296.74042,198.62766],[-13.12287,0.38102],[4.05084,-0.11762]],[[305.32855,197.023],[-0.66242,0.71257],[0.79066,-0.85051]],[[306.70975,173.55968],[0.8958,9.85783],[-1.09589,-12.0598]],[[300.07828,159.28277],[0.37665,2.11255],[-0.22297,-1.2506]],[[241.95051,157.72812],[1.05602,0.57779],[-1.52532,-0.83457]],[[242.25634,152.54678],[-0.93935,0.89897],[2.36037,-2.2589]],[[257.43731,141.97541],[-5.53635,3.29431],[5.5643,-3.31094]],[[266.79775,136.065],[0.01439,1.01549],[-0.06375,-4.50011]],[[245.94061,109.96976],[1.57242,0],[-1.17809,0]],[[205.65499,134.98658],[19.31352,-13.90513],[-10.41386,7.49765]],[[177.85269,158.39972],[6.44153,-8.36652],[-4.61828,5.99841]],[[171.51204,176.82691],[-0.1094,-3.81099],[0.07301,2.54344]],[[175.82214,191.88491],[-3.1498,-5.36509],[6.34676,10.81045]],[[242.94061,249.68406],[-3.69103,0],[0,0]]],&quot;closed&quot;:true,&quot;fillColor&quot;:[0,0,0,1],&quot;strokeWidth&quot;:0}]}" fill="#000000"/></g></g></svg>