<svg version="1.1" xmlns="http://www.w3.org/2000/svg" xmlns:xlink="http://www.w3.org/1999/xlink" width="183.18182" height="183.18182" viewBox="0,0,183.18182,183.18182"><g transform="translate(-148.40909,-92.40909)"><g data-paper-data="{&quot;isPaintingLayer&quot;:true}" fill-rule="nonzero" stroke-linejoin="miter" stroke-miterlimit="10" stroke-dasharray="" stroke-dashoffset="0" style="mix-blend-mode: normal"><g data-paper-data="{&quot;index&quot;:null}"><path d="M247.56712,212.30857l-75.44484,-0.93037c0,0 -7.29182,-48.08163 -2.09572,-55.3573c7.55948,-10.58489 70.90421,-2.32592 70.90421,-2.32592" data-paper-data="{&quot;index&quot;:null}" fill="#87a3ad" stroke="#000000" stroke-width="1.5" stroke-linecap="round"/><path d="M224.16527,156.77277c0,0 -6.98269,-8.66486 -16.76555,-22.35404c-0.59,-0.82562 4.82054,-8.03464 9.14298,-11.7463c5.89378,-5.06098 22.99094,-15.84698 22.99094,-15.84698c0,0 71.65053,35.93767 72.30138,69.1578c0.8085,41.26776 -72.30135,77.19129 -72.30135,77.19129c0,0 -17.09715,-10.786 -22.99094,-15.84698c-4.32243,-3.71165 -9.73301,-10.92068 -9.14298,-11.7463c9.78287,-13.68918 18.51194,-26.89471 18.51194,-26.89471" data-paper-data="{&quot;index&quot;:null}" fill="#87a3ad" stroke="#000000" stroke-width="5" stroke-linecap="round"/><path d="M247.24227,210.92154l-72.20594,-0.89043c0,0 -6.97877,-46.01743 -2.00575,-52.98076c7.23496,-10.13048 67.86024,-2.22607 67.86024,-2.22607" data-paper-data="{&quot;index&quot;:null}" fill="none" stroke="#ffffff" stroke-width="1.5" stroke-linecap="round"/><path d="M224.84507,157.76994c0,0 -6.68292,-8.29288 -16.04579,-21.39436c-0.56466,-0.79017 4.61361,-7.68972 8.75045,-11.24201c5.64076,-4.84369 22.00391,-15.16665 22.00391,-15.16665c0,0 68.57451,34.39481 69.19742,66.18877c0.77379,39.49609 -69.19738,73.8774 -69.19738,73.8774c0,0 -16.36316,-10.32296 -22.00391,-15.16665c-4.13687,-3.55231 -9.31518,-10.45184 -8.75045,-11.24201c9.36287,-13.10148 17.71722,-25.7401 17.71722,-25.7401" data-paper-data="{&quot;index&quot;:null}" fill="none" stroke="#ffffff" stroke-width="5" stroke-linecap="round"/><path d="M247.56712,212.30857l-75.44484,-0.93037c0,0 -7.29182,-48.08163 -2.09572,-55.3573c7.55948,-10.58489 70.90421,-2.32592 70.90421,-2.32592" data-paper-data="{&quot;index&quot;:null}" fill="none" stroke="#000000" stroke-width="5" stroke-linecap="round"/><path d="M224.16527,156.77277c0,0 -6.98269,-8.66486 -16.76555,-22.35404c-0.59,-0.82562 4.82054,-8.03464 9.14298,-11.7463c5.89378,-5.06098 22.99094,-15.84698 22.99094,-15.84698c0,0 71.65053,35.93767 72.30138,69.1578c0.8085,41.26776 -72.30135,77.19129 -72.30135,77.19129c0,0 -17.09715,-10.786 -22.99094,-15.84698c-4.32243,-3.71165 -9.73301,-10.92068 -9.14298,-11.7463c9.78287,-13.68918 18.51194,-26.89471 18.51194,-26.89471" data-paper-data="{&quot;index&quot;:null}" fill="none" stroke="#000000" stroke-width="5" stroke-linecap="round"/><path d="M216.90107,218.80622l5.54375,-9.23958l17.00082,-22.91415l20.69665,31.41456z" data-paper-data="{&quot;index&quot;:null}" fill="#87a3ad" stroke="none" stroke-width="0" stroke-linecap="butt"/><path d="M261.25103,142.67212l-20.69665,31.41456l-17.00082,-22.91414l-5.54375,-9.23958z" data-paper-data="{&quot;index&quot;:null}" fill="#87a3ad" stroke="none" stroke-width="0" stroke-linecap="butt"/></g><path d="" data-paper-data="{&quot;index&quot;:null}" fill="#87a9bc" stroke="none" stroke-width="0" stroke-linecap="butt"/><path d="" data-paper-data="{&quot;index&quot;:null}" fill="#87a9bc" stroke="none" stroke-width="0" stroke-linecap="butt"/><path d="M148.40909,275.59091v-183.18182h183.18182v183.18182z" fill="none" stroke="none" stroke-width="0" stroke-linecap="butt"/></g></g></svg>