<svg version="1.1" xmlns="http://www.w3.org/2000/svg" xmlns:xlink="http://www.w3.org/1999/xlink" width="126.08766" height="171.53013" viewBox="0,0,126.08766,171.53013"><defs><linearGradient x1="232.5426" y1="87.91082" x2="232.5426" y2="248.32605" gradientUnits="userSpaceOnUse" id="color-1"><stop offset="0" stop-color="#ff7373"/><stop offset="1" stop-color="#ed4c4c"/></linearGradient><linearGradient x1="247.29767" y1="78.96947" x2="247.29767" y2="213.10435" gradientUnits="userSpaceOnUse" id="color-2"><stop offset="0" stop-color="#ff7373"/><stop offset="1" stop-color="#ed4c4c"/></linearGradient></defs><g transform="translate(-177.70063,-78.18354)"><g data-paper-data="{&quot;isPaintingLayer&quot;:true}" fill-rule="nonzero" stroke="#001026" stroke-width="2" stroke-linecap="butt" stroke-linejoin="miter" stroke-miterlimit="10" stroke-dasharray="" stroke-dashoffset="0" style="mix-blend-mode: normal"><path d="M179.02029,119.73195l10.08245,-30.6552c0,0 102.15521,-12.66001 94.85526,45.45426c-1.63898,13.04781 -16.09576,36.10216 -30.16251,53.89649c-13.021,16.47146 -25.78922,28.23415 -25.78922,28.23415l58.15483,0.4504l0.18821,31.214l-107.61342,-1.04029l1.01309,-28.95062c0,0 70.08526,-54.8732 69.6789,-82.70937c-0.37213,-25.49139 -70.40759,-15.89383 -70.40759,-15.89383z" fill="url(#color-1)"/><path d="M292.54774,247.99049v-31.35991l7.39953,-4.2283v31.35991z" fill="#a80000"/><path d="M240.41908,212.04726c0,0 14.65769,-13.31971 29.16631,-33.5419c10.918,-15.21757 22.12796,-34.49672 21.51979,-54.09779c-0.44428,-14.31914 -10.71331,-24.80446 -22.38983,-30.31134c-11.19567,-5.2801 -18.22987,-7.51296 -30.59943,-8.8757c-22.69497,-2.50028 -43.52653,-0.37473 -43.52653,-0.37473l10.58674,-5.66265c0,0 27.059,-0.75887 38.48988,0.58365c20.05526,2.35543 36.85508,11.12542 43.433,18.57649c4.62034,5.23363 11.22213,17.1098 11.08377,26.31905c-0.36252,24.12991 -12.79764,43.31138 -23.83661,58.18184c-8.25062,11.11432 -18.1201,23.8186 -18.1201,23.8186l43.77988,1.15794l-9.81564,5.28363z" fill="url(#color-2)"/></g></g></svg>