<svg version="1.1" xmlns="http://www.w3.org/2000/svg" xmlns:xlink="http://www.w3.org/1999/xlink" width="107.73326" height="180.21266" viewBox="0,0,107.73326,180.21266"><g transform="translate(-192.88582,-92.81064)"><g data-paper-data="{&quot;isPaintingLayer&quot;:true}" fill-rule="nonzero" stroke-linejoin="miter" stroke-miterlimit="10" stroke-dasharray="" stroke-dashoffset="0" style="mix-blend-mode: normal"><g><g><g><g data-paper-data="{&quot;origRot&quot;:0}" stroke="#000000" stroke-width="3" stroke-linecap="round"><path d="M287.8288,219.362c-0.03623,2.42543 -8.90351,0.76962 -8.90351,0.76962c0,0 -23.57961,-3.73881 -34.72383,-5.45845c-4.57413,-1.3979 -5.10716,-39.97898 -1.00471,-44.08378c1.82874,-1.82978 11.82379,-3.79975 13.31378,-2.39153c2.83607,2.68041 7.65238,18.73467 7.65238,18.73467l-4.28981,0.1213l11.25868,0.736c0,0 13.17245,-0.26761 18.71205,1.12845c3.07232,0.77427 -2.01499,30.44365 -2.01499,30.44365z" data-paper-data="{&quot;origPos&quot;:null}" fill="#582700"/><path d="M277.6874,218.3572l1.77295,-29.68212" fill="none"/><path d="M273.56183,218.35101l1.47948,-29.70273" data-paper-data="{&quot;origPos&quot;:null}" fill="none"/></g><path d="M277.46808,218.95981l-2.88238,-0.18516l1.61591,-30.3751l2.88238,0.18516z" fill="#ffffff" stroke="none" stroke-width="0" stroke-linecap="butt"/><path d="M243.89609,214.80789l-2.87998,-10.67456l0.13333,-23.76592l2.01188,-8.14985l3.83386,-3.42772l7.70372,0.07705l1.54075,0.0154l7.02077,16.90534l-3.08021,0.21675l0.01031,1.98073l13.61375,0.8789l-0.61475,29.95051l-27.75397,-4.23885z" fill="#66c8ff" stroke="#000000" stroke-width="0.5" stroke-linecap="round"/></g><g fill="#fffc96" stroke="#000000" stroke-width="2" stroke-linecap="round"><path d="M267.6623,186.785c0,0 4.10059,-2.90208 6.26298,-0.22327c3.45969,4.28599 -28.71909,24.0939 -32.58378,19.84745c-1.579,-1.735 1.0136,-4.30533 1.0136,-4.30533l1.6449,1.4269c0,0 6.84869,-2.34122 14.45685,-6.78835c7.50273,-4.38552 11.57083,-8.61489 11.57083,-8.61489z"/><path d="M259.49174,181.02848c0,0 0.82228,-4.3837 3.2353,-3.21834c5.06528,2.4462 -5.38139,42.10675 -9.57439,38.72648c-2.53938,-2.04714 -0.54764,-5.55784 -0.54764,-5.55784l1.23916,1.01305c0,0 2.64051,-5.60304 4.85015,-14.61664c2.20965,-9.01359 2.07311,-15.5358 2.07311,-15.5358z" data-paper-data="{&quot;index&quot;:null}"/></g></g><g><g data-paper-data="{&quot;index&quot;:null}"><path d="M287.90361,185.79431c2.46507,0.48934 7.83347,-2.60352 7.39731,-0.40284c-0.22217,1.12092 -4.69377,21.51403 -5.62563,22.37977c-0.89757,0.83387 -2.01889,1.24943 -3.22833,1.00935c-0.82284,-0.16337 -2.01289,-0.79692 -2.67774,-1.54338c-1.32695,-1.4898 -2.34591,-22.83658 -2.05535,-24.30266c0.43617,-2.20065 3.72468,2.37041 6.18973,2.85977z" fill="#0091d4" stroke="#000000" stroke-width="1.5" stroke-linecap="butt"/><g stroke-linecap="butt"><path d="M289.36896,178.51912c4.46612,0.88658 7.63114,3.90325 7.06931,6.73792c-0.56183,2.83468 -4.63777,4.41396 -9.1039,3.52739c-4.46611,-0.88658 -7.63115,-3.90326 -7.06932,-6.73793c0.56183,-2.83468 4.63777,-4.41395 9.1039,-3.52737z" fill="#0091d4" stroke="#000000" stroke-width="1.5"/><path d="M284.19495,186.68224c0,0 -1.60263,-0.70867 -2.58943,-2.1722c-0.46005,-0.70461 -0.82052,-2.65199 -0.82052,-2.65199l3.32744,2.28409z" fill="#00aeff" stroke="none" stroke-width="0"/><path d="M287.61263,187.98921l-1.94212,-0.43826c0,0 -0.13297,-0.77935 -0.07934,-1.19427c0.04582,-0.35437 0.35597,-1.32674 0.35597,-1.32674l1.5661,0.62014z" fill="#00aeff" stroke="none" stroke-width="0"/></g><g><path d="M288.23585,184.82419c-6.16111,-1.22307 -11.60733,-6.55817 -10.43352,-12.48062c1.17383,-5.92246 6.36819,-9.25042 12.52926,-8.02739c6.16111,1.22307 10.51981,7.07831 9.346,13.00073c-1.17383,5.92246 -5.28065,8.73028 -11.44171,7.50725z" fill="#00699a" stroke="#000000" stroke-width="1.5" stroke-linecap="butt"/><path d="M288.07834,164.72851c0,0 1.22298,1.69837 2.72331,4.21035c1.4967,2.50591 2.44287,5.997 1.93,8.58468c-1.02701,5.18171 -2.99873,6.78187 -7.47518,5.89327c-2.17779,-0.43232 -3.97687,-1.96513 -4.98509,-3.81593c-1.41516,-2.59778 -2.29972,-5.93872 -1.71731,-8.87709c1.02701,-5.18171 9.52425,-5.99526 9.52425,-5.99526z" fill="#0091d4" stroke="none" stroke-width="0" stroke-linecap="butt"/><path d="M298.56665,177.51107c0,0 -3.98391,2.96399 -11.11979,1.29158c-7.07789,-1.6588 -9.31378,-6.32594 -9.31378,-6.32594" fill="none" stroke="#000000" stroke-width="0.8" stroke-linecap="round"/><path d="M295.86832,182.7829c0,0 -2.94944,1.53974 -9.26963,-0.69607c-4.38557,-1.55143 -8.11329,-4.64967 -8.11329,-4.64967" fill="none" stroke="#000000" stroke-width="0.75" stroke-linecap="round"/><path d="M298.77075,174.55615c0,0 -2.4781,1.63378 -9.20501,-0.33202c-6.99395,-2.04382 -9.54436,-6.14085 -9.54436,-6.14085" fill="none" stroke="#000000" stroke-width="0.8" stroke-linecap="round"/><path d="M282.87983,165.53306c0,0 4.71757,0.88773 9.04026,2.9421c3.28184,1.55969 7.05759,4.71607 7.05759,4.71607" fill="none" stroke="#000000" stroke-width="0.8" stroke-linecap="round"/><path d="M294.31022,166.57949c0,0 2.48542,3.18227 1.08641,8.95745c-1.4992,6.18874 -4.6419,8.98181 -4.6419,8.98181" fill="none" stroke="#000000" stroke-width="0.8" stroke-linecap="round"/><path d="M287.29615,184.32119c0,0 0.40957,-3.2128 0.89581,-5.08206c0.40937,-1.57383 1.77013,-4.45339 2.59382,-7.23818c0.93664,-3.16666 1.31879,-6.16499 1.31879,-6.16499" fill="none" stroke="#000000" stroke-width="0.8" stroke-linecap="round"/><path d="M284.50486,183.64483c0,0 -1.58646,-4.55517 -0.13504,-10.89831c0.92476,-4.04143 5.02506,-7.99863 5.02506,-7.99863" fill="none" stroke="#000000" stroke-width="0.8" stroke-linecap="round"/><path d="M279.91596,180.16637c0,0 -0.93424,-3.41473 1.21391,-9.01227c1.49174,-3.88707 4.62293,-6.64012 4.62293,-6.64012" fill="none" stroke="#000000" stroke-width="0.8" stroke-linecap="round"/><path d="M279.91923,171.48638c-0.43929,-0.08721 -0.71716,-0.5529 -0.62056,-1.04015c0.09655,-0.48725 0.53098,-0.81155 0.97031,-0.72437c0.43929,0.08721 0.71716,0.5529 0.62057,1.04015c-0.09655,0.48725 -0.53101,0.81155 -0.97032,0.72438z" fill="#00aeff" stroke="none" stroke-width="0" stroke-linecap="butt"/><path d="M281.45927,168.36875c-0.25342,-0.05032 -0.41976,-0.28859 -0.37146,-0.53221c0.04828,-0.24361 0.29288,-0.40034 0.54632,-0.35001c0.25342,0.05032 0.41975,0.28862 0.37148,0.53223c-0.04828,0.24361 -0.2929,0.40034 -0.54635,0.35003z" fill="#00aeff" stroke="none" stroke-width="0" stroke-linecap="butt"/></g></g><path d="M284.25679,187.37879c-1.52545,10.57148 -2.56499,12.25513 -2.56499,12.25513c-0.26561,1.31322 -1.56593,0.91985 -1.56593,0.91985c0,0 -2.6137,-0.46731 -4.28662,-0.76639c-1.0985,-0.19639 -2.81475,-0.50323 -2.81475,-0.50323c0,0 -1.04804,-0.3637 -0.88701,-1.07739c0.96868,-4.29378 1.65601,-8.44976 2.35639,-10.55846c0.23345,-0.7029 1.44833,-1.29738 1.44833,-1.29738l5.38109,0.3681c0,0 2.21316,0.02785 2.9335,0.65981z" fill="#582700" stroke="#000000" stroke-width="3" stroke-linecap="round"/><path d="M296.90333,190.99643c-3.66563,21.7698 -5.69527,25.29169 -5.69527,25.29169c-0.59349,2.70956 -2.92031,1.99277 -2.92031,1.99277c0,0 -4.70432,-0.77792 -7.71531,-1.27582c-1.97712,-0.32695 -5.06618,-0.83775 -5.06618,-0.83775c0,0 -1.87135,-0.67325 -1.51857,-2.14698c2.12244,-8.86612 3.7226,-17.43057 5.17273,-21.8003c0.48337,-1.45658 2.73886,-2.7584 2.73886,-2.7584l9.73561,0.38438c0,0 4.01462,-0.09516 5.26841,1.15042z" fill="#582700" stroke="#000000" stroke-width="3" stroke-linecap="round"/></g></g><g stroke="#000000" stroke-linecap="round"><path d="M231.75095,177.20517c0,0 -29.17195,5.04557 -28.78313,-12.73064c0.14324,-6.54933 16.79463,-4.50945 16.79463,-4.50945z" data-paper-data="{&quot;origPos&quot;:null}" fill="#66c8ff" stroke-width="2"/><path d="M223.76576,165.42188c0,0 -16.32271,-2.33026 -16.09316,-2.93102c0.72788,-1.90481 12.82832,-1.01338 12.82832,-1.01338z" data-paper-data="{&quot;origPos&quot;:null}" fill="#0a0a0a" stroke-width="1"/></g><g data-paper-data="{&quot;origRot&quot;:0}" stroke="#000000" stroke-linecap="round"><path d="M240.60228,227.45946c0,0 -0.45118,-4.72712 1.13338,-4.821c4.67579,-0.27699 9.07798,-2.21628 13.55552,-0.89222c1.85931,0.54981 2.89776,4.67136 2.89776,4.67136l6.93217,32.05196c0,0 0.76068,3.30062 1.1282,5.21185c0.39294,2.04342 -0.44287,5.21587 -2.58976,5.46044c-7.88266,0.89807 -12.62103,2.85348 -17.6795,2.20672c-1.84288,-0.23562 -3.78259,-0.60198 -4.643,-2.18608c-1.12395,-2.06925 -0.76644,-6.48747 -0.76644,-6.48747z" data-paper-data="{&quot;origPos&quot;:null}" fill="#ff0000" stroke-width="3"/><path d="M266.56601,266.98244c0,0 -5.84924,3.09739 -11.06239,3.53647c-3.99971,0.33688 -12.75477,0.05796 -12.75477,0.05796c0,0 -1.62047,-2.45173 -1.85542,-4.02028c-0.24751,-1.65238 0.61914,-4.23295 0.61914,-4.23295l23.81649,-2.79748z" data-paper-data="{&quot;origPos&quot;:null}" fill="#976e57" stroke-width="2"/><path d="M240.71448,227.76847c0,0 -0.45118,-4.72712 1.13338,-4.82099c4.67577,-0.27699 9.07798,-2.21628 13.55553,-0.8922c1.85931,0.54981 2.89774,4.67135 2.89774,4.67135l6.93217,32.05196c0,0 0.7607,3.30063 1.12822,5.21185c0.39294,2.04342 -0.44288,5.21586 -2.58976,5.46044c-7.88266,0.89807 -12.62103,2.85349 -17.6795,2.20673c-1.84288,-0.23562 -3.78258,-0.602 -4.64299,-2.18608c-1.12395,-2.06925 -0.76645,-6.48747 -0.76645,-6.48747z" data-paper-data="{&quot;origPos&quot;:null}" fill="#4b4b4b" stroke-width="3"/></g><path d="M234.7074,263.38879c0,0 -0.0846,4.43082 -1.40964,6.38703c-1.01437,1.49756 -2.98167,1.68358 -4.83956,1.7484c-5.09967,0.1779 -9.62129,-2.20496 -17.37816,-3.8249c-2.11262,-0.4412 -2.62833,-3.67602 -2.03351,-5.67384c0.55635,-1.86857 1.64256,-5.08394 1.64256,-5.08394l10.09543,-31.26602c0,0 1.44451,-4.00693 3.35007,-4.38296c4.58892,-0.90558 8.77756,1.43022 13.40419,2.13661c1.56789,0.23938 0.64757,4.90319 0.64757,4.90319c0,0 -0.87968,8.8643 -1.44273,14.53792c-0.79467,8.00762 -2.03625,20.51854 -2.03625,20.51854z" fill="#4b4b4b" stroke="#000000" stroke-width="3" stroke-linecap="round"/><g><path d="M222.56345,180.71694c0,0 2.51834,-14.1762 4.75624,-14.64623c6.71371,-1.41008 21.89209,-0.00068 32.05946,0.32664c1.57178,0.05059 2.4381,13.46902 2.4381,13.46902l0.7195,30.32803c0,0 -0.29254,14.79064 -2.00717,14.73542c-15.2635,-0.49136 -33.18425,-0.22467 -39.95702,-1.27476c-2.25758,-0.35001 -0.83464,-15.89562 -0.83464,-15.89562z" data-paper-data="{&quot;origPos&quot;:null}" fill="#66c8ff" stroke="#000000" stroke-width="3.5" stroke-linecap="round"/><path d="M241.63955,189.44329c-1.32791,-0.04275 -1.23765,-2.50108 -1.23765,-2.50108c0.18717,-5.09876 0.43451,-11.8364 0.62168,-16.93518c0,0 0.09024,-2.45835 1.41815,-2.41559c1.32791,0.04275 1.23765,2.50109 1.23765,2.50109c-0.18717,5.09876 -0.37433,10.19752 -0.56151,15.29629l-0.06017,1.63889c0,0 -0.09024,2.45833 -1.41815,2.41559z" fill="#ffffff" stroke="none" stroke-width="0.5" stroke-linecap="butt"/><path d="M253.73429,189.42041c-1.32791,-0.04275 -1.21454,-3.13111 -1.21454,-3.13111c0.23515,-6.40549 0.54586,-14.86987 0.781,-21.27534c0,0 0.11335,-3.08836 1.44127,-3.04561c1.32791,0.04275 1.21454,3.13112 1.21454,3.13112c-0.23515,6.40549 -0.47028,12.81097 -0.70543,19.21645l-0.07558,2.05891c0,0 -0.11335,3.08836 -1.44127,3.04561z" fill="#ffffff" stroke="none" stroke-width="0.5" stroke-linecap="butt"/></g><g fill="none" stroke="#b9b9b9" stroke-width="3"><path d="M255.9231,172.54596c-0.90124,-1.31243 -0.00756,-2.55021 1.2044,-3.79754c1.21195,-1.2473 2.45995,-1.65871 3.18451,-0.71941c1.53621,1.99162 0.04139,3.00881 -0.90761,3.98549c-1.21198,1.24732 -2.20851,2.38497 -3.48128,0.53145z" stroke-linecap="butt"/><path d="M254.34409,174.50923l2.56891,-2.5822" stroke-linecap="round"/><path d="M250.72155,175.25787c1.21196,-1.2473 2.45995,-1.65871 3.1845,-0.71941c1.53621,1.99162 0.0414,3.00881 -0.9076,3.98549c-1.21196,1.24731 -2.2085,2.38497 -3.48128,0.53145c-0.90124,-1.31243 -0.00757,-2.55021 1.20439,-3.79755z" stroke-linecap="butt"/><path d="M247.93814,181.0187l2.56891,-2.58221" stroke-linecap="round"/><path d="M242.14137,180.77273c0.3511,-1.63004 1.73241,-1.52508 3.31191,-1.12601c1.57949,0.39907 2.61135,1.32963 2.40796,2.57117c-0.43125,2.63237 -2.02438,1.8299 -3.26116,1.51742c-1.57949,-0.39906 -2.95453,-0.6605 -2.45869,-2.96255z" stroke-linecap="butt"/><path d="M243.15911,181.33669l-3.30594,-0.88258" stroke-linecap="round"/><path d="M234.57704,176.70614c0.86907,-1.33305 2.10609,-0.59724 3.42716,0.50014c1.32109,1.09738 1.95987,2.42891 1.35692,3.47387c-1.27843,2.21558 -2.47701,0.74174 -3.51148,-0.11754c-1.32109,-1.09739 -2.49994,-1.97385 -1.27261,-3.85644z" stroke-linecap="butt"/><path d="M232.57633,175.35445l2.74925,2.34028" stroke-linecap="round"/><path d="M227.6632,170.88649c0.86907,-1.33303 2.1061,-0.59725 3.42716,0.50013c1.3211,1.09738 1.95987,2.42891 1.35693,3.47387c-1.27843,2.21557 -2.47702,0.74175 -3.51148,-0.11753c-1.32109,-1.09738 -2.49993,-1.97384 -1.27259,-3.85644z" stroke-linecap="butt"/><path d="M228.41176,171.87507l-2.74925,-2.34028" stroke-linecap="round"/></g><path d="M258.20594,167.66836c-12.42941,0.31159 -24.48329,0.57804 -29.42165,-0.33928c-4.51333,-0.83835 -5.90096,-3.54746 -5.90096,-3.54746c0,0 -1.83375,-2.37934 -1.93921,-3.89351c-0.31644,-4.54246 -0.58683,-17.54384 0.25974,-28.76995c0.02826,-0.37467 0.05825,-0.58433 0.10966,-0.95682c0.1542,-1.11749 0.94818,-5.45809 0.94818,-5.45809c0,0 3.2625,-1.69074 5.03941,-2.18591c5.33076,-1.48553 18.93643,-0.21738 33.25176,-0.02101c1.2975,0.01781 3.53911,1.64691 3.53911,1.64691c0,0 1.61876,3.07882 1.59031,5.0404c-0.18386,12.68202 -0.43581,26.71338 -0.71159,29.92455c-0.09192,1.07041 -1.93684,5.24171 -1.93684,5.24171z" fill="#582700" stroke="#000000" stroke-width="2.5" stroke-linecap="round"/><path d="M255.28317,146.57506c0.04938,-3.40686 0.51493,-6.16508 1.03981,-6.16063c0.52488,0.00442 0.91037,2.76985 0.86098,6.1767c-0.04938,3.40687 -0.51493,6.16509 -1.03981,6.16064c-0.52488,-0.00442 -0.91037,-2.76985 -0.86097,-6.17672z" fill="none" stroke="#000000" stroke-width="2.5" stroke-linecap="butt"/><path d="M249.65693,146.78941c0.05031,-3.46996 0.41023,-6.28023 0.80387,-6.27691c0.39367,0.00333 0.67203,2.819 0.62172,6.28896c-0.05031,3.46996 -0.4102,6.2802 -0.80386,6.2769c-0.39367,-0.00333 -0.67204,-2.81897 -0.62173,-6.28894z" fill="none" stroke="#000000" stroke-width="2.5" stroke-linecap="butt"/><path d="M217.86311,125.56807c-0.69501,-1.03658 0.38661,-1.71019 0.38661,-1.71019l1.33763,-0.7848c0.12128,-0.03841 0.24248,-0.07607 0.36362,-0.11298c-1.13746,-5.69833 -0.09299,-12.62637 -0.21031,-18.28004c-0.03045,-1.46622 -0.477,-5.43158 0.24087,-6.70303c1.20211,-2.12908 2.97085,-1.57475 4.92077,-1.6167c3.31774,-0.07136 6.60945,-0.10322 9.88359,-0.64084c8.11631,-1.32334 16.18121,-1.74917 24.34487,-2.59199c2.5761,-0.26595 5.09465,-0.40925 7.69189,-0.25069c0.71064,0.04339 1.61468,-0.22415 2.11874,0.25729c1.78526,1.70513 1.06456,3.65756 0.77019,5.60441c-0.58715,3.88336 -2.19107,7.40712 -2.24856,11.37251c-0.06508,3.03352 -0.4996,6.15377 -0.85187,9.16824c-0.12158,1.04028 0.26118,2.95395 -0.81719,3.75549c-2.21115,1.64355 -8.04088,0.56688 -10.65336,0.53737c-7.96601,-0.08992 -15.93589,-0.33773 -23.8974,0.00896c-2.8446,0.21767 -5.5553,0.50554 -8.26856,1.13146c-0.02093,0.36896 -0.19551,0.84516 -0.89579,1.06051c-0.75977,0.23364 -1.19695,-0.12929 -1.41966,-0.4393c-0.09233,0.02845 -0.18472,0.05735 -0.27714,0.08676l-0.7423,0.51051c0,0 -1.08162,0.6736 -1.77665,-0.36297z" fill="#000000" stroke="none" stroke-width="0.5" stroke-linecap="butt"/><g><g stroke="#000000" stroke-width="3" stroke-linecap="round"><path d="M199.83074,196.62155l13.52467,-26.81888c0,0 2.64748,-5.05435 3.83253,-5.10395c3.55518,-0.14877 9.44128,2.97235 15.94061,4.92324c1.0803,0.32427 -0.19658,6.05695 -0.19658,6.05695c0,0 -2.42276,8.93571 -3.97342,14.655c-2.36155,8.70992 -6.05113,22.31815 -6.05113,22.31815c0,0 -1.65076,7.0221 -3.58895,6.27445c0,0 -10.23793,0.7956 -24.84979,-8.24176c0.43875,-4.53825 5.36207,-14.06321 5.36207,-14.06321z" data-paper-data="{&quot;origPos&quot;:null}" fill="#582700"/><path d="M199.24791,198.6252l24.8073,8.71581l-1.16434,3.17625l-24.85666,-8.46436z" data-paper-data="{&quot;origPos&quot;:null}" fill="none"/></g><path d="M200.1128,198.43699l16.81425,-33.33678l15.26975,5.33732l1.00252,1.05068l-8.77724,35.49579z" fill="#66c8ff" stroke="#000000" stroke-width="1" stroke-linecap="round"/><path d="M198.39068,201.67378l0.81011,-2.17222l24.68891,8.44005l-0.8101,2.17224z" fill="#ffffff" stroke="none" stroke-width="0" stroke-linecap="butt"/></g><path d="M253.46903,140.46297c-0.20143,0.55088 -0.69402,0.51877 -0.89565,0.47979c-0.14249,0.19269 -0.3776,0.31742 -0.64142,0.31443c-0.18098,-0.00204 -0.34633,-0.06385 -0.47614,-0.16571l-0.65233,-0.50183c-0.12855,-0.06296 -0.25687,-0.12378 -0.38519,-0.18271c-0.58546,-0.01983 -1.1521,-0.44499 -1.84095,-0.73506c-0.16425,-0.05759 -0.33017,-0.11413 -0.4982,-0.17012c0,0 -0.15816,-0.05278 -0.30104,-0.18016c-0.2692,-0.11799 -0.45398,-0.38094 -0.44865,-0.68424c0.00718,-0.40963 0.35836,-0.73778 0.78432,-0.73296c0.08335,0.00094 0.16338,0.01456 0.23817,0.03893l0.76998,0.23199l-0.03005,0.09089l0.03075,0.01359c0.02123,0.00845 0.04229,0.01684 0.06313,0.02512c0.07845,0.02796 0.15652,0.05616 0.23425,0.08465c1.03858,0.12716 2.04455,0.44436 2.99939,0.95023l0.57826,0.17951c0,0 0.72761,0.24279 0.47134,0.94367z" fill="#582700" stroke="none" stroke-width="0.5" stroke-linecap="butt"/><path d="M240.04461,154.86867c0.72545,0.24863 0.46314,0.94746 0.46314,0.94746l-0.43777,1.14977c-0.45158,2.84677 3.54026,2.07 5.3483,1.45916c0,0 0.72924,-0.24554 0.98086,0.45437c0.25163,0.69991 -0.47759,0.94544 -0.47759,0.94544c-3.30175,1.10834 -7.67447,1.101 -7.35583,-3.18109l0.49116,-1.32493c0,0 0.26232,-0.69882 0.98776,-0.4502z" fill="#000000" stroke="none" stroke-width="0.5" stroke-linecap="butt"/></g></g></svg>