<svg version="1.1" xmlns="http://www.w3.org/2000/svg" xmlns:xlink="http://www.w3.org/1999/xlink" width="351.54309" height="351.54309" viewBox="0,0,351.54309,351.54309"><g transform="translate(-64.22845,-4.22846)"><g data-paper-data="{&quot;isPaintingLayer&quot;:true}" fill-rule="nonzero" stroke-linejoin="miter" stroke-miterlimit="10" stroke-dasharray="" stroke-dashoffset="0" style="mix-blend-mode: normal"><g data-paper-data="{&quot;index&quot;:null}" stroke="#2f3bd4" stroke-width="11"><path d="M328.61976,177.3544c0.5832,4.05882 -0.15594,7.03421 -2.69315,9.11511c-2.22134,1.82185 -6.08965,2.78954 -8.07772,5.44228c-1.5155,2.02219 -1.96711,4.51216 -2.34373,8.17533c-9.67344,1.38992 -7.33002,-3.64215 -8.81302,-13.96335c-11.64151,-5.01721 -3.69864,-21.05623 -3.69864,-21.05623c0,0 3.6266,9.33443 7.38482,12.7059c3.24052,2.90703 17.5548,-5.19791 18.24145,-0.41905z" data-paper-data="{&quot;index&quot;:null}" fill="#ffffff" stroke-linecap="butt"/><path d="M347.96034,177.61253c0,0 0.04395,2.2704 -0.45551,3.53828c-0.78764,1.99939 -3.81333,7.29805 -3.81333,7.29805c0,0 -8.65932,-0.79194 -10.56455,-2.5296c-1.85152,-1.6887 -1.17006,-8.98577 -1.17006,-8.98577c0,0 2.94363,-3.04202 7.81987,-2.90652c3.20915,0.08916 7.42131,1.3631 8.1836,3.58557z" data-paper-data="{&quot;index&quot;:null}" fill="#ffffff" stroke-linecap="butt"/><path d="M327.18079,194.6114c2.0444,-0.99386 4.51572,0.55223 7.00115,1.97696c2.48154,1.42249 4.97852,2.72083 5.34844,5.29528c0.59693,4.15439 -3.75641,6.97292 -7.91479,6.65243c-3.35339,-0.25843 -6.50187,-2.8608 -7.42862,-6.11432c-0.23397,-0.82139 -1.17735,-5.7826 2.99382,-7.81037z" data-paper-data="{&quot;index&quot;:null}" fill="#ffffff" stroke-linecap="butt"/><path d="M330.07447,161.97064c0.86861,-0.1248 1.69438,0.2286 2.20514,0.8589l0.03374,0.01316l0.02657,0.06454c0.22517,0.30295 0.38003,0.66385 0.43732,1.06255l0.05132,0.35718l-0.03986,0.37806l0.02471,0.37911l-0.04149,0.22471l0.04077,0.62606l-0.05266,0.28514l-0.04251,0.40322l-0.03205,0.08721l0.00603,0.09249l-0.08226,0.44559l0.1229,1.54157l0.02372,0.16509l-0.02485,0.23581l0.00084,0.0051l-0.0016,0.00211l-0.07148,0.678l0.73253,0.42562l0.50548,0.20931l0.23528,0.17402l0.10483,0.0434l0.27945,0.09146l1.03882,0.65151l0.01845,0.09148l0.08771,0.03416l0.46387,1.12708l0.05132,0.35718l-0.00997,0.09461l0.04605,0.06574l-0.108,0.52198l-0.05583,0.52975l-0.06396,0.04933l-0.01929,0.09323l-0.10261,0.21205l0.00325,0.01961l-0.03524,0.04652l-0.05499,0.11363l-0.33469,0.40052l-0.31508,0.41575l-0.02246,0.01811l-0.09474,0.35615l-0.14905,0.26874l-0.30009,1.14535l-0.19115,1.0354l0.39656,2.75992l0.42275,0.96753l0.01359,0.08206l0.04635,0.0693l0.13312,0.37353l0.2171,0.37288l0.04491,0.15628l0.097,0.13097l0.19236,0.46736l0.01043,0.01558l0.082,0.08095l0.27173,0.44782l0.29137,0.43555l0.03854,0.10813l0.03133,0.05161l-0.00565,0.02042l0.03548,0.09958l0.12735,0.1818l0.09267,0.24336l0.15532,0.20968l0.01428,0.03471l0.20175,0.17472l0.70751,1.01007l0.11543,0.08537l0.02681,0.00141l0.04463,0.05145l0.05325,0.03939l0.34599,0.42069l0.00207,0.00238l0.13356,0.01725l0.12719,0.17172l0.18179,0.11401l0.03638,0.18052l0.38148,0.51501l0.1889,0.45894l0.17323,1.20559l-0.35228,0.44484l-0.03211,0.56331l-0.93606,0.79511l-0.34428,0.17099l-0.09152,0.02034l-0.07567,0.05493l-0.89258,0.36164l-0.77262,0.34313l-0.25862,0.04589l-0.23267,0.11555l-0.37516,0.08333l-0.35599,0.14423l-0.24092,0.03462l-0.46474,0.18828l-0.06594,0.00948l-0.06426,0.02411l-0.02422,-0.0114l-1.41156,0.20282l-0.45028,-0.04496l-0.45271,0.00396l-0.3855,-0.09179l-0.41643,-0.00856l-1.03615,0.03454l-0.03746,-0.00795l-0.0372,0.00928l-0.69044,0.0017l-2.43149,0.34937l-0.19212,0.07783l-0.07803,0.01122l-0.25673,0.24274l-0.55356,0.5678l-0.0006,0.0018l-0.20656,0.32107l-0.1494,0.35056l-0.62012,0.81824l-0.24796,0.19968l-0.19716,0.24897l-0.52194,0.40243l-0.14058,0.18546l-0.00231,0.01249l-0.13184,0.28798l-0.06404,0.30952l-0.15863,0.3278l-0.61089,1.4842l-0.06636,0.08985l-0.02607,0.10815l-0.48255,0.91997l-0.28609,0.32079l-0.24268,0.35401l-0.15063,0.13354l-0.06453,0.08515l-0.36625,0.29495l-0.06748,0.16821l-0.28454,0.11529l-0.23854,0.19212l-0.18136,-0.02198l-0.43687,0.177l-2.04784,0.29424l-0.45028,-0.04496l-0.45272,0.00396l-0.2976,-0.07088l-0.99374,0.05281l-0.1525,-0.02923l-0.15327,0.0261l-1.11837,-0.08235l-0.18575,-0.06079l-0.19583,0.00171l-0.47892,-0.11404l-0.3376,-0.03373l-0.05477,-0.01953l-0.13019,0.0125l-0.11882,-0.10125l-0.854,-0.30441l-0.30511,-0.68336l-0.54398,-0.46356l0.09858,-0.53398l-0.2213,-0.49566l0.41971,-0.57898l0.13591,-0.73617l0.7584,-0.49752l0.09168,-0.12645l0.07519,-0.01081l0.03518,-0.33377l0.01398,-0.03804l-0.00441,-0.04017l0.12118,-0.86806l0.04641,-0.11432l-0.00069,-0.12304l0.15539,-0.62993l0.02153,-0.04054l0.00149,-0.04572l0.32787,-1.1408l0.07404,-0.12748l0.02282,-0.14513l0.27585,-0.64723l0.035,-0.04619l0.01169,-0.05651l0.75839,-1.5672l0.1519,-0.18181l0.09257,-0.2172l1.34359,-1.77281l0.1173,-0.09447l0.07553,-0.12959l0.90988,-0.93328l1.84384,-2.15721l0.09681,-0.06907l0.0629,-0.10031l2.30787,-2.21986l1.41813,-1.59995l0.16736,-0.11491l0.12218,-0.16122l1.05779,-0.85189l0.50424,-0.44705l0.23681,-0.26718l-0.07246,-0.50429l-0.27741,-0.72848l-0.20333,-0.45036l-0.06306,-0.07667l-0.26332,-0.19477l-0.24125,-0.11354l-0.30885,-0.04116l-0.76818,0.02561l-1.59141,0.22866l-1.32774,0.28743l-0.84036,0.38637l-0.7316,0.39748l-0.34441,0.23648l-0.24641,0.09244l-0.21255,0.15426l-0.92947,0.3766l-0.29135,0.04186l-0.27261,0.11046l-0.84322,0.12116l-0.25125,-0.02509l-0.11985,0.06793l-0.41925,-0.12176l-0.435,-0.04344l-0.08459,-0.10747l-0.24216,-0.07033l-2.01219,-1.16912l-0.09583,-0.09317l-0.12401,-0.05136l-1.38856,-1.02707l-0.02681,-0.0014l-0.04465,-0.05146l-0.05325,-0.03939l-0.346,-0.42067l-0.00635,-0.00731l-0.27035,-0.15706l-0.26215,-0.25489l-0.30461,-0.20363l-0.48017,-0.53001l-0.86142,-0.7307l-0.17669,-0.2468l-0.23002,-0.19919l-0.59445,-0.84863l-0.88545,-1.17208l-0.01686,-0.03992l-0.0329,-0.02848l-1.08272,-1.54571l-0.06055,-0.15903l-0.11186,-0.12889l-0.40969,-0.81055l-0.20586,-0.2615l-0.22469,0.18096l-0.06748,0.1682l-0.28455,0.11529l-0.23854,0.19211l-0.18135,-0.02197l-0.43687,0.177l-0.60231,0.08654l-0.38218,-0.03817l-0.38346,0.02566l-0.37849,-0.06713l-0.29079,-0.12942l-0.31279,-0.0623l-0.39558,-0.1862l-0.25301,-0.20648l-0.29203,-0.14796l-0.84252,-0.72959l-0.1673,-0.23884l-0.22102,-0.19141l-0.30935,-0.44162l-0.1124,-0.29516l-0.17589,-0.26292l-0.20599,-0.578l-0.02222,-0.23433l-0.08965,-0.21782l-0.17108,-1.19061l0.00972,-0.09221l-0.02853,-0.08819l-0.10195,-1.56511l0.01666,-0.09017l-0.02142,-0.08905l0.04148,-1.66911l-0.01435,-0.08837l0.13898,-1.59973l0.2045,-0.7743l0.60413,-1.31961l0.14189,-0.42019l1.98267,-1.11529l1.30847,1.94506l0.61887,-1.03293l1.76171,2.68508l1.24959,-0.15703l0.09278,0.21052l0.15118,0.1742l0.26772,0.52969l0.21277,0.30374l0.03572,0.09377l0.07036,0.07202l0.08135,0.13974l1.14553,0.17255l0.3918,-0.14363l1.14069,-1.50511l0.24392,-0.6081l0.1004,-0.1385l0.0467,-0.1639l0.68925,-1.19271l0.01293,-0.01336l0.07029,-0.20814l0.01736,-0.027l0.01086,-0.10309l0.11005,-0.08484l0.52401,-0.81448l0.71896,-0.14391l0.54977,-0.4239l0.53222,0.20731l0.56166,-0.11242l0.46368,0.51179l0.68132,0.26538l0.36703,0.89177l0.09282,0.10245l-0.00813,0.10333l0.01217,0.02955l0.05132,0.35719l-0.10392,0.9857l0.02201,0.10208l-0.02413,0.03522l0.00732,0.84951l0.07565,1.28961l0.22171,1.54301l0.21829,0.79331l0.00309,0.14933l0.05687,0.13819l0.01805,0.12557l0.1274,0.35749l0.02223,0.23433l0.04958,0.12044l0.42004,0.36373l0.42521,0.31449l0.10543,0.04962l1.81637,0.02198l0.03409,0.00887l0.03458,-0.00706l1.86892,0.0758l3.79629,-0.19116l0.1402,0.02726l0.14078,-0.02506l1.28421,0.0849l0.22453,-0.09974l0.55793,-0.33701l0.90115,-0.67778l0.04898,-0.02082l0.03517,-0.03966l0.44763,-0.30735l0.16105,-0.06042l0.13072,-0.11104l0.19227,-0.09549l0.30787,-0.21139l0.48588,-0.18228l0.20121,-0.30074c-0.03899,-0.36808 0.01026,-0.72689 0.13141,-1.05497l0.00732,-0.06941l0.02866,-0.02213c0.31262,-0.7486 1.0055,-1.32022 1.87411,-1.44502zM301.54866,166.02333l-0.07064,-0.07231l-0.56859,-0.97657l0.06403,0.9832l0.05057,0.35197l0.15895,-0.10914l0.00991,-0.02471l0.0636,-0.02577l0.05479,-0.03761z" data-paper-data="{&quot;index&quot;:null}" fill="#000000" stroke-linecap="butt"/><path d="M330.07446,161.97068c0.86861,-0.1248 1.69438,0.2286 2.20514,0.8589l0.03374,0.01316l0.02657,0.06454c0.22517,0.30295 0.38003,0.66385 0.43732,1.06255l0.05132,0.35718l-0.03986,0.37806l0.02471,0.37911l-0.04149,0.22471l0.04077,0.62606l-0.05266,0.28514l-0.04251,0.40322l-0.03205,0.08721l0.00603,0.09249l-0.08226,0.44559l0.1229,1.54157l0.02372,0.16509l-0.02485,0.23581l0.00084,0.0051l-0.0016,0.00211l-0.07148,0.678l0.73253,0.42562l0.50548,0.20931l0.23528,0.17402l0.10483,0.0434l0.27945,0.09146l1.03882,0.65151l0.01845,0.09148l0.08771,0.03416l0.46387,1.12708l0.05132,0.35718l-0.00997,0.09461l0.04605,0.06574l-0.108,0.52198l-0.05583,0.52975l-0.06396,0.04933l-0.01929,0.09323l-0.10261,0.21205l0.00325,0.01961l-0.03524,0.04652l-0.05499,0.11363l-0.33469,0.40052l-0.31508,0.41575l-0.02246,0.01811l-0.09474,0.35615l-0.14905,0.26874l-0.30009,1.14535l-0.19115,1.0354l0.39656,2.75992l0.42275,0.96753l0.01359,0.08206l0.04635,0.0693l0.13312,0.37353l0.2171,0.37288l0.04491,0.15628l0.097,0.13097l0.19236,0.46736l0.01043,0.01558l0.082,0.08095l0.27173,0.44782l0.29137,0.43555l0.03854,0.10813l0.03133,0.05161l-0.00565,0.02042l0.03548,0.09958l0.12735,0.1818l0.09267,0.24336l0.15532,0.20968l0.01428,0.03471l0.20175,0.17472l0.70751,1.01007l0.11543,0.08537l0.02681,0.00141l0.04463,0.05145l0.05325,0.03939l0.34599,0.42069l0.00207,0.00238l0.13356,0.01725l0.12719,0.17172l0.18179,0.11401l0.03638,0.18052l0.38148,0.51501l0.1889,0.45894l0.17323,1.20559l-0.35228,0.44484l-0.03211,0.56331l-0.93606,0.79511l-0.34428,0.17099l-0.09152,0.02034l-0.07567,0.05493l-0.89258,0.36164l-0.77262,0.34313l-0.25862,0.04589l-0.23267,0.11555l-0.37516,0.08333l-0.35599,0.14423l-0.24092,0.03462l-0.46474,0.18828l-0.06594,0.00948l-0.06426,0.02411l-0.02422,-0.0114l-1.41156,0.20282l-0.45028,-0.04496l-0.45271,0.00396l-0.3855,-0.09179l-0.41643,-0.00856l-1.03615,0.03454l-0.03746,-0.00795l-0.0372,0.00928l-0.69044,0.0017l-2.43149,0.34937l-0.19212,0.07783l-0.07803,0.01122l-0.25673,0.24274l-0.55356,0.5678l-0.0006,0.0018l-0.20656,0.32107l-0.1494,0.35056l-0.62012,0.81824l-0.24796,0.19968l-0.19716,0.24897l-0.52194,0.40243l-0.14058,0.18546l-0.00231,0.01249l-0.13184,0.28798l-0.06404,0.30952l-0.15863,0.3278l-0.61089,1.4842l-0.06636,0.08985l-0.02607,0.10815l-0.48255,0.91997l-0.28609,0.32079l-0.24268,0.35401l-0.15063,0.13354l-0.06453,0.08515l-0.36625,0.29495l-0.06748,0.16821l-0.28454,0.11529l-0.23854,0.19212l-0.18136,-0.02198l-0.43687,0.177l-2.04784,0.29424l-0.45028,-0.04496l-0.45272,0.00396l-0.2976,-0.07088l-0.99374,0.05281l-0.1525,-0.02923l-0.15327,0.0261l-1.11837,-0.08235l-0.18575,-0.06079l-0.19583,0.00171l-0.47892,-0.11404l-0.3376,-0.03373l-0.05477,-0.01953l-0.13019,0.0125l-0.11882,-0.10125l-0.854,-0.30441l-0.30511,-0.68336l-0.54398,-0.46356l0.09858,-0.53398l-0.2213,-0.49566l0.41971,-0.57898l0.13591,-0.73617l0.7584,-0.49752l0.09168,-0.12645l0.07519,-0.01081l0.03518,-0.33377l0.01398,-0.03804l-0.00441,-0.04017l0.12118,-0.86806l0.04641,-0.11432l-0.00069,-0.12304l0.15539,-0.62993l0.02153,-0.04054l0.00149,-0.04572l0.32787,-1.1408l0.07404,-0.12748l0.02282,-0.14513l0.27585,-0.64723l0.035,-0.04619l0.01169,-0.05651l0.75839,-1.5672l0.1519,-0.18181l0.09257,-0.2172l1.34359,-1.77281l0.1173,-0.09447l0.07553,-0.12959l0.90988,-0.93328l1.84384,-2.15721l0.09681,-0.06907l0.0629,-0.10031l2.30787,-2.21986l1.41813,-1.59995l0.16736,-0.11491l0.12218,-0.16122l1.05779,-0.85189l0.50424,-0.44705l0.23681,-0.26718l-0.07246,-0.50429l-0.27741,-0.72848l-0.20333,-0.45036l-0.06306,-0.07667l-0.26332,-0.19477l-0.24125,-0.11354l-0.30885,-0.04116l-0.76818,0.02561l-1.59141,0.22866l-1.32774,0.28743l-0.84036,0.38637l-0.7316,0.39748l-0.34441,0.23648l-0.24641,0.09244l-0.21255,0.15426l-0.92947,0.3766l-0.29135,0.04186l-0.27261,0.11046l-0.84322,0.12116l-0.25125,-0.02509l-0.11985,0.06793l-0.41925,-0.12176l-0.435,-0.04344l-0.08459,-0.10747l-0.24216,-0.07033l-2.01219,-1.16912l-0.09583,-0.09317l-0.12401,-0.05136l-1.38856,-1.02707l-0.02681,-0.0014l-0.04465,-0.05146l-0.05325,-0.03939l-0.346,-0.42067l-0.00635,-0.00731l-0.27035,-0.15706l-0.26215,-0.25489l-0.30461,-0.20363l-0.48017,-0.53001l-0.86142,-0.7307l-0.17669,-0.2468l-0.23002,-0.19919l-0.59445,-0.84863l-0.88545,-1.17208l-0.01686,-0.03992l-0.0329,-0.02848l-1.08272,-1.54571l-0.06055,-0.15903l-0.11186,-0.12889l-0.40969,-0.81055l-0.20586,-0.2615l-0.22469,0.18096l-0.06748,0.1682l-0.28455,0.11529l-0.23854,0.19211l-0.18135,-0.02197l-0.43687,0.177l-0.60231,0.08654l-0.38218,-0.03817l-0.38346,0.02566l-0.37849,-0.06713l-0.29079,-0.12942l-0.31279,-0.0623l-0.39558,-0.1862l-0.25301,-0.20648l-0.29203,-0.14796l-0.84252,-0.72959l-0.1673,-0.23884l-0.22102,-0.19141l-0.30935,-0.44162l-0.1124,-0.29516l-0.17589,-0.26292l-0.20599,-0.578l-0.02222,-0.23433l-0.26072,-1.40843l0.00972,-0.09221l-0.13047,-1.6533l0.01666,-0.09017l-0.00292,-1.67147l0.02298,-0.08668l-0.01435,-0.08837l0.13898,-1.59973l0.13165,-0.37966l3.89559,-1.03664l3.84459,1.22704l0.09278,0.21052l0.15118,0.1742l0.26772,0.52969l0.21277,0.30374l0.03572,0.09377l0.07036,0.07202l0.08135,0.13974l1.14553,0.17255l0.3918,-0.14363l1.14069,-1.50511l0.24392,-0.6081l0.1004,-0.1385l3.28243,-2.96803l1.02534,0.39935l1.04835,1.15714l0.09282,0.10245l-0.00813,0.10333l0.01217,0.02955l0.05132,0.35719l-0.10392,0.9857l0.02201,0.10208l-0.02413,0.03522l0.00732,0.84951l0.07565,1.28961l0.22171,1.54301l0.21829,0.79331l0.00309,0.14933l0.05687,0.13819l0.01805,0.12557l0.1274,0.35749l0.02223,0.23433l0.04958,0.12044l0.42004,0.36373l0.42521,0.31449l0.10543,0.04962l1.81637,0.02198l0.03409,0.00887l0.03458,-0.00706l1.86892,0.0758l3.79629,-0.19116l0.1402,0.02726l0.14078,-0.02506l1.28421,0.0849l0.22453,-0.09974l0.55793,-0.33701l0.90115,-0.67778l0.04898,-0.02082l0.03517,-0.03966l0.44763,-0.30735l0.16105,-0.06042l0.13072,-0.11104l0.19227,-0.09549l0.30787,-0.21139l0.48588,-0.18228l0.20121,-0.30074c-0.03899,-0.36808 0.01026,-0.72689 0.13141,-1.05497l0.00732,-0.06941l0.02866,-0.02213c0.31262,-0.7486 1.0055,-1.32022 1.87411,-1.44502zM301.54866,166.02333l-0.07064,-0.07231l-0.56859,-0.97657l0.06403,0.9832l0.05057,0.35197l0.15895,-0.10914l0.00991,-0.02471l0.0636,-0.02577l0.05479,-0.03761z" data-paper-data="{&quot;index&quot;:null}" fill="#000000" stroke-linecap="butt"/><path d="M338.63791,175.22315l5.54099,7.91035" data-paper-data="{&quot;index&quot;:null}" fill="none" stroke-linecap="round"/><g data-paper-data="{&quot;index&quot;:null}"><path d="M335.25007,163.82593c0,0 -11.00841,4.82693 -16.28692,5.09123c-7.81865,0.39149 -5.93391,-3.29886 -6.05503,-6.48763c-0.1211,-3.18876 15.12861,-10.69223 15.12861,-10.69223c0,0 3.26174,1.165 5.68651,5.33646c1.8712,3.21913 1.52686,6.75217 1.52686,6.75217z" fill="#ffffff" stroke-linecap="butt"/><path d="M298.62438,160.07677c0.23058,6.07078 -4.84447,13.28878 -8.89091,13.4914c-4.04645,0.20261 -4.3295,-6.97298 -4.56007,-13.04376c-0.23057,-6.07078 4.83131,-6.97347 4.83131,-6.97347c0,0 7.33669,-2.96835 9.9578,-0.40153c0.89602,0.87748 1.06344,5.56799 1.12217,7.11461z" fill="#ffffff" stroke-linecap="butt"/><path d="M286.42082,161.42202c0,0 3.09245,-2.66242 4.90404,-2.65622c1.70047,0.00583 5.65329,2.69236 5.65329,2.69236" fill="none" stroke-linecap="round"/><path d="M322.80543,154.63017c0,0 3.607,2.4663 4.72344,4.11342c1.15319,1.70135 2.08895,5.93726 2.08895,5.93726" fill="none" stroke-linecap="round"/><path d="M313.67727,163.95379l2.64622,1.36656l0.09471,2.4937" fill="none" stroke-linecap="round"/><path d="M321.05851,158.08759l-0.68047,3.28206l-4.3224,3.96411" fill="none" stroke-linecap="round"/><path d="M323.60828,161.62431l-3.1504,-0.5085" fill="none" stroke-linecap="round"/></g></g><g data-paper-data="{&quot;index&quot;:null}" fill="#2f3bd4" stroke="#2f3bd4" stroke-width="10" stroke-linecap="butt"><path d="M180.47959,218.31518c-0.51176,-4.9573 1.80104,-8.09945 4.96615,-8.41341c1.77068,-0.17563 3.08912,2.46982 6.06946,1.4913c3.62754,-1.19101 6.05435,-6.58835 9.27654,-7.13336c3.57505,-0.60472 9.52202,6.26281 9.52202,6.26281c0,0 -0.54949,7.39627 -2.04933,13.56864c-1.57743,6.49163 -4.31027,11.67243 -7.25489,11.72132c-3.15422,0.05235 -19.38342,-6.39126 -20.52995,-17.49733z"/><path d="M209.06649,218.76689c0,0 -1.02612,3.8027 -1.40323,5.84312c-0.82985,4.48999 -3.27713,10.78026 -7.03866,11.00656c-2.17659,0.13096 -6.4573,-2.11235 -11.37505,-6.03386c-3.31006,-2.6395 -7.70535,-5.98007 -8.93729,-10.09204c-0.31568,-1.05367 1.46837,-2.70578 1.35221,-3.83094c9.48866,7.11721 14.64765,13.51581 16.06062,13.06925z"/><path d="M211.65515,211.73891c0,0 -7.83552,-6.81018 -10.09347,-7.08746c-0.46899,-0.05759 -6.68241,5.88412 -9.64091,7.44811c-0.51953,0.27464 -2.06089,0.50473 -3.38002,0.08138c-1.13044,-0.3628 -1.97942,-1.31157 -3.21441,-1.92795c-0.78343,0.42223 -4.72522,8.38813 -4.72522,8.38813c0,0 12.34641,16.75434 19.5018,16.48298c1.8412,-0.06982 4.41229,-2.49858 5.74325,-5.97229c1.01371,-2.64573 1.76026,-6.16981 2.52246,-8.60194c0.69604,-2.22101 1.45389,-3.47413 1.45389,-3.47413c0,0 -0.29925,4.36107 -1.10392,9.00809c-0.88865,5.13205 -4.276,11.38882 -8.87606,10.93375c-1.07377,-0.10623 -5.15203,-1.34035 -8.12653,-3.61085c-6.35905,-4.85403 -13.17123,-13.03589 -13.46537,-15.15087c-0.15163,-1.09036 1.63736,-3.6483 2.39826,-4.98269c1.02457,-1.79682 2.15047,-4.1339 4.8963,-5.0274c1.45732,-0.47421 3.74031,2.12673 5.18671,1.57101c4.5662,-1.75434 8.5361,-8.10961 11.26272,-8.03763c2.72662,0.07196 9.66051,9.95978 9.66051,9.95978z"/></g><path d="M178.75863,220.96173l-3.49372,2.10094l0.78928,8.31066l-7.18577,0.58688l0.73982,-9.99185c0,0 3.49246,-4.01691 7.26721,-6.20386c1.54361,-0.89429 4.32816,-0.96073 5.0712,-1.13846c1.79556,-0.42952 0.72844,3.66942 0.72844,3.66942z" data-paper-data="{&quot;index&quot;:null}" fill="#2f3bd4" stroke="#2f3bd4" stroke-width="10" stroke-linecap="butt"/><path d="M193.25857,216.86531l-7.17224,5.71796c0,0 -2.32029,-0.47813 -3.07006,-1.17242c-1.77001,-1.63902 -0.3635,-3.3387 -0.3635,-3.3387c0,0 5.42595,-8.44509 8.16388,-8.41687c3.02903,0.03123 8.4691,1.27006 8.4691,1.27006l0.92891,5.61588z" data-paper-data="{&quot;index&quot;:null}" fill="#2f3bd4" stroke="#2f3bd4" stroke-width="10" stroke-linecap="butt"/><path d="M190.58393,211.18905l2.17403,4.99372" data-paper-data="{&quot;index&quot;:null}" fill="#2f3bd4" stroke="#2f3bd4" stroke-width="10" stroke-linecap="round"/><path d="M184.07667,214.4923c0,0 -2.52509,-2.38144 -7.55808,-0.36396c-2.50806,1.00536 -6.57619,6.35307 -6.57619,6.35307l-6.53729,-4.29921c0,0 9.62181,-12.66143 12.78194,-12.26615c4.02169,0.50306 9.42603,5.26591 9.42603,5.26591l-1.5364,5.31035z" data-paper-data="{&quot;index&quot;:null}" fill="#2f3bd4" stroke="#2f3bd4" stroke-width="10" stroke-linecap="butt"/><path d="M180.07595,212.24064l-2.77264,-7.44137" data-paper-data="{&quot;index&quot;:null}" fill="#2f3bd4" stroke="#2f3bd4" stroke-width="10" stroke-linecap="round"/><path d="M173.49839,215.31789l-3.93075,-5.45652" data-paper-data="{&quot;index&quot;:null}" fill="#2f3bd4" stroke="#2f3bd4" stroke-width="10" stroke-linecap="round"/><path d="M194.23463,230.83549c0,0 -4.2042,-1.90305 -5.94029,-3.18873c-1.81989,-1.34772 -4.73954,-4.72024 -4.73954,-4.72024l5.37427,-3.3402c0,0 2.18458,1.54538 4.80494,3.91282c1.26495,1.14286 2.9543,3.80615 2.9543,3.80615z" data-paper-data="{&quot;index&quot;:null}" fill="#2f3bd4" stroke="#2f3bd4" stroke-width="10" stroke-linecap="butt"/><path d="M177.88543,216.22068l2.2712,3.53399" data-paper-data="{&quot;index&quot;:null}" fill="#2f3bd4" stroke="#2f3bd4" stroke-width="10" stroke-linecap="round"/><path d="M170.96968,219.88385l3.2704,2.77545" data-paper-data="{&quot;index&quot;:null}" fill="#2f3bd4" stroke="#2f3bd4" stroke-width="10" stroke-linecap="round"/><path d="M212.87519,196.53096l-5.86914,0.74054l-0.74926,-6.04784l5.6194,1.23424l-0.24975,3.57935" data-paper-data="{&quot;index&quot;:null}" fill="#ffffff" stroke="#000000" stroke-width="3.5" stroke-linecap="round"/><g data-paper-data="{&quot;index&quot;:null}" fill="#2f3bd4" stroke="#2f3bd4" stroke-width="4" stroke-linecap="butt"><path d="M280.70319,191.38531c0,0 4.4915,10.46242 -2.99892,14.65612c-3.47393,1.94498 -20.91744,6.93106 -26.59088,3.46452c-12.35716,-7.55037 -14.53288,-16.5373 -14.53288,-16.5373c0,0 1.8312,-4.8474 4.20154,-6.01923c6.8031,-3.36325 10.14672,-0.16211 10.14672,-0.16211c0,0 1.47592,1.55314 2.73612,2.25947c1.38997,0.77907 5.25257,2.2181 5.25257,2.2181c0,0 14.04781,-8.04341 15.1283,-7.26422c0.48143,0.34718 6.65743,7.38469 6.65743,7.38469z"/><path d="M276.60102,188.11011c0,0 14.20861,-8.9673 20.12777,-8.69993c9.32303,0.42113 11.88336,10.33102 11.25029,11.89973c-1.98224,4.9118 -14.58959,14.1479 -14.58959,14.1479c-2.65085,1.57903 -9.47773,5.33917 -11.83158,5.9037c-3.70851,0.88944 -5.84516,-3.21861 -8.11762,-7.31156c-3.75097,-6.75592 -3.811,-12.06904 3.16074,-15.93984z"/></g><g data-paper-data="{&quot;index&quot;:null}" fill="#2f3bd4" stroke="#2f3bd4" stroke-width="4" stroke-linecap="butt"><path d="M286.41716,219.57292c0,0 0.21986,3.6341 -11.11129,6.60648c-17.24548,4.52382 -49.8379,9.06273 -60.82856,9.11486c-5.3211,0.02523 -11.16554,-3.27898 -15.97854,-5.29976c-10.69364,-4.4898 -12.17491,-9.21448 -12.17491,-9.21448c0,0 -1.55014,-4.88386 -0.5826,-6.97075c0.78545,-1.69417 5.71446,-0.98682 5.71446,-0.98682c0,0 43.95938,-6.92362 71.55949,-8.03702c1.1883,-0.04793 1.81684,4.2678 2.9201,4.21202c6.1094,-4.79912 15.10216,-5.86739 15.28147,-5.71861c4.41711,3.66513 5.20039,16.29405 5.20039,16.29405z"/><path d="M210.97907,210.88377c0,-1.81579 -1.50264,-8.71753 -1.50264,-8.71753c0,0 12.14012,-0.45527 26.82079,-0.45527c12.15193,0 21.17305,-3.6674 21.17305,-3.6674c0,0 5.94851,8.62686 6.36749,9.12105c0.95293,1.12396 0.59644,2.89877 0.59644,2.89877c0,0 -1.567,4.78993 -2.61516,7.2259c-1.28265,2.98095 -5.1703,11.247 -5.1703,11.247c0,0 -0.78377,1.54427 -1.90288,0.36709c-2.03611,-2.14176 -5.18233,-7.95618 -6.73819,-10.69361c-0.9509,-0.08125 -1.80371,-0.18483 -2.80271,-0.1173c-2.98131,0.20154 -6.18752,1.2349 -9.68271,1.30925c-4.36989,0.09296 -8.32145,0.10197 -11.71395,-0.53822c-7.94939,-1.50012 -12.82922,-4.98591 -12.82922,-7.97975z"/><path d="M242.32372,220.14332c0,0 4.68124,-3.75703 5.64056,-4.52793c1.10919,-0.89136 4.19937,-2.88296 4.19937,-2.88296c0,0 -1.07066,2.38441 -3.92578,5.73107c-3.06136,3.58844 -5.91415,1.6798 -5.91415,1.6798z"/></g><g data-paper-data="{&quot;index&quot;:null}" fill="#2f3bd4" stroke="#2f3bd4" stroke-width="4" stroke-linecap="butt"><g><path d="M268.27625,196.64914c0,0 -0.83804,11.39446 -19.36833,14.21863c-17.90553,2.72895 -28.07603,0.70395 -33.67317,-0.85649c-3.05381,-0.85138 -8.03409,-1.35627 -8.03409,-1.35627c0,0 -1.83299,-8.39487 -2.34231,-16.92912c-0.4712,-7.89534 0.38098,-15.83087 0.31958,-19.23694c-0.18953,-10.51391 4.05428,-8.29921 4.05428,-8.29921l32.42593,6.37336c0,0 -0.23312,2.99383 -1.0839,8.36091c8.68612,4.73065 27.47292,13.84022 27.702,17.72514z"/><path d="M246.10832,189.64932l0.50868,0.57509c0.05154,0.05757 0.09427,0.12277 0.1261,0.19362c0.49976,0.56704 0.98608,1.15876 1.46235,1.77415c3.95708,6.15402 0.52781,10.9635 -6.6195,11.61392c-8.00689,0.69894 -11.83262,-2.01348 -16.93226,-6.95526c-2.67091,-3.03095 -8.61376,-10.28681 -2.26887,-13.2185c0.759,-0.3507 2.21295,-0.45894 3.02635,-0.63404c3.5131,-0.66696 7.9352,-0.62057 11.27612,0.79794c1.30705,0.55496 2.71536,1.29569 3.94587,2.07973c0.29383,0.1735 0.67447,0.26366 0.95779,0.44907zM238.8579,189.37431c-0.61896,1.95508 -0.93339,4.31401 -1.46443,6.03448c-0.30319,0.88143 -1.54838,3.85438 -0.7036,4.60718c1.82362,1.62507 8.09788,-0.59563 8.73818,-2.72587c0,-3.81811 -3.18842,-6.13994 -6.57016,-7.91581zM235.57169,187.76862c-0.70401,-0.33585 -1.36947,-0.66025 -1.96406,-0.9835c-3.02474,-0.96226 -4.70176,-0.6542 -7.71992,0.27657c-0.61513,0.18971 -2.2464,0.34666 -2.37095,1.17114c-0.241,1.59536 1.20766,3.53772 2.02972,4.8123c0.92016,1.43744 4.1308,5.31187 6.19724,5.10808c0.34435,-0.03395 0.85863,-1.12745 0.97765,-1.34455c0.90405,-1.64905 1.08602,-3.6686 1.63702,-5.44593c0.23516,-1.13939 0.58137,-2.20143 1.06707,-3.26337l0.14623,-0.33075z"/></g><path d="M207.20206,176.02013c5.92625,-5.57684 7.68515,-3.14627 7.68515,-3.14627c0,0 -3.65226,27.56198 -5.61297,34.8839c-3.80038,0 -4.10165,-25.66614 -4.10165,-25.66614c0,0 0.59011,-4.71698 2.02947,-6.07148z"/></g><g data-paper-data="{&quot;index&quot;:null}" fill="#2f3bd4" stroke="#2f3bd4" stroke-width="4" stroke-linecap="butt"><path d="M192.27966,212.18451c-3.0638,-0.57973 -6.67429,-4.35797 -6.67429,-4.35797c0,0 -0.62719,0.07581 -0.8271,-1.6769c-0.15293,-1.34078 3.10908,-2.17282 3.98287,-4.25618c1.81878,-4.33647 2.04462,-10.21883 2.04462,-10.21883c0,0 -1.73923,-7.31608 3.58751,-8.71824c7.19558,-1.89409 11.74696,2.12826 11.74696,2.12826c0,0 3.0669,9.559 3.0669,13.95525c0,5.103 -1.60012,12.53389 -1.60012,12.53389c0,0 -11.2007,1.39158 -15.32735,0.61073z"/><path d="M191.20579,198.07077c0,0 0.50007,-2.68625 0.18744,-5.62626c-0.42276,-3.97583 0.26291,-9.03967 3.9462,-9.03967c3.84698,0 7.58247,-0.38136 9.98331,2.19918c1.49245,1.60416 1.7509,7.29815 1.7509,7.29815c0,0 -2.87873,2.31359 -8.93399,4.45793c-5.55166,1.966 -6.93385,0.71069 -6.93385,0.71069z"/></g><g data-paper-data="{&quot;index&quot;:null}" fill="#2f3bd4" stroke="#2f3bd4" stroke-width="4" stroke-linecap="butt"><path d="M188.69266,191.55449c-0.65552,-0.23884 -2.08666,-1.31697 -2.58396,-2.29827c-1.42237,-2.80672 4.03996,-7.71172 4.43101,-13.05716c0.40598,-5.54954 -2.8933,-11.76337 -1.75171,-14.27833c0.27829,-0.61307 2.8765,-1.83793 3.67508,-2.00901c8.63192,1.64755 21.46762,9.1054 21.46762,9.1054l-0.02098,5.67083c0,0 -12.22844,21.59912 -25.21705,16.86656z"/><path d="M212.3423,177.92456c0,0 -3.2107,10.95131 -14.35395,14.32123c-4.65569,1.40796 -12.47895,-0.47962 -12.47895,-0.47962c-3.42205,-1.75078 -0.83412,-7.93787 1.76814,-13.13638c0.78767,-1.57352 1.9571,-3.15923 1.44563,-6.7736c-0.6058,-4.28092 -3.50444,-11.32251 -3.50444,-11.32251c0,0 1.25173,-2.30194 2.54042,-0.9216c0.5661,0.60636 1.34328,4.23588 1.82067,5.1789c1.718,3.39366 2.71121,9.59087 2.31048,11.11867c-0.60251,2.29707 -4.67407,11.98721 -4.67407,11.98721c0,0 -0.37635,1.03158 0.01865,1.61838c1.33387,1.98159 6.0249,1.91576 8.53759,1.30422c6.05256,-1.47308 9.44538,-4.93817 12.10633,-7.86187c2.51529,-2.76365 4.46352,-5.03305 4.46352,-5.03305z"/></g><path d="M271.23908,237.82936c-1.60779,-1.63451 -1.48564,-3.72074 -0.86379,-5.0202c0.47812,-0.99911 1.35133,-1.43653 1.35133,-1.43653l4.87536,3.22836c0,0 -3.54051,4.64727 -5.36289,3.22836z" data-paper-data="{&quot;index&quot;:null}" fill="#2f3bd4" stroke="#2f3bd4" stroke-width="4" stroke-linecap="butt"/><g data-paper-data="{&quot;index&quot;:null}" fill="#2f3bd4" stroke="#2f3bd4" stroke-width="4" stroke-linecap="butt"><g><g><path d="M234.09997,242.64037c0,-5.61422 -0.64296,-16.67505 5.97858,-21.24284c1.64967,-1.13801 5.9504,-4.43219 9.68099,-0.94438c0.42451,0.39688 -0.73171,1.44813 0.03608,2.91795c0.28341,0.54257 2.1569,0.59917 2.64237,1.23738c1.53361,2.01604 4.8062,3.97597 5.50511,3.89525c2.22488,-5.3728 9.07157,-11.85782 11.34244,-12.35508c4.08074,-0.89359 19.56272,2.56187 19.3976,5.59051c0.49959,2.46403 -3.39358,6.52251 -3.39358,6.52251c0,0 16.28853,8.90662 22.38911,12.45132c10.50474,6.1037 10.7034,10.96357 10.7034,10.96357c0,0 0.63527,2.42813 -3.67238,3.65406c-8.44382,2.40304 -18.91755,3.10215 -31.20606,2.77552c-11.93942,-0.31734 -11.56966,-6.44227 -24.09847,-7.79006c-10.56399,-1.13644 -25.30518,1.6476 -25.30518,-7.67568z"/><path d="M298.96307,256.50544c0,0 -11.59833,1.21951 -17.44088,0.39436c-5.89537,-0.83261 -13.94812,-6.74989 -19.66627,-7.55323c-12.10132,-1.70011 -19.63467,0.33297 -22.7477,-1.72569c-0.20024,-0.13242 -4.92954,-1.86973 -4.30941,-7.55813c1.49076,-13.67461 7.65913,-15.75613 7.65913,-15.75613c0,0 7.13325,7.83417 15.49228,8.82079c1.63708,0.19322 0.50458,-2.61467 0.50458,-2.61467c0,0 -0.23846,-1.35017 0.14956,-2.24932c0.58108,-1.34653 2.99805,-5.04455 2.99805,-5.04455c0,0 0.78401,2.0222 2.98542,4.39836c2.65741,2.86835 7.73996,5.63867 13.00151,9.16318c5.84909,3.91808 15.66134,7.33658 18.00996,9.47912c2.55779,2.33334 3.36377,10.24588 3.36377,10.24588z"/><path d="M241.55781,229.83591c-1.46216,0 -2.17471,-0.41561 -2.17471,-1.83251c0,-1.41689 0.90166,-1.92413 2.36382,-1.92413c1.46215,0 1.9856,0.41561 1.9856,1.83251c0,1.41689 -0.71255,1.92413 -2.17471,1.92413z"/><path d="M255.36246,228.18665c0,0 1.19923,0.18325 5.29494,2.38227c3.33445,1.79029 5.48405,2.84038 5.48405,2.84038c0,0 -0.56053,1.20502 -5.9568,0.09163c-5.61702,-1.15893 -4.82218,-5.31427 -4.82218,-5.31427z"/></g><g><path d="M269.39469,240.50391c-1.7074,-1.18232 -2.05058,-3.61246 -1.68843,-5.08294c0.85922,-3.48884 3.80593,-5.57733 5.68872,-6.06188c7.97827,-2.0533 14.24839,-1.06024 14.10104,0.58148c-0.26551,2.9583 -6.05325,3.19801 -9.75722,5.77647c-1.87359,1.30427 -2.43631,2.72244 -3.55206,3.81202c-1.06518,1.04019 -2.87869,2.29981 -4.79205,0.97486z"/><path d="M268.49156,236.3565c0,-2.19175 1.91764,-3.21261 1.91764,-3.21261c0,0 0.87582,0.13299 2.42968,0.88985c2.03801,0.99269 2.7382,2.0708 2.7382,2.0708c0,0 -0.76044,0.80911 -1.4932,1.64912c-0.94373,1.08184 -1.29777,2.50839 -2.4396,2.50839c-2.02841,0 -3.15273,-1.71378 -3.15273,-3.90553z"/></g><g><path d="M277.51105,244.5946c-0.57023,-0.67497 0.68112,-4.98974 3.90002,-8.09541c7.64762,-7.37861 11.34351,-7.24363 12.78543,-4.80742c1.30465,2.20428 -4.36898,5.16323 -8.34686,9.05819c-3.55075,3.47672 -7.19821,5.19446 -8.33858,3.84463z"/><path d="M283.06211,241.95394c0,0 -3.00033,2.70574 -4.25219,2.28462c-0.77357,-0.26022 -0.20273,-3.46327 0.12673,-3.992c0.88137,-1.41448 2.23028,-1.87206 2.23028,-1.87206l3.56693,1.71715c0,0 -0.96856,1.29313 -1.67174,1.8623z"/></g><g><path d="M285.65378,248.5122c-2.88508,-1.5392 9.70948,-17.31926 14.19882,-13.88839c3.04272,2.32533 -2.88826,3.41624 -6.49878,7.64717c-3.18855,3.73643 -4.23491,8.08985 -7.70004,6.24121z"/><path d="M285.90143,247.10737c0,-1.75688 3.44036,-4.69382 3.44036,-4.69382l1.02764,1.71638c0,0 -1.20143,3.02655 -2.48561,4.01006c-1.06855,0.81834 -1.98237,0.02068 -1.98237,-1.03262z"/></g></g><g><path d="M288.5298,267.80437c-6.33614,0 -14.77679,-6.35643 -22.3666,-7.13331c-11.17507,-1.14385 -30.20994,-1.60558 -33.62685,-4.93499c-3.12579,-3.04574 -4.37291,-12.18178 0.25132,-12.82367c1.01381,6.08761 6.67904,6.60031 11.11895,6.70524c5.37359,0.127 12.77503,0.00426 18.65035,1.11775c10.40493,1.97194 16.02063,7.47787 23.95976,7.47787c13.64766,0 22.89286,-1.56129 28.06612,-3.26827c2.80914,-0.92692 3.70787,-2.35531 5.08447,-2.54981c1.80196,-0.2546 3.75537,3.94861 3.75537,3.94861c0,0 0.0197,4.19898 -4.5774,6.99732c-4.81169,2.92896 -14.58512,4.46324 -30.3155,4.46324z"/><path d="M232.49985,242.76989c0,0 -0.39684,1.6521 1.39854,3.82523c1.16955,1.41565 3.00409,3.12234 7.69047,4.21181c4.11458,0.95654 18.31249,0.1439 21.69289,1.04152c4.67681,1.24186 7.81971,3.0754 11.60167,4.68888c1.47861,0.63082 3.05492,1.52585 4.85878,1.89138c7.34125,1.48763 10.16941,1.11154 13.24117,0.97041c4.57573,-0.21025 7.33331,-0.75636 7.33331,-0.75636c0,0 1.00638,1.79547 0.45918,3.77816c-0.5472,1.98269 -2.07511,3.29992 -2.07511,3.29992c0,0 -4.63418,2.55119 -13.2027,0.17398c-4.85969,-1.34825 -5.96307,-1.67741 -15.21641,-5.67793c-4.78855,-2.07024 -28.33662,-2.33456 -32.65642,-4.05723c-1.27489,-0.50841 -3.34043,-0.59258 -4.09857,-0.99275c-2.56617,-1.35447 -1.53551,-2.65269 -2.14389,-4.62819c-1.13703,-3.69211 1.1171,-7.7688 1.1171,-7.7688z"/></g></g><g data-paper-data="{&quot;index&quot;:null}" fill="#2f3bd4" stroke="#2f3bd4" stroke-width="4" stroke-linecap="butt"><path d="M164.89226,244.06358c2.75076,-3.02799 10.94495,-7.73467 17.50114,-9.32598c-4.556,-2.56852 -10.99371,-4.39556 -11.15086,-6.28127c-0.49296,-5.91547 1.18331,-6.3128 3.31788,-7.81667c1.77845,-1.25298 16.33719,6.64249 16.33719,6.64249c0,0 1.03175,-5.01525 5.66005,-6.11374c3.97064,-0.94241 12.48984,1.85877 17.93618,3.40394c3.59836,1.02089 7.43652,2.67423 8.8389,5.54167c0.87612,1.79139 -0.86246,6.06548 0.75098,4.84672c4.09382,-3.09237 14.03179,-3.11102 16.77864,-0.95833c2.40445,1.88435 3.62076,7.03351 2.67617,9.37013c-0.3991,0.98726 -12.50011,0.18065 -12.27704,1.21226c0.44229,2.04534 -3.16119,4.68577 -2.84319,6.36184c0.84066,4.43086 2.39652,6.90116 2.39652,6.90116c0,0 1.66123,6.47939 -1.94645,9.43268c-4.63605,3.79512 -15.98042,4.27746 -29.63824,4.27746c-24.28607,0 -44.91961,-15.84623 -34.33783,-27.49437z"/><path d="M226.39359,241.61386c0,0 1.5738,-2.41601 6.8255,-3.40159c4.69922,-0.8819 8.77565,-0.75591 8.77565,-0.75591c0,0 0.39438,1.90081 0.68903,2.82632c0.32976,1.03582 -0.33342,2.69973 -0.33342,2.69973c0,0 -3.85468,0.47191 -9.06631,0.13787c-1.80248,-0.11553 -2.61874,0.40907 -3.49929,0.40787c-1.18733,-0.00163 -2.39387,-0.51322 -2.98198,-1.05203c-0.43073,-0.39462 -0.40918,-0.86226 -0.40918,-0.86226z"/><path d="M187.00069,231.2201c0,0 3.20949,-0.09278 4.61487,-1.78607c-0.23535,-3.20978 2.66917,-6.45315 4.93329,-7.06673c3.82157,-1.03568 13.95107,2.30159 13.95107,2.30159c0,0 0.46378,4.2279 0.70307,6.18922c0.27561,2.25898 0.3695,6.91322 0.3695,6.91322c0,0 -15.95757,0.38907 -19.5711,0.32388c-1.17358,-0.02117 -4.04959,0.82655 -4.04959,0.82655c0,0 -2.11341,-2.84657 -4.2907,-4.51504c-1.78268,-1.36609 -5.34411,-2.25021 -5.35462,-2.7445c-0.00447,-0.21006 -4.26376,-1.34596 -5.84963,-3.05201c-1.53615,-1.65256 -0.10946,-4.86984 0.77793,-4.7777c2.1148,0.21959 13.76588,7.38759 13.76588,7.38759z"/><path d="M176.55348,231.2797c0,0 -2.04125,-1.31935 -2.99709,-2.46332c-0.92639,-1.10875 -0.77689,-2.04184 -0.25315,-2.12614c2.97534,-0.4789 4.85711,2.28423 5.59504,3.96909c0.26521,0.60555 0.39469,1.83523 0.39469,1.83523c0,0 -1.31258,-1.21485 -2.73949,-1.21485z"/><path d="M234.1756,240.77358c0.09285,-0.87652 0.86052,-0.76491 3.29667,-0.76491c3.0862,0 3.85386,0.24836 3.85386,2.4747c0,1.63801 -2.3882,0.52779 -4.35011,-0.07578c-1.65086,-0.50787 -2.94568,-0.26291 -2.80041,-1.63402z"/><path d="M166.58916,244.70049c0,0 0.17503,4.78147 0.63003,6.27906c0.4268,1.40477 2.02076,4.08371 2.02076,4.08371c0,0 0.90913,-1.47149 1.83901,-2.63207c0.42742,-0.53347 0.34652,-1.19999 1.09738,-1.27358c5.00367,-0.49038 15.73555,2.26974 24.44505,3.18073c26.49848,2.77167 30.55226,13.03945 30.55226,13.03945c0,0 -6.65397,4.59845 -31.33232,3.3386c-7.63954,-0.39001 -16.3204,-1.62688 -22.65867,-4.71617c-6.09485,-2.97063 -8.5455,-5.322 -10.71452,-11.59015c-1.20053,-3.46937 1.04806,-7.22469 2.6549,-8.93366c0.685,-0.72853 1.46613,-0.77592 1.46613,-0.77592z"/><g><path d="M154.90898,249.67523c-0.06916,-0.54518 7.65698,-4.45517 7.65698,-4.45517c0,0 -2.11079,5.06123 0.23847,10.55133c2.70049,6.31094 10.98651,13.27383 30.01262,15.18867c10.56433,1.06323 30.33311,0.54507 36.82743,-4.93059c1.98898,-1.67701 3.2386,-4.91993 2.42195,-7.4766c-1.02696,-3.21509 -2.45075,-5.12287 -0.92591,-5.47627c2.37546,-0.55053 5.05868,5.62208 5.05868,9.06452c0,4.07129 -1.1215,7.32069 -4.14846,10.23298c-6.74759,6.492 -20.10667,7.86907 -36.9072,7.86907c-14.97446,0 -39.55559,-14.28849 -40.13062,-15.8361c-0.18577,-0.49999 0.53284,-9.71188 -0.10394,-14.73183z"/><path d="M156.12743,256.63132c0,0 7.11173,16.55945 33.67883,19.63336c41.26217,4.77417 44.61384,-9.15049 44.61384,-9.15049c0,0 -1.01849,3.45346 -6.69857,6.96426c-5.32676,3.29243 -14.68529,7.25114 -36.81359,4.67941c-10.76816,-1.25145 -19.83619,-5.64828 -25.71725,-9.15204c-5.61333,-3.34425 -9.11406,-5.8632 -9.11406,-5.8632z"/></g><g><g><path d="M183.64348,240.92537c-0.02718,-0.53599 6.03512,-5.06168 17.11315,-4.69509c17.91637,0.59287 22.9728,11.12352 22.41551,12.40241c-1.12165,2.57397 -9.18969,-5.68013 -23.33322,-6.86588c-11.04323,-0.92583 -16.11912,0.66391 -16.19544,-0.84145z"/><path d="M189.20959,240.35153l-1.31177,-1.38337c0,0 5.08384,-2.33569 7.92174,-2.30241c9.11009,0.10685 13.37583,1.90717 13.37583,1.90717l-2.54921,3.45841z"/></g><g><path d="M178.08123,246.28943c-0.21325,-0.28537 -0.60485,-1.82158 3.06471,-2.89678c3.09759,-0.90762 9.7631,-1.40152 15.03467,-1.40152c11.51653,0 25.12074,7.15908 24.21748,11.01752c-0.50984,2.17787 -10.96748,-4.00188 -22.48401,-4.00188c-11.51653,0 -19.20101,-1.87184 -19.83284,-2.71733z"/><path d="M201.52014,248.17607c0,0 -3.77478,-0.25143 -5.03234,-0.29134c-1.2407,-0.03937 -2.9039,0.22436 -2.9039,0.22436l-2.62699,-5.11142c0,0 5.33494,-0.3348 7.70104,0.01239c4.62156,0.67815 5.87975,1.10971 5.87975,1.10971l-3.01757,4.0563z"/></g><path d="M174.10445,250.78537c0,-0.68508 0.30626,-2.91142 3.49458,-3.08786c3.9304,-0.2175 11.24178,1.11164 18.37763,1.11164c7.01826,0 14.22609,1.93185 18.32299,4.01494c3.44771,1.75301 4.36497,3.55545 4.36497,4.97693c0,3.11061 -12.31275,-4.74296 -25.23717,-4.74296c-12.92441,0 -19.32299,-0.05136 -19.32299,-2.27268z"/></g></g><g data-paper-data="{&quot;index&quot;:null}" fill="#2f3bd4" stroke="#2f3bd4" stroke-width="4" stroke-linecap="butt"><path d="M180.47959,218.31518c-0.51176,-4.9573 1.80104,-8.09945 4.96615,-8.41341c1.77068,-0.17563 3.08912,2.46982 6.06946,1.4913c3.62754,-1.19101 6.05435,-6.58835 9.27654,-7.13336c3.57505,-0.60472 9.52202,6.26281 9.52202,6.26281c0,0 -0.54949,7.39627 -2.04933,13.56864c-1.57743,6.49163 -4.31027,11.67243 -7.25489,11.72132c-3.15422,0.05235 -19.38342,-6.39126 -20.52995,-17.49733z"/><path d="M209.06649,218.76689c0,0 -1.02612,3.8027 -1.40323,5.84312c-0.82985,4.48999 -3.27713,10.78026 -7.03866,11.00656c-2.17659,0.13096 -6.4573,-2.11235 -11.37505,-6.03386c-3.31006,-2.6395 -7.70535,-5.98007 -8.93729,-10.09204c-0.31568,-1.05367 1.46837,-2.70578 1.35221,-3.83094c9.48866,7.11721 14.64765,13.51581 16.06062,13.06925z"/><path d="M211.65515,211.73891c0,0 -7.83552,-6.81018 -10.09347,-7.08746c-0.46899,-0.05759 -6.68241,5.88412 -9.64091,7.44811c-0.51953,0.27464 -2.06089,0.50473 -3.38002,0.08138c-1.13044,-0.3628 -1.97942,-1.31157 -3.21441,-1.92795c-0.78343,0.42223 -4.72522,8.38813 -4.72522,8.38813c0,0 12.34641,16.75434 19.5018,16.48298c1.8412,-0.06982 4.41229,-2.49858 5.74325,-5.97229c1.01371,-2.64573 1.76026,-6.16981 2.52246,-8.60194c0.69604,-2.22101 1.45389,-3.47413 1.45389,-3.47413c0,0 -0.29925,4.36107 -1.10392,9.00809c-0.88865,5.13205 -4.276,11.38882 -8.87606,10.93375c-1.07377,-0.10623 -5.15203,-1.34035 -8.12653,-3.61085c-6.35905,-4.85403 -13.17123,-13.03589 -13.46537,-15.15087c-0.15163,-1.09036 1.63736,-3.6483 2.39826,-4.98269c1.02457,-1.79682 2.15047,-4.1339 4.8963,-5.0274c1.45732,-0.47421 3.74031,2.12673 5.18671,1.57101c4.5662,-1.75434 8.5361,-8.10961 11.26272,-8.03763c2.72662,0.07196 9.66051,9.95978 9.66051,9.95978z"/></g><g data-paper-data="{&quot;index&quot;:null}" stroke="#000000"><path d="M201.11477,188.39552l-5.60974,-11.27716c0,0 2.30805,-2.32561 4.2088,-2.7143c1.76575,-0.36108 3.5878,2.05645 3.5878,2.05645l3.23273,11.74705z" fill="#ffffff" stroke-width="3.5" stroke-linecap="butt"/><path d="M202.96735,188.36052l0.12169,-4.08968l-2.19055,-3.1274l1.46037,-4.69111" fill="none" stroke-width="1.5" stroke-linecap="round"/><path d="M200.8985,180.90287l-3.28584,-0.24057" fill="none" stroke-width="1.5" stroke-linecap="round"/></g><path d="M328.61976,177.3544c0.5832,4.05882 -0.15594,7.03421 -2.69315,9.11511c-2.22134,1.82185 -6.08965,2.78954 -8.07772,5.44228c-1.5155,2.02219 -1.96711,4.51216 -2.34373,8.17533c-9.67344,1.38992 -7.33002,-3.64215 -8.81302,-13.96335c-11.64151,-5.01721 -3.69864,-21.05623 -3.69864,-21.05623c0,0 3.6266,9.33443 7.38482,12.7059c3.24052,2.90703 17.5548,-5.19791 18.24145,-0.41905z" data-paper-data="{&quot;index&quot;:null}" fill="#ffffff" stroke="#000000" stroke-width="3.5" stroke-linecap="butt"/><path d="M344.41815,185.27973l-5.15108,-8.16961" data-paper-data="{&quot;index&quot;:null}" fill="none" stroke="#000000" stroke-width="1.5" stroke-linecap="round"/><path d="M274.28217,202.32682l-0.03412,-5.86639l3.62474,-1.06749l0.97412,6.21888z" data-paper-data="{&quot;index&quot;:null}" fill="#ffffff" stroke="#000000" stroke-width="3.5" stroke-linecap="butt"/><g data-paper-data="{&quot;index&quot;:null}" stroke="#000000"><path d="M257.03493,201.15558l0.1259,-7.2657l13.6989,2.72652l0.48063,6.29616z" fill="#ffffff" stroke-width="3.5" stroke-linecap="butt"/><path d="M263.84264,200.98627l1.66781,-4.70492" fill="none" stroke-width="1.5" stroke-linecap="round"/><path d="M263.64452,199.0538l-3.33997,-3.30046" fill="none" stroke-width="1.5" stroke-linecap="round"/></g><g data-paper-data="{&quot;index&quot;:null}" stroke="#000000"><path d="M288.1862,206.19027c0,0 -2.46078,0.20045 -3.22487,-0.06224c-1.05511,-0.36274 -2.51941,-1.91258 -2.51941,-1.91258l8.36666,-20.73552c0,0 3.20139,1.46839 4.76485,2.36633c1.51532,0.8703 4.47595,2.94098 4.47595,2.94098c0,0 -1.98809,5.58269 -3.53865,7.83155c-2.10614,3.05465 -8.32453,9.57146 -8.32453,9.57146z" fill="#ffffff" stroke-width="3.5" stroke-linecap="butt"/><path d="M294.47978,185.7904l-1.44614,3.77757l-2.16921,5.00273l0.72307,2.8587l-3.71866,4.69644l-2.89228,-2.04194" fill="none" stroke-width="1.5" stroke-linecap="round"/></g><g data-paper-data="{&quot;index&quot;:null}"><path d="M253.01988,215.90414c-2.96121,2.10396 -10.06817,-3.88055 -12.91787,-4.13806c-2.22587,-0.20113 -3.21306,6.91425 -5.65176,6.81947c-12.19277,-0.47383 -22.34717,-11.11123 -22.34717,-11.11123l1.01187,-7.96099c0,0 -0.17805,-3.70647 -0.89045,-6.56204c-0.38007,-1.52343 -4.1415,0.40936 -4.7333,-2.34297c-0.31708,-1.47464 1.39307,-1.52717 1.3718,-3.40583c-0.04796,-4.23862 -1.83404,-10.56634 -1.83404,-10.56634c0,0 8.94133,1.47235 17.26412,2.05331c10.50468,0.73326 21.11243,0.80589 23.6527,3.1753c0.92804,0.86561 0.25876,7.84619 0.25876,7.84619c0,0 4.47309,1.91384 5.4278,4.33763c0.54712,1.38902 -0.96819,6.93526 -0.96819,6.93526c0,0 14.90214,4.58499 0.35573,14.92027z" fill="#ffffff" stroke="#000000" stroke-width="3.5" stroke-linecap="butt"/><path d="M248.98774,194.85208c0.09487,5.15676 -12.65008,12.44339 -13.42333,4.80065c-0.42235,-4.1744 3.07825,-5.17352 6.55415,-5.93408c0.47856,-0.10471 0.86803,-1.03394 1.41474,-1.22692c0.89609,-0.31632 2.0971,-0.09062 3.17201,0.41643c0.95188,0.0733 1.74731,0.69756 2.06014,1.55043c0.08877,0.11139 0.16835,0.22441 0.2375,0.33833z" fill="#000000" stroke="none" stroke-width="0.5" stroke-linecap="butt"/><path d="M252.04544,203.39105c0.27321,0.15431 0.44203,1.63973 0.50095,2.11286c0.45615,3.66227 -3.43107,6.05318 -6.59393,6.63103c-2.30738,0.42155 -3.28458,-3.34002 -2.25475,-4.78626c0.6299,-0.88459 1.2694,-1.86323 2.17154,-2.51418c0.7189,-0.51873 1.35735,-0.96048 2.01967,-1.3821c0.64409,-0.41001 1.31077,-0.80098 2.09597,-1.22516z" fill="#000000" stroke="none" stroke-width="0.5" stroke-linecap="butt"/><path d="M214.01527,192.49205c3.44162,-0.85041 13.70257,1.01315 17.40814,4.66754c0.75788,0.39639 1.27427,1.18366 1.27427,2.09017c0,1.30515 -1.07047,2.3632 -2.39096,2.3632c-0.96993,0 -1.80497,-0.57084 -2.17998,-1.39115c-0.20587,-0.08204 -0.41215,-0.09144 -0.62206,0.0218c-1.15883,0.62515 -2.65944,0.78591 -3.9346,0.44798c-1.72151,-0.45621 -2.98477,-0.9521 -4.53769,-1.9131c-0.21467,-0.13285 -5.51327,-2.02709 -5.60884,-2.19241c-0.65203,-1.12779 -1.55133,-3.56451 0.59174,-4.09405z" fill="#000000" stroke="none" stroke-width="0.5" stroke-linecap="butt"/><path d="M230.39037,210.29606c-0.70261,0.46297 -2.80702,-1.09855 -3.48506,-1.47799c-3.22673,-1.80571 -8.07366,-2.05332 -8.78665,-6.40976c-0.36386,-2.22323 3.67873,-1.35556 4.62243,-1.06706c2.2677,0.69329 6.21802,2.30727 8.41486,4.41929c0.7064,0.67912 1.2315,1.40975 1.46104,2.1778z" fill="#000000" stroke="none" stroke-width="0.5" stroke-linecap="butt"/><path d="M241.04283,185.02788c3.34507,-2.8339 7.12144,1.26976 4.20749,4.13904c-0.6104,0.60105 -9.33342,8.17213 -9.12654,1.90152c0.06909,-2.09413 3.1845,-4.45644 4.58949,-5.84511z" fill="#000000" stroke="none" stroke-width="0.5" stroke-linecap="butt"/><path d="M232.14221,191.52086l-1.87314,6.17128" fill="none" stroke="#000000" stroke-width="1.5" stroke-linecap="round"/><path d="M224.64965,190.16318v3.82619" fill="none" stroke="#000000" stroke-width="1.5" stroke-linecap="round"/><path d="M246.25312,205.0977l-2.74727,-1.23426v-3.33248" fill="none" stroke="#000000" stroke-width="1.5" stroke-linecap="round"/><path d="M224.52476,212.62665l0.12488,-6.29471" fill="none" stroke="#000000" stroke-width="1.5" stroke-linecap="round"/><path d="M224.02526,208.80045l-3.62139,2.96222" fill="none" stroke="#000000" stroke-width="1.5" stroke-linecap="round"/><path d="M237.35297,226.54791l-11.94951,-1.66137l-2.0372,-9.20476c0,0 5.39288,2.67339 9.78619,1.76625c3.07639,-0.63521 5.11876,-4.9808 6.79925,-4.87971c2.34303,0.14097 5.72667,4.45583 5.72667,4.45583l3.49233,3.73942z" fill="#ffffff" stroke="#000000" stroke-width="3.5" stroke-linecap="butt"/><path d="M245.74307,220.35875c-0.71174,2.11048 -2.93606,1.7891 -4.50759,0.8871c-0.4286,-0.16195 -0.79799,-0.44231 -1.0672,-0.80059c-0.51393,-0.51522 -0.74912,-1.0515 -0.47019,-1.40759c0,-1.30515 1.07047,-2.3632 2.39095,-2.3632c0.20698,0 0.4078,0.02599 0.59936,0.07486c2.27269,-0.61263 3.83527,1.29478 3.05467,3.6094z" fill="#000000" stroke="none" stroke-width="0.5" stroke-linecap="butt"/><path d="M227.46004,222.74086c0.20384,-1.80661 1.22057,-2.45024 2.36981,-2.39582c0.30584,-0.14042 0.64673,-0.2188 1.00615,-0.2188c1.32048,0 2.39095,1.05806 2.39095,2.36321c0,0.78016 -0.38247,1.47202 -0.97221,1.90239c-1.24901,1.93995 -5.0728,0.81379 -4.79471,-1.65095z" fill="#000000" stroke="none" stroke-width="0.5" stroke-linecap="butt"/></g><path d="M214.74911,184.12013c0.07774,-0.06102 0.24227,-0.07697 0.45982,-0.06237c-0.03147,0.06099 -0.05122,0.13751 -0.05122,0.23356c0,0.47264 0.47818,0.47265 0.47818,0.47265l0.82001,-0.00609c2.2303,0.7348 4.66608,1.05066 6.98408,1.61667c0.82692,0.20192 2.01913,0.03264 2.68999,0.52553c0,0 0.24421,0.1609 0.47752,0.04152c0.00172,0.00027 0.00343,0.00057 0.00516,0.00083c0.54958,0.27008 1.05208,0.57626 1.48301,0.92568c0.85422,0.36048 1.45292,1.19834 1.45292,2.17439c0,1.30515 -1.07047,2.36321 -2.39096,2.36321c-0.05932,0 -0.11813,-0.00214 -0.17635,-0.00634c-2.20269,-0.09868 -4.15276,-0.91979 -6.27418,-1.80857c-1.74235,-0.72998 -3.61345,-1.15296 -5.43783,-1.60376c-3.04805,-0.75318 -2.56639,-3.26086 -0.52016,-4.86694z" data-paper-data="{&quot;index&quot;:null}" fill="#000000" stroke="none" stroke-width="0.5" stroke-linecap="butt"/><path d="M192.48355,161.86455l-1.29267,-3.26512l2.87259,-4.96865" data-paper-data="{&quot;index&quot;:null}" fill="none" stroke="#000000" stroke-width="1.5" stroke-linecap="round"/><path d="M266.16537,164.98771l1.29266,-1.56158" data-paper-data="{&quot;index&quot;:null}" fill="none" stroke="#000000" stroke-width="1.5" stroke-linecap="round"/><path d="M316.2615,255.72523c1.05561,1.0417 0.9525,3.01467 -0.23029,4.40679c-1.18278,1.3921 -2.99737,1.67618 -4.05297,0.63449c-1.05561,-1.04169 -0.9525,-3.01468 0.23029,-4.4068c1.18279,-1.39211 2.99738,-1.67618 4.05298,-0.63449z" data-paper-data="{&quot;index&quot;:null}" fill="#ffffff" stroke="#000000" stroke-width="3.5" stroke-linecap="butt"/><path d="M304.17643,258.00613c0,0 1.57125,-2.76021 1.96301,-4.30908c0.38416,-1.51879 0.36521,-4.89567 0.36521,-4.89567c0,0 1.66442,-1.30356 4.3649,0.32259c3.64922,2.19747 3.0078,5.04685 3.0078,5.04685l-4.17139,5.0818z" data-paper-data="{&quot;index&quot;:null}" fill="#ffffff" stroke="#000000" stroke-width="3.5" stroke-linecap="butt"/><path d="M295.83366,245.15785c5.46483,0 9.89494,3.69183 9.89494,8.24593c0,4.5541 -2.32823,6.23238 -2.32823,6.23238c0,0 -11.12675,0.0198 -14.06205,-1.96154c-2.00132,-1.35089 -1.84746,-8.77735 -1.84746,-8.77735c0,0 2.87796,-3.73944 8.34279,-3.73944z" data-paper-data="{&quot;index&quot;:null}" fill="#ffffff" stroke="#000000" stroke-width="3.5" stroke-linecap="butt"/><path d="M239.93027,236.73017c2.05066,-0.71459 7.73057,-6.44458 7.73057,-6.44458l9.1908,-0.22289c0,0 -1.16003,3.7444 -0.407,3.7444c3.91472,0 4.55858,2.45982 6.30842,3.85779c2.29923,1.83686 4.66628,2.73322 4.66628,2.73322c0,0 3.23369,-0.54122 6.9943,0.00555c5.62199,0.81742 12.5397,3.01583 12.5397,4.65229c0,0.60426 0.30779,5.06878 0.16175,5.64047c-1.55733,6.09663 -11.60184,6.36462 -25.12343,6.36462c-0.61323,-1.17712 -2.90935,-3.33531 -6.13775,-3.87075c-4.19589,-0.69589 -9.63702,0.37213 -11.61949,-0.14115c-4.59803,-1.19047 -11.5868,-1.14184 -13.86651,-3.59542c-2.66161,-2.8646 -0.22389,-8.1789 -0.22389,-8.1789c0,0 3.77808,-2.45101 9.78625,-4.54466z" data-paper-data="{&quot;index&quot;:null}" fill="#ffffff" stroke="#000000" stroke-width="3.5" stroke-linecap="butt"/><path d="M257.20973,233.52352c0,0 -4.59109,2.95771 -7.95866,3.81819c-8.5297,2.17948 -13.56002,1.09727 -13.56002,1.09727" data-paper-data="{&quot;index&quot;:null}" fill="none" stroke="#000000" stroke-width="3.5" stroke-linecap="round"/><path d="M300.97513,257.19115c-0.90237,3.89732 -3.57004,2.15737 -9.4099,2.15737c-5.83986,0 -11.05904,-6.4721 -11.05904,-6.4721c0,0 3.09161,-2.67148 3.25669,-2.81064c0.87932,-0.74124 3.66158,0.07796 8.57844,0.07796c5.83986,0 9.60391,2.85755 8.63382,7.04739z" data-paper-data="{&quot;index&quot;:null}" fill="#ffffff" stroke="#000000" stroke-width="3.5" stroke-linecap="butt"/><path d="M292.43833,257.33497l1.35812,-3.45178l4.17139,-1.82178" data-paper-data="{&quot;index&quot;:null}" fill="none" stroke="#000000" stroke-width="1.5" stroke-linecap="round"/><path d="M262.40563,256.56798l0.67745,-12.18645l4.60667,-4.41925" data-paper-data="{&quot;index&quot;:null}" fill="none" stroke="#000000" stroke-width="1.5" stroke-linecap="round"/><path d="M259.01838,252.41655l3.65823,-3.0801" data-paper-data="{&quot;index&quot;:null}" fill="none" stroke="#000000" stroke-width="1.5" stroke-linecap="round"/><path d="M250.61797,248.53295l-7.85842,-4.15143l1.08392,-4.82101" data-paper-data="{&quot;index&quot;:null}" fill="none" stroke="#000000" stroke-width="1.5" stroke-linecap="round"/><path d="M243.03053,244.51543l0.13549,7.7672" data-paper-data="{&quot;index&quot;:null}" fill="none" stroke="#000000" stroke-width="1.5" stroke-linecap="round"/><path d="M248.45014,247.19379l2.03235,-0.93742" data-paper-data="{&quot;index&quot;:null}" fill="none" stroke="#000000" stroke-width="1.5" stroke-linecap="round"/><path d="M285.43816,251.23164c0.80415,3.97406 -1.77614,3.61372 -3.75092,3.02288l0.20194,0.25662l-0.8876,2.21413l-1.1412,0.45953l-0.72307,0.10211l-0.17119,-0.0175l-0.16695,0.04126h-1.85934l-0.19387,-0.04791l-0.19921,0.01575l-1.23955,-0.20418l-0.2379,-0.10223l-0.25701,-0.03464l-0.51647,-0.20419l-0.28524,-0.2036l-0.16338,-0.00896l-0.24508,-0.2826l-0.30529,-0.21794l-0.02261,-0.16018l-0.2017,-0.23259l-0.55807,-0.15514l-0.27477,-0.50922l-0.12409,-0.08177l0.00755,-0.13421l-0.18858,-0.34948l-0.10329,-0.40838v-0.12405l-0.04735,-0.11489l-0.1033,-0.71469l0.01771,-0.16918l-0.04173,-0.16502v-1.42934l0.0246,-0.09729l-0.01635,-0.09896l0.1033,-1.22516l0.02892,-0.08395l-0.00792,-0.08837l0.30133,-1.8862l0.08261,-0.73482v-0.48169l0.29887,-1.1816l0.2122,-0.11983l0.04144,-0.23805l1.02138,-0.68144l0.40763,-0.14652l0.02807,-0.11297l0.22134,-0.12621l0.16629,-0.19175l0.18811,-0.01034l0.49166,-0.28033l0.72307,-0.20418l0.30663,-0.01012l0.29588,-0.08021l4.50934,-0.1013l1.75378,-0.09123l1.33098,-0.2631c0.16658,-0.03632 0.33968,-0.05547 0.51731,-0.05547c0.24068,0 0.47305,0.03514 0.69216,0.10053l0.06982,0.00328l0.02348,0.02666c0.93467,0.3212 1.60552,1.19952 1.60552,2.23274c0,0.69976 -0.30772,1.32849 -0.7967,1.7612l-0.01171,0.03471l-0.06524,0.03056c-0.16515,0.13417 -0.34882,0.24691 -0.54663,0.33387l0.07742,0.177l-0.37834,0.88814l-0.00773,0.13751l-0.07957,0.06743l-0.01254,0.02943l-0.30989,0.40839l-0.30327,0.24355l-0.25935,0.28889l-0.2519,0.17036c0.6234,0.41983 1.16809,0.93679 1.30563,1.61652z" data-paper-data="{&quot;index&quot;:null}" fill="#000000" stroke="none" stroke-width="0.5" stroke-linecap="butt"/><g data-paper-data="{&quot;index&quot;:null}" stroke="#000000"><path d="M252.43373,229.16945c0,0 3.02975,-5.82805 4.93187,-7.97552c2.6378,-2.97803 4.08999,-2.76338 4.08999,-2.76338c0,0 1.68112,2.24338 2.19992,3.63926c0.6253,1.68247 0.71036,5.66139 0.71036,5.66139z" fill="#ffffff" stroke-width="3.5" stroke-linecap="butt"/><path d="M245.44306,225.07613l6.76694,-8.00704l4.29881,1.89684l-3.4544,6.67684z" fill="#ffffff" stroke-width="3.5" stroke-linecap="butt"/><path d="M259.1188,227.69135l2.84028,-6.06985" fill="none" stroke-width="1.5" stroke-linecap="round"/><path d="M258.04411,221.318l2.45646,2.35207" fill="none" stroke-width="1.5" stroke-linecap="round"/></g><path d="M207.23349,233.34827c2.43446,3.08889 4.74551,7.97506 2.2881,9.86712c-2.4574,1.89206 -7.77179,-0.53247 -10.20625,-3.62137c-2.43445,-3.08889 -1.43493,-6.88436 1.02248,-8.77641c2.4574,-1.89206 4.46122,-0.55823 6.89568,2.53066z" data-paper-data="{&quot;index&quot;:null}" fill="none" stroke="#000000" stroke-width="3.5" stroke-linecap="butt"/><path d="M174.33759,249.80201c0,0 7.7694,-5.54582 11.76269,-8.29063c4.05734,-2.78884 12.39219,-8.3124 12.39219,-8.3124c0,0 5.67754,-9.97972 15.91171,-3.02167c6.80871,4.62913 10.20498,9.80832 10.20498,9.80832c0,0 -2.31592,3.6756 -2.40062,6.31112c-0.04925,1.53242 4.02731,9.1224 4.09692,12.11302c0.18213,7.82357 -3.41287,13.20646 -3.41287,13.20646z" data-paper-data="{&quot;index&quot;:null}" fill="#ffffff" stroke="#000000" stroke-width="3.5" stroke-linecap="butt"/><path d="M181.64304,258.63129c-3.60284,5.02358 -6.84794,4.96914 -10.27315,2.56932c-3.42522,-2.39981 -2.05509,-6.5998 1.54775,-11.62338c1.20936,-1.68623 2.97849,-1.75192 4.49922,-2.14666c1.9072,-0.49504 4.12478,-0.58862 6.2644,0.91046c3.42522,2.39982 1.56464,5.26671 -2.0382,10.29029z" data-paper-data="{&quot;index&quot;:null}" fill="#ffffff" stroke="#000000" stroke-width="3.5" stroke-linecap="butt"/><path d="M197.26638,257.92176c0,5.01985 -2.53065,9.6952 -6.55983,9.6952c-2.3629,0 -5.19132,-0.37681 -6.3153,-2.2021c-0.79261,-1.28718 -0.24452,-3.59929 -0.24452,-5.67526c0,-5.01985 3.02108,-11.75542 9.50256,-9.21043c3.74454,1.47032 3.6171,2.37273 3.6171,7.39258z" data-paper-data="{&quot;index&quot;:null}" fill="#ffffff" stroke="#000000" stroke-width="3.5" stroke-linecap="butt"/><path d="M193.8332,267.37458c0,0 3.42919,-17.45134 7.35681,-17.45134c3.92763,0 6.37592,4.46545 6.37592,10.42233c0,5.9569 -1.8392,9.93757 -1.8392,9.93757c0,0 -3.26337,0.7921 -8.17002,-0.5437c-3.30678,-0.90025 -3.7235,-2.36488 -3.7235,-2.36488z" data-paper-data="{&quot;index&quot;:null}" fill="#ffffff" stroke="#000000" stroke-width="3.5" stroke-linecap="butt"/><path d="M209.45247,271.28977c0,0 -2.45968,-19.19206 2.356,-21.25398c4.81568,-2.06191 10.2455,2.50835 13.48911,9.90903c1.39126,3.17426 4.3841,8.97997 4.3841,8.97997c0,0 -3.86733,4.43104 -6.61749,5.60857c-4.81568,2.06193 -13.61173,-3.24358 -13.61173,-3.24358z" data-paper-data="{&quot;index&quot;:null}" fill="#ffffff" stroke="#000000" stroke-width="3.5" stroke-linecap="butt"/><path d="M221.2136,246.83949l-6.26167,0.53354l8.52883,-9.07006" data-paper-data="{&quot;index&quot;:null}" fill="none" stroke="#000000" stroke-width="1.5" stroke-linecap="round"/><path d="M188.93356,240.3304l6.58554,4.26826l-0.64775,3.20118" data-paper-data="{&quot;index&quot;:null}" fill="none" stroke="#000000" stroke-width="1.5" stroke-linecap="round"/><path d="M192.60417,237.55601l0.97165,5.22863" data-paper-data="{&quot;index&quot;:null}" fill="none" stroke="#000000" stroke-width="1.5" stroke-linecap="round"/><path d="M222.08989,269.0368l-4.02854,-3.36919l-2.78899,-1.73564l-0.61978,-5.71741l2.16922,-6.53417" data-paper-data="{&quot;index&quot;:null}" fill="none" stroke="#000000" stroke-width="1.5" stroke-linecap="round"/><path d="M211.55374,267.19906l3.82194,-3.16499" data-paper-data="{&quot;index&quot;:null}" fill="none" stroke="#000000" stroke-width="1.5" stroke-linecap="round"/><path d="M196.47251,267.70954l4.02855,-6.22789h3.92524l1.65275,-4.18596" data-paper-data="{&quot;index&quot;:null}" fill="none" stroke="#000000" stroke-width="1.5" stroke-linecap="round"/><g data-paper-data="{&quot;index&quot;:null}" fill="#ffffff" stroke="#000000" stroke-width="3.5" stroke-linecap="butt"><path d="M223.18799,232.14842c0,1.57519 -1.49496,2.85214 -3.33911,2.85214c-1.84415,0 -3.33911,-1.27695 -3.33911,-2.85214c0,-1.57518 1.49496,-2.85215 3.33911,-2.85215c1.84414,0 3.33911,1.27695 3.33911,2.85215z"/><path d="M211.48054,226.36267c0,0 0.34597,-3.71905 0.9733,-5.73424c0.5778,-1.85608 2.65435,-5.91881 2.65435,-5.91881c0,0 3.92192,2.13571 5.83459,3.33621c1.85035,1.1614 5.46066,3.7534 5.46066,3.7534l-2.8032,5.37832z"/><path d="M223.10554,224.52913c0,2.36278 -2.14094,4.27821 -4.78193,4.27821c-2.64099,0 -5.11172,-2.40436 -5.11172,-4.76715c0,-2.36278 2.9654,-2.15947 5.60639,-2.15947c2.64098,0 4.28724,0.28562 4.28724,2.64842z"/></g><path d="M199.37322,208.50407c0,0 1.46263,-3.17155 2.29242,-4.62801c0.90759,-1.59304 2.94064,-4.55727 2.94064,-4.55727l5.41351,3.47794c0,0 -0.37067,3.74449 -0.8046,5.39879c-0.40637,1.54919 -1.7217,4.23237 -1.7217,4.23237z" data-paper-data="{&quot;index&quot;:null}" fill="#ffffff" stroke="#000000" stroke-width="3.5" stroke-linecap="butt"/><path d="M178.75863,220.96173l-3.49372,2.10094l0.78928,8.31066l-7.18577,0.58688l0.73982,-9.99185c0,0 3.49246,-4.01691 7.26721,-6.20386c1.54361,-0.89429 4.32816,-0.96073 5.0712,-1.13846c1.79556,-0.42952 0.72844,3.66942 0.72844,3.66942z" data-paper-data="{&quot;index&quot;:null}" fill="#ffffff" stroke="#000000" stroke-width="3.5" stroke-linecap="butt"/><path d="M202.21733,232.31475c2.40166,-0.84686 5.21061,0.85485 6.27397,3.80087c1.06336,2.94603 -0.02155,6.02075 -2.4232,6.86761c-2.40166,0.84686 -5.2106,-0.85484 -6.27396,-3.80086c-1.06336,-2.94604 0.02154,-6.02077 2.42319,-6.86763z" data-paper-data="{&quot;index&quot;:null}" fill="#ffffff" stroke="#000000" stroke-width="3.5" stroke-linecap="butt"/><path d="M200.92727,230.11118l1.31915,-3.42257l11.21279,1.46681l-2.22606,5.37833z" data-paper-data="{&quot;index&quot;:null}" fill="#ffffff" stroke="#000000" stroke-width="3.5" stroke-linecap="butt"/><path d="M209.44522,220.049c1.74909,2.40641 2.8942,4.51136 1.06338,5.82024c-1.83081,1.30888 -5.48355,1.4581 -7.23264,-0.94831c-1.74909,-2.40642 -3.02935,-6.3292 -1.19853,-7.63808c1.8308,-1.30888 5.61867,0.35972 7.36776,2.76614z" data-paper-data="{&quot;index&quot;:null}" fill="#ffffff" stroke="#000000" stroke-width="3.5" stroke-linecap="butt"/><path d="M193.25857,216.86531l-7.17224,5.71796c0,0 -2.32029,-0.47813 -3.07006,-1.17242c-1.77001,-1.63902 -0.3635,-3.3387 -0.3635,-3.3387c0,0 5.42595,-8.44509 8.16388,-8.41687c3.02903,0.03123 8.4691,1.27006 8.4691,1.27006l0.92891,5.61588z" data-paper-data="{&quot;index&quot;:null}" fill="#ffffff" stroke="#000000" stroke-width="3.5" stroke-linecap="butt"/><path d="M190.58393,211.18905l2.17403,4.99372" data-paper-data="{&quot;index&quot;:null}" fill="#ffffff" stroke="#000000" stroke-width="3.5" stroke-linecap="round"/><path d="M184.07667,214.4923c0,0 -2.52509,-2.38144 -7.55808,-0.36396c-2.50806,1.00536 -6.57619,6.35307 -6.57619,6.35307l-6.53729,-4.29921c0,0 9.62181,-12.66143 12.78194,-12.26615c4.02169,0.50306 9.42603,5.26591 9.42603,5.26591l-1.5364,5.31035z" data-paper-data="{&quot;index&quot;:null}" fill="#ffffff" stroke="#000000" stroke-width="3.5" stroke-linecap="butt"/><path d="M180.07595,212.24064l-2.77264,-7.44137" data-paper-data="{&quot;index&quot;:null}" fill="#ffffff" stroke="#000000" stroke-width="3.5" stroke-linecap="round"/><path d="M173.49839,215.31789l-3.93075,-5.45652" data-paper-data="{&quot;index&quot;:null}" fill="#ffffff" stroke="#000000" stroke-width="3.5" stroke-linecap="round"/><path d="M194.23463,230.83549c0,0 -4.2042,-1.90305 -5.94029,-3.18873c-1.81989,-1.34772 -4.73954,-4.72024 -4.73954,-4.72024l5.37427,-3.3402c0,0 2.18458,1.54538 4.80494,3.91282c1.26495,1.14286 2.9543,3.80615 2.9543,3.80615z" data-paper-data="{&quot;index&quot;:null}" fill="#ffffff" stroke="#000000" stroke-width="3.5" stroke-linecap="butt"/><path d="M177.88543,216.22068l2.2712,3.53399" data-paper-data="{&quot;index&quot;:null}" fill="#ffffff" stroke="#000000" stroke-width="3.5" stroke-linecap="round"/><path d="M170.96968,219.88385l3.2704,2.77545" data-paper-data="{&quot;index&quot;:null}" fill="#ffffff" stroke="#000000" stroke-width="3.5" stroke-linecap="round"/><path d="M330.07449,161.97065c0.69578,-0.09998 1.36406,0.10688 1.86499,0.51712c0.51894,0.42501 0.74237,0.81809 0.83778,1.48203l0.05132,0.35718l-0.03986,0.37806l0.02471,0.37911l-0.04149,0.22471l0.04077,0.62606l-0.05266,0.28514l-0.04251,0.40322l-0.03205,0.08721l0.00603,0.09249l-0.08226,0.44559l0.1229,1.54157l0.02372,0.16509l-0.02485,0.23581l0.00084,0.0051l-0.0016,0.00211l-0.07148,0.678l0.73253,0.42562l0.50548,0.20931l0.23528,0.17402l0.10483,0.0434l0.27945,0.09146l1.03882,0.65151l0.01845,0.09148l0.08771,0.03416l0.46387,1.12708l0.05132,0.35718l-0.00997,0.09461l0.04605,0.06574l-0.108,0.52198l-0.05583,0.52975l-0.06396,0.04933l-0.01929,0.09323l-0.10261,0.21205l0.00325,0.01961l-0.03524,0.04652l-0.05499,0.11363l-0.33469,0.40052l-0.31508,0.41575l-0.02246,0.01811l-0.09474,0.35615l-0.14905,0.26874l-0.30009,1.14535l-0.19115,1.0354l0.39656,2.75992l0.42275,0.96753l0.01359,0.08206l0.04635,0.0693l0.13312,0.37353l0.2171,0.37288l0.04491,0.15628l0.097,0.13097l0.19236,0.46736l0.01043,0.01558l0.082,0.08095l0.27173,0.44782l0.29137,0.43555l0.03854,0.10813l0.03133,0.05161l-0.00565,0.02042l0.03548,0.09958l0.12735,0.1818l0.09267,0.24336l0.15532,0.20968l0.01428,0.03471l0.20175,0.17472l0.70751,1.01007l0.11543,0.08537l0.02681,0.00141l0.04463,0.05145l0.05325,0.03939l0.34599,0.42069l0.00207,0.00238l0.13356,0.01725l0.12719,0.17172l0.18179,0.11401l0.03638,0.18052l0.38148,0.51501l0.1889,0.45894l0.17323,1.20559l-0.35228,0.44484l-0.03211,0.56331l-0.93606,0.79511l-0.34428,0.17099l-0.09152,0.02034l-0.07567,0.05493l-0.89258,0.36164l-0.77262,0.34313l-0.25862,0.04589l-0.23267,0.11555l-0.37516,0.08333l-0.35599,0.14423l-0.24092,0.03462l-0.46474,0.18828l-0.06594,0.00948l-0.06426,0.02411l-0.02422,-0.0114l-1.41156,0.20282l-0.45028,-0.04496l-0.45271,0.00396l-0.3855,-0.09179l-0.41643,-0.00856l-1.03615,0.03454l-0.03746,-0.00795l-0.0372,0.00928l-0.69044,0.0017l-2.43149,0.34937l-0.19212,0.07783l-0.07803,0.01122l-0.25673,0.24274l-0.55356,0.5678l-0.0006,0.0018l-0.20656,0.32107l-0.1494,0.35056l-0.62012,0.81824l-0.24796,0.19968l-0.19716,0.24897l-0.52194,0.40243l-0.14058,0.18546l-0.00231,0.01249l-0.13184,0.28798l-0.06404,0.30952l-0.15863,0.3278l-0.61089,1.4842l-0.06636,0.08985l-0.02607,0.10815l-0.48255,0.91997l-0.28609,0.32079l-0.24268,0.35401l-0.15063,0.13354l-0.06453,0.08515l-0.36625,0.29495l-0.06748,0.16821l-0.28454,0.11529l-0.23854,0.19212l-0.18136,-0.02198l-0.43687,0.177l-2.04784,0.29424l-0.45028,-0.04496l-0.45272,0.00396l-0.2976,-0.07088l-0.99374,0.05281l-0.1525,-0.02923l-0.15327,0.0261l-1.11837,-0.08235l-0.18575,-0.06079l-0.19583,0.00171l-0.47892,-0.11404l-0.3376,-0.03373l-0.05477,-0.01953l-0.13019,0.0125l-0.11882,-0.10125l-0.854,-0.30441l-0.30511,-0.68336l-0.54398,-0.46356l0.09858,-0.53398l-0.2213,-0.49566l0.41971,-0.57898l0.13591,-0.73617l0.7584,-0.49752l0.09168,-0.12645l0.07519,-0.01081l0.03518,-0.33377l0.01398,-0.03804l-0.00441,-0.04017l0.12118,-0.86806l0.04641,-0.11432l-0.00069,-0.12304l0.15539,-0.62993l0.02153,-0.04054l0.00149,-0.04572l0.32787,-1.1408l0.07404,-0.12748l0.02282,-0.14513l0.27585,-0.64723l0.035,-0.04619l0.01169,-0.05651l0.75839,-1.5672l0.1519,-0.18181l0.09257,-0.2172l1.34359,-1.77281l0.1173,-0.09447l0.07553,-0.12959l0.90988,-0.93328l1.84384,-2.15721l0.09681,-0.06907l0.0629,-0.10031l2.30787,-2.21986l1.41813,-1.59995l0.16736,-0.11491l0.12218,-0.16122l1.05779,-0.85189l0.50424,-0.44705l0.23681,-0.26718l-0.07246,-0.50429l-0.27741,-0.72848l-0.20333,-0.45036l-0.06306,-0.07667l-0.26332,-0.19477l-0.24125,-0.11354l-0.30885,-0.04116l-0.76818,0.02561l-1.59141,0.22866l-1.32774,0.28743l-0.84036,0.38637l-0.7316,0.39748l-0.34441,0.23648l-0.24641,0.09244l-0.21255,0.15426l-0.92947,0.3766l-0.29135,0.04186l-0.27261,0.11046l-0.84322,0.12116l-0.25125,-0.02509l-0.11985,0.06793l-0.41925,-0.12176l-0.435,-0.04344l-0.08459,-0.10747l-0.24216,-0.07033l-2.01219,-1.16912l-0.09583,-0.09317l-0.12401,-0.05136l-1.38856,-1.02707l-0.02681,-0.0014l-0.04465,-0.05146l-0.05325,-0.03939l-0.346,-0.42067l-0.00635,-0.00731l-0.27035,-0.15706l-0.26215,-0.25489l-0.30461,-0.20363l-0.48017,-0.53001l-0.86142,-0.7307l-0.17669,-0.2468l-0.23002,-0.19919l-0.59445,-0.84863l-0.88545,-1.17208l-0.01686,-0.03992l-0.0329,-0.02848l-1.08272,-1.54571l-0.06055,-0.15903l-0.11186,-0.12889l-0.40969,-0.81055l-0.20586,-0.2615l-0.22469,0.18096l-0.06748,0.1682l-0.28455,0.11529l-0.23854,0.19211l-0.18135,-0.02197l-0.43687,0.177l-0.60231,0.08654l-0.38218,-0.03817l-0.38346,0.02566l-0.37849,-0.06713l-0.29079,-0.12942l-0.31279,-0.0623l-0.39558,-0.1862l-0.25301,-0.20648l-0.29203,-0.14796l-0.84252,-0.72959l-0.1673,-0.23884l-0.22102,-0.19141l-0.30935,-0.44162l-0.1124,-0.29516l-0.17589,-0.26292l-0.20599,-0.578l-0.02222,-0.23433l-0.08965,-0.21782l-0.17108,-1.19061l0.00972,-0.09221l-0.02853,-0.08819l-0.10195,-1.56511l0.01666,-0.09017l-0.02142,-0.08905l0.01852,-1.58243l0.02298,-0.08668l-0.01435,-0.08837l0.13898,-1.59973l0.13165,-0.37966l0.07285,-0.39465l0.60413,-1.31961l0.04716,-0.13965l0.10491,-0.16308l-0.0102,-0.11747l0.31283,-0.35294l4.29325,-0.11332l2.31522,2.79115l0.09278,0.21052l0.15118,0.1742l0.26772,0.52969l0.21277,0.30374l0.03572,0.09377l0.07036,0.07202l0.08135,0.13974l1.14553,0.17255l0.3918,-0.14363l1.14069,-1.50511l0.24392,-0.6081l0.1004,-0.1385l0.0467,-0.1639l0.68925,-1.19271l0.01293,-0.01336l0.07029,-0.20814l0.01736,-0.027l0.01086,-0.10309l0.11005,-0.08484l0.52401,-0.81448l0.71896,-0.14391l0.54977,-0.4239l0.53222,0.20731l0.56166,-0.11242l0.46368,0.51179l0.68132,0.26538l0.36703,0.89177l0.09282,0.10245l-0.00813,0.10333l0.01217,0.02955l0.05132,0.35719l-0.10392,0.9857l0.02201,0.10208l-0.02413,0.03522l0.00732,0.84951l0.07565,1.28961l0.22171,1.54301l0.21829,0.79331l0.00309,0.14933l0.05687,0.13819l0.01805,0.12557l0.1274,0.35749l0.02223,0.23433l0.04958,0.12044l0.42004,0.36373l0.42521,0.31449l0.10543,0.04962l1.81637,0.02198l0.03409,0.00887l0.03458,-0.00706l1.86892,0.0758l3.79629,-0.19116l0.1402,0.02726l0.14078,-0.02506l1.28421,0.0849l0.22453,-0.09974l0.55793,-0.33701l0.90115,-0.67778l0.04898,-0.02082l0.03517,-0.03966l0.44763,-0.30735l0.16105,-0.06042l0.13072,-0.11104l0.19227,-0.09549l0.30787,-0.21139l0.48588,-0.18228l0.20121,-0.30074c-0.03899,-0.36808 0.01026,-0.72689 0.13141,-1.05497l0.00732,-0.06941l0.02866,-0.02213c0.31262,-0.7486 1.0055,-1.32022 1.87411,-1.44502zM301.22909,166.06926l-0.07064,-0.07231l-0.56859,-0.97657l0.06403,0.9832l0.05057,0.35197l0.15895,-0.10914l0.00991,-0.02471l0.0636,-0.02577z" data-paper-data="{&quot;index&quot;:null}" fill="#000000" stroke="none" stroke-width="0" stroke-linecap="butt"/><g data-paper-data="{&quot;index&quot;:null}" fill="none" stroke="none" stroke-width="0" stroke-linecap="round"><path d="M322.80543,154.63017c0,0 3.607,2.4663 4.72344,4.11342c1.15319,1.70135 2.08895,5.93726 2.08895,5.93726"/><path d="M313.67727,163.95379l2.64622,1.36656l0.09471,2.4937"/><path d="M321.05851,158.08759l-0.68047,3.28206l-4.3224,3.96411"/><path d="M323.60828,161.62431l-3.1504,-0.5085"/></g><path d="M191.46181,166.16708c0,0 2.76943,-1.5988 22.56261,-1.06931c22.92288,0.61323 25.60032,6.85091 25.60032,6.85091l-0.67345,7.58216c0,0 -8.22151,-1.00551 -14.28415,-1.63071c-8.78407,-0.90584 -34.97873,-3.37531 -34.97873,-3.37531c0,0 -1.74475,-1.25566 -1.75516,-2.53031c-0.00983,-1.20727 3.52857,-5.8274 3.52857,-5.8274z" data-paper-data="{&quot;index&quot;:null}" fill="#2f3bd4" stroke="#2f3bd4" stroke-width="4" stroke-linecap="butt"/><g data-paper-data="{&quot;index&quot;:null}" fill="#2f3bd4" stroke="#2f3bd4" stroke-width="4" stroke-linecap="butt"><path d="M266.12335,154.386c0,0 15.69401,1.21902 14.16914,7.41785c-4.1168,16.73549 -7.54322,15.85462 -37.85206,22.08052c-14.81161,3.04254 -38.24255,-5.75128 -48.44746,-8.84811c-6.69503,-2.03171 -5.11183,-37.55658 0.08406,-42.23266c13.64634,-12.2811 44.35513,-24.42783 61.33947,-18.1405c10.4069,3.85247 12.06063,25.9228 12.06063,25.9228c0,0 -1.70746,5.70116 -1.35377,13.80011z"/><path d="M264.02506,149.11847c0,0 -24.83724,-5.4384 -28.512,-4.2105c-0.36466,1.31767 1.4219,15.48855 0.87648,15.37586c-13.62482,-2.81514 -18.01313,-4.74865 -18.01313,-4.74865l-7.53058,21.11102c0,0 -7.58358,-5.19742 -10.98974,-7.85626c-0.4926,-2.19746 -0.8823,6.27129 -0.8823,6.27129l-4.79667,-1.31328c0,0 -1.00599,-1.26337 -1.23071,-2.52583c-1.06548,-5.98585 -2.57585,-23.42047 5.57754,-32.43186c9.50096,-10.50076 65.44504,-16.93695 65.44504,-16.93695c0,0 1.80014,13.24134 1.81046,18.25873c-0.75356,3.57721 -1.12814,9.2905 -1.12814,9.2905z"/></g><g data-paper-data="{&quot;index&quot;:null}" fill="#2f3bd4" stroke="#2f3bd4" stroke-width="0" stroke-linecap="butt"><g><path d="M167.17969,168.0411c0,0 -5.12927,7.53176 -11.82576,11.78794c-4.6415,2.95007 -8.80258,6.74793 -10.96398,6.96942c-5.27973,0.54101 -8.95774,-9.46387 -6.10056,-11.87449c1.67752,-1.41532 5.93786,-2.89363 9.66067,-3.97388c9.28544,-2.69436 18.60194,-7.74725 18.60194,-7.74725l0.62773,4.83826z"/><path d="M140.04087,182.22484c0,0 2.59104,-0.42701 11.3068,-3.70265c7.40087,-2.78149 8.11164,-9.34747 10.01929,-10.96699c1.72372,-1.46337 2.29229,-2.20031 2.29229,-2.20031l0.74715,3.46187c0,0 -5.66685,10.99616 -12.35948,14.06615c-3.93426,1.80469 -8.26613,2.61585 -8.26613,2.61585c0,0 -1.79061,-0.75192 -2.31146,-1.27184c-0.55161,-0.55061 -1.42848,-2.00211 -1.42848,-2.00211z"/></g><g><path d="M255.63849,81.57052c13.24798,6.97725 12.49957,71.92992 12.49957,71.92992c0,0 -54.0602,-9.40132 -62.91257,-4.02236c-11.55063,7.01847 -22.56852,13.29318 -22.56852,13.29318c0,0 -13.56209,-1.15927 -20.51404,-12.29587c-2.12829,-3.40937 2.04617,-25.37686 2.79287,-28.00484c2.25983,-7.95331 2.80058,-17.03127 12.18616,-25.3455c15.27388,-13.5304 63.65162,-23.38334 78.51652,-15.55452z"/><path d="M180.37029,162.74532c0,0 -14.34768,-9.78355 -16.6277,-17.04579c-1.39087,-4.4302 -3.2155,-17.60835 0.34891,-29.1724c2.37339,-7.69999 9.89704,-15.76911 11.44113,-16.10007c13.10965,-2.80976 30.80889,48.27072 30.80889,48.27072l-25.97124,14.04755z"/></g></g><g data-paper-data="{&quot;index&quot;:null}" fill="#2f3bd4" stroke="#2f3bd4" stroke-width="4" stroke-linecap="butt"><path d="M162.6899,159.0344c0.39243,-1.01892 10.1193,-0.951 16.67974,4.30476c3.76989,3.02016 3.91643,8.05533 4.49037,11.06993c0.43978,2.30995 -3.03193,6.54687 -5.97719,7.73546z"/><path d="M172.54927,174.21376c0,0 0.45492,0.84505 2.18774,-0.30184c2.19171,-1.45063 6.50688,-6.21854 6.50688,-6.21854c0,0 2.33154,3.39642 2.55881,4.50282c0.31025,1.51037 -2.41338,5.43952 -4.85825,7.54613c-1.3324,1.14806 -2.51596,0.93456 -2.68358,1.02426z"/><path d="M171.40679,164.68133c-0.1089,-0.58975 9.25318,1.62673 9.11892,2.98265c-0.17326,1.75005 -0.79113,9.81355 -3.44102,8.3036c-1.08225,-0.61668 -5.16235,-8.49473 -5.67788,-11.28625z"/></g><g data-paper-data="{&quot;index&quot;:null}" fill="#2f3bd4" stroke="#2f3bd4" stroke-width="4" stroke-linecap="butt"><g><path d="M213.64201,137.24905c-0.18706,0.19829 3.0372,0.10987 3.0372,0.10987c0,0 6.72956,3.32888 9.10103,5.12032c1.57061,1.18646 3.74347,4.58258 3.74347,4.58258c0,0 1.80456,10.98139 -3.5982,11.8674c-2.65561,0.4355 -3.1963,-2.08986 -4.68574,-6.38389c-1.34402,-3.8748 -4.9714,-12.3009 -7.59776,-15.29627z" data-paper-data="{&quot;index&quot;:null}"/><path d="M253.02342,139.05895c0.55289,3.37156 0.18624,6.99251 -0.22466,9.56617c-0.5793,3.62855 -1.82063,6.32819 -3.56873,6.80158c-0.86861,0.14774 -1.62118,0.04732 -2.17963,-0.71787c-2.05038,-2.80944 -2.18224,-10.48247 -2.18224,-10.48247l-1.10512,-5.05973c0,0 5.7701,-8.16003 7.32815,-8.15681c0.57949,0.00118 1.7603,7.00064 1.93224,8.04913z" data-paper-data="{&quot;index&quot;:null}"/></g><g><path d="M227.25475,163.72288c5.95707,1.72805 19.59047,-3.58725 19.59047,-3.58725c0,0 -4.69928,3.58497 -10.82397,4.94576c-2.43763,0.54159 -17.33945,3.05516 -22.84462,2.59715c-3.20578,-0.26673 -6.06706,-7.77093 -6.80653,-9.09341c-0.37604,-0.6725 4.48987,-1.93367 8.67936,-1.6986c1.08351,0.0608 3.02861,-0.29664 3.99344,0.05087c0.45724,0.16467 0.86808,0.85739 0.49376,1.19071c-0.69279,0.61693 -2.73936,0.93062 -2.73936,0.93062c0,0 1.09297,1.14113 1.9659,1.5783c3.09461,1.54978 6.26413,2.43969 8.49153,3.08583z"/><path d="M222.3187,164.80802c0,0 -2.39872,0.59212 -3.77542,0.72112c0,0 -3.1354,0.084 -4.19965,-0.35729c-0.84563,-0.35062 -2.0019,-1.65082 -2.0019,-1.65082c-1.04926,-1.56727 -3.00837,-4.10456 -3.00837,-4.10456c0,0 2.64064,-0.25123 3.62001,-0.41184c0.74129,0.68903 -0.55885,0.98383 1.4053,2.41288c3.66855,2.49031 7.96003,3.39053 7.96003,3.39053z"/></g></g><path d="M249.37684,99.09414c14.12304,18.81031 10.62767,58.57412 10.62767,58.57412c0,0 17.38444,-2.0652 15.56193,9.07157c-1.55335,9.49193 -33.17301,8.82648 -54.94616,8.2847c-30.02364,-0.74706 -47.24532,-6.47755 -51.34376,-31.46976c-4.09845,-24.99221 11.24197,-43.90749 40.84302,-49.05482c14.34581,-2.4946 31.80587,-5.33031 39.25733,4.59418z" data-paper-data="{&quot;index&quot;:null}" fill="#ffffff" stroke="#000000" stroke-width="3.5" stroke-linecap="butt"/><path d="M212.16586,181.42321l-0.22619,-0.18502l-0.52964,-0.4093l-0.05397,-0.06807l-0.06526,-0.05337l-0.00715,-0.03793l-0.35438,-0.4468l-0.01964,-0.03996l-0.09959,-0.08146l-0.03716,-0.1968l-0.59267,-1.206l0.17279,-1.01721l-0.18573,-0.98333l0.44575,-0.54752l0.13498,-0.79464l0.49846,-0.17914l0.00048,-0.0018l0.2874,-0.15604l0.50803,-0.624l0.67305,0.07122l0.89971,-0.16621l1.06855,0.15009l2.76301,-0.51045l0.02088,-0.02569l0.07506,0.00797l0.07152,-0.01321l0.59987,0.08424l0.41963,0.0444l0.35201,-0.02865l1.03637,0.25107l1.24578,0.06822l1.559,0.05522l0.17277,0.06255l0.17534,-0.01972l3.50977,0.74148l0.02934,0.0162l0.03103,-0.00252l1.12106,0.27161l0.90618,0.12725l1.21902,0.09487l0.74697,0.02647l0.30758,0.1114l0.31496,0.00898l0.54282,0.19269l2.91335,-0.23712l2.04461,-0.20556l0.20552,0.04585l0.20204,-0.0446l0.90911,0.09619l0.48271,-0.08918l0.26001,0.03652l0.25301,-0.06332l0.56618,0.04407l0.94862,-0.01737l0.09602,0.02941l0.0948,-0.02374l0.6617,0.05151l0.33822,0.13767l0.07439,0.00785l0.04822,-0.02782l0.07443,0.04082l0.15206,0.01609l0.27947,0.12211l0.23546,0.1926l0.10289,0.04188l0.02664,0.06408l0.00022,0.00018l0.39488,0.21653l0.60817,0.58262l0.3445,0.52848l0.18925,0.09783l0.14184,0.41013l0.22438,0.3442l-0.01503,0.26101l0.21778,0.6297l0.54182,3.72217l-0.01738,0.42125l0.06107,0.41962l-0.01152,0.27905l0.03744,0.25713l-0.02271,0.55007l0.04788,0.55215l-0.05353,0.5311l-0.49453,1.61332l-0.28183,0.13202l-0.09814,0.37206l-1.22147,0.66319l-5.13892,0.94939l-2.74493,1.15171l-2.01161,0.8728l-2.00021,1.04185l-0.13984,0.02318l-0.12033,0.09089l-3.9787,1.43003l-0.15585,0.00361c-0.00158,-0.01951 -0.00378,-0.03916 -0.00665,-0.05888c-0.05482,-0.3765 -0.3291,-0.63926 -0.61263,-0.58688c-0.06223,0.0115 -0.11972,0.03721 -0.17098,0.07433c-2.13013,-1.12691 -5.0791,-0.89654 -7.77402,-0.91253l-0.00383,-0.002l-0.00455,-0.0133l-0.64337,-0.51078l-0.34069,-0.43982l-0.37971,-0.37942l-0.68205,-1.09019l-0.03333,-0.08959l-0.05819,-0.06477l-0.60758,-1.08273l-0.21437,-0.3003l-0.13918,-0.31909l-0.19928,-0.26l-0.26467,-0.55938l-0.32391,-0.49694l-0.28502,-0.39925l-0.25854,-0.59275l-0.30066,-0.5591l-0.11797,-0.38725l-0.31685,-0.56466l-0.11467,-0.35512l-0.18126,-0.30664l-0.60284,-1.74303l-0.28199,-0.59602z" data-paper-data="{&quot;index&quot;:null}" fill="#000000" stroke="none" stroke-width="0.5" stroke-linecap="butt"/><path d="M234.76897,135.11433l0.303,-0.14714l2.75949,-0.45253l0.48283,0.06166l0.48303,0.00746l1.32629,0.40784l0.21658,0.13667l0.23747,0.05806l0.89816,0.50101l0.07664,0.03015l1.10413,0.81091l0.02572,0.12125l0.81201,0.29179l3.41559,0.90026l0.0389,0.02256l0.0424,0.00054l3.20358,0.97546l0.04569,0.02864l0.05061,0.00301l1.44848,0.51288l0.23181,0.15917l0.25647,0.08005l0.93747,0.59667l0.03032,0.03184l0.03841,0.01347l1.0946,0.7472l0.03411,-0.00091l0.50052,0.559l0.50107,0.55832l0.00128,0.04037l0.37194,0.66845l0.85303,1.44905l0.06785,0.20447l0.12104,0.16942l1.7011,3.97335l0.01203,0.06027l0.03273,0.0496l0.54629,1.41123l0.04441,0.27088l0.11038,0.24733l0.44174,2.05371l0.00052,0.08731l0.03139,0.08112l0.3595,2.19227l-0.01409,0.31828l0.059,0.31591l-0.02466,1.12966l-0.02009,0.08401l0.01196,0.08821l-0.06459,0.88608l-0.07475,0.25208l-0.00591,0.27128l-0.12452,0.52068l-0.12917,0.26007l-0.06146,0.2961l-0.30896,0.67601l-0.09213,0.11604l-0.04721,0.15054l-0.74009,1.24697l-0.13168,0.13111l-0.08329,0.17888l-0.3066,0.38l-0.47353,0.65448l-0.05176,0.04222l-0.03037,0.06521l-0.3489,0.43242l-0.32859,0.23837l-0.287,0.30231l-1.14654,0.68828l-0.11486,0.02982l-0.09382,0.08044l-1.26871,0.58326l-0.2768,0.03924l-0.25454,0.12362l-5.00797,0.82125l-0.46576,-0.05947l-0.4656,0.00068l-0.26094,-0.07568l-0.44059,-0.00268l-0.28987,-0.08634l-0.29494,0.00043l-1.10193,-0.31956l-0.25896,-0.15811l-0.28097,-0.07645l-1.08267,-0.63829l-1.06046,-0.523l-0.10724,-0.09219l-0.12655,-0.03949l-1.40619,-0.895l-0.13608,-0.1429l-0.16665,-0.08218l-3.29875,-2.83589l-0.10009,-0.13757l-0.13351,-0.08819l-1.40386,-1.52074l-0.05648,-0.09822l-0.08385,-0.06547l-1.85027,-2.32301l-0.0108,-0.02211l-0.01786,-0.01443l-1.19945,-1.55425l-0.12359,-0.26299l-0.18013,-0.21456l-1.07494,-2.07494l-0.01945,-0.07068l-0.04268,-0.05581l-1.13487,-2.44034l-0.01707,-0.07393l-0.04171,-0.06011l-0.87053,-2.10847l-0.0201,-0.10779l-0.0549,-0.09144l-0.20207,-0.5922l-0.03555,-0.28839l-0.10402,-0.26872l-0.07989,-0.48719l0.01069,-0.24155l-0.05546,-0.23731l-0.01762,-0.74752l0.06743,-0.35576l-0.00617,-0.36922l0.22907,-1.16318l0.09581,-0.21586l0.03161,-0.24437l0.43346,-1.19669l0.14647,-0.22218l0.08352,-0.26627l0.90455,-1.52408l0.23927,-0.23825l0.18399,-0.29937l1.72217,-1.65817l0.27946,-0.14995l0.23829,-0.22508l1.73979,-0.91064z" data-paper-data="{&quot;index&quot;:null}" fill="#000000" stroke="none" stroke-width="0.5" stroke-linecap="butt"/><path d="M217.5862,141.83061l0.24238,0.00685l0.24044,-0.04856l0.52714,-0.00486l0.21936,0.04181l0.12039,0.0034l0.135,-0.06406l0.40238,0.07924l0.42143,0.01192l0.09165,0.08914l0.28209,0.05556l0.68209,0.29605l0.07782,0.05925l0.10372,0.02887l0.68456,0.3698l0.02746,-0.00025l0.04496,0.03938l0.05399,0.02915l0.34813,0.32299l0.35966,0.31498l0.02956,0.04613l0.04351,0.04036l-0.00367,0.02048l0.06112,0.06735l0.78397,0.6309l0.00492,-0.00003l0.04498,0.03938l0.05399,0.02915l0.34813,0.323l0.35966,0.31498l0.02957,0.04613l0.0435,0.04036l-0.00387,0.02153l0.07268,0.11341l0.01099,0.04104l0.03301,0.03181l0.2759,0.48551l0.35853,0.55955l0.34805,0.44023l0.05595,0.14505l0.11465,0.11901l0.12083,0.23463l0.10114,0.15787l0.01937,0.07224l0.05553,0.05764l0.15493,0.30091l0.03792,0.23126l0.10938,0.21246l0.20844,1.27109l-0.02897,0.19118l0.00704,0.0309l0.10771,0.11182l0.46481,0.90272l0.01888,0.11518l0.07142,0.0986l0.03927,0.1173l0.11436,0.0296l0.11417,0.22175l0.19468,0.18063l-0.02619,0.14659l0.03863,0.07503l0.08242,0.0722l0.1419,0.22146l0.25441,0.94959l-0.76975,0.92143l0.05965,0.36378l-0.03884,0.25635l0.03422,0.252l-0.16517,0.92447l-0.14805,0.29473l-0.08484,0.30596l-0.33313,0.54411l-0.15854,0.15526l-0.09829,0.18086l-0.89798,0.96307l-0.26871,0.18251l-0.21831,0.21961l-0.82736,0.52796l-0.34357,0.23333l-0.2814,0.23117l-0.06029,0.03117l-0.04,0.04711l-0.28242,0.20948l-0.07694,0.03546l-0.0543,0.05588l-0.64682,0.42221l-0.45453,0.30871l-0.35062,0.14554l-0.31762,0.18955l-1.29761,0.45754l-0.01969,0.00294l-0.01654,0.00957l-1.3823,0.46824l-1.27958,0.45116l-0.19194,0.02871l-0.17448,0.07587l-1.41227,0.31237l-1.1362,0.26225l-0.63728,0.17807l-0.17636,0.01464l-0.16441,0.06065l-0.77404,0.12694l-0.66174,0.1752l-0.15487,0.01074l-0.14433,0.05324l-0.41128,0.06745l-0.29959,-0.00847l-0.2993,0.04908l-0.42432,-0.012l-0.15757,-0.03661l-0.16857,0.0097l-1.01067,-0.13953l-1.21534,-0.10909l-0.11839,-0.03589l-0.13068,0.00281l-1.19621,-0.21173l-0.03979,-0.01627l-0.04634,-0.00035l-1.53074,-0.32004l-0.29446,-0.13236l-0.32749,-0.08081l-1.71171,-0.85279l-1.24818,-0.6026l-0.03914,-0.03273l-0.0547,-0.01524l-0.23773,-0.12842l-0.00493,0.00027l-0.01273,-0.00982l-0.20801,-0.11237l-0.30493,-0.28289l-0.33677,-0.25952l-0.12768,-0.17139l-0.01155,-0.01069l0.00069,-0.00386l-0.13225,-0.17754l-0.0436,-0.12434l-0.0974,-0.10112l-0.46481,-0.90272l-0.0487,-0.29697l-0.11439,-0.28162l-0.07956,-1.12908l0.0381,-0.15701l-0.02758,-0.1541l0.24054,-1.75262l0.07133,-0.15595l0.00603,-0.16158l0.79234,-2.25102l0.03945,-0.05645l0.00733,-0.06227l0.30707,-0.703l0.12257,-0.15325l0.05994,-0.17143l0.20982,-0.30146l0.5363,-0.92282l0.06085,-0.06204l0.02585,-0.07395l0.51273,-0.73672l0.05638,-0.04977l0.02705,-0.06191l0.51443,-0.64314l0.06957,-0.1664l0.43593,-0.56098l0.08236,-0.06613l0.04564,-0.08397l1.07754,-1.15566l0.0702,-0.04768l0.04169,-0.0644l1.373,-1.28569l0.19401,-0.11517l0.1464,-0.15234l1.57585,-1.03957l0.00074,-0.00214l0.00962,-0.00466l0.22413,-0.14784l0.44829,-0.17958l0.42931,-0.20905l0.27293,-0.07225l0.01003,-0.00402l0.00257,0.00069l0.52403,-0.13873l0.15488,-0.01075l0.14432,-0.05324l1.43954,-0.23608l0.15378,0.00436l0.15019,-0.0393l1.45385,-0.09648l1.72669,-0.35575l0.06585,-0.00086l0.0615,-0.02269z" data-paper-data="{&quot;index&quot;:null}" fill="#000000" stroke="none" stroke-width="0.5" stroke-linecap="butt"/><path d="M242.18272,175.08088c0,0 -0.05903,-4.06322 1.24964,-6.55418c0.56638,-1.07812 1.58703,-2.58151 2.65065,-2.13828c3.64344,1.51827 2.52454,5.17849 2.52454,5.17849l-1.18979,3.655z" data-paper-data="{&quot;index&quot;:null}" fill="#ffffff" stroke="#000000" stroke-width="1.5" stroke-linecap="butt"/><path d="M241.69761,173.54578c0,0 -1.87883,0.79145 -2.85229,0.84056c-1.05208,0.05309 -3.24269,-0.53302 -3.24269,-0.53302l2.0418,-7.9466c0,0 1.58592,-1.05063 2.27294,-0.683c1.48537,0.79486 1.40398,2.23286 1.40398,2.23286l0.37625,6.08923z" data-paper-data="{&quot;index&quot;:null}" fill="#ffffff" stroke="#000000" stroke-width="1.5" stroke-linecap="butt"/><path d="M229.12892,174.22297c0,0 0.03193,-3.03917 0.65523,-4.26286c0.52502,-1.03077 1.54476,-2.86394 1.54476,-2.86394l2.47671,-0.40615l1.17873,7.18781z" data-paper-data="{&quot;index&quot;:null}" fill="#ffffff" stroke="#000000" stroke-width="1.5" stroke-linecap="butt"/><path d="M226.49201,175.59813c-1.63231,0.26768 -3.26574,-0.23175 -3.6983,-2.86948c-0.43255,-2.63769 0.14953,-5.02419 1.78182,-5.29186c1.6323,-0.26769 3.16935,0.81896 3.6019,3.45667c0.43256,2.6377 -0.05308,4.43698 -1.68541,4.70467z" data-paper-data="{&quot;index&quot;:null}" fill="#ffffff" stroke="#000000" stroke-width="1.5" stroke-linecap="butt"/><path d="M221.31289,171.92401c0.39056,2.38163 -0.32523,4.00547 -1.62071,4.21791c-1.29549,0.21243 -2.99457,-0.63446 -3.38512,-3.01608c-0.39057,-2.38164 0.6575,-4.91703 1.95296,-5.12948c1.29547,-0.21245 2.66229,1.54601 3.05284,3.92763z" data-paper-data="{&quot;index&quot;:null}" fill="#ffffff" stroke="#000000" stroke-width="1.5" stroke-linecap="butt"/><g data-paper-data="{&quot;index&quot;:null}" fill="#ffffff" stroke="#000000" stroke-width="1.5" stroke-linecap="butt"><path d="M236.58471,193.62034l-1.80525,-5.23425l5.28108,-0.86604c0,0 0.26964,3.21903 0.40069,4.0182c0.05191,0.31652 0.40095,0.87015 0.40095,0.87015z"/><path d="M232.8215,195.34354l-0.79934,-5.39922l2.93393,-0.48113l0.75627,5.66152z"/><path d="M232.81919,195.8544c0,0 -1.70384,0.54261 -2.47836,0.5952c-0.69176,0.04696 -1.94856,-0.29465 -1.94856,-0.29465l-2.07032,-5.27587l5.53255,-0.90728l0.96468,5.8826z"/><path d="M222.89257,195.76106c0.00872,-0.0502 0.00931,-0.10266 0.00061,-0.15569c-0.03491,-0.21281 -0.20858,-0.36869 -0.41485,-0.39234l-1.28106,-4.08911l5.02961,-0.8248l0.96468,5.88259z"/><path d="M217.85988,194.39382l-2.22001,-3.03919l5.02961,-0.8248l1.04183,4.25338z"/></g><path d="M249.49799,101.87438l-2.32368,12.41424l3.40005,20.73339l-7.04125,6.76516" data-paper-data="{&quot;index&quot;:null}" fill="none" stroke="#000000" stroke-width="1.5" stroke-linecap="round"/><path d="M242.25857,95.00557l4.84682,18.86281" data-paper-data="{&quot;index&quot;:null}" fill="none" stroke="#000000" stroke-width="1.5" stroke-linecap="round"/><path d="M203.14413,173.29795l2.87757,-9.96652" data-paper-data="{&quot;index&quot;:null}" fill="none" stroke="#000000" stroke-width="1.5" stroke-linecap="round"/><g><path d="M335.63342,201.86424c0.802,3.15183 0.35309,7.87201 -1.87598,11.14019c-1.11686,1.63752 -3.23897,3.05259 -4.75437,3.43819c-2.22737,0.56678 -4.4043,-0.28479 -6.23459,-2.04797c-1.90026,-1.83057 -3.42318,-4.62927 -4.03639,-7.03914c-1.20385,-4.73102 -12.49541,-46.04169 -7.95552,-47.1969c2.0877,-0.53123 11.4929,-18.81594 16.79094,-10.00654c6.22303,10.34745 7.41566,49.15673 8.06592,51.71217z" fill="#2d2f45" stroke="#000000" stroke-width="3" stroke-linecap="butt"/><g stroke-linecap="butt"><path d="M318.50705,152.38847c8.22522,-2.09296 16.01336,0.61304 17.39531,6.04404c1.38196,5.43099 -4.1656,11.53038 -12.39079,13.62335c-8.2252,2.09296 -16.01335,-0.61305 -17.39531,-6.04405c-1.38196,-5.43099 4.16561,-11.53037 12.39081,-13.62333z" fill="#485e84" stroke="#000000" stroke-width="3"/><path d="M328.97371,162.80972l5.93676,-4.69729c0,0 -0.44278,3.79443 -1.21779,5.19533c-1.66801,2.91246 -4.57353,4.41835 -4.57353,4.41835z" fill="#8fbbbe" stroke="none" stroke-width="0"/><path d="M322.80862,166.01315l2.8478,-1.33162c0,0 0.69301,1.85299 0.82028,2.53401c0.14901,0.79741 -0.00718,2.31496 -0.00718,2.31496l-3.5706,1.01203z" fill="#8fbbbe" stroke="none" stroke-width="0"/></g><g><path d="M299.13882,150.94082c-2.88729,-11.34685 4.552,-23.03385 15.89887,-25.92115c11.34686,-2.88729 21.42703,3.10351 24.31433,14.45038c2.88729,11.34685 -6.64165,22.12097 -17.98851,25.00826c-11.34686,2.88729 -19.33738,-2.19063 -22.22469,-13.53749z" fill="#343545" stroke="#000000" stroke-width="3" stroke-linecap="butt"/><path d="M319.28882,125.62508c0,0 15.94405,0.85049 18.47021,10.77812c1.43252,5.62966 0.17648,12.16199 -2.15671,17.30311c-1.66226,3.66278 -4.83705,6.77813 -8.84789,7.79872c-8.24426,2.09781 -12.11029,-0.82744 -14.63646,-10.75506c-1.26155,-4.95779 0.09168,-11.78557 2.58783,-16.75598c2.50221,-4.98252 4.58301,-8.36891 4.58301,-8.36891z" fill="#485e84" stroke="none" stroke-width="0" stroke-linecap="butt"/><path d="M338.75081,139.7554c0,0 -3.62006,9.21034 -16.62544,13.01776c-13.11196,3.83861 -22.00241,-2.31229 -22.00241,-2.31229" fill="none" stroke="#000000" stroke-width="1.6" stroke-linecap="round"/><path d="M338.6783,149.37258c0,0 -6.58734,6.3048 -14.58398,9.67594c-11.52423,4.85826 -17.20666,2.13295 -17.20666,2.13295" fill="none" stroke="#000000" stroke-width="1.6" stroke-linecap="round"/><path d="M334.71121,131.42451c0,0 -4.27393,8.13516 -17.07736,12.67958c-12.31461,4.37091 -17.12905,1.42379 -17.12905,1.42379" fill="none" stroke="#000000" stroke-width="1.6" stroke-linecap="round"/><path d="M300.43906,140.47972c0,0 6.25777,-4.34042 12.19486,-7.63375c7.82004,-4.33781 16.51414,-6.4544 16.51414,-6.4544" fill="none" stroke="#000000" stroke-width="1.6" stroke-linecap="round"/><path d="M316.62961,164.10184c0,0 -6.19067,-5.13122 -9.71621,-16.96512c-3.28992,-11.04302 0.97054,-17.40475 0.97054,-17.40475" fill="none" stroke="#000000" stroke-width="1.6" stroke-linecap="round"/><path d="M311.91003,128.10762c0,0 1.06615,5.76256 3.18626,11.80329c1.86444,5.31228 4.74178,10.76217 5.69081,13.76916c1.12719,3.5715 2.26975,9.74622 2.26975,9.74622" fill="none" stroke="#000000" stroke-width="1.6" stroke-linecap="round"/><path d="M316.8356,125.77439c0,0 8.11386,7.29994 10.31492,15.03236c3.45464,12.13636 1.03261,21.07513 1.03261,21.07513" fill="none" stroke="#000000" stroke-width="1.6" stroke-linecap="round"/><path d="M323.60088,125.0128c0,0 6.16449,5.05496 9.40482,12.44093c4.66622,10.6361 3.32621,17.31529 3.32621,17.31529" fill="none" stroke="#000000" stroke-width="1.6" stroke-linecap="round"/><path d="M333.40769,136.67556c-0.23755,-0.93354 0.22577,-1.85722 1.03483,-2.0631c0.80906,-0.20587 1.6575,0.38402 1.89505,1.31757c0.23755,0.93354 -0.22576,1.85722 -1.03482,2.06309c-0.80906,0.20587 -1.65751,-0.38402 -1.89506,-1.31756z" fill="#8fbbbe" stroke="none" stroke-width="0" stroke-linecap="butt"/><path d="M331.00279,131.46824c-0.11878,-0.46678 0.16334,-0.94145 0.6301,-1.06021c0.46677,-0.11877 0.94146,0.16334 1.06022,0.6301c0.11878,0.46678 -0.16334,0.94145 -0.63009,1.06021c-0.46677,0.11877 -0.94146,-0.16335 -1.06022,-0.63011z" fill="#8fbbbe" stroke="none" stroke-width="0" stroke-linecap="butt"/></g><path d="M321.15974,202.52962c-0.76736,-5.19225 -2.06762,-19.84974 -3.85925,-25.99483c-0.34952,-1.19881 11.71837,-2.12404 11.78359,-2.17018c2.97497,11.79947 3.83431,16.86737 3.10007,28.00696c-0.45852,6.95649 -10.62354,2.87051 -11.02441,0.15805z" fill="#494c70" stroke="none" stroke-width="0" stroke-linecap="butt"/></g><path d="M203.84539,169.58649l-1.80361,-8.33569" data-paper-data="{&quot;index&quot;:null}" fill="none" stroke="#000000" stroke-width="1.5" stroke-linecap="round"/><path d="M211.64051,173.63094l-0.47425,-9.99228" data-paper-data="{&quot;index&quot;:null}" fill="none" stroke="#000000" stroke-width="1.5" stroke-linecap="round"/><path d="M185.04474,166.77141l3.63919,-0.8845" data-paper-data="{&quot;index&quot;:null}" fill="none" stroke="#000000" stroke-width="1.5" stroke-linecap="round"/><path d="M266.5309,161.32074l-6.71883,-1.91921" data-paper-data="{&quot;index&quot;:null}" fill="none" stroke="#000000" stroke-width="1.5" stroke-linecap="round"/><path d="M262.15186,169.23175l-0.69738,2.84768" data-paper-data="{&quot;index&quot;:null}" fill="none" stroke="#000000" stroke-width="1.5" stroke-linecap="round"/><path d="M304.90798,112.73429c-1.65685,0 -3,-1.34315 -3,-3c0,-1.65685 1.34315,-3 3,-3c1.65685,0 3,1.34315 3,3c0,1.65685 -1.34315,3 -3,3z" data-paper-data="{&quot;index&quot;:null}" fill="#ffffff" stroke="none" stroke-width="0.5" stroke-linecap="butt"/><path d="M147.90798,147.23429c-0.69036,0 -1.25,-0.55964 -1.25,-1.25c0,-0.69036 0.55964,-1.25 1.25,-1.25c0.69036,0 1.25,0.55964 1.25,1.25c0,0.69036 -0.55964,1.25 -1.25,1.25z" data-paper-data="{&quot;index&quot;:null}" fill="#ffffff" stroke="none" stroke-width="0.5" stroke-linecap="butt"/><path d="M167.65798,180.73429c-1.24264,0 -2.25,-1.00736 -2.25,-2.25c0,-1.24264 1.00736,-2.25 2.25,-2.25c1.24264,0 2.25,1.00736 2.25,2.25c0,1.24264 -1.00736,2.25 -2.25,2.25z" data-paper-data="{&quot;index&quot;:null}" fill="#ffffff" stroke="none" stroke-width="0.5" stroke-linecap="butt"/><path d="M316.65798,232.23429c-0.55228,0 -1,-0.44772 -1,-1c0,-0.55228 0.44772,-1 1,-1c0.55228,0 1,0.44772 1,1c0,0.55228 -0.44772,1 -1,1z" data-paper-data="{&quot;index&quot;:null}" fill="#ffffff" stroke="none" stroke-width="0.5" stroke-linecap="butt"/><path d="M290.80359,145.79192c-0.9665,0 -1.75,-0.7835 -1.75,-1.75c0,-0.9665 0.7835,-1.75 1.75,-1.75c0.9665,0 1.75,0.7835 1.75,1.75c0,0.9665 -0.7835,1.75 -1.75,1.75z" data-paper-data="{&quot;index&quot;:null}" fill="#ffffff" stroke="none" stroke-width="0.5" stroke-linecap="butt"/><path d="M278.41229,114.3354c-1.24264,0 -2.25,-1.00736 -2.25,-2.25c0,-1.24264 1.00736,-2.25 2.25,-2.25c1.24264,0 2.25,1.00736 2.25,2.25c0,1.24264 -1.00736,2.25 -2.25,2.25z" data-paper-data="{&quot;index&quot;:null}" fill="#ffffff" stroke="none" stroke-width="0.5" stroke-linecap="butt"/><path d="M347.96034,177.61253c0,0 0.04395,2.2704 -0.45551,3.53828c-0.78764,1.99939 -3.81333,7.29805 -3.81333,7.29805c0,0 -8.65932,-0.79194 -10.56455,-2.5296c-1.85152,-1.6887 -1.17006,-8.98577 -1.17006,-8.98577c0,0 2.94363,-3.04202 7.81987,-2.90652c3.20915,0.08916 7.42131,1.3631 8.1836,3.58557z" data-paper-data="{&quot;index&quot;:null}" fill="#ffffff" stroke="#000000" stroke-width="3.5" stroke-linecap="butt"/><path d="M327.18079,194.6114c2.0444,-0.99386 4.51572,0.55223 7.00115,1.97696c2.48154,1.42249 4.97852,2.72083 5.34844,5.29528c0.59693,4.15439 -3.75641,6.97292 -7.91479,6.65243c-3.35339,-0.25843 -6.50187,-2.8608 -7.42862,-6.11432c-0.23397,-0.82139 -1.17735,-5.7826 2.99382,-7.81037z" data-paper-data="{&quot;index&quot;:null}" fill="#ffffff" stroke="#000000" stroke-width="3.5" stroke-linecap="butt"/><path d="M338.63791,175.22315l5.54099,7.91035" data-paper-data="{&quot;index&quot;:null}" fill="none" stroke="none" stroke-width="0" stroke-linecap="round"/><g data-paper-data="{&quot;index&quot;:null}" stroke="#000000"><path d="M335.25007,163.82593c0,0 -11.00841,4.82693 -16.28692,5.09123c-7.81865,0.39149 -5.93391,-3.29886 -6.05503,-6.48763c-0.1211,-3.18876 15.12861,-10.69223 15.12861,-10.69223c0,0 3.26174,1.165 5.68651,5.33646c1.8712,3.21913 1.52686,6.75217 1.52686,6.75217z" fill="#ffffff" stroke-width="3.5" stroke-linecap="butt"/><path d="M298.6244,160.07676c0.23058,6.07078 -4.84447,13.28878 -8.89091,13.4914c-4.04645,0.20261 -4.3295,-6.97298 -4.56007,-13.04376c-0.23058,-6.07078 3.78075,-7.47486 3.78075,-7.47486c0,0 8.13245,-2.53764 10.75355,0.02918c0.89602,0.87747 -1.14209,5.45143 -1.08335,6.99805z" fill="#ffffff" stroke-width="3.5" stroke-linecap="butt"/><path d="M286.42082,161.42202c0,0 3.09245,-2.66242 4.90404,-2.65622c1.70047,0.00583 5.65329,2.69236 5.65329,2.69236" fill="none" stroke-width="3.5" stroke-linecap="round"/><path d="M322.80543,154.63017c0,0 3.607,2.4663 4.72344,4.11342c1.15319,1.70135 2.08895,5.93726 2.08895,5.93726" fill="none" stroke-width="3.5" stroke-linecap="round"/><path d="M313.67727,163.95379l2.64622,1.36656l0.09471,2.4937" fill="none" stroke-width="1.5" stroke-linecap="round"/><path d="M321.05851,158.08759l-0.68047,3.28206l-4.3224,3.96411" fill="none" stroke-width="1.5" stroke-linecap="round"/><path d="M323.60828,161.62431l-3.1504,-0.5085" fill="none" stroke-width="1.5" stroke-linecap="round"/></g><path d="M64.22846,355.77155v-351.54309h351.54309v351.54309z" data-paper-data="{&quot;index&quot;:null}" fill="none" stroke="none" stroke-width="NaN" stroke-linecap="butt"/></g></g></svg>