<svg version="1.1" xmlns="http://www.w3.org/2000/svg" xmlns:xlink="http://www.w3.org/1999/xlink" width="189.26654" height="221.55319" viewBox="0,0,189.26654,221.55319"><g transform="translate(-145.36673,-69.22342)"><g data-paper-data="{&quot;isPaintingLayer&quot;:true}" fill-rule="nonzero" stroke-linejoin="miter" stroke-miterlimit="10" stroke-dasharray="" stroke-dashoffset="0" style="mix-blend-mode: normal"><path d="M145.36673,290.7766v-221.55318h189.26654v221.55319z" fill="none" stroke="none" stroke-width="NaN" stroke-linecap="butt"/><g data-paper-data="{&quot;origRot&quot;:0}" stroke="#000000" stroke-linecap="round"><path d="M229.19007,222.10091c0,0 -2.58714,-4.11923 -1.17338,-4.87182c4.17184,-2.22075 7.32824,-5.84167 12.05355,-6.51948c1.96219,-0.28147 4.811,3.03852 4.811,3.03852l21.10295,26.29986c0,0 2.21617,2.68857 3.43238,4.2761c1.30033,1.69734 1.98972,4.94111 0.12817,6.06778c-6.83498,4.13684 -10.29305,7.91395 -15.24126,9.45373c-1.80272,0.56096 -3.75452,1.04351 -5.27357,-0.03833c-1.98431,-1.41316 -3.68596,-5.59121 -3.68596,-5.59121z" data-paper-data="{&quot;origPos&quot;:null}" fill="#ff0000" stroke-width="3"/><path d="M271.22477,247.19992c0,0 -3.95468,5.28574 -8.54611,7.88046c-3.52271,1.99076 -11.70067,5.42192 -11.70067,5.42192c0,0 -2.6166,-1.55282 -3.55345,-2.88378c-0.98691,-1.40208 -1.37595,-4.1193 -1.37595,-4.1193l20.61242,-12.5756z" data-paper-data="{&quot;origPos&quot;:null}" fill="#976e57" stroke-width="2"/><path d="M229.43526,222.33537c0,0 -2.58714,-4.11923 -1.17337,-4.87182c4.17183,-2.22075 7.32824,-5.84167 12.05357,-6.51947c1.96219,-0.28147 4.81099,3.03851 4.81099,3.03851l21.10295,26.29986c0,0 2.21621,2.68857 3.4324,4.27609c1.30033,1.69734 1.9897,4.9411 0.12817,6.06778c-6.83498,4.13684 -10.29305,7.91396 -15.24126,9.45374c-1.80272,0.56096 -3.75452,1.0435 -5.27356,-0.03834c-1.98431,-1.41316 -3.68597,-5.59121 -3.68597,-5.59121z" data-paper-data="{&quot;origPos&quot;:null}" fill="#474747" stroke-width="3"/></g><g data-paper-data="{&quot;index&quot;:null,&quot;origRot&quot;:0}" stroke="#000000" stroke-linecap="round"><path d="M220.44176,252.80478c0,0 0.26256,4.47474 -0.93139,6.54314c-0.91402,1.58346 -2.90059,1.91284 -4.78541,2.11212c-5.17357,0.54697 -9.96064,-1.53034 -17.97867,-2.60502c-2.18375,-0.2927 -2.96288,-3.51796 -2.51499,-5.57572c0.41892,-1.92461 1.27086,-5.24572 1.27086,-5.24572l7.80936,-32.2605c0,0 1.15414,-4.14524 3.06295,-4.66182c4.59677,-1.24405 9.04138,0.80979 13.80335,1.18874c1.61376,0.12842 1.04454,4.89837 1.04454,4.89837z" data-paper-data="{&quot;origPos&quot;:null}" fill="#ff0000" stroke-width="3"/><path d="M195.26572,249.09758l24.22354,3.33207c0,0 0.82425,2.6275 0.53369,4.29294c-0.27581,1.58097 -1.98497,4.02559 -1.98497,4.02559c0,0 -8.93488,0.09687 -13.00601,-0.32831c-5.30624,-0.55419 -11.19982,-3.80957 -11.19982,-3.80957z" data-paper-data="{&quot;origPos&quot;:null}" fill="#976e57" stroke-width="2.5"/><path d="M220.3202,253.11487c0,0 0.26256,4.47474 -0.93139,6.54314c-0.91402,1.58346 -2.90059,1.91285 -4.78541,2.11213c-5.17357,0.54697 -9.96063,-1.53033 -17.97867,-2.60502c-2.18375,-0.2927 -2.96288,-3.51796 -2.51499,-5.57571c0.41892,-1.92461 1.27086,-5.24572 1.27086,-5.24572l7.80936,-32.2605c0,0 1.15413,-4.14524 3.06295,-4.66182c4.59677,-1.24405 9.0414,0.80979 13.80336,1.18874c1.61376,0.12842 1.04453,4.89837 1.04453,4.89837c0,0 -0.19738,9.00336 -0.32371,14.76599c-0.17831,8.13325 -0.4569,20.84043 -0.4569,20.84043z" data-paper-data="{&quot;origPos&quot;:null}" fill="#474747" stroke-width="1.5"/></g><g><g><g data-paper-data="{&quot;origRot&quot;:0}" stroke="#000000" stroke-width="3" stroke-linecap="round"><path d="M269.31843,184.68621c1.6548,1.59109 -5.1981,6.24257 -5.1981,6.24257c0,0 -17.76345,12.79842 -26.12603,18.87786c-3.91126,2.04796 -30.94788,-22.54542 -31.14745,-27.84574c-0.08895,-2.36272 4.9812,-10.08546 6.91453,-10.13668c3.67992,-0.09749 17.88751,7.17158 17.88751,7.17158l-2.67712,2.84647l7.7557,-6.78907c0,0 8.29308,-8.67266 12.82446,-11.34481c2.51313,-1.48198 19.76649,20.97781 19.76649,20.97781z" data-paper-data="{&quot;origPos&quot;:null}" fill="#582700"/><path d="M262.09586,190.58059l-19.39537,-20.32941" fill="none"/><path d="M239.83771,173.08532l19.59855,20.15337" data-paper-data="{&quot;origPos&quot;:null}" fill="none"/></g><path d="M262.37167,191.11162l-1.9833,1.74022l-19.97593,-20.676l1.9833,-1.74022z" fill="#ffffff" stroke="none" stroke-width="0" stroke-linecap="butt"/><path d="M237.85747,210.09088l-9.23921,-5.04129l-16.3574,-15.44741l-4.34383,-6.56595l0.09602,-4.68938l5.01169,-4.92112l1.00234,-0.98423l16.21534,6.39673l-1.83256,2.12765l1.37705,1.27361l9.37035,-8.21635l20.32655,19.75554l-20.79615,15.16876z" fill="#ffcb66" stroke="#000000" stroke-width="0.5" stroke-linecap="round"/></g><g fill="none" stroke="none" stroke-width="1" stroke-linecap="butt" font-family="sans-serif" font-weight="normal" font-size="12" text-anchor="start"/></g><g><g><path d="M198.24463,176.34542c0,0 0.25703,-14.53749 2.43835,-15.33357c6.54392,-2.38825 22.07875,-3.19217 32.38556,-4.34722c1.59333,-0.17856 4.62779,13.10803 4.62779,13.10803l5.60932,30.21064c0,0 2.08668,14.82718 0.34852,15.02197c-15.47284,1.73398 -33.50352,4.6131 -40.50316,4.5508c-2.3332,-0.02076 -3.40141,-15.7674 -3.40141,-15.7674z" data-paper-data="{&quot;origPos&quot;:null}" fill="#ffcb66" stroke="#000000" stroke-width="3.5" stroke-linecap="round"/><path d="M218.88866,182.28722c-1.34612,0.15085 -1.65097,-2.31962 -1.65097,-2.31962c-0.63228,-5.12395 -1.46779,-11.89488 -2.10007,-17.01883c0,0 -0.30485,-2.47048 1.04128,-2.62133c1.34612,-0.15085 1.65097,2.31962 1.65097,2.31962c0.63228,5.12395 1.26455,10.2479 1.89683,15.37185l0.20324,1.64698c0,0 0.30485,2.47048 -1.04128,2.62133z" fill="#ffffff" stroke="none" stroke-width="0.5" stroke-linecap="butt"/><path d="M232.17068,187.17573c-1.34612,0.15085 -1.72909,-2.95276 -1.72909,-2.95276c-0.79432,-6.43712 -1.84395,-14.94332 -2.63827,-21.38045c0,0 -0.38298,-3.10361 0.96314,-3.25447c1.34612,-0.15085 1.72909,2.95276 1.72909,2.95276c0.79432,6.43712 1.58864,12.87425 2.38296,19.31138l0.25531,2.06907c0,0 0.38298,3.10361 -0.96314,3.25447z" fill="#ffffff" stroke="none" stroke-width="0.5" stroke-linecap="butt"/></g><g stroke="#000000" stroke-width="0.5" stroke-linecap="butt"><path d="M236.28896,196.75747c0.82818,6.71148 -3.30999,12.69121 -9.24285,13.35608c-5.93286,0.66487 -11.41376,-4.23688 -12.24193,-10.94837c-0.82818,-6.71148 3.30999,-12.69121 9.24285,-13.35608c5.93286,-0.66487 11.41376,4.23688 12.24193,10.94837z" fill="#ffa924"/><path d="M227.35273,186.39337c0.00182,0.01108 0.00344,0.02241 0.00487,0.03398c0.07656,0.62044 -0.57449,0.69341 -0.57449,0.69341l-0.1302,0.01459c-0.4757,0.05331 -2.64077,0.32403 -2.98238,0.22607c-0.28517,-0.08178 -0.27886,-0.51558 -0.50022,-0.70543c-0.21266,-0.18239 -0.49503,-0.27826 -0.76175,-0.37691c-0.42414,-0.15688 -0.96903,-0.09253 -1.30314,-0.38682c-0.30863,-0.27186 -0.39818,-0.7325 -0.42161,-1.13239c-0.11008,-1.87808 1.08821,-2.03172 2.65989,-2.0374c0.4799,0.04577 0.96848,0.03934 1.4397,0.1373c0.2073,0.04309 0.35417,0.25643 0.56496,0.27944c0.14983,0.01637 0.27098,-0.12884 0.41468,-0.17247c0.00613,-0.00187 1.79214,-0.45268 1.80984,-0.45714c1.20757,-0.30378 2.51493,-0.49945 3.76488,-0.55268c0.79647,-0.03392 2.60388,-0.04745 3.1524,0.65563c0.78116,1.00128 -1.01442,1.93926 -1.4636,2.17597c-1.3293,0.70052 -2.56297,0.49593 -3.9657,0.81319c-0.47781,0.10807 -1.21648,0.51909 -1.70812,0.79166z" fill="#1cc735"/></g></g><path d="M230.34124,161.5846c-12.61014,-1.29697 -24.83446,-2.59059 -29.70311,-4.14993c-4.44964,-1.42514 -5.48454,-4.32159 -5.48454,-4.32159c0,0 -1.53077,-2.62352 -1.43165,-4.15562c0.29738,-4.5963 1.79095,-17.66941 4.17265,-28.81765c0.07949,-0.37207 0.1383,-0.57843 0.24091,-0.94533c0.3078,-1.10069 1.70053,-5.35076 1.70053,-5.35076c0,0 3.5286,-1.27308 5.39261,-1.53955c5.59201,-0.79945 19.17681,2.23402 33.62484,4.28461c1.30953,0.18586 3.3547,2.10983 3.3547,2.10983c0,0 1.21834,3.29713 0.92298,5.26059c-1.90946,12.69406 -4.07118,26.73246 -4.78644,29.91701c-0.23841,1.06152 -2.67079,5.00573 -2.67079,5.00573z" fill="#582600" stroke="#000000" stroke-width="2.5" stroke-linecap="round"/><g><g data-paper-data="{&quot;index&quot;:null}"><path d="M246.40583,165.19653c1.92516,-1.27432 3.24057,-6.73745 4.48241,-5.0336c0.63255,0.86789 11.8641,16.93456 11.86333,18.09545c-0.00077,1.11815 -0.43497,2.11029 -1.3795,2.73551c-0.64263,0.42536 -1.84691,0.78375 -2.79132,0.73027c-1.88484,-0.10671 -17.31014,-13.24695 -18.13746,-14.38206c-1.24185,-1.70387 4.03737,-0.87125 5.96252,-2.14556z" fill="#e99b00" stroke="#000000" stroke-width="1.5" stroke-linecap="butt"/><g stroke-linecap="butt"><path d="M242.33559,159.56769c3.48795,-2.30878 7.61224,-2.40119 9.21188,-0.20642c1.59965,2.19475 0.06892,5.84559 -3.41902,8.15438c-3.48795,2.30877 -7.61227,2.40119 -9.21191,0.20642c-1.59965,-2.19475 -0.06891,-5.84559 3.41904,-8.15435z" fill="#ffb727" stroke="#000000" stroke-width="1.5"/><path d="M244.65332,168.18259c0,0 -1.52183,0.57606 -3.16957,0.26683c-0.78359,-0.15857 -2.363,-1.18469 -2.363,-1.18469l3.72197,-0.67072z" fill="#ffd683" stroke="none" stroke-width="0"/><path d="M247.75733,166.82209l-1.55323,0.96992c0,0 -0.62481,-0.41793 -0.87736,-0.72075c-0.21569,-0.25862 -0.68884,-1.08724 -0.68884,-1.08724l1.43705,-0.6097z" fill="#ffd683" stroke="none" stroke-width="0"/></g><g><path d="M245.98883,164.39327c-4.81172,3.185 -12.00834,3.25084 -15.35046,-1.33461c-3.34213,-4.58549 -2.30141,-10.08829 2.51026,-13.27327c4.81172,-3.185 11.66825,-2.2129 15.01037,2.37256c3.34213,4.58549 2.64151,9.05032 -2.17016,12.2353z" fill="#e99b00" stroke="#000000" stroke-width="1.5" stroke-linecap="butt"/><path d="M231.96329,151.44843c0,0 1.9622,0.30862 4.66588,0.96417c2.69711,0.65395 5.72152,2.29993 7.18179,4.30344c2.92411,4.01194 2.76219,6.31849 -0.73382,8.63263c-1.70083,1.12582 -3.91929,1.29595 -5.84873,0.75024c-2.70819,-0.76596 -5.58907,-2.35466 -7.24723,-4.62971c-2.92411,-4.01194 1.98212,-10.02076 1.98212,-10.02076z" fill="#ffb727" stroke="none" stroke-width="0" stroke-linecap="butt"/><path d="M247.55809,152.98118c0,0 -0.51346,4.48648 -6.26346,8.01002c-5.70327,3.49491 -10.37145,1.92098 -10.37145,1.92098" fill="none" stroke="#000000" stroke-width="0.8" stroke-linecap="round"/><path d="M249.46883,158.12982c0,0 -0.83305,2.89838 -6.44786,5.53143c-3.89612,1.82707 -8.43901,2.22984 -8.43901,2.22984" fill="none" stroke="#000000" stroke-width="0.75" stroke-linecap="round"/><path d="M245.64496,150.93955c0,0 -0.46459,2.65505 -6.15436,5.72506c-5.91562,3.19188 -10.3918,2.18942 -10.3918,2.18942" fill="none" stroke="#000000" stroke-width="0.8" stroke-linecap="round"/><path d="M229.17413,155.36119c0,0 3.6506,-2.47029 7.85419,-3.93168c3.19142,-1.10952 7.80547,-1.50571 7.80547,-1.50571" fill="none" stroke="#000000" stroke-width="0.8" stroke-linecap="round"/><path d="M237.25509,148.66194c0,0 3.80145,0.45315 6.89676,5.08872c3.31695,4.96753 3.22665,8.80073 3.22665,8.80073" fill="none" stroke="#000000" stroke-width="0.8" stroke-linecap="round"/><path d="M245.0158,164.65542c0,0 -1.95925,-2.34092 -2.93963,-3.8629c-0.82541,-1.28141 -1.94192,-4.02071 -3.3385,-6.35217c-1.58811,-2.65117 -3.41664,-4.83577 -3.41664,-4.83577" fill="none" stroke="#000000" stroke-width="0.8" stroke-linecap="round"/><path d="M242.75125,166.01936c0,0 -4.17274,-1.9206 -7.62726,-6.95713c-2.20098,-3.20893 -2.29981,-8.41248 -2.29981,-8.41248" fill="none" stroke="#000000" stroke-width="0.8" stroke-linecap="round"/><path d="M237.391,166.73207c0,0 -2.9639,-1.60432 -5.45413,-6.60847c-1.72926,-3.47502 -1.61871,-7.27493 -1.61871,-7.27493" fill="none" stroke="#000000" stroke-width="0.8" stroke-linecap="round"/><path d="M231.38759,161.11955c-0.34308,0.2271 -0.84412,0.10539 -1.11908,-0.2719c-0.27497,-0.37725 -0.21973,-0.86718 0.12337,-1.0943c0.34308,-0.2271 0.84413,-0.10539 1.11908,0.27189c0.27497,0.37725 0.21973,0.8672 -0.12336,1.0943z" fill="#ffd683" stroke="none" stroke-width="0" stroke-linecap="butt"/><path d="M230.22177,158.11072c-0.19794,0.13102 -0.46984,0.08432 -0.60732,-0.10431c-0.13748,-0.18862 -0.08848,-0.44775 0.10945,-0.57876c0.19793,-0.13101 0.46984,-0.0843 0.60732,0.10431c0.13748,0.18862 0.08848,0.44775 -0.10946,0.57877z" fill="#ffd683" stroke="none" stroke-width="0" stroke-linecap="butt"/></g></g><path d="M243.76875,168.8665c6.3324,7.81732 6.82818,9.57634 6.82818,9.57634c0.73764,1.02022 -0.37145,1.60501 -0.37145,1.60501c0,0 -2.00558,1.38448 -3.28927,2.27061c-0.84291,0.58188 -2.15985,1.49099 -2.15985,1.49099c0,0 -0.92617,0.44118 -1.31636,-0.12403c-2.34732,-3.40038 -4.78039,-6.53016 -5.78856,-8.34507c-0.33605,-0.60497 0.03458,-1.77313 0.03458,-1.77313l3.71814,-3.23428c0,0 1.44373,-1.41008 2.34459,-1.4664z" fill="#582700" stroke="#000000" stroke-width="3" stroke-linecap="round"/><path d="M254.45167,163.04433c12.70281,16.43646 13.8332,20.02253 13.8332,20.02253c1.49269,2.1343 -0.50084,3.17241 -0.50084,3.17241c0,0 -3.5661,2.53271 -5.84855,4.15376c-1.49878,1.06445 -3.8404,2.72754 -3.8404,2.72754c0,0 -1.67028,0.77235 -2.46286,-0.40784c-4.76825,-7.10025 -9.66392,-13.66852 -11.7539,-17.42865c-0.69665,-1.25337 -0.14567,-3.55021 -0.14567,-3.55021l6.5321,-6.03358c0,0 2.51809,-2.65198 4.18689,-2.65592z" fill="#582700" stroke="#000000" stroke-width="3" stroke-linecap="round"/></g><path d="M233.66565,141.35946c0.51296,-3.4101 1.35853,-6.11584 1.88866,-6.04341c0.53012,0.07241 0.54405,2.89557 0.0311,6.30565c-0.51296,3.4101 -1.35853,6.11585 -1.88866,6.04342c-0.53012,-0.07241 -0.54405,-2.89557 -0.0311,-6.30566z" fill="none" stroke="#000000" stroke-width="2.5" stroke-linecap="butt"/><path d="M226.80607,141.12698c0.52245,-3.47326 1.26832,-6.24486 1.66589,-6.19054c0.39759,0.05432 0.29637,2.91398 -0.22608,6.38723c-0.52245,3.47326 -1.26828,6.24484 -1.66587,6.19053c-0.39759,-0.05432 -0.29638,-2.91396 0.22606,-6.38722z" fill="none" stroke="#000000" stroke-width="2.5" stroke-linecap="butt"/><path d="M198.61243,113.74615l1.97536,-12.86298l45.47646,6.34254l-1.97536,12.86298z" fill="#000000" stroke="none" stroke-width="0" stroke-linecap="butt"/><path d="M231.65543,133.97055c-2.11087,0.97337 -8.16359,3.29626 -9.49498,1.10087c-1.78425,-2.94213 7.04938,-6.73874 8.49095,-6.26037c0.27696,-0.04925 0.56704,-0.05649 0.86139,-0.01543c1.43356,0.19994 2.42561,1.46951 2.21581,2.83567c0.46462,0.71929 -1.49179,2.07119 -2.07317,2.33927z" fill="#582600" stroke="none" stroke-width="0.5" stroke-linecap="butt"/><g data-paper-data="{&quot;index&quot;:null}"><g data-paper-data="{&quot;origRot&quot;:0,&quot;index&quot;:null}" stroke="#000000" stroke-width="3" stroke-linecap="round"><path d="M189.48748,209.18707c0,0 -25.2215,-7.75507 -24.59893,-10.24071c1.12247,-4.48178 6.59529,-13.76304 6.59529,-13.76304l15.93207,-25.99015c0,0 3.10283,-4.8905 4.31191,-4.84842c3.62719,0.12622 9.35891,3.73053 15.80925,6.20252c1.07216,0.4109 -0.69212,6.09184 -0.69212,6.09184c0,0 -3.18976,8.82146 -5.23135,14.46765c-3.10914,8.59858 -7.96679,22.03279 -7.96679,22.03279c0,0 -2.24921,6.95201 -4.15934,6.04756z" data-paper-data="{&quot;origPos&quot;:null}" fill="#582600"/><path d="M168.70247,192.31951l23.90703,10.12107" fill="none"/><path d="M194.25324,199.49925l-23.80588,-10.33805" data-paper-data="{&quot;origPos&quot;:null}" fill="none"/></g><path d="M170.48404,188.42918l20.19344,-32.92775l1.51929,-0.10595l15.14761,6.46534l-12.70799,36.82324z" fill="#ffcb66" stroke="#000000" stroke-width="1" stroke-linecap="round"/><path d="M168.74427,192.15761l1.00048,-2.12721l24.4184,10.42991l-1.00048,2.12721z" fill="#ffffff" stroke="none" stroke-width="0" stroke-linecap="butt"/></g><g data-paper-data="{&quot;index&quot;:null}" stroke="#000000" stroke-width="1" stroke-linecap="butt"><g data-paper-data="{&quot;index&quot;:null}" fill="#000000"><path d="M208.79009,147.91899c9.15103,2.79841 4.81584,5.57638 4.81584,5.57638l-12.19332,-3.77391c0,0 -2.39405,-4.69458 7.37748,-1.80247z"/></g><g data-paper-data="{&quot;index&quot;:null}" fill="#ffffff"><path d="M208.79008,147.91898c1.87185,0.57242 3.17942,1.14398 4.07525,1.69108c0.01605,0.0098 -0.92161,0.56898 -1.17923,1.30326c-0.31455,0.89651 0.03713,1.99933 0.03428,1.99845c-2.05861,-0.63715 -10.30778,-3.19032 -10.30778,-3.19032c0,0 -2.39405,-4.69458 7.37748,-1.80247z"/></g></g></g></g></svg>