<svg version="1.1" xmlns="http://www.w3.org/2000/svg" xmlns:xlink="http://www.w3.org/1999/xlink" width="210" height="221" viewBox="0,0,210,221"><g transform="translate(-140,-90)"><g data-paper-data="{&quot;isPaintingLayer&quot;:true}" fill-rule="nonzero" stroke-linejoin="miter" stroke-miterlimit="10" stroke-dasharray="" stroke-dashoffset="0" style="mix-blend-mode: normal"><g data-paper-data="{&quot;index&quot;:null}"><g data-paper-data="{&quot;origRot&quot;:0,&quot;index&quot;:null}" stroke="#000000" stroke-width="3" stroke-linecap="round"><path d="M224.1184,250.06602c0,0 -23.85985,-8.28029 -23.21221,-10.75232c1.16774,-4.45723 6.58549,-13.62189 6.58549,-13.62189l15.7493,-25.65096c0,0 3.06348,-4.82448 4.21452,-4.75715c3.45307,0.202 8.83495,3.9252 14.92634,6.5314c1.0125,0.43322 -0.79301,6.07591 -0.79301,6.07591c0,0 -3.23249,8.75269 -5.30145,14.35484c-3.15083,8.53153 -8.07356,21.86099 -8.07356,21.86099c0,0 -2.29542,6.90333 -4.09545,5.95919z" data-paper-data="{&quot;origPos&quot;:null}" fill="#582700"/><path d="M204.68526,232.76816l22.5556,10.61825" fill="none"/><path d="M206.41696,229.64704l22.45447,10.83304" data-paper-data="{&quot;origPos&quot;:null}" fill="none"/></g><path d="M206.46797,228.916l19.96147,-32.49783l1.44983,-0.07417l14.29019,6.78033l-12.9151,36.54882z" fill="#616161" stroke="#000000" stroke-width="1" stroke-linecap="round"/><path d="M204.72862,232.60718l0.99985,-2.10579l23.03604,10.93769l-0.99983,2.10578z" fill="#ffffff" stroke="none" stroke-width="0" stroke-linecap="butt"/></g><path d="M140,311v-221h210v221z" fill="none" stroke="none" stroke-width="0" stroke-linecap="butt"/><g data-paper-data="{&quot;index&quot;:null}" stroke="#000000" stroke-linecap="round"><path d="M273.73866,200.4333c0,0 16.65675,-1.03125 16.47697,5.59758c-0.48794,17.99199 -29.24523,11.08642 -29.24523,11.08642z" data-paper-data="{&quot;origPos&quot;:null}" fill="#7c7c7c" stroke-width="2"/><path d="M272.92997,201.91628c0,0 12.07528,-0.15208 12.70528,1.81831c0.19869,0.62145 -16.14554,1.96657 -16.14554,1.96657z" data-paper-data="{&quot;origPos&quot;:null}" fill="#0a0a0a" stroke-width="1"/></g><g><path d="M269.12228,245.19304c0,0 -1.49584,15.71557 -3.77259,15.64884c-6.83031,-0.20015 -24.33729,-3.75715 -39.38193,-6.0724c-1.69007,-0.26009 0.77286,-15.01748 0.77286,-15.01748l6.34276,-30.01751c0,0 3.34314,-13.18037 4.89238,-12.94196c10.02158,1.54224 25.15349,2.92923 31.46863,5.56426c2.10505,0.87835 1.93688,15.43376 1.93688,15.43376z" data-paper-data="{&quot;origPos&quot;:null}" fill="#7c7c7c" stroke="#000000" stroke-width="3.5" stroke-linecap="round"/><path d="M239.73787,220.88022c-1.30885,-0.20143 -0.94028,-2.66187 -0.94028,-2.66187c0.76448,-5.10317 1.77468,-11.84662 2.53914,-16.94978c0,0 0.36859,-2.46045 1.67744,-2.25903c1.30885,0.20143 0.94027,2.66187 0.94027,2.66187c-0.76448,5.10317 -1.52894,10.20632 -2.29341,15.30949l-0.24573,1.6403c0,0 -0.36858,2.46045 -1.67744,2.25903z" fill="#ffffff" stroke="none" stroke-width="0.5" stroke-linecap="butt"/><path d="M250.95918,229.01598c-1.30885,-0.20143 -0.84582,-3.29245 -0.84582,-3.29245c0.9604,-6.41101 2.22949,-14.8827 3.18988,-21.29371c0,0 0.46305,-3.09102 1.77191,-2.88959c1.30885,0.20143 0.84582,3.29245 0.84582,3.29245c-0.9604,6.41101 -1.92079,12.82201 -2.88119,19.23302l-0.3087,2.06068c0,0 -0.46304,3.09103 -1.7719,2.8896z" fill="#ffffff" stroke="none" stroke-width="0.5" stroke-linecap="butt"/></g><g fill="none" stroke="#b9b9b9" stroke-width="3"><path d="M266.47028,207.39882c-0.62091,-1.4789 0.49734,-2.53078 1.92846,-3.52952c1.43113,-0.99871 2.73205,-1.16129 3.25414,-0.0872c1.10696,2.27739 -0.55502,2.99227 -1.67565,3.77428c-1.43114,0.99873 -2.63008,1.93103 -3.50695,-0.15756z" stroke-linecap="butt"/><path d="M264.53878,209.03542l3.02128,-2.05578" stroke-linecap="round"/><path d="M260.85081,209.06549c1.43113,-0.99871 2.73205,-1.1613 3.25413,-0.08721c1.10696,2.27739 -0.55502,2.99227 -1.67565,3.77428c-1.43114,0.99872 -2.63006,1.93104 -3.50695,-0.15756c-0.62091,-1.4789 0.49733,-2.53078 1.92846,-3.52952z" stroke-linecap="butt"/><path d="M260.01213,212.17583l-3.02129,2.0558" stroke-linecap="round"/><path d="M251.37517,212.84764c0.66567,-1.54762 1.99467,-1.17186 3.45909,-0.46543c1.46444,0.70643 2.28855,1.8323 1.84409,3.02363c-0.94236,2.52595 -2.34029,1.41675 -3.48698,0.86359c-1.46444,-0.70642 -2.75633,-1.23615 -1.81621,-3.42178z" stroke-linecap="butt"/><path d="M252.25808,213.60711l-3.05577,-1.52551" stroke-linecap="round"/><path d="M244.78843,207.32675c1.11305,-1.1512 2.17619,-0.17815 3.2499,1.17004c1.07373,1.3482 1.43438,2.79442 0.63841,3.71221c-1.68774,1.94599 -2.56725,0.24851 -3.40803,-0.80717c-1.07372,-1.3482 -2.05217,-2.44931 -0.48028,-4.07508z" stroke-linecap="butt"/><path d="M245.3242,208.45445l-2.22327,-2.86176" stroke-linecap="round"/><path d="M239.1843,200.19512c1.11306,-1.15117 2.17619,-0.17815 3.2499,1.17004c1.07373,1.3482 1.43438,2.79442 0.63841,3.71222c-1.68773,1.94598 -2.56724,0.2485 -3.40801,-0.80717c-1.07372,-1.3482 -2.05219,-2.44931 -0.4803,-4.07509z" stroke-linecap="butt"/><path d="M237.49681,198.46106l2.22329,2.86176" stroke-linecap="round"/></g><path d="M281.0492,253.91771c0,0 4.47343,-1.02642 6.76529,-0.26656c1.75452,0.58168 2.4255,2.38846 2.94778,4.12242c1.43354,4.7595 0.15151,9.61376 0.43218,17.32516c0.07644,2.10025 -3.04739,3.39358 -5.20141,3.33199c-2.01464,-0.05762 -5.5131,-0.27815 -5.5131,-0.27815l-33.90378,-1.70473c0,0 -4.38204,-0.36046 -5.22879,-2.06162c-2.03913,-4.09672 -0.72246,-8.62555 -1.15099,-13.16021c-0.14523,-1.53674 4.76797,-1.83404 4.76797,-1.83404c0,0 9.12434,-1.38422 14.96441,-2.27018c8.24255,-1.25044 21.12048,-3.20407 21.12048,-3.20407z" data-paper-data="{&quot;index&quot;:null}" fill="#171717" stroke="#000000" stroke-width="3" stroke-linecap="round"/><path d="M241.54538,265.47173c0,0 2.09014,3.99136 1.88072,6.34323c-0.16029,1.80045 -1.79917,2.86727 -3.40106,3.77589c-4.39697,2.49399 -9.53669,2.43889 -17.14827,4.54589c-2.07307,0.57384 -4.10675,-2.07569 -4.55972,-4.1303c-0.42364,-1.92166 -1.03936,-5.28744 -1.03936,-5.28744l-6.39747,-32.51463c0,0 -0.68734,-4.23595 0.80441,-5.44402c3.59242,-2.90924 8.41636,-2.74364 12.82942,-4.23217c1.49553,-0.50445 2.96465,4.07747 2.96465,4.07747c0,0 3.55687,8.31044 5.83346,13.62958c3.21313,7.50731 8.23321,19.23654 8.23321,19.23654z" data-paper-data="{&quot;index&quot;:null}" fill="#171717" stroke="#000000" stroke-width="3" stroke-linecap="round"/><path d="M235.65997,198.29097c0,0 -1.57566,-4.3213 -1.60039,-5.40725c-0.07423,-3.25786 0.54973,-17.43586 1.15733,-30.2478c0.09398,-1.9817 1.89652,-4.99207 1.89652,-4.99207c0,0 2.33192,-1.50964 3.62405,-1.44961c14.25586,0.66222 27.8724,0.20001 33.08386,2.01986c1.73716,0.60662 4.87792,2.50931 4.87792,2.50931c0,0 0.5194,4.429 0.60321,5.56626c0.02793,0.37909 0.04469,0.5925 0.04946,0.97238c0.14255,11.38224 -0.93692,24.48922 -1.53494,29.05522c-0.19935,1.52201 -2.17219,3.81344 -2.17219,3.81344c0,0 -1.54957,2.65107 -6.09252,3.22602c-4.97079,0.62908 -16.94764,-0.3644 -29.29538,-1.42601z" fill="#582700" stroke="#000000" stroke-width="2.5" stroke-linecap="round"/><path d="M281.05361,161.44399l-0.70675,-0.55992c-0.09013,-0.03524 -0.18024,-0.06997 -0.27035,-0.10422c-0.24092,0.29953 -0.69854,0.63958 -1.43993,0.35809c-0.68333,-0.25945 -0.82736,-0.75061 -0.82519,-1.1243c-2.66067,-0.79487 -5.33981,-1.24838 -8.15659,-1.63905c-7.90001,-0.8285 -15.84541,-1.05742 -23.77711,-1.44546c-2.60124,-0.12727 -8.46886,0.60911 -10.56648,-1.18276c-1.023,-0.87388 -0.52286,-2.7825 -0.57899,-3.83983c-0.16259,-3.06392 -0.40044,-6.23953 -0.27611,-9.30537c0.18998,-4.00601 -1.18626,-7.6592 -1.52839,-11.61424c-0.17152,-1.98279 -0.76693,-3.99683 1.11567,-5.61064c0.53156,-0.45567 1.41438,-0.13127 2.12418,-0.13236c2.59408,-0.00394 5.0911,0.29208 7.63772,0.71538c8.07022,1.3414 16.06815,2.25598 24.06131,4.07958c3.22425,0.73947 6.49746,0.96949 9.79413,1.24093c1.93752,0.15954 3.73194,-0.29368 4.79533,1.92762c0.63503,1.32651 -0.0565,5.30221 -0.17817,6.78035c-0.46915,5.69961 0.13821,12.75537 -1.34874,18.43874c0.11823,0.04453 0.23647,0.08982 0.35475,0.13588l1.28203,0.87257c0,0 1.03423,0.74494 0.27809,1.74947c-0.75615,1.00452 -1.79038,0.25958 -1.79038,0.25958z" data-paper-data="{&quot;index&quot;:null}" fill="#000000" stroke="none" stroke-width="0.5" stroke-linecap="butt"/><path d="M253.29704,174.8698c0.56064,0.00697 0.99682,3.007 0.97428,6.70071c-0.02253,3.69372 -0.49527,6.68242 -1.0559,6.67543c-0.56064,-0.00697 -0.99682,-3.00699 -0.9743,-6.7007c0.02253,-3.69372 0.49526,-6.68244 1.05591,-6.67545z" data-paper-data="{&quot;index&quot;:null}" fill="none" stroke="#580000" stroke-width="2.5" stroke-linecap="butt"/><g data-paper-data="{&quot;index&quot;:null}" stroke="#000000" stroke-width="1.25" stroke-linecap="butt"><g data-paper-data="{&quot;index&quot;:null}" fill="#000000"><path d="M265.53937,198.51629c-12.62009,-0.101 -8.31262,-5.3184 -8.31262,-5.3184l16.83404,0.19252c0,0 4.91525,5.11049 -8.52141,5.12588z"/></g><g data-paper-data="{&quot;index&quot;:null}" fill="#ffffff"><path d="M259.73809,197.90053c-0.02411,-0.00646 0.92452,-1.08147 0.94868,-2.12183c0.02953,-1.27022 -0.86078,-2.5511 -0.85686,-2.55106c2.8421,0.03249 14.23087,0.16274 14.23087,0.16274c0,0 4.91525,5.11049 -8.52141,5.12588c-2.58145,-0.02065 -4.45461,-0.25539 -5.80126,-0.61576z"/></g></g><path d="M263.63879,174.90725c0.56064,0.00697 0.99682,3.007 0.97429,6.70071c-0.02253,3.69372 -0.49527,6.68242 -1.05591,6.67543c-0.56064,-0.00697 -0.99682,-3.007 -0.9743,-6.7007c0.02253,-3.69372 0.49527,-6.68244 1.05591,-6.67545z" data-paper-data="{&quot;index&quot;:null}" fill="none" stroke="#580000" stroke-width="2.5" stroke-linecap="butt"/><g><g><g data-paper-data="{&quot;index&quot;:null}" stroke="#000000"><path d="M304.98877,243.19109c-3.04711,3.99112 -30.26529,3.59184 -34.68763,0.1649c-4.53546,-3.51461 -8.44137,-15.82304 -9.61719,-23.14752c-1.1758,-7.3245 1.75366,-17.62257 2.94101,-18.4407c3.56204,-2.45441 15.48996,0.99429 20.96419,1.96656c3.27094,0.58094 16.06214,3.20458 19.35579,6.06782c3.4846,3.02924 3.14995,30.63034 1.04386,33.3889z" data-paper-data="{&quot;origRot&quot;:0,&quot;origPos&quot;:null}" fill="#582700" stroke-width="3" stroke-linecap="butt"/><path d="M299.60674,212.51088l-20.80417,-1.0166" data-paper-data="{&quot;origPos&quot;:null}" fill="none" stroke-width="2" stroke-linecap="round"/><path d="M273.22928,239.85558l2.30491,-25.25893" data-paper-data="{&quot;origPos&quot;:null}" fill="none" stroke-width="2" stroke-linecap="round"/><path d="M268.74424,240.41462c0,0 1.51301,-29.60977 3.95612,-32.28867c2.1388,-2.34524 29.75911,1.50748 29.75911,1.50748" data-paper-data="{&quot;origPos&quot;:null}" fill="none" stroke-width="1.5" stroke-linecap="round"/><path d="M266.98683,236.76653c0,0 1.44098,-28.20013 3.76778,-30.75149c2.03699,-2.23359 28.34236,1.43571 28.34236,1.43571" data-paper-data="{&quot;origPos&quot;:null}" fill="none" stroke-width="1.5" stroke-linecap="round"/></g><path d="M283.8076,205.36724l-13.17338,0.72111l-2.36125,10.74474l-1.07726,14.27473l-0.90984,5.94959l-6.0562,-21.96685l3.94817,-14.04063l19.92377,3.06566z" fill="#616161" stroke="#000000" stroke-width="0.5" stroke-linecap="round"/><path d="M270.64787,206.81882l1.50099,-0.07016l-3.5937,32.3157l-1.50099,0.07015z" fill="#ffffff" stroke="none" stroke-width="0" stroke-linecap="butt"/><path d="M300.24189,207.34462l0.08736,1.42099l-28.80925,-1.53588l-0.08735,-1.42099z" fill="#ffffff" stroke="none" stroke-width="0" stroke-linecap="butt"/><path d="M267.703,236.78152l0.47537,0.69113c0.27371,0.4495 0.5474,0.89899 0.8211,1.34849c0,0 0.81828,1.34383 -0.61855,2.03c-1.43683,0.68617 -2.25511,-0.65766 -2.25511,-0.65766c-0.27371,-0.4495 -0.5474,-0.89899 -0.8211,-1.34848l-0.37431,-0.53567c0,0 -0.90123,-1.30122 0.48508,-2.06512c1.3863,-0.7639 2.28753,0.53732 2.28753,0.53732z" fill="#000000" stroke="none" stroke-width="0.5" stroke-linecap="butt"/><path d="M272.83053,206.31661c0.00038,0.00018 0.00076,0.00037 0.00114,0.00056l0.0663,-0.12988l0.53412,0.24411c0.23624,0.10261 0.37589,0.34297 0.32048,0.57886c-0.04564,0.19432 -0.21115,0.33241 -0.41187,0.36762l-0.5184,0.10147c-0.51873,0.1839 -0.7512,0.22347 -0.96603,0.70752c0,0 -0.22857,0.44769 -0.73011,0.21847c-0.23663,-0.10815 -0.31074,-0.26493 -0.323,-0.40039c-0.15536,-0.09909 -0.25168,-0.2634 -0.24958,-0.43607l-0.0057,-0.53527l0.10515,0.00343c-0.08918,-0.47322 0.11224,-0.77649 0.89113,-1.17717l0.69682,-0.06106c0,0 0.54986,-0.01195 0.58804,0.49086c0.00069,0.00913 0.00118,0.01812 0.0015,0.02693z" fill="#ffffff" stroke="none" stroke-width="0.5" stroke-linecap="butt"/><path d="M300.93009,209.71112c-0.18341,-0.9476 -1.81384,-1.88505 -2.69443,-2.40341l-0.47301,-0.11111c-0.29778,-0.06994 -0.48799,-0.34457 -0.42485,-0.61339c0.06315,-0.26882 0.35573,-0.43005 0.65351,-0.36011v0v0l0.53918,0.12665l-0.00984,0.04191l0.09474,-0.01534c0.0423,0.02394 0.08496,0.0482 0.12795,0.07279c0.6802,-0.22996 2.15055,0.73915 2.68763,1.14975l0.18953,0.22634c0,0 0.30042,0.43373 -0.16169,0.68837c-0.00491,0.00269 -0.0098,0.00532 -0.01468,0.00788c0.24482,0.30564 0.43762,0.63243 0.55274,0.98086c0,0 0.13887,0.49201 -0.39452,0.59641c-0.53337,0.10441 -0.67224,-0.38759 -0.67224,-0.38759z" fill="#000000" stroke="none" stroke-width="0.5" stroke-linecap="butt"/></g><path d="M266.59735,204.1216c0,0 -2.06503,4.4741 -3.08212,11.60932c-1.03138,7.23547 -0.6012,13.20535 -0.6012,13.20535l1.72943,0.78354c0,0 -1.21381,2.81047 -3.17254,2.17773c-4.79404,-1.54868 0.38466,-32.47769 5.07241,-31.24971c2.92991,0.76751 1.96104,4.83239 1.96104,4.83239z" fill="#fffc96" stroke="#000000" stroke-width="2" stroke-linecap="round"/><path d="M299.47041,206.58124c0,0 -6.43433,-1.59405 -15.79608,-1.89826c-9.36176,-0.30421 -15.42933,0.50975 -15.42933,0.50975l0.76088,1.21186c0,0 -3.8678,0.77704 -5.39848,-1.69984c-2.52742,-4.08979 38.80686,-3.32451 40.23821,1.24304c0.68188,2.17592 -3.82174,1.82818 -3.82174,1.82818z" data-paper-data="{&quot;index&quot;:null}" fill="#fffc96" stroke="#000000" stroke-width="2" stroke-linecap="round"/></g></g></g></svg>