<svg version="1.1" xmlns="http://www.w3.org/2000/svg" xmlns:xlink="http://www.w3.org/1999/xlink" width="210" height="221" viewBox="0,0,210,221"><g transform="translate(-140,-90)"><g data-paper-data="{&quot;isPaintingLayer&quot;:true}" fill-rule="nonzero" stroke-linejoin="miter" stroke-miterlimit="10" stroke-dasharray="" stroke-dashoffset="0" style="mix-blend-mode: normal"><path d="M140,311v-221h210v221z" fill="none" stroke="none" stroke-width="0" stroke-linecap="butt"/><path d="M279.41564,253.91771c0,0 4.10095,-1.02642 6.20197,-0.26656c1.60842,0.58168 2.22354,2.38846 2.70233,4.12242c1.31418,4.7595 0.1389,9.61376 0.3962,17.32516c0.07007,2.10025 -2.79365,3.39358 -4.76832,3.33199c-1.84689,-0.05762 -5.05405,-0.27815 -5.05405,-0.27815l-31.08076,-1.70473c0,0 -4.01716,-0.36046 -4.79341,-2.06162c-1.86934,-4.09672 -0.6623,-8.62555 -1.05515,-13.16021c-0.13314,-1.53674 4.37096,-1.83404 4.37096,-1.83404c0,0 8.36459,-1.38422 13.71838,-2.27018c7.55622,-1.25044 19.36187,-3.20407 19.36187,-3.20407z" data-paper-data="{&quot;index&quot;:null}" fill="#4b4b4b" stroke="#000000" stroke-width="3" stroke-linecap="round"/><g data-paper-data="{&quot;index&quot;:null}"><g stroke="#000000" stroke-width="3" stroke-linecap="round"><path d="M232.0376,240.47498c0,0 -1.23683,10.86809 -3.30303,15.01119c-16.10774,-0.15497 -23.61489,-6.39659 -23.61489,-6.39659c-1.89747,-0.40871 0.54694,-7.34691 0.54694,-7.34691c0,0 4.3571,-13.71189 7.14584,-22.48819c1.8312,-5.76288 4.69224,-14.76667 4.69224,-14.76667c0,0 2.05032,-5.62578 3.05892,-5.31843c6.06782,1.84911 12.28114,2.35849 14.95566,4.41621c0.8915,0.6859 0.26226,6.47196 0.26226,6.47196l-3.74395,30.41741z" data-paper-data="{&quot;origPos&quot;:null}" fill="#582700"/><path d="M230.54947,246.12355l-23.73821,-6.20879l0.78219,-3.365l23.83332,5.96561z" data-paper-data="{&quot;origPos&quot;:null}" fill="none"/></g><path d="M207.49854,236.04338l12.02088,-35.30661l1.33345,-0.3599l14.65562,3.69575l-4.6518,37.81131z" fill="#66c8ff" stroke="#000000" stroke-width="1" stroke-linecap="round"/><path d="M206.87898,239.46518l0.52422,-2.30883l23.59542,6.13864l-0.52422,2.30883z" fill="#ffffff" stroke="none" stroke-width="0" stroke-linecap="butt"/></g><g data-paper-data="{&quot;index&quot;:null}" stroke="#000000" stroke-linecap="round"><path d="M261.37822,192.74723c0,0 15.45601,-1.62804 15.43854,5.12428c-0.04739,18.32715 -26.92766,12.29828 -26.92766,12.29828z" data-paper-data="{&quot;origPos&quot;:null}" fill="#66c8ff" stroke-width="2"/><path d="M260.66017,194.28453c0,0 11.21823,-0.57419 11.84818,1.40917c0.19867,0.62554 -14.95983,2.56214 -14.95983,2.56214z" data-paper-data="{&quot;origPos&quot;:null}" fill="#0a0a0a" stroke-width="1"/></g><g><path d="M265.13392,242.56656c0,0 0.78847,16.06155 -1.31198,16.34725c-6.30139,0.85716 -22.87154,-0.01192 -37.00908,-0.01192c-1.58816,0 -1.3565,-15.24632 -1.3565,-15.24632l1.69562,-31.21866c0,0 1.25716,-13.7943 2.713,-13.7943c9.41735,0 23.50733,-0.94853 29.67055,0.72672c2.05441,0.55842 3.90277,15.2456 3.90277,15.2456z" data-paper-data="{&quot;origPos&quot;:null}" fill="#66c8ff" stroke="#000000" stroke-width="3.5" stroke-linecap="round"/><path d="M234.79797,222.63206c-1.22994,0 -1.22995,-2.53545 -1.22995,-2.53545c0,-5.25872 0,-12.20773 0,-17.46645c0,0 0.00001,-2.53545 1.22995,-2.53545c1.22994,0 1.22994,2.53545 1.22994,2.53545c0,5.25872 0,10.51743 0,15.77615v1.6903c0,0 0,2.53545 -1.22994,2.53545z" fill="#ffffff" stroke="none" stroke-width="0.5" stroke-linecap="butt"/><path d="M246.22458,229.08748c-1.22994,0 -1.22995,-3.18524 -1.22995,-3.18524c0,-6.60643 0,-15.33635 0,-21.94279c0,0 0.00001,-3.18524 1.22995,-3.18524c1.22994,0 1.22994,3.18524 1.22994,3.18524c0,6.60643 0,13.21286 0,19.8193v2.12349c0,0 0,3.18524 -1.22994,3.18524z" fill="#ffffff" stroke="none" stroke-width="0.5" stroke-linecap="butt"/></g><g fill="none" stroke="#b9b9b9" stroke-width="3"><path d="M256.29068,203.77421c-0.78799,-1.38427 0.08179,-2.62736 1.2463,-3.86887c1.16452,-1.24149 2.33328,-1.62059 2.97081,-0.62702c1.35172,2.10666 -0.06645,3.10099 -0.97831,4.07312c-1.16453,1.24151 -2.12597,2.37774 -3.2388,0.42279z" stroke-linecap="butt"/><path d="M254.7617,205.74009l2.46621,-2.56801" stroke-linecap="round"/><path d="M251.38466,206.38155c1.16452,-1.24149 2.33328,-1.62059 2.97081,-0.62702c1.35172,2.10666 -0.06645,3.10099 -0.97831,4.07312c-1.16452,1.2415 -2.12596,2.37774 -3.2388,0.42279c-0.78799,-1.38427 0.08178,-2.62736 1.24629,-3.86888z" stroke-linecap="butt"/><path d="M248.60937,212.21631l2.46621,-2.56803" stroke-linecap="round"/><path d="M243.25575,211.75531c0.38152,-1.6666 1.65562,-1.509 3.10281,-1.04134c1.44719,0.46768 2.3693,1.46324 2.13794,2.73491c-0.49054,2.69627 -1.93631,1.81254 -3.0695,1.44635c-1.44719,-0.46767 -2.71006,-0.78624 -2.17125,-3.13991z" stroke-linecap="butt"/><path d="M241.15019,211.34512l3.02738,1.0276" stroke-linecap="round"/><path d="M236.40005,207.29521c0.85033,-1.3421 1.96899,-0.53982 3.15283,0.63796c1.18385,1.17778 1.72839,2.57232 1.13426,3.62717c-1.25973,2.23658 -2.31714,0.67538 -3.24415,-0.24685c-1.18384,-1.17779 -2.2438,-2.12289 -1.04294,-4.01827z" stroke-linecap="butt"/><path d="M234.59638,205.83112l2.46166,2.50929" stroke-linecap="round"/><path d="M230.20712,201.0525c0.85033,-1.34208 1.96899,-0.53982 3.15283,0.63796c1.18385,1.17778 1.72839,2.57232 1.13426,3.62717c-1.25973,2.23657 -2.31714,0.67538 -3.24414,-0.24685c-1.18384,-1.17778 -2.2438,-2.12288 -1.04294,-4.01827z" stroke-linecap="butt"/><path d="M230.86514,202.09771l-2.46168,-2.50929" stroke-linecap="round"/></g><path d="M242.61409,265.18749c0,0 1.94096,4.06831 1.74649,6.46551c-0.14885,1.83516 -1.67077,2.92255 -3.15832,3.84868c-4.08315,2.54207 -8.85603,2.48591 -15.92436,4.63353c-1.92511,0.5849 -3.81364,-2.11571 -4.23428,-4.20992c-0.39341,-1.95871 -0.96518,-5.38937 -0.96518,-5.38937l-5.94086,-33.14145c0,0 -0.63828,-4.31761 0.747,-5.54897c3.33603,-2.96532 7.81567,-2.79653 11.91375,-4.31376c1.38879,-0.51417 2.75306,4.15608 2.75306,4.15608c0,0 3.30301,8.47065 5.41712,13.89233c2.9838,7.65204 7.64559,19.60738 7.64559,19.60738z" data-paper-data="{&quot;index&quot;:null}" fill="#4b4b4b" stroke="#000000" stroke-width="3" stroke-linecap="round"/><path d="M224.48013,196.02518c0,0 -1.64013,-4.32001 -1.70783,-5.42412c-0.20312,-3.31234 -0.20835,-17.7746 -0.17248,-30.84559c0.00554,-2.02177 1.5541,-5.17566 1.5541,-5.17566c0,0 2.10161,-1.65272 3.30305,-1.65597c13.25541,-0.03585 25.87126,-1.18438 30.78199,0.40846c1.63692,0.53094 4.62965,2.31121 4.62965,2.31121c0,0 0.66447,4.48223 0.78908,5.63562c0.04154,0.38446 0.06588,0.60085 0.08596,0.98728c0.60128,11.5784 0.13972,24.97319 -0.22705,29.65052c-0.12226,1.55912 -1.85846,3.98971 -1.85846,3.98971c0,0 -1.32862,2.77559 -5.52037,3.58702c-4.58652,0.88784 -15.74086,0.47303 -27.24216,0.00734z" fill="#582700" stroke="#000000" stroke-width="2.5" stroke-linecap="round"/><path d="M265.08296,156.25974l-0.67887,-0.53473c-0.08509,-0.03137 -0.17013,-0.06224 -0.25516,-0.09262c-0.2112,0.31687 -0.62183,0.68579 -1.32137,0.43619c-0.64476,-0.23005 -0.79864,-0.72281 -0.81202,-1.10329c-2.5016,-0.67658 -5.00629,-1.00476 -7.63611,-1.26215c-7.36462,-0.4499 -14.74665,-0.28725 -22.12253,-0.28725c-2.41895,0 -7.83322,1.0417 -9.85346,-0.67771c-0.98526,-0.83854 -0.59983,-2.80614 -0.69547,-3.87957c-0.27712,-3.11053 -0.62867,-6.33101 -0.63962,-9.4578c0.01122,-4.08701 -1.41634,-7.7369 -1.89678,-11.74554c-0.24086,-2.00966 -0.87633,-4.03002 0.80405,-5.76639c0.47446,-0.49027 1.307,-0.20405 1.96559,-0.2405c2.40691,-0.13319 4.73611,0.04378 7.11658,0.34782c7.54368,0.96348 15.00272,1.49613 22.49477,2.95425c3.02227,0.59211 6.06899,0.66324 9.13918,0.77537c1.80441,0.06591 3.4508,-0.48476 4.52905,1.72325c0.64391,1.31858 0.16606,5.39972 0.11407,6.9103c-0.20048,5.82476 0.65383,12.97626 -0.49174,18.83518c0.11154,0.03944 0.22313,0.07965 0.33478,0.12064l1.22556,0.82431c0,0 0.99036,0.70675 0.33012,1.76686c-0.66025,1.06011 -1.65061,0.35337 -1.65061,0.35337z" data-paper-data="{&quot;index&quot;:null}" fill="#000000" stroke="none" stroke-width="0.5" stroke-linecap="butt"/><path d="M248.92145,168.50194c0,0 1.04048,-0.61875 1.61853,0.495c0.57804,1.11375 -0.46243,1.73252 -0.46243,1.73252l-0.69149,0.39078c-1.13002,0.96425 -1.75582,1.40633 -2.58407,1.60887l0.0777,0.21624l-1.21242,0.49915c-0.13957,0.06148 -0.29244,0.0954 -0.45274,0.0954c-0.65737,0 -1.19027,-0.57043 -1.19027,-1.2741c0,-0.40675 0.17806,-0.76898 0.4553,-1.00226l0.94363,-0.80807l0.02003,0.02681l0.03854,-0.07388c0.81615,-0.53931 1.63734,-1.07011 2.46579,-1.58748c0,0 0.3452,-0.21554 0.75222,-0.18274l0.22169,-0.13627z" data-paper-data="{&quot;index&quot;:null}" fill="#582700" stroke="none" stroke-width="0.5" stroke-linecap="butt"/><g><g><path d="M249.18905,203.50632c-1.6411,-2.74078 11.79523,-3.43469 13.80052,-4.34583c2.17945,-0.9903 -2.19849,19.67025 -2.19849,19.67025l-0.78825,3.49099l4.82104,-23.19639c0,0 1.28763,-8.10111 3.31643,-7.35584c0,0 10.44361,-1.47548 25.93385,8.02202c-0.18865,5.20072 -4.68538,16.3382 -4.68538,16.3382c0,0 -8.91452,25.22497 -13.27741,26.21698c-1.01028,0.2297 -13.38156,-0.07414 -16.13582,-3.0774c-9.13989,-9.96618 -10.78651,-35.76296 -10.78651,-35.76296z" fill="#582700" stroke="#000000" stroke-width="2.5" stroke-linecap="round"/><path d="M261.77861,217.30557c-0.13217,0.4931 -0.27092,0.98503 -0.40844,1.47864c-0.03035,0.10894 -0.48614,1.30547 -0.4802,1.91553c6.22115,2.1084 12.67809,3.15766 18.82299,5.62734c0.55579,0.17837 1.7639,0.42988 2.89011,0.83684c0.3591,0.02099 0.6449,-0.00911 0.76618,-0.13052c1.03138,-1.0323 1.50347,-2.88726 2.33893,-4.1237c-0.36255,0.00492 -1.41127,0.0033 -1.83727,-0.08345c-1.26513,-0.25761 -2.51627,-0.50816 -3.78746,-0.72435c-4.45603,-0.75782 -9.202,-2.11611 -13.5203,-3.42563c-1.58445,-0.28268 -3.24273,-0.73311 -4.78454,-1.3707zM262.14465,215.83244c1.51525,0.64377 3.16951,1.08404 4.73046,1.36252c4.87762,1.50519 10.06978,2.71273 15.09664,3.66224c2.07123,0.39122 5.34465,0.14504 5.0032,2.73767c-0.87434,1.32728 -1.46439,3.34883 -2.59257,4.48653c0.35213,0.28711 0.59334,0.61772 0.65175,0.99988c0.08223,0.53795 -1.11535,2.32167 -1.36635,2.8592c-1.49739,3.20689 -2.73898,7.35605 -6.23406,8.56875c-4.89476,3.49299 -13.43546,2.13881 -18.35937,-0.58739c-2.77536,-3.33399 -3.60271,-6.68684 -4.51403,-10.93674c-0.65799,-3.06856 -1.80464,-5.82803 -2.13406,-9.01706c-1.02656,-4.36342 -1.92488,-8.74814 -2.94566,-13.11152c-0.46849,-2.00263 -1.56026,-3.76071 0.04454,-5.30522c3.34596,-0.67606 6.72876,-1.35782 10.10268,-1.95376c1.05172,-0.18576 3.19854,-0.48717 4.14022,0.2206c1.30867,0.98361 0.69162,2.76359 0.33476,4.10326c-0.40105,3.04876 -0.99122,6.36582 -1.80145,9.58181c0.20292,0.25728 0.1549,0.61702 0.1549,0.61702c-0.07781,0.57856 -0.18547,1.14793 -0.31159,1.7122zM280.80748,228.30475c-3.8126,-0.5433 -7.26088,-2.25754 -11.00499,-2.91216c-2.21369,-0.33837 -6.19786,-0.59596 -8.58768,-2.14529c-0.14585,-0.02096 -0.25078,-0.07712 -0.25078,-0.07712l-0.64923,-0.35111c-0.68314,-0.21815 -1.29806,-0.68026 -1.82391,-1.19552c0.42413,-6.0479 3.39949,-11.91669 4.22452,-18.01885c0.17982,-0.67237 0.49312,-1.61279 0.48017,-2.30764c-0.00797,-0.42735 -2.39553,-0.34619 -2.68335,-0.3205c-3.50416,0.31277 -6.92074,1.50099 -10.40871,1.96127c-0.33983,0.13141 0.61208,2.94466 0.75383,3.55264c1.02506,4.39609 1.94443,8.80946 2.96512,13.20897c0.33079,3.17173 1.46036,5.89957 2.1217,8.95173c0.84176,3.88476 1.5298,6.97779 3.99746,10.06904c4.60989,2.34213 12.34816,3.65095 16.86881,0.42495c3.39541,-1.23974 5.36292,-6.66999 6.82186,-9.83091c0.01547,-0.03351 -1.51124,-0.56839 -2.76627,-1.00068c-0.01985,-0.00312 -0.03938,-0.00606 -0.05859,-0.00881z" fill="#000000" stroke="none" stroke-width="0.5" stroke-linecap="butt"/><path d="M266.52076,218.65385c4.3183,1.30952 9.15395,2.68926 13.60997,3.4471c1.27119,0.21619 2.52227,0.47031 3.78741,0.72794c0.426,0.08675 1.47474,0.0883 1.83727,0.08338c-0.83547,1.23646 -1.31157,3.10942 -2.34295,4.14173c-0.1213,0.1214 -0.40792,0.15337 -0.76702,0.13238c-1.12622,-0.40696 -2.33607,-0.65502 -2.89186,-0.83338c-6.14491,-2.46968 -12.68945,-3.55066 -18.9106,-5.65906c-0.00595,-0.61006 0.45118,-1.814 0.48153,-1.92293c0.13753,-0.4936 0.27803,-0.99113 0.4102,-1.48422c1.54181,0.63759 3.20159,1.0844 4.78605,1.36708z" data-paper-data="{&quot;noHover&quot;:false,&quot;origItem&quot;:[&quot;Path&quot;,{&quot;applyMatrix&quot;:true,&quot;segments&quot;:[[[926.17844,407.1979],[3.2606,1.25965],[-0.27949,0.97418]],[[925.31465,410.11917],[0.29084,-0.97519],[-0.06418,0.21521]],[[924.29914,413.90358],[-0.01258,-1.20526],[13.15638,4.16543]],[[964.1057,425.02121],[-12.99513,-4.87922],[1.17537,0.35239]],[[970.21765,426.67451],[-2.3817,-0.804],[0.75941,0.04146]],[[971.83798,426.41666],[-0.25651,0.23985],[2.18115,-2.03947]],[[976.78433,418.26967],[-1.76682,2.44279],[-0.76669,0.00973]],[[972.89889,418.10481],[0.90089,0.17138],[-2.67549,-0.50896]],[[964.88923,416.67374],[2.68829,0.42712],[-9.42353,-1.49721]],[[936.29671,409.90591],[9.13228,2.58714],[-3.35077,-0.55846]]],&quot;closed&quot;:true}]}" fill="#ffffff" stroke="none" stroke-width="0.5" stroke-linecap="butt"/><path d="M279.21768,227.74312c0.20571,0.06609 4.48317,1.53691 4.45758,1.59234c-1.45896,3.16091 -3.4454,8.61357 -6.8408,9.8533c-4.52065,3.22601 -12.3011,1.92031 -16.911,-0.42183c-2.46766,-3.09124 -3.17708,-6.20325 -4.01884,-10.08802c-0.66134,-3.05216 -1.79843,-5.8125 -2.12923,-8.98422c-1.02069,-4.3995 -1.92902,-8.84089 -2.95408,-13.23698c-0.14177,-0.60797 -1.0909,-3.42443 -0.75107,-3.55582c3.48796,-0.46029 6.9227,-1.6605 10.42685,-1.97327c0.28781,-0.02569 2.68135,-0.10856 2.68932,0.31879c0.01297,0.69485 -0.27958,1.73401 -0.45941,2.40637c-0.82502,6.10215 -3.76481,11.91844 -4.18894,17.96632c0.52584,0.51526 1.13935,0.96813 1.82251,1.18628l0.64817,0.34736c0,0 0.54499,0.37254 0.86219,-0.30655c0.03176,-0.06799 0.14379,-0.16424 0.15807,-0.22541c5.74188,1.78361 11.55065,2.86088 17.18867,5.12135z" data-paper-data="{&quot;noHover&quot;:false,&quot;origItem&quot;:[&quot;Path&quot;,{&quot;applyMatrix&quot;:true,&quot;segments&quot;:[[[926.61254,417.73069],[12.14285,3.5238],[-0.03018,0.12086]],[[926.46822,418.11346],[0.06716,-0.13431],[-0.67082,1.34164]],[924.45576,418.78428],[[923.08279,418.0906],[0,0],[-1.44471,-0.43097]],[[919.22563,415.72869],[1.11205,1.01797],[0.89694,-11.9485]],[[928.15956,380.1298],[-1.74473,12.05571],[0.38029,-1.32836]],[[929.175,375.57071],[0.02742,1.37277],[-0.01686,-0.84429]],[[923.5003,374.93752],[0.60865,-0.05075],[-7.41054,0.61792]],[[901.48814,378.8123],[7.37628,-0.90935],[-0.71866,0.25961]],[[903.08234,385.83106],[-0.2998,-1.20115],[2.16779,8.68513]],[[909.35292,411.92731],[-2.15853,-8.69186],[0.69956,6.26621]],[[913.83986,429.61277],[-1.39861,-6.02998],[1.78014,7.67491]],[[922.29365,449.50563],[-5.21858,-6.1072],[9.74892,4.62723]],[[957.96755,450.34516],[-9.56021,6.37347],[7.18055,-2.44927]],[[972.39433,430.92276],[-3.08539,6.24485],[0.05411,-0.10951]],[[963.14745,427.86406],[0.43501,0.13058],[-11.92317,-4.46591]]],&quot;closed&quot;:true}]}" fill="#66c8ff" stroke="none" stroke-width="0.5" stroke-linecap="butt"/></g><g data-paper-data="{&quot;index&quot;:null}" fill="#fffc96" stroke="#000000" stroke-width="2" stroke-linecap="round"><path d="M247.85764,212.0534c-0.16608,-2.02648 2.81839,-2.3549 2.81839,-2.3549l0.36341,1.85436c0,0 4.30325,1.6228 10.18579,2.78384c-0.11083,1.32632 -0.14478,2.31032 -0.0627,3.11958c-6.86865,-1.15636 -13.12374,-3.19254 -13.30488,-5.4029z"/><path d="M250.52631,225.28874c-0.63892,-2.75773 2.42253,-4.04626 2.42253,-4.04626l0.30473,1.3552c0,0 3.26924,-1.69345 7.90378,-5.19431c0.09993,1.05952 0.39357,1.81904 0.96631,2.64423c-5.73641,4.29984 -11.13447,7.2391 -11.59736,5.24113z" data-paper-data="{&quot;index&quot;:null}"/></g></g><path d="M237.85599,177.43669c-0.00982,-3.57639 0.27771,-6.47656 0.64218,-6.47769c0.36448,-0.00114 0.66791,2.89717 0.67773,6.47355c0.00982,3.57639 -0.27769,6.47653 -0.64217,6.47768c-0.36448,0.00114 -0.66792,-2.89714 -0.67774,-6.47353z" fill="none" stroke="#000000" stroke-width="2.5" stroke-linecap="butt"/><path d="M246.90205,177.23283c-0.00982,-3.57639 0.27771,-6.47656 0.64218,-6.47769c0.36448,-0.00114 0.66791,2.89717 0.67773,6.47355c0.00982,3.57639 -0.27769,6.47653 -0.64217,6.47768c-0.36448,0.00114 -0.66792,-2.89714 -0.67774,-6.47353z" fill="none" stroke="#000000" stroke-width="2.5" stroke-linecap="butt"/><path d="M252.51488,192.76164c0.11624,0.16557 0.33571,0.58665 -0.05766,1.00772c-0.50499,0.54055 -1.00998,0 -1.00998,0l-0.28739,-0.47664c-0.22109,-1.0906 -0.22196,-2.17813 0.00643,-3.19545c-1.00788,-0.20771 -2.08918,-0.17703 -3.02726,0.26671c0,0 -0.65642,0.30114 -0.93774,-0.40151c-0.28132,-0.70265 0.3751,-1.00378 0.3751,-1.00378c1.3044,-0.5844 2.72499,-0.61894 4.096,-0.30696c0.326,-0.66519 0.77112,-1.27775 1.33863,-1.81322c0,0 0.54223,-0.4975 1.00701,0.08292c0.46477,0.58042 -0.07746,1.07793 -0.07746,1.07793c-1.32577,1.16994 -1.74102,3.01651 -1.42567,4.7623z" fill="#000000" stroke="none" stroke-width="0.5" stroke-linecap="butt"/><path d="M246.29309,168.37282c0.22499,-0.40139 0.54182,-0.40953 0.75366,-0.35551c0.04663,-0.01025 0.09493,-0.01564 0.14438,-0.01564c0.13569,0 0.26255,0.04051 0.37058,0.11085l1.00297,0.62673l-0.00722,0.01323l0.03984,0.00844c0.77092,0.60886 1.30044,1.04252 1.71605,1.51476l0.32148,0.15294l0.52388,0.14019c0.31803,0.07725 0.55545,0.38171 0.55545,0.74551c0,0.10873 -0.02121,0.21214 -0.05943,0.30578c0.03191,0.07818 0.05195,0.16317 0.0577,0.25237l0.14022,0.20013c0.0923,0.12881 0.14717,0.28997 0.14717,0.46485c0,0.4222 -0.31975,0.76446 -0.71416,0.76446c-0.17562,0 -0.33642,-0.06785 -0.4608,-0.1804l-0.55716,-0.497c-0.17268,-0.13841 -0.36512,-0.2737 -0.55993,-0.41158l-0.20202,-0.08317l0.01738,-0.04836c-0.00641,-0.00462 -0.01281,-0.00923 -0.01922,-0.01385c-0.20522,-0.11693 -0.39942,-0.28577 -0.59505,-0.4753c-0.07088,-0.03197 -0.14131,-0.06497 -0.21124,-0.09897c-0.64185,-0.20335 -1.29205,-0.46464 -1.80446,-0.84359c-0.38416,-0.209 -0.78905,-0.43957 -1.23535,-0.67774l-0.63732,-0.29237c-0.26258,-0.11298 -0.44797,-0.38811 -0.44797,-0.70959c0,-0.4222 0.31975,-0.76446 0.71416,-0.76446c0.10302,0 0.20096,0.02335 0.28942,0.06538l0.63662,0.28394c0.01863,-0.05816 0.04494,-0.11888 0.08033,-0.18203z" fill="#582700" stroke="none" stroke-width="0.5" stroke-linecap="butt"/></g></g></svg>