<svg version="1.1" xmlns="http://www.w3.org/2000/svg" xmlns:xlink="http://www.w3.org/1999/xlink" width="343.05776" height="343.18203" viewBox="0,0,343.05776,343.18203"><defs><linearGradient x1="300.18945" y1="180.18522" x2="128.47112" y2="180.18522" gradientUnits="userSpaceOnUse" id="color-1"><stop offset="0" stop-color="#ffffff"/><stop offset="1" stop-color="#ffffff" stop-opacity="0"/></linearGradient><linearGradient x1="300.12876" y1="180.23148" x2="178.70556" y2="58.80829" gradientUnits="userSpaceOnUse" id="color-2"><stop offset="0" stop-color="#ffffff"/><stop offset="1" stop-color="#ffffff" stop-opacity="0"/></linearGradient><linearGradient x1="300.00192" y1="180.12733" x2="300.00192" y2="8.40899" gradientUnits="userSpaceOnUse" id="color-3"><stop offset="0" stop-color="#ffffff"/><stop offset="1" stop-color="#ffffff" stop-opacity="0"/></linearGradient><linearGradient x1="299.95565" y1="180.06663" x2="421.37885" y2="58.64344" gradientUnits="userSpaceOnUse" id="color-4"><stop offset="0" stop-color="#ffffff"/><stop offset="1" stop-color="#ffffff" stop-opacity="0"/></linearGradient><linearGradient x1="299.81055" y1="179.81479" x2="471.52888" y2="179.81479" gradientUnits="userSpaceOnUse" id="color-5"><stop offset="0" stop-color="#ffffff"/><stop offset="1" stop-color="#ffffff" stop-opacity="0"/></linearGradient><linearGradient x1="299.87125" y1="179.76853" x2="421.29444" y2="301.19173" gradientUnits="userSpaceOnUse" id="color-6"><stop offset="0" stop-color="#ffffff"/><stop offset="1" stop-color="#ffffff" stop-opacity="0"/></linearGradient><linearGradient x1="299.99808" y1="179.87268" x2="299.99808" y2="351.59102" gradientUnits="userSpaceOnUse" id="color-7"><stop offset="0" stop-color="#ffffff"/><stop offset="1" stop-color="#ffffff" stop-opacity="0"/></linearGradient><linearGradient x1="300.04435" y1="179.93338" x2="178.62115" y2="301.35658" gradientUnits="userSpaceOnUse" id="color-8"><stop offset="0" stop-color="#ffffff"/><stop offset="1" stop-color="#ffffff" stop-opacity="0"/></linearGradient><radialGradient cx="302.1414" cy="180.86034" r="91.54275" gradientUnits="userSpaceOnUse" id="color-9"><stop offset="0" stop-color="#ffffff"/><stop offset="1" stop-color="#ffffff" stop-opacity="0"/></radialGradient></defs><g transform="translate(-128.47112,-8.40899)"><g data-paper-data="{&quot;isPaintingLayer&quot;:true}" fill-rule="nonzero" stroke-width="0" stroke-linecap="butt" stroke-linejoin="miter" stroke-miterlimit="10" stroke-dasharray="" stroke-dashoffset="0" style="mix-blend-mode: normal"><g stroke="#ff00f2"><g><g><path d="M128.47112,141.27787l171.71833,38.90734l-171.71833,38.90734z" fill="url(#color-1)"/><path d="M206.21721,31.29664l93.91155,148.93484l-148.93484,-93.91155z" fill="url(#color-2)"/></g><g><path d="M338.90926,8.40899l-38.90734,171.71833l-38.90734,-171.71833z" fill="url(#color-3)"/><path d="M448.8905,86.15508l-148.93484,93.91155l93.91155,-148.93484z" fill="url(#color-4)"/></g></g><g data-paper-data="{&quot;index&quot;:null}"><g><path d="M471.52888,218.72214l-171.71833,-38.90734l171.71833,-38.90734z" fill="url(#color-5)"/><path d="M393.78279,328.70336l-93.91155,-148.93484l148.93484,93.91155z" fill="url(#color-6)"/></g><g><path d="M261.09074,351.59102l38.90734,-171.71833l38.90734,171.71833z" fill="url(#color-7)"/><path d="M151.10951,273.84493l148.93484,-93.91155l-93.91155,148.93484z" fill="url(#color-8)"/></g></g></g><path d="M210.59865,180.86034c0,-50.55767 40.98508,-91.54275 91.54275,-91.54275c50.55767,0 91.54275,40.98508 91.54275,91.54275c0,50.55767 -40.98508,91.54275 -91.54275,91.54275c-50.55767,0 -91.54275,-40.98508 -91.54275,-91.54275z" fill="url(#color-9)" stroke="none"/></g></g></svg>