<svg version="1.1" xmlns="http://www.w3.org/2000/svg" xmlns:xlink="http://www.w3.org/1999/xlink" width="172.69807" height="208.6331" viewBox="0,0,172.69807,208.6331"><g transform="translate(-155.42468,-78.49341)"><g data-paper-data="{&quot;isPaintingLayer&quot;:true}" fill-rule="nonzero" stroke="none" stroke-width="0" stroke-linecap="butt" stroke-linejoin="miter" stroke-miterlimit="10" stroke-dasharray="" stroke-dashoffset="0" style="mix-blend-mode: normal"><path d="M309.90204,141.17022c0,3.71893 -3.28192,6.73372 -7.33038,6.73372c-4.04846,0 -7.33038,-3.01479 -7.33038,-6.73372c0,-3.71893 3.28192,-6.73372 7.33038,-6.73372c4.04846,0 7.33038,3.01479 7.33038,6.73372z" fill="#12fa05"/><path d="M327.98742,176.7256c-1.04725,2.58638 -7.89015,2.25605 -15.28405,-0.73781c-7.39389,-2.99387 -12.53886,-7.51755 -11.4916,-10.10393c1.04725,-2.58638 7.89015,-2.25605 15.28405,0.73781c7.39389,2.99387 12.53886,7.51755 11.4916,10.10393z" fill="#12fa05"/><path d="M245.39608,98.91581c-1.24294,10.28248 -3.00629,18.95324 -9.57125,18.15967c-3.27521,-0.3959 -2.40252,-1.52445 -4.14681,-5.14038c-1.75205,-3.632 -6.11243,-9.76194 -5.48958,-14.91458c1.24294,-10.28248 7.56456,-19.21074 14.13746,-18.48583c10.1527,1.11973 6.31312,10.09864 5.07018,20.38112z" fill="#12fa05"/><path d="M178.65107,135.67067c5.09855,9.26064 10.17767,18.43471 5.62791,18.44684c-1.37066,0.00366 -20.41164,-1.43095 -25.51019,-10.69159c-5.09855,-9.26064 -4.48381,-16.33024 2.64938,-20.2575c7.1332,-3.92727 12.13435,3.24161 17.2329,12.50225z" fill="#12fa05"/><path d="M227.88449,264.95456c3.81443,-9.85925 7.57506,-19.64795 10.50971,-16.17113c0.88409,1.04742 12.02811,16.55316 8.21368,26.41241c-3.81443,9.85925 -9.62423,13.93396 -17.21852,10.99582c-7.59429,-2.93814 -5.3193,-11.37785 -1.50487,-21.2371z" fill="#12fa05"/><path d="M184.94767,252.89882c-7.40869,-3.37893 -8.55408,-10.38216 -4.16739,-20.00046c4.38668,-9.6183 23.26556,-12.48275 24.6326,-12.58233c4.53775,-0.33053 0.16394,9.19998 -4.22275,18.81828c-4.38668,9.6183 -8.83377,17.14344 -16.24246,13.76451z" data-paper-data="{&quot;index&quot;:null}" fill="#12fa05"/><path d="M297.65157,232.92634c-4.38668,-9.6183 -8.7605,-19.14881 -4.22275,-18.81828c1.36704,0.09957 20.24592,2.96403 24.6326,12.58233c4.38668,9.6183 3.2413,16.62153 -4.16739,20.00046c-7.40869,3.37893 -11.85578,-4.14621 -16.24246,-13.76451z" data-paper-data="{&quot;index&quot;:null}" fill="#12fa05"/><path d="M172.40092,133.23334c3.38819,5.91148 9.96508,18.97422 9.96508,18.97422c0,0 -17.95308,-6.31491 -21.34127,-12.22639c-3.38819,-5.91148 -2.61645,-11.8102 1.45064,-14.14127c4.0671,-2.33107 6.53735,1.48196 9.92554,7.39344z" data-paper-data="{&quot;index&quot;:null}" fill="#ffffff"/><path d="M184.32796,249.36103c-4.0671,-2.33107 -4.83883,-8.22979 -1.45064,-14.14127c3.38819,-5.91148 21.34127,-12.22639 21.34127,-12.22639c0,0 -6.57689,13.06274 -9.96508,18.97422c-3.38819,5.91148 -5.85845,9.72452 -9.92554,7.39344z" data-paper-data="{&quot;index&quot;:null}" fill="#ffffff"/><path d="M230.16709,270.61649c2.50429,-6.33671 8.60608,-19.62802 8.60608,-19.62802c0,0 6.2705,17.96864 3.76621,24.30535c-2.50429,6.33671 -7.59485,9.41514 -11.9545,7.69218c-4.35966,-1.72295 -2.92207,-6.0328 -0.41778,-12.36951z" data-paper-data="{&quot;index&quot;:null}" fill="#ffffff"/><path d="M243.36984,93.53106c-2.11955,7.04964 -7.47931,21.91355 -7.47931,21.91355c0,0 -8.38519,-18.77378 -6.26564,-25.82342c2.11955,-7.04964 7.31975,-10.82683 12.1699,-9.36859c4.85015,1.45825 3.69459,6.22881 1.57505,13.27845z" data-paper-data="{&quot;index&quot;:null}" fill="#ffffff"/><path d="M298.22824,140.92407c0,-2.50741 2.03266,-4.54007 4.54007,-4.54007c2.50741,0 4.54007,2.03266 4.54007,4.54007c0,2.50741 -2.03266,4.54007 -4.54007,4.54007c-2.50741,0 -4.54007,-2.03266 -4.54007,-4.54007z" fill="#ffffff"/><path d="M323.99799,173.15542c-0.54957,2.61379 -21.21656,-5.47527 -21.21656,-5.47527c0,0 22.33549,0.15359 21.21656,5.47527z" fill="#ffffff"/><path d="M318.27762,241.20889c-1.55639,1.62714 -7.67222,-1.69688 -13.66008,-7.4244c-5.98786,-5.72752 -9.58028,-11.68965 -8.02389,-13.31679c1.55639,-1.62714 7.67222,1.69688 13.66008,7.4244c5.98786,5.72752 9.58028,11.68965 8.02389,13.31679z" fill="#ffffff"/></g></g></svg>