<svg version="1.1" xmlns="http://www.w3.org/2000/svg" xmlns:xlink="http://www.w3.org/1999/xlink" width="189.26654" height="221.55319" viewBox="0,0,189.26654,221.55319"><g transform="translate(-145.36673,-69.22341)"><g data-paper-data="{&quot;isPaintingLayer&quot;:true}" fill-rule="nonzero" stroke-linejoin="miter" stroke-miterlimit="10" stroke-dasharray="" stroke-dashoffset="0" style="mix-blend-mode: normal"><path d="M145.36673,290.77659v-221.55318h189.26654v221.55319z" fill="none" stroke="none" stroke-width="NaN" stroke-linecap="butt"/><g data-paper-data="{&quot;index&quot;:null,&quot;origRot&quot;:0}" stroke="#000000" stroke-linecap="round"><path d="M205.13219,260.95364c0,0 -4.52837,0.61436 -6.72866,-0.33136c-1.68443,-0.72398 -2.18108,-2.5541 -2.53716,-4.2998c-0.97739,-4.79171 0.74497,-9.43841 1.18481,-17.02312c0.1198,-2.06573 3.33568,-3.06003 5.46441,-2.81094c1.99098,0.23299 5.43714,0.75569 5.43714,0.75569l33.43716,4.64154c0,0 4.3087,0.73729 4.98936,2.47926c1.63919,4.19499 -0.08719,8.51959 -0.08476,13.00284c0.00083,1.5193 -4.89543,1.38036 -4.89543,1.38036z" data-paper-data="{&quot;origPos&quot;:null}" fill="#ff0000" stroke-width="3"/><path d="M206.85162,237.11079l-1.41557,22.92142c0,0 -2.60443,0.9872 -4.32144,0.85285c-1.62992,-0.12752 -4.2547,-1.52391 -4.2547,-1.52391c0,0 -0.826,-8.34528 -0.72518,-12.18646c0.13143,-5.00652 2.96151,-10.78484 2.96151,-10.78484z" data-paper-data="{&quot;origPos&quot;:null}" fill="#976e57" stroke-width="2.5"/><path d="M204.80701,260.86556c0,0 -4.52837,0.61436 -6.72867,-0.33137c-1.68443,-0.72398 -2.18108,-2.5541 -2.53717,-4.29979c-0.97739,-4.79171 0.74496,-9.4384 1.18481,-17.02312c0.1198,-2.06573 3.33569,-3.06002 5.4644,-2.81093c1.99098,0.23299 5.43713,0.75569 5.43713,0.75569l33.43717,4.64154c0,0 4.3087,0.73728 4.98936,2.47925c1.63919,4.19499 -0.08719,8.51961 -0.08476,13.00285c0.00083,1.5193 -4.89543,1.38035 -4.89543,1.38035c0,0 -9.17037,0.55768 -15.03988,0.91463c-8.2841,0.50377 -21.22699,1.29088 -21.22699,1.29088z" data-paper-data="{&quot;origPos&quot;:null}" fill="#474747" stroke-width="1.5"/></g><g><g><g data-paper-data="{&quot;origRot&quot;:0}" stroke="#000000" stroke-width="3" stroke-linecap="round"><path d="M295.36051,220.1031c1.3971,1.74552 -5.79981,5.499 -5.79981,5.499c0,0 -18.74823,10.45362 -27.58124,15.42793c-4.03142,1.54938 -27.03389,-25.59953 -26.56104,-30.80102c0.21078,-2.31867 6.07295,-9.27856 7.94501,-9.10542c3.56333,0.32954 16.36088,9.07154 16.36088,9.07154l-2.94075,2.47199l8.33645,-5.73769c0,0 9.09152,-7.51593 13.79969,-9.60356c2.61118,-1.15782 16.4408,22.77723 16.4408,22.77723z" data-paper-data="{&quot;origPos&quot;:null}" fill="#582700"/><path d="M271.48676,202.92731l16.16407,22.10089" fill="none"/><path d="M268.36842,205.36583l16.38223,21.95235" data-paper-data="{&quot;origPos&quot;:null}" fill="none"/></g><path d="M287.8503,225.57886l-2.13233,1.47127l-16.68078,-22.50653l2.13233,-1.47127z" fill="#ffffff" stroke="none" stroke-width="0" stroke-linecap="butt"/><path d="M261.81173,241.29192l-8.28282,-5.9919l-13.84535,-16.98045l-3.36744,-6.91641l0.68138,-4.57047l5.45402,-4.22944l1.0908,-0.84589l14.84452,8.12147l-2.0355,1.86718l1.16894,1.40329l10.07377,-6.94577l17.13467,21.64771l-21.97234,12.41937z" fill="#ffcb66" stroke="#000000" stroke-width="0.5" stroke-linecap="round"/></g><g fill="none" stroke="none" stroke-width="1" stroke-linecap="butt" font-family="sans-serif" font-weight="normal" font-size="12" text-anchor="start"/></g><g data-paper-data="{&quot;origRot&quot;:0}" stroke="#000000" stroke-linecap="round"><path d="M258.00072,215.36949c0,0 1.61295,-4.46265 3.0836,-3.91968c4.33966,1.60229 9.14277,1.58973 12.61918,4.56435c1.4436,1.23522 0.61964,5.38186 0.61964,5.38186l-7.44003,31.79388c0,0 -0.72387,3.29261 -1.20891,5.17027c-0.51858,2.00755 -2.62897,4.55121 -4.6717,3.9219c-7.50024,-2.31055 -12.61373,-2.41663 -16.90409,-5.00772c-1.56305,-0.94399 -3.15764,-2.04481 -3.2574,-3.82139c-0.13034,-2.32069 2.08067,-6.18288 2.08067,-6.18288z" data-paper-data="{&quot;origPos&quot;:null}" fill="#ff0000" stroke-width="3"/><path d="M264.54936,261.4772c0,0 -6.60443,0.4885 -11.4985,-1.17989c-3.7549,-1.28006 -11.53973,-5.003 -11.53973,-5.003c0,0 -0.41514,-2.8641 0.04312,-4.3787c0.48274,-1.59553 2.36803,-3.59059 2.36803,-3.59059l22.69703,6.90484z" data-paper-data="{&quot;origPos&quot;:null}" fill="#976e57" stroke-width="2"/><path d="M257.96996,215.69401c0,0 1.61296,-4.46265 3.08361,-3.91967c4.33965,1.60229 9.14276,1.58974 12.61919,4.56438c1.4436,1.23522 0.61963,5.38184 0.61963,5.38184l-7.44002,31.79388c0,0 -0.72386,3.29263 -1.20889,5.17028c-0.51858,2.00755 -2.62899,4.55119 -4.6717,3.92189c-7.50024,-2.31055 -12.61373,-2.41662 -16.9041,-5.00771c-1.56305,-0.94399 -3.15763,-2.04482 -3.25739,-3.82138c-0.13034,-2.32069 2.08066,-6.18288 2.08066,-6.18288z" data-paper-data="{&quot;origPos&quot;:null}" fill="#474747" stroke-width="3"/></g><g><g><path d="M218.3423,204.12835c0,0 1.98061,-14.18588 4.18201,-14.72523c6.6042,-1.61807 21.70229,-0.70192 31.79344,-0.70192c1.55999,0 2.90711,13.32346 2.90711,13.32346l1.81693,30.15309c0,0 0.24824,14.72593 -1.45355,14.72593c-15.14906,0 -32.90476,0.83939 -39.65703,0.01151c-2.25074,-0.27595 -1.40586,-15.78928 -1.40586,-15.78928z" data-paper-data="{&quot;origPos&quot;:null}" fill="#ffcb66" stroke="#000000" stroke-width="3.5" stroke-linecap="round"/><path d="M237.57059,212.19997c-1.31795,0 -1.31795,-2.44891 -1.31795,-2.44891c0,-5.07923 0,-11.79105 0,-16.87028c0,0 0,-2.44891 1.31795,-2.44891c1.31795,0 1.31795,2.44891 1.31795,2.44891c0,5.07923 0,10.15845 0,15.23767v1.63261c0,0 0,2.44891 -1.31795,2.44891z" fill="#ffffff" stroke="none" stroke-width="0.5" stroke-linecap="butt"/><path d="M249.81475,218.43505c-1.31795,0 -1.31795,-3.07652 -1.31795,-3.07652c0,-6.38094 0,-14.81289 0,-21.19382c0,0 0,-3.07652 1.31795,-3.07652c1.31795,0 1.31795,3.07652 1.31795,3.07652c0,6.38094 0,12.76187 0,19.14282v2.051c0,0 0,3.07652 -1.31795,3.07652z" fill="#ffffff" stroke="none" stroke-width="0.5" stroke-linecap="butt"/></g><g stroke="#000000" stroke-width="0.5" stroke-linecap="butt"><path d="M252.65004,228.25485c0,6.6529 -4.70889,12.04615 -10.5176,12.04615c-5.80871,0 -10.5176,-5.39325 -10.5176,-12.04615c0,-6.6529 4.70889,-12.04615 10.5176,-12.04615c5.80871,0 10.5176,5.39325 10.5176,12.04615z" fill="#ffa924"/><path d="M245.25519,217.14218c0.00043,0.01104 0.00065,0.02229 0.00065,0.03376c0,0.61503 -0.63743,0.61503 -0.63743,0.61503h-0.12748c-0.46574,0 -2.58885,0.02747 -2.90708,-0.10574c-0.26565,-0.11121 -0.20787,-0.53467 -0.39901,-0.74455c-0.18363,-0.20163 -0.4449,-0.32631 -0.69072,-0.45199c-0.39091,-0.19986 -0.92478,-0.19666 -1.21237,-0.52101c-0.26566,-0.29963 -0.29724,-0.75983 -0.27222,-1.1534c0.1175,-1.84836 1.29302,-1.86727 2.81149,-1.7006c0.45799,0.09734 0.9306,0.14458 1.37399,0.292c0.19506,0.06485 0.31147,0.28953 0.5123,0.33513c0.14275,0.03242 0.27704,-0.09628 0.42102,-0.1232c0.00614,-0.00115 1.78465,-0.24624 1.80228,-0.24866c1.20238,-0.1647 2.48824,-0.21277 3.70168,-0.12786c0.77321,0.05411 2.52028,0.23892 2.96621,0.98646c0.63506,1.0646 -1.21074,1.78495 -1.67274,1.96718c-1.36721,0.53928 -2.53422,0.20406 -3.92666,0.36057c-0.47432,0.05331 -1.23664,0.37424 -1.74391,0.58688z" fill="#1cc735"/></g></g><path d="M256.26388,191.55047c-12.32658,0.38388 -24.28115,0.72062 -29.19081,-0.16318c-4.48712,-0.80772 -5.89536,-3.49616 -5.89536,-3.49616c0,0 -1.84692,-2.35755 -1.96926,-3.86412c-0.36705,-4.51973 -0.78731,-17.45976 -0.07879,-28.63933c0.02364,-0.37311 0.05094,-0.58198 0.09759,-0.95308c0.13991,-1.11328 0.87678,-5.43864 0.87678,-5.43864c0,0 3.21668,-1.70233 4.97364,-2.20575c5.27085,-1.51031 18.78277,-0.3287 32.98616,-0.21813c1.28735,0.01002 3.53014,1.61834 3.53014,1.61834c0,0 1.64184,3.05507 1.63655,5.00783c-0.03407,12.62485 -0.11993,26.59326 -0.35594,29.79132c-0.07866,1.06601 -1.86009,5.22912 -1.86009,5.22912z" fill="#582600" stroke="#000000" stroke-width="2.5" stroke-linecap="round"/><g data-paper-data="{&quot;index&quot;:null}" fill="none" stroke="#000000" stroke-width="2.5" stroke-linecap="butt"><path d="M256.63388,174.21009c-0.21548,-0.11276 0.47835,-1.74915 1.54973,-3.65499c1.07138,-1.90581 2.11459,-3.3594 2.33007,-3.24662c0.21546,0.11275 -0.47835,1.74918 -1.54973,3.65501c-1.07139,1.90581 -2.11459,3.35938 -2.33007,3.2466z"/><path d="M260.02772,176.1187c1.7508,1.35908 3.04553,2.61026 2.89187,2.79455c-0.15365,0.18431 -1.69754,-0.76809 -3.44832,-2.12718c-1.75079,-1.35909 -3.04552,-2.61027 -2.89186,-2.79455c0.15365,-0.18429 1.69754,0.7681 3.44833,2.12717z" data-paper-data="{&quot;index&quot;:null}"/></g><g fill="none" stroke="#000000" stroke-width="2.5" stroke-linecap="butt"><path d="M249.92497,171.3604c-1.14003,-1.86838 -1.89294,-3.4803 -1.68171,-3.60028c0.21124,-0.11999 1.30668,1.29737 2.4467,3.16574c1.14003,1.86838 1.89295,3.48027 1.68172,3.60026c-0.21124,0.11999 -1.30667,-1.29735 -2.4467,-3.16572z"/><path d="M249.0493,176.54844c1.70031,-1.41751 3.20859,-2.42156 3.36885,-2.2426c0.16026,0.17896 -1.08817,1.47319 -2.78846,2.89072c-1.7003,1.41753 -3.20859,2.4216 -3.36885,2.24261c-0.16026,-0.17896 1.08818,-1.4732 2.78847,-2.89072z" data-paper-data="{&quot;index&quot;:null}"/></g><g><g data-paper-data="{&quot;index&quot;:null}"><path d="M275.54835,198.31983c2.01775,-1.02278 3.97295,-6.20847 4.95741,-4.40044c0.50145,0.92096 9.32269,17.91472 9.17619,19.04884c-0.14111,1.09236 -0.68466,2.01156 -1.67461,2.51337c-0.67353,0.34139 -1.88066,0.55252 -2.78526,0.39127c-1.80545,-0.32183 -15.04099,-14.94057 -15.69684,-16.14509c-0.98446,-1.80804 4.00539,-0.38516 6.02312,-1.40796z" fill="#e99b00" stroke="#000000" stroke-width="1.5" stroke-linecap="butt"/><g stroke-linecap="butt"><path d="M272.32729,192.35056c3.65566,-1.85306 7.64718,-1.46726 8.91526,0.8617c1.26811,2.32895 -0.66738,5.71913 -4.32303,7.57221c-3.65567,1.85305 -7.64717,1.46725 -8.91529,-0.86171c-1.26811,-2.32895 0.66738,-5.71913 4.32305,-7.57218z" fill="#ffb727" stroke="#000000" stroke-width="1.5"/><path d="M273.48233,201.03493c0,0 -1.54086,0.38714 -3.09208,-0.10518c-0.73626,-0.24538 -2.13153,-1.43022 -2.13153,-1.43022l3.67585,-0.22565z" fill="#ffd683" stroke="none" stroke-width="0"/><path d="M276.64847,200.06403l-1.62062,0.76832c0,0 -0.55047,-0.48045 -0.75616,-0.80546c-0.17567,-0.27757 -0.52821,-1.14175 -0.52821,-1.14175l1.46326,-0.4298z" fill="#ffd683" stroke="none" stroke-width="0"/></g><g><path d="M275.2468,197.4869c-5.04309,2.55632 -11.996,1.78989 -14.64544,-3.07591c-2.64943,-4.86585 -0.95433,-10.122 4.08873,-12.6783c5.04309,-2.55632 11.53751,-0.81509 14.18695,4.05073c2.64943,4.86585 1.41281,9.14716 -3.63022,11.70347z" fill="#e99b00" stroke="#000000" stroke-width="1.5" stroke-linecap="butt"/><path d="M263.33746,183.22066c0,0 1.85476,0.52804 4.38146,1.4806c2.52057,0.95025 5.23245,2.90752 6.39007,5.03353c2.31805,4.25724 1.87223,6.49207 -1.79189,8.34944c-1.78261,0.9036 -3.94475,0.81371 -5.73815,0.05782c-2.51721,-1.06097 -5.09778,-2.94569 -6.41225,-5.35985c-2.31805,-4.25724 3.17076,-9.56154 3.17076,-9.56154z" fill="#ffb727" stroke="none" stroke-width="0" stroke-linecap="butt"/><path d="M278.19382,186.51836c0,0 -1.05873,4.32406 -7.04976,7.10282c-5.94234,2.75618 -10.24948,0.67958 -10.24948,0.67958" fill="none" stroke="#000000" stroke-width="0.8" stroke-linecap="round"/><path d="M279.39128,191.76918c0,0 -1.16774,2.73559 -6.91651,4.65993c-3.98908,1.33531 -8.42346,1.20439 -8.42346,1.20439" fill="none" stroke="#000000" stroke-width="0.75" stroke-linecap="round"/><path d="M276.60399,184.30282c0,0 -0.78166,2.54037 -6.65762,4.88299c-6.1092,2.43563 -10.30282,0.9395 -10.30282,0.9395" fill="none" stroke="#000000" stroke-width="0.8" stroke-linecap="round"/><path d="M260.15476,186.72147c0,0 3.8329,-1.99209 8.07278,-2.93463c3.21895,-0.7156 7.72121,-0.57007 7.72121,-0.57007" fill="none" stroke="#000000" stroke-width="0.8" stroke-linecap="round"/><path d="M268.79382,181.10908c0,0 3.61146,0.88155 6.01641,5.76785c2.57717,5.23621 2.00881,8.97085 2.00881,8.97085" fill="none" stroke="#000000" stroke-width="0.8" stroke-linecap="round"/><path d="M274.27493,197.6307c0,0 -1.59676,-2.51327 -2.35174,-4.11341c-0.63564,-1.34724 -1.36916,-4.15243 -2.42414,-6.59151c-1.19966,-2.77354 -2.68992,-5.11898 -2.68992,-5.11898" fill="none" stroke="#000000" stroke-width="0.8" stroke-linecap="round"/><path d="M271.91845,198.70187c0,0 -3.78553,-2.35813 -6.48679,-7.67762c-1.72106,-3.38922 -1.16315,-8.48453 -1.16315,-8.48453" fill="none" stroke="#000000" stroke-width="0.8" stroke-linecap="round"/><path d="M266.65639,198.77942c0,0 -2.65873,-1.90956 -4.43352,-7.08613c-1.23246,-3.59474 -0.64871,-7.29452 -0.64871,-7.29452" fill="none" stroke="#000000" stroke-width="0.8" stroke-linecap="round"/><path d="M261.56778,192.60294c-0.35958,0.18228 -0.82781,0.00551 -1.04576,-0.39484c-0.21799,-0.40031 -0.10317,-0.8726 0.25642,-1.05489c0.35958,-0.18228 0.82781,-0.00552 1.04577,0.39482c0.21799,0.40031 0.10317,0.87264 -0.25642,1.0549z" fill="#ffd683" stroke="none" stroke-width="0" stroke-linecap="butt"/><path d="M260.82054,189.52872c-0.20745,0.10516 -0.46397,0.02814 -0.57297,-0.17201c-0.10899,-0.20016 -0.02916,-0.44767 0.17828,-0.55283c0.20745,-0.10516 0.46398,-0.02814 0.57297,0.17201c0.10899,0.20016 0.02917,0.44768 -0.17828,0.55283z" fill="#ffd683" stroke="none" stroke-width="0" stroke-linecap="butt"/></g></g><path d="M272.54288,201.601c5.12927,8.36857 5.38686,10.14438 5.38686,10.14438c0.58373,1.08191 -0.55995,1.52523 -0.55995,1.52523c0,0 -2.10918,1.12113 -3.45915,1.83871c-0.88645,0.4712 -2.2714,1.20739 -2.2714,1.20739c0,0 -0.94913,0.32412 -1.25469,-0.27314c-1.83824,-3.59316 -3.79319,-6.93184 -4.53823,-8.8214c-0.24834,-0.62986 0.25595,-1.72838 0.25595,-1.72838l3.994,-2.73071c0,0 1.5702,-1.21101 2.44659,-1.16204z" fill="#582700" stroke="#000000" stroke-width="3" stroke-linecap="round"/><path d="M283.58269,197.14589c10.19457,17.52489 10.83518,21.159 10.83518,21.159c1.17248,2.25755 -0.88157,3.04164 -0.88157,3.04164c0,0 -3.75921,2.06282 -6.16524,3.38312c-1.57993,0.86697 -4.04836,2.22151 -4.04836,2.22151c0,0 -1.70876,0.56179 -2.32542,-0.68276c-3.7099,-7.48743 -7.60957,-14.46979 -9.15432,-18.38473c-0.51491,-1.30498 0.30514,-3.48541 0.30514,-3.48541l7.06086,-5.14082c0,0 2.76286,-2.30033 4.37372,-2.11155z" fill="#582700" stroke="#000000" stroke-width="3" stroke-linecap="round"/></g><path d="M218.84089,148.5733l0.07352,-12.79814l44.6905,0.23896l-0.07352,12.79814z" fill="#000000" stroke="none" stroke-width="0" stroke-linecap="butt"/><g data-paper-data="{&quot;index&quot;:null}"><g data-paper-data="{&quot;origRot&quot;:0,&quot;index&quot;:null}" stroke="#000000" stroke-width="3" stroke-linecap="round"><path d="M246.91926,222.92848c0,0 -20.73977,14.75751 -22.4458,12.85493c-3.07609,-3.43047 -7.65951,-12.93294 -7.65951,-12.93294l-12.49055,-27.07175c0,0 -2.29076,-5.17397 -1.56968,-6.07087c2.16321,-2.69067 8.40248,-4.98597 14.11148,-8.47938c0.94894,-0.58065 4.65428,4.0278 4.65428,4.0278c0,0 5.49823,7.49903 9.01741,12.29877c5.35933,7.30954 13.73262,18.72979 13.73262,18.72979c0,0 4.4832,5.70828 2.64976,6.6437z" data-paper-data="{&quot;origPos&quot;:null}" fill="#582600"/><path d="M243.10169,216.67339l-21.95397,12.39659" fill="none"/><path d="M241.59771,213.73101l-22.07633,12.19484" data-paper-data="{&quot;origPos&quot;:null}" fill="none"/></g><path d="M218.93571,225.47728l-15.8198,-34.30463l0.77449,-1.21827l13.9537,-7.82432l23.29564,30.84065z" fill="#ffcb66" stroke="#000000" stroke-width="1" stroke-linecap="round"/><path d="M221.03732,228.9451l-1.19456,-1.98451l22.50008,-12.60867l1.19456,1.98451z" fill="#ffffff" stroke="none" stroke-width="0" stroke-linecap="butt"/></g><path d="M232.24242,184.88299c-0.24151,-0.95651 0.74984,-1.18953 0.74984,-1.18953l1.14575,-0.24466c1.17987,-0.02038 2.36017,-0.01884 3.54019,-0.00757c0,0 1.0203,0.00981 1.01014,0.99423c-0.01016,0.98444 -1.03045,0.97464 -1.03045,0.97464c-1.16101,-0.01121 -2.32233,-0.01286 -3.48321,0.00735l-0.6994,0.18903c0,0 -0.99135,0.23302 -1.23285,-0.72349z" fill="#000000" stroke="none" stroke-width="0.5" stroke-linecap="butt"/></g></g></svg>