<svg version="1.1" xmlns="http://www.w3.org/2000/svg" xmlns:xlink="http://www.w3.org/1999/xlink" width="306.30631" height="274.77477" viewBox="0,0,306.30631,274.77477"><g transform="translate(-86.84685,-42.61262)"><g data-paper-data="{&quot;isPaintingLayer&quot;:true}" fill-rule="nonzero" stroke-linecap="butt" stroke-linejoin="miter" stroke-miterlimit="10" stroke-dasharray="" stroke-dashoffset="0" style="mix-blend-mode: normal"><path d="M86.84686,317.38739v-274.77477h306.30631v274.77477z" data-paper-data="{&quot;index&quot;:null}" fill="none" stroke="none" stroke-width="0"/><text transform="translate(271.55609,110.72265) rotate(-180) scale(0.1602,-0.1602)" font-size="40" xml:space="preserve" data-paper-data="{&quot;index&quot;:null}" fill="#000000" fill-rule="nonzero" stroke="none" stroke-width="1" stroke-linecap="butt" stroke-linejoin="miter" stroke-miterlimit="10" stroke-dasharray="" stroke-dashoffset="0" font-family="Sans Serif" font-weight="normal" text-anchor="start" style="mix-blend-mode: normal"><tspan x="0" dy="0">AwezomeXD</tspan><tspan x="0" dy="46.150000000000006px"> </tspan><tspan x="0" dy="46.150000000000006px">MeIzAwezomeDede</tspan></text><g data-paper-data="{&quot;index&quot;:null}"><g><g><g><path d="M201.86593,131.07995c0,0 -6.282,-10.39069 0.01487,-16.9632c4.46979,-4.66545 21.02525,-4.05636 31.35167,-8.00866c11.73875,-4.49285 33.54676,-13.89501 33.54676,-13.89501c0,0 5.91321,1.45642 7.78418,0.81591c2.33611,-0.79975 3.75762,-4.8031 3.75762,-4.8031c0,0 1.69731,3.80308 2.41486,7.08553c2.70271,12.36382 -6.8543,15.02416 -6.8543,15.02416c0,0 5.27815,4.48148 6.56495,8.58434c1.35264,4.31287 -1.53391,7.63626 -1.53391,7.63626c0,0 3.32079,2.72667 4.41791,6.1511c0.72427,2.26069 1.27246,6.15261 1.58085,8.5883c0.52629,4.15648 8.74665,6.09572 8.74665,6.09572c0,0 -2.97402,4.21017 -5.51357,5.45398c-2.58486,1.266 -9.48339,0.05017 -9.48339,0.05017c0,0 -2.21038,1.27914 -1.93249,4.13343c0.0876,0.89977 0.88809,2.80234 1.2743,3.67133c1.30267,2.93111 3.18231,6.43692 2.37285,6.7936c-2.69995,1.18967 -2.82633,2.89009 -2.82633,2.89009c0,0 3.05386,9.74263 1.3509,10.42028c-2.12423,0.84524 -5.71955,-2.2359 -8.33576,-1.94822c-2.40798,0.2648 -6.43421,-5.25774 -6.43421,-5.25774c0,0 -0.11404,7.08538 -2.62927,8.65677c-2.44079,1.52491 -2.65676,6.92711 -3.74853,7.35452c-3.97987,1.55802 -12.07548,-9.67509 -12.07548,-9.67509c0,0 -9.48927,11.36786 -12.86421,9.68127c-3.98325,-1.9906 -9.1501,-17.04779 -9.1501,-17.04779c0,0 -6.53637,-2.99438 -7.69528,-5.60986c-2.60271,-5.87389 -0.8613,-11.56607 -0.8613,-11.56607c0,0 -3.01177,1.17155 -4.23314,2.7107c-1.29821,1.63598 -3.33971,6.83241 -3.33971,6.83241c0,0 -2.67106,-5.0785 -2.945,-7.7895c-0.28807,-2.85093 1.25686,-8.91743 1.25686,-8.91743c0,0 -5.49335,-2.21496 -8.67973,-6.75788c-1.70776,-2.43479 -2.43427,-8.46691 -2.43427,-8.46691c0,0 5.11618,2.67575 6.96847,2.75905c1.43685,0.06462 0.68145,-2.8533 0.68145,-2.8533z" fill="#6d0f0a" stroke="#000000" stroke-width="2"/><path d="M199.45287,126.25064c0,0 -5.32476,-6.56192 -6.1669,-16.77608c-0.45591,-5.52975 2.09998,-13.3513 3.50241,-18.65157c1.9875,-7.51129 9.30777,-12.88808 16.04902,-15.4682c8.86184,-3.39175 17.8624,3.76122 17.8624,3.76122c0,0 8.16685,-6.78141 15.61079,-7.31445c7.19147,-0.51498 14.21436,5.6453 16.09313,7.13075c2.86222,2.26302 8.62488,14.9868 8.62488,14.9868c0,0 -19.63454,28.90476 -33.68017,34.28052c-15.00498,5.74295 -30.17532,-7.39888 -34.82867,-2.98454c-1.63734,1.55325 -3.06688,1.03556 -3.06688,1.03556z" fill="#6d0f0a" stroke="#000000" stroke-width="2"/><path d="M196.10414,95.98426c0,0 1.13919,-3.61819 1.81489,-5.24882c0.64467,-1.55569 2.15056,-4.32076 2.15056,-4.32076c0,0 9.67907,3.48753 14.27773,3.57473c4.819,0.09138 11.58521,-4.03278 11.58521,-4.03278c0,0 0.70512,2.21077 1.21533,3.04336c0.53942,0.88026 1.49491,2.27294 1.49491,2.27294c0,0 0.64923,-2.12326 0.73974,-2.971c0.09778,-0.91563 0.1572,-2.80028 0.1572,-2.80028c0,0 2.71766,3.11719 3.87378,4.23956c0.94675,0.91912 2.56115,2.0075 2.56115,2.0075c0,0 -0.668,-2.02649 -1.09364,-3.05425c-0.45067,-1.08813 -1.53956,-3.30371 -1.53956,-3.30371c0,0 10.36773,1.45095 16.5007,1.30812c0.12313,-0.00287 4.51162,-1.42756 4.85124,-1.48764c7.30227,-1.29186 2.21679,-9.49556 2.21679,-9.49556c0,0 3.69604,2.48124 5.64769,5.07346c1.97944,2.62914 6.14676,10.59216 6.14676,10.59216c0,0 -6.00818,-1.42632 -10.95779,-0.41257c-0.87828,0.17989 -10.26749,2.64978 -10.26749,2.64978c0,0 -2.00431,-1.63042 -3.00835,-2.25979c-0.98388,-0.61673 -2.95658,-1.47927 -2.95658,-1.47927c0,0 -0.58734,2.13928 -0.80631,3.41493c-0.2631,1.53255 -0.66428,5.15185 -0.66428,5.15185c0,0 -1.40704,-1.51887 -2.32831,-2.27937c-1.0249,-0.84607 -3.54331,-2.56778 -3.54331,-2.56778c0,0 -1.1188,0.83424 -1.66153,1.5134c-0.75344,0.94283 -2.43814,3.61674 -2.43814,3.61674c0,0 -1.59954,-2.50841 -2.44799,-3.58068c-0.73407,-0.92772 -2.34946,-2.48237 -2.34946,-2.48237c0,0 -1.21968,1.58086 -1.81615,2.56329c-0.74433,1.22597 -2.30531,4.22496 -2.30531,4.22496c0,0 -9.28701,-5.40346 -13.59165,-5.99979c-4.02659,-0.55783 -11.45781,2.52967 -11.45781,2.52967z" fill="#c42d06" stroke="none" stroke-width="0"/></g><path d="M224.77766,135.30076c0,0 -19.37422,-0.6677 -20.11799,-1.9285c-0.12902,-0.21871 0.07118,-9.23404 -0.39733,-10.00962c-0.85579,-1.41667 -4.7627,0.91194 -4.7627,0.91194c0,0 58.89624,-26.41128 68.24101,-30.14665c2.38066,-0.95163 5.58959,0.63984 5.58959,0.63984l-5.80311,21.67286z" fill="#6d0f0a" stroke="none" stroke-width="NaN"/></g><path d="M227.72284,73.69338c0.00344,-0.30675 0.31393,-1.62367 0.45842,-1.93585c1.10724,-2.39218 5.80215,-4.01806 5.80215,-4.01806c0,0 -1.7078,5.21091 -2.248,6.97803c-0.48149,1.57508 0.50643,5.27692 0.50643,5.27692c0,0 -4.58426,-0.47933 -4.519,-6.30104z" fill="#6d0f0a" stroke="#000000" stroke-width="1.5"/><path d="M224.11587,70.95831c0,0 1.58482,0.63276 2.47552,2.1864c0.62096,0.72167 1.64673,3.4184 1.64673,3.4184l-2.10567,-0.54699z" fill="#000000" stroke="none" stroke-width="0"/></g><path d="M231.0256,78.80201l3.63349,-1.02503c0,0 -1.59724,4.98012 -2.05183,5.27852c-0.63641,0.41777 -4.5438,-4.02843 -4.5438,-4.02843z" fill="#6d0f0a" stroke="none" stroke-width="0"/></g><g data-paper-data="{&quot;index&quot;:null}"><text transform="translate(294.68339,229.00291) rotate(-180) scale(0.27921,-0.27921)" font-size="40" xml:space="preserve" fill="#000000" fill-rule="nonzero" stroke="none" stroke-width="1" stroke-linecap="butt" stroke-linejoin="miter" stroke-miterlimit="10" stroke-dasharray="" stroke-dashoffset="0" font-family="Sans Serif" font-weight="normal" text-anchor="start" style="mix-blend-mode: normal"><tspan x="0" dy="0">AwezomeXD</tspan><tspan x="0" dy="46.150000000000006px"> </tspan><tspan x="0" dy="46.150000000000006px">MeIzAwezomeDede</tspan></text><g data-paper-data="{&quot;index&quot;:null}"><g><path d="M304.61433,280.72712c-0.97394,-0.3343 -2.81981,-1.05375 -2.81981,-1.05375l2.00112,-62.99775c0,0 3.12264,-3.42551 4.77674,-5.10754c1.78782,-1.81801 6.83093,-5.9246 6.83093,-5.9246c0,0 5.94054,0.17965 11.08569,1.75457c7.39586,2.26385 29.04162,10.52827 29.04162,10.52827c0,0 -0.29139,23.00613 -1.11993,33.98866c-0.74728,9.90532 -3.63272,29.00908 -3.63272,29.00908c0,0 -14.3168,1.48011 -21.61682,1.59314c-7.15813,0.11083 -21.76596,-0.92143 -21.76596,-0.92143c0,0 -1.89659,-0.56514 -2.78087,-0.86866z" fill="#434253" stroke="#000000" stroke-width="2.5"/><path d="M306.04174,281.58896c0,0 3.19421,-16.34268 5.26935,-30.13714c1.48339,-9.86081 2.04443,-18.33187 2.06476,-19.00203c0.15509,-5.11269 -0.3723,-9.50368 -0.00091,-14.70459c0.49814,-6.97594 1.18056,-11.43244 1.18056,-11.43244l2.10035,-1.22928c0,0 -1.17975,18.14658 -2.93073,35.27697c-0.73182,7.15966 -2.77258,22.22022 -3.75528,31.64788c-0.10799,1.03599 0.50491,2.39047 0.4064,3.33489c-0.55015,5.27458 -0.93311,6.24975 -0.93311,6.24975l-3.40139,-0.00403z" fill="#000000" stroke="none" stroke-width="0"/></g><g stroke="#000000" stroke-width="1.5"><path d="M345.29834,263.35315c0.94113,9.66742 -4.93088,16.17699 -12.88074,16.95092c-7.94986,0.77393 -14.77082,-5.25083 -14.91119,-14.96294c-0.15638,-10.82018 5.8426,-16.14324 12.54261,-16.73861c6.71115,-0.59636 14.44659,6.50489 15.24932,14.75063z" fill="#2c262f"/><path d="M323.67439,268.45717c-0.26544,-2.72671 1.31874,-5.06632 3.56101,-5.2846c2.24227,-0.21828 3.76096,1.25807 4.0264,3.98478c0.26545,2.72671 -1.3891,5.14677 -3.63137,5.36505c-2.24227,0.21828 -3.69059,-1.33852 -3.95603,-4.06523z" data-paper-data="{&quot;index&quot;:null}" fill="#1b171c"/></g><g stroke="#000000" stroke-width="1.5"><path d="M334.90074,214.226c6.72176,-0.46163 14.18059,7.06601 14.65957,15.33688c0.56156,9.69688 -5.56103,15.97134 -13.53511,16.43313c-7.97408,0.46179 -14.55372,-5.82563 -14.31338,-15.53578c0.26776,-10.81801 6.4647,-15.77245 13.18893,-16.23424z" fill="#2c262f"/><path d="M327.75298,233.81559c-0.15839,-2.73501 1.51626,-5.01074 3.76536,-5.14099c2.2491,-0.13025 3.70876,1.40448 3.86715,4.1395c0.15839,2.73502 -1.58973,5.08838 -3.83883,5.21863c-2.2491,0.13025 -3.6353,-1.48212 -3.79369,-4.21714z" data-paper-data="{&quot;index&quot;:null}" fill="#1b171c"/></g></g><g><g><path d="M178.20552,279.80011c0,0 -1.84588,0.71945 -2.81982,1.05375c-0.88428,0.30352 -2.78086,0.86866 -2.78086,0.86866c0,0 -14.60784,1.03226 -21.76596,0.92143c-7.30001,-0.11302 -21.61681,-1.59314 -21.61681,-1.59314c0,0 -2.88544,-19.10377 -3.63272,-29.00909c-0.82854,-10.98252 -1.11993,-33.98866 -1.11993,-33.98866c0,0 21.64575,-8.26442 29.04162,-10.52827c5.14515,-1.57491 11.08569,-1.75457 11.08569,-1.75457c0,0 5.04312,4.1066 6.83094,5.9246c1.6541,1.68203 4.77674,5.10754 4.77674,5.10754l2.00112,62.99775z" fill="#434253" stroke="#000000" stroke-width="2.5"/><path d="M173.95829,281.71568l-3.40139,0.00403c0,0 -0.38295,-0.97517 -0.93311,-6.24976c-0.0985,-0.94441 0.51439,-2.2989 0.40641,-3.33488c-0.98271,-9.42766 -3.02346,-24.48823 -3.75529,-31.64789c-1.75097,-17.13039 -2.93073,-35.27697 -2.93073,-35.27697l2.10035,1.22928c0,0 0.68243,4.4565 1.18057,11.43244c0.37139,5.20091 -0.156,9.59191 -0.00092,14.70459c0.02033,0.67016 0.58138,9.14123 2.06477,19.00203c2.07514,13.79446 5.26935,30.13713 5.26935,30.13713z" fill="#000000" stroke="none" stroke-width="0"/></g><g stroke="#000000" stroke-width="1.5"><path d="M134.7017,263.47988c0.80273,-8.24574 8.53818,-15.34698 15.24933,-14.75062c6.70001,0.59537 12.69899,5.91843 12.54261,16.73861c-0.14037,9.71211 -6.96134,15.73687 -14.9112,14.96294c-7.94986,-0.77392 -13.82187,-7.2835 -12.88074,-16.95092z" fill="#2c262f"/><path d="M152.76464,263.29933c2.24227,0.21828 3.82645,2.55788 3.56101,5.28459c-0.26545,2.72671 -1.71376,4.28351 -3.95603,4.06523c-2.24227,-0.21829 -3.89681,-2.63834 -3.63137,-5.36505c0.26544,-2.72671 1.78413,-4.20306 4.0264,-3.98478z" data-paper-data="{&quot;index&quot;:null}" fill="#1b171c"/></g><g stroke="#000000" stroke-width="1.5"><path d="M130.43974,229.68962c0.47898,-8.27087 7.9378,-15.79851 14.65956,-15.33689c6.72423,0.46179 12.92117,5.41624 13.18893,16.23424c0.24034,9.71016 -6.33929,15.99758 -14.31338,15.53579c-7.97409,-0.46179 -14.09668,-6.73625 -13.53512,-16.43313z" fill="#2c262f"/><path d="M152.24709,233.94234c-0.15839,2.73501 -1.54458,4.34738 -3.79368,4.21713c-2.2491,-0.13025 -3.99721,-2.48361 -3.83882,-5.21863c0.15839,-2.73501 1.61804,-4.26975 3.86714,-4.1395c2.2491,0.13025 3.92375,2.40598 3.76536,5.141z" data-paper-data="{&quot;index&quot;:null}" fill="#1b171c"/></g></g><g stroke="#000000"><g fill="#434253"><path d="M302.93639,282.15584c0,0 -39.39406,0.31655 -59.64769,0.31655c-21.72904,0 -66.6118,-0.31655 -66.6118,-0.31655c0,0 -2.38216,-40.33861 -2.16309,-60.75635c0.20152,-18.78125 2.16309,-54.08575 2.16309,-54.08575c0,0 42.82931,-1.2662 64.39595,-1.2662c21.14461,0 59.33114,1.58275 59.33114,1.58275c0,0 4.66352,44.84767 4.63123,67.07726c-0.03994,25.54257 -2.09882,47.44828 -2.09882,47.44828z" stroke-width="2.5"/><path d="M182.62639,273.74784c1.29409,0 2.34316,0.94416 2.34316,2.10884c0,1.16468 -1.04906,2.10884 -2.34316,2.10884c-1.29409,0 -2.34316,-0.94416 -2.34316,-2.10884c0,-1.16468 1.04906,-2.10884 2.34316,-2.10884z" stroke-width="2"/><path d="M296.08665,273.11069c1.29409,0 2.34316,0.94416 2.34316,2.10884c0,1.16468 -1.04907,2.10884 -2.34316,2.10884c-1.29409,0 -2.34316,-0.94416 -2.34316,-2.10884c0,-1.16468 1.04907,-2.10884 2.34316,-2.10884z" stroke-width="2"/><path d="M291.83153,175.44763c-0.48529,-1.12251 0.08425,-2.44878 1.27209,-2.9623c1.18785,-0.51352 2.54417,-0.01985 3.02946,1.10266c0.48528,1.12251 -0.08426,2.44879 -1.2721,2.96231c-1.18785,0.51352 -2.54417,0.01984 -3.02946,-1.10267z" stroke-width="2"/><path d="M180.91758,172.05909c1.18784,-0.51352 2.54418,-0.01985 3.02946,1.10266c0.48528,1.12251 -0.08426,2.44879 -1.2721,2.96231c-1.18784,0.51352 -2.54417,0.01984 -3.02945,-1.10267c-0.48528,-1.12251 0.08425,-2.44878 1.27209,-2.9623z" stroke-width="2"/></g><g><path d="M187.36313,208.89735c-2.36044,-6.40232 -2.14847,-24.22034 1.17777,-27.70117c8.80798,-9.21732 26.01104,-9.48636 48.15555,-9.48636c20.7312,0 40.80646,1.21551 50.19223,9.11804c4.42593,3.72649 4.09175,24.72433 0.61728,30.38921c-5.21713,8.50616 -20.51325,11.67052 -51.0204,11.67052c-30.50715,0 -45.72795,-4.44989 -49.12243,-13.65691z" fill="#434253" stroke-width="2"/><path d="M191.46433,207.31701c-2.1792,-5.67588 -1.98352,-21.47217 1.08734,-24.55804c8.13172,-8.17147 24.01396,-7.77733 44.45825,-7.77733c19.1395,0 37.67343,0.44494 46.33857,7.45081c4.08612,3.30367 3.77759,21.91897 0.56988,26.94108c-4.81657,7.54101 -18.93828,9.50278 -47.10314,9.50278c-28.16487,0 -42.21704,-3.39695 -45.3509,-11.55929z" fill="#2c262f" stroke-width="1.5"/><path d="M216.73027,204.30874c-0.84859,-2.4182 -0.77238,-9.14817 0.42343,-10.4629c3.16654,-3.48144 9.35117,-4.21571 17.31229,-4.21571c7.45303,0 14.67023,1.09175 18.04449,4.07659c1.59116,1.40752 1.47102,9.33853 0.22192,11.47819c-1.8756,3.21283 -7.37467,4.61891 -18.34223,4.61891c-10.96755,0 -16.43956,-1.85087 -17.65989,-5.32841z" fill="#1b171c" stroke-width="1.5"/></g><g><path d="M187.36313,264.28153c-2.36044,-6.40232 -2.14847,-24.22034 1.17777,-27.70116c8.80798,-9.21732 26.01104,-9.48637 48.15555,-9.48637c20.7312,0 40.80646,1.21551 50.19223,9.11804c4.42593,3.7265 4.09175,24.72433 0.61728,30.38921c-5.21713,8.50616 -20.51325,11.67052 -51.0204,11.67052c-30.50715,0 -45.72795,-4.4499 -49.12243,-13.65692z" fill="#434253" stroke-width="2"/><path d="M191.46433,262.70117c-2.1792,-5.67588 -1.98352,-21.47217 1.08734,-24.55804c8.13172,-8.17147 24.01396,-7.77734 44.45825,-7.77734c19.1395,0 37.67343,0.44494 46.33857,7.45081c4.08612,3.30367 3.77759,21.91898 0.56988,26.94109c-4.81657,7.54101 -18.93828,9.50278 -47.10314,9.50278c-28.16487,0 -42.21704,-3.39695 -45.3509,-11.55929z" fill="#2c262f" stroke-width="1.5"/><path d="M216.73027,259.69291c-0.84859,-2.41819 -0.77238,-9.14816 0.42343,-10.46289c3.16654,-3.48144 9.35117,-4.21571 17.31229,-4.21571c7.45303,0 14.67023,1.09175 18.04449,4.07659c1.59116,1.40752 1.47102,9.33852 0.22192,11.47818c-1.8756,3.21283 -7.37467,4.61891 -18.34223,4.61891c-10.96755,0 -16.43956,-1.85087 -17.65989,-5.32842z" fill="#1b171c" stroke-width="1.5"/></g></g></g><g data-paper-data="{&quot;index&quot;:null}"><g><path d="M252.72902,159.43962c0,-4.62307 -8.31164,-15.53073 -3.73249,-15.53073c1.19692,0 4.33434,2.33459 7.33998,4.85516c1.41985,1.19071 3.53653,2.34172 4.48317,3.77227c0.87001,1.31474 0.76105,2.94412 0.86557,3.34049c0.13844,0.52495 1.03716,2.14097 1.03716,2.14097c0,0 1.8039,1.97795 5.149,3.90074c2.24923,1.29287 4.14929,0.66077 6.46625,2.01002c1.47848,0.86098 5.03254,2.7213 3.79076,4.97488c-0.17766,0.32243 -5.01359,0.24975 -5.01359,0.24975c0,0 -1.35752,1.6276 -2.56838,2.04842c-3.15564,1.09671 -5.19691,-1.08587 -5.98938,-1.03821c-2.54858,0.15328 -6.58403,-0.10553 -6.58403,-0.10553c0,0 -0.42005,-0.10557 -1.65449,-0.80571c-5.13138,-2.91039 -3.58953,-7.69547 -3.58953,-9.81253z" fill="#ffd5d5" stroke="#000000" stroke-width="1.5"/><path d="M254.06587,166.12692c0,0 7.13636,1.48578 9.7415,0.65935c0.10286,-0.03263 1.06975,-0.82199 2.40324,-1.24686c1.1186,-0.35642 2.5965,-0.36275 3.05256,-0.36185c1.15451,0.00229 1.57584,1.90079 2.564,1.90079c3.98375,0 4.90558,-0.51035 4.90558,-0.51035c0,0 0.54267,0.54917 0.72777,1.15381c0.13206,0.43135 0.02618,0.94264 -0.33378,1.06756c-1.37244,0.47629 -4.6915,0.20759 -4.6915,0.20759c0,0 -1.70625,1.7083 -2.49617,1.73805c-5.26836,0.19843 -4.27856,-1.18226 -5.20649,-1.18226c-3.57982,0 -5.6791,-0.08543 -6.90268,-0.35945c-0.17198,-0.03852 -1.28895,-0.5453 -2.04396,-1.13084c-1.09092,-0.84606 -1.72006,-1.93553 -1.72006,-1.93553z" fill="#fb95a9" stroke="none" stroke-width="0"/><path d="M264.59012,166.10442c0,0 1.52956,-1.17823 3.78012,-1.43765c0.70893,-0.08172 2.80915,-0.06303 3.67136,0.94108c1.13268,1.3191 0.95601,3.72747 0.95601,3.72747l-2.04682,1.52047c0,0 0.79727,-4.96196 -1.74492,-4.96196c-2.04567,0 -4.61576,0.21059 -4.61576,0.21059z" fill="#000000" stroke="none" stroke-width="0"/><path d="M263.71559,158.87903l-0.13675,3.79055l-2.53012,-6.19124z" fill="#000000" stroke="none" stroke-width="0"/></g><path d="M245.72968,140.84214c0,-3.1402 -3.1386,-10.10814 -0.6838,-10.10814c2.4548,0 7.87809,-0.70437 7.87809,2.43583c0,1.6451 2.95045,8.01008 2.7029,11.02958c-0.22497,2.74415 0.84499,4.53972 -0.32376,4.53972c-2.4548,0 -9.57342,-4.75679 -9.57342,-7.89699z" fill="#fb95a9" stroke="#000000" stroke-width="2"/></g><g data-paper-data="{&quot;index&quot;:null}"><path d="M228.93006,130.87586c2.41131,-2.95149 10.53162,-0.25987 12.59919,3.86227c0.26008,0.51854 1.70637,-0.66733 5.40284,0.98163c0.86997,0.38809 5.3323,2.85511 7.98427,6.04894c1.26983,1.52929 2.1246,3.99593 1.97118,5.03194c-0.22905,2.80784 -2.67033,5.18657 -4.85989,7.14774c-2.87249,2.57284 1.75248,7.33006 -2.40533,7.33006c-3.03121,0 -16.54137,0.60747 -18.69314,-0.7284c-1.28409,-0.79719 -0.53199,-7.61244 -0.88049,-9.01861c-0.48674,-1.96396 -4.99822,-4.40189 -4.99822,-6.61256c0,-2.58633 2.29137,-12.099 3.87959,-14.04301z" fill="#ee1536" stroke="#000000" stroke-width="2"/><path d="M245.04205,151.06497c0,-3.14019 3.56399,-6.94934 7.26523,-7.10728c3.22449,-0.13759 3.97211,2.15654 3.0535,5.15937c-1.10558,3.61402 -4.40634,5.42259 -7.63376,5.42259c-0.06272,0 2.08362,-1.58996 2.84464,-0.28992c1.01358,1.73146 0.66979,6.51156 0.03616,6.86773c-2.98614,1.67855 -13.402,-0.74155 -16.31172,-0.67209c-0.60085,0.01435 -2.90823,0.59035 -3.45604,-1.26733c-0.44915,-1.5231 0.38106,-5.65028 0.34354,-5.65555c-0.60286,-0.08461 -1.36799,-4.06688 -1.36799,-4.06688c0,0 -2.86476,-2.27685 -2.9505,-2.85725c-0.15338,-1.03828 2.10836,-2.8435 2.10836,-2.8435c0,0 1.25189,1.00644 1.97555,1.57762c0.66583,0.52553 1.57561,2.98741 1.57561,2.98741c0,0 4.12841,-5.5717 8.29185,-4.21031c5.58397,1.82588 4.22558,7.21129 4.22558,6.95539z" fill="#9a1652" stroke="none" stroke-width="0"/><path d="M231.55239,160.05495c0.86132,-1.55025 8.52088,-5.58592 9.70316,-7.17085c2.60911,-3.4977 4.57621,-6.08348 4.57621,-6.08348c0,0 0.91108,5.32297 -0.66029,9.58239c-1.16307,3.15265 6.61433,5.47453 5.8723,5.47453c-1.74455,0 -20.27813,-0.38656 -19.49138,-1.80259z" fill="#000000" stroke="none" stroke-width="0"/></g><g data-paper-data="{&quot;index&quot;:null}"><path d="M220.32043,137.45034c0.8478,-4.14085 1.05969,-6.42267 6.00865,-6.09581c3.43927,0.22716 5.83687,5.73249 5.6375,9.96913c-0.21476,4.52163 -3.06549,5.65486 -5.22987,10.53241c-0.32418,0.45941 -0.41178,3.38171 -0.38937,5.48931c0.00209,0.19637 -0.33717,0.64155 -0.76323,1.19886c-0.26544,0.34721 -0.56457,0.73794 -0.83585,1.13913c-0.58792,0.86949 -1.00834,1.82799 -1.00967,2.13136c-0.00063,0.14475 0.8938,0.60237 1.37429,-0.09778c0.59429,-0.86598 0.82022,-2.95493 1.09309,-3.06424c0.60322,-0.24166 -0.26637,2.60026 -0.44615,3.21905c-0.2653,0.91315 -0.4921,0.66222 -0.44475,1.82724c0.09045,2.22613 1.56896,3.47855 2.62602,4.72835c0.70741,0.83638 0.22384,1.81466 0.01145,1.9624c-0.37801,0.26293 -3.54371,-0.54963 -4.05789,-0.44182c-0.39765,0.08337 -1.34654,-0.41873 -3.49097,-0.28041c-0.82355,0.05311 -1.65645,0.78963 -2.63719,0.84893c-0.71638,0.04333 -1.3057,-0.16408 -1.95166,-0.32401c-0.22206,-0.05499 -1.02829,-0.55039 -1.25815,-0.54454c-0.34771,0.00886 -0.82528,0.50283 -1.23178,0.65734c-0.77623,0.29504 -1.60661,0.71437 -2.28854,0.71848c-3.18977,0.01924 -3.26689,-1.95321 -3.26689,-1.95321c0,0 -3.04432,0.06523 -4.03211,-0.43704c-0.75092,-0.38184 -1.55925,-1.0384 -1.38133,-2.31557c0.24894,-1.78689 1.10352,-2.41723 3.08465,-3.31488c2.98491,-1.35246 6.06524,-0.60025 9.46825,-4.05899c3.20388,-3.25635 4.43719,-15.90721 4.7865,-17.61337z" fill="#ffd5d5" stroke="#000000" stroke-width="1.5"/><path d="M207.56715,168.21332c0,0 -3.07229,0.00288 -3.71369,-0.29952c-0.71612,-0.33762 -0.72723,-1.63219 -0.72723,-1.63219c0,0 2.41577,-0.1142 3.38045,-0.2436c0.79242,-0.10629 2.33677,-0.57054 2.33677,-0.57054l-0.52435,2.94002c0,0 1.64547,0.73102 3.17917,0.8577c0.82685,0.0683 0.81717,-1.93904 3.46531,-1.93904c0.98114,0 3.17859,1.30824 4.02568,0.79721c2.1093,-1.2725 5.04158,-5.36843 5.04158,-5.36843c0,0 0.81464,0.24912 0.81464,0.64519c0,0.49924 3.67599,6.40357 3.15662,6.35213c-0.73361,-0.07266 -6.5234,-0.97537 -7.38145,-0.99626c-0.84998,-0.0207 -2.23775,0.97666 -3.09742,0.94459c-0.46569,-0.01736 -0.92766,-0.12958 -1.38038,-0.23592c-0.43517,-0.10222 -0.94769,-0.57256 -1.3608,-0.57442c-0.55722,-0.00251 -0.93268,0.43834 -1.3338,0.53975c-1.2246,0.30959 -1.88782,0.93698 -3.00328,0.86589c-1.46527,-0.09337 -2.87782,-2.08254 -2.87782,-2.08254z" fill="#fb95a9" stroke="none" stroke-width="0"/><path d="M207.3119,168.3117c0,0 1.25348,-3.24591 2.41663,-3.57721c0.61518,-0.17522 1.83386,-0.26084 2.78582,0.09324c0.96988,0.36074 1.90801,1.42448 1.90801,1.42448c0,0 -2.47695,-0.59431 -3.78841,-0.19612c-1.72244,0.52296 -1.74386,3.59542 -1.74386,3.59542z" fill="#000000" stroke="none" stroke-width="0"/><path d="M221.18195,167.867l-0.94496,1.96113l-1.41743,-0.18677z" fill="#000000" stroke="none" stroke-width="0"/></g><g data-paper-data="{&quot;index&quot;:null}"><g><path d="M259.82511,111.97182c2.96573,-0.00664 5.37659,2.95787 5.38479,6.62142c0.00821,3.66355 -2.38935,6.63884 -5.35508,6.64548c-2.96573,0.00665 -5.37658,-2.95786 -5.38478,-6.62141c-0.00821,-3.66356 2.38934,-6.63885 5.35507,-6.64549z" fill="#fb95a9" stroke="#000000" stroke-width="2"/><path d="M240.55646,134.59323c-25.00516,-3.63986 -27.69654,-6.48424 -29.41188,-16.57419c-1.71535,-10.08996 12.954,-11.11395 27.22897,-13.54078c14.27496,-2.42683 21.64546,-4.29532 23.36081,5.79464c0.27981,1.64596 -1.25211,11.76116 -1.25211,11.76116c0,0 7.88551,4.04315 7.08848,8.03539c-0.87497,4.30899 -17.5555,5.90064 -27.01429,4.52378z" fill="#ffd5d5" stroke="#000000" stroke-width="2"/><path d="M213.12925,110.84626c0,0 26.46122,-8.5219 32.57317,-9.56097c11.58049,-1.96875 14.36701,4.22025 15.1662,8.92126c0.34906,2.05328 -1.20915,10.46826 -1.20915,10.46826c0,0 -3.95848,-5.28049 -6.09367,-6.54821c-2.43197,-1.44393 -7.51641,-1.69098 -7.51641,-1.69098l-5.6114,7.01164l-6.78268,-7.26009c0,0 -2.83866,5.56634 -5.11019,7.83446c-2.42199,2.41835 -8.99936,6.25387 -8.99936,6.25387l-4.02334,-0.24828c0,0 -3.12187,-4.92869 -3.52842,-7.50769c-0.39053,-2.47723 1.13525,-7.67332 1.13525,-7.67332z" fill="#fb95a9" stroke="none" stroke-width="0"/><path d="M204.907,121.536c-0.53606,-3.1531 -0.73367,-3.82698 0.96846,-5.61162c1.36461,-1.43074 8.08489,2.32352 8.62094,5.47662c0.53606,3.15311 0.0839,6.28717 -1.86531,6.61854c-1.9492,0.33136 -7.08214,-2.70762 -7.72408,-6.48356z" fill="#ffd5d5" stroke="#000000" stroke-width="2.5"/><path d="M212.5937,127.17146c-0.69565,0.11826 -3.45464,-0.90863 -4.73809,-2.43046c-0.80126,-0.95008 -1.32914,-2.21413 -1.66756,-3.31843c-0.41502,-1.35424 0.51289,-2.13792 1.85555,-1.61637c2.24566,0.87232 5.28755,2.27961 5.50714,3.57121c0.35087,2.06385 0.70551,3.5114 -0.95704,3.79404z" fill="#fb95a9" stroke="none" stroke-width="0"/><path d="M207.70347,119.13812c-0.10721,-0.63063 6.45663,5.31056 6.45663,5.31056l-0.59685,2.77156c0,0 -5.75256,-7.45151 -5.85977,-8.08214z" fill="#000000" stroke="none" stroke-width="0"/><path d="M211.71402,128.19001c-0.53731,-1.78993 0.92708,-3.50273 2.98454,-4.05696c2.05743,-0.55421 4.30793,-1.34362 5.44305,1.66164c0.19981,0.52901 1.41509,4.00734 0.00929,5.87142c-0.21912,0.29056 -1.5071,1.42967 -2.89622,1.71192c-1.91839,0.38979 -3.14177,0.02732 -3.14177,0.02732c0,0 2.07689,-1.90805 1.84797,-2.0389c-0.73011,-0.41732 -3.79543,-1.67255 -4.24687,-3.17643z" fill="#6d0f0a" stroke="#000000" stroke-width="2"/><path d="M198.77306,127.70901c-7.48456,-3.39731 -10.27958,-7.22757 -10.27958,-7.22757c0,0 6.62693,-0.96613 8.6831,-3.27639c2.07258,-2.32873 3.49177,-11.88658 3.49177,-11.88658c0,0 23.08308,-1.61831 32.75445,-3.2625c8.95557,-1.52248 16.81664,-2.83438 22.57582,-3.78794c6.25964,-1.03641 12.03619,1.18101 13.40849,5.96475c0.33961,1.18384 0.79605,2.77831 0.99368,4.14074c0.90333,6.22729 -0.82649,12.10431 -0.82649,12.10431c0,0 -5.93835,-7.02804 -8.79273,-10.05782c-3.53024,-3.74714 -9.10222,-6.86983 -9.10222,-6.86983c0,0 -0.47486,3.97834 -1.81828,6.65003c-1.39068,2.76564 -4.55307,2.97891 -4.55307,2.97891c0,0 -0.57535,-3.13466 -1.33301,-4.5238c-0.69743,-1.27875 -1.98991,-3.69015 -1.92823,-2.51903c0.06204,1.17809 -0.17833,4.02359 -0.25527,5.41883c-0.19917,3.61116 -0.70786,4.15102 -0.70786,4.15102c0,0 -2.18025,-2.99373 -4.35347,-5.779c-1.84781,-2.36822 -4.57244,-3.51813 -4.57244,-3.51813c0,0 -4.16533,5.02298 -6.62274,7.14133c-2.21989,1.9136 -7.10539,4.95299 -7.10539,4.95299c0,0 3.11254,7.80439 -0.9173,7.88178c-2.84815,0.05471 -4.12472,-0.31872 -5.74693,-1.35304c-0.97251,-0.62008 -1.57148,-3.56015 -1.57148,-3.56015l2.13618,0.30039c0,0 -1.92014,-6.04794 -3.28984,-6.25418c-2.41169,-0.36313 -0.67779,-0.87291 -4.11825,-0.19966c-0.50077,0.098 -1.52819,3.27129 -0.98956,6.0601c0.57828,2.99407 2.74521,5.61442 2.74521,5.61442c0,0 -4.2495,2.37508 -7.90453,0.71603z" fill="#6d0f0a" stroke="#000000" stroke-width="1.5"/><path d="M244.84986,103.16555c-0.96677,0.16436 -2.39723,-0.75277 -4.36858,-0.56112c-2.13577,0.20762 -4.82132,1.526 -5.9303,1.75366c-16.01657,3.28816 -33.76969,7.35914 -33.76969,7.35914c0,0 0.35657,-2.67367 0.23063,-3.94052c-0.13455,-1.35348 -0.70238,-3.99064 -0.70238,-3.99064c0,0 22.14164,-0.93286 35.11671,-3.13869c8.32568,-1.41542 17.04184,-3.24625 22.64456,-3.39848c5.93251,-0.1612 8.94915,1.32532 8.94915,1.32532l1.9906,6.66302l-2.6091,-0.25978l-7.03179,-5.39473c0,0 -10.08517,2.82888 -14.51983,3.58281z" fill="#6d0f0a" stroke="none" stroke-width="0"/><path d="M238.74833,131.49657c-1.24152,0.03635 -1.92784,-1.08207 -2.48862,-2.17376c-0.63263,-1.23161 -1.05367,-2.46713 -0.95456,-2.68787c0.15251,-0.33967 9.01918,0.68681 9.09997,1.06963c0.07708,0.36526 -1.11415,1.36384 -2.70911,2.35816c-0.89865,0.56023 -1.87729,1.4025 -2.94768,1.43383z" fill="#ef3d61" stroke="#000000" stroke-width="1.5"/><path d="M243.64279,119.61026c-0.32552,-1.91478 -0.29762,-5.29007 2.45115,-6.86728c0.49352,-0.2832 1.70459,-0.3756 3.07808,-0.14696c1.40779,0.23435 2.64109,0.80944 2.99622,0.94526c0.70159,0.26836 1.89807,-0.23636 1.89807,-0.23636c0,0 1.1431,-0.7851 1.76938,-1.3741c0.52577,-0.49447 1.65503,-2.42444 1.65503,-2.42444c0,0 0.15997,1.49368 -0.79046,3.24549c-0.39165,0.72188 -1.54279,2.05695 -1.54279,2.05695c0,0 1.03721,-0.02647 2.16672,-0.40707c0.84843,-0.28588 2.83711,-1.87257 2.83711,-1.87257c0,0 -0.74069,1.82555 -1.32063,2.64069c-0.40046,0.56288 -1.47828,1.32983 -1.47828,1.32983l-0.07544,1.03805c0,0 -1.73421,-1.62062 -2.57663,-1.91885c-0.68114,-0.24113 -2.24334,0.1607 -2.24334,0.1607c0,0 0.96405,7.65634 -3.86919,8.34986c-3.76851,0.54075 -4.41895,-1.36607 -4.95499,-4.51917z" fill="#000000" stroke="none" stroke-width="0"/><path d="M220.82613,112.53807c0,0 1.7717,1.4864 2.71387,1.94824c0.86712,0.42504 2.2292,0.27317 2.2292,0.27317c0,0 -0.42855,-0.69854 -0.85927,-1.42739c-0.44921,-0.76016 -1.27481,-2.98756 -1.27481,-2.98756c0,0 1.4836,1.57857 2.21122,2.099c0.69584,0.4977 2.30628,1.13072 2.30628,1.13072c0,0 2.54846,-0.48225 4.22854,-0.76787c4.39798,-0.74768 7.78085,1.88133 7.78085,1.88133c0,0 -2.50335,-0.26546 -3.37341,-0.32761c-0.61803,-0.04417 -1.33091,0.12823 -1.33091,0.12823c0,0 1.57561,8.3652 -4.69456,9.50236c-5.1356,0.9314 -4.88719,-6.24405 -5.1492,-6.591c-0.18982,-0.25136 -1.211,-0.98037 -1.211,-0.98037c0,0 -1.55275,-0.65434 -2.11895,-1.25529c-0.61596,-0.65376 -1.45782,-2.62596 -1.45782,-2.62596z" fill="#000000" stroke="none" stroke-width="0"/></g><path d="M268.57418,103.29699c0,0 -0.78102,-2.65164 -1.27346,-3.96845c-0.4709,-1.25918 -1.61953,-3.76721 -1.61953,-3.76721c0,0 1.16508,0.51981 2.11461,2.73547c0.62058,1.44808 2.16734,5.21489 2.16734,5.21489z" fill="#000000" stroke="none" stroke-width="0"/></g><g data-paper-data="{&quot;index&quot;:null}"><path d="M255.19958,182.67555c-1.00101,-2.204 -1.48204,-4.3489 -0.72825,-4.96606c2.33239,-1.90961 13.28484,-2.98899 13.38878,-2.98899c6.31528,0 14.84633,4.70166 14.84633,7.42317c0,2.15815 -5.66177,5.08636 -11.867,4.87772c-9.17694,-0.30857 -12.61375,-4.42959 -12.80984,-4.64776c-0.77835,-0.86597 0.94691,1.54978 1.61014,2.51138c0.76014,1.10213 2.09503,1.87099 1.91005,2.94778c-0.21138,1.23048 -1.04517,0.91066 -1.93413,0.37576c-1.07219,-0.64516 -2.75079,-1.86638 -4.41608,-5.533z" fill="#ee1536" stroke="#000000" stroke-width="1.5"/><path d="M224.16344,165.33483c0,-3.59654 1.88208,-6.79388 5.00437,-9.12732c4.14737,-3.09953 10.28977,-4.77137 15.23297,-4.77137c5.31995,0 12.36793,-0.19935 14.37465,2.09274c0.5447,0.62216 0.11605,3.35746 0.47021,5.96384c0.20355,1.49801 1.01152,5.12835 2.06489,8.05201c0.76659,2.12772 1.6857,4.5633 2.81912,4.87357c4.6996,1.28652 11.33458,3.83886 9.65309,6.39177c-1.27777,1.93997 -8.71321,2.17386 -14.6326,0.37436c-5.32793,-1.61969 -9.13974,-5.17457 -11.08352,-5.65964c-3.29754,-0.8229 -10.29591,1.43415 -13.65474,0.96798c-2.18858,-0.30375 -4.10262,-1.02669 -5.53901,-1.79684c-3.55989,-1.90871 -4.7094,-5.13615 -4.7094,-7.3611z" fill="#ffd5d5" stroke="#000000" stroke-width="1.5"/><path d="M254.40497,161.63252c0,0 1.5473,-1.13661 2.20683,-1.84011c0.59795,-0.63781 1.58373,-2.20314 1.58373,-2.20314c0,0 0.47515,2.43192 0.69523,3.67533c0.19897,1.12418 0.56829,3.46354 0.56829,3.46354c0,0 -2.16472,-0.56777 -3.07746,-1.12683c-0.7315,-0.44803 -1.97661,-1.96878 -1.97661,-1.96878z" fill="#fb95a9" stroke="none" stroke-width="0"/><path d="M275.08882,178.59434c0.16969,-0.35395 1.67522,-0.13645 2.97302,0.48578c1.2978,0.62223 2.68613,2.36122 2.51643,2.71517c-0.1697,0.35394 -1.51728,-1.12707 -2.81508,-1.7493c-1.29779,-0.62223 -2.84406,-1.0977 -2.67436,-1.45165z" fill="#fc9ea5" stroke="none" stroke-width="0"/></g><g data-paper-data="{&quot;index&quot;:null}"><path d="M231.01662,186.66842c2.5441,-6.35721 7.6863,-8.12709 12.34285,-6.26357c4.65656,1.86351 6.54811,7.90162 4.004,14.25883c-2.5441,6.35722 -11.22418,11.88722 -14.69074,10.29339c-3.43224,-1.57805 -4.378,-11.60389 -1.83389,-17.9611z" fill="#ee1536" stroke="#000000" stroke-width="1.5"/><path d="M233.5181,183.89079c0,0 2.00422,-2.86118 4.30555,-3.50609c0.77193,-0.21631 4.08674,0.23689 6.56763,1.86017c1.68622,1.10331 2.8021,3.19439 3.19142,4.24588c0.67057,1.81111 0.10967,3.76134 0.10967,3.76134c0,0 -1.81828,1.66589 -5.43619,1.54424c-1.90251,-0.06397 -4.61734,-2.13774 -6.33064,-4.2466c-1.54479,-1.90145 -2.40744,-3.65892 -2.40744,-3.65892z" fill="#9a1652" stroke="none" stroke-width="0"/><path d="M237.96926,174.10227c0.55432,-7.08643 2.21505,-10.84502 10.62649,-10.5467c4.91806,0.17442 6.52345,5.86357 6.20118,8.26798c-1.07822,8.0444 -9.74893,15.13352 -9.74893,15.13352c0,0 1.38491,8.01261 -6.9327,9.02219c-4.06733,0.49369 -4.09452,-6.52097 -3.42123,-8.22854c1.22234,-3.10001 3.42075,-4.916 3.42075,-4.916c0,0 -0.3919,-5.5836 -0.14558,-8.73245z" fill="#ffd5d5" stroke="#000000" stroke-width="1.5"/><path d="M245.10261,175.45959c-0.98594,-0.64 -1.21165,-1.61216 -1.54278,-2.57662c-0.39958,-1.16379 -0.68288,-4.079 -0.68288,-4.079c0,0 1.88781,1.43735 2.95744,2.05164c1.0526,0.6045 3.57324,1.45269 3.57324,1.45269c0,0 -1.55297,2.41034 -2.26572,2.89984c-0.66241,0.45494 -1.05335,0.89143 -2.03929,0.25145z" fill="#fb95a9" stroke="none" stroke-width="0"/><path d="M235.86951,202.12272c-0.64171,-0.03296 1.51192,-1.05037 2.3367,-1.53259c0.91489,-0.5349 2.82616,-2.37563 2.86295,-2.00666c0.07441,0.74608 -1.44675,2.17702 -2.28268,2.66576c-0.90726,0.53045 -1.82762,0.92947 -2.91696,0.87351z" fill="#fc9ea5" stroke="none" stroke-width="0"/></g></g></g></svg>