<svg version="1.1" xmlns="http://www.w3.org/2000/svg" xmlns:xlink="http://www.w3.org/1999/xlink" width="258.66667" height="258.66667" viewBox="0,0,258.66667,258.66667"><g transform="translate(-167.43872,-52.08782)"><g data-paper-data="{&quot;isPaintingLayer&quot;:true}" fill-rule="nonzero" stroke-linejoin="miter" stroke-miterlimit="10" stroke-dasharray="" stroke-dashoffset="0" style="mix-blend-mode: normal"><g data-paper-data="{&quot;index&quot;:null}" stroke-linecap="butt"><path d="M347.12668,228.24451c0,0 0.11397,3.61013 -11.19486,6.29034c-17.21151,4.07915 -49.62516,7.80984 -60.5133,7.6013c-5.27148,-0.10096 -10.96621,-3.51705 -15.67593,-5.63558c-10.46419,-4.70699 -11.79646,-9.42883 -11.79646,-9.42883c0,0 -1.39596,-4.88136 -0.37795,-6.9286c0.82642,-1.66197 5.68856,-0.84357 5.68856,-0.84357c0,0 43.74117,-5.8271 71.11189,-6.278c1.17841,-0.01941 1.67773,4.27657 2.77214,4.24736c6.18867,-4.61594 15.12685,-5.46269 15.30021,-5.31085c4.2706,3.74032 4.6857,16.28642 4.6857,16.28642z" fill="#0066cc" stroke="#000000" stroke-width="3"/><path d="M272.65071,217.83876c0.05187,-1.80121 -1.23938,-8.68314 -1.23938,-8.68314c0,0 12.03823,-0.16414 26.57997,0.18349c12.03693,0.28775 21.07744,-3.1366 21.07744,-3.1366c0,0 5.64576,8.69848 6.04666,9.19862c0.9118,1.13751 0.50798,2.88963 0.50798,2.88963c0,0 -1.689,4.71438 -2.79683,7.10598c-1.35568,2.92666 -5.44268,11.03431 -5.44268,11.03431c0,0 -0.82046,1.51332 -1.89535,0.31909c-1.95566,-2.17278 -4.906,-8.01503 -6.36894,-10.76734c-0.93958,-0.10311 -1.78136,-0.22606 -2.77284,-0.18273c-2.95884,0.12933 -6.16425,1.07848 -9.62847,1.06946c-4.33119,-0.01127 -8.24561,-0.0959 -11.58772,-0.81129c-2.36383,-0.50598 -4.61788,-7.2193 -6.36997,-8.00219c-4.05254,-1.81082 -6.16959,1.85608 -6.10988,-0.21731z" fill="#0f1b82" stroke="none" stroke-width="0"/><path d="M303.4342,227.76618c0,0 4.74427,-3.61602 5.71653,-4.35802c1.12416,-0.85794 4.24199,-2.76038 4.24199,-2.76038c0,0 -1.12865,2.33992 -4.05235,5.59212c-3.13491,3.48715 -5.90617,1.52627 -5.90617,1.52627z" fill="#000000" stroke="none" stroke-width="0"/></g><g data-paper-data="{&quot;index&quot;:null}" stroke="#000000" stroke-width="3" stroke-linecap="butt"><path d="M341.08254,200.57411c0,0 -1.10738,11.23882 -9.36104,11.26911c-3.82793,0.01405 -20.81791,-4.0619 -23.96911,-9.80139c-6.86353,-12.50101 -4.49815,-21.34458 -4.49815,-21.34458c0,0 3.80162,-3.32293 6.34103,-3.19783c7.28832,0.35905 8.60495,4.74623 8.60495,4.74623c0,0 0.51578,2.0581 1.24545,3.27773c0.80481,1.34523 3.38009,4.45382 3.38009,4.45382c0,0 15.56246,-0.21155 16.10707,0.98473c0.24267,0.53303 2.14971,9.61219 2.14971,9.61219z" fill="#db93e6"/><path d="M339.16283,195.75739c0,0 16.12882,-0.93555 20.97966,2.14717c7.64036,4.85546 5.16752,14.6849 3.90323,15.74077c-3.95864,3.30604 -18.86691,5.24596 -18.86691,5.24596c-2.96526,0.09303 -10.45878,0.06679 -12.7009,-0.57716c-3.53247,-1.01455 -3.41126,-5.60713 -3.41126,-10.25201c0,-7.66695 2.42922,-12.30472 10.09618,-12.30472z" fill="#f89587"/></g><path d="M330.26132,207.29124c0,0 -1.21712,11.23104 -17.72009,12.94792c-15.94658,1.65899 -24.855,-0.9378 -29.73894,-2.80842c-2.66468,-1.02062 -7.04729,-1.8104 -7.04729,-1.8104c0,0 -1.27002,-8.41714 -1.3638,-16.8952c-0.08676,-7.84335 0.99832,-15.64944 1.08635,-19.02483c0.27171,-10.41919 3.93166,-7.97967 3.93166,-7.97967l28.40559,8.19718c0,0 -0.33123,2.95013 -1.30776,8.21369c7.48284,5.18881 23.71401,15.30056 23.75425,19.15974z" data-paper-data="{&quot;index&quot;:null}" fill="#feebf7" stroke="#000000" stroke-width="3" stroke-linecap="butt"/><path d="M275.07161,189.20612c0,0 0.71887,-4.63518 2.04819,-5.89225c0.73911,-0.69896 -3.90762,-8.05942 1.91939,-9.3416c5.75923,-1.26726 23.4032,4.05235 27.04538,5.93338c1.47386,0.76119 -1.37483,7.18489 -1.11693,7.45305c1.04198,1.08343 -22.59054,-1.74303 -22.59054,-1.74303c0,0 -2.71146,22.1031 -4.7511,29.23721c-3.36039,-0.22127 -2.55439,-25.64679 -2.55439,-25.64679z" data-paper-data="{&quot;index&quot;:null}" fill="#db93e6" stroke="none" stroke-width="0" stroke-linecap="butt"/><path d="M314.14947,197.02758l0.47014,0.59598c0.04768,0.0597 0.08625,0.12649 0.11379,0.19832c0.46179,0.58755 0.90899,1.19887 1.345,1.8331c3.5663,6.30101 -0.07326,10.88938 -7.15152,11.16555c-7.92794,0.27997 -11.55106,-2.60449 -16.30887,-7.76333c-2.46794,-3.14054 -7.9314,-10.63552 -1.52038,-13.21322c0.76691,-0.30836 2.20551,-0.34069 3.01653,-0.47227c3.49797,-0.47981 7.85305,-0.20602 11.06847,1.37151c1.25795,0.61716 2.60563,1.42361 3.77576,2.2638c0.28015,0.18702 0.65036,0.29596 0.91952,0.49426zM307.01969,196.38158c-0.71574,1.90513 -1.15324,4.22605 -1.76966,5.90327c-0.34647,0.85766 -1.7344,3.73898 -0.94268,4.52836c1.70907,1.70401 8.012,-0.17293 8.75826,-2.25049c0.20665,-3.78282 -2.80961,-6.24747 -6.04591,-8.18115zM303.86834,194.6214c-0.67558,-0.36901 -1.31377,-0.7247 -1.88219,-1.0756c-2.92854,-1.1092 -4.59778,-0.89039 -7.62229,-0.12371c-0.61643,0.15626 -2.2324,0.22772 -2.39976,1.03816c-0.32382,1.56821 0.99858,3.56725 1.73967,4.8724c0.82894,1.47157 3.78308,5.47561 5.8304,5.38017c0.34116,-0.0159 0.90712,-1.07279 1.03615,-1.28176c0.98012,-1.58722 1.26873,-3.57874 1.9079,-5.31125c0.29339,-1.11675 0.69204,-2.15113 1.22812,-3.17824l0.162,-0.32016z" data-paper-data="{&quot;index&quot;:null}" fill="#ff0000" stroke="none" stroke-width="0.5" stroke-linecap="butt"/><g data-paper-data="{&quot;index&quot;:null}" stroke-linecap="butt"><g><g><path d="M295.932,247.87919c0.15864,-5.83342 -0.12861,-17.31741 6.17743,-22.15334c1.57106,-1.20481 5.67612,-4.68593 9.05768,-1.11251c0.38479,0.40663 -0.7235,1.51459 -0.0488,3.0314c0.24905,0.5599 1.99515,0.59333 2.43,1.24986c1.37368,2.07396 4.37116,4.06606 5.02543,3.97271c2.2273,-5.61276 8.79756,-12.44382 10.93,-12.99128c3.832,-0.9838 18.17687,2.39668 17.93726,5.54582c0.39642,2.55347 -3.35003,6.8232 -3.35003,6.8232c0,0 14.94323,9.03354 20.53405,12.63394c9.62698,6.1996 9.67497,11.24653 9.67497,11.24653c0,0 0.524,2.51434 -3.52907,3.84653c-7.9448,2.61135 -17.73507,3.47974 -29.18929,3.30696c-11.12884,-0.16787 -10.61083,-6.53696 -22.26036,-7.76752c-9.82262,-1.03759 -23.65273,2.05501 -23.38929,-7.63231z" fill="#ff2d32" stroke="#000000" stroke-width="3"/><path d="M356.04833,261.40618c0,0 -10.85408,1.42439 -16.28104,0.64622c-5.47602,-0.78519 -12.8209,-6.82435 -18.13242,-7.58153c-11.24079,-1.60242 -18.32581,0.61218 -21.17165,-1.48466c-0.18305,-0.13487 -4.54575,-1.87591 -3.80651,-7.79482c1.77707,-14.22876 7.59011,-16.47518 7.59011,-16.47518c0,0 6.43295,8.04334 14.20287,8.95516c1.52171,0.17857 0.54459,-2.7236 0.54459,-2.7236c0,0 -0.18429,-1.39966 0.20308,-2.33917c0.58012,-1.40698 2.9393,-5.28217 2.9393,-5.28217c0,0 0.67423,2.09052 2.66069,4.52962c2.39795,2.94433 7.06096,5.75391 11.86966,9.34471c5.34567,3.99177 14.40253,7.41072 16.53292,9.60508c2.32012,2.38975 2.8484,10.60032 2.8484,10.60032z" fill="#ab164a" stroke="none" stroke-width="0"/><path d="M305.33396,232.44489c-0.04003,1.47221 -0.71908,2.00893 -2.08307,2.02875c-1.36399,0.01982 -2.01694,-0.40237 -1.97691,-1.87459c0.04004,-1.47221 0.89549,-2.01149 2.25948,-2.03131c1.36398,-0.01982 1.84054,0.40493 1.80051,1.87715z" fill="#000000" stroke="none" stroke-width="0"/><path d="M316.1753,232.57279c0,0 1.11352,0.17415 4.87211,2.4035c3.05997,1.81498 5.03558,2.87695 5.03558,2.87695c0,0 -0.55693,1.25965 -5.55944,0.17595c-5.20714,-1.12802 -4.34825,-5.45639 -4.34825,-5.45639z" fill="#000000" stroke="none" stroke-width="0"/></g><g><path d="M328.91733,245.18075c-1.55934,-1.20534 -1.81083,-3.72572 -1.43144,-5.25853c0.90011,-3.63671 3.708,-5.84669 5.47807,-6.3757c7.50063,-2.24164 13.32169,-1.29482 13.13786,0.413c-0.33128,3.0774 -5.7372,3.40493 -9.26534,6.1343c-1.78465,1.38061 -2.34965,2.86177 -3.42128,4.00903c-1.02305,1.09525 -2.7504,2.42863 -4.49786,1.0779z" fill="#feebf7" stroke="#000000" stroke-width="2.5"/><path d="M330.07171,237.51964c0,0 0.81326,0.12631 2.2414,0.89165c1.87312,1.00382 2.49585,2.11453 2.49585,2.11453c0,0 -0.73225,0.85101 -1.43955,1.73375c-0.91094,1.13688 -1.28152,2.62393 -2.34668,2.63941c-1.89223,0.02749 -2.89262,-1.73796 -2.83069,-4.01529c0.06193,-2.27734 1.87967,-3.36405 1.87967,-3.36405z" fill="#db93e6" stroke="none" stroke-width="0"/></g><g><path d="M336.37319,249.32115c-0.51288,-0.69359 0.77639,-5.19379 3.86692,-8.46437c7.34264,-7.7704 10.78657,-7.68025 12.06284,-5.16847c1.15477,2.27266 -4.22155,5.42405 -8.04241,9.52503c-3.41059,3.66061 -6.86169,5.49487 -7.88735,4.1078z" fill="#feebf7" stroke="#000000" stroke-width="2.5"/><path d="M337.5949,248.93358c-0.71428,-0.2599 -0.09125,-3.59576 0.23102,-4.14959c0.86217,-1.48165 2.13343,-1.9754 2.13343,-1.9754l3.27893,1.73584c0,0 -0.94009,1.35677 -1.61213,1.95769c0,0 -2.87534,2.85205 -4.03125,2.43146z" fill="#db93e6" stroke="none" stroke-width="0"/></g><g><path d="M357.49644,238.65811c2.77273,2.37487 -2.79088,3.5888 -6.27854,8.03388c-3.08004,3.92557 -4.17915,8.46314 -7.35939,6.5893c-2.64788,-1.56018 9.54696,-18.12715 13.63793,-14.62318z" fill="#ffffff" stroke="#000000" stroke-width="2.5"/><path d="M344.12923,251.81826c0.04965,-1.82548 3.34201,-4.92374 3.34201,-4.92374l0.91014,1.76946c0,0 -1.20628,3.16102 -2.43204,4.20034c-1.01993,0.86479 -1.84986,0.04836 -1.8201,-1.04607z" fill="#db93e6" stroke="none" stroke-width="0"/></g></g><g><path d="M345.99628,273.28775c-5.91072,0.0859 -13.60504,-6.4043 -20.66332,-7.10861c-10.39245,-1.03702 -28.13627,-1.2587 -31.22968,-4.67179c-2.82985,-3.12229 -3.73509,-12.59814 0.59681,-13.32779c0.77373,6.31156 6.04409,6.76748 10.18295,6.81631c5.00922,0.05912 11.91718,-0.16875 17.36657,0.90855c9.65062,1.90787 14.7337,7.55266 22.13979,7.44502c12.73134,-0.18502 21.39995,-1.93262 26.27409,-3.77639c2.64672,-1.00119 3.52546,-2.49754 4.81514,-2.71829c1.68818,-0.28897 3.39167,4.05188 3.39167,4.05188c0,0 -0.10027,4.36266 -4.46779,7.33259c-4.5714,3.10857 -13.73198,4.83527 -28.40622,5.04853z" fill="#ffffff" stroke="#000000" stroke-width="3"/><path d="M294.43562,248.03543c0,0 -0.41689,1.72198 1.19655,3.95562c1.05103,1.45506 2.71416,3.20353 7.05511,4.272c3.8113,0.9381 17.07891,-0.09875 20.20699,0.78809c4.32772,1.22694 7.20779,3.08946 10.69024,4.71467c1.36151,0.6354 2.80669,1.54401 4.47911,1.89936c6.80631,1.44619 9.45522,1.01707 12.32473,0.82878c4.27445,-0.2805 6.86232,-0.88532 6.86232,-0.88532c0,0 0.88806,1.85194 0.32159,3.91946c-0.56648,2.06752 -2.02903,3.4569 -2.02903,3.4569c0,0 -4.39512,2.71363 -12.32118,0.35977c-4.4953,-1.335 -5.51531,-1.66206 -14.03433,-5.69333c-4.40854,-2.08615 -26.36811,-2.04154 -30.3492,-3.7729c-1.17493,-0.51096 -3.09941,-0.57044 -3.79534,-0.97595c-2.35559,-1.37257 -1.35745,-2.73543 -1.86917,-4.77983c-0.95637,-3.82086 1.26161,-8.08729 1.26161,-8.08729z" fill="#db93e6" stroke="none" stroke-width="0"/></g></g><g data-paper-data="{&quot;index&quot;:null}" stroke-linecap="butt"><path d="M224.14153,248.22996c2.80349,-3.11001 11.1072,-8.03587 17.72705,-9.78984c-4.55975,-2.47692 -11.0226,-4.16401 -11.16007,-6.05706c-0.43124,-5.93846 1.26121,-6.37732 3.42737,-7.93991c1.80475,-1.30188 16.37889,6.29907 16.37889,6.29907c0,0 1.09429,-5.06866 5.76725,-6.28184c4.00896,-1.0408 12.55721,1.57743 18.02483,3.0042c3.61241,0.94266 7.45936,2.51586 8.83999,5.36723c0.86254,1.78135 -0.93538,6.12106 0.70284,4.85744c4.1567,-3.20619 14.16478,-3.45743 16.90723,-1.35644c2.40059,1.8391 3.56871,6.98985 2.59171,9.36221c-0.41279,1.00236 -12.59005,0.47413 -12.37677,1.50654c0.42286,2.04693 -3.23507,4.78707 -2.9333,6.46549c0.79773,4.43705 2.3373,6.88537 2.3373,6.88537c0,0 1.60151,6.47834 -2.06411,9.53326c-4.71049,3.92572 -16.13999,4.67627 -29.89388,4.99578c-24.45692,0.56815 -45.06092,-14.88785 -34.27632,-26.85153z" fill="#ff2d32" stroke="#000000" stroke-width="2.5"/><path d="M286.10246,244.32715c0,0 1.61151,-2.46694 6.91102,-3.58112c4.742,-0.99697 8.84571,-0.96562 8.84571,-0.96562c0,0 0.37619,1.90269 0.66272,2.8267c0.32067,1.03415 -0.36552,2.72329 -0.36552,2.72329c0,0 -3.887,0.56484 -9.13161,0.35078c-1.81389,-0.07403 -2.64168,0.47272 -3.52841,0.49212c-1.19565,0.02614 -2.40504,-0.46021 -2.99135,-0.98841c-0.42941,-0.38685 -0.40255,-0.85772 -0.40255,-0.85772z" fill="#ab164a" stroke="none" stroke-width="0"/><path d="M246.54703,234.7943c0,0 3.23309,-0.1684 4.66702,-1.90446c-0.20163,-3.22302 2.75907,-6.55326 5.04588,-7.22339c3.85987,-1.13112 14.02384,1.98865 14.02384,1.98865c0,0 0.42043,4.24172 0.63979,6.20889c0.25265,2.26572 0.29591,6.94493 0.29591,6.94493c0,0 -16.07411,0.76466 -19.71234,0.78363c-1.1816,0.00615 -4.08719,0.9261 -4.08719,0.9261c0,0 -2.09689,-2.81374 -4.27111,-4.44101c-1.78017,-1.33234 -5.3569,-2.13831 -5.36204,-2.63524c-0.00219,-0.21118 -4.27891,-1.25408 -5.85713,-2.93298c-1.52874,-1.62626 -0.05655,-4.8957 0.83606,-4.82378c2.12726,0.17139 13.7813,7.10867 13.7813,7.10867z" fill="#ab164a" stroke="none" stroke-width="0"/><path d="M236.02567,235.09865c0,0 -2.04107,-1.27929 -2.99102,-2.40758c-0.92069,-1.09354 -0.75985,-2.03558 -0.2315,-2.13263c3.00154,-0.5513 4.86609,2.18393 5.59065,3.86137c0.26041,0.60288 0.37724,1.8367 0.37724,1.8367c0,0 -1.30843,-1.19123 -2.74537,-1.15785z" fill="#000000" stroke="none" stroke-width="0"/><path d="M293.94848,243.29993c0.10317,-0.88381 0.87501,-0.78951 3.32829,-0.8465c3.10791,-0.0722 3.87823,0.15965 3.85369,2.39899c-0.01805,1.64757 -2.4108,0.58674 -4.37987,0.02555c-1.65688,-0.47221 -2.96351,-0.19554 -2.80211,-1.57805z" fill="#000000" stroke="none" stroke-width="0"/><path d="M226.40859,255.13187c0.41432,1.40299 1.98996,4.06026 1.98996,4.06026c0,0 0.93175,-1.50134 1.88096,-2.69045c0.4363,-0.54658 0.36219,-1.2151 1.11913,-1.30668c5.04428,-0.6103 15.82123,1.91486 24.58195,2.62742c26.65434,2.16793 30.62346,12.4008 30.62346,12.4008c0,0 -6.75147,4.78095 -31.58953,4.09108c-7.68898,-0.21355 -16.41726,-1.25456 -22.76607,-4.2136c-6.10498,-2.84539 -8.54695,-5.15316 -10.66214,-11.40715c-1.17074,-3.46153 1.13506,-7.29136 2.77204,-9.0479c0.69784,-0.74882 1.48499,-0.81475 1.48499,-0.81475c0,0 0.12356,4.80527 0.56525,6.30097z" fill="#ab164a" stroke="none" stroke-width="0"/><g><path d="M214.0261,254.1079c-0.06363,-0.54674 7.75995,-4.6603 7.75995,-4.6603c0,0 -2.18142,5.14014 0.12385,10.60733c2.64993,6.2846 10.9175,13.09429 30.05634,14.5752c10.62693,0.8223 30.54049,-0.16137 37.14084,-5.82091c2.02145,-1.73333 3.31562,-5.02442 2.5214,-7.5769c-0.99873,-3.20982 -2.41151,-5.09543 -0.87206,-5.48656c2.39824,-0.60931 5.0323,5.53655 4.99435,8.99908c-0.04488,4.09506 -1.21009,7.38964 -4.29044,10.38975c-6.86662,6.68775 -20.33484,8.38538 -37.25356,8.77841c-15.07979,0.35031 -39.67635,-13.44651 -40.23836,-14.9897c-0.18156,-0.49856 0.64363,-9.78102 0.05771,-14.81537z" fill="#ffffff" stroke="#000000" stroke-width="2.5"/><path d="M215.64991,256.80396c0,0 6.50579,20.76184 33.22591,23.23217c41.4998,3.83674 45.02853,-10.24759 45.02853,-10.24759c0,0 -1.06372,3.49744 -6.82246,7.16161c-5.40052,3.43626 -14.86851,7.63702 -37.12412,5.56795c-10.83011,-1.00685 -19.91346,-5.2172 -25.79728,-8.60382c-5.61595,-3.23245 -9.11354,-5.68421 -9.11354,-5.68421l0.60298,-11.4261z" fill="#db93e6" stroke="none" stroke-width="0"/></g><g><g><path d="M243.0592,244.63474c-0.02147,-0.53848 6.13337,-5.23242 17.28528,-5.12285c18.03587,0.17719 23.0118,10.65102 22.43649,11.95041c-1.15791,2.61524 -9.19172,-5.4983 -23.42168,-6.36008c-11.11071,-0.67289 -16.23982,1.04488 -16.30009,-0.46749z" fill="#ffffff" stroke="#000000" stroke-width="2"/><path d="M248.67082,243.92734l-1.30574,-1.36075c0,0 5.14534,-2.46825 8.00284,-2.50117c9.17299,-0.10565 13.44889,1.60539 13.44889,1.60539l-2.60526,3.53823z" fill="#db93e6" stroke="none" stroke-width="0"/></g><g><path d="M237.39873,250.16023c-0.21161,-0.28204 -0.58902,-1.81806 3.1182,-2.98539c3.12938,-0.98537 9.84722,-1.63809 15.15587,-1.76141c11.59754,-0.26942 25.21854,6.61317 24.2664,10.51527c-0.53743,2.20251 -11.00052,-3.76866 -22.59807,-3.49924c-11.59755,0.26942 -19.31545,-1.43357 -19.94241,-2.26921z" fill="#ffffff" stroke="#000000" stroke-width="2"/><path d="M260.9817,251.50955c0,0 -3.79856,-0.16459 -5.06453,-0.17531c-1.24901,-0.01057 -2.92681,0.2936 -2.92681,0.2936l-2.58913,-5.0798c0,0 5.37616,-0.46157 7.75508,-0.1677c4.6466,0.57399 5.90888,0.97864 5.90888,0.97864l-3.08351,4.15057z" fill="#db93e6" stroke="none" stroke-width="0"/></g><path d="M233.34441,254.77549c0.00755,-0.68908 0.3405,-2.93558 3.5532,-3.18764c3.96044,-0.31073 11.30861,0.85512 18.49465,0.68819c7.06763,-0.16418 14.30488,1.61032 18.40764,3.60972c3.45264,1.68258 4.35648,3.47408 4.34081,4.90386c-0.03429,3.12876 -12.34709,-4.4826 -25.36242,-4.18024c-13.01534,0.30236 -19.45835,0.40039 -19.43387,-1.8339z" fill="#ffffff" stroke="#000000" stroke-width="2"/></g></g><g data-paper-data="{&quot;index&quot;:null}" stroke-linecap="butt"><path d="M268.36902,225.55459c0,0 -10.76292,-1.42811 -14.39903,-3.19476c-2.6996,-1.31163 -5.09315,-5.8254 -5.09315,-5.8254c0,0 -0.60213,-0.08199 -0.3418,-1.81211c0.19916,-1.3235 3.44229,-1.31684 4.78456,-3.09922c2.79393,-3.71 4.501,-9.29536 4.501,-9.29536c0,0 0.24588,-7.44494 5.55286,-7.47576c7.16889,-0.04164 10.37467,4.9383 10.37467,4.9383c0,0 0.41703,9.92333 -0.70193,14.13924c-1.29884,4.89368 -4.67717,11.62508 -4.67717,11.62508z" fill="#fddfbd" stroke="#000000" stroke-width="2.35"/><path d="M256.56437,208.56021c0,0 1.14843,-2.45272 1.60622,-5.34924c0.61908,-3.91701 2.54516,-8.60402 5.96801,-7.69555c3.57497,0.94884 7.1434,1.50446 8.71767,4.57131c0.97862,1.90645 -0.23048,7.43062 -0.23048,7.43062c0,0 -3.26404,1.50866 -9.43695,2.07153c-5.6595,0.51607 -6.62446,-1.02867 -6.62446,-1.02867z" fill="#f89587" stroke="none" stroke-width="0"/></g><g data-paper-data="{&quot;index&quot;:null}" stroke="none" stroke-width="0" stroke-linecap="butt"><path d="M244.83741,220.65571c0.4753,-4.92177 3.26121,-7.53154 6.3039,-7.22503c1.70219,0.17148 2.43343,3.00009 5.43039,2.62435c3.64776,-0.45735 6.97666,-5.23907 10.11775,-5.14631c3.48507,0.10291 7.76168,7.93397 7.76168,7.93397c0,0 -1.94624,7.08943 -4.55147,12.80439c-2.74,6.01058 -7.56542,9.89747 -10.34917,9.37571c-2.98191,-0.55892 -15.77791,-9.34059 -14.71309,-20.36709z" fill="#0066cc"/><path d="M271.68362,226.62228c0,0 -1.70123,3.50116 -2.45062,5.41333c-1.64904,4.20775 -5.1697,9.85423 -8.75738,9.34713c-1.03597,-0.14643 -4.83867,0.60936 -7.10231,-0.22032c-2.2725,-0.83292 -3.00769,-3.25567 -4.94943,-5.6433c-2.60881,-3.20788 -3.6047,-9.51353 -3.97119,-13.75216c-0.09392,-1.08613 1.90604,-2.34849 2.01391,-3.46559c7.56521,8.75876 8.68998,16.42244 10.10749,16.26118z" fill="#0f1b82"/><path d="M275.47997,220.28548c0,0 -6.067,-8.14042 -8.1408,-8.84674c-0.43074,-0.1467 -7.43238,4.43251 -10.52184,5.38207c-0.54253,0.16674 -2.03919,0.09257 -3.20025,-0.57434c-0.99498,-0.57152 -1.61162,-1.6587 -2.65613,-2.49715c-0.81967,0.25931 -6.07203,7.24703 -6.07203,7.24703c0,0 3.5434,18.68701 10.33737,19.80647c1.74819,0.28806 8.31613,-1.87184 10.24104,-4.994c1.46609,-2.37797 4.02659,-5.368 5.21443,-7.5868c1.08475,-2.02621 2.0408,-3.0988 2.0408,-3.0988c0,0 -1.12425,4.18493 -2.77991,8.55033c-1.82846,4.82103 -11.08129,10.25316 -15.3274,8.92104c-0.99113,-0.31095 -4.59516,-2.30011 -6.95909,-5.08414c-5.05374,-5.95186 -5.03872,-15.22889 -4.90735,-17.34339c0.06773,-1.0901 2.2473,-3.23277 3.22192,-4.38385c1.31237,-1.54999 2.82453,-3.60599 5.58412,-3.94437c1.46462,-0.17959 3.11322,2.7922 4.5833,2.53122c4.64094,-0.82391 9.6087,-6.23923 12.16372,-5.64203c2.55502,0.5972 7.17812,11.55745 7.17812,11.55745z" fill="#000000"/></g><g data-paper-data="{&quot;index&quot;:null}" stroke="none" stroke-width="0" stroke-linecap="butt"><path d="M255.88749,201.69135c-0.54838,-0.39073 -1.60391,-1.77761 -1.81628,-2.84133c-0.60741,-3.0424 5.71713,-6.39893 7.44109,-11.42865c1.78978,-5.22176 0.30537,-11.99446 2.00636,-14.12468c0.41466,-0.51928 3.14091,-1.05306 3.92657,-1.02015c7.60222,3.709 17.63214,14.02681 17.63214,14.02681l-1.46287,5.43303c0,0 -16.86133,17.69701 -27.72699,9.95498z" fill="#feebf7"/><path d="M281.33412,194.45362c0,0 -5.77108,9.71018 -16.98415,10.19342c-4.68485,0.20189 -11.47451,-3.53784 -11.47451,-3.53784c-2.73447,-2.52299 1.24526,-7.81799 4.98666,-12.16141c1.13248,-1.3147 2.62282,-2.54692 3.06746,-6.13918c0.52664,-4.25474 -0.37477,-11.72241 -0.37477,-11.72241c0,0 1.74911,-1.89877 2.59536,-0.2572c0.37174,0.72111 0.17016,4.39343 0.37378,5.41552c0.73275,3.67818 0.07838,9.86615 -0.68288,11.23244c-1.14457,2.05425 -7.39464,10.34265 -7.39464,10.34265c0,0 -0.6123,0.89644 -0.39459,1.5566c0.73519,2.2293 5.11128,3.3232 7.60196,3.35649c5.99952,0.08018 10.0344,-2.40593 13.25137,-4.55339c3.04086,-2.02988 5.42896,-3.72567 5.42896,-3.72567z" fill="#000000"/></g><g data-paper-data="{&quot;index&quot;:null}" stroke-linecap="butt"><g data-paper-data="{&quot;index&quot;:null}"><path d="M357.227,169.96989c-0.52365,7.03884 -14.13113,10.60073 -43.79509,12.85393c-14.49648,1.10112 -33.50531,-3.47085 -42.87358,-7.82089c-6.14614,-2.85388 -0.39751,-37.59925 5.11834,-41.53564c14.48667,-10.3384 45.23858,-18.36514 60.69531,-10.01047c9.47088,5.1192 8.41602,27.04213 8.41602,27.04213c0,0 -2.30941,5.39043 -2.93807,13.40294c4.14754,0.09495 15.77909,0.66454 15.3771,6.06799z" fill="#fddfbd" stroke="#000000" stroke-width="3"/><path d="M340.4761,158.45195c0,0 -23.05137,-8.52262 -26.70438,-7.78408c-0.50517,1.24968 -0.49091,15.41847 -0.99791,15.23795c-12.66523,-4.50979 -16.62197,-6.97242 -16.62197,-6.97242l-9.70425,19.80604c0,0 -6.61635,-6.08164 -9.54939,-9.13238c-0.20792,-2.22467 -1.59005,6.05668 -1.59005,6.05668l-4.42039,-1.90465c0,0 -0.80922,-1.37132 -0.87305,-2.64197c-0.30263,-6.02469 0.33601,-23.36892 9.19113,-31.1924c10.31869,-9.11652 64.46934,-8.30205 64.46934,-8.30205c0,0 0.13809,13.25612 -0.45061,18.1933c-1.14579,3.42283 -2.18479,8.99543 -2.18479,8.99543z" fill="#f89587" stroke="none" stroke-width="0"/></g><g><g><path d="M245.80714,164.6965c0,0 -7.04919,5.3084 -13.94684,8.64006c-4.78093,2.30925 -9.53656,3.04353 -11.62543,2.98532c-5.10258,-0.1422 -7.41865,-10.45432 -4.40471,-12.4608c1.76955,-1.17807 6.01121,-2.08816 9.69244,-2.67532c9.18176,-1.46451 20.26272,-1.32913 20.26272,-1.32913l0.0218,4.83983z" fill="#0066cc" stroke="#000000" stroke-width="3"/><path d="M216.63049,171.26697c0,0 2.52335,-0.08912 11.23085,-2.1982c7.39387,-1.79091 10.4436,-4.24332 12.45711,-5.59284c1.81938,-1.21941 2.44983,-1.87174 2.44983,-1.87174l0.88743,2.8498c0,0 -8.89487,6.82878 -15.64733,8.994c-3.96944,1.27282 -8.19975,1.51747 -8.19975,1.51747c0,0 -1.61892,-0.96843 -2.0539,-1.54644c-0.46066,-0.61213 -1.12424,-2.15204 -1.12424,-2.15204z" fill="#0f1b82" stroke="none" stroke-width="0"/></g><g stroke="#000000"><path d="M348.35001,133.13735c0,0 -54.69541,13.98847 -63.7842,18.14925c-11.85908,5.429 -23.12108,10.19436 -23.12108,10.19436c0,0 -12.80289,-2.87281 -18.10803,-14.71645c-1.62414,-3.62584 4.9798,-24.70312 6.00583,-27.19302c3.10515,-7.53543 3.96174,-17.67582 14.65183,-23.37704c28.63519,-15.27166 68.56053,-11.73101 76.94648,-6.48879c7.37202,4.60838 4.24551,22.88534 4.24551,22.88534z" fill="#ff2d32" stroke-width="3"/><path d="M259.02556,161.17164c0,0 -14.1362,-9.26601 -15.44548,-16.70147c-1.33054,-7.5561 14.47854,-44.90103 18.26353,-45.22208c12.84465,-1.08953 23.63997,51.42173 23.63997,51.42173l-26.45802,10.50181z" fill="#ab164a" stroke-width="1.5"/></g></g><g><path d="M241.7206,151.07375c0.49602,-0.95222 10.64614,4.54589 16.27925,10.55425c3.237,3.45263 2.77616,8.4247 2.96421,11.46363c0.14409,2.32859 -3.67413,6.05319 -6.62633,6.84626c-4.74315,1.27416 -14.31491,-25.60478 -12.61712,-28.86415z" fill="#fddfbd" stroke="#000000" stroke-width="3"/><path d="M249.40342,172.11296c0,0 1.12435,0.23116 2.91467,-0.67576c2.26443,-1.14711 6.95083,-5.28634 6.95083,-5.28634c0,0 1.81961,3.63906 1.90449,4.75651c0.11588,1.52546 -2.95181,5.04286 -5.53604,6.80294c-1.40837,0.95922 -2.51228,0.598 -2.68292,0.66484c-0.4666,0.18277 -3.55102,-6.26219 -3.55102,-6.26219z" fill="#f89587" stroke="none" stroke-width="0"/><path d="M250.24149,161.93124c-0.03356,-0.59408 8.63549,2.78225 8.34562,4.09899c-0.3741,1.69948 -1.92564,9.55302 -4.27407,7.72912c-0.95912,-0.7449 -3.91262,-9.01611 -4.07153,-11.82811z" fill="#f89587" stroke="#000000" stroke-width="1.5"/></g><g><g data-paper-data="{&quot;index&quot;:null}"><path d="M278.43278,161.94197c-0.3769,0.34341 -4.6468,3.7274 -7.97857,7.46977c-3.38654,3.80391 -5.8651,8.55924 -6.04738,8.28064c-0.09917,-0.15158 -4.79158,-14.18973 -3.68948,-15.48709c6.08508,-7.16308 32.79393,-13.94466 32.79393,-13.94466c0,0 -6.42992,16.08746 -8.23561,18.89231c-1.405,2.18246 -6.26945,-5.73346 -6.84289,-5.21097z" fill="#50a5eb" stroke="#000000" stroke-width="3"/><path d="M283.93326,155.96486l7.10089,-5.70727l-6.68834,16.19083z" fill="#66ffff" stroke="none" stroke-width="0"/></g><g data-paper-data="{&quot;index&quot;:null}"><path d="M370.77818,161.19812c0,0 -17.35732,-6.46085 -25.79319,-8.15891c-0.88989,-0.17912 1.93101,-2.96262 0.50793,-3.37153c-7.85744,-2.25781 -24.91051,-4.53554 -33.0882,-5.67959c-0.643,-0.08996 -2.21822,-0.29323 -2.55818,0.1902c-1.77388,2.5226 0.92072,10.79227 -1.12313,10.97073c-2.21046,0.193 -4.5446,-0.97986 -6.81994,-2.9005c-3.55872,-3.00395 -6.59585,-6.2733 -6.59585,-6.2733c0,0 6.29088,-10.77512 10.87419,-47.0787c3.26822,1.39884 10.50666,7.84889 12.5671,12.97656c1.87176,4.65811 1.14527,8.6889 1.75409,7.97141c6.04641,-7.12561 18.03892,-13.5864 22.73379,-14.63571c8.16339,-1.82451 33.2948,32.62694 33.2948,32.62694c0,0 -14.29604,-0.9285 -22.62094,1.05964c6.39521,3.09019 16.01914,18.38642 16.86754,22.30275z" fill="#66ffff" stroke="#000000" stroke-width="3"/><path d="M335.09349,132.20801c0,0 8.82196,6.99697 13.28948,10.88245c5.26673,4.58055 17.077,14.46023 17.077,14.46023l-18.83739,-5.58024c0,0 2.06934,-1.816 -0.46131,-3.52981c-1.66364,-1.12666 -5.09518,-1.3816 -10.23281,-2.28059c-3.89821,-0.68212 -20.95381,-3.18871 -25.85855,-3.70972c-0.81745,-0.08684 -1.39027,1.19279 -1.39027,1.19279c0,0 -0.99842,2.24131 -1.06253,3.60801c-0.09333,1.98972 0.50245,6.46758 0.50245,6.46758c0,0 -2.93936,-0.63701 -4.42124,-1.63678c-2.09373,-1.41258 -6.95269,-6.0369 -6.95269,-6.0369c0,0 1.25913,-3.21455 2.98454,-7.75221c3.19332,-8.3981 6.45662,-24.92995 7.28978,-37.35596c0.90198,1.47729 8.88826,28.60943 8.88826,28.60943c0,0 8.52242,-4.54017 16.12599,-8.15385c4.94591,-2.35058 10.00884,-4.4509 10.35415,-4.16976c7.7076,2.61802 21.86167,16.88965 21.86167,16.88965c0,0 -18.2942,-1.62468 -23.38287,-1.95704c-2.38924,-0.15605 -5.77367,0.05272 -5.77367,0.05272z" fill="#50a5eb" stroke="none" stroke-width="0"/></g></g></g><g data-paper-data="{&quot;index&quot;:null}"><path d="M292.18733,170.09507c2.02363,-0.28219 5.93489,5.83153 14.90501,7.45943c8.38206,1.52117 17.18736,-1.42124 17.18736,-1.42124c0,0 -2.74327,5.17942 -16.7636,4.10473c-11.44063,-0.87694 -21.36454,-9.30121 -15.32876,-10.1429z" fill="#000000" stroke="none" stroke-width="0" stroke-linecap="butt"/><path d="M302.06808,177.64152c0,0 -3.88619,3.80001 -7.86748,5.61055c-3.37708,1.53577 -6.92043,1.15089 -7.19277,0.92931c-0.74699,-0.60776 -0.33481,-3.88212 1.31903,-7.2373c1.09586,-2.22318 4.33354,-5.63611 4.50653,-5.98964c0.41144,-0.84082 9.06264,6.67601 9.06264,6.67601" fill="#ff6666" stroke="#000000" stroke-width="2" stroke-linecap="round"/></g><g data-paper-data="{&quot;index&quot;:null}" fill="#000000" stroke="none" stroke-linecap="butt"><path d="M295.13711,144.35991c0,0 4.06051,3.69332 6.2133,5.65144c2.3296,2.11893 7.27579,6.61784 7.27579,6.61784c0,0 -0.24094,2.64007 -0.85999,5.40937c-0.80061,3.58153 -2.23823,7.49506 -4.65281,7.39914c-3.3455,-0.13291 -3.25643,-6.72265 -4.48709,-12.71935c-0.37613,-1.83272 -2.20783,-5.59944 -2.65015,-7.33836c-0.79081,-3.10901 -0.83908,-5.02007 -0.83908,-5.02007z" stroke-width="0"/><path d="M331.4004,146.68661c0.7083,-0.20687 0.31636,3.64391 0.31636,3.64391c0,0 0.64439,5.60413 -0.74599,11.20597c-1.25301,5.04839 -3.62183,7.48248 -5.58372,7.40454c-4.13886,-0.16443 -2.54848,-5.51785 -2.28011,-12.27325c0.20819,-5.24047 5.84328,-9.26557 8.29346,-9.98117z" stroke-width="0"/><path d="M332.84454,141.79626c5.16731,-6.718 12.78052,-21.24043 12.78052,-21.24043c0,0 0.2706,1.21548 -0.11348,3.05391c-0.93834,4.49145 -5.32962,13.03719 -12.09223,22.22673c-4.64751,6.31538 -11.64225,12.87895 -17.99309,17.00922c-0.15223,0.09901 -12.29782,-9.3689 -23.37438,-20.29858c-8.60011,-8.48606 -18.42641,-16.12768 -20.48153,-17.79326c-3.6061,-2.92258 -7.9476,-5.36022 -7.9476,-5.36022c0,0 5.55963,1.53437 9.25555,3.8916c4.24181,2.7054 15.20385,11.67417 15.51122,11.94895c8.86776,7.92755 26.17315,24.61264 26.17315,24.61264c0,0 13.01927,-11.2087 18.28186,-18.05055z" stroke-width="NaN"/></g><g data-paper-data="{&quot;index&quot;:null}"><path d="M381.0047,225.68344c1.52164,-4.43056 3.54207,-9.37861 8.15916,-7.79292c3.07591,1.0564 6.77818,4.01862 8.29035,7.67419c0.75767,1.8316 0.77839,4.38216 0.27047,5.86106c-0.74655,2.17372 -2.65184,3.52798 -5.12971,4.09271c-2.57259,0.58632 -5.74819,0.32647 -8.10002,-0.48125c-4.61708,-1.5857 -5.01188,-4.92326 -3.49024,-9.3538z" fill="#485e84" stroke="#000000" stroke-width="3" stroke-linecap="butt"/><path d="M339.97471,227.84176c0.17328,-6.24074 5.81009,-7.8713 13.87953,-5.09992c8.06945,2.77138 13.21055,6.72766 11.30162,12.28588c-0.78428,2.28362 -3.32657,9.32271 -7.22595,8.2485c-6.59375,-1.81645 -4.50535,-7.28609 -5.89454,-7.73908c-3.94253,-1.28561 -12.21543,-2.12008 -12.06063,-7.69539z" fill="#f89587" stroke="#000000" stroke-width="3" stroke-linecap="butt"/><path d="M345.56982,211.53922c3.83983,-11.18042 11.01722,-26.549 22.59938,-22.99305c4.55108,1.39729 3.75817,8.73598 5.48311,9.32839c4.41288,1.51556 8.18096,1.55799 10.36544,5.57292c1.06128,1.95056 0.64105,3.39959 1.81367,5.03556c2.38288,3.32449 5.21941,1.72459 6.65454,5.04689c0.26897,1.11187 1.87421,14.60047 -1.5072,19.501c-4.06739,5.89472 -9.66806,7.01501 -13.01181,6.85656c-5.42141,-0.25689 -7.42525,-5.48761 -7.42525,-5.48761c0,0 -4.48979,0.28946 -6.50822,-0.8813c-1.96387,-1.13913 -2.47839,-3.87537 -5.09792,-5.82575c-0.64886,-0.4831 -2.06886,2.60884 -6.2829,0.73075c-9.20895,-4.1042 -8.76802,-11.97762 -7.08286,-16.88432z" fill="#fddfbd" stroke="#000000" stroke-width="3" stroke-linecap="butt"/><path d="M366.13056,217.11943c0,0 0.37783,0.5618 0.42632,2.45736c0.03989,1.55903 -0.41785,4.35351 0.87716,5.60702c0.64954,0.62872 4.47209,2.15079 5.97922,2.03404c1.16957,-0.0906 2.07252,-0.77897 2.40336,-0.70922c1.63843,0.34543 4.64092,-6.36861 4.64092,-6.36861l2.57098,-1.75272c0,0 -0.8012,6.47766 -2.28755,11.43598c1.53837,3.09018 2.47359,5.24326 2.47359,5.24326l4.99301,-0.45245c0,0 -1.63988,1.58097 -3.64145,2.5511c-0.87182,0.42257 -2.29699,0.35877 -2.87457,0.61746c-3.73811,1.67425 -7.75055,0.544 -9.63782,-3.09125c-0.22983,-0.44271 -0.77016,-1.93521 -1.90232,-1.74637c-3.97704,0.66335 -4.65313,-0.26438 -6.01901,-1.44355c-1.7372,-1.49975 -3.82722,-3.78465 -3.82722,-3.78465c0,0 0.09295,-1.112 -0.69039,-1.20248c-1.00851,-0.11645 -2.50478,0.96521 -4.02573,1.14375c-0.6279,0.07371 -1.47322,-0.60182 -1.95317,-0.63821c-1.06106,-0.08043 -2.75509,-1.04044 -3.66464,-1.87476c-0.85767,-0.78674 -0.9554,-1.44031 -1.17468,-1.82873c-0.85127,-1.50795 -1.00079,-6.70238 0.73286,-7.75802c2.10414,-1.28124 6.27405,1.72791 6.27405,1.72791c0,0 2.38901,5.04812 5.29898,5.8217c2.18822,0.5817 5.02811,-5.98858 5.02811,-5.98858z" fill="#f89587" stroke="none" stroke-width="0" stroke-linecap="butt"/><path d="M364.01797,217.79984c0.57994,-2.68875 1.44213,-5.71794 2.75028,-7.38817c1.15354,-1.47281 3.59823,-2.51993 4.48901,-2.14796c0.40907,0.17083 0.11676,1.46054 0.11676,1.46054c0,0 -1.586,0.63695 -2.28173,1.62981c-0.77142,1.10084 -1.73656,3.16665 -2.1287,4.98474c-0.70176,3.25352 -1.15005,6.35144 -2.50653,8.4139c-1.20699,1.83519 -4.10896,4.3061 -4.10896,4.3061l-2.21786,-1.08359c0,0 2.81186,-3.42825 3.68585,-4.40602c1.2175,-1.36209 1.82208,-4.00864 2.20184,-5.76934z" fill="#000000" stroke="none" stroke-width="0" stroke-linecap="butt"/><path d="M376.31692,226.18989c0.89343,-2.60143 1.48631,-5.49862 2.98258,-7.00265c1.31941,-1.32627 3.78427,-2.32455 4.62488,-1.84997c0.38605,0.21793 -0.2978,1.96454 -0.2978,1.96454c0,0 -1.32248,0.19195 -2.13061,1.09569c-0.89602,1.00203 -1.31352,2.8038 -1.91765,4.56285c-1.0811,3.14784 -2.67704,6.30672 -4.26762,8.19453c-1.41532,1.67979 -2.89876,2.26719 -2.89876,2.26719l-2.76228,-1.83394c0,0 2.19496,-1.0527 3.17832,-1.9204c1.36987,-1.20873 2.90387,-3.77435 3.48893,-5.47787z" fill="#000000" stroke="none" stroke-width="0" stroke-linecap="butt"/><g stroke-linecap="butt"><path d="M338.39344,205.10271c2.75684,-8.02712 9.28836,-13.05871 14.58854,-11.23841c5.30018,1.82032 7.36198,9.80323 4.60514,17.83032c-2.75684,8.02709 -9.28837,13.05869 -14.58855,11.23839c-5.30018,-1.82031 -7.36197,-9.80323 -4.60513,-17.83032z" fill="#485e84" stroke="#000000" stroke-width="3"/><path d="M352.84635,202.0587l-0.6757,-7.5401c0,0 2.93128,2.44979 3.67837,3.86577c1.52209,2.99131 1.18944,6.24693 1.18944,6.24693z" fill="#8fbbbe" stroke="none" stroke-width="0"/><path d="M352.14737,208.97111l0.44678,-3.11183c0,0 1.92975,0.4358 2.56914,0.70254c0.74866,0.31235 1.93246,1.27465 1.93246,1.27465l-1.1102,3.5413z" fill="#8fbbbe" stroke="none" stroke-width="0"/></g><g><path d="M350.07157,209.3388c-3.80313,11.07357 -12.42957,14.97462 -23.50315,11.1715c-11.07355,-3.80312 -16.77252,-16.4305 -12.9694,-27.50408c3.80313,-11.07356 14.33832,-16.22227 25.4119,-12.41915c11.07356,3.80312 14.86376,17.67814 11.06064,28.75172z" fill="#343545" stroke="#000000" stroke-width="3" stroke-linecap="butt"/><path d="M316.43512,189.78203c0,0 9.44899,-12.87062 19.13751,-9.54317c5.49406,1.88689 10.26983,6.51733 13.29158,11.28638c2.15285,3.39769 3.01892,7.76055 1.67461,11.6748c-2.76322,8.0457 -7.32875,9.67644 -17.01727,6.34899c-4.83839,-1.6617 -9.80803,-6.53535 -12.59769,-11.34716c-2.79647,-4.8235 -4.48877,-8.41983 -4.48877,-8.41983z" fill="#485e84" stroke="none" stroke-width="0" stroke-linecap="butt"/><path d="M338.92015,181.24636c0,0 5.72032,8.07547 1.77796,21.04058c-3.97469,13.07136 -12.74676,16.62497 -12.74676,16.62497" fill="none" stroke="#000000" stroke-width="1.6" stroke-linecap="round"/><path d="M346.92489,186.57734c0,0 1.66379,8.96523 0.10136,17.50161c-2.25166,12.30206 -7.64536,15.5617 -7.64536,15.5617" fill="none" stroke="#000000" stroke-width="1.6" stroke-linecap="round"/><path d="M329.73785,180.0599c0,0 4.46262,8.0332 1.24741,21.23326c-3.09246,12.69611 -8.19602,15.10817 -8.19602,15.10817" fill="none" stroke="#000000" stroke-width="1.6" stroke-linecap="round"/><path d="M320.29761,215.42269c0,0 -1.71585,-9.09833 -1.21701,-15.86931c0.65706,-8.91841 3.6511,-17.35067 3.6511,-17.35067" fill="none" stroke="#000000" stroke-width="1.6" stroke-linecap="round"/><path d="M347.16244,213.09227c0,0 -7.68469,2.36632 -19.51542,-1.16985c-11.04007,-3.29983 -14.02665,-10.34988 -14.02665,-10.34988" fill="none" stroke="#000000" stroke-width="1.6" stroke-linecap="round"/><path d="M314.46798,197.31467c0,0 5.40446,2.26617 11.6192,3.80318c5.46531,1.35167 11.60078,1.93147 14.63612,2.78553c3.60517,1.01438 9.39626,3.4425 9.39626,3.4425" fill="none" stroke="#000000" stroke-width="1.6" stroke-linecap="round"/><path d="M315.21562,191.9159c0,0 10.55268,-2.78653 18.22682,-0.39015c12.04487,3.76121 18.19457,10.68575 18.19457,10.68575" fill="none" stroke="#000000" stroke-width="1.6" stroke-linecap="round"/><path d="M318.28604,185.83961c0,0 7.60655,-2.38621 15.56044,-1.04901c11.45393,1.92561 16.30651,6.70677 16.30651,6.70677" fill="none" stroke="#000000" stroke-width="1.6" stroke-linecap="round"/><path d="M333.41584,184.0279c-0.91105,-0.31289 -1.42979,-1.20663 -1.15861,-1.99621c0.27118,-0.78956 1.22958,-1.176 2.14063,-0.86311c0.91105,0.31289 1.42977,1.20663 1.1586,1.99621c-0.27118,0.78957 -1.22957,1.176 -2.14062,0.86311z" fill="#8fbbbe" stroke="none" stroke-width="0" stroke-linecap="butt"/><path d="M327.74218,183.18582c-0.45552,-0.15646 -0.69798,-0.65255 -0.54153,-1.10808c0.15646,-0.45552 0.65255,-0.69797 1.10808,-0.54152c0.45553,0.15646 0.69798,0.65254 0.54153,1.10807c-0.15646,0.45553 -0.65255,0.69798 -1.10808,0.54153z" fill="#8fbbbe" stroke="none" stroke-width="0" stroke-linecap="butt"/></g></g><path d="M167.43872,310.75449v-258.66667h258.66667v258.66667z" data-paper-data="{&quot;index&quot;:null}" fill="none" stroke="none" stroke-width="0" stroke-linecap="butt"/></g></g></svg>