<svg version="1.1" xmlns="http://www.w3.org/2000/svg" xmlns:xlink="http://www.w3.org/1999/xlink" width="134.40405" height="183.78853" viewBox="0,0,134.40405,183.78853"><g transform="translate(-149.49324,-81.44631)"><g data-paper-data="{&quot;isPaintingLayer&quot;:true}" fill-rule="nonzero" stroke-linejoin="miter" stroke-miterlimit="10" stroke-dasharray="" stroke-dashoffset="0" style="mix-blend-mode: normal"><g stroke="#000000" stroke-width="1.5"><g data-paper-data="{&quot;index&quot;:null}"><path d="M190.80167,189.48093c0.17196,-0.04936 5.54984,-1.36687 11.09986,-1.72208c5.32644,-0.34088 10.83342,0.54888 11.40456,2.36183c1.2036,3.82055 -6.68906,9.24022 -17.36141,12.96301c-10.67237,3.72279 -14.96096,8.48542 -18.01164,6.28262c-14.21048,-10.26084 1.60334,-16.65274 12.86861,-19.8854z" fill="#f0d5b1" stroke-linecap="butt"/><path d="M190.93367,204.54866l-8.28953,-8.33346" fill="none" stroke-linecap="round"/><path d="M187.40879,214.14066c0,0 -3.4901,-1.42347 -5.17856,-2.41446c-2.19259,-1.28682 -6.8642,-4.65344 -6.8642,-4.65344c0,0 1.49154,-3.92727 2.66505,-5.66831c1.22119,-1.81177 5.85885,-3.44813 5.85885,-3.44813l9.42049,7.03391l-5.90159,9.15037z" fill="#955544" stroke-linecap="butt"/><path d="M191.05945,208.06024l-10.66081,-6.71425l-0.99199,-0.92339" fill="none" stroke-linecap="round"/><path d="M177.26365,204.84647l11.26518,7.5237" fill="none" stroke-linecap="round"/></g><g data-paper-data="{&quot;index&quot;:null}"><g><path d="" data-paper-data="{&quot;index&quot;:null}" fill="#f0d5b1" stroke-linecap="butt"/><path d="" data-paper-data="{&quot;index&quot;:null}" fill="#955544" stroke-linecap="butt"/><path d="" data-paper-data="{&quot;index&quot;:null}" fill="none" stroke-linecap="round"/><path d="" data-paper-data="{&quot;index&quot;:null}" fill="none" stroke-linecap="round"/></g><path d="M196.86266,211.14705c0,0 1.45515,-1.47672 6.4283,-0.65886c2.11499,0.34784 4.82541,0.65881 5.12432,2.54248c0.25066,1.57965 -1.25576,2.24665 -3.9653,3.67044c-2.29309,1.20497 -1.37528,1.50851 -3.35802,2.78766c-1.43568,0.92621 -3.23202,2.30229 -5.37163,3.3679c-2.43102,1.21074 -5.91703,0.42711 -9.06195,0.58215c-2.42679,0.11962 -4.22385,2.49394 -6.95143,1.37959c-5.23119,-2.13717 -4.68829,-5.05808 -5.43972,-8.27984c-0.59502,-2.55102 -3.2059,-5.27971 -1.67963,-8.03445c3.45381,-6.23377 19.64092,-7.57565 19.64092,-7.57565c0,0 5.72198,11.77638 3.01377,13.19287c-4.69805,2.45723 -6.58428,-6.68231 -6.58428,-6.68231c0,0 2.22806,8.86218 0.0246,9.63228c-6.46817,2.26066 -7.53204,-5.89381 -7.01651,-3.4865c0.23404,1.09293 0.30265,2.2487 0.00733,3.29907c-0.94583,3.36394 -5.70809,1.45596 -5.70809,1.45596c0,0 1.65084,0.363 3.20899,0.1342c1.34209,-0.19708 2.60095,-0.91806 2.84608,-1.69529c0.7701,-2.44175 -1.75159,-6.72735 -1.75159,-6.72735c0,0 1.05066,2.75646 2.51642,4.93757c1.32017,1.96442 2.94054,3.43628 5.06662,2.45508c2.95721,-1.36475 0.79216,-10.08727 0.79216,-10.08727c0,0 2.65737,7.60008 4.78486,7.35808c1.73916,-0.19785 3.43382,-3.56786 3.43382,-3.56786z" fill="#46b8d9" stroke-linecap="round"/></g></g><g stroke="#000000" stroke-width="1.5"><path d="M235.7597,257.79131c0,3.69674 -5.2465,6.69354 -11.71836,6.69354c-6.47187,0 -11.71836,-2.99681 -11.71836,-6.69354c0,-3.69673 5.2465,-6.69353 11.71836,-6.69353c6.47187,0 11.71836,2.99677 11.71836,6.69353z" fill="#46b8d9" stroke-linecap="butt"/><path d="M214.12096,252.84939l9.55575,-12.0421l-0.88014,-9.0707l12.32189,1.56391c0,0 0.2814,7.04754 -1.00586,11.10376c-1.28727,4.05621 -4.65214,6.72482 -4.65214,6.72482z" fill="#494d5f" stroke-linecap="round"/><path d="M222.44453,242.465c0,0 2.57835,2.22992 5.77508,2.26127c1.94488,0.01906 5.71698,-1.29163 5.71698,-1.29163c0,0 -1.19203,3.57083 -2.07388,4.89448c-0.86115,1.29255 -3.15664,2.95633 -3.15664,2.95633l-13.70496,1.25114z" fill="#f0d5b1" stroke-linecap="round"/><path d="M254.56945,250.22203l-9.65634,-22.01987l8.75106,-4.50406l13.88099,27.77506z" fill="#494d5f" stroke-linecap="butt"/><path d="M269.4563,257.04068c0,3.97313 -4.59349,7.19398 -10.25987,7.19398c-5.66638,0 -10.25987,-3.22085 -10.25987,-7.19398c0,-3.97312 4.5935,-7.19398 10.25987,-7.19398c5.66638,0 10.25987,3.22085 10.25987,7.19398z" fill="#46b8d9" stroke-linecap="butt"/><path d="M224.49397,256.97808l-1.70998,7.25655" fill="none" stroke-linecap="round"/><path d="M231.53506,256.85295l-0.90528,5.37986" fill="none" stroke-linecap="round"/><path d="M253.56357,261.85747l0.40234,-4.87942" fill="none" stroke-linecap="round"/><path d="M261.30876,256.97808l-0.20117,5.88031" fill="none" stroke-linecap="round"/><path d="M252.25594,244.84215l9.55575,-4.75429l5.83404,11.51039l-12.67394,-1.12603z" fill="#f0d5b1" stroke-linecap="round"/></g><g stroke="#000000" stroke-width="1.5"><path d="M223.53651,234.82985c0,0 -7.9075,4.45199 -13.66885,5.97539c-5.76132,1.5234 -9.60164,4.62394 -10.81765,1.07255c-2.72324,-7.95333 3.10676,-8.06757 8.86808,-9.591c5.56684,-1.47197 15.6184,2.54306 15.6184,2.54306z" fill="#49c0e0" stroke-linecap="butt"/><path d="M255.47456,216.05246c2.53834,6.04209 -3.13302,14.60341 -12.66735,19.12227c-9.31797,4.4163 -18.84625,7.50868 -22.4302,-0.82687c-1.3416,-3.12024 2.95736,-8.75756 2.95736,-8.75756l-19.71381,-43.28063l24.41162,2.22496l17.64248,29.48211c0,0 8.25674,-1.6375 9.7999,2.0357z" fill="#f0d5b1" stroke-linecap="butt"/><path d="M255.79532,218.59462c0.20438,1.45639 -0.58128,4.81723 -0.58128,4.81723c0,0 -4.4459,8.05569 -10.54907,10.77625c-8.26365,3.68359 -17.71918,5.22573 -17.71918,5.22573c0,0 -3.94829,-1.38966 -5.14464,-2.81324c-0.93909,-1.11751 -1.93554,-4.46234 -1.93554,-4.46234c0,0 15.34706,-3.26022 21.33645,-6.19957c5.57218,-2.73461 13.43869,-10.86659 13.43869,-10.86659c0,0 0.98997,2.34953 1.15459,3.52253z" fill="#494d5f" stroke-linecap="round"/><path d="M241.99392,225.99782c2.25929,-1.05517 6.40944,-4.05214 6.40944,-4.05214c0,0 -1.44169,5.77389 -4.21232,7.06787c-2.77067,1.29396 -9.24648,-0.78224 -9.24648,-0.78224c0,0 4.82292,-1.19364 7.04941,-2.23346z" fill="#e7e7e8" stroke-linecap="round"/><path d="M241.95389,230.51355l1.0451,4.7198" fill="none" stroke-linecap="round"/><path d="M250.14198,229.08634l-2.7186,-2.61516" fill="none" stroke-linecap="round"/><path d="M209.15924,193.42993l-3.0331,-10.32317l22.21925,-2.36585l6.75742,11.5076z" fill="#955544" stroke-linecap="butt"/><path d="M228.87478,192.51232l-1.4329,-4.17498" fill="none" stroke-linecap="round"/></g><g stroke="#000000" stroke-width="1.5"><g><path d="M250.82128,150.2969c-4.2188,-3.26937 -7.75859,-7.58079 -6.987,-9.31795c1.14411,-2.57585 6.2349,-3.53283 12.76997,-1.93049c2.75254,0.6749 7.9949,3.98143 11.0963,5.24743c3.35832,1.37087 5.79168,0.03262 7.95579,-0.82904c4.5794,-1.8233 5.29653,-3.37683 5.85976,-0.88436c3.86321,17.09673 -10.64875,18.80063 -21.2336,13.76899c-0.16159,-0.07681 -5.06527,-2.64801 -9.46119,-6.0546z" data-paper-data="{&quot;index&quot;:null}" fill="#f0d5b1" stroke-linecap="butt"/><path d="M276.78289,130.52935c0,0 2.14116,3.102 3.01154,4.85569c1.13024,2.27727 3.19626,7.6522 3.19626,7.6522c0,0 -3.39831,2.46972 -5.33352,3.28412c-2.01382,0.84747 -6.79059,-0.32233 -6.79059,-0.32233l-4.03201,-11.04374l9.94835,-4.42591z" data-paper-data="{&quot;index&quot;:null}" fill="#955544" stroke-linecap="butt"/><path d="M270.39898,133.61869l5.24495,11.45537l0.32456,1.31585" data-paper-data="{&quot;index&quot;:null}" fill="none" stroke-linecap="round"/><path d="M274.87632,131.39763l5.30749,12.46358" data-paper-data="{&quot;index&quot;:null}" fill="none" stroke-linecap="round"/><path d="M264.99757,139.12563c-0.26381,-0.02112 -1.63893,-0.15766 -2.22927,-0.64702c-0.84159,-0.69765 -1.03048,-1.84265 -2.18701,-2.08618c-3.32202,-0.69954 -6.96823,-1.14142 -7.1427,-3.30111c-0.18212,-2.25412 6.6194,-2.23431 6.6194,-2.23431c0,0 -5.99755,-2.00141 -5.82702,-4.13057c0.28707,-3.5839 7.17023,-2.73451 7.17023,-2.73451c0,0 -3.9377,-1.72017 -2.69762,-3.84773c1.61638,-2.77311 7.06852,1.54321 7.68684,1.59275c5.59697,0.44834 9.8224,4.70437 9.43778,9.50613c-0.38462,4.80176 -5.23368,8.33094 -10.83064,7.8826z" data-paper-data="{&quot;index&quot;:null}" fill="#46b8d9" stroke-linecap="butt"/></g><path d="M230.3452,92.92783c7.44121,-3.18155 14.03895,-3.98986 15.33067,-3.36547c9.50217,4.593 21.12866,36.54968 6.21222,41.57473c-14.91644,5.02503 -33.54498,-5.57129 -37.77825,-21.30411c-1.1624,-4.31992 6.94821,-12.93429 16.23536,-16.9051z" data-paper-data="{&quot;index&quot;:null}" fill="#49c0e0" stroke-linecap="butt"/><path d="M189.89606,101.60039c4.35435,15.69972 -6.29855,34.296 -21.69791,37.55348c-15.39936,3.25748 -21.6367,-30.17155 -15.78992,-38.95803c0.79481,-1.19442 6.88705,-3.85311 14.91226,-4.89709c10.016,-1.30296 21.38001,1.99083 22.57562,6.30166z" fill="#49c0e0" stroke-linecap="butt"/><path d="M260.16575,134.20886c0,0 18.20841,8.94245 13.69971,31.18472c-2.27301,11.21317 -14.63574,21.3993 -52.07905,25.35713c-28.28509,2.98979 -54.66174,-13.18348 -60.07658,-38.78153c-5.41485,-25.59806 14.73233,-52.36275 40.7876,-56.02913c57.5195,-8.09388 57.66836,38.26883 57.66836,38.26883z" fill="#49c0e0" stroke-linecap="butt"/><path d="M244.91208,159.63736c-0.34008,9.58583 -22.79062,35.50443 -32.7947,36.28127c-7.95141,0.61744 -13.64788,-18.76913 -15.04884,-31.86177c-1.38679,-12.96016 -2.58436,-22.17711 8.83817,-22.70746c5.88463,-0.27318 13.90028,12.82189 22.43828,16.01339c8.0349,3.00339 16.79345,-4.10521 16.5671,2.27459z" fill="#c25e5d" stroke-linecap="butt"/><path d="M251.65908,157.32356c-1.48734,3.51002 -10.31496,4.38364 -19.71708,1.95128c-9.4021,-2.43233 -15.81828,-7.24954 -14.33092,-10.75954c1.48734,-3.51002 10.31496,-4.38363 19.71708,-1.95128c9.4021,2.43233 15.81828,7.24954 14.33092,10.75954z" fill="#c8dee6" stroke-linecap="butt"/><path d="M244.10939,150.02188c0,0 -4.91182,3.20418 -8.29701,2.23646c-3.38523,-0.96771 -5.62932,-5.77146 -5.62932,-5.77146c0,0 4.32856,-0.52546 7.71378,0.44224c3.38522,0.96771 6.21261,3.09274 6.21261,3.09274z" fill="#c04915" stroke-linecap="butt"/><path d="M236.11955,151.02743c0,0 -0.74236,2.81923 -1.35764,3.95451c-0.60996,1.12548 -1.6033,3.18786 -1.6033,3.18786" fill="none" stroke-linecap="round"/><path d="M220.93389,122.40793c2.3842,11.27107 -4.46169,22.26502 -15.29075,24.55573c-10.82905,2.29071 -21.54051,-4.98929 -23.92472,-16.26038c-2.3842,-11.27107 4.46169,-22.26503 15.29075,-24.55573c10.82905,-2.2907 21.54051,4.9893 23.92472,16.26038z" fill="#ffffff" stroke-linecap="butt"/><path d="M256.66498,125.52769c3.00188,10.11661 0.2094,19.94983 -6.23721,21.96309c-6.44659,2.01328 -14.10605,-4.55576 -17.10791,-14.67237c-3.00188,-10.11661 -0.2094,-19.94983 6.23721,-21.96309c6.44659,-2.01328 14.10605,4.55576 17.10791,14.67237z" fill="#ffffff" stroke-linecap="butt"/><path d="M214.11936,87.57623c0.54161,3.4789 -6.4445,3.38883 -6.4445,3.38883c0,0 -4.72578,7.68325 -7.84154,6.0437c-3.11576,-1.63957 -2.14116,-6.93648 0.23778,-11.45739c2.37895,-4.52092 12.94638,-5.05244 14.04821,2.02485z" data-paper-data="{&quot;index&quot;:null}" fill="#000000" stroke-linecap="butt"/><path d="M237.10549,95.02056c0,0 -5.80931,-3.05485 -3.96438,-5.52639c3.75326,-5.028 12.27241,0.11376 12.42241,4.70464c0.15001,4.5909 -1.1722,9.15889 -4.40554,9.04412c-3.23336,-0.11478 -4.05247,-8.22234 -4.05247,-8.22234z" data-paper-data="{&quot;index&quot;:null}" fill="#000000" stroke-linecap="butt"/><path d="M197.46256,153.63812c0,0 10.77013,6.65098 14.85523,12.00396c4.42739,5.80149 11.96198,23.94893 11.96198,23.94893c0,0 -9.00421,9.5315 -15.60857,4.59259c-10.60218,-7.92852 -11.20861,-40.54547 -11.20861,-40.54547z" fill="#f1898a" stroke-linecap="round"/><path d="M220.55102,155.90597l-4.35635,5.9356l0.04651,-11.41439z" fill="#ffffff" stroke-linecap="butt"/></g><path d="M214.5138,156.26799c-0.32984,0.29923 -0.69866,0.57413 -1.10875,0.82068c-0.73766,0.44348 -7.00754,1.75313 -8.5777,2.09342c-1.1719,0.00526 -8.72736,0.0839 -9.27603,-0.13604c-3.79235,-1.52016 -4.95847,-3.8618 -4.59443,-6.39245c-0.52671,0.30354 -1.01825,0.66044 -1.45321,1.09413c-1.43218,1.42797 0.14312,8.31215 0.76796,9.9709c0.77185,2.04901 2.69156,3.50382 3.59154,5.49987c0.10498,0.23284 4.07361,11.14685 4.22378,11.56713c0.74567,2.0869 1.91574,4.07482 2.20535,6.27193c0.28961,2.19712 -0.32658,4.42023 -0.50478,6.62917c-0.45942,5.69504 -2.00821,11.25901 -3.03711,16.88038c-0.71254,2.34549 -0.85263,4.82812 -1.31168,7.23609c-0.70154,3.67991 -2.01595,6.10339 0.96323,9.07678c0.4244,0.42357 0.65053,1.13282 1.21936,1.32248c1.12047,0.3736 1.04312,-2.12018 1.60742,-3.15777c1.62543,-2.98872 2.84502,-5.4297 4.16058,-8.64552c0.27386,-0.66944 2.21372,-4.63754 2.53111,-5.91682c0.44914,-1.81026 0.23152,-3.73908 0.64212,-5.55847c1.82572,-8.0898 4.93971,-15.69687 7.69867,-23.47115c0.37645,-2.24915 1.08379,-4.43041 1.65921,-6.63705c0.74155,-2.84372 0.245,-6.40708 0.24623,-9.28234c0.0011,-2.56337 0.44422,-6.06101 -0.88529,-8.42281c-0.17934,-0.31858 -0.44754,-0.59686 -0.76758,-0.84254zM191.15953,146.07448c0.14736,-1.63104 0.86132,-3.25986 2.14738,-4.58819c4.3636,-4.50702 14.69339,-4.37465 19.43755,-0.26544c2.36437,2.04793 4.1203,5.88732 4.07953,9.42402c1.41373,0.83427 2.66938,1.86579 3.56129,3.31127c2.08495,3.37897 1.77983,7.80649 1.78138,11.57719c0.00143,3.47719 0.40563,7.29536 -0.42044,10.71766c-0.53986,2.23656 -1.29746,4.42653 -1.67412,6.69628c-2.69081,7.70272 -5.8035,15.2021 -7.63467,23.19552c-0.43291,1.88974 -0.21853,3.89468 -0.69121,5.77487c-0.56009,2.22788 -1.95465,4.67803 -2.80222,6.74985c-1.39052,3.39904 -2.68841,6.20828 -4.50608,9.35448c-0.65606,1.13557 -0.7374,2.67283 -1.72447,3.53634c-4.66156,4.07802 -9.93027,2.2544 -12.78901,-2.81997c-2.42667,-4.30742 -1.18483,-7.82426 -0.36318,-12.14156c0.47071,-2.47331 0.63924,-5.01675 1.35498,-7.43058c0.96387,-5.33981 2.38499,-10.60377 2.8938,-15.99875c0.16752,-1.77628 0.76689,-3.55695 0.53373,-5.32581c-0.23316,-1.76886 -1.27539,-3.33268 -1.89557,-5.00559c-1.354,-3.65239 -2.39821,-7.42738 -3.97805,-10.98791c-0.82803,-1.86615 -3.07004,-4.03619 -3.74179,-5.83346c-0.68729,-1.83883 -0.96412,-3.81649 -1.20379,-5.76487c-0.46047,-3.74334 -1.14044,-7.11748 1.30508,-10.26423c1.5388,-1.98003 3.94841,-3.05854 6.32988,-3.91113z" fill="#000000" stroke="none" stroke-width="0.5" stroke-linecap="butt"/><path d="M248.07108,149.40997c-0.71455,0.15101 -1.41924,0.23578 -2.08366,0.22093c0.2099,1.44713 0.88957,2.90925 1.36039,4.2924c2.18022,6.40492 6.5779,11.35886 7.77157,18.07951c2.06631,11.63384 -1.29844,24.06868 1.62438,35.46959c0.12228,0.63873 0.04922,1.34869 0.36684,1.91618c0.13661,0.24409 1.06064,0.68433 1.40765,1.25492c0.0906,-1.6286 0.30084,-4.95146 0.31968,-5.27606c0.28365,-4.88878 -0.00459,-9.94601 -0.00459,-14.8341c0,-10.45694 -0.2963,-20.96753 0.00129,-31.42145c0.12122,-4.25818 2.17983,-11.72146 -1.48201,-15.15027c-0.22335,-0.20914 -0.45961,-0.40164 -0.70518,-0.58213l-1.37821,3.3077l-0.11859,-0.04941c-0.02561,0.15039 -0.05383,0.30048 -0.0849,0.45022c-0.20665,0.99607 -1.28517,1.57727 -1.92775,2.3659l-2.638,1.07945c0,0 -1.55855,0 -2.42892,-1.12336zM244.21285,140.55735c2.00169,-2.76942 4.79156,-5.4701 6.2496,-5.94019c1.72763,-0.55702 3.53025,0.84692 5.29538,1.27038c5.17642,3.41389 7.03221,3.4322 9.29543,9.49544c0.44514,1.19253 0.09608,2.54424 0.1134,3.81703c0.04578,3.36425 -0.23818,6.72495 -0.33463,10.08812c-0.29809,10.39485 0.00129,20.8473 0.00129,31.24521c0,5.97872 0.62544,12.47964 -0.36181,18.4124c-0.28259,1.69815 -0.04482,3.64672 -1.02533,5.0617c-5.26735,7.60139 -10.99552,0.32178 -12.52328,-5.07983c-2.85203,-11.65581 0.28228,-24.0292 -1.70896,-35.86375c-1.50863,-8.9663 -11.59697,-17.08087 -8.94678,-26.9672c0.6298,-2.34941 2.14299,-4.09641 3.94568,-5.53931z" fill="#000000" stroke="none" stroke-width="0.5" stroke-linecap="butt"/></g></g></svg>