<svg version="1.1" xmlns="http://www.w3.org/2000/svg" xmlns:xlink="http://www.w3.org/1999/xlink" width="132.46782" height="182.97621" viewBox="0,0,132.46782,182.97621"><g transform="translate(-154.51515,-82.25865)"><g data-paper-data="{&quot;isPaintingLayer&quot;:true}" fill-rule="nonzero" stroke-linejoin="miter" stroke-miterlimit="10" stroke-dasharray="" stroke-dashoffset="0" style="mix-blend-mode: normal"><g stroke="#000000" stroke-width="1.5"><g data-paper-data="{&quot;index&quot;:null}"><path d="M192.65911,189.30925c0.17221,-0.0485 5.55663,-1.339 11.10837,-1.66634c5.32808,-0.31414 10.83053,0.60325 11.39256,2.41904c1.18441,3.82655 -6.73535,9.20652 -17.42626,12.87571c-10.69092,3.66917 -15.00336,8.41022 -18.04295,6.19213c-14.1588,-10.33204 1.68691,-16.64449 12.96826,-19.82055z" fill="#f0d5b1" stroke-linecap="butt"/><path d="M192.71548,204.37745l-8.24759,-8.37497" fill="none" stroke-linecap="round"/><path d="M189.1425,213.95163c0,0 -3.48291,-1.44097 -5.16638,-2.44042c-2.1861,-1.29781 -6.84076,-4.68783 -6.84076,-4.68783c0,0 1.51123,-3.91974 2.69347,-5.65486c1.23027,-1.80562 5.87608,-3.41868 5.87608,-3.41868l9.38506,7.08111l-5.94745,9.12063z" fill="#955544" stroke-linecap="butt"/><path d="M192.82363,207.88961l-10.62698,-6.76768l-0.98735,-0.92836" fill="none" stroke-linecap="round"/><path d="M190.27141,212.18679l-11.22727,-7.58015" fill="none" stroke-linecap="round"/></g><g data-paper-data="{&quot;index&quot;:null}"><g><path d="" data-paper-data="{&quot;index&quot;:null}" fill="#f0d5b1" stroke-linecap="butt"/><path d="" data-paper-data="{&quot;index&quot;:null}" fill="#955544" stroke-linecap="butt"/><path d="" data-paper-data="{&quot;index&quot;:null}" fill="none" stroke-linecap="round"/><path d="" data-paper-data="{&quot;index&quot;:null}" fill="none" stroke-linecap="round"/></g><path d="M198.61127,211.00552c0,0 1.46255,-1.4694 6.43153,-0.62658c2.11322,0.35845 4.82204,0.68302 5.11149,2.56817c0.24273,1.58088 -1.26702,2.24032 -3.98367,3.65049c-2.29911,1.19344 -1.38283,1.50158 -3.37197,2.77077c-1.44031,0.91899 -3.24354,2.28604 -5.38847,3.34089c-2.43706,1.19852 -5.9191,0.39741 -9.06476,0.53666c-2.42736,0.10744 -4.23631,2.47271 -6.95827,1.34468c-5.22039,-2.1634 -4.66284,-5.08154 -5.39809,-8.30704c-0.58221,-2.55398 -3.17935,-5.29573 -1.63928,-8.04278c3.48506,-6.21636 19.6787,-7.47697 19.6787,-7.47697c0,0 5.6628,11.80495 2.94752,13.20783c-4.71033,2.43362 -6.55066,-6.71527 -6.55066,-6.71527c0,0 2.18355,8.87325 -0.02375,9.63229c-6.47944,2.22816 -7.50237,-5.93154 -6.99892,-3.52168c0.22855,1.09409 0.29136,2.25019 -0.00923,3.29907c-0.96271,3.35915 -5.71533,1.42729 -5.71533,1.42729c0,0 1.649,0.37128 3.20828,0.1503c1.34306,-0.19034 2.60552,-0.905 2.85455,-1.68098c0.78235,-2.43785 -1.7178,-6.73606 -1.7178,-6.73606c0,0 1.03681,2.7617 2.49161,4.95014c1.3103,1.97102 2.92326,3.451 5.05423,2.48048c2.96402,-1.34989 0.84278,-10.08316 0.84278,-10.08316c0,0 2.61919,7.61333 4.74787,7.382c1.74013,-0.18911 3.45169,-3.55058 3.45169,-3.55058z" fill="#46b8d9" stroke-linecap="round"/></g></g><g stroke="#000000" stroke-width="1.5"><path d="M235.7597,257.79131c0,3.69674 -5.2465,6.69354 -11.71836,6.69354c-6.47187,0 -11.71836,-2.99681 -11.71836,-6.69354c0,-3.69673 5.2465,-6.69353 11.71836,-6.69353c6.47187,0 11.71836,2.99677 11.71836,6.69353z" fill="#46b8d9" stroke-linecap="butt"/><path d="M214.12096,252.84939l9.55575,-12.0421l-0.88014,-9.0707l12.32189,1.56391c0,0 0.2814,7.04754 -1.00586,11.10376c-1.28727,4.05621 -4.65214,6.72482 -4.65214,6.72482z" fill="#494d5f" stroke-linecap="round"/><path d="M222.44453,242.465c0,0 2.57835,2.22992 5.77508,2.26127c1.94488,0.01906 5.71698,-1.29163 5.71698,-1.29163c0,0 -1.19203,3.57083 -2.07388,4.89448c-0.86115,1.29255 -3.15664,2.95633 -3.15664,2.95633l-13.70496,1.25114z" fill="#f0d5b1" stroke-linecap="round"/><path d="M254.56945,250.22203l-9.65634,-22.01987l8.75106,-4.50406l13.88099,27.77506z" fill="#494d5f" stroke-linecap="butt"/><path d="M269.4563,257.04068c0,3.97313 -4.59349,7.19398 -10.25987,7.19398c-5.66638,0 -10.25987,-3.22085 -10.25987,-7.19398c0,-3.97312 4.5935,-7.19398 10.25987,-7.19398c5.66638,0 10.25987,3.22085 10.25987,7.19398z" fill="#46b8d9" stroke-linecap="butt"/><path d="M222.78399,264.23463l1.70998,-7.25655" fill="none" stroke-linecap="round"/><path d="M230.62978,262.23281l0.90528,-5.37986" fill="none" stroke-linecap="round"/><path d="M253.56357,261.85747l0.40234,-4.87942" fill="none" stroke-linecap="round"/><path d="M261.10759,262.85839l0.20117,-5.88031" fill="none" stroke-linecap="round"/><path d="M252.25594,244.84215l9.55575,-4.75429l5.83404,11.51039l-12.67394,-1.12603z" fill="#f0d5b1" stroke-linecap="round"/></g><g stroke="#000000" stroke-width="1.5"><path d="M225.16591,234.8219c0,0 -7.92975,4.41224 -13.69867,5.9067c-5.7689,1.49446 -9.62473,4.57569 -10.8229,1.01824c-2.68328,-7.96689 3.14722,-8.05187 8.91611,-9.54636c5.57416,-1.44401 15.60544,2.62142 15.60544,2.62142z" fill="#49c0e0" stroke-linecap="butt"/><path d="M257.19782,216.20505c2.50799,6.05475 -3.20628,14.5875 -12.76317,19.05845c-9.34002,4.36947 -18.8837,7.41398 -22.42577,-0.93944c-1.32592,-3.12693 3.00128,-8.7426 3.00128,-8.7426l-19.49632,-43.37904l24.40015,2.34746l17.49427,29.57029c0,0 8.26485,-1.59603 9.78955,2.08487z" fill="#f0d5b1" stroke-linecap="butt"/><path d="M257.5058,218.74879c0.19706,1.45739 -0.60545,4.81425 -0.60545,4.81425c0,0 -4.48628,8.03328 -10.60303,10.72317c-8.28203,3.64207 -17.74519,5.13673 -17.74519,5.13673c0,0 -3.94127,-1.40946 -5.13046,-2.83903c-0.93347,-1.12221 -1.91312,-4.472 -1.91312,-4.472c0,0 15.36323,-3.18315 21.36729,-6.0924c5.58583,-2.7066 13.49307,-10.799 13.49307,-10.799c0,0 0.97816,2.35446 1.13689,3.52828z" fill="#494d5f" stroke-linecap="round"/><path d="M243.66742,226.08262c2.26456,-1.04381 6.4297,-4.01992 6.4297,-4.01992c0,0 -1.47065,5.76659 -4.24775,7.04664c-2.77713,1.28004 -9.24244,-0.82864 -9.24244,-0.82864c0,0 4.82885,-1.16942 7.06053,-2.19805z" fill="#e7e7e8" stroke-linecap="round"/><path d="M244.62613,235.32308l-1.02139,-4.72499" fill="none" stroke-linecap="round"/><path d="M251.79987,229.212l-2.70544,-2.62877" fill="none" stroke-linecap="round"/><path d="M210.99662,193.35034l-2.98125,-10.33826l22.23085,-2.25429l6.69957,11.54138z" fill="#955544" stroke-linecap="butt"/><path d="M229.3046,188.34958l1.41192,4.18211" fill="none" stroke-linecap="round"/></g><g stroke="#000000" stroke-width="1.5"><g><path d="M253.57418,153.41988c-4.03375,-3.49513 -7.33252,-7.99363 -6.46711,-9.68601c1.28323,-2.50945 6.41872,-3.18666 12.85641,-1.22943c2.71153,0.82438 7.76526,4.41258 10.79281,5.84625c3.27834,1.55243 5.78123,0.34922 7.98921,-0.39283c4.67224,-1.57019 5.47323,-3.0822 5.89935,-0.56267c2.9227,17.28237 -11.66071,18.19031 -21.95463,12.58749c-0.15715,-0.08553 -4.91292,-2.92098 -9.11601,-6.56282z" data-paper-data="{&quot;index&quot;:null}" fill="#f0d5b1" stroke-linecap="butt"/><path d="M280.57771,135.1013c0,0 1.96836,3.21442 2.74156,5.01307c1.00404,2.33566 2.7731,7.8155 2.7731,7.8155c0,0 -3.52825,2.28023 -5.5051,2.98761c-2.05714,0.73611 -6.7628,-0.69311 -6.7628,-0.69311l-3.42219,-11.24767l10.17545,-3.87539z" data-paper-data="{&quot;index&quot;:null}" fill="#955544" stroke-linecap="butt"/><path d="M274.03444,137.83699l4.6108,11.72499l0.25213,1.33162" data-paper-data="{&quot;index&quot;:null}" fill="none" stroke-linecap="round"/><path d="M278.62652,135.86405l4.61813,12.73511" data-paper-data="{&quot;index&quot;:null}" fill="none" stroke-linecap="round"/><path d="M268.34003,143.04039c-0.26227,-0.03552 -1.62787,-0.24704 -2.19056,-0.76794c-0.80219,-0.74262 -0.92819,-1.89623 -2.06968,-2.20263c-3.2788,-0.88012 -6.8954,-1.52068 -6.95153,-3.68669c-0.0586,-2.2607 6.73166,-1.86906 6.73166,-1.86906c0,0 -5.87915,-2.32632 -5.59246,-4.44298c0.48258,-3.56284 7.30901,-2.3384 7.30901,-2.3384c0,0 -3.83777,-1.93289 -2.48322,-3.98946c1.76557,-2.6806 6.97357,1.92736 7.58826,2.01063c5.56409,0.75368 9.55051,5.23436 8.90393,10.00791c-0.64657,4.77355 -5.68133,8.03233 -11.2454,7.27866z" data-paper-data="{&quot;index&quot;:null}" fill="#46b8d9" stroke-linecap="butt"/></g><path d="M236.26526,95.01712c7.60403,-2.76996 14.2361,-3.21634 15.49175,-2.52227c9.23684,5.10565 19.09877,37.65019 3.92991,41.85219c-15.16886,4.20199 -33.19021,-7.39697 -36.55698,-23.3377c-0.92448,-4.37701 7.64498,-12.53507 17.13533,-15.99217z" data-paper-data="{&quot;index&quot;:null}" fill="#49c0e0" stroke-linecap="butt"/><path d="M195.40247,101.46523c3.48948,15.91431 -8.16421,33.90033 -23.71862,36.31102c-15.55443,2.41068 -19.95477,-31.30937 -13.63635,-39.76305c0.85893,-1.14919 7.08742,-3.4708 15.15769,-4.07447c10.07225,-0.7534 21.23918,3.15676 22.19732,7.52651z" fill="#49c0e0" stroke-linecap="butt"/><path d="M263.78425,137.86679c0,0 17.69227,9.92458 11.97425,31.88708c-2.88267,11.07213 -15.78381,20.56712 -53.38751,22.47188c-28.40625,1.43889 -53.8592,-16.1523 -57.86642,-42.0081c-4.00722,-25.85582 17.57313,-51.47897 43.78988,-53.71534c57.87599,-4.937 55.48982,41.3645 55.48982,41.3645z" fill="#49c0e0" stroke-linecap="butt"/><path d="M247.16315,162.42329c-0.86366,9.5529 -24.69767,34.20529 -34.72927,34.43401c-7.97328,0.18179 -12.6013,-19.48722 -13.28435,-32.63688c-0.67614,-13.0166 -1.368,-22.28524 10.06644,-22.19028c5.89076,0.04896 13.17848,13.56269 21.52922,17.21621c7.85868,3.43819 16.99278,-3.18092 16.41796,3.17697z" fill="#c25e5d" stroke-linecap="butt"/><path d="M254.02655,160.48184c-1.67701,3.42345 -10.5392,3.81312 -19.79426,0.87037c-9.25505,-2.94273 -15.39827,-8.10353 -13.72123,-11.52697c1.67701,-3.42345 10.5392,-3.81311 19.79426,-0.87037c9.25505,2.94273 15.39827,8.10353 13.72123,11.52697z" fill="#c8dee6" stroke-linecap="butt"/><path d="M246.88737,152.77831c0,0 -5.07965,2.93084 -8.40688,1.77949c-3.32726,-1.15134 -5.30536,-6.0706 -5.30536,-6.0706c0,0 4.35081,-0.28802 7.67806,0.86331c3.32725,1.15134 6.03423,3.42778 6.03423,3.42778z" fill="#c04915" stroke-linecap="butt"/><path d="M238.8545,153.34552c0,0 -0.89539,2.77443 -1.57182,3.87437c-0.67058,1.09045 -1.77519,3.09544 -1.77519,3.09544" fill="none" stroke-linecap="round"/><path d="M225.25627,123.93859c1.76441,11.38456 -5.67232,21.98779 -16.61042,23.68301c-10.9381,1.69523 -21.23551,-6.15951 -22.99992,-17.5441c-1.76441,-11.38456 5.67232,-21.9878 16.61042,-23.68301c10.9381,-1.69522 21.23551,6.15952 22.99992,17.5441z" fill="#ffffff" stroke-linecap="butt"/><path d="M260.76335,129.0072c2.44429,10.2656 -0.88163,19.93143 -7.42866,21.58923c-6.54702,1.6578 -13.83587,-5.32017 -16.28013,-15.58577c-2.44429,-10.2656 0.88163,-19.93143 7.42866,-21.58923c6.54702,-1.6578 13.83587,5.32017 16.28013,15.58577z" fill="#ffffff" stroke-linecap="butt"/><path d="M220.35629,88.78641c0.3506,3.50331 -6.62014,3.03142 -6.62014,3.03142c0,0 -5.13877,7.41339 -8.16024,5.60594c-3.02146,-1.80746 -1.75872,-7.04316 0.86384,-11.42725c2.62257,-4.38409 13.20324,-4.33706 13.9165,2.78988z" data-paper-data="{&quot;index&quot;:null}" fill="#000000" stroke-linecap="butt"/><path d="M242.90104,97.47633c0,0 -5.6336,-3.36789 -3.6563,-5.73486c4.02254,-4.81528 12.24784,0.78456 12.14662,5.37677c-0.10121,4.59224 -1.67119,9.08111 -4.89342,8.78973c-3.22225,-0.29139 -3.59687,-8.4316 -3.59687,-8.4316z" data-paper-data="{&quot;index&quot;:null}" fill="#000000" stroke-linecap="butt"/><path d="M200.1126,153.83881c0,0 10.39039,7.22986 14.17672,12.79819c4.10358,6.03488 10.63472,24.56711 10.63472,24.56711c0,0 -9.51186,9.02496 -15.83632,3.73235c-10.15284,-8.49632 -8.9751,-41.09763 -8.9751,-41.09763z" fill="#f1898a" stroke-linecap="round"/><path d="M223.04253,157.36559l-4.67436,5.68855l0.6705,-11.39478z" fill="#ffffff" stroke-linecap="butt"/></g><path d="M200.75289,142.95751l3.08044,-3.42418c0.71097,0 1.64993,-0.07767 2.68286,-0.15794c3.34055,-1.89264 6.99133,-2.32468 10.94504,-2.81889c0,0 2.86072,-0.35759 3.32396,2.43269l0.93335,1.38888c1.75461,6.18585 3.17659,12.60666 2.43558,19.09597c-1.30849,11.45887 -5.20631,22.50257 -6.65771,33.94252l-0.01958,4.82221c-1.06087,8.33003 -0.87209,17.33017 1.54993,25.3891c0.94049,2.84662 1.3483,5.84236 2.02849,8.76213c0.40621,1.7437 1.51247,3.26265 1.99617,4.98647c0.89054,3.17372 1.68785,6.51378 2.09208,9.78477c0.28649,2.31826 0.86897,5.3856 -0.23299,7.58508c-2.39891,4.78816 -5.35536,5.20032 -9.87472,7.20216c-1.3317,0.58987 -8.01933,4.09177 -10.28425,3.04969c-1.73346,-0.79755 -2.65729,-2.79195 -3.59898,-4.45152c-3.32174,-5.85401 -3.53811,-14.07832 -4.61174,-20.52011c0,0 -0.38307,-2.29844 1.55164,-3.18163l0.07428,-0.62435c-0.43704,-3.8816 -3.0293,-6.89037 -4.93268,-10.18929c-3.59051,-6.22304 -6.09779,-12.00903 -8.02357,-18.98704c-0.79653,-10.54515 -0.78356,-21.01199 -0.52256,-31.58581c0.15794,-6.39862 0.29254,-11.73667 3.13676,-17.61586c2.48385,-5.13428 8.02855,-8.01368 11.93772,-11.91648c0.03902,-0.03896 0.07777,-0.07817 0.11627,-0.11763c-0.02946,-0.18769 -0.04535,-0.39012 -0.04535,-0.60843c0,-1.10383 0.40615,-1.80151 0.91956,-2.24249zM216.74114,147.85712l-3.6362,0.33056l-0.00409,-0.045l-0.13157,0.05424c-2.42531,0.00137 -4.85062,0.00236 -7.27593,0.00281c-0.5383,0.68108 -1.07901,1.36031 -1.69114,1.9718c-3.17627,3.17294 -8.82888,6.14121 -10.82689,10.38593c-2.38,5.05623 -2.35651,9.53984 -2.48917,15.04724c-0.24528,10.18267 -0.23904,20.25952 0.4367,30.41776c1.14083,4.07621 1.5831,6.35165 3.3888,10.15934c3.22439,6.79932 8.647,12.32764 9.65495,19.99766l-0.35161,3.35184c0,0 -0.13174,1.18564 -0.97672,1.97854c0.58531,4.07741 1.05287,8.2956 2.212,12.19594c0.41766,1.40536 1.00767,2.75425 1.46384,4.14759c0.1659,0.50672 -0.01004,1.20889 0.40102,1.54848c0.24122,0.19929 0.33841,-0.56438 0.61645,-0.70789c1.65001,-0.85169 3.3942,-1.5072 5.0993,-2.24241c2.24895,-0.96972 5.51535,-1.56672 6.79195,-4.13117c0.71219,-1.43067 -0.19874,-5.38145 -0.52488,-6.83445c-0.88357,-3.93642 -2.68474,-7.62197 -3.61985,-11.4759c-0.69128,-2.84901 -1.03624,-5.79272 -1.97151,-8.5712c-2.67165,-8.92013 -2.91809,-18.71558 -1.78341,-27.94424l-0.02317,-4.96123c0,0 0,-0.51219 0.21164,-1.1133c1.55685,-10.93312 5.17932,-21.52536 6.46757,-32.49407c0.44306,-3.77237 0.01691,-7.52182 -0.77081,-11.19928c-0.21309,0.06762 -0.4365,0.11209 -0.66726,0.13044z" fill="#000000" stroke="none" stroke-width="0.5" stroke-linecap="butt"/><path d="M246.0759,143.71509c0,0 -1.18176,-2.75744 1.57568,-3.93919c1.58538,-0.67945 2.6499,-0.05674 3.26842,0.59539c3.65956,-3.95178 8.09857,-5.79422 14.24667,-5.83795c0,0 3,0 3,3c0,0.58322 -0.11338,1.05305 -0.29606,1.43155l4.08149,1.12094c3.50618,8.8118 4.92255,19.57609 3.1645,28.99333c-1.56596,8.38826 -3.9203,16.5156 -3.96784,25.12683c0.79703,3.52296 2.39717,6.63326 3.52908,10.0407c1.99272,5.9988 2.68667,13.34288 1.8029,19.62612c-0.59585,4.23625 -2.02697,7.90099 -5.91021,10.10638c-1.76646,1.00322 -3.5377,2.786 -5.55107,2.51541c-3.47333,-0.4668 -4.57685,-4.8779 -5.37955,-7.38913c-1.87196,-5.85645 -0.71633,-11.63982 -1.13149,-17.68084c-0.20898,-3.04087 -0.73024,-6.05308 -1.00534,-9.08868c0.01193,-9.58691 -2.66397,-19.49877 -6.42312,-28.27808c-2.7619,-6.45029 -7.79485,-13.22576 -7.24118,-20.70536c0.2247,-3.03547 1.55939,-5.16385 3.13184,-7.56278c-0.30254,-0.68736 -0.53235,-1.44553 -0.89473,-2.07464zM260.83333,142.2c0,0.91826 -0.41256,1.74016 -1.06243,2.29046l-2.31853,1.98731l-0.21307,-0.24858l-0.39766,0.6541c-0.9183,0.22086 -2.071,0.5698 -3.27918,0.82473c-0.24147,0.37764 -0.50592,0.80103 -0.79106,1.31374l0.39527,-0.15508c0,0 0,2.88545 -2.82983,2.9967c-0.28875,0.65496 -0.48637,1.2938 -0.50896,1.85079c-0.26221,6.46469 4.36915,12.37713 6.75882,17.96131c4.04101,9.44302 6.89792,20.07853 6.91022,30.38859c0.61986,6.79546 1.04213,13.30337 1.00308,20.13594c-0.00984,1.72218 0.34952,3.44975 0.86009,5.09453c0.25108,0.80884 0.59298,1.59523 0.75051,2.42737c0.05332,0.28168 -0.37111,1.00534 -0.13005,0.85017c0.52049,-0.33505 0.68546,-1.03944 1.1156,-1.48459c0.39107,-0.40471 2.42759,-1.82657 2.71672,-2.55473c0.95604,-2.40774 0.69342,-4.16699 0.68713,-6.66609c-0.00618,-2.45701 0.25449,-4.92577 0.0146,-7.37105c-0.60321,-6.14865 -4.01754,-11.65363 -5.33002,-17.63493c-0.03921,-9.22947 2.28293,-17.8948 4.03216,-26.87317c1.45644,-7.47555 0.48802,-16.1753 -2.01842,-23.47764c-0.42042,0.04058 -2.94611,0.16879 -3.33483,-2.55227c-0.07858,-0.55008 -0.04072,-1.01283 0.07314,-1.40173c-1.22574,0.05856 -2.32342,0.22707 -3.32424,0.51204c0.14245,0.34933 0.22095,0.73155 0.22095,1.1321zM266.43723,142.45403c-0.0186,-0.04669 -0.03726,-0.09331 -0.05599,-0.13985z" fill="#000000" stroke="none" stroke-width="0.5" stroke-linecap="butt"/></g></g></svg>