<svg version="1.1" xmlns="http://www.w3.org/2000/svg" xmlns:xlink="http://www.w3.org/1999/xlink" width="127.66667" height="127.66667" viewBox="0,0,127.66667,127.66667"><g transform="translate(-176.16667,-116.16666)"><g data-paper-data="{&quot;isPaintingLayer&quot;:true}" fill-rule="nonzero" stroke-linejoin="miter" stroke-miterlimit="10" stroke-dasharray="" stroke-dashoffset="0" style="mix-blend-mode: normal"><g stroke="#000000" stroke-width="1" stroke-linecap="butt"><path d="M230.65623,178.8204c0.45612,-1.21477 1.878,-4.12631 3.1373,-4.70739c3.59185,-1.65742 4.79101,2.11235 5.06964,4.65068c0.00317,2.36877 -1.22716,6.10208 -3.57245,8.76341c-1.61707,1.83497 -4.03508,2.94762 -5.53357,3.61601c-0.51109,0.22797 -2.09667,0.03463 -4.16966,-3.22725c-1.93842,-3.05013 -3.11121,-7.58085 -1.95347,-8.31685c0.9963,-0.63338 6.70462,0.07481 6.70462,0.07481z" fill="#dc94e7"/><path d="M226.81929,183.19486c0.05501,0.04044 0.08614,0.07159 0.08614,0.07159l0.673,0.77512c0.30394,0.81602 0.28305,1.55287 0.29808,2.26988c0.0185,0.88254 -0.01299,1.73502 -0.58331,2.6681c-4.00136,5.3426 -14.9364,7.04336 -14.9364,-2.11959c0.01902,-3.8222 3.58638,-5.00101 7.32642,-5.06939c2.54824,-0.0466 5.17666,0.31366 6.81749,1.12962c0,0 0.18311,0.09156 0.31858,0.27467z" fill="#f89688"/></g><g><g stroke-linecap="butt"><path d="M250.94455,180.19362l0.95947,0.13065c4.09214,1.34112 3.59333,3.72986 2.82839,7.15339c0.14804,0.17057 0.29609,0.34115 0.44413,0.51172c1.04985,1.21027 2.95518,2.77289 1.16172,4.59366c-0.80021,0.81236 -2.38245,0.24683 -3.26933,0.07925c-2.11474,-0.39957 -6.11376,-1.05304 -7.25339,-3.28581c-1.47253,-2.88505 2.01475,-6.79746 3.68834,-8.72643c0,0 0.39704,-0.45748 0.93133,-0.39585c0.26803,-0.08839 0.50935,-0.06059 0.50935,-0.06059z" fill="#fde0be" stroke="none" stroke-width="0.5"/><path d="M250.94455,180.19362l0.95947,0.13065c3.30538,1.08327 3.61544,2.85006 3.20936,5.29359c-2.35176,-1.81789 -4.35645,-2.90965 -7.45757,-2.73101c0.65656,-0.87344 1.33691,-1.64763 1.84807,-2.23679c0,0 0.39704,-0.45746 0.93132,-0.39584c0.26803,-0.08839 0.50935,-0.06059 0.50935,-0.06059z" fill="#f89688" stroke="none" stroke-width="0.5"/><path d="M250.94455,180.19362l0.95947,0.13065c4.09214,1.34112 3.59333,3.72986 2.82839,7.15339c0.14804,0.17057 0.29609,0.34115 0.44413,0.51172c1.04985,1.21027 2.95518,2.77289 1.16172,4.59366c-0.80021,0.81236 -2.38245,0.24683 -3.26933,0.07925c-2.11474,-0.39957 -6.11376,-1.05304 -7.25339,-3.28581c-1.47253,-2.88505 2.01475,-6.79746 3.68834,-8.72643c0,0 0.39704,-0.45748 0.93133,-0.39585c0.26803,-0.08839 0.50935,-0.06059 0.50935,-0.06059z" fill="none" stroke="#000000" stroke-width="1"/></g><g><path d="M236.26658,190.74826c-3.31637,-0.64957 -7.49088,-0.07896 -10.88862,-0.07681h-0.16851c0,0 -0.07683,0 -0.1898,-0.02111c-0.07099,0.03152 -0.15001,0.05835 -0.23795,0.07939c-1.06729,0.25541 -1.31359,-0.85135 -1.31359,-0.85135c-0.40605,-1.84768 0.40979,-2.92151 1.25147,-3.96969c1.69855,-2.11526 4.79673,-3.32074 7.23217,-4.93283l0.3715,-0.19676c1.73762,-3.85695 4.38286,-8.38155 7.65285,-11.32668c2.11755,-1.90719 4.20353,-3.35497 7.46678,-2.84428c1.31848,0.67092 2.19667,1.29484 3.1838,2.42129l0.15755,0.23729c0.02517,-0.00167 0.03938,-0.00168 0.03938,-0.00168c1.64187,0.05376 2.43891,-0.54879 4.2198,-0.16007c2.50873,0.54759 2.88719,1.66675 2.72292,2.93726c-0.20465,1.58291 -1.43783,3.40073 -2.60697,4.64087c1.29683,1.92174 3.33056,7.10436 3.01338,7.46883c-0.08433,0.11768 -2.96239,-2.60385 -5.68225,-3.55628c-1.29757,-0.45438 -2.65096,-0.23618 -3.32936,0.38013c-2.63895,2.39737 -3.83349,10.68295 -4.20089,10.65672c-3.1102,-0.00856 -5.68336,-0.29462 -8.69363,-0.88424z" fill="#feecf7" stroke="none" stroke-width="0.5" stroke-linecap="butt"/><path d="M239.97608,169.45242c2.11755,-1.90719 4.20353,-3.35497 7.46678,-2.84428c1.31848,0.67092 2.19667,1.29484 3.1838,2.42129l0.15755,0.23729c0.02517,-0.00167 0.03938,-0.00168 0.03938,-0.00168c1.64187,0.05376 2.43891,-0.54879 4.2198,-0.16007c2.50873,0.54759 2.88719,1.66675 2.72292,2.93726c-0.20465,1.58291 -1.43783,3.40073 -2.60697,4.64087c0.2642,0.3915 0.55898,0.91836 0.85823,1.51223c-1.04267,-0.91249 -2.28066,-1.63552 -3.55482,-2.2045c-1.02245,-0.74627 -2.10578,-1.40951 -3.08805,-1.86244c-3.10748,-0.51897 -6.14506,-2.01611 -9.38607,-0.67496c-2.16755,0.89694 -4.24441,3.17748 -6.21935,4.53911c0,0 -0.07592,0.05249 -0.1603,0.14871c1.65487,-3.14673 3.82173,-6.3963 6.36712,-8.68882z" fill="#dc94e7" stroke="none" stroke-width="0.5" stroke-linecap="butt"/><path d="M247.11681,183.96291c-1.70992,-1.88871 -0.36829,-2.16067 1.27013,-2.06856c-0.42295,0.62454 -0.80104,1.39261 -1.13789,2.22105c-0.04324,-0.05178 -0.08721,-0.10275 -0.13224,-0.15248z" fill="#dc94e7" stroke="none" stroke-width="0.5" stroke-linecap="butt"/><path d="M236.26658,190.74826c-3.31637,-0.64957 -7.49088,-0.07896 -10.88862,-0.07681h-0.16851c0,0 -0.07683,0 -0.1898,-0.02111c-0.07099,0.03152 -0.15001,0.05835 -0.23795,0.07939c-1.06729,0.25541 -1.31359,-0.85135 -1.31359,-0.85135c-0.40605,-1.84768 0.40979,-2.92151 1.25147,-3.96969c1.69855,-2.11526 4.79673,-3.32074 7.23217,-4.93283l0.3715,-0.19676c1.73762,-3.85695 4.38286,-8.38155 7.65285,-11.32668c2.11755,-1.90719 4.20353,-3.35497 7.46678,-2.84428c1.31848,0.67092 2.19667,1.29484 3.1838,2.42129l0.19693,0.23561c1.64187,0.05376 2.43891,-0.54879 4.2198,-0.16007c2.50873,0.54759 2.88719,1.66675 2.72292,2.93726c-0.20465,1.58291 -1.43783,3.40073 -2.60697,4.64087c1.29683,1.92174 3.33056,7.10436 3.01338,7.46883c-0.08433,0.11768 -2.96239,-2.60385 -5.68225,-3.55628c-1.29757,-0.45438 -2.65096,-0.23618 -3.32936,0.38013c-2.63895,2.39737 -3.83349,10.68295 -4.20089,10.65672c-3.1102,-0.00856 -5.68336,-0.29462 -8.69363,-0.88424z" fill="none" stroke="#000000" stroke-width="1" stroke-linecap="butt"/><path d="M245.85241,182.02151c0,0 1.51539,-1.0457 2.11098,-1.2991c0.46948,-0.19973 1.17505,-0.09887 1.17505,-0.09887" fill="none" stroke="#000000" stroke-width="1" stroke-linecap="round"/><path d="M248.38013,171.18725l2.27494,-1.66009" fill="none" stroke="#000000" stroke-width="1" stroke-linecap="round"/><path d="M240.54822,183.17304c-3.12112,1.20861 -5.90604,1.67468 -6.75063,0.67366c-0.86025,-1.0196 1.34658,-3.54299 4.4677,-4.75162c3.12112,-1.20861 5.96616,-1.52592 6.66638,-0.06205c0.70021,1.46388 -1.26232,2.93138 -4.38345,4.14001z" fill="none" stroke="#ff0000" stroke-width="1" stroke-linecap="butt"/><path d="M240.45997,182.28363l-2.10643,-2.79595" fill="none" stroke="#ff0000" stroke-width="1" stroke-linecap="round"/></g><g stroke="#000000"><path d="M219.81698,198.0108c0,0 -2.06585,-6.50638 -1.43387,-7.25773c0.63514,-0.75508 5.66678,-1.76275 5.66678,-1.76275c0,0 7.77418,-2.81171 10.34094,-2.90278c6.02218,-0.21366 10.95603,5.02079 10.95603,5.02079c0,0 4.36677,0.28497 5.34108,1.09324c0.99141,0.82246 0.55691,3.79967 0.55691,3.79967c0,0 -3.33997,5.6499 -7.4268,5.91123c-5.78624,0.36998 -24.00108,-3.90165 -24.00108,-3.90165z" fill="#0066cd" stroke-width="0" stroke-linecap="round"/><path d="M232.20276,191.37043l2.44346,2.70857" fill="none" stroke-width="1" stroke-linecap="round"/><path d="M234.39086,186.08753c6.02218,-0.21366 10.95603,5.02079 10.95603,5.02079c0,0 1.24078,0.08097 2.54711,0.27901c-3.81484,0.62727 -7.59848,-0.48871 -11.38357,-1.37254c-2.24871,-0.52508 -4.64999,-0.73716 -4.44215,2.10711c0.40925,0.45311 0.78935,0.93423 1.16244,1.41976c0.15238,0.19831 0.7463,0.52169 0.50366,0.55307c-2.55046,0.3298 -3.85196,-2.36017 -5.45897,-3.80471c-0.97481,-0.87626 -2.03368,-1.27703 -3.16464,-1.67342c2.21701,-0.76816 7.29923,-2.45878 9.28008,-2.52905z" fill="#061483" stroke-width="0" stroke-linecap="butt"/><path d="M219.81698,198.01079c0,0 -2.06586,-6.50638 -1.43387,-7.25773c0.63514,-0.75508 5.6668,-1.76275 5.6668,-1.76275c0,0 7.77416,-2.81171 10.34093,-2.90278c6.02217,-0.21366 10.95603,5.02079 10.95603,5.02079c0,0 4.36679,0.28497 5.34108,1.09324c0.99142,0.82246 0.55691,3.79967 0.55691,3.79967c0,0 -3.33997,5.6499 -7.4268,5.91123c-5.78624,0.36999 -24.00107,-3.90165 -24.00107,-3.90165z" fill="none" stroke-width="1" stroke-linecap="round"/></g><g><path d="M209.46704,206.52651c0.67476,0.69972 -0.9309,2.42623 -0.13083,2.96557c0.96617,0.6513 1.89725,1.1534 2.83891,1.52222h3.74922l0.5066,-0.08755l0.32372,-0.09591l0.09884,-0.00342l0.09309,-0.03465l0.46835,-0.04857l0.36079,-0.09353h0.08975l0.08495,-0.02999l0.64219,-0.0555l0.38646,-0.04453l0.29488,-0.08737l0.01872,-0.00065l0.01653,-0.00915l0.42044,-0.109l0.6513,-0.19296l0.34708,-0.17997l0.09312,-0.02145l0.08199,-0.05056l0.45712,-0.1422l0.63564,-0.32957l0.394,-0.25536l0.05043,-0.01696l0.04026,-0.03578l0.45933,-0.23815l0.14005,-0.10893l0.09176,-0.04006l0.07559,-0.06718l0.37714,-0.19555l0.24656,-0.17045l0.19474,-0.15146l0.13322,-0.05817l0.11718,-0.08777l0.19234,-0.07978l0.19858,-0.12354l0.04109,-0.01297l0.0326,-0.02899l0.21489,-0.11143l0.23095,-0.19957l0.11469,-0.0574l0.09668,-0.08593l0.21907,-0.11358l0.07696,-0.01773l0.06651,-0.04389l0.25476,-0.08806l0.44042,-0.22835l0.23776,-0.14793l0.08484,-0.02678l0.0719,-0.05385l0.16795,-0.06967l0.06941,-0.04798l0.06519,-0.02413l0.05255,-0.04671l0.15807,-0.08196l0.10757,-0.07436l0.0543,-0.02012l0.00858,-0.03163l0.08717,-0.0482l0.06428,-0.07778l0.08522,-0.00491l0.26144,-0.14458l0.00448,-0.00116l0.04211,-0.03276l0.09176,-0.04006l0.07559,-0.06718l0.15807,-0.08196l0.10757,-0.07436l0.17652,-0.06538l0.16539,-0.09147l0.43814,-0.11358h0.0267l0.02415,-0.01186l0.23036,-0.04778l1.10748,-0.32812l0.15269,-0.00528l0.14822,-0.03842h0.11061l0.71515,-0.14832l0.10898,0.00539l0.10585,-0.02744h0.15088l0.37047,-0.04802l0.06871,0.00863l0.06714,-0.01741h0.18318l0.1224,-0.02115l0.16389,-0.06799l0.13021,-0.01841l0.12169,-0.05141l0.38337,-0.05679l0.07842,0.00841l0.029,-0.00752l0.00212,-0.0009l0.00312,-0.00047l0.04226,-0.01095h0.03169l0.23224,-0.0344l0.31143,-0.09227l0.15269,-0.00528l0.14822,-0.03842h0.21317l0.4156,-0.04789l0.26866,-0.0398l0.2349,-0.0812l0.08663,-0.00691l0.07968,-0.03593l0.3286,-0.05679l0.09125,0.00758l0.08881,-0.02302h0.87628l0.17082,0.04429l0.17556,0.01401l0.1643,0.05679l0.31752,0.20953l0.07216,0.01497l0.03367,0.05488l0.05292,0.03492l0.01444,0.07483l0.03475,0.05662l0.02853,0.00592l0.07556,0.12313l0.10686,0.09498l0.00465,0.08672l0.11602,0.18905l0.05476,0.17038l0.01351,0.18205l0.04271,0.17713v0.68151l-0.04271,0.17713l-0.01351,0.18205l-0.03217,0.10007l0.00324,0.01232l-0.01619,0.02797l-0.00965,0.03002l-0.13512,0.22018l-0.12949,0.2238l-0.02158,0.02238l-0.01689,0.02752l-0.01206,0.0025l-0.16853,0.17476l-0.15098,0.09395l-0.13369,0.11882l-0.04561,0.02365l-0.0061,0.01107l-0.03052,0.00791l-0.0273,0.01415l-0.062,0.01429l-0.02787,0.01735l-0.02127,-0.00602l-0.13454,0.03101l-0.24416,0.0633h-0.03052l-0.03072,0.00708l-0.01025,-0.00708h-0.04602l-0.08379,0.05529l-0.1643,0.05679l-0.17556,0.01401l-0.17082,0.04429h-0.13899l-0.08825,0.02288h-0.01209l-0.11893,0.02741l-0.24416,0.0633h-0.03052l-0.03072,0.00708l-0.00569,-0.00393l-0.20692,0.05364h-0.02945l-0.08825,0.02288h-0.0267l-0.02415,0.01186l-0.27383,0.05679l-0.01696,-0.00085l-0.21815,0.05656l-0.23235,0.08606l-0.01959,-0.01016l-0.04539,0.01884l-0.06878,0.03566l-0.07696,0.01773l-0.06651,0.04389l-0.09045,0.03127l-0.03991,0.0207l-0.11776,0.02714l-0.10644,0.05887l-0.03501,0.00908l-0.00644,0.00445l-0.06519,0.02413l-0.05255,0.04671l-0.21907,0.11358l-0.11776,0.02714l-0.10644,0.05887l-0.10243,0.02656l-0.11152,0.05783l-0.11776,0.02714l-0.10644,0.05887l-0.17825,0.04622l-0.1244,0.04301l-0.17556,0.01401l-0.17082,0.04429h-0.10953l-0.21907,0.05679h-0.03052l-0.03072,0.00708l-0.01025,-0.00708h-1.45639c-0.47853,1.36001 -2.65153,2.57066 -4.1432,3.45251c-4.73056,2.79661 -9.78814,3.25848 -13.60694,3.02184c-1.1432,-0.07085 -3.50807,0.15067 -4.59737,-0.29029c-2.36302,-0.95658 -5.42064,-4.99639 -3.60511,-7.95486c0.29493,-0.4806 3.58267,-3.08538 3.98705,-1.59434c0.06057,0.06182 0.11424,0.13092 0.15968,0.20589c0.13434,0.10534 0.27113,0.2308 0.41045,0.37525z" fill="#fdebf6" stroke="none" stroke-width="0.5" stroke-linecap="butt"/><path d="M215.92435,211.01431l0.5066,-0.08756l0.32372,-0.09591l0.09884,-0.00342l0.09309,-0.03465l0.46834,-0.04856l0.36079,-0.09353h0.08975l0.08495,-0.02999l0.64219,-0.0555l0.38646,-0.04453l0.29489,-0.08737l0.01873,-0.00065l0.01653,-0.00915l0.42044,-0.109l0.65131,-0.19296l0.34708,-0.17997l0.09312,-0.02145l0.08199,-0.05056l0.45712,-0.1422l0.63563,-0.32957l0.39401,-0.25536l0.05042,-0.01696l0.04026,-0.03578l0.45933,-0.23815l0.14005,-0.10892l0.09177,-0.04007l0.0756,-0.06718l0.37714,-0.19555l0.24656,-0.17045l0.19475,-0.15146l0.13322,-0.05817l0.11718,-0.08777l0.19234,-0.07978l0.19858,-0.12354l0.04109,-0.01296l0.03262,-0.02899l0.21489,-0.11143l0.23095,-0.19957l0.11469,-0.0574l0.0967,-0.08595l0.21907,-0.11358l0.07696,-0.01773l0.06651,-0.0439l0.25476,-0.08805l0.44042,-0.22835l0.23775,-0.14793l0.08484,-0.02678l0.0719,-0.05385l0.16794,-0.06967l0.06941,-0.04798l0.06519,-0.02413l0.05255,-0.04671l0.15808,-0.08196l0.10756,-0.07435l0.0543,-0.02012l0.00858,-0.03165l0.08717,-0.0482l0.06429,-0.07777l0.08523,-0.00492l0.26144,-0.14458l0.00448,-0.00116l0.0421,-0.03276l0.09177,-0.04006l0.0756,-0.06718l0.15808,-0.08196l0.10757,-0.07436l0.17652,-0.06538l0.16539,-0.09147l0.43814,-0.11358h0.0267l0.02413,-0.01186l0.23036,-0.04779l1.10748,-0.32812l0.1527,-0.00528l0.14821,-0.03842h0.11061l0.71515,-0.14832l0.10898,0.00537l0.10585,-0.02744h0.15088l0.37047,-0.04802l0.06871,0.00863l0.06714,-0.01741h0.18318l0.1224,-0.02116l0.16389,-0.06799l0.13021,-0.0184l0.12169,-0.05142l0.38337,-0.05679l0.07843,0.00841l0.029,-0.00752l0.00212,-0.0009l0.00312,-0.00047l0.04226,-0.01096h0.03169l0.23224,-0.0344l0.31143,-0.09228l0.1527,-0.00527l0.14821,-0.03842h0.21317l0.4156,-0.04789l0.26866,-0.0398l0.2349,-0.08119l0.08662,-0.00691l0.07968,-0.03593l0.3286,-0.05679l0.09125,0.00757l0.08882,-0.02302h0.87628l0.17082,0.04427l0.17556,0.01401l0.1643,0.05679l0.31751,0.20953l0.07216,0.01497l0.03367,0.05488l0.05293,0.03492l0.01444,0.07483l0.03475,0.05662l0.02853,0.00592l0.07556,0.12313l0.10685,0.09498l0.00465,0.08672l0.11602,0.18905l0.05476,0.17038l0.01351,0.18205l0.04269,0.17713v0.68151l-0.04269,0.17713l-0.01351,0.18205l-0.03216,0.10007l0.00323,0.01232l-0.01619,0.02797l-0.00965,0.03002l-0.13512,0.22018l-0.12949,0.2238l-0.02158,0.02239l-0.01689,0.02752l-0.01206,0.00251l-0.16853,0.17476l-0.15098,0.09395l-0.13369,0.11882l-0.04561,0.02365l-0.0061,0.01107l-0.03052,0.00791l-0.0273,0.01415l-0.062,0.01429l-0.02787,0.01734l-0.02127,-0.00602l-0.13454,0.031l-0.24418,0.0633h-0.03052l-0.03072,0.00708l-0.01023,-0.00708h-0.04602l-0.08379,0.05529l-0.1643,0.05679l-0.17555,0.01401l-0.17083,0.04429h-0.13899l-0.08825,0.02288h-0.01209l-0.11893,0.02741l-0.24418,0.0633h-0.03052l-0.03072,0.00708l-0.00569,-0.00393l-0.20693,0.05364h-0.02945l-0.08825,0.02288h-0.0267l-0.02413,0.01186l-0.27383,0.05679l-0.01696,-0.00085l-0.21815,0.05656l-0.23235,0.08607l-0.0196,-0.01016l-0.04539,0.01884l-0.06878,0.03566l-0.07696,0.01773l-0.06651,0.04389l-0.09045,0.03127l-0.03991,0.0207l-0.11775,0.02714l-0.10645,0.05886l-0.035,0.00908l-0.00644,0.00445l-0.06519,0.02415l-0.05255,0.04671l-0.21907,0.11358l-0.11776,0.02714l-0.10644,0.05886l-0.10242,0.02656l-0.11152,0.05783l-0.11776,0.02714l-0.10644,0.05887l-0.17825,0.04621l-0.12438,0.04301l-0.17555,0.01401l-0.17083,0.04429h-0.10953l-0.21907,0.05679h-0.03052l-0.03072,0.00708l-0.01025,-0.00708h-1.45639c-0.47852,1.36001 -2.65153,2.57065 -4.1432,3.45249c-4.19004,2.47707 -8.63665,3.12246 -12.25176,3.07315c-0.27583,-0.89871 -0.66192,-1.80069 -0.64322,-1.95761c0.13844,-1.16148 1.06363,-2.00021 1.42793,-2.8234c0.02662,-0.01223 0.0525,-0.02589 0.07754,-0.04089z" fill="#dc94e7" stroke="none" stroke-width="0.5" stroke-linecap="butt"/><path d="M209.46704,206.52651c0.67477,0.69972 -0.9309,2.42623 -0.13083,2.96557c0.96617,0.6513 1.89725,1.1534 2.83891,1.52222h3.74922l0.5066,-0.08756l0.32372,-0.09591l0.09884,-0.00342l0.09309,-0.03465l0.46834,-0.04856l0.36079,-0.09353h0.08975l0.08495,-0.02999l0.64219,-0.0555l0.38646,-0.04453l0.29489,-0.08737l0.01873,-0.00065l0.01653,-0.00915l0.42044,-0.109l0.65131,-0.19296l0.34708,-0.17997l0.09312,-0.02145l0.08199,-0.05056l0.45712,-0.1422l0.63563,-0.32957l0.39401,-0.25536l0.05042,-0.01696l0.04026,-0.03578l0.45933,-0.23815l0.14005,-0.10892l0.09177,-0.04007l0.0756,-0.06718l0.37714,-0.19555l0.24656,-0.17045l0.19475,-0.15146l0.13322,-0.05817l0.11718,-0.08777l0.19234,-0.07978l0.19858,-0.12354l0.04109,-0.01296l0.03262,-0.02899l0.21489,-0.11143l0.23095,-0.19957l0.11469,-0.0574l0.0967,-0.08595l0.21907,-0.11358l0.07696,-0.01773l0.06651,-0.0439l0.25476,-0.08805l0.44042,-0.22835l0.23775,-0.14793l0.08484,-0.02678l0.0719,-0.05385l0.16794,-0.06967l0.06941,-0.04798l0.06519,-0.02413l0.05255,-0.04671l0.15808,-0.08196l0.10756,-0.07435l0.0543,-0.02012l0.00858,-0.03165l0.08717,-0.0482l0.06429,-0.07777l0.08523,-0.00492l0.26144,-0.14458l0.00448,-0.00116l0.0421,-0.03276l0.09177,-0.04006l0.0756,-0.06718l0.15808,-0.08196l0.10757,-0.07436l0.17652,-0.06538l0.16539,-0.09147l0.43814,-0.11358h0.0267l0.02413,-0.01186l0.23036,-0.04779l1.10748,-0.32812l0.1527,-0.00528l0.14821,-0.03842h0.11061l0.71515,-0.14832l0.10898,0.00537l0.10585,-0.02744h0.15088l0.37047,-0.04802l0.06871,0.00863l0.06714,-0.01741h0.18318l0.1224,-0.02116l0.16389,-0.06799l0.13021,-0.0184l0.12169,-0.05142l0.38337,-0.05679l0.07843,0.00841l0.029,-0.00752l0.00212,-0.0009l0.00312,-0.00047l0.04226,-0.01096h0.03169l0.23224,-0.0344l0.31143,-0.09228l0.1527,-0.00527l0.14821,-0.03842h0.21317l0.4156,-0.04789l0.26866,-0.0398l0.2349,-0.08119l0.08662,-0.00691l0.07968,-0.03593l0.3286,-0.05679l0.09125,0.00757l0.08882,-0.02302h0.87628l0.17082,0.04427l0.17556,0.01401l0.1643,0.05679l0.31751,0.20953l0.07216,0.01497l0.03367,0.05488l0.05293,0.03492l0.01444,0.07483l0.03475,0.05662l0.02853,0.00592l0.07556,0.12313l0.10685,0.09498l0.00465,0.08672l0.11602,0.18905l0.05476,0.17038l0.01351,0.18205l0.04269,0.17713v0.68151l-0.04269,0.17713l-0.01351,0.18205l-0.03216,0.10007l0.00323,0.01232l-0.01619,0.02797l-0.00965,0.03002l-0.13512,0.22018l-0.12949,0.2238l-0.02158,0.02239l-0.01689,0.02752l-0.01206,0.00251l-0.16853,0.17476l-0.15098,0.09395l-0.13369,0.11882l-0.04561,0.02365l-0.0061,0.01107l-0.03052,0.00791l-0.0273,0.01415l-0.062,0.01429l-0.02787,0.01734l-0.02127,-0.00602l-0.13454,0.031l-0.24418,0.0633h-0.03052l-0.03072,0.00708l-0.01023,-0.00708h-0.04602l-0.08379,0.05529l-0.1643,0.05679l-0.17555,0.01401l-0.17083,0.04429h-0.13899l-0.08825,0.02288h-0.01209l-0.11893,0.02741l-0.24418,0.0633h-0.03052l-0.03072,0.00708l-0.00569,-0.00393l-0.20693,0.05364h-0.02945l-0.08825,0.02288h-0.0267l-0.02413,0.01186l-0.27383,0.05679l-0.01696,-0.00085l-0.21815,0.05656l-0.23235,0.08607l-0.0196,-0.01016l-0.04539,0.01884l-0.06878,0.03566l-0.07696,0.01773l-0.06651,0.04389l-0.09045,0.03127l-0.03991,0.0207l-0.11775,0.02714l-0.10645,0.05886l-0.035,0.00908l-0.00644,0.00445l-0.06519,0.02415l-0.05255,0.04671l-0.21907,0.11358l-0.11776,0.02714l-0.10644,0.05886l-0.10242,0.02656l-0.11152,0.05783l-0.11776,0.02714l-0.10644,0.05887l-0.17825,0.04621l-0.12438,0.04301l-0.17555,0.01401l-0.17083,0.04429h-0.10953l-0.21907,0.05679h-0.03052l-0.03072,0.00708l-0.01025,-0.00708h-1.45639c-0.47852,1.36001 -2.65153,2.57065 -4.1432,3.45249c-4.73055,2.79661 -9.78814,3.25848 -13.60694,3.02184c-1.1432,-0.07085 -3.50807,0.15067 -4.59737,-0.29029c-2.36302,-0.95658 -5.42064,-4.99639 -3.60512,-7.95486c0.29493,-0.48059 3.58267,-3.08538 3.98706,-1.59435c0.06057,0.06182 0.11424,0.13092 0.15968,0.20589c0.13435,0.10534 0.27113,0.2308 0.41045,0.37526z" fill="none" stroke="#000000" stroke-width="1" stroke-linecap="butt"/><path d="M228.8318,197.68063c0,0 2.30298,-4.5558 4.02537,-4.6115c3.42586,-0.11078 4.9365,10.60053 4.9365,10.60053c0,0 -2.40686,1.13964 -3.80431,1.45016c-1.39066,0.30902 -4.56012,0.40851 -4.56012,0.40851c0,0 -3.90004,3.83916 -8.84597,5.528c-4.18567,1.42923 -9.43127,0.8202 -10.4884,0.1814c-5.39122,-3.25785 -2.25694,-6.02223 1.10987,-8.78247c2.55736,-2.09664 5.08041,-4.67138 5.08041,-4.67138c0,0 0.45694,-5.03848 5.67548,-5.41865c3.83489,-0.27935 6.87116,5.3154 6.87116,5.3154z" fill="#ff292e" stroke="#000000" stroke-width="0" stroke-linecap="round"/><path d="M232.85715,193.06914c3.42586,-0.11078 4.9365,10.60053 4.9365,10.60053c0,0 -2.40685,1.13964 -3.80431,1.45016c-1.39066,0.30902 -4.56012,0.40851 -4.56012,0.40851c0,0 -3.90004,3.83916 -8.84597,5.528c-2.39797,0.81881 -5.14383,0.96863 -7.25069,0.82713c-0.01268,-0.39944 -0.04819,-0.78286 0.00783,-1.02c0.15259,-0.64587 0.16881,-1.30427 0.32404,-1.94819c0.59362,-2.4623 3.16761,-5.25692 4.83563,-7.36682c2.30279,-2.91284 5.39793,-3.07742 8.2333,-5.04936c0.17255,-0.12 0.46733,-0.44151 0.74414,-0.82078c0.85278,1.07828 1.35427,2.00235 1.35427,2.00235c0,0 0.19212,-0.38005 0.50688,-0.92196c0.01946,0.15821 0.04163,0.32362 0.0231,0.51506c-0.05948,0.1179 -0.09312,0.25205 -0.09312,0.39433c0,0.38669 0.24844,0.7132 0.58885,0.81724c0.24919,0.26964 0.95976,-0.17387 1.12022,-0.37889c0.55368,-0.7074 1.80115,-1.37525 1.80115,-2.41692c0,-0.69233 -0.43211,-1.69492 -1.03684,-2.09055c0.37954,-0.31518 0.7597,-0.51832 1.11514,-0.52981z" fill="#ac0e49" stroke="#000000" stroke-width="0" stroke-linecap="butt"/><path d="M232.85715,193.06914c3.42586,-0.11078 4.9365,10.60053 4.9365,10.60053c0,0 -2.40685,1.13964 -3.80431,1.45016c-1.39066,0.30902 -4.56011,0.40851 -4.56011,0.40851c0,0 -3.90004,3.83916 -8.84597,5.528c-4.18567,1.42923 -9.43126,0.82022 -10.4884,0.1814c-5.39122,-3.25785 -2.25695,-6.02223 1.10986,-8.78247c2.55737,-2.09664 5.08042,-4.67138 5.08042,-4.67138c0,0 0.45694,-5.03848 5.67548,-5.41865c3.83489,-0.27937 6.87115,5.31539 6.87115,5.31539c0,0 2.30298,-4.5558 4.02538,-4.61149z" fill="none" stroke="#000000" stroke-width="1" stroke-linecap="round"/><path d="M234.50391,199.09234c-0.02105,0.24662 -0.161,1.06651 -1.09161,1.06651c-1.09534,0 -1.09534,-1.13585 -1.09534,-1.13585l0.11564,-0.71449c0.16596,-0.34419 0.33192,-0.68839 0.49788,-1.03259c0,0 0.48985,-1.01594 1.46956,-0.50796c0.97971,0.50796 0.48985,1.5239 0.48985,1.5239c-0.12866,0.26684 -0.25732,0.53366 -0.38597,0.80049z" fill="#000000" stroke="none" stroke-width="0.5" stroke-linecap="butt"/><path d="M218.8661,205.40841c-0.97971,0.50796 -1.46956,-0.50796 -1.46956,-0.50796l-0.49788,-1.03259c-0.44562,-1.24976 -2.09864,-1.06542 -3.26902,-1.36795c0,0 -1.06264,-0.27549 -0.79698,-1.37742c0.26566,-1.10193 1.3283,-0.82646 1.3283,-0.82646c2.09391,0.54452 3.549,0.4514 4.69711,2.55589l0.49788,1.03259c0,0 0.48985,1.01594 -0.48985,1.5239z" fill="#ffeffb" stroke="none" stroke-width="0.5" stroke-linecap="butt"/><path d="M226.21144,198.88541c-0.44486,1.03795 -1.44579,0.57663 -1.44579,0.57663l-0.82566,-0.38352c-1.47427,-0.55737 -2.63601,-0.75916 -4.2062,-0.75769c0,0 -1.09534,0 -1.09534,-1.13585c0,-1.13585 1.09534,-1.13585 1.09534,-1.13585c1.81162,0.00157 3.25178,0.2538 4.95484,0.89446l0.96673,0.44255c0,0 1.00094,0.46131 0.55607,1.49926z" fill="#ffeffb" stroke="none" stroke-width="0.5" stroke-linecap="butt"/><path d="M217.21977,200.25991c-0.26977,-0.04387 -0.54729,-0.07896 -0.83465,-0.10574c0,0 -1.09084,-0.10284 -0.99168,-1.23402c0.09918,-1.13118 1.19001,-1.02836 1.19001,-1.02836c2.20737,0.21028 3.97267,0.85623 5.87418,2.03701l0.02336,0.03501l0.00857,-0.01269l0.98321,0.7137c0.28959,0.20439 0.47976,0.54899 0.47976,0.93964c0,0.62731 -0.49041,1.13585 -1.09534,1.13585c-0.07436,0 -0.147,-0.00769 -0.2172,-0.02233l-1.07408,-0.20251c0,0 -0.56757,-0.63875 -1.59953,-1.16851c-0.70792,-0.36342 -1.76968,-0.61541 -2.47579,-0.81511z" fill="#ffeffb" stroke="none" stroke-width="0.5" stroke-linecap="butt"/><path d="M218.8661,205.40841c-0.97971,0.50796 -1.46956,-0.50796 -1.46956,-0.50796l-0.49787,-1.03259c-0.05996,-0.16816 -0.14178,-0.31035 -0.24135,-0.43128c0.631,-0.36441 1.30836,-0.90787 1.59106,-0.96096c0.10284,-0.01931 0.21337,-0.04771 0.33046,-0.08453c0.09512,0.14072 0.18815,0.29386 0.27925,0.46084l0.49787,1.03259c0,0 0.48985,1.01593 -0.48985,1.5239z" fill="#dd95e8" stroke="none" stroke-width="0.5" stroke-linecap="butt"/><path d="M226.21145,198.88541c-0.44486,1.03795 -1.44579,0.57665 -1.44579,0.57665l-0.82566,-0.38352c-0.1715,-0.06484 -0.33876,-0.12487 -0.50293,-0.18031c0.57662,-0.66507 1.01567,-1.34726 1.19795,-1.9747c0.01784,0.00664 0.03572,0.01334 0.05363,0.02008l0.96673,0.44255c0,0 1.00094,0.46131 0.55609,1.49926z" fill="#dd95e8" stroke="none" stroke-width="0.5" stroke-linecap="butt"/><path d="M222.45764,199.92882l0.02336,0.03501l0.00857,-0.01269l0.98321,0.7137c0.28959,0.2044 0.47976,0.54899 0.47976,0.93964c0,0.62731 -0.4904,1.13585 -1.09534,1.13585c-0.07436,0 -0.147,-0.00769 -0.2172,-0.02233l-1.07408,-0.20251c0,0 -0.44219,-0.49763 -1.25559,-0.97872c0.70658,-0.44252 1.4531,-1.00519 2.1273,-1.62036c0.00667,0.00414 0.01334,0.00827 0.02001,0.01242z" fill="#dd95e8" stroke="none" stroke-width="0.5" stroke-linecap="butt"/><path d="M218.8661,205.40841c-0.97971,0.50796 -1.46956,-0.50796 -1.46956,-0.50796l-0.49787,-1.03259c-0.44562,-1.24976 -2.09863,-1.06543 -3.26902,-1.36796c0,0 -1.06265,-0.27548 -0.79698,-1.37742c0.26566,-1.10195 1.3283,-0.82646 1.3283,-0.82646c2.0939,0.54452 3.549,0.45141 4.6971,2.5559l0.49787,1.03259c0,0 0.48985,1.01593 -0.48985,1.5239z" fill="none" stroke="#000000" stroke-width="1" stroke-linecap="butt"/><path d="M226.21145,198.88541c-0.44486,1.03795 -1.44579,0.57665 -1.44579,0.57665l-0.82566,-0.38352c-1.47428,-0.55737 -2.63601,-0.75916 -4.20619,-0.75769c0,0 -1.09534,0 -1.09534,-1.13585c0,-1.13585 1.09534,-1.13585 1.09534,-1.13585c1.8116,0.00157 3.25178,0.2538 4.95484,0.89446l0.96673,0.44255c0,0 1.00094,0.46131 0.55609,1.49926z" fill="none" stroke="#000000" stroke-width="1" stroke-linecap="butt"/><path d="M217.21977,200.25991c-0.26977,-0.04387 -0.54729,-0.07897 -0.83464,-0.10574c0,0 -1.09084,-0.10282 -0.99168,-1.23402c0.09916,-1.13119 1.19001,-1.02836 1.19001,-1.02836c2.20737,0.21028 3.97267,0.85622 5.87418,2.037l0.02336,0.03501l0.00857,-0.01269l0.98321,0.7137c0.28959,0.2044 0.47976,0.54899 0.47976,0.93964c0,0.62731 -0.4904,1.13585 -1.09534,1.13585c-0.07436,0 -0.147,-0.00769 -0.2172,-0.02233l-1.07408,-0.20251c0,0 -0.56758,-0.63875 -1.59954,-1.1685c-0.70792,-0.36342 -1.76968,-0.61541 -2.47579,-0.81512z" fill="none" stroke="#000000" stroke-width="1" stroke-linecap="butt"/></g><g><path d="M244.68888,214.40121c2.89907,1.59027 8.10444,0.42818 11.22469,-0.24408c2.52476,-0.54397 7.35527,-1.94536 9.01546,-4.02448c0.45489,-0.56966 1.46944,-3.04678 2.30365,-3.02897c0.15232,-0.08332 0.32698,-0.13065 0.51268,-0.13065c0.52212,0 0.95711,0.37431 1.053,0.87009c0.01543,0.01425 0.03092,0.02918 0.04648,0.0448c1.00368,1.00712 -0.29684,4.02193 -0.60717,5.0229c-0.28375,0.91525 -1.0113,1.84345 -2.30123,2.8708c-3.31398,2.63934 -9.3868,5.12644 -11.81395,5.18378c-2.60527,0.06155 -5.90368,0.32239 -8.29276,-0.12569c-2.3047,-0.43226 -3.7138,-1.53605 -5.49099,-3.48003c-1.36818,-1.49658 -1.23946,-3.42898 -1.26132,-5.42591c-0.00679,-0.62014 -0.17654,-1.29783 -0.2202,-1.90495c-0.05439,-0.16382 -0.0775,-0.32131 -0.04172,-0.46366c-0.08706,-0.7928 -0.25872,-1.55495 -0.60646,-2.25285c-0.07848,-0.14958 -0.1229,-0.31995 -0.1229,-0.50073c0,-0.01255 0.00021,-0.02506 0.00065,-0.03752c0.0252,-1.18365 0.51074,-1.32163 1.0588,-1.03874c0.0044,-0.00006 0.00882,-0.00008 0.01323,-0.00008c0.55507,0 1.01167,0.42306 1.06703,0.96536c0.25128,0.31704 0.43731,0.63274 0.48834,0.83752c0.18034,0.72382 0.23711,1.48262 0.25468,2.2529c1.16094,1.37584 2.7083,4.05522 3.72004,4.6102z" fill="#ffeef8" stroke="none" stroke-width="0.5" stroke-linecap="butt"/><path d="M268.23767,212.91081c-0.28375,0.91525 -1.01131,1.84345 -2.30124,2.8708c-3.31397,2.63934 -9.3868,5.12644 -11.81394,5.18378c-2.60527,0.06155 -5.90368,0.32238 -8.29277,-0.1257c-2.3047,-0.43225 -3.7138,-1.53605 -5.49099,-3.48003c-0.66616,-0.72867 -0.97745,-1.56066 -1.12404,-2.45309c1.33877,1.62975 3.67078,3.38249 5.07994,3.81562c7.70345,2.36781 13.60676,-1.40646 20.1512,-4.47767c1.36096,-0.63868 3.27426,-1.84977 4.47102,-3.39195c-0.23668,0.844 -0.54732,1.63292 -0.67917,2.05824z" fill="#de95e9" stroke="none" stroke-width="0.5" stroke-linecap="butt"/><path d="M244.68888,214.40121c2.89907,1.59027 8.10444,0.42818 11.22469,-0.24408c2.52476,-0.54397 7.35527,-1.94536 9.01546,-4.02448c0.45489,-0.56966 1.46944,-3.04678 2.30365,-3.02897c0.15232,-0.08332 0.32698,-0.13065 0.51268,-0.13065c0.52212,0 0.95711,0.37431 1.053,0.87009c0.01543,0.01425 0.03092,0.02918 0.04648,0.0448c1.00368,1.00712 -0.29684,4.02193 -0.60717,5.0229c-0.28375,0.91525 -1.0113,1.84345 -2.30123,2.8708c-3.31398,2.63934 -9.3868,5.12644 -11.81395,5.18378c-2.60527,0.06155 -5.90368,0.32239 -8.29276,-0.12569c-2.3047,-0.43226 -3.7138,-1.53605 -5.49099,-3.48003c-1.36818,-1.49658 -1.23946,-3.42898 -1.26132,-5.42591c-0.00679,-0.62014 -0.17654,-1.29783 -0.2202,-1.90495c-0.05439,-0.16382 -0.0775,-0.32131 -0.04172,-0.46366c-0.08706,-0.7928 -0.25872,-1.55495 -0.60646,-2.25285c-0.07848,-0.14958 -0.1229,-0.31995 -0.1229,-0.50073c0,-0.01255 0.00021,-0.02506 0.00065,-0.03752c0.0252,-1.18365 0.51074,-1.32163 1.0588,-1.03874c0.0044,-0.00006 0.00882,-0.00008 0.01323,-0.00008c0.55507,0 1.01167,0.42306 1.06703,0.96536c0.25128,0.31704 0.43731,0.63274 0.48834,0.83752c0.18034,0.72382 0.23711,1.48262 0.25468,2.2529c1.16094,1.37584 2.7083,4.05522 3.72004,4.6102z" fill="none" stroke="#000000" stroke-width="1" stroke-linecap="butt"/><path d="M242.57705,196.76892l11.82969,-3.40755l2.90266,4.60019l3.06695,-3.97547l3.01219,3.01001l-2.90266,4.60019l1.15011,1.30623c0,0 3.75246,0.80713 5.35691,2.61764c1.83388,2.06943 0.97894,5.41493 -9.46444,9.76314c-3.27103,1.36193 -9.36239,3.30051 -12.72818,0.94489c-1.22289,-0.85587 -3.03053,-1.6148 -3.58006,-3.01581c-0.63345,-1.61491 0.04472,-3.91492 -0.68898,-5.44393c-1.7153,-3.57464 -4.19764,-6.11535 -4.19764,-6.11535l0.87628,-5.3385l6.24345,3.97547z" fill="#ff292e" stroke="#000000" stroke-width="0" stroke-linecap="round"/><path d="M266.9929,205.52015c1.83388,2.06943 0.97894,5.41493 -9.46444,9.76314c-3.27103,1.36193 -9.36239,3.30051 -12.72818,0.94489c-0.27722,-0.19401 -0.58449,-0.38306 -0.90034,-0.57572c0.37074,-0.39258 0.69455,-0.77217 0.901,-0.95944c2.53136,-2.29594 5.87255,-3.63153 9.13189,-5.01161c3.01454,-1.27642 8.26593,2.21642 10.07076,-1.51176c0.9038,-1.86695 1.09092,-3.21658 0.77005,-4.18935c0.83422,0.39614 1.65811,0.90663 2.21927,1.53984z" fill="#ac0e49" stroke="#000000" stroke-width="0" stroke-linecap="butt"/><path d="M254.40673,193.36138l2.90266,4.60019l3.06695,-3.97547l3.01219,3.01001l-2.90266,4.60019l0.06166,0.07002c-4.13289,-0.45958 -9.98689,0.55253 -11.96609,-0.72993c-2.11912,-1.37313 -0.06025,-4.02552 -0.21119,-5.83621z" fill="#ac0e49" stroke="#000000" stroke-width="0" stroke-linecap="butt"/><path d="M238.30694,197.40297c0.07236,-0.08139 0.12962,-0.17745 0.16716,-0.28339l4.63773,2.95305c0.873,1.48678 1.69381,2.90218 1.65589,3.68178c-0.00514,0.10561 -2.41774,-1.44817 -2.70341,-1.56476c-1.8724,-0.7642 -4.16376,-2.9016 -3.75738,-4.78669z" fill="#ac0e49" stroke="#000000" stroke-width="0" stroke-linecap="butt"/><path d="M242.57706,196.76892l11.82969,-3.40755l2.90266,4.60019l3.06695,-3.97547l3.01219,3.01001l-2.90266,4.60019l1.15011,1.30623c0,0 3.75246,0.80713 5.35691,2.61764c1.83388,2.06943 0.97894,5.41492 -9.46444,9.76314c-3.27103,1.36193 -9.36239,3.30051 -12.72818,0.94489c-1.2229,-0.85587 -3.03054,-1.6148 -3.58007,-3.01581c-0.63344,-1.61492 0.04472,-3.91492 -0.68898,-5.44393c-1.71531,-3.57464 -4.19764,-6.11535 -4.19764,-6.11535l0.87628,-5.3385l6.24345,3.97547z" fill="none" stroke="#000000" stroke-width="1" stroke-linecap="round"/><path d="M239.5634,202.40982c-0.89261,2.77687 -3.49778,-1.15776 -2.53079,-1.73076c0.19053,-0.33478 0.54196,-0.55938 0.94399,-0.55938c0.52835,0 0.96933,0.38793 1.07253,0.90409c0.19112,0.45363 0.66524,0.91642 0.51429,1.38604z" fill="#000000" stroke="none" stroke-width="0.5" stroke-linecap="butt"/><path d="M253.94702,208.12743c-1.29012,0.0131 -2.71204,0.44339 -3.9846,0.64759c-4.65582,0.74713 -5.28373,-0.21429 -3.93697,-1.4068c-0.81497,0.03629 -1.48606,-0.22409 -1.42885,-1.29203c0.02181,-0.40711 0.17344,-0.76798 0.42664,-1.08784c-0.47433,0.05547 -0.84678,-0.03524 -1.03049,-0.36864c-0.32284,-0.19758 -0.53943,-0.562 -0.53943,-0.9789c0,-0.62731 0.49041,-1.13585 1.09534,-1.13585c0.01171,0 0.02339,0.00019 0.03501,0.00057c2.74236,-1.74577 8.66635,-1.63298 10.66345,-1.64755c0.9479,-0.00692 2.829,-0.70719 2.829,1.02227c0,0.33546 -0.16186,0.58858 -0.44787,0.77854c0.69781,0.11965 1.35125,0.31696 1.4353,0.62686l0.32697,0.8095c-0.10237,0.3259 -0.25467,0.60772 -0.44946,0.85159c1.05007,0.15583 1.9996,0.42229 2.02606,0.91604c0.1113,0.1778 0.17595,0.38989 0.17595,0.61764c0,0.62731 -0.49041,1.13585 -1.09534,1.13585c-0.11692,0 -0.22956,-0.01899 -0.33521,-0.05418c-1.68369,0.81289 -3.71839,0.54452 -5.7655,0.56532z" fill="#ffeef8" stroke="none" stroke-width="0.5" stroke-linecap="butt"/><path d="M255.24712,200.85799c0.9479,-0.00692 2.829,-0.70719 2.829,1.02227c0,0.33546 -0.16186,0.58858 -0.44786,0.77854c0.25504,0.04373 0.50415,0.09783 0.72171,0.16401v0.45598c-0.46173,0.79826 -0.94362,1.84492 -1.35238,2.87765l-0.03435,0.01272l-0.28604,0.19775l-0.06379,0.03308l-0.05092,0.04526l-0.04092,0.00236l-0.10597,0.12822l-0.05283,0.04696l-0.00194,0.00071l-0.12175,0.08416l-0.06379,0.03308l-0.03941,0.03503l-0.04888,0.0181l-0.1643,0.11358l-0.02725,0.03109l-0.06153,0.01276l-0.02987,0.01468l-0.02686,-0.0076l-0.15869,0.09873l-0.16723,0.08214l-0.0088,0.02738l-0.02835,0.01764l-0.07004,0.07263l-0.09983,0.05176l-0.03941,0.03503l-0.04888,0.0181l-0.00925,0.0064l-0.1411,0.0209h-0.45966l-0.26468,-0.13723l-0.05772,-0.0133l-0.04988,-0.03291l-0.1643,-0.05679l-0.03211,-0.00257l-0.02843,-0.01572l-0.10047,-0.02605l-0.16901,-0.10516l-0.00447,-0.00141l-0.00744,-0.01351l-0.19795,-0.05132l-0.00219,-0.00069l-0.02522,-0.03051l-0.02779,-0.0016l-0.02387,-0.02371l-0.38337,-0.22717l-0.02247,-0.00655l-0.01772,-0.01576l-0.15281,-0.07924l-0.15981,-0.12429l-0.04785,-0.02089l-0.03749,-0.03724l-0.28784,-0.17057l-0.19329,-0.20044l-0.06442,-0.1002l-0.06054,-0.05708l-0.04209,-0.07276l-0.05201,-0.05394l-0.39302,-0.61133l-0.06054,-0.05708l-0.04209,-0.07276l-0.5872,-0.60891l-0.01949,-0.02357l-0.02897,-0.07137l-0.3286,-0.45434l-0.04589,-0.03867l-0.03041,-0.05258l-0.8282,-0.85883l-0.21525,-0.31249l-0.14742,-0.2548l-0.07151,-0.07416l-0.05202,-0.08993l-0.07737,-0.08023l-0.19064,-0.24712l-0.03679,-0.02906l-0.0238,-0.04113l-0.07737,-0.08023l-0.13628,-0.17665l-0.00057,-0.00117l-0.08277,-0.2146c2.64715,-0.43574 5.56709,-0.39219 6.85469,-0.40161z" fill="#de95e9" stroke="none" stroke-width="0.5" stroke-linecap="butt"/><path d="M253.94702,208.12743c-1.29012,0.0131 -2.71204,0.44339 -3.9846,0.64759c-4.65582,0.74713 -5.28373,-0.21428 -3.93697,-1.4068c-0.81497,0.03627 -1.48606,-0.22409 -1.42885,-1.29204c0.02181,-0.40711 0.17342,-0.76797 0.42664,-1.08784c-0.47433,0.05547 -0.84678,-0.03524 -1.03049,-0.36865c-0.32284,-0.19758 -0.53943,-0.562 -0.53943,-0.97889c0,-0.62731 0.4904,-1.13585 1.09534,-1.13585c0.01171,0 0.02339,0.00018 0.03502,0.00057c2.74237,-1.74576 8.66635,-1.63298 10.66346,-1.64755c0.9479,-0.00692 2.829,-0.70719 2.829,1.02227c0,0.33546 -0.16186,0.58858 -0.44786,0.77854c0.69781,0.11965 1.35125,0.31696 1.4353,0.62686l0.32697,0.8095c-0.10237,0.3259 -0.25467,0.60771 -0.44946,0.85159c1.05007,0.15583 1.99961,0.4223 2.02607,0.91605c0.1113,0.1778 0.17594,0.38989 0.17594,0.61764c0,0.62731 -0.4904,1.13585 -1.09534,1.13585c-0.11692,0 -0.22956,-0.019 -0.33521,-0.05418c-1.6837,0.81289 -3.71838,0.54452 -5.76551,0.56532z" fill="none" stroke="#000000" stroke-width="1" stroke-linecap="butt"/><path d="M244.98679,204.71988c0,0 3.73832,-1.23555 5.87155,-1.56785c2.12027,-0.33027 6.88918,-0.41989 6.88918,-0.41989" fill="none" stroke="#000000" stroke-width="1" stroke-linecap="round"/><path d="M245.8083,207.38912c0,0 4.14407,-1.0201 6.34114,-1.33756c2.25576,-0.32595 7.02203,-0.59338 7.02203,-0.59338" fill="none" stroke="#000000" stroke-width="1" stroke-linecap="round"/></g><path d="M249.75461,193.90416c-0.02697,-0.02467 -0.05339,-0.04894 -0.0792,-0.07276c0.02783,0.01242 0.05576,0.02487 0.08377,0.03732c-0.00158,0.01173 -0.0031,0.02354 -0.00457,0.03544z" fill="#061382" stroke="#000000" stroke-width="0" stroke-linecap="butt"/><g stroke="#000000"><path d="M245.17836,191.37043l4.54988,-2.18432l5.56096,3.2328l2.86475,-1.48534l4.38137,4.80553c0,0 -5.68541,6.57214 -8.65591,6.3009c-4.64664,-0.42428 -5.58353,-8.39786 -5.58353,-8.39786z" fill="#0066cd" stroke-width="0" stroke-linecap="round"/><path d="M262.53531,195.73909c0,0 -5.68541,6.57215 -8.65591,6.3009c-3.39336,-0.30985 -4.80825,-4.64582 -5.32465,-6.96225c1.57648,1.47412 3.96862,3.54134 6.45854,4.17257c1.45992,0.37011 4.90595,-4.74049 5.15838,-6.10369z" fill="#061382" stroke-width="0" stroke-linecap="butt"/><path d="M245.17836,191.37043l4.54989,-2.18433l5.56096,3.2328l2.86473,-1.48534l4.38137,4.80553c0,0 -5.68541,6.57215 -8.65591,6.3009c-4.64664,-0.42428 -5.58353,-8.39786 -5.58353,-8.39786" fill="none" stroke-width="1" stroke-linecap="round"/></g></g><g stroke="#000000"><g stroke-linecap="butt"><path d="M265.83886,171.01982l1.19739,-2.0133c0,0 8.95678,1.72037 10.62193,3.28638c1.16897,1.09937 -0.03613,5.18807 -2.69317,4.96076c-3.53841,-0.30271 -9.12615,-6.23385 -9.12615,-6.23385z" fill="#0066cd" stroke-width="0"/><path d="M265.83887,171.01982l0.42497,-0.71456c0,0 1.91539,0.76123 3.75824,1.69367c1.42434,0.72068 2.61068,1.53189 4.05487,2.24668c1.71762,0.85013 3.41279,1.53089 3.3675,1.60336c-0.53734,0.86002 -1.38527,1.49829 -2.47942,1.4047c-3.53841,-0.3027 -9.12616,-6.23386 -9.12616,-6.23386z" fill="#061483" stroke-width="0"/><path d="M265.83887,171.01982l1.19739,-2.0133c0,0 8.95678,1.72038 10.62193,3.28639c1.16898,1.09937 -0.03613,5.18807 -2.69317,4.96076c-3.53841,-0.3027 -9.12616,-6.23386 -9.12616,-6.23386z" fill="none" stroke-width="1"/></g><g stroke-linecap="round"><path d="M226.74597,164.24332c0,0 -2.13776,-26.03589 19.92122,-20.26391c22.61796,5.91824 13.71013,24.92979 13.71013,24.92979c0,0 7.11758,-3.35888 7.87139,-2.60954c0.63627,0.63251 -1.77455,5.16515 -3.01183,6.82218c-0.91426,1.22443 -2.43671,3.98073 -3.82085,3.83176c-0.87121,-0.09376 -3.68911,-3.69514 -3.68911,-3.69514c0,0 -8.23082,2.30432 -15.17925,2.01495c-6.86147,-0.28576 -15.98733,-3.57303 -15.98733,-3.57303c0,0 -6.77282,-2.48184 -6.36356,-4.91949c0.34872,-2.07707 6.5492,-2.53759 6.5492,-2.53759z" fill="#fde0be" stroke-width="0"/><path d="M253.23517,174.2818c-0.03675,0.00706 -0.75189,-2.34275 -0.75189,-2.34275l-3.71942,1.72617l-2.98846,-8.19457l-7.68742,2.55127l0.62917,-6.56759c0,0 -12.02577,0.62966 -12.02544,0.59848c0.06807,-6.14671 1.88434,-22.80715 19.97547,-18.0734c22.61796,5.91824 13.71013,24.92979 13.71013,24.92979c0,0 4.06911,5.35294 3.97099,5.49524c-0.86239,1.25101 -1.93337,2.6567 -2.93229,2.54919c-0.87121,-0.09376 -3.68911,-3.69514 -3.68911,-3.69514c0,0 -1.82958,0.5122 -4.49173,1.02333z" fill="#fc988a" stroke-width="0"/><path d="M260.40708,170.44136l3.32368,-0.63563l-2.31584,4.55317z" fill="#f79587" stroke-width="0.5"/><path d="M246.66716,143.9794c22.61796,5.91824 13.71013,24.92979 13.71013,24.92979c0,0 7.11758,-3.35888 7.87139,-2.60954c0.63627,0.63251 -1.77455,5.16515 -3.01183,6.82218c-0.91426,1.22443 -2.43671,3.98073 -3.82085,3.83176c-0.87121,-0.09376 -3.68911,-3.69514 -3.68911,-3.69514c0,0 -8.23082,2.30432 -15.17925,2.01495c-6.86147,-0.28576 -15.98733,-3.57303 -15.98733,-3.57303c0,0 -6.77282,-2.48184 -6.36356,-4.91949c0.34872,-2.07707 6.5492,-2.53759 6.5492,-2.53759c0,0 -2.13775,-26.03587 19.92122,-20.2639z" fill="none" stroke-width="1"/></g><g stroke-linecap="round"><path d="M268.07538,163.36067c0,0 -2.63035,2.87874 -4.04074,3.97227c-1.21791,0.9443 -3.92921,2.20718 -3.92921,2.20718c0,0 -9.29458,-7.48104 -16.34765,-10.09418c-7.20423,-2.66916 -16.97921,-4.20866 -16.97921,-4.20866c0,0 0.68959,-18.22256 4.8272,-19.97229c3.01281,-1.27408 10.80029,-1.28371 17.81793,1.01986c3.19845,1.04991 12.31628,4.14934 14.61695,7.8659c3.0835,4.9812 4.03475,19.20992 4.03475,19.20992z" fill="#ff292e" stroke-width="0"/><path d="M268.07538,163.36067c0,0 -2.63035,2.87875 -4.04074,3.97227c-1.21791,0.9443 -3.9292,2.20718 -3.9292,2.20718c0,0 -4.50112,-3.62286 -9.61565,-6.70697c-0.13388,-0.08072 5.65892,-13.13624 9.83493,-17.82462c1.38285,-1.55251 3.14361,-1.78236 3.71593,-0.8578c3.0835,4.98121 4.03474,19.20992 4.03474,19.20992z" fill="#ac0e49" stroke-width="0.5"/><path d="M264.03465,167.33295c-1.21791,0.9443 -3.9292,2.20718 -3.9292,2.20718c0,0 -9.29458,-7.48104 -16.34766,-10.09418c-7.20423,-2.66916 -16.9792,-4.20865 -16.9792,-4.20865c0,0 0.68959,-18.22257 4.8272,-19.97229c3.01282,-1.27407 10.80029,-1.28371 17.81793,1.01986c3.19845,1.04991 12.31629,4.14933 14.61694,7.86589c3.0835,4.98121 4.03474,19.20992 4.03474,19.20992c0,0 -2.63035,2.87874 -4.04074,3.97226z" fill="none" stroke-width="1"/></g><g stroke-linecap="round"><path d="M226.23108,160.94733c0,0 -3.96518,0.03905 -5.8293,0.28405c-1.89266,0.24874 -5.44234,1.19735 -5.44234,1.19735c0,0 2.4449,-3.39405 3.88433,-4.84344c1.36701,-1.37647 4.54621,-3.64548 4.54621,-3.64548l-9.43675,-1.52966c0,0 11.46563,-10.35458 15.31454,-11.04478c2.29553,-0.41164 8.90731,6.30622 8.90731,6.30622c0,0 1.84221,-2.32711 2.98135,-3.34638c1.03732,-0.92815 3.57664,-2.52149 3.57664,-2.52149c0,0 0.09382,6.31561 0.43403,9.4417c0.35441,3.25663 1.6516,9.72248 1.6516,9.72248l13.14092,8.09966l-2.8245,6.21605l-4.16942,-7.31233l-3.31167,2.79932l-2.83533,-9.8027l-5.74456,2.87667l0.04919,-5.20036c0,0 -11.30877,0.04927 -13.9827,0.67308c-0.7289,0.17004 -0.90952,1.63005 -0.90952,1.63005z" fill="#4fa6ec" stroke-width="0"/><path d="M231.35679,152.65925l-16.39735,9.76946c0,0 2.4449,-3.39405 3.88433,-4.84345c1.367,-1.37648 4.54621,-3.64548 4.54621,-3.64548l-9.43674,-1.52967c0,0 11.46562,-10.35458 15.31454,-11.04478c2.29552,-0.41165 8.90732,6.30623 8.90732,6.30623c0,0 1.8422,-2.32711 2.98134,-3.34638c1.03732,-0.92815 3.57664,-2.52148 3.57664,-2.52148l-5.11806,10.97584c0,0 -7.78995,-6.33726 -10.00496,-6.523c-3.47636,-0.2915 -9.76941,5.42439 -9.76941,5.42439z" fill="#66ffff" stroke-width="0"/><path d="M250.93631,165.33316l-1.6847,4.04607l-1.71799,-5.93964z" fill="#66ffff" stroke-width="0"/><path d="M214.95946,162.42873c0,0 2.4449,-3.39405 3.88433,-4.84345c1.367,-1.37648 4.54621,-3.64548 4.54621,-3.64548l-9.43674,-1.52967c0,0 11.46562,-10.35458 15.31454,-11.04478c2.29552,-0.41165 8.90732,6.30623 8.90732,6.30623c0,0 1.8422,-2.32711 2.98134,-3.34638c1.03732,-0.92815 3.57664,-2.52148 3.57664,-2.52148c0,0 0.09382,6.3156 0.43402,9.44169c0.3544,3.25663 1.6516,9.72248 1.6516,9.72248l13.14092,8.09966l-2.8245,6.21605l-4.16942,-7.31232l-3.31168,2.79932l-2.83534,-9.8027l-5.74457,2.87667l0.04919,-5.20036c0,0 -11.30877,0.04927 -13.9827,0.67308c-0.7289,0.17004 -0.90952,1.63005 -0.90952,1.63005c0,0 -3.96516,0.03906 -5.82929,0.28406c-1.86412,0.245 -5.44234,1.19732 -5.44234,1.19732z" fill="none" stroke-width="1"/></g></g><path d="M176.16667,243.83333v-127.66667h127.66667v127.66667z" fill="none" stroke="none" stroke-width="NaN" stroke-linecap="butt"/><g stroke="none" stroke-width="0.5" stroke-linecap="butt"><path d="M235.77817,166.97824c-1.19145,-0.79464 -0.49752,-5.62113 -0.60119,-6.9924c-0.08391,-1.11131 -0.15958,-1.93706 0.33752,-2.95872l0.05008,-0.37076c0,0 0.02538,-0.1314 0.11565,-0.25301c-0.10217,-0.38398 -0.19036,-0.75365 -0.2615,-1.10275c-0.70866,-3.62764 -1.62291,-7.24466 -2.37217,-10.83338c0,0 -0.1086,-0.54684 0.43824,-0.65545c0.54684,-0.10861 0.65545,0.43824 0.65545,0.43824c0.66537,3.59414 1.6441,7.21878 2.37217,10.83338c0.44649,2.32132 1.84579,6.09824 2.94755,8.15667c3.13741,-1.0016 6.38634,-2.67377 9.61388,-3.49104c0.07852,-0.04378 0.1926,-0.08842 0.32066,-0.07835c0.45608,-0.1073 0.91162,-0.1965 1.36628,-0.2633c3.1286,-1.40714 6.72901,-1.41635 9.76547,-2.63282l0.37005,-0.02701c0,0 0.55686,0.02726 0.52959,0.58412c-0.02726,0.55686 -0.58412,0.52959 -0.58412,0.52959l0.07307,-0.04156c-3.16345,1.11612 -6.64557,1.27568 -9.8442,2.6588c-0.49724,0.07563 -0.99594,0.17717 -1.49548,0.29918c-2.51023,2.40934 -3.35133,8.56345 -7.96283,7.79941c-1.61411,-1.14548 -0.81295,-3.23261 0.01826,-4.93048c-0.76782,0.29225 -1.52972,0.56432 -2.28335,0.79555c0,0 -0.18717,0.05669 -0.37337,-0.00793c-0.37342,1.50318 -1.61079,3.6011 -3.19573,2.54404z" fill="#000000"/><path d="M241.54105,176.9613c0.84116,1.33116 2.17582,0.35812 2.54218,-0.97373c0.41983,-1.52623 0.82921,-3.47523 0.67355,-5.14325c-1.12455,-0.03759 -2.24826,0.03685 -3.37934,-0.01853c-0.72164,-0.03804 -1.44859,-0.12411 -2.16878,-0.25909c1.03429,2.0427 1.19772,4.38351 2.3324,6.3946zM245.10088,169.53625c0.54684,-0.10861 0.65545,0.43824 0.65545,0.43824c0.37147,1.88583 0.08807,5.41248 -1.01014,7.01085c-1.18603,1.72621 -2.78384,2.6649 -4.16124,0.54973c-1.23935,-2.23436 -1.29939,-4.89174 -2.697,-7.03946l-0.15588,-0.16064c0,0 -0.05061,-0.05583 -0.0941,-0.14504c-2.74024,-0.80709 -5.24362,-2.36561 -6.79723,-4.72815c0,0 -0.30148,-0.46898 0.16748,-0.77046c0.46897,-0.30148 0.77046,0.16748 0.77046,0.16748c1.94808,3.12469 6.02216,4.69156 9.65328,4.85326c1.11552,0.05462 2.22068,-0.01411 3.32995,0.01769c0.06652,-0.08662 0.17231,-0.16043 0.33896,-0.19352z" fill="#000000"/><path d="M239.17541,170.52196c0.7202,0.13498 1.47241,0.21061 2.19403,0.24865c1.13108,0.05538 2.29968,-0.0057 3.42421,0.0319c0.15564,1.66802 -0.24779,3.69451 -0.66763,5.22074c-0.36636,1.33186 -1.75001,2.3246 -2.59117,0.99346c-1.13465,-2.01108 -1.32517,-4.45204 -2.35946,-6.49476z" data-paper-data="{&quot;noHover&quot;:false,&quot;origItem&quot;:[&quot;Path&quot;,{&quot;applyMatrix&quot;:true,&quot;segments&quot;:[[[729.15247,381.60533],[-2.20914,-3.50334],[1.6237,2.31099]],[[733.62138,379.63788],[-0.53952,2.41817],[0.61826,-2.77107]],[[734.37693,370.36466],[0.42514,2.9746],[-2.01791,0.03128]],[[728.32121,370.62788],[2.03121,0],[-1.29615,-0.00486]],[[724.41309,370.35396],[1.30208,0.17864],[2.03209,3.56881]]],&quot;closed&quot;:true}]}" fill="#ff6666"/></g><g><path d="M205.11139,194.83667c-0.69426,-1.62109 0.05708,-3.49804 1.67815,-4.19231c1.62109,-0.69426 3.49802,0.05707 4.1923,1.67816c0.69426,1.62109 -0.05707,3.49802 -1.67814,4.19228c-1.62109,0.69426 -3.49804,-0.05707 -4.1923,-1.67813z" fill="#3f5479" stroke="#000000" stroke-width="1" stroke-linecap="butt"/><path d="M213.68167,174.48751c4.51719,-1.03125 11.39547,6.2411 10.70105,11.32388c-0.26728,1.9563 -1.8367,3.3872 -3.63859,3.80112c-0.16378,0.03763 -1.55326,-0.39992 -1.58001,-0.33175c-0.15111,0.38533 0.29189,1.54032 -0.28096,2.46481c-0.7738,1.24879 -2.58901,2.27477 -2.58901,2.27477c0,0 -0.98945,3.08488 -2.12208,3.1025c-5.8783,0.09152 -8.79634,-4.66637 -8.80241,-8.29044c-0.00159,-0.94612 1.8343,-3.20643 2.36996,-4.79516c0.49029,-1.45417 -0.49807,-1.43619 0.14626,-2.23759c0.14612,-0.18172 0.62881,-0.80383 1.27824,-1.1417c0.71801,-0.37357 1.62505,-0.49146 2.17904,-1.3151c1.15451,-1.7164 -0.1238,-4.29323 2.3385,-4.85535z" fill="#fde0be" stroke="#000000" stroke-width="0" stroke-linecap="butt"/><path d="M218.06152,193.12658c-1.20957,-6.42901 8.42917,-11.14931 9.92808,-5.33712c0.76424,2.96344 -1.7647,3.34781 -3.46632,4.77107c-0.13025,0.10894 -0.23224,0.24964 -0.31955,0.4118c0.03633,1.11441 -0.60268,2.18863 -1.68941,2.65405c-0.19956,0.08546 -0.40353,0.14583 -0.60844,0.18252c-1.105,0.19785 -2.23677,-0.29295 -2.84322,-1.25145c-0.57514,-0.29661 -0.75073,-0.89029 -0.97491,-1.41376z" fill="#f89688" stroke="#000000" stroke-width="1" stroke-linecap="butt"/><path d="M224.38273,185.81137c-0.26728,1.9563 -1.8367,3.3872 -3.63858,3.80111c-0.16378,0.03763 -1.55326,-0.39992 -1.58001,-0.33175c-0.15111,0.38533 0.29189,1.54032 -0.28096,2.46481c-0.77381,1.24879 -2.58901,2.27477 -2.58901,2.27477c0,0 -0.98945,3.08488 -2.12208,3.1025c-1.0573,0.01647 -2.01885,-0.12398 -2.88492,-0.38646c0.2017,-1.84445 0.50399,-3.23219 -0.27855,-5.05937c-0.26001,-0.60709 -0.72694,-2.32398 -1.07575,-2.85874c0.35905,-0.49477 0.30417,-0.41118 0.63304,-0.95781c0.11512,0.19861 0.24806,0.3854 0.39979,0.55895c0.22051,0.25223 0.48606,0.48787 0.78115,0.69989c0.68126,1.24473 2.21014,1.79123 3.54133,1.22112c0.18707,-0.08013 0.36088,-0.17828 0.52027,-0.29158c0.76487,-0.28029 1.26541,-0.96488 1.16977,-2.20383c0.00369,-0.14959 -0.00469,-0.30041 -0.02572,-0.45105c0.59856,0.1747 1.25907,0.15066 1.877,-0.11398c0.11813,-0.05059 0.23098,-0.10839 0.33824,-0.17263c0.62699,-0.37558 1.0632,-0.97202 1.25024,-1.64345c0.81954,-1.45228 1.65352,-3.56487 2.18792,-5.57342c1.27738,1.9259 2.02988,4.06881 1.77683,5.92095z" fill="#f89688" stroke="#000000" stroke-width="0" stroke-linecap="butt"/><path d="M209.39897,188.17599l1.92989,0.38648c0,0 1.07955,2.1452 1.86269,2.92872c0.87818,0.87863 2.87445,2.21023 2.87445,2.21023" fill="none" stroke="#000000" stroke-width="1" stroke-linecap="round"/><path d="M213.84573,183.625l1.74352,0.46629c0,0 0.68561,1.9003 1.38131,2.88969c0.71419,1.01567 2.59701,2.79477 2.59701,2.79477" fill="none" stroke="#000000" stroke-width="1" stroke-linecap="round"/><path d="M213.68167,174.48751c4.51719,-1.03125 11.39547,6.24109 10.70106,11.32388c-0.26728,1.9563 -1.8367,3.3872 -3.63858,3.80111c-0.16378,0.03763 -1.55326,-0.39992 -1.58001,-0.33175c-0.15111,0.38533 0.29189,1.54032 -0.28096,2.46481c-0.77381,1.24879 -2.58901,2.27477 -2.58901,2.27477c0,0 -0.98945,3.08488 -2.12208,3.1025c-5.8783,0.09152 -8.79634,-4.66637 -8.80241,-8.29044c-0.00158,-0.94612 1.8343,-3.20643 2.36996,-4.79516c0.49029,-1.45417 -0.49807,-1.43619 0.14626,-2.23759c0.15227,-0.18939 0.48946,-0.74173 1.17451,-1.1053c0.69906,-0.37102 1.74991,-0.55926 2.28278,-1.35149c1.15451,-1.71639 -0.1238,-4.29323 2.3385,-4.85535z" fill="none" stroke="#000000" stroke-width="1" stroke-linecap="butt"/><path d="M218.43154,181.90916c-1.36649,-3.1907 -0.69414,-6.20883 1.69887,-7.23368c2.39302,-1.02486 5.4407,0.73088 6.8072,3.92159c1.36649,3.1907 1.0136,6.18226 -1.37944,7.20713c-2.39302,1.02486 -5.76016,-0.70436 -7.12663,-3.89504z" fill="#93c0c3" stroke="none" stroke-width="0" stroke-linecap="butt"/><path d="M225.55818,185.8042c-2.30972,0.98919 -5.5269,-0.58729 -6.97678,-3.5672c2.80109,-1.17061 5.63668,-2.25992 8.44806,-3.41943c1.25728,3.10718 0.86654,5.98541 -1.47128,6.98664z" fill="#475f86" stroke="none" stroke-width="0" stroke-linecap="butt"/><path d="M217.82723,179.87801c0.81161,-0.24423 1.74072,-1.02721 2.21545,-1.25028c1.05427,-0.49541 3.49674,-1.31619 5.19793,-2.55525c0.49433,0.48933 0.93998,1.07335 1.31002,1.73653c-2.79199,1.15074 -5.60747,2.23296 -8.38918,3.39503c-0.15211,-0.45003 -0.26319,-0.89379 -0.33421,-1.32604z" fill="#475f86" stroke="none" stroke-width="0" stroke-linecap="butt"/><path d="M218.43154,181.90916c-1.36649,-3.1907 -0.69414,-6.20883 1.69887,-7.23368c2.39302,-1.02486 5.4407,0.73088 6.8072,3.92159c1.36649,3.1907 1.0136,6.18226 -1.37944,7.20713c-2.39302,1.02486 -5.76016,-0.70436 -7.12663,-3.89504z" fill="none" stroke="#000000" stroke-width="1" stroke-linecap="butt"/><path d="M220.788,179.68693c-1.91748,-4.47727 -0.3056,-9.79367 3.86288,-11.57892c4.16849,-1.78525 8.18371,0.56987 10.1012,5.04713c1.91748,4.47727 0.09269,9.55402 -4.07578,11.33927c-4.16848,1.78524 -7.97079,-0.33022 -9.88828,-4.80748z" fill="#3f5479" stroke="#000000" stroke-width="0" stroke-linecap="butt"/><path d="M234.75209,173.15516c1.91748,4.47727 0.09269,9.55402 -4.07578,11.33927c-3.53849,1.51543 -6.81313,0.22012 -8.89499,-2.94465c0.20271,0.00029 0.41346,-0.01647 0.63233,-0.05172c4.69205,-0.75556 11.23796,-4.86563 11.25367,-10.33727c0.41082,0.60379 0.77513,1.27142 1.08475,1.99437z" fill="#323344" stroke="#000000" stroke-width="0" stroke-linecap="butt"/><path d="M224.34768,169.78171c-0.18183,-0.42457 0.01495,-0.91615 0.43951,-1.09798c0.42458,-0.18184 0.91615,0.01496 1.09798,0.43951c0.18183,0.42457 -0.01495,0.91615 -0.43951,1.09798c-0.42458,0.18184 -0.91615,-0.01496 -1.09798,-0.43951z" fill="#95c2c5" stroke="none" stroke-width="0.5" stroke-linecap="butt"/><path d="M220.788,179.68693c-1.91748,-4.47727 -0.3056,-9.79367 3.86288,-11.57892c4.16849,-1.78525 8.18371,0.56987 10.1012,5.04713c1.91748,4.47727 0.09269,9.55402 -4.07578,11.33927c-4.16848,1.78524 -7.97079,-0.33022 -9.88828,-4.80748z" fill="none" stroke="#000000" stroke-width="1" stroke-linecap="butt"/><path d="M235.02662,175.47624c0,0 -0.09031,2.8467 -4.68958,5.04864c-2.5349,1.21363 -5.76615,2.40112 -5.76615,2.40112" fill="none" stroke="#000000" stroke-width="1" stroke-linecap="round"/><path d="M234.52212,173.02372c0,0 -2.02782,1.65013 -3.53638,2.54317c-2.39194,1.41597 -9.43038,5.13289 -9.43038,5.13289" fill="none" stroke="#000000" stroke-width="1" stroke-linecap="round"/><path d="M220.58215,178.99381c0,0 1.9527,-3.8171 5.71803,-5.79701c3.20513,-1.68532 7.36583,-1.74726 7.36583,-1.74726" fill="none" stroke="#000000" stroke-width="1" stroke-linecap="round"/><path d="M219.74116,175.47239c0,0 1.76598,-3.29104 4.8077,-4.69161c3.05662,-1.40743 7.13386,-1.69627 7.13386,-1.69627" fill="none" stroke="#000000" stroke-width="1" stroke-linecap="round"/><path d="M228.81644,184.62546c0,0 -4.03026,-1.34135 -6.25789,-4.77325c-1.28794,-1.98418 -2.10667,-6.68563 -2.10667,-6.68563" fill="none" stroke="#000000" stroke-width="1" stroke-linecap="round"/><path d="M231.13726,183.81345c0,0 -4.70742,-2.6126 -6.4576,-5.90921c-1.36545,-2.57195 -1.86232,-8.41935 -1.86232,-8.41935" fill="none" stroke="#000000" stroke-width="1" stroke-linecap="round"/><path d="M233.42913,181.80088c0,0 -2.43091,0.07373 -5.98277,-7.52351c-1.14324,-2.44534 -1.48073,-6.5047 -1.48073,-6.5047" fill="none" stroke="#000000" stroke-width="1" stroke-linecap="round"/><path d="M230.3432,168.50583l4.65328,10.44038" fill="none" stroke="#000000" stroke-width="1" stroke-linecap="round"/></g></g></g></svg>