<svg version="1.1" xmlns="http://www.w3.org/2000/svg" xmlns:xlink="http://www.w3.org/1999/xlink" width="306.30631" height="274.77477" viewBox="0,0,306.30631,274.77477"><g transform="translate(-86.84686,-42.61262)"><g data-paper-data="{&quot;isPaintingLayer&quot;:true}" fill-rule="nonzero" stroke-linecap="butt" stroke-linejoin="miter" stroke-miterlimit="10" stroke-dasharray="" stroke-dashoffset="0" style="mix-blend-mode: normal"><path d="M86.84686,317.38739v-274.77477h306.30631v274.77477z" data-paper-data="{&quot;index&quot;:null}" fill="none" stroke="none" stroke-width="0"/><text transform="translate(271.55609,110.72264) rotate(-180) scale(0.1602,-0.1602)" font-size="40" xml:space="preserve" data-paper-data="{&quot;index&quot;:null}" fill="#000000" fill-rule="nonzero" stroke="none" stroke-width="1" stroke-linecap="butt" stroke-linejoin="miter" stroke-miterlimit="10" stroke-dasharray="" stroke-dashoffset="0" font-family="Sans Serif" font-weight="normal" text-anchor="start" style="mix-blend-mode: normal"><tspan x="0" dy="0">AwezomeXD</tspan><tspan x="0" dy="46.150000000000006px"> </tspan><tspan x="0" dy="46.150000000000006px">MeIzAwezomeDede</tspan></text><g data-paper-data="{&quot;index&quot;:null}"><g><g><g><path d="M203.71772,124.11419c0,0 10.01359,-13.83914 36.64414,-14.23674c12.56776,-0.18764 36.2784,-1.52748 36.2784,-1.52748c0,0 5.05326,3.39882 7.0304,3.43989c2.46867,0.05128 5.17873,-3.22028 5.17873,-3.22028c0,0 0.28781,4.1547 -0.16571,7.4839c-1.70826,12.53997 -11.59762,11.75594 -11.59762,11.75594c0,0 3.41781,6.02172 3.21712,10.31695c-0.21098,4.51507 -4.06341,6.64485 -4.06341,6.64485c0,0 2.18223,3.70138 2.03643,7.29431c-0.26051,6.41961 -3.21529,14.8451 -3.21529,14.8451c0,0 -1.53779,23.14381 -4.93101,23.36273c-2.94429,0.18996 -10.22378,-4.80889 -10.22378,-4.80889c0,0 -0.4782,10.19882 -2.31031,10.25033c-2.2853,0.06424 -4.60363,-4.06435 -7.15949,-4.69275c-2.35245,-0.57838 -4.23693,-7.14783 -4.23693,-7.14783c0,0 -2.54072,6.61516 -5.44265,7.22706c-2.81607,0.5938 -4.87437,5.59319 -6.04653,5.6196c-4.27288,0.09628 -8.01779,-13.23403 -8.01779,-13.23403c0,0 -12.81647,7.41703 -15.40681,4.67387c-3.05724,-3.2376 -2.7381,-19.15343 -2.7381,-19.15343c0,0 -5.11025,-5.05724 -5.30032,-7.91166c-0.42686,-6.41051 3.16368,-11.15828 3.16368,-11.15828c0,0 -3.23094,0.06584 -4.90666,1.09185c-1.78115,1.09056 -5.48325,5.26967 -5.48325,5.26967c0,0 -0.76428,-5.68698 -0.09041,-8.32714c0.70866,-2.77644 4.24325,-7.94325 4.24325,-7.94325c0,0 -4.3984,-3.967 -5.8306,-9.32797c-0.76759,-2.87321 0.62193,-8.78791 0.62193,-8.78791c0,0 3.8859,4.27019 5.59689,4.98463c1.32725,0.55421 3.15572,-2.78301 3.15572,-2.78301z" fill="#6d0f0a" stroke="#000000" stroke-width="2"/><path d="M201.71893,117.19243c0,0 -2.74702,-7.9916 -0.02969,-17.87364c1.47111,-5.34994 6.55796,-11.8178 9.69555,-16.31393c4.44645,-6.37171 13.16815,-8.90712 20.38548,-9.01488c9.4877,-0.14165 15.48388,9.66757 15.48388,9.66757c0,0 9.99922,-3.56379 17.17338,-1.50767c6.93082,1.98638 11.41063,10.18403 12.66491,12.2244c1.91083,3.10841 2.9527,17.03743 2.9527,17.03743c0,0 -28.36792,20.4025 -43.40547,20.62701c-16.06466,0.23985 -25.79831,-17.313 -31.68476,-14.76549c-2.07123,0.89638 -3.23599,-0.08081 -3.23599,-0.08081z" fill="#6d0f0a" stroke="#000000" stroke-width="2"/><path d="M208.96938,87.61713c0,0 2.31262,-3.00681 3.50729,-4.30616c1.13976,-1.23964 3.50376,-3.31925 3.50376,-3.31925c0,0 7.8924,6.59981 12.18134,8.26119c4.49446,1.74099 12.26556,0.19171 12.26556,0.19171c0,0 -0.0971,2.3185 0.0961,3.27566c0.20427,1.012 0.62329,2.64813 0.62329,2.64813c0,0 1.33899,-1.77111 1.71517,-2.53619c0.40631,-0.82634 1.10944,-2.57593 1.10944,-2.57593c0,0 1.48169,3.86098 2.18198,5.31216c0.57347,1.18838 1.71583,2.76505 1.71583,2.76505c0,0 0.06868,-2.13266 0.02192,-3.24408c-0.0495,-1.17671 -0.31118,-3.63151 -0.31118,-3.63151c0,0 9.23866,4.92365 15.04758,6.89599c0.11662,0.0396 4.72746,0.20888 5.06706,0.26911c7.30175,1.29483 5.34335,-8.1565 5.34335,-8.1565c0,0 2.61896,3.59976 3.56155,6.7046c0.956,3.14906 2.13476,12.05899 2.13476,12.05899c0,0 -5.15279,-3.40317 -10.14947,-4.15112c-0.88664,-0.13272 -10.55298,-1.03798 -10.55298,-1.03798c0,0 -1.32238,-2.21965 -2.04917,-3.15559c-0.71218,-0.91713 -2.26862,-2.40477 -2.26862,-2.40477c0,0 -1.28638,1.8074 -1.93018,2.93024c-0.77346,1.34895 -2.39335,4.61028 -2.39335,4.61028c0,0 -0.79979,-1.90974 -1.40379,-2.94041c-0.67194,-1.1466 -2.44579,-3.62857 -2.44579,-3.62857c0,0 -1.33728,0.39923 -2.08025,0.85065c-1.03145,0.62669 -3.53205,2.55929 -3.53205,2.55929c0,0 -0.64066,-2.90518 -1.06921,-4.20365c-0.37077,-1.12341 -1.35392,-3.13833 -1.35392,-3.13833c0,0 -1.68845,1.06578 -2.58607,1.78357c-1.12013,0.89572 -3.61621,3.17613 -3.61621,3.17613c0,0 -6.86611,-8.26453 -10.70406,-10.30308c-3.59006,-1.90689 -11.62964,-1.55961 -11.62964,-1.55961z" fill="#c42d06" stroke="none" stroke-width="0"/></g><path d="M222.39463,134.39025c0,0 -20.53977,-10.31177 -20.80525,-11.75133c-0.36036,-1.9541 1.80125,-3.04035 1.6022,-4.05997c-0.31714,-1.62442 -0.75005,-3.22629 -0.75005,-3.22629c0,0 64.38469,-4.57561 74.44394,-4.8741c2.56268,-0.07605 5.02978,2.52075 5.02978,2.52075l-12.89399,18.36119z" fill="#6d0f0a" stroke="none" stroke-width="NaN"/></g><path d="M248.40067,85.01216c0,0 -4.14075,-2.02472 -2.07988,-7.46984c0.10859,-0.28691 0.85251,-1.41707 1.09544,-1.66063c1.86152,-1.86634 6.82925,-1.78077 6.82925,-1.78077c0,0 -3.3937,4.30732 -4.50798,5.7814c-0.99319,1.31388 -1.33684,5.12984 -1.33684,5.12984z" fill="#6d0f0a" stroke="#000000" stroke-width="1.5"/><path d="M243.87267,73.73472c0,0 1.27108,1.13861 1.57396,2.90367c0.33532,0.89104 0.37244,3.77604 0.37244,3.77604l-1.78971,-1.23693z" fill="#000000" stroke="none" stroke-width="0"/></g><path d="M247.66796,83.47456l3.76451,0.28531c0,0 -3.21059,4.12855 -3.74001,4.25267c-0.74118,0.17376 -2.88374,-5.34401 -2.88374,-5.34401z" fill="#6d0f0a" stroke="none" stroke-width="0"/></g><text transform="translate(294.68339,229.0029) rotate(-180) scale(0.27921,-0.27921)" font-size="40" xml:space="preserve" data-paper-data="{&quot;index&quot;:null}" fill="#000000" fill-rule="nonzero" stroke="none" stroke-width="1" stroke-linecap="butt" stroke-linejoin="miter" stroke-miterlimit="10" stroke-dasharray="" stroke-dashoffset="0" font-family="Sans Serif" font-weight="normal" text-anchor="start" style="mix-blend-mode: normal"><tspan x="0" dy="0">AwezomeXD</tspan><tspan x="0" dy="46.150000000000006px"> </tspan><tspan x="0" dy="46.150000000000006px">MeIzAwezomeDede</tspan></text><g data-paper-data="{&quot;index&quot;:null}"><g><path d="M305.15074,281.2039c-0.98651,-0.33862 -2.85622,-1.06736 -2.85622,-1.06736l2.02696,-63.81123c0,0 3.16296,-3.46974 4.83842,-5.17349c1.81091,-1.84148 6.91914,-6.0011 6.91914,-6.0011c0,0 6.01725,0.18197 11.22884,1.77723c7.49136,2.29308 29.41663,10.66422 29.41663,10.66422c0,0 -0.29515,23.3032 -1.13439,34.42755c-0.75693,10.03323 -3.67963,29.38367 -3.67963,29.38367c0,0 -14.50168,1.49922 -21.89596,1.61371c-7.25056,0.11226 -22.04702,-0.93333 -22.04702,-0.93333c0,0 -1.92108,-0.57244 -2.81678,-0.87988z" fill="#434253" stroke="#000000" stroke-width="2.5"/><path d="M306.59659,282.07686c0,0 3.23545,-16.55371 5.33739,-30.5263c1.50254,-9.98814 2.07083,-18.56859 2.09142,-19.2474c0.15709,-5.17871 -0.37711,-9.6264 -0.00092,-14.89447c0.50457,-7.06602 1.1958,-11.58007 1.1958,-11.58007l2.12747,-1.24515c0,0 -1.19498,18.38091 -2.96857,35.7325c-0.74127,7.25212 -2.80838,22.50715 -3.80377,32.05655c-0.10938,1.04936 0.51143,2.42133 0.41165,3.37795c-0.55725,5.34269 -0.94516,6.33045 -0.94516,6.33045l-3.44531,-0.00408z" fill="#000000" stroke="none" stroke-width="0"/></g><g stroke="#000000" stroke-width="1.5"><path d="M330.91388,248.66446c6.79781,-0.60406 14.63313,6.58888 15.44623,14.9411c0.95328,9.79226 -4.99455,16.38589 -13.04707,17.16981c-8.05252,0.78393 -14.96156,-5.31863 -15.10374,-15.15615c-0.1584,-10.9599 5.91804,-16.35169 12.70457,-16.95475z" fill="#2c262f"/><path d="M324.45692,268.7755c-0.26887,-2.76192 1.33577,-5.13174 3.60699,-5.35284c2.27122,-0.2211 3.80952,1.27431 4.07839,4.03623c0.26888,2.76192 -1.40704,5.21323 -3.67826,5.43433c-2.27122,0.2211 -3.73824,-1.3558 -4.00711,-4.11772z" data-paper-data="{&quot;index&quot;:null}" fill="#1b171c"/></g><g stroke="#000000" stroke-width="1.5"><path d="M335.82824,213.84405c6.80856,-0.46759 14.3637,7.15725 14.84887,15.53492c0.56881,9.8221 -5.63284,16.17758 -13.70989,16.64533c-8.07705,0.46775 -14.74165,-5.90085 -14.49821,-15.73639c0.27122,-10.9577 6.54818,-15.97612 13.35924,-16.44387z" fill="#2c262f"/><path d="M328.58818,233.68659c-0.16044,-2.77032 1.53584,-5.07544 3.81398,-5.20737c2.27815,-0.13193 3.75665,1.42261 3.91709,4.19295c0.16044,2.77034 -1.61026,5.15409 -3.8884,5.28602c-2.27814,0.13193 -3.68224,-1.50126 -3.84268,-4.2716z" data-paper-data="{&quot;index&quot;:null}" fill="#1b171c"/></g></g><g data-paper-data="{&quot;index&quot;:null}"><g><path d="M177.70552,280.24703c0,0 -1.88024,0.73284 -2.8723,1.07336c-0.90074,0.30917 -2.83261,0.88483 -2.83261,0.88483c0,0 -14.87968,1.05147 -22.17101,0.93858c-7.43586,-0.11513 -22.01909,-1.62279 -22.01909,-1.62279c0,0 -2.93913,-19.45928 -3.70032,-29.54893c-0.84396,-11.1869 -1.14077,-34.62117 -1.14077,-34.62117c0,0 22.04857,-8.41822 29.58207,-10.7242c5.2409,-1.60422 11.29199,-1.78722 11.29199,-1.78722c0,0 5.13697,4.18302 6.95806,6.03485c1.68488,1.71333 4.86563,5.20259 4.86563,5.20259l2.03836,64.1701z" fill="#434253" stroke="#000000" stroke-width="2.5"/><path d="M173.37926,282.19825l-3.46469,0.0041c0,0 -0.39007,-0.99331 -0.95047,-6.36606c-0.10034,-0.96198 0.52396,-2.34168 0.41397,-3.39694c-1.00099,-9.6031 -3.07972,-24.94394 -3.82517,-32.23684c-1.78356,-17.44918 -2.98527,-35.93346 -2.98527,-35.93346l2.13944,1.25216c0,0 0.69513,4.53943 1.20254,11.64519c0.3783,5.29769 -0.15891,9.77041 -0.00094,14.97823c0.0207,0.68263 0.59219,9.31135 2.10319,19.35565c2.11376,14.05117 5.36741,30.69797 5.36741,30.69797z" fill="#000000" stroke="none" stroke-width="0"/></g><g stroke="#000000" stroke-width="1.5"><path d="M133.39213,263.62307c0.81767,-8.39919 8.69707,-15.63258 15.53311,-15.02512c6.82469,0.60645 12.93531,6.02857 12.77602,17.05011c-0.14298,9.89284 -7.09089,16.02972 -15.18869,15.24139c-8.0978,-0.78832 -14.07908,-7.41904 -13.12044,-17.26637z" fill="#2c262f"/><path d="M151.79121,263.43918c2.284,0.22234 3.89766,2.60548 3.62728,5.38293c-0.27039,2.77745 -1.74565,4.36322 -4.02965,4.14088c-2.284,-0.22235 -3.96933,-2.68744 -3.69895,-5.46489c0.27038,-2.77745 1.81733,-4.28127 4.10133,-4.05893z" data-paper-data="{&quot;index&quot;:null}" fill="#1b171c"/></g><g stroke="#000000" stroke-width="1.5"><path d="M129.05083,229.204c0.4879,-8.42479 8.08552,-16.09251 14.93237,-15.6223c6.84937,0.47038 13.16163,5.51703 13.43437,16.53635c0.24482,9.89086 -6.45726,16.29528 -14.57974,15.8249c-8.12248,-0.47038 -14.35901,-6.86161 -13.787,-16.73894z" fill="#2c262f"/><path d="M151.26402,233.53586c-0.16134,2.78591 -1.57333,4.42828 -3.86428,4.29561c-2.29096,-0.13268 -4.0716,-2.52983 -3.91026,-5.31575c0.16134,-2.7859 1.64816,-4.3492 3.93911,-4.21653c2.29095,0.13267 3.99677,2.45075 3.83543,5.23667z" data-paper-data="{&quot;index&quot;:null}" fill="#1b171c"/></g></g><g data-paper-data="{&quot;index&quot;:null}" fill="#434253" stroke="#000000"><path d="M302.9364,282.15582c0,0 -39.39406,0.31655 -59.64769,0.31655c-21.72904,0 -66.6118,-0.31655 -66.6118,-0.31655c0,0 -4.38216,-25.00528 -4.16309,-53.75635c-0.46515,-31.11458 4.16309,-61.08575 4.16309,-61.08575c0,0 42.82931,-1.2662 64.39595,-1.2662c21.14461,0 59.33114,1.58275 59.33114,1.58275c0,0 7.99686,28.51433 7.2979,63.41059c-1.03994,32.54257 -4.76549,51.11495 -4.76549,51.11495z" stroke-width="2.5"/><path d="M182.1264,274.24783c1.29409,0 2.34316,0.94416 2.34316,2.10884c0,1.16468 -1.04906,2.10884 -2.34316,2.10884c-1.29409,0 -2.34316,-0.94416 -2.34316,-2.10884c0,-1.16468 1.04906,-2.10884 2.34316,-2.10884z" stroke-width="2"/><path d="M296.58665,273.61069c1.29409,0 2.34316,0.94416 2.34316,2.10884c0,1.16468 -1.04907,2.10884 -2.34316,2.10884c-1.29409,0 -2.34316,-0.94416 -2.34316,-2.10884c0,-1.16468 1.04907,-2.10884 2.34316,-2.10884z" stroke-width="2"/><path d="M292.33153,174.94762c-0.48529,-1.12251 0.08425,-2.44878 1.27209,-2.9623c1.18785,-0.51352 2.54417,-0.01985 3.02946,1.10266c0.48528,1.12251 -0.08426,2.44879 -1.2721,2.96231c-1.18785,0.51352 -2.54417,0.01984 -3.02946,-1.10267z" stroke-width="2"/><path d="M180.41759,171.55908c1.18784,-0.51352 2.54418,-0.01985 3.02946,1.10266c0.48528,1.12251 -0.08426,2.44879 -1.2721,2.96231c-1.18784,0.51352 -2.54417,0.01984 -3.02945,-1.10267c-0.48528,-1.12251 0.08425,-2.44878 1.27209,-2.9623z" stroke-width="2"/></g><g data-paper-data="{&quot;index&quot;:null}" stroke="#000000"><path d="M185.3853,208.85061c-2.45268,-6.65252 -2.23243,-25.16686 1.2238,-28.78372c9.15219,-9.57753 27.02753,-9.85708 50.03744,-9.85708c21.54137,0 42.40116,1.26301 52.15372,9.47437c4.59889,3.87212 4.25165,25.69054 0.6414,31.5768c-5.42101,8.83858 -21.3149,12.1266 -53.01425,12.1266c-31.69935,0 -47.51498,-4.62378 -51.04211,-14.19061z" fill="#434253" stroke-width="2"/><path d="M189.64676,207.20852c-2.26436,-5.8977 -2.06104,-22.3113 1.12983,-25.51776c8.4495,-8.4908 24.95241,-8.08126 46.19565,-8.08126c19.88746,0 39.14569,0.46232 48.14946,7.74198c4.2458,3.43277 3.92522,22.77555 0.59215,27.99392c-5.0048,7.83571 -19.67838,9.87414 -48.94391,9.87414c-29.26554,0 -43.86686,-3.5297 -47.12319,-12.01102z" fill="#2c262f" stroke-width="1.5"/><path d="M215.90007,204.08268c-0.88175,-2.5127 -0.80256,-9.50567 0.43998,-10.87178c3.29029,-3.6175 9.71661,-4.38046 17.98885,-4.38046c7.74429,0 15.24354,1.13441 18.74966,4.2359c1.65334,1.46252 1.5285,9.70347 0.23059,11.92675c-1.94889,3.33838 -7.66286,4.79941 -19.05903,4.79941c-11.39616,0 -17.08201,-1.9232 -18.35003,-5.53664z" fill="#1b171c" stroke-width="1.5"/></g><g data-paper-data="{&quot;index&quot;:null}" stroke="#000000"><path d="M185.3853,265.2348c-2.45268,-6.65252 -2.23243,-25.16686 1.2238,-28.78371c9.15219,-9.57753 27.02753,-9.85709 50.03744,-9.85709c21.54137,0 42.40116,1.26301 52.15372,9.47437c4.59889,3.87213 4.25165,25.69054 0.6414,31.5768c-5.42101,8.83858 -21.3149,12.1266 -53.01425,12.1266c-31.69935,0 -47.51498,-4.62379 -51.04211,-14.19062z" fill="#434253" stroke-width="2"/><path d="M189.64676,263.59268c-2.26436,-5.8977 -2.06104,-22.3113 1.12983,-25.51776c8.4495,-8.4908 24.95241,-8.08127 46.19565,-8.08127c19.88746,0 39.14569,0.46232 48.14946,7.74198c4.2458,3.43277 3.92522,22.77556 0.59215,27.99393c-5.0048,7.83571 -19.67838,9.87414 -48.94391,9.87414c-29.26554,0 -43.86686,-3.5297 -47.12319,-12.01102z" fill="#2c262f" stroke-width="1.5"/><path d="M215.90007,260.46686c-0.88175,-2.51269 -0.80256,-9.50566 0.43998,-10.87177c3.29029,-3.6175 9.71661,-4.38046 17.98885,-4.38046c7.74429,0 15.24354,1.13441 18.74966,4.2359c1.65334,1.46252 1.5285,9.70346 0.23059,11.92674c-1.94889,3.33838 -7.66286,4.79941 -19.05903,4.79941c-11.39616,0 -17.08201,-1.9232 -18.35003,-5.53665z" fill="#1b171c" stroke-width="1.5"/></g><g data-paper-data="{&quot;index&quot;:null}"><path d="M255.68229,159.43961c0,-4.62307 -7.6789,-15.53073 -3.44835,-15.53073c1.1058,0 4.00437,2.33459 6.78121,4.85516c1.31177,1.19071 3.26731,2.34172 4.14189,3.77227c0.80378,1.31474 0.70311,2.94412 0.79968,3.34049c0.1279,0.52495 0.9582,2.14097 0.9582,2.14097c0,0 1.66657,1.97795 4.75703,3.90074c2.07801,1.29287 3.83342,0.66077 5.97399,2.01002c1.36594,0.86098 4.64944,2.7213 3.50219,4.97488c-0.16413,0.32243 -4.63191,0.24975 -4.63191,0.24975c0,0 -1.25418,1.6276 -2.37286,2.04842c-2.91542,1.09671 -4.80128,-1.08587 -5.53343,-1.03821c-2.35456,0.15328 -6.08281,-0.10553 -6.08281,-0.10553c0,0 -0.38807,-0.10557 -1.52854,-0.80571c-4.74075,-2.91039 -3.31628,-7.69547 -3.31628,-9.81253z" fill="#ffd5d5" stroke="#000000" stroke-width="1.5"/><path d="M256.91738,166.12691c0,0 6.59309,1.48578 8.99991,0.65935c0.09502,-0.03263 0.98831,-0.82199 2.22028,-1.24686c1.03345,-0.35642 2.39884,-0.36275 2.82018,-0.36185c1.06661,0.00229 1.45587,1.90079 2.3688,1.90079c3.68048,0 4.53214,-0.51035 4.53214,-0.51035c0,0 0.50134,0.54917 0.67236,1.15381c0.122,0.43135 0.02419,0.94264 -0.30837,1.06756c-1.26796,0.47629 -4.33435,0.20759 -4.33435,0.20759c0,0 -1.57635,1.7083 -2.30614,1.73805c-4.86729,0.19843 -3.95285,-1.18226 -4.81014,-1.18226c-3.30731,0 -5.24678,-0.08543 -6.37721,-0.35945c-0.15889,-0.03852 -1.19083,-0.5453 -1.88836,-1.13084c-1.00786,-0.84606 -1.58911,-1.93553 -1.58911,-1.93553z" fill="#fb95a9" stroke="none" stroke-width="0"/><path d="M270.13279,164.66676c0.65495,-0.08172 2.59529,-0.06303 3.39187,0.94108c1.04646,1.3191 0.88323,3.72747 0.88323,3.72747l-1.891,1.52047c0,0 0.73658,-4.96196 -1.61209,-4.96196c-1.88993,0 -4.26437,0.21059 -4.26437,0.21059c0,0 1.41313,-1.17823 3.49236,-1.43765z" fill="#000000" stroke="none" stroke-width="0"/><path d="M265.8325,158.87902l-0.12635,3.79055l-2.33751,-6.19124z" fill="#000000" stroke="none" stroke-width="0"/></g><g data-paper-data="{&quot;index&quot;:null}"><path d="M229.93006,131.62586c2.41131,-2.95149 10.53162,-0.25987 12.59919,3.86227c0.26008,0.51854 1.70637,-0.66733 5.40284,0.98163c0.86997,0.38809 5.3323,2.85511 7.98427,6.04894c1.26983,1.52929 2.1246,3.99593 1.97118,5.03194c-0.22905,2.80784 -2.67033,5.18657 -4.85989,7.14774c-2.87249,2.57284 1.75248,7.33006 -2.40533,7.33006c-3.03121,0 -16.54137,0.60747 -18.69314,-0.7284c-1.28409,-0.79719 -0.53199,-7.61244 -0.88049,-9.01861c-0.48674,-1.96396 -4.99822,-4.40189 -4.99822,-6.61256c0,-2.58633 2.29137,-12.099 3.87959,-14.04301z" fill="#ee1536" stroke="#000000" stroke-width="2"/><path d="M246.04205,151.81497c0,-3.14019 3.56399,-6.94934 7.26523,-7.10728c3.22449,-0.13759 3.97211,2.15654 3.0535,5.15937c-1.10558,3.61402 -4.40634,5.42259 -7.63376,5.42259c-0.06272,0 2.08362,-1.58996 2.84464,-0.28992c1.01358,1.73146 0.66979,6.51156 0.03616,6.86773c-2.98614,1.67855 -13.402,-0.74155 -16.31172,-0.67209c-0.60085,0.01435 -2.90823,0.59035 -3.45604,-1.26733c-0.44915,-1.5231 0.38106,-5.65028 0.34354,-5.65555c-0.60286,-0.08461 -1.36799,-4.06688 -1.36799,-4.06688c0,0 -2.86476,-2.27685 -2.9505,-2.85725c-0.15338,-1.03828 2.10836,-2.8435 2.10836,-2.8435c0,0 1.25189,1.00644 1.97555,1.57762c0.66583,0.52553 1.57561,2.98741 1.57561,2.98741c0,0 4.12841,-5.5717 8.29185,-4.21031c5.58397,1.82588 4.22558,7.21129 4.22558,6.95539z" fill="#9a1652" stroke="none" stroke-width="0"/><path d="M232.5524,160.80495c0.86132,-1.55025 8.52088,-5.58592 9.70316,-7.17085c2.60911,-3.4977 4.57621,-6.08348 4.57621,-6.08348c0,0 0.91108,5.32297 -0.66029,9.58239c-1.16307,3.15265 6.61433,5.47453 5.8723,5.47453c-1.74455,0 -20.27813,-0.38656 -19.49138,-1.80259z" fill="#000000" stroke="none" stroke-width="0"/></g><g data-paper-data="{&quot;index&quot;:null}"><path d="M221.71424,142.95289c0.89069,-4.00178 0.58801,-10.58196 5.78736,-10.26608c3.61328,0.21953 6.13218,5.53997 5.92273,9.63432c-0.22563,4.36977 -3.22059,5.46494 -5.49448,10.17868c-0.43493,0.56697 -0.26069,2.77319 -0.27481,5.7492c-0.00598,1.25981 -1.32978,3.183 -1.21876,5.69599c0.09503,2.15137 1.64834,3.36172 2.75889,4.56955c0.7432,0.80829 0.23517,1.75371 0.01203,1.89649c-0.39714,0.2541 -3.723,-0.53117 -4.2632,-0.42698c-0.41777,0.08057 -1.41467,-0.40466 -3.6676,-0.27099c-0.86522,0.05133 -1.74026,0.76311 -2.77062,0.82042c-0.75263,0.04187 -1.37176,-0.15857 -2.05041,-0.31313c-0.23329,-0.05314 -1.08031,-0.5319 -1.3218,-0.52625c-0.36531,0.00856 -0.86703,0.48594 -1.2941,0.63526c-0.81551,0.28513 -1.6879,0.69038 -2.40433,0.69435c-3.35115,0.0186 -3.43218,-1.88761 -3.43218,-1.88761c0,0 -3.19834,0.06304 -4.23611,-0.42236c-0.78891,-0.36901 -1.63814,-1.00352 -1.45122,-2.2378c0.26153,-1.72688 1.15935,-2.33605 3.24072,-3.20355c3.13593,-1.30704 6.37212,-0.58009 9.9473,-3.92267c3.36598,-3.14698 5.8436,-14.74796 6.21059,-16.39682z" fill="#ffd5d5" stroke="#000000" stroke-width="1.5"/><path d="M207.7904,168.30773c0,0 -3.22774,0.00278 -3.90159,-0.28946c-0.75236,-0.32628 -0.76402,-1.57737 -0.76402,-1.57737c0,0 2.53799,-0.11037 3.55148,-0.23542c0.8325,-0.10272 2.45499,-0.55138 2.45499,-0.55138l-0.55088,2.84128c0,0 1.72873,0.70646 3.34003,0.82889c0.86868,0.066 0.85851,-1.87392 3.64063,-1.87392c1.03078,0 3.33941,1.26431 4.22936,0.77044c2.21602,-1.22976 5.42799,-5.56313 5.42799,-5.56313l1.95167,-3.36123c0,0 -1.22713,4.47698 -1.22713,4.85975c0,0.48247 3.86198,5.6885 3.31633,5.63879c-0.77073,-0.07022 -6.85345,-0.94261 -7.75492,-0.9628c-0.89298,-0.02 -2.35096,0.94386 -3.25413,0.91287c-0.48925,-0.01678 -0.9746,-0.12523 -1.45022,-0.228c-0.45719,-0.09879 -0.99564,-0.55333 -1.42965,-0.55513c-0.58542,-0.00243 -0.97987,0.42362 -1.40129,0.52162c-1.28656,0.29919 -1.98333,0.90551 -3.15523,0.83681c-1.53941,-0.09024 -3.02343,-2.0126 -3.02343,-2.0126z" fill="#fb95a9" stroke="none" stroke-width="0"/><path d="M207.52225,168.40278c0,0 1.3169,-3.1369 2.5389,-3.45707c0.64631,-0.16933 1.92664,-0.25208 2.92677,0.09011c1.01894,0.34863 2.00454,1.37664 2.00454,1.37664c0,0 -2.60227,-0.57435 -3.98008,-0.18953c-1.80959,0.5054 -1.8321,3.47467 -1.8321,3.47467z" fill="#000000" stroke="none" stroke-width="0"/><path d="M222.09405,167.97303l-0.99277,1.89527l-1.48915,-0.1805z" fill="#000000" stroke="none" stroke-width="0"/></g><g data-paper-data="{&quot;index&quot;:null}"><g><path d="M267.68992,121.50344c2.91111,0.56667 4.70356,3.94123 4.00355,7.5373c-0.7,3.59607 -3.62738,6.05188 -6.53848,5.48521c-2.91111,-0.56667 -4.70356,-3.94122 -4.00355,-7.53729c0.7,-3.59607 3.62738,-6.05189 6.53848,-5.48522z" fill="#fb95a9" stroke="#000000" stroke-width="2"/><path d="M218.75846,118.02818c0.26708,-10.23124 14.85775,-8.40077 29.33261,-8.02292c14.47486,0.37785 22.06751,-0.0309 21.80044,10.20033c-0.04357,1.66901 -3.50158,11.29741 -3.50158,11.29741c0,0 6.95542,5.49094 5.40184,9.25387c-1.69127,4.05865 -18.36493,2.39643 -27.37927,-0.78257c-23.83023,-8.40399 -25.92111,-11.7149 -25.65404,-21.94612z" fill="#ffd5d5" stroke="#000000" stroke-width="2"/><path d="M222.09203,111.37413c0,0 27.60934,-3.24706 33.80688,-3.08528c11.74266,0.30653 13.28047,6.91741 13.15604,11.68423c-0.05435,2.08204 -3.20954,10.0372 -3.20954,10.0372c0,0 -2.86329,-5.94597 -4.71321,-7.60246c-2.10706,-1.88672 -7.04788,-3.11179 -7.04788,-3.11179l-6.86075,5.79493l-5.25164,-8.43408c0,0 -3.86095,4.91276 -6.52801,6.69909c-2.84373,1.90467 -10.03838,4.39666 -10.03838,4.39666l-3.8995,-1.02119c0,0 -2.11042,-5.43911 -2.01088,-8.04806c0.09562,-2.506 2.59686,-7.30924 2.59686,-7.30924z" fill="#fb95a9" stroke="none" stroke-width="0"/><path d="M211.95882,120.27325c0.08346,-3.19726 0.0198,-3.89664 2.03476,-5.31865c1.61539,-1.14002 7.48338,3.84229 7.39992,7.03955c-0.08347,3.19726 -1.13282,6.18483 -3.10932,6.13324c-1.97649,-0.0516 -6.42532,-4.02533 -6.32537,-7.85414z" fill="#ffd5d5" stroke="#000000" stroke-width="2.5"/><path d="M218.41141,127.28808c-0.70539,-0.01842 -3.21389,-1.55918 -4.17902,-3.30036c-0.60254,-1.08702 -0.87616,-2.42927 -0.99477,-3.57815c-0.14546,-1.40891 0.91643,-1.99847 2.13296,-1.22727c2.03473,1.28987 4.74729,3.25854 4.7131,4.56823c-0.05463,2.09276 0.01356,3.58155 -1.67227,3.53754z" fill="#fb95a9" stroke="none" stroke-width="0"/><path d="M215.16597,118.46103c0.01669,-0.63945 5.30852,6.45832 5.30852,6.45832l-1.12126,2.60396c0,0 -4.20395,-8.42282 -4.18726,-9.06227z" fill="#000000" stroke="none" stroke-width="0"/><path d="M217.35144,128.11741c-0.18123,-1.86002 1.58659,-3.2575 3.71237,-3.40363c2.12576,-0.14613 4.48638,-0.48569 5.01928,2.68229c0.0938,0.55766 0.6139,4.20527 -1.12566,5.76251c-0.27115,0.24274 -1.75501,1.11145 -3.17248,1.1199c-1.95755,0.01168 -3.08781,-0.5804 -3.08781,-0.5804c0,0 2.40649,-1.47067 2.20717,-1.6433c-0.63569,-0.55055 -3.40061,-2.37458 -3.55288,-3.93735z" fill="#6d0f0a" stroke="#000000" stroke-width="2"/><path d="M204.74748,125.14435c-6.68686,-4.77979 -8.6889,-9.07803 -8.6889,-9.07803c0,0 6.68872,0.33287 9.15261,-1.53643c2.48357,-1.88423 5.72325,-10.9876 5.72325,-10.9876c0,0 22.96062,2.87347 32.76742,3.12947c9.08096,0.23705 17.04737,0.46919 22.88226,0.64669c6.34193,0.19294 11.581,3.48496 12.00287,8.44374c0.1044,1.22716 0.24407,2.87977 0.17466,4.25471c-0.31725,6.28447 -3.15031,11.71636 -3.15031,11.71636c0,0 -4.46808,-8.04323 -6.68308,-11.56755c-2.73947,-4.3588 -7.60286,-8.4995 -7.60286,-8.4995c0,0 -1.23481,3.81157 -3.06925,6.17324c-1.89896,2.44473 -5.04294,2.04278 -5.04294,2.04278c0,0 0.04132,-3.18675 -0.43356,-4.69614c-0.43714,-1.38943 -1.2392,-4.00517 -1.40503,-2.8442c-0.16681,1.16788 -0.9526,3.91326 -1.29775,5.26732c-0.89333,3.50459 -1.49678,3.93596 -1.49678,3.93596c0,0 -1.56055,-3.35868 -3.15449,-6.51145c-1.35527,-2.68069 -3.80628,-4.33551 -3.80628,-4.33551c0,0 -5.05758,4.12324 -7.87807,5.7267c-2.54789,1.44847 -7.9287,3.48634 -7.9287,3.48634c0,0 1.54549,8.25881 -2.42332,7.55589c-2.80502,-0.49678 -3.98535,-1.1099 -5.37707,-2.43824c-0.83434,-0.79636 -0.85379,-3.79675 -0.85379,-3.79675l2.03785,0.7076c0,0 -0.71504,-6.30502 -2.01906,-6.77209c-2.29603,-0.82239 -0.4963,-0.98744 -4.00202,-0.99182c-0.51027,-0.00063 -2.13162,2.91425 -2.14214,5.75459c-0.01128,3.04939 1.60836,6.03914 1.60836,6.03914c0,0 -4.62841,1.50899 -7.89388,-0.82519z" fill="#6d0f0a" stroke="#000000" stroke-width="1.5"/><path d="M254.69901,109.96889c-0.9803,-0.02559 -2.20653,-1.20189 -4.17776,-1.39485c-2.13563,-0.20906 -5.02537,0.56541 -6.15743,0.57445c-16.35008,0.13065 -34.55528,0.69372 -34.55528,0.69372c0,0 0.86659,-2.55433 0.98787,-3.82164c0.12958,-1.35397 0.08214,-4.05115 0.08214,-4.05115c0,0 21.90446,3.36406 35.06122,3.7075c8.44226,0.22037 17.34794,0.10864 22.87444,1.04211c5.85181,0.98842 8.52428,3.02994 8.52428,3.02994l0.6653,6.92211l-2.50969,-0.75914l-5.85658,-6.65205c0,0 -10.44177,0.82639 -14.93852,0.70901z" fill="#6d0f0a" stroke="none" stroke-width="0"/><path d="M243.23697,136.58653c-1.22514,-0.2043 -1.68237,-1.43427 -2.02159,-2.61376c-0.38268,-1.33063 -0.55699,-2.62424 -0.41708,-2.82167c0.21528,-0.30378 8.71639,2.417 8.72167,2.80823c0.00505,0.37327 -1.35672,1.12279 -3.11378,1.79011c-0.98998,0.37598 -2.11295,1.01324 -3.16921,0.8371z" fill="#ef3d61" stroke="#000000" stroke-width="1.5"/><path d="M250.3364,125.87031c0.05068,-1.94161 0.73039,-5.24786 3.73217,-6.26407c0.53896,-0.18247 1.74505,-0.03907 3.04846,0.45071c1.33597,0.50202 2.43487,1.30463 2.75704,1.50653c0.63649,0.39887 1.90796,0.13492 1.90796,0.13492c0,0 1.2733,-0.54937 2.0016,-1.00622c0.61142,-0.38354 2.09239,-2.05887 2.09239,-2.05887c0,0 -0.13173,1.49645 -1.4028,3.03153c-0.52378,0.63259 -1.91124,1.72 -1.91124,1.72c0,0 1.02278,0.17448 2.20455,0.01936c0.88769,-0.11653 3.14554,-1.28895 3.14554,-1.28895c0,0 -1.07955,1.64797 -1.80609,2.33566c-0.5017,0.47486 -1.70743,1.01904 -1.70743,1.01904l-0.27465,1.0039c0,0 -1.3883,-1.92523 -2.1572,-2.38065c-0.6217,-0.36823 -2.2321,-0.2759 -2.2321,-0.2759c0,0 -0.53387,7.69831 -5.41002,7.44463c-3.80197,-0.19779 -4.07161,-2.19436 -3.98815,-5.39162z" fill="#000000" stroke="none" stroke-width="0"/><path d="M229.31679,114.52168c0,0 1.45102,1.8008 2.28616,2.43602c0.76861,0.58462 2.13437,0.69886 2.13437,0.69886c0,0 -0.28548,-0.76819 -0.5672,-1.56654c-0.29381,-0.83265 -0.67337,-3.17762 -0.67337,-3.17762c0,0 1.15056,1.83553 1.76387,2.48677c0.58652,0.62278 2.04425,1.55513 2.04425,1.55513c0,0 2.59362,0.01939 4.29722,0.06386c4.45955,0.11642 7.27054,3.34966 7.27054,3.34966c0,0 -2.40486,-0.74427 -3.24649,-0.9734c-0.59784,-0.16277 -1.33059,-0.13141 -1.33059,-0.13141c0,0 -0.07085,8.512 -6.44257,8.41589c-5.21878,-0.07872 -3.58826,-7.07088 -3.77828,-7.46192c-0.13766,-0.28332 -0.99869,-1.19595 -0.99869,-1.19595c0,0 -1.39699,-0.94211 -1.83638,-1.64115c-0.478,-0.76047 -0.92281,-2.85819 -0.92281,-2.85819z" fill="#000000" stroke="none" stroke-width="0"/></g><path d="M277.95061,114.68308c0,0 -0.2538,-2.7526 -0.48247,-4.13975c-0.21867,-1.32646 -0.8609,-4.00919 -0.8609,-4.00919c0,0 1.04266,0.73518 1.54606,3.09258c0.329,1.54071 1.11859,5.53545 1.11859,5.53545z" fill="#000000" stroke="none" stroke-width="0"/></g><g data-paper-data="{&quot;index&quot;:null}"><path d="M258.3188,189.84963c-1.02396,-0.71924 -2.61216,-2.05592 -4.01444,-5.83096c-0.84291,-2.26917 -1.17132,-4.44267 -0.37584,-5.00508c2.46138,-1.74019 13.46271,-2.04366 13.56639,-2.03632c6.29953,0.44584 14.47737,5.73804 14.28523,8.45276c-0.15236,2.15277 -6.00673,4.67397 -12.18175,4.02777c-9.13226,-0.95567 -12.26956,-5.30904 -12.44976,-5.54051c-0.71527,-0.91876 0.83514,1.61277 1.42883,2.61879c0.68043,1.15304 1.95772,2.01422 1.69718,3.07527c-0.29772,1.21248 -1.10686,0.8346 -1.95584,0.23827z" fill="#ee1536" stroke="#000000" stroke-width="1.5"/><path d="M224.56989,164.53011c0.25391,-3.58757 2.35701,-6.64406 5.63625,-8.75125c4.35584,-2.799 10.60094,-4.03303 15.53181,-3.68405c5.30667,0.37557 12.35114,0.6743 14.19104,3.10234c0.49941,0.65907 -0.12127,3.35728 0.048,5.98216c0.09728,1.50864 0.64694,5.18696 1.49128,8.17769c0.61446,2.17653 1.35933,4.67092 2.46802,5.06043c4.59705,1.61509 11.03529,4.62948 9.17776,7.05731c-1.41154,1.84493 -8.84494,1.55331 -14.62252,-0.6596c-5.20029,-1.99179 -8.75162,-5.80691 -10.65631,-6.42799c-3.23121,-1.05364 -10.37147,0.7037 -13.68901,0.00157c-2.16168,-0.4575 -4.01991,-1.31376 -5.39834,-2.18339c-3.41626,-2.15527 -4.33504,-5.45581 -4.17797,-7.67521z" fill="#ffd5d5" stroke="#000000" stroke-width="1.5"/><path d="M254.99732,162.97204c0,0 1.62368,-1.02454 2.33123,-1.67972c0.64149,-0.59401 1.73532,-2.08584 1.73532,-2.08584c0,0 0.30227,2.4594 0.43402,3.71524c0.11911,1.13542 0.32235,3.49502 0.32235,3.49502c0,0 -2.11924,-0.71917 -2.99023,-1.34128c-0.69804,-0.49856 -1.83268,-2.10341 -1.83268,-2.10341z" fill="#fb95a9" stroke="none" stroke-width="0"/><path d="M274.43208,181.35177c0.19426,-0.34108 1.68068,-0.01784 2.93131,0.69446c1.25063,0.7123 2.51274,2.54497 2.31847,2.88605c-0.19426,0.34107 -1.43393,-1.23137 -2.68456,-1.94367c-1.25062,-0.7123 -2.75947,-1.29576 -2.5652,-1.63684z" fill="#fc9ea5" stroke="none" stroke-width="0"/></g><g data-paper-data="{&quot;index&quot;:null}"><path d="M231.77856,188.95306c1.93188,-6.56918 6.88378,-8.81714 11.69561,-7.40207c4.81184,1.41506 7.2656,7.24737 5.33372,13.81657c-1.93189,6.5692 -10.05047,12.89482 -13.65214,11.63576c-3.56602,-1.24659 -5.4551,-11.13817 -3.52322,-17.70737z" fill="#ee1536" stroke="#000000" stroke-width="1.5"/><path d="M234.00631,185.95145c0,0 1.72483,-3.0378 3.95491,-3.89732c0.74802,-0.2883 4.09082,-0.15042 6.71403,1.23112c1.78295,0.939 3.09148,2.91525 3.57843,3.92524c0.83874,1.73962 0.46468,3.73414 0.46468,3.73414c0,0 -1.6527,1.83029 -5.26591,2.05112c-1.90003,0.11613 -4.79871,-1.69179 -6.70365,-3.62928c-1.71759,-1.74693 -2.74248,-3.41501 -2.74248,-3.41501z" fill="#9a1652" stroke="none" stroke-width="0"/><path d="M237.51242,175.78607c-0.11791,-7.10709 1.18014,-11.00582 9.58213,-11.50382c4.91253,-0.29118 7.04843,5.22078 6.95485,7.64488c-0.3131,8.1103 -8.27499,15.98717 -8.27499,15.98717c0,0 2.13601,7.84585 -6.04896,9.63702c-4.00247,0.87588 -4.6925,-6.10481 -4.18361,-7.86837c0.92389,-3.20166 2.94082,-5.2173 2.94082,-5.2173c0,0 -0.91787,-5.52156 -0.97026,-8.6796z" fill="#ffd5d5" stroke="#000000" stroke-width="1.5"/><path d="M244.74213,176.46309c-1.04201,-0.54394 -1.35858,-1.49042 -1.77939,-2.41927c-0.50779,-1.12081 -1.06534,-3.99619 -1.06534,-3.99619c0,0 2.0152,1.2525 3.1381,1.76295c1.10502,0.50232 3.69455,1.10847 3.69455,1.10847c0,0 -1.3182,2.54633 -1.9815,3.101c-0.61645,0.5155 -0.96439,0.987 -2.0064,0.44306z" fill="#fb95a9" stroke="none" stroke-width="0"/><path d="M238.07035,203.87954c-0.64195,0.02783 1.40589,-1.18856 2.1814,-1.74658c0.86024,-0.61898 2.58897,-2.6321 2.66047,-2.26827c0.14459,0.73571 -1.23452,2.30401 -2.02051,2.86957c-0.85307,0.61383 -1.73161,1.09804 -2.82135,1.14529z" fill="#fc9ea5" stroke="none" stroke-width="0"/></g></g></g></svg>