<svg version="1.1" xmlns="http://www.w3.org/2000/svg" xmlns:xlink="http://www.w3.org/1999/xlink" width="95.86394" height="95.86394" viewBox="0,0,95.86394,95.86394"><g transform="translate(-192.06803,-132.06803)"><g data-paper-data="{&quot;isPaintingLayer&quot;:true}" fill-rule="nonzero" stroke-linejoin="miter" stroke-miterlimit="10" stroke-dasharray="" stroke-dashoffset="0" style="mix-blend-mode: normal"><g><g stroke="#000000" stroke-width="1"><path d="M254.3443,182.73524c0,-1.53387 0.86369,-4.99917 1.87556,-5.99764c0.99434,-0.98116 9.13742,4.98037 9.13742,5.99764c0,3.04115 -2.41339,5.09091 -5.45454,5.09091c-3.04115,0 -5.55844,-2.04976 -5.55844,-5.09091z" fill="#d90250" stroke-linecap="butt"/><path d="M264.50292,174.47549c0,0 -1.14583,3.18296 -0.17478,3.99391c1.50924,1.2604 5.88907,0.83726 5.88907,0.83726c0,0 -2.99536,1.85716 -3.46918,3.08046c-0.47852,1.23545 0.06381,4.29616 0.06381,4.29616c0,0 -2.42769,-4.05732 -4.38107,-3.99147c-0.88372,0.02979 -1.07348,2.01744 -1.07348,2.01744c0,0 -0.8481,-3.38831 -1.72263,-4.22562c-0.72495,-0.6941 -2.61226,-0.4497 -2.61226,-0.4497c0,0 -0.01778,-1.28272 -0.46809,-3.11848c-0.25303,-1.0315 -1.60984,-2.90749 -1.60984,-2.90749c0,0 3.58372,1.21425 5.2469,1.2956c1.50767,0.07374 4.31154,-0.82807 4.31154,-0.82807z" fill="#fdebf6" stroke-linecap="round"/></g><g stroke="#000000" stroke-linecap="round"><path d="M217.22465,198.89107c0,0 2.35489,-6.93923 2.66545,-8.13208c0.08761,-0.3365 0.8114,-0.59868 1.6187,-0.53784c0.73772,0.0556 2.39749,0.22758 4.53715,0.38695c9.71077,0.72329 29.7761,2.20505 29.7761,2.20505l-0.23653,15.16883z" fill="#4fa6ed" stroke-width="0"/><path d="M255.82205,192.81315l-0.23653,15.16883l-13.5994,-3.17743c-0.26487,-1.39792 -0.47007,-6.75002 -1.20692,-7.1849c-0.49515,-0.86653 -3.05372,-0.1427 -4.05988,0.10555c-2.23072,0.55039 -6.69201,1.45215 -8.14126,3.81854l-3.88452,-0.9076c1.16177,-0.89254 2.14088,-2.02634 2.77165,-3.11327c0.58228,-1.00338 1.88124,-3.31432 1.24133,-4.27418l-2.09525,-2.59855c9.92162,0.73703 29.21077,2.163 29.21077,2.163z" fill="#2e67e5" stroke-width="0"/><path d="M217.22465,198.89107c0,0 2.35489,-6.93923 2.66545,-8.13208c0.08761,-0.3365 0.8114,-0.59868 1.6187,-0.53784c0.73772,0.0556 2.39749,0.22758 4.53715,0.38695c9.71077,0.72329 29.7761,2.20505 29.7761,2.20505l-0.23653,15.16883z" fill="none" stroke-width="1"/></g><path d="M229.40924,185.38459l7.09367,-4.83117l-0.98701,-5.81818c0,0 6.76544,-2.59679 8.81376,-3.27347c0.98881,-0.32666 2.82261,-0.57069 2.82261,-0.57069c0,0 4.65328,1.37707 7.9239,4.74913c2.43302,2.50849 3.68884,6.9441 4.21233,8.80674c0.25094,0.89288 -0.58913,3.18066 -1.03263,4.99336c-0.35143,1.43636 -0.75079,2.40044 -1.38416,3.36214c-1.46874,2.23015 -3.4912,2.03667 -3.4912,2.03667c0,0 -1.43077,0.13353 -2.04456,-0.037c-0.79784,-0.22166 -2.33679,-1.18029 -2.33679,-1.18029c0,0 -13.09416,-1.26786 -16.02545,-2.39815c-3.35867,-1.29508 -3.56446,-5.83911 -3.56446,-5.83911z" fill="#ff292e" stroke="#000000" stroke-width="0" stroke-linecap="round"/><path d="M259.2885,184.44695c0.25094,0.89288 -0.58913,3.18066 -1.03263,4.99336c-0.35143,1.43636 -0.75079,2.40044 -1.38416,3.36214c-1.46874,2.23015 -3.4912,2.03667 -3.4912,2.03667c0,0 -1.43077,0.13353 -2.04456,-0.037c-0.79784,-0.22166 -2.33679,-1.18029 -2.33679,-1.18029c0,0 -3.76343,-0.34976 -7.7617,-0.84564c1.69769,-0.98854 3.8277,-2.90617 4.59305,-3.64811c3.86602,-3.74775 2.40312,-6.37984 2.8351,-7.4144c0.05251,-0.12577 0.03472,-0.2791 0.16875,-0.35507c0.21452,-0.12158 1.65186,2.50311 1.60027,2.85476c-0.32287,2.20085 -2.3182,5.41094 0.17757,7.20979c0.12003,0.08651 2.00327,1.13129 2.38144,0.69276c0.18027,-0.20904 2.25296,-1.29996 2.66231,-2.45199c1.20095,-3.37989 2.05768,-9.2618 1.89634,-10.55705c1.14812,2.05457 1.41266,4.18878 1.73622,5.34005z" fill="#d90251" stroke="#000000" stroke-width="0" stroke-linecap="butt"/><g><path d="M238.12181,210.93086c0,0 -2.93106,1.55187 -3.77437,1.46377c-0.63812,-0.06667 -0.92129,-1.1585 -1.45627,-1.9701c-0.32234,-0.48902 -0.55342,-0.58603 -0.61147,-0.15933c-0.12733,0.93581 -1.00351,2.52782 -1.79972,3.15301c-1.20887,0.94921 -6.97012,0.31073 -7.286,0.45007c-3.44544,1.5199 -7.3625,2.97426 -10.62565,3.47012c-1.0431,0.15851 -2.46458,-1.5188 -2.46458,-1.5188c0,0 -3.66397,1.40371 -5.85437,-1.63326c-0.80668,-1.11845 -0.49078,-3.61198 -0.55396,-4.65492c-0.00803,-0.13245 -0.09419,-0.36737 -0.00802,-0.5478c0.10519,-0.22028 2.18212,-2.03821 2.95141,-2.10809c4.44933,-0.40417 29.66226,-0.29206 29.66226,-0.29206c0,0 1.34573,0.71151 1.55548,1.42748c0.25653,0.87565 0.26524,2.91992 0.26524,2.91992z" fill="#f38285" stroke="#000000" stroke-width="0" stroke-linecap="round"/><path d="M234.34743,212.39465c-0.63813,-0.06667 -0.9213,-1.1585 -1.45627,-1.9701c-0.32234,-0.48902 -0.55342,-0.58603 -0.61147,-0.15933c-0.12733,0.93581 -1.00351,2.52782 -1.79972,3.15301c-1.20887,0.94921 -6.97011,0.31072 -7.28599,0.45007c-1.99601,0.88051 -4.1503,1.73901 -6.24404,2.40191c0.28435,-0.92786 0.43738,-1.91314 0.43738,-2.93416c0,-2.58013 -0.42892,-4.93203 -2.03333,-6.70583c8.90797,-0.10028 20.94709,-0.04674 20.94709,-0.04674c0,0 1.34573,0.71151 1.55548,1.42748c0.25653,0.87565 0.26524,2.91992 0.26524,2.91992c0,0 -2.93106,1.55188 -3.77437,1.46377z" fill="#e96698" stroke="#000000" stroke-width="0" stroke-linecap="round"/><path d="M238.12181,210.93086c0,0 -2.93106,1.55187 -3.77437,1.46377c-0.63812,-0.06667 -0.92129,-1.1585 -1.45627,-1.9701c-0.32234,-0.48902 -0.55342,-0.58603 -0.61147,-0.15933c-0.12733,0.93581 -1.00351,2.52782 -1.79972,3.15301c-1.20887,0.94921 -6.97012,0.31073 -7.286,0.45007c-3.44544,1.5199 -7.3625,2.97426 -10.62565,3.47012c-1.0431,0.15851 -2.46458,-1.5188 -2.46458,-1.5188c0,0 -3.66397,1.40371 -5.85437,-1.63326c-0.80668,-1.11845 -0.49078,-3.61198 -0.55396,-4.65492c-0.00803,-0.13245 -0.09419,-0.36737 -0.00802,-0.5478c0.10519,-0.22028 2.18212,-2.03821 2.95141,-2.10809c4.44933,-0.40417 29.66226,-0.29206 29.66226,-0.29206c0,0 1.34573,0.71151 1.55548,1.42748c0.25653,0.87565 0.26524,2.91992 0.26524,2.91992z" fill="none" stroke="#000000" stroke-width="1" stroke-linecap="round"/><path d="M217.01761,200.31569l0.61539,-3.79487l9.12821,-2.25641l1.97306,4.29813c0,0 1.2416,-1.35972 2.96496,-2.00159c1.32804,-0.49462 3.15044,0.97866 3.62452,1.20893c1.27221,0.61793 2.20669,1.7253 2.20669,1.7253l0.2723,7.17949c0,0 -1.99578,1.78611 -3.90913,2.20274c-2.65957,0.57912 -10.56023,0.94795 -10.56023,0.94795c0,0 -3.16113,1.93389 -6.59788,2.77263c-3.10767,0.75842 -6.98247,0.47178 -8.51769,-0.24516c-0.45383,-0.21193 -1.41591,-1.18658 -2.00259,-2.44496c-0.76821,-1.64774 -0.46587,-3.78196 0.69282,-5.32731c1.05145,-1.40232 3.81156,-1.28908 5.78211,-1.97618c2.31042,-0.80561 4.32748,-2.28868 4.32748,-2.28868z" fill="#f27056" stroke="#000000" stroke-width="0" stroke-linecap="round"/><path d="M217.01761,200.31569l0.61539,-3.79487l9.12821,-2.25641l0.52515,1.14398c-0.21229,0.94728 -0.43449,3.45915 -0.43449,3.77726c0,0.69036 0.55965,1.25 1.25,1.25c0.65287,0 0.81891,-1.21481 0.82142,-1.25c0.02215,-0.31008 0.58335,-0.83859 0.74433,-1.45979c0.51823,-0.40309 1.22172,-0.86327 2.03161,-1.16491c1.32804,-0.49462 3.15044,0.97866 3.62452,1.20893c0.46722,0.22694 0.88889,0.51988 1.23545,0.79975c-1.55191,0.97604 -3.41977,3.23627 -4.89524,3.92193c-1.74905,0.8128 -3.93074,0.39984 -5.75507,1.09979c-1.61091,0.61807 -6.99648,3.833 -9.60158,6.35695c-0.83742,0.34883 -1.99263,1.13999 -2.07742,2.08171c-0.01901,0.0793 -0.02907,0.1551 -0.02963,0.22707c-0.00084,0.10856 0.0126,0.21126 0.03835,0.30889c0.01747,0.14173 0.04679,0.27978 0.08695,0.41314c-2.47819,0.20837 -4.95384,-0.08741 -6.10775,-0.62628c-0.45383,-0.21193 -1.41591,-1.18658 -2.00259,-2.44496c-0.76821,-1.64774 -0.46587,-3.78196 0.69282,-5.32731c1.05145,-1.40232 3.81156,-1.28908 5.78211,-1.97618c2.31042,-0.80561 4.32748,-2.28868 4.32748,-2.28868z" fill="#f79d58" stroke="#000000" stroke-width="0" stroke-linecap="round"/><path d="M228.53043,199.36423c0,0 2.75362,-2.96429 4.03571,-2.96429c1.28209,0 3.96429,2.25 3.96429,2.25c0,0 -1.96791,2.60714 -3.25,2.60714c-1.15461,0 -4.75,-1.89285 -4.75,-1.89285z" fill="#000000" stroke="none" stroke-width="0.5" stroke-linecap="butt"/><path d="M217.01761,200.31569l0.61538,-3.79487l9.12821,-2.25641l1.97305,4.29812c0,0 1.24161,-1.35972 2.96497,-2.00158c1.32803,-0.49462 3.15044,0.97866 3.62452,1.20893c1.27221,0.61793 2.20669,1.7253 2.20669,1.7253l0.27229,7.17949c0,0 -1.99578,1.78612 -3.90912,2.20275c-2.65957,0.57912 -10.56024,0.94795 -10.56024,0.94795c0,0 -3.16113,1.93389 -6.59788,2.77262c-3.10767,0.75842 -6.98247,0.47178 -8.51769,-0.24515c-0.45383,-0.21194 -1.4159,-1.18658 -2.00259,-2.44496c-0.76821,-1.64774 -0.46587,-3.78196 0.69282,-5.32731c1.05144,-1.40232 3.81156,-1.28908 5.7821,-1.97618c2.31042,-0.8056 4.32748,-2.28868 4.32748,-2.28868z" fill="none" stroke="#000000" stroke-width="1" stroke-linecap="round"/><path d="M224.45976,201.30196c-0.12621,0.87821 -2.11575,1.35722 -3.88829,1.61292c0.68482,0.40756 1.18157,0.74011 1.18157,0.95413c0,0.66506 -2.75214,0.83807 -5.29643,0.8283c0.96959,1.23472 1.76854,2.61519 0.21631,2.61519c-0.54558,0 -1.66896,-1.28019 -2.5092,-2.66695c-1.06493,-0.04195 -1.99226,-0.10183 -2.5597,-0.15111c-0.06617,0.0191 -0.1361,0.02934 -0.20842,0.02934c-0.1356,0 -0.26279,-0.03599 -0.37256,-0.09893c-0.22552,-0.12933 -0.10333,-0.37246 -0.10333,-0.65107c0,-0.3862 0.2919,-0.70422 0.66712,-0.74547c0.52304,-0.36552 1.45344,-0.47106 2.16935,-0.45146c-0.1632,-0.60498 -0.13687,-1.08001 0.1936,-1.26884c0.42543,-0.2431 1.20003,-0.2756 2.13842,-0.24049c-0.74581,-0.74802 -1.49359,-1.73662 -0.86851,-2.33205c0.33684,-0.32086 1.59157,-0.68368 3.06231,-1.00616c0.29091,-0.16426 0.76805,-0.25939 1.33229,-0.2713c2.1021,-0.39899 4.2231,-0.67739 4.56763,-0.6247c0.39495,0.06039 0.75,0.16659 0.75,0.75c0,0.60096 -0.51993,0.99518 -1.28005,1.25237c0.60783,0.59755 0.96001,1.40787 0.8079,2.4663zM222.543,200.82155c0.34602,-0.14426 -0.4831,-0.59613 -0.59642,-0.95347c-0.07844,-0.24738 -0.23301,-0.46348 -0.42963,-0.64314c-1.66201,0.14292 -3.37472,0.04453 -3.71032,0.06073c-0.23669,0.01143 -0.92691,0.23863 -0.92525,0.30523c0.01305,0.52411 0.51392,1.069 1.19848,1.59177c1.59584,0.09293 3.28677,0.12932 4.46314,-0.36112zM216.17626,202.90573c-0.40419,-0.19235 -0.76074,-0.37098 -0.72804,-0.12847c0.24306,0.04191 0.48653,0.08618 0.72804,0.12847z" fill="#efdee9" stroke="none" stroke-width="0.5" stroke-linecap="butt"/><path d="M224.45977,201.30196c-0.12622,0.87821 -2.11575,1.35722 -3.88829,1.61292c0.68482,0.40756 1.18156,0.7401 1.18156,0.95413c0,0.66506 -2.75214,0.83808 -5.29643,0.8283c0.96959,1.23471 1.76854,2.61519 0.2163,2.61519c-0.54559,0 -1.66895,-1.28018 -2.5092,-2.66695c-1.06493,-0.04195 -1.99226,-0.10183 -2.5597,-0.15112c-0.06617,0.0191 -0.13609,0.02934 -0.20841,0.02934c-0.1356,0 -0.2628,-0.03598 -0.37256,-0.09893c-0.22552,-0.12932 -0.10333,-0.37246 -0.10333,-0.65107c0,-0.3862 0.2919,-0.70423 0.66711,-0.74547c0.52305,-0.36552 1.45345,-0.47106 2.16935,-0.45146c-0.1632,-0.60498 -0.13687,-1.08 0.1936,-1.26884c0.42543,-0.2431 1.20003,-0.2756 2.13842,-0.24049c-0.74581,-0.74802 -1.49359,-1.73663 -0.86851,-2.33205c0.33684,-0.32086 1.59158,-0.68367 3.06231,-1.00616c0.29091,-0.16426 0.76805,-0.25939 1.33228,-0.2713c2.10209,-0.39898 4.2231,-0.67739 4.56763,-0.62471c0.39496,0.0604 0.75,0.16659 0.75,0.75c0,0.60096 -0.51993,0.99518 -1.28004,1.25237c0.60783,0.59755 0.96001,1.40787 0.8079,2.4663zM222.54301,200.82155c0.34602,-0.14425 -0.48311,-0.59613 -0.59642,-0.95348c-0.07845,-0.24737 -0.233,-0.46348 -0.42963,-0.64313c-1.66201,0.14292 -3.37472,0.04452 -3.71032,0.06072c-0.23669,0.01142 -0.92692,0.23863 -0.92525,0.30523c0.01304,0.52411 0.51392,1.069 1.19848,1.59177c1.59584,0.09294 3.28677,0.12932 4.46315,-0.36112zM216.17627,202.90573c-0.40419,-0.19234 -0.76074,-0.37098 -0.72804,-0.12847c0.24307,0.04191 0.48654,0.08618 0.72804,0.12847z" fill="none" stroke="#000000" stroke-width="1" stroke-linecap="butt"/></g><g><g stroke="#000000"><path d="M239.37773,205.88039c0,0 1.5573,-1.68619 11.89481,-1.21113c10.08872,0.46363 16.62467,2.25009 16.62467,2.25009l-0.65211,6.7013c0,0 -1.37853,1.51311 -2.1519,2.16535c-0.63742,0.53758 -2.15979,1.47102 -2.15979,1.47102l-1.24676,-0.98702l-0.62337,2.02598c0,0 -4.02908,1.95244 -6.2997,2.31968c-2.98677,0.48307 -6.94706,0.32967 -6.94706,0.32967l-1.35065,-1.55844l-0.98701,1.4026c0,0 -7.0457,-1.28854 -8.11763,-6.01985c-1.06614,-4.70571 2.0165,-8.88924 2.0165,-8.88924z" fill="#f38285" stroke-width="0" stroke-linecap="round"/><path d="M267.89721,206.91935l-0.65211,6.7013c0,0 -1.37853,1.51311 -2.1519,2.16535c-0.63742,0.53758 -2.15979,1.47102 -2.15979,1.47102l-1.24676,-0.98702l-0.62337,2.02598c0,0 -4.02908,1.95244 -6.2997,2.31968c-1.14498,0.18518 -2.43301,0.27684 -3.58616,0.31945c4.47623,-2.95709 9.3564,-4.33279 10.00927,-10.57623c0.1423,-1.36082 0.32603,-3.34162 -0.29529,-4.78476c4.42361,0.63946 7.00581,1.34525 7.00581,1.34525z" fill="#e96698" stroke-width="0" stroke-linecap="butt"/><path d="M239.37773,205.88039c0,0 1.5573,-1.68619 11.89481,-1.21113c10.08872,0.46363 16.62467,2.25009 16.62467,2.25009l-0.65211,6.7013c0,0 -1.37853,1.51311 -2.1519,2.16535c-0.63742,0.53758 -2.15979,1.47102 -2.15979,1.47102l-1.24676,-0.98702l-0.62337,2.02598c0,0 -4.02908,1.95244 -6.2997,2.31968c-2.98677,0.48307 -6.94706,0.32967 -6.94706,0.32967l-1.35065,-1.55844l-0.98701,1.4026c0,0 -7.0457,-1.28854 -8.11763,-6.01985c-1.06614,-4.70571 2.0165,-8.88924 2.0165,-8.88924z" fill="none" stroke-width="1" stroke-linecap="round"/></g><path d="M242.12309,201.59832c0,0 -0.16113,-1.39132 0.83177,-2.4497c0.83775,-0.89299 2.76154,-1.45452 3.62241,-1.69853c2.38877,-0.67707 5.54691,-0.99258 7.61229,-0.93073c1.04307,0.03123 1.7958,1.00507 2.22024,1.74876c0.26481,0.464 1.47051,-1.05415 2.4616,-1.18214c0.51031,-0.06591 1.241,1.39616 1.29032,1.60632c0.27224,1.16 -0.46485,3.6929 -0.46485,3.6929c0,0 0.28405,0.68997 1.59262,1.27423c1.03935,0.46406 2.49584,0.7404 3.24225,1.41464c1.50659,1.3609 1.82454,4.21388 1.60024,5.17225c-0.24267,1.03685 -4.51042,4.09279 -9.43633,5.69858c-4.94282,1.6113 -11.0967,1.76786 -14.05848,0.12839c-4.16169,-2.30368 -1.45053,-5.63074 -3.18923,-8.31564c-1.08094,-1.66919 -1.26677,-3.6801 -1.4552,-6.10256c-0.17057,-2.19284 1.96643,-1.49939 1.96643,-1.49939l2.16393,1.44263z" fill="#000000" stroke="#000000" stroke-width="0" stroke-linecap="round"/><path d="M242.95486,199.14864c0.83775,-0.893 2.76153,-1.45453 3.62241,-1.69853c2.38877,-0.67707 5.54691,-0.99258 7.61229,-0.93073c1.04307,0.03123 1.7958,1.00507 2.22024,1.74876c0.12484,0.21875 0.32768,0.06251 0.74971,-0.2465c0.24134,1.38489 1.33505,3.38885 1.76753,3.8773c0.27689,0.31272 0.59618,0.53046 0.94266,0.66744c0.25423,0.24382 0.52421,0.6932 1.4198,1.09308c1.03934,0.46406 2.49583,0.7404 3.24225,1.41464c1.50659,1.3609 1.82454,4.21388 1.60024,5.17225c-0.24267,1.03686 -4.51042,4.0928 -9.43633,5.69858c-4.94281,1.61129 -11.09669,1.76786 -14.05848,0.12839c-4.1617,-2.30368 -1.45053,-5.63074 -3.18923,-8.31564c-0.39041,-0.60287 -0.73557,-1.25031 -1.02611,-1.94562c1.44896,-0.35535 3.13988,-1.1564 3.76159,-1.91535c1.02413,-1.2502 1.01772,-2.73538 0.20834,-3.8863c0.12523,-0.28958 0.30525,-0.5869 0.56311,-0.86176z" fill="#f27056" stroke="#000000" stroke-width="0" stroke-linecap="round"/><path d="M242.95486,199.14864c0.83775,-0.893 2.76153,-1.45453 3.62241,-1.69853c1.93411,-0.5482 4.3726,-0.85938 6.32706,-0.92514c-0.81693,1.80489 -0.58114,5.20341 0.26536,7.30698c0.42385,1.05329 2.30149,1.46263 4.23212,2.2612c1.73506,0.71768 3.29154,1.87585 3.25475,1.96104c-2.24437,5.19674 -10.88583,4.35496 -13.66634,7.14551c-0.54778,0.44603 -0.90301,1.11946 -0.92179,1.8764c-1.35367,-0.17705 -2.53773,-0.50819 -3.43126,-1.00279c-4.1617,-2.30368 -1.45053,-5.63074 -3.18923,-8.31564c-0.39041,-0.60287 -0.73557,-1.25031 -1.02611,-1.94562c1.44896,-0.35535 3.13988,-1.1564 3.76159,-1.91535c1.02413,-1.2502 1.01772,-2.73538 0.20834,-3.8863c0.12523,-0.28958 0.30525,-0.5869 0.56311,-0.86176z" fill="#f79d58" stroke="#000000" stroke-width="0" stroke-linecap="butt"/><path d="M242.12309,201.59832c0,0 -0.16113,-1.39132 0.83177,-2.4497c0.83775,-0.89299 2.76154,-1.45452 3.62241,-1.69853c2.38877,-0.67707 5.54691,-0.99258 7.61229,-0.93073c1.04307,0.03123 1.7958,1.00507 2.22024,1.74876c0.26481,0.464 1.47051,-1.05415 2.4616,-1.18214c0.51031,-0.06591 1.241,1.39616 1.29032,1.60632c0.27224,1.16 -0.46485,3.6929 -0.46485,3.6929c0,0 0.28405,0.68997 1.59262,1.27423c1.03935,0.46406 2.49584,0.7404 3.24225,1.41464c1.50659,1.3609 1.82454,4.21388 1.60024,5.17225c-0.24267,1.03685 -4.51042,4.09279 -9.43633,5.69858c-4.94282,1.6113 -11.0967,1.76786 -14.05848,0.12839c-4.16169,-2.30368 -1.45053,-5.63074 -3.18923,-8.31564c-1.08094,-1.66919 -1.26677,-3.6801 -1.4552,-6.10256c-0.17057,-2.19284 1.96643,-1.49939 1.96643,-1.49939l2.16393,1.44263z" fill="none" stroke="#000000" stroke-width="1" stroke-linecap="round"/><g stroke-linecap="butt"><path d="M253.63574,199.88265c0.33541,0.67082 -0.33541,1.00623 -0.33541,1.00623l-0.28805,0.14305c0.5596,0.02759 1.12093,0.04773 1.68439,0.04974l0.74487,0.13696c0.11233,0.00088 0.23865,0.03169 0.37833,0.10851c0.01207,0.00664 0.0238,0.01338 0.0352,0.02022c0.10958,0.0623 0.22778,0.1599 0.29716,0.30922c0.07127,0.14842 0.07158,0.30171 0.05011,0.42592c-0.00196,0.01314 -0.0042,0.02648 -0.00674,0.04002c-0.03069,0.16366 -0.09089,0.28417 -0.166,0.37263c-0.53966,0.9156 -1.72555,1.59747 -2.42414,2.14471c0.44693,0.02105 0.89431,0.04362 1.34243,0.06754c0.13178,-0.02352 0.28547,-0.00723 0.4564,0.08619c0.12846,0.05748 0.26734,0.15699 0.34667,0.3288c0.08984,0.16654 0.08613,0.33736 0.05503,0.47461c-0.03493,0.24208 -0.15084,0.38946 -0.28308,0.47906l-0.30906,0.36081c-0.31457,0.16901 -0.62234,0.3469 -0.92498,0.53136c0.77796,-0.05489 1.54567,-0.12761 2.29457,-0.22164l0.71423,-0.10215c0,0 0.74247,-0.10607 0.84853,0.63639c0.10607,0.74246 -0.6364,0.84852 -0.6364,0.84852l-0.74031,0.10564c-1.57037,0.19547 -3.22415,0.30171 -4.88359,0.34753c-1.49498,1.05791 -3.52296,2.12269 -5.22328,2.86811c0,0 -0.68712,0.30062 -0.98773,-0.3865c-0.30061,-0.68712 0.93472,-0.98773 0.93472,-0.98773c0.93212,-0.4069 1.79954,-0.91534 2.64092,-1.46765c-0.89839,-0.00556 -1.78614,-0.02461 -2.65055,-0.05242c-0.14683,0.02838 -0.31942,0.01288 -0.49728,-0.10792c-0.12738,-0.06797 -0.25404,-0.18034 -0.3171,-0.36598c-0.08077,-0.17865 -0.06503,-0.34724 -0.01845,-0.4839c0.04904,-0.21714 0.17105,-0.34798 0.30289,-0.42678l0.07122,-0.06763c0.60063,-0.45947 1.24815,-0.81898 1.91169,-1.13797c-0.58706,-0.00733 -1.17552,-0.01108 -1.7661,-0.01108h-0.31777c-0.15437,0.02898 -0.33995,0.01536 -0.51934,-0.11905c-0.12448,-0.07349 -0.242,-0.19234 -0.29658,-0.38456c-0.07493,-0.18524 -0.05513,-0.35121 -0.00199,-0.48564c0.05899,-0.21587 0.19676,-0.34051 0.33617,-0.41246c0.92758,-0.72615 2.31915,-1.47722 3.17532,-2.20645c-1.03601,0.01313 -2.06888,0.10702 -3.10023,0.36499c0,0 -0.72761,0.1819 -0.90951,-0.5457c-0.1819,-0.7276 0.5457,-0.90951 0.5457,-0.90951c1.75599,-0.43876 3.51009,-0.44594 5.27539,-0.36457c0.53455,-0.39376 1.09593,-0.76931 1.70324,-1.11745l0.45228,-0.22743c0,0 0.67082,-0.33541 1.00623,0.33541zM251.16384,204.54066c0.92134,-0.48705 2.32388,-1.08314 3.01841,-1.96694c-1.0901,-0.01292 -2.17375,-0.09694 -3.25275,-0.15936c-0.84801,0.65233 -2.17847,1.34934 -2.99059,2.05101c1.07822,0.01331 2.15184,0.03912 3.22493,0.07529zM248.96556,207.10743c0.81395,0.00817 1.63768,0.00551 2.4615,-0.01196c0.4745,-0.33625 0.95159,-0.6703 1.4386,-0.99122c-0.54518,-0.02411 -1.08985,-0.04547 -1.63462,-0.06395c-0.74611,0.35444 -1.51184,0.68189 -2.26548,1.06713z" fill="#efdee9" stroke="none" stroke-width="0.5"/><path d="M253.63574,199.88265c0.33541,0.67082 -0.33541,1.00623 -0.33541,1.00623l-0.28805,0.14305c0.5596,0.02759 1.12093,0.04773 1.68439,0.04974l0.74487,0.13696c0.11233,0.00088 0.23865,0.03169 0.37833,0.10851c0.01207,0.00664 0.0238,0.01338 0.0352,0.02022c0.10958,0.0623 0.22778,0.1599 0.29716,0.30922c0.07127,0.14842 0.07158,0.30171 0.05011,0.42592c-0.00196,0.01314 -0.0042,0.02648 -0.00674,0.04002c-0.03069,0.16366 -0.09089,0.28417 -0.166,0.37263c-0.53966,0.9156 -1.72555,1.59747 -2.42414,2.14471c0.44693,0.02105 0.89431,0.04362 1.34243,0.06754c0.13178,-0.02352 0.28547,-0.00723 0.4564,0.08619c0.12846,0.05748 0.26734,0.15699 0.34667,0.3288c0.08984,0.16654 0.08613,0.33736 0.05503,0.47461c-0.03493,0.24208 -0.15084,0.38946 -0.28308,0.47906l-0.30906,0.36081c-0.31457,0.16901 -0.62234,0.3469 -0.92498,0.53136c0.77796,-0.05489 1.54567,-0.12761 2.29457,-0.22164l0.71423,-0.10215c0,0 0.74247,-0.10607 0.84853,0.63639c0.10607,0.74246 -0.6364,0.84852 -0.6364,0.84852l-0.74031,0.10564c-1.57037,0.19547 -3.22415,0.30171 -4.88359,0.34753c-1.49498,1.05791 -3.52296,2.12269 -5.22328,2.86811c0,0 -0.68712,0.30062 -0.98773,-0.3865c-0.30061,-0.68712 0.93472,-0.98773 0.93472,-0.98773c0.93212,-0.4069 1.79954,-0.91534 2.64092,-1.46765c-0.89839,-0.00556 -1.78614,-0.02461 -2.65055,-0.05242c-0.14683,0.02838 -0.31942,0.01288 -0.49728,-0.10792c-0.12738,-0.06797 -0.25404,-0.18034 -0.3171,-0.36598c-0.08077,-0.17865 -0.06503,-0.34724 -0.01845,-0.4839c0.04904,-0.21714 0.17105,-0.34798 0.30289,-0.42678l0.07122,-0.06763c0.60063,-0.45947 1.24815,-0.81898 1.91169,-1.13797c-0.58706,-0.00733 -1.17552,-0.01108 -1.7661,-0.01108h-0.31777c-0.15437,0.02898 -0.33995,0.01536 -0.51934,-0.11905c-0.12448,-0.07349 -0.242,-0.19234 -0.29658,-0.38456c-0.07493,-0.18524 -0.05513,-0.35121 -0.00199,-0.48564c0.05899,-0.21587 0.19676,-0.34051 0.33617,-0.41246c0.92758,-0.72615 2.31915,-1.47722 3.17532,-2.20645c-1.03601,0.01313 -2.06888,0.10702 -3.10023,0.36499c0,0 -0.72761,0.1819 -0.90951,-0.5457c-0.1819,-0.7276 0.5457,-0.90951 0.5457,-0.90951c1.75599,-0.43876 3.51009,-0.44594 5.27539,-0.36457c0.53455,-0.39376 1.09593,-0.76931 1.70324,-1.11745l0.45228,-0.22743c0,0 0.67082,-0.33541 1.00623,0.33541zM251.16384,204.54066c0.92134,-0.48705 2.32388,-1.08314 3.01841,-1.96694c-1.0901,-0.01292 -2.17375,-0.09694 -3.25275,-0.15936c-0.84801,0.65233 -2.17847,1.34934 -2.99059,2.05101c1.07822,0.01331 2.15184,0.03912 3.22493,0.07529zM248.96556,207.10743c0.81395,0.00817 1.63768,0.00551 2.4615,-0.01196c0.4745,-0.33625 0.95159,-0.6703 1.4386,-0.99122c-0.54518,-0.02411 -1.08985,-0.04547 -1.63462,-0.06395c-0.74611,0.35444 -1.51184,0.68189 -2.26548,1.06713z" fill="none" stroke="#000000" stroke-width="1"/></g></g><path d="M229.40924,185.38459l7.09367,-4.83117l-0.98701,-5.81818c0,0 6.76544,-2.59679 8.81376,-3.27347c0.98881,-0.32666 2.82261,-0.57069 2.82261,-0.57069c0,0 4.65328,1.37707 7.9239,4.74913c2.43302,2.50849 3.68884,6.9441 4.21233,8.80674c0.25094,0.89288 -0.58913,3.18066 -1.03263,4.99336c-0.35143,1.43636 -0.75079,2.40044 -1.38416,3.36214c-1.46874,2.23015 -3.4912,2.03667 -3.4912,2.03667c0,0 -1.43077,0.13353 -2.04456,-0.037c-0.79784,-0.22166 -2.33679,-1.18029 -2.33679,-1.18029c0,0 -13.09416,-1.26786 -16.02545,-2.39815c-3.35867,-1.29508 -3.56446,-5.83911 -3.56446,-5.83911z" fill="none" stroke="#000000" stroke-width="1" stroke-linecap="round"/><path d="M257.29098,192.50146l1.36502,-4.36363l2.49351,2.18182l-2.67809,3.01299z" fill="#feecf7" stroke="#000000" stroke-width="1" stroke-linecap="round"/><path d="M235.31695,192.08589c0,0 0.50365,-4.51424 0.55168,-5.45892c0.01684,-0.33119 0.5384,-0.94644 0.96912,-1.18174c0.96315,-0.52617 4.67538,-2.50219 4.67538,-2.50219l0.34042,-5.55845" fill="none" stroke="#000000" stroke-width="1" stroke-linecap="round"/><path d="M248.91849,180.76121c0,0 0.84281,2.20529 1.21165,2.79003c0.16912,0.26812 0.30243,0.80057 0.22711,1.03908c-0.28452,0.90098 -2.03893,6.4566 -2.03893,6.4566" fill="none" stroke="#000000" stroke-width="1" stroke-linecap="round"/><path d="M233.35728,187.56639l2.4935,3.37662l2.96104,-1.4026l3.06494,2.28571l3.58441,-3.06493l1.81818,2.02598l1.4026,-1.76623l0.3349,4.10389l-2.07792,2.02598l-3.06493,-0.88312l-2.28572,2.49351l-3.37662,-2.5974l-4,2.07792l-2.7013,-2.38961l-2.23377,0.72727c0,0 -0.46752,-2.11276 -1.38133,-2.74917c-1.01494,-0.70684 -3.88863,-1.30277 -3.88863,-1.30277c0,0 1.39404,-1.41642 1.44838,-2.2237c0.06497,-0.96521 -1.08474,-3.1789 -1.08474,-3.1789l3.37662,0.31169l1.61039,-1.1948l0.88312,4z" fill="#feecf7" stroke="#000000" stroke-width="1" stroke-linecap="round"/><g stroke="#000000" stroke-width="1" stroke-linecap="round"><path d="M233.05997,181.69628l-0.08953,-6.96104l13.66234,-1.76623l3.06493,-3.74026l3.79221,2.85715l6.07792,-2.59741l-0.25974,8.31169l-3.06494,-0.41558l-3.16883,2.44156l-2.90909,-1.81818l-3.91048,3.58441l-0.81679,-2.5974l-3.54684,2.90909l-2.06355,-2.23377l-2.04034,2.07792l-1.95966,-1.76623z" fill="#feecf7"/><path d="M246.42499,173.38458l-0.77922,0.93507" fill="none"/></g><g stroke="#000000" stroke-linecap="round"><path d="M247.25063,195.1508l1.45455,-1.97402c0,0 1.7157,1.92411 4.31329,1.83733c3.55994,-0.11893 4.63614,-2.5646 4.63614,-2.5646c0,0 2.24064,2.35673 1.72783,3.67003c-0.3863,0.98933 -4.16933,6.92418 -6.43334,7.04926c-2.10408,0.02195 -5.28289,-5.99201 -5.28289,-5.99201z" fill="#4ea5eb" stroke-width="0"/><path d="M248.70517,193.1768c0,0 1.7157,1.92411 4.31329,1.83733c3.55994,-0.11893 4.63614,-2.5646 4.63614,-2.5646c0,0 2.24064,2.35672 1.72783,3.67003c-0.34614,0.88644 -3.47326,5.74323 -5.6915,6.83382c0.14606,-0.60192 0.94199,-5.31229 0.94199,-5.31229c0,0 -3.3163,-1.57255 -4.5584,-2.44406c-0.53925,-0.37836 -0.96529,-1.19763 -1.41687,-1.95575z" fill="#2e67e5" stroke-width="0"/><path d="M247.25062,195.15082l1.45455,-1.97402c0,0 1.7157,1.92411 4.31329,1.83733c3.55994,-0.11893 4.63614,-2.5646 4.63614,-2.5646c0,0 2.24064,2.35672 1.72783,3.67003c-0.38631,0.98933 -4.16933,6.92418 -6.43334,7.04926c-2.10408,0.02195 -5.28288,-5.99201 -5.28288,-5.99201" fill="none" stroke-width="1"/></g></g><path d="M192.06803,227.93197v-95.86394h95.86394v95.86394z" fill="none" stroke="none" stroke-width="0" stroke-linecap="butt"/><g stroke="#000000"><g stroke-linecap="butt"><path d="M269.02895,167.96951l0.50463,-2.28747c0,0 9.04396,-1.17916 11.11664,-0.21523c1.45506,0.6767 1.5948,4.937 -0.99923,5.55553c-3.45449,0.82369 -10.62204,-3.05284 -10.62204,-3.05284z" fill="#0066cd" stroke-width="0"/><path d="M269.02896,167.96951l0.1791,-0.81185c0,0 2.05753,0.12127 4.09998,0.42787c1.5786,0.23698 2.95965,0.63462 4.55524,0.85978c1.89769,0.26778 3.72089,0.3818 3.70064,0.46484c-0.2401,0.98526 -0.84473,1.85749 -1.91292,2.11221c-3.45449,0.8237 -10.62205,-3.05284 -10.62205,-3.05284z" fill="#061483" stroke-width="0"/><path d="M269.02896,167.96951l0.50463,-2.28747c0,0 9.04396,-1.17915 11.11664,-0.21522c1.45507,0.6767 1.5948,4.937 -0.99923,5.55553c-3.45449,0.8237 -10.62205,-3.05284 -10.62205,-3.05284z" fill="none" stroke-width="1"/></g><g stroke-linecap="round"><path d="M229.78552,173.81129c0,0 -10.20514,-24.0477 12.55054,-25.49442c23.33232,-1.48336 20.84484,19.36373 20.84484,19.36373c0,0 5.70285,-5.42397 6.65384,-4.94924c0.8027,0.40071 -0.06289,5.46112 -0.71726,7.42286c-0.48354,1.44959 -1.06347,4.54452 -2.42438,4.83774c-0.85658,0.18455 -4.66282,-2.34982 -4.66282,-2.34982c0,0 -7.09092,4.77233 -13.77877,6.67945c-6.60415,1.88326 -16.30064,1.62786 -16.30064,1.62786c0,0 -7.20957,-0.22958 -7.58645,-2.67244c-0.32114,-2.08151 5.42111,-4.46574 5.42111,-4.46574z" fill="#fde0be" stroke-width="0"/><path d="M258.08705,175.02417c-0.03268,0.01825 -1.4495,-1.98815 -1.4495,-1.98815l-2.98925,2.80679l-5.41048,-6.84168l-6.49748,4.83614l-1.46495,-6.43296c0,0 -11.21978,4.37402 -11.22926,4.3443c-1.8655,-5.85719 -5.37263,-22.24526 13.28989,-23.43173c23.33232,-1.48336 20.84484,19.36373 20.84484,19.36373c0,0 5.54417,3.80444 5.4957,3.97035c-0.42595,1.45853 -1.00135,3.12942 -1.98351,3.34102c-0.85658,0.18455 -4.66282,-2.34982 -4.66282,-2.34982c0,0 -1.5762,1.06081 -3.9432,2.38201z" fill="#fc988a" stroke-width="0"/><path d="M263.6903,169.12594l2.95598,-1.64716l-0.76897,5.05006z" fill="#f79587" stroke-width="0.5"/><path d="M242.33602,148.31689c23.33232,-1.48336 20.84484,19.36373 20.84484,19.36373c0,0 5.70285,-5.42397 6.65384,-4.94924c0.8027,0.40071 -0.06289,5.46112 -0.71726,7.42286c-0.48354,1.44959 -1.06347,4.54452 -2.42438,4.83774c-0.85658,0.18455 -4.66282,-2.34982 -4.66282,-2.34982c0,0 -7.09092,4.77233 -13.77877,6.67945c-6.60415,1.88326 -16.30064,1.62786 -16.30064,1.62786c0,0 -7.20957,-0.22958 -7.58645,-2.67244c-0.32114,-2.08151 5.42111,-4.46574 5.42111,-4.46574c0,0 -10.20513,-24.04769 12.55055,-25.49441z" fill="none" stroke-width="1"/></g><g stroke-linecap="round"><path d="M268.74732,159.99549c0,0 -1.59335,3.55908 -2.58903,5.04019c-0.8598,1.27897 -3.03741,3.32936 -3.03741,3.32936c0,0 -11.17357,-4.18405 -18.69046,-4.45031c-7.67797,-0.27196 -17.44196,1.33585 -17.44196,1.33585c0,0 -5.06735,-17.5174 -1.68845,-20.47788c2.46035,-2.15569 9.8509,-4.61017 17.23694,-4.62671c3.36635,-0.00754 12.99626,0.07203 16.3476,2.87818c4.49167,3.76099 9.86275,16.97133 9.86275,16.97133z" fill="#ff292e" stroke-width="0"/><path d="M268.74732,159.99549c0,0 -1.59335,3.55909 -2.58903,5.04019c-0.8598,1.27897 -3.0374,3.32936 -3.0374,3.32936c0,0 -5.41107,-2.02623 -11.23534,-3.34832c-0.15246,-0.0346 1.24779,-14.24875 3.74038,-20.0113c0.82541,-1.90821 2.42493,-2.67933 3.25863,-1.98126c4.49167,3.761 9.86276,16.97134 9.86276,16.97134z" fill="#ac0e49" stroke-width="0.5"/><path d="M266.1583,165.03568c-0.8598,1.27897 -3.0374,3.32936 -3.0374,3.32936c0,0 -11.17357,-4.18405 -18.69047,-4.4503c-7.67797,-0.27196 -17.44195,1.33585 -17.44195,1.33585c0,0 -5.06735,-17.51741 -1.68845,-20.47788c2.46036,-2.15569 9.8509,-4.61017 17.23694,-4.62671c3.36635,-0.00754 12.99626,0.07202 16.34758,2.87817c4.49167,3.761 9.86276,16.97134 9.86276,16.97134c0,0 -1.59335,3.55908 -2.58903,5.04018z" fill="none" stroke-width="1"/></g><g stroke-linecap="round"><path d="M228.26169,170.84371c0,0 -3.75237,1.28218 -5.44526,2.10014c-1.71883,0.83048 -4.79109,2.84573 -4.79109,2.84573c0,0 1.25548,-3.99009 2.16698,-5.81818c0.86564,-1.7361 3.17153,-4.88864 3.17153,-4.88864l-9.43977,1.51094c0,0 7.63426,-13.43116 11.07175,-15.29505c2.05016,-1.11164 10.43699,3.19028 10.43699,3.19028c0,0 1.0183,-2.78788 1.77976,-4.11329c0.69341,-1.20694 2.60397,-3.51705 2.60397,-3.51705c0,0 2.07224,5.96671 3.37685,8.82785c1.35911,2.98062 4.62102,8.71211 4.62102,8.71211l15.01962,3.5636l-0.72973,6.78855l-6.25466,-5.63323l-2.26516,3.69763l-5.77006,-8.41656l-4.5507,4.53502l-1.58626,-4.95278c0,0 -10.72129,3.59785 -13.0641,5.02974c-0.63864,0.39032 -0.35167,1.8332 -0.35167,1.8332z" fill="#4fa6ec" stroke-width="0"/><path d="M230.52562,161.36532l-12.50027,14.42425c0,0 1.25548,-3.99009 2.16697,-5.81818c0.86563,-1.7361 3.17153,-4.88864 3.17153,-4.88864l-9.43976,1.51093c0,0 7.63425,-13.43116 11.07175,-15.29505c2.05015,-1.11165 10.437,3.19028 10.437,3.19028c0,0 1.01829,-2.78788 1.77975,-4.11329c0.69341,-1.20694 2.60397,-3.51704 2.60397,-3.51704l-1.41268,12.0278c0,0 -9.38589,-3.57062 -11.5472,-3.05142c-3.39206,0.81485 -7.57197,8.21772 -7.57197,8.21772z" fill="#66ffff" stroke-width="0"/><path d="M253.09452,167.25004l-0.329,4.37043l-3.49618,-5.09974z" fill="#66ffff" stroke-width="0"/><path d="M218.02535,175.78957c0,0 1.25548,-3.99009 2.16697,-5.81818c0.86563,-1.7361 3.17153,-4.88864 3.17153,-4.88864l-9.43976,1.51093c0,0 7.63425,-13.43116 11.07175,-15.29505c2.05015,-1.11165 10.437,3.19028 10.437,3.19028c0,0 1.01829,-2.78788 1.77975,-4.11329c0.69341,-1.20694 2.60397,-3.51704 2.60397,-3.51704c0,0 2.07223,5.96671 3.37684,8.82784c1.3591,2.98062 4.62102,8.71211 4.62102,8.71211l15.01962,3.5636l-0.72973,6.78855l-6.25466,-5.63322l-2.26517,3.69763l-5.77007,-8.41656l-4.55071,4.53502l-1.58626,-4.95278c0,0 -10.72129,3.59785 -13.0641,5.02974c-0.63864,0.39032 -0.35167,1.8332 -0.35167,1.8332c0,0 -3.75235,1.28218 -5.44525,2.10014c-1.6929,0.81796 -4.79109,2.8457 -4.79109,2.8457z" fill="none" stroke-width="1"/></g></g><g stroke="none" stroke-width="0.5" stroke-linecap="butt"><path d="M243.00021,170.2192c0,0 -0.19175,0.20519 -0.44869,0.1882c-0.21801,0.22996 -0.5577,0.12936 -0.5577,0.12936l-0.49464,-0.14849c-0.94372,-0.36719 -1.88844,-0.75876 -2.82429,-1.1719c0.08404,1.17997 0.33772,2.07703 0.68121,3.27403l0.02019,0.2181c0.03216,0.20803 -0.02712,0.34958 -0.11296,0.44515c-0.07246,0.09594 -0.18892,0.17672 -0.37599,0.19334c-0.86739,0.13745 -1.7221,0.44942 -2.5774,0.67015l-0.08564,0.05632c-0.16558,0.13427 -0.32123,0.14982 -0.44858,0.11986c-0.11932,-0.01605 -0.24723,-0.07662 -0.35011,-0.22992c-1.45165,-1.75401 -1.46782,-4.55503 -0.69103,-6.64803c-3.56485,-1.88647 -8.84192,-9.27645 -8.84192,-9.27645c0,0 4.64481,4.4204 9.14219,7.63656c2.9664,2.12132 6.16621,3.40032 6.86862,3.67364l0.30157,0.08782c2.59837,-2.78287 4.63026,-6.01396 7.26677,-8.85361c2.65946,-2.84352 9.45607,-7.57311 9.45607,-7.57311c0,0 -1.80511,1.7244 -3.88017,3.58749c-1.73008,1.55334 -3.56007,3.46071 -4.76121,4.74697c-0.196,0.20856 -0.38837,0.4192 -0.57761,0.63156c0.07442,0.2157 -0.02562,0.43395 -0.02562,0.43395c-1.14731,2.50077 -1.4895,5.39562 -0.71209,8.11126l0.02873,0.72718c0.00013,0.00311 0.00027,0.00626 0.00038,0.0094c0.00655,0.19352 -0.05639,0.32209 -0.14132,0.4075c-0.07948,0.09052 -0.20351,0.16201 -0.39703,0.16857c-0.00096,0.00004 -0.00192,0.00006 -0.00287,0.00009c-1.31119,0.0421 -2.41152,0.06048 -3.71212,0.27008l-0.42432,0.01851c-0.00532,0.00028 -0.01069,0.00052 -0.01611,0.00071c-0.19352,0.00655 -0.32209,-0.05639 -0.4075,-0.14132c-0.09053,-0.07948 -0.16201,-0.20351 -0.16857,-0.39703c-0.02362,-0.69824 -0.04726,-1.39648 -0.07088,-2.09473c-0.21578,0.24569 -0.4353,0.4888 -0.65937,0.72881z" fill="#000000"/><path d="M247.91906,177.37316c1.59077,-0.44999 6.63529,-3.65283 6.60759,-5.71945c-2.20944,1.77287 -5.74427,3.19197 -8.33749,3.96131c-1.91472,0.47317 -3.75895,1.25278 -5.64817,1.7504c1.62782,1.6331 5.55162,0.5349 7.37807,0.00772zM254.52949,170.28908c0.17202,-0.10617 0.32014,-0.11147 0.43911,-0.0751c0.11978,0.02724 0.24403,0.10389 0.34,0.27683c1.73286,2.97243 -4.52983,7.21609 -7.08266,7.95435c-2.53689,0.72092 -6.85684,1.77559 -8.79335,-0.66317l-0.08288,-0.1469c-1.4621,0.27062 -4.94139,-1.03505 -4.94139,-1.03505c0,0 2.32857,0.34905 4.71748,-0.04093c2.45774,-0.40122 5.00184,-1.54819 6.77065,-2.02002c2.52883,-0.6882 6.29155,-2.25982 8.26252,-4.03294l0.3661,-0.21435c0.00148,-0.00092 0.00295,-0.00183 0.00443,-0.00275z" fill="#000000"/><path d="M240.48821,177.38335c1.88922,-0.49762 3.83688,-1.31851 5.7516,-1.79167c2.59321,-0.76935 6.12771,-2.18912 8.33716,-3.96199c0.02769,2.06662 -5.05859,5.34859 -6.64939,5.79858c-1.82644,0.52715 -5.81155,1.58818 -7.43938,-0.04492z" data-paper-data="{&quot;noHover&quot;:false,&quot;origItem&quot;:[&quot;Path&quot;,{&quot;applyMatrix&quot;:true,&quot;segments&quot;:[[[670.47868,383.19107],[-3.3061,0.8342],[2.87897,-0.71016]],[[682.67059,373.3391],[-0.07572,3.70634],[-4.06825,3.04406]],[[667.4843,379.93446],[4.69532,-1.22185],[-3.46106,0.73206]],[[657.25306,382.72964],[3.41686,-0.77745],[2.819,3.02628]]],&quot;closed&quot;:true}]}" fill="#ff6666"/></g><g><path d="M205.75673,189.50913c-0.02733,-1.76329 1.37995,-3.21487 3.14322,-3.24219c1.76329,-0.02733 3.21485,1.37994 3.24217,3.14322c0.02733,1.76329 -1.37994,3.21485 -3.1432,3.24217c-1.76329,0.02733 -3.21487,-1.37994 -3.24219,-3.1432z" fill="#3f5479" stroke="#000000" stroke-width="1" stroke-linecap="butt"/><path d="M221.4066,173.93288c4.57071,0.75964 8.17565,10.09785 5.60478,14.53718c-0.9895,1.70863 -2.98447,2.43711 -4.80867,2.13647c-0.16582,-0.02732 -1.28541,-0.95933 -1.33602,-0.9064c-0.28601,0.2992 -0.31432,1.53589 -1.19509,2.17393c-1.18973,0.86185 -3.25847,1.12244 -3.25847,1.12244c0,0 -2.08587,2.47885 -3.1405,2.06544c-5.47353,-2.14553 -6.36829,-7.65476 -4.99897,-11.01019c0.35748,-0.87598 2.91365,-2.27077 4.01203,-3.53751c1.00533,-1.15943 0.08405,-1.51779 0.98425,-2.01481c0.20414,-0.1127 0.88676,-0.50516 1.61583,-0.57138c0.80606,-0.07323 1.69002,0.16182 2.51507,-0.39005c1.71938,-1.15006 1.51429,-4.01921 4.00575,-3.60513z" fill="#fde0be" stroke="#000000" stroke-width="0" stroke-linecap="butt"/><path d="M218.38744,192.8401c1.31999,-6.40725 12.02895,-7.11775 11.21068,-1.17144c-0.41721,3.03182 -2.90289,2.42799 -5.01728,3.09926c-0.16183,0.05137 -0.30959,0.14285 -0.45189,0.25979c-0.38918,1.04486 -1.38798,1.79635 -2.57003,1.81466c-0.21705,0.00337 -0.42869,-0.01817 -0.63219,-0.06196c-1.09745,-0.23617 -1.9584,-1.11968 -2.15586,-2.23658c-0.41961,-0.49265 -0.35683,-1.10856 -0.36566,-1.67793z" fill="#f89688" stroke="#000000" stroke-width="1" stroke-linecap="butt"/><path d="M227.01139,188.47004c-0.9895,1.70863 -2.98447,2.43711 -4.80866,2.13647c-0.16582,-0.02732 -1.28541,-0.95933 -1.33602,-0.9064c-0.28601,0.2992 -0.31432,1.53589 -1.19509,2.17393c-1.18974,0.86185 -3.25847,1.12244 -3.25847,1.12244c0,0 -2.08587,2.47885 -3.1405,2.06544c-0.98451,-0.3859 -1.82089,-0.88065 -2.52261,-1.45209c0.8864,-1.63002 1.69258,-2.79933 1.66177,-4.7868c-0.01023,-0.66035 0.20911,-2.42603 0.08927,-3.05314c0.51992,-0.32155 0.43743,-0.26504 0.94909,-0.64602c0.03116,0.22743 0.08329,0.45069 0.15784,0.66883c0.10833,0.31703 0.26462,0.63579 0.45723,0.94393c0.15809,1.41014 1.36532,2.49582 2.81328,2.47338c0.20349,-0.00315 0.40154,-0.02803 0.59199,-0.07239c0.81402,0.03085 1.53688,-0.41265 1.91844,-1.59526c0.06018,-0.13701 0.10962,-0.27973 0.14731,-0.42709c0.48753,0.38873 1.10778,0.61707 1.7799,0.60666c0.12849,-0.00199 0.25483,-0.01265 0.37845,-0.03139c0.7226,-0.10963 1.35249,-0.49597 1.78028,-1.04624c1.30925,-1.03277 2.88238,-2.67101 4.13885,-4.32664c0.45119,2.26654 0.33444,4.53472 -0.60238,6.15238z" fill="#f89688" stroke="#000000" stroke-width="0" stroke-linecap="butt"/><path d="M212.25078,184.9731l1.63897,1.08977c0,0 0.18497,2.39439 0.61228,3.41645c0.47918,1.14612 1.821,3.13552 1.821,3.13552" fill="none" stroke="#000000" stroke-width="1" stroke-linecap="round"/><path d="M218.09169,182.44945l1.43626,1.09291c0,0 -0.08662,2.01834 0.18171,3.19771c0.27545,1.2107 1.34252,3.57112 1.34252,3.57112" fill="none" stroke="#000000" stroke-width="1" stroke-linecap="round"/><path d="M221.4066,173.93288c4.57071,0.75964 8.17566,10.09785 5.60479,14.53718c-0.9895,1.70863 -2.98447,2.43711 -4.80866,2.13647c-0.16582,-0.02732 -1.28541,-0.95933 -1.33602,-0.9064c-0.28601,0.2992 -0.31432,1.53589 -1.19509,2.17393c-1.18974,0.86185 -3.25847,1.12244 -3.25847,1.12244c0,0 -2.08587,2.47885 -3.1405,2.06544c-5.47353,-2.14553 -6.36829,-7.65476 -4.99897,-11.01019c0.35749,-0.87598 2.91365,-2.27077 4.01203,-3.53751c1.00533,-1.15943 0.08405,-1.51779 0.98425,-2.01481c0.21273,-0.11746 0.73428,-0.50057 1.50604,-0.57706c0.78756,-0.07807 1.83126,0.14646 2.62486,-0.38437c1.71938,-1.15005 1.51429,-4.01921 4.00575,-3.60513z" fill="none" stroke="#000000" stroke-width="1" stroke-linecap="butt"/><path d="M222.98561,182.60172c-0.05379,-3.47058 1.71335,-6.00797 4.31627,-6.04832c2.60294,-0.04034 4.75664,2.74041 4.81043,6.211c0.05379,3.47058 -1.4077,6.1046 -4.01064,6.14494c-2.60294,0.04034 -5.06228,-2.83706 -5.11607,-6.30763z" fill="#93c0c3" stroke="none" stroke-width="0" stroke-linecap="butt"/><path d="M228.10168,188.90936c-2.51233,0.03894 -4.89088,-2.64025 -5.10179,-5.94745c3.03578,-0.02037 6.07265,0.04756 9.11375,0.04137c-0.01555,3.35187 -1.46907,5.86668 -4.01196,5.90609z" fill="#475f86" stroke="none" stroke-width="0" stroke-linecap="butt"/><path d="M223.19708,180.49316c0.84359,0.08195 2.00028,-0.28999 2.52415,-0.31628c1.16341,-0.05838 3.73465,0.10885 5.77875,-0.39214c0.27173,0.64029 0.46248,1.34973 0.55325,2.10371c-3.01983,0.00544 -6.03539,-0.06142 -9.05002,-0.04159c0.03,-0.47409 0.09559,-0.92682 0.19387,-1.35369z" fill="#475f86" stroke="none" stroke-width="0" stroke-linecap="butt"/><path d="M222.98561,182.60172c-0.05379,-3.47058 1.71335,-6.00797 4.31627,-6.04832c2.60294,-0.04034 4.75664,2.74041 4.81043,6.211c0.05379,3.47058 -1.4077,6.1046 -4.01064,6.14494c-2.60294,0.04034 -5.06228,-2.83706 -5.11607,-6.30763z" fill="none" stroke="#000000" stroke-width="1" stroke-linecap="butt"/><path d="M226.009,181.43966c-0.07548,-4.87 3.43291,-9.17739 7.96704,-9.24767c4.53416,-0.07028 7.35565,3.63211 7.43113,8.50211c0.07548,4.87 -3.53898,8.87489 -8.07311,8.94517c-4.53414,0.07028 -7.24957,-3.3296 -7.32505,-8.1996z" fill="#3f5479" stroke="#000000" stroke-width="0" stroke-linecap="butt"/><path d="M241.40719,180.69412c0.07548,4.87 -3.53898,8.87489 -8.07311,8.94517c-3.84888,0.05966 -6.38726,-2.3812 -7.11278,-6.0992c0.18744,0.07718 0.38879,0.14162 0.60468,0.19204c4.62791,1.08106 12.24374,-0.23823 14.33419,-5.29484c0.15103,0.71452 0.23482,1.47044 0.24701,2.25682z" fill="#323344" stroke="#000000" stroke-width="0" stroke-linecap="butt"/><path d="M233.06051,173.62552c-0.00716,-0.4618 0.3614,-0.84198 0.82322,-0.84914c0.46181,-0.00716 0.84198,0.36141 0.84914,0.82322c0.00716,0.4618 -0.3614,0.84198 -0.82322,0.84914c-0.46181,0.00716 -0.84198,-0.36141 -0.84914,-0.82322z" fill="#95c2c5" stroke="none" stroke-width="0.5" stroke-linecap="butt"/><path d="M226.009,181.43966c-0.07548,-4.87 3.43291,-9.17739 7.96704,-9.24767c4.53416,-0.07028 7.35565,3.63211 7.43113,8.50211c0.07548,4.87 -3.53898,8.87489 -8.07311,8.94517c-4.53414,0.07028 -7.24957,-3.3296 -7.32505,-8.1996z" fill="none" stroke="#000000" stroke-width="1" stroke-linecap="butt"/><path d="M240.78058,182.94583c0,0 -1.16359,2.59961 -6.2544,2.89199c-2.80582,0.16117 -6.24602,0.03396 -6.24602,0.03396" fill="none" stroke="#000000" stroke-width="1" stroke-linecap="round"/><path d="M241.24428,180.48526c0,0 -2.50226,0.75742 -4.23686,1.01135c-2.75031,0.40262 -10.6727,1.1713 -10.6727,1.1713" fill="none" stroke="#000000" stroke-width="1" stroke-linecap="round"/><path d="M226.0815,180.72027c0,0 3.25489,-2.79088 7.48987,-3.19421c3.6049,-0.34332 7.47803,1.17792 7.47803,1.17792" fill="none" stroke="#000000" stroke-width="1" stroke-linecap="round"/><path d="M226.6394,177.14306c0,0 2.88255,-2.37499 6.22821,-2.51684c3.36207,-0.14254 7.24405,1.13709 7.24405,1.13709" fill="none" stroke="#000000" stroke-width="1" stroke-linecap="round"/><path d="M231.56354,189.05489c0,0 -3.22003,-2.77013 -3.97909,-6.79058c-0.43887,-2.32448 0.58732,-6.98504 0.58732,-6.98504" fill="none" stroke="#000000" stroke-width="1" stroke-linecap="round"/><path d="M234.01893,189.18412c0,0 -3.36427,-4.20323 -3.73289,-7.91739c-0.28758,-2.89771 1.47116,-8.49643 1.47116,-8.49643" fill="none" stroke="#000000" stroke-width="1" stroke-linecap="round"/><path d="M236.903,188.19152c0,0 -2.27713,-0.85405 -2.6811,-9.23084c-0.13003,-2.69626 1.09781,-6.58016 1.09781,-6.58016" fill="none" stroke="#000000" stroke-width="1" stroke-linecap="round"/><path d="M239.09183,174.71969l0.34437,11.42524" fill="none" stroke="#000000" stroke-width="1" stroke-linecap="round"/></g><path d="M250.08401,172.91638l0.99551,3.12872l8.10623,-3.41315l-1.70658,3.9109l2.70208,2.34654l-4.69308,-0.0711l-1.70658,1.49326l-3.41315,-1.49326l-4.81466,3.8398l-0.09174,-2.77319c0,0 1.65657,-2.96144 2.47952,-4.20218c0.69654,-1.05017 2.14246,-2.76634 2.14246,-2.76634z" fill="#feecf7" stroke="#000000" stroke-width="1" stroke-linecap="round"/></g></g></svg>