<svg version="1.1" xmlns="http://www.w3.org/2000/svg" xmlns:xlink="http://www.w3.org/1999/xlink" width="210" height="221" viewBox="0,0,210,221"><g transform="translate(-140,-90)"><g data-paper-data="{&quot;isPaintingLayer&quot;:true}" fill-rule="nonzero" stroke-linejoin="miter" stroke-miterlimit="10" stroke-dasharray="" stroke-dashoffset="0" style="mix-blend-mode: normal"><path d="M140,311v-221h210v221z" fill="none" stroke="none" stroke-width="0" stroke-linecap="butt"/><g data-paper-data="{&quot;index&quot;:null}" stroke="#000000" stroke-linecap="round"><path d="M262.23752,194.15156c0,0 16.2316,-1.59725 16.21325,5.02736c-0.04977,17.98052 -28.27891,12.06568 -28.27891,12.06568z" data-paper-data="{&quot;origPos&quot;:null}" fill="#66c8ff" stroke-width="2"/><path d="M261.48344,195.65979c0,0 11.78117,-0.56333 12.44273,1.38252c0.20864,0.61371 -15.71052,2.51368 -15.71052,2.51368z" data-paper-data="{&quot;origPos&quot;:null}" fill="#0a0a0a" stroke-width="1"/></g><g><path d="M265.17804,243.48456c0,0 0.84783,15.56003 -1.41076,15.83681c-6.77579,0.8304 -24.59342,-0.01155 -39.79529,-0.01155c-1.70773,0 -1.45862,-14.77025 -1.45862,-14.77025l1.82328,-30.24385c0,0 1.35181,-13.36356 2.91725,-13.36356c10.12633,0 25.27707,-0.91891 31.90429,0.70404c2.20907,0.54099 4.19658,14.76954 4.19658,14.76954z" data-paper-data="{&quot;origPos&quot;:null}" fill="#66c8ff" stroke="#000000" stroke-width="3.5" stroke-linecap="round"/><path d="M232.55827,224.17252c-1.32254,0 -1.32255,-2.45628 -1.32255,-2.45628c0,-5.09452 0,-11.82654 0,-16.92106c0,0 0.00001,-2.45628 1.32255,-2.45628c1.32254,0 1.32254,2.45628 1.32254,2.45628c0,5.09452 0,10.18903 0,15.28354v1.63752c0,0 0,2.45628 -1.32254,2.45628z" fill="#ffffff" stroke="none" stroke-width="0.5" stroke-linecap="butt"/><path d="M244.84512,230.42637c-1.32254,0 -1.32255,-3.08578 -1.32255,-3.08578c0,-6.40014 0,-14.85747 0,-21.25762c0,0 0.00001,-3.08578 1.32255,-3.08578c1.32254,0 1.32254,3.08578 1.32254,3.08578c0,6.40014 0,12.80029 0,19.20044v2.05719c0,0 0,3.08578 -1.32254,3.08578z" fill="#ffffff" stroke="none" stroke-width="0.5" stroke-linecap="butt"/></g><g fill="none" stroke="#b9b9b9" stroke-width="3"><path d="M255.42542,205.91537c-0.86372,-1.27479 0.08965,-2.41957 1.36608,-3.5629c1.27644,-1.14331 2.55753,-1.49242 3.25633,-0.57743c1.48163,1.94006 -0.07283,2.85574 -1.07233,3.75099c-1.27645,1.14332 -2.33029,2.18969 -3.55007,0.38935z" stroke-linecap="butt"/><path d="M256.45273,205.36086l-2.70323,2.36491" stroke-linecap="round"/><path d="M250.0479,208.3165c1.27644,-1.14331 2.55753,-1.49242 3.25633,-0.57743c1.48163,1.94006 -0.07283,2.85574 -1.07233,3.75099c-1.27644,1.14331 -2.33028,2.18969 -3.55006,0.38935c-0.86372,-1.27479 0.08964,-2.41957 1.36607,-3.56291z" stroke-linecap="butt"/><path d="M247.00589,213.68981l2.70323,-2.36493" stroke-linecap="round"/><path d="M241.13775,213.26528c0.41818,-1.5348 1.81474,-1.38966 3.40101,-0.95898c1.58627,0.43069 2.597,1.34752 2.34341,2.51861c-0.53769,2.48303 -2.12241,1.66919 -3.3645,1.33196c-1.58627,-0.43068 -2.97051,-0.72406 -2.37992,-2.89158z" stroke-linecap="butt"/><path d="M242.14816,213.83385l-3.31833,-0.94633" stroke-linecap="round"/><path d="M233.62318,209.15791c0.93205,-1.23596 2.15822,-0.49713 3.45584,0.5875c1.29763,1.08463 1.8945,2.36889 1.24327,3.34031c-1.38079,2.0597 -2.53984,0.62197 -3.55593,-0.22733c-1.29762,-1.08464 -2.45945,-1.955 -1.14318,-3.70048z" stroke-linecap="butt"/><path d="M231.64616,207.8096l2.69824,2.31084" stroke-linecap="round"/><path d="M226.83506,203.40891c0.93205,-1.23594 2.15823,-0.49713 3.45584,0.5875c1.29763,1.08463 1.8945,2.36889 1.24327,3.34031c-1.38079,2.05969 -2.53984,0.62197 -3.55592,-0.22733c-1.29762,-1.08463 -2.45945,-1.95499 -1.14318,-3.70048z" stroke-linecap="butt"/><path d="M227.55632,204.37146l-2.69826,-2.31084" stroke-linecap="round"/></g><g><g data-paper-data="{&quot;index&quot;:null}"><g stroke="#000000" stroke-width="3" stroke-linecap="round"><path d="M279.16588,236.97499c0,0 2.81984,10.36463 2.34384,14.94763c-15.72331,6.24123 -25.33485,3.5446 -25.33485,3.5446c-1.9967,0.38045 -2.18747,-6.892 -2.18747,-6.892c0,0 -0.83774,-14.18473 -1.37397,-23.26366c-0.3521,-5.9616 -0.90221,-15.27588 -0.90221,-15.27588c0,0 -0.08825,-5.92386 1.00644,-6.04421c6.58583,-0.72405 12.81728,-2.72303 16.18009,-1.91308c1.12093,0.26998 2.6506,5.77641 2.6506,5.77641l7.6175,29.12018z" data-paper-data="{&quot;origPos&quot;:null}" fill="#582700"/><path d="M279.80933,242.69681l-25.38527,3.76409l-0.48479,-3.3673l25.38775,-4.02272z" data-paper-data="{&quot;origPos&quot;:null}" fill="none"/></g><path d="M253.65955,242.67112l-1.37727,-36.84182l1.16367,-0.85532l15.6216,-2.4488l9.47134,36.19787z" fill="#66c8ff" stroke="#000000" stroke-width="1" stroke-linecap="round"/><path d="M254.32353,246.0256l-0.34474,-2.30547l25.22043,-3.77125l0.34474,2.30547z" fill="#ffffff" stroke="none" stroke-width="0" stroke-linecap="butt"/></g><g fill="#fffc96" stroke="#000000" stroke-width="2" stroke-linecap="round"><path d="M277.3512,232.334c0,0 4.35416,0.50696 4.26932,3.44999c-0.13576,4.70873 -32.62684,-1.15479 -32.78136,-6.07065c-0.06313,-2.00851 3.10584,-2.15553 3.10584,-2.15553l0.281,1.85044c0,0 5.85482,2.43958 13.40323,3.97602c7.44383,1.51515 12.52729,1.15971 12.52729,1.15971z"/><path d="M275.20248,223.98868c0,0 3.02362,-2.31506 3.96067,-0.19036c1.96702,4.46005 -27.37772,23.68036 -28.2394,19.12681c-0.52184,-2.75774 2.78157,-3.84714 2.78157,-3.84714l0.24668,1.35467c0,0 4.91612,-2.0474 11.47638,-6.50995c6.56027,-4.46254 10.1593,-8.68693 10.1593,-8.68693z" data-paper-data="{&quot;index&quot;:null}"/></g></g><path d="M280.85048,254.4068c0,0 4.55886,-1.00594 6.89448,-0.26124c1.78802,0.57008 2.47182,2.34081 3.00407,4.04018c1.46092,4.66454 0.15441,9.42196 0.44044,16.97951c0.07789,2.05835 -3.10559,3.32588 -5.30074,3.26551c-2.05311,-0.05647 -5.61839,-0.2726 -5.61839,-0.2726l-34.55122,-1.67072c0,0 -4.46572,-0.35327 -5.32864,-2.02049c-2.07807,-4.01499 -0.73625,-8.45346 -1.17296,-12.89766c-0.148,-1.50608 4.85902,-1.79745 4.85902,-1.79745c0,0 9.29858,-1.3566 15.25017,-2.22489c8.39995,-1.22549 21.5238,-3.14015 21.5238,-3.14015z" data-paper-data="{&quot;index&quot;:null}" fill="#4b4b4b" stroke="#000000" stroke-width="3" stroke-linecap="round"/><path d="M241.20937,266.25561c0,0 2.11821,3.77916 1.90598,6.006c-0.16244,1.70473 -1.82335,2.71483 -3.44675,3.57515c-4.45603,2.3614 -9.66477,2.30923 -17.37859,4.30421c-2.10091,0.54333 -4.16191,-1.96534 -4.62096,-3.91072c-0.42934,-1.8195 -1.05332,-5.00634 -1.05332,-5.00634l-6.48339,-30.78603c0,0 -0.69657,-4.01075 0.81521,-5.1546c3.64068,-2.75457 8.5294,-2.59778 13.00173,-4.00717c1.51562,-0.47763 3.00447,3.8607 3.00447,3.8607c0,0 3.60465,7.86863 5.91181,12.90498c3.25629,7.10819 8.3438,18.21385 8.3438,18.21385z" data-paper-data="{&quot;index&quot;:null}" fill="#4b4b4b" stroke="#000000" stroke-width="3" stroke-linecap="round"/><path d="M223.52138,200.64929c0,0 -2.07945,-4.07502 -2.24316,-5.14817c-0.49113,-3.21944 -1.71306,-17.35545 -2.77495,-30.13525c-0.16425,-1.97672 1.19074,-5.199 1.19074,-5.199c0,0 2.05993,-1.80471 3.31674,-1.91606c13.8663,-1.2285 26.96983,-3.48703 32.24199,-2.37222c1.75739,0.3716 5.03847,1.84231 5.03847,1.84231c0,0 1.07225,4.32145 1.29965,5.43763c0.0758,0.37206 0.11948,0.58139 0.17298,0.9573c1.603,11.26345 2.24673,24.39807 2.2564,29.00307c0.00322,1.53501 -1.60895,4.06716 -1.60895,4.06716c0,0 -1.15669,2.83269 -5.47433,4.00325c-4.72425,1.28079 -16.4301,1.8796 -28.50324,2.45994z" fill="#582700" stroke="#000000" stroke-width="2.5" stroke-linecap="round"/><path d="M262.65994,158.12389l-0.7553,-0.46156c-0.09167,-0.02301 -0.18325,-0.04552 -0.27476,-0.06756c-0.19433,0.32875 -0.59294,0.72633 -1.34588,0.54533c-0.69396,-0.16682 -0.89643,-0.63462 -0.94243,-1.00532c-2.67437,-0.4361 -5.32267,-0.53139 -8.09592,-0.5462c-7.74355,0.22332 -15.45379,1.04694 -23.17127,1.71103c-2.53098,0.21779 -8.10839,1.7235 -10.36681,0.22472c-1.10142,-0.73094 -0.86364,-2.68893 -1.054,-3.72956c-0.55159,-3.01551 -1.1903,-6.1318 -1.46476,-9.18717c-0.33203,-3.99596 -2.1327,-7.4351 -2.97257,-11.31018c-0.42105,-1.9427 -1.2559,-3.86035 0.35627,-5.7089c0.4552,-0.52194 1.35037,-0.31713 2.03639,-0.41205c2.50718,-0.3469 4.95914,-0.38363 7.47543,-0.30076c7.9741,0.26258 15.82339,0.11165 23.78508,0.86238c3.21204,0.30666 6.40586,0.10188 9.62767,-0.06494c1.89352,-0.09804 3.56985,-0.78454 4.88376,1.27666c0.78464,1.2309 0.62793,5.26313 0.70059,6.74437c0.28017,5.7116 1.77556,12.6251 1.06974,18.45518c0.12002,0.0285 0.24017,0.05776 0.36044,0.08778l1.35165,0.6954c0,0 1.09568,0.60166 0.49403,1.69733c-0.60166,1.09568 -1.69734,0.49402 -1.69734,0.49402z" data-paper-data="{&quot;index&quot;:null}" fill="#000000" stroke="none" stroke-width="0.5" stroke-linecap="butt"/><path d="M235.60566,175.09306c0.54287,-0.06722 1.35071,2.84879 1.80441,6.51306c0.4537,3.66427 0.38144,6.68924 -0.16143,6.75644c-0.54287,0.06722 -1.35071,-2.84878 -1.80442,-6.51305c-0.4537,-3.66427 -0.38145,-6.68926 0.16143,-6.75646z" data-paper-data="{&quot;index&quot;:null}" fill="none" stroke="#000000" stroke-width="2.5" stroke-linecap="butt"/><path d="M238.22669,172.79752c0.6985,1.03663 -0.33813,1.73512 -0.33813,1.73512l-0.69063,0.44424c-1.10127,1.04426 -1.71886,1.53274 -2.56843,1.80528l0.09949,0.20438l-1.22659,0.59707c-0.14086,0.07268 -0.29797,0.11959 -0.46568,0.13402c-0.68782,0.05919 -1.29338,-0.45042 -1.35256,-1.13824c-0.03421,-0.39759 0.12163,-0.76769 0.39209,-1.02067l0.91936,-0.87483l0.02321,0.02439l0.03411,-0.07568c0.80858,-0.60064 1.62315,-1.19342 2.44646,-1.77373c0,0 0.34305,-0.24177 0.77169,-0.24634l0.2205,-0.15316c0,0 1.03663,-0.69849 1.73512,0.33813z" fill="#582700" stroke="none" stroke-width="0.5" stroke-linecap="butt"/><path d="M245.07926,174.37822c0.54288,-0.06722 1.35071,2.8488 1.80442,6.51307c0.45371,3.66427 0.38143,6.68924 -0.16145,6.75644c-0.54288,0.06722 -1.35071,-2.84879 -1.80442,-6.51306c-0.45371,-3.66427 -0.38144,-6.68924 0.16143,-6.75645z" data-paper-data="{&quot;index&quot;:null}" fill="none" stroke="#000000" stroke-width="2.5" stroke-linecap="butt"/><path d="M244.13813,172.20288l0.24341,0.11324c0.42311,-0.06871 0.80244,0.11089 0.80244,0.11089c0.91034,0.43113 1.81419,0.87604 2.71351,1.32972l0.04654,0.06875l0.01871,-0.02801l1.0553,0.70491c0.3097,0.20306 0.52648,0.5411 0.56069,0.93869c0.05919,0.68782 -0.45041,1.29338 -1.13823,1.35256c-0.16772,0.01443 -0.33054,-0.00496 -0.48174,-0.05249l-1.31055,-0.37875l0.06311,-0.21836c-0.88365,-0.1234 -1.57561,-0.49919 -2.83908,-1.33997l-0.75638,-0.31972c0,0 -1.14071,-0.51114 -0.62957,-1.65186c0.51114,-1.14071 1.65185,-0.62958 1.65185,-0.62958z" data-paper-data="{&quot;index&quot;:null}" fill="#582700" stroke="none" stroke-width="0.5" stroke-linecap="butt"/><g data-paper-data="{&quot;index&quot;:null}"><g data-paper-data="{&quot;origRot&quot;:0}" stroke="#000000" stroke-width="3" stroke-linecap="round"><path d="M264.49216,252.49762c-0.0589,2.4521 -9.31683,0.59483 -9.31683,0.59483c0,0 -24.62414,-4.26701 -36.26248,-6.2358c-4.77092,-1.50798 -4.99386,-40.5359 -0.66844,-44.60252c1.92812,-1.81276 12.39676,-3.59896 13.94258,-2.14413c2.94237,2.76915 7.83947,19.10405 7.83947,19.10405l-4.48679,0.03428l11.76651,0.97637c0,0 13.77642,0.00087 19.55691,1.52686c3.20592,0.84633 -2.37094,30.74606 -2.37094,30.74606z" data-paper-data="{&quot;origPos&quot;:null}" fill="#582700"/><path d="M256.00752,221.29153l-2.11125,29.98091" fill="none"/><path d="M249.58235,251.18121l1.80456,-30.00782" data-paper-data="{&quot;origPos&quot;:null}" fill="none"/></g><path d="M253.66171,251.87736l-3.01239,-0.24666l1.95304,-30.68495l3.01241,0.24666z" fill="#ffffff" stroke="none" stroke-width="0" stroke-linecap="butt"/><path d="M218.59238,246.98659l-2.91899,-10.8545l0.34547,-24.03168l2.17443,-8.20047l4.03868,-3.38741l8.0549,0.23671l1.61098,0.04735l7.1949,17.24107l-3.22277,0.15572l-0.00641,2.0033l14.22792,1.16942l-0.9025,30.2762l-28.98482,-4.85876z" fill="#66c8ff" stroke="#000000" stroke-width="0.5" stroke-linecap="round"/></g><path d="M252.9369,194.30908c-0.45056,0.59958 -1.05014,0.14901 -1.05014,0.14901l-0.1249,-0.11208c-1.85579,-0.91976 -4.08151,-0.7609 -6.04129,-0.25463c0,0 -0.72638,0.18673 -0.91311,-0.53965c-0.18673,-0.72639 0.53966,-0.91311 0.53966,-0.91311c2.33994,-0.59878 4.84347,-0.68277 7.06319,0.35481l0.37758,0.26552c0,0 0.59958,0.45056 0.14901,1.05014z" fill="#000000" stroke="none" stroke-width="0.5" stroke-linecap="butt"/></g></g></svg>