<svg version="1.1" xmlns="http://www.w3.org/2000/svg" xmlns:xlink="http://www.w3.org/1999/xlink" width="210" height="221" viewBox="0,0,210,221"><g transform="translate(-140,-90)"><g data-paper-data="{&quot;isPaintingLayer&quot;:true}" fill-rule="nonzero" stroke-linejoin="miter" stroke-miterlimit="10" stroke-dasharray="" stroke-dashoffset="0" style="mix-blend-mode: normal"><path d="M140,311v-221h210v221z" fill="none" stroke="none" stroke-width="0" stroke-linecap="butt"/><g data-paper-data="{&quot;index&quot;:null}" stroke="#000000" stroke-linecap="round"><path d="M262.23752,196.65156c0,0 16.2316,-1.59725 16.21325,5.02736c-0.04977,17.98052 -28.27891,12.06568 -28.27891,12.06568z" data-paper-data="{&quot;origPos&quot;:null}" fill="#66c8ff" stroke-width="2"/><path d="M261.48344,198.15979c0,0 11.78117,-0.56333 12.44273,1.38252c0.20864,0.61371 -15.71052,2.51368 -15.71052,2.51368z" data-paper-data="{&quot;origPos&quot;:null}" fill="#0a0a0a" stroke-width="1"/></g><g><path d="M266.16894,243.69048c0,0 0.89731,15.36228 -1.4931,15.63554c-7.17126,0.81985 -26.02884,-0.0114 -42.11798,-0.0114c-1.8074,0 -1.54375,-14.58254 -1.54375,-14.58254l1.9297,-29.85949c0,0 1.43071,-13.19373 3.08752,-13.19373c10.71736,0 26.75239,-0.90723 33.76641,0.69509c2.338,0.53411 4.44152,14.58184 4.44152,14.58184z" data-paper-data="{&quot;origPos&quot;:null}" fill="#66c8ff" stroke="#000000" stroke-width="3.5" stroke-linecap="round"/><path d="M231.64529,224.62387c-1.39973,0 -1.39974,-2.42506 -1.39974,-2.42506c0,-5.02978 0,-11.67624 0,-16.70601c0,0 0.00001,-2.42506 1.39974,-2.42506c1.39973,0 1.39973,2.42506 1.39973,2.42506c0,5.02978 0,10.05954 0,15.08931v1.61671c0,0 0,2.42506 -1.39973,2.42506z" fill="#ffffff" stroke="none" stroke-width="0.5" stroke-linecap="butt"/><path d="M244.64927,230.79824c-1.39973,0 -1.39974,-3.04656 -1.39974,-3.04656c0,-6.3188 0,-14.66865 0,-20.98746c0,0 0.00001,-3.04656 1.39974,-3.04656c1.39973,0 1.39973,3.04656 1.39973,3.04656c0,6.3188 0,12.63761 0,18.95643v2.03105c0,0 0,3.04656 -1.39973,3.04656z" fill="#ffffff" stroke="none" stroke-width="0.5" stroke-linecap="butt"/></g><g fill="none" stroke="#b9b9b9" stroke-width="3"><path d="M254.89468,206.71998c-0.82753,-1.35809 0.08589,-2.57767 1.30884,-3.7957c1.22296,-1.21801 2.45037,-1.58994 3.11989,-0.61516c1.41955,2.06682 -0.06978,3.04234 -1.0274,3.99608c-1.22297,1.21803 -2.23265,2.33277 -3.40133,0.41479z" stroke-linecap="butt"/><path d="M255.87895,206.12924l-2.58997,2.51944" stroke-linecap="round"/><path d="M249.74248,209.27801c1.22296,-1.21801 2.45037,-1.58994 3.11989,-0.61516c1.41955,2.06682 -0.06978,3.04234 -1.0274,3.99608c-1.22296,1.21802 -2.23264,2.33277 -3.40132,0.41479c-0.82753,-1.35809 0.08588,-2.57767 1.30883,-3.79571z" stroke-linecap="butt"/><path d="M249.41789,212.48296l-2.58997,2.51946" stroke-linecap="round"/><path d="M241.20565,214.55014c0.40066,-1.63508 1.7387,-1.48046 3.25851,-1.02164c1.51981,0.45883 2.48819,1.43557 2.24522,2.68318c-0.51516,2.64527 -2.03348,1.77826 -3.22353,1.41899c-1.51981,-0.45882 -2.84605,-0.77137 -2.2802,-3.08052z" stroke-linecap="butt"/><path d="M238.99443,214.1477l3.1793,1.00816" stroke-linecap="round"/><path d="M234.00593,210.17439c0.893,-1.31672 2.06779,-0.52961 3.31104,0.62589c1.24326,1.1555 1.81512,2.52367 1.19118,3.55857c-1.32294,2.19428 -2.43342,0.66261 -3.40694,-0.24218c-1.24325,-1.15551 -2.3564,-2.08274 -1.09528,-3.94227z" stroke-linecap="butt"/><path d="M232.11175,208.73799l2.58519,2.46183" stroke-linecap="round"/><path d="M227.50223,204.04975c0.893,-1.3167 2.0678,-0.52961 3.31104,0.62589c1.24326,1.1555 1.81512,2.52367 1.19118,3.55857c-1.32294,2.19427 -2.43342,0.66261 -3.40693,-0.24218c-1.24325,-1.1555 -2.3564,-2.08273 -1.09528,-3.94227z" stroke-linecap="butt"/><path d="M225.60806,202.61336l2.58521,2.46183" stroke-linecap="round"/></g><g><g data-paper-data="{&quot;index&quot;:null}"><g stroke="#000000" stroke-width="3" stroke-linecap="round"><path d="M279.41588,238.72499c0,0 2.81984,10.36463 2.34384,14.94763c-15.72331,6.24123 -25.33485,3.5446 -25.33485,3.5446c-1.9967,0.38045 -2.18747,-6.892 -2.18747,-6.892c0,0 -0.83774,-14.18473 -1.37397,-23.26366c-0.3521,-5.9616 -0.90221,-15.27588 -0.90221,-15.27588c0,0 -0.08825,-5.92386 1.00644,-6.04421c6.58583,-0.72405 12.81728,-2.72303 16.18009,-1.91308c1.12093,0.26998 2.6506,5.77641 2.6506,5.77641l7.6175,29.12018z" data-paper-data="{&quot;origPos&quot;:null}" fill="#582700"/><path d="M280.05933,244.44681l-25.38527,3.76409l-0.48479,-3.3673l25.38775,-4.02272z" data-paper-data="{&quot;origPos&quot;:null}" fill="none"/></g><path d="M253.90955,244.42112l-1.37727,-36.84182l1.16367,-0.85532l15.6216,-2.4488l9.47134,36.19787z" fill="#66c8ff" stroke="#000000" stroke-width="1" stroke-linecap="round"/><path d="M254.57353,247.7756l-0.34474,-2.30547l25.22043,-3.77125l0.34474,2.30547z" fill="#ffffff" stroke="none" stroke-width="0" stroke-linecap="butt"/></g><g fill="#fffc96" stroke="#000000" stroke-width="2" stroke-linecap="round"><path d="M277.6012,234.084c0,0 4.35416,0.50696 4.26932,3.44999c-0.13576,4.70873 -32.62684,-1.15479 -32.78136,-6.07065c-0.06313,-2.00851 3.10584,-2.15553 3.10584,-2.15553l0.281,1.85044c0,0 5.85482,2.43958 13.40323,3.97602c7.44383,1.51515 12.52729,1.15971 12.52729,1.15971z"/><path d="M275.45248,225.73868c0,0 3.02362,-2.31506 3.96067,-0.19036c1.96702,4.46005 -27.37772,23.68036 -28.2394,19.12681c-0.52184,-2.75774 2.78157,-3.84714 2.78157,-3.84714l0.24668,1.35467c0,0 4.91612,-2.0474 11.47638,-6.50995c6.56027,-4.46254 10.1593,-8.68693 10.1593,-8.68693z" data-paper-data="{&quot;index&quot;:null}"/></g></g><path d="M282.98821,256.36317c0,0 4.92955,-0.92403 7.45508,-0.23997c1.93341,0.52366 2.67281,2.1502 3.24834,3.7112c1.57971,4.28472 0.16697,8.65476 0.47625,15.59692c0.08422,1.89074 -3.35811,3.05506 -5.73175,2.99961c-2.22005,-0.05187 -6.07523,-0.2504 -6.07523,-0.2504l-37.36064,-1.53468c0,0 -4.82884,-0.3245 -5.76192,-1.85597c-2.24704,-3.68806 -0.79612,-7.76512 -1.26834,-11.84744c-0.16003,-1.38344 5.25411,-1.65109 5.25411,-1.65109c0,0 10.05466,-1.24614 16.49019,-2.04372c9.08296,-1.1257 23.27394,-2.88446 23.27394,-2.88446z" data-paper-data="{&quot;index&quot;:null}" fill="#4b4b4b" stroke="#000000" stroke-width="3" stroke-linecap="round"/><path d="M244.18419,267.03949c0,0 2.42165,3.56696 2.17902,5.66877c-0.18571,1.60901 -2.08455,2.5624 -3.94051,3.37441c-5.09437,2.22881 -11.04928,2.17957 -19.86812,4.06253c-2.40187,0.51282 -4.75812,-1.85499 -5.28293,-3.69114c-0.49084,-1.71734 -1.20421,-4.72524 -1.20421,-4.72524l-7.41215,-29.05743c0,0 -0.79636,-3.78555 0.93199,-4.86517c4.16222,-2.5999 9.75126,-2.45192 14.86426,-3.78217c1.73274,-0.45081 3.43487,3.64393 3.43487,3.64393c0,0 4.12103,7.42682 6.75869,12.18038c3.72276,6.70907 9.53907,17.19116 9.53907,17.19116z" data-paper-data="{&quot;index&quot;:null}" fill="#4b4b4b" stroke="#000000" stroke-width="3" stroke-linecap="round"/><path d="M224.10824,203.35985c0,0 -2.28877,-3.96124 -2.50812,-5.02441c-0.65806,-3.18951 -2.61423,-17.24274 -4.33998,-29.94993c-0.26693,-1.96549 0.91847,-5.25394 0.91847,-5.25394c0,0 1.96319,-1.9095 3.2125,-2.08613c13.78354,-1.94869 26.75173,-4.88631 32.07478,-4.04747c1.77435,0.27961 5.12755,1.57752 5.12755,1.57752c0,0 1.29576,4.25977 1.58096,5.3626c0.09507,0.36761 0.14958,0.57438 0.22258,0.947c2.18718,11.16473 3.51381,24.24803 3.76319,28.84628c0.08313,1.53276 -1.39504,4.1454 -1.39504,4.1454c0,0 -1.00766,2.88906 -5.2585,4.28281c-4.65117,1.52499 -16.30997,2.73238 -28.33653,3.94044z" fill="#582700" stroke="#000000" stroke-width="2.5" stroke-linecap="round"/><path d="M260.97993,158.85462l-0.7783,-0.42161c-0.09274,-0.01821 -0.18537,-0.03592 -0.2779,-0.05316c-0.17695,0.33842 -0.55432,0.75621 -1.31567,0.61465c-0.7017,-0.13047 -0.92825,-0.58709 -0.99349,-0.9549c-2.69345,-0.29629 -5.34312,-0.25358 -8.11338,-0.124c-7.72142,0.62613 -15.37833,1.85002 -23.05078,2.91497c-2.51621,0.34925 -8.00767,2.14327 -10.34105,0.76409c-1.13798,-0.67261 -1.00245,-2.64032 -1.24673,-3.66963c-0.70782,-2.98271 -1.5079,-6.06152 -1.94104,-9.09846c-0.5396,-3.97326 -2.51687,-7.31399 -3.55733,-11.1401c-0.52161,-1.91815 -1.45516,-3.78974 0.05859,-5.71971c0.42741,-0.54493 1.33203,-0.387 2.01218,-0.5175c2.48572,-0.47695 4.93244,-0.64127 7.44964,-0.68951c7.97696,-0.15289 15.80775,-0.71224 23.79772,-0.377c3.22365,0.13903 6.40248,-0.23174 9.61123,-0.56605c1.88585,-0.19648 3.52417,-0.96932 4.9436,1.02069c0.84765,1.18838 0.90107,5.2233 1.05074,6.69875c0.57713,5.68927 2.43039,12.51555 2.02904,18.37447c0.12134,0.02221 0.24285,0.04518 0.36452,0.0689l1.38602,0.62409c0,0 1.12552,0.5438 0.58172,1.66931c-0.5438,1.12552 -1.66932,0.58171 -1.66932,0.58171z" data-paper-data="{&quot;index&quot;:null}" fill="#000000" stroke="none" stroke-width="0.5" stroke-linecap="butt"/><path d="M234.84572,177.20918c0.53863,-0.09539 1.49718,2.77461 2.14102,6.41029c0.64384,3.63568 0.72915,6.66031 0.19052,6.75568c-0.53863,0.09539 -1.49718,-2.7746 -2.14103,-6.41028c-0.64384,-3.63568 -0.72916,-6.66033 -0.19052,-6.7557z" data-paper-data="{&quot;index&quot;:null}" fill="none" stroke="#000000" stroke-width="2.5" stroke-linecap="butt"/><path d="M237.34369,174.78031c0.75152,0.99886 -0.24734,1.75037 -0.24734,1.75037l-0.66657,0.47959c-1.04541,1.10017 -1.63674,1.62014 -2.47097,1.93654l0.10999,0.19892l-1.19384,0.66011c-0.13689,0.07991 -0.29134,0.13494 -0.45807,0.15808c-0.68381,0.09492 -1.31507,-0.38248 -1.40998,-1.06628c-0.05486,-0.39527 0.0815,-0.77298 0.33842,-1.0397l0.87257,-0.9215l0.02445,0.02315l0.03012,-0.07735c0.77622,-0.64192 1.55882,-1.2763 2.35081,-1.89868c0,0 0.33,-0.2593 0.75782,-0.28618l0.21223,-0.16443c0,0 0.99886,-0.75151 1.75037,0.24734z" fill="#582700" stroke="none" stroke-width="0.5" stroke-linecap="butt"/><path d="M244.26926,176.00213c0.53864,-0.09539 1.49718,2.77462 2.14103,6.4103c0.64385,3.63568 0.72914,6.66031 0.1905,6.75568c-0.53864,0.09539 -1.49718,-2.77461 -2.14103,-6.41029c-0.64385,-3.63568 -0.72915,-6.66031 -0.19052,-6.75569z" data-paper-data="{&quot;index&quot;:null}" fill="none" stroke="#000000" stroke-width="2.5" stroke-linecap="butt"/><path d="M243.21616,173.87874l0.24898,0.10041c0.41896,-0.09064 0.80712,0.06897 0.80712,0.06897c0.93155,0.38315 1.85734,0.78041 2.77905,1.18666l0.05006,0.06623l0.01723,-0.02895l1.09057,0.64902c0.31985,0.18666 0.55393,0.51296 0.6088,0.90823c0.09492,0.68381 -0.38247,1.31507 -1.06627,1.40998c-0.16674,0.02314 -0.33035,0.01225 -0.48382,-0.02734l-1.32849,-0.31001l0.05166,-0.22135c-0.88888,-0.07723 -1.59946,-0.41649 -2.90499,-1.19036l-0.772,-0.27991c0,0 -1.16577,-0.45106 -0.71471,-1.61685c0.45106,-1.16577 1.61684,-0.71472 1.61684,-0.71472z" data-paper-data="{&quot;index&quot;:null}" fill="#582700" stroke="none" stroke-width="0.5" stroke-linecap="butt"/><g data-paper-data="{&quot;index&quot;:null}"><g data-paper-data="{&quot;origRot&quot;:0}" stroke="#000000" stroke-width="3" stroke-linecap="round"><path d="M260.92285,258.75843c-0.22639,2.44234 -9.3357,-0.04348 -9.3357,-0.04348c0,0 -24.27483,-5.94038 -35.75136,-8.70018c-4.65667,-1.8306 -2.21107,-40.78246 2.38223,-44.54387c2.04753,-1.67671 12.61379,-2.74308 14.05654,-1.18597c2.74618,2.96382 6.51514,19.59528 6.51514,19.59528l-4.47864,-0.27253l11.67224,1.77847c0,0 13.74413,0.94265 19.40678,2.86023c3.14056,1.06351 -4.46725,30.51205 -4.46725,30.51205z" data-paper-data="{&quot;origPos&quot;:null}" fill="#582700"/><path d="M250.4355,256.81177l4.15586,-29.76644" fill="none"/><path d="M246.13791,256.42584l3.85173,-29.81426" data-paper-data="{&quot;origPos&quot;:null}" fill="none"/></g><path d="M250.16014,257.39924l-2.98848,-0.45202l4.04615,-30.47965l2.9885,0.45202z" fill="#ffffff" stroke="none" stroke-width="0" stroke-linecap="butt"/><path d="M215.50719,250.12251l-2.17013,-11.02865l1.98751,-23.95184l2.72994,-8.03264l4.2608,-3.10339l8.01987,0.7868l1.60397,0.15737l5.99944,17.69259l-3.22588,-0.06496l-0.14334,1.99818l14.11469,2.13933l-2.97012,30.14368l-28.58486,-6.82885z" fill="#66c8ff" stroke="#000000" stroke-width="0.5" stroke-linecap="round"/></g><path d="M253.35109,194.54778c-0.41067,0.62758 -1.03824,0.21691 -1.03824,0.21691l-0.13192,-0.10373c-1.91161,-0.79728 -4.12232,-0.4942 -6.04507,0.1383c0,0 -0.71272,0.23352 -0.94623,-0.47921c-0.23351,-0.71272 0.47921,-0.94624 0.47921,-0.94624c2.29611,-0.7495 4.7889,-0.99592 7.07132,-0.10471l0.39403,0.24043c0,0 0.62758,0.41067 0.21691,1.03824z" fill="#000000" stroke="none" stroke-width="0.5" stroke-linecap="butt"/></g></g></svg>