<svg version="1.1" xmlns="http://www.w3.org/2000/svg" xmlns:xlink="http://www.w3.org/1999/xlink" width="84.28262" height="180.63425" viewBox="0,0,84.28262,180.63425"><g transform="translate(-197.41721,-96.46979)"><g data-paper-data="{&quot;isPaintingLayer&quot;:true}" fill-rule="nonzero" stroke-linejoin="miter" stroke-miterlimit="10" stroke-dasharray="" stroke-dashoffset="0" style="mix-blend-mode: normal"><g stroke="#000000" stroke-linecap="round"><path d="M231.81151,175.44406c0,0 -28.3236,5.44456 -28.07434,-12.5343c0.09182,-6.624 16.29461,-4.75703 16.29461,-4.75703z" data-paper-data="{&quot;origPos&quot;:null}" fill="#66c8ff" stroke-width="2"/><path d="M223.96321,163.62328c0,0 -15.88536,-2.16445 -15.66654,-2.7746c0.69383,-1.93458 12.464,-1.1754 12.464,-1.1754z" data-paper-data="{&quot;origPos&quot;:null}" fill="#0a0a0a" stroke-width="1"/></g><g><g data-paper-data="{&quot;index&quot;:null}"><g stroke="#000000" stroke-width="3" stroke-linecap="round"><path d="M277.89763,204.96886c0,0 2.74749,10.38404 2.23954,14.9636c-15.76645,6.13144 -25.35895,3.36785 -25.35895,3.36785c-1.99931,0.36651 -2.13935,-6.90708 -2.13935,-6.90708c0,0 -0.73881,-14.19023 -1.21171,-23.27268c-0.31052,-5.96391 -0.79567,-15.2818 -0.79567,-15.2818c0,0 -0.04693,-5.92433 1.04857,-6.03705c6.59072,-0.67811 12.83595,-2.63358 16.19303,-1.8002c1.11903,0.27779 2.61026,5.79475 2.61026,5.79475l7.41425,29.1726z" data-paper-data="{&quot;origPos&quot;:null}" fill="#582700"/><path d="M278.50109,210.69503l-25.4109,3.58698l-0.4613,-3.3706l25.41519,-3.84559z" data-paper-data="{&quot;origPos&quot;:null}" fill="none"/></g><path d="M252.35218,210.48698l-1.12034,-36.85053l1.1696,-0.84719l15.6383,-2.3398l9.21869,36.26303z" fill="#66c8ff" stroke="#000000" stroke-width="1" stroke-linecap="round"/><path d="M252.99275,213.84601l-0.32866,-2.30781l25.24611,-3.5953l0.32866,2.30781z" fill="#ffffff" stroke="none" stroke-width="0" stroke-linecap="butt"/></g><g fill="#fffc96" stroke="#000000" stroke-width="2" stroke-linecap="round"><path d="M276.11533,200.31533c0,0 4.35053,0.53732 4.24516,3.47968c-0.16859,4.70767 -32.61799,-1.38228 -32.73823,-6.2991c-0.04912,-2.00889 3.12079,-2.13382 3.12079,-2.13382l0.26808,1.85235c0,0 5.83766,2.48035 13.37519,4.06939c7.43308,1.56702 12.51891,1.24704 12.51891,1.24704z"/><path d="M274.02486,191.95523c0,0 3.03969,-2.29392 3.96191,-0.16273c1.93587,4.47365 -27.5422,23.48887 -28.3721,18.92942c-0.5026,-2.76131 2.80832,-3.82765 2.80832,-3.82765l0.23722,1.35635c0,0 4.93028,-2.01307 11.52151,-6.42976c6.59124,-4.41669 10.21963,-8.61588 10.21963,-8.61588z" data-paper-data="{&quot;index&quot;:null}"/></g></g><g data-paper-data="{&quot;origRot&quot;:0}" stroke="#000000" stroke-linecap="round"><path d="M242.70406,225.90859c0,0 -0.14629,-4.75278 1.45151,-4.75204c4.71487,0.00224 9.26284,-1.67371 13.67461,-0.08268c1.832,0.66067 2.60753,4.84311 2.60753,4.84311l4.88239,32.4572c0,0 0.54981,3.34514 0.7949,5.27779c0.26204,2.06633 -0.78352,5.18803 -2.95597,5.30437c-7.97654,0.42721 -12.86325,2.0992 -17.90255,1.15062c-1.8359,-0.34559 -3.76057,-0.82765 -4.52201,-2.46269c-0.99467,-2.13579 -0.34869,-6.53148 -0.34869,-6.53148z" data-paper-data="{&quot;origPos&quot;:null}" fill="#ff0000" stroke-width="3"/><path d="M266.21882,266.97103c0,0 -6.07675,2.74734 -11.34193,2.87507c-4.03963,0.098 -12.81609,-0.70354 -12.81609,-0.70354c0,0 -1.4686,-2.54782 -1.60276,-4.12997c-0.14135,-1.6667 0.89677,-4.19484 0.89677,-4.19484l24.10559,-1.37482z" data-paper-data="{&quot;origPos&quot;:null}" fill="#976e57" stroke-width="2"/><path d="M242.79671,226.22421c0,0 -0.1463,-4.75278 1.4515,-4.75203c4.71486,0.00224 9.26284,-1.67371 13.67462,-0.08266c1.832,0.66067 2.60752,4.84309 2.60752,4.84309l4.88239,32.45719c0,0 0.54983,3.34516 0.79492,5.2778c0.26204,2.06633 -0.78353,5.18802 -2.95597,5.30437c-7.97654,0.42721 -12.86325,2.09921 -17.90255,1.15063c-1.8359,-0.34559 -3.76056,-0.82767 -4.522,-2.46269c-0.99467,-2.13579 -0.34869,-6.53148 -0.34869,-6.53148z" data-paper-data="{&quot;origPos&quot;:null}" fill="#4b4b4b" stroke-width="3"/></g><path d="M233.55721,265.64174c0,0 -0.7973,4.37289 -2.42989,6.11296c-1.24982,1.33209 -3.23621,1.22504 -5.09429,1.01422c-5.10018,-0.57869 -9.21335,-3.60634 -16.66672,-6.35771c-2.02996,-0.74935 -2.02217,-4.02735 -1.10905,-5.91667c0.85404,-1.76707 2.4518,-4.78875 2.4518,-4.78875l15.07222,-29.45148c0,0 2.08149,-3.75208 4.03707,-3.84223c4.70938,-0.21713 8.49896,2.71467 12.9864,4.09856c1.52072,0.46899 -0.1452,4.94879 -0.1452,4.94879c0,0 -2.30159,8.64327 -3.77473,14.17542c-2.07917,7.80795 -5.32761,20.00691 -5.32761,20.00691z" fill="#4b4b4b" stroke="#000000" stroke-width="3" stroke-linecap="round"/><g><path d="M221.01573,184.72761c0,0 2.25754,-14.23782 4.50045,-14.74482c6.72867,-1.52103 22.03061,-0.35573 32.26871,-0.19283c1.58271,0.02518 2.71643,13.4492 2.71643,13.4492l1.31603,30.36077c0,0 -0.00569,14.81704 -1.73226,14.78956c-15.36967,-0.24455 -33.39862,0.31318 -40.23474,-0.62861c-2.27869,-0.31392 -1.15019,-15.90537 -1.15019,-15.90537z" data-paper-data="{&quot;origPos&quot;:null}" fill="#66c8ff" stroke="#000000" stroke-width="3.5" stroke-linecap="round"/><path d="M240.38286,193.15737c-1.33714,-0.02128 -1.29431,-2.48468 -1.29431,-2.48468c0.08883,-5.10927 0.20623,-11.86079 0.29506,-16.97006c0,0 0.04283,-2.4634 1.37997,-2.44213c1.33714,0.02128 1.29431,2.48467 1.29431,2.48467c-0.08883,5.10927 -0.17767,10.21853 -0.2665,15.3278l-0.02855,1.64226c0,0 -0.04284,2.4634 -1.37998,2.44213z" fill="#ffffff" stroke="none" stroke-width="0.5" stroke-linecap="butt"/><path d="M252.69629,199.627c-1.33714,-0.02128 -1.28334,-3.11599 -1.28334,-3.11599c0.1116,-6.41868 0.25908,-14.9005 0.37067,-21.31917c0,0 0.05381,-3.09473 1.39095,-3.07345c1.33714,0.02128 1.28333,3.116 1.28333,3.116c-0.1116,6.41868 -0.2232,12.83736 -0.3348,19.25604l-0.03587,2.06314c0,0 -0.05381,3.09472 -1.39095,3.07344z" fill="#ffffff" stroke="none" stroke-width="0.5" stroke-linecap="butt"/></g><g fill="none" stroke="#b9b9b9" stroke-width="3"><path d="M255.4463,174.73986c-0.83328,-1.35855 0.1333,-2.55128 1.42027,-3.73736c1.28699,-1.18606 2.56401,-1.53418 3.24032,-0.55781c1.43394,2.07018 -0.12463,3.01171 -1.13237,3.94044c-1.287,1.18608 -2.35142,2.27339 -3.52822,0.35475z" stroke-linecap="butt"/><path d="M253.75086,176.62342l2.72453,-2.45236" stroke-linecap="round"/><path d="M250.06867,177.18824c1.28699,-1.18606 2.56401,-1.53418 3.24032,-0.55781c1.43394,2.07018 -0.12463,3.01171 -1.13237,3.94044c-1.28698,1.18607 -2.35142,2.27339 -3.52822,0.35475c-0.83328,-1.35855 0.1333,-2.55128 1.42027,-3.73737z" stroke-linecap="butt"/><path d="M249.67747,180.35679l-2.72452,2.45239" stroke-linecap="round"/><path d="M241.1405,182.26867c0.44292,-1.61264 1.82541,-1.43748 3.39083,-0.95807c1.56542,0.47941 2.55107,1.46264 2.27807,2.69416c-0.57885,2.61115 -2.13569,1.72754 -3.36145,1.35215c-1.56542,-0.47941 -2.93296,-0.81077 -2.30743,-3.08822z" stroke-linecap="butt"/><path d="M242.13223,182.88447l-3.27387,-1.05075" stroke-linecap="round"/><path d="M233.76265,177.81673c0.94711,-1.28925 2.14972,-0.49041 3.41683,0.67437c1.26712,1.16478 1.83557,2.52912 1.17185,3.54371c-1.4073,2.15123 -2.53049,0.61611 -3.5227,-0.29595c-1.26712,-1.16479 -2.40352,-2.10137 -1.06598,-3.92211z" stroke-linecap="butt"/><path d="M231.82653,176.36305l2.63381,2.48056" stroke-linecap="round"/><path d="M227.13544,171.64433c0.94711,-1.28923 2.14971,-0.49042 3.41682,0.67437c1.26713,1.16478 1.83557,2.52911 1.17185,3.54371c-1.4073,2.15122 -2.53049,0.61611 -3.5227,-0.29594c-1.26712,-1.16478 -2.4035,-2.10137 -1.06596,-3.92212z" stroke-linecap="butt"/><path d="M225.19932,170.19064l2.63383,2.48056" stroke-linecap="round"/></g><path d="M255.66102,171.78421c-12.08191,-0.35276 -23.79699,-0.73094 -28.54452,-1.92248c-4.33894,-1.08899 -5.54878,-3.89941 -5.54878,-3.89941c0,0 -1.6596,-2.50133 -1.68529,-4.03613c-0.07708,-4.60438 0.31905,-17.74877 1.70957,-29.04043c0.0464,-0.37686 0.08614,-0.58697 0.15492,-0.96039c0.20631,-1.12026 1.19697,-5.46114 1.19697,-5.46114c0,0 3.25279,-1.53227 5.00287,-1.93692c5.25022,-1.21395 18.39397,0.79731 32.28095,1.76434c1.25867,0.08765 3.35225,1.85323 3.35225,1.85323c0,0 1.41547,3.19618 1.28849,5.17564c-0.82092,12.79752 -1.77631,26.95407 -2.20669,30.18218c-0.14344,1.07604 -2.14577,5.18952 -2.14577,5.18952z" fill="#582700" stroke="#000000" stroke-width="2.5" stroke-linecap="round"/><path d="M253.80855,151.57266c0.22053,-3.43789 0.81219,-6.19838 1.3215,-6.1657c0.50931,0.03266 0.74343,2.84613 0.52291,6.284c-0.22053,3.43789 -0.81219,6.19839 -1.3215,6.16571c-0.50931,-0.03266 -0.74343,-2.84613 -0.52291,-6.28401z" fill="none" stroke="#000000" stroke-width="2.5" stroke-linecap="butt"/><path d="M247.59983,151.25384c0.22461,-3.50157 0.71638,-6.32029 1.09835,-6.29578c0.38199,0.02451 0.50956,2.88295 0.28496,6.38451c-0.22461,3.50157 -0.71635,6.32026 -1.09834,6.29577c-0.38199,-0.02451 -0.50958,-2.88293 -0.28497,-6.38449z" fill="none" stroke="#000000" stroke-width="2.5" stroke-linecap="butt"/><path d="M218.63002,127.10143c-0.62219,-1.08415 0.46196,-1.70634 0.46196,-1.70634l1.3383,-0.72074c0.11969,-0.03228 0.23925,-0.06381 0.35872,-0.09457c-0.81553,-5.81574 0.54934,-12.75619 0.72185,-18.47205c0.04473,-1.48233 -0.18791,-5.51089 0.57339,-6.75636c1.27483,-2.08557 2.96379,-1.43079 4.85884,-1.36845c3.22439,0.1061 6.42148,0.25068 9.62718,-0.11645c7.94614,-0.9006 15.79688,-0.89758 23.76461,-1.31035c2.51428,-0.13024 4.96648,-0.13973 7.47977,0.15987c0.68769,0.08198 1.57884,-0.13966 2.04379,0.37362c1.64671,1.81785 0.84814,3.75088 0.46376,5.70117c-0.7667,3.89022 -2.50226,7.36269 -2.75894,11.36418c-0.21683,3.06 -0.79673,6.18778 -1.29141,9.21315c-0.17072,1.04403 0.10391,2.99718 -0.98355,3.74876c-2.22978,1.54107 -7.83457,0.14071 -10.36921,-0.02936c-7.72862,-0.51857 -15.45301,-1.19678 -23.19939,-1.27417c-2.77248,0.06707 -5.41853,0.21224 -8.08419,0.69865c-0.03901,0.37149 -0.23262,0.84303 -0.92332,1.02289c-0.74939,0.19515 -1.15542,-0.19484 -1.35591,-0.51987c-0.09107,0.02376 -0.18222,0.048 -0.27344,0.07273l-0.74648,0.4757c0,0 -1.08415,0.62219 -1.70634,-0.46196z" fill="#000000" stroke="none" stroke-width="0.5" stroke-linecap="butt"/><g><g stroke="#000000" stroke-width="3" stroke-linecap="round"><path d="M201.64869,204.05255l8.38032,-28.90989c0,0 1.67389,-5.46432 2.80153,-5.70474c3.38294,-0.72128 9.55967,1.44081 16.1242,2.33772c1.09115,0.14909 0.84723,6.06858 0.84723,6.06858c0,0 -0.79476,9.2966 -1.30344,15.24688c-0.77469,9.0617 -1.985,23.21951 -1.985,23.21951c0,0 -0.38185,7.26491 -2.36787,6.83212c0,0 -9.67911,2.44304 -25.23292,-4.20932c-0.35538,-4.59393 2.73593,-14.88085 2.73593,-14.88085z" data-paper-data="{&quot;origPos&quot;:null}" fill="#582700"/><path d="M201.43254,206.14348l25.27324,4.68867l-0.57314,3.35339l-25.27755,-4.43007z" data-paper-data="{&quot;origPos&quot;:null}" fill="none"/></g><path d="M202.22954,205.81649l10.41956,-35.9364l15.55184,2.85858l1.14078,0.88561l-2.34523,36.79289z" fill="#66c8ff" stroke="#000000" stroke-width="1" stroke-linecap="round"/><path d="M201.132,209.32013l0.40523,-2.29561l25.11258,4.43289l-0.40522,2.29561z" fill="#ffffff" stroke="none" stroke-width="0" stroke-linecap="butt"/></g><path d="M245.25445,164.21221c-0.09749,1.93398 -1.74434,3.42277 -3.67832,3.32528c-1.93398,-0.09749 -3.42277,-1.74434 -3.32528,-3.67832c0.09749,-1.93398 1.74434,-3.42277 3.67832,-3.32528c1.93398,0.09749 3.42277,1.74434 3.32528,3.67832z" fill="#ff8484" stroke="#000000" stroke-width="1" stroke-linecap="butt"/></g></g></svg>