<svg version="1.1" xmlns="http://www.w3.org/2000/svg" xmlns:xlink="http://www.w3.org/1999/xlink" width="186.85167" height="186.85167" viewBox="0,0,186.85167,186.85167"><g transform="translate(-146.57416,-86.57417)"><g data-paper-data="{&quot;isPaintingLayer&quot;:true}" fill-rule="nonzero" stroke-linejoin="miter" stroke-miterlimit="10" stroke-dasharray="" stroke-dashoffset="0" style="mix-blend-mode: normal"><path d="M329.71846,273.42584l-183.1443,-3.70737l3.70737,-183.1443l183.1443,3.70737z" fill="none" stroke="none" stroke-width="0" stroke-linecap="butt"/><path d="M148.40909,271.59091v-183.18182h183.18182v183.18182z" data-paper-data="{&quot;index&quot;:null}" fill="none" stroke="none" stroke-width="0" stroke-linecap="butt"/><g stroke-linecap="round"><path d="M269.29437,173.62153l-2.24595,69.46077c0,0 -43.5219,5.83683 -49.99017,0.91881c-9.41025,-7.15492 -0.77698,-65.33874 -0.77698,-65.33874" data-paper-data="{&quot;index&quot;:null}" fill="#ffcde0" stroke="#561b25" stroke-width="1.5"/><path d="M218.74596,194.15805c0,0 -7.94882,6.27215 -20.48348,15.0312c-0.75599,0.52827 -7.16012,-4.58604 -10.42871,-8.63439c-4.45685,-5.52008 -13.87077,-21.46199 -13.87077,-21.46199c0,0 33.76369,-65.32711 63.75167,-65.31968c37.25262,0.00923 68.30495,67.99286 68.30495,67.99286c0,0 -10.05136,15.54788 -14.72796,20.88307c-3.42975,3.91276 -10.0356,8.76373 -10.76959,8.20528c-12.16992,-9.25917 -23.92307,-17.53906 -23.92307,-17.53906" data-paper-data="{&quot;index&quot;:null}" fill="#ffcde0" stroke="#561b25" stroke-width="1.5"/><path d="M269.29437,173.62153l-2.24595,69.46077c0,0 -43.5219,5.83683 -49.99017,0.91881c-9.41025,-7.15492 -0.77698,-65.33874 -0.77698,-65.33874" data-paper-data="{&quot;index&quot;:null}" fill="#488456" stroke="#142518" stroke-width="5"/><path d="M218.74596,194.15805c0,0 -7.94882,6.27215 -20.48348,15.0312c-0.75599,0.52827 -7.16012,-4.58604 -10.42871,-8.63439c-4.45685,-5.52008 -13.87077,-21.46199 -13.87077,-21.46199c0,0 33.76369,-65.32711 63.75167,-65.31968c37.25262,0.00923 68.30495,67.99286 68.30495,67.99286c0,0 -10.05136,15.54788 -14.72796,20.88307c-3.42975,3.91276 -10.0356,8.76373 -10.76959,8.20528c-12.16992,-9.25917 -23.92307,-17.53906 -23.92307,-17.53906" data-paper-data="{&quot;index&quot;:null}" fill="#488456" stroke="#142518" stroke-width="5"/></g></g></g></svg>