<svg version="1.1" xmlns="http://www.w3.org/2000/svg" xmlns:xlink="http://www.w3.org/1999/xlink" width="258.66667" height="258.66667" viewBox="0,0,258.66667,258.66667"><g transform="translate(-107.43868,-52.08777)"><g data-paper-data="{&quot;isPaintingLayer&quot;:true}" fill-rule="nonzero" stroke-linejoin="miter" stroke-miterlimit="10" stroke-dasharray="" stroke-dashoffset="0" style="mix-blend-mode: normal"><path d="" data-paper-data="{&quot;index&quot;:null}" fill="#000000" stroke="none" stroke-width="0.5" stroke-linecap="butt"/><path d="M195.45471,247.03349l-3.00104,-15.28946c0,0 3.53544,-7.91715 9.70196,-8.5312c12.73154,-1.26777 62.554,1.33617 62.554,1.33617c0,0 4.04959,-0.97648 5.28623,1.37224c0.6146,1.16731 -0.08244,5.41295 0.54495,8.05776c1.10252,4.64774 3.40281,8.1079 3.40281,8.1079z" data-paper-data="{&quot;index&quot;:null}" fill="#080f95" stroke="#000000" stroke-width="2.5" stroke-linecap="butt"/><g data-paper-data="{&quot;index&quot;:null}" stroke-linecap="butt"><path d="M200.86679,220.85426c0,0 1.23486,-25.43053 16.73365,-25.43053c6.70782,0 25.31448,-1.66226 32.2176,4.95424c-5.11186,19.46386 10.69085,25.52435 10.69085,25.52435c0,0 -10.09001,6.1769 -32.23017,5.66955c-15.4945,-0.35506 -27.41193,-10.71762 -27.41193,-10.71762z" fill="#ab9efa" stroke="#000000" stroke-width="2.5"/><path d="M207.68942,214.71792c0,0 0.66337,-3.3447 -0.39988,-8.00136c-0.19892,-0.87115 -8.77762,-0.67769 -12.51915,-2.43287c-5.41095,-2.53831 -7.78975,-7.18885 -7.98045,-8.58698c-0.49365,-3.61914 6.53474,-5.47288 10.24423,-7.91489c6.06957,-3.99568 10.99745,-7.49215 16.97821,-7.49215c17.24367,0 31.22243,8.85866 31.22243,19.78636c0,10.9277 -14.09417,13.94038 -30.41444,10.0056c-4.31608,3.14782 -7.13095,4.6363 -7.13095,4.6363z" fill="#9362ec" stroke="none" stroke-width="0"/><g stroke="none" stroke-width="0.5"><path d="M230.53563,213.98853c0,0 -7.91108,0.51726 -9.38788,0.99143c-1.65804,0.53237 -0.07976,2.04843 -0.07976,2.04843c1.43746,0.42865 3.60005,0.36648 5.08005,0.3708c5.51155,0.01609 9.85999,-2.11218 13.02498,-6.41516c0.10652,-0.39224 0.17356,-0.79579 0.20814,-1.20291c-2.78742,1.70679 -5.64362,3.56051 -8.84552,4.20742zM237.95984,207.34528c0.52822,-0.32982 1.05197,-0.6508 1.57251,-0.95026c0.19599,-0.20029 0.47629,-0.37126 0.87396,-0.47689c1.71491,-0.45553 2.18262,1.21476 2.18262,1.21476l0.42146,1.6359c0.08331,1.46595 -0.13298,2.9568 -0.52294,4.37501c-3.8511,5.54401 -9.26961,8.40753 -16.23798,8.42462c-1.76202,0.00432 -4.62613,0.04908 -6.28656,-0.57141c-5.17575,-1.93416 -5.31943,-7.54991 -3.8712,-11.8361l1.64383,-1.33052l2.8778,1.21135l-1.14897,1.21414c-0.12861,0.37017 -0.25849,0.79645 -0.37063,1.25448h1.22366c1.6294,0 3.36043,0.11457 5.07814,0.13244c4.0391,-1.1012 8.30023,-2.11538 11.97548,-4.04765l0.28964,-0.14194c0,0 0.11526,-0.05612 0.2992,-0.10793z" fill="#b4052c"/><path d="M222.24047,207.47645c-0.43173,0.33168 -2.14981,1.48301 -2.14981,1.48301l-2.65317,-0.87845c0,0 2.47368,-3.72641 5.27985,-5.79041c5.24849,-3.86042 13.7802,-5.26115 18.14468,0.86438c0.33096,0.4645 1.16007,2.97576 1.16007,2.97576l-3.35,0.86156c0,0 -0.3028,-1.36779 -0.71749,-1.83493c-1.31634,-1.48283 -4.79842,-3.29005 -6.97095,-2.95472c-3.71722,0.57375 -6.01902,3.18079 -8.7432,5.2738z" fill="#ab164a"/></g></g><g data-paper-data="{&quot;index&quot;:null}" stroke-linecap="butt"><g data-paper-data="{&quot;index&quot;:null}"><path d="M288.96067,198.99943c-1.54713,6.81838 -15.7437,8.38429 -45.89264,6.40105c-14.73347,-0.96918 -33.18078,-8.13069 -41.96824,-13.71329c-5.7651,-3.66253 5.05246,-36.87276 11.16853,-39.94819c16.06307,-8.07722 48.14299,-11.59366 62.4707,-1.2299c8.77907,6.35024 4.53966,27.66786 4.53966,27.66786c0,0 -2.08764,3.63297 -3.8815,11.38991c4.15589,0.67874 14.75115,4.19833 13.56349,9.43253z" fill="#aa96c7" stroke="#000000" stroke-width="3"/><path d="M273.79053,185.35541c0,0 -21.93853,-11.60085 -25.71812,-11.39361c-0.68907,1.15233 -2.72928,15.02821 -3.2128,14.77984c-12.07885,-6.20467 -15.69961,-9.17486 -15.69961,-9.17486l-12.628,18.02319c0,0 -5.7698,-6.88951 -8.27611,-10.29099c0.11355,-2.20772 -2.47678,5.70605 -2.47678,5.70605l-4.1678,-2.48931c0,0 -0.61468,-1.45706 -0.4946,-2.71027c0.56935,-5.94202 3.7264,-22.83504 13.76321,-29.24503c11.69569,-7.46942 66.01715,0.97596 66.01715,0.97596c0,0 -1.78338,12.9997 -3.09114,17.75096c-1.64823,3.18976 -3.50084,8.49963 -3.50084,8.49963z" fill="#c172b1" stroke="none" stroke-width="0"/></g><g><g><path d="M177.74114,186.01399c0,0 -9.23345,-1.72865 -16.65101,0.55948c-5.14129,1.58596 -5.59461,10.19142 -7.68617,9.8394c-5.10919,-0.85989 -10.67987,-10.60779 -7.3589,-12.14684c4.28401,-1.98532 6.20866,-6.56223 11.28921,-8.25288c9.226,-3.07012 21.05661,-2.65583 21.05661,-2.65583z" fill="#0045d8" stroke="#000000" stroke-width="3"/><path d="M150.15995,192.60547c0,0 0.09506,-8.50715 5.5843,-11.65351c1.00948,-0.57862 2.20139,-0.97594 3.6087,-1.10571c7.69301,-0.70937 11.80182,-0.04427 14.02176,-1.08134c2.00592,-0.93707 2.04711,-4.1225 2.04711,-4.1225l1.8571,9.17656c0,0 -10.2887,0.81481 -17.39116,1.98129c-4.5537,0.74788 -4.65913,12.34754 -6.88071,8.40436z" fill="#080f95" stroke="none" stroke-width="0"/></g><g stroke="#000000"><path d="M285.37718,161.67977c0,0 -57.01563,5.97249 -66.75624,8.76302c-12.7096,3.6411 -24.72267,6.7167 -24.72267,6.7167c0,0 -12.45463,-4.62121 -16.07069,-16.96759c-1.10704,-3.77974 8.58845,-23.48561 9.981,-25.77876c4.21441,-6.94002 8.3743,-14.17614 19.94814,-18.24889c14.33399,-5.04402 33.42369,-8.95231 49.25481,-5.32784c18.40944,4.21476 31.01347,14.16162 35.13754,17.55821c6.7431,5.55362 -6.9731,12.71968 -6.9731,12.71968z" fill="#ae1c51" stroke-width="3"/><path d="M171.29484,160.15621c-0.24197,-7.58673 28.17684,-44.09804 32.02857,-43.87784c13.07117,0.74724 16.30966,53.69014 16.30966,53.69014l-28.12199,6.54645c0,0 -19.97815,-8.89315 -20.21624,-16.35875z" fill="#710c65" stroke-width="1.5"/></g></g><g><path d="M175.57807,164.1832c0.63676,-0.86236 10.04378,5.95485 14.8357,12.63372c2.75362,3.83795 1.56933,8.64145 1.31773,11.64367c-0.06865,0.81899 -2.46975,1.51154 -3.35208,2.37474c-1.5961,1.56149 -2.31691,3.16158 -4.30233,3.39316c-4.95323,0.57777 -10.67846,-27.09355 -8.499,-30.04529z" fill="#aa96c7" stroke="#000000" stroke-width="3"/><path d="M180.25105,185.86957c0,0 1.09683,0.38514 3.02821,-0.25005c2.44285,-0.80342 7.75445,-4.19461 7.75445,-4.19461c0,0 1.30163,3.82031 1.22493,4.92649c-0.10472,1.51008 -3.69879,4.521 -6.55203,5.87947c-1.55496,0.74034 -2.61239,0.23073 -2.79363,0.27206c-0.49559,0.11308 -2.6619,-6.63335 -2.6619,-6.63335z" fill="#c172b1" stroke="none" stroke-width="0"/><path d="M182.57,176.01812c0.0524,-0.58646 8.2781,3.94394 7.79576,5.19234c-0.62252,1.61126 -3.32112,9.08219 -5.41762,6.96459c-0.85624,-0.86486 -2.62615,-9.38104 -2.37813,-12.15694z" fill="#c172b1" stroke="#000000" stroke-width="1.5"/></g><g><g data-paper-data="{&quot;index&quot;:null}"><path d="M217.03394,186.07917c-1.72898,1.93859 -5.47151,-6.49957 -6.12378,-6.06895c-0.42871,0.28301 -5.2121,2.99352 -9.1043,6.18744c-3.95621,3.24642 -7.13752,7.55272 -7.28037,7.25417c-0.07772,-0.16242 -2.75956,-14.57111 -1.46346,-15.6858c7.15624,-6.15456 34.99094,-9.0228 34.99094,-9.0228c0,0 -8.79701,14.84446 -11.01904,17.33591z" fill="#346def" stroke="#000000" stroke-width="3"/><path d="M217.30667,174.93436l7.96637,-4.5856l-9.07178,14.9092z" fill="#45afff" stroke="none" stroke-width="0"/></g><g data-paper-data="{&quot;index&quot;:null}"><path d="M290.13254,168.10329c0,0 7.73456,3.35388 8.64509,13.81176c0.41054,4.71517 -4.15559,11.60818 -4.15559,11.60818c0,0 -7.27908,-9.97698 -15.51372,-12.83112c-0.86864,-0.30109 2.3709,-2.62823 0.99953,-3.22962c-7.57196,-3.32055 -24.38572,-7.95934 -32.44115,-10.23453c-0.63339,-0.17891 -2.18755,-0.60041 -2.59941,-0.17505c-2.14915,2.21956 -0.63935,10.69767 -2.71996,10.58375c-2.25023,-0.1232 -4.42677,-1.6013 -6.43574,-3.80332c-3.14213,-3.44403 -5.72138,-7.07428 -5.72138,-7.07428c0,0 10.62015,-46.23113 41.11471,-42.00871c-5.41615,6.05241 -15.26927,21.61705 -8.54231,15.8252c7.11193,-6.12332 17.88295,-7.79993 22.75503,-8.16432c7.24032,10.90844 29.20307,25.55778 29.20307,25.55778c0,0 -15.93055,9.36328 -24.58816,10.13428z" fill="#45afff" stroke="#000000" stroke-width="3"/><path d="M272.18471,158.89753c0,0 7.85445,8.09731 11.78238,12.53286c4.63063,5.22906 10.1465,18.66963 10.1465,18.66963c0,0 -5.79764,-5.33813 -7.8612,-6.93583c-2.30991,-1.78846 -5.34272,-3.28729 -5.34272,-3.28729c0,0 2.34372,-1.48595 0.04808,-3.52149c-1.50915,-1.33815 -4.92203,-2.07244 -9.95671,-3.67832c-3.82012,-1.21849 -20.60324,-6.08173 -25.45859,-7.28461c-0.80921,-0.20048 -1.57065,0.97161 -1.57065,0.97161c0,0 -1.32878,2.05364 -1.59139,3.38285c-0.38235,1.93512 -0.4327,6.40393 -0.4327,6.40393c0,0 -2.86269,-1.03889 -4.2075,-2.22714c-1.90007,-1.67887 -6.1144,-6.89319 -6.1144,-6.89319c0,0 0.30996,-4.35487 2.70255,-8.55439c1.29339,-4.68369 10.71264,-21.78558 10.71264,-21.78558c0,0 -1.59522,16.14279 -0.27196,14.87998c1.59577,-1.52286 2.85262,-5.25968 5.04657,-7.97755c2.52949,-3.13352 5.90333,-5.17318 5.90333,-5.17318c0,0 -1.73553,5.07384 -2.12105,7.47337c-0.42299,2.63274 -0.31486,7.68843 -0.31486,7.68843c0,0 9.22625,-3.242 17.39438,-5.70659c5.31316,-1.60313 10.70764,-2.94468 11.01404,-2.62062c7.36911,3.6521 19.52921,19.62569 19.52921,19.62569c0,0 -18.15621,-4.17461 -23.22383,-5.21874c-2.37937,-0.49025 -5.81213,-0.76382 -5.81213,-0.76382z" fill="#346def" stroke="none" stroke-width="0"/></g></g></g><g data-paper-data="{&quot;index&quot;:null}" stroke-linecap="butt"><g><g><path d="M232.25377,250.82661c0,-5.21706 -0.63871,-15.49543 5.93896,-19.7401c1.63872,-1.0575 5.91096,-4.11864 9.61683,-0.87757c0.42171,0.36881 -0.72685,1.34571 0.03585,2.71155c0.28153,0.50419 2.1426,0.55679 2.62487,1.14985c1.52345,1.87342 4.77436,3.69471 5.46864,3.6197c2.21012,-4.99272 9.01145,-11.01899 11.26727,-11.48107c4.0537,-0.83037 19.4331,2.38064 19.26907,5.19503c0.49627,2.28973 -3.37109,6.06111 -3.37109,6.06111c0,0 16.1806,8.27654 22.24075,11.57049c10.43514,5.67192 11.73688,9.24015 11.73688,9.24015c0,0 -0.47336,3.20419 -4.75246,4.3434c-8.38786,2.23307 -18.7922,2.88272 -30.99927,2.57919c-11.86031,-0.2949 -9.28486,-9.21258 -21.73065,-10.03489c-10.49399,-1.05605 -27.34563,4.32695 -27.34563,-4.3368z" fill="#ae1c51" stroke="#000000" stroke-width="3"/><path d="M296.68713,263.71087c0,0 -11.52148,1.13324 -17.32532,0.36646c-5.85631,-0.77371 -12.31,-9.49844 -17.99026,-10.24495c-12.02115,-1.57983 -21.05028,3.53547 -24.14267,1.62243c-0.19891,-0.12305 -4.89688,-1.73746 -4.28086,-7.02346c1.48088,-12.70725 7.60838,-14.64153 7.60838,-14.64153c0,0 7.08598,7.27997 15.38962,8.1968c1.62622,0.17955 0.50123,-2.4297 0.50123,-2.4297c0,0 -0.23688,-1.25467 0.14857,-2.0902c0.57722,-1.25128 2.97817,-4.6877 2.97817,-4.6877c0,0 0.77882,1.87914 2.96563,4.08721c2.63981,2.66545 7.68867,5.23978 12.91536,8.51498c5.81033,3.6409 15.55755,6.81758 17.89062,8.80856c2.54084,2.16827 3.34148,9.52107 3.34148,9.52107z" fill="#710c65" stroke="none" stroke-width="0"/><path d="M247.41162,233.84093c0,0 1.19129,0.1703 5.25985,2.21375c3.31235,1.66365 7.43563,5.48299 7.43563,5.48299c0,0 -2.54474,-1.72376 -7.90526,-2.75838c-5.57981,-1.07693 -4.79023,-4.93832 -4.79023,-4.93832z" fill="#000000" stroke="none" stroke-width="0"/></g><g fill="#ab9efa" stroke="#000000" stroke-width="2.5"><path d="M267.31462,248.8413c-1.69609,-1.09869 -2.03702,-3.35691 -1.67725,-4.72338c0.85352,-3.24204 3.7807,-5.18278 5.65102,-5.63306c7.92542,-1.90804 14.15398,-0.98523 14.00761,0.54035c-0.26375,2.74903 -6.01315,2.97177 -9.69257,5.36784c-1.86117,1.21202 -2.42017,2.52985 -3.52852,3.54236c-1.05813,0.96662 -2.85962,2.13711 -4.7603,0.9059z"/></g><g fill="#ab9efa" stroke="#000000" stroke-width="2.5"><path d="M275.37722,252.64262c-0.56646,-0.62722 0.6766,-4.63677 3.87417,-7.52274c7.59693,-6.85664 11.26833,-6.73121 12.70071,-4.46734c1.296,2.04835 -4.34004,4.79797 -8.29157,8.4174c-3.52721,3.23078 -7.1505,4.827 -8.28332,3.57267z"/></g><g fill="none" stroke="none" stroke-width="1" font-family="sans-serif" font-weight="normal" font-size="12" text-anchor="start"/></g><g><path d="M286.98562,272.31482c-6.29415,0 -16.22504,-7.09159 -23.76456,-7.8135c-11.10102,-1.06293 -28.90536,-2.67681 -32.29963,-5.77069c-3.10508,-2.83029 -4.56482,-7.05475 0.02878,-7.65123c1.00709,5.65697 6.63478,6.1334 11.04528,6.2309c5.33798,0.11802 12.02794,-3.43715 17.86433,-2.40243c2.63001,0.46626 4.95201,2.22052 7.08236,2.97364c6.24198,2.20666 14.15105,4.62045 20.03083,4.62045c13.55722,0 20.09142,1.34506 25.23039,-0.24117c2.79052,-0.86136 3.68329,-4.5583 5.05077,-4.73904c1.79002,-0.23658 3.73049,6.0389 3.73049,6.0389c0,0 0.01955,3.90194 -4.54707,6.50233c-4.77982,2.72178 -13.82583,2.25183 -29.45199,2.25183z" fill="#ab9efa" stroke="#000000" stroke-width="3"/><path d="M230.66426,251.16212c0,0 -0.39421,1.53522 1.38927,3.55463c1.1618,1.31549 2.98418,2.90146 7.6395,3.91386c4.08731,0.88887 16.42463,-4.16766 19.78264,-3.33354c8.62133,2.14149 13.07204,4.5854 21.39537,7.64746c1.86565,0.68635 3.4578,0.93229 5.29294,0.98225c1.33337,0.03629 3.67826,3.84039 5.46626,3.76353c4.82143,0.92504 9.28682,2.98316 9.28682,2.98316l-3.82793,-0.07968c0,0 -4.60347,2.37072 -13.11522,0.16167c-4.82747,-1.25288 -9.89942,-3.45444 -19.09143,-7.17196c-4.75681,-1.9238 -24.17299,-0.74765 -28.46417,-2.34846c-2.95247,-1.1014 -5.38099,-2.06128 -6.42197,-5.22331c-1.12951,-3.43094 0.66793,-4.84964 0.66793,-4.84964z" fill="#9362ec" stroke="none" stroke-width="0"/></g></g><g data-paper-data="{&quot;index&quot;:null}"><path d="M140.95937,258.17229c0.04405,-2.57054 0.32718,-6.30404 3.15646,-8.14884c7.03593,-4.58767 22.68446,-5.56279 41.35407,-5.56279c14.26835,0 27.36898,8.53909 36.91138,11.80317c6.94986,2.37726 11.29867,6.04435 11.12792,7.66396c-0.05078,0.48158 -0.83423,10.15067 -3.15065,11.72702c-9.59916,6.53234 -20.52798,8.58651 -46.49264,7.40156c-26.15258,-1.19353 -42.97308,-21.00211 -42.90654,-24.88407z" fill="#ab9efa" stroke="#000000" stroke-width="3" stroke-linecap="butt"/><path d="M148.01691,248.77729c0,0 -0.87977,12.35695 8.5993,20.47904c6.31328,5.40947 17.68963,10.66884 28.45271,10.92229c43.13025,1.01568 45.55313,-9.05646 45.55313,-9.05646c0,0 0.70413,0.72771 -0.27967,2.21362c-2.23675,3.37834 -11.08093,8.94798 -42.59551,9.06555c-7.28799,0.02718 -17.35302,-2.57427 -26.07453,-6.94092c-6.84473,-3.42699 -12.86193,-8.25779 -16.05979,-11.6295c-3.6367,-3.83439 -4.14488,-7.52266 -1.63019,-12.25445c1.39698,-2.62864 4.03453,-2.79918 4.03453,-2.79918z" fill="#9362ec" stroke="none" stroke-width="0" stroke-linecap="butt"/><path d="M147.12023,250.58987c0,0 0.20137,-0.87151 0.56791,-2.01497c0.43681,-1.36264 1.1082,-3.11149 1.95293,-4.23183c1.61371,-2.14018 3.69852,-2.33358 3.69852,-2.33358c0,0 1.06614,-2.70165 -1.76648,-5.53208c-4.21642,-4.21317 -8.52835,-12.82018 -4.94899,-13.10052c5.7634,-0.4514 7.92449,3.27351 12.70749,3.97721c2.63399,0.38753 9.33189,-1.73622 11.85798,-1.33345c11.74133,1.8721 17.95877,6.24192 24.52066,6.24192c7.61701,0 18.47608,1.9626 18.47608,1.9626c0,0 17.63243,-1.70667 21.29681,2.6734c1.55973,1.86436 0.85276,6.02947 1.52992,7.31799c1.00382,1.91009 -13.66952,2.88099 -13.66952,2.88099c0,0 -2.07967,4.49365 -2.57973,6.12242c-0.09292,0.30423 -3.21919,-0.75036 -4.63485,-0.65324c1.58926,0.4253 5.18798,1.97287 7.24025,3.68452c2.27902,1.90076 4.41661,5.77605 4.3352,9.68665c-0.05706,2.74013 -0.11355,3.58908 -1.89203,4.94768c-3.55521,2.71587 -12.67349,4.22244 -33.2062,4.22244c-17.06586,0 -33.23658,-6.67391 -40.61041,-13.76765c-5.93605,-5.71059 -4.87551,-10.75045 -4.87551,-10.75045z" fill="#ae1c51" stroke="#000000" stroke-width="3" stroke-linecap="butt"/><path d="M172.27526,234.59658c0,0 1.07654,-8.27094 7.39414,-11.25101c1.99873,-0.94282 5.44583,-0.13736 8.3551,0.05156c5.86942,0.38114 22.32013,7.24825 25.73322,13.30801c0.62744,1.11402 0.72443,4.34609 -1.32107,6.93065c-2.29264,2.89683 -6.79853,5.1064 -6.79853,5.1064" fill="#ae1c51" stroke="#000000" stroke-width="3" stroke-linecap="round"/><path d="M162.6547,229.03611c0,0 7.55533,7.02007 10.21157,6.96926c0.98914,-0.0189 1.25417,-3.57089 2.2286,-6.10956c0.64108,-1.67016 2.24655,-2.70355 2.24655,-2.70355c0,0 0.65822,-2.80323 3.96109,-2.83308c5.65035,-0.05107 14.36276,2.48254 14.36276,2.48254l2.11258,8.57703c0,0 8.77927,2.24334 9.99494,4.2847c2.03326,3.41425 -1.96468,8.20921 -1.96468,8.20921c0,0 -2.94505,12.16365 -1.29252,15.06075c10.1333,3.30492 16.35066,8.5452 16.35066,8.5452c0,0 -11.54601,8.32167 -51.18651,-1.70538c-8.11347,-2.05231 -16.51983,-5.8871 -18.88148,-12.36106c-0.95539,-2.61902 -2.99599,-3.97269 -2.44027,-6.69317c0.61598,-3.01549 3.89194,-7.09603 3.89194,-7.09603l1.59581,12.67204c0,0 1.93882,-1.15091 5.30726,-2.65399c6.33876,-2.82852 16.05713,-6.90415 15.61026,-6.90415c-6.59159,0 -20.94592,-4.54148 -20.94592,-4.54148c0,0 -6.26957,-9.67159 -5.90286,-15.36291c7.35204,4.55393 14.88168,5.18331 14.95858,4.36445z" fill="#710c65" stroke="none" stroke-width="0" stroke-linecap="butt"/><path d="M162.0841,252.64391c0.43392,-0.51776 -0.40641,-2.55911 2.74535,-2.8975c2.80363,-0.30102 8.91362,0.85284 15.647,1.72382c13.28163,1.71801 18.13009,4.01254 20.71426,7.13244c1.21819,1.47075 3.13084,3.54624 2.98192,5.05567c-0.1711,1.73414 -15.83929,-2.93161 -26.36222,-5.25546c-11.49971,-2.53956 -16.82518,-4.44787 -15.72631,-5.75899z" fill="#ab9efa" stroke="none" stroke-width="0" stroke-linecap="butt"/><path d="M163.11062,248.03949c0,-3.39059 0.05159,-4.37985 17.10916,-2.16678c20.0165,2.59696 27.54574,10.69345 27.54574,14.08405c0,3.39057 -7.42503,-7.46842 -27.37464,-9.02825c-16.02552,-1.25302 -17.28024,0.50157 -17.28024,-2.88903z" fill="#ab9efa" stroke="none" stroke-width="0" stroke-linecap="butt"/><path d="M163.62392,242.62252c0,-0.67679 3.0277,-4.69468 7.35694,-4.51412c5.12532,0.21377 15.99485,0.3965 24.81683,4.02801c5.21708,2.14758 9.94198,7.54 11.7399,8.91965c1.37859,1.05786 -0.74042,2.77542 -0.7986,3.1226c-0.29035,1.73245 -9.18699,-6.68088 -23.61063,-8.84766c-10.38387,-1.55991 -19.50444,1.57962 -19.50444,-2.70847z" fill="#ab9efa" stroke="none" stroke-width="0" stroke-linecap="butt"/><path d="M166.98623,239.72534c0,0 -0.1671,-1.07376 10.62116,-0.85753c14.02539,0.28112 16.50207,3.49157 16.50207,3.49157c0,0 -12.01103,12.02391 -16.88228,11.95674c-4.87124,-0.06715 -10.24095,-14.59078 -10.24095,-14.59078z" fill="#9362ec" stroke="none" stroke-width="0" stroke-linecap="butt"/><path d="M162.0841,252.64391c0.43392,-0.51776 -0.40641,-2.55911 2.74535,-2.8975c2.80363,-0.30102 8.91362,0.85284 15.647,1.72382c13.28163,1.71801 18.13009,4.01254 20.71426,7.13244c1.21819,1.47075 3.13084,3.54624 2.98192,5.05567c-0.1711,1.73414 -15.83929,-2.93161 -26.36222,-5.25546c-11.49971,-2.53956 -16.82518,-4.44787 -15.72631,-5.75899z" fill="none" stroke="#000000" stroke-width="2" stroke-linecap="butt"/><path d="M163.11062,248.03949c0,-3.39059 0.05159,-4.37985 17.10916,-2.16678c20.0165,2.59696 27.54574,10.69345 27.54574,14.08405c0,3.39057 -7.42503,-7.46842 -27.37464,-9.02825c-16.02552,-1.25302 -17.28024,0.50157 -17.28024,-2.88903z" fill="none" stroke="#000000" stroke-width="2" stroke-linecap="butt"/><path d="M163.62392,242.62252c0,-0.67679 3.0277,-4.69468 7.35694,-4.51412c5.12532,0.21377 15.99485,0.3965 24.81683,4.02801c5.21708,2.14758 9.94198,7.54 11.7399,8.91965c1.37859,1.05786 -0.74042,2.77542 -0.7986,3.1226c-0.29035,1.73245 -9.18699,-6.68088 -23.61063,-8.84766c-10.38387,-1.55991 -19.50444,1.57962 -19.50444,-2.70847z" fill="none" stroke="#000000" stroke-width="2" stroke-linecap="butt"/></g><g data-paper-data="{&quot;index&quot;:null}" stroke-linecap="butt"><path d="M177.39826,212.43258c0,0 6.93343,1.68283 8.81992,-0.48248c2.04219,-2.34407 1.78346,-12.92078 1.78346,-12.92078c0,0 4.04259,4.56396 6.55607,6.01931c3.00506,1.73997 11.48409,3.55254 11.48409,3.55254c0,0 3.90457,7.90831 0.79404,12.72437c-3.51097,5.43606 -21.76051,7.50735 -27.72544,4.13206c-8.75801,-4.95575 -1.71218,-13.02504 -1.71218,-13.02504z" fill="#aa96c7" stroke="#000000" stroke-width="2.5"/><path d="M187.09582,207.28743c0,0 -0.31263,-6.26593 2.03993,-6.13348c1.31702,0.07415 4.31458,2.5085 7.34882,3.96166c4.5538,2.18091 9.2834,3.65642 9.2834,3.65642l0.60062,7.62866c0,0 -4.86471,0.38896 -10.8229,-1.48406c-5.33923,-1.67846 -8.44986,-7.6292 -8.44986,-7.6292z" fill="#c172b1" stroke="none" stroke-width="0"/><path d="M185.7647,195.93427c0,0 -1.4422,-3.85418 2.34301,-6.59714c1.32938,-0.96335 5.31667,-0.46286 6.99303,0.12243c1.93283,0.67484 1.47412,1.53226 1.47412,1.53226c0,0 -10.23189,1.70313 -6.81828,7.66737c2.14442,3.74672 6.78445,6.27543 9.14221,6.59363c11.8224,1.59555 20.46727,-6.37161 20.46727,-6.37161c0,0 -3.86229,6.44826 -6.32466,7.77995c-2.34143,1.26626 -6.53784,2.05015 -11.57994,1.53286c-11.08629,-1.13741 -15.69676,-12.25979 -15.69676,-12.25979z" fill="#000000" stroke="none" stroke-width="0"/></g><g data-paper-data="{&quot;index&quot;:null}" stroke="none" stroke-width="0" stroke-linecap="butt"><path d="M172.90285,217.16843c0,0 -1.74989,-3.06095 -1.11206,-3.69715c1.08383,-1.08104 4.90819,0.17102 5.77647,1.45466c1.73022,2.55789 2.56535,9.25415 8.52304,9.9088c7.62075,0.83739 13.28992,0.42498 14.96085,0.18309c0.67668,-0.09796 -0.08555,2.22598 -0.08555,2.22598c0,0 -2.25534,4.11492 -5.60863,6.80998c-3.97798,3.19712 -9.47051,5.37199 -13.55205,4.95508c-4.29715,-0.43893 -8.90207,-21.84045 -8.90207,-21.84045z" fill="#0045d8"/><path d="M169.76939,221.79737c0,0 -2.64038,-5.97726 -1.66906,-6.55841c0.93754,-0.56095 4.47534,-1.51721 4.47534,-1.51721c0,0 5.57994,23.38624 8.76644,25.37706c1.52758,0.95438 15.3176,-6.77149 15.3176,-6.77149c0,0 -7.35434,13.96347 -17.04896,12.89819c-0.36363,-0.03995 -4.57529,-5.62025 -7.113,-11.89716c-2.15887,-5.33984 -2.72838,-11.53099 -2.72838,-11.53099z" fill="#0f1b82"/><path d="M202.3892,224.05626c0,0 -0.75344,1.5754 -4.75388,2.13886c-3.90971,0.55065 -11.02265,0.10069 -14.88523,-0.82594c-3.42568,-0.82181 -5.33846,-10.18301 -5.33846,-10.18301c0,0 -5.3032,-1.91913 -5.5742,-1.76278c-1.0031,0.57871 -0.85306,6.0104 -0.85306,6.0104c-0.82923,1.65679 -0.01446,3.88932 0.81087,7.2125c1.65051,6.6459 5.35293,15.97325 7.96195,16.30282c8.88588,1.12249 18.62523,-13.71698 18.62523,-13.71698c0,0 -0.00701,3.09788 -2.02606,6.44955c-3.04627,5.05689 -9.37,10.99752 -16.80553,10.18048c-4.43153,-0.48696 -13.19432,-15.97093 -12.97769,-25.08531c0.07032,-2.95827 1.65725,-8.66997 4.16946,-10.26083c3.19294,-2.02192 9.32604,-0.17751 9.32604,-0.17751c0,0 -1.14651,1.54779 -0.40098,3.88576c0.94525,2.96429 3.29434,7.76589 4.98801,8.6375c3.22514,1.65975 16.20809,0.13485 16.20809,0.13485l1.52546,1.05962z" fill="#000000"/></g><path d="M318.07989,167.05813c0,0 0.04361,0.05662 0.07582,0.14307l0.27958,0.20423c0.12605,0.09001 0.20789,0.23529 0.20789,0.39918c0,0.2732 -0.22738,0.49466 -0.50787,0.49466c-0.07075,0 -0.13811,-0.0141 -0.19931,-0.03955l-0.7588,-0.29563l0.00272,-0.00661l-0.02215,-0.00142c-1.83704,-0.89323 -3.63284,-1.7708 -5.73579,-1.90635c-2.80169,-0.18059 -5.75807,0.20918 -8.40705,-0.64431l-0.03888,0.13882l-0.96929,-0.25748c-0.22107,-0.05355 -0.38489,-0.24818 -0.38489,-0.48006c0,-0.22573 0.15523,-0.41614 0.3674,-0.47549l0.48146,-0.14655l0.00935,0.02912l0.06553,-0.04597c0.7027,-0.00364 1.4054,-0.00566 2.1081,-0.00566c4.30583,0 10.45075,-0.91964 13.42622,2.896z" data-paper-data="{&quot;index&quot;:null}" fill="#000000" stroke="none" stroke-width="0.5" stroke-linecap="butt"/><path d="M229.43342,169.79523c-0.02838,-0.26167 0.21258,-0.43769 0.21258,-0.43769l0.05188,-0.03732c0.11226,-0.18358 0.23081,-0.35621 0.35543,-0.51633l0.07129,-0.02403l-0.01688,-0.02191l0.6115,-0.4467c0.01153,-0.00862 0.02348,-0.01678 0.03577,-0.02442c0.04827,-0.06886 0.2985,-0.38466 0.68824,-0.1569c0.43549,0.25451 0.1742,0.67867 0.1742,0.67867c-1.84574,2.99332 -1.62053,5.93554 -1.62053,9.33889v0.74949c0,0.2732 -0.22738,0.49466 -0.50787,0.49466c-0.2417,0 -0.44396,-0.16445 -0.49529,-0.38473l-0.15131,-0.58954l0.13873,-0.03378v-0.0203c-1.0444,-2.46135 -0.75301,-6.19178 0.45228,-8.56804z" data-paper-data="{&quot;index&quot;:null}" fill="#000000" stroke="none" stroke-width="0.5" stroke-linecap="butt"/><path d="M239.0994,141.49489c-0.57302,0.85554 -0.93974,1.93989 -1.59223,2.77272c-0.64308,2.53945 -2.07247,4.99739 -3.02947,7.47785c-0.2172,0.56299 -0.3682,1.20212 -0.50269,1.86662c1.2069,-2.24934 2.32346,-4.55686 3.38663,-6.70481c0.87988,-1.77545 1.38776,-3.58101 1.73777,-5.41237zM241.82257,124.26866v-0.59359c0,-0.2732 0.22738,-0.49466 0.50787,-0.49466c0.28049,0 0.50787,0.22147 0.50787,0.49466v0v0.59359c0,0.05261 -0.00008,0.10512 -0.00027,0.15756c0.46715,0.57889 0.35499,1.98586 0.58365,2.65397c1.00575,2.9388 0.77635,8.2608 -0.21574,11.22823c-2.9592,5.69275 -4.22082,10.69892 -9.11553,15.45575c-1.009,1.65383 -3.4964,6.11317 -2.48101,4.46306c0.1307,-4.5037 3.89411,-10.20598 4.98062,-14.38479c0.89123,-1.17561 1.3063,-2.64837 2.30044,-3.66257l0.37648,-0.55438c0,0 0.05925,-0.08656 0.16415,-0.15382c0.30399,-2.13719 0.50199,-4.30674 0.92437,-6.50197c0.30274,-1.57348 0.95915,-2.89349 1.19304,-4.49204c0.20732,-1.41578 0.27406,-2.78065 0.27406,-4.209z" data-paper-data="{&quot;index&quot;:null}" fill="#000000" stroke="none" stroke-width="0.5" stroke-linecap="butt"/><g data-paper-data="{&quot;index&quot;:null}" fill="#000000" stroke="none" stroke-width="0.5" stroke-linecap="butt"><path d="M207.07366,107.11276c1.00476,0.14509 0.85579,1.12371 0.85579,1.12371l-0.17364,1.07061c-1.33961,4.34075 -1.26643,8.42 -1.26643,12.9174c0,4.58371 0.38191,8.95569 0.72282,13.49562c0.32109,4.27606 -0.48097,8.39188 -0.48097,12.65063c0,0 0,0.98931 -1.01574,0.98931c-1.01574,0 -1.01574,-0.98931 -1.01574,-0.98931c0,-4.21266 0.80357,-8.28253 0.4864,-12.50632c-0.34444,-4.58721 -0.72823,-9.00874 -0.72823,-13.63995c0,-4.69014 -0.04084,-8.95513 1.35212,-13.48596l0.10993,-0.79226c0,0 0.14896,-0.97861 1.15372,-0.83352z"/><path d="M201.78716,158.23521c-0.45426,0.88486 -1.36276,0.44243 -1.36276,0.44243l-1.02543,-0.92639c-1.30489,-6.47966 -0.16237,-14.00619 0.96077,-20.37441c0.55281,-3.13454 -0.01539,-6.83454 0.05653,-10.02349c0.88902,-9.2132 2.26298,-18.84914 0.90792,-28.07308c0,0 -0.14365,-0.97937 0.86188,-1.11928c1.00554,-0.13992 1.14918,0.83946 1.14918,0.83946c1.37075,9.36124 0.01541,19.11737 -0.89089,28.46716c-0.07177,3.28028 0.45873,6.99286 -0.07938,10.22617c-1.02062,6.13251 -2.28371,13.4327 -0.97398,19.66942l-0.05808,-0.4553c0,0 0.90851,0.44243 0.45425,1.32731z"/><path d="M194.44535,100.34574c0.93901,-0.37718 1.32627,0.53741 1.32627,0.53741l0.44046,1.04462c1.83572,3.32573 0.74544,7.97475 0.35684,11.67874c-0.62473,5.95469 0.41054,12.31 1.21198,18.11668c0.01009,9.58141 -1.21548,19.12052 -1.20703,28.66066c0,0 0,0.98931 -1.01574,0.98931c-1.01574,0 -1.01574,-0.98931 -1.01574,-0.98931c0.00794,-9.49933 1.2006,-18.99265 1.21139,-28.53133c-0.7803,-5.93435 -1.81843,-12.3581 -1.20645,-18.44099c0.32517,-3.23208 1.52589,-7.77343 -0.16525,-10.62468l-0.4885,-1.14934c0,0 -0.38725,-0.9146 0.55177,-1.29178z"/><path d="M190.23762,162.55091c-1.01574,0 -1.01574,-0.98931 -1.01574,-0.98931v-0.75376c0,-0.65954 0,-1.3191 0,-1.97864c0,-7.91446 -0.39981,-15.94909 0.05949,-23.85387c0.17407,-2.99605 1.12007,-5.86271 1.39742,-8.85267c1.08932,-8.49159 -0.00587,-16.8304 -0.00587,-25.33344c0,0 0,-0.98931 1.01574,-0.98931c1.01574,0 1.01574,0.98931 1.01574,0.98931c0,8.5718 1.09371,16.9817 -0.00586,25.54575c-0.2773,2.95334 -1.22278,5.79349 -1.38884,8.75035c-0.44208,7.87131 -0.05636,15.86358 -0.05636,23.74388c0,0.65954 0,2.07286 0,2.7324c0,0 0,0.98931 -1.01574,0.98931z"/><path d="M185.82008,116.29053c1.0137,-0.0627 1.07806,0.92463 1.07806,0.92463l0.02085,0.50763c0.56356,2.47639 0.70672,4.71237 0.70672,7.23405c0,4.84664 -0.40168,9.58136 -0.72555,14.39616c-0.38268,5.68927 0.72219,11.3557 0.72555,17.02646c0,0 0,0.98931 -1.01574,0.98931c-1.01574,0 -1.01574,-0.98931 -1.01574,-0.98931c0.00356,-5.71552 -1.10704,-11.41974 -0.7212,-17.15581c0.32098,-4.772 0.7212,-9.46295 0.7212,-14.26681c0,-2.38519 -0.12269,-4.46342 -0.65834,-6.80482l-0.06515,-0.81146c0,0 -0.06437,-0.98733 0.94933,-1.05002z"/><path d="M183.94241,154.25239c-0.71824,0.69956 -1.43648,0 -1.43648,0l-0.53935,-0.9351c0.08855,-3.08634 -1.67798,-6.39944 -1.93218,-9.5875c-0.45858,-5.75123 0.48112,-11.52253 0.48112,-17.26542c0,0 0,-0.98931 1.01574,-0.98931c1.01574,0 1.01574,0.98931 1.01574,0.98931c0,5.69649 -0.93188,11.42094 -0.48623,17.12516c0.24674,3.15809 1.73639,6.21914 1.92051,9.30591c0.13949,0.16112 0.57502,0.75903 -0.03888,1.35696z"/><path d="M179.0064,137.08788c0.9431,0.36742 0.56586,1.28598 0.56586,1.28598l-0.47301,1.15061c-1.6099,4.66355 -0.42497,10.14202 -0.42172,14.97059c0,0 0,0.98931 -1.01574,0.98931c-1.01574,0 -1.01574,-0.98931 -1.01574,-0.98931c0.00363,-5.12135 -1.13787,-10.69531 0.54566,-15.65116l0.49436,-1.2049c0,0 0.37724,-0.91855 1.32033,-0.55113z"/></g><g data-paper-data="{&quot;index&quot;:null}" stroke-linecap="butt"><path d="M217.10488,196.1331c2.01684,-4.22118 7.00812,1.26034 20.00141,1.36125c5.02726,0.03904 15.24679,0.09552 18.14956,1.18241c4.22134,1.58058 5.51033,4.29882 1.11133,5.77126c-4.92282,1.64778 -16.11458,1.96234 -21.17546,1.92304c-3.69152,-0.02867 -9.30439,-2.63545 -12.01857,-2.91289c-6.83914,-0.6991 -8.08515,-3.10389 -6.06829,-7.32507z" fill="#ac447e" stroke="#000000" stroke-width="3"/><path d="M233.74758,194.04027c0,0 -10.82038,0.42566 -12.335,-3.08841c-1.64254,-3.81085 -0.03168,-4.26077 3.625,-6.36489c3.98145,-2.29102 15.42996,0.12683 15.37045,4.63055c-0.05036,3.81085 -2.37736,4.85599 -6.66046,4.82273z" fill="#000000" stroke="none" stroke-width="0"/><path d="M258.2983,197.07284c-3.79142,-0.02945 -8.55169,-2.89724 -8.50475,-6.44973c0.04813,-3.64222 0.13973,-5.51609 4.02691,-5.48591c8.50419,0.77968 12.38005,3.76344 12.33192,7.40566c-0.04813,3.64223 -3.9669,4.56016 -7.85408,4.52998z" fill="#000000" stroke="none" stroke-width="0"/></g><g data-paper-data="{&quot;index&quot;:null}"><path d="M316.71904,222.61879c-0.62087,-4.59489 -1.02229,-9.86799 3.89394,-10.49817c3.2752,-0.41983 7.98232,0.5724 11.01148,3.1439c1.51776,1.28843 2.69062,3.53843 2.89786,5.0722c0.30461,2.25436 -0.81532,4.29352 -2.81317,5.8857c-2.07423,1.65304 -5.0797,2.82233 -7.5839,3.14333c-4.91624,0.63019 -6.78536,-2.15208 -7.40623,-6.74697z" fill="#2f429d" stroke="#000000" stroke-width="3" stroke-linecap="butt"/><path d="M280.38293,242.28216c-2.66609,-5.60404 1.72225,-9.5324 10.31454,-10.63378c8.59227,-1.10137 15.05763,0.13726 15.83652,5.90166c0.32002,2.36832 1.19296,9.7235 -2.83917,10.49045c-6.81821,1.29689 -8.74812,-7.10634 -10.21641,-6.89536c-4.16704,0.59873 -10.71366,6.14356 -13.09547,1.13704z" fill="#c172b1" stroke="#000000" stroke-width="3" stroke-linecap="butt"/><path d="M278.09482,225.70641c-1.56674,-11.59515 -1.99326,-28.37079 10.14846,-30.32526c4.77095,-0.76796 7.37033,6.08166 9.20704,5.84622c4.69879,-0.6023 8.1447,-2.22526 11.94784,0.36826c1.84768,1.26 2.12114,2.72864 3.92773,3.66095c3.67119,1.89453 5.52682,-0.77261 8.33513,1.53766c0.74768,0.8663 8.31051,12.10634 7.45275,17.9371c-1.03177,7.01364 -6.25295,19.33671 -9.36545,20.66994c-2.14192,0.91748 -4.01501,1.23444 -5.46159,-1.07717c-1.96162,-3.13462 -0.59964,-12.02381 -0.59964,-12.02381c0,0 -6.49138,4.88496 -8.85666,4.73746c-2.30135,-0.14352 -4.00729,-2.3404 -7.27194,-2.91353c-0.80864,-0.14196 -0.70101,3.22249 -5.38302,3.41606c-10.23158,0.42301 -13.393,-6.74513 -14.0806,-11.83385z" fill="#aa96c7" stroke="#000000" stroke-width="3" stroke-linecap="butt"/><path d="M299.31764,221.58815c0,0 0.59779,0.33109 1.49955,1.98872c0.74167,1.36333 1.58979,4.04023 3.33463,4.57983c0.87515,0.27063 5.04005,-0.06576 6.35781,-0.83334c1.0226,-0.59567 1.5323,-1.60331 1.86472,-1.68733c1.64628,-0.41607 1.33892,-7.68617 1.33892,-7.68617l1.54502,-2.68545c0,0 2.20227,6.09061 3.09401,11.13743c2.79716,2.05916 4.62182,3.5541 4.62182,3.5541l4.33592,-2.60112c0,0 -2.31035,7.09734 -4.53656,11.31441c-1.8455,3.49592 -3.59283,5.88081 -5.63516,6.151c-1.43272,0.18953 -2.98201,-2.48609 -3.75052,-5.1364c-0.5839,-2.0137 1.27317,-6.66276 0.26452,-7.37945c-0.40931,-0.29084 -2.5736,0.86305 -3.51772,1.52924c-3.31659,2.34021 -4.35117,1.81642 -6.12684,1.3739c-2.25839,-0.56283 -5.19288,-1.66562 -5.19288,-1.66562c0,0 -0.41861,-1.02591 -1.17191,-0.76084c-0.96983,0.3413 -1.84114,1.95877 -3.1435,2.78717c-0.53767,0.342 -1.61207,0.11615 -2.06499,0.29545c-1.00131,0.39636 -2.97623,0.29258 -4.18086,-0.04558c-1.13594,-0.31888 -1.52054,-0.8547 -1.89569,-1.10212c-1.45642,-0.96052 -3.94265,-5.49558 -2.84371,-7.19459c1.3338,-2.06214 6.48743,-1.23443 6.48743,-1.23443c0,0 4.45662,3.41854 7.45296,2.82134c2.25316,-0.44907 1.86296,-7.52018 1.86296,-7.52018z" fill="#c172b1" stroke="none" stroke-width="0" stroke-linecap="butt"/><path d="M297.70425,223.1218c-0.68917,-2.63709 -2.14631,-6.26549 -1.71238,-8.32137c0.38265,-1.81288 4.74396,-4.52435 5.72234,-4.58744c0.44932,-0.02897 1.34745,1.38354 1.34745,1.38354c0,0 -4.34643,2.11111 -4.5299,3.29712c-0.20344,1.31502 0.72419,3.85278 1.19019,5.63595c0.83391,3.19104 1.82791,6.13257 1.5275,8.55716c-0.26729,2.15741 -1.78836,5.62487 -1.78836,5.62487l-2.5072,0.01761c0,0 1.00596,-4.27572 1.35838,-5.52693c0.49092,-1.74301 -0.15672,-4.35361 -0.60802,-6.0805z" fill="#000000" stroke="none" stroke-width="0" stroke-linecap="butt"/><path d="M312.68502,225.13317c-0.36455,-2.69791 -2.2971,-7.36268 -1.61691,-9.35425c0.49227,-1.44133 2.58097,-3.40019 3.97486,-3.71429c0.74174,-0.16714 1.31798,1.34357 1.31798,1.34357c0,0 -1.84132,2.59012 -2.16733,3.74674c-0.36146,1.28239 0.65452,3.62762 0.90102,5.45193c0.44111,3.26461 0.419,6.76588 -0.1733,9.13895c-0.52704,2.11158 -1.61032,3.28559 -1.61032,3.28559l-3.34178,-0.40709c0,0 1.51979,-1.89973 2.02147,-3.10164c0.69885,-1.6743 0.93304,-4.6228 0.69432,-6.38951z" fill="#000000" stroke="none" stroke-width="0" stroke-linecap="butt"/><g fill="#2f429d" stroke-linecap="butt"><path d="M268.65639,223.16783c-1.12485,-8.32487 2.53831,-15.65995 8.1819,-16.38336c5.6436,-0.72341 11.13053,5.43879 12.25539,13.76365c1.12486,8.32486 -2.53831,15.65996 -8.1819,16.38337c-5.6436,0.72341 -11.13052,-5.43879 -12.25538,-13.76365z" stroke="#000000" stroke-width="3"/><path d="M280.42259,214.10237l-4.02606,-6.38082c0,0 3.77413,0.8781 5.09421,1.80307c2.73762,1.97876 3.90814,5.009 3.90814,5.009z" stroke="none" stroke-width="0"/><path d="M282.91456,220.5331l-1.00169,-2.95318c0,0 1.95208,-0.46444 2.65423,-0.50994c0.82217,-0.05328 2.3341,0.27739 2.3341,0.27739l0.59267,3.62593z" stroke="none" stroke-width="0"/></g><g><path d="M281.19314,221.77352c1.55178,11.48433 -4.52805,18.74126 -16.3191,20.25266c-11.79103,1.51142 -22.68706,-7.16175 -24.23882,-18.6461c-1.55175,-11.48434 5.69937,-20.68754 17.49042,-22.19894c11.79103,-1.51141 21.51574,9.10802 23.0675,20.59237z" fill="#2f429d" stroke="#000000" stroke-width="3" stroke-linecap="butt"/><path d="M241.75557,219.27442c0,0 2.76949,-15.56414 13.08574,-16.8865c5.85003,-0.74989 12.28819,1.2469 17.19397,4.13939c3.49511,2.06076 6.25673,5.54345 6.80524,9.6029c1.12746,8.34414 -2.28658,11.80055 -12.60283,13.12291c-5.15186,0.66038 -11.87637,-1.46638 -16.59044,-4.49902c-4.72554,-3.04001 -7.8917,-5.47966 -7.8917,-5.47966z" fill="#2f429d" stroke="none" stroke-width="0" stroke-linecap="butt"/><path d="M258.34139,201.80511c0,0 8.85585,4.63192 11.13685,17.85304c2.29968,13.32947 -4.06978,20.34281 -4.06978,20.34281" fill="none" stroke="#000000" stroke-width="1.6" stroke-linecap="round"/><path d="M268.03295,202.9994c0,0 5.56944,7.2077 8.01093,15.45728c3.5185,11.88876 0.08834,17.15292 0.08834,17.15292" fill="none" stroke="#000000" stroke-width="1.6" stroke-linecap="round"/><path d="M249.45421,204.80074c0,0 7.693,5.14872 10.74157,18.25752c2.93216,12.6083 -0.61765,16.99386 -0.61765,16.99386" fill="none" stroke="#000000" stroke-width="1.6" stroke-linecap="round"/><path d="M256.86942,240.28333c0,0 -5.67701,-7.30264 -8.28694,-13.51984c-3.43767,-8.18898 -4.53015,-16.97725 -4.53015,-16.97725" fill="none" stroke="#000000" stroke-width="1.6" stroke-linecap="round"/><path d="M280.24587,226.38013c0,0 -5.9178,5.48252 -18.27661,7.56405c-11.53287,1.94244 -17.43872,-2.98596 -17.43872,-2.98596" fill="none" stroke="#000000" stroke-width="1.6" stroke-linecap="round"/><path d="M243.3749,226.81327c0,0 5.94015,-0.37443 12.28727,-1.7518c5.58171,-1.21126 11.42365,-3.40155 14.5704,-3.98272c3.73748,-0.69029 10.10253,-1.09165 10.10253,-1.09165" fill="none" stroke="#000000" stroke-width="1.6" stroke-linecap="round"/><path d="M241.61204,221.70194c0,0 8.33581,-7.1186 16.39894,-8.37794c12.6554,-1.97658 21.38099,1.44669 21.38099,1.44669" fill="none" stroke="#000000" stroke-width="1.6" stroke-linecap="round"/><path d="M241.65503,214.96675c0,0 5.83775,-5.46569 13.67602,-7.78647c11.28744,-3.342 17.86365,-1.2456 17.86365,-1.2456" fill="none" stroke="#000000" stroke-width="1.6" stroke-linecap="round"/><path d="M254.59432,206.69452c-0.97009,0.12435 -1.84619,-0.43867 -1.95684,-1.25754c-0.11064,-0.81887 0.58607,-1.5835 1.55615,-1.70785c0.97009,-0.12435 1.84619,0.43868 1.95684,1.25755c0.11064,0.81887 -0.58607,1.58349 -1.55615,1.70784z" fill="#2f429d" stroke="none" stroke-width="0" stroke-linecap="butt"/><path d="M249.05371,208.44896c-0.48504,0.06217 -0.92999,-0.27041 -0.99382,-0.74283c-0.06383,-0.47242 0.27762,-0.90581 0.76266,-0.96797c0.48504,-0.06217 0.92999,0.27041 0.99382,0.74283c0.06383,0.47242 -0.27762,0.90581 -0.76266,0.96797z" fill="#2f429d" stroke="none" stroke-width="0" stroke-linecap="butt"/></g></g><path d="M107.43868,310.75444v-258.66667h258.66667v258.66667z" data-paper-data="{&quot;index&quot;:null}" fill="none" stroke="none" stroke-width="0" stroke-linecap="butt"/></g></g></svg>