<svg version="1.1" xmlns="http://www.w3.org/2000/svg" xmlns:xlink="http://www.w3.org/1999/xlink" width="40.29909" height="37.09107" viewBox="0,0,40.29909,37.09107"><g transform="translate(-218.45184,-159.85258)"><g data-paper-data="{&quot;isPaintingLayer&quot;:true}" fill-rule="nonzero" stroke-width="0.75" stroke-linejoin="miter" stroke-miterlimit="10" stroke-dasharray="" stroke-dashoffset="0" style="mix-blend-mode: normal"><path d="M250.50453,193.54487c-6.24469,0.96247 -12.30319,1.87729 -14.85643,1.71772c-2.33348,-0.14584 -3.22081,-1.4668 -3.22081,-1.4668c0,0 -1.08936,-1.12057 -1.24747,-1.90202c-0.47433,-2.34434 -1.51167,-9.09516 -1.86286,-14.99376c-0.01172,-0.19686 -0.01114,-0.30792 -0.01103,-0.50516c0.00031,-0.59168 0.09977,-2.90244 0.09977,-2.90244c0,0 1.52761,-1.09022 2.38913,-1.46241c2.58456,-1.11655 9.53173,-1.33239 16.76242,-2.15186c0.65536,-0.07427 1.89838,0.62947 1.89838,0.62947c0,0 1.02947,1.49856 1.15106,2.52155c0.7862,6.61383 1.63159,13.93447 1.7151,15.62389c0.02785,0.56314 -0.6132,2.85342 -0.6132,2.85342z" data-paper-data="{&quot;index&quot;:null}" fill="#a03d3d" stroke="#2a1518" stroke-linecap="round"/><path d="M250.96348,193.16527c-5.46356,0.83549 -10.76433,1.62893 -13.00117,1.47107c-2.04433,-0.14426 -2.82851,-1.34191 -2.82851,-1.34191c0,0 -0.96004,-1.01777 -1.10272,-1.72428c-0.42804,-2.11954 -1.37285,-8.22128 -1.7122,-13.54974c-0.01133,-0.17784 -0.01143,-0.27813 -0.01239,-0.45623c-0.00292,-0.53429 0.07173,-2.62042 0.07173,-2.62042c0,0 1.33191,-0.97626 2.08439,-1.30771c2.25741,-0.99434 8.34019,-1.1518 14.66801,-1.85283c0.57352,-0.06354 1.66589,0.57866 1.66589,0.57866c0,0 0.90963,1.35877 1.02162,2.28321c0.72416,5.97667 1.50395,12.59194 1.58619,14.11796c0.02742,0.50868 -0.52162,2.5734 -0.52162,2.5734z" data-paper-data="{&quot;index&quot;:null}" fill="#a03d3d" stroke="#2a1518" stroke-linecap="round"/><g data-paper-data="{&quot;index&quot;:null}" stroke="#000000"><path d="M250.42086,193.78759c-6.24469,0.96248 -12.30318,1.87728 -14.85642,1.71771c-2.33348,-0.14583 -3.22081,-1.4668 -3.22081,-1.4668c0,0 -1.08936,-1.12058 -1.24747,-1.90202c-0.47434,-2.34434 -1.51168,-9.09516 -1.86287,-14.99376c-0.01172,-0.19687 -0.01115,-0.30792 -0.01103,-0.50516c0.00031,-0.59167 0.09978,-2.90243 0.09978,-2.90243c0,0 1.52761,-1.09023 2.38913,-1.46241c2.58455,-1.11655 9.53172,-1.33239 16.76241,-2.15186c0.65536,-0.07428 1.89838,0.62948 1.89838,0.62948c0,0 1.02946,1.49855 1.15106,2.52154c0.7862,6.61382 1.63159,13.93448 1.71509,15.6239c0.02785,0.56314 -0.61319,2.85343 -0.61319,2.85343z" data-paper-data="{&quot;origPos&quot;:null}" fill="#ffddb7" stroke-linecap="round"/><path d="M252.03745,181.14249c-0.10751,-0.39716 -0.21405,-0.79424 -0.32273,-1.19064c-0.37109,0.28194 -0.72451,0.53125 -0.79225,0.58241c-0.74398,0.56201 -1.93179,1.48451 -2.8099,1.77286c-0.42937,0.141 -0.92892,0.40516 -1.33878,0.21634c-0.50683,-0.2335 -0.61238,-1.46794 -0.68513,-1.93584c-0.27352,-1.75916 -0.54297,-3.51899 -0.81402,-5.27854c-0.68399,1.00596 -1.8655,1.97307 -2.53374,2.87931c-1.50324,2.03855 -3.1517,3.91841 -4.74093,5.87177c-0.54512,0.67003 -0.98652,1.29485 -1.60851,1.9c-0.23845,0.232 -0.36411,0.67603 -0.69522,0.71586c-0.4624,0.05563 -0.87485,-0.31626 -1.31228,-0.47439c-0.18846,-0.79517 -0.4174,-1.80616 -0.50819,-2.74048c-0.31084,0.60466 -0.75563,1.21296 -0.98878,1.73209c-0.81279,1.80971 -1.97168,6.8036 -1.97168,6.8036c-1.95312,0.25939 -4.02265,-1.23054 -5.3729,-2.47753c-1.04644,0.14247 -2.09091,0.208 -3.14165,0.36953c-0.25052,0.03851 -1.64587,0.2755 -1.8177,0.19452c-1.05873,-0.49893 -0.8696,-1.1739 -0.73532,-2.05788c0.10743,-0.70729 0.39437,-1.33944 0.79317,-1.9043c-0.61733,-0.25476 -1.33001,-0.57324 -1.57755,-1.01274c-0.4476,-0.79467 -0.17174,-1.18417 0.10481,-1.88345c0.30948,-0.78258 0.75381,-1.48078 1.28947,-2.10598c-0.39104,-0.16371 -0.81203,-0.35416 -0.87065,-0.44312c-0.61879,-0.93924 -0.20306,-1.4015 0.14489,-2.20763c0.60021,-1.3906 1.89513,-2.34505 3.13894,-3.09194c-0.11603,-1.31341 0.38027,-2.22193 0.83634,-3.47405c0.60063,-1.64901 1.79327,-4.10309 3.89225,-6.15917c2.30332,-2.25622 5.39372,-3.8342 6.36838,-4.2231c2.11513,-0.84396 4.93021,-1.23453 6.03488,-1.29242c2.035,-0.10665 5.74336,0.29967 8.55411,1.53957c2.8326,1.24954 4.55688,3.20556 4.80404,3.5275c2.15767,2.81055 3.69234,5.56132 4.2323,9.03262c0.13388,0.86817 1.36699,5.32 0.44052,7.99285c-1.12548,3.24705 -4.54941,5.14791 -4.69278,5.22117c-0.16979,0.08677 -0.92364,0.08402 -1.11274,-0.43872c-0.45548,-1.2592 -0.30621,-4.05639 -0.16242,-5.18209c0.03177,-0.18385 0.05834,-0.36845 0.0822,-0.55349c-0.0807,-0.1149 -0.11037,-0.22449 -0.11037,-0.22449z" fill="#000000" stroke-linecap="butt"/></g><path d="M244.10541,182.96791c-0.18343,-2.78145 1.68817,-5.1695 4.18036,-5.33386c2.49218,-0.16436 4.6612,1.95721 4.84463,4.73866c0.18343,2.78145 -1.68817,5.1695 -4.18035,5.33386c-2.49218,0.16436 -4.6612,-1.95722 -4.84463,-4.73867z" data-paper-data="{&quot;index&quot;:null}" fill="#ffffff" stroke="#000000" stroke-linecap="butt"/><path d="M232.60996,184.14865c-0.18343,-2.78145 1.68817,-5.1695 4.18035,-5.33386c2.49218,-0.16436 4.6612,1.95722 4.84463,4.73867c0.18343,2.78145 -1.68817,5.1695 -4.18035,5.33386c-2.49218,0.16436 -4.6612,-1.95722 -4.84463,-4.73867z" data-paper-data="{&quot;index&quot;:null}" fill="#ffffff" stroke="#000000" stroke-linecap="butt"/><path d="M232.69952,196.54764c0,0 -1.08852,-5.71204 0.53418,-6.92726c1.61639,-1.21049 9.79419,1.55213 9.79419,1.55213l-0.17526,4.70554z" data-paper-data="{&quot;index&quot;:null}" fill="#ffffff" stroke="#000000" stroke-linecap="butt"/></g></g></svg>