<svg version="1.1" xmlns="http://www.w3.org/2000/svg" xmlns:xlink="http://www.w3.org/1999/xlink" width="262.30787" height="331.99378" viewBox="0,0,262.30787,331.99378"><g transform="translate(-108.84608,-14.00312)"><g data-paper-data="{&quot;isPaintingLayer&quot;:true}" fill-rule="nonzero" stroke-linejoin="miter" stroke-miterlimit="10" stroke-dasharray="" stroke-dashoffset="0" style="mix-blend-mode: normal"><g data-paper-data="{&quot;origPos&quot;:null}" stroke-linecap="butt"><path d="M215.19964,298.85249c-1.51175,1.12812 -10.96449,1.10222 -11.01286,0.89441c-0.80605,-3.46381 0.30708,-7.15206 0.31543,-10.29462c0.12475,-46.94874 -0.86852,-124.09854 1.64875,-128.7377c2.06378,-3.80342 -2.44881,-2.86509 0.29624,-2.86509c2.89834,0 5.88145,-2.91836 6.94326,2.74856c3.18544,17.00077 1.18009,124.03152 1.03117,128.85423c-0.21306,6.89993 1.55489,8.82046 0.778,9.4002z" data-paper-data="{&quot;origPos&quot;:null,&quot;index&quot;:null}" fill="#c1c1c1" stroke="#828282" stroke-width="6.5"/><path d="M277.19956,273.85248c-1.51175,1.12812 -10.96449,1.10222 -11.01286,0.89441c-0.80606,-3.46381 0.30708,-7.15206 0.31543,-10.29462c0.12475,-46.94874 -0.86852,-124.09854 1.64875,-128.7377c2.06378,-3.80342 -2.44881,-2.86509 0.29624,-2.86509c2.89834,0 5.88145,-2.91836 6.94326,2.74856c3.18544,17.00077 1.18009,124.03152 1.03118,128.85423c-0.21306,6.89993 1.55488,8.82046 0.77799,9.4002z" data-paper-data="{&quot;origPos&quot;:null,&quot;index&quot;:null}" fill="#c1c1c1" stroke="#828282" stroke-width="6.5"/><path d="M301.19956,301.85249c-1.51175,1.12812 -10.96449,1.10222 -11.01286,0.89441c-0.80606,-3.46381 0.30708,-7.15206 0.31543,-10.29462c0.12475,-46.94874 -0.86852,-124.09854 1.64875,-128.7377c2.06378,-3.80342 -2.44881,-2.86509 0.29624,-2.86509c2.89834,0 5.88145,-2.91836 6.94326,2.74856c3.18544,17.00077 1.18009,124.03152 1.03118,128.85423c-0.21306,6.89993 1.55488,8.82046 0.77799,9.4002z" data-paper-data="{&quot;origPos&quot;:null,&quot;index&quot;:null}" fill="#c1c1c1" stroke="#828282" stroke-width="6.5"/><path d="M366.19965,271.85248c-1.51175,1.12812 -10.96449,1.10222 -11.01286,0.89441c-0.80606,-3.46381 0.30708,-7.15206 0.31543,-10.29462c0.12475,-46.94874 -0.86852,-124.09854 1.64875,-128.7377c2.06378,-3.80342 -2.44881,-2.86509 0.29624,-2.86509c2.89834,0 5.88145,-2.91836 6.94326,2.74856c3.18544,17.00077 1.18009,124.03152 1.03118,128.85423c-0.21306,6.89993 1.55488,8.82046 0.77799,9.4002z" data-paper-data="{&quot;origPos&quot;:null,&quot;index&quot;:null}" fill="#c1c1c1" stroke="#828282" stroke-width="6.5"/><g data-paper-data="{&quot;origPos&quot;:null}"><path d="M366.27223,146.25381c-0.56497,2.13664 -0.18312,7.15143 -1.84876,8.60403c-4.99692,4.3578 -37.1276,20.39533 -62.36985,31.51412c-2.18703,0.96336 -6.92001,2.00116 -9.15346,2.85136c-9.93174,3.78068 -56.40606,-5.95433 -90.50753,-20.17894c-3.1813,-1.32701 1.28082,-9.76763 4.41279,-11.20721c9.39589,-4.31876 62.55045,-3.72548 59.95107,-29.06388c-1.1177,-10.89515 -0.80917,-105.72844 11.85507,-110.52016c15.26759,-5.77674 84.8701,5.20133 87.32827,15.07281c2.45817,9.87148 2.608,104.322 0.33242,112.92789z" data-paper-data="{&quot;origPos&quot;:null,&quot;origRot&quot;:0}" fill="#003cae" stroke="#002b7b" stroke-width="8.5"/><path d="M294.11414,76.62527c1.96204,4.14895 -0.52958,51.13297 -1.50281,58.5c-2.45498,4.41419 -10.12387,5.25169 -10.75281,-2c-0.19488,-2.24694 -0.85001,-55 1.50281,-57.5c2.35282,-2.5 7.40639,-6.07639 10.75281,1z" data-paper-data="{&quot;origPos&quot;:null}" fill="#ffffff" stroke="#002b7b" stroke-width="5.5"/><path d="M340.61418,80.29191c1.96204,4.14895 -0.52958,51.13298 -1.50281,58.5c-2.45498,4.41419 -10.12387,5.25169 -10.75281,-2c-0.19488,-2.24694 -0.85001,-55 1.50281,-57.5c2.35282,-2.5 7.40639,-6.07639 10.75281,1z" data-paper-data="{&quot;origPos&quot;:null}" fill="#ffffff" stroke="#002b7b" stroke-width="5.5"/><path d="M291.65021,47.2086c0,-2.20914 1.79086,-4 4,-4c2.20914,0 4,1.79086 4,4c0,2.20914 -1.79086,4 -4,4c-2.20914,0 -4,-1.79086 -4,-4z" data-paper-data="{&quot;origPos&quot;:null}" fill="#c1c1c1" stroke="#828282" stroke-width="2.5"/><path d="M315.9474,77.9586c1.96204,4.14895 -0.52958,51.13297 -1.50281,58.5c-2.45498,4.41419 -10.12386,5.25169 -10.75281,-2c-0.19488,-2.24694 -0.85002,-55 1.50281,-57.5c2.35282,-2.5 7.40639,-6.07639 10.75281,1z" data-paper-data="{&quot;origPos&quot;:null}" fill="#ffffff" stroke="#002b7b" stroke-width="5.5"/></g></g><path d="M201.33657,264.94068c-1.51175,1.12812 -10.63116,0.76888 -10.67952,0.56108c-0.80605,-3.46381 0.30708,-7.15206 0.31543,-10.29461c0.12475,-46.94874 -0.86852,-124.09854 1.64874,-128.7377c2.06378,-3.80342 -2.44881,-2.86508 0.29624,-2.86508c2.89834,0 5.88145,-2.91836 6.94326,2.74856c3.18544,17.00077 1.18009,124.03152 1.03117,128.85423c-0.21306,6.89992 1.22155,9.15379 0.44466,9.73353z" data-paper-data="{&quot;origPos&quot;:null,&quot;index&quot;:null}" fill="#c1c1c1" stroke="#828282" stroke-width="6.5" stroke-linecap="butt"/><path d="M132.1901,291.35574c-1.51175,1.12812 -10.96449,1.10222 -11.01285,0.89442c-0.80605,-3.46381 0.30708,-7.15207 0.31543,-10.29462c0.12475,-46.94874 -0.86852,-124.09854 1.64874,-128.7377c2.06378,-3.80342 -2.44881,-2.86509 0.29624,-2.86509c2.89834,0 5.88146,-2.91836 6.94327,2.74856c3.18544,17.00077 1.18009,124.03152 1.03117,128.85422c-0.21306,6.89992 1.55488,8.82046 0.77799,9.4002z" data-paper-data="{&quot;origPos&quot;:null,&quot;index&quot;:null}" fill="#c1c1c1" stroke="#828282" stroke-width="6.5" stroke-linecap="butt"/><path d="M298.12413,303.84299c-1.51175,1.12812 -10.96449,1.10222 -11.01285,0.89442c-0.80606,-3.46381 0.30708,-7.15206 0.31543,-10.29462c0.12475,-46.94874 -0.86852,-124.09854 1.64874,-128.7377c2.06378,-3.80342 -2.44881,-2.86509 0.29624,-2.86509c2.89834,0 5.88145,-2.91836 6.94327,2.74856c3.18544,17.00077 1.18009,124.03153 1.03117,128.85423c-0.21306,6.89992 1.55488,8.82045 0.77799,9.4002z" data-paper-data="{&quot;origPos&quot;:null,&quot;index&quot;:null}" fill="#c1c1c1" stroke="#828282" stroke-width="6.5" stroke-linecap="butt"/><path d="M234.36628,341.85249c-1.51175,1.12812 -10.96449,1.10222 -11.01285,0.89442c-0.80606,-3.46381 0.30708,-7.15206 0.31543,-10.29462c0.12475,-46.94874 -0.86852,-124.09854 1.64874,-128.7377c2.06378,-3.80342 -2.44881,-2.86509 0.29624,-2.86509c2.89834,0 5.88145,-2.91835 6.94326,2.74857c3.18544,17.00077 1.1801,124.03152 1.03118,128.85422c-0.21306,6.89992 1.55488,8.82045 0.77799,9.4002z" data-paper-data="{&quot;origPos&quot;:null,&quot;index&quot;:null}" fill="#c1c1c1" stroke="#828282" stroke-width="6.5" stroke-linecap="butt"/><path d="M292.52836,184.56594c-2.62464,4.63957 -58.87095,39.64665 -65.46939,38.34963c-1.62142,-0.31871 -34.99889,-6.46733 -28.59254,-17.20884c2.92316,-4.90124 92.08883,-57.64913 98.37099,-56.05015c5.3586,1.36391 -0.85989,28.81231 -4.30905,34.90937z" data-paper-data="{&quot;origPos&quot;:null,&quot;origRot&quot;:0,&quot;index&quot;:null}" fill="#c1c1c1" stroke="#828282" stroke-width="6.5" stroke-linecap="butt"/><path d="M119.02208,144.11974c6.08079,-2.2464 100.26813,40.89988 103.68722,45.469c7.49322,10.01363 5.96461,34.40694 4.38535,34.89327c-6.42688,1.97912 -97.04602,-41.75386 -100.1409,-46.09391c-4.06711,-5.70345 -13.1185,-32.35221 -7.93167,-34.26836z" data-paper-data="{&quot;origPos&quot;:null,&quot;origRot&quot;:0,&quot;index&quot;:null}" fill="#c1c1c1" stroke="#828282" stroke-width="6.5" stroke-linecap="butt"/><path d="M225.6803,197.37064c-8.30223,3.36366 -106.25523,-42.62241 -113.58422,-51.2242c-3.0262,-3.55175 73.00573,-36.16671 84.05817,-40.35197c8.96855,-3.39614 101.40056,37.17721 107.99777,45.84593c5.62733,7.39431 -67.56139,41.3099 -78.47172,45.73024z" data-paper-data="{&quot;origPos&quot;:null,&quot;origRot&quot;:0}" fill="#ffbc98" stroke="#b1836a" stroke-width="6.5" stroke-linecap="butt"/><path d="M224.82448,184.31317l-88.23105,-40.65707" data-paper-data="{&quot;origPos&quot;:null}" fill="none" stroke="#b1836a" stroke-width="6.5" stroke-linecap="round"/><g data-paper-data="{&quot;origPos&quot;:null,&quot;index&quot;:null,&quot;origRot&quot;:0}" stroke-width="1.5" stroke-linecap="round"><path d="M178.71549,109.59104c0.99734,1.23643 2.80697,2.34139 2.86665,3.99689c0.00397,0.98971 -1.94197,0.74722 -2.73727,1.38384c-1.08633,0.86836 -1.60492,2.70747 -2.94127,2.96749c-1.04796,0.19457 -1.72275,-1.40331 -2.43616,-2.09951c-0.89481,-0.86632 -2.32871,-1.66019 -2.43945,-2.8381c-0.12014,-1.29816 0.8087,-2.65752 1.77829,-3.48991c1.13946,-0.97749 2.74857,-1.59746 4.21351,-1.60143c0.79769,-0.00228 1.19661,1.06209 1.6957,1.68072z" fill="#ffa9a9" stroke="none"/><path d="M183.38104,114.74062c0.61084,0.69115 1.5081,1.73093 1.06683,2.63316c-0.57599,1.17167 -2.30359,1.2456 -3.4233,1.91532c-0.68699,0.41035 -1.26388,0.89953 -1.83787,1.37901c-0.42512,0.26315 -0.77354,1.16241 -1.15691,0.84925c-1.55922,-1.26307 -3.28779,-2.83688 -3.71405,-4.73172c-0.26008,-1.16163 0.93364,-2.36939 1.83544,-3.06894c1.1365,-0.88209 2.62585,-1.6653 4.05319,-1.49435c1.29938,0.1542 2.32391,1.43273 3.17664,2.51829z" fill="#b5b5b5" stroke="none"/><path d="M210.65155,149.22878c0.88559,2.58965 1.79918,5.21757 2.3564,7.90322c0.1389,0.67342 -0.42287,0.2952 -0.63215,0.21384c-0.742,-0.29047 -1.265,-0.77815 -1.90439,-1.15222c-0.95254,-0.55923 -1.91634,-0.9901 -2.85541,-1.46456c-1.49212,-0.88563 -3.97857,-0.99867 -4.44327,-2.61818c-0.65118,-2.26865 -0.09038,-5.43704 1.76331,-6.86634c1.29794,-1.02335 3.28818,0.83165 4.65056,1.77314c0.66769,0.47312 0.81053,1.46603 1.06496,2.21111z" fill="#ffffcc" stroke="none"/><path d="M209.58565,146.80664c0.57025,0.86734 -0.90344,0.33153 -1.36934,0.53366c-0.32564,0.13819 -0.83176,0.02647 -1.05374,0.32121c-0.23101,0.34796 -0.0385,0.74217 0.00468,1.05514c0.03,0.67305 0.50937,1.41587 0.21946,1.89831c-0.23337,0.38427 -0.91437,0.14629 -1.37121,0.11159c-0.43318,-0.03269 -0.83952,-0.38711 -1.26757,-0.31093c-0.45083,0.08051 -0.80075,0.456 -1.15737,0.74375c-0.34779,0.28095 -0.50219,0.96663 -0.94541,0.95383c-0.45549,-0.01867 -0.39561,-0.41187 -0.95477,-1.15643c-2.31882,-2.76266 -4.57078,-5.57755 -6.89582,-8.41067c-5.52851,-6.7365 -11.20195,-13.4141 -16.65549,-20.18512c-1.35833,-1.74553 -1.01799,-1.13506 -0.95759,-1.78952c0.12184,-1.0768 0.77154,-2.09263 1.46455,-2.85541c0.71394,-0.80508 1.63984,-1.40009 2.63035,-1.69993c0.8851,-0.27827 1.83453,-0.32468 2.63785,-0.0117c0.59181,0.20841 -0.10252,-0.27473 1.27225,1.36606c5.4788,6.56578 10.92295,13.12117 16.33662,19.65896c2.71104,3.26445 5.79032,6.28711 8.06256,9.77719z" fill="#ffe800" stroke="#000000"/><path d="M183.62388,121.9146l23.02328,28.4926" fill="none" stroke="#000000"/><path d="M210.0105,147.43786c0,0 0.44706,1.25871 0.64151,1.89643c0.12677,0.41559 0.19961,0.84789 0.32217,1.26477c0.26997,0.91679 0.56439,1.82925 0.85627,2.73961c0.13567,0.42314 0.29789,0.83901 0.42767,1.26429c0.19145,0.62802 0.3673,1.26245 0.53599,1.89691c0.04593,0.17326 0.10786,0.5271 0.10786,0.5271" fill="none" stroke="#000000"/><path d="M202.53963,152.11368c0,0 0.63214,0.35468 0.95197,0.52335c0.73653,0.38882 1.46683,0.79669 2.22094,1.15082c0.65556,0.30773 1.3592,0.51394 2.0085,0.8352c0.90267,0.44633 1.76475,0.976 2.6444,1.46548c0.24751,0.13776 0.50133,0.26664 0.74048,0.41878c0.2548,0.1622 0.48613,0.36209 0.74093,0.52428c0.23914,0.15214 0.48123,0.30471 0.74048,0.41878c0.0647,0.02842 0.21102,-0.00093 0.21102,-0.00093" fill="none" stroke="#000000"/><path d="M212.90243,157.13246l-0.12606,0.12718" fill="none" stroke="#000000"/><path d="M177.18429,121.20456c0,0 -1.21626,-1.49462 -1.80356,-2.20783c-0.40196,-0.51229 -0.82091,-0.95276 -1.1672,-1.47204c-0.09176,-0.13382 0.00728,0.11898 0.10504,-0.10599c0.39021,-0.90073 0.5283,-1.93116 1.14895,-2.64298c0.74896,-0.99728 1.75196,-1.81125 2.83856,-2.33394c0.7838,-0.37573 1.67656,-0.44511 2.53045,-0.43328c0.26128,0.00306 0.33296,0.18084 0.52945,0.41972c0.89994,1.071 2.54683,3.2597 2.54683,3.2597" fill="none" stroke="#000000"/><path d="M174.42123,117.52709c0,0 -1.5148,-1.56423 -2.20996,-2.43374c-0.40105,-0.46781 -0.74556,-1.01542 -1.07322,-1.57241c-0.15178,-0.25789 -0.41606,-0.54949 -0.31476,-0.84273c0.16934,-0.88264 0.45722,-1.79027 1.07754,-2.47052c0.84672,-0.91985 1.96593,-1.59614 3.1005,-2.12406c0.70136,-0.32611 1.4908,-0.34426 2.24238,-0.27651c0.33685,0.01939 0.51108,0.34294 0.73579,0.61873c0.99543,1.05653 2.74772,3.47536 2.74772,3.47536" fill="none" stroke="#000000"/><path d="M175.9064,118.57234c0,0 0.26528,-0.71068 0.41738,-1.05701c0.12619,-0.28756 0.23373,-0.59192 0.41831,-0.84599c0.2043,-0.28158 0.48144,-0.50396 0.73531,-0.74187c0.23623,-0.22136 0.48176,-0.43518 0.73578,-0.63636c0.23679,-0.1876 0.47015,-0.38743 0.73625,-0.53084c0.26442,-0.14257 0.56209,-0.21352 0.8427,-0.32028c0.07036,-0.02648 0,0 0,0" fill="none" stroke="#000000"/><path d="M212.04382,153.86529c0.26281,0.15922 0.27129,0.54832 0.32028,0.8427c0.12088,0.79927 0.61307,2.14305 0.11629,2.42634c-0.54194,0.2835 -1.77061,-0.965 -2.6444,-1.46548c-0.21791,-0.12482 -0.33131,-0.09054 -0.35968,-0.20944c-0.08958,-0.21486 -0.02227,-0.45445 0.0605,-0.63335c0.12417,-0.26729 0.27198,-0.53385 0.49605,-0.7328c0.20263,-0.17943 0.47305,-0.30344 0.74433,-0.32786c0.40543,-0.03852 0.90737,-0.11039 1.26664,0.09989z" fill="#000000" stroke="none"/></g></g></g></svg>