<svg version="1.1" xmlns="http://www.w3.org/2000/svg" xmlns:xlink="http://www.w3.org/1999/xlink" width="210" height="221" viewBox="0,0,210,221"><g transform="translate(-140,-90)"><g data-paper-data="{&quot;isPaintingLayer&quot;:true}" fill-rule="nonzero" stroke-linejoin="miter" stroke-miterlimit="10" stroke-dasharray="" stroke-dashoffset="0" style="mix-blend-mode: normal"><path d="M140,311v-221h210v221z" fill="none" stroke="none" stroke-width="0" stroke-linecap="butt"/><g data-paper-data="{&quot;index&quot;:null}" stroke="#000000" stroke-linecap="round"><path d="M262.35467,195.67231c0,0 16.25085,-1.38776 16.14706,5.23606c-0.28168,17.97838 -28.43217,11.69994 -28.43217,11.69994z" data-paper-data="{&quot;origPos&quot;:null}" fill="#66c8ff" stroke-width="2"/><path d="M261.5812,197.17069c0,0 11.78746,-0.41133 12.42386,1.54289c0.20071,0.61635 -15.74164,2.31084 -15.74164,2.31084z" data-paper-data="{&quot;origPos&quot;:null}" fill="#0a0a0a" stroke-width="1"/></g><g><path d="M264.68168,243.37864c0,0 0.82804,15.75777 -1.37782,16.03807c-6.6176,0.84095 -24.01925,-0.01169 -38.86622,-0.01169c-1.66786,0 -1.42457,-14.95796 -1.42457,-14.95796l1.78071,-30.62821c0,0 1.32025,-13.5334 2.84914,-13.5334c9.88992,0 24.68694,-0.93059 31.15944,0.71298c2.1575,0.54786 4.09861,14.95725 4.09861,14.95725z" data-paper-data="{&quot;origPos&quot;:null}" fill="#66c8ff" stroke="#000000" stroke-width="3.5" stroke-linecap="round"/><path d="M232.82346,223.82117c-1.29166,0 -1.29167,-2.4875 -1.29167,-2.4875c0,-5.15926 0,-11.97684 0,-17.1361c0,0 0.00001,-2.4875 1.29167,-2.4875c1.29166,0 1.29166,2.4875 1.29166,2.4875c0,5.15926 0,10.31851 0,15.47777v1.65833c0,0 0,2.4875 -1.29166,2.4875z" fill="#ffffff" stroke="none" stroke-width="0.5" stroke-linecap="butt"/><path d="M244.82346,230.1545c-1.29166,0 -1.29167,-3.125 -1.29167,-3.125c0,-6.48148 0,-15.04629 0,-21.52778c0,0 0.00001,-3.125 1.29167,-3.125c1.29166,0 1.29166,3.125 1.29166,3.125c0,6.48148 0,12.96296 0,19.44445v2.08333c0,0 0,3.125 -1.29166,3.125z" fill="#ffffff" stroke="none" stroke-width="0.5" stroke-linecap="butt"/></g><g fill="none" stroke="#b9b9b9" stroke-width="3"><path d="M254.89468,206.21998c-0.82753,-1.35809 0.08589,-2.57767 1.30884,-3.7957c1.22296,-1.21801 2.45037,-1.58994 3.11989,-0.61516c1.41955,2.06682 -0.06978,3.04234 -1.0274,3.99608c-1.22297,1.21803 -2.23265,2.33277 -3.40133,0.41479z" stroke-linecap="butt"/><path d="M255.87895,205.62924l-2.58997,2.51944" stroke-linecap="round"/><path d="M249.74248,208.77801c1.22296,-1.21801 2.45037,-1.58994 3.11989,-0.61516c1.41955,2.06682 -0.06978,3.04234 -1.0274,3.99608c-1.22296,1.21802 -2.23264,2.33277 -3.40132,0.41479c-0.82753,-1.35809 0.08588,-2.57767 1.30883,-3.79571z" stroke-linecap="butt"/><path d="M249.41789,211.98296l-2.58997,2.51946" stroke-linecap="round"/><path d="M241.20565,214.05014c0.40066,-1.63508 1.7387,-1.48046 3.25851,-1.02164c1.51981,0.45883 2.48819,1.43557 2.24522,2.68318c-0.51516,2.64527 -2.03348,1.77826 -3.22353,1.41899c-1.51981,-0.45882 -2.84605,-0.77137 -2.2802,-3.08052z" stroke-linecap="butt"/><path d="M242.17373,214.65586l-3.1793,-1.00816" stroke-linecap="round"/><path d="M234.00593,209.67439c0.893,-1.31672 2.06779,-0.52961 3.31104,0.62589c1.24326,1.1555 1.81512,2.52367 1.19118,3.55857c-1.32294,2.19428 -2.43342,0.66261 -3.40694,-0.24218c-1.24325,-1.15551 -2.3564,-2.08274 -1.09528,-3.94227z" stroke-linecap="butt"/><path d="M232.11175,208.23799l2.58519,2.46183" stroke-linecap="round"/><path d="M227.50223,203.54975c0.893,-1.3167 2.0678,-0.52961 3.31104,0.62589c1.24326,1.1555 1.81512,2.52367 1.19118,3.55857c-1.32294,2.19427 -2.43342,0.66261 -3.40693,-0.24218c-1.24325,-1.1555 -2.3564,-2.08273 -1.09528,-3.94227z" stroke-linecap="butt"/><path d="M225.60806,202.11336l2.58521,2.46183" stroke-linecap="round"/></g><g><g data-paper-data="{&quot;index&quot;:null}"><g stroke="#000000" stroke-width="3" stroke-linecap="round"><path d="M278.99249,236.9908c0,0 2.9198,10.33691 2.48808,14.92429c-15.6623,6.39279 -25.29943,3.78911 -25.29943,3.78911c-1.99294,0.39971 -2.25392,-6.87055 -2.25392,-6.87055c0,0 -0.9747,-14.17598 -1.59858,-23.24931c-0.40966,-5.95792 -1.0497,-15.26645 -1.0497,-15.26645c0,0 -0.14545,-5.92273 0.94803,-6.05365c6.57853,-0.78762 12.79038,-2.84668 16.16085,-2.06925c1.12349,0.25914 2.70627,5.75054 2.70627,5.75054l7.89838,29.04526z" data-paper-data="{&quot;origPos&quot;:null}" fill="#582700"/><path d="M279.69117,242.70614l-25.34773,4.00908l-0.51729,-3.36246l25.34772,-4.26772z" data-paper-data="{&quot;origPos&quot;:null}" fill="none"/></g><path d="M253.54236,242.93299l-1.73302,-36.8268l1.15535,-0.86652l15.59723,-2.59955l9.82048,36.10471z" fill="#66c8ff" stroke="#000000" stroke-width="1" stroke-linecap="round"/><path d="M254.2387,246.2809l-0.36699,-2.30203l25.18283,-4.01465l0.36699,2.30203z" fill="#ffffff" stroke="none" stroke-width="0" stroke-linecap="butt"/></g><g fill="#fffc96" stroke="#000000" stroke-width="2" stroke-linecap="round"><path d="M277.13307,232.36755c0,0 4.35886,0.46489 4.30244,3.4086c-0.09028,4.70982 -32.63647,-0.83964 -32.83846,-5.75378c-0.08253,-2.0078 3.08488,-2.18542 3.08488,-2.18542l0.29885,1.84764c0,0 5.87811,2.38292 13.44101,3.84639c7.45811,1.44319 12.53791,1.03867 12.53791,1.03867z"/><path d="M274.90385,224.04337c0,0 3.00112,-2.34415 3.95865,-0.2286c2.01,4.44084 -27.14775,23.94366 -28.05336,19.39864c-0.54845,-2.75257 2.74428,-3.87382 2.74428,-3.87382l0.25975,1.35222c0,0 4.89612,-2.09478 11.41298,-6.62048c6.51687,-4.52569 10.07493,-8.78464 10.07493,-8.78464z" data-paper-data="{&quot;index&quot;:null}"/></g></g><path d="M279.30698,253.91771c0,0 4.36261,-1.02642 6.59769,-0.26656c1.71105,0.58168 2.36541,2.38846 2.87475,4.12242c1.39803,4.7595 0.14776,9.61376 0.42148,17.32516c0.07454,2.10025 -2.9719,3.39358 -5.07256,3.33199c-1.96473,-0.05762 -5.37653,-0.27815 -5.37653,-0.27815l-33.06388,-1.70473c0,0 -4.27348,-0.36046 -5.09926,-2.06162c-1.98861,-4.09672 -0.70456,-8.62555 -1.12247,-13.16021c-0.14163,-1.53674 4.64985,-1.83404 4.64985,-1.83404c0,0 8.8983,-1.38422 14.59369,-2.27018c8.03835,-1.25044 20.59726,-3.20407 20.59726,-3.20407z" data-paper-data="{&quot;index&quot;:null}" fill="#4b4b4b" stroke="#000000" stroke-width="3" stroke-linecap="round"/><path d="M240.53179,265.47173c0,0 2.03836,3.99136 1.83413,6.34323c-0.15632,1.80045 -1.75461,2.86727 -3.31681,3.77589c-4.28805,2.49399 -9.30043,2.43889 -16.72345,4.54589c-2.02171,0.57384 -4.00501,-2.07569 -4.44676,-4.1303c-0.41315,-1.92166 -1.01361,-5.28744 -1.01361,-5.28744l-6.23898,-32.51463c0,0 -0.67031,-4.23595 0.78448,-5.44402c3.50343,-2.90924 8.20786,-2.74364 12.51159,-4.23217c1.45848,-0.50445 2.89121,4.07747 2.89121,4.07747c0,0 3.46876,8.31044 5.68895,13.62958c3.13353,7.50731 8.02925,19.23654 8.02925,19.23654z" data-paper-data="{&quot;index&quot;:null}" fill="#4b4b4b" stroke="#000000" stroke-width="3" stroke-linecap="round"/><path d="M221.5164,202.84585c0,0 -1.90505,-4.15941 -2.02318,-5.23854c-0.35439,-3.23734 -0.97671,-17.41242 -1.49656,-30.22572c-0.08042,-1.9819 1.4098,-5.14393 1.4098,-5.14393c0,0 2.13449,-1.71587 3.39489,-1.77391c13.90587,-0.64031 27.09329,-2.34204 32.31351,-1.005c1.74007,0.44568 4.95595,2.05399 4.95595,2.05399c0,0 0.88832,4.36297 1.06826,5.48778c0.05997,0.37494 0.09475,0.58592 0.13229,0.96377c1.12469,11.32121 1.21173,24.47132 1.02641,29.0726c-0.06177,1.53376 -1.7797,3.9954 -1.7797,3.9954c0,0 -1.27559,2.78117 -5.63892,3.76789c-4.77425,1.07961 -16.49495,1.18229 -28.58184,1.25094z" fill="#582700" stroke="#000000" stroke-width="2.5" stroke-linecap="round"/><g data-paper-data="{&quot;index&quot;:null}"><g data-paper-data="{&quot;origRot&quot;:0}" stroke="#000000" stroke-width="3" stroke-linecap="round"><path d="M261.83183,255.2765c-0.04617,2.45236 -9.31361,0.64319 -9.31361,0.64319c0,0 -24.64596,-4.13914 -36.29436,-6.0475c-4.77868,-1.4832 -5.20417,-40.50944 -0.89992,-44.59846c1.91868,-1.82274 12.37791,-3.66324 13.93126,-2.21646c2.95671,2.75385 7.93852,19.0631 7.93852,19.0631l-4.48656,0.05757l11.77143,0.91529c0,0 13.77624,-0.07064 19.56458,1.42533c3.21027,0.82967 -2.21134,30.75796 -2.21134,30.75796z" data-paper-data="{&quot;origPos&quot;:null}" fill="#582700"/><path d="M251.22973,254.10634l1.95561,-29.99147" fill="none"/><path d="M246.9154,254.03749l1.64878,-30.01678" data-paper-data="{&quot;origPos&quot;:null}" fill="none"/></g><path d="M250.99832,254.71246l-3.01365,-0.23102l1.79375,-30.69468l3.01365,0.23102z" fill="#ffffff" stroke="none" stroke-width="0" stroke-linecap="butt"/><path d="M215.90407,250.00378l-2.97529,-10.83922l0.22074,-24.03314l2.13183,-8.21164l4.02103,-3.40833l8.05603,0.19491l1.61119,0.03899l7.28428,17.2035l-3.22191,0.17246l0.00398,2.00331l14.2338,1.09555l-0.74534,30.28048l-29.00965,-4.70824z" fill="#66c8ff" stroke="#000000" stroke-width="0.5" stroke-linecap="round"/></g><path d="M262.42035,162.01569l-0.73508,-0.49313c-0.09062,-0.02686 -0.18116,-0.05323 -0.27166,-0.07913c-0.20808,0.32023 -0.62316,0.70057 -1.36776,0.48786c-0.68628,-0.19605 -0.86875,-0.67202 -0.89902,-1.04432c-2.6535,-0.54893 -5.2954,-0.75626 -8.06554,-0.88848c-7.74606,-0.10474 -15.48426,0.3917 -23.22294,0.72845c-2.53792,0.11044 -8.1741,1.37866 -10.36703,-0.21441c-1.06949,-0.77691 -0.74901,-2.72309 -0.89515,-3.77083c-0.42342,-3.03617 -0.92961,-6.17669 -1.07447,-9.24094c-0.16255,-4.00644 -1.81599,-7.51873 -2.49104,-11.42589c-0.33843,-1.95879 -1.09132,-3.91005 0.59766,-5.68869c0.47688,-0.5022 1.36259,-0.25967 2.05201,-0.32546c2.51961,-0.24043 4.97094,-0.17333 7.48146,0.016c7.95583,0.59996 15.80447,0.7815 23.72724,1.86865c3.19618,0.44239 6.39581,0.373 9.62178,0.34274c1.89597,-0.01777 3.59985,-0.63268 4.82532,1.4823c0.73182,1.26302 0.40454,5.28499 0.41441,6.76797c0.0381,5.71834 1.23944,12.68896 0.2874,18.48393c0.11872,0.03356 0.2375,0.06788 0.3564,0.10296l1.321,0.75201c0,0 1.06921,0.64751 0.42173,1.71673c-0.64751,1.06921 -1.71673,0.42173 -1.71673,0.42173z" data-paper-data="{&quot;index&quot;:null}" fill="#000000" stroke="none" stroke-width="0.5" stroke-linecap="butt"/><path d="M244.16726,177.51109c0.54524,-0.04417 1.22887,2.90344 1.52705,6.58363c0.29816,3.68019 0.09787,6.6994 -0.44736,6.74354c-0.54524,0.04417 -1.22887,-2.90342 -1.52705,-6.58361c-0.29816,-3.68019 -0.09788,-6.69941 0.44735,-6.74356z" data-paper-data="{&quot;index&quot;:null}" fill="none" stroke="#000000" stroke-width="2.5" stroke-linecap="butt"/><path d="M243.31906,175.29785l0.23841,0.12344c0.42564,-0.05072 0.79701,0.14477 0.79701,0.14477c0.89126,0.46929 1.77548,0.95207 2.65478,1.44341l0.04358,0.07065l0.01988,-0.02719l1.02451,0.74895c0.30082,0.21598 0.5031,0.5629 0.52045,0.96158c0.03002,0.6897 -0.50478,1.27315 -1.19448,1.30315c-0.16818,0.00731 -0.33003,-0.01895 -0.47908,-0.07283l-1.29334,-0.4339l0.0723,-0.2155c-0.87762,-0.16071 -1.55306,-0.56545 -2.77979,-1.45897l-0.74216,-0.35146c0,0 -1.11805,-0.55899 -0.55907,-1.67704c0.55899,-1.11805 1.67703,-0.55907 1.67703,-0.55907z" data-paper-data="{&quot;index&quot;:null}" fill="#582700" stroke="none" stroke-width="0.5" stroke-linecap="butt"/><path d="M236.99191,185.51659c0.26417,0.24767 -0.87693,1.89393 -2.54868,3.67701c-1.67173,1.78307 -3.24111,3.02779 -3.50528,2.7801c-0.26417,-0.24767 0.87692,-1.89392 2.54867,-3.677c1.67173,-1.78307 3.24111,-3.02779 3.50528,-2.78012z" data-paper-data="{&quot;index&quot;:null}" fill="none" stroke="#000000" stroke-width="2.5" stroke-linecap="butt"/><path d="M236.67687,186.29892c-0.30101,0.20131 -1.64653,-1.28254 -3.00531,-3.31423c-1.35879,-2.03169 -2.21633,-3.84191 -1.91532,-4.04321c0.30101,-0.20133 1.64653,1.28252 3.00532,3.31421c1.35879,2.03169 2.21634,3.84192 1.91533,4.04322z" data-paper-data="{&quot;index&quot;:null}" fill="none" stroke="#000000" stroke-width="2.5" stroke-linecap="butt"/><path d="M253.44875,196.44371c-0.33541,0.67082 -1.00623,0.33541 -1.00623,0.33541l-0.46146,-0.24712c-1.92337,-0.52407 -3.15317,-0.65808 -5.06596,-0.01219c0,0 -0.71151,0.23717 -0.94868,-0.47434c-0.23717,-0.71151 0.47434,-0.94868 0.47434,-0.94868c2.19431,-0.72302 3.72976,-0.6109 5.93404,-0.01219l0.73854,0.35288c0,0 0.67082,0.33541 0.33541,1.00623z" fill="#000000" stroke="none" stroke-width="0.5" stroke-linecap="butt"/></g></g></svg>