<svg version="1.1" xmlns="http://www.w3.org/2000/svg" xmlns:xlink="http://www.w3.org/1999/xlink" width="189.26654" height="221.55319" viewBox="0,0,189.26654,221.55319"><g transform="translate(-145.36673,-69.22341)"><g data-paper-data="{&quot;isPaintingLayer&quot;:true}" fill-rule="nonzero" stroke-linejoin="miter" stroke-miterlimit="10" stroke-dasharray="" stroke-dashoffset="0" style="mix-blend-mode: normal"><path d="M145.36673,290.7766v-221.55318h189.26654v221.55319z" fill="none" stroke="none" stroke-width="none" stroke-linecap="butt"/><g><g><g data-paper-data="{&quot;origRot&quot;:0}" stroke="#000000" stroke-width="3" stroke-linecap="round"><path d="M287.08858,206.62717c-0.221,2.22927 -7.96762,0.16132 -7.96762,0.16132c0,0 -20.65127,-4.88788 -30.41519,-7.15439c-3.95371,-1.56704 -1.42353,-37.09579 2.53963,-40.62041c1.76666,-1.57116 10.79716,-2.7698 12.01087,-1.38269c2.3102,2.64025 5.33798,17.70654 5.33798,17.70654l-3.81946,-0.15182l9.94214,1.36856c0,0 11.72001,0.56273 16.53134,2.18733c2.6684,0.90102 -4.15971,27.88555 -4.15971,27.88555z" data-paper-data="{&quot;origPos&quot;:null}" fill="#582700"/><path d="M278.15967,205.0799l3.88546,-27.19977" fill="none"/><path d="M278.12242,177.58411l-3.62641,27.23677" data-paper-data="{&quot;origPos&quot;:null}" fill="none"/></g><path d="M277.91798,205.62087l-2.54558,-0.34735l3.79993,-27.847l2.54558,0.34735z" fill="#ffffff" stroke="none" stroke-width="0" stroke-linecap="butt"/><path d="M248.40363,199.71477l-1.72685,-9.99786l1.96863,-21.85734l2.42134,-7.37463l3.67191,-2.91818l6.83609,0.54399l1.36723,0.10879l4.91945,15.98472l-2.75258,0.01026l-0.14506,1.82296l12.02269,1.64465l-2.87769,27.51783l-24.3198,-5.60429z" fill="#ffcb66" stroke="#000000" stroke-width="0.5" stroke-linecap="round"/></g><g fill="none" stroke="none" stroke-width="1" stroke-linecap="butt" font-family="sans-serif" font-weight="normal" font-size="12" text-anchor="start"/></g><g><g data-paper-data="{&quot;index&quot;:null}"><path d="M288.22065,177.35249c2.15126,0.60159 7.16003,-1.91426 6.60132,0.08362c-0.2846,1.01765 -5.8437,19.50546 -6.73873,20.24477c-0.8621,0.71207 -1.89035,1.02554 -2.94582,0.73039c-0.7181,-0.20083 -1.72571,-0.8568 -2.2581,-1.5844c-1.06256,-1.45215 -0.30568,-21.15457 0.06653,-22.48557c0.55872,-1.99789 3.12355,2.4096 5.2748,3.01119z" fill="#e99b00" stroke="#000000" stroke-width="1.5" stroke-linecap="butt"/><g stroke-linecap="butt"><path d="M290.08604,170.77601c3.89758,1.08994 6.47378,4.05976 5.75408,6.63327c-0.71967,2.57351 -4.46269,3.77619 -8.36027,2.68627c-3.89758,-1.08995 -6.47378,-4.05977 -5.75409,-6.63329c0.71967,-2.57351 4.4627,-3.77618 8.36027,-2.68624z" fill="#ffb727" stroke="#000000" stroke-width="1.5"/><path d="M284.85522,177.96864c0,0 -1.36821,-0.75042 -2.13071,-2.15754c-0.35374,-0.67651 -0.5223,-2.49033 -0.5223,-2.49033l2.77746,2.30579z" fill="#ffd683" stroke="none" stroke-width="0"/><path d="M287.78888,179.381l-1.69079,-0.52247c0,0 -0.05743,-0.7252 0.02251,-1.10365c0.06828,-0.32322 0.41944,-1.19878 0.41944,-1.19878l1.34265,0.66673z" fill="#ffd683" stroke="none" stroke-width="0"/></g><g><path d="M288.58636,176.5343c-5.37681,-1.50362 -9.79855,-6.74657 -8.29495,-12.12334c1.50362,-5.37681 6.3761,-8.11966 11.75288,-6.61605c5.37681,1.50362 8.79216,7.15833 7.28856,12.5351c-1.50362,5.37681 -5.3697,7.70789 -10.74646,6.20429z" fill="#e99b00" stroke="#000000" stroke-width="1.5" stroke-linecap="butt"/><path d="M290.04284,157.98435c0,0 0.95396,1.63766 2.09094,4.04092c1.13422,2.39742 1.70277,5.66747 1.04582,8.01673c-1.31554,4.70428 -3.19129,6.05542 -7.09791,4.96297c-1.90057,-0.53149 -3.37909,-2.05221 -4.13046,-3.81692c-1.05464,-2.47696 -1.58016,-5.60508 -0.83414,-8.27273c1.31554,-4.70428 8.92575,-4.93097 8.92575,-4.93097z" fill="#ffb727" stroke="none" stroke-width="0" stroke-linecap="butt"/><path d="M298.3335,170.41341c0,0 -3.76909,2.48232 -9.97665,0.50542c-6.15712,-1.96083 -7.77958,-6.39206 -7.77958,-6.39206" fill="none" stroke="#000000" stroke-width="0.8" stroke-linecap="round"/><path d="M295.52655,175.09798c0,0 -2.73943,1.23549 -8.17867,-1.20967c-3.7743,-1.6967 -6.84387,-4.77611 -6.84387,-4.77611" fill="none" stroke="#000000" stroke-width="0.75" stroke-linecap="round"/><path d="M298.74479,167.7073c0,0 -2.32813,1.35096 -8.14964,-0.87074c-6.05259,-2.30989 -7.99879,-6.23593 -7.99879,-6.23593" fill="none" stroke="#000000" stroke-width="0.8" stroke-linecap="round"/><path d="M285.33367,158.42984c0,0 4.12084,1.10645 7.80009,3.26201c2.79335,1.63651 5.90108,4.77237 5.90108,4.77237" fill="none" stroke="#000000" stroke-width="0.8" stroke-linecap="round"/><path d="M295.40416,160.09453c0,0 1.95969,3.08044 0.26756,8.30789c-1.81332,5.6018 -4.82197,7.97851 -4.82197,7.97851" fill="none" stroke="#000000" stroke-width="0.8" stroke-linecap="round"/><path d="M287.79337,175.98684c0,0 0.61391,-2.93074 1.19127,-4.62069c0.48612,-1.42283 1.91885,-3.9886 2.86721,-6.50011c1.0784,-2.85592 1.65123,-5.59103 1.65123,-5.59103" fill="none" stroke="#000000" stroke-width="0.8" stroke-linecap="round"/><path d="M285.36692,175.19314c0,0 -1.0544,-4.28835 0.72852,-10.03515c1.13596,-3.66147 5.08573,-7.05044 5.08573,-7.05044" fill="none" stroke="#000000" stroke-width="0.8" stroke-linecap="round"/><path d="M281.56207,171.71102c0,0 -0.56392,-3.19906 1.77974,-8.21708c1.62751,-3.48464 4.62283,-5.82527 4.62283,-5.82527" fill="none" stroke="#000000" stroke-width="0.8" stroke-linecap="round"/><path d="M282.24073,163.72532c-0.38338,-0.10721 -0.5939,-0.55272 -0.47018,-0.9951c0.12369,-0.44236 0.53478,-0.71405 0.91818,-0.60684c0.38338,0.10721 0.59391,0.55273 0.47019,0.99509c-0.12369,0.44236 -0.5348,0.71406 -0.91818,0.60685z" fill="#ffd683" stroke="none" stroke-width="0" stroke-linecap="butt"/><path d="M283.85122,160.95155c-0.22118,-0.06186 -0.35034,-0.29129 -0.28849,-0.51247c0.06185,-0.22118 0.29129,-0.35034 0.51247,-0.28849c0.22118,0.06186 0.35034,0.2913 0.28849,0.51247c-0.06185,0.22118 -0.29129,0.35035 -0.51247,0.28849z" fill="#ffd683" stroke="none" stroke-width="0" stroke-linecap="butt"/></g></g><path d="M283.79094,177.75491c-2.17784,9.6325 -3.2322,11.11765 -3.2322,11.11765c-0.33815,1.19191 -1.4624,0.75015 -1.4624,0.75015c0,0 -2.285,-0.59044 -3.7475,-0.96836c-0.96035,-0.24815 -2.46076,-0.63585 -2.46076,-0.63585c0,0 -0.9025,-0.39897 -0.70394,-1.04573c1.19461,-3.89095 2.12861,-7.6724 2.91483,-9.56948c0.26207,-0.63236 1.38735,-1.10469 1.38735,-1.10469l4.75058,0.66913c0,0 1.96347,0.16152 2.55402,0.78718z" fill="#582700" stroke="#000000" stroke-width="3" stroke-linecap="round"/><path d="M294.76591,181.88935c-4.95046,19.80392 -7.02727,22.91955 -7.02727,22.91955c-0.73806,2.45643 -2.74881,1.65409 -2.74881,1.65409c0,0 -4.11761,-1.00463 -6.75307,-1.64761c-1.73056,-0.42222 -4.43435,-1.08188 -4.43435,-1.08188c0,0 -1.60964,-0.73434 -1.18159,-2.06855c2.57529,-8.02683 4.66324,-15.80818 6.29137,-19.73943c0.54271,-1.31041 2.64728,-2.36964 2.64728,-2.36964l8.6168,0.9515c0,0 3.573,0.15898 4.58961,1.38197z" fill="#582700" stroke="#000000" stroke-width="3" stroke-linecap="round"/></g><g data-paper-data="{&quot;origRot&quot;:0}" stroke="#000000" stroke-linecap="round"><path d="M242.43208,218.6415c0,0 -0.80389,-4.63127 0.82234,-4.82422c4.7988,-0.56933 9.19646,-2.75997 13.90573,-1.73847c1.95554,0.42418 3.32122,4.42127 3.32122,4.42127l9.44206,31.15662c0,0 1.02058,3.20545 1.53635,5.06619c0.55146,1.98945 -0.08243,5.16971 -2.27737,5.54684c-8.05913,1.38477 -12.80208,3.6126 -18.06149,3.29558c-1.91609,-0.1155 -3.94133,-0.35373 -4.9416,-1.86077c-1.30665,-1.96858 -1.255,-6.34658 -1.255,-6.34658z" data-paper-data="{&quot;origPos&quot;:null}" fill="#ff0000" stroke-width="3"/><path d="M272.0229,255.95689c0,0 -5.80589,3.42395 -11.14685,4.18712c-4.09777,0.58552 -13.14034,0.86534 -13.14034,0.86534c0,0 -1.84577,-2.31416 -2.20036,-3.84551c-0.37355,-1.61318 0.33456,-4.21195 0.33456,-4.21195l24.34364,-4.2668z" data-paper-data="{&quot;origPos&quot;:null}" fill="#976e57" stroke-width="2"/><path d="M242.56988,218.939c0,0 -0.80389,-4.63127 0.82236,-4.82421c4.79879,-0.56933 9.19646,-2.75997 13.90576,-1.73845c1.95554,0.42418 3.32121,4.42126 3.32121,4.42126l9.44206,31.15662c0,0 1.0206,3.20546 1.53638,5.06619c0.55146,1.98945 -0.08244,5.1697 -2.27737,5.54684c-8.05913,1.38477 -12.80208,3.61261 -18.06149,3.29559c-1.91609,-0.1155 -3.94133,-0.35375 -4.94159,-1.86077c-1.30665,-1.96858 -1.25501,-6.34658 -1.25501,-6.34658z" data-paper-data="{&quot;origPos&quot;:null}" fill="#474747" stroke-width="3"/></g><g data-paper-data="{&quot;index&quot;:null,&quot;origRot&quot;:0}" stroke="#000000" stroke-linecap="round"><path d="M239.48057,253.01459c0,0 0.26586,4.37144 -0.94309,6.39209c-0.9255,1.54691 -2.93703,1.86868 -4.84552,2.06336c-5.23855,0.53434 -10.08575,-1.49501 -18.20449,-2.54488c-2.21118,-0.28594 -3.0001,-3.43675 -2.54658,-5.447c0.42418,-1.88018 1.28682,-5.12462 1.28682,-5.12462l7.90745,-31.51575c0,0 1.16864,-4.04955 3.10142,-4.5542c4.65451,-1.21533 9.15494,0.7911 13.97673,1.1613c1.63403,0.12546 1.05766,4.78529 1.05766,4.78529z" data-paper-data="{&quot;origPos&quot;:null}" fill="#ff0000" stroke-width="3"/><path d="M213.98829,249.39297l24.5278,3.25515c0,0 0.83461,2.56684 0.5404,4.19384c-0.27927,1.54447 -2.00991,3.93266 -2.00991,3.93266c0,0 -9.04711,0.09463 -13.16937,-0.32073c-5.37289,-0.5414 -11.34049,-3.72162 -11.34049,-3.72162z" data-paper-data="{&quot;origPos&quot;:null}" fill="#976e57" stroke-width="2.5"/><path d="M239.35747,253.31752c0,0 0.26586,4.37144 -0.94309,6.39209c-0.9255,1.54691 -2.93703,1.86869 -4.84552,2.06337c-5.23855,0.53434 -10.08574,-1.495 -18.20449,-2.54488c-2.21118,-0.28594 -3.0001,-3.43675 -2.54658,-5.44699c0.42418,-1.88018 1.28682,-5.12462 1.28682,-5.12462l7.90745,-31.51575c0,0 1.16863,-4.04955 3.10142,-4.5542c4.65451,-1.21533 9.15496,0.7911 13.97674,1.1613c1.63403,0.12546 1.05765,4.78529 1.05765,4.78529c0,0 -0.19986,8.79551 -0.32778,14.42511c-0.18055,7.94549 -0.46264,20.35932 -0.46264,20.35932z" data-paper-data="{&quot;origPos&quot;:null}" fill="#474747" stroke-width="1.5"/></g><g><g><path d="M221.20141,171.66504c0,0 2.06246,-14.07675 4.35485,-14.61195c6.87713,-1.60563 22.59919,-0.69652 33.10739,-0.69652c1.62446,0 3.02726,13.22097 3.02726,13.22097l1.89202,29.92114c0,0 0.2585,14.61265 -1.51362,14.61265c-15.77513,0 -34.26464,0.83294 -41.29596,0.01142c-2.34376,-0.27383 -1.46397,-15.66782 -1.46397,-15.66782z" data-paper-data="{&quot;origPos&quot;:null}" fill="#ffcb66" stroke="#000000" stroke-width="3.5" stroke-linecap="round"/><path d="M241.22437,179.67456c-1.37242,0 -1.37242,-2.43007 -1.37242,-2.43007c0,-5.04016 0,-11.70035 0,-16.7405c0,0 0,-2.43007 1.37242,-2.43007c1.37242,0 1.37242,2.43007 1.37242,2.43007c0,5.04016 0,10.0803 0,15.12046v1.62005c0,0 0,2.43007 -1.37242,2.43007z" fill="#ffffff" stroke="none" stroke-width="0.5" stroke-linecap="butt"/><path d="M253.97455,185.8617c-1.37242,0 -1.37242,-3.05286 -1.37242,-3.05286c0,-6.33185 0,-14.69894 0,-21.03079c0,0 0,-3.05286 1.37242,-3.05286c1.37242,0 1.37242,3.05286 1.37242,3.05286c0,6.33185 0,12.6637 0,18.99557v2.03524c0,0 0,3.05286 -1.37242,3.05286z" fill="#ffffff" stroke="none" stroke-width="0.5" stroke-linecap="butt"/></g><g stroke="#000000" stroke-width="0.5" stroke-linecap="butt"><path d="M256.97951,195.55771c0,6.60172 -4.9035,11.95349 -10.95227,11.95349c-6.04877,0 -10.95227,-5.35176 -10.95227,-11.95349c0,-6.60172 4.9035,-11.95349 10.95227,-11.95349c6.04877,0 10.95227,5.35176 10.95227,11.95349z" fill="#ffa924"/><path d="M249.27904,184.53052c0.00045,0.01095 0.00068,0.02212 0.00068,0.0335c0,0.6103 -0.66377,0.6103 -0.66377,0.6103h-0.13275c-0.48499,0 -2.69585,0.02726 -3.02722,-0.10493c-0.27663,-0.11035 -0.21646,-0.53055 -0.4155,-0.73882c-0.19122,-0.20008 -0.46329,-0.3238 -0.71927,-0.44851c-0.40706,-0.19832 -0.963,-0.19514 -1.26247,-0.51699c-0.27664,-0.29732 -0.30952,-0.75398 -0.28347,-1.14452c0.12236,-1.83414 1.34646,-1.85291 2.92769,-1.68753c0.47692,0.09659 0.96906,0.14347 1.43077,0.28975c0.20312,0.06435 0.32434,0.2873 0.53347,0.33255c0.14865,0.03217 0.28849,-0.09554 0.43842,-0.12225c0.0064,-0.00114 1.8584,-0.24435 1.87676,-0.24675c1.25207,-0.16344 2.59107,-0.21113 3.85466,-0.12687c0.80516,0.05369 2.62443,0.23708 3.0888,0.97887c0.66131,1.05641 -1.26078,1.77122 -1.74187,1.95205c-1.42372,0.53513 -2.63895,0.20249 -4.08894,0.35779c-0.49392,0.0529 -1.28775,0.37136 -1.81598,0.58237z" fill="#1cc735"/></g></g><path d="M259.91297,160.25814c-12.0682,-0.67505 -23.769,-1.36572 -28.48306,-2.68354c-4.30833,-1.2044 -5.44275,-4.04609 -5.44275,-4.04609c0,0 -1.59226,-2.54473 -1.57699,-4.07967c0.04582,-4.6048 0.79258,-17.73394 2.48393,-28.98446c0.05644,-0.37548 0.10177,-0.58447 0.18049,-0.95592c0.23613,-1.11436 1.34228,-5.42726 1.34228,-5.42726c0,0 3.29252,-1.44492 5.05277,-1.80272c5.28074,-1.07341 18.36614,1.28788 32.22238,2.62516c1.25589,0.12121 3.3016,1.94203 3.3016,1.94203c0,0 1.32967,3.23282 1.14991,5.20818c-1.16214,12.77106 -2.49497,26.89708 -3.01134,30.11255c-0.17212,1.07183 -2.28349,5.13041 -2.28349,5.13041z" fill="#582600" stroke="#000000" stroke-width="2.5" stroke-linecap="round"/><path d="M262.03307,139.89644c0.31219,-3.43078 0.97731,-6.1745 1.48557,-6.12824c0.50826,0.04624 0.66721,2.86495 0.35503,6.29572c-0.31219,3.43078 -0.97731,6.17451 -1.48557,6.12825c-0.50826,-0.04624 -0.66721,-2.86496 -0.35503,-6.29574z" fill="none" stroke="#000000" stroke-width="2.5" stroke-linecap="butt"/><path d="M255.49271,140.00164c0.31797,-3.49433 0.88478,-6.29892 1.26596,-6.26422c0.38119,0.03469 0.43246,2.89553 0.11448,6.38984c-0.31797,3.49433 -0.88476,6.2989 -1.26595,6.26422c-0.38119,-0.03469 -0.43246,-2.89551 -0.11449,-6.38983z" fill="none" stroke="#000000" stroke-width="2.5" stroke-linecap="butt"/><path d="M227.22152,113.54459l1.21614,-12.94299l43.60792,4.09745l-1.21614,12.94299z" fill="#000000" stroke="none" stroke-width="0" stroke-linecap="butt"/><path d="M259.73858,132.61625c-1.95872,1.07589 -7.59928,3.69337 -8.97969,1.56638c-1.84993,-2.85046 6.36123,-7.07646 7.75787,-6.66963c0.26105,-0.0628 0.53674,-0.0843 0.819,-0.05778c1.37466,0.12917 2.38433,1.34825 2.25516,2.72291c0.47931,0.69548 -1.31287,2.1418 -1.85234,2.43812z" fill="#582600" stroke="none" stroke-width="0.5" stroke-linecap="butt"/><g data-paper-data="{&quot;index&quot;:null}"><g data-paper-data="{&quot;origRot&quot;:0,&quot;index&quot;:null}" stroke="#000000" stroke-width="3" stroke-linecap="round"><path d="M225.95795,210.1708c0,0 -25.19106,-1.80717 -25.20687,-4.36259c-0.02853,-4.60758 2.8263,-14.86395 2.8263,-14.86395l8.55584,-28.85843c0,0 1.70706,-5.45404 2.83615,-5.68761c3.38724,-0.70071 9.55074,1.4989 16.10969,2.43567c1.09021,0.15572 0.81033,6.07362 0.81033,6.07362c0,0 -0.85125,9.2916 -1.39607,15.2387c-0.82972,9.05684 -2.12605,23.20702 -2.12605,23.20702c0,0 -0.42598,7.26246 -2.40933,6.8176z" data-paper-data="{&quot;origPos&quot;:null}" fill="#582600"/><path d="M227.24071,202.90983l-24.53798,-4.40343" fill="none"/><path d="M228.06154,199.68005l-24.49603,-4.63713" data-paper-data="{&quot;origPos&quot;:null}" fill="none"/></g><path d="M203.4251,194.32366l10.84762,-36.56362l1.38095,-0.44775l15.55991,2.8411l-2.99159,38.64797z" fill="#ffcb66" stroke="#000000" stroke-width="1" stroke-linecap="round"/><path d="M202.70287,198.33967l0.41935,-2.29307l25.08483,4.58732l-0.41935,2.29307z" fill="#ffffff" stroke="none" stroke-width="0" stroke-linecap="butt"/></g><path d="M232.99486,150.89511c-0.5625,-0.49608 -0.06641,-1.05857 -0.06641,-1.05857l0.46605,-0.46247c1.82133,-0.99876 3.23151,-1.28867 5.30918,-1.03032c0,0 0.74406,0.09419 0.64987,0.83825c-0.09419,0.74406 -0.83825,0.64988 -0.83825,0.64988c-1.76272,-0.22761 -2.85619,-0.00449 -4.3948,0.85479l-0.06707,0.14204c0,0 -0.49609,0.56249 -1.05858,0.06641z" fill="#000000" stroke="none" stroke-width="0.5" stroke-linecap="butt"/></g></g></svg>