<svg version="1.1" xmlns="http://www.w3.org/2000/svg" xmlns:xlink="http://www.w3.org/1999/xlink" width="95.86394" height="95.86394" viewBox="0,0,95.86394,95.86394"><g transform="translate(-192.06803,-132.06803)"><g data-paper-data="{&quot;isPaintingLayer&quot;:true}" fill-rule="nonzero" stroke-linejoin="miter" stroke-miterlimit="10" stroke-dasharray="" stroke-dashoffset="0" style="mix-blend-mode: normal"><g><g stroke="#000000" stroke-width="1"><path d="M250.47858,183.79247c0,-0.61524 0.27179,-2.04279 0.91345,-2.50617c2.61474,-1.88826 9.45051,-1.55121 10.2404,-0.09513c0.42243,0.77868 0.66111,1.66332 0.66111,2.6013c0,3.12236 -2.64487,4.59348 -5.90749,4.59348c-3.26261,0 -5.90748,-1.47113 -5.90748,-4.59348z" fill="#da0251" stroke-linecap="butt"/><path d="M252.07852,178.13895c0,0 2.79799,0.46647 3.97348,-0.10832c1.53671,-0.75143 4.457,-4.01404 4.457,-4.01404c0,0 -0.33439,3.47687 0.68993,4.06161c1.26349,0.72126 6.32521,-0.05703 6.32521,-0.05703c0,0 -0.66477,2.12662 -0.95745,3.18697c-0.28121,1.0188 -0.76557,3.05547 -0.76557,3.05547c0,0 -2.81435,-2.18321 -4.06191,-2.06875c-2.15303,0.19752 -3.56859,2.36321 -3.56859,2.36321c0,0 -1.27479,-1.95121 -2.37581,-2.4578c-1.02709,-0.47257 -4.02397,-0.48675 -4.02397,-0.48675z" fill="#feecf7" stroke-linecap="round"/></g><g stroke="#000000" stroke-linecap="round"><path d="M214.84906,199.45742c0,0 2.82729,-5.72715 3.36206,-6.81042c0.16758,-0.33945 0.69992,-0.56058 1.02269,-0.46619c0.74989,0.21928 3.73804,1.09307 3.73804,1.09307l3.32296,-3.1801l29.6605,2.47341l-0.67689,10.95369c0,0 -11.90366,2.42361 -18.32111,1.67348c-8.53683,-0.99785 -22.10823,-5.73694 -22.10823,-5.73694z" fill="#4ea5eb" stroke-width="0"/><path d="M226.2948,190.09377l29.6605,2.47341l-0.67689,10.95369c0,0 -11.90366,2.42361 -18.32111,1.67348c-4.49403,-0.5253 -10.38325,-2.08738 -14.95333,-3.44911c1.92188,-1.86019 2.23161,-5.59288 1.02102,-8.1769c0.00047,-0.01957 0.00072,-0.03921 0.00072,-0.0589c0,-0.09201 -0.00527,-0.18284 -0.01552,-0.27223z" fill="#2e67e5" stroke-width="0"/><path d="M214.84906,199.45742c0,0 2.82729,-5.72715 3.36206,-6.81042c0.16758,-0.33945 0.69992,-0.56058 1.02269,-0.46619c0.74989,0.21928 3.73804,1.09307 3.73804,1.09307l3.32296,-3.1801l29.6605,2.47341l-0.67689,10.95369c0,0 -11.90366,2.42361 -18.32111,1.67348c-8.53683,-0.99785 -22.10823,-5.73694 -22.10823,-5.73694z" fill="none" stroke-width="1"/></g><g><g stroke="#000000"><path d="M237.897,207.07353l2.99336,2.37822c0,0 -2.24635,2.54954 -4.02882,3.05492c-3.53606,1.00256 -6.08084,0.51242 -6.08084,0.51242l-2.3721,-1.56746c0,0 -0.91984,1.27036 -2.71832,2.14823c-2.13527,1.04225 -5.32398,1.75261 -7.0813,2.23834c-2.7418,0.75784 -8.38646,0.64013 -8.38646,0.64013l-1.69435,-1.35127c0,0 -1.91602,1.49869 -2.7778,1.48916c-5.68613,-0.06291 -6.54115,-6.51585 -6.54115,-6.51585l3.6711,-1.45936z" fill="#f38285" stroke-width="0" stroke-linecap="round"/><path d="M237.89703,207.07353l2.99336,2.37822c0,0 -2.24635,2.54954 -4.02882,3.05492c-3.53606,1.00256 -6.08084,0.51242 -6.08084,0.51242l-2.3721,-1.56746c0,0 -0.91984,1.27036 -2.71832,2.14823c-2.13527,1.04225 -5.32398,1.7526 -7.0813,2.23834c-1.3114,0.36247 -3.28687,0.52465 -4.99117,0.59521c2.6319,-2.12732 6.24236,-4.55105 8.02339,-7.1396c0.47579,-0.37916 0.80661,-0.91924 0.90121,-1.53293z" fill="#e86597" stroke-width="0" stroke-linecap="butt"/><path d="M237.897,207.07353l2.99336,2.37822c0,0 -2.24635,2.54954 -4.02882,3.05492c-3.53606,1.00256 -6.08084,0.51242 -6.08084,0.51242l-2.3721,-1.56746c0,0 -0.91984,1.27036 -2.71832,2.14823c-2.13527,1.04225 -5.32398,1.75261 -7.0813,2.23834c-2.7418,0.75784 -8.38646,0.64013 -8.38646,0.64013l-1.69435,-1.35127c0,0 -1.91602,1.49869 -2.7778,1.48916c-5.68613,-0.06291 -6.54115,-6.51585 -6.54115,-6.51585l3.6711,-1.45936z" fill="none" stroke-width="1" stroke-linecap="round"/></g><path d="M213.06803,201.75567c0,0 -2.34129,-0.77477 -2.28971,-1.42403c0.13268,-1.67005 1.40544,-2.35852 2.8413,-2.88247c2.45504,-0.89585 5.57935,-0.74839 6.24644,-0.66697c2.30289,0.28107 5.09764,3.55043 5.09764,3.55043l5.88024,0.25873c0,0 1.93462,1.45836 2.77464,2.38199c1.16782,1.28406 3.57873,4.60381 3.57873,4.60381c0,0 -2.32136,1.40712 -6.08579,1.8513c-2.89822,0.34196 -10.13559,-0.16955 -10.13559,-0.16955c0,0 -9.18875,4.86086 -11.53072,4.12563c-0.72881,-0.2288 -5.87684,-1.47805 -7.01562,-3.46465c-0.22723,-0.39638 2.04894,-3.74691 2.985,-4.30748c0.7557,-0.45255 2.78701,-0.36385 2.78701,-0.36385l4.86641,-3.49291z" fill="#000000" stroke="#000000" stroke-width="0" stroke-linecap="round"/><path d="M213.06802,201.75567c0,0 -2.34129,-0.77477 -2.28971,-1.42403c0.13268,-1.67005 1.40544,-2.35852 2.8413,-2.88247c2.45504,-0.89585 5.57935,-0.74839 6.24644,-0.66697c2.30289,0.28107 5.09764,3.55043 5.09764,3.55043l0.12478,2.33336l4.40368,2.32384c0,0 3.28641,-2.94011 4.12643,-2.01648c1.16782,1.28406 3.57873,4.60381 3.57873,4.60381c0,0 -2.32136,1.40712 -6.08579,1.8513c-2.89822,0.34196 -10.13559,-0.16955 -10.13559,-0.16955c0,0 -9.18875,4.86086 -11.53072,4.12563c-0.72881,-0.2288 -5.87684,-1.47805 -7.01562,-3.46465c-0.22723,-0.39638 2.04894,-3.74691 2.985,-4.30748c0.7557,-0.45255 2.78701,-0.36385 2.78701,-0.36385l4.86641,-3.49291z" fill="#f27056" stroke="#000000" stroke-width="0" stroke-linecap="round"/><path d="M210.77831,200.33164c0.13268,-1.67005 1.40544,-2.35852 2.8413,-2.88247c2.45504,-0.89586 5.57935,-0.74839 6.24644,-0.66697c0.71202,0.0869 1.47105,0.45946 2.17996,0.93274c0.01015,0.35012 3.9061,7.11656 3.79633,7.13743c-1.08483,0.20631 -2.07063,0.49067 -3.10909,0.71152c-2.37117,0.50427 -7.3189,0.71385 -8.96124,2.54755c-0.37903,0.42319 -1.45091,1.7418 -1.98244,3.13224c-0.30661,0.40579 -0.2269,1.89869 -0.23445,1.99135c-0.8929,0.21911 -1.63951,0.29721 -2.10991,0.14953c-0.72881,-0.2288 -5.87683,-1.47805 -7.01562,-3.46465c-0.22723,-0.39638 2.04894,-3.74692 2.985,-4.30748c0.75569,-0.45255 2.78701,-0.36385 2.78701,-0.36385l4.86641,-3.49291c0,0 -2.34129,-0.77477 -2.28971,-1.42403z" fill="#f79d58" stroke="#000000" stroke-width="0" stroke-linecap="round"/><path d="M213.06803,201.75567c0,0 -2.34129,-0.77477 -2.28971,-1.42403c0.13268,-1.67005 1.40544,-2.35852 2.8413,-2.88247c2.45504,-0.89585 5.57935,-0.74839 6.24644,-0.66697c2.30289,0.28107 5.09764,3.55043 5.09764,3.55043l5.88024,0.25873c0,0 1.93462,1.45836 2.77464,2.38199c1.16782,1.28406 3.57873,4.60381 3.57873,4.60381c0,0 -2.32136,1.40712 -6.08579,1.8513c-2.89822,0.34196 -10.13559,-0.16955 -10.13559,-0.16955c0,0 -9.18875,4.86086 -11.53072,4.12563c-0.72881,-0.2288 -5.87684,-1.47805 -7.01562,-3.46465c-0.22723,-0.39638 2.04894,-3.74691 2.985,-4.30748c0.7557,-0.45255 2.78701,-0.36385 2.78701,-0.36385l4.86641,-3.49291z" fill="none" stroke="#000000" stroke-width="1" stroke-linecap="round"/><g stroke-linecap="butt"><path d="M212.87703,201.36108l0.38773,0.01967c0.04715,-0.01059 0.09412,-0.02142 0.14089,-0.03243c-0.19701,-0.09061 -0.39801,-0.27549 -0.39801,-0.65272c0,-0.73982 0.77305,-0.73982 0.77305,-0.73982h0.16943c2.71673,0 5.5567,0.49135 8.22142,0.22027c0,0 0.7688,-0.07744 0.84973,0.65831c0.08093,0.73575 -0.68788,0.8132 -0.68788,0.8132c-0.36822,0.03675 -0.73933,0.0597 -1.11268,0.07191c0.1491,0.09395 0.29413,0.19273 0.43437,0.29658c0.17698,0.01572 0.43968,0.08393 0.58688,0.3353c0.08372,0.11595 0.13781,0.26964 0.10754,0.46852c-0.00935,0.20079 -0.09267,0.34199 -0.19769,0.44081c-0.15266,0.17345 -0.3533,0.22261 -0.51809,0.22767c-1.68359,0.21438 -3.36153,0.40193 -5.04294,0.59291c0.32637,0.22182 0.64729,0.45055 0.95788,0.69222l0.5823,0.46439c0.13862,0.06856 0.27081,0.18735 0.33599,0.39228c0.05853,0.13112 0.08681,0.2955 0.01678,0.4778c-0.05056,0.18811 -0.17141,0.30801 -0.29741,0.38412c-0.1758,0.13364 -0.35566,0.15931 -0.51076,0.14005c-0.65859,0.05466 -1.31518,0.09219 -1.97069,0.12149c0.45279,0.32393 0.86608,0.65605 1.22044,0.98593l0.02501,-0.03048c0,0 0.69144,0.33086 0.34572,0.99257c-0.34572,0.66171 -1.03715,0.33086 -1.03715,0.33086l-0.42683,-0.24668c-0.6618,-0.65888 -1.67372,-1.34783 -2.76101,-1.93716c-1.4576,0.05186 -2.91572,0.12223 -4.38422,0.30965l-0.15864,0.00649c0,0 -0.77305,0 -0.77305,-0.73982c0,-0.73982 0.77305,-0.73982 0.77305,-0.73982l-0.04569,0.00648c0.49441,-0.06307 0.98774,-0.11296 1.48033,-0.15341c-0.09379,-0.02656 -0.18583,-0.05106 -0.27589,-0.07337c0,0 -0.7476,-0.18828 -0.55086,-0.90374c0.09896,-0.35989 0.3373,-0.4911 0.54976,-0.53264l0.32097,-0.27328c0.40819,-0.08224 0.81634,-0.16474 1.22437,-0.24776c0.18647,-0.31413 0.60035,-0.35814 0.60035,-0.35814l0.49152,-0.05208c0.03873,-0.00494 0.07745,-0.00986 0.11616,-0.01478c-0.15808,-0.12023 -0.31381,-0.24355 -0.46657,-0.3707c0,0 -0.58178,-0.48717 -0.07272,-1.04394c0.23563,-0.25771 0.48684,-0.29176 0.68872,-0.25398c0.15556,-0.0527 0.28841,-0.0527 0.28841,-0.0527zM217.31645,201.66254c-0.99394,0.33869 -1.9398,0.6914 -2.94099,0.96807c0.09107,0.06165 0.18255,0.12278 0.27435,0.18354c1.48081,-0.17307 2.95543,-0.33533 4.43216,-0.50757c-0.38571,-0.14574 -0.77885,-0.2637 -1.15163,-0.35566c0,0 -0.32611,-0.08322 -0.48992,-0.3459c-0.07163,0.03963 -0.12399,0.05753 -0.12399,0.05753zM215.69645,205.27614c-0.46162,-0.31978 -0.93557,-0.62353 -1.40846,-0.92868c-0.54008,0.06419 -1.08096,0.13014 -1.62291,0.19885c-0.12793,0.15317 -0.30954,0.22824 -0.40638,0.25935c0.3868,0.16988 0.77592,0.35654 1.15986,0.556c0.75878,-0.02565 1.51766,-0.04957 2.27787,-0.08553z" fill="#feecf7" stroke="none" stroke-width="0.5"/><path d="M212.87703,201.36108l0.38773,0.01967c0.04715,-0.01059 0.09412,-0.02142 0.14089,-0.03243c-0.19701,-0.09061 -0.39801,-0.27549 -0.39801,-0.65272c0,-0.73982 0.77305,-0.73982 0.77305,-0.73982h0.16943c2.71673,0 5.5567,0.49135 8.22142,0.22027c0,0 0.7688,-0.07744 0.84973,0.65831c0.08093,0.73575 -0.68788,0.8132 -0.68788,0.8132c-0.36822,0.03675 -0.73933,0.0597 -1.11268,0.07191c0.1491,0.09395 0.29413,0.19273 0.43437,0.29658c0.17698,0.01572 0.43968,0.08393 0.58688,0.3353c0.08372,0.11595 0.13781,0.26964 0.10754,0.46852c-0.00935,0.20079 -0.09267,0.34199 -0.19769,0.44081c-0.15266,0.17345 -0.3533,0.22261 -0.51809,0.22767c-1.68359,0.21438 -3.36153,0.40193 -5.04294,0.59291c0.32637,0.22182 0.64729,0.45055 0.95788,0.69222l0.5823,0.46439c0.13862,0.06856 0.27081,0.18735 0.33599,0.39228c0.05853,0.13112 0.08681,0.2955 0.01678,0.4778c-0.05056,0.18811 -0.17141,0.30801 -0.29741,0.38412c-0.1758,0.13364 -0.35566,0.15931 -0.51076,0.14005c-0.65859,0.05466 -1.31518,0.09219 -1.97069,0.12149c0.45279,0.32393 0.86608,0.65605 1.22044,0.98593l0.02501,-0.03048c0,0 0.69144,0.33086 0.34572,0.99257c-0.34572,0.66171 -1.03715,0.33086 -1.03715,0.33086l-0.42683,-0.24668c-0.6618,-0.65888 -1.67372,-1.34783 -2.76101,-1.93716c-1.4576,0.05186 -2.91572,0.12223 -4.38422,0.30965l-0.15864,0.00649c0,0 -0.77305,0 -0.77305,-0.73982c0,-0.73982 0.77305,-0.73982 0.77305,-0.73982l-0.04569,0.00648c0.49441,-0.06307 0.98774,-0.11296 1.48033,-0.15341c-0.09379,-0.02656 -0.18583,-0.05106 -0.27589,-0.07337c0,0 -0.7476,-0.18828 -0.55086,-0.90374c0.09896,-0.35989 0.3373,-0.4911 0.54976,-0.53264l0.32097,-0.27328c0.40819,-0.08224 0.81634,-0.16474 1.22437,-0.24776c0.18647,-0.31413 0.60035,-0.35814 0.60035,-0.35814l0.49152,-0.05208c0.03873,-0.00494 0.07745,-0.00986 0.11616,-0.01478c-0.15808,-0.12023 -0.31381,-0.24355 -0.46657,-0.3707c0,0 -0.58178,-0.48717 -0.07272,-1.04394c0.23563,-0.25771 0.48684,-0.29176 0.68872,-0.25398c0.15556,-0.0527 0.28841,-0.0527 0.28841,-0.0527zM217.31645,201.66254c-0.99394,0.33869 -1.9398,0.6914 -2.94099,0.96807c0.09107,0.06165 0.18255,0.12278 0.27435,0.18354c1.48081,-0.17307 2.95543,-0.33533 4.43216,-0.50757c-0.38571,-0.14574 -0.77885,-0.2637 -1.15163,-0.35566c0,0 -0.32611,-0.08322 -0.48992,-0.3459c-0.07163,0.03963 -0.12399,0.05753 -0.12399,0.05753zM215.69645,205.27614c-0.46162,-0.31978 -0.93557,-0.62353 -1.40846,-0.92868c-0.54008,0.06419 -1.08096,0.13014 -1.62291,0.19885c-0.12793,0.15317 -0.30954,0.22824 -0.40638,0.25935c0.3868,0.16988 0.77592,0.35654 1.15986,0.556c0.75878,-0.02565 1.51766,-0.04957 2.27787,-0.08553z" fill="none" stroke="#000000" stroke-width="1"/></g></g><g><g stroke="#000000"><path d="M235.0945,213.17896c0,0 6.96801,-6.25926 14.36811,-6.92747c9.66654,-0.87286 19.23072,0.27281 19.23072,0.27281l3.81525,1.53116l0.24614,4.59348l-7.07667,5.65351l-1.66148,-0.6478l-0.67207,1.7113c0,0 -2.39859,1.77889 -6.17039,2.34985c-2.20218,0.33335 -3.86836,0.28203 -5.12025,0.13219c-2.83312,-0.3391 -3.54444,-1.42549 -3.54444,-1.42549l-1.68212,1.25158c0,0 -3.72558,0.2374 -6.97324,-1.46431c-5.28146,-2.76738 -4.75955,-7.03082 -4.75955,-7.03082z" fill="#f38285" stroke-width="0" stroke-linecap="round"/><path d="M268.69332,206.52431l3.81525,1.53116l0.24614,4.59348l-7.07667,5.65351l-1.66148,-0.6478l-0.67207,1.7113c0,0 -2.39859,1.77889 -6.17039,2.34985c-2.20218,0.33335 -3.86836,0.28203 -5.12025,0.13219c-0.2297,-0.02749 -0.44544,-0.0599 -0.648,-0.09624c0.02595,-0.003 0.05179,-0.00637 0.07751,-0.0101c7.00966,-0.63791 14.63855,-8.51278 11.58805,-15.1548c-0.07534,-0.16404 -0.18256,-0.34073 -0.31636,-0.52372c3.5703,0.1775 5.93828,0.46115 5.93828,0.46115z" fill="#e96698" stroke-width="0" stroke-linecap="butt"/><path d="M235.0945,213.17896c0,0 6.96801,-6.25926 14.36811,-6.92747c9.66654,-0.87286 19.23072,0.27281 19.23072,0.27281l3.81525,1.53116l0.24614,4.59348l-7.07667,5.65351l-1.66148,-0.6478l-0.67207,1.7113c0,0 -2.39859,1.77889 -6.17039,2.34985c-2.20218,0.33335 -3.86836,0.28203 -5.12025,0.13219c-2.83312,-0.3391 -3.54444,-1.42549 -3.54444,-1.42549l-1.68212,1.25158c0,0 -3.72558,0.2374 -6.97324,-1.46431c-5.28146,-2.76738 -4.75955,-7.03082 -4.75955,-7.03082z" fill="none" stroke-width="1" stroke-linecap="round"/></g><g stroke="#000000" stroke-linecap="round"><path d="M242.97673,205.16083c0,0 -1.85366,-1.96497 -0.07969,-3.05152c1.4422,-0.88335 3.82079,-1.86231 6.14777,-2.55609c2.91819,-0.87004 5.75518,-1.37374 6.5623,-1.61292c0.76442,-0.22652 2.13722,2.8444 2.13722,2.8444c0,0 1.06311,-2.96433 2.50459,-3.33313c2.81836,-0.72105 7.08318,0.98734 7.67698,1.69337c0.49046,0.58317 -1.48594,3.93542 -1.48594,3.93542c0,0 4.31698,3.86258 3.22349,7.39853c-1.52283,4.92425 -8.70538,6.48579 -12.44386,7.02115c-3.40279,0.48729 -9.07829,0.38048 -11.39491,0.30415c-6.47959,-0.21351 -8.51687,-1.8597 -8.44509,-4.97823c0.04034,-1.7526 3.57316,-2.78686 3.57316,-2.78686c0,0 -7.75245,-5.08539 -6.23838,-6.43541c1.28225,-1.1433 8.26236,1.55711 8.26236,1.55711z" fill="#000000" stroke-width="0"/><path d="M242.97673,205.16083c0,0 -1.85366,-1.96497 -0.07969,-3.05152c1.4422,-0.88335 3.82079,-1.86231 6.14777,-2.55609c2.91819,-0.87004 5.75518,-1.37374 6.5623,-1.61292c0.76442,-0.22652 2.13722,2.8444 2.13722,2.8444l0.22423,-0.42814l8.47142,2.7238c0,0 4.31698,3.86258 3.22349,7.39853c-1.52283,4.92425 -8.70538,6.48579 -12.44386,7.02115c-3.40279,0.48729 -9.07829,0.38048 -11.39491,0.30415c-6.47959,-0.21351 -8.51687,-1.8597 -8.44509,-4.97823c0.04034,-1.7526 3.57316,-2.78686 3.57316,-2.78686c0,0 -2.09106,-1.37168 -3.88908,-2.87938c-0.20711,-0.17367 2.28414,-0.14696 4.35738,-0.66821c1.18217,-0.29722 1.55568,-1.33071 1.55568,-1.33071z" fill="#f27056" stroke-width="0"/><path d="M242.97673,205.16083c0,0 -1.85366,-1.96497 -0.07969,-3.05152c1.4422,-0.88335 3.82079,-1.86231 6.14777,-2.55609c2.91819,-0.87004 5.75518,-1.37374 6.5623,-1.61292c0.35783,-0.10603 0.84897,0.51047 1.27021,1.19631c-0.6081,0.92504 -1.63486,4.10991 -1.63486,4.58942c0,1.23522 0.94895,2.25832 2.18724,2.43805c1.1499,0.87389 7.33317,1.41861 7.33317,1.41861c0,0 -0.14487,1.52673 -1.1911,2.70579c-1.0818,1.21914 -3.08065,2.09632 -3.99186,2.37196c-3.90071,1.17995 -9.99664,1.91981 -13.67043,3.01721c-1.9226,0.57429 -2.78991,1.67164 -2.88114,1.91153c-4.28511,-0.56732 -5.70895,-2.14725 -5.64874,-4.76321c0.04034,-1.7526 3.57316,-2.78686 3.57316,-2.78686c0,0 -2.09106,-1.37168 -3.88908,-2.87938c-0.20711,-0.17367 2.28414,-0.14696 4.35738,-0.66821c1.18217,-0.29722 1.55568,-1.33071 1.55568,-1.33071z" fill="#f79d58" stroke-width="0"/><path d="M242.97673,205.16083c0,0 -1.85366,-1.96497 -0.07969,-3.05152c1.4422,-0.88335 3.82079,-1.86231 6.14777,-2.55609c2.91819,-0.87004 5.75518,-1.37374 6.5623,-1.61292c0.76442,-0.22652 2.13722,2.8444 2.13722,2.8444c0,0 1.06311,-2.96433 2.50459,-3.33313c2.81836,-0.72105 7.08318,0.98734 7.67698,1.69337c0.49046,0.58317 -1.48594,3.93542 -1.48594,3.93542c0,0 4.31698,3.86258 3.22349,7.39853c-1.52283,4.92425 -8.70538,6.48579 -12.44386,7.02115c-3.40279,0.48729 -9.07829,0.38048 -11.39491,0.30415c-6.47959,-0.21351 -8.51687,-1.8597 -8.44509,-4.97823c0.04034,-1.7526 3.57316,-2.78686 3.57316,-2.78686c0,0 -7.75245,-5.08539 -6.23838,-6.43541c1.28225,-1.1433 8.26236,1.55711 8.26236,1.55711z" fill="none" stroke-width="1"/></g><g stroke-linecap="butt"><path d="M260.18839,208.64099c0,0.73982 -0.77305,0.73982 -0.77305,0.73982h-0.67774c-2.33274,0 -4.1492,1.08983 -6.39051,1.24174c-0.06922,0.00469 -0.13844,0.00881 -0.20766,0.01239c-1.86632,0.78663 -3.77376,1.51445 -5.8522,2.21698l-0.80794,0.14021c0,0 -0.76253,0.12163 -0.88962,-0.60812c-0.12709,-0.72975 0.63544,-0.85137 0.63544,-0.85137l0.54755,-0.07599c0.8983,-0.30322 1.76312,-0.60975 2.6056,-0.92322c-0.90326,-0.04045 -1.80582,-0.05265 -2.70757,0.04961c-0.12473,0.04966 -0.28132,0.07949 -0.4508,0.03509c-0.23381,-0.01925 -0.61474,-0.12893 -0.68944,-0.62933c-0.07938,-0.5318 0.30237,-0.7326 0.51743,-0.80271l0.09183,-0.08646c0.45831,-0.36462 1.04517,-0.68264 1.70095,-0.98045c-0.44911,-0.02824 -0.90257,-0.06935 -1.36167,-0.12601c-0.14256,0.15091 -0.51118,0.44494 -1.00741,0.12834c-0.21879,-0.13959 -0.31354,-0.30291 -0.34333,-0.45768c-0.15284,-0.12759 -0.27596,-0.33455 -0.21506,-0.6648c0.12129,-0.65774 0.75356,-0.61689 0.87533,-0.60273c0.41263,-0.48115 0.85913,-0.91495 1.33148,-1.31399c-0.23232,0.01701 -0.46916,0.02701 -0.7113,0.02853c0,0 -0.77305,0 -0.77305,-0.73982c0,-0.73982 0.77305,-0.73982 0.77305,-0.73982c1.27365,0.01014 2.40391,-0.21025 3.49915,-0.458c1.21378,-0.70615 2.48432,-1.35211 3.7203,-2.08073c0,0 0.65837,-0.38773 1.06352,0.24233c0.40516,0.63007 -0.25322,1.01781 -0.25322,1.01781c-0.09183,0.05404 -0.184,0.10757 -0.27643,0.16068c0.62751,0.00752 1.28415,0.08041 1.9861,0.24905c0.05095,0.00396 0.10502,0.01242 0.16237,0.02614c0.21139,0.05057 0.34831,0.14392 0.43593,0.2519c0.08822,0.10754 0.14963,0.2573 0.14963,0.46583c0,0.13696 -0.02649,0.24858 -0.06968,0.33952c-0.34459,1.11001 -1.05143,1.91885 -1.95258,2.56252c1.28625,-0.09789 2.59508,-0.18263 3.96018,-0.18263h0.3991c0.164,-0.01805 0.36818,0.00346 0.54527,0.15386c0.11939,0.08306 0.22415,0.21095 0.26371,0.40787c0.06043,0.19202 0.02963,0.35183 -0.03585,0.47841c-0.08421,0.21253 -0.25547,0.32229 -0.40987,0.37896c-0.1971,0.09797 -0.39308,0.19494 -0.5881,0.29094c0.23867,-0.02218 0.48149,-0.0345 0.72939,-0.0345h0.67774c0,0 0.77305,0 0.77305,0.73982zM254.84379,207.81348c-1.50398,0.09659 -2.96779,0.23368 -4.44157,0.30653c-0.77144,0.30477 -1.547,0.60251 -2.27257,0.937c1.22814,0.04537 2.45632,0.14573 3.68892,0.10797c1.01163,-0.42899 2.01258,-0.87708 3.02522,-1.3515zM254.08268,204.05826c-1.59534,-0.25183 -2.96892,0.01465 -4.35437,0.34244c-1.11112,0.64158 -2.16939,1.34272 -3.08157,2.22464c1.30677,0.10376 2.57366,0.08881 3.83336,0.02456c1.55317,-0.66008 2.95538,-1.43493 3.60258,-2.59164z" fill="#feecf7" stroke="none" stroke-width="0.5"/><path d="M260.18839,208.64099c0,0.73982 -0.77305,0.73982 -0.77305,0.73982h-0.67774c-2.33274,0 -4.1492,1.08983 -6.39051,1.24174c-0.06922,0.00469 -0.13844,0.00881 -0.20766,0.01239c-1.86632,0.78663 -3.77376,1.51445 -5.8522,2.21698l-0.80794,0.14021c0,0 -0.76253,0.12163 -0.88962,-0.60812c-0.12709,-0.72975 0.63544,-0.85137 0.63544,-0.85137l0.54755,-0.07599c0.8983,-0.30322 1.76312,-0.60975 2.6056,-0.92322c-0.90326,-0.04045 -1.80582,-0.05265 -2.70757,0.04961c-0.12473,0.04966 -0.28132,0.07949 -0.4508,0.03509c-0.23381,-0.01925 -0.61474,-0.12893 -0.68944,-0.62933c-0.07938,-0.5318 0.30237,-0.7326 0.51743,-0.80271l0.09183,-0.08646c0.45831,-0.36462 1.04517,-0.68264 1.70095,-0.98045c-0.44911,-0.02824 -0.90257,-0.06935 -1.36167,-0.12601c-0.14256,0.15091 -0.51118,0.44494 -1.00741,0.12834c-0.21879,-0.13959 -0.31354,-0.30291 -0.34333,-0.45768c-0.15284,-0.12759 -0.27596,-0.33455 -0.21506,-0.6648c0.12129,-0.65774 0.75356,-0.61689 0.87533,-0.60273c0.41263,-0.48115 0.85913,-0.91495 1.33148,-1.31399c-0.23232,0.01701 -0.46916,0.02701 -0.7113,0.02853c0,0 -0.77305,0 -0.77305,-0.73982c0,-0.73982 0.77305,-0.73982 0.77305,-0.73982c1.27365,0.01014 2.40391,-0.21025 3.49915,-0.458c1.21378,-0.70615 2.48432,-1.35211 3.7203,-2.08073c0,0 0.65837,-0.38773 1.06352,0.24233c0.40516,0.63007 -0.25322,1.01781 -0.25322,1.01781c-0.09183,0.05404 -0.184,0.10757 -0.27643,0.16068c0.62751,0.00752 1.28415,0.08041 1.9861,0.24905c0.05095,0.00396 0.10502,0.01242 0.16237,0.02614c0.21139,0.05057 0.34831,0.14392 0.43593,0.2519c0.08822,0.10754 0.14963,0.2573 0.14963,0.46583c0,0.13696 -0.02649,0.24858 -0.06968,0.33952c-0.34459,1.11001 -1.05143,1.91885 -1.95258,2.56252c1.28625,-0.09789 2.59508,-0.18263 3.96018,-0.18263h0.3991c0.164,-0.01805 0.36818,0.00346 0.54527,0.15386c0.11939,0.08306 0.22415,0.21095 0.26371,0.40787c0.06043,0.19202 0.02963,0.35183 -0.03585,0.47841c-0.08421,0.21253 -0.25547,0.32229 -0.40987,0.37896c-0.1971,0.09797 -0.39308,0.19494 -0.5881,0.29094c0.23867,-0.02218 0.48149,-0.0345 0.72939,-0.0345h0.67774c0,0 0.77305,0 0.77305,0.73982zM254.84379,207.81348c-1.50398,0.09659 -2.96779,0.23368 -4.44157,0.30653c-0.77144,0.30477 -1.547,0.60251 -2.27257,0.937c1.22814,0.04537 2.45632,0.14573 3.68892,0.10797c1.01163,-0.42899 2.01258,-0.87708 3.02522,-1.3515zM254.08268,204.05826c-1.59534,-0.25183 -2.96892,0.01465 -4.35437,0.34244c-1.11112,0.64158 -2.16939,1.34272 -3.08157,2.22464c1.30677,0.10376 2.57366,0.08881 3.83336,0.02456c1.55317,-0.66008 2.95538,-1.43493 3.60258,-2.59164z" fill="none" stroke="#000000" stroke-width="1"/></g></g><path d="M252.87849,182.02574c0,0 1.18064,5.06179 1.42963,6.07636c0.08319,0.33901 0.48257,0.83586 0.86946,1.00197c1.22802,0.52718 3.78947,1.67603 3.7773,2.57343c-0.08627,6.36365 -7.43018,5.48317 -7.43018,5.48317c0,0 -2.32894,-0.12449 -5.43893,0.47639c-4.28166,0.82725 -9.98864,2.34383 -12.63735,1.24069c-7.81789,-3.25603 -8.69201,-9.31399 -8.69201,-9.31399l3.63064,-4.94683z" fill="#ff292e" stroke="#000000" stroke-width="0" stroke-linecap="round"/><path d="M252.87849,182.02574c0,0 0.59957,2.57056 1.03428,4.41516c-1.19511,-0.54366 -2.90616,-0.75904 -3.49573,-0.81546c-3.3641,-0.32195 -4.86086,3.98732 -4.45505,6.77062c-0.55098,-0.13297 -3.41303,1.22962 -6.36918,1.47554c-3.78342,0.31473 -7.9173,-0.41067 -9.65952,0.00617c-1.10005,0.2632 -1.68638,0.79834 -1.91468,1.44797c-2.8441,-2.86434 -3.26221,-5.76198 -3.26221,-5.76198l3.63064,-4.94683z" fill="#da0251" stroke="#000000" stroke-width="0" stroke-linecap="butt"/><path d="M258.95488,191.6775c-0.08627,6.36365 -7.43018,5.48317 -7.43018,5.48317c0,0 -0.41835,-0.02236 -1.13721,-0.00238c-0.73162,-0.79344 -1.77441,-1.46152 -2.56267,-1.5372c-0.02093,-0.002 0.0075,-0.25146 0.02348,-0.50258c2.14512,0.77885 5.40179,-1.26779 6.86634,-3.41231c0.45805,-0.44515 0.74067,-1.05609 0.74067,-1.73021c0,-0.2853 -0.05063,-0.5593 -0.14375,-0.81419c1.27057,0.54974 3.65504,1.64977 3.6433,2.51569z" fill="#da0251" stroke="#000000" stroke-width="0" stroke-linecap="butt"/><g stroke="#000000" stroke-linecap="round"><path d="M251.21702,197.16069c0,0 1.54261,0.30393 3.1323,0.02708c1.05334,-0.18344 2.33446,-0.95223 2.45509,-1.04328c0.49667,-0.37483 1.29598,-1.38619 1.62737,-2.29443c0.4546,-1.24596 0.3542,-2.40177 0.3542,-2.40177c0,0 1.51034,0.71519 2.23085,1.18802c0.71531,0.46941 2.07669,1.63874 2.07669,1.63874c0,0 -0.09345,2.31746 -1.97025,6.24319c-0.62394,1.3051 -2.28423,3.07082 -3.14953,3.94262c-0.32785,0.33031 -0.8843,0.46385 -1.40458,0.30115c-0.92658,-0.28975 -2.41629,-0.87841 -3.53602,-1.91166c-1.08845,-1.00439 -2.73917,-3.27514 -2.73917,-3.27514l0.92304,-2.41453z" fill="#4ea5eb" stroke-width="0"/><path d="M258.43178,193.85004c0.4546,-1.24596 0.3542,-2.40177 0.3542,-2.40177c0,0 1.51035,0.71519 2.23085,1.18802c0.71531,0.46941 2.07669,1.63874 2.07669,1.63874c0,0 -0.09344,2.31746 -1.97025,6.24319c-0.62393,1.3051 -2.28423,3.07082 -3.14953,3.94262c-0.32785,0.33031 -0.8843,0.46385 -1.40458,0.30115c-0.92659,-0.28975 -2.41629,-0.8784 -3.53602,-1.91166c-1.08845,-1.00439 -2.73917,-3.27514 -2.73917,-3.27514l0.37072,-0.96974c0.54711,1.42859 2.19591,2.63049 3.32531,3.06865c0.70307,0.27277 1.48074,0.46817 2.1305,0.16729c0.42991,-0.19908 0.80382,-0.74787 1.06307,-1.16014c1.17043,-1.86125 1.10243,-5.21538 1.10243,-5.46396c0,-0.26868 -0.0449,-0.52734 -0.12791,-0.76946c0.10799,-0.19908 0.20184,-0.40085 0.27369,-0.59778z" fill="#2e67e5" stroke-width="0"/><path d="M251.21702,197.16069c0,0 1.54261,0.30393 3.1323,0.02708c1.05334,-0.18344 2.33446,-0.95223 2.45509,-1.04328c0.49667,-0.37483 1.29598,-1.38619 1.62737,-2.29443c0.4546,-1.24596 0.3542,-2.40177 0.3542,-2.40177c0,0 1.51034,0.71519 2.23085,1.18802c0.71531,0.46941 2.07669,1.63874 2.07669,1.63874c0,0 -0.09345,2.31746 -1.97025,6.24319c-0.62394,1.3051 -2.28423,3.07082 -3.14953,3.94262c-0.32785,0.33031 -0.8843,0.46385 -1.40458,0.30115c-0.92658,-0.28975 -2.41629,-0.87841 -3.53602,-1.91166c-1.08845,-1.00439 -2.73917,-3.27514 -2.73917,-3.27514l0.92304,-2.41453z" fill="none" stroke-width="1"/></g><path d="M252.87849,182.02574c0,0 1.18064,5.06179 1.42963,6.07636c0.08319,0.33901 0.48257,0.83586 0.86946,1.00197c1.22802,0.52718 3.78947,1.67603 3.7773,2.57343c-0.08627,6.36365 -7.43018,5.48317 -7.43018,5.48317c0,0 -2.32894,-0.12449 -5.43893,0.47639c-4.28166,0.82725 -9.98864,2.34383 -12.63735,1.24069c-7.81789,-3.25603 -8.69201,-9.31399 -8.69201,-9.31399l3.63064,-4.94683z" fill="none" stroke="#000000" stroke-width="1" stroke-linecap="round"/><path d="M249.80168,196.80733c0,0 -1.66106,-0.59949 -2.93045,-3.02359c-1.01382,-1.93607 -1.06941,-5.3389 -1.06941,-5.3389" fill="none" stroke="#000000" stroke-width="1" stroke-linecap="round"/><path d="M236.01754,193.27388l-2.7076,4.71126" fill="none" stroke="#000000" stroke-width="1" stroke-linecap="round"/><path d="M251.46316,197.21957l-0.98458,2.53231l-4.43062,-1.64894l-4.18447,4.94683l-4.67677,-2.82676l-3.81525,2.47341l-5.16905,-5.83019l-2.7076,1.00115l-0.49229,-5.7713l-1.59995,0.70668l-1.78455,-2.88565c0,0 2.34269,-0.1805 3.13535,-0.42623c0.62183,-0.19278 1.23373,-0.92825 1.23373,-0.92825l1.90762,5.83018l2.15378,-1.8845l4.30754,5.7124l4.06139,-2.35563l3.69218,2.76787l3.32296,-3.94568l2.52086,0.91788c0,0 1.00016,0.92466 1.7994,1.23062c0.80141,0.30679 1.71028,0.38381 1.71028,0.38381z" fill="#feecf7" stroke="#000000" stroke-width="1" stroke-linecap="round"/><path d="M235.34064,194.62837l-3.75371,-5.88908l-2.27685,1.23671c0,0 -0.88918,-1.62457 -1.6368,-3.42505c-0.54272,-1.30705 -1.19545,-2.88794 -1.19464,-4.52526c0.00111,-2.22718 1.53092,-4.30399 4.30739,-6.22083c2.07862,-1.43505 4.5855,-2.93575 9.14948,-3.49487c6.77693,-0.83022 10.77632,2.64213 12.36504,5.75126c1.119,2.1899 0.70099,4.25896 0.70099,4.25896l-4.55369,0.05889l-6.2767,8.71584l-2.33837,-1.64895z" fill="#feecf7" stroke="#000000" stroke-width="1" stroke-linecap="round"/></g><path d="M192.06803,227.93197v-95.86394h95.86394v95.86394z" fill="none" stroke="none" stroke-width="0" stroke-linecap="butt"/><g stroke="#000000"><g stroke-linecap="butt"><path d="M261.73936,174.86536l0.46605,-2.29564c0,0 9.02281,-1.33127 11.11144,-0.40237c1.46624,0.6521 1.67769,4.90945 -0.90555,5.57157c-3.44013,0.88175 -10.67193,-2.87356 -10.67193,-2.87356z" fill="#0066cd" stroke-width="0"/><path d="M261.73937,174.86536l0.16541,-0.81475c0,0 2.05929,0.08661 4.1066,0.35878c1.58236,0.21037 2.96992,0.5847 4.56908,0.78297c1.90194,0.23579 3.72678,0.3191 3.70794,0.40246c-0.22348,0.98916 -0.81332,1.87146 -1.87708,2.14412c-3.44013,0.88176 -10.67194,-2.87357 -10.67194,-2.87357z" fill="#061483" stroke-width="0"/><path d="M261.73937,174.86536l0.46605,-2.29564c0,0 9.02281,-1.33126 11.11144,-0.40236c1.46625,0.6521 1.67769,4.90945 -0.90555,5.57157c-3.44013,0.88176 -10.67194,-2.87357 -10.67194,-2.87357z" fill="none" stroke-width="1"/></g><g stroke-linecap="round"><path d="M222.59984,181.36706c0,0 -10.60858,-23.87247 12.11952,-25.70211c23.30404,-1.876 21.16792,19.01003 21.16792,19.01003c0,0 5.61071,-5.51923 6.56956,-5.06056c0.80934,0.38714 0.02906,5.4614 -0.59218,7.43387c-0.45906,1.45752 -0.98681,4.56179 -2.34258,4.87787c-0.85335,0.19894 -4.70173,-2.27099 -4.70173,-2.27099c0,0 -7.00956,4.89104 -13.66436,6.91049c-6.5715,1.99418 -16.27093,1.90209 -16.27093,1.90209c0,0 -7.21241,-0.10817 -7.63038,-2.54433c-0.35614,-2.07581 5.34515,-4.55639 5.34515,-4.55639z" fill="#fde0be" stroke-width="0"/><path d="M250.91779,182.10326c-0.03237,0.01879 -1.48277,-1.96347 -1.48277,-1.96347l-2.94157,2.85672l-5.52491,-6.74961l-6.41512,4.94485l-1.57306,-6.40738c0,0 -11.14455,4.56231 -11.15452,4.53275c-1.96386,-5.82495 -5.74642,-22.15164 12.89349,-23.65217c23.30404,-1.876 21.16792,19.01003 21.16792,19.01003c0,0 5.60743,3.71056 5.56177,3.87726c-0.40133,1.4655 -0.94852,3.14583 -1.92698,3.37394c-0.85335,0.19894 -4.70173,-2.27099 -4.70173,-2.27099c0,0 -1.55811,1.08719 -3.90254,2.44807z" fill="#fc988a" stroke-width="0"/><path d="M256.42092,176.11152l2.92782,-1.69669l-0.68383,5.06229z" fill="#f79587" stroke-width="0.5"/><path d="M234.71932,155.66496c23.30404,-1.876 21.16792,19.01003 21.16792,19.01003c0,0 5.61071,-5.51923 6.56956,-5.06056c0.80934,0.38714 0.02906,5.4614 -0.59218,7.43387c-0.45906,1.45752 -0.98681,4.56179 -2.34258,4.87787c-0.85335,0.19894 -4.70173,-2.27099 -4.70173,-2.27099c0,0 -7.00956,4.89104 -13.66436,6.91049c-6.5715,1.99418 -16.27093,1.90209 -16.27093,1.90209c0,0 -7.21241,-0.10817 -7.63038,-2.54433c-0.35614,-2.07581 5.34515,-4.55639 5.34515,-4.55639c0,0 -10.60857,-23.87247 12.11953,-25.7021z" fill="none" stroke-width="1"/></g><g stroke-linecap="round"><path d="M261.32351,166.89721c0,0 -1.5332,3.58541 -2.5038,5.08307c-0.83814,1.29327 -2.98091,3.38002 -2.98091,3.38002c0,0 -11.24244,-3.99534 -18.76273,-4.13499c-7.68146,-0.14264 -17.41699,1.62933 -17.41699,1.62933c0,0 -5.36157,-17.42959 -2.03299,-20.44655c2.42371,-2.19681 9.77189,-4.77538 17.1566,-4.91628c3.36575,-0.06422 12.99563,-0.1468 16.39373,2.60254c4.55436,3.68484 10.14711,16.80286 10.14711,16.80286z" fill="#ff292e" stroke-width="0"/><path d="M261.32351,166.89721c0,0 -1.5332,3.58542 -2.5038,5.08307c-0.83814,1.29327 -2.9809,3.38002 -2.9809,3.38002c0,0 -5.44441,-1.93483 -11.29013,-3.15867c-0.15302,-0.03204 1.00771,-14.26774 3.40292,-20.07145c0.79316,-1.92184 2.37948,-2.71979 3.22481,-2.03584c4.55437,3.68485 10.14711,16.80287 10.14711,16.80287z" fill="#ac0e49" stroke-width="0.5"/><path d="M258.8197,171.98028c-0.83814,1.29327 -2.9809,3.38002 -2.9809,3.38002c0,0 -11.24244,-3.99534 -18.76274,-4.13497c-7.68146,-0.14264 -17.41698,1.62933 -17.41698,1.62933c0,0 -5.36157,-17.4296 -2.03299,-20.44655c2.42372,-2.19681 9.77189,-4.77538 17.1566,-4.91628c3.36575,-0.06422 12.99563,-0.14681 16.39371,2.60253c4.55437,3.68485 10.14711,16.80287 10.14711,16.80287c0,0 -1.5332,3.58541 -2.5038,5.08306z" fill="none" stroke-width="1"/></g><g stroke-linecap="round"><path d="M221.02626,178.42555c0,0 -3.73024,1.34518 -5.40912,2.19152c-1.7046,0.8593 -4.7425,2.92599 -4.7425,2.92599c0,0 1.18811,-4.01067 2.06871,-5.85384c0.83629,-1.75043 3.08878,-4.94135 3.08878,-4.94135l-9.41299,1.66966c0,0 7.40704,-13.5578 10.81266,-15.47929c2.03115,-1.14599 10.48922,3.0141 10.48922,3.0141c0,0 0.97121,-2.80463 1.71026,-4.14268c0.67298,-1.21844 2.54439,-3.56039 2.54439,-3.56039c0,0 2.1724,5.93098 3.52501,8.76975c1.4091,2.95731 4.76704,8.63307 4.76704,8.63307l15.07749,3.31021l-0.61533,6.79988l-6.34863,-5.52712l-2.20258,3.73524l-5.91096,-8.31822l-4.47371,4.611l-1.66942,-4.92536c0,0 -10.6592,3.77785 -12.97757,5.24899c-0.63197,0.40101 -0.32075,1.83887 -0.32075,1.83887z" fill="#4fa6ec" stroke-width="0"/><path d="M223.13028,168.9104l-12.25564,14.63267c0,0 1.18811,-4.01067 2.0687,-5.85384c0.83628,-1.75043 3.08878,-4.94135 3.08878,-4.94135l-9.41298,1.66965c0,0 7.40703,-13.5578 10.81266,-15.47929c2.03114,-1.146 10.48923,3.0141 10.48923,3.0141c0,0 0.9712,-2.80463 1.71025,-4.14268c0.67298,-1.21844 2.54439,-3.56038 2.54439,-3.56038l-1.20997,12.04988c0,0 -9.44468,-3.41208 -11.59693,-2.85656c-3.37787,0.87185 -7.43254,8.34405 -7.43254,8.34405z" fill="#66ffff" stroke-width="0"/><path d="M245.79507,174.41428l-0.25536,4.37535l-3.58155,-5.04016z" fill="#66ffff" stroke-width="0"/><path d="M210.87466,183.54306c0,0 1.18811,-4.01067 2.0687,-5.85384c0.83628,-1.75043 3.08878,-4.94135 3.08878,-4.94135l-9.41298,1.66965c0,0 7.40703,-13.5578 10.81266,-15.47929c2.03114,-1.146 10.48923,3.0141 10.48923,3.0141c0,0 0.9712,-2.80463 1.71025,-4.14268c0.67298,-1.21844 2.54439,-3.56038 2.54439,-3.56038c0,0 2.17239,5.93097 3.525,8.76974c1.40909,2.95731 4.76704,8.63307 4.76704,8.63307l15.07749,3.31021l-0.61533,6.79988l-6.34863,-5.52711l-2.20259,3.73524l-5.91097,-8.31822l-4.47372,4.611l-1.66942,-4.92536c0,0 -10.6592,3.77785 -12.97757,5.24899c-0.63197,0.40101 -0.32075,1.83887 -0.32075,1.83887c0,0 -3.73022,1.34518 -5.40911,2.19152c-1.67889,0.84634 -4.74251,2.92596 -4.74251,2.92596z" fill="none" stroke-width="1"/></g></g><path d="M247.52412,177.17586l1.52162,2.89286l7.69635,-4.58515l-1.10161,4.07492l3.13156,1.86559l-4.78838,0.66047l-1.49442,1.71992l-3.71668,-0.92385l-3.71871,4.4037l-1.10196,-2.60182c0,0 1.20497,-3.14228 1.84102,-4.47883c0.53834,-1.13127 1.73123,-3.02779 1.73123,-3.02779z" fill="#feecf7" stroke="#000000" stroke-width="1" stroke-linecap="round"/><g stroke-linecap="butt"><path d="M232.08157,177.76089l-0.09503,-0.59601c-1.43771,-0.69508 -2.7403,-1.69566 -4.12287,-2.4468c-1.30926,-0.63982 -3.73183,-2.17228 -4.85388,-3.51334c-1.40367,-1.67765 -1.03033,-3.15023 -1.03033,-3.15023c0,0 0.61408,0.9272 0.69196,1.09562c0.10949,0.06697 0.17396,0.15134 0.17396,0.15134c0.25313,0.33191 0.55406,0.65003 0.89252,0.95447c0.19635,0.15221 0.3889,0.30237 0.55215,0.46012c2.2667,1.7579 5.7141,3.01738 8.05968,3.80837c1.00516,0.34049 2.99368,0.50766 3.62265,1.45728c0.55834,0.84296 0.31189,1.3792 -0.22365,1.66575c-0.07817,1.63981 -0.4797,4.13429 -1.53585,4.86563c-1.70408,1.18002 -4.83505,0.68399 -6.25027,-0.62721c-0.57923,-0.65535 -1.02586,-1.22671 -1.55541,-1.92318l-0.41797,-0.87995c0,0 2.65387,-0.80166 2.74364,-0.6591c1.77592,1.91403 4.47458,3.2952 3.34868,-0.66276z" fill="#000000" stroke="none" stroke-width="0.5"/><path d="M250.86549,158.06214c0,0 -5.08064,6.43156 -6.30951,8.12435c-1.62746,2.59639 -3.07506,5.46505 -3.85121,8.10817c-0.37291,1.0973 -0.9711,2.15488 -0.68915,3.36822c0.1336,0.57492 1.13876,2.48069 1.96447,1.41053c0.28747,-0.37257 0.01399,-1.9248 0.01321,-2.56731c-0.03123,-0.16282 0.02219,-0.29229 0.09179,-0.38621c0.05597,-0.09566 2.55471,-2.08575 2.70723,-2.10321c0.10243,-0.01978 0.22936,-0.01877 0.35084,0.05133c0.12543,0.06277 0.19622,0.16814 0.23613,0.26451c0.06479,0.12768 0.07435,0.24098 0.05515,0.33754l0.00096,0.02995c0.05775,1.7947 -0.44112,4.79611 -1.74959,6.17759c-2.09567,2.21264 -5.01219,0.10735 -5.97169,-1.96491c-0.76617,-2.95073 1.67613,-8.59095 4.09438,-12.27258c0.74346,-1.13187 3.73195,-4.7111 5.9784,-6.71382c1.84263,-1.6427 3.07859,-1.86415 3.07859,-1.86415z" fill="#000000" stroke="none" stroke-width="0.5"/><path d="M240.3371,184.65963c1.37713,1.63129 1.74329,3.58704 0.81785,4.36831c-0.92543,0.78126 -2.79204,0.09215 -4.16917,-1.53913c-1.37713,-1.63129 -1.74329,-3.58703 -0.81784,-4.3683c0.92543,-0.78126 2.79204,-0.09216 4.16917,1.53912z" fill="#ff6666" stroke="#000000" stroke-width="1"/></g><g><path d="M205.20239,189.69196c0.85478,-1.5425 2.79815,-2.09998 4.34063,-1.2452c1.5425,0.85478 2.09997,2.79813 1.24518,4.34063c-0.85478,1.5425 -2.79813,2.09997 -4.34061,1.2452c-1.5425,-0.85478 -2.09999,-2.79814 -1.24522,-4.34061z" fill="#3f5479" stroke="#000000" stroke-width="1" stroke-linecap="butt"/><path d="M226.53191,183.98325c3.58463,2.9358 2.05799,12.82858 -2.3828,15.39692c-1.70921,0.98851 -3.8019,0.62626 -5.2338,-0.54325c-0.13015,-0.1063 -0.63659,-1.47217 -0.70685,-1.4515c-0.39706,0.11693 -1.03772,1.17513 -2.11926,1.28953c-1.46095,0.15455 -3.38449,-0.65016 -3.38449,-0.65016c0,0 -3.04355,1.11013 -3.752,0.22624c-3.67697,-4.58723 -1.70806,-9.80983 1.15091,-12.03702c0.74637,-0.58144 3.65761,-0.51731 5.24107,-1.06842c1.44932,-0.50444 0.82905,-1.27415 1.85719,-1.2566c0.23314,0.00397 1.02055,0.00378 1.68568,0.3096c0.73539,0.33809 1.38473,0.98228 2.37503,0.9148c2.06377,-0.14058 3.31535,-2.73046 5.26932,-1.13019z" fill="#fde0be" stroke="#000000" stroke-width="0" stroke-linecap="butt"/><path d="M214.49448,198.87278c4.33663,-4.89786 13.97591,-0.17866 10.30395,4.5695c-1.8722,2.42092 -3.72661,0.659 -5.89434,0.18761c-0.16591,-0.03608 -0.3396,-0.03037 -0.52124,0.00012c-0.858,0.71207 -2.09841,0.86605 -3.13243,0.29303c-0.18987,-0.10521 -0.36265,-0.22934 -0.51728,-0.36868c-0.83391,-0.75153 -1.14021,-1.94651 -0.755,-3.0133c-0.11838,-0.63621 0.24289,-1.13896 0.5189,-1.63703z" fill="#f89688" stroke="#000000" stroke-width="1" stroke-linecap="butt"/><path d="M224.14913,199.38015c-1.70921,0.98851 -3.80189,0.62626 -5.23379,-0.54325c-0.13015,-0.1063 -0.63659,-1.47217 -0.70685,-1.4515c-0.39706,0.11693 -1.03773,1.17513 -2.11926,1.28953c-1.46095,0.15454 -3.38449,-0.65016 -3.38449,-0.65016c0,0 -3.04355,1.11013 -3.752,0.22624c-0.66137,-0.82508 -1.14007,-1.67075 -1.46382,-2.51583c1.58064,-0.97172 2.86221,-1.58393 3.82567,-3.32255c0.32012,-0.57766 1.38998,-1.99933 1.59849,-2.60277c0.61099,-0.01979 0.51132,-0.01188 1.14477,-0.08731c-0.08628,0.21273 -0.15232,0.43229 -0.19635,0.65855c-0.06402,0.32886 -0.08731,0.68311 -0.07382,1.04623c-0.56547,1.30145 -0.05961,2.84423 1.20704,3.54616c0.17801,0.09865 0.36212,0.17573 0.54936,0.23217c0.69043,0.43229 1.53815,0.40788 2.45816,-0.42741c0.12043,-0.08881 0.23442,-0.18794 0.34052,-0.29692c0.22904,0.57995 0.65309,1.08692 1.24106,1.41276c0.11241,0.0623 0.22726,0.11599 0.34379,0.16132c0.68114,0.26495 1.41979,0.24378 2.06485,-0.02021c1.64973,-0.2432 3.8299,-0.87991 5.7442,-1.68947c-0.73798,2.19001 -1.96924,4.09849 -3.58745,5.03436z" fill="#f89688" stroke="#000000" stroke-width="0" stroke-linecap="butt"/><path d="M213.09299,188.99432l0.87816,1.76145c0,0 -1.03252,2.16823 -1.17121,3.26731c-0.15553,1.23248 0.01679,3.62591 0.01679,3.62591" fill="none" stroke="#000000" stroke-width="1" stroke-linecap="round"/><path d="M219.4147,189.71613l0.70084,1.66318c0,0 -1.08064,1.70687 -1.43555,2.86313c-0.36435,1.18698 -0.61509,3.76523 -0.61509,3.76523" fill="none" stroke="#000000" stroke-width="1" stroke-linecap="round"/><path d="M226.53191,183.98325c3.58463,2.9358 2.058,12.82857 -2.38278,15.39692c-1.70921,0.98851 -3.80189,0.62626 -5.23379,-0.54324c-0.13015,-0.1063 -0.6366,-1.47218 -0.70685,-1.45151c-0.39706,0.11693 -1.03772,1.17513 -2.11926,1.28953c-1.46095,0.15454 -3.38449,-0.65016 -3.38449,-0.65016c0,0 -3.04355,1.11013 -3.752,0.22624c-3.67697,-4.58723 -1.70806,-9.80983 1.15091,-12.03702c0.74639,-0.58144 3.65761,-0.51731 5.24107,-1.06842c1.44932,-0.50444 0.82905,-1.27415 1.85719,-1.2566c0.24298,0.00414 0.88603,-0.0682 1.59332,0.24997c0.72174,0.32467 1.51484,1.03933 2.4674,0.97444c2.06377,-0.14057 3.31535,-2.73046 5.26932,-1.13019z" fill="none" stroke="#000000" stroke-width="1" stroke-linecap="butt"/><path d="M223.58216,192.28632c1.68241,-3.036 4.47877,-4.35568 6.75576,-3.09386c2.27701,1.26181 2.75901,4.74588 1.0766,7.78189c-1.68241,3.036 -4.2619,4.59174 -6.5389,3.32991c-2.27701,-1.26181 -2.97588,-4.98195 -1.29346,-8.01794z" fill="#93c0c3" stroke="none" stroke-width="0" stroke-linecap="butt"/><path d="M224.87561,200.30428c-2.19774,-1.21788 -2.9253,-4.72591 -1.46052,-7.69852c2.64235,1.49477 5.24167,3.06665 7.88155,4.57639c-1.68339,2.89852 -4.19658,4.35486 -6.42104,3.12216z" fill="#475f86" stroke="none" stroke-width="0" stroke-linecap="butt"/><path d="M224.81602,190.56343c0.69062,0.49133 1.87885,0.74511 2.34616,0.98332c1.03783,0.529 3.18395,1.95499 5.20589,2.53898c-0.08339,0.69054 -0.27143,1.4007 -0.56837,2.09966c-2.62108,-1.49978 -5.20245,-3.06011 -7.82619,-4.54482c0.26221,-0.39613 0.54463,-0.75599 0.84251,-1.07714z" fill="#475f86" stroke="none" stroke-width="0" stroke-linecap="butt"/><path d="M223.58216,192.28632c1.68241,-3.036 4.47877,-4.35568 6.75576,-3.09386c2.27701,1.26181 2.75901,4.74588 1.0766,7.78189c-1.68241,3.036 -4.2619,4.59174 -6.5389,3.32991c-2.27701,-1.26181 -2.97588,-4.98195 -1.29346,-8.01794z" fill="none" stroke="#000000" stroke-width="1" stroke-linecap="butt"/><path d="M226.78256,192.785c2.36081,-4.26019 7.54875,-6.24706 11.51512,-4.04908c3.9664,2.19801 4.56826,6.81386 2.20745,11.07406c-2.36081,4.26019 -7.49001,5.93193 -11.45639,3.73394c-3.96638,-2.198 -4.62701,-6.49871 -2.26618,-10.75891z" fill="#3f5479" stroke="#000000" stroke-width="0" stroke-linecap="butt"/><path d="M240.50516,199.81001c-2.36081,4.26019 -7.49001,5.93193 -11.45639,3.73394c-3.36692,-1.86579 -4.35181,-5.2468 -3.12856,-8.832c0.12409,0.16031 0.26656,0.31649 0.42861,0.46776c3.47409,3.24299 10.73474,5.89332 15.06651,2.5504c-0.22503,0.69476 -0.52896,1.39195 -0.91019,2.07986z" fill="#323344" stroke="#000000" stroke-width="0" stroke-linecap="butt"/><path d="M236.78968,189.52275c0.22386,-0.40397 0.73284,-0.55 1.13682,-0.32612c0.40399,0.22386 0.54999,0.73285 0.32612,1.13683c-0.22386,0.40397 -0.73284,0.55 -1.13683,0.32612c-0.40399,-0.22386 -0.54999,-0.73285 -0.32612,-1.13683z" fill="#95c2c5" stroke="none" stroke-width="0.5" stroke-linecap="butt"/><path d="M226.78256,192.785c2.36081,-4.26019 7.54875,-6.24706 11.51512,-4.04908c3.9664,2.19801 4.56826,6.81386 2.20745,11.07406c-2.36081,4.26019 -7.49001,5.93193 -11.45639,3.73394c-3.96638,-2.198 -4.62701,-6.49871 -2.26618,-10.75891z" fill="none" stroke="#000000" stroke-width="1" stroke-linecap="butt"/><path d="M238.84004,201.4502c0,0 -2.30404,1.6743 -6.86374,-0.60843c-2.5131,-1.25812 -5.43259,-3.08234 -5.43259,-3.08234" fill="none" stroke="#000000" stroke-width="1" stroke-linecap="round"/><path d="M240.46795,199.54776c0,0 -2.54696,-0.5899 -4.17747,-1.23391c-2.58527,-1.0211 -9.83742,-4.3016 -9.83742,-4.3016" fill="none" stroke="#000000" stroke-width="1" stroke-linecap="round"/><path d="M227.20382,192.19736c0,0 4.2126,-0.79826 8.08552,0.9619c3.29671,1.49829 5.89706,4.74691 5.89706,4.74691" fill="none" stroke="#000000" stroke-width="1" stroke-linecap="round"/><path d="M229.46974,189.37367c0,0 3.68257,-0.62314 6.65413,0.92067c2.98614,1.5514 5.71452,4.59494 5.71452,4.59494" fill="none" stroke="#000000" stroke-width="1" stroke-linecap="round"/><path d="M227.80474,202.15517c0,0 -1.41187,-4.00609 -0.06702,-7.87024c0.77754,-2.23409 3.98923,-5.76385 3.98923,-5.76385" fill="none" stroke="#000000" stroke-width="1" stroke-linecap="round"/><path d="M229.86934,203.49049c0,0 -0.82297,-5.32054 0.70783,-8.72459c1.19431,-2.65576 5.50854,-6.63398 5.50854,-6.63398" fill="none" stroke="#000000" stroke-width="1" stroke-linecap="round"/><path d="M232.8645,204.0667c0,0 -1.54891,-1.87498 2.27415,-9.33941c1.23054,-2.4026 4.23012,-5.15846 4.23012,-5.15846" fill="none" stroke="#000000" stroke-width="1" stroke-linecap="round"/><path d="M241.47408,193.4763l-5.3935,10.07793" fill="none" stroke="#000000" stroke-width="1" stroke-linecap="round"/></g></g></g></svg>