<svg version="1.1" xmlns="http://www.w3.org/2000/svg" xmlns:xlink="http://www.w3.org/1999/xlink" width="199.11324" height="221.55319" viewBox="0,0,199.11324,221.55319"><g transform="translate(-195.52004,-69.22341)"><g data-paper-data="{&quot;isPaintingLayer&quot;:true}" fill-rule="nonzero" stroke-linejoin="miter" stroke-miterlimit="10" stroke-dasharray="" stroke-dashoffset="0" style="mix-blend-mode: normal"><path d="M205.36674,290.77659v-221.55318h189.26654v221.55319z" fill="none" stroke="none" stroke-width="NaN" stroke-linecap="butt"/><g data-paper-data="{&quot;origRot&quot;:0}" fill="#000000" stroke="#000000" stroke-linecap="round"><path d="M302.12372,217.61942c0,0 -0.75659,-4.74071 0.77396,-4.93822c4.51645,-0.58278 8.65537,-2.82519 13.08756,-1.77955c1.84048,0.4342 3.12581,4.52575 3.12581,4.52575l8.88652,31.89288c0,0 0.96053,3.28121 1.44596,5.18591c0.51901,2.03646 -0.07758,5.29188 -2.14338,5.67792c-7.58495,1.41749 -12.04884,3.69797 -16.9988,3.37346c-1.80335,-0.11823 -3.70943,-0.36209 -4.65085,-1.90474c-1.22977,-2.0151 -1.18116,-6.49656 -1.18116,-6.49656z" data-paper-data="{&quot;origPos&quot;:null}" stroke-width="3"/><path d="M329.97351,255.81662c0,0 -5.46429,3.50486 -10.491,4.28607c-3.85667,0.59936 -12.3672,0.88579 -12.3672,0.88579c0,0 -1.73717,-2.36885 -2.0709,-3.93638c-0.35157,-1.6513 0.31488,-4.31148 0.31488,-4.31148l22.91133,-4.36763z" data-paper-data="{&quot;origPos&quot;:null}" stroke-width="2"/><path d="M302.25343,217.92396c0,0 -0.75659,-4.74071 0.77397,-4.93821c4.51644,-0.58278 8.65537,-2.82519 13.08758,-1.77953c1.84048,0.4342 3.1258,4.52574 3.1258,4.52574l8.88652,31.89288c0,0 0.96055,3.28121 1.44598,5.18591c0.51901,2.03646 -0.07759,5.29187 -2.14338,5.67792c-7.58495,1.41749 -12.04884,3.69798 -16.9988,3.37347c-1.80335,-0.11823 -3.70943,-0.36211 -4.65084,-1.90474c-1.22977,-2.0151 -1.18117,-6.49656 -1.18117,-6.49656z" data-paper-data="{&quot;origPos&quot;:null}" stroke-width="3"/></g><g data-paper-data="{&quot;index&quot;:null}" fill="#000000"><path d="M315.47885,156.92636c-0.92745,-3.07913 12.92452,0.15263 15.21034,-0.13228c2.48435,-0.30969 -7.55732,18.05117 -7.55732,18.05117l-1.74606,3.08838l11.17834,-20.64171c0,0 3.50113,-7.3236 5.36271,-6.02806c0,0 11.01995,1.62259 24.20351,15.13156c-1.59884,4.88634 -9.18496,14.16535 -9.18496,14.16535c0,0 -15.89007,21.38354 -20.59533,21.06254c-1.08958,-0.07435 -13.5885,-3.94561 -15.57699,-7.59649c-6.5987,-12.11526 -1.29426,-37.10046 -1.29426,-37.10046z" stroke="#000000" stroke-width="2.5" stroke-linecap="round"/><path d="M324.54875,173.6822c-0.2678,0.4302 -0.54201,0.85739 -0.8154,1.2865c-0.06034,0.09471 -0.84759,1.09948 -1.00657,1.6808c5.75627,3.80467 12.0389,6.6714 17.61988,10.79725c0.51696,0.33041 1.67752,0.91924 2.71273,1.632c0.35952,0.12393 0.6583,0.1781 0.8145,0.09788c1.32815,-0.68206 2.31009,-2.30767 3.49424,-3.24039c-0.37002,-0.10032 -1.4361,-0.40556 -1.84587,-0.61133c-1.2169,-0.61112 -2.42148,-1.21146 -3.65575,-1.78499c-4.32659,-2.01041 -8.78559,-4.67524 -12.82289,-7.16991c-1.53485,-0.7274 -3.09938,-1.63556 -4.49487,-2.68779zM325.31953,172.38866c1.3668,1.05041 2.93002,1.94776 4.44209,2.66436c4.55313,2.84253 9.50669,5.49337 14.36195,7.85118c2.00054,0.9715 5.39607,1.68555 4.34742,4.04982c-1.24825,1.00778 -2.39521,2.75749 -3.85033,3.51167c0.28044,0.37475 0.43629,0.75869 0.39231,1.13869c-0.0619,0.5349 -1.76235,1.88272 -2.16303,2.32072c-2.39037,2.61309 -4.77554,6.19546 -8.65801,6.33547c-5.92278,1.90105 -14.24201,-1.85878 -18.5119,-5.87476c-1.92048,-3.97119 -1.85478,-7.39618 -1.6318,-11.69773c0.161,-3.10584 -0.25855,-6.05955 0.2692,-9.18473c0.1365,-4.44277 0.40918,-8.86864 0.55154,-13.30971c0.06534,-2.03827 -0.56932,-4.02472 1.48056,-5.02736c3.58562,0.32668 7.21024,0.65858 10.80262,1.06947c1.11982,0.1281 3.38459,0.46345 4.15078,1.40856c1.06477,1.31347 -0.0443,2.82587 -0.76965,3.99527c-1.23264,2.78034 -2.73024,5.76083 -4.42425,8.58155c0.13676,0.30319 -0.00939,0.63108 -0.00939,0.63108c-0.23565,0.52714 -0.49917,1.03688 -0.7801,1.53645zM340.92469,189.64265c-3.73029,-1.62026 -6.77331,-4.24748 -10.40384,-5.95367c-2.15969,-0.96254 -6.14176,-2.36103 -8.15297,-4.52505c-0.14265,-0.06214 -0.23417,-0.14589 -0.23417,-0.14589l-0.56524,-0.52158c-0.6357,-0.40509 -1.13605,-1.0222 -1.53143,-1.664c2.0675,-5.62302 6.68107,-10.33706 9.17095,-15.89551c0.36476,-0.58671 0.93782,-1.38943 1.11262,-2.05333c0.1075,-0.40833 -2.34252,-1.02263 -2.64216,-1.08156c-3.64821,-0.71764 -7.44422,-0.57815 -11.11588,-1.15095c-0.38115,0.02644 -0.17419,2.97484 -0.19452,3.59351c-0.14686,4.47339 -0.40589,8.93256 -0.55811,13.40791c-0.52166,3.1091 -0.11093,6.02782 -0.26408,9.11906c-0.19493,3.93449 -0.332,7.0723 1.34122,10.72376c4.05444,3.56015 11.56992,7.04452 17.04001,5.28878c3.78842,-0.19452 7.25839,-4.78381 9.59723,-7.36435c0.02479,-0.02737 -1.38312,-0.97764 -2.54248,-1.75179c-0.01934,-0.00871 -0.0384,-0.01717 -0.0572,-0.02533z" stroke="none" stroke-width="0.5" stroke-linecap="butt"/><path d="M329.00657,176.33645c4.0373,2.49463 8.58168,5.20585 12.90828,7.21625c1.23427,0.57351 2.43781,1.17725 3.65472,1.78839c0.40975,0.20578 1.47586,0.51094 1.84589,0.61127c-1.18416,0.93276 -2.17506,2.5743 -3.50319,3.25637c-0.1562,0.08019 -0.45634,0.02758 -0.81586,-0.09635c-1.03523,-0.71277 -2.19849,-1.29881 -2.71546,-1.62922c-5.58102,-4.12584 -11.94412,-7.04809 -17.70039,-10.85274c0.159,-0.58131 0.94958,-1.59273 1.00991,-1.68745c0.27339,-0.42912 0.55087,-0.86112 0.81868,-1.2913c1.39548,1.05223 2.96254,1.95739 4.4974,2.68479z" data-paper-data="{&quot;noHover&quot;:false,&quot;origItem&quot;:[&quot;Path&quot;,{&quot;applyMatrix&quot;:true,&quot;segments&quot;:[[[926.17844,407.1979],[3.2606,1.25965],[-0.27949,0.97418]],[[925.31465,410.11917],[0.29084,-0.97519],[-0.06418,0.21521]],[[924.29914,413.90358],[-0.01258,-1.20526],[13.15638,4.16543]],[[964.1057,425.02121],[-12.99513,-4.87922],[1.17537,0.35239]],[[970.21765,426.67451],[-2.3817,-0.804],[0.75941,0.04146]],[[971.83798,426.41666],[-0.25651,0.23985],[2.18115,-2.03947]],[[976.78433,418.26967],[-1.76682,2.44279],[-0.76669,0.00973]],[[972.89889,418.10481],[0.90089,0.17138],[-2.67549,-0.50896]],[[964.88923,416.67374],[2.68829,0.42712],[-9.42353,-1.49721]],[[936.29671,409.90591],[9.13228,2.58714],[-3.35077,-0.55846]]],&quot;closed&quot;:true}]}" stroke="none" stroke-width="0.5" stroke-linecap="butt"/><path d="M339.45988,188.64865c0.1913,0.12235 4.14343,2.75844 4.1024,2.80369c-2.33884,2.58055 -5.83416,7.18561 -9.62253,7.38013c-5.4701,1.75574 -13.02931,-1.73787 -17.08375,-5.29803c-1.67323,-3.65147 -1.55276,-6.81349 -1.35782,-10.748c0.15317,-3.09124 -0.25644,-6.04301 0.26522,-9.15211c0.15222,-4.47535 0.43005,-8.95794 0.57691,-13.43134c0.02031,-0.61866 -0.18297,-3.5693 0.19817,-3.59573c3.67164,0.57279 7.48935,0.42719 11.13758,1.14482c0.29963,0.05896 2.75619,0.67336 2.64868,1.08167c-0.17481,0.66392 -0.75344,1.56646 -1.11821,2.15314c-2.48989,5.55846 -7.05308,10.23291 -9.12057,15.85592c0.39537,0.6418 0.89677,1.24972 1.5325,1.65481l0.56518,0.51772c0,0 0.45345,0.51175 0.95975,-0.04156c0.0507,-0.05541 0.19068,-0.11439 0.22174,-0.16837c5.35675,3.35734 10.97261,6.06295 16.09473,9.84324z" data-paper-data="{&quot;noHover&quot;:false,&quot;origItem&quot;:[&quot;Path&quot;,{&quot;applyMatrix&quot;:true,&quot;segments&quot;:[[[926.61254,417.73069],[12.14285,3.5238],[-0.03018,0.12086]],[[926.46822,418.11346],[0.06716,-0.13431],[-0.67082,1.34164]],[924.45576,418.78428],[[923.08279,418.0906],[0,0],[-1.44471,-0.43097]],[[919.22563,415.72869],[1.11205,1.01797],[0.89694,-11.9485]],[[928.15956,380.1298],[-1.74473,12.05571],[0.38029,-1.32836]],[[929.175,375.57071],[0.02742,1.37277],[-0.01686,-0.84429]],[[923.5003,374.93752],[0.60865,-0.05075],[-7.41054,0.61792]],[[901.48814,378.8123],[7.37628,-0.90935],[-0.71866,0.25961]],[[903.08234,385.83106],[-0.2998,-1.20115],[2.16779,8.68513]],[[909.35292,411.92731],[-2.15853,-8.69186],[0.69956,6.26621]],[[913.83986,429.61277],[-1.39861,-6.02998],[1.78014,7.67491]],[[922.29365,449.50563],[-5.21858,-6.1072],[9.74892,4.62723]],[[957.96755,450.34516],[-9.56021,6.37347],[7.18055,-2.44927]],[[972.39433,430.92276],[-3.08539,6.24485],[0.05411,-0.10951]],[[963.14745,427.86406],[0.43501,0.13058],[-11.92317,-4.46591]]],&quot;closed&quot;:true}]}" stroke="none" stroke-width="0.5" stroke-linecap="butt"/></g><g data-paper-data="{&quot;index&quot;:null,&quot;origRot&quot;:0}" fill="#000000" stroke="#000000" stroke-linecap="round"><path d="M299.34587,252.80478c0,0 0.25022,4.47474 -0.8876,6.54314c-0.87105,1.58346 -2.76422,1.91284 -4.56042,2.11212c-4.93033,0.54697 -9.49233,-1.53035 -17.13339,-2.60503c-2.08108,-0.2927 -2.82358,-3.51795 -2.39675,-5.57571c0.39922,-1.92461 1.21111,-5.24572 1.21111,-5.24572l7.4422,-32.2605c0,0 1.09988,-4.14524 2.91894,-4.66182c4.38065,-1.24405 8.61629,0.80979 13.15438,1.18874c1.53789,0.12842 0.99543,4.89837 0.99543,4.89837z" data-paper-data="{&quot;origPos&quot;:null}" stroke-width="3"/><path d="M275.35352,249.09758l23.08465,3.33207c0,0 0.7855,2.62749 0.5086,4.29293c-0.26284,1.58097 -1.89165,4.0256 -1.89165,4.0256c0,0 -8.5148,0.09687 -12.39452,-0.32831c-5.05676,-0.55419 -10.67325,-3.80957 -10.67325,-3.80957z" data-paper-data="{&quot;origPos&quot;:null}" stroke-width="2.5"/><path d="M299.23004,253.11487c0,0 0.25022,4.47474 -0.8876,6.54314c-0.87105,1.58346 -2.76422,1.91285 -4.56042,2.11212c-4.93033,0.54697 -9.49232,-1.53033 -17.13339,-2.60502c-2.08108,-0.2927 -2.82358,-3.51796 -2.39675,-5.57571c0.39922,-1.92461 1.21111,-5.24572 1.21111,-5.24572l7.4422,-32.2605c0,0 1.09987,-4.14524 2.91894,-4.66182c4.38065,-1.24405 8.61631,0.80979 13.15439,1.18874c1.53789,0.12842 0.99542,4.89837 0.99542,4.89837c0,0 -0.1881,9.00336 -0.30849,14.76599c-0.16993,8.13325 -0.43542,20.84043 -0.43542,20.84043z" data-paper-data="{&quot;origPos&quot;:null}" stroke-width="1.5"/></g><g fill="#000000"><g><path d="M282.19163,169.53286c0,0 1.94111,-14.4094 4.09862,-14.95725c6.4725,-1.64357 21.26952,-0.71298 31.15944,-0.71298c1.52888,0 2.84914,13.5334 2.84914,13.5334l1.7807,30.62821c0,0 0.24329,14.95796 -1.42456,14.95796c-14.84697,0 -32.2486,0.85262 -38.86622,0.01169c-2.20586,-0.2803 -1.37783,-16.03807 -1.37783,-16.03807z" data-paper-data="{&quot;origPos&quot;:null}" stroke="#000000" stroke-width="3.5" stroke-linecap="round"/><path d="M301.03648,177.73166c-1.29167,0 -1.29167,-2.4875 -1.29167,-2.4875c0,-5.15926 0,-11.97684 0,-17.1361c0,0 0,-2.4875 1.29167,-2.4875c1.29167,0 1.29167,2.4875 1.29167,2.4875c0,5.15926 0,10.31851 0,15.47777v1.65833c0,0 0,2.4875 -1.29167,2.4875z" stroke="none" stroke-width="0.5" stroke-linecap="butt"/><path d="M313.03648,184.06499c-1.29167,0 -1.29167,-3.125 -1.29167,-3.125c0,-6.48148 0,-15.04629 0,-21.52777c0,0 0,-3.125 1.29167,-3.125c1.29167,0 1.29167,3.125 1.29167,3.125c0,6.48148 0,12.96296 0,19.44445v2.08333c0,0 0,3.125 -1.29167,3.125z" stroke="none" stroke-width="0.5" stroke-linecap="butt"/></g><g stroke="#000000" stroke-width="0.5" stroke-linecap="butt"><path d="M315.81523,194.03952c0,6.75773 -4.61499,12.23596 -10.30787,12.23596c-5.69288,0 -10.30787,-5.47823 -10.30787,-12.23596c0,-6.75773 4.61499,-12.23596 10.30787,-12.23596c5.69288,0 10.30787,5.47823 10.30787,12.23596z"/><path d="M308.56784,182.75175c0.00042,0.01121 0.00064,0.02264 0.00064,0.03429c0,0.62472 -0.62472,0.62472 -0.62472,0.62472h-0.12494c-0.45645,0 -2.53723,0.0279 -2.84911,-0.10741c-0.26035,-0.11296 -0.20372,-0.54309 -0.39105,-0.75628c-0.17997,-0.20481 -0.43603,-0.33145 -0.67695,-0.45911c-0.38311,-0.20301 -0.90634,-0.19976 -1.18819,-0.52922c-0.26036,-0.30435 -0.29131,-0.7718 -0.26679,-1.17157c0.11516,-1.87748 1.26724,-1.89669 2.75543,-1.72741c0.44886,0.09887 0.91204,0.14686 1.34659,0.2966c0.19117,0.06587 0.30526,0.29409 0.50208,0.34041c0.1399,0.03293 0.27152,-0.0978 0.41262,-0.12514c0.00602,-0.00117 1.74906,-0.25012 1.76634,-0.25258c1.1784,-0.1673 2.43862,-0.21612 3.62786,-0.12987c0.75779,0.05496 2.47002,0.24268 2.90706,1.002c0.6224,1.08137 -1.1866,1.81308 -1.63938,1.99818c-1.33995,0.54778 -2.48368,0.20728 -3.84836,0.36625c-0.46486,0.05415 -1.21198,0.38014 -1.70913,0.59613z"/></g></g><path d="M316.87792,157.5031c-12.06781,0.68179 -23.77231,1.30688 -28.60436,0.5257c-4.41617,-0.71394 -5.86194,-3.41057 -5.86194,-3.41057c0,0 -1.86744,-2.35025 -2.0243,-3.87722c-0.47057,-4.58091 -1.20001,-17.71104 -0.78027,-29.08024c0.014,-0.37945 0.03563,-0.59219 0.0722,-0.97012c0.10974,-1.13381 0.72554,-5.54351 0.72554,-5.54351c0,0 3.10983,-1.80484 4.81889,-2.35767c5.12717,-1.65849 18.39477,-0.77868 32.31358,-1.00283c1.26157,-0.02031 3.49846,1.55975 3.49846,1.55975c0,0 1.68363,3.06341 1.72638,5.04649c0.27655,12.82085 0.53533,27.00724 0.3826,30.26033c-0.0509,1.08437 -1.6941,5.35401 -1.6941,5.35401z" fill="#000000" stroke="#000000" stroke-width="2.5" stroke-linecap="round"/><path d="M316.70253,137.03207c-0.07428,-3.44414 0.27912,-6.24512 0.78936,-6.25612c0.51024,-0.01102 0.98411,2.77212 1.0584,6.21626c0.07428,3.44414 -0.27911,6.24513 -0.78936,6.25613c-0.51024,0.01102 -0.98411,-2.77212 -1.0584,-6.21627z" fill="#000000" stroke="#000000" stroke-width="2.5" stroke-linecap="butt"/><path d="M310.21517,137.86967c-0.07567,-3.50795 0.17324,-6.35839 0.55591,-6.36665c0.38268,-0.00825 0.75425,2.82881 0.82992,6.33675c0.07567,3.50795 -0.17321,6.35837 -0.5559,6.36664c-0.38268,0.00825 -0.75426,-2.82879 -0.82993,-6.33673z" fill="#000000" stroke="#000000" stroke-width="2.5" stroke-linecap="butt"/><path d="M279.15688,114.74791l-0.24216,-12.99774l43.7924,-0.81587l0.24216,12.99774z" fill="#000000" stroke="none" stroke-width="0" stroke-linecap="butt"/><path d="M304.51394,127.62317c-0.02571,-1.38048 1.07253,-2.52041 2.45301,-2.54614c0.28345,-0.00529 0.55675,0.03683 0.81236,0.11903c1.42322,-0.30095 9.29436,4.52888 7.23589,7.2326c-1.53602,2.01749 -6.96443,-1.0156 -8.83695,-2.23533c-0.51574,-0.33594 -2.19442,-1.91258 -1.66429,-2.57015z" data-paper-data="{&quot;index&quot;:null}" fill="#000000" stroke="none" stroke-width="0.5" stroke-linecap="butt"/><path d="M320.48831,130.3268c-1.31582,1.27914 -5.1465,4.48473 -6.32278,2.51778c-1.57636,-2.63599 3.96423,-7.7157 5.00375,-7.46063c0.18231,-0.09036 0.37873,-0.14123 0.58402,-0.14504c0.99976,-0.01862 1.83108,1.08538 1.8568,2.46584c0.40472,0.64016 -0.75937,2.26976 -1.12178,2.62206z" data-paper-data="{&quot;index&quot;:null}" fill="#000000" stroke="none" stroke-width="0.5" stroke-linecap="butt"/><g data-paper-data="{&quot;index&quot;:null}" fill="#000000" stroke="#000000" stroke-width="1" stroke-linecap="butt"><g data-paper-data="{&quot;index&quot;:null}"><path d="M303.1468,146.11182c7.53037,-0.22648 5.07569,3.03252 5.07569,3.03252l-10.04611,0.26711c0,0 -3.04452,-2.98398 4.97039,-3.29959z"/></g><g data-paper-data="{&quot;index&quot;:null}"><path d="M303.14681,146.11182c1.54035,-0.04631 2.66291,0.05319 3.47412,0.2408c0.01453,0.00336 -0.5277,0.67625 -0.51922,1.30705c0.01034,0.77018 0.5696,1.52588 0.56728,1.52596c-1.6961,0.04509 -8.49259,0.22578 -8.49259,0.22578c0,0 -3.04452,-2.98398 4.97039,-3.29959z"/></g></g><g data-paper-data="{&quot;index&quot;:null}" fill="#000000"><path d="M216.09129,249.25031c-0.20496,-2.25285 -4.06064,-5.72516 -2.00582,-5.85124c1.36892,-0.08399 20.78486,3.36685 22.01641,4.72571c0.61705,0.68084 1.07925,1.81579 1.14769,2.5678c0.10056,1.10531 -0.38962,2.05404 -1.24025,2.75375c-0.88315,0.72645 -19.9671,2.27726 -21.01376,2.34149c-2.05481,0.12608 1.30073,-4.28466 1.09574,-6.53752z" stroke="#000000" stroke-width="1.5" stroke-linecap="butt"/><g stroke-linecap="butt"><path d="M209.32278,249.69123c-0.37137,-4.08164 1.47327,-7.5221 4.12011,-7.68449c2.64685,-0.16239 5.09358,3.01478 5.46495,7.09643c0.37133,4.08164 -1.47331,7.5221 -4.12014,7.68449c-2.64683,0.16242 -5.09357,-3.01477 -5.46493,-7.09641z" stroke="#000000" stroke-width="1.5"/><path d="M214.98044,245.6816l-1.76101,-3.23445c0,0 1.74495,0.55298 2.34388,1.04651c1.24099,1.05291 1.73129,2.56411 1.73129,2.56411z" stroke="none" stroke-width="0"/><path d="M216.02469,248.88888l-0.41294,-1.46811c0,0 0.91946,-0.16024 1.24795,-0.15881c0.38463,0.00168 1.08407,0.21294 1.08407,0.21294l0.20968,1.78122z" stroke="none" stroke-width="0"/></g><g><path d="M215.22539,249.43717c0.51229,5.63067 -2.45858,8.95223 -7.98857,9.29152c-5.52998,0.33927 -10.45446,-4.23881 -10.96678,-9.86954c-0.51232,-5.63069 3.04106,-9.85846 8.57105,-10.19775c5.52996,-0.33926 9.87198,5.14501 10.3843,10.77574z" stroke="#000000" stroke-width="1.5" stroke-linecap="butt"/><path d="M203.23015,239.15815c2.74366,-0.16836 5.71112,1.01724 7.94696,2.58665c1.59293,1.11813 2.81739,2.90241 2.99847,4.89274c0.37219,4.0911 -1.28465,5.65574 -6.12296,5.95259c-2.4162,0.14823 -5.51488,-1.11011 -7.65869,-2.74116c-2.14902,-1.63502 -3.58148,-2.92615 -3.58148,-2.92615c0,0 1.57938,-7.46781 6.41769,-7.76466z" stroke="none" stroke-width="0" stroke-linecap="butt"/><path d="M204.90342,238.9684c0,0 4.04701,2.54665 4.86756,9.04547c0.82728,6.55207 -2.27429,9.7456 -2.27429,9.7456" stroke="#000000" stroke-width="0.8" stroke-linecap="round"/><path d="M209.40381,239.87317c0,0 2.46598,3.68779 3.4531,7.77697c1.42258,5.89302 -0.27515,8.33531 -0.27515,8.33531" stroke="#000000" stroke-width="0.75" stroke-linecap="round"/><path d="M200.70109,240.12592c0,0 3.49488,2.75874 4.67566,9.2287c1.13572,6.22294 -0.60165,8.23441 -0.60165,8.23441" stroke="#000000" stroke-width="0.8" stroke-linecap="round"/><path d="M203.50687,257.61063c0,0 -2.51441,-3.73755 -3.61762,-6.84506c-1.45312,-4.09309 -1.8008,-8.39875 -1.8008,-8.39875" stroke="#000000" stroke-width="0.8" stroke-linecap="round"/><path d="M214.67153,251.63985c0,0 -2.86257,2.46501 -8.668,3.06222c-5.41748,0.5573 -8.08244,-2.03456 -8.08244,-2.03456" stroke="#000000" stroke-width="0.8" stroke-linecap="round"/><path d="M197.45823,250.6153c0,0 2.77879,0.01709 5.76598,-0.43942c2.62696,-0.40147 5.39341,-1.26975 6.87253,-1.44666c1.75679,-0.21011 4.73434,-0.19192 4.73434,-0.19192" stroke="#000000" stroke-width="0.8" stroke-linecap="round"/><path d="M196.72995,248.07334c0,0 4.02104,-3.17879 7.80682,-3.52048c5.9419,-0.5363 9.95043,1.41887 9.95043,1.41887" stroke="#000000" stroke-width="0.8" stroke-linecap="round"/><path d="M196.87422,244.80305c0,0 2.82486,-2.45953 6.52529,-3.32437c5.32876,-1.24541 8.35879,-0.00677 8.35879,-0.00677" stroke="#000000" stroke-width="0.8" stroke-linecap="round"/><path d="M203.82235,240.44052c0.03654,0.40148 -0.30269,0.74962 -0.75765,0.77751c-0.45497,0.02793 -0.85341,-0.27493 -0.88993,-0.67641c-0.03652,-0.4015 0.30268,-0.74962 0.75764,-0.77751c0.45497,-0.02795 0.85343,0.27491 0.88995,0.67639z" stroke="none" stroke-width="0" stroke-linecap="butt"/><path d="M200.44693,241.8847c-0.22747,0.01395 -0.42897,-0.16251 -0.45004,-0.39413c-0.02107,-0.23162 0.14626,-0.43071 0.37374,-0.44466c0.22748,-0.01394 0.42897,0.16251 0.45004,0.39413c0.02108,0.23162 -0.14626,0.43071 -0.37374,0.44466z" stroke="none" stroke-width="0" stroke-linecap="butt"/></g></g><g data-paper-data="{&quot;index&quot;:null}" fill="#000000"><path d="M295.11416,158.25968c0,0 5.30444,24.98519 -1.29425,37.10046c-1.98849,3.65087 -14.48742,7.52214 -15.57699,7.59649c-4.70526,0.321 -20.59533,-21.06254 -20.59533,-21.06254c0,0 -7.58612,-9.27901 -9.18497,-14.16534c13.18357,-13.50897 24.20351,-15.13156 24.20351,-15.13156c1.86158,-1.29555 5.36271,6.02806 5.36271,6.02806l11.17834,20.64171l-1.74606,-3.08838c0,0 -10.04167,-18.36086 -7.55732,-18.05117c2.28583,0.28492 16.1378,-2.94684 15.21035,0.13228z" stroke="#000000" stroke-width="2.5" stroke-linecap="round"/><path d="M286.04425,175.01556c-1.39548,1.05224 -2.96002,1.96039 -4.49487,2.6878c-4.03729,2.49467 -8.4963,5.1595 -12.82289,7.16991c-1.23427,0.57352 -2.43884,1.17387 -3.65574,1.78498c-0.40977,0.20577 -1.47586,0.51102 -1.84587,0.61134c1.18415,0.93273 2.16609,2.55833 3.49424,3.24039c0.1562,0.08022 0.45498,0.02605 0.8145,-0.09788c1.03521,-0.71276 2.19577,-1.30159 2.71273,-1.632c5.58098,-4.12585 11.86361,-6.99258 17.61988,-10.79725c-0.15899,-0.58132 -0.94623,-1.5861 -1.00658,-1.6808c-0.2734,-0.4291 -0.5476,-0.85629 -0.8154,-1.28649zM285.27347,173.72198c-0.28093,-0.49957 -0.54445,-1.00931 -0.7801,-1.53645c0,0 -0.14615,-0.32788 -0.00939,-0.63107c-1.69401,-2.82073 -3.19161,-5.80121 -4.42425,-8.58155c-0.72535,-1.1694 -1.83441,-2.6818 -0.76965,-3.99527c0.76619,-0.94511 3.03095,-1.28047 4.15078,-1.40856c3.59238,-0.41089 7.217,-0.74278 10.80262,-1.06946c2.04988,1.00264 1.41521,2.98908 1.48056,5.02736c0.14236,4.44107 0.41504,8.86694 0.55154,13.30971c0.52775,3.12517 0.10821,6.07889 0.2692,9.18473c0.22298,4.30155 0.28867,7.72654 -1.6318,11.69773c-4.2699,4.01597 -12.58912,7.77581 -18.5119,5.87476c-3.88246,-0.14001 -6.26763,-3.72238 -8.658,-6.33547c-0.40068,-0.438 -2.10113,-1.78582 -2.16303,-2.32072c-0.04397,-0.38 0.11188,-0.76394 0.39231,-1.13869c-1.45513,-0.75418 -2.60208,-2.50388 -3.85034,-3.51166c-1.04864,-2.36426 2.34689,-3.07832 4.34742,-4.04982c4.85526,-2.35781 9.80881,-5.00865 14.36195,-7.85117c1.51207,-0.7166 3.07528,-1.61395 4.44208,-2.66436zM269.66837,190.976c-0.01879,0.00816 -0.03786,0.01662 -0.0572,0.02533c-1.15935,0.77415 -2.56726,1.72442 -2.54247,1.75178c2.33884,2.58055 5.80881,7.16983 9.59723,7.36436c5.47009,1.75574 12.98556,-1.72863 17.04001,-5.28878c1.67322,-3.65146 1.53615,-6.78927 1.34122,-10.72376c-0.15315,-3.09124 0.25757,-6.00996 -0.26409,-9.11906c-0.15222,-4.47536 -0.41125,-8.93452 -0.55811,-13.40791c-0.02033,-0.61867 0.18663,-3.56708 -0.19452,-3.59352c-3.67166,0.57279 -7.46767,0.43331 -11.11588,1.15095c-0.29963,0.05894 -2.74966,0.67323 -2.64216,1.08156c0.17481,0.66389 0.74786,1.46661 1.11262,2.05333c2.48988,5.55846 7.10345,10.2725 9.17094,15.89551c-0.39538,0.64181 -0.89572,1.25891 -1.53142,1.664l-0.56524,0.52159c0,0 -0.09152,0.08375 -0.23417,0.14589c-2.0112,2.16402 -5.99328,3.56251 -8.15297,4.52505c-3.63053,1.70619 -6.67355,4.3334 -10.40384,5.95366z" stroke="none" stroke-width="0.5" stroke-linecap="butt"/><path d="M281.58645,177.66978c1.53486,-0.7274 3.10192,-1.63255 4.4974,-2.68479c0.2678,0.43018 0.54529,0.86219 0.81868,1.2913c0.06033,0.09471 0.85091,1.10613 1.00992,1.68745c-5.75627,3.80465 -12.11937,6.7269 -17.70039,10.85274c-0.51697,0.33041 -1.68024,0.91645 -2.71546,1.62922c-0.35952,0.12393 -0.65966,0.17654 -0.81586,0.09635c-1.32813,-0.68207 -2.31903,-2.32362 -3.50319,-3.25638c0.37003,-0.10032 1.43614,-0.40548 1.84589,-0.61126c1.21691,-0.61113 2.42045,-1.21487 3.65472,-1.78839c4.3266,-2.0104 8.87098,-4.72161 12.90828,-7.21625z" data-paper-data="{&quot;noHover&quot;:false,&quot;origItem&quot;:[&quot;Path&quot;,{&quot;applyMatrix&quot;:true,&quot;segments&quot;:[[[926.17844,407.1979],[3.2606,1.25965],[-0.27949,0.97418]],[[925.31465,410.11917],[0.29084,-0.97519],[-0.06418,0.21521]],[[924.29914,413.90358],[-0.01258,-1.20526],[13.15638,4.16543]],[[964.1057,425.02121],[-12.99513,-4.87922],[1.17537,0.35239]],[[970.21765,426.67451],[-2.3817,-0.804],[0.75941,0.04146]],[[971.83798,426.41666],[-0.25651,0.23985],[2.18115,-2.03947]],[[976.78433,418.26967],[-1.76682,2.44279],[-0.76669,0.00973]],[[972.89889,418.10481],[0.90089,0.17138],[-2.67549,-0.50896]],[[964.88923,416.67374],[2.68829,0.42712],[-9.42353,-1.49721]],[[936.29671,409.90591],[9.13228,2.58714],[-3.35077,-0.55846]]],&quot;closed&quot;:true}]}" stroke="none" stroke-width="0.5" stroke-linecap="butt"/><path d="M287.22786,180.13874c0.03106,0.05398 0.17104,0.11296 0.22174,0.16837c0.5063,0.5533 0.95975,0.04156 0.95975,0.04156l0.56519,-0.51771c0.63573,-0.40509 1.13713,-1.01301 1.5325,-1.65481c-2.0675,-5.62301 -6.63069,-10.29746 -9.12057,-15.85592c-0.36477,-0.58668 -0.9434,-1.48922 -1.11821,-2.15314c-0.10751,-0.4083 2.34905,-1.02271 2.64868,-1.08167c3.64824,-0.71763 7.46594,-0.57203 11.13758,-1.14482c0.38114,0.02643 0.17787,2.97708 0.19817,3.59573c0.14686,4.47339 0.42469,8.95599 0.57691,13.43133c0.52167,3.10909 0.11206,6.06088 0.26522,9.15211c0.19494,3.93451 0.31541,7.09653 -1.35782,10.748c-4.05444,3.56016 -11.61365,7.05378 -17.08375,5.29803c-3.78837,-0.19452 -7.28369,-4.79958 -9.62253,-7.38013c-0.04103,-0.04526 3.91111,-2.68134 4.10241,-2.80369c5.12212,-3.78029 10.73798,-6.4859 16.09473,-9.84324z" data-paper-data="{&quot;noHover&quot;:false,&quot;origItem&quot;:[&quot;Path&quot;,{&quot;applyMatrix&quot;:true,&quot;segments&quot;:[[[926.61254,417.73069],[12.14285,3.5238],[-0.03018,0.12086]],[[926.46822,418.11346],[0.06716,-0.13431],[-0.67082,1.34164]],[924.45576,418.78428],[[923.08279,418.0906],[0,0],[-1.44471,-0.43097]],[[919.22563,415.72869],[1.11205,1.01797],[0.89694,-11.9485]],[[928.15956,380.1298],[-1.74473,12.05571],[0.38029,-1.32836]],[[929.175,375.57071],[0.02742,1.37277],[-0.01686,-0.84429]],[[923.5003,374.93752],[0.60865,-0.05075],[-7.41054,0.61792]],[[901.48814,378.8123],[7.37628,-0.90935],[-0.71866,0.25961]],[[903.08234,385.83106],[-0.2998,-1.20115],[2.16779,8.68513]],[[909.35292,411.92731],[-2.15853,-8.69186],[0.69956,6.26621]],[[913.83986,429.61277],[-1.39861,-6.02998],[1.78014,7.67491]],[[922.29365,449.50563],[-5.21858,-6.1072],[9.74892,4.62723]],[[957.96755,450.34516],[-9.56021,6.37347],[7.18055,-2.44927]],[[972.39433,430.92276],[-3.08539,6.24485],[0.05411,-0.10951]],[[963.14745,427.86406],[0.43501,0.13058],[-11.92317,-4.46591]]],&quot;closed&quot;:true}]}" stroke="none" stroke-width="0.5" stroke-linecap="butt"/></g></g></g></svg>