<svg version="1.1" xmlns="http://www.w3.org/2000/svg" xmlns:xlink="http://www.w3.org/1999/xlink" width="189.26654" height="221.55319" viewBox="0,0,189.26654,221.55319"><g transform="translate(-205.36673,-69.22341)"><g data-paper-data="{&quot;isPaintingLayer&quot;:true}" fill-rule="nonzero" stroke-linejoin="miter" stroke-miterlimit="10" stroke-dasharray="" stroke-dashoffset="0" style="mix-blend-mode: normal"><path d="M205.36673,290.77659v-221.55318h189.26654v221.55319z" fill="none" stroke="none" stroke-width="NaN" stroke-linecap="butt"/><g fill="#000000" stroke="#000000" stroke-linecap="round"><path d="M294.70127,193.6414c0,0 -28.79047,1.72573 -26.21192,-16.069c0.95002,-6.55617 16.7739,-2.60387 16.7739,-2.60387z" data-paper-data="{&quot;origPos&quot;:null}" stroke-width="2"/><path d="M288.45209,180.90271c0,0 -15.47056,-4.2061 -15.17447,-4.78273c0.93883,-1.82827 12.51119,0.45079 12.51119,0.45079z" data-paper-data="{&quot;origPos&quot;:null}" stroke-width="1"/></g><g data-paper-data="{&quot;origRot&quot;:0}" fill="#000000" stroke="#000000" stroke-linecap="round"><path d="M302.06026,231.86165c0,0 -2.17389,-4.2803 -0.77764,-4.93764c4.12013,-1.93969 7.37202,-5.34326 11.91133,-5.70714c1.88496,-0.15112 4.36304,3.34916 4.36304,3.34916l18.23841,27.63126c0,0 1.92044,2.82857 2.96656,4.49266c1.11849,1.77919 1.54892,5.06072 -0.29898,6.06164c-6.78484,3.67514 -10.33436,7.21461 -15.14535,8.42365c-1.75272,0.44047 -3.64175,0.79287 -5.01088,-0.38677c-1.78846,-1.5409 -3.11644,-5.82137 -3.11644,-5.82137z" data-paper-data="{&quot;origPos&quot;:null}" stroke-width="3"/><path d="M340.28153,259.67838c0,0 -4.12625,5.01163 -8.67123,7.29666c-3.48706,1.75314 -11.49975,4.63554 -11.49975,4.63554c0,0 -2.37989,-1.72201 -3.17822,-3.11167c-0.84101,-1.46393 -1.02241,-4.20032 -1.02241,-4.20032l20.46815,-11.18301z" data-paper-data="{&quot;origPos&quot;:null}" stroke-width="2"/><path d="M302.27707,232.11174c0,0 -2.17389,-4.2803 -0.77764,-4.93763c4.12013,-1.93968 7.37202,-5.34327 11.91134,-5.70712c1.88496,-0.15112 4.36303,3.34916 4.36303,3.34916l18.2384,27.63126c0,0 1.92047,2.82857 2.96659,4.49265c1.11849,1.77919 1.54892,5.06071 -0.29898,6.06164c-6.78484,3.67514 -10.33436,7.21462 -15.14534,8.42366c-1.75272,0.44047 -3.64175,0.79284 -5.01086,-0.38679c-1.78846,-1.5409 -3.11645,-5.82135 -3.11645,-5.82135z" data-paper-data="{&quot;origPos&quot;:null}" stroke-width="3"/></g><path d="M283.8565,265.51991c0,0 -1.45665,4.2384 -3.29081,5.72461c-1.40412,1.13775 -3.28165,0.72849 -5.02027,0.23531c-4.77229,-1.35374 -8.21328,-4.99879 -14.88407,-8.87713c-1.81681,-1.05628 -1.2875,-4.32331 -0.11581,-6.0679c1.09589,-1.63173 3.10087,-4.40102 3.10087,-4.40102l19.06443,-27.06795c0,0 2.58262,-3.42385 4.46215,-3.21589c4.52626,0.50078 7.67389,4.00098 11.73356,6.0642c1.37576,0.6992 -0.92637,4.91189 -0.92637,4.91189c0,0 -3.57128,8.26691 -5.85709,13.55818c-3.22615,7.46797 -8.2666,19.13574 -8.2666,19.13574z" fill="#000000" stroke="#000000" stroke-width="3" stroke-linecap="round"/><g fill="#000000" stroke="#000000"><g><path d="M286.3496,193.93588c0,0 4.01461,-12.4187 6.22883,-12.62176c6.64264,-0.60916 21.14733,2.12011 30.93224,3.3974c1.51265,0.19745 0.8521,12.26715 0.8521,12.26715l-2.68939,27.1597c0,0 -1.93312,13.18315 -3.58327,12.96774c-14.68934,-1.91751 -32.03014,-3.41529 -38.45529,-5.00935c-2.1417,-0.53135 0.9676,-14.27935 0.9676,-14.27935z" data-paper-data="{&quot;origPos&quot;:null}" stroke-width="3.5" stroke-linecap="round"/><path d="M303.80285,203.57849c-1.27795,-0.16683 -0.91645,-2.35395 -0.91645,-2.35395c0.74979,-4.53626 1.74059,-10.53058 2.49038,-15.06684c0,0 0.36151,-2.18712 1.63946,-2.0203c1.27795,0.16683 0.91646,2.35394 0.91646,2.35394c-0.74979,4.53626 -1.49958,9.0725 -2.24938,13.60876l-0.24101,1.45808c0,0 -0.36151,2.18713 -1.63947,2.02031z" stroke-width="0.5" stroke-linecap="butt"/><path d="M314.75504,210.69686c-1.27795,-0.16683 -0.8238,-2.91446 -0.8238,-2.91446c0.94194,-5.69882 2.18667,-13.22939 3.12862,-18.92819c0,0 0.45415,-2.74764 1.73212,-2.58082c1.27795,0.16683 0.8238,2.91446 0.8238,2.91446c-0.94194,5.69882 -1.88391,11.39763 -2.82585,17.09645l-0.30276,1.83176c0,0 -0.45415,2.74765 -1.73212,2.58083z" stroke-width="0.5" stroke-linecap="butt"/></g><g stroke-width="3"><path d="M320.62678,188.85715c-0.62137,-1.30097 0.45959,-2.2553 1.84657,-3.16831c1.38699,-0.91298 2.65542,-1.08148 3.17617,-0.13794c1.1041,2.00058 -0.51119,2.66595 -1.59724,3.38084c-1.387,0.91299 -2.54797,1.76273 -3.4255,-0.07458z" stroke-linecap="butt"/><path d="M318.75784,190.34557l2.92863,-1.8807" stroke-linecap="round"/><path d="M315.15752,190.44088c1.38699,-0.91298 2.65543,-1.08147 3.17617,-0.13794c1.1041,2.00058 -0.51119,2.66595 -1.59724,3.38084c-1.38698,0.91299 -2.54795,1.76272 -3.4255,-0.07459c-0.62137,-1.30097 0.45958,-2.25532 1.84657,-3.16832z" stroke-linecap="butt"/><path d="M311.442,195.09762l2.92861,-1.88072" stroke-linecap="round"/><path d="M305.94513,193.97383c0.63403,-1.38589 1.93541,-1.07713 3.37241,-0.47743c1.437,0.59971 2.25314,1.58357 1.83144,2.64914c-0.89413,2.25931 -2.27033,1.3009 -3.39552,0.83132c-1.43699,-0.5997 -2.70372,-1.04579 -1.8083,-3.00302z" stroke-linecap="butt"/><path d="M303.81586,193.3344l2.99903,1.29704" stroke-linecap="round"/><path d="M299.45777,189.19662c1.07488,-1.04239 2.12282,-0.1986 3.18493,0.97794c1.06212,1.17653 1.42908,2.45335 0.66137,3.2827c-1.62778,1.75846 -2.50388,0.26831 -3.33557,-0.65294c-1.06212,-1.17654 -2.02871,-2.13558 -0.51074,-3.60769z" stroke-linecap="butt"/><path d="M299.99242,190.18747l-2.19996,-2.49844" stroke-linecap="round"/><path d="M293.9132,182.97161c1.07487,-1.04237 2.12281,-0.1986 3.18493,0.97794c1.06213,1.17654 1.42908,2.45335 0.66137,3.2827c-1.62778,1.75845 -2.50388,0.26831 -3.33557,-0.65294c-1.06212,-1.17653 -2.0287,-2.13557 -0.51072,-3.60768z" stroke-linecap="butt"/><path d="M292.24791,181.46402l2.19997,2.49844" stroke-linecap="round"/></g></g><g fill="#000000" stroke="#000000"><g data-paper-data="{&quot;index&quot;:null}" stroke-width="2.5" stroke-linecap="round"><path d="M289.34319,150.75442c1.52,-4.41717 4.55194,-5.42523 4.55194,-5.42523c0,0 2.75043,-1.50356 4.34951,-1.39342c4.7973,0.33049 18.43757,1.91506 30.06151,4.36892c0.38794,0.0819 0.60299,0.142 0.98539,0.24684c1.14711,0.31458 5.57508,1.73244 5.57508,1.73244c0,0 1.30406,3.5209 1.56896,5.3778c0.79472,5.57066 -2.47018,19.06618 -4.71492,33.42807c-0.20344,1.30173 -2.22714,3.32244 -2.22714,3.32244c0,0 -3.45158,1.18758 -5.4997,0.8789c-13.24147,-1.99555 -27.88488,-4.25222 -31.20505,-4.98792c-1.10672,-0.2452 -3.58983,-1.07114 -5.20785,-2.69534c-1.61805,-1.6242 -3.00081,-3.44449 -2.7839,-5.32695c0.2169,-1.8825 2.88302,-24.69343 4.54618,-29.52655z"/><path d="M291.38361,135.17392c1.52,-4.41717 4.55191,-5.4252 4.55191,-5.4252c0,0 2.75043,-1.50355 4.34956,-1.39338c4.79733,0.33049 18.43756,1.91503 30.0615,4.36892c0.38794,0.08187 0.603,0.142 0.9854,0.24684c1.14711,0.31458 5.57508,1.73244 5.57508,1.73244c0,0 1.30406,3.5209 1.56896,5.3778c0.79472,5.57066 -2.47019,19.06618 -4.71489,33.42808c-0.20344,1.30173 -2.22711,3.32241 -2.22711,3.32241c0,0 -3.45158,1.18761 -5.49971,0.87894c-13.24147,-1.99555 -27.88487,-4.25222 -31.20505,-4.98792c-1.10672,-0.24525 -3.58983,-1.07114 -5.20786,-2.69538c-1.61805,-1.6242 -3.00081,-3.44446 -2.78393,-5.32695c0.21688,-1.88246 2.88304,-24.69343 4.54618,-29.52658z"/></g><path d="M299.38896,170.96931c4.77099,-2.31554 8.96332,0.01604 10.42068,4.8564c1.67142,5.55132 -2.26092,8.55072 -2.26092,8.55072c0,0 -2.519,-1.16003 -5.75196,-1.64508c-4.02555,-0.60396 -6.2593,-0.21563 -6.2593,-0.21563c0,0 -2.62086,-8.40512 3.8515,-11.54641z" stroke-width="2" stroke-linecap="butt"/><path d="M325.89216,174.56342c5.892,4.12836 1.97084,12.01121 1.97084,12.01121c0,0 -2.14384,-0.73779 -6.21423,-0.78015c-3.26898,-0.03403 -5.94011,0.71168 -5.94011,0.71168c0,0 -3.40666,-3.58529 -0.87568,-8.80113c2.20683,-4.54783 6.71598,-6.18476 11.05917,-3.14162z" data-paper-data="{&quot;index&quot;:null}" stroke-width="2" stroke-linecap="butt"/></g><g data-paper-data="{&quot;index&quot;:null}" fill="#000000" stroke="#000000"><g><path d="M335.59924,194.35092c0,0 8.15694,21.16514 4.07038,32.71476c-1.23148,3.48042 -11.64855,8.62876 -12.59357,8.84681c-4.081,0.94165 -21.01506,-15.58004 -21.01506,-15.58004c0,0 -7.9541,-7.07235 -10.04168,-11.13283c9.66526,-13.69564 19.10092,-16.66461 19.10092,-16.66461c1.45065,-1.39726 5.5483,4.53356 5.5483,4.53356l12.6983,16.53225l-1.96441,-2.4632c0,0 -11.38156,-14.69165 -9.15961,-14.76865c2.04439,-0.07086 13.73768,-4.84825 13.35642,-2.01806z" stroke-width="2.5" stroke-linecap="round"/><path d="M329.99681,210.31654c-1.07605,1.11849 -2.32057,2.13437 -3.56442,2.98756c-3.19027,2.75398 -6.72646,5.71639 -10.23837,8.08633c-1.00185,0.67608 -1.97392,1.37153 -2.95526,2.07815c-0.33044,0.23793 -1.22246,0.65517 -1.53286,0.79505c1.16923,0.65179 2.25835,1.9395 3.5187,2.35124c0.14822,0.04844 0.40263,-0.04099 0.70049,-0.20011c0.80778,-0.77027 1.74284,-1.44941 2.14981,-1.81169c4.31507,-4.40096 9.42205,-7.79624 13.93589,-11.94016c-0.22099,-0.48745 -1.05229,-1.25807 -1.11848,-1.33266c-0.29994,-0.33794 -0.60032,-0.67407 -0.89552,-1.01372zM329.1394,209.29037c-0.31642,-0.39866 -0.61904,-0.80868 -0.89963,-1.23785c0,0 -0.17417,-0.267 -0.09678,-0.55205c-1.88124,-2.23581 -3.61262,-4.63926 -5.08363,-6.90439c-0.80012,-0.92367 -1.98484,-2.09428 -1.23545,-3.39544c0.53926,-0.93628 2.47817,-1.54809 3.44216,-1.81753c3.09249,-0.86433 6.22433,-1.66392 9.32271,-2.45344c1.93819,0.5916 1.66037,2.42255 2.00365,4.20073c0.74793,3.87436 1.60799,7.71713 2.35104,11.59381c0.90125,2.6664 0.94776,5.31535 1.5247,8.01626c0.79904,3.74072 1.33719,6.73486 0.2103,10.48662c-3.18079,4.12064 -9.94835,8.58486 -15.40873,7.74881c-3.42415,0.42197 -6.01829,-2.38476 -8.48103,-4.34078c-0.4128,-0.32786 -2.09302,-1.27117 -2.22236,-1.73153c-0.09188,-0.32705 -0.00908,-0.6856 0.18425,-1.05354c-1.3818,-0.45716 -2.63304,-1.83055 -3.86903,-2.53914c-1.25127,-1.92607 1.62608,-3.02863 3.24403,-4.16121c3.92674,-2.74876 7.89857,-5.76827 11.49237,-8.89967c1.22539,-0.84053 2.47026,-1.84674 3.52142,-2.9596zM317.82949,226.63999c-0.90803,0.8415 -2.0093,1.87232 -1.9837,1.89285c2.41297,1.93471 6.09968,5.47217 9.44899,5.11125c5.04303,0.77214 11.14443,-3.33774 14.20025,-7.02846c0.95493,-3.43671 0.3945,-6.169 -0.32846,-9.59179c-0.56802,-2.6892 -0.61735,-5.30622 -1.511,-7.9594c-0.7614,-3.90306 -1.61416,-7.77694 -2.37057,-11.67902c-0.10461,-0.53965 -0.3368,-3.15414 -0.67474,-3.12384c-3.13929,1.01742 -6.48754,1.42772 -9.58596,2.56885c-0.25448,0.09373 -2.31671,0.97616 -2.16514,1.31913c0.24641,0.55763 0.86155,1.18114 1.26373,1.64445c2.96323,4.52485 7.67026,8.01126 10.27216,12.65197c-0.25665,0.61827 -0.6088,1.2296 -1.10943,1.674l-0.4225,0.53668c0,0 -0.06849,0.08626 -0.18487,0.16078c-1.45999,2.1798 -4.75564,3.96484 -6.51442,5.11189c-2.9442,2.00552 -5.244,4.73625 -8.28773,6.68042c-0.01533,0.0098 -0.03087,0.01988 -0.04661,0.03024z" stroke-width="0.5" stroke-linecap="butt"/><path d="M326.46015,213.26949c1.24386,-0.85318 2.491,-1.86678 3.56705,-2.98527c0.2952,0.33966 0.59914,0.67953 0.89909,1.01747c0.06619,0.07457 0.90136,0.85057 1.12234,1.338c-4.51385,4.14392 -9.68362,7.59918 -13.9987,12.00013c-0.40696,0.36227 -1.34481,1.03937 -2.15259,1.80964c-0.29786,0.15911 -0.55366,0.24737 -0.70189,0.19895c-1.26035,-0.41176 -2.35958,-1.71219 -3.52881,-2.36398c0.31039,-0.13987 1.20244,-0.55707 1.53288,-0.79501c0.98135,-0.70662 1.95203,-1.4049 2.95389,-2.08099c3.5119,-2.36994 7.11646,-5.38497 10.30673,-8.13896z" data-paper-data="{&quot;noHover&quot;:false,&quot;origItem&quot;:[&quot;Path&quot;,{&quot;applyMatrix&quot;:true,&quot;segments&quot;:[[[926.17844,407.1979],[3.2606,1.25965],[-0.27949,0.97418]],[[925.31465,410.11917],[0.29084,-0.97519],[-0.06418,0.21521]],[[924.29914,413.90358],[-0.01258,-1.20526],[13.15638,4.16543]],[[964.1057,425.02121],[-12.99513,-4.87922],[1.17537,0.35239]],[[970.21765,426.67451],[-2.3817,-0.804],[0.75941,0.04146]],[[971.83798,426.41666],[-0.25651,0.23985],[2.18115,-2.03947]],[[976.78433,418.26967],[-1.76682,2.44279],[-0.76669,0.00973]],[[972.89889,418.10481],[0.90089,0.17138],[-2.67549,-0.50896]],[[964.88923,416.67374],[2.68829,0.42712],[-9.42353,-1.49721]],[[936.29671,409.90591],[9.13228,2.58714],[-3.35077,-0.55846]]],&quot;closed&quot;:true}]}" stroke-width="0.5" stroke-linecap="butt"/><path d="M331.75348,214.64301c0.03481,0.04298 0.16583,0.07507 0.21806,0.11654c0.52161,0.41415 0.84744,-0.09822 0.84744,-0.09822l0.42297,-0.53328c0.50063,-0.44441 0.85501,-1.04784 1.11165,-1.66611c-2.60192,-4.6407 -7.25918,-8.09948 -10.22241,-12.62433c-0.40218,-0.46331 -1.03621,-1.17355 -1.28264,-1.7312c-0.15156,-0.34297 1.91637,-1.2264 2.17086,-1.32013c3.09842,-1.14114 6.46657,-1.54909 9.60585,-2.56651c0.33792,-0.0303 0.57365,2.58563 0.67826,3.12528c0.75641,3.90208 1.62896,7.79387 2.39035,11.69692c0.89366,2.65317 0.94863,5.29903 1.51664,7.98823c0.72296,3.42279 1.27224,6.17865 0.3173,9.61536c-3.05582,3.69072 -9.19427,7.81484 -14.23731,7.04271c-3.34931,0.36095 -7.06041,-3.18682 -9.47341,-5.12154c-0.04233,-0.03393 3.05343,-2.89997 3.20402,-3.03411c3.96116,-4.03356 8.50608,-7.19404 12.73234,-10.88962z" data-paper-data="{&quot;noHover&quot;:false,&quot;origItem&quot;:[&quot;Path&quot;,{&quot;applyMatrix&quot;:true,&quot;segments&quot;:[[[926.61254,417.73069],[12.14285,3.5238],[-0.03018,0.12086]],[[926.46822,418.11346],[0.06716,-0.13431],[-0.67082,1.34164]],[924.45576,418.78428],[[923.08279,418.0906],[0,0],[-1.44471,-0.43097]],[[919.22563,415.72869],[1.11205,1.01797],[0.89694,-11.9485]],[[928.15956,380.1298],[-1.74473,12.05571],[0.38029,-1.32836]],[[929.175,375.57071],[0.02742,1.37277],[-0.01686,-0.84429]],[[923.5003,374.93752],[0.60865,-0.05075],[-7.41054,0.61792]],[[901.48814,378.8123],[7.37628,-0.90935],[-0.71866,0.25961]],[[903.08234,385.83106],[-0.2998,-1.20115],[2.16779,8.68513]],[[909.35292,411.92731],[-2.15853,-8.69186],[0.69956,6.26621]],[[913.83986,429.61277],[-1.39861,-6.02998],[1.78014,7.67491]],[[922.29365,449.50563],[-5.21858,-6.1072],[9.74892,4.62723]],[[957.96755,450.34516],[-9.56021,6.37347],[7.18055,-2.44927]],[[972.39433,430.92276],[-3.08539,6.24485],[0.05411,-0.10951]],[[963.14745,427.86406],[0.43501,0.13058],[-11.92317,-4.46591]]],&quot;closed&quot;:true}]}" stroke-width="0.5" stroke-linecap="butt"/></g><g data-paper-data="{&quot;index&quot;:null}" stroke-width="2" stroke-linecap="round"><path d="M330.57701,210.19206c-0.23001,-0.67605 -0.6235,-1.445 -1.20927,-2.45564c4.57667,-3.25635 7.63802,-6.25346 7.63802,-6.25346l-0.37777,-1.61861c0,0 2.66188,-0.92256 3.2714,0.75463c0.66482,1.82938 -3.90468,5.92936 -9.32238,9.57309z"/><path d="M342.53207,212.20136c0.34632,1.77225 -5.33724,1.57614 -11.81294,0.43235c0.18173,-0.8833 0.15024,-1.6037 -0.15729,-2.4858c5.2418,0.9455 8.65186,0.99538 8.65186,0.99538l-0.24278,-1.19843c0,0 3.08314,-0.18967 3.56116,2.25653z" data-paper-data="{&quot;index&quot;:null}"/></g></g><g data-paper-data="{&quot;index&quot;:null}" fill="#000000" stroke="#000000"><path d="M279.01992,184.30102c0.61341,-2.92377 10.47269,5.87409 12.46364,6.65859c2.16386,0.85262 -14.19362,11.35968 -14.19362,11.35968l-2.79789,1.74196l18.29916,-11.86156c0,0 6.11334,-4.41527 7.05521,-2.53052c0,0 8.26549,6.22563 13.00775,23.10772c-3.47767,3.27379 -13.79239,7.46651 -13.79239,7.46651c0,0 -22.47184,10.37049 -26.16642,8.01551c-0.85553,-0.54534 -9.32685,-9.26283 -9.32444,-13.1249c0.00801,-12.81608 15.44899,-30.83303 15.44899,-30.83303z" stroke-width="2.5" stroke-linecap="round"/><path d="M278.96287,202.00109c-0.40979,0.23171 -0.82345,0.45812 -1.23733,0.68647c-0.09134,0.0504 -1.18035,0.51962 -1.56862,0.92299c3.00198,5.66365 6.85047,10.79649 9.56663,16.64408c0.27461,0.49945 0.95917,1.49594 1.48636,2.53777c0.23807,0.261 0.45764,0.4381 0.62072,0.44215c1.38661,0.03458 2.91058,-0.85435 4.29124,-1.08827c-0.25715,-0.24641 -0.9908,-0.96961 -1.23344,-1.31973c-0.72058,-1.03975 -1.43591,-2.06523 -2.18738,-3.08204c-2.6342,-3.56432 -5.08527,-7.72127 -7.2681,-11.55181c-0.92815,-1.27602 -1.80011,-2.71267 -2.47009,-4.19163zM280.16692,201.28904c0.6474,1.46471 1.52309,2.89194 2.43747,4.14904c2.44879,4.34373 5.30942,8.70927 8.22022,12.79209c1.19935,1.68225 3.65092,3.77516 1.74395,5.23681c-1.46634,0.2666 -3.18011,1.18333 -4.70234,1.15106c0.062,0.43038 0.0183,0.81285 -0.18662,1.10318c-0.28844,0.4087 -2.27484,0.75145 -2.79646,0.9304c-3.11194,1.06773 -6.6508,2.92827 -9.87942,1.3153c-5.67604,-1.0844 -10.78817,-7.85164 -12.48394,-13.02637c0.20038,-4.09305 1.77759,-6.85709 3.87303,-10.26601c1.51297,-2.46135 2.4848,-5.05689 4.30545,-7.37084c2.08774,-3.56258 4.27901,-7.05078 6.37077,-10.60936c0.96004,-1.63324 1.32615,-3.53564 3.44394,-3.44142c2.77893,1.86152 5.58734,3.74464 8.33432,5.67786c0.85629,0.60263 2.55414,1.88362 2.75855,2.99526c0.28406,1.54487 -1.29324,2.28492 -2.40503,2.91595c-2.24215,1.71916 -4.78941,3.48367 -7.42579,5.03051c-0.02336,0.30809 -0.2884,0.51048 -0.2884,0.51048c-0.42669,0.32508 -0.86837,0.62358 -1.31972,0.90603zM285.2181,222.30265c-2.32146,-2.98086 -3.63444,-6.47721 -5.8363,-9.48375c-1.33314,-1.74575 -3.9586,-4.65777 -4.63613,-7.31735c-0.0887,-0.11415 -0.12608,-0.22316 -0.12608,-0.22316l-0.22896,-0.67685c-0.33825,-0.61317 -0.47176,-1.33903 -0.50869,-2.03833c4.18761,-3.6661 10.0473,-5.45823 14.55066,-8.88379c0.55848,-0.31622 1.38294,-0.71595 1.82085,-1.17963c0.26933,-0.28518 -1.45553,-1.8761 -1.67367,-2.05747c-2.65607,-2.20821 -5.81394,-3.78315 -8.55354,-5.88367c-0.32261,-0.148 -1.46545,2.34864 -1.75724,2.84415c-2.10981,3.58293 -4.30476,7.10438 -6.41982,10.68653c-1.80857,2.30356 -2.77202,4.86664 -4.27209,7.31956c-1.90928,3.12207 -3.41695,5.62011 -3.67674,9.34243c1.72285,4.70714 6.30202,10.89217 11.54421,11.89369c3.17617,1.52666 8.04771,-0.67248 11.10313,-1.73657c0.03239,-0.01128 -0.69307,-1.41261 -1.29421,-2.55971c-0.0119,-0.01571 -0.02368,-0.03109 -0.03538,-0.0461z" stroke-width="0.5" stroke-linecap="butt"/><path d="M281.41769,206.14886c2.18285,3.83055 4.68292,8.06328 7.31712,11.6276c0.75149,1.01682 1.46447,2.0446 2.18503,3.08435c0.24264,0.35011 0.97633,1.07326 1.23348,1.31967c-1.38068,0.23393 -2.91906,1.13188 -4.30566,1.0973c-0.16308,-0.00407 -0.38442,-0.18051 -0.6225,-0.44152c-0.52719,-1.04184 -1.2152,-2.03727 -1.48982,-2.53671c-2.71617,-5.84759 -6.60562,-11.06152 -9.6076,-16.72516c0.38826,-0.40335 1.48298,-0.87651 1.57431,-0.92692c0.41387,-0.22836 0.83236,-0.4572 1.24213,-0.68892c0.66998,1.47895 1.54532,2.91427 2.47349,4.1903z" data-paper-data="{&quot;noHover&quot;:false,&quot;origItem&quot;:[&quot;Path&quot;,{&quot;applyMatrix&quot;:true,&quot;segments&quot;:[[[926.17844,407.1979],[3.2606,1.25965],[-0.27949,0.97418]],[[925.31465,410.11917],[0.29084,-0.97519],[-0.06418,0.21521]],[[924.29914,413.90358],[-0.01258,-1.20526],[13.15638,4.16543]],[[964.1057,425.02121],[-12.99513,-4.87922],[1.17537,0.35239]],[[970.21765,426.67451],[-2.3817,-0.804],[0.75941,0.04146]],[[971.83798,426.41666],[-0.25651,0.23985],[2.18115,-2.03947]],[[976.78433,418.26967],[-1.76682,2.44279],[-0.76669,0.00973]],[[972.89889,418.10481],[0.90089,0.17138],[-2.67549,-0.50896]],[[964.88923,416.67374],[2.68829,0.42712],[-9.42353,-1.49721]],[[936.29671,409.90591],[9.13228,2.58714],[-3.35077,-0.55846]]],&quot;closed&quot;:true}]}" stroke-width="0.5" stroke-linecap="butt"/><path d="M284.46566,220.84035c0.10159,0.1849 2.15206,4.09287 2.09847,4.11154c-3.05544,1.0641 -7.95463,3.26483 -11.13079,1.73819c-5.2422,-1.00154 -9.85293,-7.21356 -11.57577,-11.92069c0.2598,-3.7223 1.76469,-6.24751 3.67398,-9.36956c1.50008,-2.45292 2.47915,-5.04246 4.28772,-7.34602c2.11505,-3.58215 4.33578,-7.11434 6.44557,-10.69728c0.29178,-0.4955 1.43862,-2.99234 1.76122,-2.84434c2.7396,2.10051 5.91789,3.68011 8.57395,5.88831c0.21815,0.18138 1.94826,1.77529 1.67894,2.06045c-0.4379,0.46368 -1.31133,0.94234 -1.8698,1.25856c-4.50336,3.42555 -10.30434,5.20782 -14.49195,8.87391c0.03693,0.6993 0.17542,1.41814 0.51367,2.03132l0.23064,0.67365c0,0 0.14215,0.61908 0.80122,0.39307c0.06599,-0.02261 0.20639,-0.00846 0.25575,-0.03867c2.87515,5.12108 6.25155,9.82592 8.74719,15.18756z" data-paper-data="{&quot;noHover&quot;:false,&quot;origItem&quot;:[&quot;Path&quot;,{&quot;applyMatrix&quot;:true,&quot;segments&quot;:[[[926.61254,417.73069],[12.14285,3.5238],[-0.03018,0.12086]],[[926.46822,418.11346],[0.06716,-0.13431],[-0.67082,1.34164]],[924.45576,418.78428],[[923.08279,418.0906],[0,0],[-1.44471,-0.43097]],[[919.22563,415.72869],[1.11205,1.01797],[0.89694,-11.9485]],[[928.15956,380.1298],[-1.74473,12.05571],[0.38029,-1.32836]],[[929.175,375.57071],[0.02742,1.37277],[-0.01686,-0.84429]],[[923.5003,374.93752],[0.60865,-0.05075],[-7.41054,0.61792]],[[901.48814,378.8123],[7.37628,-0.90935],[-0.71866,0.25961]],[[903.08234,385.83106],[-0.2998,-1.20115],[2.16779,8.68513]],[[909.35292,411.92731],[-2.15853,-8.69186],[0.69956,6.26621]],[[913.83986,429.61277],[-1.39861,-6.02998],[1.78014,7.67491]],[[922.29365,449.50563],[-5.21858,-6.1072],[9.74892,4.62723]],[[957.96755,450.34516],[-9.56021,6.37347],[7.18055,-2.44927]],[[972.39433,430.92276],[-3.08539,6.24485],[0.05411,-0.10951]],[[963.14745,427.86406],[0.43501,0.13058],[-11.92317,-4.46591]]],&quot;closed&quot;:true}]}" stroke-width="0.5" stroke-linecap="butt"/></g><g data-paper-data="{&quot;index&quot;:null}" fill="#000000" stroke="#000000" stroke-width="1" stroke-linecap="butt"><g data-paper-data="{&quot;index&quot;:null}"><path d="M294.84603,186.91205c-6.45913,-1.4683 -3.53619,-3.43041 -3.53619,-3.43041l8.11548,1.73609c0,0 1.49996,3.01701 -4.57927,1.69435z"/></g><g data-paper-data="{&quot;index&quot;:null}"><path d="M294.84604,186.91208c-6.45913,-1.4683 -3.53619,-3.43041 -3.53619,-3.43041c0,0 5.49039,1.1745 6.86053,1.46761c0.00187,0.00042 -0.56644,0.52935 -0.69131,1.15305c-0.10228,0.51082 0.23617,1.13911 0.22386,1.13964c-0.68696,0.02964 -1.61336,-0.05934 -2.85687,-0.32988z"/></g></g><path d="M297.8145,266.92954c0.92856,0.12776 3.98329,5.00662 4.63979,5.67563c2.7161,2.76788 -0.1416,-1.2719 -0.68996,1.04249c-0.04248,0.17931 -2.39149,-0.60473 -2.38814,-0.3622c0.02154,1.55931 -3.50418,-1.11602 -3.98374,-0.03264c-1.73556,3.92091 -8.20633,1.01089 -11.7185,0.57754l-1.83294,-1.08649c0,0 -0.01415,-0.01061 -0.03853,-0.03112c-3.16788,1.35269 -8.08616,-0.37246 -11.41147,-0.36888c-4.81052,0 -9.36594,-0.64811 -14.12406,-1.0044c-5.34433,-0.40019 -12.01696,0.92386 -17.11048,-1.40721c-1.28269,-0.58703 -4.66641,-0.02168 -5.93516,-0.63826c-1.11563,-0.54216 -0.89981,0.8812 -2.02385,0.3567c-0.95024,-0.44339 -4.15825,0.38276 -4.98737,-0.2592c0.15286,-1.17627 -3.82061,-0.01304 -3.20809,-1.02881c0.69137,-1.14653 9.71896,-6.04566 10.65157,-7.00626c0.48011,-0.49453 2.36251,-0.49131 2.716,-0.70445c1.23584,-0.74516 0.61835,-1.89395 4.0875,-1.80687c2.33691,0.05866 3.41944,-3.43686 5.85593,-3.8174c1.28362,-0.20048 3.24733,-0.18899 4.52793,-0.40793c3.42955,-0.58635 7.04312,-0.73477 10.54895,-0.47954c0.01519,-0.35425 0.03686,-0.71089 0.00113,-1.04637v-0.25c0,0 0,-1.33886 1.17107,-1.67443c0.56342,-0.5226 1.20707,-0.99823 1.37229,-1.71268c0.18126,-0.78383 -0.45683,-1.79354 0.05665,-2.41289c0.45886,-0.55347 5.26136,-1.7396 6.09402,-1.6965c0.48929,0.02533 2.99556,0.58852 3.80598,0.57984c1.329,-0.01424 3.03628,-0.27432 4.36069,-0.16317c2.02568,0.17001 3.06657,0.63035 4.60381,1.43894c2.81942,1.48304 5.32517,-0.38133 6.93097,3.54514c0.3268,0.79908 0.05841,1.72565 0.08761,2.58847c-0.46868,1.67955 -1.28401,2.83409 -2.03156,4.10195c1.44139,-0.65381 2.40566,3.87335 4.47196,4.15764z" fill="#000000" stroke="#000000" stroke-width="0.5" stroke-linecap="butt"/><path d="M277.07527,225.85053l-0.15103,-0.13796c0.8639,-1.97518 2.18834,-3.11797 3.24444,-4.94072c0.72582,-1.2527 0.63292,-2.22245 1.51387,-3.47743c0.54699,-0.77921 1.52701,-1.32698 1.75871,-2.25039c0.58294,-2.32324 -1.15717,-3.53261 -0.12255,-6.13113c0.43509,-1.09278 1.95444,-1.45176 2.49259,-2.49766c0.49209,-0.95641 -0.85067,-3.88557 -0.79495,-4.9749c0.21281,-4.16045 2.46493,-6.32652 5.69196,-8.44354c3.26791,-2.14383 7.23138,-5.87972 11.49348,-3.86875c1.95736,0.92355 3.04955,3.2488 4.16919,4.95547c2.37599,3.62182 4.919,7.90739 6.58972,11.92819c0.71469,1.72 1.64254,4.99293 0.8324,6.79999c-0.48098,1.07287 -2.43779,2.21724 -3.42166,2.866c-5.59653,3.65691 -12.92194,6.57144 -19.3467,8.40506c-3.45247,0.98532 -6.51885,1.42827 -9.5653,2.93961c-0.3472,1.29103 -1.78732,1.20034 -1.78732,1.20034l-0.11773,-0.10754c-0.31403,0.17213 -1.51741,0.71427 -2.34588,-0.54863c-0.46344,-0.70645 -0.36207,-1.29561 -0.13323,-1.71601z" data-paper-data="{&quot;index&quot;:null}" fill="#000000" stroke="#000000" stroke-width="0.5" stroke-linecap="butt"/></g></g></svg>