<svg version="1.1" xmlns="http://www.w3.org/2000/svg" xmlns:xlink="http://www.w3.org/1999/xlink" width="267.42642" height="257.0021" viewBox="0,0,267.42642,257.0021"><g transform="translate(-106.28679,-54.50196)"><g data-paper-data="{&quot;isPaintingLayer&quot;:true}" fill-rule="nonzero" stroke-linejoin="miter" stroke-miterlimit="10" stroke-dasharray="" stroke-dashoffset="0" style="mix-blend-mode: normal"><path d="M373.71321,311.1602l-267.27562,0.34386l-0.1508,-256.65825l267.27563,-0.34385z" fill="none" stroke="none" stroke-width="NaN" stroke-linecap="butt"/><path d="M294.35455,114.91667v7.96783h-10.552v-7.96783z" data-paper-data="{&quot;index&quot;:null}" fill="#582700" stroke="none" stroke-width="0" stroke-linecap="butt"/><path d="M279.06492,109.10231v4.52228h-5.81436v-4.52228z" data-paper-data="{&quot;index&quot;:null}" fill="#582700" stroke="none" stroke-width="0" stroke-linecap="butt"/><g data-paper-data="{&quot;index&quot;:null}" stroke="#000000" stroke-linecap="round"><path d="M255.5489,154.58222c0,0 15.59898,-1.6398 15.58135,5.1613c-0.04783,18.45955 -27.17676,12.38713 -27.17676,12.38713z" data-paper-data="{&quot;origPos&quot;:null}" fill="#66c8ff" stroke-width="2"/><path d="M254.82423,156.13063c0,0 11.32201,-0.57834 11.95778,1.41935c0.20051,0.63006 -15.09821,2.58065 -15.09821,2.58065z" data-paper-data="{&quot;origPos&quot;:null}" fill="#0a0a0a" stroke-width="1"/></g><g data-paper-data="{&quot;index&quot;:null}"><g data-paper-data="{&quot;origRot&quot;:0,&quot;index&quot;:null}" stroke="#000000" stroke-width="3" stroke-linecap="round"><path d="M224.82235,214.25678c0,0 -24.23574,-1.40636 -24.29355,-4.02917c-0.10423,-4.7291 2.46792,-15.30799 2.46792,-15.30799l7.73999,-29.77522c0,0 1.54934,-5.6289 2.63037,-5.88878c3.24308,-0.7796 9.20212,1.36849 15.5201,2.21324c1.05017,0.14044 0.87991,6.22005 0.87991,6.22005c0,0 -0.66302,9.55287 -1.08739,15.6672c-0.64629,9.31152 -1.65597,23.85957 -1.65597,23.85957c0,0 -0.28824,7.46242 -2.2014,7.0411z" data-paper-data="{&quot;origPos&quot;:null}" fill="#582700"/><path d="M202.28239,202.69761l23.65147,4.08302" fill="none"/><path d="M226.6687,203.45065l-23.61507,-4.32364" data-paper-data="{&quot;origPos&quot;:null}" fill="none"/></g><path d="M202.90675,198.39123l9.81366,-37.7253l1.31947,-0.48421l14.99858,2.63921l-2.23018,39.72494z" fill="#66c8ff" stroke="#000000" stroke-width="1" stroke-linecap="round"/><path d="M202.2797,202.52647l0.36472,-2.36129l24.18001,4.26204l-0.3647,2.36128z" fill="#ffffff" stroke="none" stroke-width="0" stroke-linecap="butt"/></g><g data-paper-data="{&quot;index&quot;:null,&quot;origRot&quot;:0}" stroke="#000000" stroke-linecap="round"><path d="M234.82287,262.92142c0,0 0.59669,4.55676 -0.32797,6.76993c-0.70786,1.69428 -2.4947,2.19264 -4.19902,2.54962c-4.67817,0.97985 -9.21298,-0.75656 -16.61662,-1.20475c-2.01643,-0.12207 -2.98487,-3.35853 -2.74028,-5.50019c0.22877,-2.00309 0.74133,-5.47012 0.74133,-5.47012l4.55336,-33.63999c0,0 0.72261,-4.33472 2.42353,-5.0183c4.09613,-1.64617 8.31651,0.09407 12.69292,0.09494c1.48311,0.00032 1.34418,4.92668 1.34418,4.92668z" data-paper-data="{&quot;origPos&quot;:null}" fill="#ff0000" stroke-width="3"/><path d="M211.5494,261.1737l22.37421,1.44132c0,0 0.96193,2.62124 0.82962,4.34874c-0.12559,1.63989 -1.49044,4.2798 -1.49044,4.2798c0,0 -8.14696,0.82491 -11.89653,0.7206c-4.88709,-0.13595 -10.52581,-2.9878 -10.52581,-2.9878z" data-paper-data="{&quot;origPos&quot;:null}" fill="#976e57" stroke-width="2.5"/><path d="M234.73664,263.24855c0,0 0.59669,4.55676 -0.32797,6.76993c-0.70786,1.69428 -2.49469,2.19265 -4.19902,2.54963c-4.67817,0.97985 -9.21298,-0.75656 -16.61662,-1.20475c-2.01643,-0.12208 -2.98487,-3.35853 -2.74028,-5.5002c0.22877,-2.00309 0.74133,-5.47012 0.74133,-5.47012l4.55336,-33.63998c0,0 0.7226,-4.33472 2.42353,-5.01831c4.09613,-1.64617 8.31652,0.09407 12.69292,0.09494c1.48309,0.0003 1.34416,4.92666 1.34416,4.92666c0,0 0.53824,9.22734 0.88274,15.13334c0.48624,8.33558 1.24587,21.3589 1.24587,21.3589z" data-paper-data="{&quot;origPos&quot;:null}" fill="#4b4b4b" stroke-width="1.5"/></g><g data-paper-data="{&quot;index&quot;:null,&quot;origRot&quot;:0}" stroke="#000000" stroke-linecap="round"><path d="M236.73851,226.82041c0,0 -0.34132,-4.91509 1.14034,-4.98498c4.37214,-0.20619 8.51692,-2.14276 12.67676,-0.69033c1.72739,0.60313 2.62749,4.89976 2.62749,4.89976l5.93189,33.39392c0,0 0.65459,3.43965 0.96548,5.43007c0.3324,2.12813 -0.50205,5.40689 -2.51152,5.62344c-7.37808,0.7951 -11.83713,2.74259 -16.55107,1.98316c-1.71736,-0.27668 -3.52296,-0.69073 -4.29978,-2.35017c-1.01476,-2.16765 -0.60597,-6.74801 -0.60597,-6.74801z" data-paper-data="{&quot;origPos&quot;:null}" fill="#ff0000" stroke-width="3"/><path d="M260.32034,268.30127c0,0 -5.51604,3.11364 -10.39284,3.47873c-3.74167,0.28011 -11.91468,-0.16179 -11.91468,-0.16179c0,0 -1.47206,-2.57334 -1.66494,-4.20575c-0.20319,-1.71964 0.65005,-4.38347 0.65005,-4.38347l22.29337,-2.48962z" data-paper-data="{&quot;origPos&quot;:null}" fill="#976e57" stroke-width="2.5"/><path d="M236.21172,263.70006c0,0 0.22352,-13.04639 0.36662,-21.39675c0.10137,-5.91645 0.25977,-15.16015 0.25977,-15.16015c0,0 -0.34133,-4.91509 1.14032,-4.98496c4.37213,-0.20619 8.51692,-2.14276 12.67676,-0.69033c1.72739,0.60313 2.62749,4.89976 2.62749,4.89976l5.93189,33.39392c0,0 0.65459,3.43965 0.96548,5.43007c0.3324,2.12813 -0.50205,5.40689 -2.51152,5.62345c-7.37808,0.7951 -11.83713,2.74259 -16.55107,1.98316c-1.71736,-0.27668 -3.52296,-0.69075 -4.29978,-2.35018c-1.01476,-2.16765 -0.60597,-6.74801 -0.60597,-6.74801z" data-paper-data="{&quot;origPos&quot;:null}" fill="#4b4b4b" stroke-width="1.5"/></g><g><g><path d="M255.95409,205.66949c0,0 0.23691,16.19793 -1.89147,16.40201c-6.38516,0.61229 -23.06701,-0.92113 -37.32563,-1.4831c-1.60177,-0.06313 -0.83814,-15.39995 -0.83814,-15.39995l2.79534,-31.35543c0,0 1.74743,-13.83453 3.21574,-13.77667c9.49801,0.37433 23.74163,-0.02032 29.8994,1.91088c2.05259,0.64374 3.40624,15.50043 3.40624,15.50043z" data-paper-data="{&quot;origPos&quot;:null}" fill="#66c8ff" stroke="#000000" stroke-width="3.5" stroke-linecap="round"/><path d="M226.05129,184.39879c-1.24047,-0.04889 -1.15235,-2.60093 -1.15235,-2.60093c0.1828,-5.29311 0.42435,-12.28757 0.60716,-17.58068c0,0 0.08815,-2.55204 1.32862,-2.50315c1.24047,0.04889 1.15234,2.60093 1.15234,2.60093c-0.1828,5.29311 -0.36559,10.58621 -0.5484,15.87933l-0.05876,1.70135c0,0 -0.08814,2.55204 -1.32861,2.50315z" fill="#ffffff" stroke="none" stroke-width="0.5" stroke-linecap="butt"/><path d="M237.35135,191.35063c-1.24047,-0.04889 -1.12976,-3.25497 -1.12976,-3.25497c0.22965,-6.64963 0.53311,-15.43665 0.76276,-22.08629c0,0 0.11073,-3.20608 1.3512,-3.15718c1.24047,0.04889 1.12975,3.25497 1.12975,3.25497c-0.22965,6.64963 -0.45929,13.29927 -0.68894,19.94891l-0.07382,2.13738c0,0 -0.11072,3.20608 -1.35119,3.15718z" fill="#ffffff" stroke="none" stroke-width="0.5" stroke-linecap="butt"/></g><g fill="none" stroke="#b9b9b9" stroke-width="3"><path d="M247.9034,166.253c-0.74662,-1.42465 0.17382,-2.64129 1.39146,-3.84463c1.21765,-1.20332 2.4096,-1.53844 3.01805,-0.51303c1.29007,2.17417 -0.17481,3.11863 -1.12827,4.06086c-1.21767,1.20334 -2.22683,2.30878 -3.28124,0.29681z" stroke-linecap="butt"/><path d="M248.86959,165.68419l-2.57661,2.48677" stroke-linecap="round"/><path d="M242.86473,168.68239c1.21765,-1.20332 2.4096,-1.53844 3.01805,-0.51303c1.29007,2.17417 -0.17481,3.11863 -1.12827,4.06086c-1.21765,1.20333 -2.22682,2.30878 -3.28123,0.29681c-0.74662,-1.42465 0.17381,-2.64129 1.39145,-3.84465z" stroke-linecap="butt"/><path d="M239.86285,174.44499l2.57661,-2.48679" stroke-linecap="round"/><path d="M234.4794,173.76818c0.44272,-1.66234 1.72225,-1.45306 3.16558,-0.92481c1.44333,0.52826 2.33872,1.56699 2.06118,2.83777c-0.58847,2.6944 -2.0159,1.74743 -3.14606,1.33379c-1.44333,-0.52825 -2.70594,-0.8991 -2.0807,-3.24674z" stroke-linecap="butt"/><path d="M235.38765,174.42625l-3.01759,-1.15465" stroke-linecap="round"/><path d="M227.72002,169.00639c0.90427,-1.31708 2.00461,-0.46508 3.15765,0.76746c1.15305,1.23253 1.65377,2.65784 1.01789,3.69598c-1.34826,2.20113 -2.36046,0.58769 -3.26335,-0.37741c-1.15304,-1.23255 -2.18923,-2.22596 -0.9122,-4.086z" stroke-linecap="butt"/><path d="M228.34732,170.08458l-2.39552,-2.62355" stroke-linecap="round"/><path d="M221.69106,162.47671c0.90427,-1.31706 2.00462,-0.46508 3.15765,0.76746c1.15305,1.23253 1.65377,2.65784 1.01789,3.69598c-1.34826,2.20112 -2.36046,0.58769 -3.26334,-0.37741c-1.15304,-1.23253 -2.18923,-2.22595 -0.9122,-4.086z" stroke-linecap="butt"/><path d="M219.92285,160.93134l2.39554,2.62355" stroke-linecap="round"/></g></g><g fill="none" stroke="#b9b9b9" stroke-width="3"><path d="M243.31034,165.68887c-0.54023,-1.39427 0.05607,-2.64634 0.85445,-3.89682c0.79838,-1.25046 1.59968,-1.6323 2.03676,-0.63155c0.92673,2.12188 -0.04556,3.12339 -0.67072,4.10254c-0.79839,1.25048 -1.45754,2.39492 -2.22049,0.42584z" stroke-linecap="butt"/><path d="M243.95289,165.08239l-1.69082,2.58656" stroke-linecap="round"/><path d="M239.94683,168.31505c0.79838,-1.25046 1.59968,-1.6323 2.03676,-0.63155c0.92673,2.12188 -0.04556,3.12339 -0.67072,4.10254c-0.79838,1.25047 -1.45754,2.39492 -2.22049,0.42584c-0.54023,-1.39427 0.05606,-2.64634 0.85444,-3.89683z" stroke-linecap="butt"/><path d="M239.73493,171.60538l-1.69081,2.58658" stroke-linecap="round"/><path d="M234.37373,173.72764c0.26156,-1.67864 1.13508,-1.5199 2.12726,-1.04886c0.99218,0.47105 1.62436,1.47382 1.46575,2.75466c-0.33632,2.71574 -1.32752,1.82564 -2.10442,1.45679c-0.99218,-0.47104 -1.85798,-0.79192 -1.48858,-3.16259z" stroke-linecap="butt"/><path d="M232.93017,173.31447l2.07555,1.03502" stroke-linecap="round"/><path d="M229.67355,169.23531c0.58298,-1.3518 1.34991,-0.54372 2.16154,0.64256c0.81163,1.18628 1.18496,2.59091 0.77764,3.65338c-0.86365,2.25274 -1.5886,0.68026 -2.22415,-0.24863c-0.81162,-1.18629 -1.53833,-2.13823 -0.71503,-4.0473z" stroke-linecap="butt"/><path d="M230.12466,170.28806l-1.6877,-2.52742" stroke-linecap="round"/><path d="M225.42773,162.9475c0.58298,-1.35178 1.34992,-0.54372 2.16155,0.64256c0.81163,1.18628 1.18496,2.59091 0.77763,3.65338c-0.86365,2.25273 -1.5886,0.68026 -2.22415,-0.24863c-0.81162,-1.18628 -1.53833,-2.13822 -0.71503,-4.0473z" stroke-linecap="butt"/><path d="M225.87885,164.00025l-1.68771,-2.52742" stroke-linecap="round"/></g><path d="M215.16041,147.91409c0.17232,-3.33837 1.80798,-17.79994 3.32698,-30.86504c0.23494,-2.02085 2.14433,-4.97353 2.14433,-4.97353c0,0 2.29316,-1.3799 3.49726,-1.22727c13.28487,1.68397 26.0552,2.17238 30.79462,4.40221c1.57981,0.74327 4.37629,2.91167 4.37629,2.91167c0,0 0.15718,4.56803 0.15116,5.73746c-0.00201,0.38982 -0.00215,0.60934 -0.02589,0.99833c-0.71126,11.65532 -2.6935,24.98893 -3.59168,29.61827c-0.29939,1.5431 -2.3147,3.7482 -2.3147,3.7482c0,0 -1.64608,2.60297 -5.93794,2.87045c-4.69603,0.2927 -15.82471,-1.56931 -27.2952,-3.52718c-1.72211,-0.29395 -4.0296,-4.04839 -4.0296,-4.04839z" fill="#582700" stroke="#000000" stroke-width="2.5" stroke-linecap="round"/><path d="M260.9089,120.71384l-0.61951,-0.62276c-0.08169,-0.04241 -0.1634,-0.08431 -0.24513,-0.12572c-0.24757,0.28944 -0.70083,0.60505 -1.3734,0.26471c-0.61988,-0.31368 -0.71816,-0.82636 -0.6884,-1.20854c-2.42963,-1.00108 -4.90189,-1.65421 -7.50753,-2.25277c-7.32768,-1.40538 -14.74231,-2.20052 -22.13232,-3.1575c-2.42359,-0.31385 -7.96642,0.02529 -9.79545,-1.95607c-0.892,-0.9663 -0.28259,-2.8837 -0.25662,-3.96944c0.07526,-3.1462 0.08844,-6.41197 0.43225,-9.53988c0.47496,-4.08516 -0.5412,-7.91993 -0.56775,-11.99052c-0.0133,-2.04072 -0.42075,-4.14334 1.45986,-5.66152c0.531,-0.42867 1.33266,-0.03444 1.99664,0.01455c2.42663,0.17911 4.74022,0.65825 7.09075,1.27112c7.44882,1.94215 14.8617,3.4425 22.20269,5.87256c2.96088,0.98417 6.00535,1.4506 9.06872,1.96106c1.80039,0.30002 3.51241,-0.03699 4.34219,2.3107c0.49553,1.402 -0.44628,5.42076 -0.66977,6.92443c-0.86175,5.79819 -0.81722,13.05986 -2.62974,18.76959c0.10728,0.05391 0.21453,0.10859 0.32173,0.16407l1.13437,0.98325c0,0 0.91208,0.83518 0.13029,1.80953c-0.78179,0.97434 -1.69387,0.13918 -1.69387,0.13918z" data-paper-data="{&quot;index&quot;:null}" fill="#000000" stroke="none" stroke-width="0.5" stroke-linecap="butt"/><g fill="none" stroke="#000000" stroke-width="2.5" stroke-linecap="butt"><path d="M229.46875,134.62656c-1.31241,-1.98465 -2.15324,-3.76192 -1.87799,-3.96963c0.27523,-0.20772 1.56228,1.2328 2.8747,3.21746c1.31241,1.98465 2.15324,3.76194 1.87799,3.96965c0,0 -1.56227,-1.23282 -2.8747,-3.21749z"/><path d="M232.32483,137.39618c0.1999,0.28983 -1.12262,1.69321 -2.95389,3.13453c-1.83127,1.44133 -3.47786,2.37483 -3.67774,2.08499c-0.19989,-0.28983 1.12262,-1.6932 2.95389,-3.13452c1.83127,-1.44132 3.67774,-2.085 3.67774,-2.085z" data-paper-data="{&quot;index&quot;:null}"/></g><g><g data-paper-data="{&quot;index&quot;:null}"><g stroke="#000000" stroke-width="3" stroke-linecap="round"><path d="M272.14194,194.36524c0,0 2.73311,10.634 2.28591,15.34022c-15.0965,6.44506 -24.33943,3.69957 -24.33943,3.69957c-1.91803,0.39535 -2.11762,-7.07037 -2.11762,-7.07037c0,0 -0.83682,-14.56059 -1.37246,-23.88011c-0.35172,-6.11957 -0.90122,-15.68065 -0.90122,-15.68065c0,0 -0.09805,-6.08146 0.9537,-6.20763c6.32751,-0.75907 12.3116,-2.82619 15.54515,-2.0027c1.07785,0.27448 2.56021,5.92395 2.56021,5.92395l7.38573,29.87771z" data-paper-data="{&quot;origPos&quot;:null}" fill="#582700"/><path d="M272.7731,200.23795l-24.3874,3.92503l-0.47343,-3.45584l24.38922,-4.19056z" data-paper-data="{&quot;origPos&quot;:null}" fill="none"/></g><path d="M247.6425,200.27406l-1.40601,-37.81996l1.11639,-0.88089l15.00725,-2.55136l9.18315,37.13951z" fill="#66c8ff" stroke="#000000" stroke-width="1" stroke-linecap="round"/><path d="M248.2881,203.71631l-0.33646,-2.36606l24.22898,-3.93199l0.33646,2.36606z" fill="#ffffff" stroke="none" stroke-width="0" stroke-linecap="butt"/></g><g fill="#fffc96" stroke="#000000" stroke-width="2" stroke-linecap="round"><path d="M270.38759,189.60495c0,0 4.18558,0.51007 4.11063,3.5317c-0.11994,4.8345 -31.35773,-1.10759 -31.51722,-6.15403c-0.06517,-2.06185 2.97996,-2.22037 2.97996,-2.22037l0.27418,1.89905c0,0 5.63207,2.49057 12.88972,4.04992c7.15707,1.53772 12.04162,1.16066 12.04162,1.16066z"/><path d="M268.30394,181.04246c0,0 2.90059,-2.38394 3.80587,-0.2049c1.90032,4.57416 -26.25766,24.37659 -27.09593,19.7038c-0.50767,-2.82995 2.66454,-3.95627 2.66454,-3.95627l0.24008,1.39016c0,0 4.71992,-2.11368 11.01452,-6.71079c6.2946,-4.5971 9.74389,-8.94262 9.74389,-8.94262z" data-paper-data="{&quot;index&quot;:null}"/></g></g><g data-paper-data="{&quot;index&quot;:null}" fill="none" stroke="#000000" stroke-width="2.5" stroke-linecap="butt"><path d="M237.43664,138.72885c-0.19097,-0.29663 1.1736,-1.65329 3.04781,-3.0302c1.87421,-1.37691 3.54837,-2.25266 3.7393,-1.95603c0.19096,0.29662 -1.1736,1.65327 -3.04781,3.03017c-1.87421,1.3769 -3.7393,1.95605 -3.7393,1.95605z"/><path d="M240.37434,141.63124c1.25126,2.02923 2.0375,3.83478 1.75607,4.03281c-0.28141,0.19805 -1.52391,-1.28645 -2.77516,-3.3157c-1.25126,-2.02923 -2.0375,-3.83481 -1.75606,-4.03283c0,0 1.52389,1.28647 2.77516,3.31571z" data-paper-data="{&quot;index&quot;:null}"/></g><g data-paper-data="{&quot;index&quot;:null}" stroke="#000000" stroke-width="1" stroke-linecap="butt"><path d="M239.08109,157.77279c0,0 -3.1029,-7.47679 4.37356,-8.36341c7.06171,-0.83744 6.12766,7.02066 6.12766,7.02066l-10.50121,1.34276z" fill="#000000"/><path d="M248.7394,151.65117c0.00265,0.0047 -8.99135,1.02691 -8.99135,1.02691c0,0 -0.21522,-1.49347 -0.21164,-1.4976c0.75474,-0.86957 1.98154,-1.54143 3.91823,-1.7711c2.91379,-0.34555 4.46626,0.78935 5.28476,2.24181z" fill="#ffffff"/><path d="M244.27283,157.10896c-0.17229,0.02202 0.89892,-1.30591 2.37714,-1.94828c1.25496,-0.54533 2.90679,-0.71029 2.91246,-0.62898c0.06536,0.93738 0.01989,1.89835 0.01989,1.89835c0,0 -3.54958,0.45387 -5.30948,0.6789z" fill="#ff8484"/></g></g></g></svg>