<svg version="1.1" xmlns="http://www.w3.org/2000/svg" xmlns:xlink="http://www.w3.org/1999/xlink" width="234" height="234" viewBox="0,0,234,234"><g transform="translate(-123,-63)"><g data-paper-data="{&quot;isPaintingLayer&quot;:true}" fill-rule="nonzero" stroke-linejoin="miter" stroke-miterlimit="10" stroke-dasharray="" stroke-dashoffset="0" style="mix-blend-mode: normal"><path d="M123,297v-234h234v234z" data-paper-data="{&quot;index&quot;:null}" fill="none" stroke="none" stroke-width="0" stroke-linecap="butt"/><g><g><g><g data-paper-data="{&quot;origRot&quot;:0}" stroke="#000000" stroke-width="3" stroke-linecap="round"><path d="M287.22029,214.71245c-0.01999,2.44993 -8.66212,0.96456 -8.66212,0.96456c0,0 -22.9767,-3.2791 -33.83567,-4.78102c-4.46142,-1.31532 -5.22324,-40.2627 -1.25564,-44.494c1.76864,-1.88617 11.48572,-4.08579 12.94499,-2.69515c2.7776,2.64695 7.56705,18.75693 7.56705,18.75693l-4.17507,0.21279l10.96418,0.50624c0,0 12.8208,-0.54746 18.22201,0.74565c2.99555,0.71717 -1.76975,30.78396 -1.76975,30.78396z" data-paper-data="{&quot;origPos&quot;:null}" fill="#582700"/><path d="M278.88093,183.90137l-1.53894,30.00988" fill="none"/><path d="M273.326,213.99186l1.25313,-30.02453" data-paper-data="{&quot;origPos&quot;:null}" fill="none"/></g><path d="M277.13231,214.52438l-2.80696,-0.1263l1.38171,-30.70635l2.80696,0.1263z" fill="#ffffff" stroke="none" stroke-width="0" stroke-linecap="butt"/><path d="M244.4261,211.03846l-2.8707,-10.71841l-0.01987,-24.00128l1.90711,-8.27196l3.71041,-3.54194l7.49953,-0.08433l1.49991,-0.01687l6.94072,16.92302l-2.99701,0.28371l0.0225,1.99988l13.25759,0.60097l-0.40982,30.25652l-27.04328,-3.69618z" fill="#c51c21" stroke="#000000" stroke-width="0.5" stroke-linecap="round"/></g><g fill="#fffc96" stroke="#000000" stroke-width="2" stroke-linecap="round"><path d="M267.38443,182.24114c0,0 3.97338,-3.01678 6.09517,-0.35727c3.39475,4.25509 -27.80435,24.93412 -31.5931,20.72748c-1.54799,-1.71874 0.95956,-4.3688 0.95956,-4.3688l1.61018,1.40625c0,0 6.652,-2.50828 14.03001,-7.15907c7.27578,-4.58634 11.20916,-8.94272 11.20916,-8.94272z"/><path d="M259.39468,176.60025c0,0 0.77285,-4.44389 3.12909,-3.31794c4.94609,2.36353 -4.97324,42.63205 -9.07614,39.30695c-2.4848,-2.01373 -0.56809,-5.60071 -0.56809,-5.60071l1.21261,0.99688c0,0 2.53507,-5.71346 4.62923,-14.86175c2.09419,-9.14829 1.9202,-15.73147 1.9202,-15.73147z" data-paper-data="{&quot;index&quot;:null}"/></g></g><g><g data-paper-data="{&quot;index&quot;:null}"><path d="M287.08173,180.81471c2.40265,0.44224 7.60896,-2.79386 7.19824,-0.5625c-0.20922,1.13658 -4.43359,21.82334 -5.33524,22.71719c-0.86848,0.86092 -1.95738,1.30415 -3.13618,1.08718c-0.80201,-0.14764 -1.96442,-0.76235 -2.61632,-1.50211c-1.30109,-1.47644 -2.4274,-23.01066 -2.15378,-24.4972c0.41073,-2.23136 3.64065,2.31521 6.04329,2.75746z" fill="#0091d4" stroke="#000000" stroke-width="1.5" stroke-linecap="butt"/><g stroke-linecap="butt"><path d="M288.46233,173.43749c4.35304,0.80124 7.45299,3.78082 6.92392,6.65506c-0.52905,2.87424 -4.48676,4.55476 -8.8398,3.75353c-4.35304,-0.80125 -7.453,-3.78083 -6.92394,-6.65508c0.52905,-2.87424 4.48677,-4.55475 8.8398,-3.7535z" fill="#c51c21" stroke="#000000" stroke-width="1.5"/><path d="M283.4772,181.78938c0,0 -1.56451,-0.68188 -2.53432,-2.13897c-0.45226,-0.70181 -0.81543,-2.66068 -0.81543,-2.66068l3.25342,2.23641z" fill="#ff242b" stroke="none" stroke-width="0"/><path d="M286.81229,183.03723l-1.89329,-0.40166c0,0 -0.13436,-0.78418 -0.08475,-1.2043c0.04237,-0.3588 0.33815,-1.34721 0.33815,-1.34721l1.52838,0.59325z" fill="#ff242b" stroke="none" stroke-width="0"/></g><g><path d="M287.42868,179.79848c-6.00513,-1.10535 -11.34025,-6.37803 -10.23492,-12.38312c1.10535,-6.00513 6.14075,-9.47498 12.14585,-8.36964c6.00513,1.10535 10.28489,6.92615 9.17956,12.93124c-1.10535,6.00513 -5.08538,8.92685 -11.09046,7.82152z" fill="#781114" stroke="#000000" stroke-width="1.5" stroke-linecap="butt"/><path d="M287.17845,159.5687c0,0 1.20117,1.68924 2.67747,4.19423c1.47272,2.49891 2.41573,6.00426 1.93279,8.62805c-0.96709,5.25401 -2.87633,6.91135 -7.23946,6.10827c-2.12266,-0.39071 -3.88359,-1.90065 -4.87668,-3.74833c-1.39391,-2.59341 -2.27601,-5.94844 -1.72758,-8.92783c0.96709,-5.25401 9.23346,-6.25439 9.23346,-6.25439z" fill="#c51c21" stroke="none" stroke-width="0" stroke-linecap="butt"/><path d="M297.40932,172.22599c0,0 -3.85941,3.07684 -10.81623,1.53826c-6.90029,-1.52607 -9.10615,-6.19181 -9.10615,-6.19181" fill="none" stroke="#000000" stroke-width="0.8" stroke-linecap="round"/><path d="M294.81588,177.6062c0,0 -2.86138,1.61688 -9.02774,-0.50779c-4.27884,-1.47431 -7.92701,-4.5244 -7.92701,-4.5244" fill="none" stroke="#000000" stroke-width="0.75" stroke-linecap="round"/><path d="M297.58936,169.23786c0,0 -2.40197,1.70193 -8.96255,-0.14151c-6.821,-1.91661 -9.32946,-6.00004 -9.32946,-6.00004" fill="none" stroke="#000000" stroke-width="0.8" stroke-linecap="round"/><path d="M282.06382,160.46093c0,0 4.59784,0.79712 8.8186,2.78061c3.20446,1.50587 6.89979,4.61368 6.89979,4.61368" fill="none" stroke="#000000" stroke-width="0.8" stroke-linecap="round"/><path d="M293.19712,161.277c0,0 2.43942,3.1611 1.11396,9.02222c-1.42039,6.28085 -4.46202,9.16738 -4.46202,9.16738" fill="none" stroke="#000000" stroke-width="0.8" stroke-linecap="round"/><path d="M286.48113,179.33996c0,0 0.37848,-3.25285 0.84001,-5.15066c0.3886,-1.59784 1.69505,-4.53424 2.47932,-7.3636c0.8918,-3.21735 1.24492,-6.25307 1.24492,-6.25307" fill="none" stroke="#000000" stroke-width="0.8" stroke-linecap="round"/><path d="M283.75973,178.71572c0,0 -1.573,-4.56635 -0.20007,-11.00212c0.87474,-4.10043 4.84118,-8.18265 4.84118,-8.18265" fill="none" stroke="#000000" stroke-width="0.8" stroke-linecap="round"/><path d="M279.27084,175.29981c0,0 -0.93093,-3.42849 1.12489,-9.12601c1.42763,-3.95651 4.4583,-6.80241 4.4583,-6.80241" fill="none" stroke="#000000" stroke-width="0.8" stroke-linecap="round"/><path d="M279.21938,166.53483c-0.42818,-0.07881 -0.70158,-0.54321 -0.61062,-1.03728c0.09093,-0.49405 0.51177,-0.83067 0.93997,-0.75186c0.42818,0.07881 0.70159,0.54321 0.61063,1.03727c-0.09093,0.49405 -0.51179,0.83068 -0.93997,0.75187z" fill="#ff242b" stroke="none" stroke-width="0" stroke-linecap="butt"/><path d="M280.69885,163.35428c-0.24702,-0.04547 -0.41042,-0.28258 -0.36495,-0.52961c0.04546,-0.24702 0.28258,-0.41042 0.52961,-0.36495c0.24702,0.04547 0.41042,0.28259 0.36496,0.52961c-0.04546,0.24702 -0.28258,0.41043 -0.52961,0.36496z" fill="#ff242b" stroke="none" stroke-width="0" stroke-linecap="butt"/></g></g><path d="M283.54178,182.49145c-1.41835,10.70705 -2.41968,12.42903 -2.41968,12.42903c-0.25029,1.33167 -1.51854,0.96183 -1.51854,0.96183c0,0 -2.54721,-0.41686 -4.17755,-0.68368c-1.07055,-0.17519 -2.74314,-0.44892 -2.74314,-0.44892c0,0 -1.02248,-0.34519 -0.87025,-1.06928c0.9159,-4.35618 1.5588,-8.5673 2.2273,-10.71138c0.22283,-0.7147 1.40169,-1.34055 1.40169,-1.34055l5.24044,0.25845c0,0 2.15454,-0.01847 2.8597,0.60451z" fill="#582700" stroke="#000000" stroke-width="3" stroke-linecap="round"/><path d="M295.8751,185.87832c-3.43115,22.05998 -5.38468,25.65905 -5.38468,25.65905c-0.56067,2.74855 -2.83015,2.07374 -2.83015,2.07374c0,0 -4.58424,-0.68653 -7.51837,-1.12592c-1.92668,-0.28853 -4.93687,-0.73932 -4.93687,-0.73932c0,0 -1.82588,-0.64046 -1.49175,-2.13602c2.01022,-8.99756 3.51393,-17.6795 4.89802,-22.1225c0.46136,-1.48099 2.64873,-2.84304 2.64873,-2.84304l9.47937,0.18322c0,0 3.90735,-0.1806 5.13569,1.05079z" fill="#582700" stroke="#000000" stroke-width="3" stroke-linecap="round"/></g></g><g stroke="#000000" stroke-linecap="round"><path d="M231.01765,175.9749c0,0 -28.34669,5.32305 -28.02033,-12.65459c0.12022,-6.62354 16.31486,-4.68711 16.31486,-4.68711z" data-paper-data="{&quot;origPos&quot;:null}" fill="#c51c21" stroke-width="2"/><path d="M223.22011,164.12057c0,0 -15.87594,-2.23255 -15.65451,-2.84177c0.70212,-1.93158 12.46892,-1.12194 12.46892,-1.12194z" data-paper-data="{&quot;origPos&quot;:null}" fill="#0a0a0a" stroke-width="1"/></g><g data-paper-data="{&quot;origRot&quot;:0}" stroke="#000000" stroke-linecap="round"><path d="M240.30226,226.95774c0,0 -0.43859,-4.78062 1.10174,-4.87557c4.54527,-0.28013 8.82459,-2.24137 13.17714,-0.90232c1.80741,0.55603 2.81687,4.72423 2.81687,4.72423l6.73867,32.41475c0,0 0.73945,3.33798 1.09671,5.27084c0.38197,2.06655 -0.43051,5.27491 -2.51747,5.52225c-7.66263,0.90823 -12.26874,2.88578 -17.18601,2.2317c-1.79144,-0.23829 -3.67701,-0.60879 -4.5134,-2.21082c-1.09258,-2.09267 -0.74505,-6.5609 -0.74505,-6.5609z" data-paper-data="{&quot;origPos&quot;:null}" fill="#ff0000" stroke-width="3"/><path d="M265.54127,266.92808c0,0 -5.68597,3.13245 -10.75361,3.5765c-3.88807,0.34069 -12.39875,0.05862 -12.39875,0.05862c0,0 -1.57524,-2.47948 -1.80363,-4.06578c-0.2406,-1.67108 0.60186,-4.28086 0.60186,-4.28086l23.1517,-2.82914z" data-paper-data="{&quot;origPos&quot;:null}" fill="#976e57" stroke-width="2"/><path d="M240.41133,227.27025c0,0 -0.43859,-4.78062 1.10174,-4.87556c4.54526,-0.28013 8.82459,-2.24137 13.17715,-0.9023c1.80741,0.55603 2.81686,4.72422 2.81686,4.72422l6.73867,32.41475c0,0 0.73947,3.33799 1.09673,5.27084c0.38197,2.06655 -0.43052,5.2749 -2.51747,5.52225c-7.66263,0.90823 -12.26874,2.88579 -17.18601,2.23171c-1.79144,-0.23829 -3.677,-0.60881 -4.51339,-2.21082c-1.09258,-2.09267 -0.74506,-6.5609 -0.74506,-6.5609z" data-paper-data="{&quot;origPos&quot;:null}" fill="#4b4b4b" stroke-width="3"/></g><path d="M234.57193,263.29374c0,0 -0.08224,4.48097 -1.37029,6.45932c-0.98606,1.51451 -2.89844,1.70264 -4.70447,1.76819c-4.95732,0.17991 -9.35273,-2.22992 -16.89308,-3.86819c-2.05365,-0.44619 -2.55497,-3.71763 -1.97675,-5.73806c0.54082,-1.88972 1.59671,-5.14148 1.59671,-5.14148l9.81364,-31.61991c0,0 1.40419,-4.05228 3.25656,-4.43257c4.46083,-0.91583 8.53255,1.44641 13.03004,2.16079c1.52413,0.24209 0.62949,4.95869 0.62949,4.95869c0,0 -0.85513,8.96463 -1.40246,14.70247c-0.77249,8.09826 -1.97941,20.75078 -1.97941,20.75078z" fill="#4b4b4b" stroke="#000000" stroke-width="3" stroke-linecap="round"/><g><path d="M220.23761,180.97301c0,0 2.2421,-14.36565 4.4106,-14.86824c6.50546,-1.50781 21.27978,-0.26791 31.16754,-0.06102c1.52855,0.03198 2.56542,13.59004 2.56542,13.59004l1.13962,30.65876c0,0 -0.06965,14.95978 -1.73714,14.92488c-14.84372,-0.31057 -32.25938,0.17785 -38.85796,-0.80132c-2.19952,-0.32638 -1.04204,-16.06338 -1.04204,-16.06338z" fill="#c51c21" stroke="#000000" stroke-width="3.5" stroke-linecap="round"/><path d="M238.90684,189.45314c-1.29139,-0.02702 -1.23935,-2.51398 -1.23935,-2.51398c0.10793,-5.15813 0.25053,-11.97421 0.35846,-17.13235c0,0 0.05203,-2.48696 1.34342,-2.45994c1.29139,0.02702 1.23935,2.51398 1.23935,2.51398c-0.10793,5.15813 -0.21584,10.31626 -0.32377,15.47438l-0.03469,1.65797c0,0 -0.05203,2.48696 -1.34342,2.45994z" fill="#ffffff" stroke="none" stroke-width="0.5" stroke-linecap="butt"/><path d="M250.66298,189.28237c-1.29139,-0.02702 -1.22602,-3.15133 -1.22602,-3.15133c0.13558,-6.48006 0.31474,-15.04299 0.45032,-21.52306c0,0 0.06537,-3.12432 1.35675,-3.0973c1.29139,0.02702 1.22602,3.15133 1.22602,3.15133c-0.13558,6.48006 -0.27116,12.96012 -0.40674,19.4402l-0.04357,2.08288c0,0 -0.06537,3.12432 -1.35675,3.0973z" fill="#ffffff" stroke="none" stroke-width="0.5" stroke-linecap="butt"/></g><g fill="none" stroke="#b9b9b9" stroke-width="3"><path d="M253.53559,170.92057c-0.79894,-1.3751 0.13979,-2.57531 1.38796,-3.76749c1.24817,-1.19216 2.48309,-1.53834 3.13208,-0.54977c1.376,2.09606 -0.13342,3.04022 -1.11077,3.97371c-1.24818,1.19218 -2.28096,2.28556 -3.40926,0.34355z" stroke-linecap="butt"/><path d="M254.532,170.35055l-2.6421,2.46472" stroke-linecap="round"/><path d="M248.33101,173.37027c1.24817,-1.19216 2.48309,-1.53834 3.13208,-0.54977c1.376,2.09606 -0.13342,3.04022 -1.11077,3.97371c-1.24817,1.19217 -2.28095,2.28556 -3.40925,0.34355c-0.79894,-1.3751 0.13978,-2.57531 1.38794,-3.7675z" stroke-linecap="butt"/><path d="M247.93944,176.56773l-2.6421,2.46474" stroke-linecap="round"/><path d="M239.68575,178.46267c0.43477,-1.62634 1.7693,-1.44377 3.27918,-0.95325c1.50988,0.49052 2.45762,1.48731 2.1886,2.72956c-0.57039,2.63392 -2.07024,1.73533 -3.25251,1.35125c-1.50988,-0.49051 -2.82928,-0.83073 -2.21526,-3.12754z" stroke-linecap="butt"/><path d="M240.64093,179.08852l-3.15751,-1.07445" stroke-linecap="round"/><path d="M232.57913,173.93728c0.92034,-1.29776 2.07843,-0.48623 3.29722,0.69502c1.2188,1.18125 1.76193,2.56109 1.11648,3.5827c-1.36856,2.16613 -2.44675,0.61157 -3.40112,-0.31339c-1.21881,-1.18126 -2.31233,-2.13157 -1.01258,-3.96432z" stroke-linecap="butt"/><path d="M233.24856,174.97694l-2.53313,-2.51537" stroke-linecap="round"/><path d="M226.20497,167.67795c0.92034,-1.29774 2.07843,-0.48623 3.29722,0.69502c1.21881,1.18125 1.76193,2.56109 1.11648,3.5827c-1.36855,2.16612 -2.44675,0.61157 -3.40112,-0.31339c-1.2188,-1.18125 -2.31232,-2.13157 -1.01257,-3.96432z" stroke-linecap="butt"/><path d="M226.87441,168.7176l-2.53314,-2.51537" stroke-linecap="round"/></g><path d="M256.54281,166.44444c-12.0709,0.6248 -23.77821,1.19462 -28.60653,0.39064c-4.41275,-0.73477 -5.84577,-3.43822 -5.84577,-3.43822c0,0 -1.85632,-2.35903 -2.00597,-3.88673c-0.44894,-4.58309 -1.11636,-17.71651 -0.64294,-29.0836c0.0158,-0.37937 0.03842,-0.59202 0.07679,-0.96977c0.1151,-1.13327 0.7517,-5.54001 0.7517,-5.54001c0,0 3.11832,-1.79014 4.82997,-2.33489c5.13494,-1.63427 18.39824,-0.69182 32.31796,-0.85023c1.26165,-0.01436 3.49105,1.57625 3.49105,1.57625c0,0 1.66914,3.07134 1.70254,5.05458c0.216,12.822 0.40781,27.00946 0.23972,30.26179c-0.05602,1.08412 -1.71935,5.34596 -1.71935,5.34596z" fill="#582700" stroke="#000000" stroke-width="2.5" stroke-linecap="round"/><path d="M253.0456,145.19883c-0.05802,-3.44447 0.30861,-6.24375 0.81889,-6.25234c0.51029,-0.00861 0.97101,2.77674 1.02905,6.22119c0.05802,3.44447 -0.30861,6.24376 -0.81889,6.25235c-0.51029,0.00861 -0.97101,-2.77674 -1.02905,-6.2212z" fill="none" stroke="#000000" stroke-width="2.5" stroke-linecap="butt"/><path d="M247.58389,145.55571c-0.0591,-3.50827 0.20326,-6.35751 0.58596,-6.36395c0.38272,-0.00645 0.74089,2.83234 0.79999,6.34059c0.0591,3.50827 -0.20323,6.35748 -0.58595,6.36394c-0.38272,0.00645 -0.7409,-2.83232 -0.8,-6.34057z" fill="none" stroke="#000000" stroke-width="2.5" stroke-linecap="butt"/><path d="M251.09213,139.06668c-0.17862,0.56179 -0.65841,0.54161 -0.85558,0.50725c-0.13249,0.1983 -0.35712,0.33022 -0.61361,0.33378c-0.17597,0.00245 -0.33861,-0.05591 -0.46794,-0.1556l-0.64965,-0.49093c-0.1269,-0.06043 -0.2535,-0.1187 -0.38006,-0.17506c-0.56964,-0.00545 -1.13362,-0.421 -1.81218,-0.69701c-0.16142,-0.0541 -0.32445,-0.10712 -0.48951,-0.15953c0,0 -0.15537,-0.0494 -0.2982,-0.17457c-0.26533,-0.11255 -0.45309,-0.37367 -0.45736,-0.68036c-0.00576,-0.41417 0.32533,-0.7546 0.7395,-0.76035c0.08104,-0.00113 0.15926,0.01064 0.2327,0.03341l0.7556,0.21527l-0.02638,0.0926l0.03032,0.01297c0.0209,0.00802 0.04162,0.01595 0.06215,0.0238c0.07712,0.0263 0.15388,0.05288 0.23031,0.07974c1.01339,0.10263 2.001,0.39812 2.94478,0.88558l0.56762,0.167c0,0 0.71474,0.22726 0.48749,0.942z" fill="#582700" stroke="none" stroke-width="0.5" stroke-linecap="butt"/><path d="M238.49278,153.96089c0.71282,0.2332 0.47962,0.94603 0.47962,0.94603l-0.38969,1.17296c-0.3503,2.88841 3.50534,2.00382 5.24362,1.3414c0,0 0.70111,-0.26635 0.96746,0.43476c0.26635,0.70111 -0.43476,0.96746 -0.43476,0.96746c-3.1746,1.20251 -7.42485,1.30408 -7.24841,-3.03167l0.43613,-1.35131c0,0 0.2332,-0.71282 0.94603,-0.47962z" fill="#000000" stroke="none" stroke-width="0.5" stroke-linecap="butt"/><g><g stroke="#000000" stroke-width="3" stroke-linecap="round"><path d="M199.88428,195.85234l13.73536,-26.78341c0,0 2.6844,-5.04526 3.8372,-5.06641c3.45839,-0.06347 9.10999,3.23594 15.38335,5.36725c1.04275,0.35426 -0.32461,6.11883 -0.32461,6.11883c0,0 -2.5516,8.97483 -4.18475,14.71918c-2.48713,8.74807 -6.37295,22.41588 -6.37295,22.41588c0,0 -1.75914,7.05905 -3.62629,6.25576c0,0 -9.96729,0.55399 -23.96856,-8.94016c0.52647,-4.57748 5.52125,-14.08691 5.52125,-14.08691z" data-paper-data="{&quot;origPos&quot;:null}" fill="#582700"/><path d="M199.27368,197.86377l23.91682,9.4184l-1.2016,3.18275l-23.97032,-9.16537z" data-paper-data="{&quot;origPos&quot;:null}" fill="none"/></g><path d="M200.11837,197.64526l17.07608,-33.29262l14.72224,5.7695l0.95114,1.08675l-9.31289,35.67193z" fill="#c51c21" stroke="#000000" stroke-width="1" stroke-linecap="round"/><path d="M198.37335,200.92496l0.83522,-2.17633l23.80784,9.1367l-0.83521,2.17634z" fill="#ffffff" stroke="none" stroke-width="0" stroke-linecap="butt"/></g><g data-paper-data="{&quot;index&quot;:null}" stroke="#000000" stroke-width="2" stroke-linecap="butt"><path d="M263.91433,121.31999c0,0 -33.40114,-4.2884 -41.84422,0.69841c-9.21096,5.44035 -5.65708,26.89556 -5.65708,26.89556c0,0 -13.49475,-27.44142 -0.46437,-45.93455c4.77353,-6.77474 27.44397,-12.1753 39.48747,-4.9074c8.80081,5.31103 8.47821,23.24798 8.47821,23.24798z" fill="#901111"/><path d="M221.44526,125.75978c-2.48847,-1.09375 -3.93584,-1.54941 -3.93584,-2.89659c0,-1.48305 1.75403,-2.40021 4.7201,-3.41812c3.07493,-1.05527 7.4525,-2.17423 12.52882,-1.57754c2.16287,0.25424 5.1491,1.50676 7.5304,1.50676c2.58447,0 4.48522,-3.89442 6.87847,-3.40341c3.05031,0.62581 5.80284,2.58177 7.89447,3.56884c2.86321,1.35119 5.37767,-0.44295 6.94803,-0.07818c1.0743,0.24955 1.70675,2.56722 1.70675,3.40164c0,0.89767 -0.79435,2.93072 -2.08714,3.08219c-2.05553,0.24083 -5.37111,-1.54073 -8.75728,0.49276c-3.80372,2.28424 -8.36077,3.08566 -13.2591,3.08566c-1.84261,0 -3.63694,-1.25008 -5.36104,-1.35829c-1.57481,-0.09884 -3.09104,-1.02285 -4.53195,-0.94746c-1.89148,0.09896 -3.6532,1.20116 -5.24734,0.94817c-1.94944,-0.30938 -3.64827,-1.80031 -5.02735,-2.40645z" data-paper-data="{&quot;index&quot;:null}" fill="#ffffff"/><path d="M210.65597,157.25224c-1.14118,-1.95505 -0.36341,-3.83238 0.41862,-5.91258c0.43086,-1.1461 0.24791,-2.75388 1.19281,-3.52912c1.52307,-1.2496 3.90716,-2.0137 5.52413,-1.47957c1.2069,0.39867 1.7403,1.72252 2.49675,3.01847c0.57628,0.98727 0.0193,2.48951 0.08643,3.61832c0.13905,2.33811 0.09599,4.35163 -1.69787,5.82339c-1.22956,1.00879 -2.70105,2.73842 -4.05671,2.57227c-1.577,-0.19327 -3.01242,-2.48062 -3.96417,-4.11115z" fill="#ffffff"/></g></g></g></svg>