<svg version="1.1" xmlns="http://www.w3.org/2000/svg" xmlns:xlink="http://www.w3.org/1999/xlink" width="306.30631" height="274.77477" viewBox="0,0,306.30631,274.77477"><g transform="translate(-86.84685,-42.61262)"><g data-paper-data="{&quot;isPaintingLayer&quot;:true}" fill-rule="nonzero" stroke-linecap="butt" stroke-linejoin="miter" stroke-miterlimit="10" stroke-dasharray="" stroke-dashoffset="0" style="mix-blend-mode: normal"><path d="M86.84686,317.38739v-274.77477h306.30631v274.77477z" data-paper-data="{&quot;index&quot;:null}" fill="none" stroke="none" stroke-width="0"/><text transform="translate(271.55609,110.72265) rotate(-180) scale(0.1602,-0.1602)" font-size="40" xml:space="preserve" data-paper-data="{&quot;index&quot;:null}" fill="#000000" fill-rule="nonzero" stroke="none" stroke-width="1" stroke-linecap="butt" stroke-linejoin="miter" stroke-miterlimit="10" stroke-dasharray="" stroke-dashoffset="0" font-family="Sans Serif" font-weight="normal" text-anchor="start" style="mix-blend-mode: normal"><tspan x="0" dy="0">AwezomeXD</tspan><tspan x="0" dy="46.150000000000006px"> </tspan><tspan x="0" dy="46.150000000000006px">MeIzAwezomeDede</tspan></text><g data-paper-data="{&quot;index&quot;:null}"><g><g><g><path d="M201.59132,131.48571c0,0 -6.19612,-10.44213 0.15473,-16.9625c4.50811,-4.62844 21.05798,-3.88287 31.41664,-7.74989c11.77539,-4.39591 33.66018,-13.61794 33.66018,-13.61794c0,0 5.901,1.50512 7.77719,0.88006c2.34262,-0.78047 3.79709,-4.77196 3.79709,-4.77196c0,0 1.6659,3.81695 2.35636,7.1052c2.60068,12.38569 -6.97794,14.96714 -6.97794,14.96714c0,0 5.24102,4.52485 6.49395,8.63818c1.31703,4.32387 -1.59682,7.62335 -1.59682,7.62335c0,0 3.29819,2.75396 4.36704,6.18732c0.70561,2.26658 1.22169,6.16289 1.50999,8.60104c0.492,4.16068 8.69609,6.16763 8.69609,6.16763c0,0 -3.00863,4.18551 -5.55835,5.40834c-2.59521,1.24465 -9.48348,-0.02802 -9.48348,-0.02802c0,0 -2.22085,1.26088 -1.9665,4.11736c0.08018,0.90046 0.86496,2.80957 1.24399,3.68171c1.27846,2.94175 3.12913,6.46294 2.31676,6.81293c-2.70966,1.16737 -2.85006,2.86669 -2.85006,2.86669c0,0 2.97343,9.76747 1.26494,10.43106c-2.13112,0.8277 -5.70092,-2.28298 -8.31941,-2.01688c-2.41008,0.24494 -6.39064,-5.31061 -6.39064,-5.31061c0,0 -0.17246,7.0842 -2.70056,8.6348c-2.45328,1.50473 -2.71378,6.90497 -3.80904,7.32336c-3.99258,1.52516 -11.9953,-9.77432 -11.9953,-9.77432c0,0 -9.58268,11.28924 -12.9436,9.57488c-3.9667,-2.02337 -9.00923,-17.12265 -9.00923,-17.12265c0,0 -6.51145,-3.04817 -7.64876,-5.67312c-2.55419,-5.89515 -0.76591,-11.57278 -0.76591,-11.57278c0,0 -3.02133,1.14668 -4.25535,2.67571c-1.31165,1.62522 -3.39593,6.80464 -3.39593,6.80464c0,0 -2.6291,-5.10035 -2.88068,-7.81352c-0.26456,-2.8532 1.33034,-8.90676 1.33034,-8.90676c0,0 -5.4749,-2.26017 -8.62372,-6.82921c-1.68763,-2.44878 -2.36438,-8.48669 -2.36438,-8.48669c0,0 5.09394,2.71784 6.94548,2.81641c1.43627,0.07647 0.70495,-2.84758 0.70495,-2.84758z" fill="#6d0f0a" stroke="#000000" stroke-width="2"/><path d="M199.21815,126.6367c0,0 -5.27047,-6.6056 -6.02837,-16.82636c-0.41031,-5.53332 2.20999,-13.33353 3.65607,-18.62206c2.04936,-7.49465 9.41372,-12.8109 16.17601,-15.33535c8.8895,-3.31857 17.83078,3.90837 17.83078,3.90837c0,0 8.22249,-6.71384 15.67057,-7.18549c7.19547,-0.45566 14.16733,5.76231 16.03379,7.2632c2.84346,2.28654 8.50102,15.0574 8.50102,15.0574c0,0 -19.87219,28.74189 -33.96167,34.00166c-15.05182,5.61904 -30.11329,-7.64742 -34.80288,-3.2716c-1.65009,1.5397 -3.07531,1.01024 -3.07531,1.01024z" fill="#6d0f0a" stroke="#000000" stroke-width="2"/><path d="M196.11909,96.34374c0,0 1.16898,-3.60868 1.8581,-5.23368c0.65747,-1.55032 2.18611,-4.30288 2.18611,-4.30288c0,0 9.64999,3.56722 14.24777,3.69233c4.81809,0.13111 11.61807,-3.93712 11.61807,-3.93712c0,0 0.68687,2.21651 1.1902,3.05328c0.53215,0.88468 1.47612,2.28519 1.47612,2.28519c0,0 0.66671,-2.11784 0.76421,-2.9648c0.10532,-0.91479 0.18028,-2.79889 0.18028,-2.79889c0,0 2.69186,3.1395 3.83869,4.27136c0.93914,0.9269 2.54451,2.02855 2.54451,2.02855c0,0 -0.65127,-2.03193 -1.06842,-3.06316c-0.44168,-1.09181 -1.51227,-3.31629 -1.51227,-3.31629c0,0 10.35541,1.53638 16.48935,1.44412c0.12315,-0.00185 4.52324,-1.39031 4.86334,-1.44759c7.31268,-1.23161 2.29501,-9.47696 2.29501,-9.47696c0,0 3.67546,2.51163 5.60567,5.11985c1.9577,2.64537 6.05922,10.64248 6.05922,10.64248c0,0 -5.99622,-1.47581 -10.95402,-0.5029c-0.87973,0.17264 -10.28899,2.56503 -10.28899,2.56503c0,0 -1.9908,-1.64689 -2.98962,-2.28452c-0.97876,-0.62482 -2.94428,-1.5036 -2.94428,-1.5036c0,0 -0.60496,2.13437 -0.83444,3.40817c-0.27572,1.53033 -0.70673,5.1462 -0.70673,5.1462c0,0 -1.39447,-1.53042 -2.30944,-2.29849c-1.01789,-0.85449 -3.52202,-2.59691 -3.52202,-2.59691c0,0 -1.12564,0.82499 -1.67395,1.49965c-0.76119,0.93658 -2.46788,3.59651 -2.46788,3.59651c0,0 -1.5788,-2.52151 -2.41838,-3.60074c-0.72639,-0.93374 -2.32891,-2.50166 -2.32891,-2.50166c0,0 -1.23267,1.57075 -1.83722,2.54823c-0.75442,1.21979 -2.34007,4.20581 -2.34007,4.20581c0,0 -9.24214,-5.47985 -13.54172,-6.11165c-4.02186,-0.59101 -11.47828,2.43511 -11.47828,2.43511z" fill="#c42d06" stroke="none" stroke-width="0"/></g><path d="M224.46748,135.89533c0,0 -19.36806,-0.82742 -20.10141,-2.09431c-0.12722,-0.21977 0.14731,-9.23314 -0.31479,-10.01256c-0.84408,-1.42368 -4.77006,0.87264 -4.77006,0.87264c0,0 59.112,-25.92478 68.48725,-29.58298c2.38842,-0.93197 5.58412,0.6859 5.58412,0.6859l-5.98161,21.62428z" fill="#6d0f0a" stroke="none" stroke-width="NaN"/></g><path d="M232.38739,80.65239c0,0 -4.58015,-0.51712 -4.46689,-6.33809c0.00597,-0.30671 0.32731,-1.62102 0.47437,-1.932c1.12692,-2.38296 5.83508,-3.97008 5.83508,-3.97008c0,0 -1.75071,5.19665 -2.30546,6.95926c-0.49446,1.57106 0.4629,5.28092 0.4629,5.28092z" fill="#6d0f0a" stroke="#000000" stroke-width="1.5"/><path d="M224.3362,71.54959c0,0 1.57955,0.64581 2.45741,2.20674c0.61499,0.72676 1.61849,3.43186 1.61849,3.43186l-2.10109,-0.56433z" fill="#000000" stroke="none" stroke-width="0"/></g><path d="M231.18102,79.45002l3.64182,-0.99504c0,0 -1.63825,4.96678 -2.09528,5.26142c-0.63983,0.41251 -4.51043,-4.06576 -4.51043,-4.06576z" fill="#6d0f0a" stroke="none" stroke-width="0"/></g><g data-paper-data="{&quot;index&quot;:null}"><text transform="translate(294.68339,229.00291) rotate(-180) scale(0.27921,-0.27921)" font-size="40" xml:space="preserve" fill="#000000" fill-rule="nonzero" stroke="none" stroke-width="1" stroke-linecap="butt" stroke-linejoin="miter" stroke-miterlimit="10" stroke-dasharray="" stroke-dashoffset="0" font-family="Sans Serif" font-weight="normal" text-anchor="start" style="mix-blend-mode: normal"><tspan x="0" dy="0">AwezomeXD</tspan><tspan x="0" dy="46.150000000000006px"> </tspan><tspan x="0" dy="46.150000000000006px">MeIzAwezomeDede</tspan></text><g data-paper-data="{&quot;index&quot;:null}"><g><path d="M304.61433,280.72712c-0.97394,-0.3343 -2.81981,-1.05375 -2.81981,-1.05375l2.00112,-62.99775c0,0 3.12264,-3.42551 4.77674,-5.10754c1.78782,-1.81801 6.83093,-5.9246 6.83093,-5.9246c0,0 5.94054,0.17965 11.08569,1.75457c7.39586,2.26385 29.04162,10.52827 29.04162,10.52827c0,0 -0.29139,23.00613 -1.11993,33.98866c-0.74728,9.90532 -3.63272,29.00908 -3.63272,29.00908c0,0 -14.3168,1.48011 -21.61682,1.59314c-7.15813,0.11083 -21.76596,-0.92143 -21.76596,-0.92143c0,0 -1.89659,-0.56514 -2.78087,-0.86866z" fill="#434253" stroke="#000000" stroke-width="2.5"/><path d="M306.04174,281.58896c0,0 3.19421,-16.34268 5.26935,-30.13714c1.48339,-9.86081 2.04443,-18.33187 2.06476,-19.00203c0.15509,-5.11269 -0.3723,-9.50368 -0.00091,-14.70459c0.49814,-6.97594 1.18056,-11.43244 1.18056,-11.43244l2.10035,-1.22928c0,0 -1.17975,18.14658 -2.93073,35.27697c-0.73182,7.15966 -2.77258,22.22022 -3.75528,31.64788c-0.10799,1.03599 0.50491,2.39047 0.4064,3.33489c-0.55015,5.27458 -0.93311,6.24975 -0.93311,6.24975l-3.40139,-0.00403z" fill="#000000" stroke="none" stroke-width="0"/></g><g stroke="#000000" stroke-width="1.5"><path d="M345.29834,263.35315c0.94113,9.66742 -4.93088,16.17699 -12.88074,16.95092c-7.94986,0.77393 -14.77082,-5.25083 -14.91119,-14.96294c-0.15638,-10.82018 5.8426,-16.14324 12.54261,-16.73861c6.71115,-0.59636 14.44659,6.50489 15.24932,14.75063z" fill="#2c262f"/><path d="M323.67439,268.45717c-0.26544,-2.72671 1.31874,-5.06632 3.56101,-5.2846c2.24227,-0.21828 3.76096,1.25807 4.0264,3.98478c0.26545,2.72671 -1.3891,5.14677 -3.63137,5.36505c-2.24227,0.21828 -3.69059,-1.33852 -3.95603,-4.06523z" data-paper-data="{&quot;index&quot;:null}" fill="#1b171c"/></g><g stroke="#000000" stroke-width="1.5"><path d="M334.90074,214.226c6.72176,-0.46163 14.18059,7.06601 14.65957,15.33688c0.56156,9.69688 -5.56103,15.97134 -13.53511,16.43313c-7.97408,0.46179 -14.55372,-5.82563 -14.31338,-15.53578c0.26776,-10.81801 6.4647,-15.77245 13.18893,-16.23424z" fill="#2c262f"/><path d="M327.75298,233.81559c-0.15839,-2.73501 1.51626,-5.01074 3.76536,-5.14099c2.2491,-0.13025 3.70876,1.40448 3.86715,4.1395c0.15839,2.73502 -1.58973,5.08838 -3.83883,5.21863c-2.2491,0.13025 -3.6353,-1.48212 -3.79369,-4.21714z" data-paper-data="{&quot;index&quot;:null}" fill="#1b171c"/></g></g><g><g><path d="M178.20552,279.80011c0,0 -1.84588,0.71945 -2.81982,1.05375c-0.88428,0.30352 -2.78086,0.86866 -2.78086,0.86866c0,0 -14.60784,1.03226 -21.76596,0.92143c-7.30001,-0.11302 -21.61681,-1.59314 -21.61681,-1.59314c0,0 -2.88544,-19.10377 -3.63272,-29.00909c-0.82854,-10.98252 -1.11993,-33.98866 -1.11993,-33.98866c0,0 21.64575,-8.26442 29.04162,-10.52827c5.14515,-1.57491 11.08569,-1.75457 11.08569,-1.75457c0,0 5.04312,4.1066 6.83094,5.9246c1.6541,1.68203 4.77674,5.10754 4.77674,5.10754l2.00112,62.99775z" fill="#434253" stroke="#000000" stroke-width="2.5"/><path d="M173.95829,281.71568l-3.40139,0.00403c0,0 -0.38295,-0.97517 -0.93311,-6.24976c-0.0985,-0.94441 0.51439,-2.2989 0.40641,-3.33488c-0.98271,-9.42766 -3.02346,-24.48823 -3.75529,-31.64789c-1.75097,-17.13039 -2.93073,-35.27697 -2.93073,-35.27697l2.10035,1.22928c0,0 0.68243,4.4565 1.18057,11.43244c0.37139,5.20091 -0.156,9.59191 -0.00092,14.70459c0.02033,0.67016 0.58138,9.14123 2.06477,19.00203c2.07514,13.79446 5.26935,30.13713 5.26935,30.13713z" fill="#000000" stroke="none" stroke-width="0"/></g><g stroke="#000000" stroke-width="1.5"><path d="M134.7017,263.47988c0.80273,-8.24574 8.53818,-15.34698 15.24933,-14.75062c6.70001,0.59537 12.69899,5.91843 12.54261,16.73861c-0.14037,9.71211 -6.96134,15.73687 -14.9112,14.96294c-7.94986,-0.77392 -13.82187,-7.2835 -12.88074,-16.95092z" fill="#2c262f"/><path d="M152.76464,263.29933c2.24227,0.21828 3.82645,2.55788 3.56101,5.28459c-0.26545,2.72671 -1.71376,4.28351 -3.95603,4.06523c-2.24227,-0.21829 -3.89681,-2.63834 -3.63137,-5.36505c0.26544,-2.72671 1.78413,-4.20306 4.0264,-3.98478z" data-paper-data="{&quot;index&quot;:null}" fill="#1b171c"/></g><g stroke="#000000" stroke-width="1.5"><path d="M130.43974,229.68962c0.47898,-8.27087 7.9378,-15.79851 14.65956,-15.33689c6.72423,0.46179 12.92117,5.41624 13.18893,16.23424c0.24034,9.71016 -6.33929,15.99758 -14.31338,15.53579c-7.97409,-0.46179 -14.09668,-6.73625 -13.53512,-16.43313z" fill="#2c262f"/><path d="M152.24709,233.94234c-0.15839,2.73501 -1.54458,4.34738 -3.79368,4.21713c-2.2491,-0.13025 -3.99721,-2.48361 -3.83882,-5.21863c0.15839,-2.73501 1.61804,-4.26975 3.86714,-4.1395c2.2491,0.13025 3.92375,2.40598 3.76536,5.141z" data-paper-data="{&quot;index&quot;:null}" fill="#1b171c"/></g></g><g stroke="#000000"><g fill="#434253"><path d="M302.93639,282.15584c0,0 -39.39406,0.31655 -59.64769,0.31655c-21.72904,0 -66.6118,-0.31655 -66.6118,-0.31655c0,0 -2.38216,-40.33861 -2.16309,-60.75635c0.20152,-18.78125 2.16309,-54.08575 2.16309,-54.08575c0,0 42.82931,-1.2662 64.39595,-1.2662c21.14461,0 59.33114,1.58275 59.33114,1.58275c0,0 4.66352,44.84767 4.63123,67.07726c-0.03994,25.54257 -2.09882,47.44828 -2.09882,47.44828z" stroke-width="2.5"/><path d="M182.62639,273.74784c1.29409,0 2.34316,0.94416 2.34316,2.10884c0,1.16468 -1.04906,2.10884 -2.34316,2.10884c-1.29409,0 -2.34316,-0.94416 -2.34316,-2.10884c0,-1.16468 1.04906,-2.10884 2.34316,-2.10884z" stroke-width="2"/><path d="M296.08665,273.11069c1.29409,0 2.34316,0.94416 2.34316,2.10884c0,1.16468 -1.04907,2.10884 -2.34316,2.10884c-1.29409,0 -2.34316,-0.94416 -2.34316,-2.10884c0,-1.16468 1.04907,-2.10884 2.34316,-2.10884z" stroke-width="2"/><path d="M291.83153,175.44763c-0.48529,-1.12251 0.08425,-2.44878 1.27209,-2.9623c1.18785,-0.51352 2.54417,-0.01985 3.02946,1.10266c0.48528,1.12251 -0.08426,2.44879 -1.2721,2.96231c-1.18785,0.51352 -2.54417,0.01984 -3.02946,-1.10267z" stroke-width="2"/><path d="M180.91758,172.05909c1.18784,-0.51352 2.54418,-0.01985 3.02946,1.10266c0.48528,1.12251 -0.08426,2.44879 -1.2721,2.96231c-1.18784,0.51352 -2.54417,0.01984 -3.02945,-1.10267c-0.48528,-1.12251 0.08425,-2.44878 1.27209,-2.9623z" stroke-width="2"/></g><g><path d="M187.36313,208.89735c-2.36044,-6.40232 -2.14847,-24.22034 1.17777,-27.70117c8.80798,-9.21732 26.01104,-9.48636 48.15555,-9.48636c20.7312,0 40.80646,1.21551 50.19223,9.11804c4.42593,3.72649 4.09175,24.72433 0.61728,30.38921c-5.21713,8.50616 -20.51325,11.67052 -51.0204,11.67052c-30.50715,0 -45.72795,-4.44989 -49.12243,-13.65691z" fill="#434253" stroke-width="2"/><path d="M191.46433,207.31701c-2.1792,-5.67588 -1.98352,-21.47217 1.08734,-24.55804c8.13172,-8.17147 24.01396,-7.77733 44.45825,-7.77733c19.1395,0 37.67343,0.44494 46.33857,7.45081c4.08612,3.30367 3.77759,21.91897 0.56988,26.94108c-4.81657,7.54101 -18.93828,9.50278 -47.10314,9.50278c-28.16487,0 -42.21704,-3.39695 -45.3509,-11.55929z" fill="#2c262f" stroke-width="1.5"/><path d="M216.73027,204.30874c-0.84859,-2.4182 -0.77238,-9.14817 0.42343,-10.4629c3.16654,-3.48144 9.35117,-4.21571 17.31229,-4.21571c7.45303,0 14.67023,1.09175 18.04449,4.07659c1.59116,1.40752 1.47102,9.33853 0.22192,11.47819c-1.8756,3.21283 -7.37467,4.61891 -18.34223,4.61891c-10.96755,0 -16.43956,-1.85087 -17.65989,-5.32841z" fill="#1b171c" stroke-width="1.5"/></g><g><path d="M187.36313,264.28153c-2.36044,-6.40232 -2.14847,-24.22034 1.17777,-27.70116c8.80798,-9.21732 26.01104,-9.48637 48.15555,-9.48637c20.7312,0 40.80646,1.21551 50.19223,9.11804c4.42593,3.7265 4.09175,24.72433 0.61728,30.38921c-5.21713,8.50616 -20.51325,11.67052 -51.0204,11.67052c-30.50715,0 -45.72795,-4.4499 -49.12243,-13.65692z" fill="#434253" stroke-width="2"/><path d="M191.46433,262.70117c-2.1792,-5.67588 -1.98352,-21.47217 1.08734,-24.55804c8.13172,-8.17147 24.01396,-7.77734 44.45825,-7.77734c19.1395,0 37.67343,0.44494 46.33857,7.45081c4.08612,3.30367 3.77759,21.91898 0.56988,26.94109c-4.81657,7.54101 -18.93828,9.50278 -47.10314,9.50278c-28.16487,0 -42.21704,-3.39695 -45.3509,-11.55929z" fill="#2c262f" stroke-width="1.5"/><path d="M216.73027,259.69291c-0.84859,-2.41819 -0.77238,-9.14816 0.42343,-10.46289c3.16654,-3.48144 9.35117,-4.21571 17.31229,-4.21571c7.45303,0 14.67023,1.09175 18.04449,4.07659c1.59116,1.40752 1.47102,9.33852 0.22192,11.47818c-1.8756,3.21283 -7.37467,4.61891 -18.34223,4.61891c-10.96755,0 -16.43956,-1.85087 -17.65989,-5.32842z" fill="#1b171c" stroke-width="1.5"/></g></g></g><g data-paper-data="{&quot;index&quot;:null}"><g><path d="M252.97902,159.43962c0,-4.62307 -8.31163,-15.53073 -3.73249,-15.53073c1.19692,0 4.33434,2.33459 7.33998,4.85516c1.41985,1.19071 3.53653,2.34172 4.48317,3.77227c0.87001,1.31474 0.76105,2.94412 0.86557,3.34049c0.13844,0.52495 1.03716,2.14097 1.03716,2.14097c0,0 1.8039,1.97795 5.149,3.90074c2.24923,1.29287 4.1493,0.66077 6.46625,2.01002c1.47849,0.86098 5.03255,2.7213 3.79077,4.97488c-0.17767,0.32243 -5.01359,0.24975 -5.01359,0.24975c0,0 -1.35752,1.6276 -2.56838,2.04842c-3.15564,1.09671 -5.19691,-1.08587 -5.98938,-1.03821c-2.54859,0.15328 -6.58404,-0.10553 -6.58404,-0.10553c0,0 -0.42005,-0.10557 -1.65449,-0.80571c-5.13138,-2.91039 -3.58953,-7.69547 -3.58953,-9.81253z" fill="#ffd5d5" stroke="#000000" stroke-width="1.5"/><path d="M254.31585,166.12692c0,0 7.13637,1.48578 9.74151,0.65935c0.10286,-0.03263 1.06975,-0.82199 2.40324,-1.24686c1.1186,-0.35642 2.5965,-0.36275 3.05256,-0.36185c1.15451,0.00229 1.57584,1.90079 2.564,1.90079c3.98374,0 4.90558,-0.51035 4.90558,-0.51035c0,0 0.54267,0.54917 0.72777,1.15381c0.13206,0.43135 0.02619,0.94264 -0.33378,1.06756c-1.37244,0.47629 -4.6915,0.20759 -4.6915,0.20759c0,0 -1.70625,1.7083 -2.49617,1.73805c-5.26836,0.19843 -4.27856,-1.18226 -5.20649,-1.18226c-3.57982,0 -5.6791,-0.08543 -6.90268,-0.35945c-0.17198,-0.03852 -1.28896,-0.5453 -2.04396,-1.13084c-1.09091,-0.84606 -1.72005,-1.93553 -1.72005,-1.93553z" fill="#fb95a9" stroke="none" stroke-width="0"/><path d="M264.84013,166.10442c0,0 1.52956,-1.17823 3.78012,-1.43765c0.70892,-0.08172 2.80915,-0.06303 3.67136,0.94108c1.13267,1.3191 0.956,3.72747 0.956,3.72747l-2.04681,1.52047c0,0 0.79727,-4.96196 -1.74492,-4.96196c-2.04567,0 -4.61576,0.21059 -4.61576,0.21059z" fill="#000000" stroke="none" stroke-width="0"/><path d="M263.9656,158.87903l-0.13675,3.79055l-2.53012,-6.19124z" fill="#000000" stroke="none" stroke-width="0"/></g><path d="M245.72969,140.84214c0,-3.1402 -3.1386,-10.10814 -0.6838,-10.10814c2.4548,0 7.87809,-0.70437 7.87809,2.43583c0,1.6451 2.95045,8.01008 2.7029,11.02958c-0.22497,2.74415 0.84498,4.53972 -0.32376,4.53972c-2.4548,0 -9.57342,-4.75679 -9.57342,-7.89699z" fill="#fb95a9" stroke="#000000" stroke-width="2"/></g><g data-paper-data="{&quot;index&quot;:null}"><path d="M229.18007,130.87586c2.41131,-2.95149 10.53162,-0.25987 12.59919,3.86227c0.26008,0.51854 1.70637,-0.66733 5.40284,0.98163c0.86997,0.38809 5.3323,2.85511 7.98427,6.04894c1.26983,1.52929 2.1246,3.99593 1.97118,5.03194c-0.22905,2.80784 -2.67033,5.18657 -4.85989,7.14774c-2.87249,2.57284 1.75248,7.33006 -2.40533,7.33006c-3.03121,0 -16.54137,0.60747 -18.69314,-0.7284c-1.28409,-0.79719 -0.53199,-7.61244 -0.88049,-9.01861c-0.48674,-1.96396 -4.99822,-4.40189 -4.99822,-6.61256c0,-2.58633 2.29137,-12.099 3.87959,-14.04301z" fill="#ee1536" stroke="#000000" stroke-width="2"/><path d="M245.29206,151.06497c0,-3.14019 3.56399,-6.94934 7.26523,-7.10728c3.22449,-0.13759 3.97211,2.15654 3.0535,5.15937c-1.10558,3.61402 -4.40634,5.42259 -7.63376,5.42259c-0.06272,0 2.08362,-1.58996 2.84464,-0.28992c1.01358,1.73146 0.66979,6.51156 0.03616,6.86773c-2.98614,1.67855 -13.402,-0.74155 -16.31172,-0.67209c-0.60085,0.01435 -2.90823,0.59035 -3.45604,-1.26733c-0.44915,-1.5231 0.38106,-5.65028 0.34354,-5.65555c-0.60286,-0.08461 -1.36799,-4.06688 -1.36799,-4.06688c0,0 -2.86476,-2.27685 -2.9505,-2.85725c-0.15338,-1.03828 2.10836,-2.8435 2.10836,-2.8435c0,0 1.25189,1.00644 1.97555,1.57762c0.66583,0.52553 1.57561,2.98741 1.57561,2.98741c0,0 4.12841,-5.5717 8.29185,-4.21031c5.58397,1.82588 4.22558,7.21129 4.22558,6.95539z" fill="#9a1652" stroke="none" stroke-width="0"/><path d="M231.8024,160.05495c0.86132,-1.55025 8.52088,-5.58592 9.70316,-7.17085c2.60911,-3.4977 4.57621,-6.08348 4.57621,-6.08348c0,0 0.91108,5.32297 -0.66029,9.58239c-1.16307,3.15265 6.61433,5.47453 5.8723,5.47453c-1.74455,0 -20.27813,-0.38656 -19.49138,-1.80259z" fill="#000000" stroke="none" stroke-width="0"/></g><g data-paper-data="{&quot;index&quot;:null}"><path d="M220.32043,137.45034c0.8478,-4.14085 1.05969,-6.42267 6.00865,-6.09581c3.43927,0.22716 5.83687,5.73249 5.6375,9.96913c-0.21476,4.52163 -3.06549,5.65486 -5.22987,10.53241c-0.32418,0.45941 -0.41178,3.38171 -0.38937,5.48931c0.00209,0.19637 -0.33717,0.64155 -0.76323,1.19886c-0.26544,0.34721 -0.56457,0.73794 -0.83585,1.13913c-0.58792,0.86949 -1.00834,1.82799 -1.00967,2.13136c-0.00063,0.14475 0.8938,0.60237 1.37429,-0.09778c0.59429,-0.86598 0.82022,-2.95493 1.09309,-3.06424c0.60322,-0.24166 -0.26637,2.60026 -0.44615,3.21905c-0.2653,0.91315 -0.4921,0.66222 -0.44475,1.82724c0.09045,2.22613 1.56896,3.47855 2.62602,4.72835c0.70741,0.83638 0.22384,1.81466 0.01145,1.9624c-0.37801,0.26293 -3.54371,-0.54963 -4.05789,-0.44182c-0.39765,0.08337 -1.34654,-0.41873 -3.49097,-0.28041c-0.82355,0.05311 -1.65645,0.78963 -2.63719,0.84893c-0.71638,0.04333 -1.3057,-0.16408 -1.95166,-0.32401c-0.22206,-0.05499 -1.02829,-0.55039 -1.25815,-0.54454c-0.34771,0.00886 -0.82528,0.50283 -1.23178,0.65734c-0.77623,0.29504 -1.60661,0.71437 -2.28854,0.71848c-3.18977,0.01924 -3.26689,-1.95321 -3.26689,-1.95321c0,0 -3.04432,0.06523 -4.03211,-0.43704c-0.75092,-0.38184 -1.55925,-1.0384 -1.38133,-2.31557c0.24894,-1.78689 1.10352,-2.41723 3.08465,-3.31488c2.98491,-1.35246 6.06524,-0.60025 9.46825,-4.05899c3.20388,-3.25635 4.43719,-15.90721 4.7865,-17.61337z" fill="#ffd5d5" stroke="#000000" stroke-width="1.5"/><path d="M207.56714,168.21332c0,0 -3.07229,0.00288 -3.71369,-0.29952c-0.71612,-0.33762 -0.72723,-1.63219 -0.72723,-1.63219c0,0 2.41577,-0.1142 3.38045,-0.2436c0.79242,-0.10629 2.33677,-0.57054 2.33677,-0.57054l-0.52435,2.94002c0,0 1.64547,0.73102 3.17917,0.8577c0.82685,0.0683 0.81717,-1.93904 3.46531,-1.93904c0.98114,0 3.17859,1.30824 4.02568,0.79721c2.1093,-1.2725 5.04158,-5.36843 5.04158,-5.36843c0,0 0.81464,0.24912 0.81464,0.64519c0,0.49924 3.67599,6.40357 3.15662,6.35213c-0.73361,-0.07266 -6.5234,-0.97537 -7.38145,-0.99626c-0.84998,-0.0207 -2.23775,0.97666 -3.09742,0.94459c-0.46569,-0.01736 -0.92766,-0.12958 -1.38038,-0.23592c-0.43517,-0.10222 -0.94769,-0.57256 -1.3608,-0.57442c-0.55722,-0.00251 -0.93268,0.43834 -1.3338,0.53975c-1.2246,0.30959 -1.88782,0.93698 -3.00328,0.86589c-1.46527,-0.09337 -2.87782,-2.08254 -2.87782,-2.08254z" fill="#fb95a9" stroke="none" stroke-width="0"/><path d="M207.31189,168.3117c0,0 1.25348,-3.24591 2.41663,-3.57721c0.61518,-0.17522 1.83386,-0.26084 2.78582,0.09324c0.96988,0.36074 1.90801,1.42448 1.90801,1.42448c0,0 -2.47695,-0.59431 -3.78841,-0.19612c-1.72244,0.52296 -1.74386,3.59542 -1.74386,3.59542z" fill="#000000" stroke="none" stroke-width="0"/><path d="M221.18194,167.867l-0.94496,1.96113l-1.41743,-0.18677z" fill="#000000" stroke="none" stroke-width="0"/></g><g data-paper-data="{&quot;index&quot;:null}"><g><path d="M259.8785,112.67915c2.96549,0.03815 5.33131,3.03873 5.28418,6.70199c-0.04712,3.66326 -2.48934,6.602 -5.45483,6.56385c-2.96549,-0.03814 -5.3313,-3.03872 -5.28417,-6.70198c0.04712,-3.66327 2.48933,-6.60201 5.45482,-6.56386z" fill="#fb95a9" stroke="#000000" stroke-width="2"/><path d="M240.2704,135.00701c-24.94734,-4.01707 -27.59545,-6.90178 -29.15822,-17.01648c-1.56277,-10.11471 13.12037,-10.91705 27.43036,-13.12802c14.30999,-2.21098 21.70786,-3.96794 23.27064,6.14677c0.25493,1.65 -1.42958,11.74091 -1.42958,11.74091c0,0 7.82355,4.16177 6.96632,8.14152c-0.93995,4.29528 -17.64261,5.63484 -27.07953,4.11529z" fill="#ffd5d5" stroke="#000000" stroke-width="2"/><path d="M213.20494,110.8485c0,0 26.5869,-8.12131 32.71385,-9.06796c11.6089,-1.79364 14.30164,4.43674 15.02974,9.14928c0.31802,2.05832 -1.3671,10.44881 -1.3671,10.44881c0,0 -3.87828,-5.33967 -5.99408,-6.63949c-2.40989,-1.48049 -7.49002,-1.8043 -7.49002,-1.8043l-5.71665,6.9261l-6.67226,-7.36169c0,0 -2.9224,5.52283 -5.22792,7.75639c-2.45824,2.3815 -9.09278,6.11725 -9.09278,6.11725l-4.01913,-0.30901c0,0 -3.04708,-4.97527 -3.41464,-7.56012c-0.35308,-2.48284 1.251,-7.6553 1.251,-7.6553z" fill="#fb95a9" stroke="none" stroke-width="0"/><path d="M204.8222,121.41285c-0.48838,-3.16083 -0.67579,-3.83762 1.0531,-5.59635c1.38606,-1.40997 8.04888,2.44535 8.53725,5.60619c0.48838,3.16085 -0.01106,6.28772 -1.96505,6.58962c-1.95398,0.30189 -7.04044,-2.81427 -7.62528,-6.59947z" fill="#ffd5d5" stroke="#000000" stroke-width="2.5"/><path d="M212.42292,127.16376c-0.69735,0.10774 -3.44052,-0.9607 -4.70084,-2.50174c-0.78682,-0.96207 -1.29555,-2.23395 -1.61725,-3.34323c-0.39452,-1.36035 0.54512,-2.12993 1.87975,-1.58816c2.23223,0.90613 5.25252,2.3592 5.45258,3.65397c0.31966,2.06891 0.6524,3.52165 -1.01423,3.77915z" fill="#fb95a9" stroke="none" stroke-width="0"/><path d="M207.65457,119.05749c-0.09768,-0.63218 6.37569,5.40746 6.37569,5.40746l-0.63864,2.76223c0,0 -5.63938,-7.53753 -5.73705,-8.16971z" fill="#000000" stroke="none" stroke-width="0"/><path d="M211.52795,128.16891c-0.51021,-1.79784 0.97987,-3.48833 3.04547,-4.01142c2.06557,-0.52308 4.32773,-1.27841 5.41734,1.74365c0.1918,0.53197 1.35441,4.02825 -0.07938,5.87089c-0.22348,0.28722 -1.52852,1.40675 -2.92174,1.66799c-1.92405,0.36077 -3.14182,-0.02013 -3.14182,-0.02013c0,0 2.10547,-1.87647 1.87855,-2.01076c-0.72373,-0.42829 -3.76974,-1.72967 -4.19842,-3.2402z" fill="#6d0f0a" stroke="#000000" stroke-width="2"/><path d="M188.42651,120.11055c0,0 6.64077,-0.86594 8.73159,-3.14488c2.10751,-2.29716 3.67088,-11.83249 3.67088,-11.83249c0,0 23.10488,-1.26952 32.79998,-2.76747c8.97754,-1.38706 16.85753,-2.58009 22.63045,-3.44657c6.27458,-0.94176 12.01698,1.36264 13.31688,6.16656c0.32169,1.18883 0.754,2.79001 0.93103,4.15527c0.80918,6.24022 -1.0092,12.09045 -1.0092,12.09045c0,0 -5.83153,-7.11692 -8.63983,-10.18946c-3.47324,-3.80003 -8.99743,-7.00651 -8.99743,-7.00651c0,0 -0.53489,3.97071 -1.9185,6.62181c-1.43229,2.74432 -4.59754,2.90981 -4.59754,2.90981c0,0 -0.52795,-3.143 -1.26454,-4.54342c-0.67804,-1.28913 -1.93396,-3.71978 -1.88997,-2.54786c0.04424,1.1789 -0.23908,4.02044 -0.33708,5.41436c-0.25368,3.60774 -0.77047,4.13986 -0.77047,4.13986c0,0 -2.13479,-3.02632 -4.2657,-5.84409c-1.81184,-2.39585 -4.51879,-3.58678 -4.51879,-3.58678c0,0 -4.24071,4.9595 -6.72983,7.0405c-2.24854,1.87986 -7.17938,4.84512 -7.17938,4.84512c0,0 2.99432,7.85051 -1.03623,7.86703c-2.84865,0.01169 -4.11944,-0.38098 -5.72584,-1.43968c-0.96304,-0.6347 -1.51754,-3.58348 -1.51754,-3.58348l2.1314,0.33262c0,0 -1.82858,-6.07625 -3.19501,-6.30315c-2.40594,-0.39951 -0.66453,-0.88305 -4.11477,-0.26183c-0.5022,0.09042 -1.57742,3.24783 -1.08097,6.04446c0.533,3.00246 2.66011,5.65524 2.66011,5.65524c0,0 -4.28488,2.31063 -7.91444,0.59657c-7.4324,-3.50996 -10.16926,-7.38199 -10.16926,-7.38199z" fill="#6d0f0a" stroke="#000000" stroke-width="1.5"/><path d="M245.03796,103.64772c-0.96914,0.14974 -2.38559,-0.78889 -4.35961,-0.62703c-2.13866,0.17534 -4.84382,1.45301 -5.95611,1.6639c-16.0644,3.0459 -33.87698,6.84831 -33.87698,6.84831c0,0 0.3969,-2.66798 0.29011,-3.93659c-0.11409,-1.35536 -0.64203,-4.00079 -0.64203,-4.00079c0,0 22.15321,-0.59837 35.16011,-2.608c8.3461,-1.28952 17.08892,-2.98851 22.6933,-3.05611c5.93426,-0.07159 8.92811,1.46032 8.92811,1.46032l1.88975,6.69232l-2.60488,-0.29915l-6.94952,-5.50031c0,0 -10.12674,2.67625 -14.57228,3.36312z" fill="#6d0f0a" stroke="none" stroke-width="0"/><path d="M238.50926,131.88337c-1.24193,0.01759 -1.91128,-1.11107 -2.45551,-2.2111c-0.61396,-1.24102 -1.01629,-2.48276 -0.91386,-2.70198c0.15762,-0.33732 9.00778,0.82294 9.08278,1.20694c0.07156,0.36638 -1.13462,1.34686 -2.74441,2.31698c-0.90701,0.54659 -1.89826,1.37399 -2.969,1.38915z" fill="#ef3d61" stroke="#000000" stroke-width="1.5"/><path d="M243.58266,120.07233c-0.29657,-1.91948 -0.2177,-5.29396 2.55458,-6.82948c0.49774,-0.27572 1.71007,-0.34982 3.07995,-0.10046c1.40409,0.25558 2.62856,0.84923 2.9816,0.9904c0.69745,0.27892 1.90142,-0.20767 1.90142,-0.20767c0,0 1.15483,-0.76775 1.78993,-1.34722c0.53318,-0.48647 1.69146,-2.39917 1.69146,-2.39917c0,0 0.1374,1.49592 -0.83938,3.23318c-0.40251,0.71589 -1.57368,2.03342 -1.57368,2.03342c0,0 1.03749,-0.0108 2.17262,-0.3743c0.85265,-0.27303 2.86507,-1.82951 2.86507,-1.82951c0,0 -0.76818,1.81415 -1.36036,2.62044c-0.40891,0.55676 -1.49819,1.30735 -1.49819,1.30735l-0.09111,1.03679c0,0 -1.70954,-1.64662 -2.54736,-1.95754c-0.67742,-0.25139 -2.24551,0.1268 -2.24551,0.1268c0,0 0.84831,7.67003 -3.99485,8.29048c-3.77625,0.48378 -4.39782,-1.43264 -4.88618,-4.59348z" fill="#000000" stroke="none" stroke-width="0"/><path d="M220.87541,112.65638c0,0 1.74905,1.51298 2.68414,1.989c0.8606,0.43808 2.22482,0.3068 2.22482,0.3068c0,0 -0.41796,-0.70493 -0.83762,-1.4402c-0.43768,-0.76686 -1.22955,-3.00647 -1.22955,-3.00647c0,0 1.45959,1.60079 2.17927,2.13215c0.68824,0.50815 2.28894,1.16542 2.28894,1.16542c0,0 2.55545,-0.44371 4.23965,-0.70392c4.40877,-0.68118 7.75155,1.99862 7.75155,1.99862c0,0 -2.49906,-0.30324 -3.36808,-0.37852c-0.61729,-0.05349 -1.33269,0.10812 -1.33269,0.10812c0,0 1.4491,8.38804 -4.83753,9.43038c-5.14908,0.85374 -4.79234,-6.31714 -5.04908,-6.66801c-0.18601,-0.2542 -1.19606,-0.99855 -1.19606,-0.99855c0,0 -1.54269,-0.67772 -2.09975,-1.28715c-0.60602,-0.66299 -1.418,-2.64768 -1.418,-2.64768z" fill="#000000" stroke="none" stroke-width="0"/></g><path d="M268.75756,104.13743c0,0 -0.74088,-2.66313 -1.21338,-3.98723c-0.45183,-1.26615 -1.56245,-3.79124 -1.56245,-3.79124c0,0 1.1571,0.53734 2.07306,2.76709c0.59864,1.45729 2.08834,5.24703 2.08834,5.24703z" fill="#000000" stroke="none" stroke-width="0"/></g><g data-paper-data="{&quot;index&quot;:null}"><path d="M255.19958,182.67555c-1.00101,-2.204 -1.48204,-4.3489 -0.72825,-4.96606c2.33239,-1.90961 13.28484,-2.98899 13.38878,-2.98899c6.31528,0 14.84633,4.70166 14.84633,7.42317c0,2.15815 -5.66177,5.08636 -11.867,4.87772c-9.17694,-0.30857 -12.61375,-4.42959 -12.80984,-4.64776c-0.77835,-0.86597 0.94691,1.54978 1.61014,2.51138c0.76014,1.10213 2.09503,1.87099 1.91005,2.94778c-0.21138,1.23048 -1.04517,0.91066 -1.93413,0.37576c-1.07219,-0.64516 -2.75079,-1.86638 -4.41608,-5.533z" fill="#ee1536" stroke="#000000" stroke-width="1.5"/><path d="M224.16344,165.33483c0,-3.59654 1.88208,-6.79388 5.00437,-9.12732c4.14737,-3.09953 10.28977,-4.77137 15.23297,-4.77137c5.31995,0 12.36793,-0.19935 14.37465,2.09274c0.5447,0.62216 0.11605,3.35746 0.47021,5.96384c0.20355,1.49801 1.01152,5.12835 2.06489,8.05201c0.76659,2.12772 1.6857,4.5633 2.81912,4.87357c4.6996,1.28652 11.33458,3.83886 9.65309,6.39177c-1.27777,1.93997 -8.71321,2.17386 -14.6326,0.37436c-5.32793,-1.61969 -9.13974,-5.17457 -11.08352,-5.65964c-3.29754,-0.8229 -10.29591,1.43415 -13.65474,0.96798c-2.18858,-0.30375 -4.10262,-1.02669 -5.53901,-1.79684c-3.55989,-1.90871 -4.7094,-5.13615 -4.7094,-7.3611z" fill="#ffd5d5" stroke="#000000" stroke-width="1.5"/><path d="M254.40497,161.63252c0,0 1.5473,-1.13661 2.20683,-1.84011c0.59795,-0.63781 1.58373,-2.20314 1.58373,-2.20314c0,0 0.47515,2.43192 0.69523,3.67533c0.19897,1.12418 0.56829,3.46354 0.56829,3.46354c0,0 -2.16472,-0.56777 -3.07746,-1.12683c-0.7315,-0.44803 -1.97661,-1.96878 -1.97661,-1.96878z" fill="#fb95a9" stroke="none" stroke-width="0"/><path d="M275.08882,178.59434c0.16969,-0.35395 1.67522,-0.13645 2.97302,0.48578c1.2978,0.62223 2.68613,2.36122 2.51643,2.71517c-0.1697,0.35394 -1.51728,-1.12707 -2.81508,-1.7493c-1.29779,-0.62223 -2.84406,-1.0977 -2.67436,-1.45165z" fill="#fc9ea5" stroke="none" stroke-width="0"/></g><g data-paper-data="{&quot;index&quot;:null}"><path d="M231.01662,186.66842c2.5441,-6.35721 7.6863,-8.12709 12.34285,-6.26357c4.65656,1.86351 6.54811,7.90162 4.004,14.25883c-2.5441,6.35722 -11.22418,11.88722 -14.69074,10.29339c-3.43224,-1.57805 -4.378,-11.60389 -1.83389,-17.9611z" fill="#ee1536" stroke="#000000" stroke-width="1.5"/><path d="M233.5181,183.89079c0,0 2.00422,-2.86118 4.30555,-3.50609c0.77193,-0.21631 4.08674,0.23689 6.56763,1.86017c1.68622,1.10331 2.8021,3.19439 3.19142,4.24588c0.67057,1.81111 0.10967,3.76134 0.10967,3.76134c0,0 -1.81828,1.66589 -5.43619,1.54424c-1.90251,-0.06397 -4.61734,-2.13774 -6.33064,-4.2466c-1.54479,-1.90145 -2.40744,-3.65892 -2.40744,-3.65892z" fill="#9a1652" stroke="none" stroke-width="0"/><path d="M237.96926,174.10227c0.55432,-7.08643 2.21505,-10.84502 10.62649,-10.5467c4.91806,0.17442 6.52345,5.86357 6.20118,8.26798c-1.07822,8.0444 -9.74893,15.13352 -9.74893,15.13352c0,0 1.38491,8.01261 -6.9327,9.02219c-4.06733,0.49369 -4.09452,-6.52097 -3.42123,-8.22854c1.22234,-3.10001 3.42075,-4.916 3.42075,-4.916c0,0 -0.3919,-5.5836 -0.14558,-8.73245z" fill="#ffd5d5" stroke="#000000" stroke-width="1.5"/><path d="M245.10261,175.45959c-0.98594,-0.64 -1.21165,-1.61216 -1.54278,-2.57662c-0.39958,-1.16379 -0.68288,-4.079 -0.68288,-4.079c0,0 1.88781,1.43735 2.95744,2.05164c1.0526,0.6045 3.57324,1.45269 3.57324,1.45269c0,0 -1.55297,2.41034 -2.26572,2.89984c-0.66241,0.45494 -1.05335,0.89143 -2.03929,0.25145z" fill="#fb95a9" stroke="none" stroke-width="0"/><path d="M235.86951,202.12272c-0.64171,-0.03296 1.51192,-1.05037 2.3367,-1.53259c0.91489,-0.5349 2.82616,-2.37563 2.86295,-2.00666c0.07441,0.74608 -1.44675,2.17702 -2.28268,2.66576c-0.90726,0.53045 -1.82762,0.92947 -2.91696,0.87351z" fill="#fc9ea5" stroke="none" stroke-width="0"/></g></g></g></svg>