<svg version="1.1" xmlns="http://www.w3.org/2000/svg" xmlns:xlink="http://www.w3.org/1999/xlink" width="258.66668" height="258.66668" viewBox="0,0,258.66668,258.66668"><g transform="translate(-107.43871,-52.08781)"><g data-paper-data="{&quot;isPaintingLayer&quot;:true}" fill-rule="nonzero" stroke-linejoin="miter" stroke-miterlimit="10" stroke-dasharray="" stroke-dashoffset="0" style="mix-blend-mode: normal"><path d="M107.43871,310.75449v-258.66667h258.66667v258.66667z" data-paper-data="{&quot;index&quot;:null}" fill="none" stroke="none" stroke-width="0" stroke-linecap="butt"/><path d="M107.43872,310.75449v-258.66667h258.66667v258.66667z" data-paper-data="{&quot;index&quot;:null}" fill="none" stroke="none" stroke-width="0" stroke-linecap="butt"/><g data-paper-data="{&quot;index&quot;:null}" stroke="#000000" stroke-width="3" stroke-linecap="butt"><path d="M261.72242,186.46299c0,0 -1.49335,11.19408 -9.74317,10.94042c-3.82615,-0.11764 -20.66586,-4.77566 -23.61775,-10.62015c-6.42943,-12.72971 -3.76122,-21.48668 -3.76122,-21.48668c0,0 3.91368,-3.19019 6.44728,-2.9778c7.27166,0.60955 8.43659,5.03943 8.43659,5.03943c0,0 0.44468,2.07463 1.13196,3.31864c0.75805,1.37212 3.22487,4.56746 3.22487,4.56746c0,0 15.56053,0.32395 16.06366,1.53825c0.22419,0.54106 1.81777,9.68045 1.81777,9.68045z" fill="#9362ec"/><path d="M259.96955,181.58304c0,0 16.15146,-0.38015 20.89338,2.86762c7.4688,5.11542 4.65929,14.85398 3.35942,15.86573c-4.07002,3.1679 -19.0362,4.59382 -19.0362,4.59382c-2.9667,-0.00903 -10.45489,-0.29304 -12.67353,-1.01374c-3.49548,-1.13547 -3.21635,-5.72116 -3.05657,-10.36329c0.26375,-7.66241 2.85108,-12.21387 10.5135,-11.95012z" fill="#c172b1"/></g><g data-paper-data="{&quot;index&quot;:null}" stroke-linecap="butt"><path d="M274.76074,223.27988c0,0 -17.48195,7.31916 -29.72415,8.93031c-14.25569,1.87613 -50.69283,1.65307 -50.69283,1.65307l-5.99601,-37.38324c0,0 24.80098,-6.63749 50.51085,-1.7282c12.68707,2.42259 38.29394,16.79263 38.54744,17.09117c1.37508,1.61934 -2.6453,11.43688 -2.6453,11.43688z" fill="#0066cc" stroke="#000000" stroke-width="3"/><path d="M209.2399,215.78302c0,0 0.00784,-1.27446 0.38853,-2.61186c1.63446,-5.74202 7.43996,-20.48951 21.46322,-20.48951c17.28945,0 29.60058,13.50079 29.60058,13.50079c0,0 -5.59417,2.59776 -7.93487,4.46378c-2.71319,2.16298 -7.39239,7.75528 -7.39239,7.75528l-4.50977,-1.41841c0,0 3.37386,-5.46966 2.50212,-6.02072c-2.70697,-1.71119 -12.76309,-0.76554 -21.31319,1.12043c-7.07228,1.56 -12.80421,3.70021 -12.80421,3.70021z" fill="#0f1b82" stroke="none" stroke-width="0"/><path d="M242.43179,214.52365c-1.78544,4.20673 -5.61072,8.0316 -8.34951,11.67489c-0.93211,1.44168 -3.20215,1.86436 -3.25121,-0.46373c-0.04705,-2.23248 2.8187,-6.11253 4.37613,-7.61548c2.08147,-2.51498 5.33991,-5.95458 8.61442,-7.05121l-0.25552,1.12606c0,0 -0.79299,1.50251 -1.13431,2.32947z" fill="#000000" stroke="none" stroke-width="0.5"/></g><g data-paper-data="{&quot;index&quot;:null}" stroke-linecap="butt"><g><path d="M224.15254,250.80472c-0.38679,-2.09171 -2.54574,-9.74044 1.11813,-12.11203c6.97032,-4.51181 23.81301,-3.42431 35.37451,-3.42431c32.83924,0 45.3888,10.32882 52.28679,19.62528c2.76985,3.73295 -0.14618,10.00747 -4.49918,14.38779c-8.3769,8.42945 -45.35421,5.7661 -62.27341,-11.28211c0,0 -21.03935,-1.9628 -22.00684,-7.19462z" fill="#ab9efa" stroke="#000000" stroke-width="3"/><path d="M246.34543,257.08164c0,0 -15.69247,-1.10857 -19.39637,-4.75286c-5.64612,-5.55526 0.00637,-13.35996 12.98123,-13.35996c19.54892,0 42.06483,15.08628 47.74728,27.69039c0.5632,1.24924 1.10741,2.36244 1.64235,3.30036c-0.80005,1.08493 -1.78419,2.14474 -3.12198,2.30446c-11.37258,1.35778 -25.43572,-5.93878 -25.43572,-5.93878c0,0 -7.2564,-3.8156 -9.91738,-5.52175c-1.79234,-1.14922 -4.49942,-3.7219 -4.49942,-3.7219z" fill="#9362ec" stroke="none" stroke-width="0"/></g><g><g><path d="M227.74983,243.55179c0,0 -0.75532,-12.82437 8.21919,-23.98326c0.97853,-1.2167 4.36512,-1.23367 7.64145,0.69358c4.04813,2.38123 7.90113,8.62032 7.90113,8.62032c0,0 12.22439,-8.63913 16.05194,-8.63913c4.80385,0 10.15772,-1.41867 14.63809,3.59915c0.82778,0.92708 -1.53124,2.90261 -0.64725,3.85381c4.09102,4.40213 9.665,8.47298 13.345,11.91182c12.21536,5.64627 15.82166,18.23626 9.9416,21.77162c-10.24194,6.15791 -30.1246,1.84084 -42.76728,-3.96614c-7.0338,-3.23074 -10.14017,-8.01582 -11.58862,-8.67076c-2.5788,-1.16604 -6.95327,0.5213 -11.09875,-0.34813c-5.99947,-1.25826 -11.63647,-4.84294 -11.63647,-4.84294z" fill="#ae1c51" stroke="#000000" stroke-width="3"/><path d="M251.25335,231.53267c0,0 1.0576,-1.64038 1.66596,-2.51531c0.91969,-1.32269 3.83954,-4.14639 3.83954,-4.14639c0.06565,2.92574 2.57043,4.17464 2.57043,4.17464c0,0 18.36998,-2.66719 23.35501,6.72382c2.03021,3.82459 -1.34589,9.74411 -1.34589,9.74411c0,0 7.45269,3.46687 9.14059,7.92202c1.86458,4.9215 1.34533,9.56803 1.34533,9.56803c0,0 -5.06454,-0.29845 -9.59503,-1.01669c-3.94432,-0.62531 -7.13142,-1.04457 -10.70127,-1.99075c-3.69714,-0.97992 -8.15221,-2.90102 -12.04068,-5.30793c-3.01732,-1.86768 -5.51964,-4.86486 -8.17007,-7.10479c-2.20589,-1.22348 -6.48809,-0.04262 -10.49319,-0.25367c-5.19528,-0.27378 -8.25408,-1.64871 -12.34026,-4.73434c-3.9395,-2.97487 1.34049,-12.14245 4.17019,-14.86858c1.3511,-1.30165 1.43966,-2.42867 2.23167,-3.96081c0.86676,-1.67672 2.43496,-3.73115 3.98378,-4.4089c1.72668,-0.75561 4.73123,-1.10601 4.73123,-1.10601l-2.40728,5.06538c0,0 5.08691,5.44073 6.98383,7.00325c0.97931,0.80666 3.07612,1.21292 3.07612,1.21292z" fill="#710c65" stroke="none" stroke-width="0"/><path d="M234.02706,231.61527c-0.28005,-0.25596 -0.53455,-0.68744 -0.26445,-1.33431c0.39848,-0.95428 1.28628,-0.81486 1.59518,-0.7329c1.16969,-0.6585 2.13443,0.56948 2.90427,1.63964c1.34965,1.87618 2.06698,4.61334 0.00719,5.20713c-2.55669,0.73705 -4.34287,-2.49171 -4.24219,-4.77954z" fill="#000000" stroke="none" stroke-width="0.5"/></g><g><g><path d="M275.56561,248.79976c-2.85954,-1.16446 0.34497,-7.3516 5.63962,-10.72873c5.24892,-3.34798 12.62959,-3.52325 13.10618,0.07609c0.61275,4.62752 -1.82046,1.90225 -9.92892,4.33714c-6.06974,1.82268 -4.33556,8.14036 -8.81689,6.31549z" fill="#ab9efa" stroke="#000000" stroke-width="2.5"/><path d="M276.72336,247.87953c0,0 -1.66506,0.61566 -1.162,-0.46288c0.20378,-0.43693 1.152,-3.78862 1.70563,-4.50039c0.69196,-0.88961 1.65787,-1.56865 1.65787,-1.56865c0,0 1.38312,0.44535 1.79063,0.85803c0.39697,0.40202 0.09237,1.15948 0.09237,1.15948c0,0 -2.21776,4.51441 -4.08449,4.51441z" fill="#9362ec" stroke="none" stroke-width="0"/></g><g><path d="M266.2721,242.5603c-3.76317,-1.42449 -1.41974,-8.68851 6.27508,-10.72873c11.4791,-3.0436 16.68916,-0.59167 16.21012,2.23589c-0.31771,1.87538 -4.34608,-1.4984 -13.3628,2.91484c-7.10983,3.47991 -5.70429,6.87187 -9.12239,5.57801z" fill="#ab9efa" stroke="#000000" stroke-width="2.5"/><path d="M267.52263,242.25298c0,0 -1.82997,-0.67738 -1.79954,-2.34646c0.02629,-1.441 1.14447,-4.53932 2.23398,-4.63815c0.75778,-0.06874 2.3242,-0.05456 3.15903,0.55349c1.0239,0.74576 0.68043,1.82903 0.68043,1.82903c0,0 -3.44692,3.48959 -4.27391,4.60212z" fill="#9362ec" stroke="none" stroke-width="0"/></g><g><path d="M257.57678,235.33227c0,-3.23582 4.0598,-10.04391 10.57431,-10.04391c4.45561,0 8.91047,-0.35913 10.22143,1.81943c2.23134,3.70806 -6.88969,2.29431 -11.17461,3.50686c-6.24763,1.76796 -9.62115,7.95339 -9.62115,4.71759z" fill="#ab9efa" stroke="#000000" stroke-width="2.5"/><path d="M258.76072,234.36018c0,0 1.07244,-2.71828 1.84047,-3.68581c0.59995,-0.7558 1.86506,-2.01929 1.86506,-2.01929l2.25902,1.62652l-5.96456,4.07858z" fill="#9362ec" stroke="none" stroke-width="0"/></g></g></g></g><g data-paper-data="{&quot;index&quot;:null}" stroke-linecap="butt"><path d="M263.86275,206.81646c0,0 -34.17054,-17.63787 -55.67575,7.0806c-10.41253,-4.09137 -23.79164,-38.30552 -23.79164,-38.30552l40.7172,-13.51811c0,0 4.81905,5.3144 7.15747,9.05888c2.86488,4.58752 8.77535,16.45416 8.77535,16.45416c0,0 17.61879,8.39661 21.24395,11.45182c3.95233,3.33093 1.57342,7.77816 1.57342,7.77816z" fill="#ab9efa" stroke="#000000" stroke-width="3"/><path d="M219.64928,168.31294c0,0 -8.9277,1.39915 -18.37634,4.1406c-7.80422,2.26432 -17.09843,8.32433 -15.77974,7.94818c0.12807,-0.03653 -0.49694,-2.12224 -0.44264,-4.58247c0.02127,-0.96306 0.77151,-0.66213 2.46446,-1.28895c10.67417,-3.9521 34.5758,-9.78158 35.30508,-9.78158c6.38341,0 10.53533,11.08865 10.53533,11.08865c0,0 -1.90167,-2.17813 -9.30792,-4.75228c-6.00783,-2.08812 -4.39824,-2.77217 -4.39824,-2.77217z" fill="#9362ec" stroke="none" stroke-width="0"/><path d="M236.63911,192.14908c-2.12976,-2.5763 -5.1168,-4.69838 -8.5164,-6.14582c-0.30394,-0.12941 -4.21835,6.39932 -4.58787,6.27265c-0.70694,-0.24232 -4.19671,0.38049 -3.9146,-1.62801c0.08383,-0.5969 4.90067,-5.81215 4.717,-5.8633c-3.40715,-0.94867 -7.51037,-1.01528 -7.51037,-1.01528c0,0 -4.14624,0.03606 -4.60791,0.79737c-0.24649,0.40649 0.62843,0.72195 0.90646,1.10891c0.95368,1.32734 1.79206,2.36483 3.25913,3.20404c4.67886,2.05111 9.93058,4.5383 14.9149,5.62661c1.68633,0.3682 5.45921,0.23528 5.48731,-0.11407c0.06727,-0.83626 0.14105,-1.46263 -0.14766,-2.24312zM226.8893,182.08705c4.96964,1.55805 10.1074,5.36699 12.70708,8.67131c1.83021,4.82875 0.28704,7.04054 -4.96757,6.34754c-6.11514,-0.8065 -13.72862,-3.25059 -19.32497,-5.72116c-1.94242,-1.14026 -7.71019,-5.29593 -6.69807,-7.98039c0.78624,-2.08536 6.34106,-2.07491 6.40819,-2.09458c0.16831,-0.12458 6.70808,-0.84272 11.87534,0.77728z" fill="#b4052c" stroke="none" stroke-width="0.5"/></g><path d="M200.97937,191.72832c0,-2.67929 0.91917,-2.83761 3.12229,-2.83761c2.20313,0 3.46902,0.07442 3.46902,2.75371c0,2.67929 -1.38865,6.52935 -1.38865,6.52935c0,0 -5.20265,-3.76616 -5.20265,-6.44545z" data-paper-data="{&quot;index&quot;:null}" fill="#9362ec" stroke="none" stroke-width="0" stroke-linecap="butt"/><g data-paper-data="{&quot;index&quot;:null}"><g><g stroke-linecap="butt"><path d="M146.666,253.77733c0,-1.04943 1.74789,-3.4769 3.32592,-4.37217c1.29852,-0.7367 2.48201,-0.04879 2.48201,-0.04879c0,0 -1.91124,4.41407 1.56902,7.33822c8.01236,6.73209 22.03806,16.93218 38.42859,16.93218c11.39167,0 17.96453,0.19527 23.64829,-7.12428c5.16391,-6.65009 9.82496,-21.01478 12.29837,-18.57015c0.55545,0.54899 2.13532,2.51116 1.88866,3.86088c-0.26865,1.46999 -2.42026,2.36035 -3.15497,3.66914c-0.6199,1.1043 1.00459,19.44527 -6.59369,23.39555c-12.30595,6.39776 -17.7447,8.09061 -36.7625,4.89338c-26.15064,-4.39638 -37.12968,-13.4934 -37.12968,-29.97401z" fill="#ab9efa" stroke="#000000" stroke-width="3"/><path d="M148.01336,262.43919c0,0 18.7864,15.30367 41.57099,18.02186c34.4004,4.10394 35.96019,-10.16619 35.96019,-10.16619c0,0 -2.62966,13.55492 -25.58868,13.55492c-8.59731,0 -27.09838,-2.27812 -35.60667,-5.89906c-14.21299,-6.04872 -16.33582,-15.51154 -16.33582,-15.51154z" fill="#9362ec" stroke="none" stroke-width="0"/></g><g><g><path d="M149.6394,252.9487c4.15411,-8.73501 19.08386,-14.48506 19.08386,-14.48506c0,0 -11.10475,-0.82777 -9.56429,-1.76295c0.83701,-0.50813 -0.01058,-10.0637 3.21909,-9.13662c5.48996,1.57589 18.59332,3.46392 18.59332,3.46392c0,0 -3.08725,-8.84292 5.25727,-9.76815c10.59759,-1.17504 24.25923,0.29043 31.20555,2.5307c2.11102,0.68082 2.34508,3.23105 0.88912,6.42045c-1.84545,4.04261 -5.39298,10.16861 -5.39298,10.16861c0,0 5.4378,-8.69753 5.79612,-9.0072c2.47425,-2.13838 9.51008,-8.447 13.02815,-6.13837c2.78717,1.82899 3.97059,10.09428 1.50564,13.95266c-0.60893,0.95313 -7.02199,6.13643 -9.05902,10.09266c-2.0316,3.94566 0.25767,11.33844 -2.05744,15.75073c-3.97075,7.56768 -13.35973,11.5212 -22.59569,11.5212c-24.67453,0 -53.96498,-15.07339 -49.90873,-23.60261z" fill="#ae1c51" stroke="#000000" stroke-width="3" stroke-linecap="butt"/><path d="M199.88435,236.18944c-2.09137,0 -17.74497,3.96872 -25.34557,3.82457c-1.98812,-0.03772 -4.66146,-2.70872 -4.93165,-3.01803c-2.97976,-3.41119 -8.84127,-6.80601 -7.5545,-7.52735c7.355,-4.12302 40.22037,-3.13729 40.22037,-3.13729c0,0 1.72513,2.89041 1.72513,6.01105c0,3.12062 -1.47535,3.84707 -4.11376,3.84707z" fill="#710c65" stroke="none" stroke-width="0" stroke-linecap="butt"/><path d="M164.19228,260.35743c0.5308,-0.72501 1.56059,-4.14625 23.96599,-0.69328c17.38339,2.67903 24.85026,9.29723 24.85026,9.29723l7.60865,-3.79511c0,0 -1.26836,10.93308 -25.29964,10.21177c-5.93965,-0.17829 -20.06015,-3.95349 -30.07839,-8.55542c-7.87277,-3.6164 -12.40896,-7.78567 -13.14702,-8.9299c-3.03677,-4.70794 -0.10652,-8.60903 5.55043,-13.12061c0.01571,9.65759 5.87926,16.50106 6.54971,15.58534z" fill="#710c65" stroke="none" stroke-width="0" stroke-linecap="butt"/><path d="M226.4248,240.63764l4.11376,-4.08751" fill="none" stroke="#000000" stroke-width="2.5" stroke-linecap="round"/></g><g stroke-linecap="butt"><g><path d="M167.63594,251.03673c0,-1.6968 3.98431,-2.85885 19.3692,-2.85885c15.3849,0 22.63367,5.30246 22.63367,9.16805c0,3.86559 -6.37825,-2.46452 -21.76314,-2.46452c-15.3849,0 -20.23973,-3.528 -20.23973,-3.84467z" fill="#f0f0f0" stroke="none" stroke-width="0"/><path d="M175.78157,239.18996c0,-3.78909 7.49183,-3.39707 19.99855,-3.39707c12.50672,0 19.85151,5.33635 19.85151,9.12542c0,3.78907 -8.23002,-3.55058 -20.7338,-3.7967c-13.53605,-0.26643 -19.11627,1.85741 -19.11627,-1.93166z" fill="#f0f0f0" stroke="none" stroke-width="0"/><path d="M172.02889,244.52666c0,-2.06007 5.67877,-3.27182 16.98701,-2.3393c16.82651,1.38759 24.41001,5.40012 24.41001,7.4602c0,2.06006 -12.80765,-1.73184 -23.5277,-1.73184c-10.72004,0 -17.8693,-1.32899 -17.8693,-3.38907z" fill="#f0f0f0" stroke="none" stroke-width="0"/><path d="M185.0218,251.33731c-0.8805,-0.27292 -6.05863,-3.07046 -8.27527,-6.95124c-1.86041,-3.25711 -0.08497,-6.99439 -0.08497,-6.99439c0,0 12.46651,-1.52561 17.10639,-1.22029c4.72921,0.31121 10.83089,1.35634 10.83089,1.35634c0,0 -14.41278,15.41025 -19.57704,13.80958z" fill="#db93e6" stroke="none" stroke-width="0"/><path d="M175.78157,239.18996c0,-3.78909 7.49183,-3.39707 19.99855,-3.39707c12.50672,0 19.85151,5.33635 19.85151,9.12542c0,3.78907 -8.23002,-3.55058 -20.7338,-3.7967c-13.53605,-0.26643 -19.11627,1.85741 -19.11627,-1.93166z" fill="#ab9efa" stroke="#000000" stroke-width="2.3"/></g><path d="M167.63594,251.03673c0,-1.6968 3.98431,-2.85885 19.3692,-2.85885c15.3849,0 22.63367,5.30246 22.63367,9.16805c0,3.86559 -6.37825,-2.46452 -21.76314,-2.46452c-15.3849,0 -20.23973,-3.528 -20.23973,-3.84467z" fill="#ab9efa" stroke="#000000" stroke-width="2.3"/><path d="M172.02889,244.52666c0,-2.06007 5.67877,-3.27182 16.98701,-2.3393c16.82651,1.38759 24.41001,5.40012 24.41001,7.4602c0,2.06006 -12.80765,-1.73184 -23.5277,-1.73184c-10.72004,0 -17.8693,-1.32899 -17.8693,-3.38907z" fill="#ab9efa" stroke="#000000" stroke-width="2.3"/></g></g></g><path d="M215.40057,242.45599l-1.99715,-1.38856c0,0 5.12315,-7.98946 7.68482,-9.81596c1.45111,-1.19201 6.64699,-4.71575 6.64699,-4.71575l2.67063,4.84491z" fill="#710c65" stroke="none" stroke-width="0" stroke-linecap="butt"/></g><g data-paper-data="{&quot;index&quot;:null}" stroke-linecap="butt"><path d="M178.62267,213.15821c0,0 1.67021,-2.98515 2.79994,-4.44576c1.36139,-1.76016 4.80385,-5.38515 4.80385,-5.38515c0,0 -4.83541,-7.41642 -3.76856,-13.04124c0.72001,-3.79614 6.51705,-4.79125 8.79994,-4.79125c4.23101,0 6.412,-1.13942 9.3369,3.43233c3.50718,5.48188 7.51,15.51585 7.51,21.61032c0,11.17711 -6.4897,10.91975 -15.79398,10.91975c-9.30429,0 -13.6881,-8.29902 -13.6881,-8.29902z" fill="#aa96c7" stroke="#000000" stroke-width="2.5"/><path d="M185.77372,199.22122c-0.36651,0.61997 -2.45548,-5.44306 -2.12421,-6.77236c0.82655,-3.31667 6.37208,-6.51729 9.03727,-6.51729c1.80797,0 3.79561,0.33862 5.22064,1.71695c2.60188,2.51665 4.76502,7.95276 4.76502,7.95276c0,0 -3.52284,-2.82666 -9.08314,-1.95308c-3.48491,0.54752 -6.99584,4.18641 -7.81557,5.57302z" fill="#c172b1" stroke="none" stroke-width="0"/></g><g data-paper-data="{&quot;index&quot;:null}" stroke="none" stroke-linecap="butt"><path d="M206.17085,190.18931c-0.00422,-0.01273 -5.2158,-2.60566 -7.60112,-2.60388c-2.72018,0.00202 -6.59158,-1.49519 -9.07367,-0.95246c-2.91766,0.63796 -4.42056,3.4104 -7.32415,4.65867c-0.99458,0.80743 -3.64618,4.10432 -5.13947,3.04822c-1.07962,-0.76353 0.41397,-4.16381 0.62535,-4.97774c0.8779,-3.38043 2.07203,-5.05289 4.21474,-7.90161c1.51146,-2.00947 2.53244,-5.63567 5.45092,-5.74846c7.31315,0 16.56074,5.89283 19.85039,12.90592c0.09024,0.07998 1.31236,1.72081 0.5846,1.95562c-0.72778,0.23482 -1.5876,-0.38427 -1.5876,-0.38427z" fill="#ab9efa" stroke-width="0.5"/><path d="M184.2753,175.38681c0,0 1.80414,3.26275 1.32518,4.47682c-1.42706,3.61729 -6.83556,9.96174 -6.58259,11.62573c0.15946,1.04885 3.84907,-1.56805 4.79858,-2.34401c2.38031,-1.94524 4.30935,-3.8096 8.29696,-3.75034c14.4832,0.21524 16.06537,5.81122 16.06537,5.81122c0,0 -4.9624,-3.95893 -17.62188,-3.33607c-1.70768,0.08401 -11.41497,9.36415 -14.07347,8.68895c-0.90847,-0.23075 -1.49642,-0.74129 -1.47302,-1.45485c0.07851,-2.39517 1.21141,-6.83819 7.15893,-15.72393c2.08827,-3.1199 2.10595,-3.99353 2.10595,-3.99353z" fill="#000000" stroke-width="0"/></g><g data-paper-data="{&quot;index&quot;:null}" stroke-linecap="butt"><path d="M263.91542,140.82473c1.9622,6.78006 -9.55088,14.86086 -36.56992,27.31071c-13.20393,6.08411 -32.61442,8.42336 -42.91136,7.61087c-6.7554,-0.53305 -13.47595,-35.10358 -9.67772,-40.71547c9.97553,-14.7389 36.00225,-32.97949 53.40158,-30.53525c10.66117,1.49766 17.3126,22.41384 17.3126,22.41384c0,0 -0.28605,5.85731 1.91706,13.5866c3.92061,-1.35642 15.02146,-4.87613 16.52778,0.32866z" fill="#aa96c7" stroke="#000000" stroke-width="3"/><path d="M244.20063,135.86649c0,0 -24.57639,0.04509 -27.74301,2.01041c-0.03797,1.34739 4.91323,14.62296 4.37509,14.63044c-13.44289,0.18678 -18.0098,-0.74254 -18.0098,-0.74254l-2.19346,21.94631c0,0 -8.32101,-3.39458 -12.13337,-5.23189c-0.97018,-2.01275 0.6204,6.23111 0.6204,6.23111l-4.80704,-0.24473c0,0 -1.23642,-1.00333 -1.73906,-2.17208c-2.38327,-5.54152 -7.82913,-22.021 -2.25564,-32.44002c6.49468,-12.14107 57.5344,-30.24918 57.5344,-30.24918c0,0 4.7492,12.37694 5.91801,17.20976c0.11889,3.60756 1.08708,9.1929 1.08708,9.1929z" fill="#c172b1" stroke="none" stroke-width="0"/></g><g data-paper-data="{&quot;index&quot;:null}" stroke="none" stroke-width="0" stroke-linecap="butt"><path d="M169.17229,223.16912c0,0 -0.37222,-5.98316 6.78656,-7.99912c2.03956,-0.57434 5.4483,0.49384 8.72113,0.49384c7.07857,0 9.74807,-6.21501 13.70035,-6.36791c4.28907,-0.16593 10.18108,5.42914 10.18108,5.42914c0,0 3.25773,3.50097 2.11457,4.38014c-1.28247,0.98632 -9.43963,1.25346 -9.43963,1.25346c0,0 -1.25152,7.75079 -4.51493,12.4968c-2.99095,4.34975 -7.23338,5.64357 -11.87647,5.64357c-14.76037,0 -15.67266,-15.32994 -15.67266,-15.32994z" fill="#0066cc"/><path d="M171.9977,219.22717c0,0 7.26667,12.25188 11.436,12.99452c4.38747,0.78149 17.11848,-8.86927 17.11848,-8.86927c0,0 0.42807,5.5663 -2.89785,9.75511c-2.2903,2.88453 -7.2961,4.8895 -11.66351,4.8895c-6.12788,0 -14.26988,-7.98024 -16.5898,-13.16119c-1.73459,-3.87373 2.59668,-5.60866 2.59668,-5.60866z" fill="#0f1b82"/><path d="M176.11675,215.77679c-2.91424,1.19465 -6.85505,7.08565 -6.75283,7.39741c0.64727,1.97381 10.36541,14.10499 16.39552,14.36553c3.25209,0.1405 8.32196,-1.18996 11.70527,-6.37857c2.11809,-3.24827 3.08415,-10.93955 4.04961,-11.65426c1.65261,-1.22337 -0.24621,9.76227 -2.1382,12.87374c-3.22281,5.30014 -11.19557,10.23965 -16.17379,10.23965c-8.24343,0 -17.84128,-18.42357 -17.84128,-18.42357c0,0 0.39046,-2.43157 2.01652,-4.81595c1.60136,-2.34816 3.88708,-6.46255 5.58349,-7.85628c0.35366,-0.29055 2.56068,-0.97973 4.34019,-0.31312c2.40456,0.90076 5.57219,3.21276 8.87704,2.20794c4.25597,-1.294 8.3447,-6.97135 12.68912,-6.72689c6.92467,0.38965 10.40782,8.64815 10.47308,8.6193c0.05602,-0.02476 -9.4682,-5.17362 -11.25956,-4.83405c-1.36151,0.25809 -10.7711,6.83089 -12.51633,7.41094c-2.34088,0.77803 -7.55052,-2.88957 -9.44784,-2.1118z" fill="#000000"/></g><g data-paper-data="{&quot;index&quot;:null}" stroke-linecap="butt"><g><path d="M170.3095,166.3784c0,0 -6.42396,15.76559 -11.7281,21.29221c-3.67644,3.83064 -6.54469,16.17623 -8.52289,16.84964c-10.49041,3.57107 -13.11675,-11.23782 -8.33203,-21.2332c2.93681,-6.13506 14.20922,-13.10416 14.20922,-13.10416z" fill="#0066cc" stroke="#000000" stroke-width="3"/><path d="M141.58512,193.03842c0,0 3.00077,-9.29625 10.42737,-14.30768c6.3062,-4.25541 7.64341,0.71643 9.06038,-1.2502c1.28035,-1.77703 1.64394,-2.60817 1.64394,-2.60817l1.82495,2.36186c0,0 -7.04497,11.189 -9.45609,15.91235c-1.93523,3.79108 -3.89941,10.25085 -3.89941,10.25085c0,0 -7.60855,2.33468 -9.38126,0.42204c-1.1623,-1.25405 -0.21989,-10.78108 -0.21989,-10.78108z" fill="#0f1b82" stroke="none" stroke-width="0"/></g><g stroke="#000000"><path d="M242.75878,109.39488c0,0 -46.39149,32.17291 -53.46045,39.24028c-9.22361,9.22154 -18.11885,17.61296 -18.11885,17.61296c0,0 -13.00143,1.76911 -22.10151,-7.4832c-2.78592,-2.83252 -3.94143,-24.88992 -3.84745,-27.58128c0.28438,-8.14516 2.27557,-18.22613 10.3086,-27.29544c21.51785,-24.29364 57.95188,-29.61118 67.63903,-27.62011c3.09732,0.63662 8.61098,0.23766 11.1921,2.30017c4.51552,3.60823 5.20725,10.17089 5.20725,10.17089z" fill="#ae1c51" stroke-width="3"/><path d="M171.30417,168.46792c0,0 -22.86807,1.24136 -26.68654,-5.27168c-1.74602,-2.97811 -7.15895,-15.21964 -5.54963,-26.40509c1.96731,-13.67364 11.40731,-26.45573 13.29716,-27.3468c11.65969,-5.49758 40.07844,39.9595 40.07844,39.9595l-21.13943,19.06408z" fill="#710c65" stroke-width="1.5"/></g></g><g data-paper-data="{&quot;index&quot;:null}" stroke-linecap="butt"><path d="M170.60383,168.86933c4.60112,1.10842 6.94583,5.51708 8.77151,7.95374c1.39891,1.86711 0.25266,7.07647 -1.77935,9.36021c-3.26471,3.66915 -26.02247,-13.54075 -26.393,-17.19709c-0.10825,-1.06817 11.39387,-2.04577 19.40084,-0.11686z" fill="#aa96c7" stroke="#000000" stroke-width="3"/><path d="M169.17573,182.35243c0,0 1.06663,-0.42413 2.06502,-2.16509c1.26278,-2.20202 2.90702,-8.23459 2.90702,-8.23459c0,0 3.51883,2.04245 4.2033,2.92981c0.93439,1.21137 0.30166,5.83548 -0.89187,8.7254c-0.65046,1.57495 -1.77145,1.87915 -1.87736,2.0287c-0.28964,0.40894 -6.40614,-3.28424 -6.40614,-3.28424z" fill="#c172b1" stroke="none" stroke-width="0"/><path d="M164.28592,173.38247c-0.35423,-0.47811 8.74505,-2.41588 9.22574,-1.1562c0.62042,1.6258 3.6356,9.04159 0.67139,8.80658c-1.21061,-0.09599 -8.22039,-5.38739 -9.89712,-7.6504z" fill="#c172b1" stroke="#000000" stroke-width="1.5"/></g><g data-paper-data="{&quot;index&quot;:null}" stroke-linecap="butt"><g data-paper-data="{&quot;index&quot;:null}"><path d="M195.49317,163.25939c-0.55633,2.53528 -7.87452,-3.18912 -8.22993,-2.49954c-0.23358,0.45322 -3.0565,5.11314 -4.87517,9.78202c-1.84857,4.74565 -6.84783,13.06663 -7.11578,12.86902c-0.14578,-0.10753 -5.103,-14.6303 -4.52211,-16.2304c3.20727,-8.83468 25.87832,-24.49915 25.87832,-24.49915c0,0 -0.42035,17.31974 -1.13534,20.57803z" fill="#346def" stroke="#000000" stroke-width="3"/><path d="M190.33583,153.24053l4.66674,-7.82414l-0.62653,17.50669z" fill="#45afff" stroke="none" stroke-width="0"/></g><g data-paper-data="{&quot;index&quot;:null}"><path d="M273.56008,127.88021c0,0 -18.52078,-0.00677 -27.01956,1.34153c-0.89653,0.14223 0.77747,-3.44984 -0.6989,-3.33718c-8.15169,0.62205 -24.92948,4.43011 -32.9932,6.20772c-0.63404,0.13977 -2.18136,0.49824 -2.33152,1.06982c-0.78357,2.98266 4.6241,9.79482 2.77058,10.67437c-2.00462,0.95125 -4.60116,0.66537 -7.40321,-0.34191c-4.38251,-1.57541 -8.36861,-3.58136 -8.36861,-3.58136c0,0 2.14136,-12.29197 -6.21447,-47.91693c3.55083,0.17216 12.58333,3.69526 16.3016,7.7834c3.37777,3.71378 4.10154,7.74506 4.42215,6.86037c3.18407,-8.78608 12.17315,-19.02122 16.20802,-21.64091c4.19067,-2.72084 12.29696,6.39329 38.82909,8.98705c1.67855,1.02681 -9.46378,3.42369 -7.91269,4.3662c4.76763,2.89701 11.66161,5.625 11.66161,5.625c0,0 -13.72337,4.11188 -20.83351,8.87662c7.0712,0.66773 21.42255,11.65107 23.5826,15.02622z" fill="#45afff" stroke="#000000" stroke-width="3"/><path d="M230.00945,113.14372c0,0 10.70736,3.48388 16.24889,5.56883c6.53287,2.45795 21.04581,7.60236 21.04581,7.60236l-19.60116,1.33442c0,0 1.30673,-2.42331 -1.66254,-3.14775c-1.95199,-0.47624 -5.25724,0.48069 -10.38609,1.42852c-3.89154,0.71918 -20.75145,4.3136 -25.53027,5.53456c-0.79646,0.20349 -0.88742,1.60252 -0.88742,1.60252c0,0 -0.15475,2.44876 0.26147,3.75213c0.60594,1.89749 2.72491,5.88701 2.72491,5.88701c0,0 -2.97708,0.4273 -4.71449,0.00663c-2.45475,-0.59436 -8.62068,-3.23542 -8.62068,-3.23542c0,0 0.05993,-3.45184 0.0958,-8.30633c0.06638,-8.98448 -2.63625,-25.61719 -6.1858,-37.55455c1.36025,1.07034 18.30143,23.7183 18.30143,23.7183c0,0 6.40589,-7.22562 12.27341,-13.2626c3.81667,-3.92687 7.83024,-7.65996 8.25188,-7.51678c8.13679,-0.23221 26.37719,8.21202 26.37719,8.21202c0,0 -17.71352,4.85272 -22.599,6.3146c-2.29384,0.68639 -5.39334,2.06154 -5.39334,2.06154z" fill="#346def" stroke="none" stroke-width="0"/></g></g><g data-paper-data="{&quot;index&quot;:null}"><path d="M299.9604,206.48026c3.15967,-3.45854 6.98295,-7.19326 10.58711,-3.90055c2.40108,2.1936 4.61806,6.38488 4.54992,10.34027c-0.03414,1.98185 -1.03051,4.32981 -2.08522,5.48426c-1.55022,1.69684 -3.83714,2.18063 -6.33502,1.71223c-2.59335,-0.4863 -5.40301,-1.98891 -7.23888,-3.66613c-3.60415,-3.29271 -2.6376,-6.51155 0.52208,-9.9701z" fill="#2f429d" stroke="#000000" stroke-width="3" stroke-linecap="butt"/><path d="M261.46274,192.12586c2.64343,-5.65588 8.46342,-4.90761 14.76255,0.84718c6.29911,5.7548 9.44021,11.43075 5.47633,15.76957c-1.62857,1.78263 -6.76302,7.22775 -9.91243,4.68999c-5.32556,-4.29131 -1.2323,-8.47743 -2.32632,-9.44602c-3.10485,-2.74889 -10.36169,-6.80788 -8.00012,-11.8607z" fill="#c172b1" stroke="#000000" stroke-width="3" stroke-linecap="butt"/><path d="M273.0854,179.3983c7.97341,-8.72756 20.67587,-19.96843 29.88498,-12.09548c3.61859,3.0936 -0.03036,9.50999 1.31617,10.74015c3.44475,3.14708 6.88447,4.68611 7.29001,9.23881c0.19704,2.21184 -0.76533,3.37378 -0.34093,5.34135c0.86242,3.99833 4.10139,3.65991 4.09528,7.27892c-0.1959,1.12704 -4.09324,14.13972 -9.14607,17.28901c-6.07788,3.78819 -11.66159,2.58621 -14.66588,1.10971c-4.871,-2.39394 -4.62682,-7.99002 -4.62682,-7.99002c0,0 -4.2339,-1.52189 -5.61939,-3.39942c-1.34805,-1.82679 -0.73073,-4.5417 -2.35727,-7.3737c-0.40289,-0.70147 -2.93643,1.56957 -6.05445,-1.8309c-6.81381,-7.43107 -3.27489,-14.47815 0.22437,-18.30839z" fill="#aa96c7" stroke="#000000" stroke-width="3" stroke-linecap="butt"/><path d="M289.72511,192.70261c0,0 0.12294,0.66577 -0.58721,2.42396c-0.58408,1.44603 -2.11647,3.82729 -1.42754,5.49273c0.34557,0.83534 3.2462,3.75337 4.67522,4.24628c1.10896,0.38249 2.21133,0.1105 2.48704,0.30619c1.36549,0.96915 6.79269,-3.9946 6.79269,-3.9946l3.05622,-0.5843c0,0 -3.31374,5.62324 -6.65117,9.57998c0.18099,3.44718 0.18175,5.79459 0.18175,5.79459l4.76041,1.57271c0,0 -2.13372,0.79744 -4.35606,0.89054c-0.96799,0.04056 -2.24995,-0.58532 -2.88277,-0.57796c-4.09566,0.04768 -7.32646,-2.58654 -7.61051,-6.67261c-0.0346,-0.4976 0.0639,-2.08184 -1.04983,-2.35933c-3.9124,-0.97476 -4.16328,-2.09495 -4.94681,-3.72043c-0.99654,-2.06738 -2.00416,-4.99546 -2.00416,-4.99546c0,0 0.52794,-0.98308 -0.15462,-1.37792c-0.87878,-0.50832 -2.68199,-0.11173 -4.14829,-0.55346c-0.60537,-0.18235 -1.11187,-1.1386 -1.53766,-1.36303c-0.94133,-0.4962 -2.11314,-2.05126 -2.61536,-3.1787c-0.47356,-1.06315 -0.30303,-1.70161 -0.34955,-2.14522c-0.18057,-1.7222 1.75021,-6.54677 3.7608,-6.82497c2.44029,-0.33765 5.06755,4.08282 5.06755,4.08282c0,0 0.18183,5.58191 2.54331,7.45002c1.77576,1.40477 6.99657,-3.49184 6.99657,-3.49184z" fill="#c172b1" stroke="none" stroke-width="0" stroke-linecap="butt"/><path d="M287.51625,192.48578c1.6024,-2.23562 3.59926,-4.67117 5.46421,-5.68256c1.6445,-0.89184 4.30398,-0.87916 4.97305,-0.18331c0.30726,0.31955 -0.47433,1.38629 -0.47433,1.38629c0,0 -1.70847,-0.0471 -2.74195,0.58672c-1.14591,0.70273 -2.85367,2.21355 -3.93719,3.72524c-1.93898,2.7052 -3.58354,5.36859 -5.64895,6.72054c-1.83781,1.20297 -5.48358,2.31434 -5.48358,2.31434l-1.60314,-1.87696c0,0 3.94424,-2.02543 5.13524,-2.57443c1.65912,-0.76479 3.26733,-2.9519 4.31665,-4.41587z" fill="#000000" stroke="none" stroke-width="0" stroke-linecap="butt"/><path d="M295.4585,205.07855c1.85523,-2.03071 3.55248,-4.4524 5.52383,-5.23643c1.73835,-0.69135 4.39688,-0.62585 4.97907,0.14415c0.26737,0.35362 -1.05528,1.68359 -1.05528,1.68359c0,0 -1.28958,-0.3504 -2.39069,0.15691c-1.22086,0.56248 -2.32117,2.04911 -3.57564,3.42225c-2.24492,2.45724 -4.96652,4.71964 -7.17716,5.81819c-1.96706,0.9775 -3.56172,0.92577 -3.56172,0.92577l-1.80384,-2.78203c0,0 2.43261,-0.09187 3.68012,-0.49635c1.73785,-0.56345 4.16643,-2.3063 5.38131,-3.63609z" fill="#000000" stroke="none" stroke-width="0" stroke-linecap="butt"/><g fill="#2f429d" stroke-linecap="butt"><path d="M269.0647,170.63689c5.72459,-6.26608 13.7193,-8.28153 17.85671,-4.50166c4.13739,3.77987 2.85072,11.92372 -2.87388,18.18978c-5.7246,6.26605 -13.71932,8.28151 -17.85673,4.50164c-4.13739,-3.77987 -2.85071,-11.92372 2.87389,-18.18978z" stroke="#000000" stroke-width="3"/><path d="M283.53476,173.59826l2.38191,-7.18583c0,0 1.7137,3.41426 1.83533,5.01061c0.20542,3.35 -1.39582,6.20408 -1.39582,6.20408z" stroke="none" stroke-width="0"/><path d="M280.14168,179.6611l1.64868,-2.67674c0,0 1.59675,1.16801 2.0771,1.66725c0.56243,0.58457 1.26527,1.9386 1.26527,1.9386l-2.42825,2.8066z" stroke="none" stroke-width="0"/></g><g><path d="M278.0911,179.17197c-7.8972,8.64417 -17.36363,8.78852 -26.0078,0.89131c-8.64416,-7.89719 -8.84501,-21.74961 -0.9478,-30.39378c7.8972,-8.64417 19.6113,-9.17316 28.25547,-1.27595c8.64416,7.8972 6.59734,22.13424 -1.29987,30.77841z" fill="#2f429d" stroke="#000000" stroke-width="3" stroke-linecap="butt"/><path d="M255.02074,147.84089c0,0 13.7918,-8.04504 21.35479,-1.13559c4.28874,3.91815 6.82632,10.06711 7.69972,15.64492c0.62225,3.97391 -0.32015,8.32092 -3.11163,11.37642c-5.73784,6.28057 -10.57519,5.95896 -18.13818,-0.95049c-3.77691,-3.45052 -6.39551,-9.8998 -7.03898,-15.42442c-0.64504,-5.53809 -0.76574,-9.51085 -0.76574,-9.51085z" fill="#2f429d" stroke="none" stroke-width="0" stroke-linecap="butt"/><path d="M279.04522,148.9622c0,0 2.03258,9.68523 -6.74539,20.00916c-8.84991,10.40853 -18.31159,10.17618 -18.31159,10.17618" fill="none" stroke="#000000" stroke-width="1.6" stroke-linecap="round"/><path d="M284.26598,157.03929c0,0 -2.04285,8.88653 -6.8745,16.09527c-6.96308,10.38876 -13.2086,11.23171 -13.2086,11.23171" fill="none" stroke="#000000" stroke-width="1.6" stroke-linecap="round"/><path d="M271.09427,144.2183c0,0 0.89567,9.14577 -7.30879,19.97472c-7.89122,10.41551 -13.53318,10.59643 -13.53318,10.59643" fill="none" stroke="#000000" stroke-width="1.6" stroke-linecap="round"/><path d="M248.35625,172.89975c0,0 2.04806,-9.02934 5.20125,-15.04204c4.15321,-7.91961 10.25669,-14.46293 10.25669,-14.46293" fill="none" stroke="#000000" stroke-width="1.6" stroke-linecap="round"/><path d="M273.92816,181.45703c0,0 -7.99151,-0.88861 -17.43654,-8.84235c-8.81382,-7.42219 -8.74685,-15.07845 -8.74685,-15.07845" fill="none" stroke="#000000" stroke-width="1.6" stroke-linecap="round"/><path d="M250.21741,153.96774c0,0 4.05556,4.23042 9.14468,8.1145c4.47542,3.4157 9.8729,6.39014 12.31735,8.38198c2.90334,2.36575 7.24908,6.89865 7.24908,6.89865" fill="none" stroke="#000000" stroke-width="1.6" stroke-linecap="round"/><path d="M253.05253,149.31291c0,0 10.78971,1.64489 16.8755,6.8983c9.55187,8.24546 12.43654,17.04583 12.43654,17.04583" fill="none" stroke="#000000" stroke-width="1.6" stroke-linecap="round"/><path d="M258.28817,144.96121c0,0 7.92775,0.83926 14.69181,5.23241c9.74054,6.32632 12.2886,12.6441 12.2886,12.6441" fill="none" stroke="#000000" stroke-width="1.6" stroke-linecap="round"/><path d="M272.88856,149.32252c-0.71118,-0.64974 -0.83121,-1.6761 -0.26813,-2.29246c0.5631,-0.61637 1.59611,-0.58932 2.30729,0.06042c0.71118,0.64974 0.83121,1.6761 0.26813,2.29246c-0.5631,0.61637 -1.59611,0.58932 -2.30729,-0.06042z" fill="#2f429d" stroke="none" stroke-width="0" stroke-linecap="butt"/><path d="M268.01914,146.29132c-0.35557,-0.32487 -0.38049,-0.87648 -0.05563,-1.23207c0.32486,-0.35557 0.87647,-0.38049 1.23206,-0.05563c0.35558,0.32486 0.3805,0.87647 0.05564,1.23206c-0.32487,0.35558 -0.87648,0.3805 -1.23207,0.05564z" fill="#2f429d" stroke="none" stroke-width="0" stroke-linecap="butt"/></g></g><g data-paper-data="{&quot;index&quot;:null}" stroke-linecap="butt"><path d="M226.50222,149.17797c0.65663,-2.02106 4.50665,-4.90138 4.50665,-4.90138c3.6334,-1.82446 7.25359,-2.71123 11.84384,-2.71123c4.4358,0 3.13565,3.02646 0.77586,5.17172c-2.54526,2.31387 -11.00972,4.7084 -14.59035,4.41106c-0.85858,-0.0713 -2.90347,-0.83911 -2.536,-1.97017z" fill="#000000" stroke="none" stroke-width="0.5"/><path d="M209.36017,151.17967c1.75829,-0.03627 4.97483,-0.68845 6.06156,0.54101c0.97057,1.09804 -0.03507,4.00209 -0.87833,5.32721c-0.60743,0.95452 -4.0011,1.7037 -5.11937,2.20207c-4.12968,1.84043 -8.31219,4.4461 -12.84466,4.05577c-1.10275,-0.09497 -2.01393,-3.23708 -0.5687,-4.06292c0,0 4.10539,-7.87243 13.3495,-8.06314z" fill="#000000" stroke="none" stroke-width="0.5"/><path d="M200.89377,168.2566c-0.31496,-1.19579 5.23312,-5.26248 17.58748,-8.58127c12.35436,-3.31879 17.55287,-9.68544 21.40623,-4.67365c3.0831,4.00997 -16.38697,9.27458 -27.66749,13.81924c-4.35056,1.75274 -9.07527,3.19249 -11.32621,-0.56432z" fill="#ac447e" stroke="#000000" stroke-width="3"/></g></g></g></svg>