<svg version="1.1" xmlns="http://www.w3.org/2000/svg" xmlns:xlink="http://www.w3.org/1999/xlink" width="787.73273" height="584.76736" viewBox="0,0,787.73273,584.76736"><defs><linearGradient x1="237.74775" y1="-189.66366" x2="237.74775" y2="395.1037" gradientUnits="userSpaceOnUse" id="color-1"><stop offset="0" stop-color="#000000"/><stop offset="1" stop-color="#4d0000"/></linearGradient></defs><g transform="translate(156.11862,189.66366)"><g data-paper-data="{&quot;isPaintingLayer&quot;:true}" fill-rule="nonzero" stroke="none" stroke-linecap="butt" stroke-linejoin="miter" stroke-miterlimit="10" stroke-dasharray="" stroke-dashoffset="0" style="mix-blend-mode: normal"><path d="M-156.11862,395.1037v-584.76736h787.73273v584.76736z" fill="url(#color-1)" stroke-width="0"/><g><path d="M240,247.70712c-102.94042,0 -186.3901,-22.24657 -186.3901,-49.68911c0,-27.44253 83.44969,-49.68911 186.3901,-49.68911c102.94042,0 186.3901,22.24657 186.3901,49.68911c0,27.44253 -83.44969,49.68911 -186.3901,49.68911z" fill="#1c1c1c" stroke-width="0"/><path d="M422.83981,198.01802c0,26.53783 -81.38332,48.05099 -181.77473,48.05099c-100.39141,0 -181.77473,-21.51318 -181.77473,-48.05099c0,-26.53783 81.38332,-48.05099 181.77473,-48.05099c100.39141,0 181.77473,21.51318 181.77473,48.05099z" fill="#4e4e4e" stroke-width="0"/><path d="M422.12976,197.19896c0,25.18078 -81.38332,45.59384 -181.77473,45.59384c-100.39141,0 -181.77473,-20.41306 -181.77473,-45.59384c0,-25.18078 81.38332,-45.59384 181.77473,-45.59384c100.39141,0 181.77473,20.41306 181.77473,45.59384z" fill="#7f7f7f" stroke-width="0"/><path d="M422.83981,196.65294c0,22.76826 -81.38332,41.22557 -181.77473,41.22557c-100.39141,0 -181.77473,-18.45732 -181.77473,-41.22557c0,-22.76826 81.38332,-41.22557 181.77473,-41.22557c100.39141,0 181.77473,18.45732 181.77473,41.22557z" fill="#9c9c9c" stroke-width="0"/><path d="M424.96998,195.83388c0,16.28458 -82.97284,29.48585 -185.32502,29.48585c-102.35218,0 -185.32502,-13.20126 -185.32502,-29.48585c0,-16.28458 82.97284,-29.48585 185.32502,-29.48585c102.35218,0 185.32502,13.20126 185.32502,29.48585z" fill="#b9b9b9" stroke-width="NaN"/></g></g></g></svg>