<svg version="1.1" xmlns="http://www.w3.org/2000/svg" xmlns:xlink="http://www.w3.org/1999/xlink" width="210" height="221" viewBox="0,0,210,221"><g transform="translate(-140,-90)"><g data-paper-data="{&quot;isPaintingLayer&quot;:true}" fill-rule="nonzero" stroke-linejoin="miter" stroke-miterlimit="10" stroke-dasharray="" stroke-dashoffset="0" style="mix-blend-mode: normal"><path d="M140,311v-221h210v221z" fill="none" stroke="none" stroke-width="0" stroke-linecap="butt"/><g data-paper-data="{&quot;index&quot;:null}" stroke="#000000" stroke-linecap="round"><path d="M261.03081,195.10737c0,0 15.61507,-1.60753 15.59742,5.05971c-0.04788,18.09623 -27.2048,12.14333 -27.2048,12.14333z" data-paper-data="{&quot;origPos&quot;:null}" fill="#66c8ff" stroke-width="2"/><path d="M260.30537,196.6253c0,0 11.33368,-0.56696 11.97011,1.39142c0.20071,0.61766 -15.11379,2.52986 -15.11379,2.52986z" data-paper-data="{&quot;origPos&quot;:null}" fill="#0a0a0a" stroke-width="1"/></g><g><path d="M263.62264,242.94029c0,0 0.79659,15.85918 -1.32549,16.14128c-6.36624,0.84636 -23.10692,-0.01177 -37.38997,-0.01177c-1.60451,0 -1.37046,-15.05422 -1.37046,-15.05422l1.71307,-30.82531c0,0 1.2701,-13.62049 2.74093,-13.62049c9.51427,0 23.74926,-0.93658 29.97591,0.71757c2.07555,0.55139 3.94294,15.0535 3.94294,15.0535z" data-paper-data="{&quot;origPos&quot;:null}" fill="#66c8ff" stroke="#000000" stroke-width="3.5" stroke-linecap="round"/><path d="M232.97449,223.25697c-1.2426,0 -1.24261,-2.50351 -1.24261,-2.50351c0,-5.19246 0,-12.05391 0,-17.24638c0,0 0.00001,-2.50351 1.24261,-2.50351c1.2426,0 1.2426,2.50351 1.2426,2.50351c0,5.19246 0,10.38491 0,15.57737v1.669c0,0 0,2.50351 -1.2426,2.50351z" fill="#ffffff" stroke="none" stroke-width="0.5" stroke-linecap="butt"/><path d="M244.51869,229.63105c-1.2426,0 -1.24261,-3.14511 -1.24261,-3.14511c0,-6.52319 0,-15.14312 0,-21.66632c0,0 0.00001,-3.14511 1.24261,-3.14511c1.2426,0 1.2426,3.14511 1.2426,3.14511c0,6.52319 0,13.04638 0,19.56958v2.09674c0,0 0,3.14511 -1.2426,3.14511z" fill="#ffffff" stroke="none" stroke-width="0.5" stroke-linecap="butt"/></g><g fill="none" stroke="#b9b9b9" stroke-width="3"><path d="M254.20739,204.838c-0.79609,-1.36683 0.08262,-2.59426 1.25912,-3.82013c1.17651,-1.22585 2.3573,-1.60017 3.00139,-0.61912c1.36564,2.08012 -0.06713,3.06192 -0.98837,4.0218c-1.17652,1.22587 -2.14784,2.34778 -3.27214,0.41746z" stroke-linecap="butt"/><path d="M252.66267,206.77912l2.49159,-2.53565" stroke-linecap="round"/><path d="M249.25088,207.4125c1.17651,-1.22585 2.3573,-1.60017 3.00139,-0.61912c1.36564,2.08012 -0.06713,3.06192 -0.98837,4.0218c-1.17651,1.22586 -2.14783,2.34778 -3.27213,0.41746c-0.79609,-1.36683 0.08261,-2.59426 1.25911,-3.82014z" stroke-linecap="butt"/><path d="M248.93861,210.63807l-2.49159,2.53567" stroke-linecap="round"/><path d="M241.0383,212.71855c0.38545,-1.6456 1.67266,-1.48999 3.13474,-1.02821c1.46209,0.46178 2.39369,1.44481 2.15994,2.70045c-0.4956,2.66229 -1.95624,1.7897 -3.10109,1.42812c-1.46209,-0.46177 -2.73795,-0.77633 -2.19359,-3.10034z" stroke-linecap="butt"/><path d="M241.96961,213.32817l-3.05854,-1.01465" stroke-linecap="round"/><path d="M234.11205,208.31464c0.85908,-1.32519 1.98925,-0.53302 3.18527,0.62992c1.19604,1.16294 1.74617,2.53991 1.14593,3.58147c-1.27269,2.2084 -2.34099,0.66687 -3.27753,-0.24374c-1.19603,-1.16295 -2.2669,-2.09614 -1.05367,-3.96764z" stroke-linecap="butt"/><path d="M232.28982,206.869l2.48699,2.47767" stroke-linecap="round"/><path d="M227.85537,202.15059c0.85908,-1.32517 1.98926,-0.53302 3.18527,0.62992c1.19604,1.16294 1.74617,2.53991 1.14593,3.58147c-1.27269,2.20839 -2.34099,0.66687 -3.27752,-0.24374c-1.19603,-1.16294 -2.2669,-2.09613 -1.05367,-3.96764z" stroke-linecap="butt"/><path d="M228.52016,203.18263l-2.48701,-2.47767" stroke-linecap="round"/></g><g><g data-paper-data="{&quot;index&quot;:null}"><g stroke="#000000" stroke-width="3" stroke-linecap="round"><path d="M276.42787,235.80684c0,0 2.80889,10.40343 2.39357,15.02033c-15.0674,6.43393 -24.33848,3.81349 -24.33848,3.81349c-1.91725,0.40228 -2.16831,-6.91476 -2.16831,-6.91476c0,0 -0.93768,-14.26721 -1.53786,-23.39893c-0.3941,-5.99626 -1.00983,-15.36469 -1.00983,-15.36469c0,0 -0.13992,-5.96084 0.91203,-6.09261c6.32866,-0.79269 12.30457,-2.865 15.54702,-2.08257c1.08082,0.26081 2.60348,5.78755 2.60348,5.78755l7.59837,29.23217z" data-paper-data="{&quot;origPos&quot;:null}" fill="#582700"/><path d="M277.10001,241.55896l-24.38494,4.03488l-0.49764,-3.3841l24.38494,-4.29518z" data-paper-data="{&quot;origPos&quot;:null}" fill="none"/></g><path d="M251.94441,241.78727l-1.6672,-37.06379l1.11146,-0.8721l15.0048,-2.61628l9.44747,36.33705z" fill="#66c8ff" stroke="#000000" stroke-width="1" stroke-linecap="round"/><path d="M252.6143,245.15673l-0.35305,-2.31684l24.22631,-4.04049l0.35305,2.31684z" fill="#ffffff" stroke="none" stroke-width="0" stroke-linecap="butt"/></g><g fill="#fffc96" stroke="#000000" stroke-width="2" stroke-linecap="round"><path d="M274.63907,231.15384c0,0 4.19329,0.46788 4.13902,3.43054c-0.08685,4.74013 -31.39684,-0.84504 -31.59115,-5.79081c-0.0794,-2.02072 2.9677,-2.19948 2.9677,-2.19948l0.2875,1.85953c0,0 5.65485,2.39825 12.93048,3.87114c7.17483,1.45248 12.06169,1.04535 12.06169,1.04535z"/><path d="M272.49452,222.77609c0,0 2.88712,-2.35924 3.80829,-0.23007c1.93366,4.46942 -26.11659,24.09774 -26.98782,19.52348c-0.52762,-2.77028 2.64004,-3.89875 2.64004,-3.89875l0.24989,1.36092c0,0 4.71015,-2.10826 10.97948,-6.66308c6.26934,-4.55481 9.69226,-8.84117 9.69226,-8.84117z" data-paper-data="{&quot;index&quot;:null}"/></g></g><path d="M277.69243,253.74847c0,0 4.19691,-1.03303 6.34709,-0.26828c1.64606,0.58542 2.27557,2.40383 2.76555,4.14895c1.34493,4.79013 0.14215,9.67563 0.40547,17.43665c0.07171,2.11377 -2.85901,3.41542 -4.87989,3.35343c-1.8901,-0.05799 -5.17232,-0.27994 -5.17232,-0.27994l-31.80801,-1.7157c0,0 -4.11116,-0.36278 -4.90557,-2.07489c-1.91307,-4.12308 -0.6778,-8.68106 -1.07983,-13.2449c-0.13625,-1.54663 4.47323,-1.84584 4.47323,-1.84584c0,0 8.56031,-1.39313 14.03938,-2.28479c7.73303,-1.25849 19.81491,-3.22469 19.81491,-3.22469z" data-paper-data="{&quot;index&quot;:null}" fill="#4b4b4b" stroke="#000000" stroke-width="3" stroke-linecap="round"/><path d="M240.39004,265.37685c0,0 1.96093,4.01705 1.76447,6.38405c-0.15038,1.81204 -1.68796,2.88572 -3.19083,3.80019c-4.12518,2.51004 -8.94718,2.45458 -16.08824,4.57514c-1.94492,0.57753 -3.85288,-2.08905 -4.27786,-4.15688c-0.39746,-1.93403 -0.97511,-5.32147 -0.97511,-5.32147l-6.002,-32.72387c0,0 -0.64485,-4.26321 0.75469,-5.47905c3.37036,-2.92796 7.8961,-2.7613 12.03637,-4.25941c1.40308,-0.5077 2.78139,4.10371 2.78139,4.10371c0,0 3.337,8.36392 5.47286,13.71729c3.01451,7.55562 7.72427,19.36033 7.72427,19.36033z" data-paper-data="{&quot;index&quot;:null}" fill="#4b4b4b" stroke="#000000" stroke-width="3" stroke-linecap="round"/><path d="M225.79975,197.41488c0,0 -1.45807,-4.34434 -1.47604,-5.43673c-0.05392,-3.27715 0.60028,-17.54079 1.23252,-30.43018c0.09779,-1.99368 1.80427,-5.02511 1.80427,-5.02511c0,0 2.19614,-1.52267 3.40866,-1.46452c13.37783,0.64155 26.16099,0.15305 31.04385,1.97475c1.62762,0.60723 4.56645,2.51585 4.56645,2.51585c0,0 0.46613,4.45452 0.53928,5.59841c0.02438,0.3813 0.03908,0.59596 0.04172,0.97809c0.07878,11.44987 -0.99781,24.63686 -1.5812,29.23115c-0.19446,1.53143 -2.05733,3.83994 -2.05733,3.83994c0,0 -1.4673,2.66956 -5.73424,3.25579c-4.66879,0.64141 -15.90587,-0.33731 -27.49073,-1.38391z" fill="#582700" stroke="#000000" stroke-width="2.5" stroke-linecap="round"/><g data-paper-data="{&quot;index&quot;:null}"><g data-paper-data="{&quot;origRot&quot;:0}" stroke="#000000" stroke-width="3" stroke-linecap="round"><path d="M263.9276,251.62222c0.01307,2.46855 -8.94212,0.87549 -8.94212,0.87549c0,0 -23.7998,-3.56026 -35.04716,-5.19474c-4.63058,-1.37513 -5.95441,-40.63042 -1.91071,-44.85007c1.80254,-1.88097 11.81837,-3.98922 13.34618,-2.57163c2.9081,2.69824 8.0815,18.98544 8.0815,18.98544l-4.31351,0.16792l11.3424,0.63228c0,0 13.24738,-0.40884 18.84928,0.95438c3.10686,0.75605 -1.40586,31.00092 -1.40586,31.00092z" data-paper-data="{&quot;origPos&quot;:null}" fill="#582700"/><path d="M254.88167,220.48136l-1.17788,30.22346" fill="none"/><path d="M250.43515,220.49993l-0.88221,30.24141" data-paper-data="{&quot;origPos&quot;:null}" fill="none"/></g><path d="M253.49544,251.32034l-2.90372,-0.15854l1.00573,-30.92702l2.90373,0.15854z" fill="#ffffff" stroke="none" stroke-width="0" stroke-linecap="butt"/><path d="M219.63384,247.44322l-3.11547,-10.83278l-0.35097,-24.18604l1.8578,-8.3143l3.78728,-3.52783l7.7523,-0.00143l1.55045,-0.00028l7.40871,17.13046l-3.09457,0.2525l0.05079,2.0155l13.71476,0.75329l-0.00716,30.48457l-28.00984,-4.02587z" fill="#66c8ff" stroke="#000000" stroke-width="0.5" stroke-linecap="round"/></g><path d="M268.58587,160.26976l-0.66067,-0.56204c-0.08443,-0.03529 -0.16885,-0.07007 -0.25326,-0.10438c-0.22757,0.30173 -0.65877,0.6446 -1.35331,0.36272c-0.64015,-0.25981 -0.77297,-0.75366 -0.76912,-1.12958c-2.49353,-0.79501 -5.0061,-1.24659 -7.64813,-1.63473c-7.4112,-0.81979 -14.86793,-1.03635 -22.31102,-1.413c-2.44098,-0.12352 -7.9521,0.62736 -9.91234,-1.17156c-0.956,-0.87733 -0.47734,-2.79818 -0.52489,-3.86172c-0.1378,-3.08191 -0.3457,-6.27604 -0.21418,-9.36038c0.1977,-4.03023 -1.07643,-7.70282 -1.37845,-11.68086c-0.15142,-1.99432 -0.70054,-4.01935 1.07432,-5.64603c0.50113,-0.4593 1.32822,-0.1345 1.99447,-0.13681c2.43491,-0.00844 4.77727,0.28503 7.16556,0.70646c7.56847,1.33546 15.07119,2.24168 22.56501,4.06235c3.02282,0.7383 6.09406,0.96404 9.18709,1.23141c1.81785,0.15714 3.50434,-0.30187 4.49173,1.93084c0.58964,1.33333 -0.07866,5.33394 -0.20001,6.82108c-0.46791,5.73441 0.06806,12.83118 -1.35513,18.55102c0.11075,0.04459 0.22153,0.08995 0.33233,0.13608l1.19915,0.87556c0,0 0.96717,0.7476 0.25256,1.75942c-0.71461,1.01182 -1.68177,0.26422 -1.68177,0.26422z" data-paper-data="{&quot;index&quot;:null}" fill="#000000" stroke="none" stroke-width="0.5" stroke-linecap="butt"/><path d="M243.40358,171.6156c0.53253,1.12796 -0.54564,1.68507 -0.54564,1.68507l-0.71559,0.35009c-1.1843,0.89327 -1.83596,1.29733 -2.68098,1.45479l0.06855,0.21725l-1.24622,0.43037c-0.14364,0.05352 -0.29946,0.07916 -0.46121,0.07096c-0.66336,-0.03357 -1.1751,-0.62337 -1.14302,-1.31735c0.01855,-0.40117 0.21475,-0.74931 0.50515,-0.96522l0.98907,-0.74878l0.019,0.02746l0.04225,-0.07089c0.84818,-0.49021 1.70104,-0.97178 2.56064,-1.43974c0,0 0.35817,-0.19496 0.76741,-0.14181l0.22993,-0.12307c0,0 1.07818,-0.55711 1.6107,0.57084z" fill="#582700" stroke="none" stroke-width="0.5" stroke-linecap="butt"/><path d="M249.11591,171.81837l0.2175,0.14571c0.41222,-0.01156 0.75074,0.21864 0.75074,0.21864c0.81241,0.55256 1.61686,1.118 2.41586,1.69157l0.03551,0.07483l0.02145,-0.02541l0.91537,0.84514c0.26913,0.24421 0.4323,0.61056 0.41375,1.01173c-0.0321,0.69399 -0.59586,1.22936 -1.25922,1.1958c-0.16176,-0.00819 -0.31449,-0.04945 -0.45251,-0.11721l-1.20071,-0.5542l0.08828,-0.2093c-0.82655,-0.24205 -1.4379,-0.71001 -2.53426,-1.7187l-0.67997,-0.42072c0,0 -1.02174,-0.66338 -0.38765,-1.73231c0.6341,-1.06892 1.65586,-0.40554 1.65586,-0.40554z" data-paper-data="{&quot;index&quot;:null}" fill="#582700" stroke="none" stroke-width="0.5" stroke-linecap="butt"/><path d="M244.75,183.14583c0,2.38173 -2.68629,4.3125 -6,4.3125c-2.07008,0 -4.77031,0.74651 -5.84875,-0.3997c-0.64789,-0.6886 -0.15125,-3.01894 -0.15125,-3.9128c0,-2.38173 2.68629,-4.3125 6,-4.3125c3.31371,0 6,1.93077 6,4.3125z" fill="#ffffff" stroke="#000000" stroke-width="1" stroke-linecap="butt"/><g data-paper-data="{&quot;index&quot;:null}" stroke="#000000" stroke-width="1.25" stroke-linecap="butt"><path d="M253.39958,198.92663c-7.5162,0.10563 -5.36713,-7.45882 -5.36713,-7.45882l10.56908,-0.05497c0,0 1.89731,7.41401 -5.20194,7.51379z" fill="#000000"/><path d="M254.26634,196.71688c1.78489,-0.54845 4.02401,-0.44135 3.88598,-0.18748c-0.7105,1.30675 -2.10673,2.36003 -4.75274,2.39721c-0.88287,0.01241 -1.63238,-0.08101 -2.26769,-0.25557c-0.30745,-0.08447 1.19073,-1.35691 3.13444,-1.95416z" fill="#ff8484"/><path d="M258.74302,193.91381c0.00113,0.03368 -9.45785,0.12036 -9.45785,0.12036l0.02767,-2.57301l9.28869,-0.04832c0,0 0.10737,1.47915 0.14149,2.50097z" fill="#ffffff"/></g><path d="M254.69308,179.70833c3.31371,0 6,1.93077 6,4.3125c0,0.89386 0.49664,3.2242 -0.15125,3.9128c-1.07844,1.14621 -3.77867,0.3997 -5.84875,0.3997c-3.31371,0 -6,-1.93077 -6,-4.3125c0,-2.38173 2.68629,-4.3125 6,-4.3125z" data-paper-data="{&quot;index&quot;:null}" fill="#ffffff" stroke="#000000" stroke-width="1" stroke-linecap="butt"/><g fill="#b67dff" stroke="none" stroke-width="0.5" stroke-linecap="butt"><path d="M221.45612,176.34451c-0.64312,1.07187 -1.71499,0.42875 -1.71499,0.42875l-0.56756,-0.34063c-2.15359,-1.35561 -3.87593,-2.64451 -2.96728,-5.4828c0.33389,-1.04294 1.50447,-1.7223 1.72741,-2.79445c0.11789,-0.56693 -1.09496,-0.43272 -1.54094,-0.80207c-1.18353,-0.98017 -2.21863,-2.18634 -2.36899,-3.83438c-0.13387,-1.46724 3.48732,-4.42322 2.64345,-5.4732c-0.65749,-0.81808 -2.79664,-1.2724 -3.77043,-1.80253c0,0 -1.09737,-0.59857 -0.4988,-1.69593c0.59857,-1.09737 1.69593,-0.4988 1.69593,-0.4988c2.20501,1.20526 5.63813,1.74338 5.07449,5.10538c-0.15561,0.92816 -2.78569,3.42209 -2.64591,4.28555c0.34787,2.14896 3.6487,2.20691 3.86785,4.25244c0.24319,2.27003 -3.41558,4.04841 -1.17416,5.85439c0.38326,0.30881 0.84508,0.50483 1.26762,0.75725l0.54355,0.32604c0,0 1.07187,0.64312 0.42875,1.71499z"/><path d="M228.12279,174.90006c-0.64312,1.07187 -1.71499,0.42875 -1.71499,0.42875l-0.56755,-0.34063c-2.15359,-1.3556 -3.87593,-2.64451 -2.96729,-5.4828c0.33389,-1.04295 1.50448,-1.7223 1.72742,-2.79445c0.11789,-0.56694 -1.09497,-0.43272 -1.54094,-0.80207c-1.18353,-0.98018 -2.21863,-2.18633 -2.36899,-3.83437c-0.13387,-1.46724 3.48732,-4.42322 2.64345,-5.47321c-0.65749,-0.81808 -2.79663,-1.2724 -3.77042,-1.80253c0,0 -1.09737,-0.59857 -0.49881,-1.69594c0.59857,-1.09737 1.69593,-0.4988 1.69593,-0.4988c2.20501,1.20526 5.63813,1.74337 5.07449,5.10538c-0.15561,0.92816 -2.78568,3.4221 -2.64591,4.28556c0.34787,2.14896 3.6487,2.2069 3.86784,4.25244c0.24319,2.27003 -3.41557,4.04842 -1.17415,5.8544c0.38326,0.30881 0.84508,0.50483 1.26762,0.75725l0.54355,0.32604c0,0 1.07187,0.64312 0.42875,1.71499z"/><path d="M235.12279,174.2334c-0.64312,1.07187 -1.71499,0.42875 -1.71499,0.42875l-0.56756,-0.34063c-2.15359,-1.3556 -3.87593,-2.64451 -2.96728,-5.4828c0.33389,-1.04295 1.50447,-1.7223 1.72741,-2.79445c0.11789,-0.56694 -1.09496,-0.43272 -1.54094,-0.80207c-1.18353,-0.98018 -2.21863,-2.18633 -2.36899,-3.83437c-0.13387,-1.46724 3.48732,-4.42322 2.64345,-5.47321c-0.65749,-0.81808 -2.79663,-1.2724 -3.77042,-1.80253c0,0 -1.09737,-0.59856 -0.49881,-1.69593c0.59857,-1.09737 1.69593,-0.4988 1.69593,-0.4988c2.20501,1.20526 5.63813,1.74337 5.07449,5.10538c-0.15561,0.92816 -2.78569,3.4221 -2.64591,4.28556c0.34787,2.14896 3.6487,2.2069 3.86784,4.25244c0.24319,2.27003 -3.41557,4.04842 -1.17415,5.8544c0.38326,0.30881 0.84508,0.50483 1.26762,0.75725l0.54355,0.32604c0,0 1.07187,0.64312 0.42875,1.71499z"/></g></g></g></svg>