<svg version="1.1" xmlns="http://www.w3.org/2000/svg" xmlns:xlink="http://www.w3.org/1999/xlink" width="210" height="221" viewBox="0,0,210,221"><g transform="translate(-140,-90)"><g data-paper-data="{&quot;isPaintingLayer&quot;:true}" fill-rule="nonzero" stroke-linejoin="miter" stroke-miterlimit="10" stroke-dasharray="" stroke-dashoffset="0" style="mix-blend-mode: normal"><path d="M140,311v-221h210v221z" fill="none" stroke="none" stroke-width="0" stroke-linecap="butt"/><g data-paper-data="{&quot;index&quot;:null}" stroke="#000000" stroke-linecap="round"><path d="M261.972,195.68902c0,0 16.07791,-2.74166 16.52832,3.86764c1.22251,17.93899 -27.35438,14.03624 -27.35438,14.03624z" data-paper-data="{&quot;origPos&quot;:null}" fill="#66c8ff" stroke-width="2"/><path d="M261.32651,197.24681c0,0 11.7118,-1.39546 12.50936,0.49871c0.25154,0.59741 -15.4933,3.61894 -15.4933,3.61894z" data-paper-data="{&quot;origPos&quot;:null}" fill="#0a0a0a" stroke-width="1"/></g><g><path d="M266.47464,241.42182c0,0 1.28105,15.72743 -0.91583,16.07107c-6.59067,1.03098 -24.00964,0.67935 -38.85047,1.1065c-1.66717,0.04798 -1.85433,-14.91078 -1.85433,-14.91078l0.89879,-30.66677c0,0 0.93034,-13.56578 2.45861,-13.60977c9.88583,-0.28454 24.64995,-1.64045 31.16706,-0.18378c2.17237,0.48556 4.52723,14.83314 4.52723,14.83314z" data-paper-data="{&quot;origPos&quot;:null}" fill="#66c8ff" stroke="#000000" stroke-width="3.5" stroke-linecap="round"/><path d="M234.06694,222.78901c-1.29112,0.03715 -1.3627,-2.44931 -1.3627,-2.44931c-0.14843,-5.15712 -0.34457,-11.97188 -0.49301,-17.12901c0,0 -0.07156,-2.48647 1.21957,-2.52363c1.29112,-0.03715 1.36269,2.44931 1.36269,2.44931c0.14843,5.15712 0.29686,10.31424 0.44531,15.47136l0.04771,1.65765c0,0 0.07157,2.48647 -1.21956,2.52363z" fill="#ffffff" stroke="none" stroke-width="0.5" stroke-linecap="butt"/><path d="M246.24419,228.77448c-1.29112,0.03715 -1.38104,-3.08655 -1.38104,-3.08655c-0.18648,-6.4788 -0.43288,-15.04006 -0.61936,-21.51887c0,0 -0.0899,-3.12371 1.20123,-3.16086c1.29112,-0.03715 1.38103,3.08655 1.38103,3.08655c0.18648,6.4788 0.37294,12.9576 0.55942,19.43639l0.05994,2.08247c0,0 0.08991,3.12371 -1.20122,3.16086z" fill="#ffffff" stroke="none" stroke-width="0.5" stroke-linecap="butt"/></g><g fill="none" stroke="#b9b9b9" stroke-width="3"><path d="M255.96383,204.4467c-0.89216,-1.31653 -0.03872,-2.57881 1.12397,-3.85449c1.1627,-1.27566 2.37071,-1.70645 3.08653,-0.76516c1.51773,1.99584 0.07726,3.04216 -0.83317,4.04104c-1.16271,1.27568 -2.11735,2.43789 -3.37733,0.5786z" stroke-linecap="butt"/><path d="M254.45316,206.45071l2.46525,-2.64161" stroke-linecap="round"/><path d="M250.94121,207.25063c1.1627,-1.27566 2.37071,-1.70645 3.08653,-0.76516c1.51773,1.99584 0.07726,3.04216 -0.83317,4.04104c-1.1627,1.27567 -2.11734,2.43789 -3.37732,0.57861c-0.89216,-1.31653 -0.03873,-2.57881 1.12396,-3.8545z" stroke-linecap="butt"/><path d="M248.30657,213.10915l2.46525,-2.64163" stroke-linecap="round"/><path d="M242.66901,212.92897c0.32121,-1.65252 1.66516,-1.56272 3.20535,-1.17785c1.5402,0.38487 2.55463,1.3137 2.3722,2.57159c-0.38677,2.66706 -1.9452,1.87441 -3.15122,1.57305c-1.5402,-0.38486 -2.87999,-0.63299 -2.42635,-2.96678z" stroke-linecap="butt"/><path d="M243.66522,213.48722l-3.22428,-0.85341" stroke-linecap="round"/><path d="M235.26632,208.90611c0.82835,-1.35832 2.03979,-0.62888 3.33741,0.46522c1.29762,1.09409 1.93491,2.43304 1.36169,3.49687c-1.21541,2.25562 -2.39857,0.77938 -3.41466,-0.07733c-1.29761,-1.0941 -2.45425,-1.96648 -1.28444,-3.88477z" stroke-linecap="butt"/><path d="M236.00606,209.89698l-2.7011,-2.33408" stroke-linecap="round"/><path d="M228.47437,203.10279c0.82836,-1.3583 2.0398,-0.62888 3.33741,0.46522c1.29762,1.09409 1.93491,2.43304 1.36169,3.49687c-1.21541,2.25561 -2.39857,0.77938 -3.41465,-0.07733c-1.29761,-1.09409 -2.45425,-1.96647 -1.28444,-3.88477z" stroke-linecap="butt"/><path d="M226.51303,201.75958l2.70112,2.33407" stroke-linecap="round"/></g><g><g data-paper-data="{&quot;index&quot;:null}"><g stroke="#000000" stroke-width="3" stroke-linecap="round"><path d="M279.05172,235.34932c0,0 2.92684,10.33492 2.49824,14.92259c-15.65794,6.40346 -25.29685,3.80634 -25.29685,3.80634c-1.99267,0.40107 -2.25861,-6.86902 -2.25861,-6.86902c0,0 -0.98436,-14.17531 -1.61442,-23.24822c-0.41373,-5.95764 -1.0601,-15.26573 -1.0601,-15.26573c0,0 -0.14949,-5.92263 0.9439,-6.05429c6.57799,-0.79209 12.78844,-2.85539 16.15944,-2.08026c1.12367,0.25838 2.71019,5.74869 2.71019,5.74869l7.91816,29.03987z" data-paper-data="{&quot;origPos&quot;:null}" fill="#582700"/><path d="M279.75429,241.06418l-25.34499,4.02635l-0.51958,-3.3621l25.34481,-4.28498z" data-paper-data="{&quot;origPos&quot;:null}" fill="none"/></g><path d="M253.60563,241.30885l-1.75811,-36.82561l1.15475,-0.86731l15.59545,-2.61018l9.84507,36.09801z" fill="#66c8ff" stroke="#000000" stroke-width="1" stroke-linecap="round"/><path d="M254.30426,244.65628l-0.36856,-2.30177l25.18009,-4.0318l0.36856,2.30177z" fill="#ffffff" stroke="none" stroke-width="0" stroke-linecap="butt"/></g><g fill="#fffc96" stroke="#000000" stroke-width="2" stroke-linecap="round"><path d="M277.18915,230.72734c0,0 4.35917,0.46192 4.30476,3.40566c-0.08707,4.70989 -32.63703,-0.81741 -32.84236,-5.73141c-0.0839,-2.00774 3.08339,-2.18752 3.08339,-2.18752l0.30011,1.84744c0,0 5.87973,2.37891 13.44362,3.83723c7.45909,1.43811 12.53861,1.03013 12.53861,1.03013z"/><path d="M274.95425,222.40468c0,0 2.99952,-2.34619 3.9585,-0.2313c2.01302,4.43947 -27.13143,23.96214 -28.04014,19.41774c-0.55032,-2.7522 2.74164,-3.87568 2.74164,-3.87568l0.26067,1.35204c0,0 4.89469,-2.09812 11.40847,-6.62825c6.51379,-4.53013 10.06895,-8.7915 10.06895,-8.7915z" data-paper-data="{&quot;index&quot;:null}"/></g></g><path d="M279.30698,253.91771c0,0 4.36261,-1.02642 6.59769,-0.26656c1.71105,0.58168 2.36541,2.38846 2.87475,4.12242c1.39803,4.7595 0.14776,9.61376 0.42148,17.32516c0.07454,2.10025 -2.9719,3.39358 -5.07256,3.33199c-1.96473,-0.05762 -5.37653,-0.27815 -5.37653,-0.27815l-33.06388,-1.70473c0,0 -4.27348,-0.36046 -5.09926,-2.06162c-1.98861,-4.09672 -0.70456,-8.62555 -1.12247,-13.16021c-0.14163,-1.53674 4.64985,-1.83404 4.64985,-1.83404c0,0 8.8983,-1.38422 14.59369,-2.27018c8.03835,-1.25044 20.59726,-3.20407 20.59726,-3.20407z" data-paper-data="{&quot;index&quot;:null}" fill="#4b4b4b" stroke="#000000" stroke-width="3" stroke-linecap="round"/><path d="M240.53179,265.47173c0,0 2.03836,3.99136 1.83413,6.34323c-0.15632,1.80045 -1.75461,2.86727 -3.31681,3.77589c-4.28805,2.49399 -9.30043,2.43889 -16.72345,4.54589c-2.02171,0.57384 -4.00501,-2.07569 -4.44676,-4.1303c-0.41315,-1.92166 -1.01361,-5.28744 -1.01361,-5.28744l-6.23898,-32.51463c0,0 -0.67031,-4.23595 0.78448,-5.44402c3.50343,-2.90924 8.20786,-2.74364 12.51159,-4.23217c1.45848,-0.50445 2.89121,4.07747 2.89121,4.07747c0,0 3.46876,8.31044 5.68895,13.62958c3.13353,7.50731 8.02925,19.23654 8.02925,19.23654z" data-paper-data="{&quot;index&quot;:null}" fill="#4b4b4b" stroke="#000000" stroke-width="3" stroke-linecap="round"/><path d="M222.26437,199.87889c0,0 -1.9896,-4.11964 -2.12974,-5.19612c-0.42042,-3.22943 -1.3321,-17.38885 -2.11352,-30.18885c-0.12087,-1.97985 1.30445,-5.17164 1.30445,-5.17164c0,0 2.09901,-1.75912 3.35796,-1.84287c13.88991,-0.92416 27.0398,-2.89485 32.28625,-1.66469c1.74881,0.41005 4.99686,1.95235 4.99686,1.95235c0,0 0.97723,4.34391 1.18012,5.46482c0.06762,0.37364 0.10669,0.58387 0.15194,0.96087c1.35565,11.2959 1.71122,24.44147 1.61991,29.04556c-0.03044,1.53471 -1.69774,4.0309 -1.69774,4.0309c0,0 -1.21852,2.80664 -5.5608,3.88225c-4.75121,1.1769 -16.46735,1.5189 -28.55033,1.83437z" fill="#582700" stroke="#000000" stroke-width="2.5" stroke-linecap="round"/><g data-paper-data="{&quot;index&quot;:null}"><g data-paper-data="{&quot;origRot&quot;:0}" stroke="#000000" stroke-width="3" stroke-linecap="round"><path d="M267.44304,248.79146c0.1861,2.44574 -9.21095,1.52165 -9.21095,1.52165c0,0 -24.92705,-1.78832 -36.70377,-2.58582c-4.8976,-1.02433 -9.01424,-39.83518 -5.11624,-44.31315c1.73759,-1.99612 11.9757,-4.81814 13.659,-3.52482c3.20404,2.46168 9.70684,18.22634 9.70684,18.22634l-4.46098,0.48187l11.80522,-0.20276c0,0 13.70774,-1.37397 19.61165,-0.43247c3.27438,0.52216 0.70921,30.82919 0.70921,30.82919z" data-paper-data="{&quot;origPos&quot;:null}" fill="#582700"/><path d="M256.77778,248.62983l-0.89127,-30.04194" fill="none"/><path d="M252.47629,248.96956l-1.1991,-30.03811" data-paper-data="{&quot;origPos&quot;:null}" fill="none"/></g><path d="M256.60476,249.25513l-3.02197,0.0552l-1.11895,-30.72668l3.02198,-0.0552z" fill="#ffffff" stroke="none" stroke-width="0" stroke-linecap="butt"/><path d="M221.22242,247.88855l-3.98765,-10.50901l-2.05452,-23.94619l1.3452,-8.37652l3.68046,-3.77353l8.03832,-0.56833l1.60765,-0.11366l8.87957,16.43698l-3.19114,0.47657l0.19354,1.99393l14.27359,-0.25631l2.12345,30.21513l-29.32501,-1.94193z" fill="#66c8ff" stroke="#000000" stroke-width="0.5" stroke-linecap="round"/></g><path d="M262.32595,158.22189l-0.74499,-0.47802c-0.09114,-0.02502 -0.18221,-0.04953 -0.27322,-0.07356c-0.20149,0.32442 -0.60873,0.71315 -1.35752,0.51569c-0.69015,-0.182 -0.8823,-0.65413 -0.92017,-1.02575c-2.66416,-0.49463 -5.30973,-0.64797 -8.082,-0.72358c-7.74658,0.05347 -15.47303,0.70785 -23.20321,1.20255c-2.53515,0.16224 -8.14423,1.54531 -10.36925,-0.00263c-1.08513,-0.75492 -0.80447,-2.70722 -0.97196,-3.75177c-0.48534,-3.02689 -1.05556,-6.15642 -1.26297,-9.21707c-0.24433,-4.00228 -1.96916,-7.48008 -2.72386,-11.37265c-0.37836,-1.95147 -1.17095,-3.88695 0.48136,-5.69971c0.46654,-0.51184 1.357,-0.28745 2.04494,-0.36731c2.51418,-0.29184 4.96636,-0.2748 7.48022,-0.13678c7.96643,0.43736 15.81714,0.45856 23.76045,1.38369c3.20456,0.37702 6.40209,0.24231 9.62677,0.14617c1.89523,-0.0565 3.58619,-0.70607 4.85459,1.38344c0.75746,1.24781 0.51238,5.27564 0.55254,6.75811c0.15487,5.71637 1.49832,12.66099 0.66483,18.4742c0.11937,0.03113 0.23884,0.06302 0.35842,0.09566l1.33608,0.72487c0,0 1.08223,0.62554 0.4567,1.70777c-0.62554,1.08223 -1.70777,0.4567 -1.70777,0.4567z" data-paper-data="{&quot;index&quot;:null}" fill="#000000" stroke="none" stroke-width="0.5" stroke-linecap="butt"/><path d="M234.9061,174.59378c0.54421,-0.05531 1.28792,2.87773 1.66116,6.55106c0.37325,3.67334 0.23468,6.69599 -0.30953,6.75128c-0.54421,0.05531 -1.28792,-2.87772 -1.66117,-6.55105c-0.37325,-3.67334 -0.23469,-6.69601 0.30954,-6.7513z" data-paper-data="{&quot;index&quot;:null}" fill="none" stroke="#000000" stroke-width="2.5" stroke-linecap="butt"/><path d="M237.57683,172.35625c0.6756,1.0517 -0.37609,1.7273 -0.37609,1.7273l-0.70021,0.42898c-1.12389,1.01987 -1.75205,1.49468 -2.60739,1.74854l0.09498,0.20652l-1.23938,0.57003c-0.14242,0.06956 -0.30053,0.11302 -0.46851,0.12378c-0.68896,0.04409 -1.2832,-0.47866 -1.32728,-1.16761c-0.02548,-0.39824 0.13843,-0.76484 0.41438,-1.01183l0.93832,-0.85447l0.02268,0.0249l0.03576,-0.07491c0.82156,-0.58278 1.64892,-1.15754 2.48477,-1.71967c0,0 0.34827,-0.23419 0.7769,-0.22937l0.2238,-0.14828c0,0 1.0517,-0.6756 1.7273,0.37609z" fill="#582700" stroke="none" stroke-width="0.5" stroke-linecap="butt"/><path d="M250.04412,174.83925c0.29341,0.21223 -0.63009,1.98971 -2.06262,3.9701c-1.43253,1.98039 -2.83168,3.41378 -3.12508,3.20153c-0.29341,-0.21223 0.63008,-1.9897 2.06261,-3.97009c1.43253,-1.98039 2.83168,-3.41378 3.12508,-3.20155z" data-paper-data="{&quot;index&quot;:null}" fill="none" stroke="#000000" stroke-width="2.5" stroke-linecap="butt"/><path d="M251.53826,186.56577c-0.20394,0.26886 -1.84042,-0.62917 -3.65516,-2.00577c-1.81474,-1.37661 -3.12057,-2.71051 -2.91661,-2.97938c0.20394,-0.26887 1.84041,0.62915 3.65516,2.00576c1.81474,1.37661 3.12058,2.71051 2.91663,2.97938z" data-paper-data="{&quot;index&quot;:null}" fill="none" stroke="#000000" stroke-width="2.5" stroke-linecap="butt"/><g data-paper-data="{&quot;index&quot;:null}" stroke="#000000" stroke-width="1.25" stroke-linecap="butt"><g data-paper-data="{&quot;index&quot;:null}" fill="#000000"><path d="M246.85749,191.27689c7.08168,-0.13749 4.54171,2.67749 4.54171,2.67749l-8.87015,0.2867c0,0 -2.32174,-2.77267 4.32844,-2.96418z"/></g><g data-paper-data="{&quot;index&quot;:null}" fill="#ffffff"><path d="M243.80613,191.67259c0.70617,-0.20935 1.69107,-0.35653 3.05137,-0.3957c7.08168,-0.13749 4.54171,2.67749 4.54171,2.67749c0,0 -6.00094,0.19396 -7.4985,0.24236c-0.00206,0.00006 0.45449,-0.70176 0.42637,-1.38785c-0.02302,-0.56193 -0.53359,-1.13256 -0.52095,-1.1363z"/></g></g></g></g></svg>