<svg version="1.1" xmlns="http://www.w3.org/2000/svg" xmlns:xlink="http://www.w3.org/1999/xlink" width="127.66667" height="127.66667" viewBox="0,0,127.66667,127.66667"><g transform="translate(-176.16667,-116.16666)"><g data-paper-data="{&quot;isPaintingLayer&quot;:true}" fill-rule="nonzero" stroke-linejoin="miter" stroke-miterlimit="10" stroke-dasharray="" stroke-dashoffset="0" style="mix-blend-mode: normal"><g stroke="#000000" stroke-width="1" stroke-linecap="butt"><path d="M229.70293,181.14339c0.50769,-1.19413 2.05289,-4.04215 3.3359,-4.5688c3.6595,-1.50217 4.69621,2.31547 4.86594,4.8634c-0.09822,2.36674 -1.48721,6.04397 -3.94425,8.60248c-1.69413,1.76408 -3.35754,2.77222 -4.88327,3.37586c-0.52038,0.20589 -2.89623,-0.05514 -4.82771,-3.40275c-1.8061,-3.1303 -2.7839,-7.70706 -1.59572,-8.39284c1.0225,-0.59016 6.69527,0.3617 6.69527,0.3617z" fill="#dc94e7"/><path d="M225.68228,185.34962c0.05323,0.04276 0.083,0.07521 0.083,0.07521l0.63921,0.80321c0.26874,0.82828 0.21633,1.56356 0.20066,2.28056c-0.01929,0.88252 -0.08724,1.73287 -0.69697,2.64069c-4.22636,5.16645 -15.22417,6.39763 -14.83199,-2.75693c0.18259,-3.81788 3.79714,-4.84293 7.53668,-4.75117c2.5479,0.06251 5.15849,0.53493 6.76289,1.42037c0,0 0.17902,0.09931 0.30653,0.28805z" fill="#f89688"/></g><g><g stroke="#000000"><path d="M253.49413,193.31798l1.75835,9.73519l-37.56842,-0.98638c0,0 -0.44035,-9.54107 1.27153,-11.34553c0.59347,-0.62556 7.21997,2.03919 7.21997,2.03919l-0.54268,-3.81689z" fill="#0066cd" stroke-width="0" stroke-linecap="round"/><path d="M246.95783,195.084c-1.50492,0.75211 -3.46626,1.96401 -5.55469,2.32519c-3.234,0.55932 -6.47304,0.03793 -6.47304,0.03793c0,0 0.30281,3.49312 0.18664,5.07736l-6.30755,-0.16562c0.10962,-1.29633 -0.57405,-3.71336 -1.36584,-5.89166c-0.62872,-1.72966 -1.37315,-3.35633 -1.50415,-3.81326c0.15103,0.06748 0.23634,0.1065 0.23634,0.1065l-0.54268,-3.81689l21.46543,3.37873c0,0 0.43609,0.795 0.40582,1.59336c-0.01954,0.51496 -0.48353,1.15655 -0.54628,1.16833z" fill="#061483" stroke-width="0" stroke-linecap="butt"/><path d="M253.49413,193.31798l1.75835,9.73519l-37.56842,-0.98638c0,0 -0.44035,-9.54107 1.27153,-11.34553c0.59347,-0.62556 7.21997,2.03919 7.21997,2.03919l-0.54268,-3.81689z" fill="none" stroke-width="1" stroke-linecap="round"/><path d="M232.0081,195.67673l2.1872,1.887" fill="none" stroke-width="1" stroke-linecap="round"/></g><g><path d="M240.61342,209.63623c0,0.33519 -1.63074,2.50378 -2.85523,2.79868c-2.46242,0.59307 -7.38873,0.24178 -11.07692,0.90119c-1.33696,0.23903 -3.19606,0.44866 -4.63054,1.09762c-0.92448,0.41823 -1.74343,2.02085 -6.96282,2.16315c-3.25738,0.0888 -6.83425,-0.83198 -7.71227,-1.14691c-2.50226,-0.89751 -3.34425,-2.76549 -3.30137,-4.09828c0.01257,-0.39041 0.42812,-1.81565 1.76048,-1.48829c0.90605,0.22261 3.46358,1.84521 6.17255,2.24522c3.29288,0.48623 6.89529,0.06209 7.94157,-0.19361c2.51502,-0.61463 4.62961,-2.03761 7.06881,-2.81725c2.58159,-0.82516 5.97162,0.34968 8.04687,-0.15176c2.70956,-0.65471 3.81251,-2.83717 4.39353,-2.55589c0.93799,0.4541 1.15532,2.55874 1.15532,3.24612z" fill="#feecf7" stroke="none" stroke-width="0" stroke-linecap="butt"/><path d="M237.75819,212.4349c-2.46242,0.59306 -7.38873,0.24178 -11.07692,0.90119c-1.33696,0.23904 -3.19606,0.44867 -4.63054,1.09763c-0.92447,0.41822 -1.74343,2.02085 -6.9628,2.16315c-0.4438,0.0121 -0.89353,0.00545 -1.34155,-0.01584c-0.43617,-1.67958 -1.41883,-3.10604 -2.32625,-4.5779c0.19455,0.04094 0.39047,0.07644 0.58718,0.10547c3.29288,0.48623 6.8953,0.0621 7.94157,-0.19361c2.51503,-0.61465 4.62961,-2.03761 7.06882,-2.81725c2.58159,-0.82514 5.97162,0.34968 8.04687,-0.15176c2.70956,-0.6547 3.81251,-2.83717 4.39353,-2.55589c0.93799,0.45411 1.15532,2.55874 1.15532,3.24612c0,0.3352 -1.63074,2.50378 -2.85523,2.79868z" fill="#dd95e8" stroke="none" stroke-width="0" stroke-linecap="butt"/><path d="M240.61342,209.63623c0,0.33519 -1.63074,2.50378 -2.85523,2.79868c-2.46242,0.59307 -7.38873,0.24178 -11.07692,0.90119c-1.33696,0.23903 -3.19606,0.44866 -4.63054,1.09762c-0.92448,0.41823 -1.74343,2.02085 -6.96282,2.16315c-3.25738,0.0888 -6.83425,-0.83198 -7.71227,-1.14691c-2.50226,-0.89751 -3.34425,-2.76549 -3.30137,-4.09828c0.01257,-0.39041 0.42812,-1.81565 1.76048,-1.48829c0.90605,0.22261 3.46358,1.84521 6.17255,2.24522c3.29288,0.48623 6.89529,0.06209 7.94157,-0.19361c2.51502,-0.61463 4.62961,-2.03761 7.06881,-2.81725c2.58159,-0.82516 5.97162,0.34968 8.04687,-0.15176c2.70956,-0.65471 3.81251,-2.83717 4.39353,-2.55589c0.93799,0.4541 1.15532,2.55874 1.15532,3.24612z" fill="none" stroke="#000000" stroke-width="1" stroke-linecap="butt"/><path d="M217.55539,201.20906l-1.32948,-3.73111c0,0 2.8106,-2.12368 7.65675,-1.54147c3.72193,0.44716 5.08049,4.41485 5.08049,4.41485c0,0 3.57503,-4.04059 4.74028,-3.35392c0.51589,0.30401 2.34417,1.10802 2.97465,2.21711c1.53721,2.70415 1.80584,6.62625 1.80584,6.62625c0,0 0.41737,2.21366 -1.99127,2.88539c-1.68043,0.46864 -4.34287,0.34385 -7.03231,0.50096c-0.85331,0.04984 -1.69638,0.03395 -2.4905,0.25952c-1.84413,0.5238 -3.42297,1.56729 -5.3759,2.2564c-1.55439,0.54848 -3.47151,0.8096 -5.04159,0.85874c-3.6108,0.11301 -7.30255,-0.80321 -10.16225,-2.30084c-1.8351,-0.96105 0.71881,-3.82844 4.37407,-5.95649c3.26663,-1.9018 6.79121,-3.1354 6.79121,-3.1354z" fill="#ff292e" stroke="#000000" stroke-width="0" stroke-linecap="round"/><path d="M226.8901,197.3114c0.56861,0.50162 1.73755,1.99339 1.90193,3.00395c0.1394,0.857 -0.70861,1.23546 -0.48498,1.75693c0.19854,0.46296 1.42806,0.16605 1.42806,0.16605c0,0 2.04695,-0.84384 3.62863,-2.29243c0.7716,-0.70667 1.64124,-2.23 1.64124,-2.23c0,0 1.33278,0.89999 1.67309,1.49863c1.53721,2.70415 1.80584,6.62625 1.80584,6.62625c0,0 0.41737,2.21366 -1.99127,2.88539c-1.68043,0.46864 -4.34287,0.34385 -7.03231,0.50096c-0.85331,0.04984 -1.69638,0.03395 -2.4905,0.25952c-1.84413,0.5238 -3.42297,1.56729 -5.3759,2.2564c-1.55439,0.54848 -3.47151,0.8096 -5.04159,0.85874c-0.98536,0.03084 -2.95564,-0.12833 -2.95564,-0.12833c0,0 -0.45608,-2.69671 1.66501,-5.12594c2.44768,-2.80325 6.88327,-4.11214 9.64969,-6.15067c2.49395,-1.83776 1.78263,-4.05842 1.97869,-3.88545z" fill="#ac0e49" stroke="#000000" stroke-width="0" stroke-linecap="round"/><path d="M228.96313,200.30844c0,0 0.12921,1.06387 -0.40554,1.51144c-0.38839,0.32507 -1.9532,0.58999 -1.9532,0.58999" fill="none" stroke="#000000" stroke-width="1" stroke-linecap="round"/><path d="M234.25963,200.30844c0,-0.46186 0.37442,-0.83628 0.83628,-0.83628c0.46186,0 0.83628,0.37442 0.83628,0.83628c0,0.46186 -0.37442,0.83628 -0.83628,0.83628c-0.46186,0 -0.83628,-0.37442 -0.83628,-0.83628z" fill="#000000" stroke="none" stroke-width="0.5" stroke-linecap="butt"/><path d="M217.55539,201.20906l-1.32948,-3.73111c0,0 2.8106,-2.12368 7.65675,-1.54147c3.72193,0.44716 5.08049,4.41485 5.08049,4.41485c0,0 3.57503,-4.04059 4.74028,-3.35392c0.51589,0.30401 2.34417,1.10802 2.97465,2.21711c1.53721,2.70415 1.80584,6.62625 1.80584,6.62625c0,0 0.41737,2.21366 -1.99127,2.88539c-1.68043,0.46864 -4.34287,0.34385 -7.03231,0.50096c-0.85331,0.04984 -1.69638,0.03395 -2.4905,0.25952c-1.84413,0.5238 -3.42297,1.56729 -5.3759,2.2564c-1.55439,0.54848 -3.47151,0.8096 -5.04159,0.85874c-3.6108,0.11301 -7.30255,-0.80321 -10.16225,-2.30084c-1.8351,-0.96105 0.71881,-3.82844 4.37407,-5.95649c3.26663,-1.9018 6.79121,-3.1354 6.79121,-3.1354z" fill="none" stroke="#000000" stroke-width="1" stroke-linecap="round"/><path d="M212.38761,203.43915c0,-0.2686 0.12664,-0.50764 0.32345,-0.66064c-0.14245,0.30595 -0.231,0.64203 -0.25346,0.99609c-0.04501,-0.10268 -0.06999,-0.21615 -0.06999,-0.33545z" fill="#db93e6" stroke="none" stroke-width="0.5" stroke-linecap="butt"/><path d="M220.729,200.84453c5.36301,0.04651 4.6557,6.30284 1.97676,4.47385c-0.56413,-0.38516 -1.14635,-1.13569 -1.75326,-1.58809c-0.80799,-0.60228 -2.20652,-1.18841 -3.05294,-1.67209c-0.29133,-0.13074 -0.16932,-1.01887 0.23482,-1.19223c0.40415,-0.17336 1.73335,-0.02891 2.59462,-0.02144z" fill="#f0e0ec" stroke="none" stroke-width="0.5" stroke-linecap="butt"/><path d="M221.58913,206.78426c-0.04287,0.42165 -0.399,0.75067 -0.83196,0.75067c-0.30694,0 -0.57525,-0.16535 -0.72072,-0.41184c-0.2312,-0.13211 -1.85102,-1.37107 -2.88121,-2.38367c-0.87171,-0.85682 -1.89764,-1.52796 -2.33491,-2.16462c-0.32071,-0.46696 -0.11359,-0.78023 0.33214,-0.94991c1.44435,-0.54982 7.60364,3.20573 6.43666,5.15938z" data-paper-data="{&quot;index&quot;:null}" fill="#f0e0ec" stroke="none" stroke-width="0.5" stroke-linecap="butt"/><path d="M218.84858,207.16312c0.33475,1.26692 -1.09143,2.00882 -1.79482,0.9035c-0.41897,-0.65837 -1.70974,-1.69156 -2.34123,-2.21345c-0.66411,-0.54886 -1.48386,-0.94215 -1.91308,-1.69329c-0.24648,-0.14548 -0.41184,-0.41378 -0.41184,-0.72072c0,-0.46186 0.37442,-0.83628 0.83628,-0.83628c0.25436,0 0.48222,0.11357 0.6356,0.29277c1.65607,0.45449 4.67257,3.06959 4.98909,4.2675z" fill="#f0e0ec" stroke="none" stroke-width="0.5" stroke-linecap="butt"/><path d="M222.70574,205.31838c-0.54218,-0.37016 -1.10106,-1.07782 -1.68251,-1.53396c1.10453,-0.27698 1.94761,-1.21297 2.08707,-2.36577c2.65203,1.51262 1.77818,5.38995 -0.40456,3.89972z" fill="#db93e6" stroke="none" stroke-width="0.5" stroke-linecap="butt"/><path d="M221.58913,206.78426c-0.04287,0.42165 -0.399,0.75067 -0.83196,0.75067c-0.30694,0 -0.57525,-0.16535 -0.72072,-0.41184c-0.16927,-0.09673 -1.4541,-0.7868 -2.10598,-1.54695c0.88983,-0.0642 1.66392,-0.54608 2.12724,-1.25056c0.74673,0.8655 1.94097,1.77304 1.53142,2.45866z" data-paper-data="{&quot;index&quot;:null}" fill="#db93e6" stroke="none" stroke-width="0.5" stroke-linecap="butt"/><path d="M218.84858,207.16312c0.33475,1.26692 -1.09143,2.00882 -1.79482,0.9035c-0.23987,-0.37693 -0.50328,-0.87673 -0.80316,-1.33309c0.74314,-0.05563 0.60506,-0.40263 1.07188,-0.92709c0.36774,0.51507 1.43159,0.99905 1.52609,1.35669z" fill="#db93e6" stroke="none" stroke-width="0.5" stroke-linecap="butt"/><path d="M220.729,200.84453c5.36301,0.04651 4.6557,6.30284 1.97676,4.47385c-0.56413,-0.38516 -1.14635,-1.13569 -1.75326,-1.58809c-0.80799,-0.60228 -2.20652,-1.18841 -3.05294,-1.67209c-0.29133,-0.13074 -0.16932,-1.01887 0.23482,-1.19223c0.40415,-0.17336 1.73335,-0.02891 2.59462,-0.02144z" fill="none" stroke="#000000" stroke-width="1" stroke-linecap="butt"/><path d="M221.58913,206.78426c-0.04287,0.42165 -0.399,0.75067 -0.83196,0.75067c-0.30694,0 -0.57525,-0.16535 -0.72072,-0.41184c-0.2312,-0.13211 -1.85102,-1.37107 -2.88121,-2.38367c-0.87171,-0.85682 -1.89764,-1.52796 -2.33491,-2.16462c-0.32071,-0.46696 -0.11359,-0.78023 0.33214,-0.94991c1.44435,-0.54982 7.60364,3.20573 6.43666,5.15938z" data-paper-data="{&quot;index&quot;:null}" fill="none" stroke="#000000" stroke-width="1" stroke-linecap="butt"/><path d="M217.05375,208.06662c-0.41897,-0.65837 -1.70974,-1.69156 -2.34123,-2.21345c-0.66411,-0.54886 -1.48386,-0.94215 -1.91308,-1.69329c-0.24648,-0.14548 -0.41184,-0.41378 -0.41184,-0.72072c0,-0.46186 0.37442,-0.83628 0.83628,-0.83628c0.25436,0 0.48222,0.11357 0.6356,0.29277c1.65607,0.45449 4.67257,3.06959 4.98909,4.2675c0.31652,1.1979 -1.09143,2.00881 -1.79482,0.90349z" fill="none" stroke="#000000" stroke-width="1" stroke-linecap="butt"/></g><g><path d="M239.36971,208.91399c0,0 0.3915,8.34024 14.60749,6.23944c13.4989,-1.99483 10.83893,-9.15571 10.83893,-9.15571l5.00286,1.887c0,0 -0.00863,1.18868 0.0127,2.61652c0.02049,1.37182 0.09502,2.95119 -1.0369,4.54341c-2.00021,2.81361 -6.76078,4.99215 -16.60204,5.40697c-20.06166,0.84564 -12.82304,-11.53763 -12.82304,-11.53763z" fill="#ffeffa" stroke="#000000" stroke-width="0" stroke-linecap="round"/><path d="M238.24138,214.9262c-0.01726,-0.07859 3.87856,5.67316 16.55063,3.82969c14.35662,-1.86616 15.02695,-10.87116 15.02695,-10.87116c0,0 -0.00863,1.18868 0.0127,2.61652c0.02049,1.37182 0.09502,2.95119 -1.0369,4.54341c-2.00021,2.81361 -6.76078,4.99215 -16.60204,5.40697c-10.11326,0.42629 -13.28882,-2.50921 -13.95136,-5.52542z" fill="#dd95e8" stroke="#000000" stroke-width="0" stroke-linecap="round"/><path d="M239.36971,208.91399c0,0 0.3915,8.34024 14.60749,6.23944c13.4989,-1.99483 10.83893,-9.15571 10.83893,-9.15571l5.00286,1.887c0,0 -0.00863,1.18868 0.0127,2.61652c0.02049,1.37182 0.09502,2.95119 -1.0369,4.54341c-2.00021,2.81361 -6.76078,4.99215 -16.60204,5.40697c-20.06166,0.84564 -12.82304,-11.53763 -12.82304,-11.53763z" fill="none" stroke="#000000" stroke-width="1" stroke-linecap="round"/><path d="M243.75778,199.14542c1.31642,-1.17593 6.83383,-2.37225 9.54146,-1.8472c1.63401,0.31686 1.35284,1.93808 1.35284,1.93808c0,0 6.50518,-3.29028 7.2311,-2.78214c0.28324,0.19828 1.53295,2.07667 0.92706,3.17351c-0.89762,1.62499 -3.86953,2.61068 -3.86953,2.61068c0,0 0.38686,0.12296 0.98019,0.36644c-4.37977,0.2708 -10.45727,2.81658 -13.09573,2.97807c-0.28949,0.01772 -0.09375,-0.57255 -0.14995,-0.85709c-0.2393,-1.21161 -0.36474,-2.58493 -1.15202,-3.60541c-0.53209,-0.6897 -1.20811,-1.28668 -1.96677,-1.76955c0.06482,-0.07445 0.13195,-0.14336 0.20135,-0.20536z" fill="#ff292e" stroke="#000000" stroke-width="0" stroke-linecap="butt"/><path d="M238.95568,206.14098l-4.26626,-0.16396c0,0 -0.75986,-1.06582 0.64989,-3.95604l0.44322,0.77565c0.89587,1.56777 5.91336,-0.09743 5.42961,2.84951c-0.11145,0.67887 -0.52062,0.92814 -1.67088,1.49438c0.1108,-0.61531 -0.58557,-0.99954 -0.58557,-0.99954z" fill="#ff292e" stroke="#000000" stroke-width="0" stroke-linecap="butt"/><path d="M258.17176,209.10014c0.36853,-0.08338 0.88232,-0.11124 1.46868,-0.11798c-0.6464,0.16771 -1.32782,0.23565 -2.02895,0.24198c0.20663,-0.04469 0.39459,-0.08651 0.56025,-0.12398z" fill="#ac0e49" stroke="#000000" stroke-width="0" stroke-linecap="butt"/><path d="M242.30081,202.06679c0,0 0.52294,-2.08702 1.45697,-2.92137c1.31642,-1.17593 6.83383,-2.37225 9.54146,-1.8472c1.63401,0.31686 1.35284,1.93808 1.35284,1.93808c0,0 6.50518,-3.29028 7.2311,-2.78214c0.28324,0.19828 1.53295,2.07667 0.92706,3.17351c-0.89762,1.62499 -3.86953,2.61068 -3.86953,2.61068c0,0 3.2768,1.04143 5.38321,3.06446c3.27168,3.14221 5.00444,8.1679 -9.80834,11.59558c-1.79091,0.41442 -10.06451,0.93634 -13.55884,-2.11337c-2.85954,-2.49569 -2.00105,-8.64402 -2.00105,-8.64402l-4.26626,-0.16396c0,0 -0.79623,-1.11685 0.75362,-4.16423c0.36247,-0.7127 6.85777,0.254 6.85777,0.254z" fill="#ff292e" stroke="#000000" stroke-width="0" stroke-linecap="round"/><path d="M238.95568,206.14098l-4.26626,-0.16396c0,0 -0.5427,-0.76123 0.14011,-2.74157c1.97616,0.73611 6.21238,1.20089 7.42841,1.75617c0.14476,0.0661 -1.20123,0.75924 -1.35092,0.8545c-0.89102,0.56702 -0.6988,1.12815 -1.40328,1.90308c-0.02477,0.02724 -0.04901,0.05479 -0.07273,0.08264c0.13987,-1.0057 -0.47531,-1.69088 -0.47531,-1.69088z" fill="#ac0e49" stroke="#000000" stroke-width="0" stroke-linecap="butt"/><path d="M238.21589,206.27232c-0.27303,0.24428 -2.54969,0.17339 -2.50058,-0.53893c-0.05339,-0.11013 -0.08333,-0.23375 -0.08333,-0.36435c0,-0.46186 0.37442,-0.83628 0.83628,-0.83628c0.24056,0 0.4574,0.10157 0.60997,0.26417c1.11623,-0.04955 2.12857,0.58878 1.13765,1.4754z" fill="#000000" stroke="none" stroke-width="0.5" stroke-linecap="butt"/><path d="M254.51556,216.89838c-1.79091,0.41442 -10.06451,0.93634 -13.55884,-2.11337c-0.3195,-0.27885 -0.5826,-0.60331 -0.79791,-0.95967c3.21261,0.17766 11.22397,-3.76602 14.15318,-4.46787c1.7611,-0.42198 5.91336,0.01395 8.68214,-0.70891c0.18548,-0.04842 1.22555,1.94151 1.60247,1.53843c0.40093,-0.42875 0.29917,-3.59532 0.2842,-4.30339c2.77006,3.15444 3.56525,7.79127 -10.36524,11.01479z" fill="#ac0e49" stroke="#000000" stroke-width="0" stroke-linecap="butt"/><path d="M262.81022,199.62765c-0.89762,1.62499 -3.86953,2.61068 -3.86953,2.61068c0,0 0.88914,0.28259 2.03882,0.8393c-2.6179,0.16708 -5.35164,0.92473 -5.54022,0.30285c-0.44904,-1.48077 3.96725,-4.01273 6.07544,-5.71395c0.29957,-0.18436 0.56161,-0.42379 0.77203,-0.70418c0.43424,0.68131 0.95958,1.87579 0.52345,2.66532z" fill="#ac0e49" stroke="#000000" stroke-width="0" stroke-linecap="butt"/><path d="M242.08638,202.23833l2.40164,3.00204" fill="none" stroke="#000000" stroke-width="1" stroke-linecap="round"/><path d="M245.20225,208.11375c0,0 -1.46726,-0.21889 -1.62111,-0.58326c-0.46565,-1.10286 -0.20817,-1.47529 -0.20817,-1.47529c0,0 3.3467,-2.24519 5.84223,-2.74497c4.07916,-0.81696 6.42326,-0.04264 6.42326,-0.04264c0,0 1.21563,0.0579 1.55332,0.68722c0.31306,0.58342 -0.18096,1.02823 -0.18096,1.02823c0,0 1.6958,0.03505 2.41724,0.88295c0.94578,1.11157 0.95594,1.39003 0.95594,1.39003c0,0 1.26494,-0.00347 1.66996,0.92131c0.31713,0.72408 -0.51203,1.18013 -0.51203,1.18013c0,0 -5.20712,0.3391 -7.70654,0.76286c-2.47516,0.41965 -7.2179,1.76743 -7.2179,1.76743c0,0 -0.99125,0.44662 -1.27567,-0.67379c-0.23639,-0.93121 0.46081,-1.42764 0.46081,-1.42764c0,0 -1.03151,0.46549 -1.3061,-0.43725c-0.18736,-0.61595 0.70569,-1.23531 0.70569,-1.23531z" fill="#feeffb" stroke="#000000" stroke-width="0" stroke-linecap="round"/><path d="M249.2152,203.31023c4.07916,-0.81696 6.42326,-0.04264 6.42326,-0.04264c0,0 0.90806,0.04325 1.37255,0.46129c-1.71687,1.49587 -2.12822,4.45112 -4.62574,3.93719c-1.53135,-0.31512 -3.56377,-2.09366 -4.78648,-3.85867c0.55045,-0.21665 1.10154,-0.39407 1.6164,-0.49718z" fill="#dd95e8" stroke="#000000" stroke-width="0" stroke-linecap="round"/><path d="M245.93131,209.82921c0,0 3.18295,-0.99515 6.53549,-1.65399c2.90506,-0.5709 7.57412,-0.70476 7.57412,-0.70476" fill="none" stroke="#000000" stroke-width="1" stroke-linecap="round"/><path d="M245.15935,208.02798c0,0 1.427,-1.48295 4.88833,-2.32773c2.06082,-0.50296 6.70582,-0.67431 6.70582,-0.67431" fill="none" stroke="#000000" stroke-width="1" stroke-linecap="round"/><path d="M245.20225,208.11375c0,0 -1.46726,-0.21889 -1.62111,-0.58326c-0.46565,-1.10286 -0.20817,-1.47529 -0.20817,-1.47529c0,0 3.3467,-2.24519 5.84223,-2.74497c4.07916,-0.81696 6.42326,-0.04264 6.42326,-0.04264c0,0 1.21563,0.0579 1.55332,0.68722c0.31306,0.58342 -0.18096,1.02823 -0.18096,1.02823c0,0 1.6958,0.03505 2.41724,0.88295c0.94578,1.11157 0.95594,1.39003 0.95594,1.39003c0,0 1.26494,-0.00347 1.66996,0.92131c0.31713,0.72408 -0.51203,1.18013 -0.51203,1.18013c0,0 -5.20712,0.3391 -7.70654,0.76286c-2.47516,0.41965 -7.2179,1.76743 -7.2179,1.76743c0,0 -0.99125,0.44662 -1.27567,-0.67379c-0.23639,-0.93121 0.46081,-1.42764 0.46081,-1.42764c0,0 -1.03151,0.46549 -1.3061,-0.43725c-0.18736,-0.61595 0.70569,-1.23531 0.70569,-1.23531z" fill="none" stroke="#000000" stroke-width="1" stroke-linecap="round"/><path d="M261.64968,198.78601c1.15018,0.38339 0.40356,1.84688 -0.40023,2.63312c-0.13,0.2931 -0.42355,0.49754 -0.76483,0.49754c-0.46186,0 -0.83628,-0.37442 -0.83628,-0.83628c0,-0.18665 0.06115,-0.35902 0.16451,-0.49817c0.39289,-0.79476 1.38393,-1.94719 1.83685,-1.79621z" fill="#000000" stroke="none" stroke-width="0.5" stroke-linecap="butt"/><path d="M243.75778,199.14542c1.31642,-1.17593 6.83383,-2.37225 9.54146,-1.8472c1.63401,0.31686 1.35284,1.93808 1.35284,1.93808c0,0 6.50518,-3.29028 7.2311,-2.78214c0.28324,0.19828 1.53295,2.07667 0.92706,3.17351c-0.89762,1.62499 -3.86953,2.61068 -3.86953,2.61068c0,0 3.2768,1.04143 5.38321,3.06446c3.27168,3.14221 5.00444,8.1679 -9.80834,11.59558c-1.79091,0.41442 -10.06451,0.93634 -13.55884,-2.11337c-2.85954,-2.49569 -2.00105,-8.64402 -2.00105,-8.64402l-4.26626,-0.16396c0,0 -0.79623,-1.11685 0.75362,-4.16423c0.36247,-0.7127 6.85777,0.254 6.85777,0.254c0,0 0.52293,-2.08703 1.45696,-2.92138z" fill="none" stroke="#000000" stroke-width="1" stroke-linecap="round"/></g><g><path d="M234.91091,180.97036c0,0 -1.0256,-4.0956 1.03203,-5.33746c5.68956,-3.43387 12.3485,-2.32847 12.3485,-2.32847c0,0 4.35038,-2.34374 6.74085,-1.58789c2.15327,0.68085 -0.5948,4.24215 -0.56921,7.29582c0.01305,1.55583 1.50782,3.2307 2.03827,4.70018c0.51068,1.41471 0.08678,2.64924 -1.34434,2.88658c-3.02232,0.50121 -7.14433,-3.2593 -7.14433,-3.2593l3.03009,9.19911c0,0 -6.68449,3.43094 -17.20515,2.16149c-7.48165,-0.90275 -9.79837,-6.76105 -9.79837,-6.76105c0,0 2.67148,-2.61667 4.48804,-3.78114c1.80727,-1.15851 6.38364,-3.18789 6.38364,-3.18789z" fill="#feecf7" stroke="#000000" stroke-width="0" stroke-linecap="round"/><path d="M234.91091,180.97036c0,0 -1.0256,-4.0956 1.03203,-5.33746c5.68956,-3.43387 12.3485,-2.32847 12.3485,-2.32847c0,0 4.35038,-2.34374 6.74085,-1.58789c1.68439,0.5326 0.3696,2.82775 -0.27061,5.26374c-0.70722,0.11136 -9.11847,2.47833 -9.11847,2.47833l2.36947,3.88121l3.03009,9.19911c0,0 -0.97231,0.49906 -2.75892,1.04608c-0.18269,-0.61384 -3.34552,-14.15458 -3.34552,-14.15458c0,0 -13.8315,3.3255 -13.60022,3.21161c1.78302,-0.87801 3.5728,-1.67169 3.5728,-1.67169z" fill="#dc94e7" stroke="#000000" stroke-width="0" stroke-linecap="butt"/><path d="M248.29145,173.30443c0,0 4.35038,-2.34374 6.74085,-1.58789c2.15327,0.68085 -0.5948,4.24215 -0.56921,7.29582c0.01305,1.55583 1.50782,3.2307 2.03827,4.70018c0.51068,1.41471 0.08678,2.64924 -1.34434,2.88658c-3.02232,0.50121 -7.14433,-3.2593 -7.14433,-3.2593l3.03009,9.19911c0,0 -6.68449,3.43094 -17.20515,2.16149c-7.48165,-0.90275 -9.79837,-6.76105 -9.79837,-6.76105c0,0 2.67148,-2.61667 4.48804,-3.78114c1.80727,-1.15851 6.38364,-3.18789 6.38364,-3.18789c0,0 -1.02561,-4.0956 1.03202,-5.33746c2.05763,-1.24186 12.34849,-2.32845 12.34849,-2.32845z" fill="none" stroke="#000000" stroke-width="1" stroke-linecap="round"/><g fill="none" stroke="#ff0000" stroke-width="1"><path d="M239.39671,189.17228c-2.61753,1.57784 -5.39303,1.83454 -6.86544,0.66896c-1.51155,-1.19657 -0.03158,-4.01856 2.5728,-5.75385c1.96727,-1.31078 4.59452,-2.07518 6.95426,-0.63327c1.65703,1.01252 0.05816,4.0787 -2.66162,5.71816z" stroke-linecap="butt"/><path d="M235.5825,183.92588l1.62968,5.66099" stroke-linecap="round"/></g><path d="M247.69788,173.87938c-0.15822,0.2769 -0.33031,0.54033 -0.51511,0.79043c-1.85699,2.5132 -4.99844,3.67936 -8.27648,3.61643c-1.07897,-0.02071 -3.58375,-0.18549 -3.34389,-1.83804c0.44548,-3.06916 11.25241,-4.11418 11.71015,-3.31314z" fill="#f89688" stroke="#000000" stroke-width="1" stroke-linecap="butt"/></g><g stroke="#000000" stroke-linecap="round"><path d="M248.14819,183.92588c0,0 1.77797,1.25752 2.70122,1.82735c1.91797,1.18373 3.73173,0.96026 3.73173,0.96026c0,0 -0.06714,1.51828 0.5155,3.17082c0.49653,1.40832 2.42163,2.66857 2.34419,3.2999c-0.16328,1.33106 -2.47589,2.06611 -4.53298,2.16198c-3.40422,0.15866 -4.60295,-1.12759 -4.60295,-1.12759c0,0 -0.92303,-3.93402 -0.8028,-5.75262c0.10692,-1.6172 0.6461,-4.54009 0.6461,-4.54009z" fill="#fddfbd" stroke-width="0"/><path d="M248.14819,183.92588c0,0 1.77797,1.25752 2.70122,1.82735c1.91797,1.18373 3.73173,0.96026 3.73173,0.96026c0,0 -0.04382,0.99079 0.24648,2.24277c-0.82894,-0.25009 -1.37266,0.05301 -3.1407,-0.41531c-2.50102,-0.66247 -3.47666,-2.02588 -3.91129,-2.37123c0.1784,-1.1913 0.37255,-2.24383 0.37255,-2.24383z" fill="#fa9789" stroke-width="0"/><path d="M250.8494,185.75322c1.91797,1.18373 3.73173,0.96026 3.73173,0.96026c0,0 -0.06714,1.51828 0.5155,3.17082c0.49653,1.40832 2.42163,2.66857 2.34419,3.2999c-0.16328,1.33106 -2.47589,2.06611 -4.53298,2.16198c-3.40422,0.15866 -4.60295,-1.12759 -4.60295,-1.12759c0,0 -0.92303,-3.93402 -0.8028,-5.75262c0.10692,-1.6172 0.6461,-4.54009 0.6461,-4.54009c0,0 1.77796,1.25752 2.70121,1.82735z" fill="none" stroke-width="1"/></g><g><path d="M246.88964,193.87551l2.6738,-2.61607l5.34595,2.70184l2.40164,-1.37236l2.61606,3.774c0,0 -5.35589,8.2865 -7.4958,8.63451c-1.97887,0.32182 -4.89836,-6.61886 -4.89836,-6.61886z" fill="#0066cd" stroke="#000000" stroke-width="0" stroke-linecap="round"/><path d="M252.85747,201.33418c1.97357,-1.65742 2.70693,-4.89361 5.38818,-5.8804c0.3998,-0.14713 1.26327,-0.17111 1.42679,0.36231c0.30378,0.99095 -5.77846,9.20631 -7.37912,9.14551c-1.39841,-0.05311 -3.39606,-3.06459 -4.21988,-5.17789c-0.48603,-1.24678 -0.20003,-2.06909 -0.12194,-2.08861c0.13625,-0.09627 1.56123,0.64404 1.64258,1.02069c1.36218,0.92807 3.09633,2.75869 3.2634,2.61838z" fill="#061484" stroke="none" stroke-width="0.5" stroke-linecap="butt"/><path d="M246.88964,193.87549l2.6738,-2.61607l5.34595,2.70184l2.40164,-1.37236l2.61606,3.774c0,0 -5.35589,8.28651 -7.4958,8.63451c-1.97886,0.32182 -4.89836,-6.61886 -4.89836,-6.61886" fill="none" stroke="#000000" stroke-width="1" stroke-linecap="round"/></g></g><g stroke="#000000"><g stroke-linecap="butt"><path d="M259.49622,169.83912l0.71682,-2.23009c0,0 9.11466,-0.32626 11.08787,0.82771c1.38522,0.8101 1.12502,5.06475 -1.51556,5.43741c-3.51649,0.49627 -10.28912,-4.03503 -10.28912,-4.03503z" fill="#0066cd" stroke-width="0"/><path d="M259.49623,169.83912l0.25441,-0.79149c0,0 2.03711,0.3136 4.04182,0.81029c1.54944,0.3839 2.88714,0.90925 4.4546,1.28297c1.86424,0.44448 3.66871,0.72889 3.64078,0.80966c-0.3314,0.95841 -1.01511,1.77014 -2.10248,1.92361c-3.51649,0.49628 -10.28913,-4.03504 -10.28913,-4.03504z" fill="#061483" stroke-width="0"/><path d="M259.49623,169.83912l0.71682,-2.23009c0,0 9.11466,-0.32625 11.08787,0.82772c1.38523,0.8101 1.12502,5.06475 -1.51556,5.43741c-3.51649,0.49628 -10.28913,-4.03504 -10.28913,-4.03504z" fill="none" stroke-width="1"/></g><g stroke-linecap="round"><path d="M219.87798,171.97679c0,0 -7.90615,-24.89839 14.88495,-24.20577c23.36864,0.71017 18.93806,21.23233 18.93806,21.23233c0,0 6.18614,-4.86555 7.08845,-4.30376c0.76161,0.47419 -0.5745,5.43118 -1.40987,7.32294c-0.61728,1.39788 -1.48476,4.42484 -2.86716,4.5892c-0.87011,0.10344 -4.42204,-2.77654 -4.42204,-2.77654c0,0 -7.50702,4.08666 -14.34419,5.35852c-6.7516,1.25594 -16.38147,0.09279 -16.38147,0.09279c0,0 -7.15631,-0.90435 -7.30256,-3.37178c-0.12462,-2.10245 5.81583,-3.93795 5.81583,-3.93795z" fill="#fde0be" stroke-width="0"/><path d="M247.94124,175.83711c-0.03425,0.0151 -1.25676,-2.11527 -1.25676,-2.11527l-3.23918,2.51424l-4.74537,-7.3187l-6.92217,4.20582l-0.85552,-6.54195c0,0 -11.58038,3.3031 -11.58702,3.27263c-1.30828,-6.00626 -3.26387,-22.65091 15.4277,-22.08287c23.36864,0.71017 18.93806,21.23233 18.93806,21.23233c0,0 5.16315,4.30737 5.09935,4.468c-0.56079,1.41218 -1.29027,3.02178 -2.28794,3.14039c-0.87011,0.10344 -4.42204,-2.77654 -4.42204,-2.77654c0,0 -1.66869,0.90839 -4.14912,2.00192z" fill="#fc988a" stroke-width="0"/><path d="M254.07266,170.49005l3.09735,-1.36283l-1.23894,4.95575z" fill="#f79587" stroke-width="0.5"/><path d="M234.7629,147.77102c23.36864,0.71017 18.93806,21.23233 18.93806,21.23233c0,0 6.18614,-4.86555 7.08845,-4.30376c0.76161,0.47419 -0.5745,5.43118 -1.40987,7.32294c-0.61728,1.39788 -1.48476,4.42484 -2.86716,4.5892c-0.87011,0.10344 -4.42204,-2.77654 -4.42204,-2.77654c0,0 -7.50702,4.08666 -14.34419,5.35852c-6.7516,1.25594 -16.38147,0.09279 -16.38147,0.09279c0,0 -7.15631,-0.90435 -7.30256,-3.37178c-0.12462,-2.10245 5.81583,-3.93795 5.81583,-3.93795c0,0 -7.90614,-24.89838 14.88496,-24.20576z" fill="none" stroke-width="1"/></g><g stroke-linecap="round"><path d="M259.96325,161.8738c0,0 -1.91994,3.39406 -3.05006,4.77532c-0.97589,1.19275 -3.3361,3.02999 -3.3361,3.02999c0,0 -10.7322,-5.21297 -18.19103,-6.18262c-7.61868,-0.99044 -17.49038,-0.30491 -17.49038,-0.30491c0,0 -3.40308,-17.91525 0.23844,-20.54599c2.65158,-1.91558 10.23966,-3.66653 17.59473,-2.99068c3.35224,0.30803 12.93229,1.28989 16.00584,4.39782c4.11937,4.16546 8.22857,17.82107 8.22857,17.82107z" fill="#ff292e" stroke-width="0"/><path d="M259.96325,161.8738c0,0 -1.91994,3.39407 -3.05006,4.77532c-0.97589,1.19275 -3.33609,3.02999 -3.33609,3.02999c0,0 -5.19732,-2.5245 -10.87203,-4.3867c-0.14854,-0.04874 2.57787,-14.06906 5.59963,-19.57261c1.00063,-1.82245 2.6654,-2.44024 3.42999,-1.66709c4.11937,4.16547 8.22857,17.82108 8.22857,17.82108z" fill="#ac0e49" stroke-width="0.5"/><path d="M256.91319,166.64913c-0.97589,1.19275 -3.33609,3.02999 -3.33609,3.02999c0,0 -10.7322,-5.21297 -18.19104,-6.18261c-7.61868,-0.99044 -17.49037,-0.30491 -17.49037,-0.30491c0,0 -3.40308,-17.91526 0.23844,-20.54599c2.65159,-1.91558 10.23966,-3.66653 17.59473,-2.99068c3.35224,0.30803 12.93229,1.28988 16.00582,4.39781c4.11937,4.16547 8.22857,17.82108 8.22857,17.82108c0,0 -1.91994,3.39406 -3.05006,4.77531z" fill="none" stroke-width="1"/></g><g stroke-linecap="round"><path d="M218.63903,168.87943c0,0 -3.85602,0.92482 -5.61813,1.58049c-1.7891,0.66571 -5.03674,2.38412 -5.03674,2.38412c0,0 1.62395,-3.85485 2.70279,-5.58945c1.02456,-1.64732 3.6158,-4.56984 3.6158,-4.56984l-9.53983,0.61947c0,0 8.85959,-12.65645 12.45666,-14.18992c2.14533,-0.91457 10.09201,4.15452 10.09201,4.15452c0,0 1.27513,-2.68016 2.15748,-3.92836c0.80348,-1.13663 2.92217,-3.25749 2.92217,-3.25749c0,0 1.50384,6.13468 2.53453,9.10551c1.07374,3.09489 3.78406,9.10689 3.78406,9.10689l14.61947,4.95575l-1.36283,6.69027l-5.69911,-6.19469l-2.60177,3.46903l-4.95575,-8.92035l-4.95575,4.0885l-1.11504,-5.07965c0,0 -11.01133,2.57707 -13.47804,3.78306c-0.67241,0.32874 -0.52195,1.79217 -0.52195,1.79217z" fill="#4fa6ec" stroke-width="0"/><path d="M221.78142,159.65498l-13.79726,13.18906c0,0 1.62395,-3.85485 2.70278,-5.58945c1.02455,-1.64732 3.6158,-4.56984 3.6158,-4.56984l-9.53982,0.61946c0,0 8.85958,-12.65645 12.45666,-14.18992c2.14532,-0.91458 10.09202,4.15452 10.09202,4.15452c0,0 1.27512,-2.68016 2.15747,-3.92836c0.80348,-1.13663 2.92217,-3.25748 2.92217,-3.25748l-2.53386,11.84243c0,0 -9.00989,-4.43466 -11.21034,-4.12033c-3.45351,0.49332 -8.3089,7.4718 -8.3089,7.4718z" fill="#66ffff" stroke-width="0"/><path d="M243.69937,167.62923l-0.7372,4.32035l-3.00278,-5.405z" fill="#66ffff" stroke-width="0"/><path d="M207.98417,172.84404c0,0 1.62395,-3.85485 2.70278,-5.58945c1.02455,-1.64732 3.6158,-4.56984 3.6158,-4.56984l-9.53982,0.61946c0,0 8.85958,-12.65645 12.45666,-14.18992c2.14532,-0.91458 10.09202,4.15452 10.09202,4.15452c0,0 1.27512,-2.68016 2.15747,-3.92836c0.80348,-1.13663 2.92217,-3.25748 2.92217,-3.25748c0,0 1.50383,6.13467 2.53452,9.1055c1.07373,3.09489 3.78406,9.10689 3.78406,9.10689l14.61947,4.95575l-1.36283,6.69027l-5.69911,-6.19468l-2.60178,3.46903l-4.95576,-8.92035l-4.95576,4.0885l-1.11504,-5.07965c0,0 -11.01133,2.57707 -13.47804,3.78306c-0.67241,0.32874 -0.52195,1.79217 -0.52195,1.79217c0,0 -3.856,0.92482 -5.61812,1.58049c-1.76212,0.65567 -5.03674,2.38409 -5.03674,2.38409z" fill="none" stroke-width="1"/></g></g><path d="M176.16667,243.83333v-127.66667h127.66667v127.66667z" fill="none" stroke="none" stroke-width="NaN" stroke-linecap="butt"/><g stroke="none" stroke-width="0.5" stroke-linecap="butt"><path d="M227.7537,167.25394c0.4727,0 0.54461,0.40078 0.55556,0.52273c0.98271,0.8714 2.04234,1.64707 3.06618,2.22682l0.10013,0.07816c0.92372,-0.70955 1.78587,-1.45134 2.61911,-2.20914l0.14797,-0.31039c0,0 0.17721,-0.35443 0.53164,-0.31627c1.63449,-1.5258 3.18978,-3.09746 4.92501,-4.58614c2.86842,-3.34344 6.75213,-6.63237 10.57374,-8.81208c0.2401,-0.08099 0.48018,-0.16197 0.72029,-0.24296l0.33843,-0.08629c0,0 0.54087,-0.13522 0.6761,0.40565c0.13522,0.54087 -0.40565,0.6761 -0.40565,0.6761l-0.25626,0.06238c-0.20593,0.06769 -0.41184,0.13537 -0.61777,0.20306c-3.70036,2.1201 -7.46331,5.33967 -10.24041,8.58261c-0.24751,0.21196 -0.4916,0.42565 -0.73295,0.6407c-0.09878,2.31105 -1.66193,4.44947 -1.93186,6.75688c-0.086,0.7352 -0.10225,2.17755 -0.81364,2.68906c-0.41454,0.29806 -1.33801,0.15492 -1.77973,0.1246c-1.13894,-1.3822 -1.33484,-2.59296 -1.3448,-4.11971c-0.65359,0.56832 -1.32912,1.12441 -2.03991,1.66122c-0.12849,0.12565 -0.26435,0.15806 -0.38318,0.15014c-0.12039,0.00425 -0.25692,-0.03327 -0.38259,-0.16654l-0.25684,-0.21286c-0.79681,-0.45883 -1.60725,-1.01858 -2.39001,-1.64431c0.15378,1.57636 0.34787,3.71591 -0.11188,4.20532c-2.08096,2.21521 -3.89265,-3.1159 -4.02241,-4.27797c-0.00174,-1.27399 -0.00086,-2.54799 -0.00086,-3.82198l0.07783,-0.43965c-2.18367,-3.39028 -4.79011,-5.9247 -5.64224,-10.15543c0,0 -0.10934,-0.5467 0.43735,-0.65604c0.5467,-0.10934 0.65604,0.43735 0.65604,0.43735c0.84108,4.23822 3.54909,6.68278 5.71498,10.13216c0.60489,0.84769 1.36402,1.7049 2.20012,2.50294c0.00415,-0.00007 0.00833,-0.00009 0.01254,-0.00009z" fill="#000000"/><path d="M236.15257,177.541c-0.06141,-0.02357 -0.1265,-0.05931 -0.18271,-0.1135c-2.62759,1.17471 -5.34993,1.35953 -8.31681,-0.12269c0,0 -0.49867,-0.24934 -0.24934,-0.74799c0.24934,-0.49866 0.74799,-0.24934 0.74799,-0.24934c3.6856,1.84426 6.91141,0.79348 10.10908,-1.49956c0.37141,-0.32197 0.77711,-0.61152 1.2121,-0.84092c0.02779,-0.08787 0.08548,-0.17866 0.18939,-0.26527c0.18216,-0.1518 0.35143,-0.16156 0.48579,-0.12264c0.16168,-0.03553 0.38426,-0.01894 0.55802,0.2417c0.09535,0.143 0.11719,0.27132 0.10181,0.38041c1.28203,1.5254 4.00849,4.93577 1.36252,6.09133c-1.51031,0.65958 -3.4283,-0.93166 -4.73231,-1.51561c-0.53208,-0.38186 -0.88364,-0.75972 -1.28553,-1.2359zM237.99141,177.80884c0.97303,0.42894 2.6143,1.79963 3.74202,1.45784c1.40644,-0.42625 -0.77351,-3.16807 -1.74271,-4.31319c-0.37632,0.19237 -0.72137,0.44888 -1.03791,0.72876c-0.62948,0.44776 -1.26118,0.8519 -1.8973,1.20259c0.28729,0.34652 0.54808,0.64894 0.9359,0.924z" fill="#000000"/><path d="M237.00003,176.87938c0.63612,-0.35068 1.29994,-0.80001 1.92942,-1.24776c0.31654,-0.27986 0.69418,-0.54075 1.07051,-0.73312c0.96921,1.14511 3.17916,3.98153 1.77272,4.40778c-1.12772,0.34177 -2.85979,-1.04732 -3.83281,-1.47625c-0.38781,-0.27506 -0.65252,-0.60414 -0.93983,-0.95066z" data-paper-data="{&quot;noHover&quot;:false,&quot;origItem&quot;:[&quot;Path&quot;,{&quot;applyMatrix&quot;:true,&quot;segments&quot;:[[[820.01743,447.02635],[-0.69561,-0.49336],[1.74527,0.76936]],[[826.72931,449.64121],[-2.02274,0.61303],[2.52266,-0.76454]],[[823.60349,441.90486],[1.73842,2.05393],[-0.67499,0.34504]],[[821.74184,443.21199],[0.56777,-0.50199],[-1.12905,0.80311]],[[818.33875,445.36901],[1.14098,-0.629],[0.51531,0.62153]]],&quot;closed&quot;:true}]}" fill="#ff6666"/></g><g><path d="M200.19654,193.45535c-0.01368,-1.76345 1.4048,-3.20407 3.16824,-3.21775c1.76345,-0.01368 3.20406,1.40478 3.21774,3.16823c0.01368,1.76345 -1.40479,3.20406 -3.16822,3.21774c-1.76345,0.01368 -3.20408,-1.40478 -3.21776,-3.16821z" fill="#3f5479" stroke="#000000" stroke-width="1" stroke-linecap="butt"/><path d="M215.96656,178.00074c4.56469,0.79501 8.09722,10.16085 5.49205,14.58014c-1.0027,1.70092 -3.00324,2.41393 -4.82506,2.09917c-0.1656,-0.0286 -1.27794,-0.96925 -1.32896,-0.91671c-0.28832,0.29698 -0.3262,1.53342 -1.21188,2.16461c-1.19636,0.85261 -3.26707,1.09717 -3.26707,1.09717c0,0 -2.105,2.46262 -3.1564,2.04106c-5.45675,-2.18784 -6.30883,-7.70383 -4.91357,-11.04857c0.36425,-0.87319 2.93114,-2.24815 4.0393,-3.50634c1.01428,-1.15161 0.09581,-1.51709 0.99983,-2.00714c0.205,-0.11112 0.89066,-0.49828 1.6202,-0.55885c0.8066,-0.06698 1.68872,0.17489 2.51801,-0.37057c1.72824,-1.13672 1.54536,-4.00736 4.03355,-3.574z" fill="#fde0be" stroke="#000000" stroke-width="0" stroke-linecap="butt"/><path d="M212.80108,196.88402c1.36955,-6.39685 12.0837,-7.02441 11.21941,-1.08461c-0.44066,3.0285 -2.9216,2.40546 -5.04113,3.06032c-0.16223,0.05012 -0.31069,0.14045 -0.45389,0.25627c-0.39727,1.04182 -1.40184,1.78555 -2.584,1.79471c-0.21707,0.00169 -0.42854,-0.02149 -0.6317,-0.06686c-1.09559,-0.24466 -1.94967,-1.1348 -2.13847,-2.2532c-0.41578,-0.49588 -0.34824,-1.11128 -0.35265,-1.68072z" fill="#f89688" stroke="#000000" stroke-width="1" stroke-linecap="butt"/><path d="M221.45861,192.58086c-1.0027,1.70092 -3.00324,2.41393 -4.82505,2.09917c-0.1656,-0.0286 -1.27795,-0.96925 -1.32896,-0.91671c-0.28832,0.29698 -0.3262,1.53341 -1.21188,2.16461c-1.19637,0.8526 -3.26707,1.09718 -3.26707,1.09718c0,0 -2.105,2.46262 -3.1564,2.04106c-0.98149,-0.39351 -1.81401,-0.89472 -2.51128,-1.47158c0.89899,-1.62311 1.7142,-2.78614 1.69879,-4.77379c-0.00512,-0.66041 0.22788,-2.42434 0.1129,-3.05236c0.52239,-0.31752 0.43947,-0.26164 0.95407,-0.63865c0.02941,0.22767 0.0798,0.45132 0.15265,0.67003c0.10587,0.31786 0.2597,0.63782 0.4499,0.94744c0.14717,1.41132 1.34595,2.50632 2.79404,2.49509c0.20351,-0.00158 0.40176,-0.02493 0.59253,-0.06781c0.81375,0.03716 1.54002,-0.40073 1.93073,-1.58035c0.06124,-0.13654 0.1118,-0.27887 0.15063,-0.42594c0.4845,0.39249 1.10296,0.62563 1.77515,0.62042c0.1285,-0.00099 0.25493,-0.01068 0.37868,-0.02847c0.72342,-0.10403 1.35629,-0.4855 1.78833,-1.03243c1.31721,-1.0226 2.90297,-2.6486 4.17223,-4.29446c0.43363,2.26997 0.29932,4.53718 -0.65,6.14754z" fill="#f89688" stroke="#000000" stroke-width="0" stroke-linecap="butt"/><path d="M206.72552,188.96974l1.63048,1.10243c0,0 0.16643,2.39576 0.58582,3.42109c0.47029,1.14979 1.79665,3.14953 1.79665,3.14953" fill="none" stroke="#000000" stroke-width="1" stroke-linecap="round"/><path d="M212.58579,186.49139l1.42775,1.104c0,0 -0.10223,2.01762 0.15695,3.19902c0.26606,1.21279 1.31483,3.5814 1.31483,3.5814" fill="none" stroke="#000000" stroke-width="1" stroke-linecap="round"/><path d="M215.96656,178.00074c4.56469,0.79501 8.09723,10.16085 5.49206,14.58014c-1.0027,1.70092 -3.00324,2.41393 -4.82505,2.09917c-0.1656,-0.0286 -1.27794,-0.96924 -1.32896,-0.9167c-0.28832,0.29698 -0.3262,1.53341 -1.21188,2.16461c-1.19637,0.8526 -3.26707,1.09718 -3.26707,1.09718c0,0 -2.105,2.46261 -3.1564,2.04106c-5.45675,-2.18784 -6.30883,-7.70383 -4.91357,-11.04856c0.36426,-0.87319 2.93114,-2.24815 4.0393,-3.50634c1.01428,-1.15161 0.09581,-1.51709 0.99983,-2.00713c0.21364,-0.11581 0.73812,-0.49487 1.51046,-0.56538c0.78814,-0.07197 1.83007,0.16063 2.62776,-0.36404c1.72824,-1.13671 1.54536,-4.00736 4.03355,-3.574z" fill="none" stroke="#000000" stroke-width="1" stroke-linecap="butt"/><path d="M217.47839,186.68155c-0.02692,-3.4709 1.75982,-5.99453 4.36298,-6.01472c2.60317,-0.02019 4.73528,2.77716 4.76219,6.24806c0.02692,3.4709 -1.45493,6.09351 -4.0581,6.11371c-2.60317,0.02019 -5.04015,-2.87617 -5.06707,-6.34706z" fill="#93c0c3" stroke="none" stroke-width="0" stroke-linecap="butt"/><path d="M222.54546,193.02861c-2.51255,0.01949 -4.87028,-2.67804 -5.05558,-5.98677c3.03585,0.00314 6.0721,0.09457 9.11316,0.11193c-0.04151,3.35165 -1.51446,5.85512 -4.05758,5.87484z" fill="#475f86" stroke="none" stroke-width="0" stroke-linecap="butt"/><path d="M217.70618,184.57468c0.84293,0.08847 2.00248,-0.2745 2.52653,-0.29672c1.16383,-0.04936 3.73369,0.13776 5.78161,-0.34739c0.26676,0.64237 0.45202,1.35326 0.53695,2.10793c-3.01978,-0.01794 -6.03474,-0.10815 -9.04943,-0.11166c0.03367,-0.47385 0.10276,-0.92605 0.20434,-1.35216z" fill="#475f86" stroke="none" stroke-width="0" stroke-linecap="butt"/><path d="M217.47839,186.68155c-0.02692,-3.4709 1.75982,-5.99453 4.36298,-6.01472c2.60317,-0.02019 4.73528,2.77716 4.76219,6.24806c0.02692,3.4709 -1.45493,6.09351 -4.0581,6.11371c-2.60317,0.02019 -5.04015,-2.87617 -5.06707,-6.34706z" fill="none" stroke="#000000" stroke-width="1" stroke-linecap="butt"/><path d="M220.51069,185.54293c-0.03778,-4.87044 3.50386,-9.15053 8.03841,-9.1857c4.53456,-0.03517 7.3273,3.68896 7.36507,8.5594c0.03778,4.87044 -3.60758,8.84722 -8.14213,8.88239c-4.53455,0.03517 -7.22357,-3.38564 -7.26134,-8.25608z" fill="#3f5479" stroke="#000000" stroke-width="0" stroke-linecap="butt"/><path d="M235.91418,184.91664c0.03778,4.87044 -3.60759,8.84722 -8.14213,8.88239c-3.84922,0.02985 -6.36863,-2.43058 -7.06534,-6.15409c0.18684,0.07862 0.38769,0.14463 0.60317,0.19672c4.6194,1.11686 12.24522,-0.14343 14.37476,-5.18369c0.1455,0.71567 0.22343,1.47222 0.22952,2.25866z" fill="#323344" stroke="#000000" stroke-width="0" stroke-linecap="butt"/><path d="M227.62249,177.78362c-0.00358,-0.46185 0.36791,-0.83916 0.82977,-0.84274c0.46186,-0.00358 0.83916,0.36793 0.84274,0.82977c0.00358,0.46185 -0.36791,0.83915 -0.82977,0.84274c-0.46186,0.00358 -0.83916,-0.36792 -0.84274,-0.82977z" fill="#95c2c5" stroke="none" stroke-width="0.5" stroke-linecap="butt"/><path d="M220.51069,185.54293c-0.03778,-4.87044 3.50386,-9.15053 8.03841,-9.1857c4.53456,-0.03517 7.3273,3.68896 7.36507,8.5594c0.03778,4.87044 -3.60758,8.84722 -8.14213,8.88239c-4.53455,0.03517 -7.22357,-3.38564 -7.26134,-8.25608z" fill="none" stroke="#000000" stroke-width="1" stroke-linecap="butt"/><path d="M235.27017,187.16343c0,0 -1.18368,2.59052 -6.2766,2.84347c-2.80698,0.13943 -6.24608,-0.0144 -6.24608,-0.0144" fill="none" stroke="#000000" stroke-width="1" stroke-linecap="round"/><path d="M235.7529,184.70653c0,0 -2.50804,0.73802 -4.24456,0.97851c-2.75334,0.38132 -10.68145,1.08863 -10.68145,1.08863" fill="none" stroke="#000000" stroke-width="1" stroke-linecap="round"/><path d="M220.58875,184.82413c0,0 3.27641,-2.76559 7.51438,-3.13612c3.60745,-0.31539 7.46869,1.23579 7.46869,1.23579" fill="none" stroke="#000000" stroke-width="1" stroke-linecap="round"/><path d="M221.17433,181.25134c0,0 2.90085,-2.35259 6.24751,-2.46853c3.36307,-0.1165 7.23503,1.19315 7.23503,1.19315" fill="none" stroke="#000000" stroke-width="1" stroke-linecap="round"/><path d="M226.00609,193.20095c0,0 -3.19849,-2.79498 -3.92639,-6.82118c-0.42085,-2.32781 0.64139,-6.98029 0.64139,-6.98029" fill="none" stroke="#000000" stroke-width="1" stroke-linecap="round"/><path d="M228.46041,193.34918c0,0 -3.33161,-4.22915 -3.67147,-7.94606c-0.26513,-2.89985 1.5369,-8.48478 1.5369,-8.48478" fill="none" stroke="#000000" stroke-width="1" stroke-linecap="round"/><path d="M231.35208,192.37895c0,0 -2.27045,-0.87166 -2.60954,-9.25132c-0.10914,-2.69718 1.14873,-6.57146 1.14873,-6.57146" fill="none" stroke="#000000" stroke-width="1" stroke-linecap="round"/><path d="M233.64516,178.92447l0.25589,11.42756" fill="none" stroke="#000000" stroke-width="1" stroke-linecap="round"/></g></g></g></svg>