<svg version="1.1" xmlns="http://www.w3.org/2000/svg" xmlns:xlink="http://www.w3.org/1999/xlink" width="267.42642" height="257.0021" viewBox="0,0,267.42642,257.0021"><g transform="translate(-106.28679,-54.50195)"><g data-paper-data="{&quot;isPaintingLayer&quot;:true}" fill-rule="nonzero" stroke-linejoin="miter" stroke-miterlimit="10" stroke-dasharray="" stroke-dashoffset="0" style="mix-blend-mode: normal"><path d="M373.71321,311.1602l-267.27562,0.34386l-0.1508,-256.65825l267.27563,-0.34385z" fill="none" stroke="none" stroke-width="none" stroke-linecap="butt"/><g data-paper-data="{&quot;index&quot;:null}" stroke="#000000" stroke-linecap="round"><path d="M256.78037,160.32113c0,0 16.2316,-1.59725 16.21325,5.02736c-0.04977,17.98052 -28.27891,12.06568 -28.27891,12.06568z" data-paper-data="{&quot;origPos&quot;:null}" fill="#66c8ff" stroke-width="2"/><path d="M256.02631,161.82936c0,0 11.78117,-0.56333 12.44273,1.38252c0.20864,0.61371 -15.71052,2.51368 -15.71052,2.51368z" data-paper-data="{&quot;origPos&quot;:null}" fill="#0a0a0a" stroke-width="1"/></g><g data-paper-data="{&quot;index&quot;:null}"><g data-paper-data="{&quot;origRot&quot;:0,&quot;index&quot;:null}" stroke="#000000" stroke-width="3" stroke-linecap="round"><path d="M216.23819,222.22217c0,0 -23.89632,-8.17442 -23.25966,-10.6493c1.14796,-4.46237 6.52504,-13.65095 6.52504,-13.65095l15.63542,-25.72054c0,0 3.04206,-4.83801 4.19338,-4.77579c3.45394,0.18668 8.85226,3.88599 14.95515,6.46516c1.01441,0.42873 -0.76605,6.07936 -0.76605,6.07936c0,0 -3.19366,8.76693 -5.23775,14.37821c-3.11298,8.54543 -7.97657,21.89658 -7.97657,21.89658c0,0 -2.26479,6.91345 -4.06898,5.97729z" data-paper-data="{&quot;origPos&quot;:null}" fill="#582700"/><path d="M196.72855,205.01064l22.60245,10.51813" fill="none"/><path d="M220.94867,212.61526l-22.50228,-10.73338" data-paper-data="{&quot;origPos&quot;:null}" fill="none"/></g><path d="M198.49415,201.15062l19.81719,-32.58602l1.44949,-0.0806l14.32011,6.71691l-12.75292,36.60572z" fill="#66c8ff" stroke="#000000" stroke-width="1" stroke-linecap="round"/><path d="M196.77118,204.84946l0.99051,-2.1102l23.0843,10.83546l-0.99049,2.1102z" fill="#ffffff" stroke="none" stroke-width="0" stroke-linecap="butt"/></g><g data-paper-data="{&quot;index&quot;:null,&quot;origRot&quot;:0}" stroke="#000000" stroke-linecap="round"><path d="M228.39123,264.66841c0,0 -0.43707,4.29963 -1.94181,6.10804c-1.15194,1.38442 -3.17076,1.42786 -5.06853,1.36117c-5.20911,-0.18307 -9.62662,-2.81412 -17.40026,-4.92963c-2.11721,-0.57617 -2.38638,-3.75551 -1.6222,-5.65533c0.71473,-1.7769 2.0759,-4.82555 2.0759,-4.82555l12.76032,-29.6773c0,0 1.78885,-3.79278 3.75983,-4.0252c4.74647,-0.55967 8.82844,2.00242 13.48568,3.01173c1.57828,0.34206 0.27139,4.80976 0.27139,4.80976z" data-paper-data="{&quot;origPos&quot;:null}" fill="#ff0000" stroke-width="3"/><path d="M204.0344,257.70882l23.47192,6.47251c0,0 0.40699,2.6159 -0.14024,4.1633c-0.51947,1.46892 -2.59307,3.56569 -2.59307,3.56569c0,0 -8.86422,-1.12396 -12.83003,-2.0833c-5.16895,-1.25038 -10.49881,-5.15466 -10.49881,-5.15466z" data-paper-data="{&quot;origPos&quot;:null}" fill="#976e57" stroke-width="2.5"/><path d="M228.22251,264.94734c0,0 -0.43707,4.29963 -1.94181,6.10804c-1.15194,1.38442 -3.17076,1.42787 -5.06853,1.36118c-5.20911,-0.18307 -9.62662,-2.81412 -17.40026,-4.92963c-2.1172,-0.57618 -2.38638,-3.75551 -1.6222,-5.65534c0.71473,-1.7769 2.0759,-4.82555 2.0759,-4.82555l12.76032,-29.67729c0,0 1.78884,-3.79278 3.75983,-4.02521c4.74647,-0.55967 8.82846,2.00242 13.48568,3.01173c1.57827,0.34204 0.27137,4.80974 0.27137,4.80974c0,0 -1.59813,8.55225 -2.62102,14.02613c-1.44366,7.72573 -3.69927,19.79622 -3.69927,19.79622z" data-paper-data="{&quot;origPos&quot;:null}" fill="#4b4b4b" stroke-width="1.5"/></g><g data-paper-data="{&quot;index&quot;:null,&quot;origRot&quot;:0}" stroke="#000000" stroke-linecap="round"><path d="M237.6254,229.65764c0,0 -0.37323,-4.61292 1.24696,-4.67852c4.7809,-0.19351 9.31319,-2.01102 13.86196,-0.64789c1.88889,0.56605 2.87315,4.59853 2.87315,4.59853l6.48649,31.34092c0,0 0.71579,3.22819 1.05575,5.09624c0.36348,1.99729 -0.54899,5.07449 -2.74634,5.27772c-8.06788,0.74622 -12.94383,2.57398 -18.09849,1.86124c-1.87792,-0.25967 -3.85233,-0.64827 -4.70178,-2.20568c-1.10963,-2.03439 -0.66262,-6.33316 -0.66262,-6.33316z" data-paper-data="{&quot;origPos&quot;:null}" fill="#ff0000" stroke-width="3"/><path d="M263.41199,268.58833c0,0 -6.03175,2.92222 -11.3645,3.26487c-4.09149,0.26289 -13.02862,-0.15184 -13.02862,-0.15184c0,0 -1.60969,-2.41514 -1.8206,-3.94719c-0.22219,-1.61392 0.71082,-4.11399 0.71082,-4.11399l24.37766,-2.33656z" data-paper-data="{&quot;origPos&quot;:null}" fill="#976e57" stroke-width="2.5"/><path d="M237.04936,264.27c0,0 0.24442,-12.24432 0.4009,-20.08131c0.11085,-5.55272 0.28405,-14.22814 0.28405,-14.22814c0,0 -0.37324,-4.61292 1.24694,-4.6785c4.78089,-0.19351 9.31319,-2.01102 13.86196,-0.64789c1.88889,0.56605 2.87315,4.59853 2.87315,4.59853l6.48649,31.34092c0,0 0.71579,3.22819 1.05575,5.09624c0.36348,1.99729 -0.54899,5.07449 -2.74633,5.27773c-8.06788,0.74622 -12.94383,2.57398 -18.09849,1.86124c-1.87792,-0.25967 -3.85233,-0.64828 -4.70178,-2.20569c-1.10963,-2.03439 -0.66262,-6.33316 -0.66262,-6.33316z" data-paper-data="{&quot;origPos&quot;:null}" fill="#4b4b4b" stroke-width="1.5"/></g><g><g><path d="M259.17436,209.07825c0,0 0.87017,15.18302 -1.44792,15.4531c-6.95427,0.81028 -25.24123,-0.01126 -40.84355,-0.01126c-1.75271,0 -1.49705,-14.41238 -1.49705,-14.41238l1.8713,-29.51107c0,0 1.38742,-13.03978 2.99409,-13.03978c10.39307,0 25.94289,-0.89665 32.74468,0.68697c2.26726,0.52788 4.30713,14.4117 4.30713,14.4117z" data-paper-data="{&quot;origPos&quot;:null}" fill="#66c8ff" stroke="#000000" stroke-width="3.5" stroke-linecap="round"/><path d="M225.69535,190.23412c-1.35737,0 -1.35738,-2.39677 -1.35738,-2.39677c0,-4.97108 0,-11.53999 0,-16.51108c0,0 0.00001,-2.39677 1.35738,-2.39677c1.35737,0 1.35737,2.39677 1.35737,2.39677c0,4.97108 0,9.94215 0,14.91323v1.59784c0,0 0,2.39677 -1.35737,2.39677z" fill="#ffffff" stroke="none" stroke-width="0.5" stroke-linecap="butt"/><path d="M238.30585,196.33645c-1.35737,0 -1.35738,-3.01102 -1.35738,-3.01102c0,-6.24507 0,-14.49749 0,-20.74257c0,0 0.00001,-3.01102 1.35738,-3.01102c1.35737,0 1.35737,3.01102 1.35737,3.01102c0,6.24507 0,12.49015 0,18.73523v2.00734c0,0 0,3.01102 -1.35737,3.01102z" fill="#ffffff" stroke="none" stroke-width="0.5" stroke-linecap="butt"/></g><g fill="none" stroke="#b9b9b9" stroke-width="3"><path d="M248.88945,172.40775c-0.86963,-1.30855 0.09026,-2.48365 1.37543,-3.65726c1.28518,-1.17358 2.57503,-1.53195 3.27862,-0.59272c1.49177,1.99143 -0.07333,2.93137 -1.07967,3.85033c-1.28519,1.1736 -2.34624,2.24768 -3.57437,0.39966z" stroke-linecap="butt"/><path d="M249.92379,171.83856l-2.72174,2.42755" stroke-linecap="round"/><path d="M243.47513,174.87248c1.28518,-1.17358 2.57503,-1.53195 3.27862,-0.59272c1.49177,1.99143 -0.07333,2.93137 -1.07967,3.85033c-1.28518,1.17359 -2.34623,2.24768 -3.57436,0.39966c-0.86963,-1.30855 0.09025,-2.48365 1.37542,-3.65726z" stroke-linecap="butt"/><path d="M243.13403,177.96053l-2.72174,2.42756" stroke-linecap="round"/><path d="M234.50399,179.95231c0.42104,-1.57544 1.82716,-1.42646 3.42429,-0.98438c1.59713,0.44209 2.61478,1.38321 2.35945,2.58531c-0.54137,2.54879 -2.13693,1.7134 -3.38753,1.36723c-1.59713,-0.44208 -2.99084,-0.74323 -2.39621,-2.96816z" stroke-linecap="butt"/><path d="M235.52132,180.53594l-3.34105,-0.97139" stroke-linecap="round"/><path d="M226.93798,175.73616c0.93843,-1.26869 2.17299,-0.51029 3.47949,0.60306c1.30651,1.11335 1.90746,2.43162 1.25178,3.42877c-1.39024,2.11425 -2.55722,0.63844 -3.58027,-0.23335c-1.3065,-1.11336 -2.47628,-2.00677 -1.151,-3.79848z" stroke-linecap="butt"/><path d="M224.94743,174.35215l2.71671,2.37204" stroke-linecap="round"/><path d="M220.1034,169.83493c0.93843,-1.26867 2.173,-0.51029 3.47949,0.60306c1.30651,1.11335 1.90746,2.43162 1.25178,3.42877c-1.39024,2.11424 -2.55722,0.63844 -3.58026,-0.23335c-1.3065,-1.11335 -2.47628,-2.00676 -1.151,-3.79848z" stroke-linecap="butt"/><path d="M220.8296,170.82295l-2.71673,-2.37204" stroke-linecap="round"/></g></g><g fill="none" stroke="#b9b9b9" stroke-width="3"><path d="M244.04547,168.47288c-0.56214,-1.35809 0.05834,-2.57767 0.8891,-3.7957c0.83076,-1.21801 1.66455,-1.58994 2.11936,-0.61516c0.96431,2.06682 -0.04741,3.04234 -0.69792,3.99608c-0.83077,1.21803 -1.51665,2.33277 -2.31054,0.41479z" stroke-linecap="butt"/><path d="M244.71408,167.88214l-1.75939,2.51944" stroke-linecap="round"/><path d="M240.54556,171.03091c0.83076,-1.21801 1.66455,-1.58994 2.11936,-0.61516c0.96431,2.06682 -0.04741,3.04234 -0.69792,3.99608c-0.83076,1.21802 -1.51665,2.33277 -2.31054,0.41479c-0.56214,-1.35809 0.05833,-2.57767 0.88909,-3.79571z" stroke-linecap="butt"/><path d="M238.56568,176.75532l1.75938,-2.51946" stroke-linecap="round"/><path d="M234.74644,176.30304c0.27217,-1.63508 1.18111,-1.48046 2.21353,-1.02164c1.03242,0.45883 1.69024,1.43557 1.52519,2.68318c-0.34996,2.64527 -1.38136,1.77826 -2.18976,1.41899c-1.03242,-0.45882 -1.93333,-0.77137 -1.54895,-3.08052z" stroke-linecap="butt"/><path d="M233.24434,175.9006l2.15972,1.00816" stroke-linecap="round"/><path d="M229.85564,171.92729c0.60662,-1.31672 1.40466,-0.52961 2.2492,0.62589c0.84455,1.1555 1.23302,2.52367 0.80918,3.55857c-0.89868,2.19428 -1.65303,0.66261 -2.31435,-0.24218c-0.84454,-1.15551 -1.60072,-2.08274 -0.74403,-3.94227z" stroke-linecap="butt"/><path d="M228.56891,170.49089l1.75614,2.46183" stroke-linecap="round"/><path d="M225.43763,165.80265c0.60662,-1.3167 1.40467,-0.52961 2.24921,0.62589c0.84455,1.1555 1.23302,2.52367 0.80917,3.55857c-0.89868,2.19427 -1.65303,0.66261 -2.31435,-0.24218c-0.84454,-1.1555 -1.60072,-2.08273 -0.74403,-3.94227z" stroke-linecap="butt"/><path d="M224.1509,164.36626l1.75615,2.46183" stroke-linecap="round"/></g><g><path d="M213.57914,162.18093c-0.61601,-3.19789 -2.38699,-17.27566 -3.94526,-30.00448c-0.24104,-1.96884 0.98758,-5.24139 0.98758,-5.24139c0,0 1.98816,-1.8835 3.23967,-2.04365c13.80801,-1.76704 26.81375,-4.53367 32.12528,-3.62481c1.77052,0.30294 5.10633,1.6449 5.10633,1.6449c0,0 1.23956,4.27647 1.51021,5.38295c0.09021,0.36883 0.14201,0.57629 0.2101,0.94984c2.04001,11.19257 3.19425,24.29218 3.38306,28.89334c0.06294,1.53371 -1.4495,4.12667 -1.4495,4.12667c0,0 -1.0456,2.87556 -5.31444,4.2132c-4.67084,1.46363 -16.34455,2.5174 -28.38596,3.56701c-1.80783,0.15757 -5.02536,-2.80659 -5.02536,-2.80659z" fill="#582700" stroke="#000000" stroke-width="2.5" stroke-linecap="round"/><path d="M246.4025,153.59724c-0.50658,0.06203 -1.25659,-2.65973 -1.6752,-6.07916c-0.41861,-3.41942 -0.3473,-6.24171 0.15929,-6.30371c0.50658,-0.06203 1.25661,2.65971 1.67521,6.07915c0.41861,3.41942 0.34729,6.24172 -0.1593,6.30373z" fill="none" stroke="#000000" stroke-width="2.5" stroke-linecap="butt"/><path d="M253.32064,124.91582l-0.77268,-0.43183c-0.09249,-0.01942 -0.18488,-0.03835 -0.27718,-0.05682c-0.1814,0.33607 -0.56423,0.74885 -1.32365,0.59728c-0.69992,-0.1397 -0.92044,-0.59927 -0.98083,-0.9679c-2.68931,-0.33173 -5.33932,-0.3239 -8.11105,-0.23081c-7.72899,0.52441 -15.40136,1.64738 -23.08716,2.61123c-2.5206,0.31609 -8.0352,2.03766 -10.35022,0.62788c-1.12903,-0.68754 -0.9676,-2.65329 -1.1983,-3.68573c-0.66851,-2.99177 -1.42796,-6.08084 -1.82108,-9.12322c-0.48725,-3.98001 -2.42035,-7.3465 -3.41034,-11.18598c-0.49632,-1.92485 -1.40512,-3.80856 0.13389,-5.71843c0.43455,-0.53926 1.33701,-0.36942 2.01881,-0.49096c2.49179,-0.44417 4.94046,-0.57627 7.45807,-0.59138c7.97828,-0.04785 15.81576,-0.50405 23.80063,-0.06364c3.22155,0.18146 6.40496,-0.14742 9.61786,-0.43946c1.88828,-0.17164 3.53662,-0.92282 4.92972,1.08569c0.83194,1.19944 0.83222,5.23473 0.96245,6.712c0.50217,5.69637 2.26541,12.54646 1.78695,18.39959c0.12104,0.02382 0.24224,0.04837 0.36358,0.0737l1.37768,0.64229c0,0 1.11826,0.55858 0.55969,1.67683c-0.55858,1.11825 -1.67683,0.55969 -1.67683,0.55969z" data-paper-data="{&quot;index&quot;:null}" fill="#000000" stroke="none" stroke-width="0.5" stroke-linecap="butt"/><path d="M230.04207,162.0863c-0.26977,0.96292 -1.23269,0.69316 -1.23269,0.69316l-0.11962,-0.05902c-2.18967,-0.11484 -4.15865,-0.494 -6.35977,-0.13683c0,0 -0.98734,0.15858 -1.14593,-0.82876c-0.15858,-0.98734 0.82876,-1.14593 0.82876,-1.14593c2.34892,-0.37379 4.44676,-0.00167 6.77904,0.11413l0.55706,0.13056c0,0 0.96292,0.26977 0.69316,1.23269z" fill="#000000" stroke="none" stroke-width="0.5" stroke-linecap="butt"/><path d="M251.93707,143.35384c-0.40323,0.9151 -1.31833,0.51185 -1.31833,0.51185l-1.00145,-0.44709c-0.87812,-0.50062 -2.56406,-1.13889 -3.83864,-1.89685c-0.60573,-0.21807 -1.23698,-0.47456 -1.94697,-0.75637l-0.9962,-0.38596c-0.36793,-0.13314 -0.63864,-0.47688 -0.65883,-0.89213c-0.02683,-0.55163 0.39862,-1.02057 0.95024,-1.04739c0.11862,-0.00577 0.23342,0.00937 0.34082,0.04219l0.30148,0.08447c0.07742,0.0192 0.15489,0.0382 0.23236,0.05702c0.05559,0.00207 0.1101,0.00873 0.16316,0.01961l1.09474,0.20032l-0.00401,0.02193l0.0533,-0.01162c1.1678,0.33718 2.65449,0.32658 3.43464,0.98158c0.20402,0.06743 0.40719,0.13832 0.60937,0.21329l0.00468,-0.00967l0.10457,0.05061c0.02984,0.0113 0.05967,0.02271 0.08948,0.0342l0.01233,0.01507l0.02403,0.01164l0.00391,-0.00793l1.0079,0.49749c0.32414,0.15236 0.55552,0.47431 0.57413,0.85698c0.00688,0.14148 -0.01599,0.27752 -0.0631,0.40206l0.31456,0.13637c0,0 0.9151,0.40323 0.51185,1.31833z" fill="#582700" stroke="none" stroke-width="0.5" stroke-linecap="butt"/><path d="M239.95065,154.74532c-0.50658,0.06203 -1.25659,-2.65973 -1.6752,-6.07916c-0.41861,-3.41942 -0.3473,-6.24171 0.15929,-6.30371c0.50658,-0.06203 1.25661,2.65971 1.67521,6.07915c0.41861,3.41942 0.34729,6.24172 -0.1593,6.30373z" fill="none" stroke="#000000" stroke-width="2.5" stroke-linecap="butt"/><path d="M234.8845,143.88808l0.17452,-0.1284c-0.03583,-0.0949 -0.05828,-0.20049 -0.06372,-0.31234c-0.01471,-0.30254 0.09884,-0.5715 0.27789,-0.71312l0.55516,-0.45907l0.00281,0.00598l0.01325,-0.01077l0.00619,-0.01269c0.01663,-0.01104 0.03328,-0.02201 0.04995,-0.03292l0.05766,-0.04684l0.00338,0.0073c0.11302,-0.07254 0.22689,-0.14194 0.34149,-0.20866c0.41167,-0.56786 1.28031,-0.65889 1.93952,-1.00243l0.03189,0.00559l-0.00381,-0.01699l0.62571,-0.2309c0.03025,-0.01211 0.06162,-0.021 0.09394,-0.02634c0.04397,-0.02 0.08792,-0.04013 0.13184,-0.06043l0.17035,-0.08666c0.06051,-0.03302 0.12651,-0.05262 0.19615,-0.056c0.32383,-0.01575 0.60355,0.32504 0.62476,0.76115c0.01597,0.3283 -0.1191,0.61703 -0.32499,0.74646l-0.55578,0.37047c-0.39565,0.26934 -0.74703,0.51347 -1.08607,0.72566c-0.69343,0.68197 -1.63501,1.29721 -2.1142,1.75006l-0.55475,0.41896c0,0 -0.50728,0.37866 -0.80385,-0.31489c-0.29658,-0.69355 0.2107,-1.07221 0.2107,-1.07221z" data-paper-data="{&quot;index&quot;:null}" fill="#582700" stroke="none" stroke-width="0.5" stroke-linecap="butt"/></g><g data-paper-data="{&quot;index&quot;:null}"><g><path d="M259.72866,165.10213c0,0 14.54188,20.99837 13.13382,34.72206c-0.42432,4.13557 -10.45855,12.53343 -11.43489,13.02278c-4.21628,2.11319 -27.13163,-11.47491 -27.13163,-11.47491c0,0 -10.58101,-5.62949 -13.94286,-9.51931c6.94384,-17.55228 16.48224,-23.30473 16.48224,-23.30473c1.21684,-1.91397 7.27464,3.48939 7.27464,3.48939l18.28266,14.72344l-2.80328,-2.17447c0,0 -16.35335,-13.05849 -13.94214,-13.73224c2.21851,-0.61993 13.74781,-8.95042 14.08142,-5.752z" fill="#582700" stroke="#000000" stroke-width="2.5" stroke-linecap="round"/><path d="M257.83326,184.06075c-0.88086,1.50953 -1.97329,2.95143 -3.10818,4.21514c-2.76068,3.86026 -5.84464,8.04037 -9.05919,11.56568c-0.91703,1.00568 -1.79632,2.02465 -2.6828,3.0583c-0.2985,0.34806 -1.164,1.04133 -1.46657,1.27676c1.45248,0.40309 2.98603,1.52337 4.47455,1.6396c0.17505,0.01367 0.42974,-0.15168 0.7135,-0.40483c0.67965,-1.05726 1.52277,-2.04858 1.87203,-2.55301c3.55469,-5.96107 8.2428,-11.03166 12.08321,-16.76416c-0.37115,-0.47481 -1.48535,-1.09762 -1.57758,-1.16167c-0.41791,-0.29025 -0.83581,-0.57841 -1.24898,-0.8718zM256.6227,183.16522c-0.45205,-0.35233 -0.892,-0.72076 -1.31294,-1.11599c0,0 -0.26144,-0.246 -0.25238,-0.57848c-2.65193,-1.94769 -5.18435,-4.11861 -7.39511,-6.20723c-1.12069,-0.79857 -2.72777,-1.76531 -2.25285,-3.38809c0.34174,-1.1677 2.30132,-2.35165 3.28479,-2.90226c3.15501,-1.76634 6.37026,-3.47227 9.55155,-5.15831c2.27805,0.13321 2.45977,2.21065 3.3072,4.06557c1.8464,4.04154 3.80713,8.01876 5.64878,12.06415c1.6937,2.67891 2.44738,5.56549 3.79532,8.36821c1.86688,3.88172 3.25015,7.01565 3.01229,11.42041c-2.38773,5.35338 -8.60956,12.03432 -14.80701,12.56804c-3.63533,1.37023 -7.21891,-1.01314 -10.43298,-2.50037c-0.53874,-0.24928 -2.62778,-0.83584 -2.89146,-1.30534c-0.18731,-0.33352 -0.19183,-0.74788 -0.07788,-1.20186c-1.63348,-0.13371 -3.36717,-1.30475 -4.90778,-1.75229c-1.88033,-1.77587 0.97602,-3.74584 2.44618,-5.41455c3.56803,-4.04993 7.11359,-8.40811 10.21576,-12.78847c1.11803,-1.24495 2.21343,-2.67638 3.06854,-4.17314zM248.89143,205.10715c-0.01418,0.01479 -0.02849,0.02995 -0.04298,0.04546c-0.77046,1.16181 -1.70216,2.58208 -1.66872,2.59775c3.15397,1.47711 8.12706,4.3703 11.69669,3.08672c5.72378,-0.49293 11.31057,-6.60937 13.67561,-11.45909c0.13327,-4.01436 -1.20493,-6.8558 -2.9042,-10.40978c-1.33507,-2.79227 -2.08336,-5.64317 -3.76525,-8.30963c-1.86874,-4.06937 -3.82974,-8.08258 -5.69276,-12.15221c-0.25765,-0.56283 -1.20539,-3.36242 -1.56718,-3.23962c-3.16561,1.94629 -6.72097,3.28361 -9.80903,5.35445c-0.25363,0.1701 -2.27635,1.6829 -2.0195,2.01803c0.41762,0.54488 1.25621,1.06404 1.81926,1.46436c4.44332,4.16569 10.51948,6.73232 14.59811,11.12066c-0.11683,0.7447 -0.34004,1.50715 -0.76999,2.12631l-0.31997,0.69941c0,0 -0.05207,0.11259 -0.15967,0.225c-1.01946,2.77283 -4.15253,5.60067 -5.77296,7.32257c-2.68996,2.97588 -4.48231,6.57444 -7.29749,9.50959z" fill="#000000" stroke="none" stroke-width="0.5" stroke-linecap="butt"/><path d="M254.7463,188.23062c1.13487,-1.26371 2.2308,-2.70381 3.11166,-4.21334c0.41316,0.29339 0.83596,0.58471 1.25386,0.87496c0.09222,0.06406 1.21208,0.6917 1.58323,1.16651c-3.8404,5.73251 -8.58135,10.88538 -12.13604,16.84645c-0.34925,0.50441 -1.19597,1.49422 -1.87562,2.55149c-0.28376,0.25316 -0.54029,0.41761 -0.71534,0.40395c-1.48852,-0.11625 -3.03649,-1.24777 -4.48899,-1.65086c0.30258,-0.23544 1.16812,-0.92864 1.46662,-1.2767c0.88648,-1.03366 1.76351,-2.05535 2.68054,-3.06104c3.21456,-3.52531 6.35938,-7.78116 9.12005,-11.64142z" data-paper-data="{&quot;noHover&quot;:false,&quot;origItem&quot;:[&quot;Path&quot;,{&quot;applyMatrix&quot;:true,&quot;segments&quot;:[[[926.17844,407.1979],[3.2606,1.25965],[-0.27949,0.97418]],[[925.31465,410.11917],[0.29084,-0.97519],[-0.06418,0.21521]],[[924.29914,413.90358],[-0.01258,-1.20526],[13.15638,4.16543]],[[964.1057,425.02121],[-12.99513,-4.87922],[1.17537,0.35239]],[[970.21765,426.67451],[-2.3817,-0.804],[0.75941,0.04146]],[[971.83798,426.41666],[-0.25651,0.23985],[2.18115,-2.03947]],[[976.78433,418.26967],[-1.76682,2.44279],[-0.76669,0.00973]],[[972.89889,418.10481],[0.90089,0.17138],[-2.67549,-0.50896]],[[964.88923,416.67374],[2.68829,0.42712],[-9.42353,-1.49721]],[[936.29671,409.90591],[9.13228,2.58714],[-3.35077,-0.55846]]],&quot;closed&quot;:true}]}" fill="#ffffff" stroke="none" stroke-width="0.5" stroke-linecap="butt"/><path d="M249.85875,203.62458c3.26485,-5.4651 7.40018,-10.1296 11.04479,-15.29517c0.0495,0.0378 0.20141,0.03816 0.26956,0.06969c0.68071,0.31486 0.90135,-0.33231 0.90135,-0.33231l0.32141,-0.69582c0.42996,-0.61917 0.65769,-1.37356 0.77454,-2.11825c-4.07864,-4.38834 -10.09303,-6.93791 -14.53634,-11.10359c-0.56305,-0.40033 -1.44535,-1.00938 -1.86297,-1.55427c-0.25686,-0.33512 1.77185,-1.85055 2.02548,-2.02064c3.08806,-2.07084 6.66582,-3.41088 9.83143,-5.35717c0.36178,-0.12282 1.31377,2.67743 1.57142,3.24025c1.86302,4.06961 3.85042,8.09718 5.71915,12.16655c1.68189,2.66644 2.444,5.5474 3.77907,8.33968c1.69926,3.55399 3.03152,6.42418 2.89823,10.43855c-2.36504,4.84972 -7.98861,10.99158 -13.71238,11.48452c-3.56962,1.28359 -8.57216,-1.6144 -11.72614,-3.09151c-0.05532,-0.02591 2.57218,-3.98372 2.7014,-4.17046z" data-paper-data="{&quot;noHover&quot;:false,&quot;origItem&quot;:[&quot;Path&quot;,{&quot;applyMatrix&quot;:true,&quot;segments&quot;:[[[926.61254,417.73069],[12.14285,3.5238],[-0.03018,0.12086]],[[926.46822,418.11346],[0.06716,-0.13431],[-0.67082,1.34164]],[924.45576,418.78428],[[923.08279,418.0906],[0,0],[-1.44471,-0.43097]],[[919.22563,415.72869],[1.11205,1.01797],[0.89694,-11.9485]],[[928.15956,380.1298],[-1.74473,12.05571],[0.38029,-1.32836]],[[929.175,375.57071],[0.02742,1.37277],[-0.01686,-0.84429]],[[923.5003,374.93752],[0.60865,-0.05075],[-7.41054,0.61792]],[[901.48814,378.8123],[7.37628,-0.90935],[-0.71866,0.25961]],[[903.08234,385.83106],[-0.2998,-1.20115],[2.16779,8.68513]],[[909.35292,411.92731],[-2.15853,-8.69186],[0.69956,6.26621]],[[913.83986,429.61277],[-1.39861,-6.02998],[1.78014,7.67491]],[[922.29365,449.50563],[-5.21858,-6.1072],[9.74892,4.62723]],[[957.96755,450.34516],[-9.56021,6.37347],[7.18055,-2.44927]],[[972.39433,430.92276],[-3.08539,6.24485],[0.05411,-0.10951]],[[963.14745,427.86406],[0.43501,0.13058],[-11.92317,-4.46591]]],&quot;closed&quot;:true}]}" fill="#66c8ff" stroke="none" stroke-width="0.5" stroke-linecap="butt"/></g><g data-paper-data="{&quot;index&quot;:null}" fill="#fffc96" stroke="#000000" stroke-width="2" stroke-linecap="round"><path d="M266.09754,170.82083c1.2129,1.82564 -2.70007,7.52481 -7.66232,12.94974c-0.43107,-0.67881 -1.06569,-1.41593 -1.97487,-2.36655c4.14463,-4.77783 6.69974,-8.86998 6.69974,-8.86998l-0.84285,-1.67113c0,0 2.66831,-1.71584 3.78031,-0.04206z"/><path d="M272.0515,182.79777c0.84919,1.84762 -5.42275,3.14086 -12.813,3.60716c-0.03547,-1.01487 -0.26105,-1.79489 -0.83163,-2.67864c5.98731,-0.35594 9.73239,-1.20606 9.73239,-1.20606l-0.58363,-1.24713c0,0 3.32378,-1.02555 4.49588,1.52467z" data-paper-data="{&quot;index&quot;:null}"/></g></g></g></g></svg>