<svg version="1.1" xmlns="http://www.w3.org/2000/svg" xmlns:xlink="http://www.w3.org/1999/xlink" width="515.8392" height="391.04806" viewBox="0,0,515.8392,391.04806"><g transform="translate(23.2947,11.67018)"><g data-paper-data="{&quot;isPaintingLayer&quot;:true}" fill-rule="nonzero" stroke="#000000" stroke-width="1.5" stroke-linejoin="miter" stroke-miterlimit="10" stroke-dasharray="" stroke-dashoffset="0" style="mix-blend-mode: normal"><path d="M-8.4985,367.68769v-375.37538h496.997v375.37538z" fill="#6781da" stroke-linecap="butt"/><path d="M-15.7243,370.46122l6.00601,-141.14114l310.81082,-21.02103l189.18919,61.56157l1.5015,100.6006z" fill="#f4e2a6" stroke-linecap="butt"/><path d="M301.09252,208.29904v-219.21922" fill="none" stroke-linecap="round"/><g fill="#606060" stroke-linecap="butt"><path d="M273.36299,237.79579c-4.00802,-1.47163 -10.03979,-4.10217 -10.03979,-6.6054c0,-0.83757 -1.00567,-49.5587 0.17174,-50.97738c3.70375,-4.46268 62.60136,-13.80566 73.23644,-13.57412c2.82294,0.06146 14.02346,3.49048 14.02346,5.74715c0,6.72298 0,40.71166 0,52.31857c0,2.44047 -1.26212,4.06868 -2.84004,4.29025c-6.85091,0.96196 -55.34614,7.77139 -68.03312,9.55282c-1.92999,0.27099 -4.52452,-0.01968 -6.51869,-0.75189z"/><path d="M390.63813,231.11508c-4.4293,-1.62632 -51.23313,-20.30188 -51.23313,-23.06822c0,-0.92562 -1.11138,-54.76792 0.1898,-56.33572c4.09305,-4.93177 10.40796,-8.08929 22.16091,-7.83342c3.11967,0.06792 55.63553,19.62589 55.63553,22.11977c0,7.42965 0,44.99096 0,57.81789c0,2.697 -1.39478,4.49635 -3.13855,4.7412c-7.57103,1.06308 -2.39015,1.42075 -16.41068,3.38943c-2.13286,0.29948 -5.00009,-0.02175 -7.20388,-0.83092z"/><path d="M441.28851,250.70626c-4.4293,-1.62632 -51.23313,-20.30188 -51.23313,-23.06822c0,-0.92562 -1.11138,-54.76792 0.1898,-56.33572c4.09305,-4.93177 10.40796,-8.08929 22.16091,-7.83342c3.11967,0.06792 55.63553,19.62589 55.63553,22.11977c0,7.42965 0,44.99096 0,57.81789c0,2.697 -1.39478,4.49635 -3.13855,4.7412c-7.57103,1.06308 -2.39015,1.42075 -16.41068,3.38943c-2.13286,0.29948 -5.00009,-0.02175 -7.20388,-0.83092z"/><g><path d="M312.36299,257.29578c-4.00802,-1.47163 -44.03979,-18.60217 -44.03979,-21.1054c0,-0.83757 -0.50567,-19.0587 0.67174,-20.47738c3.70375,-4.46268 62.60136,-13.80566 73.23644,-13.57412c2.82294,0.06146 48.02346,17.99048 48.02346,20.24715c0,6.72298 -0.5,10.21166 -0.5,21.81857c0,2.44047 -1.26212,4.06868 -2.84004,4.29025c-6.85091,0.96196 -55.34614,7.77139 -68.03312,9.55282c-1.92999,0.27099 -4.52452,-0.01968 -6.51869,-0.75189z"/><path d="M362.48048,279.81573c-4.33643,-1.59222 -47.64844,-20.12644 -47.64844,-22.83479c0,-0.90621 -0.54711,-20.62038 0.72679,-22.15531c4.00723,-4.82836 67.73095,-14.9369 79.23747,-14.68639c3.05425,0.0665 51.95853,19.46463 51.95853,21.90622c0,7.27387 -0.54097,11.04842 -0.54097,23.6064c0,2.64045 -1.36554,4.40207 -3.07275,4.64179c-7.41228,1.04079 -59.88124,8.40818 -73.6078,10.33558c-2.08813,0.2932 -4.89526,-0.02129 -7.05284,-0.8135z"/><path d="M312.36299,233.29579c-4.00802,-1.47163 -44.03979,-18.60217 -44.03979,-21.1054c0,-0.83757 -0.50567,-6.5587 0.67174,-7.97738c3.70375,-4.46268 62.60136,-13.80566 73.23644,-13.57412c2.82294,0.06146 48.02346,17.99048 48.02346,20.24715c0,6.72298 -0.5,-2.28834 -0.5,9.31857c0,2.44047 -1.26212,4.06868 -2.84004,4.29025c-6.85091,0.96196 -55.34614,7.77139 -68.03312,9.55282c-1.92999,0.271 -4.52452,-0.01968 -6.51869,-0.75189z"/><path d="M362.89524,257.74276c-4.23791,-1.55605 -46.56584,-19.66916 -46.56584,-22.31597c0,-0.88562 -0.53468,-6.9349 0.71028,-8.43496c3.91619,-4.71866 66.19207,-14.59753 77.43716,-14.3527c2.98486,0.06499 50.77801,19.02239 50.77801,21.4085c0,7.1086 -0.52868,-2.41959 -0.52868,9.85307c0,2.58046 -1.33451,4.30205 -3.00293,4.53633c-7.24387,1.01714 -58.52071,8.21714 -71.93539,10.10075c-2.04069,0.28654 -4.78403,-0.02081 -6.8926,-0.79502z"/></g><path d="M383.03529,288.16261c-4.63477,-1.70177 -11.60978,-4.74366 -11.60978,-7.63833c0,-0.96855 -1.16294,-57.30855 0.1986,-58.94908c4.28292,-5.16055 72.39078,-15.96454 84.68894,-15.6968c3.26439,0.07107 16.21641,4.03631 16.21641,6.64588c0,7.7743 0,47.07804 0,60.5c0,2.82211 -1.45949,4.70493 -3.28415,4.96114c-7.92224,1.11239 -64.00102,8.98665 -78.67195,11.04666c-2.2318,0.31338 -5.23204,-0.02276 -7.53807,-0.86946z"/></g><g><g><path d="M120.19612,378.62788v-62.66667h22.33333v62.66667z" fill="#c78944" stroke-linecap="butt"/><path d="M129.19612,318.29455v58" fill="none" stroke-linecap="round"/></g><g stroke-linecap="round"><path d="M-12.47055,348.18769l155,-29v-9l-155,28z" fill="#c78944"/><path d="M-22.47055,241.18769l80,-7l85,76l-155,28z" fill="#c78944"/></g></g></g></g></svg>