<svg version="1.1" xmlns="http://www.w3.org/2000/svg" xmlns:xlink="http://www.w3.org/1999/xlink" width="137.75545" height="137.19853" viewBox="0,0,137.75545,137.19853"><g transform="translate(-171.10721,-111.5283)"><g data-paper-data="{&quot;isPaintingLayer&quot;:true}" fill-rule="nonzero" stroke-linecap="round" stroke-linejoin="miter" stroke-miterlimit="10" stroke-dasharray="" stroke-dashoffset="0" style="mix-blend-mode: normal"><g data-paper-data="{&quot;index&quot;:null}"><path d="M216.28127,181.33764c0,0 -8.63327,-58.18382 0.77698,-65.33874c6.46827,-4.91802 49.99017,0.91881 49.99017,0.91881l2.24595,69.46077" data-paper-data="{&quot;index&quot;:null}" fill="#ffcde0" stroke="#561b25" stroke-width="1.5"/><path d="M256.599,166.68467c0,0 11.75315,-8.27989 23.92307,-17.53906c0.73399,-0.55845 7.33984,4.29252 10.76959,8.20528c4.6766,5.33519 14.72796,20.88307 14.72796,20.88307c0,0 -31.05233,67.98363 -68.30495,67.99286c-29.98798,0.00743 -63.75167,-65.31968 -63.75167,-65.31968c0,0 9.41392,-15.94191 13.87077,-21.46199c3.26859,-4.04835 9.67272,-9.16266 10.42871,-8.63439c12.53466,8.75905 20.48348,15.0312 20.48348,15.0312" data-paper-data="{&quot;index&quot;:null}" fill="#ffcde0" stroke="#561b25" stroke-width="1.5"/><path d="M216.28127,181.33764c0,0 -8.63327,-58.18382 0.77698,-65.33874c6.46827,-4.91802 49.99017,0.91881 49.99017,0.91881l2.24595,69.46077" data-paper-data="{&quot;index&quot;:null}" fill="#6dc0c7" stroke="#20373a" stroke-width="5"/><path d="M256.599,166.68467c0,0 11.75315,-8.27989 23.92307,-17.53906c0.73399,-0.55845 7.33984,4.29252 10.76959,8.20528c4.6766,5.33519 14.72796,20.88307 14.72796,20.88307c0,0 -31.05233,67.98363 -68.30495,67.99286c-29.98798,0.00743 -63.75167,-65.31968 -63.75167,-65.31968c0,0 9.41392,-15.94191 13.87077,-21.46199c3.26859,-4.04835 9.67272,-9.16266 10.42871,-8.63439c12.53466,8.75905 20.48348,15.0312 20.48348,15.0312" data-paper-data="{&quot;index&quot;:null}" fill="#6dc0c7" stroke="#20373a" stroke-width="5"/></g></g></g></svg>