<svg version="1.1" xmlns="http://www.w3.org/2000/svg" xmlns:xlink="http://www.w3.org/1999/xlink" width="258.66667" height="258.66667" viewBox="0,0,258.66667,258.66667"><g transform="translate(-107.43868,-52.08777)"><g data-paper-data="{&quot;isPaintingLayer&quot;:true}" fill-rule="nonzero" stroke-linejoin="miter" stroke-miterlimit="10" stroke-dasharray="" stroke-dashoffset="0" style="mix-blend-mode: normal"><path d="M195.11031,246.64108l-2.95454,-15.45454c0,0 3.48066,-8.00264 9.55163,-8.62332c12.53426,-1.28146 61.58473,1.3506 61.58473,1.3506c0,0 3.98684,-0.98702 5.20432,1.38706c0.60508,1.17991 -0.08116,5.4714 0.53651,8.14476c1.08544,4.69793 3.35008,8.19545 3.35008,8.19545z" data-paper-data="{&quot;index&quot;:null}" fill="#080f95" stroke="#000000" stroke-width="2.5" stroke-linecap="butt"/><g data-paper-data="{&quot;index&quot;:null}" stroke-linecap="butt"><path d="M216.91289,194.47406c6.60388,0 24.92223,-1.68021 31.71839,5.00774c-5.03265,19.67402 10.5252,25.79995 10.5252,25.79995c0,0 -9.93367,6.24359 -31.73077,5.73077c-15.25441,-0.35889 -26.98718,-10.83334 -26.98718,-10.83334c0,0 1.21572,-25.70512 16.47436,-25.70512z" fill="#ab9efa" stroke="#000000" stroke-width="2.5"/><path d="M207.15543,213.9766c0,0 0.6531,-3.38082 -0.39368,-8.08776c-0.19583,-0.88056 -8.6416,-0.68501 -12.32516,-2.45914c-5.3271,-2.56572 -7.66904,-7.26648 -7.85679,-8.6797c-0.48601,-3.65822 6.43348,-5.53197 10.08549,-8.00035c5.97553,-4.03883 10.82705,-7.57305 16.71514,-7.57305c16.97648,0 30.73864,8.95431 30.73864,20c0,11.0457 -13.87579,14.09091 -29.94318,10.11364c-4.2492,3.18181 -7.02045,4.68636 -7.02045,4.68636z" fill="#9362ec" stroke="none" stroke-width="0"/><g stroke="none" stroke-width="0.5"><path d="M220.40525,214.24148c-1.63236,0.53811 -0.07853,2.07054 -0.07853,2.07054c1.41518,0.43328 3.54426,0.37043 5.00133,0.3748c5.42615,0.01626 9.70721,-2.13499 12.82316,-6.48443c0.10486,-0.39648 0.17087,-0.80438 0.20491,-1.2159c-2.74423,1.72522 -5.55617,3.59895 -8.70846,4.25285c0,0 -7.78849,0.52285 -9.24241,1.00214zM236.95683,206.52435c0.52005,-0.33338 1.03568,-0.65783 1.54815,-0.96052c0.19295,-0.20246 0.46891,-0.37527 0.86042,-0.48204c1.68834,-0.46045 2.1488,1.22788 2.1488,1.22788l0.41493,1.65357c0.08203,1.48178 -0.13091,2.98873 -0.51483,4.42225c-3.79142,5.60386 -9.12597,8.4983 -15.98637,8.51558c-1.73471,0.00437 -4.55445,0.04961 -6.18915,-0.57758c-5.09555,-1.95504 -5.23701,-7.63143 -3.81122,-11.9639l1.61836,-1.34489l2.8332,1.22443l-1.13117,1.22725c-0.12662,0.37417 -0.25448,0.80505 -0.36489,1.26803h1.2047c1.60415,0 3.30835,0.11581 4.99945,0.13387c3.97652,-1.1131 8.17162,-2.13822 11.78992,-4.09136l0.28515,-0.14347c0,0 0.11347,-0.05672 0.29456,-0.10909z" fill="#b4052c"/><path d="M221.48099,206.65693c-0.42503,0.33527 -2.11649,1.49903 -2.11649,1.49903l-2.61206,-0.88793c0,0 2.43536,-3.76665 5.19804,-5.85294c5.16718,-3.90209 13.56669,-5.31795 17.86354,0.87372c0.32584,0.46951 1.1421,3.00789 1.1421,3.00789l-3.29809,0.87086c0,0 -0.2981,-1.38257 -0.70637,-1.85475c-1.29595,-1.49884 -4.72408,-3.32558 -6.86294,-2.98663c-3.65961,0.57995 -5.92575,3.21514 -8.60772,5.33075z" fill="#ab164a"/></g></g><g data-paper-data="{&quot;index&quot;:null}" stroke-linecap="butt"><g data-paper-data="{&quot;index&quot;:null}"><path d="M287.16741,198.08836c-1.52316,6.892 -15.49975,8.47483 -45.18154,6.47017c-14.50518,-0.97965 -32.66665,-8.21848 -41.31795,-13.86136c-5.67577,-3.70207 4.97417,-37.27089 10.99548,-40.37953c15.81417,-8.16443 47.39701,-11.71884 61.50272,-1.24318c8.64305,6.41881 4.46932,27.96661 4.46932,27.96661c0,0 -2.0553,3.67219 -3.82136,11.51289c4.0915,0.68607 14.52259,4.24366 13.35333,9.53438z" fill="#aa96c7" stroke="#000000" stroke-width="3"/><path d="M272.23232,184.29704c0,0 -21.59859,-11.7261 -25.31962,-11.51663c-0.67839,1.16476 -2.68699,15.19048 -3.16302,14.93942c-11.8917,-6.27166 -15.45635,-9.27392 -15.45635,-9.27392l-12.43233,18.2178c0,0 -5.68039,-6.96389 -8.14787,-10.4021c0.1118,-2.23156 -2.4384,5.76766 -2.4384,5.76766l-4.10322,-2.51619c0,0 -0.60516,-1.4728 -0.48694,-2.73954c0.56054,-6.00618 3.66867,-23.0816 13.54996,-29.5608c11.51446,-7.55007 64.99422,0.9865 64.99422,0.9865c0,0 -1.75574,13.14006 -3.04324,17.94262c-1.6227,3.22419 -3.4466,8.5914 -3.4466,8.5914z" fill="#c172b1" stroke="none" stroke-width="0"/></g><g><g><path d="M177.6712,184.96277c0,0 -9.09038,-1.74731 -16.39301,0.56552c-5.06162,1.60308 -5.50792,10.30146 -7.56707,9.94564c-5.03002,-0.86918 -10.51438,-10.72233 -7.24487,-12.278c4.21762,-2.00677 6.11246,-6.6331 11.11428,-8.342c9.08305,-3.10327 20.73035,-2.68451 20.73035,-2.68451z" fill="#0045d8" stroke="#000000" stroke-width="3"/><path d="M150.51736,191.6254c0,0 0.09358,-8.599 5.49777,-11.77934c0.99384,-0.58487 2.16729,-0.98648 3.55279,-1.11765c7.57381,-0.71704 11.61896,-0.04476 13.8045,-1.09302c1.97484,-0.94718 2.01539,-4.16701 2.01539,-4.16701l1.82833,9.27564c0,0 -10.12928,0.8236 -17.12169,2.00268c-4.48313,0.75594 -4.58693,12.48086 -6.77409,8.4951z" fill="#080f95" stroke="none" stroke-width="0"/></g><g stroke="#000000"><path d="M283.63946,160.36577c0,0 -56.13218,6.03698 -65.72186,8.85764c-12.51267,3.68042 -24.3396,6.78922 -24.3396,6.78922c0,0 -12.26165,-4.6711 -15.82168,-17.15079c-1.08989,-3.82056 8.45538,-23.7392 9.82635,-26.05711c4.1491,-7.01495 8.24454,-14.32921 19.63904,-18.44593c14.11188,-5.09848 32.90579,-9.04897 48.49161,-5.38537c18.12418,4.26026 30.53291,14.31452 34.59308,17.74779c6.63862,5.61359 -6.86505,12.85702 -6.86505,12.85702z" fill="#ae1c51" stroke-width="3"/><path d="M171.32479,158.82574c-0.23822,-7.66866 27.74024,-44.5742 31.53229,-44.35162c12.86863,0.75532 16.05694,54.26987 16.05694,54.26987l-27.68624,6.61714c0,0 -19.66859,-8.98918 -19.90299,-16.53539z" fill="#710c65" stroke-width="1.5"/></g></g><g><path d="M175.54166,162.89622c0.62689,-0.87166 9.88815,6.01915 14.60582,12.77014c2.71096,3.87938 1.54501,8.73475 1.29731,11.76939c-0.06758,0.82783 -2.43148,1.52786 -3.30014,2.40038c-1.57137,1.57834 -2.28101,3.19571 -4.23567,3.42979c-4.87649,0.58401 -10.513,-27.38609 -8.36731,-30.3697z" fill="#aa96c7" stroke="#000000" stroke-width="3"/><path d="M180.14221,184.81676c0,0 1.07984,0.3893 2.98129,-0.25275c2.405,-0.81209 7.6343,-4.2399 7.6343,-4.2399c0,0 1.28146,3.86155 1.20595,4.97968c-0.10309,1.52638 -3.64147,4.56981 -6.4505,5.94295c-1.53087,0.74833 -2.57192,0.23322 -2.75035,0.275c-0.4879,0.11429 -2.62065,-6.70498 -2.62065,-6.70498z" fill="#c172b1" stroke="none" stroke-width="0"/><path d="M182.42524,174.85892c0.05159,-0.59279 8.14984,3.98653 7.67497,5.24841c-0.61288,1.62866 -3.26967,9.18026 -5.33368,7.03979c-0.84297,-0.8742 -2.58545,-9.48233 -2.34128,-12.28821z" fill="#c172b1" stroke="#000000" stroke-width="1.5"/></g><g><g data-paper-data="{&quot;index&quot;:null}"><path d="M216.35516,185.02861c-1.70219,1.95952 -5.38673,-6.56975 -6.0289,-6.13448c-0.42206,0.28607 -5.13134,3.02584 -8.96323,6.25425c-3.8949,3.28148 -7.02692,7.63427 -7.16756,7.3325c-0.07651,-0.16418 -2.7168,-14.72844 -1.44078,-15.85517c7.04535,-6.22102 34.44876,-9.12023 34.44876,-9.12023c0,0 -8.6607,15.00475 -10.8483,17.5231z" fill="#346def" stroke="#000000" stroke-width="3"/><path d="M216.62367,173.76347l7.84293,-4.63511l-8.93121,15.07018z" fill="#45afff" stroke="none" stroke-width="0"/></g><g data-paper-data="{&quot;index&quot;:null}"><path d="M296.83227,180.81955c0.40418,4.76608 -4.0912,11.73352 -4.0912,11.73352c0,0 -7.16629,-10.08471 -15.27334,-12.96967c-0.85519,-0.30434 2.33416,-2.6566 0.98404,-3.26449c-7.45464,-3.3564 -24.00787,-8.04528 -31.93848,-10.34504c-0.62357,-0.18084 -2.15365,-0.60689 -2.55913,-0.17694c-2.11585,2.24353 -0.62943,10.81318 -2.67781,10.69803c-2.21537,-0.12453 -4.35818,-1.61858 -6.33602,-3.84438c-3.09344,-3.48123 -5.63273,-7.15067 -5.63273,-7.15067c0,0 10.45559,-46.73031 40.47764,-42.4623c-5.33223,6.11775 -15.03268,21.85046 -8.40995,15.99607c7.00173,-6.18945 17.60585,-7.88416 22.40244,-8.25248c7.12813,11.02622 28.75057,25.83374 28.75057,25.83374c0,0 -15.68371,9.46439 -24.20717,10.24371c0,0 7.61472,3.3901 8.51114,13.9609z" fill="#45afff" stroke="#000000" stroke-width="3"/><path d="M270.6514,157.55351c0,0 7.73274,8.18473 11.59981,12.66818c4.55887,5.28551 9.98928,18.87121 9.98928,18.87121c0,0 -5.70781,-5.39577 -7.73939,-7.01072c-2.27412,-1.80776 -5.25994,-3.32278 -5.25994,-3.32278c0,0 2.3074,-1.50199 0.04733,-3.55951c-1.48576,-1.3526 -4.84576,-2.09482 -9.80243,-3.71804c-3.76092,-1.23164 -20.28399,-6.14739 -25.06411,-7.36326c-0.79667,-0.20264 -1.54631,0.9821 -1.54631,0.9821c0,0 -1.30818,2.07582 -1.56673,3.41938c-0.37643,1.95601 -0.426,6.47307 -0.426,6.47307c0,0 -2.81834,-1.05011 -4.14231,-2.25119c-1.87063,-1.697 -6.01966,-6.96762 -6.01966,-6.96762c0,0 0.30515,-4.40189 2.66067,-8.64676c1.27335,-4.73427 10.54665,-22.02082 10.54665,-22.02082c0,0 -1.57051,16.3171 -0.26775,15.04065c1.57104,-1.53931 2.80841,-5.31648 4.96837,-8.06369c2.4903,-3.16736 5.81186,-5.22904 5.81186,-5.22904c0,0 -1.70864,5.12863 -2.08818,7.55407c-0.41643,2.66116 -0.30998,7.77144 -0.30998,7.77144c0,0 9.08329,-3.27701 17.12485,-5.76821c5.23083,-1.62044 10.54173,-2.97647 10.84338,-2.64891c7.25492,3.69153 19.22661,19.8376 19.22661,19.8376c0,0 -17.87488,-4.21969 -22.86398,-5.27509c-2.3425,-0.49555 -5.72207,-0.77207 -5.72207,-0.77207z" fill="#346def" stroke="none" stroke-width="0"/></g></g></g><g data-paper-data="{&quot;index&quot;:null}" stroke-linecap="butt"><g><g><path d="M231.33917,250.47518c0,-5.27339 -0.62881,-15.66275 5.84694,-19.95325c1.61333,-1.06892 5.81937,-4.16312 9.46782,-0.88705c0.41517,0.37279 -0.71559,1.36023 0.03529,2.74082c0.27717,0.50963 2.10941,0.5628 2.5842,1.16226c1.49984,1.89365 4.70038,3.7346 5.3839,3.65878c2.17588,-5.04663 8.87183,-11.13797 11.09269,-11.60504c3.99089,-0.83933 19.13199,2.40635 18.9705,5.25113c0.48858,2.31445 -3.31886,6.12655 -3.31886,6.12655c0,0 15.92988,8.36591 21.89613,11.69543c10.27345,5.73316 11.55502,9.33992 11.55502,9.33992c0,0 -0.46602,3.23879 -4.67882,4.3903c-8.25789,2.25717 -18.50101,2.91383 -30.51894,2.60703c-11.67654,-0.29808 -9.14099,-9.31205 -21.39394,-10.14324c-10.3314,-1.06744 -26.92192,4.37368 -26.92192,-4.38362z" fill="#ae1c51" stroke="#000000" stroke-width="3"/><path d="M294.77413,263.49854c0,0 -11.34296,1.14548 -17.05687,0.37042c-5.76557,-0.78207 -12.11927,-9.601 -17.71151,-10.35557c-11.83488,-1.59689 -20.7241,3.57364 -23.76858,1.63995c-0.19583,-0.12438 -4.82101,-1.75622 -4.21453,-7.0993c1.45794,-12.84447 7.49049,-14.79963 7.49049,-14.79963c0,0 6.97619,7.35858 15.15116,8.28531c1.60103,0.18149 0.49347,-2.45594 0.49347,-2.45594c0,0 -0.2332,-1.26821 0.14627,-2.11276c0.56829,-1.26478 2.93203,-4.73831 2.93203,-4.73831c0,0 0.76675,1.89943 2.91968,4.13134c2.59891,2.69423 7.56954,5.29636 12.71524,8.60692c5.7203,3.68023 15.31649,6.8912 17.61341,8.90368c2.50147,2.19168 3.2897,9.62387 3.2897,9.62387z" fill="#710c65" stroke="none" stroke-width="0"/><path d="M246.26215,233.30611c0,0 1.17283,0.17213 5.17835,2.23765c3.26103,1.68161 7.32042,5.54219 7.32042,5.54219c0,0 -2.50531,-1.74238 -7.78277,-2.78817c-5.49335,-1.08856 -4.71601,-4.99165 -4.71601,-4.99165z" fill="#000000" stroke="none" stroke-width="0"/></g><g fill="#ab9efa" stroke="#000000" stroke-width="2.5"><path d="M265.85676,248.46844c-1.66981,-1.11055 -2.00545,-3.39316 -1.65126,-4.77438c0.84029,-3.27704 3.72212,-5.23874 5.56346,-5.69388c7.80261,-1.92865 13.93466,-0.99587 13.79056,0.54618c-0.25967,2.77871 -5.91998,3.00386 -9.54239,5.4258c-1.83233,1.22509 -2.38267,2.55716 -3.47385,3.5806c-1.04173,0.97705 -2.81531,2.16019 -4.68654,0.91568z"/></g><g fill="#ab9efa" stroke="#000000" stroke-width="2.5"><path d="M273.79443,252.31081c-0.55768,-0.634 0.66612,-4.68684 3.81414,-7.60397c7.47922,-6.93068 11.09373,-6.80389 12.50391,-4.51558c1.27592,2.07047 -4.27279,4.84978 -8.16309,8.50829c-3.47256,3.26566 -7.03971,4.87912 -8.15497,3.61124z"/></g><g fill="none" stroke="none" stroke-width="1" font-family="sans-serif" font-weight="normal" font-size="12" text-anchor="start"/></g><g><path d="M285.22295,272.1954c-6.19662,0 -15.97363,-7.16816 -23.39633,-7.89787c-10.92901,-1.07441 -28.45748,-2.70571 -31.79915,-5.833c-3.05697,-2.86085 -4.49409,-7.13092 0.02833,-7.73384c0.99148,5.71805 6.53197,6.19962 10.87413,6.29818c5.25527,0.11929 11.84156,-3.47426 17.58752,-2.42837c2.58926,0.4713 4.87528,2.2445 6.97262,3.00575c6.14526,2.23049 13.93178,4.67034 19.72045,4.67034c13.34715,0 19.78011,1.35959 24.83945,-0.24377c2.74728,-0.87066 3.62622,-4.60752 4.97251,-4.79021c1.76229,-0.23914 3.67269,6.1041 3.67269,6.1041c0,0 0.01926,3.94408 -4.47661,6.57254c-4.70575,2.75116 -13.6116,2.27614 -28.99563,2.27614z" fill="#ab9efa" stroke="#000000" stroke-width="3"/><path d="M229.77428,250.81427c0,0 -0.38811,1.5518 1.36774,3.59301c1.1438,1.3297 2.93794,2.93279 7.52113,3.95612c4.02399,0.89847 16.17014,-4.21266 19.47612,-3.36953c8.48774,2.16462 12.86949,4.63492 21.06385,7.73004c1.83674,0.69376 3.40423,0.94236 5.21093,0.99286c1.31271,0.03669 3.62126,3.88186 5.38156,3.80417c4.74672,0.93503 9.14292,3.01537 9.14292,3.01537l-3.76861,-0.08054c0,0 -4.53214,2.39632 -12.912,0.16342c-4.75268,-1.26641 -9.74603,-3.49174 -18.79562,-7.2494c-4.6831,-1.94456 -23.79843,-0.75572 -28.02312,-2.37381c-2.90673,-1.1133 -5.29762,-2.08354 -6.32247,-5.27971c-1.112,-3.46798 0.65758,-4.902 0.65758,-4.902z" fill="#9362ec" stroke="none" stroke-width="0"/></g></g><g data-paper-data="{&quot;index&quot;:null}"><path d="M144.56691,249.66335c6.92691,-4.63722 22.33297,-5.62286 40.7133,-5.62286c14.04726,0 26.9449,8.6313 36.33944,11.93062c6.84217,2.40293 11.1236,6.10961 10.95549,7.74671c-0.04999,0.48678 -0.8213,10.26027 -3.10183,11.85364c-9.45042,6.60287 -20.2099,8.67923 -45.77224,7.48148c-25.74735,-1.20642 -42.30721,-21.22888 -42.24171,-25.15276c0.04337,-2.5983 0.32211,-6.37211 3.10755,-8.23683z" fill="#ab9efa" stroke="#000000" stroke-width="3" stroke-linecap="butt"/><path d="M148.40753,248.40371c0,0 -0.86614,12.49037 8.46606,20.70016c6.21545,5.46789 17.41554,10.78404 28.01184,11.04023c42.46195,1.02664 44.84729,-9.15425 44.84729,-9.15425c0,0 0.69322,0.73557 -0.27534,2.23752c-2.20209,3.41482 -10.90922,9.0446 -41.93549,9.16344c-7.17505,0.02747 -17.08413,-2.60207 -25.6705,-7.01587c-6.73867,-3.46399 -12.66263,-8.34695 -15.81094,-11.75507c-3.58035,-3.87578 -4.08065,-7.60388 -1.60493,-12.38676c1.37533,-2.65703 3.97201,-2.82941 3.97201,-2.82941z" fill="#9362ec" stroke="none" stroke-width="0" stroke-linecap="butt"/><path d="M147.52478,250.2359c0,0 0.19825,-0.88093 0.55911,-2.03673c0.43004,-1.37736 1.09103,-3.14509 1.92267,-4.27753c1.58871,-2.16329 3.64121,-2.35878 3.64121,-2.35878c0,0 1.04962,-2.73083 -1.73911,-5.59182c-4.1511,-4.25866 -8.39621,-12.95862 -4.87231,-13.24198c5.6741,-0.45627 7.8017,3.30887 12.51059,4.02016c2.59317,0.39172 9.18729,-1.75496 11.67424,-1.34784c11.55939,1.89231 17.68049,6.30931 24.14071,6.30931c7.49898,0 18.18979,1.9838 18.18979,1.9838c0,0 17.35921,-1.72511 20.96682,2.70226c1.53557,1.88449 0.83955,6.09458 1.50622,7.39701c0.98827,1.93072 -13.45771,2.9121 -13.45771,2.9121c0,0 -2.04745,4.54217 -2.53976,6.18852c-0.09148,0.30751 -3.16931,-0.75846 -4.56304,-0.6603c1.56463,0.4299 5.10759,1.99418 7.12806,3.72431c2.2437,1.92128 4.34817,5.83841 4.26802,9.79124c-0.05617,2.76971 -0.11179,3.62783 -1.86271,5.0011c-3.50012,2.74519 -12.47711,4.26803 -32.69167,4.26803c-16.80142,0 -32.72158,-6.74597 -39.98115,-13.91631c-5.84408,-5.77225 -4.79997,-10.86653 -4.79997,-10.86653z" fill="#ae1c51" stroke="#000000" stroke-width="3" stroke-linecap="butt"/><path d="M172.29003,234.06988c0,0 1.05986,-8.36024 7.27957,-11.37249c1.96775,-0.953 5.36144,-0.13884 8.22563,0.05212c5.77847,0.38526 21.97428,7.32652 25.33448,13.45171c0.61772,1.12604 0.71321,4.39302 -1.3006,7.00548c-2.25712,2.92811 -6.69319,5.16154 -6.69319,5.16154" fill="#ae1c51" stroke="#000000" stroke-width="3" stroke-linecap="round"/><path d="M162.8185,228.44942c0,0 7.43826,7.09587 10.05334,7.04451c0.97381,-0.01911 1.23474,-3.60945 2.19407,-6.17553c0.63115,-1.6882 2.21174,-2.73274 2.21174,-2.73274c0,0 0.64802,-2.83349 3.89972,-2.86367c5.56279,-0.05163 14.14021,2.50934 14.14021,2.50934l2.07985,8.66964c0,0 8.64323,2.26757 9.84007,4.33097c2.00176,3.45111 -1.93424,8.29785 -1.93424,8.29785c0,0 -2.89941,12.29499 -1.27249,15.22337c9.97629,3.34061 16.09731,8.63747 16.09731,8.63747c0,0 -11.36711,8.41152 -50.39338,-1.7238c-7.98776,-2.07447 -16.26386,-5.95067 -18.58892,-12.49453c-0.94059,-2.64729 -2.94957,-4.01559 -2.40246,-6.76544c0.60644,-3.04804 3.83164,-7.17265 3.83164,-7.17265l1.57108,12.80886c0,0 1.90878,-1.16334 5.22503,-2.68265c6.24055,-2.85906 15.80833,-6.9787 15.36839,-6.9787c-6.48946,0 -20.62137,-4.59052 -20.62137,-4.59052c0,0 -6.17242,-9.77603 -5.81139,-15.5288c7.23812,4.60311 14.65109,5.23928 14.7268,4.41158z" fill="#710c65" stroke="none" stroke-width="0" stroke-linecap="butt"/><path d="M164.95957,249.38328c2.76019,-0.30426 8.7755,0.86206 15.40455,1.74244c13.07582,1.73657 17.84916,4.05587 20.39329,7.20946c1.19932,1.48663 3.08234,3.58453 2.93572,5.11026c-0.16845,1.75287 -15.59386,-2.96326 -25.95374,-5.3122c-11.32152,-2.56697 -16.56447,-4.49589 -15.48263,-5.82117c0.4272,-0.52336 -0.40011,-2.58674 2.70281,-2.92879z" fill="#ab9efa" stroke="none" stroke-width="0" stroke-linecap="butt"/><path d="M163.26739,247.65796c0,-3.42721 0.05078,-4.42714 16.84405,-2.19018c19.70635,2.625 27.11892,10.80891 27.11892,14.23612c0,3.42719 -7.30997,-7.54905 -26.95047,-9.12573c-15.77721,-1.26654 -17.01249,0.50699 -17.01249,-2.92022z" fill="#ab9efa" stroke="none" stroke-width="0" stroke-linecap="butt"/><path d="M163.77273,242.18249c0,-0.6841 2.98078,-4.74537 7.24294,-4.56286c5.04591,0.21607 15.74702,0.40078 24.4323,4.0715c5.13624,2.17076 9.78793,7.62141 11.55799,9.01596c1.35722,1.06928 -0.72895,2.80539 -0.78623,3.15632c-0.28586,1.75115 -9.04464,-6.75302 -23.24479,-8.9432c-10.22297,-1.57675 -19.20222,1.59668 -19.20222,-2.73771z" fill="#ab9efa" stroke="none" stroke-width="0" stroke-linecap="butt"/><path d="M167.08294,239.25403c0,0 -0.1645,-1.08535 10.45659,-0.86679c13.80806,0.28415 16.24637,3.52927 16.24637,3.52927c0,0 -11.82492,12.15374 -16.62069,12.08585c-4.79576,-0.06788 -10.08227,-14.74833 -10.08227,-14.74833z" fill="#9362ec" stroke="none" stroke-width="0" stroke-linecap="butt"/><path d="M164.95957,249.38328c2.76019,-0.30426 8.7755,0.86206 15.40455,1.74244c13.07582,1.73657 17.84916,4.05587 20.39329,7.20946c1.19932,1.48663 3.08234,3.58453 2.93572,5.11026c-0.16845,1.75287 -15.59386,-2.96326 -25.95374,-5.3122c-11.32152,-2.56697 -16.56447,-4.49589 -15.48263,-5.82117c0.4272,-0.52336 -0.40011,-2.58674 2.70281,-2.92879z" fill="none" stroke="#000000" stroke-width="2" stroke-linecap="butt"/><path d="M163.26739,247.65796c0,-3.42721 0.05078,-4.42714 16.84405,-2.19018c19.70635,2.625 27.11892,10.80891 27.11892,14.23612c0,3.42719 -7.30997,-7.54905 -26.95047,-9.12573c-15.77721,-1.26654 -17.01249,0.50699 -17.01249,-2.92022z" fill="none" stroke="#000000" stroke-width="2" stroke-linecap="butt"/><path d="M163.77273,242.18249c0,-0.6841 2.98078,-4.74537 7.24294,-4.56286c5.04591,0.21607 15.74702,0.40078 24.4323,4.0715c5.13624,2.17076 9.78793,7.62141 11.55799,9.01596c1.35722,1.06928 -0.72895,2.80539 -0.78623,3.15632c-0.28586,1.75115 -9.04464,-6.75302 -23.24479,-8.9432c-10.22297,-1.57675 -19.20222,1.59668 -19.20222,-2.73771z" fill="none" stroke="#000000" stroke-width="2" stroke-linecap="butt"/></g><g data-paper-data="{&quot;index&quot;:null}" stroke-linecap="butt"><path d="M177.33363,211.66659c0,0 6.82601,1.701 8.68326,-0.48769c2.01056,-2.36937 1.75583,-13.06029 1.75583,-13.06029c0,0 3.97995,4.61324 6.45449,6.0843c2.9585,1.75876 11.30615,3.5909 11.30615,3.5909c0,0 3.84406,7.9937 0.78173,12.86176c-3.45657,5.49475 -21.42334,7.5884 -27.29584,4.17667c-8.62231,-5.00927 -1.68565,-13.16568 -1.68565,-13.16568z" fill="#aa96c7" stroke="#000000" stroke-width="2.5"/><path d="M186.88093,206.46589c0,0 -0.30778,-6.33358 2.00832,-6.1997c1.29662,0.07495 4.24773,2.53558 7.23496,4.00443c4.48324,2.20446 9.13955,3.6959 9.13955,3.6959l0.59131,7.71103c0,0 -4.78934,0.39316 -10.6552,-1.50009c-5.25649,-1.69658 -8.31893,-7.71158 -8.31893,-7.71158z" fill="#c172b1" stroke="none" stroke-width="0"/><path d="M185.57042,194.99009c0,0 -1.41985,-3.89579 2.30671,-6.66837c1.30878,-0.97374 5.23429,-0.46785 6.88467,0.12376c1.90289,0.68213 1.45128,1.54881 1.45128,1.54881c0,0 -10.07334,1.72152 -6.71263,7.75016c2.1112,3.78718 6.67933,6.34319 9.00056,6.66483c11.63921,1.61278 20.15013,-6.4404 20.15013,-6.4404c0,0 -3.80245,6.51788 -6.22666,7.86395c-2.30515,1.27994 -6.43654,2.0723 -11.40051,1.54942c-10.91451,-1.14969 -15.45354,-12.39216 -15.45354,-12.39216z" fill="#000000" stroke="none" stroke-width="0"/></g><g data-paper-data="{&quot;index&quot;:null}" stroke="none" stroke-width="0" stroke-linecap="butt"><path d="M172.90788,216.45355c0,0 -1.72277,-3.094 -1.09482,-3.73707c1.06703,-1.09272 4.83213,0.17286 5.68696,1.47036c1.7034,2.58552 2.5256,9.35408 8.39097,10.0158c7.50267,0.84644 13.084,0.42957 14.72904,0.18507c0.66619,-0.09902 -0.08423,2.25002 -0.08423,2.25002c0,0 -2.22039,4.15935 -5.52172,6.88351c-3.91634,3.23164 -9.32377,5.42999 -13.34206,5.00858c-4.23056,-0.44367 -8.76413,-22.07627 -8.76413,-22.07627z" fill="#0045d8"/><path d="M169.82298,221.13247c0,0 -2.59947,-6.04179 -1.6432,-6.62922c0.92302,-0.56701 4.406,-1.53359 4.406,-1.53359c0,0 5.49348,23.63876 8.6306,25.65107c1.50391,0.96468 15.08026,-6.84461 15.08026,-6.84461c0,0 -7.24039,14.11424 -16.78479,13.03746c-0.35799,-0.04038 -4.50439,-5.68094 -7.00278,-12.02562c-2.12542,-5.39749 -2.68611,-11.65549 -2.68611,-11.65549z" fill="#0f1b82"/><path d="M201.93737,223.41577c0,0 -0.74176,1.59241 -4.68022,2.16195c-3.84914,0.55661 -10.85186,0.10178 -14.65459,-0.83485c-3.3726,-0.83069 -5.25574,-10.29296 -5.25574,-10.29296c0,0 -5.22103,-1.93985 -5.48783,-1.78181c-0.98756,0.58497 -0.83984,6.0753 -0.83984,6.0753c-0.81638,1.67467 -0.01424,3.9313 0.7983,7.29037c1.62494,6.71765 5.26999,16.14572 7.83858,16.47885c8.74819,1.13461 18.33663,-13.86509 18.33663,-13.86509c0,0 -0.00691,3.13133 -1.99467,6.51919c-2.99907,5.11148 -9.22481,11.11626 -16.54513,10.2904c-4.36287,-0.49221 -12.98989,-16.14337 -12.77661,-25.35617c0.06922,-2.99021 1.63157,-8.76358 4.10485,-10.37162c3.14346,-2.04376 9.18153,-0.17943 9.18153,-0.17943c0,0 -1.12874,1.56451 -0.39476,3.92772c0.9306,2.9963 3.24329,7.84975 4.91072,8.73077c3.17516,1.67767 15.95695,0.1363 15.95695,0.1363l1.50183,1.07106z" fill="#000000"/></g><path d="M315.83545,165.8022c0,0 0.04293,0.05723 0.07465,0.14462l0.27525,0.20643c0.12409,0.09098 0.20466,0.23783 0.20466,0.40349c0,0.27614 -0.22386,0.5 -0.5,0.5c-0.06965,0 -0.13597,-0.01424 -0.19622,-0.03997l-0.74705,-0.29882l0.00268,-0.00669l-0.02181,-0.00143c-1.80857,-0.90288 -3.57654,-1.78993 -5.64691,-1.92694c-2.75828,-0.18254 -5.66885,0.21143 -8.27679,-0.65127l-0.03827,0.14032l-0.95428,-0.26026c-0.21764,-0.05413 -0.37892,-0.25085 -0.37892,-0.48524c0,-0.22817 0.15283,-0.42064 0.36171,-0.48063l0.474,-0.14813l0.0092,0.02943l0.06451,-0.04646c0.6918,-0.00368 1.38362,-0.00572 2.07543,-0.00572c4.2391,0 10.28882,-0.92957 13.21818,2.92727z" data-paper-data="{&quot;index&quot;:null}" fill="#000000" stroke="none" stroke-width="0.5" stroke-linecap="butt"/><path d="M228.56254,168.56888c-0.02795,-0.2645 0.20928,-0.44242 0.20928,-0.44242l0.05107,-0.03772c0.11052,-0.18556 0.22724,-0.36006 0.34992,-0.5219l0.07018,-0.02429l-0.01662,-0.02215l0.60202,-0.45152c0.01136,-0.00872 0.02312,-0.01696 0.03522,-0.02469c0.04753,-0.06961 0.29388,-0.38882 0.67758,-0.1586c0.42874,0.25725 0.1715,0.686 0.1715,0.686c-1.81714,3.02563 -1.59542,5.99962 -1.59542,9.43972v0.75758c0,0.27614 -0.22386,0.5 -0.5,0.5c-0.23795,0 -0.43708,-0.16622 -0.48761,-0.38888l-0.14897,-0.59591l0.13658,-0.03414v-0.02052c-1.02822,-2.48792 -0.74134,-6.25863 0.44527,-8.66055z" data-paper-data="{&quot;index&quot;:null}" fill="#000000" stroke="none" stroke-width="0.5" stroke-linecap="butt"/><path d="" data-paper-data="{&quot;index&quot;:null}" fill="#000000" stroke="none" stroke-width="0.5" stroke-linecap="butt"/><path d="M238.07873,139.96292c-0.56414,0.86478 -0.92518,1.96084 -1.56756,2.80266c-0.63312,2.56686 -2.04036,5.05135 -2.98253,7.55859c-0.21384,0.56907 -0.3625,1.21511 -0.49491,1.88678c1.18821,-2.27363 2.28747,-4.60607 3.33416,-6.77721c0.86625,-1.79462 1.36625,-3.61967 1.71084,-5.47081zM240.48988,126.80516c0.2041,-1.43107 0.26981,-2.81068 0.26981,-4.25445v-0.6c0,-0.27614 0.22386,-0.5 0.5,-0.5c0.27614,0 0.5,0.22386 0.5,0.5v0v0.6c0,0.05317 -0.00009,0.10625 -0.00027,0.15926c0.45991,0.58514 0.3495,2.0073 0.57461,2.68263c0.99017,2.97052 0.76432,8.34999 -0.2124,11.34946c-2.91335,5.75421 -4.15543,10.81443 -8.97429,15.62263c-0.99337,1.67168 -3.44223,6.17918 -2.44257,4.51125c0.12868,-4.55233 3.83377,-10.31618 4.90345,-14.54011c0.87743,-1.18829 1.28606,-2.67695 2.2648,-3.70211l0.37065,-0.56036c0,0 0.05833,-0.08749 0.16161,-0.15548c0.29928,-2.16028 0.49421,-4.35325 0.91005,-6.57218c0.29806,-1.59047 0.9443,-2.92473 1.17456,-4.54054z" data-paper-data="{&quot;index&quot;:null}" fill="#000000" stroke="none" stroke-width="0.5" stroke-linecap="butt"/><g data-paper-data="{&quot;index&quot;:null}" fill="#000000" stroke="none" stroke-width="0.5" stroke-linecap="butt"><path d="M206.54923,105.20952c0.98919,0.14666 0.84253,1.13585 0.84253,1.13585l-0.17095,1.08217c-1.31884,4.38762 -1.2468,8.51092 -1.2468,13.05688c0,4.63321 0.376,9.05239 0.71162,13.64134c0.31611,4.32223 -0.47352,8.48249 -0.47352,12.78723c0,0 0,1 -1,1c-1,0 -1,-1 -1,-1c0,-4.25813 0.79111,-8.37195 0.47886,-12.64135c-0.33911,-4.63673 -0.71695,-9.106 -0.71695,-13.78722c0,-4.74077 -0.04022,-9.05181 1.33116,-13.63157l0.10823,-0.80081c0,0 0.14666,-0.98918 1.13585,-0.84252z"/><path d="M201.34464,156.88402c-0.44722,0.89442 -1.34164,0.44721 -1.34164,0.44721l-1.00955,-0.9364c-1.28468,-6.54962 -0.15985,-14.15742 0.94588,-20.5944c0.54425,-3.16838 -0.01515,-6.90834 0.05566,-10.13172c0.87524,-9.31268 2.22792,-19.05266 0.89385,-28.3762c0,0 -0.14142,-0.98995 0.84853,-1.13137c0.98995,-0.14142 1.13137,0.84853 1.13137,0.84853c1.34951,9.46231 0.01516,19.32378 -0.87709,28.77453c-0.07066,3.3157 0.45162,7.06837 -0.07815,10.33659c-1.0048,6.19872 -2.24833,13.57774 -0.95889,19.8818l-0.05718,-0.46022c0,0 0.89443,0.44721 0.44721,1.34164z"/><path d="M194.11657,98.36948c0.92446,-0.38125 1.30572,0.54322 1.30572,0.54322l0.43364,1.0559c1.80727,3.36164 0.73389,8.06086 0.35131,11.80484c-0.61505,6.01898 0.40418,12.44291 1.1932,18.31229c0.00994,9.68487 -1.19664,19.32698 -1.18833,28.97013c0,0 0,1 -1,1c-1,0 -1,-1 -1,-1c0.00782,-9.6019 1.182,-19.19773 1.19262,-28.8394c-0.76821,-5.99842 -1.79024,-12.49153 -1.18775,-18.6401c0.32013,-3.26698 1.50225,-7.85737 -0.16269,-10.7394l-0.48093,-1.16175c0,0 -0.38125,-0.92448 0.54322,-1.30573z"/><path d="M189.97404,161.24632c-1,0 -1,-1 -1,-1v-0.7619c0,-0.66666 0,-1.33334 0,-2c0,-7.99992 -0.39361,-16.1213 0.05857,-24.11143c0.17138,-3.02841 1.10272,-5.92602 1.37577,-8.94826c1.07244,-8.58328 -0.00578,-17.01213 -0.00578,-25.60698c0,0 0,-1 1,-1c1,0 1,1 1,1c0,8.66436 1.07677,17.16505 -0.00577,25.82158c-0.27301,2.98524 -1.20383,5.85605 -1.36732,8.84484c-0.43522,7.95629 -0.05548,16.03486 -0.05548,24.00025c0,0.66666 0,2.09524 0,2.7619c0,0 0,1 -1,1z"/><path d="M185.62496,114.48644c0.99799,-0.06337 1.06135,0.93462 1.06135,0.93462l0.02053,0.51311c0.55483,2.50313 0.69577,4.76325 0.69577,7.31216c0,4.89897 -0.39546,9.68481 -0.71431,14.5516c-0.37675,5.75069 0.711,11.47831 0.71431,17.2103c0,0 0,1 -1,1c-1,0 -1,-1 -1,-1c0.0035,-5.77723 -1.08989,-11.54305 -0.71003,-17.34105c0.31601,-4.82353 0.71003,-9.56513 0.71003,-14.42086c0,-2.41095 -0.12079,-4.51162 -0.64814,-6.8783l-0.06414,-0.82023c0,0 -0.06337,-0.99799 0.93462,-1.06136z"/><path d="M182.36215,152.8582l-0.53099,-0.9452c0.08718,-3.11966 -1.65198,-6.46854 -1.90224,-9.69102c-0.45147,-5.81334 0.47367,-11.64695 0.47367,-17.45185c0,0 0,-1 1,-1c1,0 1,1 1,1c0,5.75799 -0.91745,11.54426 -0.4787,17.31007c0.24291,3.19219 1.70949,6.28629 1.89075,9.40639c0.13734,0.16286 0.56611,0.76723 -0.03827,1.37161c-0.70711,0.70711 -1.41422,0 -1.41422,0z"/><path d="M179.47394,136.80819l-0.46568,1.16304c-1.58495,4.71391 -0.41838,10.25153 -0.41518,15.13224c0,0 0,1 -1,1c-1,0 -1,-1 -1,-1c0.00357,-5.17665 -1.12024,-10.81078 0.5372,-15.82015l0.4867,-1.21791c0,0 0.3714,-0.92848 1.29987,-0.55709c0.92848,0.37139 0.55709,1.29987 0.55709,1.29987z"/></g><g data-paper-data="{&quot;index&quot;:null}" stroke-linecap="butt"><path d="M236.11649,196.56706c4.94937,0.03946 15.01055,0.09656 17.86834,1.19518c4.15593,1.59765 5.42495,4.34524 1.09411,5.83358c-4.84654,1.66557 -15.86488,1.98353 -20.84735,1.9438c-3.63431,-0.02898 -9.16022,-2.6639 -11.83234,-2.94434c-6.73317,-0.70665 -7.95987,-3.13741 -5.97426,-7.40417c1.9856,-4.26676 6.89954,1.27395 19.6915,1.37595z" fill="#ac447e" stroke="#000000" stroke-width="3"/><path d="M232.80983,193.07567c0,0 -10.65272,0.43026 -12.14387,-3.12175c-1.61709,-3.85199 -0.03119,-4.30677 3.56883,-6.43361c3.91977,-2.31575 15.19088,0.1282 15.13229,4.68055c-0.04958,3.85199 -2.34051,4.90842 -6.55725,4.8748z" fill="#000000" stroke="none" stroke-width="0"/><path d="M256.98014,196.141c-3.73267,-0.02977 -8.41918,-2.92852 -8.37297,-6.51937c0.04739,-3.68154 0.13757,-5.57565 3.96452,-5.54514c8.37241,0.78809 12.18821,3.80407 12.14083,7.48562c-0.04738,3.68155 -3.90543,4.6094 -7.73238,4.57889z" fill="#000000" stroke="none" stroke-width="0"/></g><g data-paper-data="{&quot;index&quot;:null}"><path d="M314.49565,221.96278c-0.61124,-4.64451 -1.00645,-9.97455 3.83361,-10.61153c3.22445,-0.42437 7.85864,0.57857 10.84086,3.17784c1.49425,1.30235 2.64893,3.57664 2.85296,5.12697c0.29989,2.27871 -0.80268,4.33989 -2.76958,5.94926c-2.04209,1.67089 -5.00099,2.85281 -7.46639,3.17727c-4.84006,0.63699 -6.68022,-2.17531 -7.29147,-6.81982z" fill="#2f429d" stroke="#000000" stroke-width="3" stroke-linecap="butt"/><path d="M278.72257,241.83846c-2.62478,-5.66455 1.69557,-9.63533 10.15472,-10.7486c8.45914,-1.11326 14.82432,0.13874 15.59114,5.96538c0.31506,2.3939 1.17447,9.8285 -2.79518,10.60373c-6.71256,1.31088 -8.61258,-7.18307 -10.05811,-6.96982c-4.10247,0.60519 -10.54765,6.20989 -12.89256,1.14931z" fill="#c172b1" stroke="#000000" stroke-width="3" stroke-linecap="butt"/><path d="M276.46992,225.08375c-1.54245,-11.72035 -1.96237,-28.67713 9.99122,-30.6527c4.69703,-0.77626 7.25613,6.14732 9.06438,5.90934c4.62599,-0.60881 8.0185,-2.24929 11.76271,0.37223c1.81905,1.27361 2.08828,2.75811 3.86687,3.70048c3.6143,1.91499 5.44118,-0.78096 8.20598,1.55426c0.73609,0.87566 8.18174,12.23707 7.33727,18.13078c-1.01579,7.08938 -6.15607,19.5455 -9.22034,20.89313c-2.10874,0.92739 -3.9528,1.24777 -5.37697,-1.0888c-1.93123,-3.16847 -0.59035,-12.15364 -0.59035,-12.15364c0,0 -6.3908,4.9377 -8.71943,4.78861c-2.2657,-0.14507 -3.9452,-2.36567 -7.15927,-2.94499c-0.79611,-0.1435 -0.69015,3.25728 -5.29961,3.45294c-10.07304,0.42758 -13.18547,-6.81797 -13.86242,-11.96163z" fill="#aa96c7" stroke="#000000" stroke-width="3" stroke-linecap="butt"/><path d="M297.36388,220.921c0,0 0.58852,0.33466 1.47631,2.01019c0.73018,1.37805 1.56515,4.08386 3.28296,4.62928c0.86159,0.27356 4.96196,-0.06646 6.2593,-0.84233c1.00675,-0.6021 1.50855,-1.62063 1.83582,-1.70555c1.62077,-0.42056 1.31817,-7.76916 1.31817,-7.76916l1.52108,-2.71445c0,0 2.16815,6.15637 3.04607,11.25769c2.75382,2.08139 4.55021,3.59247 4.55021,3.59247l4.26874,-2.62921c0,0 -2.27455,7.17397 -4.46626,11.43658c-1.8169,3.53366 -3.53716,5.94431 -5.54784,6.21741c-1.41052,0.19157 -2.93581,-2.51293 -3.69241,-5.19186c-0.57486,-2.03544 1.25344,-6.7347 0.26042,-7.45913c-0.40297,-0.29398 -2.53372,0.87237 -3.46322,1.54575c-3.2652,2.36548 -4.28376,1.83604 -6.03191,1.38874c-2.22339,-0.56891 -5.11241,-1.68361 -5.11241,-1.68361c0,0 -0.41213,-1.03698 -1.15375,-0.76905c-0.9548,0.34498 -1.81261,1.97991 -3.09479,2.81726c-0.52934,0.34569 -1.58709,0.11741 -2.03299,0.29864c-0.9858,0.40064 -2.93011,0.29574 -4.11608,-0.04607c-1.11833,-0.32232 -1.49697,-0.86393 -1.86631,-1.11402c-1.43386,-0.97089 -3.88156,-5.55491 -2.79965,-7.27227c1.31314,-2.0844 6.38691,-1.24775 6.38691,-1.24775c0,0 4.38757,3.45545 7.33748,2.8518c2.21825,-0.45392 1.8341,-7.60138 1.8341,-7.60138z" fill="#c172b1" stroke="none" stroke-width="0" stroke-linecap="butt"/><path d="M295.77551,222.47123c-0.67849,-2.66557 -2.11306,-6.33314 -1.68585,-8.41122c0.37671,-1.83246 4.67045,-4.57321 5.63367,-4.63698c0.44235,-0.02928 1.32657,1.39848 1.32657,1.39848c0,0 -4.27908,2.1339 -4.45971,3.33272c-0.20028,1.32922 0.71297,3.89437 1.17175,5.6968c0.82099,3.2255 1.79959,6.19879 1.50383,8.64956c-0.26315,2.1807 -1.76065,5.6856 -1.76065,5.6856l-2.46835,0.0178c0,0 0.99037,-4.32188 1.33733,-5.5866c0.48331,-1.76183 -0.1543,-4.40061 -0.5986,-6.14615z" fill="#000000" stroke="none" stroke-width="0" stroke-linecap="butt"/><path d="M310.52416,224.50433c-0.3589,-2.72704 -2.2615,-7.44217 -1.59185,-9.45525c0.48464,-1.4569 2.54098,-3.43691 3.91327,-3.7544c0.73025,-0.16895 1.29756,1.35807 1.29756,1.35807c0,0 -1.81279,2.61809 -2.13375,3.78719c-0.35587,1.29624 0.64437,3.66679 0.88705,5.5108c0.43428,3.29986 0.41252,6.83894 -0.17061,9.23763c-0.51888,2.13438 -1.58537,3.32107 -1.58537,3.32107l-3.29,-0.41149c0,0 1.49624,-1.92024 1.99014,-3.13513c0.68802,-1.69239 0.91858,-4.67272 0.68356,-6.45851z" fill="#000000" stroke="none" stroke-width="0" stroke-linecap="butt"/><g fill="#2f429d" stroke-linecap="butt"><path d="M267.17773,222.51774c-1.10742,-8.41476 2.49898,-15.82904 8.05513,-16.56026c5.55615,-0.73122 10.95806,5.49752 12.06549,13.91227c1.10743,8.41475 -2.49898,15.82905 -8.05513,16.56027c-5.55615,0.73122 -10.95805,-5.49752 -12.06548,-13.91227z" stroke="#000000" stroke-width="3"/><path d="M278.76162,213.3544l-3.96368,-6.44972c0,0 3.71566,0.88758 5.01528,1.82254c2.6952,2.00012 3.84758,5.06308 3.84758,5.06308z" stroke="none" stroke-width="0"/><path d="M281.21497,219.85456l-0.98616,-2.98507c0,0 1.92184,-0.46945 2.61311,-0.51544c0.80942,-0.05385 2.29793,0.28039 2.29793,0.28039l0.58348,3.66509z" stroke="none" stroke-width="0"/></g><g><path d="M263.45399,241.57971c-11.60833,1.52774 -22.33552,-7.23908 -23.86324,-18.84743c-1.52771,-11.60834 5.61106,-20.91091 17.21941,-22.43863c11.60833,-1.52772 21.18235,9.20637 22.71007,20.81472c1.52773,11.60833 -4.45789,18.94362 -16.06624,20.47134z" fill="#2f429d" stroke="#000000" stroke-width="3" stroke-linecap="butt"/><path d="M240.69375,218.58231c0,0 2.72658,-15.7322 12.88298,-17.06884c5.75939,-0.75799 12.09779,1.26036 16.92755,4.18408c3.44095,2.08301 6.15978,5.60331 6.69979,9.70659c1.10999,8.43423 -2.25115,11.92796 -12.40755,13.2646c-5.07204,0.66751 -11.69236,-1.48221 -16.33338,-4.5476c-4.65232,-3.07284 -7.76942,-5.53883 -7.76942,-5.53883z" fill="#2f429d" stroke="none" stroke-width="0" stroke-linecap="butt"/><path d="M257.02256,200.92435c0,0 8.71864,4.68193 10.96429,18.04581c2.26404,13.4734 -4.00672,20.56247 -4.00672,20.56247" fill="none" stroke="#000000" stroke-width="1.6" stroke-linecap="round"/><path d="M266.56395,202.13155c0,0 5.48314,7.28552 7.8868,15.62418c3.46398,12.01713 0.08697,17.33813 0.08697,17.33813" fill="none" stroke="#000000" stroke-width="1.6" stroke-linecap="round"/><path d="M248.27309,203.95234c0,0 7.5738,5.20432 10.57513,18.45466c2.88673,12.74444 -0.60808,17.17735 -0.60808,17.17735" fill="none" stroke="#000000" stroke-width="1.6" stroke-linecap="round"/><path d="M255.5734,239.81806c0,0 -5.58905,-7.38149 -8.15854,-13.66582c-3.3844,-8.2774 -4.45995,-17.16056 -4.45995,-17.16056" fill="none" stroke="#000000" stroke-width="1.6" stroke-linecap="round"/><path d="M278.58764,225.76473c0,0 -5.82611,5.54171 -17.99342,7.64572c-11.35417,1.96341 -17.16851,-3.0182 -17.16851,-3.0182" fill="none" stroke="#000000" stroke-width="1.6" stroke-linecap="round"/><path d="M242.28797,226.20256c0,0 5.84811,-0.37848 12.09688,-1.77072c5.49522,-1.22434 11.24664,-3.43827 14.34463,-4.02572c3.67958,-0.69773 9.946,-1.10343 9.946,-1.10343" fill="none" stroke="#000000" stroke-width="1.6" stroke-linecap="round"/><path d="M240.55243,221.03602c0,0 8.20665,-7.19547 16.14484,-8.4684c12.45931,-1.99792 21.0497,1.46231 21.0497,1.46231" fill="none" stroke="#000000" stroke-width="1.6" stroke-linecap="round"/><path d="M240.59476,214.22812c0,0 5.74729,-5.52471 13.46411,-7.87055c11.11255,-3.37809 17.58686,-1.25905 17.58686,-1.25905" fill="none" stroke="#000000" stroke-width="1.6" stroke-linecap="round"/><path d="M253.33356,205.86655c-0.95506,0.12569 -1.81758,-0.44341 -1.92652,-1.27112c-0.10893,-0.82771 0.57699,-1.6006 1.53204,-1.72629c0.95506,-0.12569 1.81758,0.44342 1.92652,1.27113c0.10893,0.82771 -0.57699,1.60059 -1.53204,1.72628z" fill="#2f429d" stroke="none" stroke-width="0" stroke-linecap="butt"/><path d="M247.87878,207.63995c-0.47752,0.06284 -0.91558,-0.27333 -0.97842,-0.75085c-0.06284,-0.47752 0.27333,-0.91558 0.75085,-0.97842c0.47752,-0.06284 0.91558,0.27333 0.97842,0.75085c0.06284,0.47752 -0.27333,0.91558 -0.75085,0.97842z" fill="#2f429d" stroke="none" stroke-width="0" stroke-linecap="butt"/></g></g><path d="M107.43868,310.75444v-258.66667h258.66667v258.66667z" data-paper-data="{&quot;index&quot;:null}" fill="none" stroke="none" stroke-width="0" stroke-linecap="butt"/></g></g></svg>