<svg version="1.1" xmlns="http://www.w3.org/2000/svg" xmlns:xlink="http://www.w3.org/1999/xlink" width="306.30631" height="274.77477" viewBox="0,0,306.30631,274.77477"><g transform="translate(-86.84685,-42.61262)"><g data-paper-data="{&quot;isPaintingLayer&quot;:true}" fill-rule="nonzero" stroke-linecap="butt" stroke-linejoin="miter" stroke-miterlimit="10" stroke-dasharray="" stroke-dashoffset="0" style="mix-blend-mode: normal"><path d="M86.84686,317.38739v-274.77477h306.30631v274.77477z" data-paper-data="{&quot;index&quot;:null}" fill="none" stroke="none" stroke-width="0"/><text transform="translate(271.55609,110.72264) rotate(-180) scale(0.1602,-0.1602)" font-size="40" xml:space="preserve" data-paper-data="{&quot;index&quot;:null}" fill="#000000" fill-rule="nonzero" stroke="none" stroke-width="1" stroke-linecap="butt" stroke-linejoin="miter" stroke-miterlimit="10" stroke-dasharray="" stroke-dashoffset="0" font-family="Sans Serif" font-weight="normal" text-anchor="start" style="mix-blend-mode: normal"><tspan x="0" dy="0">AwezomeXD</tspan><tspan x="0" dy="46.150000000000006px"> </tspan><tspan x="0" dy="46.150000000000006px">MeIzAwezomeDede</tspan></text><g data-paper-data="{&quot;index&quot;:null}"><g><g><g><path d="M201.82808,130.91256c0,0 5.63246,-16.12666 31.03451,-24.13166c11.988,-3.77781 34.32261,-11.84967 34.32261,-11.84967c0,0 5.81477,1.80986 7.72092,1.28318c2.38002,-0.65763 4.04003,-4.56811 4.04003,-4.56811c0,0 1.46522,3.89839 1.9838,7.21809c1.95328,12.50415 -7.74659,14.58415 -7.74659,14.58415c0,0 4.9987,4.79119 6.0361,8.96409c1.09047,4.38649 -1.99097,7.53003 -1.99097,7.53003c0,0 3.15056,2.9217 4.03948,6.40598c0.58682,2.3002 0.89965,6.21807 1.06081,8.66791c0.27504,4.18064 8.3637,6.61137 8.3637,6.61137c0,0 -3.22215,4.02344 -5.83199,5.11207c-2.65641,1.10805 -9.4692,-0.52099 -9.4692,-0.52099c0,0 -2.38737,3.14102 -2.28186,6.00686c0.14544,3.95059 4.18971,8.26988 3.11433,8.66826c-2.76668,1.02493 -2.99523,2.71465 -2.99523,2.71465c0,0 2.46164,9.90884 0.72096,10.48271c-2.17127,0.71579 -5.57453,-2.57627 -8.20331,-2.44665c-2.41955,0.11932 -6.10592,-5.63565 -6.10592,-5.63565c0,0 -0.54051,7.06565 -3.1458,8.48273c-2.52819,1.37516 -3.06907,6.75455 -4.1846,7.11544c-4.06647,1.31554 -11.47095,-10.38469 -11.47095,-10.38469c0,0 -10.15661,10.77581 -13.42386,8.88905c-3.85615,-2.22685 -8.10691,-17.56785 -8.10691,-17.56785c0,0 -6.34418,-3.38256 -7.34349,-6.06308c-2.24427,-6.01996 -0.16325,-11.59695 -0.16325,-11.59695c0,0 -3.07686,0.98806 -4.3887,2.45087c-1.39436,1.55484 -3.74508,6.6189 -3.74508,6.6189c0,0 -2.3604,-5.23013 -2.47059,-7.95271c-0.11587,-2.8631 1.79157,-8.82556 1.79157,-8.82556c0,0 -5.35,-2.54173 -8.25704,-7.26829c-1.55804,-2.5332 -1.91999,-8.59813 -1.91999,-8.59813c0,0 4.94576,2.97898 6.78967,3.17367c1.43035,0.15104 2.22688,-3.56997 2.22688,-3.56997z" fill="#6d0f0a" stroke="#000000" stroke-width="2"/><path d="M197.93132,124.85277c0,0 -4.91994,-6.87066 -5.14548,-17.117c-0.1221,-5.54716 2.90016,-13.20061 4.61921,-18.40681c2.4362,-7.37798 10.06698,-12.3042 16.95136,-14.47369c9.05,-2.85195 17.60349,4.83004 17.60349,4.83004c0,0 8.5604,-6.2773 16.02293,-6.36112c7.20942,-0.08098 13.84861,6.49102 15.63452,8.08691c2.72075,2.43126 7.70675,15.47897 7.70675,15.47897c0,0 -21.3395,27.66995 -35.68336,32.19015c-15.32358,4.82896 -29.67501,-9.20255 -34.58574,-5.07644c-1.7279,1.45184 -3.12367,0.849 -3.12367,0.849z" fill="#6d0f0a" stroke="#000000" stroke-width="2"/><path d="M196.41123,94.43967c0,0 1.355,-3.54303 2.12767,-5.13001c0.73717,-1.51404 2.40684,-4.18341 2.40684,-4.18341c0,0 9.45149,4.06406 14.03655,4.42802c4.80476,0.3814 11.80704,-3.32782 11.80704,-3.32782c0,0 0.57071,2.24923 1.02986,3.11103c0.48544,0.91115 1.35533,2.35884 1.35533,2.35884c0,0 0.7759,-2.08031 0.9173,-2.92106c0.15273,-0.90807 0.32554,-2.78573 0.32554,-2.78573c0,0 2.52501,3.27519 3.61145,4.46514c0.88968,0.97447 2.43561,2.15809 2.43561,2.15809c0,0 -0.54475,-2.06304 -0.90773,-3.11456c-0.38432,-1.11329 -1.33782,-3.39042 -1.33782,-3.39042c0,0 10.26154,2.07264 16.39198,2.29938c0.12308,0.00455 4.5894,-1.15329 4.93202,-1.19281c7.36682,-0.84979 2.78458,-9.34484 2.78458,-9.34484c0,0 3.53992,2.6993 5.33193,5.40434c1.81753,2.74356 5.49777,10.94308 5.49777,10.94308c0,0 -5.91139,-1.78554 -10.91306,-1.07168c-0.88751,0.12668 -10.40842,2.02668 -10.40842,2.02668c0,0 -1.90249,-1.74816 -2.86681,-2.43685c-0.94495,-0.67486 -2.86213,-1.65463 -2.86213,-1.65463c0,0 -0.7151,2.10003 -1.01049,3.36018c-0.3549,1.51393 -0.9733,5.1025 -0.9733,5.1025c0,0 -1.31303,-1.60084 -2.18683,-2.41544c-0.97209,-0.90625 -3.38225,-2.77649 -3.38225,-2.77649c0,0 -1.16701,0.76536 -1.74965,1.4106c-0.80885,0.89574 -2.65151,3.46335 -2.65151,3.46335c0,0 -1.44558,-2.60017 -2.22792,-3.72159c-0.67687,-0.97024 -2.19571,-2.61935 -2.19571,-2.61935c0,0 -1.31266,1.50454 -1.96721,2.44927c-0.81681,1.17892 -2.55555,4.07847 -2.55555,4.07847c0,0 -8.94477,-5.95291 -13.20569,-6.80737c-3.9857,-0.79929 -11.58935,1.83511 -11.58935,1.83511z" fill="#c42d06" stroke="none" stroke-width="0"/></g><path d="M222.66517,135.4115c0,0 -19.29885,-1.83317 -19.96535,-3.13647c-0.11562,-0.22609 0.62711,-9.213 0.20615,-10.01539c-0.76892,-1.46564 -4.80897,0.62348 -4.80897,0.62348c0,0 60.3798,-22.81673 69.93255,-25.9826c2.43364,-0.80654 5.54091,0.97527 5.54091,0.97527l-7.09768,21.28408z" fill="#6d0f0a" stroke="none" stroke-width="NaN"/></g><path d="M229.31489,74.09324c0.02191,-0.30599 0.41114,-1.60182 0.57417,-1.90473c1.24928,-2.32115 6.03358,-3.66137 6.03358,-3.66137c0,0 -2.0185,5.09861 -2.66413,6.83c-0.57546,1.54323 0.18774,5.29784 0.18774,5.29784c0,0 -4.54708,-0.75453 -4.13136,-6.56174z" fill="#6d0f0a" stroke="#000000" stroke-width="1.5"/><path d="M225.87916,71.14592c0,0 1.54384,0.72705 2.33937,2.33151c0.57637,0.75775 1.43789,3.51136 1.43789,3.51136l-2.06891,-0.67279z" fill="#000000" stroke="none" stroke-width="0"/></g><path d="M232.30402,79.39151l3.68862,-0.80437c0,0 -1.89424,4.8749 -2.36597,5.14538c-0.66041,0.37869 -4.29297,-4.29474 -4.29297,-4.29474z" fill="#6d0f0a" stroke="none" stroke-width="0"/></g><g data-paper-data="{&quot;index&quot;:null}"><text transform="translate(294.68339,229.0029) rotate(-180) scale(0.27921,-0.27921)" font-size="40" xml:space="preserve" fill="#000000" fill-rule="nonzero" stroke="none" stroke-width="1" stroke-linecap="butt" stroke-linejoin="miter" stroke-miterlimit="10" stroke-dasharray="" stroke-dashoffset="0" font-family="Sans Serif" font-weight="normal" text-anchor="start" style="mix-blend-mode: normal"><tspan x="0" dy="0">AwezomeXD</tspan><tspan x="0" dy="46.150000000000006px"> </tspan><tspan x="0" dy="46.150000000000006px">MeIzAwezomeDede</tspan></text><g data-paper-data="{&quot;index&quot;:null}"><g><path d="M304.61433,280.72711c-0.97394,-0.3343 -2.81981,-1.05375 -2.81981,-1.05375l2.00112,-62.99775c0,0 3.12264,-3.42551 4.77674,-5.10754c1.78782,-1.81801 6.83093,-5.9246 6.83093,-5.9246c0,0 5.94054,0.17965 11.08569,1.75457c7.39586,2.26385 29.04162,10.52827 29.04162,10.52827c0,0 -0.29139,23.00613 -1.11993,33.98866c-0.74728,9.90532 -3.63272,29.00908 -3.63272,29.00908c0,0 -14.3168,1.48011 -21.61682,1.59314c-7.15813,0.11083 -21.76596,-0.92143 -21.76596,-0.92143c0,0 -1.89659,-0.56514 -2.78087,-0.86866z" fill="#434253" stroke="#000000" stroke-width="2.5"/><path d="M306.04174,281.58894c0,0 3.19421,-16.34268 5.26935,-30.13714c1.48339,-9.86081 2.04443,-18.33187 2.06476,-19.00203c0.15509,-5.11269 -0.3723,-9.50368 -0.00091,-14.70459c0.49814,-6.97594 1.18056,-11.43244 1.18056,-11.43244l2.10035,-1.22928c0,0 -1.17975,18.14658 -2.93073,35.27697c-0.73182,7.15966 -2.77258,22.22022 -3.75528,31.64788c-0.10799,1.03599 0.50491,2.39047 0.4064,3.33489c-0.55015,5.27458 -0.93311,6.24975 -0.93311,6.24975l-3.40139,-0.00403z" fill="#000000" stroke="none" stroke-width="0"/></g><g stroke="#000000" stroke-width="1.5"><path d="M345.29834,263.35314c0.94113,9.66742 -4.93088,16.17699 -12.88074,16.95092c-7.94986,0.77393 -14.77082,-5.25083 -14.91119,-14.96294c-0.15638,-10.82018 5.8426,-16.14324 12.54261,-16.73861c6.71115,-0.59636 14.44659,6.50489 15.24932,14.75063z" fill="#2c262f"/><path d="M323.67439,268.45716c-0.26544,-2.72671 1.31874,-5.06632 3.56101,-5.2846c2.24227,-0.21828 3.76096,1.25807 4.0264,3.98478c0.26545,2.72671 -1.3891,5.14677 -3.63137,5.36505c-2.24227,0.21828 -3.69059,-1.33852 -3.95603,-4.06523z" data-paper-data="{&quot;index&quot;:null}" fill="#1b171c"/></g><g stroke="#000000" stroke-width="1.5"><path d="M334.90074,214.22598c6.72176,-0.46163 14.18059,7.06601 14.65957,15.33688c0.56156,9.69688 -5.56103,15.97134 -13.53511,16.43313c-7.97408,0.46179 -14.55372,-5.82563 -14.31338,-15.53578c0.26776,-10.81801 6.4647,-15.77245 13.18893,-16.23424z" fill="#2c262f"/><path d="M327.75298,233.81558c-0.15839,-2.73501 1.51626,-5.01074 3.76536,-5.14099c2.2491,-0.13025 3.70876,1.40448 3.86715,4.1395c0.15839,2.73502 -1.58973,5.08838 -3.83883,5.21863c-2.2491,0.13025 -3.6353,-1.48212 -3.79369,-4.21714z" data-paper-data="{&quot;index&quot;:null}" fill="#1b171c"/></g></g><g><g><path d="M178.20552,279.80011c0,0 -1.84588,0.71945 -2.81982,1.05375c-0.88428,0.30352 -2.78086,0.86866 -2.78086,0.86866c0,0 -14.60784,1.03226 -21.76596,0.92143c-7.30001,-0.11302 -21.61681,-1.59314 -21.61681,-1.59314c0,0 -2.88544,-19.10377 -3.63272,-29.00909c-0.82854,-10.98252 -1.11993,-33.98866 -1.11993,-33.98866c0,0 21.64575,-8.26442 29.04162,-10.52827c5.14515,-1.57491 11.08569,-1.75457 11.08569,-1.75457c0,0 5.04312,4.1066 6.83094,5.9246c1.6541,1.68203 4.77674,5.10754 4.77674,5.10754l2.00112,62.99775z" fill="#434253" stroke="#000000" stroke-width="2.5"/><path d="M173.95829,281.71568l-3.40139,0.00403c0,0 -0.38295,-0.97517 -0.93311,-6.24976c-0.0985,-0.94441 0.51439,-2.2989 0.40641,-3.33488c-0.98271,-9.42766 -3.02346,-24.48823 -3.75529,-31.64789c-1.75097,-17.13039 -2.93073,-35.27697 -2.93073,-35.27697l2.10035,1.22928c0,0 0.68243,4.4565 1.18057,11.43244c0.37139,5.20091 -0.156,9.59191 -0.00092,14.70459c0.02033,0.67016 0.58138,9.14123 2.06477,19.00203c2.07514,13.79446 5.26935,30.13713 5.26935,30.13713z" fill="#000000" stroke="none" stroke-width="0"/></g><g stroke="#000000" stroke-width="1.5"><path d="M134.7017,263.47987c0.80273,-8.24574 8.53818,-15.34698 15.24933,-14.75062c6.70001,0.59537 12.69899,5.91843 12.54261,16.73861c-0.14037,9.71211 -6.96134,15.73687 -14.9112,14.96294c-7.94986,-0.77392 -13.82187,-7.2835 -12.88074,-16.95092z" fill="#2c262f"/><path d="M152.76464,263.29933c2.24227,0.21828 3.82645,2.55788 3.56101,5.28459c-0.26545,2.72671 -1.71376,4.28351 -3.95603,4.06523c-2.24227,-0.21829 -3.89681,-2.63834 -3.63137,-5.36505c0.26544,-2.72671 1.78413,-4.20306 4.0264,-3.98478z" data-paper-data="{&quot;index&quot;:null}" fill="#1b171c"/></g><g stroke="#000000" stroke-width="1.5"><path d="M130.43974,229.68961c0.47898,-8.27087 7.9378,-15.79851 14.65956,-15.33689c6.72423,0.46179 12.92117,5.41624 13.18893,16.23424c0.24034,9.71016 -6.33929,15.99758 -14.31338,15.53579c-7.97409,-0.46179 -14.09668,-6.73625 -13.53512,-16.43313z" fill="#2c262f"/><path d="M152.24709,233.94233c-0.15839,2.73501 -1.54458,4.34738 -3.79368,4.21713c-2.2491,-0.13025 -3.99721,-2.48361 -3.83882,-5.21863c0.15839,-2.73501 1.61804,-4.26975 3.86714,-4.1395c2.2491,0.13025 3.92375,2.40598 3.76536,5.141z" data-paper-data="{&quot;index&quot;:null}" fill="#1b171c"/></g></g><g stroke="#000000"><g fill="#434253"><path d="M302.93639,282.15582c0,0 -39.39406,0.31655 -59.64769,0.31655c-21.72904,0 -66.6118,-0.31655 -66.6118,-0.31655c0,0 -2.38216,-40.33861 -2.16309,-60.75635c0.20152,-18.78125 2.16309,-54.08575 2.16309,-54.08575c0,0 42.82931,-1.2662 64.39595,-1.2662c21.14461,0 59.33114,1.58275 59.33114,1.58275c0,0 4.66352,44.84767 4.63123,67.07726c-0.03994,25.54257 -2.09882,47.44828 -2.09882,47.44828z" stroke-width="2.5"/><path d="M182.62639,273.74783c1.29409,0 2.34316,0.94416 2.34316,2.10884c0,1.16468 -1.04906,2.10884 -2.34316,2.10884c-1.29409,0 -2.34316,-0.94416 -2.34316,-2.10884c0,-1.16468 1.04906,-2.10884 2.34316,-2.10884z" stroke-width="2"/><path d="M296.08665,273.11069c1.29409,0 2.34316,0.94416 2.34316,2.10884c0,1.16468 -1.04907,2.10884 -2.34316,2.10884c-1.29409,0 -2.34316,-0.94416 -2.34316,-2.10884c0,-1.16468 1.04907,-2.10884 2.34316,-2.10884z" stroke-width="2"/><path d="M291.83153,175.44762c-0.48529,-1.12251 0.08425,-2.44878 1.27209,-2.9623c1.18785,-0.51352 2.54417,-0.01985 3.02946,1.10266c0.48528,1.12251 -0.08426,2.44879 -1.2721,2.96231c-1.18785,0.51352 -2.54417,0.01984 -3.02946,-1.10267z" stroke-width="2"/><path d="M180.91758,172.05908c1.18784,-0.51352 2.54418,-0.01985 3.02946,1.10266c0.48528,1.12251 -0.08426,2.44879 -1.2721,2.96231c-1.18784,0.51352 -2.54417,0.01984 -3.02945,-1.10267c-0.48528,-1.12251 0.08425,-2.44878 1.27209,-2.9623z" stroke-width="2"/></g><g><path d="M187.36313,208.89734c-2.36044,-6.40232 -2.14847,-24.22034 1.17777,-27.70117c8.80798,-9.21732 26.01104,-9.48636 48.15555,-9.48636c20.7312,0 40.80646,1.21551 50.19223,9.11804c4.42593,3.72649 4.09175,24.72433 0.61728,30.38921c-5.21713,8.50616 -20.51325,11.67052 -51.0204,11.67052c-30.50715,0 -45.72795,-4.44989 -49.12243,-13.65691z" fill="#434253" stroke-width="2"/><path d="M191.46433,207.317c-2.1792,-5.67588 -1.98352,-21.47217 1.08734,-24.55804c8.13172,-8.17147 24.01396,-7.77733 44.45825,-7.77733c19.1395,0 37.67343,0.44494 46.33857,7.45081c4.08612,3.30367 3.77759,21.91897 0.56988,26.94108c-4.81657,7.54101 -18.93828,9.50278 -47.10314,9.50278c-28.16487,0 -42.21704,-3.39695 -45.3509,-11.55929z" fill="#2c262f" stroke-width="1.5"/><path d="M216.73027,204.30872c-0.84859,-2.4182 -0.77238,-9.14817 0.42343,-10.4629c3.16654,-3.48144 9.35117,-4.21571 17.31229,-4.21571c7.45303,0 14.67023,1.09175 18.04449,4.07659c1.59116,1.40752 1.47102,9.33853 0.22192,11.47819c-1.8756,3.21283 -7.37467,4.61891 -18.34223,4.61891c-10.96755,0 -16.43956,-1.85087 -17.65989,-5.32841z" fill="#1b171c" stroke-width="1.5"/></g><g><path d="M187.36313,264.28153c-2.36044,-6.40232 -2.14847,-24.22034 1.17777,-27.70116c8.80798,-9.21732 26.01104,-9.48637 48.15555,-9.48637c20.7312,0 40.80646,1.21551 50.19223,9.11804c4.42593,3.7265 4.09175,24.72433 0.61728,30.38921c-5.21713,8.50616 -20.51325,11.67052 -51.0204,11.67052c-30.50715,0 -45.72795,-4.4499 -49.12243,-13.65692z" fill="#434253" stroke-width="2"/><path d="M191.46433,262.70117c-2.1792,-5.67588 -1.98352,-21.47217 1.08734,-24.55804c8.13172,-8.17147 24.01396,-7.77734 44.45825,-7.77734c19.1395,0 37.67343,0.44494 46.33857,7.45081c4.08612,3.30367 3.77759,21.91898 0.56988,26.94109c-4.81657,7.54101 -18.93828,9.50278 -47.10314,9.50278c-28.16487,0 -42.21704,-3.39695 -45.3509,-11.55929z" fill="#2c262f" stroke-width="1.5"/><path d="M216.73027,259.69291c-0.84859,-2.41819 -0.77238,-9.14816 0.42343,-10.46289c3.16654,-3.48144 9.35117,-4.21571 17.31229,-4.21571c7.45303,0 14.67023,1.09175 18.04449,4.07659c1.59116,1.40752 1.47102,9.33852 0.22192,11.47818c-1.8756,3.21283 -7.37467,4.61891 -18.34223,4.61891c-10.96755,0 -16.43956,-1.85087 -17.65989,-5.32842z" fill="#1b171c" stroke-width="1.5"/></g></g></g><g data-paper-data="{&quot;index&quot;:null}"><g><path d="M253.7115,159.43961c0,-4.62307 -8.07436,-15.53073 -3.62594,-15.53073c1.16275,0 4.2106,2.33459 7.13044,4.85516c1.37932,1.19071 3.43557,2.34172 4.35519,3.77227c0.84517,1.31474 0.73932,2.94412 0.84086,3.34049c0.13449,0.52495 1.00755,2.14097 1.00755,2.14097c0,0 1.7524,1.97795 5.00201,3.90074c2.18502,1.29287 4.03084,0.66077 6.28165,2.01002c1.43628,0.86098 4.88888,2.7213 3.68255,4.97488c-0.17259,0.32243 -4.87046,0.24975 -4.87046,0.24975c0,0 -1.31877,1.6276 -2.49506,2.04842c-3.06556,1.09671 -5.04855,-1.08587 -5.8184,-1.03821c-2.47583,0.15328 -6.39608,-0.10553 -6.39608,-0.10553c0,0 -0.40806,-0.10557 -1.60726,-0.80571c-4.98489,-2.91039 -3.48706,-7.69547 -3.48706,-9.81253z" fill="#ffd5d5" stroke="#000000" stroke-width="1.5"/><path d="M255.01018,166.12691c0,0 6.93264,1.48578 9.46341,0.65935c0.09992,-0.03263 1.03921,-0.82199 2.33463,-1.24686c1.08667,-0.35642 2.52238,-0.36275 2.96542,-0.36185c1.12155,0.00229 1.53085,1.90079 2.4908,1.90079c3.87002,0 4.76554,-0.51035 4.76554,-0.51035c0,0 0.52717,0.54917 0.70699,1.15381c0.12829,0.43135 0.02544,0.94264 -0.32425,1.06756c-1.33326,0.47629 -4.55757,0.20759 -4.55757,0.20759c0,0 -1.65754,1.7083 -2.42491,1.73805c-5.11796,0.19843 -4.15642,-1.18226 -5.05786,-1.18226c-3.47763,0 -5.51698,-0.08543 -6.70563,-0.35945c-0.16707,-0.03852 -1.25216,-0.5453 -1.98561,-1.13084c-1.05977,-0.84606 -1.67095,-1.93553 -1.67095,-1.93553z" fill="#fb95a9" stroke="none" stroke-width="0"/><path d="M265.23399,166.10441c0,0 1.4859,-1.17823 3.67221,-1.43765c0.68868,-0.08172 2.72895,-0.06303 3.56655,0.94108c1.10034,1.3191 0.92871,3.72747 0.92871,3.72747l-1.98838,1.52047c0,0 0.77451,-4.96196 -1.69511,-4.96196c-1.98727,0 -4.48399,0.21059 -4.48399,0.21059z" fill="#000000" stroke="none" stroke-width="0"/><path d="M264.38443,158.87902l-0.13285,3.79055l-2.45789,-6.19124z" fill="#000000" stroke="none" stroke-width="0"/></g><path d="M246.68338,140.84214c0,-3.1402 -3.049,-10.10814 -0.66428,-10.10814c2.38472,0 7.65319,-0.70437 7.65319,2.43583c0,1.6451 2.86622,8.01008 2.62574,11.02958c-0.21855,2.74415 0.82086,4.53972 -0.31452,4.53972c-2.38472,0 -9.30012,-4.75679 -9.30012,-7.89699z" fill="#fb95a9" stroke="#000000" stroke-width="2"/></g><g data-paper-data="{&quot;index&quot;:null}"><path d="M229.68006,130.87585c2.41131,-2.95149 10.53162,-0.25987 12.59919,3.86227c0.26008,0.51854 1.70637,-0.66733 5.40284,0.98163c0.86997,0.38809 5.3323,2.85511 7.98427,6.04894c1.26983,1.52929 2.1246,3.99593 1.97118,5.03194c-0.22905,2.80784 -2.67033,5.18657 -4.85989,7.14774c-2.87249,2.57284 1.75248,7.33006 -2.40533,7.33006c-3.03121,0 -16.54137,0.60747 -18.69314,-0.7284c-1.28409,-0.79719 -0.53199,-7.61244 -0.88049,-9.01861c-0.48674,-1.96396 -4.99822,-4.40189 -4.99822,-6.61256c0,-2.58633 2.29137,-12.099 3.87959,-14.04301z" fill="#ee1536" stroke="#000000" stroke-width="2"/><path d="M245.79205,151.06496c0,-3.14019 3.56399,-6.94934 7.26523,-7.10728c3.22449,-0.13759 3.97211,2.15654 3.0535,5.15937c-1.10558,3.61402 -4.40634,5.42259 -7.63376,5.42259c-0.06272,0 2.08362,-1.58996 2.84464,-0.28992c1.01358,1.73146 0.66979,6.51156 0.03616,6.86773c-2.98614,1.67855 -13.402,-0.74155 -16.31172,-0.67209c-0.60085,0.01435 -2.90823,0.59035 -3.45604,-1.26733c-0.44915,-1.5231 0.38106,-5.65028 0.34354,-5.65555c-0.60286,-0.08461 -1.36799,-4.06688 -1.36799,-4.06688c0,0 -2.86476,-2.27685 -2.9505,-2.85725c-0.15338,-1.03828 2.10836,-2.8435 2.10836,-2.8435c0,0 1.25189,1.00644 1.97555,1.57762c0.66583,0.52553 1.57561,2.98741 1.57561,2.98741c0,0 4.12841,-5.5717 8.29185,-4.21031c5.58397,1.82588 4.22558,7.21129 4.22558,6.95539z" fill="#9a1652" stroke="none" stroke-width="0"/><path d="M232.30239,160.05494c0.86132,-1.55025 8.52088,-5.58592 9.70316,-7.17085c2.60911,-3.4977 4.57621,-6.08348 4.57621,-6.08348c0,0 0.91108,5.32297 -0.66029,9.58239c-1.16307,3.15265 6.61433,5.47453 5.8723,5.47453c-1.74455,0 -20.27813,-0.38656 -19.49138,-1.80259z" fill="#000000" stroke="none" stroke-width="0"/></g><g data-paper-data="{&quot;index&quot;:null}"><path d="M220.82039,137.45034c0.8478,-4.14085 1.05969,-6.42267 6.00865,-6.09581c3.43927,0.22716 5.83687,5.73249 5.6375,9.96913c-0.21476,4.52163 -3.06549,5.65486 -5.22987,10.53241c-0.32418,0.45941 -0.41178,3.38171 -0.38937,5.48931c0.00209,0.19637 -0.33717,0.64155 -0.76323,1.19886c-0.26544,0.34721 -0.56457,0.73794 -0.83585,1.13913c-0.58792,0.86949 -1.00834,1.82799 -1.00967,2.13136c-0.00063,0.14475 0.8938,0.60237 1.37429,-0.09778c0.59429,-0.86598 0.82022,-2.95493 1.09309,-3.06424c0.60322,-0.24166 -0.26637,2.60026 -0.44615,3.21905c-0.2653,0.91315 -0.4921,0.66222 -0.44475,1.82724c0.09045,2.22613 1.56896,3.47855 2.62602,4.72835c0.70741,0.83638 0.22384,1.81466 0.01145,1.9624c-0.37801,0.26293 -3.54371,-0.54963 -4.05789,-0.44182c-0.39765,0.08337 -1.34654,-0.41873 -3.49097,-0.28041c-0.82355,0.05311 -1.65645,0.78963 -2.63719,0.84893c-0.71638,0.04333 -1.3057,-0.16408 -1.95166,-0.32401c-0.22206,-0.05499 -1.02829,-0.55039 -1.25815,-0.54454c-0.34771,0.00886 -0.82528,0.50283 -1.23178,0.65734c-0.77623,0.29504 -1.60661,0.71437 -2.28854,0.71848c-3.18977,0.01924 -3.26689,-1.95321 -3.26689,-1.95321c0,0 -3.04432,0.06523 -4.03211,-0.43704c-0.75092,-0.38184 -1.55925,-1.0384 -1.38133,-2.31557c0.24894,-1.78689 1.10352,-2.41723 3.08465,-3.31488c2.98491,-1.35246 6.06524,-0.60025 9.46825,-4.05899c3.20388,-3.25635 4.43719,-15.90721 4.7865,-17.61337z" fill="#ffd5d5" stroke="#000000" stroke-width="1.5"/><path d="M208.06714,168.21333c0,0 -3.07229,0.00288 -3.71369,-0.29952c-0.71612,-0.33762 -0.72723,-1.63219 -0.72723,-1.63219c0,0 2.41577,-0.1142 3.38045,-0.2436c0.79242,-0.10629 2.33677,-0.57054 2.33677,-0.57054l-0.52435,2.94002c0,0 1.64547,0.73102 3.17917,0.8577c0.82685,0.0683 0.81717,-1.93904 3.46531,-1.93904c0.98114,0 3.17859,1.30824 4.02568,0.79721c2.1093,-1.2725 5.04158,-5.36843 5.04158,-5.36843c0,0 0.81464,0.24912 0.81464,0.64519c0,0.49924 3.67599,6.40357 3.15662,6.35213c-0.73361,-0.07266 -6.5234,-0.97537 -7.38145,-0.99626c-0.84998,-0.0207 -2.23775,0.97666 -3.09742,0.94459c-0.46569,-0.01736 -0.92766,-0.12958 -1.38038,-0.23592c-0.43517,-0.10222 -0.94769,-0.57256 -1.3608,-0.57442c-0.55722,-0.00251 -0.93268,0.43834 -1.3338,0.53975c-1.2246,0.30959 -1.88782,0.93698 -3.00328,0.86589c-1.46527,-0.09337 -2.87782,-2.08254 -2.87782,-2.08254z" fill="#fb95a9" stroke="none" stroke-width="0"/><path d="M207.81187,168.31171c0,0 1.25348,-3.24591 2.41663,-3.57721c0.61518,-0.17522 1.83386,-0.26084 2.78582,0.09324c0.96988,0.36074 1.90801,1.42448 1.90801,1.42448c0,0 -2.47695,-0.59431 -3.78841,-0.19612c-1.72244,0.52296 -1.74386,3.59542 -1.74386,3.59542z" fill="#000000" stroke="none" stroke-width="0"/><path d="M221.68194,167.86701l-0.94496,1.96113l-1.41743,-0.18677z" fill="#000000" stroke="none" stroke-width="0"/></g><g data-paper-data="{&quot;index&quot;:null}"><g><path d="M260.99677,113.80906c2.96278,0.13225 5.23218,3.2064 5.06881,6.86632c-0.16336,3.65992 -2.69761,6.51967 -5.6604,6.38742c-2.96278,-0.13224 -5.23217,-3.20639 -5.0688,-6.86631c0.16336,-3.65993 2.6976,-6.51968 5.66039,-6.38743z" fill="#fb95a9" stroke="#000000" stroke-width="2"/><path d="M240.68993,135.50336c-24.80728,-4.80682 -27.3625,-7.77412 -28.60347,-17.93332c-1.24097,-10.15921 13.46024,-10.49514 27.83319,-12.25083c14.37295,-1.7557 21.82285,-3.27698 23.06383,6.88223c0.20243,1.65726 -1.80149,11.68962 -1.80149,11.68962c0,0 7.68753,4.40797 6.70442,8.35851c-1.0758,4.26329 -17.81256,5.07207 -27.1965,3.25378z" fill="#ffd5d5" stroke="#000000" stroke-width="2"/><path d="M214.40484,110.49801c0,0 26.83126,-7.27341 32.98517,-8.02513c11.65998,-1.4243 14.15362,4.88841 14.73179,9.62168c0.25254,2.06738 -1.69803,10.40016 -1.69803,10.40016c0,0 -3.70686,-5.46006 -5.78034,-6.82638c-2.36169,-1.55623 -7.42898,-2.04111 -7.42898,-2.04111l-5.93359,6.74118l-6.43526,-7.56974c0,0 -3.09621,5.4273 -5.47146,7.58656c-2.53259,2.30229 -9.28235,5.82559 -9.28235,5.82559l-4.0073,-0.43641c0,0 -2.88764,-5.06947 -3.17298,-7.66468c-0.2741,-2.4928 1.49333,-7.61174 1.49333,-7.61174z" fill="#fb95a9" stroke="none" stroke-width="0"/><path d="M205.69102,120.79101c-0.38782,-3.17474 -0.55366,-3.85714 1.23018,-5.56011c1.43011,-1.36527 7.96721,2.69957 8.35502,5.87432c0.38782,3.17475 -0.21061,6.2842 -2.1732,6.52393c-1.96258,0.23973 -6.94758,-3.0363 -7.41199,-6.83815z" fill="#ffd5d5" stroke="#000000" stroke-width="2.5"/><path d="M213.10538,126.78024c-0.70042,0.08556 -3.40829,-1.06941 -4.61907,-2.64967c-0.75589,-0.98655 -1.224,-2.27394 -1.51033,-3.39287c-0.35114,-1.37218 0.61245,-2.11155 1.92921,-1.5277c2.20235,0.97652 5.175,2.52471 5.33387,3.82518c0.25384,2.07802 0.5403,3.54058 -1.13366,3.74506z" fill="#fb95a9" stroke="none" stroke-width="0"/><path d="M208.59671,118.52671c-0.07757,-0.63496 6.20086,5.60709 6.20086,5.60709l-0.72598,2.74057c0,0 -5.39731,-7.71271 -5.47487,-8.34767z" fill="#000000" stroke="none" stroke-width="0"/><path d="M212.17898,127.7565c-0.45289,-1.81312 1.09009,-3.45547 3.17125,-3.91274c2.08113,-0.45727 4.36612,-1.14042 5.35927,1.9147c0.17482,0.53779 1.22588,4.0692 -0.26567,5.86541c-0.23249,0.27998 -1.5724,1.35753 -2.97321,1.57442c-1.93453,0.29953 -3.1396,-0.11983 -3.1396,-0.11983c0,0 2.16396,-1.80871 1.94142,-1.95013c-0.70977,-0.45105 -3.71295,-1.84845 -4.09347,-3.37182z" fill="#6d0f0a" stroke="#000000" stroke-width="2"/><path d="M199.27475,126.67002c-7.31726,-3.74408 -9.92985,-7.70102 -9.92985,-7.70102c0,0 6.66491,-0.65475 8.827,-2.86618c2.17936,-2.22911 4.04457,-11.71002 4.04457,-11.71002c0,0 23.13353,-0.53558 32.87129,-1.72508c9.01704,-1.10144 16.93093,-2.04378 22.72844,-2.7266c6.30131,-0.74214 11.96768,1.74334 13.11446,6.5861c0.28379,1.19845 0.66507,2.81254 0.79868,4.18273c0.61073,6.26276 -1.39241,12.05233 -1.39241,12.05233c0,0 -5.60272,-7.29841 -8.31209,-10.45853c-3.35089,-3.90835 -8.77053,-7.28854 -8.77053,-7.28854c0,0 -0.66064,3.95174 -2.12769,6.55759c-1.51866,2.69748 -4.68757,2.76243 -4.68757,2.76243c0,0 -0.42794,-3.15817 -1.11971,-4.58126c-0.63678,-1.31 -1.81492,-3.77929 -1.80815,-2.60656c0.0068,1.17971 -0.36656,4.01082 -0.50875,5.40093c-0.36805,3.59787 -0.90147,4.11332 -0.90147,4.11332c0,0 -2.03766,-3.09255 -4.07807,-5.97653c-1.73489,-2.45215 -4.40268,-3.72839 -4.40268,-3.72839c0,0 -4.39598,4.82241 -6.94989,6.82336c-2.30707,1.80755 -7.32954,4.61482 -7.32954,4.61482c0,0 2.74365,7.94159 -1.28539,7.83018c-2.84758,-0.07873 -4.10527,-0.51153 -5.67726,-1.62068c-0.94241,-0.66495 -1.40304,-3.62984 -1.40304,-3.62984l2.11977,0.4001c0,0 -1.63481,-6.13123 -2.99335,-6.40138c-2.39205,-0.47567 -0.63617,-0.90369 -4.10439,-0.39229c-0.50481,0.07444 -1.6797,3.19613 -1.27226,6.00711c0.43744,3.01787 2.47929,5.73682 2.47929,5.73682c0,0 -4.35606,2.17347 -7.92939,0.34508z" fill="#6d0f0a" stroke="#000000" stroke-width="1.5"/><path d="M246.45034,104.31117c-0.9734,0.1189 -2.35935,-0.86421 -4.33751,-0.76508c-2.14315,0.10738 -4.8875,1.29855 -6.00592,1.47403c-16.15297,2.53452 -34.07726,5.76969 -34.07726,5.76969c0,0 0.48137,-2.65404 0.4149,-3.9254c-0.07102,-1.3583 -0.51473,-4.01915 -0.51473,-4.01915c0,0 22.16104,0.10502 35.22517,-1.49079c8.38282,-1.02399 17.17516,-2.44464 22.77886,-2.33434c5.93355,0.11678 8.87727,1.74294 8.87727,1.74294l1.6764,6.74892l-2.59407,-0.38167l-6.77145,-5.7181c0,0 -10.20658,2.35351 -14.67168,2.89894z" fill="#6d0f0a" stroke="none" stroke-width="0"/><path d="M239.0288,132.3254c-1.24186,-0.02184 -1.87506,-1.17117 -2.3841,-2.28792c-0.57427,-1.25988 -0.93699,-2.51376 -0.82765,-2.72962c0.16825,-0.33215 8.97713,1.10841 9.0399,1.4946c0.0599,0.36846 -1.17679,1.31017 -2.81656,2.22871c-0.9239,0.51753 -1.94091,1.31305 -3.01159,1.29422z" fill="#ef3d61" stroke="#000000" stroke-width="1.5"/><path d="M244.4745,120.68131c-0.23551,-1.92792 -0.04958,-5.2982 2.77004,-6.74496c0.50624,-0.25978 1.72031,-0.29537 3.08159,-0.00266c1.39528,0.30001 2.60029,0.93223 2.94867,1.08453c0.68824,0.30091 1.90705,-0.14722 1.90705,-0.14722c0,0 1.17862,-0.73071 1.83179,-1.28973c0.54835,-0.4693 1.76675,-2.34428 1.76675,-2.34428c0,0 0.08985,1.49953 -0.94157,3.20491c-0.42502,0.70275 -1.63742,1.98245 -1.63742,1.98245c0,0 1.03731,0.02213 2.1834,-0.30516c0.86088,-0.24583 2.92169,-1.73766 2.92169,-1.73766c0,0 -0.82537,1.78886 -1.44284,2.57595c-0.42638,0.5435 -1.53893,1.25914 -1.53893,1.25914l-0.12397,1.03338c0,0 -1.65642,-1.70005 -2.48395,-2.0374c-0.6691,-0.27276 -2.2484,0.05547 -2.2484,0.05547c0,0 0.60445,7.69309 -4.25596,8.15952c-3.7897,0.36369 -4.35013,-1.57149 -4.73793,-4.74624z" fill="#000000" stroke="none" stroke-width="0"/><path d="M224.63374,114.62162c0.84626,0.46518 2.21396,0.37726 2.21396,0.37726c0,0 -0.39538,-0.71784 -0.79149,-1.46606c-0.41312,-0.78037 -1.13351,-3.04398 -1.13351,-3.04398c0,0 1.40805,1.64631 2.1105,2.20024c0.67177,0.52974 2.2508,1.23748 2.2508,1.23748c0,0 2.56824,-0.36238 4.25985,-0.56901c4.42816,-0.54091 7.68421,2.24363 7.68421,2.24363c0,0 -2.48818,-0.3824 -3.35437,-0.48522c-0.61528,-0.07305 -1.33545,0.06577 -1.33545,0.06577c0,0 1.18215,8.42981 -5.13439,9.2721c-5.17358,0.68989 -4.58944,-6.46606 -4.83491,-6.8249c-0.17785,-0.25998 -1.16377,-1.03601 -1.16377,-1.03601c0,0 -1.5204,-0.72634 -2.05784,-1.35314c-0.58467,-0.68189 -1.33325,-2.69135 -1.33325,-2.69135c0,0 1.70015,1.56773 2.61966,2.07319z" fill="#000000" stroke="none" stroke-width="0"/></g><path d="M270.14246,105.55344c0,0 -0.65598,-2.6853 -1.08622,-4.02373c-0.41142,-1.27985 -1.44134,-3.83892 -1.44134,-3.83892c0,0 1.13946,0.57379 1.98419,2.83149c0.55209,1.47556 1.92076,5.31067 1.92076,5.31067z" fill="#000000" stroke="none" stroke-width="0"/></g><g data-paper-data="{&quot;index&quot;:null}"><path d="M255.19958,182.67555c-1.00101,-2.204 -1.48204,-4.3489 -0.72825,-4.96606c2.33239,-1.90961 13.28484,-2.98899 13.38878,-2.98899c6.31528,0 14.84633,4.70166 14.84633,7.42317c0,2.15815 -5.66177,5.08636 -11.867,4.87772c-9.17694,-0.30857 -12.61375,-4.42959 -12.80984,-4.64776c-0.77835,-0.86597 0.94691,1.54978 1.61014,2.51138c0.76014,1.10213 2.09503,1.87099 1.91005,2.94778c-0.21138,1.23048 -1.04517,0.91066 -1.93413,0.37576c-1.07219,-0.64516 -2.75079,-1.86638 -4.41608,-5.533z" fill="#ee1536" stroke="#000000" stroke-width="1.5"/><path d="M224.16344,165.33483c0,-3.59654 1.88208,-6.79388 5.00437,-9.12732c4.14737,-3.09953 10.28977,-4.77137 15.23297,-4.77137c5.31995,0 12.36793,-0.19935 14.37465,2.09274c0.5447,0.62216 0.11605,3.35746 0.47021,5.96384c0.20355,1.49801 1.01152,5.12835 2.06489,8.05201c0.76659,2.12772 1.6857,4.5633 2.81912,4.87357c4.6996,1.28652 11.33458,3.83886 9.65309,6.39177c-1.27777,1.93997 -8.71321,2.17386 -14.6326,0.37436c-5.32793,-1.61969 -9.13974,-5.17457 -11.08352,-5.65964c-3.29754,-0.8229 -10.29591,1.43415 -13.65474,0.96798c-2.18858,-0.30375 -4.10262,-1.02669 -5.53901,-1.79684c-3.55989,-1.90871 -4.7094,-5.13615 -4.7094,-7.3611z" fill="#ffd5d5" stroke="#000000" stroke-width="1.5"/><path d="M254.40497,161.63252c0,0 1.5473,-1.13661 2.20683,-1.84011c0.59795,-0.63781 1.58373,-2.20314 1.58373,-2.20314c0,0 0.47515,2.43192 0.69523,3.67533c0.19897,1.12418 0.56829,3.46354 0.56829,3.46354c0,0 -2.16472,-0.56777 -3.07746,-1.12683c-0.7315,-0.44803 -1.97661,-1.96878 -1.97661,-1.96878z" fill="#fb95a9" stroke="none" stroke-width="0"/><path d="M275.08882,178.59434c0.16969,-0.35395 1.67522,-0.13645 2.97302,0.48578c1.2978,0.62223 2.68613,2.36122 2.51643,2.71517c-0.1697,0.35394 -1.51728,-1.12707 -2.81508,-1.7493c-1.29779,-0.62223 -2.84406,-1.0977 -2.67436,-1.45165z" fill="#fc9ea5" stroke="none" stroke-width="0"/></g><g data-paper-data="{&quot;index&quot;:null}"><path d="M231.01662,186.66842c2.5441,-6.35721 7.6863,-8.12709 12.34285,-6.26357c4.65656,1.86351 6.54811,7.90162 4.004,14.25883c-2.5441,6.35722 -11.22418,11.88722 -14.69074,10.29339c-3.43224,-1.57805 -4.378,-11.60389 -1.83389,-17.9611z" fill="#ee1536" stroke="#000000" stroke-width="1.5"/><path d="M233.5181,183.89079c0,0 2.00422,-2.86118 4.30555,-3.50609c0.77193,-0.21631 4.08674,0.23689 6.56763,1.86017c1.68622,1.10331 2.8021,3.19439 3.19142,4.24588c0.67057,1.81111 0.10967,3.76134 0.10967,3.76134c0,0 -1.81828,1.66589 -5.43619,1.54424c-1.90251,-0.06397 -4.61734,-2.13774 -6.33064,-4.2466c-1.54479,-1.90145 -2.40744,-3.65892 -2.40744,-3.65892z" fill="#9a1652" stroke="none" stroke-width="0"/><path d="M237.96926,174.10227c0.55432,-7.08643 2.21505,-10.84502 10.62649,-10.5467c4.91806,0.17442 6.52345,5.86357 6.20118,8.26798c-1.07822,8.0444 -9.74893,15.13352 -9.74893,15.13352c0,0 1.38491,8.01261 -6.9327,9.02219c-4.06733,0.49369 -4.09452,-6.52097 -3.42123,-8.22854c1.22234,-3.10001 3.42075,-4.916 3.42075,-4.916c0,0 -0.3919,-5.5836 -0.14558,-8.73245z" fill="#ffd5d5" stroke="#000000" stroke-width="1.5"/><path d="M245.10261,175.45959c-0.98594,-0.64 -1.21165,-1.61216 -1.54278,-2.57662c-0.39958,-1.16379 -0.68288,-4.079 -0.68288,-4.079c0,0 1.88781,1.43735 2.95744,2.05164c1.0526,0.6045 3.57324,1.45269 3.57324,1.45269c0,0 -1.55297,2.41034 -2.26572,2.89984c-0.66241,0.45494 -1.05335,0.89143 -2.03929,0.25145z" fill="#fb95a9" stroke="none" stroke-width="0"/><path d="M235.86951,202.12272c-0.64171,-0.03296 1.51192,-1.05037 2.3367,-1.53259c0.91489,-0.5349 2.82616,-2.37563 2.86295,-2.00666c0.07441,0.74608 -1.44675,2.17702 -2.28268,2.66576c-0.90726,0.53045 -1.82762,0.92947 -2.91696,0.87351z" fill="#fc9ea5" stroke="none" stroke-width="0"/></g></g></g></svg>