<svg version="1.1" xmlns="http://www.w3.org/2000/svg" xmlns:xlink="http://www.w3.org/1999/xlink" width="234" height="234" viewBox="0,0,234,234"><g transform="translate(-123,-63)"><g data-paper-data="{&quot;isPaintingLayer&quot;:true}" fill-rule="nonzero" stroke-linejoin="miter" stroke-miterlimit="10" stroke-dasharray="" stroke-dashoffset="0" style="mix-blend-mode: normal"><path d="M123,297v-234h234v234z" data-paper-data="{&quot;index&quot;:null}" fill="none" stroke="none" stroke-width="0" stroke-linecap="butt"/><g><g><g data-paper-data="{&quot;origRot&quot;:0}" stroke="#000000" stroke-width="3" stroke-linecap="round"><path d="M282.52457,187.09878c1.354,1.97784 -5.50981,6.32938 -5.50981,6.32938c0,0 -17.8746,12.10677 -26.29559,17.86687c-3.84965,1.80649 -26.12851,-28.94349 -25.72072,-34.88204c0.18179,-2.64722 5.73863,-10.64383 7.53406,-10.46438c3.41745,0.34153 15.757,10.19104 15.757,10.19104l-2.79646,2.84849l7.9385,-6.62619c0,0 8.64655,-8.66214 13.14001,-11.08921c2.49211,-1.34607 15.95299,25.82604 15.95299,25.82604z" data-paper-data="{&quot;origPos&quot;:null}" fill="#582700"/><path d="M275.1796,192.79191l-15.68193,-25.05713" fill="none"/><path d="M256.53075,170.54679l15.88968,24.88556" data-paper-data="{&quot;origPos&quot;:null}" fill="none"/></g><path d="M275.37555,193.41817l-2.0305,1.69903l-16.18061,-25.51491l2.0305,-1.69903z" fill="#ffffff" stroke="none" stroke-width="0" stroke-linecap="butt"/><path d="M250.59175,211.59939l-7.98929,-6.75572l-13.41538,-19.23802l-3.28713,-7.8579l0.61313,-5.22068l5.18952,-4.8777l1.0379,-0.97554l14.29566,9.12183l-1.93426,2.14978l1.13238,1.58962l9.59279,-8.02116l16.60807,24.53076l-20.947,14.38048z" fill="#66c8ff" stroke="#000000" stroke-width="0.5" stroke-linecap="round"/></g><g fill="#fffc96" stroke="#000000" stroke-width="2" stroke-linecap="round"><path d="M250.54314,173.7768c0,0 1.08998,-4.96813 4.05651,-4.1959c4.74631,1.23555 -5.49223,37.83217 -10.48661,36.88818c-2.04059,-0.3857 -1.76937,-4.11954 -1.76937,-4.11954l1.90953,0.09518c0,0 3.24426,-6.2783 5.79918,-14.74068c2.51951,-8.34513 2.83356,-14.36207 2.83356,-14.36207z"/><path d="M241.81455,174.37689c0,0 -1.94167,-4.06002 0.33229,-4.66816c4.77337,-1.27661 20.3317,37.38372 15.6102,37.34828c-2.85943,-0.02145 -3.52392,-4.12782 -3.52392,-4.12782l1.40335,0.02182c0,0 -1.42007,-6.20855 -5.0659,-14.8893c-3.64582,-8.68076 -7.44313,-13.84936 -7.44313,-13.84936z" data-paper-data="{&quot;index&quot;:null}"/></g></g><g stroke="#000000" stroke-linecap="round"><path d="M227.10516,171.05449c0,0 -24.45545,9.3936 -26.36285,-8.94169c-0.70276,-6.75532 13.87691,-7.05806 13.87691,-7.05806z" data-paper-data="{&quot;origPos&quot;:null}" fill="#66c8ff" stroke-width="2"/><path d="M218.7508,160.08884c0,0 -14.3336,-0.04323 -14.21192,-0.69409c0.38586,-2.06363 10.90627,-2.89131 10.90627,-2.89131z" data-paper-data="{&quot;origPos&quot;:null}" fill="#0a0a0a" stroke-width="1"/></g><g data-paper-data="{&quot;origRot&quot;:0}" stroke="#000000" stroke-linecap="round"><path d="M237.71675,224.91147c0,0 -0.39169,-4.90966 0.98547,-5.00701c4.06376,-0.28721 7.88989,-2.30092 11.78119,-0.92528c1.61588,0.57123 2.518,4.85198 2.518,4.85198l6.02179,33.29005c0,0 0.66081,3.42812 0.98004,5.41318c0.34132,2.12235 -0.38538,5.41718 -2.25126,5.67098c-6.85091,0.93192 -10.96921,2.96236 -15.36547,2.29012c-1.60163,-0.2449 -3.28739,-0.62561 -4.03503,-2.27095c-0.97664,-2.14925 -0.66552,-6.73799 -0.66552,-6.73799z" data-paper-data="{&quot;origPos&quot;:null}" fill="#ff0000" stroke-width="3"/><path d="M260.2782,265.96291c0,0 -5.08387,3.21637 -9.61466,3.67187c-3.47618,0.34947 -11.08519,0.0589 -11.08519,0.0589c0,0 -1.40812,-2.54654 -1.61217,-4.17567c-0.21496,-1.7162 0.53848,-4.3963 0.53848,-4.3963l20.69919,-2.90304z" data-paper-data="{&quot;origPos&quot;:null}" fill="#976e57" stroke-width="2"/><path d="M237.81423,225.23242c0,0 -0.39169,-4.90966 0.98547,-5.007c4.06375,-0.28721 7.88989,-2.30092 11.78121,-0.92526c1.61588,0.57123 2.518,4.85198 2.518,4.85198l6.02178,33.29005c0,0 0.66082,3.42814 0.98006,5.41317c0.34132,2.12235 -0.38539,5.41718 -2.25126,5.67098c-6.85091,0.93192 -10.96921,2.96237 -15.36547,2.29012c-1.60163,-0.2449 -3.28739,-0.62563 -4.03503,-2.27094c-0.97664,-2.14925 -0.66552,-6.738 -0.66552,-6.738z" data-paper-data="{&quot;origPos&quot;:null}" fill="#4b4b4b" stroke-width="3"/></g><path d="M233.48579,262.57149c0,0 -0.07353,4.60187 -1.22512,6.6336c-0.88159,1.55537 -2.59137,1.74858 -4.20606,1.8159c-4.43213,0.18476 -8.36187,-2.29009 -15.10337,-3.97256c-1.83608,-0.45823 -2.28429,-3.81794 -1.76733,-5.89288c0.48352,-1.94071 1.42755,-5.2802 1.42755,-5.2802l8.77395,-32.47305c0,0 1.25543,-4.16162 2.91155,-4.55217c3.98824,-0.94054 7.62858,1.48544 11.64959,2.21909c1.36266,0.24862 0.5628,5.09248 0.5628,5.09248c0,0 -0.76453,9.20651 -1.25388,15.09916c-0.69065,8.31676 -1.7697,21.31066 -1.7697,21.31066z" fill="#4b4b4b" stroke="#000000" stroke-width="3" stroke-linecap="round"/><g><path d="M218.36851,179.31954c0,0 0.23061,-14.9295 2.08978,-15.74515c5.57747,-2.44696 18.81412,-3.25899 27.59668,-4.43618c1.3577,-0.18198 3.93251,13.46575 3.93251,13.46575l4.75511,31.03066c0,0 1.76605,15.22906 0.28494,15.42758c-13.18457,1.76724 -28.54941,4.70826 -34.51321,4.63817c-1.98792,-0.02336 -2.88547,-16.19579 -2.88547,-16.19579z" data-paper-data="{&quot;origPos&quot;:null}" fill="#66c8ff" stroke="#000000" stroke-width="3.5" stroke-linecap="round"/><path d="M235.95291,185.43971c-1.14705,0.15375 -1.4048,-2.38365 -1.4048,-2.38365c-0.53462,-5.26275 -1.24108,-12.21709 -1.7757,-17.47986c0,0 -0.25777,-2.5374 0.88927,-2.69115c1.14705,-0.15375 1.4048,2.38365 1.4048,2.38365c0.53462,5.26275 1.06925,10.5255 1.60386,15.78825l0.17184,1.6916c0,0 0.25777,2.5374 -0.88927,2.69115z" fill="#ffffff" stroke="none" stroke-width="0.5" stroke-linecap="butt"/><path d="M246.34411,183.6161c-1.14705,0.15375 -1.47087,-3.03394 -1.47087,-3.03394c-0.67163,-6.6115 -1.55915,-15.34811 -2.23078,-21.95961c0,0 -0.32383,-3.18769 0.82322,-3.34144c1.14705,-0.15375 1.47087,3.03394 1.47087,3.03394c0.67163,6.6115 1.34327,13.223 2.01491,19.83451l0.21589,2.12512c0,0 0.32383,3.18769 -0.82322,3.34144z" fill="#ffffff" stroke="none" stroke-width="0.5" stroke-linecap="butt"/></g><path d="M249.80734,158.79961c-10.54049,2.73735 -20.76897,5.35565 -25.14513,5.38396c-3.99951,0.02589 -5.67252,-2.46029 -5.67252,-2.46029c0,0 -1.99369,-2.06378 -2.35747,-3.58382c-1.09133,-4.5601 -3.67324,-17.73562 -4.98182,-29.32243c-0.04367,-0.38671 -0.05602,-0.60586 -0.07957,-0.99486c-0.07064,-1.16701 -0.17876,-5.73795 -0.17876,-5.73795c0,0 2.4757,-2.35554 3.90108,-3.20535c4.27615,-2.54946 16.10516,-3.90858 28.3454,-6.49632c1.10943,-0.23454 3.31517,0.98648 3.31517,0.98648c0,0 1.93691,2.81732 2.26743,4.81867c2.13689,12.93906 4.45977,27.26428 4.80542,30.58516c0.11523,1.10697 -0.70327,5.71029 -0.70327,5.71029z" fill="#582700" stroke="#000000" stroke-width="2.5" stroke-linecap="round"/><path d="M207.79842,123.82066c-0.78001,-0.91932 0.02032,-1.81531 0.02032,-1.81531l0.99848,-1.05898c0.09646,-0.0627 0.19296,-0.12462 0.28958,-0.18575c-2.00033,-5.57625 -2.36286,-12.82854 -3.4854,-18.55799c-0.29111,-1.48586 -1.38902,-5.43345 -1.00693,-6.86687c0.63981,-2.4003 2.24803,-2.18072 3.90286,-2.60309c2.81568,-0.71865 5.61629,-1.39204 8.31047,-2.5766c6.68033,-2.92689 13.47913,-4.93059 20.28673,-7.37776c2.14819,-0.77223 4.2695,-1.40845 6.51247,-1.75286c0.61373,-0.09425 1.33608,-0.54248 1.85291,-0.15079c1.83043,1.38725 1.56909,3.51407 1.67023,5.5522c0.20175,4.06544 -0.52839,7.96299 0.13977,12.00875c0.49316,3.0991 0.68702,6.35841 0.93188,9.49407c0.0845,1.0821 0.75692,2.95462 -0.01749,3.98015c-1.58789,2.1028 -6.75281,2.14253 -8.98546,2.62124c-6.80778,1.45969 -13.64742,2.75951 -20.3724,4.66257c-2.38584,0.77537 -4.64479,1.59612 -6.84482,2.7613c0.04889,0.37948 -0.01384,0.89798 -0.57191,1.25344c-0.60548,0.38565 -1.04386,0.10153 -1.28979,-0.17052c-0.07358,0.0469 -0.14711,0.09432 -0.22059,0.14224l-0.54054,0.66396c0,0 -0.80033,0.89598 -1.58035,-0.02334z" fill="#000000" stroke="none" stroke-width="0.5" stroke-linecap="butt"/><g fill="none" stroke="#b9b9b9" stroke-width="3"><path d="M246.6449,164.53264c-0.8756,-1.28683 -0.19084,-2.6396 0.76897,-4.02763c0.95981,-1.38801 2.01125,-1.9135 2.70682,-0.99886c1.47477,1.93931 0.25328,3.11168 -0.49828,4.19854c-0.95982,1.38804 -1.74093,2.64532 -2.9775,0.82797z" stroke-linecap="butt"/><path d="M247.45775,163.81289l-2.0389,2.87827" stroke-linecap="round"/><path d="M242.33466,167.75525c0.95981,-1.38801 2.01125,-1.9135 2.70682,-0.99886c1.47477,1.93931 0.25328,3.11168 -0.49828,4.19854c-0.95981,1.38802 -1.74093,2.64532 -2.97749,0.82796c-0.8756,-1.28683 -0.19085,-2.6396 0.76896,-4.02764z" stroke-linecap="butt"/><path d="M240.33962,173.94141l2.0389,-2.87829" stroke-linecap="round"/><path d="M235.29999,174.14928c0.18637,-1.71556 1.39062,-1.71712 2.7878,-1.43c1.39719,0.28713 2.35835,1.1682 2.27187,2.46977c-0.18337,2.75965 -1.62152,2.05598 -2.71555,1.83116c-1.39719,-0.28712 -2.6073,-0.44807 -2.3441,-2.87091z" stroke-linecap="butt"/><path d="M233.29464,174.00198l2.92779,0.64996" stroke-linecap="round"/><path d="M228.45299,170.54273c0.65656,-1.44943 1.78139,-0.78636 3.00517,0.24434c1.22378,1.03069 1.87339,2.35824 1.42656,3.48816c-0.94744,2.39576 -2.09229,0.96556 -3.05056,0.15848c-1.22378,-1.0307 -2.30839,-1.84404 -1.38116,-3.89098z" stroke-linecap="butt"/><path d="M229.17289,171.50648l-2.55083,-2.2035" stroke-linecap="round"/><path d="M222.04284,165.06939c0.65657,-1.44941 1.78139,-0.78636 3.00517,0.24434c1.22378,1.03069 1.87339,2.35824 1.42656,3.48816c-0.94743,2.39575 -2.09229,0.96556 -3.05056,0.15848c-1.22378,-1.03069 -2.30837,-1.84403 -1.38115,-3.89099z" stroke-linecap="butt"/><path d="M222.76276,166.03311l-2.55084,-2.2035" stroke-linecap="round"/></g><g><g stroke="#000000" stroke-width="3" stroke-linecap="round"><path d="M201.84033,199.75972l8.89268,-29.17566c0,0 1.76108,-5.50951 2.7795,-5.69281c3.05523,-0.54993 8.46379,2.01356 14.28031,3.30144c0.96682,0.21406 0.46008,6.27052 0.46008,6.27052c0,0 -1.16336,9.48862 -1.90796,15.56181c-1.13397,9.24887 -2.90562,23.69911 -2.90562,23.69911c0,0 -0.69557,7.42838 -2.44739,6.87321c0,0 -8.76004,1.96243 -22.32049,-5.73146c-0.09298,-4.73077 3.16891,-15.10613 3.16891,-15.10613z" data-paper-data="{&quot;origPos&quot;:null}" fill="#582700"/><path d="M201.54529,201.89174l22.3331,6.22526l-0.67536,3.40659l-22.34958,-5.96033z" data-paper-data="{&quot;origPos&quot;:null}" fill="none"/></g><path d="M202.27274,201.60114l11.05618,-36.26663l13.74393,3.80345l0.97517,0.97212l-3.88986,37.59771z" fill="#66c8ff" stroke="#000000" stroke-width="1" stroke-linecap="round"/><path d="M201.1219,205.13239l0.47383,-2.3313l22.20216,5.95397l-0.47381,2.33131z" fill="#ffffff" stroke="none" stroke-width="0" stroke-linecap="butt"/></g><g data-paper-data="{&quot;index&quot;:null}" fill="#ffffff" stroke-linecap="butt"><path d="M249.3896,139.89895c-1.05824,2.08773 -2.68991,3.12299 -4.33,2.45991c-2.43694,-0.98523 -3.96962,-5.34689 -3.42335,-9.74205c0.54627,-4.39515 2.96463,-7.15945 5.40157,-6.17422c2.43694,0.98523 3.96963,5.3469 3.42336,9.74205c-0.17863,1.43716 -0.55742,2.69995 -1.07157,3.7143z" data-paper-data="{&quot;index&quot;:null}" stroke="#000000" stroke-width="2.5"/><path d="M248.26055,138.5138c0.29495,-0.71846 0.80684,-1.09595 1.32163,-0.88783c0.4627,0.18707 0.81131,0.8002 0.94732,1.55901c1.49185,2.45514 -3.31869,5.39918 -3.87996,5.39731c-1.26064,-0.0042 -1.10532,-3.00614 -0.61655,-3.97221c0.27909,-0.55164 1.31545,-1.42317 2.22756,-2.09629z" data-paper-data="{&quot;index&quot;:null}" stroke="none" stroke-width="0.5"/><path d="M249.66393,138.59148c1.5119,0.61124 2.47002,3.25909 2.14003,5.91412c-0.32999,2.65504 -1.82314,4.31185 -3.33504,3.7006c-1.5119,-0.61124 -2.47002,-3.25909 -2.14003,-5.91412c0.32999,-2.65503 1.82314,-4.31185 3.33504,-3.7006z" data-paper-data="{&quot;index&quot;:null}" stroke="#000000" stroke-width="2.5"/></g><g><g data-paper-data="{&quot;index&quot;:null}"><path d="M263.50046,159.99922c1.92461,-1.18631 3.75302,-7.12112 4.71214,-5.06799c0.48854,1.04582 9.08964,20.34752 8.95915,21.64275c-0.12571,1.24755 -0.63856,2.30144 -1.58283,2.88349c-0.64244,0.39597 -1.79734,0.64849 -2.66559,0.47326c-1.7329,-0.34972 -14.54333,-16.89933 -15.18232,-18.26712c-0.95913,-2.05314 3.83485,-0.47808 5.75945,-1.66438z" fill="#0091d4" stroke="#000000" stroke-width="1.5" stroke-linecap="butt"/><g stroke-linecap="butt"><path d="M260.34528,153.19666c3.48693,-2.14932 7.31519,-1.74772 8.55065,0.89697c1.23547,2.64468 -0.58968,6.53097 -4.07662,8.68028c-3.48694,2.14931 -7.3152,1.74773 -8.55067,-0.89696c-1.23547,-2.64468 0.5897,-6.53097 4.07664,-8.68027z" fill="#0091d4" stroke="#000000" stroke-width="1.5"/><path d="M261.52779,163.09286c0,0 -1.47317,0.45653 -2.96393,-0.09014c-0.70766,-0.27283 -2.05502,-1.61106 -2.05502,-1.61106l3.52046,-0.29292z" fill="#00aeff" stroke="none" stroke-width="0"/><path d="M264.55331,161.95464l-1.54627,0.89216c0,0 -0.53168,-0.54279 -0.73162,-0.91158c-0.17075,-0.31496 -0.51612,-1.29745 -0.51612,-1.29745l1.39846,-0.50444z" fill="#00aeff" stroke="none" stroke-width="0"/></g><g><path d="M263.17114,159.00436c-4.81031,2.96501 -11.4797,2.1578 -14.06094,-3.36767c-2.58124,-5.52549 -1.00268,-11.53818 3.8076,-14.50318c4.81031,-2.96501 11.04883,-1.04128 13.63007,4.48418c2.58124,5.52549 1.43356,10.42164 -3.37673,13.38665z" fill="#00699a" stroke="#000000" stroke-width="1.5" stroke-linecap="butt"/><path d="M251.647,142.91063c0,0 1.78194,0.58448 4.21149,1.6468c2.42364,1.05973 5.03938,3.26644 6.1672,5.68066c2.25839,4.83437 1.85064,7.38824 -1.64436,9.54253c-1.70033,1.04807 -3.77301,0.96641 -5.49813,0.12138c-2.42138,-1.18608 -4.91065,-3.31129 -6.1913,-6.05272c-2.25839,-4.83437 2.9551,-10.93864 2.9551,-10.93864z" fill="#0091d4" stroke="none" stroke-width="0" stroke-linecap="butt"/><path d="M265.91613,146.48651c0,0 -0.97686,4.9432 -6.69361,8.17113c-5.67029,3.2017 -9.81574,0.87425 -9.81574,0.87425" fill="none" stroke="#000000" stroke-width="0.8" stroke-linecap="round"/><path d="M267.10937,152.46521c0,0 -1.09517,3.13209 -6.58723,5.38294c-3.81093,1.56186 -8.06137,1.45535 -8.06137,1.45535" fill="none" stroke="#000000" stroke-width="0.75" stroke-linecap="round"/><path d="M264.37338,143.97434c0,0 -0.7269,2.90565 -6.33719,5.63491c-5.83299,2.8376 -9.86459,1.17128 -9.86459,1.17128" fill="none" stroke="#000000" stroke-width="0.8" stroke-linecap="round"/><path d="M248.6318,146.89241c0,0 3.65557,-2.30962 7.71026,-3.42585c3.07837,-0.84746 7.39396,-0.72489 7.39396,-0.72489" fill="none" stroke="#000000" stroke-width="0.8" stroke-linecap="round"/><path d="M256.86139,140.40627c0,0 3.46839,0.97084 5.81554,6.522c2.51522,5.94871 2.00312,10.21477 2.00312,10.21477" fill="none" stroke="#000000" stroke-width="0.8" stroke-linecap="round"/><path d="M262.25764,159.20157c0,0 -1.55201,-2.85177 -2.2894,-4.66996c-0.62084,-1.53082 -1.34817,-4.72396 -2.38038,-7.49633c-1.17375,-3.15253 -2.62222,-5.81388 -2.62222,-5.81388" fill="none" stroke="#000000" stroke-width="0.8" stroke-linecap="round"/><path d="M260.00884,160.44635c0,0 -3.64806,-2.65365 -6.28292,-8.69617c-1.67875,-3.84988 -1.18852,-9.66812 -1.18852,-9.66812" fill="none" stroke="#000000" stroke-width="0.8" stroke-linecap="round"/><path d="M254.96711,160.58564c0,0 -2.56439,-2.15281 -4.31019,-8.0412c-1.21233,-4.08906 -0.6852,-8.3155 -0.6852,-8.3155" fill="none" stroke="#000000" stroke-width="0.8" stroke-linecap="round"/><path d="M250.03711,153.58848c-0.34299,0.21141 -0.7932,0.01429 -1.00555,-0.44033c-0.21237,-0.45458 -0.10646,-0.9945 0.23652,-1.20592c0.34299,-0.21141 0.79321,-0.0143 1.00555,0.44032c0.21237,0.45458 0.10646,0.99451 -0.23652,1.20593z" fill="#00aeff" stroke="none" stroke-width="0" stroke-linecap="butt"/><path d="M249.29425,150.08855c-0.19787,0.12196 -0.44436,0.03658 -0.55054,-0.19071c-0.10619,-0.22729 -0.03185,-0.51043 0.16603,-0.63239c0.19787,-0.12196 0.44437,-0.03657 0.55055,0.19071c0.10619,0.22729 0.03186,0.51043 -0.16603,0.6324z" fill="#00aeff" stroke="none" stroke-width="0" stroke-linecap="butt"/></g></g><path d="M261.9649,163.61453c4.98809,9.49752 5.25039,11.52091 5.25039,11.52091c0.56879,1.22863 -0.52328,1.74542 -0.52328,1.74542c0,0 -2.01137,1.29939 -3.29875,2.13105c-0.84534,0.54612 -2.16608,1.39933 -2.16608,1.39933c0,0 -0.9067,0.37894 -1.20471,-0.29948c-1.79281,-4.08142 -3.69525,-7.87137 -4.42564,-10.01986c-0.24347,-0.71616 0.23022,-1.97424 0.23022,-1.97424l3.80349,-3.15383c0,0 1.49411,-1.39669 2.33436,-1.3493z" fill="#582700" stroke="#000000" stroke-width="3" stroke-linecap="round"/><path d="M272.46785,158.42068c9.92172,19.89437 10.56725,24.03404 10.56725,24.03404c1.1432,2.56414 -0.81827,3.47851 -0.81827,3.47851c0,0 -3.58431,2.3896 -5.87844,3.91908c-1.50642,1.00432 -3.86002,2.57343 -3.86002,2.57343c0,0 -1.63254,0.65739 -2.23431,-0.75645c-3.62029,-8.50601 -7.41802,-16.43401 -8.93238,-20.88534c-0.50478,-1.48377 0.26204,-3.97917 0.26204,-3.97917l6.72135,-5.93295c0,0 2.6275,-2.65096 4.17277,-2.45113z" fill="#582700" stroke="#000000" stroke-width="3" stroke-linecap="round"/></g><g data-paper-data="{&quot;index&quot;:null}" fill="#ffffff" stroke-linecap="butt"><path d="M230.43359,139.01798c-0.54627,-4.39515 0.98641,-8.75682 3.42335,-9.74205c2.43694,-0.98523 4.8553,1.77907 5.40157,6.17422c0.54627,4.39516 -0.98641,8.75682 -3.42335,9.74205c-1.64009,0.66307 -3.27176,-0.37218 -4.33,-2.45991c-0.51416,-1.01435 -0.89295,-2.27713 -1.07157,-3.7143z" data-paper-data="{&quot;index&quot;:null}" stroke="#000000" stroke-width="2.5"/><path d="M234.86178,143.44342c0.48876,0.96607 0.64409,3.96801 -0.61655,3.97221c-0.56127,0.00187 -5.37181,-2.94218 -3.87996,-5.39732c0.13601,-0.75882 0.48462,-1.37194 0.94732,-1.55901c0.51479,-0.20813 1.02667,0.16937 1.32162,0.88783c0.91211,0.67312 1.94848,1.54466 2.22757,2.09629z" data-paper-data="{&quot;index&quot;:null}" stroke="none" stroke-width="0.5"/><path d="M234.56586,145.12542c0.32999,2.65503 -0.62813,5.30287 -2.14003,5.91412c-1.51189,0.61124 -3.00504,-1.04556 -3.33503,-3.70061c-0.32999,-2.65503 0.62813,-5.30287 2.14003,-5.91412c1.51189,-0.61124 3.00504,1.04558 3.33503,3.70061z" data-paper-data="{&quot;index&quot;:null}" stroke="#000000" stroke-width="2.5"/></g><g fill="#9e3eff" stroke="none" stroke-width="0.5" stroke-linecap="butt"><path d="M204.3695,140.01146c-1.24035,2.17061 -3.41096,0.93026 -3.41096,0.93026l-2.42955,-1.92296c-0.4766,-1.2289 -1.44922,-2.36876 -1.4298,-3.68669c0.02154,-1.46176 3.87465,-5.21532 2.47246,-6.69797c-1.73708,-1.83677 -5.17259,-2.40319 -5.83712,-4.84237c-0.68118,-2.50026 6.69617,-8.31584 2.99393,-9.39877c0,0 -2.02184,-1.47043 -0.55141,-3.49227c1.47043,-2.02184 3.49227,-0.55141 3.49227,-0.55141c1.03237,0.93963 2.86179,1.44292 3.09712,2.8189c0.37913,2.21679 -0.79304,4.44205 -1.48958,6.58045c-0.32222,0.98924 -0.88054,1.90972 -1.53843,2.7157c-0.24872,0.3047 -1.29037,0.15694 -1.07517,0.48618c0.33831,0.51759 1.22486,0.26946 1.76537,0.56979c1.12889,0.62727 2.54029,1.07612 3.1975,2.18784c0.92417,1.5633 1.3744,3.49622 1.23306,5.30675c-0.13466,1.72486 -2.82957,2.66654 -2.7606,4.39527c0.02389,0.59873 0.6468,1.00887 0.9702,1.51331l0.37045,-0.32296c0,0 2.17061,1.24035 0.93026,3.41096z"/><path d="M214.5695,138.61146c-1.24034,2.17061 -3.41096,0.93026 -3.41096,0.93026l-2.42955,-1.92296c-0.4766,-1.2289 -1.44922,-2.36876 -1.4298,-3.6867c0.02155,-1.46176 3.87464,-5.21532 2.47245,-6.69797c-1.73709,-1.83677 -5.17259,-2.40319 -5.83712,-4.84237c-0.68117,-2.50026 6.69617,-8.31584 2.99393,-9.39877c0,0 -2.02184,-1.47043 -0.55141,-3.49227c1.47043,-2.02184 3.49227,-0.55141 3.49227,-0.55141c1.03238,0.93963 2.86178,1.44292 3.09712,2.8189c0.37913,2.21679 -0.79304,4.44205 -1.48958,6.58045c-0.32222,0.98924 -0.88054,1.90972 -1.53843,2.7157c-0.24872,0.30471 -1.29037,0.15694 -1.07518,0.48618c0.3383,0.5176 1.22486,0.26946 1.76538,0.56979c1.12889,0.62727 2.54028,1.07612 3.1975,2.18784c0.92417,1.5633 1.37441,3.49622 1.23306,5.30676c-0.13466,1.72485 -2.82957,2.66654 -2.7606,4.39527c0.02389,0.59873 0.64681,1.00887 0.9702,1.51331l0.37045,-0.32296c0,0 2.1706,1.24034 0.93026,3.41096z"/><path d="M225.5695,137.81146c-1.24034,2.17061 -3.41096,0.93026 -3.41096,0.93026l-2.42955,-1.92297c-0.4766,-1.2289 -1.44922,-2.36876 -1.4298,-3.6867c0.02155,-1.46176 3.87465,-5.21532 2.47246,-6.69797c-1.73709,-1.83677 -5.17259,-2.40319 -5.83713,-4.84237c-0.68117,-2.50026 6.69617,-8.31584 2.99393,-9.39877c0,0 -2.02184,-1.47043 -0.55141,-3.49227c1.47043,-2.02184 3.49227,-0.55141 3.49227,-0.55141c1.03238,0.93963 2.86178,1.44292 3.09712,2.8189c0.37913,2.21679 -0.79305,4.44205 -1.48958,6.58045c-0.32222,0.98924 -0.88053,1.90972 -1.53843,2.7157c-0.24872,0.30471 -1.29037,0.15695 -1.07518,0.48619c0.3383,0.5176 1.22486,0.26945 1.76537,0.56979c1.12889,0.62727 2.54029,1.07612 3.1975,2.18784c0.92417,1.5633 1.3744,3.49622 1.23306,5.30676c-0.13466,1.72485 -2.82957,2.66654 -2.7606,4.39527c0.02389,0.59873 0.64681,1.00887 0.97021,1.51331l0.37044,-0.32296c0,0 2.1706,1.24034 0.93026,3.41096z"/></g></g></g></svg>