<svg version="1.1" xmlns="http://www.w3.org/2000/svg" xmlns:xlink="http://www.w3.org/1999/xlink" width="306.30631" height="274.77477" viewBox="0,0,306.30631,274.77477"><g transform="translate(-86.84686,-42.61264)"><g data-paper-data="{&quot;isPaintingLayer&quot;:true}" fill-rule="nonzero" stroke-linecap="butt" stroke-linejoin="miter" stroke-miterlimit="10" stroke-dasharray="" stroke-dashoffset="0" style="mix-blend-mode: normal"><path d="M86.84686,317.38741v-274.77477h306.30631v274.77477z" data-paper-data="{&quot;index&quot;:null}" fill="none" stroke="none" stroke-width="0"/><text transform="translate(271.55603,110.72269) rotate(-180) scale(0.1602,-0.1602)" font-size="40" xml:space="preserve" data-paper-data="{&quot;index&quot;:null}" fill="#000000" fill-rule="nonzero" stroke="none" stroke-width="1" stroke-linecap="butt" stroke-linejoin="miter" stroke-miterlimit="10" stroke-dasharray="" stroke-dashoffset="0" font-family="Sans Serif" font-weight="normal" text-anchor="start" style="mix-blend-mode: normal"><tspan x="0" dy="0">AwezomeXD</tspan><tspan x="0" dy="46.150000000000006px"> </tspan><tspan x="0" dy="46.150000000000006px">MeIzAwezomeDede</tspan></text><g data-paper-data="{&quot;index&quot;:null}"><g><g><g><path d="M204.47511,127.97899c0,0 -4.01735,-11.45822 3.49367,-16.59954c5.33165,-3.64951 21.41024,0.34211 32.32774,-1.40826c12.41066,-1.98977 35.68343,-6.7193 35.68343,-6.7193c0,0 5.48881,2.63823 7.45137,2.39507c2.45049,-0.30362 4.66284,-3.93031 4.66284,-3.93031c0,0 0.88125,4.07035 0.91031,7.43019c0.10948,12.65531 -9.79,13.29898 -9.79,13.29898c0,0 4.24682,5.46875 4.66479,9.74831c0.43934,4.49861 -3.06748,7.15931 -3.06748,7.15931c0,0 2.69098,3.34981 3.06243,6.92645c0.24522,2.36118 -0.01643,6.28278 -0.21417,8.72995c-0.33739,4.17604 7.31049,7.76005 7.31049,7.76005c0,0 -3.7743,3.51067 -6.51496,4.2072c-2.78956,0.70894 -9.29208,-1.8959 -9.29208,-1.8959c0,0 -2.42572,0.79859 -2.73915,3.64921c-0.09881,0.89862 0.29447,2.92491 0.49423,3.85463c0.67382,3.13599 -1.15523,5.50145 -1.15523,5.50145c0,0 -1.73025,-3.35449 -2.58473,-4.16152c-0.62716,-0.59233 -1.24106,-0.7474 -1.24106,-0.7474c0,0 -1.13814,4.41257 -0.61131,6.87006c1.17174,5.46598 3.59308,12.18149 2.34739,12.39807c-2.25243,0.39161 -5.13939,-3.36144 -7.75898,-3.61645c-2.4111,-0.2347 -5.21909,-6.46559 -5.21909,-6.46559c0,0 -1.56479,6.91137 -4.34884,7.93349c-2.70163,0.9919 -4.021,6.23497 -5.17722,6.42936c-4.2148,0.70865 -9.83444,-11.94605 -9.83444,-11.94605c0,0 -11.61903,9.17997 -14.57632,6.83705c-3.49031,-2.76523 -5.45913,-18.56203 -5.45913,-18.56203c0,0 -5.78327,-4.27131 -6.38113,-7.06888c-1.34266,-6.28284 1.52918,-11.49686 1.52918,-11.49686c0,0 -3.18801,0.52896 -4.69909,1.78488c-1.60612,1.33497 -4.67001,6.00221 -4.67001,6.00221c0,0 -1.57268,-5.51835 -1.28479,-8.22791c0.30279,-2.84942 3.05909,-8.47008 3.05909,-8.47008c0,0 -4.92232,-3.29452 -7.1092,-8.39439c-1.17206,-2.73328 -0.64597,-8.78619 -0.64597,-8.78619c0,0 4.45863,3.66817 6.25445,4.1296c1.39306,0.35795 1.25217,-2.65286 1.25217,-2.65286z" fill="#6d0f0a" stroke="#000000" stroke-width="2"/><path d="M206.31805,122.37294c-1.92107,1.18441 -3.21404,0.38455 -3.21404,0.38455c0,0 -3.86574,-7.51454 -2.59509,-17.68426c0.68792,-5.50568 4.79364,-12.63675 7.25334,-17.53673c3.48579,-6.944 11.7532,-10.70511 18.88031,-11.84778c9.36909,-1.50211 16.71125,7.34478 16.71125,7.34478c0,0 9.3841,-4.96227 16.77911,-3.95724c7.1442,0.97091 12.75437,8.4406 14.28852,10.2798c2.33721,2.80194 5.36778,16.43712 5.36778,16.43712c0,0 -25.14543,24.26333 -39.99502,26.6441c-15.86386,2.54339 -28.01635,-13.43044 -33.47616,-10.06433z" fill="#6d0f0a" stroke="#000000" stroke-width="2"/><path d="M206.03407,92.44768c0,0 1.85704,-3.30765 2.85282,-4.76503c0.95002,-1.3904 2.991,-3.78784 2.991,-3.78784c0,0 8.75803,5.39854 13.24105,6.42705c4.69781,1.0778 12.16602,-1.57095 12.16602,-1.57095c0,0 0.23671,2.30838 0.56532,3.22792c0.34741,0.9722 0.99696,2.53124 0.99696,2.53124c0,0 1.07087,-1.94499 1.33335,-2.75614c0.28348,-0.87611 0.72818,-2.70852 0.72818,-2.70852c0,0 2.02056,3.60831 2.92191,4.94394c0.73812,1.09375 2.09497,2.49012 2.09497,2.49012c0,0 -0.23818,-2.12043 -0.44398,-3.21364c-0.2179,-1.15741 -0.82924,-3.54922 -0.82924,-3.54922c0,0 9.84972,3.5465 15.88161,4.66455c0.12109,0.02244 4.70851,-0.47188 5.05323,-0.46104c7.41201,0.23328 4.11719,-8.83905 4.11719,-8.83905c0,0 3.10855,3.18657 4.48706,6.12393c1.39815,2.97923 3.84368,11.62767 3.84368,11.62767c0,0 -5.58791,-2.62825 -10.64022,-2.65122c-0.89652,-0.00408 -10.5927,0.48762 -10.5927,0.48762c0,0 -1.62732,-2.00686 -2.48093,-2.82876c-0.83648,-0.80542 -2.59034,-2.05421 -2.59034,-2.05421c0,0 -1.0136,1.97334 -1.48956,3.17696c-0.57183,1.44601 -1.70678,4.9061 -1.70678,4.9061c0,0 -1.06562,-1.77517 -1.81133,-2.70845c-0.82959,-1.03829 -2.94134,-3.23992 -2.94134,-3.23992c0,0 -1.26611,0.58706 -1.9366,1.14047c-0.9308,0.76829 -3.1281,3.03982 -3.1281,3.03982c0,0 -1.05109,-2.78317 -1.66158,-4.00664c-0.5282,-1.05853 -1.79039,-2.91145 -1.79039,-2.91145c0,0 -1.51798,1.29709 -2.30326,2.13631c-0.97993,1.04728 -3.12281,3.66236 -3.12281,3.66236c0,0 -7.98136,-7.19332 -12.0722,-8.65984c-3.82659,-1.37181 -11.73306,0.12593 -11.73306,0.12593z" fill="#c42d06" stroke="none" stroke-width="0"/></g><path d="M226.03422,136.80923c0,0 -18.8254,-4.62709 -19.29477,-6.01363c-0.08141,-0.24054 1.96355,-9.02315 1.66406,-9.87833c-0.54705,-1.56208 -4.84849,-0.08427 -4.84849,-0.08427c0,0 63.06107,-13.77038 72.9733,-15.50976c2.52525,-0.44311 5.33955,1.77265 5.33955,1.77265l-10.12479,20.02193z" fill="#6d0f0a" stroke="none" stroke-width="NaN"/></g><path d="M244.6829,84.20947c0,0 -4.38851,-1.40936 -3.13062,-7.09393c0.06629,-0.29953 0.64026,-1.52475 0.84571,-1.80067c1.57433,-2.11422 6.5029,-2.74263 6.5029,-2.74263c0,0 -2.74025,4.74987 -3.63139,6.36863c-0.7943,1.44286 -0.5866,5.26861 -0.5866,5.26861z" fill="#6d0f0a" stroke="#000000" stroke-width="1.5"/><path d="M238.58295,73.69888c0,0 1.42133,0.94436 1.97446,2.64765c0.45974,0.83369 0.91062,3.68346 0.91062,3.68346l-1.94871,-0.96723z" fill="#000000" stroke="none" stroke-width="0"/></g><path d="M243.73706,82.79298l3.76648,-0.25802c0,0 -2.5847,4.54664 -3.09082,4.74546c-0.70856,0.27836 -3.62099,-4.87471 -3.62099,-4.87471z" fill="#6d0f0a" stroke="none" stroke-width="0"/></g><path d="M254.70935,158.68538c-2.8576,-2.66303 14.79875,-1.09104 14.79875,-1.09104c0,0 -1.04668,7.29658 -5.86596,7.72655c-0.71551,0.085 -1.7737,-0.02826 -2.67193,-0.55968c-2.80558,-1.65986 -5.80176,-5.64801 -6.26086,-6.07584z" data-paper-data="{&quot;index&quot;:null}" fill="#fb95a9" stroke="#000000" stroke-width="2"/><g data-paper-data="{&quot;index&quot;:null}"><path d="M229.05145,131.57698c2.41131,-2.95149 10.53162,-0.25987 12.59919,3.86227c0.26008,0.51854 1.70637,-0.66733 5.40284,0.98163c0.86997,0.38809 5.76087,2.42654 8.41284,5.62037c1.26983,1.52929 1.69603,4.4245 1.54261,5.46051c-0.22905,2.80784 -2.67033,5.18657 -4.85989,7.14774c-2.87249,2.57284 1.75248,7.33006 -2.40533,7.33006c-3.03121,0 -16.54137,0.60747 -18.69314,-0.7284c-1.28409,-0.79719 -0.53199,-7.61244 -0.88049,-9.01861c-0.48674,-1.96396 -4.99822,-4.40189 -4.99822,-6.61256c0,-2.58633 2.29137,-12.099 3.87959,-14.04301z" fill="#ee1536" stroke="#000000" stroke-width="2"/><path d="M245.16343,151.7661c0,-3.14019 3.56399,-6.94934 7.26523,-7.10728c1.42906,-0.06098 2.65733,0.06996 3.18396,0.81425c0.66164,0.93511 0.38103,2.67311 -0.13046,4.34512c-1.10558,3.61402 -4.40634,5.42259 -7.63376,5.42259c-0.06272,0 2.08362,-1.58996 2.84464,-0.28992c1.01358,1.73146 0.66979,6.51156 0.03616,6.86773c-2.98614,1.67855 -13.402,-0.74155 -16.31172,-0.67209c-0.60085,0.01435 -2.90823,0.59035 -3.45604,-1.26733c-0.44915,-1.5231 0.38106,-5.65028 0.34354,-5.65555c-0.60286,-0.08461 -1.36799,-4.06688 -1.36799,-4.06688c0,0 -2.86476,-2.27685 -2.9505,-2.85725c-0.15338,-1.03828 2.10836,-2.8435 2.10836,-2.8435c0,0 1.25189,1.00644 1.97555,1.57762c0.66583,0.52553 1.57561,2.98741 1.57561,2.98741c0,0 4.12841,-5.5717 8.29185,-4.21031c5.58397,1.82588 4.22558,7.21129 4.22558,6.95539z" fill="#9a1652" stroke="none" stroke-width="0"/><path d="M231.67377,160.75606c0.86132,-1.55025 8.52088,-5.58592 9.70316,-7.17085c2.60911,-3.4977 4.57621,-6.08348 4.57621,-6.08348c0,0 0.91108,5.32297 -0.66029,9.58239c-1.16307,3.15265 6.61433,5.47453 5.8723,5.47453c-1.74455,0 -20.27813,-0.38656 -19.49138,-1.80259z" fill="#000000" stroke="none" stroke-width="0"/></g><g data-paper-data="{&quot;index&quot;:null}"><path d="M233.92159,141.38025c0.80442,5.08868 -2.59592,18.45982 -2.59592,18.45982c0,0 -0.28511,1.37539 -1.02973,2.62302c-0.41426,0.69409 -0.63017,1.32638 -1.8341,1.71362c-0.80524,0.25903 -3.52741,0.12896 -4.64918,-0.88086c-0.98187,-0.88388 -1.15505,-3.20866 -1.23948,-3.97694c-0.33487,-3.04673 0.21706,-7.3694 -0.15176,-12.33748c-0.45858,-6.17728 -1.61717,-13.6184 -1.06606,-16.05059c0.14218,-0.62745 1.12109,0.16995 1.40252,0.12111c1.23669,-0.21459 1.90083,0.26161 3.69041,1.21429c3.05233,1.62489 6.76715,4.76538 7.41053,8.83522z" fill="#ffd5d5" stroke="#000000" stroke-width="2"/><path d="M231.17981,156.20214c0,0 -0.02568,2.68142 -0.93347,4.70471c-0.56408,1.25724 -1.2133,2.06456 -1.94771,2.26899c-1.32211,0.368 -3.4261,0.26229 -4.1952,-0.92095c-1.85096,-2.84768 -0.38886,-12.31239 -0.38886,-12.31239l7.46523,6.25964z" fill="#fb95a9" stroke="none" stroke-width="0"/></g><g data-paper-data="{&quot;index&quot;:null}"><text transform="translate(294.6834,229.00289) rotate(-180) scale(0.27921,-0.27921)" font-size="40" xml:space="preserve" fill="#000000" fill-rule="nonzero" stroke="none" stroke-width="1" stroke-linecap="butt" stroke-linejoin="miter" stroke-miterlimit="10" stroke-dasharray="" stroke-dashoffset="0" font-family="Sans Serif" font-weight="normal" text-anchor="start" style="mix-blend-mode: normal"><tspan x="0" dy="0">AwezomeXD</tspan><tspan x="0" dy="46.150000000000006px"> </tspan><tspan x="0" dy="46.150000000000006px">MeIzAwezomeDede</tspan></text><g data-paper-data="{&quot;index&quot;:null}"><g><path d="M304.61434,280.7271c-0.97394,-0.3343 -2.81981,-1.05375 -2.81981,-1.05375l2.00112,-62.99775c0,0 3.12264,-3.42551 4.77674,-5.10754c1.78782,-1.81801 6.83093,-5.9246 6.83093,-5.9246c0,0 5.94054,0.17965 11.08569,1.75457c7.39586,2.26385 29.04162,10.52827 29.04162,10.52827c0,0 -0.29139,23.00613 -1.11993,33.98866c-0.74728,9.90532 -3.63272,29.00908 -3.63272,29.00908c0,0 -14.3168,1.48011 -21.61682,1.59314c-7.15813,0.11083 -21.76596,-0.92143 -21.76596,-0.92143c0,0 -1.89659,-0.56514 -2.78087,-0.86866z" fill="#434253" stroke="#000000" stroke-width="2.5"/><path d="M306.04175,281.58894c0,0 3.19421,-16.34268 5.26935,-30.13714c1.48339,-9.86081 2.04443,-18.33187 2.06476,-19.00203c0.15509,-5.11269 -0.3723,-9.50368 -0.00091,-14.70459c0.49814,-6.97594 1.18056,-11.43244 1.18056,-11.43244l2.10035,-1.22928c0,0 -1.17975,18.14658 -2.93073,35.27697c-0.73182,7.15966 -2.77258,22.22022 -3.75528,31.64788c-0.10799,1.03599 0.50491,2.39047 0.4064,3.33489c-0.55015,5.27458 -0.93311,6.24975 -0.93311,6.24975l-3.40139,-0.00403z" fill="#000000" stroke="none" stroke-width="0"/></g><g stroke="#000000" stroke-width="1.5"><path d="M345.29835,263.35312c0.94113,9.66742 -4.93088,16.17699 -12.88074,16.95092c-7.94986,0.77393 -14.77082,-5.25083 -14.91119,-14.96294c-0.15638,-10.82018 5.8426,-16.14324 12.54261,-16.73861c6.71115,-0.59636 14.44659,6.50489 15.24932,14.75063z" fill="#2c262f"/><path d="M323.6744,268.45714c-0.26544,-2.72671 1.31874,-5.06632 3.56101,-5.2846c2.24227,-0.21828 3.76096,1.25807 4.0264,3.98478c0.26545,2.72671 -1.3891,5.14677 -3.63137,5.36505c-2.24227,0.21828 -3.69059,-1.33852 -3.95603,-4.06523z" data-paper-data="{&quot;index&quot;:null}" fill="#1b171c"/></g><g stroke="#000000" stroke-width="1.5"><path d="M334.90075,214.22597c6.72176,-0.46163 14.18059,7.06601 14.65957,15.33688c0.56156,9.69688 -5.56103,15.97134 -13.53511,16.43313c-7.97408,0.46179 -14.55372,-5.82563 -14.31338,-15.53578c0.26776,-10.81801 6.4647,-15.77245 13.18893,-16.23424z" fill="#2c262f"/><path d="M327.75298,233.81557c-0.15839,-2.73501 1.51626,-5.01074 3.76536,-5.14099c2.2491,-0.13025 3.70876,1.40448 3.86715,4.1395c0.15839,2.73502 -1.58973,5.08838 -3.83883,5.21863c-2.2491,0.13025 -3.6353,-1.48212 -3.79369,-4.21714z" data-paper-data="{&quot;index&quot;:null}" fill="#1b171c"/></g></g><g><g><path d="M178.20553,279.8001c0,0 -1.84588,0.71945 -2.81982,1.05375c-0.88428,0.30352 -2.78086,0.86866 -2.78086,0.86866c0,0 -14.60784,1.03226 -21.76596,0.92143c-7.30001,-0.11302 -21.61681,-1.59314 -21.61681,-1.59314c0,0 -2.88544,-19.10377 -3.63272,-29.00909c-0.82854,-10.98252 -1.11993,-33.98866 -1.11993,-33.98866c0,0 21.64575,-8.26442 29.04162,-10.52827c5.14515,-1.57491 11.08569,-1.75457 11.08569,-1.75457c0,0 5.04312,4.1066 6.83094,5.9246c1.6541,1.68203 4.77674,5.10754 4.77674,5.10754l2.00112,62.99775z" fill="#434253" stroke="#000000" stroke-width="2.5"/><path d="M173.95831,281.71567l-3.40139,0.00403c0,0 -0.38295,-0.97517 -0.93311,-6.24976c-0.0985,-0.94441 0.51439,-2.2989 0.40641,-3.33488c-0.98271,-9.42766 -3.02346,-24.48823 -3.75529,-31.64789c-1.75097,-17.13039 -2.93073,-35.27697 -2.93073,-35.27697l2.10035,1.22928c0,0 0.68243,4.4565 1.18057,11.43244c0.37139,5.20091 -0.156,9.59191 -0.00092,14.70459c0.02033,0.67016 0.58138,9.14123 2.06477,19.00203c2.07514,13.79446 5.26935,30.13713 5.26935,30.13713z" fill="#000000" stroke="none" stroke-width="0"/></g><g stroke="#000000" stroke-width="1.5"><path d="M134.70171,263.47986c0.80273,-8.24574 8.53818,-15.34698 15.24933,-14.75062c6.70001,0.59537 12.69899,5.91843 12.54261,16.73861c-0.14037,9.71211 -6.96134,15.73687 -14.9112,14.96294c-7.94986,-0.77392 -13.82187,-7.2835 -12.88074,-16.95092z" fill="#2c262f"/><path d="M152.76465,263.29932c2.24227,0.21828 3.82645,2.55788 3.56101,5.28459c-0.26545,2.72671 -1.71376,4.28351 -3.95603,4.06523c-2.24227,-0.21829 -3.89681,-2.63834 -3.63137,-5.36505c0.26544,-2.72671 1.78413,-4.20306 4.0264,-3.98478z" data-paper-data="{&quot;index&quot;:null}" fill="#1b171c"/></g><g stroke="#000000" stroke-width="1.5"><path d="M130.43976,229.6896c0.47898,-8.27087 7.9378,-15.79851 14.65956,-15.33689c6.72423,0.46179 12.92117,5.41624 13.18893,16.23424c0.24034,9.71016 -6.33929,15.99758 -14.31338,15.53579c-7.97409,-0.46179 -14.09668,-6.73625 -13.53512,-16.43313z" fill="#2c262f"/><path d="M152.2471,233.94232c-0.15839,2.73501 -1.54458,4.34738 -3.79368,4.21713c-2.2491,-0.13025 -3.99721,-2.48361 -3.83882,-5.21863c0.15839,-2.73501 1.61804,-4.26975 3.86714,-4.1395c2.2491,0.13025 3.92375,2.40598 3.76536,5.141z" data-paper-data="{&quot;index&quot;:null}" fill="#1b171c"/></g></g><g stroke="#000000"><g fill="#434253"><path d="M302.9364,282.15581c0,0 -39.39406,0.31655 -59.64769,0.31655c-21.72904,0 -66.6118,-0.31655 -66.6118,-0.31655c0,0 -2.38216,-40.33861 -2.16309,-60.75635c0.20152,-18.78125 2.16309,-54.08575 2.16309,-54.08575c0,0 42.82931,-1.2662 64.39595,-1.2662c21.14461,0 59.33114,1.58275 59.33114,1.58275c0,0 4.66352,44.84767 4.63123,67.07726c-0.03994,25.54257 -2.09882,47.44828 -2.09882,47.44828z" stroke-width="2.5"/><path d="M182.6264,273.74782c1.29409,0 2.34316,0.94416 2.34316,2.10884c0,1.16468 -1.04906,2.10884 -2.34316,2.10884c-1.29409,0 -2.34316,-0.94416 -2.34316,-2.10884c0,-1.16468 1.04906,-2.10884 2.34316,-2.10884z" stroke-width="2"/><path d="M296.08667,273.11069c1.29409,0 2.34316,0.94416 2.34316,2.10884c0,1.16468 -1.04907,2.10884 -2.34316,2.10884c-1.29409,0 -2.34316,-0.94416 -2.34316,-2.10884c0,-1.16468 1.04907,-2.10884 2.34316,-2.10884z" stroke-width="2"/><path d="M291.83154,175.44761c-0.48529,-1.12251 0.08425,-2.44878 1.27209,-2.9623c1.18785,-0.51352 2.54417,-0.01985 3.02946,1.10266c0.48528,1.12251 -0.08426,2.44879 -1.2721,2.96231c-1.18785,0.51352 -2.54417,0.01984 -3.02946,-1.10267z" stroke-width="2"/><path d="M180.9176,172.05907c1.18784,-0.51352 2.54418,-0.01985 3.02946,1.10266c0.48528,1.12251 -0.08426,2.44879 -1.2721,2.96231c-1.18784,0.51352 -2.54417,0.01984 -3.02945,-1.10267c-0.48528,-1.12251 0.08425,-2.44878 1.27209,-2.9623z" stroke-width="2"/></g><g><path d="M187.36314,208.89733c-2.36044,-6.40232 -2.14847,-24.22034 1.17777,-27.70117c8.80798,-9.21732 26.01104,-9.48636 48.15555,-9.48636c20.7312,0 40.80646,1.21551 50.19223,9.11804c4.42593,3.72649 4.09175,24.72433 0.61728,30.38921c-5.21713,8.50616 -20.51325,11.67052 -51.0204,11.67052c-30.50715,0 -45.72795,-4.44989 -49.12243,-13.65691z" fill="#434253" stroke-width="2"/><path d="M191.46434,207.31699c-2.1792,-5.67588 -1.98352,-21.47217 1.08734,-24.55804c8.13172,-8.17147 24.01396,-7.77733 44.45825,-7.77733c19.1395,0 37.67343,0.44494 46.33857,7.45081c4.08612,3.30367 3.77759,21.91897 0.56988,26.94108c-4.81657,7.54101 -18.93828,9.50278 -47.10314,9.50278c-28.16487,0 -42.21704,-3.39695 -45.3509,-11.55929z" fill="#2c262f" stroke-width="1.5"/><path d="M216.73028,204.30871c-0.84859,-2.4182 -0.77238,-9.14817 0.42343,-10.4629c3.16654,-3.48144 9.35117,-4.21571 17.31229,-4.21571c7.45303,0 14.67023,1.09175 18.04449,4.07659c1.59116,1.40752 1.47102,9.33853 0.22192,11.47819c-1.8756,3.21283 -7.37467,4.61891 -18.34223,4.61891c-10.96755,0 -16.43956,-1.85087 -17.65989,-5.32841z" fill="#1b171c" stroke-width="1.5"/></g><g><path d="M187.36314,264.28152c-2.36044,-6.40232 -2.14847,-24.22034 1.17777,-27.70116c8.80798,-9.21732 26.01104,-9.48637 48.15555,-9.48637c20.7312,0 40.80646,1.21551 50.19223,9.11804c4.42593,3.7265 4.09175,24.72433 0.61728,30.38921c-5.21713,8.50616 -20.51325,11.67052 -51.0204,11.67052c-30.50715,0 -45.72795,-4.4499 -49.12243,-13.65692z" fill="#434253" stroke-width="2"/><path d="M191.46434,262.70116c-2.1792,-5.67588 -1.98352,-21.47217 1.08734,-24.55804c8.13172,-8.17147 24.01396,-7.77734 44.45825,-7.77734c19.1395,0 37.67343,0.44494 46.33857,7.45081c4.08612,3.30367 3.77759,21.91898 0.56988,26.94109c-4.81657,7.54101 -18.93828,9.50278 -47.10314,9.50278c-28.16487,0 -42.21704,-3.39695 -45.3509,-11.55929z" fill="#2c262f" stroke-width="1.5"/><path d="M216.73028,259.6929c-0.84859,-2.41819 -0.77238,-9.14816 0.42343,-10.46289c3.16654,-3.48144 9.35117,-4.21571 17.31229,-4.21571c7.45303,0 14.67023,1.09175 18.04449,4.07659c1.59116,1.40752 1.47102,9.33852 0.22192,11.47818c-1.8756,3.21283 -7.37467,4.61891 -18.34223,4.61891c-10.96755,0 -16.43956,-1.85087 -17.65989,-5.32842z" fill="#1b171c" stroke-width="1.5"/></g></g></g><g data-paper-data="{&quot;index&quot;:null}"><path d="M260.25636,187.90097c-1.09443,-0.60668 -2.81534,-1.76752 -4.60978,-5.37269c-1.07865,-2.16706 -1.63553,-4.29353 -0.90414,-4.93706c2.26311,-1.99123 13.17032,-3.45886 13.2742,-3.46255c6.31128,-0.22427 15.00392,4.17149 15.10056,6.89128c0.07664,2.15679 -5.47758,5.2842 -11.6863,5.29605c-9.18212,0.0175 -12.7631,-3.97887 -12.96681,-4.18994c-0.80861,-0.83778 1.00135,1.51518 1.6983,2.45262c0.79879,1.07443 2.16015,1.79541 2.01352,2.87809c-0.16755,1.2372 -1.01217,0.9472 -1.91957,0.4442z" fill="#ee1536" stroke="#000000" stroke-width="1.5"/><path d="M224.01421,166.30062c-0.12772,-3.59427 1.63963,-6.85643 4.67709,-9.29927c4.03468,-3.24484 10.11384,-5.13375 15.05392,-5.30929c5.31659,-0.18892 12.35305,-0.63842 14.4399,1.58096c0.56646,0.60243 0.2352,3.35122 0.6817,5.94338c0.25663,1.48983 1.193,5.08919 2.34953,7.9736c0.84166,2.09915 1.84669,4.50055 2.99041,4.77038c4.74231,1.11882 11.46374,3.43394 9.87397,6.04495c-1.20808,1.98412 -8.63052,2.4819 -14.61008,0.89374c-5.38209,-1.42947 -9.31773,-4.84675 -11.27751,-5.26249c-3.32467,-0.70528 -10.23848,1.79886 -13.61175,1.45226c-2.19798,-0.22584 -4.13649,-0.88035 -5.59932,-1.59901c-3.62542,-1.78109 -4.88882,-4.96567 -4.96783,-7.18922z" fill="#ffd5d5" stroke="#000000" stroke-width="1.5"/><path d="M254.10519,161.52671c0,0 1.50596,-1.19084 2.14009,-1.91732c0.57492,-0.65864 1.50449,-2.25799 1.50449,-2.25799c0,0 0.56121,2.41352 0.82531,3.64833c0.23876,1.11641 0.69092,3.44118 0.69092,3.44118c0,0 -2.18351,-0.49053 -3.11553,-1.01683c-0.74694,-0.42177 -2.04527,-1.89735 -2.04527,-1.89735z" fill="#fb95a9" stroke="none" stroke-width="0"/><path d="M275.37832,177.74336c0.15701,-0.35975 1.66932,-0.19585 2.98839,0.3799c1.31908,0.57575 2.76828,2.26435 2.61126,2.6241c-0.15702,0.35974 -1.55635,-1.07248 -2.87542,-1.64823c-1.31907,-0.57575 -2.88124,-0.99602 -2.72422,-1.35577z" fill="#fc9ea5" stroke="none" stroke-width="0"/></g><g data-paper-data="{&quot;index&quot;:null}"><path d="M231.16254,187.21777c2.18245,-6.49026 7.21694,-8.54661 11.97095,-6.94799c4.75401,1.59861 6.98224,7.52075 4.79978,14.01101c-2.18245,6.49027 -10.5377,12.49981 -14.08843,11.10351c-3.51558,-1.38247 -5.02384,-11.33923 -2.84138,-17.82949z" fill="#ee1536" stroke="#000000" stroke-width="1.5"/><path d="M233.50381,184.30384c0,0 1.84009,-2.96939 4.1015,-3.74274c0.75854,-0.25939 4.09359,0.00662 6.66187,1.48777c1.74562,1.0067 2.97737,3.0317 3.42522,4.05962c0.77139,1.77052 0.32109,3.74921 0.32109,3.74921c0,0 -1.72169,1.76553 -5.34071,1.8476c-1.9031,0.04315 -4.73029,-1.87461 -6.55951,-3.88375c-1.64931,-1.81154 -2.60946,-3.5177 -2.60946,-3.5177z" fill="#9a1652" stroke="none" stroke-width="0"/><path d="M237.39726,174.28041c0.1548,-7.10639 1.60146,-10.95246 10.01636,-11.12779c4.92008,-0.10252 6.84297,5.48731 6.65647,7.90604c-0.62398,8.09232 -8.88216,15.65798 -8.88216,15.65798c0,0 1.83347,7.92202 -6.41418,9.3979c-4.03312,0.72171 -4.45488,-6.28031 -3.87871,-8.02305c1.04602,-3.16387 3.13879,-5.10065 3.13879,-5.10065c0,0 -0.70538,-5.55271 -0.63659,-8.71043z" fill="#ffd5d5" stroke="#000000" stroke-width="1.5"/><path d="M244.59567,175.2343c-1.02038,-0.58352 -1.30042,-1.54144 -1.68528,-2.48575c-0.46441,-1.13947 -0.91126,-4.03413 -0.91126,-4.03413c0,0 1.96568,1.32887 3.06817,1.88202c1.08494,0.54433 3.6493,1.24938 3.6493,1.24938c0,0 -1.41492,2.49389 -2.099,3.02271c-0.63577,0.49148 -1.00154,0.94927 -2.02192,0.36577z" fill="#fb95a9" stroke="none" stroke-width="0"/><path d="M236.87711,202.37461c-0.64255,0.00319 1.45043,-1.13376 2.24678,-1.66161c0.88335,-0.58552 2.68804,-2.53086 2.74553,-2.16454c0.11627,0.74071 -1.32199,2.25496 -2.1291,2.78995c-0.87598,0.58065 -1.77244,1.03081 -2.8632,1.03622z" fill="#fc9ea5" stroke="none" stroke-width="0"/></g><g data-paper-data="{&quot;index&quot;:null}"><path d="M241.05602,156.261c0,2.29411 -1.25818,4.61538 -3,4.61538c-0.76278,0 -3.11037,-0.73494 -3.60601,-1.49437c-0.52018,-0.79702 -2.20134,-5.64467 -0.8631,-7.58224c0.2984,-0.43204 3.61307,-0.53877 3.93065,-0.53877c1.74182,0 3.53846,2.70589 3.53846,5z" fill="#fd96aa" stroke="#000000" stroke-width="1.5"/><path d="M238.14049,153.93573c0,4.48731 -3.19181,8.875 -7.4375,8.875c-4.24569,0 -6.5625,-3.26269 -6.5625,-7.75c0,-4.48731 3.06681,-8.375 7.3125,-8.375c0.42285,0 2.52519,-0.3495 4.87944,-1.18678c3.58981,-1.2767 8.28642,-3.06533 10.90324,-2.80277c0.41148,0.04129 0.96513,0.31779 1.36082,0.71617c0.443,0.44602 0.7075,1.02531 0.74205,1.20909c0.83269,4.42997 -5.98453,5.25017 -9.58073,5.89658c-1.33894,0.24067 -2.15109,0.83204 -2.15109,0.83204c0,0 0.53377,1.69476 0.53377,2.58568z" fill="#ffd5d5" stroke="#000000" stroke-width="2"/><path d="M225.10358,156.33634c0,0 1.31118,2.06283 3.21457,2.64476c0.63741,0.19487 -0.02157,-0.60386 0.96662,-0.65647c0.48158,-0.02564 1.71308,1.26414 3.2383,0.76702c1.8479,-0.60229 4.67142,-5.5735 4.67142,-5.5735c0,0 0.09418,3.12019 -1.52514,5.55894c-0.89188,1.34321 -2.3669,2.4797 -4.51488,2.7743c-1.38135,0.18945 -3.03094,-0.32712 -3.99461,-1.29818c-1.71101,-1.72412 -2.05627,-4.21688 -2.05627,-4.21688z" fill="#fb95a9" stroke="none" stroke-width="0"/><path d="M226.9791,160.8764c0,0 -0.1889,-0.61077 0.84803,-1.90619c0.80488,-1.00553 2.25406,-0.81564 2.20899,-0.57336c-0.05147,0.27667 -0.53704,0.76628 -0.86242,1.42386c-0.48657,0.98336 -0.34844,2.20255 -0.34844,2.20255z" fill="#000000" stroke="none" stroke-width="0"/><path d="M236.28679,158.95332c0,0 -0.00528,-1.80894 -0.31401,-2.63224c-0.30663,-0.81768 -1.22445,-2.21391 -1.22445,-2.21391c0,0 0.99221,0.41313 1.45799,0.67929c0.42856,0.24489 1.23432,0.85917 1.23432,0.85917z" fill="#000000" stroke="none" stroke-width="0"/><path d="M243.50261,143.57673c0,0 0.96222,-0.41929 1.72045,-0.51819c0.66775,-0.0871 2.25871,0.0043 2.25871,0.0043c0,0 0.17421,1.21756 -0.43926,1.86061c-0.97065,1.01744 -2.02554,1.21278 -2.84958,1.30382c-0.41762,0.04614 -0.69032,-0.58635 -0.69032,-0.96305z" fill="#f7426f" stroke="#000000" stroke-width="1"/></g><g data-paper-data="{&quot;index&quot;:null}"><path d="M270.32482,151.27122c0.98554,0.91565 2.69914,2.98473 2.37761,6.30422c-0.28178,2.90909 -4.38362,4.59501 -7.25167,4.59501c-3.68535,0 -4.09378,-3.88056 -4.09378,-3.88056c0,0 -1.37986,0.91927 -3.09615,0.6913c-1.53049,-0.20328 -2.9026,-1.60588 -3.51944,-4.12752c-0.21117,-1.71239 0.11239,-2.88628 0.52321,-3.91997c0.38389,-0.96592 1.31487,-1.99144 2.11654,-2.76018c1.19174,-1.14279 2.52968,-2.6382 5.42603,-2.6382c1.5625,0 4.83369,0.12169 8.09991,-0.41155c2.1263,-0.34715 4.01238,-0.96808 5.86219,-1.38272c1.67872,-0.37628 3.09727,-0.56713 4.03811,-0.52167c0.33355,0.01612 0.97651,0.15316 1.32961,0.83793c0.29813,0.57814 0.15478,1.26078 0.10625,1.44209c-1.58824,5.93383 -8.93545,5.69056 -11.57822,5.40151c-0.59388,-0.06496 -0.6994,-0.1063 -0.34018,0.22746z" fill="#ffd5d5" stroke="#000000" stroke-width="2"/><path d="M256.20446,151.35089c0,0 0.14235,2.17809 2.29704,2.33172c0.60189,0.04291 2.41805,-0.85162 4.01223,-2.32232c0.79204,-0.7307 1.16395,-2.64115 2.02732,-2.98534c0.05698,-0.02272 0.24744,-0.17084 0.53295,-0.09898c0.33181,0.0835 0.49079,0.32205 0.6147,0.32874c0.60663,0.03273 1.64317,0.1642 2.49583,0.176c1.96501,0.02719 4.28583,-0.22808 6.50634,-0.68366c2.5281,-0.51868 4.35553,-2.57434 5.47836,-2.79484c0.44269,-0.08694 1.17936,-0.0669 1.17936,-0.0669c0,0 -0.6693,2.06881 -1.88193,2.95162c-0.92901,0.67633 -1.98172,1.18858 -3.13835,1.47319c-3.39135,0.83451 -7.15032,0.23808 -7.15032,0.23808l-1.14731,1.12063c0,0 -0.27473,4.8443 1.15371,4.94696c0.29148,0.02095 0.60971,-0.5765 0.85243,-0.47295c0.55191,0.23546 0.40644,2.31029 0.78122,2.46812c0.56445,0.23771 0.82632,0.10593 0.82632,0.10593c0,0 -0.74914,1.54659 -2.39341,2.34197c-2.09132,1.01164 -4.38846,1.20925 -5.60484,0.66087c-1.51635,-0.68362 -2.33867,-3.40278 -2.33867,-3.40278c0,0 -3.06338,0.09194 -4.00015,-0.56226c-0.9902,-0.6915 -1.50132,-1.82235 -1.60252,-2.89405c-0.13686,-1.44935 0.49969,-2.85976 0.49969,-2.85976z" fill="#fb95a9" stroke="none" stroke-width="0"/><path d="M260.15097,158.48233c0,0 0.90401,-1.48142 0.97239,-2.35001c0.07167,-0.91042 -0.4879,-1.87333 -0.88459,-2.81069c-0.18257,-0.43139 -0.30178,-0.98281 -0.12077,-1.20562c0.14542,-0.179 0.53371,-0.09681 0.86714,0.05862c0.44538,0.20764 0.57266,0.52662 1.01192,0.75319c0.1529,0.07886 0.34458,0.26723 0.57724,0.29229c0.41666,0.04488 0.96464,-0.12835 1.65634,-0.21891c1.26798,-0.16602 2.84406,-1.58105 2.84406,-1.58105c0,0 -0.08929,1.58905 -0.50621,2.52936c-0.29641,0.75395 -3.60389,0.85701 -3.74836,1.12336c-0.35765,0.65941 -0.36178,1.879 -0.09219,2.50284c0.35788,0.82817 1.09261,0.97588 1.09261,0.97588z" fill="#000000" stroke="none" stroke-width="0"/><path d="M261.81267,157.51303c0,0 2.03082,0.996 4.34184,0.58636c1.47907,-0.26218 3.62044,-2.17882 3.62044,-2.17882c0,0 -0.63559,2.71144 -3.30238,3.50931c-0.23268,0.06962 -0.86955,0.23053 -1.5447,0.22818c-1.52548,-0.00532 -3.53062,-0.27563 -3.53062,-0.27563z" fill="#000000" stroke="none" stroke-width="0"/><path d="M257.46285,158.40311c-1.36072,-0.63778 -1.67383,-1.72093 -1.67383,-1.72093c0,0 0.32157,-0.60438 1.07624,-1.02583c0.4786,-0.26728 1.14418,-0.25328 1.3625,-0.1726c0.19699,0.07279 0.98738,0.56135 1.28218,1.20123c0.43638,0.94721 0.43333,2.07431 0.43333,2.07431c0,0 -1.27937,0.20676 -2.48041,-0.35618z" fill="#871847" stroke="#000000" stroke-width="1"/><path d="M270.25962,152.25098c0,0 -0.16751,-0.38189 -0.70469,-0.59158c-0.82041,-0.32025 -2.13404,-0.4002 -2.13404,-1.4163c0,-0.98501 4.50042,-0.20772 4.50042,-0.20772z" fill="#000000" stroke="none" stroke-width="0"/></g><g data-paper-data="{&quot;index&quot;:null}"><g><g><g><path d="M259.44664,123.94853c0.42765,-3.63851 3.16212,-6.30746 6.10758,-5.96124c2.94546,0.34621 4.98652,3.57646 4.55884,7.21498c-0.42767,3.63851 -3.16215,6.30746 -6.10761,5.96124c-2.94547,-0.34621 -4.98652,-3.57645 -4.55884,-7.21497z" fill="#fb95a9" stroke="#000000" stroke-width="2"/><path d="M243.7313,138.1558c-24.39459,-6.58868 -26.72846,-9.73303 -27.23132,-19.95538c-0.50285,-10.22237 14.18417,-9.494 28.64644,-10.20542c14.4623,-0.71143 22.00272,-1.68984 22.50557,8.53253c0.08203,1.66758 -2.64233,11.5287 -2.64233,11.5287c0,0 7.34853,4.95251 6.08224,8.82159c-1.38135,4.17431 -18.13278,3.7703 -27.3606,1.278z" fill="#ffd5d5" stroke="#000000" stroke-width="2"/><path d="M219.32379,111.31473c0,0 27.2871,-5.31352 33.47927,-5.61811c11.73247,-0.57714 13.76294,5.89942 13.99721,10.66212c0.10232,2.08022 -2.44588,10.25007 -2.44588,10.25007c0,0 -3.3022,-5.71389 -5.27141,-7.22662c-0.77965,-0.59893 -2.15607,-1.94006 -2.15607,-1.94006c0,0 -1.48446,1.45088 -2.31909,2.32386c-1.15556,1.20866 -4.03455,3.41848 -4.03455,3.41848l-0.53687,-3.79191l-4.62094,3.71081l-5.87084,-8.01543c0,0 -3.48068,5.18914 -6.00589,7.17092c-2.69248,2.11304 -9.67942,5.13886 -9.67942,5.13886l-3.96524,-0.72515c0,0 -2.51338,-5.26506 -2.61023,-7.87411c-0.09307,-2.5061 2.04001,-7.48379 2.04001,-7.48379z" fill="#fb95a9" stroke="none" stroke-width="0"/><path d="M209.88838,120.9504c-0.15717,-3.19449 -0.27321,-3.88709 1.62914,-5.45656c1.52513,-1.25824 7.75107,3.26882 7.90821,6.46331c0.15716,3.19448 -0.66464,6.25249 -2.63942,6.34964c-1.97479,0.09713 -6.61829,-3.31366 -6.80648,-7.13916z" fill="#ffd5d5" stroke="#000000" stroke-width="2.5"/><path d="M216.85006,127.46027c-0.70478,0.03467 -3.32202,-1.31313 -4.41532,-2.97684c-0.68256,-1.03864 -1.05631,-2.35654 -1.26096,-3.49325c-0.25096,-1.394 0.76358,-2.06172 2.03466,-1.38415c2.12593,1.13327 4.97881,2.89244 5.0432,4.20098c0.10287,2.09093 0.28278,3.57038 -1.40159,3.65324z" fill="#fb95a9" stroke="none" stroke-width="0"/><path d="M212.95016,118.90223c-0.03144,-0.63891 5.77902,6.04094 5.77902,6.04094l-0.92232,2.68087c0,0 -4.82525,-8.08293 -4.85668,-8.72184z" fill="#000000" stroke="none" stroke-width="0"/><path d="M215.85542,128.36693c-0.32056,-1.84115 1.33719,-3.36757 3.44598,-3.67311c2.10874,-0.30552 4.43719,-0.82161 5.20673,2.29735c0.13546,0.54902 0.92831,4.14723 -0.68926,5.83084c-0.25213,0.26243 -1.66646,1.24023 -3.0793,1.35522c-1.95115,0.15882 -3.12273,-0.34662 -3.12273,-0.34662c0,0 2.28913,-1.64742 2.0774,-1.80458c-0.67528,-0.50121 -3.56949,-2.11217 -3.83884,-3.65908z" fill="#6d0f0a" stroke="#000000" stroke-width="2"/><path d="M203.06355,126.34985c-7.02727,-4.26357 -9.34678,-8.39913 -9.34678,-8.39913c0,0 6.69483,-0.17092 9.01121,-2.22017c2.33489,-2.06563 4.88103,-11.38678 4.88103,-11.38678c0,0 23.11169,1.13919 32.90997,0.6572c9.0731,-0.4463 17.03439,-0.81371 22.86612,-1.07538c6.33849,-0.28439 11.81021,2.60446 12.6037,7.51749c0.19639,1.21582 0.4599,2.85329 0.49405,4.22955c0.1561,6.29053 -2.26057,11.92002 -2.26057,11.92002c0,0 -5.06012,-7.68457 -7.5338,-11.0324c-3.05939,-4.14048 -8.22034,-7.90386 -8.22034,-7.90386c0,0 -0.94474,3.8936 -2.59646,6.3865c-1.7098,2.58055 -4.87511,2.41609 -4.87511,2.41609c0,0 -0.19835,-3.18082 -0.78538,-4.65023c-0.54035,-1.35264 -1.53679,-3.90068 -1.61487,-2.73053c-0.07857,1.1771 -0.65573,3.97377 -0.8981,5.34997c-0.62734,3.56184 -1.19663,4.03734 -1.19663,4.03734c0,0 -1.80863,-3.23183 -3.63507,-6.25585c-1.55297,-2.5712 -4.12146,-4.03709 -4.12146,-4.03709c0,0 -4.7333,4.49181 -7.42525,6.30277c-2.43175,1.63593 -7.64413,4.07256 -7.64413,4.07256c0,0 2.16201,8.11923 -1.84842,7.71667c-2.83443,-0.28452 -4.0575,-0.80715 -5.54515,-2.02711c-0.89185,-0.73136 -1.13681,-3.7218 -1.13681,-3.7218l2.08527,0.55239c0,0 -1.18706,-6.2334 -2.52248,-6.60112c-2.35136,-0.64746 -0.56914,-0.94735 -4.06525,-0.68817c-0.50887,0.03773 -1.90651,3.06626 -1.70345,5.89934c0.21799,3.0416 2.0578,5.90113 2.0578,5.90113c0,0 -4.34751,1.91558 -7.77922,-0.16651z" fill="#6d0f0a" stroke="#000000" stroke-width="1.5"/><path d="M251.7329,107.46211c-0.97946,0.04816 -2.29064,-1.03263 -4.2708,-1.07685c-2.14529,-0.04793 -4.96863,0.94163 -6.09681,1.03572c-16.294,1.35948 -34.40535,3.2896 -34.40535,3.2896c0,0 0.67212,-2.61227 0.69777,-3.88511c0.02742,-1.35986 -0.22264,-4.04584 -0.22264,-4.04584c0,0 22.0954,1.70778 35.24073,1.06115c8.43495,-0.41495 17.307,-1.1959 22.88805,-0.68053c5.90956,0.54568 8.72794,2.3805 8.72794,2.3805l1.18381,6.85251l-2.55968,-0.56832l-6.34009,-6.19294c0,0 -10.35007,1.60906 -14.84293,1.83007z" fill="#6d0f0a" stroke="none" stroke-width="0"/><path d="M242.19388,134.69932c0,0 -3.06462,-4.67824 -2.93994,-4.88563c0.19184,-0.31911 8.87343,1.75488 8.9081,2.14459c0.03309,0.37184 -5.96816,2.74104 -5.96816,2.74104z" fill="#ef3d61" stroke="#000000" stroke-width="1.5"/><path d="M226.76482,113.91015c0,0 1.58228,1.68661 2.46283,2.25724c0.81039,0.52517 2.18087,0.53642 2.18087,0.53642c0,0 -0.3424,-0.74457 -0.68335,-1.51948c-0.35559,-0.80819 -0.91035,-3.118 -0.91035,-3.118c0,0 1.28527,1.74385 1.94582,2.34714c0.63169,0.57696 2.15538,1.39706 2.15538,1.39706c0,0 2.5877,-0.17565 4.28984,-0.25937c4.4557,-0.21917 7.5018,2.7936 7.5018,2.7936c0,0 -2.45398,-0.56141 -3.31048,-0.7266c-0.60838,-0.11739 -1.33671,-0.03101 -1.33671,-0.03101c0,0 0.56928,8.49324 -5.79165,8.87641c-5.20994,0.31385 -4.10969,-6.78109 -4.32856,-7.15675c-0.15857,-0.27215 -1.08577,-1.11747 -1.08577,-1.11747c0,0 -1.46387,-0.83441 -1.95456,-1.49846c-0.5338,-0.72241 -1.13508,-2.78074 -1.13508,-2.78074z" fill="#000000" stroke="none" stroke-width="0"/></g><path d="M275.27311,110.4149c0,0 -0.46002,-2.72574 -0.79231,-4.09177c-0.31775,-1.30627 -1.15987,-3.93313 -1.15987,-3.93313c0,0 1.09497,0.65472 1.77417,2.96761c0.44391,1.51161 1.53158,5.43568 1.53158,5.43568z" fill="#000000" stroke="none" stroke-width="0"/></g></g><path d="M251.7776,117.14048c0.52014,-0.23068 1.73428,-0.19747 3.0768,0.17185c1.37604,0.37855 2.54334,1.07798 2.88253,1.24976c0.67008,0.3394 1.91231,-0.039 1.91231,-0.039c0,0 1.21809,-0.66277 1.90187,-1.18393c0.57404,-0.43752 1.89666,-2.24048 1.89666,-2.24048c0,0 0.00478,1.50222 -1.12155,3.14646c-0.46412,0.67756 -1.74705,1.88655 -1.74705,1.88655c0,0 1.03439,0.08084 2.19718,-0.18103c0.87344,-0.19669 3.0154,-1.56943 3.0154,-1.56943c0,0 -0.92534,1.73926 -1.58639,2.49012c-0.45649,0.51848 -1.60777,1.16997 -1.60777,1.16997l-0.18228,1.02469c0,0 -1.55749,-1.79111 -2.36458,-2.17479c-0.65258,-0.31022 -2.24793,-0.07195 -2.24793,-0.07195c0,0 0.16786,7.71495 -4.71116,7.90542c-3.80421,0.14852 -4.25417,-1.8153 -4.46157,-5.00692c-0.12595,-1.93816 0.25051,-5.29253 3.14753,-6.57729z" fill="#000000" stroke="none" stroke-width="0"/></g></g></g></svg>