<svg version="1.1" xmlns="http://www.w3.org/2000/svg" xmlns:xlink="http://www.w3.org/1999/xlink" width="306.30631" height="274.77477" viewBox="0,0,306.30631,274.77477"><g transform="translate(-86.84686,-42.61264)"><g data-paper-data="{&quot;isPaintingLayer&quot;:true}" fill-rule="nonzero" stroke-linecap="butt" stroke-linejoin="miter" stroke-miterlimit="10" stroke-dasharray="" stroke-dashoffset="0" style="mix-blend-mode: normal"><path d="M86.84686,317.38741v-274.77477h306.30631v274.77477z" data-paper-data="{&quot;index&quot;:null}" fill="none" stroke="none" stroke-width="0"/><text transform="translate(271.55605,110.72268) rotate(-180) scale(0.1602,-0.1602)" font-size="40" xml:space="preserve" data-paper-data="{&quot;index&quot;:null}" fill="#000000" fill-rule="nonzero" stroke="none" stroke-width="1" stroke-linecap="butt" stroke-linejoin="miter" stroke-miterlimit="10" stroke-dasharray="" stroke-dashoffset="0" font-family="Sans Serif" font-weight="normal" text-anchor="start" style="mix-blend-mode: normal"><tspan x="0" dy="0">AwezomeXD</tspan><tspan x="0" dy="46.150000000000006px"> </tspan><tspan x="0" dy="46.150000000000006px">MeIzAwezomeDede</tspan></text><g data-paper-data="{&quot;index&quot;:null}"><g><g><g><path d="M197.15277,131.14042c0,0 -5.03173,-11.0504 1.98638,-16.8465c4.98175,-4.11433 21.35423,-1.58512 32.07002,-4.31043c12.18138,-3.09805 34.93439,-9.90178 34.93439,-9.90178c0,0 5.70387,2.13382 7.6366,1.71512c2.41321,-0.5228 4.29039,-4.33381 4.29039,-4.33381c0,0 1.24379,3.9746 1.57496,7.3182c1.24737,12.59417 -8.55408,14.12567 -8.55408,14.12567c0,0 4.7215,5.06459 5.52272,9.2892c0.84218,4.44087 -2.41107,7.40621 -2.41107,7.40621c0,0 2.98138,3.09417 3.67304,6.62291c0.4566,2.32954 0.54877,6.2588 0.57195,8.71382c0.03961,4.18947 7.97887,7.07101 7.97887,7.07101c0,0 -3.4432,3.83597 -6.1101,4.77618c-2.71449,0.95696 -9.42495,-1.05243 -9.42495,-1.05243c0,0 -2.34407,1.01356 -2.39981,3.88081c-0.01756,0.90386 0.55638,2.88657 0.83897,3.79456c0.95316,3.06264 -0.6557,5.58305 -0.6557,5.58305c0,0 -2.02498,-3.18525 -2.94859,-3.91214c-0.67786,-0.53349 -1.30325,-0.63272 -1.30325,-0.63272c0,0 -0.73662,4.49706 0.00911,6.8972c1.65868,5.33841 4.67425,11.80889 3.45309,12.13665c-2.20809,0.59261 -5.42091,-2.88552 -8.05283,-2.90386c-2.42242,-0.01689 -5.77949,-5.96995 -5.77949,-5.96995c0,0 -0.93679,7.02412 -3.6176,8.29252c-2.60147,1.23088 -3.44388,6.57137 -4.57792,6.86898c-4.13397,1.0849 -10.86912,-11.01303 -10.86912,-11.01303c0,0 -10.74621,10.18789 -13.90225,8.12048c-3.72487,-2.44007 -7.10665,-17.99573 -7.10665,-17.99573c0,0 -6.14401,-3.7338 -6.99109,-6.46625c-1.90235,-6.13659 0.48884,-11.5878 0.48884,-11.5878c0,0 -3.12749,0.81355 -4.51948,2.20032c-1.47956,1.47402 -4.11119,6.39793 -4.11119,6.39793c0,0 -2.06268,-5.35453 -2.01968,-8.079c0.04526,-2.86509 2.28481,-8.7109 2.28481,-8.7109c0,0 -5.19869,-2.83844 -7.83545,-7.7209c-1.41319,-2.61677 -1.43369,-8.69246 -1.43369,-8.69246c0,0 4.77051,3.25224 6.60056,3.55028c1.4196,0.23118 1.00848,-2.75476 1.00848,-2.75476z" fill="#6d0f0a" stroke="#000000" stroke-width="2"/><path d="M202.78849,134.36344c-1.80676,1.35241 -4.9086,-0.59169 -4.9086,-0.59169c0,0 -7.08838,-14.84473 -6.73764,-25.08752c0.18988,-5.54524 3.63753,-13.0167 5.64651,-18.11807c2.84704,-7.22937 10.74261,-11.71889 17.73806,-13.49802c9.19599,-2.33876 17.30417,5.81183 17.30417,5.81183c0,0 8.89971,-5.78624 16.35513,-5.45046c7.20259,0.32436 13.46188,7.25914 15.15526,8.95289c2.57978,2.58033 6.82454,15.88767 6.82454,15.88767c0,0 -22.86101,26.42678 -37.43626,30.13361c-15.57077,3.96002 -22.84348,-4.78517 -27.97836,-0.94158z" fill="#6d0f0a" stroke="#000000" stroke-width="2"/><path d="M195.50924,95.6129c0,0 1.55202,-3.46128 2.41265,-5.00232c0.8211,-1.47022 2.63817,-4.04153 2.63817,-4.04153c0,0 9.20812,4.58886 13.76549,5.20997c4.77572,0.65086 11.97542,-2.65892 11.97542,-2.65892c0,0 0.44338,2.27773 0.85336,3.16397c0.43346,0.93699 1.22061,2.4313 1.22061,2.4313c0,0 0.89159,-2.03342 1.08004,-2.86489c0.20353,-0.89807 0.4816,-2.76303 0.4816,-2.76303c0,0 2.33695,3.41194 3.35478,4.66107c0.8335,1.02293 2.31046,2.29157 2.31046,2.29157c0,0 -0.42794,-2.09041 -0.73124,-3.16067c-0.32114,-1.13311 -1.14513,-3.46024 -1.14513,-3.46024c0,0 10.12881,2.64616 16.23682,3.21711c0.12262,0.01146 4.64697,-0.89351 4.99127,-0.91372c7.40292,-0.43437 3.30542,-9.17354 3.30542,-9.17354c0,0 3.3826,2.89401 5.01974,5.69549c1.66046,2.84139 4.874,11.23479 4.874,11.23479c0,0 -5.80168,-2.11499 -10.83557,-1.68339c-0.89324,0.07659 -10.50589,1.43847 -10.50589,1.43847c0,0 -1.80123,-1.85231 -2.72531,-2.59411c-0.90554,-0.72692 -2.76461,-1.81289 -2.76461,-1.81289c0,0 -0.832,2.05651 -1.19776,3.29807c-0.43944,1.49159 -1.25855,5.03974 -1.25855,5.03974c0,0 -1.22098,-1.67214 -2.04761,-2.53455c-0.91962,-0.95944 -3.22084,-2.9622 -3.22084,-2.9622c0,0 -1.20819,0.69854 -1.82618,1.31003c-0.8579,0.84889 -2.84198,3.30886 -2.84198,3.30886c0,0 -1.29716,-2.67733 -2.01523,-3.84093c-0.62126,-1.00673 -2.045,-2.7386 -2.045,-2.7386c0,0 -1.39515,1.42837 -2.10177,2.33482c-0.88176,1.13114 -2.78074,3.92838 -2.78074,3.92838c0,0 -8.59601,-6.44625 -12.80218,-7.53886c-3.93449,-1.02207 -11.67419,1.1808 -11.67419,1.1808z" fill="#c42d06" stroke="none" stroke-width="0"/></g><path d="M219.41875,137.99561c0,0 -19.1653,-2.91501 -19.75749,-4.2537c-0.10273,-0.23222 1.14395,-9.16318 0.76875,-9.98797c-0.68535,-1.50654 -4.83642,0.3522 -4.83642,0.3522c0,0 61.56679,-19.38687 71.2824,-22.0108c2.47514,-0.66848 5.47734,1.28516 5.47734,1.28516l-8.28278,20.85149z" fill="#6d0f0a" stroke="none" stroke-width="NaN"/></g><path d="M233.26045,83.93162c0,0 -4.49748,-1.0089 -3.75601,-6.78358c0.0391,-0.30425 0.50053,-1.57616 0.68033,-1.86944c1.37776,-2.24726 6.22984,-3.31644 6.22984,-3.31644c0,0 -2.3019,4.97711 -3.04381,6.66946c-0.66131,1.50845 -0.11033,5.30002 -0.11033,5.30002z" fill="#6d0f0a" stroke="#000000" stroke-width="1.5"/><path d="M226.2398,74.01232c0,0 1.50052,0.81269 2.20462,2.45932c0.5329,0.78895 1.23827,3.58662 1.23827,3.58662l-2.02783,-0.78802z" fill="#000000" stroke="none" stroke-width="0"/></g><path d="M232.19109,82.60596l3.728,-0.59577c0,0 -2.16527,4.76072 -2.65145,5.00426c-0.68065,0.34097 -4.04479,-4.52924 -4.04479,-4.52924z" fill="#6d0f0a" stroke="none" stroke-width="0"/></g><g data-paper-data="{&quot;index&quot;:null}"><text transform="translate(294.68338,229.00289) rotate(-180) scale(0.27921,-0.27921)" font-size="40" xml:space="preserve" fill="#000000" fill-rule="nonzero" stroke="none" stroke-width="1" stroke-linecap="butt" stroke-linejoin="miter" stroke-miterlimit="10" stroke-dasharray="" stroke-dashoffset="0" font-family="Sans Serif" font-weight="normal" text-anchor="start" style="mix-blend-mode: normal"><tspan x="0" dy="0">AwezomeXD</tspan><tspan x="0" dy="46.150000000000006px"> </tspan><tspan x="0" dy="46.150000000000006px">MeIzAwezomeDede</tspan></text><g data-paper-data="{&quot;index&quot;:null}"><g><path d="M304.61432,280.7271c-0.97394,-0.3343 -2.81981,-1.05375 -2.81981,-1.05375l2.00112,-62.99775c0,0 3.12264,-3.42551 4.77674,-5.10754c1.78782,-1.81801 6.83093,-5.9246 6.83093,-5.9246c0,0 5.94054,0.17965 11.08569,1.75457c7.39586,2.26385 29.04162,10.52827 29.04162,10.52827c0,0 -0.29139,23.00613 -1.11993,33.98866c-0.74728,9.90532 -3.63272,29.00908 -3.63272,29.00908c0,0 -14.3168,1.48011 -21.61682,1.59314c-7.15813,0.11083 -21.76596,-0.92143 -21.76596,-0.92143c0,0 -1.89659,-0.56514 -2.78087,-0.86866z" fill="#434253" stroke="#000000" stroke-width="2.5"/><path d="M306.04173,281.58894c0,0 3.19421,-16.34268 5.26935,-30.13714c1.48339,-9.86081 2.04443,-18.33187 2.06476,-19.00203c0.15509,-5.11269 -0.3723,-9.50368 -0.00091,-14.70459c0.49814,-6.97594 1.18056,-11.43244 1.18056,-11.43244l2.10035,-1.22928c0,0 -1.17975,18.14658 -2.93073,35.27697c-0.73182,7.15966 -2.77258,22.22022 -3.75528,31.64788c-0.10799,1.03599 0.50491,2.39047 0.4064,3.33489c-0.55015,5.27458 -0.93311,6.24975 -0.93311,6.24975l-3.40139,-0.00403z" fill="#000000" stroke="none" stroke-width="0"/></g><g stroke="#000000" stroke-width="1.5"><path d="M345.29833,263.35312c0.94113,9.66742 -4.93088,16.17699 -12.88074,16.95092c-7.94986,0.77393 -14.77082,-5.25083 -14.91119,-14.96294c-0.15638,-10.82018 5.8426,-16.14324 12.54261,-16.73861c6.71115,-0.59636 14.44659,6.50489 15.24932,14.75063z" fill="#2c262f"/><path d="M323.67438,268.45714c-0.26544,-2.72671 1.31874,-5.06632 3.56101,-5.2846c2.24227,-0.21828 3.76096,1.25807 4.0264,3.98478c0.26545,2.72671 -1.3891,5.14677 -3.63137,5.36505c-2.24227,0.21828 -3.69059,-1.33852 -3.95603,-4.06523z" data-paper-data="{&quot;index&quot;:null}" fill="#1b171c"/></g><g stroke="#000000" stroke-width="1.5"><path d="M334.90073,214.22597c6.72176,-0.46163 14.18059,7.06601 14.65957,15.33688c0.56156,9.69688 -5.56103,15.97134 -13.53511,16.43313c-7.97408,0.46179 -14.55372,-5.82563 -14.31338,-15.53578c0.26776,-10.81801 6.4647,-15.77245 13.18893,-16.23424z" fill="#2c262f"/><path d="M327.75296,233.81557c-0.15839,-2.73501 1.51626,-5.01074 3.76536,-5.14099c2.2491,-0.13025 3.70876,1.40448 3.86715,4.1395c0.15839,2.73502 -1.58973,5.08838 -3.83883,5.21863c-2.2491,0.13025 -3.6353,-1.48212 -3.79369,-4.21714z" data-paper-data="{&quot;index&quot;:null}" fill="#1b171c"/></g></g><g><g><path d="M178.20551,279.8001c0,0 -1.84588,0.71945 -2.81982,1.05375c-0.88428,0.30352 -2.78086,0.86866 -2.78086,0.86866c0,0 -14.60784,1.03226 -21.76596,0.92143c-7.30001,-0.11302 -21.61681,-1.59314 -21.61681,-1.59314c0,0 -2.88544,-19.10377 -3.63272,-29.00909c-0.82854,-10.98252 -1.11993,-33.98866 -1.11993,-33.98866c0,0 21.64575,-8.26442 29.04162,-10.52827c5.14515,-1.57491 11.08569,-1.75457 11.08569,-1.75457c0,0 5.04312,4.1066 6.83094,5.9246c1.6541,1.68203 4.77674,5.10754 4.77674,5.10754l2.00112,62.99775z" fill="#434253" stroke="#000000" stroke-width="2.5"/><path d="M173.95829,281.71567l-3.40139,0.00403c0,0 -0.38295,-0.97517 -0.93311,-6.24976c-0.0985,-0.94441 0.51439,-2.2989 0.40641,-3.33488c-0.98271,-9.42766 -3.02346,-24.48823 -3.75529,-31.64789c-1.75097,-17.13039 -2.93073,-35.27697 -2.93073,-35.27697l2.10035,1.22928c0,0 0.68243,4.4565 1.18057,11.43244c0.37139,5.20091 -0.156,9.59191 -0.00092,14.70459c0.02033,0.67016 0.58138,9.14123 2.06477,19.00203c2.07514,13.79446 5.26935,30.13713 5.26935,30.13713z" fill="#000000" stroke="none" stroke-width="0"/></g><g stroke="#000000" stroke-width="1.5"><path d="M134.70169,263.47986c0.80273,-8.24574 8.53818,-15.34698 15.24933,-14.75062c6.70001,0.59537 12.69899,5.91843 12.54261,16.73861c-0.14037,9.71211 -6.96134,15.73687 -14.9112,14.96294c-7.94986,-0.77392 -13.82187,-7.2835 -12.88074,-16.95092z" fill="#2c262f"/><path d="M152.76465,263.29931c2.24227,0.21828 3.82645,2.55788 3.56101,5.28459c-0.26545,2.72671 -1.71376,4.28351 -3.95603,4.06523c-2.24227,-0.21829 -3.89681,-2.63834 -3.63137,-5.36505c0.26544,-2.72671 1.78413,-4.20306 4.0264,-3.98478z" data-paper-data="{&quot;index&quot;:null}" fill="#1b171c"/></g><g stroke="#000000" stroke-width="1.5"><path d="M130.43973,229.6896c0.47898,-8.27087 7.9378,-15.79851 14.65956,-15.33689c6.72423,0.46179 12.92117,5.41624 13.18893,16.23424c0.24034,9.71016 -6.33929,15.99758 -14.31338,15.53579c-7.97409,-0.46179 -14.09668,-6.73625 -13.53512,-16.43313z" fill="#2c262f"/><path d="M152.24708,233.94232c-0.15839,2.73501 -1.54458,4.34738 -3.79368,4.21713c-2.2491,-0.13025 -3.99721,-2.48361 -3.83882,-5.21863c0.15839,-2.73501 1.61804,-4.26975 3.86714,-4.1395c2.2491,0.13025 3.92375,2.40598 3.76536,5.141z" data-paper-data="{&quot;index&quot;:null}" fill="#1b171c"/></g></g><g stroke="#000000"><g fill="#434253"><path d="M302.93639,282.15581c0,0 -39.39406,0.31655 -59.64769,0.31655c-21.72904,0 -66.6118,-0.31655 -66.6118,-0.31655c0,0 -2.38216,-40.33861 -2.16309,-60.75635c0.20152,-18.78125 2.16309,-54.08575 2.16309,-54.08575c0,0 42.82931,-1.2662 64.39595,-1.2662c21.14461,0 59.33114,1.58275 59.33114,1.58275c0,0 4.66352,44.84767 4.63123,67.07726c-0.03994,25.54257 -2.09882,47.44828 -2.09882,47.44828z" stroke-width="2.5"/><path d="M182.62638,273.74782c1.29409,0 2.34316,0.94416 2.34316,2.10884c0,1.16468 -1.04906,2.10884 -2.34316,2.10884c-1.29409,0 -2.34316,-0.94416 -2.34316,-2.10884c0,-1.16468 1.04906,-2.10884 2.34316,-2.10884z" stroke-width="2"/><path d="M296.08664,273.11069c1.29409,0 2.34316,0.94416 2.34316,2.10884c0,1.16468 -1.04907,2.10884 -2.34316,2.10884c-1.29409,0 -2.34316,-0.94416 -2.34316,-2.10884c0,-1.16468 1.04907,-2.10884 2.34316,-2.10884z" stroke-width="2"/><path d="M291.83152,175.44761c-0.48529,-1.12251 0.08425,-2.44878 1.27209,-2.9623c1.18785,-0.51352 2.54417,-0.01985 3.02946,1.10266c0.48528,1.12251 -0.08426,2.44879 -1.2721,2.96231c-1.18785,0.51352 -2.54417,0.01984 -3.02946,-1.10267z" stroke-width="2"/><path d="M180.91759,172.05907c1.18784,-0.51352 2.54418,-0.01985 3.02946,1.10266c0.48528,1.12251 -0.08426,2.44879 -1.2721,2.96231c-1.18784,0.51352 -2.54417,0.01984 -3.02945,-1.10267c-0.48528,-1.12251 0.08425,-2.44878 1.27209,-2.9623z" stroke-width="2"/></g><g><path d="M187.36314,208.89733c-2.36044,-6.40232 -2.14847,-24.22034 1.17777,-27.70117c8.80798,-9.21732 26.01104,-9.48636 48.15555,-9.48636c20.7312,0 40.80646,1.21551 50.19223,9.11804c4.42593,3.72649 4.09175,24.72433 0.61728,30.38921c-5.21713,8.50616 -20.51325,11.67052 -51.0204,11.67052c-30.50715,0 -45.72795,-4.44989 -49.12243,-13.65691z" fill="#434253" stroke-width="2"/><path d="M191.46434,207.31699c-2.1792,-5.67588 -1.98352,-21.47217 1.08734,-24.55804c8.13172,-8.17147 24.01396,-7.77733 44.45825,-7.77733c19.1395,0 37.67343,0.44494 46.33857,7.45081c4.08612,3.30367 3.77759,21.91897 0.56988,26.94108c-4.81657,7.54101 -18.93828,9.50278 -47.10314,9.50278c-28.16487,0 -42.21704,-3.39695 -45.3509,-11.55929z" fill="#2c262f" stroke-width="1.5"/><path d="M216.73027,204.30871c-0.84859,-2.4182 -0.77238,-9.14817 0.42343,-10.4629c3.16654,-3.48144 9.35117,-4.21571 17.31229,-4.21571c7.45303,0 14.67023,1.09175 18.04449,4.07659c1.59116,1.40752 1.47102,9.33853 0.22192,11.47819c-1.8756,3.21283 -7.37467,4.61891 -18.34223,4.61891c-10.96755,0 -16.43956,-1.85087 -17.65989,-5.32841z" fill="#1b171c" stroke-width="1.5"/></g><g><path d="M187.36314,264.28152c-2.36044,-6.40232 -2.14847,-24.22034 1.17777,-27.70116c8.80798,-9.21732 26.01104,-9.48637 48.15555,-9.48637c20.7312,0 40.80646,1.21551 50.19223,9.11804c4.42593,3.7265 4.09175,24.72433 0.61728,30.38921c-5.21713,8.50616 -20.51325,11.67052 -51.0204,11.67052c-30.50715,0 -45.72795,-4.4499 -49.12243,-13.65692z" fill="#434253" stroke-width="2"/><path d="M191.46434,262.70116c-2.1792,-5.67588 -1.98352,-21.47217 1.08734,-24.55804c8.13172,-8.17147 24.01396,-7.77734 44.45825,-7.77734c19.1395,0 37.67343,0.44494 46.33857,7.45081c4.08612,3.30367 3.77759,21.91898 0.56988,26.94109c-4.81657,7.54101 -18.93828,9.50278 -47.10314,9.50278c-28.16487,0 -42.21704,-3.39695 -45.3509,-11.55929z" fill="#2c262f" stroke-width="1.5"/><path d="M216.73027,259.6929c-0.84859,-2.41819 -0.77238,-9.14816 0.42343,-10.46289c3.16654,-3.48144 9.35117,-4.21571 17.31229,-4.21571c7.45303,0 14.67023,1.09175 18.04449,4.07659c1.59116,1.40752 1.47102,9.33852 0.22192,11.47818c-1.8756,3.21283 -7.37467,4.61891 -18.34223,4.61891c-10.96755,0 -16.43956,-1.85087 -17.65989,-5.32842z" fill="#1b171c" stroke-width="1.5"/></g></g></g><path d="M251.3121,133.24504c0,0 3.31848,0.88777 4.81931,4.20915c1.22346,2.70754 0.73583,7.87095 0.37996,8.61908c-1.6779,3.52735 -1.45669,6.73729 -2.09274,7.98323c-1.40471,2.75164 -2.80652,-0.41146 -2.80652,-0.41146l-6.4,-17.3l6.1,-3.1z" data-paper-data="{&quot;index&quot;:null}" fill="#fb95a9" stroke="#000000" stroke-width="2"/><g data-paper-data="{&quot;index&quot;:null}"><path d="M228.1467,131.62459c2.41131,-2.95149 10.53162,-0.25987 12.59919,3.86227c0.26008,0.51854 1.70637,-0.66733 5.40284,0.98163c0.86997,0.38809 5.3323,2.85511 7.98427,6.04894c1.26983,1.52929 2.1246,3.99593 1.97118,5.03194c-0.22905,2.80784 -2.67033,5.18657 -4.85989,7.14774c-2.87249,2.57284 1.75248,7.33006 -2.40533,7.33006c-3.03121,0 -16.54137,0.60747 -18.69314,-0.7284c-1.28409,-0.79719 -0.53199,-7.61244 -0.88049,-9.01861c-0.48674,-1.96396 -4.99822,-4.40189 -4.99822,-6.61256c0,-2.58633 2.29137,-12.099 3.87959,-14.04301z" fill="#ee1536" stroke="#000000" stroke-width="2"/><path d="M244.25869,151.8137c0,-3.14019 3.56399,-6.94934 7.26523,-7.10728c3.22449,-0.13759 3.97211,2.15654 3.0535,5.15937c-1.10558,3.61402 -4.40634,5.42259 -7.63376,5.42259c-0.06272,0 2.08362,-1.58996 2.84464,-0.28992c1.01358,1.73146 0.66979,6.51156 0.03616,6.86773c-2.98614,1.67855 -13.402,-0.74155 -16.31172,-0.67209c-0.60085,0.01435 -2.90823,0.59035 -3.45604,-1.26733c-0.44915,-1.5231 0.38106,-5.65028 0.34354,-5.65555c-0.60286,-0.08461 -1.36799,-4.06688 -1.36799,-4.06688c0,0 -2.86476,-2.27685 -2.9505,-2.85725c-0.15338,-1.03828 2.10836,-2.8435 2.10836,-2.8435c0,0 1.25189,1.00644 1.97555,1.57762c0.66583,0.52553 1.57561,2.98741 1.57561,2.98741c0,0 4.12841,-5.5717 8.29185,-4.21031c5.58397,1.82588 4.22558,7.21129 4.22558,6.95539z" fill="#9a1652" stroke="none" stroke-width="0"/><path d="M230.76903,160.80367c0.86132,-1.55025 8.52088,-5.58592 9.70316,-7.17085c2.60911,-3.4977 4.57621,-6.08348 4.57621,-6.08348c0,0 0.91108,5.32297 -0.66029,9.58239c-1.16307,3.15265 6.61433,5.47453 5.8723,5.47453c-1.74455,0 -20.27813,-0.38656 -19.49138,-1.80259z" fill="#000000" stroke="none" stroke-width="0"/></g><g data-paper-data="{&quot;index&quot;:null}"><path d="M230.35842,144.96492c-0.33324,5.14108 -6.5882,17.43845 -6.5882,17.43845c0,0 -0.58035,1.27915 -1.58087,2.3327c-0.55664,0.58613 -0.90619,1.15553 -2.16578,1.2688c-0.84248,0.07577 -3.46955,-0.64919 -4.34205,-1.88079c-0.76369,-1.078 -0.42185,-3.38402 -0.33544,-4.15208c0.34268,-3.04586 1.83083,-7.14164 2.56254,-12.06937c0.9098,-6.1271 1.41437,-13.64095 2.48637,-15.89263c0.27655,-0.58087 1.05635,0.41211 1.34164,0.4263c1.25362,0.06236 1.79691,0.67283 3.33346,1.99542c2.62075,2.2558 5.55484,6.13572 5.28833,10.24747z" fill="#ffd5d5" stroke="#000000" stroke-width="2"/><path d="M224.42719,158.82232c0,0 -0.61416,2.61026 -1.9443,4.38467c-0.82651,1.1026 -1.63723,1.74755 -2.39862,1.78563c-1.37066,0.06855 -3.40002,-0.49683 -3.89036,-1.82014c-1.18008,-3.18477 2.32573,-12.09699 2.32573,-12.09699l5.90755,7.74684z" fill="#fb95a9" stroke="none" stroke-width="0"/></g><g data-paper-data="{&quot;index&quot;:null}"><path d="M260.38221,188.93107c-1.09864,-0.59901 -2.82764,-1.74777 -4.64728,-5.34029c-1.09379,-2.15945 -1.66556,-4.28197 -0.93868,-4.93061c2.24912,-2.00702 13.14579,-3.55099 13.24963,-3.55541c6.30957,-0.26844 15.03277,4.06633 15.14845,6.78538c0.09173,2.15621 -5.44045,5.32243 -11.64894,5.37775c-9.18177,0.08179 -12.79065,-3.88942 -12.99583,-4.09905c-0.81446,-0.8321 1.01193,1.50813 1.71543,2.44067c0.8063,1.06882 2.17267,1.78024 2.03363,2.86392c-0.15888,1.23834 -1.00552,0.95426 -1.91641,0.45763z" fill="#ee1536" stroke="#000000" stroke-width="1.5"/><path d="M223.98972,167.585c-0.15288,-3.59328 1.59159,-6.86774 4.61187,-9.33179c4.01186,-3.27302 10.07765,-5.20445 15.01638,-5.41457c5.31514,-0.22613 12.34828,-0.7249 14.45062,1.47982c0.57066,0.59844 0.25865,3.34949 0.72329,5.93846c0.26704,1.48801 1.2286,5.08072 2.40529,7.95696c0.85633,2.09321 1.87815,4.48752 3.02373,4.74933c4.75003,1.08559 11.48752,3.35359 9.91606,5.97567c-1.19415,1.99253 -8.61293,2.54226 -14.60346,0.99601c-5.39196,-1.39176 -9.35144,-4.78139 -11.31408,-5.1834c-3.32953,-0.68199 -10.22564,1.8705 -13.60125,1.54753c-2.19951,-0.21044 -4.14256,-0.85136 -5.61038,-1.55976c-3.6378,-1.75567 -4.92346,-4.93134 -5.01804,-7.15427z" fill="#ffd5d5" stroke="#000000" stroke-width="1.5"/><path d="M254.04653,162.60053c0,0 1.49758,-1.20136 2.12661,-1.93226c0.5703,-0.66265 1.48865,-2.26847 1.48865,-2.26847c0,0 0.5781,2.40953 0.85083,3.64246c0.24658,1.11471 0.715,3.43626 0.715,3.43626c0,0 -2.1869,-0.47524 -3.12258,-0.995c-0.74988,-0.41653 -2.05851,-1.88298 -2.05851,-1.88298z" fill="#fb95a9" stroke="none" stroke-width="0"/><path d="M275.43269,178.66782c0.15449,-0.36084 1.6679,-0.20754 2.99098,0.35897c1.32307,0.5665 2.78407,2.24491 2.62957,2.60575c-0.15449,0.36083 -1.56381,-1.06155 -2.88689,-1.62806c-1.32307,-0.56651 -2.88815,-0.97582 -2.73365,-1.33666z" fill="#fc9ea5" stroke="none" stroke-width="0"/></g><g data-paper-data="{&quot;index&quot;:null}"><path d="M230.5987,186.7121c2.80202,-6.24782 8.01232,-7.80587 12.58874,-5.75342c4.57644,2.05244 6.2194,8.16287 3.41737,14.41069c-2.80202,6.24783 -11.70105,11.41812 -15.09951,9.68382c-3.36482,-1.71713 -3.89965,-11.77326 -1.09762,-18.02108z" fill="#ee1536" stroke="#000000" stroke-width="1.5"/><path d="M233.21171,184.03913c0,0 2.11959,-2.7768 4.44537,-3.32703c0.78014,-0.18456 4.07363,0.40387 6.48604,2.12727c1.63969,1.17136 2.66909,3.30635 3.01507,4.37288c0.59592,1.83703 -0.04428,3.76268 -0.04428,3.76268c0,0 -1.88491,1.59012 -5.49481,1.32057c-1.89829,-0.14174 -4.52602,-2.32483 -6.15162,-4.50201c-1.46571,-1.96305 -2.25575,-3.75434 -2.25575,-3.75434z" fill="#9a1652" stroke="none" stroke-width="0"/><path d="M238.05958,174.44089c0.84374,-7.05782 2.65684,-10.74533 11.04903,-10.10317c4.90681,0.37545 6.27813,6.12552 5.85777,8.51473c-1.4064,7.99356 -10.35984,14.72206 -10.35984,14.72206c0,0 1.05599,8.06255 -7.29596,8.73104c-4.08412,0.3269 -3.82434,-6.683 -3.08176,-8.3616c1.34813,-3.04742 3.61899,-4.77196 3.61899,-4.77196c0,0 -0.16317,-5.59496 0.21176,-8.7311z" fill="#ffd5d5" stroke="#000000" stroke-width="1.5"/><path d="M245.13144,176.08886c-0.95894,-0.6798 -1.14469,-1.66037 -1.43609,-2.63757c-0.35164,-1.17916 -0.51545,-4.10352 -0.51545,-4.10352c0,0 1.82743,1.51337 2.87104,2.17091c1.02699,0.64706 3.51082,1.59765 3.51082,1.59765c0,0 -1.65026,2.34479 -2.38244,2.80473c-0.68047,0.42747 -1.08894,0.8476 -2.04787,0.16782z" fill="#fb95a9" stroke="none" stroke-width="0"/><path d="M234.81536,202.35197c-0.63983,-0.05918 1.55362,-0.98764 2.39744,-1.43572c0.93601,-0.49702 2.92098,-2.25803 2.94264,-1.88786c0.04382,0.74851 -1.53459,2.11603 -2.38982,2.57016c-0.9282,0.4929 -1.86411,0.85394 -2.95025,0.75346z" fill="#fc9ea5" stroke="none" stroke-width="0"/></g><g data-paper-data="{&quot;index&quot;:null}"><path d="M246.32183,151.22292c0.31758,0 3.63225,0.10673 3.93065,0.53877c1.33824,1.93757 -0.34292,6.78522 -0.8631,7.58224c-0.49564,0.75943 -2.84323,1.49437 -3.60601,1.49437c-1.74182,0 -3,-2.32127 -3,-4.61538c0,-2.29411 1.79664,-5 3.53846,-5z" fill="#fd96aa" stroke="#000000" stroke-width="1.5"/><path d="M245.69889,153.89765c0,-0.89092 0.53377,-2.58568 0.53377,-2.58568c0,0 -0.81215,-0.59137 -2.15109,-0.83204c-3.5962,-0.64641 -10.41342,-1.46661 -9.58073,-5.89658c0.03455,-0.18378 0.29905,-0.76307 0.74205,-1.20909c0.39569,-0.39838 0.94934,-0.67488 1.36082,-0.71617c2.61682,-0.26256 7.31343,1.52607 10.90324,2.80277c2.35425,0.83728 4.45659,1.18678 4.87944,1.18678c4.24569,0 7.3125,3.88769 7.3125,8.375c0,4.48731 -2.31681,7.75 -6.5625,7.75c-4.24569,0 -7.4375,-4.38769 -7.4375,-8.875z" fill="#ffd5d5" stroke="#000000" stroke-width="2"/><path d="M258.73579,156.29824c0,0 -0.34526,2.49276 -2.05627,4.21688c-0.96367,0.97106 -2.61326,1.48763 -3.99461,1.29818c-2.14798,-0.2946 -3.623,-1.43109 -4.51488,-2.7743c-1.61932,-2.43875 -1.52514,-5.55894 -1.52514,-5.55894c0,0 2.82352,4.97121 4.67142,5.5735c1.52522,0.49712 2.75672,-0.79266 3.2383,-0.76702c0.98819,0.05261 0.32921,0.85134 0.96662,0.65647c1.90339,-0.58193 3.21457,-2.64476 3.21457,-2.64476z" fill="#fb95a9" stroke="none" stroke-width="0"/><path d="M255.01412,161.98516c0,0 0.13813,-1.21919 -0.34844,-2.20255c-0.32538,-0.65758 -0.81095,-1.14719 -0.86242,-1.42386c-0.04507,-0.24228 1.40411,-0.43217 2.20899,0.57336c1.03693,1.29542 0.84803,1.90619 0.84803,1.90619z" fill="#000000" stroke="none" stroke-width="0"/><path d="M246.39874,155.60753c0,0 0.80576,-0.61428 1.23432,-0.85917c0.46578,-0.26616 1.45799,-0.67929 1.45799,-0.67929c0,0 -0.91782,1.39623 -1.22445,2.21391c-0.30873,0.8233 -0.31401,2.63224 -0.31401,2.63224z" fill="#000000" stroke="none" stroke-width="0"/><path d="M240.33677,145.22613c0,0.3767 -0.2727,1.00919 -0.69032,0.96305c-0.82404,-0.09104 -1.87893,-0.28638 -2.84958,-1.30382c-0.61347,-0.64305 -0.43926,-1.86061 -0.43926,-1.86061c0,0 1.59096,-0.0914 2.25871,-0.0043c0.75823,0.0989 1.72045,0.51819 1.72045,0.51819z" fill="#f7426f" stroke="#000000" stroke-width="1"/></g><g data-paper-data="{&quot;index&quot;:null}"><path d="M213.60857,150.65961c0.37059,-0.34432 0.26173,-0.44905 -0.35095,-0.38204c-2.72641,0.2982 -10.30616,0.54917 -11.94466,-5.57246c-0.05007,-0.18705 -0.19795,-0.89129 0.10961,-1.48773c0.36428,-0.70644 1.02758,-0.84782 1.37169,-0.86445c0.97062,-0.0469 2.43406,0.14999 4.16591,0.53818c1.90836,0.42776 3.85413,1.06835 6.04772,1.42648c3.36959,0.55012 6.74432,0.42458 8.35627,0.42458c2.98802,0 4.3683,1.54274 5.59776,2.7217c0.82704,0.79307 1.78749,1.85105 2.18353,2.84754c0.42382,1.06641 0.75762,2.27745 0.53977,4.04403c-0.63636,2.60145 -2.0519,4.04844 -3.63083,4.25815c-1.77061,0.23518 -3.19414,-0.71318 -3.19414,-0.71318c0,0 -0.42136,4.00338 -4.22335,4.00338c-2.95882,0 -7.19048,-1.73928 -7.48118,-4.74044c-0.33171,-3.42455 1.43613,-5.55912 2.45286,-6.50374z" fill="#ffd5d5" stroke="#000000" stroke-width="2"/><path d="M228.17583,150.74178c0,0 0.6567,1.45505 0.51551,2.95027c-0.1044,1.10562 -0.6317,2.27226 -1.65324,2.98565c-0.96642,0.6749 -4.12675,0.58006 -4.12675,0.58006c0,0 -0.84835,2.80522 -2.41269,3.51048c-1.25488,0.56574 -3.62472,0.36187 -5.78223,-0.68179c-1.69631,-0.82055 -2.46916,-2.41609 -2.46916,-2.41609c0,0 0.27016,0.13595 0.85247,-0.10928c0.38664,-0.16283 0.23657,-2.30332 0.80595,-2.54623c0.2504,-0.10683 0.5787,0.50953 0.87941,0.48792c1.47365,-0.10591 1.19022,-5.10353 1.19022,-5.10353l-1.18362,-1.1561c0,0 -3.87794,0.61531 -7.37662,-0.24561c-1.19324,-0.29362 -2.27926,-0.82208 -3.23768,-1.51982c-1.25101,-0.91075 -1.94149,-3.04504 -1.94149,-3.04504c0,0 0.75999,-0.02067 1.21669,0.06902c1.15837,0.22748 3.04363,2.3482 5.65175,2.8833c2.29079,0.47 4.68506,0.73335 6.71226,0.7053c0.87965,-0.01217 1.94899,-0.1478 2.57482,-0.18157c0.12783,-0.0069 0.29184,-0.253 0.63416,-0.33914c0.29455,-0.07413 0.49103,0.07867 0.54982,0.10211c0.8907,0.35508 1.27438,2.326 2.09148,3.07982c1.64463,1.51725 3.51828,2.44009 4.13921,2.39582c2.22288,-0.15849 2.36974,-2.40552 2.36974,-2.40552z" fill="#fb95a9" stroke="none" stroke-width="0"/><path d="M220.31869,158.17037c0,0 0.75798,-0.15239 1.12719,-1.00677c0.27812,-0.64358 0.27386,-1.90177 -0.09511,-2.58205c-0.14904,-0.27478 -3.5612,-0.3811 -3.86699,-1.15891c-0.43012,-0.97007 -0.52223,-2.60941 -0.52223,-2.60941c0,0 1.62596,1.45982 2.93407,1.63109c0.71359,0.09343 1.27892,0.27214 1.70876,0.22584c0.24002,-0.02585 0.43777,-0.22018 0.59551,-0.30154c0.45316,-0.23374 0.58447,-0.56282 1.04395,-0.77703c0.34398,-0.16035 0.74456,-0.24514 0.89458,-0.06048c0.18674,0.22986 0.06376,0.79873 -0.12459,1.24378c-0.40925,0.96703 -0.98653,1.96041 -0.91259,2.89965c0.07054,0.89608 1.00317,2.42439 1.00317,2.42439z" fill="#000000" stroke="none" stroke-width="0"/><path d="M222.8187,159.02753c0,0 -2.0686,0.27887 -3.64236,0.28435c-0.69652,0.00242 -1.35354,-0.16358 -1.59359,-0.2354c-2.75119,-0.82312 -3.4069,-3.62038 -3.4069,-3.62038c0,0 2.20914,1.9773 3.73503,2.24778c2.38416,0.4226 4.47926,-0.60492 4.47926,-0.60492l0.42857,1.92857z" fill="#000000" stroke="none" stroke-width="0"/><path d="M228.60441,156.2418c0,0 -0.32302,1.11744 -1.72681,1.77541c-1.23905,0.58076 -2.55891,0.36745 -2.55891,0.36745c0,0 -0.00315,-1.16277 0.44704,-2.13996c0.30413,-0.66013 1.11954,-1.16415 1.32276,-1.23925c0.22523,-0.08323 0.91188,-0.09768 1.40562,0.17806c0.77855,0.43479 1.1103,1.0583 1.1103,1.0583z" fill="#871847" stroke="#000000" stroke-width="1"/><path d="M211.96155,149.38466c0,0 4.64286,-0.80189 4.64286,0.21429c0,1.04826 -1.35521,1.13074 -2.20158,1.46113c-0.55418,0.21633 -0.72699,0.6103 -0.72699,0.6103z" fill="#000000" stroke="none" stroke-width="0"/></g><g data-paper-data="{&quot;index&quot;:null}"><g><g><path d="M253.88819,117.96883c-0.89644,-3.55218 0.70795,-7.0201 3.58353,-7.74579c2.87559,-0.72569 5.93342,1.56562 6.82987,5.11782c0.89644,3.55219 -0.70797,7.02012 -3.58355,7.74581c-2.87559,0.7257 -5.93341,-1.56561 -6.82986,-5.11781z" fill="#fb95a9" stroke="#000000" stroke-width="2"/><path d="M211.71106,127.89579c-4.11117,-9.37272 9.87192,-13.92378 23.13215,-19.74013c13.26023,-5.81637 19.95755,-9.41658 24.06871,-0.04385c0.67064,1.52897 1.6376,11.71371 1.6376,11.71371c0,0 8.63065,2.01004 8.82562,6.07639c0.19619,4.39256 -15.60036,9.98207 -25.11068,10.94027c-25.1414,2.53307 -28.44224,0.42632 -32.5534,-8.94639z" fill="#ffd5d5" stroke="#000000" stroke-width="2"/><path d="M211.89695,120.45583c0,0 23.60451,-14.6849 29.28201,-17.17522c10.7573,-4.71849 14.9616,0.60997 16.87702,4.97681c0.8366,1.90733 1.36572,10.44898 1.36572,10.44898c0,0 -5.12094,-4.16282 -7.49983,-4.87487c-0.94187,-0.28192 -2.70573,-1.0448 -2.70573,-1.0448c0,0 -0.8703,1.88448 -1.33921,2.99751c-0.64922,1.54102 -2.55221,4.63141 -2.55221,4.63141l-1.85237,-3.35195l-2.99602,5.11342l-8.34092,-5.39842c0,0 -1.40396,6.08862 -3.0576,8.83991c-1.76318,2.93354 -7.21399,8.24969 -7.21399,8.24969l-3.96345,0.73488c0,0 -4.22397,-4.02442 -5.24385,-6.42783c-0.97967,-2.30857 -0.7596,-7.71957 -0.7596,-7.71957z" fill="#fb95a9" stroke="none" stroke-width="0"/><path d="M206.51271,132.82048c-1.28476,-2.92896 -1.6399,-3.5348 -0.4214,-5.67896c0.97689,-1.71897 8.40702,0.2934 9.69176,3.22237c1.28476,2.92897 1.60616,6.07913 -0.20448,6.87333c-1.81066,0.79419 -7.36454,-0.73881 -8.90306,-4.24634z" fill="#ffd5d5" stroke="#000000" stroke-width="2.5"/><path d="M215.3366,136.42353c-0.64621,0.28343 -3.57187,-0.04368 -5.18608,-1.20881c-1.00775,-0.72738 -1.82644,-1.82569 -2.42257,-2.81494c-0.73104,-1.21317 -0.02089,-2.19849 1.40816,-2.01813c2.39016,0.30165 5.68254,0.92921 6.20882,2.12899c0.84092,1.91714 1.53603,3.23546 -0.00834,3.91287z" fill="#fb95a9" stroke="none" stroke-width="0"/><path d="M208.64409,129.816c-0.25696,-0.5858 7.55179,3.58615 7.55179,3.58615l0.09312,2.83357c0,0 -7.38797,-5.83393 -7.64492,-6.41974z" fill="#000000" stroke="none" stroke-width="0"/><path d="M214.73019,137.62499c-0.95537,-1.60618 0.04992,-3.62299 1.91155,-4.65966c1.8616,-1.03664 3.85347,-2.34829 5.68354,0.29197c0.32214,0.46477 2.3447,3.54452 1.43296,5.69389c-0.14212,0.33504 -1.11539,1.75249 -2.39459,2.36321c-1.76659,0.84342 -3.04136,0.78846 -3.04136,0.78846c0,0 1.55215,-2.35476 1.29832,-2.42619c-0.80953,-0.2278 -4.08775,-0.70215 -4.89044,-2.05165z" fill="#6d0f0a" stroke="#000000" stroke-width="2"/><path d="M202.05885,140.29679c-8.08504,-1.48073 -11.72554,-4.51879 -11.72554,-4.51879c0,0 6.19481,-2.54446 7.62929,-5.28441c1.44595,-2.76185 0.50479,-12.37855 0.50479,-12.37855c0,0 22.0015,-7.16813 30.98539,-11.10874c8.31898,-3.64893 15.6272,-6.82813 20.98319,-9.14996c5.82141,-2.52357 11.96326,-1.77327 14.45476,2.53484c0.6166,1.06612 1.4461,2.50231 1.96825,3.77613c2.38661,5.82231 2.13374,11.94338 2.13374,11.94338c0,0 -7.46551,-5.37804 -10.96946,-7.62512c-4.33359,-2.77912 -10.49656,-4.45726 -10.49656,-4.45726c0,0 0.50415,3.97474 -0.15123,6.89248c-0.67842,3.02033 -3.69469,3.99417 -3.69469,3.99417c0,0 -1.31838,-2.90153 -2.39032,-4.06544c-0.98673,-1.07142 -2.82544,-3.09739 -2.48158,-1.97618c0.34589,1.12787 0.80278,3.94671 1.06652,5.31896c0.68257,3.55167 0.31999,4.19876 0.31999,4.19876c0,0 -2.84119,-2.3756 -5.62502,-4.55067c-2.36698,-1.84938 -5.28916,-2.30419 -5.28916,-2.30419c0,0 -2.8228,5.8832 -4.69309,8.53428c-1.68951,2.39483 -5.69205,6.52833 -5.69205,6.52833c0,0 4.91234,6.81655 1.02158,7.86894c-2.74986,0.74379 -4.07887,0.69111 -5.9035,0.08109c-1.09388,-0.3657 -2.38799,-3.07273 -2.38799,-3.07273l2.14525,-0.22664c0,0 -3.32959,-5.40169 -4.7084,-5.26961c-2.42775,0.23258 -0.86926,-0.68248 -4.04372,0.80505c-0.46207,0.21651 -0.68922,3.54425 0.50968,6.11916c1.28714,2.76443 4.02487,4.78104 4.02487,4.78104c0,0 -3.38002,3.33858 -7.32828,2.61546z" fill="#6d0f0a" stroke="#000000" stroke-width="1.5"/><path d="M240.8078,105.31151c-0.89805,0.39392 -2.50823,-0.14893 -4.37425,0.5151c-2.02165,0.71938 -4.3073,2.64972 -5.32796,3.13952c-14.74096,7.07438 -30.97679,15.32932 -30.97679,15.32932c0,0 -0.30249,-2.68032 -0.73192,-3.87881c-0.45876,-1.28044 -1.6492,-3.70116 -1.6492,-3.70116c0,0 21.25441,-6.27482 33.30716,-11.56152c7.73386,-3.39233 15.74578,-7.28236 21.14433,-8.78882c5.7163,-1.59515 9.00339,-0.88461 9.00339,-0.88461l3.54709,5.98134l-2.59421,0.38073l-8.1302,-3.52832c0,0 -9.09801,5.1903 -13.21744,6.99722z" fill="#6d0f0a" stroke="none" stroke-width="0"/><path d="M241.84148,134.43571c0,0 -4.77487,-3.55539 -4.73224,-3.79359c0.06559,-0.36652 8.91649,-1.52103 9.08771,-1.16923c0.16339,0.33566 -3.32461,4.67283 -4.35547,4.96281z" fill="#ef3d61" stroke="#000000" stroke-width="1.5"/><path d="M219.7743,120.23049c0,0 2.07929,1.01236 3.10534,1.23191c0.94431,0.20207 2.2289,-0.27561 2.2289,-0.27561c0,0 -0.58516,-0.57376 -1.17978,-1.1764c-0.62015,-0.62852 -1.9613,-2.58921 -1.9613,-2.58921c0,0 1.82215,1.17165 2.65427,1.50008c0.79576,0.3141 2.51164,0.53764 2.51164,0.53764c0,0 2.3554,-1.0859 3.91606,-1.77044c4.08537,-1.79196 8.00484,-0.06186 8.00484,-0.06186c0,0 -2.49297,0.34956 -3.35214,0.50029c-0.61029,0.10703 -1.26008,0.44718 -1.26008,0.44718c0,0 3.55733,7.73335 -2.24988,10.35721c-4.7564,2.14909 -6.25561,-4.87239 -6.59394,-5.14544c-0.2451,-0.19781 -1.4126,-0.65741 -1.4126,-0.65741c0,0 -1.66508,-0.25825 -2.36012,-0.70395c-0.75612,-0.48488 -2.05115,-2.19402 -2.05115,-2.19402z" fill="#000000" stroke="none" stroke-width="0"/></g><path d="M263.8558,99.68539c0,0 -1.40079,-2.38308 -2.19788,-3.54114c-0.76222,-1.1074 -2.48482,-3.26198 -2.48482,-3.26198c0,0 1.25636,0.22174 2.71488,2.14097c0.95323,1.25433 3.36735,4.53357 3.36735,4.53357z" fill="#000000" stroke="none" stroke-width="0"/></g><path d="M257.48323,119.128c0,0 -4.92589,0.04125 -7.51671,0.4634c-1.23264,0.20084 -2.82684,0.82037 -4.40228,1.26773c-1.74381,0.49517 -3.08338,1.76324 -3.08338,1.76324c0,0 -0.29564,-0.73658 0.0261,-1.64893c0.32496,-0.92146 1.15218,-1.89097 1.77902,-2.64541c0.76468,-0.92033 1.73538,-1.62709 2.51208,-1.95731c1.29747,-0.55162 4.42687,-0.04345 6.31438,0.25532c0.90029,0.14251 1.51997,0.13335 1.51997,0.13335l3.74648,-1.19305l-1.94732,2.074l3.26881,-0.27598l-2.21714,1.76364z" fill="#000000" stroke="none" stroke-width="0"/></g></g></g></svg>