<svg version="1.1" xmlns="http://www.w3.org/2000/svg" xmlns:xlink="http://www.w3.org/1999/xlink" width="127.66667" height="127.66667" viewBox="0,0,127.66667,127.66667"><g transform="translate(-176.16668,-116.16666)"><g data-paper-data="{&quot;isPaintingLayer&quot;:true}" fill-rule="nonzero" stroke-linejoin="miter" stroke-miterlimit="10" stroke-dasharray="" stroke-dashoffset="0" style="mix-blend-mode: normal"><g><path d="M204.98524,178.43567c-0.00241,-0.00042 -0.00366,-0.00069 -0.00366,-0.00069l-0.49447,-0.29063c-0.61891,-1.21081 0.04723,-2.39525 0.94739,-3.32262c2.0573,-1.08514 7.19729,-4.49291 8.80335,-0.9693c0.75928,1.66584 0.25468,3.60561 0.34519,5.35411c-1.30449,6.52987 -6.63704,1.94119 -9.59777,-0.77085z" fill="#323344" stroke="#000000" stroke-width="1" stroke-linecap="butt"/><path d="M233.92179,180.22956c0.69252,-1.09732 2.67421,-3.66087 4.02503,-3.97509c3.85293,-0.89624 4.2644,3.0382 4.02356,5.58041c-0.47627,2.32039 -2.43667,5.72747 -5.272,7.85912c-1.95496,1.46976 -4.54811,2.07005 -6.15085,2.42135c-0.54665,0.11981 -2.0603,-0.3904 -3.43028,-4.0043c-1.28105,-3.37931 -1.51269,-8.05361 -0.22993,-8.54009c1.10385,-0.41864 6.55076,1.43011 6.55076,1.43011z" fill="#dc94e7" stroke="#000000" stroke-width="1" stroke-linecap="butt"/><path d="M229.27898,183.73702c0.0457,0.05074 0.06988,0.08754 0.06988,0.08754l0.5022,0.89528c0.13251,0.86064 -0.03708,1.57802 -0.16745,2.28323c-0.16048,0.86802 -0.36384,1.69649 -1.1112,2.49485c-4.99975,4.42229 -16.05273,3.87492 -14.19841,-5.09845c0.79213,-3.73926 4.52424,-4.17174 8.20073,-3.48184c2.50493,0.47006 5.00606,1.35479 6.44782,2.48592c0,0 0.16079,0.12672 0.25641,0.33345z" fill="#f89688" stroke="#000000" stroke-width="1" stroke-linecap="butt"/><path d="M212.66151,175.28721c-0.56224,-0.44043 -0.16878,-1.07851 -0.16878,-1.07851c1.0535,-1.70581 5.02135,-4.86898 7.04171,-3.34087c2.07198,1.56715 0.26363,3.59585 1.26643,5.39486c0.47244,0.84755 2.28961,1.23974 3.09381,1.73605c0.15814,1.10634 0.30648,1.3245 0.0654,2.36319c-0.42566,1.83383 -2.08243,2.65755 -3.85056,1.86014c-2.83206,-1.27722 -3.85981,-4.87609 -6.64599,-6.24163l-0.29675,-0.12371c0,0 -0.41168,-0.17463 -0.50526,-0.56951z" fill="#fcdfbd" stroke="none" stroke-width="0.5" stroke-linecap="butt"/><path d="M223.89469,177.99875c0.15814,1.10634 0.30648,1.3245 0.06539,2.3632c-0.42566,1.83382 -2.08243,2.65755 -3.85056,1.86014c-2.18721,-0.98641 -3.29824,-3.35757 -4.97424,-5.01527c0.77004,0.03985 1.47569,0.07968 1.99151,0.18698c0.56327,0.11718 0.95268,0.45138 1.30528,0.8389c0.31227,0.69206 0.90254,1.24845 1.65957,1.50002c0.29969,0.12157 0.65106,0.18451 1.08005,0.15783c0.12068,-0.00751 0.24662,-0.03271 0.37527,-0.0735c0.98423,-0.20713 1.81221,-0.9409 2.10442,-1.95179c0.08833,0.04393 0.17003,0.08828 0.24334,0.13353z" fill="#f89688" stroke="none" stroke-width="0.5" stroke-linecap="butt"/><path d="M212.66151,175.28721c-0.56224,-0.44043 -0.16878,-1.07851 -0.16878,-1.07851c1.0535,-1.70581 5.02135,-4.86898 7.04171,-3.34088c2.07197,1.56714 0.26363,3.59584 1.26644,5.39485c0.47244,0.84754 2.2896,1.23974 3.0938,1.73606c0.15814,1.10634 0.30648,1.3245 0.06539,2.3632c-0.42566,1.83382 -2.08243,2.65755 -3.85056,1.86014c-2.83206,-1.27722 -3.85981,-4.87609 -6.64599,-6.24163l-0.29676,-0.12374c0,0 -0.41168,-0.17463 -0.50526,-0.5695z" fill="none" stroke="#000000" stroke-width="1" stroke-linecap="butt"/><path d="M213.89663,173.33311c-0.11282,0.54599 -0.65881,0.43316 -0.65881,0.43316l-0.084,-0.01737c-3.3858,-0.69968 -6.44941,1.06796 -7.5293,4.41893c0,0 -0.05444,0.1674 -0.19621,0.28348l0.00425,0.27929c0,0 -0.45205,0.29721 -0.75833,-0.1392c-0.06871,-0.02474 -0.13744,-0.0495 -0.20615,-0.07425c0,0 -0.29677,-0.10687 -0.36345,-0.38305c-0.26858,-0.19515 -0.19352,-0.55838 -0.19352,-0.55838l0.03556,-0.15084c1.62934,-4.78545 4.57698,-6.2969 9.36899,-5.30665c0,0 0.54599,0.11282 0.43316,0.65881c-0.00259,0.01257 -0.00543,0.02479 -0.00846,0.03666c0.11471,0.09819 0.20995,0.25985 0.15631,0.5194z" fill="#455d83" stroke="none" stroke-width="0.5" stroke-linecap="butt"/><path d="M205.87875,177.4903c-0.41169,-0.37196 -0.90523,-0.64668 -1.41862,-0.77049c-0.05943,-0.05593 -0.12403,-0.1069 -0.19325,-0.15202c0.62547,-1.52565 1.41487,-2.65997 2.3904,-3.43556c0.28753,0.68521 0.55567,1.3838 0.82562,2.07489c-0.66482,0.60829 -1.21306,1.37656 -1.60415,2.28319z" fill="#85afb1" stroke="none" stroke-width="0.5" stroke-linecap="butt"/><path d="M208.92813,172.03363c0.19351,0.66532 0.51661,1.35677 0.83123,1.85856c-0.47823,0.15125 -0.93259,0.35911 -1.35598,0.6198c-0.26154,-0.66494 -0.52189,-1.33314 -0.79975,-1.99082c0.4134,-0.21197 0.85449,-0.37389 1.32449,-0.48754z" fill="#85afb1" stroke="none" stroke-width="0.5" stroke-linecap="butt"/><path d="M213.89662,173.33312c-0.11282,0.54599 -0.65881,0.43316 -0.65881,0.43316l-0.084,-0.01737c-3.3858,-0.69968 -6.44941,1.06796 -7.52931,4.41894c0,0 -0.05444,0.1674 -0.19621,0.28348l0.00422,0.2793c0,0 -0.45203,0.29722 -0.75833,-0.1392c-0.06871,-0.02474 -0.13744,-0.0495 -0.20615,-0.07425c0,0 -0.29676,-0.10688 -0.36345,-0.38305c-0.26859,-0.19515 -0.19352,-0.55838 -0.19352,-0.55838l0.03556,-0.15084c1.62934,-4.78545 4.57698,-6.29691 9.36899,-5.30665c0,0 0.54599,0.11282 0.43316,0.65881c-0.00258,0.01256 -0.00543,0.02479 -0.00846,0.03667c0.11471,0.09819 0.20995,0.25985 0.15631,0.5194z" fill="none" stroke="#000000" stroke-width="1" stroke-linecap="butt"/><path d="M220.50532,184.81274c0,0 3.07276,0.69093 3.18962,2.53815c0.09375,1.48212 -1.36853,2.27815 -2.28101,3.19716c-2.15977,2.17515 -5.50422,5.90352 -8.35184,2.71658c-0.57178,-0.77227 -0.95706,-1.53192 -1.37976,-2.39093l-0.06318,-0.09397c-1.17199,0.29674 -2.22535,0.12514 -2.72134,-0.59723c-0.5251,-0.76475 -0.83194,-2.19411 -1.20859,-3.22523c-1.49447,-0.07723 -3.12388,-0.16385 -4.0924,-1.30774c-0.93145,-1.10012 -0.44918,-2.09789 -0.19826,-3.31219c0.70287,-3.40127 3.37511,-5.73584 6.73407,-6.49974c1.70221,-0.58265 3.56786,-1.67474 5.4725,-1.39315c1.33951,0.19806 1.98545,1.14279 2.32634,2.17118c0.39329,1.18653 0.3223,2.52267 -0.50731,3.57587c1.17003,0.45771 2.20406,1.40228 2.82526,2.44529c0.60829,1.02133 0.19723,1.34677 0.25589,2.17593z" fill="#fde0be" stroke="none" stroke-width="0.5" stroke-linecap="butt"/><path d="M223.69494,187.3509c0.09375,1.48214 -1.36852,2.27816 -2.281,3.19715c-2.15978,2.17515 -5.50422,5.90352 -8.35185,2.71659c-0.57178,-0.77227 -0.95706,-1.53192 -1.37974,-2.39094l-0.06318,-0.09397c-1.17199,0.29674 -2.22535,0.12514 -2.72134,-0.59723c-0.5251,-0.76475 -0.83193,-2.19411 -1.2086,-3.22524c-1.49447,-0.07723 -3.12387,-0.16384 -4.09239,-1.30775c-0.93145,-1.10014 -0.44918,-2.09789 -0.19826,-3.31219c0.23513,-1.13785 0.69067,-2.15634 1.3186,-3.03656c0.03013,0.19538 0.03597,0.38371 -0.01495,0.56579l0.00472,0.00799c-0.31882,1.10645 -0.14317,2.07644 0.37198,2.79539c0.38911,0.62708 1.02497,1.09936 1.80475,1.26051c0.28215,0.0583 0.56315,0.07174 0.83558,0.04518c0.28557,0.01289 0.58362,-0.00111 0.8911,-0.04418c1.33722,-0.18735 3.27722,-0.82674 5.17568,-1.76567c-0.50339,0.8066 -0.9495,1.62016 -1.27501,2.29135c-0.21238,0.30241 -0.36773,0.65226 -0.44729,1.03719c-0.04739,0.22929 -0.06512,0.45782 -0.05587,0.68162c-0.32172,1.55686 0.77909,2.34539 2.00706,2.5593c0.07023,0.02034 0.14178,0.03811 0.2146,0.05315c0.60065,0.12413 1.19608,0.04489 1.71482,-0.19068c0.16676,-0.06171 0.31634,-0.13712 0.44227,-0.22523c0.14201,-0.09938 0.29352,-0.2121 0.45231,-0.33611c0.17801,0.1615 -1.32688,1.92343 -1.11423,2.03541c0.6292,0.33134 3.10016,-1.2044 3.94244,-1.53025c0.67486,-0.26107 1.14438,-0.62301 1.4481,-1.04022c0.37886,-0.3735 0.65515,-0.85935 0.77089,-1.41945c0.05236,-0.25336 0.06853,-0.50583 0.05205,-0.75199c0.81867,0.3997 1.69534,1.05089 1.75671,2.02104z" fill="#f89688" stroke="none" stroke-width="0.5" stroke-linecap="butt"/><path d="M220.50532,184.81274c0,0 3.07276,0.69093 3.18962,2.53815c0.09375,1.48214 -1.36852,2.27816 -2.281,3.19715c-2.15978,2.17515 -5.50422,5.90352 -8.35185,2.71659c-0.57178,-0.77227 -0.95706,-1.53192 -1.37974,-2.39094l-0.06318,-0.09397c-1.17199,0.29674 -2.22535,0.12514 -2.72134,-0.59723c-0.5251,-0.76475 -0.83193,-2.19411 -1.2086,-3.22524c-1.49447,-0.07723 -3.12387,-0.16384 -4.09239,-1.30775c-0.93145,-1.10014 -0.44918,-2.09789 -0.19826,-3.31219c0.70287,-3.40127 3.37511,-5.73585 6.73405,-6.49974c1.70221,-0.58265 3.56786,-1.67474 5.47251,-1.39314c1.33951,0.19806 1.98545,1.14279 2.32632,2.17117c0.39329,1.18653 0.3223,2.52267 -0.50731,3.57587c1.17004,0.4577 2.20406,1.40228 2.82526,2.44529c0.6083,1.02134 0.19723,1.34677 0.25589,2.17593z" fill="none" stroke="#000000" stroke-width="1" stroke-linecap="butt"/><path d="M217.59875,180.56552l-5.86067,2.28063" fill="none" stroke="#000000" stroke-width="1" stroke-linecap="round"/><path d="M220.18024,184.97023l-4.23144,2.84502" fill="none" stroke="#000000" stroke-width="1" stroke-linecap="round"/><path d="M199.14012,168.66339c0.96346,-4.66227 5.17343,-8.08353 9.83571,-7.1201c2.49073,0.51471 3.71227,1.90449 4.8051,3.84944c0.36818,0.65527 0.88687,1.88855 1.05926,3.1152c0.27372,1.94766 -0.49559,3.66841 -0.6686,3.92241c-0.13778,0.20225 -2.62256,-2.04575 -5.95967,-0.38106c-3.40387,1.69801 -4.87427,5.75828 -4.87427,5.75828c0,0 -2.06389,-0.8402 -3.17887,-2.39025c-1.24244,-1.72727 -1.52641,-4.29676 -1.01864,-6.75393z" fill="#465e85" stroke="#000000" stroke-width="0" stroke-linecap="butt"/><path d="M199.14012,168.66339c0.12096,-0.58542 0.29315,-1.15123 0.51095,-1.69131c0.02895,0.09022 0.06697,0.17694 0.11317,0.25893l-0.00015,0.02157l0.03032,0.02942c0.12476,0.20105 0.30028,0.37026 0.51294,0.48704l0.20683,0.11995l0.13714,0.03952l0.10616,0.10751l0.07525,0.04579l0.05389,0.06966l0.07923,0.06243l0.00486,0.01488l0.03607,0.01737l0.0305,0.02403l0.2921,0.13132l0.28855,0.13893l0.03805,0.00787l0.03652,0.01642l0.01452,-0.00588l0.02859,0.00591l0.02295,0.02966l0.07923,0.06243l0.00486,0.01488l0.03607,0.01737l0.0305,0.02403l0.2921,0.13132l0.28855,0.13893l0.03805,0.00787l0.03652,0.01642l0.01452,-0.00588l7.0468,1.4562l0.03405,0.01531l0.28855,0.13893l0.03805,0.00787l0.03652,0.01642l0.01452,-0.00588l0.21336,0.04409l0.01905,0.01849l0.46927,0.27216l0.16926,0.04877l0.27797,0.12494l0.28855,0.13893l0.03805,0.00787l0.03652,0.01642l0.01452,-0.00588l0.46535,0.09617l0.01905,0.01849l0.14894,0.08638l0.15206,0.11982l0.00486,0.01488l0.03607,0.01737l0.0305,0.02403l0.24436,0.10985c-1.0704,-0.38673 -2.63531,-0.64093 -4.45313,0.26589c-3.40387,1.69801 -4.87427,5.75828 -4.87427,5.75828c0,0 -2.06389,-0.8402 -3.17887,-2.39025c-1.24244,-1.72727 -1.52641,-4.29676 -1.01864,-6.75393z" fill="#323344" stroke="#000000" stroke-width="0" stroke-linecap="butt"/><path d="M204.75775,164.99383l-0.00009,0.01711l-0.01912,-0.01589z" fill="#323344" stroke="#000000" stroke-width="0" stroke-linecap="butt"/><path d="M199.14012,168.66339c0.96345,-4.66228 5.17344,-8.08353 9.83571,-7.1201c2.49073,0.51471 3.71226,1.90448 4.80509,3.84943c0.36818,0.65527 0.88687,1.88854 1.05926,3.1152c0.27371,1.94767 -0.49557,3.66841 -0.66859,3.9224c-0.13778,0.20225 -2.62255,-2.04574 -5.95967,-0.38104c-3.40387,1.69801 -4.87427,5.75828 -4.87427,5.75828c0,0 -2.06392,-0.84018 -3.17888,-2.39025c-1.24244,-1.72727 -1.52641,-4.29676 -1.01864,-6.75392z" fill="none" stroke="#000000" stroke-width="1" stroke-linecap="butt"/><path d="M201.97462,176.56246c0,0 1.35207,-5.74779 4.76594,-7.12402c3.60969,-1.45518 7.66672,1.63539 7.66672,1.63539" fill="none" stroke="#000000" stroke-width="1" stroke-linecap="round"/><path d="M199.35552,173.13093c0,0 2.44627,-5.02115 5.83986,-7.26739c3.08098,-2.03932 8.15342,-0.26353 8.15342,-0.26353" fill="none" stroke="#000000" stroke-width="1" stroke-linecap="round"/><path d="M199.50773,167.73213c0,0 3.572,-3.26256 5.44629,-4.27976c1.69109,-0.9178 5.30643,-1.55602 5.30643,-1.55602" fill="none" stroke="#000000" stroke-width="1" stroke-linecap="round"/><path d="M204.00175,175.22967c0,0 -2.42791,-1.09124 -3.26443,-1.8986c-0.81824,-0.78969 -1.70103,-2.89367 -1.70103,-2.89367" fill="none" stroke="#000000" stroke-width="1" stroke-linecap="round"/><path d="M205.21799,174.43c0,0 -2.58151,-2.06285 -3.59298,-3.25331c-0.9015,-1.06101 -2.18393,-3.54593 -2.18393,-3.54593" fill="none" stroke="#000000" stroke-width="1" stroke-linecap="round"/><path d="M206.40514,172.92361c0,0 -2.48496,-2.42421 -3.16395,-3.91232c-0.74209,-1.62633 -1.11615,-5.46789 -1.11615,-5.46789" fill="none" stroke="#000000" stroke-width="1" stroke-linecap="round"/><path d="M204.76028,161.81078c0,0 1.91874,4.51942 2.43735,6.33622c0.43,1.50641 0.45852,3.80895 0.45852,3.80895" fill="none" stroke="#000000" stroke-width="1" stroke-linecap="round"/><path d="M208.24448,161.47975c0,0 1.63864,2.84317 1.97308,4.39204c0.35099,1.6255 0.0856,5.14219 0.0856,5.14219" fill="none" stroke="#000000" stroke-width="1" stroke-linecap="round"/><path d="M212.95178,164.55454c0,0 0.29609,2.15868 0.22319,3.27132c-0.07608,1.16089 -0.67049,3.55545 -0.67049,3.55545" fill="none" stroke="#000000" stroke-width="1" stroke-linecap="round"/></g><path d="M176.16668,243.83333v-127.66667h127.66667v127.66667z" fill="none" stroke="none" stroke-width="NaN" stroke-linecap="butt"/><g><g stroke="#000000"><path d="M254.29413,193.31798l1.75835,9.73519l-37.56842,-0.98638c0,0 0.35965,-9.54107 2.07153,-11.34553c0.59347,-0.62556 6.41997,2.03919 6.41997,2.03919l0.25732,-3.81689z" fill="#0066cd" stroke-width="0" stroke-linecap="round"/><path d="M247.75783,195.084c-1.50492,0.75211 -3.46626,1.96401 -5.55469,2.32519c-3.234,0.55932 -6.47304,0.03793 -6.47304,0.03793c0,0 0.30281,3.49312 0.18664,5.07736l-6.30755,-0.16562c0.10962,-1.29633 -0.57405,-3.71336 -1.36584,-5.89166c-0.62872,-1.72966 -1.37315,-3.35633 -1.50415,-3.81326c0.15103,0.06748 0.23634,0.1065 0.23634,0.1065l0.25732,-3.81689l20.66543,3.37873c0,0 0.43609,0.795 0.40582,1.59336c-0.01954,0.51496 -0.48353,1.15655 -0.54628,1.16833z" fill="#061483" stroke-width="0" stroke-linecap="butt"/><path d="M254.29413,193.31798l1.75835,9.73519l-37.56842,-0.98638c0,0 0.35965,-9.54107 2.07153,-11.34553c0.59347,-0.62556 6.41997,2.03919 6.41997,2.03919l0.25732,-3.81689z" fill="none" stroke-width="1" stroke-linecap="round"/><path d="M232.8081,195.67673l2.1872,1.887" fill="none" stroke-width="1" stroke-linecap="round"/></g><g><path d="M240.61342,209.63623c0,0.33519 -1.63074,2.50378 -2.85523,2.79868c-2.46242,0.59307 -7.38873,0.24178 -11.07692,0.90119c-1.33696,0.23903 -3.19606,0.44866 -4.63054,1.09762c-0.92448,0.41823 -1.74343,2.02085 -6.96282,2.16315c-3.25738,0.0888 -6.83425,-0.83198 -7.71227,-1.14691c-2.50226,-0.89751 -3.34425,-2.76549 -3.30137,-4.09828c0.01257,-0.39041 0.42812,-1.81565 1.76048,-1.48829c0.90605,0.22261 3.46358,1.84521 6.17255,2.24522c3.29288,0.48623 6.89529,0.06209 7.94157,-0.19361c2.51502,-0.61463 4.62961,-2.03761 7.06881,-2.81725c2.58159,-0.82516 5.97162,0.34968 8.04687,-0.15176c2.70956,-0.65471 3.81251,-2.83717 4.39353,-2.55589c0.93799,0.4541 1.15532,2.55874 1.15532,3.24612z" fill="#feecf7" stroke="none" stroke-width="0" stroke-linecap="butt"/><path d="M237.75819,212.4349c-2.46242,0.59306 -7.38873,0.24178 -11.07692,0.90119c-1.33696,0.23904 -3.19606,0.44867 -4.63054,1.09763c-0.92447,0.41822 -1.74343,2.02085 -6.9628,2.16315c-0.4438,0.0121 -0.89353,0.00545 -1.34155,-0.01584c-0.43617,-1.67958 -1.41883,-3.10604 -2.32625,-4.5779c0.19455,0.04094 0.39047,0.07644 0.58718,0.10547c3.29288,0.48623 6.8953,0.0621 7.94157,-0.19361c2.51503,-0.61465 4.62961,-2.03761 7.06882,-2.81725c2.58159,-0.82514 5.97162,0.34968 8.04687,-0.15176c2.70956,-0.6547 3.81251,-2.83717 4.39353,-2.55589c0.93799,0.45411 1.15532,2.55874 1.15532,3.24612c0,0.3352 -1.63074,2.50378 -2.85523,2.79868z" fill="#dd95e8" stroke="none" stroke-width="0" stroke-linecap="butt"/><path d="M240.61342,209.63623c0,0.33519 -1.63074,2.50378 -2.85523,2.79868c-2.46242,0.59307 -7.38873,0.24178 -11.07692,0.90119c-1.33696,0.23903 -3.19606,0.44866 -4.63054,1.09762c-0.92448,0.41823 -1.74343,2.02085 -6.96282,2.16315c-3.25738,0.0888 -6.83425,-0.83198 -7.71227,-1.14691c-2.50226,-0.89751 -3.34425,-2.76549 -3.30137,-4.09828c0.01257,-0.39041 0.42812,-1.81565 1.76048,-1.48829c0.90605,0.22261 3.46358,1.84521 6.17255,2.24522c3.29288,0.48623 6.89529,0.06209 7.94157,-0.19361c2.51502,-0.61463 4.62961,-2.03761 7.06881,-2.81725c2.58159,-0.82516 5.97162,0.34968 8.04687,-0.15176c2.70956,-0.65471 3.81251,-2.83717 4.39353,-2.55589c0.93799,0.4541 1.15532,2.55874 1.15532,3.24612z" fill="none" stroke="#000000" stroke-width="1" stroke-linecap="butt"/><path d="M218.35539,201.20906l-1.32948,-3.73111c0,0 2.8106,-2.12368 7.65675,-1.54147c3.72193,0.44716 5.08049,4.41485 5.08049,4.41485c0,0 3.57503,-4.04059 4.74028,-3.35392c0.51589,0.30401 2.34417,1.10802 2.97465,2.21711c1.53721,2.70415 1.80584,6.62625 1.80584,6.62625c0,0 -0.38263,2.21366 -2.79127,2.88539c-1.68043,0.46864 -4.34287,0.34385 -7.03231,0.50096c-0.85331,0.04984 -1.69638,0.03395 -2.4905,0.25952c-1.84413,0.5238 -3.42297,1.56729 -5.3759,2.2564c-1.55439,0.54848 -3.47151,0.8096 -5.04159,0.85874c-3.6108,0.11301 -7.30255,-0.80321 -10.16225,-2.30084c-1.8351,-0.96105 1.51881,-3.82844 5.17407,-5.95649c3.26663,-1.9018 6.79121,-3.1354 6.79121,-3.1354z" fill="#ff292e" stroke="#000000" stroke-width="0" stroke-linecap="round"/><path d="M227.6901,197.3114c0.56861,0.50162 1.73755,1.99339 1.90193,3.00395c0.1394,0.857 -0.70861,1.23546 -0.48498,1.75693c0.19854,0.46296 1.42806,0.16605 1.42806,0.16605c0,0 2.04695,-0.84384 3.62863,-2.29243c0.7716,-0.70667 1.64124,-2.23 1.64124,-2.23c0,0 1.33278,0.89999 1.67309,1.49863c1.53721,2.70415 1.80584,6.62625 1.80584,6.62625c0,0 -0.38263,2.21366 -2.79127,2.88539c-1.68043,0.46864 -4.34287,0.34385 -7.03231,0.50096c-0.85331,0.04984 -1.69638,0.03395 -2.4905,0.25952c-1.84413,0.5238 -3.42297,1.56729 -5.3759,2.2564c-1.55439,0.54848 -3.47151,0.8096 -5.04159,0.85874c-0.98536,0.03084 -2.95564,-0.12833 -2.95564,-0.12833c0,0 -0.45608,-2.69671 1.66501,-5.12594c2.44768,-2.80325 7.68327,-4.11214 10.44969,-6.15067c2.49395,-1.83776 1.78263,-4.05842 1.97869,-3.88545z" fill="#ac0e49" stroke="#000000" stroke-width="0" stroke-linecap="round"/><path d="M229.76313,200.30844c0,0 0.12921,1.06387 -0.40554,1.51144c-0.38839,0.32507 -1.9532,0.58999 -1.9532,0.58999" fill="none" stroke="#000000" stroke-width="1" stroke-linecap="round"/><path d="M235.05963,200.30844c0,-0.46186 0.37442,-0.83628 0.83628,-0.83628c0.46186,0 0.83628,0.37442 0.83628,0.83628c0,0.46186 -0.37442,0.83628 -0.83628,0.83628c-0.46186,0 -0.83628,-0.37442 -0.83628,-0.83628z" fill="#000000" stroke="none" stroke-width="0.5" stroke-linecap="butt"/><path d="M218.35539,201.20906l-1.32948,-3.73111c0,0 2.8106,-2.12368 7.65675,-1.54147c3.72193,0.44716 5.08049,4.41485 5.08049,4.41485c0,0 3.57503,-4.04059 4.74028,-3.35392c0.51589,0.30401 2.34417,1.10802 2.97465,2.21711c1.53721,2.70415 1.80584,6.62625 1.80584,6.62625c0,0 -0.38263,2.21366 -2.79127,2.88539c-1.68043,0.46864 -4.34287,0.34385 -7.03231,0.50096c-0.85331,0.04984 -1.69638,0.03395 -2.4905,0.25952c-1.84413,0.5238 -3.42297,1.56729 -5.3759,2.2564c-1.55439,0.54848 -3.47151,0.8096 -5.04159,0.85874c-3.6108,0.11301 -7.30255,-0.80321 -10.16225,-2.30084c-1.8351,-0.96105 1.51881,-3.82844 5.17407,-5.95649c3.26663,-1.9018 6.79121,-3.1354 6.79121,-3.1354z" fill="none" stroke="#000000" stroke-width="1" stroke-linecap="round"/><path d="M213.18761,203.43915c0,-0.2686 0.12664,-0.50764 0.32345,-0.66064c-0.14245,0.30595 -0.231,0.64203 -0.25346,0.99609c-0.04501,-0.10268 -0.06999,-0.21615 -0.06999,-0.33545z" fill="#db93e6" stroke="none" stroke-width="0.5" stroke-linecap="butt"/><path d="M221.529,200.84453c5.36301,0.04651 4.6557,6.30284 1.97676,4.47385c-0.56413,-0.38516 -1.14635,-1.13569 -1.75326,-1.58809c-0.80799,-0.60228 -2.20652,-1.18841 -3.05294,-1.67209c-0.29133,-0.13074 -0.16932,-1.01887 0.23482,-1.19223c0.40415,-0.17336 1.73335,-0.02891 2.59462,-0.02144z" fill="#f0e0ec" stroke="none" stroke-width="0.5" stroke-linecap="butt"/><path d="M221.58913,206.78426c-0.04287,0.42165 -0.399,0.75067 -0.83196,0.75067c-0.30694,0 -0.57525,-0.16535 -0.72072,-0.41184c-0.2312,-0.13211 -1.05102,-1.37107 -2.08121,-2.38367c-0.87171,-0.85682 -1.89764,-1.52796 -2.33491,-2.16462c-0.32071,-0.46696 -0.11359,-0.78023 0.33214,-0.94991c1.44435,-0.54982 6.80364,3.20573 5.63666,5.15938z" data-paper-data="{&quot;index&quot;:null}" fill="#f0e0ec" stroke="none" stroke-width="0.5" stroke-linecap="butt"/><path d="M218.84858,207.16312c0.33475,1.26692 -1.09143,2.00882 -1.79482,0.9035c-0.41897,-0.65837 -0.90974,-1.69156 -1.54123,-2.21345c-0.66411,-0.54886 -1.48386,-0.94215 -1.91308,-1.69329c-0.24648,-0.14548 -0.41184,-0.41378 -0.41184,-0.72072c0,-0.46186 0.37442,-0.83628 0.83628,-0.83628c0.25436,0 0.48222,0.11357 0.6356,0.29277c1.65607,0.45449 3.87257,3.06959 4.18909,4.2675z" fill="#f0e0ec" stroke="none" stroke-width="0.5" stroke-linecap="butt"/><path d="M223.50574,205.31838c-0.54218,-0.37016 -1.10106,-1.07782 -1.68251,-1.53396c1.10453,-0.27698 1.94761,-1.21297 2.08707,-2.36577c2.65203,1.51262 1.77818,5.38995 -0.40456,3.89972z" fill="#db93e6" stroke="none" stroke-width="0.5" stroke-linecap="butt"/><path d="M221.58913,206.78426c-0.04287,0.42165 -0.399,0.75067 -0.83196,0.75067c-0.30694,0 -0.57525,-0.16535 -0.72072,-0.41184c-0.16927,-0.09673 -0.6541,-0.7868 -1.30598,-1.54695c0.88983,-0.0642 1.66392,-0.54608 2.12724,-1.25056c0.74673,0.8655 1.14097,1.77304 0.73142,2.45866z" data-paper-data="{&quot;index&quot;:null}" fill="#db93e6" stroke="none" stroke-width="0.5" stroke-linecap="butt"/><path d="M218.84858,207.16312c0.33475,1.26692 -1.09143,2.00882 -1.79482,0.9035c-0.23987,-0.37693 -0.50328,-0.87673 -0.80316,-1.33309c0.74314,-0.05563 1.40506,-0.40263 1.87188,-0.92709c0.36774,0.51507 0.63159,0.99905 0.72609,1.35669z" fill="#db93e6" stroke="none" stroke-width="0.5" stroke-linecap="butt"/><path d="M221.529,200.84453c5.36301,0.04651 4.6557,6.30284 1.97676,4.47385c-0.56413,-0.38516 -1.14635,-1.13569 -1.75326,-1.58809c-0.80799,-0.60228 -2.20652,-1.18841 -3.05294,-1.67209c-0.29133,-0.13074 -0.16932,-1.01887 0.23482,-1.19223c0.40415,-0.17336 1.73335,-0.02891 2.59462,-0.02144z" fill="none" stroke="#000000" stroke-width="1" stroke-linecap="butt"/><path d="M221.58913,206.78426c-0.04287,0.42165 -0.399,0.75067 -0.83196,0.75067c-0.30694,0 -0.57525,-0.16535 -0.72072,-0.41184c-0.2312,-0.13211 -1.05102,-1.37107 -2.08121,-2.38367c-0.87171,-0.85682 -1.89764,-1.52796 -2.33491,-2.16462c-0.32071,-0.46696 -0.11359,-0.78023 0.33214,-0.94991c1.44435,-0.54982 6.80364,3.20573 5.63666,5.15938z" data-paper-data="{&quot;index&quot;:null}" fill="none" stroke="#000000" stroke-width="1" stroke-linecap="butt"/><path d="M217.05375,208.06662c-0.41897,-0.65837 -0.90974,-1.69156 -1.54123,-2.21345c-0.66411,-0.54886 -1.48386,-0.94215 -1.91308,-1.69329c-0.24648,-0.14548 -0.41184,-0.41378 -0.41184,-0.72072c0,-0.46186 0.37442,-0.83628 0.83628,-0.83628c0.25436,0 0.48222,0.11357 0.6356,0.29277c1.65607,0.45449 3.87257,3.06959 4.18909,4.2675c0.31652,1.1979 -1.09143,2.00881 -1.79482,0.90349z" fill="none" stroke="#000000" stroke-width="1" stroke-linecap="butt"/></g><g><path d="M239.36971,208.91399c0,0 0.3915,8.34024 14.60749,6.23944c13.4989,-1.99483 11.63893,-9.15571 11.63893,-9.15571l4.20286,1.887c0,0 -0.00863,1.18868 0.0127,2.61652c0.02049,1.37182 0.09502,2.95119 -1.0369,4.54341c-2.00021,2.81361 -6.76078,4.99215 -16.60204,5.40697c-20.06166,0.84564 -12.82304,-11.53763 -12.82304,-11.53763z" fill="#ffeffa" stroke="#000000" stroke-width="0" stroke-linecap="round"/><path d="M238.24138,214.9262c-0.01726,-0.07859 3.87856,5.67316 16.55063,3.82969c14.35662,-1.86616 15.02695,-10.87116 15.02695,-10.87116c0,0 -0.00863,1.18868 0.0127,2.61652c0.02049,1.37182 0.09502,2.95119 -1.0369,4.54341c-2.00021,2.81361 -6.76078,4.99215 -16.60204,5.40697c-10.11326,0.42629 -13.28882,-2.50921 -13.95136,-5.52542z" fill="#dd95e8" stroke="#000000" stroke-width="0" stroke-linecap="round"/><path d="M239.36971,208.91399c0,0 0.3915,8.34024 14.60749,6.23944c13.4989,-1.99483 11.63893,-9.15571 11.63893,-9.15571l4.20286,1.887c0,0 -0.00863,1.18868 0.0127,2.61652c0.02049,1.37182 0.09502,2.95119 -1.0369,4.54341c-2.00021,2.81361 -6.76078,4.99215 -16.60204,5.40697c-20.06166,0.84564 -12.82304,-11.53763 -12.82304,-11.53763z" fill="none" stroke="#000000" stroke-width="1" stroke-linecap="round"/><path d="M244.55778,199.14542c1.31642,-1.17593 6.83383,-2.37225 9.54146,-1.8472c1.63401,0.31686 1.35284,1.93808 1.35284,1.93808c0,0 6.50518,-3.29028 7.2311,-2.78214c0.28324,0.19828 1.53295,2.07667 0.92706,3.17351c-0.89762,1.62499 -3.86953,2.61068 -3.86953,2.61068c0,0 0.38686,0.12296 0.98019,0.36644c-4.37977,0.2708 -10.45727,2.81658 -13.09573,2.97807c-0.28949,0.01772 -0.09375,-0.57255 -0.14995,-0.85709c-0.2393,-1.21161 -0.36474,-2.58493 -1.15202,-3.60541c-0.53209,-0.6897 -1.20811,-1.28668 -1.96677,-1.76955c0.06482,-0.07445 0.13195,-0.14336 0.20135,-0.20536z" fill="#ff292e" stroke="#000000" stroke-width="0" stroke-linecap="butt"/><path d="M239.75568,206.14098l-4.26626,-0.16396c0,0 -0.75986,-1.06582 0.64989,-3.95604l0.44322,0.77565c0.89587,1.56777 5.91336,-0.09743 5.42961,2.84951c-0.11145,0.67887 -1.32062,0.92814 -2.47088,1.49438c0.1108,-0.61531 0.21443,-0.99954 0.21443,-0.99954z" fill="#ff292e" stroke="#000000" stroke-width="0" stroke-linecap="butt"/><path d="M258.17176,209.10014c0.36853,-0.08338 0.88232,-0.11124 1.46868,-0.11798c-0.6464,0.16771 -1.32782,0.23565 -2.02895,0.24198c0.20663,-0.04469 0.39459,-0.08651 0.56025,-0.12398z" fill="#ac0e49" stroke="#000000" stroke-width="0" stroke-linecap="butt"/><path d="M243.10081,202.06679c0,0 0.52294,-2.08702 1.45697,-2.92137c1.31642,-1.17593 6.83383,-2.37225 9.54146,-1.8472c1.63401,0.31686 1.35284,1.93808 1.35284,1.93808c0,0 6.50518,-3.29028 7.2311,-2.78214c0.28324,0.19828 1.53295,2.07667 0.92706,3.17351c-0.89762,1.62499 -3.86953,2.61068 -3.86953,2.61068c0,0 3.2768,1.04143 5.38321,3.06446c3.27168,3.14221 4.20444,8.1679 -10.60834,11.59558c-1.79091,0.41442 -10.06451,0.93634 -13.55884,-2.11337c-2.85954,-2.49569 -1.20105,-8.64402 -1.20105,-8.64402l-4.26626,-0.16396c0,0 -0.79623,-1.11685 0.75362,-4.16423c0.36247,-0.7127 6.85777,0.254 6.85777,0.254z" fill="#ff292e" stroke="#000000" stroke-width="0" stroke-linecap="round"/><path d="M239.75568,206.14098l-4.26626,-0.16396c0,0 -0.5427,-0.76123 0.14011,-2.74157c1.97616,0.73611 6.21238,1.20089 7.42841,1.75617c0.14476,0.0661 -1.20123,0.75924 -1.35092,0.8545c-0.89102,0.56702 -1.4988,1.12815 -2.20328,1.90308c-0.02477,0.02724 -0.04901,0.05479 -0.07273,0.08264c0.13987,-1.0057 0.32469,-1.69088 0.32469,-1.69088z" fill="#ac0e49" stroke="#000000" stroke-width="0" stroke-linecap="butt"/><path d="M239.01589,206.27232c-0.27303,0.24428 -2.54969,0.17339 -2.50058,-0.53893c-0.05339,-0.11013 -0.08333,-0.23375 -0.08333,-0.36435c0,-0.46186 0.37442,-0.83628 0.83628,-0.83628c0.24056,0 0.4574,0.10157 0.60997,0.26417c1.11623,-0.04955 2.12857,0.58878 1.13765,1.4754z" fill="#000000" stroke="none" stroke-width="0.5" stroke-linecap="butt"/><path d="M254.51556,216.89838c-1.79091,0.41442 -10.06451,0.93634 -13.55884,-2.11337c-0.3195,-0.27885 -0.5826,-0.60331 -0.79791,-0.95967c3.21261,0.17766 11.22397,-3.76602 14.15318,-4.46787c1.7611,-0.42198 5.91336,0.01395 8.68214,-0.70891c0.18548,-0.04842 1.22555,1.94151 1.60247,1.53843c0.40093,-0.42875 1.09917,-3.59532 1.0842,-4.30339c2.77006,3.15444 2.76525,7.79127 -11.16524,11.01479z" fill="#ac0e49" stroke="#000000" stroke-width="0" stroke-linecap="butt"/><path d="M263.61022,199.62765c-0.89762,1.62499 -3.86953,2.61068 -3.86953,2.61068c0,0 0.88914,0.28259 2.03882,0.8393c-2.6179,0.16708 -5.35164,0.92473 -5.54022,0.30285c-0.44904,-1.48077 3.96725,-4.01273 6.07544,-5.71395c0.29957,-0.18436 0.56161,-0.42379 0.77203,-0.70418c0.43424,0.68131 0.95958,1.87579 0.52345,2.66532z" fill="#ac0e49" stroke="#000000" stroke-width="0" stroke-linecap="butt"/><path d="M245.28802,205.24037l-2.40164,-3.00204" fill="none" stroke="#000000" stroke-width="1" stroke-linecap="round"/><path d="M245.20225,208.11375c0,0 -1.46726,-0.21889 -1.62111,-0.58326c-0.46565,-1.10286 0.59183,-1.47529 0.59183,-1.47529c0,0 3.3467,-2.24519 5.84223,-2.74497c4.07916,-0.81696 6.42326,-0.04264 6.42326,-0.04264c0,0 1.21563,0.0579 1.55332,0.68722c0.31306,0.58342 -0.18096,1.02823 -0.18096,1.02823c0,0 1.6958,0.03505 2.41724,0.88295c0.94578,1.11157 0.15594,1.39003 0.15594,1.39003c0,0 1.26494,-0.00347 1.66996,0.92131c0.31713,0.72408 -0.51203,1.18013 -0.51203,1.18013c0,0 -5.20712,0.3391 -7.70654,0.76286c-2.47516,0.41965 -7.2179,1.76743 -7.2179,1.76743c0,0 -0.99125,0.44662 -1.27567,-0.67379c-0.23639,-0.93121 0.46081,-1.42764 0.46081,-1.42764c0,0 -1.03151,0.46549 -1.3061,-0.43725c-0.18736,-0.61595 0.70569,-1.23531 0.70569,-1.23531z" fill="#feeffb" stroke="#000000" stroke-width="0" stroke-linecap="round"/><path d="M250.0152,203.31023c4.07916,-0.81696 6.42326,-0.04264 6.42326,-0.04264c0,0 0.90806,0.04325 1.37255,0.46129c-1.71687,1.49587 -2.92822,4.45112 -5.42574,3.93719c-1.53135,-0.31512 -2.76377,-2.09366 -3.98648,-3.85867c0.55045,-0.21665 1.10154,-0.39407 1.6164,-0.49718z" fill="#dd95e8" stroke="#000000" stroke-width="0" stroke-linecap="round"/><path d="M245.93131,209.82921c0,0 3.18295,-0.99515 6.53549,-1.65399c2.90506,-0.5709 7.57412,-0.70476 7.57412,-0.70476" fill="none" stroke="#000000" stroke-width="1" stroke-linecap="round"/><path d="M245.15935,208.02798c0,0 2.227,-1.48295 5.68833,-2.32773c2.06082,-0.50296 6.70582,-0.67431 6.70582,-0.67431" fill="none" stroke="#000000" stroke-width="1" stroke-linecap="round"/><path d="M245.20225,208.11375c0,0 -1.46726,-0.21889 -1.62111,-0.58326c-0.46565,-1.10286 0.59183,-1.47529 0.59183,-1.47529c0,0 3.3467,-2.24519 5.84223,-2.74497c4.07916,-0.81696 6.42326,-0.04264 6.42326,-0.04264c0,0 1.21563,0.0579 1.55332,0.68722c0.31306,0.58342 -0.18096,1.02823 -0.18096,1.02823c0,0 1.6958,0.03505 2.41724,0.88295c0.94578,1.11157 0.15594,1.39003 0.15594,1.39003c0,0 1.26494,-0.00347 1.66996,0.92131c0.31713,0.72408 -0.51203,1.18013 -0.51203,1.18013c0,0 -5.20712,0.3391 -7.70654,0.76286c-2.47516,0.41965 -7.2179,1.76743 -7.2179,1.76743c0,0 -0.99125,0.44662 -1.27567,-0.67379c-0.23639,-0.93121 0.46081,-1.42764 0.46081,-1.42764c0,0 -1.03151,0.46549 -1.3061,-0.43725c-0.18736,-0.61595 0.70569,-1.23531 0.70569,-1.23531z" fill="none" stroke="#000000" stroke-width="1" stroke-linecap="round"/><path d="M262.44968,198.78601c1.15018,0.38339 0.40356,1.84688 -0.40023,2.63312c-0.13,0.2931 -0.42355,0.49754 -0.76483,0.49754c-0.46186,0 -0.83628,-0.37442 -0.83628,-0.83628c0,-0.18665 0.06115,-0.35902 0.16451,-0.49817c0.39289,-0.79476 1.38393,-1.94719 1.83685,-1.79621z" fill="#000000" stroke="none" stroke-width="0.5" stroke-linecap="butt"/><path d="M244.55778,199.14542c1.31642,-1.17593 6.83383,-2.37225 9.54146,-1.8472c1.63401,0.31686 1.35284,1.93808 1.35284,1.93808c0,0 6.50518,-3.29028 7.2311,-2.78214c0.28324,0.19828 1.53295,2.07667 0.92706,3.17351c-0.89762,1.62499 -3.86953,2.61068 -3.86953,2.61068c0,0 3.2768,1.04143 5.38321,3.06446c3.27168,3.14221 4.20444,8.1679 -10.60834,11.59558c-1.79091,0.41442 -10.06451,0.93634 -13.55884,-2.11337c-2.85954,-2.49569 -1.20105,-8.64402 -1.20105,-8.64402l-4.26626,-0.16396c0,0 -0.79623,-1.11685 0.75362,-4.16423c0.36247,-0.7127 6.85777,0.254 6.85777,0.254c0,0 0.52293,-2.08703 1.45696,-2.92138z" fill="none" stroke="#000000" stroke-width="1" stroke-linecap="round"/></g><g><path d="M236.51091,180.97036c0,0 -1.0256,-4.0956 1.03203,-5.33746c5.68956,-3.43387 12.3485,-2.32847 12.3485,-2.32847c0,0 4.35038,-2.34374 6.74085,-1.58789c2.15327,0.68085 -0.5948,4.24215 -0.56921,7.29582c0.01305,1.55583 1.50782,3.2307 2.03827,4.70018c0.51068,1.41471 0.08678,2.64924 -1.34434,2.88658c-3.02232,0.50121 -7.14433,-3.2593 -7.14433,-3.2593l2.23009,9.19911c0,0 -6.68449,3.43094 -17.20515,2.16149c-7.48165,-0.90275 -8.99837,-6.76105 -8.99837,-6.76105c0,0 2.67148,-2.61667 4.48804,-3.78114c1.80727,-1.15851 6.38364,-3.18789 6.38364,-3.18789z" fill="#feecf7" stroke="#000000" stroke-width="0" stroke-linecap="round"/><path d="M236.51091,180.97036c0,0 -1.0256,-4.0956 1.03203,-5.33746c5.68956,-3.43387 12.3485,-2.32847 12.3485,-2.32847c0,0 4.35038,-2.34374 6.74085,-1.58789c1.68439,0.5326 0.3696,2.82775 -0.27061,5.26374c-0.70722,0.11136 -9.11847,2.47833 -9.11847,2.47833l2.36947,3.88121l2.23009,9.19911c0,0 -0.97231,0.49906 -2.75892,1.04608c-0.18269,-0.61384 -2.54552,-14.15458 -2.54552,-14.15458c0,0 -13.8315,3.3255 -13.60022,3.21161c1.78302,-0.87801 3.5728,-1.67169 3.5728,-1.67169z" fill="#dc94e7" stroke="#000000" stroke-width="0" stroke-linecap="butt"/><path d="M249.89145,173.30443c0,0 4.35038,-2.34374 6.74085,-1.58789c2.15327,0.68085 -0.5948,4.24215 -0.56921,7.29582c0.01305,1.55583 1.50782,3.2307 2.03827,4.70018c0.51068,1.41471 0.08678,2.64924 -1.34434,2.88658c-3.02232,0.50121 -7.14433,-3.2593 -7.14433,-3.2593l2.23009,9.19911c0,0 -6.68449,3.43094 -17.20515,2.16149c-7.48165,-0.90275 -8.99837,-6.76105 -8.99837,-6.76105c0,0 2.67148,-2.61667 4.48804,-3.78114c1.80727,-1.15851 6.38364,-3.18789 6.38364,-3.18789c0,0 -1.02561,-4.0956 1.03202,-5.33746c2.05763,-1.24186 12.34849,-2.32845 12.34849,-2.32845z" fill="none" stroke="#000000" stroke-width="1" stroke-linecap="round"/><g fill="none" stroke="#ff0000" stroke-width="1"><path d="M240.99671,189.17228c-2.61753,1.57784 -5.39303,1.83454 -6.86544,0.66896c-1.51155,-1.19657 -0.03158,-4.01856 2.5728,-5.75385c1.96727,-1.31078 4.59452,-2.07518 6.95426,-0.63327c1.65703,1.01252 0.05816,4.0787 -2.66162,5.71816z" stroke-linecap="butt"/><path d="M237.1825,183.92588l1.62968,5.66099" stroke-linecap="round"/></g><path d="M249.29788,173.87938c-0.15822,0.2769 -0.33031,0.54033 -0.51511,0.79043c-1.85699,2.5132 -4.99844,3.67936 -8.27648,3.61643c-1.07897,-0.02071 -3.58375,-0.18549 -3.34389,-1.83804c0.44548,-3.06916 11.25241,-4.11418 11.71015,-3.31314z" fill="#f89688" stroke="#000000" stroke-width="1" stroke-linecap="butt"/></g><g stroke="#000000" stroke-linecap="round"><path d="M249.74819,183.92588c0,0 1.77797,1.25752 2.70122,1.82735c1.91797,1.18373 3.73173,0.96026 3.73173,0.96026c0,0 -0.06714,1.51828 0.5155,3.17082c0.49653,1.40832 1.62163,2.66857 1.54419,3.2999c-0.16328,1.33106 -2.47589,2.06611 -4.53298,2.16198c-3.40422,0.15866 -4.60295,-1.12759 -4.60295,-1.12759c0,0 -0.12303,-3.93402 -0.0028,-5.75262c0.10692,-1.6172 0.6461,-4.54009 0.6461,-4.54009z" fill="#fddfbd" stroke-width="0"/><path d="M249.74819,183.92588c0,0 1.77797,1.25752 2.70122,1.82735c1.91797,1.18373 3.73173,0.96026 3.73173,0.96026c0,0 -0.04382,0.99079 0.24648,2.24277c-0.82894,-0.25009 -1.37266,0.05301 -3.1407,-0.41531c-2.50102,-0.66247 -3.47666,-2.02588 -3.91129,-2.37123c0.1784,-1.1913 0.37255,-2.24383 0.37255,-2.24383z" fill="#fa9789" stroke-width="0"/><path d="M252.4494,185.75322c1.91797,1.18373 3.73173,0.96026 3.73173,0.96026c0,0 -0.06714,1.51828 0.5155,3.17082c0.49653,1.40832 1.62163,2.66857 1.54419,3.2999c-0.16328,1.33106 -2.47589,2.06611 -4.53298,2.16198c-3.40422,0.15866 -4.60295,-1.12759 -4.60295,-1.12759c0,0 -0.12303,-3.93402 -0.0028,-5.75262c0.10692,-1.6172 0.6461,-4.54009 0.6461,-4.54009c0,0 1.77796,1.25752 2.70121,1.82735z" fill="none" stroke-width="1"/></g><g><path d="M247.68964,193.87551l3.4738,-2.61607l4.54595,2.70184l2.40164,-1.37236l2.61606,3.774c0,0 -5.35589,8.2865 -7.4958,8.63451c-1.97887,0.32182 -4.89836,-6.61886 -4.89836,-6.61886z" fill="#0066cd" stroke="#000000" stroke-width="0" stroke-linecap="round"/><path d="M253.65747,201.33418c1.97357,-1.65742 2.70693,-4.89361 5.38818,-5.8804c0.3998,-0.14713 1.26327,-0.17111 1.42679,0.36231c0.30378,0.99095 -5.77846,9.20631 -7.37912,9.14551c-1.39841,-0.05311 -3.39606,-3.06459 -4.21988,-5.17789c-0.48603,-1.24678 -0.20003,-2.06909 -0.12194,-2.08861c0.13625,-0.09627 1.56123,0.64404 1.64258,1.02069c1.36218,0.92807 3.09633,2.75869 3.2634,2.61838z" fill="#061484" stroke="none" stroke-width="0.5" stroke-linecap="butt"/><path d="M247.68964,193.87549l3.4738,-2.61607l4.54595,2.70184l2.40164,-1.37236l2.61606,3.774c0,0 -5.35589,8.28651 -7.4958,8.63451c-1.97886,0.32182 -4.89836,-6.61886 -4.89836,-6.61886" fill="none" stroke="#000000" stroke-width="1" stroke-linecap="round"/></g></g><g stroke="#000000"><g stroke-linecap="butt"><path d="M265.5229,177.92747l1.34395,-1.91857c0,0 8.80384,2.3824 10.34779,4.06807c1.08387,1.18334 -0.42228,5.17099 -3.05502,4.7465c-3.50605,-0.56531 -8.63673,-6.89598 -8.63673,-6.89598z" fill="#0066cd" stroke-width="0"/><path d="M265.52291,177.92747l0.47699,-0.68092c0,0 1.8534,0.90172 3.62173,1.96876c1.36673,0.82473 2.48939,1.722 3.87633,2.54232c1.64957,0.97566 3.28934,1.78071 3.23878,1.84962c-0.59988,0.81762 -1.49297,1.39101 -2.57711,1.21622c-3.50605,-0.5653 -8.63673,-6.89599 -8.63673,-6.89599z" fill="#061483" stroke-width="0"/><path d="M265.52291,177.92747l1.34395,-1.91857c0,0 8.80384,2.38241 10.34779,4.06808c1.08388,1.18335 -0.42228,5.17099 -3.05502,4.7465c-3.50605,-0.5653 -8.63673,-6.89599 -8.63673,-6.89599z" fill="none" stroke-width="1"/></g><g stroke-linecap="round"><path d="M227.043,168.25933c0,0 -0.19348,-26.12278 21.37456,-18.72456c22.11458,7.5857 11.81607,25.88132 11.81607,25.88132c0,0 7.34789,-2.81966 8.04382,-2.01627c0.58742,0.67812 -2.15417,5.01869 -3.51139,6.57902c-1.00288,1.15297 -2.72631,3.78826 -4.09551,3.53668c-0.86181,-0.15837 -3.40378,-3.95953 -3.40378,-3.95953c0,0 -8.37952,1.68514 -15.28714,0.87926c-6.82115,-0.7958 -15.67694,-4.75336 -15.67694,-4.75336c0,0 -6.56925,-2.97919 -5.97964,-5.37961c0.50238,-2.04535 6.71994,-2.04297 6.71994,-2.04297z" fill="#fde0be" stroke-width="0"/><path d="M252.71133,180.24205c-0.03718,0.0043 -0.57537,-2.39222 -0.57537,-2.39222l-3.8376,1.44447l-2.37009,-8.39431l-7.85604,1.97186l1.11636,-6.50253c0,0 -12.03929,-0.26739 -12.03661,-0.29846c0.5255,-6.12459 3.57707,-22.60357 21.26558,-16.53608c22.11458,7.5857 11.81607,25.88132 11.81607,25.88132c0,0 3.65929,5.64103 3.55086,5.77562c-0.95314,1.18332 -2.12579,2.50538 -3.11394,2.32381c-0.86181,-0.15837 -3.40378,-3.95953 -3.40378,-3.95953c0,0 -1.86263,0.37457 -4.55546,0.68609z" fill="#fc988a" stroke-width="0"/><path d="M260.14926,176.94623l3.36178,-0.38643l-2.6484,4.36812z" fill="#f79587" stroke-width="0.5"/><path d="M248.41754,149.53477c22.11458,7.5857 11.81607,25.88132 11.81607,25.88132c0,0 7.34789,-2.81966 8.04382,-2.01627c0.58742,0.67812 -2.15417,5.01869 -3.51139,6.57902c-1.00288,1.15297 -2.72631,3.78826 -4.09551,3.53668c-0.86181,-0.15837 -3.40378,-3.95953 -3.40378,-3.95953c0,0 -8.37952,1.68514 -15.28714,0.87926c-6.82115,-0.7958 -15.67694,-4.75336 -15.67694,-4.75336c0,0 -6.56925,-2.97919 -5.97964,-5.37961c0.50238,-2.04535 6.71994,-2.04297 6.71994,-2.04297c0,0 -0.19347,-26.12277 21.37457,-18.72454z" fill="none" stroke-width="1"/></g><g stroke-linecap="round"><path d="M268.32342,170.45608c0,0 -2.83736,2.67492 -4.32526,3.66041c-1.28484,0.851 -4.08263,1.90852 -4.08263,1.90852c0,0 -8.71183,-8.15225 -15.55078,-11.28325c-6.98551,-3.1981 -16.61876,-5.46106 -16.61876,-5.46106c0,0 2.04433,-18.12065 6.30073,-19.55748c3.0993,-1.04624 10.86588,-0.47608 17.69255,2.34356c3.11141,1.28511 11.97319,5.05476 13.99077,8.9323c2.70409,5.19694 2.59339,19.457 2.59339,19.457z" fill="#ff292e" stroke-width="0"/><path d="M268.32342,170.45608c0,0 -2.83736,2.67493 -4.32526,3.66041c-1.28484,0.851 -4.08262,1.90852 -4.08262,1.90852c0,0 -4.21891,-3.94792 -9.08963,-7.40423c-0.12749,-0.09047 6.62119,-12.67847 11.13467,-17.04295c1.49459,-1.44527 3.26758,-1.54336 3.76949,-0.57878c2.70409,5.19695 2.59339,19.45701 2.59339,19.45701z" fill="#ac0e49" stroke-width="0.5"/><path d="M263.99817,174.11651c-1.28484,0.851 -4.08262,1.90852 -4.08262,1.90852c0,0 -8.71183,-8.15225 -15.5508,-11.28324c-6.98551,-3.1981 -16.61875,-5.46105 -16.61875,-5.46105c0,0 2.04434,-18.12065 6.30073,-19.55748c3.09931,-1.04623 10.86588,-0.47608 17.69255,2.34356c3.11141,1.28511 11.97319,5.05476 13.99077,8.93228c2.70409,5.19695 2.59339,19.45701 2.59339,19.45701c0,0 -2.83736,2.67492 -4.32526,3.66041z" fill="none" stroke-width="1"/></g><g stroke-linecap="round"><path d="M226.77492,164.93416c0,0 -3.95709,-0.25625 -5.83425,-0.15072c-1.90593,0.10715 -5.51638,0.78885 -5.51638,0.78885c0,0 2.6908,-3.20261 4.23414,-4.54081c1.46569,-1.27089 4.80499,-3.2969 4.80499,-3.2969l-9.29668,-2.22797c0,0 12.2047,-9.47224 16.0943,-9.87398c2.31979,-0.23959 8.4131,6.95187 8.4131,6.95187c0,0 2.01035,-2.18351 3.22221,-3.11513c1.10355,-0.84836 3.75445,-2.24821 3.75445,-2.24821c0,0 -0.37663,6.30507 -0.2701,9.44781c0.11098,3.27399 0.92318,9.81846 0.92318,9.81846l12.50144,9.05551l-3.27943,5.98851l-3.61345,-7.60243l-3.5109,2.54501l-2.09766,-9.98659l-5.94279,2.44101l0.43621,-5.18227c0,0 -11.28106,-0.79279 -13.99402,-0.36979c-0.73953,0.11531 -1.02835,1.55782 -1.02835,1.55782z" fill="#4fa6ec" stroke-width="0"/><path d="M232.50345,157.0507l-17.07918,8.52158c0,0 2.6908,-3.20261 4.23413,-4.54082c1.46568,-1.27089 4.80499,-3.2969 4.80499,-3.2969l-9.29667,-2.22798c0,0 12.2047,-9.47224 16.0943,-9.87398c2.31978,-0.2396 8.41311,6.95187 8.41311,6.95187c0,0 2.01034,-2.1835 3.2222,-3.11513c1.10355,-0.84836 3.75445,-2.2482 3.75445,-2.2482l-5.92101,10.56434c0,0 -7.29653,-6.89964 -9.49157,-7.24976c-3.44502,-0.5495 -10.14614,4.68203 -10.14614,4.68203z" fill="#66ffff" stroke-width="0"/><path d="M251.08507,171.14711l-1.98127,3.9094l-1.27102,-6.05104z" fill="#66ffff" stroke-width="0"/><path d="M215.42428,165.57228c0,0 2.6908,-3.20261 4.23413,-4.54082c1.46568,-1.27089 4.80499,-3.2969 4.80499,-3.2969l-9.29667,-2.22798c0,0 12.2047,-9.47224 16.0943,-9.87398c2.31978,-0.2396 8.41311,6.95187 8.41311,6.95187c0,0 2.01034,-2.1835 3.2222,-3.11513c1.10355,-0.84836 3.75445,-2.2482 3.75445,-2.2482c0,0 -0.37663,6.30506 -0.27011,9.4478c0.11096,3.27397 0.92318,9.81846 0.92318,9.81846l12.50144,9.05551l-3.27943,5.98851l-3.61345,-7.60242l-3.51091,2.545l-2.09767,-9.98659l-5.9428,2.44101l0.43621,-5.18227c0,0 -11.28106,-0.79279 -13.99402,-0.36979c-0.73953,0.11531 -1.02835,1.55782 -1.02835,1.55782c0,0 -3.95707,-0.25626 -5.83424,-0.15072c-1.87718,0.10553 -5.51638,0.78882 -5.51638,0.78882z" fill="none" stroke-width="1"/></g></g><g stroke="#000000"><path d="M249.36495,189.13605c0,0 -3.68476,1.79241 -4.93669,-1.83249c-0.56024,-1.62216 4.41875,-4.9879 4.72061,-5.44905c0.73658,-1.12523 4.31276,1.02322 4.31276,1.02322c0,0 3.01579,-0.86501 3.98382,-0.35652c3.13309,1.64571 2.23546,5.40512 2.23546,5.40512c0,0 3.9866,1.68783 4.36715,2.9016c0.78993,2.51945 0.62992,8.70388 0.1065,9.88408c-0.3308,0.74584 -4.15771,2.66152 -6.65675,2.10257c-2.07587,-0.46429 -2.92608,-3.36844 -2.92608,-3.36844c0,0 -2.35862,1.20802 -3.6202,0.86137c-1.19292,-0.3278 -3.35994,-2.96311 -3.35994,-2.96311c0,0 -1.10531,0.75173 -2.19182,0.83839c-1.6299,0.12998 -3.64675,-0.72195 -1.70612,-4.41278c0.88865,-1.69011 6.06775,-1.56125 6.06775,-1.56125z" fill="#fde0be" stroke-width="0" stroke-linecap="round"/><path d="M249.36495,189.13605c0,0 -3.68476,1.79241 -4.93669,-1.83249c-0.27314,-0.79082 0.77025,-1.99606 1.94641,-3.07711c0.26511,1.69467 1.78437,2.70094 3.09794,2.62576c0.84517,-0.04838 1.4324,-0.78118 2.11972,-1.28006c0.0061,0.00268 0.01223,0.00532 0.01839,0.00793c0.19483,0.08232 0.39787,0.11696 0.59611,0.10918c0.28305,0.10627 1.25725,-0.02972 1.31731,-0.10271c1.00385,-0.14215 1.1962,1.32178 2.21007,1.32127c1.05971,-0.00053 3.20262,-1.62809 3.3338,-2.92535c1.03074,1.60682 0.6933,3.55439 0.62403,3.89262c-2.0749,0.81733 -5.06298,5.07141 -4.74365,6.74756c0.19209,1.00828 2.61424,0.53058 3.00483,0.23655c1.54841,-1.16563 3.10957,-2.62331 3.53183,-4.36175c0.23176,-0.14665 0.42269,-0.36304 0.53751,-0.6348c0.09875,-0.23372 0.12889,-0.47925 0.09951,-0.71413c0.90803,0.5304 1.76005,1.15001 1.92606,1.67941c0.78993,2.51945 0.62992,8.70388 0.1065,9.88408c-0.3308,0.74584 -4.15771,2.66152 -6.65675,2.10257c-0.6407,-0.1433 -1.16465,-0.51903 -1.58289,-0.97005c0.52219,-0.19992 1.02799,-0.47285 1.42697,-0.78997c1.23772,-0.98383 2.35574,-1.34081 0.97527,-1.77344c-0.14307,-0.19142 -4.09543,-2.02947 -4.09543,-2.02947c0,0 -0.13797,0.71225 -0.43756,1.42134c-0.15799,0.37395 -0.14034,0.7781 0.01564,1.12053c-0.8009,0.32644 -2.04623,0.73436 -2.84824,0.51399c-1.19292,-0.3278 -3.35994,-2.96311 -3.35994,-2.96311c0,0 -1.10531,0.75173 -2.19182,0.83839c-0.28985,0.02312 -0.59195,0.01518 -0.88184,-0.03427c0.69314,-1.48188 1.28223,-3.20109 2.07639,-3.52065c1.6208,-0.6522 3.68694,3.49028 5.11605,1.78391c1.38222,-1.65034 1.04116,-4.8972 -0.69197,-5.16401c-0.0341,-0.01784 -0.06919,-0.03442 -0.10526,-0.04966c-0.42995,-0.18165 -0.89982,-0.13112 -1.26991,0.09489z" fill="#f89688" stroke-width="0" stroke-linecap="butt"/><path d="M243.69366,193.76995c0.10168,-0.19339 0.25954,-0.36297 0.45939,-0.51164c-0.24156,0.2921 -0.46875,0.61831 -0.68713,0.97003c0.0689,-0.14769 0.14469,-0.30045 0.22774,-0.4584z" fill="#f89688" stroke-width="0" stroke-linecap="butt"/><path d="M248.99599,192.25035c-0.02786,-0.01177 -0.0556,-0.02331 -0.08321,-0.03461c0.03066,-0.00091 0.06068,-0.00174 0.09004,-0.0025c-0.00245,0.01236 -0.00471,0.02473 -0.0068,0.03711z" fill="#f89688" stroke-width="0" stroke-linecap="butt"/><path d="M249.36495,189.13605c0,0 -3.68476,1.79241 -4.93669,-1.83249c-0.56024,-1.62216 4.41875,-4.9879 4.72061,-5.44905c0.73658,-1.12523 4.31276,1.02322 4.31276,1.02322c0,0 3.01579,-0.86501 3.98382,-0.35652c3.13309,1.64571 2.23546,5.40512 2.23546,5.40512c0,0 3.9866,1.68783 4.36715,2.9016c0.78993,2.51945 0.62992,8.70388 0.1065,9.88408c-0.3308,0.74584 -4.15771,2.66152 -6.65675,2.10257c-2.07587,-0.46429 -2.92608,-3.36844 -2.92608,-3.36844c0,0 -2.35862,1.20802 -3.6202,0.86137c-1.19292,-0.3278 -3.35994,-2.96311 -3.35994,-2.96311c0,0 -1.10531,0.75173 -2.19182,0.83839c-1.6299,0.12998 -3.64675,-0.72195 -1.70612,-4.41278c0.88865,-1.69011 6.06775,-1.56125 6.06775,-1.56125z" fill="none" stroke-width="1" stroke-linecap="round"/><path d="M251.96308,187.5707l-2.49542,1.60875" fill="none" stroke-width="1" stroke-linecap="round"/><path d="M256.55771,189.87506c0,0 -1.65365,0.17414 -2.52222,-0.36823c-1.45947,-0.91132 -2.4591,-2.82209 -2.49784,-3.50885c-0.06175,-1.09519 2.55621,-2.61106 2.55621,-2.61106" fill="none" stroke-width="1" stroke-linecap="round"/><path d="M261.61093,193.09946c0,0 -1.98898,3.50919 -3.31663,4.15398c-1.29094,0.62695 -4.1404,-1.59002 -4.17159,-2.1771c-0.0898,-1.69178 3.72968,-6.83316 3.72968,-6.83316l1.47702,-0.34435" fill="none" stroke-width="1" stroke-linecap="round"/><path d="M260.74301,195.15373l1.44518,-0.84199" fill="none" stroke-width="0.5" stroke-linecap="round"/></g><g stroke-linecap="butt"><path d="M229.26587,164.1506c-0.07848,-2.95491 2.25331,-5.41395 5.20821,-5.49243c2.9549,-0.07848 5.41395,2.25331 5.49243,5.20821c0.07848,2.95491 -2.25332,5.41395 -5.20821,5.49243c-2.95491,0.07848 -5.41395,-2.25331 -5.49243,-5.20821z" fill="#ffffff" stroke="none" stroke-width="0"/><path d="M242.16728,171.13262c-0.07794,-2.93437 2.23767,-5.37636 5.17205,-5.4543c2.93438,-0.07794 5.37635,2.23767 5.45429,5.17205c0.07794,2.93437 -2.23767,5.37635 -5.17204,5.45429c-2.93438,0.07794 -5.37636,-2.23767 -5.4543,-5.17204z" fill="#ffffff" stroke="none" stroke-width="0"/><path d="M231.09969,167.91403c-1.13585,-1.50106 -0.99931,-3.89138 -0.06709,-5.97272c-0.57864,1.16954 -0.9082,2.40609 -0.88058,3.37555c0.02833,1.06661 0.38802,1.94082 0.94768,2.59717zM237.26476,167.10156c-0.1553,0.09651 -0.31937,0.18585 -0.49242,0.26734c-0.59071,0.23654 -1.27328,0.64415 -1.97675,0.91066c0.0028,-0.00008 0.00561,-0.00015 0.00842,-0.00023c1.02922,-0.02536 1.8476,-0.47651 2.46075,-1.17777zM238.38328,162.41627c-1.16275,-2.45162 -2.21489,-2.78608 -4.3547,-2.66011c-0.82871,0.6349 -1.53812,1.59223 -2.01686,2.63891c0.44364,-0.73917 1.03847,-1.30387 1.71706,-1.50679c0,0 0.53709,-0.14954 0.68663,0.38755c0.14954,0.53709 -0.38755,0.68663 -0.38755,0.68663c-1.59892,0.39605 -2.45773,4.27188 -0.97943,5.3001c0.92632,0.64429 2.49367,-0.59408 3.28109,-0.91702c1.57274,-0.7012 2.18933,-2.38354 2.05377,-3.92927zM235.82358,170.14285c-2.02856,0.76283 -4.3714,0.41079 -6.35394,-1.48616c-2.42383,-3.65054 1.54659,-11.65538 5.81519,-11.76651c4.80994,-0.73142 5.62262,3.22149 4.98875,6.92536c0.02492,0.41243 0.01648,0.84075 -0.0279,1.28223c-0.24689,0.81674 -0.59507,1.56142 -1.02195,2.21965c-0.02872,0.06429 -0.05771,0.12769 -0.08695,0.19012c-0.82529,1.37722 -2.02579,2.24255 -3.3132,2.63532z" fill="#000000" stroke="none" stroke-width="0.5"/><path d="M251.13388,175.24038c-1.49325,2.23605 -3.90177,3.47215 -6.89759,1.46909c-5.01262,-2.96037 -2.92842,-9.79138 1.6915,-11.94577c4.73637,-2.41372 9.95677,4.94645 6.97801,8.8022c-0.21325,0.22488 -0.91756,0.94097 -1.77192,1.67448zM251.37757,169.55192c-0.37829,-1.72469 -2.50531,-3.27284 -4.39314,-2.85818c-0.13079,0.03511 -0.26236,0.07431 -0.39446,0.11737c-0.41797,0.1586 -0.81646,0.42448 -1.17236,0.81841c-0.09833,0.18733 -0.20185,0.37608 -0.30722,0.56643c0.9254,-0.30568 1.61703,-0.95113 2.64044,-0.92867c2.12198,0.04655 3.24564,1.00202 3.62673,2.28464zM244.61326,169.105c-0.59524,1.13179 -1.07916,2.32924 -0.81292,3.635c0.37428,1.83562 2.92887,1.71618 4.64155,1.13819c0.27274,-0.43058 0.57722,-0.88166 1.05746,-1.29651c0.19593,-0.09217 0.37512,-0.18965 0.5384,-0.2917c0.65439,-1.99077 0.27728,-4.77928 -2.75878,-3.91074c-0.72207,0.20657 -1.27955,0.72493 -2.04992,0.94507c0,0 -0.41336,0.11509 -0.61578,-0.21931zM247.3141,175.26656c-1.13863,0.16207 -2.31292,0.07347 -3.20365,-0.41546c0.67302,0.67924 1.54463,1.06355 2.41827,0.79556c0.31515,-0.09668 0.57008,-0.22606 0.78539,-0.3801z" fill="#000000" stroke="none" stroke-width="0.5"/><path d="M226.75149,172.93083c-0.00583,-0.01662 -0.01128,-0.03394 -0.01631,-0.05202c-0.15758,-0.56596 0.40839,-0.72355 0.40839,-0.72355c4.08011,-1.12218 8.12402,1.22788 11.64586,3.0837c2.29283,0.49437 4.06881,2.15566 6.20426,2.715c0.49097,0.1286 2.44077,0.46369 2.42087,1.19557c-0.0438,1.61109 -2.56076,0.96785 -4.34146,0.307l-0.62492,-0.06641c-0.6044,-0.23436 -1.18763,-0.51208 -1.75748,-0.81515c-1.87215,-0.60695 -3.51773,-1.90912 -5.40869,-2.4504c-0.96328,-0.27573 -1.96904,-0.44388 -2.98871,-0.5834c-0.51445,0.00755 -1.13275,-0.07961 -1.7545,-0.2256c-1.00393,-0.12965 -2.00558,-0.27502 -2.97821,-0.50999c-1.06212,-0.87326 -1.17091,-1.471 -0.80911,-1.87477z" fill="#ff6666" stroke="#000000" stroke-width="1"/></g></g></g></svg>