<svg version="1.1" xmlns="http://www.w3.org/2000/svg" xmlns:xlink="http://www.w3.org/1999/xlink" width="234" height="234" viewBox="0,0,234,234"><g transform="translate(-123,-63)"><g data-paper-data="{&quot;isPaintingLayer&quot;:true}" fill-rule="nonzero" stroke-linejoin="miter" stroke-miterlimit="10" stroke-dasharray="" stroke-dashoffset="0" style="mix-blend-mode: normal"><g data-paper-data="{&quot;index&quot;:null}" stroke="#000000" stroke-width="3" stroke-linecap="butt"><path d="M271.15355,204.78538c0,0 -0.41931,11.28546 -8.65573,11.81949c-3.81993,0.24767 -21.02702,-2.78363 -24.52268,-8.32007c-7.61378,-12.05876 -5.79261,-21.03022 -5.79261,-21.03022c0,0 3.5917,-3.54878 6.13401,-3.57892c7.29665,-0.08649 8.87861,4.21214 8.87861,4.21214c0,0 0.64045,2.02278 1.4432,3.1956c0.88542,1.2936 3.64564,4.2392 3.64564,4.2392c0,0 15.52053,-1.16107 16.13714,-0.00026c0.27475,0.51722 2.73242,9.46305 2.73242,9.46305z" fill="#db93e6"/><path d="M268.94342,200.09479c0,0 16.04164,-1.91829 21.0716,0.86259c7.92248,4.38005 6.05423,14.3421 4.85675,15.47317c-3.74946,3.5415 -18.51152,6.38779 -18.51152,6.38779c-2.95406,0.27386 -10.4352,0.70506 -12.71245,0.19917c-3.58781,-0.79704 -3.74715,-5.38845 -4.03067,-10.02467c-0.46798,-7.65266 1.67363,-12.43006 9.32629,-12.89804z" fill="#f89587"/></g><g data-paper-data="{&quot;index&quot;:null}"><g><g><g stroke-linecap="butt"><path d="M339.44429,179.59044c0.44465,11.80691 -5.75621,15.79063 -17.54945,16.51182c-10.95459,0.6699 -20.10447,-4.77947 -20.42567,-15.74982c-0.37717,-12.88185 4.84005,-22.71484 16.63329,-23.43603c9.78925,-0.59864 16.92708,3.67845 19.92567,12.58743c0.94216,2.79921 1.28153,6.51166 1.41616,10.08659z" fill="#485e84" stroke="#000000" stroke-width="3"/><path d="M302.97755,174.58965c0,0 1.05464,0.97762 5.112,2.27067c2.64442,0.84276 5.60054,2.40234 10.36613,2.11091c5.87277,-0.35913 10.98988,-0.8403 14.49406,-1.5082c3.70225,-0.70566 5.09017,-2.92274 5.09017,-2.92274c0,0 4.7105,18.79297 -11.41699,20.32569c-5.05457,0.48038 -14.92871,-0.69664 -19.9435,-4.72059c-2.65305,-2.12885 -3.19757,-6.33612 -3.68464,-8.55409c-0.94087,-4.28441 -0.01724,-7.00164 -0.01724,-7.00164z" fill="#343545" stroke="none" stroke-width="0"/></g><g fill="none" stroke="#000000" stroke-width="2" stroke-linecap="round"><path d="M306.44985,179.8836c0,0 -1.08345,-3.82392 -1.2852,-6.24468c-0.30847,-3.70143 1.54004,-8.38833 1.54004,-8.38833"/><path d="M302.47777,179.38744c0,0 5.72126,-6.85086 13.28643,-4.79916c15.07806,4.08921 13.28532,20.33736 13.28532,20.33736"/><path d="M317.06045,182.84803c0,0 2.31221,-8.72562 4.20388,-12.59372c2.51558,-5.14388 7.02466,-10.59391 7.02466,-10.59391"/><path d="M332.83704,161.5174c0,0 1.3599,7.72593 -3.92223,16.23553c-3.17754,5.11908 -8.66212,7.60986 -8.66212,7.60986"/><path d="M311.5374,179.81884c0,0 -1.15871,-5.83356 0.33958,-10.13703c2.58403,-7.42201 9.60495,-12.56148 9.60495,-12.56148"/><path d="M337.62995,171.40724c0,0 -0.56626,6.96301 -6.32451,12.58767c-2.65534,2.59372 -8.59187,4.00948 -8.59187,4.00948"/><path d="M339.27391,180.83265c0,0 -2.35426,5.11756 -6.55306,8.31105c-2.37435,1.80586 -8.82538,2.07323 -8.82538,2.07323"/><path d="M316.32262,157.35372c0,0 5.34812,1.2828 10.76462,4.8439c5.25131,3.45251 12.34239,13.12344 12.34239,13.12344"/><path d="M306.65468,164.43245c0,0 8.72623,-2.42286 16.75669,2.58622c11.53836,7.19715 13.88844,21.81825 13.88844,21.81825"/></g></g><g stroke-linecap="butt"><path d="M322.23684,200.3516c0,0 -9.41385,-4.79478 -13.19212,-7.39055c-2.9037,-1.99492 -7.55256,-6.8616 -7.55256,-6.8616l1.2275,-4.09896c0,0 5.51541,-2.4247 9.95159,-0.73375c8.29015,3.15998 11.86522,12.3746 11.86522,12.3746c0,0 0.30145,3.93519 -0.10722,5.12769c-0.34812,1.01578 -2.19241,1.58256 -2.19241,1.58256z" fill="#485e84" stroke="#000000" stroke-width="2"/><path d="M312.80021,185.79181l1.56699,-2.42895c0,0 0.61165,0.23355 0.9508,0.4037c0.38624,0.19376 1.32865,0.84388 1.32865,0.84388l-1.20821,2.80418z" fill="#8fbbbe" stroke="none" stroke-width="0"/><path d="M317.00494,188.55373l1.85217,-1.80348c0,0 2.12539,2.35908 2.85747,3.50856c0.58675,0.9213 1.19625,2.85648 1.19625,2.85648l-1.65544,1.65421z" fill="#8fbbbe" stroke="none" stroke-width="0"/><path d="M303.36474,185.05453c0,0 0.8854,-0.39285 2.65428,-0.73739c1.70211,-0.33155 4.2298,-0.65254 7.19604,1.17592c2.29109,1.41228 4.75304,2.84342 6.19365,4.79271c2.95528,3.99879 3.60285,8.59531 3.60285,8.59531c0,0 -0.43996,1.33352 -1.06259,0.856c-0.74367,-0.57036 -3.10113,-4.04935 -3.10113,-4.04935c0,0 0.15157,-3.71897 -5.03415,-6.21817c-2.2652,-1.09169 -6.79276,-2.22691 -9.0624,-3.14335c-1.56917,-0.63361 -1.38655,-1.27169 -1.38655,-1.27169z" fill="#000000" stroke="none" stroke-width="0"/></g></g><g stroke-linecap="butt"><path d="M302.86009,189.34581c0.11744,0.12193 3.89986,2.56444 3.89986,2.56444c0,0 3.61543,4.19739 -6.68207,12.06283c-7.23434,6.95838 -12.23408,4.21973 -12.23408,4.21973c0,0 -9.12519,-3.74882 -10.80681,-8.0397c-0.89521,-2.28425 -3.19201,-6.09495 -0.90323,-7.79542c1.80145,-1.33841 6.64578,-1.35557 7.66702,-2.64015c1.835,-2.30816 0.33348,-14.65433 8.64106,-14.25359c3.51687,0.16965 9.86308,4.80376 10.41823,13.88186z" fill="#fddfbd" stroke="#000000" stroke-width="3"/><path d="M276.62531,194.06797c0,0 1.89269,0.66407 4.83424,3.60343c5.24618,-1.88044 8.85663,-2.88104 8.85663,-2.88104c0,0 3.31375,3.16444 2.31246,5.01146c-1.1395,2.10198 -6.76713,2.9291 -9.67907,3.10717c-2.40877,0.14731 -4.29392,-2.12107 -5.2999,-4.51682c-0.87351,-2.08027 -1.02434,-4.3242 -1.02434,-4.3242z" fill="#f89587" stroke="none" stroke-width="0"/></g><g stroke-linecap="butt"><g><path d="M271.31377,218.18c-0.26043,-4.25858 2.54713,-9.05024 10.57292,-8.68101c-0.07885,-2.80494 -0.97067,-4.56486 0.14217,-5.96911c0.66146,-0.83466 2.32112,-2.02718 4.10503,-2.77782c1.2067,-0.50776 2.08067,-0.93414 3.58416,-1.30267c-0.62338,-4.30172 -0.11866,-6.85563 0.74413,-8.27493c1.47997,-2.43453 1.78566,-5.68995 3.93399,-6.23512c6.17794,-1.56773 15.22463,4.42671 21.60149,9.57081c2.76975,2.23431 6.25512,7.64001 7.19553,9.37413c0.78399,1.44567 0.41412,4.48925 0.59849,7.50413c0.52678,8.61416 -2.55558,7.59531 -5.6413,8.09452c-2.45936,0.39788 -5.55508,-1.14011 -6.18142,-0.14973c-1.29675,2.05047 -3.33575,7.52982 -5.98327,7.98069c-2.01804,0.34367 -4.67707,0.07567 -5.95125,0.31589c-2.35376,0.44376 -4.91419,5.74017 -5.10994,5.92686c-1.94459,1.85445 -4.85175,1.516 -7.86619,0.96401c-10.0848,-1.84669 -15.25056,-8.26279 -15.74455,-16.34065z" fill="#fddfbd" stroke="#000000" stroke-width="3"/><path d="M277.69038,211.48359c0,0 -2.62096,4.39377 -1.31885,6.31642c1.41433,2.08835 4.22585,4.13568 7.50467,5.09646c2.54829,3.07097 7.17404,6.7252 6.7233,3.84312c-0.35374,-2.26178 -1.39652,-8.60317 -0.17011,-8.07924c0.57814,0.24699 2.22239,2.36697 2.22239,2.36697c0,0 3.65159,0.41837 4.56624,0.61836c2.63638,0.57646 5.54293,-3.4019 5.44663,-3.64219c1.34855,-0.62692 -4.83804,-13.59585 -4.83804,-13.59585l6.58281,4.06359c0,0 4.77839,1.37965 6.83245,2.16919c3.14054,1.20716 5.57141,2.67144 7.10244,2.62293c2.27501,-0.07209 3.68066,-8.42165 3.68066,-8.42165c0,0 1.2596,12.49657 -0.41498,12.85891c-1.81097,0.39186 -6.52738,1.03778 -9.72822,0.3303c-2.4186,0.57875 -3.59695,7.51768 -6.40813,8.20134c-3.06085,0.74437 -2.64291,0.09923 -5.28123,0.3693c-0.4336,0.50171 -3.08639,1.70803 -3.60409,2.2763c-2.18417,2.39752 -2.81543,4.33335 -3.72799,4.41067c-9.92998,0.84132 -15.17037,-3.83201 -18.17008,-7.63806c-2.31818,-2.9413 -2.89405,-10.15421 -0.94048,-12.32368c1.36635,-1.51735 3.94058,-1.84318 3.94058,-1.84318z" fill="#f89587" stroke="none" stroke-width="0"/></g><path d="M292.5145,221.17712c-3.95058,-3.99726 -13.4439,-11.89439 -13.4439,-11.89439c0,0 1.28973,-1.3642 2.722,-0.99203c0.95177,0.24732 0.80777,0.89713 1.00284,1.68735c5.32562,4.79922 9.15139,8.72409 9.71905,11.19907z" fill="#000000" stroke="none" stroke-width="0"/><path d="M290.08811,198.23112c0,0 10.80432,5.77064 14.51982,10.36693c-8.22502,-4.8321 -15.09431,-7.81041 -15.09431,-7.81041z" fill="#000000" stroke="none" stroke-width="0"/></g></g><g data-paper-data="{&quot;index&quot;:null}" stroke-linecap="butt"><path d="M282.90147,225.35582c0,0 0.21139,3.60569 -10.68314,6.55483c-16.58096,4.48846 -47.91751,8.99188 -58.48467,9.0436c-5.11607,0.02504 -10.7353,-3.25334 -15.36284,-5.25832c-10.28159,-4.4547 -11.70578,-9.14244 -11.70578,-9.14244c0,0 -1.49042,-4.84567 -0.56015,-6.91625c0.75519,-1.68092 5.49426,-0.9791 5.49426,-0.9791c0,0 42.26551,-6.86949 68.80211,-7.97418c1.1425,-0.04756 1.74683,4.23444 2.80758,4.17909c5.87398,-4.7616 14.52023,-5.82152 14.69263,-5.6739c4.2469,3.63648 5,16.16666 5,16.16666z" fill="#0066cc" stroke="#000000" stroke-width="3"/><path d="M210.3702,216.7346c0,-1.80159 -1.44474,-8.64937 -1.44474,-8.64937c0,0 11.67233,-0.45171 25.78731,-0.45171c11.68368,0 20.35719,-3.63873 20.35719,-3.63873c0,0 5.71929,8.55942 6.12213,9.04974c0.91621,1.11518 0.57345,2.87611 0.57345,2.87611c0,0 -1.50662,4.75248 -2.51439,7.16941c-1.23323,2.95765 -4.97108,11.15908 -4.97108,11.15908c0,0 -0.75356,1.5322 -1.82955,0.36422c-1.95765,-2.12501 -4.98263,-7.89397 -6.47855,-10.61c-0.91426,-0.08061 -1.73421,-0.18338 -2.69472,-0.11638c-2.86642,0.19996 -5.9491,1.22525 -9.3096,1.29901c-4.20151,0.09223 -8.0008,0.10117 -11.26258,-0.53402c-7.64308,-1.48839 -12.33488,-4.94693 -12.33488,-7.91736z" fill="#0f1b82" stroke="none" stroke-width="0"/><path d="M240.50705,225.92176c0,0 4.50087,-3.72766 5.42322,-4.49253c1.06646,-0.88439 4.03756,-2.86042 4.03756,-2.86042c0,0 -1.02941,2.36577 -3.77451,5.68627c-2.94341,3.56039 -5.68627,1.66667 -5.68627,1.66667z" fill="#000000" stroke="none" stroke-width="0"/></g><g data-paper-data="{&quot;index&quot;:null}" stroke-linecap="butt"><g><path d="M265.45956,202.61127c0,0 -0.80576,11.30538 -18.62202,14.10747c-17.21558,2.70761 -26.99419,0.69844 -32.37565,-0.8498c-2.93613,-0.84472 -7.72451,-1.34567 -7.72451,-1.34567c0,0 -1.76235,-8.32924 -2.25205,-16.79677c-0.45304,-7.83361 0.3663,-15.7071 0.30727,-19.08655c-0.18223,-10.43171 3.89805,-8.23432 3.89805,-8.23432l31.17647,6.32353c0,0 -0.22414,2.97042 -1.04214,8.29554c8.35142,4.69367 26.41431,13.73202 26.63457,17.58657z" fill="#feebf7" stroke="#000000" stroke-width="3"/><path d="M244.14581,195.66616l0.48908,0.57059c0.04956,0.05712 0.09063,0.12181 0.12124,0.1921c0.48051,0.56261 0.94808,1.14971 1.406,1.76028c3.80461,6.10591 0.50747,10.87779 -6.36443,11.52312c-7.69837,0.69348 -11.37668,-1.99774 -16.27982,-6.90088c-2.568,-3.00725 -8.28186,-10.20638 -2.18145,-13.11515c0.72976,-0.34796 2.12768,-0.45535 2.90974,-0.62909c3.37773,-0.66175 7.62943,-0.61571 10.84162,0.79171c1.25669,0.55062 2.61073,1.28556 3.79383,2.06347c0.28251,0.17214 0.64848,0.26159 0.92089,0.44556zM237.17479,195.39331c-0.59511,1.9398 -0.89742,4.28028 -1.408,5.98731c-0.29151,0.87454 -1.48872,3.82425 -0.67649,4.57117c1.75336,1.61237 7.78585,-0.59098 8.40148,-2.70456c0,-3.78826 -3.06556,-6.09194 -6.31699,-7.85393zM234.0152,193.80018c-0.67689,-0.33322 -1.31671,-0.65509 -1.88838,-0.97581c-2.90819,-0.95474 -4.52059,-0.64909 -7.42245,0.27441c-0.59143,0.18822 -2.15984,0.34395 -2.27959,1.16198c-0.23171,1.58289 1.16113,3.51007 1.95151,4.77468c0.8847,1.4262 3.97164,5.27034 5.95845,5.06815c0.33108,-0.03369 0.82554,-1.11864 0.93997,-1.33404c0.86922,-1.63615 1.04417,-3.63992 1.57395,-5.40335c0.22609,-1.13048 0.55897,-2.18422 1.02595,-3.23786l0.1406,-0.32816z" fill="#ff0000" stroke="none" stroke-width="0.5"/></g><path d="M204.78746,188.16756c0,0 0.56737,-4.68011 1.95127,-6.02402c5.69789,-5.53324 7.38902,-3.12168 7.38902,-3.12168c0,0 -3.51153,27.34651 -5.39669,34.61118c-3.65394,0 -3.9436,-25.46549 -3.9436,-25.46549z" fill="#db93e6" stroke="none" stroke-width="0"/></g><g data-paper-data="{&quot;index&quot;:null}" stroke-linecap="butt"><path d="M207.12807,217.41922c0,0 -10.76911,1.3807 -14.73674,0.60595c-2.94574,-0.5752 -6.41711,-4.3239 -6.41711,-4.3239c0,0 -0.60302,0.07521 -0.79523,-1.66379c-0.14703,-1.3303 2.98928,-2.15583 3.8294,-4.2229c1.7487,-4.30257 1.96583,-10.13894 1.96583,-10.13894c0,0 -1.67221,-7.25888 3.44927,-8.65008c6.91831,-1.87929 11.29432,2.11162 11.29432,2.11162c0,0 2.94872,9.48427 2.94872,13.84615c0,5.06311 -1.53846,12.4359 -1.53846,12.4359z" fill="#fddfbd" stroke="#000000" stroke-width="2.35"/><path d="M191.53906,198.43951c-0.40648,-3.94474 0.25278,-8.969 3.79414,-8.969c3.69874,0 7.29029,-0.37839 9.59862,2.18198c1.43494,1.59161 1.68343,7.24109 1.68343,7.24109c0,0 -2.7678,2.2955 -8.58974,4.42308c-5.33773,1.95063 -6.66667,0.70513 -6.66667,0.70513c0,0 0.4808,-2.66525 0.18022,-5.58228z" fill="#f89587" stroke="none" stroke-width="0"/></g><g data-paper-data="{&quot;index&quot;:null}" stroke="none" stroke-width="0" stroke-linecap="butt"><path d="M188.94254,197.55646c-0.63026,-0.23698 -2.00625,-1.30667 -2.48439,-2.28031c-1.36756,-2.78478 3.88428,-7.65143 4.26027,-12.95508c0.39034,-5.50616 -2.78181,-11.67141 -1.68421,-14.1667c0.26757,-0.60828 2.76566,-1.82356 3.53347,-1.9933c8.2993,1.63467 20.64041,9.03421 20.64041,9.03421l-0.02017,5.62649c0,0 -11.75725,21.43025 -24.24537,16.73469z" fill="#feebf7"/><path d="M211.68091,184.03307c0,0 -3.08698,10.8657 -13.80085,14.20927c-4.47629,1.39695 -11.9981,-0.47587 -11.9981,-0.47587c-3.29019,-1.73708 -0.80198,-7.87581 1.7,-13.03367c0.75732,-1.56122 1.88169,-3.13453 1.38992,-6.72064c-0.58246,-4.24746 -3.3694,-11.23399 -3.3694,-11.23399c0,0 1.20349,-2.28394 2.44253,-0.91439c0.54429,0.60162 1.29152,4.20276 1.75052,5.13841c1.6518,3.36712 2.60674,9.51589 2.22145,11.03174c-0.57929,2.27912 -4.49397,11.8935 -4.49397,11.8935c0,0 -0.36185,1.02351 0.01793,1.60573c1.28247,1.9661 5.79274,1.90079 8.20861,1.29403c5.81933,-1.46157 9.08142,-4.89956 11.63984,-7.80041c2.41837,-2.74204 4.29153,-4.9937 4.29153,-4.9937z" fill="#000000"/></g><path d="M215.5102,167.87343c21.65368,4.28096 23.22349,10.8182 23.22349,10.8182l-1.81868,7.31559c0,0 -7.64408,-2.30456 -13.299,-3.89013c-8.19333,-2.2973 -32.66245,-8.92106 -32.66245,-8.92106c0,0 -1.46005,-1.50958 -1.27159,-2.75926c0.17851,-1.18363 4.25458,-5.13908 4.25458,-5.13908c0,0 2.87638,-1.12074 21.57365,2.57574z" data-paper-data="{&quot;index&quot;:null}" fill="#db93e6" stroke="none" stroke-width="0" stroke-linecap="butt"/><path d="M123,297v-234h234v234z" data-paper-data="{&quot;index&quot;:null}" fill="none" stroke="none" stroke-width="0" stroke-linecap="butt"/><path d="M268.30822,243.46953c-1.54583,-1.62174 -1.4284,-3.69166 -0.83051,-4.98095c0.4597,-0.9913 1.29926,-1.4253 1.29926,-1.4253l4.6875,3.20312c0,0 -3.40409,4.61095 -5.15625,3.20312z" data-paper-data="{&quot;index&quot;:null}" fill="#db93e6" stroke="none" stroke-width="0" stroke-linecap="butt"/><g data-paper-data="{&quot;index&quot;:null}" stroke-linecap="butt"><g><g><path d="M233.21133,247.19185c0,-5.57032 -0.61819,-16.54467 5.74821,-21.07676c1.5861,-1.12911 5.72111,-4.39754 9.30795,-0.937c0.40815,0.39378 -0.70351,1.43681 0.03469,2.89514c0.27249,0.53832 2.07379,0.59449 2.54056,1.2277c1.47451,2.00028 4.621,3.94489 5.29298,3.8648c2.13914,-5.3308 8.72202,-11.76512 10.90538,-12.25849c3.9235,-0.8866 18.80892,2.54184 18.65016,5.5468c0.48034,2.44477 -3.26281,6.47152 -3.26281,6.47152c0,0 15.66088,8.83698 21.52639,12.35397c10.09997,6.05598 10.29097,10.87785 10.29097,10.87785c0,0 0.61078,2.40915 -3.53088,3.62549c-8.11846,2.38426 -18.1886,3.07789 -30.0036,2.75382c-11.47937,-0.31486 -11.12385,-6.39191 -23.16989,-7.72916c-10.15694,-1.12755 -24.33011,1.63472 -24.33011,-7.61567z" fill="#ff2d32" stroke="#000000" stroke-width="3"/><path d="M295.57506,260.94849c0,0 -11.15141,1.20998 -16.76884,0.39128c-5.6682,-0.8261 -13.41066,-6.69712 -18.90847,-7.49418c-11.63503,-1.68681 -18.8781,0.33038 -21.87117,-1.71219c-0.19252,-0.13138 -4.7396,-1.85511 -4.14336,-7.49904c1.43332,-13.5677 7.36401,-15.63295 7.36401,-15.63295c0,0 6.85839,7.77292 14.89532,8.75183c1.574,0.19171 0.48514,-2.59423 0.48514,-2.59423c0,0 -0.22927,-1.33962 0.1438,-2.23173c0.55869,-1.336 2.88252,-5.00511 2.88252,-5.00511c0,0 0.7538,2.00639 2.87038,4.36397c2.55502,2.84593 7.44172,5.59459 12.50053,9.09155c5.62371,3.88745 15.05786,7.27923 17.31599,9.40502c2.45923,2.31509 3.23415,10.16577 3.23415,10.16577z" fill="#ab164a" stroke="none" stroke-width="0"/><path d="M240.38179,234.48749c-1.40582,0 -2.09091,-0.41236 -2.09091,-1.81818c0,-1.40581 0.86691,-1.90909 2.27273,-1.90909c1.40581,0 1.90909,0.41236 1.90909,1.81818c0,1.40581 -0.68509,1.90909 -2.09091,1.90909z" fill="#000000" stroke="none" stroke-width="0"/><path d="M253.65452,232.85112c0,0 1.15302,0.18182 5.09091,2.36364c3.20596,1.77629 5.27273,2.81818 5.27273,2.81818c0,0 -0.53893,1.19559 -5.72727,0.09091c-5.40058,-1.14986 -4.63637,-5.27272 -4.63637,-5.27272z" fill="#000000" stroke="none" stroke-width="0"/></g><g><path d="M265.52265,240.02888c0.82611,-3.46156 3.65928,-5.53372 5.46952,-6.01449c7.67085,-2.03725 13.69935,-1.05195 13.55769,0.57693c-0.25528,2.93517 -5.82,3.173 -9.38125,5.73131c-1.80139,1.29408 -2.34243,2.70116 -3.41519,3.78222c-1.02413,1.03206 -2.76777,2.28183 -4.6074,0.96724c-1.64161,-1.17308 -1.97157,-3.58422 -1.62337,-5.04321z" fill="#feebf7" stroke="#000000" stroke-width="2.5"/><path d="M268.12145,237.76963c0,0 0.84208,0.13195 2.33606,0.88289c1.95948,0.98492 2.63269,2.05461 2.63269,2.05461c0,0 -0.73113,0.80278 -1.43566,1.63622c-0.90736,1.07338 -1.24776,2.48878 -2.34559,2.48878c-1.95026,0 -3.03125,-1.70038 -3.03125,-3.875c0,-2.17462 1.84375,-3.1875 1.84375,-3.1875z" fill="#db93e6" stroke="none" stroke-width="0"/></g><g><path d="M274.94966,249.1308c-0.54826,-0.66969 0.65488,-4.95073 3.74974,-8.03212c7.35293,-7.32093 10.90641,-7.187 12.29277,-4.76984c1.25438,2.18705 -4.20064,5.12286 -8.02524,8.98737c-3.41393,3.44954 -6.92085,5.15385 -8.01727,3.81458z" fill="#feebf7" stroke="#000000" stroke-width="2.5"/><path d="M276.19847,248.77755c-0.74376,-0.25819 -0.19492,-3.4362 0.12184,-3.96079c0.84741,-1.40342 2.14434,-1.85743 2.14434,-1.85743l3.42949,1.70373c0,0 -0.93125,1.28302 -1.60733,1.84774c0,0 -2.88472,2.68458 -4.08834,2.26675z" fill="#db93e6" stroke="none" stroke-width="0"/></g><g><path d="M296.43032,239.23795c2.92548,2.30715 -2.77697,3.38954 -6.24837,7.58739c-3.06568,3.70723 -4.07173,8.02661 -7.40333,6.19242c-2.77391,-1.52716 9.33535,-17.18386 13.6517,-13.77981z" fill="#ffffff" stroke="#000000" stroke-width="2.5"/><path d="M283.01674,251.62392c0,-1.74315 3.30779,-4.65713 3.30779,-4.65713l0.98804,1.70296c0,0 -1.15513,3.00289 -2.38984,3.97871c-1.02737,0.81195 -1.90599,0.02052 -1.90599,-1.02455z" fill="#db93e6" stroke="none" stroke-width="0"/></g></g><g><path d="M264.03907,265.08156c-10.74446,-1.13491 -29.04587,-1.59303 -32.33111,-4.89641c-3.00534,-3.02193 -4.20441,-12.08654 0.24164,-12.72341c0.97474,6.04002 6.42167,6.54871 10.69051,6.65282c5.16653,0.12601 12.28277,0.00423 17.9317,1.10901c10.00401,1.95652 15.40332,7.41941 23.03653,7.41941c13.12177,0 22.01074,-1.54908 26.98465,-3.24272c2.70089,-0.91967 3.56499,-2.33689 4.88855,-2.52987c1.73253,-0.25261 3.61067,3.91774 3.61067,3.91774c0,0 0.01894,4.16616 -4.40102,6.94262c-4.62629,2.90607 -14.02312,4.42835 -29.14737,4.42835c-6.09198,0 -14.20739,-6.30674 -21.50475,-7.07754z" fill="#ffffff" stroke="#000000" stroke-width="3"/><path d="M231.67284,247.32037c0,0 -0.38155,1.63918 1.34465,3.79532c1.12449,1.40458 2.88833,3.09793 7.39413,4.17888c3.95604,0.94906 17.60686,0.14278 20.85701,1.03338c4.4966,1.23215 7.51839,3.05135 11.15463,4.65222c1.42164,0.62589 2.93721,1.51392 4.67156,1.8766c7.05837,1.476 9.77755,1.10286 12.73095,0.96282c4.39942,-0.20861 7.05074,-0.75045 7.05074,-0.75045c0,0 0.9676,1.78143 0.44149,3.74862c-0.52611,1.96719 -1.99515,3.27412 -1.99515,3.27412c0,0 -4.45561,2.53125 -12.69397,0.17262c-4.67243,-1.33771 -5.7333,-1.6643 -14.63008,-5.63354c-4.60403,-2.05406 -27.24473,-2.31631 -31.39808,-4.02551c-1.22577,-0.50443 -3.21171,-0.58795 -3.94064,-0.98499c-2.46728,-1.34388 -1.47634,-2.63194 -2.06128,-4.592c-1.09322,-3.66325 1.07405,-7.70807 1.07405,-7.70807z" fill="#db93e6" stroke="none" stroke-width="0"/></g></g><g data-paper-data="{&quot;index&quot;:null}" stroke-linecap="butt"><path d="M165.85554,246.92218c2.64477,-3.00431 10.52321,-7.6742 16.82677,-9.25307c-4.38045,-2.54844 -10.5701,-4.36119 -10.72119,-6.23216c-0.47397,-5.86922 1.13771,-6.26344 3.19003,-7.75556c1.70991,-1.24318 15.70767,6.59056 15.70767,6.59056c0,0 0.99199,-4.97604 5.44195,-6.06594c3.81764,-0.93504 12.00858,1.84424 17.24505,3.37733c3.4597,1.0129 7.14997,2.65331 8.49831,5.49834c0.84236,1.77739 -0.82923,6.01807 0.72204,4.80883c3.93607,-3.0682 13.4911,-3.0867 16.13211,-0.95084c2.3118,1.86962 3.48125,6.97852 2.57305,9.29688c-0.38372,0.97954 -12.01845,0.17924 -11.80397,1.20278c0.42525,2.02935 -3.03938,4.64914 -2.73363,6.31211c0.80826,4.39621 2.30417,6.8472 2.30417,6.8472c0,0 1.59722,6.42873 -1.87145,9.35893c-4.45741,3.76544 -15.36465,4.24401 -28.4962,4.24401c-23.35027,0 -43.18873,-15.72234 -33.0147,-27.27942z" fill="#ff2d32" stroke="#000000" stroke-width="2.5"/><path d="M224.98704,244.49162c0,0 1.51316,-2.39713 6.5625,-3.375c4.51815,-0.875 8.4375,-0.75 8.4375,-0.75c0,0 0.37918,1.88595 0.66248,2.80422c0.31706,1.02772 -0.32057,2.67863 -0.32057,2.67863c0,0 -3.70615,0.46822 -8.71696,0.1368c-1.73303,-0.11462 -2.51784,0.40587 -3.36446,0.40468c-1.14157,-0.00161 -2.30162,-0.5092 -2.86707,-1.0438c-0.41413,-0.39154 -0.39341,-0.85552 -0.39341,-0.85552z" fill="#ab164a" stroke="none" stroke-width="0"/><path d="M191.5491,232.40702c-0.22628,-3.1847 2.56632,-6.4027 4.7432,-7.01149c3.67432,-1.02757 13.4135,2.2836 13.4135,2.2836c0,0 0.44591,4.19484 0.67598,6.14083c0.26499,2.24132 0.35527,6.85917 0.35527,6.85917c0,0 -15.34268,0.38603 -18.81697,0.32135c-1.12836,-0.02101 -3.89355,0.82009 -3.89355,0.82009c0,0 -2.03197,-2.82431 -4.12536,-4.47974c-1.71399,-1.3554 -5.13819,-2.23261 -5.1483,-2.72304c-0.0043,-0.20842 -4.09946,-1.33544 -5.62422,-3.02815c-1.47696,-1.63964 -0.10524,-4.83177 0.74795,-4.74035c2.03331,0.21787 13.23545,7.32984 13.23545,7.32984c0,0 3.08582,-0.09205 4.43705,-1.77211z" fill="#ab164a" stroke="none" stroke-width="0"/><path d="M177.06741,234.23826c0,0 -1.96259,-1.30903 -2.8816,-2.44406c-0.8907,-1.10008 -0.74696,-2.02588 -0.2434,-2.10952c2.86069,-0.47516 4.66995,2.26637 5.37945,3.93806c0.255,0.60082 0.37948,1.82088 0.37948,1.82088c0,0 -1.26201,-1.20535 -2.63393,-1.20535z" fill="#000000" stroke="none" stroke-width="0"/><path d="M232.46919,243.65792c0.08928,-0.86966 0.82736,-0.75893 3.16964,-0.75893c2.96728,0 3.70536,0.24641 3.70536,2.45535c0,1.62521 -2.29617,0.52367 -4.18249,-0.07518c-1.58725,-0.5039 -2.83218,-0.26086 -2.69251,-1.62125z" fill="#000000" stroke="none" stroke-width="0"/><path d="M168.0928,253.7841c0.41035,1.39379 1.94289,4.05178 1.94289,4.05178c0,0 0.8741,-1.45998 1.76815,-2.61149c0.41095,-0.5293 0.33317,-1.19061 1.05509,-1.26362c4.81087,-0.48655 15.12922,2.25199 23.50312,3.15586c25.47743,2.75 29.375,12.9375 29.375,12.9375c0,0 -6.39757,4.5625 -30.125,3.3125c-7.34517,-0.38695 -15.69153,-1.61416 -21.78557,-4.67929c-5.86,-2.94741 -8.21622,-5.2804 -10.30166,-11.49954c-1.15427,-3.44225 1.00768,-7.16821 2.5526,-8.86382c0.6586,-0.72284 1.40963,-0.76985 1.40963,-0.76985c0,0 0.16829,4.74408 0.60575,6.22997z" fill="#ab164a" stroke="none" stroke-width="0"/><g><path d="M156.2569,252.48996c-0.06649,-0.54091 7.36193,-4.42034 7.36193,-4.42034c0,0 -2.02945,5.02166 0.22929,10.46884c2.59644,6.2616 10.56318,13.17005 28.85616,15.06992c10.15726,1.05492 29.1643,0.54081 35.40837,-4.89204c1.91234,-1.6639 3.11381,-4.88147 2.32863,-7.41815c-0.98738,-3.18995 -2.35631,-5.08282 -0.89023,-5.43345c2.28393,-0.54622 4.86375,5.57813 4.86375,8.99365c0,4.03946 -1.07829,7.26345 -3.98861,10.15298c-6.48759,6.44125 -19.33191,7.80755 -35.48507,7.80755c-14.39745,0 -38.03141,-14.17678 -38.58428,-15.71229c-0.17861,-0.49608 0.51231,-9.63595 -0.09993,-14.61665z" fill="#ffffff" stroke="#000000" stroke-width="2.5"/><path d="M157.83585,255.18733c0,0 6.43027,20.63434 31.97368,23.68421c39.67222,4.73684 42.89474,-9.07895 42.89474,-9.07895c0,0 -0.97925,3.42645 -6.44046,6.90981c-5.12151,3.26669 -14.11942,7.19446 -35.39506,4.64283c-10.35323,-1.24167 -19.07184,-5.60413 -24.72629,-9.08049c-5.39703,-3.3181 -8.76287,-5.81736 -8.76287,-5.81736l0.45627,-11.26004z" fill="#db93e6" stroke="none" stroke-width="0"/></g><g><g><path d="M183.8842,243.80852c-0.02614,-0.5318 5.80257,-5.02211 16.45373,-4.65839c17.226,0.58823 22.0876,11.03656 21.55178,12.30545c-1.07843,2.55385 -8.83558,-5.63573 -22.43413,-6.8122c-10.61771,-0.91859 -15.49801,0.65873 -15.57139,-0.83487z" fill="#ffffff" stroke="#000000" stroke-width="2"/><path d="M189.23585,243.23916l-1.26122,-1.37255c0,0 4.88794,-2.31743 7.61649,-2.28441c8.75905,0.10601 12.86042,1.89226 12.86042,1.89226l-2.45098,3.43137z" fill="#db93e6" stroke="none" stroke-width="0"/></g><g><path d="M178.53629,249.13064c-0.20504,-0.28314 -0.58154,-1.80734 2.94662,-2.87414c2.97823,-0.90052 9.3869,-1.39056 14.45534,-1.39056c11.07276,0 24.15277,7.1031 23.28431,10.93138c-0.49019,2.16085 -10.54487,-3.97059 -21.61764,-3.97059c-11.07277,0 -18.46115,-1.8572 -19.06863,-2.69608z" fill="#ffffff" stroke="#000000" stroke-width="2"/><path d="M201.07202,251.00254c0,0 -3.62932,-0.24947 -4.83843,-0.28906c-1.1929,-0.03906 -2.79201,0.2226 -2.79201,0.2226l-2.52576,-5.07146c0,0 5.12937,-0.33219 7.4043,0.01229c4.44348,0.67285 5.65319,1.10104 5.65319,1.10104l-2.9013,4.02459z" fill="#db93e6" stroke="none" stroke-width="0"/></g><path d="M174.71274,253.59144c0,-0.67973 0.29446,-2.88866 3.35993,-3.06372c3.77895,-0.21581 10.80861,1.10294 17.66949,1.10294c6.74783,0 13.67793,1.91675 17.61696,3.98355c3.31486,1.7393 4.19677,3.52765 4.19677,4.93802c0,3.08629 -11.83831,-4.70588 -24.26471,-4.70588c-12.42641,0 -18.57843,-0.05096 -18.57843,-2.25491z" fill="#ffffff" stroke="#000000" stroke-width="2"/></g></g><g data-paper-data="{&quot;index&quot;:null}" stroke="none" stroke-width="0" stroke-linecap="butt"><path d="M180.94286,222.78112c0,-4.94467 2.52216,-7.81014 5.58022,-7.79752c1.71079,0.00706 2.71053,2.75229 5.6575,2.09021c3.58691,-0.80586 6.44077,-5.88542 9.57623,-6.09502c3.47882,-0.23256 8.48837,7.15116 8.48837,7.15116c0,0 -1.25578,7.24368 -3.29961,13.1826c-2.14956,6.24612 -5.27473,11.0808 -8.09574,10.82903c-3.02182,-0.2697 -17.90698,-8.28267 -17.90698,-19.36047z" fill="#0066cc"/><path d="M208.23828,226.13957c0,0 -1.35681,3.64847 -1.91893,5.62382c-1.23695,4.34678 -4.19855,10.30553 -7.81836,10.14563c-2.09459,-0.09252 -5.9671,-2.74267 -10.28318,-7.114c-2.90508,-2.94227 -6.77886,-6.68702 -7.55108,-10.87079c-0.19788,-1.07207 1.67147,-2.52083 1.67147,-3.64312c8.3721,7.99101 12.67433,14.83164 14.06977,14.53488z" fill="#0f1b82"/><path d="M211.40795,219.46716c0,0 -6.82139,-7.51955 -8.95348,-8.02326c-0.44284,-0.10462 -6.9719,5.1264 -9.95578,6.36853c-0.52399,0.21812 -2.02085,0.28816 -3.24064,-0.26406c-1.04531,-0.47323 -1.76359,-1.49611 -2.88386,-2.23027c-0.79095,0.3369 -5.34731,7.79713 -5.34731,7.79713c0,0 10.15371,17.7934 17.02382,18.25463c1.76779,0.11868 4.46653,-2.01639 6.08241,-5.30912c1.23072,-2.50789 2.29266,-5.90987 3.26173,-8.23257c0.88496,-2.12109 1.73348,-3.28062 1.73348,-3.28062c0,0 -0.71678,4.27362 -1.94516,8.77795c-1.35658,4.97446 -5.21394,10.80438 -9.56844,9.88657c-1.01643,-0.21424 -4.79498,-1.84776 -7.41557,-4.39167c-5.60244,-5.43852 -11.30969,-14.20756 -11.38218,-16.32489c-0.03737,-1.09156 1.92615,-3.43381 2.78561,-4.67325c1.1573,-1.66896 2.46483,-3.8608 5.17912,-4.46287c1.44058,-0.31954 3.3672,2.48002 4.80539,2.07894c4.54026,-1.2662 8.96448,-7.13396 11.56507,-6.78512c2.60059,0.34883 8.25581,10.81395 8.25581,10.81395z" fill="#000000"/></g><g data-paper-data="{&quot;index&quot;:null}" stroke-linecap="butt"><g data-paper-data="{&quot;index&quot;:null}"><path d="M281.27649,178.96665c-1.63033,6.86743 -15.62989,8.23231 -45.27685,5.76547c-14.48816,-1.20552 -32.53463,-8.7264 -41.09698,-14.50338c-5.61741,-3.79004 5.55423,-37.18889 11.62324,-40.20333c15.93945,-7.91707 47.57383,-10.97901 61.51462,-0.28485c8.54201,6.55269 4.03308,28.03285 4.03308,28.03285c0,0 -3.1329,4.95732 -5.02091,12.76955c4.08032,0.74974 15.47538,3.15182 14.22383,8.42368z" fill="#fddfbd" stroke="#000000" stroke-width="3"/><path d="M266.55812,164.94431c0,0 -21.41329,-12.06117 -25.13713,-11.90969c-0.69645,1.15405 -2.92332,15.14676 -3.39539,14.88832c-11.79255,-6.45616 -15.30999,-9.5136 -15.30999,-9.5136l-12.71465,18.02192c0,0 -5.5712,-7.05154 -7.98482,-10.52777c0.14656,-2.22956 -2.52796,5.72897 -2.52796,5.72897l-4.06351,-2.5798c0,0 -0.58215,-1.48205 -0.44421,-2.7468c0.65405,-5.99673 4.02784,-23.02165 14.00887,-29.34612c11.63068,-7.36977 64.97094,1.99897 64.97094,1.99897c0,0 -1.96024,13.1111 -3.3224,17.89303c-1.67273,3.19852 -3.58002,8.53665 -3.58002,8.53665z" fill="#f89587" stroke="none" stroke-width="0"/></g><g><g><path d="M172.09305,156.13732c0,0 -7.80004,4.12669 -15.13781,6.32547c-5.08599,1.52402 -9.89789,1.49691 -11.95126,1.10906c-5.01586,-0.94745 -5.67181,-11.49608 -2.37845,-13.00062c1.93361,-0.88335 6.26582,-1.11113 9.99358,-1.10867c9.29781,0.00612 20.21789,1.89238 20.21789,1.89238l-0.74394,4.78236z" fill="#0066cc" stroke="#000000" stroke-width="3"/><path d="M142.24448,158.01051c0,0 2.50568,0.3111 11.43716,-0.39425c7.58405,-0.59895 10.98328,-2.53815 13.18489,-3.55222c1.98935,-0.91631 2.71503,-1.46072 2.71503,-1.46072l0.42553,2.95429c0,0 -9.86296,5.336 -16.87289,6.406c-4.12079,0.62899 -8.33655,0.20148 -8.33655,0.20148c0,0 -1.44539,-1.21229 -1.78347,-1.85182c-0.35804,-0.67729 -0.76971,-2.30277 -0.76971,-2.30277z" fill="#0f1b82" stroke="none" stroke-width="0"/></g><g stroke="#000000"><path d="M278.3367,141.19369c0,0 -56.21941,5.16173 -65.85187,7.83265c-12.56847,3.48503 -24.44242,6.40919 -24.44242,6.40919c0,0 -12.18738,-4.86156 -15.55255,-17.3952c-1.03023,-3.83707 8.8242,-23.60458 10.23111,-25.90086c4.25787,-6.94946 6.7075,-16.82675 18.16475,-20.76545c30.69016,-10.55048 69.55297,-0.73977 77.00426,5.7628c6.55037,5.71635 0.57251,23.26877 0.57251,23.26877z" fill="#ff2d32" stroke-width="3"/><path d="M173.09308,135.81336c-0.11871,-7.67143 21.39789,-42.04593 25.18601,-41.76431c12.8553,0.95571 15.20951,54.51343 15.20951,54.51343l-27.78598,6.18501c0,0 -12.49273,-11.38518 -12.60954,-18.93413z" fill="#ab164a" stroke-width="1.5"/></g></g><g><path d="M170.21258,142.03973c0.64038,-0.86177 9.79316,6.17248 14.40508,12.99615c2.65019,3.92114 1.40876,8.75774 1.1138,11.78816c-0.22602,2.32207 -4.58525,5.3959 -7.62574,5.71206c-4.88498,0.50795 -10.08507,-27.54656 -7.89314,-30.49638z" fill="#fddfbd" stroke="#000000" stroke-width="3"/><path d="M174.47109,164.02926c0,0 1.07364,0.40608 2.98486,-0.20627c2.41735,-0.77453 7.69943,-4.12045 7.69943,-4.12045c0,0 1.22116,3.88105 1.12823,4.99786c-0.12686,1.52459 -3.71223,4.51253 -6.54232,5.84173c-1.54234,0.72439 -2.57524,0.19312 -2.7543,0.23213c-0.48963,0.10666 -2.51588,-6.74501 -2.51588,-6.74501z" fill="#f89587" stroke="none" stroke-width="0"/><path d="M176.90898,154.10822c0.06082,-0.59192 8.08674,4.11302 7.59227,5.36735c-0.63819,1.61892 -3.41231,9.12821 -5.44272,6.95584c-0.82923,-0.88722 -2.43738,-9.52145 -2.14954,-12.32319z" fill="#f89587" stroke="#000000" stroke-width="1.5"/></g><g><g data-paper-data="{&quot;index&quot;:null}"><path d="M210.67633,164.80527c-1.7325,1.93277 -5.28374,-6.65288 -5.9326,-6.22766c-0.42647,0.27948 -5.17785,2.94554 -9.05958,6.11386c-3.94555,3.2204 -7.145,7.52387 -7.28093,7.21994c-0.07395,-0.16535 -2.48701,-14.76898 -1.19359,-15.87569c7.14142,-6.11051 34.58667,-8.58243 34.58667,-8.58243c0,0 -8.8934,14.86801 -11.11998,17.35196z" fill="#50a5eb" stroke="#000000" stroke-width="3"/><path d="M211.12032,153.54567l7.91418,-4.51235l-9.16491,14.9292z" fill="#66ffff" stroke="none" stroke-width="0"/></g><g data-paper-data="{&quot;index&quot;:null}"><path d="M296.04448,172.4485c0,0 -16.117,-9.12478 -24.17812,-12.13569c-0.85036,-0.31762 2.37526,-2.61992 1.03477,-3.24876c-7.40144,-3.47212 -23.87961,-8.41832 -31.77344,-10.84136c-0.62068,-0.19053 -2.14394,-0.64036 -2.55607,-0.21679c-2.15054,2.21029 -0.7978,10.80206 -2.84414,10.65501c-2.21316,-0.15903 -4.33242,-1.68629 -6.27535,-3.94263c-3.03883,-3.52899 -5.52065,-7.23755 -5.52065,-7.23755c0,0 7.91589,-9.64452 18.18333,-44.76626c3.00585,1.89813 9.13304,9.41184 10.35655,14.80085c1.11146,4.89553 -0.24341,8.76068 0.47123,8.14851c7.0973,-6.07963 19.9607,-10.56235 24.76245,-10.8559c8.34921,-0.51041 27.71543,37.48221 27.71543,37.48221c0,0 -13.96923,-3.17788 -22.5038,-2.53144c5.82595,4.06276 12.90949,20.68859 13.1278,24.68981z" fill="#66ffff" stroke="#000000" stroke-width="3"/><path d="M265.39404,138.17944c0,0 7.60428,8.3042 11.40103,12.84736c4.47597,5.35589 14.57501,16.97913 14.57501,16.97913l-17.71771,-8.48934c0,0 2.33051,-1.46586 0.10277,-3.55834c-1.46451,-1.37558 -4.81254,-2.17006 -9.74332,-3.87031c-3.74126,-1.29008 -20.18574,-6.46266 -24.94634,-7.75285c-0.79343,-0.21504 -1.56143,0.95789 -1.56143,0.95789c0,0 -1.34036,2.05518 -1.61981,3.39455c-0.40685,1.9499 -0.52679,6.46564 -0.52679,6.46564c0,0 -2.80162,-1.09388 -4.10672,-2.31545c-1.84397,-1.72595 -5.91038,-7.06056 -5.91038,-7.06056c0,0 1.75171,-2.97495 4.17308,-7.1826c4.48138,-7.78734 10.3183,-23.59499 13.10628,-35.73282c0.65697,1.60135 4.25149,29.6551 4.25149,29.6551c0,0 9.13324,-3.13511 17.21264,-5.50072c5.25544,-1.53876 10.58683,-2.81188 10.88333,-2.47966c7.19652,3.80411 18.91522,20.13473 18.91522,20.13473c0,0 -17.80699,-4.49767 -22.77904,-5.63067c-2.33449,-0.53197 -5.70934,-0.86112 -5.70934,-0.86112z" fill="#50a5eb" stroke="none" stroke-width="0"/></g></g></g><g data-paper-data="{&quot;index&quot;:null}" stroke="none" stroke-width="0" stroke-linecap="butt"><g fill="#000000"><path d="M193.11794,117.45874c0,0 3.95367,0.60877 11.19137,6.8131c4.80682,4.12053 9.95186,9.6988 15.83612,15.82766c7.13463,7.43121 14.99128,15.57945 19.96711,21.73363c1.6984,-0.48243 3.07078,-1.82412 5.49251,-3.82983c5.16524,-4.2779 12.27316,-11.34347 17.59455,-17.897c6.44296,-7.93479 11.40473,-15.34479 11.40473,-15.34479c0,0 -0.47279,3.40374 -3.15524,8.13266c-6.82483,12.03159 -27.66473,32.48969 -31.22753,32.38934c-0.84592,-0.02382 -9.40678,-9.51652 -18.60052,-18.96275c-6.30001,-6.47303 -12.8646,-13.67359 -18.20135,-19.05677c-5.92732,-5.97889 -10.30173,-9.80524 -10.30173,-9.80524z" data-paper-data="{&quot;index&quot;:null}"/><path d="M224.27962,147.12833c0,0 5.48695,4.81138 7.27445,7.10227c1.18386,1.51725 2.4071,5.30576 2.4071,5.30576c0,0 -0.91205,11.00394 -6.15789,10.56745c-2.57847,-0.21455 -2.48592,-2.7751 -2.85995,-7.26502c-0.33751,-4.05157 -1.72838,-13.03028 -3.46907,-16.54118c-0.22123,0.14628 2.80536,0.83072 2.80536,0.83072z" data-paper-data="{&quot;index&quot;:null}"/><path d="M257.75856,157.43995c-0.28109,3.37821 -1.47833,6.77705 -2.46939,9.15698c-1.39727,3.35541 -3.19222,5.65842 -4.93365,5.69698c-0.84464,-0.0651 -1.52246,-0.34141 -1.86229,-1.21144c-1.24767,-3.1944 0.44212,-10.61371 0.44212,-10.61371l0.16511,-5.13544c0,0 7.30673,-6.47949 8.7584,-6.10451c0.53993,0.13946 -0.0129,7.16059 -0.10031,8.21115z" data-paper-data="{&quot;index&quot;:null}"/></g><g><path d="M247.01989,176.25856c0,0 -5.22764,2.33008 -11.25864,2.17843c-2.40034,-0.06036 -16.88583,-1.19705 -21.90961,-2.95203c-2.92548,-1.02198 -3.81996,-8.93019 -4.19688,-10.38002c-0.19166,-0.73727 4.64234,-0.79013 8.4923,0.43616c0.99569,0.31716 2.89339,0.43727 3.71072,1.00215c0.38735,0.26769 0.60668,1.03272 0.17899,1.26431c-0.79155,0.42863 -2.7735,0.24218 -2.7735,0.24218c0,0 0.74929,1.35959 1.45977,1.98886c2.51872,2.23083 5.26315,3.84418 7.18691,4.99794c5.145,3.08567 19.10995,1.22202 19.10995,1.22202z" fill="#000000"/><path d="M219.36228,174.69643c0,0 -2.94271,-0.6675 -3.83057,-1.34641c-0.70547,-0.53944 -1.47619,-2.0673 -1.47619,-2.0673c-0.6079,-1.75946 -1.83477,-4.67004 -1.83477,-4.67004c0,0 2.52101,0.38838 3.47192,0.4675c0.52825,0.84035 -0.7534,0.81387 0.74,2.65861c2.83154,3.27336 6.61945,5.16443 6.61945,5.16443c0,0 -2.37599,-0.00242 -3.68986,-0.2068z" fill="#ffffff"/></g></g></g></g></svg>