<svg version="1.1" xmlns="http://www.w3.org/2000/svg" xmlns:xlink="http://www.w3.org/1999/xlink" width="173" height="208" viewBox="0,0,173,208"><defs><radialGradient cx="262.08749" cy="139.27409" r="43.87922" gradientUnits="userSpaceOnUse" id="color-1"><stop offset="0" stop-color="#8f8256"/><stop offset="1" stop-color="#8d681f"/></radialGradient><radialGradient cx="263.37748" cy="145.73106" r="18.68929" gradientUnits="userSpaceOnUse" id="color-2"><stop offset="0" stop-color="#0c0b0b"/><stop offset="1" stop-color="#533907"/></radialGradient><radialGradient cx="290.16321" cy="135.613" r="15.62237" gradientUnits="userSpaceOnUse" id="color-3"><stop offset="0" stop-color="#36270c"/><stop offset="1" stop-color="#0c0b0b"/></radialGradient><radialGradient cx="234.58763" cy="145.0642" r="15.62237" gradientUnits="userSpaceOnUse" id="color-4"><stop offset="0" stop-color="#36270c"/><stop offset="1" stop-color="#0c0b0b"/></radialGradient></defs><g transform="translate(-153.5,-76)"><g data-paper-data="{&quot;isPaintingLayer&quot;:true}" fill-rule="nonzero" stroke-linejoin="miter" stroke-miterlimit="10" stroke-dasharray="" stroke-dashoffset="0" style="mix-blend-mode: normal"><path d="M236.18794,225.30501c0,0 -0.30792,-4.9947 1.40368,-5.03958c5.05064,-0.13245 9.86908,-2.02517 14.64558,-0.4779c1.98347,0.64253 2.94723,5.01932 2.94723,5.01932l6.26264,33.99829c0,0 0.69539,3.50265 1.0194,5.52836c0.34644,2.16586 -0.67424,5.47905 -2.99769,5.66353c-8.53085,0.67734 -13.71228,2.57566 -19.14056,1.72201c-1.9776,-0.311 -4.05465,-0.76298 -4.92232,-2.46094c-1.13341,-2.21795 -0.58132,-6.85973 -0.58132,-6.85973z" fill="#000000" stroke="#000000" stroke-width="3" stroke-linecap="round"/><path d="M232.21046,262.66591c0,0 0.25625,4.66443 -1.0161,6.8149c-0.97398,1.64628 -3.07606,1.98106 -5.0699,2.18065c-5.47283,0.54786 -10.52442,-1.63744 -18.99704,-2.79176c-2.30755,-0.31438 -3.11593,-3.67892 -2.63254,-5.82146c0.45214,-2.00394 1.36881,-5.46137 1.36881,-5.46137l8.41141,-33.58667c0,0 1.24014,-4.31499 3.2609,-4.8452c4.8663,-1.27679 9.55591,0.88263 14.58913,1.29793c1.70569,0.14073 1.081,5.10929 1.081,5.10929z" fill="#000000" stroke="#000000" stroke-width="3" stroke-linecap="round"/><g data-paper-data="{&quot;index&quot;:null}"><g data-paper-data="{&quot;index&quot;:null}"><path d="M221.01879,173.14618c-1.13179,-3.27287 9.18753,-17.62389 11.63469,-18.02986c2.65968,-0.44123 14.04652,10.85734 14.04652,10.85734l-1.7445,3.39899l11.13054,-22.69645c0,0 3.44887,-8.03241 5.50826,-6.71932c0,0 11.92804,1.26685 26.70086,15.22938c-1.50793,5.32719 -9.26723,15.64121 -9.26723,15.64121c0,0 -16.16809,23.69953 -21.24497,23.55867c-5.07682,-0.14083 -35.70207,-18.16876 -36.76414,-21.23999z" fill="#68330c" stroke="none" stroke-width="3" stroke-linecap="round"/><path d="M256.06663,146.34141c0,0 4.3807,-7.4544 6.3881,-6.13407c0,0 11.71543,1.41243 26.05211,15.35273c-0.8393,2.81237 -3.48427,7.02371 -5.74526,10.30974c-0.45005,-0.29249 -0.86407,-0.54873 -1.20647,-0.75736c-7.58933,-4.6242 -18.57362,-10.21388 -26.63945,-15.53254c-0.07993,-0.05272 1.151,-3.23851 1.151,-3.23851z" fill="#ffddb7" stroke="#000000" stroke-width="2" stroke-linecap="butt"/><path d="M255.92082,148.64772l27.04604,16.62739l-2.12306,3.0969l-26.90088,-16.20261z" data-paper-data="{&quot;index&quot;:null}" fill="#ffffff" stroke="#000000" stroke-width="2" stroke-linecap="round"/><path d="M221.25652,173.05712c-1.13178,-3.27285 9.18752,-17.62387 11.63468,-18.02984c2.65966,-0.44123 14.04651,10.85733 14.04651,10.85733l-1.7445,3.399l11.13053,-22.69646c0,0 3.44886,-8.03242 5.50824,-6.71933c0,0 11.92803,1.26685 26.70085,15.22938c-1.50794,5.3272 -9.26721,15.64123 -9.26721,15.64123c0,0 -16.16809,23.69951 -21.24497,23.55865c-5.07681,-0.14083 -35.70207,-18.16876 -36.76414,-21.23999z" data-paper-data="{&quot;origPos&quot;:null}" fill="none" stroke="#000000" stroke-width="2.5" stroke-linecap="round"/></g><g stroke-linecap="butt"><path d="M277.29434,104.47038c0,0 1.65505,6.72572 -2.06191,7.34973c-1.14669,0.19251 -6.47959,2.76875 -9.428,1.40386c-1.45355,-0.67287 2.40178,-4.71759 -0.94356,-8.41085c-0.70898,-0.78273 -17.4482,1.14541 -16.9188,4.26486c1.90618,11.23225 -3.27023,7.04518 -3.93348,7.35957c-8.75043,4.1479 -7.58374,-5.10581 -7.58374,-5.10581l-1.34534,-8.01364l40.86952,-6.86132z" fill="#8c651a" stroke="#000000" stroke-width="2.5"/><g stroke="#000000"><path d="M222.39159,167.78447l-8.36797,-49.84392l86.54725,-14.52982l8.36795,49.84389z" fill="#121010" stroke-width="3"/><path d="M222.99784,171.46096l-8.36796,-49.84391l86.54726,-14.52983l8.36796,49.84393z" fill="url(#color-1)" stroke-width="2.5"/></g><path d="M255.05241,166.07952l-6.18863,-36.86271l22.83884,-3.83424l6.18863,36.86272z" fill="url(#color-2)" stroke="#000000" stroke-width="2.5"/><path d="M274.84024,138.26957c-1.17601,-8.55281 4.73102,-16.67547 13.19363,-18.14263c8.46268,-1.46719 16.27637,4.27685 17.45238,12.82955c1.17601,8.55279 -4.73104,16.67545 -13.19365,18.14261c-8.46269,1.46715 -16.27638,-4.27686 -17.45238,-12.82959z" fill="url(#color-3)" stroke="none" stroke-width="0"/><path d="M219.26461,147.72078c-1.17601,-8.55277 4.73104,-16.67545 13.19365,-18.14261c8.46263,-1.46717 16.27637,4.27686 17.45238,12.82957c1.176,8.55277 -4.73105,16.67544 -13.19365,18.14261c-8.46264,1.46714 -16.27634,-4.27688 -17.45235,-12.82961z" fill="url(#color-4)" stroke="none" stroke-width="0"/></g></g><g data-paper-data="{&quot;index&quot;:null}" stroke="#000000"><path d="M214.96393,178.77673c0,0 1.81966,-14.41173 4.02742,-14.97233c3.52905,-0.89614 9.50276,-0.78996 15.83098,-0.69722c5.5485,0.08131 11.36953,0.05595 16.0543,0.6343c1.81701,0.22431 3.08218,14.51533 3.08218,14.51533l1.48884,28.00834c0,0 0.5823,16.97307 -1.1244,16.97307c-15.19282,0 -32.99981,0.87248 -39.77159,0.01196c-2.25724,-0.28683 -1.40993,-16.41167 -1.40993,-16.41167z" fill="#68330c" stroke-width="2.5" stroke-linecap="round"/><g><g><path d="M228.13463,163.11664h19.00404v8.89074c-0.29006,1.24583 -0.5134,2.26948 -0.64249,2.79528c-1.26833,5.16634 -8.60108,26.31688 -9.25428,29.83072c-3.14253,-10.72744 -6.16295,-21.6183 -9.10727,-32.54359z" fill="#ffffff" stroke-width="2" stroke-linecap="butt"/><path d="M233.22271,164.01203h8.51527v2.25267c-0.12997,0.30292 -3.96,6.98763 -4.25269,7.84202c-1.4081,-2.60836 -2.9433,-5.22803 -4.26258,-7.88449z" fill="#ffddb7" stroke-width="1.5" stroke-linecap="butt"/><path d="M237.64735,173.84315l-0.3525,26.79042" fill="none" stroke-width="1.5" stroke-linecap="round"/><path d="M237.3722,204.10528v18.54721" fill="none" stroke-width="2" stroke-linecap="round"/><path d="M238.03938,176.97374c0,-0.28257 0.22908,-0.51165 0.51165,-0.51165c0.28257,0 0.51164,0.22908 0.51164,0.51165c0,0.28257 -0.22907,0.51164 -0.51164,0.51164c-0.28257,0 -0.51165,-0.22907 -0.51165,-0.51164z" fill="#000000" stroke-width="0.5" stroke-linecap="butt"/><path d="M237.92568,183.11352c0,-0.28257 0.22907,-0.51164 0.51164,-0.51164c0.28257,0 0.51165,0.22907 0.51165,0.51164c0,0.28257 -0.22908,0.51165 -0.51165,0.51165c-0.28257,0 -0.51164,-0.22908 -0.51164,-0.51165z" fill="#000000" stroke-width="0.5" stroke-linecap="butt"/><path d="M237.90604,189.2533c0,-0.28257 0.22908,-0.51165 0.51165,-0.51165c0.28257,0 0.51164,0.22908 0.51164,0.51165c0,0.28257 -0.22907,0.51165 -0.51164,0.51165c-0.28257,0 -0.51165,-0.22908 -0.51165,-0.51165z" fill="#000000" stroke-width="0.5" stroke-linecap="butt"/><path d="M238.39527,219.95213c0,-0.28257 0.22907,-0.51164 0.51164,-0.51164c0.28257,0 0.51165,0.22907 0.51165,0.51164c0,0.28257 -0.22908,0.51165 -0.51165,0.51165c-0.28257,0 -0.51164,-0.22908 -0.51164,-0.51165z" fill="#000000" stroke-width="0.5" stroke-linecap="butt"/><path d="M238.14823,213.69865c0,-0.28257 0.22908,-0.51164 0.51165,-0.51164c0.28257,0 0.51165,0.22907 0.51165,0.51164c0,0.28257 -0.22908,0.51165 -0.51165,0.51165c-0.28257,0 -0.51165,-0.22908 -0.51165,-0.51165z" fill="#000000" stroke-width="0.5" stroke-linecap="butt"/><path d="M237.03688,206.23992l-17.66667,-27.33334l5.33333,-4.66666l-3,-5.66667l5.33334,-2.66666" fill="none" stroke-width="2" stroke-linecap="round"/><path d="M247.53735,165.72217l4.96346,2.68866l-2.38085,5.65425l3.95609,4.68865l-16.60059,27.76437" fill="none" stroke-width="2" stroke-linecap="round"/><g stroke-width="1.5" stroke-linecap="round"><path d="M245.46314,210.70489l0.08713,-3.31059l2.87498,1.04546l2.0909,-3.22347l0.17424,5.57574z" fill="#ffffff"/><path d="M243.95166,211.04223h8.45072" fill="none"/></g></g><path d="M236.63552,173.47543l-7.21212,3.04546" fill="none" stroke-width="1.5" stroke-linecap="round"/><path d="M237.75673,173.733l7.33333,2.5" fill="none" stroke-width="1.5" stroke-linecap="round"/></g></g><path d="M219.64631,164.12491c-4.52592,-0.85782 -5.93631,-3.65796 -5.93631,-3.65796c0,0 -1.85454,-2.45798 -1.97183,-4.02442c-0.35188,-4.69935 -0.72282,-18.15106 0.03842,-29.76836c0.02541,-0.38772 0.05381,-0.6047 0.10244,-0.99023c0.14582,-1.15658 0.90742,-5.64944 0.90742,-5.64944c0,0 3.25391,-1.75633 5.02943,-2.27244c5.32657,-1.54837 18.96049,-0.26517 33.29683,-0.09241c1.29939,0.01565 3.55662,1.69651 3.55662,1.69651c0,0 1.64467,3.18216 1.63129,5.21185c-0.08639,13.12227 -0.23056,27.64084 -0.48197,30.96395c-0.04352,0.57533 -0.25322,3.07213 -1.98096,5.21816c-0.45531,0.56554 -2.15036,2.87237 -5.70421,3.40884c-8.92532,1.34732 -24.94533,0.62726 -28.48717,-0.04406z" fill="#ffddb7" stroke="#000000" stroke-width="2.5" stroke-linecap="round"/><path d="M248.27577,146.21666c0.02321,-3.52512 0.46812,-6.38 0.99374,-6.37652c0.52564,0.00347 0.93293,2.86399 0.90974,6.3891c-0.02321,3.52512 -0.46813,6.38 -0.99375,6.37653c-0.52564,-0.00347 -0.93293,-2.86399 -0.90973,-6.38912z" fill="#000000" stroke="#000000" stroke-width="2.5" stroke-linecap="butt"/><path d="M241.75088,146.35148c0.02364,-3.59041 0.36239,-6.49893 0.75661,-6.4963c0.39421,0.00261 0.69464,2.91535 0.67101,6.50577c-0.02364,3.59041 -0.36236,6.49888 -0.7566,6.49629c-0.39421,-0.00261 -0.69466,-2.91533 -0.67103,-6.50574z" fill="#000000" stroke="#000000" stroke-width="2.5" stroke-linecap="butt"/><path d="M255.37453,140.09044c-0.1127,-0.80279 -0.2235,-1.60516 -0.33867,-2.40677c-0.79463,0.46007 -1.54673,0.8607 -1.69172,0.94409c-1.59233,0.91609 -4.14081,2.42793 -5.92817,2.77608c-0.87399,0.17025 -1.91537,0.56403 -2.67025,0.09431c-0.93351,-0.58086 -0.83685,-3.01998 -0.86424,-3.95251c-0.10294,-3.5061 -0.19776,-7.01249 -0.29575,-10.51876c-1.58402,1.79865 -4.13111,3.39926 -5.65989,5.00684c-3.43902,3.61618 -7.12297,6.8865 -10.70917,10.31503c-1.23009,1.17603 -2.24634,2.28915 -3.61079,3.31947c-0.52309,0.39502 -0.87772,1.23222 -1.53478,1.22881c-0.91759,-0.00476 -1.63261,-0.83298 -2.44892,-1.24948c-0.17325,-1.60075 -0.37267,-3.63331 -0.32082,-5.48209c-0.75605,1.10576 -1.77488,2.18574 -2.35809,3.14336c-2.03314,3.33829 -5.52434,12.81636 -5.52434,12.81636c-3.88178,0.02772 -7.5618,-3.39291 -9.89531,-6.16204c-2.08065,0.02168 -4.13855,-0.10656 -6.23229,-0.04871c-0.49919,0.01378 -3.28511,0.1346 -3.60114,-0.06588c-1.94724,-1.23525 -1.41183,-2.50832 -0.93238,-4.20342c0.38361,-1.35628 1.09969,-2.52166 2.01796,-3.528c-1.14426,-0.64957 -2.45931,-1.44705 -2.83537,-2.36699c-0.67994,-1.66334 -0.04509,-2.35706 0.66716,-3.6562c0.79708,-1.4539 1.83706,-2.70973 3.03767,-3.80046c-0.72424,-0.41603 -1.50047,-0.89164 -1.59323,-1.07995c-0.97916,-1.98801 -0.05297,-2.78962 0.82508,-4.28012c1.51465,-2.57116 4.28034,-4.11918 6.89518,-5.27396c0.09551,-2.59606 1.28872,-4.25031 2.48762,-6.58613c1.57889,-3.0762 4.51272,-7.58096 9.12064,-11.08517c5.0565,-3.84533 11.48519,-6.17159 13.48601,-6.69261c4.34199,-1.13067 9.94104,-1.20326 12.11476,-1.04531c4.00438,0.291 11.15408,1.99552 16.34445,5.10927c5.23073,3.13796 8.1214,7.38496 8.52555,8.07499c3.52818,6.02389 5.85314,11.778 6.05668,18.69657c0.04861,1.73002 1.36652,10.73554 -1.10064,15.73325c-2.99717,6.07139 -10.15712,8.94699 -10.45537,9.05501c-0.35323,0.12794 -1.82626,-0.06244 -2.06762,-1.13077c-0.58137,-2.57338 0.397,-8.00492 0.95439,-10.17026c0.10725,-0.3516 0.20452,-0.70598 0.29655,-1.06183c-0.12955,-0.24442 -0.16067,-0.46594 -0.16067,-0.46594z" fill="#000000" stroke="none" stroke-width="0.5" stroke-linecap="butt"/><g><g data-paper-data="{&quot;index&quot;:null}"><path d="M245.83129,186.76333c2.39271,0.49309 7.09449,-2.5064 6.63657,-0.28424c-0.30508,1.48039 -9.44148,21.01287 -11.20206,21.89212c-0.88211,0.44055 -2.19033,0.57336 -2.98904,0.40877c-1.17394,-0.24194 -2.01643,-1.0619 -2.49772,-2.18608c-0.49965,-1.16719 3.35981,-21.92513 3.59305,-23.05702c0.45794,-2.22217 4.06648,2.73329 6.45922,3.22638z" fill="#485e84" stroke="#000000" stroke-width="1.5" stroke-linecap="butt"/><g stroke-linecap="butt"><path d="M247.3243,179.408c4.33507,0.89338 7.37112,3.93802 6.78124,6.8004c-0.58987,2.86239 -4.58234,4.45857 -8.91741,3.56522c-4.33508,-0.89339 -7.37112,-3.93805 -6.78125,-6.80042c0.58987,-2.8624 4.58232,-4.4586 8.91739,-3.56522z" fill="#485e84" stroke="#000000" stroke-width="1.5"/><path d="M249.85786,186.68192l3.8554,-0.84984c0,0 -1.07269,1.67881 -1.75555,2.15921c-1.44631,0.98582 -3.15239,1.02978 -3.15239,1.02978z" fill="#6987bb" stroke="none" stroke-width="0"/><path d="M246.23596,186.77912l1.6393,0.0246c0,0 -0.09735,1.02711 -0.19293,1.37553c-0.1119,0.40797 -0.5311,1.08417 -0.5311,1.08417l-1.90545,-0.33929z" fill="#6987bb" stroke="none" stroke-width="0"/></g><g><path d="M245.90799,185.72972c-5.9803,-1.23245 -8.57059,-5.4357 -7.33816,-11.41605c1.23242,-5.98028 7.38595,-9.76604 13.3663,-8.53363c5.98033,1.23242 9.34262,6.34025 8.1102,12.3206c-1.23242,5.98029 -8.15796,8.86152 -14.13831,7.6291z" fill="#2c394f" stroke="#000000" stroke-width="1.5" stroke-linecap="butt"/><path d="M253.79207,167.03309c0,0 7.28448,4.03359 6.2062,9.26591c-0.61144,2.9671 -2.68971,5.7447 -4.95606,7.62418c-1.61466,1.33903 -3.81394,2.07653 -5.92784,1.6409c-4.34511,-0.89546 -5.49157,-3.14882 -4.41328,-8.38114c0.53849,-2.61298 2.72968,-5.50698 5.03357,-7.26926c2.30946,-1.76658 4.05742,-2.88058 4.05742,-2.88058z" fill="#485e84" stroke="none" stroke-width="0" stroke-linecap="butt"/><path d="M259.69928,178.09743c0,0 -3.79758,3.49476 -10.76556,2.31582c-7.0251,-1.18859 -9.44531,-5.4903 -9.44531,-5.4903" fill="none" stroke="#000000" stroke-width="0.8" stroke-linecap="round"/><path d="M257.47295,182.59174c0,0 -4.527,1.45553 -9.04626,1.21375c-6.51281,-0.34842 -8.55682,-2.9221 -8.55682,-2.9221" fill="none" stroke="#000000" stroke-width="0.75" stroke-linecap="round"/><path d="M259.70372,173.26903c0,0 -3.85918,2.84142 -10.90045,2.05418c-6.77245,-0.75719 -8.35876,-3.23703 -8.35876,-3.23703" fill="none" stroke="#000000" stroke-width="0.8" stroke-linecap="round"/><path d="M240.78541,170.73245c0,0 4.59237,-1.49129 8.12787,-1.68253c4.65677,-0.25192 9.21715,0.73727 9.21715,0.73727" fill="none" stroke="#000000" stroke-width="0.8" stroke-linecap="round"/><path d="M243.77343,184.47402c0,0 -1.73386,-3.81801 -0.68979,-10.17226c0.97432,-5.92963 4.42289,-7.94225 4.42289,-7.94225" fill="none" stroke="#000000" stroke-width="0.8" stroke-linecap="round"/><path d="M249.76523,166.5154c0,0 -0.81359,2.94589 -1.19625,6.26256c-0.3365,2.9167 -0.22932,6.12885 -0.46969,7.75559c-0.28549,1.93213 -1.1572,5.08879 -1.1572,5.08879" fill="none" stroke="#000000" stroke-width="0.8" stroke-linecap="round"/><path d="M252.60739,166.54392c0,0 2.1416,5.27358 1.41125,9.40217c-1.1463,6.47998 -4.32004,10.12047 -4.32004,10.12047" fill="none" stroke="#000000" stroke-width="0.8" stroke-linecap="round"/><path d="M255.95419,167.72894c0,0 1.73905,3.77624 1.57513,7.97924c-0.23603,6.05246 -2.38717,8.87979 -2.38717,8.87979" fill="none" stroke="#000000" stroke-width="0.8" stroke-linecap="round"/><path d="M258.48378,176.48479c-0.42638,-0.08786 -0.6899,-0.55797 -0.5885,-1.04999c0.10137,-0.49203 0.52925,-0.81963 0.95566,-0.73176c0.42642,0.08788 0.68991,0.55796 0.58851,1.04999c-0.10138,0.49204 -0.52926,0.81966 -0.95567,0.73178z" fill="#6987bb" stroke="none" stroke-width="0" stroke-linecap="butt"/><path d="M258.30798,172.98141c-0.24603,-0.0507 -0.40434,-0.29124 -0.35364,-0.53723c0.05072,-0.24603 0.29124,-0.40434 0.53724,-0.35365c0.24604,0.0507 0.40436,0.29123 0.35366,0.53723c-0.05069,0.24603 -0.29124,0.40434 -0.53724,0.35365z" fill="#6987bb" stroke="none" stroke-width="0" stroke-linecap="butt"/></g></g><g><path d="M209.80565,163.09429c2.70691,-1.73604 17.91275,4.445 18.8134,6.56513c0.97888,2.30426 -6.73311,15.04843 -6.73311,15.04843l-3.44871,-0.83253l22.91537,5.09133c0,0 8.00285,1.35929 7.26726,3.50474c0,0 1.46061,11.04259 -7.91665,27.42448c-5.13746,-0.19803 -16.14064,-4.94976 -16.14064,-4.94976c0,0 -24.92047,-9.41916 -25.90168,-14.03219c-0.98121,-4.61302 8.60461,-36.19054 11.14479,-37.81963z" fill="#68330c" stroke="none" stroke-width="3" stroke-linecap="round"/><path d="M241.65051,188.87604c0,0 7.68457,2.32656 6.93111,4.42665c0,0 1.28277,10.88248 -8.16962,26.86587c-2.72162,-0.14356 -7.10015,-1.61149 -10.55965,-2.93483c0.16575,-0.47009 0.30666,-0.89971 0.4202,-1.25431c2.51687,-7.85952 5.16403,-18.99406 8.20367,-27.43524c0.03012,-0.08365 3.17429,0.33185 3.17429,0.33185z" fill="#ffddb7" stroke="#000000" stroke-width="2" stroke-linecap="butt"/><path d="M239.53705,189.24792l-9.1031,28.04125l-3.25871,-1.24014l8.75141,-27.81748z" data-paper-data="{&quot;index&quot;:null}" fill="#ffffff" stroke="#000000" stroke-width="2" stroke-linecap="round"/><path d="M209.93792,163.28938c2.70691,-1.73604 17.91275,4.445 18.8134,6.56513c0.97888,2.30426 -6.73312,15.04843 -6.73312,15.04843l-3.44871,-0.83253l22.91537,5.09133c0,0 8.00285,1.35929 7.26726,3.50473c0,0 1.46061,11.04259 -7.91665,27.42448c-5.13746,-0.19803 -16.14064,-4.94976 -16.14064,-4.94976c0,0 -24.92047,-9.41916 -25.90168,-14.03218c-0.98121,-4.61302 8.60461,-36.19054 11.14479,-37.81963z" data-paper-data="{&quot;origPos&quot;:null}" fill="none" stroke="#000000" stroke-width="2.5" stroke-linecap="round"/></g></g><path d="M223.38246,153.71753c0.70798,0.31394 0.37013,0.97181 0.37013,0.97181l-0.56211,1.08178c-0.75219,2.74012 3.36612,2.36983 5.25832,1.9488c0,0 0.76309,-0.16901 0.94497,0.54005c0.18188,0.70907 -0.58119,0.87807 -0.58119,0.87807c-3.45471,0.76189 -7.87691,0.32813 -7.11022,-3.82873l0.63429,-1.24788c0,0 0.33785,-0.65787 1.04583,-0.34393z" fill="#000000" stroke="none" stroke-width="0.5" stroke-linecap="butt"/><path d="M153.5,284v-208h173v208z" fill="none" stroke="none" stroke-width="0" stroke-linecap="butt"/></g></g></svg>