<svg version="1.1" xmlns="http://www.w3.org/2000/svg" xmlns:xlink="http://www.w3.org/1999/xlink" width="116.10873" height="148.10709" viewBox="0,0,116.10873,148.10709"><defs><linearGradient x1="234.99463" y1="104.62545" x2="234.99463" y2="240.26428" gradientUnits="userSpaceOnUse" id="color-1"><stop offset="0" stop-color="#7dd7ff"/><stop offset="1" stop-color="#579cff"/></linearGradient><linearGradient x1="277.072" y1="99.16113" x2="277.072" y2="238.63432" gradientUnits="userSpaceOnUse" id="color-2"><stop offset="0" stop-color="#7dd7ff"/><stop offset="1" stop-color="#579cff"/></linearGradient></defs><g transform="translate(-184.99895,-93.15719)"><g data-paper-data="{&quot;isPaintingLayer&quot;:true}" fill-rule="nonzero" stroke="#001026" stroke-width="2" stroke-linecap="butt" stroke-linejoin="miter" stroke-miterlimit="10" stroke-dasharray="" stroke-dashoffset="0" style="mix-blend-mode: normal"><path d="M186.37122,230.52176v-27.19711c0,0 32.22118,12.61456 49.01006,10.19014c11.5835,-1.67273 15.86052,-9.07102 15.23122,-13.51345c-1.03411,-7.30021 -5.07578,-14.18187 -7.543,-17.11815c-2.5952,-3.08859 -27.50651,-1.71012 -27.50651,-1.71012l-1.53254,-24.33949l24.4037,-0.85304l10.59155,-28.29065l-62.65449,1.1902l7.65043,-24.25464h89.59642l-22.97488,57.40206l0.72729,9.52139c0,0 27.76813,29.55856 16.06839,45.73173c-30.61519,42.32099 -91.06766,13.24112 -91.06766,13.24112z" fill="url(#color-1)"/><path d="M198.21375,99.74963l10.00441,-5.5907l88.27416,0.58849l-11.18139,5.0022z" fill="#7dd7ff"/><path d="M257.06319,238.63432c0,0 27.45599,-12.37797 27.93658,-27.73932c0.72325,-23.11721 -18.95305,-40.82598 -18.95305,-40.82598l-0.06096,-7.61493l22.56188,-58.585l8.53317,-4.70796l-24.67827,61.59024l-0.04422,7.52079c0,0 6.28611,5.57547 11.76029,15.50853c4.18819,7.5996 7.90112,18.72599 7.96,26.0174c0.05713,7.07471 -3.54893,14.20336 -10.34211,19.54965c-6.73996,5.30442 -24.67331,9.28657 -24.67331,9.28657z" fill="url(#color-2)"/></g></g></svg>