<svg version="1.1" xmlns="http://www.w3.org/2000/svg" xmlns:xlink="http://www.w3.org/1999/xlink" width="199.11324" height="221.55319" viewBox="0,0,199.11324,221.55319"><g transform="translate(-195.52004,-69.22341)"><g data-paper-data="{&quot;isPaintingLayer&quot;:true}" fill-rule="nonzero" stroke-linejoin="miter" stroke-miterlimit="10" stroke-dasharray="" stroke-dashoffset="0" style="mix-blend-mode: normal"><g data-paper-data="{&quot;index&quot;:null}" fill="#000000"><g data-paper-data="{&quot;origRot&quot;:0,&quot;index&quot;:null}" stroke="#000000" stroke-width="3" stroke-linecap="round"><path d="M319.6337,212.14812c-1.95498,0.55645 -2.79146,-6.67025 -2.79146,-6.67025c0,0 -2.09539,-14.05409 -3.43655,-23.04943c-0.88065,-5.90672 -2.2566,-15.13521 -2.2566,-15.13521c0,0 -0.61448,-5.89256 0.46517,-6.10976c6.49539,-1.30662 12.52447,-3.85166 15.94594,-3.34384c1.1405,0.16926 3.15361,5.51792 3.15361,5.51792l10.17599,28.32774c0,0 3.43094,10.07829 3.66332,14.68009c0.1289,2.55222 -24.91944,5.78272 -24.91944,5.78272z" data-paper-data="{&quot;origPos&quot;:null}"/><path d="M317.94189,204.97139l24.24931,-5.78563"/><path d="M341.13372,195.77669l-24.19419,6.01658" data-paper-data="{&quot;origPos&quot;:null}"/></g><path d="M316.72957,200.92507l-5.17492,-38.41661l15.3741,-3.71749l1.40408,0.36884l12.90034,35.89081z" stroke="#000000" stroke-width="1" stroke-linecap="round"/><path d="M317.39676,205.01951l-0.5485,-2.26565l24.78488,-6.00019l0.5485,2.26565z" stroke="none" stroke-width="0" stroke-linecap="butt"/></g><path d="M205.36674,290.77659v-221.55318h189.26654v221.55319z" fill="none" stroke="none" stroke-width="NaN" stroke-linecap="butt"/><g data-paper-data="{&quot;origRot&quot;:0}" fill="#000000" stroke="#000000" stroke-linecap="round"><path d="M302.12884,218.02825c0,0 -0.78362,-4.69693 0.80161,-4.89262c4.67779,-0.5774 8.96457,-2.7991 13.55509,-1.76312c1.90623,0.43019 3.23747,4.48396 3.23747,4.48396l9.20397,31.59837c0,0 0.99484,3.25091 1.49761,5.13802c0.53755,2.01765 -0.08035,5.24301 -2.21995,5.62549c-7.85591,1.4044 -12.47926,3.66382 -17.60605,3.34231c-1.86777,-0.11714 -3.84194,-0.35875 -4.81699,-1.88715c-1.2737,-1.99649 -1.22335,-6.43657 -1.22335,-6.43657z" data-paper-data="{&quot;origPos&quot;:null}" stroke-width="3"/><path d="M330.97351,255.87273c0,0 -5.65949,3.4725 -10.86577,4.24649c-3.99444,0.59383 -12.80899,0.87761 -12.80899,0.87761c0,0 -1.79923,-2.34698 -2.14488,-3.90003c-0.36413,-1.63605 0.32613,-4.27167 0.32613,-4.27167l23.72979,-4.3273z" data-paper-data="{&quot;origPos&quot;:null}" stroke-width="2"/><path d="M302.26318,218.32998c0,0 -0.78362,-4.69693 0.80162,-4.89261c4.67778,-0.5774 8.96457,-2.7991 13.55511,-1.7631c1.90623,0.43019 3.23746,4.48395 3.23746,4.48395l9.20397,31.59837c0,0 0.99486,3.25091 1.49763,5.13802c0.53755,2.01765 -0.08036,5.243 -2.21995,5.62549c-7.85591,1.4044 -12.47926,3.66383 -17.60605,3.34232c-1.86777,-0.11714 -3.84194,-0.35877 -4.81698,-1.88715c-1.2737,-1.99649 -1.22337,-6.43657 -1.22337,-6.43657z" data-paper-data="{&quot;origPos&quot;:null}" stroke-width="3"/></g><g data-paper-data="{&quot;index&quot;:null,&quot;origRot&quot;:0}" fill="#000000" stroke="#000000" stroke-linecap="round"><path d="M299.25176,252.88871c0,0 0.25916,4.43342 -0.91931,6.48272c-0.90217,1.56884 -2.86297,1.89518 -4.72333,2.09262c-5.10646,0.54192 -9.83143,-1.51622 -17.74545,-2.58097c-2.15542,-0.29 -2.92445,-3.48546 -2.48237,-5.52422c0.41348,-1.90684 1.25437,-5.19728 1.25437,-5.19728l7.70806,-31.9626c0,0 1.13917,-4.10696 3.02321,-4.61877c4.53714,-1.23256 8.92409,0.80231 13.6243,1.17776c1.59283,0.12723 1.03099,4.85314 1.03099,4.85314z" data-paper-data="{&quot;origPos&quot;:null}" stroke-width="3"/><path d="M274.40233,249.21574l23.90931,3.3013c0,0 0.81356,2.60323 0.52677,4.25329c-0.27223,1.56637 -1.95923,3.98843 -1.95923,3.98843c0,0 -8.81898,0.09598 -12.83729,-0.32528c-5.2374,-0.54907 -11.05453,-3.77439 -11.05453,-3.77439z" data-paper-data="{&quot;origPos&quot;:null}" stroke-width="2.5"/><path d="M299.13179,253.19593c0,0 0.25916,4.43342 -0.91931,6.48272c-0.90217,1.56884 -2.86297,1.89519 -4.72333,2.09262c-5.10646,0.54192 -9.83142,-1.5162 -17.74545,-2.58096c-2.15542,-0.29 -2.92445,-3.48547 -2.48237,-5.52422c0.41348,-1.90684 1.25437,-5.19728 1.25437,-5.19728l7.70806,-31.9626c0,0 1.13916,-4.10696 3.02321,-4.61877c4.53714,-1.23256 8.92411,0.80231 13.62431,1.17776c1.59283,0.12723 1.03098,4.85314 1.03098,4.85314c0,0 -0.19482,8.92022 -0.31951,14.62964c-0.176,8.05815 -0.45097,20.64799 -0.45097,20.64799z" data-paper-data="{&quot;origPos&quot;:null}" stroke-width="1.5"/></g><g fill="#000000"><g><path d="M281.48471,170.38573c0,0 2.01045,-14.27634 4.24504,-14.81913c6.70372,-1.62839 22.02933,-0.7064 32.27255,-0.7064c1.5835,0 2.95092,13.40843 2.95092,13.40843l1.84431,30.34538c0,0 0.25198,14.81984 -1.47545,14.81984c-15.37735,0 -33.40062,0.84475 -40.25464,0.01158c-2.28466,-0.27771 -1.42705,-15.88997 -1.42705,-15.88997z" data-paper-data="{&quot;origPos&quot;:null}" stroke="#000000" stroke-width="3.5" stroke-linecap="round"/><path d="M301.00276,178.50883c-1.33781,0 -1.33781,-2.46453 -1.33781,-2.46453c0,-5.11162 0,-11.86624 0,-16.97786c0,0 0,-2.46453 1.33781,-2.46453c1.33781,0 1.33781,2.46453 1.33781,2.46453c0,5.11162 0,10.22323 0,15.33485v1.64302c0,0 0,2.46453 -1.33781,2.46453z" stroke="none" stroke-width="0.5" stroke-linecap="butt"/><path d="M313.43144,184.78367c-1.33781,0 -1.33781,-3.09614 -1.33781,-3.09614c0,-6.42163 0,-14.90735 0,-21.32898c0,0 0,-3.09614 1.33781,-3.09614c1.33781,0 1.33781,3.09614 1.33781,3.09614c0,6.42163 0,12.84326 0,19.2649v2.06409c0,0 0,3.09614 -1.33781,3.09614z" stroke="none" stroke-width="0.5" stroke-linecap="butt"/></g><g stroke="#000000" stroke-width="0.5" stroke-linecap="butt"><path d="M316.30945,194.6661c0,6.69533 -4.77985,12.12297 -10.6761,12.12297c-5.89625,0 -10.6761,-5.42764 -10.6761,-12.12297c0,-6.69533 4.77985,-12.12297 10.6761,-12.12297c5.89625,0 10.6761,5.42764 10.6761,12.12297z"/><path d="M308.80316,183.48256c0.00044,0.01111 0.00066,0.02243 0.00066,0.03397c0,0.61895 -0.64704,0.61895 -0.64704,0.61895h-0.1294c-0.47276,0 -2.62787,0.02764 -2.95089,-0.10642c-0.26965,-0.11192 -0.211,-0.53808 -0.40502,-0.7493c-0.1864,-0.20292 -0.45161,-0.32839 -0.70113,-0.45487c-0.3968,-0.20114 -0.93872,-0.19792 -1.23064,-0.52433c-0.26966,-0.30154 -0.30172,-0.76467 -0.27632,-1.16075c0.11927,-1.86014 1.31251,-1.87918 2.85386,-1.71146c0.46489,0.09796 0.94462,0.1455 1.39469,0.29386c0.198,0.06526 0.31616,0.29137 0.52002,0.33727c0.1449,0.03263 0.28122,-0.0969 0.42736,-0.12398c0.00624,-0.00116 1.81154,-0.24781 1.82944,-0.25025c1.2205,-0.16576 2.52574,-0.21412 3.75746,-0.12867c0.78486,0.05445 2.55826,0.24044 3.01091,0.99275c0.64463,1.07138 -1.22899,1.79634 -1.69794,1.97973c-1.38782,0.54272 -2.5724,0.20537 -3.98584,0.36287c-0.48147,0.05365 -1.25528,0.37663 -1.77019,0.59063z"/></g></g><path d="M317.48578,160.19102c-12.08066,-0.39313 -23.79441,-0.81046 -28.53794,-2.01787c-4.33528,-1.10349 -5.53572,-3.91792 -5.53572,-3.91792c0,0 -1.65123,-2.50688 -1.6718,-4.04175c-0.0617,-4.60461 0.37837,-17.74761 1.80661,-29.03456c0.04766,-0.3767 0.0881,-0.58668 0.15812,-0.95987c0.21005,-1.11957 1.21521,-5.45712 1.21521,-5.45712c0,0 3.25789,-1.52139 5.00931,-1.92019c5.25425,-1.19639 18.3912,0.85878 32.27488,1.87221c1.25838,0.09186 3.34604,1.86442 3.34604,1.86442c0,0 1.40478,3.20089 1.27118,5.17992c-0.86368,12.79471 -1.86638,26.94799 -2.30754,30.17465c-0.14704,1.07556 -2.1631,5.18231 -2.1631,5.18231z" fill="#000000" stroke="#000000" stroke-width="2.5" stroke-linecap="round"/><path d="M319.12994,139.78538c0.23202,-3.43713 0.8329,-6.19563 1.3421,-6.16125c0.5092,0.03436 0.73391,2.84859 0.5019,6.28572c-0.23202,3.43713 -0.8329,6.19564 -1.3421,6.16126c-0.5092,-0.03436 -0.73391,-2.84859 -0.5019,-6.28573z" fill="#000000" stroke="#000000" stroke-width="2.5" stroke-linecap="butt"/><path d="M312.59382,140.04326c0.23631,-3.5008 0.7375,-6.31786 1.11938,-6.29207c0.3819,0.02578 0.49993,2.88464 0.26362,6.38543c-0.23631,3.5008 -0.73747,6.31783 -1.11937,6.29206c-0.3819,-0.02578 -0.49994,-2.88462 -0.26363,-6.38541z" fill="#000000" stroke="#000000" stroke-width="2.5" stroke-linecap="butt"/><path d="M283.71272,114.25341l0.91365,-12.96785l43.69169,3.07831l-0.91365,12.96785z" fill="#000000" stroke="none" stroke-width="0" stroke-linecap="butt"/><path d="M307.82554,129.33073c0.09704,-1.3773 1.29223,-2.41515 2.66952,-2.31812c0.2828,0.01992 0.55128,0.08615 0.79857,0.19074c1.44433,-0.17331 8.85521,5.33678 6.56465,7.8469c-1.70919,1.87303 -6.84665,-1.63037 -8.60339,-3.01166c-0.48385,-0.38044 -2.0158,-2.09999 -1.42935,-2.70786z" data-paper-data="{&quot;index&quot;:null}" fill="#000000" stroke="none" stroke-width="0.5" stroke-linecap="butt"/><g data-paper-data="{&quot;index&quot;:null}" fill="#000000"><g data-paper-data="{&quot;origRot&quot;:0,&quot;index&quot;:null}" stroke="#000000" stroke-width="3" stroke-linecap="round"><path d="M283.43289,210.76383c0,0 -25.00936,-3.51955 -24.851,-6.07011c0.28551,-4.59881 3.8326,-14.63681 3.8326,-14.63681l10.50244,-28.20834c0,0 2.07474,-5.32505 3.21713,-5.48113c3.42711,-0.46827 9.4264,2.14623 15.90627,3.52776c1.07706,0.22965 0.39457,6.11472 0.39457,6.11472c0,0 -1.48242,9.212 -2.43123,15.10815c-1.44495,8.97925 -3.70249,23.0082 -3.70249,23.0082c0,0 -0.91987,7.21655 -2.8683,6.63758z" data-paper-data="{&quot;origPos&quot;:null}"/><path d="M261.02658,197.54187l24.18088,6.06526"/><path d="M262.12335,194.14524l24.12311,6.29557" data-paper-data="{&quot;origPos&quot;:null}"/></g><path d="M262.03228,193.41807l13.31394,-35.73945l1.40825,-0.35261l15.33014,3.89479l-5.6182,38.35428z" stroke="#000000" stroke-width="1" stroke-linecap="round"/><path d="M261.03806,197.37554l0.57463,-2.25916l24.71393,6.286l-0.57463,2.25916z" stroke="none" stroke-width="0" stroke-linecap="butt"/></g><path d="M323.49652,133.44298c-1.42427,1.15717 -5.52462,4.00972 -6.52148,1.94604c-1.33592,-2.76563 4.63409,-7.33296 5.64684,-6.98654c0.18963,-0.07381 0.38978,-0.10701 0.59459,-0.09258c0.99746,0.07028 1.7274,1.24377 1.63036,2.62106c0.34624,0.67359 -0.95804,2.19331 -1.35031,2.51202z" data-paper-data="{&quot;index&quot;:null}" fill="#000000" stroke="none" stroke-width="0.5" stroke-linecap="butt"/><g data-paper-data="{&quot;index&quot;:null}" fill="#000000" stroke="#000000" stroke-width="1" stroke-linecap="butt"><g data-paper-data="{&quot;index&quot;:null}"><path d="M304.82109,147.62478c7.52071,0.44349 4.78618,3.4715 4.78618,3.4715l-10.03011,-0.62654c0,0 -2.76735,-3.24269 5.2439,-2.84492z"/></g><g data-paper-data="{&quot;index&quot;:null}"><path d="M304.8211,147.62478c1.53837,0.09073 2.64765,0.28958 3.43899,0.54853c0.01417,0.00464 -0.5857,0.62669 -0.6333,1.25575c-0.05812,0.76805 0.43177,1.57045 0.42946,1.57032c-1.69339,-0.10578 -8.47907,-0.52968 -8.47907,-0.52968c0,0 -2.76735,-3.24269 5.2439,-2.84492z"/></g></g><g data-paper-data="{&quot;index&quot;:null}" fill="#000000"><path d="M216.09129,249.25031c-0.20496,-2.25285 -4.06064,-5.72516 -2.00582,-5.85124c1.36892,-0.08399 20.78486,3.36685 22.01641,4.72571c0.61705,0.68084 1.07925,1.81579 1.14769,2.5678c0.10056,1.10531 -0.38962,2.05404 -1.24025,2.75375c-0.88315,0.72645 -19.9671,2.27726 -21.01376,2.34149c-2.05481,0.12608 1.30073,-4.28466 1.09574,-6.53752z" stroke="#000000" stroke-width="1.5" stroke-linecap="butt"/><g stroke-linecap="butt"><path d="M209.32278,249.69123c-0.37137,-4.08164 1.47327,-7.5221 4.12011,-7.68449c2.64685,-0.16239 5.09358,3.01478 5.46495,7.09643c0.37133,4.08164 -1.47331,7.5221 -4.12014,7.68449c-2.64683,0.16242 -5.09357,-3.01477 -5.46493,-7.09641z" stroke="#000000" stroke-width="1.5"/><path d="M214.98044,245.6816l-1.76101,-3.23445c0,0 1.74495,0.55298 2.34388,1.04651c1.24099,1.05291 1.73129,2.56411 1.73129,2.56411z" stroke="none" stroke-width="0"/><path d="M216.02469,248.88888l-0.41294,-1.46811c0,0 0.91946,-0.16024 1.24795,-0.15881c0.38463,0.00168 1.08407,0.21294 1.08407,0.21294l0.20968,1.78122z" stroke="none" stroke-width="0"/></g><g><path d="M215.22539,249.43717c0.51229,5.63067 -2.45858,8.95223 -7.98857,9.29152c-5.52998,0.33927 -10.45446,-4.23881 -10.96678,-9.86954c-0.51232,-5.63069 3.04106,-9.85846 8.57105,-10.19775c5.52996,-0.33926 9.87198,5.14501 10.3843,10.77574z" stroke="#000000" stroke-width="1.5" stroke-linecap="butt"/><path d="M203.23015,239.15815c2.74366,-0.16836 5.71112,1.01724 7.94696,2.58665c1.59293,1.11813 2.81739,2.90241 2.99847,4.89274c0.37219,4.0911 -1.28465,5.65574 -6.12296,5.95259c-2.4162,0.14823 -5.51488,-1.11011 -7.65869,-2.74116c-2.14902,-1.63502 -3.58148,-2.92615 -3.58148,-2.92615c0,0 1.57938,-7.46781 6.41769,-7.76466z" stroke="none" stroke-width="0" stroke-linecap="butt"/><path d="M204.90342,238.9684c0,0 4.04701,2.54665 4.86756,9.04547c0.82728,6.55207 -2.27429,9.7456 -2.27429,9.7456" stroke="#000000" stroke-width="0.8" stroke-linecap="round"/><path d="M209.40381,239.87317c0,0 2.46598,3.68779 3.4531,7.77697c1.42258,5.89302 -0.27515,8.33531 -0.27515,8.33531" stroke="#000000" stroke-width="0.75" stroke-linecap="round"/><path d="M200.70109,240.12592c0,0 3.49488,2.75874 4.67566,9.2287c1.13572,6.22294 -0.60165,8.23441 -0.60165,8.23441" stroke="#000000" stroke-width="0.8" stroke-linecap="round"/><path d="M203.50687,257.61063c0,0 -2.51441,-3.73755 -3.61762,-6.84506c-1.45312,-4.09309 -1.8008,-8.39875 -1.8008,-8.39875" stroke="#000000" stroke-width="0.8" stroke-linecap="round"/><path d="M214.67153,251.63985c0,0 -2.86257,2.46501 -8.668,3.06222c-5.41748,0.5573 -8.08244,-2.03456 -8.08244,-2.03456" stroke="#000000" stroke-width="0.8" stroke-linecap="round"/><path d="M197.45823,250.6153c0,0 2.77879,0.01709 5.76598,-0.43942c2.62696,-0.40147 5.39341,-1.26975 6.87253,-1.44666c1.75679,-0.21011 4.73434,-0.19192 4.73434,-0.19192" stroke="#000000" stroke-width="0.8" stroke-linecap="round"/><path d="M196.72995,248.07334c0,0 4.02104,-3.17879 7.80682,-3.52048c5.9419,-0.5363 9.95043,1.41887 9.95043,1.41887" stroke="#000000" stroke-width="0.8" stroke-linecap="round"/><path d="M196.87422,244.80305c0,0 2.82486,-2.45953 6.52529,-3.32437c5.32876,-1.24541 8.35879,-0.00677 8.35879,-0.00677" stroke="#000000" stroke-width="0.8" stroke-linecap="round"/><path d="M203.82235,240.44052c0.03654,0.40148 -0.30269,0.74962 -0.75765,0.77751c-0.45497,0.02793 -0.85341,-0.27493 -0.88993,-0.67641c-0.03652,-0.4015 0.30268,-0.74962 0.75764,-0.77751c0.45497,-0.02795 0.85343,0.27491 0.88995,0.67639z" stroke="none" stroke-width="0" stroke-linecap="butt"/><path d="M200.44693,241.8847c-0.22747,0.01395 -0.42897,-0.16251 -0.45004,-0.39413c-0.02107,-0.23162 0.14626,-0.43071 0.37374,-0.44466c0.22748,-0.01394 0.42897,0.16251 0.45004,0.39413c0.02108,0.23162 -0.14626,0.43071 -0.37374,0.44466z" stroke="none" stroke-width="0" stroke-linecap="butt"/></g></g></g></g></svg>