<svg version="1.1" xmlns="http://www.w3.org/2000/svg" xmlns:xlink="http://www.w3.org/1999/xlink" width="95.86394" height="95.86394" viewBox="0,0,95.86394,95.86394"><g transform="translate(-192.06803,-132.06803)"><g data-paper-data="{&quot;isPaintingLayer&quot;:true}" fill-rule="nonzero" stroke-linejoin="miter" stroke-miterlimit="10" stroke-dasharray="" stroke-dashoffset="0" style="mix-blend-mode: normal"><g><g stroke="#000000" stroke-width="1"><path d="M253.52197,182.73523c0,-1.53387 0.58958,-4.99917 1.60145,-5.99764c0.99434,-0.98116 9.41153,4.98037 9.41153,5.99764c0,3.04115 -2.41339,5.09091 -5.45454,5.09091c-3.04115,0 -5.55844,-2.04976 -5.55844,-5.09091z" fill="#d90250" stroke-linecap="butt"/><path d="M263.40648,174.47548c0,0 -1.14583,3.18296 -0.17478,3.99391c1.50924,1.2604 5.88907,0.83726 5.88907,0.83726c0,0 -2.72125,1.85716 -3.19507,3.08046c-0.47852,1.23545 0.06381,4.29616 0.06381,4.29616c0,0 -2.42769,-4.05732 -4.38107,-3.99147c-0.88372,0.02979 -1.07348,2.01744 -1.07348,2.01744c0,0 -1.12221,-3.38831 -1.99674,-4.22562c-0.72495,-0.6941 -2.61226,-0.4497 -2.61226,-0.4497c0,0 -0.01778,-1.28272 -0.46809,-3.11848c-0.25303,-1.0315 -1.60984,-2.90749 -1.60984,-2.90749c0,0 3.58372,1.21425 5.2469,1.2956c1.50767,0.07374 4.31154,-0.82807 4.31154,-0.82807z" fill="#fdebf6" stroke-linecap="round"/></g><g stroke="#000000" stroke-linecap="round"><path d="M216.67643,198.89106c0,0 2.08078,-6.93923 2.39134,-8.13208c0.08761,-0.3365 0.8114,-0.59868 1.6187,-0.53784c0.73772,0.0556 2.39749,0.22758 4.53715,0.38695c9.71077,0.72329 30.05021,2.20505 30.05021,2.20505l0.03758,15.16883z" fill="#4fa6ed" stroke-width="0"/><path d="M255.27383,192.81314l0.03758,15.16883l-13.5994,-3.17743c-0.26487,-1.39792 -0.74418,-6.75002 -1.48103,-7.1849c-0.49515,-0.86653 -3.05372,-0.1427 -4.05988,0.10555c-2.23072,0.55039 -6.69201,1.45215 -8.14126,3.81854l-3.88452,-0.9076c1.16177,-0.89254 2.14088,-2.02634 2.77165,-3.11327c0.58228,-1.00338 1.88124,-3.31432 1.24133,-4.27418l-2.36936,-2.59855c9.92162,0.73703 29.48488,2.163 29.48488,2.163z" fill="#2e67e5" stroke-width="0"/><path d="M216.67643,198.89106c0,0 2.08078,-6.93923 2.39134,-8.13208c0.08761,-0.3365 0.8114,-0.59868 1.6187,-0.53784c0.73772,0.0556 2.39749,0.22758 4.53715,0.38695c9.71077,0.72329 30.05021,2.20505 30.05021,2.20505l0.03758,15.16883z" fill="none" stroke-width="1"/></g><path d="M228.58691,185.38458l6.81956,-4.83117l-0.98701,-5.81818c0,0 6.76544,-2.59679 8.81376,-3.27347c0.98881,-0.32666 2.82261,-0.57069 2.82261,-0.57069c0,0 4.65328,1.37707 7.9239,4.74913c2.43302,2.50849 3.96295,6.9441 4.48644,8.80674c0.25094,0.89288 -0.58913,3.18066 -1.03263,4.99336c-0.35143,1.43636 -0.47668,2.40044 -1.11005,3.36214c-1.46874,2.23015 -3.4912,2.03667 -3.4912,2.03667c0,0 -1.43077,0.13353 -2.04456,-0.037c-0.79784,-0.22166 -2.33679,-1.18029 -2.33679,-1.18029c0,0 -13.36827,-1.26786 -16.29956,-2.39815c-3.35867,-1.29508 -3.56446,-5.83911 -3.56446,-5.83911z" fill="#ff292e" stroke="#000000" stroke-width="0" stroke-linecap="round"/><path d="M258.46617,184.44694c0.25094,0.89288 -0.58913,3.18066 -1.03263,4.99336c-0.35143,1.43636 -0.47668,2.40044 -1.11005,3.36214c-1.46874,2.23015 -3.4912,2.03667 -3.4912,2.03667c0,0 -1.43077,0.13353 -2.04456,-0.037c-0.79784,-0.22166 -2.33679,-1.18029 -2.33679,-1.18029c0,0 -3.76343,-0.34976 -7.7617,-0.84564c1.69769,-0.98854 3.55359,-2.90617 4.31894,-3.64811c3.86602,-3.74775 2.12901,-6.37984 2.56099,-7.4144c0.05251,-0.12577 0.03472,-0.2791 0.16875,-0.35507c0.21452,-0.12158 1.92597,2.50311 1.87438,2.85476c-0.32287,2.20085 -2.3182,5.41094 0.17757,7.20979c0.12003,0.08651 2.27738,1.13129 2.65555,0.69276c0.18027,-0.20904 1.97885,-1.29996 2.3882,-2.45199c1.20095,-3.37989 1.78357,-9.2618 1.62223,-10.55705c1.14812,2.05457 1.68677,4.18878 2.01033,5.34005z" fill="#d90251" stroke="#000000" stroke-width="0" stroke-linecap="butt"/><g><path d="M237.8477,210.93085c0,0 -2.65695,1.55187 -3.50026,1.46377c-0.63812,-0.06667 -1.1954,-1.1585 -1.73038,-1.9701c-0.32234,-0.48902 -0.55342,-0.58603 -0.61147,-0.15933c-0.12733,0.93581 -0.7294,2.52782 -1.52561,3.15301c-1.20887,0.94921 -6.97012,0.31073 -7.286,0.45007c-3.44544,1.5199 -7.3625,2.97426 -10.62565,3.47012c-1.0431,0.15851 -2.46458,-1.5188 -2.46458,-1.5188c0,0 -3.66397,1.40371 -5.85437,-1.63326c-0.80668,-1.11845 -0.76489,-3.61198 -0.82807,-4.65492c-0.00803,-0.13245 -0.09419,-0.36737 -0.00802,-0.5478c0.10519,-0.22028 2.18212,-2.03821 2.95141,-2.10809c4.44933,-0.40417 29.66226,-0.29206 29.66226,-0.29206c0,0 1.34573,0.71151 1.55548,1.42748c0.25653,0.87565 0.26524,2.91992 0.26524,2.91992z" fill="#f38285" stroke="#000000" stroke-width="0" stroke-linecap="round"/><path d="M234.34743,212.39464c-0.63813,-0.06667 -1.19541,-1.1585 -1.73038,-1.9701c-0.32234,-0.48902 -0.55342,-0.58603 -0.61147,-0.15933c-0.12733,0.93581 -0.7294,2.52782 -1.52561,3.15301c-1.20887,0.94921 -6.97011,0.31072 -7.28599,0.45007c-1.99601,0.88051 -4.1503,1.73901 -6.24404,2.40191c0.28435,-0.92786 0.43738,-1.91314 0.43738,-2.93416c0,-2.58013 -0.70303,-4.93203 -2.30744,-6.70583c8.90797,-0.10028 20.94709,-0.04674 20.94709,-0.04674c0,0 1.34573,0.71151 1.55548,1.42748c0.25653,0.87565 0.26524,2.91992 0.26524,2.91992c0,0 -2.65695,1.55188 -3.50026,1.46377z" fill="#e96698" stroke="#000000" stroke-width="0" stroke-linecap="round"/><path d="M237.8477,210.93085c0,0 -2.65695,1.55187 -3.50026,1.46377c-0.63812,-0.06667 -1.1954,-1.1585 -1.73038,-1.9701c-0.32234,-0.48902 -0.55342,-0.58603 -0.61147,-0.15933c-0.12733,0.93581 -0.7294,2.52782 -1.52561,3.15301c-1.20887,0.94921 -6.97012,0.31073 -7.286,0.45007c-3.44544,1.5199 -7.3625,2.97426 -10.62565,3.47012c-1.0431,0.15851 -2.46458,-1.5188 -2.46458,-1.5188c0,0 -3.66397,1.40371 -5.85437,-1.63326c-0.80668,-1.11845 -0.76489,-3.61198 -0.82807,-4.65492c-0.00803,-0.13245 -0.09419,-0.36737 -0.00802,-0.5478c0.10519,-0.22028 2.18212,-2.03821 2.95141,-2.10809c4.44933,-0.40417 29.66226,-0.29206 29.66226,-0.29206c0,0 1.34573,0.71151 1.55548,1.42748c0.25653,0.87565 0.26524,2.91992 0.26524,2.91992z" fill="none" stroke="#000000" stroke-width="1" stroke-linecap="round"/><path d="M216.46939,200.31568l0.61539,-3.79487l9.12821,-2.25641l1.97306,4.29813c0,0 1.2416,-1.35972 2.96496,-2.00159c1.32804,-0.49462 3.15044,0.97866 3.62452,1.20893c1.27221,0.61793 2.20669,1.7253 2.20669,1.7253l0.54641,7.17949c0,0 -1.99578,1.78611 -3.90913,2.20274c-2.65957,0.57912 -10.56023,0.94795 -10.56023,0.94795c0,0 -2.88702,1.93389 -6.32377,2.77263c-3.10767,0.75842 -6.98247,0.47178 -8.51769,-0.24516c-0.45383,-0.21193 -1.69002,-1.18658 -2.2767,-2.44496c-0.76821,-1.64774 -0.46587,-3.78196 0.69282,-5.32731c1.05145,-1.40232 3.53745,-1.28908 5.508,-1.97618c2.31042,-0.80561 4.32748,-2.28868 4.32748,-2.28868z" fill="#f27056" stroke="#000000" stroke-width="0" stroke-linecap="round"/><path d="M216.46939,200.31568l0.61539,-3.79487l9.12821,-2.25641l0.52515,1.14398c-0.21229,0.94728 -0.43449,3.45915 -0.43449,3.77726c0,0.69036 0.55965,1.25 1.25,1.25c0.65287,0 0.81891,-1.21481 0.82142,-1.25c0.02215,-0.31008 0.58335,-0.83859 0.74433,-1.45979c0.51823,-0.40309 1.22172,-0.86327 2.03161,-1.16491c1.32804,-0.49462 3.15044,0.97866 3.62452,1.20893c0.46722,0.22694 0.88889,0.51988 1.23545,0.79975c-1.55191,0.97604 -3.41977,3.23627 -4.89524,3.92193c-1.74905,0.8128 -3.93074,0.39984 -5.75507,1.09979c-1.61091,0.61807 -6.72237,3.833 -9.32747,6.35695c-0.83742,0.34883 -1.71852,1.13999 -1.80331,2.08171c-0.01901,0.0793 -0.02907,0.1551 -0.02963,0.22707c-0.00084,0.10856 0.0126,0.21126 0.03835,0.30889c0.01747,0.14173 0.04679,0.27978 0.08695,0.41314c-2.47819,0.20837 -4.95384,-0.08741 -6.10775,-0.62628c-0.45383,-0.21193 -1.69002,-1.18658 -2.2767,-2.44496c-0.76821,-1.64774 -0.46587,-3.78196 0.69282,-5.32731c1.05145,-1.40232 3.53745,-1.28908 5.508,-1.97618c2.31042,-0.80561 4.32748,-2.28868 4.32748,-2.28868z" fill="#f79d58" stroke="#000000" stroke-width="0" stroke-linecap="round"/><path d="M227.98221,199.36422c0,0 2.75362,-2.96429 4.03571,-2.96429c1.28209,0 3.96429,2.25 3.96429,2.25c0,0 -1.96791,2.60714 -3.25,2.60714c-1.15461,0 -4.75,-1.89285 -4.75,-1.89285z" fill="#000000" stroke="none" stroke-width="0.5" stroke-linecap="butt"/><path d="M216.46939,200.31568l0.61538,-3.79487l9.12821,-2.25641l1.97305,4.29812c0,0 1.24161,-1.35972 2.96497,-2.00158c1.32803,-0.49462 3.15044,0.97866 3.62452,1.20893c1.27221,0.61793 2.20669,1.7253 2.20669,1.7253l0.5464,7.17949c0,0 -1.99578,1.78612 -3.90912,2.20275c-2.65957,0.57912 -10.56024,0.94795 -10.56024,0.94795c0,0 -2.88702,1.93389 -6.32377,2.77262c-3.10767,0.75842 -6.98247,0.47178 -8.51769,-0.24515c-0.45383,-0.21194 -1.69001,-1.18658 -2.2767,-2.44496c-0.76821,-1.64774 -0.46587,-3.78196 0.69282,-5.32731c1.05144,-1.40232 3.53745,-1.28908 5.50799,-1.97618c2.31042,-0.8056 4.32748,-2.28868 4.32748,-2.28868z" fill="none" stroke="#000000" stroke-width="1" stroke-linecap="round"/><path d="M223.91154,201.30195c-0.12621,0.87821 -2.11575,1.35722 -3.88829,1.61292c0.68482,0.40756 1.18157,0.74011 1.18157,0.95413c0,0.66506 -2.47803,0.83807 -5.02232,0.8283c0.96959,1.23472 1.76854,2.61519 0.21631,2.61519c-0.54558,0 -1.66896,-1.28019 -2.5092,-2.66695c-1.06493,-0.04195 -1.99226,-0.10183 -2.5597,-0.15111c-0.06617,0.0191 -0.1361,0.02934 -0.20842,0.02934c-0.1356,0 -0.26279,-0.03599 -0.37256,-0.09893c-0.22552,-0.12933 -0.37744,-0.37246 -0.37744,-0.65107c0,-0.3862 0.2919,-0.70422 0.66712,-0.74547c0.52304,-0.36552 1.45344,-0.47106 2.16935,-0.45146c-0.1632,-0.60498 -0.13687,-1.08001 0.1936,-1.26884c0.42543,-0.2431 1.20003,-0.2756 2.13842,-0.24049c-0.74581,-0.74802 -1.49359,-1.73662 -0.86851,-2.33205c0.33684,-0.32086 1.59157,-0.68368 3.06231,-1.00616c0.29091,-0.16426 0.76805,-0.25939 1.33229,-0.2713c2.1021,-0.39899 4.2231,-0.67739 4.56763,-0.6247c0.39495,0.06039 0.75,0.16659 0.75,0.75c0,0.60096 -0.51993,0.99518 -1.28005,1.25237c0.60783,0.59755 0.96001,1.40787 0.8079,2.4663zM221.99478,200.82154c0.34602,-0.14426 -0.4831,-0.59613 -0.59642,-0.95347c-0.07844,-0.24738 -0.23301,-0.46348 -0.42963,-0.64314c-1.66201,0.14292 -3.37472,0.04453 -3.71032,0.06073c-0.23669,0.01143 -0.92691,0.23863 -0.92525,0.30523c0.01305,0.52411 0.51392,1.069 1.19848,1.59177c1.59584,0.09293 3.28677,0.12932 4.46314,-0.36112zM215.62804,202.90572c-0.40419,-0.19235 -0.76074,-0.37098 -0.72804,-0.12847c0.24306,0.04191 0.48653,0.08618 0.72804,0.12847z" fill="#efdee9" stroke="none" stroke-width="0.5" stroke-linecap="butt"/><path d="M223.91155,201.30195c-0.12622,0.87821 -2.11575,1.35722 -3.88829,1.61292c0.68482,0.40756 1.18156,0.7401 1.18156,0.95413c0,0.66506 -2.47803,0.83808 -5.02232,0.8283c0.96959,1.23471 1.76854,2.61519 0.2163,2.61519c-0.54559,0 -1.66895,-1.28018 -2.5092,-2.66695c-1.06493,-0.04195 -1.99226,-0.10183 -2.5597,-0.15112c-0.06617,0.0191 -0.13609,0.02934 -0.20841,0.02934c-0.1356,0 -0.2628,-0.03598 -0.37256,-0.09893c-0.22552,-0.12932 -0.37744,-0.37246 -0.37744,-0.65107c0,-0.3862 0.2919,-0.70423 0.66711,-0.74547c0.52305,-0.36552 1.45345,-0.47106 2.16935,-0.45146c-0.1632,-0.60498 -0.13687,-1.08 0.1936,-1.26884c0.42543,-0.2431 1.20003,-0.2756 2.13842,-0.24049c-0.74581,-0.74802 -1.49359,-1.73663 -0.86851,-2.33205c0.33684,-0.32086 1.59158,-0.68367 3.06231,-1.00616c0.29091,-0.16426 0.76805,-0.25939 1.33228,-0.2713c2.10209,-0.39898 4.2231,-0.67739 4.56763,-0.62471c0.39496,0.0604 0.75,0.16659 0.75,0.75c0,0.60096 -0.51993,0.99518 -1.28004,1.25237c0.60783,0.59755 0.96001,1.40787 0.8079,2.4663zM221.99479,200.82154c0.34602,-0.14425 -0.48311,-0.59613 -0.59642,-0.95348c-0.07845,-0.24737 -0.233,-0.46348 -0.42963,-0.64313c-1.66201,0.14292 -3.37472,0.04452 -3.71032,0.06072c-0.23669,0.01142 -0.92692,0.23863 -0.92525,0.30523c0.01304,0.52411 0.51392,1.069 1.19848,1.59177c1.59584,0.09294 3.28677,0.12932 4.46315,-0.36112zM215.62805,202.90572c-0.40419,-0.19234 -0.76074,-0.37098 -0.72804,-0.12847c0.24307,0.04191 0.48654,0.08618 0.72804,0.12847z" fill="none" stroke="#000000" stroke-width="1" stroke-linecap="butt"/></g><g><g stroke="#000000"><path d="M239.10362,205.88038c0,0 1.5573,-1.68619 11.89481,-1.21113c10.08872,0.46363 16.62467,2.25009 16.62467,2.25009l-0.378,6.7013c0,0 -1.37853,1.51311 -2.1519,2.16535c-0.63742,0.53758 -2.15979,1.47102 -2.15979,1.47102l-1.24676,-0.98702l-0.62337,2.02598c0,0 -4.02908,1.95244 -6.2997,2.31968c-2.98677,0.48307 -6.94706,0.32967 -6.94706,0.32967l-1.35065,-1.55844l-0.98701,1.4026c0,0 -7.0457,-1.28854 -8.11763,-6.01985c-1.06614,-4.70571 1.74239,-8.88924 1.74239,-8.88924z" fill="#f38285" stroke-width="0" stroke-linecap="round"/><path d="M267.6231,206.91934l-0.378,6.7013c0,0 -1.37853,1.51311 -2.1519,2.16535c-0.63742,0.53758 -2.15979,1.47102 -2.15979,1.47102l-1.24676,-0.98702l-0.62337,2.02598c0,0 -4.02908,1.95244 -6.2997,2.31968c-1.14498,0.18518 -2.43301,0.27684 -3.58616,0.31945c4.47623,-2.95709 9.08229,-4.33279 9.73516,-10.57623c0.1423,-1.36082 0.32603,-3.34162 -0.29529,-4.78476c4.42361,0.63946 7.00581,1.34525 7.00581,1.34525z" fill="#e96698" stroke-width="0" stroke-linecap="butt"/><path d="M239.10362,205.88038c0,0 1.5573,-1.68619 11.89481,-1.21113c10.08872,0.46363 16.62467,2.25009 16.62467,2.25009l-0.378,6.7013c0,0 -1.37853,1.51311 -2.1519,2.16535c-0.63742,0.53758 -2.15979,1.47102 -2.15979,1.47102l-1.24676,-0.98702l-0.62337,2.02598c0,0 -4.02908,1.95244 -6.2997,2.31968c-2.98677,0.48307 -6.94706,0.32967 -6.94706,0.32967l-1.35065,-1.55844l-0.98701,1.4026c0,0 -7.0457,-1.28854 -8.11763,-6.01985c-1.06614,-4.70571 1.74239,-8.88924 1.74239,-8.88924z" fill="none" stroke-width="1" stroke-linecap="round"/></g><path d="M241.57487,201.59831c0,0 -0.16113,-1.39132 0.83177,-2.4497c0.83775,-0.89299 2.76154,-1.45452 3.62241,-1.69853c2.38877,-0.67707 5.54691,-0.99258 7.61229,-0.93073c1.04307,0.03123 1.7958,1.00507 2.22024,1.74876c0.26481,0.464 1.47051,-1.05415 2.4616,-1.18214c0.51031,-0.06591 1.241,1.39616 1.29032,1.60632c0.27224,1.16 -0.46485,3.6929 -0.46485,3.6929c0,0 0.28405,0.68997 1.59262,1.27423c1.03935,0.46406 2.76995,0.7404 3.51636,1.41464c1.50659,1.3609 1.82454,4.21388 1.60024,5.17225c-0.24267,1.03685 -4.23631,4.09279 -9.16222,5.69858c-4.94282,1.6113 -11.0967,1.76786 -14.05848,0.12839c-4.16169,-2.30368 -1.72464,-5.63074 -3.46334,-8.31564c-1.08094,-1.66919 -1.54088,-3.6801 -1.72931,-6.10256c-0.17057,-2.19284 1.96643,-1.49939 1.96643,-1.49939l2.16393,1.44263z" fill="#000000" stroke="#000000" stroke-width="0" stroke-linecap="round"/><path d="M242.40664,199.14863c0.83775,-0.893 2.76153,-1.45453 3.62241,-1.69853c2.38877,-0.67707 5.54691,-0.99258 7.61229,-0.93073c1.04307,0.03123 1.7958,1.00507 2.22024,1.74876c0.12484,0.21875 0.32768,0.06251 0.74971,-0.2465c0.24134,1.38489 1.33505,3.38885 1.76753,3.8773c0.27689,0.31272 0.59618,0.53046 0.94266,0.66744c0.25423,0.24382 0.52421,0.6932 1.4198,1.09308c1.03934,0.46406 2.76994,0.7404 3.51636,1.41464c1.50659,1.3609 1.82454,4.21388 1.60024,5.17225c-0.24267,1.03686 -4.23631,4.0928 -9.16222,5.69858c-4.94281,1.61129 -11.09669,1.76786 -14.05848,0.12839c-4.1617,-2.30368 -1.72464,-5.63074 -3.46334,-8.31564c-0.39041,-0.60287 -0.73557,-1.25031 -1.02611,-1.94562c1.44896,-0.35535 2.86577,-1.1564 3.48748,-1.91535c1.02413,-1.2502 1.01772,-2.73538 0.20834,-3.8863c0.12523,-0.28958 0.30525,-0.5869 0.56311,-0.86176z" fill="#f27056" stroke="#000000" stroke-width="0" stroke-linecap="round"/><path d="M242.40664,199.14863c0.83775,-0.893 2.76153,-1.45453 3.62241,-1.69853c1.93411,-0.5482 4.3726,-0.85938 6.32706,-0.92514c-0.81693,1.80489 -0.58114,5.20341 0.26536,7.30698c0.42385,1.05329 2.5756,1.46263 4.50623,2.2612c1.73506,0.71768 3.29154,1.87585 3.25475,1.96104c-2.24437,5.19674 -10.61172,4.35496 -13.39223,7.14551c-0.54778,0.44603 -0.90301,1.11946 -0.92179,1.8764c-1.35367,-0.17705 -2.53773,-0.50819 -3.43126,-1.00279c-4.1617,-2.30368 -1.72464,-5.63074 -3.46334,-8.31564c-0.39041,-0.60287 -0.73557,-1.25031 -1.02611,-1.94562c1.44896,-0.35535 2.86577,-1.1564 3.48748,-1.91535c1.02413,-1.2502 1.01772,-2.73538 0.20834,-3.8863c0.12523,-0.28958 0.30525,-0.5869 0.56311,-0.86176z" fill="#f79d58" stroke="#000000" stroke-width="0" stroke-linecap="butt"/><path d="M241.57487,201.59831c0,0 -0.16113,-1.39132 0.83177,-2.4497c0.83775,-0.89299 2.76154,-1.45452 3.62241,-1.69853c2.38877,-0.67707 5.54691,-0.99258 7.61229,-0.93073c1.04307,0.03123 1.7958,1.00507 2.22024,1.74876c0.26481,0.464 1.47051,-1.05415 2.4616,-1.18214c0.51031,-0.06591 1.241,1.39616 1.29032,1.60632c0.27224,1.16 -0.46485,3.6929 -0.46485,3.6929c0,0 0.28405,0.68997 1.59262,1.27423c1.03935,0.46406 2.76995,0.7404 3.51636,1.41464c1.50659,1.3609 1.82454,4.21388 1.60024,5.17225c-0.24267,1.03685 -4.23631,4.09279 -9.16222,5.69858c-4.94282,1.6113 -11.0967,1.76786 -14.05848,0.12839c-4.16169,-2.30368 -1.72464,-5.63074 -3.46334,-8.31564c-1.08094,-1.66919 -1.54088,-3.6801 -1.72931,-6.10256c-0.17057,-2.19284 1.96643,-1.49939 1.96643,-1.49939l2.16393,1.44263z" fill="none" stroke="#000000" stroke-width="1" stroke-linecap="round"/><g stroke-linecap="butt"><path d="M253.08752,199.88264c0.33541,0.67082 -0.33541,1.00623 -0.33541,1.00623l-0.28805,0.14305c0.5596,0.02759 1.12093,0.04773 1.68439,0.04974l0.74487,0.13696c0.11233,0.00088 0.23865,0.03169 0.37833,0.10851c0.01207,0.00664 0.0238,0.01338 0.0352,0.02022c0.10958,0.0623 0.22778,0.1599 0.29716,0.30922c0.07127,0.14842 0.07158,0.30171 0.05011,0.42592c-0.00196,0.01314 -0.0042,0.02648 -0.00674,0.04002c-0.03069,0.16366 -0.09089,0.28417 -0.166,0.37263c-0.53966,0.9156 -1.45144,1.59747 -2.15003,2.14471c0.44693,0.02105 0.89431,0.04362 1.34243,0.06754c0.13178,-0.02352 0.28547,-0.00723 0.4564,0.08619c0.12846,0.05748 0.26734,0.15699 0.34667,0.3288c0.08984,0.16654 0.08613,0.33736 0.05503,0.47461c-0.03493,0.24208 -0.15084,0.38946 -0.28308,0.47906l-0.30906,0.36081c-0.31457,0.16901 -0.62234,0.3469 -0.92498,0.53136c0.77796,-0.05489 1.54567,-0.12761 2.29457,-0.22164l0.71423,-0.10215c0,0 0.74247,-0.10607 0.84853,0.63639c0.10607,0.74246 -0.6364,0.84852 -0.6364,0.84852l-0.74031,0.10564c-1.57037,0.19547 -3.22415,0.30171 -4.88359,0.34753c-1.49498,1.05791 -3.24885,2.12269 -4.94917,2.86811c0,0 -0.68712,0.30062 -0.98773,-0.3865c-0.30061,-0.68712 0.66061,-0.98773 0.66061,-0.98773c0.93212,-0.4069 1.79954,-0.91534 2.64092,-1.46765c-0.89839,-0.00556 -1.78614,-0.02461 -2.65055,-0.05242c-0.14683,0.02838 -0.31942,0.01288 -0.49728,-0.10792c-0.12738,-0.06797 -0.25404,-0.18034 -0.3171,-0.36598c-0.08077,-0.17865 -0.06503,-0.34724 -0.01845,-0.4839c0.04904,-0.21714 0.17105,-0.34798 0.30289,-0.42678l0.07122,-0.06763c0.60063,-0.45947 1.24815,-0.81898 1.91169,-1.13797c-0.58706,-0.00733 -1.17552,-0.01108 -1.7661,-0.01108h-0.31777c-0.15437,0.02898 -0.33995,0.01536 -0.51934,-0.11905c-0.12448,-0.07349 -0.242,-0.19234 -0.29658,-0.38456c-0.07493,-0.18524 -0.05513,-0.35121 -0.00199,-0.48564c0.05899,-0.21587 0.19676,-0.34051 0.33617,-0.41246c0.92758,-0.72615 2.04504,-1.47722 2.90121,-2.20645c-1.03601,0.01313 -2.06888,0.10702 -3.10023,0.36499c0,0 -0.72761,0.1819 -0.90951,-0.5457c-0.1819,-0.7276 0.5457,-0.90951 0.5457,-0.90951c1.75599,-0.43876 3.51009,-0.44594 5.27539,-0.36457c0.53455,-0.39376 1.09593,-0.76931 1.70324,-1.11745l0.45228,-0.22743c0,0 0.67082,-0.33541 1.00623,0.33541zM250.88973,204.54065c0.92134,-0.48705 2.04977,-1.08314 2.7443,-1.96694c-1.0901,-0.01292 -2.17375,-0.09694 -3.25275,-0.15936c-0.84801,0.65233 -1.90436,1.34934 -2.71648,2.05101c1.07822,0.01331 2.15184,0.03912 3.22493,0.07529zM248.69145,207.10742c0.81395,0.00817 1.63768,0.00551 2.4615,-0.01196c0.4745,-0.33625 0.95159,-0.6703 1.4386,-0.99122c-0.54518,-0.02411 -1.08985,-0.04547 -1.63462,-0.06395c-0.74611,0.35444 -1.51184,0.68189 -2.26548,1.06713z" fill="#efdee9" stroke="none" stroke-width="0.5"/><path d="M253.08752,199.88264c0.33541,0.67082 -0.33541,1.00623 -0.33541,1.00623l-0.28805,0.14305c0.5596,0.02759 1.12093,0.04773 1.68439,0.04974l0.74487,0.13696c0.11233,0.00088 0.23865,0.03169 0.37833,0.10851c0.01207,0.00664 0.0238,0.01338 0.0352,0.02022c0.10958,0.0623 0.22778,0.1599 0.29716,0.30922c0.07127,0.14842 0.07158,0.30171 0.05011,0.42592c-0.00196,0.01314 -0.0042,0.02648 -0.00674,0.04002c-0.03069,0.16366 -0.09089,0.28417 -0.166,0.37263c-0.53966,0.9156 -1.45144,1.59747 -2.15003,2.14471c0.44693,0.02105 0.89431,0.04362 1.34243,0.06754c0.13178,-0.02352 0.28547,-0.00723 0.4564,0.08619c0.12846,0.05748 0.26734,0.15699 0.34667,0.3288c0.08984,0.16654 0.08613,0.33736 0.05503,0.47461c-0.03493,0.24208 -0.15084,0.38946 -0.28308,0.47906l-0.30906,0.36081c-0.31457,0.16901 -0.62234,0.3469 -0.92498,0.53136c0.77796,-0.05489 1.54567,-0.12761 2.29457,-0.22164l0.71423,-0.10215c0,0 0.74247,-0.10607 0.84853,0.63639c0.10607,0.74246 -0.6364,0.84852 -0.6364,0.84852l-0.74031,0.10564c-1.57037,0.19547 -3.22415,0.30171 -4.88359,0.34753c-1.49498,1.05791 -3.24885,2.12269 -4.94917,2.86811c0,0 -0.68712,0.30062 -0.98773,-0.3865c-0.30061,-0.68712 0.66061,-0.98773 0.66061,-0.98773c0.93212,-0.4069 1.79954,-0.91534 2.64092,-1.46765c-0.89839,-0.00556 -1.78614,-0.02461 -2.65055,-0.05242c-0.14683,0.02838 -0.31942,0.01288 -0.49728,-0.10792c-0.12738,-0.06797 -0.25404,-0.18034 -0.3171,-0.36598c-0.08077,-0.17865 -0.06503,-0.34724 -0.01845,-0.4839c0.04904,-0.21714 0.17105,-0.34798 0.30289,-0.42678l0.07122,-0.06763c0.60063,-0.45947 1.24815,-0.81898 1.91169,-1.13797c-0.58706,-0.00733 -1.17552,-0.01108 -1.7661,-0.01108h-0.31777c-0.15437,0.02898 -0.33995,0.01536 -0.51934,-0.11905c-0.12448,-0.07349 -0.242,-0.19234 -0.29658,-0.38456c-0.07493,-0.18524 -0.05513,-0.35121 -0.00199,-0.48564c0.05899,-0.21587 0.19676,-0.34051 0.33617,-0.41246c0.92758,-0.72615 2.04504,-1.47722 2.90121,-2.20645c-1.03601,0.01313 -2.06888,0.10702 -3.10023,0.36499c0,0 -0.72761,0.1819 -0.90951,-0.5457c-0.1819,-0.7276 0.5457,-0.90951 0.5457,-0.90951c1.75599,-0.43876 3.51009,-0.44594 5.27539,-0.36457c0.53455,-0.39376 1.09593,-0.76931 1.70324,-1.11745l0.45228,-0.22743c0,0 0.67082,-0.33541 1.00623,0.33541zM250.88973,204.54065c0.92134,-0.48705 2.04977,-1.08314 2.7443,-1.96694c-1.0901,-0.01292 -2.17375,-0.09694 -3.25275,-0.15936c-0.84801,0.65233 -1.90436,1.34934 -2.71648,2.05101c1.07822,0.01331 2.15184,0.03912 3.22493,0.07529zM248.69145,207.10742c0.81395,0.00817 1.63768,0.00551 2.4615,-0.01196c0.4745,-0.33625 0.95159,-0.6703 1.4386,-0.99122c-0.54518,-0.02411 -1.08985,-0.04547 -1.63462,-0.06395c-0.74611,0.35444 -1.51184,0.68189 -2.26548,1.06713z" fill="none" stroke="#000000" stroke-width="1"/></g></g><path d="M228.58691,185.38458l6.81956,-4.83117l-0.98701,-5.81818c0,0 6.76544,-2.59679 8.81376,-3.27347c0.98881,-0.32666 2.82261,-0.57069 2.82261,-0.57069c0,0 4.65328,1.37707 7.9239,4.74913c2.43302,2.50849 3.96295,6.9441 4.48644,8.80674c0.25094,0.89288 -0.58913,3.18066 -1.03263,4.99336c-0.35143,1.43636 -0.47668,2.40044 -1.11005,3.36214c-1.46874,2.23015 -3.4912,2.03667 -3.4912,2.03667c0,0 -1.43077,0.13353 -2.04456,-0.037c-0.79784,-0.22166 -2.33679,-1.18029 -2.33679,-1.18029c0,0 -13.36827,-1.26786 -16.29956,-2.39815c-3.35867,-1.29508 -3.56446,-5.83911 -3.56446,-5.83911z" fill="none" stroke="#000000" stroke-width="1" stroke-linecap="round"/><path d="M256.74276,192.50145l1.09091,-4.36363l2.49351,2.18182l-2.40398,3.01299z" fill="#feecf7" stroke="#000000" stroke-width="1" stroke-linecap="round"/><path d="M240.75711,177.38458l-0.06631,5.55845c0,0 -3.71223,1.97602 -4.67538,2.50219c-0.43072,0.2353 -0.95228,0.85055 -0.96912,1.18174c-0.04803,0.94468 -0.27757,5.45892 -0.27757,5.45892" fill="none" stroke="#000000" stroke-width="1" stroke-linecap="round"/><path d="M247.82205,180.7612c0,0 1.11692,2.20529 1.48576,2.79003c0.16912,0.26812 0.30243,0.80057 0.22711,1.03908c-0.28452,0.90098 -2.03893,6.4566 -2.03893,6.4566" fill="none" stroke="#000000" stroke-width="1" stroke-linecap="round"/><path d="M232.53495,187.56638l2.4935,3.37662l2.96104,-1.4026l3.06494,2.28571l3.58441,-3.06493l1.81818,2.02598l1.4026,-1.76623l0.60901,4.10389l-2.07792,2.02598l-3.06493,-0.88312l-2.28572,2.49351l-3.37662,-2.5974l-4,2.07792l-2.7013,-2.38961l-2.23377,0.72727c0,0 -0.74163,-2.11276 -1.65544,-2.74917c-1.01494,-0.70684 -3.88863,-1.30277 -3.88863,-1.30277c0,0 1.39404,-1.41642 1.44838,-2.2237c0.06497,-0.96521 -1.08474,-3.1789 -1.08474,-3.1789l3.37662,0.31169l1.61039,-1.1948l0.88312,4z" fill="#feecf7" stroke="#000000" stroke-width="1" stroke-linecap="round"/><g stroke="#000000" stroke-width="1" stroke-linecap="round"><path d="M231.96353,181.69627l-0.08953,-6.96104l13.66234,-1.76623l3.06493,-3.74026l3.79221,2.85715l6.07792,-2.59741l-0.25974,8.31169l-3.06494,-0.41558l-3.16883,2.44156l-2.90909,-1.81818l-3.91048,3.58441l-0.81679,-2.5974l-3.54684,2.90909l-2.06355,-2.23377l-2.04034,2.07792l-1.95966,-1.76623z" fill="#feecf7"/><path d="M244.54933,174.31964l0.77922,-0.93507" fill="none"/></g><g stroke="#000000" stroke-linecap="round"><path d="M246.70241,195.15079l1.45455,-1.97402c0,0 1.7157,1.92411 4.31329,1.83733c3.55994,-0.11893 4.63614,-2.5646 4.63614,-2.5646c0,0 2.24064,2.35673 1.72783,3.67003c-0.3863,0.98933 -4.16933,6.92418 -6.43334,7.04926c-2.10408,0.02195 -5.28289,-5.99201 -5.28289,-5.99201z" fill="#4ea5eb" stroke-width="0"/><path d="M248.15695,193.17679c0,0 1.7157,1.92411 4.31329,1.83733c3.55994,-0.11893 4.63614,-2.5646 4.63614,-2.5646c0,0 2.24064,2.35672 1.72783,3.67003c-0.34614,0.88644 -3.47326,5.74323 -5.6915,6.83382c0.14606,-0.60192 0.94199,-5.31229 0.94199,-5.31229c0,0 -3.3163,-1.57255 -4.5584,-2.44406c-0.53925,-0.37836 -0.96529,-1.19763 -1.41687,-1.95575z" fill="#2e67e5" stroke-width="0"/><path d="M246.7024,195.15081l1.45455,-1.97402c0,0 1.7157,1.92411 4.31329,1.83733c3.55994,-0.11893 4.63614,-2.5646 4.63614,-2.5646c0,0 2.24064,2.35672 1.72783,3.67003c-0.38631,0.98933 -4.16933,6.92418 -6.43334,7.04926c-2.10408,0.02195 -5.28288,-5.99201 -5.28288,-5.99201" fill="none" stroke-width="1"/></g></g><path d="M192.06803,227.93197v-95.86394h95.86394v95.86394z" fill="none" stroke="none" stroke-width="0" stroke-linecap="butt"/><g stroke="#000000"><g stroke-linecap="butt"><path d="M267.79843,168.68886l0.58171,-2.26909c0,0 9.07866,-0.87261 11.11756,0.16087c1.43134,0.72552 1.42691,4.98811 -1.18655,5.51856c-3.48037,0.70639 -10.51271,-3.41034 -10.51271,-3.41034z" fill="#0066cd" stroke-width="0"/><path d="M267.79844,168.68886l0.20646,-0.80533c0,0 2.05226,0.19079 4.08316,0.56629c1.56968,0.29023 2.9365,0.73436 4.52356,1.01335c1.88755,0.33181 3.70584,0.50743 3.6828,0.58973c-0.27329,0.97657 -0.90706,1.82786 -1.98326,2.04631c-3.48037,0.7064 -10.51272,-3.41035 -10.51272,-3.41035z" fill="#061483" stroke-width="0"/><path d="M267.79844,168.68886l0.58171,-2.26909c0,0 9.07866,-0.8726 11.11756,0.16088c1.43135,0.72552 1.42691,4.98811 -1.18655,5.51856c-3.48037,0.7064 -10.51272,-3.41035 -10.51272,-3.41035z" fill="none" stroke-width="1"/></g><g stroke-linecap="round"><path d="M228.37986,173.20003c0,0 -9.38597,-24.3791 13.40562,-25.05535c23.36914,-0.69338 20.17801,20.05766 20.17801,20.05766c0,0 5.88303,-5.22799 6.81742,-4.72136c0.78869,0.42763 -0.24756,5.45587 -0.9679,7.39435c-0.53229,1.4324 -1.21656,4.50596 -2.58661,4.75298c-0.86233,0.15547 -4.58068,-2.50618 -4.58068,-2.50618c0,0 -7.24827,4.52977 -13.99679,6.20961c-6.66407,1.65882 -16.34638,1.07562 -16.34638,1.07562c0,0 -7.19768,-0.47329 -7.49173,-2.9275c-0.25056,-2.09118 5.56905,-4.27984 5.56905,-4.27984z" fill="#fde0be" stroke-width="0"/><path d="M256.62418,175.36941c-0.03328,0.01713 -1.38143,-2.03604 -1.38143,-2.03604l-3.08247,2.70408l-5.17599,-7.02076l-6.65732,4.61362l-1.24654,-6.47882c0,0 -11.3613,3.99205 -11.36976,3.96203c-1.66634,-5.91693 -4.61719,-22.41424 14.07478,-22.96884c23.36914,-0.69338 20.17801,20.05766 20.17801,20.05766c0,0 5.41232,3.98978 5.35827,4.15395c-0.47504,1.44329 -1.10662,3.09376 -2.09537,3.27202c-0.86233,0.15547 -4.58068,-2.50618 -4.58068,-2.50618c0,0 -1.61117,1.00689 -4.02151,2.24729z" fill="#fc988a" stroke-width="0"/><path d="M262.42371,169.66406l3.00999,-1.54624l-0.93933,5.02116z" fill="#f79587" stroke-width="0.5"/><path d="M241.78545,148.14469c23.36914,-0.69338 20.17801,20.05766 20.17801,20.05766c0,0 5.88303,-5.22799 6.81742,-4.72136c0.78869,0.42763 -0.24756,5.45587 -0.9679,7.39435c-0.53229,1.4324 -1.21656,4.50596 -2.58661,4.75298c-0.86233,0.15547 -4.58068,-2.50618 -4.58068,-2.50618c0,0 -7.24827,4.52977 -13.99679,6.20961c-6.66407,1.65882 -16.34638,1.07562 -16.34638,1.07562c0,0 -7.19768,-0.47329 -7.49173,-2.9275c-0.25056,-2.09118 5.56905,-4.27984 5.56905,-4.27984c0,0 -9.38596,-24.37909 13.40563,-25.05534z" fill="none" stroke-width="1"/></g><g stroke-linecap="round"><path d="M267.78665,160.70987c0,0 -1.71281,3.50315 -2.75801,4.94974c-0.90256,1.24916 -3.14827,3.22472 -3.14827,3.22472c0,0 -11.02567,-4.55957 -18.52925,-5.0799c-7.66438,-0.53148 -17.47716,0.74518 -17.47716,0.74518c0,0 -4.47198,-17.67876 -0.99489,-20.52327c2.53185,-2.07124 10.00119,-4.27437 17.38356,-4.04109c3.36468,0.10632 12.98639,0.51154 16.2409,3.42944c4.3619,3.91076 9.28312,17.29519 9.28312,17.29519z" fill="#ff292e" stroke-width="0"/><path d="M267.78665,160.70987c0,0 -1.71281,3.50316 -2.75801,4.94974c-0.90256,1.24916 -3.14826,3.22472 -3.14826,3.22472c0,0 -5.33944,-2.20808 -11.11567,-3.7264c-0.1512,-0.03974 1.72899,-14.1984 4.41505,-19.87335c0.88947,-1.87921 2.51417,-2.59578 3.32377,-1.86991c4.3619,3.91077 9.28313,17.2952 9.28313,17.2952z" fill="#ac0e49" stroke-width="0.5"/><path d="M265.02864,165.65961c-0.90256,1.24916 -3.14826,3.22472 -3.14826,3.22472c0,0 -11.02567,-4.55957 -18.52926,-5.07989c-7.66438,-0.53148 -17.47715,0.74518 -17.47715,0.74518c0,0 -4.47198,-17.67877 -0.99489,-20.52327c2.53186,-2.07124 10.00119,-4.27437 17.38356,-4.04109c3.36468,0.10632 12.98639,0.51153 16.24088,3.42943c4.3619,3.91077 9.28313,17.2952 9.28313,17.2952c0,0 -1.71281,3.50315 -2.75801,4.94973z" fill="none" stroke-width="1"/></g><g stroke-linecap="round"><path d="M226.95728,170.1826c0,0 -3.79358,1.15454 -5.51317,1.91477c-1.74593,0.77187 -4.8846,2.68206 -4.8846,2.68206c0,0 1.38971,-3.94535 2.36252,-5.74156c0.92386,-1.70583 3.33506,-4.77858 3.33506,-4.77858l-9.48547,1.19081c0,0 8.08415,-13.16528 11.58272,-14.91183c2.08658,-1.04166 10.32312,3.54145 10.32312,3.54145c0,0 1.112,-2.75185 1.91786,-4.05074c0.73383,-1.1828 2.72143,-3.42697 2.72143,-3.42697c0,0 1.86925,6.03338 3.07635,8.93701c1.25752,3.02488 4.32372,8.86341 4.32372,8.86341l14.8905,4.06955l-0.95891,6.75999l-6.06056,-5.84154l-2.38892,3.6189l-5.4821,-8.6069l-4.70148,4.37851l-1.41784,-5.00359c0,0 -10.83685,3.23318 -13.22674,4.58501c-0.65147,0.3685 -0.41347,1.82026 -0.41347,1.82026z" fill="#4fa6ec" stroke-width="0"/><path d="M229.54048,160.78621l-12.98097,13.99322c0,0 1.38971,-3.94535 2.36251,-5.74156c0.92385,-1.70583 3.33506,-4.77858 3.33506,-4.77858l-9.48546,1.1908c0,0 8.08414,-13.16528 11.58272,-14.91183c2.08657,-1.04167 10.32313,3.54145 10.32313,3.54145c0,0 1.11199,-2.75185 1.91785,-4.05074c0.73383,-1.1828 2.72143,-3.42696 2.72143,-3.42696l-1.81867,11.97314c0,0 -9.25976,-3.88602 -11.43739,-3.44021c-3.41768,0.69966 -7.84557,7.95692 -7.84557,7.95692z" fill="#66ffff" stroke-width="0"/><path d="M251.89744,167.43087l-0.47662,4.3568l-3.3217,-5.21507z" fill="#66ffff" stroke-width="0"/><path d="M216.55952,174.77943c0,0 1.38971,-3.94535 2.36251,-5.74156c0.92385,-1.70583 3.33506,-4.77858 3.33506,-4.77858l-9.48546,1.1908c0,0 8.08414,-13.16528 11.58272,-14.91183c2.08657,-1.04167 10.32313,3.54145 10.32313,3.54145c0,0 1.11199,-2.75185 1.91785,-4.05074c0.73383,-1.1828 2.72143,-3.42696 2.72143,-3.42696c0,0 1.86924,6.03338 3.07634,8.937c1.25751,3.02488 4.32372,8.86341 4.32372,8.86341l14.8905,4.06955l-0.95891,6.75999l-6.06056,-5.84153l-2.38893,3.6189l-5.48211,-8.6069l-4.70149,4.37851l-1.41784,-5.00359c0,0 -10.83685,3.23318 -13.22674,4.58501c-0.65147,0.3685 -0.41347,1.82026 -0.41347,1.82026c0,0 -3.79356,1.15454 -5.51316,1.91477c-1.7196,0.76023 -4.8846,2.68203 -4.8846,2.68203z" fill="none" stroke-width="1"/></g></g><g stroke="none" stroke-width="0.5" stroke-linecap="butt"><path d="M241.70848,170.05693c0,0 -0.19858,0.19858 -0.4548,0.17292c-0.22566,0.22246 -0.56175,0.11042 -0.56175,0.11042l-0.48934,-0.16514c-0.93076,-0.3989 -1.8617,-0.82219 -2.78304,-1.26675c0.04408,1.18214 0.26728,2.08727 0.57009,3.2952l0.01281,0.21866c0.02511,0.20899 -0.03893,0.34846 -0.12795,0.44107c-0.07567,0.09343 -0.19479,0.17023 -0.38232,0.18051c-0.87155,0.10803 -1.73631,0.39092 -2.59859,0.58259l-0.08749,0.05339c-0.17003,0.1286 -0.32611,0.13887 -0.45238,0.10462c-0.1187,-0.02008 -0.2445,-0.08494 -0.34213,-0.24163c-1.3915,-1.8021 -1.31293,-4.60206 -0.46579,-6.6676c-3.49901,-2.00595 -8.52312,-9.57019 -8.52312,-9.57019c0,0 4.49265,4.57497 8.87868,7.94139c2.89295,2.22043 6.04768,3.60693 6.74045,3.90384l0.29843,0.09797c2.691,-2.6934 4.83101,-5.85392 7.56205,-8.60277c2.75411,-2.75195 9.7068,-7.24896 9.7068,-7.24896c0,0 -1.8624,1.66237 -3.99929,3.45421c-1.78162,1.49394 -3.67507,3.33833 -4.91903,4.58322c-0.20295,0.20181 -0.40233,0.40582 -0.59864,0.61166c0.06708,0.21809 -0.04028,0.43283 -0.04028,0.43283c-1.23123,2.46053 -1.67113,5.34215 -0.98602,8.08254l0.00411,0.72774c0.00003,0.00311 0.00006,0.00626 0.00006,0.00941c0,0.19363 -0.06725,0.32 -0.15502,0.40249c-0.08249,0.08778 -0.20887,0.15504 -0.4025,0.15504c-0.00096,0 -0.00192,0 -0.00287,-0.00001c-1.31186,-0.00227 -2.41219,-0.02112 -3.71913,0.14438l-0.42471,0.00415c-0.00532,0.0001 -0.0107,0.00016 -0.01612,0.00016c-0.19363,0 -0.32,-0.06725 -0.40249,-0.15502c-0.08779,-0.08249 -0.15504,-0.20887 -0.15504,-0.4025c0,-0.69864 0,-1.39728 0,-2.09593c-0.22397,0.23825 -0.45158,0.4738 -0.68364,0.70609z" fill="#000000"/><path d="M246.38257,177.37316c1.60508,-0.39593 6.75504,-3.42633 6.79725,-5.4927c-2.26814,1.69713 -5.84894,2.99586 -8.46669,3.67706c-1.92962,0.40814 -3.79917,1.12493 -5.70414,1.55837c1.57165,1.68722 5.53035,0.72235 7.37358,0.25726zM253.2288,170.5167c0.17551,-0.10029 0.32373,-0.10058 0.4414,-0.06021c0.11879,0.03128 0.24038,0.11208 0.33044,0.28817c1.63134,3.02933 -4.7713,7.05875 -7.34763,7.71025c-2.55982,0.63471 -6.91297,1.54267 -8.76589,-0.96019l-0.07787,-0.14962c-1.47042,0.22101 -4.90356,-1.20158 -4.90356,-1.20158c0,0 2.31543,0.4276 4.71616,0.11865c2.4699,-0.31786 5.05134,-1.37813 6.8351,-1.78987c2.55066,-0.60228 6.36438,-2.04574 8.39419,-3.75118l0.37314,-0.20185c0.00151,-0.00087 0.00301,-0.00173 0.00452,-0.0026z" fill="#000000"/><path d="M238.95562,177.13202c1.90497,-0.43344 3.87928,-1.18798 5.8089,-1.59612c2.61774,-0.68121 6.19825,-1.98062 8.46639,-3.67775c-0.04222,2.06637 -5.2366,5.17444 -6.8417,5.57037c-1.84322,0.46508 -5.86194,1.39072 -7.4336,-0.2965z" data-paper-data="{&quot;noHover&quot;:false,&quot;origItem&quot;:[&quot;Path&quot;,{&quot;applyMatrix&quot;:true,&quot;segments&quot;:[[[670.47868,383.19107],[-3.3061,0.8342],[2.87897,-0.71016]],[[682.67059,373.3391],[-0.07572,3.70634],[-4.06825,3.04406]],[[667.4843,379.93446],[4.69532,-1.22185],[-3.46106,0.73206]],[[657.25306,382.72964],[3.41686,-0.77745],[2.819,3.02628]]],&quot;closed&quot;:true}]}" fill="#ff6666"/></g><g><path d="M204.51409,190.55904c-0.14508,-1.75752 1.16207,-3.29988 2.91958,-3.44495c1.75752,-0.14508 3.29986,1.16206 3.44493,2.91958c0.14508,1.75752 -1.16206,3.29986 -2.91956,3.44493c-1.75752,0.14508 -3.29988,-1.16206 -3.44495,-2.91956z" fill="#3f5479" stroke="#000000" stroke-width="1" stroke-linecap="butt"/><path d="M219.0883,173.97198c4.61125,0.45256 8.83205,9.52905 6.56353,14.13022c-0.87313,1.77092 -2.81497,2.63107 -4.65518,2.45298c-0.16727,-0.01618 -1.34663,-0.8713 -1.39359,-0.81511c-0.26538,0.31764 -0.211,1.55346 -1.04717,2.24892c-1.12949,0.93941 -3.1762,1.33764 -3.1762,1.33764c0,0 -1.91559,2.61267 -2.99548,2.27065c-5.60465,-1.77503 -6.8655,-7.21217 -5.72342,-10.65159c0.29815,-0.89791 2.75542,-2.46037 3.76671,-3.79766c0.92562,-1.22401 -0.01755,-1.52001 0.84744,-2.07607c0.19615,-0.12609 0.85103,-0.56328 1.57404,-0.67806c0.79937,-0.12692 1.69706,0.04854 2.48339,-0.55722c1.6387,-1.26237 1.24237,-4.1114 3.75593,-3.86471z" fill="#fde0be" stroke="#000000" stroke-width="0" stroke-linecap="butt"/><path d="M217.33913,193.03867c0.88895,-6.48113 11.52651,-7.90554 11.10736,-1.91784c-0.21371,3.05292 -2.73418,2.61652 -4.799,3.42755c-0.15804,0.06207 -0.29935,0.16322 -0.43352,0.2894c-0.3185,1.06853 -1.26486,1.88507 -2.44304,1.98232c-0.21634,0.01786 -0.42895,0.01051 -0.63492,-0.01958c-1.11078,-0.16232 -2.02883,-0.98633 -2.30048,-2.08754c-0.45159,-0.46351 -0.4301,-1.08224 -0.47695,-1.64975z" fill="#f89688" stroke="#000000" stroke-width="1" stroke-linecap="butt"/><path d="M225.65183,188.10218c-0.87313,1.77092 -2.81497,2.63107 -4.65517,2.45298c-0.16727,-0.01618 -1.34663,-0.8713 -1.39359,-0.81511c-0.26538,0.31764 -0.211,1.55346 -1.04717,2.24892c-1.1295,0.93941 -3.1762,1.33764 -3.1762,1.33764c0,0 -1.91559,2.61267 -2.99548,2.27065c-1.00809,-0.31926 -1.87566,-0.75702 -2.61399,-1.2803c0.77551,-1.6856 1.50177,-2.90616 1.33824,-4.88713c-0.05433,-0.65819 0.04655,-2.43458 -0.11492,-3.05228c0.49727,-0.35557 0.41874,-0.29367 0.90381,-0.70799c0.04629,0.22484 0.11322,0.44412 0.20217,0.65679c0.12927,0.30908 0.30651,0.61669 0.51927,0.91127c0.25195,1.39643 1.52902,2.39902 2.97225,2.27989c0.20282,-0.01674 0.39877,-0.0548 0.58583,-0.11178c0.81426,-0.02361 1.50588,-0.51441 1.80757,-1.71987c0.05089,-0.14072 0.09069,-0.28643 0.11845,-0.43598c0.51241,0.35529 1.14653,0.54168 1.81646,0.48638c0.12807,-0.01057 0.25342,-0.02965 0.37551,-0.05661c0.71366,-0.15766 1.31633,-0.58523 1.7064,-1.16285c1.23732,-1.11794 2.69748,-2.85762 3.84053,-4.5935c0.60162,2.23133 0.63667,4.50224 -0.18998,6.17888z" fill="#f89688" stroke="#000000" stroke-width="0" stroke-linecap="butt"/><path d="M210.69056,185.59926l1.70812,0.97783c0,0 0.34453,2.37668 0.83918,3.36791c0.55468,1.11154 2.02642,3.00685 2.02642,3.00685" fill="none" stroke="#000000" stroke-width="1" stroke-linecap="round"/><path d="M216.34981,182.691l1.50607,0.99451c0,0 0.04843,2.01962 0.39495,3.17842c0.35572,1.18959 1.57812,3.47344 1.57812,3.47344" fill="none" stroke="#000000" stroke-width="1" stroke-linecap="round"/><path d="M219.0883,173.97198c4.61125,0.45256 8.83206,9.52905 6.56354,14.13022c-0.87313,1.77092 -2.81497,2.63107 -4.65517,2.45298c-0.16727,-0.01618 -1.34663,-0.8713 -1.39359,-0.81511c-0.26538,0.31764 -0.211,1.55346 -1.04717,2.24892c-1.1295,0.93941 -3.1762,1.33764 -3.1762,1.33764c0,0 -1.91559,2.61267 -2.99548,2.27065c-5.60465,-1.77503 -6.8655,-7.21217 -5.72342,-10.65159c0.29816,-0.89791 2.75542,-2.46037 3.76671,-3.79766c0.92562,-1.22401 -0.01755,-1.52001 0.84744,-2.07607c0.20441,-0.13141 0.69919,-0.54851 1.46412,-0.67639c0.78058,-0.13051 1.83695,0.02378 2.59331,-0.55889c1.6387,-1.26236 1.24237,-4.1114 3.75593,-3.86471z" fill="none" stroke="#000000" stroke-width="1" stroke-linecap="butt"/><path d="M221.24297,182.51595c-0.28555,-3.45923 1.30811,-6.10902 3.90252,-6.32319c2.59443,-0.21416 4.92911,2.41648 5.21466,5.87572c0.28555,3.45923 -0.99669,6.18501 -3.59112,6.39917c-2.59443,0.21416 -5.24052,-2.49249 -5.52607,-5.95172z" fill="#93c0c3" stroke="none" stroke-width="0" stroke-linecap="butt"/><path d="M226.76904,188.46768c-2.50411,0.20671 -5.05635,-2.30758 -5.48776,-5.59329c3.02764,-0.22315 6.06226,-0.35828 9.09615,-0.56764c0.20843,3.34542 -1.07382,5.95172 -3.60839,6.16094z" fill="#475f86" stroke="none" stroke-width="0" stroke-linecap="butt"/><path d="M221.31309,180.39797c0.84718,0.0254 1.97644,-0.42299 2.49738,-0.48422c1.15691,-0.13598 3.73358,-0.14092 5.73964,-0.77736c0.3139,0.6207 0.55163,1.31581 0.69257,2.06204c-3.01272,0.20719 -6.02601,0.34196 -9.03258,0.56316c-0.00174,-0.47504 0.03345,-0.93114 0.10299,-1.36362z" fill="#475f86" stroke="none" stroke-width="0" stroke-linecap="butt"/><path d="M221.24297,182.51595c-0.28555,-3.45923 1.30811,-6.10902 3.90252,-6.32319c2.59443,-0.21416 4.92911,2.41648 5.21466,5.87572c0.28555,3.45923 -0.99669,6.18501 -3.59112,6.39917c-2.59443,0.21416 -5.24052,-2.49249 -5.52607,-5.95172z" fill="none" stroke="#000000" stroke-width="1" stroke-linecap="butt"/><path d="M224.18196,181.15449c-0.40069,-4.85408 2.81207,-9.38625 7.33137,-9.75931c4.51933,-0.37306 7.58189,3.13254 7.98258,7.98662c0.40069,4.85408 -2.93811,9.09151 -7.45742,9.46457c-4.51931,0.37306 -7.45583,-2.83779 -7.85652,-7.69187z" fill="#3f5479" stroke="#000000" stroke-width="0" stroke-linecap="butt"/><path d="M239.49593,179.38181c0.40069,4.85408 -2.93811,9.09151 -7.45742,9.46457c-3.83629,0.31668 -6.53208,-1.94913 -7.50439,-5.61035c0.19218,0.06448 0.39738,0.11533 0.61616,0.15121c4.6898,0.76944 12.20046,-1.05574 13.9484,-6.24072c0.19843,0.70283 0.33254,1.45147 0.39724,2.23527z" fill="#323344" stroke="#000000" stroke-width="0" stroke-linecap="butt"/><path d="M230.69563,172.88667c-0.038,-0.46029 0.30434,-0.86425 0.76465,-0.90224c0.4603,-0.038 0.86425,0.30435 0.90224,0.76465c0.038,0.46029 -0.30434,0.86425 -0.76465,0.90224c-0.4603,0.038 -0.86425,-0.30435 -0.90224,-0.76465z" fill="#95c2c5" stroke="none" stroke-width="0.5" stroke-linecap="butt"/><path d="M224.18196,181.15449c-0.40069,-4.85408 2.81207,-9.38625 7.33137,-9.75931c4.51933,-0.37306 7.58189,3.13254 7.98258,7.98662c0.40069,4.85408 -2.93811,9.09151 -7.45742,9.46457c-4.51931,0.37306 -7.45583,-2.83779 -7.85652,-7.69187z" fill="none" stroke="#000000" stroke-width="1" stroke-linecap="butt"/><path d="M239.02117,181.67036c0,0 -0.9873,2.67154 -6.0472,3.3034c-2.78878,0.34827 -6.22979,0.4512 -6.22979,0.4512" fill="none" stroke="#000000" stroke-width="1" stroke-linecap="round"/><path d="M239.31943,179.18431c0,0 -2.44606,0.92291 -4.15982,1.29217c-2.71726,0.58548 -10.57059,1.88176 -10.57059,1.88176" fill="none" stroke="#000000" stroke-width="1" stroke-linecap="round"/><path d="M224.20623,180.43186c0,0 3.06115,-3.00211 7.25972,-3.68749c3.57391,-0.58341 7.54002,0.67566 7.54002,0.67566" fill="none" stroke="#000000" stroke-width="1" stroke-linecap="round"/><path d="M224.52388,176.82537c0,0 2.71743,-2.56227 6.04614,-2.92734c3.34503,-0.36685 7.30384,0.65055 7.30384,0.65055" fill="none" stroke="#000000" stroke-width="1" stroke-linecap="round"/><path d="M230.23289,188.38159c0,0 -3.39792,-2.5488 -4.4239,-6.50955c-0.59319,-2.28996 0.11932,-7.00867 0.11932,-7.00867" fill="none" stroke="#000000" stroke-width="1" stroke-linecap="round"/><path d="M232.69142,188.34647c0,0 -3.63758,-3.96906 -4.25353,-7.65029c-0.48054,-2.87202 0.9002,-8.57574 0.9002,-8.57574" fill="none" stroke="#000000" stroke-width="1" stroke-linecap="round"/><path d="M235.50273,187.1634c0,0 -2.3291,-0.7 -3.29185,-9.03108c-0.30988,-2.68155 0.65572,-6.6388 0.65572,-6.6388" fill="none" stroke="#000000" stroke-width="1" stroke-linecap="round"/><path d="M236.78658,173.57543l1.10695,11.3767" fill="none" stroke="#000000" stroke-width="1" stroke-linecap="round"/></g><path d="M248.98757,172.91637l0.99551,3.12872l8.10623,-3.41315l-1.70658,3.9109l2.70208,2.34654l-4.69308,-0.0711l-1.70658,1.49326l-3.41315,-1.49326l-4.54055,3.8398l-0.36585,-2.77319c0,0 1.65657,-2.96144 2.47952,-4.20218c0.69654,-1.05017 2.14246,-2.76634 2.14246,-2.76634z" fill="#feecf7" stroke="#000000" stroke-width="1" stroke-linecap="round"/></g></g></svg>