<svg version="1.1" xmlns="http://www.w3.org/2000/svg" xmlns:xlink="http://www.w3.org/1999/xlink" width="234" height="234" viewBox="0,0,234,234"><g transform="translate(-123,-63)"><g data-paper-data="{&quot;isPaintingLayer&quot;:true}" fill-rule="nonzero" stroke-linejoin="miter" stroke-miterlimit="10" stroke-dasharray="" stroke-dashoffset="0" style="mix-blend-mode: normal"><g data-paper-data="{&quot;index&quot;:null}" stroke="#000000" stroke-width="3" stroke-linecap="butt"><path d="M269.78653,198.10234c0,0 -1.33332,11.21426 -9.58592,11.07845c-3.82744,-0.06298 -20.73196,-4.48 -23.76702,-10.28174c-6.61058,-12.6366 -4.06772,-21.43078 -4.06772,-21.43078c0,0 3.86772,-3.24576 6.4041,-3.06958c7.27962,0.50564 8.5077,4.91843 8.5077,4.91843c0,0 0.47426,2.06806 1.17924,3.30213c0.77758,1.36116 3.28978,4.52094 3.28978,4.52094c0,0 15.56356,0.10166 16.08399,1.30866c0.2319,0.5378 1.95585,9.6535 1.95585,9.6535z" fill="#db93e6"/><path d="M267.96415,193.24794c0,0 16.14438,-0.61079 20.9322,2.56892c7.5411,5.00823 4.87096,14.78592 3.58568,15.81613c-4.02437,3.22571 -18.96866,4.86523 -18.96866,4.86523c-2.96653,0.03334 -10.458,-0.14369 -12.68671,-0.83263c-3.51133,-1.08543 -3.29773,-5.67464 -3.20426,-10.31858c0.15429,-7.6654 2.67634,-12.25334 10.34175,-12.09906z" fill="#f89587"/></g><g data-paper-data="{&quot;index&quot;:null}"><g><g><g stroke-linecap="butt"><path d="M339.89589,178.52964c-0.51451,11.80406 -7.01806,15.27169 -18.83094,15.03393c-10.97283,-0.22085 -19.65055,-6.39443 -19.08086,-17.35469c0.66895,-12.87 6.66656,-22.2474 18.47944,-22.00964c9.80554,0.19736 16.57293,5.03932 18.83901,14.16217c0.712,2.86641 0.74912,6.59415 0.59334,10.16822z" fill="#485e84" stroke="#000000" stroke-width="3"/><path d="M303.95492,170.58744c0,0 0.97187,1.05994 4.91098,2.67784c2.56734,1.05447 5.38723,2.84869 10.16075,2.94477c5.88255,0.1184 11.02183,0.05387 14.56863,-0.32759c3.74729,-0.40303 5.31047,-2.50023 5.31047,-2.50023c0,0 3.17063,19.11313 -13.02804,19.33266c-5.07687,0.06881 -14.82301,-1.90525 -19.49488,-6.3227c-2.47163,-2.33703 -2.6731,-6.57462 -2.97866,-8.82478c-0.59024,-4.34661 0.55074,-6.97997 0.55074,-6.97997z" fill="#343545" stroke="none" stroke-width="0"/></g><g fill="none" stroke="#000000" stroke-width="2" stroke-linecap="round"><path d="M306.98638,176.14559c0,0 -0.76972,-3.8992 -0.77445,-6.32835c-0.00723,-3.71426 2.21536,-8.23578 2.21536,-8.23578"/><path d="M303.06762,175.32887c0,0 6.2581,-6.36421 13.63192,-3.70565c14.6967,5.29875 11.59194,21.34795 11.59194,21.34795"/><path d="M317.32156,179.96091c0,0 3.01235,-8.50933 5.21154,-12.21124c2.92452,-4.92289 7.86081,-9.98922 7.86081,-9.98922"/><path d="M334.77635,159.98024c0,0 0.72875,7.81077 -5.22621,15.86389c-3.5823,4.84448 -9.25084,6.88218 -9.25084,6.88218"/><path d="M312.06241,176.4937c0,0 -0.68172,-5.90832 1.1607,-10.07608c3.17753,-7.18796 10.59219,-11.74101 10.59219,-11.74101"/><path d="M338.75126,170.22623c0,0 -1.12918,6.89414 -7.32469,12.0332c-2.85696,2.3698 -8.88877,3.29937 -8.88877,3.29937"/><path d="M339.6253,179.75394c0,0 -2.7616,4.90974 -7.2056,7.75213c-2.513,1.60732 -8.96446,1.35055 -8.96446,1.35055"/><path d="M318.65406,154.49075c0,0 5.22645,1.71237 10.33625,5.70108c4.95397,3.86708 11.23725,14.08132 11.23725,14.08132"/><path d="M308.44381,160.76196c0,0 8.894,-1.70706 16.4917,3.93688c10.91657,8.10934 12.07295,22.87288 12.07295,22.87288"/></g></g><g stroke-linecap="butt"><path d="M321.06114,197.82667c0,0 -8.99392,-5.54256 -12.54919,-8.43624c-2.73232,-2.22387 -6.97111,-7.4516 -6.97111,-7.4516l1.55593,-3.98589c0,0 5.69391,-1.96935 9.97831,0.07586c8.00652,3.822 10.82239,13.29624 10.82239,13.29624c0,0 -0.01874,3.94667 -0.52279,5.10209c-0.42936,0.9842 -2.31355,1.39952 -2.31355,1.39952z" fill="#485e84" stroke="#000000" stroke-width="2"/><path d="M312.83657,182.54941l1.75885,-2.29384c0,0 0.5907,0.2824 0.91493,0.47949c0.36925,0.22445 1.25582,0.94887 1.25582,0.94887l-1.43168,2.69694z" fill="#8fbbbe" stroke="none" stroke-width="0"/><path d="M316.80344,185.6433l1.99235,-1.6473c0,0 1.92703,2.5237 2.56346,3.72877c0.51009,0.96586 0.96061,2.9441 0.96061,2.9441l-1.78416,1.51448z" fill="#8fbbbe" stroke="none" stroke-width="0"/><path d="M303.492,181.04922c0,0 0.91435,-0.31973 2.70535,-0.51966c1.7234,-0.19239 4.2688,-0.3073 7.07695,1.75574c2.16898,1.59346 4.50674,3.21958 5.78449,5.2793c2.62118,4.22533 2.89379,8.85923 2.89379,8.85923c0,0 -0.54668,1.29344 -1.12852,0.76699c-0.69496,-0.6288 -2.76246,-4.28755 -2.76246,-4.28755c0,0 0.45272,-3.69442 -4.51319,-6.60601c-2.1692,-1.27183 -6.58975,-2.77055 -8.77758,-3.86807c-1.51261,-0.7588 -1.27883,-1.37996 -1.27883,-1.37996z" fill="#000000" stroke="none" stroke-width="0"/></g></g><g stroke-linecap="butt"><path d="M302.64092,185.28546c0.10716,0.13106 3.679,2.87232 3.679,2.87232c0,0 3.26307,4.47681 -7.63849,11.48108c-7.77492,6.34865 -12.53604,3.21349 -12.53604,3.21349c0,0 -8.79105,-4.47664 -10.11908,-8.88978c-0.70698,-2.34934 -2.68712,-6.33379 -0.26795,-7.843c1.90408,-1.18788 6.73383,-0.81205 7.85591,-2.00956c2.01617,-2.15172 1.52103,-14.579 9.76873,-13.50573c3.49152,0.45435 9.44093,5.58794 9.25791,14.68116z" fill="#fddfbd" stroke="#000000" stroke-width="3"/><path d="M280.63563,191.84776c5.38142,-1.44872 9.06113,-2.15317 9.06113,-2.15317c0,0 3.04614,3.4228 1.89834,5.18252c-1.30625,2.00263 -6.98242,2.37055 -9.89921,2.31184c-2.41278,-0.04857 -4.10773,-2.46237 -4.91607,-4.93183c-0.7019,-2.14427 -0.67022,-4.39304 -0.67022,-4.39304c0,0 1.83259,0.81541 4.52603,3.98368z" fill="#f89587" stroke="none" stroke-width="0"/></g><g stroke-linecap="butt"><g><path d="M268.85975,211.4658c0.08585,-4.26567 3.27282,-8.81382 11.24222,-7.79481c0.14892,-2.80209 -0.59721,-4.62856 0.62587,-5.93791c0.72698,-0.77825 2.4779,-1.83222 4.31682,-2.43569c1.2439,-0.40821 2.14958,-0.7623 3.67801,-1.00766c-0.2724,-4.33811 0.43781,-6.84267 1.41288,-8.18731c1.67256,-2.30647 2.2413,-5.52636 4.42677,-5.89548c6.28474,-1.06145 14.8154,5.64703 20.754,11.29143c2.5794,2.45161 5.61481,8.1222 6.41147,9.92689c0.66415,1.5045 0.04862,4.50805 -0.01216,7.52795c-0.17367,8.6285 -3.16323,7.363 -6.27928,7.61027c-2.48353,0.19708 -5.4443,-1.58694 -6.1489,-0.65063c-1.45879,1.93854 -3.93553,7.23444 -6.61089,7.46908c-2.03926,0.17885 -4.66779,-0.30395 -5.95726,-0.16787c-2.382,0.25138 -5.36359,5.32266 -5.57384,5.49285c-2.08859,1.69061 -4.95872,1.11747 -7.91846,0.32279c-9.90179,-2.6586 -14.53011,-9.47257 -14.36725,-17.56388z" fill="#fddfbd" stroke="#000000" stroke-width="3"/><path d="M275.75849,205.30869c0,0 -2.96872,4.1667 -1.82685,6.18863c1.24027,2.19618 3.87647,4.46482 7.06655,5.68838c2.2908,3.26755 6.6049,7.28495 6.38942,4.3758c-0.16911,-2.28303 -0.69409,-8.6881 0.48578,-8.06642c0.55621,0.29308 2.02308,2.53944 2.02308,2.53944c0,0 3.60562,0.71319 4.50104,0.98671c2.58094,0.7884 5.8006,-2.94109 5.72411,-3.1884c1.39496,-0.51547 -3.7193,-13.94348 -3.7193,-13.94348l6.23151,4.58415c0,0 4.65074,1.76269 6.63399,2.71624c3.03228,1.45792 5.33637,3.11455 6.86629,3.19038c2.27337,0.11268 4.35164,-8.09535 4.35164,-8.09535c0,0 0.24182,12.55756 -1.45663,12.78288c-1.83678,0.24368 -6.59004,0.50491 -9.72295,-0.45987c-2.45757,0.38067 -4.19487,7.20116 -7.05224,7.65454c-3.11114,0.49364 -2.64224,-0.11547 -5.29378,-0.06029c-0.47286,0.46489 -3.21476,1.45206 -3.77685,1.97647c-2.37144,2.21246 -3.15763,4.09071 -4.07346,4.09375c-9.96551,0.03311 -14.80956,-5.04989 -17.49067,-9.08671c-2.07197,-3.11965 -2.06088,-10.3555 0.06222,-12.35936c1.48492,-1.40152 4.0771,-1.51747 4.0771,-1.51747z" fill="#f89587" stroke="none" stroke-width="0"/></g><path d="M289.74753,216.17269c-3.61333,-4.30452 -12.43482,-12.94566 -12.43482,-12.94566c0,0 1.39614,-1.25509 2.7935,-0.76797c0.92857,0.32371 0.73234,0.9597 0.86267,1.76314c4.91879,5.21538 8.4136,9.43765 8.77864,11.95051z" fill="#000000" stroke="none" stroke-width="0"/><path d="M289.19034,193.10551c0,0 10.30065,6.62798 13.63109,11.5105c-7.80598,-5.48333 -14.41106,-9.00901 -14.41106,-9.00901z" fill="#000000" stroke="none" stroke-width="0"/></g></g><g data-paper-data="{&quot;index&quot;:null}" stroke-linecap="butt"><path d="M282.90147,225.35582c0,0 0.21139,3.60569 -10.68314,6.55483c-16.58096,4.48846 -47.91751,8.99188 -58.48467,9.0436c-5.11607,0.02504 -10.7353,-3.25334 -15.36284,-5.25832c-10.28159,-4.4547 -11.70578,-9.14244 -11.70578,-9.14244c0,0 -1.49042,-4.84567 -0.56015,-6.91625c0.75519,-1.68092 5.49426,-0.9791 5.49426,-0.9791c0,0 42.26551,-6.86949 68.80211,-7.97418c1.1425,-0.04756 1.74683,4.23444 2.80758,4.17909c5.87398,-4.7616 14.52023,-5.82152 14.69263,-5.6739c4.2469,3.63648 5,16.16666 5,16.16666z" fill="#0066cc" stroke="#000000" stroke-width="3"/><path d="M210.3702,216.7346c0,-1.80159 -1.44474,-8.64937 -1.44474,-8.64937c0,0 11.67233,-0.45171 25.78731,-0.45171c11.68368,0 20.35719,-3.63873 20.35719,-3.63873c0,0 5.71929,8.55942 6.12213,9.04974c0.91621,1.11518 0.57345,2.87611 0.57345,2.87611c0,0 -1.50662,4.75248 -2.51439,7.16941c-1.23323,2.95765 -4.97108,11.15908 -4.97108,11.15908c0,0 -0.75356,1.5322 -1.82955,0.36422c-1.95765,-2.12501 -4.98263,-7.89397 -6.47855,-10.61c-0.91426,-0.08061 -1.73421,-0.18338 -2.69472,-0.11638c-2.86642,0.19996 -5.9491,1.22525 -9.3096,1.29901c-4.20151,0.09223 -8.0008,0.10117 -11.26258,-0.53402c-7.64308,-1.48839 -12.33488,-4.94693 -12.33488,-7.91736z" fill="#0f1b82" stroke="none" stroke-width="0"/><path d="M240.50705,225.92176c0,0 4.50087,-3.72766 5.42322,-4.49253c1.06646,-0.88439 4.03756,-2.86042 4.03756,-2.86042c0,0 -1.02941,2.36577 -3.77451,5.68627c-2.94341,3.56039 -5.68627,1.66667 -5.68627,1.66667z" fill="#000000" stroke="none" stroke-width="0"/></g><g data-paper-data="{&quot;index&quot;:null}" stroke-linecap="butt"><g><path d="M265.45956,202.61127c0,0 -0.80576,11.30538 -18.62202,14.10747c-17.21558,2.70761 -26.99419,0.69844 -32.37565,-0.8498c-2.93613,-0.84472 -7.72451,-1.34567 -7.72451,-1.34567c0,0 -1.76235,-8.32924 -2.25205,-16.79677c-0.45304,-7.83361 0.3663,-15.7071 0.30727,-19.08655c-0.18223,-10.43171 3.89805,-8.23432 3.89805,-8.23432l31.17647,6.32353c0,0 -0.22414,2.97042 -1.04214,8.29554c8.35142,4.69367 26.41431,13.73202 26.63457,17.58657z" fill="#feebf7" stroke="#000000" stroke-width="3"/><path d="M244.14581,195.66616l0.48908,0.57059c0.04956,0.05712 0.09063,0.12181 0.12124,0.1921c0.48051,0.56261 0.94808,1.14971 1.406,1.76028c3.80461,6.10591 0.50747,10.87779 -6.36443,11.52312c-7.69837,0.69348 -11.37668,-1.99774 -16.27982,-6.90088c-2.568,-3.00725 -8.28186,-10.20638 -2.18145,-13.11515c0.72976,-0.34796 2.12768,-0.45535 2.90974,-0.62909c3.37773,-0.66175 7.62943,-0.61571 10.84162,0.79171c1.25669,0.55062 2.61073,1.28556 3.79383,2.06347c0.28251,0.17214 0.64848,0.26159 0.92089,0.44556zM237.17479,195.39331c-0.59511,1.9398 -0.89742,4.28028 -1.408,5.98731c-0.29151,0.87454 -1.48872,3.82425 -0.67649,4.57117c1.75336,1.61237 7.78585,-0.59098 8.40148,-2.70456c0,-3.78826 -3.06556,-6.09194 -6.31699,-7.85393zM234.0152,193.80018c-0.67689,-0.33322 -1.31671,-0.65509 -1.88838,-0.97581c-2.90819,-0.95474 -4.52059,-0.64909 -7.42245,0.27441c-0.59143,0.18822 -2.15984,0.34395 -2.27959,1.16198c-0.23171,1.58289 1.16113,3.51007 1.95151,4.77468c0.8847,1.4262 3.97164,5.27034 5.95845,5.06815c0.33108,-0.03369 0.82554,-1.11864 0.93997,-1.33404c0.86922,-1.63615 1.04417,-3.63992 1.57395,-5.40335c0.22609,-1.13048 0.55897,-2.18422 1.02595,-3.23786l0.1406,-0.32816z" fill="#ff0000" stroke="none" stroke-width="0.5"/></g><path d="M204.78746,188.16756c0,0 0.56737,-4.68011 1.95127,-6.02402c5.69789,-5.53324 7.38902,-3.12168 7.38902,-3.12168c0,0 -3.51153,27.34651 -5.39669,34.61118c-3.65394,0 -3.9436,-25.46549 -3.9436,-25.46549z" fill="#db93e6" stroke="none" stroke-width="0"/></g><g data-paper-data="{&quot;index&quot;:null}" stroke-linecap="butt"><path d="M207.12807,217.41922c0,0 -10.76911,1.3807 -14.73674,0.60595c-2.94574,-0.5752 -6.41711,-4.3239 -6.41711,-4.3239c0,0 -0.60302,0.07521 -0.79523,-1.66379c-0.14703,-1.3303 2.98928,-2.15583 3.8294,-4.2229c1.7487,-4.30257 1.96583,-10.13894 1.96583,-10.13894c0,0 -1.67221,-7.25888 3.44927,-8.65008c6.91831,-1.87929 11.29432,2.11162 11.29432,2.11162c0,0 2.94872,9.48427 2.94872,13.84615c0,5.06311 -1.53846,12.4359 -1.53846,12.4359z" fill="#fddfbd" stroke="#000000" stroke-width="2.35"/><path d="M191.53906,198.43951c-0.40648,-3.94474 0.25278,-8.969 3.79414,-8.969c3.69874,0 7.29029,-0.37839 9.59862,2.18198c1.43494,1.59161 1.68343,7.24109 1.68343,7.24109c0,0 -2.7678,2.2955 -8.58974,4.42308c-5.33773,1.95063 -6.66667,0.70513 -6.66667,0.70513c0,0 0.4808,-2.66525 0.18022,-5.58228z" fill="#f89587" stroke="none" stroke-width="0"/></g><g data-paper-data="{&quot;index&quot;:null}" stroke="none" stroke-width="0" stroke-linecap="butt"><path d="M188.94254,197.55646c-0.63026,-0.23698 -2.00625,-1.30667 -2.48439,-2.28031c-1.36756,-2.78478 3.88428,-7.65143 4.26027,-12.95508c0.39034,-5.50616 -2.78181,-11.67141 -1.68421,-14.1667c0.26757,-0.60828 2.76566,-1.82356 3.53347,-1.9933c8.2993,1.63467 20.64041,9.03421 20.64041,9.03421l-0.02017,5.62649c0,0 -11.75725,21.43025 -24.24537,16.73469z" fill="#feebf7"/><path d="M211.68091,184.03307c0,0 -3.08698,10.8657 -13.80085,14.20927c-4.47629,1.39695 -11.9981,-0.47587 -11.9981,-0.47587c-3.29019,-1.73708 -0.80198,-7.87581 1.7,-13.03367c0.75732,-1.56122 1.88169,-3.13453 1.38992,-6.72064c-0.58246,-4.24746 -3.3694,-11.23399 -3.3694,-11.23399c0,0 1.20349,-2.28394 2.44253,-0.91439c0.54429,0.60162 1.29152,4.20276 1.75052,5.13841c1.6518,3.36712 2.60674,9.51589 2.22145,11.03174c-0.57929,2.27912 -4.49397,11.8935 -4.49397,11.8935c0,0 -0.36185,1.02351 0.01793,1.60573c1.28247,1.9661 5.79274,1.90079 8.20861,1.29403c5.81933,-1.46157 9.08142,-4.89956 11.63984,-7.80041c2.41837,-2.74204 4.29153,-4.9937 4.29153,-4.9937z" fill="#000000"/></g><path d="M215.5102,167.87343c21.65368,4.28096 23.22349,10.8182 23.22349,10.8182l-1.81868,7.31559c0,0 -7.64408,-2.30456 -13.299,-3.89013c-8.19333,-2.2973 -32.66245,-8.92106 -32.66245,-8.92106c0,0 -1.46005,-1.50958 -1.27159,-2.75926c0.17851,-1.18363 4.25458,-5.13908 4.25458,-5.13908c0,0 2.87638,-1.12074 21.57365,2.57574z" data-paper-data="{&quot;index&quot;:null}" fill="#db93e6" stroke="none" stroke-width="0" stroke-linecap="butt"/><g data-paper-data="{&quot;index&quot;:null}" stroke-linecap="butt"><g data-paper-data="{&quot;index&quot;:null}"><path d="M281.07719,169.69974c-1.21336,6.95322 -15.10517,9.15961 -44.84692,8.48457c-14.53449,-0.32989 -33.00154,-6.74912 -41.89659,-11.9994c-5.83569,-3.4445 3.30213,-37.45609 9.17837,-40.83093c15.43317,-8.8636 46.82541,-13.8271 61.38556,-3.99284c8.92151,6.0258 5.71575,27.73872 5.71575,27.73872c0,0 -2.82835,5.13718 -4.24195,13.04902c4.11809,0.50239 15.63724,2.21313 14.70579,7.55085z" fill="#fddfbd" stroke="#000000" stroke-width="3"/><path d="M265.54022,156.59026c0,0 -22.10147,-10.7483 -25.8094,-10.3726c-0.62561,1.19394 -2.00486,15.29545 -2.49165,15.06594c-12.16033,-5.73349 -15.85569,-8.57331 -15.85569,-8.57331l-11.60504,18.75566c0,0 -5.98618,-6.70285 -8.60498,-10.02725c0.01188,-2.23434 -2.17798,5.87095 -2.17798,5.87095l-4.21165,-2.33014c0,0 -0.67044,-1.44427 -0.609,-2.71503c0.29134,-6.02525 2.63261,-23.2226 12.21421,-30.13729c11.16523,-8.05754 64.97328,-1.92155 64.97328,-1.92155c0,0 -1.16625,13.20544 -2.23765,18.06079c-1.47687,3.29355 -3.05887,8.73695 -3.05887,8.73695z" fill="#f89587" stroke="none" stroke-width="0"/></g><g><g><path d="M170.71603,153.49424c0,0 -7.53707,4.58942 -14.72894,7.22657c-4.98486,1.82787 -9.78964,2.09091 -11.86266,1.82755c-5.06386,-0.64333 -6.35456,-11.13323 -3.15789,-12.83358c1.87683,-0.99832 6.18743,-1.48686 9.90856,-1.70914c9.28127,-0.55442 20.2952,0.67007 20.2952,0.67007l-0.45427,4.81851z" fill="#0066cc" stroke="#000000" stroke-width="3"/><path d="M152.42725,156.08045c7.53415,-1.05508 10.81029,-3.19567 12.94676,-4.34063c1.93049,-1.03457 2.62203,-1.62174 2.62203,-1.62174l0.60286,2.92326c0,0 -9.52333,5.9209 -16.456,7.41156c-4.07538,0.87627 -8.30924,0.7037 -8.30924,0.7037c0,0 -1.51584,-1.12296 -1.89186,-1.74094c-0.39822,-0.65446 -0.90714,-2.25217 -0.90714,-2.25217c0,0 2.51988,0.15948 11.39259,-1.08304z" fill="#0f1b82" stroke="none" stroke-width="0"/></g><g stroke="#000000"><path d="M275.86553,132.17273c0,0 -55.80597,8.54162 -65.25989,11.78839c-12.33551,4.23639 -24.01157,7.87108 -24.01157,7.87108c0,0 -12.4583,-4.11799 -16.57296,-16.42595c-1.25967,-3.76799 7.38511,-24.09363 8.65103,-26.47055c3.83117,-7.19351 5.68087,-17.20051 16.87983,-21.82277c29.99828,-12.38149 69.38185,-4.93154 77.21161,1.10999c6.88307,5.31105 1.97426,23.19193 1.97426,23.19193z" fill="#ff2d32" stroke-width="3"/><path d="M170.48897,133.14697c-0.58098,-7.65032 18.82416,-43.25946 22.62237,-43.20672c12.88952,0.17897 18.46827,53.49734 18.46827,53.49734l-27.36256,7.84888c0,0 -13.15638,-10.61132 -13.72808,-18.1395z" fill="#ab164a" stroke-width="1.5"/></g></g><g><path d="M167.98907,139.53567c0.58725,-0.89882 10.14746,5.57085 15.16237,12.10407c2.88177,3.75424 1.93418,8.65689 1.82245,11.69958c-0.08562,2.33147 -4.25161,5.66251 -7.26751,6.1614c-4.84548,0.80153 -11.72742,-26.88846 -9.71731,-29.96506z" fill="#fddfbd" stroke="#000000" stroke-width="3"/><path d="M173.56552,161.22848c0,0 1.09617,0.34061 2.967,-0.38585c2.36626,-0.91886 7.43701,-4.57713 7.43701,-4.57713c0,0 1.45291,3.80037 1.42748,4.92075c-0.03471,1.52946 -3.43344,4.72812 -6.17824,6.22552c-1.49587,0.81606 -2.55892,0.34803 -2.7353,0.39776c-0.48231,0.13599 -2.91794,-6.58107 -2.91794,-6.58107z" fill="#f89587" stroke="none" stroke-width="0"/><path d="M175.40086,151.1785c0.02502,-0.5945 8.31999,3.61802 7.90204,4.89988c-0.53943,1.65444 -2.85579,9.31733 -5.01347,7.27131c-0.88122,-0.83561 -3.00697,-9.35719 -2.88856,-12.17119z" fill="#f89587" stroke="#000000" stroke-width="1.5"/></g><g><g data-paper-data="{&quot;index&quot;:null}"><path d="M209.75166,159.82035c-1.61283,2.0337 -5.6752,-6.32224 -6.29725,-5.85868c-0.40884,0.30468 -4.99085,3.25234 -8.67451,6.64891c-3.74422,3.45241 -6.67842,7.94094 -6.83242,7.64576c-0.08378,-0.16059 -3.37286,-14.59218 -2.14851,-15.77485c6.76005,-6.52992 34.00636,-10.65193 34.00636,-10.65193c0,0 -7.98088,15.37712 -10.05366,17.99079z" fill="#50a5eb" stroke="#000000" stroke-width="3"/><path d="M209.51606,148.55449l7.62775,-4.98126l-8.24821,15.45457z" fill="#66ffff" stroke="none" stroke-width="0"/></g><g data-paper-data="{&quot;index&quot;:null}"><path d="M295.42533,162.30316c0,0 -16.63778,-8.13654 -24.86576,-10.656c-0.86797,-0.26579 2.213,-2.75836 0.83703,-3.30524c-7.5973,-3.0196 -24.3437,-6.96339 -32.36924,-8.90613c-0.63104,-0.15276 -2.17864,-0.50995 -2.56449,-0.0623c-2.01337,2.33592 -0.14512,10.83051 -2.19661,10.80709c-2.21872,-0.02532 -4.42619,-1.42204 -6.50162,-3.55714c-3.24606,-3.33938 -5.94694,-6.89157 -5.94694,-6.89157c0,0 7.32006,-10.1042 15.45145,-45.78105c3.11482,1.71347 9.68384,8.84412 11.23001,14.14957c1.40458,4.81962 0.28518,8.75942 0.96162,8.10528c6.71787,-6.49644 19.28762,-11.74651 24.06294,-12.329c8.30325,-1.01283 29.92469,35.74316 29.92469,35.74316c0,0 -14.13541,-2.32995 -22.61548,-1.17016c6.06029,3.70415 14.13326,19.8727 14.59239,23.85348z" fill="#66ffff" stroke="#000000" stroke-width="3"/><path d="M262.76467,129.94419c0,0 8.09108,7.83066 12.15482,12.13666c4.79072,5.07631 15.57212,16.06957 15.57212,16.06957l-18.19728,-7.40576c0,0 2.23791,-1.6037 -0.11193,-3.55807c-1.54477,-1.28479 -4.9346,-1.87598 -9.95892,-3.27588c-3.81223,-1.06218 -20.53864,-5.23397 -25.36836,-6.23481c-0.80494,-0.1668 -1.50084,1.05029 -1.50084,1.05029c0,0 -1.21401,2.13225 -1.41221,3.48603c-0.28856,1.97089 -0.13604,6.48564 -0.13604,6.48564c0,0 -2.86248,-0.92299 -4.23885,-2.06365c-1.94467,-1.61164 -6.32529,-6.6914 -6.32529,-6.6914c0,0 1.56917,-3.07515 3.73247,-7.42112c4.00376,-8.04335 8.87707,-24.17413 10.92823,-36.45796c0.75231,1.55884 6.03156,29.34486 6.03156,29.34486c0,0 8.92762,-3.68003 16.84971,-6.52841c5.15311,-1.85279 10.39805,-3.44501 10.71404,-3.13127c7.41278,3.36334 20.09468,18.95778 20.09468,18.95778c0,0 -18.04574,-3.41596 -23.07706,-4.24715c-2.36232,-0.39026 -5.75087,-0.51535 -5.75087,-0.51535z" fill="#50a5eb" stroke="none" stroke-width="0"/></g></g></g><g data-paper-data="{&quot;index&quot;:null}" stroke="none" stroke-width="0" stroke-linecap="butt"><g fill="#000000"><path d="M189.31709,114.07445c0,0 3.9853,0.34577 11.61775,6.05749c5.06899,3.79337 10.57192,9.0189 16.84891,14.74489c7.6108,6.94273 15.98949,14.55313 21.36171,20.36451c1.66274,-0.59378 2.94332,-2.02336 5.227,-4.18494c4.87079,-4.61036 11.49551,-12.13087 16.3715,-19.02221c5.90369,-8.34381 10.36417,-16.06594 10.36417,-16.06594c0,0 -0.24649,3.42756 -2.61009,8.32365c-6.01359,12.45689 -25.45383,34.24937 -29.01546,34.38504c-0.84565,0.03221 -10.01598,-8.87309 -19.81474,-17.69015c-6.7146,-6.04188 -13.74135,-12.79221 -19.42267,-17.81038c-6.31002,-5.5735 -10.92808,-9.10195 -10.92808,-9.10195z" data-paper-data="{&quot;index&quot;:null}"/><path d="M222.37403,141.61664c0,0 5.79334,4.43769 7.72854,6.60526c1.28168,1.43557 2.75297,5.13482 2.75297,5.13482c0,0 -0.18178,11.04017 -5.44501,10.95182c-2.58701,-0.04343 -2.66413,-2.60449 -3.33449,-7.05981c-0.60492,-4.02035 -2.58697,-12.88733 -4.5562,-16.27533c-0.21106,0.1606 2.85419,0.64324 2.85419,0.64324z" data-paper-data="{&quot;index&quot;:null}"/><path d="M256.46201,149.68993c-0.05689,3.38942 -1.02656,6.86004 -1.85794,9.30034c-1.17213,3.44052 -2.81073,5.85728 -4.54579,6.01101c-0.84709,-0.00906 -1.54172,-0.2399 -1.93838,-1.08554c-1.45635,-3.10482 -0.26129,-10.6197 -0.26129,-10.6197l-0.17512,-5.13511c0,0 6.86189,-6.94887 8.33519,-6.67078c0.54797,0.10343 0.46103,7.14575 0.44334,8.19979z" data-paper-data="{&quot;index&quot;:null}"/></g><g><path d="M246.99235,169.17798c0,0 -5.06197,2.67095 -11.08978,2.91878c-2.39908,0.09864 -16.92804,-0.07687 -22.05695,-1.49552c-2.9867,-0.82612 -4.40261,-8.6578 -4.87465,-10.0795c-0.24004,-0.72297 4.57987,-1.09565 8.50255,-0.12684c1.0145,0.25057 2.91598,0.24482 3.76891,0.75437c0.40421,0.24147 0.67369,0.9903 0.26227,1.24969c-0.76145,0.48008 -2.75139,0.42521 -2.75139,0.42521c0,0 0.83763,1.30702 1.5882,1.88789c2.66084,2.05924 5.50602,3.48742 7.50193,4.51133c5.33794,2.7384 19.14893,-0.0454 19.14893,-0.0454z" fill="#000000"/><path d="M219.29199,169.44972c0,0 -2.98043,-0.47128 -3.91128,-1.08994c-0.73962,-0.49157 -1.60977,-1.96507 -1.60977,-1.96507c-0.72301,-1.71537 -2.13982,-4.53837 -2.13982,-4.53837c0,0 2.54118,0.22068 3.49525,0.2367c0.58272,0.80354 -0.69787,0.86194 0.91434,2.6038c3.04197,3.07879 6.94673,4.71502 6.94673,4.71502c0,0 -2.37095,0.15484 -3.69546,0.03786z" fill="#ffffff"/></g></g><path d="M123,297v-234h234v234z" data-paper-data="{&quot;index&quot;:null}" fill="none" stroke="none" stroke-width="0" stroke-linecap="butt"/><path d="M268.30822,243.46953c-1.54583,-1.62174 -1.4284,-3.69166 -0.83051,-4.98095c0.4597,-0.9913 1.29926,-1.4253 1.29926,-1.4253l4.6875,3.20312c0,0 -3.40409,4.61095 -5.15625,3.20312z" data-paper-data="{&quot;index&quot;:null}" fill="#db93e6" stroke="none" stroke-width="0" stroke-linecap="butt"/><g data-paper-data="{&quot;index&quot;:null}" stroke-linecap="butt"><g><g><path d="M233.21133,247.19185c0,-5.57032 -0.61819,-16.54467 5.74821,-21.07676c1.5861,-1.12911 5.72111,-4.39754 9.30795,-0.937c0.40815,0.39378 -0.70351,1.43681 0.03469,2.89514c0.27249,0.53832 2.07379,0.59449 2.54056,1.2277c1.47451,2.00028 4.621,3.94489 5.29298,3.8648c2.13914,-5.3308 8.72202,-11.76512 10.90538,-12.25849c3.9235,-0.8866 18.80892,2.54184 18.65016,5.5468c0.48034,2.44477 -3.26281,6.47152 -3.26281,6.47152c0,0 15.66088,8.83698 21.52639,12.35397c10.09997,6.05598 10.29097,10.87785 10.29097,10.87785c0,0 0.61078,2.40915 -3.53088,3.62549c-8.11846,2.38426 -18.1886,3.07789 -30.0036,2.75382c-11.47937,-0.31486 -11.12385,-6.39191 -23.16989,-7.72916c-10.15694,-1.12755 -24.33011,1.63472 -24.33011,-7.61567z" fill="#ff2d32" stroke="#000000" stroke-width="3"/><path d="M295.57506,260.94849c0,0 -11.15141,1.20998 -16.76884,0.39128c-5.6682,-0.8261 -13.41066,-6.69712 -18.90847,-7.49418c-11.63503,-1.68681 -18.8781,0.33038 -21.87117,-1.71219c-0.19252,-0.13138 -4.7396,-1.85511 -4.14336,-7.49904c1.43332,-13.5677 7.36401,-15.63295 7.36401,-15.63295c0,0 6.85839,7.77292 14.89532,8.75183c1.574,0.19171 0.48514,-2.59423 0.48514,-2.59423c0,0 -0.22927,-1.33962 0.1438,-2.23173c0.55869,-1.336 2.88252,-5.00511 2.88252,-5.00511c0,0 0.7538,2.00639 2.87038,4.36397c2.55502,2.84593 7.44172,5.59459 12.50053,9.09155c5.62371,3.88745 15.05786,7.27923 17.31599,9.40502c2.45923,2.31509 3.23415,10.16577 3.23415,10.16577z" fill="#ab164a" stroke="none" stroke-width="0"/><path d="M240.38179,234.48749c-1.40582,0 -2.09091,-0.41236 -2.09091,-1.81818c0,-1.40581 0.86691,-1.90909 2.27273,-1.90909c1.40581,0 1.90909,0.41236 1.90909,1.81818c0,1.40581 -0.68509,1.90909 -2.09091,1.90909z" fill="#000000" stroke="none" stroke-width="0"/><path d="M253.65452,232.85112c0,0 1.15302,0.18182 5.09091,2.36364c3.20596,1.77629 5.27273,2.81818 5.27273,2.81818c0,0 -0.53893,1.19559 -5.72727,0.09091c-5.40058,-1.14986 -4.63637,-5.27272 -4.63637,-5.27272z" fill="#000000" stroke="none" stroke-width="0"/></g><g><path d="M265.52265,240.02888c0.82611,-3.46156 3.65928,-5.53372 5.46952,-6.01449c7.67085,-2.03725 13.69935,-1.05195 13.55769,0.57693c-0.25528,2.93517 -5.82,3.173 -9.38125,5.73131c-1.80139,1.29408 -2.34243,2.70116 -3.41519,3.78222c-1.02413,1.03206 -2.76777,2.28183 -4.6074,0.96724c-1.64161,-1.17308 -1.97157,-3.58422 -1.62337,-5.04321z" fill="#feebf7" stroke="#000000" stroke-width="2.5"/><path d="M268.12145,237.76963c0,0 0.84208,0.13195 2.33606,0.88289c1.95948,0.98492 2.63269,2.05461 2.63269,2.05461c0,0 -0.73113,0.80278 -1.43566,1.63622c-0.90736,1.07338 -1.24776,2.48878 -2.34559,2.48878c-1.95026,0 -3.03125,-1.70038 -3.03125,-3.875c0,-2.17462 1.84375,-3.1875 1.84375,-3.1875z" fill="#db93e6" stroke="none" stroke-width="0"/></g><g><path d="M274.94966,249.1308c-0.54826,-0.66969 0.65488,-4.95073 3.74974,-8.03212c7.35293,-7.32093 10.90641,-7.187 12.29277,-4.76984c1.25438,2.18705 -4.20064,5.12286 -8.02524,8.98737c-3.41393,3.44954 -6.92085,5.15385 -8.01727,3.81458z" fill="#feebf7" stroke="#000000" stroke-width="2.5"/><path d="M276.19847,248.77755c-0.74376,-0.25819 -0.19492,-3.4362 0.12184,-3.96079c0.84741,-1.40342 2.14434,-1.85743 2.14434,-1.85743l3.42949,1.70373c0,0 -0.93125,1.28302 -1.60733,1.84774c0,0 -2.88472,2.68458 -4.08834,2.26675z" fill="#db93e6" stroke="none" stroke-width="0"/></g><g><path d="M296.43032,239.23795c2.92548,2.30715 -2.77697,3.38954 -6.24837,7.58739c-3.06568,3.70723 -4.07173,8.02661 -7.40333,6.19242c-2.77391,-1.52716 9.33535,-17.18386 13.6517,-13.77981z" fill="#ffffff" stroke="#000000" stroke-width="2.5"/><path d="M283.01674,251.62392c0,-1.74315 3.30779,-4.65713 3.30779,-4.65713l0.98804,1.70296c0,0 -1.15513,3.00289 -2.38984,3.97871c-1.02737,0.81195 -1.90599,0.02052 -1.90599,-1.02455z" fill="#db93e6" stroke="none" stroke-width="0"/></g></g><g><path d="M264.03907,265.08156c-10.74446,-1.13491 -29.04587,-1.59303 -32.33111,-4.89641c-3.00534,-3.02193 -4.20441,-12.08654 0.24164,-12.72341c0.97474,6.04002 6.42167,6.54871 10.69051,6.65282c5.16653,0.12601 12.28277,0.00423 17.9317,1.10901c10.00401,1.95652 15.40332,7.41941 23.03653,7.41941c13.12177,0 22.01074,-1.54908 26.98465,-3.24272c2.70089,-0.91967 3.56499,-2.33689 4.88855,-2.52987c1.73253,-0.25261 3.61067,3.91774 3.61067,3.91774c0,0 0.01894,4.16616 -4.40102,6.94262c-4.62629,2.90607 -14.02312,4.42835 -29.14737,4.42835c-6.09198,0 -14.20739,-6.30674 -21.50475,-7.07754z" fill="#ffffff" stroke="#000000" stroke-width="3"/><path d="M231.67284,247.32037c0,0 -0.38155,1.63918 1.34465,3.79532c1.12449,1.40458 2.88833,3.09793 7.39413,4.17888c3.95604,0.94906 17.60686,0.14278 20.85701,1.03338c4.4966,1.23215 7.51839,3.05135 11.15463,4.65222c1.42164,0.62589 2.93721,1.51392 4.67156,1.8766c7.05837,1.476 9.77755,1.10286 12.73095,0.96282c4.39942,-0.20861 7.05074,-0.75045 7.05074,-0.75045c0,0 0.9676,1.78143 0.44149,3.74862c-0.52611,1.96719 -1.99515,3.27412 -1.99515,3.27412c0,0 -4.45561,2.53125 -12.69397,0.17262c-4.67243,-1.33771 -5.7333,-1.6643 -14.63008,-5.63354c-4.60403,-2.05406 -27.24473,-2.31631 -31.39808,-4.02551c-1.22577,-0.50443 -3.21171,-0.58795 -3.94064,-0.98499c-2.46728,-1.34388 -1.47634,-2.63194 -2.06128,-4.592c-1.09322,-3.66325 1.07405,-7.70807 1.07405,-7.70807z" fill="#db93e6" stroke="none" stroke-width="0"/></g></g><g data-paper-data="{&quot;index&quot;:null}" stroke-linecap="butt"><path d="M165.85554,246.92218c2.64477,-3.00431 10.52321,-7.6742 16.82677,-9.25307c-4.38045,-2.54844 -10.5701,-4.36119 -10.72119,-6.23216c-0.47397,-5.86922 1.13771,-6.26344 3.19003,-7.75556c1.70991,-1.24318 15.70767,6.59056 15.70767,6.59056c0,0 0.99199,-4.97604 5.44195,-6.06594c3.81764,-0.93504 12.00858,1.84424 17.24505,3.37733c3.4597,1.0129 7.14997,2.65331 8.49831,5.49834c0.84236,1.77739 -0.82923,6.01807 0.72204,4.80883c3.93607,-3.0682 13.4911,-3.0867 16.13211,-0.95084c2.3118,1.86962 3.48125,6.97852 2.57305,9.29688c-0.38372,0.97954 -12.01845,0.17924 -11.80397,1.20278c0.42525,2.02935 -3.03938,4.64914 -2.73363,6.31211c0.80826,4.39621 2.30417,6.8472 2.30417,6.8472c0,0 1.59722,6.42873 -1.87145,9.35893c-4.45741,3.76544 -15.36465,4.24401 -28.4962,4.24401c-23.35027,0 -43.18873,-15.72234 -33.0147,-27.27942z" fill="#ff2d32" stroke="#000000" stroke-width="2.5"/><path d="M224.98704,244.49162c0,0 1.51316,-2.39713 6.5625,-3.375c4.51815,-0.875 8.4375,-0.75 8.4375,-0.75c0,0 0.37918,1.88595 0.66248,2.80422c0.31706,1.02772 -0.32057,2.67863 -0.32057,2.67863c0,0 -3.70615,0.46822 -8.71696,0.1368c-1.73303,-0.11462 -2.51784,0.40587 -3.36446,0.40468c-1.14157,-0.00161 -2.30162,-0.5092 -2.86707,-1.0438c-0.41413,-0.39154 -0.39341,-0.85552 -0.39341,-0.85552z" fill="#ab164a" stroke="none" stroke-width="0"/><path d="M191.5491,232.40702c-0.22628,-3.1847 2.56632,-6.4027 4.7432,-7.01149c3.67432,-1.02757 13.4135,2.2836 13.4135,2.2836c0,0 0.44591,4.19484 0.67598,6.14083c0.26499,2.24132 0.35527,6.85917 0.35527,6.85917c0,0 -15.34268,0.38603 -18.81697,0.32135c-1.12836,-0.02101 -3.89355,0.82009 -3.89355,0.82009c0,0 -2.03197,-2.82431 -4.12536,-4.47974c-1.71399,-1.3554 -5.13819,-2.23261 -5.1483,-2.72304c-0.0043,-0.20842 -4.09946,-1.33544 -5.62422,-3.02815c-1.47696,-1.63964 -0.10524,-4.83177 0.74795,-4.74035c2.03331,0.21787 13.23545,7.32984 13.23545,7.32984c0,0 3.08582,-0.09205 4.43705,-1.77211z" fill="#ab164a" stroke="none" stroke-width="0"/><path d="M177.06741,234.23826c0,0 -1.96259,-1.30903 -2.8816,-2.44406c-0.8907,-1.10008 -0.74696,-2.02588 -0.2434,-2.10952c2.86069,-0.47516 4.66995,2.26637 5.37945,3.93806c0.255,0.60082 0.37948,1.82088 0.37948,1.82088c0,0 -1.26201,-1.20535 -2.63393,-1.20535z" fill="#000000" stroke="none" stroke-width="0"/><path d="M232.46919,243.65792c0.08928,-0.86966 0.82736,-0.75893 3.16964,-0.75893c2.96728,0 3.70536,0.24641 3.70536,2.45535c0,1.62521 -2.29617,0.52367 -4.18249,-0.07518c-1.58725,-0.5039 -2.83218,-0.26086 -2.69251,-1.62125z" fill="#000000" stroke="none" stroke-width="0"/><path d="M168.0928,253.7841c0.41035,1.39379 1.94289,4.05178 1.94289,4.05178c0,0 0.8741,-1.45998 1.76815,-2.61149c0.41095,-0.5293 0.33317,-1.19061 1.05509,-1.26362c4.81087,-0.48655 15.12922,2.25199 23.50312,3.15586c25.47743,2.75 29.375,12.9375 29.375,12.9375c0,0 -6.39757,4.5625 -30.125,3.3125c-7.34517,-0.38695 -15.69153,-1.61416 -21.78557,-4.67929c-5.86,-2.94741 -8.21622,-5.2804 -10.30166,-11.49954c-1.15427,-3.44225 1.00768,-7.16821 2.5526,-8.86382c0.6586,-0.72284 1.40963,-0.76985 1.40963,-0.76985c0,0 0.16829,4.74408 0.60575,6.22997z" fill="#ab164a" stroke="none" stroke-width="0"/><g><path d="M156.2569,252.48996c-0.06649,-0.54091 7.36193,-4.42034 7.36193,-4.42034c0,0 -2.02945,5.02166 0.22929,10.46884c2.59644,6.2616 10.56318,13.17005 28.85616,15.06992c10.15726,1.05492 29.1643,0.54081 35.40837,-4.89204c1.91234,-1.6639 3.11381,-4.88147 2.32863,-7.41815c-0.98738,-3.18995 -2.35631,-5.08282 -0.89023,-5.43345c2.28393,-0.54622 4.86375,5.57813 4.86375,8.99365c0,4.03946 -1.07829,7.26345 -3.98861,10.15298c-6.48759,6.44125 -19.33191,7.80755 -35.48507,7.80755c-14.39745,0 -38.03141,-14.17678 -38.58428,-15.71229c-0.17861,-0.49608 0.51231,-9.63595 -0.09993,-14.61665z" fill="#ffffff" stroke="#000000" stroke-width="2.5"/><path d="M157.83585,255.18733c0,0 6.43027,20.63434 31.97368,23.68421c39.67222,4.73684 42.89474,-9.07895 42.89474,-9.07895c0,0 -0.97925,3.42645 -6.44046,6.90981c-5.12151,3.26669 -14.11942,7.19446 -35.39506,4.64283c-10.35323,-1.24167 -19.07184,-5.60413 -24.72629,-9.08049c-5.39703,-3.3181 -8.76287,-5.81736 -8.76287,-5.81736l0.45627,-11.26004z" fill="#db93e6" stroke="none" stroke-width="0"/></g><g><g><path d="M183.8842,243.80852c-0.02614,-0.5318 5.80257,-5.02211 16.45373,-4.65839c17.226,0.58823 22.0876,11.03656 21.55178,12.30545c-1.07843,2.55385 -8.83558,-5.63573 -22.43413,-6.8122c-10.61771,-0.91859 -15.49801,0.65873 -15.57139,-0.83487z" fill="#ffffff" stroke="#000000" stroke-width="2"/><path d="M189.23585,243.23916l-1.26122,-1.37255c0,0 4.88794,-2.31743 7.61649,-2.28441c8.75905,0.10601 12.86042,1.89226 12.86042,1.89226l-2.45098,3.43137z" fill="#db93e6" stroke="none" stroke-width="0"/></g><g><path d="M178.53629,249.13064c-0.20504,-0.28314 -0.58154,-1.80734 2.94662,-2.87414c2.97823,-0.90052 9.3869,-1.39056 14.45534,-1.39056c11.07276,0 24.15277,7.1031 23.28431,10.93138c-0.49019,2.16085 -10.54487,-3.97059 -21.61764,-3.97059c-11.07277,0 -18.46115,-1.8572 -19.06863,-2.69608z" fill="#ffffff" stroke="#000000" stroke-width="2"/><path d="M201.07202,251.00254c0,0 -3.62932,-0.24947 -4.83843,-0.28906c-1.1929,-0.03906 -2.79201,0.2226 -2.79201,0.2226l-2.52576,-5.07146c0,0 5.12937,-0.33219 7.4043,0.01229c4.44348,0.67285 5.65319,1.10104 5.65319,1.10104l-2.9013,4.02459z" fill="#db93e6" stroke="none" stroke-width="0"/></g><path d="M174.71274,253.59144c0,-0.67973 0.29446,-2.88866 3.35993,-3.06372c3.77895,-0.21581 10.80861,1.10294 17.66949,1.10294c6.74783,0 13.67793,1.91675 17.61696,3.98355c3.31486,1.7393 4.19677,3.52765 4.19677,4.93802c0,3.08629 -11.83831,-4.70588 -24.26471,-4.70588c-12.42641,0 -18.57843,-0.05096 -18.57843,-2.25491z" fill="#ffffff" stroke="#000000" stroke-width="2"/></g></g><g data-paper-data="{&quot;index&quot;:null}" stroke="none" stroke-width="0" stroke-linecap="butt"><path d="M180.94286,222.78112c0,-4.94467 2.52216,-7.81014 5.58022,-7.79752c1.71079,0.00706 2.71053,2.75229 5.6575,2.09021c3.58691,-0.80586 6.44077,-5.88542 9.57623,-6.09502c3.47882,-0.23256 8.48837,7.15116 8.48837,7.15116c0,0 -1.25578,7.24368 -3.29961,13.1826c-2.14956,6.24612 -5.27473,11.0808 -8.09574,10.82903c-3.02182,-0.2697 -17.90698,-8.28267 -17.90698,-19.36047z" fill="#0066cc"/><path d="M208.23828,226.13957c0,0 -1.35681,3.64847 -1.91893,5.62382c-1.23695,4.34678 -4.19855,10.30553 -7.81836,10.14563c-2.09459,-0.09252 -5.9671,-2.74267 -10.28318,-7.114c-2.90508,-2.94227 -6.77886,-6.68702 -7.55108,-10.87079c-0.19788,-1.07207 1.67147,-2.52083 1.67147,-3.64312c8.3721,7.99101 12.67433,14.83164 14.06977,14.53488z" fill="#0f1b82"/><path d="M211.40795,219.46716c0,0 -6.82139,-7.51955 -8.95348,-8.02326c-0.44284,-0.10462 -6.9719,5.1264 -9.95578,6.36853c-0.52399,0.21812 -2.02085,0.28816 -3.24064,-0.26406c-1.04531,-0.47323 -1.76359,-1.49611 -2.88386,-2.23027c-0.79095,0.3369 -5.34731,7.79713 -5.34731,7.79713c0,0 10.15371,17.7934 17.02382,18.25463c1.76779,0.11868 4.46653,-2.01639 6.08241,-5.30912c1.23072,-2.50789 2.29266,-5.90987 3.26173,-8.23257c0.88496,-2.12109 1.73348,-3.28062 1.73348,-3.28062c0,0 -0.71678,4.27362 -1.94516,8.77795c-1.35658,4.97446 -5.21394,10.80438 -9.56844,9.88657c-1.01643,-0.21424 -4.79498,-1.84776 -7.41557,-4.39167c-5.60244,-5.43852 -11.30969,-14.20756 -11.38218,-16.32489c-0.03737,-1.09156 1.92615,-3.43381 2.78561,-4.67325c1.1573,-1.66896 2.46483,-3.8608 5.17912,-4.46287c1.44058,-0.31954 3.3672,2.48002 4.80539,2.07894c4.54026,-1.2662 8.96448,-7.13396 11.56507,-6.78512c2.60059,0.34883 8.25581,10.81395 8.25581,10.81395z" fill="#000000"/></g></g></g></svg>