<svg version="1.1" xmlns="http://www.w3.org/2000/svg" xmlns:xlink="http://www.w3.org/1999/xlink" width="32.18687" height="38.61581" viewBox="0,0,32.18687,38.61581"><g transform="translate(-283.92783,-159.7995)"><g data-paper-data="{&quot;isPaintingLayer&quot;:true}" fill-rule="nonzero" stroke-linejoin="miter" stroke-miterlimit="10" stroke-dasharray="" stroke-dashoffset="0" style="mix-blend-mode: normal"><path d="M305.16286,197.76718c-7.20629,-1.20614 -14.19081,-2.3973 -16.93579,-3.50181c-2.50873,-1.00945 -3.00183,-2.7921 -3.00183,-2.7921c0,0 -0.78789,-1.6346 -0.6769,-2.55585c0.333,-2.76371 1.6526,-10.60272 3.41512,-17.25031c0.05882,-0.22186 0.09992,-0.34442 0.17185,-0.56239c0.21579,-0.65389 1.16651,-3.17189 1.16651,-3.17189c0,0 2.07413,-0.64976 3.1555,-0.74798c3.2441,-0.29464 10.94971,1.99213 19.18641,3.71477c0.74656,0.15614 1.85491,1.38586 1.85491,1.38586c0,0 0.58448,2.03062 0.34543,3.20557c-1.54543,7.5963 -3.28329,15.99538 -3.80685,17.89311c-0.17452,0.63258 -1.71234,2.93109 -1.71234,2.93109z" fill="#582600" stroke="#000000" stroke-width="1.25" stroke-linecap="round"/><path d="M307.76393,185.63801c0.41516,-2.04065 0.99679,-3.64507 1.2991,-3.58355c0.30232,0.06149 0.21083,1.76563 -0.20431,3.80628c-0.41516,2.04065 -0.99679,3.64508 -1.2991,3.58356c-0.30232,-0.06149 -0.21083,-1.76563 0.20431,-3.80629z" fill="none" stroke="#000000" stroke-width="1.25" stroke-linecap="butt"/><path d="M303.87011,185.27621c0.42284,-2.07844 0.94946,-3.72595 1.17618,-3.67983c0.22673,0.04612 0.06776,1.76844 -0.35509,3.84687c-0.42284,2.07844 -0.94944,3.72595 -1.17617,3.67982c-0.22673,-0.04612 -0.06776,-1.76843 0.35508,-3.84687z" fill="none" stroke="#000000" stroke-width="1.25" stroke-linecap="butt"/><path d="M288.59577,167.49551l1.58928,-7.69601l25.92965,5.35465l-1.58928,7.69601z" fill="#000000" stroke="none" stroke-width="0" stroke-linecap="butt"/><g data-paper-data="{&quot;index&quot;:null}" stroke="#000000" stroke-width="0.625" stroke-linecap="butt"><g data-paper-data="{&quot;index&quot;:null}" fill="#000000"><path d="M292.28682,188.09635c4.77109,1.26135 2.62588,2.87199 2.62588,2.87199l-6.35852,-1.705c0,0 -1.35927,-2.46219 3.73264,-1.167z"/></g><g data-paper-data="{&quot;index&quot;:null}" fill="#ffffff"><path d="M292.28681,188.09634c0.97594,0.25801 1.66248,0.53064 2.13719,0.8011c0.00851,0.00485 -0.45665,0.33079 -0.56818,0.73278c-0.13617,0.49082 0.07509,1.07485 0.07361,1.07446c-1.07351,-0.28786 -5.37525,-1.44133 -5.37525,-1.44133c0,0 -1.35927,-2.46219 3.73264,-1.167z"/></g></g><path d="M303.66219,183.29707c-0.1115,0.29532 -0.25667,0.4902 -0.41266,0.55834c-0.22053,0.1186 -0.53854,0.06796 -0.76462,-0.90508c-0.00394,-0.01678 -0.00779,-0.03368 -0.01153,-0.05074c-0.21874,-0.9865 -0.0816,-1.73026 0.06597,-2.17181c0.0737,-0.23896 0.16742,-0.42609 0.27214,-0.55104l0.57328,-0.77449c0.80149,-0.46772 1.60153,-0.80866 2.39147,-1.39413c0,0 0.72132,-0.53185 0.92674,1.33562c0.20543,1.86748 -0.51589,2.3993 -0.51589,2.3993c-0.81795,0.60025 -1.6433,0.96255 -2.47212,1.44736z" data-paper-data="{&quot;index&quot;:null}" fill="#582600" stroke="none" stroke-width="0.5" stroke-linecap="butt"/><path d="M307.35631,180.26823c0.16093,-0.9123 0.77684,-0.82563 0.77684,-0.82563l0.75736,0.21428c1.11722,1.02796 1.48663,1.40178 1.49596,2.54213l0.20557,-0.00516l0.01151,1.26487c0.00077,0.04642 -0.00002,0.09337 -0.00244,0.14073c-0.03498,0.6852 -0.39793,1.19359 -0.81066,1.13552c-0.15704,-0.0221 -0.29865,-0.12302 -0.41192,-0.27731l-0.60434,-0.79907c-0.45926,-0.4164 -0.91065,-0.85693 -1.35732,-1.30951c0,0 -0.6401,-0.64891 -0.24923,-1.71157c0.05833,-0.1586 0.12221,-0.27906 0.18869,-0.36925z" data-paper-data="{&quot;index&quot;:null}" fill="#582600" stroke="none" stroke-width="0.5" stroke-linecap="butt"/><path d="M303.9807,189.45566c0,0.76564 -0.74481,1.38631 -1.66357,1.38631c-0.91877,0 -1.66357,-0.62067 -1.66357,-1.38631c0,-0.76564 0.74481,-1.38631 1.66357,-1.38631c0.91877,0 1.66357,0.62067 1.66357,1.38631z" fill="#00c1ff" stroke="#000000" stroke-width="0.625" stroke-linecap="butt"/><path d="M310.53337,190.35218c0,0.76564 -0.74481,1.38631 -1.66357,1.38631c-0.91877,0 -1.66357,-0.62067 -1.66357,-1.38631c0,-0.76564 0.7448,-1.38631 1.66357,-1.38631c0.91877,0 1.66357,0.62067 1.66357,1.38631z" fill="#00c1ff" stroke="#000000" stroke-width="0.625" stroke-linecap="butt"/></g></g></svg>