<svg version="1.1" xmlns="http://www.w3.org/2000/svg" xmlns:xlink="http://www.w3.org/1999/xlink" width="306.30631" height="274.77477" viewBox="0,0,306.30631,274.77477"><g transform="translate(-86.84686,-42.61264)"><g data-paper-data="{&quot;isPaintingLayer&quot;:true}" fill-rule="nonzero" stroke-linecap="butt" stroke-linejoin="miter" stroke-miterlimit="10" stroke-dasharray="" stroke-dashoffset="0" style="mix-blend-mode: normal"><path d="M86.84686,317.38741v-274.77477h306.30631v274.77477z" data-paper-data="{&quot;index&quot;:null}" fill="none" stroke="none" stroke-width="0"/><text transform="translate(271.55604,110.72268) rotate(-180) scale(0.1602,-0.1602)" font-size="40" xml:space="preserve" data-paper-data="{&quot;index&quot;:null}" fill="#000000" fill-rule="nonzero" stroke="none" stroke-width="1" stroke-linecap="butt" stroke-linejoin="miter" stroke-miterlimit="10" stroke-dasharray="" stroke-dashoffset="0" font-family="Sans Serif" font-weight="normal" text-anchor="start" style="mix-blend-mode: normal"><tspan x="0" dy="0">AwezomeXD</tspan><tspan x="0" dy="46.150000000000006px"> </tspan><tspan x="0" dy="46.150000000000006px">MeIzAwezomeDede</tspan></text><g data-paper-data="{&quot;index&quot;:null}"><g><g><g><path d="M203.40237,122.51173c0,0 -2.10218,-11.9587 6.14441,-15.81128c5.85378,-2.73471 21.07013,3.81639 32.12696,3.86321c12.56905,0.05322 36.30102,-0.83199 36.30102,-0.83199c0,0 4.98719,3.49502 6.96318,3.57398c2.46724,0.09858 5.23948,-3.12044 5.23948,-3.12044c0,0 0.20817,4.15944 -0.30907,7.47936c-1.94827,12.50492 -11.82078,11.53152 -11.82078,11.53152c0,0 3.30179,6.08611 3.01884,10.37671c-0.29746,4.51022 -4.18999,6.56576 -4.18999,6.56576c0,0 2.11092,3.74254 1.89629,7.33201c-0.1417,2.36964 -1.03708,6.19662 -1.62981,8.57914c-1.01144,4.06573 5.95246,8.84477 5.95246,8.84477c0,0 -4.29457,2.85077 -7.11199,3.09272c-2.86768,0.24625 -8.86054,-3.38054 -8.86054,-3.38054c0,0 -2.52326,0.39383 -3.2957,3.15564c-0.2435,0.87063 -0.18469,2.93389 -0.13865,3.88372c0.15532,3.20379 -2.03378,5.24062 -2.03378,5.24062c0,0 -1.1622,-3.59105 -1.8742,-4.52619c-0.52257,-0.68635 -1.10312,-0.93912 -1.10312,-0.93912c0,0 -1.83999,4.169 -1.71947,6.67944c0.26805,5.58373 1.56604,12.60342 0.30171,12.61472c-2.28613,0.02041 -4.5249,-4.15184 -7.06825,-4.8291c-2.34091,-0.62335 -4.09916,-7.2277 -4.09916,-7.2277c0,0 -2.66699,6.56527 -5.58012,7.12144c-2.82691,0.53974 -4.98066,5.49876 -6.1531,5.5027c-4.27394,0.01439 -7.76271,-13.38525 -7.76271,-13.38525c0,0 -12.95624,7.17007 -15.49354,4.37777c-2.99461,-3.2956 -2.37054,-19.20238 -2.37054,-19.20238c0,0 -5.01238,-5.15425 -5.14774,-8.01178c-0.30395,-6.4175 3.37692,-11.09561 3.37692,-11.09561c0,0 -3.23158,0.00392 -4.92665,0.99763c-1.8017,1.05625 -5.58322,5.16364 -5.58322,5.16364c0,0 -0.65514,-5.70057 0.06919,-8.32734c0.76175,-2.76235 4.39469,-7.86046 4.39469,-7.86046c0,0 -4.32158,-4.05055 -5.65076,-9.43798c-0.71239,-2.8874 0.79022,-8.77439 0.79022,-8.77439c0,0 3.80336,4.34389 5.50034,5.09098c1.31638,0.57953 1.66658,-2.41416 1.66658,-2.41416z" fill="#6d0f0a" stroke="#000000" stroke-width="2"/><path d="M206.1317,117.27963c-2.088,0.85652 -3.23381,-0.1428 -3.23381,-0.1428c0,0 -2.59337,-8.0428 0.31282,-17.87092c1.57336,-5.32075 6.78322,-11.68993 10.0064,-16.12513c4.56776,-6.28532 13.33642,-8.65313 20.55449,-8.62257c9.48865,0.04018 15.29576,9.9625 15.29576,9.9625c0,0 10.06569,-3.37156 17.19912,-1.17831c6.89151,2.11883 11.2134,10.40083 12.42833,12.46486c1.85089,3.14446 2.62567,17.09087 2.62567,17.09087c0,0 -28.75368,19.85515 -43.79278,19.79144c-16.06631,-0.06804 -25.46181,-17.8042 -31.396,-15.36995z" fill="#6d0f0a" stroke="#000000" stroke-width="2"/><path d="M210.71386,87.70586c0,0 2.36982,-2.96196 3.58916,-4.23817c1.16332,-1.21755 3.56673,-3.25151 3.56673,-3.25151c0,0 7.76446,6.74984 12.02079,8.49311c4.46025,1.8268 12.25961,0.42672 12.25961,0.42672c0,0 -0.14151,2.31617 0.03332,3.27688c0.18483,1.01573 0.57242,2.6596 0.57242,2.6596c0,0 1.37268,-1.74514 1.76347,-2.50286c0.42207,-0.81841 1.15859,-2.5542 1.15859,-2.5542c0,0 1.40742,3.88867 2.07977,5.353c0.55059,1.19915 1.66252,2.79743 1.66252,2.79743c0,0 0.10952,-2.13094 0.08409,-3.24307c-0.02695,-1.17744 -0.24153,-3.6368 -0.24153,-3.6368c0,0 9.14258,5.09979 14.91265,7.18308c0.11584,0.04181 4.72261,0.29945 5.06099,0.36616c7.2756,1.43452 5.49868,-8.0526 5.49868,-8.0526c0,0 2.54948,3.64931 3.43239,6.77163c0.89549,3.16682 1.90328,12.09769 1.90328,12.09769c0,0 -5.08661,-3.50128 -10.06805,-4.34486c-0.88394,-0.1497 -10.53116,-1.24001 -10.53116,-1.24001c0,0 -1.27961,-2.24459 -1.98833,-3.19427c-0.69449,-0.93063 -2.22213,-2.4478 -2.22213,-2.4478c0,0 -1.32077,1.78242 -1.98597,2.89271c-0.7992,1.33388 -2.48127,4.56357 -2.48127,4.56357c0,0 -0.76302,-1.92473 -1.34718,-2.96677c-0.64986,-1.15929 -2.37581,-3.67479 -2.37581,-3.67479c0,0 -1.34467,0.37353 -2.09617,0.81064c-1.04326,0.60683 -3.58045,2.49115 -3.58045,2.49115c0,0 -0.5849,-2.91696 -0.98848,-4.22337c-0.34917,-1.13029 -1.29352,-3.16367 -1.29352,-3.16367c0,0 -1.70858,1.0332 -2.61978,1.73367c-1.13707,0.87412 -3.67639,3.10627 -3.67639,3.10627c0,0 -6.70648,-8.39457 -10.50467,-10.5063c-3.55285,-1.97534 -11.59761,-1.78219 -11.59761,-1.78219z" fill="#c42d06" stroke="none" stroke-width="0"/></g><path d="M223.24021,134.72763c0,0 -17.8234,-7.62444 -18.06124,-9.06882c-0.04125,-0.25057 3.40358,-8.58419 3.24702,-9.47667c-0.28598,-1.6302 -4.77038,-0.87095 -4.77038,-0.87095c0,0 64.46053,-3.34093 74.52366,-3.44661c2.56369,-0.02691 4.98057,2.61669 4.98057,2.61669l-13.2435,18.11074z" fill="#6d0f0a" stroke="none" stroke-width="NaN"/></g><path d="M250.18769,85.85699c0,0 -4.10119,-2.10369 -1.93636,-7.50833c0.11408,-0.28477 0.87951,-1.40045 1.12706,-1.63932c1.89694,-1.83033 6.86212,-1.64957 6.86212,-1.64957c0,0 -3.47561,4.24151 -4.61793,5.69395c-1.01818,1.29461 -1.43488,5.10328 -1.43488,5.10328z" fill="#6d0f0a" stroke="#000000" stroke-width="1.5"/><path d="M245.87661,74.49494c0,0 1.24901,1.16275 1.51803,2.93328c0.31818,0.8973 0.30002,3.78247 0.30002,3.78247l-1.76566,-1.27102z" fill="#000000" stroke="none" stroke-width="0"/></g><path d="M249.4846,84.30565l3.75835,0.35741c0,0 -3.28912,4.06625 -3.82082,4.18019c-0.74437,0.15952 -2.7808,-5.39829 -2.7808,-5.39829z" fill="#6d0f0a" stroke="none" stroke-width="0"/></g><path d="M256.2808,158.11394c-2.8576,-2.66303 14.79875,-1.09104 14.79875,-1.09104c0,0 -1.04668,7.29658 -5.86596,7.72655c-0.71551,0.085 -1.7737,-0.02826 -2.67193,-0.55968c-2.80558,-1.65986 -5.80176,-5.64801 -6.26086,-6.07584z" data-paper-data="{&quot;index&quot;:null}" fill="#fb95a9" stroke="#000000" stroke-width="2"/><g data-paper-data="{&quot;index&quot;:null}"><path d="M229.76574,132.00554c2.41131,-2.95149 10.53162,-0.25987 12.59919,3.86227c0.26008,0.51854 1.70637,-0.66733 5.40284,0.98163c0.86997,0.38809 5.76087,2.42654 8.41284,5.62037c1.26983,1.52929 1.69603,4.4245 1.54261,5.46051c-0.22905,2.80784 -2.67033,5.18657 -4.85989,7.14774c-2.87249,2.57284 1.75248,7.33006 -2.40533,7.33006c-3.03121,0 -16.54137,0.60747 -18.69314,-0.7284c-1.28409,-0.79719 -0.53199,-7.61244 -0.88049,-9.01861c-0.48674,-1.96396 -4.99822,-4.40189 -4.99822,-6.61256c0,-2.58633 2.29137,-12.099 3.87959,-14.04301z" fill="#ee1536" stroke="#000000" stroke-width="2"/><path d="M245.87773,152.19464c0,-3.14019 3.56399,-6.94934 7.26523,-7.10728c1.42906,-0.06098 2.65733,0.06996 3.18396,0.81425c0.66164,0.93511 0.38103,2.67311 -0.13046,4.34512c-1.10558,3.61402 -4.40634,5.42259 -7.63376,5.42259c-0.06272,0 2.08362,-1.58996 2.84464,-0.28992c1.01358,1.73146 0.66979,6.51156 0.03616,6.86773c-2.98614,1.67855 -13.402,-0.74155 -16.31172,-0.67209c-0.60085,0.01435 -2.90823,0.59035 -3.45604,-1.26733c-0.44915,-1.5231 0.38106,-5.65028 0.34354,-5.65555c-0.60286,-0.08461 -1.36799,-4.06688 -1.36799,-4.06688c0,0 -2.86476,-2.27685 -2.9505,-2.85725c-0.15338,-1.03828 2.10836,-2.8435 2.10836,-2.8435c0,0 1.25189,1.00644 1.97555,1.57762c0.66583,0.52553 1.57561,2.98741 1.57561,2.98741c0,0 4.12841,-5.5717 8.29185,-4.21031c5.58397,1.82588 4.22558,7.21129 4.22558,6.95539z" fill="#9a1652" stroke="none" stroke-width="0"/><path d="M232.38807,161.18462c0.86132,-1.55025 8.52088,-5.58592 9.70316,-7.17085c2.60911,-3.4977 4.57621,-6.08348 4.57621,-6.08348c0,0 0.91108,5.32297 -0.66029,9.58239c-1.16307,3.15265 6.61433,5.47453 5.8723,5.47453c-1.74455,0 -20.27813,-0.38656 -19.49138,-1.80259z" fill="#000000" stroke="none" stroke-width="0"/></g><g data-paper-data="{&quot;index&quot;:null}"><path d="M233.74863,141.8992c1.04899,5.04395 -1.7023,18.56357 -1.7023,18.56357c0,0 -0.21844,1.38755 -0.90199,2.66965c-0.38029,0.71328 -0.56545,1.35525 -1.74929,1.80012c-0.79181,0.29757 -3.51708,0.29898 -4.68626,-0.65554c-1.02337,-0.83547 -1.30849,-3.14919 -1.4299,-3.9125c-0.48148,-3.02703 -0.13874,-7.37128 -0.74681,-12.31579c-0.75607,-6.14796 -2.2723,-13.52452 -1.83918,-15.98046c0.11174,-0.63357 1.12798,0.11567 1.40673,0.05331c1.2249,-0.274 1.91124,0.16959 3.7447,1.03483c3.12716,1.47574 6.98919,4.43335 7.82816,8.46741z" fill="#ffd5d5" stroke="#000000" stroke-width="2"/><path d="M231.01974,161.58041c-0.50276,1.28299 -1.11227,2.12069 -1.83597,2.36031c-1.30281,0.43137 -3.40945,0.42729 -4.23474,-0.71747c-1.98619,-2.75507 -0.98242,-12.27929 -0.98242,-12.27929l7.75853,5.89219c0,0 0.10372,2.67953 -0.7054,4.74426z" fill="#fb95a9" stroke="none" stroke-width="0"/></g><g data-paper-data="{&quot;index&quot;:null}"><g><path d="M305.15075,281.2039c-0.98651,-0.33862 -2.85622,-1.06736 -2.85622,-1.06736l2.02696,-63.81123c0,0 3.16296,-3.46974 4.83842,-5.17349c1.81091,-1.84148 6.91914,-6.0011 6.91914,-6.0011c0,0 6.01725,0.18197 11.22884,1.77723c7.49136,2.29308 29.41663,10.66422 29.41663,10.66422c0,0 -0.29515,23.3032 -1.13439,34.42755c-0.75693,10.03323 -3.67963,29.38367 -3.67963,29.38367c0,0 -14.50168,1.49922 -21.89596,1.61371c-7.25056,0.11226 -22.04702,-0.93333 -22.04702,-0.93333c0,0 -1.92108,-0.57244 -2.81678,-0.87988z" fill="#434253" stroke="#000000" stroke-width="2.5"/><path d="M306.59659,282.07686c0,0 3.23545,-16.55371 5.33739,-30.5263c1.50254,-9.98814 2.07083,-18.56859 2.09142,-19.2474c0.15709,-5.17871 -0.37711,-9.6264 -0.00092,-14.89447c0.50457,-7.06602 1.1958,-11.58007 1.1958,-11.58007l2.12747,-1.24515c0,0 -1.19498,18.38091 -2.96857,35.7325c-0.74127,7.25212 -2.80838,22.50715 -3.80377,32.05655c-0.10938,1.04936 0.51143,2.42133 0.41165,3.37795c-0.55725,5.34269 -0.94516,6.33045 -0.94516,6.33045l-3.44531,-0.00408z" fill="#000000" stroke="none" stroke-width="0"/></g><g stroke="#000000" stroke-width="1.5"><path d="M330.91389,248.66446c6.79781,-0.60406 14.63313,6.58888 15.44623,14.9411c0.95328,9.79226 -4.99455,16.38589 -13.04707,17.16981c-8.05252,0.78393 -14.96156,-5.31863 -15.10374,-15.15615c-0.1584,-10.9599 5.91804,-16.35169 12.70457,-16.95475z" fill="#2c262f"/><path d="M324.45693,268.7755c-0.26887,-2.76192 1.33577,-5.13174 3.60699,-5.35284c2.27122,-0.2211 3.80952,1.27431 4.07839,4.03623c0.26888,2.76192 -1.40704,5.21323 -3.67826,5.43433c-2.27122,0.2211 -3.73824,-1.3558 -4.00711,-4.11772z" data-paper-data="{&quot;index&quot;:null}" fill="#1b171c"/></g><g stroke="#000000" stroke-width="1.5"><path d="M335.82825,213.84405c6.80856,-0.46759 14.3637,7.15725 14.84887,15.53492c0.56881,9.8221 -5.63284,16.17758 -13.70989,16.64533c-8.07705,0.46775 -14.74165,-5.90085 -14.49821,-15.73639c0.27122,-10.9577 6.54818,-15.97612 13.35924,-16.44387z" fill="#2c262f"/><path d="M328.58818,233.68659c-0.16044,-2.77032 1.53584,-5.07544 3.81398,-5.20737c2.27815,-0.13193 3.75665,1.42261 3.91709,4.19295c0.16044,2.77034 -1.61026,5.15409 -3.8884,5.28602c-2.27814,0.13193 -3.68224,-1.50126 -3.84268,-4.2716z" data-paper-data="{&quot;index&quot;:null}" fill="#1b171c"/></g></g><g data-paper-data="{&quot;index&quot;:null}"><g><path d="M177.70553,280.24702c0,0 -1.88024,0.73284 -2.8723,1.07336c-0.90074,0.30917 -2.83261,0.88483 -2.83261,0.88483c0,0 -14.87968,1.05147 -22.17101,0.93858c-7.43586,-0.11513 -22.01909,-1.62279 -22.01909,-1.62279c0,0 -2.93913,-19.45928 -3.70032,-29.54893c-0.84396,-11.1869 -1.14077,-34.62117 -1.14077,-34.62117c0,0 22.04857,-8.41822 29.58207,-10.7242c5.2409,-1.60422 11.29199,-1.78722 11.29199,-1.78722c0,0 5.13697,4.18302 6.95806,6.03485c1.68488,1.71333 4.86563,5.20259 4.86563,5.20259l2.03836,64.1701z" fill="#434253" stroke="#000000" stroke-width="2.5"/><path d="M173.37927,282.19825l-3.46469,0.0041c0,0 -0.39007,-0.99331 -0.95047,-6.36606c-0.10034,-0.96198 0.52396,-2.34168 0.41397,-3.39694c-1.00099,-9.6031 -3.07972,-24.94394 -3.82517,-32.23684c-1.78356,-17.44918 -2.98527,-35.93346 -2.98527,-35.93346l2.13944,1.25216c0,0 0.69513,4.53943 1.20254,11.64519c0.3783,5.29769 -0.15891,9.77041 -0.00094,14.97823c0.0207,0.68263 0.59219,9.31135 2.10319,19.35565c2.11376,14.05117 5.36741,30.69797 5.36741,30.69797z" fill="#000000" stroke="none" stroke-width="0"/></g><g stroke="#000000" stroke-width="1.5"><path d="M133.39213,263.62307c0.81767,-8.39919 8.69707,-15.63258 15.53311,-15.02512c6.82469,0.60645 12.93531,6.02857 12.77602,17.05011c-0.14298,9.89284 -7.09089,16.02972 -15.18869,15.24139c-8.0978,-0.78832 -14.07908,-7.41904 -13.12044,-17.26637z" fill="#2c262f"/><path d="M151.79121,263.43918c2.284,0.22234 3.89766,2.60548 3.62728,5.38293c-0.27039,2.77745 -1.74565,4.36322 -4.02965,4.14088c-2.284,-0.22235 -3.96933,-2.68744 -3.69895,-5.46489c0.27038,-2.77745 1.81733,-4.28127 4.10133,-4.05893z" data-paper-data="{&quot;index&quot;:null}" fill="#1b171c"/></g><g stroke="#000000" stroke-width="1.5"><path d="M129.05084,229.204c0.4879,-8.42479 8.08552,-16.09251 14.93237,-15.6223c6.84937,0.47038 13.16163,5.51703 13.43437,16.53635c0.24482,9.89086 -6.45726,16.29528 -14.57974,15.8249c-8.12248,-0.47038 -14.35901,-6.86161 -13.787,-16.73894z" fill="#2c262f"/><path d="M151.26403,233.53586c-0.16134,2.78591 -1.57333,4.42828 -3.86428,4.29561c-2.29096,-0.13268 -4.0716,-2.52983 -3.91026,-5.31575c0.16134,-2.7859 1.64816,-4.3492 3.93911,-4.21653c2.29095,0.13267 3.99677,2.45075 3.83543,5.23667z" data-paper-data="{&quot;index&quot;:null}" fill="#1b171c"/></g></g><g data-paper-data="{&quot;index&quot;:null}" fill="#434253" stroke="#000000"><path d="M302.9364,282.15582c0,0 -39.39406,0.31655 -59.64769,0.31655c-21.72904,0 -66.6118,-0.31655 -66.6118,-0.31655c0,0 -4.38216,-25.00528 -4.16309,-53.75635c-0.46515,-31.11458 4.16309,-61.08575 4.16309,-61.08575c0,0 42.82931,-1.2662 64.39595,-1.2662c21.14461,0 59.33114,1.58275 59.33114,1.58275c0,0 7.99686,28.51433 7.2979,63.41059c-1.03994,32.54257 -4.76549,51.11495 -4.76549,51.11495z" stroke-width="2.5"/><path d="M182.1264,274.24783c1.29409,0 2.34316,0.94416 2.34316,2.10884c0,1.16468 -1.04906,2.10884 -2.34316,2.10884c-1.29409,0 -2.34316,-0.94416 -2.34316,-2.10884c0,-1.16468 1.04906,-2.10884 2.34316,-2.10884z" stroke-width="2"/><path d="M296.58667,273.61069c1.29409,0 2.34316,0.94416 2.34316,2.10884c0,1.16468 -1.04907,2.10884 -2.34316,2.10884c-1.29409,0 -2.34316,-0.94416 -2.34316,-2.10884c0,-1.16468 1.04907,-2.10884 2.34316,-2.10884z" stroke-width="2"/><path d="M292.33154,174.94762c-0.48529,-1.12251 0.08425,-2.44878 1.27209,-2.9623c1.18785,-0.51352 2.54417,-0.01985 3.02946,1.10266c0.48528,1.12251 -0.08426,2.44879 -1.2721,2.96231c-1.18785,0.51352 -2.54417,0.01984 -3.02946,-1.10267z" stroke-width="2"/><path d="M180.4176,171.55908c1.18784,-0.51352 2.54418,-0.01985 3.02946,1.10266c0.48528,1.12251 -0.08426,2.44879 -1.2721,2.96231c-1.18784,0.51352 -2.54417,0.01984 -3.02945,-1.10267c-0.48528,-1.12251 0.08425,-2.44878 1.27209,-2.9623z" stroke-width="2"/></g><g data-paper-data="{&quot;index&quot;:null}" stroke="#000000"><path d="M185.3853,208.85061c-2.45268,-6.65252 -2.23243,-25.16686 1.2238,-28.78372c9.15219,-9.57753 27.02753,-9.85708 50.03744,-9.85708c21.54137,0 42.40116,1.26301 52.15372,9.47437c4.59889,3.87212 4.25165,25.69054 0.6414,31.5768c-5.42101,8.83858 -21.3149,12.1266 -53.01425,12.1266c-31.69935,0 -47.51498,-4.62378 -51.04211,-14.19061z" fill="#434253" stroke-width="2"/><path d="M189.64677,207.20852c-2.26436,-5.8977 -2.06104,-22.3113 1.12983,-25.51776c8.4495,-8.4908 24.95241,-8.08126 46.19565,-8.08126c19.88746,0 39.14569,0.46232 48.14946,7.74198c4.2458,3.43277 3.92522,22.77555 0.59215,27.99392c-5.0048,7.83571 -19.67838,9.87414 -48.94391,9.87414c-29.26554,0 -43.86686,-3.5297 -47.12319,-12.01102z" fill="#2c262f" stroke-width="1.5"/><path d="M215.90007,204.08268c-0.88175,-2.5127 -0.80256,-9.50567 0.43998,-10.87178c3.29029,-3.6175 9.71661,-4.38046 17.98885,-4.38046c7.74429,0 15.24354,1.13441 18.74966,4.2359c1.65334,1.46252 1.5285,9.70347 0.23059,11.92675c-1.94889,3.33838 -7.66286,4.79941 -19.05903,4.79941c-11.39616,0 -17.08201,-1.9232 -18.35003,-5.53664z" fill="#1b171c" stroke-width="1.5"/></g><g data-paper-data="{&quot;index&quot;:null}" stroke="#000000"><path d="M185.3853,265.2348c-2.45268,-6.65252 -2.23243,-25.16686 1.2238,-28.78371c9.15219,-9.57753 27.02753,-9.85709 50.03744,-9.85709c21.54137,0 42.40116,1.26301 52.15372,9.47437c4.59889,3.87213 4.25165,25.69054 0.6414,31.5768c-5.42101,8.83858 -21.3149,12.1266 -53.01425,12.1266c-31.69935,0 -47.51498,-4.62379 -51.04211,-14.19062z" fill="#434253" stroke-width="2"/><path d="M189.64677,263.59268c-2.26436,-5.8977 -2.06104,-22.3113 1.12983,-25.51776c8.4495,-8.4908 24.95241,-8.08127 46.19565,-8.08127c19.88746,0 39.14569,0.46232 48.14946,7.74198c4.2458,3.43277 3.92522,22.77556 0.59215,27.99393c-5.0048,7.83571 -19.67838,9.87414 -48.94391,9.87414c-29.26554,0 -43.86686,-3.5297 -47.12319,-12.01102z" fill="#2c262f" stroke-width="1.5"/><path d="M215.90007,260.46686c-0.88175,-2.51269 -0.80256,-9.50566 0.43998,-10.87177c3.29029,-3.6175 9.71661,-4.38046 17.98885,-4.38046c7.74429,0 15.24354,1.13441 18.74966,4.2359c1.65334,1.46252 1.5285,9.70346 0.23059,11.92674c-1.94889,3.33838 -7.66286,4.79941 -19.05903,4.79941c-11.39616,0 -17.08201,-1.9232 -18.35003,-5.53665z" fill="#1b171c" stroke-width="1.5"/></g><g data-paper-data="{&quot;index&quot;:null}"><path d="M255.19958,183.60414c-1.00101,-2.204 -1.48204,-4.3489 -0.72825,-4.96606c2.33239,-1.90961 13.28484,-2.98899 13.38878,-2.98899c6.31528,0 14.84633,4.70166 14.84633,7.42317c0,2.15815 -5.66177,5.08636 -11.867,4.87772c-9.17694,-0.30857 -12.61375,-4.42959 -12.80984,-4.64776c-0.77835,-0.86597 0.94691,1.54978 1.61014,2.51138c0.76014,1.10213 2.09503,1.87099 1.91005,2.94778c-0.21138,1.23048 -1.04517,0.91066 -1.93413,0.37576c-1.07219,-0.64516 -2.75079,-1.86638 -4.41608,-5.533z" fill="#ee1536" stroke="#000000" stroke-width="1.5"/><path d="M224.16343,166.26341c0,-3.59654 1.88208,-6.79388 5.00437,-9.12732c4.14737,-3.09953 10.28977,-4.77137 15.23297,-4.77137c5.31995,0 12.36793,-0.19935 14.37465,2.09274c0.5447,0.62216 0.11605,3.35746 0.47021,5.96384c0.20355,1.49801 1.01152,5.12835 2.06489,8.05201c0.76659,2.12772 1.6857,4.5633 2.81912,4.87357c4.6996,1.28652 11.33458,3.83886 9.65309,6.39177c-1.27777,1.93997 -8.71321,2.17386 -14.6326,0.37436c-5.32793,-1.61969 -9.13974,-5.17457 -11.08352,-5.65964c-3.29754,-0.8229 -10.29591,1.43415 -13.65474,0.96798c-2.18858,-0.30375 -4.10262,-1.02669 -5.53901,-1.79684c-3.55989,-1.90871 -4.7094,-5.13615 -4.7094,-7.3611z" fill="#ffd5d5" stroke="#000000" stroke-width="1.5"/><path d="M254.40495,162.56109c0,0 1.5473,-1.13661 2.20683,-1.84011c0.59795,-0.63781 1.58373,-2.20314 1.58373,-2.20314c0,0 0.47515,2.43192 0.69523,3.67533c0.19897,1.12418 0.56829,3.46354 0.56829,3.46354c0,0 -2.16472,-0.56777 -3.07746,-1.12683c-0.7315,-0.44803 -1.97661,-1.96878 -1.97661,-1.96878z" fill="#fb95a9" stroke="none" stroke-width="0"/><path d="M275.0888,179.52293c0.16969,-0.35395 1.67522,-0.13645 2.97302,0.48578c1.2978,0.62223 2.68613,2.36122 2.51643,2.71517c-0.1697,0.35394 -1.51728,-1.12707 -2.81508,-1.7493c-1.29779,-0.62223 -2.84406,-1.0977 -2.67436,-1.45165z" fill="#fc9ea5" stroke="none" stroke-width="0"/></g><g data-paper-data="{&quot;index&quot;:null}"><path d="M231.0166,187.59701c2.5441,-6.35721 7.6863,-8.12709 12.34285,-6.26357c4.65656,1.86351 6.54811,7.90162 4.004,14.25883c-2.5441,6.35722 -11.22418,11.88722 -14.69074,10.29339c-3.43224,-1.57805 -4.378,-11.60389 -1.83389,-17.9611z" fill="#ee1536" stroke="#000000" stroke-width="1.5"/><path d="M233.51808,184.81938c0,0 2.00422,-2.86118 4.30555,-3.50609c0.77193,-0.21631 4.08674,0.23689 6.56763,1.86017c1.68622,1.10331 2.8021,3.19439 3.19142,4.24588c0.67057,1.81111 0.10967,3.76134 0.10967,3.76134c0,0 -1.81828,1.66589 -5.43619,1.54424c-1.90251,-0.06397 -4.61734,-2.13774 -6.33064,-4.2466c-1.54479,-1.90145 -2.40744,-3.65892 -2.40744,-3.65892z" fill="#9a1652" stroke="none" stroke-width="0"/><path d="M237.96925,175.03086c0.55432,-7.08643 2.21505,-10.84502 10.62649,-10.5467c4.91806,0.17442 6.52345,5.86357 6.20118,8.26798c-1.07822,8.0444 -9.74893,15.13352 -9.74893,15.13352c0,0 1.38491,8.01261 -6.9327,9.02219c-4.06733,0.49369 -4.09452,-6.52097 -3.42123,-8.22854c1.22234,-3.10001 3.42075,-4.916 3.42075,-4.916c0,0 -0.3919,-5.5836 -0.14558,-8.73245z" fill="#ffd5d5" stroke="#000000" stroke-width="1.5"/><path d="M245.10259,176.38818c-0.98594,-0.64 -1.21165,-1.61216 -1.54278,-2.57662c-0.39958,-1.16379 -0.68288,-4.079 -0.68288,-4.079c0,0 1.88781,1.43735 2.95744,2.05164c1.0526,0.6045 3.57324,1.45269 3.57324,1.45269c0,0 -1.55297,2.41034 -2.26572,2.89984c-0.66241,0.45494 -1.05335,0.89143 -2.03929,0.25145z" fill="#fb95a9" stroke="none" stroke-width="0"/><path d="M235.86949,203.05131c-0.64171,-0.03296 1.51192,-1.05037 2.3367,-1.53259c0.91489,-0.5349 2.82616,-2.37563 2.86295,-2.00666c0.07441,0.74608 -1.44675,2.17702 -2.28268,2.66576c-0.90726,0.53045 -1.82762,0.92947 -2.91696,0.87351z" fill="#fc9ea5" stroke="none" stroke-width="0"/></g><g data-paper-data="{&quot;index&quot;:null}"><path d="M241.91318,157.68957c0,2.29411 -1.25818,4.61538 -3,4.61538c-0.76278,0 -3.11037,-0.73494 -3.60601,-1.49437c-0.52018,-0.79702 -2.20134,-5.64467 -0.8631,-7.58224c0.2984,-0.43204 3.61307,-0.53877 3.93065,-0.53877c1.74182,0 3.53846,2.70589 3.53846,5z" fill="#fd96aa" stroke="#000000" stroke-width="1.5"/><path d="M238.99765,155.36429c0,4.48731 -3.19181,8.875 -7.4375,8.875c-4.24569,0 -6.5625,-3.26269 -6.5625,-7.75c0,-4.48731 3.06681,-8.375 7.3125,-8.375c0.42285,0 2.52519,-0.3495 4.87944,-1.18678c3.58981,-1.2767 8.28642,-3.06533 10.90324,-2.80277c0.41148,0.04129 0.96513,0.31779 1.36082,0.71617c0.443,0.44602 0.7075,1.02531 0.74205,1.20909c0.83269,4.42997 -5.98453,5.25017 -9.58073,5.89658c-1.33894,0.24067 -2.15109,0.83204 -2.15109,0.83204c0,0 0.53377,1.69476 0.53377,2.58568z" fill="#ffd5d5" stroke="#000000" stroke-width="2"/><path d="M225.96074,157.7649c0,0 1.31118,2.06283 3.21457,2.64476c0.63741,0.19487 -0.02157,-0.60386 0.96662,-0.65647c0.48158,-0.02564 1.71308,1.26414 3.2383,0.76702c1.8479,-0.60229 4.67142,-5.5735 4.67142,-5.5735c0,0 0.09418,3.12019 -1.52514,5.55894c-0.89188,1.34321 -2.3669,2.4797 -4.51488,2.7743c-1.38135,0.18945 -3.03094,-0.32712 -3.99461,-1.29818c-1.71101,-1.72412 -2.05627,-4.21688 -2.05627,-4.21688z" fill="#fb95a9" stroke="none" stroke-width="0"/><path d="M227.83626,162.30496c0,0 -0.1889,-0.61077 0.84803,-1.90619c0.80488,-1.00553 2.25406,-0.81564 2.20899,-0.57336c-0.05147,0.27667 -0.53704,0.76628 -0.86242,1.42386c-0.48657,0.98336 -0.34844,2.20255 -0.34844,2.20255z" fill="#000000" stroke="none" stroke-width="0"/><path d="M237.14395,160.38188c0,0 -0.00528,-1.80894 -0.31401,-2.63224c-0.30663,-0.81768 -1.22445,-2.21391 -1.22445,-2.21391c0,0 0.99221,0.41313 1.45799,0.67929c0.42856,0.24489 1.23432,0.85917 1.23432,0.85917z" fill="#000000" stroke="none" stroke-width="0"/><path d="M244.35977,145.00529c0,0 0.96222,-0.41929 1.72045,-0.51819c0.66775,-0.0871 2.25871,0.0043 2.25871,0.0043c0,0 0.17421,1.21756 -0.43926,1.86061c-0.97065,1.01744 -2.02554,1.21278 -2.84958,1.30382c-0.41762,0.04614 -0.69032,-0.58635 -0.69032,-0.96305z" fill="#f7426f" stroke="#000000" stroke-width="1"/></g><g data-paper-data="{&quot;index&quot;:null}"><path d="M271.32482,151.84264c0.98554,0.91565 2.69914,2.98473 2.37761,6.30422c-0.28178,2.90909 -4.38362,4.59501 -7.25167,4.59501c-3.68535,0 -4.09378,-3.88056 -4.09378,-3.88056c0,0 -1.37986,0.91927 -3.09615,0.6913c-1.53049,-0.20328 -2.9026,-1.60588 -3.51944,-4.12752c-0.21117,-1.71239 0.11239,-2.88628 0.52321,-3.91997c0.38389,-0.96592 1.31487,-1.99144 2.11654,-2.76018c1.19174,-1.14279 2.52968,-2.6382 5.42603,-2.6382c1.5625,0 4.83369,0.12169 8.09991,-0.41155c2.1263,-0.34715 4.01238,-0.96808 5.86219,-1.38272c1.67872,-0.37628 3.09727,-0.56713 4.03811,-0.52167c0.33355,0.01612 0.97651,0.15316 1.32961,0.83793c0.29813,0.57814 0.15478,1.26078 0.10625,1.44209c-1.58824,5.93383 -8.93545,5.69056 -11.57822,5.40151c-0.59388,-0.06496 -0.6994,-0.1063 -0.34018,0.22746z" fill="#ffd5d5" stroke="#000000" stroke-width="2"/><path d="M257.20447,151.92231c0,0 0.14235,2.17809 2.29704,2.33172c0.60189,0.04291 2.41805,-0.85162 4.01223,-2.32232c0.79204,-0.7307 1.16395,-2.64115 2.02732,-2.98534c0.05698,-0.02272 0.24744,-0.17084 0.53295,-0.09898c0.33181,0.0835 0.49079,0.32205 0.6147,0.32874c0.60663,0.03273 1.64317,0.1642 2.49583,0.176c1.96501,0.02719 4.28583,-0.22808 6.50634,-0.68366c2.5281,-0.51868 4.35553,-2.57434 5.47836,-2.79484c0.44269,-0.08694 1.17936,-0.0669 1.17936,-0.0669c0,0 -0.6693,2.06881 -1.88193,2.95162c-0.92901,0.67633 -1.98172,1.18858 -3.13835,1.47319c-3.39135,0.83451 -7.15032,0.23808 -7.15032,0.23808l-1.14731,1.12063c0,0 -0.27473,4.8443 1.15371,4.94696c0.29148,0.02095 0.60971,-0.5765 0.85243,-0.47295c0.55191,0.23546 0.40644,2.31029 0.78122,2.46812c0.56445,0.23771 0.82632,0.10593 0.82632,0.10593c0,0 -0.74914,1.54659 -2.39341,2.34197c-2.09132,1.01164 -4.38846,1.20925 -5.60484,0.66087c-1.51635,-0.68362 -2.33867,-3.40278 -2.33867,-3.40278c0,0 -3.06338,0.09194 -4.00015,-0.56226c-0.9902,-0.6915 -1.50132,-1.82235 -1.60252,-2.89405c-0.13686,-1.44935 0.49969,-2.85976 0.49969,-2.85976z" fill="#fb95a9" stroke="none" stroke-width="0"/><path d="M261.15098,159.05375c0,0 0.90401,-1.48142 0.97239,-2.35001c0.07167,-0.91042 -0.4879,-1.87333 -0.88459,-2.81069c-0.18257,-0.43139 -0.30178,-0.98281 -0.12077,-1.20562c0.14542,-0.179 0.53371,-0.09681 0.86714,0.05862c0.44538,0.20764 0.57266,0.52662 1.01192,0.75319c0.1529,0.07886 0.34458,0.26723 0.57724,0.29229c0.41666,0.04488 0.96464,-0.12835 1.65634,-0.21891c1.26798,-0.16602 2.84406,-1.58105 2.84406,-1.58105c0,0 -0.08929,1.58905 -0.50621,2.52936c-0.29641,0.75395 -3.60389,0.85701 -3.74836,1.12336c-0.35765,0.65941 -0.36178,1.879 -0.09219,2.50284c0.35788,0.82817 1.09261,0.97588 1.09261,0.97588z" fill="#000000" stroke="none" stroke-width="0"/><path d="M262.81269,158.08445c0,0 2.03082,0.996 4.34184,0.58636c1.47907,-0.26218 3.62044,-2.17882 3.62044,-2.17882c0,0 -0.63559,2.71144 -3.30238,3.50931c-0.23268,0.06962 -0.86955,0.23053 -1.5447,0.22818c-1.52548,-0.00532 -3.53062,-0.27563 -3.53062,-0.27563z" fill="#000000" stroke="none" stroke-width="0"/><path d="M258.46286,158.97453c-1.36072,-0.63778 -1.67383,-1.72093 -1.67383,-1.72093c0,0 0.32157,-0.60438 1.07624,-1.02583c0.4786,-0.26728 1.14418,-0.25328 1.3625,-0.1726c0.19699,0.07279 0.98738,0.56135 1.28218,1.20123c0.43638,0.94721 0.43333,2.07431 0.43333,2.07431c0,0 -1.27937,0.20676 -2.48041,-0.35618z" fill="#871847" stroke="#000000" stroke-width="1"/><path d="M271.25963,152.82241c0,0 -0.16751,-0.38189 -0.70469,-0.59158c-0.82041,-0.32025 -2.13404,-0.4002 -2.13404,-1.4163c0,-0.98501 4.50042,-0.20772 4.50042,-0.20772z" fill="#000000" stroke="none" stroke-width="0"/></g><g data-paper-data="{&quot;index&quot;:null}"><g><g><g><path d="M260.26653,126.47452c0.63925,-3.60736 3.5248,-6.11219 6.44504,-5.59468c2.92024,0.5175 4.76932,3.86135 4.13005,7.46871c-0.63927,3.60736 -3.52483,6.11219 -6.44507,5.59468c-2.92025,-0.5175 -4.76932,-3.86134 -4.13005,-7.4687z" fill="#fb95a9" stroke="#000000" stroke-width="2"/><path d="M243.7489,139.74054c-23.96854,-8.00098 -26.11495,-11.27617 -26.02043,-21.51044c0.09453,-10.2343 14.71402,-8.65012 29.19316,-8.51639c14.47917,0.13372 22.06384,-0.403 21.96931,9.83129c-0.01542,1.66952 -3.31058,11.35486 -3.31058,11.35486c0,0 7.04701,5.37289 5.5571,9.16148c-1.62258,4.08659 -18.32189,2.70575 -27.38855,-0.32079z" fill="#ffd5d5" stroke="#000000" stroke-width="2"/><path d="M220.94929,111.5209c0,0 27.55067,-3.71215 33.75006,-3.65488c11.74616,0.10849 13.39523,6.6925 13.35118,11.46075c-0.01925,2.08265 -3.03985,10.08988 -3.03985,10.08988c0,0 -2.96314,-5.89685 -4.84072,-7.52191c-0.74338,-0.64341 -2.03919,-2.06257 -2.03919,-2.06257c0,0 -1.5666,1.36178 -2.45075,2.18457c-1.22412,1.13917 -4.22716,3.17722 -4.22716,3.17722l-0.31468,-3.81678l-4.82961,3.43483l-5.3931,-8.34436c0,0 -3.77756,4.97718 -6.41411,6.80823c-2.8112,1.95232 -9.9628,4.56527 -9.9628,4.56527l-3.91617,-0.9553c0,0 -2.20185,-5.40275 -2.14629,-8.01301c0.05334,-2.50726 2.47325,-7.35199 2.47325,-7.35199z" fill="#fb95a9" stroke="none" stroke-width="0"/><path d="M210.96767,120.58955c0.02951,-3.19821 -0.04591,-3.8964 1.94478,-5.35219c1.59595,-1.1671 7.54711,3.71555 7.51757,6.91377c-0.02952,3.19821 -1.02837,6.20305 -3.00545,6.1848c-1.97709,-0.01827 -6.41365,-3.69422 -6.37828,-7.52418z" fill="#ffd5d5" stroke="#000000" stroke-width="2.5"/><path d="M217.5376,127.49458c-0.7056,-0.00652 -3.23973,-1.50475 -4.23408,-3.22942c-0.62078,-1.0767 -0.91699,-2.41416 -1.05496,-3.56088c-0.16919,-1.40627 0.88259,-2.01365 2.11196,-1.26306c2.05618,1.25539 4.80154,3.17804 4.78946,4.48811c-0.01932,2.09337 0.07396,3.5808 -1.61238,3.56523z" fill="#fb95a9" stroke="none" stroke-width="0"/><path d="M214.14376,118.72355c0.0059,-0.63965 5.41666,6.36788 5.41666,6.36788l-1.07719,2.62248c0,0 -4.34536,-8.35073 -4.33945,-8.99039z" fill="#000000" stroke="none" stroke-width="0"/><path d="M216.49177,128.34165c-0.21257,-1.85672 1.53142,-3.2838 3.65445,-3.46576c2.12298,-0.18195 4.47758,-0.56128 5.0638,2.59727c0.10319,0.55599 0.68472,4.19433 -1.02834,5.78068c-0.26702,0.24727 -1.736,1.14087 -3.15314,1.17322c-1.95709,0.0447 -3.09718,-0.52825 -3.09718,-0.52825c0,0 2.38137,-1.51103 2.17917,-1.68028c-0.64489,-0.53976 -3.44016,-2.31687 -3.61878,-3.87686z" fill="#6d0f0a" stroke="#000000" stroke-width="2"/><path d="M203.83939,125.58156c-6.7665,-4.66637 -8.84073,-8.93024 -8.84073,-8.93024c0,0 6.69339,0.22005 9.12541,-1.69054c2.45145,-1.92586 5.53718,-11.08255 5.53718,-11.08255c0,0 23.00583,2.48592 32.81554,2.57652c9.08368,0.08392 17.05285,0.18171 22.88991,0.26079c6.34428,0.08597 11.6381,3.2892 12.14354,8.24016c0.12511,1.22521 0.29262,2.87526 0.2464,4.25117c-0.21124,6.28892 -2.9523,11.76779 -2.9523,11.76779c0,0 -4.60307,-7.96676 -6.87717,-11.45323c-2.81256,-4.31195 -7.74511,-8.37008 -7.74511,-8.37008c0,0 -1.17034,3.83183 -2.96472,6.2241c-1.85747,2.47638 -5.00779,2.12749 -5.00779,2.12749c0,0 -0.0124,-3.18698 -0.51268,-4.68814c-0.4605,-1.38187 -1.30655,-3.98371 -1.45278,-2.82011c-0.14712,1.17051 -0.8865,3.92874 -1.20876,5.28845c-0.83412,3.51916 -1.43019,3.96063 -1.43019,3.96063c0,0 -1.61696,-3.33186 -3.26382,-6.45731c-1.40028,-2.65745 -3.87885,-4.27072 -3.87885,-4.27072c0,0 -4.98735,4.20794 -7.78039,5.85873c-2.52307,1.49124 -7.86876,3.61955 -7.86876,3.61955c0,0 1.68453,8.23156 -2.29557,7.59566c-2.813,-0.44944 -4.00348,-1.04255 -5.41741,-2.34724c-0.84765,-0.78216 -0.91769,-3.7818 -0.91769,-3.7818l2.04948,0.67313c0,0 -0.82129,-6.29205 -2.13298,-6.73707c-2.30957,-0.78357 -0.51288,-0.97894 -4.01816,-0.92422c-0.51021,0.00797 -2.08219,2.94978 -2.0448,5.78988c0.04013,3.04914 1.70994,6.01116 1.70994,6.01116c0,0 -4.45189,1.65862 -7.75625,-0.62018z" fill="#6d0f0a" stroke="#000000" stroke-width="1.5"/><path d="M253.52798,109.56606c-0.9806,-0.00907 -2.22648,-1.16453 -4.20068,-1.32423c-2.13884,-0.17304 -5.01511,0.65008 -6.14686,0.67818c-16.34556,0.40633 -34.53868,1.27629 -34.53868,1.27629c0,0 0.82341,-2.5686 0.92329,-3.83777c0.10673,-1.35594 0.01383,-4.05194 0.01383,-4.05194c0,0 21.95809,2.99423 35.11875,3.11579c8.44479,0.07798 17.34729,-0.18392 22.88876,0.65625c5.86764,0.8896 8.57415,2.88576 8.57415,2.88576l0.78192,6.90991l-2.52215,-0.71672l-5.9679,-6.55236c0,0 -10.42633,1.00234 -14.92443,0.9608z" fill="#6d0f0a" stroke="none" stroke-width="0"/><path d="M241.98724,137.77165c0,0 -2.35783,-6.42053 -2.22126,-6.62029c0.21013,-0.30737 8.7559,2.26969 8.76777,2.66076c0.01134,0.37314 -5.48742,4.11783 -6.54652,3.95953z" fill="#ef3d61" stroke="#000000" stroke-width="1.5"/><path d="M228.22619,114.54611c0,0 1.48116,1.77607 2.32691,2.39711c0.77836,0.57157 2.14585,0.66277 2.14585,0.66277c0,0 -0.29837,-0.76328 -0.59352,-1.55677c-0.30782,-0.82756 -0.72685,-3.16581 -0.72685,-3.16581c0,0 1.18132,1.81588 1.80554,2.45669c0.59694,0.61283 2.07018,1.52045 2.07018,1.52045c0,0 2.59355,-0.02435 4.29767,-0.0086c4.4609,0.04121 7.326,3.2266 7.326,3.2266c0,0 -2.41704,-0.70365 -3.26244,-0.91854c-0.60049,-0.15269 -1.33262,-0.10896 -1.33262,-0.10896c0,0 0.07269,8.51199 -6.29976,8.52332c-5.21938,0.0093 -3.70698,-7.00935 -3.90356,-7.39714c-0.14242,-0.28094 -1.01871,-1.17893 -1.01871,-1.17893c0,0 -1.41269,-0.91841 -1.86379,-1.60996c-0.49074,-0.75233 -0.97088,-2.84224 -0.97088,-2.84224z" fill="#000000" stroke="none" stroke-width="0"/></g><path d="M276.85578,113.8875c0,0 -0.30018,-2.74794 -0.55219,-4.13103c-0.24098,-1.32258 -0.92838,-3.99411 -0.92838,-3.99411c0,0 1.05489,0.7175 1.59797,3.06608c0.35494,1.53494 1.21177,5.51579 1.21177,5.51579z" fill="#000000" stroke="none" stroke-width="0"/></g></g><path d="M249.48185,125.61295c-0.01263,-1.94221 0.55893,-5.26889 3.52598,-6.38241c0.53272,-0.19994 1.74285,-0.09593 3.06153,0.3511c1.35161,0.4582 2.4761,1.22456 2.80469,1.41584c0.64914,0.37793 1.91133,0.07266 1.91133,0.07266c0,0 1.25469,-0.59056 1.96772,-1.07093c0.59859,-0.40327 2.02417,-2.12598 2.02417,-2.12598c0,0 -0.08289,1.49994 -1.30325,3.07565c-0.50287,0.64932 -1.85416,1.78139 -1.85416,1.78139c0,0 1.02791,0.14106 2.204,-0.05251c0.88342,-0.14538 3.10184,-1.39079 3.10184,-1.39079c0,0 -1.02526,1.68229 -1.729,2.3933c-0.48596,0.49096 -1.6733,1.07416 -1.6733,1.07416l-0.24176,1.01231c0,0 -1.45031,-1.87895 -2.23364,-2.30907c-0.63336,-0.34777 -2.2399,-0.203 -2.2399,-0.203c0,0 -0.28263,7.7116 -5.16445,7.61703c-3.80639,-0.07373 -4.14099,-2.06046 -4.16179,-5.25874z" fill="#000000" stroke="none" stroke-width="0"/></g></g></g></svg>