<svg version="1.1" xmlns="http://www.w3.org/2000/svg" xmlns:xlink="http://www.w3.org/1999/xlink" width="95.86394" height="95.86394" viewBox="0,0,95.86394,95.86394"><g transform="translate(-192.06803,-132.06803)"><g data-paper-data="{&quot;isPaintingLayer&quot;:true}" fill-rule="nonzero" stroke-linejoin="miter" stroke-miterlimit="10" stroke-dasharray="" stroke-dashoffset="0" style="mix-blend-mode: normal"><g><path d="M233.59341,180.99904c0,0 3.1216,-7.10157 5.37048,-6.34505c3.804,1.27968 4.34853,6.37979 2.88344,9.84311c-2.02298,4.78212 -7.23876,8.02402 -7.23876,8.02402c0,0 -1.64138,0.07904 -2.76597,-0.18716c-0.32085,-0.07594 -1.61132,-0.64161 -2.51457,-1.59438c-1.6161,-1.70471 -3.08596,-4.52246 -3.32133,-7.09428c-0.12569,-1.37332 1.71741,-1.763 1.95522,-1.79879c2.32091,-0.34928 5.63148,-0.84748 5.63148,-0.84748z" fill="#ff292e" stroke="#000000" stroke-width="1" stroke-linecap="round"/><path d="M228.28259,185.13519l4.55154,0.73301l-1.58555,3.70621l0.88367,4.9312l-3.21664,-0.06918l-1.94138,2.80356c0,0 -2.52074,-3.00164 -3.79066,-4.51384c-1.28279,-1.52751 -1.93993,-6.56771 -0.82309,-7.70426c1.36619,-1.39028 4.55606,-4.63643 4.55606,-4.63643z" fill="#feecf7" stroke="#000000" stroke-width="1" stroke-linecap="round"/><path d="M215.84956,190.25056c-0.37792,-3.27471 1.61343,-5.43959 4.64811,-5.78981c3.03468,-0.35022 5.59099,1.28982 5.96891,4.56454c0.37792,3.27471 -1.35791,5.47302 -4.3926,5.82324c-3.03468,0.35022 -5.84651,-1.32325 -6.22443,-4.59796z" fill="#f89688" stroke="#000000" stroke-width="1" stroke-linecap="butt"/><path d="M206.38103,187.6493c-0.00241,0.00035 -0.00368,0.0005 -0.00368,0.0005l-0.56064,-0.12108c-0.96711,-0.95593 -0.70561,-2.28944 -0.14133,-3.45216c1.61372,-1.67508 5.42722,-6.52169 8.05641,-3.67869c1.24298,1.34407 1.37153,3.34427 2.00531,4.97638c0.80709,6.6098 -5.69467,3.9229 -9.35606,2.27506z" fill="#323344" stroke="#000000" stroke-width="1" stroke-linecap="butt"/><path d="M212.68435,182.2543c-0.67192,-0.2421 -0.49819,-0.97133 -0.49819,-0.97133c0.466,-1.95 3.24302,-6.19707 5.64044,-5.37891c2.45867,0.83906 1.37697,3.33221 2.89294,4.72645c0.7142,0.65686 2.56275,0.45997 3.48195,0.6793c0.49681,1.00108 0.70604,1.16178 0.80252,2.22372c0.17034,1.87486 -1.14493,3.17618 -3.07388,2.9729c-3.08965,-0.3256 -5.19322,-3.42126 -8.26694,-3.8451l-0.32057,-0.02451c0,0 -0.44565,-0.03685 -0.65826,-0.38253z" fill="#fcdfbd" stroke="none" stroke-width="0.5" stroke-linecap="butt"/><path d="M224.2015,181.30981c0.49681,1.00108 0.70604,1.16178 0.80252,2.22373c0.17033,1.87486 -1.14493,3.17618 -3.07388,2.9729c-2.38614,-0.25147 -4.18415,-2.15514 -6.29513,-3.20427c0.74375,-0.20341 1.42636,-0.3867 1.94983,-0.44641c0.57163,-0.0652 1.04613,0.13016 1.50239,0.3877c0.51338,0.55938 1.24824,0.90282 2.04598,0.90453c0.3227,0.02155 0.67609,-0.02877 1.07512,-0.18851c0.11226,-0.04494 0.22396,-0.10833 0.33335,-0.18738c0.86977,-0.50508 1.42616,-1.46132 1.38694,-2.51285c0.09764,0.01404 0.18913,0.03056 0.2729,0.05057z" fill="#f89688" stroke="none" stroke-width="0.5" stroke-linecap="butt"/><path d="M212.68435,182.2543c-0.67192,-0.2421 -0.49819,-0.97133 -0.49819,-0.97133c0.466,-1.95 3.24302,-6.19707 5.64043,-5.37891c2.45866,0.83906 1.37697,3.3322 2.89294,4.72644c0.7142,0.65685 2.56274,0.45997 3.48196,0.67931c0.49681,1.00108 0.70604,1.16178 0.80252,2.22373c0.17033,1.87486 -1.14493,3.17618 -3.07388,2.9729c-3.08964,-0.3256 -5.19322,-3.42126 -8.26694,-3.8451l-0.32057,-0.02453c0,0 -0.44565,-0.03685 -0.65826,-0.38252z" fill="none" stroke="#000000" stroke-width="1" stroke-linecap="butt"/><path d="M213.24503,180.0116c0.06391,0.55384 -0.48993,0.61776 -0.48993,0.61776l-0.0852,0.00984c-3.43454,0.39637 -5.79008,3.03487 -5.76569,6.55546c0,0 0.00074,0.17602 -0.09751,0.33068l0.09153,0.2639c0,0 -0.33617,0.42388 -0.76375,0.1054c-0.07301,-0.00197 -0.14603,-0.00395 -0.21903,-0.00592c0,0 -0.31531,-0.00851 -0.46517,-0.24988c-0.31621,-0.10118 -0.35873,-0.46964 -0.35873,-0.46964l-0.01349,-0.15439c0.04796,-5.055 2.37363,-7.41388 7.23462,-7.97486c0,0 0.55384,-0.06391 0.61776,0.48993c0.00147,0.01275 0.00262,0.02524 0.00345,0.03746c0.13969,0.05731 0.28079,0.18099 0.31118,0.44429z" fill="#455d83" stroke="none" stroke-width="0.5" stroke-linecap="butt"/><path d="M206.93335,186.47159c-0.50751,-0.22423 -1.06227,-0.3305 -1.5886,-0.28724c-0.07397,-0.0345 -0.15128,-0.06265 -0.23115,-0.08381c0.11598,-1.64481 0.51023,-2.96932 1.19365,-4.01152c0.48773,0.56061 0.96125,1.14002 1.43414,1.71174c-0.44076,0.78596 -0.7207,1.68732 -0.80803,2.67083z" fill="#85afb1" stroke="none" stroke-width="0.5" stroke-linecap="butt"/><path d="M208.11955,180.33425c0.39222,0.5712 0.91569,1.1266 1.3717,1.50454c-0.40676,0.29348 -0.77311,0.63322 -1.09351,1.01344c-0.4567,-0.54951 -0.9133,-1.10252 -1.38322,-1.64001c0.32617,-0.33083 0.69433,-0.62279 1.10505,-0.87797z" fill="#85afb1" stroke="none" stroke-width="0.5" stroke-linecap="butt"/><path d="M213.24503,180.01161c0.06391,0.55384 -0.48993,0.61776 -0.48993,0.61776l-0.0852,0.00984c-3.43454,0.39637 -5.79008,3.03487 -5.7657,6.55546c0,0 0.00074,0.17602 -0.09751,0.33068l0.09152,0.26391c0,0 -0.33616,0.42388 -0.76375,0.1054c-0.07301,-0.00197 -0.14603,-0.00395 -0.21903,-0.00592c0,0 -0.31531,-0.00852 -0.46517,-0.24988c-0.31622,-0.10117 -0.35874,-0.46964 -0.35874,-0.46964l-0.01349,-0.15439c0.04796,-5.055 2.37362,-7.41387 7.23462,-7.97486c0,0 0.55384,-0.06391 0.61776,0.48993c0.00147,0.01274 0.00262,0.02524 0.00345,0.03747c0.13969,0.05731 0.28079,0.18099 0.31118,0.44429z" fill="none" stroke="#000000" stroke-width="1" stroke-linecap="butt"/><path d="M223.11768,188.84265c0,0 3.13453,-0.30659 3.82425,1.41102c0.5534,1.37811 -0.58584,2.59222 -1.16446,3.75086c-1.36953,2.74231 -3.37744,7.33082 -7.08019,5.19654c-0.78496,-0.55424 -1.38885,-1.15492 -2.05938,-1.83826l-0.08944,-0.06945c-1.02001,0.64899 -2.0741,0.81607 -2.77143,0.28547c-0.73826,-0.56174 -1.4775,-1.82298 -2.15825,-2.68417c-1.44342,0.39488 -3.01792,0.82316 -4.29608,0.04029c-1.22923,-0.75289 -1.08387,-1.85153 -1.22603,-3.0833c-0.39818,-3.45024 1.40806,-6.50451 4.35856,-8.28233c1.43395,-1.08663 2.8635,-2.70827 4.76047,-3.03759c1.33413,-0.2316 2.24353,0.46319 2.88947,1.33299c0.74525,1.00355 1.09646,2.29468 0.63859,3.55477c1.25453,0.06808 2.53244,0.64112 3.44915,1.43697c0.89766,0.77933 0.60926,1.21715 0.92476,1.98619z" fill="#fde0be" stroke="none" stroke-width="0.5" stroke-linecap="butt"/><path d="M226.94193,190.25367c0.5534,1.37813 -0.58583,2.59222 -1.16446,3.75085c-1.36954,2.74231 -3.37744,7.33083 -7.08019,5.19655c-0.78496,-0.55424 -1.38885,-1.15492 -2.05937,-1.83826l-0.08944,-0.06945c-1.02001,0.64899 -2.0741,0.81607 -2.77143,0.28547c-0.73826,-0.56174 -1.47749,-1.82299 -2.15824,-2.68418c-1.44342,0.39488 -3.01791,0.82316 -4.29607,0.04029c-1.22923,-0.7529 -1.08387,-1.85153 -1.22603,-3.0833c-0.13321,-1.15424 -0.0197,-2.26416 0.30082,-3.2968c0.08984,0.17611 0.15438,0.35311 0.16307,0.54198l0.00698,0.00611c0.0439,1.15064 0.51462,2.01675 1.22908,2.5381c0.566,0.47359 1.31781,0.72289 2.10881,0.63159c0.28621,-0.03303 0.55727,-0.10831 0.80766,-0.21889c0.27524,-0.07723 0.55389,-0.18391 0.83239,-0.32114c1.21119,-0.59687 2.85319,-1.8119 4.36188,-3.29839c-0.22532,0.92371 -0.39408,1.83607 -0.4929,2.57545c-0.10693,0.35374 -0.14486,0.73464 -0.0998,1.12511c0.02685,0.23259 0.08159,0.45517 0.16051,0.6648c0.18226,1.57927 1.4747,1.9832 2.70787,1.80161c0.07307,-0.00268 0.14658,-0.00823 0.22045,-0.01675c0.6093,-0.07031 1.14993,-0.33211 1.56874,-0.71836c0.13903,-0.11085 0.25746,-0.22932 0.34943,-0.35245c0.10371,-0.13887 0.2123,-0.29339 0.32422,-0.46091c0.21965,0.0976 -0.65743,2.24233 -0.4204,2.28204c0.70133,0.11752 2.56672,-2.11507 3.26449,-2.68841c0.55908,-0.45938 0.89156,-0.9502 1.04927,-1.44155c0.24277,-0.4734 0.35293,-1.02134 0.28735,-1.58952c-0.02967,-0.25702 -0.0934,-0.50183 -0.18617,-0.73043c0.90268,0.12306 1.93924,0.46682 2.30148,1.36888z" fill="#f89688" stroke="none" stroke-width="0.5" stroke-linecap="butt"/><path d="M223.11768,188.84265c0,0 3.13453,-0.30659 3.82425,1.41102c0.5534,1.37813 -0.58583,2.59222 -1.16446,3.75085c-1.36954,2.74231 -3.37744,7.33083 -7.08019,5.19655c-0.78496,-0.55424 -1.38885,-1.15492 -2.05937,-1.83826l-0.08944,-0.06945c-1.02001,0.64899 -2.0741,0.81607 -2.77143,0.28547c-0.73826,-0.56174 -1.47749,-1.82299 -2.15824,-2.68418c-1.44342,0.39488 -3.01791,0.82316 -4.29607,0.04029c-1.22923,-0.7529 -1.08387,-1.85153 -1.22603,-3.0833c-0.39818,-3.45024 1.40805,-6.50451 4.35855,-8.28233c1.43395,-1.08663 2.8635,-2.70827 4.76048,-3.03759c1.33413,-0.2316 2.24353,0.46319 2.88945,1.33299c0.74525,1.00355 1.09646,2.29468 0.63859,3.55477c1.25454,0.06808 2.53244,0.64112 3.44915,1.43698c0.89767,0.77933 0.60926,1.21715 0.92476,1.98619z" fill="none" stroke="#000000" stroke-width="1" stroke-linecap="butt"/><path d="M214.17572,189.72196l4.85104,-4.00201" fill="none" stroke="#000000" stroke-width="1" stroke-linecap="round"/><path d="M219.73132,193.12161l3.12701,-4.02754" fill="none" stroke="#000000" stroke-width="1" stroke-linecap="round"/><path d="M197.76844,180.20039c-0.5458,-4.72938 2.38028,-9.29743 7.10967,-9.84324c2.52659,-0.29159 4.12206,0.6455 5.76924,2.15012c0.55495,0.50692 1.43392,1.51558 1.98196,2.62649c0.87016,1.76385 0.67872,3.63898 0.594,3.9344c-0.06746,0.23523 -3.13147,-1.12107 -5.77899,1.50537c-2.70049,2.67901 -2.82472,6.99552 -2.82472,6.99552c0,0 -2.22322,-0.15125 -3.76771,-1.27392c-1.72106,-1.25103 -2.79578,-3.60218 -3.08343,-6.09473z" fill="#465e85" stroke="#000000" stroke-width="0" stroke-linecap="butt"/><path d="M197.76844,180.20039c-0.06853,-0.59383 -0.08232,-1.18512 -0.04468,-1.76624c0.05576,0.07659 0.11904,0.14705 0.18859,0.21043l0.00662,0.02052l0.03801,0.01845c0.18147,0.15183 0.40116,0.25753 0.63972,0.3018l0.23399,0.0491l0.14262,-0.00544l0.13449,0.06885l0.0858,0.01993l0.073,0.04927l0.09478,0.03446l0.00927,0.01261l0.03969,0.00519l0.03649,0.01327l0.31855,0.03318l0.31755,0.04154l0.03859,-0.00445l0.03982,0.00415l0.01193,-0.01013l0.02901,-0.00334l0.03108,0.02097l0.09478,0.03446l0.00927,0.01261l0.03969,0.00519l0.03649,0.01327l0.31855,0.03318l0.31755,0.04154l0.03859,-0.00445l0.03982,0.00415l0.01193,-0.01013l7.14823,-0.82495l0.03713,0.00387l0.31755,0.04154l0.03859,-0.00445l0.03982,0.00415l0.01193,-0.01013l0.21644,-0.02497l0.02388,0.01159l0.53091,0.11141l0.17603,-0.00672l0.30312,0.03157l0.31755,0.04154l0.03859,-0.00445l0.03982,0.00415l0.01193,-0.01013l0.47204,-0.05448l0.02388,0.01159l0.16851,0.03536l0.18195,0.06614l0.00927,0.01261l0.03969,0.00519l0.03649,0.01327l0.26648,0.02776c-1.13768,-0.03189 -2.70342,0.21701 -4.14561,1.64772c-2.70049,2.67901 -2.82472,6.99552 -2.82472,6.99552c0,0 -2.22322,-0.15125 -3.76771,-1.27392c-1.72106,-1.25103 -2.79578,-3.60218 -3.08343,-6.09473z" fill="#323344" stroke="#000000" stroke-width="0" stroke-linecap="butt"/><path d="M201.9535,174.95553l0.00526,0.01627l-0.02314,-0.00911z" fill="#323344" stroke="#000000" stroke-width="0" stroke-linecap="butt"/><path d="M197.76844,180.20039c-0.5458,-4.72939 2.38029,-9.29743 7.10967,-9.84324c2.52659,-0.29159 4.12205,0.6455 5.76923,2.15012c0.55495,0.50692 1.43391,1.51558 1.98196,2.62649c0.87015,1.76384 0.67873,3.63898 0.59401,3.9344c-0.06746,0.23523 -3.13146,-1.12107 -5.77899,1.50539c-2.70049,2.67901 -2.82472,6.99552 -2.82472,6.99552c0,0 -2.22323,-0.15123 -3.76772,-1.27392c-1.72106,-1.25103 -2.79578,-3.60218 -3.08343,-6.09472z" fill="none" stroke="#000000" stroke-width="1" stroke-linecap="butt"/><path d="M202.9351,186.81367c0,0 -0.51685,-5.88202 2.29394,-8.25855c2.97202,-2.51287 7.79309,-0.84902 7.79309,-0.84902" fill="none" stroke="#000000" stroke-width="1" stroke-linecap="round"/><path d="M199.37272,184.37551c0,0 0.74991,-5.53478 3.26888,-8.73118c2.28691,-2.90194 7.66034,-2.80482 7.66034,-2.80482" fill="none" stroke="#000000" stroke-width="1" stroke-linecap="round"/><path d="M197.82575,179.20084c0,0 2.36997,-4.21744 3.83117,-5.77066c1.31839,-1.40143 4.55172,-3.14024 4.55172,-3.14024" fill="none" stroke="#000000" stroke-width="1" stroke-linecap="round"/><path d="M204.44257,184.91287c0,0 -2.64757,-0.27561 -3.69491,-0.78021c-1.02446,-0.49357 -2.522,-2.21502 -2.522,-2.21502" fill="none" stroke="#000000" stroke-width="1" stroke-linecap="round"/><path d="M205.34704,183.77238c0,0 -3.09785,-1.15016 -4.43136,-1.96378c-1.18853,-0.72514 -3.18495,-2.68313 -3.18495,-2.68313" fill="none" stroke="#000000" stroke-width="1" stroke-linecap="round"/><path d="M206.00245,181.9699c0,0 -3.11937,-1.52358 -4.23043,-2.72403c-1.21427,-1.31194 -2.7731,-4.84288 -2.7731,-4.84288" fill="none" stroke="#000000" stroke-width="1" stroke-linecap="round"/><path d="M200.95861,171.93194c0,0 3.23812,3.6907 4.29984,5.25355c0.88032,1.29583 1.62882,3.47351 1.62882,3.47351" fill="none" stroke="#000000" stroke-width="1" stroke-linecap="round"/><path d="M204.16369,170.52594c0,0 2.44693,2.18661 3.2498,3.55272c0.8426,1.43369 1.69241,4.85648 1.69241,4.85648" fill="none" stroke="#000000" stroke-width="1" stroke-linecap="round"/><path d="M209.59732,171.97107c0,0 0.95752,1.95722 1.2369,3.03667c0.29149,1.12629 0.47724,3.58651 0.47724,3.58651" fill="none" stroke="#000000" stroke-width="1" stroke-linecap="round"/></g><g><g stroke="#000000" stroke-width="1"><path d="M252.69964,182.73523c0,-1.53387 0.31547,-4.99917 1.32734,-5.99764c0.99434,-0.98116 9.68564,4.98037 9.68564,5.99764c0,3.04115 -2.41339,5.09091 -5.45454,5.09091c-3.04115,0 -5.55844,-2.04976 -5.55844,-5.09091z" fill="#d90250" stroke-linecap="butt"/><path d="M262.31004,174.47548c0,0 -1.14583,3.18296 -0.17478,3.99391c1.50924,1.2604 5.88907,0.83726 5.88907,0.83726c0,0 -2.44714,1.85716 -2.92096,3.08046c-0.47852,1.23545 0.06381,4.29616 0.06381,4.29616c0,0 -2.42769,-4.05732 -4.38107,-3.99147c-0.88372,0.02979 -1.07348,2.01744 -1.07348,2.01744c0,0 -1.39632,-3.38831 -2.27085,-4.22562c-0.72495,-0.6941 -2.61226,-0.4497 -2.61226,-0.4497c0,0 -0.01778,-1.28272 -0.46809,-3.11848c-0.25303,-1.0315 -1.60984,-2.90749 -1.60984,-2.90749c0,0 3.58372,1.21425 5.2469,1.2956c1.50767,0.07374 4.31154,-0.82807 4.31154,-0.82807z" fill="#fdebf6" stroke-linecap="round"/></g><g stroke="#000000" stroke-linecap="round"><path d="M216.12821,198.89106c0,0 1.80667,-6.93923 2.11723,-8.13208c0.08761,-0.3365 0.8114,-0.59868 1.6187,-0.53784c0.73772,0.0556 2.39749,0.22758 4.53715,0.38695c9.71077,0.72329 30.32432,2.20505 30.32432,2.20505l0.31169,15.16883z" fill="#4fa6ed" stroke-width="0"/><path d="M254.72561,192.81314l0.31169,15.16883l-13.5994,-3.17743c-0.26487,-1.39792 -1.01829,-6.75002 -1.75514,-7.1849c-0.49515,-0.86653 -3.05372,-0.1427 -4.05988,0.10555c-2.23072,0.55039 -6.69201,1.45215 -8.14126,3.81854l-3.88452,-0.9076c1.16177,-0.89254 2.14088,-2.02634 2.77165,-3.11327c0.58228,-1.00338 1.88124,-3.31432 1.24133,-4.27418l-2.64347,-2.59855c9.92162,0.73703 29.75899,2.163 29.75899,2.163z" fill="#2e67e5" stroke-width="0"/><path d="M216.12821,198.89106c0,0 1.80667,-6.93923 2.11723,-8.13208c0.08761,-0.3365 0.8114,-0.59868 1.6187,-0.53784c0.73772,0.0556 2.39749,0.22758 4.53715,0.38695c9.71077,0.72329 30.32432,2.20505 30.32432,2.20505l0.31169,15.16883z" fill="none" stroke-width="1"/></g><path d="M227.76458,185.38458l6.54545,-4.83117l-0.98701,-5.81818c0,0 6.76544,-2.59679 8.81376,-3.27347c0.98881,-0.32666 2.82261,-0.57069 2.82261,-0.57069c0,0 4.65328,1.37707 7.9239,4.74913c2.43302,2.50849 4.23706,6.9441 4.76055,8.80674c0.25094,0.89288 -0.58913,3.18066 -1.03263,4.99336c-0.35143,1.43636 -0.20257,2.40044 -0.83594,3.36214c-1.46874,2.23015 -3.4912,2.03667 -3.4912,2.03667c0,0 -1.43077,0.13353 -2.04456,-0.037c-0.79784,-0.22166 -2.33679,-1.18029 -2.33679,-1.18029c0,0 -13.64238,-1.26786 -16.57367,-2.39815c-3.35867,-1.29508 -3.56446,-5.83911 -3.56446,-5.83911z" fill="#ff292e" stroke="#000000" stroke-width="0" stroke-linecap="round"/><path d="M257.64384,184.44694c0.25094,0.89288 -0.58913,3.18066 -1.03263,4.99336c-0.35143,1.43636 -0.20257,2.40044 -0.83594,3.36214c-1.46874,2.23015 -3.4912,2.03667 -3.4912,2.03667c0,0 -1.43077,0.13353 -2.04456,-0.037c-0.79784,-0.22166 -2.33679,-1.18029 -2.33679,-1.18029c0,0 -3.76343,-0.34976 -7.7617,-0.84564c1.69769,-0.98854 3.27948,-2.90617 4.04483,-3.64811c3.86602,-3.74775 2.12901,-6.37984 2.56099,-7.4144c0.05251,-0.12577 0.03472,-0.2791 0.16875,-0.35507c0.21452,-0.12158 1.92597,2.50311 1.87438,2.85476c-0.32287,2.20085 -2.3182,5.41094 0.17757,7.20979c0.12003,0.08651 2.27738,1.13129 2.65555,0.69276c0.18027,-0.20904 1.97885,-1.29996 2.3882,-2.45199c1.20095,-3.37989 1.50946,-9.2618 1.34812,-10.55705c1.14812,2.05457 1.96088,4.18878 2.28444,5.34005z" fill="#d90251" stroke="#000000" stroke-width="0" stroke-linecap="butt"/><g><path d="M237.57359,210.93085c0,0 -2.38284,1.55187 -3.22615,1.46377c-0.63812,-0.06667 -1.46951,-1.1585 -2.00449,-1.9701c-0.32234,-0.48902 -0.55342,-0.58603 -0.61147,-0.15933c-0.12733,0.93581 -0.45529,2.52782 -1.2515,3.15301c-1.20887,0.94921 -6.97012,0.31073 -7.286,0.45007c-3.44544,1.5199 -7.3625,2.97426 -10.62565,3.47012c-1.0431,0.15851 -2.46458,-1.5188 -2.46458,-1.5188c0,0 -3.66397,1.40371 -5.85437,-1.63326c-0.80668,-1.11845 -1.039,-3.61198 -1.10218,-4.65492c-0.00803,-0.13245 -0.09419,-0.36737 -0.00802,-0.5478c0.10519,-0.22028 2.18212,-2.03821 2.95141,-2.10809c4.44933,-0.40417 29.66226,-0.29206 29.66226,-0.29206c0,0 1.34573,0.71151 1.55548,1.42748c0.25653,0.87565 0.26524,2.91992 0.26524,2.91992z" fill="#f38285" stroke="#000000" stroke-width="0" stroke-linecap="round"/><path d="M234.34743,212.39464c-0.63813,-0.06667 -1.46952,-1.1585 -2.00449,-1.9701c-0.32234,-0.48902 -0.55342,-0.58603 -0.61147,-0.15933c-0.12733,0.93581 -0.45529,2.52782 -1.2515,3.15301c-1.20887,0.94921 -6.97011,0.31072 -7.28599,0.45007c-1.99601,0.88051 -4.1503,1.73901 -6.24404,2.40191c0.28435,-0.92786 0.43738,-1.91314 0.43738,-2.93416c0,-2.58013 -0.97714,-4.93203 -2.58155,-6.70583c8.90797,-0.10028 20.94709,-0.04674 20.94709,-0.04674c0,0 1.34573,0.71151 1.55548,1.42748c0.25653,0.87565 0.26524,2.91992 0.26524,2.91992c0,0 -2.38284,1.55188 -3.22615,1.46377z" fill="#e96698" stroke="#000000" stroke-width="0" stroke-linecap="round"/><path d="M237.57359,210.93085c0,0 -2.38284,1.55187 -3.22615,1.46377c-0.63812,-0.06667 -1.46951,-1.1585 -2.00449,-1.9701c-0.32234,-0.48902 -0.55342,-0.58603 -0.61147,-0.15933c-0.12733,0.93581 -0.45529,2.52782 -1.2515,3.15301c-1.20887,0.94921 -6.97012,0.31073 -7.286,0.45007c-3.44544,1.5199 -7.3625,2.97426 -10.62565,3.47012c-1.0431,0.15851 -2.46458,-1.5188 -2.46458,-1.5188c0,0 -3.66397,1.40371 -5.85437,-1.63326c-0.80668,-1.11845 -1.039,-3.61198 -1.10218,-4.65492c-0.00803,-0.13245 -0.09419,-0.36737 -0.00802,-0.5478c0.10519,-0.22028 2.18212,-2.03821 2.95141,-2.10809c4.44933,-0.40417 29.66226,-0.29206 29.66226,-0.29206c0,0 1.34573,0.71151 1.55548,1.42748c0.25653,0.87565 0.26524,2.91992 0.26524,2.91992z" fill="none" stroke="#000000" stroke-width="1" stroke-linecap="round"/><path d="M215.92117,200.31568l0.61539,-3.79487l9.12821,-2.25641l1.97306,4.29813c0,0 1.2416,-1.35972 2.96496,-2.00159c1.32804,-0.49462 3.15044,0.97866 3.62452,1.20893c1.27221,0.61793 2.20669,1.7253 2.20669,1.7253l0.82052,7.17949c0,0 -1.99578,1.78611 -3.90913,2.20274c-2.65957,0.57912 -10.56023,0.94795 -10.56023,0.94795c0,0 -2.61291,1.93389 -6.04966,2.77263c-3.10767,0.75842 -6.98247,0.47178 -8.51769,-0.24516c-0.45383,-0.21193 -1.96413,-1.18658 -2.55081,-2.44496c-0.76821,-1.64774 -0.46587,-3.78196 0.69282,-5.32731c1.05145,-1.40232 3.26334,-1.28908 5.23389,-1.97618c2.31042,-0.80561 4.32748,-2.28868 4.32748,-2.28868z" fill="#f27056" stroke="#000000" stroke-width="0" stroke-linecap="round"/><path d="M215.92117,200.31568l0.61539,-3.79487l9.12821,-2.25641l0.52515,1.14398c-0.21229,0.94728 -0.43449,3.45915 -0.43449,3.77726c0,0.69036 0.55965,1.25 1.25,1.25c0.65287,0 0.81891,-1.21481 0.82142,-1.25c0.02215,-0.31008 0.58335,-0.83859 0.74433,-1.45979c0.51823,-0.40309 1.22172,-0.86327 2.03161,-1.16491c1.32804,-0.49462 3.15044,0.97866 3.62452,1.20893c0.46722,0.22694 0.88889,0.51988 1.23545,0.79975c-1.55191,0.97604 -3.41977,3.23627 -4.89524,3.92193c-1.74905,0.8128 -3.65663,0.39984 -5.48096,1.09979c-1.61091,0.61807 -6.72237,3.833 -9.32747,6.35695c-0.83742,0.34883 -1.44441,1.13999 -1.5292,2.08171c-0.01901,0.0793 -0.02907,0.1551 -0.02963,0.22707c-0.00084,0.10856 0.0126,0.21126 0.03835,0.30889c0.01747,0.14173 0.04679,0.27978 0.08695,0.41314c-2.47819,0.20837 -4.95384,-0.08741 -6.10775,-0.62628c-0.45383,-0.21193 -1.96413,-1.18658 -2.55081,-2.44496c-0.76821,-1.64774 -0.46587,-3.78196 0.69282,-5.32731c1.05145,-1.40232 3.26334,-1.28908 5.23389,-1.97618c2.31042,-0.80561 4.32748,-2.28868 4.32748,-2.28868z" fill="#f79d58" stroke="#000000" stroke-width="0" stroke-linecap="round"/><path d="M227.43399,199.36422c0,0 2.75362,-2.96429 4.03571,-2.96429c1.28209,0 3.96429,2.25 3.96429,2.25c0,0 -1.96791,2.60714 -3.25,2.60714c-1.15461,0 -4.75,-1.89285 -4.75,-1.89285z" fill="#000000" stroke="none" stroke-width="0.5" stroke-linecap="butt"/><path d="M215.92117,200.31568l0.61538,-3.79487l9.12821,-2.25641l1.97305,4.29812c0,0 1.24161,-1.35972 2.96497,-2.00158c1.32803,-0.49462 3.15044,0.97866 3.62452,1.20893c1.27221,0.61793 2.20669,1.7253 2.20669,1.7253l0.82051,7.17949c0,0 -1.99578,1.78612 -3.90912,2.20275c-2.65957,0.57912 -10.56024,0.94795 -10.56024,0.94795c0,0 -2.61291,1.93389 -6.04966,2.77262c-3.10767,0.75842 -6.98247,0.47178 -8.51769,-0.24515c-0.45383,-0.21194 -1.96412,-1.18658 -2.55081,-2.44496c-0.76821,-1.64774 -0.46587,-3.78196 0.69282,-5.32731c1.05144,-1.40232 3.26334,-1.28908 5.23388,-1.97618c2.31042,-0.8056 4.32748,-2.28868 4.32748,-2.28868z" fill="none" stroke="#000000" stroke-width="1" stroke-linecap="round"/><path d="M223.36332,201.30195c-0.12621,0.87821 -1.84164,1.35722 -3.61418,1.61292c0.68482,0.40756 1.18157,0.74011 1.18157,0.95413c0,0.66506 -2.47803,0.83807 -5.02232,0.8283c0.96959,1.23472 1.76854,2.61519 0.21631,2.61519c-0.54558,0 -1.66896,-1.28019 -2.5092,-2.66695c-1.06493,-0.04195 -1.99226,-0.10183 -2.5597,-0.15111c-0.06617,0.0191 -0.1361,0.02934 -0.20842,0.02934c-0.1356,0 -0.26279,-0.03599 -0.37256,-0.09893c-0.22552,-0.12933 -0.37744,-0.37246 -0.37744,-0.65107c0,-0.3862 0.2919,-0.70422 0.66712,-0.74547c0.52304,-0.36552 1.17933,-0.47106 1.89524,-0.45146c-0.1632,-0.60498 -0.13687,-1.08001 0.1936,-1.26884c0.42543,-0.2431 1.20003,-0.2756 2.13842,-0.24049c-0.74581,-0.74802 -1.49359,-1.73662 -0.86851,-2.33205c0.33684,-0.32086 1.59157,-0.68368 3.06231,-1.00616c0.29091,-0.16426 0.76805,-0.25939 1.33229,-0.2713c2.1021,-0.39899 4.2231,-0.67739 4.56763,-0.6247c0.39495,0.06039 0.75,0.16659 0.75,0.75c0,0.60096 -0.51993,0.99518 -1.28005,1.25237c0.60783,0.59755 0.96001,1.40787 0.8079,2.4663zM221.44656,200.82154c0.34602,-0.14426 -0.4831,-0.59613 -0.59642,-0.95347c-0.07844,-0.24738 -0.23301,-0.46348 -0.42963,-0.64314c-1.66201,0.14292 -3.37472,0.04453 -3.71032,0.06073c-0.23669,0.01143 -0.92691,0.23863 -0.92525,0.30523c0.01305,0.52411 0.51392,1.069 1.19848,1.59177c1.59584,0.09293 3.28677,0.12932 4.46314,-0.36112zM215.07982,202.90572c-0.40419,-0.19235 -0.76074,-0.37098 -0.72804,-0.12847c0.24306,0.04191 0.48653,0.08618 0.72804,0.12847z" fill="#efdee9" stroke="none" stroke-width="0.5" stroke-linecap="butt"/><path d="M223.36333,201.30195c-0.12622,0.87821 -1.84164,1.35722 -3.61418,1.61292c0.68482,0.40756 1.18156,0.7401 1.18156,0.95413c0,0.66506 -2.47803,0.83808 -5.02232,0.8283c0.96959,1.23471 1.76854,2.61519 0.2163,2.61519c-0.54559,0 -1.66895,-1.28018 -2.5092,-2.66695c-1.06493,-0.04195 -1.99226,-0.10183 -2.5597,-0.15112c-0.06617,0.0191 -0.13609,0.02934 -0.20841,0.02934c-0.1356,0 -0.2628,-0.03598 -0.37256,-0.09893c-0.22552,-0.12932 -0.37744,-0.37246 -0.37744,-0.65107c0,-0.3862 0.2919,-0.70423 0.66711,-0.74547c0.52305,-0.36552 1.17934,-0.47106 1.89524,-0.45146c-0.1632,-0.60498 -0.13687,-1.08 0.1936,-1.26884c0.42543,-0.2431 1.20003,-0.2756 2.13842,-0.24049c-0.74581,-0.74802 -1.49359,-1.73663 -0.86851,-2.33205c0.33684,-0.32086 1.59158,-0.68367 3.06231,-1.00616c0.29091,-0.16426 0.76805,-0.25939 1.33228,-0.2713c2.10209,-0.39898 4.2231,-0.67739 4.56763,-0.62471c0.39496,0.0604 0.75,0.16659 0.75,0.75c0,0.60096 -0.51993,0.99518 -1.28004,1.25237c0.60783,0.59755 0.96001,1.40787 0.8079,2.4663zM221.44657,200.82154c0.34602,-0.14425 -0.48311,-0.59613 -0.59642,-0.95348c-0.07845,-0.24737 -0.233,-0.46348 -0.42963,-0.64313c-1.66201,0.14292 -3.37472,0.04452 -3.71032,0.06072c-0.23669,0.01142 -0.92692,0.23863 -0.92525,0.30523c0.01304,0.52411 0.51392,1.069 1.19848,1.59177c1.59584,0.09294 3.28677,0.12932 4.46315,-0.36112zM215.07983,202.90572c-0.40419,-0.19234 -0.76074,-0.37098 -0.72804,-0.12847c0.24307,0.04191 0.48654,0.08618 0.72804,0.12847z" fill="none" stroke="#000000" stroke-width="1" stroke-linecap="butt"/></g><g><g stroke="#000000"><path d="M238.82951,205.88038c0,0 1.5573,-1.68619 11.89481,-1.21113c10.08872,0.46363 16.62467,2.25009 16.62467,2.25009l-0.10389,6.7013c0,0 -1.37853,1.51311 -2.1519,2.16535c-0.63742,0.53758 -2.15979,1.47102 -2.15979,1.47102l-1.24676,-0.98702l-0.62337,2.02598c0,0 -4.02908,1.95244 -6.2997,2.31968c-2.98677,0.48307 -6.94706,0.32967 -6.94706,0.32967l-1.35065,-1.55844l-0.98701,1.4026c0,0 -7.0457,-1.28854 -8.11763,-6.01985c-1.06614,-4.70571 1.46828,-8.88924 1.46828,-8.88924z" fill="#f38285" stroke-width="0" stroke-linecap="round"/><path d="M267.34899,206.91934l-0.10389,6.7013c0,0 -1.37853,1.51311 -2.1519,2.16535c-0.63742,0.53758 -2.15979,1.47102 -2.15979,1.47102l-1.24676,-0.98702l-0.62337,2.02598c0,0 -4.02908,1.95244 -6.2997,2.31968c-1.14498,0.18518 -2.43301,0.27684 -3.58616,0.31945c4.47623,-2.95709 8.80818,-4.33279 9.46105,-10.57623c0.1423,-1.36082 0.32603,-3.34162 -0.29529,-4.78476c4.42361,0.63946 7.00581,1.34525 7.00581,1.34525z" fill="#e96698" stroke-width="0" stroke-linecap="butt"/><path d="M238.82951,205.88038c0,0 1.5573,-1.68619 11.89481,-1.21113c10.08872,0.46363 16.62467,2.25009 16.62467,2.25009l-0.10389,6.7013c0,0 -1.37853,1.51311 -2.1519,2.16535c-0.63742,0.53758 -2.15979,1.47102 -2.15979,1.47102l-1.24676,-0.98702l-0.62337,2.02598c0,0 -4.02908,1.95244 -6.2997,2.31968c-2.98677,0.48307 -6.94706,0.32967 -6.94706,0.32967l-1.35065,-1.55844l-0.98701,1.4026c0,0 -7.0457,-1.28854 -8.11763,-6.01985c-1.06614,-4.70571 1.46828,-8.88924 1.46828,-8.88924z" fill="none" stroke-width="1" stroke-linecap="round"/></g><path d="M241.02665,201.59831c0,0 -0.16113,-1.39132 0.83177,-2.4497c0.83775,-0.89299 2.76154,-1.45452 3.62241,-1.69853c2.38877,-0.67707 5.54691,-0.99258 7.61229,-0.93073c1.04307,0.03123 1.7958,1.00507 2.22024,1.74876c0.26481,0.464 1.47051,-1.05415 2.4616,-1.18214c0.51031,-0.06591 1.241,1.39616 1.29032,1.60632c0.27224,1.16 -0.46485,3.6929 -0.46485,3.6929c0,0 0.55816,0.68997 1.86673,1.27423c1.03935,0.46406 2.76995,0.7404 3.51636,1.41464c1.50659,1.3609 1.82454,4.21388 1.60024,5.17225c-0.24267,1.03685 -3.9622,4.09279 -8.88811,5.69858c-4.94282,1.6113 -11.0967,1.76786 -14.05848,0.12839c-4.16169,-2.30368 -1.99875,-5.63074 -3.73745,-8.31564c-1.08094,-1.66919 -1.81499,-3.6801 -2.00342,-6.10256c-0.17057,-2.19284 1.96643,-1.49939 1.96643,-1.49939l2.16393,1.44263z" fill="#000000" stroke="#000000" stroke-width="0" stroke-linecap="round"/><path d="M241.85842,199.14863c0.83775,-0.893 2.76153,-1.45453 3.62241,-1.69853c2.38877,-0.67707 5.54691,-0.99258 7.61229,-0.93073c1.04307,0.03123 1.7958,1.00507 2.22024,1.74876c0.12484,0.21875 0.32768,0.06251 0.74971,-0.2465c0.24134,1.38489 1.33505,3.38885 1.76753,3.8773c0.27689,0.31272 0.59618,0.53046 0.94266,0.66744c0.25423,0.24382 0.79832,0.6932 1.69391,1.09308c1.03934,0.46406 2.76994,0.7404 3.51636,1.41464c1.50659,1.3609 1.82454,4.21388 1.60024,5.17225c-0.24267,1.03686 -3.9622,4.0928 -8.88811,5.69858c-4.94281,1.61129 -11.09669,1.76786 -14.05848,0.12839c-4.1617,-2.30368 -1.99875,-5.63074 -3.73745,-8.31564c-0.39041,-0.60287 -0.73557,-1.25031 -1.02611,-1.94562c1.44896,-0.35535 2.86577,-1.1564 3.48748,-1.91535c1.02413,-1.2502 0.74361,-2.73538 -0.06577,-3.8863c0.12523,-0.28958 0.30525,-0.5869 0.56311,-0.86176z" fill="#f27056" stroke="#000000" stroke-width="0" stroke-linecap="round"/><path d="M241.85842,199.14863c0.83775,-0.893 2.76153,-1.45453 3.62241,-1.69853c1.93411,-0.5482 4.3726,-0.85938 6.32706,-0.92514c-0.81693,1.80489 -0.30703,5.20341 0.53947,7.30698c0.42385,1.05329 2.5756,1.46263 4.50623,2.2612c1.73506,0.71768 3.29154,1.87585 3.25475,1.96104c-2.24437,5.19674 -10.33761,4.35496 -13.11812,7.14551c-0.54778,0.44603 -0.90301,1.11946 -0.92179,1.8764c-1.35367,-0.17705 -2.53773,-0.50819 -3.43126,-1.00279c-4.1617,-2.30368 -1.99875,-5.63074 -3.73745,-8.31564c-0.39041,-0.60287 -0.73557,-1.25031 -1.02611,-1.94562c1.44896,-0.35535 2.86577,-1.1564 3.48748,-1.91535c1.02413,-1.2502 0.74361,-2.73538 -0.06577,-3.8863c0.12523,-0.28958 0.30525,-0.5869 0.56311,-0.86176z" fill="#f79d58" stroke="#000000" stroke-width="0" stroke-linecap="butt"/><path d="M241.02665,201.59831c0,0 -0.16113,-1.39132 0.83177,-2.4497c0.83775,-0.89299 2.76154,-1.45452 3.62241,-1.69853c2.38877,-0.67707 5.54691,-0.99258 7.61229,-0.93073c1.04307,0.03123 1.7958,1.00507 2.22024,1.74876c0.26481,0.464 1.47051,-1.05415 2.4616,-1.18214c0.51031,-0.06591 1.241,1.39616 1.29032,1.60632c0.27224,1.16 -0.46485,3.6929 -0.46485,3.6929c0,0 0.55816,0.68997 1.86673,1.27423c1.03935,0.46406 2.76995,0.7404 3.51636,1.41464c1.50659,1.3609 1.82454,4.21388 1.60024,5.17225c-0.24267,1.03685 -3.9622,4.09279 -8.88811,5.69858c-4.94282,1.6113 -11.0967,1.76786 -14.05848,0.12839c-4.16169,-2.30368 -1.99875,-5.63074 -3.73745,-8.31564c-1.08094,-1.66919 -1.81499,-3.6801 -2.00342,-6.10256c-0.17057,-2.19284 1.96643,-1.49939 1.96643,-1.49939l2.16393,1.44263z" fill="none" stroke="#000000" stroke-width="1" stroke-linecap="round"/><g stroke-linecap="butt"><path d="M252.5393,199.88264c0.33541,0.67082 -0.33541,1.00623 -0.33541,1.00623l-0.28805,0.14305c0.5596,0.02759 1.12093,0.04773 1.68439,0.04974l0.74487,0.13696c0.11233,0.00088 0.23865,0.03169 0.37833,0.10851c0.01207,0.00664 0.0238,0.01338 0.0352,0.02022c0.10958,0.0623 0.22778,0.1599 0.29716,0.30922c0.07127,0.14842 0.07158,0.30171 0.05011,0.42592c-0.00196,0.01314 -0.0042,0.02648 -0.00674,0.04002c-0.03069,0.16366 -0.09089,0.28417 -0.166,0.37263c-0.53966,0.9156 -1.17733,1.59747 -1.87592,2.14471c0.44693,0.02105 0.89431,0.04362 1.34243,0.06754c0.13178,-0.02352 0.28547,-0.00723 0.4564,0.08619c0.12846,0.05748 0.26734,0.15699 0.34667,0.3288c0.08984,0.16654 0.08613,0.33736 0.05503,0.47461c-0.03493,0.24208 -0.15084,0.38946 -0.28308,0.47906l-0.30906,0.36081c-0.31457,0.16901 -0.62234,0.3469 -0.92498,0.53136c0.77796,-0.05489 1.54567,-0.12761 2.29457,-0.22164l0.71423,-0.10215c0,0 0.74247,-0.10607 0.84853,0.63639c0.10607,0.74246 -0.6364,0.84852 -0.6364,0.84852l-0.74031,0.10564c-1.57037,0.19547 -3.22415,0.30171 -4.88359,0.34753c-1.49498,1.05791 -2.97474,2.12269 -4.67506,2.86811c0,0 -0.68712,0.30062 -0.98773,-0.3865c-0.30061,-0.68712 0.3865,-0.98773 0.3865,-0.98773c0.93212,-0.4069 1.79954,-0.91534 2.64092,-1.46765c-0.89839,-0.00556 -1.78614,-0.02461 -2.65055,-0.05242c-0.14683,0.02838 -0.31942,0.01288 -0.49728,-0.10792c-0.12738,-0.06797 -0.25404,-0.18034 -0.3171,-0.36598c-0.08077,-0.17865 -0.06503,-0.34724 -0.01845,-0.4839c0.04904,-0.21714 0.17105,-0.34798 0.30289,-0.42678l0.07122,-0.06763c0.60063,-0.45947 1.24815,-0.81898 1.91169,-1.13797c-0.58706,-0.00733 -1.17552,-0.01108 -1.7661,-0.01108h-0.31777c-0.15437,0.02898 -0.33995,0.01536 -0.51934,-0.11905c-0.12448,-0.07349 -0.242,-0.19234 -0.29658,-0.38456c-0.07493,-0.18524 -0.05513,-0.35121 -0.00199,-0.48564c0.05899,-0.21587 0.19676,-0.34051 0.33617,-0.41246c0.92758,-0.72615 1.77093,-1.47722 2.6271,-2.20645c-1.03601,0.01313 -2.06888,0.10702 -3.10023,0.36499c0,0 -0.72761,0.1819 -0.90951,-0.5457c-0.1819,-0.7276 0.5457,-0.90951 0.5457,-0.90951c1.75599,-0.43876 3.51009,-0.44594 5.27539,-0.36457c0.53455,-0.39376 1.09593,-0.76931 1.70324,-1.11745l0.45228,-0.22743c0,0 0.67082,-0.33541 1.00623,0.33541zM250.61562,204.54065c0.92134,-0.48705 1.77566,-1.08314 2.47019,-1.96694c-1.0901,-0.01292 -2.17375,-0.09694 -3.25275,-0.15936c-0.84801,0.65233 -1.63025,1.34934 -2.44237,2.05101c1.07822,0.01331 2.15184,0.03912 3.22493,0.07529zM248.41734,207.10742c0.81395,0.00817 1.63768,0.00551 2.4615,-0.01196c0.4745,-0.33625 0.95159,-0.6703 1.4386,-0.99122c-0.54518,-0.02411 -1.08985,-0.04547 -1.63462,-0.06395c-0.74611,0.35444 -1.51184,0.68189 -2.26548,1.06713z" fill="#efdee9" stroke="none" stroke-width="0.5"/><path d="M252.5393,199.88264c0.33541,0.67082 -0.33541,1.00623 -0.33541,1.00623l-0.28805,0.14305c0.5596,0.02759 1.12093,0.04773 1.68439,0.04974l0.74487,0.13696c0.11233,0.00088 0.23865,0.03169 0.37833,0.10851c0.01207,0.00664 0.0238,0.01338 0.0352,0.02022c0.10958,0.0623 0.22778,0.1599 0.29716,0.30922c0.07127,0.14842 0.07158,0.30171 0.05011,0.42592c-0.00196,0.01314 -0.0042,0.02648 -0.00674,0.04002c-0.03069,0.16366 -0.09089,0.28417 -0.166,0.37263c-0.53966,0.9156 -1.17733,1.59747 -1.87592,2.14471c0.44693,0.02105 0.89431,0.04362 1.34243,0.06754c0.13178,-0.02352 0.28547,-0.00723 0.4564,0.08619c0.12846,0.05748 0.26734,0.15699 0.34667,0.3288c0.08984,0.16654 0.08613,0.33736 0.05503,0.47461c-0.03493,0.24208 -0.15084,0.38946 -0.28308,0.47906l-0.30906,0.36081c-0.31457,0.16901 -0.62234,0.3469 -0.92498,0.53136c0.77796,-0.05489 1.54567,-0.12761 2.29457,-0.22164l0.71423,-0.10215c0,0 0.74247,-0.10607 0.84853,0.63639c0.10607,0.74246 -0.6364,0.84852 -0.6364,0.84852l-0.74031,0.10564c-1.57037,0.19547 -3.22415,0.30171 -4.88359,0.34753c-1.49498,1.05791 -2.97474,2.12269 -4.67506,2.86811c0,0 -0.68712,0.30062 -0.98773,-0.3865c-0.30061,-0.68712 0.3865,-0.98773 0.3865,-0.98773c0.93212,-0.4069 1.79954,-0.91534 2.64092,-1.46765c-0.89839,-0.00556 -1.78614,-0.02461 -2.65055,-0.05242c-0.14683,0.02838 -0.31942,0.01288 -0.49728,-0.10792c-0.12738,-0.06797 -0.25404,-0.18034 -0.3171,-0.36598c-0.08077,-0.17865 -0.06503,-0.34724 -0.01845,-0.4839c0.04904,-0.21714 0.17105,-0.34798 0.30289,-0.42678l0.07122,-0.06763c0.60063,-0.45947 1.24815,-0.81898 1.91169,-1.13797c-0.58706,-0.00733 -1.17552,-0.01108 -1.7661,-0.01108h-0.31777c-0.15437,0.02898 -0.33995,0.01536 -0.51934,-0.11905c-0.12448,-0.07349 -0.242,-0.19234 -0.29658,-0.38456c-0.07493,-0.18524 -0.05513,-0.35121 -0.00199,-0.48564c0.05899,-0.21587 0.19676,-0.34051 0.33617,-0.41246c0.92758,-0.72615 1.77093,-1.47722 2.6271,-2.20645c-1.03601,0.01313 -2.06888,0.10702 -3.10023,0.36499c0,0 -0.72761,0.1819 -0.90951,-0.5457c-0.1819,-0.7276 0.5457,-0.90951 0.5457,-0.90951c1.75599,-0.43876 3.51009,-0.44594 5.27539,-0.36457c0.53455,-0.39376 1.09593,-0.76931 1.70324,-1.11745l0.45228,-0.22743c0,0 0.67082,-0.33541 1.00623,0.33541zM250.61562,204.54065c0.92134,-0.48705 1.77566,-1.08314 2.47019,-1.96694c-1.0901,-0.01292 -2.17375,-0.09694 -3.25275,-0.15936c-0.84801,0.65233 -1.63025,1.34934 -2.44237,2.05101c1.07822,0.01331 2.15184,0.03912 3.22493,0.07529zM248.41734,207.10742c0.81395,0.00817 1.63768,0.00551 2.4615,-0.01196c0.4745,-0.33625 0.95159,-0.6703 1.4386,-0.99122c-0.54518,-0.02411 -1.08985,-0.04547 -1.63462,-0.06395c-0.74611,0.35444 -1.51184,0.68189 -2.26548,1.06713z" fill="none" stroke="#000000" stroke-width="1"/></g></g><path d="M227.76458,185.38458l6.54545,-4.83117l-0.98701,-5.81818c0,0 6.76544,-2.59679 8.81376,-3.27347c0.98881,-0.32666 2.82261,-0.57069 2.82261,-0.57069c0,0 4.65328,1.37707 7.9239,4.74913c2.43302,2.50849 4.23706,6.9441 4.76055,8.80674c0.25094,0.89288 -0.58913,3.18066 -1.03263,4.99336c-0.35143,1.43636 -0.20257,2.40044 -0.83594,3.36214c-1.46874,2.23015 -3.4912,2.03667 -3.4912,2.03667c0,0 -1.43077,0.13353 -2.04456,-0.037c-0.79784,-0.22166 -2.33679,-1.18029 -2.33679,-1.18029c0,0 -13.64238,-1.26786 -16.57367,-2.39815c-3.35867,-1.29508 -3.56446,-5.83911 -3.56446,-5.83911z" fill="none" stroke="#000000" stroke-width="1" stroke-linecap="round"/><path d="M255.92043,192.50145l1.09091,-4.36363l2.49351,2.18182l-2.12987,3.01299z" fill="#feecf7" stroke="#000000" stroke-width="1" stroke-linecap="round"/><path d="M239.66067,177.38458l0.2078,5.55845c0,0 -3.71223,1.97602 -4.67538,2.50219c-0.43072,0.2353 -0.95228,0.85055 -0.96912,1.18174c-0.04803,0.94468 -0.27757,5.45892 -0.27757,5.45892" fill="none" stroke="#000000" stroke-width="1" stroke-linecap="round"/><path d="M246.72561,180.7612c0,0 1.39103,2.20529 1.75987,2.79003c0.16912,0.26812 0.30243,0.80057 0.22711,1.03908c-0.28452,0.90098 -2.03893,6.4566 -2.03893,6.4566" fill="none" stroke="#000000" stroke-width="1" stroke-linecap="round"/><path d="M231.71262,187.56638l2.4935,3.37662l2.96104,-1.4026l3.06494,2.28571l3.58441,-3.06493l1.81818,2.02598l1.4026,-1.76623l0.88312,4.10389l-2.07792,2.02598l-3.06493,-0.88312l-2.28572,2.49351l-3.37662,-2.5974l-4,2.07792l-2.7013,-2.38961l-2.23377,0.72727c0,0 -1.01574,-2.11276 -1.92955,-2.74917c-1.01494,-0.70684 -3.88863,-1.30277 -3.88863,-1.30277c0,0 1.39404,-1.41642 1.44838,-2.2237c0.06497,-0.96521 -1.08474,-3.1789 -1.08474,-3.1789l3.37662,0.31169l1.61039,-1.1948l0.88312,4z" fill="#feecf7" stroke="#000000" stroke-width="1" stroke-linecap="round"/><g stroke="#000000" stroke-width="1" stroke-linecap="round"><path d="M231.1412,181.69627l-0.36364,-6.96104l13.66234,-1.76623l3.06493,-3.74026l3.79221,2.85715l6.07792,-2.59741l-0.25974,8.31169l-3.06494,-0.41558l-3.16883,2.44156l-2.90909,-1.81818l-3.63637,3.58441l-1.0909,-2.5974l-3.27273,2.90909l-2.33766,-2.23377l-1.76623,2.07792l-2.23377,-1.76623z" fill="#feecf7"/><path d="M243.45289,174.31964l0.77922,-0.93507" fill="none"/></g><g stroke="#000000" stroke-linecap="round"><path d="M246.15419,195.15079l1.45455,-1.97402c0,0 1.7157,1.92411 4.31329,1.83733c3.55994,-0.11893 4.36203,-2.5646 4.36203,-2.5646c0,0 2.51475,2.35673 2.00194,3.67003c-0.3863,0.98933 -3.89522,6.92418 -6.15923,7.04926c-2.10408,0.02195 -5.557,-5.99201 -5.557,-5.99201z" fill="#4ea5eb" stroke-width="0"/><path d="M247.60873,193.17679c0,0 1.7157,1.92411 4.31329,1.83733c3.55994,-0.11893 4.36203,-2.5646 4.36203,-2.5646c0,0 2.51475,2.35672 2.00194,3.67003c-0.34614,0.88644 -3.19915,5.74323 -5.41739,6.83382c0.14606,-0.60192 0.66788,-5.31229 0.66788,-5.31229c0,0 -3.3163,-1.57255 -4.5584,-2.44406c-0.53925,-0.37836 -0.96529,-1.19763 -1.41687,-1.95575z" fill="#2e67e5" stroke-width="0"/><path d="M246.15418,195.15081l1.45455,-1.97402c0,0 1.7157,1.92411 4.31329,1.83733c3.55994,-0.11893 4.36203,-2.5646 4.36203,-2.5646c0,0 2.51475,2.35672 2.00194,3.67003c-0.38631,0.98933 -3.89522,6.92418 -6.15923,7.04926c-2.10408,0.02195 -5.55699,-5.99201 -5.55699,-5.99201" fill="none" stroke-width="1"/></g></g><path d="M192.06803,227.93197v-95.86394h95.86394v95.86394z" fill="none" stroke="none" stroke-width="0" stroke-linecap="butt"/><g stroke="#000000"><g stroke-linecap="butt"><path d="M263.96542,169.63063l0.57937,-2.26968c0,0 9.07775,-0.88197 11.11772,0.14941c1.43208,0.72404 1.43205,4.98664 -1.18086,5.51977c-3.47964,0.70998 -10.51622,-3.39951 -10.51622,-3.39951z" fill="#0066cd" stroke-width="0"/><path d="M263.96543,169.63063l0.20563,-0.80555c0,0 2.05246,0.18868 4.08373,0.56208c1.56999,0.28862 2.93725,0.73134 4.5246,1.00868c1.8879,0.32987 3.70636,0.50361 3.68341,0.58593c-0.27228,0.97685 -0.90517,1.8288 -1.98115,2.04835c-3.47964,0.70999 -10.51623,-3.39951 -10.51623,-3.39951z" fill="#061483" stroke-width="0"/><path d="M263.96543,169.63063l0.57937,-2.26968c0,0 9.07775,-0.88196 11.11772,0.14942c1.43209,0.72404 1.43205,4.98664 -1.18086,5.51977c-3.47964,0.70999 -10.51623,-3.39951 -10.51623,-3.39951z" fill="none" stroke-width="1"/></g><g stroke-linecap="round"><path d="M224.55153,174.18245c0,0 -9.41111,-24.36941 13.37978,-25.06915c23.36842,-0.71748 20.19869,20.03684 20.19869,20.03684c0,0 5.87763,-5.23405 6.81256,-4.72839c0.78913,0.42682 -0.24194,5.45611 -0.96028,7.39534c-0.53081,1.43295 -1.21192,4.50722 -2.5817,4.75565c-0.86218,0.15636 -4.58326,-2.50145 -4.58326,-2.50145c0,0 -7.24358,4.53724 -13.99038,6.22404c-6.66236,1.66568 -16.34527,1.09248 -16.34527,1.09248c0,0 -7.19817,-0.46587 -7.49475,-2.91977c-0.25271,-2.09092 5.56463,-4.28558 5.56463,-4.28558z" fill="#fde0be" stroke-width="0"/><path d="M252.79807,176.32271c-0.03327,0.01716 -1.38352,-2.03461 -1.38352,-2.03461l-3.07968,2.70725l-5.18323,-7.01542l-6.65256,4.62047l-1.25322,-6.47754c0,0 -11.35719,4.00376 -11.36567,3.97376c-1.67244,-5.91521 -4.6403,-22.40946 14.05109,-22.98335c23.36842,-0.71748 20.19869,20.03684 20.19869,20.03684c0,0 5.41642,3.98419 5.36254,4.14843c-0.47355,1.44377 -1.10343,3.09489 -2.09199,3.27419c-0.86218,0.15636 -4.58326,-2.50145 -4.58326,-2.50145c0,0 -1.61013,1.00855 -4.01919,2.25143z" fill="#fc988a" stroke-width="0"/><path d="M258.5917,170.61139l3.0084,-1.54934l-0.93416,5.02214z" fill="#f79587" stroke-width="0.5"/><path d="M237.93127,149.1133c23.36842,-0.71748 20.19869,20.03684 20.19869,20.03684c0,0 5.87763,-5.23405 6.81256,-4.72839c0.78913,0.42682 -0.24194,5.45611 -0.96028,7.39534c-0.53081,1.43295 -1.21192,4.50722 -2.5817,4.75565c-0.86218,0.15636 -4.58326,-2.50145 -4.58326,-2.50145c0,0 -7.24358,4.53724 -13.99038,6.22404c-6.66236,1.66568 -16.34527,1.09248 -16.34527,1.09248c0,0 -7.19817,-0.46587 -7.49475,-2.91977c-0.25271,-2.09092 5.56463,-4.28558 5.56463,-4.28558c0,0 -9.4111,-24.3694 13.37979,-25.06914z" fill="none" stroke-width="1"/></g><g stroke-linecap="round"><path d="M263.94542,161.65166c0,0 -1.7092,3.50492 -2.7529,4.95258c-0.90127,1.25009 -3.14494,3.22796 -3.14494,3.22796c0,0 -11.03036,-4.5482 -18.53448,-5.06079c-7.66493,-0.52358 -17.47638,0.76319 -17.47638,0.76319c0,0 -4.49021,-17.67414 -1.01605,-20.52224c2.52971,-2.07385 9.99677,-4.28468 17.37939,-4.05902c3.36479,0.10285 12.98691,0.49816 16.24442,3.4127c4.36594,3.90626 9.30095,17.2856 9.30095,17.2856z" fill="#ff292e" stroke-width="0"/><path d="M263.94542,161.65166c0,0 -1.7092,3.50493 -2.7529,4.95258c-0.90127,1.25009 -3.14493,3.22796 -3.14493,3.22796c0,0 -5.34171,-2.20257 -11.11951,-3.71494c-0.15125,-0.03959 1.71434,-14.20017 4.39456,-19.8779c0.88753,-1.88013 2.51149,-2.59838 3.32184,-1.87333c4.36594,3.90627 9.30095,17.28561 9.30095,17.28561z" fill="#ac0e49" stroke-width="0.5"/><path d="M261.19251,166.60425c-0.90127,1.25009 -3.14493,3.22796 -3.14493,3.22796c0,0 -11.03036,-4.5482 -18.53448,-5.06078c-7.66493,-0.52358 -17.47637,0.76319 -17.47637,0.76319c0,0 -4.49021,-17.67415 -1.01605,-20.52224c2.52972,-2.07385 9.99677,-4.28468 17.37939,-4.05902c3.36479,0.10285 12.9869,0.49815 16.2444,3.41269c4.36594,3.90627 9.30095,17.28561 9.30095,17.28561c0,0 -1.7092,3.50492 -2.7529,4.95257z" fill="none" stroke-width="1"/></g><g stroke-linecap="round"><path d="M223.12583,171.16648c0,0 -3.79238,1.15846 -5.51118,1.92044c-1.74513,0.77367 -4.88183,2.6871 -4.88183,2.6871c0,0 1.38564,-3.94678 2.3566,-5.74399c0.9221,-1.70679 3.33014,-4.78201 3.33014,-4.78201l-9.48424,1.20058c0,0 8.07058,-13.17361 11.56734,-14.92376c2.08551,-1.0438 10.32677,3.53081 10.32677,3.53081c0,0 1.10917,-2.75299 1.91368,-4.05272c0.73261,-1.18355 2.71789,-3.42977 2.71789,-3.42977c0,0 1.87548,6.03145 3.08557,8.93384c1.26064,3.02358 4.33285,8.85895 4.33285,8.85895l14.89469,4.05419l-0.95194,6.76097l-6.06658,-5.83529l-2.38518,3.62136l-5.49097,-8.60124l-4.69696,4.38336l-1.423,-5.00212c0,0 -10.83351,3.24435 -13.22201,4.59865c-0.65109,0.36917 -0.41159,1.82069 -0.41159,1.82069z" fill="#4fa6ec" stroke-width="0"/><path d="M225.69933,161.76744l-12.96653,14.00659c0,0 1.38564,-3.94678 2.35659,-5.74399c0.92209,-1.70679 3.33014,-4.78201 3.33014,-4.78201l-9.48423,1.20057c0,0 8.07057,-13.17361 11.56734,-14.92376c2.0855,-1.04381 10.32678,3.53081 10.32678,3.53081c0,0 1.10916,-2.75299 1.91367,-4.05272c0.73261,-1.18355 2.71789,-3.42976 2.71789,-3.42976l-1.80632,11.97501c0,0 -9.26377,-3.87647 -11.44093,-3.42841c-3.41696,0.70319 -7.83736,7.96501 -7.83736,7.96501z" fill="#66ffff" stroke-width="0"/><path d="M248.06315,168.38904l-0.47213,4.3573l-3.32709,-5.21165z" fill="#66ffff" stroke-width="0"/><path d="M212.73282,175.77403c0,0 1.38564,-3.94678 2.35659,-5.74399c0.92209,-1.70679 3.33014,-4.78201 3.33014,-4.78201l-9.48423,1.20057c0,0 8.07057,-13.17361 11.56734,-14.92376c2.0855,-1.04381 10.32678,3.53081 10.32678,3.53081c0,0 1.10916,-2.75299 1.91367,-4.05272c0.73261,-1.18355 2.71789,-3.42976 2.71789,-3.42976c0,0 1.87547,6.03144 3.08555,8.93383c1.26063,3.02359 4.33285,8.85895 4.33285,8.85895l14.89469,4.05419l-0.95194,6.76097l-6.06658,-5.83528l-2.38519,3.62136l-5.49098,-8.60124l-4.69697,4.38336l-1.423,-5.00212c0,0 -10.83351,3.24435 -13.22201,4.59865c-0.65109,0.36917 -0.41159,1.82069 -0.41159,1.82069c0,0 -3.79236,1.15846 -5.51117,1.92044c-1.71881,0.76201 -4.88183,2.68707 -4.88183,2.68707z" fill="none" stroke-width="1"/></g></g><g><path d="M222.82976,155.75855c0,0 2.9009,5.35987 5.94305,8.6794c2.22834,2.43153 7.28639,6.70996 7.28639,6.70996c0,0 2.34839,-2.02383 4.95507,-4.63795c3.24815,-3.25743 7.05429,-7.38956 9.04087,-9.17827c2.25778,-2.03292 5.41593,-3.66224 5.41593,-3.66224c0,0 -7.98348,8.42451 -11.4177,11.89255c-0.07808,0.07885 -0.73697,2.28704 -1.11834,4.48251c-0.39716,2.28646 -0.53255,4.56149 -1.41165,4.52614c-2.51532,-0.10109 -2.18329,-4.42573 -2.7833,-3.85679c-1.27492,1.20889 -2.20779,2.08081 -2.20779,2.08081c0,0 -1.45668,-0.7859 -3.41684,-2.29741c-0.03595,-0.02771 -0.08725,0.81159 -0.05903,1.85495c0.0372,1.37592 0.07141,3.04655 -0.93899,2.95514c-0.97339,-0.08805 -1.92095,-1.73002 -2.38926,-3.7682c-0.47323,-2.05958 -0.46253,-4.51557 -0.53849,-4.59679c-4.55499,-4.86899 -6.35991,-11.18379 -6.35991,-11.18379z" fill="#000000" stroke="#000000" stroke-width="0" stroke-linecap="round"/><path d="M245.80839,174.25206c-0.8523,1.20985 -1.89952,2.031 -3.05895,2.76542c1.3999,-0.105 2.82123,-0.34294 3.72027,-1.0107c0.66208,-0.49176 0.95872,-1.47499 1.305,-2.31476c-0.60015,0.05002 -1.22042,0.1292 -1.83763,0.18583zM233.35432,176.97558c0,0 4.68952,-0.02003 6.56254,0.17561c0.14646,-0.00951 0.30069,-0.01743 0.46136,-0.02453c1.61496,-0.9307 3.1185,-1.72814 4.26762,-3.18068c-0.23313,-0.00025 -1.30133,-1.00808 -1.30133,-1.00808c0,0 3.47207,-0.30884 4.76279,-0.38369l0.48797,0.04944c0.0975,-0.0124 0.20975,0.00496 0.33281,0.07811c0.09321,0.04632 0.19355,0.12398 0.24777,0.25298c0.06153,0.12569 0.05402,0.25235 0.02762,0.35304c-0.0258,0.14057 -0.08636,0.23648 -0.15967,0.30176c-0.68115,1.00376 -0.85991,2.5066 -1.89379,3.30068c-1.75136,1.34514 -5.145,1.25326 -7.25714,1.37576c-0.81193,-0.08481 -2.87736,-0.16453 -4.12507,-0.38459c-1.63954,-0.28917 -2.41349,-0.90581 -2.41349,-0.90581z" fill="#000000" stroke="none" stroke-width="0.5" stroke-linecap="butt"/><path d="M245.96024,173.82717c0.61721,-0.05665 1.26079,-0.11587 1.86094,-0.1659c-0.34628,0.83975 -0.64034,1.88023 -1.30244,2.37201c-0.89903,0.66776 -2.41593,0.90998 -3.81582,1.01496c1.15944,-0.73441 2.27791,-1.6363 3.1302,-2.84616z" data-paper-data="{&quot;noHover&quot;:false,&quot;origItem&quot;:[&quot;Path&quot;,{&quot;applyMatrix&quot;:true,&quot;segments&quot;:[[[815.6142,327.59136],[0,0],[-1.65831,2.07269]],[[809.83498,332.20743],[2.15617,-1.1879],[2.51774,-0.03472]],[[816.60604,330.80527],[-1.68264,1.09707],[1.23918,-0.80793]],[[819.1958,326.80402],[-0.7119,1.46551],[-1.07993,0.02386]],[[815.88553,326.93555],[1.1112,-0.03384],[0,0]]],&quot;closed&quot;:true}]}" fill="#ffffff" stroke="none" stroke-width="0.5" stroke-linecap="butt"/></g><path d="M247.89113,172.91637l0.9955,3.12872l8.10623,-3.41315l-1.70658,3.9109l2.70208,2.34654l-4.69308,-0.07111l-1.70658,1.49325l-3.41315,-1.49325l-4.26644,3.8398l-0.63997,-2.77319c0,0 1.65657,-2.96144 2.47952,-4.20218c0.69654,-1.05017 2.14246,-2.76634 2.14246,-2.76634z" fill="#feecf7" stroke="#000000" stroke-width="1" stroke-linecap="round"/></g></g></svg>