<svg version="1.1" xmlns="http://www.w3.org/2000/svg" xmlns:xlink="http://www.w3.org/1999/xlink" width="320.13407" height="230.6057" viewBox="0,0,320.13407,230.6057"><g transform="translate(-84.1654,-74.27229)"><g data-paper-data="{&quot;isPaintingLayer&quot;:true}" fill-rule="nonzero" stroke-linejoin="miter" stroke-miterlimit="10" stroke-dasharray="" stroke-dashoffset="0" style="mix-blend-mode: normal"><path d="M97.07152,124.67862c-0.30671,-1.46694 0.96545,-4.03175 3.64027,-4.50241c2.48007,-0.4364 3.30401,1.78388 7.03583,1.55838c0.03578,0.03039 2.32589,-0.13557 3.51972,-1.11757c0.23874,-0.19638 0.05514,-1.45923 -0.66195,-3.22716c-0.95788,-2.36159 -2.75221,-5.52619 -0.65764,-7.30803c0.76905,-0.65423 2.38398,-0.94235 3.84704,0.34384c0.78733,0.69214 1.15143,2.0095 1.95525,2.82861c0.4775,0.48659 1.43444,0.79736 1.83944,0.6968c0.813,-0.20186 2.08915,-1.83871 2.79324,-3.95891c1.41793,-4.26977 1.38892,-8.77821 2.61934,-10.91745c0.52955,-0.92068 8.66668,-4.31293 11.2676,-5.68555c3.36226,-1.7744 7.76111,-2.77601 11.65226,-4.15009c6.54783,-2.31221 12.72883,-4.42983 17.92508,-3.94598c1.33225,0.12405 2.35585,-2.06313 3.71603,-3.23712c1.4702,-1.26894 3.20011,-2.16097 5.07307,-2.58986c1.03416,-0.23681 1.93761,1.30169 3.40591,2.80142c3.80368,3.8851 8.6159,10.84858 8.6159,10.84858c0,0 0.89034,-0.82661 1.54161,-1.27995c0.90881,-0.6326 2.0108,-0.99593 2.5599,-1.04896c0.27866,-0.02691 3.24062,0.45106 4.37624,1.22113c1.94735,1.32053 2.41381,3.25694 2.88232,3.22259c0.47363,-0.03473 1.06937,-0.19082 1.5365,-0.21761c2.5421,-0.14575 5.73174,3.54718 9.78849,2.70271c1.40694,-0.29287 1.13391,-0.70632 2.41519,-0.95716c3.86829,-0.75731 7.77693,-0.368 10.7378,-0.36041c2.41656,0.0062 4.26834,-0.4193 4.40285,-0.46661c1.03128,-0.887 -0.40241,-5.54337 1.66971,-6.26429c3.6444,-1.26793 6.95913,0.97684 10.99832,4.20988c3.01051,2.40965 6.82211,5.41258 9.33495,7.68177c3.91527,3.53566 6.08509,6.3763 6.17502,6.32785c0.10289,-0.05543 1.99796,-9.60032 3.14458,-10.76778c1.39452,-1.41987 4.71288,-1.4214 6.6821,-2.09378c1.24368,-0.42465 1.00836,-1.19608 1.87986,-1.66315c0.94606,-0.50702 1.9635,0.33439 2.89622,-0.12953c0.34143,-0.16982 1.02917,-1.99228 0.95576,-3.07565c-0.16012,-2.36273 -1.137,-5.03345 1.29682,-6.35454c1.44348,-0.78353 2.98881,0.51049 4.56301,1.22086c0.21573,0.09735 1.91971,0.57269 2.42425,-0.30463c0.23836,-0.41446 0.60418,-3.25613 0.9223,-3.64222c-0.0039,-0.12906 -0.93955,-1.32241 -0.73607,-2.93117c0.24525,-1.93904 1.86177,-4.3043 5.02935,-3.80573c1.68717,0.26556 4.23014,3.03033 3.18123,6.2637c-0.5718,1.76262 -3.30033,1.75793 -3.14509,1.9068c0.47658,0.89312 0.21208,5.84492 0.85026,5.93007c0.72193,0.09633 2.20252,-0.52641 3.39777,-0.84743c1.08629,-0.29176 1.8937,-0.29113 2.50745,-0.10078c2.33447,0.72399 4.16424,2.60345 6.61751,4.15138c2.86719,1.80909 6.19253,3.25616 6.19253,3.25616c0,0 2.58661,-2.44496 5.10364,-4.11254c2.90938,-1.92751 5.97466,-3.37038 6.02583,-3.48656c1.62779,-3.69601 2.20967,-5.73353 4.75441,-6.588c7.56631,-2.5406 24.05182,5.78351 38.23919,11.75365c3.51011,1.47707 6.74383,3.46331 9.88302,4.8885c0.44544,0.20223 0.66833,14.21645 -1.62658,19.24505c-1.44329,3.16253 -8.47228,2.9504 -9.98725,5.31207c-0.82844,1.29145 2.42986,7.07962 2.78526,7.07754c0.4059,-0.00236 3.13826,-0.16181 6.99084,-0.63785c4.51711,-0.55816 10.24629,-1.1618 14.15653,0.63979c4.43017,2.04113 3.25516,8.59018 2.96512,9.35141c-0.5188,1.36162 -1.60018,4.75975 -1.93441,8.52929c-0.75679,8.53529 1.35545,13.97436 0.72021,19.72967c-0.04239,0.38405 2.46743,3.04331 1.53775,6.51189c-0.78018,2.91081 -4.38275,5.95451 -6.04242,9.13994c-3.16339,6.07154 -8.16364,10.53426 -7.74425,10.92882c0.05304,0.04991 3.23997,5.83219 4.03714,5.52981c0.46819,-0.17759 1.55704,-0.63636 2.27741,-0.69176c1.25964,-0.09689 2.49794,0.83904 3.28256,1.80432c1.44964,1.78344 2.57842,4.66781 4.80951,4.58749c0.36829,-0.01326 3.98263,-9.86646 9.01863,-5.46247c0.99294,0.86833 1.47347,2.04954 1.29023,3.07962c-0.27039,1.52 -1.76326,2.79233 -2.82039,3.45846c-1.5925,1.00347 -3.03135,2.07405 -3.10704,2.70039c-0.234,1.93653 0.96219,5.68605 2.92339,5.48354c4.4403,-3.10091 6.31792,-0.67492 6.52996,1.51387c0.48576,5.01428 -5.14884,3.06747 -5.13189,3.41677c0.06967,1.43519 -0.14417,3.6029 0.30053,4.96956c0.69217,2.12721 2.79404,2.92012 3.04179,4.76635c0.29199,2.17591 -0.90369,5.67871 -1.69809,8.10427c-0.73669,2.24939 -1.02599,3.41322 -1.98847,5.66076c-2.65567,6.2014 -5.74616,8.69921 -5.58567,9.05404c0.44381,0.98123 -9.22441,1.3116 -22.13077,-0.15582c-11.068,-1.25839 -25.61302,-4.3545 -25.79494,-3.65631c-0.38896,1.49275 -3.05826,6.14086 -6.36197,6.55896c-4.44822,0.56293 -5.77923,-1.72867 -6.21911,-1.36835c-1.69569,1.38903 -3.88791,2.04178 -6.30922,1.5522c-5.04679,-1.02046 -4.12288,-7.16928 -4.79592,-7.09202c-1.32308,0.1519 -5.52546,-4.03187 -8.3963,-3.24531c-2.92212,0.8006 -7.68131,6.80615 -8.19224,6.93475c-3.87815,0.9761 -7.66198,1.83198 -9.45381,3.04605c-2.11106,1.43037 -2.06264,3.10001 -2.06264,3.10001c0,0 1.80789,0.92702 2.91088,2.38174c0.60793,0.80178 0.67296,1.62296 0.8769,2.86919c0.32479,1.98471 -1.55338,3.79422 -3.62957,3.88148c-2.03695,0.08561 -3.99774,-0.53951 -4.51337,-3.62272c-0.13602,-0.81331 -1.30452,-3.43215 -1.30452,-3.43215c0,0 -2.17649,-1.11924 -4.63297,0.40955c-0.69776,0.43426 -1.3563,0.94264 -1.65488,2.20235c-0.45463,1.91803 0.39313,5.11124 -0.17888,7.37297c-0.72778,2.87767 -2.98599,4.60581 -4.78775,4.18311c-3.37774,-0.79243 -5.05876,-3.37065 -4.16104,-6.97864c0.23783,-0.95586 1.41704,-2.17299 1.91606,-3.43219c0.5146,-1.2985 0.33737,-2.6365 -0.22854,-3.42672c-0.74745,-1.04374 -3.25631,-1.01496 -4.49767,-0.74901c-4.78619,1.02536 -7.22439,3.97195 -13.61392,3.92851c-0.64907,-0.00441 -2.66693,-0.02469 -4.52042,-2.04285c-3.19434,-3.47815 -6.63265,-9.63357 -6.33813,-8.97239c0.2875,0.64544 -3.64451,-0.30047 -3.94189,0.25473c-0.22915,0.42781 -0.95469,2.92635 -6.35121,2.59044c-2.98123,-0.18557 -4.58029,-2.00032 -5.37008,-3.5118c-0.65179,-1.24737 -0.72094,-2.35302 -0.77532,-2.39131c-3.39488,-2.39013 -10.5499,-3.61517 -11.50352,-2.5458c-0.26271,0.29459 -1.20125,2.70507 -3.24863,4.81164c-2.42328,2.49333 -6.27442,4.81203 -10.60645,6.27373c-11.30787,3.81548 -25.4396,2.46657 -26.72667,3.12808c-1.03434,0.53161 -2.27777,2.12991 -3.50761,2.55747c-0.19551,0.06797 -3.96218,0.5373 -6.41429,-1.18111c-1.5559,-1.09037 -1.54586,-2.33289 -2.98255,-3.97018c-1.36821,-1.55925 -3.52463,-2.8522 -4.38607,-3.42603c-0.77332,-0.51514 -1.59591,0.57204 -1.6255,0.79225c-0.16012,1.19187 -3.92579,-1.19233 -9.45918,-1.42221c-6.79729,-0.28238 -15.96728,1.34161 -20.79811,2.60482c-6.73238,1.76045 -12.35461,5.11106 -13.10475,5.34625c-1.19062,0.37328 -6.55849,0.9512 -8.34129,-1.7892c-1.45493,-2.23641 -2.59887,-6.54329 -2.816,-8.06928c-0.20244,-1.42273 -2.20005,-1.97232 -2.35979,-3.80399c-0.26502,-3.03889 1.54445,-2.36144 2.05396,-4.01577c0.3272,-1.0624 -1.04955,-2.77054 -1.26578,-3.11074c-0.61932,-0.97437 -1.84793,-1.33912 -2.26685,-1.22413c-1.39136,0.38191 -2.88148,0.54397 -3.69019,0.4254c-2.52307,-0.36996 -2.16765,-2.63482 -2.20921,-3.41918c-0.22189,-4.18651 5.79968,-2.00138 5.8971,-2.07999c1.12682,-0.90942 1.73048,-2.54461 1.52709,-4.13906c-0.091,-0.71337 -0.21762,-1.41224 -1.16763,-1.97338c-1.63561,-0.96609 -5.97004,0.58497 -6.76675,-2.38114c-1.34887,-5.02175 2.30033,-5.98519 3.21521,-6.05851c2.16399,-0.17345 3.43665,1.16413 4.38459,2.36254c0.83103,1.05061 1.47219,1.99426 1.44189,1.71916c-0.0586,-0.53191 2.90732,-0.37377 2.88308,-0.89055c-0.09443,-2.01358 -0.10651,-3.15231 0.72747,-4.6749c0.43483,-0.79389 1.19691,-1.37473 1.97595,-1.84994c2.40266,-1.46561 5.89983,1.96227 5.62939,2.0033c-1.17271,0.17788 2.35895,-1.19333 2.34274,-1.62191c-0.11723,-3.10023 2.49942,-5.34101 6.15671,-3.40759c-0.23272,0.16296 0.64961,-1.96046 1.05944,-3.90995c0.31554,-1.50097 0.19794,-2.94984 0.01733,-2.85885c-1.01317,0.51042 -4.90303,2.14522 -7.294,1.62843c-4.45626,-0.77126 -5.862,-2.64343 -6.96549,-4.60521c-0.63416,-1.1274 -1.44975,-3.1181 -1.92414,-5.11769c-1.42209,-5.99422 -1.13286,-6.31347 -1.73165,-11.31856c-0.42628,-3.56308 -0.86813,-7.89452 -0.66178,-10.73409c0.21885,-3.01162 1.13948,-4.48197 2.59223,-6.52222c0.98088,-1.37756 2.28585,-2.58921 3.00365,-3.81819c0.64098,-1.09745 0.32731,-1.88734 0.33578,-2.12583c0.07269,-2.04724 -0.20778,-5.07987 0.12659,-8.17345c0.25587,-2.36736 0.85284,-4.23814 1.16725,-6.26891c0.41324,-2.66914 1.07292,-5.09754 1.8428,-6.53152c0.95757,-1.7836 2.00293,-2.24935 1.9897,-2.30498c-0.28465,-1.19664 -1.75628,-1.16383 -1.89886,-2.2035c-0.10843,-0.79065 -0.1547,-1.96811 0.24002,-3.18755c0.35639,-1.10104 1.22427,-2.29348 1.82729,-2.3783c0.07669,-0.01079 0.60403,-2.9263 0.3112,-3.48325c-0.41405,-0.72224 -1.87037,-1.14806 -3.45907,-1.12713c-1.21826,0.01605 -1.93237,0.65445 -3.11357,0.35582c-2.23807,-0.56584 -3.34229,-2.66515 -3.6114,-3.95229z" fill="#45aeff" stroke="none" stroke-width="0" stroke-linecap="butt"/><path d="M257.54926,88.54302c0,-1.55669 1.26196,-2.81865 2.81865,-2.81865c1.55669,0 2.81865,1.26196 2.81865,2.81865c0,1.55669 -1.26196,2.81865 -2.81865,2.81865c-1.55669,0 -2.81865,-1.26196 -2.81865,-2.81865z" fill="#3381bd" stroke="none" stroke-width="0" stroke-linecap="butt"/><path d="M104.06733,168.46999c0.48873,-0.86205 0.83529,-2.69675 1.00182,-5.10927c0.35655,-5.1654 0.25678,-10.20903 0.36921,-10.7138c0.286,-1.28409 0.68739,-6.28273 2.30381,-8.21901c3.44597,-4.12786 9.52469,-7.23036 9.70534,-7.31344c0.47196,-0.21709 1.35586,-5.03513 2.47371,-11.37417c0.40975,-2.32357 1.5331,-7.93226 2.43745,-12.18811c1.48333,-6.98051 2.05724,-10.45015 3.50594,-12.27849c3.0821,-3.88979 9.43427,-5.3249 12.53209,-6.57083c0.08361,-0.03363 15.93992,-6.10379 22.00103,-6.98779c1.78714,-0.26065 3.77759,1.0959 3.84493,1.10495c0.4798,0.06451 6.69955,-7.09216 7.69951,-6.71412c2.01882,0.76323 13.85876,14.85763 13.81322,15.83025c-0.01841,0.39319 0.66706,-1.52548 1.89481,-2.85976c0.71444,-0.77643 1.68649,-1.03472 2.12095,-0.92297c1.90593,0.49025 3.82029,3.42773 5.04972,4.77263c0.47346,0.51793 1.01904,0.16282 1.16596,0.28485c0.06674,0.18736 0.12547,-0.59898 0.85521,-1.19381c0.00195,-0.00159 2.07051,-0.25333 3.30079,0.139c3.51013,1.11937 9.06661,3.82925 9.39124,4.11464c0.06324,0.0556 -0.71403,-1.97488 0.08861,-2.50058c0.63466,-0.41569 1.74394,-0.70082 2.79148,-0.88564c3.79268,-0.66914 9.98409,-0.68106 13.19602,-0.15584c1.44446,0.2362 1.93654,1.1057 1.94377,1.16257c0.1116,0.87743 0.24315,7.05113 0.25781,7.10868c0.01001,0.03929 0.91458,-0.5564 1.62778,-0.39223c0.33408,0.0769 0.56912,0.66278 0.75468,0.93396c0.06923,0.10117 -0.32903,-1.90837 -0.986,-5.03388c-0.08777,-0.41754 -1.9801,-8.84179 -0.98113,-9.72635c1.3022,-1.15306 7.32784,2.75516 8.73093,3.85677c7.8981,6.20107 16.72315,17.08978 17.66625,18.23142c0.14088,0.17055 1.46054,-7.31704 2.7705,-11.93753c0.01378,-0.04858 0.83282,-3.67887 1.3718,-3.85846c1.79839,-0.59925 6.89751,-2.30679 11.43901,-2.87443c6.94076,-0.86752 13.65276,-0.43908 13.7096,-0.03941c0.04209,0.29592 5.25095,-4.16142 6.5209,-4.38687c0.80736,-0.14333 4.61415,3.0301 7.35655,5.15458c1.1684,0.90513 3.04074,1.72541 2.94097,1.84536c-0.17356,0.20864 14.8573,-10.62415 15.50891,-9.31756c0.02919,0.05853 -0.41844,-2.05971 -0.05768,-2.94014c0.69277,-1.69075 2.40253,-2.74494 2.41901,-2.60452c0.01401,0.11934 1.85389,-0.2205 4.12539,0.32617c3.55862,0.85644 8.81431,2.93218 14.65479,5.02849c8.69261,3.12003 18.32846,6.4872 22.78317,8.81746c1.74434,0.91246 2.4692,2.78498 2.4441,2.95933c-0.15858,1.10173 -0.47356,12.67681 -2.05521,13.67666c-0.70279,0.44428 -11.10426,4.19798 -12.03979,4.5433c-0.3827,0.14125 1.49345,4.77681 2.85211,7.54347c1.81748,3.70096 2.149,5.11174 2.71923,5.91037c0.0148,0.02073 10.20269,-2.35082 17.0197,-2.32358c3.30356,0.0132 5.88859,2.06067 6.06754,2.47189c0.653,1.75148 -0.84953,5.2249 -1.80547,8.73772c-0.60769,2.23313 -0.69421,4.34655 -0.89074,6.47407c-0.34363,3.71991 1.84137,13.73005 1.76341,14.01704c-0.08194,0.30165 -2.59603,0.82462 -2.37567,1.54506c0.19306,0.63119 3.45145,4.08359 3.44853,4.67556c-0.00585,1.18766 0.67755,3.41024 -0.11438,5.05443c-3.56573,7.40308 -14.50688,17.16455 -14.61852,16.89112c-0.08071,-0.19765 5.19004,10.55175 12.04645,19.90233c6.41177,8.74421 13.97592,15.92959 15.75092,18.20405c0.97596,1.25059 -2.0461,6.53508 -4.71173,11.55153c-2.01549,3.79295 -3.55981,7.62467 -4.55192,7.75236c-2.95053,1.14887 -10.67637,1.08867 -20.7729,0.06846c-11.52461,-1.1645 -23.61157,-4.33724 -24.60895,-4.26107c-1.74268,0.13308 -2.31718,3.65608 -3.0942,4.69727c-1.38442,1.85511 -2.26762,1.74294 -3.39822,2.64078c-1.02155,0.81125 -4.19095,-2.22174 -5.39282,-2.11947c-0.78177,0.06653 -2.85955,3.13545 -4.01758,2.81644c-3.78146,-1.0417 -4.27082,-6.37979 -4.24513,-6.32357c0.04157,-0.05682 -2.24294,-0.99434 -4.90577,-2.35593c-2.98121,-1.52439 -6.39218,-3.46919 -6.65673,-3.08612c-0.7037,1.01898 -16.79341,12.05984 -22.37988,12.0137c-3.77824,-0.18545 -3.62509,-2.77542 -3.9491,-4.52078c-0.12685,-0.68332 -0.85424,-1.67324 -1.08019,-1.59096c-2.96323,1.07904 -22.0477,12.23873 -25.94028,13.36649c-1.28796,0.37315 -3.34038,0.04052 -4.13426,0.05285c-2.27225,0.0353 -6.83893,-10.58405 -8.44813,-11.20665c-0.48998,-0.18957 -6.81902,0.71943 -7.13103,1.01798c-0.88705,0.8488 -0.4095,2.23587 -2.18683,2.36236c-0.96751,0.06885 -3.50302,-0.91227 -4.04078,-1.5449c-1.32023,-1.55315 -1.87359,-4.44218 -2.0932,-4.43117c-1.02545,0.05143 -14.75766,-5.43899 -14.97736,-4.80588c-1.22876,3.54115 -5.57552,10.30343 -11.1522,12.48954c-6.25442,2.45179 -21.36855,4.29435 -30.28447,3.90927c-0.67914,-0.02933 -0.89325,1.81915 -1.48073,1.99169c-3.55132,1.04302 -4.58752,0.13638 -5.07549,-0.45888c-0.97301,-1.18694 -0.56296,-3.69139 -1.17952,-3.63117c-0.17727,0.01731 -1.96039,-0.65251 -3.61027,-2.06821c-2.00017,-1.71627 -4.1611,-4.35962 -4.64971,-4.34502c-0.45813,0.03117 -0.35741,2.54868 -0.81475,2.56223c-4.24094,0.12559 -11.76618,-1.71995 -19.3226,-1.28468c-5.25289,0.30258 -11.91965,1.39432 -12.70303,1.55006c-1.58067,0.31427 -7.32978,2.76122 -10.93242,3.68611c-3.58672,0.9208 -5.02932,0.32078 -5.56301,0.06908c-0.27933,-0.13174 -1.57143,-2.31694 -2.00438,-5.10066c-0.88129,-5.6664 -0.95921,-14.0425 -0.99145,-14.23617c-0.15921,-0.95655 0.39765,-5.51614 1.81781,-7.41308c5.01929,-6.70434 17.39984,-14.26734 16.74814,-14.16814c-0.2871,0.04371 1.08244,-2.76579 1.40823,-4.96952c0.59376,-4.01631 0.46734,-8.60571 -0.03576,-8.53824c-1.01783,0.13651 -2.7033,0.82682 -3.65168,0.92638c-4.33827,0.45542 -5.60441,0.76297 -8.04925,0.33869c-3.54428,-0.61507 -5.65646,-8.67854 -6.57131,-16.50977c-0.5974,-5.11385 -1.146,-8.87617 -0.28429,-11.44918c0.25156,-0.75115 3.69084,-3.40607 4.78705,-5.33965z" fill="#000000" stroke="none" stroke-width="0" stroke-linecap="butt"/><path d="M118.37548,186.15532c-2.59986,0 -13.52922,5.50964 -14.3529,4.30175c-0.57434,-0.84224 -2.10281,-12.21967 -1.13644,-15.95656c0.15971,-0.47201 0.89657,-1.36857 2.47509,-2.63081c3.28118,-2.62376 9.47098,-6.58486 16.56865,-9.89576c8.94125,-4.17088 18.84295,-7.72647 29.46249,-11.94232c4.36897,-1.73444 9.40543,-2.91817 14.62413,-4.05279c11.4754,-2.49492 22.90797,-3.97298 23.53371,-3.87335c1.85949,0.29609 1.76909,9.6053 2.00274,14.36592c0.46063,9.38524 0.30054,19.94145 -1.31735,20.82426c-0.84831,0.46289 -16.94503,4.55791 -24.23,4.84283c-1.81806,0.07111 -0.82542,-4.84826 -1.48637,-4.85285c-0.3273,-0.00227 -17.95648,1.88653 -19.29872,3.47631c-0.13598,0.16106 -0.17256,5.56517 -0.29365,5.73064c-0.80885,1.10532 16.11589,-2.74853 17.42333,1.13059c0.0078,0.02316 1.2862,16.5016 -0.77842,17.99173c-3.73495,2.69569 -11.3348,1.73258 -18.17737,3.408c-1.01314,0.24807 -0.73811,6.20776 -1.74034,6.48628c-0.3081,0.08562 5.8254,-0.47998 6.55673,1.40156c0.7121,1.83204 0.47791,7.09671 0.31613,11.55035c-0.13818,3.80401 -0.04112,6.9981 -1.26378,7.15689c-0.51868,0.06736 -4.97123,-0.35212 -8.76551,-1.22882c-0.27544,-0.06364 -0.49088,-0.9843 -0.72559,-0.78189c-0.32492,0.2802 0.42053,2.73965 0.11117,3.12809c-0.67178,0.8435 -1.81354,1.2227 -2.8519,1.26259c-0.1659,0.00638 -1.73026,-0.37818 -2.05973,-1.27932c-0.35254,-0.96426 0.39579,-2.49363 0.21147,-2.48249c-0.24796,0.01498 0.23582,-1.07659 -0.31764,-1.0573c-0.17908,0.00624 -0.64181,0.47108 -1.10337,0.79019c-0.33775,0.23352 -0.71607,0.34781 -0.77647,0.35297c-10.73157,0.91712 -24.43642,5.13984 -28.24456,6.23725c-1.19267,0.3437 -1.42909,-2.71072 -1.39603,-6.14008c0.01361,-1.41169 -0.03422,-4.24357 0.08451,-4.78998c0.26956,-1.24055 3.3864,-4.22655 8.27411,-7.54648c4.66658,-3.16974 9.17558,-4.89145 9.62482,-5.84245c0.57093,-1.20864 1.64132,-5.63378 1.72575,-12.81293c0.04257,-3.61937 -0.13349,-8.00827 -0.67804,-11.1522c-0.66889,-3.86186 -1.75647,-6.11984 -2.00069,-6.11984z" fill="#ffffff" stroke="none" stroke-width="0" stroke-linecap="butt"/><path d="M173.28685,215.20041c0.5846,-0.62368 1.64784,-0.79079 6.80224,-0.79079c0.67423,0 -0.41165,-28.46023 -0.01087,-29.20618c0.2148,-0.3998 1.00845,-1.89009 4.19502,-3.11255c7.51996,-2.88489 26.18275,-3.38976 27.27875,-1.98374c0.10129,0.12994 1.24199,21.65626 0.35668,23.94123c-0.35148,0.90717 -5.41994,0.178 -5.41559,0.37493c0.32198,14.58798 0.17972,21.72825 -4.12131,28.72387c-1.43265,2.33021 -4.45412,5.19596 -6.71754,6.16728c-1.06759,0.45814 -2.14256,0.74419 -3.19384,0.90802c-0.19566,0.03049 -0.75365,-2.37469 -0.94747,-2.35233c-0.05397,0.00622 -0.51432,-0.18336 -0.51468,0.0653c-0.00079,0.55461 0.48334,2.24405 0.67511,3.30819c0.24244,1.34528 0.19247,2.04092 0.04544,2.06223c-0.18235,0.98029 -1.246,1.37214 -1.62834,1.33205c-0.28437,-0.02982 -1.06766,-0.38275 -1.35005,-0.78879c-0.63452,-0.91237 -0.84651,-1.91076 -0.67558,-2.6824c0.08009,-0.36154 0.66249,-0.8254 0.5611,-0.92956c-0.08915,-0.09158 -0.77316,0.35233 -1.55898,0.46941c-1.70416,0.25388 -6.00182,0.70606 -6.53938,0.70606c-3.35651,0 -14.73804,0.2229 -14.75323,0.32359c-0.32376,0.17668 -1.29679,0.70869 -1.94826,1.49617c-0.44064,0.53263 -0.47291,2.02902 -0.52635,3.02653c-0.03995,0.74563 0.63431,1.87924 1.05175,3.08636c0.47239,1.36603 0.68721,2.80243 0.48177,3.43864c-0.28275,0.87897 -1.03569,1.77806 -1.53877,1.81783c-1.79423,0.14184 -1.94125,-1.8779 -2.0889,-3.01511c-0.09857,-0.7592 0.1922,-1.7147 0.40548,-2.56347c0.27149,-1.08038 0.41152,-1.94549 0.40475,-2.05509c-0.13465,-2.17769 -0.16767,-3.99259 -0.20894,-3.94656c-0.05817,0.06487 -0.45735,-1.35645 -1.17578,-1.70375c-0.40326,-0.19495 -1.03113,-0.59085 -2.10622,-0.87063c-1.17939,-0.30693 -2.81946,-0.49994 -3.44553,-0.74992c-2.31908,-0.92596 -2.37064,-1.59029 -2.49565,-1.96952c-0.21086,-0.63967 -0.33461,-14.08997 -0.22364,-21.45231c0.03747,-2.48606 -0.16091,-4.65312 0.02619,-4.89402c0.15617,-0.20108 0.4558,-0.53229 2.24442,-1.06733c2.31115,-0.69135 5.69553,-1.29518 8.41334,-2.70751c0.18767,-0.09752 0.85448,-0.67957 0.98815,-1.34409c0.48338,-2.40326 0.13127,-7.41955 0.14715,-8.30172c0.01569,-0.87233 0.16817,-2.5219 1.12228,-2.83278c1.18791,-0.38706 3.96866,-0.41468 5.0643,-0.25084c0.70707,0.10574 0.9266,0.60961 1.06677,0.67542c0.75262,0.35333 0.72567,5.54992 0.75471,5.79821c0.23437,2.00366 0.60797,5.50954 0.70181,7.84113c0.16471,4.09221 0.16903,6.25256 0.39772,6.00858z" fill="#ffffff" stroke="none" stroke-width="0" stroke-linecap="butt"/><path d="M220.12334,149.07969c1.58558,-0.15319 10.49819,26.58784 16.42162,38.63174c1.61755,3.28891 4.06751,5.27937 4.40504,5.32347c0.07976,0.01042 -3.04027,-4.42494 -4.66193,-9.62832c-1.17563,-3.77222 -1.41937,-8.38517 -2.54019,-12.85069c-2.44582,-9.74453 -5.64931,-19.27242 -5.34783,-20.66634c0.33046,-1.5279 2.9004,-3.31205 5.26972,-5.2503c2.41157,-1.97281 4.29734,-3.70811 4.94196,-3.65754c0.56117,0.04402 1.77558,1.54519 2.73354,2.65455c3.34477,3.87343 10.72276,12.39803 12.72505,16.1792c0.2674,0.50495 -1.3848,3.11016 -2.75491,6.87102c-1.09249,2.99884 -1.87257,6.75906 -2.32523,10.58152c-0.38923,3.28671 -0.0248,6.88376 0.15686,10.07014c0.30805,5.4035 0.77586,9.76309 1.1312,10.42155c1.49823,2.77629 1.56008,10.66286 8.38957,18.43855c1.55366,1.76892 4.77378,3.66881 7.84662,5.29003c3.61492,1.90722 7.21983,3.14203 8.79493,4.27135c0.72237,0.51792 0.23911,1.28396 0.14815,1.62722c-1.57679,5.95107 -20.60745,14.20461 -23.87709,16.24293c-0.58191,0.36277 -0.53465,1.47465 -1.83251,1.56544c-0.41599,0.0291 -0.72903,-1.47501 -1.16806,-1.53569c-2.45714,-0.33961 -7.91617,-14.95891 -12.43118,-26.99727c-3.91382,-10.43544 -6.70833,-18.851 -8.7859,-17.808c-0.36577,0.18363 2.59476,9.63937 3.63502,16.15693c1.70153,10.6606 1.93856,20.43904 1.32347,20.68818c-1.1034,0.44695 -2.73367,-1.36626 -3.78726,-1.06248c-0.80251,0.23139 0.84526,5.24074 0.81035,7.50188c-0.04147,2.68603 -1.73639,2.66571 -2.62539,2.57761c-1.26422,-0.12528 -1.74377,-1.39044 -1.63668,-2.9244c0.11564,-1.6565 0.87896,-3.64467 1.04994,-5.36285c0.16543,-1.66232 -1.08378,-3.13323 -1.26233,-3.17531c-0.41228,-0.09714 -2.29175,-1.17487 -4.53608,-1.70765c-3.82818,-0.90878 -8.71792,-1.4879 -9.19884,-2.00984c-0.7276,-0.78966 -0.41188,-20.74042 -0.19733,-21.13366c0.52068,-0.9544 3.84764,-0.18088 3.79784,-1.32205c-0.21723,-4.97636 2.05474,-18.77094 -0.31867,-27.35622c-0.17308,-0.62605 -0.91658,-1.22615 -1.13683,-1.79511c-0.1687,-0.43581 -1.05335,-0.84448 -1.86264,-1.04424c-4.00521,-0.98864 -13.89018,0.56437 -14.11547,-0.10051c-0.96073,-2.83536 -0.21074,-5.05583 -0.33447,-8.09623c-0.23827,-5.85528 -0.93627,-12.05103 -0.38173,-13.45955c0.0178,-0.04521 1.37534,-0.96367 3.91373,-1.90919c5.63785,-2.10002 17.32982,-4.01825 19.62392,-4.2399z" fill="#ffffff" stroke="none" stroke-width="0" stroke-linecap="butt"/><path d="M251.90105,183.7358c0.29324,-4.75676 0.37028,-7.41065 2.50699,-13.49338c0.55473,-1.57919 2.61129,-8.29632 3.23534,-9.54113c0.14561,-0.29046 -0.07007,-1.899 -0.86061,-3.8215c-0.92445,-2.24813 -2.44703,-4.84507 -2.25032,-5.04564c0.10087,-0.10284 4.58363,-2.53447 9.01316,-4.40267c2.17751,-0.91839 4.32257,-1.42229 5.96708,-1.9867c0.39223,-0.13461 0.86811,1.85989 1.46701,3.06504c1.73532,3.49199 4.3285,9.03303 4.30566,9.57629c-0.036,0.85656 -4.64213,1.98575 -6.70393,6.36658c-2.0483,4.35213 -1.55402,11.95733 -1.0935,12.42173c0.04662,0.04702 1.12706,-2.04956 3.50187,-4.74396c3.37173,-3.82548 9.78125,-9.43586 14.26217,-14.02174c3.95434,-4.04696 6.11575,-7.71834 7.50979,-8.45305c0.35344,-0.18627 5.56123,11.13739 7.98305,18.05481c0.65131,1.86032 1.07406,2.78719 1.07977,4.4377c0.00176,0.50985 -1.63679,0.52347 -1.71088,0.55992c-2.28381,1.12346 -7.07101,3.8938 -11.4042,6.87035c-3.72905,2.56156 -6.55243,5.564 -6.12351,5.58978c1.04477,0.06279 4.00081,-1.26047 6.72319,-1.89977c2.19095,-0.51449 6.14484,-1.32718 7.68108,-1.33555c1.41798,-0.00772 1.95482,1.46514 2.93849,4.50335c0.88501,2.73348 2.21525,6.80367 3.44227,11.00935c0.63711,2.18372 2.33871,5.10901 3.08883,7.39356c2.07572,6.32166 3.19021,11.62896 2.7866,12.57649c-0.2718,0.63808 -0.54294,1.93377 -1.181,2.85945c-1.33594,1.93815 -3.78583,3.98514 -7.74817,7.1221c-3.9172,3.10122 -9.35902,6.42135 -13.59362,8.59758c-2.33516,1.20007 -4.01092,2.40184 -5.15377,2.40184c-1.74754,0 -0.15139,-1.77611 0.13729,-6.4267c0.41844,-6.74106 0.54122,-14.91589 0.1996,-23.23498c-0.13268,-3.23117 -0.02516,-8.59388 -0.4609,-10.75222c-0.23179,-1.1481 -9.21009,-0.04706 -9.95434,0.22004c-0.38655,0.13873 -0.98867,1.58509 -1.66113,4.15811c-1.17239,4.48586 -2.37939,10.94097 -2.47869,10.93595c-0.2209,-0.01115 -1.54182,-0.5453 -2.82813,-1.43135c-3.13746,-2.1612 -7.11151,-6.74608 -9.08938,-10.28136c-3.13505,-5.60364 -3.97162,-10.73591 -3.53317,-17.84833z" fill="#ffffff" stroke="none" stroke-width="0" stroke-linecap="butt"/><path d="M315.70671,156.16805c-0.66469,0.97096 -1.90813,2.39497 -3.70659,3.8251c-2.44722,1.94602 -5.64209,3.90335 -7.21011,4.74596c-0.5735,0.30818 -1.54945,0.15302 -1.62679,0.14326c-0.99695,-0.02904 -1.60528,-1.97196 -2.56226,-4.21794c-1.40031,-3.28646 -2.71018,-7.23727 -2.71018,-7.93094c0,-0.42744 -0.71189,-4.36572 -0.00644,-5.05196c0.47658,-0.46359 1.48582,-0.7562 3.05682,-1.23592c0.92572,-0.28268 2.04651,-0.73766 3.3683,-1.04207c4.10751,-0.94599 11.07933,-1.67117 12.21194,-0.83425c0.25231,0.18643 0.29382,3.39098 0.15617,6.84938c-0.06952,1.7467 0.06972,3.22932 -0.97087,4.74938z" fill="#ffffff" stroke="none" stroke-width="0" stroke-linecap="butt"/><path d="M314.15157,185.77408c0.22887,0.9835 2.09453,6.99268 4.61143,12.90129c2.68108,6.29405 6.06421,12.54042 7.74747,14.72175c2.35259,3.04869 6.21309,5.44837 7.05103,7.5149c0.23981,0.59141 -0.06543,1.8084 -0.0664,2.20269c-0.00445,1.81455 -1.17386,5.24562 -2.33309,8.26818c-0.77483,2.02029 -1.3387,4.32571 -2.16203,4.55926c-0.84645,0.24011 -4.94449,-1.67011 -6.64827,-1.80447c-2.18314,-0.17216 -2.11234,1.19129 -2.21039,1.56145c-0.26798,1.01165 1.26832,5.69466 1.31047,6.80736c0.12478,3.29401 -0.50501,2.95675 -1.81349,3.08427c-2.72774,0.26584 -1.56609,-3.87288 -1.72172,-3.81244c-0.07175,0.02786 0.53974,-2.37644 0.61992,-4.41372c0.10359,-2.63183 -0.3129,-5.05439 -0.40853,-5.03817c-0.1073,0.0182 -1.92664,-0.59327 -3.48125,-1.35825c-2.24608,-1.10522 -4.47592,-2.53086 -4.68968,-2.84088c-0.30223,-0.43833 -0.11479,-0.84447 0.21978,-2.04181c0.4071,-1.45693 1.23889,-3.50716 1.73124,-5.31274c0.536,-1.96567 0.82772,-3.65597 0.69289,-3.6874c-0.18316,-0.0427 -1.76044,-5.47009 -3.65404,-11.95319c-0.53727,-1.83942 -1.15039,-3.46146 -1.70263,-5.43995c-2.53029,-9.06503 -8.08688,-18.66033 -6.98264,-21.66697c0.37734,-1.02742 1.64795,-2.39216 2.92299,-3.46785c2.54958,-2.15096 6.21267,-4.79003 6.95001,-4.88009c1.20642,-0.14736 1.29943,4.65089 2.08179,9.44484c0.39542,2.42292 1.33417,4.0694 1.93513,6.65195z" fill="#ffffff" stroke="none" stroke-width="0" stroke-linecap="butt"/><path d="M347.50007,228.75693c-0.09808,0.25666 -2.48251,-0.19575 -4.89988,-0.95598c-1.2517,-0.39364 -2.79689,-0.86982 -3.43686,-1.37281c-0.03408,-0.02678 -0.42748,-3.07632 -1.45341,-7.09426c-0.64801,-2.53789 -1.60424,-5.27327 -2.4641,-7.99383c-1.46229,-4.6266 -3.76306,-10.04916 -5.25602,-13.53306c-1.23133,-2.87337 -1.75281,-7.08354 -2.86112,-6.95729c-0.34328,0.0391 0.00645,2.95469 -0.03236,3.98143c-0.16541,4.37513 1.39057,13.32148 1.16338,13.21732c-0.0071,-0.00325 -2.26893,-1.79789 -3.32464,-3.4771c-2.91271,-4.63292 -7.75239,-15.25811 -7.75707,-15.2826c-0.00497,-0.02605 -1.15516,-2.53678 -1.68178,-5.06207c-1.45644,-6.98409 -3.35998,-19.29636 -3.05814,-19.44834c0.18747,-0.0944 6.2204,-12.16134 8.6938,-14.08602c0.65085,-0.50646 3.86147,-0.96442 6.46715,-1.61199c4.22419,-1.04981 8.593,-2.17802 8.8707,-2.05779c0.84676,0.36662 0.52402,10.656 0.32981,14.07131c-0.03757,0.6606 -5.00739,2.56944 -4.97875,3.23029c0.25764,5.9449 5.49469,14.35378 5.65234,14.22579c0.11449,-0.09295 -0.25164,-3.89789 0.33941,-9.01659c0.63665,-5.51364 2.28031,-12.4924 3.82052,-16.27765c0.26967,-0.66274 0.75044,-1.43445 1.42881,-1.67622c0.97335,-0.3469 4.34449,-0.13525 7.25059,-0.1826c0.26235,-0.00427 2.94799,-0.79368 4.0147,-0.17322c0.34151,0.19865 0.59232,1.08307 1.48852,2.00973c1.65912,1.71549 4.29789,3.9118 5.12909,4.53969c1.26559,0.95604 2.1625,2.28458 3.29767,3.1408c4.19501,3.16413 7.55496,5.13513 7.45649,6.0329c-0.33562,1.41279 -4.25407,5.36466 -7.72277,8.73585c-2.74309,2.66599 -5.11846,5.038 -5.82152,5.02126c-0.47603,-0.01133 -2.50674,-2.19222 -3.95785,-3.55936c-0.74584,-0.70268 -1.61025,-1.02057 -1.46473,-1.07281c0.0384,-0.01379 -0.02853,0.53828 0.08871,0.96694c0.26014,0.95105 0.88382,2.56185 1.7317,5.00741c0.57238,1.65094 1.1654,3.53509 2.2278,5.5075c3.14715,5.84286 7.31102,13.48351 11.56268,19.57957c2.98117,4.2744 6.24012,7.48442 8.21535,10.09145c0.90382,1.19292 3.07086,3.83281 5.24666,6.32996c2.09605,2.40562 4.21019,4.67546 4.69643,5.56312c0.36182,0.66053 -3.53537,4.62189 -3.60207,5.06426c-0.03986,0.26438 -2.5519,0.3234 -5.45622,0.09627c-2.76138,-0.21595 -5.45524,-0.70547 -9.47406,-1.36986c-1.67253,-0.27651 -6.83698,-0.19342 -8.24975,-0.47832c-0.93623,-0.18879 -3.09173,-1.1164 -3.80211,-1.27043c-1.35364,-0.29349 -3.68431,-0.38666 -3.7315,-0.4688c-0.07694,-0.13396 -0.39286,-1.66059 -0.58513,-1.93406c-0.25382,-0.36102 -0.32746,0.77923 -0.33758,0.96372c-0.04526,0.82383 0.26909,2.68138 0.14174,3.24734c-0.22884,1.017 -1.14462,1.25572 -1.65406,1.26687c-0.7185,0.01572 -1.34006,-0.18133 -1.69935,-0.58581c-1.31104,-1.47598 -0.49852,-5.02979 -0.55121,-4.89191z" fill="#ffffff" stroke="none" stroke-width="0" stroke-linecap="butt"/><path d="M370.74435,146.50169c0,4.22679 0.78752,9.69786 0.08435,10.01827c-0.83736,0.38155 -2.04763,0.23265 -3.27742,0.3241c-1.40809,0.1047 -3.22248,0.1964 -3.34461,0.1884c-0.97026,-0.06352 -1.45228,-1.43257 -2.29982,-2.44976c-1.3941,-1.67315 -6.1796,-10.92374 -6.1796,-14.97103c0,-2.52951 1.94342,-3.21279 4.58434,-4.02186c2.00956,-0.61564 4.10979,-0.85696 6.37812,-1.13604c2.42008,-0.29775 4.9882,-0.6125 6.41136,-0.6125c1.95515,0 0.58218,1.97051 -0.25245,3.81068c-1.09068,2.4047 -2.10425,5.16307 -2.10425,8.84973z" fill="#ffffff" stroke="none" stroke-width="0" stroke-linecap="butt"/><path d="M157.50597,118.70729c2.25637,-0.23219 4.01135,0.68743 4.68661,1.93399c0.41765,0.771 -2.96115,9.87164 -3.27768,10.95702c-0.08525,0.29233 -1.38157,0.05646 -2.92953,-0.42741c-1.99048,-0.6222 -4.39705,-1.46346 -5.17977,-0.10049c-0.34711,0.60442 0.6468,10.31462 0.65554,10.41752c0.05732,0.67455 0.90207,2.37911 0.39467,2.96335c-1.04727,1.90056 -8.74973,5.02105 -9.68151,3.27333c-0.82589,-1.54912 -0.49622,-10.12468 -0.62261,-13.20069c-0.05302,-1.2902 -0.91529,-6.81321 -0.76306,-7.2545c0.53976,-1.56452 3.79627,-2.59444 5.06782,-3.14261c1.31049,-0.56494 1.48674,0.77432 2.38916,0.84807c0.61084,0.04992 2.08971,-2.38711 2.58058,-2.92677c1.04512,-1.14899 2.05727,-1.9445 3.24466,-2.47582c1.09185,-0.48857 2.35421,-0.75376 3.4351,-0.86499z" fill="#45aeff" stroke="none" stroke-width="0" stroke-linecap="butt"/><path d="M171.48394,123.21891c0,1.72197 0.23864,16.85619 -1.51024,16.85619c-1.74888,0 -12.52035,2.59889 -12.52035,1.55896c0,-0.16885 -0.8155,-1.73426 -0.70306,-2.13582c0.30721,-1.09722 2.53421,-3.33734 3.49995,-5.25963c0.66338,-1.32043 1.50115,-2.95777 2.10669,-4.47846c1.48045,-3.7178 2.54271,-7.56056 3.32964,-7.56056c1.74888,0 5.79736,-0.70266 5.79736,1.01931z" fill="#45aeff" stroke="none" stroke-width="0" stroke-linecap="butt"/><path d="M174.55921,118.43964c0.28803,-1.40501 5.96597,-8.78781 9.98302,-14.14568c2.55944,-3.41374 3.89851,-5.8794 4.50777,-5.86115c0.0888,0.00266 1.47046,-0.27601 1.70704,-0.11015c2.4344,1.70665 7.90414,11.94122 8.46989,13.75231c0.66702,3.47982 -0.88953,19.21987 -2.57367,21.1884c-1.492,1.74394 -9.40099,5.63348 -15.16301,7.14514c-4.1133,1.07912 -7.63567,1.17491 -7.92765,1.14961c-1.24935,-0.10824 -1.0803,-3.67018 -0.75702,-7.91395c0.47082,-6.18051 1.50088,-13.97159 1.75363,-15.20451zM186.59843,127.43662c0.2912,0.12065 4.95031,-4.10286 5.23318,-6.01109c0.17754,-1.19768 -0.61685,-7.91325 -1.34366,-7.84977c-0.18312,0.01599 -0.81611,0.71524 -1.22541,1.62568c-0.82305,1.83076 -1.60257,4.73076 -2.02764,6.15338c-0.34663,1.16008 -1.43563,5.75069 -0.63647,6.0818z" fill="#45aeff" stroke="none" stroke-width="0" stroke-linecap="butt"/><path d="M191.36314,139.50567c-0.03288,-0.36579 7.14997,-4.39157 7.84282,-7.27537c0.89398,-3.72097 2.05076,-12.01948 1.8044,-16.80934c-0.1261,-2.45151 -2.43078,-8.33601 -3.67837,-10.97318c-0.46451,-0.98187 1.42075,-3.26568 1.66259,-3.49758c0.56629,-0.54303 3.3298,0.75034 6.66521,2.17651c4.37531,1.87082 9.24442,3.88015 9.35419,4.92761c0.0296,0.28253 1.18922,1.50404 1.27277,5.38536c0.16983,7.88919 0.43232,27.21311 -0.18788,27.81045c-0.76562,0.73743 -7.92251,1.60905 -8.28933,1.61651c-0.1525,0.0031 0.25855,-2.41311 0.30624,-4.78994c0.04748,-2.36683 -0.26861,-4.69461 -0.32579,-4.55549c-0.12938,0.31474 -0.64603,-0.14604 -0.7761,0.1648c-0.56587,1.35222 -1.074,2.6009 -1.64469,3.84756c-4.03464,8.8135 -8.01561,13.29553 -8.48522,13.3705c-1.12526,0.17966 -5.24055,-8.2804 -5.52082,-11.39842zM208.51821,122.84901c0.21775,0.03587 2.06059,-3.07458 2.02302,-3.78007c-0.03533,-0.66332 -3.16534,-2.61567 -3.429,-2.45035c0,0 0.49526,1.78913 0.82691,3.44997c0.28394,1.42195 0.39352,2.74987 0.57906,2.78044z" fill="#45aeff" stroke="none" stroke-width="0" stroke-linecap="butt"/><g fill="#45aeff" stroke="none" stroke-width="0" stroke-linecap="butt"><path d="M175.31878,106.18886c-0.03943,0.25231 -2.69738,1.30077 -5.22274,1.92775c-1.16257,0.28864 -2.93697,0.98665 -2.98231,0.69343c-0.06619,-0.4281 -0.07675,-3.3324 0.23132,-6.3445c0.19092,-1.8667 0.11989,-3.91553 0.29727,-4.22456c0.17706,-0.30847 1.90634,-0.74639 3.36256,-1.35993c1.3993,-0.58955 3.44557,-1.27617 4.41111,-1.03426c0.23017,0.01529 0.19668,2.36223 0.15814,5.15497c-0.02354,1.70553 0.02305,3.40534 -0.25537,5.1871z"/><path d="M170.69015,118.56211c-0.71644,0.25145 -4.18979,-3.59898 -4.24127,-3.97477c-0.01589,-0.116 -0.02252,-3.91037 0.49931,-4.38972c1.05523,-0.96931 8.16047,-3.24308 8.3295,-2.98818c0.14766,0.22267 0.39596,3.21051 0.39596,5.09392c0,0.42188 -4.42216,6.06173 -4.9835,6.25875z"/><path d="M160.16812,105.27675c0,-0.81471 0.45994,-1.83247 1.17893,-3.08634c0.42945,-0.74894 0.95132,-1.80772 1.52278,-2.33239c1.48856,-1.36665 3.23089,-1.31335 3.61855,-1.10615c0.12723,0.05244 -0.23698,9.98542 -0.60313,10.42119c-0.22726,0.27047 -2.89548,0.95504 -3.02876,0.88208c-0.35519,-0.12591 -2.68837,-2.20945 -2.68837,-4.77837z"/><path d="M165.12767,113.34356c-0.1674,-0.01568 -0.7751,-0.65205 -1.14839,-1.20756c-0.30277,-0.45058 -0.22345,-0.69337 -0.22345,-0.97666c0,-0.0829 1.15821,-0.46785 1.8308,-0.59763c0.37017,-0.07143 0.42515,0.02613 0.45358,0.07863c0.03158,0.05832 -0.30553,1.96505 -0.42072,2.24894c-0.11156,0.27492 -0.40971,0.46198 -0.49182,0.45429z"/><path d="M164.1233,97.51429c-0.07137,-0.10555 0.00674,-0.44844 0.26919,-0.81212c0.19283,-0.2672 0.76749,-0.90215 0.88501,-1.14187c0.47432,-0.96758 0.61747,-1.47283 0.82749,-1.50178c0.08436,-0.01163 0.29921,0.30808 0.47509,0.79631c0.23306,0.64697 0.39767,1.54624 0.0995,1.93513c-0.55724,0.76385 -2.34985,1.02958 -2.55627,0.72433z"/><path d="M178.90692,93.20211c-0.60844,0.82251 -2.13867,0.99883 -2.51391,0.84668c-0.16887,-0.06847 -0.36696,-1.33054 -0.26881,-2.52765c0.06024,-0.73479 0.2601,-1.60447 0.4552,-1.61819c0.91248,-0.06416 2.67397,2.83082 2.32752,3.29917z"/><path d="M175.46804,88.77455c0.04768,0.24449 0.26349,5.42271 -0.08911,5.55188c-0.15081,0.05525 -1.56105,0.40025 -3.23263,0.88765c-1.80659,0.52677 -3.89316,1.1946 -4.31899,1.13672c-0.3163,-0.04299 -0.67978,-3.53045 -0.45848,-4.56188c0.13889,-0.64734 1.2901,-1.9716 2.08651,-3.04266c1.20075,-1.61484 2.3192,-3.01654 2.64906,-3.03446c1.14545,-0.06221 3.27767,2.62191 3.36364,3.06274z"/><path d="M179.71449,106.88075c-0.0432,0.34501 -1.90804,2.67826 -2.46226,2.67826c-0.33823,0 -0.18415,-2.8231 -0.08639,-3.15343c0.06836,-0.23101 2.07719,-0.59955 2.50546,-0.58316c0.3548,0.01357 0.15583,0.15878 0.0432,1.05834z"/><path d="M183.58919,100.34674c-0.06879,0.38249 -0.59961,2.04416 -2.21404,3.27637c-1.47184,1.12337 -3.95513,1.7123 -4.32488,1.58909c-0.66208,-0.22063 -0.9663,-8.77071 -0.8358,-9.50715c0.12921,-0.7292 2.96038,-1.55967 3.57616,-1.45691c0.37459,0.06252 0.91795,1.32604 1.7992,2.74563c0.86559,1.39438 2.07329,2.94204 1.99938,3.35298z"/></g><path d="M224.3927,120.24814c0.10176,-0.00799 1.18174,-2.65142 2.04311,-4.78046c1.16215,-2.87248 1.9995,-5.59541 2.46633,-5.74373c1.04806,-0.33298 3.66581,1.82539 6.41883,4.12489c1.64008,1.36989 4.14243,3.08987 4.14556,3.53631c0.00371,0.52804 -4.37646,4.74771 -8.174,8.24629c-2.71989,2.50577 -5.14091,4.67398 -5.43832,4.7017c-0.55148,0.05141 0.37464,6.27884 0.47198,6.82052c0.00184,0.01024 1.11749,0.73246 2.21205,0.65121c1.92707,-0.14305 4.01454,-1.16918 4.16486,-0.92029c0.10998,0.18209 2.2539,2.46122 2.19559,2.70784c-0.16859,0.71315 -1.51046,1.85728 -3.17252,3.33576c-3.46235,3.07993 -8.53603,6.94523 -8.8428,6.72034c-0.45472,-0.33336 -4.66139,-3.47103 -4.78137,-4.0406c-0.56392,-2.67706 -0.22802,-9.65014 -0.26631,-16.56131c-0.00301,-0.54234 -0.30939,-17.90251 -0.32635,-20.12645c-0.00474,-0.62133 -1.00327,-2.15116 -2.09285,-2.94866c-1.28126,-0.9378 -2.61673,-1.14926 -2.75363,-1.35928c-0.78378,-1.20247 -0.18021,-3.58667 0.57446,-3.93347c1.16482,-0.53528 2.2326,-0.1809 3.66669,-0.14587c1.82918,0.04468 4.23346,0.10076 5.88984,0.3846c1.41042,0.24169 2.54711,0.21399 2.93245,1.34779c0.40799,1.20043 0.01691,3.59805 -0.17925,5.10036c-0.29579,2.26548 -0.87813,4.4188 -1.03816,6.7373c-0.24561,3.55844 -0.11622,6.14521 -0.11622,6.14521z" fill="#45aeff" stroke="none" stroke-width="0" stroke-linecap="butt"/><g stroke="none" stroke-width="0" stroke-linecap="butt"><path d="M138.97979,150.41941c-1.99286,1.04045 -29.06502,15.23804 -30.67243,14.45931c-0.38274,-0.18542 -0.98971,-2.05481 -1.02876,-4.53651c-0.07905,-5.02531 0.96232,-12.95103 2.45015,-14.09928c5.61899,-4.33649 8.7313,-4.3694 9.3159,-5.66443c0.44364,-0.96094 3.37921,-13.66854 5.56801,-24.07846c1.2563,-5.97496 2.14143,-11.88453 2.59701,-12.49851c3.58458,-4.83092 31.44068,-14.29702 34.63795,-13.50408c0.27956,0.06933 0.98106,0.1926 1.30147,0.66761c0.21221,0.31461 0.10089,1.25603 0.02651,1.61441c-0.33677,1.62273 -1.91139,4.11646 -3.22388,6.60109c-1.86132,3.52362 -3.58522,7.02894 -3.86313,8.00574c-0.25648,0.90148 -6.01434,2.32939 -8.83173,2.9582c-1.30638,0.29156 0.3312,-2.20351 -1.64469,-1.95924c-0.18798,0.02324 -6.66649,2.95014 -7.52705,3.58375c-0.42108,0.31002 -0.50734,3.94295 -0.4718,4.02902c0.08156,0.19749 2.15397,-0.33412 4.57536,-1.29667c2.39633,-0.95259 5.9681,-2.09845 6.12131,-1.9203c0.29103,0.33842 0.4602,3.69145 0.45742,6.0532c-0.00163,1.38328 0.18899,2.31939 -0.06594,2.45078c-1.17575,0.60603 -3.75756,1.26709 -7.30832,2.83519c-2.33823,1.03263 -4.52544,2.5427 -4.50173,2.71496c0.58414,4.95865 0.47844,9.30204 0.92355,13.23706c0,0 0.70781,4.85801 0.93051,6.65334c0.1919,1.54704 0.23431,3.69382 0.23431,3.69382z" fill="#39a6f7"/><path d="M148.84006,120.88079c0.01511,0.2778 -4.9745,2.63279 -11.24088,4.92712c-7.24734,2.65349 -15.916,5.50933 -15.916,5.50933l2.41814,-12.6523c0,0 2.96914,-0.48001 6.4014,-1.46909c3.1852,-0.91788 6.68413,-1.92714 6.91637,-1.97388c0.22507,-0.0453 -0.18223,0.74822 0.23916,1.01759c0.05735,0.03666 2.87929,-1.04866 5.50439,-2.05125c0,0 2.71076,-0.94748 4.23801,-1.18739c0.47748,-0.075 0.88181,-0.03831 0.99682,0.06347c0.47162,0.41739 0.42858,7.55892 0.44259,7.81638z" fill="#45aeff"/><path d="M139.04562,150.32489c-0.07372,0.08128 -3.07301,1.56158 -7.31294,3.63273c-3.48557,1.70266 -7.84383,3.82176 -11.80994,5.74397c-3.41042,1.65289 -7.22979,3.73725 -9.2414,4.58969c-1.31303,0.55641 -1.64914,0.57521 -1.87663,0.53422c-0.50601,-0.09117 -1.53365,-1.05768 -1.6132,-2.65594c-0.2419,-4.86048 1.28709,-13.9232 1.29719,-14.07275c0.01958,-0.28994 0.85792,-1.50211 1.63306,-2.24032c0.72532,-0.69076 3.60602,-1.91081 4.67232,-2.77452c1.36943,-1.10925 3.21631,-1.6668 4.11186,-2.5801c1.20377,-1.22765 1.0141,-2.66574 1.08763,-2.84347c0.24653,-0.59581 3.917,-1.55566 7.81904,-2.84239c4.22893,-1.39453 8.94293,-3.09645 9.32187,-3.06532c0.26543,0.02181 0.46653,5.96901 0.97679,11.36255c0.30602,3.23466 1.22235,6.8941 0.93434,7.21166z" fill="#45aeff"/></g><g stroke="none" stroke-width="0" stroke-linecap="butt"><path d="M279.75273,98.67697c0.22833,0.3194 -0.25195,1.92738 -1.09155,3.6149c-1.96676,3.953 -5.90521,10.35007 -7.32568,16.04682c-2.69569,10.81103 -1.42941,21.21748 -1.74299,21.61288c-0.30881,0.38938 -2.22266,0.93751 -4.43561,1.86474c-3.14664,1.31845 -6.89804,3.03768 -7.49982,3.01746c-0.67393,-0.02263 -1.52833,-2.60942 -2.9715,-4.85926c-1.78475,-2.78235 -4.13837,-5.33363 -4.21097,-5.27147c-0.19966,0.17097 0.90581,3.7175 1.2119,6.84971c0.19244,1.96922 0.94566,4.28254 1.13168,6.00717c0.26205,2.42948 -0.52198,3.68663 -0.63448,3.68701c-0.6849,0.00229 -4.75761,-4.41605 -8.3396,-8.41329c-3.09591,-3.4548 -6.24333,-6.50451 -6.32631,-7.2011c0,0 0.91235,-1.06298 0.74238,-4.29647c-0.17531,-3.33527 -1.42777,-8.75878 -1.06668,-9.03163c0.13381,-0.10111 4.78801,-4.62187 5.60518,-4.63258c0.37083,-0.00485 -8.44497,-7.04191 -8.02151,-6.97974c0.30182,0.04432 -1.60488,-2.82162 -2.3976,-5.8545c-0.7574,-2.89773 -2.30201,-6.68505 -1.51282,-7.87714c1.46152,-2.20767 11.68556,6.82843 17.01845,13.25452c1.72456,2.07809 8.72882,12.04098 8.79587,11.85587c0.23915,-0.66014 0.00287,-6.94555 1.00193,-12.68516c0.70733,-4.06363 2.74348,-8.20979 2.86026,-8.31355c3.02512,-2.68773 18.96774,-2.73335 19.20946,-2.39523z" fill="#45aeff"/><path d="M275.60512,108.21006c0,0 -1.91745,3.48066 -2.49493,4.97413c-0.62508,1.61658 -1.55394,4.38529 -1.55394,4.38529l-14.78654,4.35146c0,0 0.02953,-0.92636 0.05227,-1.64014c0.04277,-1.34202 0.18478,-5.79781 0.18478,-5.79781z" fill="#39a6f7"/><path d="M237.82111,127.96446c0,0 -0.06544,-1.45248 -0.24581,-2.66519c-0.20119,-1.35279 -0.51642,-2.49407 -0.44837,-2.77276c0.05914,-0.24218 3.73505,-2.43047 4.83759,-2.9892c3.98418,-2.01905 9.97628,-3.38665 9.97628,-3.38665l0.32139,-0.10805c0,0 1.77902,2.45859 2.3627,3.40256c0.5843,0.94499 2.02417,2.54974 2.02417,2.54974z" fill="#39a6f7"/></g><g stroke="none" stroke-width="0" stroke-linecap="butt"><path d="M274.57338,117.257c0.21569,-1.03986 0.81663,-1.96729 1.28153,-2.93263c1.66344,-3.4541 4.39751,-6.26869 6.62973,-6.40838c1.2928,-0.0809 7.8784,9.53853 7.67298,10.77077c-0.17422,1.04504 -5.86173,5.3547 -7.29171,5.33773c-0.69173,-0.00822 -2.97749,-1.06548 -4.73087,-2.39885c-2.13651,-1.62473 -3.71356,-3.63632 -3.56167,-4.36861z" fill="#45aeff"/><path d="M278.30587,110.35836c1.23845,-1.50906 2.38777,-2.39069 3.98102,-2.76368c0.59592,-0.13951 1.4273,0.63879 2.37229,1.90407c1.14664,1.53527 2.36821,3.67764 2.36821,3.67764c0,0 -4.07604,1.02827 -6.11532,1.57708c-2.07775,0.55917 -6.3239,2.00539 -6.3239,2.00539c0,0 1.16791,-2.34972 1.8061,-3.44844c0.59849,-1.03039 1.9116,-2.95206 1.9116,-2.95206z" fill="#39a6f7"/></g><g stroke="none" stroke-width="0" stroke-linecap="butt"><path d="M276.18078,153.71916c-0.68856,0.12548 -3.6592,-6.32996 -4.43624,-9.6563c-0.28954,-1.23944 -0.37594,-2.479 -0.23319,-3.9683c0.12215,-1.27436 0.45969,-2.81092 0.45071,-3.80232c-0.00259,-0.28509 1.83282,-6.60552 1.95108,-7.11008c0.53571,-2.28575 0.5763,-4.50062 0.5763,-4.50062c0.68385,-0.6498 1.64243,-0.71304 1.87523,-0.7091c0.54876,0.00929 2.56,0.75864 4.73634,2.59535c0.38904,0.57425 -0.9421,9.65457 -0.65038,10.41079c0.31635,0.82004 5.67159,4.48446 5.75563,5.12496c0.28124,2.14365 -1.37091,5.68214 -2.86026,7.24705c-0.9315,0.97876 -2.37118,2.37606 -4.11319,3.30496c-1.04324,0.55629 -2.51567,0.96582 -3.05203,1.06357z" fill="#45aeff"/><path d="M275.88793,153.8476c0,0 -0.96996,-1.59116 -1.34526,-2.34176c-0.30947,-0.61896 -0.74737,-1.84351 -0.74737,-1.84351l10.81192,-2.54105c0,0 -0.12531,0.7146 -1.31745,2.01436c-1.30929,1.42749 -3.73073,3.4786 -4.57337,4.12864c-1.05777,0.81599 -2.82848,0.58331 -2.82848,0.58331z" fill="#39a6f7"/></g><g stroke="none" stroke-width="0" stroke-linecap="butt"><path d="M292.03303,119.38754c0.41168,-1.38464 -10.01951,-16.79804 -9.6497,-17.24534c1.27898,-1.54706 7.53996,-7.34762 8.86274,-7.6567c0.33075,-0.07728 2.7157,2.26819 6.081,4.6021c6.21703,4.31164 15.03467,10.06498 15.15557,10.77753c0.14309,0.84326 -1.07766,3.53646 -1.17906,5.74533c-0.24092,5.2481 0.19923,12.16953 -0.21169,12.38022c-0.38861,0.19925 -2.08165,0.33169 -3.64792,0.22797c-1.85443,-0.12281 -3.62152,-0.50893 -4.12197,-0.5424c-0.42201,-0.02822 -0.71292,-2.55729 -1.25342,-4.72085c-0.4126,-1.65154 -1.13482,-3.09011 -1.19898,-3.04073c-0.68206,0.52487 -0.67335,17.62596 -0.23319,17.6742c0.20308,0.02225 3.36509,-0.47534 3.85533,-1.04422c0.25496,-0.29586 -0.08985,-1.48372 -0.08574,-1.52226c0.01742,-0.16339 -1.63785,0.48496 -1.78465,0.26287c-0.16247,-0.24581 -0.2369,-3.64139 0.07937,-4.05961c0.65839,-0.87063 3.65528,-0.87321 6.16315,-1.20294c1.66442,-0.21883 2.59388,0.12715 2.61211,0.25544c0.04006,0.28189 1.07789,1.32774 1.42173,2.59278c0.66992,2.46479 0.70448,5.92714 0.2593,6.02696c-0.84416,0.18928 -11.02208,2.29248 -18.27796,5.25839c-4.04027,1.65151 -8.2797,5.27618 -8.39202,5.20467c-0.37447,-0.2384 1.06276,-3.8875 1.63036,-7.24977c0.04784,-0.28338 0.20317,-1.12658 -0.67292,-1.902c-1.04992,-0.92928 -3.10376,-1.80509 -3.10271,-2.17464c0.00287,-1.00456 -1.24885,-10.20456 -0.60382,-11.26371c0.38944,-0.63946 2.21281,-1.92204 3.77848,-3.24253c2.27907,-1.92216 4.45237,-3.92465 4.51662,-4.14077z" fill="#45aeff"/><path d="M286.44592,149.58014c-0.22211,0.03823 -0.28082,-0.25177 -0.18543,-0.74374c0.21897,-1.12933 1.03725,-3.1102 1.03725,-3.1102l7.42386,-1.44491z" fill="#39a6f7"/><path d="M288.60499,112.76166l-4.24882,-7.05874c0,0 3.84472,-1.67113 6.09096,-2.41594c2.5793,-0.85524 8.78216,-2.86001 8.78216,-2.86001c0,0 3.75004,2.58504 5.34004,3.65797c1.56336,1.05494 4.03541,2.98449 4.03541,2.98449z" fill="#39a6f7"/></g><g stroke="none" stroke-width="0" stroke-linecap="butt"><path d="M330.07653,117.85505c0,2.89149 1.10041,8.94506 2.97464,14.33274c0.92029,2.64548 2.77582,5.21358 3.32129,7.00596c0.52909,1.73857 0.55693,3.04727 0.28778,3.03605c-1.78253,-0.07426 -4.83021,0.88006 -7.8395,1.93768c-2.48104,0.87197 -5.53791,2.32722 -5.98766,2.65393c-0.19654,0.14276 -0.2778,-7.54886 -1.19635,-12.51834c-0.38365,-2.07555 -0.9559,-3.8787 -1.48986,-4.7339c-0.39739,-0.63649 -0.82246,-0.60122 -0.87205,-0.54452c-0.92981,1.0631 0.34884,12.05655 0.11437,12.01376c-1.14686,-0.20927 -3.83163,0.27093 -3.94125,-0.93172c-0.21117,-2.31692 -1.66742,-13.35923 -2.08519,-21.53086c-0.31847,-6.22921 0.1212,-10.24485 -0.04451,-10.71905c0.00433,-0.7031 -9.01311,-6.35794 -8.89977,-7.82312c0.09776,-1.26373 7.84113,-5.90406 11.36423,-7.33391c1.16457,-0.47264 1.73263,0.54122 1.76948,0.53001c0.71061,-0.21623 3.52226,20.35507 3.59085,20.18593c0.05828,-0.14372 1.11862,-4.7054 2.59927,-8.08757c0.89127,-2.03585 1.69652,-3.20588 2.00202,-3.16618c0.96637,0.12555 3.38421,0.64663 4.73861,1.96843c0.62856,0.61343 -0.40637,5.68237 -0.40637,13.7247z" fill="#45aeff"/><path d="M315.28067,138.22936l3.9416,-1.08609l0.10779,1.91056c0,0 -1.11501,0.48128 -1.62766,0.65119c-0.72284,0.23957 -2.21711,0.66053 -2.21711,0.66053z" fill="#39a6f7"/><path d="M322.56953,142.51077l13.21539,-4.80461c0,0 0.29173,0.5801 0.54611,1.3446c0.19817,0.59558 0.36218,1.34903 0.42253,1.72885c0.08809,0.55438 0.04121,1.45077 0.04121,1.45077c0,0 -3.61011,0.67604 -5.46015,1.24156c-1.04003,0.31792 -2.89412,1.06506 -4.45255,1.70808c-1.76158,0.72684 -4.01793,1.61261 -4.01793,1.61261c0,0 -0.20911,-1.39464 -0.25469,-2.05714c-0.05182,-0.75314 -0.03992,-2.22471 -0.03992,-2.22471z" fill="#39a6f7"/><path d="M311.40556,106.0873c0,0 -1.34961,-0.98776 -2.93217,-2.10423c-1.45844,-1.0289 -2.82993,-2.08111 -3.46101,-2.65624c-1.00615,-0.91693 -0.39543,-1.73191 -0.39543,-1.73191c0,0 4.61964,-2.29832 7.15303,-3.22921c2.22978,-0.81933 6.28356,-1.81303 6.28356,-1.81303c0,0 1.14654,4.67922 1.21524,5.39068c0.12792,1.32458 0.23338,3.68431 0.23338,3.68431z" fill="#39a6f7"/><path d="M321.87012,135.91153c0,0 7.33762,-2.94353 9.22228,-3.65592c0.77979,-0.29476 1.724,-0.66728 1.724,-0.66728l1.06096,2.52897c0,0 -2.6321,0.32466 -4.32373,0.86684c-2.32543,0.74533 -7.42238,3.06671 -7.42238,3.06671z" fill="#39a6f7"/></g><g stroke="none" stroke-width="0" stroke-linecap="butt"><path d="M356.91217,109.92803c-0.79227,0.50475 -14.65898,0.82361 -14.58216,1.67144c0.52049,5.74411 11.822,30.96324 11.42197,31.20745c-1.34658,0.82207 -14.73244,6.72291 -15.04086,6.70477c-0.84826,-0.04989 -0.32789,-11.20682 -1.88808,-22.70463c-0.9321,-6.86908 -1.98651,-13.15813 -3.09379,-17.67185c-0.37216,-1.51709 -1.00584,-5.49404 -2.58423,-6.89567c-1.78495,-1.58504 -6.03029,-2.61072 -5.98194,-2.78077c0.071,-0.2497 -1.79884,3.9308 -2.28015,3.78664c-0.4634,-0.1388 -0.98098,-0.65889 -1.19323,-1.91162c-0.28091,-1.65805 -0.22874,-4.33046 -0.79149,-6.45631c-1.09391,-4.13232 -2.27008,-7.55489 -2.11783,-7.9728c0.82332,-2.26005 36.99259,12.45755 39.16913,13.68421c0.64558,0.36384 0.16767,2.72506 -0.23352,4.98743c-0.36539,2.06041 -0.49832,4.15711 -0.80379,4.35171z" fill="#45aeff"/><path d="M337.15118,129.19469c0,0 3.78083,-1.34171 5.46862,-1.87958c1.59031,-0.5068 4.47079,-1.25999 4.47079,-1.25999l0.97001,2.32003c0,0 -3.2636,0.94414 -4.96638,1.58376c-1.84099,0.69153 -5.63884,2.15881 -5.63884,2.15881z" fill="#39a6f7"/><path d="M338.86279,149.81837c0,0 -0.61403,0.16916 -0.64507,-0.18641c-0.13014,-1.49089 0.122,-4.99309 0.00902,-6.89739c-0.0908,-1.53047 -0.43971,-6.07536 -0.43971,-6.07536l11.85961,-4.23726c0,0 3.18967,7.90034 3.7785,9.38576c0.17964,0.45315 0.35165,1.03325 0.35165,1.03325c0,0 -2.13478,1.08092 -4.95607,2.53472c-1.46962,0.75729 -3.34587,1.53624 -4.33641,1.98924c-2.20734,1.0095 -5.62152,2.45344 -5.62152,2.45344z" fill="#39a6f7"/><path d="M321.72573,101.66137c-0.09035,-0.51004 -0.24053,-3.03141 -0.47259,-4.46297c-0.39888,-2.46068 -0.80329,-3.83232 -0.80329,-3.83232l10.19781,-3.53748l12.23037,4.49269c0,0 -4.15936,1.80416 -6.4153,2.7527c-2.65483,1.11625 -8.55118,3.44701 -8.55118,3.44701c0,0 -1.5257,-0.88647 -2.49659,-0.6441c-0.28815,0.07193 -0.53307,0.57305 -0.74828,0.81159c-0.60092,0.66607 -0.64017,1.1726 -0.71622,1.20404c-0.88381,0.3654 -1.72833,0.82811 -1.72833,0.82811z" fill="#39a6f7"/></g><g stroke-linecap="round"><g stroke-width="1"><g><path d="M376.58499,233.41068c0,0 4.88217,0.01849 7.97252,0.41428c3.09035,0.3958 7.0068,1.50425 7.0068,1.50425c0,0 0.67248,0.76817 1.70215,2.0818c3.37235,4.30243 10.57606,14.45604 10.53281,22.63635c-0.02151,4.06714 -0.9396,7.37282 -2.41351,10.05957c-0.09561,0.17426 0.43152,1.08558 0.16001,1.5123c-0.23371,0.3673 -1.26762,0.25582 -1.37248,0.40018c-1.15928,1.59594 -2.52914,2.93065 -4.00742,4.04689c-0.24994,0.18873 2.26903,4.43705 0.39062,5.7199c-1.87841,1.28286 -1.80177,-4.73448 -2.13332,-4.52974c-2.50122,1.54462 -5.18354,2.56055 -7.61448,3.22865c-0.4551,0.12508 2.20722,5.03915 -0.09202,5.58617c-2.29924,0.54701 -2.00203,-5.07509 -2.36548,-5.00151c-3.31656,0.67146 -5.71557,0.69737 -5.71557,0.69737z" fill="#45aeff" stroke="#45aeff"/><path d="M393.8177,253.68277c0,0 0.15022,4.13711 -0.14699,5.85405c-0.28541,1.64858 -1.60237,4.25086 -1.60237,4.25086" fill="#000000" stroke="#000000"/></g><path d="M383.81515,281.11186c0,0 -3.76915,0.42301 -8.66982,0.97302c-0.45304,0.05084 1.31053,5.17603 -0.83356,5.41668c-2.14409,0.24063 -1.28686,-5.17869 -1.65993,-5.13682c-5.29413,0.59417 -11.31199,1.26956 -15.27189,1.714c-0.52252,0.05864 1.57294,5.40482 -0.77773,5.66864c-2.35067,0.26382 -1.58363,-5.40361 -1.95617,-5.36181c-3.07054,0.34461 -6.83541,0.76715 -6.83541,0.76715l-2.60192,-8.01173c0,0 2.34878,-1.18823 2.96164,-2.54908c1.5881,-3.5264 -2.13347,-25.80518 -2.13347,-25.80518l-4.94453,0.9141l-2.9872,-7.86393c0,0 11.37846,-4.30373 17.3121,-6.11895c6.09383,-1.86422 18.7831,-4.92326 18.7831,-4.92326l1.4631,16.50707c0,0 -0.66456,1.01895 -1.77615,1.29085c-0.5849,0.14307 -1.53942,-0.47986 -2.05284,-0.35428c-2.08521,0.51004 -7.8889,2.53758 -7.8889,2.53758l0.15047,-3.06606l-6.0192,1.30479l1.11664,7.80475l9.26834,-2.34569l1.49623,8.98744l-9.21109,0.94461l1.65868,8.9584l6.4894,-1.03372l-0.86517,-3.51005l11.99231,-2.4309c0,0 2.58637,3.68935 3.10897,5.71783c0.17445,0.67713 -1.67762,-0.16205 -1.53506,0.39125c0.67632,2.62513 2.21908,8.61332 2.21908,8.61332z" data-paper-data="{&quot;index&quot;:null}" fill="#45aeff" stroke="#45aeff"/><path d="M309.62464,241.19726l39.97482,-13.04089l4.85764,16.45389l-2.06314,1.17281c0,0 1.53718,4.21286 -0.16499,4.89723c-1.7022,0.68439 -3.5032,-3.42239 -3.5032,-3.42239l-8.89757,3.69438l12.25127,31.05179l-6.81841,1.64769c0,0 1.29365,4.81366 -2.08552,5.60235c-2.54106,0.59307 -2.37193,-4.71578 -2.37193,-4.71578l-8.37922,2.21546l-4.85906,-30.21744l-7.13231,1.9931c0,0 1.94249,4.32856 -0.59287,4.93678c-2.44272,0.58601 -2.53584,-3.89051 -2.53584,-3.89051l-4.22892,1.15308z" fill="#45aeff" stroke="#45aeff"/><path d="M303.67268,244.31338l8.01548,-5.31836l7.7268,4.68582c0,0 -3.21008,9.23999 -3.76023,14.55014c-0.62931,6.0742 0.1898,19.91199 0.1898,19.91199l5.97782,-0.73395l-0.25453,-5.60325l14.41271,-2.63641l2.17942,15.9858c0,0 -5.9172,1.35585 -12.42608,2.84727c-0.51852,0.11881 -0.92612,1.17252 -1.44945,1.29243c-0.43126,0.09882 -0.97793,-0.73623 -1.40913,-0.63743c-4.65709,1.06712 -9.22261,2.11323 -11.79836,2.70343c-0.27932,0.06401 1.02509,5.51279 -0.30383,5.81729c-1.32892,0.30451 -1.56624,-5.38879 -2.08281,-5.27043c-3.52895,0.80861 -7.20639,1.65125 -7.20639,1.65125c0,0 1.55264,-17.93063 1.92903,-26.39922c0.35149,-7.90821 0.25973,-22.84635 0.25973,-22.84635z" fill="#45aeff" stroke="#45aeff"/><path d="M260.75559,250.01478c0,0 13.5303,-2.16511 20.10778,-3.59841c7.69732,-1.67732 23.24698,-5.84903 23.24698,-5.84903c0,0 1.4533,7.16863 2.02228,10.75699c0.50941,3.21267 0.93058,7.31055 0.93058,7.31055c0,0 -2.43092,0.23897 -4.74409,0.46638c-0.5845,0.05746 -1.03709,1.1273 -1.56544,1.17924c-0.56243,0.0553 -1.19413,-0.90796 -1.59673,-0.86838c-1.73304,0.17037 -4.5776,0.45001 -4.5776,0.45001c0,0 1.91798,8.1113 2.3757,11.05587c0.47376,3.04769 0.63366,8.66836 0.63366,8.66836l12.08499,-5.67247c0,0 1.83695,6.42124 2.33223,9.8283c0.44464,3.05865 0.39731,8.81342 0.39731,8.81342c0,0 -3.26402,0.32042 -7.36171,0.75687c-0.33767,0.03597 0.04697,1.13479 -0.89043,1.23584c-0.93741,0.10104 -0.94997,-1.03801 -1.3624,-0.99299c-3.05511,0.33347 -6.31111,0.70683 -8.90689,1.04763c-0.30974,0.04066 2.62394,5.48441 0.36816,5.7924c-2.25578,0.30799 -1.76365,-5.60335 -1.99828,-5.56983c-2.94671,0.42106 -7.19655,1.17015 -10.80696,1.83288c-0.36947,0.06783 1.85982,5.41101 -0.3952,5.82876c-2.25502,0.41774 -1.46854,-5.48409 -1.83809,-5.41503c-2.77921,0.51933 -4.78018,0.90942 -4.78018,0.90942c0,0 -0.65519,-5.82629 -1.34023,-9.02092c-0.7895,-3.68177 -3.12801,-11.81636 -3.12801,-11.81636l12.56393,1.81807c0,0 -0.63774,-3.42674 -1.22874,-5.28665c-0.67478,-2.12359 -2.90413,-9.22948 -2.90413,-9.22948c0,0 -2.55223,0.99859 -4.62449,1.80937c-0.2672,0.10455 0.97009,3.63165 -0.30123,4.12906c-1.27132,0.49741 -1.334,-3.48926 -1.64778,-3.36649c-1.2249,0.47925 -3.09887,1.21246 -3.09887,1.21246c0,0 -1.96073,-4.33728 -3.32671,-7.75317c-1.38968,-3.47516 -4.63941,-10.46264 -4.63941,-10.46264z" fill="#45aeff" stroke="#45aeff"/><path d="M220.905,239.61307l53.87296,-17.57485l6.5465,22.17447l-2.78043,1.58056c0,0 2.07163,5.67755 -0.22235,6.59986c-2.294,0.92233 -4.72118,-4.61225 -4.72118,-4.61225l-11.99101,4.97882l16.5107,41.84764l-9.18899,2.22055c0,0 1.74342,6.48724 -2.8106,7.55013c-3.42451,0.79925 -3.19659,-6.35533 -3.19659,-6.35533l-11.29245,2.98571l-6.54843,-40.72322l-9.61203,2.68604c0,0 2.61784,5.83348 -0.799,6.65317c-3.29198,0.78975 -3.41749,-5.24314 -3.41749,-5.24314l-5.6992,1.55397z" fill="#45aeff" stroke="#45aeff"/></g><g fill="#000000" stroke="#000000" stroke-width="1"><g><path d="M374.06246,231.20162c0,0 4.88218,0.01849 7.97252,0.41428c3.09034,0.3958 7.00681,1.50425 7.00681,1.50425c0,0 0.67248,0.76817 1.70215,2.0818c3.37235,4.30243 10.57606,14.45603 10.53281,22.63635c-0.0215,4.06715 -0.9396,7.37282 -2.41351,10.05957c-0.0956,0.17427 0.43152,1.08558 0.16001,1.5123c-0.23371,0.3673 -1.26762,0.25582 -1.37248,0.40018c-1.15928,1.59594 -2.52914,2.93065 -4.00742,4.04689c-0.24994,0.18873 2.26904,4.43705 0.39062,5.7199c-1.87841,1.28286 -1.80178,-4.73448 -2.13333,-4.52974c-2.50123,1.54462 -5.18354,2.56055 -7.61448,3.22865c-0.4551,0.12508 2.20722,5.03915 -0.09202,5.58617c-2.29924,0.54702 -2.00203,-5.07509 -2.36548,-5.0015c-3.31656,0.67146 -5.71557,0.69737 -5.71557,0.69737z"/><path d="M391.29518,251.47371c0,0 0.15022,4.13711 -0.14699,5.85405c-0.28541,1.64858 -1.60237,4.25085 -1.60237,4.25085"/></g><path d="M381.29263,278.9028c0,0 -3.76915,0.42301 -8.66982,0.97302c-0.45304,0.05084 1.31053,5.17603 -0.83356,5.41667c-2.14409,0.24063 -1.28686,-5.17869 -1.65993,-5.13681c-5.29414,0.59417 -11.31199,1.26956 -15.27189,1.714c-0.52252,0.05864 1.57294,5.40482 -0.77773,5.66864c-2.35067,0.26382 -1.58363,-5.40361 -1.95616,-5.36181c-3.07054,0.34461 -6.83541,0.76715 -6.83541,0.76715l-2.60192,-8.01173c0,0 2.34879,-1.18822 2.96165,-2.54908c1.5881,-3.5264 -2.13347,-25.80518 -2.13347,-25.80518l-4.94453,0.91411l-2.9872,-7.86392c0,0 11.37847,-4.30374 17.3121,-6.11895c6.09383,-1.86422 18.7831,-4.92326 18.7831,-4.92326l1.4631,16.50707c0,0 -0.66456,1.01895 -1.77614,1.29085c-0.5849,0.14307 -1.53942,-0.47986 -2.05284,-0.35429c-2.08521,0.51004 -7.8889,2.53758 -7.8889,2.53758l0.15047,-3.06606l-6.01919,1.3048l1.11663,7.80475l9.26834,-2.34568l1.49622,8.98744l-9.21109,0.94461l1.65867,8.9584l6.4894,-1.03372l-0.86517,-3.51006l11.99231,-2.4309c0,0 2.58637,3.68936 3.10897,5.71783c0.17445,0.67713 -1.67761,-0.16205 -1.53506,0.39125c0.67632,2.62513 2.21909,8.61332 2.21909,8.61332z" data-paper-data="{&quot;index&quot;:null}"/><path d="M307.10212,238.9882l39.97482,-13.04089l4.85764,16.45389l-2.06314,1.1728c0,0 1.53719,4.21286 -0.16499,4.89722c-1.7022,0.68439 -3.5032,-3.42239 -3.5032,-3.42239l-8.89757,3.69438l12.25127,31.05179l-6.81841,1.64769c0,0 1.29365,4.81366 -2.08552,5.60235c-2.54106,0.59307 -2.37193,-4.71577 -2.37193,-4.71577l-8.37922,2.21546l-4.85906,-30.21744l-7.13231,1.99309c0,0 1.94249,4.32857 -0.59287,4.93678c-2.44272,0.58601 -2.53584,-3.89051 -2.53584,-3.89051l-4.22892,1.15308z"/><path d="M301.15015,242.10432l8.01549,-5.31836l7.7268,4.68582c0,0 -3.21008,9.23999 -3.76023,14.55014c-0.62932,6.0742 0.1898,19.91198 0.1898,19.91198l5.97781,-0.73394l-0.25453,-5.60325l14.41271,-2.63641l2.17942,15.9858c0,0 -5.9172,1.35585 -12.42608,2.84727c-0.51852,0.11882 -0.92611,1.17252 -1.44945,1.29243c-0.43126,0.09882 -0.97793,-0.73623 -1.40913,-0.63743c-4.65709,1.06711 -9.22261,2.11324 -11.79836,2.70343c-0.27932,0.064 1.02508,5.51279 -0.30383,5.81729c-1.32892,0.3045 -1.56624,-5.38879 -2.08281,-5.27043c-3.52895,0.80861 -7.20639,1.65125 -7.20639,1.65125c0,0 1.55264,-17.93063 1.92903,-26.39922c0.35149,-7.90821 0.25973,-22.84636 0.25973,-22.84636z"/><path d="M258.23307,247.80571c0,0 13.53029,-2.16511 20.10778,-3.59841c7.69732,-1.67732 23.24698,-5.84903 23.24698,-5.84903c0,0 1.45331,7.16864 2.02228,10.75699c0.50941,3.21267 0.93058,7.31055 0.93058,7.31055c0,0 -2.43091,0.23897 -4.74409,0.46637c-0.5845,0.05746 -1.0371,1.1273 -1.56544,1.17924c-0.56243,0.05529 -1.19413,-0.90796 -1.59673,-0.86838c-1.73305,0.17037 -4.57761,0.45001 -4.57761,0.45001c0,0 1.91798,8.1113 2.3757,11.05588c0.47376,3.04769 0.63366,8.66836 0.63366,8.66836l12.08499,-5.67247c0,0 1.83695,6.42124 2.33224,9.8283c0.44463,3.05865 0.39731,8.81342 0.39731,8.81342c0,0 -3.26402,0.32042 -7.36171,0.75687c-0.33767,0.03597 0.04697,1.13479 -0.89043,1.23584c-0.93741,0.10105 -0.94997,-1.03801 -1.36241,-0.99299c-3.0551,0.33347 -6.31111,0.70683 -8.90689,1.04763c-0.30974,0.04066 2.62394,5.48441 0.36816,5.7924c-2.25578,0.30799 -1.76365,-5.60335 -1.99828,-5.56982c-2.94671,0.42106 -7.19655,1.17015 -10.80696,1.83288c-0.36947,0.06782 1.85982,5.41101 -0.3952,5.82876c-2.25502,0.41774 -1.46854,-5.48409 -1.83809,-5.41504c-2.77921,0.51933 -4.78018,0.90942 -4.78018,0.90942c0,0 -0.65519,-5.82629 -1.34022,-9.02092c-0.7895,-3.68177 -3.12801,-11.81637 -3.12801,-11.81637l12.56393,1.81807c0,0 -0.63774,-3.42674 -1.22874,-5.28665c-0.67478,-2.12359 -2.90413,-9.22947 -2.90413,-9.22947c0,0 -2.55223,0.99859 -4.62449,1.80937c-0.2672,0.10455 0.97009,3.63165 -0.30123,4.12906c-1.27132,0.49741 -1.33401,-3.48926 -1.64778,-3.36649c-1.2249,0.47925 -3.09887,1.21246 -3.09887,1.21246c0,0 -1.96073,-4.33728 -3.32671,-7.75317c-1.38968,-3.47516 -4.63941,-10.46264 -4.63941,-10.46264z"/><path d="M218.38247,237.404l53.87297,-17.57485l6.5465,22.17447l-2.78043,1.58056c0,0 2.07163,5.67755 -0.22235,6.59986c-2.294,0.92233 -4.72117,-4.61225 -4.72117,-4.61225l-11.99101,4.97883l16.5107,41.84764l-9.18899,2.22054c0,0 1.74342,6.48724 -2.8106,7.55013c-3.42451,0.79925 -3.1966,-6.35533 -3.1966,-6.35533l-11.29245,2.98571l-6.54843,-40.72322l-9.61202,2.68604c0,0 2.61785,5.83348 -0.799,6.65317c-3.29198,0.78975 -3.41749,-5.24314 -3.41749,-5.24314l-5.6992,1.55397z"/></g><g stroke="#000000" stroke-width="2.5"><g><path d="M370.63044,229.12321c0,0 4.78304,0.01811 7.81062,0.40587c3.02759,0.38776 6.86452,1.4737 6.86452,1.4737c0,0 0.65882,0.75257 1.66758,2.03952c3.30386,4.21506 10.3613,14.16248 10.31893,22.17668c-0.02107,3.98455 -0.92052,7.2231 -2.3645,9.85529c-0.09366,0.17073 0.42276,1.06354 0.15676,1.48159c-0.22896,0.35984 -1.24187,0.25063 -1.34461,0.39205c-1.13574,1.56353 -2.47778,2.87114 -3.92604,3.96471c-0.24486,0.1849 2.22296,4.34695 0.38269,5.60375c-1.84027,1.25681 -1.76519,-4.63834 -2.09,-4.43775c-2.45043,1.51326 -5.07828,2.50855 -7.45986,3.16309c-0.44586,0.12254 2.1624,4.93682 -0.09015,5.47273c-2.25255,0.53591 -1.96137,-4.97203 -2.31744,-4.89994c-3.24921,0.65782 -5.59951,0.6832 -5.59951,0.6832z" fill="#ffffff"/><path d="M387.51321,248.98363c0,0 0.14717,4.05309 -0.14401,5.73517c-0.27961,1.6151 -1.56983,4.16453 -1.56983,4.16453" fill="none"/></g><path d="M377.71378,275.85573c0,0 -3.69261,0.41442 -8.49377,0.95326c-0.44384,0.04981 1.28392,5.07092 -0.81663,5.30668c-2.10055,0.23575 -1.26073,-5.07353 -1.62623,-5.0325c-5.18663,0.58211 -11.08228,1.24378 -14.96177,1.67919c-0.51191,0.05745 1.541,5.29506 -0.76194,5.55352c-2.30294,0.25846 -1.55147,-5.29388 -1.91644,-5.25293c-3.00819,0.33761 -6.6966,0.75157 -6.6966,0.75157l-2.54909,-7.84904c0,0 2.30109,-1.16409 2.9015,-2.49732c1.55585,-3.45479 -2.09015,-25.28116 -2.09015,-25.28116l-4.84412,0.89554l-2.92654,-7.70423c0,0 11.14741,-4.21634 16.96055,-5.99469c5.97008,-1.82636 18.40167,-4.82328 18.40167,-4.82328l1.43339,16.17186c0,0 -0.65106,0.99826 -1.74008,1.26464c-0.57302,0.14016 -1.50816,-0.47011 -2.01116,-0.34709c-2.04286,0.49968 -7.7287,2.48605 -7.7287,2.48605l0.14742,-3.0038l-5.89696,1.2783l1.09396,7.64625l9.08013,-2.29805l1.46584,8.80493l-9.02404,0.92542l1.62499,8.77649l6.35762,-1.01273l-0.8476,-3.43878l11.74878,-2.38153c0,0 2.53385,3.61444 3.04583,5.60172c0.1709,0.66338 -1.64355,-0.15876 -1.50389,0.38331c0.66259,2.57182 2.17402,8.43841 2.17402,8.43841z" data-paper-data="{&quot;index&quot;:null}" fill="#ffffff"/><path d="M305.02985,236.75166l39.16305,-12.77607l4.75899,16.11977l-2.02125,1.14899c0,0 1.50597,4.12731 -0.16164,4.79778c-1.66763,0.67049 -3.43206,-3.35289 -3.43206,-3.35289l-8.71689,3.61936l12.00249,30.42122l-6.67995,1.61423c0,0 1.26738,4.71591 -2.04317,5.48858c-2.48946,0.58102 -2.32377,-4.62001 -2.32377,-4.62001l-8.20906,2.17047l-4.76039,-29.60381l-6.98748,1.95262c0,0 1.90304,4.24067 -0.58083,4.83653c-2.39311,0.57411 -2.48435,-3.81151 -2.48435,-3.81151l-4.14304,1.12966z" fill="#ffffff"/><path d="M299.19875,239.8045l7.85272,-5.21036l7.56989,4.59066c0,0 -3.14489,9.05235 -3.68387,14.25467c-0.61654,5.95086 0.18595,19.50763 0.18595,19.50763l5.85642,-0.71904l-0.24936,-5.48947l14.12003,-2.58287l2.13516,15.66118c0,0 -5.79704,1.32832 -12.17374,2.78945c-0.50799,0.1164 -0.90731,1.14871 -1.42001,1.26618c-0.4225,0.09681 -0.95807,-0.72128 -1.38051,-0.62448c-4.56252,1.04544 -9.03533,2.07032 -11.55877,2.64854c-0.27365,0.0627 1.00427,5.40084 -0.29766,5.69916c-1.30193,0.29832 -1.53443,-5.27936 -2.04052,-5.1634c-3.45729,0.79219 -7.06005,1.61772 -7.06005,1.61772c0,0 1.52111,-17.56651 1.88986,-25.86313c0.34435,-7.74762 0.25446,-22.38242 0.25446,-22.38242z" fill="#ffffff"/><path d="M257.15318,245.39012c0,0 13.25554,-2.12114 19.69945,-3.52534c7.54101,-1.64326 22.77491,-5.73026 22.77491,-5.73026c0,0 1.42379,7.02307 1.98122,10.53855c0.49907,3.14743 0.91168,7.1621 0.91168,7.1621c0,0 -2.38155,0.23412 -4.64775,0.4569c-0.57263,0.05629 -1.01604,1.10441 -1.53365,1.1553c-0.55101,0.05417 -1.16988,-0.88952 -1.5643,-0.85075c-1.69785,0.16691 -4.48465,0.44087 -4.48465,0.44087c0,0 1.87903,7.94658 2.32746,10.83137c0.46414,2.9858 0.62079,8.49233 0.62079,8.49233l11.83958,-5.55728c0,0 1.79964,6.29085 2.28487,9.62872c0.4356,2.99654 0.38924,8.63445 0.38924,8.63445c0,0 -3.19774,0.31392 -7.21221,0.7415c-0.33081,0.03524 0.04601,1.11175 -0.87235,1.21074c-0.91837,0.09899 -0.93068,-1.01693 -1.33474,-0.97283c-2.99307,0.3267 -6.18295,0.69247 -8.72602,1.02636c-0.30345,0.03984 2.57065,5.37304 0.36068,5.67477c-2.20997,0.30173 -1.72783,-5.48957 -1.9577,-5.45672c-2.88687,0.41251 -7.05041,1.14639 -10.58751,1.79566c-0.36197,0.06645 1.82205,5.30113 -0.38717,5.71039c-2.20922,0.40925 -1.43872,-5.37273 -1.80076,-5.30507c-2.72277,0.50879 -4.68311,0.89095 -4.68311,0.89095c0,0 -0.64189,-5.70798 -1.31301,-8.83773c-0.77347,-3.60701 -3.06449,-11.57641 -3.06449,-11.57641l12.30879,1.78115c0,0 -0.62479,-3.35715 -1.20379,-5.17929c-0.66108,-2.08046 -2.84516,-9.04205 -2.84516,-9.04205c0,0 -2.50041,0.97831 -4.53058,1.77263c-0.26177,0.10242 0.95039,3.5579 -0.29512,4.04521c-1.24551,0.48731 -1.30692,-3.4184 -1.61432,-3.29813c-1.20003,0.46952 -3.03594,1.18784 -3.03594,1.18784c0,0 -1.92092,-4.2492 -3.25916,-7.59573c-1.36146,-3.40459 -4.54519,-10.25017 -4.54519,-10.25017z" fill="#ffffff"/><path d="M218.11183,235.19964l52.77897,-17.21796l6.41356,21.72418l-2.72397,1.54846c0,0 2.02956,5.56226 -0.21784,6.46584c-2.24741,0.9036 -4.6253,-4.51859 -4.6253,-4.51859l-11.74751,4.87772l16.17542,40.99784l-9.00239,2.17545c0,0 1.70802,6.3555 -2.75352,7.39681c-3.35497,0.78302 -3.13168,-6.22627 -3.13168,-6.22627l-11.06314,2.92508l-6.41545,-39.89625l-9.41683,2.6315c0,0 2.56468,5.71502 -0.78277,6.51806c-3.22513,0.77371 -3.34809,-5.13667 -3.34809,-5.13667l-5.58347,1.52242z" fill="#ffffff"/></g></g></g></g></svg>