<svg version="1.1" xmlns="http://www.w3.org/2000/svg" xmlns:xlink="http://www.w3.org/1999/xlink" width="558.55706" height="379.56359" viewBox="0,0,558.55706,379.56359"><defs><linearGradient x1="242.82282" y1="-7.65061" x2="242.82282" y2="256.61365" gradientUnits="userSpaceOnUse" id="color-1"><stop offset="0" stop-color="#80b7ff"/><stop offset="1" stop-color="#cee0ff"/></linearGradient><linearGradient x1="246.70475" y1="114.38935" x2="246.70475" y2="256.57925" gradientUnits="userSpaceOnUse" id="color-2"><stop offset="0" stop-color="#447742"/><stop offset="1" stop-color="#273f25"/></linearGradient><linearGradient x1="256.24642" y1="130.47733" x2="256.24642" y2="272.66727" gradientUnits="userSpaceOnUse" id="color-3"><stop offset="0" stop-color="#3d9039"/><stop offset="1" stop-color="#265221"/></linearGradient><radialGradient cx="42.37237" cy="249.54135" r="283.78378" gradientUnits="userSpaceOnUse" id="color-4"><stop offset="0" stop-color="#7bdb76"/><stop offset="1" stop-color="#5bc955"/></radialGradient></defs><g transform="translate(25.9452,7.65061)"><g data-paper-data="{&quot;isPaintingLayer&quot;:true}" fill-rule="nonzero" stroke-linejoin="miter" stroke-miterlimit="10" stroke-dasharray="" stroke-dashoffset="0" style="mix-blend-mode: normal"><path d="M-4.17417,256.61365v-264.26426h493.99399v264.26426z" fill="url(#color-1)" stroke="none" stroke-width="0" stroke-linecap="butt"/><path d="M-22.71281,127.03984c0,0 8.94723,-7.42166 15.86231,-8.69957c7.52375,-1.3904 27.60844,0.66612 27.60844,0.66612c0,0 24.38708,-6.60211 41.44886,-4.01673c20.02946,3.03509 31.33937,12.05018 31.33937,12.05018c0,0 19.20731,-8.75283 57.65625,-10.25756c34.82926,-1.36308 43.19798,11.26477 43.19798,11.26477c0,0 20.4138,-9.82077 43.73655,-10.49543c21.65393,-0.62639 41.4236,10.49241 41.4236,10.49241c0,0 5.8077,-6.42291 40.20119,-6.90093c24.17377,-0.33598 59.88264,7.90512 59.88264,7.90512c0,0 12.38512,-12.05018 43.47075,-11.04599c14.06058,0.4542 33.36128,11.04599 33.36128,11.04599c0,0 13.37454,-5.64221 32.32477,-5.53193c15.08334,0.08777 27.32114,6.53612 27.32114,6.53612l-5.05474,116.48503l-508.50671,10.04181z" data-paper-data="{&quot;index&quot;:null}" fill="url(#color-2)" stroke="#000000" stroke-width="1" stroke-linecap="round"/><path d="M495.74524,272.66728l-498.8319,-10.04181l-4.95857,-116.48503c0,0 12.00496,-6.44835 26.80133,-6.53612c18.58968,-0.11028 31.70976,5.53193 31.70976,5.53193c0,0 18.9335,-10.59179 32.72655,-11.04599c30.4942,-1.00418 42.64368,11.04599 42.64368,11.04599c0,0 22.89294,-9.74887 46.60679,-9.41289c33.73912,0.47802 51.57285,8.40871 51.57285,8.40871c0,0 19.39353,-11.1188 40.63547,-10.49241c22.87901,0.67466 30.7679,7.47987 30.7679,7.47987c0,0 20.34602,-9.61228 54.51263,-8.24921c37.71742,1.50474 56.55929,10.25756 56.55929,10.25756c0,0 11.09474,-9.01509 30.74312,-12.05018c16.73717,-2.58539 40.66025,4.01673 40.66025,4.01673c0,0 19.70255,-2.05652 27.08316,-0.66612c6.78352,1.27791 15.56052,8.69957 15.56052,8.69957z" fill="url(#color-3)" stroke="#000000" stroke-width="1" stroke-linecap="round"/><g stroke="#000000" stroke-width="1" stroke-linecap="round"><g><path d="M120.81748,181.30875c0,0 -6.63514,0.22695 -9.97039,-0.17626c-3.23403,-0.39097 -9.74684,-2.20741 -9.74684,-2.20741c0,0 -3.93056,1.80426 -6.02858,2.18694c-2.29826,0.41921 -7.2151,0.22876 -7.2151,0.22876c0,0 -5.36109,-2.33321 -7.61676,-3.92566c-1.99626,-1.40931 -5.23438,-5.14692 -5.23438,-5.14692c0,0 -0.19985,-3.13474 0.22534,-4.73398c0.43537,-1.63755 0.15753,-6.07889 0.15753,-6.07889c0,0 -3.70089,-2.87984 -5.76331,-5.67129c-2.06716,-2.79787 -3.32618,-7.24757 -3.32618,-7.24757c0,0 1.5845,-4.26199 2.73757,-5.31171c1.31496,-1.1971 3.63075,-4.23642 3.63075,-4.23642c0,0 1.72219,-2.98458 3.26889,-4.21246c1.69899,-1.34878 6.51116,-3.55163 6.51116,-3.55163c0,0 6.72248,-3.57968 10.0001,-4.26766c3.31188,-0.69517 9.76945,0.11796 9.76945,0.11796c0,0 5.34264,-1.81303 8.16385,-1.90011c3.1265,-0.09649 9.77358,1.3465 9.77358,1.3465c0,0 5.6692,-0.27079 8.1291,0.74942c2.68024,1.1116 7.34808,5.66955 7.34808,5.66955c0,0 0.72181,3.38511 0.43454,5.09661c-0.30751,1.83214 -2.223,5.55899 -2.223,5.55899c0,0 4.30091,3.56813 5.37023,5.83184c1.26272,2.67315 1.72281,9.18389 1.72281,9.18389c0,0 2.30906,4.13704 2.03132,6.47199c-0.29419,2.47323 -3.74996,7.97644 -3.74996,7.97644c0,0 -5.25882,4.49205 -8.49727,5.94392c-2.84325,1.2747 -9.90253,2.30514 -9.90253,2.30514z" fill="#427340"/><path d="M111.13122,172.88975l3.84917,51.68886h-16.49645l2.19953,-52.23874z" fill="#6b4d32"/><path d="M123.27512,171.9856c0,0 -1.83722,2.48905 -3.46782,3.17162c-2.15961,0.90403 -8.35463,1.77731 -8.35463,1.77731c0,0 -4.35516,0.37765 -6.25875,-0.01172c-2.10799,-0.43118 -5.83864,-2.46274 -5.83864,-2.46274c0,0 -1.28664,1.1932 -1.97957,1.53967c-0.76607,0.38303 -2.41948,0.65986 -2.41948,0.65986c0,0 -2.20099,-0.78437 -3.13517,-1.29819c-0.89726,-0.4935 -2.63858,-4.20063 -2.63858,-4.20063" fill="#427340"/></g><g><path d="M64.33795,176.17186c0,0 -7.35466,0.25156 -11.05159,-0.19537c-3.58473,-0.43337 -10.8038,-2.44678 -10.8038,-2.44678c0,0 -4.35679,1.99991 -6.68232,2.42409c-2.54749,0.46467 -7.99752,0.25357 -7.99752,0.25357c0,0 -5.94245,-2.58623 -8.44273,-4.35136c-2.21274,-1.56213 -5.802,-5.70505 -5.802,-5.70505c0,0 -0.22152,-3.47467 0.24977,-5.24733c0.48259,-1.81513 0.17461,-6.73809 0.17461,-6.73809c0,0 -4.10222,-3.19213 -6.38828,-6.28629c-2.29133,-3.10128 -3.68687,-8.0335 -3.68687,-8.0335c0,0 1.75633,-4.72417 3.03444,-5.88771c1.45756,-1.32692 4.02447,-4.69582 4.02447,-4.69582c0,0 1.90895,-3.30823 3.62338,-4.66926c1.88323,-1.49504 7.21723,-3.93677 7.21723,-3.93677c0,0 7.45147,-3.96786 11.08452,-4.73045c3.67102,-0.77055 10.82886,0.13076 10.82886,0.13076c0,0 5.922,-2.00964 9.04915,-2.10616c3.46554,-0.10696 10.83344,1.49251 10.83344,1.49251c0,0 6.28398,-0.30016 9.01063,0.83069c2.97089,1.23214 8.14491,6.28436 8.14491,6.28436c0,0 0.80008,3.75219 0.48166,5.64929c-0.34085,2.03082 -2.46406,6.16181 -2.46406,6.16181c0,0 4.76731,3.95507 5.95258,6.46425c1.39965,2.96303 1.90964,10.1798 1.90964,10.1798c0,0 2.55946,4.58567 2.2516,7.17382c-0.32609,2.74143 -4.15661,8.84141 -4.15661,8.84141c0,0 -5.82909,4.97917 -9.41872,6.58848c-3.15158,1.41293 -10.97637,2.55512 -10.97637,2.55512z" fill="#427340"/><path d="M53.60131,166.83989l4.26657,57.29405h-18.28533l2.43805,-57.90356z" fill="#6b4d32"/><path d="M67.0621,165.8377c0,0 -2.03645,2.75897 -3.84387,3.51556c-2.3938,1.00206 -9.26062,1.97004 -9.26062,1.97004c0,0 -4.82743,0.4186 -6.93746,-0.01299c-2.33658,-0.47794 -6.47179,-2.7298 -6.47179,-2.7298c0,0 -1.42616,1.32259 -2.19424,1.70663c-0.84914,0.42457 -2.68185,0.73142 -2.68185,0.73142c0,0 -2.43966,-0.86943 -3.47516,-1.43896c-0.99456,-0.54701 -2.92472,-4.65615 -2.92472,-4.65615" fill="#427340"/></g><g data-paper-data="{&quot;index&quot;:null}"><path d="M124.77677,201.31615c0,0 -7.8248,-1.14219 -10.97637,-2.55512c-3.58962,-1.60931 -9.41872,-6.58848 -9.41872,-6.58848c0,0 -3.83052,-6.09998 -4.15661,-8.84141c-0.30786,-2.58815 2.2516,-7.17382 2.2516,-7.17382c0,0 0.50998,-7.21678 1.90964,-10.1798c1.18528,-2.50919 5.95258,-6.46425 5.95258,-6.46425c0,0 -2.12321,-4.13099 -2.46406,-6.16181c-0.31842,-1.8971 0.48166,-5.64929 0.48166,-5.64929c0,0 5.17402,-5.05222 8.14491,-6.28436c2.72665,-1.13085 9.01063,-0.83069 9.01063,-0.83069c0,0 7.3679,-1.59947 10.83344,-1.49251c3.12715,0.09652 9.04915,2.10616 9.04915,2.10616c0,0 7.15784,-0.90131 10.82886,-0.13076c3.63305,0.76258 11.08452,4.73045 11.08452,4.73045c0,0 5.33401,2.44173 7.21723,3.93677c1.71443,1.36103 3.62338,4.66926 3.62338,4.66926c0,0 2.56692,3.3689 4.02447,4.69582c1.27811,1.16355 3.03444,5.88771 3.03444,5.88771c0,0 -1.39554,4.93223 -3.68687,8.0335c-2.28607,3.09416 -6.38828,6.28629 -6.38828,6.28629c0,0 -0.30797,4.92297 0.17461,6.73809c0.4713,1.77266 0.24977,5.24733 0.24977,5.24733c0,0 -3.58926,4.14292 -5.802,5.70505c-2.50028,1.76513 -8.44273,4.35136 -8.44273,4.35136c0,0 -5.45003,0.2111 -7.99752,-0.25357c-2.32553,-0.42418 -6.68232,-2.42409 -6.68232,-2.42409c0,0 -7.21906,2.01341 -10.8038,2.44678c-3.69693,0.44693 -11.05159,0.19537 -11.05159,0.19537z" fill="#427340"/><path d="M147.09415,191.37466l2.43805,57.90356h-18.28533l4.26657,-57.29405z" fill="#6b4d32"/><path d="M159.84235,190.06772c0,0 -1.93015,4.10914 -2.92472,4.65615c-1.03549,0.56953 -3.47516,1.43896 -3.47516,1.43896c0,0 -1.83271,-0.30685 -2.68185,-0.73142c-0.76808,-0.38404 -2.19424,-1.70663 -2.19424,-1.70663c0,0 -4.13521,2.25186 -6.47179,2.7298c-2.11003,0.43159 -6.93746,0.01299 -6.93746,0.01299c0,0 -6.86681,-0.96798 -9.26062,-1.97004c-1.80742,-0.75659 -3.84387,-3.51556 -3.84387,-3.51556" fill="#427340"/></g><g><path d="M248.4544,198.87906c0,0 -6.65312,0.22756 -9.99741,-0.17673c-3.2428,-0.39203 -9.77326,-2.21339 -9.77326,-2.21339c0,0 -3.94121,1.80915 -6.04491,2.19286c-2.30449,0.42035 -7.23467,0.22938 -7.23467,0.22938c0,0 -5.37562,-2.33953 -7.63741,-3.9363c-2.00167,-1.41313 -5.24857,-5.16087 -5.24857,-5.16087c0,0 -0.20039,-3.14323 0.22595,-4.74681c0.43655,-1.64199 0.15796,-6.09537 0.15796,-6.09537c0,0 -3.71092,-2.88765 -5.77893,-5.68667c-2.07276,-2.80546 -3.33519,-7.26721 -3.33519,-7.26721c0,0 1.5888,-4.27354 2.74499,-5.32611c1.31852,-1.20035 3.64059,-4.2479 3.64059,-4.2479c0,0 1.72686,-2.99267 3.27775,-4.22388c1.70359,-1.35243 6.52881,-3.56125 6.52881,-3.56125c0,0 6.74071,-3.58938 10.02721,-4.27923c3.32085,-0.69705 9.79593,0.11828 9.79593,0.11828c0,0 5.35712,-1.81794 8.18598,-1.90526c3.13498,-0.09675 9.80008,1.35014 9.80008,1.35014c0,0 5.68457,-0.27152 8.15114,0.75145c2.68751,1.11461 7.368,5.68492 7.368,5.68492c0,0 0.72376,3.39428 0.43572,5.11042c-0.30834,1.83711 -2.22903,5.57406 -2.22903,5.57406c0,0 4.31257,3.57781 5.38478,5.84765c1.26615,2.68039 1.72749,9.20879 1.72749,9.20879c0,0 2.31532,4.14825 2.03682,6.48953c-0.29499,2.47993 -3.76013,7.99806 -3.76013,7.99806c0,0 -5.27308,4.50423 -8.5203,5.96003c-2.85096,1.27815 -9.92937,2.31139 -9.92937,2.31139z" fill="#427340"/><path d="M238.74189,190.43724l3.8596,51.82897h-16.54116l2.20549,-52.38034z" fill="#6b4d32"/><path d="M250.91871,189.53064c0,0 -1.8422,2.4958 -3.47722,3.18022c-2.16547,0.90648 -8.37728,1.78213 -8.37728,1.78213c0,0 -4.36696,0.37867 -6.27572,-0.01176c-2.11371,-0.43235 -5.85447,-2.46941 -5.85447,-2.46941c0,0 -1.29013,1.19643 -1.98494,1.54384c-0.76814,0.38407 -2.42604,0.66165 -2.42604,0.66165c0,0 -2.20695,-0.7865 -3.14367,-1.3017c-0.89969,-0.49483 -2.64574,-4.21202 -2.64574,-4.21202" fill="#427340"/></g><g><path d="M471.17212,211.38657c0,0 -6.65312,0.22756 -9.99742,-0.17674c-3.2428,-0.39203 -9.77326,-2.21339 -9.77326,-2.21339c0,0 -3.94121,1.80914 -6.04491,2.19286c-2.30449,0.42035 -7.23467,0.22938 -7.23467,0.22938c0,0 -5.37562,-2.33953 -7.63741,-3.9363c-2.00167,-1.41313 -5.24857,-5.16087 -5.24857,-5.16087c0,0 -0.2004,-3.14323 0.22594,-4.74681c0.43655,-1.64199 0.15796,-6.09537 0.15796,-6.09537c0,0 -3.71093,-2.88765 -5.77893,-5.68667c-2.07277,-2.80545 -3.33519,-7.26721 -3.33519,-7.26721c0,0 1.5888,-4.27355 2.74499,-5.32611c1.31853,-1.20034 3.64059,-4.24789 3.64059,-4.24789c0,0 1.72686,-2.99267 3.27776,-4.22388c1.70359,-1.35244 6.52881,-3.56126 6.52881,-3.56126c0,0 6.7407,-3.58938 10.02721,-4.27923c3.32085,-0.69706 9.79593,0.11828 9.79593,0.11828c0,0 5.35712,-1.81794 8.18598,-1.90525c3.13498,-0.09676 9.80007,1.35014 9.80007,1.35014c0,0 5.68457,-0.27153 8.15114,0.75145c2.6875,1.11461 7.36799,5.68492 7.36799,5.68492c0,0 0.72376,3.39428 0.43571,5.11042c-0.30834,1.83711 -2.22902,5.57405 -2.22902,5.57405c0,0 4.31257,3.57781 5.38479,5.84765c1.26614,2.6804 1.72749,9.20879 1.72749,9.20879c0,0 2.31532,4.14826 2.03682,6.48953c-0.29498,2.47994 -3.76013,7.99806 -3.76013,7.99806c0,0 -5.27307,4.50422 -8.5203,5.96003c-2.85096,1.27815 -9.92938,2.3114 -9.92938,2.3114z" fill="#427340"/><path d="M461.45961,202.94474l3.8596,51.82898h-16.54116l2.20549,-52.38035z" fill="#6b4d32"/><path d="M473.63642,202.03815c0,0 -1.84221,2.4958 -3.47722,3.18022c-2.16547,0.90648 -8.37728,1.78213 -8.37728,1.78213c0,0 -4.36696,0.37867 -6.27572,-0.01175c-2.1137,-0.43234 -5.85447,-2.46941 -5.85447,-2.46941c0,0 -1.29014,1.19643 -1.98495,1.54384c-0.76815,0.38406 -2.42604,0.66165 -2.42604,0.66165c0,0 -2.20695,-0.7865 -3.14367,-1.3017c-0.89969,-0.49483 -2.64574,-4.21202 -2.64574,-4.21202" fill="#427340"/></g></g><path d="M-25.1952,168.46027c0,0 84.12074,43.37337 169.66967,49.54955c85.63304,6.18225 387.38739,6.00601 387.38739,6.00601v147.14715h-557.05706z" fill="url(#color-4)" stroke="#000000" stroke-width="1.5" stroke-linecap="round"/></g></g></svg>