<svg version="1.1" xmlns="http://www.w3.org/2000/svg" xmlns:xlink="http://www.w3.org/1999/xlink" width="127.66667" height="127.66667" viewBox="0,0,127.66667,127.66667"><g transform="translate(-176.16668,-116.16666)"><g data-paper-data="{&quot;isPaintingLayer&quot;:true}" fill-rule="nonzero" stroke-linejoin="miter" stroke-miterlimit="10" stroke-dasharray="" stroke-dashoffset="0" style="mix-blend-mode: normal"><g><path d="M206.47611,175.15083c-0.00238,-0.00056 -0.00362,-0.00088 -0.00362,-0.00088l-0.4781,-0.31683c-0.55281,-1.24239 0.17613,-2.38923 1.12493,-3.2668c2.11273,-0.97279 7.42876,-4.09886 8.84276,-0.4939c0.66848,1.7043 0.06016,3.61409 0.0564,5.36492c-1.65419,6.45016 -6.73193,1.58102 -9.54234,-1.28653z" fill="#323344" stroke="#000000" stroke-width="1" stroke-linecap="butt"/><path d="M235.2741,178.50019c0.75059,-1.05844 2.86744,-3.51157 4.23324,-3.7526c3.8956,-0.68749 4.09462,3.2634 3.71727,5.78895c-0.60052,2.2914 -2.74152,5.58798 -5.68752,7.56386c-2.03126,1.36237 -4.65296,1.82216 -6.2723,2.08665c-0.55231,0.0902 -2.0363,-0.50077 -3.20969,-4.18318c-1.09725,-3.44338 -1.07685,-8.12338 0.23023,-8.54006c1.12478,-0.35861 6.46426,1.78075 6.46426,1.78075z" fill="#dc94e7" stroke="#000000" stroke-width="1" stroke-linecap="butt"/><path d="M230.44916,181.75256c0.04289,0.05312 0.06507,0.09117 0.06507,0.09117l0.45327,0.92101c0.08598,0.86654 -0.12199,1.57374 -0.29014,2.2709c-0.207,0.85812 -0.45466,1.67443 -1.24392,2.43139c-5.23061,4.14667 -16.23809,3.00495 -13.90328,-5.85555c0.99232,-3.6912 4.7423,-3.92209 8.37632,-3.03522c2.47599,0.60426 4.92586,1.62238 6.30461,2.82949c0,0 0.15373,0.1352 0.23809,0.34677z" fill="#f89688" stroke="#000000" stroke-width="1" stroke-linecap="butt"/><path d="M214.31077,172.42027c-0.5377,-0.47007 -0.11045,-1.08604 -0.11045,-1.08604c1.14382,-1.64661 5.27623,-4.59155 7.21139,-2.95687c1.9846,1.67644 0.06963,3.60484 0.97412,5.45523c0.42611,0.87175 2.21953,1.36123 2.99584,1.90011c0.09834,1.11325 0.23474,1.33908 -0.06194,2.36329c-0.52379,1.80824 -2.2225,2.54158 -3.94512,1.65011c-2.75918,-1.42785 -3.59166,-5.07685 -6.30027,-6.59043l-0.28968,-0.1395c0,0 -0.40167,-0.19655 -0.47385,-0.5959z" fill="#fcdfbd" stroke="none" stroke-width="0.5" stroke-linecap="butt"/><path d="M225.38165,175.73271c0.09834,1.11325 0.23474,1.33908 -0.06195,2.3633c-0.52379,1.80823 -2.2225,2.54158 -3.94512,1.65011c-2.13093,-1.10275 -3.11268,-3.5303 -4.69697,-5.27582c0.76677,0.08128 1.46926,0.15902 1.97856,0.29392c0.55613,0.14733 0.92699,0.50202 1.25821,0.90796c0.27455,0.70787 0.83401,1.29525 1.5764,1.58721c0.29272,0.13754 0.64018,0.21929 1.06997,0.21576c0.12091,-0.00101 0.24803,-0.01939 0.3787,-0.05317c0.99396,-0.15385 1.86024,-0.84196 2.20645,-1.83565c0.08584,0.04862 0.16501,0.09732 0.23579,0.14644z" fill="#f89688" stroke="none" stroke-width="0.5" stroke-linecap="butt"/><path d="M214.31077,172.42027c-0.5377,-0.47007 -0.11045,-1.08604 -0.11045,-1.08604c1.14382,-1.64661 5.27623,-4.59155 7.21139,-2.95688c1.98459,1.67643 0.06963,3.60483 0.97413,5.45522c0.42611,0.87174 2.21952,1.36123 2.99583,1.90013c0.09834,1.11325 0.23474,1.33908 -0.06195,2.3633c-0.52379,1.80823 -2.2225,2.54158 -3.94512,1.65011c-2.75918,-1.42785 -3.59166,-5.07685 -6.30027,-6.59043l-0.28967,-0.13953c0,0 -0.40167,-0.19655 -0.47386,-0.59589z" fill="none" stroke="#000000" stroke-width="1" stroke-linecap="butt"/><path d="M215.64932,170.53549c-0.14205,0.53913 -0.68118,0.39706 -0.68118,0.39706l-0.08295,-0.02186c-3.34321,-0.88098 -6.49756,0.71915 -7.75632,4.0071c0,0 -0.06339,0.16422 -0.21118,0.2725l-0.0108,0.27911c0,0 -0.4674,0.27244 -0.74972,-0.17985c-0.06728,-0.02841 -0.13458,-0.05682 -0.20185,-0.08525c0,0 -0.29059,-0.12269 -0.34231,-0.40207c-0.25768,-0.20932 -0.16318,-0.56797 -0.16318,-0.56797l0.04363,-0.14873c1.88465,-4.69079 4.90938,-6.04132 9.64114,-4.79448c0,0 0.53913,0.14205 0.39706,0.68118c-0.00327,0.01241 -0.00674,0.02444 -0.01042,0.03615c0.10925,0.10422 0.19566,0.27077 0.12811,0.52706z" fill="#455d83" stroke="none" stroke-width="0.5" stroke-linecap="butt"/><path d="M207.41923,174.25495c-0.39107,-0.39359 -0.86909,-0.69448 -1.37507,-0.84575c-0.05633,-0.05905 -0.11811,-0.11342 -0.18478,-0.16221c0.70671,-1.48977 1.55605,-2.57994 2.57192,-3.30187c0.25022,0.6997 0.48035,1.4117 0.71271,2.11634c-0.69662,0.57162 -1.28543,1.30924 -1.72475,2.1935z" fill="#85afb1" stroke="none" stroke-width="0.5" stroke-linecap="butt"/><path d="M210.758,168.97038c0.15742,0.67478 0.44281,1.38261 0.72994,1.90062c-0.48569,0.12527 -0.95057,0.30836 -1.3874,0.5459c-0.22536,-0.67807 -0.44936,-1.3593 -0.69137,-2.031c0.42421,-0.18941 0.8734,-0.32733 1.34883,-0.41552z" fill="#85afb1" stroke="none" stroke-width="0.5" stroke-linecap="butt"/><path d="M215.64931,170.53551c-0.14205,0.53913 -0.68118,0.39706 -0.68118,0.39706l-0.08295,-0.02186c-3.34321,-0.88098 -6.49756,0.71915 -7.75633,4.00711c0,0 -0.06339,0.16422 -0.21118,0.2725l-0.01083,0.27912c0,0 -0.46739,0.27245 -0.74972,-0.17985c-0.06728,-0.02841 -0.13458,-0.05682 -0.20185,-0.08525c0,0 -0.29057,-0.12271 -0.34231,-0.40207c-0.25769,-0.20932 -0.16318,-0.56797 -0.16318,-0.56797l0.04363,-0.14873c1.88465,-4.69079 4.90938,-6.04133 9.64114,-4.79448c0,0 0.53913,0.14205 0.39706,0.68118c-0.00326,0.0124 -0.00674,0.02444 -0.01042,0.03616c0.10925,0.10422 0.19566,0.27077 0.12811,0.52706z" fill="none" stroke="#000000" stroke-width="1" stroke-linecap="butt"/><path d="M221.63031,182.3543c0,0 3.03111,0.85538 3.04832,2.70622c0.01382,1.48501 -1.48921,2.20116 -2.44986,3.06971c-2.27375,2.0557 -5.81412,5.5986 -8.486,2.26294c-0.52937,-0.80194 -0.87318,-1.58123 -1.24901,-2.46175l-0.05801,-0.09724c-1.18627,0.2332 -2.22886,0.00514 -2.68523,-0.74289c-0.48317,-0.79192 -0.7126,-2.23573 -1.03317,-3.28562c-1.48813,-0.1576 -3.11054,-0.33181 -4.01604,-1.52619c-0.87086,-1.14867 -0.33557,-2.11903 -0.01963,-3.31806c0.88498,-3.35849 3.67905,-5.54579 7.07428,-6.12771c1.73112,-0.49015 3.65286,-1.4802 5.53958,-1.09646c1.3269,0.2699 1.92105,1.24805 2.20606,2.29329c0.32884,1.20597 0.18602,2.53637 -0.69912,3.54337c1.1437,0.52004 2.12535,1.51892 2.68949,2.59386c0.55242,1.0526 0.12443,1.35544 0.13836,2.18656z" fill="#fde0be" stroke="none" stroke-width="0.5" stroke-linecap="butt"/><path d="M224.67864,185.06054c0.01382,1.48503 -1.4892,2.20117 -2.44985,3.0697c-2.27376,2.0557 -5.81412,5.5986 -8.48601,2.26295c-0.52937,-0.80194 -0.87318,-1.58123 -1.24899,-2.46176l-0.05801,-0.09724c-1.18627,0.2332 -2.22886,0.00514 -2.68523,-0.74289c-0.48317,-0.79192 -0.71259,-2.23573 -1.03318,-3.28563c-1.48813,-0.1576 -3.11053,-0.3318 -4.01603,-1.5262c-0.87086,-1.14869 -0.33557,-2.11903 -0.01963,-3.31806c0.29605,-1.12354 0.80577,-2.11602 1.48019,-2.96115c0.01956,0.19673 0.01526,0.3851 -0.0454,0.56419l0.00428,0.00822c-0.37794,1.08768 -0.25476,2.06573 0.22094,2.81137c0.35478,0.64712 0.96428,1.15295 1.73425,1.35585c0.2786,0.07341 0.55847,0.10196 0.83193,0.0901c0.28447,0.02825 0.58284,0.03032 0.89219,0.00387c1.34536,-0.11508 3.31698,-0.64907 5.26324,-1.48444c-0.5461,0.77833 -1.03536,1.56669 -1.39653,2.21937c-0.22836,0.29054 -0.40232,0.63151 -0.50249,1.0116c-0.05967,0.22641 -0.08968,0.45365 -0.0925,0.67763c-0.40507,1.53728 0.65168,2.38393 1.86635,2.66366c0.06904,0.02409 0.13953,0.04569 0.21143,0.06462c0.5931,0.15629 1.19194,0.10922 1.7226,-0.09807c0.16984,-0.05264 0.32327,-0.11988 0.45374,-0.20109c0.14715,-0.0916 0.30452,-0.19597 0.46975,-0.31127c0.16907,0.17086 -1.42851,1.84921 -1.22221,1.97247c0.61043,0.36475 3.16052,-1.03573 4.0191,-1.31575c0.68794,-0.22435 1.17627,-0.5605 1.50201,-0.96074c0.39843,-0.35256 0.70047,-0.82283 0.84621,-1.37586c0.06592,-0.25019 0.09567,-0.5014 0.09247,-0.7481c0.79595,0.44319 1.6363,1.14066 1.64535,2.11269z" fill="#f89688" stroke="none" stroke-width="0.5" stroke-linecap="butt"/><path d="M221.63031,182.3543c0,0 3.03111,0.85538 3.04832,2.70622c0.01382,1.48503 -1.4892,2.20117 -2.44985,3.0697c-2.27376,2.0557 -5.81412,5.5986 -8.48601,2.26295c-0.52937,-0.80194 -0.87318,-1.58123 -1.24899,-2.46176l-0.05801,-0.09724c-1.18627,0.2332 -2.22886,0.00514 -2.68523,-0.74289c-0.48317,-0.79192 -0.71259,-2.23573 -1.03318,-3.28563c-1.48813,-0.1576 -3.11053,-0.3318 -4.01603,-1.5262c-0.87086,-1.14869 -0.33557,-2.11903 -0.01963,-3.31806c0.88498,-3.35849 3.67905,-5.5458 7.07426,-6.12772c1.73112,-0.49015 3.65286,-1.4802 5.53959,-1.09645c1.3269,0.2699 1.92105,1.24805 2.20604,2.29328c0.32884,1.20597 0.18602,2.53637 -0.69912,3.54337c1.14371,0.52005 2.12535,1.51892 2.68949,2.59386c0.55243,1.05261 0.12443,1.35544 0.13836,2.18656z" fill="none" stroke="#000000" stroke-width="1" stroke-linecap="butt"/><path d="M212.98167,179.9185l5.97497,-1.96174" fill="none" stroke="#000000" stroke-width="1" stroke-linecap="round"/><path d="M216.91874,185.10714l4.37848,-2.61306" fill="none" stroke="#000000" stroke-width="1" stroke-linecap="round"/><path d="M201.16566,165.078c1.2131,-4.60363 5.60119,-7.79324 10.20481,-6.58017c2.4594,0.64807 3.60434,2.10161 4.59086,4.10258c0.33236,0.67413 0.7839,1.93355 0.89,3.16771c0.16845,1.95959 -0.6924,3.6364 -0.87883,3.88073c-0.14848,0.19454 -2.5086,-2.184 -5.9305,-0.70141c-3.49036,1.51228 -5.17725,5.48748 -5.17725,5.48748c0,0 -2.01566,-0.9501 -3.04555,-2.55794c-1.14763,-1.79167 -1.29284,-4.37271 -0.65351,-6.79897z" fill="#465e85" stroke="#000000" stroke-width="0" stroke-linecap="butt"/><path d="M201.16566,165.078c0.15232,-0.57806 0.35472,-1.13378 0.60127,-1.66134c0.02405,0.09165 0.05734,0.1803 0.09905,0.26463l-0.00132,0.02153l0.02869,0.03102c0.11376,0.20747 0.2799,0.3859 0.48597,0.51394l0.20007,0.13091l0.13482,0.04685l0.10021,0.11307l0.07266,0.04978l0.05006,0.07245l0.07575,0.06661l0.00405,0.01512l0.0351,0.01928l0.02916,0.02564l0.28461,0.14685l0.28065,0.15427l0.03756,0.00992l0.03558,0.01836l0.01481,-0.00508l0.02824,0.00743l0.02132,0.03085l0.07575,0.06661l0.00405,0.01512l0.0351,0.01928l0.02916,0.02564l0.28461,0.14685l0.28065,0.15427l0.03756,0.00992l0.03558,0.01836l0.01481,-0.00508l6.95817,1.83351l0.03317,0.01711l0.28065,0.15427l0.03756,0.00992l0.03558,0.01836l0.01481,-0.00508l0.21068,0.05552l0.01801,0.01949l0.45394,0.29704l0.1664,0.05781l0.27084,0.13973l0.28065,0.15427l0.03756,0.00992l0.03558,0.01836l0.01481,-0.00508l0.45948,0.12109l0.01801,0.01949l0.14406,0.09426l0.14538,0.12783l0.00405,0.01512l0.0351,0.01928l0.02916,0.02564l0.23809,0.12285c-1.04803,-0.44381 -2.59698,-0.78189 -4.46099,0.02573c-3.49036,1.51228 -5.17725,5.48748 -5.17725,5.48748c0,0 -2.01566,-0.9501 -3.04555,-2.55794c-1.14763,-1.79167 -1.29284,-4.37271 -0.65351,-6.79897z" fill="#323344" stroke="#000000" stroke-width="0" stroke-linecap="butt"/><path d="M206.97271,161.71625l-0.001,0.01708l-0.01823,-0.0169z" fill="#323344" stroke="#000000" stroke-width="0" stroke-linecap="butt"/><path d="M201.16566,165.078c1.21309,-4.60364 5.6012,-7.79324 10.20481,-6.58017c2.4594,0.64807 3.60433,2.1016 4.59085,4.10258c0.33236,0.67413 0.78391,1.93354 0.89,3.16771c0.16844,1.95959 -0.69238,3.63641 -0.87882,3.88073c-0.14848,0.19454 -2.50859,-2.18399 -5.9305,-0.70139c-3.49036,1.51228 -5.17725,5.48748 -5.17725,5.48748c0,0 -2.01568,-0.95008 -3.04556,-2.55794c-1.14763,-1.79167 -1.29284,-4.37271 -0.6535,-6.79896z" fill="none" stroke="#000000" stroke-width="1" stroke-linecap="butt"/><path d="M203.57074,173.11825c0,0 1.65959,-5.66667 5.14262,-6.85707c3.68281,-1.25871 7.56754,2.04582 7.56754,2.04582" fill="none" stroke="#000000" stroke-width="1" stroke-linecap="round"/><path d="M201.14018,169.55067c0,0 2.71306,-4.88214 6.22271,-6.94241c3.18632,-1.87047 8.15578,0.17588 8.15578,0.17588" fill="none" stroke="#000000" stroke-width="1" stroke-linecap="round"/><path d="M201.58289,164.1679c0,0 3.7425,-3.06549 5.66883,-3.98031c1.73806,-0.8254 5.38251,-1.26805 5.38251,-1.26805" fill="none" stroke="#000000" stroke-width="1" stroke-linecap="round"/><path d="M205.66665,171.89654c0,0 -2.36564,-1.22039 -3.15747,-2.07161c-0.77453,-0.83261 -1.54277,-2.98105 -1.54277,-2.98105" fill="none" stroke="#000000" stroke-width="1" stroke-linecap="round"/><path d="M206.92422,171.16351c0,0 -2.46669,-2.19885 -3.41259,-3.44204c-0.84307,-1.10801 -1.98983,-3.65836 -1.98983,-3.65836" fill="none" stroke="#000000" stroke-width="1" stroke-linecap="round"/><path d="M208.19074,169.72324c0,0 -2.35083,-2.5545 -2.9487,-4.07701c-0.65344,-1.66392 -0.82013,-5.52006 -0.82013,-5.52006" fill="none" stroke="#000000" stroke-width="1" stroke-linecap="round"/><path d="M207.14662,158.53796c0,0 1.67262,4.61618 2.09265,6.45827c0.34826,1.52738 0.25276,3.82811 0.25276,3.82811" fill="none" stroke="#000000" stroke-width="1" stroke-linecap="round"/><path d="M210.64361,158.395c0,0 1.48316,2.92727 1.73372,4.49192c0.26295,1.64206 -0.1914,5.13933 -0.1914,5.13933" fill="none" stroke="#000000" stroke-width="1" stroke-linecap="round"/><path d="M215.17851,161.71879c0,0 0.17943,2.17148 0.04672,3.27859c-0.13847,1.15512 -0.86096,3.51421 -0.86096,3.51421" fill="none" stroke="#000000" stroke-width="1" stroke-linecap="round"/></g><path d="M176.16668,243.83333v-127.66667h127.66667v127.66667z" fill="none" stroke="none" stroke-width="NaN" stroke-linecap="butt"/><g><g stroke="#000000"><path d="M254.29413,193.31798l1.75835,9.73519l-37.56842,-0.98638c0,0 0.35965,-9.54107 2.07153,-11.34553c0.59347,-0.62556 6.41997,2.03919 6.41997,2.03919l0.25732,-3.81689z" fill="#0066cd" stroke-width="0" stroke-linecap="round"/><path d="M247.75783,195.084c-1.50492,0.75211 -3.46626,1.96401 -5.55469,2.32519c-3.234,0.55932 -6.47304,0.03793 -6.47304,0.03793c0,0 0.30281,3.49312 0.18664,5.07736l-6.30755,-0.16562c0.10962,-1.29633 -0.57405,-3.71336 -1.36584,-5.89166c-0.62872,-1.72966 -1.37315,-3.35633 -1.50415,-3.81326c0.15103,0.06748 0.23634,0.1065 0.23634,0.1065l0.25732,-3.81689l20.66543,3.37873c0,0 0.43609,0.795 0.40582,1.59336c-0.01954,0.51496 -0.48353,1.15655 -0.54628,1.16833z" fill="#061483" stroke-width="0" stroke-linecap="butt"/><path d="M254.29413,193.31798l1.75835,9.73519l-37.56842,-0.98638c0,0 0.35965,-9.54107 2.07153,-11.34553c0.59347,-0.62556 6.41997,2.03919 6.41997,2.03919l0.25732,-3.81689z" fill="none" stroke-width="1" stroke-linecap="round"/><path d="M232.8081,195.67673l2.1872,1.887" fill="none" stroke-width="1" stroke-linecap="round"/></g><g><path d="M240.61342,209.63623c0,0.33519 -1.63074,2.50378 -2.85523,2.79868c-2.46242,0.59307 -7.38873,0.24178 -11.07692,0.90119c-1.33696,0.23903 -3.19606,0.44866 -4.63054,1.09762c-0.92448,0.41823 -1.74343,2.02085 -6.96282,2.16315c-3.25738,0.0888 -6.83425,-0.83198 -7.71227,-1.14691c-2.50226,-0.89751 -3.34425,-2.76549 -3.30137,-4.09828c0.01257,-0.39041 0.42812,-1.81565 1.76048,-1.48829c0.90605,0.22261 3.46358,1.84521 6.17255,2.24522c3.29288,0.48623 6.89529,0.06209 7.94157,-0.19361c2.51502,-0.61463 4.62961,-2.03761 7.06881,-2.81725c2.58159,-0.82516 5.97162,0.34968 8.04687,-0.15176c2.70956,-0.65471 3.81251,-2.83717 4.39353,-2.55589c0.93799,0.4541 1.15532,2.55874 1.15532,3.24612z" fill="#feecf7" stroke="none" stroke-width="0" stroke-linecap="butt"/><path d="M237.75819,212.4349c-2.46242,0.59306 -7.38873,0.24178 -11.07692,0.90119c-1.33696,0.23904 -3.19606,0.44867 -4.63054,1.09763c-0.92447,0.41822 -1.74343,2.02085 -6.9628,2.16315c-0.4438,0.0121 -0.89353,0.00545 -1.34155,-0.01584c-0.43617,-1.67958 -1.41883,-3.10604 -2.32625,-4.5779c0.19455,0.04094 0.39047,0.07644 0.58718,0.10547c3.29288,0.48623 6.8953,0.0621 7.94157,-0.19361c2.51503,-0.61465 4.62961,-2.03761 7.06882,-2.81725c2.58159,-0.82514 5.97162,0.34968 8.04687,-0.15176c2.70956,-0.6547 3.81251,-2.83717 4.39353,-2.55589c0.93799,0.45411 1.15532,2.55874 1.15532,3.24612c0,0.3352 -1.63074,2.50378 -2.85523,2.79868z" fill="#dd95e8" stroke="none" stroke-width="0" stroke-linecap="butt"/><path d="M240.61342,209.63623c0,0.33519 -1.63074,2.50378 -2.85523,2.79868c-2.46242,0.59307 -7.38873,0.24178 -11.07692,0.90119c-1.33696,0.23903 -3.19606,0.44866 -4.63054,1.09762c-0.92448,0.41823 -1.74343,2.02085 -6.96282,2.16315c-3.25738,0.0888 -6.83425,-0.83198 -7.71227,-1.14691c-2.50226,-0.89751 -3.34425,-2.76549 -3.30137,-4.09828c0.01257,-0.39041 0.42812,-1.81565 1.76048,-1.48829c0.90605,0.22261 3.46358,1.84521 6.17255,2.24522c3.29288,0.48623 6.89529,0.06209 7.94157,-0.19361c2.51502,-0.61463 4.62961,-2.03761 7.06881,-2.81725c2.58159,-0.82516 5.97162,0.34968 8.04687,-0.15176c2.70956,-0.65471 3.81251,-2.83717 4.39353,-2.55589c0.93799,0.4541 1.15532,2.55874 1.15532,3.24612z" fill="none" stroke="#000000" stroke-width="1" stroke-linecap="butt"/><path d="M218.35539,201.20906l-1.32948,-3.73111c0,0 2.8106,-2.12368 7.65675,-1.54147c3.72193,0.44716 5.08049,4.41485 5.08049,4.41485c0,0 3.57503,-4.04059 4.74028,-3.35392c0.51589,0.30401 2.34417,1.10802 2.97465,2.21711c1.53721,2.70415 1.80584,6.62625 1.80584,6.62625c0,0 -0.38263,2.21366 -2.79127,2.88539c-1.68043,0.46864 -4.34287,0.34385 -7.03231,0.50096c-0.85331,0.04984 -1.69638,0.03395 -2.4905,0.25952c-1.84413,0.5238 -3.42297,1.56729 -5.3759,2.2564c-1.55439,0.54848 -3.47151,0.8096 -5.04159,0.85874c-3.6108,0.11301 -7.30255,-0.80321 -10.16225,-2.30084c-1.8351,-0.96105 1.51881,-3.82844 5.17407,-5.95649c3.26663,-1.9018 6.79121,-3.1354 6.79121,-3.1354z" fill="#ff292e" stroke="#000000" stroke-width="0" stroke-linecap="round"/><path d="M227.6901,197.3114c0.56861,0.50162 1.73755,1.99339 1.90193,3.00395c0.1394,0.857 -0.70861,1.23546 -0.48498,1.75693c0.19854,0.46296 1.42806,0.16605 1.42806,0.16605c0,0 2.04695,-0.84384 3.62863,-2.29243c0.7716,-0.70667 1.64124,-2.23 1.64124,-2.23c0,0 1.33278,0.89999 1.67309,1.49863c1.53721,2.70415 1.80584,6.62625 1.80584,6.62625c0,0 -0.38263,2.21366 -2.79127,2.88539c-1.68043,0.46864 -4.34287,0.34385 -7.03231,0.50096c-0.85331,0.04984 -1.69638,0.03395 -2.4905,0.25952c-1.84413,0.5238 -3.42297,1.56729 -5.3759,2.2564c-1.55439,0.54848 -3.47151,0.8096 -5.04159,0.85874c-0.98536,0.03084 -2.95564,-0.12833 -2.95564,-0.12833c0,0 -0.45608,-2.69671 1.66501,-5.12594c2.44768,-2.80325 7.68327,-4.11214 10.44969,-6.15067c2.49395,-1.83776 1.78263,-4.05842 1.97869,-3.88545z" fill="#ac0e49" stroke="#000000" stroke-width="0" stroke-linecap="round"/><path d="M229.76313,200.30844c0,0 0.12921,1.06387 -0.40554,1.51144c-0.38839,0.32507 -1.9532,0.58999 -1.9532,0.58999" fill="none" stroke="#000000" stroke-width="1" stroke-linecap="round"/><path d="M235.05963,200.30844c0,-0.46186 0.37442,-0.83628 0.83628,-0.83628c0.46186,0 0.83628,0.37442 0.83628,0.83628c0,0.46186 -0.37442,0.83628 -0.83628,0.83628c-0.46186,0 -0.83628,-0.37442 -0.83628,-0.83628z" fill="#000000" stroke="none" stroke-width="0.5" stroke-linecap="butt"/><path d="M218.35539,201.20906l-1.32948,-3.73111c0,0 2.8106,-2.12368 7.65675,-1.54147c3.72193,0.44716 5.08049,4.41485 5.08049,4.41485c0,0 3.57503,-4.04059 4.74028,-3.35392c0.51589,0.30401 2.34417,1.10802 2.97465,2.21711c1.53721,2.70415 1.80584,6.62625 1.80584,6.62625c0,0 -0.38263,2.21366 -2.79127,2.88539c-1.68043,0.46864 -4.34287,0.34385 -7.03231,0.50096c-0.85331,0.04984 -1.69638,0.03395 -2.4905,0.25952c-1.84413,0.5238 -3.42297,1.56729 -5.3759,2.2564c-1.55439,0.54848 -3.47151,0.8096 -5.04159,0.85874c-3.6108,0.11301 -7.30255,-0.80321 -10.16225,-2.30084c-1.8351,-0.96105 1.51881,-3.82844 5.17407,-5.95649c3.26663,-1.9018 6.79121,-3.1354 6.79121,-3.1354z" fill="none" stroke="#000000" stroke-width="1" stroke-linecap="round"/><path d="M213.18761,203.43915c0,-0.2686 0.12664,-0.50764 0.32345,-0.66064c-0.14245,0.30595 -0.231,0.64203 -0.25346,0.99609c-0.04501,-0.10268 -0.06999,-0.21615 -0.06999,-0.33545z" fill="#db93e6" stroke="none" stroke-width="0.5" stroke-linecap="butt"/><path d="M221.529,200.84453c5.36301,0.04651 4.6557,6.30284 1.97676,4.47385c-0.56413,-0.38516 -1.14635,-1.13569 -1.75326,-1.58809c-0.80799,-0.60228 -2.20652,-1.18841 -3.05294,-1.67209c-0.29133,-0.13074 -0.16932,-1.01887 0.23482,-1.19223c0.40415,-0.17336 1.73335,-0.02891 2.59462,-0.02144z" fill="#f0e0ec" stroke="none" stroke-width="0.5" stroke-linecap="butt"/><path d="M221.58913,206.78426c-0.04287,0.42165 -0.399,0.75067 -0.83196,0.75067c-0.30694,0 -0.57525,-0.16535 -0.72072,-0.41184c-0.2312,-0.13211 -1.05102,-1.37107 -2.08121,-2.38367c-0.87171,-0.85682 -1.89764,-1.52796 -2.33491,-2.16462c-0.32071,-0.46696 -0.11359,-0.78023 0.33214,-0.94991c1.44435,-0.54982 6.80364,3.20573 5.63666,5.15938z" data-paper-data="{&quot;index&quot;:null}" fill="#f0e0ec" stroke="none" stroke-width="0.5" stroke-linecap="butt"/><path d="M218.84858,207.16312c0.33475,1.26692 -1.09143,2.00882 -1.79482,0.9035c-0.41897,-0.65837 -0.90974,-1.69156 -1.54123,-2.21345c-0.66411,-0.54886 -1.48386,-0.94215 -1.91308,-1.69329c-0.24648,-0.14548 -0.41184,-0.41378 -0.41184,-0.72072c0,-0.46186 0.37442,-0.83628 0.83628,-0.83628c0.25436,0 0.48222,0.11357 0.6356,0.29277c1.65607,0.45449 3.87257,3.06959 4.18909,4.2675z" fill="#f0e0ec" stroke="none" stroke-width="0.5" stroke-linecap="butt"/><path d="M223.50574,205.31838c-0.54218,-0.37016 -1.10106,-1.07782 -1.68251,-1.53396c1.10453,-0.27698 1.94761,-1.21297 2.08707,-2.36577c2.65203,1.51262 1.77818,5.38995 -0.40456,3.89972z" fill="#db93e6" stroke="none" stroke-width="0.5" stroke-linecap="butt"/><path d="M221.58913,206.78426c-0.04287,0.42165 -0.399,0.75067 -0.83196,0.75067c-0.30694,0 -0.57525,-0.16535 -0.72072,-0.41184c-0.16927,-0.09673 -0.6541,-0.7868 -1.30598,-1.54695c0.88983,-0.0642 1.66392,-0.54608 2.12724,-1.25056c0.74673,0.8655 1.14097,1.77304 0.73142,2.45866z" data-paper-data="{&quot;index&quot;:null}" fill="#db93e6" stroke="none" stroke-width="0.5" stroke-linecap="butt"/><path d="M218.84858,207.16312c0.33475,1.26692 -1.09143,2.00882 -1.79482,0.9035c-0.23987,-0.37693 -0.50328,-0.87673 -0.80316,-1.33309c0.74314,-0.05563 1.40506,-0.40263 1.87188,-0.92709c0.36774,0.51507 0.63159,0.99905 0.72609,1.35669z" fill="#db93e6" stroke="none" stroke-width="0.5" stroke-linecap="butt"/><path d="M221.529,200.84453c5.36301,0.04651 4.6557,6.30284 1.97676,4.47385c-0.56413,-0.38516 -1.14635,-1.13569 -1.75326,-1.58809c-0.80799,-0.60228 -2.20652,-1.18841 -3.05294,-1.67209c-0.29133,-0.13074 -0.16932,-1.01887 0.23482,-1.19223c0.40415,-0.17336 1.73335,-0.02891 2.59462,-0.02144z" fill="none" stroke="#000000" stroke-width="1" stroke-linecap="butt"/><path d="M221.58913,206.78426c-0.04287,0.42165 -0.399,0.75067 -0.83196,0.75067c-0.30694,0 -0.57525,-0.16535 -0.72072,-0.41184c-0.2312,-0.13211 -1.05102,-1.37107 -2.08121,-2.38367c-0.87171,-0.85682 -1.89764,-1.52796 -2.33491,-2.16462c-0.32071,-0.46696 -0.11359,-0.78023 0.33214,-0.94991c1.44435,-0.54982 6.80364,3.20573 5.63666,5.15938z" data-paper-data="{&quot;index&quot;:null}" fill="none" stroke="#000000" stroke-width="1" stroke-linecap="butt"/><path d="M217.05375,208.06662c-0.41897,-0.65837 -0.90974,-1.69156 -1.54123,-2.21345c-0.66411,-0.54886 -1.48386,-0.94215 -1.91308,-1.69329c-0.24648,-0.14548 -0.41184,-0.41378 -0.41184,-0.72072c0,-0.46186 0.37442,-0.83628 0.83628,-0.83628c0.25436,0 0.48222,0.11357 0.6356,0.29277c1.65607,0.45449 3.87257,3.06959 4.18909,4.2675c0.31652,1.1979 -1.09143,2.00881 -1.79482,0.90349z" fill="none" stroke="#000000" stroke-width="1" stroke-linecap="butt"/></g><g><path d="M239.36971,208.91399c0,0 0.3915,8.34024 14.60749,6.23944c13.4989,-1.99483 11.63893,-9.15571 11.63893,-9.15571l4.20286,1.887c0,0 -0.00863,1.18868 0.0127,2.61652c0.02049,1.37182 0.09502,2.95119 -1.0369,4.54341c-2.00021,2.81361 -6.76078,4.99215 -16.60204,5.40697c-20.06166,0.84564 -12.82304,-11.53763 -12.82304,-11.53763z" fill="#ffeffa" stroke="#000000" stroke-width="0" stroke-linecap="round"/><path d="M238.24138,214.9262c-0.01726,-0.07859 3.87856,5.67316 16.55063,3.82969c14.35662,-1.86616 15.02695,-10.87116 15.02695,-10.87116c0,0 -0.00863,1.18868 0.0127,2.61652c0.02049,1.37182 0.09502,2.95119 -1.0369,4.54341c-2.00021,2.81361 -6.76078,4.99215 -16.60204,5.40697c-10.11326,0.42629 -13.28882,-2.50921 -13.95136,-5.52542z" fill="#dd95e8" stroke="#000000" stroke-width="0" stroke-linecap="round"/><path d="M239.36971,208.91399c0,0 0.3915,8.34024 14.60749,6.23944c13.4989,-1.99483 11.63893,-9.15571 11.63893,-9.15571l4.20286,1.887c0,0 -0.00863,1.18868 0.0127,2.61652c0.02049,1.37182 0.09502,2.95119 -1.0369,4.54341c-2.00021,2.81361 -6.76078,4.99215 -16.60204,5.40697c-20.06166,0.84564 -12.82304,-11.53763 -12.82304,-11.53763z" fill="none" stroke="#000000" stroke-width="1" stroke-linecap="round"/><path d="M244.55778,199.14542c1.31642,-1.17593 6.83383,-2.37225 9.54146,-1.8472c1.63401,0.31686 1.35284,1.93808 1.35284,1.93808c0,0 6.50518,-3.29028 7.2311,-2.78214c0.28324,0.19828 1.53295,2.07667 0.92706,3.17351c-0.89762,1.62499 -3.86953,2.61068 -3.86953,2.61068c0,0 0.38686,0.12296 0.98019,0.36644c-4.37977,0.2708 -10.45727,2.81658 -13.09573,2.97807c-0.28949,0.01772 -0.09375,-0.57255 -0.14995,-0.85709c-0.2393,-1.21161 -0.36474,-2.58493 -1.15202,-3.60541c-0.53209,-0.6897 -1.20811,-1.28668 -1.96677,-1.76955c0.06482,-0.07445 0.13195,-0.14336 0.20135,-0.20536z" fill="#ff292e" stroke="#000000" stroke-width="0" stroke-linecap="butt"/><path d="M239.75568,206.14098l-4.26626,-0.16396c0,0 -0.75986,-1.06582 0.64989,-3.95604l0.44322,0.77565c0.89587,1.56777 5.91336,-0.09743 5.42961,2.84951c-0.11145,0.67887 -1.32062,0.92814 -2.47088,1.49438c0.1108,-0.61531 0.21443,-0.99954 0.21443,-0.99954z" fill="#ff292e" stroke="#000000" stroke-width="0" stroke-linecap="butt"/><path d="M258.17176,209.10014c0.36853,-0.08338 0.88232,-0.11124 1.46868,-0.11798c-0.6464,0.16771 -1.32782,0.23565 -2.02895,0.24198c0.20663,-0.04469 0.39459,-0.08651 0.56025,-0.12398z" fill="#ac0e49" stroke="#000000" stroke-width="0" stroke-linecap="butt"/><path d="M243.10081,202.06679c0,0 0.52294,-2.08702 1.45697,-2.92137c1.31642,-1.17593 6.83383,-2.37225 9.54146,-1.8472c1.63401,0.31686 1.35284,1.93808 1.35284,1.93808c0,0 6.50518,-3.29028 7.2311,-2.78214c0.28324,0.19828 1.53295,2.07667 0.92706,3.17351c-0.89762,1.62499 -3.86953,2.61068 -3.86953,2.61068c0,0 3.2768,1.04143 5.38321,3.06446c3.27168,3.14221 4.20444,8.1679 -10.60834,11.59558c-1.79091,0.41442 -10.06451,0.93634 -13.55884,-2.11337c-2.85954,-2.49569 -1.20105,-8.64402 -1.20105,-8.64402l-4.26626,-0.16396c0,0 -0.79623,-1.11685 0.75362,-4.16423c0.36247,-0.7127 6.85777,0.254 6.85777,0.254z" fill="#ff292e" stroke="#000000" stroke-width="0" stroke-linecap="round"/><path d="M239.75568,206.14098l-4.26626,-0.16396c0,0 -0.5427,-0.76123 0.14011,-2.74157c1.97616,0.73611 6.21238,1.20089 7.42841,1.75617c0.14476,0.0661 -1.20123,0.75924 -1.35092,0.8545c-0.89102,0.56702 -1.4988,1.12815 -2.20328,1.90308c-0.02477,0.02724 -0.04901,0.05479 -0.07273,0.08264c0.13987,-1.0057 0.32469,-1.69088 0.32469,-1.69088z" fill="#ac0e49" stroke="#000000" stroke-width="0" stroke-linecap="butt"/><path d="M239.01589,206.27232c-0.27303,0.24428 -2.54969,0.17339 -2.50058,-0.53893c-0.05339,-0.11013 -0.08333,-0.23375 -0.08333,-0.36435c0,-0.46186 0.37442,-0.83628 0.83628,-0.83628c0.24056,0 0.4574,0.10157 0.60997,0.26417c1.11623,-0.04955 2.12857,0.58878 1.13765,1.4754z" fill="#000000" stroke="none" stroke-width="0.5" stroke-linecap="butt"/><path d="M254.51556,216.89838c-1.79091,0.41442 -10.06451,0.93634 -13.55884,-2.11337c-0.3195,-0.27885 -0.5826,-0.60331 -0.79791,-0.95967c3.21261,0.17766 11.22397,-3.76602 14.15318,-4.46787c1.7611,-0.42198 5.91336,0.01395 8.68214,-0.70891c0.18548,-0.04842 1.22555,1.94151 1.60247,1.53843c0.40093,-0.42875 1.09917,-3.59532 1.0842,-4.30339c2.77006,3.15444 2.76525,7.79127 -11.16524,11.01479z" fill="#ac0e49" stroke="#000000" stroke-width="0" stroke-linecap="butt"/><path d="M263.61022,199.62765c-0.89762,1.62499 -3.86953,2.61068 -3.86953,2.61068c0,0 0.88914,0.28259 2.03882,0.8393c-2.6179,0.16708 -5.35164,0.92473 -5.54022,0.30285c-0.44904,-1.48077 3.96725,-4.01273 6.07544,-5.71395c0.29957,-0.18436 0.56161,-0.42379 0.77203,-0.70418c0.43424,0.68131 0.95958,1.87579 0.52345,2.66532z" fill="#ac0e49" stroke="#000000" stroke-width="0" stroke-linecap="butt"/><path d="M245.28802,205.24037l-2.40164,-3.00204" fill="none" stroke="#000000" stroke-width="1" stroke-linecap="round"/><path d="M245.20225,208.11375c0,0 -1.46726,-0.21889 -1.62111,-0.58326c-0.46565,-1.10286 0.59183,-1.47529 0.59183,-1.47529c0,0 3.3467,-2.24519 5.84223,-2.74497c4.07916,-0.81696 6.42326,-0.04264 6.42326,-0.04264c0,0 1.21563,0.0579 1.55332,0.68722c0.31306,0.58342 -0.18096,1.02823 -0.18096,1.02823c0,0 1.6958,0.03505 2.41724,0.88295c0.94578,1.11157 0.15594,1.39003 0.15594,1.39003c0,0 1.26494,-0.00347 1.66996,0.92131c0.31713,0.72408 -0.51203,1.18013 -0.51203,1.18013c0,0 -5.20712,0.3391 -7.70654,0.76286c-2.47516,0.41965 -7.2179,1.76743 -7.2179,1.76743c0,0 -0.99125,0.44662 -1.27567,-0.67379c-0.23639,-0.93121 0.46081,-1.42764 0.46081,-1.42764c0,0 -1.03151,0.46549 -1.3061,-0.43725c-0.18736,-0.61595 0.70569,-1.23531 0.70569,-1.23531z" fill="#feeffb" stroke="#000000" stroke-width="0" stroke-linecap="round"/><path d="M250.0152,203.31023c4.07916,-0.81696 6.42326,-0.04264 6.42326,-0.04264c0,0 0.90806,0.04325 1.37255,0.46129c-1.71687,1.49587 -2.92822,4.45112 -5.42574,3.93719c-1.53135,-0.31512 -2.76377,-2.09366 -3.98648,-3.85867c0.55045,-0.21665 1.10154,-0.39407 1.6164,-0.49718z" fill="#dd95e8" stroke="#000000" stroke-width="0" stroke-linecap="round"/><path d="M245.93131,209.82921c0,0 3.18295,-0.99515 6.53549,-1.65399c2.90506,-0.5709 7.57412,-0.70476 7.57412,-0.70476" fill="none" stroke="#000000" stroke-width="1" stroke-linecap="round"/><path d="M245.15935,208.02798c0,0 2.227,-1.48295 5.68833,-2.32773c2.06082,-0.50296 6.70582,-0.67431 6.70582,-0.67431" fill="none" stroke="#000000" stroke-width="1" stroke-linecap="round"/><path d="M245.20225,208.11375c0,0 -1.46726,-0.21889 -1.62111,-0.58326c-0.46565,-1.10286 0.59183,-1.47529 0.59183,-1.47529c0,0 3.3467,-2.24519 5.84223,-2.74497c4.07916,-0.81696 6.42326,-0.04264 6.42326,-0.04264c0,0 1.21563,0.0579 1.55332,0.68722c0.31306,0.58342 -0.18096,1.02823 -0.18096,1.02823c0,0 1.6958,0.03505 2.41724,0.88295c0.94578,1.11157 0.15594,1.39003 0.15594,1.39003c0,0 1.26494,-0.00347 1.66996,0.92131c0.31713,0.72408 -0.51203,1.18013 -0.51203,1.18013c0,0 -5.20712,0.3391 -7.70654,0.76286c-2.47516,0.41965 -7.2179,1.76743 -7.2179,1.76743c0,0 -0.99125,0.44662 -1.27567,-0.67379c-0.23639,-0.93121 0.46081,-1.42764 0.46081,-1.42764c0,0 -1.03151,0.46549 -1.3061,-0.43725c-0.18736,-0.61595 0.70569,-1.23531 0.70569,-1.23531z" fill="none" stroke="#000000" stroke-width="1" stroke-linecap="round"/><path d="M262.44968,198.78601c1.15018,0.38339 0.40356,1.84688 -0.40023,2.63312c-0.13,0.2931 -0.42355,0.49754 -0.76483,0.49754c-0.46186,0 -0.83628,-0.37442 -0.83628,-0.83628c0,-0.18665 0.06115,-0.35902 0.16451,-0.49817c0.39289,-0.79476 1.38393,-1.94719 1.83685,-1.79621z" fill="#000000" stroke="none" stroke-width="0.5" stroke-linecap="butt"/><path d="M244.55778,199.14542c1.31642,-1.17593 6.83383,-2.37225 9.54146,-1.8472c1.63401,0.31686 1.35284,1.93808 1.35284,1.93808c0,0 6.50518,-3.29028 7.2311,-2.78214c0.28324,0.19828 1.53295,2.07667 0.92706,3.17351c-0.89762,1.62499 -3.86953,2.61068 -3.86953,2.61068c0,0 3.2768,1.04143 5.38321,3.06446c3.27168,3.14221 4.20444,8.1679 -10.60834,11.59558c-1.79091,0.41442 -10.06451,0.93634 -13.55884,-2.11337c-2.85954,-2.49569 -1.20105,-8.64402 -1.20105,-8.64402l-4.26626,-0.16396c0,0 -0.79623,-1.11685 0.75362,-4.16423c0.36247,-0.7127 6.85777,0.254 6.85777,0.254c0,0 0.52293,-2.08703 1.45696,-2.92138z" fill="none" stroke="#000000" stroke-width="1" stroke-linecap="round"/></g><g><path d="M236.51091,180.97036c0,0 -1.0256,-4.0956 1.03203,-5.33746c5.68956,-3.43387 12.3485,-2.32847 12.3485,-2.32847c0,0 4.35038,-2.34374 6.74085,-1.58789c2.15327,0.68085 -0.5948,4.24215 -0.56921,7.29582c0.01305,1.55583 1.50782,3.2307 2.03827,4.70018c0.51068,1.41471 0.08678,2.64924 -1.34434,2.88658c-3.02232,0.50121 -7.14433,-3.2593 -7.14433,-3.2593l2.23009,9.19911c0,0 -6.68449,3.43094 -17.20515,2.16149c-7.48165,-0.90275 -8.99837,-6.76105 -8.99837,-6.76105c0,0 2.67148,-2.61667 4.48804,-3.78114c1.80727,-1.15851 6.38364,-3.18789 6.38364,-3.18789z" fill="#feecf7" stroke="#000000" stroke-width="0" stroke-linecap="round"/><path d="M236.51091,180.97036c0,0 -1.0256,-4.0956 1.03203,-5.33746c5.68956,-3.43387 12.3485,-2.32847 12.3485,-2.32847c0,0 4.35038,-2.34374 6.74085,-1.58789c1.68439,0.5326 0.3696,2.82775 -0.27061,5.26374c-0.70722,0.11136 -9.11847,2.47833 -9.11847,2.47833l2.36947,3.88121l2.23009,9.19911c0,0 -0.97231,0.49906 -2.75892,1.04608c-0.18269,-0.61384 -2.54552,-14.15458 -2.54552,-14.15458c0,0 -13.8315,3.3255 -13.60022,3.21161c1.78302,-0.87801 3.5728,-1.67169 3.5728,-1.67169z" fill="#dc94e7" stroke="#000000" stroke-width="0" stroke-linecap="butt"/><path d="M249.89145,173.30443c0,0 4.35038,-2.34374 6.74085,-1.58789c2.15327,0.68085 -0.5948,4.24215 -0.56921,7.29582c0.01305,1.55583 1.50782,3.2307 2.03827,4.70018c0.51068,1.41471 0.08678,2.64924 -1.34434,2.88658c-3.02232,0.50121 -7.14433,-3.2593 -7.14433,-3.2593l2.23009,9.19911c0,0 -6.68449,3.43094 -17.20515,2.16149c-7.48165,-0.90275 -8.99837,-6.76105 -8.99837,-6.76105c0,0 2.67148,-2.61667 4.48804,-3.78114c1.80727,-1.15851 6.38364,-3.18789 6.38364,-3.18789c0,0 -1.02561,-4.0956 1.03202,-5.33746c2.05763,-1.24186 12.34849,-2.32845 12.34849,-2.32845z" fill="none" stroke="#000000" stroke-width="1" stroke-linecap="round"/><g fill="none" stroke="#ff0000" stroke-width="1"><path d="M240.99671,189.17228c-2.61753,1.57784 -5.39303,1.83454 -6.86544,0.66896c-1.51155,-1.19657 -0.03158,-4.01856 2.5728,-5.75385c1.96727,-1.31078 4.59452,-2.07518 6.95426,-0.63327c1.65703,1.01252 0.05816,4.0787 -2.66162,5.71816z" stroke-linecap="butt"/><path d="M237.1825,183.92588l1.62968,5.66099" stroke-linecap="round"/></g><path d="M249.29788,173.87938c-0.15822,0.2769 -0.33031,0.54033 -0.51511,0.79043c-1.85699,2.5132 -4.99844,3.67936 -8.27648,3.61643c-1.07897,-0.02071 -3.58375,-0.18549 -3.34389,-1.83804c0.44548,-3.06916 11.25241,-4.11418 11.71015,-3.31314z" fill="#f89688" stroke="#000000" stroke-width="1" stroke-linecap="butt"/></g><g stroke="#000000" stroke-linecap="round"><path d="M249.74819,183.92588c0,0 1.77797,1.25752 2.70122,1.82735c1.91797,1.18373 3.73173,0.96026 3.73173,0.96026c0,0 -0.06714,1.51828 0.5155,3.17082c0.49653,1.40832 1.62163,2.66857 1.54419,3.2999c-0.16328,1.33106 -2.47589,2.06611 -4.53298,2.16198c-3.40422,0.15866 -4.60295,-1.12759 -4.60295,-1.12759c0,0 -0.12303,-3.93402 -0.0028,-5.75262c0.10692,-1.6172 0.6461,-4.54009 0.6461,-4.54009z" fill="#fddfbd" stroke-width="0"/><path d="M249.74819,183.92588c0,0 1.77797,1.25752 2.70122,1.82735c1.91797,1.18373 3.73173,0.96026 3.73173,0.96026c0,0 -0.04382,0.99079 0.24648,2.24277c-0.82894,-0.25009 -1.37266,0.05301 -3.1407,-0.41531c-2.50102,-0.66247 -3.47666,-2.02588 -3.91129,-2.37123c0.1784,-1.1913 0.37255,-2.24383 0.37255,-2.24383z" fill="#fa9789" stroke-width="0"/><path d="M252.4494,185.75322c1.91797,1.18373 3.73173,0.96026 3.73173,0.96026c0,0 -0.06714,1.51828 0.5155,3.17082c0.49653,1.40832 1.62163,2.66857 1.54419,3.2999c-0.16328,1.33106 -2.47589,2.06611 -4.53298,2.16198c-3.40422,0.15866 -4.60295,-1.12759 -4.60295,-1.12759c0,0 -0.12303,-3.93402 -0.0028,-5.75262c0.10692,-1.6172 0.6461,-4.54009 0.6461,-4.54009c0,0 1.77796,1.25752 2.70121,1.82735z" fill="none" stroke-width="1"/></g><g><path d="M247.68964,193.87551l3.4738,-2.61607l4.54595,2.70184l2.40164,-1.37236l2.61606,3.774c0,0 -5.35589,8.2865 -7.4958,8.63451c-1.97887,0.32182 -4.89836,-6.61886 -4.89836,-6.61886z" fill="#0066cd" stroke="#000000" stroke-width="0" stroke-linecap="round"/><path d="M253.65747,201.33418c1.97357,-1.65742 2.70693,-4.89361 5.38818,-5.8804c0.3998,-0.14713 1.26327,-0.17111 1.42679,0.36231c0.30378,0.99095 -5.77846,9.20631 -7.37912,9.14551c-1.39841,-0.05311 -3.39606,-3.06459 -4.21988,-5.17789c-0.48603,-1.24678 -0.20003,-2.06909 -0.12194,-2.08861c0.13625,-0.09627 1.56123,0.64404 1.64258,1.02069c1.36218,0.92807 3.09633,2.75869 3.2634,2.61838z" fill="#061484" stroke="none" stroke-width="0.5" stroke-linecap="butt"/><path d="M247.68964,193.87549l3.4738,-2.61607l4.54595,2.70184l2.40164,-1.37236l2.61606,3.774c0,0 -5.35589,8.28651 -7.4958,8.63451c-1.97886,0.32182 -4.89836,-6.61886 -4.89836,-6.61886" fill="none" stroke="#000000" stroke-width="1" stroke-linecap="round"/></g></g><g stroke="#000000"><g stroke-linecap="butt"><path d="M266.95331,177.90296l1.44531,-1.84341c0,0 8.66279,2.85299 10.11375,4.61934c1.01858,1.23999 -0.70009,5.14074 -3.30615,4.57512c-3.47053,-0.75327 -8.25289,-7.35101 -8.25289,-7.35101z" fill="#0066cd" stroke-width="0"/><path d="M266.95332,177.90296l0.51296,-0.65424c0,0 1.80215,1.00021 3.51048,2.16092c1.32032,0.89712 2.39307,1.85354 3.73383,2.74735c1.59464,1.06306 3.18868,1.95523 3.13449,2.02132c-0.64305,0.78415 -1.56571,1.30861 -2.63886,1.07569c-3.47053,-0.75326 -8.25289,-7.35102 -8.25289,-7.35102z" fill="#061483" stroke-width="0"/><path d="M266.95332,177.90296l1.44531,-1.84341c0,0 8.66279,2.853 10.11375,4.61935c1.01859,1.23999 -0.70009,5.14074 -3.30615,4.57512c-3.47053,-0.75326 -8.25289,-7.35102 -8.25289,-7.35102z" fill="none" stroke-width="1"/></g><g stroke-linecap="round"><path d="M229.04981,166.17694c0,0 1.21336,-26.09531 22.35176,-17.54651c21.67406,8.76543 10.40537,26.48 10.40537,26.48c0,0 7.48905,-2.41993 8.14072,-1.58023c0.55006,0.70876 -2.42127,4.89542 -3.86053,6.38041c-1.06351,1.09729 -2.92632,3.63597 -4.28,3.31103c-0.85204,-0.20455 -3.18563,-4.13706 -3.18563,-4.13706c0,0 -8.4581,1.23151 -15.31231,0.05487c-6.76841,-1.16192 -15.39826,-5.59057 -15.39826,-5.59057c0,0 -6.39931,-3.32859 -5.6813,-5.69377c0.61179,-2.01534 6.82019,-1.67818 6.82019,-1.67818z" fill="#fde0be" stroke-width="0"/><path d="M254.03571,179.52436c-0.03736,0.00229 -0.44572,-2.41974 -0.44572,-2.41974l-3.9098,1.23574l-1.91467,-8.50974l-7.9508,1.546l1.46485,-6.43298c0,0 -12.00743,-0.91525 -12.00307,-0.94614c0.8545,-6.08742 4.78895,-22.37817 22.1251,-15.36708c21.67406,8.76543 10.40537,26.48 10.40537,26.48c0,0 3.35025,5.82988 3.23474,5.95845c-1.01547,1.13029 -2.25761,2.38731 -3.23455,2.15278c-0.85204,-0.20455 -3.18563,-4.13706 -3.18563,-4.13706c0,0 -1.8801,0.27375 -4.58579,0.43981z" fill="#fc988a" stroke-width="0"/><path d="M261.64032,176.63381l3.37771,-0.20484l-2.87974,4.21919z" fill="#f79587" stroke-width="0.5"/><path d="M251.40155,148.63043c21.67406,8.76543 10.40537,26.48 10.40537,26.48c0,0 7.48905,-2.41993 8.14072,-1.58023c0.55006,0.70876 -2.42127,4.89542 -3.86053,6.38041c-1.06351,1.09729 -2.92632,3.63597 -4.28,3.31103c-0.85204,-0.20455 -3.18563,-4.13706 -3.18563,-4.13706c0,0 -8.4581,1.23151 -15.31231,0.05487c-6.76841,-1.16192 -15.39826,-5.59057 -15.39826,-5.59057c0,0 -6.39931,-3.32859 -5.6813,-5.69377c0.61179,-2.01534 6.82019,-1.67818 6.82019,-1.67818c0,0 1.21336,-26.09529 22.35176,-17.54649z" fill="none" stroke-width="1"/></g><g stroke-linecap="round"><path d="M270.15206,170.59321c0,0 -2.97728,2.51826 -4.51607,3.42222c-1.3288,0.78058 -4.17947,1.68592 -4.17947,1.68592c0,0 -8.26026,-8.6095 -14.92069,-12.10419c-6.80318,-3.5696 -16.3006,-6.34796 -16.3006,-6.34796c0,0 3.01705,-17.98429 7.34465,-19.18985c3.15114,-0.87784 10.87574,0.10966 17.54071,3.29281c3.03771,1.45078 11.68366,5.69212 13.48953,9.67267c2.42034,5.33501 1.54199,19.56841 1.54199,19.56841z" fill="#ff292e" stroke-width="0"/><path d="M270.15206,170.59321c0,0 -2.97728,2.51827 -4.51607,3.42222c-1.3288,0.78058 -4.17946,1.68592 -4.17946,1.68592c0,0 -4.0002,-4.16934 -8.67777,-7.88291c-0.12244,-0.0972 7.29424,-12.30358 12.03618,-16.4187c1.57026,-1.3627 3.34595,-1.3652 3.79519,-0.37498c2.42033,5.33502 1.54199,19.56842 1.54199,19.56842z" fill="#ac0e49" stroke-width="0.5"/><path d="M265.636,174.01545c-1.3288,0.78058 -4.17946,1.68592 -4.17946,1.68592c0,0 -8.26026,-8.6095 -14.92071,-12.10419c-6.80318,-3.5696 -16.30059,-6.34795 -16.30059,-6.34795c0,0 3.01706,-17.98429 7.34465,-19.18985c3.15116,-0.87783 10.87574,0.10966 17.54071,3.29281c3.03771,1.45078 11.68366,5.69212 13.48952,9.67265c2.42033,5.33502 1.54199,19.56842 1.54199,19.56842c0,0 -2.97728,2.51826 -4.51607,3.42222z" fill="none" stroke-width="1"/></g><g stroke-linecap="round"><path d="M228.96116,162.84215c0,0 -3.93755,-0.46894 -5.81768,-0.46465c-1.90894,0.00436 -5.55087,0.49068 -5.55087,0.49068c0,0 2.85932,-3.05307 4.4725,-4.30625c1.53199,-1.19011 4.97553,-3.0334 4.97553,-3.0334l-9.16323,-2.7253c0,0 12.69701,-8.80136 16.6026,-8.99308c2.32932,-0.11433 8.02657,7.39478 8.02657,7.39478c0,0 2.125,-2.0721 3.38527,-2.93712c1.14761,-0.78771 3.87005,-2.0428 3.87005,-2.0428c0,0 -0.71559,6.27565 -0.77842,9.41955c-0.06546,3.27521 0.39318,9.85392 0.39318,9.85392l11.99571,9.71552l-3.59712,5.80326l-3.19886,-7.78598l-3.64283,2.35228l-1.5569,-10.08504l-6.06561,2.11748l0.7146,-5.15127c0,0 -11.22201,-1.39905 -13.95379,-1.12274c-0.74467,0.07532 -1.11074,1.50019 -1.11074,1.50019z" fill="#4fa6ec" stroke-width="0"/><path d="M235.10586,155.27858l-17.51325,7.5896c0,0 2.85932,-3.05307 4.47249,-4.30625c1.53198,-1.19011 4.97553,-3.0334 4.97553,-3.0334l-9.16322,-2.72531c0,0 12.69701,-8.80136 16.6026,-8.99308c2.32932,-0.11434 8.02658,7.39478 8.02658,7.39478c0,0 2.12499,-2.0721 3.38526,-2.93712c1.14761,-0.78771 3.87005,-2.04279 3.87005,-2.04279l-6.48125,10.2302c0,0 -6.91443,-7.28251 -9.08744,-7.75032c-3.41044,-0.7342 -10.38351,4.12893 -10.38351,4.12893z" fill="#66ffff" stroke-width="0"/><path d="M252.9015,170.35506l-2.18889,3.79705l-0.94336,-6.1107z" fill="#66ffff" stroke-width="0"/><path d="M217.59263,162.86818c0,0 2.85932,-3.05307 4.47249,-4.30625c1.53198,-1.19011 4.97553,-3.0334 4.97553,-3.0334l-9.16322,-2.72531c0,0 12.69701,-8.80136 16.6026,-8.99308c2.32932,-0.11434 8.02658,7.39478 8.02658,7.39478c0,0 2.12499,-2.0721 3.38526,-2.93712c1.14761,-0.78771 3.87005,-2.04279 3.87005,-2.04279c0,0 -0.71557,6.27564 -0.77843,9.41954c-0.06547,3.27519 0.39318,9.85392 0.39318,9.85392l11.99571,9.71552l-3.59712,5.80326l-3.19886,-7.78597l-3.64283,2.35227l-1.55691,-10.08504l-6.06562,2.11748l0.7146,-5.15127c0,0 -11.22201,-1.39905 -13.95379,-1.12274c-0.74467,0.07532 -1.11074,1.50019 -1.11074,1.50019c0,0 -3.93753,-0.46894 -5.81767,-0.46465c-1.88014,0.0043 -5.55086,0.49066 -5.55086,0.49066z" fill="none" stroke-width="1"/></g></g><g stroke="#000000"><path d="M250.21529,188.22528c0,0 -3.77593,1.59143 -4.83086,-2.09564c-0.4721,-1.64998 4.6809,-4.74275 5.00715,-5.18698c0.7961,-1.08394 4.25142,1.25395 4.25142,1.25395c0,0 3.058,-0.70137 3.99724,-0.1415c3.03995,1.81202 1.94119,5.51764 1.94119,5.51764c0,0 3.88995,1.90003 4.20457,3.13253c0.65313,2.55831 0.16035,8.72517 -0.42586,9.87547c-0.37047,0.72694 -4.29498,2.43379 -6.76031,1.7411c-2.04786,-0.5754 -2.74047,-3.5211 -2.74047,-3.5211c0,0 -2.42024,1.07928 -3.66133,0.66518c-1.17354,-0.39156 -3.19551,-3.13973 -3.19551,-3.13973c0,0 -1.14418,0.69113 -2.23379,0.71915c-1.63453,0.04203 -3.60259,-0.91725 -1.46604,-4.49825c0.97836,-1.63982 6.14303,-1.23228 6.14303,-1.23228z" fill="#fde0be" stroke-width="0" stroke-linecap="round"/><path d="M250.21529,188.22528c0,0 -3.77593,1.59143 -4.83086,-2.09564c-0.23016,-0.80438 0.87661,-1.9517 2.10928,-2.96786c0.17348,1.70648 1.63635,2.7931 2.95208,2.78876c0.84654,-0.00281 1.47238,-0.70291 2.18558,-1.16406c0.00595,0.00301 0.01192,0.00598 0.01793,0.00891c0.19012,0.09269 0.39098,0.13821 0.58936,0.14113c0.27692,0.12136 1.25703,0.03801 1.32094,-0.03164c1.01004,-0.0879 1.1233,1.38427 2.13572,1.43836c1.05821,0.05651 3.28562,-1.45328 3.48648,-2.74161c0.94273,1.65997 0.50091,3.58656 0.41354,3.92056c-2.1159,0.70443 -5.32869,4.79145 -5.10009,6.48236c0.13752,1.01717 2.58188,0.67057 2.98774,0.39799c1.60893,-1.08056 3.24631,-2.45207 3.76154,-4.16526c0.23933,-0.13395 0.44164,-0.33976 0.57092,-0.60494c0.11119,-0.22808 0.1545,-0.47162 0.13781,-0.70774c0.87816,0.57853 1.69557,1.2431 1.83283,1.78068c0.65313,2.55831 0.16035,8.72517 -0.42586,9.87547c-0.37047,0.72694 -4.29498,2.43379 -6.76031,1.7411c-0.63206,-0.17759 -1.13501,-0.58099 -1.52836,-1.05387c0.5322,-0.17151 1.05195,-0.41681 1.46744,-0.71201c1.28891,-0.91576 2.42452,-1.21202 1.06934,-1.71835c-0.13256,-0.19884 -3.98022,-2.24704 -3.98022,-2.24704c0,0 -0.17612,0.70379 -0.51346,1.39571c-0.17789,0.3649 -0.18202,0.76942 -0.04473,1.11976c-0.81732,0.28284 -2.0828,0.62312 -2.87177,0.35988c-1.17354,-0.39156 -3.19551,-3.13973 -3.19551,-3.13973c0,0 -1.14418,0.69113 -2.23379,0.71915c-0.29066,0.00747 -0.5919,-0.01672 -0.87872,-0.08169c0.77192,-1.44242 1.45273,-3.1274 2.26294,-3.40374c1.65357,-0.56399 3.49365,3.68373 5.01258,2.05678c1.46908,-1.57352 1.30334,-4.83404 -0.41291,-5.19377c-0.0331,-0.01964 -0.06725,-0.0381 -0.10244,-0.05525c-0.41955,-0.20455 -0.89146,-0.17937 -1.27318,0.02638z" fill="#f89688" stroke-width="0" stroke-linecap="butt"/><path d="M244.30272,192.54709c0.11194,-0.18763 0.27871,-0.34846 0.48628,-0.48616c-0.25695,0.27866 -0.50137,0.59218 -0.73836,0.93162c0.07674,-0.14376 0.16066,-0.29222 0.25209,-0.44547z" fill="#f89688" stroke-width="0" stroke-linecap="butt"/><path d="M249.67918,191.31519c-0.02719,-0.01325 -0.05426,-0.02627 -0.08123,-0.03904c0.03067,0.00073 0.06068,0.00153 0.09005,0.00234c-0.00311,0.01221 -0.00603,0.02445 -0.00879,0.0367z" fill="#f89688" stroke-width="0" stroke-linecap="butt"/><path d="M250.21529,188.22528c0,0 -3.77593,1.59143 -4.83086,-2.09564c-0.4721,-1.64998 4.6809,-4.74275 5.00715,-5.18698c0.7961,-1.08394 4.25142,1.25395 4.25142,1.25395c0,0 3.058,-0.70137 3.99724,-0.1415c3.03995,1.81202 1.94119,5.51764 1.94119,5.51764c0,0 3.88995,1.90003 4.20457,3.13253c0.65313,2.55831 0.16035,8.72517 -0.42586,9.87547c-0.37047,0.72694 -4.29498,2.43379 -6.76031,1.7411c-2.04786,-0.5754 -2.74047,-3.5211 -2.74047,-3.5211c0,0 -2.42024,1.07928 -3.66133,0.66518c-1.17354,-0.39156 -3.19551,-3.13973 -3.19551,-3.13973c0,0 -1.14418,0.69113 -2.23379,0.71915c-1.63453,0.04203 -3.60259,-0.91725 -1.46604,-4.49825c0.97836,-1.63982 6.14303,-1.23228 6.14303,-1.23228z" fill="none" stroke-width="1" stroke-linecap="round"/><path d="M250.31551,188.27414l2.57841,-1.47205" fill="none" stroke-width="1" stroke-linecap="round"/><path d="M257.35782,189.3505c0,0 -1.66062,0.08484 -2.49874,-0.5035c-1.40827,-0.98857 -2.30357,-2.9504 -2.30529,-3.63825c-0.0027,-1.09693 2.69308,-2.46963 2.69308,-2.46963" fill="none" stroke-width="1" stroke-linecap="round"/><path d="M262.23011,192.8423c0,0 -2.17504,3.39699 -3.5355,3.96937c-1.32283,0.55652 -4.04878,-1.81064 -4.04831,-2.39855c0.00142,-1.69416 4.0922,-6.62244 4.0922,-6.62244l1.49342,-0.26432" fill="none" stroke-width="1" stroke-linecap="round"/><path d="M261.25283,194.84687l1.48842,-0.76295" fill="none" stroke-width="0.5" stroke-linecap="round"/></g><g stroke-linecap="butt"><path d="M243.619,169.43704c0.03222,-2.95578 2.45444,-5.32577 5.41021,-5.29357c2.95577,0.03221 5.32577,2.45443 5.29357,5.41021c-0.03222,2.95578 -2.45443,5.32577 -5.41021,5.29357c-2.95577,-0.03221 -5.32577,-2.45443 -5.29357,-5.41021z" fill="#ffffff" stroke="none" stroke-width="0"/><path d="M241.61304,162.5015c-0.03042,2.79156 -2.26816,5.03044 -4.99814,5.00069c-2.72997,-0.02974 -4.9184,-2.31687 -4.88798,-5.10843c0.03042,-2.79156 2.26816,-5.03044 4.99814,-5.00069c2.72997,0.02974 4.9184,2.31687 4.88798,5.10843z" fill="#ffffff" stroke="none" stroke-width="NaN"/><path d="M235.65878,159.51197c-1.81274,2.17433 -1.9933,6.77736 1.70578,5.89461c4.77106,-0.93949 3.15789,-7.8909 -1.59354,-5.9894c-0.03726,0.0316 -0.07471,0.06321 -0.11223,0.09479zM241.43072,164.80964c-0.0226,0.1181 -0.04658,0.23424 -0.07185,0.34811c-0.23606,0.37808 -0.43578,0.77142 -0.63491,1.15771c0.04181,0.0793 0.06507,0.16985 0.06403,0.26579c-0.0023,0.21107 -0.1216,0.39347 -0.29564,0.48624l-0.26041,0.14507c-0.42047,0.6873 -0.94195,1.28479 -1.81144,1.63851c-3.22003,1.30997 -7.32028,-1.26798 -7.6407,-4.4694c-0.52928,-4.71571 4.87995,-9.41172 9.2216,-8.19343c2.70713,2.22299 3.15454,6.01938 1.4293,8.62141zM234.5962,166.09135c-1.17365,-0.8846 -1.47506,-2.69325 -1.10159,-4.44516c-0.37173,0.54276 -0.63301,1.15962 -0.69779,1.89842c-0.00493,0.24567 0.01085,0.48613 0.04764,0.71942c0.20242,0.82874 0.90482,1.45676 1.75172,1.82731z" fill="#000000" stroke="none" stroke-width="0.5"/><path d="M249.12475,163.60315c5.49735,-0.64832 7.52066,7.03136 4.35166,10.64733c-2.55109,2.1341 -7.21044,2.08683 -9.44293,-0.59019c-0.34682,-0.41586 -0.50862,-0.9183 -0.58589,-1.45421l-0.07198,-0.17312l0.03603,-0.01498l-0.06184,-0.0628c-0.07516,-0.69478 -0.32737,-2.36465 0.00435,-3.3028c0.04287,-0.26462 0.10626,-0.52587 0.19074,-0.77867l0.14831,-0.56695c0.043,-0.18044 0.17364,-0.32651 0.34396,-0.39139c0.76909,-2.16826 3.11001,-2.59511 5.08756,-3.31222zM245.33828,171.67447c-0.16538,0.63379 -0.15038,1.20804 0.72177,1.57257c0.06662,0.01743 0.13282,0.0342 0.19856,0.05033c-0.1848,-0.15902 -0.36543,-0.34461 -0.54028,-0.55865c-0.17032,-0.34748 -0.29555,-0.70381 -0.38005,-1.06427zM250.21897,173.34919c2.05671,-0.69022 2.93766,-2.78621 2.33763,-6.08703c-2.38206,-4.86821 -7.66978,1.1967 -5.89848,4.87647c2.31192,2.8475 6.26748,-2.19652 3.16384,-4.88691c0,0 -0.41933,-0.36743 -0.0519,-0.78677c0.36743,-0.41933 0.78676,-0.0519 0.78676,-0.0519c2.51788,2.22616 1.56874,5.4995 -0.33781,6.93612zM245.35436,169.15413c0.38488,-1.67559 1.4558,-3.19432 2.74873,-4.0491c-1.60861,0.52083 -3.32367,1.23169 -3.17618,3.31171c0.02713,0.38261 0.23099,0.54147 0.42746,0.73736z" fill="#000000" stroke="none" stroke-width="0.5"/><path d="M228.36682,170.91939c-0.00521,-0.01682 -0.00999,-0.03434 -0.01435,-0.05259c-0.13628,-0.57146 0.43519,-0.70775 0.43519,-0.70775c4.1193,-0.96861 8.07234,1.53121 11.52224,3.51759c2.2727,0.57987 3.98525,2.30649 6.09827,2.94537c0.48583,0.1469 2.42169,0.55476 2.37442,1.28537c-0.10409,1.60832 -2.5952,0.87129 -4.34991,0.14423l-0.62199,-0.08976c-0.5952,-0.25682 -1.16763,-0.55618 -1.72573,-0.8804c-1.84812,-0.67664 -3.44378,-2.0395 -5.31315,-2.65119c-0.95229,-0.3116 -1.95104,-0.5173 -2.96476,-0.69491c-0.51437,-0.01172 -1.12898,-0.12197 -1.74483,-0.29113c-0.99838,-0.16715 -1.99389,-0.34992 -2.95702,-0.62113c-1.02868,-0.91242 -1.11499,-1.51381 -0.73834,-1.90374z" fill="#ff6666" stroke="#000000" stroke-width="1"/></g></g></g></svg>