<svg version="1.1" xmlns="http://www.w3.org/2000/svg" xmlns:xlink="http://www.w3.org/1999/xlink" width="258.66667" height="258.66667" viewBox="0,0,258.66667,258.66667"><g transform="translate(-167.43863,-52.08774)"><g data-paper-data="{&quot;isPaintingLayer&quot;:true}" fill-rule="nonzero" stroke-linejoin="miter" stroke-miterlimit="10" stroke-dasharray="" stroke-dashoffset="0" style="mix-blend-mode: normal"><g data-paper-data="{&quot;index&quot;:null}" stroke-linecap="butt"><g data-paper-data="{&quot;index&quot;:null}"><path d="M336.52669,225.91485c0,0 0.31485,3.6104 -10.89881,6.66204c-17.06667,4.64447 -49.42681,9.43544 -60.37809,9.58145c-5.30205,0.07069 -11.21332,-3.16361 -16.06291,-5.13101c-10.77495,-4.37121 -12.37558,-9.05482 -12.37558,-9.05482c0,0 -1.67346,-4.84123 -0.76423,-6.9239c0.7381,-1.69073 5.66869,-1.02987 5.66869,-1.02987c0,0 43.62497,-7.25878 71.10031,-8.60203c1.18292,-0.05784 1.923,4.22661 3.02098,4.1617c5.96184,-4.82267 14.89536,-5.9616 15.07797,-5.81524c4.4984,3.60527 5.61169,16.15166 5.61169,16.15166z" fill="#0066cc" stroke="#000000" stroke-width="3"/><path d="M261.12055,217.92433c-0.04784,-1.80489 -1.72712,-8.65232 -1.72712,-8.65232c0,0 12.08614,-0.55657 26.71605,-0.68238c12.10991,-0.10414 21.00321,-3.82684 21.00321,-3.82684c0,0 6.15522,8.52409 6.58578,9.01172c0.97925,1.10906 0.67074,2.87626 0.67074,2.87626c0,0 -1.43539,4.77461 -2.41574,7.20494c-1.19968,2.97406 -4.85611,11.22381 -4.85611,11.22381c0,0 -0.74037,1.54172 -1.88662,0.38119c-2.0855,-2.11144 -5.37402,-7.86399 -6.99663,-10.57165c-0.94976,-0.0726 -1.80235,-0.16826 -2.79612,-0.09257c-2.96568,0.22589 -6.1336,1.28051 -9.61473,1.38437c-4.35234,0.12985 -8.28999,0.17268 -11.68763,-0.4346c-7.96143,-1.42298 -12.91623,-4.84603 -12.9951,-7.82189z" fill="#0f1b82" stroke="none" stroke-width="0"/><path d="M298.10252,222.3106c1.08188,-0.89551 4.1089,-2.90164 4.1089,-2.90164c0,0 -1.00414,2.37928 -3.76121,5.73032c-2.95625,3.59315 -5.84946,1.72041 -5.84946,1.72041c0,0 4.56608,-3.7746 5.50177,-4.54909z" fill="#000000" stroke="none" stroke-width="0"/></g><g data-paper-data="{&quot;index&quot;:null}"><g><path d="M310.46856,204.50165c0,0 -0.53496,11.33324 -18.92676,14.29926c-17.77171,2.86602 -27.96039,0.94033 -33.57929,-0.56277c-3.06568,-0.8201 -8.04204,-1.27928 -8.04204,-1.27928c0,0 -2.04782,-8.32876 -2.78023,-16.80741c-0.67758,-7.8439 -0.03742,-15.7391 -0.18834,-19.1242c-0.46588,-10.44917 3.8216,-8.28413 3.8216,-8.28413l32.48172,6.0572c0,0 -0.15344,2.97785 -0.85988,8.32001c8.78072,4.62781 27.74256,13.52169 28.0732,17.38133z" fill="#feebf7" stroke="#000000" stroke-width="3"/><path d="M288.19283,197.73382l0.52208,0.56727c0.05288,0.05679 0.09717,0.12123 0.13076,0.19137c0.51298,0.55936 1.0132,1.14336 1.50404,1.75097c4.10554,6.08316 0.81482,10.89315 -6.29063,11.60092c-7.96079,0.76338 -11.84475,-1.89997 -17.05696,-6.76838c-2.74153,-2.98985 -8.85499,-10.15122 -2.60928,-13.11969c0.74713,-0.35511 2.1932,-0.47515 2.99918,-0.65618c3.48338,-0.69307 7.89141,-0.68484 11.25815,0.69652c1.31716,0.54044 2.74011,1.26464 3.98702,2.03343c0.29739,0.16993 0.67909,0.2563 0.96632,0.43817zM280.96027,197.52261c-0.56532,1.94866 -0.81651,4.29611 -1.30038,6.01081c-0.27893,0.87873 -1.44148,3.84451 -0.57979,4.58556c1.86014,1.59969 8.05419,-0.66147 8.63615,-2.7844c-0.10059,-3.79517 -3.33916,-6.07575 -6.75599,-7.81198zM277.64311,195.95472c-0.71044,-0.32779 -1.38216,-0.64455 -1.98319,-0.96076c-3.03963,-0.93057 -4.70274,-0.60999 -7.68594,0.34107c-0.608,0.19384 -2.22949,0.36384 -2.33189,1.18443c-0.19813,1.58784 1.2967,3.50614 2.14949,4.76601c0.95485,1.42092 4.25648,5.24459 6.3104,5.02431c0.34226,-0.0367 0.82594,-1.12805 0.93883,-1.34486c0.85748,-1.6469 0.98561,-3.65589 1.48789,-5.42727c0.20431,-1.13456 0.52137,-2.19319 0.9774,-3.25292l0.13702,-0.33001z" fill="#ff0000" stroke="none" stroke-width="0.5"/></g><path d="M247.19958,190.57234c0,0 0.46379,-4.69372 1.86249,-6.05243c5.75882,-5.59416 7.57568,-3.19326 7.57568,-3.19326c0,0 -2.91348,27.42783 -4.6745,34.72259c-3.78724,0.03256 -4.76368,-25.47692 -4.76368,-25.47692z" fill="#db93e6" stroke="none" stroke-width="0"/></g><g data-paper-data="{&quot;index&quot;:null}"><path d="M251.43361,218.61124c0,0 -11.1253,1.47921 -15.25825,0.73841c-3.06848,-0.55 -6.76603,-4.27461 -6.76603,-4.27461c0,0 -0.62304,0.08073 -0.86843,-1.65974c-0.18771,-1.33142 3.04109,-2.18642 3.85697,-4.26476c1.69825,-4.32603 1.76832,-10.17501 1.76832,-10.17501c0,0 -1.92596,-7.25725 3.34541,-8.69665c7.12079,-1.94439 11.76241,2.01481 11.76241,2.01481c0,0 3.30814,9.47533 3.42396,13.84519c0.13444,5.07238 -1.26437,12.47237 -1.26437,12.47237z" fill="#fddfbd" stroke="#000000" stroke-width="2.35"/><path d="M234.77192,199.73576c-0.52606,-3.94833 0.02385,-8.98765 3.6944,-9.01922c3.83367,-0.03297 7.5462,-0.44406 10.00673,2.10041c1.52955,1.58173 1.93712,7.23933 1.93712,7.23933c0,0 -2.80781,2.32436 -8.78564,4.50773c-5.48067,2.00178 -6.89116,0.76585 -6.89116,0.76585c0,0 0.42755,-2.67441 0.03855,-5.5941z" fill="#f89587" stroke="none" stroke-width="0"/></g><g data-paper-data="{&quot;index&quot;:null}" stroke="none" stroke-width="0"><path d="M232.05724,198.87424c-0.65955,-0.23179 -2.11414,-1.29118 -2.63558,-2.26234c-1.4914,-2.77769 3.82281,-7.70005 4.07168,-13.01675c0.25836,-5.51971 -3.19322,-11.66797 -2.12184,-14.17761c0.26118,-0.61178 2.81814,-1.85154 3.60945,-2.02844c8.64546,1.56369 21.63327,8.86675 21.63327,8.86675l0.1285,5.63696c0,0 -11.61712,21.57425 -24.68549,16.98142z" fill="#feebf7"/><path d="M255.26602,185.12343c0,0 -2.91107,10.9131 -13.927,14.35828c-4.60249,1.4394 -12.44843,-0.3698 -12.44843,-0.3698c-3.45633,-1.71093 -1.04036,-7.88306 1.41593,-13.07266c0.74349,-1.57083 1.8671,-3.15704 1.26217,-6.74533c-0.71649,-4.25004 -3.79063,-11.22451 -3.79063,-11.22451c0,0 1.18675,-2.29885 2.50736,-0.93783c0.58012,0.59786 1.45023,4.19893 1.95082,5.1322c1.80147,3.35856 2.95452,9.51006 2.59543,11.03212c-0.53991,2.28845 -4.3421,11.95531 -4.3421,11.95531c0,0 -0.34787,1.02862 0.06122,1.60851c1.38146,1.95826 6.05452,1.85264 8.54242,1.22323c5.99282,-1.51612 9.28262,-4.98947 11.85734,-7.91843c2.43378,-2.76862 4.31548,-5.04109 4.31548,-5.04109z" fill="#000000"/></g><g data-paper-data="{&quot;index&quot;:null}"><g><g><path d="M285.60371,248.23371c-0.14792,-5.58052 -1.08008,-16.56942 5.39823,-21.16655c1.61398,-1.14532 5.81304,-4.45658 9.62263,-1.02168c0.4335,0.39086 -0.69101,1.4457 0.11284,2.90012c0.29672,0.53687 2.16522,0.57709 2.66583,1.2073c1.58141,1.99079 4.89434,3.91091 5.5887,3.82469c2.07563,-5.35962 8.7278,-11.86439 10.9777,-12.37812c4.0431,-0.9232 19.56258,2.37884 19.47782,5.39071c0.56279,2.44496 -3.20999,6.51244 -3.20999,6.51244c0,0 16.46685,8.71356 22.63973,12.1847c10.62923,5.97703 10.95524,10.80601 10.95524,10.80601c0,0 0.69703,2.40812 -3.56342,3.6636c-8.35131,2.46099 -18.7704,3.24564 -31.02502,3.0263c-11.90651,-0.21311 -11.69939,-6.30445 -24.22039,-7.53677c-10.55741,-1.03908 -25.17428,1.85458 -25.41991,-7.41273z" fill="#ff2d32" stroke="#000000" stroke-width="3"/><path d="M350.60781,261.45967c0,0 -11.52609,1.3116 -17.37019,0.54147c-5.89692,-0.77709 -14.07774,-6.58983 -19.79727,-7.33934c-12.10427,-1.58619 -19.558,0.49925 -22.7145,-1.52038c-0.20303,-0.1299 -4.96177,-1.81625 -4.49364,-7.47582c1.12533,-13.6053 7.21754,-15.72719 7.21754,-15.72719c0,0 7.31499,7.726 15.6711,8.63506c1.6365,0.17803 0.43395,-2.6033 0.43395,-2.6033c0,0 -0.2732,-1.34002 0.08978,-2.23709c0.5436,-1.34342 2.85477,-5.03996 2.85477,-5.03996c0,0 0.83457,2.00333 3.09097,4.34636c2.72381,2.82836 7.86175,5.53848 13.19797,8.99675c5.93209,3.84444 15.80047,7.15833 18.19743,9.26788c2.61041,2.2974 3.62207,10.15553 3.62207,10.15553z" fill="#ab164a" stroke="none" stroke-width="0"/><path d="M294.81487,233.51098c0.03733,1.40838 -0.65938,1.91869 -2.11649,1.93122c-1.4571,0.01253 -2.17814,-0.39448 -2.21547,-1.80287c-0.03733,-1.40838 0.84784,-1.9203 2.30495,-1.93283c1.4571,-0.01253 1.98968,0.3961 2.02701,1.80449z" fill="#000000" stroke="none" stroke-width="0"/><path d="M306.41184,233.68452c0,0 1.19991,0.17187 5.33939,2.32259c3.37009,1.75096 5.53992,2.77634 5.53992,2.77634c0,0 -0.52684,1.20258 -5.93379,0.14213c-5.62812,-1.10382 -4.94551,-5.24104 -4.94551,-5.24104z" fill="#000000" stroke="none" stroke-width="0"/></g><g><path d="M318.90355,240.76964c0.76432,-3.47526 3.64582,-5.57646 5.50934,-6.07424c7.89659,-2.10934 14.17117,-1.17599 14.0676,0.45714c-0.18666,2.94282 -5.94806,3.23068 -9.5713,5.82541c-1.83275,1.31251 -2.35617,2.72697 -3.43935,3.81958c-1.03409,1.04307 -2.80814,2.31068 -4.74979,1.01008c-1.73264,-1.1606 -2.13866,-3.57321 -1.8165,-5.03797z" fill="#feebf7" stroke="#000000" stroke-width="2.5"/><path d="M319.71081,241.69286c-0.05774,-2.1786 1.82637,-3.20976 1.82637,-3.20976c0,0 0.87629,0.12469 2.44472,0.86368c2.05711,0.96926 2.78329,2.0349 2.78329,2.0349c0,0 -0.73649,0.81077 -1.44459,1.65201c-0.91196,1.08343 -1.22719,2.50445 -2.36507,2.51424c-2.02141,0.01739 -3.18699,-1.67647 -3.24473,-3.85507z" fill="#db93e6" stroke="none" stroke-width="0"/></g><g><path d="M328.91614,249.80419c-0.58606,-0.66602 0.5473,-4.96563 3.67324,-8.08024c7.42677,-7.39986 11.11343,-7.29737 12.61456,-4.88814c1.35821,2.17986 -4.21785,5.16967 -8.07936,9.07534c-3.44688,3.48628 -7.03648,5.22496 -8.20845,3.89302z" fill="#feebf7" stroke="#000000" stroke-width="2.5"/><path d="M334.37841,247.13184c0,0 -2.91868,2.71521 -4.1773,2.30734c-0.77775,-0.25203 -0.29326,-3.44075 0.02112,-3.96912c0.84107,-1.41355 2.17325,-1.87995 2.17325,-1.87995l3.59984,1.67628c0,0 -0.93115,1.29366 -1.6169,1.86544z" fill="#db93e6" stroke="none" stroke-width="0"/></g><g><path d="M350.91772,239.70177c3.09348,2.28529 -2.78826,3.42049 -6.27483,7.65696c-3.07908,3.74134 -4.00714,8.07759 -7.50898,6.26974c-2.91566,-1.50522 9.21961,-17.29851 13.78381,-13.9267z" fill="#ffffff" stroke="#000000" stroke-width="2.5"/><path d="M337.34372,252.22997c-0.04629,-1.74634 3.3048,-4.69514 3.3048,-4.69514l1.0693,1.69726c0,0 -1.11753,3.01869 -2.37137,4.0073c-1.04329,0.8226 -1.97498,0.03754 -2.00273,-1.00944z" fill="#db93e6" stroke="none" stroke-width="0"/></g></g><g><path d="M340.50826,272.78018c-6.31422,0.05429 -14.89315,-6.19165 -22.47719,-6.89881c-11.16655,-1.04122 -30.14778,-1.33704 -33.64058,-4.61718c-3.19521,-3.00067 -4.67872,-12.07117 -0.08739,-12.74884c1.17068,6.04238 6.82983,6.50346 11.25716,6.56971c5.35836,0.08018 12.73096,-0.10526 18.61531,0.95119c10.42092,1.87092 16.16226,7.29568 24.07393,7.22764c13.60045,-0.11696 22.77258,-1.74809 27.88296,-3.48917c2.775,-0.94542 3.63299,-2.37294 4.99971,-2.57807c1.78902,-0.26852 3.84642,3.89272 3.84642,3.89272c0,0 0.13025,4.17361 -4.37722,6.99455c-4.71789,2.95262 -14.4171,4.56145 -30.09309,4.69626z" fill="#ffffff" stroke="#000000" stroke-width="3"/><path d="M284.01248,248.37619c0,0 -0.35194,1.64559 1.49449,3.79028c1.20281,1.39712 3.07596,3.07785 7.77484,4.12061c4.12557,0.91553 18.25296,-0.01391 21.64533,0.84935c4.69336,1.19432 7.87369,2.98992 11.68509,4.5613c1.49012,0.61437 3.08457,1.49051 4.89181,1.83839c7.35506,1.4158 10.16352,1.01773 13.22095,0.85111c4.55438,-0.2482 7.28804,-0.81467 7.28804,-0.81467c0,0 1.05021,1.77607 0.55714,3.75154c-0.49306,1.97547 -1.98099,3.2979 -1.98099,3.2979c0,0 -4.55095,2.57559 -13.15247,0.28608c-4.8784,-1.29851 -5.98665,-1.61624 -15.31339,-5.51344c-4.82654,-2.01677 -28.30015,-2.0777 -32.6504,-3.753c-1.28388,-0.49442 -3.34448,-0.56039 -4.11055,-0.95166c-2.59298,-1.32434 -1.60009,-2.62359 -2.25842,-4.58202c-1.23038,-3.66021 0.90854,-7.73175 0.90854,-7.73175z" fill="#db93e6" stroke="none" stroke-width="0"/></g></g><g data-paper-data="{&quot;index&quot;:null}"><path d="M217.83293,248.15635c2.66147,-3.03338 10.70332,-7.78204 17.19491,-9.41999c-4.60791,-2.51406 -11.07151,-4.27496 -11.27779,-6.148c-0.64712,-5.87574 1.01289,-6.28505 3.10046,-7.79819c1.73927,-1.26071 16.45569,6.4626 16.45569,6.4626c0,0 0.89604,-4.99398 5.4794,-6.12554c3.93208,-0.97078 12.49563,1.74057 17.96384,3.22979c3.61281,0.98391 7.48126,2.59443 8.95434,5.43265c0.92029,1.77313 -0.69969,6.03647 0.87607,4.81119c3.99819,-3.10891 13.9013,-3.21261 16.69537,-1.09638c2.44578,1.85243 3.79355,6.96026 2.91378,9.29095c-0.37171,0.98475 -12.45213,0.2867 -12.20265,1.3102c0.49465,2.02927 -3.0268,4.68472 -2.66574,6.34801c0.95449,4.39705 2.57005,6.83919 2.57005,6.83919c0,0 1.8262,6.42626 -1.69121,9.39273c-4.52003,3.81205 -15.81247,4.38871 -29.42306,4.50577c-24.2021,0.20814 -45.18177,-15.36613 -34.94347,-27.03504z" fill="#ff2d32" stroke="#000000" stroke-width="2.5"/><path d="M279.05704,245.19423c0,0 1.5047,-2.415 6.71228,-3.43967c4.65974,-0.91688 8.72539,-0.82658 8.72539,-0.82658c0,0 0.44309,1.88602 0.76111,2.80345c0.35591,1.02677 -0.26114,2.68639 -0.26114,2.68639c0,0 -3.82893,0.50212 -9.03133,0.21475c-1.7993,-0.09938 -2.59893,0.42906 -3.47646,0.43541c-1.18327,0.00856 -2.39911,-0.48961 -2.99938,-1.02015c-0.43964,-0.38856 -0.43048,-0.85358 -0.43048,-0.85358z" fill="#ab164a" stroke="none" stroke-width="0"/><path d="M239.52651,235.20049c0,0 3.19595,-0.11972 4.55186,-1.8149c-0.3191,-3.1885 2.48992,-6.43728 4.73005,-7.06659c3.78107,-1.0622 13.96346,2.16821 13.96346,2.16821c0,0 0.57357,4.19854 0.8637,6.14604c0.33418,2.24305 0.55038,6.86854 0.55038,6.86854c0,0 -15.89213,0.52349 -19.49489,0.48966c-1.17008,-0.01098 -4.01381,0.8563 -4.01381,0.8563c0,0 -2.18111,-2.81136 -4.39482,-4.45116c-1.81251,-1.3426 -5.38491,-2.1909 -5.40842,-2.68213c-0.00999,-0.20876 -4.28446,-1.30135 -5.9098,-2.98356c-1.57438,-1.62948 -0.23738,-4.83967 0.64936,-4.75569c2.11327,0.20014 13.91292,7.22527 13.91292,7.22527z" fill="#ab164a" stroke="none" stroke-width="0"/><path d="M229.11699,235.34926c0,0 -2.06896,-1.29394 -3.05163,-2.42285c-0.95241,-1.09415 -0.82801,-2.02293 -0.3083,-2.11121c2.95243,-0.50153 4.90049,2.22889 5.68027,3.89731c0.28026,0.59965 0.44167,1.82083 0.44167,1.82083c0,0 -1.34004,-1.19631 -2.76202,-1.18408z" fill="#000000" stroke="none" stroke-width="0"/><path d="M286.78995,244.29231c0.06945,-0.87204 0.83739,-0.7677 3.26512,-0.78857c3.07553,-0.02644 3.84707,0.21383 3.90573,2.42682c0.04317,1.62819 -2.36603,0.5451 -4.33706,-0.03803c-1.65852,-0.49067 -2.94242,-0.23609 -2.83378,-1.60022z" fill="#000000" stroke="none" stroke-width="0"/><path d="M219.54071,248.7749c0,0 0.30039,4.75125 0.79327,6.23596c0.46233,1.39269 2.12136,4.04187 2.12136,4.04187c0,0 0.86722,-1.47043 1.76331,-2.63202c0.41188,-0.53393 0.31371,-1.19577 1.06002,-1.27534c4.97345,-0.53033 15.74094,2.12125 24.44433,2.95213c26.47989,2.52794 30.79016,12.69933 30.79016,12.69933c0,0 -6.5098,4.62787 -31.13601,3.58708c-7.6234,-0.32219 -16.30682,-1.47724 -22.70457,-4.49366c-6.15204,-2.90058 -8.65617,-5.21683 -10.98283,-11.42876c-1.2878,-3.43826 0.85409,-7.1903 2.41034,-8.90278c0.66343,-0.73004 1.44061,-0.78383 1.44061,-0.78383z" fill="#ab164a" stroke="none" stroke-width="0"/><g><path d="M208.03193,253.81983c-0.08327,-0.54131 7.51313,-4.49405 7.51313,-4.49405c0,0 -1.97015,5.04894 0.51564,10.48595c2.85742,6.24991 11.29824,13.09998 30.30901,14.84027c10.55581,0.96631 30.24259,0.28183 36.57018,-5.21661c1.93793,-1.68399 3.09778,-4.91816 2.2166,-7.45248c-1.10812,-3.18697 -2.57725,-5.07111 -1.06699,-5.43545c2.35275,-0.56758 5.1893,5.54499 5.28,8.96675c0.10726,4.04686 -0.92475,7.28635 -3.86452,10.20711c-6.55322,6.51087 -19.82983,7.99416 -36.57226,8.13814c-14.92268,0.12832 -39.79526,-13.86372 -40.40908,-15.39711c-0.1983,-0.4954 0.27513,-9.65815 -0.4917,-14.6425z" fill="#ffffff" stroke="#000000" stroke-width="2.5"/><path d="M209.74013,256.50806c0,0 7.21278,20.61478 33.76901,23.44254c41.24526,4.39188 44.21848,-9.47791 44.21848,-9.47791c0,0 -0.92399,3.44145 -6.49193,6.97986c-5.2216,3.31831 -14.44346,7.33347 -36.563,4.96682c-10.7639,-1.15165 -19.91641,-5.44438 -25.86945,-8.8767c-5.68202,-3.27607 -9.23702,-5.74989 -9.23702,-5.74989l0.17391,-11.28471z" fill="#db93e6" stroke="none" stroke-width="0"/></g><g><g><path d="M253.36683,240.06267c17.87003,0.43576 23.18643,10.85987 22.66476,12.13586c-1.04995,2.56814 -9.30755,-5.56727 -23.43343,-6.62469c-11.02943,-0.82562 -16.04588,0.79808 -16.1616,-0.6976c-0.04122,-0.53255 5.88089,-5.08302 16.93027,-4.81357z" fill="#ffffff" stroke="#000000" stroke-width="2"/><path d="M241.96835,244.25814l-1.34368,-1.36382c0,0 5.00472,-2.36524 7.83368,-2.35648c9.08139,0.02813 13.37982,1.78109 13.37982,1.78109l-2.44928,3.4595z" fill="#db93e6" stroke="none" stroke-width="0"/></g><g><path d="M231.0349,250.25578c-0.22004,-0.28183 -0.65075,-1.80546 2.97779,-2.90566c3.06297,-0.92872 9.69241,-1.47677 14.94575,-1.52195c11.4767,-0.09869 25.2225,6.90081 24.42401,10.74383c-0.4507,2.16918 -11.03499,-3.88386 -22.5117,-3.78516c-11.47672,0.09869 -19.18394,-1.69605 -19.83586,-2.53105z" fill="#ffffff" stroke="#000000" stroke-width="2"/><path d="M249.41983,251.68377c-1.23745,-0.0285 -2.88795,0.2479 -2.88795,0.2479l-2.75257,-5.05822c0,0 5.30767,-0.37853 7.67474,-0.05369c4.62345,0.63447 5.88866,1.05266 5.88866,1.05266l-2.90027,4.05781c0,0 -3.76834,-0.21758 -5.02261,-0.24646z" fill="#db93e6" stroke="none" stroke-width="0"/></g><path d="M227.19032,254.75882c-0.01805,-0.68097 0.2285,-2.89656 3.40115,-3.09927c3.91108,-0.24989 11.23221,1.00861 18.34337,0.94746c6.994,-0.06015 14.22781,1.79834 18.36542,3.83381c3.48198,1.71293 4.44355,3.49669 4.481,4.90964c0.08194,3.09194 -12.39515,-4.60897 -25.27487,-4.4982c-12.87973,0.11078 -19.25754,0.11456 -19.31606,-2.09343z" fill="#ffffff" stroke="#000000" stroke-width="2"/></g></g><g data-paper-data="{&quot;index&quot;:null}" stroke="none" stroke-width="0"><path d="M224.43553,224.21633c-0.1313,-4.95371 2.40677,-7.8469 5.57673,-7.86152c1.77338,-0.00817 2.88249,2.73316 5.91939,2.04361c3.69636,-0.83931 6.51946,-5.9536 9.76374,-6.19153c3.59955,-0.264 8.98791,7.08857 8.98791,7.08857c0,0 -1.10925,7.26813 -3.06993,13.23613c-2.06212,6.2767 -5.17292,11.14808 -8.10352,10.921c-3.13922,-0.24326 -18.78017,-8.13821 -19.07433,-19.23627z" fill="#0066cc"/><path d="M252.81588,227.33762c0,0 -1.30942,3.66724 -1.83959,5.65121c-1.16666,4.36576 -4.07807,10.3618 -7.83418,10.23388c-2.17346,-0.07402 -6.25762,-2.69449 -10.84723,-7.03535c-3.08918,-2.92175 -7.20372,-6.63882 -8.1152,-10.82336c-0.23356,-1.07227 1.66551,-2.54033 1.63571,-3.66468c8.88971,7.931 13.53053,14.74579 14.969,14.43605z" fill="#0f1b82"/><path d="M255.92402,220.62478c0,0 -7.26992,-7.47249 -9.49316,-7.95812c-0.46178,-0.10087 -7.09011,5.19791 -10.14986,6.46891c-0.53731,0.2232 -2.08691,0.30671 -3.36587,-0.23565c-1.09601,-0.46477 -1.86766,-1.48312 -3.04829,-2.20864c-0.81086,0.34456 -5.33534,7.85905 -5.33534,7.85905c0,0 10.99661,17.73545 18.12959,18.13628c1.83544,0.10313 4.57593,-2.05989 6.16333,-5.37305c1.20902,-2.52344 2.21937,-5.94111 3.16211,-8.2767c0.86092,-2.13286 1.7096,-3.30207 1.7096,-3.30207c0,0 -0.62945,4.28782 -1.78304,8.81134c-1.27399,4.99565 -5.11725,10.87062 -9.65498,9.98994c-1.0592,-0.20558 -5.01897,-1.8084 -7.80271,-4.33361c-5.95123,-5.39852 -12.09954,-14.13274 -12.2309,-16.25329c-0.06771,-1.09322 1.90524,-3.45725 2.76314,-4.70662c1.15521,-1.68234 2.45224,-3.88985 5.24956,-4.51721c1.48464,-0.33297 3.55588,2.45453 5.03589,2.0399c4.67227,-1.30899 9.10207,-7.22691 11.8068,-6.90062c2.70473,0.32628 8.84414,10.76014 8.84414,10.76014z" fill="#000000"/></g></g><g data-paper-data="{&quot;index&quot;:null}" stroke-linecap="butt"><g data-paper-data="{&quot;index&quot;:null}"><path d="M315.18857,173.84269c-1.51115,6.89464 -15.48498,8.50177 -45.17021,6.54875c-14.50686,-0.95443 -32.68088,-8.16163 -41.34199,-13.78945c-5.68222,-3.69219 4.90931,-37.2795 10.92521,-40.3986c15.79994,-8.19194 47.37654,-11.80129 61.50045,-1.35018c8.65421,6.40377 4.51797,27.9588 4.51797,27.9588c0,0 -3.04657,5.01083 -4.799,12.85459c4.09267,0.67897 15.52764,2.88333 14.36758,8.17607z" fill="#fddfbd" stroke="#000000" stroke-width="3"/><path d="M300.22952,160.07724c0,0 -21.61897,-11.6885 -25.33962,-11.47256c-0.67637,1.16595 -2.66056,15.19513 -3.13703,14.9449c-11.9026,-6.25096 -15.47246,-9.24702 -15.47246,-9.24702l-12.40061,18.23942c0,0 -5.69248,-6.954 -8.16595,-10.38791c0.10793,-2.23176 -2.42836,5.7719 -2.42836,5.7719l-4.10759,-2.50904c0,0 -0.60773,-1.47175 -0.49172,-2.7387c0.55009,-6.00716 3.62851,-23.08796 13.49851,-29.58434c11.50131,-7.57009 64.99583,0.87345 64.99583,0.87345c0,0 -1.73289,13.14309 -3.01203,17.94789c-1.61708,3.22701 -3.43164,8.59737 -3.43164,8.59737z" fill="#f89587" stroke="none" stroke-width="0"/></g><g><g><path d="M205.62611,152.90768c0,0 -7.72741,4.26116 -15.026,6.58669c-5.05883,1.61188 -9.87048,1.66811 -11.93026,1.31588c-5.03151,-0.86044 -5.87005,-11.39612 -2.60325,-12.95748c1.91802,-0.91672 6.24562,-1.21948 9.97287,-1.28159c9.29652,-0.15491 20.24763,1.54194 20.24763,1.54194l-0.661,4.79453z" fill="#0066cc" stroke="#000000" stroke-width="3"/><path d="M175.81444,155.29755c0,0 2.51068,0.26766 11.42861,-0.59227c7.57254,-0.73021 10.93767,-2.72797 13.12139,-3.78003c1.97318,-0.95062 2.68933,-1.50752 2.68933,-1.50752l0.47664,2.94648c0,0 -9.76908,5.50602 -16.75942,6.69726c-4.10927,0.70026 -8.3318,0.34583 -8.3318,0.34583c0,0 -1.46616,-1.18708 -1.81528,-1.82066c-0.36972,-0.67098 -0.80948,-2.2891 -0.80948,-2.2891z" fill="#0f1b82" stroke="none" stroke-width="0"/></g><g stroke="#000000"><path d="M311.59502,136.12631c0,0 -56.12159,6.13461 -65.70634,8.97196c-12.50623,3.70218 -24.32775,6.83155 -24.32775,6.83155c0,0 -12.26975,-4.64977 -15.85148,-17.12324c-1.09652,-3.81865 8.41407,-23.75387 9.781,-26.07417c4.13688,-7.02216 6.41507,-16.9404 17.80239,-21.07693c30.50283,-11.08042 69.52971,-1.94425 77.09251,4.4283c6.64838,5.60203 0.97541,23.25535 0.97541,23.25535z" fill="#ff2d32" stroke-width="3"/><path d="M219.20957,151.28238c0,0 -12.68804,-11.16711 -12.93558,-18.71291c-0.25155,-7.66822 20.66648,-42.41022 24.45892,-42.19424c12.86991,0.73293 16.15134,54.24184 16.15134,54.24184l-27.67469,6.66531z" fill="#ab164a" stroke-width="1.5"/></g></g><g><path d="M203.50174,138.84476c0.62535,-0.87273 9.89859,6.00194 14.628,12.74472c2.7177,3.87465 1.56022,8.73204 1.31779,11.76711c-0.18577,2.32563 -4.49111,5.4745 -7.52567,5.84327c-4.87546,0.59247 -10.56063,-27.36776 -8.42012,-30.35511z" fill="#fddfbd" stroke="#000000" stroke-width="3"/><path d="M208.14045,160.7572c0,0 1.08053,0.38742 2.98085,-0.25794c2.40358,-0.81628 7.62692,-4.25318 7.62692,-4.25318c0,0 1.28819,3.8593 1.21462,4.97756c-0.10044,1.52656 -3.63353,4.57615 -6.44017,5.95417c-1.52956,0.751 -2.5715,0.2377 -2.74986,0.2798c-0.48772,0.11513 -2.63233,-6.70042 -2.63233,-6.70042z" fill="#f89587" stroke="none" stroke-width="0"/><path d="M210.40614,150.79544c0.05056,-0.59288 8.15676,3.97236 7.68409,5.23506c-0.61006,1.62973 -3.25371,9.18595 -5.32144,7.04906c-0.84448,-0.87272 -2.60192,-9.4778 -2.36264,-12.28411z" fill="#f89587" stroke="#000000" stroke-width="1.5"/></g><g><g data-paper-data="{&quot;index&quot;:null}"><path d="M244.35371,160.90609c-1.69878,1.96248 -5.39817,-6.56037 -6.03957,-6.12398c-0.42156,0.28682 -5.12606,3.03478 -8.95233,6.26985c-3.88918,3.28825 -7.01364,7.64648 -7.1548,7.34495c-0.0768,-0.16404 -2.74243,-14.72368 -1.46836,-15.85263c7.03453,-6.23327 34.43285,-9.18014 34.43285,-9.18014c0,0 -8.63457,15.01979 -10.8178,17.54194z" fill="#50a5eb" stroke="#000000" stroke-width="3"/><path d="M244.60265,149.64051l7.83484,-4.64874l-8.90499,15.0857z" fill="#66ffff" stroke="none" stroke-width="0"/></g><g data-paper-data="{&quot;index&quot;:null}"><path d="M329.84137,167.06974c0,0 -16.27259,-8.84428 -24.38466,-11.71513c-0.85574,-0.30285 2.32954,-2.66067 0.97835,-3.2662c-7.46046,-3.34341 -24.02183,-8.00349 -31.95643,-10.28945c-0.62389,-0.17974 -2.15471,-0.60313 -2.55944,-0.17248c-2.11194,2.2472 -0.6106,10.81424 -2.65918,10.70266c-2.21558,-0.12068 -4.36098,-1.61101 -6.34269,-3.83336c-3.09949,-3.47584 -5.64517,-7.14085 -5.64517,-7.14085c0,0 7.74768,-9.78017 17.40531,-45.07447c3.03826,1.8458 9.29467,9.25226 10.61133,14.61927c1.19609,4.87553 -0.09165,8.76358 0.61229,8.13912c6.99094,-6.20163 19.77478,-10.90646 24.57072,-11.28313c8.33912,-0.65494 28.36043,36.99658 28.36043,36.99658c0,0 -14.02217,-2.93548 -22.54426,-2.14132c5.89545,3.96125 13.26586,20.46191 13.55344,24.45875z" fill="#66ffff" stroke="#000000" stroke-width="3"/><path d="M298.60207,133.33655c0,0 7.74696,8.17125 11.62183,12.64797c4.56806,5.27757 14.86689,16.72416 14.86689,16.72416l-17.86208,-8.18122c0,0 2.30478,-1.50601 0.04113,-3.55959c-1.48811,-1.35001 -4.84939,-2.08639 -9.80888,-3.70099c-3.76304,-1.2251 -20.29463,-6.1121 -25.07687,-7.31964c-0.79703,-0.20125 -1.5446,0.98479 -1.5446,0.98479c0,0 -1.30457,2.07809 -1.56078,3.4221c-0.37302,1.95667 -0.41474,6.4738 -0.41474,6.4738c0,0 -2.82016,-1.0452 -4.14622,-2.24398c-1.87358,-1.69376 -6.03177,-6.95714 -6.03177,-6.95714c0,0 1.69993,-3.00484 4.04806,-7.25379c4.34583,-7.86379 9.90811,-23.77015 12.48546,-35.95444c0.6846,1.58973 4.76445,29.57703 4.76445,29.57703c0,0 9.07757,-3.29282 17.11479,-5.798c5.22798,-1.62954 10.53653,-2.9948 10.83874,-2.66777c7.26133,3.6789 19.2611,19.80412 19.2611,19.80412c0,0 -17.8822,-4.18859 -22.87314,-5.23531c-2.34336,-0.49147 -5.7234,-0.76211 -5.7234,-0.76211z" fill="#50a5eb" stroke="none" stroke-width="0"/></g></g></g><g data-paper-data="{&quot;index&quot;:null}"><path d="M354.29936,207.26073c0.4281,-4.66495 1.21811,-9.95092 6.07948,-9.50479c3.23865,0.29721 7.53755,2.29748 9.8731,5.49044c1.17023,1.59983 1.79491,4.07278 1.65201,5.62993c-0.21004,2.28874 -1.74004,4.056 -4.01344,5.19197c-2.3603,1.17939 -5.507,1.67966 -7.98326,1.45241c-4.86137,-0.44613 -6.036,-3.595 -5.6079,-8.25996z" fill="#485e84" stroke="#000000" stroke-width="3" stroke-linecap="butt"/><path d="M314.95019,219.08282c-1.31089,-6.10395 3.77879,-9.02414 12.27518,-8.24443c8.49639,0.77972 14.42872,3.40467 13.89166,9.25696c-0.22065,2.40444 -1.02203,9.84552 -5.0649,9.7262c-6.83639,-0.20178 -6.10398,-6.01056 -7.56095,-6.12136c-4.13493,-0.31447 -12.36986,0.83575 -13.54098,-4.61737z" fill="#f89587" stroke="#000000" stroke-width="3" stroke-linecap="butt"/><path d="M316.52164,201.91871c1.08032,-11.77195 4.41038,-28.40384 16.50534,-27.69452c4.75258,0.27873 5.72174,7.59622 7.53795,7.76289c4.64635,0.42639 8.31711,-0.42552 11.39099,2.9572c1.49338,1.64342 1.42859,3.15075 2.95556,4.46216c3.10298,2.66494 5.47944,0.43828 7.66116,3.32574c0.52485,1.01643 5.28154,13.74016 3.15806,19.30252c-2.55426,6.6908 -7.72978,9.10668 -11.0158,9.74533c-5.32781,1.03547 -8.51437,-3.57122 -8.51437,-3.57122c0,0 -4.29324,1.34543 -6.53165,0.68645c-2.17792,-0.64117 -3.32634,-3.17748 -6.33351,-4.45137c-0.74487,-0.31554 -1.39153,3.02487 -5.93064,2.19915c-9.91932,-1.80445 -11.3572,-9.55801 -10.88309,-14.72432z" fill="#fddfbd" stroke="#000000" stroke-width="3" stroke-linecap="butt"/><path d="M337.81916,202.46637c0,0 0.50023,0.45622 0.99664,2.28628c0.40828,1.50515 0.62597,4.32849 2.18119,5.23932c0.78005,0.45684 4.85445,1.02948 6.29095,0.55883c1.11475,-0.36525 1.82882,-1.24804 2.16676,-1.25869c1.67362,-0.05277 2.99912,-7.28716 2.99912,-7.28716l2.08227,-2.31216c0,0 0.75705,6.48296 0.48831,11.65229c2.22698,2.63747 3.64589,4.50752 3.64589,4.50752l4.74348,-1.62304c0,0 -1.21842,1.92462 -2.933,3.34153c-0.74683,0.61717 -2.1465,0.893 -2.6463,1.28122c-3.23475,2.51259 -7.40074,2.36559 -10.09588,-0.71871c-0.32822,-0.37561 -1.20693,-1.69751 -2.26205,-1.2457c-3.70648,1.58713 -4.58321,0.84609 -6.18966,0.02427c-2.04318,-1.04524 -4.61523,-2.76964 -4.61523,-2.76964c0,0 -0.17329,-1.10234 -0.95574,-1.00456c-1.00738,0.12591 -2.20463,1.53141 -3.63991,2.06537c-0.59254,0.22044 -1.5739,-0.23549 -2.04879,-0.15707c-1.04988,0.17337 -2.92319,-0.35775 -4.00457,-0.9527c-1.01971,-0.56102 -1.26958,-1.1728 -1.57467,-1.49818c-1.18444,-1.2632 -2.56091,-6.27417 -1.12689,-7.71064c1.74049,-1.74347 6.50482,0.19154 6.50482,0.19154c0,0 3.51747,4.33801 6.52788,4.39979c2.26374,0.04646 3.46535,-7.00973 3.46535,-7.00973z" fill="#f89587" stroke="none" stroke-width="0" stroke-linecap="butt"/><path d="M335.92801,203.62814c-0.07391,-2.74958 0.04571,-5.89682 0.92069,-7.82952c0.77156,-1.70426 2.89839,-3.301 3.85195,-3.15077c0.43791,0.06899 0.45963,1.39124 0.45963,1.39124c0,0 -1.38982,0.99473 -1.83039,2.1242c-0.4885,1.25232 -0.93647,3.48801 -0.8865,5.34724c0.08943,3.32713 0.3882,6.44304 -0.44076,8.76824c-0.73761,2.06898 -2.9712,5.15732 -2.9712,5.15732l-2.4115,-0.527c0,0 1.91914,-3.99704 2.53647,-5.15411c0.85997,-1.61185 0.82001,-4.32629 0.77161,-6.12683z" fill="#000000" stroke="none" stroke-width="0" stroke-linecap="butt"/><path d="M349.86516,208.86385c0.25136,-2.73906 0.14062,-5.69422 1.23775,-7.51005c0.96746,-1.60121 3.12545,-3.15529 4.05459,-2.89348c0.42671,0.12023 0.17634,1.97915 0.17634,1.97915c0,0 -1.23929,0.49995 -1.81018,1.56948c-0.63298,1.18585 -0.61151,3.03524 -0.78148,4.88736c-0.30416,3.31439 -1.10589,6.76153 -2.20367,8.97256c-0.97682,1.96739 -2.27876,2.88966 -2.27876,2.88966l-3.11825,-1.12693c0,0 1.88289,-1.54298 2.63256,-2.61903c1.04433,-1.49899 1.92649,-4.35509 2.09109,-6.14874z" fill="#000000" stroke="none" stroke-width="0" stroke-linecap="butt"/><g stroke-linecap="butt"><path d="M319.5331,182.99053c5.58061,0.51213 9.47583,7.77884 8.70021,16.23064c-0.77562,8.4518 -5.92838,14.88818 -11.50899,14.37605c-5.58061,-0.51213 -9.47582,-7.77884 -8.7002,-16.23064c0.77562,-8.45181 5.92837,-14.88818 11.50898,-14.37605z" fill="#485e84" stroke="#000000" stroke-width="3"/><path d="M321.34366,190.98356l-2.44367,-7.16507c0,0 3.42842,1.68518 4.48985,2.88373c2.18774,2.54528 2.63624,5.78697 2.63624,5.78697z" fill="#8fbbbe" stroke="none" stroke-width="0"/><path d="M322.30305,197.86472l-0.30355,-3.12906c0,0 1.97806,-0.03404 2.66245,0.07355c0.80136,0.12599 2.17951,0.78027 2.17951,0.78027l-0.23918,3.70353z" fill="#8fbbbe" stroke="none" stroke-width="0"/></g><g><path d="M300.18814,215.13796c-11.65944,-1.06998 -20.18907,-11.98671 -19.11908,-23.64616c1.06999,-11.65944 10.08458,-19.15858 21.74403,-18.08859c11.65944,1.06999 18.63043,13.65124 17.56044,25.31069c-1.06998,11.65944 -8.52594,17.49405 -20.18539,16.42406z" fill="#343545" stroke="#000000" stroke-width="3" stroke-linecap="butt"/><path d="M283.06012,187.68729c0,0 6.12901,-14.74353 16.33013,-13.80737c5.78475,0.53086 11.52196,3.89737 15.58801,7.81426c2.89685,2.79058 4.77237,6.82382 4.39415,10.94516c-0.77742,8.47137 -4.82631,11.13781 -15.02743,10.20165c-5.09437,-0.46751 -11.07758,-4.02435 -14.92829,-8.03779c-3.86008,-4.02321 -6.35659,-7.11592 -6.35659,-7.11592z" fill="#485e84" stroke="none" stroke-width="0" stroke-linecap="butt"/><path d="M302.88116,174.06523c0,0 7.47143,6.48946 6.71452,20.01955c-0.76312,13.64097 -8.4429,19.17254 -8.4429,19.17254" fill="none" stroke="#000000" stroke-width="1.6" stroke-linecap="round"/><path d="M311.92141,177.34697c0,0 3.74139,8.31538 4.24686,16.97883c0.72844,12.48519 -3.73891,16.93041 -3.73891,16.93041" fill="none" stroke="#000000" stroke-width="1.6" stroke-linecap="round"/><path d="M293.67936,175.08907c0,0 6.23956,6.7465 6.24477,20.3325c0.00501,13.0673 -4.38139,16.62031 -4.38139,16.62031" fill="none" stroke="#000000" stroke-width="1.6" stroke-linecap="round"/><path d="M292.89011,211.6817c0,0 -3.82352,-8.43234 -4.94381,-15.12861c-1.47558,-8.81998 -0.56556,-17.72163 -0.56556,-17.72163" fill="none" stroke="#000000" stroke-width="1.6" stroke-linecap="round"/><path d="M318.43699,203.04996c0,0 -6.90482,4.12037 -19.23657,3.48921c-11.50761,-0.58898 -16.08015,-6.73022 -16.08015,-6.73022" fill="none" stroke="#000000" stroke-width="1.6" stroke-linecap="round"/><path d="M282.93451,195.4715c0,0 5.7876,0.92057 12.18955,0.94071c5.62994,0.01771 11.728,-0.87328 14.87927,-0.76304c3.74286,0.13094 9.94446,1.11722 9.94446,1.11722" fill="none" stroke="#000000" stroke-width="1.6" stroke-linecap="round"/><path d="M282.38116,190.04941c0,0 9.59147,-5.20841 17.61493,-4.69932c12.59315,0.79904 20.20891,6.06859 20.20891,6.06859" fill="none" stroke="#000000" stroke-width="1.6" stroke-linecap="round"/><path d="M283.92384,183.41846c0,0 6.82419,-4.12118 14.86836,-4.70739c11.58394,-0.84417 17.43151,2.65054 17.43151,2.65054" fill="none" stroke="#000000" stroke-width="1.6" stroke-linecap="round"/><path d="M298.19305,178.07219c-0.95926,-0.08803 -1.67504,-0.83334 -1.59875,-1.6647c0.07629,-0.83136 0.91577,-1.43394 1.87503,-1.34591c0.95926,0.08803 1.67504,0.83334 1.59875,1.6647c-0.07629,0.83136 -0.91577,1.43394 -1.87503,1.34591z" fill="#8fbbbe" stroke="none" stroke-width="0" stroke-linecap="butt"/><path d="M292.48148,178.59893c-0.47962,-0.04402 -0.83276,-0.46852 -0.78874,-0.94814c0.04402,-0.47962 0.46852,-0.83276 0.94814,-0.78874c0.47962,0.04402 0.83276,0.46852 0.78874,0.94814c-0.04402,0.47962 -0.46852,0.83276 -0.94814,0.78874z" fill="#8fbbbe" stroke="none" stroke-width="0" stroke-linecap="butt"/></g></g><path d="M167.43863,310.75441v-258.66667h258.66667v258.66667z" data-paper-data="{&quot;index&quot;:null}" fill="none" stroke="none" stroke-width="0" stroke-linecap="butt"/><g data-paper-data="{&quot;index&quot;:null}"><g><path d="M275.86728,173.63055c0,0 -3.97103,3.01251 -7.87076,2.34454c-23.86195,-3.53556 -22.86342,-9.56939 -23.7553,-12.21163c-0.81203,-2.40566 2.22186,-1.25433 2.31671,-1.19786c4.74722,4.68405 28.53027,10.7384 28.53027,10.7384" fill="#ff6666" stroke="#000000" stroke-width="2" stroke-linecap="round"/><path d="M287.86386,173.90245c0,0 -1.9788,0.74291 -4.19243,0.71961c-1.12872,-0.01188 -4.9539,0.03466 -6.9667,-0.20848c-1.27693,-0.15424 -1.21894,-0.64142 -1.21894,-0.64142l-0.05731,0.17199l-0.63694,-0.2124c-0.27063,-0.08326 -0.46735,-0.33534 -0.46735,-0.63338c0,-0.36591 0.29651,-0.66254 0.66228,-0.66254h0.7962c1.65994,0 3.02593,0.40521 5.50109,0.43444c2.36927,0.02798 5.85787,-0.32489 7.07695,-0.11276c1.1562,0.2012 -0.49688,1.14495 -0.49688,1.14495z" fill="#000000" stroke="none" stroke-width="0.5" stroke-linecap="butt"/></g><g fill="#000000" stroke="none" stroke-linecap="butt"><path d="M256.84587,142.80004c0,0 4.7919,3.25198 6.9144,5.42891c1.74066,1.78529 6.07045,4.1923 6.07045,4.1923c0,0 -0.73725,4.70918 -1.08662,5.93196c-0.29887,1.04607 -1.45895,3.04473 -2.03065,3.99521c-0.73575,1.22324 -1.87247,0.71377 -3.32004,0.52264c-1.35484,-0.17888 -3.05285,0.0451 -2.94028,-1.28618c0.65106,-7.69966 -3.60724,-18.78485 -3.60724,-18.78485z" stroke-width="0"/><path d="M283.20953,156.13338c0,-6.15044 10,-8.0303 10,-8.0303c0,2.62478 0.16377,6.19645 -0.86443,9.42878c-1.07088,3.36648 -2.92189,6.36487 -3.69942,7.54203c-0.59514,0.90102 -1.66405,0.59606 -2.77835,0.5479c-1.30836,-0.05655 -2.62519,-0.0295 -2.50883,-1.29204c0.16656,-1.80737 0.40878,-5.57882 -0.14899,-8.19637z" stroke-width="0"/><path d="M275.67571,160.87889c0,0 -5.12832,-4.51429 -10.67466,-10.23606c-9.35142,-9.64719 -21.84561,-23.28534 -27.19407,-28.57553c-4.21359,-4.16769 -9.90048,-9.34304 -9.90048,-9.34304c0,0 2.67714,0.15776 6.77652,2.70179c2.63765,1.63689 5.86411,4.70563 9.34512,7.8811c4.7815,4.36181 20.0106,21.61846 27.36846,29.85087c2.40302,2.68864 4.23718,4.41473 4.23718,4.41473c0,0 2.42034,-1.5428 5.53674,-4.17303c4.9012,-4.1366 11.74729,-10.51638 15.31259,-14.40434c5.27282,-5.74999 13.24158,-18.69535 13.24158,-18.69535c0,0 -4.98745,24.33737 -34.04898,40.57888z" stroke-width="NaN"/></g></g></g></g></svg>