<svg version="1.1" xmlns="http://www.w3.org/2000/svg" xmlns:xlink="http://www.w3.org/1999/xlink" width="220.26654" height="257.84143" viewBox="0,0,220.26654,257.84143"><g transform="translate(-189.86673,-51.0793)"><g data-paper-data="{&quot;isPaintingLayer&quot;:true}" fill-rule="nonzero" stroke-linejoin="miter" stroke-miterlimit="10" stroke-dasharray="" stroke-dashoffset="0" style="mix-blend-mode: normal"><path d="M189.86673,308.92071v-257.84141h220.26654v257.84143z" fill="none" stroke="none" stroke-width="NaN" stroke-linecap="butt"/><g><g><g data-paper-data="{&quot;origRot&quot;:0}" stroke="#000000" stroke-width="3" stroke-linecap="round"><path d="M379.79704,216.87505c0.70497,2.35194 -8.23595,3.41785 -8.23595,3.41785c0,0 -23.57292,3.47556 -34.69954,5.16392c-4.7779,0.02498 -17.04712,-37.05363 -14.39556,-42.24814c1.18198,-2.31555 10.09043,-7.21988 11.9373,-6.30831c3.51534,1.73508 12.99189,15.78376 12.99189,15.78376l-4.04423,1.40593l10.93562,-2.67217c0,0 12.45038,-4.21584 18.14623,-4.53268c3.15896,-0.17572 7.36426,29.98984 7.36426,29.98984z" data-paper-data="{&quot;origPos&quot;:null}" fill="#582700"/><path d="M362.48006,189.77l7.36235,29.18207" fill="none"/><path d="M358.26775,191.07179l7.64784,29.1138" data-paper-data="{&quot;origPos&quot;:null}" fill="none"/></g><path d="M369.8175,219.59961l-2.79867,0.68727l-7.72302,-29.80379l2.79867,-0.68726z" fill="#ffffff" stroke="none" stroke-width="0" stroke-linecap="butt"/><path d="M336.61212,225.67857l-5.99429,-9.43791l-7.11861,-22.97911l-0.57057,-8.47078l2.60243,-4.46029l7.35262,-2.24012l1.47052,-0.44803l11.8333,14.20787l-2.86435,1.13463l0.61365,1.90871l13.21976,-3.2418l8.54606,29.09316l-27.69672,4.24705z" fill="#66c8ff" stroke="#000000" stroke-width="0.5" stroke-linecap="round"/></g><g fill="#fffc96" stroke="#000000" stroke-width="2" stroke-linecap="round"><path d="M350.67948,191.49029c0,0 3.01647,-4.03309 5.89036,-2.09715c4.59811,3.09742 -19.97721,31.884 -24.94857,28.94642c-2.03117,-1.20023 -0.34824,-4.46008 -0.34824,-4.46008l1.99993,0.88307c0,0 5.80192,-4.3174 11.68435,-10.8956c5.80092,-6.48705 8.38179,-11.79151 8.38179,-11.79151z"/><path d="M341.15121,188.38884c0,0 -0.55412,-4.47823 2.09682,-4.0784c5.56473,0.83929 7.71727,42.25854 2.69761,40.25564c-3.04002,-1.21299 -2.21542,-5.19996 -2.21542,-5.19996l1.48775,0.60552c0,0 0.80393,-6.20143 0.15816,-15.56527c-0.64574,-9.36385 -2.76405,-15.61814 -2.76405,-15.61814z" data-paper-data="{&quot;index&quot;:null}"/></g></g><g stroke="#000000" stroke-linecap="round"><path d="M319.62159,187.19451c0,0 -29.6218,0.58212 -26.24986,-17.09629c1.24232,-6.51331 17.32339,-1.93632 17.32339,-1.93632z" data-paper-data="{&quot;origPos&quot;:null}" fill="#66c8ff" stroke-width="2"/><path d="M313.7264,174.2179c0,0 -15.70805,-4.81658 -15.38064,-5.38101c1.03816,-1.78958 12.82351,0.94681 12.82351,0.94681z" data-paper-data="{&quot;origPos&quot;:null}" fill="#0a0a0a" stroke-width="1"/></g><g data-paper-data="{&quot;origRot&quot;:0}" stroke="#000000" stroke-linecap="round"><path d="M338.30724,227.18672c0,0 3.16893,-3.67835 4.35256,-2.65174c3.49272,3.0294 8.01895,4.68601 10.19147,8.71899c0.90215,1.6747 -1.40715,5.32697 -1.40715,5.32697l-18.76284,27.6135c0,0 -1.89921,2.87587 -3.05026,4.4908c-1.23067,1.72663 -4.15815,3.40949 -5.84841,2.10216c-6.20612,-4.80006 -10.98067,-6.67716 -14.06127,-10.62861c-1.12231,-1.43958 -2.2163,-3.03909 -1.65316,-4.76116c0.7356,-2.24949 4.24545,-5.14975 4.24545,-5.14975z" data-paper-data="{&quot;origPos&quot;:null}" fill="#ff0000" stroke-width="3"/><path d="M327.41926,273.25505c0,0 -6.39803,-1.83031 -10.38821,-5.11509c-3.0614,-2.5202 -9.01305,-8.76063 -9.01305,-8.76063c0,0 0.66848,-2.86457 1.66003,-4.14393c1.04454,-1.34774 3.55722,-2.58774 3.55722,-2.58774l18.81303,14.44289z" data-paper-data="{&quot;origPos&quot;:null}" fill="#976e57" stroke-width="2"/><path d="M338.15825,227.48425c0,0 3.16893,-3.67835 4.35255,-2.65173c3.4927,3.0294 8.01896,4.68601 10.19146,8.71901c0.90215,1.6747 -1.40715,5.32696 -1.40715,5.32696l-18.76284,27.6135c0,0 -1.8992,2.8759 -3.05024,4.49082c-1.23067,1.72663 -4.15814,3.40949 -5.84841,2.10216c-6.20612,-4.80006 -10.98068,-6.67716 -14.06128,-10.62861c-1.12231,-1.43958 -2.21628,-3.0391 -1.65314,-4.76114c0.7356,-2.24949 4.24543,-5.14975 4.24543,-5.14975z" data-paper-data="{&quot;origPos&quot;:null}" fill="#4b4b4b" stroke-width="3"/></g><path d="M290.26488,265.03229c0,0 -2.31804,3.87218 -4.46411,4.97144c-1.6429,0.84153 -3.45228,0.07337 -5.10488,-0.74995c-4.53617,-2.25994 -7.27134,-6.50697 -13.21353,-11.61373c-1.61838,-1.39086 -0.42951,-4.49154 1.10101,-5.97362c1.4315,-1.38621 4.00713,-3.71046 4.00713,-3.71046l24.63829,-22.82214c0,0 3.28895,-2.85336 5.14075,-2.28224c4.45948,1.37535 6.92816,5.42301 10.60404,8.23955c1.24569,0.95449 -1.91896,4.63628 -1.91896,4.63628c0,0 -5.25684,7.40998 -8.6215,12.15275c-4.74881,6.69385 -12.16823,17.15214 -12.16823,17.15214z" fill="#4b4b4b" stroke="#000000" stroke-width="3" stroke-linecap="round"/><g><g><path d="M306.82494,189.54362c0,0 4.07262,-13.89438 6.38861,-14.11718c6.94794,-0.66839 22.16188,2.4166 32.41934,3.86649c1.5857,0.22413 1.02086,13.73465 1.02086,13.73465l-2.53046,30.39943c0,0 -1.88543,14.75441 -3.61527,14.5099c-15.39873,-2.17661 -33.56895,-3.88876 -40.31231,-5.68641c-2.24777,-0.5992 0.8631,-15.98357 0.8631,-15.98357z" data-paper-data="{&quot;origPos&quot;:null}" fill="#66c8ff" stroke="#000000" stroke-width="3.5" stroke-linecap="round"/><path d="M325.19838,200.37402c-1.33968,-0.18937 -0.98417,-2.63708 -0.98417,-2.63708c0.73735,-5.07675 1.7117,-11.7853 2.44907,-16.86205c0,0 0.35551,-2.44772 1.69518,-2.25836c1.33968,0.18937 0.98417,2.63707 0.98417,2.63707c-0.73735,5.07675 -1.47471,10.15349 -2.21206,15.23024l-0.23702,1.6318c0,0 -0.35551,2.44773 -1.69518,2.25836z" fill="#ffffff" stroke="none" stroke-width="0.5" stroke-linecap="butt"/><path d="M336.73921,208.36529c-1.33968,-0.18937 -0.89305,-3.26438 -0.89305,-3.26438c0.92631,-6.37783 2.15039,-14.80567 3.07672,-21.18347c0,0 0.44662,-3.07502 1.7863,-2.88566c1.33968,0.18937 0.89305,3.26438 0.89305,3.26438c-0.92631,6.37783 -1.85265,12.75565 -2.77896,19.13348l-0.29775,2.05001c0,0 -0.44662,3.07503 -1.7863,2.88567z" fill="#ffffff" stroke="none" stroke-width="0.5" stroke-linecap="butt"/></g><g fill="none" stroke="#b9b9b9" stroke-width="3"><path d="M342.72911,183.60428c-0.66418,-1.45769 0.45748,-2.52385 1.89996,-3.54311c1.44249,-1.01923 2.76867,-1.20528 3.32376,-0.14794c1.17692,2.24188 -0.50719,2.98345 -1.63669,3.78155c-1.44249,1.01925 -2.64902,1.96816 -3.58702,-0.09048z" stroke-linecap="butt"/><path d="M340.78809,185.26676l3.0463,-2.09945" stroke-linecap="round"/><path d="M337.01984,185.36609c1.44249,-1.01923 2.76868,-1.20528 3.32376,-0.14794c1.17692,2.24188 -0.50719,2.98345 -1.63669,3.78155c-1.44247,1.01925 -2.64901,1.96815 -3.58702,-0.09049c-0.66418,-1.45769 0.45746,-2.52386 1.89995,-3.54313z" stroke-linecap="butt"/><path d="M333.17885,190.57167l3.04629,-2.09947" stroke-linecap="round"/><path d="M327.41226,189.30235c0.64923,-1.5502 2.01492,-1.20188 3.52563,-0.52759c1.51071,0.6743 2.37549,1.77738 1.94518,2.96942c-0.91236,2.52744 -2.3632,1.4517 -3.54613,0.92371c-1.5107,-0.67429 -2.84156,-1.17626 -1.92468,-3.36554z" stroke-linecap="butt"/><path d="M325.17637,188.58218l3.15337,1.45814" stroke-linecap="round"/><path d="M320.57034,183.94111c1.11437,-1.16475 2.22034,-0.218 3.34465,1.10129c1.1243,1.31928 1.5219,2.74941 0.72687,3.67629c-1.6857,1.96524 -2.61855,0.29526 -3.49894,-0.73777c-1.1243,-1.31929 -2.14633,-2.39489 -0.57257,-4.0398z" stroke-linecap="butt"/><path d="M321.14049,185.05145l-2.32942,-2.80146" stroke-linecap="round"/><path d="M314.70026,176.96097c1.11436,-1.16473 2.22033,-0.218 3.34465,1.10129c1.12432,1.31929 1.5219,2.74941 0.72687,3.67629c-1.6857,1.96523 -2.61855,0.29526 -3.49894,-0.73777c-1.1243,-1.31928 -2.14632,-2.39488 -0.57255,-4.0398z" stroke-linecap="butt"/><path d="M315.27043,178.07129l-2.32943,-2.80147" stroke-linecap="round"/></g></g><path d="M346.84283,181.14609c-12.36762,-1.06945 -24.35755,-2.14247 -29.15314,-3.61378c-4.38287,-1.34467 -5.45206,-4.22196 -5.45206,-4.22196c0,0 -1.54925,-2.59545 -1.48199,-4.12906c0.20177,-4.60083 1.40961,-17.69853 3.52413,-28.8877c0.07057,-0.37344 0.12413,-0.58083 0.21743,-0.94951c0.27988,-1.10604 1.56046,-5.38045 1.56046,-5.38045c0,0 3.42895,-1.33644 5.2482,-1.63648c5.45777,-0.9001 18.81308,1.88795 32.99422,3.67776c1.28534,0.16223 3.32448,2.04898 3.32448,2.04898c0,0 1.25653,3.27458 1.0056,5.24302c-1.62229,12.72621 -3.46534,26.80107 -4.10354,29.99794c-0.21272,1.06562 -2.51683,5.05297 -2.51683,5.05297z" fill="#582700" stroke="#000000" stroke-width="2.5" stroke-linecap="round"/><path d="M311.59525,134.34357c-0.57189,-1.11917 0.57777,-1.6759 0.57777,-1.6759l1.4163,-0.64002c0.12471,-0.02512 0.24922,-0.04949 0.37361,-0.0731c-0.48158,-5.85391 1.34128,-12.70108 1.86676,-18.39661c0.13627,-1.47706 0.1434,-5.51233 1.00003,-6.7104c1.43444,-2.00622 3.12642,-1.25231 5.06585,-1.07756c3.29992,0.29733 6.56948,0.63148 9.87909,0.45532c8.20314,-0.42725 16.25332,0.04187 24.44885,0.10288c2.58616,0.01926 5.10131,0.15537 7.66022,0.60365c0.70017,0.12265 1.62752,-0.04569 2.07298,0.4943c1.57772,1.91241 0.64095,3.7946 0.12786,5.71864c-1.02346,3.83784 -3.01491,7.20115 -3.52217,11.18035c-0.40899,3.04174 -1.19437,6.12955 -1.88614,9.12022c-0.23873,1.03205 -0.07624,2.99807 -1.23719,3.68376c-2.38047,1.40597 -8.04237,-0.32468 -10.6311,-0.64493c-7.89352,-0.97651 -15.77298,-2.11212 -23.71162,-2.64928c-2.84707,-0.09766 -5.56926,-0.10984 -8.33239,0.21745c-0.06265,0.36852 -0.28994,0.82773 -1.00918,0.96628c-0.78033,0.15032 -1.17291,-0.2631 -1.35868,-0.59946c-0.09485,0.01831 -0.18978,0.0371 -0.28483,0.05636l-0.79447,0.43054c0,0 -1.14966,0.55672 -1.72155,-0.56246z" fill="#000000" stroke="none" stroke-width="0.5" stroke-linecap="butt"/><path d="M330.28943,153.43681c5.07518,-1.92734 9.1768,0.73143 10.27219,5.67268c1.25631,5.66702 -3.0162,8.34297 -3.0162,8.34297c0,0 -2.48425,-1.3574 -5.75491,-2.09895c-4.07251,-0.92334 -6.39162,-0.71456 -6.39162,-0.71456c0,0 -1.99449,-8.5875 4.89053,-11.20215z" fill="#ffffff" stroke="#0a0a0a" stroke-width="2" stroke-linecap="butt"/><path d="M349.2392,156.30019c5.07518,-1.92734 9.1768,0.73143 10.27219,5.67268c1.25631,5.66702 -3.0162,8.34297 -3.0162,8.34297c0,0 -2.48425,-1.3574 -5.75491,-2.09895c-4.07251,-0.92334 -6.39162,-0.71456 -6.39162,-0.71456c0,0 -1.99449,-8.5875 4.89053,-11.20215z" fill="#ffffff" stroke="#0a0a0a" stroke-width="2" stroke-linecap="butt"/><g data-paper-data="{&quot;index&quot;:null}"><g stroke="#000000" stroke-width="3" stroke-linecap="round"><path d="M288.00704,208.68415l14.40505,-26.82547c0,0 2.81493,-5.05342 4.01982,-5.07751c3.61463,-0.07225 9.51531,3.21372 16.06794,5.32969c1.08918,0.35172 -0.3506,6.12131 -0.3506,6.12131c0,0 -2.6834,8.98372 -4.40092,14.73375c-2.61562,8.75672 -6.70217,22.43808 -6.70217,22.43808c0,0 -1.85161,7.06541 -3.80159,6.26664c0,0 -10.4183,0.57945 -25.03413,-8.88178c0.55871,-4.58005 5.79659,-14.1047 5.79659,-14.1047z" data-paper-data="{&quot;origPos&quot;:null}" fill="#582700"/><path d="M287.36511,210.69767l24.97917,9.3603l-1.26175,3.18665l-25.03556,-9.10705z" data-paper-data="{&quot;origPos&quot;:null}" fill="none"/></g><path d="M288.24831,210.52635l17.90863,-33.34491l15.37621,5.73374l0.99206,1.08464l-9.79934,35.70518z" fill="#66c8ff" stroke="#000000" stroke-width="1" stroke-linecap="round"/><path d="M286.41849,213.76196l0.87696,-2.17904l24.86578,9.07881l-0.87696,2.17904z" fill="#ffffff" stroke="none" stroke-width="0" stroke-linecap="butt"/></g><path d="M303.62234,186.22912l0.20415,0.0128c0.56521,2.08043 0.24977,3.80109 0.56967,5.88325c0.21985,1.431 0.90017,2.12827 1.00059,3.65829c0.06234,0.95 -0.35779,1.99114 0.04059,2.85582c1.0023,2.17547 3.11617,2.02679 3.93915,4.69989c0.34609,1.12414 -0.61257,2.35632 -0.37615,3.50853c0.2162,1.05363 3.09864,2.49392 3.73815,3.37754c2.44242,3.37479 2.04575,6.47424 0.85877,10.14664c-1.20202,3.71892 -1.94786,9.11427 -6.52913,10.21949c-2.10395,0.50756 -4.41258,-0.61932 -6.35481,-1.24707c-4.12167,-1.3322 -8.78957,-3.07682 -12.6119,-5.162c-1.6351,-0.892 -4.40981,-2.86022 -4.9115,-4.77598c-0.29786,-1.13739 0.50926,-3.25571 0.86907,-4.37795c2.06766,-6.35758 5.94769,-13.22065 9.80366,-18.67694c2.07208,-2.93204 4.18338,-5.19948 5.60938,-8.2868c-0.53886,-1.2235 0.63998,-2.05567 0.63998,-2.05567l0.15914,0.00998c0.13674,-0.33097 0.73443,-1.50776 2.1716,-1.04323c0.80395,0.25985 1.09431,0.78241 1.17958,1.25341z" fill="#000000" stroke="none" stroke-width="0.5" stroke-linecap="butt"/><path d="M307.54168,233.46468c0,0 -2.49586,1.58525 -3.69786,1.29834c-8.00617,-1.91103 -15.76389,-3.78711 -18.75335,-5.21083c-2.73216,-1.30117 -3.12136,-3.26572 -3.12136,-3.26572c0,0 -0.73512,-1.8298 -0.52411,-2.81406c0.63301,-2.95281 2.85113,-11.29635 5.4571,-18.31731c0.08698,-0.23431 0.14472,-0.36301 0.24609,-0.59202c0.30415,-0.68703 1.61017,-3.32249 1.61017,-3.32249c0,0 2.39737,-0.52526 3.62481,-0.53964c3.68234,-0.04317 12.15022,3.07571 21.26904,5.63108c0.82651,0.23161 1.96047,1.65186 1.96047,1.65186c0,0 0.46902,2.23973 0.09006,3.48682c-2.44988,8.06265 -5.19149,16.97487 -5.9584,18.97748z" fill="#582700" stroke="#000000" stroke-width="2.5" stroke-linecap="round"/><g data-paper-data="{&quot;index&quot;:null}" stroke="#000000" stroke-width="1.25" stroke-linecap="butt"><path d="M326.01696,177.34777c-8.24876,-1.62014 -4.468,-9.85479 -4.468,-9.85479l12.30026,2.30301c0,0 0.90096,9.26708 -7.83226,7.55178z" fill="#000000"/><path d="M325.47539,174.59004c2.1377,1.1075 3.61336,2.90714 3.23734,2.94041c-0.77705,0.06876 -1.66994,0.01881 -2.69576,-0.18267c-3.07446,-0.60386 -4.47779,-2.12659 -5.02862,-3.79934c-0.10701,-0.32497 2.52402,0.02459 4.48704,1.04159z" fill="#ff8484"/><path d="M320.85432,170.37638c0.25621,-1.18308 0.69463,-2.8834 0.69463,-2.8834l10.81014,2.02402l-0.51284,3.00315c0,0 -11.0004,-2.10477 -10.99195,-2.14377z" fill="#ffffff"/></g><path d="M267.37748,201.33509c0,0.79263 -1.33651,1.43518 -2.98518,1.43518c-1.64867,0 -2.98518,-0.64256 -2.98518,-1.43518c0,-0.79263 1.33651,-1.43518 2.98518,-1.43518c1.64867,0 2.98518,0.64256 2.98518,1.43518z" fill="#000000" stroke="none" stroke-width="0" stroke-linecap="butt"/><path d="M260.83304,205.18137c0,0.50728 -0.95098,0.91852 -2.12408,0.91852c-1.1731,0 -2.12408,-0.41123 -2.12408,-0.91852c0,-0.50728 0.95098,-0.91852 2.12408,-0.91852c1.1731,0 2.12408,0.41123 2.12408,0.91852z" fill="#000000" stroke="none" stroke-width="0" stroke-linecap="butt"/><path d="M249.51624,233.25717c-0.33428,0.54417 -1.52282,0.42166 -2.65468,-0.27364c-1.13187,-0.69529 -1.77844,-1.70008 -1.44417,-2.24424c0.33428,-0.54417 1.52282,-0.42165 2.65468,0.27364c1.13187,0.69529 1.77844,1.70007 1.44417,2.24424z" fill="#000000" stroke="none" stroke-width="0" stroke-linecap="butt"/><path d="M243.40118,233.1378c-0.21394,0.34827 -1.04025,0.22953 -1.84561,-0.26519c-0.80537,-0.49473 -1.28482,-1.1781 -1.07088,-1.52637c0.21394,-0.34827 1.04025,-0.22953 1.84561,0.26519c0.80537,0.49473 1.28482,1.1781 1.07088,1.52637z" fill="#000000" stroke="none" stroke-width="0" stroke-linecap="butt"/><path d="M293.71033,248.74129c1.56444,1.34715 3.87684,3.19928 4.36741,5.34002c0.30408,1.32695 -0.01851,2.10597 -0.3704,3.02036c0.72906,-0.0959 1.48056,-0.27176 1.94695,0.20352c2.7161,2.76788 -1.14161,6.39477 -1.68996,8.70916c-0.31563,1.33217 0.68228,2.85327 0.12813,4.10516c-1.73556,3.92091 -6.53967,4.17756 -10.05184,3.74421l-1.83294,-1.08649c0,0 -0.01415,-0.01061 -0.03853,-0.03112c-3.16788,1.35269 -8.08616,-0.37246 -11.41147,-0.36888c-4.81052,0 -9.36594,-0.64811 -14.12406,-1.0044c-5.34433,-0.40019 -12.01696,0.92386 -17.11048,-1.40721c-1.28269,-0.58703 -2.16641,-1.85502 -3.43516,-2.47159c-1.11563,-0.54216 -2.56648,0.04787 -3.69052,-0.47663c-0.95024,-0.44339 -1.65825,-1.28391 -2.48737,-1.92587c0.15286,-1.17627 -0.15394,-2.51303 0.45858,-3.5288c0.69137,-1.14653 1.71896,-1.21233 2.65157,-2.17293c2.15861,-2.22343 2.59205,-3.1233 7.0535,-3.01132c2.33691,0.05866 5.00278,-0.10352 7.43927,-0.48406c1.28362,-0.20048 2.41399,-1.02233 3.69459,-1.24127c3.42955,-0.58635 7.04312,-0.73477 10.54895,-0.47954c0.01519,-0.35425 2.25908,-0.48867 2.22335,-0.82415l1,-0.80556c0,0 -1.55556,-0.89442 -0.38449,-1.22999c0.56342,-0.5226 0.65151,-0.88712 0.81673,-1.60157c0.18126,-0.78383 0.76539,-2.57132 1.27887,-3.19067c0.45886,-0.55347 3.5947,-1.68404 4.42736,-1.64094c0.48929,0.02533 2.82889,1.25518 3.63931,1.2465c1.329,-0.01424 2.53628,-1.10765 3.86069,-0.9965c2.02568,0.17001 2.3999,1.13035 3.93714,1.93894c1.85056,0.97341 3.8532,0.57652 5.46511,1.29909c0.89022,-0.31275 1.68971,0.37253 1.68971,0.37253z" fill="#000000" stroke="none" stroke-width="0.5" stroke-linecap="butt"/><path d="M284.96527,213.32777c0.0058,-0.02034 0.00944,-0.03125 0.00944,-0.03125c1.14989,-3.29544 0.96635,-8.88677 3.64993,-11.51063c3.23209,-3.16015 11.52989,-1.7439 14.68723,0.88467c3.39188,2.82382 2.78731,8.10337 -1.03953,10.0168c-1.09377,2.26787 -3.99978,4.12917 -6.40959,4.99606c-1.37915,0.49612 -3.02352,-0.02247 -4.35815,0.58329c-2.51068,1.13954 -1.81137,4.30932 -5.37956,3.02376c-0.39715,1.20287 -1.21578,3.1845 -1.44215,3.7495l-0.57502,1.72507c-0.21992,0.71509 -0.88574,1.23488 -1.67296,1.23488c-0.78722,0 -1.45303,-0.51979 -1.67296,-1.23488l-0.58724,-1.76172l0.10198,-0.03399c-0.07926,-0.18358 -0.14422,-0.3733 -0.19103,-0.57081c-0.20603,-0.8693 0.61589,-1.67759 0.89709,-2.52556c0.88696,-2.67462 1.41516,-5.25242 2.6869,-7.80566z" fill="#000000" stroke="none" stroke-width="0.5" stroke-linecap="butt"/></g></g></svg>