<svg version="1.1" xmlns="http://www.w3.org/2000/svg" xmlns:xlink="http://www.w3.org/1999/xlink" width="43.45184" height="45.23702" viewBox="0,0,43.45184,45.23702"><g transform="translate(-217.38149,-157.38149)"><g data-paper-data="{&quot;isPaintingLayer&quot;:true}" fill-rule="nonzero" stroke-linecap="butt" stroke-linejoin="miter" stroke-miterlimit="10" stroke-dasharray="" stroke-dashoffset="0" style="mix-blend-mode: normal"><path d="M251.52572,190.90726c-2.89234,3.0553 -6.98644,4.96125 -11.52572,4.96125c-8.76393,0 -15.86851,-7.10458 -15.86851,-15.86851c0,-8.76393 7.10458,-15.86851 15.86851,-15.86851c6.03082,0 11.27587,3.36429 13.96078,8.31847" fill="none" stroke="#000000" stroke-width="13.5"/><path d="M248.2,191.22728c0,-1.65686 1.34314,-3 3,-3c1.65686,0 3,1.34314 3,3c0,1.65686 -1.34314,3 -3,3c-1.65686,0 -3,-1.34314 -3,-3z" fill="#ffffff" stroke="#000000" stroke-width="7.5"/><path d="M250.83637,172.40909c0,-1.65686 1.34314,-3 3,-3c1.65686,0 3,1.34314 3,3c0,1.65686 -1.34314,3 -3,3c-1.65686,0 -3,-1.34314 -3,-3z" fill="#ffffff" stroke="#000000" stroke-width="7.5"/><path d="M220.8125,199.1875v-38.375h38.375v38.375z" fill="none" stroke="none" stroke-width="0"/><path d="M251.52572,190.90726c-2.89234,3.0553 -6.98644,4.96125 -11.52572,4.96125c-8.76393,0 -15.86851,-7.10458 -15.86851,-15.86851c0,-8.76393 7.10458,-15.86851 15.86851,-15.86851c6.03082,0 11.27587,3.36429 13.96078,8.31847" fill="none" stroke="#ffffff" stroke-width="6"/><path d="M248.2,191.22728c0,-1.65686 1.34314,-3 3,-3c1.65686,0 3,1.34314 3,3c0,1.65686 -1.34314,3 -3,3c-1.65686,0 -3,-1.34314 -3,-3z" fill="#ffffff" stroke="none" stroke-width="0.5"/><path d="M250.83637,172.40909c0,-1.65686 1.34314,-3 3,-3c1.65686,0 3,1.34314 3,3c0,1.65686 -1.34314,3 -3,3c-1.65686,0 -3,-1.34314 -3,-3z" fill="#ffffff" stroke="none" stroke-width="0.5"/><path d="M219.16667,200.83333v-41.66667h41.66667v41.66667z" fill="none" stroke="none" stroke-width="NaN"/></g></g></svg>