<svg version="1.1" xmlns="http://www.w3.org/2000/svg" xmlns:xlink="http://www.w3.org/1999/xlink" width="258.66667" height="258.66667" viewBox="0,0,258.66667,258.66667"><g transform="translate(-107.43872,-52.08782)"><g data-paper-data="{&quot;isPaintingLayer&quot;:true}" fill-rule="nonzero" stroke-linejoin="miter" stroke-miterlimit="10" stroke-dasharray="" stroke-dashoffset="0" style="mix-blend-mode: normal"><path d="M107.43872,310.75449v-258.66667h258.66667v258.66667z" data-paper-data="{&quot;index&quot;:null}" fill="none" stroke="none" stroke-width="0" stroke-linecap="butt"/><g data-paper-data="{&quot;index&quot;:null}" stroke="#000000" stroke-width="3" stroke-linecap="butt"><path d="M261.37676,185.75494c0,0 -1.45878,11.27426 -9.51766,11.01878c-3.7376,-0.11848 -20.18755,-4.80986 -23.07112,-10.69621c-6.28062,-12.82088 -3.67417,-21.64057 -3.67417,-21.64057c0,0 3.8231,-3.21304 6.29806,-2.99913c7.10336,0.61391 8.24133,5.07552 8.24133,5.07552c0,0 0.43439,2.08949 1.10576,3.34241c0.7405,1.38194 3.15023,4.60017 3.15023,4.60017c0,0 15.20038,0.32627 15.69187,1.54927c0.219,0.54493 1.7757,9.74978 1.7757,9.74978z" fill="#9362ec"/><path d="M259.66448,180.84004c0,0 15.77763,-0.38287 20.4098,2.88816c7.29594,5.15206 4.55145,14.96036 3.28167,15.97936c-3.97582,3.19059 -18.59561,4.62672 -18.59561,4.62672c-2.89803,-0.00909 -10.21291,-0.29514 -12.3802,-1.021c-3.41458,-1.1436 -3.14191,-5.76213 -2.98583,-10.43751c0.25764,-7.71729 2.78509,-12.30135 10.27016,-12.03571z" fill="#c172b1"/></g><g data-paper-data="{&quot;index&quot;:null}" stroke-linecap="butt"><path d="M274.1133,222.83549c0,0 -17.07733,7.37158 -29.03618,8.99427c-13.92574,1.88957 -49.51954,1.66491 -49.51954,1.66491l-5.85723,-37.65098c0,0 24.22697,-6.68503 49.34178,-1.74058c12.39343,2.43994 37.40763,16.9129 37.65526,17.21358c1.34326,1.63094 -2.58407,11.51879 -2.58407,11.51879z" fill="#0066cc" stroke="#000000" stroke-width="3"/><path d="M210.10896,215.28497c0,0 0.00766,-1.28359 0.37954,-2.63057c1.59663,-5.78315 7.26776,-20.63626 20.96645,-20.63626c16.88928,0 28.91547,13.59748 28.91547,13.59748c0,0 -5.4647,2.61637 -7.75122,4.49575c-2.65039,2.17847 -7.22129,7.81082 -7.22129,7.81082l-4.40539,-1.42857c0,0 3.29577,-5.50883 2.44421,-6.06384c-2.64432,-1.72345 -12.46769,-0.77103 -20.8199,1.12845c-6.9086,1.57117 -12.50786,3.72671 -12.50786,3.72671z" fill="#0f1b82" stroke="none" stroke-width="0"/><path d="M243.64068,211.67041c0,0 -0.77464,1.51327 -1.10806,2.34615c-1.74412,4.23686 -5.48086,8.08913 -8.15626,11.75851c-0.91054,1.45201 -3.12804,1.87771 -3.17596,-0.46705c-0.04597,-2.24847 2.75346,-6.15631 4.27484,-7.67002c2.0333,-2.53299 5.21632,-5.99723 8.41504,-7.10171l-0.24961,1.13412z" fill="#000000" stroke="none" stroke-width="0.5"/></g><g data-paper-data="{&quot;index&quot;:null}" stroke-linecap="butt"><g><path d="M246.17393,257.8036c0,0 -20.55239,-1.97686 -21.49749,-7.24615c-0.37784,-2.10669 -2.48682,-9.8102 1.09225,-12.19878c6.809,-4.54412 23.26186,-3.44883 34.55577,-3.44883c32.07917,0 44.33827,10.4028 51.07661,19.76584c2.70574,3.75969 -0.1428,10.07915 -4.39505,14.49084c-8.18302,8.48982 -44.30448,5.8074 -60.83209,-11.36291z" fill="#ab9efa" stroke="#000000" stroke-width="3"/><path d="M246.35567,256.87935c0,0 -15.32927,-1.11651 -18.94744,-4.7869c-5.51544,-5.59504 0.00622,-13.45564 12.68078,-13.45564c19.09646,0 41.09124,15.19433 46.64217,27.88871c0.55017,1.25819 1.08178,2.37936 1.60434,3.324c-0.78153,1.0927 -1.74289,2.1601 -3.04972,2.32096c-11.10936,1.36751 -24.84701,-5.98131 -24.84701,-5.98131c0,0 -7.08845,-3.84293 -9.68784,-5.5613c-1.75086,-1.15745 -4.39528,-3.74856 -4.39528,-3.74856z" fill="#9362ec" stroke="none" stroke-width="0"/></g><g><g><path d="M228.19047,243.25262c0,0 -0.73783,-12.91622 8.02896,-24.15503c0.95588,-1.22541 4.26409,-1.2425 7.46459,0.69855c3.95444,2.39829 7.71826,8.68206 7.71826,8.68206c0,0 11.94146,-8.701 15.68042,-8.701c4.69266,0 9.92262,-1.42883 14.29929,3.62493c0.80862,0.93372 -1.4958,2.9234 -0.63227,3.88141c3.99633,4.43366 9.4413,8.53366 13.03613,11.99713c11.93263,5.68671 15.45547,18.36687 9.7115,21.92755c-10.00489,6.20201 -29.42736,1.85402 -41.77743,-3.99455c-6.871,-3.25388 -9.90547,-8.07323 -11.3204,-8.73286c-2.51911,-1.17439 -6.79234,0.52504 -10.84187,-0.35062c-5.86061,-1.26728 -11.36714,-4.87763 -11.36714,-4.87763z" fill="#ae1c51" stroke="#000000" stroke-width="3"/><path d="M251.14999,231.14741c0,0 1.03312,-1.65212 1.6274,-2.53332c0.8984,-1.33217 3.75067,-4.17609 3.75067,-4.17609c0.06413,2.9467 2.51094,4.20454 2.51094,4.20454c0,0 17.94481,-2.68629 22.81446,6.77198c1.98322,3.85198 -1.31474,9.8139 -1.31474,9.8139c0,0 7.2802,3.4917 8.92903,7.97876c1.82142,4.95675 1.31419,9.63656 1.31419,9.63656c0,0 -4.94732,-0.30059 -9.37295,-1.02397c-3.85303,-0.62979 -6.96636,-1.05205 -10.45359,-2.00501c-3.61157,-0.98694 -7.96353,-2.9218 -11.762,-5.34595c-2.94748,-1.88105 -5.39188,-4.8997 -7.98097,-7.15567c-2.15484,-1.23225 -6.33793,-0.04293 -10.25033,-0.25549c-5.07503,-0.27574 -8.06303,-1.66052 -12.05464,-4.76825c-3.84832,-2.99618 1.30946,-12.22942 4.07367,-14.97507c1.31983,-1.31098 1.40634,-2.44607 2.18002,-3.98918c0.8467,-1.68873 2.37861,-3.75788 3.89158,-4.44048c1.68672,-0.76102 4.62173,-1.11393 4.62173,-1.11393l-2.35156,5.10166c0,0 4.96917,5.4797 6.82219,7.05341c0.95664,0.81244 3.00492,1.22161 3.00492,1.22161z" fill="#710c65" stroke="none" stroke-width="0"/><path d="M234.32241,231.23061c-0.27357,-0.2578 -0.52218,-0.69237 -0.25833,-1.34387c0.38926,-0.96112 1.25651,-0.8207 1.55826,-0.73815c1.14262,-0.66322 2.08503,0.57356 2.83705,1.65138c1.31841,1.88961 2.01914,4.64638 0.00702,5.24442c-2.49751,0.74233 -4.24235,-2.50955 -4.144,-4.81377z" fill="#000000" stroke="none" stroke-width="0.5"/></g><g><g><path d="M274.89955,248.53817c-2.79336,-1.1728 0.33698,-7.40425 5.50909,-10.80557c5.12744,-3.37196 12.33728,-3.54849 12.80284,0.07663c0.59856,4.66066 -1.77833,1.91587 -9.69912,4.3682c-5.92925,1.83573 -4.23521,8.19866 -8.61282,6.36072z" fill="#ab9efa" stroke="#000000" stroke-width="2.5"/><path d="M276.03053,247.61134c0,0 -1.62653,0.62006 -1.13511,-0.4662c0.19906,-0.44006 1.12533,-3.81575 1.66615,-4.53262c0.67595,-0.89598 1.6195,-1.57988 1.6195,-1.57988c0,0 1.35111,0.44854 1.74919,0.86418c0.38778,0.4049 0.09023,1.16778 0.09023,1.16778c0,0 -2.16643,4.54674 -3.98995,4.54674z" fill="#9362ec" stroke="none" stroke-width="0"/></g><g><path d="M265.82114,242.25404c-3.67607,-1.43469 -1.38688,-8.75074 6.12984,-10.80557c11.21342,-3.0654 16.30289,-0.59591 15.83494,2.2519c-0.31036,1.88882 -4.24549,-1.50913 -13.05352,2.93572c-6.94527,3.50483 -5.57226,6.92109 -8.91125,5.61796z" fill="#ab9efa" stroke="#000000" stroke-width="2.5"/><path d="M267.04274,241.94452c0,0 -1.78762,-0.68224 -1.75789,-2.36327c0.02568,-1.45132 1.11798,-4.57183 2.18227,-4.67137c0.74024,-0.06924 2.2704,-0.05495 3.08591,0.55745c1.0002,0.7511 0.66468,1.84213 0.66468,1.84213c0,0 -3.36714,3.51458 -4.17499,4.63508z" fill="#9362ec" stroke="none" stroke-width="0"/></g><g><path d="M257.3271,234.97419c0,-3.25899 3.96584,-10.11584 10.32957,-10.11584c4.35248,0 8.70423,-0.3617 9.98485,1.83246c2.1797,3.73462 -6.73022,2.31075 -10.91597,3.53198c-6.10303,1.78062 -9.39847,8.01035 -9.39847,4.75138z" fill="#ab9efa" stroke="#000000" stroke-width="2.5"/><path d="M258.48364,233.99514c0,0 1.04762,-2.73775 1.79787,-3.71221c0.58606,-0.76121 1.82189,-2.03375 1.82189,-2.03375l2.20673,1.63817l-5.82651,4.10779z" fill="#9362ec" stroke="none" stroke-width="0"/></g></g></g></g><g data-paper-data="{&quot;index&quot;:null}" stroke-linecap="butt"><path d="M263.46756,206.25417c0,0 -33.37966,-17.76419 -54.38713,7.13131c-10.17153,-4.12067 -23.24098,-38.57986 -23.24098,-38.57986l39.7748,-13.61493c0,0 4.70751,5.35246 6.99181,9.12376c2.79857,4.62037 8.57224,16.572 8.57224,16.572c0,0 17.211,8.45675 20.75226,11.53384c3.86085,3.35479 1.537,7.83387 1.537,7.83387z" fill="#ab9efa" stroke="#000000" stroke-width="3"/><path d="M220.27743,167.47488c0,0 -8.72107,1.40917 -17.95102,4.17025c-7.62359,2.28053 -16.70269,8.38394 -15.41452,8.0051c0.1251,-0.03679 -0.48544,-2.13744 -0.4324,-4.61529c0.02078,-0.96996 0.75365,-0.66687 2.40742,-1.29818c10.42711,-3.98041 33.77554,-9.85164 34.48794,-9.85164c6.23567,0 10.29149,11.16807 10.29149,11.16807c0,0 -1.85766,-2.19373 -9.09249,-4.78632c-5.86878,-2.10307 -4.29644,-2.79202 -4.29644,-2.79202z" fill="#9362ec" stroke="none" stroke-width="0"/><path d="M236.87403,191.48174c-2.08047,-2.59476 -4.99837,-4.73203 -8.31929,-6.18984c-0.2969,-0.13034 -4.12071,6.44515 -4.48168,6.31757c-0.69058,-0.24406 -4.09958,0.38321 -3.824,-1.63967c0.08189,-0.60117 4.78725,-5.85377 4.60783,-5.90529c-3.32829,-0.95546 -7.33654,-1.02255 -7.33654,-1.02255c0,0 -4.05028,0.03632 -4.50126,0.80308c-0.24078,0.4094 0.61389,0.72712 0.88548,1.11685c0.93161,1.33685 1.75059,2.38177 3.1837,3.22699c4.57056,2.0658 9.70073,4.57081 14.56969,5.66691c1.6473,0.37083 5.33286,0.23696 5.36031,-0.11489c0.06572,-0.84225 0.13779,-1.47311 -0.14424,-2.25919zM227.34986,181.34766c4.85461,1.5692 9.87346,5.40542 12.41297,8.73341c1.78785,4.86333 0.28039,7.09096 -4.8526,6.393c-5.9736,-0.81227 -13.41087,-3.27387 -18.87769,-5.76213c-1.89746,-1.14843 -7.53173,-5.33386 -6.54304,-8.03755c0.76804,-2.10029 6.19429,-2.08977 6.25987,-2.10958c0.16442,-0.12547 6.55283,-0.84875 11.60049,0.78285z" fill="#b4052c" stroke="none" stroke-width="0.5"/></g><path d="M202.03959,191.05799c0,-2.69848 0.89789,-2.85793 3.05002,-2.85793c2.15214,0 3.38873,0.07495 3.38873,2.77343c0,2.69848 -1.35651,6.57611 -1.35651,6.57611c0,0 -5.08223,-3.79313 -5.08223,-6.49161z" data-paper-data="{&quot;index&quot;:null}" fill="#9362ec" stroke="none" stroke-width="0" stroke-linecap="butt"/><g data-paper-data="{&quot;index&quot;:null}"><g><g stroke-linecap="butt"><path d="M148.98331,253.55139c0,-1.05694 1.70743,-3.5018 3.24894,-4.40348c1.26846,-0.74198 2.42456,-0.04914 2.42456,-0.04914c0,0 -1.867,4.44569 1.53271,7.39078c7.82691,6.78031 21.52799,17.05345 37.53916,17.05345c11.12801,0 17.54874,0.19667 23.10095,-7.1753c5.04439,-6.69772 9.59756,-21.16529 12.01372,-18.70315c0.5426,0.55292 2.0859,2.52914 1.84495,3.88853c-0.26243,1.48052 -2.36424,2.37726 -3.08195,3.69542c-0.60555,1.11221 0.98134,19.58454 -6.44108,23.56311c-12.02113,6.44358 -17.334,8.14856 -35.91163,4.92843c-25.54538,-4.42786 -36.27031,-13.59004 -36.27031,-30.18868z" fill="#ab9efa" stroke="#000000" stroke-width="3"/><path d="M150.29951,262.27528c0,0 18.35159,15.41327 40.60883,18.15093c33.6042,4.13333 35.12789,-10.239 35.12789,-10.239c0,0 -2.5688,13.652 -24.99643,13.652c-8.39832,0 -26.47118,-2.29444 -34.78255,-5.94131c-13.88403,-6.09204 -15.95773,-15.62263 -15.95773,-15.62263z" fill="#9362ec" stroke="none" stroke-width="0"/></g><g><g><path d="M151.88793,252.71682c4.05796,-8.79757 18.64216,-14.5888 18.64216,-14.5888c0,0 -10.84773,-0.8337 -9.34292,-1.77558c0.81763,-0.51177 -0.01034,-10.13578 3.14458,-9.20206c5.3629,1.58718 18.16298,3.48873 18.16298,3.48873c0,0 -3.0158,-8.90625 5.13559,-9.83811c10.35231,-1.18346 23.69775,0.29251 30.4833,2.54882c2.06216,0.68569 2.2908,3.25419 0.86854,6.46643c-1.80274,4.07157 -5.26816,10.24144 -5.26816,10.24144c0,0 5.31194,-8.75982 5.66197,-9.07171c2.41698,-2.15369 9.28997,-8.50749 12.72661,-6.18233c2.72266,1.84209 3.87869,10.16658 1.47079,14.05259c-0.59484,0.95995 -6.85947,6.18038 -8.84935,10.16494c-1.98458,3.97392 0.25171,11.41965 -2.00982,15.86354c-3.87884,7.62187 -13.05052,11.60371 -22.07271,11.60371c-24.10344,0 -52.71596,-15.18134 -48.75359,-23.77165z" fill="#ae1c51" stroke="#000000" stroke-width="3" stroke-linecap="butt"/><path d="M200.96996,235.83754c-2.04297,0 -17.33427,3.99714 -24.75895,3.85196c-1.94211,-0.038 -4.55357,-2.72812 -4.81751,-3.03965c-2.91079,-3.43562 -8.63664,-6.85475 -7.37965,-7.58126c7.18477,-4.15255 39.28947,-3.15976 39.28947,-3.15976c0,0 1.6852,2.91111 1.6852,6.0541c0,3.14297 -1.44121,3.87462 -4.01855,3.87462z" fill="#710c65" stroke="none" stroke-width="0" stroke-linecap="butt"/><path d="M166.10395,260.17859c0.51852,-0.73021 1.52447,-4.17595 23.4113,-0.69825c16.98105,2.69822 24.2751,9.36382 24.2751,9.36382l7.43255,-3.82229c0,0 -1.239,11.01139 -24.71408,10.28491c-5.80218,-0.17956 -19.59586,-3.9818 -29.38223,-8.61669c-7.69055,-3.6423 -12.12175,-7.84144 -12.84273,-8.99386c-2.96648,-4.74166 -0.10405,-8.67069 5.42197,-13.21458c0.01535,9.72676 5.74319,16.61924 6.39812,15.69696z" fill="#710c65" stroke="none" stroke-width="0" stroke-linecap="butt"/><path d="M226.89613,240.31758l4.01855,-4.11678" fill="none" stroke="#000000" stroke-width="2.5" stroke-linecap="round"/></g><g stroke-linecap="butt"><g><path d="M188.38882,247.91183c15.02881,0 22.10981,5.34043 22.10981,9.23371c0,3.89328 -6.23062,-2.48217 -21.25943,-2.48217c-15.02882,0 -19.77128,-3.55327 -19.77128,-3.87221c0,-1.70896 3.89209,-2.87933 18.9209,-2.87933z" fill="#f0f0f0" stroke="none" stroke-width="0"/><path d="M177.42503,238.85952c0,-3.81623 7.31843,-3.4214 19.53568,-3.4214c12.21726,0 19.39205,5.37457 19.39205,9.19078c0,3.81621 -8.03954,-3.57601 -20.25392,-3.82389c-13.22275,-0.26833 -18.67382,1.87072 -18.67382,-1.94549z" fill="#f0f0f0" stroke="none" stroke-width="0"/><path d="M173.75919,244.23444c0,-2.07482 5.54734,-3.29525 16.59385,-2.35605c16.43706,1.39753 23.84504,5.4388 23.84504,7.51363c0,2.07482 -12.51122,-1.74424 -22.98315,-1.74424c-10.47192,0 -17.45571,-1.33851 -17.45571,-3.41334z" fill="#f0f0f0" stroke="none" stroke-width="0"/><path d="M186.45138,251.09388c-0.86012,-0.27487 -5.9184,-3.09245 -8.08374,-7.00102c-1.81735,-3.28043 -0.083,-7.04448 -0.083,-7.04448c0,0 12.17797,-1.53654 16.71046,-1.22903c4.61975,0.31343 10.58021,1.36605 10.58021,1.36605c0,0 -14.0792,15.52061 -19.12393,13.90848z" fill="#db93e6" stroke="none" stroke-width="0"/><path d="M177.42503,238.85952c0,-3.81623 7.31843,-3.4214 19.53568,-3.4214c12.21726,0 19.39205,5.37457 19.39205,9.19078c0,3.81621 -8.03954,-3.57601 -20.25392,-3.82389c-13.22275,-0.26833 -18.67382,1.87072 -18.67382,-1.94549z" fill="#ab9efa" stroke="#000000" stroke-width="2.3"/></g><path d="M188.38882,247.91183c15.02881,0 22.10981,5.34043 22.10981,9.23371c0,3.89328 -6.23062,-2.48217 -21.25943,-2.48217c-15.02882,0 -19.77128,-3.55327 -19.77128,-3.87221c0,-1.70896 3.89209,-2.87933 18.9209,-2.87933z" fill="#ab9efa" stroke="#000000" stroke-width="2.3"/><path d="M173.75919,244.23444c0,-2.07482 5.54734,-3.29525 16.59385,-2.35605c16.43706,1.39753 23.84504,5.4388 23.84504,7.51363c0,2.07482 -12.51122,-1.74424 -22.98315,-1.74424c-10.47192,0 -17.45571,-1.33851 -17.45571,-3.41334z" fill="#ab9efa" stroke="#000000" stroke-width="2.3"/></g></g></g><path d="M216.12704,242.14895l-1.95093,-1.3985c0,0 5.00457,-8.04668 7.50695,-9.88626c1.41753,-1.20054 6.49315,-4.74952 6.49315,-4.74952l2.60882,4.87961z" fill="#710c65" stroke="none" stroke-width="0" stroke-linecap="butt"/></g><g data-paper-data="{&quot;index&quot;:null}" stroke-linecap="butt"><path d="M180.20034,212.64135c0,0 1.63156,-3.00653 2.73514,-4.4776c1.32988,-1.77277 4.69266,-5.42372 4.69266,-5.42372c0,0 -4.7235,-7.46954 -3.68134,-13.13464c0.70335,-3.82332 6.36622,-4.82556 8.59627,-4.82556c4.13309,0 6.2636,-1.14758 9.1208,3.45691c3.42601,5.52114 7.33618,15.62697 7.33618,21.76509c0,11.25716 -6.3395,10.99796 -15.42843,10.99796c-9.08894,0 -13.37129,-8.35846 -13.37129,-8.35846z" fill="#aa96c7" stroke="#000000" stroke-width="2.5"/><path d="M185.11086,191.78371c0.80742,-3.34043 6.2246,-6.56397 8.8281,-6.56397c1.76613,0 3.70776,0.34105 5.09981,1.72925c2.54166,2.53468 4.65473,8.00972 4.65473,8.00972c0,0 -3.4413,-2.84691 -8.87291,-1.96707c-3.40425,0.55144 -6.83392,4.21639 -7.63468,5.61293c-0.35803,0.62441 -2.39865,-5.48204 -2.07505,-6.82086z" fill="#c172b1" stroke="none" stroke-width="0"/></g><g data-paper-data="{&quot;index&quot;:null}" stroke="none" stroke-linecap="butt"><path d="M207.11094,189.50792c-0.00412,-0.01282 -5.09508,-2.62432 -7.42519,-2.62253c-2.65722,0.00204 -6.43902,-1.5059 -8.86366,-0.95928c-2.85013,0.64253 -4.31824,3.43483 -7.15463,4.69204c-0.97156,0.81321 -3.56179,4.13371 -5.02052,3.07005c-1.05463,-0.769 0.40439,-4.19363 0.61088,-5.01339c0.85758,-3.40464 2.02407,-5.08908 4.11719,-7.9582c1.47648,-2.02386 2.47383,-5.67603 5.32476,-5.78963c7.14388,0 16.17744,5.93503 19.39095,12.99835c0.08815,0.08056 1.28199,1.73314 0.57107,1.96963c-0.71093,0.2365 -1.55085,-0.38702 -1.55085,-0.38702z" fill="#ab9efa" stroke-width="0.5"/><path d="M185.72216,174.59944c0,0 1.76238,3.28611 1.29451,4.50888c-1.39403,3.64319 -6.67736,10.03308 -6.43024,11.70899c0.15577,1.05636 3.75999,-1.57928 4.68752,-2.3608c2.32522,-1.95917 4.20961,-3.83688 8.10493,-3.7772c14.14799,0.21678 15.69354,5.85284 15.69354,5.85284c0,0 -4.84754,-3.98728 -17.21402,-3.35996c-1.66816,0.08461 -11.15077,9.43122 -13.74774,8.75118c-0.88745,-0.2324 -1.46179,-0.7466 -1.43893,-1.46527c0.0767,-2.41232 1.18338,-6.88716 6.99324,-15.83654c2.03994,-3.14224 2.05721,-4.02213 2.05721,-4.02213z" fill="#000000" stroke-width="0"/></g><g data-paper-data="{&quot;index&quot;:null}" stroke-linecap="butt"><path d="M263.51902,139.78979c1.91678,6.82862 -9.32983,14.96729 -35.72351,27.50631c-12.89833,6.12769 -31.85956,8.48369 -41.91818,7.66538c-6.59905,-0.53686 -13.16405,-35.35499 -9.45373,-41.00707c9.74465,-14.84446 35.16898,-33.21569 52.1656,-30.75394c10.41442,1.50839 16.9119,22.57437 16.9119,22.57437c0,0 -0.27943,5.89926 1.87269,13.68391c3.82986,-1.36614 14.67378,-4.91106 16.14524,0.33101z" fill="#aa96c7" stroke="#000000" stroke-width="3"/><path d="M244.26052,134.79607c0,0 -24.00757,0.04541 -27.1009,2.02481c-0.03709,1.35704 4.79951,14.72769 4.27383,14.73522c-13.13175,0.18812 -17.59296,-0.74786 -17.59296,-0.74786l-2.14269,22.10349c0,0 -8.12842,-3.41889 -11.85254,-5.26936c-0.94773,-2.02716 0.60604,6.27574 0.60604,6.27574l-4.69578,-0.24648c0,0 -1.2078,-1.01052 -1.69881,-2.18764c-2.32811,-5.58121 -7.64792,-22.17872 -2.20343,-32.67236c6.34436,-12.22802 56.20277,-30.46582 56.20277,-30.46582c0,0 4.63928,12.46559 5.78104,17.33302c0.11614,3.6334 1.06192,9.25874 1.06192,9.25874z" fill="#c172b1" stroke="none" stroke-width="0"/></g><g data-paper-data="{&quot;index&quot;:null}" stroke="none" stroke-width="0" stroke-linecap="butt"><path d="M170.96871,222.72398c0,0 -0.3636,-6.02601 6.62949,-8.05641c1.99235,-0.57845 5.3222,0.49738 8.51928,0.49738c6.91474,0 9.52246,-6.25952 13.38326,-6.41352c4.1898,-0.16712 9.94544,5.46802 9.94544,5.46802c0,0 3.18233,3.52604 2.06563,4.41151c-1.25279,0.99339 -9.22115,1.26244 -9.22115,1.26244c0,0 -1.22255,7.8063 -4.41043,12.5863c-2.92173,4.3809 -7.06596,5.68399 -11.60159,5.68399c-14.41874,0 -15.30992,-15.43973 -15.30992,-15.43973z" fill="#0066cc"/><path d="M173.72871,218.75376c0,0 7.09848,12.33963 11.17131,13.08759c4.28592,0.78709 16.72227,-8.93279 16.72227,-8.93279c0,0 0.41816,5.60617 -2.83078,9.82498c-2.23729,2.90519 -7.12723,4.92452 -11.39356,4.92452c-5.98605,0 -13.9396,-8.03739 -16.20583,-13.25545c-1.69444,-3.90147 2.53658,-5.64883 2.53658,-5.64883z" fill="#0f1b82"/><path d="M177.75245,215.27868c-2.84679,1.20321 -6.69639,7.1364 -6.59654,7.45039c0.63229,1.98795 10.12551,14.20601 16.01605,14.46842c3.17682,0.14151 8.12935,-1.19848 11.43435,-6.42425c2.06907,-3.27154 3.01277,-11.0179 3.95588,-11.73773c1.61436,-1.23213 -0.24051,9.83219 -2.08871,12.96594c-3.14822,5.3381 -10.93645,10.31299 -15.79945,10.31299c-8.05263,0 -17.42834,-18.55552 -17.42834,-18.55552c0,0 0.38143,-2.44898 1.96985,-4.85044c1.5643,-2.36498 3.79711,-6.50884 5.45426,-7.91255c0.34548,-0.29263 2.50142,-0.98674 4.23974,-0.31536c2.34891,0.90721 5.44322,3.23577 8.67158,2.22375c4.15747,-1.30327 8.15156,-7.02128 12.39543,-6.77507c6.7644,0.39244 10.16693,8.71009 10.23068,8.68103c0.05472,-0.02494 -9.24906,-5.21067 -10.99896,-4.86867c-1.33,0.25994 -10.5218,6.87982 -12.22664,7.46402c-2.2867,0.78361 -7.37576,-2.91026 -9.22917,-2.12692z" fill="#000000"/></g><g data-paper-data="{&quot;index&quot;:null}" stroke-linecap="butt"><g><path d="M172.07958,165.52651c0,0 -6.27527,15.8785 -11.45665,21.4447c-3.59135,3.85808 -6.39322,16.29209 -8.32563,16.97032c-10.24761,3.59665 -12.81317,-11.3183 -8.13919,-21.38527c2.86884,-6.179 13.88035,-13.19801 13.88035,-13.19801z" fill="#0066cc" stroke="#000000" stroke-width="3"/><path d="M144.02004,192.37744c0,0 2.93132,-9.36283 10.18603,-14.41015c6.16025,-4.28588 7.46651,0.72156 8.85068,-1.25915c1.25072,-1.78976 1.60589,-2.62685 1.60589,-2.62685l1.78271,2.37878c0,0 -6.88192,11.26913 -9.23723,16.02631c-1.89044,3.81824 -3.80916,10.32427 -3.80916,10.32427c0,0 -7.43245,2.3514 -9.16413,0.42506c-1.1354,-1.26303 -0.2148,-10.85829 -0.2148,-10.85829z" fill="#0f1b82" stroke="none" stroke-width="0"/></g><g stroke="#000000"><path d="M242.85204,108.13486c0,0 -45.31776,32.40333 -52.22311,39.52132c-9.01013,9.28758 -17.69949,17.7391 -17.69949,17.7391c0,0 -12.70051,1.78178 -21.58997,-7.53679c-2.72144,-2.85281 -3.8502,-25.06818 -3.7584,-27.77882c0.2778,-8.2035 2.2229,-18.35667 10.07001,-27.49093c21.01981,-24.46764 56.61058,-29.82326 66.07352,-27.81793c3.02563,0.64118 8.41168,0.23936 10.93306,2.31664c4.41101,3.63407 5.08673,10.24373 5.08673,10.24373z" fill="#ae1c51" stroke-width="3"/><path d="M173.05124,167.63099c0,0 -22.33879,1.25025 -26.06888,-5.30944c-1.7056,-2.99944 -6.99325,-15.32864 -5.42118,-26.5942c1.92178,-13.77157 11.14329,-26.64521 12.9894,-27.54266c11.38982,-5.53695 39.15082,40.24569 39.15082,40.24569l-20.65016,19.20062z" fill="#710c65" stroke-width="1.5"/></g></g><g data-paper-data="{&quot;index&quot;:null}" stroke-linecap="butt"><path d="M153.41529,168.15298c-0.10574,-1.07582 11.13016,-2.06042 18.95181,-0.1177c4.49462,1.11635 6.78507,5.55659 8.56849,8.0107c1.36653,1.88048 0.24681,7.12715 -1.73817,9.42725c-3.18914,3.69542 -25.42018,-13.63773 -25.78213,-17.32026z" fill="#aa96c7" stroke="#000000" stroke-width="3"/><path d="M170.97206,181.61494c0,0 1.04195,-0.42717 2.01723,-2.1806c1.23356,-2.21779 2.83974,-8.29357 2.83974,-8.29357c0,0 3.43738,2.05707 4.10601,2.95079c0.91276,1.22004 0.29468,5.87727 -0.87123,8.78789c-0.63541,1.58623 -1.73045,1.89261 -1.83391,2.04323c-0.28294,0.41187 -6.25787,-3.30776 -6.25787,-3.30776z" fill="#c172b1" stroke="none" stroke-width="0"/><path d="M166.19542,172.58072c-0.34603,-0.48153 8.54265,-2.43318 9.01221,-1.16448c0.60606,1.63744 3.55145,9.10634 0.65585,8.86965c-1.18259,-0.09668 -8.03013,-5.42597 -9.66805,-7.70519z" fill="#c172b1" stroke="#000000" stroke-width="1.5"/></g><g data-paper-data="{&quot;index&quot;:null}" stroke-linecap="butt"><g data-paper-data="{&quot;index&quot;:null}"><path d="M196.68038,162.38517c-0.54346,2.55344 -7.69227,-3.21196 -8.03945,-2.51744c-0.22817,0.45647 -2.98575,5.14976 -4.76233,9.85208c-1.80579,4.77964 -6.68934,13.16022 -6.95109,12.96119c-0.14241,-0.1083 -4.9849,-14.73508 -4.41745,-16.34664c3.13304,-8.89795 25.27937,-24.67461 25.27937,-24.67461c0,0 -0.41062,17.44378 -1.10906,20.72541z" fill="#346def" stroke="#000000" stroke-width="3"/><path d="M191.6424,152.29454l4.55873,-7.88018l-0.61203,17.63207z" fill="#45afff" stroke="none" stroke-width="0"/></g><g data-paper-data="{&quot;index&quot;:null}"><path d="M272.94045,126.75257c0,0 -18.09211,-0.00682 -26.39419,1.35114c-0.87578,0.14325 0.75948,-3.47455 -0.68272,-3.36108c-7.96302,0.62651 -24.35248,4.46184 -32.22957,6.25218c-0.61937,0.14077 -2.13088,0.50181 -2.27756,1.07748c-0.76544,3.00402 4.51707,9.86497 2.70645,10.75082c-1.95822,0.95806 -4.49466,0.67013 -7.23186,-0.34436c-4.28108,-1.58669 -8.17492,-3.60701 -8.17492,-3.60701c0,0 2.09179,-12.38 -6.07064,-48.26011c3.46865,0.17339 12.29209,3.72172 15.9243,7.83914c3.29959,3.74037 4.00661,7.80053 4.3198,6.9095c3.11038,-8.849 11.89141,-19.15745 15.83289,-21.7959c4.09368,-2.74032 12.01235,6.43908 37.93039,9.05142c1.6397,1.03416 -9.24474,3.44821 -7.72955,4.39747c4.65728,2.91776 11.3917,5.66529 11.3917,5.66529c0,0 -13.40574,4.14132 -20.35132,8.94019c6.90754,0.67251 20.92672,11.73452 23.03678,15.13384z" fill="#45afff" stroke="#000000" stroke-width="3"/><path d="M246.27061,117.51927c6.38166,2.47556 20.5587,7.65681 20.5587,7.65681l-19.14749,1.34398c0,0 1.27649,-2.44066 -1.62406,-3.17029c-1.90681,-0.47965 -5.13556,0.48413 -10.1457,1.43875c-3.80147,0.72433 -20.27116,4.3445 -24.93937,5.5742c-0.77803,0.20495 -0.86688,1.614 -0.86688,1.614c0,0 -0.15117,2.4663 0.25542,3.779c0.59191,1.91108 2.66184,5.92917 2.66184,5.92917c0,0 -2.90817,0.43036 -4.60537,0.00668c-2.39793,-0.59861 -8.42115,-3.25859 -8.42115,-3.25859c0,0 0.05854,-3.47656 0.09358,-8.36582c0.06484,-9.04883 -2.57523,-25.80066 -6.04263,-37.82352c1.32876,1.07801 17.87784,23.88817 17.87784,23.88817c0,0 6.25762,-7.27737 11.98934,-13.35759c3.72833,-3.955 7.64901,-7.71483 8.06089,-7.57062c7.94846,-0.23388 25.76669,8.27083 25.76669,8.27083c0,0 -17.30354,4.88748 -22.07595,6.35983c-2.24075,0.6913 -5.26851,2.0763 -5.26851,2.0763c0,0 10.45954,3.50883 15.87281,5.60871z" fill="#346def" stroke="none" stroke-width="0"/></g></g><g data-paper-data="{&quot;index&quot;:null}"><path d="M298.72974,205.91556c3.08654,-3.48331 6.82133,-7.24478 10.34207,-3.92849c2.3455,2.20931 4.51117,6.43061 4.44461,10.41433c-0.03335,1.99605 -1.00666,4.36082 -2.03696,5.52354c-1.51434,1.70899 -3.74833,2.19624 -6.1884,1.72449c-2.53333,-0.48979 -5.27796,-2.00316 -7.07134,-3.69239c-3.52073,-3.3163 -2.57655,-6.55819 0.51,-10.04151z" fill="#2f429d" stroke="#000000" stroke-width="3" stroke-linecap="butt"/><path d="M261.12312,191.45836c2.58225,-5.69638 8.26753,-4.94276 14.42087,0.85325c6.15332,5.79601 9.22172,11.51262 5.34958,15.88251c-1.59088,1.7954 -6.60649,7.27952 -9.68301,4.72358c-5.2023,-4.32204 -1.20378,-8.53814 -2.27248,-9.51367c-3.03299,-2.76858 -10.12187,-6.85664 -7.81496,-11.94565z" fill="#c172b1" stroke="#000000" stroke-width="3" stroke-linecap="butt"/><path d="M272.47675,178.63965c7.78886,-8.79007 20.19732,-20.11145 29.19329,-12.18211c3.53484,3.11576 -0.02965,9.5781 1.28571,10.81707c3.36502,3.16962 6.72513,4.71967 7.12128,9.30498c0.19248,2.22768 -0.74762,3.39794 -0.33304,5.3796c0.84245,4.02696 4.00646,3.68612 4.00049,7.33105c-0.19136,1.13511 -3.9985,14.24098 -8.93438,17.41283c-5.93721,3.81532 -11.39168,2.60473 -14.32644,1.11766c-4.75826,-2.41108 -4.51973,-8.04724 -4.51973,-8.04724c0,0 -4.13591,-1.53279 -5.48933,-3.42377c-1.31685,-1.83987 -0.71382,-4.57423 -2.30271,-7.42651c-0.39357,-0.70649 -2.86847,1.58081 -5.91432,-1.84401c-6.6561,-7.48429 -3.19909,-14.58184 0.21918,-18.43951z" fill="#aa96c7" stroke="#000000" stroke-width="3" stroke-linecap="butt"/><path d="M288.73136,192.03928c0,0 0.12009,0.67054 -0.57362,2.44132c-0.57056,1.45639 -2.06748,3.8547 -1.3945,5.53207c0.33757,0.84132 3.17106,3.78025 4.56701,4.27669c1.0833,0.38523 2.16015,0.11129 2.42948,0.30838c1.33388,0.97609 6.63547,-4.02321 6.63547,-4.02321l2.98548,-0.58848c0,0 -3.23704,5.66351 -6.49723,9.64859c0.1768,3.47187 0.17754,5.83609 0.17754,5.83609l4.65023,1.58397c0,0 -2.08434,0.80315 -4.25524,0.89692c-0.94559,0.04085 -2.19788,-0.58951 -2.81605,-0.5821c-4.00086,0.04802 -7.15688,-2.60507 -7.43436,-6.7204c-0.0338,-0.50117 0.06242,-2.09675 -1.02553,-2.37623c-3.82185,-0.98175 -4.06692,-2.10996 -4.83232,-3.74708c-0.97347,-2.08219 -1.95777,-5.03124 -1.95777,-5.03124c0,0 0.51572,-0.99012 -0.15104,-1.38779c-0.85844,-0.51196 -2.61992,-0.11253 -4.05228,-0.55742c-0.59136,-0.18365 -1.08613,-1.14675 -1.50207,-1.37279c-0.91955,-0.49976 -2.06423,-2.06596 -2.55483,-3.20147c-0.4626,-1.07076 -0.29602,-1.71379 -0.34146,-2.16058c-0.17639,-1.73453 1.70971,-6.59366 3.67376,-6.87385c2.38381,-0.34007 4.95026,4.11206 4.95026,4.11206c0,0 0.17763,5.62189 2.48445,7.50338c1.73466,1.41483 6.83463,-3.51685 6.83463,-3.51685z" fill="#c172b1" stroke="none" stroke-width="0" stroke-linecap="butt"/><path d="M291.91136,186.0976c1.60644,-0.89822 4.20437,-0.88545 4.85795,-0.18462c0.30015,0.32184 -0.46335,1.39622 -0.46335,1.39622c0,0 -1.66893,-0.04744 -2.67849,0.59092c-1.11938,0.70776 -2.78762,2.2294 -3.84606,3.75192c-1.89411,2.72457 -3.5006,5.40704 -5.51821,6.76867c-1.79527,1.21159 -5.35666,2.33092 -5.35666,2.33092l-1.56604,-1.8904c0,0 3.85295,-2.03994 5.01638,-2.59287c1.62072,-0.77027 3.19171,-2.97305 4.21674,-4.4475c1.56531,-2.25163 3.51595,-4.70463 5.33774,-5.72326z" fill="#000000" stroke="none" stroke-width="0" stroke-linecap="butt"/><path d="M294.33203,204.50383c1.81229,-2.04525 3.47026,-4.48428 5.39598,-5.27393c1.69812,-0.6963 4.29511,-0.63033 4.86383,0.14518c0.26118,0.35615 -1.03086,1.69565 -1.03086,1.69565c0,0 -1.25974,-0.35291 -2.33536,0.15803c-1.1926,0.56651 -2.26744,2.06379 -3.49288,3.44676c-2.19296,2.47484 -4.85157,4.75344 -7.01104,5.85986c-1.92153,0.9845 -3.47928,0.9324 -3.47928,0.9324l-1.76209,-2.80195c0,0 2.3763,-0.09252 3.59494,-0.4999c1.69763,-0.56748 4.07,-2.32282 5.25676,-3.66213z" fill="#000000" stroke="none" stroke-width="0" stroke-linecap="butt"/><g fill="#2f429d" stroke-linecap="butt"><path d="M268.54911,169.8155c5.5921,-6.31096 13.40177,-8.34084 17.44342,-4.5339c4.04163,3.80695 2.78474,12.00912 -2.80736,18.32006c-5.59211,6.31093 -13.40179,8.34082 -17.44344,4.53388c-4.04163,-3.80695 -2.78473,-12.00912 2.80737,-18.32006z" stroke="#000000" stroke-width="3"/><path d="M282.68426,172.79808l2.32678,-7.23729c0,0 1.67404,3.43872 1.79285,5.0465c0.20067,3.37399 -1.36351,6.24851 -1.36351,6.24851z" stroke="none" stroke-width="0"/><path d="M279.36972,178.90432l1.61052,-2.69591c0,0 1.5598,1.17637 2.02903,1.67919c0.54942,0.58875 1.23599,1.95248 1.23599,1.95248l-2.37205,2.8267z" stroke="none" stroke-width="0"/></g><g><path d="M277.36659,178.41171c-7.71442,8.70608 -16.96175,8.85146 -25.40585,0.89769c-8.44409,-7.95375 -8.64029,-21.90538 -0.92586,-30.61146c7.71442,-8.70608 19.1574,-9.23886 27.6015,-1.28509c8.4441,7.95375 6.44465,22.29276 -1.26978,30.99884z" fill="#2f429d" stroke="#000000" stroke-width="3" stroke-linecap="butt"/><path d="M254.83019,146.85622c0,0 13.47259,-8.10266 20.86053,-1.14372c4.18948,3.94621 6.66832,10.13921 7.52151,15.75697c0.60785,4.00237 -0.31274,8.38052 -3.03961,11.4579c-5.60504,6.32555 -10.33043,6.00164 -17.71837,-0.9573c-3.68949,-3.47523 -6.24748,-9.9707 -6.87606,-15.53489c-0.63011,-5.57776 -0.74802,-9.57897 -0.74802,-9.57897z" fill="#2f429d" stroke="none" stroke-width="0" stroke-linecap="butt"/><path d="M278.29864,147.98559c0,0 1.98553,9.7546 -6.58927,20.15247c-8.64508,10.48307 -17.88777,10.24906 -17.88777,10.24906" fill="none" stroke="#000000" stroke-width="1.6" stroke-linecap="round"/><path d="M283.39856,156.1205c0,0 -1.99557,8.95017 -6.71539,16.21054c-6.80192,10.46316 -12.90289,11.31215 -12.90289,11.31215" fill="none" stroke="#000000" stroke-width="1.6" stroke-linecap="round"/><path d="M270.53171,143.20771c0,0 0.87494,9.21127 -7.13963,20.11778c-7.70857,10.4901 -13.21995,10.67232 -13.21995,10.67232" fill="none" stroke="#000000" stroke-width="1.6" stroke-linecap="round"/><path d="M248.31996,172.09455c0,0 2.00066,-9.09401 5.08087,-15.14977c4.05709,-7.97633 10.0193,-14.56651 10.0193,-14.56651" fill="none" stroke="#000000" stroke-width="1.6" stroke-linecap="round"/><path d="M273.3,180.7131c0,0 -7.80655,-0.89498 -17.03297,-8.90568c-8.60982,-7.47535 -8.5444,-15.18644 -8.5444,-15.18644" fill="none" stroke="#000000" stroke-width="1.6" stroke-linecap="round"/><path d="M250.13805,153.02698c0,0 3.9617,4.26072 8.93303,8.17262c4.37183,3.44016 9.64439,6.4359 12.03226,8.44201c2.83614,2.3827 7.0813,6.94806 7.0813,6.94806" fill="none" stroke="#000000" stroke-width="1.6" stroke-linecap="round"/><path d="M252.90754,148.33878c0,0 10.53999,1.65668 16.48492,6.94771c9.3308,8.30451 12.1487,17.16791 12.1487,17.16791" fill="none" stroke="#000000" stroke-width="1.6" stroke-linecap="round"/><path d="M258.022,143.95594c0,0 7.74426,0.84527 14.35177,5.26988c9.51509,6.37163 12.00418,12.73466 12.00418,12.73466" fill="none" stroke="#000000" stroke-width="1.6" stroke-linecap="round"/><path d="M272.28446,148.34847c-0.69472,-0.65439 -0.81197,-1.68811 -0.26192,-2.30888c0.55007,-0.62079 1.55917,-0.59354 2.25389,0.06085c0.69472,0.65439 0.81197,1.68811 0.26192,2.30888c-0.55007,0.62079 -1.55917,0.59354 -2.25389,-0.06085z" fill="#2f429d" stroke="none" stroke-width="0" stroke-linecap="butt"/><path d="M267.52775,145.29555c-0.34734,-0.32719 -0.37168,-0.88275 -0.05434,-1.24089c0.31734,-0.35812 0.85618,-0.38322 1.20354,-0.05603c0.34735,0.32718 0.37169,0.88274 0.05435,1.24088c-0.31735,0.35813 -0.85619,0.38323 -1.20355,0.05604z" fill="#2f429d" stroke="none" stroke-width="0" stroke-linecap="butt"/></g></g><g data-paper-data="{&quot;index&quot;:null}" stroke-linecap="butt"><path d="M229.44907,150.18714c-0.8387,-0.07181 -2.83626,-0.84512 -2.4773,-1.98428c0.64143,-2.03553 4.40234,-4.93648 4.40234,-4.93648c3.5493,-1.83753 7.0857,-2.73065 11.56971,-2.73065c4.33313,0 3.06307,3.04814 0.7579,5.20876c-2.48635,2.33044 -10.7549,4.74212 -14.25266,4.44265z" fill="#000000" stroke="none" stroke-width="0.5"/><path d="M197.1859,158.3398c0,0 4.01037,-7.92881 13.04053,-8.12089c1.7176,-0.03653 4.85969,-0.69339 5.92127,0.54488c0.94811,1.1059 -0.03426,4.03075 -0.858,5.36536c-0.59337,0.96136 -3.90849,1.7159 -5.00088,2.21784c-4.0341,1.85361 -8.1198,4.47795 -12.54737,4.08482c-1.07723,-0.09565 -1.96732,-3.26027 -0.55554,-4.09202z" fill="#000000" stroke="none" stroke-width="0.5"/><path d="M201.95597,167.41817c-0.30767,-1.20436 5.112,-5.30017 17.18042,-8.64273c12.06842,-3.34256 17.14661,-9.7548 20.91078,-4.70712c3.01174,4.03869 -16.0077,9.341 -27.02713,13.91821c-4.24986,1.76529 -8.86522,3.21536 -11.06406,-0.56836z" fill="#ac447e" stroke="#000000" stroke-width="3"/></g></g></g></svg>