<svg version="1.1" xmlns="http://www.w3.org/2000/svg" xmlns:xlink="http://www.w3.org/1999/xlink" width="306.30631" height="274.77477" viewBox="0,0,306.30631,274.77477"><g transform="translate(-86.84685,-42.61262)"><g data-paper-data="{&quot;isPaintingLayer&quot;:true}" fill-rule="nonzero" stroke-linecap="butt" stroke-linejoin="miter" stroke-miterlimit="10" stroke-dasharray="" stroke-dashoffset="0" style="mix-blend-mode: normal"><path d="M86.84686,317.38739v-274.77477h306.30631v274.77477z" data-paper-data="{&quot;index&quot;:null}" fill="none" stroke="none" stroke-width="0"/><text transform="translate(271.55605,110.72267) rotate(-180) scale(0.1602,-0.1602)" font-size="40" xml:space="preserve" data-paper-data="{&quot;index&quot;:null}" fill="#000000" fill-rule="nonzero" stroke="none" stroke-width="1" stroke-linecap="butt" stroke-linejoin="miter" stroke-miterlimit="10" stroke-dasharray="" stroke-dashoffset="0" font-family="Sans Serif" font-weight="normal" text-anchor="start" style="mix-blend-mode: normal"><tspan x="0" dy="0">AwezomeXD</tspan><tspan x="0" dy="46.150000000000006px"> </tspan><tspan x="0" dy="46.150000000000006px">MeIzAwezomeDede</tspan></text><g data-paper-data="{&quot;index&quot;:null}"><g><g><g><path d="M198.46777,137.81891c0,0 -7.05135,-9.88476 -1.27065,-16.91555c4.1034,-4.99076 20.65741,-5.638 30.65463,-10.36148c11.36453,-5.36951 32.39733,-16.39725 32.39733,-16.39725c0,0 6.00658,1.00412 7.82363,0.22367c2.26878,-0.97449 3.38283,-5.07404 3.38283,-5.07404c0,0 1.98063,3.66352 2.94486,6.88216c3.63188,12.12345 -5.69605,15.50038 -5.69605,15.50038c0,0 5.60258,4.06861 7.1966,8.06216c1.67559,4.19797 -0.95082,7.73054 -0.95082,7.73054c0,0 3.51787,2.46718 4.87134,5.79863c0.89351,2.1993 1.73507,6.03848 2.22714,8.4438c0.83976,4.10465 9.18344,5.41537 9.18344,5.41537c0,0 -2.64642,4.42344 -5.08441,5.85612c-2.48148,1.45824 -9.45231,0.76868 -9.45231,0.76868c0,0 -2.10709,1.44296 -1.6137,4.26799c0.15553,0.89054 1.09791,2.72698 1.54885,3.5642c1.52104,2.82397 0.42364,5.60543 0.42364,5.60543c0,0 -2.59651,-2.73942 -3.64205,-3.27635c-0.76736,-0.39408 -1.40017,-0.37193 -1.40017,-0.37193c0,0 0.13666,4.55495 1.32744,6.76827c2.64856,4.9229 6.84543,10.69759 5.70945,11.25274c-2.05407,1.00378 -5.87254,-1.79604 -8.45942,-1.31093c-2.38098,0.44651 -6.81414,-4.75504 -6.81414,-4.75504c0,0 0.42322,7.07366 -1.96569,8.83113c-2.3182,1.7055 -2.12418,7.10853 -3.18042,7.61744c-3.85035,1.85514 -12.77394,-8.73219 -12.77394,-8.73219c0,0 -8.60051,12.05427 -12.09356,10.62829c-4.12264,-1.68302 -10.41568,-16.30536 -10.41568,-16.30536c0,0 -6.74448,-2.49044 -8.09827,-5.01057c-3.04036,-5.65976 -1.73531,-11.46755 -1.73531,-11.46755c0,0 -2.91432,1.39642 -4.01554,3.0237c-1.1705,1.72966 -2.81234,7.06585 -2.81234,7.06585c0,0 -3.04823,-4.86149 -3.52682,-7.54393c-0.50329,-2.8209 0.57748,-8.98703 0.57748,-8.98703c0,0 -5.64542,-1.7923 -9.16689,-6.08069c-1.88736,-2.29837 -3.0689,-8.25809 -3.0689,-8.25809c0,0 5.30425,2.28034 7.15752,2.22304c1.43762,-0.04446 0.46327,-2.89674 0.46327,-2.89674z" fill="#6d0f0a" stroke="#000000" stroke-width="2"/><path d="M188.27529,116.92584c-0.87364,-5.47929 1.08218,-13.47204 2.07892,-18.86335c1.41257,-7.6403 8.30434,-13.55636 14.83068,-16.63992c8.57933,-4.05356 18.09606,2.39678 18.09606,2.39678c0,0 7.62948,-7.3808 15.01161,-8.47641c7.13176,-1.05847 14.60129,4.55189 16.58722,5.8907c3.02547,2.03961 9.73578,14.2901 9.73578,14.2901c0,0 -17.38767,30.30957 -30.98553,36.73425c-14.52663,6.86351 -30.64924,-5.09092 -34.95469,-0.33663c-1.51492,1.67285 -2.97958,1.26499 -2.97958,1.26499c0,0 -5.80671,-6.13955 -7.42047,-16.26051z" fill="#6d0f0a" stroke="#000000" stroke-width="2"/><path d="M190.06313,103.26075c0,0 0.86172,-3.69413 1.41191,-5.37127c0.52492,-1.60007 1.81694,-4.47131 1.81694,-4.47131c0,0 9.91552,2.74401 14.50757,2.48247c4.81206,-0.27407 11.24629,-4.89911 11.24629,-4.89911c0,0 0.87062,2.15098 1.44246,2.94251c0.60458,0.83686 1.66286,2.15313 1.66286,2.15313c0,0 0.48645,-2.16636 0.51247,-3.01852c0.02811,-0.92041 -0.05546,-2.80414 -0.05546,-2.80414c0,0 2.94608,2.90228 4.18392,3.93381c1.01367,0.84474 2.70591,1.80765 2.70591,1.80765c0,0 -0.81965,-1.97004 -1.32195,-2.96259c-0.53182,-1.05084 -1.78548,-3.17754 -1.78548,-3.17754c0,0 10.44786,0.66111 16.55238,0.05393c0.12256,-0.01219 4.39047,-1.76535 4.72456,-1.85099c7.18338,-1.84152 1.49084,-9.63625 1.49084,-9.63625c0,0 3.87343,2.19403 6.01591,4.63089c2.17299,2.47157 6.93176,10.09589 6.93176,10.09589c0,0 -6.09899,-0.96693 -10.95755,0.41899c-0.86213,0.24593 -10.03717,3.42024 -10.03717,3.42024c0,0 -2.12211,-1.47384 -3.17095,-2.02531c-1.02779,-0.5404 -3.06018,-1.25097 -3.06018,-1.25097c0,0 -0.42354,2.17764 -0.54521,3.46621c-0.14622,1.54808 -0.27197,5.18738 -0.27197,5.18738c0,0 -1.5181,-1.40788 -2.49435,-2.09637c-1.08607,-0.76596 -3.72771,-2.29188 -3.72771,-2.29188c0,0 -1.05237,0.91663 -1.54207,1.63497c-0.67982,0.99722 -2.15705,3.79111 -2.15705,3.79111c0,0 -1.78503,-2.37999 -2.7123,-3.38487c-0.80226,-0.86942 -2.53082,-2.29718 -2.53082,-2.29718c0,0 -1.09638,1.66873 -1.61668,2.69354c-0.64927,1.27885 -1.9785,4.38751 -1.9785,4.38751c0,0 -9.66978,-4.68415 -14.00724,-4.95255c-4.0573,-0.25109 -11.23317,3.39067 -11.23317,3.39067z" fill="#c42d06" stroke="none" stroke-width="0"/></g><path d="M221.63352,140.29131c0,0 -19.3691,0.80241 -20.20628,-0.3984c-0.14522,-0.20831 -0.62878,-9.21289 -1.15472,-9.95073c-0.96069,-1.34774 -4.6799,1.27024 -4.6799,1.27024c0,0 56.72542,-30.79852 65.76026,-35.2313c2.3017,-1.1293 5.622,0.21442 5.622,0.21442l-4.14404,22.0503z" fill="#6d0f0a" stroke="none" stroke-width="NaN"/></g><path d="M224.8851,84.57835c0,0 -4.6074,-0.13055 -4.9835,-5.94047c-0.01982,-0.30612 0.18998,-1.64279 0.3104,-1.96502c0.92278,-2.4692 5.48098,-4.44619 5.48098,-4.44619c0,0 -1.30801,5.32535 -1.71274,7.12832c-0.36074,1.60704 0.90486,5.22337 0.90486,5.22337z" fill="#6d0f0a" stroke="#000000" stroke-width="1.5"/><path d="M216.09773,76.18403c0,0 1.62821,0.51085 2.63409,1.99252c0.67387,0.67254 1.90105,3.28378 1.90105,3.28378l-2.14107,-0.38585z" fill="#000000" stroke="none" stroke-width="0"/></g><path d="M223.582,83.48156l3.54537,-1.29743c0,0 -1.21526,5.08684 -1.64593,5.41883c-0.60292,0.46479 -4.83601,-3.67252 -4.83601,-3.67252z" fill="#6d0f0a" stroke="none" stroke-width="0"/></g><g data-paper-data="{&quot;index&quot;:null}"><text transform="translate(294.68338,229.00289) rotate(-180) scale(0.27921,-0.27921)" font-size="40" xml:space="preserve" fill="#000000" fill-rule="nonzero" stroke="none" stroke-width="1" stroke-linecap="butt" stroke-linejoin="miter" stroke-miterlimit="10" stroke-dasharray="" stroke-dashoffset="0" font-family="Sans Serif" font-weight="normal" text-anchor="start" style="mix-blend-mode: normal"><tspan x="0" dy="0">AwezomeXD</tspan><tspan x="0" dy="46.150000000000006px"> </tspan><tspan x="0" dy="46.150000000000006px">MeIzAwezomeDede</tspan></text><g data-paper-data="{&quot;index&quot;:null}"><g><path d="M304.61432,280.7271c-0.97394,-0.3343 -2.81981,-1.05375 -2.81981,-1.05375l2.00112,-62.99775c0,0 3.12264,-3.42551 4.77674,-5.10754c1.78782,-1.81801 6.83093,-5.9246 6.83093,-5.9246c0,0 5.94054,0.17965 11.08569,1.75457c7.39586,2.26385 29.04162,10.52827 29.04162,10.52827c0,0 -0.29139,23.00613 -1.11993,33.98866c-0.74728,9.90532 -3.63272,29.00908 -3.63272,29.00908c0,0 -14.3168,1.48011 -21.61682,1.59314c-7.15813,0.11083 -21.76596,-0.92143 -21.76596,-0.92143c0,0 -1.89659,-0.56514 -2.78087,-0.86866z" fill="#434253" stroke="#000000" stroke-width="2.5"/><path d="M306.04173,281.58894c0,0 3.19421,-16.34268 5.26935,-30.13714c1.48339,-9.86081 2.04443,-18.33187 2.06476,-19.00203c0.15509,-5.11269 -0.3723,-9.50368 -0.00091,-14.70459c0.49814,-6.97594 1.18056,-11.43244 1.18056,-11.43244l2.10035,-1.22928c0,0 -1.17975,18.14658 -2.93073,35.27697c-0.73182,7.15966 -2.77258,22.22022 -3.75528,31.64788c-0.10799,1.03599 0.50491,2.39047 0.4064,3.33489c-0.55015,5.27458 -0.93311,6.24975 -0.93311,6.24975l-3.40139,-0.00403z" fill="#000000" stroke="none" stroke-width="0"/></g><g stroke="#000000" stroke-width="1.5"><path d="M345.29833,263.35312c0.94113,9.66742 -4.93088,16.17699 -12.88074,16.95092c-7.94986,0.77393 -14.77082,-5.25083 -14.91119,-14.96294c-0.15638,-10.82018 5.8426,-16.14324 12.54261,-16.73861c6.71115,-0.59636 14.44659,6.50489 15.24932,14.75063z" fill="#2c262f"/><path d="M323.67438,268.45714c-0.26544,-2.72671 1.31874,-5.06632 3.56101,-5.2846c2.24227,-0.21828 3.76096,1.25807 4.0264,3.98478c0.26545,2.72671 -1.3891,5.14677 -3.63137,5.36505c-2.24227,0.21828 -3.69059,-1.33852 -3.95603,-4.06523z" data-paper-data="{&quot;index&quot;:null}" fill="#1b171c"/></g><g stroke="#000000" stroke-width="1.5"><path d="M334.90073,214.22597c6.72176,-0.46163 14.18059,7.06601 14.65957,15.33688c0.56156,9.69688 -5.56103,15.97134 -13.53511,16.43313c-7.97408,0.46179 -14.55372,-5.82563 -14.31338,-15.53578c0.26776,-10.81801 6.4647,-15.77245 13.18893,-16.23424z" fill="#2c262f"/><path d="M327.75296,233.81557c-0.15839,-2.73501 1.51626,-5.01074 3.76536,-5.14099c2.2491,-0.13025 3.70876,1.40448 3.86715,4.1395c0.15839,2.73502 -1.58973,5.08838 -3.83883,5.21863c-2.2491,0.13025 -3.6353,-1.48212 -3.79369,-4.21714z" data-paper-data="{&quot;index&quot;:null}" fill="#1b171c"/></g></g><g><g><path d="M178.20551,279.8001c0,0 -1.84588,0.71945 -2.81982,1.05375c-0.88428,0.30352 -2.78086,0.86866 -2.78086,0.86866c0,0 -14.60784,1.03226 -21.76596,0.92143c-7.30001,-0.11302 -21.61681,-1.59314 -21.61681,-1.59314c0,0 -2.88544,-19.10377 -3.63272,-29.00909c-0.82854,-10.98252 -1.11993,-33.98866 -1.11993,-33.98866c0,0 21.64575,-8.26442 29.04162,-10.52827c5.14515,-1.57491 11.08569,-1.75457 11.08569,-1.75457c0,0 5.04312,4.1066 6.83094,5.9246c1.6541,1.68203 4.77674,5.10754 4.77674,5.10754l2.00112,62.99775z" fill="#434253" stroke="#000000" stroke-width="2.5"/><path d="M173.95828,281.71567l-3.40139,0.00403c0,0 -0.38295,-0.97517 -0.93311,-6.24976c-0.0985,-0.94441 0.51439,-2.2989 0.40641,-3.33488c-0.98271,-9.42766 -3.02346,-24.48823 -3.75529,-31.64789c-1.75097,-17.13039 -2.93073,-35.27697 -2.93073,-35.27697l2.10035,1.22928c0,0 0.68243,4.4565 1.18057,11.43244c0.37139,5.20091 -0.156,9.59191 -0.00092,14.70459c0.02033,0.67016 0.58138,9.14123 2.06477,19.00203c2.07514,13.79446 5.26935,30.13713 5.26935,30.13713z" fill="#000000" stroke="none" stroke-width="0"/></g><g stroke="#000000" stroke-width="1.5"><path d="M134.70169,263.47986c0.80273,-8.24574 8.53818,-15.34698 15.24933,-14.75062c6.70001,0.59537 12.69899,5.91843 12.54261,16.73861c-0.14037,9.71211 -6.96134,15.73687 -14.9112,14.96294c-7.94986,-0.77392 -13.82187,-7.2835 -12.88074,-16.95092z" fill="#2c262f"/><path d="M152.76464,263.29932c2.24227,0.21828 3.82645,2.55788 3.56101,5.28459c-0.26545,2.72671 -1.71376,4.28351 -3.95603,4.06523c-2.24227,-0.21829 -3.89681,-2.63834 -3.63137,-5.36505c0.26544,-2.72671 1.78413,-4.20306 4.0264,-3.98478z" data-paper-data="{&quot;index&quot;:null}" fill="#1b171c"/></g><g stroke="#000000" stroke-width="1.5"><path d="M130.43973,229.6896c0.47898,-8.27087 7.9378,-15.79851 14.65956,-15.33689c6.72423,0.46179 12.92117,5.41624 13.18893,16.23424c0.24034,9.71016 -6.33929,15.99758 -14.31338,15.53579c-7.97409,-0.46179 -14.09668,-6.73625 -13.53512,-16.43313z" fill="#2c262f"/><path d="M152.24708,233.94232c-0.15839,2.73501 -1.54458,4.34738 -3.79368,4.21713c-2.2491,-0.13025 -3.99721,-2.48361 -3.83882,-5.21863c0.15839,-2.73501 1.61804,-4.26975 3.86714,-4.1395c2.2491,0.13025 3.92375,2.40598 3.76536,5.141z" data-paper-data="{&quot;index&quot;:null}" fill="#1b171c"/></g></g><g stroke="#000000"><g fill="#434253"><path d="M302.93638,282.15581c0,0 -39.39406,0.31655 -59.64769,0.31655c-21.72904,0 -66.6118,-0.31655 -66.6118,-0.31655c0,0 -2.38216,-40.33861 -2.16309,-60.75635c0.20152,-18.78125 2.16309,-54.08575 2.16309,-54.08575c0,0 42.82931,-1.2662 64.39595,-1.2662c21.14461,0 59.33114,1.58275 59.33114,1.58275c0,0 4.66352,44.84767 4.63123,67.07726c-0.03994,25.54257 -2.09882,47.44828 -2.09882,47.44828z" stroke-width="2.5"/><path d="M182.62638,273.74782c1.29409,0 2.34316,0.94416 2.34316,2.10884c0,1.16468 -1.04906,2.10884 -2.34316,2.10884c-1.29409,0 -2.34316,-0.94416 -2.34316,-2.10884c0,-1.16468 1.04906,-2.10884 2.34316,-2.10884z" stroke-width="2"/><path d="M296.08664,273.11069c1.29409,0 2.34316,0.94416 2.34316,2.10884c0,1.16468 -1.04907,2.10884 -2.34316,2.10884c-1.29409,0 -2.34316,-0.94416 -2.34316,-2.10884c0,-1.16468 1.04907,-2.10884 2.34316,-2.10884z" stroke-width="2"/><path d="M291.83152,175.44761c-0.48529,-1.12251 0.08425,-2.44878 1.27209,-2.9623c1.18785,-0.51352 2.54417,-0.01985 3.02946,1.10266c0.48528,1.12251 -0.08426,2.44879 -1.2721,2.96231c-1.18785,0.51352 -2.54417,0.01984 -3.02946,-1.10267z" stroke-width="2"/><path d="M180.91757,172.05907c1.18784,-0.51352 2.54418,-0.01985 3.02946,1.10266c0.48528,1.12251 -0.08426,2.44879 -1.2721,2.96231c-1.18784,0.51352 -2.54417,0.01984 -3.02945,-1.10267c-0.48528,-1.12251 0.08425,-2.44878 1.27209,-2.9623z" stroke-width="2"/></g><g><path d="M187.36313,208.89733c-2.36044,-6.40232 -2.14847,-24.22034 1.17777,-27.70117c8.80798,-9.21732 26.01104,-9.48636 48.15555,-9.48636c20.7312,0 40.80646,1.21551 50.19223,9.11804c4.42593,3.72649 4.09175,24.72433 0.61728,30.38921c-5.21713,8.50616 -20.51325,11.67052 -51.0204,11.67052c-30.50715,0 -45.72795,-4.44989 -49.12243,-13.65691z" fill="#434253" stroke-width="2"/><path d="M191.46433,207.31699c-2.1792,-5.67588 -1.98352,-21.47217 1.08734,-24.55804c8.13172,-8.17147 24.01396,-7.77733 44.45825,-7.77733c19.1395,0 37.67343,0.44494 46.33857,7.45081c4.08612,3.30367 3.77759,21.91897 0.56988,26.94108c-4.81657,7.54101 -18.93828,9.50278 -47.10314,9.50278c-28.16487,0 -42.21704,-3.39695 -45.3509,-11.55929z" fill="#2c262f" stroke-width="1.5"/><path d="M216.73026,204.30871c-0.84859,-2.4182 -0.77238,-9.14817 0.42343,-10.4629c3.16654,-3.48144 9.35117,-4.21571 17.31229,-4.21571c7.45303,0 14.67023,1.09175 18.04449,4.07659c1.59116,1.40752 1.47102,9.33853 0.22192,11.47819c-1.8756,3.21283 -7.37467,4.61891 -18.34223,4.61891c-10.96755,0 -16.43956,-1.85087 -17.65989,-5.32841z" fill="#1b171c" stroke-width="1.5"/></g><g><path d="M187.36313,264.28152c-2.36044,-6.40232 -2.14847,-24.22034 1.17777,-27.70116c8.80798,-9.21732 26.01104,-9.48637 48.15555,-9.48637c20.7312,0 40.80646,1.21551 50.19223,9.11804c4.42593,3.7265 4.09175,24.72433 0.61728,30.38921c-5.21713,8.50616 -20.51325,11.67052 -51.0204,11.67052c-30.50715,0 -45.72795,-4.4499 -49.12243,-13.65692z" fill="#434253" stroke-width="2"/><path d="M191.46433,262.70116c-2.1792,-5.67588 -1.98352,-21.47217 1.08734,-24.55804c8.13172,-8.17147 24.01396,-7.77734 44.45825,-7.77734c19.1395,0 37.67343,0.44494 46.33857,7.45081c4.08612,3.30367 3.77759,21.91898 0.56988,26.94109c-4.81657,7.54101 -18.93828,9.50278 -47.10314,9.50278c-28.16487,0 -42.21704,-3.39695 -45.3509,-11.55929z" fill="#2c262f" stroke-width="1.5"/><path d="M216.73026,259.6929c-0.84859,-2.41819 -0.77238,-9.14816 0.42343,-10.46289c3.16654,-3.48144 9.35117,-4.21571 17.31229,-4.21571c7.45303,0 14.67023,1.09175 18.04449,4.07659c1.59116,1.40752 1.47102,9.33852 0.22192,11.47818c-1.8756,3.21283 -7.37467,4.61891 -18.34223,4.61891c-10.96755,0 -16.43956,-1.85087 -17.65989,-5.32842z" fill="#1b171c" stroke-width="1.5"/></g></g></g><g data-paper-data="{&quot;index&quot;:null}"><g><path d="M252.16762,159.43963c0,-4.62307 -8.49349,-15.53073 -3.81415,-15.53073c1.22311,0 4.42917,2.33459 7.50057,4.85516c1.45091,1.19071 3.6139,2.34172 4.58125,3.77227c0.88905,1.31474 0.7777,2.94412 0.88451,3.34049c0.14147,0.52495 1.05985,2.14097 1.05985,2.14097c0,0 1.84337,1.97795 5.26166,3.90074c2.29844,1.29287 4.24006,0.66077 6.60772,2.01002c1.51083,0.86098 5.14264,2.7213 3.87369,4.97488c-0.18155,0.32243 -5.12328,0.24975 -5.12328,0.24975c0,0 -1.38722,1.6276 -2.62457,2.04842c-3.22468,1.09671 -5.31061,-1.08587 -6.12042,-1.03821c-2.60434,0.15328 -6.72809,-0.10553 -6.72809,-0.10553c0,0 -0.42924,-0.10557 -1.69069,-0.80571c-5.24365,-2.91039 -3.66807,-7.69547 -3.66807,-9.81253z" fill="#ffd5d5" stroke="#000000" stroke-width="1.5"/><path d="M253.53371,166.12694c0,0 7.29249,1.48578 9.95463,0.65935c0.10511,-0.03263 1.09316,-0.82199 2.45582,-1.24686c1.14308,-0.35642 2.65331,-0.36275 3.11935,-0.36185c1.17977,0.00229 1.61032,1.90079 2.6201,1.90079c4.07091,0 5.01291,-0.51035 5.01291,-0.51035c0,0 0.55455,0.54917 0.7437,1.15381c0.13495,0.43135 0.02675,0.94264 -0.34109,1.06756c-1.40247,0.47629 -4.79414,0.20759 -4.79414,0.20759c0,0 -1.74358,1.7083 -2.55079,1.73805c-5.38363,0.19843 -4.37217,-1.18226 -5.3204,-1.18226c-3.65815,0 -5.80336,-0.08543 -7.05371,-0.35945c-0.17574,-0.03852 -1.31715,-0.5453 -2.08868,-1.13084c-1.11479,-0.84606 -1.75769,-1.93553 -1.75769,-1.93553z" fill="#fb95a9" stroke="none" stroke-width="0"/><path d="M268.15103,164.66677c0.72444,-0.08172 2.87061,-0.06303 3.75169,0.94108c1.15746,1.3191 0.97693,3.72747 0.97693,3.72747l-2.0916,1.52047c0,0 0.81471,-4.96196 -1.7831,-4.96196c-2.09043,0 -4.71675,0.21059 -4.71675,0.21059c0,0 1.56303,-1.17823 3.86283,-1.43765z" fill="#000000" stroke="none" stroke-width="0"/><path d="M263.39455,158.87903l-0.13974,3.79055l-2.58548,-6.19124z" fill="#000000" stroke="none" stroke-width="0"/></g><path d="M245.01512,140.84214c0,-3.1402 -3.20727,-10.10814 -0.69876,-10.10814c2.50852,0 8.05046,-0.70437 8.05046,2.43583c0,1.6451 3.015,8.01008 2.76204,11.02958c-0.2299,2.74415 0.86347,4.53972 -0.33085,4.53972c-2.50851,0 -9.78288,-4.75679 -9.78288,-7.89699z" fill="#fb95a9" stroke="#000000" stroke-width="2"/></g><g data-paper-data="{&quot;index&quot;:null}"><path d="M228.18002,131.62588c2.41131,-2.95149 10.53162,-0.25987 12.59919,3.86227c0.26008,0.51854 1.70637,-0.66733 5.40284,0.98163c0.86997,0.38809 5.3323,2.85511 7.98427,6.04894c1.26983,1.52929 2.1246,3.99593 1.97118,5.03194c-0.22905,2.80784 -2.67033,5.18657 -4.85989,7.14774c-2.87249,2.57284 1.75248,7.33006 -2.40533,7.33006c-3.03121,0 -16.54137,0.60747 -18.69314,-0.7284c-1.28409,-0.79719 -0.53199,-7.61244 -0.88049,-9.01861c-0.48674,-1.96396 -4.99822,-4.40189 -4.99822,-6.61256c0,-2.58633 2.29137,-12.099 3.87959,-14.04301z" fill="#ee1536" stroke="#000000" stroke-width="2"/><path d="M244.29202,151.81498c0,-3.14019 3.56399,-6.94934 7.26523,-7.10728c3.22449,-0.13759 3.97211,2.15654 3.0535,5.15937c-1.10558,3.61402 -4.40634,5.42259 -7.63376,5.42259c-0.06272,0 2.08362,-1.58996 2.84464,-0.28992c1.01358,1.73146 0.66979,6.51156 0.03616,6.86773c-2.98614,1.67855 -13.402,-0.74155 -16.31172,-0.67209c-0.60085,0.01435 -2.90823,0.59035 -3.45604,-1.26733c-0.44915,-1.5231 0.38106,-5.65028 0.34354,-5.65555c-0.60286,-0.08461 -1.36799,-4.06688 -1.36799,-4.06688c0,0 -2.86476,-2.27685 -2.9505,-2.85725c-0.15338,-1.03828 2.10836,-2.8435 2.10836,-2.8435c0,0 1.25189,1.00644 1.97555,1.57762c0.66583,0.52553 1.57561,2.98741 1.57561,2.98741c0,0 4.12841,-5.5717 8.29185,-4.21031c5.58397,1.82588 4.22558,7.21129 4.22558,6.95539z" fill="#9a1652" stroke="none" stroke-width="0"/><path d="M230.80236,160.80496c0.86132,-1.55025 8.52088,-5.58592 9.70316,-7.17085c2.60911,-3.4977 4.57621,-6.08348 4.57621,-6.08348c0,0 0.91108,5.32297 -0.66029,9.58239c-1.16307,3.15265 6.61433,5.47453 5.8723,5.47453c-1.74455,0 -20.27813,-0.38656 -19.49138,-1.80259z" fill="#000000" stroke="none" stroke-width="0"/></g><g data-paper-data="{&quot;index&quot;:null}"><path d="M219.65373,138.5779c0.8478,-4.00178 1.05969,-6.20696 6.00865,-5.89108c3.43927,0.21953 5.83687,5.53997 5.6375,9.63432c-0.21476,4.36977 -3.06549,5.46494 -5.22987,10.17868c-0.32418,0.44398 -0.41178,3.26813 -0.38937,5.30495c0.00209,0.18978 -0.33717,0.62001 -0.76323,1.1586c-0.26544,0.33555 -0.56457,0.71315 -0.83585,1.10087c-0.58792,0.84029 -1.00834,1.7666 -1.00967,2.05978c-0.00063,0.13988 0.8938,0.58214 1.37429,-0.0945c0.59429,-0.8369 0.82022,-2.85569 1.09309,-2.96133c0.60322,-0.23354 -0.26637,2.51293 -0.44615,3.11094c-0.2653,0.88248 -0.4921,0.63998 -0.44475,1.76587c0.09045,2.15137 1.56896,3.36172 2.62602,4.56955c0.70741,0.80829 0.22384,1.75371 0.01145,1.89649c-0.37801,0.2541 -3.54371,-0.53117 -4.05789,-0.42698c-0.39765,0.08057 -1.34654,-0.40466 -3.49097,-0.27099c-0.82355,0.05133 -1.65645,0.76311 -2.63719,0.82042c-0.71638,0.04187 -1.3057,-0.15857 -1.95166,-0.31313c-0.22206,-0.05314 -1.02829,-0.5319 -1.25815,-0.52625c-0.34771,0.00856 -0.82528,0.48594 -1.23178,0.63526c-0.77623,0.28513 -1.60661,0.69038 -2.28854,0.69435c-3.18977,0.0186 -3.26689,-1.88761 -3.26689,-1.88761c0,0 -3.04432,0.06304 -4.03211,-0.42236c-0.75092,-0.36901 -1.55925,-1.00352 -1.38133,-2.2378c0.24894,-1.72688 1.10352,-2.33605 3.08465,-3.20355c2.98491,-1.30704 6.06524,-0.58009 9.46825,-3.92267c3.20388,-3.14698 4.43719,-15.37296 4.7865,-17.02182z" fill="#ffd5d5" stroke="#000000" stroke-width="1.5"/><path d="M206.90048,168.30773c0,0 -3.07229,0.00278 -3.71369,-0.28946c-0.71612,-0.32628 -0.72723,-1.57737 -0.72723,-1.57737c0,0 2.41577,-0.11037 3.38045,-0.23542c0.79242,-0.10272 2.33677,-0.55138 2.33677,-0.55138l-0.52435,2.84128c0,0 1.64547,0.70646 3.17917,0.82889c0.82685,0.066 0.81717,-1.87392 3.46531,-1.87392c0.98114,0 3.17859,1.26431 4.02568,0.77044c2.1093,-1.22976 5.04158,-5.18813 5.04158,-5.18813c0,0 0.81464,0.24075 0.81464,0.62352c0,0.48247 3.67599,6.1885 3.15662,6.13879c-0.73361,-0.07022 -6.5234,-0.94261 -7.38145,-0.9628c-0.84998,-0.02 -2.23775,0.94386 -3.09742,0.91287c-0.46569,-0.01678 -0.92766,-0.12523 -1.38038,-0.228c-0.43517,-0.09879 -0.94769,-0.55333 -1.3608,-0.55513c-0.55722,-0.00243 -0.93268,0.42362 -1.3338,0.52162c-1.2246,0.29919 -1.88782,0.90551 -3.00328,0.83681c-1.46527,-0.09024 -2.87782,-2.0126 -2.87782,-2.0126z" fill="#fb95a9" stroke="none" stroke-width="0"/><path d="M206.6452,168.40278c0,0 1.25348,-3.1369 2.41663,-3.45707c0.61518,-0.16933 1.83386,-0.25208 2.78582,0.09011c0.96988,0.34863 1.90801,1.37664 1.90801,1.37664c0,0 -2.47695,-0.57435 -3.78841,-0.18953c-1.72244,0.5054 -1.74386,3.47467 -1.74386,3.47467z" fill="#000000" stroke="none" stroke-width="0"/><path d="M220.51528,167.97303l-0.94496,1.89527l-1.41743,-0.1805z" fill="#000000" stroke="none" stroke-width="0"/></g><g data-paper-data="{&quot;index&quot;:null}"><g><path d="M253.32648,118.29965c-0.92362,-3.54523 0.65419,-7.02532 3.52414,-7.773c2.86994,-0.74768 5.94523,1.52018 6.86883,5.0654c0.92361,3.54523 -0.65421,7.02533 -3.52416,7.77301c-2.86994,0.74769 -5.94522,-1.52017 -6.86882,-5.06539z" fill="#fb95a9" stroke="#000000" stroke-width="2"/><path d="M243.84747,137.24609c-25.12129,2.72541 -28.43817,0.64399 -32.62093,-8.69699c-4.18277,-9.34099 9.76507,-13.99893 22.98041,-19.91659c13.21534,-5.91768 19.88491,-9.56903 24.06768,-0.22804c0.68232,1.52379 1.7272,11.70083 1.7272,11.70083c0,0 8.64578,1.94393 8.87186,6.00867c0.22979,4.39093 -15.52352,10.10116 -25.02623,11.13212z" fill="#ffd5d5" stroke="#000000" stroke-width="2"/><path d="M211.35548,121.10793c0,0 23.49143,-14.86512 29.1497,-17.39882c10.72088,-4.80067 14.96584,0.49544 16.91462,4.8475c0.85117,1.90087 1.44565,10.43823 1.44565,10.43823c0,0 -5.15265,-4.12351 -7.53692,-4.81733c-2.71568,-0.79026 -7.70049,0.24133 -7.70049,0.24133l-3.68083,8.19162l-8.38199,-5.33442c0,0 -1.35732,6.09917 -2.98986,8.86304c-1.74068,2.94694 -7.15065,8.30466 -7.15065,8.30466l-3.95771,0.76519c0,0 -4.25465,-3.99198 -5.29289,-6.38751c-0.9973,-2.301 -0.81864,-7.71353 -0.81864,-7.71353z" fill="#fb95a9" stroke="none" stroke-width="0"/><path d="M206.06601,133.51342c-1.30713,-2.91904 -1.6669,-3.52214 -0.46484,-5.67557c0.9637,-1.72639 8.40902,0.22905 9.71614,3.1481c1.30713,2.91905 1.65264,6.06665 -0.15188,6.87469c-1.80452,0.80803 -7.53411,-0.85157 -9.09943,-4.34723z" fill="#ffd5d5" stroke="#000000" stroke-width="2.5"/><path d="M214.91724,137.04883c-0.64402,0.28837 -3.5721,-0.01635 -5.19518,-1.16909c-1.01329,-0.71965 -1.84035,-1.81165 -2.44404,-2.79632c-0.74031,-1.20754 -0.03773,-2.19826 1.39267,-2.02885c2.39241,0.28336 5.68948,0.8857 6.22493,2.08142c0.85557,1.91066 1.56074,3.22362 0.02161,3.91283z" fill="#fb95a9" stroke="none" stroke-width="0"/><path d="M208.17435,130.49275c-0.26143,-0.58382 7.57902,3.52825 7.57902,3.52825l0.11481,2.83276c0,0 -7.4324,-5.77722 -7.69383,-6.36105z" fill="#000000" stroke="none" stroke-width="0"/><path d="M214.32004,138.25494c-0.96763,-1.59883 0.02219,-3.62327 1.87583,-4.67415c1.85361,-1.05086 3.83537,-2.3777 5.6856,0.24847c0.32569,0.46228 2.37176,3.52647 1.47649,5.68275c-0.13955,0.33611 -1.10194,1.76097 -2.37643,2.38146c-1.76008,0.85691 -3.03523,0.81171 -3.03523,0.81171c0,0 1.53408,-2.36658 1.27972,-2.43606c-0.81125,-0.22159 -4.093,-0.67084 -4.906,-2.01416z" fill="#6d0f0a" stroke="#000000" stroke-width="2"/><path d="M201.66958,141.02361c-8.09614,-1.41881 -11.75977,-4.42892 -11.75977,-4.42892c0,0 6.17514,-2.59179 7.58862,-5.34264c1.42476,-2.77284 0.41003,-12.38205 0.41003,-12.38205c0,0 21.94599,-7.3363 30.89946,-11.34555c8.29081,-3.7125 15.57449,-6.94755 20.91255,-9.31029c5.80193,-2.56805 11.94935,-1.86478 14.47374,2.42414c0.62473,1.06138 1.4652,2.49117 1.99708,3.76096c2.4311,5.80388 2.22508,11.92671 2.22508,11.92671c0,0 -7.50646,-5.32076 -11.0275,-7.54096c-4.35475,-2.74586 -10.53037,-4.37679 -10.53037,-4.37679c0,0 0.53456,3.97076 -0.09847,6.89343c-0.6553,3.02544 -3.66402,4.02234 -3.66402,4.02234c0,0 -1.34056,-2.89136 -2.42137,-4.04704c-0.99491,-1.06385 -2.84908,-3.07568 -2.49664,-1.95714c0.35451,1.1252 0.83297,3.94046 1.1072,5.31065c0.70973,3.54633 0.35211,4.19619 0.35211,4.19619c0,0 -2.8593,-2.35378 -5.65969,-4.50748c-2.38106,-1.83121 -5.30663,-2.26364 -5.30663,-2.26364c0,0 -2.77769,5.90463 -4.62765,8.56995c-1.67115,2.40771 -5.64193,6.57171 -5.64193,6.57171c0,0 4.96436,6.77875 1.08177,7.86089c-2.74408,0.76483 -4.07346,0.72232 -5.90271,0.12628c-1.09664,-0.35733 -2.41143,-3.05438 -2.41143,-3.05438l2.14346,-0.24305c0,0 -3.37082,-5.37606 -4.74859,-5.23342c-2.42591,0.25116 -0.87446,-0.6758 -4.03745,0.83598c-0.46039,0.22005 -0.66207,3.54942 0.5565,6.11509c1.30826,2.75451 4.06134,4.75009 4.06134,4.75009c0,0 -3.52101,3.36182 -7.47469,2.66895z" fill="#6d0f0a" stroke="#000000" stroke-width="1.5"/><path d="M240.14961,105.74278c-0.89501,0.40078 -2.5093,-0.12973 -4.37018,0.54856c-2.01608,0.73484 -4.28688,2.68261 -5.30377,3.18021c-14.6864,7.18697 -30.85857,15.56593 -30.85857,15.56593c0,0 -0.323,-2.67793 -0.76158,-3.8731c-0.46856,-1.27689 -1.67749,-3.68843 -1.67749,-3.68843c0,0 21.20575,-6.4373 33.21769,-11.81609c7.70767,-3.45141 15.68959,-7.40264 21.07645,-8.95037c5.70393,-1.63885 8.99636,-0.95349 8.99636,-0.95349l3.59276,5.95402l-2.59122,0.40058l-8.15696,-3.46599c0,0 -9.05803,5.25977 -13.16351,7.09817z" fill="#6d0f0a" stroke="none" stroke-width="0"/><path d="M241.32278,134.69964c-1.19303,0.34551 -2.1371,-0.56589 -2.95294,-1.48277c-0.92038,-1.0344 -1.63687,-2.12547 -1.59607,-2.36398c0.06277,-0.36701 8.90458,-1.58923 9.07849,-1.23875c0.16594,0.3344 -0.73792,1.59902 -2.03373,2.96042c-0.73012,0.76706 -1.21724,1.82105 -2.24584,2.11892z" fill="#ef3d61" stroke="#000000" stroke-width="1.5"/><path d="M243.09104,121.9673c-0.79376,-1.77265 -1.61037,-5.04779 0.65696,-7.26196c0.40708,-0.39756 1.55662,-0.78973 2.94366,-0.91163c1.42168,-0.12495 2.75958,0.12364 3.13738,0.16639c0.74638,0.08449 1.77874,-0.70326 1.77874,-0.70326c0,0 0.91059,-1.04587 1.36978,-1.77272c0.38549,-0.61019 0.99654,-2.76115 0.99654,-2.76115c0,0 0.52822,1.4063 0.0458,3.34006c-0.19878,0.79685 -0.97971,2.37727 -0.97971,2.37727c0,0 0.99768,-0.28487 1.99621,-0.9357c0.75006,-0.48886 2.27904,-2.52224 2.27904,-2.52224c0,0 -0.26091,1.95273 -0.61871,2.88695c-0.24707,0.6451 -1.09899,1.6571 -1.09899,1.6571l0.18641,1.02395c0,0 -2.08422,-1.13574 -2.97444,-1.21396c-0.71979,-0.06324 -2.13197,0.71629 -2.13197,0.71629c0,0 2.84706,7.17237 -1.65944,9.0519c-3.51375,1.46548 -4.62014,-0.21825 -5.92725,-3.1373z" fill="#000000" stroke="none" stroke-width="0"/><path d="M219.23087,120.8223c0,0 2.08698,0.99642 3.11468,1.20811c0.94583,0.19483 2.22673,-0.29266 2.22673,-0.29266c0,0 -0.58954,-0.56926 -1.18875,-1.16733c-0.62494,-0.62376 -1.98106,-2.57412 -1.98106,-2.57412c0,0 1.83106,1.15766 2.66567,1.47971c0.79815,0.308 2.51569,0.51841 2.51569,0.51841c0,0 2.34704,-1.1039 3.90241,-1.80037c4.07153,-1.82317 8.00412,-0.12312 8.00412,-0.12312c0,0 -2.49024,0.36864 -3.34822,0.52593c-0.60945,0.1117 -1.25662,0.45681 -1.25662,0.45681c0,0 3.61639,7.70589 -2.17056,10.37412c-4.73981,2.18542 -6.29271,-4.82438 -6.63312,-5.09483c-0.24661,-0.19594 -1.41759,-0.64658 -1.41759,-0.64658c0,0 -1.66701,-0.24548 -2.36544,-0.68585c-0.75981,-0.47907 -2.06788,-2.17825 -2.06788,-2.17825z" fill="#000000" stroke="none" stroke-width="0"/></g><path d="M263.15385,99.94046c0,0 -1.41899,-2.37229 -2.22492,-3.52422c-0.77067,-1.10153 -2.5097,-3.24287 -2.5097,-3.24287c0,0 1.25802,0.21211 2.73119,2.12012c0.96281,1.24702 3.40195,4.50768 3.40195,4.50768z" fill="#000000" stroke="none" stroke-width="0"/></g><g data-paper-data="{&quot;index&quot;:null}"><path d="M255.19957,182.67556c-1.00101,-2.204 -1.48204,-4.3489 -0.72825,-4.96606c2.33239,-1.90961 13.28484,-2.98899 13.38878,-2.98899c6.31528,0 14.84633,4.70166 14.84633,7.42317c0,2.15815 -5.66177,5.08636 -11.867,4.87772c-9.17694,-0.30857 -12.61375,-4.42959 -12.80984,-4.64776c-0.77835,-0.86597 0.94691,1.54978 1.61014,2.51138c0.76014,1.10213 2.09503,1.87099 1.91005,2.94778c-0.21138,1.23048 -1.04517,0.91066 -1.93413,0.37576c-1.07219,-0.64516 -2.75079,-1.86638 -4.41608,-5.533z" fill="#ee1536" stroke="#000000" stroke-width="1.5"/><path d="M224.16343,165.33484c0,-3.59654 1.88208,-6.79388 5.00437,-9.12732c4.14737,-3.09953 10.28977,-4.77137 15.23297,-4.77137c5.31995,0 12.36793,-0.19935 14.37465,2.09274c0.5447,0.62216 0.11605,3.35746 0.47021,5.96384c0.20355,1.49801 1.01152,5.12835 2.06489,8.05201c0.76659,2.12772 1.6857,4.5633 2.81912,4.87357c4.6996,1.28652 11.33458,3.83886 9.65309,6.39177c-1.27777,1.93997 -8.71321,2.17386 -14.6326,0.37436c-5.32793,-1.61969 -9.13974,-5.17457 -11.08352,-5.65964c-3.29754,-0.8229 -10.29591,1.43415 -13.65474,0.96798c-2.18858,-0.30375 -4.10262,-1.02669 -5.53901,-1.79684c-3.55989,-1.90871 -4.7094,-5.13615 -4.7094,-7.3611z" fill="#ffd5d5" stroke="#000000" stroke-width="1.5"/><path d="M254.40496,161.63252c0,0 1.5473,-1.13661 2.20683,-1.84011c0.59795,-0.63781 1.58373,-2.20314 1.58373,-2.20314c0,0 0.47515,2.43192 0.69523,3.67533c0.19897,1.12418 0.56829,3.46354 0.56829,3.46354c0,0 -2.16472,-0.56777 -3.07746,-1.12683c-0.7315,-0.44803 -1.97661,-1.96878 -1.97661,-1.96878z" fill="#fb95a9" stroke="none" stroke-width="0"/><path d="M275.08881,178.59435c0.16969,-0.35395 1.67522,-0.13645 2.97302,0.48578c1.2978,0.62223 2.68613,2.36122 2.51643,2.71517c-0.1697,0.35394 -1.51728,-1.12707 -2.81508,-1.7493c-1.29779,-0.62223 -2.84406,-1.0977 -2.67436,-1.45165z" fill="#fc9ea5" stroke="none" stroke-width="0"/></g><g data-paper-data="{&quot;index&quot;:null}"><path d="M231.01661,186.66843c2.5441,-6.35721 7.6863,-8.12709 12.34285,-6.26357c4.65656,1.86351 6.54811,7.90162 4.004,14.25883c-2.5441,6.35722 -11.22418,11.88722 -14.69074,10.29339c-3.43224,-1.57805 -4.378,-11.60389 -1.83389,-17.9611z" fill="#ee1536" stroke="#000000" stroke-width="1.5"/><path d="M233.51809,183.8908c0,0 2.00422,-2.86118 4.30555,-3.50609c0.77193,-0.21631 4.08674,0.23689 6.56763,1.86017c1.68622,1.10331 2.8021,3.19439 3.19142,4.24588c0.67057,1.81111 0.10967,3.76134 0.10967,3.76134c0,0 -1.81828,1.66589 -5.43619,1.54424c-1.90251,-0.06397 -4.61734,-2.13774 -6.33064,-4.2466c-1.54479,-1.90145 -2.40744,-3.65892 -2.40744,-3.65892z" fill="#9a1652" stroke="none" stroke-width="0"/><path d="M237.96925,174.10228c0.55432,-7.08643 2.21505,-10.84502 10.62649,-10.5467c4.91806,0.17442 6.52345,5.86357 6.20118,8.26798c-1.07822,8.0444 -9.74893,15.13352 -9.74893,15.13352c0,0 1.38491,8.01261 -6.9327,9.02219c-4.06733,0.49369 -4.09452,-6.52097 -3.42123,-8.22854c1.22234,-3.10001 3.42075,-4.916 3.42075,-4.916c0,0 -0.3919,-5.5836 -0.14558,-8.73245z" fill="#ffd5d5" stroke="#000000" stroke-width="1.5"/><path d="M245.1026,175.4596c-0.98594,-0.64 -1.21165,-1.61216 -1.54278,-2.57662c-0.39958,-1.16379 -0.68288,-4.079 -0.68288,-4.079c0,0 1.88781,1.43735 2.95744,2.05164c1.0526,0.6045 3.57324,1.45269 3.57324,1.45269c0,0 -1.55297,2.41034 -2.26572,2.89984c-0.66241,0.45494 -1.05335,0.89143 -2.03929,0.25145z" fill="#fb95a9" stroke="none" stroke-width="0"/><path d="M235.8695,202.12273c-0.64171,-0.03296 1.51192,-1.05037 2.3367,-1.53259c0.91489,-0.5349 2.82616,-2.37563 2.86295,-2.00666c0.07441,0.74608 -1.44675,2.17702 -2.28268,2.66576c-0.90726,0.53045 -1.82762,0.92947 -2.91696,0.87351z" fill="#fc9ea5" stroke="none" stroke-width="0"/></g></g></g></svg>