<svg version="1.1" xmlns="http://www.w3.org/2000/svg" xmlns:xlink="http://www.w3.org/1999/xlink" width="118.82506" height="171.88774" viewBox="0,0,118.82506,171.88774"><g transform="translate(-185.74749,-101.26453)"><g data-paper-data="{&quot;isPaintingLayer&quot;:true}" fill-rule="nonzero" stroke-linejoin="miter" stroke-miterlimit="10" stroke-dasharray="" stroke-dashoffset="0" style="mix-blend-mode: normal"><g stroke="#000000" stroke-linecap="round"><path d="M232.84758,175.92649c0,0 -28.87294,6.71809 -29.59455,-10.6959c-0.26588,-6.41588 16.52224,-5.4375 16.52224,-5.4375z" data-paper-data="{&quot;origPos&quot;:null}" fill="#c51c21" stroke-width="2"/><path d="M224.12174,164.88684c0,0 -16.4774,-1.28253 -16.28526,-1.88427c0.60928,-1.90791 12.77215,-1.77504 12.77215,-1.77504z" data-paper-data="{&quot;origPos&quot;:null}" fill="#0a0a0a" stroke-width="1"/></g><g><g><g><g data-paper-data="{&quot;origRot&quot;:0}" stroke="#000000" stroke-width="3" stroke-linecap="round"><path d="M282.9688,227.76263c-0.52478,2.3499 -8.85805,-1.40617 -8.85805,-1.40617c0,0 -22.29364,-9.34204 -32.83962,-13.7112c-4.18896,-2.46635 3.07425,-40.11437 7.91239,-43.1134c2.1567,-1.33687 12.32384,-0.83384 13.49612,0.89617c2.23132,3.29294 3.69989,20.07079 3.69989,20.07079l-4.21756,-0.92014l10.85634,3.44029c0,0 12.92945,2.92744 18.06248,5.62561c2.84682,1.49642 -8.11195,29.11799 -8.11195,29.11799z" data-paper-data="{&quot;origPos&quot;:null}" fill="#582700"/><path d="M273.2588,224.33131l7.72171,-28.43601" fill="none"/><path d="M269.22749,223.32695l7.43903,-28.52707" data-paper-data="{&quot;origPos&quot;:null}" fill="none"/></g><path d="M272.92283,224.86426l-2.78003,-0.87758l7.70804,-29.14791l2.78003,0.87758z" fill="#ffffff" stroke="none" stroke-width="0" stroke-linecap="butt"/><path d="M240.94546,212.7024l-0.66132,-11.07766l4.9254,-23.07944l3.61087,-7.43864l4.43899,-2.40558l7.51447,1.93919l1.5029,0.38785l3.45162,18.139l-3.0545,-0.53461l-0.38957,1.9287l13.12947,4.14917l-6.64379,28.97728l-26.27295,-10.83849z" fill="#c51c21" stroke="#000000" stroke-width="0.5" stroke-linecap="round"/></g><g fill="#fffc96" stroke="#000000" stroke-width="2" stroke-linecap="round"><path d="M269.82981,191.20221c0,0 4.59368,-1.82987 6.16681,1.29849c2.51692,5.00521 -32.93283,16.48078 -35.8536,11.41599c-1.19334,-2.06935 1.8594,-3.94154 1.8594,-3.94154l1.31991,1.78569c0,0 7.16666,-0.61942 15.50052,-3.10301c8.21841,-2.44917 13.04812,-5.57765 13.04812,-5.57765z"/><path d="M263.0049,183.6269c0,0 1.68822,-4.06403 3.81172,-2.34684c4.45752,3.60463 -13.75561,39.6454 -17.17207,35.34348c-2.06909,-2.60531 0.58608,-5.53737 0.58608,-5.53737l1.00682,1.28503c0,0 3.71146,-4.8098 7.68987,-13.04056c3.97845,-8.23073 5.16092,-14.60648 5.16092,-14.60648z" data-paper-data="{&quot;index&quot;:null}"/></g></g><g><g data-paper-data="{&quot;index&quot;:null}"><path d="M289.81463,195.13708c2.31076,1.07241 8.18214,-0.63619 7.3118,1.39836c-0.44332,1.0363 -8.92868,19.78593 -10.0142,20.40235c-1.04557,0.59372 -2.22547,0.72647 -3.35917,0.20032c-0.77133,-0.35799 -1.80671,-1.26208 -2.30598,-2.14888c-0.99646,-1.76991 2.31455,-22.77564 2.89435,-24.13103c0.87035,-2.03452 3.16242,3.20651 5.47318,4.27892z" fill="#0091d4" stroke="#000000" stroke-width="1.5" stroke-linecap="butt"/><g stroke-linecap="butt"><path d="M292.71479,188.41677c4.18655,1.94294 6.67157,5.6425 5.55044,8.26318c-1.12109,2.62069 -5.42378,3.17014 -9.61031,1.22721c-4.18653,-1.94294 -6.67158,-5.64251 -5.55049,-8.26321c1.12109,-2.62069 5.42378,-3.17012 9.6103,-1.22717z" fill="#c51c21" stroke="#000000" stroke-width="1.5"/><path d="M286.01044,195.10309c0,0 -1.42352,-1.07698 -2.09278,-2.73906c-0.30752,-0.79653 -0.26695,-2.77754 -0.26695,-2.77754l2.79158,3.02643z" fill="#ff242b" stroke="none" stroke-width="0"/><path d="M289.08734,197.20116l-1.80992,-0.89618c0,0 0.02726,-0.79008 0.16341,-1.1806c0.11629,-0.33352 0.61562,-1.20408 0.61562,-1.20408l1.40565,0.98205z" fill="#ff242b" stroke="none" stroke-width="0"/></g><g><path d="M290.33513,194.27408c-5.77543,-2.68035 -10.02243,-9.18656 -7.68017,-14.6619c2.3423,-5.47537 8.09099,-7.45469 13.86641,-4.77439c5.77543,2.68035 8.85449,9.42919 6.51221,14.90454c-2.3423,5.47537 -6.92304,7.21206 -12.69841,4.53175z" fill="#781114" stroke="#000000" stroke-width="1.5" stroke-linecap="butt"/><path d="M294.23572,174.69344c0,0 0.85272,1.94756 1.81241,4.75347c0.95736,2.79912 1.17783,6.42308 0.15443,8.81541c-2.04932,4.79053 -4.29943,5.86951 -8.49569,3.9221c-2.04146,-0.94743 -3.49071,-2.87342 -4.10278,-4.91725c-0.8591,-2.86873 -1.04965,-6.33177 0.11248,-9.04832c2.04932,-4.79053 10.51913,-3.5254 10.51913,-3.5254z" fill="#c51c21" stroke="none" stroke-width="0" stroke-linecap="butt"/><path d="M301.9085,189.66227c0,0 -4.4921,1.9183 -11.12966,-1.43492c-6.58362,-3.32596 -7.82745,-8.40568 -7.82745,-8.40568" fill="none" stroke="#000000" stroke-width="0.8" stroke-linecap="round"/><path d="M298.20738,194.136c0,0 -3.1936,0.7836 -8.92019,-2.92013c-3.97368,-2.57001 -6.99223,-6.48505 -6.99223,-6.48505" fill="none" stroke="#000000" stroke-width="0.75" stroke-linecap="round"/><path d="M302.70418,186.83807c0,0 -2.75187,0.98913 -8.93049,-2.55044c-6.42389,-3.68006 -8.09018,-8.28149 -8.09018,-8.28149" fill="none" stroke="#000000" stroke-width="0.8" stroke-linecap="round"/><path d="M288.99207,174.21784c0,0 4.4321,2.00491 8.24282,5.04879c2.89314,2.31093 5.94693,6.29415 5.94693,6.29415" fill="none" stroke="#000000" stroke-width="0.8" stroke-linecap="round"/><path d="M299.95364,178.00156c0,0 1.78731,3.69613 -0.74535,8.97377c-2.71405,5.65558 -6.34945,7.61124 -6.34945,7.61124" fill="none" stroke="#000000" stroke-width="0.8" stroke-linecap="round"/><path d="M289.51809,193.5575c0,0 1.04856,-3.02525 1.90099,-4.72539c0.7177,-1.43143 2.62874,-3.90245 3.99572,-6.41125c1.55443,-2.85283 2.53291,-5.67614 2.53291,-5.67614" fill="none" stroke="#000000" stroke-width="0.8" stroke-linecap="round"/><path d="M286.92619,192.22428c0,0 -0.63162,-4.81368 2.06688,-10.63099c1.71931,-3.70639 6.52558,-6.56239 6.52558,-6.56239" fill="none" stroke="#000000" stroke-width="0.8" stroke-linecap="round"/><path d="M283.14258,187.73108c0,0 -0.22423,-3.54681 3.00487,-8.47044c2.24236,-3.41909 5.85842,-5.33863 5.85842,-5.33863" fill="none" stroke="#000000" stroke-width="0.8" stroke-linecap="round"/><path d="M284.89708,179.29084c-0.4118,-0.19111 -0.58944,-0.71122 -0.39672,-1.1617c0.19269,-0.45048 0.68277,-0.66072 1.09457,-0.4696c0.4118,0.19111 0.58944,0.71122 0.39671,1.1617c-0.19269,0.45048 -0.68277,0.66071 -1.09457,0.46961z" fill="#ff242b" stroke="none" stroke-width="0" stroke-linecap="butt"/><path d="M287.03141,176.63171c-0.23756,-0.11027 -0.35207,-0.38224 -0.25571,-0.60745c0.09635,-0.22522 0.36707,-0.31844 0.60462,-0.20818c0.23756,0.11027 0.35207,0.38225 0.25573,0.60748c-0.09635,0.22522 -0.36707,0.31845 -0.60465,0.20819z" fill="#ff242b" stroke="none" stroke-width="0" stroke-linecap="butt"/></g></g><path d="M285.93035,195.79544c-3.62398,9.91134 -4.9798,11.29705 -4.9798,11.29705c-0.52458,1.2128 -1.71622,0.5156 -1.71622,0.5156c0,0 -2.46049,-1.08693 -4.03535,-1.78265c-1.03411,-0.45681 -2.64975,-1.17055 -2.64975,-1.17055c0,0 -0.95102,-0.60731 -0.64965,-1.2624c1.81316,-3.94117 3.3235,-7.81642 4.43356,-9.69758c0.37001,-0.62706 1.67745,-0.91117 1.67745,-0.91117l5.1855,1.66016c0,0 2.15765,0.56264 2.73422,1.35154z" fill="#582700" stroke="#000000" stroke-width="3" stroke-linecap="round"/><path d="M297.56185,202.3739c-7.97532,20.28347 -10.66978,23.21724 -10.66978,23.21724c-1.12681,2.49134 -3.25652,1.23122 -3.25652,1.23122c0,0 -4.4413,-1.89493 -7.28396,-3.10777c-1.86659,-0.7964 -4.78293,-2.04068 -4.78293,-2.04068c0,0 -1.69333,-1.1076 -1.05115,-2.45536c3.86344,-8.10846 7.1555,-16.04991 9.45459,-19.94843c0.76635,-1.29949 3.23366,-2.01969 3.23366,-2.01969l9.43855,2.72977c0,0 3.94328,0.87897 4.91751,2.39368z" fill="#582700" stroke="#000000" stroke-width="3" stroke-linecap="round"/></g></g><g data-paper-data="{&quot;origRot&quot;:0}" stroke="#000000" stroke-linecap="round"><path d="M240.17245,229.14906c0,0 -0.47184,-4.54693 1.18528,-4.63724c4.88992,-0.26644 9.49372,-2.1318 14.1763,-0.85821c1.94446,0.52885 3.03046,4.4933 3.03046,4.4933l7.24963,30.83025c0,0 0.79552,3.17481 1.17987,5.01319c0.41093,1.96554 -0.46315,5.01706 -2.70836,5.25232c-8.24365,0.86384 -13.19902,2.74472 -18.48915,2.12261c-1.92728,-0.22665 -3.95582,-0.57903 -4.85563,-2.10276c-1.17543,-1.99037 -0.80154,-6.24019 -0.80154,-6.24019z" data-paper-data="{&quot;origPos&quot;:null}" fill="#ff0000" stroke-width="3"/><path d="M267.32521,267.16557c0,0 -6.11711,2.97933 -11.569,3.40167c-4.18289,0.32403 -13.33889,0.05576 -13.33889,0.05576c0,0 -1.69468,-2.35828 -1.94039,-3.86703c-0.25884,-1.5894 0.64749,-4.0716 0.64749,-4.0716l24.90718,-2.69084z" data-paper-data="{&quot;origPos&quot;:null}" fill="#976e57" stroke-width="2"/><path d="M240.28979,229.44629c0,0 -0.47184,-4.54693 1.18528,-4.63723c4.88991,-0.26644 9.49372,-2.1318 14.17631,-0.85819c1.94446,0.52885 3.03045,4.49329 3.03045,4.49329l7.24963,30.83025c0,0 0.79554,3.17482 1.17989,5.01319c0.41093,1.96554 -0.46316,5.01705 -2.70836,5.25232c-8.24365,0.86384 -13.19902,2.74473 -18.48915,2.12262c-1.92728,-0.22665 -3.95581,-0.57905 -4.85562,-2.10276c-1.17543,-1.99037 -0.80155,-6.24019 -0.80155,-6.24019z" data-paper-data="{&quot;origPos&quot;:null}" fill="#4b4b4b" stroke-width="3"/></g><path d="M234.00762,263.70888c0,0 -0.08847,4.26193 -1.47419,6.14357c-1.06083,1.44048 -3.11822,1.61942 -5.06119,1.68176c-5.33321,0.17111 -10.06191,-2.12092 -18.174,-3.6791c-2.20937,-0.42438 -2.7487,-3.53591 -2.12664,-5.45757c0.58182,-1.79735 1.71778,-4.89016 1.71778,-4.89016l10.55776,-30.07426c0,0 1.51066,-3.8542 3.50348,-4.21589c4.79908,-0.87106 9.17953,1.3757 14.01805,2.05517c1.63969,0.23026 0.67722,4.7163 0.67722,4.7163c0,0 -0.91997,8.52642 -1.50881,13.98379c-0.83106,7.7024 -2.1295,19.73644 -2.1295,19.73644z" fill="#4b4b4b" stroke="#000000" stroke-width="3" stroke-linecap="round"/><g><path d="M221.80027,184.04072c0,0 2.96991,-13.57728 5.32086,-13.98036c7.05286,-1.20922 22.88875,0.4779 33.51123,1.01492c1.64212,0.08301 2.22898,13.00558 2.22898,13.00558l0.03144,29.18022c0,0 -0.65738,14.2168 -2.44877,14.12623c-15.9467,-0.80617 -34.68964,-0.94145 -41.7458,-2.09931c-2.35203,-0.38593 -0.49484,-15.30403 -0.49484,-15.30403z" data-paper-data="{&quot;origPos&quot;:null}" fill="#c51c21" stroke="#000000" stroke-width="3.5" stroke-linecap="round"/><path d="M241.53741,192.84928c-1.38735,-0.07014 -1.23455,-2.43217 -1.23455,-2.43217c0.31688,-4.89906 0.73561,-11.37281 1.05248,-16.27186c0,0 0.15277,-2.36205 1.54012,-2.29191c1.38735,0.07014 1.23455,2.43218 1.23455,2.43218c-0.31688,4.89906 -0.63373,9.79811 -0.95062,14.69717l-0.10186,1.5747c0,0 -0.15276,2.36203 -1.54012,2.29191z" fill="#ffffff" stroke="none" stroke-width="0.5" stroke-linecap="butt"/><path d="M254.18332,193.09166c-1.38735,-0.07014 -1.19541,-3.03753 -1.19541,-3.03753c0.39809,-6.1546 0.92411,-14.28745 1.3222,-20.44205c0,0 0.19191,-2.96741 1.57927,-2.89726c1.38735,0.07014 1.19541,3.03754 1.19541,3.03754c-0.39809,6.1546 -0.79617,12.30919 -1.19426,18.46379l-0.12795,1.97826c0,0 -0.19191,2.96741 -1.57927,2.89726z" fill="#ffffff" stroke="none" stroke-width="0.5" stroke-linecap="butt"/></g><g fill="none" stroke="#b9b9b9" stroke-width="3"><path d="M257.32313,174.5117c-0.90349,-1.28643 -0.00758,-2.4997 1.20742,-3.72232c1.21499,-1.2226 2.46612,-1.62585 3.19249,-0.70516c1.54006,1.95217 0.04149,2.94922 -0.90989,3.90655c-1.21502,1.22262 -2.21404,2.33772 -3.49001,0.52093z" stroke-linecap="butt"/><path d="M258.31551,173.90503l-2.57534,2.53106" stroke-linecap="round"/><path d="M252.10855,177.1699c1.215,-1.2226 2.46612,-1.62585 3.19248,-0.70516c1.54006,1.95217 0.0415,2.94922 -0.90988,3.90655c-1.215,1.22261 -2.21403,2.33772 -3.49001,0.52093c-0.90349,-1.28643 -0.00759,-2.4997 1.20741,-3.72233z" stroke-linecap="butt"/><path d="M251.8935,180.28555l-2.57534,2.53106" stroke-linecap="round"/><path d="M243.50687,182.57552c0.35198,-1.59775 1.73675,-1.49487 3.3202,-1.10371c1.58345,0.39117 2.61789,1.30329 2.414,2.52024c-0.43233,2.58023 -2.02945,1.79365 -3.26933,1.48737c-1.58345,-0.39116 -2.96193,-0.64742 -2.46485,-2.90387z" stroke-linecap="butt"/><path d="M244.52716,183.12831l-3.31422,-0.8651" stroke-linecap="round"/><path d="M235.92358,178.58948c0.87125,-1.30665 2.11136,-0.58541 3.43575,0.49023c1.3244,1.07564 1.96478,2.3808 1.36032,3.40506c-1.28164,2.1717 -2.48322,0.72705 -3.52027,-0.11521c-1.3244,-1.07565 -2.5062,-1.93475 -1.2758,-3.78005z" stroke-linecap="butt"/><path d="M233.91786,177.26456l2.75614,2.29393" stroke-linecap="round"/><path d="M228.99242,172.8851c0.87125,-1.30663 2.11137,-0.58542 3.43575,0.49022c1.32441,1.07564 1.96478,2.3808 1.36033,3.40506c-1.28164,2.17169 -2.48323,0.72706 -3.52027,-0.1152c-1.3244,-1.07564 -2.50619,-1.93474 -1.27578,-3.78005z" stroke-linecap="butt"/><path d="M226.98671,171.56017l2.75614,2.29393" stroke-linecap="round"/></g><path d="M259.09981,173.76615c-12.43805,-0.80431 -24.49708,-1.6192 -29.34511,-2.95503c-4.43077,-1.22084 -5.57224,-3.9891 -5.57224,-3.9891c0,0 -1.61657,-2.4861 -1.58551,-3.97355c0.09317,-4.46231 0.99419,-17.1776 2.85052,-28.0604c0.06196,-0.3632 0.11077,-0.5652 0.19566,-0.92421c0.25461,-1.07707 1.43828,-5.24332 1.43828,-5.24332c0,0 3.40967,-1.35946 5.22841,-1.68433c5.45623,-0.97466 18.92641,1.47657 33.20169,2.94493c1.29387,0.1331 3.38525,1.92324 3.38525,1.92324c0,0 1.33892,3.14972 1.13385,5.06197c-1.32579,12.36304 -2.84109,26.03717 -3.40564,29.14714c-0.18819,1.03666 -2.4059,4.94392 -2.4059,4.94392z" fill="#582700" stroke="#000000" stroke-width="2.5" stroke-linecap="round"/><path d="M258.0814,152.91547c0.35615,-3.32117 1.06939,-5.97206 1.59304,-5.92092c0.52366,0.05114 0.65947,2.78496 0.30332,6.10613c-0.35615,3.32117 -1.06939,5.97207 -1.59304,5.92093c-0.52366,-0.05114 -0.65947,-2.78496 -0.30331,-6.10613z" fill="none" stroke="#000000" stroke-width="2.5" stroke-linecap="butt"/><path d="M252.44462,152.62292c0.36275,-3.38268 0.97522,-6.09382 1.36794,-6.05545c0.39274,0.03837 0.41707,2.81167 0.05433,6.19436c-0.36275,3.38268 -0.97519,6.09379 -1.36793,6.05544c-0.39274,-0.03837 -0.41708,-2.81164 -0.05434,-6.19434z" fill="none" stroke="#000000" stroke-width="2.5" stroke-linecap="butt"/><g><g stroke="#000000" stroke-width="3" stroke-linecap="round"><path d="M195.41942,192.44888l18.42867,-23.27972c0,0 3.57017,-4.36898 4.74636,-4.19588c3.52856,0.51933 8.72859,4.61859 14.75547,7.70638c1.00179,0.51324 -1.34832,5.79015 -1.34832,5.79015c0,0 -4.08894,8.14472 -6.70603,13.35774c-3.98562,7.93892 -10.21265,20.34255 -10.21265,20.34255c0,0 -2.96404,6.44768 -4.72971,5.36729c0,0 -10.23129,-1.14226 -22.89417,-12.55883c1.29721,-4.28404 7.96038,-12.52969 7.96038,-12.52969z" data-paper-data="{&quot;origPos&quot;:null}" fill="#582700"/><path d="M194.46361,194.26778l22.76196,13.00696l-1.7519,2.83861l-22.85849,-12.77424z" data-paper-data="{&quot;origPos&quot;:null}" fill="none"/></g><path d="M195.35101,194.24788l22.91007,-28.93698l14.01602,7.97973l0.78671,1.19754l-15.40896,32.51148z" fill="#c51c21" stroke="#000000" stroke-width="1" stroke-linecap="round"/><path d="M193.0384,197.04079l1.21174,-1.93873l22.69797,12.71961l-1.21173,1.93876z" fill="#ffffff" stroke="none" stroke-width="0" stroke-linecap="butt"/></g><path d="M256.82057,146.7874c-0.25072,0.51977 -0.73966,0.4445 -0.93747,0.38847c-0.15963,0.17537 -0.4056,0.27617 -0.66872,0.24973c-0.18051,-0.01815 -0.34005,-0.09322 -0.46049,-0.20421l-0.60611,-0.54804c-0.12269,-0.07291 -0.24532,-0.14374 -0.36813,-0.21271c-0.58275,-0.07158 -1.11023,-0.53712 -1.77189,-0.8817c-0.1588,-0.07086 -0.31937,-0.14085 -0.48209,-0.2105c0,0 -0.15317,-0.06562 -0.28435,-0.20271c-0.25816,-0.13919 -0.41896,-0.41233 -0.38632,-0.70794c0.04407,-0.3992 0.42424,-0.68822 0.84911,-0.64552c0.08314,0.00835 0.16182,0.02878 0.23429,0.05925l0.74789,0.29512l-0.03819,0.08604l0.02949,0.01603c0.02044,0.01014 0.0407,0.0202 0.06078,0.03014c0.07581,0.03428 0.15122,0.0688 0.22626,0.10353c1.0255,0.21676 2.00133,0.61609 2.90911,1.19504l0.56119,0.22678c0,0 0.70461,0.3019 0.38561,0.9632z" fill="#582700" stroke="none" stroke-width="0.5" stroke-linecap="butt"/><path d="M242.11966,159.65221c0.70192,0.3074 0.37707,0.96615 0.37707,0.96615l-0.54064,1.08328c-0.70726,2.73857 3.3483,2.33633 5.20853,1.90131c0,0 0.7502,-0.17465 0.93839,0.53099c0.18819,0.70565 -0.562,0.88031 -0.562,0.88031c-3.39643,0.78746 -7.76166,0.39031 -7.05783,-3.76121l0.60971,-1.24951c0,0 0.32485,-0.65877 1.02675,-0.35137z" fill="#000000" stroke="none" stroke-width="0.5" stroke-linecap="butt"/><g data-paper-data="{&quot;index&quot;:null}" stroke="#000000" stroke-width="2" stroke-linecap="butt"><path d="M271.46305,131.36081c0,0 -32.81389,-7.56804 -41.70843,-3.43997c-9.70348,4.50351 -8.28716,26.2049 -8.28716,26.2049c0,0 -10.717,-28.64063 4.07706,-45.75561c5.41963,-6.26987 28.51278,-9.40375 39.77914,-0.98131c8.23291,6.15471 6.1394,23.97199 6.1394,23.97199z" fill="#901111"/><path d="M228.76312,131.58216c-2.36821,-1.3343 -3.76347,-1.93076 -3.63034,-3.27134c0.14655,-1.47579 1.98263,-2.21513 5.03477,-2.93496c3.16416,-0.74625 7.63088,-1.42715 12.62339,-0.33175c2.12716,0.46673 4.975,2.00821 7.34465,2.24352c2.57182,0.25539 4.84811,-3.43214 7.18112,-2.70704c2.97354,0.92417 5.51931,3.14256 7.50317,4.33149c2.71567,1.62751 5.39512,0.09063 6.92175,0.60879c1.04438,0.35449 1.44471,2.72331 1.36225,3.55365c-0.08871,0.89328 -1.08007,2.83788 -2.3815,2.86086c-2.06927,0.03653 -5.19257,-2.06395 -8.76311,-0.37503c-4.01083,1.89718 -8.62477,2.24436 -13.49912,1.76032c-1.83359,-0.18208 -3.49561,-1.60336 -5.20058,-1.88141c-1.55733,-0.25398 -2.97484,-1.32329 -4.41614,-1.39066c-1.892,-0.08844 -3.75402,0.83428 -5.31535,0.425c-1.90933,-0.50051 -3.45251,-2.15201 -4.76494,-2.89146z" data-paper-data="{&quot;index&quot;:null}" fill="#ffffff"/><path d="M214.91461,161.8543c-0.9424,-2.05825 0.01708,-3.84953 1.00084,-5.84227c0.54201,-1.09791 0.51883,-2.7159 1.53571,-3.39398c1.6391,-1.09298 4.08703,-1.61775 5.6433,-0.92644c1.1616,0.51598 1.56157,1.88606 2.18625,3.25042c0.4759,1.03938 -0.2268,2.47923 -0.27155,3.60915c-0.09268,2.34041 -0.3345,4.33982 -2.26502,5.62711c-1.32323,0.88235 -2.95843,2.4581 -4.29104,2.1588c-1.55018,-0.34816 -2.75255,-2.76616 -3.53851,-4.48276z" fill="#ffffff"/></g></g></g></svg>