<svg version="1.1" xmlns="http://www.w3.org/2000/svg" xmlns:xlink="http://www.w3.org/1999/xlink" width="189.26654" height="221.55319" viewBox="0,0,189.26654,221.55319"><g transform="translate(-205.36673,-69.22341)"><g data-paper-data="{&quot;isPaintingLayer&quot;:true}" fill-rule="nonzero" stroke-linejoin="miter" stroke-miterlimit="10" stroke-dasharray="" stroke-dashoffset="0" style="mix-blend-mode: normal"><path d="M205.36673,290.77659v-221.55318h189.26654v221.55319z" fill="none" stroke="none" stroke-width="NaN" stroke-linecap="butt"/><g stroke="#000000" stroke-linecap="round"><path d="M290.72274,173.79081c0,0 -27.02102,8.19287 -28.30468,-10.42485c-0.47295,-6.85938 15.40738,-6.39385 15.40738,-6.39385z" data-paper-data="{&quot;origPos&quot;:null}" fill="#66c8ff" stroke-width="2"/><path d="M282.10437,162.27463c0,0 -15.59756,-0.80192 -15.43702,-1.4528c0.50908,-2.06364 11.99436,-2.34298 11.99436,-2.34298z" data-paper-data="{&quot;origPos&quot;:null}" fill="#0a0a0a" stroke-width="1"/></g><g><g><path d="M313.07965,163.44845c-0.67558,-3.26012 12.5421,1.16573 14.78308,1.04897c2.43562,-0.12692 -8.66061,18.09906 -8.66061,18.09906l-1.92181,3.06124l12.36707,-20.49872c0,0 3.93624,-7.30913 5.6496,-5.82271c0,0 10.58471,2.53907 22.40144,17.55274c-1.91033,4.93415 -9.95725,13.94919 -9.95725,13.94919c0,0 -16.99772,20.89938 -21.54436,20.20019c-1.05285,-0.16192 -12.90954,-5.14435 -14.57387,-9.07911c-5.52296,-13.05736 1.45669,-38.51084 1.45669,-38.51084z" fill="#582700" stroke="#000000" stroke-width="2.5" stroke-linecap="round"/><path d="M320.66337,181.50288c-0.29158,0.42448 -0.58914,0.84538 -0.88607,1.26835c-0.06554,0.09335 -0.90366,1.07221 -1.1006,1.66164c5.31262,4.38777 11.20508,7.84553 16.32395,12.55213c0.47796,0.3824 1.5621,1.08245 2.51543,1.9011c0.34013,0.15634 0.62637,0.23572 0.78394,0.16485c1.33989,-0.60259 2.41253,-2.209 3.63087,-3.08235c-0.35205,-0.1327 -1.36518,-0.53184 -1.74813,-0.77683c-1.13724,-0.72757 -2.26331,-1.44302 -3.42016,-2.13302c-4.05526,-2.4187 -8.19125,-5.52525 -11.9301,-8.42273c-1.43757,-0.87273 -2.89073,-1.93494 -4.16914,-3.13312zM321.50663,180.22376c1.2507,1.19405 2.70337,2.24495 4.11959,3.10474c4.21443,3.29785 8.8318,6.42847 13.37512,9.24805c1.872,1.16175 5.11777,2.16578 3.92632,4.53172c-1.28613,0.94603 -2.52811,2.66808 -3.9966,3.33541c0.24498,0.40983 0.36826,0.81949 0.29773,1.20947c-0.09924,0.54895 -1.84945,1.81177 -2.27065,2.23397c-2.51286,2.51895 -5.09152,6.04181 -8.87269,5.88404c-5.8917,1.50637 -13.69693,-3.03482 -17.55041,-7.52544c-1.57482,-4.26108 -1.2605,-7.80184 -0.72929,-12.23782c0.38355,-3.20292 0.19213,-6.29359 0.93328,-9.4879c0.45755,-4.58894 1.04612,-9.14977 1.50924,-13.73646c0.21256,-2.10511 -0.25857,-4.21116 1.80575,-5.08935c3.45872,0.61777 6.95495,1.24398 10.41407,1.94946c1.07827,0.21992 3.25347,0.74368 3.92852,1.7819c0.93811,1.44285 -0.24973,2.92213 -1.03979,4.07627c-1.40061,2.78239 -3.0732,5.75131 -4.92487,8.53951c0.11065,0.32456 -0.05529,0.65259 -0.05529,0.65259c-0.26743,0.52738 -0.56069,1.03457 -0.87008,1.52988zM335.40148,199.30343c-3.50462,-1.96828 -6.26805,-4.92549 -9.66946,-6.97495c-2.02724,-1.1649 -5.79264,-2.92323 -7.58777,-5.32044c-0.13401,-0.07547 -0.21676,-0.16929 -0.21676,-0.16929l-0.51086,-0.58408c-0.58782,-0.46895 -1.02864,-1.14685 -1.3657,-1.84213c2.41941,-5.66027 7.24527,-10.18101 10.07021,-15.74152c0.39721,-0.57898 1.01251,-1.36537 1.23084,-2.03906c0.13428,-0.41435 -2.20042,-1.24135 -2.48714,-1.32575c-3.49094,-1.0274 -7.18809,-1.17899 -10.71238,-2.05825c-0.37214,-0.00235 -0.38678,3.06626 -0.45176,3.70518c-0.46985,4.61982 -1.04761,9.21619 -1.52281,13.83764c-0.7341,3.17819 -0.54865,6.23194 -0.92353,9.42033c-0.47713,4.05817 -0.83978,7.29604 0.51828,11.20684c3.67757,4.00191 10.72227,8.19525 16.16365,6.80401c3.69381,0.09397 7.39979,-4.38674 9.86022,-6.876c0.02608,-0.02639 -1.27187,-1.11999 -2.34131,-2.01185c-0.01815,-0.01053 -0.03605,-0.02077 -0.05369,-0.0307z" fill="#000000" stroke="none" stroke-width="0.5" stroke-linecap="butt"/><path d="M324.79901,184.59835c3.73883,2.89748 7.95438,6.05867 12.00963,8.47737c1.15687,0.69 2.28169,1.40886 3.41893,2.13644c0.38294,0.24498 1.39609,0.64405 1.74815,0.77676c-1.21835,0.87336 -2.30087,2.49558 -3.64076,3.09818c-0.15757,0.07085 -0.44524,-0.00703 -0.78536,-0.16337c-0.95335,-0.81864 -2.04036,-1.51606 -2.51828,-1.89843c-5.11889,-4.70661 -11.08548,-8.2281 -16.39809,-12.61587c0.19694,-0.58943 1.03881,-1.57492 1.10433,-1.66825c0.29693,-0.42294 0.59805,-0.84855 0.88964,-1.27305c1.27842,1.19819 2.73425,2.25746 4.17181,3.1302z" data-paper-data="{&quot;noHover&quot;:false,&quot;origItem&quot;:[&quot;Path&quot;,{&quot;applyMatrix&quot;:true,&quot;segments&quot;:[[[926.17844,407.1979],[3.2606,1.25965],[-0.27949,0.97418]],[[925.31465,410.11917],[0.29084,-0.97519],[-0.06418,0.21521]],[[924.29914,413.90358],[-0.01258,-1.20526],[13.15638,4.16543]],[[964.1057,425.02121],[-12.99513,-4.87922],[1.17537,0.35239]],[[970.21765,426.67451],[-2.3817,-0.804],[0.75941,0.04146]],[[971.83798,426.41666],[-0.25651,0.23985],[2.18115,-2.03947]],[[976.78433,418.26967],[-1.76682,2.44279],[-0.76669,0.00973]],[[972.89889,418.10481],[0.90089,0.17138],[-2.67549,-0.50896]],[[964.88923,416.67374],[2.68829,0.42712],[-9.42353,-1.49721]],[[936.29671,409.90591],[9.13228,2.58714],[-3.35077,-0.55846]]],&quot;closed&quot;:true}]}" fill="#ffffff" stroke="none" stroke-width="0.5" stroke-linecap="butt"/><path d="M334.05143,198.16017c0.17686,0.1416 3.82263,3.17884 3.77949,3.2225c-2.46042,2.48926 -6.19215,6.98435 -9.88595,6.89038c-5.44138,1.39123 -12.52788,-2.8151 -16.20546,-6.81702c-1.35808,-3.91079 -1.00977,-7.17503 -0.53265,-11.23322c0.37486,-3.18839 0.19295,-6.27629 0.92704,-9.45447c0.47521,-4.62143 1.07294,-9.24061 1.5428,-13.86043c0.06499,-0.63891 0.08336,-3.70956 0.4555,-3.7072c3.52429,0.87927 7.24296,1.02619 10.73391,2.0536c0.28673,0.08439 2.62777,0.91203 2.49348,1.32637c-0.21833,0.6737 -0.84638,1.56298 -1.24358,2.14197c-2.82492,5.56051 -7.59895,10.04418 -10.01838,15.70446c0.33706,0.69529 0.77959,1.36375 1.36742,1.8327l0.5111,0.58006c0,0 0.40298,0.56517 0.93523,0.03181c0.05329,-0.05339 0.19356,-0.10356 0.22768,-0.15704c4.9573,3.89349 10.21393,7.13247 14.9124,11.44554z" data-paper-data="{&quot;noHover&quot;:false,&quot;origItem&quot;:[&quot;Path&quot;,{&quot;applyMatrix&quot;:true,&quot;segments&quot;:[[[926.61254,417.73069],[12.14285,3.5238],[-0.03018,0.12086]],[[926.46822,418.11346],[0.06716,-0.13431],[-0.67082,1.34164]],[924.45576,418.78428],[[923.08279,418.0906],[0,0],[-1.44471,-0.43097]],[[919.22563,415.72869],[1.11205,1.01797],[0.89694,-11.9485]],[[928.15956,380.1298],[-1.74473,12.05571],[0.38029,-1.32836]],[[929.175,375.57071],[0.02742,1.37277],[-0.01686,-0.84429]],[[923.5003,374.93752],[0.60865,-0.05075],[-7.41054,0.61792]],[[901.48814,378.8123],[7.37628,-0.90935],[-0.71866,0.25961]],[[903.08234,385.83106],[-0.2998,-1.20115],[2.16779,8.68513]],[[909.35292,411.92731],[-2.15853,-8.69186],[0.69956,6.26621]],[[913.83986,429.61277],[-1.39861,-6.02998],[1.78014,7.67491]],[[922.29365,449.50563],[-5.21858,-6.1072],[9.74892,4.62723]],[[957.96755,450.34516],[-9.56021,6.37347],[7.18055,-2.44927]],[[972.39433,430.92276],[-3.08539,6.24485],[0.05411,-0.10951]],[[963.14745,427.86406],[0.43501,0.13058],[-11.92317,-4.46591]]],&quot;closed&quot;:true}]}" fill="#66c8ff" stroke="none" stroke-width="0.5" stroke-linecap="butt"/></g><g data-paper-data="{&quot;index&quot;:null}" fill="#fffc96" stroke="#000000" stroke-width="2" stroke-linecap="round"><path d="M308.9529,171.17023c0.51279,-2.01343 3.5066,-1.19812 3.5066,-1.19812l-0.26487,1.92257c0,0 3.62018,3.19331 8.92028,6.54088c-0.5478,1.23455 -0.90757,2.16878 -1.09712,2.97881c-6.25479,-3.71691 -11.62423,-8.04804 -11.06491,-10.24418z"/><path d="M307.13478,184.92087c0.29872,-2.89652 3.68594,-2.97612 3.68594,-2.97612l-0.15573,1.41989c0,0 3.72259,-0.39056 9.3654,-2.00315c-0.25544,1.05766 -0.22398,1.90002 0.05544,2.91139c-6.9733,1.96389 -13.16746,2.74649 -12.95104,0.64796z" data-paper-data="{&quot;index&quot;:null}"/></g></g><g data-paper-data="{&quot;origRot&quot;:0}" stroke="#000000" stroke-linecap="round"><path d="M302.94985,224.36952c0,0 -1.15633,-4.82941 0.31062,-5.17902c4.32874,-1.03155 8.1434,-3.74304 12.53555,-3.08302c1.82386,0.27408 3.43515,4.38212 3.43515,4.38212l11.46156,32.12904c0,0 1.22405,3.3011 1.86463,5.22423c0.68489,2.05614 0.39635,5.4785 -1.57297,6.07384c-7.23061,2.18599 -11.3571,4.96775 -16.18717,5.10243c-1.75969,0.04906 -3.63019,-0.02199 -4.68079,-1.52747c-1.37238,-1.96654 -1.72459,-6.60443 -1.72459,-6.60443z" data-paper-data="{&quot;origPos&quot;:null}" fill="#ff0000" stroke-width="3"/><path d="M333.36641,261.21512c0,0 -4.98769,4.14263 -9.79367,5.42779c-3.68733,0.98602 -11.91649,2.09056 -11.91649,2.09056c0,0 -1.89605,-2.28407 -2.35944,-3.873c-0.48816,-1.67383 -0.0788,-4.48744 -0.0788,-4.48744l21.83337,-6.69192z" data-paper-data="{&quot;origPos&quot;:null}" fill="#976e57" stroke-width="2"/><path d="M303.10277,224.67206c0,0 -1.15633,-4.82941 0.31061,-5.17901c4.32873,-1.03154 8.1434,-3.74305 12.53556,-3.08299c1.82386,0.27408 3.43514,4.38212 3.43514,4.38212l11.46155,32.12904c0,0 1.22408,3.3011 1.86466,5.22422c0.68489,2.05614 0.39635,5.47849 -1.57297,6.07384c-7.23061,2.18599 -11.3571,4.96776 -16.18717,5.10244c-1.75969,0.04906 -3.63019,-0.02202 -4.68077,-1.52748c-1.37238,-1.96654 -1.7246,-6.60442 -1.7246,-6.60442z" data-paper-data="{&quot;origPos&quot;:null}" fill="#4b4b4b" stroke-width="3"/></g><path d="M297.16133,261.81145c0,0 -0.10639,4.65167 -1.37256,6.69755c-0.9693,1.5662 -2.83309,1.74956 -4.59255,1.80634c-4.82951,0.15579 -9.09653,-2.37361 -16.43127,-4.12163c-1.99765,-0.47609 -2.46675,-3.87566 -1.8917,-5.96966c0.53784,-1.95855 1.58538,-5.32794 1.58538,-5.32794l9.74406,-32.7667c0,0 1.39146,-4.19833 3.19792,-4.58156c4.35025,-0.92292 8.30228,1.55503 12.67866,2.32482c1.4831,0.26088 0.58403,5.15208 0.58403,5.15208c0,0 -0.88548,9.30182 -1.45225,15.25546c-0.79991,8.40285 -2.04969,21.53126 -2.04969,21.53126z" fill="#4b4b4b" stroke="#000000" stroke-width="3" stroke-linecap="round"/><g><g><path d="M279.23405,178.56083c0,0 0.89603,-15.06512 2.95462,-15.79049c6.17575,-2.17613 20.61645,-2.29596 30.22547,-3.02019c1.48546,-0.11196 3.698,13.80711 3.698,13.80711l3.83432,31.58945c0,0 1.26401,15.47328 -0.35647,15.59542c-14.42529,1.08724 -31.27411,3.24458 -37.76155,2.85828c-2.16247,-0.12877 -2.44053,-16.50879 -2.44053,-16.50879z" data-paper-data="{&quot;origPos&quot;:null}" fill="#66c8ff" stroke="#000000" stroke-width="3.5" stroke-linecap="round"/><path d="M298.10694,185.67186c-1.25498,0.09458 -1.42588,-2.48157 -1.42588,-2.48157c-0.35444,-5.34314 -0.82283,-12.40371 -1.17727,-17.74685c0,0 -0.1709,-2.57615 1.08408,-2.67074c1.25498,-0.09458 1.42588,2.48155 1.42588,2.48155c0.35444,5.34314 0.70889,10.68628 1.06335,16.02942l0.11393,1.71743c0,0 0.1709,2.57616 -1.08408,2.67075z" fill="#ffffff" stroke="none" stroke-width="0.5" stroke-linecap="butt"/><path d="M310.20124,191.35216c-1.25498,0.09458 -1.46968,-3.14179 -1.46968,-3.14179c-0.4453,-6.71249 -1.03371,-15.58257 -1.479,-22.29506c0,0 -0.2147,-3.23637 1.04031,-3.33096c1.25498,-0.09458 1.46968,3.14179 1.46968,3.14179c0.4453,6.71249 0.89056,13.42499 1.33586,20.13747l0.14312,2.15758c0,0 0.2147,3.23638 -1.04031,3.33097z" fill="#ffffff" stroke="none" stroke-width="0.5" stroke-linecap="butt"/></g><g fill="none" stroke="#b9b9b9" stroke-width="3"><path d="M310.64648,165.12339c-0.89732,-1.3459 -0.09362,-2.67582 1.0109,-4.02683c1.10456,-1.35097 2.27155,-1.82604 2.98901,-0.86555c1.52123,2.03654 0.1412,3.15588 -0.72369,4.21374c-1.10456,1.35099 -2.00898,2.57941 -3.27623,0.67866z" stroke-linecap="butt"/><path d="M311.56221,164.43952l-2.34332,2.7989" stroke-linecap="round"/><path d="M305.81636,168.14989c1.10456,-1.35097 2.27156,-1.82604 2.98901,-0.86555c1.52123,2.03654 0.1412,3.15588 -0.72369,4.21374c-1.10454,1.35098 -2.00897,2.5794 -3.27623,0.67865c-0.89732,-1.3459 -0.09366,-2.67583 1.01089,-4.02684z" stroke-linecap="butt"/><path d="M305.72116,171.49284l-2.3433,2.79892" stroke-linecap="round"/><path d="M297.88418,174.23508c0.27694,-1.72271 1.58763,-1.66055 3.09579,-1.29667c1.50816,0.36389 2.51614,1.30453 2.36578,2.6144c-0.3188,2.77727 -1.85355,1.99055 -3.03448,1.70563c-1.50815,-0.36388 -2.81819,-0.59044 -2.42707,-3.02332z" stroke-linecap="butt"/><path d="M295.7081,173.98022l3.15826,0.81129" stroke-linecap="round"/><path d="M290.58833,170.2306c0.77718,-1.42905 1.97269,-0.69992 3.26,0.40573c1.28732,1.10564 1.93695,2.48069 1.40182,3.59818c-1.13461,2.36936 -2.31879,0.86442 -3.32681,-0.00132c-1.28732,-1.10565 -2.43258,-1.98441 -1.33504,-4.00257z" stroke-linecap="butt"/><path d="M288.64927,168.88172l2.68089,2.36026" stroke-linecap="round"/><path d="M283.84857,164.36397c0.77718,-1.42903 1.97268,-0.69992 3.26,0.40573c1.28733,1.10564 1.93695,2.48069 1.40182,3.59818c-1.13461,2.36935 -2.31879,0.86442 -3.32681,-0.00132c-1.28732,-1.10564 -2.43256,-1.9844 -1.33502,-4.00257z" stroke-linecap="butt"/><path d="M281.90953,163.01507l2.6809,2.36026" stroke-linecap="round"/></g></g><path d="M304.40254,148.6564c0,0 -2.61931,0.63475 -5.87575,0.8205" fill="none" stroke="#000000" stroke-width="2.5" stroke-linecap="round"/><path d="M313.14399,159.09072c-11.45901,2.87926 -22.57918,5.63488 -27.3463,5.71002c-4.35684,0.0687 -6.201,-2.42681 -6.201,-2.42681c0,0 -2.18982,-2.0651 -2.59933,-3.59785c-1.22849,-4.59826 -4.15562,-17.89002 -5.68181,-29.58932c-0.05095,-0.39047 -0.06629,-0.61187 -0.09531,-1.00489c-0.08708,-1.17901 -0.24457,-5.79865 -0.24457,-5.79865c0,0 2.67658,-2.40754 4.22199,-3.2818c4.6363,-2.62274 17.51098,-4.12244 30.82299,-6.86852c1.20656,-0.24889 3.6201,0.96199 3.6201,0.96199c0,0 2.13453,2.82746 2.51197,4.84714c2.44028,13.05749 5.0952,27.51426 5.5006,30.8677c0.13514,1.11781 -0.71656,5.78005 -0.71656,5.78005z" fill="#592800" stroke="#000000" stroke-width="2.5" stroke-linecap="round"/><path d="M267.07585,124.17682c-0.85772,-0.92106 0.00637,-1.83534 0.00637,-1.83534l1.07857,-1.08115c0.10454,-0.06441 0.20915,-0.12802 0.31385,-0.19085c-2.22756,-5.61582 -2.6855,-12.94336 -3.95813,-18.72337c-0.33004,-1.49896 -1.56036,-5.47796 -1.15657,-6.93108c0.67615,-2.43329 2.43006,-2.22843 4.22917,-2.673c3.06114,-0.75643 6.10627,-1.46693 9.03104,-2.69307c7.25213,-3.02984 14.64133,-5.12768 22.03625,-7.67392c2.33353,-0.80347 4.63895,-1.46921 7.07945,-1.84123c0.66776,-0.1018 1.4508,-0.56261 2.01723,-0.17214c2.00612,1.38291 1.73985,3.53571 1.86776,5.59501c0.25511,4.10763 -0.50647,8.05548 0.25654,12.13826c0.56415,3.12768 0.80365,6.42047 1.09762,9.58773c0.10143,1.093 0.85024,2.97881 0.01552,4.02376c-1.71158,2.14262 -7.33789,2.23768 -9.76599,2.74536c-7.4037,1.54799 -14.84349,2.9347 -22.15314,4.93001c-2.59238,0.80919 -5.04617,1.66291 -7.43276,2.86419c0.05657,0.3831 -0.00728,0.90793 -0.61213,1.27319c-0.65626,0.3963 -1.13628,0.11373 -1.40657,-0.15867c-0.07976,0.0482 -0.15943,0.09692 -0.23908,0.14612l-0.5831,0.67695c0,0 -0.8641,0.91425 -1.72184,-0.00681z" fill="#000000" stroke="none" stroke-width="0.5" stroke-linecap="butt"/><path d="M289.57601,138.19318c3.97712,-3.51339 8.48358,-2.19762 10.98388,2.32357c2.86756,5.18526 -0.15767,9.18113 -0.15767,9.18113c0,0 -2.65192,-0.54765 -5.82291,-0.2383c-3.94838,0.3852 -5.97165,1.32849 -5.97165,1.32849c0,0 -4.42705,-7.82859 0.96835,-12.59491z" fill="#ffffff" stroke="#0a0a0a" stroke-width="2" stroke-linecap="butt"/><path d="M314.44079,133.44187c6.53078,2.7079 4.64766,11.6256 4.64766,11.6256c0,0 -2.19916,-0.2145 -6.05982,0.74809c-3.10053,0.77307 -5.45481,2.18478 -5.45481,2.18478c0,0 -4.05365,-2.77411 -2.86776,-8.65897c1.03402,-5.13119 4.92065,-7.89559 9.7347,-5.89952z" data-paper-data="{&quot;index&quot;:null}" fill="#ffffff" stroke="#0a0a0a" stroke-width="2" stroke-linecap="butt"/><g data-paper-data="{&quot;index&quot;:null}"><path d="M288.05646,164.83561c0,0 9.70885,24.41581 5.64769,38.0691c-1.22382,4.11436 -12.45661,10.53249 -13.48464,10.82378c-4.43951,1.25793 -23.60174,-17.39302 -23.60174,-17.39302c0,0 -8.97572,-7.95659 -11.41134,-12.6205c10.09885,-16.37639 20.33477,-20.21007 20.33477,-20.21007c1.53959,-1.6887 6.24645,5.08301 6.24645,5.08301l14.51927,18.82695l-2.24268,-2.80228c0,0 -13.00913,-16.72712 -10.57617,-16.90292c2.23852,-0.16177 14.88376,-6.19578 14.56838,-2.87405z" fill="#582700" stroke="#000000" stroke-width="2.5" stroke-linecap="round"/><path d="M282.4936,183.70747c-1.13905,1.3485 -2.46648,2.5836 -3.79909,3.62859c-3.3974,3.34121 -7.16646,6.9393 -10.93039,9.8442c-1.07374,0.82869 -2.11413,1.67885 -3.16429,2.54244c-0.35363,0.29079 -1.31633,0.81279 -1.65153,0.98821c1.30536,0.71641 2.54593,2.17901 3.94247,2.61143c0.16423,0.05086 0.43988,-0.06346 0.76063,-0.26088c0.85759,-0.93124 1.858,-1.76094 2.291,-2.19998c4.57075,-5.30911 10.04605,-9.47371 14.844,-14.49014c-0.25991,-0.56102 -1.19912,-1.42936 -1.2744,-1.51396c-0.34105,-0.38328 -0.68251,-0.76443 -1.01843,-1.1499zM281.51652,182.54155c-0.36132,-0.4536 -0.70791,-0.921 -1.03105,-1.41166c0,0 -0.20061,-0.30526 -0.12609,-0.64132c-2.14328,-2.53981 -4.12836,-5.28129 -5.82299,-7.87122c-0.9106,-1.04838 -2.25172,-2.37041 -1.47739,-3.91975c0.55721,-1.11485 2.66051,-1.90463 3.7075,-2.25671c3.35871,-1.12941 6.76292,-2.18471 10.1308,-3.22694c2.14613,0.61639 1.90793,2.76655 2.34868,4.83103c0.96031,4.4982 2.04241,8.95515 2.99744,13.45625c1.08459,3.08079 1.2316,6.17423 1.96193,9.30789c1.01151,4.34005 1.70994,7.81785 0.61061,12.24522c-3.33749,4.93776 -10.59442,10.41551 -16.61047,9.64956c-3.73831,0.62534 -6.68378,-2.55404 -9.45437,-4.74446c-0.4644,-0.36715 -2.34047,-1.40447 -2.49895,-1.9374c-0.11257,-0.3786 -0.0348,-0.80076 0.16379,-1.23816c-1.53133,-0.48081 -2.95273,-2.03723 -4.33331,-2.81746c-1.44146,-2.20222 1.67277,-3.6017 3.40535,-4.9876c4.20493,-3.36356 8.44948,-7.0452 12.27559,-10.84301c1.31284,-1.02949 2.64101,-2.2533 3.75297,-3.59426zM269.79722,203.21392c-0.01645,0.01204 -0.03312,0.02442 -0.04999,0.03714c-0.96489,1.01835 -2.13475,2.26539 -2.10595,2.28837c2.71529,2.16743 6.8849,6.15845 10.54338,5.60732c5.55622,0.7074 12.09573,-4.3306 15.31183,-8.76115c0.92227,-4.0526 0.20886,-7.22355 -0.7077,-11.19506c-0.72013,-3.1203 -0.86905,-6.17635 -1.94488,-9.24197c-0.9761,-4.53121 -2.05133,-9.02479 -3.02195,-13.55505c-0.13424,-0.62652 -0.48353,-3.67251 -0.85287,-3.62406c-3.40446,1.3101 -7.06001,1.91887 -10.41519,3.37197c-0.27557,0.11935 -2.50423,1.23011 -2.32566,1.62501c0.29034,0.64208 0.98725,1.34686 1.44493,1.87267c3.41234,5.17268 8.69859,9.06464 11.71903,14.38666c-0.25893,0.73235 -0.62281,1.46028 -1.15549,1.9989l-0.44369,0.64343c0,0 -0.07196,0.10345 -0.19683,0.19502c-1.52145,2.60344 -5.0695,4.81652 -6.95594,6.22477c-3.1548,2.45713 -5.57689,5.73677 -8.84304,8.12605z" fill="#000000" stroke="none" stroke-width="0.5" stroke-linecap="butt"/><path d="M278.72369,187.29454c1.33261,-1.045 2.66303,-2.27752 3.80207,-3.62601c0.33591,0.38547 0.6814,0.77087 1.02247,1.15415c0.07527,0.08458 1.01893,0.95905 1.27883,1.52007c-4.79795,5.01645 -10.33992,9.25353 -14.91069,14.56264c-0.43299,0.43901 -1.43654,1.26643 -2.29412,2.19766c-0.32075,0.19742 -0.59797,0.31043 -0.76222,0.25959c-1.39654,-0.43244 -2.64866,-1.9095 -3.95402,-2.62593c0.33519,-0.17543 1.29795,-0.69736 1.65156,-0.98815c1.05015,-0.86359 2.08893,-1.717 3.16268,-2.54568c3.76391,-2.9049 7.60603,-6.56711 11.00342,-9.90833z" data-paper-data="{&quot;noHover&quot;:false,&quot;origItem&quot;:[&quot;Path&quot;,{&quot;applyMatrix&quot;:true,&quot;segments&quot;:[[[926.17844,407.1979],[3.2606,1.25965],[-0.27949,0.97418]],[[925.31465,410.11917],[0.29084,-0.97519],[-0.06418,0.21521]],[[924.29914,413.90358],[-0.01258,-1.20526],[13.15638,4.16543]],[[964.1057,425.02121],[-12.99513,-4.87922],[1.17537,0.35239]],[[970.21765,426.67451],[-2.3817,-0.804],[0.75941,0.04146]],[[971.83798,426.41666],[-0.25651,0.23985],[2.18115,-2.03947]],[[976.78433,418.26967],[-1.76682,2.44279],[-0.76669,0.00973]],[[972.89889,418.10481],[0.90089,0.17138],[-2.67549,-0.50896]],[[964.88923,416.67374],[2.68829,0.42712],[-9.42353,-1.49721]],[[936.29671,409.90591],[9.13228,2.58714],[-3.35077,-0.55846]]],&quot;closed&quot;:true}]}" fill="#ffffff" stroke="none" stroke-width="0.5" stroke-linecap="butt"/><path d="M271.01339,201.91106c4.1961,-4.86614 9.06378,-8.73465 13.56272,-13.21612c0.03973,0.04889 0.18452,0.08132 0.24328,0.12776c0.5868,0.46379 0.9254,-0.14749 0.9254,-0.14749l0.44435,-0.63946c0.53268,-0.53862 0.8993,-1.2574 1.15823,-1.98974c-3.02045,-5.32202 -8.25119,-9.18359 -11.66352,-14.35628c-0.45768,-0.52583 -1.17846,-1.33123 -1.46879,-1.9733c-0.1786,-0.3949 2.05631,-1.50706 2.33189,-1.62639c3.35517,-1.45309 7.0326,-2.05988 10.43707,-3.36999c0.36935,-0.04845 0.72257,2.99908 0.85679,3.62559c0.97062,4.53024 2.06817,9.044 3.04426,13.5752c1.07581,3.06564 1.23195,6.15512 1.9521,9.27543c0.91658,3.97152 1.61859,7.17045 0.69633,11.22303c-3.21608,4.43056 -9.79569,9.48664 -15.35192,8.77923c-3.65847,0.55114 -7.85525,-3.45097 -10.57051,-5.61839c-0.04763,-0.03801 3.2421,-3.50651 3.40232,-3.66906z" data-paper-data="{&quot;noHover&quot;:false,&quot;origItem&quot;:[&quot;Path&quot;,{&quot;applyMatrix&quot;:true,&quot;segments&quot;:[[[926.61254,417.73069],[12.14285,3.5238],[-0.03018,0.12086]],[[926.46822,418.11346],[0.06716,-0.13431],[-0.67082,1.34164]],[924.45576,418.78428],[[923.08279,418.0906],[0,0],[-1.44471,-0.43097]],[[919.22563,415.72869],[1.11205,1.01797],[0.89694,-11.9485]],[[928.15956,380.1298],[-1.74473,12.05571],[0.38029,-1.32836]],[[929.175,375.57071],[0.02742,1.37277],[-0.01686,-0.84429]],[[923.5003,374.93752],[0.60865,-0.05075],[-7.41054,0.61792]],[[901.48814,378.8123],[7.37628,-0.90935],[-0.71866,0.25961]],[[903.08234,385.83106],[-0.2998,-1.20115],[2.16779,8.68513]],[[909.35292,411.92731],[-2.15853,-8.69186],[0.69956,6.26621]],[[913.83986,429.61277],[-1.39861,-6.02998],[1.78014,7.67491]],[[922.29365,449.50563],[-5.21858,-6.1072],[9.74892,4.62723]],[[957.96755,450.34516],[-9.56021,6.37347],[7.18055,-2.44927]],[[972.39433,430.92276],[-3.08539,6.24485],[0.05411,-0.10951]],[[963.14745,427.86406],[0.43501,0.13058],[-11.92317,-4.46591]]],&quot;closed&quot;:true}]}" fill="#66c8ff" stroke="none" stroke-width="0.5" stroke-linecap="butt"/></g><g data-paper-data="{&quot;index&quot;:null}" stroke="#000000" stroke-width="1.25" stroke-linecap="butt"><path d="M293.80228,164.07064c-9.61591,1.14207 -8.3844,-9.22272 -8.3844,-9.22272l14.29897,-1.82677c0,0 4.26609,9.84035 -5.91457,11.04949z" fill="#000000"/><path d="M292.23298,161.23905c2.73527,0.45784 4.98963,1.90867 4.58917,2.07817c-0.82752,0.35027 -1.82403,0.61138 -3.01987,0.75341c-3.58401,0.42567 -5.66112,-0.74717 -6.85675,-2.38607c-0.23227,-0.31839 2.77568,-0.86596 5.28744,-0.44552z" fill="#ff8484"/><path d="M285.67645,158.2546c-0.13766,-1.3876 -0.25856,-3.40669 -0.25856,-3.40669l12.56671,-1.60546l0.50022,3.47365c0,0 -12.80385,1.58424 -12.80838,1.5385z" fill="#ffffff"/></g><path d="M288.31224,195.55134l-0.09114,0.18312c-2.13653,-0.28788 -3.59929,-1.24732 -5.64206,-1.7619c-1.40393,-0.35366 -2.31081,0.00214 -3.75955,-0.50005c-0.89953,-0.31182 -1.6955,-1.10359 -2.64703,-1.07263c-2.394,0.0779 -3.07865,2.08334 -5.86145,1.80258c-1.17027,-0.11807 -1.93294,-1.48028 -3.08644,-1.71031c-1.05482,-0.21034 -3.50224,1.88561 -4.56495,2.13138c-4.05878,0.93861 -6.76032,-0.6316 -9.68258,-3.15268c-2.95927,-2.55302 -7.64047,-5.33735 -6.87807,-9.98798c0.35014,-2.1358 2.28576,-3.82488 3.61908,-5.37038c2.82951,-3.27975 6.25133,-6.90248 9.65826,-9.61376c1.45741,-1.15982 4.34937,-2.9513 6.30949,-2.6689c1.16373,0.16765 2.80176,1.73469 3.6959,2.50241c5.05398,4.37622 9.86925,10.61879 13.39771,16.29237c1.89608,3.04881 3.16458,5.87543 5.45486,8.38932c1.33675,-0.02092 1.64527,1.38868 1.64527,1.38868l-0.07105,0.14275c0.2518,0.25464 1.10373,1.26274 0.11711,2.40634c-0.5519,0.63973 -1.14623,0.70414 -1.61334,0.59963z" data-paper-data="{&quot;index&quot;:null}" fill="#000000" stroke="none" stroke-width="0.5" stroke-linecap="butt"/><path d="M293.71033,247.7413c1.56444,1.34715 3.87684,4.19928 4.36741,6.34002c0.30408,1.32695 -0.01851,2.10597 -0.3704,3.02036c0.72906,-0.0959 1.48056,-0.27176 1.94695,0.20352c2.7161,2.76788 -1.14161,6.39477 -1.68996,8.70916c-0.31563,1.33217 0.68228,2.85327 0.12813,4.10516c-1.73556,3.92091 -6.53967,4.17756 -10.05184,3.74421l-1.83294,-1.08649c0,0 -0.01415,-0.01061 -0.03853,-0.03112c-3.16788,1.35269 -8.08616,-0.37246 -11.41147,-0.36888c-4.81052,0 -9.36594,-0.64811 -14.12406,-1.0044c-5.34433,-0.40019 -12.01696,-0.27614 -17.11048,-2.60721c-1.28269,-0.58703 -4.43308,0.01165 -5.70183,-0.60492c-1.11563,-0.54216 -2.76648,1.24787 -3.89052,0.72337c-0.95024,-0.44339 -3.65825,0.71609 -4.48737,0.07413c0.15286,-1.17627 4.31273,-6.3797 4.92524,-7.39547c0.69137,-1.14653 1.71896,-1.21233 2.65157,-2.17293c2.15861,-2.22343 2.59205,-3.1233 7.0535,-3.01132c2.33691,0.05866 5.00278,-0.10352 7.43927,-0.48406c1.28362,-0.20048 2.41399,-1.02233 3.69459,-1.24127c3.42955,-0.58635 7.04312,-0.73477 10.54895,-0.47954c0.01519,-0.35425 2.25908,-0.48867 2.22335,-0.82415l1,-0.80556c0,0 1.39628,0.46121 1.52426,0.06309c0.03691,-0.11483 1.49576,0.28204 1.75792,0.20692c0.56342,-0.5226 2.98485,-0.63712 3.15007,-1.35157c0.18126,-0.78383 0.76539,-3.07132 1.27887,-3.69067c0.26525,-0.31994 -0.32495,-2.08273 0.76738,-2.45017c0.7973,-0.26819 0.30865,-0.45896 0.65998,-0.44077c0.48929,0.02533 -0.17111,1.25518 0.63931,1.2465c1.329,-0.01424 2.13628,3.89235 3.46069,4.0035c2.02568,0.17001 2.5999,-4.46965 4.13714,-3.66106c1.85056,0.97341 1.6532,2.77652 3.26511,3.49909c0.89022,-0.31275 4.08971,-2.22747 4.08971,-2.22747z" fill="#000000" stroke="none" stroke-width="0.5" stroke-linecap="butt"/><g fill="#000000" stroke="none" stroke-width="0" stroke-linecap="butt"><path d="M236.05008,172.5674c-0.46357,0.49306 -1.67074,0.11109 -2.6963,-0.85313c-1.02555,-0.96422 -1.48113,-2.14559 -1.01756,-2.63865c0.46357,-0.49306 1.67074,-0.11109 2.6963,0.85313c1.02555,0.96422 1.48113,2.14559 1.01756,2.63865z"/><path d="M229.72961,171.13246c-0.29668,0.31556 -1.12876,0.01518 -1.85848,-0.67091c-0.72972,-0.68609 -1.08077,-1.49808 -0.78408,-1.81363c0.29668,-0.31556 1.12876,-0.01518 1.85848,0.67091c0.72972,0.68609 1.08077,1.49808 0.78408,1.81363z"/></g><g fill="#000000" stroke="none" stroke-width="0" stroke-linecap="butt"><path d="M252.05008,239.0674c-0.46357,0.49306 -1.67074,0.11109 -2.6963,-0.85313c-1.02555,-0.96422 -1.48113,-2.14559 -1.01756,-2.63865c0.46357,-0.49306 1.67074,-0.11109 2.6963,0.85313c1.02555,0.96422 1.48113,2.14559 1.01756,2.63865z"/><path d="M245.72961,237.63246c-0.29668,0.31556 -1.12876,0.01518 -1.85848,-0.67091c-0.72972,-0.68609 -1.08077,-1.49808 -0.78408,-1.81363c0.29668,-0.31556 1.12876,-0.01518 1.85848,0.67091c0.72972,0.68609 1.08077,1.49808 0.78408,1.81363z"/></g></g></g></svg>