<svg version="1.1" xmlns="http://www.w3.org/2000/svg" xmlns:xlink="http://www.w3.org/1999/xlink" width="306.30631" height="274.77477" viewBox="0,0,306.30631,274.77477"><g transform="translate(-86.84686,-42.61264)"><g data-paper-data="{&quot;isPaintingLayer&quot;:true}" fill-rule="nonzero" stroke-linecap="butt" stroke-linejoin="miter" stroke-miterlimit="10" stroke-dasharray="" stroke-dashoffset="0" style="mix-blend-mode: normal"><path d="M86.84686,317.38741v-274.77477h306.30631v274.77477z" data-paper-data="{&quot;index&quot;:null}" fill="none" stroke="none" stroke-width="0"/><text transform="translate(271.55605,110.72268) rotate(-180) scale(0.1602,-0.1602)" font-size="40" xml:space="preserve" data-paper-data="{&quot;index&quot;:null}" fill="#000000" fill-rule="nonzero" stroke="none" stroke-width="1" stroke-linecap="butt" stroke-linejoin="miter" stroke-miterlimit="10" stroke-dasharray="" stroke-dashoffset="0" font-family="Sans Serif" font-weight="normal" text-anchor="start" style="mix-blend-mode: normal"><tspan x="0" dy="0">AwezomeXD</tspan><tspan x="0" dy="46.150000000000006px"> </tspan><tspan x="0" dy="46.150000000000006px">MeIzAwezomeDede</tspan></text><g data-paper-data="{&quot;index&quot;:null}"><g><g><g><path d="M197.72502,130.97915c0,0 -4.95946,-11.15428 2.42121,-16.80077c5.23912,-4.00812 22.1067,-1.13352 33.24227,-3.63176c12.65857,-2.83993 36.32509,-9.16132 36.32509,-9.16132c0,0 5.84899,2.25388 7.85584,1.87611c2.50577,-0.4717 4.52931,-4.24217 4.52931,-4.24217c0,0 1.19876,3.99997 1.46802,7.34983c1.01416,12.6177 -9.15024,13.94175 -9.15024,13.94175c0,0 4.76958,5.16322 5.50543,9.40383c0.77348,4.45766 -2.65393,7.35361 -2.65393,7.35361c0,0 3.014,3.15648 3.65182,6.69905c0.42106,2.33868 0.43046,6.269 0.4008,8.72397c-0.05057,4.18938 8.09262,7.23805 8.09262,7.23805c0,0 -3.64277,3.76234 -6.41986,4.64599c-2.82664,0.89941 -9.71878,-1.25134 -9.71878,-1.25134c0,0 -2.44501,0.9638 -2.56527,3.82923c-0.03791,0.90328 0.51202,2.89768 0.78426,3.81143c0.9183,3.08211 -0.79972,5.56794 -0.79972,5.56794c0,0 -2.02344,-3.22733 -2.96223,-3.97358c-0.68901,-0.54771 -1.33324,-0.66013 -1.33324,-0.66013c0,0 -0.85961,4.4805 -0.14125,6.89586c1.59778,5.37227 4.57337,11.90503 3.304,12.20691c-2.29525,0.54582 -5.5401,-2.99943 -8.26008,-3.07339c-2.5035,-0.06806 -5.84336,-6.09074 -5.84336,-6.09074c0,0 -1.12173,7.00275 -3.92038,8.21421c-2.71581,1.17564 -3.70322,6.49713 -4.88189,6.77071c-4.29665,0.99729 -10.9939,-11.24026 -10.9939,-11.24026c0,0 -11.33004,9.95853 -14.54701,7.82488c-3.7968,-2.51824 -6.9524,-18.1419 -6.9524,-18.1419c0,0 -6.26898,-3.8628 -7.08484,-6.61254c-1.83225,-6.17541 0.75843,-11.57488 0.75843,-11.57488c0,0 -3.25041,0.7473 -4.71949,2.10433c-1.56149,1.44242 -4.38917,6.30963 -4.38917,6.30963c0,0 -2.01504,-5.39693 -1.91107,-8.11988c0.10936,-2.8635 2.55192,-8.66068 2.55192,-8.66068c0,0 -5.31145,-2.94765 -7.93017,-7.88476c-1.40353,-2.64605 -1.29197,-8.72081 -1.29197,-8.72081c0,0 4.85983,3.35233 6.74489,3.68897c1.46228,0.26113 1.10256,-2.73283 1.10256,-2.73283z" fill="#6d0f0a" stroke="#000000" stroke-width="2"/><path d="M195.93893,125.86446c0,0 -4.52224,-7.2304 -3.93593,-17.4635c0.31743,-5.54 4.04422,-12.93695 6.23217,-17.99471c3.10071,-7.1676 11.35979,-11.48927 18.62927,-13.12016c9.55623,-2.14392 17.7589,6.17621 17.7589,6.17621c0,0 9.3253,-5.59688 17.02402,-5.10363c7.43763,0.4765 13.75583,7.542 15.46913,9.27116c2.61014,2.63429 6.70685,16.02834 6.70685,16.02834c0,0 -24.20688,25.93778 -39.35308,29.33577c-16.18072,3.63009 -29.85228,-11.46871 -35.24375,-7.7345c-1.89705,1.31393 -3.28757,0.60502 -3.28757,0.60502z" fill="#6d0f0a" stroke="#000000" stroke-width="2"/><path d="M196.80246,95.42484c0,0 1.67979,-3.42772 2.60304,-4.95022c0.88084,-1.45254 2.81516,-3.98487 2.81516,-3.98487c0,0 9.4174,4.78243 14.1144,5.4997c4.92204,0.75164 12.43607,-2.40525 12.43607,-2.40525c0,0 0.40852,2.28659 0.81293,3.18131c0.42756,0.94595 1.20852,2.45655 1.20852,2.45655c0,0 0.966,-2.01413 1.17894,-2.84143c0.22999,-0.89355 0.55815,-2.75223 0.55815,-2.75223c0,0 2.34097,3.46056 3.36572,4.73092c0.83918,1.04032 2.33807,2.33989 2.33807,2.33989c0,0 -0.39665,-2.09897 -0.68677,-3.17541c-0.30717,-1.13966 -1.10803,-3.48368 -1.10803,-3.48368c0,0 10.4115,2.85959 16.71236,3.5595c0.1265,0.01404 4.82271,-0.79511 5.17903,-0.80803c7.66129,-0.27784 3.61696,-9.10165 3.61696,-9.10165c0,0 3.43307,2.96485 5.06404,5.8003c1.6542,2.87584 4.79239,11.33528 4.79239,11.33528c0,0 -5.95051,-2.23711 -11.16305,-1.91199c-0.92495,0.05769 -10.89049,1.21612 -10.89049,1.21612c0,0 -1.82131,-1.88998 -2.76025,-2.65114c-0.9201,-0.74588 -2.81794,-1.8709 -2.81794,-1.8709c0,0 -0.9049,2.03848 -1.31008,3.27202c-0.48681,1.48196 -1.41098,5.01201 -1.41098,5.01201c0,0 -1.22549,-1.69755 -2.06107,-2.57724c-0.92957,-0.97867 -3.2644,-3.02961 -3.2644,-3.02961c0,0 -1.26406,0.67286 -1.91618,1.27115c-0.9053,0.83056 -3.00982,3.24806 -3.00982,3.24806c0,0 -1.28227,-2.70414 -1.99906,-3.88266c-0.62015,-1.01965 -2.05392,-2.78122 -2.05392,-2.78122c0,0 -1.47326,1.39857 -2.22343,2.28989c-0.93612,1.11227 -2.96004,3.86875 -2.96004,3.86875c0,0 -8.74416,-6.62646 -13.06785,-7.80771c-4.04443,-1.10497 -12.09243,0.93383 -12.09243,0.93383z" fill="#c42d06" stroke="none" stroke-width="0"/></g><path d="M220.58969,138.30332c0,0 -19.74589,-3.31936 -20.32874,-4.67027c-0.1011,-0.23435 1.38261,-9.13697 1.01282,-9.96949c-0.67546,-1.52068 -5.00669,0.24992 -5.00669,0.24992c0,0 64.06,-18.08151 74.15953,-20.49954c2.57294,-0.61602 5.63339,1.40063 5.63339,1.40063l-9.01676,20.6718z" fill="#6d0f0a" stroke="none" stroke-width="NaN"/></g><path d="M236.07788,84.54394c0,0 -4.62662,-1.10371 -3.73407,-6.86143c0.04703,-0.30337 0.55177,-1.56524 0.74402,-1.85465c1.47319,-2.21765 6.51173,-3.18406 6.51173,-3.18406c0,0 -2.488,4.92735 -3.29184,6.60364c-0.71647,1.49413 -0.22982,5.2965 -0.22982,5.2965z" fill="#6d0f0a" stroke="#000000" stroke-width="1.5"/><path d="M229.03797,74.47847c0,0 1.53321,0.84421 2.225,2.50535c0.53356,0.80004 1.20153,3.61199 1.20153,3.61199l-2.07878,-0.8307z" fill="#000000" stroke="none" stroke-width="0"/></g><path d="M235.00152,83.19596l3.86634,-0.51685c0,0 -2.34204,4.7139 -2.8499,4.94711c-0.71097,0.32651 -4.0818,-4.61371 -4.0818,-4.61371z" fill="#6d0f0a" stroke="none" stroke-width="0"/></g><g data-paper-data="{&quot;index&quot;:null}"><text transform="translate(294.68338,229.0029) rotate(-180) scale(0.27921,-0.27921)" font-size="40" xml:space="preserve" fill="#000000" fill-rule="nonzero" stroke="none" stroke-width="1" stroke-linecap="butt" stroke-linejoin="miter" stroke-miterlimit="10" stroke-dasharray="" stroke-dashoffset="0" font-family="Sans Serif" font-weight="normal" text-anchor="start" style="mix-blend-mode: normal"><tspan x="0" dy="0">AwezomeXD</tspan><tspan x="0" dy="46.150000000000006px"> </tspan><tspan x="0" dy="46.150000000000006px">MeIzAwezomeDede</tspan></text><g data-paper-data="{&quot;index&quot;:null}"><g><path d="M304.61432,280.7271c-0.97394,-0.3343 -2.81981,-1.05375 -2.81981,-1.05375l2.00112,-62.99775c0,0 3.12264,-3.42551 4.77674,-5.10754c1.78782,-1.81801 6.83093,-5.9246 6.83093,-5.9246c0,0 5.94054,0.17965 11.08569,1.75457c7.39586,2.26385 29.04162,10.52827 29.04162,10.52827c0,0 -0.29139,23.00613 -1.11993,33.98866c-0.74728,9.90532 -3.63272,29.00908 -3.63272,29.00908c0,0 -14.3168,1.48011 -21.61682,1.59314c-7.15813,0.11083 -21.76596,-0.92143 -21.76596,-0.92143c0,0 -1.89659,-0.56514 -2.78087,-0.86866z" fill="#434253" stroke="#000000" stroke-width="2.5"/><path d="M306.04173,281.58894c0,0 3.19421,-16.34268 5.26935,-30.13714c1.48339,-9.86081 2.04443,-18.33187 2.06476,-19.00203c0.15509,-5.11269 -0.3723,-9.50368 -0.00091,-14.70459c0.49814,-6.97594 1.18056,-11.43244 1.18056,-11.43244l2.10035,-1.22928c0,0 -1.17975,18.14658 -2.93073,35.27697c-0.73182,7.15966 -2.77258,22.22022 -3.75528,31.64788c-0.10799,1.03599 0.50491,2.39047 0.4064,3.33489c-0.55015,5.27458 -0.93311,6.24975 -0.93311,6.24975l-3.40139,-0.00403z" fill="#000000" stroke="none" stroke-width="0"/></g><g stroke="#000000" stroke-width="1.5"><path d="M345.29835,263.35312c0.94113,9.66742 -4.93088,16.17699 -12.88074,16.95092c-7.94986,0.77393 -14.77082,-5.25083 -14.91119,-14.96294c-0.15638,-10.82018 5.8426,-16.14324 12.54261,-16.73861c6.71115,-0.59636 14.44659,6.50489 15.24932,14.75063z" fill="#2c262f"/><path d="M323.67439,268.45714c-0.26544,-2.72671 1.31874,-5.06632 3.56101,-5.2846c2.24227,-0.21828 3.76096,1.25807 4.0264,3.98478c0.26545,2.72671 -1.3891,5.14677 -3.63137,5.36505c-2.24227,0.21828 -3.69059,-1.33852 -3.95603,-4.06523z" data-paper-data="{&quot;index&quot;:null}" fill="#1b171c"/></g><g stroke="#000000" stroke-width="1.5"><path d="M334.90073,214.22597c6.72176,-0.46163 14.18059,7.06601 14.65957,15.33688c0.56156,9.69688 -5.56103,15.97134 -13.53511,16.43313c-7.97408,0.46179 -14.55372,-5.82563 -14.31338,-15.53578c0.26776,-10.81801 6.4647,-15.77245 13.18893,-16.23424z" fill="#2c262f"/><path d="M327.75296,233.81558c-0.15839,-2.73501 1.51626,-5.01074 3.76536,-5.14099c2.2491,-0.13025 3.70876,1.40448 3.86715,4.1395c0.15839,2.73502 -1.58973,5.08838 -3.83883,5.21863c-2.2491,0.13025 -3.6353,-1.48212 -3.79369,-4.21714z" data-paper-data="{&quot;index&quot;:null}" fill="#1b171c"/></g></g><g><g><path d="M178.20551,279.80011c0,0 -1.84588,0.71945 -2.81982,1.05375c-0.88428,0.30352 -2.78086,0.86866 -2.78086,0.86866c0,0 -14.60784,1.03226 -21.76596,0.92143c-7.30001,-0.11302 -21.61681,-1.59314 -21.61681,-1.59314c0,0 -2.88544,-19.10377 -3.63272,-29.00909c-0.82854,-10.98252 -1.11993,-33.98866 -1.11993,-33.98866c0,0 21.64575,-8.26442 29.04162,-10.52827c5.14515,-1.57491 11.08569,-1.75457 11.08569,-1.75457c0,0 5.04312,4.1066 6.83094,5.9246c1.6541,1.68203 4.77674,5.10754 4.77674,5.10754l2.00112,62.99775z" fill="#434253" stroke="#000000" stroke-width="2.5"/><path d="M173.95829,281.71568l-3.40139,0.00403c0,0 -0.38295,-0.97517 -0.93311,-6.24976c-0.0985,-0.94441 0.51439,-2.2989 0.40641,-3.33488c-0.98271,-9.42766 -3.02346,-24.48823 -3.75529,-31.64789c-1.75097,-17.13039 -2.93073,-35.27697 -2.93073,-35.27697l2.10035,1.22928c0,0 0.68243,4.4565 1.18057,11.43244c0.37139,5.20091 -0.156,9.59191 -0.00092,14.70459c0.02033,0.67016 0.58138,9.14123 2.06477,19.00203c2.07514,13.79446 5.26935,30.13713 5.26935,30.13713z" fill="#000000" stroke="none" stroke-width="0"/></g><g stroke="#000000" stroke-width="1.5"><path d="M134.70169,263.47986c0.80273,-8.24574 8.53818,-15.34698 15.24933,-14.75062c6.70001,0.59537 12.69899,5.91843 12.54261,16.73861c-0.14037,9.71211 -6.96134,15.73687 -14.9112,14.96294c-7.94986,-0.77392 -13.82187,-7.2835 -12.88074,-16.95092z" fill="#2c262f"/><path d="M152.76465,263.29931c2.24227,0.21828 3.82645,2.55788 3.56101,5.28459c-0.26545,2.72671 -1.71376,4.28351 -3.95603,4.06523c-2.24227,-0.21829 -3.89681,-2.63834 -3.63137,-5.36505c0.26544,-2.72671 1.78413,-4.20306 4.0264,-3.98478z" data-paper-data="{&quot;index&quot;:null}" fill="#1b171c"/></g><g stroke="#000000" stroke-width="1.5"><path d="M130.43973,229.68961c0.47898,-8.27087 7.9378,-15.79851 14.65956,-15.33689c6.72423,0.46179 12.92117,5.41624 13.18893,16.23424c0.24034,9.71016 -6.33929,15.99758 -14.31338,15.53579c-7.97409,-0.46179 -14.09668,-6.73625 -13.53512,-16.43313z" fill="#2c262f"/><path d="M152.24708,233.94233c-0.15839,2.73501 -1.54458,4.34738 -3.79368,4.21713c-2.2491,-0.13025 -3.99721,-2.48361 -3.83882,-5.21863c0.15839,-2.73501 1.61804,-4.26975 3.86714,-4.1395c2.2491,0.13025 3.92375,2.40598 3.76536,5.141z" data-paper-data="{&quot;index&quot;:null}" fill="#1b171c"/></g></g><g stroke="#000000"><g fill="#434253"><path d="M302.9364,282.15582c0,0 -39.39406,0.31655 -59.64769,0.31655c-21.72904,0 -66.6118,-0.31655 -66.6118,-0.31655c0,0 -2.38216,-40.33861 -2.16309,-60.75635c0.20152,-18.78125 2.16309,-54.08575 2.16309,-54.08575c0,0 42.82931,-1.2662 64.39595,-1.2662c21.14461,0 59.33114,1.58275 59.33114,1.58275c0,0 4.66352,44.84767 4.63123,67.07726c-0.03994,25.54257 -2.09882,47.44828 -2.09882,47.44828z" stroke-width="2.5"/><path d="M182.62638,273.74783c1.29409,0 2.34316,0.94416 2.34316,2.10884c0,1.16468 -1.04906,2.10884 -2.34316,2.10884c-1.29409,0 -2.34316,-0.94416 -2.34316,-2.10884c0,-1.16468 1.04906,-2.10884 2.34316,-2.10884z" stroke-width="2"/><path d="M296.08664,273.11069c1.29409,0 2.34316,0.94416 2.34316,2.10884c0,1.16468 -1.04907,2.10884 -2.34316,2.10884c-1.29409,0 -2.34316,-0.94416 -2.34316,-2.10884c0,-1.16468 1.04907,-2.10884 2.34316,-2.10884z" stroke-width="2"/><path d="M291.83152,175.44762c-0.48529,-1.12251 0.08425,-2.44878 1.27209,-2.9623c1.18785,-0.51352 2.54417,-0.01985 3.02946,1.10266c0.48528,1.12251 -0.08426,2.44879 -1.2721,2.96231c-1.18785,0.51352 -2.54417,0.01984 -3.02946,-1.10267z" stroke-width="2"/><path d="M180.91758,172.05908c1.18784,-0.51352 2.54418,-0.01985 3.02946,1.10266c0.48528,1.12251 -0.08426,2.44879 -1.2721,2.96231c-1.18784,0.51352 -2.54417,0.01984 -3.02945,-1.10267c-0.48528,-1.12251 0.08425,-2.44878 1.27209,-2.9623z" stroke-width="2"/></g><g><path d="M187.36314,208.89734c-2.36044,-6.40232 -2.14847,-24.22034 1.17777,-27.70117c8.80798,-9.21732 26.01104,-9.48636 48.15555,-9.48636c20.7312,0 40.80646,1.21551 50.19223,9.11804c4.42593,3.72649 4.09175,24.72433 0.61728,30.38921c-5.21713,8.50616 -20.51325,11.67052 -51.0204,11.67052c-30.50715,0 -45.72795,-4.44989 -49.12243,-13.65691z" fill="#434253" stroke-width="2"/><path d="M191.46433,207.317c-2.1792,-5.67588 -1.98352,-21.47217 1.08734,-24.55804c8.13172,-8.17147 24.01396,-7.77733 44.45825,-7.77733c19.1395,0 37.67343,0.44494 46.33857,7.45081c4.08612,3.30367 3.77759,21.91897 0.56988,26.94108c-4.81657,7.54101 -18.93828,9.50278 -47.10314,9.50278c-28.16487,0 -42.21704,-3.39695 -45.3509,-11.55929z" fill="#2c262f" stroke-width="1.5"/><path d="M216.73026,204.30872c-0.84859,-2.4182 -0.77238,-9.14817 0.42343,-10.4629c3.16654,-3.48144 9.35117,-4.21571 17.31229,-4.21571c7.45303,0 14.67023,1.09175 18.04449,4.07659c1.59116,1.40752 1.47102,9.33853 0.22192,11.47819c-1.8756,3.21283 -7.37467,4.61891 -18.34223,4.61891c-10.96755,0 -16.43956,-1.85087 -17.65989,-5.32841z" fill="#1b171c" stroke-width="1.5"/></g><g><path d="M187.36314,264.28152c-2.36044,-6.40232 -2.14847,-24.22034 1.17777,-27.70116c8.80798,-9.21732 26.01104,-9.48637 48.15555,-9.48637c20.7312,0 40.80646,1.21551 50.19223,9.11804c4.42593,3.7265 4.09175,24.72433 0.61728,30.38921c-5.21713,8.50616 -20.51325,11.67052 -51.0204,11.67052c-30.50715,0 -45.72795,-4.4499 -49.12243,-13.65692z" fill="#434253" stroke-width="2"/><path d="M191.46433,262.70117c-2.1792,-5.67588 -1.98352,-21.47217 1.08734,-24.55804c8.13172,-8.17147 24.01396,-7.77734 44.45825,-7.77734c19.1395,0 37.67343,0.44494 46.33857,7.45081c4.08612,3.30367 3.77759,21.91898 0.56988,26.94109c-4.81657,7.54101 -18.93828,9.50278 -47.10314,9.50278c-28.16487,0 -42.21704,-3.39695 -45.3509,-11.55929z" fill="#2c262f" stroke-width="1.5"/><path d="M216.73026,259.69291c-0.84859,-2.41819 -0.77238,-9.14816 0.42343,-10.46289c3.16654,-3.48144 9.35117,-4.21571 17.31229,-4.21571c7.45303,0 14.67023,1.09175 18.04449,4.07659c1.59116,1.40752 1.47102,9.33852 0.22192,11.47818c-1.8756,3.21283 -7.37467,4.61891 -18.34223,4.61891c-10.96755,0 -16.43956,-1.85087 -17.65989,-5.32842z" fill="#1b171c" stroke-width="1.5"/></g></g></g><path d="M250.64543,155.11173l-6.4,-17.3l6.1,-3.1c0,0 4.06032,1.97305 5.10153,3.81235c0.73268,1.29429 1.87973,3.39996 2.9215,6.27931c0.45018,1.24425 0.51804,3.03298 0.99395,4.56313c1.03665,3.33308 5.18581,6.17586 6.77722,9.39747c0.7268,1.47131 1.31004,2.774 1.22277,4.36513c-0.05801,1.05759 -0.18898,2.46589 -1.58259,3.32419c-2.36673,1.45762 -6.33438,-0.54158 -6.33438,-0.54158z" data-paper-data="{&quot;index&quot;:null}" fill="#fb95a9" stroke="#000000" stroke-width="2"/><g data-paper-data="{&quot;index&quot;:null}"><path d="M229.73002,132.29255c2.41131,-2.95149 10.53162,-0.25987 12.59919,3.86227c0.26008,0.51854 1.70637,-0.66733 5.40284,0.98163c0.86997,0.38809 5.3323,2.85511 7.98427,6.04894c1.26983,1.52929 2.1246,3.99593 1.97118,5.03194c-0.22905,2.80784 -2.67033,5.18657 -4.85989,7.14774c-2.87249,2.57284 1.75248,7.33006 -2.40533,7.33006c-3.03121,0 -16.54137,0.60747 -18.69314,-0.7284c-1.28409,-0.79719 -0.53199,-7.61244 -0.88049,-9.01861c-0.48674,-1.96396 -4.99822,-4.40189 -4.99822,-6.61256c0,-2.58633 2.29137,-12.099 3.87959,-14.04301z" fill="#ee1536" stroke="#000000" stroke-width="2"/><path d="M245.84202,152.48165c0,-3.14019 3.56399,-6.94934 7.26523,-7.10728c3.22449,-0.13759 3.97211,2.15654 3.0535,5.15937c-1.10558,3.61402 -4.40634,5.42259 -7.63376,5.42259c-0.06272,0 2.08362,-1.58996 2.84464,-0.28992c1.01358,1.73146 0.66979,6.51156 0.03616,6.86773c-2.98614,1.67855 -13.402,-0.74155 -16.31172,-0.67209c-0.60085,0.01435 -2.90823,0.59035 -3.45604,-1.26733c-0.44915,-1.5231 0.38106,-5.65028 0.34354,-5.65555c-0.60286,-0.08461 -1.36799,-4.06688 -1.36799,-4.06688c0,0 -2.86476,-2.27685 -2.9505,-2.85725c-0.15338,-1.03828 2.10836,-2.8435 2.10836,-2.8435c0,0 1.25189,1.00644 1.97555,1.57762c0.66583,0.52553 1.57561,2.98741 1.57561,2.98741c0,0 4.12841,-5.5717 8.29185,-4.21031c5.58397,1.82588 4.22558,7.21129 4.22558,6.95539z" fill="#9a1652" stroke="none" stroke-width="0"/><path d="M232.35236,161.47164c0.86132,-1.55025 8.52088,-5.58592 9.70316,-7.17085c2.60911,-3.4977 4.57621,-6.08348 4.57621,-6.08348c0,0 0.91108,5.32297 -0.66029,9.58239c-1.16307,3.15265 6.61433,5.47453 5.8723,5.47453c-1.74455,0 -20.27813,-0.38656 -19.49138,-1.80259z" fill="#000000" stroke="none" stroke-width="0"/></g><g data-paper-data="{&quot;index&quot;:null}"><path d="M225.82954,161.82997c0,0 -0.10533,3.29474 -3.77134,3.78674c-0.87652,0.11764 -2.46232,-0.74754 -3.42091,-1.93539c-0.83904,-1.0397 -0.89738,-2.13036 -0.83698,-2.90249c0.23953,-3.062 0.77506,-8.1912 1.34767,-13.15387c0.71198,-6.17054 0.94712,-13.70726 1.9788,-16.01158c0.26615,-0.59446 1.11871,0.35946 1.41707,0.35946c1.31105,0 1.90189,0.58328 3.5572,1.82908c2.82331,2.12484 6.56145,5.90426 6.44279,10.02806c-0.14837,5.15614 -6.71429,18 -6.71429,18z" fill="#ffd5d5" stroke="#000000" stroke-width="2"/><path d="M222.08226,164.60174c-1.42815,0.13668 -2.69039,-0.7987 -3.2536,-2.09724c-1.35546,-3.12516 1.08026,-11.73801 1.08026,-11.73801l8.09524,9.11111l-1.77778,2.80953c0,0 -2.07406,1.71649 -4.14412,1.91461z" fill="#fb95a9" stroke="none" stroke-width="0"/></g><g data-paper-data="{&quot;index&quot;:null}"><g><path d="M255.18986,122.35996c-0.00192,-3.66356 2.44168,-6.6347 5.45794,-6.63622c3.01627,-0.00152 5.46298,2.96714 5.46489,6.6307c0.00191,3.66356 -2.44171,6.63471 -5.45797,6.63623c-3.01627,0.00153 -5.46297,-2.96713 -5.46488,-6.63069z" fill="#fb95a9" stroke="#000000" stroke-width="2"/><path d="M241.0112,138.31186c-25.4247,-3.68303 -28.15693,-6.53205 -29.88377,-16.62494c-1.72684,-10.0929 13.19419,-11.09158 27.71656,-13.49375c14.52237,-2.40219 22.02171,-4.25795 23.74855,5.83496c0.28168,1.64645 -1.29409,11.75898 -1.29409,11.75898c0,0 8.01273,4.05675 7.19512,8.04761c-0.89744,4.30749 -17.86489,5.87033 -27.48238,4.47715z" fill="#ffd5d5" stroke="#000000" stroke-width="2"/><path d="M213.15851,114.5176c0,0 26.92692,-8.47621 33.14481,-9.50472c11.78121,-1.94876 14.60432,4.24505 15.40887,8.94743c0.35139,2.05388 -1.24813,10.46615 -1.24813,10.46615c0,0 -4.01664,-5.2873 -6.18597,-6.55871c-2.47085,-1.44813 -7.64146,-1.70395 -7.64146,-1.70395l-5.7193,7.00195l-6.88547,-7.2718c0,0 -2.89679,5.56144 -5.21098,7.82563c-2.46749,2.41416 -9.16363,6.23831 -9.16363,6.23831l-4.09145,-0.25522c0,0 -3.16639,-4.93406 -3.57534,-7.51376c-0.39284,-2.47791 1.16805,-7.67136 1.16805,-7.67136z" fill="#fb95a9" stroke="none" stroke-width="0"/><path d="M204.77749,125.1931c-0.53966,-3.15402 -0.73946,-3.82824 0.9948,-5.60994c1.39037,-1.42838 8.21853,2.33747 8.75817,5.4915c0.53966,3.15402 0.07428,6.2873 -1.9087,6.61531c-1.98299,0.328 -7.19804,-2.71983 -7.84428,-6.49688z" fill="#ffd5d5" stroke="#000000" stroke-width="2.5"/><path d="M212.58518,130.84182c-0.70771,0.11705 -3.51189,-0.91459 -4.81453,-2.43863c-0.81324,-0.95145 -1.34789,-2.21643 -1.69014,-3.32131c-0.4197,-1.35496 0.52539,-2.13704 1.89,-1.61317c2.28238,0.87619 5.37361,2.28874 5.59468,3.58071c0.35323,2.06446 0.71136,3.5126 -0.98,3.79238z" fill="#fb95a9" stroke="none" stroke-width="0"/><path d="M207.62574,122.80008c-0.10794,-0.63081 6.55728,5.3217 6.55728,5.3217l-0.61189,2.77052c0,0 -5.83745,-7.46142 -5.94538,-8.09225z" fill="#000000" stroke="none" stroke-width="0"/><path d="M211.68874,131.85888c-0.54332,-1.79086 0.94902,-3.50112 3.04251,-4.0518c2.09344,-0.55066 4.38366,-1.33619 5.53284,1.67103c0.20229,0.52936 1.43215,4.00978 -0.00086,5.87143c-0.22337,0.29018 -1.53529,1.42706 -2.94857,1.70691c-1.95175,0.38649 -3.19534,0.0219 -3.19534,0.0219c0,0 2.11563,-1.90445 1.88303,-2.0357c-0.74181,-0.41858 -3.85713,-1.6791 -4.31363,-3.18376z" fill="#6d0f0a" stroke="#000000" stroke-width="2"/><path d="M198.5282,131.35548c-7.60609,-3.41023 -10.44199,-7.24531 -10.44199,-7.24531c0,0 6.74152,-0.95469 8.83675,-3.26139c2.11197,-2.32515 3.57212,-11.88054 3.57212,-11.88054c0,0 23.47912,-1.57845 33.31811,-3.20594c9.11079,-1.50701 17.10806,-2.80534 22.96702,-3.74896c6.36808,-1.02561 12.23912,1.20179 13.62641,5.98789c0.34333,1.18442 0.80474,2.77969 1.00335,4.14245c0.90778,6.22885 -0.86182,12.10286 -0.86182,12.10286c0,0 -6.02716,-7.03828 -8.92484,-10.07298c-3.58379,-3.75322 -9.24521,-6.88553 -9.24521,-6.88553c0,0 -0.48993,3.97751 -1.86093,6.64688c-1.41922,2.76323 -4.63585,2.97103 -4.63585,2.97103c0,0 -0.57965,-3.13564 -1.34778,-4.52608c-0.70706,-1.27995 -2.01733,-3.69358 -1.95665,-2.52235c0.06102,1.1782 -0.18845,4.02327 -0.26914,5.41838c-0.2089,3.61082 -0.7272,4.14979 -0.7272,4.14979c0,0 -2.21212,-2.99748 -4.41747,-5.7865c-1.87512,-2.3714 -4.64415,-3.52602 -4.64415,-3.52602c0,0 -4.2451,5.01578 -6.74808,7.12988c-2.26106,1.90978 -7.23511,4.94073 -7.23511,4.94073c0,0 3.15184,7.80975 -0.94677,7.88018c-2.89676,0.04978 -4.19441,-0.32585 -5.84244,-1.36297c-0.988,-0.62175 -1.59201,-3.56285 -1.59201,-3.56285l2.17203,0.30409c0,0 -1.94224,-6.05123 -3.3349,-6.25984c-2.45213,-0.3673 -0.68781,-0.87408 -4.18805,-0.20678c-0.50949,0.09713 -1.55997,3.26865 -1.01706,6.05838c0.58287,2.99506 2.78211,5.61915 2.78211,5.61915c0,0 -4.32606,2.36775 -8.04043,0.70238z" fill="#6d0f0a" stroke="#000000" stroke-width="1.5"/><path d="M245.43292,106.89166c-0.98353,0.16269 -2.43674,-0.75692 -4.44201,-0.56867c-2.1725,0.20393 -4.90612,1.51768 -6.03439,1.74341c-16.29516,3.26052 -34.35784,7.30084 -34.35784,7.30084c0,0 0.36734,-2.67305 0.24147,-3.94012c-0.13445,-1.3537 -0.70732,-3.99184 -0.70732,-3.99184c0,0 22.52044,-0.89463 35.72039,-3.07805c8.46999,-1.40105 17.33782,-3.21684 23.03625,-3.35939c6.03384,-0.15096 9.09925,1.34076 9.09925,1.34076l2.0128,6.66644l-2.65309,-0.26429l-7.14209,-5.40686c0,0 -10.26191,2.81148 -14.77344,3.55775z" fill="#6d0f0a" stroke="none" stroke-width="0"/><path d="M238.47773,134.9121c-1.26273,0.03421 -2.35877,-0.4854 -2.92719,-1.57806c-0.64125,-1.2327 -1.46731,-2.26895 -1.36611,-2.48952c0.15571,-0.33941 10.1716,0.70238 10.2531,1.08534c0.07777,0.3654 -1.13552,1.36191 -2.75939,2.35348c-0.91496,0.55867 -3.20041,0.62876 -3.20041,0.62876z" fill="#ef3d61" stroke="#000000" stroke-width="1.5"/><path d="M244.17643,123.11208c-0.3277,-1.91534 -0.2934,-5.29058 2.50497,-6.86304c0.50243,-0.28235 1.73429,-0.37266 3.13077,-0.14165c1.43135,0.23677 2.68466,0.81399 3.0456,0.95043c0.71306,0.26957 2.59747,0.54469 2.59747,0.54469c0,0 0.8306,0.10578 1.46859,-0.48215c0.53559,-0.49357 1.13193,-1.22158 1.13193,-1.22158c0,0 0.16007,-0.26159 -0.80962,1.48857c-0.39956,0.7212 -1.35045,0.94317 -1.35045,0.94317c0,0 0.61049,1.08643 1.7599,0.70778c0.86339,-0.28441 1.99984,-0.97878 1.99984,-0.97878c0,0 0.02126,-0.06463 -0.56999,0.74951c-0.40828,0.56218 -0.95025,1.21617 -0.95025,1.21617l-0.07854,1.03791c0,0 -1.7609,-1.62361 -2.61714,-1.9233c-0.69233,-0.24232 -2.28183,0.15682 -2.28183,0.15682c0,0 0.96703,6.88019 -3.94976,7.56538c-3.83365,0.53424 -4.49183,-0.59592 -5.03147,-3.74994z" fill="#000000" stroke="#000000" stroke-width="1"/><path d="M221.79494,118.74003c-0.6253,-0.65484 -1.67811,-1.42845 -1.67811,-1.42845c0,0 1.99925,0.28946 2.95667,0.75292c0.88114,0.42654 2.2667,0.27702 2.2667,0.27702c0,0 -0.43462,-0.69928 -0.87139,-1.42888c-0.45552,-0.76093 -1.89128,-2.18976 -1.89128,-2.18976c0,0 2.1061,0.78113 2.84521,1.30282c0.70681,0.49891 2.34357,1.1347 2.34357,1.1347c0,0 2.59271,-0.47785 4.30191,-0.76056c1.93173,-0.31953 3.44769,0.43449 4.79936,0.88951c1.77903,0.59888 3.11073,1.00525 3.11073,1.00525c0,0 -2.54551,-0.2698 -3.43029,-0.33344c-0.62848,-0.04524 -1.35381,0.12593 -1.35381,0.12593c0,0 1.58777,7.59013 -4.79121,8.71646c-5.22471,0.92253 -4.95948,-5.4747 -5.22534,-5.8221c-0.19261,-0.25168 -1.2299,-0.98246 -1.2299,-0.98246c0,0 -1.57804,-0.65703 -2.15283,-1.25896z" fill="#000000" stroke="#000000" stroke-width="1"/></g><path d="M269.56116,107.06408c0,0 -0.78968,-2.653 -1.28819,-3.97065c-0.47671,-1.26 -1.64051,-3.77001 -1.64051,-3.77001c0,0 1.18401,0.52182 2.14582,2.73911c0.6286,1.44915 2.1951,5.21862 2.1951,5.21862z" fill="#000000" stroke="none" stroke-width="0"/></g><g data-paper-data="{&quot;index&quot;:null}"><path d="M255.19958,185.92557c-1.00101,-2.204 -1.48204,-4.3489 -0.72825,-4.96606c2.33239,-1.90961 13.28484,-2.98899 13.38878,-2.98899c6.31528,0 14.84633,4.70166 14.84633,7.42317c0,2.15815 -5.66177,5.08636 -11.867,4.87772c-9.17694,-0.30857 -12.61375,-4.42959 -12.80984,-4.64776c-0.77835,-0.86597 0.94691,1.54978 1.61014,2.51138c0.76014,1.10213 2.09503,1.87099 1.91005,2.94778c-0.21138,1.23048 -1.04517,0.91066 -1.93413,0.37576c-1.07219,-0.64516 -2.75079,-1.86638 -4.41608,-5.533z" fill="#ee1536" stroke="#000000" stroke-width="1.5"/><path d="M224.16344,168.58485c0,-3.59654 1.88208,-6.79388 5.00437,-9.12732c4.14737,-3.09953 10.28977,-4.77137 15.23297,-4.77137c5.31995,0 12.36793,-0.19935 14.37465,2.09274c0.5447,0.62216 0.11605,3.35746 0.47021,5.96384c0.20355,1.49801 1.01152,5.12835 2.06489,8.05201c0.76659,2.12772 1.6857,4.5633 2.81912,4.87357c4.6996,1.28652 11.33458,3.83886 9.65309,6.39177c-1.27777,1.93997 -8.71321,2.17386 -14.6326,0.37436c-5.32793,-1.61969 -9.13974,-5.17457 -11.08352,-5.65964c-3.29754,-0.8229 -10.29591,1.43415 -13.65474,0.96798c-2.18858,-0.30375 -4.10262,-1.02669 -5.53901,-1.79684c-3.55989,-1.90871 -4.7094,-5.13615 -4.7094,-7.3611z" fill="#ffd5d5" stroke="#000000" stroke-width="1.5"/><path d="M254.40496,164.88252c0,0 1.5473,-1.13661 2.20683,-1.84011c0.59795,-0.63781 1.58373,-2.20314 1.58373,-2.20314c0,0 0.47515,2.43192 0.69523,3.67533c0.19897,1.12418 0.56829,3.46354 0.56829,3.46354c0,0 -2.16472,-0.56777 -3.07746,-1.12683c-0.7315,-0.44803 -1.97661,-1.96878 -1.97661,-1.96878z" fill="#fb95a9" stroke="none" stroke-width="0"/><path d="M275.08881,181.84435c0.16969,-0.35395 1.67522,-0.13645 2.97302,0.48578c1.2978,0.62223 2.68613,2.36122 2.51643,2.71517c-0.1697,0.35394 -1.51728,-1.12707 -2.81508,-1.7493c-1.29779,-0.62223 -2.84406,-1.0977 -2.67436,-1.45165z" fill="#fc9ea5" stroke="none" stroke-width="0"/></g><g data-paper-data="{&quot;index&quot;:null}"><path d="M231.01661,189.91844c2.5441,-6.35721 7.6863,-8.12709 12.34285,-6.26357c4.65656,1.86351 6.54811,7.90162 4.004,14.25883c-2.5441,6.35722 -11.22418,11.88722 -14.69074,10.29339c-3.43224,-1.57805 -4.378,-11.60389 -1.83389,-17.9611z" fill="#ee1536" stroke="#000000" stroke-width="1.5"/><path d="M233.51809,187.1408c0,0 2.00422,-2.86118 4.30555,-3.50609c0.77193,-0.21631 4.08674,0.23689 6.56763,1.86017c1.68622,1.10331 2.8021,3.19439 3.19142,4.24588c0.67057,1.81111 0.10967,3.76134 0.10967,3.76134c0,0 -1.81828,1.66589 -5.43619,1.54424c-1.90251,-0.06397 -4.61734,-2.13774 -6.33064,-4.2466c-1.54479,-1.90145 -2.40744,-3.65892 -2.40744,-3.65892z" fill="#9a1652" stroke="none" stroke-width="0"/><path d="M237.96925,177.35229c0.55432,-7.08643 2.21505,-10.84502 10.62649,-10.5467c4.91806,0.17442 6.52345,5.86357 6.20118,8.26798c-1.07822,8.0444 -9.74893,15.13352 -9.74893,15.13352c0,0 1.38491,8.01261 -6.9327,9.02219c-4.06733,0.49369 -4.09452,-6.52097 -3.42123,-8.22854c1.22234,-3.10001 3.42075,-4.916 3.42075,-4.916c0,0 -0.3919,-5.5836 -0.14558,-8.73245z" fill="#ffd5d5" stroke="#000000" stroke-width="1.5"/><path d="M245.1026,178.7096c-0.98594,-0.64 -1.21165,-1.61216 -1.54278,-2.57662c-0.39958,-1.16379 -0.68288,-4.079 -0.68288,-4.079c0,0 1.88781,1.43735 2.95744,2.05164c1.0526,0.6045 3.57324,1.45269 3.57324,1.45269c0,0 -1.55297,2.41034 -2.26572,2.89984c-0.66241,0.45494 -1.05335,0.89143 -2.03929,0.25145z" fill="#fb95a9" stroke="none" stroke-width="0"/><path d="M235.8695,205.37274c-0.64171,-0.03296 1.51192,-1.05037 2.3367,-1.53259c0.91489,-0.5349 2.82616,-2.37563 2.86295,-2.00666c0.07441,0.74608 -1.44675,2.17702 -2.28268,2.66576c-0.90726,0.53045 -1.82762,0.92947 -2.91696,0.87351z" fill="#fc9ea5" stroke="none" stroke-width="0"/></g><g data-paper-data="{&quot;index&quot;:null}"><path d="M246.02797,157.78237c0,-2.4546 1.96334,-5.88889 4.11111,-5.88889c2.14777,0 3,1.98984 3,4.44444c0,2.45459 -1.74112,4.44444 -3.88889,4.44444c-2.14777,0 -3.22222,-0.5454 -3.22222,-3z" fill="#fb95a9" stroke="#000000" stroke-width="2"/><path d="M266.6765,155.15996c0.65516,1.61111 0.80031,4.09626 -0.13941,5.91116c-0.43234,0.83498 -1.44468,1.52809 -2.11753,1.92896c-0.26359,0.15704 -1.43777,0.25056 -2.22874,0.30184c-0.72193,0.0468 -1.45759,-0.39347 -1.45759,-0.39347c0,0 -0.89624,0.43585 -1.22625,0.42821c-0.98223,-0.02273 -1.96314,-0.06241 -2.66226,-0.09436c-0.60593,-0.02769 -1.00018,-0.3829 -1.00018,-0.3829c0,0 0.03936,0.74167 0.05095,1.36234c0.00806,0.43161 -0.10842,0.9725 -0.1498,1.55353c-0.12854,1.80485 -0.4934,3.99699 -1.99352,4.50433c-0.35013,0.11841 -2.18088,0.07726 -2.56057,-0.00265c-2.67661,-0.56335 -2.2783,-5.57903 -2.12244,-10.05008c0.09692,-2.78032 0.17445,-5.81899 0.32796,-6.36568c0.18827,-0.67044 0.07376,-1.73801 0.99423,-2.73994c1.35148,-2.21457 5.97338,-2.22778 6.89853,-2.22778c1.6218,0 7.42333,1.43853 9.38663,6.26648z" fill="#ffd5d5" stroke="#000000" stroke-width="2"/><path d="M253.98828,165.826c0,0 0.31615,2.44267 -1.42857,2.5c-2.17394,0.07143 -1.78571,-2.5 -1.78571,-2.5h3.21429z" fill="#ee406b" stroke="none" stroke-width="0"/></g><g data-paper-data="{&quot;index&quot;:null}"><path d="M236.6652,151.89348c2.14778,0 4.11111,3.43429 4.11111,5.88889c0,2.4546 -1.07445,3 -3.22222,3c-2.14777,0 -3.88889,-1.98985 -3.88889,-4.44445c0,-2.4546 0.85223,-4.44445 3,-4.44445z" fill="#fb95a9" stroke="#000000" stroke-width="2"/><path d="M220.2672,161.07111c-0.93972,-1.8149 -0.79458,-4.30005 -0.13941,-5.91116c1.9633,-4.82795 7.76483,-6.26648 9.38663,-6.26648c0.92515,0 5.54705,0.01322 6.89853,2.22778c0.92047,1.00194 0.80596,2.06951 0.99423,2.73994c0.15351,0.5467 0.23104,3.58536 0.32796,6.36568c0.15586,4.47105 0.55417,9.48673 -2.12244,10.05008c-0.37969,0.07992 -2.21043,0.12107 -2.56057,0.00265c-1.50012,-0.50734 -1.86499,-2.69948 -1.99352,-4.50433c-0.04138,-0.58103 -0.15787,-1.12192 -0.14981,-1.55354c0.01159,-0.62067 0.05095,-1.36234 0.05095,-1.36234c0,0 -0.39425,0.35521 -1.00018,0.3829c-0.69912,0.03195 -1.68002,0.07163 -2.66226,0.09436c-0.33001,0.00764 -1.22626,-0.42821 -1.22626,-0.42821c0,0 -0.73565,0.44027 -1.45759,0.39347c-0.79097,-0.05128 -1.96515,-0.1448 -2.22874,-0.30184c-0.67286,-0.40087 -1.6852,-1.09398 -2.11753,-1.92896z" fill="#ffd5d5" stroke="#000000" stroke-width="2"/><path d="M232.816,165.826h3.21429c0,0 0.38823,2.57143 -1.78572,2.5c-1.74472,-0.05732 -1.42857,-2.5 -1.42857,-2.5z" fill="#ee406b" stroke="none" stroke-width="0"/></g></g></g></svg>