<svg version="1.1" xmlns="http://www.w3.org/2000/svg" xmlns:xlink="http://www.w3.org/1999/xlink" width="105.03467" height="179.82894" viewBox="0,0,105.03467,179.82894"><g transform="translate(-162.65683,-93.57304)"><g data-paper-data="{&quot;isPaintingLayer&quot;:true}" fill-rule="nonzero" stroke-linejoin="miter" stroke-miterlimit="10" stroke-dasharray="" stroke-dashoffset="0" style="mix-blend-mode: normal"><g stroke="#000000" stroke-linecap="round"><path d="M216.1047,175.32795c0,0 -29.08409,5.91484 -29.13537,-12.06568c-0.01891,-6.62461 16.70428,-5.02736 16.70428,-5.02736z" data-paper-data="{&quot;origPos&quot;:null}" fill="#66c8ff" stroke-width="2"/><path d="M207.81729,163.63933c0,0 -16.40129,-1.89997 -16.18633,-2.51368c0.6816,-1.94585 12.81957,-1.38252 12.81957,-1.38252z" data-paper-data="{&quot;origPos&quot;:null}" fill="#0a0a0a" stroke-width="1"/></g><g><g data-paper-data="{&quot;index&quot;:null}"><g stroke="#000000" stroke-width="3" stroke-linecap="round"><path d="M259.4197,202.8408c0,0 3.00823,10.33691 2.56343,14.92429c-16.13665,6.39279 -26.06565,3.78911 -26.06565,3.78911c-2.0533,0.39971 -2.32218,-6.87055 -2.32218,-6.87055c0,0 -1.00422,-14.17598 -1.64699,-23.24931c-0.42207,-5.95792 -1.08149,-15.26645 -1.08149,-15.26645c0,0 -0.14986,-5.92273 0.97674,-6.05365c6.77777,-0.78762 13.17775,-2.84668 16.6503,-2.06925c1.15752,0.25914 2.78823,5.75054 2.78823,5.75054l8.13759,29.04526z" data-paper-data="{&quot;origPos&quot;:null}" fill="#582700"/><path d="M260.13945,208.55614l-26.11541,4.00908l-0.53296,-3.36246l26.1154,-4.26772z" data-paper-data="{&quot;origPos&quot;:null}" fill="none"/></g><path d="M233.19876,208.78299l-1.78551,-36.8268l1.19034,-0.86652l16.06961,-2.59955l10.1179,36.10471z" fill="#66c8ff" stroke="#000000" stroke-width="1" stroke-linecap="round"/><path d="M233.91619,212.1309l-0.3781,-2.30203l25.94552,-4.01465l0.3781,2.30203z" fill="#ffffff" stroke="none" stroke-width="0" stroke-linecap="butt"/></g><g fill="#fffc96" stroke="#000000" stroke-width="2" stroke-linecap="round"><path d="M257.50394,198.21755c0,0 4.49087,0.46489 4.43274,3.4086c-0.09301,4.70982 -33.6249,-0.83964 -33.83301,-5.75378c-0.08502,-2.0078 3.1783,-2.18542 3.1783,-2.18542l0.3079,1.84764c0,0 6.05612,2.38292 13.84809,3.84639c7.68399,1.44319 12.91764,1.03867 12.91764,1.03867z"/><path d="M255.20721,189.89337c0,0 3.09201,-2.34415 4.07855,-0.2286c2.07087,4.44084 -27.96996,23.94366 -28.90299,19.39864c-0.56506,-2.75257 2.82739,-3.87382 2.82739,-3.87382l0.26761,1.35222c0,0 5.0444,-2.09478 11.75864,-6.62048c6.71425,-4.52569 10.38006,-8.78464 10.38006,-8.78464z" data-paper-data="{&quot;index&quot;:null}"/></g></g><g data-paper-data="{&quot;origRot&quot;:0}" stroke="#000000" stroke-linecap="round"><path d="M228.51106,229.50168c0,0 -2.02517,-4.37984 -0.55575,-4.96931c4.33606,-1.73941 7.85111,-4.98275 12.54051,-5.12803c1.94728,-0.06033 4.32414,3.555 4.32414,3.555l17.40074,28.47595c0,0 1.83625,2.91761 2.8304,4.63006c1.06293,1.8309 1.34338,5.12931 -0.60785,6.04027c-7.16425,3.34478 -10.99231,6.70956 -16.00315,7.68596c-1.82553,0.35571 -3.78697,0.61691 -5.13752,-0.62718c-1.76419,-1.62508 -2.91884,-5.96443 -2.91884,-5.96443z" data-paper-data="{&quot;origPos&quot;:null}" fill="#ff0000" stroke-width="3"/><path d="M266.46688,259.12336c0,0 -4.49449,4.80752 -9.28486,6.87144c-3.67534,1.58351 -12.06389,4.07745 -12.06389,4.07745c0,0 -2.36386,-1.83442 -3.1166,-3.26085c-0.79298,-1.50266 -0.84416,-4.2446 -0.84416,-4.2446l21.61748,-10.18628z" data-paper-data="{&quot;origPos&quot;:null}" fill="#976e57" stroke-width="2"/><path d="M228.72181,229.7619c0,0 -2.02517,-4.37984 -0.55575,-4.9693c4.33606,-1.73941 7.85111,-4.98275 12.54053,-5.12801c1.94728,-0.06033 4.32413,3.555 4.32413,3.555l17.40074,28.47595c0,0 1.83627,2.91761 2.83042,4.63004c1.06293,1.8309 1.34336,5.12931 -0.60785,6.04027c-7.16425,3.34478 -10.99231,6.70957 -16.00314,7.68596c-1.82553,0.35571 -3.78697,0.61688 -5.13751,-0.62718c-1.76419,-1.62508 -2.91885,-5.96442 -2.91885,-5.96442z" data-paper-data="{&quot;origPos&quot;:null}" fill="#4b4b4b" stroke-width="3"/></g><path d="M223.18927,262.62419c0,0 0.58833,4.4452 -0.42783,6.59c-0.77792,1.64194 -2.699,2.10649 -4.53006,2.43429c-5.02604,0.89975 -9.8678,-0.84446 -17.79949,-1.36744c-2.16023,-0.14244 -3.16196,-3.30603 -2.87564,-5.38912c0.2678,-1.94832 0.8563,-5.31917 0.8563,-5.31917l5.26002,-32.71179c0,0 0.82345,-4.21354 2.65453,-4.85947c4.40958,-1.55554 8.91426,0.18871 13.60575,0.24067c1.58988,0.01761 1.38547,4.8142 1.38547,4.8142c0,0 0.47309,8.99361 0.77589,14.75c0.42736,8.12444 1.09506,20.81786 1.09506,20.81786z" fill="#4b4b4b" stroke="#000000" stroke-width="3" stroke-linecap="round"/><g><path d="M205.14364,182.18904c0,0 1.9999,-14.4094 4.22275,-14.95725c6.66853,-1.64357 21.91369,-0.71298 32.10314,-0.71298c1.57518,0 2.93543,13.5334 2.93543,13.5334l1.83463,30.62821c0,0 0.25066,14.95796 -1.4677,14.95796c-15.29663,0 -33.22528,0.85262 -40.04332,0.01169c-2.27267,-0.2803 -1.41956,-16.03807 -1.41956,-16.03807z" data-paper-data="{&quot;origPos&quot;:null}" fill="#66c8ff" stroke="#000000" stroke-width="3.5" stroke-linecap="round"/><path d="M224.55924,190.38784c-1.33079,0 -1.33079,-2.4875 -1.33079,-2.4875c0,-5.15926 0,-11.97684 0,-17.1361c0,0 0,-2.4875 1.33079,-2.4875c1.33079,0 1.33079,2.4875 1.33079,2.4875c0,5.15926 0,10.31851 0,15.47777v1.65833c0,0 0,2.4875 -1.33079,2.4875z" fill="#ffffff" stroke="none" stroke-width="0.5" stroke-linecap="butt"/><path d="M236.92267,196.72118c-1.33079,0 -1.33079,-3.125 -1.33079,-3.125c0,-6.48148 0,-15.04629 0,-21.52777c0,0 0,-3.125 1.33079,-3.125c1.33079,0 1.33079,3.125 1.33079,3.125c0,6.48148 0,12.96296 0,19.44445v2.08333c0,0 0,3.125 -1.33079,3.125z" fill="#ffffff" stroke="none" stroke-width="0.5" stroke-linecap="butt"/></g><g fill="none" stroke="#b9b9b9" stroke-width="3"><path d="M239.22833,171.55332c-0.85259,-1.35809 0.08849,-2.57767 1.34848,-3.7957c1.26,-1.21801 2.52458,-1.58994 3.21438,-0.61516c1.46254,2.06682 -0.0719,3.04234 -1.05852,3.99608c-1.26001,1.21803 -2.30027,2.33277 -3.50434,0.41479z" stroke-linecap="butt"/><path d="M240.24241,170.96257l-2.66841,2.51944" stroke-linecap="round"/><path d="M233.92009,174.11135c1.26,-1.21801 2.52458,-1.58994 3.21438,-0.61516c1.46254,2.06682 -0.0719,3.04234 -1.05852,3.99608c-1.25999,1.21802 -2.30026,2.33277 -3.50433,0.41479c-0.85259,-1.35809 0.08848,-2.57767 1.34847,-3.79571z" stroke-linecap="butt"/><path d="M230.91727,179.83576l2.6684,-2.51946" stroke-linecap="round"/><path d="M225.1247,179.38348c0.41279,-1.63508 1.79137,-1.48046 3.35721,-1.02164c1.56584,0.45883 2.56355,1.43557 2.31322,2.68318c-0.53077,2.64527 -2.09507,1.77826 -3.32116,1.41899c-1.56584,-0.45882 -2.93224,-0.77137 -2.34926,-3.08052z" stroke-linecap="butt"/><path d="M226.12209,179.9892l-3.27559,-1.00816" stroke-linecap="round"/><path d="M217.70693,175.00773c0.92005,-1.31672 2.13043,-0.52961 3.41132,0.62589c1.2809,1.1555 1.87009,2.52367 1.22726,3.55857c-1.36301,2.19428 -2.50712,0.66261 -3.51011,-0.24218c-1.2809,-1.15551 -2.42778,-2.08274 -1.12846,-3.94227z" stroke-linecap="butt"/><path d="M215.75539,173.57133l2.66349,2.46183" stroke-linecap="round"/><path d="M211.00626,168.88311c0.92005,-1.3167 2.13043,-0.52961 3.41132,0.62589c1.28091,1.1555 1.87009,2.52367 1.22726,3.55857c-1.36301,2.19427 -2.50712,0.66261 -3.51011,-0.24218c-1.2809,-1.1555 -2.42777,-2.08273 -1.12845,-3.94227z" stroke-linecap="butt"/><path d="M211.71823,169.90853l-2.6635,-2.46183" stroke-linecap="round"/></g><path d="M238.64409,168.61958c-12.43002,-0.75652 -24.48148,-1.52617 -29.33239,-2.87585c-4.4334,-1.23351 -5.59001,-4.08297 -5.59001,-4.08297c0,0 -1.62954,-2.55557 -1.60727,-4.09046c0.0668,-4.60465 0.89202,-17.72925 2.68237,-28.96876c0.05975,-0.37512 0.10734,-0.58379 0.19001,-0.95473c0.24801,-1.1128 1.40594,-5.4184 1.40594,-5.4184c0,0 3.39817,-1.42276 5.21314,-1.76869c5.4449,-1.03781 18.91568,1.41187 33.18494,2.8427c1.29333,0.12969 3.39311,1.96438 3.39311,1.96438c0,0 1.3561,3.24191 1.1625,5.21614c-1.25162,12.76368 -2.68487,26.88121 -3.23052,30.09332c-0.18188,1.07071 -2.37434,5.11518 -2.37434,5.11518z" fill="#582700" stroke="#000000" stroke-width="2.5" stroke-linecap="round"/><path d="M237.3782,148.3562c0.33623,-3.4288 1.03313,-6.16813 1.55655,-6.11844c0.52343,0.04967 0.67518,2.86956 0.33896,6.29835c-0.33623,3.4288 -1.03313,6.16814 -1.55655,6.11845c-0.52343,-0.04967 -0.67518,-2.86956 -0.33896,-6.29836z" fill="none" stroke="#000000" stroke-width="2.5" stroke-linecap="butt"/><path d="M230.99497,147.82996c0.34246,-3.49231 0.93834,-6.29318 1.33089,-6.2559c0.39257,0.03727 0.4332,2.89855 0.09074,6.39084c-0.34246,3.49231 -0.93831,6.29315 -1.33088,6.25589c-0.39257,-0.03727 -0.43321,-2.89853 -0.09075,-6.39083z" fill="none" stroke="#000000" stroke-width="2.5" stroke-linecap="butt"/><path d="M201.9304,122.72108c-0.60627,-1.1044 0.52987,-1.69004 0.52987,-1.69004l1.40098,-0.67563c0.12427,-0.02827 0.24839,-0.05578 0.37239,-0.08253c-0.65514,-5.84011 0.97066,-12.73145 1.32976,-18.43869c0.09314,-1.48009 -0.01855,-5.51442 0.80494,-6.73382c1.37895,-2.04191 3.09735,-1.33099 5.04678,-1.20532c3.31692,0.21384 6.6045,0.46523 9.91718,0.20547c8.21104,-0.63449 16.29516,-0.369 24.51297,-0.51518c2.59319,-0.04612 5.11862,0.02638 7.69713,0.40986c0.70553,0.10492 1.63023,-0.08681 2.09271,0.44176c1.63797,1.872 0.75428,3.77736 0.29656,5.71382c-0.91302,3.86264 -2.81041,7.27535 -3.20178,11.26626c-0.32044,3.05123 -1.01687,6.15805 -1.62231,9.16536c-0.20894,1.0378 0.01185,2.99916 -1.13181,3.714c-2.34503,1.46576 -8.07203,-0.1213 -10.67664,-0.37601c-7.942,-0.7767 -15.87458,-1.71282 -23.84887,-2.04915c-2.85707,-0.02566 -5.58641,0.03097 -8.3468,0.42802c-0.05196,0.37001 -0.26629,0.83483 -0.98326,0.99152c-0.77787,0.17 -1.18359,-0.23337 -1.37973,-0.56494c-0.09454,0.0207 -0.18916,0.04188 -0.28389,0.06355l-0.78378,0.45051c0,0 -1.13614,0.58563 -1.74242,-0.51878z" fill="#000000" stroke="none" stroke-width="0.5" stroke-linecap="butt"/><g><g stroke="#000000" stroke-width="3" stroke-linecap="round"><path d="M174.24034,189.12762l21.86619,-21.34428c0,0 4.21424,-3.99119 5.35243,-3.6611c3.41458,0.99026 7.9293,5.85077 13.41999,9.7873c0.91266,0.65433 -2.23396,5.73097 -2.23396,5.73097c0,0 -5.31393,7.77537 -8.7151,12.75199c-5.17967,7.5789 -13.27223,19.42003 -13.27223,19.42003c0,0 -3.93637,6.19091 -5.51771,4.85831c0,0 -9.95713,-2.50045 -20.7287,-15.79968c1.94962,-4.20114 9.82907,-11.74354 9.82907,-11.74354z" data-paper-data="{&quot;origPos&quot;:null}" fill="#582700"/><path d="M173.01135,190.85847l20.52819,16.23959l-2.17575,2.66723l-20.65993,-16.01477z" data-paper-data="{&quot;origPos&quot;:null}" fill="none"/></g><path d="M173.89344,190.95396l27.18291,-26.53082l12.64513,9.96967l0.59343,1.32436l-20.30745,31.15626z" fill="#66c8ff" stroke="#000000" stroke-width="1" stroke-linecap="round"/><path d="M171.16938,193.50141l1.50108,-1.8197l20.5094,15.9381l-1.50106,1.81971z" fill="#ffffff" stroke="none" stroke-width="0" stroke-linecap="butt"/></g><g stroke="#000000" stroke-width="1.25" stroke-linecap="butt"><g data-paper-data="{&quot;index&quot;:null}" fill="#000000"><path d="M220.1683,159.63876c-12.38056,-2.19272 -6.97703,-6.07913 -6.97703,-6.07913l15.54712,2.55304c0,0 3.07779,5.47975 -8.57008,3.52609z"/></g><g data-paper-data="{&quot;index&quot;:null}" fill="#ffffff"><path d="M220.1683,159.63876c-12.38056,-2.19272 -6.97703,-6.07913 -6.97703,-6.07913c0,0 10.51811,1.72722 13.14295,2.15826c0.00362,0.00059 -1.03584,1.03006 -1.22579,2.19891c-0.15556,0.95734 0.5349,2.0963 0.51157,2.0983c-1.30268,0.11189 -3.06914,0.02329 -5.45171,-0.37633z"/></g></g></g></g></svg>