<svg version="1.1" xmlns="http://www.w3.org/2000/svg" xmlns:xlink="http://www.w3.org/1999/xlink" width="127.69335" height="109.73598" viewBox="0,0,127.69335,109.73598"><defs><linearGradient x1="291.52772" y1="225.26069" x2="168.70649" y2="149.13047" gradientUnits="userSpaceOnUse" id="color-1"><stop offset="0" stop-color="#00ffff"/><stop offset="1" stop-color="#00ffff" stop-opacity="0"/></linearGradient><linearGradient x1="291.52772" y1="225.26069" x2="168.70649" y2="149.13047" gradientUnits="userSpaceOnUse" id="color-2"><stop offset="0" stop-color="#ccffff" stop-opacity="0"/><stop offset="1" stop-color="#ccffff"/></linearGradient><linearGradient x1="297.38108" y1="219.69754" x2="170.63863" y2="147.00865" gradientUnits="userSpaceOnUse" id="color-3"><stop offset="0" stop-color="#00ffff"/><stop offset="1" stop-color="#00ffff" stop-opacity="0"/></linearGradient><linearGradient x1="297.38108" y1="219.69754" x2="170.63863" y2="147.00865" gradientUnits="userSpaceOnUse" id="color-4"><stop offset="0" stop-color="#ccffff" stop-opacity="0"/><stop offset="1" stop-color="#ccffff"/></linearGradient><linearGradient x1="289.00141" y1="200.29424" x2="277.01221" y2="192.80838" gradientUnits="userSpaceOnUse" id="color-5"><stop offset="0" stop-color="#313131"/><stop offset="1" stop-color="#666666"/></linearGradient></defs><g transform="translate(-176.15196,-125.13337)"><g data-paper-data="{&quot;isPaintingLayer&quot;:true}" fill-rule="nonzero" stroke-miterlimit="10" stroke-dasharray="" stroke-dashoffset="0" style="mix-blend-mode: normal"><path d="M272.12872,225.16626l14.67042,7.72309l-15.81387,-1.16972l-14.7046,-6.80466l-5.60977,-10.88298l-12.46977,-18.17941l-25.20118,-26.99028l-34.868,-34.93795l61.16269,48.39243l3.94195,5.80446l11.92009,10.90455l4.24818,13.70746z" fill="url(#color-1)" stroke="url(#color-2)" stroke-width="3.95999" stroke-linecap="round" stroke-linejoin="round"/><path d="M276.03711,189.09649l-12.52773,0.17538l-12.95845,-9.1635l-6.05576,-2.26008l-62.44476,-50.73765l42.39621,26.80982l30.56639,17.9941l19.00986,7.21326l10.73013,2.29743l10.63224,13.63306l6.48279,16.81565l-11.35992,-13.27399z" fill="url(#color-3)" stroke="url(#color-4)" stroke-width="3.95454" stroke-linecap="round" stroke-linejoin="round"/><g stroke="#000000" stroke-width="6.29461" stroke-linejoin="miter"><g><path d="M286.82608,198.8131l-6.96841,8.05729l1.51444,5.64281l-5.77882,0.56628l-4.02581,10.17154l-6.39382,-5.27579l5.45971,-14.95056l10.18394,-9.48342z" fill="url(#color-5)" stroke-linecap="round"/><path d="M284.55202,200.40453l-3.4914,5.59174l-4.60354,-3.79855l3.49136,-5.59174z" fill="#666666" stroke-linecap="butt"/><path d="M275.55499,214.40604l-3.4914,5.59174l-4.60354,-3.79855l3.49136,-5.59174z" fill="#666666" stroke-linecap="butt"/></g><path d="M280.0287,211.56162c-0.26741,0.42829 -0.76778,0.60407 -1.35949,0.54133c-0.59325,-0.06274 -1.27681,-0.36316 -1.91212,-0.88738c-0.63527,-0.52418 -1.10161,-1.17256 -1.34311,-1.79863c-0.24102,-0.62438 -0.25626,-1.22562 0.01115,-1.65391c0.26745,-0.42829 0.76782,-0.60407 1.35953,-0.54137c0.59325,0.06278 1.27681,0.36319 1.91208,0.88741c0.63531,0.52418 1.10161,1.17256 1.34315,1.7986c0.24102,0.62442 0.25622,1.22566 -0.01119,1.65394z" fill="#003fff" stroke-linecap="butt"/></g></g></g></svg>