<svg version="1.1" xmlns="http://www.w3.org/2000/svg" xmlns:xlink="http://www.w3.org/1999/xlink" width="234" height="234" viewBox="0,0,234,234"><g transform="translate(-123,-63)"><g data-paper-data="{&quot;isPaintingLayer&quot;:true}" fill-rule="nonzero" stroke-linejoin="miter" stroke-miterlimit="10" stroke-dasharray="" stroke-dashoffset="0" style="mix-blend-mode: normal"><path d="M280.40616,269.25956c0,0 -24.02285,-5.66801 -23.64002,-8.13592c0.69028,-4.44984 5.04243,-13.90047 5.04243,-13.90047l2.99082,-8.38161l-1.44316,3.06697c0,0 -10.61428,-8.54591 -11.74628,-11.44356c-0.59473,-1.52235 4.04281,-8.13646 6.00164,-8.88355c4.39431,-1.67593 33.38074,10.86895 32.99604,14.62053c-2.21146,8.60877 -6.81486,26.85532 -6.81486,26.85532c0,0 -1.54238,6.94048 -3.3866,6.20231z" data-paper-data="{&quot;index&quot;:null}" fill="#4b4b4b" stroke="#000000" stroke-width="3" stroke-linecap="round"/><g><g><g data-paper-data="{&quot;origRot&quot;:0}" stroke="#000000" stroke-width="3" stroke-linecap="round"><path d="M289.53008,212.18336c0.86824,2.29101 -7.72546,4.03485 -7.72546,4.03485c0,0 -22.6054,5.2609 -33.27159,7.7918c-4.63499,0.38893 -19.44414,-35.64117 -17.27737,-41.02176c0.96589,-2.3985 9.22766,-7.96653 11.09138,-7.19846c3.54741,1.46194 13.84386,14.7455 13.84386,14.7455l-3.81487,1.70974l10.40382,-3.49714c0,0 11.75308,-5.15148 17.25608,-5.90132c3.052,-0.41586 9.49412,29.33677 9.49412,29.33677z" data-paper-data="{&quot;origPos&quot;:null}" fill="#582700"/><path d="M280.03171,215.01245l-9.42906,-28.53163" fill="none"/><path d="M266.6165,188.09957l9.70078,28.44183" data-paper-data="{&quot;origPos&quot;:null}" fill="none"/></g><path d="M280.05821,215.65991l-2.66231,0.89839l-9.82774,-29.12395l2.66231,-0.89839z" fill="#ffffff" stroke="none" stroke-width="0" stroke-linecap="butt"/><path d="M248.30831,224.2501l-6.55609,-8.95227l-8.70702,-22.36627l-1.2167,-8.40131l2.17657,-4.64489l6.96036,-2.79346l1.39208,-0.55869l12.59614,13.26271l-2.69104,1.34939l0.74493,1.8561l12.57598,-4.23905l10.57088,28.3528l-26.54716,6.34422z" fill="#66c8ff" stroke="#000000" stroke-width="0.5" stroke-linecap="round"/></g><g fill="#fffc96" stroke="#000000" stroke-width="2" stroke-linecap="round"><path d="M259.28488,189.09495c0,0 2.61182,-4.25055 5.55245,-2.5395c4.70485,2.73759 -16.89241,33.30824 -21.947,30.75844c-2.06518,-1.0418 -0.68703,-4.41986 -0.68703,-4.41986l2.01003,0.72799c0,0 5.29284,-4.7462 10.48687,-11.75241c5.12206,-6.90912 7.21165,-12.39393 7.21165,-12.39393z"/><path d="M249.795,186.72893c0,0 -0.88827,-4.42226 1.71577,-4.22565c5.46623,0.41275 10.79693,41.54095 5.7686,39.92664c-3.04524,-0.97766 -2.55702,-5.0152 -2.55702,-5.0152l1.49124,0.49031c0,0 0.29485,-6.24366 -1.0647,-15.52958c-1.35954,-9.28594 -3.90485,-15.35963 -3.90485,-15.35963z" data-paper-data="{&quot;index&quot;:null}"/></g></g><path d="M123,297v-234h234v234z" data-paper-data="{&quot;index&quot;:null}" fill="none" stroke="none" stroke-width="0" stroke-linecap="butt"/><g stroke="#000000" stroke-linecap="round"><path d="M243.18432,179.7249c0,0 -28.34669,5.32305 -28.02033,-12.65459c0.12022,-6.62354 16.31486,-4.68711 16.31486,-4.68711z" data-paper-data="{&quot;origPos&quot;:null}" fill="#66c8ff" stroke-width="2"/><path d="M235.38678,167.87057c0,0 -15.87594,-2.23255 -15.65451,-2.84177c0.70212,-1.93158 12.46892,-1.12194 12.46892,-1.12194z" data-paper-data="{&quot;origPos&quot;:null}" fill="#0a0a0a" stroke-width="1"/></g><g data-paper-data="{&quot;index&quot;:null}"><path d="M237.9578,184.46612c0,0 1.35327,-14.29898 2.8609,-14.75259c4.52285,-1.36083 14.86373,0.20759 21.77513,0.63502c1.06844,0.06608 1.99413,13.63163 1.99413,13.63163l1.25132,30.64881c0,0 0.17339,14.94097 -0.99217,14.86889c-10.37557,-0.64168 -22.53624,-0.54272 -27.16103,-1.66814c-1.54159,-0.37514 -0.96649,-16.0681 -0.96649,-16.0681z" data-paper-data="{&quot;origPos&quot;:null}" fill="#66c8ff" stroke="#000000" stroke-width="3.5" stroke-linecap="round"/><path d="M257.06646,196.03228l0.04623,-2.08282c0.14381,-6.47989 0.28763,-12.95978 0.43144,-19.43966c0,0 0.06933,-3.12423 1.36068,-3.09557c1.29135,0.02866 1.22201,3.15289 1.22201,3.15289c-0.14381,6.47989 -0.33385,15.0426 -0.47766,21.52248c0,0 -0.06934,3.12423 -1.36069,3.09557c-1.29134,-0.02866 -1.222,-3.15289 -1.222,-3.15289z" fill="#ffffff" stroke="none" stroke-width="0.5" stroke-linecap="butt"/></g><path d="M239.64594,261.71066c0,0 -1.42848,4.24798 -3.25272,5.74633c-1.39655,1.14706 -3.27675,0.75025 -5.0186,0.26863c-4.78118,-1.32203 -8.2463,-4.94417 -14.94267,-8.77812c-1.8238,-1.04419 -1.31618,-4.31467 -0.15609,-6.067c1.08504,-1.63897 3.07157,-4.4215 3.07157,-4.4215l18.88432,-27.19391c0,0 2.55984,-3.44092 4.44072,-3.24544c4.52948,0.47072 7.70028,3.94995 11.77356,5.98618c1.38037,0.69004 -0.89375,4.91793 -0.89375,4.91793c0,0 -3.51633,8.29043 -5.76697,13.59675c-3.17651,7.48921 -8.13938,19.19019 -8.13938,19.19019z" fill="#4b4b4b" stroke="#000000" stroke-width="3" stroke-linecap="round"/><g fill="none" stroke="#b9b9b9" stroke-width="3"><path d="M261.0829,179.21273c-0.62941,-1.32439 0.12352,-2.48446 1.12272,-3.63756c0.99921,-1.15308 1.98385,-1.49011 2.49574,-0.53818c1.08533,2.01837 -0.12066,2.93288 -0.90306,3.83579c-0.99923,1.1531 -1.8265,2.21036 -2.7154,0.33996z" stroke-linecap="butt"/><path d="M259.76392,181.04447l2.11483,-2.38408" stroke-linecap="round"/><path d="M256.92842,181.58878c0.99921,-1.15308 1.98385,-1.49011 2.49575,-0.53818c1.08533,2.01837 -0.12066,2.93288 -0.90307,3.83579c-0.99921,1.1531 -1.8265,2.21037 -2.7154,0.33996c-0.62941,-1.32439 0.12352,-2.48446 1.12272,-3.63757z" stroke-linecap="butt"/><path d="M254.48671,187.05808l2.11482,-2.38409" stroke-linecap="round"/><path d="M250.02259,186.52261c0.35382,-1.56984 1.41522,-1.39709 2.61475,-0.92775c1.19953,0.46934 1.9492,1.42843 1.72914,2.62738c-0.46655,2.54208 -1.65615,1.6791 -2.59541,1.31159c-1.19953,-0.46934 -2.24816,-0.79419 -1.74848,-3.01121z" stroke-linecap="butt"/><path d="M250.77995,187.12388l-2.50828,-1.02845" stroke-linecap="round"/><path d="M244.38723,182.17537c0.73877,-1.25411 1.65673,-0.47426 2.62127,0.66209c0.96455,1.13635 1.39032,2.46595 0.87169,3.45301c-1.09966,2.09287 -1.95053,0.59607 -2.7058,-0.29373c-0.96455,-1.13636 -1.83047,-2.05027 -0.78716,-3.82138z" stroke-linecap="butt"/><path d="M242.91075,180.75661l2.00441,2.41991" stroke-linecap="round"/><path d="M239.34315,176.15376c0.73877,-1.25409 1.65674,-0.47426 2.62128,0.66209c0.96455,1.13635 1.39032,2.46595 0.87168,3.45301c-1.09966,2.09286 -1.95052,0.59607 -2.70579,-0.29373c-0.96454,-1.13634 -1.83047,-2.05026 -0.78715,-3.82138z" stroke-linecap="butt"/><path d="M239.87111,177.15491l-2.00442,-2.41992" stroke-linecap="round"/></g><path d="M269.65244,172.32188c-12.06268,0.76721 -23.76245,1.47515 -28.59993,0.72821c-4.42111,-0.68263 -5.88594,-3.36899 -5.88594,-3.36899c0,0 -1.88403,-2.33696 -2.0517,-3.86278c-0.503,-4.57747 -1.32537,-17.7021 -0.98611,-29.07399c0.01131,-0.37953 0.03143,-0.59244 0.06534,-0.97061c0.10172,-1.13455 0.68626,-5.5485 0.68626,-5.5485c0,0 3.09698,-1.82682 4.80207,-2.39173c5.11529,-1.69476 18.38879,-0.9089 32.30567,-1.23156c1.26139,-0.02925 3.50941,1.53494 3.50941,1.53494c0,0 1.70527,3.05143 1.76208,5.03414c0.3673,12.81856 0.72653,27.00277 0.59683,30.25685c-0.04322,1.08471 -1.65615,5.36588 -1.65615,5.36588z" fill="#582700" stroke="#000000" stroke-width="2.5" stroke-linecap="round"/><path d="M267.86218,151.53303c0.054,-3.50836 0.40804,-6.34766 0.79076,-6.34176c0.38273,0.00588 0.64923,2.85475 0.59523,6.36307c-0.054,3.50836 -0.40801,6.34763 -0.79075,6.34175c-0.38273,-0.00588 -0.64924,-2.85473 -0.59524,-6.36305z" fill="none" stroke="#000000" stroke-width="2.5" stroke-linecap="butt"/><path d="M228.64406,131.25901c-0.71987,-1.02188 0.30201,-1.74177 0.30201,-1.74177l1.26583,-0.84154c0.11619,-0.04323 0.2323,-0.08568 0.34842,-0.12737c-1.3504,-5.71528 -0.63389,-12.75226 -0.99126,-18.45956c-0.09268,-1.48009 -0.69727,-5.46984 -0.05452,-6.78043c1.07629,-2.19463 2.81861,-1.69902 4.71128,-1.81236c3.22037,-0.19285 6.41712,-0.34486 9.57506,-1.00716c7.82866,-1.63234 15.64596,-2.35607 23.54128,-3.50467c2.49143,-0.36245 4.93222,-0.59888 7.46244,-0.53324c0.69232,0.01797 1.55914,-0.28522 2.0696,0.18281c1.80792,1.6576 1.19174,3.65625 0.98956,5.63375c-0.40329,3.94449 -1.80992,7.56272 -1.69508,11.57079c0.06737,3.06693 -0.2205,6.23496 -0.43297,9.29313c-0.07333,1.05535 0.38092,2.97468 -0.63229,3.82371c-2.07755,1.74087 -7.78791,0.86537 -10.3274,0.93066c-7.74344,0.19912 -15.49745,0.23887 -23.21773,0.87894c-2.75437,0.32342 -5.37561,0.71292 -7.98481,1.44403c-0.00445,0.37351 -0.15358,0.86092 -0.82467,1.10396c-0.72811,0.26368 -1.16851,-0.08705 -1.39821,-0.39211c-0.08849,0.03208 -0.177,0.06466 -0.26553,0.09773l-0.69924,0.54276c0,0 -1.02188,0.71987 -1.74177,-0.30201z" fill="#000000" stroke="none" stroke-width="0.5" stroke-linecap="butt"/><path d="M271.53921,145.4927c-0.19663,0.55574 -0.67553,0.52011 -0.87148,0.47941c-0.13881,0.19393 -0.36758,0.31854 -0.62405,0.31383c-0.17596,-0.00323 -0.33663,-0.0668 -0.46268,-0.1706l-0.63349,-0.51161c-0.12489,-0.06449 -0.24955,-0.12681 -0.37422,-0.18722c-0.56917,-0.0238 -1.11946,-0.45731 -1.78878,-0.75506c-0.15959,-0.05928 -0.32083,-0.11752 -0.48411,-0.17522c0,0 -0.1537,-0.05438 -0.29242,-0.18409c-0.26157,-0.12104 -0.44081,-0.38808 -0.43519,-0.69475c0.00759,-0.41414 0.34948,-0.74372 0.76362,-0.73612c0.08104,0.00148 0.15884,0.01577 0.2315,0.0409l0.74827,0.23951l-0.02935,0.0917l0.02989,0.01394c0.02063,0.00869 0.04109,0.01729 0.06135,0.02579c0.07623,0.02877 0.15209,0.05781 0.22762,0.08712c1.00956,0.13523 1.98713,0.4624 2.91471,0.98002l0.56194,0.1852c0,0 0.70704,0.25018 0.45687,0.95722z" fill="#582700" stroke="none" stroke-width="0.5" stroke-linecap="butt"/><g stroke="#000000" stroke-width="1.25" stroke-linecap="butt"><g data-paper-data="{&quot;index&quot;:null}" fill="#000000"><path d="M256.279,167.39535c-8.72809,-1.49346 -4.94842,-4.35385 -4.94842,-4.35385l10.95923,1.73004c0,0 2.20009,3.94963 -6.01081,2.62381z"/></g><g data-paper-data="{&quot;index&quot;:null}" fill="#ffffff"><path d="M256.279,167.39535c-8.72809,-1.49346 -4.94842,-4.35385 -4.94842,-4.35385c0,0 7.41427,1.17044 9.26452,1.46252c0.00255,0.0004 -0.72281,0.75504 -0.84933,1.6041c-0.10363,0.69541 0.38939,1.51596 0.37297,1.5176c-0.91626,0.0913 -2.16021,0.04084 -3.83976,-0.23036z"/></g></g><g><g data-paper-data="{&quot;index&quot;:null}"><path d="M276.72749,181.01966c2.40934,-0.40416 6.19893,-5.22257 6.57426,-2.98499c0.19117,1.13975 3.27926,22.02637 2.73674,23.17425c-0.52258,1.1056 -1.39489,1.8938 -2.57697,2.09208c-0.80425,0.13489 -2.10664,-0.04627 -2.97185,-0.51919c-1.7268,-0.94386 -10.13361,-20.80127 -10.38366,-22.29194c-0.37532,-2.23759 4.21215,0.93396 6.6215,0.52982z" fill="#0091d4" stroke="#000000" stroke-width="1.5" stroke-linecap="butt"/><g stroke-linecap="butt"><path d="M275.50789,173.61411c4.36517,-0.73222 8.29579,1.01073 8.77924,3.89298c0.48348,2.88226 -2.66325,5.8124 -7.02842,6.54463c-4.36518,0.73221 -8.2958,-1.01073 -8.77927,-3.89299c-0.48348,-2.88226 2.66327,-5.81239 7.02843,-6.54461z" fill="#0091d4" stroke="#000000" stroke-width="1.5"/><path d="M273.67188,183.16579c0,0 -1.70328,-0.1071 -3.1121,-1.1458c-0.66459,-0.50536 -1.67439,-2.22274 -1.67439,-2.22274l3.82128,0.99202z" fill="#00aeff" stroke="none" stroke-width="0"/><path d="M277.2326,183.20072l-1.91671,0.26849c0,0 -0.39388,-0.69127 -0.49062,-1.1031c-0.0826,-0.35172 -0.14186,-1.38174 -0.14186,-1.38174l1.63908,0.03612z" fill="#00aeff" stroke="none" stroke-width="0"/></g><g><path d="M276.68909,179.98399c-6.02189,1.01012 -12.83599,-2.1256 -13.8461,-8.14744c-1.01012,-6.02189 2.53905,-11.00169 8.56089,-12.01182c6.02189,-1.01012 12.031,3.00095 13.04112,9.02278c1.01012,6.02189 -1.73405,10.12634 -7.75588,11.13646z" fill="#00699a" stroke="#000000" stroke-width="1.5" stroke-linecap="butt"/><path d="M269.5028,161.00822c0,0 1.70549,1.17797 3.94797,3.02886c2.23703,1.84639 4.31957,4.81957 4.76091,7.45067c0.88379,5.26867 -0.34535,7.47802 -4.72063,8.21197c-2.12859,0.35706 -4.29905,-0.46138 -5.86302,-1.85929c-2.19519,-1.96211 -4.16918,-4.81478 -4.67033,-7.80248c-0.88379,-5.26867 6.54509,-9.02972 6.54509,-9.02972z" fill="#0091d4" stroke="none" stroke-width="0" stroke-linecap="butt"/><path d="M283.50448,169.42236c0,0 -2.57786,4.20912 -9.64213,5.13674c-7.00688,0.92011 -10.67243,-2.7129 -10.67243,-2.7129" fill="none" stroke="#000000" stroke-width="0.8" stroke-linecap="round"/><path d="M282.90258,175.3646c0,0 -2.13791,2.49622 -8.65916,2.60322c-4.52509,0.07424 -8.99509,-1.54793 -8.99509,-1.54793" fill="none" stroke="#000000" stroke-width="0.75" stroke-linecap="round"/><path d="M282.65408,166.55213c0,0 -1.67707,2.41941 -8.47291,2.92527c-7.0656,0.52594 -10.81689,-2.45644 -10.81689,-2.45644" fill="none" stroke="#000000" stroke-width="0.8" stroke-linecap="round"/><path d="M265.06543,163.59976c0,0 4.59389,-0.81964 9.23813,-0.39545c3.52596,0.32203 8.05999,1.98236 8.05999,1.98236" fill="none" stroke="#000000" stroke-width="0.8" stroke-linecap="round"/><path d="M275.80899,160.56784c0,0 3.37166,2.13897 4.12574,8.10059c0.80807,6.38855 -1.06603,10.13972 -1.06603,10.13972" fill="none" stroke="#000000" stroke-width="0.8" stroke-linecap="round"/><path d="M275.6597,179.83835c0,0 -0.7542,-3.18676 -0.96795,-5.12815c-0.17996,-1.63454 0.0461,-4.84049 -0.18215,-7.76765c-0.25958,-3.32855 -0.96352,-6.30256 -0.96352,-6.30256" fill="none" stroke="#000000" stroke-width="0.8" stroke-linecap="round"/><path d="M272.88863,180.1802c0,0 -3.03677,-3.75553 -3.9423,-10.2735c-0.57694,-4.15281 1.75846,-9.34348 1.75846,-9.34348" fill="none" stroke="#000000" stroke-width="0.8" stroke-linecap="round"/><path d="M267.50354,178.50106c0,0 -2.04495,-2.90506 -2.05668,-8.96211c-0.00813,-4.2062 1.86953,-7.91543 1.86953,-7.91543" fill="none" stroke="#000000" stroke-width="0.8" stroke-linecap="round"/><path d="M264.46431,170.27971c-0.42937,0.07203 -0.84483,-0.27121 -0.92792,-0.76666c-0.08311,-0.49543 0.19761,-0.95545 0.627,-1.02747c0.42937,-0.07203 0.84484,0.2712 0.92794,0.76665c0.08311,0.49543 -0.19762,0.95547 -0.62699,1.02749z" fill="#00aeff" stroke="none" stroke-width="0" stroke-linecap="butt"/><path d="M264.76969,166.78522c-0.24771,0.04155 -0.48221,-0.12557 -0.52377,-0.37329c-0.04156,-0.24771 0.12557,-0.48221 0.37329,-0.52377c0.24771,-0.04155 0.48222,0.12558 0.52377,0.37329c0.04156,0.24771 -0.12557,0.48222 -0.37329,0.52377z" fill="#00aeff" stroke="none" stroke-width="0" stroke-linecap="butt"/></g></g><path d="M273.97215,183.80369c2.32033,10.54839 1.96669,12.50871 1.96669,12.50871c0.21913,1.33715 -1.09919,1.42227 -1.09919,1.42227c0,0 -2.53657,0.47735 -4.1601,0.78286c-1.06608,0.20062 -2.73169,0.51407 -2.73169,0.51407c0,0 -1.0789,0.02443 -1.18288,-0.70815c-0.62552,-4.40726 -1.45817,-8.585 -1.56142,-10.8285c-0.03443,-0.74784 0.86012,-1.73838 0.86012,-1.73838l5.0141,-1.54526c0,0 2.01891,-0.75256 2.89434,-0.40759z" fill="#582700" stroke="#000000" stroke-width="3" stroke-linecap="round"/><path d="M286.72092,182.77879c4.30229,21.90675 3.69412,25.9564 3.69412,25.9564c0.41086,2.7749 -1.95266,2.91501 -1.95266,2.91501c0,0 -4.54336,0.91895 -7.45132,1.50715c-1.9095,0.38623 -4.89284,0.98966 -4.89284,0.98966c0,0 -1.93483,0.02102 -2.13108,-1.49879c-1.18065,-9.14348 -2.72973,-17.81743 -2.94479,-22.46606c-0.0717,-1.54953 1.51961,-3.57622 1.51961,-3.57622l8.97294,-3.06242c0,0 3.6112,-1.50306 5.186,-0.76473z" fill="#582700" stroke="#000000" stroke-width="3" stroke-linecap="round"/></g><g><path d="M238.77022,172.35168c1.95316,-2.55467 7.4435,10.56699 9.0128,12.25322c1.70562,1.83267 -19.05843,4.4423 -19.05843,4.4423l-3.52597,0.39273l23.2786,-3.0236c0,0 7.98698,-1.44965 8.02665,0.81805c0,0 5.13672,9.88363 1.90422,28.48068c-4.89736,1.56477 -16.86126,0.84769 -16.86126,0.84769c0,0 -26.63868,-0.36176 -29.13337,-4.36416c-0.57768,-0.92681 -4.75737,-13.32601 -2.96194,-17.07561c5.95805,-12.44283 29.31869,-22.77131 29.31869,-22.77131z" fill="#582700" stroke="#000000" stroke-width="2.5" stroke-linecap="round"/><path d="M230.49699,189.5149c-0.50555,0.03477 -1.0124,0.0626 -1.52036,0.09221c-0.1121,0.00653 -1.38757,-0.04337 -1.95192,0.16809c0.2859,6.8941 1.64034,13.66572 1.56327,20.60575c0.03482,0.61255 0.23698,1.89812 0.26528,3.15467c0.11003,0.36401 0.24105,0.63795 0.39753,0.7176c1.33056,0.67737 3.22331,0.52162 4.67278,0.93545c-0.13532,-0.3587 -0.51205,-1.40167 -0.58515,-1.85433c-0.21707,-1.34432 -0.43566,-2.67235 -0.69337,-4.00872c-0.90341,-4.68455 -1.35381,-9.85962 -1.69526,-14.59315c-0.30897,-1.67016 -0.48878,-3.47022 -0.45278,-5.21757zM231.99695,189.38239c-0.05129,1.72305 0.1365,3.5157 0.44088,5.16108c0.36147,5.35541 1.11278,10.92319 2.04408,16.23972c0.38373,2.19059 1.79292,5.36136 -0.73769,5.8955c-1.54783,-0.42188 -3.63782,-0.32724 -5.10117,-1.06531c-0.1396,0.44675 -0.35961,0.7979 -0.69342,0.98473c-0.46988,0.26299 -2.55813,-0.32639 -3.1478,-0.39476c-3.51792,-0.40788 -7.81857,-0.244 -10.20522,-3.30945c-5.0089,-3.6884 -6.83173,-12.63397 -6.07608,-18.4468c2.09492,-3.88199 4.90995,-5.83405 8.52766,-8.17182c2.61211,-1.68793 4.76096,-3.75743 7.60344,-5.15937c3.68157,-2.49056 7.42917,-4.86083 11.11279,-7.34563c1.69064,-1.14043 2.92942,-2.81798 4.94242,-1.74322c1.83453,3.09804 3.68765,6.23076 5.45788,9.3836c0.55182,0.9828 1.60597,3.01515 1.28837,4.18964c-0.44139,1.63221 -2.31678,1.61861 -3.68948,1.71527c-2.97568,0.6286 -6.2687,1.1596 -9.54725,1.43782c-0.16571,0.28838 -0.51709,0.36186 -0.51709,0.36186c-0.56531,0.11761 -1.13284,0.20242 -1.70231,0.26718zM227.14629,212.13525c-0.87056,-3.97271 -0.52241,-7.97783 -1.26488,-11.91997c-0.48418,-2.31437 -1.68194,-6.36136 -1.10515,-9.25882c-0.03315,-0.15203 -0.01883,-0.27525 -0.01883,-0.27525l0.09188,-0.76363c-0.04381,-0.75253 0.16351,-1.51945 0.45233,-2.21573c5.76896,-1.61615 12.29174,-0.63609 18.25566,-1.87205c0.6892,-0.04781 1.67547,-0.05324 2.31601,-0.30025c0.39396,-0.15191 -0.54251,-2.49776 -0.67016,-2.77519c-1.55425,-3.37769 -3.88984,-6.37337 -5.57523,-9.68525c-0.24459,-0.2935 -2.51362,1.60055 -3.02705,1.9463c-3.71246,2.50009 -7.47906,4.90092 -11.19626,7.3978c-2.82592,1.39747 -4.95157,3.43933 -7.54723,5.12507c-3.30375,2.14559 -5.92774,3.87164 -7.90823,7.366c-0.51226,5.37129 1.06328,13.50398 5.68934,16.91049c2.37579,2.95727 8.12786,3.0833 11.58922,3.46846c0.03671,0.00408 -0.01725,-1.69366 -0.06848,-3.08678c-0.00426,-0.02078 -0.00857,-0.04119 -0.01295,-0.0612z" fill="#000000" stroke="none" stroke-width="0.5" stroke-linecap="butt"/><path d="M230.95532,194.68279c0.34145,4.73354 0.80427,10.00497 1.70767,14.68952c0.25772,1.33639 0.47296,2.66556 0.69002,4.00988c0.07309,0.45266 0.44989,1.49561 0.58521,1.85431c-1.44948,-0.41383 -3.3604,-0.25602 -4.69096,-0.93337c-0.15647,-0.07966 -0.28953,-0.35379 -0.39956,-0.7178c-0.02829,-1.25655 -0.2343,-2.54271 -0.26912,-3.15525c0.07708,-6.94004 -1.2795,-13.80942 -1.56541,-20.70352c0.56435,-0.21146 1.84717,-0.16274 1.95926,-0.16927c0.50795,-0.02961 1.02062,-0.05759 1.52617,-0.09236c-0.03598,1.74736 0.14773,3.5477 0.4567,5.21787z" data-paper-data="{&quot;noHover&quot;:false,&quot;origItem&quot;:[&quot;Path&quot;,{&quot;applyMatrix&quot;:true,&quot;segments&quot;:[[[926.17844,407.1979],[3.2606,1.25965],[-0.27949,0.97418]],[[925.31465,410.11917],[0.29084,-0.97519],[-0.06418,0.21521]],[[924.29914,413.90358],[-0.01258,-1.20526],[13.15638,4.16543]],[[964.1057,425.02121],[-12.99513,-4.87922],[1.17537,0.35239]],[[970.21765,426.67451],[-2.3817,-0.804],[0.75941,0.04146]],[[971.83798,426.41666],[-0.25651,0.23985],[2.18115,-2.03947]],[[976.78433,418.26967],[-1.76682,2.44279],[-0.76669,0.00973]],[[972.89889,418.10481],[0.90089,0.17138],[-2.67549,-0.50896]],[[964.88923,416.67374],[2.68829,0.42712],[-9.42353,-1.49721]],[[936.29671,409.90591],[9.13228,2.58714],[-3.35077,-0.55846]]],&quot;closed&quot;:true}]}" fill="#ffffff" stroke="none" stroke-width="0.5" stroke-linecap="butt"/><path d="M227.09444,210.36578c0.01282,0.22674 0.18976,4.97403 0.12905,4.96727c-3.46137,-0.38516 -9.24107,-0.52247 -11.61685,-3.47973c-4.62605,-3.4065 -6.21971,-11.58007 -5.70744,-16.95136c1.98049,-3.49436 4.6144,-5.24804 7.91815,-7.39364c2.59567,-1.68574 4.74878,-3.74604 7.57469,-5.1435c3.71719,-2.49688 7.5138,-4.89619 11.22625,-7.39628c0.51342,-0.34576 2.78643,-2.23814 3.03101,-1.94463c1.68538,3.31188 4.03867,6.32156 5.59291,9.69925c0.12765,0.27742 1.06787,2.62864 0.67391,2.78054c-0.64055,0.247 -1.71101,0.30634 -2.40022,0.35415c-5.96393,1.23596 -12.42512,0.27356 -18.19406,1.88971c-0.28881,0.69629 -0.48807,1.45869 -0.44425,2.21123l-0.08878,0.76131c0,0 -0.14938,0.66723 0.59562,0.75372c0.07459,0.00866 0.20437,0.08759 0.26632,0.08116c0.41463,6.30829 1.50931,12.44507 1.44368,18.81079z" data-paper-data="{&quot;noHover&quot;:false,&quot;origItem&quot;:[&quot;Path&quot;,{&quot;applyMatrix&quot;:true,&quot;segments&quot;:[[[926.61254,417.73069],[12.14285,3.5238],[-0.03018,0.12086]],[[926.46822,418.11346],[0.06716,-0.13431],[-0.67082,1.34164]],[924.45576,418.78428],[[923.08279,418.0906],[0,0],[-1.44471,-0.43097]],[[919.22563,415.72869],[1.11205,1.01797],[0.89694,-11.9485]],[[928.15956,380.1298],[-1.74473,12.05571],[0.38029,-1.32836]],[[929.175,375.57071],[0.02742,1.37277],[-0.01686,-0.84429]],[[923.5003,374.93752],[0.60865,-0.05075],[-7.41054,0.61792]],[[901.48814,378.8123],[7.37628,-0.90935],[-0.71866,0.25961]],[[903.08234,385.83106],[-0.2998,-1.20115],[2.16779,8.68513]],[[909.35292,411.92731],[-2.15853,-8.69186],[0.69956,6.26621]],[[913.83986,429.61277],[-1.39861,-6.02998],[1.78014,7.67491]],[[922.29365,449.50563],[-5.21858,-6.1072],[9.74892,4.62723]],[[957.96755,450.34516],[-9.56021,6.37347],[7.18055,-2.44927]],[[972.39433,430.92276],[-3.08539,6.24485],[0.05411,-0.10951]],[[963.14745,427.86406],[0.43501,0.13058],[-11.92317,-4.46591]]],&quot;closed&quot;:true}]}" fill="#66c8ff" stroke="none" stroke-width="0.5" stroke-linecap="butt"/></g></g></g></svg>