<svg version="1.1" xmlns="http://www.w3.org/2000/svg" xmlns:xlink="http://www.w3.org/1999/xlink" width="494" height="292.70023" viewBox="0,0,494,292.70023"><g transform="translate(13.00601,-107.40226)"><g data-paper-data="{&quot;isPaintingLayer&quot;:true}" fill-rule="nonzero" stroke-linejoin="miter" stroke-miterlimit="10" stroke-dasharray="" stroke-dashoffset="0" style="mix-blend-mode: normal"><g data-paper-data="{&quot;index&quot;:null}" stroke-linecap="butt"><path d="M221.98488,393.85249c-0.77689,-0.57974 0.99106,-2.50027 0.778,-9.4002c-0.14892,-4.82271 -2.15427,-111.85346 1.03117,-128.85423c1.06181,-5.66692 4.04492,-2.74856 6.94326,-2.74856c2.74505,0 -1.76754,-0.93833 0.29624,2.86509c2.51727,4.63916 1.524,81.78896 1.64875,128.7377c0.00835,3.14256 1.12148,6.83081 0.31543,10.29462c-0.04837,0.20781 -9.50111,0.23371 -11.01286,-0.89441z" data-paper-data="{&quot;origPos&quot;:null,&quot;index&quot;:null}" fill="#c1c1c1" stroke="#828282" stroke-width="6.5"/><path d="M159.98496,368.85248c-0.77689,-0.57974 0.99105,-2.50027 0.77799,-9.4002c-0.14891,-4.82271 -2.15426,-111.85346 1.03118,-128.85423c1.06181,-5.66692 4.04492,-2.74856 6.94326,-2.74856c2.74505,0 -1.76754,-0.93833 0.29624,2.86509c2.51727,4.63916 1.524,81.78896 1.64875,128.7377c0.00835,3.14256 1.12149,6.83081 0.31543,10.29462c-0.04837,0.20781 -9.50111,0.23371 -11.01286,-0.89441z" data-paper-data="{&quot;origPos&quot;:null,&quot;index&quot;:null}" fill="#c1c1c1" stroke="#828282" stroke-width="6.5"/><path d="M135.98496,396.85249c-0.77689,-0.57974 0.99105,-2.50027 0.77799,-9.4002c-0.14891,-4.82271 -2.15426,-111.85346 1.03118,-128.85423c1.06181,-5.66692 4.04492,-2.74856 6.94326,-2.74856c2.74505,0 -1.76754,-0.93833 0.29624,2.86509c2.51727,4.63916 1.524,81.78896 1.64875,128.7377c0.00835,3.14256 1.12149,6.83081 0.31543,10.29462c-0.04837,0.20781 -9.50111,0.23371 -11.01286,-0.89441z" data-paper-data="{&quot;origPos&quot;:null,&quot;index&quot;:null}" fill="#c1c1c1" stroke="#828282" stroke-width="6.5"/><path d="M70.98487,366.85248c-0.77689,-0.57974 0.99105,-2.50027 0.77799,-9.4002c-0.14891,-4.82271 -2.15426,-111.85346 1.03118,-128.85423c1.06181,-5.66692 4.04492,-2.74856 6.94326,-2.74856c2.74505,0 -1.76754,-0.93833 0.29624,2.86509c2.51727,4.63916 1.524,81.78896 1.64875,128.7377c0.00835,3.14256 1.12149,6.83081 0.31543,10.29462c-0.04837,0.20781 -9.50111,0.23371 -11.01286,-0.89441z" data-paper-data="{&quot;origPos&quot;:null,&quot;index&quot;:null}" fill="#c1c1c1" stroke="#828282" stroke-width="6.5"/><g data-paper-data="{&quot;origPos&quot;:null}"><path d="M70.91226,241.25384c-2.27558,-8.60589 -2.12575,-103.05641 0.33242,-112.92789c2.45817,-9.87148 72.06068,-20.84955 87.32827,-15.07281c12.66424,4.79172 12.97277,99.62501 11.85507,110.52016c-2.59938,25.3384 50.55518,24.74512 59.95107,29.06388c3.13197,1.43958 7.59409,9.8802 4.41279,11.20721c-34.10147,14.22461 -80.57579,23.95962 -90.50753,20.17894c-2.23345,-0.8502 -6.96643,-1.888 -9.15346,-2.85136c-25.24225,-11.11879 -57.37293,-27.15632 -62.36985,-31.51412c-1.66564,-1.4526 -1.28379,-6.46739 -1.84876,-8.60403z" data-paper-data="{&quot;origPos&quot;:null,&quot;origRot&quot;:0}" fill="#003cae" stroke="#002b7b" stroke-width="8.5"/><path d="M153.82318,170.62528c2.35282,2.5 1.69769,55.25306 1.50281,57.5c-0.62894,7.25169 -8.29783,6.41419 -10.75281,2c-0.97323,-7.36703 -3.46485,-54.35105 -1.50281,-58.5c3.34642,-7.07639 8.39999,-3.5 10.75281,-1z" data-paper-data="{&quot;origPos&quot;:null}" fill="#ffffff" stroke="#002b7b" stroke-width="5.5"/><path d="M107.32314,174.29192c2.35282,2.5 1.69769,55.25306 1.50281,57.5c-0.62894,7.25169 -8.29783,6.41419 -10.75281,2c-0.97323,-7.36702 -3.46485,-54.35105 -1.50281,-58.5c3.34642,-7.07639 8.39999,-3.5 10.75281,-1z" data-paper-data="{&quot;origPos&quot;:null}" fill="#ffffff" stroke="#002b7b" stroke-width="5.5"/><path d="M141.5343,146.20861c-2.20914,0 -4,-1.79086 -4,-4c0,-2.20914 1.79086,-4 4,-4c2.20914,0 4,1.79086 4,4c0,2.20914 -1.79086,4 -4,4z" data-paper-data="{&quot;origPos&quot;:null}" fill="#c1c1c1" stroke="#828282" stroke-width="2.5"/><path d="M131.98992,171.95861c2.35283,2.5 1.69769,55.25306 1.50281,57.5c-0.62895,7.25169 -8.29783,6.41419 -10.75281,2c-0.97323,-7.36703 -3.46485,-54.35105 -1.50281,-58.5c3.34642,-7.07639 8.39999,-3.5 10.75281,-1z" data-paper-data="{&quot;origPos&quot;:null}" fill="#ffffff" stroke="#002b7b" stroke-width="5.5"/></g></g><path d="M-10.50601,367.66892v-125h489v125z" fill="#af5815" stroke="#000000" stroke-width="5" stroke-linecap="butt"/><g stroke="#000000" stroke-width="5" stroke-linecap="round"><path d="M391.83834,157.49626l-13.09981,105.52625l-129.54256,0.72777l10.9165,-106.25401z" data-paper-data="{&quot;origPos&quot;:null}" fill="#565656"/><path d="M378.74706,263.13086v9.70357l-130.02773,0.48518l-55.31031,-8.73321l0.97036,-11.64427l54.82513,11.64427z" data-paper-data="{&quot;origPos&quot;:null}" fill="#202020"/></g></g></g></svg>