<svg version="1.1" xmlns="http://www.w3.org/2000/svg" xmlns:xlink="http://www.w3.org/1999/xlink" width="911.91971" height="292.65604" viewBox="0,0,911.91971,292.65604"><defs><linearGradient x1="245.89215" y1="169.16923" x2="245.89215" y2="-66.15631" gradientUnits="userSpaceOnUse" id="color-1"><stop offset="0" stop-color="#cee0ff"/><stop offset="1" stop-color="#80b7ff"/></linearGradient><linearGradient x1="257.41741" y1="31.30019" x2="257.41741" y2="116.29302" gradientUnits="userSpaceOnUse" id="color-2"><stop offset="0" stop-color="#3d9039"/><stop offset="1" stop-color="#265221"/></linearGradient><linearGradient x1="-101.5" y1="63.20712" x2="79.5" y2="63.20712" gradientUnits="userSpaceOnUse" id="color-3"><stop offset="0" stop-color="#000000"/><stop offset="1" stop-color="#000000" stop-opacity="0"/></linearGradient><linearGradient x1="620.5" y1="51.22673" x2="439.5" y2="51.22673" gradientUnits="userSpaceOnUse" id="color-4"><stop offset="0" stop-color="#000000"/><stop offset="1" stop-color="#000000" stop-opacity="0"/></linearGradient><linearGradient x1="258" y1="-89.04655" x2="258" y2="43.5" gradientUnits="userSpaceOnUse" id="color-5"><stop offset="0" stop-color="#000000"/><stop offset="1" stop-color="#000000" stop-opacity="0"/></linearGradient></defs><g transform="translate(203.47423,89.04655)"><g data-paper-data="{&quot;isPaintingLayer&quot;:true}" fill-rule="nonzero" stroke-linejoin="miter" stroke-miterlimit="10" stroke-dasharray="" stroke-dashoffset="0" style="mix-blend-mode: normal"><path d="M-97.5,190.5v-228h696.5v228z" fill="#f7c33d" stroke="none" stroke-width="0" stroke-linecap="butt"/><g><path d="M595.47506,-69.15931l7.61186,232.32254l-725.78519,4.5045l3.003,-235.32554z" data-paper-data="{&quot;index&quot;:null}" fill="url(#color-1)" stroke="none" stroke-width="0" stroke-linecap="butt"/><path d="M497.79945,150.87095l-487.39151,-2.35919l3.88812,-107.84909c0,0 11.04333,-3.85445 24.65449,-3.90691c17.10061,-0.06592 29.16974,3.30667 29.16974,3.30667c0,0 17.41688,-6.33115 30.10508,-6.60265c28.05155,-0.60024 39.22783,6.60265 39.22783,6.60265c0,0 21.05918,-5.82731 42.87349,-5.62648c31.03654,0.28573 47.44175,5.02624 47.44175,5.02624c0,0 17.84007,-6.64617 37.38049,-6.27175c21.04635,0.40327 28.30333,4.47102 28.30333,4.47102c0,0 18.71627,-5.74566 50.14605,-4.93089c34.69618,0.89944 52.02877,6.13137 52.02877,6.13137c0,0 10.20602,-5.38869 28.28053,-7.20289c15.39649,-1.54539 37.40329,2.40097 37.40329,2.40097c0,0 18.12434,-1.22927 24.91375,-0.39817c6.24014,0.76386 14.31409,5.2001 14.31409,5.2001z" fill="url(#color-2)" stroke="#000000" stroke-width="1" stroke-linecap="round"/><path d="M170.12724,165.52672l-19.15868,-32.98396c0,0 59.39306,-16.21366 258.00365,-16.21366c187.54113,0 241.39946,6.22039 241.39946,6.22039v42.97723z" fill="#a9fab2" stroke="#000000" stroke-width="1.5" stroke-linecap="butt"/><path d="M-148.39327,173.6027v-48.26673c0,0 38.37167,-6.98598 227.78733,-6.98598c178.85867,0 230.22356,6.98598 230.22356,6.98598v48.26673z" fill="#a9fab2" stroke="#000000" stroke-width="1.5" stroke-linecap="butt"/><path d="M-198.1031,186.2362l-4.5045,-30.42527c0,0 182.87431,-3.71218 510.51685,-3.71218c309.38154,0 396.72868,2.21067 396.72868,2.21067l3.003,48.44329c0,0 -65.27637,-8.18681 -143.3182,-10.53765c-93.133,-2.80542 -204.44578,0.15302 -244.69448,0.28071c-155.47942,0.49323 -517.73136,-6.25957 -517.73136,-6.25957z" fill="#8df99a" stroke="#000000" stroke-width="1.5" stroke-linecap="butt"/><g stroke="#000000" stroke-linecap="butt"><path d="M182.94431,194.25662l7.56886,-51.07527l105.84148,-0.24977l16.63939,52.06966z" fill="#f5f5f5" stroke-width="1.5"/><path d="M145.02884,148.73329v-109.74853h194.51981v109.74853z" fill="#ffecad" stroke-width="1.5"/><path d="M226.0369,129.29947v-43.60347h26.96862v43.60347z" fill="#836346" stroke-width="1.5"/><path d="M163.78223,110.76106v-38.56261h48.64433v38.56261z" fill="#f5f5f5" stroke-width="1.5"/><path d="M166.80675,107.96377v-32.96803h42.5953v32.96803z" fill="#89c6c9" stroke-width="1.5"/><path d="M264.5995,110.76106v-38.56261h48.64433v38.56261z" fill="#f5f5f5" stroke-width="1.5"/><path d="M267.62402,107.96377v-32.96803h42.5953v32.96803z" fill="#89c6c9" stroke-width="1.5"/><g stroke-width="1.5"><path d="M215.44615,134.80183l1.00817,-1.37883v-7.44149l2.08063,-0.9086l44.48436,-0.09957l2.07935,1.00817v7.31547l1.00817,1.37883l-0.08746,7.55007l1.40726,1.38783l-53.48583,-0.01152l1.44234,-1.49112z" fill="#cfcfcf"/><g fill="#f5f5f5"><path d="M216.45433,133.28957v-7.30807h48.64433v7.30807z"/><path d="M215.44616,142.26255v-7.61099h50.66068v7.61099z"/><path d="M213.9339,151.5633v-8.06538h53.6852v8.06538z"/></g></g><path d="M121.38065,41.4647l122.63406,-39.07805l112.73609,39.31586z" fill="#6a6348" stroke-width="1.5"/><path d="M246.0323,110.21601c0,-2.0416 1.65504,-3.69663 3.69663,-3.69663c2.0416,0 3.69663,1.65504 3.69663,3.69663c0,2.0416 -1.65504,3.69663 -3.69663,3.69663c-2.0416,0 -3.69663,-1.65504 -3.69663,-3.69663z" fill="#fffc49" stroke-width="1"/></g><g stroke="#000000" stroke-linecap="butt"><path d="M422.76376,192.99261l3.78443,-48.80461l105.84148,-0.24977l14.36873,47.38109z" fill="#f5f5f5" stroke-width="1.5"/><path d="M381.06388,149.73994v-109.74853h194.51981v109.74853z" fill="#e3efff" stroke-width="1.5"/><path d="M462.07193,130.30613v-43.60347h26.96862v43.60347z" fill="#836346" stroke-width="1.5"/><path d="M399.81725,111.76771v-38.56261h48.64433v38.56261z" fill="#f5f5f5" stroke-width="1.5"/><path d="M402.84177,108.97043v-32.96803h42.5953v32.96803z" fill="#7d8aff" stroke-width="1.5"/><path d="M500.63453,111.76771v-38.56261h48.64433v38.56261z" fill="#f5f5f5" stroke-width="1.5"/><path d="M503.65905,108.97043v-32.96803h42.5953v32.96803z" fill="#89c6c9" stroke-width="1.5"/><g stroke-width="1.5"><path d="M451.48118,135.80848l1.00817,-1.37883v-7.44149l2.08063,-0.9086l44.48436,-0.09957l2.07935,1.00817v7.31547l1.00817,1.37883l-0.08746,7.55007l1.40726,1.38783l-53.48583,-0.01152l1.44234,-1.49112z" fill="#cfcfcf"/><g fill="#f5f5f5"><path d="M452.48935,134.29623v-7.30807h48.64433v7.30807z"/><path d="M451.48119,143.2692v-7.61099h50.66068v7.61099z"/><path d="M449.96893,152.56995v-8.06538h53.6852v8.06538z"/></g></g><path d="M357.41568,42.47136l122.63406,-39.07805l112.73609,39.31586z" fill="#6a6348" stroke-width="1.5"/><path d="M482.06733,111.22266c0,-2.0416 1.65504,-3.69663 3.69663,-3.69663c2.0416,0 3.69663,1.65504 3.69663,3.69663c0,2.0416 -1.65504,3.69663 -3.69663,3.69663c-2.0416,0 -3.69663,-1.65504 -3.69663,-3.69663z" fill="#fffc49" stroke-width="1"/></g><g stroke="#000000" stroke-linecap="butt"><path d="M-60.27358,189.29843l5.2982,-46.37443l105.84148,-0.24977l14.36873,47.38109z" fill="#f5f5f5" stroke-width="1.5"/><path d="M-100.45969,148.47594v-109.74853h194.51981v109.74853z" fill="#ffadad" stroke-width="1.5"/><path d="M-19.45164,129.04213v-43.60347h26.96862v43.60347z" fill="#836346" stroke-width="1.5"/><path d="M-81.70631,110.50371v-38.56261h48.64433v38.56261z" fill="#f5f5f5" stroke-width="1.5"/><path d="M-78.6818,107.70643v-32.96803h42.5953v32.96803z" fill="#89c6c9" stroke-width="1.5"/><path d="M19.11096,110.50371v-38.56261h48.64433v38.56261z" fill="#f5f5f5" stroke-width="1.5"/><path d="M22.13548,107.70643v-32.96803h42.5953v32.96803z" fill="#89c6c9" stroke-width="1.5"/><g stroke-width="1.5"><path d="M-30.04239,134.54448l1.00817,-1.37883v-7.44149l2.08063,-0.9086l44.48436,-0.09957l2.07935,1.00817v7.31547l1.00817,1.37883l-0.08746,7.55007l1.40726,1.38783l-53.48583,-0.01152l1.44234,-1.49112z" fill="#cfcfcf"/><g fill="#f5f5f5"><path d="M-29.03422,133.03223v-7.30807h48.64433v7.30807z"/><path d="M-30.04238,142.0052v-7.61099h50.66068v7.61099z"/><path d="M-31.55464,151.30595v-8.06538h53.6852v8.06538z"/></g></g><path d="M-124.10789,41.20735l122.63406,-39.07805l112.73609,39.31586z" fill="#6a6348" stroke-width="1.5"/><path d="M0.54376,109.95866c0,-2.0416 1.65504,-3.69663 3.69663,-3.69663c2.0416,0 3.69663,1.65504 3.69663,3.69663c0,2.0416 -1.65504,3.69663 -3.69663,3.69663c-2.0416,0 -3.69663,-1.65504 -3.69663,-3.69663z" fill="#fffc49" stroke-width="1"/></g><path d="M148.03716,173.48544c-1.12717,0.56358 -1.69076,-0.56358 -1.69076,-0.56358l-0.38509,-1.06767c0.00405,-1.72357 0.24518,-3.1923 0.79006,-4.82724c0.33234,-2.34453 1.1117,-4.61211 0.53255,-6.97488c-0.05907,-0.241 -0.16432,0.47231 -0.29384,0.68396c-0.31369,0.51259 -0.65136,1.01061 -0.99978,1.50025c-0.64283,0.90337 -2.31195,4.02995 -4.3363,2.54337c-0.73896,-0.54265 -0.12493,-1.82999 -0.22938,-2.74082c-0.05295,-0.46173 -0.19197,-0.91103 -0.24239,-1.37304c-0.07735,-0.70877 -0.1045,-1.42223 -0.14038,-2.13431c-0.00916,-0.18179 0.0739,-0.71465 0.00531,-0.54605c-1.33235,3.27478 -3.04533,6.58114 -4.82953,9.70518c0,0 -0.62524,1.09417 -1.71942,0.46893c-1.09417,-0.62524 -0.46893,-1.71942 -0.46893,-1.71942c1.58231,-2.76748 2.63218,-5.96105 4.57904,-8.49552c0.66921,-0.87119 1.09282,-2.35263 2.18542,-2.46684c2.94506,-0.30785 2.70385,3.52152 2.88694,4.85592c0.02288,0.16672 0.08181,0.37812 0.13951,0.60752c0.03289,-0.04507 0.06492,-0.09056 0.09579,-0.13665c0.93812,-1.4009 2.33496,-4.53066 4.75541,-2.85666c0.78748,0.54464 1.06226,1.63471 1.29687,2.563c0.56486,2.235 -0.43988,4.88728 -0.76433,7.09698c-0.48988,1.46939 -0.72639,2.69967 -0.7222,4.24631l0.119,-0.0595c0,0 0.56358,1.12717 -0.56358,1.69076z" fill="#6ad176" stroke="none" stroke-width="0.5" stroke-linecap="butt"/><path d="M149.82532,186.60229c-1.12717,-0.56358 -0.56358,-1.69076 -0.56358,-1.69076l0.119,0.0595c0.00419,-1.54664 -0.23232,-2.77693 -0.7222,-4.24631c-0.32445,-2.20969 -1.32918,-4.86198 -0.76433,-7.09698c0.23461,-0.92829 0.50939,-2.01836 1.29687,-2.563c2.42045,-1.67401 3.81729,1.45576 4.75541,2.85666c0.03087,0.04609 0.0629,0.09159 0.09579,0.13665c0.0577,-0.2294 0.11664,-0.4408 0.13951,-0.60752c0.18309,-1.3344 -0.05812,-5.16377 2.88694,-4.85592c1.0926,0.11421 1.51621,1.59565 2.18542,2.46684c1.94686,2.53447 2.99673,5.72804 4.57904,8.49552c0,0 0.62524,1.09417 -0.46893,1.71942c-1.09417,0.62524 -1.71942,-0.46893 -1.71942,-0.46893c-1.78419,-3.12404 -3.49718,-6.4304 -4.82953,-9.70518c-0.0686,-0.16861 0.01447,0.36425 0.00531,0.54605c-0.03589,0.71207 -0.06303,1.42554 -0.14038,2.13431c-0.05042,0.46202 -0.18944,0.91131 -0.24239,1.37304c-0.10445,0.91083 0.50958,2.19817 -0.22938,2.74082c-2.02436,1.48659 -3.69348,-1.64 -4.3363,-2.54337c-0.34842,-0.48964 -0.68609,-0.98767 -0.99978,-1.50025c-0.12952,-0.21165 -0.23477,-0.92496 -0.29384,-0.68396c-0.57915,2.36277 0.2002,4.63036 0.53255,6.97488c0.54488,1.63494 0.78601,3.10367 0.79006,4.82724l-0.38509,1.06767c0,0 -0.56358,1.12717 -1.69076,0.56358z" data-paper-data="{&quot;index&quot;:null}" fill="#6ad176" stroke="none" stroke-width="0.5" stroke-linecap="butt"/><path d="M93.32081,183.92269c-1.12717,0.56358 -1.69076,-0.56358 -1.69076,-0.56358l-0.38509,-1.06767c0.00405,-1.72357 0.24518,-3.1923 0.79006,-4.82724c0.33234,-2.34453 1.1117,-4.61211 0.53255,-6.97488c-0.05907,-0.241 -0.16432,0.47231 -0.29384,0.68396c-0.31369,0.51259 -0.65136,1.01061 -0.99978,1.50025c-0.64283,0.90337 -2.31195,4.02995 -4.3363,2.54337c-0.73896,-0.54265 -0.12493,-1.82999 -0.22938,-2.74082c-0.05295,-0.46173 -0.19197,-0.91103 -0.24239,-1.37304c-0.07735,-0.70877 -0.1045,-1.42223 -0.14038,-2.13431c-0.00916,-0.18179 0.0739,-0.71465 0.00531,-0.54605c-1.33235,3.27478 -3.04533,6.58114 -4.82953,9.70518c0,0 -0.62524,1.09417 -1.71942,0.46893c-1.09417,-0.62524 -0.46893,-1.71942 -0.46893,-1.71942c1.58231,-2.76748 2.63218,-5.96105 4.57904,-8.49552c0.66921,-0.87119 1.09282,-2.35263 2.18542,-2.46684c2.94506,-0.30785 2.70385,3.52152 2.88694,4.85592c0.02288,0.16672 0.08181,0.37812 0.13951,0.60752c0.03289,-0.04507 0.06492,-0.09056 0.09579,-0.13665c0.93812,-1.4009 2.33496,-4.53066 4.75541,-2.85666c0.78748,0.54464 1.06226,1.63471 1.29687,2.563c0.56486,2.235 -0.43988,4.88728 -0.76433,7.09698c-0.48988,1.46939 -0.72639,2.69967 -0.7222,4.24631l0.119,-0.0595c0,0 0.56358,1.12717 -0.56358,1.69076z" data-paper-data="{&quot;index&quot;:null}" fill="#6ad176" stroke="none" stroke-width="0.5" stroke-linecap="butt"/><path d="M121.56311,185.73532c-1.12717,0.56358 -1.69076,-0.56358 -1.69076,-0.56358l-0.38509,-1.06767c0.00405,-1.72357 0.24518,-3.1923 0.79006,-4.82724c0.33234,-2.34453 1.1117,-4.61211 0.53255,-6.97488c-0.05907,-0.241 -0.16432,0.47231 -0.29384,0.68396c-0.31369,0.51259 -0.65136,1.01061 -0.99978,1.50025c-0.64283,0.90337 -2.31195,4.02995 -4.3363,2.54337c-0.73896,-0.54265 -0.12493,-1.82999 -0.22938,-2.74082c-0.05295,-0.46173 -0.19197,-0.91103 -0.24239,-1.37304c-0.07735,-0.70877 -0.1045,-1.42223 -0.14038,-2.13431c-0.00916,-0.18179 0.0739,-0.71465 0.00531,-0.54605c-1.33235,3.27478 -3.04533,6.58114 -4.82953,9.70518c0,0 -0.62524,1.09417 -1.71942,0.46893c-1.09417,-0.62524 -0.46893,-1.71942 -0.46893,-1.71942c1.58231,-2.76748 2.63218,-5.96105 4.57904,-8.49552c0.66921,-0.87119 1.09282,-2.35263 2.18542,-2.46684c2.94506,-0.30785 2.70385,3.52152 2.88694,4.85592c0.02288,0.16672 0.08181,0.37812 0.13951,0.60752c0.03289,-0.04507 0.06492,-0.09056 0.09579,-0.13665c0.93812,-1.4009 2.33496,-4.53066 4.75541,-2.85666c0.78748,0.54464 1.06226,1.63471 1.29687,2.563c0.56486,2.235 -0.43988,4.88728 -0.76433,7.09698c-0.48988,1.46939 -0.72639,2.69967 -0.7222,4.24631l0.119,-0.0595c0,0 0.56358,1.12717 -0.56358,1.69076z" data-paper-data="{&quot;index&quot;:null}" fill="#6ad176" stroke="none" stroke-width="0.5" stroke-linecap="butt"/><path d="M347.15712,176.00483c-1.12717,0.56358 -1.69076,-0.56358 -1.69076,-0.56358l-0.54699,-1.10373c-1.88855,-4.73212 -4.05147,-9.36633 -7.61419,-13.05475c-0.82385,-0.85292 -1.75388,-1.6875 -2.85937,-2.11657c-0.75353,2.00384 -1.16902,5.71412 -4.16331,5.36473c-0.81022,-0.09454 -1.37943,-0.87601 -2.02156,-1.37904c-1.23975,-0.97119 -2.20022,-2.26073 -3.40261,-3.27782c-0.17863,-0.1511 -0.448,-0.34218 -0.65911,-0.24132c-0.19242,0.09194 -0.08717,0.41773 -0.14164,0.62391c-0.26796,1.01429 -0.55694,2.02296 -0.82369,3.03756c-1.35754,5.16345 -2.63984,9.78055 -1.85733,15.18586c0,0 0.17822,1.24755 -1.06933,1.42577c-1.24755,0.17822 -1.42577,-1.06933 -1.42577,-1.06933c-0.81202,-5.75374 0.46964,-10.68412 1.9148,-16.18306c0.36354,-1.38328 0.72578,-4.68235 2.31975,-5.29652c3.32866,-1.28256 5.38072,3.1349 7.52705,4.67946c0.50068,0.36031 0.45685,-1.14637 0.66097,-1.72847c0.45725,-1.30396 1.37341,-2.41067 2.23293,-3.49262c1.17504,0.2309 2.44772,0.16996 3.52512,0.6927c0.8584,0.41649 1.36625,1.33223 2.04024,2.00755c3.84901,3.85654 6.14937,8.87678 8.15723,13.88587l0.46118,0.91262c0,0 0.56358,1.12717 -0.56358,1.69076z" fill="#6ad176" stroke="none" stroke-width="0.5" stroke-linecap="butt"/><path d="M405.39775,187.7262c-1.26022,0 -1.26022,-1.26022 -1.26022,-1.26022v-1.51377c0,-1.62738 0.34322,-3.5148 0.01627,-5.09634c-0.16152,-0.78131 -0.60042,-1.48833 -0.75689,-2.27066c-0.23022,-1.1511 -0.17197,-2.39109 -0.65787,-3.45971c-0.88309,-1.94217 -2.20433,-3.62156 -3.04682,-5.61136c-0.85529,-2.02004 -0.78625,-2.30672 -2.15879,-3.96719c-0.32165,-0.38912 -0.59276,-1.10625 -1.09415,-1.04725c-0.51876,0.06104 -0.50189,0.94516 -0.90109,1.28203c-0.38125,0.32173 -1.0003,0.27951 -1.35953,0.62565c-0.31097,0.29965 -0.2508,0.84923 -0.52082,1.18625l-0.74468,1.48935c-0.20207,0.42626 -0.6363,0.72105 -1.13938,0.72105c-0.696,0 -1.26022,-0.56422 -1.26022,-1.26022v-1.28786c-0.8275,-1.56395 -1.69249,-3.35662 -2.76064,-4.74856c-0.44415,-0.57879 -1.14835,-0.93872 -1.5428,-1.55246c-0.19165,-0.2982 0.12759,-0.81485 -0.13306,-1.05509c-0.1705,-0.15714 -0.22456,0.41019 -0.3784,0.58368c-1.39464,1.57283 -1.45691,2.08404 -2.21273,3.97401c-2.15223,5.38169 -4.47135,10.72969 -5.61414,16.44362c0,0 -0.24715,1.23574 -1.48289,0.98859c-1.23574,-0.24715 -0.98859,-1.48289 -0.98859,-1.48289c1.25704,-6.28521 3.79563,-12.42011 6.10945,-18.35683c0.67148,-1.72286 2.9783,-5.15844 5.36434,-4.54127c0.77699,0.20097 0.86771,1.35525 1.38071,1.97246c1.46704,1.76505 2.70029,3.48049 3.78629,5.41358c0.48939,-0.47326 1.20134,-0.5872 2.02337,-1.15774c0.75336,-0.52288 1.20942,-1.74611 2.12645,-1.74551c3.20249,0.00208 4.85769,4.27357 5.82134,6.53772c0.83333,1.95797 2.17531,3.61519 3.01663,5.54307c0.5596,1.28233 0.58152,2.73721 0.85591,4.10916c0.15647,0.78234 0.60497,1.48743 0.75689,2.27066c0.33491,1.72676 0.01627,3.73794 0.01627,5.50007v1.51377c0,0 0,1.26022 -1.26022,1.26022z" fill="#6ad176" stroke="none" stroke-width="0.5" stroke-linecap="butt"/></g><path d="M-121.90465,192.10582v-280.15237h201.40465l-3.003,281.54955z" fill="url(#color-3)" stroke="none" stroke-width="0" stroke-linecap="butt"/><path d="M439.5,190.5v-278.54655h181v278.54655z" data-paper-data="{&quot;index&quot;:null}" fill="url(#color-4)" stroke="none" stroke-width="0" stroke-linecap="butt"/><path d="M624.5,43.5h-733v-132.54655h733z" data-paper-data="{&quot;index&quot;:null}" fill="url(#color-5)" stroke="none" stroke-width="0" stroke-linecap="butt"/></g></g></svg>