<svg version="1.1" xmlns="http://www.w3.org/2000/svg" xmlns:xlink="http://www.w3.org/1999/xlink" width="127.66667" height="127.66667" viewBox="0,0,127.66667,127.66667"><g transform="translate(-176.16668,-116.16666)"><g data-paper-data="{&quot;isPaintingLayer&quot;:true}" fill-rule="nonzero" stroke-linejoin="miter" stroke-miterlimit="10" stroke-dasharray="" stroke-dashoffset="0" style="mix-blend-mode: normal"><g><path d="M205.20834,185.02056c-0.00244,-0.00012 -0.00372,-0.00023 -0.00372,-0.00023l-0.52665,-0.22718c-0.76405,-1.12488 -0.24966,-2.38267 0.52876,-3.41435c1.90713,-1.33148 6.5857,-5.34937 8.61563,-2.0517c0.95967,1.55903 0.69909,3.54635 1.00538,5.27019c-0.48606,6.64113 -6.34566,2.74792 -9.61937,0.42328z" fill="#323344" stroke="#000000" stroke-width="1" stroke-linecap="butt"/><path d="M234.14437,183.21831c0.55135,-1.17461 2.20042,-3.96378 3.50195,-4.44281c3.71233,-1.36633 4.60773,2.4869 4.68346,5.03936c-0.18534,2.3615 -1.70886,5.98507 -4.25849,8.45134c-1.75796,1.70047 -4.25685,2.61719 -5.80377,3.1642c-0.52761,0.18656 -2.09278,-0.13233 -3.89962,-3.54882c-1.68955,-3.19471 -2.49809,-7.80439 -1.28542,-8.44592c1.04353,-0.55207 6.67741,0.60812 6.67741,0.60812z" fill="#dc94e7" stroke="#000000" stroke-width="1" stroke-linecap="butt"/><path d="M229.9715,187.27357c0.05162,0.04469 0.08018,0.07821 0.08018,0.07821l0.60918,0.82621c0.23804,0.83762 0.15856,1.57048 0.1165,2.2864c-0.05178,0.88122 -0.15102,1.72848 -0.79379,2.61323c-4.41381,5.00723 -15.44953,5.83244 -14.72037,-3.30147c0.32312,-3.80857 3.97298,-4.69975 7.7066,-4.47031c2.54385,0.15633 5.13527,0.72462 6.70598,1.66856c0,0 0.17524,0.10585 0.29572,0.29915z" fill="#f89688" stroke="#000000" stroke-width="1" stroke-linecap="butt"/><path d="M212.43578,180.94599c-0.61243,-0.36744 -0.301,-1.04932 -0.301,-1.04932c0.83422,-1.82312 4.37994,-5.45317 6.57395,-4.18693c2.25005,1.29858 0.70677,3.53555 1.92456,5.19658c0.57373,0.78254 2.42547,0.94675 3.28493,1.33969c0.29389,1.07824 0.4681,1.27637 0.35745,2.33692c-0.19536,1.87242 -1.73741,2.89491 -3.59064,2.32253c-2.9684,-0.91679 -4.43378,-4.36074 -7.36758,-5.37084l-0.30978,-0.08602c0,0 -0.43013,-0.12232 -0.57187,-0.50258z" fill="#fcdfbd" stroke="none" stroke-width="0.5" stroke-linecap="butt"/><path d="M223.91823,182.24601c0.29389,1.07824 0.4681,1.27637 0.35745,2.33693c-0.19536,1.87241 -1.73741,2.89491 -3.59064,2.32253c-2.2925,-0.70805 -3.68853,-2.92342 -5.55686,-4.36088c0.76905,-0.05579 1.4742,-0.10362 1.99934,-0.06101c0.57344,0.04655 1.00124,0.32997 1.39909,0.67086c0.39555,0.64809 1.05016,1.12711 1.8325,1.28303c0.31244,0.08354 0.6689,0.10249 1.09128,0.02291c0.11882,-0.0224 0.24068,-0.063 0.36328,-0.11939c0.95101,-0.32739 1.68178,-1.15801 1.8466,-2.19729c0.09309,0.03265 0.17965,0.06656 0.258,0.10238z" fill="#f89688" stroke="none" stroke-width="0.5" stroke-linecap="butt"/><path d="M212.43578,180.94599c-0.61243,-0.36744 -0.301,-1.04932 -0.301,-1.04932c0.83422,-1.82312 4.37994,-5.45317 6.57395,-4.18694c2.25004,1.29857 0.70676,3.53554 1.92457,5.19657c0.57373,0.78253 2.42546,0.94675 3.28493,1.3397c0.29389,1.07824 0.4681,1.27637 0.35745,2.33693c-0.19536,1.87241 -1.73741,2.89491 -3.59064,2.32253c-2.9684,-0.91679 -4.43378,-4.36074 -7.36758,-5.37084l-0.30979,-0.08605c0,0 -0.43013,-0.12232 -0.57187,-0.50257z" fill="none" stroke="#000000" stroke-width="1" stroke-linecap="butt"/><path d="M213.41949,178.85402c-0.04435,0.55575 -0.60012,0.51139 -0.60012,0.51139l-0.08551,-0.00683c-3.44638,-0.27513 -6.26758,1.85818 -6.92432,5.31706c0,0 -0.0333,0.17285 -0.15961,0.3056l0.0388,0.27662c0,0 -0.41178,0.35089 -0.76973,-0.04425c-0.07125,-0.01605 -0.14251,-0.0321 -0.21375,-0.04817c0,0 -0.30772,-0.06931 -0.40808,-0.3351c-0.29067,-0.16039 -0.26116,-0.53013 -0.26116,-0.53013l0.01662,-0.15409c1.02436,-4.95035 3.76221,-6.81509 8.63995,-6.4257c0,0 0.55575,0.04435 0.51139,0.60012c-0.00102,0.01279 -0.00232,0.02526 -0.00386,0.03742c0.12598,0.08323 0.2405,0.23186 0.21941,0.49606z" fill="#455d83" stroke="none" stroke-width="0.5" stroke-linecap="butt"/><path d="M205.97794,183.97184c-0.45457,-0.31813 -0.97832,-0.52964 -1.5031,-0.58894c-0.0659,-0.04814 -0.13631,-0.09072 -0.21059,-0.12693c0.43178,-1.59134 1.07468,-2.81466 1.94669,-3.70506c0.37015,0.64434 0.72271,1.30436 1.07614,1.95672c-0.5844,0.68591 -1.03331,1.51615 -1.30915,2.46422z" fill="#85afb1" stroke="none" stroke-width="0.5" stroke-linecap="butt"/><path d="M208.32833,178.17964c0.27439,0.63624 0.68061,1.28237 1.05493,1.74136c-0.45583,0.20929 -0.88095,0.4718 -1.26883,0.7829c-0.34185,-0.62745 -0.68291,-1.25828 -1.04005,-1.8765c0.38398,-0.26151 0.80163,-0.47679 1.25394,-0.64776z" fill="#85afb1" stroke="none" stroke-width="0.5" stroke-linecap="butt"/><path d="M213.41948,178.85403c-0.04435,0.55575 -0.60012,0.51139 -0.60012,0.51139l-0.08551,-0.00683c-3.44638,-0.27513 -6.26758,1.85818 -6.92433,5.31707c0,0 -0.0333,0.17285 -0.15961,0.3056l0.03877,0.27663c0,0 -0.41176,0.35089 -0.76973,-0.04425c-0.07125,-0.01605 -0.14251,-0.0321 -0.21375,-0.04817c0,0 -0.30771,-0.06932 -0.40808,-0.3351c-0.29068,-0.16039 -0.26116,-0.53013 -0.26116,-0.53013l0.01662,-0.15409c1.02436,-4.95035 3.76221,-6.8151 8.63995,-6.4257c0,0 0.55575,0.04435 0.51139,0.60012c-0.00101,0.01278 -0.00232,0.02526 -0.00386,0.03743c0.12598,0.08323 0.2405,0.23186 0.21941,0.49606z" fill="none" stroke="#000000" stroke-width="1" stroke-linecap="butt"/><path d="M221.3985,189.42718c0,0 3.13467,0.30521 3.4793,2.12376c0.27652,1.4591 -1.07597,2.43005 -1.86766,3.45496c-1.87387,2.4258 -4.73103,6.53953 -7.95128,3.72964c-0.66299,-0.69554 -1.13935,-1.40165 -1.66514,-2.20173l-0.07432,-0.08543c-1.12624,0.43954 -2.19274,0.39968 -2.77434,-0.25573c-0.61574,-0.69387 -1.09718,-2.07424 -1.59858,-3.0508c-1.49254,0.10838 -3.12014,0.22415 -4.22281,-0.79104c-1.06048,-0.97635 -0.70544,-2.02614 -0.60679,-3.26217c0.27638,-3.46212 2.63905,-6.10955 5.87759,-7.28341c1.61698,-0.7889 3.33307,-2.10356 5.25793,-2.05993c1.35373,0.0307 2.11166,0.8882 2.57724,1.86647c0.53715,1.12871 0.63212,2.46336 -0.06071,3.61117c1.21769,0.30934 2.36071,1.11863 3.10625,2.07671c0.73005,0.93817 0.36244,1.31199 0.5233,2.12751z" fill="#fde0be" stroke="none" stroke-width="0.5" stroke-linecap="butt"/><path d="M224.87782,191.55095c0.27652,1.45912 -1.07595,2.43006 -1.86765,3.45495c-1.87388,2.4258 -4.73103,6.53953 -7.95129,3.72966c-0.66299,-0.69554 -1.13935,-1.40165 -1.66512,-2.20174l-0.07432,-0.08543c-1.12624,0.43954 -2.19274,0.39968 -2.77434,-0.25573c-0.61574,-0.69387 -1.09717,-2.07424 -1.59859,-3.05081c-1.49254,0.10838 -3.12012,0.22416 -4.2228,-0.79105c-1.06048,-0.97637 -0.70544,-2.02614 -0.60679,-3.26217c0.09246,-1.15821 0.4184,-2.22526 0.93253,-3.17645c0.05408,0.19015 0.0832,0.37631 0.05521,0.56329l0.00567,0.00735c-0.17939,1.13741 0.115,2.07819 0.71519,2.72783c0.46375,0.57408 1.15319,0.96401 1.94692,1.02738c0.28719,0.02292 0.5677,0.00146 0.83474,-0.05861c0.28497,-0.02257 0.579,-0.07335 0.87877,-0.15415c1.30374,-0.35145 3.14967,-1.22609 4.91727,-2.39284c-0.39966,0.86271 -0.74162,1.72525 -0.98154,2.43157c-0.1733,0.32638 -0.28415,0.69277 -0.31544,1.08459c-0.01863,0.23339 -0.00794,0.46236 0.02894,0.6833c-0.12651,1.58471 1.06346,2.2309 2.30847,2.29114c0.0722,0.01149 0.14541,0.02027 0.21953,0.02617c0.6114,0.04881 1.19244,-0.10353 1.67803,-0.40151c0.15784,-0.08189 0.29693,-0.17523 0.41098,-0.27825c0.12861,-0.1162 0.265,-0.2468 0.40722,-0.38952c0.19663,0.13822 -1.07855,2.07291 -0.85368,2.1577c0.66538,0.2509 2.92721,-1.57893 3.72266,-2.00656c0.63734,-0.3426 1.05845,-0.7599 1.30817,-1.2115c0.32971,-0.41753 0.54372,-0.93384 0.58923,-1.50397c0.02059,-0.2579 0.00539,-0.51042 -0.04145,-0.75265c0.86186,0.29527 1.8124,0.83292 1.9934,1.78802z" fill="#f89688" stroke="none" stroke-width="0.5" stroke-linecap="butt"/><path d="M221.3985,189.42718c0,0 3.13467,0.30521 3.4793,2.12376c0.27652,1.45912 -1.07595,2.43006 -1.86765,3.45495c-1.87388,2.4258 -4.73103,6.53953 -7.95129,3.72966c-0.66299,-0.69554 -1.13935,-1.40165 -1.66512,-2.20174l-0.07432,-0.08543c-1.12624,0.43954 -2.19274,0.39968 -2.77434,-0.25573c-0.61574,-0.69387 -1.09717,-2.07424 -1.59859,-3.05081c-1.49254,0.10838 -3.12012,0.22416 -4.2228,-0.79105c-1.06048,-0.97637 -0.70544,-2.02614 -0.60679,-3.26217c0.27638,-3.46212 2.63905,-6.10956 5.87757,-7.28341c1.61698,-0.7889 3.33307,-2.10356 5.25794,-2.05992c1.35373,0.0307 2.11166,0.8882 2.57722,1.86647c0.53715,1.12871 0.63212,2.46336 -0.06071,3.61117c1.2177,0.30933 2.36071,1.11863 3.10625,2.07671c0.73006,0.93818 0.36244,1.31199 0.5233,2.12751z" fill="none" stroke="#000000" stroke-width="1" stroke-linecap="butt"/><path d="M217.98849,185.57247l-5.53324,2.98863" fill="none" stroke="#000000" stroke-width="1" stroke-linecap="round"/><path d="M217.24876,192.9707l3.84667,-3.34699" fill="none" stroke="#000000" stroke-width="1" stroke-linecap="round"/><path d="M198.19839,176.04708c0.37886,-4.74568 4.1329,-8.66182 8.87857,-8.28298c2.53528,0.20239 3.91949,1.43026 5.2447,3.22495c0.44647,0.60464 1.11385,1.76423 1.43677,2.96011c0.51274,1.8988 -0.03763,3.70155 -0.17785,3.975c-0.11169,0.21775 -2.85565,-1.70534 -5.961,0.35968c-3.16748,2.10635 -4.1239,6.31742 -4.1239,6.31742c0,0 -2.15203,-0.57822 -3.45033,-1.97832c-1.44672,-1.56016 -2.0466,-4.07474 -1.84694,-6.57586z" fill="#465e85" stroke="#000000" stroke-width="0" stroke-linecap="butt"/><path d="M198.19839,176.04708c0.04756,-0.59588 0.14837,-1.17867 0.29763,-1.74155c0.03989,0.08594 0.08836,0.16729 0.14436,0.24293l0.00252,0.02142l0.03373,0.02545c0.14869,0.18405 0.34381,0.33023 0.56929,0.41979l0.22009,0.09342l0.14098,0.02223l0.11865,0.09355l0.08033,0.03612l0.0621,0.06245l0.08635,0.05213l0.00667,0.01417l0.03794,0.01277l0.03324,0.02008l0.30611,0.09415l0.30353,0.10214l0.03872,0.00309l0.03827,0.01177l0.01368,-0.00763l0.0291,0.00232l0.02645,0.02658l0.08635,0.05213l0.00667,0.01417l0.03794,0.01277l0.03324,0.02008l0.30611,0.09415l0.30353,0.10214l0.03872,0.00309l0.03827,0.01177l0.01368,-0.00763l7.17286,0.57261l0.03568,0.01097l0.30353,0.10214l0.03872,0.00309l0.03827,0.01177l0.01368,-0.00763l0.21718,0.01734l0.02119,0.01599l0.49935,0.21196l0.174,0.02744l0.2913,0.08957l0.30353,0.10214l0.03872,0.00309l0.03827,0.01177l0.01368,-0.00763l0.47368,0.03782l0.02119,0.01599l0.15849,0.06728l0.16572,0.10007l0.00667,0.01417l0.03794,0.01277l0.03324,0.02008l0.25609,0.07875c-1.11005,-0.25124 -2.69439,-0.30974 -4.38596,0.81514c-3.16748,2.10635 -4.1239,6.31742 -4.1239,6.31742c0,0 -2.15203,-0.57822 -3.45033,-1.97832c-1.44672,-1.56016 -2.0466,-4.07474 -1.84694,-6.57586z" fill="#323344" stroke="#000000" stroke-width="0" stroke-linecap="butt"/><path d="M203.3185,171.71029l0.00203,0.01699l-0.02094,-0.0134z" fill="#323344" stroke="#000000" stroke-width="0" stroke-linecap="butt"/><path d="M198.19839,176.04708c0.37885,-4.74569 4.13291,-8.66182 8.87857,-8.28298c2.53528,0.20239 3.91948,1.43025 5.24469,3.22494c0.44647,0.60464 1.11385,1.76422 1.43677,2.96011c0.51273,1.89881 -0.03761,3.70155 -0.17786,3.97499c-0.11169,0.21775 -2.85564,-1.70533 -5.961,0.3597c-3.16748,2.10635 -4.1239,6.31742 -4.1239,6.31742c0,0 -2.15206,-0.5782 -3.45034,-1.97832c-1.44672,-1.56016 -2.0466,-4.07474 -1.84694,-6.57585z" fill="none" stroke="#000000" stroke-width="1" stroke-linecap="butt"/><path d="M201.98899,183.53447c0,0 0.63009,-5.87097 3.84732,-7.65924c3.40177,-1.89086 7.8102,0.67367 7.8102,0.67367" fill="none" stroke="#000000" stroke-width="1" stroke-linecap="round"/><path d="M198.9652,180.45359c0,0 1.80583,-5.28537 4.89524,-7.93446c2.80482,-2.40505 8.05808,-1.2709 8.05808,-1.2709" fill="none" stroke="#000000" stroke-width="1" stroke-linecap="round"/><path d="M198.44787,175.07747c0,0 3.14062,-3.67968 4.87456,-4.92108c1.56445,-1.12009 5.07297,-2.20099 5.07297,-2.20099" fill="none" stroke="#000000" stroke-width="1" stroke-linecap="round"/><path d="M203.83551,181.96097c0,0 -2.54433,-0.78227 -3.47436,-1.47985c-0.9097,-0.68232 -2.04617,-2.66081 -2.04617,-2.66081" fill="none" stroke="#000000" stroke-width="1" stroke-linecap="round"/><path d="M204.94341,181.01689c0,0 -2.81703,-1.72739 -3.96809,-2.78347c-1.02592,-0.94124 -2.60611,-3.24828 -2.60611,-3.24828" fill="none" stroke="#000000" stroke-width="1" stroke-linecap="round"/><path d="M205.93493,179.37512c0,0 -2.76596,-2.09792 -3.62396,-3.49053c-0.93772,-1.52195 -1.78449,-5.28765 -1.78449,-5.28765" fill="none" stroke="#000000" stroke-width="1" stroke-linecap="round"/><path d="M202.92695,168.55141c0,0 2.46349,4.24711 3.20302,5.98573c0.61318,1.44159 0.92654,3.72288 0.92654,3.72288" fill="none" stroke="#000000" stroke-width="1" stroke-linecap="round"/><path d="M206.34337,167.79158c0,0 1.97802,2.61844 2.50163,4.11399c0.54953,1.56955 0.72155,5.09204 0.72155,5.09204" fill="none" stroke="#000000" stroke-width="1" stroke-linecap="round"/><path d="M211.39512,170.25996c0,0 0.56106,2.10542 0.62647,3.21852c0.06823,1.16138 -0.22517,3.6111 -0.22517,3.6111" fill="none" stroke="#000000" stroke-width="1" stroke-linecap="round"/></g><path d="M176.16668,243.83333v-127.66667h127.66667v127.66667z" fill="none" stroke="none" stroke-width="NaN" stroke-linecap="butt"/><g><g stroke="#000000"><path d="M254.29413,193.31798l1.75835,9.73519l-37.56842,-0.98638c0,0 0.35965,-9.54107 2.07153,-11.34553c0.59347,-0.62556 6.41997,2.03919 6.41997,2.03919l0.25732,-3.81689z" fill="#0066cd" stroke-width="0" stroke-linecap="round"/><path d="M247.75783,195.084c-1.50492,0.75211 -3.46626,1.96401 -5.55469,2.32519c-3.234,0.55932 -6.47304,0.03793 -6.47304,0.03793c0,0 0.30281,3.49312 0.18664,5.07736l-6.30755,-0.16562c0.10962,-1.29633 -0.57405,-3.71336 -1.36584,-5.89166c-0.62872,-1.72966 -1.37315,-3.35633 -1.50415,-3.81326c0.15103,0.06748 0.23634,0.1065 0.23634,0.1065l0.25732,-3.81689l20.66543,3.37873c0,0 0.43609,0.795 0.40582,1.59336c-0.01954,0.51496 -0.48353,1.15655 -0.54628,1.16833z" fill="#061483" stroke-width="0" stroke-linecap="butt"/><path d="M254.29413,193.31798l1.75835,9.73519l-37.56842,-0.98638c0,0 0.35965,-9.54107 2.07153,-11.34553c0.59347,-0.62556 6.41997,2.03919 6.41997,2.03919l0.25732,-3.81689z" fill="none" stroke-width="1" stroke-linecap="round"/><path d="M232.8081,195.67673l2.1872,1.887" fill="none" stroke-width="1" stroke-linecap="round"/></g><g><path d="M240.61342,209.63623c0,0.33519 -1.63074,2.50378 -2.85523,2.79868c-2.46242,0.59307 -7.38873,0.24178 -11.07692,0.90119c-1.33696,0.23903 -3.19606,0.44866 -4.63054,1.09762c-0.92448,0.41823 -1.74343,2.02085 -6.96282,2.16315c-3.25738,0.0888 -6.83425,-0.83198 -7.71227,-1.14691c-2.50226,-0.89751 -3.34425,-2.76549 -3.30137,-4.09828c0.01257,-0.39041 0.42812,-1.81565 1.76048,-1.48829c0.90605,0.22261 3.46358,1.84521 6.17255,2.24522c3.29288,0.48623 6.89529,0.06209 7.94157,-0.19361c2.51502,-0.61463 4.62961,-2.03761 7.06881,-2.81725c2.58159,-0.82516 5.97162,0.34968 8.04687,-0.15176c2.70956,-0.65471 3.81251,-2.83717 4.39353,-2.55589c0.93799,0.4541 1.15532,2.55874 1.15532,3.24612z" fill="#feecf7" stroke="none" stroke-width="0" stroke-linecap="butt"/><path d="M237.75819,212.4349c-2.46242,0.59306 -7.38873,0.24178 -11.07692,0.90119c-1.33696,0.23904 -3.19606,0.44867 -4.63054,1.09763c-0.92447,0.41822 -1.74343,2.02085 -6.9628,2.16315c-0.4438,0.0121 -0.89353,0.00545 -1.34155,-0.01584c-0.43617,-1.67958 -1.41883,-3.10604 -2.32625,-4.5779c0.19455,0.04094 0.39047,0.07644 0.58718,0.10547c3.29288,0.48623 6.8953,0.0621 7.94157,-0.19361c2.51503,-0.61465 4.62961,-2.03761 7.06882,-2.81725c2.58159,-0.82514 5.97162,0.34968 8.04687,-0.15176c2.70956,-0.6547 3.81251,-2.83717 4.39353,-2.55589c0.93799,0.45411 1.15532,2.55874 1.15532,3.24612c0,0.3352 -1.63074,2.50378 -2.85523,2.79868z" fill="#dd95e8" stroke="none" stroke-width="0" stroke-linecap="butt"/><path d="M240.61342,209.63623c0,0.33519 -1.63074,2.50378 -2.85523,2.79868c-2.46242,0.59307 -7.38873,0.24178 -11.07692,0.90119c-1.33696,0.23903 -3.19606,0.44866 -4.63054,1.09762c-0.92448,0.41823 -1.74343,2.02085 -6.96282,2.16315c-3.25738,0.0888 -6.83425,-0.83198 -7.71227,-1.14691c-2.50226,-0.89751 -3.34425,-2.76549 -3.30137,-4.09828c0.01257,-0.39041 0.42812,-1.81565 1.76048,-1.48829c0.90605,0.22261 3.46358,1.84521 6.17255,2.24522c3.29288,0.48623 6.89529,0.06209 7.94157,-0.19361c2.51502,-0.61463 4.62961,-2.03761 7.06881,-2.81725c2.58159,-0.82516 5.97162,0.34968 8.04687,-0.15176c2.70956,-0.65471 3.81251,-2.83717 4.39353,-2.55589c0.93799,0.4541 1.15532,2.55874 1.15532,3.24612z" fill="none" stroke="#000000" stroke-width="1" stroke-linecap="butt"/><path d="M218.35539,201.20906l-1.32948,-3.73111c0,0 2.8106,-2.12368 7.65675,-1.54147c3.72193,0.44716 5.08049,4.41485 5.08049,4.41485c0,0 3.57503,-4.04059 4.74028,-3.35392c0.51589,0.30401 2.34417,1.10802 2.97465,2.21711c1.53721,2.70415 1.80584,6.62625 1.80584,6.62625c0,0 -0.38263,2.21366 -2.79127,2.88539c-1.68043,0.46864 -4.34287,0.34385 -7.03231,0.50096c-0.85331,0.04984 -1.69638,0.03395 -2.4905,0.25952c-1.84413,0.5238 -3.42297,1.56729 -5.3759,2.2564c-1.55439,0.54848 -3.47151,0.8096 -5.04159,0.85874c-3.6108,0.11301 -7.30255,-0.80321 -10.16225,-2.30084c-1.8351,-0.96105 1.51881,-3.82844 5.17407,-5.95649c3.26663,-1.9018 6.79121,-3.1354 6.79121,-3.1354z" fill="#ff292e" stroke="#000000" stroke-width="0" stroke-linecap="round"/><path d="M227.6901,197.3114c0.56861,0.50162 1.73755,1.99339 1.90193,3.00395c0.1394,0.857 -0.70861,1.23546 -0.48498,1.75693c0.19854,0.46296 1.42806,0.16605 1.42806,0.16605c0,0 2.04695,-0.84384 3.62863,-2.29243c0.7716,-0.70667 1.64124,-2.23 1.64124,-2.23c0,0 1.33278,0.89999 1.67309,1.49863c1.53721,2.70415 1.80584,6.62625 1.80584,6.62625c0,0 -0.38263,2.21366 -2.79127,2.88539c-1.68043,0.46864 -4.34287,0.34385 -7.03231,0.50096c-0.85331,0.04984 -1.69638,0.03395 -2.4905,0.25952c-1.84413,0.5238 -3.42297,1.56729 -5.3759,2.2564c-1.55439,0.54848 -3.47151,0.8096 -5.04159,0.85874c-0.98536,0.03084 -2.95564,-0.12833 -2.95564,-0.12833c0,0 -0.45608,-2.69671 1.66501,-5.12594c2.44768,-2.80325 7.68327,-4.11214 10.44969,-6.15067c2.49395,-1.83776 1.78263,-4.05842 1.97869,-3.88545z" fill="#ac0e49" stroke="#000000" stroke-width="0" stroke-linecap="round"/><path d="M229.76313,200.30844c0,0 0.12921,1.06387 -0.40554,1.51144c-0.38839,0.32507 -1.9532,0.58999 -1.9532,0.58999" fill="none" stroke="#000000" stroke-width="1" stroke-linecap="round"/><path d="M235.05963,200.30844c0,-0.46186 0.37442,-0.83628 0.83628,-0.83628c0.46186,0 0.83628,0.37442 0.83628,0.83628c0,0.46186 -0.37442,0.83628 -0.83628,0.83628c-0.46186,0 -0.83628,-0.37442 -0.83628,-0.83628z" fill="#000000" stroke="none" stroke-width="0.5" stroke-linecap="butt"/><path d="M218.35539,201.20906l-1.32948,-3.73111c0,0 2.8106,-2.12368 7.65675,-1.54147c3.72193,0.44716 5.08049,4.41485 5.08049,4.41485c0,0 3.57503,-4.04059 4.74028,-3.35392c0.51589,0.30401 2.34417,1.10802 2.97465,2.21711c1.53721,2.70415 1.80584,6.62625 1.80584,6.62625c0,0 -0.38263,2.21366 -2.79127,2.88539c-1.68043,0.46864 -4.34287,0.34385 -7.03231,0.50096c-0.85331,0.04984 -1.69638,0.03395 -2.4905,0.25952c-1.84413,0.5238 -3.42297,1.56729 -5.3759,2.2564c-1.55439,0.54848 -3.47151,0.8096 -5.04159,0.85874c-3.6108,0.11301 -7.30255,-0.80321 -10.16225,-2.30084c-1.8351,-0.96105 1.51881,-3.82844 5.17407,-5.95649c3.26663,-1.9018 6.79121,-3.1354 6.79121,-3.1354z" fill="none" stroke="#000000" stroke-width="1" stroke-linecap="round"/><path d="M213.18761,203.43915c0,-0.2686 0.12664,-0.50764 0.32345,-0.66064c-0.14245,0.30595 -0.231,0.64203 -0.25346,0.99609c-0.04501,-0.10268 -0.06999,-0.21615 -0.06999,-0.33545z" fill="#db93e6" stroke="none" stroke-width="0.5" stroke-linecap="butt"/><path d="M221.529,200.84453c5.36301,0.04651 4.6557,6.30284 1.97676,4.47385c-0.56413,-0.38516 -1.14635,-1.13569 -1.75326,-1.58809c-0.80799,-0.60228 -2.20652,-1.18841 -3.05294,-1.67209c-0.29133,-0.13074 -0.16932,-1.01887 0.23482,-1.19223c0.40415,-0.17336 1.73335,-0.02891 2.59462,-0.02144z" fill="#f0e0ec" stroke="none" stroke-width="0.5" stroke-linecap="butt"/><path d="M221.58913,206.78426c-0.04287,0.42165 -0.399,0.75067 -0.83196,0.75067c-0.30694,0 -0.57525,-0.16535 -0.72072,-0.41184c-0.2312,-0.13211 -1.05102,-1.37107 -2.08121,-2.38367c-0.87171,-0.85682 -1.89764,-1.52796 -2.33491,-2.16462c-0.32071,-0.46696 -0.11359,-0.78023 0.33214,-0.94991c1.44435,-0.54982 6.80364,3.20573 5.63666,5.15938z" data-paper-data="{&quot;index&quot;:null}" fill="#f0e0ec" stroke="none" stroke-width="0.5" stroke-linecap="butt"/><path d="M218.84858,207.16312c0.33475,1.26692 -1.09143,2.00882 -1.79482,0.9035c-0.41897,-0.65837 -0.90974,-1.69156 -1.54123,-2.21345c-0.66411,-0.54886 -1.48386,-0.94215 -1.91308,-1.69329c-0.24648,-0.14548 -0.41184,-0.41378 -0.41184,-0.72072c0,-0.46186 0.37442,-0.83628 0.83628,-0.83628c0.25436,0 0.48222,0.11357 0.6356,0.29277c1.65607,0.45449 3.87257,3.06959 4.18909,4.2675z" fill="#f0e0ec" stroke="none" stroke-width="0.5" stroke-linecap="butt"/><path d="M223.50574,205.31838c-0.54218,-0.37016 -1.10106,-1.07782 -1.68251,-1.53396c1.10453,-0.27698 1.94761,-1.21297 2.08707,-2.36577c2.65203,1.51262 1.77818,5.38995 -0.40456,3.89972z" fill="#db93e6" stroke="none" stroke-width="0.5" stroke-linecap="butt"/><path d="M221.58913,206.78426c-0.04287,0.42165 -0.399,0.75067 -0.83196,0.75067c-0.30694,0 -0.57525,-0.16535 -0.72072,-0.41184c-0.16927,-0.09673 -0.6541,-0.7868 -1.30598,-1.54695c0.88983,-0.0642 1.66392,-0.54608 2.12724,-1.25056c0.74673,0.8655 1.14097,1.77304 0.73142,2.45866z" data-paper-data="{&quot;index&quot;:null}" fill="#db93e6" stroke="none" stroke-width="0.5" stroke-linecap="butt"/><path d="M218.84858,207.16312c0.33475,1.26692 -1.09143,2.00882 -1.79482,0.9035c-0.23987,-0.37693 -0.50328,-0.87673 -0.80316,-1.33309c0.74314,-0.05563 1.40506,-0.40263 1.87188,-0.92709c0.36774,0.51507 0.63159,0.99905 0.72609,1.35669z" fill="#db93e6" stroke="none" stroke-width="0.5" stroke-linecap="butt"/><path d="M221.529,200.84453c5.36301,0.04651 4.6557,6.30284 1.97676,4.47385c-0.56413,-0.38516 -1.14635,-1.13569 -1.75326,-1.58809c-0.80799,-0.60228 -2.20652,-1.18841 -3.05294,-1.67209c-0.29133,-0.13074 -0.16932,-1.01887 0.23482,-1.19223c0.40415,-0.17336 1.73335,-0.02891 2.59462,-0.02144z" fill="none" stroke="#000000" stroke-width="1" stroke-linecap="butt"/><path d="M221.58913,206.78426c-0.04287,0.42165 -0.399,0.75067 -0.83196,0.75067c-0.30694,0 -0.57525,-0.16535 -0.72072,-0.41184c-0.2312,-0.13211 -1.05102,-1.37107 -2.08121,-2.38367c-0.87171,-0.85682 -1.89764,-1.52796 -2.33491,-2.16462c-0.32071,-0.46696 -0.11359,-0.78023 0.33214,-0.94991c1.44435,-0.54982 6.80364,3.20573 5.63666,5.15938z" data-paper-data="{&quot;index&quot;:null}" fill="none" stroke="#000000" stroke-width="1" stroke-linecap="butt"/><path d="M217.05375,208.06662c-0.41897,-0.65837 -0.90974,-1.69156 -1.54123,-2.21345c-0.66411,-0.54886 -1.48386,-0.94215 -1.91308,-1.69329c-0.24648,-0.14548 -0.41184,-0.41378 -0.41184,-0.72072c0,-0.46186 0.37442,-0.83628 0.83628,-0.83628c0.25436,0 0.48222,0.11357 0.6356,0.29277c1.65607,0.45449 3.87257,3.06959 4.18909,4.2675c0.31652,1.1979 -1.09143,2.00881 -1.79482,0.90349z" fill="none" stroke="#000000" stroke-width="1" stroke-linecap="butt"/></g><g><path d="M239.36971,208.91399c0,0 0.3915,8.34024 14.60749,6.23944c13.4989,-1.99483 11.63893,-9.15571 11.63893,-9.15571l4.20286,1.887c0,0 -0.00863,1.18868 0.0127,2.61652c0.02049,1.37182 0.09502,2.95119 -1.0369,4.54341c-2.00021,2.81361 -6.76078,4.99215 -16.60204,5.40697c-20.06166,0.84564 -12.82304,-11.53763 -12.82304,-11.53763z" fill="#ffeffa" stroke="#000000" stroke-width="0" stroke-linecap="round"/><path d="M238.24138,214.9262c-0.01726,-0.07859 3.87856,5.67316 16.55063,3.82969c14.35662,-1.86616 15.02695,-10.87116 15.02695,-10.87116c0,0 -0.00863,1.18868 0.0127,2.61652c0.02049,1.37182 0.09502,2.95119 -1.0369,4.54341c-2.00021,2.81361 -6.76078,4.99215 -16.60204,5.40697c-10.11326,0.42629 -13.28882,-2.50921 -13.95136,-5.52542z" fill="#dd95e8" stroke="#000000" stroke-width="0" stroke-linecap="round"/><path d="M239.36971,208.91399c0,0 0.3915,8.34024 14.60749,6.23944c13.4989,-1.99483 11.63893,-9.15571 11.63893,-9.15571l4.20286,1.887c0,0 -0.00863,1.18868 0.0127,2.61652c0.02049,1.37182 0.09502,2.95119 -1.0369,4.54341c-2.00021,2.81361 -6.76078,4.99215 -16.60204,5.40697c-20.06166,0.84564 -12.82304,-11.53763 -12.82304,-11.53763z" fill="none" stroke="#000000" stroke-width="1" stroke-linecap="round"/><path d="M244.55778,199.14542c1.31642,-1.17593 6.83383,-2.37225 9.54146,-1.8472c1.63401,0.31686 1.35284,1.93808 1.35284,1.93808c0,0 6.50518,-3.29028 7.2311,-2.78214c0.28324,0.19828 1.53295,2.07667 0.92706,3.17351c-0.89762,1.62499 -3.86953,2.61068 -3.86953,2.61068c0,0 0.38686,0.12296 0.98019,0.36644c-4.37977,0.2708 -10.45727,2.81658 -13.09573,2.97807c-0.28949,0.01772 -0.09375,-0.57255 -0.14995,-0.85709c-0.2393,-1.21161 -0.36474,-2.58493 -1.15202,-3.60541c-0.53209,-0.6897 -1.20811,-1.28668 -1.96677,-1.76955c0.06482,-0.07445 0.13195,-0.14336 0.20135,-0.20536z" fill="#ff292e" stroke="#000000" stroke-width="0" stroke-linecap="butt"/><path d="M239.75568,206.14098l-4.26626,-0.16396c0,0 -0.75986,-1.06582 0.64989,-3.95604l0.44322,0.77565c0.89587,1.56777 5.91336,-0.09743 5.42961,2.84951c-0.11145,0.67887 -1.32062,0.92814 -2.47088,1.49438c0.1108,-0.61531 0.21443,-0.99954 0.21443,-0.99954z" fill="#ff292e" stroke="#000000" stroke-width="0" stroke-linecap="butt"/><path d="M258.17176,209.10014c0.36853,-0.08338 0.88232,-0.11124 1.46868,-0.11798c-0.6464,0.16771 -1.32782,0.23565 -2.02895,0.24198c0.20663,-0.04469 0.39459,-0.08651 0.56025,-0.12398z" fill="#ac0e49" stroke="#000000" stroke-width="0" stroke-linecap="butt"/><path d="M243.10081,202.06679c0,0 0.52294,-2.08702 1.45697,-2.92137c1.31642,-1.17593 6.83383,-2.37225 9.54146,-1.8472c1.63401,0.31686 1.35284,1.93808 1.35284,1.93808c0,0 6.50518,-3.29028 7.2311,-2.78214c0.28324,0.19828 1.53295,2.07667 0.92706,3.17351c-0.89762,1.62499 -3.86953,2.61068 -3.86953,2.61068c0,0 3.2768,1.04143 5.38321,3.06446c3.27168,3.14221 4.20444,8.1679 -10.60834,11.59558c-1.79091,0.41442 -10.06451,0.93634 -13.55884,-2.11337c-2.85954,-2.49569 -1.20105,-8.64402 -1.20105,-8.64402l-4.26626,-0.16396c0,0 -0.79623,-1.11685 0.75362,-4.16423c0.36247,-0.7127 6.85777,0.254 6.85777,0.254z" fill="#ff292e" stroke="#000000" stroke-width="0" stroke-linecap="round"/><path d="M239.75568,206.14098l-4.26626,-0.16396c0,0 -0.5427,-0.76123 0.14011,-2.74157c1.97616,0.73611 6.21238,1.20089 7.42841,1.75617c0.14476,0.0661 -1.20123,0.75924 -1.35092,0.8545c-0.89102,0.56702 -1.4988,1.12815 -2.20328,1.90308c-0.02477,0.02724 -0.04901,0.05479 -0.07273,0.08264c0.13987,-1.0057 0.32469,-1.69088 0.32469,-1.69088z" fill="#ac0e49" stroke="#000000" stroke-width="0" stroke-linecap="butt"/><path d="M239.01589,206.27232c-0.27303,0.24428 -2.54969,0.17339 -2.50058,-0.53893c-0.05339,-0.11013 -0.08333,-0.23375 -0.08333,-0.36435c0,-0.46186 0.37442,-0.83628 0.83628,-0.83628c0.24056,0 0.4574,0.10157 0.60997,0.26417c1.11623,-0.04955 2.12857,0.58878 1.13765,1.4754z" fill="#000000" stroke="none" stroke-width="0.5" stroke-linecap="butt"/><path d="M254.51556,216.89838c-1.79091,0.41442 -10.06451,0.93634 -13.55884,-2.11337c-0.3195,-0.27885 -0.5826,-0.60331 -0.79791,-0.95967c3.21261,0.17766 11.22397,-3.76602 14.15318,-4.46787c1.7611,-0.42198 5.91336,0.01395 8.68214,-0.70891c0.18548,-0.04842 1.22555,1.94151 1.60247,1.53843c0.40093,-0.42875 1.09917,-3.59532 1.0842,-4.30339c2.77006,3.15444 2.76525,7.79127 -11.16524,11.01479z" fill="#ac0e49" stroke="#000000" stroke-width="0" stroke-linecap="butt"/><path d="M263.61022,199.62765c-0.89762,1.62499 -3.86953,2.61068 -3.86953,2.61068c0,0 0.88914,0.28259 2.03882,0.8393c-2.6179,0.16708 -5.35164,0.92473 -5.54022,0.30285c-0.44904,-1.48077 3.96725,-4.01273 6.07544,-5.71395c0.29957,-0.18436 0.56161,-0.42379 0.77203,-0.70418c0.43424,0.68131 0.95958,1.87579 0.52345,2.66532z" fill="#ac0e49" stroke="#000000" stroke-width="0" stroke-linecap="butt"/><path d="M242.88638,202.23833l2.40164,3.00204" fill="none" stroke="#000000" stroke-width="1" stroke-linecap="round"/><path d="M245.20225,208.11375c0,0 -1.46726,-0.21889 -1.62111,-0.58326c-0.46565,-1.10286 0.59183,-1.47529 0.59183,-1.47529c0,0 3.3467,-2.24519 5.84223,-2.74497c4.07916,-0.81696 6.42326,-0.04264 6.42326,-0.04264c0,0 1.21563,0.0579 1.55332,0.68722c0.31306,0.58342 -0.18096,1.02823 -0.18096,1.02823c0,0 1.6958,0.03505 2.41724,0.88295c0.94578,1.11157 0.15594,1.39003 0.15594,1.39003c0,0 1.26494,-0.00347 1.66996,0.92131c0.31713,0.72408 -0.51203,1.18013 -0.51203,1.18013c0,0 -5.20712,0.3391 -7.70654,0.76286c-2.47516,0.41965 -7.2179,1.76743 -7.2179,1.76743c0,0 -0.99125,0.44662 -1.27567,-0.67379c-0.23639,-0.93121 0.46081,-1.42764 0.46081,-1.42764c0,0 -1.03151,0.46549 -1.3061,-0.43725c-0.18736,-0.61595 0.70569,-1.23531 0.70569,-1.23531z" fill="#feeffb" stroke="#000000" stroke-width="0" stroke-linecap="round"/><path d="M250.0152,203.31023c4.07916,-0.81696 6.42326,-0.04264 6.42326,-0.04264c0,0 0.90806,0.04325 1.37255,0.46129c-1.71687,1.49587 -2.92822,4.45112 -5.42574,3.93719c-1.53135,-0.31512 -2.76377,-2.09366 -3.98648,-3.85867c0.55045,-0.21665 1.10154,-0.39407 1.6164,-0.49718z" fill="#dd95e8" stroke="#000000" stroke-width="0" stroke-linecap="round"/><path d="M245.93131,209.82921c0,0 3.18295,-0.99515 6.53549,-1.65399c2.90506,-0.5709 7.57412,-0.70476 7.57412,-0.70476" fill="none" stroke="#000000" stroke-width="1" stroke-linecap="round"/><path d="M245.15935,208.02798c0,0 2.227,-1.48295 5.68833,-2.32773c2.06082,-0.50296 6.70582,-0.67431 6.70582,-0.67431" fill="none" stroke="#000000" stroke-width="1" stroke-linecap="round"/><path d="M245.20225,208.11375c0,0 -1.46726,-0.21889 -1.62111,-0.58326c-0.46565,-1.10286 0.59183,-1.47529 0.59183,-1.47529c0,0 3.3467,-2.24519 5.84223,-2.74497c4.07916,-0.81696 6.42326,-0.04264 6.42326,-0.04264c0,0 1.21563,0.0579 1.55332,0.68722c0.31306,0.58342 -0.18096,1.02823 -0.18096,1.02823c0,0 1.6958,0.03505 2.41724,0.88295c0.94578,1.11157 0.15594,1.39003 0.15594,1.39003c0,0 1.26494,-0.00347 1.66996,0.92131c0.31713,0.72408 -0.51203,1.18013 -0.51203,1.18013c0,0 -5.20712,0.3391 -7.70654,0.76286c-2.47516,0.41965 -7.2179,1.76743 -7.2179,1.76743c0,0 -0.99125,0.44662 -1.27567,-0.67379c-0.23639,-0.93121 0.46081,-1.42764 0.46081,-1.42764c0,0 -1.03151,0.46549 -1.3061,-0.43725c-0.18736,-0.61595 0.70569,-1.23531 0.70569,-1.23531z" fill="none" stroke="#000000" stroke-width="1" stroke-linecap="round"/><path d="M262.44968,198.78601c1.15018,0.38339 0.40356,1.84688 -0.40023,2.63312c-0.13,0.2931 -0.42355,0.49754 -0.76483,0.49754c-0.46186,0 -0.83628,-0.37442 -0.83628,-0.83628c0,-0.18665 0.06115,-0.35902 0.16451,-0.49817c0.39289,-0.79476 1.38393,-1.94719 1.83685,-1.79621z" fill="#000000" stroke="none" stroke-width="0.5" stroke-linecap="butt"/><path d="M244.55778,199.14542c1.31642,-1.17593 6.83383,-2.37225 9.54146,-1.8472c1.63401,0.31686 1.35284,1.93808 1.35284,1.93808c0,0 6.50518,-3.29028 7.2311,-2.78214c0.28324,0.19828 1.53295,2.07667 0.92706,3.17351c-0.89762,1.62499 -3.86953,2.61068 -3.86953,2.61068c0,0 3.2768,1.04143 5.38321,3.06446c3.27168,3.14221 4.20444,8.1679 -10.60834,11.59558c-1.79091,0.41442 -10.06451,0.93634 -13.55884,-2.11337c-2.85954,-2.49569 -1.20105,-8.64402 -1.20105,-8.64402l-4.26626,-0.16396c0,0 -0.79623,-1.11685 0.75362,-4.16423c0.36247,-0.7127 6.85777,0.254 6.85777,0.254c0,0 0.52293,-2.08703 1.45696,-2.92138z" fill="none" stroke="#000000" stroke-width="1" stroke-linecap="round"/></g><g><path d="M236.51091,180.97036c0,0 -1.0256,-4.0956 1.03203,-5.33746c5.68956,-3.43387 12.3485,-2.32847 12.3485,-2.32847c0,0 4.35038,-2.34374 6.74085,-1.58789c2.15327,0.68085 -0.5948,4.24215 -0.56921,7.29582c0.01305,1.55583 1.50782,3.2307 2.03827,4.70018c0.51068,1.41471 0.08678,2.64924 -1.34434,2.88658c-3.02232,0.50121 -7.14433,-3.2593 -7.14433,-3.2593l2.23009,9.19911c0,0 -6.68449,3.43094 -17.20515,2.16149c-7.48165,-0.90275 -8.99837,-6.76105 -8.99837,-6.76105c0,0 2.67148,-2.61667 4.48804,-3.78114c1.80727,-1.15851 6.38364,-3.18789 6.38364,-3.18789z" fill="#feecf7" stroke="#000000" stroke-width="0" stroke-linecap="round"/><path d="M236.51091,180.97036c0,0 -1.0256,-4.0956 1.03203,-5.33746c5.68956,-3.43387 12.3485,-2.32847 12.3485,-2.32847c0,0 4.35038,-2.34374 6.74085,-1.58789c1.68439,0.5326 0.3696,2.82775 -0.27061,5.26374c-0.70722,0.11136 -9.11847,2.47833 -9.11847,2.47833l2.36947,3.88121l2.23009,9.19911c0,0 -0.97231,0.49906 -2.75892,1.04608c-0.18269,-0.61384 -2.54552,-14.15458 -2.54552,-14.15458c0,0 -13.8315,3.3255 -13.60022,3.21161c1.78302,-0.87801 3.5728,-1.67169 3.5728,-1.67169z" fill="#dc94e7" stroke="#000000" stroke-width="0" stroke-linecap="butt"/><path d="M249.89145,173.30443c0,0 4.35038,-2.34374 6.74085,-1.58789c2.15327,0.68085 -0.5948,4.24215 -0.56921,7.29582c0.01305,1.55583 1.50782,3.2307 2.03827,4.70018c0.51068,1.41471 0.08678,2.64924 -1.34434,2.88658c-3.02232,0.50121 -7.14433,-3.2593 -7.14433,-3.2593l2.23009,9.19911c0,0 -6.68449,3.43094 -17.20515,2.16149c-7.48165,-0.90275 -8.99837,-6.76105 -8.99837,-6.76105c0,0 2.67148,-2.61667 4.48804,-3.78114c1.80727,-1.15851 6.38364,-3.18789 6.38364,-3.18789c0,0 -1.02561,-4.0956 1.03202,-5.33746c2.05763,-1.24186 12.34849,-2.32845 12.34849,-2.32845z" fill="none" stroke="#000000" stroke-width="1" stroke-linecap="round"/><g fill="none" stroke="#ff0000" stroke-width="1"><path d="M240.99671,189.17228c-2.61753,1.57784 -5.39303,1.83454 -6.86544,0.66896c-1.51155,-1.19657 -0.03158,-4.01856 2.5728,-5.75385c1.96727,-1.31078 4.59452,-2.07518 6.95426,-0.63327c1.65703,1.01252 0.05816,4.0787 -2.66162,5.71816z" stroke-linecap="butt"/><path d="M237.1825,183.92588l1.62968,5.66099" stroke-linecap="round"/></g><path d="M249.29788,173.87938c-0.15822,0.2769 -0.33031,0.54033 -0.51511,0.79043c-1.85699,2.5132 -4.99844,3.67936 -8.27648,3.61643c-1.07897,-0.02071 -3.58375,-0.18549 -3.34389,-1.83804c0.44548,-3.06916 11.25241,-4.11418 11.71015,-3.31314z" fill="#f89688" stroke="#000000" stroke-width="1" stroke-linecap="butt"/></g><g stroke="#000000" stroke-linecap="round"><path d="M249.74819,183.92588c0,0 1.77797,1.25752 2.70122,1.82735c1.91797,1.18373 3.73173,0.96026 3.73173,0.96026c0,0 -0.06714,1.51828 0.5155,3.17082c0.49653,1.40832 1.62163,2.66857 1.54419,3.2999c-0.16328,1.33106 -2.47589,2.06611 -4.53298,2.16198c-3.40422,0.15866 -4.60295,-1.12759 -4.60295,-1.12759c0,0 -0.12303,-3.93402 -0.0028,-5.75262c0.10692,-1.6172 0.6461,-4.54009 0.6461,-4.54009z" fill="#fddfbd" stroke-width="0"/><path d="M249.74819,183.92588c0,0 1.77797,1.25752 2.70122,1.82735c1.91797,1.18373 3.73173,0.96026 3.73173,0.96026c0,0 -0.04382,0.99079 0.24648,2.24277c-0.82894,-0.25009 -1.37266,0.05301 -3.1407,-0.41531c-2.50102,-0.66247 -3.47666,-2.02588 -3.91129,-2.37123c0.1784,-1.1913 0.37255,-2.24383 0.37255,-2.24383z" fill="#fa9789" stroke-width="0"/><path d="M252.4494,185.75322c1.91797,1.18373 3.73173,0.96026 3.73173,0.96026c0,0 -0.06714,1.51828 0.5155,3.17082c0.49653,1.40832 1.62163,2.66857 1.54419,3.2999c-0.16328,1.33106 -2.47589,2.06611 -4.53298,2.16198c-3.40422,0.15866 -4.60295,-1.12759 -4.60295,-1.12759c0,0 -0.12303,-3.93402 -0.0028,-5.75262c0.10692,-1.6172 0.6461,-4.54009 0.6461,-4.54009c0,0 1.77796,1.25752 2.70121,1.82735z" fill="none" stroke-width="1"/></g><g><path d="M247.68964,193.87551l3.4738,-2.61607l4.54595,2.70184l2.40164,-1.37236l2.61606,3.774c0,0 -5.35589,8.2865 -7.4958,8.63451c-1.97887,0.32182 -4.89836,-6.61886 -4.89836,-6.61886z" fill="#0066cd" stroke="#000000" stroke-width="0" stroke-linecap="round"/><path d="M253.65747,201.33418c1.97357,-1.65742 2.70693,-4.89361 5.38818,-5.8804c0.3998,-0.14713 1.26327,-0.17111 1.42679,0.36231c0.30378,0.99095 -5.77846,9.20631 -7.37912,9.14551c-1.39841,-0.05311 -3.39606,-3.06459 -4.21988,-5.17789c-0.48603,-1.24678 -0.20003,-2.06909 -0.12194,-2.08861c0.13625,-0.09627 1.56123,0.64404 1.64258,1.02069c1.36218,0.92807 3.09633,2.75869 3.2634,2.61838z" fill="#061484" stroke="none" stroke-width="0.5" stroke-linecap="butt"/><path d="M247.68964,193.87549l3.4738,-2.61607l4.54595,2.70184l2.40164,-1.37236l2.61606,3.774c0,0 -5.35589,8.28651 -7.4958,8.63451c-1.97886,0.32182 -4.89836,-6.61886 -4.89836,-6.61886" fill="none" stroke="#000000" stroke-width="1" stroke-linecap="round"/></g></g><g stroke="#000000"><g stroke-linecap="butt"><path d="M265.21738,177.02171l1.09609,-2.0702c0,0 9.03106,1.27416 10.77182,2.75571c1.22203,1.04005 0.22114,5.18349 -2.4439,5.0882c-3.54907,-0.12691 -9.424,-5.77371 -9.424,-5.77371z" fill="#0066cd" stroke-width="0"/><path d="M265.21739,177.02171l0.38902,-0.73474c0,0 1.95078,0.66533 3.83761,1.50525c1.45832,0.64918 2.68343,1.40057 4.16126,2.04287c1.75767,0.76393 3.48448,1.3598 3.44285,1.43443c-0.49404,0.8856 -1.30928,1.56514 -2.40672,1.5259c-3.54907,-0.1269 -9.42401,-5.77372 -9.42401,-5.77372z" fill="#061483" stroke-width="0"/><path d="M265.21739,177.02171l1.09609,-2.0702c0,0 9.03106,1.27417 10.77182,2.75572c1.22204,1.04006 0.22114,5.18349 -2.4439,5.0882c-3.54907,-0.1269 -9.42401,-5.77372 -9.42401,-5.77372z" fill="none" stroke-width="1"/></g><g stroke-linecap="round"><path d="M225.83659,172.19175c0,0 -3.42599,-25.89787 18.89204,-21.22668c22.88356,4.78957 14.92927,24.21939 14.92927,24.21939c0,0 6.94229,-3.70764 7.73233,-2.99658c0.66685,0.60019 -1.51629,5.24677 -2.6699,6.96311c-0.85243,1.26826 -2.23635,4.09664 -3.62616,4.0165c-0.87479,-0.05046 -3.86778,-3.50769 -3.86778,-3.50769c0,0 -8.10644,2.70957 -15.06068,2.76504c-6.86719,0.05478 -16.14481,-2.77599 -16.14481,-2.77599c0,0 -6.88753,-2.143 -6.59963,-4.59795c0.2453,-2.09181 6.41532,-2.85918 6.41532,-2.85918z" fill="#fde0be" stroke-width="0"/><path d="M252.79091,180.90455c-0.03636,0.00887 -0.8671,-2.30259 -0.8671,-2.30259l-3.62925,1.90845l-3.39108,-8.03632l-7.55149,2.92927l0.30276,-6.59071c0,0 -11.97977,1.22513 -11.98096,1.19396c-0.23677,-6.14254 0.75124,-22.87253 19.05482,-19.04155c22.88356,4.78957 14.92927,24.21939 14.92927,24.21939c0,0 4.32949,5.14461 4.23856,5.2916c-0.79931,1.29222 -1.79926,2.74928 -2.8023,2.69143c-0.87479,-0.05046 -3.86778,-3.50769 -3.86778,-3.50769c0,0 -1.80193,0.60229 -4.43548,1.24477z" fill="#fc988a" stroke-width="0"/><path d="M259.7636,176.71328l3.28808,-0.79965l-2.08725,4.66239z" fill="#f79587" stroke-width="0.5"/><path d="M244.7286,150.96507c22.88356,4.78957 14.92927,24.21939 14.92927,24.21939c0,0 6.94229,-3.70764 7.73233,-2.99658c0.66685,0.60019 -1.51629,5.24677 -2.6699,6.96311c-0.85243,1.26826 -2.23635,4.09664 -3.62616,4.0165c-0.87479,-0.05046 -3.86778,-3.50769 -3.86778,-3.50769c0,0 -8.10644,2.70957 -15.06068,2.76504c-6.86719,0.05478 -16.14481,-2.77599 -16.14481,-2.77599c0,0 -6.88753,-2.143 -6.59963,-4.59795c0.2453,-2.09181 6.41532,-2.85918 6.41532,-2.85918c0,0 -3.42598,-25.89786 18.89205,-21.22666z" fill="none" stroke-width="1"/></g><g stroke-linecap="round"><path d="M267.0714,169.2611c0,0 -2.48439,3.00561 -3.83883,4.16772c-1.1696,1.00352 -3.81495,2.39926 -3.81495,2.39926c0,0 -9.65406,-7.01101 -16.82802,-9.27127c-7.32769,-2.3087 -17.16699,-3.36165 -17.16699,-3.36165c0,0 -0.21472,-18.23435 3.83105,-20.18706c2.94594,-1.42189 10.72335,-1.81761 17.84658,0.13519c3.24658,0.89003 12.50687,3.53359 14.98896,7.13153c3.32667,4.8222 4.98222,18.98625 4.98222,18.98625z" fill="#ff292e" stroke-width="0"/><path d="M267.0714,169.2611c0,0 -2.48439,3.00562 -3.83883,4.16772c-1.1696,1.00352 -3.81494,2.39926 -3.81494,2.39926c0,0 -4.6752,-3.39525 -9.93635,-6.22197c-0.13771,-0.07399 5.00066,-13.40065 8.93909,-18.29032c1.30416,-1.61917 3.05137,-1.93602 3.66884,-1.04099c3.32667,4.82221 4.98222,18.98626 4.98222,18.98626z" fill="#ac0e49" stroke-width="0.5"/><path d="M263.23258,173.42884c-1.1696,1.00352 -3.81494,2.39926 -3.81494,2.39926c0,0 -9.65406,-7.01101 -16.82804,-9.27125c-7.32769,-2.3087 -17.16698,-3.36164 -17.16698,-3.36164c0,0 -0.21471,-18.23435 3.83105,-20.18706c2.94595,-1.42188 10.72335,-1.81761 17.84658,0.13519c3.24658,0.89003 12.50687,3.53359 14.98896,7.13151c3.32667,4.82221 4.98222,18.98626 4.98222,18.98626c0,0 -2.48439,3.00561 -3.83883,4.16772z" fill="none" stroke-width="1"/></g><g stroke-linecap="round"><path d="M225.15891,168.92535c0,0 -3.95837,0.23561 -5.80804,0.57271c-1.878,0.34228 -5.37628,1.46571 -5.37628,1.46571c0,0 2.27361,-3.51109 3.63942,-5.03007c1.29707,-1.44257 4.35987,-3.86639 4.35987,-3.86639l-9.50098,-1.05991c0,0 10.93815,-10.91031 14.74809,-11.79049c2.27229,-0.52493 9.20902,5.85686 9.20902,5.85686c0,0 1.72457,-2.4156 2.81178,-3.49008c0.99003,-0.97846 3.44723,-2.69571 3.44723,-2.69571c0,0 0.40683,6.3032 0.90162,9.40857c0.51545,3.23506 2.1316,9.62863 2.1316,9.62863l13.52635,7.43818l-2.51282,6.34843l-4.52683,-7.0966l-3.16882,2.96009l-3.31787,-9.65007l-5.59487,3.15796l-0.20871,-5.19641c0,0 -11.29243,0.60991 -13.93214,1.36552c-0.71956,0.20597 -0.82758,1.67315 -0.82758,1.67315z" fill="#4fa6ec" stroke-width="0"/><path d="M229.8674,160.39334l-15.89282,10.57043c0,0 2.27361,-3.51109 3.63941,-5.03007c1.29706,-1.44257 4.35987,-3.86639 4.35987,-3.86639l-9.50097,-1.05992c0,0 10.93815,-10.91031 14.74809,-11.79049c2.27228,-0.52494 9.20903,5.85686 9.20903,5.85686c0,0 1.72456,-2.41559 2.81177,-3.49008c0.99003,-0.97846 3.44723,-2.6957 3.44723,-2.6957l-4.5676,11.21609c0,0 -8.09458,-5.94326 -10.31607,-6.01893c-3.48655,-0.11877 -9.48846,5.90211 -9.48846,5.90211z" fill="#66ffff" stroke-width="0"/><path d="M250.05121,172.08092l-1.48205,4.12461l-2.01036,-5.84714z" fill="#66ffff" stroke-width="0"/><path d="M213.97459,170.96377c0,0 2.27361,-3.51109 3.63941,-5.03007c1.29706,-1.44257 4.35987,-3.86639 4.35987,-3.86639l-9.50097,-1.05992c0,0 10.93815,-10.91031 14.74809,-11.79049c2.27228,-0.52494 9.20903,5.85686 9.20903,5.85686c0,0 1.72456,-2.41559 2.81177,-3.49008c0.99003,-0.97846 3.44723,-2.6957 3.44723,-2.6957c0,0 0.40683,6.30319 0.90161,9.40856c0.51543,3.23504 2.1316,9.62863 2.1316,9.62863l13.52635,7.43818l-2.51282,6.34843l-4.52683,-7.09659l-3.16883,2.96008l-3.31788,-9.65007l-5.59488,3.15796l-0.20871,-5.19641c0,0 -11.29243,0.60991 -13.93214,1.36552c-0.71956,0.20597 -0.82758,1.67315 -0.82758,1.67315c0,0 -3.95835,0.2356 -5.80803,0.57271c-1.84968,0.33711 -5.3763,1.46568 -5.3763,1.46568z" fill="none" stroke-width="1"/></g></g><g stroke="#000000"><path d="M250.57135,190.14441c0,0 -3.43451,2.2348 -5.12558,-1.20723c-0.75676,-1.54033 3.76725,-5.49657 4.0097,-5.99154c0.5916,-1.20776 4.40626,0.48142 4.40626,0.48142c0,0 2.88551,-1.23171 3.90904,-0.84698c3.31273,1.24517 2.88742,5.08679 2.88742,5.08679c0,0 4.16488,1.18131 4.69278,2.33863c1.09576,2.40227 1.70261,8.55893 1.32932,9.79486c-0.23592,0.78105 -3.79623,3.15577 -6.34525,2.9105c-2.11738,-0.20373 -3.32059,-2.98028 -3.32059,-2.98028c0,0 -2.19093,1.49072 -3.48571,1.30292c-1.22433,-0.1776 -3.70093,-2.52436 -3.70093,-2.52436c0,0 -1.00374,0.88279 -2.07117,1.10328c-1.60127,0.33076 -3.70808,-0.26493 -2.2393,-4.16761c0.67258,-1.78713 5.82779,-2.30043 5.82779,-2.30043z" fill="#fde0be" stroke-width="0" stroke-linecap="round"/><path d="M250.57135,190.14441c0,0 -3.43451,2.2348 -5.12558,-1.20723c-0.36894,-0.75093 0.51721,-2.07606 1.5505,-3.29441c0.47286,1.64881 2.10502,2.45926 3.39917,2.22204c0.83268,-0.15264 1.32466,-0.95249 1.94494,-1.53263c0.00639,0.00191 0.0128,0.00376 0.01923,0.00559c0.20352,0.05756 0.40928,0.0668 0.60505,0.03454c0.29403,0.07041 1.2439,-0.18514 1.29446,-0.265c0.97853,-0.26533 1.35063,1.16352 2.35665,1.0375c1.05149,-0.13172 2.97642,-2.01205 2.94599,-3.31556c1.22174,1.46685 1.12799,3.44122 1.10114,3.78542c-1.95775,1.06792 -4.39619,5.65919 -3.87182,7.28292c0.31544,0.97674 2.65982,0.20285 3.01099,-0.13727c1.39219,-1.34835 2.76088,-2.98809 2.96467,-4.76544c0.21182,-0.17421 0.37449,-0.41258 0.45479,-0.69645c0.06906,-0.24415 0.06857,-0.49152 0.01034,-0.72096c0.96671,0.41391 1.88888,0.92327 2.11915,1.42804c1.09576,2.40227 1.70261,8.55893 1.32932,9.79486c-0.23592,0.78105 -3.79623,3.15577 -6.34525,2.9105c-0.65351,-0.06288 -1.21995,-0.37085 -1.6908,-0.76662c0.49342,-0.26303 0.96154,-0.59648 1.31819,-0.96056c1.10641,-1.1295 2.17162,-1.62214 0.74821,-1.88054c-0.16566,-0.17223 -4.31518,-1.50684 -4.31518,-1.50684c0,0 -0.04873,0.72385 -0.25823,1.46458c-0.11047,0.39063 -0.04293,0.78949 0.15424,1.10998c-0.75433,0.42308 -1.93958,0.98203 -2.76269,0.86265c-1.22433,-0.1776 -3.70093,-2.52436 -3.70093,-2.52436c0,0 -1.00374,0.88279 -2.07117,1.10328c-0.28476,0.05882 -0.58552,0.08835 -0.8793,0.07517c0.50435,-1.55629 0.87606,-3.33521 1.62456,-3.75063c1.52759,-0.84784 4.09066,3.00699 5.29755,1.13682c1.16727,-1.80876 0.42687,-4.98842 -1.32594,-5.03862c-0.03604,-0.01348 -0.07292,-0.02559 -0.11061,-0.03624c-0.44913,-0.12702 -0.90913,-0.01871 -1.24839,0.25137z" fill="#f89688" stroke-width="0" stroke-linecap="butt"/><path d="M245.51737,195.44478c0.07695,-0.20449 0.21261,-0.39231 0.39252,-0.56457c-0.20355,0.31975 -0.3886,0.67159 -0.56175,1.04764c0.05008,-0.15508 0.10638,-0.31605 0.16924,-0.48307z" fill="#f89688" stroke-width="0" stroke-linecap="butt"/><path d="M250.59078,193.28043c-0.0291,-0.00823 -0.05806,-0.01624 -0.08686,-0.02404c0.03032,-0.0047 0.06,-0.00924 0.08903,-0.01363c-0.0009,0.01257 -0.00161,0.02513 -0.00216,0.03767z" fill="#f89688" stroke-width="0" stroke-linecap="butt"/><path d="M250.57135,190.14441c0,0 -3.43451,2.2348 -5.12558,-1.20723c-0.75676,-1.54033 3.76725,-5.49657 4.0097,-5.99154c0.5916,-1.20776 4.40626,0.48142 4.40626,0.48142c0,0 2.88551,-1.23171 3.90904,-0.84698c3.31273,1.24517 2.88742,5.08679 2.88742,5.08679c0,0 4.16488,1.18131 4.69278,2.33863c1.09576,2.40227 1.70261,8.55893 1.32932,9.79486c-0.23592,0.78105 -3.79623,3.15577 -6.34525,2.9105c-2.11738,-0.20373 -3.32059,-2.98028 -3.32059,-2.98028c0,0 -2.19093,1.49072 -3.48571,1.30292c-1.22433,-0.1776 -3.70093,-2.52436 -3.70093,-2.52436c0,0 -1.00374,0.88279 -2.07117,1.10328c-1.60127,0.33076 -3.70808,-0.26493 -2.2393,-4.16761c0.67258,-1.78713 5.82779,-2.30043 5.82779,-2.30043z" fill="none" stroke-width="1" stroke-linecap="round"/><path d="M252.9557,188.26946l-2.27706,1.90531" fill="none" stroke-width="1" stroke-linecap="round"/><path d="M257.80027,189.98728c0,0 -1.61937,0.37752 -2.54841,-0.05314c-1.56106,-0.72363 -2.78955,-2.49594 -2.91302,-3.17262c-0.19686,-1.07913 2.2133,-2.90743 2.2133,-2.90743" fill="none" stroke-width="1" stroke-linecap="round"/><path d="M263.2138,192.56129c0,0 -1.53924,3.72843 -2.77686,4.53262c-1.20339,0.78195 -4.3054,-1.0652 -4.40903,-1.64391c-0.29855,-1.66765 2.85505,-7.24232 2.85505,-7.24232l1.42303,-0.52455" fill="none" stroke-width="1" stroke-linecap="round"/><path d="M262.60687,194.70721l1.32982,-1.01443" fill="none" stroke-width="0.5" stroke-linecap="round"/></g><g stroke-linecap="butt"><path d="M241.00048,172.82608c-0.47118,-2.91816 1.51249,-5.66574 4.43064,-6.13692c2.91815,-0.47118 5.66574,1.51248 6.13692,4.43064c0.47118,2.91816 -1.51248,5.66574 -4.43064,6.13692c-2.91815,0.47118 -5.66574,-1.51248 -6.13692,-4.43064z" fill="#ffffff" stroke="none" stroke-width="0"/><path d="M237.84371,166.33296c0.445,2.75603 -1.37917,5.343 -4.07441,5.7782c-2.69523,0.43518 -5.2409,-1.44623 -5.68589,-4.20226c-0.445,-2.75603 1.37917,-5.343 4.07441,-5.7782c2.69523,-0.43518 5.2409,1.44623 5.68589,4.20226z" fill="#ffffff" stroke="none" stroke-width="NaN"/><path d="M231.46761,164.40013c-1.41636,2.45106 -0.81109,7.0177 2.68385,5.51843c4.54164,-1.73757 1.76923,-8.31315 -2.58938,-5.63093c-0.03135,0.03749 -0.06286,0.07498 -0.09447,0.1125zM238.05677,168.63847c-0.00218,0.12022 -0.00605,0.23876 -0.01157,0.35525c-0.1683,0.41273 -0.29816,0.83432 -0.42866,1.24885c0.05469,0.07103 0.09302,0.1563 0.10832,0.25103c0.03366,0.20839 -0.05288,0.40843 -0.2086,0.52946l-0.23193,0.18725c-0.29739,0.74883 -0.70962,1.42633 -1.50623,1.92282c-2.95018,1.83874 -7.42927,-0.00396 -8.28976,-3.10419c-1.32393,-4.55689 3.20742,-10.10479 7.69305,-9.64299c3.0459,1.72997 4.13272,5.39487 2.87538,8.25251zM231.53998,171.06436c-1.30704,-0.67202 -1.91181,-2.403 -1.84187,-4.19291c-0.27396,0.5981 -0.42647,1.25041 -0.3646,1.98946c0.03694,0.24292 0.0934,0.4772 0.16935,0.70082c0.34048,0.78223 1.13949,1.28156 2.03709,1.50263z" fill="#000000" stroke="none" stroke-width="0.5"/><path d="M245.43332,166.14046c5.30688,-1.57422 8.60737,5.64922 6.09983,9.75165c-2.15078,2.53704 -6.75023,3.28324 -9.40566,1.0251c-0.41252,-0.35079 -0.65745,-0.81836 -0.82479,-1.33331l-0.10038,-0.15836l0.03295,-0.02088l-0.07162,-0.05136c-0.19228,-0.67185 -0.72492,-2.27447 -0.55767,-3.25537c-0.00278,-0.26806 0.01524,-0.53628 0.05547,-0.79978l0.04969,-0.58393c0.01168,-0.18513 0.11556,-0.3513 0.27237,-0.4442c0.38896,-2.2675 2.62312,-3.08644 4.44981,-4.12955zM243.07538,174.73834c-0.05512,0.65267 0.05736,1.21601 0.97882,1.42683c0.06863,0.00584 0.1367,0.01111 0.20423,0.01582c-0.20917,-0.12526 -0.41873,-0.27741 -0.62746,-0.45857c-0.22696,-0.31344 -0.41099,-0.64327 -0.55559,-0.98409zM248.16985,175.55821c1.90929,-1.0301 2.42076,-3.24542 1.26785,-6.39602c-3.17565,-4.39191 -7.35433,2.48423 -4.98276,5.80896c2.76271,2.41261 5.80236,-3.23089 2.28622,-5.35398c0,0 -0.47573,-0.29072 -0.18501,-0.76644c0.29072,-0.47573 0.76643,-0.18501 0.76643,-0.18501c2.85994,1.76529 2.48158,5.1524 0.84727,6.89245zM242.6624,172.25202c0.09417,-1.71663 0.89107,-3.39545 2.0197,-4.45775c-1.49654,0.78694 -3.06565,1.77925 -2.56639,3.80384c0.09184,0.37242 0.31975,0.49428 0.54669,0.65388z" fill="#000000" stroke="none" stroke-width="0.5"/><path d="M226.22292,176.88192c-0.008,-0.01568 -0.0157,-0.03214 -0.0231,-0.04937c-0.23151,-0.53995 0.30844,-0.77148 0.30844,-0.77148c3.89442,-1.65538 8.21517,0.1354 11.95274,1.50582c2.33823,0.18471 4.31958,1.59478 6.51049,1.86482c0.50374,0.0621 2.48077,0.13462 2.55848,0.86262c0.17108,1.60257 -2.40913,1.30015 -4.26195,0.88225l-0.62819,0.01738c-0.63022,-0.1518 -1.24524,-0.34941 -1.85036,-0.57393c-1.9363,-0.35231 -3.74059,-1.42382 -5.68676,-1.70852c-0.99143,-0.14504 -2.01061,-0.1778 -3.03977,-0.18033c-0.50887,0.07597 -1.13326,0.07189 -1.76893,0.00999c-1.01226,0.00515 -2.02435,-0.00557 -3.01958,-0.10895c-1.16892,-0.72409 -1.3563,-1.30203 -1.05149,-1.75037z" fill="#ff6666" stroke="#000000" stroke-width="1"/></g></g></g></svg>