<svg version="1.1" xmlns="http://www.w3.org/2000/svg" xmlns:xlink="http://www.w3.org/1999/xlink" width="127.66667" height="127.66667" viewBox="0,0,127.66667,127.66667"><g transform="translate(-176.16668,-116.16666)"><g data-paper-data="{&quot;isPaintingLayer&quot;:true}" fill-rule="nonzero" stroke-linejoin="miter" stroke-miterlimit="10" stroke-dasharray="" stroke-dashoffset="0" style="mix-blend-mode: normal"><path d="M176.16668,243.83333v-127.66667h127.66667v127.66667z" fill="none" stroke="none" stroke-width="NaN" stroke-linecap="butt"/><g><path d="M202.78058,194.99968c-0.00219,0.00109 -0.00335,0.00162 -0.00335,0.00162l-0.57048,0.05935c-1.21652,-0.60761 -1.38287,-1.9563 -1.20833,-3.23687c1.0125,-2.094 3.1289,-7.88652 6.51209,-6.00259c1.59945,0.89066 2.34392,2.7516 3.45402,4.10553c2.82343,6.03068 -4.19158,5.49992 -8.18393,5.07295z" fill="#323344" stroke="#000000" stroke-width="1" stroke-linecap="butt"/><path d="M227.13998,179.27831c-0.09344,-1.29421 -0.01882,-4.53355 0.88226,-5.58783c2.57013,-3.00712 5.23534,-0.0838 6.54952,2.10565c0.99307,2.15055 1.43599,6.05634 0.41793,9.45437c-0.70195,2.34292 -2.43346,4.36448 -3.51534,5.59806c-0.369,0.42074 -1.89022,0.90791 -5.13693,-1.18875c-3.03595,-1.96056 -5.99529,-5.58618 -5.2512,-6.73876c0.64031,-0.99185 6.12201,-2.7347 6.12201,-2.7347z" fill="#dc94e7" stroke="#000000" stroke-width="1" stroke-linecap="butt"/><path d="M225.48297,184.85615c0.06688,0.01374 0.10818,0.02902 0.10818,0.02902l0.93539,0.42282c0.61722,0.61425 0.90626,1.29237 1.21964,1.93744c0.38572,0.79399 0.71347,1.58159 0.58542,2.66765c-1.40167,6.52606 -10.62453,12.64217 -14.45483,4.3182c-1.58048,-3.48018 1.16749,-6.04228 4.53649,-7.66782c2.29543,-1.10755 4.83379,-1.87899 6.66547,-1.82365c0,0 0.20462,0.00663 0.40422,0.11634z" fill="#f89688" stroke="#000000" stroke-width="1" stroke-linecap="butt"/><path d="M207.09262,187.91137c-0.7139,-0.02105 -0.77566,-0.76813 -0.77566,-0.76813c-0.1638,-1.99821 1.15407,-6.89848 3.68706,-6.86679c2.59769,0.0325 2.34534,2.73844 4.21984,3.59185c0.88312,0.40206 2.57867,-0.36017 3.5205,-0.43769c0.7836,0.79683 1.03245,0.88447 1.45453,1.86369c0.74518,1.72882 -0.09996,3.37477 -1.99642,3.78169c-3.03761,0.65179 -5.99989,-1.63579 -9.05294,-1.08231l-0.31229,0.07645c0,0 -0.43501,0.10363 -0.7446,-0.15876z" fill="#fcdfbd" stroke="none" stroke-width="0.5" stroke-linecap="butt"/><path d="M217.74436,183.43061c0.7836,0.79683 1.03245,0.88447 1.45453,1.8637c0.74517,1.72882 -0.09996,3.37477 -1.99642,3.78169c-2.34596,0.50338 -4.64699,-0.74644 -6.97961,-1.08674c0.64356,-0.42471 1.23526,-0.81126 1.71418,-1.03087c0.52297,-0.23981 1.03471,-0.20177 1.54845,-0.09895c0.66193,0.3719 1.46718,0.46966 2.22586,0.22311c0.31339,-0.07991 0.63358,-0.23768 0.96311,-0.51364c0.0927,-0.07764 0.17913,-0.17263 0.25851,-0.28179c0.66947,-0.75061 0.90075,-1.83249 0.53633,-2.81964c0.09717,-0.01703 0.18925,-0.02979 0.2751,-0.03685z" fill="#f89688" stroke="none" stroke-width="0.5" stroke-linecap="butt"/><path d="M207.09262,187.91137c-0.7139,-0.02105 -0.77566,-0.76813 -0.77566,-0.76813c-0.1638,-1.99821 1.15407,-6.89848 3.68705,-6.86679c2.59768,0.0325 2.34534,2.73843 4.21984,3.59184c0.88311,0.40206 2.57866,-0.36017 3.5205,-0.43768c0.7836,0.79683 1.03245,0.88447 1.45453,1.8637c0.74517,1.72882 -0.09996,3.37477 -1.99642,3.78169c-3.0376,0.65179 -5.99989,-1.63579 -9.05294,-1.08231l-0.3123,0.07643c0,0 -0.43501,0.10363 -0.7446,-0.15875z" fill="none" stroke="#000000" stroke-width="1" stroke-linecap="butt"/><path d="M206.92775,185.60554c0.23306,0.50647 -0.27342,0.73953 -0.27342,0.73953l-0.07792,0.03585c-3.14078,1.44523 -4.55854,4.68563 -3.44007,8.02392c0,0 0.05547,0.16706 0.01021,0.34461l0.16909,0.22232c0,0 -0.18761,0.50743 -0.69306,0.33778c-0.07,0.02084 -0.14001,0.04168 -0.21001,0.06252c0,0 -0.30231,0.09001 -0.51983,-0.09276c-0.33198,0.00222 -0.48703,-0.33472 -0.48703,-0.33472l-0.06086,-0.14253c-1.5271,-4.81905 -0.05073,-7.78441 4.39449,-9.82989c0,0 0.50647,-0.23306 0.73953,0.27342c0.00536,0.01165 0.01034,0.02317 0.01494,0.03453c0.15059,0.011 0.32316,0.08465 0.43395,0.32542z" fill="#455d83" stroke="none" stroke-width="0.5" stroke-linecap="butt"/><path d="M202.93909,193.70858c-0.55208,-0.05522 -1.11237,0.01638 -1.59912,0.22126c-0.08103,-0.00977 -0.16326,-0.01248 -0.24576,-0.00774c-0.40151,-1.59926 -0.43889,-2.98071 -0.11363,-4.1838c0.63795,0.38105 1.26822,0.78439 1.89551,1.18061c-0.17436,0.88409 -0.15998,1.8278 0.063,2.78968z" fill="#85afb1" stroke="none" stroke-width="0.5" stroke-linecap="butt"/><path d="M202.15701,187.50678c0.55046,0.42082 1.22075,0.7858 1.7717,1.00312c-0.29527,0.40546 -0.53774,0.84232 -0.72395,1.30335c-0.605,-0.38016 -1.21098,-0.76365 -1.82481,-1.12828c0.20706,-0.41588 0.46611,-0.8079 0.77706,-1.1782z" fill="#85afb1" stroke="none" stroke-width="0.5" stroke-linecap="butt"/><path d="M206.92775,185.60555c0.23306,0.50647 -0.27342,0.73953 -0.27342,0.73953l-0.07792,0.03585c-3.14078,1.44523 -4.55854,4.68563 -3.44007,8.02393c0,0 0.05547,0.16706 0.01021,0.34461l0.16908,0.22234c0,0 -0.1876,0.50743 -0.69306,0.33778c-0.07,0.02084 -0.14001,0.04168 -0.21001,0.06252c0,0 -0.30231,0.09 -0.51983,-0.09276c-0.33199,0.00223 -0.48704,-0.33472 -0.48704,-0.33472l-0.06086,-0.14253c-1.5271,-4.81905 -0.05074,-7.78441 4.39449,-9.82989c0,0 0.50647,-0.23306 0.73953,0.27342c0.00536,0.01164 0.01034,0.02317 0.01494,0.03454c0.15059,0.011 0.32316,0.08465 0.43395,0.32542z" fill="none" stroke="#000000" stroke-width="1" stroke-linecap="butt"/><path d="M219.05791,190.9268c0,0 2.88358,-1.26657 4.07345,0.15121c0.95469,1.13755 0.24971,2.64584 0.06028,3.92699c-0.44838,3.0323 -0.9291,8.01778 -5.1121,7.1414c-0.91843,-0.28253 -1.67923,-0.66552 -2.5291,-1.10632l-0.10661,-0.03818c-0.76748,0.93413 -1.71727,1.42085 -2.54508,1.13354c-0.87639,-0.30417 -1.97133,-1.27284 -2.88622,-1.8795c-1.24893,0.82436 -2.61206,1.72123 -4.07034,1.37487c-1.40246,-0.3331 -1.60611,-1.42244 -2.12444,-2.54885c-1.45184,-3.15513 -0.68546,-6.61977 1.5655,-9.22732c1.02472,-1.47884 1.87881,-3.46474 3.57918,-4.3679c1.19586,-0.63517 2.2763,-0.25779 3.16078,0.36788c1.02048,0.7219 1.75595,1.83967 1.71284,3.17968c1.21345,-0.3256 2.60622,-0.17858 3.72504,0.29258c1.09557,0.46137 0.9577,0.96721 1.4968,1.59992z" fill="#fde0be" stroke="none" stroke-width="0.5" stroke-linecap="butt"/><path d="M223.13137,191.07801c0.9547,1.13757 0.24972,2.64584 0.06028,3.92698c-0.44839,3.0323 -0.9291,8.01779 -5.1121,7.14141c-0.91843,-0.28253 -1.67923,-0.66552 -2.52909,-1.10633l-0.10661,-0.03818c-0.76748,0.93413 -1.71727,1.42085 -2.54508,1.13354c-0.87639,-0.30417 -1.97132,-1.27285 -2.88623,-1.87951c-1.24893,0.82436 -2.61205,1.72123 -4.07033,1.37486c-1.40247,-0.33311 -1.60611,-1.42244 -2.12444,-2.54885c-0.4857,-1.05551 -0.72315,-2.14566 -0.73979,-3.22678c0.14016,0.13942 0.25658,0.28756 0.3236,0.46436l0.00854,0.00363c0.3997,1.07988 1.11652,1.75656 1.95772,2.02975c0.68525,0.274 1.47731,0.27701 2.20065,-0.05583c0.26173,-0.12044 0.49592,-0.27631 0.69948,-0.4593c0.23755,-0.15903 0.46919,-0.3471 0.69117,-0.56418c0.96539,-0.94407 2.14788,-2.60965 3.11924,-4.49173c0.07323,0.94797 0.19671,1.86756 0.33282,2.60099c0.00842,0.36944 0.09089,0.74325 0.25519,1.10032c0.09787,0.2127 0.21915,0.4072 0.35937,0.58188c0.66455,1.44419 2.01852,1.42598 3.13399,0.86974c0.0686,-0.02528 0.13675,-0.05343 0.20429,-0.08451c0.55718,-0.25639 0.98953,-0.67339 1.26739,-1.17076c0.09764,-0.1486 0.17333,-0.29804 0.22243,-0.44368c0.05536,-0.16424 0.11048,-0.34487 0.16474,-0.53891c0.23911,0.02442 0.07281,2.33558 0.31043,2.29957c0.70309,-0.10651 1.78131,-2.80865 2.26608,-3.57062c0.38842,-0.61051 0.5517,-1.18042 0.54871,-1.69646c0.08344,-0.52543 0.01765,-1.08046 -0.22143,-1.60003c-0.10815,-0.23504 -0.24489,-0.44787 -0.40418,-0.63626c0.89617,-0.16388 1.98823,-0.15968 2.61314,0.58492z" fill="#f89688" stroke="none" stroke-width="0.5" stroke-linecap="butt"/><path d="M219.05791,190.9268c0,0 2.88358,-1.26657 4.07345,0.15121c0.9547,1.13757 0.24972,2.64584 0.06028,3.92698c-0.44839,3.0323 -0.9291,8.01779 -5.1121,7.14141c-0.91843,-0.28253 -1.67923,-0.66552 -2.52909,-1.10633l-0.10661,-0.03818c-0.76748,0.93413 -1.71727,1.42085 -2.54508,1.13354c-0.87639,-0.30417 -1.97132,-1.27285 -2.88623,-1.87951c-1.24893,0.82436 -2.61205,1.72123 -4.07033,1.37486c-1.40247,-0.33311 -1.60611,-1.42244 -2.12444,-2.54885c-1.45184,-3.15513 -0.68547,-6.61977 1.56548,-9.22731c1.02472,-1.47884 1.87881,-3.46474 3.57919,-4.3679c1.19586,-0.63517 2.2763,-0.25779 3.16076,0.36789c1.02048,0.7219 1.75595,1.83967 1.71284,3.17968c1.21346,-0.32561 2.60622,-0.17858 3.72504,0.29259c1.09558,0.46137 0.9577,0.96721 1.4968,1.59992z" fill="none" stroke="#000000" stroke-width="1" stroke-linecap="butt"/><path d="M214.19849,189.23181l-3.36521,5.31263" fill="none" stroke="#000000" stroke-width="1" stroke-linecap="round"/><path d="M217.17084,196.04695l1.7188,-4.80052" fill="none" stroke="#000000" stroke-width="1" stroke-linecap="round"/><path d="M192.27795,190.59995c-1.99009,-4.32487 -0.63041,-9.57656 3.69446,-11.56667c2.31048,-1.06317 4.11832,-0.66897 6.15186,0.24852c0.68511,0.30911 1.83428,0.99426 2.70073,1.87952c1.37574,1.40559 1.77718,3.24723 1.78857,3.55433c0.00906,0.24455 -3.32485,-0.09119 -5.02385,3.22859c-1.73299,3.38621 -0.50813,7.52716 -0.50813,7.52716c0,0 -2.15994,0.54793 -3.97706,-0.03851c-2.02486,-0.6535 -3.77772,-2.5536 -4.82657,-4.83296z" fill="#465e85" stroke="#000000" stroke-width="0" stroke-linecap="butt"/><path d="M192.27795,190.59995c-0.24989,-0.54305 -0.44694,-1.1007 -0.59197,-1.66468c0.07682,0.05545 0.15888,0.10272 0.2447,0.14132l0.01268,0.01745l0.04186,0.0057c0.2197,0.08784 0.46138,0.11995 0.70186,0.0878l0.23766,-0.02613l0.13385,-0.04954l0.14923,0.02358l0.08774,-0.00776l0.0847,0.02411l0.10081,0.00326l0.01274,0.0091l0.03934,-0.00742l0.03881,0.00126l0.31305,-0.06757l0.31472,-0.05932l0.03529,-0.01623l0.03914,-0.00845l0.0082,-0.01334l0.02653,-0.01221l0.03607,0.01026l0.10081,0.00326l0.01274,0.0091l0.03934,-0.00742l0.03881,0.00126l0.31305,-0.06757l0.31472,-0.05932l0.03529,-0.01623l0.03914,-0.00845l0.0082,-0.01334l6.53683,-3.00794l0.03649,-0.00788l0.31472,-0.05932l0.03529,-0.01623l0.03914,-0.00845l0.0082,-0.01334l0.19792,-0.09107l0.0263,0.00359l0.53923,-0.05928l0.1652,-0.06115l0.29789,-0.06431l0.31472,-0.05932l0.03529,-0.01623l0.03914,-0.00845l0.0082,-0.01334l0.43167,-0.19863l0.0263,0.00359l0.17114,-0.01881l0.19349,0.00626l0.01274,0.0091l0.03934,-0.00742l0.03881,0.00126l0.26189,-0.05652c-1.09114,0.32364 -2.50175,1.04732 -3.42724,2.85571c-1.73299,3.38621 -0.50813,7.52716 -0.50813,7.52716c0,0 -2.15994,0.54793 -3.97706,-0.03851c-2.02486,-0.6535 -3.77772,-2.5536 -4.82657,-4.83296z" fill="#323344" stroke="#000000" stroke-width="0" stroke-linecap="butt"/><path d="M194.62357,184.31334l0.01007,0.01383l-0.02482,-0.00145z" fill="#323344" stroke="#000000" stroke-width="0" stroke-linecap="butt"/><path d="M192.27795,190.59995c-1.9901,-4.32487 -0.6304,-9.57657 3.69446,-11.56667c2.31048,-1.06317 4.11831,-0.66897 6.15185,0.24852c0.68511,0.30911 1.83427,0.99426 2.70073,1.87952c1.37573,1.40559 1.77719,3.24722 1.78858,3.55433c0.00906,0.24455 -3.32484,-0.09119 -5.02384,3.2286c-1.73299,3.38621 -0.50813,7.52716 -0.50813,7.52716c0,0 -2.15995,0.54796 -3.97707,-0.03851c-2.02486,-0.6535 -3.77772,-2.5536 -4.82657,-4.83295z" fill="none" stroke="#000000" stroke-width="1" stroke-linecap="butt"/><path d="M199.24569,195.2776c0,0 -2.32119,-5.4293 -0.38927,-8.56238c2.04273,-3.3128 7.14219,-3.23143 7.14219,-3.23143" fill="none" stroke="#000000" stroke-width="1" stroke-linecap="round"/><path d="M195.10156,194.06876c0,0 -1.00926,-5.49341 0.39025,-9.31487c1.27058,-3.46942 6.40755,-5.04887 6.40755,-5.04887" fill="none" stroke="#000000" stroke-width="1" stroke-linecap="round"/><path d="M192.02146,189.63218c0,0 0.94024,-4.74546 1.8457,-6.67621c0.81695,-1.74204 3.34886,-4.40051 3.34886,-4.40051" fill="none" stroke="#000000" stroke-width="1" stroke-linecap="round"/><path d="M200.08698,193.00213c0,0 -2.60192,0.56177 -3.75428,0.40805c-1.12717,-0.15035 -3.08597,-1.32046 -3.08597,-1.32046" fill="none" stroke="#000000" stroke-width="1" stroke-linecap="round"/><path d="M200.59175,191.63687c0,0 -3.30194,-0.1293 -4.82241,-0.48766c-1.35515,-0.31938 -3.86165,-1.55909 -3.86165,-1.55909" fill="none" stroke="#000000" stroke-width="1" stroke-linecap="round"/><path d="M200.65384,189.71992c0,0 -3.43858,-0.47749 -4.86797,-1.2727c-1.56217,-0.86906 -4.14218,-3.73979 -4.14218,-3.73979" fill="none" stroke="#000000" stroke-width="1" stroke-linecap="round"/><path d="M192.73737,181.74934c0,0 4.22565,2.50011 5.7209,3.65508c1.23979,0.95765 2.62865,2.79438 2.62865,2.79438" fill="none" stroke="#000000" stroke-width="1" stroke-linecap="round"/><path d="M195.34595,179.41597c0,0 3.00579,1.31682 4.19383,2.36534c1.24683,1.10039 3.11933,4.08892 3.11933,4.08892" fill="none" stroke="#000000" stroke-width="1" stroke-linecap="round"/><path d="M200.95954,179.09889c0,0 1.51892,1.56219 2.12027,2.50116c0.62742,0.9797 1.56937,3.26005 1.56937,3.26005" fill="none" stroke="#000000" stroke-width="1" stroke-linecap="round"/></g><g><g stroke="#000000" stroke-linecap="round"><path d="M217.39262,198.10566c0,0 2.77356,-5.4398 4.13943,-6.21618c0.72822,-0.41394 3.42693,1.9153 3.42693,1.9153c0,0 4.75261,-4.06073 11.07906,-4.08413c8.09534,-0.02994 19.34573,2.25227 19.34573,2.25227l2.86726,11.62832c0,0 -16.00774,1.20555 -22.80124,0.29181c-6.82582,-0.91809 -18.05716,-5.78738 -18.05716,-5.78738z" fill="#0065cc" stroke-width="0"/><path d="M224.95899,193.80477c0,0 4.75261,-4.06073 11.07906,-4.08413c8.09534,-0.02994 19.34573,2.25227 19.34573,2.25227l2.86726,11.62832c0,0 -16.00774,1.20555 -22.80124,0.29181c-2.42102,-0.32564 -5.39627,-1.14834 -8.22801,-2.07454c-0.18852,-2.71503 -0.97078,-5.45195 -1.84464,-7.13762c-0.12154,-0.23446 -0.27258,-0.54189 -0.44949,-0.9029c0.02049,0.01743 0.03134,0.02678 0.03134,0.02678z" fill="#061382" stroke-width="0"/><path d="M232.04747,200.89327l-2.70796,-2.54867" fill="none" stroke-width="1"/><path d="M217.39262,198.10566c0,0 2.77356,-5.4398 4.13943,-6.21618c0.72822,-0.41394 3.42693,1.9153 3.42693,1.9153c0,0 4.75261,-4.06073 11.07906,-4.08413c8.09534,-0.02994 19.34573,2.25227 19.34573,2.25227l2.86726,11.62832c0,0 -16.00774,1.20555 -22.80124,0.29181c-6.82582,-0.91809 -18.05716,-5.78738 -18.05716,-5.78738z" fill="none" stroke-width="1"/></g><g stroke="#000000" stroke-linecap="round"><path d="M249.25102,194.60123l-1.51328,-6.21239l7.64603,-2.38938c0,0 0.17149,2.7748 0.98286,3.82705c0.40524,0.52553 1.70508,0.75763 2.56131,1.28546c1.0071,0.62083 1.55317,1.49811 1.55317,1.49811c0,0 -0.28803,4.42718 -4.95489,4.6561c-3.93081,0.19281 -6.2752,-2.66494 -6.2752,-2.66494z" fill="#fde0be" stroke-width="0"/><path d="M247.73773,188.38884l7.64603,-2.38938c0,0 0.12788,2.06935 0.68533,3.31165c-2.32251,2.12352 -4.27784,2.37238 -7.34419,3.3381z" fill="#f89688" stroke-width="0"/><path d="M249.25102,194.60123l-1.51328,-6.21239l7.64603,-2.38938c0,0 0.17149,2.7748 0.98286,3.82705c0.40524,0.52553 1.70508,0.75763 2.56131,1.28546c1.0071,0.62083 1.55317,1.49811 1.55317,1.49811c0,0 -0.28803,4.42718 -4.95489,4.6561c-3.93081,0.19281 -6.2752,-2.66494 -6.2752,-2.66494z" fill="none" stroke-width="1"/></g><g><path d="M229.23001,185.91782c0,0 -2.69302,-5.63292 1.16249,-10.76664c1.41904,-1.88949 3.84565,-4.31385 7.44797,-5.50405c15.78375,-5.21493 14.80547,9.16228 14.80547,9.16228c0,0 3.97095,4.30425 3.3419,5.91514c-1.28839,3.29933 -7.6627,3.70211 -7.6627,3.70211l0.83628,6.27212c0,0 -9.08739,7.27359 -17.77238,2.91128c-9.96441,-5.00493 -2.15904,-11.69225 -2.15904,-11.69225z" fill="#feecf7" stroke="#000000" stroke-width="0" stroke-linecap="round"/><path d="M229.23001,185.91782c0,0 -2.69302,-5.63292 1.16249,-10.76664c1.41904,-1.88949 3.84565,-4.31385 7.44797,-5.50405c15.78375,-5.21493 14.80547,9.16228 14.80547,9.16228c0,0 3.97095,4.30425 3.3419,5.91514c-1.28839,3.29933 -7.6627,3.70211 -7.6627,3.70211l0.83628,6.27212l-4.43629,-4.52891c0,0 -6.04137,0.87198 -8.08226,-0.02716c-2.86031,-1.26013 -7.41285,-4.22489 -7.41285,-4.22489z" fill="#dc94e7" stroke="#000000" stroke-width="0" stroke-linecap="round"/><path d="M229.23001,185.91782c0,0 -2.69302,-5.63292 1.16249,-10.76664c1.41904,-1.88949 3.84565,-4.31385 7.44797,-5.50405c15.78375,-5.21493 14.80547,9.16228 14.80547,9.16228c0,0 3.97095,4.30425 3.3419,5.91514c-1.28839,3.29933 -7.6627,3.70211 -7.6627,3.70211l0.83628,6.27212c0,0 -9.08739,7.27359 -17.77238,2.91128c-9.96441,-5.00493 -2.15904,-11.69225 -2.15904,-11.69225z" fill="none" stroke="#000000" stroke-width="1" stroke-linecap="round"/><path d="M244.23333,193.00831c0,0.36843 -0.24347,0.49338 -0.40863,0.53577c-0.71336,1.08236 -2.20313,1.73851 -3.73216,1.52943c-3.94843,-0.57486 -8.74636,-2.12117 -8.84151,-7.00325c0,0 0,-0.2193 0.13755,-0.38283c-0.22271,-0.39044 0.15134,-0.6897 0.15134,-0.6897l0.35228,-0.27746c1.72162,-1.63917 4.19053,-0.24457 6.18431,0.25159c1.86258,0.46588 4.31315,1.63172 5.48879,3.23426c0.662,0.90238 0.8125,1.78251 0.61596,2.5424c0.03221,0.06924 0.05205,0.15459 0.05205,0.25978zM242.14221,193.39751c-1.69096,-0.37577 -4.83408,-0.61283 -6.24775,-1.50879c-0.93214,-0.59078 -1.71652,-1.26796 -2.5828,-1.86213c0.1135,0.13862 0.22668,0.29163 0.33281,0.47136c1.74177,2.94955 3.29812,3.00705 6.60574,3.47172c0.78585,0.11833 1.63835,-0.09001 2.22033,-0.52505c-0.10944,-0.01569 -0.21889,-0.03139 -0.32835,-0.04711zM236.4837,190.94207c1.27233,0.83477 4.29183,1.01032 5.85845,1.35846c0.27176,0.03861 0.54351,0.07731 0.81524,0.11608c0.08406,-0.45072 -0.04448,-0.97537 -0.48613,-1.54416c-1.07945,-1.39021 -3.20154,-2.40313 -4.86518,-2.81883c-1.37867,-0.34639 -4.00629,-1.75336 -5.12542,-0.54488l-0.3745,0.30328c0.05991,0.13221 0.05991,0.25823 0.05991,0.25823c-0.00128,0.04367 -0.00163,0.08608 -0.00108,0.1273c1.55025,0.73894 2.68997,1.80713 4.11871,2.74451z" fill="#ff0000" stroke="none" stroke-width="0.5" stroke-linecap="butt"/><path d="M231.53992,186.99774l0.35228,-0.27746c1.72162,-1.63917 4.19053,-0.24457 6.18431,0.25159c1.86258,0.46588 4.31315,1.63172 5.48879,3.23426c0.07927,0.10805 0.1512,0.21577 0.21607,0.32302c-0.35795,0.10879 -0.73365,0.2254 -1.1125,0.34026c-1.08019,-1.38865 -3.20038,-2.40039 -4.86282,-2.81578c-1.37867,-0.34639 -4.00629,-1.75336 -5.12542,-0.54488l-0.3745,0.30328c0.05991,0.13221 0.05991,0.25823 0.05991,0.25823c-0.00064,0.022 -0.00105,0.04369 -0.00123,0.06506c-0.12229,-0.03815 -0.2449,-0.07476 -0.36781,-0.10985c-0.22521,-0.17528 -0.44994,-0.35039 -0.67443,-0.52369c-0.04303,-0.29575 0.21732,-0.50402 0.21732,-0.50402z" fill="#ab0d46" stroke="none" stroke-width="0.5" stroke-linecap="butt"/><path d="M248.37492,188.54814c0,0 -1.29481,-0.23135 -1.88091,-0.53662c-0.67549,-0.35183 -1.94209,-1.45454 -1.94209,-1.45454" fill="none" stroke="#000000" stroke-width="1" stroke-linecap="round"/></g><g><path d="M239.45457,206.07026l2.23009,4.93805c0,0 -4.89814,0.96441 -7.47833,1.20505c-2.54317,0.23719 -7.89335,0.22857 -7.89335,0.22857c0,0 -11.67459,5.12974 -17.8515,3.9866c-5.94968,-1.10108 -6.4953,-4.009 -5.86788,-5.63514c0.04884,-0.12657 1.10014,-1.13377 2.45825,-1.48041c2.20435,-0.56265 5.47735,-0.55675 8.52517,-0.95618c10.89804,-1.42823 25.87756,-2.28654 25.87756,-2.28654z" fill="#feecf7" stroke="#000000" stroke-width="0" stroke-linecap="round"/><path d="M239.45457,206.07026l2.23009,4.93805c0,0 -4.89814,0.96441 -7.47833,1.20505c-2.54317,0.23719 -7.89335,0.22857 -7.89335,0.22857c0,0 -8.81232,3.87207 -15.17535,4.13836c0.37635,-0.33171 0.70783,-0.71888 0.98226,-1.13323c0.88023,-1.34859 2.22403,-1.32448 3.47357,-2.26316c1.22049,-0.91685 1.56073,-1.80523 2.31829,-2.96096c0.59366,-0.90568 2.20453,-1.89236 3.81196,-2.77827c8.98703,-0.87341 17.73086,-1.37443 17.73086,-1.37443z" fill="#dc94e7" stroke="#000000" stroke-width="0" stroke-linecap="butt"/><path d="M239.45457,206.07026l2.23009,4.93805c0,0 -4.89814,0.96441 -7.47833,1.20505c-2.54317,0.23719 -7.89335,0.22857 -7.89335,0.22857c0,0 -11.67459,5.12974 -17.8515,3.9866c-5.94968,-1.10108 -6.4953,-4.009 -5.86788,-5.63514c0.0402,-0.10417 1.44794,-1.35468 2.42014,-1.62081c2.12647,-0.58208 5.18309,-0.37282 8.56328,-0.8158c10.89804,-1.42823 25.87756,-2.28654 25.87756,-2.28654z" fill="none" stroke="#000000" stroke-width="1" stroke-linecap="round"/><path d="M230.45458,199.61895c0,0 3.10882,1.76186 4.57126,2.85227c1.55805,1.16171 4.50839,3.91764 4.50839,3.91764c0,0 -3.76446,1.91266 -5.85377,2.24376c-2.63937,0.41825 -8.72145,0.06597 -8.72145,0.06597c0,0 -11.72116,6.07774 -18.55752,2.54867c-0.70667,-0.36481 -1.59429,-1.22776 -1.51385,-1.7523c0.25359,-1.65374 3.13737,-3.04922 6.22208,-4.52062c2.19777,-1.04833 4.92893,-2.48814 4.92893,-2.48814c0,0 -3.21863,-2.34208 -1.09939,-5.33439c0.41683,-0.58855 1.64161,-0.50843 3.19209,-0.67985c1.62164,-0.17929 3.56216,-0.59637 3.56216,-0.59637l6.45132,4.77876z" fill="#ff292e" stroke="#000000" stroke-width="0" stroke-linecap="round"/><path d="M235.02582,202.4712c1.55805,1.16171 4.50839,3.91764 4.50839,3.91764c0,0 -3.76446,1.91267 -5.85377,2.24376c-2.63937,0.41826 -8.72145,0.06597 -8.72145,0.06597c0,0 -8.31219,4.3101 -15.01955,3.56354c0.7367,-0.98845 1.46856,-2.13299 1.7916,-2.6706c0.76831,-0.47787 1.54469,-0.78361 2.30282,-1.13264c0.49412,-0.01148 0.95645,-0.15155 1.35483,-0.38801c1.23894,-0.28351 2.16322,-1.39252 2.16322,-2.71742c0,-1.02311 -0.55118,-1.91749 -1.37281,-2.4024c-0.08849,-0.15487 -0.18563,-0.28264 -0.2902,-0.38622c0.09689,-0.05079 0.14973,-0.07864 0.14973,-0.07864c0,0 -1.52792,-1.11182 -1.78515,-2.7821c3.28121,0.0617 7.36037,-0.22915 7.36037,-3.03206c0,-0.28233 -0.02403,-0.53649 -0.06918,-0.76524c0.09582,-0.01984 0.14882,-0.03122 0.14882,-0.03122l6.31571,4.67831c-0.25157,0.1195 -0.57155,0.23866 -0.96758,0.39217c-0.23176,0.05534 -0.47028,0.1105 -0.70976,0.1758c0,0 -0.80681,0.22004 -0.58677,1.02686c0.22004,0.80681 1.02686,0.58677 1.02686,0.58677c0.06088,-0.0166 0.12122,-0.03304 0.18101,-0.04934c0.21492,0.00835 0.38742,-0.06065 0.38742,-0.06065c0.12726,-0.05115 0.25032,-0.10171 0.36919,-0.15195c0.69645,-0.20645 1.30087,-0.43109 1.80102,-0.78311c0.12999,0.0851 0.3054,0.13683 0.54182,0.11533c0.83285,-0.07571 0.75714,-0.90856 0.75714,-0.90856c-0.02642,-0.2891 -0.05538,-0.56716 -0.09158,-0.83887c0.02861,-0.07776 0.05591,-0.15824 0.08188,-0.24153c0.85031,0.49051 3.06075,1.78559 4.22598,2.65441z" fill="#ac0e49" stroke="#000000" stroke-width="0" stroke-linecap="round"/><path d="M230.45458,199.61895c0,0 3.10882,1.76186 4.57126,2.85227c1.55805,1.16171 4.50839,3.91764 4.50839,3.91764c0,0 -3.76446,1.91266 -5.85377,2.24376c-2.63937,0.41825 -8.72145,0.06597 -8.72145,0.06597c0,0 -11.72116,6.07774 -18.55752,2.54867c-0.70667,-0.36481 -1.59429,-1.22776 -1.51385,-1.7523c0.25359,-1.65374 3.13737,-3.04922 6.22208,-4.52062c2.19777,-1.04833 4.92893,-2.48814 4.92893,-2.48814c0,0 -3.21863,-2.34208 -1.09939,-5.33439c0.41683,-0.58855 1.64161,-0.50843 3.19209,-0.67985c1.62164,-0.17929 3.56216,-0.59637 3.56216,-0.59637l6.45132,4.77876z" fill="none" stroke="#000000" stroke-width="1" stroke-linecap="round"/><path d="M226.95015,201.29149l0.95575,-0.55752" fill="none" stroke="#000000" stroke-width="1" stroke-linecap="round"/><path d="M230.8528,203.84017c0,0 1.01887,-0.41906 1.74361,-0.53275c0.60901,-0.09553 3.1148,-0.26372 3.1148,-0.26372" fill="none" stroke="#000000" stroke-width="0.5" stroke-linecap="round"/><path d="M215.55997,204.86655c-0.44827,-0.09541 -0.92133,-0.15147 -1.43284,-0.15027c0,0 -0.55752,0 -0.55752,-0.55752c0,-0.55752 0.55752,-0.55752 0.55752,-0.55752c1.9216,0.00398 4.45698,0.53054 5.98843,1.70371c0.3401,0.26053 1.41335,1.07701 0.9451,1.68232c-0.66859,0.8643 -3.2699,-0.97184 -3.9817,-1.44637c-0.34543,-0.09366 -0.69007,-0.19023 -1.0342,-0.28854l-0.47999,-0.38078c0,0 -0.00172,-0.00172 -0.00479,-0.00502z" fill="#fff1fd" stroke="none" stroke-width="0.5" stroke-linecap="butt"/><path d="M216.4068,203.16169c-0.35691,-0.4283 0.07139,-0.78523 0.07139,-0.78523c1.75902,-1.41781 6.99466,-0.93211 8.03108,1.30933c0.90197,1.95065 -0.90818,2.29874 -2.30106,1.62972c-1.77244,-0.49774 -3.43691,-1.08759 -5.17796,-1.63201l-0.075,-0.12278l-0.0365,0.03651l-0.2459,-0.2459c-0.08811,-0.02769 -0.1792,-0.08541 -0.26605,-0.18964z" fill="#fff1fd" stroke="none" stroke-width="0.5" stroke-linecap="butt"/><path d="M218.12549,201.12595c-0.00069,-0.00103 -0.00137,-0.00205 -0.00206,-0.00308c-0.30926,-0.46389 0.15463,-0.77314 0.15463,-0.77314c1.42629,-0.88531 6.77622,-1.17922 7.42071,0.93575c0.85711,2.81275 -2.46085,1.08094 -3.41666,0.52333c-1.02781,-0.24744 -1.9156,-0.27838 -2.97798,-0.27838h-0.63717c0,0 -0.45014,0.00001 -0.54148,-0.40448z" fill="#dc94e7" stroke="none" stroke-width="0.5" stroke-linecap="butt"/><path d="M220.11556,205.30494c0.3401,0.26053 1.41335,1.07701 0.9451,1.68232c-0.51816,0.66983 -2.19713,-0.28227 -3.25778,-0.96552c0.61631,-0.29985 1.16038,-0.68291 1.64656,-1.15405c0.23748,0.13433 0.46083,0.27998 0.66613,0.43724z" fill="#dc94e7" stroke="none" stroke-width="0.5" stroke-linecap="butt"/><path d="M224.50927,203.68581c0.90197,1.95065 -0.90818,2.29874 -2.30106,1.62972c-0.83847,-0.23545 -1.65277,-0.49153 -2.46244,-0.75366c0.66994,-0.73562 1.22469,-1.65798 1.70771,-2.78181c1.38816,0.30281 2.61016,0.94199 3.0558,1.90576z" fill="#dc94e7" stroke="none" stroke-width="0.5" stroke-linecap="butt"/><path d="M215.55997,204.86655c-0.44827,-0.09541 -0.92133,-0.15147 -1.43284,-0.15027c0,0 -0.55752,0 -0.55752,-0.55752c0,-0.55752 0.55752,-0.55752 0.55752,-0.55752c1.9216,0.00398 4.45698,0.53054 5.98843,1.70371c0.3401,0.26053 1.41335,1.07701 0.9451,1.68232c-0.66859,0.8643 -3.2699,-0.97184 -3.9817,-1.44637c-0.34543,-0.09366 -0.69007,-0.19023 -1.0342,-0.28854l-0.47999,-0.38078c0,0 -0.00172,-0.00172 -0.00479,-0.00502z" fill="none" stroke="#000000" stroke-width="1" stroke-linecap="butt"/><path d="M216.4068,203.16169c-0.35691,-0.4283 0.07139,-0.78523 0.07139,-0.78523c1.75902,-1.41781 6.99466,-0.93211 8.03108,1.30933c0.90197,1.95065 -0.90818,2.29874 -2.30106,1.62972c-1.77244,-0.49774 -3.43691,-1.08759 -5.17796,-1.63201l-0.075,-0.12278l-0.0365,0.03651l-0.2459,-0.2459c-0.08811,-0.02769 -0.1792,-0.08541 -0.26605,-0.18964z" fill="none" stroke="#000000" stroke-width="1" stroke-linecap="butt"/><path d="M218.12549,201.12595c-0.00069,-0.00103 -0.00137,-0.00205 -0.00206,-0.00308c-0.30926,-0.46389 0.15463,-0.77314 0.15463,-0.77314c1.42629,-0.88531 6.77622,-1.17922 7.42071,0.93575c0.85711,2.81275 -2.46085,1.08094 -3.41666,0.52333c-1.02781,-0.24744 -1.9156,-0.27838 -2.97798,-0.27838h-0.63717c0,0 -0.45014,0.00001 -0.54148,-0.40448z" fill="none" stroke="#000000" stroke-width="1" stroke-linecap="butt"/></g><g><path d="M246.65483,209.64192c7.94441,0 15.6222,-2.38989 23.5533,-2.40159c0.3789,-0.01777 0.63336,0.10883 0.80389,0.27848c0.18354,0.15611 0.33101,0.3997 0.34435,0.77983l0.08675,1.08596c-0.01103,4.69311 -2.81055,6.27771 -6.8464,7.92873c-3.46341,1.41684 -7.95033,3.22171 -11.08007,3.22171c-4.13009,0 -8.3331,0.47822 -12.24293,-1.10593c-2.50729,-1.01588 -5.8045,-3.67786 -4.59298,-6.89245c0.63231,-1.67774 1.61924,-1.61351 2.92673,-2.33261c0,0 0.71675,-0.38595 1.25518,0.11412c1.99852,-0.58822 3.69089,-0.67626 5.79218,-0.67626z" fill="#ffeef9" stroke="none" stroke-width="0.5" stroke-linecap="butt"/><path d="M270.20813,207.24032c0.3789,-0.01777 0.63336,0.10882 0.80389,0.27848c0.18354,0.15611 0.331,0.3997 0.34435,0.77983l0.08676,1.08598c-0.01103,4.6931 -2.81055,6.2777 -6.84642,7.92873c-3.46341,1.41684 -7.95033,3.22171 -11.08007,3.22171c-4.13009,0 -8.3331,0.47822 -12.24293,-1.10593c-2.22959,-0.90338 -5.0838,-3.10839 -4.83681,-5.84614c0.93192,0.79199 1.83944,1.52222 2.77161,2.18458c1.54318,1.29335 3.19176,2.19591 5.15314,2.73973c0.52442,0.18922 1.07098,0.36232 1.64427,0.51872c0,0 0.34247,0.0934 0.64202,-0.06463c0.94223,0.12144 1.95462,0.18022 3.05305,0.17883c5.80039,0.58745 14.9546,-2.20031 18.21022,-7.08373c0.4765,-1.56444 0.70156,-3.2451 0.32281,-4.7666c0.65648,-0.03113 1.31443,-0.04856 1.97411,-0.04954z" fill="#db93e6" stroke="none" stroke-width="0.5" stroke-linecap="butt"/><path d="M246.65483,209.64193c7.94441,0 15.62222,-2.3899 23.5533,-2.40159c0.3789,-0.01777 0.63336,0.10882 0.80389,0.27848c0.18354,0.15611 0.331,0.3997 0.34435,0.77983l0.08676,1.08598c-0.01103,4.6931 -2.81055,6.2777 -6.84642,7.92873c-3.46341,1.41684 -7.95033,3.22171 -11.08007,3.22171c-4.13009,0 -8.3331,0.47822 -12.24293,-1.10593c-2.50729,-1.01588 -5.8045,-3.67786 -4.59298,-6.89245c0.63231,-1.67774 1.61924,-1.6135 2.92673,-2.33259c0,0 0.71676,-0.38595 1.25518,0.11411c1.99852,-0.58822 3.69089,-0.67626 5.79218,-0.67626z" fill="none" stroke="#000000" stroke-width="1" stroke-linecap="butt"/><path d="M243.9101,201.83663c0,0 6.3901,-3.96572 9.19295,-4.65741c4.09319,-1.01012 5.9888,0.79764 5.9888,0.79764c0,0 4.39459,0.75358 6.26754,0.3767c3.67902,-0.74032 4.53982,-2.34947 4.53982,-2.34947c0,0 1.4028,1.64035 0.131,3.36975c-1.29216,1.75706 -3.81923,3.40628 -3.81923,3.40628c0,0 11.5832,10.8123 -9.82268,14.13838c-26.36163,4.09609 -14.45097,-7.79122 -14.45097,-7.79122c0,0 -0.78383,-0.86549 -1.01696,-1.41404c-0.25151,-0.59179 -0.44117,-2.01687 -0.44117,-2.01687c0,0 -3.60204,0.34806 -4.92069,-0.73335c-0.62871,-0.5156 0.25577,-2.68164 0.43922,-2.88802c0.57532,-0.64724 7.91238,-0.23839 7.91238,-0.23839z" fill="#ff292e" stroke="#000000" stroke-width="0" stroke-linecap="round"/><path d="M253.10305,197.1792c4.09319,-1.01012 5.9888,0.79764 5.9888,0.79764c0,0 3.18371,0.54594 5.28638,0.47606c-0.24955,0.05368 -0.58317,0.22204 -0.62979,0.73481c-0.07571,0.83285 0.75714,0.90856 0.75714,0.90856c2.19369,0.17554 4.23397,-0.94561 6.05395,-2.12998c-0.02462,0.43887 -0.17055,0.91966 -0.52933,1.40752c-1.29216,1.75706 -3.81923,3.40628 -3.81923,3.40628c0,0 0.60956,0.569 1.29061,1.48609c-0.56614,-0.47697 -1.10999,0.06688 -1.10999,0.06688c-0.07644,0.07814 -0.16098,0.15063 -0.25211,0.2185c-0.39683,0.06129 -0.75367,0.26594 -1.05122,0.55234c-1.31195,0.53898 -2.83302,0.91943 -2.51144,2.53921c0.20752,1.04529 3.34492,2.41526 4.27572,2.00803c1.26035,-0.55141 1.16696,-2.10439 1.05245,-3.18284c-0.04455,-0.41957 0.09405,-0.96988 -0.11479,-1.30523c0.04779,-0.13427 0.06969,-0.29734 0.01379,-0.47189c2.21809,3.25883 4.35987,9.77605 -11.41569,12.22727c-7.59402,1.17997 -12.01203,1.03356 -14.45365,0.22702c0.36146,-0.46116 0.73227,-0.91205 1.12577,-1.35466c1.32342,-1.32372 3.78504,-2.35589 4.67282,-3.94939c1.1202,-2.01067 -0.15893,-5.00594 -1.37513,-7.71178c3.6641,-0.94062 8.70312,-3.76042 5.69255,-6.609c0.38591,-0.14758 0.74125,-0.2647 1.05239,-0.34148z" fill="#ac0e49" stroke="#000000" stroke-width="0" stroke-linecap="butt"/><path d="M243.9101,201.83663c0,0 6.3901,-3.96572 9.19295,-4.65741c4.09319,-1.01012 5.9888,0.79764 5.9888,0.79764c0,0 4.39459,0.75358 6.26754,0.3767c3.67902,-0.74032 4.53982,-2.34947 4.53982,-2.34947c0,0 1.4028,1.64035 0.131,3.36975c-1.29216,1.75706 -3.81923,3.40628 -3.81923,3.40628c0,0 11.5832,10.8123 -9.82268,14.13838c-26.36163,4.09609 -14.45097,-7.79122 -14.45097,-7.79122c0,0 -0.78383,-0.86549 -1.01696,-1.41404c-0.25151,-0.59179 -0.44117,-2.01687 -0.44117,-2.01687c0,0 -3.60204,0.34806 -4.92069,-0.73335c-0.62871,-0.5156 0.25577,-2.68164 0.43922,-2.88802c0.57532,-0.64724 7.91238,-0.23839 7.91238,-0.23839z" fill="none" stroke="#000000" stroke-width="1" stroke-linecap="round"/><path d="M244.2532,209.12729h-2.23009" fill="none" stroke="#000000" stroke-width="1" stroke-linecap="round"/><path d="M240.73651,205.86793l1.54391,-0.42887" fill="none" stroke="#000000" stroke-width="1" stroke-linecap="round"/><path d="M265.86789,202.60857l-4.11709,-0.17155" fill="none" stroke="#000000" stroke-width="1" stroke-linecap="round"/><path d="M239.68559,205.82929c-0.21867,1.09339 -1.31206,0.87471 -1.31206,0.87471l-0.29571,-0.0674c-0.37169,-0.02859 -0.74336,-0.05719 -1.11504,-0.08578c0,0 -1.11175,-0.08552 -1.02624,-1.19728c0.08552,-1.11177 1.19728,-1.02624 1.19728,-1.02624c0.37169,0.02859 0.74336,0.05718 1.11504,0.08577l0.56203,0.10415c0,0 1.09339,0.21867 0.87471,1.31206z" fill="#000000" stroke="none" stroke-width="0.5" stroke-linecap="butt"/><path d="M268.6984,200.97888c0,0.72492 -0.47128,0.97855 -0.80107,1.06729c-0.24821,0.15795 -0.49641,0.31589 -0.7446,0.47384c0,0 -0.94072,0.59863 -1.53936,-0.34208c-0.59864,-0.94072 0.34208,-1.53935 0.34208,-1.53935c0.3145,-0.20013 0.629,-0.40028 0.94349,-0.60042l0.68441,-0.17433c0,0 1.11504,0 1.11504,1.11504z" fill="#000000" stroke="none" stroke-width="0.5" stroke-linecap="butt"/><path d="M263.80936,208.35533c0,1.11504 -1.11504,1.11504 -1.11504,1.11504h-0.17155c-4.74653,-0.01286 -8.88976,1.35673 -13.22373,3.09384c0,0 -1.0353,0.41412 -1.44941,-0.62118c-0.14743,-0.36858 -0.11116,-0.65842 -0.00329,-0.87889c-0.15165,0.07212 -1.00656,0.42769 -1.48709,-0.46473c-0.45643,-0.84766 0.21308,-1.35752 0.40452,-1.481c-0.0905,-0.08843 -0.17494,-0.20303 -0.24853,-0.3502c-0.49866,-0.99733 0.49866,-1.49599 0.49866,-1.49599l0.17155,-0.08577c4.30326,-2.14435 9.01365,-4.42724 13.96471,-4.05998c0,0 1.11175,0.08552 1.02624,1.19728c-0.0412,0.53566 -0.32064,0.79338 -0.59918,0.91663c0.22858,-0.01922 0.45807,-0.03766 0.6885,-0.05537l0.25706,-0.00329c0,0 1.11504,0 1.11504,1.11504c0,0.5892 -0.31133,0.86706 -0.60498,0.9981c0.3281,0.09464 0.77653,0.35334 0.77653,1.06045z" fill="#fff1fd" stroke="none" stroke-width="0.5" stroke-linecap="butt"/><path d="M246.65483,206.81142c0,0 -1.8321,-1.56576 -2.23807,-2.43784c-0.36058,-0.77459 -0.07779,-2.53697 -0.07779,-2.53697" fill="none" stroke="#000000" stroke-width="1" stroke-linecap="round"/><path d="M261.15016,203.12649c0,0 0.47612,0.03663 0.78123,0.37353c-0.07751,0.31265 -0.15501,0.62528 -0.23252,0.93793c-0.0322,0.31818 -0.03257,0.5594 -0.03575,0.7599c-0.02847,0.01572 -0.05719,0.02986 -0.0859,0.04256c0.02842,-0.00239 0.05686,-0.00477 0.0853,-0.00714c-0.00836,0.44968 -0.04251,0.69602 -0.52239,1.17837c-0.6959,0.69947 -1.22637,2.04304 -2.18718,2.45377c-2.47385,1.05753 -4.75482,-2.27265 -6.30827,-4.18342c2.72779,-1.06156 5.57446,-1.77292 8.50549,-1.5555z" fill="#dc94e7" stroke="#000000" stroke-width="0" stroke-linecap="butt"/><path d="M247.42679,209.12728c0,0 4.35217,-2.00359 6.78064,-2.72934c2.54123,-0.75945 8.1438,-1.73084 8.1438,-1.73084" fill="none" stroke="#000000" stroke-width="1" stroke-linecap="round"/><path d="M247.76987,211.18583c0,0 4.02549,-1.66891 6.44128,-2.28309c2.62707,-0.6679 8.74047,-1.57668 8.74047,-1.57668" fill="none" stroke="#000000" stroke-width="1" stroke-linecap="round"/><path d="M263.80936,208.35533c0,1.11504 -1.11504,1.11504 -1.11504,1.11504h-0.17154c-4.74653,-0.01286 -8.88976,1.35673 -13.22373,3.09384c0,0 -1.03529,0.41412 -1.4494,-0.62118c-0.14743,-0.36858 -0.11116,-0.65842 -0.0033,-0.87889c-0.15165,0.07212 -1.00656,0.42769 -1.48708,-0.46473c-0.45642,-0.84765 0.21307,-1.35752 0.4045,-1.481c-0.0905,-0.08843 -0.17494,-0.20302 -0.24852,-0.35019c-0.49866,-0.99732 0.49866,-1.49599 0.49866,-1.49599l0.17155,-0.08577c4.30326,-2.14435 9.01365,-4.42725 13.96471,-4.05998c0,0 1.11175,0.08552 1.02624,1.19728c-0.04121,0.53567 -0.32064,0.79338 -0.59918,0.91663c0.22857,-0.01922 0.45807,-0.03764 0.6885,-0.05537l0.25707,-0.00329c0,0 1.11504,0 1.11504,1.11504c0,0.5892 -0.31133,0.86706 -0.60498,0.9981c0.3281,0.09463 0.77653,0.35334 0.77653,1.06045z" fill="none" stroke="#000000" stroke-width="1" stroke-linecap="butt"/></g><g stroke="#000000" stroke-linecap="round"><path d="M249.25102,194.60124c0,0 4.0674,1.30546 7.99658,0.40524c1.60456,-0.36762 2.43704,-3.67073 2.43704,-3.67073c0,0 3.25064,2.17515 3.06355,3.22291c-0.44874,2.513 -3.85374,9.96235 -5.29364,9.99831c-1.92823,0.04815 -6.69027,-6.53097 -6.69027,-6.53097z" fill="#0066cd" stroke-width="0"/><path d="M262.7482,194.55867c-0.44873,2.51301 -3.85374,9.96235 -5.29364,9.99831c-1.92823,0.04815 -6.69027,-6.53097 -6.69027,-6.53097c0,0 4.36514,2.54168 5.74144,3.06129c1.80158,0.68018 3.63679,-8.63749 3.8286,-9.28874c0.93822,0.69714 2.54703,2.01427 2.41386,2.76011z" fill="#061382" stroke-width="0"/><path d="M249.25102,194.60123c0,0 4.0674,1.30545 7.99658,0.40524c1.60456,-0.36762 2.43704,-3.67073 2.43704,-3.67073c0,0 3.25064,2.17516 3.06355,3.22291c-0.44873,2.51301 -3.85374,9.96235 -5.29364,9.99831c-1.92823,0.04815 -6.69027,-6.53097 -6.69027,-6.53097" fill="none" stroke-width="1"/></g></g><g stroke="#000000"><g><path d="M256.95078,162.93898c0,0 2.12039,-2.28707 4.14003,-4.88219c1.75166,-2.25076 3.26726,-4.845 5.23511,-5.00122c2.75771,-0.21892 6.08047,5.06295 5.98838,8.80069c-0.04941,2.0047 -2.95217,3.62992 -3.25861,3.57905c-1.08722,-0.18049 -2.87209,-4.70908 -2.87209,-4.70908l-0.57861,1.51898l-1.15306,-0.64386l-2.08542,4.71364z" fill="#061483" stroke-width="0" stroke-linecap="round"/><path d="M256.95078,162.93897c0,0 2.12039,-2.28706 4.14003,-4.88219c1.75166,-2.25076 3.26726,-4.845 5.23511,-5.00122c1.48095,-0.11756 3.12484,1.35126 4.31533,3.31538c-1.01394,-0.17038 -2.62458,-0.55115 -3.30332,-0.28671c-0.97682,0.38057 -0.23937,1.93251 -1.17424,2.1427c-0.19565,-0.0548 -1.42543,-1.01842 -1.63884,-0.98036c-0.0997,0.01777 -1.47772,1.67035 -3.07629,2.82688c-1.83752,1.32942 -3.92451,2.23856 -3.99695,3.17772z" fill="#0066cd" stroke-width="0" stroke-linecap="butt"/><path d="M256.95078,162.93897c0,0 2.12039,-2.28704 4.14003,-4.88218c1.75164,-2.25077 3.26725,-4.84501 5.2351,-5.00123c2.7577,-0.2189 6.08047,5.06297 5.98838,8.8007c-0.0494,2.0047 -2.95215,3.62992 -3.2586,3.57904c-1.08721,-0.1805 -2.87209,-4.70908 -2.87209,-4.70908l-0.57861,1.51898l-1.15306,-0.64385l-2.08541,4.71363z" fill="none" stroke-width="1" stroke-linecap="round"/></g><path d="M262.3665,166.31499l-0.22104,-0.13779c0.1034,-0.02038 0.20644,-0.04078 0.30896,-0.06092z" fill="#0066cd" stroke-width="0" stroke-linecap="butt"/><g stroke-linecap="round"><path d="M257.74882,172.70723c0,0 -0.95707,1.90826 -3.39014,3.94214c-2.13997,1.78886 -5.51937,3.60681 -9.04227,5.2514c-4.53595,2.11751 -9.22057,3.39832 -13.71008,4.05177c-4.69657,0.68359 -9.12228,0.65255 -10.27663,-1.12809c-1.12758,-1.73931 2.18969,-3.4649 2.18969,-3.4649c0,0 -14.74037,-22.07205 9.21069,-32.50676c17.31539,-7.54377 21.52182,15.88886 21.52182,15.88886c0,0 0.3631,-1.36133 1.37116,-2.06195c1.14085,-0.79291 3.10778,-0.73959 6.30936,3.09094c2.66141,3.18424 1.5254,5.43226 -0.08274,6.36571c-1.74649,1.01376 -4.10085,0.57087 -4.10085,0.57087z" fill="#f89688" stroke-width="0"/><path d="M232.73006,148.85279c17.31539,-7.54376 21.52182,15.88886 21.52182,15.88886c0,0 0.3631,-1.36133 1.37117,-2.06195c1.083,-0.75272 2.91044,-0.74281 5.83184,2.53701c-0.20082,1.80379 -0.32765,3.27279 -0.81194,3.48213c-3.60025,1.55623 -9.12559,0.46399 -12.91705,1.17079c-8.04453,1.49963 -15.40767,3.10473 -23.55146,4.57732c-0.9964,0.18017 -2.19472,0.54534 -3.49961,1.05397c-2.65278,-7.28356 -4.09562,-19.61169 12.05526,-26.64812z" fill="#ffe2bf" stroke-width="0"/><path d="M254.35868,176.64937c-2.13997,1.78886 -5.51937,3.60681 -9.04227,5.2514c-4.53595,2.11751 -9.22057,3.39832 -13.71008,4.05177c-4.69657,0.68359 -9.12228,0.65255 -10.27663,-1.12809c-1.12758,-1.73931 2.18969,-3.4649 2.18969,-3.4649c0,0 -14.74037,-22.07205 9.21069,-32.50676c17.31539,-7.54377 21.52182,15.88886 21.52182,15.88886c0,0 0.3631,-1.36133 1.37116,-2.06195c1.14085,-0.79291 3.10778,-0.73959 6.30936,3.09094c2.66141,3.18424 1.5254,5.43226 -0.08274,6.36571c-1.74649,1.01376 -4.10085,0.57087 -4.10085,0.57087c0,0 -0.95708,1.90826 -3.39015,3.94215z" fill="none" stroke-width="1"/></g><g stroke-linecap="round"><path d="M227.97743,173.01368l-18.64477,-11.39944c0,0 16.50502,-24.81012 37.69772,-23.08899c11.77238,0.95609 16.30586,16.29047 16.30586,16.29047c0,0 -1.89853,3.50613 -4.18371,5.80381c-1.18068,1.18713 -2.87628,1.29481 -3.60006,2.02256c-1.47301,1.48107 -3.74138,3.76184 -3.74138,3.76184c0,0 -7.87924,2.81548 -11.9597,3.94712c-3.85078,1.06792 -11.87396,2.66263 -11.87396,2.66263z" fill="#ff292e" stroke-width="0"/><path d="M249.71691,139.0152c9.78188,2.82037 13.61937,15.80052 13.61937,15.80052c0,0 -2.29478,3.98994 -4.55974,6.26729c-1.24188,1.24867 -2.54077,0.87207 -3.2937,1.6291c-1.45377,1.46173 -3.67172,3.69181 -3.67172,3.69181c0,0 -0.58236,0.2081 -1.51243,0.53387c-0.12011,0.04208 -3.02966,-2.09348 -6.03283,-4.42361c-2.71881,-2.10949 -5.56381,-4.36962 -5.57875,-5.47952c-0.02532,-1.88074 4.1842,-9.34346 7.45694,-14.04739c1.52278,-2.18872 3.5467,-3.97963 3.57287,-3.97208z" fill="#ac0e49" stroke-width="0.5"/><path d="M227.97743,173.01368l-18.64477,-11.39944c0,0 16.50502,-24.81012 37.69772,-23.08899c11.77238,0.95609 16.30586,16.29047 16.30586,16.29047c0,0 -2.30304,3.82596 -4.64589,6.18162c-1.2298,1.23651 -2.63601,1.14012 -3.36847,1.87661c-1.40837,1.41609 -3.51079,3.53 -3.51079,3.53c0,0 -7.87924,2.81548 -11.9597,3.94712c-3.85078,1.06792 -11.87396,2.66263 -11.87396,2.66263z" fill="none" stroke-width="1"/></g><g stroke-linecap="round"><path d="M254.59157,165.05863l3.95559,2.59813l1.54907,11.33327l-6.70215,-6.35574l-7.60668,5.50944l-0.15258,-4.0314l-6.62666,5.71223l2.40879,-4.48815c0,0 -3.32284,1.41846 -5.42312,1.88208c-2.32634,0.51353 -7.92616,1.06472 -7.92616,1.06472l1.74735,1.85928c0,0 -8.3678,1.08071 -8.69301,3.01788c-0.26674,1.58891 0.9424,3.27233 0.9424,3.27233l-7.51106,1.81131l6.53582,-8.33884c0,0 -3.58983,0.71218 -5.6076,-0.09873c-2.67483,-1.07499 -9.03326,-5.78523 -9.03326,-5.78523l6.37078,-1.32482l5.32326,-6.14051l11.79355,-0.02656l-7.06391,-9.97228c0,0 8.83704,5.53342 17.70048,7.98608c10.44298,2.88974 14.01915,0.51551 14.01915,0.51551z" fill="#4fa6ec" stroke-width="0"/><path d="M248.1293,166.39976l-0.03614,0.85591l3.74643,3.01299l-6.05221,7.87506l2.34192,-11.74396c0,0 -4.45325,0.787 -7.30505,0.40806c-1.97415,-0.26232 -8.16324,-2.46339 -8.16324,-2.46339l4.07266,4.84253c0,0 -3.17846,-0.23602 -4.7885,-0.28083c-1.47762,-0.0411 -4.50864,0.02216 -4.50864,0.02216c0,0 0.40369,2.39977 -1.4927,3.44892c-1.38569,0.76662 -5.97384,1.78121 -5.97384,1.78121l6.19295,4.55882c0,0 -1.83347,0.84922 -2.63304,1.68601c-1.5064,1.5765 -5.71967,7.05536 -5.71967,7.05536l-3.25689,0.78542l6.53582,-8.33884c0,0 -3.58983,0.71218 -5.6076,-0.09873c-2.67483,-1.07499 -9.03326,-5.78523 -9.03326,-5.78523l6.37078,-1.32482l5.32326,-6.14051l11.79355,-0.02656l-7.06391,-9.97228c0,0 8.83704,5.53342 17.70048,7.98608c10.44298,2.88974 7.55688,1.85664 7.55688,1.85664z" fill="#66ffff" stroke-width="0"/><path d="M245.98441,173.95562c0,0 0.69894,-2.54231 1.16701,-3.85432c0.45452,-1.27403 1.60192,-3.90719 1.60192,-3.90719" fill="none" stroke-width="1"/><path d="M258.54716,167.65676l1.54907,11.33327l-6.70215,-6.35574l-7.60668,5.50944l-0.15258,-4.0314l-6.62666,5.71223l2.40879,-4.48815c0,0 -3.32284,1.41846 -5.42312,1.88208c-2.32634,0.51353 -7.92616,1.06472 -7.92616,1.06472l1.74735,1.85928c0,0 -8.3678,1.08071 -8.69301,3.01788c-0.26674,1.58891 0.9424,3.27233 0.9424,3.27233l-7.51106,1.81131l6.53582,-8.33884c0,0 -3.58983,0.71218 -5.6076,-0.09873c-2.67483,-1.07499 -9.03326,-5.78523 -9.03326,-5.78523l6.37078,-1.32482l5.32326,-6.14051l11.79355,-0.02656l-7.06391,-9.97228c0,0 8.83704,5.53342 17.70048,7.98608c10.44298,2.88974 14.01915,0.51551 14.01915,0.51551z" fill="none" stroke-width="1"/></g></g><g stroke="#000000"><path d="M245.62707,189.75017c0,0 -2.69666,3.08517 -5.26066,0.23329c-1.1474,-1.27623 2.12913,-6.31437 2.22772,-6.85664c0.24058,-1.32318 4.37097,-0.73593 4.37097,-0.73593c0,0 2.44137,-1.97052 3.53098,-1.87887c3.52656,0.2966 4.16282,4.10896 4.16282,4.10896c0,0 4.32917,0.00322 5.15211,0.97319c1.70819,2.01337 3.9677,7.77249 3.94486,9.06336c-0.01444,0.81577 -2.79408,4.06981 -5.31363,4.52753c-2.0929,0.38021 -4.00634,-1.96407 -4.00634,-1.96407c0,0 -1.70251,2.03072 -2.99954,2.20239c-1.22645,0.16232 -4.24825,-1.42185 -4.24825,-1.42185c0,0 -0.7256,1.12264 -1.69273,1.62531c-1.45081,0.75407 -3.64021,0.75424 -3.28902,-3.40087c0.16082,-1.90271 4.98174,-3.79966 4.98174,-3.79966z" fill="#fde0be" stroke-width="0" stroke-linecap="round"/><path d="M245.62707,189.75017c0,0 -2.69666,3.08517 -5.26066,0.23329c-0.55938,-0.62218 -0.06732,-2.13847 0.59538,-3.59203c0.90375,1.45788 2.69486,1.79354 3.87561,1.21306c0.75971,-0.3735 1.01544,-1.27706 1.45442,-2.0041c0.00666,0.00009 0.01334,0.00014 0.02002,0.00014c0.21151,0 0.41202,-0.04711 0.5916,-0.13142c0.30209,-0.01227 1.14656,-0.51669 1.17348,-0.6073c0.86938,-0.52163 1.61631,0.75202 2.55005,0.35697c0.97596,-0.41292 2.31649,-2.74615 1.93244,-3.99218c1.57484,1.07898 2.02197,3.00434 2.0898,3.34285c-1.59322,1.56042 -2.69008,6.64202 -1.74359,8.06175c0.56935,0.85402 2.61462,-0.52869 2.85998,-0.95155c0.97268,-1.67634 1.84344,-3.62669 1.55583,-5.39241c0.15641,-0.22528 0.24808,-0.49892 0.24808,-0.79394c0,-0.25373 -0.06779,-0.49163 -0.18627,-0.69656c1.04287,0.13519 2.06886,0.37434 2.42781,0.79741c1.70819,2.01337 3.9677,7.77249 3.94486,9.06336c-0.01444,0.81577 -2.79408,4.06981 -5.31363,4.52753c-0.64596,0.11735 -1.27483,-0.02484 -1.83562,-0.27753c0.40321,-0.38738 0.76291,-0.83565 1.00701,-1.28305c0.75724,-1.38797 1.64818,-2.15192 0.20817,-2.01318c-0.20629,-0.12065 -4.56239,-0.27557 -4.56239,-0.27557c0,0 0.15011,0.7098 0.15011,1.47957c0,0.40595 0.17355,0.77137 0.4505,1.0261c-0.6107,0.6124 -1.5991,1.47283 -2.42364,1.58196c-1.22645,0.16232 -4.24825,-1.42185 -4.24825,-1.42185c0,0 -0.7256,1.12264 -1.69273,1.62531c-0.258,0.1341 -0.53937,0.24436 -0.82565,0.31164c0.06176,-1.6348 -0.06469,-3.44774 0.54249,-4.05119c1.23919,-1.23158 4.75462,1.78019 5.40697,-0.34784c0.63095,-2.05816 -0.94686,-4.9163 -2.64718,-4.48756c-0.03835,-0.00317 -0.07714,-0.00478 -0.1163,-0.00478c-0.46674,0 -0.8799,0.22942 -1.13286,0.58164z" fill="#f89688" stroke-width="0" stroke-linecap="butt"/><path d="M242.20637,196.22593c0.0184,-0.21771 0.09782,-0.43536 0.22405,-0.65009c-0.10883,0.36308 -0.19116,0.75199 -0.25543,1.16097c0.00598,-0.16286 0.01636,-0.33307 0.03139,-0.51089z" fill="#f89688" stroke-width="0" stroke-linecap="butt"/><path d="M246.49924,192.76253c-0.03025,0 -0.06029,0.00017 -0.09013,0.0005c0.02789,-0.01278 0.05521,-0.02522 0.08196,-0.03734c0.00256,0.01234 0.00529,0.02462 0.00817,0.03684z" fill="#f89688" stroke-width="0" stroke-linecap="butt"/><path d="M245.62707,189.75017c0,0 -2.69666,3.08517 -5.26066,0.23329c-1.1474,-1.27623 2.12913,-6.31437 2.22772,-6.85664c0.24058,-1.32318 4.37097,-0.73593 4.37097,-0.73593c0,0 2.44137,-1.97052 3.53098,-1.87887c3.52656,0.2966 4.16282,4.10896 4.16282,4.10896c0,0 4.32917,0.00322 5.15211,0.97319c1.70819,2.01337 3.9677,7.77249 3.94486,9.06336c-0.01444,0.81577 -2.79408,4.06981 -5.31363,4.52753c-2.0929,0.38021 -4.00634,-1.96407 -4.00634,-1.96407c0,0 -1.70251,2.03072 -2.99954,2.20239c-1.22645,0.16232 -4.24825,-1.42185 -4.24825,-1.42185c0,0 -0.7256,1.12264 -1.69273,1.62531c-1.45081,0.75407 -3.64021,0.75424 -3.28902,-3.40087c0.16082,-1.90271 4.98174,-3.79966 4.98174,-3.79966z" fill="none" stroke-width="1" stroke-linecap="round"/><path d="M245.73857,189.75017l1.67257,-2.4531" fill="none" stroke-width="1" stroke-linecap="round"/><path d="M252.54035,187.63158c0,0 -1.4555,0.80399 -2.46667,0.64242c-1.69907,-0.27147 -3.36354,-1.64253 -3.6665,-2.26008c-0.48312,-0.98482 1.33848,-3.40004 1.33848,-3.40004" fill="none" stroke-width="1" stroke-linecap="round"/><path d="M258.45007,188.63512c0,0 -0.46643,4.0066 -1.43847,5.11727c-0.94516,1.07994 -4.43279,0.14674 -4.68999,-0.38192c-0.74114,-1.52345 0.77625,-7.74597 0.77625,-7.74597l1.22655,-0.89204" fill="none" stroke-width="1" stroke-linecap="round"/><path d="M258.45008,190.86521l1.00354,-1.33805" fill="none" stroke-width="0.5" stroke-linecap="round"/></g></g></g></svg>