<svg version="1.1" xmlns="http://www.w3.org/2000/svg" xmlns:xlink="http://www.w3.org/1999/xlink" width="173" height="208" viewBox="0,0,173,208"><defs><radialGradient cx="260.31786" cy="131.30032" r="41.34248" gradientUnits="userSpaceOnUse" id="color-1"><stop offset="0" stop-color="#8f8256"/><stop offset="1" stop-color="#8d681f"/></radialGradient><radialGradient cx="262.07785" cy="137.82484" r="17.60883" gradientUnits="userSpaceOnUse" id="color-2"><stop offset="0" stop-color="#0c0b0b"/><stop offset="1" stop-color="#533907"/></radialGradient><radialGradient cx="286.35074" cy="124.91202" r="14.71921" gradientUnits="userSpaceOnUse" id="color-3"><stop offset="0" stop-color="#36270c"/><stop offset="1" stop-color="#0c0b0b"/></radialGradient><radialGradient cx="235.00653" cy="139.82587" r="14.71921" gradientUnits="userSpaceOnUse" id="color-4"><stop offset="0" stop-color="#36270c"/><stop offset="1" stop-color="#0c0b0b"/></radialGradient></defs><g transform="translate(-153.5,-76)"><g data-paper-data="{&quot;isPaintingLayer&quot;:true}" fill-rule="nonzero" stroke-linejoin="miter" stroke-miterlimit="10" stroke-dasharray="" stroke-dashoffset="0" style="mix-blend-mode: normal"><path d="M153.5,284v-208h173v208z" fill="none" stroke="none" stroke-width="0" stroke-linecap="butt"/><path d="M236.4755,223.75059c0,0 -0.29012,-5.1612 1.32253,-5.20757c4.75865,-0.13687 9.29853,-2.09268 13.79889,-0.49383c1.8688,0.66395 2.77684,5.18664 2.77684,5.18664l5.90058,35.13161c0,0 0.65519,3.61941 0.96047,5.71265c0.32641,2.23806 -0.63526,5.66169 -2.82439,5.85232c-8.03767,0.69992 -12.91955,2.66152 -18.03401,1.77941c-1.86327,-0.32137 -3.82024,-0.78841 -4.63775,-2.54297c-1.06789,-2.29188 -0.54771,-7.0884 -0.54771,-7.0884z" fill="#000000" stroke="#000000" stroke-width="3" stroke-linecap="round"/><path d="M232.72796,262.3569c0,0 0.24144,4.81992 -0.95736,7.04207c-0.91767,1.70116 -2.89823,2.0471 -4.7768,2.25334c-5.15644,0.56612 -9.91598,-1.69202 -17.89878,-2.88482c-2.17415,-0.32486 -2.93579,-3.80156 -2.48035,-6.01552c0.426,-2.07074 1.28968,-5.64342 1.28968,-5.64342l7.92513,-34.70627c0,0 1.16845,-4.45883 3.07238,-5.00671c4.58497,-1.31935 9.00346,0.91205 13.7457,1.3412c1.60708,0.14542 1.01851,5.27961 1.01851,5.27961z" fill="#000000" stroke="#000000" stroke-width="3" stroke-linecap="round"/><g data-paper-data="{&quot;index&quot;:null}"><g data-paper-data="{&quot;index&quot;:null}"><path d="M224.66441,169.99185c-1.34055,-3.2625 7.12105,-18.99451 9.38276,-19.64072c2.45812,-0.70234 14.10441,9.86227 14.10441,9.86227l-1.34765,3.66077l8.51253,-24.39609c0,0 2.55258,-8.58816 4.59673,-7.42907c0,0 11.30033,0.19034 26.35053,13.18041c-0.96156,5.62301 -7.36458,16.96155 -7.36458,16.96155c0,0 -13.15408,25.89859 -17.92989,26.22751c-4.77575,0.32895 -35.04686,-15.36516 -36.30482,-18.42666z" fill="#68330c" stroke="none" stroke-width="3" stroke-linecap="round"/><path d="M255.26976,139.13537c0,0 3.47614,-8.0803 5.47212,-6.90891c0,0 11.11322,0.36 25.75229,13.3679c-0.54819,2.97258 -2.67164,7.5534 -4.51354,11.14613c-0.44719,-0.25899 -0.85749,-0.48404 -1.19653,-0.66679c-7.5149,-4.05041 -18.29758,-8.77752 -26.31871,-13.49812c-0.07949,-0.04679 0.8044,-3.44022 0.8044,-3.44022z" fill="#ffddb7" stroke="#000000" stroke-width="2" stroke-linecap="butt"/><path d="M255.32923,141.52243l26.79341,14.58689l-1.72858,3.38522l-26.62105,-14.1633z" data-paper-data="{&quot;index&quot;:null}" fill="#ffffff" stroke="#000000" stroke-width="2" stroke-linecap="round"/><path d="M224.8799,169.87801c-1.34054,-3.26249 7.12105,-18.99448 9.38275,-19.64069c2.4581,-0.70233 14.1044,9.86226 14.1044,9.86226l-1.34764,3.66078l8.51252,-24.3961c0,0 2.55257,-8.58817 4.59671,-7.42908c0,0 11.30032,0.19034 26.35052,13.18041c-0.96157,5.62302 -7.36456,16.96157 -7.36456,16.96157c0,0 -13.15408,25.89857 -17.92989,26.22749c-4.77574,0.32895 -35.04686,-15.36516 -36.30482,-18.42666z" data-paper-data="{&quot;origPos&quot;:null}" fill="none" stroke="#000000" stroke-width="2.5" stroke-linecap="round"/></g><g stroke-linecap="butt"><path d="M271.62492,94.06404c0,0 2.12541,6.76702 -1.30925,7.75615c-1.05959,0.30514 -5.84439,3.45417 -8.72716,2.32475c-1.42119,-0.55678 1.85217,-5.07911 -1.60121,-8.56762c-0.73188,-0.73934 -16.27479,2.80739 -15.51255,5.96824c2.74459,11.38129 -2.46898,7.55552 -3.06457,7.94097c-7.85782,5.08542 -7.55065,-4.54656 -7.55065,-4.54656l-1.94441,-8.12134l37.7654,-10.87589z" fill="#8c651a" stroke="#000000" stroke-width="2.5"/><g stroke="#000000"><path d="M225.49623,164.34593l-12.09411,-50.51381l79.97381,-23.03125l12.09409,50.51378z" fill="#121010" stroke-width="3"/><path d="M226.378,168.07285l-12.0941,-50.5138l79.97382,-23.03126l12.0941,50.51382z" fill="url(#color-1)" stroke-width="2.5"/></g><path d="M255.99796,159.54273l-8.94434,-37.35814l21.10418,-6.07767l8.94434,37.35815z" fill="url(#color-2)" stroke="#000000" stroke-width="2.5"/><path d="M272.19874,129.07619c-1.83141,-8.69202 3.02006,-17.60249 10.83597,-19.90228c7.81597,-2.29982 15.6367,2.88208 17.4681,11.57399c1.83141,8.692 -3.02009,17.60248 -10.83599,19.90226c-7.81598,2.29978 -15.63671,-2.88209 -17.46811,-11.57403z" fill="url(#color-3)" stroke="none" stroke-width="0"/><path d="M220.85449,143.99005c-1.83141,-8.69198 3.02009,-17.60248 10.83599,-19.90226c7.81592,-2.2998 15.6367,2.88209 17.4681,11.57401c1.8314,8.69198 -3.0201,17.60247 -10.83599,19.90226c-7.81594,2.29977 -15.63668,-2.88211 -17.46808,-11.57405z" fill="url(#color-4)" stroke="none" stroke-width="0"/></g></g><g data-paper-data="{&quot;index&quot;:null}" stroke="#000000"><path d="M216.47849,175.67131c0,0 1.71446,-14.89214 3.79459,-15.47143c3.32503,-0.92601 8.95339,-0.81629 14.91576,-0.72046c5.22773,0.08402 10.71224,0.05782 15.12617,0.65544c1.71197,0.23179 2.90399,14.99919 2.90399,14.99919l1.40277,28.94199c0,0 0.54864,17.53886 -1.0594,17.53886c-14.31449,0 -31.09203,0.90156 -37.47232,0.01236c-2.12674,-0.29639 -1.32842,-16.95875 -1.32842,-16.95875z" fill="#68330c" stroke-width="2.5" stroke-linecap="round"/><g><g><path d="M228.88776,159.4892h17.90538v9.18711c-0.27329,1.28736 -0.48372,2.34513 -0.60535,2.88846c-1.19501,5.33856 -8.10384,27.19414 -8.71927,30.82512c-2.96085,-11.08504 -5.80666,-22.33894 -8.58076,-33.62842z" fill="#ffffff" stroke-width="2" stroke-linecap="butt"/><path d="M233.68169,160.41443h8.02299v2.32776c-0.12246,0.31302 -3.73106,7.22056 -4.00683,8.10343c-1.3267,-2.69531 -2.77314,-5.4023 -4.01615,-8.14732z" fill="#ffddb7" stroke-width="1.5" stroke-linecap="butt"/><path d="M237.85053,170.57327l-0.33212,27.68347" fill="none" stroke-width="1.5" stroke-linecap="round"/><path d="M237.59129,201.84418v19.16547" fill="none" stroke-width="2" stroke-linecap="round"/><path d="M238.2199,173.80822c0,-0.29199 0.21584,-0.52871 0.48207,-0.52871c0.26623,0 0.48206,0.23672 0.48206,0.52871c0,0.29199 -0.21583,0.5287 -0.48206,0.5287c-0.26623,0 -0.48207,-0.23671 -0.48207,-0.5287z" fill="#000000" stroke-width="0.5" stroke-linecap="butt"/><path d="M238.11277,180.15266c0,-0.29199 0.21583,-0.5287 0.48206,-0.5287c0.26623,0 0.48207,0.23671 0.48207,0.5287c0,0.29199 -0.21584,0.52871 -0.48207,0.52871c-0.26623,0 -0.48206,-0.23672 -0.48206,-0.52871z" fill="#000000" stroke-width="0.5" stroke-linecap="butt"/><path d="M238.09427,186.49711c0,-0.29199 0.21584,-0.52871 0.48207,-0.52871c0.26623,0 0.48206,0.23672 0.48206,0.52871c0,0.29199 -0.21583,0.52871 -0.48206,0.52871c-0.26623,0 -0.48207,-0.23672 -0.48207,-0.52871z" fill="#000000" stroke-width="0.5" stroke-linecap="butt"/><path d="M238.55522,218.21928c0,-0.29199 0.21583,-0.5287 0.48206,-0.5287c0.26623,0 0.48207,0.23671 0.48207,0.5287c0,0.29199 -0.21584,0.52871 -0.48207,0.52871c-0.26623,0 -0.48206,-0.23672 -0.48206,-0.52871z" fill="#000000" stroke-width="0.5" stroke-linecap="butt"/><path d="M238.32246,211.75734c0,-0.29199 0.21584,-0.5287 0.48207,-0.5287c0.26623,0 0.48207,0.23671 0.48207,0.5287c0,0.29199 -0.21584,0.52871 -0.48207,0.52871c-0.26623,0 -0.48207,-0.23672 -0.48207,-0.52871z" fill="#000000" stroke-width="0.5" stroke-linecap="butt"/><path d="M237.27536,204.04997l-16.64533,-28.24449l5.025,-4.82222l-2.82656,-5.85557l5.02501,-2.75555" fill="none" stroke-width="2" stroke-linecap="round"/><path d="M247.16877,162.18158l4.67651,2.77829l-2.24321,5.84273l3.72738,4.84494l-15.64088,28.68989" fill="none" stroke-width="2" stroke-linecap="round"/><g stroke-width="1.5" stroke-linecap="round"><path d="M245.21448,208.66378l0.08209,-3.42095l2.70877,1.08031l1.97002,-3.33092l0.16417,5.76161z" fill="#ffffff"/><path d="M243.79038,209.01237h7.96217" fill="none"/></g></g><path d="M236.8972,170.19329l-6.79517,3.14698" fill="none" stroke-width="1.5" stroke-linecap="round"/><path d="M237.95359,170.45945l6.90938,2.58334" fill="none" stroke-width="1.5" stroke-linecap="round"/></g></g><path d="M222.60878,160.83609c-4.31984,-0.46033 -5.88158,-3.21034 -5.88158,-3.21034c0,0 -1.94938,-2.35643 -2.19275,-3.95752c-0.73014,-4.8033 -2.22306,-18.61197 -2.49749,-30.63851c-0.00916,-0.40138 -0.00097,-0.62733 0.01184,-1.02862c0.03839,-1.20386 0.37065,-5.89859 0.37065,-5.89859c0,0 2.90379,-2.11119 4.52589,-2.80805c4.86634,-2.09063 17.76874,-2.0427 31.23576,-3.20308c1.2206,-0.10518 3.4817,1.41391 3.4817,1.41391c0,0 1.81408,3.12128 1.97427,5.2113c1.03576,13.51233 2.13613,28.46699 2.18304,31.9103c0.00813,0.59614 0.02386,3.18519 -1.4147,5.55497c-0.3791,0.62451 -1.7733,3.1567 -5.06235,4.04051c-8.26029,2.21964 -23.35372,2.97396 -26.73429,2.6137z" fill="#ffddb7" stroke="#000000" stroke-width="2.5" stroke-linecap="round"/><path d="M254.08833,132.76704c-0.17408,-0.81564 -0.34633,-1.63103 -0.52262,-2.44522c-0.70647,0.54764 -1.3781,1.03013 -1.50705,1.12948c-1.41617,1.09139 -3.67884,2.88512 -5.32635,3.41024c-0.80561,0.25678 -1.74926,0.75923 -2.49756,0.3463c-0.92538,-0.51063 -1.04228,-3.02978 -1.14734,-3.98689c-0.39499,-3.59856 -0.78238,-7.19817 -1.17275,-10.79735c-1.33326,1.99886 -3.58706,3.88382 -4.88476,5.68089c-2.91919,4.04246 -6.09764,7.75184 -9.17091,11.61492c-1.05415,1.32509 -1.913,2.56546 -3.10562,3.75313c-0.45722,0.45535 -0.71872,1.35002 -1.33556,1.40784c-0.86141,0.08076 -1.60283,-0.70484 -2.40425,-1.05727c-0.29881,-1.63118 -0.65892,-3.70429 -0.76761,-5.61173c-0.61532,1.20852 -1.4794,2.41504 -1.94516,3.45498c-1.62365,3.62525 -4.09291,13.7051 -4.09291,13.7051c-3.64006,0.39086 -7.38428,-2.78585 -9.80957,-5.41777c-1.95051,0.21652 -3.89242,0.27663 -5.85213,0.53161c-0.46723,0.06078 -3.07108,0.44516 -3.38469,0.26834c-1.9323,-1.08944 -1.53825,-2.44955 -1.23264,-4.23875c0.24453,-1.43157 0.81726,-2.69772 1.59326,-3.81906c-1.12899,-0.56167 -2.43082,-1.25961 -2.86198,-2.17123c-0.77958,-1.64829 -0.24291,-2.42146 0.31485,-3.82491c0.62419,-1.57063 1.49316,-2.96008 2.5269,-4.19464c-0.71499,-0.36054 -1.48383,-0.77754 -1.5869,-0.96268c-1.08798,-1.95448 -0.28712,-2.86588 0.40993,-4.48173c1.20242,-2.78739 3.66582,-4.63863 6.02114,-6.07109c-0.13132,-2.68054 0.84752,-4.49432 1.77369,-7.01005c1.21972,-3.31313 3.58925,-8.22286 7.61478,-12.25919c4.41743,-4.42925 10.25171,-7.42329 12.08482,-8.14624c3.97802,-1.56887 9.22563,-2.1662 11.27875,-2.20655c3.78223,-0.07431 10.63612,1.01247 15.77143,3.73238c5.17525,2.74106 8.24913,6.84187 8.68708,7.51426c3.82331,5.86992 6.49462,11.57452 7.27444,18.67549c0.19285,1.77585 2.19594,10.9205 0.30626,16.29398c-2.29562,6.5279 -8.76933,10.15552 -9.03999,10.29452c-0.32056,0.16463 -1.71896,0.10621 -2.03636,-0.97069c-0.76454,-2.59402 -0.30876,-8.27501 0.02996,-10.5554c0.07071,-0.37185 0.13182,-0.74562 0.18789,-1.12042c-0.14236,-0.23944 -0.19042,-0.4645 -0.19042,-0.4645z" fill="#000000" stroke="none" stroke-width="0.5" stroke-linecap="butt"/><g fill="#000000" stroke="#000000" stroke-width="2.5" stroke-linecap="butt"><path d="M237.52948,144.46381c1.68883,-2.49448 3.26036,-4.35179 3.51009,-4.14844c0.24974,0.20338 -0.91687,2.39039 -2.6057,4.88487c-1.68883,2.49448 -3.26037,4.35182 -3.5101,4.14847c-0.24975,-0.20334 0.91688,-2.3904 2.6057,-4.88489z" data-paper-data="{&quot;index&quot;:null}"/><path d="M236.96355,136.80266c2.5112,1.43799 4.43023,2.84887 4.28629,3.15127c-0.14397,0.30242 -2.29639,-0.61816 -4.80759,-2.05614c-2.51121,-1.43799 -4.43026,-2.84887 -4.28632,-3.15127c0.14394,-0.30242 2.2964,0.61816 4.80761,2.05614z" data-paper-data="{&quot;index&quot;:null}"/></g><g data-paper-data="{&quot;index&quot;:null}" fill="#000000" stroke="#000000" stroke-width="2.5" stroke-linecap="butt"><path d="M250.35479,140.54748c2.65991,1.06904 4.72946,2.19533 4.62241,2.51562c-0.10703,0.32029 -2.35011,-0.28667 -5.01004,-1.35569c-2.65991,-1.06904 -4.72943,-2.19529 -4.6224,-2.51561c0.10703,-0.32029 2.3501,0.28665 5.01002,1.35567z" data-paper-data="{&quot;index&quot;:null}"/><path d="M246.99484,133.80215c1.37991,-2.71342 2.71878,-4.77841 2.99042,-4.61222c0.27163,0.16618 -0.62679,2.50059 -2.0067,5.21403c-1.37991,2.71342 -2.71874,4.77837 -2.9904,4.6122c-0.27163,-0.16618 0.62677,-2.50058 2.00667,-5.21401z" data-paper-data="{&quot;index&quot;:null}"/></g><g data-paper-data="{&quot;index&quot;:null}" stroke="#000000" stroke-width="1.25" stroke-linecap="butt"><path d="M234.91174,160.94947c-7.96339,-0.12275 -5.83515,-9.24375 -5.83515,-9.24375l11.85559,0.06762c0,0 2.41065,9.30608 -6.02045,9.17611z" fill="#000000"/><path d="M233.93947,158.23097c2.18031,0.73476 3.86085,2.30017 3.51598,2.40409c-0.71263,0.21476 -1.55339,0.32968 -2.54373,0.31442c-2.96809,-0.04575 -4.53427,-1.34152 -5.33126,-2.94914c-0.15483,-0.31233 2.35684,-0.4441 4.359,0.23063z" fill="#ff8484"/><path d="M228.91788,154.78252c0.03828,-1.25707 0.15871,-3.07678 0.15871,-3.07678l10.41935,0.05944l0.03104,3.16541c0,0 -10.61037,-0.10663 -10.6091,-0.14806z" fill="#ffffff"/></g><g><g data-paper-data="{&quot;index&quot;:null}"><path d="M248.16377,169.65652c2.25273,-0.51822 5.1891,-5.29742 5.62794,-3.00287c0.29234,1.52862 -0.26697,23.80266 -1.45808,25.36107c-0.59678,0.78084 -1.67735,1.44553 -2.42933,1.61853c-1.10527,0.25424 -2.14121,-0.17582 -2.97928,-1.04298c-0.87009,-0.90034 -5.33083,-22.16226 -5.55438,-23.33101c-0.43883,-2.29456 4.54037,0.91541 6.79313,0.39718z" fill="#485e84" stroke="#000000" stroke-width="1.5" stroke-linecap="butt"/><g stroke-linecap="butt"><path d="M246.69157,162.07094c4.08146,-0.9389 7.84836,0.696 8.41362,3.65164c0.56528,2.95564 -2.28519,6.11277 -6.36665,7.05169c-4.08148,0.93889 -7.84837,-0.69603 -8.41364,-3.65165c-0.56528,-2.95565 2.28516,-6.11279 6.36663,-7.05169z" fill="#485e84" stroke="#000000" stroke-width="1.5"/><path d="M251.61258,167.92089l3.01231,-2.39337c0,0 -0.29643,2.03283 -0.70608,2.76937c-0.87953,1.52998 -2.33726,2.27434 -2.33726,2.27434z" fill="#6987bb" stroke="none" stroke-width="0"/><path d="M248.51937,169.5048l1.42577,-0.65189c0,0 0.30161,1.01348 0.34987,1.38306c0.05652,0.43272 -0.05176,1.24622 -0.05176,1.24622l-1.77393,0.46329z" fill="#6987bb" stroke="none" stroke-width="0"/></g><g><path d="M247.84187,168.64538c-5.63046,1.2952 -9.44729,-1.62131 -10.62829,-7.79649c-1.18098,-6.17511 2.71457,-12.29742 8.34505,-13.59268c5.63048,-1.29524 10.45411,2.16056 11.63512,8.33575c1.18098,6.17513 -3.72136,11.75818 -9.35185,13.05343z" fill="#2c394f" stroke="#000000" stroke-width="1.5" stroke-linecap="butt"/><path d="M247.63295,147.67929c0,0 7.80938,0.82226 8.84266,6.22505c0.58596,3.06375 -0.16675,6.5521 -1.41927,9.26675c-0.89236,1.93405 -2.51579,3.53883 -4.50603,3.99666c-4.09092,0.94106 -5.92784,-0.72224 -6.96111,-6.12503c-0.516,-2.69811 0.29056,-6.34327 1.61954,-8.96232c1.33217,-2.62541 2.42422,-4.40111 2.42422,-4.40111z" fill="#485e84" stroke="none" stroke-width="0" stroke-linecap="butt"/><path d="M256.89266,155.73185c0,0 -1.96904,4.87614 -8.43286,6.62886c-6.5168,1.76711 -10.22365,-1.31277 -10.22365,-1.31277" fill="none" stroke="#000000" stroke-width="0.8" stroke-linecap="round"/><path d="M256.65673,160.90809c0,0 -3.36518,3.24401 -7.36109,4.87629c-5.75861,2.35232 -8.49139,0.75515 -8.49139,0.75515" fill="none" stroke="#000000" stroke-width="0.75" stroke-linecap="round"/><path d="M255.08317,151.15415c0,0 -2.26763,4.28235 -8.64768,6.43647c-6.13647,2.07188 -8.43853,0.37512 -8.43853,0.37512" fill="none" stroke="#000000" stroke-width="0.8" stroke-linecap="round"/><path d="M237.78314,156.5424c0,0 3.40823,-3.30482 6.39146,-4.94227c3.92933,-2.1568 8.24147,-3.09769 8.24147,-3.09769" fill="none" stroke="#000000" stroke-width="0.8" stroke-linecap="round"/><path d="M245.52581,168.33454c0,0 -2.93211,-2.90417 -4.41628,-9.35612c-1.38498,-6.02081 0.8391,-9.34858 0.8391,-9.34858" fill="none" stroke="#000000" stroke-width="0.8" stroke-linecap="round"/><path d="M243.95892,148.84726c0,0 0.40331,3.12692 1.31824,6.42773c0.80461,2.90275 2.10356,5.90275 2.50678,7.54342c0.47892,1.94866 0.91117,5.29927 0.91117,5.29927" fill="none" stroke="#000000" stroke-width="0.8" stroke-linecap="round"/><path d="M246.42556,147.70365c0,0 3.83108,4.11567 4.75049,8.32914c1.44306,6.61321 0.06781,11.3705 0.06781,11.3705" fill="none" stroke="#000000" stroke-width="0.8" stroke-linecap="round"/><path d="M249.76258,147.44819c0,0 2.92091,2.86245 4.35771,6.91314c2.06907,5.83312 1.27208,9.3986 1.27208,9.3986" fill="none" stroke="#000000" stroke-width="0.8" stroke-linecap="round"/><path d="M255.2367,154.7042c-0.40143,0.09236 -0.80569,-0.24463 -0.90285,-0.75268c-0.09719,-0.50805 0.14952,-0.99475 0.55097,-1.08711c0.40148,-0.09235 0.8057,0.24461 0.90286,0.75267c0.09719,0.50806 -0.14951,0.99478 -0.55097,1.08713z" fill="#6987bb" stroke="none" stroke-width="0" stroke-linecap="butt"/><path d="M253.76909,151.45647c-0.23164,0.05329 -0.45877,-0.10946 -0.50734,-0.36348c-0.04857,-0.25406 0.09981,-0.50315 0.33141,-0.55643c0.23165,-0.05329 0.45878,0.10945 0.50736,0.36347c0.0486,0.25405 -0.09981,0.50315 -0.33141,0.55643z" fill="#6987bb" stroke="none" stroke-width="0" stroke-linecap="butt"/></g></g><g><path d="M208.14483,162.06382c1.68708,-2.76017 17.14783,-3.16547 18.72231,-1.52719c1.71123,1.78056 -0.16662,17.03464 -0.16662,17.03464l-3.29271,0.63148l21.71336,-4.61345c0,0 7.42579,-2.00806 7.59589,0.32817c0,0 5.40921,9.86344 3.45855,29.25087c-4.51367,1.92837 -15.80611,1.95721 -15.80611,1.95721c0,0 -25.0713,1.33784 -27.65162,-2.62977c-2.5803,-3.9676 -6.15621,-37.84181 -4.57304,-40.43196z" fill="#68330c" stroke="none" stroke-width="3" stroke-linecap="round"/><path d="M245.34458,173.38073c0,0 7.51403,-0.96028 7.65165,1.34031c0,0 5.1954,9.78496 3.03017,28.82568c-2.40568,0.98494 -6.74048,1.39723 -10.22684,1.56802c-0.03332,-0.51377 -0.07291,-0.97896 -0.10797,-1.36178c-0.77683,-8.48511 -2.67103,-20.12761 -3.21458,-29.37928c-0.00539,-0.09168 2.86755,-0.99295 2.86755,-0.99295z" fill="#ffddb7" stroke="#000000" stroke-width="2" stroke-linecap="butt"/><path d="M243.65798,174.60366l2.66496,30.32406l-3.2816,0.16694l-2.88482,-29.96714z" data-paper-data="{&quot;index&quot;:null}" fill="#ffffff" stroke="#000000" stroke-width="2" stroke-linecap="round"/><path d="M208.33239,162.19423c1.68708,-2.76017 17.14783,-3.16547 18.72231,-1.52719c1.71123,1.78056 -0.16663,17.03464 -0.16663,17.03464l-3.29271,0.63148l21.71336,-4.61345c0,0 7.42579,-2.00806 7.59589,0.32816c0,0 5.40921,9.86344 3.45855,29.25087c-4.51367,1.92837 -15.80611,1.95721 -15.80611,1.95721c0,0 -25.0713,1.33784 -27.65162,-2.62976c-2.5803,-3.9676 -6.15621,-37.84181 -4.57304,-40.43196z" data-paper-data="{&quot;origPos&quot;:null}" fill="none" stroke="#000000" stroke-width="2.5" stroke-linecap="round"/></g></g></g></g></svg>