<svg version="1.1" xmlns="http://www.w3.org/2000/svg" xmlns:xlink="http://www.w3.org/1999/xlink" width="112.91097" height="182.03398" viewBox="0,0,112.91097,182.03398"><g transform="translate(-199.49998,-90.79324)"><g data-paper-data="{&quot;isPaintingLayer&quot;:true}" fill-rule="nonzero" stroke-linejoin="miter" stroke-miterlimit="10" stroke-dasharray="" stroke-dashoffset="0" style="mix-blend-mode: normal"><g stroke="#000000" stroke-linecap="round"><path d="M243.34186,172.87307c0,0 -28.70384,2.82125 -26.80503,-15.0588c0.69957,-6.58759 16.66253,-3.24097 16.66253,-3.24097z" data-paper-data="{&quot;origPos&quot;:null}" fill="#66c8ff" stroke-width="2"/><path d="M236.61194,160.38169c0,0 -15.61956,-3.6137 -15.34565,-4.20119c0.86851,-1.86271 12.51927,-0.02615 12.51927,-0.02615z" data-paper-data="{&quot;origPos&quot;:null}" fill="#0a0a0a" stroke-width="1"/></g><g><g data-paper-data="{&quot;index&quot;:null}"><g stroke="#000000" stroke-width="3" stroke-linecap="round"><path d="M296.21404,171.30957c0,0 10.64286,1.45132 14.67614,3.67914c-0.39406,16.91213 -6.62981,24.70757 -6.62981,24.70757c-0.42946,1.98675 -7.199,-0.67746 -7.199,-0.67746c0,0 -13.3857,-4.76775 -21.95322,-7.81932c-5.62578,-2.0038 -14.41539,-5.13449 -14.41539,-5.13449c0,0 -5.488,-2.23197 -5.17134,-3.28674c1.90513,-6.34569 2.49817,-12.86299 4.55695,-15.64254c0.68625,-0.92652 6.35284,-0.18454 6.35284,-0.18454l29.78282,4.3584z" data-paper-data="{&quot;origPos&quot;:null}" fill="#582700"/><path d="M301.73283,172.95158l-6.44742,24.83971l-3.28927,-0.86859l6.2103,-24.94299z" data-paper-data="{&quot;origPos&quot;:null}" fill="none"/></g><path d="M291.49798,197.01519l-34.45466,-13.11841l-0.33302,-1.40527l3.84569,-15.3376l37.02248,5.4155z" fill="#66c8ff" stroke="#000000" stroke-width="1" stroke-linecap="round"/><path d="M294.8454,197.71382l-2.25705,-0.58289l6.37646,-24.69075l2.25705,0.58289z" fill="#ffffff" stroke="none" stroke-width="0" stroke-linecap="butt"/></g><g fill="#fffc96" stroke="#000000" stroke-width="2" stroke-linecap="round"><path d="M291.23289,171.16795c0,0 2.16697,-3.81051 4.84322,-2.58318c4.28187,1.96369 -13.80355,29.58558 -18.38947,27.80824c-1.8737,-0.72619 -0.7716,-3.70096 -0.7716,-3.70096l1.81325,0.46389c0,0 4.53214,-4.43736 8.89418,-10.78654c4.3016,-6.26119 5.95942,-11.07988 5.95942,-11.07988z"/><path d="M282.71107,169.88731c0,0 -0.95057,-3.68758 1.37136,-3.72056c4.87405,-0.06925 11.1096,34.45107 6.5811,33.46622c-2.74257,-0.59645 -2.45553,-4.06299 -2.45553,-4.06299l1.34344,0.30189c0,0 0.03485,-5.32531 -1.5117,-13.10733c-1.54653,-7.78202 -4.03015,-12.74488 -4.03015,-12.74488z" data-paper-data="{&quot;index&quot;:null}"/></g></g><g data-paper-data="{&quot;origRot&quot;:0}" stroke="#000000" stroke-linecap="round"><path d="M249.50788,225.4554c0,0 -0.1413,-4.79862 1.40195,-4.79787c4.55389,0.00226 8.94659,-1.68985 13.20773,-0.08348c1.76945,0.66704 2.5185,4.88981 2.5185,4.88981l4.7157,32.77023c0,0 0.53104,3.37741 0.76776,5.3287c0.25309,2.08626 -0.75677,5.23806 -2.85505,5.35552c-7.7042,0.43133 -12.42407,2.11945 -17.29132,1.16172c-1.77322,-0.34892 -3.63218,-0.83563 -4.36762,-2.48644c-0.96071,-2.15639 -0.33678,-6.59447 -0.33678,-6.59447z" data-paper-data="{&quot;origPos&quot;:null}" fill="#ff0000" stroke-width="3"/><path d="M272.21979,266.91387c0,0 -5.86927,2.77384 -10.95469,2.9028c-3.90171,0.09894 -12.37852,-0.71033 -12.37852,-0.71033c0,0 -1.41846,-2.57239 -1.54804,-4.1698c-0.13652,-1.68278 0.86615,-4.2353 0.86615,-4.2353l23.28258,-1.38808z" data-paper-data="{&quot;origPos&quot;:null}" fill="#976e57" stroke-width="2"/><path d="M249.59736,225.77407c0,0 -0.1413,-4.79862 1.40195,-4.79786c4.55388,0.00226 8.94659,-1.68985 13.20774,-0.08346c1.76945,0.66704 2.51849,4.8898 2.51849,4.8898l4.7157,32.77023c0,0 0.53106,3.37742 0.76778,5.3287c0.25309,2.08626 -0.75678,5.23805 -2.85505,5.35552c-7.7042,0.43133 -12.42407,2.11946 -17.29132,1.16173c-1.77322,-0.34892 -3.63217,-0.83565 -4.36761,-2.48644c-0.96071,-2.15639 -0.33679,-6.59447 -0.33679,-6.59447z" data-paper-data="{&quot;origPos&quot;:null}" fill="#4b4b4b" stroke-width="3"/></g><path d="M239.62014,262.89315c0,0 0.07685,4.48107 -1.14018,6.50389c-0.93169,1.54856 -2.83618,1.80443 -4.63875,1.93404c-4.94781,0.35574 -9.42597,-1.89658 -17.01972,-3.26621c-2.06819,-0.37303 -2.6853,-3.62461 -2.17915,-5.66429c0.47342,-1.90772 1.41323,-5.19491 1.41323,-5.19491l8.68525,-31.94828c0,0 1.25949,-4.09956 3.09719,-4.54535c4.42552,-1.07357 8.57851,1.14267 13.09852,1.69698c1.53176,0.18785 0.80508,4.93322 0.80508,4.93322c0,0 -0.53643,8.98933 -0.87977,14.74299c-0.48459,8.12058 -1.24171,20.80796 -1.24171,20.80796z" fill="#4b4b4b" stroke="#000000" stroke-width="3" stroke-linecap="round"/><g><path d="M230.52222,178.04099c0,0 3.49101,-14.11423 5.69518,-14.42508c6.61248,-0.93257 21.22155,1.59588 31.05324,2.6675c1.51988,0.16566 1.36595,13.76244 1.36595,13.76244l-1.54851,30.64083c0,0 -1.37891,14.89625 -3.03694,14.71553c-14.75955,-1.60874 -32.15111,-2.6467 -38.63865,-4.19973c-2.1625,-0.51767 0.36809,-16.09294 0.36809,-16.09294z" data-paper-data="{&quot;origPos&quot;:null}" fill="#66c8ff" stroke="#000000" stroke-width="3.5" stroke-linecap="round"/><path d="M248.36774,188.23346c-1.28406,-0.13996 -1.01453,-2.61281 -1.01453,-2.61281c0.55903,-5.12888 1.29775,-11.90632 1.85678,-17.03521c0,0 0.26953,-2.47285 1.5536,-2.3329c1.28406,0.13996 1.01453,2.61281 1.01453,2.61281c-0.55903,5.12888 -1.11806,10.25776 -1.67709,15.38664l-0.17969,1.64857c0,0 -0.26953,2.47285 -1.5536,2.3329z" fill="#ffffff" stroke="none" stroke-width="0.5" stroke-linecap="butt"/><path d="M259.61084,195.82977c-1.28406,-0.13996 -0.94546,-3.24656 -0.94546,-3.24656c0.7023,-6.44332 1.63034,-14.9577 2.33264,-21.40102c0,0 0.33861,-3.1066 1.62267,-2.96664c1.28406,0.13996 0.94546,3.24656 0.94546,3.24656c-0.7023,6.44332 -1.4046,12.88664 -2.1069,19.32997l-0.22574,2.07106c0,0 -0.33861,3.1066 -1.62267,2.96664z" fill="#ffffff" stroke="none" stroke-width="0.5" stroke-linecap="butt"/></g><g fill="none" stroke="#b9b9b9" stroke-width="3"><path d="M264.56261,171.05258c-0.6755,-1.43976 0.36469,-2.55319 1.71242,-3.63153c1.34774,-1.07832 2.60822,-1.31507 3.16818,-0.27348c1.18724,2.20847 -0.39903,3.01687 -1.45435,3.86123c-1.34775,1.07834 -2.47227,2.07712 -3.42625,0.0438z" stroke-linecap="butt"/><path d="M262.75738,172.79592l2.84771,-2.22397" stroke-linecap="round"/><path d="M259.16357,173.03728c1.34774,-1.07832 2.60822,-1.31507 3.16818,-0.27348c1.18724,2.20847 -0.39903,3.01687 -1.45435,3.86123c-1.34773,1.07834 -2.47226,2.07712 -3.42624,0.0438c-0.6755,-1.43976 0.36468,-2.55319 1.71241,-3.63154z" stroke-linecap="butt"/><path d="M255.64591,178.41218l2.84771,-2.22399" stroke-linecap="round"/><path d="M250.10573,177.35336c0.57547,-1.58204 1.88889,-1.28335 3.35003,-0.66255c1.46115,0.62081 2.31799,1.69673 1.94126,2.91066c-0.79877,2.57387 -2.21419,1.54745 -3.35831,1.06135c-1.46115,-0.6208 -2.7457,-1.07521 -1.93298,-3.30945z" stroke-linecap="butt"/><path d="M247.95112,176.71369l3.05134,1.34672" stroke-linecap="round"/><path d="M243.42253,172.22325c1.03042,-1.21221 2.11301,-0.30244 3.22373,0.98097c1.11073,1.28341 1.53098,2.70549 0.79858,3.66669c-1.55291,2.03801 -2.49089,0.39504 -3.36063,-0.60991c-1.11072,-1.28342 -2.11686,-2.32581 -0.66168,-4.03774z" stroke-linecap="butt"/><path d="M241.69516,170.59006l2.30322,2.72745" stroke-linecap="round"/><path d="M237.62076,165.42998c1.03041,-1.21219 2.11301,-0.30244 3.22373,0.98097c1.11074,1.28341 1.53098,2.70549 0.79858,3.66669c-1.55291,2.038 -2.49089,0.39504 -3.36063,-0.60991c-1.11073,-1.28341 -2.11685,-2.3258 -0.66167,-4.03774z" stroke-linecap="butt"/><path d="M238.19662,166.52423l-2.30323,-2.72745" stroke-linecap="round"/></g><path d="M267.43355,166.33809c-12.08702,0.03195 -23.80819,0.02681 -28.59125,-1.01303c-4.3714,-0.95035 -5.67008,-3.72083 -5.67008,-3.72083c0,0 -1.73836,-2.44725 -1.8129,-3.98045c-0.22359,-4.59959 -0.24599,-17.74994 0.78444,-29.08013c0.03439,-0.37814 0.06741,-0.58941 0.12427,-0.96484c0.17055,-1.12626 1.02255,-5.49648 1.02255,-5.49648c0,0 3.20237,-1.63502 4.93868,-2.09516c5.20892,-1.38043 18.41003,0.21149 32.32075,0.73605c1.26083,0.04755 3.40954,1.7456 3.40954,1.7456c0,0 1.51648,3.14951 1.45256,5.13201c-0.4132,12.81717 -0.91755,26.99695 -1.24497,30.23712c-0.10913,1.08006 -1.97951,5.25518 -1.97951,5.25518z" fill="#582700" stroke="#000000" stroke-width="2.5" stroke-linecap="round"/><path d="M264.93876,146.19573c0.111,-3.44317 0.6145,-6.22109 1.1246,-6.20464c0.5101,0.01643 0.83363,2.82102 0.72264,6.26418c-0.111,3.44317 -0.6145,6.2211 -1.1246,6.20465c-0.5101,-0.01643 -0.83363,-2.82102 -0.72264,-6.26419z" fill="none" stroke="#000000" stroke-width="2.5" stroke-linecap="butt"/><path d="M258.72303,146.07468c0.11306,-3.50694 0.51486,-6.33989 0.89742,-6.32754c0.38257,0.01234 0.60107,2.86527 0.48801,6.37221c-0.11306,3.50694 -0.51483,6.33986 -0.89741,6.32753c-0.38257,-0.01234 -0.60108,-2.86525 -0.48802,-6.37219z" fill="none" stroke="#000000" stroke-width="2.5" stroke-linecap="butt"/><path d="M228.99922,122.85651c-0.65638,-1.06379 0.40742,-1.72018 0.40742,-1.72018l1.31469,-0.76297c0.1186,-0.03607 0.2371,-0.07139 0.35552,-0.10594c-1.00022,-5.78684 0.14307,-12.76721 0.13358,-18.48567c-0.00246,-1.483 -0.36321,-5.50212 0.35807,-6.77119c1.20781,-2.12509 2.91675,-1.5244 4.81282,-1.52239c3.22613,0.00342 6.42621,0.04617 9.6186,-0.42279c7.91345,-1.15304 15.76031,-1.39989 23.71088,-2.06604c2.50886,-0.2102 4.95952,-0.29773 7.48107,-0.07827c0.68995,0.06004 1.5736,-0.18984 2.05465,0.30838c1.70373,1.76452 0.96709,3.72198 0.64498,5.68352c-0.64251,3.91265 -2.26666,7.4386 -2.39586,11.44623c-0.11933,3.06536 -0.59939,6.21 -0.99753,9.24958c-0.1374,1.04894 0.19925,2.99236 -0.86374,3.77816c-2.17961,1.61126 -7.82612,0.38998 -10.36489,0.30067c-7.74121,-0.27233 -15.48328,-0.70436 -23.2282,-0.53516c-2.76894,0.15527 -5.40902,0.38458 -8.05787,0.95558c-0.02716,0.37255 -0.20567,0.85 -0.8903,1.05176c-0.7428,0.2189 -1.16103,-0.15797 -1.37177,-0.47645c-0.09027,0.02664 -0.1806,0.05377 -0.27099,0.08139l-0.73095,0.49922c0,0 -1.06379,0.65638 -1.72018,-0.40742z" fill="#000000" stroke="none" stroke-width="0.5" stroke-linecap="butt"/><g><g stroke="#000000" stroke-width="3" stroke-linecap="round"><path d="M207.60363,193.83722l15.51981,-25.79045c0,0 3.02032,-4.85163 4.1719,-4.79457c3.45475,0.17117 8.86961,3.8462 14.98402,6.39797c1.01633,0.42416 -0.73875,6.08274 -0.73875,6.08274c0,0 -3.15426,8.78118 -5.17315,14.40156c-3.07457,8.55929 -7.8782,21.93216 -7.8782,21.93216c0,0 -2.23373,6.92353 -4.04213,5.99549c0,0 -9.9819,-0.12311 -23.30721,-10.54478c0.83564,-4.53124 6.4637,-13.68011 6.4637,-13.68011z" data-paper-data="{&quot;origPos&quot;:null}" fill="#582700"/><path d="M206.85804,195.80264l23.22315,11.01842l-1.41464,3.09395l-23.2937,-10.76958z" data-paper-data="{&quot;origPos&quot;:null}" fill="none"/></g><path d="M207.71227,195.69116l19.2942,-32.05816l14.29715,6.75447l0.87526,1.14875l-11.7102,34.95837z" fill="#66c8ff" stroke="#000000" stroke-width="1" stroke-linecap="round"/><path d="M205.75223,198.79573l0.98087,-2.1147l23.13353,10.72997l-0.98086,2.1147z" fill="#ffffff" stroke="none" stroke-width="0" stroke-linecap="butt"/></g><g stroke="#000000" stroke-width="1.25" stroke-linecap="butt"><g data-paper-data="{&quot;index&quot;:null}" fill="#000000"><path d="M252.55699,157.99479c-8.96863,-1.43374 -5.12419,-4.4099 -5.12419,-4.4099l11.25964,1.65133c0,0 2.30084,4.02619 -6.13545,2.75857z"/></g><g data-paper-data="{&quot;index&quot;:null}" fill="#ffffff"><path d="M252.55699,157.99479c-8.96863,-1.43374 -5.12419,-4.4099 -5.12419,-4.4099c0,0 7.6175,1.11718 9.51847,1.39598c0.00263,0.00038 -0.73286,0.7825 -0.85309,1.65476c-0.09847,0.71442 0.41639,1.55045 0.39957,1.55231c-0.93874,0.10393 -2.21513,0.06614 -3.94078,-0.19315z"/></g></g></g></g></svg>