<svg version="1.1" xmlns="http://www.w3.org/2000/svg" xmlns:xlink="http://www.w3.org/1999/xlink" width="374.77477" height="288.28829" viewBox="0,0,374.77477,288.28829"><g transform="translate(-52.61266,-35.85585)"><g data-paper-data="{&quot;isPaintingLayer&quot;:true}" fill-rule="nonzero" stroke-linejoin="miter" stroke-miterlimit="10" stroke-dasharray="" stroke-dashoffset="0" style="mix-blend-mode: normal"><g><g><path d="M252.4065,161.42487c-1.44525,-2.87271 12.75672,-2.08159 14.95898,-2.75696c2.39354,-0.73406 -4.32654,19.08504 -4.32654,19.08504l-1.1865,3.34349l7.44577,-22.26199c0,0 2.18382,-7.8182 4.24118,-6.86357c0,0 11.13459,-0.30482 26.45296,10.72453c-0.731,5.08904 -6.60075,15.53868 -6.60075,15.53868c0,0 -11.95861,23.80633 -16.64862,24.30273c-1.08604,0.11494 -14.06571,-1.53974 -16.6548,-4.79237c-8.59176,-10.7937 -7.68168,-36.31956 -7.68168,-36.31956z" fill="#582700" stroke="#000000" stroke-width="2.5" stroke-linecap="round"/><path d="M264.23372,176.36272c-0.18949,0.46998 -0.38581,0.9381 -0.58099,1.40798c-0.04307,0.1037 -0.64497,1.22933 -0.70119,1.82936c6.32683,2.75346 13.0101,4.49219 19.21975,7.59225c0.56626,0.23618 1.81105,0.61572 2.95382,1.13901c0.37551,0.05998 0.67917,0.06175 0.81916,-0.04424c1.19042,-0.90117 1.87687,-2.67192 2.88215,-3.79514c-0.38179,-0.03491 -1.48456,-0.15147 -1.9237,-0.28339c-1.30415,-0.39179 -2.59432,-0.7751 -3.90908,-1.12686c-4.60877,-1.23304 -9.46098,-3.08781 -13.86842,-4.84779c-1.63742,-0.45142 -3.33528,-1.07575 -4.8915,-1.8712zM264.76956,174.95551c1.52766,0.7986 3.22234,1.41251 4.83546,1.85724c4.97562,2.01354 10.31253,3.76912 15.50201,5.25305c2.13825,0.61143 5.60609,0.72839 4.98147,3.23821c-1.05547,1.20821 -1.88303,3.12969 -3.18606,4.12381c0.34093,0.32068 0.56075,0.67195 0.58305,1.05383c0.03139,0.53755 -1.41076,2.15878 -1.72979,2.65938c-1.90321,2.98663 -3.63389,6.92707 -7.43384,7.73542c-5.5055,2.8953 -14.34903,0.62858 -19.24829,-2.58968c-2.5774,-3.57988 -3.10416,-6.96476 -3.62737,-11.24019c-0.37776,-3.08699 -1.30109,-5.92387 -1.32096,-9.09322c-0.63277,-4.39959 -1.12849,-8.80607 -1.7552,-13.20499c-0.28762,-2.01893 -1.25579,-3.86594 0.59014,-5.2075c3.58816,-0.29743 7.21565,-0.59645 10.82501,-0.81211c1.12511,-0.06723 3.41377,-0.12802 4.33166,0.6706c1.2756,1.10986 0.44436,2.79105 -0.06815,4.06815c-0.734,2.95145 -1.69437,6.14577 -2.87583,9.21666c0.18706,0.27501 0.09972,0.6232 0.09972,0.6232c-0.14108,0.55992 -0.31262,1.10751 -0.50305,1.64809zM283.11985,189.2554c-3.95405,-0.95173 -7.40504,-3.01398 -11.27565,-4.06757c-2.29346,-0.57511 -6.45723,-1.26495 -8.81192,-3.04914c-0.15125,-0.03658 -0.25585,-0.10326 -0.25585,-0.10326l-0.64683,-0.41614c-0.69612,-0.28922 -1.2955,-0.81064 -1.79575,-1.37454c1.06541,-5.89556 4.7956,-11.3355 6.28818,-17.24043c0.25798,-0.64089 0.68378,-1.53052 0.7413,-2.21462c0.03538,-0.42075 -2.48392,-0.60273 -2.78924,-0.60905c-3.71733,-0.07683 -7.43222,0.71606 -11.14762,0.78594c-0.37085,0.09186 0.34215,2.96023 0.42898,3.5731c0.62785,4.43154 1.14277,8.86845 1.76568,13.30286c0.02308,3.15249 0.93168,5.95643 1.31465,9.02766c0.48744,3.90906 0.8943,7.02338 3.17296,10.33104c4.60834,2.80648 12.6126,4.94068 17.69732,2.26668c3.69789,-0.84583 6.32321,-5.96539 8.18129,-8.91105c0.01971,-0.03123 -1.53117,-0.72411 -2.80679,-1.2864c-0.02056,-0.00524 -0.0408,-0.01028 -0.06071,-0.01508z" fill="#000000" stroke="none" stroke-width="0.5" stroke-linecap="butt"/><path d="M269.08294,178.20726c4.40743,1.75998 9.35175,3.64567 13.96052,4.87871c1.31477,0.35176 2.6045,0.73857 3.90864,1.13038c0.43914,0.13192 1.54192,0.24842 1.92372,0.28332c-1.00528,1.12323 -1.6978,2.91123 -2.88821,3.81242c-0.14,0.10598 -0.44472,0.10596 -0.82023,0.04598c-1.14275,-0.52329 -2.38976,-0.89964 -2.956,-1.1358c-6.20965,-3.10008 -12.98181,-4.87956 -19.30863,-7.63302c0.05622,-0.60003 0.66027,-1.7328 0.70334,-1.83649c0.19519,-0.46989 0.39391,-0.9433 0.5834,-1.41328c1.55622,0.79545 3.25605,1.41639 4.89346,1.8678z" data-paper-data="{&quot;noHover&quot;:false,&quot;origItem&quot;:[&quot;Path&quot;,{&quot;applyMatrix&quot;:true,&quot;segments&quot;:[[[926.17844,407.1979],[3.2606,1.25965],[-0.27949,0.97418]],[[925.31465,410.11917],[0.29084,-0.97519],[-0.06418,0.21521]],[[924.29914,413.90358],[-0.01258,-1.20526],[13.15638,4.16543]],[[964.1057,425.02121],[-12.99513,-4.87922],[1.17537,0.35239]],[[970.21765,426.67451],[-2.3817,-0.804],[0.75941,0.04146]],[[971.83798,426.41666],[-0.25651,0.23985],[2.18115,-2.03947]],[[976.78433,418.26967],[-1.76682,2.44279],[-0.76669,0.00973]],[[972.89889,418.10481],[0.90089,0.17138],[-2.67549,-0.50896]],[[964.88923,416.67374],[2.68829,0.42712],[-9.42353,-1.49721]],[[936.29671,409.90591],[9.13228,2.58714],[-3.35077,-0.55846]]],&quot;closed&quot;:true}]}" fill="#ffffff" stroke="none" stroke-width="0.5" stroke-linecap="butt"/><path d="M281.5054,188.52932c0.20957,0.08749 4.55753,2.00146 4.52495,2.05311c-1.85808,2.94566 -4.50561,8.08515 -8.2035,8.93098c-5.08472,2.674 -13.13366,0.53826 -17.742,-2.26824c-2.27866,-3.30766 -2.70606,-6.44298 -3.1935,-10.35204c-0.38296,-3.07124 -1.29615,-5.90793 -1.31924,-9.06042c-0.62291,-4.43441 -1.12335,-8.89764 -1.75121,-13.32917c-0.08683,-0.61288 -0.7966,-3.48408 -0.42576,-3.57594c3.7154,-0.06987 7.45061,-0.87258 11.16794,-0.79574c0.30532,0.00632 2.83108,0.18727 2.7957,0.60802c-0.05752,0.68411 -0.47161,1.67301 -0.72959,2.3139c-1.49258,5.90493 -5.17998,11.29717 -6.24538,17.19274c0.50026,0.56388 1.09911,1.07608 1.79523,1.3653l0.64611,0.41234c0,0 0.53501,0.42576 0.93816,-0.20668c0.04036,-0.06331 0.16805,-0.14561 0.18933,-0.20414c5.85605,2.38184 11.85478,4.077 17.55276,6.91597z" data-paper-data="{&quot;noHover&quot;:false,&quot;origItem&quot;:[&quot;Path&quot;,{&quot;applyMatrix&quot;:true,&quot;segments&quot;:[[[926.61254,417.73069],[12.14285,3.5238],[-0.03018,0.12086]],[[926.46822,418.11346],[0.06716,-0.13431],[-0.67082,1.34164]],[924.45576,418.78428],[[923.08279,418.0906],[0,0],[-1.44471,-0.43097]],[[919.22563,415.72869],[1.11205,1.01797],[0.89694,-11.9485]],[[928.15956,380.1298],[-1.74473,12.05571],[0.38029,-1.32836]],[[929.175,375.57071],[0.02742,1.37277],[-0.01686,-0.84429]],[[923.5003,374.93752],[0.60865,-0.05075],[-7.41054,0.61792]],[[901.48814,378.8123],[7.37628,-0.90935],[-0.71866,0.25961]],[[903.08234,385.83106],[-0.2998,-1.20115],[2.16779,8.68513]],[[909.35292,411.92731],[-2.15853,-8.69186],[0.69956,6.26621]],[[913.83986,429.61277],[-1.39861,-6.02998],[1.78014,7.67491]],[[922.29365,449.50563],[-5.21858,-6.1072],[9.74892,4.62723]],[[957.96755,450.34516],[-9.56021,6.37347],[7.18055,-2.44927]],[[972.39433,430.92276],[-3.08539,6.24485],[0.05411,-0.10951]],[[963.14745,427.86406],[0.43501,0.13058],[-11.92317,-4.46591]]],&quot;closed&quot;:true}]}" fill="#66c8ff" stroke="none" stroke-width="0.5" stroke-linecap="butt"/></g><g data-paper-data="{&quot;index&quot;:null}" fill="#fffc96" stroke="#000000" stroke-width="2" stroke-linecap="round"><path d="M250.13097,169.67644c0.03286,-2.00922 3.20524,-2.00473 3.20524,-2.00473l0.19229,1.86174c0,0 4.35951,2.06613 10.42725,3.85169c-0.25239,1.29096 -0.38885,2.25401 -0.38542,3.05812c-7.10529,-1.88907 -13.47522,-4.57531 -13.43938,-6.76684z"/><path d="M251.58222,182.97272c-0.38954,-2.77951 2.96213,-3.7099 2.96213,-3.7099l0.1817,1.3649c0,0 3.61167,-1.30544 8.84431,-4.23699c-0.00341,1.05194 0.22763,1.83035 0.74548,2.70388c-6.4733,3.59577 -12.4514,5.89185 -12.73361,3.8781z" data-paper-data="{&quot;index&quot;:null}"/></g></g><g data-paper-data="{&quot;origRot&quot;:0}" stroke="#000000" stroke-linecap="round"><path d="M247.19957,224.35686c0,0 -1.08928,-4.67549 0.42352,-4.98053c4.46405,-0.90007 8.4344,-3.42899 12.92934,-2.69876c1.86653,0.30323 3.43742,4.29386 3.43742,4.29386l11.11519,31.18618c0,0 1.1897,3.20524 1.80835,5.07094c0.66144,1.99475 0.29608,5.28415 -1.73732,5.81503c-7.46599,1.94927 -11.75782,4.5391 -16.71834,4.56473c-1.8072,0.00933 -3.72574,-0.09939 -4.77368,-1.57176c-1.36893,-1.92329 -1.63671,-6.397 -1.63671,-6.397z" data-paper-data="{&quot;origPos&quot;:null}" fill="#ff0000" stroke-width="3"/><path d="M277.67564,260.49333c0,0 -5.20332,3.88176 -10.16236,5.01577c-3.80475,0.87005 -12.27385,1.75639 -12.27385,1.75639c0,0 -1.90002,-2.24034 -2.34353,-3.78041c-0.46723,-1.62237 0.0098,-4.32295 0.0098,-4.32295l22.54596,-5.97369z" data-paper-data="{&quot;origPos&quot;:null}" fill="#976e57" stroke-width="2"/><path d="M247.35045,224.65147c0,0 -1.08928,-4.67549 0.42353,-4.98051c4.46404,-0.90008 8.4344,-3.42899 12.92935,-2.69875c1.86653,0.30323 3.43741,4.29384 3.43741,4.29384l11.11518,31.18619c0,0 1.18972,3.20523 1.80837,5.07094c0.66144,1.99475 0.29607,5.28415 -1.73732,5.81504c-7.46599,1.94927 -11.75781,4.53911 -16.71833,4.56474c-1.8072,0.00933 -3.72573,-0.09942 -4.77368,-1.57176c-1.36893,-1.92329 -1.63672,-6.397 -1.63672,-6.397z" data-paper-data="{&quot;origPos&quot;:null}" fill="#4b4b4b" stroke-width="3"/></g><path d="M238.91921,260.13185c0,0 0.17918,4.47815 -0.99132,6.52823c-0.89607,1.56943 -2.79422,1.86875 -4.59336,2.03949c-4.93839,0.46866 -9.46684,-1.68078 -17.08989,-2.87659c-2.07618,-0.32568 -2.76739,-3.56233 -2.30797,-5.61304c0.42972,-1.91804 1.29421,-5.22584 1.29421,-5.22584l7.95323,-32.13833c0,0 1.16551,-4.12726 2.99256,-4.61491c4.39984,-1.17438 8.60237,0.94643 13.13387,1.39735c1.53566,0.15281 0.91756,4.91355 0.91756,4.91355c0,0 -0.33096,8.99924 -0.54279,14.75923c-0.29897,8.12953 -0.76609,20.83089 -0.76609,20.83089z" fill="#4b4b4b" stroke="#000000" stroke-width="3" stroke-linecap="round"/><g stroke="#000000" stroke-linecap="round"><path d="M230.36943,172.38308c0,0 -28.22914,5.91484 -28.27891,-12.06568c-0.01835,-6.62461 16.21325,-5.02736 16.21325,-5.02736z" data-paper-data="{&quot;origPos&quot;:null}" fill="#66c8ff" stroke-width="2"/><path d="M222.32555,160.6944c0,0 -15.91916,-1.89997 -15.71052,-2.51368c0.66156,-1.94585 12.44273,-1.38252 12.44273,-1.38252z" data-paper-data="{&quot;origPos&quot;:null}" fill="#0a0a0a" stroke-width="1"/></g><g><g><path d="M219.49837,177.43209c0,0 0.57204,-14.5283 2.66819,-15.27739c6.28842,-2.24731 21.1072,-2.71787 30.95295,-3.65159c1.52205,-0.14434 4.11411,13.20395 4.11411,13.20395l4.66439,30.32329c0,0 1.6544,14.86818 -0.00599,15.02565c-14.78065,1.40172 -32.02406,3.89343 -38.69151,3.68104c-2.22247,-0.07079 -2.88585,-15.83635 -2.88585,-15.83635z" data-paper-data="{&quot;origPos&quot;:null}" fill="#66c8ff" stroke="#000000" stroke-width="3.5" stroke-linecap="round"/><path d="M239.03311,183.8151c-1.2859,0.12195 -1.52075,-2.35444 -1.52075,-2.35444c-0.48709,-5.13621 -1.13075,-11.92335 -1.61783,-17.05956c0,0 -0.23485,-2.47638 1.05105,-2.59833c1.2859,-0.12195 1.52075,2.35444 1.52075,2.35444c0.48709,5.13621 0.97419,10.27242 1.46128,15.40864l0.15657,1.65093c0,0 0.23484,2.47638 -1.05106,2.59833z" fill="#ffffff" stroke="none" stroke-width="0.5" stroke-linecap="butt"/><path d="M251.57743,188.98722c-1.2859,0.12195 -1.58093,-2.98909 -1.58093,-2.98909c-0.61192,-6.45253 -1.42054,-14.97908 -2.03246,-21.43161c0,0 -0.29503,-3.11104 0.99086,-3.23299c1.2859,-0.12195 1.58093,2.98909 1.58093,2.98909c0.61192,6.45253 1.22385,12.90506 1.83577,19.3576l0.19669,2.07403c0,0 0.29503,3.11104 -0.99086,3.23299z" fill="#ffffff" stroke="none" stroke-width="0.5" stroke-linecap="butt"/></g><g fill="none" stroke="#b9b9b9" stroke-width="3"><path d="M251.42919,163.72045c-0.95205,-1.2739 -0.15785,-2.57426 0.94464,-3.90231c1.1025,-1.32803 2.28931,-1.81418 3.04787,-0.90697c1.60834,1.92356 0.21776,3.03534 -0.64553,4.07523c-1.10251,1.32805 -2.00244,2.53313 -3.34698,0.73406z" stroke-linecap="butt"/><path d="M252.3533,163.03945l-2.34053,2.75271" stroke-linecap="round"/><path d="M246.54153,166.75349c1.1025,-1.32803 2.28932,-1.81418 3.04788,-0.90696c1.60834,1.92356 0.21776,3.03534 -0.64553,4.07523c-1.1025,1.32804 -2.00243,2.53313 -3.34696,0.73405c-0.95205,-1.2739 -0.15787,-2.57426 0.94462,-3.90232z" stroke-linecap="butt"/><path d="M246.52094,169.97479l-2.34053,2.75272" stroke-linecap="round"/><path d="M238.54054,172.80808c0.2445,-1.6656 1.59117,-1.63801 3.14751,-1.32472c1.55634,0.3133 2.61261,1.19425 2.48852,2.45922c-0.26313,2.68209 -1.85651,1.9623 -3.07516,1.71699c-1.55634,-0.31329 -2.90615,-0.49923 -2.56085,-2.85148z" stroke-linecap="butt"/><path d="M236.30125,172.6162l3.26028,0.70349" stroke-linecap="round"/><path d="M230.95987,169.1316c0.7647,-1.39515 2.00856,-0.72247 3.35534,0.3105c1.34679,1.03296 2.04527,2.34103 1.52183,3.43022c-1.10986,2.30938 -2.35999,0.8894 -3.41458,0.08056c-1.34679,-1.03297 -2.54251,-1.85097 -1.46259,-3.82126z" stroke-linecap="butt"/><path d="M231.74461,170.0872l-2.80607,-2.20676" stroke-linecap="round"/><path d="M223.90698,163.64835c0.7647,-1.39513 2.00857,-0.72247 3.35535,0.3105c1.3468,1.03296 2.04527,2.34103 1.52183,3.43022c-1.10986,2.30937 -2.35999,0.88939 -3.41457,0.08055c-1.34679,-1.03296 -2.54251,-1.85095 -1.46258,-3.82125z" stroke-linecap="butt"/><path d="M221.88571,162.39719l2.80608,2.20676" stroke-linecap="round"/></g></g><path d="M254.06435,159.07584c-11.73161,2.90968 -23.11673,5.69621 -28.00982,5.82542c-4.47195,0.1181 -6.39308,-2.26338 -6.39308,-2.26338c0,0 -2.27119,-1.96282 -2.70871,-3.43415c-1.3126,-4.414 -4.46624,-17.18062 -6.16386,-28.43019c-0.05667,-0.37545 -0.0749,-0.58851 -0.1091,-0.96667c-0.10258,-1.13448 -0.31592,-5.58185 -0.31592,-5.58185c0,0 2.72084,-2.35066 4.2976,-3.21108c4.73028,-2.58127 17.93066,-4.17915 31.56606,-6.98266c1.23588,-0.25409 3.72716,0.88335 3.72716,0.88335c0,0 2.22292,2.69772 2.633,4.6384c2.65123,12.54677 5.53845,26.43866 5.99215,29.66357c0.15124,1.07498 -0.67098,5.57542 -0.67098,5.57542z" fill="#582700" stroke="#000000" stroke-width="2.5" stroke-linecap="round"/><path d="M206.38032,125.99898c-0.89085,-0.87686 -0.01399,-1.76771 -0.01399,-1.76771l1.09515,-1.05412c0.1066,-0.06328 0.21327,-0.1258 0.32006,-0.18756c-2.34963,-5.38212 -2.90167,-12.43392 -4.27282,-17.98558c-0.35558,-1.43975 -1.66315,-5.25731 -1.26487,-6.66164c0.66694,-2.35159 2.46976,-2.17518 4.31176,-2.62481c3.13412,-0.76502 6.25231,-1.48563 9.24115,-2.70139c7.41113,-3.00454 14.97341,-5.11309 22.53655,-7.65358c2.38661,-0.80167 4.74591,-1.47034 7.24716,-1.85772c0.6844,-0.10601 1.4831,-0.55915 2.06897,-0.18983c2.07493,1.30798 1.82569,3.38456 1.98002,5.36637c0.30782,3.95308 -0.42986,7.76438 0.3991,11.68747c0.61414,3.00558 0.89683,6.17406 1.23407,9.22101c0.11636,1.05147 0.90617,2.8588 0.06093,3.87515c-1.73316,2.084 -7.50805,2.24263 -9.99504,2.76052c-7.58333,1.57915 -15.20551,3.0034 -22.68727,5.01227c-2.65229,0.81025 -5.1618,1.66174 -7.59842,2.84715c0.06235,0.3683 0.00267,0.87453 -0.61419,1.23353c-0.66929,0.38951 -1.16524,0.12308 -1.44577,-0.13605c-0.08133,0.04737 -0.16261,0.09523 -0.24382,0.1436l-0.59102,0.65894c0,0 -0.87686,0.89085 -1.76772,0.01399z" fill="#000000" stroke="none" stroke-width="0.5" stroke-linecap="butt"/><path d="M227.86761,136.88796c3.92761,-3.56341 8.60634,-2.50445 11.36568,1.731c3.16464,4.85755 0.23411,8.84148 0.23411,8.84148c0,0 -2.74353,-0.40509 -5.98247,0.03829c-4.033,0.5521 -6.06749,1.55273 -6.06749,1.55273c0,0 -4.87807,-7.32935 0.45015,-12.16352z" fill="#ffffff" stroke="#0a0a0a" stroke-width="2" stroke-linecap="butt"/><path d="M253.90516,131.26156c6.81498,2.30546 5.26805,10.97274 5.26805,10.97274c0,0 -2.26479,-0.10534 -6.18294,0.99831c-3.14671,0.88635 -5.50048,2.3529 -5.50048,2.3529c0,0 -4.27719,-2.48298 -3.31461,-8.2c0.83931,-4.98482 4.70641,-7.82339 9.72996,-6.12396z" data-paper-data="{&quot;index&quot;:null}" fill="#ffffff" stroke="#0a0a0a" stroke-width="2" stroke-linecap="butt"/><g data-paper-data="{&quot;index&quot;:null}" stroke="#000000" stroke-width="1" stroke-linecap="butt"><path d="M243.80011,164.28035c-12.22395,2.8192 -12.09129,-10.70202 -12.09129,-10.70202l18.15912,-4.35768c0,0 6.87403,12.07492 -6.06784,15.0597z" fill="#000000"/><path d="M241.38196,160.85365c3.58688,0.2061 6.69366,1.75846 6.20168,2.03292c-1.01663,0.56715 -2.26339,1.04316 -3.78358,1.39377c-4.55605,1.05078 -7.39559,-0.16845 -9.16521,-2.11149c-0.34379,-0.37748 3.45329,-1.50447 6.74708,-1.31519z" fill="#ff8484"/><path d="M232.5195,157.92944c-0.37186,-1.76776 -0.81068,-4.35113 -0.81068,-4.35113l15.95924,-3.82977l1.13132,4.40348c0,0 -16.2676,3.83567 -16.27986,3.77741z" fill="#ffffff"/></g><path d="M234.17359,148.16867l-0.41613,0.04343c-0.79558,0.37847 -1.78029,0.65613 -2.67494,0.3592c0.01391,0.80704 -2.02475,0.87497 -2.2429,0.22446c-0.10183,-0.3037 -0.69422,-0.39963 -0.87424,-0.45857c0,0 -0.06445,-0.0235 -0.1477,-0.07571c-0.14848,0.06026 -0.28707,0.11501 -0.41201,0.16013c0,0 -1.03856,0.37347 -1.41203,-0.66509c-0.37347,-1.03856 0.66509,-1.41203 0.66509,-1.41203c1.24775,-0.44695 2.86438,-1.17232 4.21222,-1.07371c0.6148,0.04499 1.17837,0.41312 1.7937,0.45023c0.56678,0.03419 1.13399,-0.08238 1.70176,-0.07573l0.79654,0.13899c0,0 1.08271,0.21408 0.86863,1.29679c-0.21408,1.08271 -1.29679,0.86863 -1.29679,0.86863l-0.10876,-0.02657c-0.18672,0.1972 -0.45243,0.24556 -0.45243,0.24556z" fill="#000000" stroke="none" stroke-width="0.5" stroke-linecap="butt"/><path d="M250.10053,144.82745c0,0 -0.25807,0.07961 -0.5147,-0.00926l-0.08426,0.07374c0,0 -0.86198,0.68924 -1.55124,-0.17274c-0.68924,-0.86198 0.17274,-1.55124 0.17274,-1.55124l0.6427,-0.49065c0.50073,-0.26772 1.05778,-0.42585 1.54493,-0.71754c0.52888,-0.31667 0.85919,-0.90324 1.38396,-1.22665c1.15049,-0.70906 2.91948,-0.81091 4.23274,-0.98972c0,0 1.09376,-0.14754 1.2413,0.94623c0.14754,1.09376 -0.94623,1.2413 -0.94623,1.2413c-0.13168,0.01757 -0.2799,0.03289 -0.43943,0.0479c-0.04978,0.08474 -0.09615,0.13531 -0.09615,0.13531c-0.13255,0.13532 -0.61395,0.49361 -0.56427,0.81005c0.10643,0.6778 -1.85801,1.30834 -2.09367,0.83513c-0.65692,0.67604 -1.65872,0.88377 -2.53918,0.91481l-0.38926,0.15336z" data-paper-data="{&quot;index&quot;:null}" fill="#000000" stroke="none" stroke-width="0.5" stroke-linecap="butt"/><path d="M52.61267,324.14414v-288.28829h374.77477v288.28829z" fill="none" stroke="none" stroke-width="NaN" stroke-linecap="butt"/><g data-paper-data="{&quot;index&quot;:null}"><path d="M227.92879,167.77358c0,0 3.3885,25.31631 -4.11268,36.89451c-2.26045,3.48903 -15.01764,6.39832 -16.10971,6.38956c-4.71606,-0.03786 -18.93346,-22.56819 -18.93346,-22.56819c0,0 -6.8583,-9.82919 -8.08081,-14.82299c14.17299,-12.46698 25.28443,-13.2466 25.28443,-13.2466c1.95476,-1.1502 4.88865,6.41851 4.88865,6.41851l9.57575,21.43223l-1.50607,-3.21223c0,0 -8.61589,-19.0715 -6.16231,-18.57373c2.25751,0.45797 16.31519,-1.71074 15.15621,1.28892z" fill="#582700" stroke="#000000" stroke-width="2.5" stroke-linecap="round"/><path d="M217.61061,183.79098c-1.47147,0.94304 -3.10056,1.72955 -4.6863,2.33809c-4.21535,2.18032 -8.86416,4.49824 -13.33114,6.1737c-1.27431,0.47797 -2.52108,0.98495 -3.78094,1.50172c-0.42423,0.17401 -1.51043,0.39728 -1.88702,0.46916c1.10976,1.02012 1.96518,2.71571 3.23762,3.49682c0.14964,0.09188 0.45168,0.06059 0.81958,-0.03563c1.08644,-0.63196 2.28842,-1.13078 2.82902,-1.42092c5.87867,-3.68935 12.36115,-6.06987 18.39017,-9.42564c-0.11431,-0.59172 -0.82284,-1.65347 -0.8758,-1.75249c-0.23997,-0.44868 -0.48088,-0.89548 -0.71518,-1.34479zM216.94042,182.44253c-0.24211,-0.51949 -0.4661,-1.04781 -0.66097,-1.59134c0,0 -0.12079,-0.33805 0.03864,-0.62995c-1.47454,-2.94143 -2.74107,-6.02718 -3.75865,-8.89325c-0.63429,-1.2212 -1.6251,-2.81356 -0.4635,-4.04223c0.83585,-0.8841 3.11958,-1.04621 4.24589,-1.08873c3.61322,-0.13643 7.2526,-0.19165 10.85267,-0.24463c1.96767,1.15566 1.18375,3.08806 1.09385,5.12542c-0.19587,4.43902 -0.26066,8.87281 -0.46251,13.31309c0.28849,3.15626 -0.35453,6.06949 -0.43026,9.17857c-0.10488,4.30605 -0.29991,7.72611 -2.5169,11.53971c-4.56301,3.67952 -13.14414,6.79565 -18.90515,4.44957c-3.86056,-0.43492 -5.9663,-4.18835 -8.15098,-6.97571c-0.3662,-0.4672 -1.9592,-1.94047 -1.98024,-2.47852c-0.01494,-0.38223 0.16967,-0.75322 0.47779,-1.10555c-1.39354,-0.86267 -2.40406,-2.69456 -3.57205,-3.79438c-0.86576,-2.43717 2.57426,-2.89087 4.64289,-3.70738c5.02055,-1.98165 10.16139,-4.24799 14.91757,-6.73593c1.56221,-0.59951 3.18915,-1.37534 4.6319,-2.31875zM200.06799,198.45946c-0.01936,0.00672 -0.03901,0.0137 -0.05896,0.02091c-1.21489,0.6837 -2.69101,1.52414 -2.66836,1.55331c2.13578,2.75097 5.24659,7.5909 9.00922,8.07305c5.3207,2.16676 13.07942,-0.73583 17.39295,-3.97724c1.94614,-3.51361 2.04815,-6.65274 2.15307,-10.59067c0.08243,-3.09393 0.714,-5.97294 0.43035,-9.11273c0.18865,-4.47397 0.26958,-8.93993 0.46342,-13.41152c0.02681,-0.61841 0.45744,-3.54254 0.07942,-3.59789c-3.70459,0.29182 -7.47898,-0.13598 -11.17121,0.30206c-0.30326,0.03598 -2.79292,0.46214 -2.71678,0.87744c0.12379,0.67526 0.63411,1.51925 0.95319,2.13202c2.05984,5.73176 6.30146,10.7831 7.93524,16.54709c-0.44304,0.60987 -0.98886,1.18712 -1.65355,1.54267l-0.60329,0.47708c0,0 -0.09762,0.07653 -0.24459,0.12766c-2.16999,2.00477 -6.24691,3.0963 -8.47357,3.89177c-3.74979,1.42507 -6.98383,3.8132 -10.82657,5.145z" fill="#000000" stroke="none" stroke-width="0.5" stroke-linecap="butt"/><path d="M212.96378,186.09842c1.58574,-0.60854 3.21712,-1.39186 4.68859,-2.3349c0.2343,0.44932 0.47812,0.90116 0.71809,1.34984c0.05296,0.09901 0.76432,1.16765 0.87863,1.75937c-6.02902,3.35577 -12.59599,5.78552 -18.47467,9.47486c-0.54059,0.29012 -1.74507,0.78598 -2.83152,1.41794c-0.36791,0.09622 -0.67117,0.12587 -0.82081,0.03401c-1.27242,-0.78113 -2.13558,-2.4933 -3.24534,-3.51343c0.37658,-0.07188 1.4628,-0.29507 1.88704,-0.46908c1.25986,-0.51679 2.50585,-1.02722 3.78017,-1.50518c4.46699,-1.67546 9.20446,-4.03312 13.41981,-6.21343z" data-paper-data="{&quot;noHover&quot;:false,&quot;origItem&quot;:[&quot;Path&quot;,{&quot;applyMatrix&quot;:true,&quot;segments&quot;:[[[926.17844,407.1979],[3.2606,1.25965],[-0.27949,0.97418]],[[925.31465,410.11917],[0.29084,-0.97519],[-0.06418,0.21521]],[[924.29914,413.90358],[-0.01258,-1.20526],[13.15638,4.16543]],[[964.1057,425.02121],[-12.99513,-4.87922],[1.17537,0.35239]],[[970.21765,426.67451],[-2.3817,-0.804],[0.75941,0.04146]],[[971.83798,426.41666],[-0.25651,0.23985],[2.18115,-2.03947]],[[976.78433,418.26967],[-1.76682,2.44279],[-0.76669,0.00973]],[[972.89889,418.10481],[0.90089,0.17138],[-2.67549,-0.50896]],[[964.88923,416.67374],[2.68829,0.42712],[-9.42353,-1.49721]],[[936.29671,409.90591],[9.13228,2.58714],[-3.35077,-0.55846]]],&quot;closed&quot;:true}]}" fill="#ffffff" stroke="none" stroke-width="0.5" stroke-linecap="butt"/><path d="M201.6042,197.57979c5.39483,-3.37971 11.20023,-5.6503 16.79685,-8.59042c0.02686,0.0562 0.16196,0.12566 0.20828,0.18475c0.46275,0.59023 0.95381,0.11445 0.95381,0.11445l0.60294,-0.47322c0.6647,-0.35555 1.21088,-0.92358 1.65392,-1.53344c-1.63378,-5.76399 -5.82817,-10.772 -7.88801,-16.50376c-0.31909,-0.61275 -0.82739,-1.55669 -0.95118,-2.23197c-0.07615,-0.41531 2.42004,-0.84107 2.72329,-0.87705c3.69224,-0.43803 7.4878,-0.00244 11.19238,-0.29427c0.37803,0.05534 -0.04911,2.98198 -0.07592,3.60039c-0.19385,4.47159 -0.25781,8.96233 -0.44646,13.4363c0.28365,3.13978 -0.3493,6.05185 -0.43172,9.14577c-0.10492,3.93793 -0.22533,7.09997 -2.17148,10.61357c-4.31352,3.24141 -12.11657,6.1499 -17.43727,3.98314c-3.76262,-0.48215 -6.89749,-5.33975 -9.03326,-8.09073c-0.03747,-0.04824 4.10373,-2.37604 4.3038,-2.4835z" data-paper-data="{&quot;noHover&quot;:false,&quot;origItem&quot;:[&quot;Path&quot;,{&quot;applyMatrix&quot;:true,&quot;segments&quot;:[[[926.61254,417.73069],[12.14285,3.5238],[-0.03018,0.12086]],[[926.46822,418.11346],[0.06716,-0.13431],[-0.67082,1.34164]],[924.45576,418.78428],[[923.08279,418.0906],[0,0],[-1.44471,-0.43097]],[[919.22563,415.72869],[1.11205,1.01797],[0.89694,-11.9485]],[[928.15956,380.1298],[-1.74473,12.05571],[0.38029,-1.32836]],[[929.175,375.57071],[0.02742,1.37277],[-0.01686,-0.84429]],[[923.5003,374.93752],[0.60865,-0.05075],[-7.41054,0.61792]],[[901.48814,378.8123],[7.37628,-0.90935],[-0.71866,0.25961]],[[903.08234,385.83106],[-0.2998,-1.20115],[2.16779,8.68513]],[[909.35292,411.92731],[-2.15853,-8.69186],[0.69956,6.26621]],[[913.83986,429.61277],[-1.39861,-6.02998],[1.78014,7.67491]],[[922.29365,449.50563],[-5.21858,-6.1072],[9.74892,4.62723]],[[957.96755,450.34516],[-9.56021,6.37347],[7.18055,-2.44927]],[[972.39433,430.92276],[-3.08539,6.24485],[0.05411,-0.10951]],[[963.14745,427.86406],[0.43501,0.13058],[-11.92317,-4.46591]]],&quot;closed&quot;:true}]}" fill="#66c8ff" stroke="none" stroke-width="0.5" stroke-linecap="butt"/></g><path d="M233.7159,158.3815c0.2411,-0.16484 0.46245,-0.0722 0.46245,-0.0722l0.70615,0.29588c0.7719,0.2567 1.42607,0.23386 2.24522,0.16231c1.13631,-0.0556 2.40308,-0.50841 3.39303,0.27294c0.39858,0.31459 1.50916,2.14907 2.12364,2.10339c0.72827,-0.05414 1.70339,-1.29859 2.48429,-1.57025c0.65604,-0.22822 1.77978,-0.09086 2.41215,-0.7974c0.18988,-0.21214 0.26959,-0.64749 0.42547,-0.94043c0.4438,-0.83408 0.98703,-1.50461 1.39267,-2.39473c0.55058,-1.20816 -3.24545,0.16773 -2.58806,-0.86101c0.59303,-0.92802 -1.46141,-1.14811 -0.71741,-0.0485c0.35654,0.52695 4.11876,-1.6767 4.05314,-0.76506c-0.48409,2.08045 2.22271,2.90294 1.59781,4.91713c-1.04926,3.38199 -2.05997,6.8385 -2.89559,10.35288c-0.38143,1.60415 -0.99431,3.46598 -1.1843,5.13442c-0.09553,0.83886 0.14621,1.82439 -0.1902,2.51344c-0.38385,0.78623 -1.05557,1.15595 -1.57851,1.10937c-0.40638,-0.03619 -0.62773,-0.78364 -0.8521,-1.32582c-0.50455,-1.2192 -0.50798,-3.3854 -0.90199,-4.80534c-0.15749,-0.70877 -0.17261,-1.67042 -0.52844,-2.0699c-0.18483,-0.2075 -0.44925,-0.15511 -0.66283,-0.27722c-0.96868,-0.55382 -1.99817,-1.26489 -2.89412,-2.05507c-2.62149,-2.31203 -5.28354,-4.7146 -7.82353,-7.24456c0,0 -0.57024,-0.5693 -0.13643,-1.71034c0.4338,-1.14104 1.00404,-0.57175 1.00404,-0.57175c0.21688,0.21707 0.43474,0.43299 0.65346,0.64783z" fill="#000000" stroke="none" stroke-width="0.5" stroke-linecap="butt"/></g></g></svg>