<svg version="1.1" xmlns="http://www.w3.org/2000/svg" xmlns:xlink="http://www.w3.org/1999/xlink" width="183.18182" height="183.18182" viewBox="0,0,183.18182,183.18182"><g transform="translate(-148.40909,-88.40909)"><g data-paper-data="{&quot;isPaintingLayer&quot;:true}" fill-rule="nonzero" stroke="none" stroke-width="0" stroke-linecap="butt" stroke-linejoin="miter" stroke-miterlimit="10" stroke-dasharray="" stroke-dashoffset="0" style="mix-blend-mode: normal"><path d="M148.40909,271.59091v-183.18182h183.18182v183.18182z" fill="none"/><g><path d="M219.90553,198.71998v-59.35578h40.14603v59.35578z" fill="#f9393f"/><path d="M220.0869,200.09814l-0.01575,-60.75637h2.11034l-0.40541,47.38414c0,0 6.97971,2.92824 13.0496,3.54221c1.62685,0.16456 8.7918,0.31551 10.25354,-0.46571c11.28233,-6.02977 13.02324,-15.25147 13.02324,-15.25147l0.36282,-35.17657h1.75676v61.12918z" fill="#fafafa"/><path d="M214.90644,208.24551v-68.90461h5.33333l-0.13637,54.8795c0,0 1.91252,1.96215 6.90939,3.06103c6.73564,1.56351 8.48415,1.37274 8.48415,1.37274c0,0 7.87517,0.08457 8.46394,-0.01562c0.50283,-0.08557 5.33907,-2.81423 8.90548,-6.23516c5.2049,-4.99259 7.16123,-13.99242 7.16123,-13.99242l0.04552,-39.07007l5.02045,0.04022l-0.08043,59.19774c0,0 -2.64692,11.43815 -11.41254,17.94281c-5.02664,3.73009 -14.22128,3.74725 -16.74993,3.79544c-6.37208,0.12144 -13.80316,-2.57711 -17.19894,-4.44067c-4.32944,-2.37595 -4.74527,-7.63092 -4.74527,-7.63092z" fill="#9c2428"/></g></g></g></svg>