<svg version="1.1" xmlns="http://www.w3.org/2000/svg" xmlns:xlink="http://www.w3.org/1999/xlink" width="374.77477" height="288.28829" viewBox="0,0,374.77477,288.28829"><g transform="translate(-52.61266,-35.85585)"><g data-paper-data="{&quot;isPaintingLayer&quot;:true}" fill-rule="nonzero" stroke-linejoin="miter" stroke-miterlimit="10" stroke-dasharray="" stroke-dashoffset="0" style="mix-blend-mode: normal"><g><g data-paper-data="{&quot;index&quot;:null}"><g stroke="#000000" stroke-width="3" stroke-linecap="round"><path d="M241.95141,179.39714c0,0 8.67926,-6.32831 13.131,-7.51679c11.43474,12.46685 12.34038,22.40833 12.34038,22.40833c1.06703,1.73004 -5.65997,4.49994 -5.65997,4.49994c0,0 -12.95489,5.8377 -21.24668,9.57416c-5.44472,2.45349 -13.95143,6.2868 -13.95143,6.2868c0,0 -5.50348,2.19351 -6.00604,1.21358c-3.02347,-5.89541 -7.1119,-11.00536 -7.55352,-14.43603c-0.14721,-1.14354 4.45257,-4.53511 4.45257,-4.53511l24.4937,-17.49485z" data-paper-data="{&quot;origPos&quot;:null}" fill="#582700"/><path d="M247.06828,176.75691l12.56343,22.37721l-2.97346,1.65297l-12.80597,-22.28738z" data-paper-data="{&quot;origPos&quot;:null}" fill="none"/></g><path d="M256.36319,201.19904l-33.93218,14.41606l-1.21386,-0.78246l-7.85505,-13.72333l30.44607,-21.74923z" fill="#66c8ff" stroke="#000000" stroke-width="1" stroke-linecap="round"/><path d="M259.26081,199.38319l-2.03126,1.1437l-12.51138,-22.22065l2.03126,-1.1437z" fill="#ffffff" stroke="none" stroke-width="0" stroke-linecap="butt"/></g><g fill="#fffc96" stroke="#000000" stroke-width="2" stroke-linecap="round"><path d="M238.26184,182.74662c0,0 -1.07799,-4.24897 1.70204,-5.21849c4.44797,-1.55119 10.54814,30.89629 6.01012,32.79251c-1.85413,0.77475 -3.12082,-2.13376 -3.12082,-2.13376l1.62881,-0.92197c0,0 0.19295,-6.33981 -1.06148,-13.94019c-1.23705,-7.49506 -3.38075,-12.11812 -3.38075,-12.11812z"/><path d="M231.23014,187.72825c0,0 -3.24058,-2.00009 -1.58933,-3.6328c3.46624,-3.42729 31.88216,17.14138 27.93465,19.56921c-2.3907,1.47034 -4.58581,-1.22795 -4.58581,-1.22795l1.17782,-0.71324c0,0 -3.66492,-3.86374 -10.17235,-8.403c-6.50743,-4.53927 -11.73703,-6.39656 -11.73703,-6.39656z" data-paper-data="{&quot;index&quot;:null}"/></g></g><g data-paper-data="{&quot;origRot&quot;:0}" stroke="#000000" stroke-linecap="round"><path d="M226.32444,226.29334c0,0 -1.08783,-4.67582 0.42509,-4.98039c4.46434,-0.89868 8.43546,-3.42636 12.93018,-2.69472c1.86644,0.30381 3.43608,4.29493 3.43608,4.29493l11.10545,31.18965c0,0 1.1887,3.20561 1.80677,5.0715c0.66081,1.99496 0.29444,5.28424 -1.73914,5.81449c-7.4666,1.94693 -11.75924,4.53541 -16.71976,4.55951c-1.8072,0.00877 -3.7257,-0.10054 -4.77319,-1.57324c-1.36832,-1.92372 -1.6347,-6.39751 -1.6347,-6.39751z" data-paper-data="{&quot;origPos&quot;:null}" fill="#ff0000" stroke-width="3"/><path d="M256.78921,262.43933c0,0 -5.20452,3.88014 -10.16393,5.01261c-3.80501,0.86886 -12.2744,1.75254 -12.2744,1.75254c0,0 -1.89933,-2.24094 -2.34235,-3.78113c-0.46673,-1.62252 0.01115,-4.32294 0.01115,-4.32294l22.54783,-5.96665z" data-paper-data="{&quot;origPos&quot;:null}" fill="#976e57" stroke-width="2"/><path d="M226.4752,226.58799c0,0 -1.08783,-4.67583 0.4251,-4.98038c4.46434,-0.89868 8.43547,-3.42637 12.93019,-2.69471c1.86644,0.30381 3.43607,4.29492 3.43607,4.29492l11.10545,31.18966c0,0 1.18872,3.2056 1.80678,5.0715c0.66081,1.99496 0.29442,5.28424 -1.73914,5.8145c-7.4666,1.94693 -11.75923,4.53544 -16.71975,4.5595c-1.8072,0.00877 -3.7257,-0.10058 -4.77318,-1.57326c-1.36832,-1.92372 -1.63471,-6.39751 -1.63471,-6.39751z" data-paper-data="{&quot;origPos&quot;:null}" fill="#4b4b4b" stroke-width="3"/></g><path d="M214.7309,260.53686c0,0 -0.23045,4.4758 -1.58325,6.41045c-1.03563,1.48106 -2.95318,1.60581 -4.76039,1.61157c-4.96055,0.0158 -9.27383,-2.53814 -16.75585,-4.42499c-2.03777,-0.51389 -2.43057,-3.80013 -1.78582,-5.80032c0.60305,-1.87079 1.76595,-5.08584 1.76595,-5.08584l10.85443,-31.27791c0,0 1.53749,-4.0036 3.40143,-4.32239c4.48869,-0.76774 8.48002,1.72793 12.95142,2.59072c1.51529,0.29239 0.46509,4.9768 0.46509,4.9768c0,0 -1.15126,8.93143 -1.88813,14.64802c-1.04,8.06827 -2.66488,20.67393 -2.66488,20.67393z" fill="#4b4b4b" stroke="#000000" stroke-width="3" stroke-linecap="round"/><g stroke="#000000" stroke-linecap="round"><path d="M205.15385,178.95661c0,0 -28.22914,5.91484 -28.27891,-12.06568c-0.01835,-6.62461 16.21325,-5.02736 16.21325,-5.02736z" data-paper-data="{&quot;origPos&quot;:null}" fill="#66c8ff" stroke-width="2"/><path d="M197.11002,167.26791c0,0 -15.91916,-1.89997 -15.71052,-2.51368c0.66156,-1.94585 12.44273,-1.38252 12.44273,-1.38252z" data-paper-data="{&quot;origPos&quot;:null}" fill="#0a0a0a" stroke-width="1"/></g><g><g><path d="M195.28279,183.33896c0,0 0.57204,-14.5283 2.66819,-15.27739c6.28842,-2.24731 21.1072,-2.71787 30.95295,-3.65159c1.52205,-0.14434 4.11411,13.20395 4.11411,13.20395l4.66439,30.32329c0,0 1.6544,14.86818 -0.00599,15.02565c-14.78065,1.40172 -32.02406,3.89343 -38.69151,3.68104c-2.22247,-0.07079 -2.88585,-15.83635 -2.88585,-15.83635z" data-paper-data="{&quot;origPos&quot;:null}" fill="#66c8ff" stroke="#000000" stroke-width="3.5" stroke-linecap="round"/><path d="M214.81756,189.72195c-1.2859,0.12195 -1.52075,-2.35444 -1.52075,-2.35444c-0.48709,-5.13621 -1.13075,-11.92335 -1.61783,-17.05956c0,0 -0.23485,-2.47638 1.05105,-2.59833c1.2859,-0.12195 1.52075,2.35444 1.52075,2.35444c0.48709,5.13621 0.97419,10.27242 1.46128,15.40864l0.15657,1.65093c0,0 0.23484,2.47638 -1.05106,2.59833z" fill="#ffffff" stroke="none" stroke-width="0.5" stroke-linecap="butt"/><path d="M227.36189,194.89405c-1.2859,0.12195 -1.58093,-2.98909 -1.58093,-2.98909c-0.61192,-6.45253 -1.42054,-14.97908 -2.03246,-21.43161c0,0 -0.29503,-3.11104 0.99086,-3.23299c1.2859,-0.12195 1.58093,2.98909 1.58093,2.98909c0.61192,6.45253 1.22385,12.90506 1.83577,19.3576l0.19669,2.07403c0,0 0.29503,3.11104 -0.99086,3.23299z" fill="#ffffff" stroke="none" stroke-width="0.5" stroke-linecap="butt"/></g><g fill="none" stroke="#b9b9b9" stroke-width="3"><path d="M227.21362,169.62737c-0.95205,-1.2739 -0.15785,-2.57426 0.94464,-3.90231c1.1025,-1.32803 2.28931,-1.81418 3.04787,-0.90697c1.60834,1.92356 0.21776,3.03534 -0.64553,4.07523c-1.10251,1.32805 -2.00244,2.53313 -3.34698,0.73406z" stroke-linecap="butt"/><path d="M225.7972,171.69904l2.34053,-2.75271" stroke-linecap="round"/><path d="M222.32598,172.66038c1.1025,-1.32803 2.28932,-1.81418 3.04788,-0.90696c1.60834,1.92356 0.21776,3.03534 -0.64553,4.07523c-1.1025,1.32804 -2.00243,2.53313 -3.34696,0.73405c-0.95205,-1.2739 -0.15787,-2.57426 0.94462,-3.90232z" stroke-linecap="butt"/><path d="M219.96487,178.63438l2.34053,-2.75272" stroke-linecap="round"/><path d="M214.325,178.71495c0.2445,-1.6656 1.59117,-1.63801 3.14751,-1.32472c1.55634,0.3133 2.61261,1.19425 2.48852,2.45922c-0.26313,2.68209 -1.85651,1.9623 -3.07516,1.71699c-1.55634,-0.31329 -2.90615,-0.49923 -2.56085,-2.85148z" stroke-linecap="butt"/><path d="M212.08567,178.52305l3.26028,0.70349" stroke-linecap="round"/><path d="M206.74433,175.03847c0.7647,-1.39515 2.00856,-0.72247 3.35534,0.3105c1.34679,1.03296 2.04527,2.34103 1.52183,3.43022c-1.10986,2.30938 -2.35999,0.8894 -3.41458,0.08056c-1.34679,-1.03297 -2.54251,-1.85097 -1.46259,-3.82126z" stroke-linecap="butt"/><path d="M207.52908,175.99406l-2.80607,-2.20676" stroke-linecap="round"/><path d="M199.69141,169.55522c0.7647,-1.39513 2.00857,-0.72247 3.35535,0.3105c1.3468,1.03296 2.04527,2.34103 1.52183,3.43022c-1.10986,2.30937 -2.35999,0.88939 -3.41457,0.08055c-1.34679,-1.03296 -2.54251,-1.85095 -1.46258,-3.82125z" stroke-linecap="butt"/><path d="M197.6701,168.30405l2.80608,2.20676" stroke-linecap="round"/></g></g><g data-paper-data="{&quot;index&quot;:null}"><path d="M228.13983,169.73394c-12.08536,-0.20233 -23.80423,-0.43463 -28.56624,-1.56698c-4.35217,-1.03489 -5.5969,-3.83003 -5.5969,-3.83003c0,0 -1.69062,-2.48048 -1.7354,-4.01483c-0.13441,-4.60306 0.09807,-17.75137 1.34791,-29.05947c0.04171,-0.37741 0.07882,-0.588 0.14294,-0.96225c0.19235,-1.12274 1.12888,-5.47563 1.12888,-5.47563c0,0 3.23346,-1.57266 4.97837,-1.99905c5.23471,-1.27921 18.40247,0.56826 32.30042,1.36233c1.25967,0.07198 3.37506,1.81134 3.37506,1.81134c0,0 1.45515,3.17831 1.35282,5.15919c-0.66154,12.80676 -1.44062,26.97409 -1.83077,30.20731c-0.13005,1.07775 -2.08099,5.21584 -2.08099,5.21584z" fill="#582700" stroke="#000000" stroke-width="2.5" stroke-linecap="round"/><path d="M190.55547,125.51561c-0.63564,-1.07631 0.44067,-1.71195 0.44067,-1.71195l1.32923,-0.73735c0.11928,-0.03377 0.23844,-0.06678 0.3575,-0.09903c-0.88787,-5.80514 0.39051,-12.76204 0.49184,-18.47961c0.02629,-1.48278 -0.2565,-5.50813 0.48923,-6.76299c1.24877,-2.10128 2.94574,-1.46757 4.84142,-1.42882c3.22546,0.06594 6.42411,0.17071 9.625,-0.23628c7.93432,-0.99946 15.78447,-1.09418 23.74645,-1.60609c2.51247,-0.16154 4.96436,-0.20156 7.48118,0.06673c0.68865,0.07341 1.57699,-0.1593 2.04828,0.34815c1.6692,1.79721 0.89476,3.74003 0.53471,5.69495c-0.71821,3.89946 -2.41041,7.39327 -2.61727,11.39764c-0.17873,3.06247 -0.71964,6.19722 -1.1766,9.22851c-0.15771,1.04607 0.14121,2.99566 -0.9368,3.76071c-2.21043,1.56871 -7.83221,0.23822 -10.36877,0.09973c-7.73448,-0.42231 -15.46672,-1.00432 -23.21346,-0.98526c-2.77144,0.10158 -5.41547,0.27968 -8.07487,0.79923c-0.03437,0.37196 -0.22212,0.84585 -0.91051,1.0343c-0.7469,0.20446 -1.15775,-0.18044 -1.36227,-0.50295c-0.09076,0.02489 -0.18162,0.05026 -0.27253,0.07613l-0.74049,0.48497c0,0 -1.07631,0.63564 -1.71196,-0.44067z" fill="#000000" stroke="none" stroke-width="0.5" stroke-linecap="butt"/><path d="M208.52353,141.55996c4.71134,-2.43463 8.9609,-0.20906 10.53934,4.59317c1.8103,5.5076 -2.04547,8.6048 -2.04547,8.6048c0,0 -2.54734,-1.09641 -5.79146,-1.50013c-4.03946,-0.50267 -6.26275,-0.05838 -6.26275,-0.05838c0,0 -2.83111,-8.33666 3.56032,-11.63949z" fill="#ffffff" stroke="#0a0a0a" stroke-width="2" stroke-linecap="butt"/><path d="M235.13264,142.81256c5.99382,3.9791 2.27185,11.95793 2.27185,11.95793c0,0 -2.16169,-0.68371 -6.23187,-0.62384c-3.2688,0.04808 -5.92036,0.86062 -5.92036,0.86062c0,0 -3.49561,-3.4986 -1.09642,-8.77635c2.09193,-4.60181 6.55855,-6.35147 10.97678,-3.41836z" data-paper-data="{&quot;index&quot;:null}" fill="#ffffff" stroke="#0a0a0a" stroke-width="2" stroke-linecap="butt"/><g data-paper-data="{&quot;index&quot;:null}" stroke="#000000" stroke-width="1" stroke-linecap="butt"><path d="M206.73337,169.44235c-12.13145,-3.19384 -5.72118,-15.09969 -5.72118,-15.09969l18.10068,4.5944c0,0 0.46444,13.8867 -12.3795,10.50528z" fill="#000000"/><path d="M206.18792,165.284c3.07881,1.85177 5.10615,4.67169 4.54296,4.68564c-1.16377,0.02884 -2.48881,-0.1301 -3.9975,-0.52728c-4.5216,-1.19037 -6.46742,-3.59104 -7.1294,-6.1344c-0.12861,-0.49411 3.75669,0.27558 6.58393,1.97606z" fill="#ff8484"/><path d="M199.70473,158.5711c0.49359,-1.73771 1.3075,-4.22846 1.3075,-4.22846l15.90788,4.03781l-1.04809,4.42403c0,0 -16.18356,-4.17609 -16.16729,-4.23336z" fill="#ffffff"/></g></g><g data-paper-data="{&quot;index&quot;:null}"><g data-paper-data="{&quot;origRot&quot;:0,&quot;index&quot;:null}" stroke="#000000" stroke-width="3" stroke-linecap="round"><path d="M196.79791,222.26588c0,0 -25.20543,-1.59419 -25.24285,-4.14938c-0.06748,-4.60716 2.70057,-14.8873 2.70057,-14.8873l8.3116,-28.92972c0,0 1.66089,-5.46828 2.78796,-5.71138c3.3812,-0.72929 9.56307,1.41812 16.1297,2.29942c1.09148,0.1465 0.86164,6.06654 0.86164,6.06654c0,0 -0.77269,9.29847 -1.26722,15.24995c-0.75315,9.06352 -1.92981,23.22416 -1.92981,23.22416c0,0 -0.36458,7.26581 -2.35162,6.83771z" data-paper-data="{&quot;origPos&quot;:null}" fill="#582700"/><path d="M198.01925,214.99436l-24.57433,-4.19587" fill="none"/><path d="M198.81277,211.75776l-24.53436,-4.42991" data-paper-data="{&quot;origPos&quot;:null}" fill="none"/></g><path d="M174.13194,206.60979l10.53816,-36.65401l1.37712,-0.4594l15.58336,2.70948l-2.6648,38.67187z" fill="#66c8ff" stroke="#000000" stroke-width="1" stroke-linecap="round"/><path d="M173.44364,210.63177l0.39995,-2.29653l25.1227,4.37511l-0.39995,2.29653z" fill="#ffffff" stroke="none" stroke-width="0" stroke-linecap="butt"/></g><path d="M52.61266,324.14414v-288.28829h374.77477v288.28829z" fill="none" stroke="none" stroke-width="NaN" stroke-linecap="butt"/><path d="M209.00453,156.47914c-0.39554,-0.16005 -0.35345,-0.81429 -0.55819,-1.13155c-0.28905,-0.19691 -0.55446,-0.47128 -0.78852,-0.76002c-0.27289,-0.21271 -0.55464,-0.41529 -0.77641,-0.61086c0,0 -0.25936,-0.22869 -0.17432,-0.5261c-0.12603,-0.02158 -0.25127,-0.04738 -0.37545,-0.07826c0,0 -1.10983,-0.29408 -0.81576,-1.4039c0.29408,-1.10983 1.4039,-0.81576 1.4039,-0.81576c0.94943,0.27524 1.80918,0.11476 2.80374,0.24928c0.90446,0.12232 1.7741,0.6227 2.67533,0.63031c0.67983,0.00574 1.36593,-0.03554 2.03855,0.0633l0.60068,0.10647c0,0 1.13042,0.2009 0.92952,1.33132c-0.2009,1.13042 -1.33132,0.92952 -1.33132,0.92952l-0.4356,-0.07764l-0.51872,0.33165c-1.09275,0.21977 -1.73819,0.08085 -2.76159,-0.10484c-0.17346,0.06977 -0.35239,0.16128 -0.4446,0.30815c-0.01598,0.03662 -0.03377,0.07214 -0.05362,0.10638c-0.33791,0.80401 0.37548,2.17813 -1.41768,1.45254z" fill="#000000" stroke="none" stroke-width="0.5" stroke-linecap="butt"/><path d="M232.40868,157.77434c-1.8459,0.57837 -1.02387,-0.73363 -1.2957,-1.56231c-0.017,-0.03574 -0.03187,-0.07258 -0.04485,-0.11037c-0.08005,-0.15384 -0.25099,-0.25951 -0.41825,-0.34306c-1.03506,0.10241 -1.68962,0.18873 -2.76104,-0.11858l-0.49023,-0.37247l-0.44045,0.0422c0,0 -1.14295,0.10892 -1.25187,-1.03403c-0.10892,-1.14295 1.03403,-1.25187 1.03403,-1.25187l0.60733,-0.05759c0.67841,-0.04419 1.35895,0.05239 2.03702,0.10158c0.8989,0.06521 1.80612,-0.36328 2.71751,-0.41214c1.00218,-0.05374 1.84615,0.17566 2.81472,-0.02198c0,0 1.12995,-0.20346 1.33342,0.9265c0.20346,1.12995 -0.9265,1.33342 -0.9265,1.33342c-0.12627,0.02076 -0.25317,0.03634 -0.38054,0.04768c0.06074,0.30331 -0.21624,0.51031 -0.21624,0.51031c-0.23684,0.17701 -0.53403,0.35619 -0.82322,0.54614c-0.25662,0.26889 -0.54332,0.52094 -0.84734,0.69385c-0.2297,0.29969 -0.2406,0.9552 -0.64778,1.08276z" data-paper-data="{&quot;index&quot;:null}" fill="#000000" stroke="none" stroke-width="0.5" stroke-linecap="butt"/><path d="M196.50166,171.74575c-0.21138,-0.52231 -0.35135,-0.96888 -0.45589,-1.43937l-0.07316,0.04664l-0.35805,-0.91467c-0.1258,-0.30876 -0.13115,-0.68714 0.01071,-0.99212c0.21139,-0.45444 0.66959,-0.5738 1.02341,-0.26661l0.79547,0.69064c1.32796,1.15297 2.35417,1.99207 3.95999,2.017c0.51981,0.00807 1.3384,-0.69631 1.80633,-0.40592c0.08929,0.05541 0.17307,0.12189 0.25258,0.19693l0.02173,-0.04671l0.41612,0.36129c-0.02011,-0.14895 -0.04592,-0.29225 -0.07904,-0.42849c-0.58002,-2.38714 -1.90777,-3.72564 -3.16041,-5.47739c-0.95419,-1.33439 -1.70915,-2.7907 -2.79318,-3.95963c0,0 -0.59446,-0.64369 -0.14329,-1.40006c0.06511,-0.10915 0.13321,-0.18915 0.20206,-0.24614v0c0.05489,-0.11197 0.13739,-0.21879 0.25748,-0.31183c0.62886,-0.48722 1.03069,0.37827 1.03069,0.37827l-0.0058,0.0425c1.53304,2.03934 3.08283,3.19918 5.03571,4.36023c0.69511,0.41326 0.87626,0.70608 1.63783,0.96981c1.42989,0.49517 2.83259,0.54988 4.27783,0.61932c1.46506,0.18593 2.81992,-0.48908 4.27434,-0.64624c0.48413,-0.05232 3.00989,-0.23522 3.3754,0.18154c1.36125,1.55211 0.15988,2.63537 -0.50192,3.29998c-2.28322,2.29292 -5.31594,1.6894 -7.68931,3.69359c-0.6701,0.56586 -1.15069,1.6008 -1.69119,2.35332c-0.50476,0.86453 -1.4148,2.69035 -2.50338,2.2793c-1.33985,-0.50593 -1.44654,-2.01608 -1.45336,-3.55254l-0.42293,0.11018c0.02566,0.15135 0.02351,0.32909 -0.02437,0.53599c-0.21595,0.93317 -0.9303,0.59311 -0.9303,0.59311l-0.68926,-0.35904c-0.18956,-0.17574 -0.38024,-0.29526 -0.5721,-0.37267c-0.3429,-0.00886 -0.68559,-0.04412 -1.02944,-0.09342c-0.95527,0.13388 -1.93947,0.67509 -2.95595,-0.00758c-0.16765,-0.1126 -0.27569,-0.31612 -0.36443,-0.54761c-0.21803,-0.10475 -0.50436,-0.35917 -0.50523,-0.97312c-0.00015,-0.10813 0.00858,-0.20382 0.02427,-0.28852z" fill="#000000" stroke="none" stroke-width="0.5" stroke-linecap="butt"/></g></g></svg>