<svg version="1.1" xmlns="http://www.w3.org/2000/svg" xmlns:xlink="http://www.w3.org/1999/xlink" width="234" height="234" viewBox="0,0,234,234"><g transform="translate(-123,-63)"><g data-paper-data="{&quot;isPaintingLayer&quot;:true}" fill-rule="nonzero" stroke-linejoin="miter" stroke-miterlimit="10" stroke-dasharray="" stroke-dashoffset="0" style="mix-blend-mode: normal"><path d="M123,297v-234h234v234z" data-paper-data="{&quot;index&quot;:null}" fill="none" stroke="none" stroke-width="0" stroke-linecap="butt"/><g><g><g data-paper-data="{&quot;origRot&quot;:0}" stroke="#2f3bd4" stroke-width="3" stroke-linecap="round"><path d="M288.26969,217.21245c-0.01999,2.44993 -8.66212,0.96456 -8.66212,0.96456c0,0 -22.9767,-3.2791 -33.83567,-4.78102c-4.46142,-1.31532 -5.22324,-40.2627 -1.25564,-44.494c1.76864,-1.88617 11.48572,-4.08579 12.94499,-2.69515c2.7776,2.64695 7.56705,18.75693 7.56705,18.75693l-4.17507,0.21279l10.96418,0.50624c0,0 12.8208,-0.54746 18.22201,0.74565c2.99555,0.71717 -1.76975,30.78396 -1.76975,30.78396z" data-paper-data="{&quot;origPos&quot;:null}" fill="#582700"/><path d="M278.39139,216.41125l1.53894,-30.00988" fill="none"/><path d="M274.3754,216.49186l1.25313,-30.02453" data-paper-data="{&quot;origPos&quot;:null}" fill="none"/></g><path d="M278.18171,217.02438l-2.80696,-0.1263l1.38171,-30.70635l2.80696,0.1263z" fill="#ffffff" stroke="none" stroke-width="0" stroke-linecap="butt"/><path d="M245.4755,213.53846l-2.8707,-10.71841l-0.01987,-24.00128l1.90711,-8.27196l3.71041,-3.54194l7.49953,-0.08433l1.49991,-0.01687l6.94072,16.92302l-2.99701,0.28371l0.0225,1.99988l13.25759,0.60097l-0.40982,30.25652l-27.04328,-3.69618z" fill="#ffffff" stroke="#2f3bd4" stroke-width="0.5" stroke-linecap="round"/></g><g fill="#ffffff" stroke="#2f3bd4" stroke-width="2" stroke-linecap="round"><path d="M268.43383,184.74114c0,0 3.97338,-3.01678 6.09517,-0.35727c3.39475,4.25509 -27.80435,24.93412 -31.5931,20.72748c-1.54799,-1.71874 0.95956,-4.3688 0.95956,-4.3688l1.61018,1.40625c0,0 6.652,-2.50828 14.03001,-7.15907c7.27578,-4.58634 11.20916,-8.94272 11.20916,-8.94272z"/><path d="M260.44408,179.10025c0,0 0.77285,-4.44389 3.12909,-3.31794c4.94609,2.36353 -4.97324,42.63205 -9.07614,39.30695c-2.4848,-2.01373 -0.56809,-5.60071 -0.56809,-5.60071l1.21261,0.99688c0,0 2.53507,-5.71346 4.62923,-14.86175c2.09419,-9.14829 1.9202,-15.73147 1.9202,-15.73147z" data-paper-data="{&quot;index&quot;:null}"/></g></g><path d="M284.59118,184.99145c-1.41835,10.70705 -2.41968,12.42903 -2.41968,12.42903c-0.25029,1.33167 -1.51854,0.96183 -1.51854,0.96183c0,0 -2.54721,-0.41686 -4.17755,-0.68368c-1.07055,-0.17519 -2.74314,-0.44892 -2.74314,-0.44892c0,0 -1.02248,-0.34519 -0.87025,-1.06928c0.9159,-4.35618 1.5588,-8.5673 2.2273,-10.71138c0.22283,-0.7147 1.40169,-1.34055 1.40169,-1.34055l5.24044,0.25845c0,0 2.15454,-0.01847 2.8597,0.60451z" fill="#ffffff" stroke="#2f3bd4" stroke-width="3" stroke-linecap="round"/><g data-paper-data="{&quot;index&quot;:null}"><path d="M280.01387,190.47558c2.44277,-0.03433 6.91884,-4.22275 6.95072,-1.95413c0.01622,1.15556 -0.09688,22.26894 -0.8071,23.32132c-0.68411,1.01363 -1.66579,1.66051 -2.86427,1.67736c-0.81541,0.01144 -2.0753,-0.36502 -2.85884,-0.9636c-1.56381,-1.19466 -6.86396,-22.0968 -6.8852,-23.60817c-0.03187,-2.26862 4.02195,1.56155 6.46471,1.52723z" fill="#0091d4" stroke="#000000" stroke-width="1.5" stroke-linecap="butt"/><g stroke-linecap="butt"><path d="M279.93074,182.97075c4.42573,-0.0622 8.04678,2.25633 8.08782,5.17857c0.04106,2.92224 -3.5134,5.34162 -7.93912,5.40383c-4.42573,0.06219 -8.04679,-2.25634 -8.08785,-5.17859c-0.04106,-2.92224 3.51341,-5.34161 7.93913,-5.4038z" fill="#0091d4" stroke="#000000" stroke-width="1.5"/><path d="M276.6683,192.13383c0,0 -1.66738,-0.36401 -2.90248,-1.60423c-0.58032,-0.60025 -1.31817,-2.45083 -1.31817,-2.45083l3.62679,1.5597z" fill="#00aeff" stroke="none" stroke-width="0"/><path d="M280.1826,192.70801l-1.93526,-0.0251c0,0 -0.28456,-0.74298 -0.31776,-1.16471c-0.02835,-0.36018 0.0692,-1.38727 0.0692,-1.38727l1.61467,0.28411z" fill="#00aeff" stroke="none" stroke-width="0"/></g><g><path d="M280.13288,189.44607c-6.10541,0.08579 -12.36555,-4.04644 -12.45135,-10.1518c-0.08579,-6.10541 4.17711,-10.4898 10.28248,-10.57559c6.10541,-0.08579 11.4372,4.78966 11.523,10.89503c0.08579,6.10541 -3.24875,9.74656 -9.35411,9.83235z" fill="#00699a" stroke="#000000" stroke-width="1.5" stroke-linecap="butt"/><path d="M275.90554,169.60036c0,0 1.50726,1.42285 3.44331,3.59222c1.93135,2.1641 3.53923,5.41856 3.57672,8.08616c0.07506,5.34175 -1.4747,7.3393 -5.91069,7.40166c-2.15811,0.03033 -4.17947,-1.1076 -5.5135,-2.7264c-1.87246,-2.27214 -3.39131,-5.39103 -3.43385,-8.42018c-0.07506,-5.34175 7.83801,-7.93346 7.83801,-7.93346z" fill="#0091d4" stroke="none" stroke-width="0" stroke-linecap="butt"/><path d="M288.47025,180.03936c0,0 -3.18601,3.76979 -10.30927,3.61607c-7.06538,-0.15247 -10.13798,-4.29905 -10.13798,-4.29905" fill="none" stroke="#000000" stroke-width="0.8" stroke-linecap="round"/><path d="M286.97471,185.82174c0,0 -2.49154,2.14337 -8.95368,1.26078c-4.48408,-0.61243 -8.65658,-2.89331 -8.65658,-2.89331" fill="none" stroke="#000000" stroke-width="0.75" stroke-linecap="round"/><path d="M288.06468,177.07341c0,0 -2.02436,2.13728 -8.81838,1.60734c-7.0637,-0.55097 -10.31965,-4.06744 -10.31965,-4.06744" fill="none" stroke="#000000" stroke-width="0.8" stroke-linecap="round"/><path d="M271.12667,171.48945c0,0 4.66504,-0.11393 9.19135,1.00923c3.43644,0.8527 7.66644,3.18101 7.66644,3.18101" fill="none" stroke="#000000" stroke-width="0.8" stroke-linecap="round"/><path d="M282.20562,170.12082c0,0 3.00854,2.62526 2.85038,8.63231c-0.1695,6.43722 -2.59047,9.86103 -2.59047,9.86103" fill="none" stroke="#000000" stroke-width="0.8" stroke-linecap="round"/><path d="M279.13746,189.14611c0,0 -0.26251,-3.26426 -0.17957,-5.21562c0.06985,-1.64293 0.77918,-4.77759 0.99719,-7.70553c0.24789,-3.32944 0.0028,-6.37579 0.0028,-6.37579" fill="none" stroke="#000000" stroke-width="0.8" stroke-linecap="round"/><path d="M276.34659,189.06403c0,0 -2.4325,-4.17239 -2.33974,-10.75232c0.05911,-4.19228 3.15422,-8.96904 3.15422,-8.96904" fill="none" stroke="#000000" stroke-width="0.8" stroke-linecap="round"/><path d="M271.27821,186.58813c0,0 -1.58105,-3.18142 -0.67465,-9.17029c0.62944,-4.15883 3.04758,-7.54065 3.04758,-7.54065" fill="none" stroke="#000000" stroke-width="0.8" stroke-linecap="round"/><path d="M269.52009,178.00113c-0.43533,0.00612 -0.79397,-0.39611 -0.80101,-0.89844c-0.00707,-0.5023 0.34013,-0.91446 0.77548,-0.92058c0.43533,-0.00612 0.79398,0.39611 0.80102,0.89843c0.00707,0.5023 -0.34014,0.91447 -0.77547,0.92059z" fill="#00aeff" stroke="none" stroke-width="0" stroke-linecap="butt"/><path d="M270.35155,174.59329c-0.25115,0.00353 -0.45761,-0.1972 -0.46114,-0.44836c-0.00354,-0.25114 0.1972,-0.45761 0.44836,-0.46114c0.25115,-0.00353 0.45761,0.19721 0.46115,0.44836c0.00354,0.25114 -0.1972,0.45762 -0.44836,0.46115z" fill="#00aeff" stroke="none" stroke-width="0" stroke-linecap="butt"/></g></g><path d="M296.9245,188.37832c-3.43115,22.05998 -5.38468,25.65905 -5.38468,25.65905c-0.56067,2.74855 -2.83015,2.07374 -2.83015,2.07374c0,0 -4.58424,-0.68653 -7.51837,-1.12592c-1.92668,-0.28853 -4.93687,-0.73932 -4.93687,-0.73932c0,0 -1.82588,-0.64046 -1.49175,-2.13602c2.01022,-8.99756 3.51393,-17.6795 4.89802,-22.1225c0.46136,-1.48099 2.64873,-2.84304 2.64873,-2.84304l9.47937,0.18322c0,0 3.90735,-0.1806 5.13569,1.05079z" fill="#ffffff" stroke="#2f3bd4" stroke-width="3" stroke-linecap="round"/><g fill="#ffffff" stroke="#2f3bd4" stroke-linecap="round"><path d="M232.01765,176.7249c0,0 -28.34669,5.32305 -28.02033,-12.65459c0.12022,-6.62354 16.31486,-4.68711 16.31486,-4.68711z" data-paper-data="{&quot;origPos&quot;:null}" stroke-width="2"/><path d="M224.22011,164.87057c0,0 -15.87594,-2.23255 -15.65451,-2.84177c0.70212,-1.93158 12.46892,-1.12194 12.46892,-1.12194z" data-paper-data="{&quot;origPos&quot;:null}" stroke-width="1"/></g><g data-paper-data="{&quot;origRot&quot;:0}" stroke-linecap="round"><path d="M240.30226,226.95774c0,0 -0.43859,-4.78062 1.10174,-4.87557c4.54527,-0.28013 8.82459,-2.24137 13.17714,-0.90232c1.80741,0.55603 2.81687,4.72423 2.81687,4.72423l6.73867,32.41475c0,0 0.73945,3.33798 1.09671,5.27084c0.38197,2.06655 -0.43051,5.27491 -2.51747,5.52225c-7.66263,0.90823 -12.26874,2.88578 -17.18601,2.2317c-1.79144,-0.23829 -3.67701,-0.60879 -4.5134,-2.21082c-1.09258,-2.09267 -0.74505,-6.5609 -0.74505,-6.5609z" data-paper-data="{&quot;origPos&quot;:null}" fill="#ff0000" stroke="#000000" stroke-width="3"/><path d="M265.54127,266.92808c0,0 -5.68597,3.13245 -10.75361,3.5765c-3.88807,0.34069 -12.39875,0.05862 -12.39875,0.05862c0,0 -1.57524,-2.47948 -1.80363,-4.06578c-0.2406,-1.67108 0.60186,-4.28086 0.60186,-4.28086l23.1517,-2.82914z" data-paper-data="{&quot;origPos&quot;:null}" fill="#976e57" stroke="#000000" stroke-width="2"/><path d="M240.41133,227.27025c0,0 -0.43859,-4.78062 1.10174,-4.87556c4.54526,-0.28013 8.82459,-2.24137 13.17715,-0.9023c1.80741,0.55603 2.81686,4.72422 2.81686,4.72422l6.73867,32.41475c0,0 0.73947,3.33799 1.09673,5.27084c0.38197,2.06655 -0.43052,5.2749 -2.51747,5.52225c-7.66263,0.90823 -12.26874,2.88579 -17.18601,2.23171c-1.79144,-0.23829 -3.677,-0.60881 -4.51339,-2.21082c-1.09258,-2.09267 -0.74506,-6.5609 -0.74506,-6.5609z" data-paper-data="{&quot;origPos&quot;:null}" fill="#ffffff" stroke="#2f3bd4" stroke-width="3"/></g><path d="M234.57193,263.29374c0,0 -0.08224,4.48097 -1.37029,6.45932c-0.98606,1.51451 -2.89844,1.70264 -4.70447,1.76819c-4.95732,0.17991 -9.35273,-2.22992 -16.89308,-3.86819c-2.05365,-0.44619 -2.55497,-3.71763 -1.97675,-5.73806c0.54082,-1.88972 1.59671,-5.14148 1.59671,-5.14148l9.81364,-31.61991c0,0 1.40419,-4.05228 3.25656,-4.43257c4.46083,-0.91583 8.53255,1.44641 13.03004,2.16079c1.52413,0.24209 0.62949,4.95869 0.62949,4.95869c0,0 -0.85513,8.96463 -1.40246,14.70247c-0.77249,8.09826 -1.97941,20.75078 -1.97941,20.75078z" fill="#ffffff" stroke="#2f3bd4" stroke-width="3" stroke-linecap="round"/><g><path d="M221.23761,183.36194c0,0 2.2421,-14.36565 4.4106,-14.86824c6.50546,-1.50781 21.27978,-0.26791 31.16754,-0.06102c1.52855,0.03198 2.56542,13.59004 2.56542,13.59004l1.13962,30.65876c0,0 -0.06965,14.95978 -1.73714,14.92488c-14.84372,-0.31057 -32.25938,0.17785 -38.85796,-0.80132c-2.19952,-0.32638 -1.04204,-16.06338 -1.04204,-16.06338z" data-paper-data="{&quot;origPos&quot;:null}" fill="#ffffff" stroke="#2f3bd4" stroke-width="3.5" stroke-linecap="round"/><path d="M239.90684,191.95314c-1.29139,-0.02702 -1.23935,-2.51398 -1.23935,-2.51398c0.10793,-5.15813 0.25053,-11.97421 0.35846,-17.13235c0,0 0.05203,-2.48696 1.34342,-2.45994c1.29139,0.02702 1.23935,2.51398 1.23935,2.51398c-0.10793,5.15813 -0.21584,10.31626 -0.32377,15.47438l-0.03469,1.65797c0,0 -0.05203,2.48696 -1.34342,2.45994z" fill="#2f3bd4" stroke="none" stroke-width="0.5" stroke-linecap="butt"/><path d="M251.66298,191.78237c-1.29139,-0.02702 -1.22602,-3.15133 -1.22602,-3.15133c0.13558,-6.48006 0.31474,-15.04299 0.45032,-21.52306c0,0 0.06537,-3.12432 1.35675,-3.0973c1.29139,0.02702 1.22602,3.15133 1.22602,3.15133c-0.13558,6.48006 -0.27116,12.96012 -0.40674,19.4402l-0.04357,2.08288c0,0 -0.06537,3.12432 -1.35675,3.0973z" fill="#2f3bd4" stroke="none" stroke-width="0.5" stroke-linecap="butt"/></g><path d="M256.72532,170.3302c-12.08654,-0.11213 -23.80681,-0.25698 -28.57715,-1.35377c-4.35976,-1.00238 -5.62533,-3.78815 -5.62533,-3.78815c0,0 -1.70908,-2.46779 -1.76533,-4.00177c-0.16875,-4.60193 -0.03439,-17.75161 1.13101,-29.06871c0.03889,-0.3777 0.07443,-0.58858 0.13576,-0.96329c0.18396,-1.12415 1.08799,-5.48389 1.08799,-5.48389c0,0 3.22164,-1.59674 4.96331,-2.03614c5.22501,-1.31824 18.4062,0.43091 32.30969,1.12126c1.26018,0.06257 3.38848,1.78611 3.38848,1.78611c0,0 1.47883,3.16737 1.39128,5.14896c-0.56595,12.81132 -1.23928,26.9841 -1.6053,30.22013c-0.122,1.07869 -2.04201,5.23122 -2.04201,5.23122z" fill="#ffffff" stroke="#2f3bd4" stroke-width="2.5" stroke-linecap="round"/><path d="M218.812,126.39358c-0.64364,-1.07153 0.42789,-1.7152 0.42789,-1.7152l1.32369,-0.74725c0.11902,-0.03466 0.23792,-0.06856 0.35676,-0.10169c-0.93116,-5.79836 0.29525,-12.7646 0.35392,-18.48276c0.01522,-1.48292 -0.29761,-5.50606 0.43876,-6.76644c1.23305,-2.11055 2.93471,-1.48952 4.83062,-1.46492c3.22587,0.04187 6.4252,0.12277 9.62295,-0.30812c7.92664,-1.05864 15.77588,-1.21192 23.73383,-1.78326c2.51119,-0.18029 4.96272,-0.23859 7.48147,0.0109c0.68918,0.06827 1.57576,-0.17107 2.05083,0.33284c1.68257,1.78471 0.92266,3.73325 0.5772,5.6908c-0.6891,3.90472 -2.35516,7.41105 -2.53213,11.41687c-0.15587,3.06372 -0.67337,6.20242 -1.10771,9.23704c-0.14989,1.04723 0.16357,2.99451 -0.90871,3.7676c-2.19865,1.58516 -7.83021,0.29667 -10.36773,0.1771c-7.73741,-0.36458 -15.47378,-0.88887 -23.22016,-0.812c-2.7706,0.12225 -5.41323,0.32008 -8.06868,0.85947c-0.03161,0.3722 -0.21579,0.84748 -0.90278,1.04107c-0.74536,0.21003 -1.15907,-0.1718 -1.36598,-0.49277c-0.09059,0.02557 -0.18123,0.05162 -0.27194,0.07816l-0.73686,0.49047c0,0 -1.07153,0.64364 -1.7152,-0.42789z" fill="#2f3bd4" stroke="none" stroke-width="0.5" stroke-linecap="butt"/><g fill="none" stroke-width="3"><path d="M254.53559,173.42057c-0.79894,-1.3751 0.13979,-2.57531 1.38796,-3.76749c1.24817,-1.19216 2.48309,-1.53834 3.13208,-0.54977c1.376,2.09606 -0.13342,3.04022 -1.11077,3.97371c-1.24818,1.19218 -2.28096,2.28556 -3.40926,0.34355z" stroke="#2f3bd4" stroke-linecap="butt"/><path d="M255.532,172.85055l-2.6421,2.46472" stroke="#2f3bd4" stroke-linecap="round"/><path d="M249.33101,175.87027c1.24817,-1.19216 2.48309,-1.53834 3.13208,-0.54977c1.376,2.09606 -0.13342,3.04022 -1.11077,3.97371c-1.24817,1.19217 -2.28095,2.28556 -3.40925,0.34355c-0.79894,-1.3751 0.13978,-2.57531 1.38794,-3.7675z" stroke="#2f3bd4" stroke-linecap="butt"/><path d="M248.93944,179.06773l-2.6421,2.46474" stroke="#2f3bd4" stroke-linecap="round"/><path d="M240.68575,180.96267c0.43477,-1.62634 1.7693,-1.44377 3.27918,-0.95325c1.50988,0.49052 2.45762,1.48731 2.1886,2.72956c-0.57039,2.63392 -2.07024,1.73533 -3.25251,1.35125c-1.50988,-0.49051 -2.82928,-0.83073 -2.21526,-3.12754z" stroke="#2f3bd4" stroke-linecap="butt"/><path d="M241.64093,181.58852l-3.15751,-1.07445" stroke="#2f3bd4" stroke-linecap="round"/><path d="M233.57913,176.43728c0.92034,-1.29776 2.07843,-0.48623 3.29722,0.69502c1.2188,1.18125 1.76193,2.56109 1.11648,3.5827c-1.36856,2.16613 -2.44675,0.61157 -3.40112,-0.31339c-1.21881,-1.18126 -2.31233,-2.13157 -1.01258,-3.96432z" stroke="#2f3bd4" stroke-linecap="butt"/><path d="M231.71543,174.96157l2.53313,2.51537" stroke="#2f3bd4" stroke-linecap="round"/><path d="M227.20497,170.17795c0.92034,-1.29774 2.07843,-0.48623 3.29722,0.69502c1.21881,1.18125 1.76193,2.56109 1.11648,3.5827c-1.36855,2.16612 -2.44675,0.61157 -3.40112,-0.31339c-1.2188,-1.18125 -2.31232,-2.13157 -1.01257,-3.96432z" stroke="#2f3bd4" stroke-linecap="butt"/><path d="M225.34127,168.70223l2.53314,2.51537" stroke="#b9b9b9" stroke-linecap="round"/></g><g><g stroke="#2f3bd4" stroke-width="3" stroke-linecap="round"><path d="M200.88428,198.35234l13.73536,-26.78341c0,0 2.6844,-5.04526 3.8372,-5.06641c3.45839,-0.06347 9.10999,3.23594 15.38335,5.36725c1.04275,0.35426 -0.32461,6.11883 -0.32461,6.11883c0,0 -2.5516,8.97483 -4.18475,14.71918c-2.48713,8.74807 -6.37295,22.41588 -6.37295,22.41588c0,0 -1.75914,7.05905 -3.62629,6.25576c0,0 -9.96729,0.55399 -23.96856,-8.94016c0.52647,-4.57748 5.52125,-14.08691 5.52125,-14.08691z" data-paper-data="{&quot;origPos&quot;:null}" fill="#ffffff"/><path d="M200.27368,200.36377l23.91682,9.4184l-1.2016,3.18275l-23.97032,-9.16537z" data-paper-data="{&quot;origPos&quot;:null}" fill="none"/></g><path d="M201.11837,200.19464l17.07608,-33.29262l14.72224,5.7695l0.95114,1.08675l-9.31289,35.67193z" fill="#ffffff" stroke="#2f3bd4" stroke-width="1" stroke-linecap="round"/><path d="M199.37335,203.42496l0.83522,-2.17633l23.80784,9.1367l-0.83521,2.17634z" fill="#ffffff" stroke="none" stroke-width="0" stroke-linecap="butt"/></g><path d="M241.75399,152.30724c0.4344,0.88089 0.01021,3.1051 -1.63099,2.63376c-0.73071,-0.20985 -6.37587,-4.14399 -3.92246,-5.35389c0.33528,-0.49629 0.91681,-0.80744 1.55791,-0.76829c0.71325,0.04356 1.30055,0.50852 1.53445,1.13783c1.04638,0.82884 2.21306,1.84759 2.46111,2.35058z" fill="#ffffff" stroke="none" stroke-width="0.5" stroke-linecap="butt"/><g fill="#ffffff" stroke-linecap="butt"><path d="M263.33648,151.77283c-1.16612,1.7757 -3.22466,2.8944 -5.49705,2.75563c-3.37645,-0.20619 -5.94646,-3.11049 -5.74027,-6.48695c0.20619,-3.37645 3.1105,-5.94646 6.48695,-5.74027c3.37646,0.20619 5.94646,3.1105 5.74027,6.48695c-0.06742,1.10406 -0.42334,2.1219 -0.98991,2.98464z" data-paper-data="{&quot;index&quot;:null}" stroke="#000000" stroke-width="2.5"/><path d="M261.66135,150.98869c0.30873,-0.59618 0.94824,-0.98622 1.6615,-0.94266c0.6411,0.03915 1.18043,0.41875 1.45283,0.95215c2.28795,1.49945 -3.79397,4.71744 -4.54478,4.83682c-1.68636,0.26813 -1.83676,-1.99117 -1.29839,-2.81265c0.30741,-0.46907 1.58938,-1.3383 2.72884,-2.03366z" data-paper-data="{&quot;index&quot;:null}" stroke="none" stroke-width="0.5"/><path d="M263.54736,150.74434c2.09478,0.12792 3.69196,1.88508 3.5674,3.92475c-0.12456,2.03965 -1.92369,3.58942 -4.01846,3.4615c-2.09478,-0.12792 -3.69196,-1.88509 -3.5674,-3.92475c0.12456,-2.03965 1.92369,-3.58942 4.01846,-3.4615z" data-paper-data="{&quot;index&quot;:null}" stroke="#000000" stroke-width="2.5"/></g><g data-paper-data="{&quot;index&quot;:null}" fill="#ffffff" stroke-linecap="butt"><path d="M236.87584,147.64061c0.20619,-3.37645 3.11049,-5.94646 6.48695,-5.74027c3.37646,0.20619 5.94646,3.1105 5.74027,6.48695c-0.20619,3.37646 -3.11049,5.94646 -6.48695,5.74027c-2.2724,-0.13877 -4.1795,-1.49964 -5.12089,-3.40404c-0.45738,-0.92528 -0.6868,-1.97885 -0.61938,-3.08292z" data-paper-data="{&quot;index&quot;:null}" stroke="#000000" stroke-width="2.5"/><path d="M241.71442,152.49963c0.43441,0.88089 0.01021,3.1051 -1.63099,2.63376c-0.73071,-0.20985 -6.37586,-4.14399 -3.92246,-5.35389c0.33529,-0.49628 0.91681,-0.80744 1.55791,-0.76829c0.71326,0.04356 1.30055,0.50852 1.53444,1.13784c1.04638,0.82884 2.21306,1.84759 2.46111,2.35058z" data-paper-data="{&quot;index&quot;:null}" stroke="none" stroke-width="0.5"/><path d="M240.97846,153.60176c-0.12456,2.03965 -1.92369,3.58942 -4.01846,3.4615c-2.09478,-0.12792 -3.69196,-1.88508 -3.5674,-3.92475c0.12456,-2.03965 1.92369,-3.58942 4.01846,-3.4615c2.09478,0.12792 3.69196,1.88509 3.5674,3.92475z" data-paper-data="{&quot;index&quot;:null}" stroke="#000000" stroke-width="2.5"/></g></g></g></svg>