<svg version="1.1" xmlns="http://www.w3.org/2000/svg" xmlns:xlink="http://www.w3.org/1999/xlink" width="220.26654" height="257.84143" viewBox="0,0,220.26654,257.84143"><g transform="translate(-189.86673,-51.0793)"><g data-paper-data="{&quot;isPaintingLayer&quot;:true}" fill-rule="nonzero" stroke-linejoin="miter" stroke-miterlimit="10" stroke-dasharray="" stroke-dashoffset="0" style="mix-blend-mode: normal"><path d="M189.86673,308.92071v-257.84141h220.26654v257.84143z" fill="none" stroke="none" stroke-width="NaN" stroke-linecap="butt"/><g><g><g data-paper-data="{&quot;origRot&quot;:0}" stroke="#000000" stroke-width="3" stroke-linecap="round"><path d="M384.93942,211.64266c1.04437,2.22861 -7.63629,4.53668 -7.63629,4.53668c0,0 -22.78848,6.7436 -33.53777,9.974c-4.71931,0.69445 -22.32596,-34.27797 -20.47238,-39.79003c0.82628,-2.4571 8.90773,-8.55904 10.86804,-7.91584c3.7313,1.22425 15.17465,13.79819 15.17465,13.79819l-3.79001,1.95816l10.41512,-4.17718c0,0 11.68439,-5.9171 17.26796,-7.02903c3.09669,-0.61669 11.71069,28.64506 11.71069,28.64506z" data-paper-data="{&quot;origPos&quot;:null}" fill="#000000"/><path d="M363.81663,187.24742l11.58945,27.84597" fill="none"/><path d="M359.84507,189.12613l11.86158,27.7384" data-paper-data="{&quot;origPos&quot;:null}" fill="none"/></g><path d="M375.47713,215.73769l-2.66495,1.0724l-12.03785,-28.41066l2.66495,-1.0724z" fill="#000000" stroke="none" stroke-width="0" stroke-linecap="butt"/><path d="M343.55154,226.40773l-7.31987,-8.49932l-10.43201,-21.74182l-1.81558,-8.30252l1.9135,-4.7786l6.93714,-3.24741l1.38742,-0.64948l13.79654,12.40111l-2.66378,1.52431l0.88862,1.80281l12.58884,-5.06105l12.74642,27.59207l-26.7509,8.08509z" fill="#000000" stroke="#000000" stroke-width="0.5" stroke-linecap="round"/></g><g fill="#000000" stroke="#000000" stroke-width="2" stroke-linecap="round"><path d="M352.40585,190.60391c0,0 2.3859,-4.41389 5.5128,-2.90096c5.00291,2.42061 -15.03668,34.35198 -20.38494,32.14185c-2.18517,-0.90301 -1.00323,-4.36479 -1.00323,-4.36479l2.10742,0.59353c0,0 5.09733,-5.08567 9.94022,-12.41987c4.77578,-7.23257 6.54324,-12.84353 6.54324,-12.84353z"/><path d="M342.52883,188.87037c0,0 -1.20942,-4.35389 1.47013,-4.32981c5.62478,0.05053 13.87237,40.73643 8.61446,39.45801c-3.18429,-0.77423 -2.95827,-4.83523 -2.95827,-4.83523l1.56013,0.39066c0,0 -0.12159,-6.2495 -2.14346,-15.42523c-2.02185,-9.17575 -5.0399,-15.06794 -5.0399,-15.06794z" data-paper-data="{&quot;index&quot;:null}"/></g></g><g fill="#000000" stroke="#000000" stroke-linecap="round"><path d="M320.57734,186.69451c0,0 -29.58971,0.58212 -26.22142,-17.09629c1.24098,-6.51331 17.30463,-1.93632 17.30463,-1.93632z" data-paper-data="{&quot;origPos&quot;:null}" stroke-width="2"/><path d="M314.68854,173.7179c0,0 -15.69104,-4.81658 -15.36398,-5.38101c1.03704,-1.78958 12.80962,0.94681 12.80962,0.94681z" data-paper-data="{&quot;origPos&quot;:null}" stroke-width="1"/></g><g data-paper-data="{&quot;origRot&quot;:0}" stroke="#000000" stroke-linecap="round"><path d="M342.32113,227.18672c0,0 3.16549,-3.67835 4.34785,-2.65174c3.48894,3.0294 8.01026,4.68601 10.18043,8.71899c0.90118,1.6747 -1.40562,5.32697 -1.40562,5.32697l-18.74252,27.6135c0,0 -1.89716,2.87587 -3.04695,4.4908c-1.22933,1.72663 -4.15364,3.40949 -5.84208,2.10216c-6.19939,-4.80006 -10.96878,-6.67716 -14.04604,-10.62861c-1.1211,-1.43958 -2.2139,-3.03909 -1.65137,-4.76116c0.7348,-2.24949 4.24085,-5.14975 4.24085,-5.14975z" data-paper-data="{&quot;origPos&quot;:null}" fill="#ff0000" stroke-width="3"/><path d="M331.44494,273.25505c0,0 -6.3911,-1.83031 -10.37696,-5.11509c-3.05809,-2.5202 -9.00329,-8.76063 -9.00329,-8.76063c0,0 0.66775,-2.86457 1.65823,-4.14393c1.04341,-1.34774 3.55337,-2.58774 3.55337,-2.58774l18.79266,14.44289z" data-paper-data="{&quot;origPos&quot;:null}" fill="#976e57" stroke-width="2"/><path d="M342.1723,227.48425c0,0 3.16549,-3.67835 4.34784,-2.65173c3.48892,3.0294 8.01027,4.68601 10.18042,8.71901c0.90118,1.6747 -1.40562,5.32696 -1.40562,5.32696l-18.74252,27.6135c0,0 -1.89715,2.8759 -3.04693,4.49082c-1.22933,1.72663 -4.15363,3.40949 -5.84208,2.10216c-6.19939,-4.80006 -10.96879,-6.67716 -14.04605,-10.62861c-1.1211,-1.43958 -2.21388,-3.0391 -1.65135,-4.76114c0.7348,-2.24949 4.24083,-5.14975 4.24083,-5.14975z" data-paper-data="{&quot;origPos&quot;:null}" fill="#000000" stroke-width="3"/></g><path d="M290.73936,266.53229c0,0 -2.31553,3.87218 -4.45928,4.97144c-1.64112,0.84153 -3.44854,0.07337 -5.09935,-0.74995c-4.53126,-2.25994 -7.26346,-6.50697 -13.19922,-11.61373c-1.61662,-1.39086 -0.42904,-4.49154 1.09981,-5.97362c1.42995,-1.38621 4.00279,-3.71046 4.00279,-3.71046l24.6116,-22.82214c0,0 3.28539,-2.85336 5.13518,-2.28224c4.45465,1.37535 6.92066,5.42301 10.59256,8.23955c1.24434,0.95449 -1.91688,4.63628 -1.91688,4.63628c0,0 -5.25115,7.40998 -8.61216,12.15275c-4.74367,6.69385 -12.15505,17.15214 -12.15505,17.15214z" fill="#000000" stroke="#000000" stroke-width="3" stroke-linecap="round"/><g><g fill="#000000"><path d="M309.33374,189.04362c0,0 4.06821,-13.89438 6.38169,-14.11718c6.94041,-0.66839 22.13787,2.4166 32.38423,3.86649c1.58398,0.22413 1.01976,13.73465 1.01976,13.73465l-2.52772,30.39943c0,0 -1.88339,14.75441 -3.61136,14.5099c-15.38205,-2.17661 -33.53259,-3.88876 -40.26865,-5.68641c-2.24533,-0.5992 0.86216,-15.98357 0.86216,-15.98357z" data-paper-data="{&quot;origPos&quot;:null}" stroke="#000000" stroke-width="3.5" stroke-linecap="round"/><path d="M327.68728,199.87402c-1.33823,-0.18937 -0.9831,-2.63708 -0.9831,-2.63708c0.73655,-5.07675 1.70985,-11.7853 2.44641,-16.86205c0,0 0.35512,-2.44772 1.69335,-2.25836c1.33823,0.18937 0.9831,2.63707 0.9831,2.63707c-0.73655,5.07675 -1.47311,10.15349 -2.20966,15.23024l-0.23676,1.6318c0,0 -0.35512,2.44773 -1.69335,2.25836z" stroke="none" stroke-width="0.5" stroke-linecap="butt"/><path d="M339.21561,207.86529c-1.33823,-0.18937 -0.89209,-3.26438 -0.89209,-3.26438c0.92531,-6.37783 2.14806,-14.80567 3.07339,-21.18347c0,0 0.44614,-3.07502 1.78437,-2.88566c1.33823,0.18937 0.89209,3.26438 0.89209,3.26438c-0.92531,6.37783 -1.85064,12.75565 -2.77595,19.13348l-0.29742,2.05001c0,0 -0.44614,3.07503 -1.78437,2.88567z" stroke="none" stroke-width="0.5" stroke-linecap="butt"/></g><g fill="none" stroke-width="3"><path d="M345.19902,183.10428c-0.66346,-1.45769 0.45699,-2.52385 1.89791,-3.54311c1.44093,-1.01923 2.76567,-1.20528 3.32016,-0.14794c1.17565,2.24188 -0.50664,2.98345 -1.63492,3.78155c-1.44093,1.01925 -2.64615,1.96816 -3.58314,-0.09048z" stroke="#000000" stroke-linecap="butt"/><path d="M343.2601,184.76676l3.043,-2.09945" stroke="#000000" stroke-linecap="round"/><path d="M339.49594,184.86609c1.44093,-1.01923 2.76568,-1.20528 3.32016,-0.14794c1.17565,2.24188 -0.50664,2.98345 -1.63492,3.78155c-1.44091,1.01925 -2.64614,1.96815 -3.58314,-0.09049c-0.66346,-1.45769 0.45697,-2.52386 1.8979,-3.54313z" stroke="#000000" stroke-linecap="butt"/><path d="M335.65911,190.07167l3.04299,-2.09947" stroke="#000000" stroke-linecap="round"/><path d="M329.89876,188.80235c0.64852,-1.5502 2.01274,-1.20188 3.52182,-0.52759c1.50908,0.6743 2.37292,1.77738 1.94308,2.96942c-0.91138,2.52744 -2.36064,1.4517 -3.54229,0.92371c-1.50907,-0.67429 -2.83849,-1.17626 -1.92259,-3.36554z" stroke="#000000" stroke-linecap="butt"/><path d="M330.81525,189.54033l-3.14996,-1.45814" stroke="#000000" stroke-linecap="round"/><path d="M323.06426,183.44111c1.11316,-1.16475 2.21794,-0.218 3.34102,1.10129c1.12309,1.31928 1.52025,2.74941 0.72608,3.67629c-1.68388,1.96524 -2.61571,0.29526 -3.49515,-0.73777c-1.12309,-1.31929 -2.144,-2.39489 -0.57195,-4.0398z" stroke="#000000" stroke-linecap="butt"/><path d="M323.63379,184.55145l-2.3269,-2.80146" stroke="#b9b9b9" stroke-linecap="round"/><path d="M317.20053,176.46097c1.11315,-1.16473 2.21792,-0.218 3.34102,1.10129c1.1231,1.31929 1.52025,2.74941 0.72608,3.67629c-1.68388,1.96523 -2.61571,0.29526 -3.49515,-0.73777c-1.12309,-1.31928 -2.14399,-2.39488 -0.57193,-4.0398z" stroke="#b9b9b9" stroke-linecap="butt"/><path d="M315.44317,174.76982l2.32691,2.80147" stroke="#b9b9b9" stroke-linecap="round"/></g></g><path d="M350.34123,180.63597c-12.39499,-0.43073 -24.41342,-0.88449 -29.27701,-2.10665c-4.44501,-1.11697 -5.66782,-3.93513 -5.66782,-3.93513c0,0 -1.68636,-2.51199 -1.70256,-4.04692c-0.0486,-4.60478 0.44491,-17.74635 1.9465,-29.02879c0.05012,-0.37655 0.09228,-0.58641 0.16532,-0.95938c0.21912,-1.11891 1.26437,-5.45331 1.26437,-5.45331c0,0 3.34786,-1.51124 5.1463,-1.90459c5.39533,-1.18004 18.86889,0.916 33.11202,1.97264c1.29095,0.09578 3.4275,1.87482 3.4275,1.87482c0,0 1.43125,3.20525 1.28784,5.18386c-0.92711,12.79196 -2.00118,26.94205 -2.46418,30.16732c-0.15432,1.07509 -2.23616,5.17556 -2.23616,5.17556z" fill="#000000" stroke="#000000" stroke-width="2.5" stroke-linecap="round"/><path d="M312.63935,135.71513c-0.63124,-1.08814 0.48532,-1.70332 0.48532,-1.70332l1.37802,-0.71209c0.12303,-0.03151 0.24591,-0.06226 0.36871,-0.09225c-0.79831,-5.82089 0.64815,-12.75238 0.86301,-18.46701c0.05572,-1.48201 -0.15632,-5.51199 0.63311,-6.75252c1.32192,-2.07731 3.05064,-1.41164 4.99475,-1.33706c3.30787,0.12689 6.58747,0.29211 9.87929,-0.05432c8.15956,-0.8493 16.21524,-0.79561 24.39373,-1.15695c2.58078,-0.11401 5.09708,-0.10768 7.67398,0.20813c0.70509,0.0864 1.621,-0.12948 2.09468,0.3868c1.67766,1.82844 0.84544,3.75626 0.43812,5.70404c-0.81249,3.88519 -2.61633,7.34639 -2.90623,11.34615c-0.24277,3.05855 -0.85851,6.1825 -1.38614,9.20462c-0.18209,1.0429 0.08677,2.9978 -1.03405,3.74234c-2.2982,1.52665 -8.04003,0.09014 -10.63973,-0.09628c-7.92695,-0.56844 -15.84852,-1.29649 -23.79661,-1.42387c-2.8453,0.04917 -5.56139,0.17726 -8.29989,0.64646c-0.04248,0.37123 -0.24427,0.84151 -0.9542,1.01692c-0.77023,0.19031 -1.18429,-0.2023 -1.38786,-0.52862c-0.09361,0.02317 -0.1873,0.04683 -0.28107,0.07096l-0.76911,0.47087c0,0 -1.11657,0.61517 -1.74782,-0.47297z" fill="#000000" stroke="none" stroke-width="0.5" stroke-linecap="butt"/><path d="M332.32406,153.81842c4.9579,-2.18613 9.19373,0.25759 10.55477,5.13547c1.56096,5.59435 -2.5556,8.48668 -2.5556,8.48668c0,0 -2.5518,-1.2275 -5.85462,-1.7995c-4.11254,-0.71222 -6.41455,-0.38424 -6.41455,-0.38424c0,0 -2.45593,-8.4727 4.27,-11.43842z" fill="#000000" stroke="#000000" stroke-width="2" stroke-linecap="butt"/><path d="M351.38228,155.70143c4.9579,-2.18613 9.19373,0.25759 10.55477,5.13547c1.56096,5.59435 -2.5556,8.48668 -2.5556,8.48668c0,0 -2.5518,-1.2275 -5.85462,-1.7995c-4.11254,-0.71222 -6.41455,-0.38424 -6.41455,-0.38424c0,0 -2.45593,-8.4727 4.27,-11.43842z" fill="#000000" stroke="#000000" stroke-width="2" stroke-linecap="butt"/><g data-paper-data="{&quot;index&quot;:null}"><g stroke="#000000" stroke-width="3" stroke-linecap="round"><path d="M289.31145,205.21806l17.1603,-25.23057c0,0 3.33332,-4.74277 4.53299,-4.64537c3.59901,0.29222 9.11279,4.15489 15.39853,6.9195c1.04482,0.45954 -0.99824,6.05314 -0.99824,6.05314c0,0 -3.61991,8.66522 -5.93685,14.2114c-3.52848,8.44627 -9.04125,21.64258 -9.04125,21.64258c0,0 -2.58982,6.84099 -4.44243,5.8501c0,0 -10.41268,-0.47303 -23.92981,-11.35564c1.04138,-4.49919 7.25674,-13.44515 7.25674,-13.44515z" data-paper-data="{&quot;origPos&quot;:null}" fill="#582700"/><path d="M288.45988,207.15612l23.8244,11.82605l-1.59195,3.04246l-23.90731,-11.57984z" data-paper-data="{&quot;origPos&quot;:null}" fill="none"/></g><path d="M289.35558,207.07464l21.33347,-31.36212l14.66837,7.25171l0.87051,1.17874l-13.52704,34.52652z" fill="#000000" stroke="#000000" stroke-width="1" stroke-linecap="round"/><path d="M287.19402,210.10859l1.10266,-2.07901l23.74163,11.53465l-1.10266,2.07901z" fill="#ffffff" stroke="none" stroke-width="0" stroke-linecap="butt"/></g><path d="M304.37234,185.22911l0.20415,0.0128c0.56521,2.08043 0.24977,3.80109 0.56967,5.88325c0.21985,1.431 0.90017,2.12827 1.00059,3.65829c0.06234,0.95 -0.35779,1.99114 0.04059,2.85582c1.0023,2.17547 3.11617,2.02679 3.93915,4.69989c0.34609,1.12414 -0.61257,2.35632 -0.37615,3.50853c0.2162,1.05363 3.09864,2.49392 3.73815,3.37754c2.44242,3.37479 2.04575,6.47424 0.85877,10.14664c-1.20202,3.71892 -1.94786,9.11427 -6.52913,10.21949c-2.10395,0.50756 -4.41258,-0.61932 -6.35481,-1.24707c-4.12167,-1.3322 -8.78957,-3.07682 -12.6119,-5.162c-1.6351,-0.892 -4.40981,-2.86022 -4.9115,-4.77598c-0.29786,-1.13739 0.50926,-3.25571 0.86907,-4.37795c2.06766,-6.35758 5.94769,-13.22065 9.80366,-18.67694c2.07208,-2.93204 4.18338,-5.19948 5.60938,-8.2868c-0.53886,-1.2235 0.63998,-2.05567 0.63998,-2.05567l0.15914,0.00998c0.13674,-0.33097 0.73443,-1.50776 2.1716,-1.04323c0.80395,0.25985 1.09431,0.78241 1.17958,1.25341z" fill="#000000" stroke="none" stroke-width="0.5" stroke-linecap="butt"/><path d="M306.08923,231.8332c0,0 -2.64808,1.32535 -3.81188,0.91891c-7.75168,-2.70718 -15.26021,-5.35458 -18.07926,-7.07177c-2.57641,-1.56938 -2.75453,-3.56259 -2.75453,-3.56259c0,0 -0.53611,-1.89402 -0.22196,-2.85175c0.94243,-2.8732 4.0321,-10.94854 7.3667,-17.66934c0.11129,-0.22429 0.18232,-0.34649 0.30736,-0.56406c0.37513,-0.65271 1.95255,-3.14248 1.95255,-3.14248c0,0 2.43769,-0.28097 3.65875,-0.17164c3.6632,0.32796 11.74536,4.28302 20.53412,7.74315c0.79659,0.31362 1.77245,1.84046 1.77245,1.84046c0,0 0.2282,2.27495 -0.28072,3.47718c-3.29011,7.77262 -6.96027,16.36086 -7.93485,18.27547z" fill="#000000" stroke="#000000" stroke-width="2.5" stroke-linecap="round"/><g data-paper-data="{&quot;index&quot;:null}" fill="#000000" stroke="#000000" stroke-width="1.25" stroke-linecap="butt"><path d="M326.68188,179.7125c-10.43736,-2.05001 -5.65347,-12.4695 -5.65347,-12.4695l15.56382,2.91406c0,0 1.14001,11.72585 -9.91035,9.55544z"/><path d="M325.99662,176.22306c2.70489,1.40134 4.57208,3.67848 4.09627,3.72057c-0.98322,0.087 -2.11302,0.02379 -3.41101,-0.23115c-3.89018,-0.76407 -5.66585,-2.69082 -6.36284,-4.80739c-0.1354,-0.41119 3.19371,0.03112 5.67757,1.31796z"/><path d="M320.14947,170.89142c0.3242,-1.49698 0.87894,-3.64844 0.87894,-3.64844l13.67833,2.56104l-0.64891,3.79996c0,0 -13.91907,-2.66322 -13.90838,-2.71256z"/></g><path d="M285.71527,210.57777c0.0058,-0.02034 0.00944,-0.03125 0.00944,-0.03125c1.14989,-3.29544 0.96635,-8.88677 3.64993,-11.51063c3.23209,-3.16015 11.52989,-1.7439 14.68723,0.88467c3.39188,2.82382 2.78731,8.10337 -1.03953,10.0168c-1.09377,2.26787 -3.99978,4.12917 -6.40959,4.99606c-1.37915,0.49612 -3.02352,-0.02247 -4.35815,0.58329c-2.51068,1.13954 -1.81137,4.30932 -5.37956,3.02376c-0.39715,1.20287 -1.21578,3.1845 -1.44215,3.7495l-0.57502,1.72507c-0.21992,0.71509 -0.88574,1.23488 -1.67296,1.23488c-0.78722,0 -1.45303,-0.51979 -1.67296,-1.23488l-0.58724,-1.76172l0.10198,-0.03399c-0.07926,-0.18358 -0.14422,-0.3733 -0.19103,-0.57081c-0.20603,-0.8693 0.61589,-1.67759 0.89709,-2.52556c0.88696,-2.67462 1.41516,-5.25242 2.6869,-7.80566z" fill="#000000" stroke="none" stroke-width="0.5" stroke-linecap="butt"/><path d="M273.60712,199.04434c0,1.07389 -1.81076,1.94444 -4.04444,1.94444c-2.23368,0 -4.04444,-0.87056 -4.04444,-1.94444c0,-1.07389 1.81076,-1.94444 4.04444,-1.94444c2.23368,0 4.04444,0.87056 4.04444,1.94444z" fill="#000000" stroke="none" stroke-width="0" stroke-linecap="butt"/><path d="M264.74046,204.25543c0,0.68729 -1.28843,1.24444 -2.87778,1.24444c-1.58935,0 -2.87778,-0.55715 -2.87778,-1.24444c0,-0.68729 1.28843,-1.24444 2.87778,-1.24444c1.58935,0 2.87778,0.55715 2.87778,1.24444z" fill="#000000" stroke="none" stroke-width="0" stroke-linecap="butt"/><path d="M294.71033,248.74129c1.56444,1.34715 3.87684,3.19928 4.36741,5.34002c0.30408,1.32695 -0.01851,2.10597 -0.3704,3.02036c0.72906,-0.0959 1.48056,-0.27176 1.94695,0.20352c2.7161,2.76788 -1.14161,6.39477 -1.68996,8.70916c-0.31563,1.33217 0.68228,2.85327 0.12813,4.10516c-1.73556,3.92091 -6.53967,4.17756 -10.05184,3.74421l-1.83294,-1.08649c0,0 -0.01415,-0.01061 -0.03853,-0.03112c-3.16788,1.35269 -8.08616,-0.37246 -11.41147,-0.36888c-4.81052,0 -9.36594,-0.64811 -14.12406,-1.0044c-5.34433,-0.40019 -12.01696,0.92386 -17.11048,-1.40721c-1.28269,-0.58703 -2.16641,-1.85502 -3.43516,-2.47159c-1.11563,-0.54216 -2.56648,0.04787 -3.69052,-0.47663c-0.95024,-0.44339 -1.65825,-1.28391 -2.48737,-1.92587c0.15286,-1.17627 -0.15394,-2.51303 0.45858,-3.5288c0.69137,-1.14653 -0.78104,-0.71233 0.15157,-1.67293c2.15861,-2.22343 -3.40795,-4.6233 1.0535,-4.51132c2.33691,0.05866 13.50278,0.89648 15.93927,0.51594c1.28362,-0.20048 2.41399,-1.02233 3.69459,-1.24127c3.42955,-0.58635 7.04312,-0.73477 10.54895,-0.47954c0.01519,-0.35425 2.25908,-0.48867 2.22335,-0.82415l1,-0.80556c0,0 -1.55556,-0.89442 -0.38449,-1.22999c0.56342,-0.5226 0.65151,-0.88712 0.81673,-1.60157c0.18126,-0.78383 0.76539,-2.57132 1.27887,-3.19067c0.45886,-0.55347 3.5947,-1.68404 4.42736,-1.64094c0.48929,0.02533 2.82889,1.25518 3.63931,1.2465c1.329,-0.01424 2.53628,-1.10765 3.86069,-0.9965c2.02568,0.17001 2.3999,1.13035 3.93714,1.93894c1.85056,0.97341 3.8532,0.57652 5.46511,1.29909c0.89022,-0.31275 1.68971,0.37253 1.68971,0.37253z" fill="#000000" stroke="none" stroke-width="0.5" stroke-linecap="butt"/><g fill="#000000" stroke="none" stroke-width="0" stroke-linecap="butt"><path d="M258.45623,237.95475c-0.56209,0.91504 -2.56066,0.70902 -4.46392,-0.46013c-1.90326,-1.16915 -2.9905,-2.85872 -2.42841,-3.77375c0.56209,-0.91504 2.56066,-0.70902 4.46392,0.46013c1.90326,1.16915 2.9905,2.85872 2.42841,3.77375z"/><path d="M248.17357,237.75404c-0.35974,0.58562 -1.7492,0.38597 -3.10345,-0.44593c-1.35425,-0.8319 -2.16046,-1.98102 -1.80072,-2.56664c0.35974,-0.58562 1.7492,-0.38597 3.10345,0.44593c1.35425,0.8319 2.16046,1.98102 1.80072,2.56664z"/></g></g></g></svg>