<svg version="1.1" xmlns="http://www.w3.org/2000/svg" xmlns:xlink="http://www.w3.org/1999/xlink" width="234" height="234" viewBox="0,0,234,234"><g transform="translate(-123,-63)"><g data-paper-data="{&quot;isPaintingLayer&quot;:true}" fill-rule="nonzero" stroke-linejoin="miter" stroke-miterlimit="10" stroke-dasharray="" stroke-dashoffset="0" style="mix-blend-mode: normal"><path d="M123,297v-234h234v234z" data-paper-data="{&quot;index&quot;:null}" fill="none" stroke="none" stroke-width="0" stroke-linecap="butt"/><g data-paper-data="{&quot;index&quot;:null}"><g data-paper-data="{&quot;index&quot;:null}" stroke="#2f3bd4"><path d="M282.43256,260.93288c-1.95172,4.47951 -27.21916,10.18395 -32.05514,7.91111c-4.95969,-2.33099 -11.24789,-13.17179 -13.92733,-19.87967c-2.67943,-6.70789 -2.20709,-17.16343 -1.28641,-18.20747c2.76203,-3.13213 14.54647,-2.51641 19.82219,-2.81482c3.15232,-0.17831 15.55613,-0.54078 19.22541,1.4479c3.88203,2.10397 9.57026,28.44677 8.22128,31.54291z" data-paper-data="{&quot;origRot&quot;:0,&quot;origPos&quot;:null}" fill="#ffffff" stroke-width="3" stroke-linecap="butt"/><path d="M251.31874,236.62074l19.46772,-3.68313" data-paper-data="{&quot;origPos&quot;:null}" fill="none" stroke-width="2" stroke-linecap="round"/><path d="M248.96919,240.30388l3.35651,24.5542" data-paper-data="{&quot;origPos&quot;:null}" fill="none" stroke-width="2" stroke-linecap="round"/></g><path d="M244.31206,263.16787c1.11653,-1.0369 2.23306,0 2.23306,0l0.58997,0.55148c0.35089,0.3666 0.70179,0.7332 1.05267,1.0998c0,0 1.04903,1.096 -0.13113,2.07023c-1.18016,0.97422 -2.2292,-0.12178 -2.2292,-0.12178c-0.35089,-0.3666 -0.70179,-0.7332 -1.05267,-1.0998l-0.4627,-0.42613c0,0 -1.11653,-1.0369 0,-2.07381z" fill="#2f3bd4" stroke="none" stroke-width="0.5" stroke-linecap="butt"/><path d="M271.40234,229.97727c-0.37559,-0.86083 -2.08767,-1.38854 -3.01499,-1.68501h-0.46175c-0.29069,0 -0.52634,-0.21885 -0.52634,-0.4888c0,-0.26996 0.23565,-0.4888 0.52634,-0.4888v0v0h0.52634v0.04209l0.08431,-0.03578c0.04433,0.01333 0.08908,0.02688 0.13418,0.04067c0.57932,-0.37092 2.15019,0.22271 2.7363,0.49343l0.22451,0.17303c0,0 0.37217,0.34564 0,0.69127c-0.00396,0.00368 -0.00791,0.00726 -0.01186,0.01078c0.29291,0.23615 0.54228,0.50405 0.72451,0.80992c0,0 0.23538,0.43719 -0.23539,0.6558c-0.47077,0.21859 -0.70615,-0.2186 -0.70615,-0.2186z" fill="#2f3bd4" stroke="none" stroke-width="0.5" stroke-linecap="butt"/></g><g data-paper-data="{&quot;index&quot;:null}"><g data-paper-data="{&quot;index&quot;:null}" stroke="#2f3bd4"><path d="M245.06268,260.93288c-1.95172,4.47951 -27.21916,10.18395 -32.05514,7.91111c-4.95969,-2.33099 -11.24789,-13.17179 -13.92733,-19.87967c-2.67943,-6.70789 -2.20709,-17.16343 -1.28641,-18.20747c2.76203,-3.13213 14.54647,-2.51641 19.82219,-2.81482c3.15232,-0.17831 15.55613,-0.54078 19.22541,1.4479c3.88203,2.10397 9.57026,28.44677 8.22128,31.54291z" data-paper-data="{&quot;origRot&quot;:0,&quot;origPos&quot;:null}" fill="#ffffff" stroke-width="3" stroke-linecap="butt"/><path d="M213.94886,236.62074l19.46772,-3.68313" data-paper-data="{&quot;origPos&quot;:null}" fill="none" stroke-width="2" stroke-linecap="round"/><path d="M211.59931,240.30388l3.35651,24.5542" data-paper-data="{&quot;origPos&quot;:null}" fill="none" stroke-width="2" stroke-linecap="round"/></g><path d="M206.94218,263.16787c1.11653,-1.0369 2.23306,0 2.23306,0l0.58997,0.55148c0.35089,0.3666 0.70179,0.7332 1.05267,1.0998c0,0 1.04903,1.096 -0.13113,2.07023c-1.18016,0.97422 -2.2292,-0.12178 -2.2292,-0.12178c-0.35089,-0.3666 -0.70179,-0.7332 -1.05267,-1.0998l-0.4627,-0.42613c0,0 -1.11653,-1.0369 0,-2.07381z" fill="#2f3bd4" stroke="none" stroke-width="0.5" stroke-linecap="butt"/><path d="M234.03246,229.97727c-0.37559,-0.86083 -2.08767,-1.38854 -3.01499,-1.68501h-0.46175c-0.29069,0 -0.52634,-0.21885 -0.52634,-0.4888c0,-0.26996 0.23565,-0.4888 0.52634,-0.4888v0v0h0.52634v0.04209l0.08431,-0.03578c0.04433,0.01333 0.08908,0.02688 0.13418,0.04067c0.57932,-0.37092 2.15019,0.22271 2.7363,0.49343l0.22451,0.17303c0,0 0.37217,0.34564 0,0.69127c-0.00396,0.00368 -0.00791,0.00726 -0.01186,0.01078c0.29291,0.23615 0.54228,0.50405 0.72451,0.80992c0,0 0.23538,0.43719 -0.23539,0.6558c-0.47077,0.21859 -0.70615,-0.2186 -0.70615,-0.2186z" fill="#2f3bd4" stroke="none" stroke-width="0.5" stroke-linecap="butt"/></g><g data-paper-data="{&quot;index&quot;:null}" fill="#ffffff" stroke="#2f3bd4" stroke-linecap="round"><path d="M232.32619,224.90893c0,0 -30.36099,0.13626 -26.62028,-17.09492c1.37817,-6.34853 17.78146,-1.63963 17.78146,-1.63963z" data-paper-data="{&quot;origPos&quot;:null}" stroke-width="2"/><path d="M226.49547,212.13834c0,0 -16.01722,-4.93764 -15.67262,-5.48458c1.09265,-1.73412 13.12412,1.11284 13.12412,1.11284z" data-paper-data="{&quot;origPos&quot;:null}" stroke-width="1"/></g><g data-paper-data="{&quot;index&quot;:null}"><path d="M222.01238,221.5527c0,0 5.04082,-10.49106 7.38147,-10.5709c7.02191,-0.23958 22.08626,2.72257 32.28604,4.23674c1.57679,0.23407 0.08425,10.56859 0.08425,10.56859l-4.62291,23.2038c0,0 -2.90367,11.2362 -4.62378,10.98084c-15.31212,-2.27307 -33.43877,-4.29894 -40.08637,-5.94169c-2.21586,-0.54757 1.96139,-12.21855 1.96139,-12.21855z" data-paper-data="{&quot;origPos&quot;:null}" fill="#ffffff" stroke="#2f3bd4" stroke-width="3.5" stroke-linecap="round"/><path d="M239.71855,230.57625c-1.33215,-0.19776 -0.80754,-2.06014 -0.80754,-2.06014c1.08808,-3.86271 2.52587,-8.96699 3.61396,-12.8297c0,0 0.52461,-1.86238 1.85675,-1.66462c1.33215,0.19776 0.80753,2.06014 0.80753,2.06014c-1.08808,3.86271 -2.17615,7.72542 -3.26422,11.58812l-0.34974,1.24159c0,0 -0.52461,1.86238 -1.85675,1.66462z" fill="#2f3bd4" stroke="none" stroke-width="0.5" stroke-linecap="butt"/><path d="M251.92454,232.06323c-1.33215,-0.19776 -0.67308,-2.53743 -0.67308,-2.53743c1.36693,-4.85265 3.17321,-11.26507 4.54014,-16.11772c0,0 0.65906,-2.33967 1.99119,-2.14191c1.33215,0.19776 0.67308,2.53742 0.67308,2.53742c-1.36693,4.85265 -2.73383,9.70529 -4.10077,14.55796l-0.43935,1.55978c0,0 -0.65905,2.33967 -1.99118,2.14191z" fill="#2f3bd4" stroke="none" stroke-width="0.5" stroke-linecap="butt"/></g><g data-paper-data="{&quot;index&quot;:null}" fill="none" stroke="#2f3bd4" stroke-width="3"><path d="M256.26931,221.29024c-0.56703,-1.46283 0.6322,-2.45202 2.15036,-3.3791c1.51814,-0.92706 2.86245,-1.0429 3.34737,0.02186c1.02813,2.25759 -0.71361,2.90022 -1.90235,3.62614c-1.51816,0.92708 -2.79457,1.79701 -3.59536,-0.26889z" stroke-linecap="butt"/><path d="M257.409,220.91722l-3.20245,1.90583" stroke-linecap="round"/><path d="M250.41621,222.73119c1.51814,-0.92706 2.86245,-1.0429 3.34738,0.02186c1.02813,2.25759 -0.71361,2.90023 -1.90235,3.62615c-1.51814,0.92707 -2.79457,1.797 -3.59536,-0.2689c-0.56703,-1.46283 0.63219,-2.45202 2.15034,-3.37912z" stroke-linecap="butt"/><path d="M246.20308,227.6431l3.20245,-1.90585" stroke-linecap="round"/><path d="M240.50004,226.10874c0.75804,-1.48758 2.10541,-1.07743 3.57607,-0.3403c1.47066,0.73712 2.2634,1.8623 1.7497,3.00965c-1.08919,2.4327 -2.47223,1.3049 -3.62379,0.72774c-1.47067,-0.73711 -2.77253,-1.29622 -1.70196,-3.39706z" stroke-linecap="butt"/><path d="M241.37067,226.87849l-3.06628,-1.58829" stroke-linecap="round"/><path d="M233.99756,220.50761c1.19867,-1.08623 2.24429,-0.10224 3.28278,1.24797c1.0385,1.35022 1.33975,2.77264 0.47801,3.64163c-1.82718,1.84255 -2.64941,0.15805 -3.46259,-0.89922c-1.03851,-1.35023 -1.991,-2.45632 -0.29819,-3.99036z" stroke-linecap="butt"/><path d="M234.49398,221.62509l-2.147,-2.86422" stroke-linecap="round"/><path d="M228.58176,213.36775c1.19866,-1.08621 2.24429,-0.10224 3.28278,1.24797c1.03851,1.35022 1.33975,2.77264 0.47801,3.64164c-1.82716,1.84254 -2.64941,0.15804 -3.46259,-0.89923c-1.0385,-1.35022 -1.99099,-2.45632 -0.29817,-3.99036z" stroke-linecap="butt"/><path d="M229.07821,214.48523l-2.14701,-2.86423" stroke-linecap="round"/></g><g data-paper-data="{&quot;index&quot;:null}"><g stroke="#2f3bd4" stroke-width="3" stroke-linecap="round"><path d="M197.3264,251.90257l15.80452,-25.504c0,0 3.07916,-4.79967 4.29234,-4.76585c3.63952,0.10142 9.414,3.59018 15.90165,5.96772c1.07836,0.39519 -0.65259,5.95945 -0.65259,5.95945c0,0 -3.13945,8.64301 -5.14884,14.17498c-3.06012,8.42465 -7.84117,21.58712 -7.84117,21.58712c0,0 -2.20875,6.80977 -4.13109,5.93718c0,0 -10.50822,0.07004 -24.74675,-9.86212c0.78643,-4.44485 6.52193,-13.49444 6.52193,-13.49444z" data-paper-data="{&quot;origPos&quot;:null}" fill="#ffffff"/><path d="M196.58208,253.8378l24.66802,10.32665l-1.42534,3.05107l-24.73715,-10.08211z" data-paper-data="{&quot;origPos&quot;:null}" fill="none"/></g><path d="M197.47882,253.71256l19.64823,-31.70214l15.18608,6.32924l0.94477,1.10611l-11.60673,34.39222z" fill="#ffffff" stroke="#2f3bd4" stroke-width="1" stroke-linecap="round"/><path d="M195.47969,256.78439l0.98891,-2.08564l24.56776,10.04645l-0.98889,2.08565z" fill="#ffffff" stroke="none" stroke-width="0" stroke-linecap="butt"/></g><g><g stroke="#2f3bd4" stroke-width="2.5" stroke-linecap="round"><path d="M226.27388,182.88135c1.89242,-4.78358 5.4778,-5.81474 5.4778,-5.81474c0,0 3.26679,-1.57794 5.14219,-1.42176c5.62626,0.46861 21.60782,2.50445 35.20019,5.44296c0.45363,0.09807 0.70475,0.16848 1.15132,0.29144c1.3396,0.36899 6.50569,2.01528 6.50569,2.01528c0,0 1.4461,3.86969 1.71214,5.901c0.79814,6.0939 -3.36399,20.74 -6.34903,36.35407c-0.27053,1.41522 -2.69636,3.57362 -2.69636,3.57362c0,0 -4.08259,1.21749 -6.48056,0.83464c-15.50323,-2.4751 -32.64664,-5.2666 -36.52822,-6.14389c-1.29386,-0.2924 -4.19014,-1.24923 -6.05103,-3.05725c-1.86091,-1.80802 -3.44073,-3.8246 -3.14028,-5.87293c0.30044,-2.04837 3.98546,-26.86841 6.05612,-32.10245z" data-paper-data="{&quot;index&quot;:null}" fill="#ffffff"/><path d="M227.80888,176.3629c1.89242,-4.78358 5.47777,-5.81471 5.47777,-5.81471c0,0 3.26679,-1.57794 5.14223,-1.42172c5.62629,0.46861 21.60782,2.50441 35.20019,5.44296c0.45363,0.09804 0.70475,0.16848 1.15132,0.29144c1.3396,0.36899 6.50569,2.01528 6.50569,2.01528c0,0 1.4461,3.86969 1.71214,5.901c0.79814,6.0939 -3.36399,20.74 -6.34898,36.35408c-0.27053,1.41522 -2.69633,3.57358 -2.69633,3.57358c0,0 -4.08259,1.21752 -6.48056,0.83468c-15.50323,-2.4751 -32.64664,-5.2666 -36.52822,-6.14389c-1.29386,-0.29244 -4.19014,-1.24923 -6.05103,-3.05729c-1.86091,-1.80802 -3.44073,-3.82456 -3.14032,-5.87294c0.30041,-2.04834 3.98549,-26.86841 6.05612,-32.10248z" data-paper-data="{&quot;index&quot;:null}" fill="#2f3bd4"/></g><g data-paper-data="{&quot;index&quot;:null}" fill="none" stroke="none" stroke-width="1" stroke-linecap="butt" font-family="sans-serif" font-weight="normal" font-size="12" text-anchor="start"/><g data-paper-data="{&quot;index&quot;:null}" fill="none" stroke="none" stroke-width="1" stroke-linecap="butt" font-family="sans-serif" font-weight="normal" font-size="12" text-anchor="start"/></g><path d="M211.00938,277.94727c-3.72737,-0.25352 -19.82771,-4.68589 -21.15552,-5.05363c-1.32779,-0.36773 -2.15339,-1.7174 -2.77949,-3.16157c-0.6261,-1.44414 -0.46666,-3.21496 -0.31297,-3.97136c0.46101,-2.26923 3.15839,-12.01343 5.62784,-20.8127c0.38195,-1.36103 2.17356,-3.19825 2.17356,-3.19825c0,0 1.9407,-0.72321 2.87424,-0.50229c10.2998,2.43724 20.31085,4.00609 23.82662,5.99105c1.17193,0.66166 3.16332,2.41675 3.16332,2.41675c0,0 -0.3213,3.14309 -0.43998,3.94323c-0.03958,0.26673 -0.06108,0.41705 -0.11767,0.6811c-1.69587,7.91202 -4.55633,16.85039 -5.7148,19.9334c-0.38617,1.02766 -2.1884,2.34275 -2.1884,2.34275c0,0 -1.55018,1.62324 -4.95675,1.39152z" fill="#ffffff" stroke="#2f3bd4" stroke-width="2.5" stroke-linecap="round"/><path d="M241.37454,245.94342c3.77145,10.37831 3.62035,12.39356 3.62035,12.39356c0.39668,1.32385 -1.02433,1.55506 -1.02433,1.55506c0,0 -2.69688,0.76096 -4.42303,1.248c-1.13345,0.31984 -2.90431,0.81949 -2.90431,0.81949c0,0 -1.16829,0.14362 -1.36817,-0.58346c-1.20239,-4.37412 -2.60239,-8.49402 -2.98087,-10.74438c-0.12618,-0.75012 0.72727,-1.84739 0.72727,-1.84739l5.25954,-2.11078c0,0 2.10227,-0.98133 3.09354,-0.73008z" fill="#ffffff" stroke="#2f3bd4" stroke-width="3" stroke-linecap="round"/><g data-paper-data="{&quot;index&quot;:null}"><path d="M244.03499,242.83287c2.56748,-0.67315 6.10905,-5.94867 6.7822,-3.73429c0.34286,1.12793 6.17543,21.84387 5.72281,23.06093c-0.43601,1.17222 -1.28932,2.06301 -2.54899,2.39329c-0.85702,0.22468 -2.29237,0.18568 -3.28775,-0.19567c-1.9866,-0.76109 -13.47067,-19.85289 -13.91914,-21.32814c-0.67315,-2.21441 4.68339,0.47704 7.25088,-0.1961z" fill="#0091d4" stroke="#000000" stroke-width="1.5" stroke-linecap="butt"/><g stroke-linecap="butt"><path d="M241.83167,235.50161c4.65167,-1.21959 9.12549,0.10407 9.99258,2.95647c0.86711,2.85238 -2.20088,6.15337 -6.85251,7.37298c-4.65167,1.21958 -9.12551,-0.10408 -9.99262,-2.95648c-0.86711,-2.85238 2.20089,-6.15337 6.85253,-7.37295z" fill="#0091d4" stroke="#000000" stroke-width="1.5"/><path d="M240.97282,245.33346c0,0 -1.86171,0.07987 -3.51437,-0.81192c-0.78146,-0.43617 -2.08159,-2.05617 -2.08159,-2.05617l4.26599,0.57867z" fill="#00aeff" stroke="none" stroke-width="0"/><path d="M244.84233,244.97598l-2.0488,0.48205c0,0 -0.50966,-0.65345 -0.66356,-1.05795c-0.13144,-0.34547 -0.31805,-1.37732 -0.31805,-1.37732l1.78359,-0.14435z" fill="#00aeff" stroke="none" stroke-width="0"/></g><g><path d="M243.87034,241.79303c-6.41709,1.68242 -14.18648,-0.72732 -15.99811,-6.68673c-1.81163,-5.95945 1.44981,-11.37119 7.86685,-13.05361c6.41709,-1.68242 13.4166,1.69856 15.22822,7.65797c1.81163,5.95945 -0.67989,10.39993 -7.09693,12.08236z" fill="#00699a" stroke="#000000" stroke-width="1.5" stroke-linecap="butt"/><path d="M233.81589,223.45543c0,0 1.99129,0.99947 4.64538,2.61811c2.64766,1.61471 5.26142,4.3824 6.05297,6.98622c1.58504,5.21404 0.51314,7.57693 -4.14931,8.79935c-2.26828,0.5947 -4.72162,0.00897 -6.58538,-1.22784c-2.61599,-1.73599 -5.0976,-4.39416 -5.9964,-7.35091c-1.58504,-5.21404 6.03273,-9.82497 6.03273,-9.82497z" fill="#0091d4" stroke="none" stroke-width="0" stroke-linecap="butt"/><path d="M250.01459,230.39389c0,0 -2.29855,4.52763 -9.85702,6.24187c-7.49704,1.70032 -11.90759,-1.55798 -11.90759,-1.55798" fill="none" stroke="#000000" stroke-width="0.8" stroke-linecap="round"/><path d="M250.06684,236.45084c0,0 -2.02438,2.75229 -9.09081,3.57933c-4.90339,0.57387 -9.94842,-0.56851 -9.94842,-0.56851" fill="none" stroke="#000000" stroke-width="0.75" stroke-linecap="round"/><path d="M248.75059,227.59411c0,0 -1.53322,2.62403 -8.85038,3.88347c-7.6076,1.30942 -12.03394,-1.28351 -12.03394,-1.28351" fill="none" stroke="#000000" stroke-width="0.8" stroke-linecap="round"/><path d="M229.30668,226.55743c0,0 4.88954,-1.33293 9.98147,-1.41746c3.86586,-0.06421 8.9849,1.10961 8.9849,1.10961" fill="none" stroke="#000000" stroke-width="0.8" stroke-linecap="round"/><path d="M240.60927,222.31603c0,0 3.91411,1.78454 5.44063,7.71148c1.63584,6.3514 0.04686,10.33977 0.04686,10.33977" fill="none" stroke="#000000" stroke-width="0.8" stroke-linecap="round"/><path d="M242.7356,241.75973c0,0 -1.19716,-3.1295 -1.65973,-5.06311c-0.38945,-1.62798 -0.52477,-4.88494 -1.12015,-7.81075c-0.67706,-3.327 -1.79439,-6.24755 -1.79439,-6.24755" fill="none" stroke="#000000" stroke-width="0.8" stroke-linecap="round"/><path d="M239.76806,242.40996c0,0 -3.74251,-3.45117 -5.49953,-9.9223c-1.11945,-4.12296 0.79936,-9.61339 0.79936,-9.61339" fill="none" stroke="#000000" stroke-width="0.8" stroke-linecap="round"/><path d="M233.72289,241.31103c0,0 -2.56488,-2.70316 -3.29689,-8.80819c-0.50831,-4.23951 1.08952,-8.18597 1.08952,-8.18597" fill="none" stroke="#000000" stroke-width="0.8" stroke-linecap="round"/><path d="M229.44737,233.35798c-0.45755,0.11996 -0.9493,-0.18024 -1.09834,-0.67056c-0.14906,-0.4903 0.10105,-0.98501 0.55863,-1.10498c0.45755,-0.11996 0.94931,0.18023 1.09834,0.67055c0.14906,0.4903 -0.10106,0.98504 -0.55862,1.105z" fill="#00aeff" stroke="none" stroke-width="0" stroke-linecap="butt"/><path d="M229.36389,229.80139c-0.26397,0.06921 -0.53838,-0.0734 -0.61291,-0.31856c-0.07453,-0.24514 0.07906,-0.49998 0.34303,-0.56919c0.26397,-0.06921 0.53837,0.07342 0.61291,0.31855c0.07453,0.24514 -0.07903,0.49998 -0.34302,0.56921z" fill="#00aeff" stroke="none" stroke-width="0" stroke-linecap="butt"/></g></g><g><g fill="#582700"><path d="M278.70105,238.94337c0.14753,-0.03276 -5.76836,1.1684 -11.36605,2.30558c-4.97093,1.00982 -9.69095,1.96921 -9.69095,1.96921c0,0 -3.62759,-7.30349 -2.67022,-9.78809c0.76801,-1.99314 15.78016,-3.85956 16.20756,-4.12547c1.47981,-0.92074 13.87349,6.19976 16.08247,6.9798c3.59202,1.26837 6.44056,13.14367 9.12264,21.06505c1.44648,4.27215 -28.07616,-16.09963 -17.68545,-18.40606z" stroke="#2f3bd4" stroke-width="3" stroke-linecap="round"/><path d="M280.45266,241.45397c-0.13149,0.57556 3.09404,3.97216 3.46009,4.39137c2.61043,2.98942 6.76843,7.10037 8.66961,10.74757c1.20411,2.30998 2.13617,1.51235 -0.68509,1.11476c-1.24938,-0.17608 -3.59734,-2.15255 -4.60433,-2.87524c-4.25146,-3.05114 -9.81238,-6.94542 -12.2088,-11.36221c-0.87153,-1.60631 1.04263,-7.19043 3.48106,-6.97015c0.19864,-0.0828 0.41167,-0.14388 0.63624,-0.17953c1.43267,-0.2274 2.79257,0.66682 3.03743,1.99733c0.54102,0.46124 0.22611,1.03365 -0.28117,1.57791c-0.23586,0.4028 -0.59175,0.74173 -1.03147,0.96929c-0.25026,0.23406 -0.43884,0.43682 -0.47359,0.58893z" stroke="none" stroke-width="0.5" stroke-linecap="butt"/></g><path d="M241.2438,250.43815c-0.86824,-4.44099 -0.01194,-3.22363 10.1163,-6.38035c10.12823,-3.15672 24.09807,-6.55994 24.09807,-6.55994c0,0 10.21499,20.25542 20.21236,19.0561c0.49318,-0.05915 -2.53495,5.78324 -4.41276,6.59226c-5.92765,2.5538 -20.85897,9.50642 -20.85897,9.50642c0,0 -11.37032,5.32543 -16.78186,5.57909c-5.41154,0.25366 -9.91558,-15.22296 -12.37316,-27.79355z" data-paper-data="{&quot;origPos&quot;:null}" fill="#ffffff" stroke="#2f3bd4" stroke-width="3" stroke-linecap="round"/><path d="M253.96533,243.64687c2.81422,0.38076 12.21045,30.68679 9.82309,31.44413" fill="none" stroke="#2f3bd4" stroke-width="3" stroke-linecap="round"/><path d="M257.29244,243.04268c5.01386,-0.02903 12.9069,30.32345 9.76426,30.79833" fill="none" stroke="#2f3bd4" stroke-width="3" stroke-linecap="round"/><path d="M272.10049,229.32029c-3.42767,0.55785 -6.75206,1.56141 -10.18453,2.10623c-1.42019,0.22543 -5.6891,0.65737 -6.60955,1.68635c-0.21539,0.24078 0.49561,1.88828 0.58853,2.17515c0.68494,2.1146 1.56453,4.21637 2.02678,6.38284c1.18124,-1.19958 3.8593,-0.79951 5.41194,-0.91315c2.8464,-0.20829 5.98158,-0.70971 8.75692,-1.3873c0.92784,-0.22653 1.73382,-0.49414 2.53776,-0.65509c0.10345,-0.04045 0.20634,-0.08157 0.30863,-0.12334c0.39596,-0.06481 0.79204,-0.12904 1.18824,-0.19265l-0.00011,-0.00053l1.28154,-0.20341c0.3539,-0.05617 0.68978,0.16471 0.75029,0.49336c0.06049,0.32864 -0.17734,0.6406 -0.53125,0.6968l-1.28154,0.20341l-0.00012,-0.00057c-0.30341,0.04756 -0.60692,0.09466 -0.91053,0.14121c-0.07222,0.01983 -0.14475,0.03887 -0.21769,0.05736c-3.62462,1.46136 -7.91521,2.1297 -11.82202,2.64668c-1.29883,0.17188 -3.08579,0.68834 -4.55042,0.64821c0.05339,0.03547 0.1068,0.07098 0.16021,0.10647c3.54598,5.35808 5.69395,11.72151 7.75788,17.68103c0.51291,2.82545 1.20725,5.59515 1.72809,8.42516c0.08811,0.47872 0.59157,2.38447 0.11768,3.05957c0.34893,-0.2238 0.86667,-0.54018 1.00563,-0.57931c0.7702,-0.21682 1.3132,-0.53291 2.09746,-0.81744c5.81243,-1.87618 11.34798,-4.32396 16.96796,-6.585c1.89939,-1.28272 5.43848,-2.32464 6.5467,-4.48642c0.18622,-0.36325 -0.54839,-1.93779 -0.67194,-2.354c-0.71038,-2.39315 -0.97434,-5.05647 -2.04915,-7.32654c-0.65576,-3.51221 -2.51177,-6.8098 -3.95652,-10.0917c-0.80578,-1.83043 -1.48132,-3.48424 -3.59574,-4.24126c-3.62448,-0.71587 -7.17298,-3.03845 -10.34567,-4.81337c-0.92279,-0.51625 -1.59393,-1.27639 -2.50547,-1.73874zM270.94788,228.29291c0.00033,-0.00102 0.00066,-0.00206 0.00101,-0.00307c0.18859,-0.57774 0.81071,-0.40258 0.81071,-0.40258c0.17924,0.0522 0.34823,0.11313 0.5091,0.18116l0.44728,-0.071c0,0 0.64077,-0.1017 0.7503,0.49338c0.01919,0.10429 0.01533,0.1934 -0.00407,0.2695c0.58466,0.41775 1.12873,0.88615 1.81798,1.26641c3.11663,1.71949 6.49859,3.9776 10.04471,4.68919c2.8157,1.02502 3.5752,3.144 4.70636,5.53266c1.44415,3.04956 3.12076,6.31562 3.71781,9.60953c1.17964,2.4915 1.32453,5.38268 2.17294,7.98449c0.19861,0.60909 0.82104,1.71943 0.55293,2.37555c-1.04538,2.55824 -5.0455,3.75498 -7.14658,5.19987c-5.65218,2.33406 -11.30004,4.77911 -17.17152,6.67333c-0.74545,0.26016 -4.05401,2.13612 -4.81821,1.32232c-0.30639,-0.32629 0.12882,-2.51825 0.01543,-3.1223c-0.57697,-3.07397 -1.28458,-6.07297 -1.85538,-9.13473c-1.99299,-5.75469 -4.04182,-11.96046 -7.44439,-17.1433c-0.12965,-0.08349 -0.25928,-0.167 -0.38893,-0.25051l-0.65369,-0.18404c-0.23429,-0.06101 -0.42192,-0.24227 -0.46564,-0.47982c-0.04927,-0.26769 0.09937,-0.5243 0.34745,-0.64065l0.25232,-0.12529c-1.52007,-1.97223 -1.91529,-5.07903 -2.61712,-7.34624c-0.22721,-0.73397 -0.85283,-1.79427 -0.28336,-2.57163c1.03407,-1.41155 5.76427,-1.91094 7.4516,-2.17877c3.11931,-0.49513 6.15027,-1.36943 9.25095,-1.9435z" fill="#2f3bd4" stroke="none" stroke-width="0.5" stroke-linecap="butt"/><path d="M272.09321,229.28063c0.91155,0.46237 1.58722,1.22199 2.51002,1.73826c3.17269,1.77493 6.74614,4.1031 10.37063,4.81898c2.11442,0.75702 2.80096,2.41952 3.60675,4.24996c1.44474,3.2819 3.31088,6.60597 3.96665,10.11819c1.07481,2.27007 1.33514,4.94887 2.04551,7.34202c0.12355,0.4162 0.85638,1.9941 0.67016,2.35735c-1.10822,2.16179 -4.65768,3.21529 -6.55708,4.49802c-5.61996,2.26107 -11.19096,4.71735 -17.00339,6.59351c-0.78425,0.28454 -1.33056,0.59994 -2.10077,0.81676c-0.13894,0.03912 -0.65804,0.35515 -1.00697,0.57896c0.47388,-0.67509 -0.03156,-2.58145 -0.11966,-3.06017c-0.52084,-2.83001 -1.22726,-5.60587 -1.74018,-8.43131c-2.06391,-5.95952 -4.22508,-12.37066 -7.77108,-17.72874c-0.05339,-0.03547 -0.10676,-0.07105 -0.16015,-0.10655c1.46463,0.04012 3.25496,-0.4822 4.55379,-0.65407c3.90681,-0.51697 8.2311,-1.20362 11.85571,-2.66496c0.07295,-0.01849 0.14634,-0.0376 0.21856,-0.0574c0.30361,-0.04655 0.61066,-0.09364 0.91407,-0.1412l0.00011,0.00056l1.2863,-0.20298c0.3539,-0.05617 0.5773,-0.28877 0.51682,-0.61742c-0.06049,-0.32864 -0.39359,-0.54914 -0.74749,-0.49297l-1.2772,0.20369l0.00011,0.00053c-0.3962,0.0636 -0.78809,0.12774 -1.18406,0.19254c-0.10229,0.04176 -0.20405,0.08278 -0.3075,0.12326c-0.80397,0.16099 -1.60075,0.42672 -2.52859,0.65325c-2.77536,0.67758 -5.89022,1.16574 -8.73662,1.37403c-1.55263,0.11362 -4.30355,-0.32925 -5.48478,0.87034c-0.46225,-2.16648 -1.33702,-4.2753 -2.02197,-6.3899c-0.09294,-0.2869 -0.80244,-1.93602 -0.58704,-2.17682c0.92046,-1.02899 5.19702,-1.46728 6.61722,-1.6927c3.43247,-0.54484 6.77446,-1.5551 10.20212,-2.11295z" data-paper-data="{&quot;noHover&quot;:false,&quot;origItem&quot;:[&quot;Path&quot;,{&quot;applyMatrix&quot;:true,&quot;segments&quot;:[[[230.82308,152.52668],[0,0],[-0.93988,0.74338]],[[228.33766,155.1429],[0.94139,-0.81156],[-3.23664,2.79023]],[[217.57953,163.04819],[3.97209,-1.58115],[-2.24615,1.33801]],[[214.37799,168.94085],[0.53327,-2.39813],[-0.95612,4.29976]],[[211.99064,182.06795],[0.01066,-4.42845],[-0.7472,2.98879]],[[211.1937,191.43817],[0.307,-3.06867],[-0.05339,0.53367]],[[210.92223,194.45142],[-0.2878,-0.40863],[1.71279,2.43186]],[[219.30646,198.67289],[-2.42854,-1.20161],[6.86452,1.67648]],[[239.98146,203.43859],[-7.00284,-1.16771],[0.95146,0.19601]],[[242.53788,204.03192],[-0.9213,-0.11581],[0.16621,0.02089]],[[243.80278,204.54585],[-0.44366,-0.20624],[-0.68022,-0.7346]],[[243.29624,200.77631],[0,0.60336],[0,-3.56681]],[[243.49813,190.12314],[0.00805,3.55968],[1.09986,-7.69905]],[[248.62011,166.96343],[-2.91121,7.25063],[0.05329,-0.05383]],[[248.78,166.80192],[-0.05329,0.05384],[-1.65725,0.33382]],[[243.46938,166.89261],[1.51307,-0.04199],[-4.5512,0.1263]],[[229.47086,165.94945],[4.42793,1.08501],[-0.08683,-0.00846]],[[229.21129,165.92152],[0.08627,0.01022],[-0.35502,0.00201]],[[228.14624,165.92558],[0.35502,-0.00073],[0,0]],[228.14624,165.92629],[[226.64624,165.92629],[0,0],[-0.41422,0]],[[225.89624,165.17629],[0,0.41422],[0,-0.41422]],[[226.64624,164.42629],[-0.41422,0],[0,0]],[228.14624,164.42629],[[228.14624,164.42695],[0,0],[0.46388,0.00087]],[[229.53787,164.4319],[-0.46387,-0.00238],[0.12507,0.03126]],[[229.91467,164.52296],[-0.12612,-0.02945],[0.948,0.04085]],[[232.93787,164.8319],[-1.10259,-0.09705],[3.29808,0.29029]],[[243.18703,164.82862],[-3.28065,0.2982],[1.78951,-0.16266]],[[249.53285,164.89489],[-1.59443,-1.23936],[0.07225,-2.74287]],[[250.50186,156.68464],[-0.33637,2.72263],[0.04564,-0.36937]],[[250.71591,153.90661],[0.29535,0.25299],[-1.26215,-1.08115]],[[242.84624,153.12628],[1.66228,0],[-4.0176,0]],[[230.82306,152.52665],[4.01487,0.01687],[0,0]]],&quot;closed&quot;:true,&quot;fillColor&quot;:[0,0,0,1]}]}" fill="#ffffff" stroke="none" stroke-width="0.5" stroke-linecap="butt"/><path d="M262.30843,259.54749c-0.28742,-0.19623 -0.35077,-0.54048 -0.35077,-0.54048l-0.14603,-0.79343c-0.0316,-0.17278 -0.06707,-0.34421 -0.10605,-0.51437l-0.21333,-0.59402l0.05316,-0.01647c-1.39502,-2.84446 -3.15455,-6.11352 -4.04203,-9.23971c-0.01704,-0.05371 -0.03371,-0.10751 -0.05007,-0.16139c-0.05408,-0.10026 -0.1076,-0.20084 -0.16049,-0.30173l-0.06119,0.03039l-0.54436,-0.94545c-0.0479,-0.07871 -0.08221,-0.16628 -0.09956,-0.26051c-0.04086,-0.22202 0.02038,-0.43833 0.15212,-0.60744l-0.01233,0.00196l-0.13692,-0.74396c-0.15073,-0.24972 -0.30323,-0.49693 -0.45733,-0.74151c0,0 -0.43671,-0.6953 0.31198,-1.10088c0.74868,-0.40558 1.18539,0.28974 1.18539,0.28974c0.01223,0.01953 0.02445,0.03907 0.03668,0.05863c0.19856,0.07767 0.3628,0.22278 0.45392,0.40987l0.38184,0.73865l-0.02361,0.01051l0.04735,0.03973c0.07437,0.21475 0.15229,0.42821 0.2332,0.64057c1.23657,2.1885 2.33558,4.52072 3.23342,6.90027c0.32268,0.59607 0.62671,1.2014 0.89969,1.82261c1.50156,4.32591 3.15268,9.09677 3.64918,13.61696c0.2267,2.06398 0.67249,3.44216 0.25275,5.10138l0.27302,0.03896l-0.17536,1.0599c-0.0477,0.34126 -0.32939,0.62852 -0.71371,0.68952c-0.47185,0.07489 -0.91973,-0.21963 -1.00038,-0.65782l-0.1669,-0.90678c-0.80889,-4.45045 -1.87861,-8.86888 -2.70328,-13.32372z" fill="#ffffff" stroke="none" stroke-width="0.5" stroke-linecap="butt"/><g fill="#ffffff" stroke="#2f3bd4" stroke-width="2" stroke-linecap="round"><path d="M271.31787,241.613c0,0 -0.27542,-4.44075 2.98008,-4.68785c5.20865,-0.39533 4.97396,32.97689 -0.40713,33.68786c-2.19861,0.29049 -2.96698,-2.88321 -2.96698,-2.88321l1.98292,-0.49194c0,0 1.56448,-6.16985 1.81075,-13.94265c0.24285,-7.6651 -1.12136,-12.74262 -1.12136,-12.74262z"/><path d="M262.54379,244.71908c0,0 -3.1268,-2.78241 -0.9676,-3.96583c4.53246,-2.48418 31.30418,24.88648 26.45722,26.26841c-2.93543,0.83694 -4.76678,-2.36561 -4.76678,-2.36561l1.44379,-0.4014c0,0 -3.19445,-4.71789 -9.36185,-10.8181c-6.1674,-6.10024 -11.50587,-9.2462 -11.50587,-9.2462z" data-paper-data="{&quot;index&quot;:null}"/></g></g></g></g></svg>