<svg version="1.1" xmlns="http://www.w3.org/2000/svg" xmlns:xlink="http://www.w3.org/1999/xlink" width="374.77477" height="288.28829" viewBox="0,0,374.77477,288.28829"><g transform="translate(-52.61266,-35.85585)"><g data-paper-data="{&quot;isPaintingLayer&quot;:true}" fill-rule="nonzero" stroke-linejoin="miter" stroke-miterlimit="10" stroke-dasharray="" stroke-dashoffset="0" style="mix-blend-mode: normal"><path d="M52.61266,324.14414v-288.28829h374.77477v288.28829z" fill="none" stroke="none" stroke-width="NaN" stroke-linecap="butt"/><g><g><path d="M251.40088,158.53304c-1.38468,-2.9501 12.22207,-2.13767 14.33203,-2.83123c2.29322,-0.75384 -4.14521,19.5992 -4.14521,19.5992l-1.13677,3.43357l7.13371,-22.86174c0,0 2.09229,-8.02883 4.06343,-7.04848c0,0 10.66793,-0.31303 25.34429,11.01346c-0.70036,5.22614 -6.32411,15.9573 -6.32411,15.9573c0,0 -11.45741,24.44769 -15.95086,24.95746c-1.04052,0.11804 -13.4762,-1.58122 -15.95678,-4.92148c-8.23167,-11.08449 -7.35973,-37.29803 -7.35973,-37.29803z" fill="#582700" stroke="#000000" stroke-width="2.5" stroke-linecap="round"/><path d="M262.73242,173.87333c-0.18155,0.48264 -0.36964,0.96337 -0.55664,1.44591c-0.04126,0.10649 -0.61794,1.26245 -0.6718,1.87864c6.06167,2.82764 12.46483,4.61321 18.41423,7.79679c0.54253,0.24254 1.73515,0.63231 2.83002,1.1697c0.35977,0.0616 0.65071,0.06341 0.78483,-0.04543c1.14053,-0.92545 1.79821,-2.7439 2.76136,-3.89738c-0.36579,-0.03585 -1.42234,-0.15555 -1.84308,-0.29102c-1.24949,-0.40235 -2.48559,-0.79598 -3.74525,-1.15722c-4.41561,-1.26626 -9.06446,-3.171 -13.28718,-4.97839c-1.56879,-0.46358 -3.19549,-1.10473 -4.68649,-1.92161zM263.24577,172.4282c1.46363,0.82011 3.08729,1.45056 4.6328,1.90728c4.76709,2.06779 9.88032,3.87066 14.8523,5.39457c2.04863,0.6279 5.37113,0.74801 4.77269,3.32545c-1.01123,1.24076 -1.80411,3.21401 -3.05253,4.23491c0.32664,0.32932 0.53725,0.69005 0.55861,1.08222c0.03007,0.55203 -1.35163,2.21694 -1.65729,2.73103c-1.82344,3.06709 -3.48159,7.11369 -7.12228,7.94382c-5.27476,2.9733 -13.74765,0.64551 -18.44157,-2.65945c-2.46938,-3.67632 -2.97406,-7.1524 -3.47534,-11.54301c-0.36193,-3.17016 -1.24656,-6.08346 -1.2656,-9.3382c-0.60625,-4.51812 -1.08119,-9.04331 -1.68164,-13.56074c-0.27557,-2.07332 -1.20316,-3.97009 0.56541,-5.34779c3.43778,-0.30544 6.91323,-0.61252 10.37132,-0.83399c1.07796,-0.06904 3.2707,-0.13147 4.15012,0.68867c1.22214,1.13976 0.42574,2.86624 -0.06529,4.17775c-0.70324,3.03096 -1.62336,6.31134 -2.7553,9.46496c0.17922,0.28242 0.09554,0.63999 0.09554,0.63999c-0.13517,0.575 -0.29952,1.13735 -0.48197,1.69249zM280.82701,187.11333c-3.78833,-0.97737 -7.09469,-3.09518 -10.80308,-4.17715c-2.19734,-0.5906 -6.1866,-1.29903 -8.4426,-3.13129c-0.14491,-0.03757 -0.24513,-0.10604 -0.24513,-0.10604l-0.61972,-0.42735c-0.66694,-0.29701 -1.2412,-0.83248 -1.72049,-1.41157c1.02076,-6.05439 4.59461,-11.64089 6.02464,-17.7049c0.24717,-0.65816 0.65512,-1.57175 0.71023,-2.27428c0.0339,-0.43209 -2.37982,-0.61897 -2.67234,-0.62546c-3.56153,-0.0789 -7.12073,0.73535 -10.68041,0.80711c-0.35531,0.09433 0.32781,3.03998 0.411,3.66936c0.60154,4.55093 1.09488,9.10737 1.69168,13.66125c0.02211,3.23742 0.89263,6.1169 1.25955,9.27087c0.46701,4.01437 0.85682,7.21259 3.03998,10.60937c4.4152,2.88209 12.08399,5.07379 16.95561,2.32775c3.54291,-0.86862 6.0582,-6.1261 7.8384,-9.15112c0.01888,-0.03207 -1.467,-0.74362 -2.68915,-1.32106c-0.0197,-0.00538 -0.03909,-0.01056 -0.05817,-0.01549z" fill="#000000" stroke="none" stroke-width="0.5" stroke-linecap="butt"/><path d="M267.37838,175.76756c4.22271,1.8074 8.95981,3.74389 13.37542,5.01015c1.25967,0.36124 2.49534,0.75847 3.74482,1.16083c0.42074,0.13547 1.4773,0.25511 1.84309,0.29095c-0.96315,1.15349 -1.62664,2.98966 -2.76716,3.91513c-0.13413,0.10884 -0.42608,0.10881 -0.78585,0.04722c-1.09486,-0.53739 -2.2896,-0.92388 -2.83211,-1.1664c-5.9494,-3.1836 -12.43773,-5.01102 -18.49938,-7.83866c0.05386,-0.6162 0.6326,-1.77948 0.67386,-1.88597c0.18701,-0.48255 0.3774,-0.96871 0.55895,-1.45135c1.491,0.81688 3.11959,1.45455 4.68837,1.91812z" data-paper-data="{&quot;noHover&quot;:false,&quot;origItem&quot;:[&quot;Path&quot;,{&quot;applyMatrix&quot;:true,&quot;segments&quot;:[[[926.17844,407.1979],[3.2606,1.25965],[-0.27949,0.97418]],[[925.31465,410.11917],[0.29084,-0.97519],[-0.06418,0.21521]],[[924.29914,413.90358],[-0.01258,-1.20526],[13.15638,4.16543]],[[964.1057,425.02121],[-12.99513,-4.87922],[1.17537,0.35239]],[[970.21765,426.67451],[-2.3817,-0.804],[0.75941,0.04146]],[[971.83798,426.41666],[-0.25651,0.23985],[2.18115,-2.03947]],[[976.78433,418.26967],[-1.76682,2.44279],[-0.76669,0.00973]],[[972.89889,418.10481],[0.90089,0.17138],[-2.67549,-0.50896]],[[964.88923,416.67374],[2.68829,0.42712],[-9.42353,-1.49721]],[[936.29671,409.90591],[9.13228,2.58714],[-3.35077,-0.55846]]],&quot;closed&quot;:true}]}" fill="#ffffff" stroke="none" stroke-width="0.5" stroke-linecap="butt"/><path d="M279.2802,186.3677c0.20079,0.08985 4.36652,2.05538 4.3353,2.10842c-1.78021,3.02502 -4.31678,8.30297 -7.85968,9.17159c-4.87161,2.74604 -12.58321,0.55276 -16.99841,-2.32935c-2.18316,-3.39677 -2.59265,-6.61656 -3.05966,-10.63093c-0.36691,-3.15398 -1.24183,-6.06709 -1.26395,-9.30451c-0.5968,-4.55388 -1.07627,-9.13735 -1.67781,-13.68827c-0.08319,-0.62939 -0.76321,-3.57794 -0.40792,-3.67228c3.55968,-0.07175 7.13835,-0.89609 10.69988,-0.81718c0.29252,0.00649 2.71243,0.19232 2.67853,0.6244c-0.05511,0.70254 -0.45184,1.71808 -0.69901,2.37624c-1.43002,6.06401 -4.96288,11.60152 -5.98363,17.65592c0.47929,0.57907 1.05305,1.10507 1.71999,1.40208l0.61903,0.42345c0,0 0.51259,0.43723 0.89884,-0.21225c0.03867,-0.06502 0.16101,-0.14953 0.18139,-0.20964c5.61062,2.44601 11.35793,4.18684 16.81711,7.10229z" data-paper-data="{&quot;noHover&quot;:false,&quot;origItem&quot;:[&quot;Path&quot;,{&quot;applyMatrix&quot;:true,&quot;segments&quot;:[[[926.61254,417.73069],[12.14285,3.5238],[-0.03018,0.12086]],[[926.46822,418.11346],[0.06716,-0.13431],[-0.67082,1.34164]],[924.45576,418.78428],[[923.08279,418.0906],[0,0],[-1.44471,-0.43097]],[[919.22563,415.72869],[1.11205,1.01797],[0.89694,-11.9485]],[[928.15956,380.1298],[-1.74473,12.05571],[0.38029,-1.32836]],[[929.175,375.57071],[0.02742,1.37277],[-0.01686,-0.84429]],[[923.5003,374.93752],[0.60865,-0.05075],[-7.41054,0.61792]],[[901.48814,378.8123],[7.37628,-0.90935],[-0.71866,0.25961]],[[903.08234,385.83106],[-0.2998,-1.20115],[2.16779,8.68513]],[[909.35292,411.92731],[-2.15853,-8.69186],[0.69956,6.26621]],[[913.83986,429.61277],[-1.39861,-6.02998],[1.78014,7.67491]],[[922.29365,449.50563],[-5.21858,-6.1072],[9.74892,4.62723]],[[957.96755,450.34516],[-9.56021,6.37347],[7.18055,-2.44927]],[[972.39433,430.92276],[-3.08539,6.24485],[0.05411,-0.10951]],[[963.14745,427.86406],[0.43501,0.13058],[-11.92317,-4.46591]]],&quot;closed&quot;:true}]}" fill="#66c8ff" stroke="none" stroke-width="0.5" stroke-linecap="butt"/></g><g data-paper-data="{&quot;index&quot;:null}" fill="#fffc96" stroke="#000000" stroke-width="2" stroke-linecap="round"><path d="M249.22073,167.00689c0.03148,-2.06335 3.0709,-2.05874 3.0709,-2.05874l0.18423,1.9119c0,0 4.1768,2.12179 9.99023,3.95546c-0.24181,1.32574 -0.37255,2.31473 -0.36927,3.14051c-6.8075,-1.93996 -12.91046,-4.69857 -12.87612,-6.94914z"/><path d="M250.61113,180.6614c-0.37321,-2.85439 2.83798,-3.80985 2.83798,-3.80985l0.17408,1.40167c0,0 3.4603,-1.34061 8.47364,-4.35114c-0.00327,1.08028 0.21809,1.87966 0.71424,2.77672c-6.202,3.69264 -11.92955,6.05058 -12.19993,3.98258z" data-paper-data="{&quot;index&quot;:null}"/></g></g><g data-paper-data="{&quot;origRot&quot;:0}" stroke="#000000" stroke-linecap="round"><path d="M246.41218,223.16046c0,0 -1.04363,-4.80145 0.40577,-5.11471c4.27696,-0.92432 8.08091,-3.52137 12.38746,-2.77147c1.7883,0.3114 3.29335,4.40954 3.29335,4.40954l10.64934,32.02636c0,0 1.13984,3.29159 1.73256,5.20755c0.63372,2.04849 0.28367,5.42651 -1.66451,5.97169c-7.15308,2.00178 -11.26504,4.66139 -16.01766,4.68771c-1.73146,0.00958 -3.56959,-0.10207 -4.57361,-1.6141c-1.31156,-1.9751 -1.56811,-6.56934 -1.56811,-6.56934z" data-paper-data="{&quot;origPos&quot;:null}" fill="#ff0000" stroke-width="3"/><path d="M275.61096,260.27047c0,0 -4.98524,3.98634 -9.73644,5.1509c-3.64529,0.89349 -11.75944,1.80371 -11.75944,1.80371c0,0 -1.82039,-2.3007 -2.24531,-3.88226c-0.44765,-1.66608 0.00939,-4.43941 0.00939,-4.43941l21.60103,-6.13463z" data-paper-data="{&quot;origPos&quot;:null}" fill="#976e57" stroke-width="2"/><path d="M246.55673,223.46302c0,0 -1.04363,-4.80145 0.40578,-5.11469c4.27695,-0.92433 8.08091,-3.52137 12.38747,-2.77146c1.7883,0.3114 3.29334,4.40952 3.29334,4.40952l10.64933,32.02637c0,0 1.13986,3.29158 1.73258,5.20755c0.63372,2.04849 0.28366,5.42651 -1.66451,5.9717c-7.15308,2.00178 -11.26503,4.6614 -16.01765,4.68772c-1.73146,0.00958 -3.56958,-0.1021 -4.57361,-1.6141c-1.31156,-1.9751 -1.56812,-6.56934 -1.56812,-6.56934z" data-paper-data="{&quot;origPos&quot;:null}" fill="#4b4b4b" stroke-width="3"/></g><path d="M238.47886,259.89926c0,0 0.17167,4.59879 -0.94977,6.70411c-0.85851,1.61171 -2.67711,1.9191 -4.40085,2.09444c-4.73142,0.48129 -9.07007,-1.72606 -16.37363,-2.95409c-1.98917,-0.33445 -2.65141,-3.6583 -2.21124,-5.76426c0.41171,-1.96971 1.23997,-5.36663 1.23997,-5.36663l7.6199,-33.00416c0,0 1.11666,-4.23845 2.86714,-4.73924c4.21544,-1.20602 8.24184,0.97193 12.58342,1.435c1.4713,0.15693 0.8791,5.04592 0.8791,5.04592c0,0 -0.31709,9.24169 -0.52004,15.15685c-0.28644,8.34855 -0.73398,21.39209 -0.73398,21.39209z" fill="#4b4b4b" stroke="#000000" stroke-width="3" stroke-linecap="round"/><g stroke="#000000" stroke-linecap="round"><path d="M230.2874,169.78647c0,0 -27.04603,6.07419 -27.09371,-12.39074c-0.01758,-6.80308 15.53374,-5.1628 15.53374,-5.1628z" data-paper-data="{&quot;origPos&quot;:null}" fill="#66c8ff" stroke-width="2"/><path d="M222.58064,157.78291c0,0 -15.25197,-1.95116 -15.05208,-2.5814c0.63383,-1.99827 11.92124,-1.41977 11.92124,-1.41977z" data-paper-data="{&quot;origPos&quot;:null}" fill="#0a0a0a" stroke-width="1"/></g><g><g><path d="M219.87196,174.97149c0,0 0.54807,-14.9197 2.55636,-15.68897c6.02487,-2.30785 20.22257,-2.79109 29.65568,-3.74997c1.45826,-0.14823 3.94168,13.55967 3.94168,13.55967l4.4689,31.14022c0,0 1.58506,15.26874 -0.00574,15.43045c-14.16118,1.43948 -30.6819,3.99832 -37.06991,3.78021c-2.12932,-0.0727 -2.7649,-16.26299 -2.7649,-16.26299z" data-paper-data="{&quot;origPos&quot;:null}" fill="#66c8ff" stroke="#000000" stroke-width="3.5" stroke-linecap="round"/><path d="M238.58798,181.52647c-1.23201,0.12524 -1.45701,-2.41787 -1.45701,-2.41787c-0.46668,-5.27458 -1.08336,-12.24457 -1.55003,-17.51916c0,0 -0.22501,-2.5431 1.007,-2.66833c1.23201,-0.12524 1.45701,2.41787 1.45701,2.41787c0.46668,5.27458 0.93336,10.54917 1.40004,15.82376l0.15001,1.69541c0,0 0.225,2.5431 -1.00701,2.66833z" fill="#ffffff" stroke="none" stroke-width="0.5" stroke-linecap="butt"/><path d="M250.60656,186.83794c-1.23201,0.12524 -1.51467,-3.06962 -1.51467,-3.06962c-0.58627,-6.62637 -1.361,-15.38263 -1.94728,-22.00899c0,0 -0.28266,-3.19485 0.94933,-3.32009c1.23201,-0.12524 1.51467,3.06962 1.51467,3.06962c0.58627,6.62637 1.17256,13.25273 1.75883,19.87911l0.18845,2.12991c0,0 0.28266,3.19485 -0.94933,3.32009z" fill="#ffffff" stroke="none" stroke-width="0.5" stroke-linecap="butt"/></g><g fill="none" stroke="#b9b9b9" stroke-width="3"><path d="M250.4645,160.89048c-0.91215,-1.30822 -0.15123,-2.64361 0.90505,-4.00744c1.05629,-1.36381 2.19336,-1.86306 2.92013,-0.9314c1.54093,1.97538 0.20863,3.11711 -0.61848,4.18502c-1.0563,1.36383 -1.91852,2.60137 -3.2067,0.75384z" stroke-linecap="butt"/><path d="M249.10748,163.01799l2.24244,-2.82687" stroke-linecap="round"/><path d="M245.78172,164.00523c1.05629,-1.36381 2.19337,-1.86306 2.92014,-0.93139c1.54093,1.97538 0.20863,3.11711 -0.61848,4.18502c-1.05629,1.36382 -1.91851,2.60137 -3.20669,0.75383c-0.91215,-1.30822 -0.15125,-2.64361 0.90503,-4.00745z" stroke-linecap="butt"/><path d="M245.76199,167.3133l-2.24244,2.82688" stroke-linecap="round"/><path d="M238.11606,170.22292c0.23425,-1.71047 1.52448,-1.68214 3.01559,-1.36041c1.49111,0.32174 2.50311,1.22642 2.38422,2.52547c-0.2521,2.75435 -1.7787,2.01517 -2.94628,1.76325c-1.49111,-0.32173 -2.78435,-0.51268 -2.45352,-2.9283z" stroke-linecap="butt"/><path d="M239.09424,170.74832l-3.12364,-0.72244" stroke-linecap="round"/><path d="M230.8531,166.4474c0.73265,-1.43274 1.92438,-0.74193 3.21471,0.31887c1.29034,1.06079 1.95955,2.4041 1.45805,3.52263c-1.06334,2.3716 -2.26108,0.91336 -3.27147,0.08273c-1.29034,-1.0608 -2.43595,-1.90084 -1.40129,-3.92421z" stroke-linecap="butt"/><path d="M228.91649,165.16252l2.68846,2.26621" stroke-linecap="round"/><path d="M224.09578,160.81642c0.73265,-1.43272 1.92439,-0.74193 3.21472,0.31887c1.29035,1.06079 1.95955,2.4041 1.45805,3.52263c-1.06334,2.37159 -2.26108,0.91335 -3.27146,0.08272c-1.29034,-1.06079 -2.43595,-1.90082 -1.40128,-3.9242z" stroke-linecap="butt"/><path d="M222.15924,159.53156l2.68847,2.26621" stroke-linecap="round"/></g></g><path d="M252.98925,156.12075c-11.23993,2.98807 -22.14788,5.84967 -26.8359,5.98236c-4.28453,0.12128 -6.12514,-2.32436 -6.12514,-2.32436c0,0 -2.176,-2.0157 -2.59519,-3.52667c-1.25759,-4.53292 -4.27906,-17.64348 -5.90553,-29.19612c-0.05429,-0.38556 -0.07176,-0.60436 -0.10453,-0.99271c-0.09828,-1.16504 -0.30268,-5.73223 -0.30268,-5.73223c0,0 2.60681,-2.41399 4.11748,-3.29759c4.53203,-2.65081 17.17917,-4.29174 30.24309,-7.17078c1.18408,-0.26094 3.57095,0.90715 3.57095,0.90715c0,0 2.12976,2.7704 2.52265,4.76336c2.54011,12.88479 5.30633,27.15094 5.74101,30.46273c0.1449,1.10394 -0.64286,5.72563 -0.64286,5.72563z" fill="#582700" stroke="#000000" stroke-width="2.5" stroke-linecap="round"/><path d="M207.30369,122.15274c-0.85351,-0.90048 -0.0134,-1.81533 -0.0134,-1.81533l1.04925,-1.08252c0.10213,-0.06498 0.20433,-0.12919 0.30665,-0.19261c-2.25115,-5.52712 -2.78006,-12.7689 -4.09374,-18.47012c-0.34068,-1.47854 -1.59345,-5.39895 -1.21186,-6.84111c0.63899,-2.41494 2.36625,-2.23378 4.13105,-2.69552c3.00277,-0.78563 5.99027,-1.52565 8.85384,-2.77417c7.10052,-3.08548 14.34586,-5.25084 21.59202,-7.85977c2.28658,-0.82327 4.547,-1.50995 6.94342,-1.90777c0.65572,-0.10887 1.42094,-0.57421 1.98226,-0.19494c1.98797,1.34322 1.74917,3.47574 1.89704,5.51094c0.29492,4.05958 -0.41184,7.97356 0.38237,12.00234c0.5884,3.08655 0.85924,6.34039 1.18235,9.46943c0.11148,1.0798 0.86819,2.93582 0.05838,3.97955c-1.66052,2.14014 -7.19338,2.30305 -9.57614,2.83489c-7.2655,1.62169 -14.56823,3.08431 -21.73642,5.1473c-2.54113,0.83208 -4.94546,1.70651 -7.27996,2.92385c0.05974,0.37822 0.00256,0.89809 -0.58845,1.26676c-0.64124,0.4 -1.1164,0.1264 -1.38518,-0.13972c-0.07792,0.04865 -0.15579,0.0978 -0.2336,0.14747l-0.56625,0.67669c0,0 -0.84011,0.91485 -1.69363,0.01437z" fill="#000000" stroke="none" stroke-width="0.5" stroke-linecap="butt"/><path d="M227.89043,133.3351c3.763,-3.65941 8.24564,-2.57192 10.88933,1.77763c3.03201,4.98842 0.2243,9.07968 0.2243,9.07968c0,0 -2.62855,-0.416 -5.73174,0.03932c-3.86397,0.56697 -5.81319,1.59456 -5.81319,1.59456c0,0 -4.67362,-7.52681 0.43128,-12.49121z" fill="#ffffff" stroke="#0a0a0a" stroke-width="2" stroke-linecap="butt"/><path d="M252.83673,127.55713c6.52936,2.36757 5.04726,11.26835 5.04726,11.26835c0,0 -2.16987,-0.10818 -5.92381,1.02521c-3.01483,0.91023 -5.26995,2.41629 -5.26995,2.41629c0,0 -4.09793,-2.54987 -3.17569,-8.42091c0.80413,-5.11911 4.50916,-8.03416 9.32217,-6.28894z" data-paper-data="{&quot;index&quot;:null}" fill="#ffffff" stroke="#0a0a0a" stroke-width="2" stroke-linecap="butt"/><g data-paper-data="{&quot;index&quot;:null}" stroke="#000000" stroke-width="1" stroke-linecap="butt"><path d="M243.15519,161.46544c-11.71163,2.89515 -11.58453,-10.99034 -11.58453,-10.99034l17.39805,-4.47508c0,0 6.58593,12.40023 -5.81353,15.46542z" fill="#000000"/><path d="M240.83839,157.94642c3.43655,0.21165 6.41312,1.80583 5.94176,2.08769c-0.97402,0.58243 -2.16853,1.07126 -3.62501,1.43132c-4.3651,1.07909 -7.08563,-0.17299 -8.78109,-2.16838c-0.32938,-0.38765 3.30856,-1.545 6.4643,-1.35062z" fill="#ff8484"/><path d="M232.34736,154.94345c-0.35627,-1.81538 -0.7767,-4.46835 -0.7767,-4.46835l15.29037,-3.93295l1.08391,4.52211c0,0 -15.58581,3.93901 -15.59755,3.87918z" fill="#ffffff"/></g><path d="M233.93213,144.91972l-0.39869,0.0446c-0.76224,0.38867 -1.70568,0.67381 -2.56283,0.36888c0.01333,0.82878 -1.93989,0.89854 -2.1489,0.23051c-0.09756,-0.31188 -0.66512,-0.4104 -0.8376,-0.47092c0,0 -0.06175,-0.02413 -0.14151,-0.07775c-0.14226,0.06188 -0.27504,0.11811 -0.39474,0.16444c0,0 -0.99503,0.38353 -1.35285,-0.68301c-0.35782,-1.06654 0.63722,-1.45007 0.63722,-1.45007c1.19546,-0.45899 2.74433,-1.2039 4.03568,-1.10264c0.58903,0.0462 1.12898,0.42425 1.71852,0.46236c0.54303,0.03511 1.08646,-0.0846 1.63044,-0.07777l0.76316,0.14273c0,0 1.03733,0.21985 0.83222,1.33173c-0.20511,1.11188 -1.24244,0.89203 -1.24244,0.89203l-0.1042,-0.02729c-0.17889,0.20251 -0.43347,0.25218 -0.43347,0.25218z" fill="#000000" stroke="none" stroke-width="0.5" stroke-linecap="butt"/><path d="M249.19155,141.4885c0,0 -0.24725,0.08175 -0.49313,-0.00951l-0.08073,0.07573c0,0 -0.82585,0.70781 -1.48623,-0.17739c-0.66035,-0.8852 0.1655,-1.59303 0.1655,-1.59303l0.61576,-0.50387c0.47974,-0.27493 1.01345,-0.43732 1.48018,-0.73687c0.50671,-0.3252 0.82318,-0.92757 1.32596,-1.2597c1.10227,-0.72816 2.79712,-0.83276 4.05534,-1.01638c0,0 1.04792,-0.15151 1.18928,0.97172c0.14136,1.12323 -0.90657,1.27474 -0.90657,1.27474c-0.12616,0.01804 -0.26817,0.03378 -0.42101,0.04919c-0.04769,0.08702 -0.09212,0.13896 -0.09212,0.13896c-0.12699,0.13897 -0.58822,0.50691 -0.54062,0.83187c0.10197,0.69606 -1.78014,1.34359 -2.00592,0.85763c-0.62939,0.69425 -1.5892,0.90758 -2.43276,0.93946l-0.37295,0.15749z" data-paper-data="{&quot;index&quot;:null}" fill="#000000" stroke="none" stroke-width="0.5" stroke-linecap="butt"/><path d="M250.74746,170.50766c-0.63799,0.44077 -2.20358,-0.95138 -2.61309,-1.37376c-0.05019,-0.05177 -0.21248,-0.24946 -0.39413,-0.46751c-0.44317,-0.20092 -0.85834,-0.52344 -1.10986,-0.68026c-0.27532,-0.32356 -0.56328,-0.637 -0.85915,-0.94342c-0.36392,-0.23851 -0.71899,-0.48631 -1.02755,-0.77787c-0.975,-0.92126 -1.69259,-1.87934 -2.74698,-2.57587c-0.23775,-0.06445 -0.48285,-0.10615 -0.71482,-0.19084c-1.80448,-0.65869 -3.52097,-1.60812 -5.29407,-2.34282c-0.89269,-0.36989 -1.78806,-0.59324 -2.68536,-0.98549c0,0 -0.06435,-0.02822 -0.14265,-0.08873c-0.06925,-0.0312 -0.13971,-0.06519 -0.21154,-0.10209l-0.29637,-0.27109c0,0 -0.46149,-0.50247 0.00728,-0.99713v0c0.46878,-0.49466 0.93028,0.0078 0.93028,0.0078l-0.04362,0.00408c0.81397,0.48784 1.40684,0.20263 2.27527,-0.10108c1.40006,-0.48148 2.67404,-1.41609 4.14078,-1.70774c0.89453,-0.17787 1.53236,0.30659 2.39158,0.27987c0.75107,-0.02335 1.28223,-0.57214 1.9262,-0.87572c0.87079,-0.41051 1.67138,-0.16989 2.53904,-0.34275c0.58036,-0.11562 0.68446,-1.12318 0.87112,-1.52172c0.31949,-0.68216 0.70115,-1.35624 1.53803,-1.39715c0.618,-0.03022 1.33891,-0.05654 1.82679,0.35118c0.31607,0.26415 0.08465,0.85439 0.12697,1.28159c-0.2109,1.21349 -0.6913,2.43859 -0.84186,3.6519c-0.13384,1.07847 0.68098,2.60103 -0.18361,3.50121c-0.18131,0.18878 -0.42367,0.29857 -0.67842,0.36533c0.04623,0.52712 0.02367,1.12734 0.10005,1.53689c0.2892,1.55055 1.11767,3.11365 1.57586,4.62637l0.24875,0.82125c0.09873,0.32596 -0.03595,0.6731 -0.30521,0.83365c-0.06215,0.19379 -0.173,0.35982 -0.3497,0.4819z" fill="#000000" stroke="none" stroke-width="0.5" stroke-linecap="butt"/><path d="M255.333,185.74924c0.09189,0.96029 -0.39358,1.80034 -1.08435,1.87628c-0.69076,0.07594 -1.32523,-0.64097 -1.41713,-1.60127c-0.09189,-0.96029 0.39358,-1.80034 1.08436,-1.87628c0.69076,-0.07594 1.32523,0.64098 1.41713,1.60127z" fill="#000000" stroke="#000000" stroke-width="2" stroke-linecap="butt"/><g data-paper-data="{&quot;index&quot;:null}"><path d="M227.94906,165.05279c0,0 3.24648,25.99835 -3.94031,37.88847c-2.16571,3.58303 -14.38823,6.5707 -15.43453,6.5617c-4.5184,-0.03888 -18.13994,-23.17619 -18.13994,-23.17619c0,0 -6.57086,-10.094 -7.74213,-15.22233c13.57898,-12.80285 24.22473,-13.60347 24.22473,-13.60347c1.87283,-1.18119 4.68376,6.59143 4.68376,6.59143l9.17442,22.00963l-1.44295,-3.29877c0,0 -8.25479,-19.5853 -5.90404,-19.07412c2.1629,0.47031 15.6314,-1.75683 14.521,1.32364z" fill="#582700" stroke="#000000" stroke-width="2.5" stroke-linecap="round"/><path d="M218.06331,181.50171c-1.4098,0.96845 -2.97061,1.77615 -4.48989,2.40108c-4.03868,2.23906 -8.49265,4.61943 -12.77242,6.34002c-1.2209,0.49085 -2.41542,1.01149 -3.62248,1.54218c-0.40645,0.1787 -1.44713,0.40798 -1.80793,0.4818c1.06325,1.0476 1.88282,2.78887 3.10193,3.59103c0.14337,0.09436 0.43275,0.06222 0.78523,-0.03659c1.04091,-0.64899 2.19251,-1.16124 2.71045,-1.4592c5.63229,-3.78874 11.84308,-6.2334 17.61942,-9.67957c-0.10952,-0.60766 -0.78835,-1.69802 -0.83909,-1.7997c-0.22991,-0.46077 -0.46073,-0.9196 -0.68521,-1.38102zM217.42121,180.11692c-0.23196,-0.53349 -0.44657,-1.07604 -0.63327,-1.63421c0,0 -0.11573,-0.34716 0.03702,-0.64692c-1.41274,-3.02067 -2.62619,-6.18956 -3.60112,-9.13284c-0.60771,-1.2541 -1.55699,-2.88936 -0.44407,-4.15113c0.80082,-0.90792 2.98884,-1.0744 4.06794,-1.11806c3.46179,-0.14011 6.94864,-0.19681 10.39782,-0.25122c1.8852,1.18679 1.13414,3.17125 1.04801,5.2635c-0.18766,4.55861 -0.24974,9.11185 -0.44313,13.67175c0.2764,3.24129 -0.33967,6.23301 -0.41223,9.42585c-0.10048,4.42206 -0.28734,7.93426 -2.41141,11.8506c-4.37177,3.77865 -12.59326,6.97873 -18.11281,4.56944c-3.69876,-0.44664 -5.71625,-4.30119 -7.80936,-7.16364c-0.35085,-0.47979 -1.87709,-1.99275 -1.89725,-2.54529c-0.01431,-0.39253 0.16256,-0.77351 0.45777,-1.13533c-1.33514,-0.88591 -2.3033,-2.76715 -3.42234,-3.8966c-0.82948,-2.50283 2.46637,-2.96875 4.4483,-3.80726c4.81013,-2.03504 9.73552,-4.36243 14.29236,-6.9174c1.49674,-0.61566 3.05549,-1.41239 4.43777,-2.38122zM201.25592,196.56537c-0.01855,0.0069 -0.03738,0.01407 -0.05649,0.02147c-1.16397,0.70212 -2.57823,1.5652 -2.55653,1.59516c2.04627,2.82508 5.0267,7.7954 8.63163,8.29054c5.0977,2.22513 12.53125,-0.75565 16.66399,-4.08439c1.86458,-3.60827 1.96231,-6.83197 2.06283,-10.87599c0.07898,-3.17728 0.68408,-6.13386 0.41231,-9.35823c0.18074,-4.5945 0.25828,-9.18078 0.444,-13.77284c0.02569,-0.63507 0.43827,-3.63798 0.07609,-3.69482c-3.54933,0.29968 -7.16553,-0.13964 -10.70301,0.3102c-0.29055,0.03695 -2.67587,0.47459 -2.60292,0.90108c0.1186,0.69345 0.60753,1.56018 0.91324,2.18946c1.97351,5.88618 6.03736,11.0736 7.60267,16.99288c-0.42447,0.6263 -0.94742,1.2191 -1.58425,1.58423l-0.57801,0.48993c0,0 -0.09353,0.07859 -0.23434,0.1311c-2.07904,2.05878 -5.9851,3.17972 -8.11843,3.99662c-3.59263,1.46346 -6.69113,3.91593 -10.37282,5.28361z" fill="#000000" stroke="none" stroke-width="0.5" stroke-linecap="butt"/><path d="M213.61124,183.8713c1.51928,-0.62493 3.08229,-1.42936 4.49209,-2.3978c0.22448,0.46142 0.45808,0.92544 0.68799,1.38621c0.05074,0.10168 0.73229,1.19911 0.84181,1.80677c-5.77634,3.44618 -12.06808,5.94139 -17.70038,9.73012c-0.51793,0.29794 -1.67193,0.80715 -2.71285,1.45614c-0.35249,0.09881 -0.64304,0.12926 -0.78641,0.03493c-1.21909,-0.80217 -2.04608,-2.56047 -3.10932,-3.60808c0.3608,-0.07382 1.40149,-0.30302 1.80795,-0.48172c1.20706,-0.53071 2.40083,-1.05489 3.62174,-1.54573c4.27977,-1.7206 8.81869,-4.14178 12.85737,-6.38082z" data-paper-data="{&quot;noHover&quot;:false,&quot;origItem&quot;:[&quot;Path&quot;,{&quot;applyMatrix&quot;:true,&quot;segments&quot;:[[[926.17844,407.1979],[3.2606,1.25965],[-0.27949,0.97418]],[[925.31465,410.11917],[0.29084,-0.97519],[-0.06418,0.21521]],[[924.29914,413.90358],[-0.01258,-1.20526],[13.15638,4.16543]],[[964.1057,425.02121],[-12.99513,-4.87922],[1.17537,0.35239]],[[970.21765,426.67451],[-2.3817,-0.804],[0.75941,0.04146]],[[971.83798,426.41666],[-0.25651,0.23985],[2.18115,-2.03947]],[[976.78433,418.26967],[-1.76682,2.44279],[-0.76669,0.00973]],[[972.89889,418.10481],[0.90089,0.17138],[-2.67549,-0.50896]],[[964.88923,416.67374],[2.68829,0.42712],[-9.42353,-1.49721]],[[936.29671,409.90591],[9.13228,2.58714],[-3.35077,-0.55846]]],&quot;closed&quot;:true}]}" fill="#ffffff" stroke="none" stroke-width="0.5" stroke-linecap="butt"/><path d="M202.72775,195.662c5.16873,-3.47076 10.73082,-5.80252 16.09288,-8.82185c0.02573,0.05771 0.15517,0.12905 0.19955,0.18973c0.44336,0.60613 0.91383,0.11753 0.91383,0.11753l0.57767,-0.48597c0.63684,-0.36513 1.16013,-0.94846 1.5846,-1.57475c-1.56531,-5.91928 -5.58391,-11.06221 -7.55742,-16.94838c-0.30572,-0.62926 -0.79271,-1.59863 -0.91132,-2.2921c-0.07296,-0.4265 2.31861,-0.86373 2.60915,-0.90068c3.53749,-0.44983 7.17398,-0.00251 10.7233,-0.3022c0.36219,0.05683 -0.04705,3.06232 -0.07274,3.69739c-0.18573,4.59206 -0.247,9.20378 -0.42775,13.79828c0.27176,3.22437 -0.33466,6.21489 -0.41363,9.39216c-0.10052,4.04402 -0.21589,7.29125 -2.08047,10.89951c-4.13274,3.32874 -11.60875,6.31558 -16.70646,4.09045c-3.60492,-0.49514 -6.60841,-5.48361 -8.65467,-8.3087c-0.0359,-0.04954 3.93174,-2.44005 4.12342,-2.55041z" data-paper-data="{&quot;noHover&quot;:false,&quot;origItem&quot;:[&quot;Path&quot;,{&quot;applyMatrix&quot;:true,&quot;segments&quot;:[[[926.61254,417.73069],[12.14285,3.5238],[-0.03018,0.12086]],[[926.46822,418.11346],[0.06716,-0.13431],[-0.67082,1.34164]],[924.45576,418.78428],[[923.08279,418.0906],[0,0],[-1.44471,-0.43097]],[[919.22563,415.72869],[1.11205,1.01797],[0.89694,-11.9485]],[[928.15956,380.1298],[-1.74473,12.05571],[0.38029,-1.32836]],[[929.175,375.57071],[0.02742,1.37277],[-0.01686,-0.84429]],[[923.5003,374.93752],[0.60865,-0.05075],[-7.41054,0.61792]],[[901.48814,378.8123],[7.37628,-0.90935],[-0.71866,0.25961]],[[903.08234,385.83106],[-0.2998,-1.20115],[2.16779,8.68513]],[[909.35292,411.92731],[-2.15853,-8.69186],[0.69956,6.26621]],[[913.83986,429.61277],[-1.39861,-6.02998],[1.78014,7.67491]],[[922.29365,449.50563],[-5.21858,-6.1072],[9.74892,4.62723]],[[957.96755,450.34516],[-9.56021,6.37347],[7.18055,-2.44927]],[[972.39433,430.92276],[-3.08539,6.24485],[0.05411,-0.10951]],[[963.14745,427.86406],[0.43501,0.13058],[-11.92317,-4.46591]]],&quot;closed&quot;:true}]}" fill="#66c8ff" stroke="none" stroke-width="0.5" stroke-linecap="butt"/></g><path d="M285.78463,101.65686v6.6936h-8.8645v-6.6936z" data-paper-data="{&quot;index&quot;:null}" fill="#582700" stroke="none" stroke-width="0" stroke-linecap="butt"/><path d="M266.05751,94.19204v3.89034h-5.00186v-3.89034z" data-paper-data="{&quot;index&quot;:null}" fill="#582700" stroke="none" stroke-width="0" stroke-linecap="butt"/></g></g></svg>