<svg version="1.1" xmlns="http://www.w3.org/2000/svg" xmlns:xlink="http://www.w3.org/1999/xlink" width="101.40619" height="180.3149" viewBox="0,0,101.40619,180.3149"><g transform="translate(-176.77567,-92.72332)"><g data-paper-data="{&quot;isPaintingLayer&quot;:true}" fill-rule="nonzero" stroke-linejoin="miter" stroke-miterlimit="10" stroke-dasharray="" stroke-dashoffset="0" style="mix-blend-mode: normal"><g stroke="#000000" stroke-linecap="round"><path d="M221.58513,175.32795c0,0 -28.22914,5.91484 -28.27891,-12.06568c-0.01835,-6.62461 16.21325,-5.02736 16.21325,-5.02736z" data-paper-data="{&quot;origPos&quot;:null}" fill="#66c8ff" stroke-width="2"/><path d="M213.54133,163.63933c0,0 -15.91916,-1.89997 -15.71052,-2.51368c0.66156,-1.94585 12.44273,-1.38252 12.44273,-1.38252z" data-paper-data="{&quot;origPos&quot;:null}" fill="#0a0a0a" stroke-width="1"/></g><g><g data-paper-data="{&quot;index&quot;:null}"><g stroke="#000000" stroke-width="3" stroke-linecap="round"><path d="M271.72573,199.45578c0,0 4.57136,9.72006 4.89585,14.31627c-14.40562,8.86869 -24.33884,7.8765 -24.33884,7.8765c-1.90071,0.72033 -3.34743,-6.40932 -3.34743,-6.40932c0,0 -3.28045,-13.8256 -5.38012,-22.67466c-1.37873,-5.81066 -3.53281,-14.88911 -3.53281,-14.88911c0,0 -1.11232,-5.81916 -0.05498,-6.12719c6.36108,-1.85311 12.15245,-4.90056 15.60469,-4.68493c1.15075,0.07187 3.61048,5.2304 3.61048,5.2304l12.54315,27.36203z" data-paper-data="{&quot;origPos&quot;:null}" fill="#582700"/><path d="M273.34982,204.97986l-24.35051,8.1014l-1.06035,-3.23255l24.30819,-8.35656z" data-paper-data="{&quot;origPos&quot;:null}" fill="none"/></g><path d="M247.59039,209.48101l-7.73372,-36.04728l0.99804,-1.04384l14.96191,-5.1159l15.59413,34.01198z" fill="#66c8ff" stroke="#000000" stroke-width="1" stroke-linecap="round"/><path d="M248.825,212.66992l-0.73861,-2.21099l24.18692,-8.07993l0.73861,2.21099z" fill="#ffffff" stroke="none" stroke-width="0" stroke-linecap="butt"/></g><g fill="#fffc96" stroke="#000000" stroke-width="2" stroke-linecap="round"><path d="M269.13508,195.19896c0,0 4.37619,-0.25438 4.80206,2.6589c0.68136,4.66115 -32.33422,4.51027 -33.33733,-0.30464c-0.40984,-1.96726 2.68583,-2.6606 2.68583,-2.6606l0.59706,1.77387c0,0 6.18872,1.3893 13.88916,1.59593c7.59373,0.20377 12.53894,-1.02625 12.53894,-1.02625z"/><path d="M265.57423,187.35156c0,0 2.57725,-2.80349 3.86794,-0.87307c2.70935,4.05223 -22.86544,28.06192 -24.50232,23.72626c-0.99132,-2.62578 2.07364,-4.27054 2.07364,-4.27054l0.47743,1.29152c0,0 4.48751,-2.86746 10.1763,-8.39822c5.6888,-5.53075 8.50225,-10.31435 8.50225,-10.31435z" data-paper-data="{&quot;index&quot;:null}"/></g></g><g data-paper-data="{&quot;origRot&quot;:0}" stroke="#000000" stroke-linecap="round"><path d="M232.43255,228.66832c0,0 -1.33901,-4.61018 0.1552,-4.99609c4.40921,-1.13873 8.23789,-3.87739 12.76559,-3.38983c1.88013,0.20246 3.66326,4.10288 3.66326,4.10288l12.77542,30.54365c0,0 1.36027,3.13665 2.0783,4.96641c0.7677,1.95632 0.57969,5.2606 -1.42225,5.90001c-7.35043,2.34775 -11.49683,5.16453 -16.44881,5.45677c-1.80408,0.10646 -3.72569,0.10102 -4.85127,-1.3129c-1.47032,-1.84692 -1.97819,-6.29978 -1.97819,-6.29978z" data-paper-data="{&quot;origPos&quot;:null}" fill="#ff0000" stroke-width="3"/><path d="M264.80695,263.11442c0,0 -4.98714,4.15584 -9.87806,5.55476c-3.75249,1.0733 -12.1617,2.41358 -12.1617,2.41358c0,0 -2.01769,-2.13498 -2.54336,-3.64898c-0.55376,-1.59491 -0.22257,-4.31722 -0.22257,-4.31722l22.19228,-7.17692z" data-paper-data="{&quot;origPos&quot;:null}" fill="#976e57" stroke-width="2"/><path d="M232.59902,228.9544c0,0 -1.33901,-4.61018 0.1552,-4.99608c4.40921,-1.13873 8.23789,-3.87739 12.7656,-3.3898c1.88013,0.20246 3.66325,4.10288 3.66325,4.10288l12.77542,30.54365c0,0 1.36029,3.13666 2.07832,4.96639c0.7677,1.95632 0.57967,5.2606 -1.42225,5.90001c-7.35043,2.34775 -11.49684,5.16454 -16.4488,5.45677c-1.80408,0.10646 -3.72569,0.10099 -4.85126,-1.3129c-1.47032,-1.84692 -1.97821,-6.29978 -1.97821,-6.29978z" data-paper-data="{&quot;origPos&quot;:null}" fill="#4b4b4b" stroke-width="3"/></g><path d="M228.46144,262.12419c0,0 0.57104,4.4452 -0.41525,6.59c-0.75505,1.64194 -2.61966,2.10649 -4.3969,2.43429c-4.8783,0.89975 -9.57773,-0.84446 -17.27626,-1.36744c-2.09673,-0.14244 -3.06901,-3.30603 -2.79111,-5.38912c0.25993,-1.94832 0.83113,-5.31917 0.83113,-5.31917l5.1054,-32.71179c0,0 0.79924,-4.21354 2.5765,-4.85947c4.27996,-1.55554 8.65222,0.18871 13.2058,0.24067c1.54314,0.01761 1.34474,4.8142 1.34474,4.8142c0,0 0.45918,8.99361 0.75308,14.75c0.4148,8.12444 1.06287,20.81786 1.06287,20.81786z" fill="#4b4b4b" stroke="#000000" stroke-width="3" stroke-linecap="round"/><g><path d="M210.94628,182.18904c0,0 1.94111,-14.4094 4.09862,-14.95725c6.4725,-1.64357 21.26952,-0.71298 31.15944,-0.71298c1.52888,0 2.84914,13.5334 2.84914,13.5334l1.7807,30.62821c0,0 0.24329,14.95796 -1.42456,14.95796c-14.84697,0 -32.2486,0.85262 -38.86622,0.01169c-2.20586,-0.2803 -1.37783,-16.03807 -1.37783,-16.03807z" data-paper-data="{&quot;origPos&quot;:null}" fill="#66c8ff" stroke="#000000" stroke-width="3.5" stroke-linecap="round"/><path d="M229.79114,190.38784c-1.29167,0 -1.29167,-2.4875 -1.29167,-2.4875c0,-5.15926 0,-11.97684 0,-17.1361c0,0 0,-2.4875 1.29167,-2.4875c1.29167,0 1.29167,2.4875 1.29167,2.4875c0,5.15926 0,10.31851 0,15.47777v1.65833c0,0 0,2.4875 -1.29167,2.4875z" fill="#ffffff" stroke="none" stroke-width="0.5" stroke-linecap="butt"/><path d="M241.79114,196.72118c-1.29167,0 -1.29167,-3.125 -1.29167,-3.125c0,-6.48148 0,-15.04629 0,-21.52777c0,0 0,-3.125 1.29167,-3.125c1.29167,0 1.29167,3.125 1.29167,3.125c0,6.48148 0,12.96296 0,19.44445v2.08333c0,0 0,3.125 -1.29167,3.125z" fill="#ffffff" stroke="none" stroke-width="0.5" stroke-linecap="butt"/></g><g fill="none" stroke="#b9b9b9" stroke-width="3"><path d="M244.02902,171.55332c-0.82753,-1.35809 0.08589,-2.57767 1.30884,-3.7957c1.22296,-1.21801 2.45037,-1.58994 3.11989,-0.61516c1.41955,2.06682 -0.06979,3.04234 -1.0274,3.99608c-1.22297,1.21803 -2.23265,2.33277 -3.40133,0.41479z" stroke-linecap="butt"/><path d="M245.01329,170.96257l-2.58997,2.51944" stroke-linecap="round"/><path d="M238.87682,174.11135c1.22296,-1.21801 2.45037,-1.58994 3.11989,-0.61516c1.41955,2.06682 -0.06979,3.04234 -1.0274,3.99608c-1.22295,1.21802 -2.23264,2.33277 -3.40132,0.41479c-0.82753,-1.35809 0.08588,-2.57767 1.30883,-3.79571z" stroke-linecap="butt"/><path d="M238.55223,177.3163l-2.58996,2.51946" stroke-linecap="round"/><path d="M230.33998,179.38348c0.40066,-1.63508 1.73871,-1.48046 3.25852,-1.02164c1.51981,0.45883 2.48819,1.43557 2.24522,2.68318c-0.51517,2.64527 -2.03348,1.77826 -3.22353,1.41899c-1.51981,-0.45882 -2.84604,-0.77137 -2.2802,-3.08052z" stroke-linecap="butt"/><path d="M231.30805,179.9892l-3.1793,-1.00816" stroke-linecap="round"/><path d="M223.14026,175.00773c0.893,-1.31672 2.0678,-0.52961 3.31104,0.62589c1.24325,1.1555 1.81512,2.52367 1.19118,3.55857c-1.32294,2.19428 -2.43342,0.66261 -3.40693,-0.24218c-1.24325,-1.15551 -2.35641,-2.08274 -1.09529,-3.94227z" stroke-linecap="butt"/><path d="M221.24609,173.57133l2.58519,2.46183" stroke-linecap="round"/><path d="M216.63656,168.88311c0.893,-1.3167 2.0678,-0.52961 3.31104,0.62589c1.24326,1.1555 1.81512,2.52367 1.19118,3.55857c-1.32294,2.19427 -2.43342,0.66261 -3.40693,-0.24218c-1.24325,-1.1555 -2.3564,-2.08273 -1.09528,-3.94227z" stroke-linecap="butt"/><path d="M217.3276,169.90853l-2.5852,-2.46183" stroke-linecap="round"/></g><path d="M243.62281,168.1268c-12.08523,-0.21044 -23.80394,-0.45061 -28.56519,-1.58616c-4.35146,-1.03781 -5.59433,-3.83378 -5.59433,-3.83378c0,0 -1.68894,-2.48162 -1.73271,-4.016c-0.13131,-4.60315 0.10999,-17.75131 1.36741,-29.05855c0.04196,-0.37738 0.07922,-0.58794 0.14359,-0.96215c0.1931,-1.12261 1.13256,-5.47487 1.13256,-5.47487c0,0 3.23452,-1.57048 4.9797,-1.99571c5.23556,-1.2757 18.40208,0.58061 32.29949,1.38402c1.25962,0.07282 3.37385,1.81362 3.37385,1.81362c0,0 1.45302,3.17929 1.34936,5.16011c-0.67013,12.8063 -1.45873,26.97312 -1.85105,30.20608c-0.13077,1.07766 -2.0845,5.21443 -2.0845,5.21443z" fill="#582700" stroke="#000000" stroke-width="2.5" stroke-linecap="round"/><path d="M241.53243,147.93847c0.18002,-3.44025 0.73913,-6.20752 1.24879,-6.18084c0.50967,0.02666 0.7769,2.83717 0.59688,6.27741c-0.18002,3.44025 -0.73913,6.20753 -1.24879,6.18085c-0.50967,-0.02666 -0.7769,-2.83717 -0.59688,-6.27742z" fill="none" stroke="#000000" stroke-width="2.5" stroke-linecap="butt"/><path d="M235.32038,147.6928c0.18336,-3.50397 0.64189,-6.32829 1.02412,-6.30827c0.38225,0.02001 0.54349,2.87675 0.36013,6.38071c-0.18336,3.50397 -0.64186,6.32826 -1.02411,6.30826c-0.38225,-0.02001 -0.5435,-2.87673 -0.36014,-6.38069z" fill="none" stroke="#000000" stroke-width="2.5" stroke-linecap="butt"/><path d="M206.06812,123.88326c-0.63491,-1.07674 0.44183,-1.71166 0.44183,-1.71166l1.32972,-0.73645c0.1193,-0.03369 0.23848,-0.06662 0.35758,-0.09879c-0.88397,-5.80574 0.39906,-12.76178 0.50424,-18.47928c0.02728,-1.48275 -0.25281,-5.5083 0.49378,-6.76265c1.25018,-2.10044 2.94673,-1.4656 4.84238,-1.42558c3.22542,0.06811 6.42399,0.17502 9.62514,-0.22983c7.93498,-0.99413 15.78521,-1.08357 23.74754,-1.59015c2.51257,-0.15985 4.9645,-0.19822 7.48113,0.07176c0.6886,0.07387 1.57709,-0.15825 2.04805,0.34952c1.668,1.79833 0.89226,3.74063 0.53088,5.69531c-0.72084,3.89898 -2.41536,7.39165 -2.62491,11.39589c-0.18078,3.06235 -0.7238,6.19673 -1.18281,9.22771c-0.15841,1.04597 0.1392,2.99575 -0.93932,3.76008c-2.21148,1.56723 -7.83237,0.23297 -10.36883,0.09277c-7.73419,-0.42751 -15.46604,-1.0147 -23.21279,-1.00084c-2.7715,0.09971 -5.41565,0.27604 -8.07541,0.79381c-0.03463,0.37193 -0.22267,0.84571 -0.91121,1.0337c-0.74704,0.20396 -1.15763,-0.18122 -1.36194,-0.50386c-0.09079,0.02483 -0.18164,0.05014 -0.27257,0.07594l-0.74082,0.48446c0,0 -1.07674,0.63491 -1.71166,-0.44183z" fill="#000000" stroke="none" stroke-width="0.5" stroke-linecap="butt"/><g><g stroke="#000000" stroke-width="3" stroke-linecap="round"><path d="M185.1997,194.30401l16.09732,-25.43399c0,0 3.12894,-4.7823 4.27893,-4.69929c3.45001,0.24902 8.78064,4.04519 14.83597,6.73416c1.00651,0.44696 -0.8757,6.06454 -0.8757,6.06454c0,0 -3.35144,8.70783 -5.49653,14.28127c-3.26677,8.4878 -8.37066,21.74897 -8.37066,21.74897c0,0 -2.38925,6.87141 -4.17627,5.90283c0,0 -9.97659,-0.34813 -23.06355,-11.06757c0.93758,-4.51125 6.77049,-13.53091 6.77049,-13.53091z" data-paper-data="{&quot;origPos&quot;:null}" fill="#582700"/><path d="M184.40999,196.25211l22.96883,11.53919l-1.48404,3.06127l-23.04497,-11.29201z" data-paper-data="{&quot;origPos&quot;:null}" fill="none"/></g><path d="M185.26651,196.15992l20.01206,-31.61502l14.14123,7.07508l0.84913,1.16819l-12.49538,34.68547z" fill="#66c8ff" stroke="#000000" stroke-width="1" stroke-linecap="round"/><path d="M183.23697,199.21951l1.02829,-2.09204l22.88573,11.2488l-1.02828,2.09205z" fill="#ffffff" stroke="none" stroke-width="0" stroke-linecap="butt"/></g><g stroke="#000000" stroke-width="1.25" stroke-linecap="butt"><g data-paper-data="{&quot;index&quot;:null}" fill="#000000"><path d="M226.39498,159.24601c-10.58962,-1.44198 -6.14827,-5.04794 -6.14827,-5.04794l13.29064,1.63545c0,0 2.81649,4.67355 -7.14236,3.41248z"/></g><g data-paper-data="{&quot;index&quot;:null}" fill="#ffffff"><path d="M226.39498,159.24601c-10.58962,-1.44198 -6.14827,-5.04794 -6.14827,-5.04794c0,0 8.99153,1.10644 11.2354,1.38256c0.0031,0.00038 -0.84077,0.94051 -0.95842,1.9699c-0.09635,0.84311 0.53213,1.81256 0.5124,1.81521c-1.10147,0.14787 -2.60403,0.13823 -4.64112,-0.11972z"/></g></g></g></g></svg>