<svg version="1.1" xmlns="http://www.w3.org/2000/svg" xmlns:xlink="http://www.w3.org/1999/xlink" width="183.18182" height="183.18182" viewBox="0,0,183.18182,183.18182"><g transform="translate(-148.40909,-88.40909)"><g data-paper-data="{&quot;isPaintingLayer&quot;:true}" fill-rule="nonzero" stroke-linejoin="miter" stroke-miterlimit="10" stroke-dasharray="" stroke-dashoffset="0" style="mix-blend-mode: normal"><g stroke-linecap="round"><path d="M246.97005,209.15928l-69.492,-0.83969c0,0 -6.71647,-43.39486 -1.93037,-49.96133c6.96301,-9.55312 65.30963,-2.0992 65.30963,-2.0992" data-paper-data="{&quot;index&quot;:null}" fill="#ffcde0" stroke="#561b25" stroke-width="1.5"/><path d="M225.41469,159.03685c0,0 -6.43174,-7.82025 -15.44269,-20.17507c-0.54346,-0.74514 4.44019,-7.25147 8.42156,-10.60132c5.42875,-4.56766 21.17687,-14.30229 21.17687,-14.30229c0,0 65.99706,32.43463 66.59655,62.41662c0.74471,37.24517 -66.59653,69.66705 -66.59653,69.66705c0,0 -15.74812,-9.73463 -21.17687,-14.30229c-3.98137,-3.34985 -8.96505,-9.85618 -8.42156,-10.60132c9.01097,-12.35482 17.05129,-24.27314 17.05129,-24.27314" data-paper-data="{&quot;index&quot;:null}" fill="#ffcde0" stroke="#561b25" stroke-width="1.5"/><path d="M246.97005,209.15928l-69.492,-0.83969c0,0 -6.71647,-43.39486 -1.93037,-49.96133c6.96301,-9.55312 65.30963,-2.0992 65.30963,-2.0992" data-paper-data="{&quot;index&quot;:null}" fill="#be7683" stroke="#2d1414" stroke-width="5"/><path d="M225.41469,159.03685c0,0 -6.43174,-7.82025 -15.44269,-20.17507c-0.54346,-0.74514 4.44019,-7.25147 8.42156,-10.60132c5.42875,-4.56766 21.17687,-14.30229 21.17687,-14.30229c0,0 65.99706,32.43463 66.59655,62.41662c0.74471,37.24517 -66.59653,69.66705 -66.59653,69.66705c0,0 -15.74812,-9.73463 -21.17687,-14.30229c-3.98137,-3.34985 -8.96505,-9.85618 -8.42156,-10.60132c9.01097,-12.35482 17.05129,-24.27314 17.05129,-24.27314" data-paper-data="{&quot;index&quot;:null}" fill="#be7683" stroke="#2d1414" stroke-width="5"/></g><path d="M148.40909,271.59091v-183.18182h183.18182v183.18182z" fill="none" stroke="none" stroke-width="0" stroke-linecap="butt"/></g></g></svg>