<svg version="1.1" xmlns="http://www.w3.org/2000/svg" xmlns:xlink="http://www.w3.org/1999/xlink" width="258.66667" height="258.66667" viewBox="0,0,258.66667,258.66667"><g transform="translate(-107.43869,-52.08778)"><g data-paper-data="{&quot;isPaintingLayer&quot;:true}" fill-rule="nonzero" stroke-linejoin="miter" stroke-miterlimit="10" stroke-dasharray="" stroke-dashoffset="0" style="mix-blend-mode: normal"><g data-paper-data="{&quot;index&quot;:null}" stroke="#000000" stroke-width="3" stroke-linecap="butt"><path d="M253.11131,188.12963c0,0 -1.49335,11.19408 -9.74317,10.94042c-3.82615,-0.11764 -20.66586,-4.77566 -23.61775,-10.62015c-6.42943,-12.72971 -3.76122,-21.48668 -3.76122,-21.48668c0,0 3.91368,-3.19019 6.44728,-2.9778c7.27166,0.60955 8.43659,5.03943 8.43659,5.03943c0,0 0.44468,2.07463 1.13196,3.31864c0.75805,1.37212 3.22487,4.56746 3.22487,4.56746c0,0 15.56053,0.32395 16.06366,1.53825c0.22419,0.54106 1.81777,9.68045 1.81777,9.68045z" fill="#db93e6"/><path d="M251.35844,183.24969c0,0 16.15146,-0.38015 20.89338,2.86762c7.4688,5.11542 4.65929,14.85398 3.35942,15.86573c-4.07002,3.1679 -19.0362,4.59382 -19.0362,4.59382c-2.9667,-0.00903 -10.45489,-0.29304 -12.67353,-1.01374c-3.49548,-1.13547 -3.21635,-5.72116 -3.05657,-10.36329c0.26375,-7.66241 2.85108,-12.21387 10.5135,-11.95012z" fill="#f89587"/></g><g data-paper-data="{&quot;index&quot;:null}" stroke-linecap="butt"><path d="M274.76074,223.27984c0,0 -17.48195,7.31916 -29.72415,8.93031c-14.25569,1.87613 -50.69283,1.65307 -50.69283,1.65307l-5.99601,-37.38324c0,0 24.80098,-6.63749 50.51085,-1.7282c12.68707,2.42259 38.29394,16.79263 38.54744,17.09117c1.37508,1.61934 -2.6453,11.43688 -2.6453,11.43688z" fill="#0066cc" stroke="#000000" stroke-width="3"/><path d="M209.23987,215.78298c0,0 0.00784,-1.27446 0.38853,-2.61186c1.63446,-5.74202 7.43996,-20.48951 21.46322,-20.48951c17.28945,0 29.60058,13.50079 29.60058,13.50079c0,0 -5.59417,2.59776 -7.93487,4.46378c-2.71319,2.16298 -7.39239,7.75528 -7.39239,7.75528l-4.50977,-1.41841c0,0 3.37386,-5.46966 2.50212,-6.02072c-2.70697,-1.71119 -12.76309,-0.76554 -21.31319,1.12043c-7.07228,1.56 -12.80421,3.70021 -12.80421,3.70021z" fill="#0f1b82" stroke="none" stroke-width="0"/><path d="M242.43178,214.52361c-1.78544,4.20673 -5.61072,8.0316 -8.34951,11.67489c-0.93211,1.44168 -3.20215,1.86436 -3.25121,-0.46373c-0.04705,-2.23248 2.8187,-6.11253 4.37613,-7.61548c2.08147,-2.51498 5.33991,-5.95458 8.61442,-7.05121l-0.25552,1.12606c0,0 -0.79299,1.50251 -1.13431,2.32947z" fill="#000000" stroke="none" stroke-width="0.5"/></g><g data-paper-data="{&quot;index&quot;:null}" stroke-linecap="butt"><g><path d="M245.597,257.39315c0,0 -20.5247,-1.93479 -21.46852,-7.09195c-0.37733,-2.06186 -2.48347,-9.60144 1.09078,-11.93919c6.79981,-4.44743 23.23051,-3.37545 34.5092,-3.37545c32.03595,0 44.27853,10.18143 51.00779,19.34523c2.7021,3.67968 -0.1426,9.86467 -4.38912,14.18248c-8.17199,8.30917 -44.24479,5.68382 -60.75012,-11.12111z" fill="#ffffff" stroke="#000000" stroke-width="3"/><path d="M245.77851,256.48854c0,0 -15.30861,-1.09275 -18.92191,-4.68504c-5.50801,-5.47598 0.00621,-13.16931 12.66369,-13.16931c19.07073,0 41.03587,14.871 46.57932,27.29525c0.54943,1.23141 1.08033,2.32872 1.60218,3.25326c-0.78048,1.06945 -1.74054,2.11414 -3.04561,2.27158c-11.09439,1.33841 -24.81353,-5.85403 -24.81353,-5.85403c0,0 -7.0789,-3.76115 -9.67479,-5.44295c-1.7485,-1.13282 -4.38936,-3.66879 -4.38936,-3.66879z" fill="#db93e6" stroke="none" stroke-width="0"/></g><g><g><path d="M227.63777,243.15177c0,0 -0.73684,-12.64137 8.01814,-23.64102c0.9546,-1.19934 5.88424,-3.95421 9.08043,-2.05446c3.94911,2.34725 6.08196,11.23545 6.08196,11.23545c0,0 10.29947,-13.17069 14.03339,-13.17069c4.68634,0 11.53515,3.25641 15.90592,8.20263c0.80753,0.91385 -1.49379,2.86119 -0.63142,3.79882c3.99094,4.33931 9.42858,8.35207 13.01856,11.74184c11.91656,5.5657 15.43465,17.97603 9.69842,21.46094c-9.99141,6.07004 -29.38772,1.81457 -41.72114,-3.90954c-6.86175,-3.18464 -9.89213,-7.90144 -11.30515,-8.54703c-2.51572,-1.1494 -6.78318,0.51386 -10.82726,-0.34316c-5.85272,-1.2403 -11.35183,-4.77383 -11.35183,-4.77383z" fill="#ff2d32" stroke="#000000" stroke-width="3"/><path d="M250.56636,231.30419c0,0 1.03173,-1.61698 1.62521,-2.47942c0.89719,-1.30381 3.74562,-4.08722 3.74562,-4.08722c0.06404,2.88399 2.50755,4.11507 2.50755,4.11507c0,0 17.92063,-2.62913 22.78372,6.62787c1.98055,3.77001 -1.31297,9.60506 -1.31297,9.60506c0,0 7.27039,3.41739 8.917,7.80897c1.81897,4.85127 1.31242,9.43149 1.31242,9.43149c0,0 -4.94065,-0.29419 -9.36032,-1.00218c-3.84783,-0.61638 -6.95697,-1.02966 -10.4395,-1.96234c-3.6067,-0.96594 -7.9528,-2.85963 -11.74615,-5.23219c-2.94351,-1.84102 -5.38462,-4.79543 -7.97022,-7.0034c-2.15193,-1.20602 -6.32938,-0.04201 -10.23651,-0.25005c-5.0682,-0.26987 -8.05217,-1.62518 -12.0384,-4.66678c-3.84314,-2.93242 1.3077,-11.96918 4.06818,-14.65641c1.31805,-1.28308 1.40444,-2.39401 2.17708,-3.90429c0.84556,-1.6528 2.3754,-3.67791 3.88633,-4.34599c1.68445,-0.74483 4.6155,-1.09023 4.6155,-1.09023l-2.34839,4.9931c0,0 4.96248,5.36309 6.813,6.90331c0.95535,0.79515 3.00087,1.19561 3.00087,1.19561z" fill="#ab164a" stroke="none" stroke-width="0"/><path d="M235.65833,228.64745c-0.2732,-0.25231 -0.52147,-0.67763 -0.25798,-1.31527c0.38873,-0.94066 1.25482,-0.80323 1.55616,-0.72244c1.14108,-0.64911 2.08222,0.56135 2.83323,1.61624c1.31663,1.8494 2.01641,4.5475 0.00701,5.13282c-2.49415,0.72653 -4.23664,-2.45616 -4.13842,-4.71134z" fill="#000000" stroke="none" stroke-width="0.5"/></g><g><g><path d="M274.28393,248.32483c-2.78959,-1.14784 0.33653,-7.24669 5.50167,-10.57563c5.12053,-3.30021 12.32066,-3.47298 12.78559,0.075c0.59776,4.56149 -1.77593,1.87511 -9.68605,4.27525c-5.92127,1.79667 -4.22951,8.0242 -8.60122,6.22537z" fill="#feebf7" stroke="#000000" stroke-width="2.5"/><path d="M275.41335,247.41774c0,0 -1.62433,0.60688 -1.13358,-0.45627c0.1988,-0.4307 1.12382,-3.73456 1.66391,-4.43617c0.67504,-0.87692 1.61732,-1.54627 1.61732,-1.54627c0,0 1.34929,0.439 1.74683,0.84579c0.38726,0.39628 0.09011,1.14293 0.09011,1.14293c0,0 -2.16351,4.44999 -3.98458,4.44999z" fill="#db93e6" stroke="none" stroke-width="0"/></g><g><path d="M265.21775,242.17444c-3.67112,-1.40416 -1.38501,-8.56452 6.12158,-10.57563c11.19831,-3.00017 16.28092,-0.58323 15.8136,2.20398c-0.30994,1.84862 -4.23977,-1.47701 -13.03593,2.87325c-6.93591,3.43025 -5.56475,6.77381 -8.89924,5.49841z" fill="#feebf7" stroke="#000000" stroke-width="2.5"/><path d="M266.43767,241.8715c0,0 -1.78521,-0.66772 -1.75552,-2.31298c0.02564,-1.42043 1.11647,-4.47454 2.17933,-4.57196c0.73925,-0.06776 2.26735,-0.05378 3.08176,0.54559c0.99886,0.73512 0.66379,1.80293 0.66379,1.80293c0,0 -3.3626,3.4398 -4.16936,4.53645z" fill="#db93e6" stroke="none" stroke-width="0"/></g><g><path d="M256.73511,235.04952c0,-3.18964 3.96049,-9.90058 10.31565,-9.90058c4.34662,0 8.69251,-0.354 9.9714,1.79347c2.17676,3.65515 -6.72115,2.26157 -10.90126,3.45682c-6.0948,1.74273 -9.3858,7.8399 -9.3858,4.65027z" fill="#feebf7" stroke="#000000" stroke-width="2.5"/><path d="M257.8901,234.0913c0,0 1.04621,-2.67949 1.79545,-3.63321c0.58528,-0.74501 1.81944,-1.99047 1.81944,-1.99047l2.20376,1.60331l-5.81866,4.02038z" fill="#db93e6" stroke="none" stroke-width="0"/></g></g></g></g><g data-paper-data="{&quot;index&quot;:null}" stroke-linecap="butt"><path d="M263.86274,206.81642c0,0 -34.17054,-17.63787 -55.67575,7.0806c-10.41253,-4.09137 -23.79164,-38.30552 -23.79164,-38.30552l40.7172,-13.51811c0,0 4.81905,5.3144 7.15747,9.05888c2.86488,4.58752 8.77535,16.45416 8.77535,16.45416c0,0 17.61879,8.39661 21.24395,11.45182c3.95233,3.33093 1.57342,7.77816 1.57342,7.77816z" fill="#feebf7" stroke="#000000" stroke-width="3"/><path d="M219.64928,168.3129c0,0 -8.9277,1.39915 -18.37634,4.1406c-7.80422,2.26432 -17.09843,8.32433 -15.77974,7.94818c0.12807,-0.03653 -0.49694,-2.12224 -0.44264,-4.58247c0.02127,-0.96306 0.77151,-0.66213 2.46446,-1.28895c10.67417,-3.9521 34.5758,-9.78158 35.30508,-9.78158c6.38341,0 10.53533,11.08865 10.53533,11.08865c0,0 -1.90167,-2.17813 -9.30792,-4.75228c-6.00783,-2.08812 -4.39824,-2.77217 -4.39824,-2.77217z" fill="#db93e6" stroke="none" stroke-width="0"/><path d="M236.6391,192.14904c-2.12976,-2.5763 -5.1168,-4.69838 -8.5164,-6.14582c-0.30394,-0.12941 -4.21835,6.39932 -4.58787,6.27265c-0.70694,-0.24232 -4.19671,0.38049 -3.9146,-1.62801c0.08383,-0.5969 4.90067,-5.81215 4.717,-5.8633c-3.40715,-0.94867 -7.51037,-1.01528 -7.51037,-1.01528c0,0 -4.14624,0.03606 -4.60791,0.79737c-0.24649,0.40649 0.62843,0.72195 0.90646,1.10891c0.95368,1.32734 1.79206,2.36483 3.25913,3.20404c4.67886,2.05111 9.93058,4.5383 14.9149,5.62661c1.68633,0.3682 5.45921,0.23528 5.48731,-0.11407c0.06727,-0.83626 0.14105,-1.46263 -0.14766,-2.24312zM226.88925,182.08703c4.96964,1.55805 10.1074,5.36699 12.70708,8.67131c1.83021,4.82875 0.28704,7.04054 -4.96757,6.34754c-6.11514,-0.8065 -13.72862,-3.25059 -19.32497,-5.72116c-1.94242,-1.14026 -7.71019,-5.29593 -6.69807,-7.98039c0.78624,-2.08536 6.34106,-2.07491 6.40819,-2.09458c0.16831,-0.12458 6.70808,-0.84272 11.87534,0.77728z" fill="#ff0000" stroke="none" stroke-width="0.5"/></g><path d="M200.97932,191.7283c0,-2.67929 0.91917,-2.83761 3.12229,-2.83761c2.20313,0 3.46902,0.07442 3.46902,2.75371c0,2.67929 -1.38865,6.52935 -1.38865,6.52935c0,0 -5.20265,-3.76616 -5.20265,-6.44545z" data-paper-data="{&quot;index&quot;:null}" fill="#db93e6" stroke="none" stroke-width="0" stroke-linecap="butt"/><g data-paper-data="{&quot;index&quot;:null}"><g><g stroke-linecap="butt"><path d="M149.44376,253.91918c0,-1.05395 1.64298,-3.49187 3.1263,-4.391c1.22058,-0.73987 2.33304,-0.049 2.33304,-0.049c0,0 -1.79653,4.43308 1.47485,7.36983c7.53147,6.76109 20.71537,17.00512 36.12217,17.00512c10.70796,0 16.88633,0.19611 22.22896,-7.15497c4.85398,-6.67874 9.23528,-21.10531 11.56024,-18.65015c0.52212,0.55135 2.00717,2.52198 1.77531,3.87751c-0.25252,1.47633 -2.275,2.37052 -2.96561,3.68495c-0.5827,1.10906 0.94429,19.52904 -6.19795,23.49634c-11.56736,6.42532 -16.67969,8.12546 -34.55607,4.91446c-24.58112,-4.41531 -34.90122,-13.55152 -34.90122,-30.10313z" fill="#f0f0f0" stroke="#000000" stroke-width="3"/><path d="M150.71024,262.61836c0,0 17.65887,15.3696 39.07597,18.0995c32.33575,4.12162 33.80192,-10.20998 33.80192,-10.20998c0,0 -2.47183,13.61331 -24.05289,13.61331c-8.08132,0 -25.47198,-2.28793 -33.46962,-5.92447c-13.35995,-6.07478 -15.35537,-15.57836 -15.35537,-15.57836z" fill="#db93e6" stroke="none" stroke-width="0"/></g><g><g><path d="M152.23868,253.08696c5.39147,-12.11268 12.02989,-11.71069 16.00748,-10.79302c2.35666,-1.19205 1.931,-3.75444 1.931,-3.75444c0,0 -7.8272,-11.71134 -6.3792,-12.65055c0.78678,-0.51032 4.42886,-5.64346 7.46469,-4.71239c5.16046,1.58268 10.42752,9.89525 10.42752,9.89525c0,0 -2.90196,-8.88101 4.94174,-9.81023c9.96154,-1.1801 22.80323,0.29168 29.33264,2.5416c1.98432,0.68375 2.20434,3.24497 0.83576,6.44811c-1.73469,4.06003 -5.0693,10.21242 -5.0693,10.21242c0,0 5.11144,-8.735 5.44825,-9.046c2.32575,-2.14759 8.9393,-8.48339 12.24622,-6.16481c2.61988,1.83687 3.73228,10.13777 1.41527,14.01277c-0.57238,0.95724 -6.60054,6.16287 -8.51531,10.13614c-1.90967,3.96266 0.2422,11.38728 -1.93396,15.81858c-3.73243,7.60028 -12.5579,11.57083 -21.23953,11.57083c-23.19361,0 -50.72609,-15.13833 -46.91329,-23.70429z" fill="#ef2a2e" stroke="#000000" stroke-width="3" stroke-linecap="butt"/><path d="M199.46805,236.25553c-1.96585,0 -16.67995,3.98582 -23.82437,3.84105c-1.8688,-0.03788 -4.38169,-2.72039 -4.63566,-3.03103c-2.80092,-3.42589 -6.22178,-9.90405 -5.01224,-10.6285c6.91356,-4.14078 35.71756,-0.08209 35.71756,-0.08209c0,0 1.62159,2.90286 1.62159,6.03694c0,3.13406 -1.3868,3.86364 -3.86686,3.86364z" fill="#ab164a" stroke="none" stroke-width="0" stroke-linecap="butt"/><path d="M165.91814,260.52764c0.49894,-0.72814 1.46693,-4.16411 22.52759,-0.69627c16.34007,2.69057 23.35879,9.33728 23.35879,9.33728l7.15199,-3.81146c0,0 -1.19224,10.98018 -23.7812,10.25576c-5.58316,-0.17906 -18.85617,-3.97053 -28.27313,-8.59228c-7.40026,-3.63198 -11.6642,-7.81921 -12.35796,-8.96837c-2.85451,-4.72822 -0.10013,-8.64611 5.2173,-13.17713c0.01477,9.69919 5.5264,16.57214 6.15661,15.65248z" fill="#ab164a" stroke="none" stroke-width="0" stroke-linecap="butt"/><path d="M228.28244,236.61775l-3.86686,4.10512" fill="none" stroke="#000000" stroke-width="2.5" stroke-linecap="round"/></g><g stroke-linecap="butt"><g><path d="M187.36181,248.2956c14.46152,0 21.27523,5.3253 21.27523,9.20754c0,3.88224 -5.99544,-2.47514 -20.45695,-2.47514c-14.46152,0 -19.02497,-3.5432 -19.02497,-3.86123c0,-1.70411 3.74518,-2.87117 18.20669,-2.87117z" fill="#f0f0f0" stroke="none" stroke-width="0"/><path d="M176.81187,239.26895c0,-3.80541 7.04218,-3.4117 18.79827,-3.4117c11.75608,0 18.66005,5.35934 18.66005,9.16473c0,3.80539 -7.73607,-3.56588 -19.48939,-3.81306c-12.72364,-0.26758 -17.96894,1.86541 -17.96894,-1.93998z" fill="#f0f0f0" stroke="none" stroke-width="0"/><path d="M173.28441,244.62864c0,-2.06895 5.33794,-3.28592 15.96748,-2.34938c15.81661,1.39357 22.94496,5.42339 22.94496,7.49234c0,2.06894 -12.03896,-1.7393 -22.11561,-1.7393c-10.07664,0 -16.79681,-1.33472 -16.79681,-3.40367z" fill="#f0f0f0" stroke="none" stroke-width="0"/><path d="M203.89954,237.59957c0,0 -13.54775,15.47664 -18.40206,13.86907c-0.82765,-0.2741 -5.695,-3.08369 -7.7786,-6.98119c-1.74875,-3.27114 -0.07987,-7.02452 -0.07987,-7.02452c0,0 11.71829,-1.53219 16.07969,-1.22555c4.44537,0.31255 10.18084,1.36218 10.18084,1.36218z" fill="#db93e6" stroke="none" stroke-width="0"/><path d="M176.81187,239.26895c0,-3.80541 7.04218,-3.4117 18.79827,-3.4117c11.75608,0 18.66005,5.35934 18.66005,9.16473c0,3.80539 -7.73607,-3.56588 -19.48939,-3.81306c-12.72364,-0.26758 -17.96894,1.86541 -17.96894,-1.93998z" fill="none" stroke="#000000" stroke-width="2.3"/></g><path d="M187.36181,248.2956c14.46152,0 21.27523,5.3253 21.27523,9.20754c0,3.88224 -5.99544,-2.47514 -20.45695,-2.47514c-14.46152,0 -19.02497,-3.5432 -19.02497,-3.86123c0,-1.70411 3.74518,-2.87117 18.20669,-2.87117z" fill="none" stroke="#000000" stroke-width="2.3"/><path d="M173.28441,244.62864c0,-2.06895 5.33794,-3.28592 15.96748,-2.34938c15.81661,1.39357 22.94496,5.42339 22.94496,7.49234c0,2.06894 -12.03896,-1.7393 -22.11561,-1.7393c-10.07664,0 -16.79681,-1.33472 -16.79681,-3.40367z" fill="none" stroke="#000000" stroke-width="2.3"/></g></g></g><path d="M214.05301,242.54906l-1.87728,-1.39454c0,0 4.81567,-8.02388 7.22359,-9.85825c1.36402,-1.19714 6.24805,-4.73606 6.24805,-4.73606l2.51034,4.86578z" fill="#ab164a" stroke="none" stroke-width="0" stroke-linecap="butt"/></g><g data-paper-data="{&quot;index&quot;:null}" stroke-linecap="butt"><path d="M178.62263,213.15818c0,0 1.67021,-2.98515 2.79994,-4.44576c1.36139,-1.76016 4.80385,-5.38515 4.80385,-5.38515c0,0 -4.83541,-7.41642 -3.76856,-13.04124c0.72001,-3.79614 6.51705,-4.79125 8.79994,-4.79125c4.23101,0 6.412,-1.13942 9.3369,3.43233c3.50718,5.48188 7.51,15.51585 7.51,21.61032c0,11.17711 -6.4897,10.91975 -15.79398,10.91975c-9.30429,0 -13.6881,-8.29902 -13.6881,-8.29902z" fill="#fddfbd" stroke="#000000" stroke-width="2.5"/><path d="M185.7737,199.22121c-0.36651,0.61997 -2.45548,-5.44306 -2.12421,-6.77236c0.82655,-3.31667 6.37208,-6.51729 9.03727,-6.51729c1.80797,0 3.79561,0.33862 5.22064,1.71695c2.60188,2.51665 4.76502,7.95276 4.76502,7.95276c0,0 -3.52284,-2.82666 -9.08314,-1.95308c-3.48491,0.54752 -6.99584,4.18641 -7.81557,5.57302z" fill="#f89587" stroke="none" stroke-width="0"/></g><g data-paper-data="{&quot;index&quot;:null}" stroke="none" stroke-linecap="butt"><path d="M206.17084,190.18927c-0.00422,-0.01273 -5.2158,-2.60566 -7.60112,-2.60388c-2.72018,0.00202 -6.59158,-1.49519 -9.07367,-0.95246c-2.91766,0.63796 -4.42056,3.4104 -7.32415,4.65867c-0.99458,0.80743 -3.64618,4.10432 -5.13947,3.04822c-1.07962,-0.76353 0.41397,-4.16381 0.62535,-4.97774c0.8779,-3.38043 2.07203,-5.05289 4.21474,-7.90161c1.51146,-2.00947 2.53244,-5.63567 5.45092,-5.74846c7.31315,0 16.56074,5.89283 19.85039,12.90592c0.09024,0.07998 1.31236,1.72081 0.5846,1.95562c-0.72778,0.23482 -1.5876,-0.38427 -1.5876,-0.38427z" fill="#feebf7" stroke-width="0.5"/><path d="M184.27528,175.38679c0,0 1.80414,3.26275 1.32518,4.47682c-1.42706,3.61729 -6.83556,9.96174 -6.58259,11.62573c0.15946,1.04885 3.84907,-1.56805 4.79858,-2.34401c2.38031,-1.94524 4.30935,-3.8096 8.29696,-3.75034c14.4832,0.21524 16.06537,5.81122 16.06537,5.81122c0,0 -4.9624,-3.95893 -17.62188,-3.33607c-1.70768,0.08401 -11.41497,9.36415 -14.07347,8.68895c-0.90847,-0.23075 -1.49642,-0.74129 -1.47302,-1.45485c0.07851,-2.39517 1.21141,-6.83819 7.15893,-15.72393c2.08827,-3.1199 2.10595,-3.99353 2.10595,-3.99353z" fill="#000000" stroke-width="0"/></g><g data-paper-data="{&quot;index&quot;:null}" stroke="none" stroke-width="0" stroke-linecap="butt"><path d="M169.17229,223.16911c0,0 -0.37222,-5.98316 6.78656,-7.99912c2.03956,-0.57434 5.4483,0.49384 8.72113,0.49384c7.07857,0 9.74807,-6.21501 13.70035,-6.36791c4.28907,-0.16593 10.18108,5.42914 10.18108,5.42914c0,0 3.25773,3.50097 2.11457,4.38014c-1.28247,0.98632 -9.43963,1.25346 -9.43963,1.25346c0,0 -1.25152,7.75079 -4.51493,12.4968c-2.99095,4.34975 -7.23338,5.64357 -11.87647,5.64357c-14.76037,0 -15.67266,-15.32994 -15.67266,-15.32994z" fill="#0066cc"/><path d="M171.99767,219.22713c0,0 7.26667,12.25188 11.436,12.99452c4.38747,0.78149 17.11848,-8.86927 17.11848,-8.86927c0,0 0.42807,5.5663 -2.89785,9.75511c-2.2903,2.88453 -7.2961,4.8895 -11.66351,4.8895c-6.12788,0 -14.26988,-7.98024 -16.5898,-13.16119c-1.73459,-3.87373 2.59668,-5.60866 2.59668,-5.60866z" fill="#0f1b82"/><path d="M176.11674,215.77676c-2.91424,1.19465 -6.85505,7.08565 -6.75283,7.39741c0.64727,1.97381 10.36541,14.10499 16.39552,14.36553c3.25209,0.1405 8.32196,-1.18996 11.70527,-6.37857c2.11809,-3.24827 3.08415,-10.93955 4.04961,-11.65426c1.65261,-1.22337 -0.24621,9.76227 -2.1382,12.87374c-3.22281,5.30014 -11.19557,10.23965 -16.17379,10.23965c-8.24343,0 -17.84128,-18.42357 -17.84128,-18.42357c0,0 0.39046,-2.43157 2.01652,-4.81595c1.60136,-2.34816 3.88708,-6.46255 5.58349,-7.85628c0.35366,-0.29055 2.56068,-0.97973 4.34019,-0.31312c2.40456,0.90076 5.57219,3.21276 8.87704,2.20794c4.25597,-1.294 8.3447,-6.97135 12.68912,-6.72689c6.92467,0.38965 10.40782,8.64815 10.47308,8.6193c0.05602,-0.02476 -9.4682,-5.17362 -11.25956,-4.83405c-1.36151,0.25809 -10.7711,6.83089 -12.51633,7.41094c-2.34088,0.77803 -7.55052,-2.88957 -9.44784,-2.1118z" fill="#000000"/></g><g data-paper-data="{&quot;index&quot;:null}" stroke-linecap="butt"><g data-paper-data="{&quot;index&quot;:null}"><path d="M262.949,138.81865c2.10689,6.7365 -9.23057,15.06191 -35.97691,28.08729c-13.07066,6.36537 -32.42662,9.1196 -42.7386,8.52772c-6.76527,-0.38831 -14.22431,-34.80706 -10.54709,-40.49897c9.65773,-14.94906 35.28802,-33.74261 52.73568,-31.6714c10.69079,1.2691 17.78844,22.0381 17.78844,22.0381c0,0 -0.16061,5.8621 2.20746,13.54245c3.89068,-1.44003 14.91364,-5.19657 16.53103,-0.02522z" fill="#fddfbd" stroke="#000000" stroke-width="3"/><path d="M243.13259,134.2836c0,0 -24.56979,0.57118 -27.69361,2.60383c-0.00912,1.34789 5.22513,14.51443 4.68728,14.53343c-13.43581,0.47451 -18.02157,-0.35684 -18.02157,-0.35684l-1.72316,21.98824c0,0 -8.39178,-3.21567 -12.24259,-4.97095c-1.01305,-1.99152 0.75364,6.2164 0.75364,6.2164l-4.81118,-0.14177c0,0 -1.25761,-0.97664 -1.78516,-2.13436c-2.50135,-5.48923 -8.29874,-21.84836 -2.94956,-32.3843c6.23329,-12.27732 56.87368,-31.47388 56.87368,-31.47388c0,0 5.01306,12.27245 6.28506,17.07914c0.19609,3.60419 1.28362,9.16752 1.28362,9.16752z" fill="#f89587" stroke="none" stroke-width="0"/></g><g><g><path d="M157.42614,174.97286c0,0 -4.59709,7.53239 -9.78171,13.17129c-3.5936,3.90846 -7.74401,6.34346 -9.70734,7.05906c-4.79593,1.74803 -10.74889,-6.98502 -8.68639,-9.96091c1.21094,-1.74721 4.81877,-4.15625 8.02461,-6.05858c7.99602,-4.7448 18.34714,-8.70211 18.34714,-8.70211l1.80368,4.49123z" fill="#0066cc" stroke="#000000" stroke-width="3"/><path d="M132.7237,191.83219c0,0 2.31295,-1.01266 9.63057,-6.18192c6.21366,-4.38943 8.14512,-7.79305 9.51967,-9.78956c1.24202,-1.80403 1.58773,-2.64277 1.58773,-2.64277l1.87509,2.32226c0,0 -5.75266,9.62589 -11.23213,14.12694c-3.22111,2.64593 -7.0636,4.43217 -7.0636,4.43217c0,0 -1.86187,-0.30374 -2.47922,-0.68079c-0.6538,-0.39931 -1.83812,-1.58635 -1.83812,-1.58635z" fill="#0f1b82" stroke="none" stroke-width="0"/></g><g stroke="#000000"><path d="M241.12437,107.8489c0,0 -45.69214,33.15862 -52.60819,40.3757c-9.0241,9.41688 -17.73767,17.99679 -17.73767,17.99679c0,0 -12.96058,2.04702 -22.25663,-7.00836c-2.84592,-2.77223 -4.47334,-24.79984 -4.437,-27.4926c0.10996,-8.14938 -2.83031,-17.89187 5.00674,-27.13106c20.99287,-24.7487 59.41346,-36.16909 69.14101,-34.38585c8.5514,1.56763 12.37968,19.71057 12.37968,19.71057z" fill="#ff2d32" stroke-width="3"/><path d="M147.90272,156.99044c-4.02123,-6.53412 -3.08563,-47.07663 0.31471,-48.7698c11.53934,-5.74592 40.92466,39.09239 40.92466,39.09239l-20.72649,19.51223c0,0 -16.55586,-3.40502 -20.51288,-9.83482z" fill="#ab164a" stroke-width="1.5"/></g></g><g><path d="M148.60742,163.81454c0.11023,-1.06798 11.5721,0.30307 19.02282,3.81292c4.28147,2.01689 5.68519,6.80892 6.97981,9.56471c0.99199,2.11164 -1.18508,6.98111 -3.63732,8.80622c-3.93988,2.9323 -22.74262,-18.52821 -22.36532,-22.18385z" fill="#fddfbd" stroke="#000000" stroke-width="3"/><path d="M163.50227,180.54232c0,0 1.13041,-0.19942 2.46056,-1.70223c1.68239,-1.9008 4.51378,-7.47563 4.51378,-7.47563c0,0 3.03252,2.71248 3.52319,3.72003c0.66982,1.37543 -0.88588,5.77572 -2.63971,8.3642c-0.95581,1.41067 -2.11516,1.48165 -2.24916,1.60666c-0.36642,0.34184 -5.60867,-4.51305 -5.60867,-4.51305z" fill="#f89587" stroke="none" stroke-width="0"/><path d="M160.52952,170.76821c-0.25011,-0.53992 9.05305,-0.59558 9.26879,0.73532c0.27845,1.71774 1.73001,9.59037 -1.12525,8.76017c-1.16611,-0.33907 -6.95961,-6.93993 -8.14352,-9.49551z" fill="#f89587" stroke="#000000" stroke-width="1.5"/></g><g><g data-paper-data="{&quot;index&quot;:null}"><path d="M195.02262,162.7129c-0.50193,2.54661 -7.94099,-3.01982 -8.28155,-2.32279c-0.22383,0.45812 -2.94634,5.1774 -4.66465,9.88414c-1.74656,4.78413 -2.29843,10.11815 -2.57055,9.92632c-0.14805,-0.10438 -9.68313,-11.42563 -9.13663,-13.0378c3.01742,-8.90131 25.34794,-25.04751 25.34794,-25.04751c0,0 -0.04949,17.32477 -0.69457,20.59762z" fill="#50a5eb" stroke="#000000" stroke-width="3"/><path d="M189.652,152.80673l4.49819,-7.92225l-0.25163,17.51609z" fill="#66ffff" stroke="none" stroke-width="0"/></g><g data-paper-data="{&quot;index&quot;:null}"><path d="M272.31434,125.67063c0,0 -18.51668,0.3897 -26.98465,1.91962c-0.89328,0.16139 0.70344,-3.46569 -0.77018,-3.32145c-8.1365,0.79641 -24.82893,4.96275 -32.85275,6.91257c-0.6309,0.15331 -2.17019,0.54481 -2.30808,1.11948c-0.71953,2.99875 4.83272,9.6936 2.99845,10.61262c-1.9838,0.99394 -4.58586,0.76372 -7.40883,-0.18335c-4.41523,-1.48123 -8.44336,-3.40139 -8.44336,-3.40139c0,0 1.87774,-12.335 -7.23879,-47.77292c3.5537,0.09611 12.65955,3.42504 16.46448,7.43265c3.45649,3.64062 4.26639,7.65549 4.56799,6.76414c2.99526,-8.85222 11.76318,-19.27745 15.74105,-21.98291c6.91665,-4.70421 42.97451,18.06245 42.97451,18.06245c0,0 -13.6322,4.40471 -20.63871,9.32056c7.08388,0.51621 21.66705,11.18982 23.89886,14.51795z" fill="#66ffff" stroke="#000000" stroke-width="3"/><path d="M228.45823,111.8698c0,0 10.77948,3.25386 16.36437,5.21971c6.58399,2.31754 21.20373,7.15009 21.20373,7.15009l-19.56811,1.75372c0,0 1.25455,-2.45073 -1.72954,-3.11144c-1.96173,-0.43434 -5.24575,0.59312 -10.35313,1.65053c-3.87526,0.80232 -20.65436,4.75683 -25.40595,6.07981c-0.79192,0.22049 -0.85291,1.62115 -0.85291,1.62115c0,0 -0.1023,2.45151 0.34173,3.74567c0.64642,1.88409 2.85031,5.82733 2.85031,5.82733c0,0 -2.96726,0.49094 -4.71327,0.10756c-2.46691,-0.54167 -8.68796,-3.05014 -8.68796,-3.05014c0,0 -0.01398,-3.45234 -0.08204,-8.30648c-0.12596,-8.98384 -3.18403,-25.55489 -6.9883,-37.41353c1.38285,1.04097 18.80497,23.32109 18.80497,23.32109c0,0 6.24975,-7.36109 11.98669,-13.52229c3.73173,-4.00768 7.66447,-7.82582 8.08908,-7.6917c8.12996,-0.40634 26.54694,7.64549 26.54694,7.64549c0,0 -17.60558,5.23079 -22.45865,6.79692c-2.27862,0.73533 -5.34797,2.17652 -5.34797,2.17652z" fill="#50a5eb" stroke="none" stroke-width="0"/></g></g></g><g data-paper-data="{&quot;index&quot;:null}"><path d="M297.57998,203.82141c2.98401,-3.6112 6.61709,-7.53118 10.38033,-4.42153c2.50706,2.07165 4.92946,6.14766 5.05784,10.10155c0.06433,1.9811 -0.81421,4.37564 -1.81028,5.58105c-1.46404,1.77173 -3.72411,2.3685 -6.24217,2.02473c-2.6143,-0.35691 -5.49512,-1.71812 -7.41202,-3.3021c-3.76323,-3.10966 -2.95773,-6.37253 0.02629,-9.98373z" fill="#485e84" stroke="#000000" stroke-width="3" stroke-linecap="butt"/><path d="M258.41694,191.39662c2.35928,-5.78018 8.20925,-5.32187 14.78641,0.11298c6.57714,5.43487 9.99625,10.94782 6.25274,15.47814c-1.53803,1.86131 -6.39572,7.5547 -9.66728,5.17648c-5.53211,-4.02153 -1.6518,-8.40577 -2.79257,-9.31883c-3.23754,-2.5913 -10.68701,-6.28488 -8.57929,-11.44875z" fill="#f89587" stroke="#000000" stroke-width="3" stroke-linecap="butt"/><path d="M269.39317,178.10758c7.53013,-9.11278 19.65866,-20.97062 29.2474,-13.56474c3.76777,2.91007 0.44198,9.49976 1.84794,10.66153c3.59679,2.97212 7.1087,4.33843 7.73984,8.86537c0.30664,2.19932 -0.59683,3.40762 -0.07524,5.35169c1.05992,3.95056 4.27809,3.4517 4.45172,7.06655c-0.13969,1.13538 -3.38597,14.32556 -8.27616,17.7219c-5.88225,4.08536 -11.51876,3.16217 -14.59267,1.83669c-4.98388,-2.14908 -5.01792,-7.75038 -5.01792,-7.75038c0,0 -4.30426,-1.30974 -5.78128,-3.11615c-1.43711,-1.75759 -0.95538,-4.4998 -2.72056,-7.24753c-0.43723,-0.6806 -2.85486,1.71346 -6.13791,-1.52796c-7.17445,-7.0835 -3.98988,-14.29764 -0.68516,-18.29694z" fill="#fddfbd" stroke="#000000" stroke-width="3" stroke-linecap="butt"/><path d="M286.20699,193.01921c-0.51154,1.47325 -1.92378,3.92768 -1.15299,5.55685c0.38662,0.81714 3.42859,3.58752 4.88033,4.00885c1.12659,0.32695 2.21409,0.00054 2.49918,0.1823c1.41193,0.90014 6.58592,-4.32702 6.58592,-4.32702l3.02343,-0.73536c0,0 -3.03038,5.78088 -6.16719,9.89848c0.35196,3.43393 0.4693,5.77841 0.4693,5.77841l4.83264,1.33435c0,0 -2.09149,0.90243 -4.30646,1.10578c-0.96479,0.08858 -2.27625,-0.47286 -2.90792,-0.43408c-4.08824,0.25103 -7.44587,-2.21949 -7.9325,-6.28641c-0.05927,-0.49527 -0.03957,-2.08244 -1.16571,-2.30428c-3.95598,-0.77926 -4.26218,-1.88561 -5.12547,-3.47017c-1.09799,-2.01533 -2.24978,-4.88976 -2.24978,-4.88976c0,0 0.47847,-1.00809 -0.22286,-1.36854c-0.90294,-0.46405 -2.68423,0.0216 -4.17066,-0.34676c-0.61367,-0.15206 -1.16704,-1.08197 -1.60345,-1.28498c-0.96481,-0.44884 -2.21241,-1.94378 -2.77,-3.04489c-0.52578,-1.03832 -0.38717,-1.68446 -0.45566,-2.12521c-0.26588,-1.71111 1.42292,-6.62561 3.41721,-7.00332c2.42051,-0.45843 5.26406,3.82611 5.26406,3.82611c0,0 0.45882,5.56599 2.91016,7.31452c1.84333,1.31485 6.81452,-3.835 6.81452,-3.835c0,0 0.15586,0.65884 -0.4661,2.45013z" fill="#f89587" stroke="none" stroke-width="0" stroke-linecap="butt"/><path d="M289.63143,184.51528c1.59818,-0.97241 4.25501,-1.09182 4.95781,-0.43006c0.32275,0.3039 -0.4049,1.40814 -0.4049,1.40814c0,0 -1.7087,0.03781 -2.70943,0.72217c-1.10959,0.75878 -2.74021,2.35254 -3.74732,3.91618c-1.80224,2.79816 -3.3125,5.53993 -5.30822,6.99279c-1.7758,1.29276 -5.36188,2.58382 -5.36188,2.58382l-1.69438,-1.79503c0,0 3.83878,-2.21882 5.00105,-2.82629c1.61909,-0.84624 3.1167,-3.11052 4.09202,-4.6248c1.48939,-2.31244 3.36283,-4.84416 5.17525,-5.94692z" fill="#000000" stroke="none" stroke-width="0" stroke-linecap="butt"/><path d="M293.014,202.64501c1.75209,-2.12034 3.32698,-4.62333 5.25696,-5.5043c1.70188,-0.77683 4.36038,-0.84344 4.98009,-0.1033c0.2846,0.3399 -0.97037,1.73392 -0.97037,1.73392c0,0 -1.30539,-0.28592 -2.37995,0.27545c-1.19142,0.62241 -2.21654,2.16185 -3.40127,3.5956c-2.12011,2.5657 -4.726,4.96047 -6.87935,6.16745c-1.91609,1.07398 -3.51135,1.10151 -3.51135,1.10151l-1.93978,-2.68901c0,0 2.42505,-0.21256 3.65093,-0.6785c1.70772,-0.64907 4.04675,-2.51038 5.19409,-3.89886z" fill="#000000" stroke="none" stroke-width="0" stroke-linecap="butt"/><g stroke-linecap="butt"><path d="M264.9423,169.55665c5.40633,-6.54264 13.29109,-8.95265 17.61111,-5.38292c4.32001,3.56973 3.43937,11.76743 -1.96697,18.31006c-5.40634,6.54262 -13.29111,8.95264 -17.61113,5.38291c-4.32001,-3.56973 -3.43936,-11.76743 1.96698,-18.31006z" fill="#485e84" stroke="#000000" stroke-width="3"/><path d="M279.54158,171.79576l2.0221,-7.29526c0,0 1.88115,3.32494 2.08191,4.91328c0.37154,3.33566 -1.08598,6.26574 -1.08598,6.26574z" fill="#8fbbbe" stroke="none" stroke-width="0"/><path d="M276.45379,178.01959l1.51371,-2.75532c0,0 1.65279,1.08727 2.15734,1.56204c0.59077,0.55592 1.35999,1.87337 1.35999,1.87337l-2.28587,2.92373z" fill="#8fbbbe" stroke="none" stroke-width="0"/></g><g><path d="M274.38142,177.6329c-7.45816,9.0257 -16.90574,9.64001 -25.93144,2.18184c-9.02569,-7.45815 -9.91425,-21.2835 -2.45608,-30.3092c7.45816,-9.0257 19.13154,-10.1358 28.15724,-2.67763c9.0257,7.45816 7.68846,21.77929 0.23029,30.80499z" fill="#343545" stroke="#000000" stroke-width="3" stroke-linecap="butt"/><path d="M249.78354,147.48625c0,0 13.37524,-8.72005 21.27204,-2.19473c4.47803,3.70032 7.31786,9.71567 8.46719,15.24322c0.81884,3.9381 0.09349,8.32655 -2.5428,11.51691c-5.41884,6.55778 -10.2662,6.4768 -18.163,-0.04852c-3.94361,-3.25869 -6.87927,-9.56996 -7.79632,-15.05581c-0.91928,-5.49922 -1.23713,-9.46108 -1.23713,-9.46108z" fill="#485e84" stroke="none" stroke-width="0" stroke-linecap="butt"/><path d="M273.83407,147.41305c0,0 2.51107,9.57234 -5.74335,20.31947c-8.32207,10.8352 -17.78361,11.07303 -17.78361,11.07303" fill="none" stroke="#000000" stroke-width="1.6" stroke-linecap="round"/><path d="M279.44952,155.22087c0,0 -1.599,8.97702 -6.06668,16.41682c-6.43855,10.72175 -12.6345,11.87383 -12.6345,11.87383" fill="none" stroke="#000000" stroke-width="1.6" stroke-linecap="round"/><path d="M265.65735,143.06987c0,0 1.34878,9.09 -6.30776,20.31305c-7.36422,10.79456 -12.99023,11.25545 -12.99023,11.25545" fill="none" stroke="#000000" stroke-width="1.6" stroke-linecap="round"/><path d="M244.37179,172.84515c0,0 1.59711,-9.11991 4.4478,-15.28179c3.75477,-8.1161 9.52576,-14.95446 9.52576,-14.95446" fill="none" stroke="#000000" stroke-width="1.6" stroke-linecap="round"/><path d="M270.33712,180.12189c0,0 -8.02578,-0.49063 -17.85416,-7.96549c-9.17155,-6.97531 -9.4849,-14.62545 -9.4849,-14.62545" fill="none" stroke="#000000" stroke-width="1.6" stroke-linecap="round"/><path d="M245.29044,153.84409c0,0 4.26065,4.02378 9.53639,7.65033c4.63954,3.18922 10.17808,5.89194 12.71843,7.75992c3.01724,2.21865 7.58274,6.53013 7.58274,6.53013" fill="none" stroke="#000000" stroke-width="1.6" stroke-linecap="round"/><path d="M247.89087,149.05419c0,0 10.85809,1.10701 17.19727,6.0517c9.94958,7.76091 13.26774,16.40716 13.26774,16.40716" fill="none" stroke="#000000" stroke-width="1.6" stroke-linecap="round"/><path d="M252.90393,144.44785c0,0 7.95965,0.44451 14.93354,4.49631c10.0427,5.83477 12.90138,12.01821 12.90138,12.01821" fill="none" stroke="#000000" stroke-width="1.6" stroke-linecap="round"/><path d="M267.70291,148.07868c-0.74257,-0.61361 -0.91343,-1.63275 -0.38165,-2.27631c0.53179,-0.64357 1.56487,-0.66786 2.30744,-0.05424c0.74257,0.61361 0.91343,1.63275 0.38165,2.27631c-0.53179,0.64357 -1.56487,0.66786 -2.30744,0.05424z" fill="#8fbbbe" stroke="none" stroke-width="0" stroke-linecap="butt"/><path d="M262.68894,145.29306c-0.37127,-0.30681 -0.42355,-0.85651 -0.11675,-1.22779c0.3068,-0.37127 0.8565,-0.42355 1.22778,-0.11675c0.37128,0.3068 0.42356,0.8565 0.11676,1.22778c-0.30681,0.37128 -0.85651,0.42356 -1.22779,0.11676z" fill="#8fbbbe" stroke="none" stroke-width="0" stroke-linecap="butt"/></g></g><g data-paper-data="{&quot;index&quot;:null}"><g><path d="M200.32699,158.54907c0.09254,-0.4396 1.26307,-0.57721 4.72651,0.01468c2.01401,0.34418 6.66726,1.72441 15.5216,-0.4467c8.27387,-2.02879 15.83562,-8.99192 15.83562,-8.99192c0,0 -1.28723,5.97829 -14.52733,10.71374c-9.31699,3.33231 -22.13619,1.46461 -21.55641,-1.28981z" fill="#000000" stroke="none" stroke-width="0" stroke-linecap="butt"/><path d="M201.1804,159.89778c0,0 5.93423,1.08055 11.90528,0.88203c4.16805,-0.13858 9.08652,-1.63288 8.92059,-1.45655c-1.65021,1.75368 -5.71929,7.25073 -7.83543,10.72011c-0.82727,1.3563 -2.65086,6.62043 -5.64353,7.22106c-2.99267,0.60063 -4.22054,-1.17943 -5.75949,-4.93247c-1.91975,-4.6817 -1.40487,-12.07589 -1.59311,-12.13352" fill="#ff6666" stroke="#000000" stroke-width="2" stroke-linecap="round"/></g><g fill="#000000" stroke="none" stroke-width="0" stroke-linecap="butt"><path d="M205.11819,139.41198c2.75017,1.45845 5.3354,4.08948 5.3354,4.08948c0,0 1.37972,12.47891 -2.44029,12.71758c-6.39403,0.3995 -10.48319,-19.35433 -10.48319,-19.35433c0,0 4.61295,0.96953 7.58808,2.54727z"/><path d="M228.31989,125.00071c0,0 -0.19862,7.95695 -0.57464,16.84078c-0.37602,8.88383 -2.41995,10.95423 -3.82357,10.89482c-4.80058,-0.20319 -4.50442,-8.04444 -4.50442,-8.04444z"/><path d="M218.27106,148.12506c0,0 -14.31832,-8.5566 -23.05777,-12.45592c-11.18605,-4.99093 -30.50905,-7.28339 -30.50905,-7.28339c0,0 10.98471,-2.46661 21.90009,1.10792c6.3975,2.09503 12.31015,5.88613 15.76787,7.23249c7.06375,2.75047 15.06418,7.84444 15.06418,7.84444c0,0 5.61607,-13.85054 8.60683,-21.55076c3.67294,-9.45662 8.16411,-21.91316 8.16411,-21.91316c0,0 -1.84545,12.81155 -4.39932,20.26554c-3.00587,8.77323 -11.53694,26.75284 -11.53694,26.75284z"/></g></g><path d="M107.43869,310.75446v-258.66667h258.66667v258.66667z" data-paper-data="{&quot;index&quot;:null}" fill="none" stroke="none" stroke-width="0" stroke-linecap="butt"/></g></g></svg>