<svg version="1.1" xmlns="http://www.w3.org/2000/svg" xmlns:xlink="http://www.w3.org/1999/xlink" width="306.30631" height="274.77477" viewBox="0,0,306.30631,274.77477"><g transform="translate(-86.84685,-42.61262)"><g data-paper-data="{&quot;isPaintingLayer&quot;:true}" fill-rule="nonzero" stroke-linecap="butt" stroke-linejoin="miter" stroke-miterlimit="10" stroke-dasharray="" stroke-dashoffset="0" style="mix-blend-mode: normal"><path d="M86.84686,317.38739v-274.77477h306.30631v274.77477z" data-paper-data="{&quot;index&quot;:null}" fill="none" stroke="none" stroke-width="0"/><text transform="translate(271.55607,110.72267) rotate(-180) scale(0.1602,-0.1602)" font-size="40" xml:space="preserve" data-paper-data="{&quot;index&quot;:null}" fill="#000000" fill-rule="nonzero" stroke="none" stroke-width="1" stroke-linecap="butt" stroke-linejoin="miter" stroke-miterlimit="10" stroke-dasharray="" stroke-dashoffset="0" font-family="Sans Serif" font-weight="normal" text-anchor="start" style="mix-blend-mode: normal"><tspan x="0" dy="0">AwezomeXD</tspan><tspan x="0" dy="46.150000000000006px"> </tspan><tspan x="0" dy="46.150000000000006px">MeIzAwezomeDede</tspan></text><g data-paper-data="{&quot;index&quot;:null}"><g><g><g><path d="M199.30002,137.54325c0,0 -7.22484,-9.75867 -1.56923,-16.89047c4.0146,-5.06246 20.5546,-6.00199 30.46683,-10.90131c11.26791,-5.5694 32.10265,-16.96692 32.10265,-16.96692c0,0 6.02338,0.89787 7.82636,0.08545c2.25121,-1.01441 3.29268,-5.133 3.29268,-5.133c0,0 2.04503,3.62796 3.06596,6.82907c3.84545,12.05741 -5.42138,15.59857 -5.42138,15.59857c0,0 5.67357,3.96902 7.33788,7.93379c1.74947,4.16772 -0.81413,7.74613 -0.81413,7.74613c0,0 3.5609,2.40466 4.973,5.71168c0.93221,2.18318 1.84145,6.0069 2.37593,8.40315c0.91213,4.08918 9.27766,5.25232 9.27766,5.25232c0,0 -2.56788,4.46949 -4.98018,5.94501c-2.45534,1.50185 -9.43726,0.93552 -9.43726,0.93552c0,0 -2.08127,1.47996 -1.53806,4.29583c0.17123,0.88766 1.1459,2.70717 1.61156,3.53629c1.57068,2.79666 0.52258,5.59707 0.52258,5.59707c0,0 -2.64449,-2.69313 -3.69935,-3.21151c-0.7742,-0.38046 -1.40652,-0.34714 -1.40652,-0.34714c0,0 0.21709,4.55183 1.44678,6.74377c2.7351,4.87535 7.03332,10.57501 5.90732,11.15014c-2.03602,1.0399 -5.90335,-1.69204 -8.48126,-1.16131c-2.37272,0.4885 -6.89706,-4.63394 -6.89706,-4.63394c0,0 0.5481,7.06508 -1.8094,8.86447c-2.28772,1.74618 -1.99829,7.14494 -3.04538,7.67243c-3.81698,1.92286 -12.92618,-8.5052 -12.92618,-8.5052c0,0 -8.38626,12.2043 -11.90395,10.84024c-4.15173,-1.60994 -10.70206,-16.11885 -10.70206,-16.11885c0,0 -6.78742,-2.37092 -8.18551,-4.86675c-3.13985,-5.60518 -1.93759,-11.43511 -1.93759,-11.43511c0,0 -2.8892,1.44767 -3.96151,3.09415c-1.13977,1.75006 -2.6871,7.11442 -2.6871,7.11442c0,0 -3.13362,-4.80689 -3.65952,-7.48046c-0.55304,-2.81157 0.41865,-8.99583 0.41865,-8.99583c0,0 -5.67619,-1.69231 -9.27286,-5.91783c-1.92766,-2.26468 -3.21428,-8.2026 -3.21428,-8.2026c0,0 5.3437,2.1863 7.19567,2.09627c1.43661,-0.06984 0.41203,-2.90447 0.41203,-2.90447z" fill="#6d0f0a" stroke="#000000" stroke-width="2"/><path d="M196.4466,132.9604c0,0 -5.91425,-6.03603 -7.70652,-16.12691c-0.97029,-5.46301 0.84405,-13.48906 1.74541,-18.89713c1.2774,-7.66406 8.0636,-13.70093 14.53446,-16.89928c8.50639,-4.20446 18.13557,2.07678 18.13557,2.07678c0,0 7.49792,-7.51441 14.85955,-8.74024c7.11195,-1.18428 14.67941,4.29328 16.68868,5.5968c3.06103,1.98585 9.98667,14.11591 9.98667,14.11591c0,0 -16.8496,30.61195 -30.33186,37.27581c-14.40313,7.11902 -30.73438,-4.54877 -34.95518,0.28082c-1.48513,1.69935 -2.95677,1.31742 -2.95677,1.31742z" fill="#6d0f0a" stroke="#000000" stroke-width="2"/><path d="M190.28626,103.13894c0,0 0.79634,-3.70877 1.31682,-5.39537c0.49658,-1.60909 1.73768,-4.5027 1.73768,-4.5027c0,0 9.96244,2.56845 14.54915,2.22584c4.80647,-0.35902 11.158,-5.09699 11.158,-5.09699c0,0 0.90848,2.13526 1.49421,2.91657c0.61927,0.82605 1.70063,2.12342 1.70063,2.12342c0,0 0.44811,-2.17461 0.45907,-3.0271c0.01185,-0.92076 -0.10498,-2.80272 -0.10498,-2.80272c0,0 2.99688,2.84979 4.25275,3.8593c1.02844,0.8267 2.73742,1.75957 2.73742,1.75957c0,0 -0.85432,-1.95526 -1.37407,-2.93878c-0.5503,-1.04129 -1.84133,-3.14551 -1.84133,-3.14551c0,0 10.45791,0.47647 16.55075,-0.23844c0.12233,-0.01435 4.3586,-1.84262 4.69113,-1.93415c7.14973,-1.96811 1.3204,-9.66108 1.3204,-9.66108c0,0 3.91158,2.12527 6.09677,4.52391c2.2163,2.4328 7.109,9.97188 7.109,9.97188c0,0 -6.11512,-0.85905 -10.94844,0.61247c-0.85765,0.26112 -9.97519,3.59699 -9.97519,3.59699c0,0 -2.14781,-1.43613 -3.20623,-1.96899c-1.03718,-0.52216 -3.0818,-1.19672 -3.0818,-1.19672c0,0 -0.38501,2.18478 -0.4839,3.4753c-0.11885,1.55042 -0.1803,5.19137 -0.1803,5.19137c0,0 -1.54273,-1.38085 -2.53099,-2.05199c-1.09943,-0.74666 -3.76761,-2.22568 -3.76761,-2.22568c0,0 -1.03601,0.93507 -1.51295,1.66195c-0.6621,1.00907 -2.08975,3.82862 -2.08975,3.82862c0,0 -1.82679,-2.34808 -2.77166,-3.33643c-0.81749,-0.85511 -2.571,-2.25212 -2.571,-2.25212c0,0 -1.06673,1.68784 -1.56885,2.72168c-0.62659,1.29012 -1.9007,4.42177 -1.9007,4.42177c0,0 -9.75101,-4.51262 -14.09253,-4.70437c-4.0611,-0.17939 -11.17153,3.58855 -11.17153,3.58855z" fill="#c42d06" stroke="none" stroke-width="0"/></g><path d="M222.50582,139.6061c0,0 -19.3519,1.1444 -20.21016,-0.04144c-0.14888,-0.20571 -0.79141,-9.20034 -1.3303,-9.92878c-0.98434,-1.33056 -4.65673,1.3527 -4.65673,1.3527c0,0 56.17258,-31.79565 65.12771,-36.38732c2.28139,-1.16977 5.62491,0.11509 5.62491,0.11509l-3.75392,22.12006z" fill="#6d0f0a" stroke="none" stroke-width="NaN"/></g><path d="M224.77286,83.8444c0,0 -4.60899,-0.04915 -5.08765,-5.85152c-0.02523,-0.30573 0.16093,-1.64589 0.27564,-1.9702c0.87902,-2.48512 5.40159,-4.54231 5.40159,-4.54231c0,0 -1.21375,5.34762 -1.58657,7.15746c-0.3323,1.61316 0.99698,5.20657 0.99698,5.20657z" fill="#6d0f0a" stroke="#000000" stroke-width="1.5"/><path d="M215.83858,75.6066c0,0 1.63698,0.48201 2.66887,1.94568c0.68564,0.66053 1.95875,3.24969 1.95875,3.24969l-2.14755,-0.34797z" fill="#000000" stroke="none" stroke-width="0"/></g><path d="M223.45058,82.77079l3.5219,-1.35985c0,0 -1.12522,5.10751 -1.54996,5.44706c-0.59461,0.47537 -4.90012,-3.58653 -4.90012,-3.58653z" fill="#6d0f0a" stroke="none" stroke-width="0"/></g><g data-paper-data="{&quot;index&quot;:null}"><g><path d="M304.61432,280.7271c-0.97394,-0.3343 -2.81981,-1.05375 -2.81981,-1.05375l2.00112,-62.99775c0,0 3.12264,-3.42551 4.77674,-5.10754c1.78782,-1.81801 6.83093,-5.9246 6.83093,-5.9246c0,0 5.94054,0.17965 11.08569,1.75457c7.39586,2.26385 29.04162,10.52827 29.04162,10.52827c0,0 -0.29139,23.00613 -1.11993,33.98866c-0.74728,9.90532 -3.63272,29.00908 -3.63272,29.00908c0,0 -14.3168,1.48011 -21.61682,1.59314c-7.15813,0.11083 -21.76596,-0.92143 -21.76596,-0.92143c0,0 -1.89659,-0.56514 -2.78087,-0.86866z" fill="#434253" stroke="#000000" stroke-width="2.5"/><path d="M306.04173,281.58894c0,0 3.19421,-16.34268 5.26935,-30.13714c1.48339,-9.86081 2.04443,-18.33187 2.06476,-19.00203c0.15509,-5.11269 -0.3723,-9.50368 -0.00091,-14.70459c0.49814,-6.97594 1.18056,-11.43244 1.18056,-11.43244l2.10035,-1.22928c0,0 -1.17975,18.14658 -2.93073,35.27697c-0.73182,7.15966 -2.77258,22.22022 -3.75528,31.64788c-0.10799,1.03599 0.50491,2.39047 0.4064,3.33489c-0.55015,5.27458 -0.93311,6.24975 -0.93311,6.24975l-3.40139,-0.00403z" fill="#000000" stroke="none" stroke-width="0"/></g><g stroke="#000000" stroke-width="1.5"><path d="M345.29833,263.35312c0.94113,9.66742 -4.93088,16.17699 -12.88074,16.95092c-7.94986,0.77393 -14.77082,-5.25083 -14.91119,-14.96294c-0.15638,-10.82018 5.8426,-16.14324 12.54261,-16.73861c6.71115,-0.59636 14.44659,6.50489 15.24932,14.75063z" fill="#2c262f"/><path d="M323.67438,268.45714c-0.26544,-2.72671 1.31874,-5.06632 3.56101,-5.2846c2.24227,-0.21828 3.76096,1.25807 4.0264,3.98478c0.26545,2.72671 -1.3891,5.14677 -3.63137,5.36505c-2.24227,0.21828 -3.69059,-1.33852 -3.95603,-4.06523z" data-paper-data="{&quot;index&quot;:null}" fill="#1b171c"/></g><g stroke="#000000" stroke-width="1.5"><path d="M334.90074,214.22597c6.72176,-0.46163 14.18059,7.06601 14.65957,15.33688c0.56156,9.69688 -5.56103,15.97134 -13.53511,16.43313c-7.97408,0.46179 -14.55372,-5.82563 -14.31338,-15.53578c0.26776,-10.81801 6.4647,-15.77245 13.18893,-16.23424z" fill="#2c262f"/><path d="M327.75296,233.81557c-0.15839,-2.73501 1.51626,-5.01074 3.76536,-5.14099c2.2491,-0.13025 3.70876,1.40448 3.86715,4.1395c0.15839,2.73502 -1.58973,5.08838 -3.83883,5.21863c-2.2491,0.13025 -3.6353,-1.48212 -3.79369,-4.21714z" data-paper-data="{&quot;index&quot;:null}" fill="#1b171c"/></g></g><g data-paper-data="{&quot;index&quot;:null}"><g><path d="M178.20551,279.8001c0,0 -1.84588,0.71945 -2.81982,1.05375c-0.88428,0.30352 -2.78086,0.86866 -2.78086,0.86866c0,0 -14.60784,1.03226 -21.76596,0.92143c-7.30001,-0.11302 -21.61681,-1.59314 -21.61681,-1.59314c0,0 -2.88544,-19.10377 -3.63272,-29.00909c-0.82854,-10.98252 -1.11993,-33.98866 -1.11993,-33.98866c0,0 21.64575,-8.26442 29.04162,-10.52827c5.14515,-1.57491 11.08569,-1.75457 11.08569,-1.75457c0,0 5.04312,4.1066 6.83094,5.9246c1.6541,1.68203 4.77674,5.10754 4.77674,5.10754l2.00112,62.99775z" fill="#434253" stroke="#000000" stroke-width="2.5"/><path d="M173.95828,281.71567l-3.40139,0.00403c0,0 -0.38295,-0.97517 -0.93311,-6.24976c-0.0985,-0.94441 0.51439,-2.2989 0.40641,-3.33488c-0.98271,-9.42766 -3.02346,-24.48823 -3.75529,-31.64789c-1.75097,-17.13039 -2.93073,-35.27697 -2.93073,-35.27697l2.10035,1.22928c0,0 0.68243,4.4565 1.18057,11.43244c0.37139,5.20091 -0.156,9.59191 -0.00092,14.70459c0.02033,0.67016 0.58138,9.14123 2.06477,19.00203c2.07514,13.79446 5.26935,30.13713 5.26935,30.13713z" fill="#000000" stroke="none" stroke-width="0"/></g><g stroke="#000000" stroke-width="1.5"><path d="M134.70169,263.47986c0.80273,-8.24574 8.53818,-15.34698 15.24933,-14.75062c6.70001,0.59537 12.69899,5.91843 12.54261,16.73861c-0.14037,9.71211 -6.96134,15.73687 -14.9112,14.96294c-7.94986,-0.77392 -13.82187,-7.2835 -12.88074,-16.95092z" fill="#2c262f"/><path d="M152.76464,263.29932c2.24227,0.21828 3.82645,2.55788 3.56101,5.28459c-0.26545,2.72671 -1.71376,4.28351 -3.95603,4.06523c-2.24227,-0.21829 -3.89681,-2.63834 -3.63137,-5.36505c0.26544,-2.72671 1.78413,-4.20306 4.0264,-3.98478z" data-paper-data="{&quot;index&quot;:null}" fill="#1b171c"/></g><g stroke="#000000" stroke-width="1.5"><path d="M130.43973,229.6896c0.47898,-8.27087 7.9378,-15.79851 14.65956,-15.33689c6.72423,0.46179 12.92117,5.41624 13.18893,16.23424c0.24034,9.71016 -6.33929,15.99758 -14.31338,15.53579c-7.97409,-0.46179 -14.09668,-6.73625 -13.53512,-16.43313z" fill="#2c262f"/><path d="M152.24709,233.94232c-0.15839,2.73501 -1.54458,4.34738 -3.79368,4.21713c-2.2491,-0.13025 -3.99721,-2.48361 -3.83882,-5.21863c0.15839,-2.73501 1.61804,-4.26975 3.86714,-4.1395c2.2491,0.13025 3.92375,2.40598 3.76536,5.141z" data-paper-data="{&quot;index&quot;:null}" fill="#1b171c"/></g></g><g data-paper-data="{&quot;index&quot;:null}" fill="#434253" stroke="#000000"><path d="M302.93638,282.15581c0,0 -39.39406,0.31655 -59.64769,0.31655c-21.72904,0 -66.6118,-0.31655 -66.6118,-0.31655c0,0 -2.38216,-40.33861 -2.16309,-60.75635c0.20152,-18.78125 2.16309,-54.08575 2.16309,-54.08575c0,0 42.82931,-1.2662 64.39595,-1.2662c21.14461,0 59.33114,1.58275 59.33114,1.58275c0,0 4.66352,44.84767 4.63123,67.07726c-0.03994,25.54257 -2.09882,47.44828 -2.09882,47.44828z" stroke-width="2.5"/><path d="M182.62638,273.74782c1.29409,0 2.34316,0.94416 2.34316,2.10884c0,1.16468 -1.04906,2.10884 -2.34316,2.10884c-1.29409,0 -2.34316,-0.94416 -2.34316,-2.10884c0,-1.16468 1.04906,-2.10884 2.34316,-2.10884z" stroke-width="2"/><path d="M296.08664,273.11069c1.29409,0 2.34316,0.94416 2.34316,2.10884c0,1.16468 -1.04907,2.10884 -2.34316,2.10884c-1.29409,0 -2.34316,-0.94416 -2.34316,-2.10884c0,-1.16468 1.04907,-2.10884 2.34316,-2.10884z" stroke-width="2"/><path d="M291.83152,175.44761c-0.48529,-1.12251 0.08425,-2.44878 1.27209,-2.9623c1.18785,-0.51352 2.54417,-0.01985 3.02946,1.10266c0.48528,1.12251 -0.08426,2.44879 -1.2721,2.96231c-1.18785,0.51352 -2.54417,0.01984 -3.02946,-1.10267z" stroke-width="2"/><path d="M180.91757,172.05907c1.18784,-0.51352 2.54418,-0.01985 3.02946,1.10266c0.48528,1.12251 -0.08426,2.44879 -1.2721,2.96231c-1.18784,0.51352 -2.54417,0.01984 -3.02945,-1.10267c-0.48528,-1.12251 0.08425,-2.44878 1.27209,-2.9623z" stroke-width="2"/></g><g data-paper-data="{&quot;index&quot;:null}" stroke="#000000"><path d="M186.71134,208.5751c-2.38275,-6.46282 -2.16877,-24.44922 1.1889,-27.96294c8.89121,-9.30442 26.25684,-9.576 48.61061,-9.576c20.92711,0 41.19208,1.22699 50.66654,9.2042c4.46775,3.7617 4.13041,24.95797 0.62311,30.67638c-5.26643,8.58654 -20.70709,11.7808 -51.50253,11.7808c-30.79544,0 -46.16007,-4.49195 -49.58663,-13.78597z" fill="#434253" stroke-width="2"/><path d="M190.8513,206.9798c-2.19979,-5.72952 -2.00226,-21.67508 1.09762,-24.79011c8.20856,-8.24868 24.24089,-7.85082 44.87837,-7.85082c19.32036,0 38.02944,0.44915 46.77646,7.52122c4.12474,3.33489 3.81329,22.1261 0.57527,27.19567c-4.86209,7.61227 -19.11725,9.59258 -47.54826,9.59258c-28.43103,0 -42.61599,-3.42905 -45.77946,-11.66852z" fill="#2c262f" stroke-width="1.5"/><path d="M216.35599,203.94311c-0.85661,-2.44105 -0.77968,-9.23462 0.42743,-10.56177c3.19647,-3.51434 9.43954,-4.25555 17.47589,-4.25555c7.52346,0 14.80886,1.10206 18.21501,4.11511c1.6062,1.42082 1.48492,9.42678 0.22402,11.58666c-1.89332,3.24319 -7.44436,4.66256 -18.51556,4.66256c-11.07119,0 -16.59491,-1.86836 -17.82677,-5.37876z" fill="#1b171c" stroke-width="1.5"/></g><g data-paper-data="{&quot;index&quot;:null}" stroke="#000000"><path d="M186.71134,264.14932c-2.38275,-6.46282 -2.16877,-24.44922 1.1889,-27.96293c8.89121,-9.30442 26.25684,-9.57601 48.61061,-9.57601c20.92711,0 41.19208,1.22699 50.66654,9.2042c4.46775,3.76171 4.13041,24.95797 0.62311,30.67638c-5.26643,8.58654 -20.70709,11.7808 -51.50253,11.7808c-30.79544,0 -46.16007,-4.49196 -49.58663,-13.78598z" fill="#434253" stroke-width="2"/><path d="M190.8513,262.554c-2.19979,-5.72952 -2.00226,-21.67508 1.09762,-24.79011c8.20856,-8.24868 24.24089,-7.85083 44.87837,-7.85083c19.32036,0 38.02944,0.44915 46.77646,7.52122c4.12474,3.33489 3.81329,22.12611 0.57527,27.19568c-4.86209,7.61227 -19.11725,9.59258 -47.54826,9.59258c-28.43103,0 -42.61599,-3.42905 -45.77946,-11.66852z" fill="#2c262f" stroke-width="1.5"/><path d="M216.35599,259.51733c-0.85661,-2.44104 -0.77968,-9.23461 0.42743,-10.56176c3.19647,-3.51434 9.43954,-4.25555 17.47589,-4.25555c7.52346,0 14.80886,1.10206 18.21501,4.11511c1.6062,1.42082 1.48492,9.42677 0.22402,11.58665c-1.89332,3.24319 -7.44436,4.66256 -18.51556,4.66256c-11.07119,0 -16.59491,-1.86836 -17.82677,-5.37877z" fill="#1b171c" stroke-width="1.5"/></g><g data-paper-data="{&quot;index&quot;:null}"><g><path d="M252.16764,159.43963c0,-4.62307 -8.49349,-15.53073 -3.81415,-15.53073c1.22311,0 4.42917,2.33459 7.50057,4.85516c1.45091,1.19071 3.6139,2.34172 4.58125,3.77227c0.88905,1.31474 0.7777,2.94412 0.88451,3.34049c0.14147,0.52495 1.05985,2.14097 1.05985,2.14097c0,0 1.84337,1.97795 5.26166,3.90074c2.29844,1.29287 4.24006,0.66077 6.60772,2.01002c1.51083,0.86098 5.14264,2.7213 3.87369,4.97488c-0.18155,0.32243 -5.12328,0.24975 -5.12328,0.24975c0,0 -1.38722,1.6276 -2.62457,2.04842c-3.22468,1.09671 -5.31061,-1.08587 -6.12042,-1.03821c-2.60434,0.15328 -6.72809,-0.10553 -6.72809,-0.10553c0,0 -0.42924,-0.10557 -1.69069,-0.80571c-5.24365,-2.91039 -3.66807,-7.69547 -3.66807,-9.81253z" fill="#ffd5d5" stroke="#000000" stroke-width="1.5"/><path d="M253.53372,166.12694c0,0 7.29249,1.48578 9.95463,0.65935c0.10511,-0.03263 1.09316,-0.82199 2.45582,-1.24686c1.14308,-0.35642 2.65331,-0.36275 3.11935,-0.36185c1.17977,0.00229 1.61032,1.90079 2.6201,1.90079c4.07091,0 5.01291,-0.51035 5.01291,-0.51035c0,0 0.55455,0.54917 0.7437,1.15381c0.13495,0.43135 0.02675,0.94264 -0.34109,1.06756c-1.40247,0.47629 -4.79414,0.20759 -4.79414,0.20759c0,0 -1.74358,1.7083 -2.55079,1.73805c-5.38363,0.19843 -4.37217,-1.18226 -5.3204,-1.18226c-3.65815,0 -5.80336,-0.08543 -7.05371,-0.35945c-0.17574,-0.03852 -1.31715,-0.5453 -2.08868,-1.13084c-1.11479,-0.84606 -1.75769,-1.93553 -1.75769,-1.93553z" fill="#fb95a9" stroke="none" stroke-width="0"/><path d="M268.15105,164.66677c0.72444,-0.08172 2.87061,-0.06303 3.75169,0.94108c1.15746,1.3191 0.97693,3.72747 0.97693,3.72747l-2.0916,1.52047c0,0 0.81471,-4.96196 -1.7831,-4.96196c-2.09043,0 -4.71675,0.21059 -4.71675,0.21059c0,0 1.56303,-1.17823 3.86283,-1.43765z" fill="#000000" stroke="none" stroke-width="0"/><path d="M263.39457,158.87903l-0.13974,3.79055l-2.58548,-6.19124z" fill="#000000" stroke="none" stroke-width="0"/></g><path d="M245.01514,140.84214c0,-3.1402 -3.20727,-10.10814 -0.69876,-10.10814c2.50852,0 8.05046,-0.70437 8.05046,2.43583c0,1.6451 3.015,8.01008 2.76204,11.02958c-0.2299,2.74415 0.86347,4.53972 -0.33085,4.53972c-2.50851,0 -9.78288,-4.75679 -9.78288,-7.89699z" fill="#fb95a9" stroke="#000000" stroke-width="2"/></g><g data-paper-data="{&quot;index&quot;:null}"><path d="M228.18005,131.62588c2.41131,-2.95149 10.53162,-0.25987 12.59919,3.86227c0.26008,0.51854 1.70637,-0.66733 5.40284,0.98163c0.86997,0.38809 5.3323,2.85511 7.98427,6.04894c1.26983,1.52929 2.1246,3.99593 1.97118,5.03194c-0.22905,2.80784 -2.67033,5.18657 -4.85989,7.14774c-2.87249,2.57284 1.75248,7.33006 -2.40533,7.33006c-3.03121,0 -16.54137,0.60747 -18.69314,-0.7284c-1.28409,-0.79719 -0.53199,-7.61244 -0.88049,-9.01861c-0.48674,-1.96396 -4.99822,-4.40189 -4.99822,-6.61256c0,-2.58633 2.29137,-12.099 3.87959,-14.04301z" fill="#ee1536" stroke="#000000" stroke-width="2"/><path d="M244.29204,151.81498c0,-3.14019 3.56399,-6.94934 7.26523,-7.10728c3.22449,-0.13759 3.97211,2.15654 3.0535,5.15937c-1.10558,3.61402 -4.40634,5.42259 -7.63376,5.42259c-0.06272,0 2.08362,-1.58996 2.84464,-0.28992c1.01358,1.73146 0.66979,6.51156 0.03616,6.86773c-2.98614,1.67855 -13.402,-0.74155 -16.31172,-0.67209c-0.60085,0.01435 -2.90823,0.59035 -3.45604,-1.26733c-0.44915,-1.5231 0.38106,-5.65028 0.34354,-5.65555c-0.60286,-0.08461 -1.36799,-4.06688 -1.36799,-4.06688c0,0 -2.86476,-2.27685 -2.9505,-2.85725c-0.15338,-1.03828 2.10836,-2.8435 2.10836,-2.8435c0,0 1.25189,1.00644 1.97555,1.57762c0.66583,0.52553 1.57561,2.98741 1.57561,2.98741c0,0 4.12841,-5.5717 8.29185,-4.21031c5.58397,1.82588 4.22558,7.21129 4.22558,6.95539z" fill="#9a1652" stroke="none" stroke-width="0"/><path d="M230.80238,160.80496c0.86132,-1.55025 8.52088,-5.58592 9.70316,-7.17085c2.60911,-3.4977 4.57621,-6.08348 4.57621,-6.08348c0,0 0.91108,5.32297 -0.66029,9.58239c-1.16307,3.15265 6.61433,5.47453 5.8723,5.47453c-1.74455,0 -20.27813,-0.38656 -19.49138,-1.80259z" fill="#000000" stroke="none" stroke-width="0"/></g><g data-paper-data="{&quot;index&quot;:null}"><path d="M219.65374,138.5779c0.8478,-4.00178 1.05969,-6.20696 6.00865,-5.89108c3.43927,0.21953 5.83687,5.53997 5.6375,9.63432c-0.21476,4.36977 -3.06549,5.46494 -5.22987,10.17868c-0.32418,0.44398 -0.41178,3.26813 -0.38937,5.30495c0.00209,0.18978 -0.33717,0.62001 -0.76323,1.1586c-0.26544,0.33555 -0.56457,0.71315 -0.83585,1.10087c-0.58792,0.84029 -1.00834,1.7666 -1.00967,2.05978c-0.00063,0.13988 0.8938,0.58214 1.37429,-0.0945c0.59429,-0.8369 0.82022,-2.85569 1.09309,-2.96133c0.60322,-0.23354 -0.26637,2.51293 -0.44615,3.11094c-0.2653,0.88248 -0.4921,0.63998 -0.44475,1.76587c0.09045,2.15137 1.56896,3.36172 2.62602,4.56955c0.70741,0.80829 0.22384,1.75371 0.01145,1.89649c-0.37801,0.2541 -3.54371,-0.53117 -4.05789,-0.42698c-0.39765,0.08057 -1.34654,-0.40466 -3.49097,-0.27099c-0.82355,0.05133 -1.65645,0.76311 -2.63719,0.82042c-0.71638,0.04187 -1.3057,-0.15857 -1.95166,-0.31313c-0.22206,-0.05314 -1.02829,-0.5319 -1.25815,-0.52625c-0.34771,0.00856 -0.82528,0.48594 -1.23178,0.63526c-0.77623,0.28513 -1.60661,0.69038 -2.28854,0.69435c-3.18977,0.0186 -3.26689,-1.88761 -3.26689,-1.88761c0,0 -3.04432,0.06304 -4.03211,-0.42236c-0.75092,-0.36901 -1.55925,-1.00352 -1.38133,-2.2378c0.24894,-1.72688 1.10352,-2.33605 3.08465,-3.20355c2.98491,-1.30704 6.06524,-0.58009 9.46825,-3.92267c3.20388,-3.14698 4.43719,-15.37296 4.7865,-17.02182z" fill="#ffd5d5" stroke="#000000" stroke-width="1.5"/><path d="M206.90047,168.30773c0,0 -3.07229,0.00278 -3.71369,-0.28946c-0.71612,-0.32628 -0.72723,-1.57737 -0.72723,-1.57737c0,0 2.41577,-0.11037 3.38045,-0.23542c0.79242,-0.10272 2.33677,-0.55138 2.33677,-0.55138l-0.52435,2.84128c0,0 1.64547,0.70646 3.17917,0.82889c0.82685,0.066 0.81717,-1.87392 3.46531,-1.87392c0.98114,0 3.17859,1.26431 4.02568,0.77044c2.1093,-1.22976 5.04158,-5.18813 5.04158,-5.18813c0,0 0.81464,0.24075 0.81464,0.62352c0,0.48247 3.67599,6.1885 3.15662,6.13879c-0.73361,-0.07022 -6.5234,-0.94261 -7.38145,-0.9628c-0.84998,-0.02 -2.23775,0.94386 -3.09742,0.91287c-0.46569,-0.01678 -0.92766,-0.12523 -1.38038,-0.228c-0.43517,-0.09879 -0.94769,-0.55333 -1.3608,-0.55513c-0.55722,-0.00243 -0.93268,0.42362 -1.3338,0.52162c-1.2246,0.29919 -1.88782,0.90551 -3.00328,0.83681c-1.46527,-0.09024 -2.87782,-2.0126 -2.87782,-2.0126z" fill="#fb95a9" stroke="none" stroke-width="0"/><path d="M206.64521,168.40278c0,0 1.25348,-3.1369 2.41663,-3.45707c0.61518,-0.16933 1.83386,-0.25208 2.78582,0.09011c0.96988,0.34863 1.90801,1.37664 1.90801,1.37664c0,0 -2.47695,-0.57435 -3.78841,-0.18953c-1.72244,0.5054 -1.74386,3.47467 -1.74386,3.47467z" fill="#000000" stroke="none" stroke-width="0"/><path d="M220.51528,167.97303l-0.94496,1.89527l-1.41743,-0.1805z" fill="#000000" stroke="none" stroke-width="0"/></g><g data-paper-data="{&quot;index&quot;:null}"><g><path d="M253.08345,117.70485c-1.01269,-3.52082 0.47689,-7.03958 3.32708,-7.85937c2.85018,-0.81979 5.98166,1.36983 6.99434,4.89064c1.01268,3.52082 -0.47691,7.03959 -3.3271,7.85938c-2.85018,0.8198 -5.98165,-1.36982 -6.99433,-4.89063z" fill="#fb95a9" stroke="#000000" stroke-width="2"/><path d="M244.08507,136.88422c-25.0446,3.35781 -28.4129,1.36066 -32.8298,-7.87191c-4.41692,-9.23258 9.40907,-14.24064 22.47104,-20.48956c13.06196,-6.24893 19.63737,-10.06725 24.05428,-0.83467c0.72052,1.5061 2.02161,11.65357 2.02161,11.65357c0,0 8.69204,1.72537 9.02051,5.78312c0.3404,4.38374 -15.26396,10.48927 -24.73766,11.75945z" fill="#ffd5d5" stroke="#000000" stroke-width="2"/><path d="M211.19657,121.57025c0,0 23.10924,-15.45257 28.70184,-18.1281c10.59645,-5.0694 14.97357,0.11802 17.03144,4.41957c0.89882,1.87881 1.70832,10.39847 1.70832,10.39847c0,0 -5.25496,-3.99231 -7.65596,-4.62581c-2.73474,-0.72155 -7.69196,0.43537 -7.69196,0.43537l-3.47316,8.2818l-8.5138,-5.12143c0,0 -1.20314,6.13144 -2.76549,8.93559c-1.66584,2.98989 -6.93903,8.48228 -6.93903,8.48228l-3.93716,0.86471c0,0 -4.35393,-3.88346 -5.45223,-6.25206c-1.05498,-2.27513 -1.01282,-7.69044 -1.01282,-7.69044z" fill="#fb95a9" stroke="none" stroke-width="0"/><path d="M206.22147,134.10515c-1.38029,-2.88516 -1.75515,-3.479 -0.60776,-5.66205c0.91987,-1.75014 8.41212,0.017 9.79241,2.90217c1.3803,2.88517 1.80505,6.02306 0.02147,6.87633c-1.78357,0.85326 -7.55318,-0.66138 -9.20612,-4.11647z" fill="#ffd5d5" stroke="#000000" stroke-width="2.5"/><path d="M215.15904,137.4163c-0.63655,0.30451 -3.57138,0.0737 -5.223,-1.03776c-1.03111,-0.69388 -1.88543,-1.76468 -2.51375,-2.73382c-0.77052,-1.18849 -0.09314,-2.19661 1.34108,-2.06331c2.39879,0.22296 5.71,0.742 6.27542,1.92384c0.90346,1.88848 1.64151,3.18325 0.12024,3.91104z" fill="#fb95a9" stroke="none" stroke-width="0"/><path d="M208.25304,131.03227c-0.27607,-0.57704 7.66555,3.33608 7.66555,3.33608l0.18618,2.82897c0,0 -7.57568,-5.58803 -7.85174,-6.16508z" fill="#000000" stroke="none" stroke-width="0"/><path d="M214.59244,138.63709c-1.00762,-1.57393 -0.06915,-3.62268 1.75741,-4.71995c1.82653,-1.09725 3.77422,-2.47362 5.69006,0.10507c0.33724,0.45392 2.4599,3.46556 1.61927,5.64372c-0.13103,0.33952 -1.0572,1.78819 -2.31564,2.44061c-1.73792,0.901 -3.0138,0.88796 -3.0138,0.88796c0,0 1.47393,-2.4045 1.2179,-2.46755c-0.81657,-0.20107 -4.10861,-0.56745 -4.95521,-1.88985z" fill="#6d0f0a" stroke="#000000" stroke-width="2"/><path d="M202.01581,141.72379c-8.12933,-1.21427 -11.86768,-4.13107 -11.86768,-4.13107c0,0 6.10784,-2.74663 7.45153,-5.53224c1.35441,-2.80787 0.09777,-12.38845 0.09777,-12.38845c0,0 21.75408,-7.88719 30.60364,-12.12087c8.19459,-3.92032 15.39441,-7.33795 20.67121,-9.8345c5.73535,-2.71349 11.89855,-2.16541 14.53025,2.05851c0.65128,1.04529 1.52753,2.45344 2.09125,3.70942c2.57663,5.74075 2.52502,11.86683 2.52502,11.86683c0,0 -7.6382,-5.12984 -11.21409,-7.26058c-4.42258,-2.63521 -10.63735,-4.10995 -10.63735,-4.10995c0,0 0.63448,3.95602 0.07533,6.89372c-0.57883,3.041 -3.56146,4.11343 -3.56146,4.11343c0,0 -1.41302,-2.85665 -2.52262,-3.98472c-1.02141,-1.03843 -2.9257,-3.00288 -2.54518,-1.89358c0.38276,1.1159 0.93204,3.91821 1.24072,5.28105c0.7989,3.52731 0.45778,4.18598 0.45778,4.18598c0,0 -2.91773,-2.28096 -5.77152,-4.36338c-2.42647,-1.77061 -5.36201,-2.12915 -5.36201,-2.12915c0,0 -2.62797,5.97277 -4.41015,8.68388c-1.60993,2.44907 -5.47448,6.71184 -5.47448,6.71184c0,0 5.13367,6.65145 1.27959,7.83112c-2.72393,0.83376 -4.05396,0.82478 -5.89765,0.27504c-1.1053,-0.32957 -2.48766,-2.99262 -2.48766,-2.99262l2.13665,-0.29701c0,0 -3.50527,-5.28938 -4.87901,-5.11205c-2.4188,0.31223 -0.89121,-0.65354 -4.01509,0.93749c-0.4547,0.23159 -0.57239,3.56498 0.71047,6.09912c1.37728,2.72065 4.17979,4.6462 4.17979,4.6462c0,0 -3.43515,3.44951 -7.40504,2.85653z" fill="#6d0f0a" stroke="#000000" stroke-width="1.5"/><path d="M239.59423,105.48415c-0.88462,0.42321 -2.51177,-0.06643 -4.35496,0.65855c-1.99692,0.78543 -4.2179,2.78982 -5.22192,3.3129c-14.50056,7.5549 -30.45637,16.33887 -30.45637,16.33887c0,0 -0.3904,-2.66894 -0.85897,-3.85267c-0.5006,-1.26467 -1.76994,-3.64497 -1.76994,-3.64497c0,0 21.03674,-6.96982 32.90927,-12.6497c7.61822,-3.64461 15.498,-7.7958 20.84413,-9.47883c5.66081,-1.78212 8.96947,-1.17997 8.96947,-1.17997l3.74171,5.86156l-2.5803,0.46577l-8.24174,-3.25927c0,0 -8.92256,5.48643 -12.98039,7.42774z" fill="#6d0f0a" stroke="none" stroke-width="0"/><path d="M241.49698,134.40221c-1.18394,0.37547 -2.15069,-0.51184 -2.98938,-1.40786c-0.94616,-1.01087 -1.68992,-2.08353 -1.65515,-2.32299c0.0535,-0.36848 8.86169,-1.81319 9.04438,-1.46721c0.17431,0.33011 -0.69738,1.61712 -1.95846,3.01075c-0.71055,0.78522 -1.17095,1.85116 -2.19171,2.17486z" fill="#ef3d61" stroke="#000000" stroke-width="1.5"/><path d="M242.94373,121.62933c-0.83819,-1.75207 -1.7371,-5.00559 0.47369,-7.27621c0.39692,-0.40769 1.53621,-0.82871 2.91974,-0.98554c1.41808,-0.16075 2.76182,0.05404 3.14058,0.08725c0.74828,0.06564 1.76045,-0.74788 1.76045,-0.74788c0,0 0.88394,-1.0685 1.32466,-1.80669c0.36999,-0.61971 0.92662,-2.78539 0.92662,-2.78539c0,0 0.5635,1.39253 0.12998,3.33784c-0.17863,0.80161 -0.91947,2.40121 -0.91947,2.40121c0,0 0.99018,-0.30993 1.97199,-0.98572c0.73749,-0.50761 2.21473,-2.57889 2.21473,-2.57889c0,0 -0.2116,1.95869 -0.54574,2.90163c-0.23073,0.65113 -1.05687,1.68428 -1.05687,1.68428l0.21216,1.01893c0,0 -2.11219,-1.08284 -3.0041,-1.13859c-0.72116,-0.04507 -2.11324,0.76981 -2.11324,0.76981c0,0 3.02696,7.09833 -1.43073,9.09086c-3.47569,1.55359 -4.62417,-0.10172 -6.00445,-2.98689z" fill="#000000" stroke="none" stroke-width="0"/><path d="M219.06229,121.08618c0,0 2.11143,0.94349 3.14414,1.12921c0.95044,0.17092 2.21864,-0.3487 2.21864,-0.3487c0,0 -0.6037,-0.55422 -1.2178,-1.13699c-0.64047,-0.60781 -2.04532,-2.52336 -2.04532,-2.52336c0,0 1.85966,1.11113 2.70212,1.41204c0.80566,0.28778 2.52796,0.45483 2.52796,0.45483c0,0 2.31847,-1.16271 3.85579,-1.89817c4.02427,-1.92523 7.99847,-0.32485 7.99847,-0.32485c0,0 -2.48016,0.4313 -3.3339,0.61017c-0.60645,0.12703 -1.24471,0.48834 -1.24471,0.48834c0,0 3.80949,7.61228 -1.90836,10.42554c-4.68321,2.30421 -6.41232,-4.66422 -6.75944,-4.926c-0.25147,-0.18966 -1.43344,-0.61064 -1.43344,-0.61064c0,0 -1.67267,-0.20338 -2.38198,-0.626c-0.77164,-0.45976 -2.12213,-2.12543 -2.12213,-2.12543z" fill="#000000" stroke="none" stroke-width="0"/></g><path d="M262.44489,99.10375c0,0 -1.47834,-2.33576 -2.31305,-3.46701c-0.79819,-1.08175 -2.59065,-3.17857 -2.59065,-3.17857c0,0 1.26297,0.18033 2.78377,2.0506c0.99394,1.22235 3.5145,4.42049 3.5145,4.42049z" fill="#000000" stroke="none" stroke-width="0"/></g><g data-paper-data="{&quot;index&quot;:null}"><path d="M259.28663,188.80448c-1.0602,-0.66466 -2.71619,-1.91638 -4.31413,-5.61285c-0.96052,-2.22194 -1.40224,-4.37529 -0.63729,-4.97855c2.36694,-1.86663 13.3373,-2.74548 13.44122,-2.74358c6.31423,0.11552 14.75784,4.97244 14.70806,7.6935c-0.03947,2.1578 -5.75386,4.98195 -11.95424,4.65984c-9.16976,-0.47638 -12.53061,-4.65958 -12.72268,-4.8813c-0.76238,-0.88006 0.9184,1.56685 1.56393,2.54042c0.73985,1.11585 2.06046,1.90901 1.85581,2.98223c-0.23385,1.22641 -1.06165,0.89139 -1.94068,0.34032z" fill="#ee1536" stroke="#000000" stroke-width="1.5"/><path d="M224.25875,165.28609c0.06579,-3.59594 2.00603,-6.75831 5.17049,-9.03425c4.20337,-3.02315 10.37532,-4.58235 15.3177,-4.49193c5.31906,0.09732 12.3695,0.02693 14.33396,2.35534c0.53322,0.63203 0.05462,3.35903 0.36104,5.97145c0.17611,1.50149 0.91753,5.146 1.91725,8.08844c0.72754,2.14139 1.60194,4.59337 2.7295,4.92432c4.67529,1.37227 11.26246,4.04556 9.53456,6.56728c-1.31304,1.91628 -8.75152,2.01412 -14.637,0.10664c-5.29741,-1.71688 -9.04355,-5.34088 -10.97814,-5.86143c-3.28193,-0.88309 -10.32042,1.24557 -13.67016,0.71804c-2.18266,-0.34373 -4.08315,-1.10157 -5.50522,-1.89786c-3.52437,-1.97351 -4.61466,-5.22144 -4.57396,-7.44602z" fill="#ffd5d5" stroke="#000000" stroke-width="1.5"/><path d="M254.56293,162.13759c0,0 1.56783,-1.10812 2.24012,-1.79943c0.60952,-0.62677 1.62377,-2.17381 1.62377,-2.17381c0,0 0.43059,2.44021 0.62789,3.68743c0.17838,1.12763 0.50484,3.47336 0.50484,3.47336c0,0 -2.15397,-0.60727 -3.05633,-1.18293c-0.72319,-0.46133 -1.94027,-2.0046 -1.94027,-2.0046z" fill="#fb95a9" stroke="none" stroke-width="0"/><path d="M274.93304,179.47494c0.17614,-0.35078 1.67744,-0.10579 2.96364,0.54008c1.28621,0.64587 2.64249,2.40996 2.46635,2.76075c-0.17614,0.35078 -1.49641,-1.15463 -2.78261,-1.8005c-1.28618,-0.64587 -2.82349,-1.14954 -2.64735,-1.50033z" fill="#fc9ea5" stroke="none" stroke-width="0"/></g><g data-paper-data="{&quot;index&quot;:null}"><path d="M231.6161,187.60801c2.29195,-6.45239 7.36052,-8.42325 12.0868,-6.74443c4.72627,1.67881 6.85397,7.63781 4.56201,14.09021c-2.29198,6.4524 -10.74771,12.3197 -14.27431,10.86352c-3.49168,-1.44176 -4.83123,-11.42262 -2.53927,-17.87502z" fill="#ee1536" stroke="#000000" stroke-width="1.5"/><path d="M234.0063,184.73409c0,0 1.89008,-2.93783 4.16425,-3.67281c0.76282,-0.24652 4.09289,0.07589 6.63574,1.60028c1.72832,1.0361 2.92564,3.08165 3.35603,4.117c0.74132,1.78332 0.25761,3.75411 0.25761,3.75411c0,0 -1.75132,1.73614 -5.37121,1.75697c-1.90354,0.01095 -4.69788,-1.95439 -6.49284,-3.99419c-1.61842,-1.83919 -2.54956,-3.56135 -2.54956,-3.56135z" fill="#9a1652" stroke="none" stroke-width="0"/><path d="M238.06884,174.778c0.27504,-7.10274 1.78656,-10.92378 10.20323,-10.9567c4.92112,-0.01926 6.74914,5.60232 6.52174,8.01754c-0.76083,8.0806 -9.14585,15.50544 -9.14585,15.50544c0,0 1.69915,7.95191 -6.57229,9.28802c-4.04476,0.65336 -4.34796,-6.3548 -3.74239,-8.08754c1.09941,-3.14571 3.22465,-5.04681 3.22465,-5.04681c0,0 -0.61132,-5.56386 -0.48911,-8.71997z" fill="#ffd5d5" stroke="#000000" stroke-width="1.5"/><path d="M245.25007,175.85352c-1.01035,-0.6007 -1.27413,-1.56322 -1.64297,-2.51391c-0.44507,-1.14716 -0.84287,-4.04896 -0.84287,-4.04896c0,0 1.94291,1.36195 3.03588,1.93367c1.07558,0.56261 3.62764,1.31095 3.62764,1.31095c0,0 -1.4569,2.46959 -2.14984,2.98676c-0.644,0.48065 -1.01746,0.9322 -2.02782,0.33151z" fill="#fb95a9" stroke="none" stroke-width="0"/><path d="M237.07339,202.85938c-0.6425,-0.00769 1.46942,-1.10905 2.27458,-1.62336c0.89314,-0.5705 2.73049,-2.48502 2.78177,-2.11778c0.10372,0.74257 -1.35997,2.23226 -2.17601,2.75352c-0.88569,0.56574 -1.78963,1.00067 -2.88033,0.98762z" fill="#fc9ea5" stroke="none" stroke-width="0"/></g></g></g></svg>