<svg version="1.1" xmlns="http://www.w3.org/2000/svg" xmlns:xlink="http://www.w3.org/1999/xlink" width="189.26654" height="221.55319" viewBox="0,0,189.26654,221.55319"><g transform="translate(-145.36673,-69.22341)"><g data-paper-data="{&quot;isPaintingLayer&quot;:true}" fill-rule="nonzero" stroke-linejoin="miter" stroke-miterlimit="10" stroke-dasharray="" stroke-dashoffset="0" style="mix-blend-mode: normal"><path d="M145.36673,290.7766v-221.55318h189.26654v221.55319z" fill="none" stroke="none" stroke-width="none" stroke-linecap="butt"/><g><g><g data-paper-data="{&quot;origRot&quot;:0}" stroke="#000000" stroke-width="3" stroke-linecap="round"><path d="M288.65218,204.33022c-0.0751,2.23894 -7.94013,0.68074 -7.94013,0.68074c0,0 -20.92614,-3.5303 -30.81712,-5.15504c-4.04752,-1.30579 -3.84041,-36.92391 -0.11562,-40.69956c1.66041,-1.68306 10.59347,-3.46824 11.89509,-2.16326c2.47752,2.48392 6.48168,17.32061 6.48168,17.32061l-3.82123,0.09766l10.01024,0.71708c0,0 11.73176,-0.20302 16.63881,1.10426c2.72149,0.72503 -2.33176,28.0975 -2.33176,28.0975z" data-paper-data="{&quot;origPos&quot;:null}" fill="#582700"/><path d="M281.74419,175.97341l-2.10284,27.3953" fill="none"/><path d="M275.96861,203.34924l1.84192,-27.41532" data-paper-data="{&quot;origPos&quot;:null}" fill="none"/></g><path d="M279.43548,203.92429l-2.56282,-0.18055l1.97526,-28.03557l2.56282,0.18055z" fill="#ffffff" stroke="none" stroke-width="0" stroke-linecap="butt"/><path d="M249.59871,199.95613l-2.37537,-9.86392l0.5386,-21.9392l1.9351,-7.51688l3.47373,-3.1515l6.85701,0.09689l1.37141,0.01937l5.95172,15.62976l-2.74605,0.18981l-0.02583,1.82854l12.10437,0.85685l-1.07646,27.64694l-24.63359,-4.00587z" fill="#ffcb66" stroke="#000000" stroke-width="0.5" stroke-linecap="round"/></g><g fill="none" stroke="none" stroke-width="1" stroke-linecap="butt" font-family="sans-serif" font-weight="normal" font-size="12" text-anchor="start"/></g><g><g data-paper-data="{&quot;index&quot;:null}"><path d="M287.87214,175.04405c2.18592,0.45997 7.0199,-2.37726 6.59272,-0.34719c-0.21761,1.03405 -4.55883,19.84512 -5.40372,20.64124c-0.81381,0.76679 -1.81943,1.14667 -2.8919,0.921c-0.72967,-0.15355 -1.77793,-0.7424 -2.35665,-1.43372c-1.15503,-1.37974 -1.68503,-21.08957 -1.40044,-22.44201c0.4272,-2.03009 3.27408,2.2007 5.45999,2.66068z" fill="#e99b00" stroke="#000000" stroke-width="1.5" stroke-linecap="butt"/><g stroke-linecap="butt"><path d="M289.30454,168.35988c3.96038,0.83337 6.72482,3.6288 6.17454,6.24378c-0.55026,2.61497 -4.20685,4.05927 -8.16723,3.22593c-3.96038,-0.83338 -6.72482,-3.62881 -6.17455,-6.2438c0.55026,-2.61497 4.20686,-4.05926 8.16723,-3.2259z" fill="#ffb727" stroke="#000000" stroke-width="1.5"/><path d="M284.55406,175.87842c0,0 -1.41425,-0.65957 -2.26691,-2.01395c-0.39712,-0.65199 -0.68364,-2.45096 -0.68364,-2.45096l2.92196,2.11969z" fill="#ffd683" stroke="none" stroke-width="0"/><path d="M287.57362,177.0964l-1.72127,-0.41106c0,0 -0.10462,-0.7199 -0.04953,-1.10276c0.04705,-0.32699 0.34034,-1.22359 0.34034,-1.22359l1.38329,0.57772z" fill="#ffd683" stroke="none" stroke-width="0"/></g><g><path d="M288.18369,174.20374c-5.46344,-1.14967 -10.21778,-6.093 -9.06813,-11.5564c1.14967,-5.46344 5.83284,-8.5183 11.29625,-7.36864c5.46344,1.14967 9.2404,6.56954 8.09076,12.03294c-1.14967,5.46344 -4.85544,8.04176 -10.31884,6.89211z" fill="#e99b00" stroke="#000000" stroke-width="1.5" stroke-linecap="butt"/><path d="M288.42698,155.59829c0,0 1.05876,1.57194 2.35009,3.89591c1.2882,2.31832 2.06886,5.54432 1.56656,7.93144c-1.00586,4.78008 -2.78947,6.25071 -6.75903,5.41542c-1.93119,-0.40638 -3.50577,-1.8274 -4.37065,-3.53934c-1.21397,-2.40288 -1.94243,-5.49006 -1.37203,-8.20069c1.00586,-4.78008 8.58507,-5.50273 8.58507,-5.50273z" fill="#ffb727" stroke="none" stroke-width="0" stroke-linecap="butt"/><path d="M297.51078,167.46004c0,0 -3.59913,2.7229 -9.92243,1.15516c-6.27191,-1.555 -8.17999,-5.87095 -8.17999,-5.87095" fill="none" stroke="#000000" stroke-width="0.8" stroke-linecap="round"/><path d="M295.01541,172.31775c0,0 -2.653,1.41156 -8.24017,-0.67356c-3.87695,-1.44688 -7.14086,-4.31948 -7.14086,-4.31948" fill="none" stroke="#000000" stroke-width="0.75" stroke-linecap="round"/><path d="M297.74466,164.73287c0,0 -2.23504,1.49995 -8.18909,-0.33725c-6.19038,-1.91014 -8.38855,-5.70085 -8.38855,-5.70085" fill="none" stroke="#000000" stroke-width="0.8" stroke-linecap="round"/><path d="M283.75691,156.35003c0,0 4.18424,0.83528 7.99627,2.74623c2.89416,1.4508 6.19983,4.37726 6.19983,4.37726" fill="none" stroke="#000000" stroke-width="0.8" stroke-linecap="round"/><path d="M293.91453,157.35424c0,0 2.15646,2.94604 0.80895,8.27274c-1.44403,5.70816 -4.29123,8.27607 -4.29123,8.27607" fill="none" stroke="#000000" stroke-width="0.8" stroke-linecap="round"/><path d="M287.35668,173.70918c0,0 0.42142,-2.96454 0.8873,-4.68855c0.39227,-1.45151 1.65457,-4.10528 2.43708,-6.6733c0.8898,-2.92019 1.28299,-5.68683 1.28299,-5.68683" fill="none" stroke="#000000" stroke-width="0.8" stroke-linecap="round"/><path d="M284.88362,173.07545c0,0 -1.3319,-4.21043 0.07234,-10.0613c0.89469,-3.72777 4.61496,-7.36718 4.61496,-7.36718" fill="none" stroke="#000000" stroke-width="0.8" stroke-linecap="round"/><path d="M280.85972,169.84896c0,0 -0.7714,-3.15546 1.23991,-8.31567c1.39673,-3.58339 4.23297,-6.11443 4.23297,-6.11443" fill="none" stroke="#000000" stroke-width="0.8" stroke-linecap="round"/><path d="M281.016,161.83599c-0.38956,-0.08198 -0.62869,-0.5128 -0.53409,-0.96231c0.09457,-0.44949 0.48706,-0.74742 0.87664,-0.66544c0.38956,0.08198 0.6287,0.51281 0.5341,0.9623c-0.09457,0.44949 -0.48708,0.74743 -0.87664,0.66545z" fill="#ffd683" stroke="none" stroke-width="0" stroke-linecap="butt"/><path d="M282.44211,158.96308c-0.22475,-0.0473 -0.36859,-0.26782 -0.32131,-0.49255c0.04729,-0.22474 0.26782,-0.36859 0.49255,-0.32131c0.22475,0.0473 0.3686,0.26783 0.32131,0.49255c-0.04729,0.22474 -0.26782,0.3686 -0.49255,0.32131z" fill="#ffd683" stroke="none" stroke-width="0" stroke-linecap="butt"/></g></g><path d="M283.47811,175.73458c-1.54484,9.75405 -2.50007,11.30482 -2.50007,11.30482c-0.25967,1.21143 -1.41035,0.84395 -1.41035,0.84395c0,0 -2.31865,-0.44013 -3.80269,-0.72183c-0.97449,-0.18497 -2.497,-0.47397 -2.497,-0.47397c0,0 -0.9266,-0.33925 -0.77065,-0.99758c0.93825,-3.96059 1.62358,-7.79491 2.28436,-9.73924c0.22026,-0.64811 1.31233,-1.19284 1.31233,-1.19284l4.78411,0.35781c0,0 1.96982,0.03309 2.59993,0.61889z" fill="#582700" stroke="#000000" stroke-width="3" stroke-linecap="round"/><path d="M294.69941,179.14427c-3.64803,20.08468 -5.51717,23.32915 -5.51717,23.32915c-0.57625,2.49935 -2.63505,1.82988 -2.63505,1.82988c0,0 -4.17438,-0.73388 -6.84616,-1.20357c-1.75442,-0.30843 -4.49548,-0.7903 -4.49548,-0.7903c0,0 -1.65411,-0.62777 -1.31402,-1.98707c2.04619,-8.17773 3.62207,-16.07871 4.99029,-20.1078c0.45607,-1.34302 2.48706,-2.53729 2.48706,-2.53729l8.66051,0.38736c0,0 3.57576,-0.07444 4.66999,1.07963z" fill="#582700" stroke="#000000" stroke-width="3" stroke-linecap="round"/></g><g data-paper-data="{&quot;origRot&quot;:0}" stroke="#000000" stroke-linecap="round"><path d="M242.17568,218.23266c0,0 -0.7701,-4.67505 0.78778,-4.86982c4.59712,-0.57471 8.80997,-2.78606 13.32132,-1.7549c1.87335,0.42819 3.18164,4.46306 3.18164,4.46306l9.04525,31.45112c0,0 0.97769,3.23575 1.47179,5.11408c0.52828,2.00825 -0.07897,5.21858 -2.18166,5.59927c-7.72043,1.39786 -12.26405,3.64675 -17.30242,3.32673c-1.83556,-0.11659 -3.77569,-0.35707 -4.73392,-1.87836c-1.25174,-1.98719 -1.20226,-6.40657 -1.20226,-6.40657z" data-paper-data="{&quot;origPos&quot;:null}" fill="#ff0000" stroke-width="3"/><path d="M270.5229,255.90078c0,0 -5.56189,3.45631 -10.67839,4.2267c-3.92556,0.59106 -12.5881,0.87352 -12.5881,0.87352c0,0 -1.7682,-2.33604 -2.10789,-3.88186c-0.35785,-1.62843 0.3205,-4.25176 0.3205,-4.25176l23.32056,-4.30713z" data-paper-data="{&quot;origPos&quot;:null}" fill="#976e57" stroke-width="2"/><path d="M242.30769,218.53298c0,0 -0.7701,-4.67505 0.78779,-4.86981c4.59711,-0.57471 8.80997,-2.78606 13.32134,-1.75488c1.87335,0.42819 3.18163,4.46305 3.18163,4.46305l9.04525,31.45112c0,0 0.97771,3.23576 1.47181,5.11408c0.52828,2.00825 -0.07898,5.21857 -2.18166,5.59927c-7.72043,1.39786 -12.26405,3.64676 -17.30242,3.32674c-1.83556,-0.11659 -3.77569,-0.35709 -4.73391,-1.87836c-1.25174,-1.98719 -1.20227,-6.40657 -1.20227,-6.40657z" data-paper-data="{&quot;origPos&quot;:null}" fill="#474747" stroke-width="3"/></g><g data-paper-data="{&quot;index&quot;:null,&quot;origRot&quot;:0}" stroke="#000000" stroke-linecap="round"><path d="M239.34821,252.93067c0,0 0.25469,4.41276 -0.90345,6.45251c-0.88661,1.56153 -2.81359,1.88634 -4.64188,2.08286c-5.01839,0.53939 -9.66188,-1.50914 -17.43942,-2.56894c-2.11825,-0.28865 -2.87401,-3.46923 -2.43956,-5.49849c0.40635,-1.89795 1.23274,-5.17306 1.23274,-5.17306l7.57513,-31.81365c0,0 1.11953,-4.08782 2.97108,-4.59725c4.4589,-1.22682 8.77019,0.79857 13.38934,1.17227c1.56536,0.12664 1.01321,4.83052 1.01321,4.83052z" data-paper-data="{&quot;origPos&quot;:null}" fill="#ff0000" stroke-width="3"/><path d="M214.92729,249.27481l23.49698,3.28592c0,0 0.79953,2.59111 0.51768,4.23348c-0.26753,1.55907 -1.92544,3.96983 -1.92544,3.96983c0,0 -8.66689,0.09553 -12.61591,-0.32376c-5.14708,-0.54651 -10.86389,-3.7568 -10.86389,-3.7568z" data-paper-data="{&quot;origPos&quot;:null}" fill="#976e57" stroke-width="2.5"/><path d="M239.23029,253.23645c0,0 0.25469,4.41276 -0.90345,6.45251c-0.88661,1.56153 -2.81359,1.88635 -4.64188,2.08287c-5.01839,0.53939 -9.66187,-1.50913 -17.43942,-2.56894c-2.11825,-0.28865 -2.87401,-3.46923 -2.43956,-5.49848c0.40635,-1.89795 1.23274,-5.17306 1.23274,-5.17306l7.57513,-31.81365c0,0 1.11952,-4.08782 2.97108,-4.59725c4.4589,-1.22682 8.77021,0.79857 13.38935,1.17227c1.56536,0.12664 1.0132,4.83052 1.0132,4.83052c0,0 -0.19146,8.87865 -0.314,14.56146c-0.17297,8.02059 -0.4432,20.55176 -0.4432,20.55176z" data-paper-data="{&quot;origPos&quot;:null}" fill="#474747" stroke-width="1.5"/></g><g><g><path d="M221.83727,170.81216c0,0 1.97578,-14.20981 4.17183,-14.75007c6.58811,-1.6208 21.64943,-0.7031 31.716,-0.7031c1.55619,0 2.90003,13.34594 2.90003,13.34594l1.81251,30.20397c0,0 0.24764,14.75077 -1.45,14.75077c-15.11216,0 -32.82461,0.84081 -39.56043,0.01153c-2.24526,-0.27642 -1.40244,-15.81592 -1.40244,-15.81592z" data-paper-data="{&quot;origPos&quot;:null}" fill="#ffcb66" stroke="#000000" stroke-width="3.5" stroke-linecap="round"/><path d="M241.01872,178.8974c-1.31474,0 -1.31474,-2.45304 -1.31474,-2.45304c0,-5.0878 0,-11.81095 0,-16.89874c0,0 0,-2.45304 1.31474,-2.45304c1.31474,0 1.31474,2.45304 1.31474,2.45304c0,5.0878 0,10.17559 0,15.26338v1.63536c0,0 0,2.45304 -1.31474,2.45304z" fill="#ffffff" stroke="none" stroke-width="0.5" stroke-linecap="butt"/><path d="M253.23306,185.14301c-1.31474,0 -1.31474,-3.08171 -1.31474,-3.08171c0,-6.3917 0,-14.83788 0,-21.22958c0,0 0,-3.08171 1.31474,-3.08171c1.31474,0 1.31474,3.08171 1.31474,3.08171c0,6.3917 0,12.78341 0,19.17512v2.05447c0,0 0,3.08171 -1.31474,3.08171z" fill="#ffffff" stroke="none" stroke-width="0.5" stroke-linecap="butt"/></g><g stroke="#000000" stroke-width="0.5" stroke-linecap="butt"><path d="M256.11173,194.93068c0,6.66413 -4.69742,12.06648 -10.49198,12.06648c-5.79456,0 -10.49198,-5.40235 -10.49198,-12.06648c0,-6.66413 4.69742,-12.06648 10.49198,-12.06648c5.79456,0 10.49198,5.40235 10.49198,12.06648z" fill="#ffa924"/><path d="M248.73489,183.79926c0.00043,0.01105 0.00065,0.02233 0.00065,0.03382c0,0.61607 -0.63588,0.61607 -0.63588,0.61607h-0.12717c-0.4646,0 -2.58255,0.02751 -2.9,-0.10592c-0.265,-0.1114 -0.20736,-0.53557 -0.39803,-0.7458c-0.18318,-0.20197 -0.44382,-0.32686 -0.68904,-0.45275c-0.38995,-0.2002 -0.92253,-0.19698 -1.20941,-0.52188c-0.26501,-0.30013 -0.29651,-0.76111 -0.27156,-1.15534c0.11722,-1.85147 1.28987,-1.87043 2.80465,-1.70348c0.45688,0.0975 0.92833,0.14483 1.37064,0.29249c0.19458,0.06496 0.31071,0.29002 0.51105,0.33569c0.1424,0.03247 0.27637,-0.09645 0.41999,-0.12341c0.00613,-0.00115 1.7803,-0.24666 1.79789,-0.24908c1.19945,-0.16498 2.48218,-0.21313 3.69266,-0.12807c0.77133,0.0542 2.51414,0.23932 2.95898,0.98812c0.63352,1.06639 -1.20779,1.78797 -1.66866,1.9705c-1.36388,0.54019 -2.52804,0.20441 -3.9171,0.36118c-0.47316,0.0534 -1.23363,0.37487 -1.73966,0.58787z" fill="#1cc735"/></g></g><path d="M258.68155,156.83008c-12.08695,0.05222 -23.80812,0.06675 -28.59292,-0.96508c-4.37299,-0.94302 -5.67632,-3.71131 -5.67632,-3.71131c0,0 -1.74247,-2.44432 -1.81957,-3.97741c-0.2313,-4.59922 -0.27577,-17.7495 0.73567,-29.08139c0.03375,-0.37819 0.06642,-0.58953 0.12265,-0.96504c0.16866,-1.12655 1.01332,-5.49818 1.01332,-5.49818c0,0 3.19963,-1.64039 4.93517,-2.10345c5.20659,-1.38917 18.41036,0.1806 32.32195,0.68183c1.26091,0.04543 3.41245,1.73988 3.41245,1.73988c0,0 1.52175,3.14697 1.46117,5.12957c-0.3917,12.81785 -0.87226,26.99846 -1.19425,30.23917c-0.10732,1.08024 -1.9707,5.25849 -1.9707,5.25849z" fill="#582600" stroke="#000000" stroke-width="2.5" stroke-linecap="round"/><path d="M259.5728,136.37772c0.10522,-3.44335 0.60406,-6.22211 1.11419,-6.20652c0.51013,0.01557 0.83836,2.81962 0.73315,6.26295c-0.10522,3.44335 -0.60406,6.22212 -1.11419,6.20653c-0.51013,-0.01557 -0.83836,-2.81963 -0.73315,-6.26297z" fill="none" stroke="#000000" stroke-width="2.5" stroke-linecap="butt"/><path d="M253.05062,136.87621c0.10717,-3.50713 0.50422,-6.34074 0.8868,-6.32904c0.38259,0.01169 0.60588,2.86427 0.4987,6.37138c-0.10717,3.50713 -0.5042,6.34072 -0.88679,6.32904c-0.38259,-0.01169 -0.60588,-2.86425 -0.49871,-6.37137z" fill="none" stroke="#000000" stroke-width="2.5" stroke-linecap="butt"/><path d="M223.23893,112.16794l0.43526,-12.99272l43.77544,1.46647l-0.43526,12.99272z" fill="#000000" stroke="none" stroke-width="0" stroke-linecap="butt"/><path d="M256.84448,129.24876c-1.89044,1.19178 -7.36331,4.14387 -8.86919,2.10378c-2.01806,-2.73401 5.92397,-7.44635 7.34255,-7.12427c0.2568,-0.07839 0.5307,-0.11644 0.81404,-0.10695c1.37994,0.04623 2.46112,1.20236 2.41489,2.5823c0.52028,0.66538 -1.18163,2.21691 -1.70231,2.54515z" fill="#582600" stroke="none" stroke-width="0.5" stroke-linecap="butt"/><g data-paper-data="{&quot;index&quot;:null}"><g data-paper-data="{&quot;origRot&quot;:0,&quot;index&quot;:null}" stroke="#000000" stroke-width="3" stroke-linecap="round"><path d="M225.95795,209.1708c0,0 -25.19106,-1.80717 -25.20687,-4.36259c-0.02853,-4.60758 2.8263,-14.86395 2.8263,-14.86395l8.55584,-28.85843c0,0 1.70706,-5.45404 2.83615,-5.68761c3.38724,-0.70071 9.55074,1.4989 16.10969,2.43567c1.09021,0.15572 0.81033,6.07362 0.81033,6.07362c0,0 -0.85125,9.2916 -1.39607,15.2387c-0.82972,9.05684 -2.12605,23.20702 -2.12605,23.20702c0,0 -0.42598,7.26246 -2.40933,6.8176z" data-paper-data="{&quot;origPos&quot;:null}" fill="#582600"/><path d="M227.24071,201.90983l-24.53798,-4.40343" fill="none"/><path d="M228.06154,198.68005l-24.49603,-4.63713" data-paper-data="{&quot;origPos&quot;:null}" fill="none"/></g><path d="M203.4251,193.32366l10.84762,-36.56362l1.38095,-0.44775l15.55991,2.8411l-2.99159,38.64797z" fill="#ffcb66" stroke="#000000" stroke-width="1" stroke-linecap="round"/><path d="M202.70287,197.33967l0.41935,-2.29307l25.08483,4.58732l-0.41935,2.29307z" fill="#ffffff" stroke="none" stroke-width="0" stroke-linecap="butt"/></g><path d="M231.2489,149.10347c-0.59132,-0.46134 -0.12997,-1.05265 -0.12997,-1.05265l0.43738,-0.48967c1.75794,-1.10653 3.14812,-1.48075 5.23758,-1.34787c0,0 0.74838,0.04925 0.69912,0.79764c-0.04925,0.74838 -0.79764,0.69913 -0.79764,0.69913c-1.77322,-0.12115 -2.85129,0.16736 -4.33541,1.11764l-0.05841,0.14582c0,0 -0.46135,0.59131 -1.05266,0.12997z" fill="#000000" stroke="none" stroke-width="0.5" stroke-linecap="butt"/></g></g></svg>