<svg version="1.1" xmlns="http://www.w3.org/2000/svg" xmlns:xlink="http://www.w3.org/1999/xlink" width="173" height="208" viewBox="0,0,173,208"><defs><radialGradient cx="265.90232" cy="144.73196" r="43.87922" gradientUnits="userSpaceOnUse" id="color-1"><stop offset="0" stop-color="#8f8256"/><stop offset="1" stop-color="#8d681f"/></radialGradient><radialGradient cx="266.61803" cy="151.27752" r="18.68929" gradientUnits="userSpaceOnUse" id="color-2"><stop offset="0" stop-color="#0c0b0b"/><stop offset="1" stop-color="#533907"/></radialGradient><radialGradient cx="294.19149" cy="143.56031" r="15.62237" gradientUnits="userSpaceOnUse" id="color-3"><stop offset="0" stop-color="#36270c"/><stop offset="1" stop-color="#0c0b0b"/></radialGradient><radialGradient cx="237.99908" cy="148.0751" r="15.62237" gradientUnits="userSpaceOnUse" id="color-4"><stop offset="0" stop-color="#36270c"/><stop offset="1" stop-color="#0c0b0b"/></radialGradient></defs><g transform="translate(-153.5,-76)"><g data-paper-data="{&quot;isPaintingLayer&quot;:true}" fill-rule="nonzero" stroke-linejoin="miter" stroke-miterlimit="10" stroke-dasharray="" stroke-dashoffset="0" style="mix-blend-mode: normal"><g data-paper-data="{&quot;index&quot;:null}"><g data-paper-data="{&quot;index&quot;:null}"><path d="M222.00733,174.85149c-0.83884,-3.35991 10.7055,-16.74528 13.17892,-16.93393c2.68822,-0.20503 13.03463,12.05342 13.03463,12.05342l-2.03737,3.23196l13.08815,-21.62679c0,0 4.14359,-7.69708 6.0792,-6.20754c0,0 11.76991,2.31351 25.25425,17.52406c-1.97171,5.17351 -10.61009,14.7633 -10.61009,14.7633c0,0 -18.19451,22.18185 -23.23921,21.59396c-5.04464,-0.58786 -33.96127,-21.24555 -34.74845,-24.39846z" fill="#68330c" stroke="none" stroke-width="3" stroke-linecap="round"/><path d="M259.28184,151.24096c0,0 5.02083,-7.03917 6.90401,-5.547c0,0 11.54529,2.43978 24.59715,17.58973c-1.08397,2.72743 -4.08992,6.68918 -6.63181,9.76309c-0.42251,-0.33103 -0.81233,-0.62277 -1.135,-0.86077c-7.1521,-5.27528 -17.60083,-11.81158 -25.16635,-17.82063c-0.07497,-0.05956 1.43203,-3.12443 1.43203,-3.12443z" fill="#ffddb7" stroke="#000000" stroke-width="2" stroke-linecap="butt"/><path d="M258.93327,153.52543l25.47484,18.94706l-2.38782,2.89767l-25.36769,-18.51113z" data-paper-data="{&quot;index&quot;:null}" fill="#ffffff" stroke="#000000" stroke-width="2" stroke-linecap="round"/><path d="M222.25198,174.78374c-0.83883,-3.35989 10.70549,-16.74526 13.17891,-16.93391c2.6882,-0.20503 13.03462,12.05341 13.03462,12.05341l-2.03737,3.23197l13.08814,-21.6268c0,0 4.14358,-7.69709 6.07918,-6.20755c0,0 11.7699,2.31351 25.25424,17.52406c-1.97172,5.17352 -10.61007,14.76332 -10.61007,14.76332c0,0 -18.19451,22.18183 -23.23921,21.59394c-5.04463,-0.58786 -33.96127,-21.24555 -34.74845,-24.39846z" data-paper-data="{&quot;origPos&quot;:null}" fill="none" stroke="#000000" stroke-width="2.5" stroke-linecap="round"/></g><g stroke-linecap="butt"><path d="M284.11829,111.40442c0,0 1.05566,6.84544 -2.70184,7.13933c-1.1592,0.09067 -6.69846,2.18672 -9.51506,0.56721c-1.38857,-0.7984 2.80834,-4.48748 -0.19838,-8.46129c-0.63721,-0.84219 -17.48124,-0.3973 -17.22892,2.75667c0.90851,11.35657 -3.87861,6.72944 -4.56699,6.98413c-9.08204,3.3603 -7.10408,-5.75452 -7.10408,-5.75452l-0.63361,-8.10104l41.31529,-3.2315z" fill="#8c651a" stroke="#000000" stroke-width="2.5"/><g stroke="#000000"><path d="M223.84748,169.63169l-3.94109,-50.38757l87.49122,-6.84314l3.94107,50.38754z" fill="#121010" stroke-width="3"/><path d="M224.12724,173.34731l-3.94108,-50.38756l87.49123,-6.84314l3.94108,50.38758z" fill="url(#color-1)" stroke-width="2.5"/></g><path d="M256.53143,170.8128l-2.91467,-37.26477l23.08794,-1.80581l2.91467,37.26478z" fill="url(#color-2)" stroke="#000000" stroke-width="2.5"/><path d="M278.69397,144.85565c-0.4174,-8.62319 6.18273,-16.19345 14.74173,-16.90882c8.55908,-0.7154 15.83594,5.69514 16.25336,14.31822c0.41741,8.62317 -6.18275,16.19343 -14.74175,16.9088c-8.55908,0.71536 -15.83595,-5.69515 -16.25335,-14.31826z" fill="url(#color-3)" stroke="none" stroke-width="0"/><path d="M222.50151,149.37045c-0.41741,-8.62315 6.18275,-16.19343 14.74175,-16.9088c8.55903,-0.71538 15.83594,5.69515 16.25335,14.31824c0.4174,8.62314 -6.18275,16.19341 -14.74175,16.9088c-8.55903,0.71535 -15.83591,-5.69517 -16.25332,-14.31827z" fill="url(#color-4)" stroke="none" stroke-width="0"/></g></g><path d="M233.73691,263.06581c0,0 0.2887,4.45905 -1.14476,6.51483c-1.09731,1.57379 -3.46556,1.89383 -5.71187,2.08463c-6.16582,0.52374 -11.85706,-1.56534 -21.40251,-2.66883c-2.59974,-0.30054 -3.51048,-3.51693 -2.96588,-5.56513c0.50939,-1.9157 1.54213,-5.2209 1.54213,-5.2209l9.47649,-32.10779c0,0 1.39717,-4.12499 3.67381,-4.63186c5.48249,-1.22057 10.76591,0.84377 16.43646,1.24078c1.92167,0.13453 1.21788,4.88432 1.21788,4.88432z" fill="#000000" stroke="#000000" stroke-width="3" stroke-linecap="round"/><path d="M236.23833,226.30424c0,0 -0.33071,-4.88767 1.50756,-4.93159c5.42441,-0.12961 10.59944,-1.98177 15.72942,-0.46766c2.13026,0.62876 3.16534,4.91176 3.16534,4.91176l6.7261,33.26975c0,0 0.74685,3.42759 1.09484,5.40989c0.37208,2.11945 -0.72414,5.36164 -3.21953,5.54217c-9.16217,0.66283 -14.72705,2.52047 -20.55705,1.68511c-2.12395,-0.30434 -4.35471,-0.74663 -5.28659,-2.40821c-1.21729,-2.17042 -0.62434,-6.71274 -0.62434,-6.71274z" fill="#000000" stroke="#000000" stroke-width="3" stroke-linecap="round"/><g data-paper-data="{&quot;index&quot;:null}" stroke="#000000"><path d="M213.44364,180.773c0,0 1.95432,-14.10291 4.32547,-14.65149c3.79022,-0.87694 10.20601,-0.77303 17.00254,-0.68228c5.95911,0.07957 12.21093,0.05475 17.24239,0.62071c1.95148,0.2195 3.31028,14.20429 3.31028,14.20429l1.59902,27.40816c0,0 0.62539,16.60936 -1.20761,16.60936c-16.31716,0 -35.44195,0.85378 -42.71487,0.0117c-2.42429,-0.28068 -1.51427,-16.05999 -1.51427,-16.05999z" fill="#68330c" stroke-width="2.5" stroke-linecap="round"/><g><g><path d="M227.58904,165.44849h20.41042v8.70022c-0.31153,1.21913 -0.55139,2.22085 -0.69004,2.73538c-1.36219,5.05563 -9.2376,25.75294 -9.93914,29.19149c-3.37509,-10.49757 -6.61904,-21.15505 -9.78125,-31.84622z" fill="#ffffff" stroke-width="2" stroke-linecap="butt"/><path d="M233.05366,166.32469h9.14544v2.2044c-0.13959,0.29643 -4.25306,6.83789 -4.56741,7.67398c-1.51231,-2.55247 -3.16112,-5.116 -4.57803,-7.71554z" fill="#ffddb7" stroke-width="1.5" stroke-linecap="butt"/><path d="M237.42715,202.16148l0.37859,-26.21634" fill="none" stroke-width="1.5" stroke-linecap="round"/><path d="M237.51023,223.70856v-18.14977" fill="none" stroke-width="2" stroke-linecap="round"/><path d="M238.22678,179.00865c0,-0.27651 0.24603,-0.50069 0.54951,-0.50069c0.30348,0 0.5495,0.22417 0.5495,0.50069c0,0.27651 -0.24602,0.50068 -0.5495,0.50068c-0.30348,0 -0.54951,-0.22416 -0.54951,-0.50068z" fill="#000000" stroke-width="0.5" stroke-linecap="butt"/><path d="M238.10467,185.01686c0,-0.27651 0.24602,-0.50068 0.5495,-0.50068c0.30348,0 0.54951,0.22416 0.54951,0.50068c0,0.27651 -0.24603,0.50069 -0.54951,0.50069c-0.30348,0 -0.5495,-0.22417 -0.5495,-0.50069z" fill="#000000" stroke-width="0.5" stroke-linecap="butt"/><path d="M238.08357,191.02507c0,-0.27651 0.24603,-0.50069 0.54951,-0.50069c0.30348,0 0.5495,0.22417 0.5495,0.50069c0,0.27651 -0.24602,0.50069 -0.5495,0.50069c-0.30348,0 -0.54951,-0.22417 -0.54951,-0.50069z" fill="#000000" stroke-width="0.5" stroke-linecap="butt"/><path d="M238.60901,221.06607c0,-0.27651 0.24602,-0.50068 0.5495,-0.50068c0.30348,0 0.54951,0.22416 0.54951,0.50068c0,0.27651 -0.24603,0.50069 -0.54951,0.50069c-0.30348,0 -0.5495,-0.22417 -0.5495,-0.50069z" fill="#000000" stroke-width="0.5" stroke-linecap="butt"/><path d="M238.34369,214.94659c0,-0.27651 0.24603,-0.50068 0.54951,-0.50068c0.30348,0 0.54951,0.22416 0.54951,0.50068c0,0.27651 -0.24603,0.50069 -0.54951,0.50069c-0.30348,0 -0.54951,-0.22417 -0.54951,-0.50069z" fill="#000000" stroke-width="0.5" stroke-linecap="butt"/><path d="M237.15009,207.64769l-18.97408,-26.74762l5.72802,-4.56666l-3.22201,-5.54524l5.72803,-2.60952" fill="none" stroke-width="2" stroke-linecap="round"/><path d="M248.42765,167.99818l5.33078,2.63105l-2.55704,5.53309l4.24886,4.58818l-17.82911,27.16942" fill="none" stroke-width="2" stroke-linecap="round"/><g stroke-width="1.5" stroke-linecap="round"><path d="M246.19993,212.01698l0.09358,-3.23965l3.08774,1.02306l2.24564,-3.1544l0.18713,5.45626z" fill="#ffffff"/><path d="M244.5766,212.3471h9.07611" fill="none"/></g></g><path d="M236.71903,175.5853l-7.74585,2.9802" fill="none" stroke-width="1.5" stroke-linecap="round"/><path d="M237.92322,175.83735l7.87603,2.44643" fill="none" stroke-width="1.5" stroke-linecap="round"/></g></g><path d="M221.43552,165.74435c-4.43267,-1.25349 -5.59071,-4.16707 -5.59071,-4.16707c0,0 -1.63062,-2.61191 -1.60935,-4.18259c0.06379,-4.71207 0.88021,-18.14411 2.66268,-29.64906c0.05949,-0.38397 0.10691,-0.5976 0.18934,-0.97734c0.24722,-1.13922 1.40195,-5.54744 1.40195,-5.54744c0,0 3.39608,-1.46262 5.21019,-1.82019c5.44234,-1.07274 18.91004,1.40744 33.17533,2.84344c1.29295,0.13014 3.3932,2.00346 3.3932,2.00346c0,0 1.35772,3.31477 1.16546,5.33537c-1.24293,13.06356 -2.66651,27.51289 -3.20991,30.80089c-0.09407,0.56925 -0.52308,3.03784 -2.43329,5.0232c-0.5034,0.5232 -2.39522,2.67161 -5.98253,2.89268c-9.00935,0.55521 -24.9035,-1.57439 -28.37236,-2.55535z" fill="#ffddb7" stroke="#000000" stroke-width="2.5" stroke-linecap="round"/><path d="M251.53231,150.42984c0.3339,-3.50935 1.02877,-6.31389 1.55203,-6.26408c0.52329,0.0498 0.6768,2.93509 0.34293,6.44443c-0.3339,3.50935 -1.02878,6.31389 -1.55204,6.26409c-0.52329,-0.0498 -0.6768,-2.93509 -0.34292,-6.44445z" fill="#000000" stroke="#000000" stroke-width="2.5" stroke-linecap="butt"/><path d="M245.02094,149.98889c0.34008,-3.57435 0.93393,-6.44168 1.32639,-6.4043c0.39244,0.03735 0.43491,2.96524 0.09484,6.5396c-0.34008,3.57435 -0.9339,6.44163 -1.32637,6.40429c-0.39244,-0.03735 -0.43494,-2.96522 -0.09486,-6.53957z" fill="#000000" stroke="#000000" stroke-width="2.5" stroke-linecap="butt"/><path d="M259.14353,144.95331c-0.04149,-0.8096 -0.08112,-1.61861 -0.12517,-2.42726c-0.8321,0.38822 -1.61659,0.72099 -1.76836,0.79127c-1.66689,0.77214 -4.33874,2.05342 -6.14983,2.24264c-0.8856,0.09254 -1.95764,0.39297 -2.66817,-0.14147c-0.87867,-0.6609 -0.56735,-3.082 -0.51242,-4.01331c0.20656,-3.50152 0.42124,-7.00262 0.63275,-10.50388c-1.73642,1.652 -4.41471,3.02182 -6.07926,4.48836c-3.74444,3.29891 -7.70236,6.23172 -11.57686,9.33073c-1.32898,1.063 -2.43941,2.0822 -3.88938,2.98821c-0.55588,0.34737 -0.98294,1.15004 -1.63714,1.08872c-0.9136,-0.08564 -1.55282,-0.97367 -2.32923,-1.46051c-0.03145,-1.60979 -0.0509,-3.65202 0.16374,-5.48903c-0.85059,1.0348 -1.96067,2.02075 -2.62603,2.92323c-2.31953,3.14605 -6.63273,12.27942 -6.63273,12.27942c-3.86911,-0.31461 -7.23323,-4.04636 -9.31353,-7.01043c-2.07446,-0.16184 -4.11304,-0.471 -6.20373,-0.59797c-0.49846,-0.03028 -3.28419,-0.15554 -3.58131,-0.3831c-1.83076,-1.40211 -1.1852,-2.62302 -0.55817,-4.26925c0.50169,-1.31718 1.31772,-2.41489 2.32114,-3.33636c-1.08254,-0.74792 -2.32216,-1.65823 -2.61565,-2.60774c-0.53065,-1.71681 0.16289,-2.35186 0.9869,-3.58315c0.92215,-1.37797 2.0688,-2.53722 3.3609,-3.51786c-0.68474,-0.47826 -1.41602,-1.02045 -1.49182,-1.21621c-0.80008,-2.06659 0.19317,-2.78343 1.19921,-4.19071c1.73543,-2.42762 4.62683,-3.72578 7.33329,-4.64554c0.32401,-2.57753 1.65841,-4.12015 3.05857,-6.34117c1.84394,-2.92503 5.16349,-7.15359 10.06241,-10.23792c5.37582,-3.38457 11.98456,-5.13501 14.02353,-5.47761c4.42476,-0.74347 10.00841,-0.32216 12.15974,0.02681c3.96313,0.6429 10.93472,2.97111 15.83037,6.53032c4.93372,3.58689 7.43871,8.0722 7.78045,8.79517c2.98337,6.31148 4.79199,12.24816 4.38478,19.15773c-0.1041,1.72757 0.41474,10.81421 -2.48342,15.57495c-3.52076,5.78352 -10.90635,8.01669 -11.21296,8.09799c-0.36313,0.0963 -1.81364,-0.2232 -1.95988,-1.30865c-0.35223,-2.61461 1.10118,-7.93875 1.8473,-10.04652c0.13783,-0.34078 0.26596,-0.6852 0.38901,-1.03155c-0.1075,-0.25489 -0.11897,-0.47829 -0.11897,-0.47829z" fill="#000000" stroke="none" stroke-width="0.5" stroke-linecap="butt"/><g><g data-paper-data="{&quot;index&quot;:null}"><path d="M242.05874,195.20033c2.19601,1.07041 7.49424,-0.67095 6.50016,1.36852c-0.66227,1.35869 -14.35221,18.01934 -16.27572,18.43508c-0.96374,0.20833 -2.26409,0.01294 -2.99715,-0.34436c-1.07743,-0.52519 -1.69055,-1.52828 -1.87838,-2.73665c-0.19496,-1.25458 8.68604,-20.40962 9.19239,-21.44845c0.9941,-2.03948 3.2627,3.65539 5.45873,4.72581z" fill="#485e84" stroke="#000000" stroke-width="1.5" stroke-linecap="butt"/><g stroke-linecap="butt"><path d="M245.32717,188.44405c3.97867,1.93935 6.16594,5.64114 4.88542,8.26822c-1.28051,2.62707 -5.54394,3.18456 -9.52262,1.24524c-3.97868,-1.93936 -6.16594,-5.64117 -4.88543,-8.26824c1.28051,-2.62708 5.54392,-3.18459 9.5226,-1.24524z" fill="#485e84" stroke="#000000" stroke-width="1.5"/><path d="M245.97999,196.11885l3.94576,0.13164c0,0 -1.45511,1.36079 -2.23568,1.65707c-1.64543,0.59684 -3.30922,0.21683 -3.30922,0.21683z" fill="#6987bb" stroke="none" stroke-width="0"/><path d="M242.44688,195.31587l1.58212,0.4299c0,0 -0.34874,0.97099 -0.52764,1.28487c-0.20946,0.36753 -0.7831,0.91883 -0.7831,0.91883l-1.76202,-0.80071z" fill="#6987bb" stroke="none" stroke-width="0"/></g><g><path d="M242.38908,194.21793c-5.48865,-2.67539 -6.95705,-7.38927 -4.28168,-12.87796c2.67535,-5.48864 9.57486,-7.63217 15.06356,-4.95681c5.48868,2.67537 7.48097,8.45687 4.8056,13.94556c-2.67535,5.48865 -10.09876,6.5646 -15.58746,3.88923z" fill="#2c394f" stroke="#000000" stroke-width="1.5" stroke-linecap="butt"/><path d="M254.65868,178.05689c0,0 6.05833,5.71228 3.71759,10.51445c-1.32735,2.72317 -4.02887,4.89942 -6.69015,6.15894c-1.89602,0.89735 -4.20945,1.06709 -6.14956,0.12142c-3.98788,-1.94386 -4.54045,-4.41097 -2.1997,-9.21313c1.16895,-2.39816 4.00872,-4.65921 6.67733,-5.79588c2.67507,-1.13947 4.6445,-1.78578 4.6445,-1.78578z" fill="#485e84" stroke="none" stroke-width="0" stroke-linecap="butt"/><path d="M257.64113,190.23966c0,0 -4.54489,2.44518 -11.0037,-0.42303c-6.51174,-2.8917 -7.79099,-7.65884 -7.79099,-7.65884" fill="none" stroke="#000000" stroke-width="0.8" stroke-linecap="round"/><path d="M254.37091,194.04244c0,0 -4.74646,0.28882 -9.06499,-1.06486c-6.22354,-1.95081 -7.56634,-4.95059 -7.56634,-4.95059" fill="none" stroke="#000000" stroke-width="0.75" stroke-linecap="round"/><path d="M258.84144,185.56283c0,0 -4.44274,1.79693 -11.06957,-0.70992c-6.37383,-2.41115 -7.29644,-5.20665 -7.29644,-5.20665" fill="none" stroke="#000000" stroke-width="0.8" stroke-linecap="round"/><path d="M241.14102,178.41916c0,0 4.81865,-0.30726 8.29134,0.38321c4.57405,0.90943 8.74728,2.99741 8.74728,2.99741" fill="none" stroke="#000000" stroke-width="0.8" stroke-linecap="round"/><path d="M240.63209,192.47263c0,0 -0.73409,-4.12851 1.85141,-10.02611c2.41274,-5.50349 6.25238,-6.59918 6.25238,-6.59918" fill="none" stroke="#000000" stroke-width="0.8" stroke-linecap="round"/><path d="M250.88557,176.55786c0,0 -1.51794,2.65256 -2.71022,5.77107c-1.04849,2.74245 -1.74031,5.88105 -2.37614,7.39754c-0.7552,1.8012 -2.38165,4.64357 -2.38165,4.64357" fill="none" stroke="#000000" stroke-width="0.8" stroke-linecap="round"/><path d="M253.6321,177.28951c0,0 0.76858,5.63972 -0.96168,9.45873c-2.7157,5.9941 -6.69229,8.73498 -6.69229,8.73498" fill="none" stroke="#000000" stroke-width="0.8" stroke-linecap="round"/><path d="M256.58106,179.26662c0,0 0.74946,4.08932 -0.45044,8.12074c-1.72789,5.80538 -4.51233,8.01175 -4.51233,8.01175" fill="none" stroke="#000000" stroke-width="0.8" stroke-linecap="round"/><path d="M256.86296,188.37618c-0.39133,-0.19074 -0.5302,-0.71146 -0.31008,-1.16304c0.22009,-0.45159 0.71578,-0.66299 1.10714,-0.47223c0.39136,0.19077 0.5302,0.71147 0.31009,1.16304c-0.2201,0.4516 -0.7158,0.66301 -1.10716,0.47225z" fill="#6987bb" stroke="none" stroke-width="0" stroke-linecap="butt"/><path d="M257.56043,184.93844c-0.2258,-0.11006 -0.31959,-0.38232 -0.20955,-0.60809c0.11008,-0.2258 0.38232,-0.31959 0.6081,-0.20955c0.22581,0.11006 0.31961,0.38232 0.20957,0.60809c-0.11005,0.2258 -0.38232,0.31959 -0.6081,0.20955z" fill="#6987bb" stroke="none" stroke-width="0" stroke-linecap="butt"/></g></g><g><path d="M213.01871,163.34523c3.05258,-1.01143 16.25348,8.74353 16.60089,11.02068c0.3776,2.47492 -10.25083,12.91164 -10.25083,12.91164l-3.13502,-1.66084l20.94009,10.60888c0,0 7.41674,3.29926 6.17264,5.19564c0,0 -1.3202,11.06026 -14.46308,24.60883c-4.9283,-1.46443 -14.41156,-8.7936 -14.41156,-8.7936c0,0 -21.81068,-15.29851 -21.61865,-20.01083c0.19203,-4.7123 17.30098,-32.9313 20.16553,-33.88041z" fill="#68330c" stroke="none" stroke-width="3" stroke-linecap="round"/><path d="M237.48492,196.21161c0,0 6.86879,4.15756 5.61861,6.00556c0,0 -1.45284,10.86108 -14.5698,24.00497c-2.60124,-0.81324 -6.47971,-3.32001 -9.5036,-5.45903c0.27702,-0.41438 0.51997,-0.79571 0.7178,-1.11113c4.38527,-6.99115 9.708,-17.12298 14.74382,-24.54816c0.04991,-0.07358 2.99317,1.10779 2.99317,1.10779z" fill="#ffddb7" stroke="#000000" stroke-width="2" stroke-linecap="butt"/><path d="M235.34521,196.04839l-15.76533,24.91249l-2.84997,-2.0087l15.36917,-24.78282z" data-paper-data="{&quot;index&quot;:null}" fill="#ffffff" stroke="#000000" stroke-width="2" stroke-linecap="round"/><path d="M213.09854,163.56701c3.05258,-1.01143 16.25348,8.74353 16.60089,11.02068c0.3776,2.47492 -10.25084,12.91164 -10.25084,12.91164l-3.13502,-1.66084l20.94009,10.60888c0,0 7.41674,3.29926 6.17264,5.19563c0,0 -1.3202,11.06026 -14.46308,24.60883c-4.9283,-1.46443 -14.41156,-8.7936 -14.41156,-8.7936c0,0 -21.81068,-15.29851 -21.61865,-20.01082c0.19203,-4.7123 17.30098,-32.9313 20.16553,-33.88041z" data-paper-data="{&quot;origPos&quot;:null}" fill="none" stroke="#000000" stroke-width="2.5" stroke-linecap="round"/></g></g><path d="M226.07465,155.70688c0.67755,0.37513 0.28301,1.00066 0.28301,1.00066l-0.65529,1.02801c-0.99083,2.66314 3.14409,2.65736 5.06604,2.40479c0,0 0.77502,-0.10108 0.89368,0.62126c0.11866,0.72234 -0.65634,0.82341 -0.65634,0.82341c-3.50843,0.45435 -7.87517,-0.36759 -6.74499,-4.44067l0.74183,-1.1871c0,0 0.39453,-0.62552 1.07208,-0.25039z" fill="#000000" stroke="none" stroke-width="0.5" stroke-linecap="butt"/><path d="M153.5,284v-208h173v208z" fill="none" stroke="none" stroke-width="0" stroke-linecap="butt"/></g></g></svg>