<svg version="1.1" xmlns="http://www.w3.org/2000/svg" xmlns:xlink="http://www.w3.org/1999/xlink" width="1302.28932" height="418.56344" viewBox="0,0,1302.28932,418.56344"><defs><linearGradient x1="233.24327" y1="273.05182" x2="233.24327" y2="-16.73797" gradientUnits="userSpaceOnUse" id="color-1"><stop offset="0" stop-color="#cee0ff"/><stop offset="1" stop-color="#80b7ff"/></linearGradient><linearGradient x1="154.7031" y1="67.11656" x2="154.7031" y2="213.73817" gradientUnits="userSpaceOnUse" id="color-2"><stop offset="0" stop-color="#3d9039"/><stop offset="1" stop-color="#265221"/></linearGradient></defs><g transform="translate(489.04228,16.73797)"><g data-paper-data="{&quot;isPaintingLayer&quot;:true}" fill-rule="nonzero" stroke-linejoin="miter" stroke-miterlimit="10" stroke-dasharray="" stroke-dashoffset="0" style="mix-blend-mode: normal"><path d="M493.75378,-16.73797v289.78979h-521.02102v-289.78979z" data-paper-data="{&quot;index&quot;:null}" fill="url(#color-1)" stroke="none" stroke-width="0" stroke-linecap="butt"/><path d="M496.43579,255.37073l-692.88707,13.94817l5.52745,-186.05106c0,0 15.69946,-6.64933 35.04939,-6.73983c24.31062,-0.11372 41.46838,5.70435 41.46838,5.70435c0,0 24.76025,-10.92191 42.79808,-11.39027c39.87873,-1.03548 55.7672,11.39027 55.7672,11.39027c0,0 29.93821,-10.05272 60.94994,-9.70627c44.12227,0.49292 67.4443,8.67079 67.4443,8.67079c0,0 25.36186,-11.46534 53.14097,-10.81943c29.91998,0.69569 40.23667,7.71299 40.23667,7.71299c0,0 26.60748,-9.91187 71.28879,-8.50631c49.32489,1.55163 73.96531,10.57726 73.96531,10.57726c0,0 14.50912,-9.29606 40.20426,-12.42575c21.888,-2.66596 53.17338,4.14192 53.17338,4.14192c0,0 25.76598,-2.12062 35.41796,-0.68688c8.87113,1.31774 20.34924,8.97072 20.34924,8.97072z" fill="url(#color-2)" stroke="#000000" stroke-width="1" stroke-linecap="round"/><path d="M-114.35435,401.07546l-1.5015,-133.63363l677.17718,-12.01201v145.64565z" fill="#8df99a" stroke="#000000" stroke-width="1.5" stroke-linecap="butt"/><path d="M121.52253,393.07396l4.5045,-98.003l182.93994,-5l163.63964,89.48949z" fill="#f5f5f5" stroke="#000000" stroke-width="1.5" stroke-linecap="butt"/><g stroke="#000000" stroke-width="1.5" stroke-linecap="butt"><g fill="#6a6348"><path d="M24.55299,80.77628l373.87936,5l-29.43299,9.21728l-383.92946,6.31935l-21.15319,-3.86996z"/><path d="M20.55299,82.77628l171.87936,-55l206.31769,58.1z"/><path d="M-36.08331,97.44295l228.51563,-69.66666l-171.87936,55z"/></g><path d="M-15.02095,283.22281l-1,-181.76935l43.90979,-14.3428v214.39085z" fill="#f5e2a6"/><path d="M27.88885,301.50151v-214.39085l344.45357,3.84281v203.26934z" fill="#ffecad"/><g><path d="M171.70651,298.40835v-34.97799h20.52174v36.76258z" fill="#e6e6e6"/><path d="M192.22823,291.26999l-8.61666,-3.74186l-0.09027,-8.84795l-6.22427,-3.22059l-0.18771,-8.79196l-5.75065,-2.52343l68.17391,-1.78459l13.11202,3.09815l-0.03579,8.71894l6.27783,3.12403l0.1552,8.67164l8.31682,3.15611z" fill="#ffffff"/><g fill="#f5f5f5"><path d="M177.27171,275.56559v-8.92296l75.47826,-1.42767v8.92296z"/><path d="M183.53258,287.34389v-8.92296l75.47826,-1.42767v8.92296z"/><path d="M191.88041,299.47911v-8.92296l75.47826,-1.42767v8.92296z"/></g></g><path d="M178.00005,262.52628v-86.5h53.5v86.5z" fill="#836346"/><path d="M54.50004,225.75v-76.5l96.5,0.66667v75.16667z" fill="#f5f5f5"/><path d="M60.50002,220.20078v-65.40155l84.5,0.66667v64.06822z" fill="#89c6c9"/><path d="M257.01148,223.75907v-72.51813l91.47712,0.5v71.26813z" fill="#f5f5f5"/><path d="M262.69917,218.49869v-61.99736l80.10173,0.5v60.74736z" fill="#89c6c9"/></g><g stroke-linecap="butt"><g fill="#6a6348" stroke="#000000" stroke-width="1.5"><path d="M469.63629,89.38007l337.73068,4.51657l-26.58725,8.3261l-346.80908,5.70836l-19.10799,-3.49579z"/><path d="M466.02303,91.1867l155.26113,-49.6823l186.36978,52.48258z"/><path d="M414.86263,104.43531l206.4215,-62.93091l-155.26113,49.6823z"/></g><path d="M433.88857,272.25297l-0.90331,-164.19491l39.66435,-12.95606v193.66238z" fill="#d1dcea" stroke="#000000" stroke-width="1.5"/><path d="M472.64962,288.76439v-193.66238l311.14993,3.47127v183.61616z" fill="#e3efff" stroke="#000000" stroke-width="1.5"/><g fill="none" stroke="none" stroke-width="1" font-family="sans-serif" font-weight="normal" font-size="12" text-anchor="start"><g/></g></g><g stroke="#000000" stroke-width="1" stroke-linecap="round"><path d="M433.73284,243.55476c0,0 -8.85794,0.30297 -13.31053,-0.23531c-4.31745,-0.52195 -13.01208,-2.9469 -13.01208,-2.9469c0,0 -5.24731,2.40868 -8.04817,2.91957c-3.06819,0.55965 -9.63221,0.3054 -9.63221,0.3054c0,0 -7.15708,-3.11484 -10.16842,-5.24078c-2.66502,-1.88144 -6.98793,-6.87116 -6.98793,-6.87116c0,0 -0.26681,-4.18489 0.30082,-6.31989c0.58122,-2.18614 0.21031,-8.11535 0.21031,-8.11535c0,0 -4.94072,-3.84461 -7.69405,-7.57121c-2.75968,-3.73517 -4.44046,-9.67554 -4.44046,-9.67554c0,0 2.11532,-5.68979 3.65467,-7.09116c1.75549,-1.59813 4.84707,-5.65563 4.84707,-5.65563c0,0 2.29914,-3.98443 4.364,-5.62366c2.26815,-1.80063 8.69244,-4.74145 8.69244,-4.74145c0,0 8.97454,-4.77889 13.35019,-5.69735c4.42137,-0.92806 13.04227,0.15748 13.04227,0.15748c0,0 7.13245,-2.4204 10.89879,-2.53664c4.1739,-0.12883 13.04778,1.79757 13.04778,1.79757c0,0 7.56842,-0.36151 10.8524,1.00048c3.57813,1.48399 9.80972,7.56888 9.80972,7.56888c0,0 0.96361,4.51913 0.5801,6.804c-0.41052,2.44592 -2.96771,7.42127 -2.96771,7.42127c0,0 5.74174,4.76348 7.16929,7.78554c1.68573,3.56868 2.29997,12.26055 2.29997,12.26055c0,0 3.08261,5.52298 2.71182,8.64014c-0.39274,3.30178 -5.00622,10.64859 -5.00622,10.64859c0,0 -7.02055,5.9969 -11.3439,7.93516c-3.79576,1.70172 -13.21994,3.07739 -13.21994,3.07739z" fill="#427340"/><path d="M420.80164,232.31534l5.13866,69.00493h-22.02284l2.93638,-69.73902z" fill="#6b4d32"/><path d="M437.0138,231.10831c0,0 -2.45271,3.3229 -4.62956,4.23413c-2.8831,1.20688 -11.15348,2.37272 -11.15348,2.37272c0,0 -5.81416,0.50416 -8.35547,-0.01564c-2.81417,-0.57562 -7.79462,-3.28776 -7.79462,-3.28776c0,0 -1.71769,1.59292 -2.64276,2.05546c-1.02271,0.51134 -3.23002,0.88092 -3.23002,0.88092c0,0 -2.93833,-1.04714 -4.18547,-1.73308c-1.19784,-0.65881 -3.52253,-5.60787 -3.52253,-5.60787" fill="#427340"/></g><path d="M-71.38197,313.15482c-2.23607,1.11803 -3.3541,-1.11803 -3.3541,-1.11803l0.44983,0.0257c-2.73299,-1.66149 -4.80851,-3.66971 -7.2755,-5.69156c-0.64681,-0.5301 -1.36582,-0.99019 -1.92624,-1.60932c0.29304,1.83361 0.16821,2.32966 -3.22145,3.52886c-4.33797,1.53469 -4.75719,-1.73985 -8.04515,-2.48542c-0.20215,-0.04584 0.06685,0.41447 0.04295,0.62037c-0.09887,0.8518 -0.25899,1.69554 -0.40975,2.5397c-0.29301,1.64071 -0.6143,3.27624 -0.92144,4.91436c0,0 -0.46072,2.45718 -2.9179,1.99646c-2.45718,-0.46072 -1.99646,-2.9179 -1.99646,-2.9179c0.55451,-2.95738 0.6525,-10.75198 4.71176,-11.92556c4.2677,-1.23385 4.82815,3.28575 7.95485,2.51458c1.48006,-0.36504 1.22094,-3.38384 1.90382,-3.70842c1.49103,-0.7087 3.37526,-0.20415 4.9427,0.31408c3.55701,1.17603 6.46994,5.69779 9.73029,7.62232l1.44983,2.0257c0,0 1.11803,2.23607 -1.11803,3.3541z" fill="#6ad176" stroke="none" stroke-width="0.5" stroke-linecap="butt"/><path d="M-38.5,346.91875c-2.5,0 -2.5,-2.5 -2.5,-2.5v-2c0.01161,-4.5935 -1.12135,-7.77102 -2.34518,-12.13391c-0.24364,-0.86857 0.04654,-1.88048 -0.3694,-2.68096c-0.14972,-0.28814 -0.35131,0.58999 -0.64375,0.73112c-0.93122,0.4494 -6.70893,2.12557 -7.10521,2.0404c-2.19572,-0.4719 -3.15175,-3.86753 -5.39086,-4.04145c-0.36375,-0.02825 0.02491,0.76226 -0.1456,1.0848c-0.73971,1.3992 -1.90231,2.53814 -2.70525,3.90203c-2.52552,4.28993 -5.21845,8.42309 -7.60001,12.7951c0,0 -1.19713,2.19474 -3.39187,0.99761c-2.19474,-1.19713 -0.99761,-3.39187 -0.99761,-3.39187c2.80441,-5.13491 5.80919,-10.40899 9.13928,-15.22593c0.6832,-0.98823 3.60365,-4.88231 4.40985,-4.99214c1.89459,-0.2581 3.75565,0.90118 5.45193,1.78365c0.90585,0.47125 1.18548,1.86125 2.15721,2.1749c0.62529,0.20183 1.13591,-0.67085 1.74589,-0.91506c1.35393,-0.54204 6.22312,-2.24008 7.50515,-1.31342c1.60307,1.15872 1.84853,3.50222 2.6306,5.31904c1.98359,4.60805 2.64366,8.90669 2.65482,13.86609v2c0,0 0,2.5 -2.5,2.5z" fill="#6ad176" stroke="none" stroke-width="0.5" stroke-linecap="butt"/><path d="M54.5,322.91875c-2.5,0 -2.5,-2.5 -2.5,-2.5l0.5,0.5c-1.78539,-2.394 -3.67636,-4.61318 -5.49276,-6.99039c-0.67075,-0.87784 -1.80144,-1.70553 -2.49983,-2.616c-0.00122,0.20252 -0.00607,0.40511 -0.00741,0.60639c-0.01971,2.95004 0.48885,5.73245 -3.10774,7.33535c-3.00489,1.3392 -7.53691,-2.03588 -10.13768,-2.94907c-0.43085,-0.15128 -3.50128,-0.84838 -4.16748,-0.01006c-0.27844,0.35038 0.41731,0.83167 0.40807,1.27912c-0.03148,1.5245 -0.73935,5.51483 -1.02918,7.25565c0,0 -0.411,2.46598 -2.87698,2.05499c-2.46598,-0.411 -2.05499,-2.87698 -2.05499,-2.87698c0.37379,-2.24032 0.70468,-4.48871 0.97082,-6.74435c0.1462,-1.23914 -0.42472,-2.79175 0.40807,-3.72088c5.84119,-6.517 10.93465,0.30712 16.69485,1.04087c0.88182,0.11233 -0.10153,-1.77573 -0.10774,-2.66465c-0.01755,-2.51144 -0.29262,-6.69014 3.55779,-7.46058c1.75994,-0.35215 3.28711,1.53091 4.67977,2.66312c3.22496,2.62183 6.22087,7.42524 8.76244,10.79746l0.5,2.5c0,0 0,2.5 -2.5,2.5z" fill="#6ad176" stroke="none" stroke-width="0.5" stroke-linecap="butt"/><path d="M58.5,350.41875c-2.5,0 -2.5,-2.5 -2.5,-2.5v-1c0,-2.831 0.28069,-5.40668 0.50852,-8.2062c0.08426,-1.03544 0.02781,-2.07815 -0.00223,-3.11658c-0.02587,-0.89427 0.54325,-3.26386 -0.13508,-2.68054c-2.87943,2.47609 -5.20543,6.29412 -9.59572,6.49322c-1.14692,0.05201 -2.27564,-1.87744 -3.21954,-1.22385c-4.51773,3.12825 -6.4141,7.5123 -9.55595,11.73395c0,0 -1.5,2 -3.5,0.5c-2,-1.5 -0.5,-3.5 -0.5,-3.5c3.52846,-4.66136 7.92068,-14.96287 15.55302,-13.93807c0.73064,0.0981 0.93792,1.37524 1.67149,1.44817c1.31001,0.13024 2.15194,-1.52593 3.13748,-2.39874c3.10226,-2.7474 6.67558,-6.82191 10.28919,-1.3851c0.86225,1.29728 0.68892,3.04641 0.84252,4.59651c0.38007,3.83555 -0.49371,7.80406 -0.49371,11.67722v1c0,0 0,2.5 -2.5,2.5z" fill="#6ad176" stroke="none" stroke-width="0.5" stroke-linecap="butt"/><path d="M103.11803,317.65482c-2.23607,1.11803 -3.3541,-1.11803 -3.3541,-1.11803l-0.2161,-0.5563c-1.89878,-2.37394 -3.63299,-4.63624 -5.17978,-7.25607c-0.18953,-0.321 -0.46825,-0.73553 -0.75678,-1.1794c-0.19431,0.67375 -0.49261,1.2906 -0.8435,1.6415c-2.54267,2.54267 -6.0333,-0.34662 -8.18066,1.60846c-0.25392,0.23118 0.33671,0.61034 0.40661,0.94655c0.22786,1.096 0.32078,2.21578 0.48116,3.32367c0,0 0.35355,2.47487 -2.12132,2.82843c-2.47487,0.35355 -2.82843,-2.12132 -2.82843,-2.12132c-0.19808,-1.40352 -1.20253,-6.4141 -0.11223,-7.72978c1.21197,-1.46251 3.28235,-1.97248 5.08444,-2.57272c0.87178,-0.29037 1.83853,-0.08341 2.75632,-0.03889c0.33395,0.0162 0.74216,0.45648 0.97858,0.22007c0.23641,-0.23641 -0.27397,-0.64861 -0.22007,-0.97858c0.23959,-1.46662 -0.25284,-3.67948 1.08626,-4.32382c1.6894,-0.8129 3.95157,0.10275 5.50513,1.1522c1.52407,1.02953 2.04067,3.06081 3.02839,4.6123c1.52794,2.40003 3.03616,4.5143 4.82022,6.74393l0.7839,1.4437c0,0 1.11803,2.23607 -1.11803,3.3541z" fill="#6ad176" stroke="none" stroke-width="0.5" stroke-linecap="butt"/><path d="M396.11803,322.15482c-2.23607,1.11803 -3.3541,-1.11803 -3.3541,-1.11803l-0.76393,-2.11803c0.00803,-3.41919 0.48638,-6.33284 1.56731,-9.57622c0.6593,-4.65104 2.20538,-9.14944 1.05646,-13.83668c-0.11719,-0.4781 -0.32598,0.93696 -0.58292,1.35683c-0.6223,1.01686 -1.29216,2.00483 -1.98335,2.97618c-1.27523,1.79209 -4.58641,7.99457 -8.6023,5.0455c-1.46593,-1.07651 -0.24783,-3.63031 -0.45504,-5.43721c-0.10504,-0.91597 -0.38082,-1.80728 -0.48085,-2.72382c-0.15345,-1.40604 -0.2073,-2.82141 -0.27849,-4.23401c-0.01817,-0.36064 0.14661,-1.41772 0.01053,-1.08324c-2.64309,6.49647 -6.04129,13.05558 -9.58075,19.25302c0,0 -1.24035,2.17061 -3.41096,0.93026c-2.17061,-1.24035 -0.93026,-3.41096 -0.93026,-3.41096c3.13897,-5.49009 5.22169,-11.82545 9.08385,-16.8533c1.32757,-1.72826 2.16792,-4.66712 4.3354,-4.89368c5.84238,-0.6107 5.36387,6.98595 5.72708,9.63312c0.04538,0.33074 0.1623,0.75011 0.27676,1.20519c0.06524,-0.0894 0.12879,-0.17966 0.19002,-0.27109c1.86103,-2.77908 4.63207,-8.98787 9.43372,-5.667c1.5622,1.08044 2.1073,3.24291 2.57272,5.08444c1.12056,4.43376 -0.87262,9.69533 -1.51626,14.07889c-0.97182,2.91495 -1.441,5.35558 -1.43269,8.42378l0.23607,-0.11803c0,0 1.11803,2.23607 -1.11803,3.3541z" fill="#6ad176" stroke="none" stroke-width="0.5" stroke-linecap="butt"/><path d="M458.26777,298.18652c-1.76777,1.76777 -3.53553,0 -3.53553,0l-1.40284,-1.52742c-1.89929,-3.33902 -3.71703,-5.26097 -6.21803,-8.10234c-0.75648,-0.85943 -1.00832,-2.80744 -2.14632,-2.68164c-0.37806,0.04179 -0.06572,0.80347 -0.30419,1.09979c-1.34478,1.67106 -2.31148,4.13835 -4.3769,4.71707c-0.43359,0.12149 -0.82534,0.00344 -1.19488,-0.24173c0.50599,1.51803 1.07702,3.01515 1.70878,4.4837c0,0 0.9848,2.29786 -1.31306,3.28266c-2.29786,0.9848 -3.28266,-1.31306 -3.28266,-1.31306c-0.9936,-2.32652 -1.86126,-4.71336 -2.55885,-7.14512l-0.94342,-2.35856c-0.12865,-0.30123 -0.19986,-0.63286 -0.19986,-0.98112c0,-1.38071 1.11929,-2.5 2.5,-2.5c0.34826,0 0.67989,0.07121 0.98112,0.19986l3.55741,1.42296c0.62221,-0.65466 0.66876,-2.05061 1.30482,-2.7957c0.91652,-1.07363 1.78571,-2.65641 3.19161,-2.7835c4.26233,-0.38528 4.84699,2.08038 6.85368,4.31836c2.69432,3.00487 4.7446,5.34701 6.78197,8.89766l0.59716,0.47258c0,0 1.76777,1.76777 0,3.53553z" fill="#6ad176" stroke="none" stroke-width="0.5" stroke-linecap="butt"/><path d="M445,323.91875c-2.5,0 -2.5,-2.5 -2.5,-2.5l0.17881,-1.92848c0.6999,-1.71279 1.11584,-3.54987 1.3411,-5.38638c0.17655,-1.43934 0.38817,-2.87643 0.48392,-4.3234c0.03073,-0.46444 -0.02673,-0.93931 -0.07157,-1.41119c-0.38414,0.15036 -0.77446,0.29478 -1.11658,0.50493c-2.52665,1.55203 -7.82134,5.8116 -10.86501,5.31363c-1.43237,-0.23435 -1.18997,-2.648 -1.81535,-3.95778c-0.73314,-1.53547 -1.24478,-3.25486 -1.28167,-4.96063c-0.02245,0.13641 -0.05877,0.25727 -0.11555,0.32119c-0.62594,0.70458 -1.62236,1.01154 -2.24431,1.71963c-2.17635,2.47776 -3.93632,5.30273 -6.12526,7.76938c0,0 -1.66091,1.86852 -3.52943,0.20761c-1.86852,-1.66091 -0.20761,-3.52943 -0.20761,-3.52943c2.90817,-3.26593 5.47463,-8.66766 9.63043,-10.51098c1.52012,-0.67426 3.45514,-1.91767 4.87623,-1.05401c1.65075,1.00323 1.42437,3.59231 2.20658,5.35854c0.4607,1.04027 1.32719,1.93476 1.51997,3.05602c0.01447,0.08418 -0.01871,0.18675 -0.07941,0.29513c2.33337,-2.31358 4.77822,-4.19666 7.87466,-5.59429c1.38854,-0.62674 2.84443,-2.35304 4.23232,-1.72485c1.53199,0.69342 1.69035,2.95695 2.09558,4.58901c1.10661,4.45691 -0.53114,11.01452 -2.16664,15.17482l0.17881,0.07152c0,0 0,2.5 -2.5,2.5z" fill="#6ad176" stroke="none" stroke-width="0.5" stroke-linecap="butt"/><path d="M469.73607,341.03678c-1.11803,2.23607 -3.3541,1.11803 -3.3541,1.11803l-1.64973,-0.9683c-2.26315,-2.32414 -5.64257,-4.42683 -8.48353,-6.10345c-0.97205,-0.57366 -2.5567,-2.20254 -3.14997,-1.24233c-0.38314,0.62013 -0.12258,1.56075 -0.61445,2.09873c-2.04741,2.23935 -4.03172,3.18329 -6.60071,2.17441c0.44151,0.99475 0.95696,1.94848 1.61642,2.80487c0,0 1.5,2 -0.5,3.5c-2,1.5 -3.5,-0.5 -3.5,-0.5c-1.60378,-2.18102 -2.60629,-4.76779 -3.54443,-7.30741l-1.263,-3.22871c-0.12405,-0.29662 -0.19258,-0.62225 -0.19258,-0.96388c0,-1.38071 1.11929,-2.5 2.5,-2.5c0.48518,0 0.93808,0.13821 1.32147,0.37741l4.25223,2.55134l-0.19259,0.32099c0.54716,0.13864 1.10216,0.24071 1.66833,0.2912c1.30381,0.11627 0.77468,-2.71913 1.85182,-3.46292c1.23042,-0.84964 2.86783,-1.19212 4.35765,-1.06457c3.7356,0.31981 5.66953,3.1314 8.55542,4.85993c1.91041,1.14425 3.86314,2.30004 5.45344,3.85886l0.35027,0.0317c0,0 2.23607,1.11803 1.11803,3.3541z" fill="#6ad176" stroke="none" stroke-width="0.5" stroke-linecap="butt"/><g stroke="#000000" stroke-width="1.5" stroke-linecap="butt"><g fill="#6a6348"><path d="M-425.0416,84.27478l373.87936,5l-29.43299,9.21728l-383.92946,6.31935l-21.15319,-3.86996z"/><path d="M-429.0416,86.27478l171.87936,-55l206.31769,58.1z"/><path d="M-485.6779,100.94145l228.51563,-69.66666l-171.87936,55z"/></g><path d="M-464.61554,286.72131l-1,-181.76935l43.90979,-14.3428v214.39085z" fill="#f5e2a6"/><path d="M-421.70574,305.00001v-214.39085l344.45357,3.84281v203.26934z" fill="#ffadad"/><g><path d="M-277.88808,301.90685v-34.97799h20.52174v36.76258z" fill="#e6e6e6"/><path d="M-257.36636,294.76849l-8.61666,-3.74186l-0.09027,-8.84795l-6.22427,-3.22059l-0.18771,-8.79196l-5.75065,-2.52343l68.17391,-1.78459l13.11202,3.09815l-0.03579,8.71894l6.27783,3.12403l0.1552,8.67164l8.31682,3.15611z" fill="#ffffff"/><g fill="#f5f5f5"><path d="M-272.32288,279.06409v-8.92296l75.47826,-1.42767v8.92296z"/><path d="M-266.06201,290.84239v-8.92296l75.47826,-1.42767v8.92296z"/><path d="M-257.71418,302.97761v-8.92296l75.47826,-1.42767v8.92296z"/></g></g><path d="M-271.59454,266.02478v-86.5h53.5v86.5z" fill="#836346"/><path d="M-395.09455,229.2485v-76.5l96.5,0.66667v75.16667z" fill="#f5f5f5"/><path d="M-389.09457,223.69928v-65.40155l84.5,0.66667v64.06822z" fill="#89c6c9"/><path d="M-192.58311,227.25757v-72.51813l91.47712,0.5v71.26813z" fill="#f5f5f5"/><path d="M-186.89542,221.99719v-61.99736l80.10173,0.5v60.74736z" fill="#853400"/></g></g></g></svg>