<svg version="1.1" xmlns="http://www.w3.org/2000/svg" xmlns:xlink="http://www.w3.org/1999/xlink" width="306.30631" height="274.77477" viewBox="0,0,306.30631,274.77477"><g transform="translate(-86.84686,-42.61262)"><g data-paper-data="{&quot;isPaintingLayer&quot;:true}" fill-rule="nonzero" stroke-linecap="butt" stroke-linejoin="miter" stroke-miterlimit="10" stroke-dasharray="" stroke-dashoffset="0" style="mix-blend-mode: normal"><path d="M86.84686,317.38739v-274.77477h306.30631v274.77477z" data-paper-data="{&quot;index&quot;:null}" fill="none" stroke="none" stroke-width="0"/><text transform="translate(271.55609,110.72264) rotate(-180) scale(0.1602,-0.1602)" font-size="40" xml:space="preserve" data-paper-data="{&quot;index&quot;:null}" fill="#000000" fill-rule="nonzero" stroke="none" stroke-width="1" stroke-linecap="butt" stroke-linejoin="miter" stroke-miterlimit="10" stroke-dasharray="" stroke-dashoffset="0" font-family="Sans Serif" font-weight="normal" text-anchor="start" style="mix-blend-mode: normal"><tspan x="0" dy="0">AwezomeXD</tspan><tspan x="0" dy="46.150000000000006px"> </tspan><tspan x="0" dy="46.150000000000006px">MeIzAwezomeDede</tspan></text><g data-paper-data="{&quot;index&quot;:null}"><g><g><g><path d="M203.82522,123.75172c0,0 9.71902,-14.04758 36.33523,-15.00763c12.56099,-0.45308 36.23804,-2.29348 36.23804,-2.29348c0,0 5.12392,3.29132 7.10149,3.29061c2.4692,-0.00088 5.10955,-3.32896 5.10955,-3.32896c0,0 0.37551,4.14769 -0.00758,7.48573c-1.443,12.57327 -11.34671,11.99831 -11.34671,11.99831c0,0 3.54425,5.94817 3.43434,10.24669c-0.11555,4.51852 -3.92213,6.7292 -3.92213,6.7292c0,0 2.25993,3.65446 2.19006,7.24967c-0.12485,6.42368 -2.90099,14.90971 -2.90099,14.90971c0,0 -1.04856,23.17112 -4.4364,23.46167c-2.93962,0.25211 -10.32308,-4.59185 -10.32308,-4.59185c0,0 -0.26265,10.20665 -2.09326,10.29685c-2.28343,0.11249 -4.68846,-3.9662 -7.25702,-4.54047c-2.36414,-0.52855 -4.38697,-7.05673 -4.38697,-7.05673c0,0 -2.40041,6.66735 -5.28877,7.34041c-2.80289,0.65316 -4.75513,5.6949 -5.92647,5.74607c-4.26989,0.18652 -8.29555,-13.06171 -8.29555,-13.06171c0,0 -12.65694,7.68611 -15.30465,4.99828c-3.12494,-3.1723 -3.14208,-19.09132 -3.14208,-19.09132c0,0 -5.21593,-4.94816 -5.46626,-7.79793c-0.56219,-6.40006 2.92726,-11.22262 2.92726,-11.22262c0,0 -3.22883,0.13407 -4.8825,1.19525c-1.75771,1.12795 -5.37071,5.38433 -5.37071,5.38433c0,0 -0.88424,-5.66956 -0.26629,-8.32337c0.64985,-2.79079 4.07451,-8.03111 4.07451,-8.03111c0,0 -4.48121,-3.8732 -6.02634,-9.20272c-0.82811,-2.85636 0.43616,-8.79909 0.43616,-8.79909c0,0 3.97523,4.18715 5.70093,4.86529c1.33865,0.52605 3.09622,-2.84905 3.09622,-2.84905z" fill="#6d0f0a" stroke="#000000" stroke-width="2"/><path d="M201.68065,116.8737c0,0 -2.91522,-7.93179 -0.40724,-17.86902c1.35777,-5.37981 6.30686,-11.95368 9.34877,-16.51509c4.31087,-6.46422 12.97707,-9.1833 20.19051,-9.44349c9.48258,-0.34204 15.68464,9.33833 15.68464,9.33833c0,0 9.9217,-3.77422 17.1377,-1.8701c6.97124,1.83954 11.62321,9.94073 12.92031,11.95415c1.97606,3.06736 3.31194,16.97126 3.31194,16.97126c0,0 -27.9306,20.99719 -42.96006,21.5393c-16.05601,0.57914 -26.15827,-16.76418 -31.98959,-14.09289c-2.05183,0.93993 -3.23697,-0.01244 -3.23697,-0.01244z" fill="#6d0f0a" stroke="#000000" stroke-width="2"/><path d="M208.30479,87.15183c0,0 2.24859,-3.05498 3.41554,-4.37928c1.11332,-1.26343 3.43286,-3.39252 3.43286,-3.39252c0,0 8.03005,6.43162 12.35313,8.00203c4.53023,1.64566 12.26687,-0.06743 12.26687,-0.06743c0,0 -0.04811,2.32003 0.16527,3.2729c0.2256,1.00746 0.67909,2.63437 0.67909,2.63437c0,0 1.30127,-1.79899 1.66121,-2.57185c0.38877,-0.83474 1.05478,-2.59879 1.05478,-2.59879c0,0 1.56291,3.82882 2.2937,5.26488c0.59843,1.176 1.77385,2.72819 1.77385,2.72819c0,0 0.02361,-2.13364 -0.04661,-3.24382c-0.07435,-1.17541 -0.38782,-3.62413 -0.38782,-3.62413c0,0 9.34061,4.7274 15.1899,6.57659c0.11744,0.03712 4.73083,0.10897 5.07162,0.16201c7.32747,1.1403 5.16986,-8.26755 5.16986,-8.26755c0,0 2.69442,3.54363 3.70238,6.62787c1.02231,3.12816 2.38902,12.0112 2.38902,12.0112c0,0 -5.22352,-3.29356 -10.23489,-3.93579c-0.88924,-0.11396 -10.57255,-0.81482 -10.57255,-0.81482c0,0 -1.36897,-2.19122 -2.11537,-3.1116c-0.73139,-0.90188 -2.31891,-2.35631 -2.31891,-2.35631c0,0 -1.24791,1.83417 -1.86785,2.97036c-0.74479,1.36499 -2.29543,4.65981 -2.29543,4.65981c0,0 -0.83995,-1.89242 -1.46559,-2.9101c-0.69602,-1.13216 -2.5219,-3.5761 -2.5219,-3.5761c0,0 -1.32855,0.42738 -2.06182,0.8944c-1.01798,0.64834 -3.4772,2.63333 -3.4772,2.63333c0,0 -0.70189,-2.891 -1.15777,-4.18012c-0.39442,-1.11533 -1.41991,-3.10903 -1.41991,-3.10903c0,0 -1.66556,1.10121 -2.54782,1.8378c-1.10096,0.91919 -3.54831,3.25181 -3.54831,3.25181c0,0 -7.03915,-8.11764 -10.91931,-10.07467c-3.62954,-1.83063 -11.65999,-1.3136 -11.65999,-1.3136z" fill="#c42d06" stroke="none" stroke-width="0"/></g><path d="M222.71504,133.63095c0,0 -20.75301,-9.87559 -21.04884,-11.30922c-0.40156,-1.94605 1.73663,-3.07772 1.51608,-4.09291c-0.35138,-1.61737 -0.81803,-3.20973 -0.81803,-3.20973c0,0 64.27366,-5.93464 74.32437,-6.44556c2.5605,-0.13017 5.08191,2.41394 5.08191,2.41394l-12.50326,18.62947z" fill="#6d0f0a" stroke="none" stroke-width="NaN"/></g><path d="M245.43501,76.29029c0.10251,-0.28915 0.82239,-1.43476 1.06012,-1.6834c1.82168,-1.90524 6.79011,-1.92463 6.79011,-1.92463c0,0 -3.30195,4.37805 -4.38484,5.87534c-0.96521,1.33457 -1.22818,5.15693 -1.22818,5.15693c0,0 -4.1826,-1.9368 -2.23721,-7.42424z" fill="#6d0f0a" stroke="#000000" stroke-width="1.5"/><path d="M242.90701,72.53526c0,0 1.29485,1.11151 1.63495,2.86977c0.35406,0.88376 0.45212,3.76733 0.45212,3.76733l-1.81544,-1.19885z" fill="#000000" stroke="none" stroke-width="0"/></g><path d="M246.9072,82.19275l3.7697,0.20573c0,0 -3.12266,4.19545 -3.64934,4.33072c-0.73734,0.18938 -2.99598,-5.2819 -2.99598,-5.2819z" fill="#6d0f0a" stroke="none" stroke-width="0"/></g><g data-paper-data="{&quot;index&quot;:null}"><text transform="translate(294.68339,229.0029) rotate(-180) scale(0.27921,-0.27921)" font-size="40" xml:space="preserve" fill="#000000" fill-rule="nonzero" stroke="none" stroke-width="1" stroke-linecap="butt" stroke-linejoin="miter" stroke-miterlimit="10" stroke-dasharray="" stroke-dashoffset="0" font-family="Sans Serif" font-weight="normal" text-anchor="start" style="mix-blend-mode: normal"><tspan x="0" dy="0">AwezomeXD</tspan><tspan x="0" dy="46.150000000000006px"> </tspan><tspan x="0" dy="46.150000000000006px">MeIzAwezomeDede</tspan></text><g data-paper-data="{&quot;index&quot;:null}"><g><path d="M304.61434,280.7271c-0.97394,-0.3343 -2.81981,-1.05375 -2.81981,-1.05375l2.00112,-62.99775c0,0 3.12264,-3.42551 4.77674,-5.10754c1.78782,-1.81801 6.83093,-5.9246 6.83093,-5.9246c0,0 5.94054,0.17965 11.08569,1.75457c7.39586,2.26385 29.04162,10.52827 29.04162,10.52827c0,0 -0.29139,23.00613 -1.11993,33.98866c-0.74728,9.90532 -3.63272,29.00908 -3.63272,29.00908c0,0 -14.3168,1.48011 -21.61682,1.59314c-7.15813,0.11083 -21.76596,-0.92143 -21.76596,-0.92143c0,0 -1.89659,-0.56514 -2.78087,-0.86866z" fill="#434253" stroke="#000000" stroke-width="2.5"/><path d="M306.04174,281.58894c0,0 3.19421,-16.34268 5.26935,-30.13714c1.48339,-9.86081 2.04443,-18.33187 2.06476,-19.00203c0.15509,-5.11269 -0.3723,-9.50368 -0.00091,-14.70459c0.49814,-6.97594 1.18056,-11.43244 1.18056,-11.43244l2.10035,-1.22928c0,0 -1.17975,18.14658 -2.93073,35.27697c-0.73182,7.15966 -2.77258,22.22022 -3.75528,31.64788c-0.10799,1.03599 0.50491,2.39047 0.4064,3.33489c-0.55015,5.27458 -0.93311,6.24975 -0.93311,6.24975l-3.40139,-0.00403z" fill="#000000" stroke="none" stroke-width="0"/></g><g stroke="#000000" stroke-width="1.5"><path d="M345.29835,263.35314c0.94113,9.66742 -4.93088,16.17699 -12.88074,16.95092c-7.94986,0.77393 -14.77082,-5.25083 -14.91119,-14.96294c-0.15638,-10.82018 5.8426,-16.14324 12.54261,-16.73861c6.71115,-0.59636 14.44659,6.50489 15.24932,14.75063z" fill="#2c262f"/><path d="M323.67439,268.45714c-0.26544,-2.72671 1.31874,-5.06632 3.56101,-5.2846c2.24227,-0.21828 3.76096,1.25807 4.0264,3.98478c0.26545,2.72671 -1.3891,5.14677 -3.63137,5.36505c-2.24227,0.21828 -3.69059,-1.33852 -3.95603,-4.06523z" data-paper-data="{&quot;index&quot;:null}" fill="#1b171c"/></g><g stroke="#000000" stroke-width="1.5"><path d="M334.90075,214.22598c6.72176,-0.46163 14.18059,7.06601 14.65957,15.33688c0.56156,9.69688 -5.56103,15.97134 -13.53511,16.43313c-7.97408,0.46179 -14.55372,-5.82563 -14.31338,-15.53578c0.26776,-10.81801 6.4647,-15.77245 13.18893,-16.23424z" fill="#2c262f"/><path d="M327.75297,233.81558c-0.15839,-2.73501 1.51626,-5.01074 3.76536,-5.14099c2.2491,-0.13025 3.70876,1.40448 3.86715,4.1395c0.15839,2.73502 -1.58973,5.08838 -3.83883,5.21863c-2.2491,0.13025 -3.6353,-1.48212 -3.79369,-4.21714z" data-paper-data="{&quot;index&quot;:null}" fill="#1b171c"/></g></g><g><g><path d="M178.20552,279.80011c0,0 -1.84588,0.71945 -2.81982,1.05375c-0.88428,0.30352 -2.78086,0.86866 -2.78086,0.86866c0,0 -14.60784,1.03226 -21.76596,0.92143c-7.30001,-0.11302 -21.61681,-1.59314 -21.61681,-1.59314c0,0 -2.88544,-19.10377 -3.63272,-29.00909c-0.82854,-10.98252 -1.11993,-33.98866 -1.11993,-33.98866c0,0 21.64575,-8.26442 29.04162,-10.52827c5.14515,-1.57491 11.08569,-1.75457 11.08569,-1.75457c0,0 5.04312,4.1066 6.83094,5.9246c1.6541,1.68203 4.77674,5.10754 4.77674,5.10754l2.00112,62.99775z" fill="#434253" stroke="#000000" stroke-width="2.5"/><path d="M173.9583,281.71568l-3.40139,0.00403c0,0 -0.38295,-0.97517 -0.93311,-6.24976c-0.0985,-0.94441 0.51439,-2.2989 0.40641,-3.33488c-0.98271,-9.42766 -3.02346,-24.48823 -3.75529,-31.64789c-1.75097,-17.13039 -2.93073,-35.27697 -2.93073,-35.27697l2.10035,1.22928c0,0 0.68243,4.4565 1.18057,11.43244c0.37139,5.20091 -0.156,9.59191 -0.00092,14.70459c0.02033,0.67016 0.58138,9.14123 2.06477,19.00203c2.07514,13.79446 5.26935,30.13713 5.26935,30.13713z" fill="#000000" stroke="none" stroke-width="0"/></g><g stroke="#000000" stroke-width="1.5"><path d="M134.7017,263.47987c0.80273,-8.24574 8.53818,-15.34698 15.24933,-14.75062c6.70001,0.59537 12.69899,5.91843 12.54261,16.73861c-0.14037,9.71211 -6.96134,15.73687 -14.9112,14.96294c-7.94986,-0.77392 -13.82187,-7.2835 -12.88074,-16.95092z" fill="#2c262f"/><path d="M152.76465,263.29933c2.24227,0.21828 3.82645,2.55788 3.56101,5.28459c-0.26545,2.72671 -1.71376,4.28351 -3.95603,4.06523c-2.24227,-0.21829 -3.89681,-2.63834 -3.63137,-5.36505c0.26544,-2.72671 1.78413,-4.20306 4.0264,-3.98478z" data-paper-data="{&quot;index&quot;:null}" fill="#1b171c"/></g><g stroke="#000000" stroke-width="1.5"><path d="M130.43975,229.68961c0.47898,-8.27087 7.9378,-15.79851 14.65956,-15.33689c6.72423,0.46179 12.92117,5.41624 13.18893,16.23424c0.24034,9.71016 -6.33929,15.99758 -14.31338,15.53579c-7.97409,-0.46179 -14.09668,-6.73625 -13.53512,-16.43313z" fill="#2c262f"/><path d="M152.2471,233.94233c-0.15839,2.73501 -1.54458,4.34738 -3.79368,4.21713c-2.2491,-0.13025 -3.99721,-2.48361 -3.83882,-5.21863c0.15839,-2.73501 1.61804,-4.26975 3.86714,-4.1395c2.2491,0.13025 3.92375,2.40598 3.76536,5.141z" data-paper-data="{&quot;index&quot;:null}" fill="#1b171c"/></g></g><g stroke="#000000"><g fill="#434253"><path d="M302.9364,282.15582c0,0 -39.39406,0.31655 -59.64769,0.31655c-21.72904,0 -66.6118,-0.31655 -66.6118,-0.31655c0,0 -2.38216,-40.33861 -2.16309,-60.75635c0.20152,-18.78125 2.16309,-54.08575 2.16309,-54.08575c0,0 42.82931,-1.2662 64.39595,-1.2662c21.14461,0 59.33114,1.58275 59.33114,1.58275c0,0 4.66352,44.84767 4.63123,67.07726c-0.03994,25.54257 -2.09882,47.44828 -2.09882,47.44828z" stroke-width="2.5"/><path d="M182.6264,273.74783c1.29409,0 2.34316,0.94416 2.34316,2.10884c0,1.16468 -1.04906,2.10884 -2.34316,2.10884c-1.29409,0 -2.34316,-0.94416 -2.34316,-2.10884c0,-1.16468 1.04906,-2.10884 2.34316,-2.10884z" stroke-width="2"/><path d="M296.08665,273.11069c1.29409,0 2.34316,0.94416 2.34316,2.10884c0,1.16468 -1.04907,2.10884 -2.34316,2.10884c-1.29409,0 -2.34316,-0.94416 -2.34316,-2.10884c0,-1.16468 1.04907,-2.10884 2.34316,-2.10884z" stroke-width="2"/><path d="M291.83153,175.44762c-0.48529,-1.12251 0.08425,-2.44878 1.27209,-2.9623c1.18785,-0.51352 2.54417,-0.01985 3.02946,1.10266c0.48528,1.12251 -0.08426,2.44879 -1.2721,2.96231c-1.18785,0.51352 -2.54417,0.01984 -3.02946,-1.10267z" stroke-width="2"/><path d="M180.91759,172.05908c1.18784,-0.51352 2.54418,-0.01985 3.02946,1.10266c0.48528,1.12251 -0.08426,2.44879 -1.2721,2.96231c-1.18784,0.51352 -2.54417,0.01984 -3.02945,-1.10267c-0.48528,-1.12251 0.08425,-2.44878 1.27209,-2.9623z" stroke-width="2"/></g><g><path d="M187.36314,208.89734c-2.36044,-6.40232 -2.14847,-24.22034 1.17777,-27.70117c8.80798,-9.21732 26.01104,-9.48636 48.15555,-9.48636c20.7312,0 40.80646,1.21551 50.19223,9.11804c4.42593,3.72649 4.09175,24.72433 0.61728,30.38921c-5.21713,8.50616 -20.51325,11.67052 -51.0204,11.67052c-30.50715,0 -45.72795,-4.44989 -49.12243,-13.65691z" fill="#434253" stroke-width="2"/><path d="M191.46433,207.317c-2.1792,-5.67588 -1.98352,-21.47217 1.08734,-24.55804c8.13172,-8.17147 24.01396,-7.77733 44.45825,-7.77733c19.1395,0 37.67343,0.44494 46.33857,7.45081c4.08612,3.30367 3.77759,21.91897 0.56988,26.94108c-4.81657,7.54101 -18.93828,9.50278 -47.10314,9.50278c-28.16487,0 -42.21704,-3.39695 -45.3509,-11.55929z" fill="#2c262f" stroke-width="1.5"/><path d="M216.73027,204.30872c-0.84859,-2.4182 -0.77238,-9.14817 0.42343,-10.4629c3.16654,-3.48144 9.35117,-4.21571 17.31229,-4.21571c7.45303,0 14.67023,1.09175 18.04449,4.07659c1.59116,1.40752 1.47102,9.33853 0.22192,11.47819c-1.8756,3.21283 -7.37467,4.61891 -18.34223,4.61891c-10.96755,0 -16.43956,-1.85087 -17.65989,-5.32841z" fill="#1b171c" stroke-width="1.5"/></g><g><path d="M187.36314,264.28152c-2.36044,-6.40232 -2.14847,-24.22034 1.17777,-27.70116c8.80798,-9.21732 26.01104,-9.48637 48.15555,-9.48637c20.7312,0 40.80646,1.21551 50.19223,9.11804c4.42593,3.7265 4.09175,24.72433 0.61728,30.38921c-5.21713,8.50616 -20.51325,11.67052 -51.0204,11.67052c-30.50715,0 -45.72795,-4.4499 -49.12243,-13.65692z" fill="#434253" stroke-width="2"/><path d="M191.46433,262.70117c-2.1792,-5.67588 -1.98352,-21.47217 1.08734,-24.55804c8.13172,-8.17147 24.01396,-7.77734 44.45825,-7.77734c19.1395,0 37.67343,0.44494 46.33857,7.45081c4.08612,3.30367 3.77759,21.91898 0.56988,26.94109c-4.81657,7.54101 -18.93828,9.50278 -47.10314,9.50278c-28.16487,0 -42.21704,-3.39695 -45.3509,-11.55929z" fill="#2c262f" stroke-width="1.5"/><path d="M216.73027,259.69291c-0.84859,-2.41819 -0.77238,-9.14816 0.42343,-10.46289c3.16654,-3.48144 9.35117,-4.21571 17.31229,-4.21571c7.45303,0 14.67023,1.09175 18.04449,4.07659c1.59116,1.40752 1.47102,9.33852 0.22192,11.47818c-1.8756,3.21283 -7.37467,4.61891 -18.34223,4.61891c-10.96755,0 -16.43956,-1.85087 -17.65989,-5.32842z" fill="#1b171c" stroke-width="1.5"/></g></g></g><g data-paper-data="{&quot;index&quot;:null}"><path d="M255.68229,159.43961c0,-4.62307 -7.6789,-15.53073 -3.44835,-15.53073c1.1058,0 4.00437,2.33459 6.78121,4.85516c1.31177,1.19071 3.26731,2.34172 4.14189,3.77227c0.80378,1.31474 0.70311,2.94412 0.79968,3.34049c0.1279,0.52495 0.9582,2.14097 0.9582,2.14097c0,0 1.66657,1.97795 4.75703,3.90074c2.07801,1.29287 3.83342,0.66077 5.97399,2.01002c1.36594,0.86098 4.64944,2.7213 3.50219,4.97488c-0.16413,0.32243 -4.63191,0.24975 -4.63191,0.24975c0,0 -1.25418,1.6276 -2.37286,2.04842c-2.91542,1.09671 -4.80128,-1.08587 -5.53343,-1.03821c-2.35456,0.15328 -6.08281,-0.10553 -6.08281,-0.10553c0,0 -0.38807,-0.10557 -1.52854,-0.80571c-4.74075,-2.91039 -3.31628,-7.69547 -3.31628,-9.81253z" fill="#ffd5d5" stroke="#000000" stroke-width="1.5"/><path d="M256.91738,166.12691c0,0 6.59309,1.48578 8.99991,0.65935c0.09502,-0.03263 0.98831,-0.82199 2.22028,-1.24686c1.03345,-0.35642 2.39884,-0.36275 2.82018,-0.36185c1.06661,0.00229 1.45587,1.90079 2.3688,1.90079c3.68048,0 4.53214,-0.51035 4.53214,-0.51035c0,0 0.50134,0.54917 0.67236,1.15381c0.122,0.43135 0.02419,0.94264 -0.30837,1.06756c-1.26796,0.47629 -4.33435,0.20759 -4.33435,0.20759c0,0 -1.57635,1.7083 -2.30614,1.73805c-4.86729,0.19843 -3.95285,-1.18226 -4.81014,-1.18226c-3.30731,0 -5.24678,-0.08543 -6.37721,-0.35945c-0.15889,-0.03852 -1.19083,-0.5453 -1.88836,-1.13084c-1.00786,-0.84606 -1.58911,-1.93553 -1.58911,-1.93553z" fill="#fb95a9" stroke="none" stroke-width="0"/><path d="M270.13279,164.66676c0.65495,-0.08172 2.59529,-0.06303 3.39187,0.94108c1.04646,1.3191 0.88323,3.72747 0.88323,3.72747l-1.891,1.52047c0,0 0.73658,-4.96196 -1.61209,-4.96196c-1.88993,0 -4.26437,0.21059 -4.26437,0.21059c0,0 1.41313,-1.17823 3.49236,-1.43765z" fill="#000000" stroke="none" stroke-width="0"/><path d="M265.8325,158.87902l-0.12635,3.79055l-2.33751,-6.19124z" fill="#000000" stroke="none" stroke-width="0"/></g><g data-paper-data="{&quot;index&quot;:null}"><path d="M229.93006,131.29252c2.41131,-2.95149 10.53162,-0.25987 12.59919,3.86227c0.26008,0.51854 1.70637,-0.66733 5.40284,0.98163c0.86997,0.38809 5.3323,2.85511 7.98427,6.04894c1.26983,1.52929 2.1246,3.99593 1.97118,5.03194c-0.22905,2.80784 -2.67033,5.18657 -4.85989,7.14774c-2.87249,2.57284 1.75248,7.33006 -2.40533,7.33006c-3.03121,0 -16.54137,0.60747 -18.69314,-0.7284c-1.28409,-0.79719 -0.53199,-7.61244 -0.88049,-9.01861c-0.48674,-1.96396 -4.99822,-4.40189 -4.99822,-6.61256c0,-2.58633 2.29137,-12.099 3.87959,-14.04301z" fill="#ee1536" stroke="#000000" stroke-width="2"/><path d="M246.04205,151.48163c0,-3.14019 3.56399,-6.94934 7.26523,-7.10728c3.22449,-0.13759 3.97211,2.15654 3.0535,5.15937c-1.10558,3.61402 -4.40634,5.42259 -7.63376,5.42259c-0.06272,0 2.08362,-1.58996 2.84464,-0.28992c1.01358,1.73146 0.66979,6.51156 0.03616,6.86773c-2.98614,1.67855 -13.402,-0.74155 -16.31172,-0.67209c-0.60085,0.01435 -2.90823,0.59035 -3.45604,-1.26733c-0.44915,-1.5231 0.38106,-5.65028 0.34354,-5.65555c-0.60286,-0.08461 -1.36799,-4.06688 -1.36799,-4.06688c0,0 -2.86476,-2.27685 -2.9505,-2.85725c-0.15338,-1.03828 2.10836,-2.8435 2.10836,-2.8435c0,0 1.25189,1.00644 1.97555,1.57762c0.66583,0.52553 1.57561,2.98741 1.57561,2.98741c0,0 4.12841,-5.5717 8.29185,-4.21031c5.58397,1.82588 4.22558,7.21129 4.22558,6.95539z" fill="#9a1652" stroke="none" stroke-width="0"/><path d="M232.5524,160.47161c0.86132,-1.55025 8.52088,-5.58592 9.70316,-7.17085c2.60911,-3.4977 4.57621,-6.08348 4.57621,-6.08348c0,0 0.91108,5.32297 -0.66029,9.58239c-1.16307,3.15265 6.61433,5.47453 5.8723,5.47453c-1.74455,0 -20.27813,-0.38656 -19.49138,-1.80259z" fill="#000000" stroke="none" stroke-width="0"/></g><g data-paper-data="{&quot;index&quot;:null}"><path d="M221.71424,142.95289c0.89069,-4.00178 0.58801,-10.58196 5.78736,-10.26608c3.61328,0.21953 6.13218,5.53997 5.92273,9.63432c-0.22563,4.36977 -3.22059,5.46494 -5.49448,10.17868c-0.43493,0.56697 -0.26069,2.77319 -0.27481,5.7492c-0.00598,1.25981 -1.32978,3.183 -1.21876,5.69599c0.09503,2.15137 1.64834,3.36172 2.75889,4.56955c0.7432,0.80829 0.23517,1.75371 0.01203,1.89649c-0.39714,0.2541 -3.723,-0.53117 -4.2632,-0.42698c-0.41777,0.08057 -1.41467,-0.40466 -3.6676,-0.27099c-0.86522,0.05133 -1.74026,0.76311 -2.77062,0.82042c-0.75263,0.04187 -1.37176,-0.15857 -2.05041,-0.31313c-0.23329,-0.05314 -1.08031,-0.5319 -1.3218,-0.52625c-0.36531,0.00856 -0.86703,0.48594 -1.2941,0.63526c-0.81551,0.28513 -1.6879,0.69038 -2.40433,0.69435c-3.35115,0.0186 -3.43218,-1.88761 -3.43218,-1.88761c0,0 -3.19834,0.06304 -4.23611,-0.42236c-0.78891,-0.36901 -1.63814,-1.00352 -1.45122,-2.2378c0.26153,-1.72688 1.15935,-2.33605 3.24072,-3.20355c3.13593,-1.30704 6.37212,-0.58009 9.9473,-3.92267c3.36598,-3.14698 5.8436,-14.74796 6.21059,-16.39682z" fill="#ffd5d5" stroke="#000000" stroke-width="1.5"/><path d="M207.7904,168.30773c0,0 -3.22774,0.00278 -3.90159,-0.28946c-0.75236,-0.32628 -0.76402,-1.57737 -0.76402,-1.57737c0,0 2.53799,-0.11037 3.55148,-0.23542c0.8325,-0.10272 2.45499,-0.55138 2.45499,-0.55138l-0.55088,2.84128c0,0 1.72873,0.70646 3.34003,0.82889c0.86868,0.066 0.85851,-1.87392 3.64063,-1.87392c1.03078,0 3.33941,1.26431 4.22936,0.77044c2.21602,-1.22976 5.42799,-5.56313 5.42799,-5.56313l1.95167,-3.36123c0,0 -1.22713,4.47698 -1.22713,4.85975c0,0.48247 3.86198,5.6885 3.31633,5.63879c-0.77073,-0.07022 -6.85345,-0.94261 -7.75492,-0.9628c-0.89298,-0.02 -2.35096,0.94386 -3.25413,0.91287c-0.48925,-0.01678 -0.9746,-0.12523 -1.45022,-0.228c-0.45719,-0.09879 -0.99564,-0.55333 -1.42965,-0.55513c-0.58542,-0.00243 -0.97987,0.42362 -1.40129,0.52162c-1.28656,0.29919 -1.98333,0.90551 -3.15523,0.83681c-1.53941,-0.09024 -3.02343,-2.0126 -3.02343,-2.0126z" fill="#fb95a9" stroke="none" stroke-width="0"/><path d="M207.52225,168.40278c0,0 1.3169,-3.1369 2.5389,-3.45707c0.64631,-0.16933 1.92664,-0.25208 2.92677,0.09011c1.01894,0.34863 2.00454,1.37664 2.00454,1.37664c0,0 -2.60227,-0.57435 -3.98008,-0.18953c-1.80959,0.5054 -1.8321,3.47467 -1.8321,3.47467z" fill="#000000" stroke="none" stroke-width="0"/><path d="M222.09405,167.97303l-0.99277,1.89527l-1.48915,-0.1805z" fill="#000000" stroke="none" stroke-width="0"/></g><g data-paper-data="{&quot;index&quot;:null}"><path d="M255.1996,182.67556c-1.00101,-2.204 -1.48204,-4.3489 -0.72825,-4.96606c2.33239,-1.90961 13.28484,-2.98899 13.38878,-2.98899c6.31528,0 14.84633,4.70166 14.84633,7.42317c0,2.15815 -5.66177,5.08636 -11.867,4.87772c-9.17694,-0.30857 -12.61375,-4.42959 -12.80984,-4.64776c-0.77835,-0.86597 0.94691,1.54978 1.61014,2.51138c0.76014,1.10213 2.09503,1.87099 1.91005,2.94778c-0.21138,1.23048 -1.04517,0.91066 -1.93413,0.37576c-1.07219,-0.64516 -2.75079,-1.86638 -4.41608,-5.533z" fill="#ee1536" stroke="#000000" stroke-width="1.5"/><path d="M224.16344,165.33484c0,-3.59654 1.88208,-6.79388 5.00437,-9.12732c4.14737,-3.09953 10.28977,-4.77137 15.23297,-4.77137c5.31995,0 12.36793,-0.19935 14.37465,2.09274c0.5447,0.62216 0.11605,3.35746 0.47021,5.96384c0.20355,1.49801 1.01152,5.12835 2.06489,8.05201c0.76659,2.12772 1.6857,4.5633 2.81912,4.87357c4.6996,1.28652 11.33458,3.83886 9.65309,6.39177c-1.27777,1.93997 -8.71321,2.17386 -14.6326,0.37436c-5.32793,-1.61969 -9.13974,-5.17457 -11.08352,-5.65964c-3.29754,-0.8229 -10.29591,1.43415 -13.65474,0.96798c-2.18858,-0.30375 -4.10262,-1.02669 -5.53901,-1.79684c-3.55989,-1.90871 -4.7094,-5.13615 -4.7094,-7.3611z" fill="#ffd5d5" stroke="#000000" stroke-width="1.5"/><path d="M254.40497,161.63253c0,0 1.5473,-1.13661 2.20683,-1.84011c0.59795,-0.63781 1.58373,-2.20314 1.58373,-2.20314c0,0 0.47515,2.43192 0.69523,3.67533c0.19897,1.12418 0.56829,3.46354 0.56829,3.46354c0,0 -2.16472,-0.56777 -3.07746,-1.12683c-0.7315,-0.44803 -1.97661,-1.96878 -1.97661,-1.96878z" fill="#fb95a9" stroke="none" stroke-width="0"/><path d="M275.08882,178.59435c0.16969,-0.35395 1.67522,-0.13645 2.97302,0.48578c1.2978,0.62223 2.68613,2.36122 2.51643,2.71517c-0.1697,0.35394 -1.51728,-1.12707 -2.81508,-1.7493c-1.29779,-0.62223 -2.84406,-1.0977 -2.67436,-1.45165z" fill="#fc9ea5" stroke="none" stroke-width="0"/></g><g data-paper-data="{&quot;index&quot;:null}"><path d="M231.01665,186.66843c2.54409,-6.35719 7.68629,-8.12707 12.34284,-6.26356c4.65655,1.8635 6.54811,7.90161 4.004,14.25882c-2.54411,6.35721 -11.22419,11.88721 -14.69075,10.29338c-3.43224,-1.57805 -4.378,-11.60389 -1.83389,-17.9611z" fill="#ee1536" stroke="#000000" stroke-width="1.5"/><path d="M233.51809,183.89081c0,0 2.00422,-2.86119 4.30555,-3.5061c0.77193,-0.21631 4.08674,0.23689 6.56763,1.86017c1.68621,1.1033 2.8021,3.19438 3.19142,4.24587c0.67056,1.81111 0.10967,3.76134 0.10967,3.76134c0,0 -1.81828,1.66589 -5.43619,1.54424c-1.9025,-0.06396 -4.61733,-2.13774 -6.33063,-4.2466c-1.54479,-1.90145 -2.40744,-3.65892 -2.40744,-3.65892z" fill="#9a1652" stroke="none" stroke-width="0"/><path d="M237.96925,174.10228c0.55433,-7.08642 2.21505,-10.84502 10.6265,-10.5467c4.91806,0.17442 6.52345,5.86357 6.20118,8.26798c-1.07822,8.0444 -9.74893,15.13352 -9.74893,15.13352c0,0 1.38491,8.01262 -6.9327,9.02219c-4.06734,0.49367 -4.09452,-6.52098 -3.42123,-8.22855c1.22234,-3.10001 3.42075,-4.916 3.42075,-4.916c0,0 -0.39189,-5.5836 -0.14558,-8.73245z" fill="#ffd5d5" stroke="#000000" stroke-width="1.5"/><path d="M245.10262,175.45959c-0.98594,-0.63999 -1.21164,-1.61216 -1.54278,-2.57662c-0.39958,-1.16378 -0.68288,-4.07899 -0.68288,-4.07899c0,0 1.88781,1.43735 2.95744,2.05164c1.0526,0.60451 3.57324,1.45269 3.57324,1.45269c0,0 -1.55297,2.41035 -2.26572,2.89984c-0.66241,0.45493 -1.05335,0.89143 -2.03929,0.25145z" fill="#fb95a9" stroke="none" stroke-width="0"/><path d="M235.86951,202.12274c-0.64171,-0.03296 1.51192,-1.05036 2.3367,-1.53259c0.91489,-0.53491 2.82616,-2.37563 2.86295,-2.00667c0.07441,0.74608 -1.44675,2.17701 -2.28268,2.66576c-0.90726,0.53045 -1.82763,0.92947 -2.91696,0.87351z" fill="#fc9ea5" stroke="none" stroke-width="0"/></g><g data-paper-data="{&quot;index&quot;:null}"><g><path d="M267.63881,120.51882c2.92803,0.47142 4.8296,3.78573 4.24725,7.40271c-0.58235,3.61698 -3.42808,6.16696 -6.35611,5.69554c-2.92803,-0.47141 -4.82959,-3.78572 -4.24724,-7.4027c0.58235,-3.61699 3.42807,-6.16697 6.3561,-5.69555z" fill="#fb95a9" stroke="#000000" stroke-width="2"/><path d="M244.97622,139.73904c-24.09165,-7.62228 -26.28941,-10.86324 -26.35617,-21.09773c-0.06676,-10.2345 14.57585,-8.8809 29.05533,-8.97535c14.47948,-0.09446 22.05475,-0.75063 22.12152,9.48387c0.01088,1.66955 -3.13125,11.40561 -3.13125,11.40561c0,0 7.13081,5.26117 5.70078,9.07277c-1.558,4.11165 -18.277,2.99415 -27.39023,0.11084z" fill="#ffd5d5" stroke="#000000" stroke-width="2"/><path d="M221.7348,111.88211c0,0 27.48875,-4.14583 33.68827,-4.18627c11.7464,-0.07663 13.49902,6.48058 13.53012,11.24892c0.01359,2.0827 -2.88047,10.13654 -2.88047,10.13654c0,0 -3.05569,-5.84942 -4.95865,-7.44469c-2.16747,-1.817 -7.14562,-2.88027 -7.14562,-2.88027l-6.66809,6.01561l-5.52392,-8.25831c0,0 -3.69866,5.03607 -6.30604,6.90844c-2.7801,1.9964 -9.88964,4.72172 -9.88964,4.72172l-3.93073,-0.89345c0,0 -2.28671,-5.36739 -2.27231,-7.9782c0.01383,-2.50779 2.35709,-7.39005 2.35709,-7.39005z" fill="#fb95a9" stroke="none" stroke-width="0"/><path d="M211.89722,121.10697c-0.02087,-3.19828 -0.1073,-3.8952 1.86021,-5.38218c1.57735,-1.1921 7.60472,3.59617 7.62559,6.79445c0.02087,3.19828 -0.93049,6.2185 -2.90762,6.23139c-1.97712,0.01289 -6.55318,-3.81363 -6.57817,-7.64366z" fill="#ffd5d5" stroke="#000000" stroke-width="2.5"/><path d="M214.29075,124.74531c-0.63767,-1.06679 -0.95492,-2.3994 -1.11094,-3.5438c-0.19133,-1.40341 0.85076,-2.02729 2.0918,-1.29618c2.07571,1.22283 4.85104,3.10198 4.85959,4.41209c0.01365,2.09342 0.13036,3.57919 -1.55601,3.59019c-0.70562,0.00461 -3.26303,-1.45352 -4.28444,-3.1623z" fill="#fb95a9" stroke="none" stroke-width="0"/><path d="M215.04356,119.19113c-0.00417,-0.63966 5.51634,6.28174 5.51634,6.28174l-1.03573,2.63914c0,0 -4.47643,-8.28122 -4.4806,-8.92088z" fill="#000000" stroke="none" stroke-width="0"/><path d="M217.54282,128.77108c-0.2418,-1.85312 1.4795,-3.30753 3.59938,-3.52291c2.11987,-0.21538 4.46816,-0.63176 5.1041,2.51716c0.11194,0.5543 0.75074,4.18301 -0.93711,5.79616c-0.26309,0.25145 -1.71782,1.16809 -3.13427,1.22277c-1.95612,0.07551 -3.1051,-0.47938 -3.1051,-0.47938c0,0 2.35725,-1.54839 2.15241,-1.71442c-0.65331,-0.52953 -3.47626,-2.2624 -3.67942,-3.81937z" fill="#6d0f0a" stroke="#000000" stroke-width="2"/><path d="M204.84861,126.21074c-6.8392,-4.55916 -8.98036,-8.78981 -8.98036,-8.78981c0,0 6.69602,0.11454 9.09763,-1.83413c2.4208,-1.96424 5.36184,-11.16843 5.36184,-11.16843c0,0 23.04213,2.12308 32.85206,2.05908c9.08386,-0.05925 17.05361,-0.08706 22.89118,-0.09996c6.34484,-0.01401 11.6885,3.10539 12.27188,8.04777c0.14437,1.2231 0.33787,2.87028 0.31334,4.24675c-0.11211,6.29148 -2.7665,11.81288 -2.7665,11.81288c0,0 -4.72803,-7.89323 -7.0568,-11.34343c-2.88018,-4.26713 -7.87604,-8.24701 -7.87604,-8.24701c0,0 -1.10983,3.84981 -2.86627,6.27006c-1.81822,2.50536 -4.97364,2.20617 -4.97364,2.20617c0,0 -0.06264,-3.18641 -0.5865,-4.6795c-0.48222,-1.37443 -1.36916,-3.96262 -1.49704,-2.79686c-0.12864,1.1727 -0.82447,3.94225 -1.12527,5.30685c-0.77855,3.53186 -1.36761,3.98268 -1.36761,3.98268c0,0 -1.66926,-3.306 -3.36518,-6.4051c-1.44198,-2.63506 -3.94566,-4.20906 -3.94566,-4.20906c0,0 -4.92041,4.286 -7.6871,5.9806c-2.49929,1.5308 -7.81077,3.74308 -7.81077,3.74308c0,0 1.81403,8.204 -2.17559,7.6309c-2.81972,-0.40503 -4.01943,-0.97933 -5.45373,-2.26157c-0.85987,-0.76873 -0.97717,-3.76689 -0.97717,-3.76689l2.05984,0.64075c0,0 -0.9203,-6.27835 -2.23886,-6.70264c-2.32164,-0.74707 -0.52825,-0.97073 -4.03224,-0.86077c-0.51002,0.01601 -2.03543,2.98222 -1.95331,5.82139c0.08817,3.04813 1.80446,5.98347 1.80446,5.98347c0,0 -4.57674,1.65914 -7.9166,-0.56729z" fill="#6d0f0a" stroke="#000000" stroke-width="1.5"/><path d="M254.27859,109.41413c-0.98062,0.00639 -2.24457,-1.12929 -4.22104,-1.25786c-2.14131,-0.1393 -5.00424,0.72901 -6.13541,0.77497c-16.33712,0.66384 -34.51427,1.82038 -34.51427,1.82038c0,0 0.78282,-2.58124 0.8627,-3.85183c0.08535,-1.35747 -0.05003,-4.05167 -0.05003,-4.05167c0,0 22.00253,2.64784 35.16349,2.56199c8.44495,-0.05509 17.34224,-0.45722 22.89625,0.2955c5.88094,0.79703 8.61857,2.7503 8.61857,2.7503l0.89072,6.89673l-2.53312,-0.67688l-6.07042,-6.4575c0,0 -10.40925,1.16651 -14.90744,1.19586z" fill="#6d0f0a" stroke="none" stroke-width="0"/><path d="M243.69082,136.39144c-1.23115,-0.16424 -1.72825,-1.37864 -2.10576,-2.54644c-0.42587,-1.31745 -0.64229,-2.60468 -0.50889,-2.80657c0.20526,-0.31065 8.79058,2.13142 8.80862,2.52227c0.01722,0.3729 -1.31938,1.16644 -3.05374,1.89071c-0.9772,0.40807 -2.07879,1.08162 -3.14023,0.94002z" fill="#ef3d61" stroke="#000000" stroke-width="1.5"/><path d="M250.43698,125.44935c-0.01268,-1.94222 0.55884,-5.26888 3.52588,-6.38246c0.53271,-0.19996 1.74284,-0.09597 3.06153,0.35104c1.35163,0.45817 2.47612,1.22452 2.80471,1.4158c0.64916,0.37791 1.91134,0.07263 1.91134,0.07263c0,0 1.2547,-0.59061 1.96771,-1.07097c0.59858,-0.40327 2.02413,-2.12602 2.02413,-2.12602c0,0 -0.08285,1.49994 -1.30318,3.07567c-0.50287,0.64933 -1.85413,1.78142 -1.85413,1.78142c0,0 1.02792,0.14103 2.204,-0.05255c0.88341,-0.14541 3.10182,-1.39085 3.10182,-1.39085c0,0 -1.02524,1.6823 -1.72896,2.39332c-0.48595,0.49097 -1.67328,1.07419 -1.67328,1.07419l-0.24176,1.01233c0,0 -1.45036,-1.87893 -2.2337,-2.30903c-0.63338,-0.34776 -2.23991,-0.20296 -2.23991,-0.20296c0,0 -0.2825,7.71162 -5.16433,7.61712c-3.8064,-0.07368 -4.14102,-2.06039 -4.16188,-5.25867z" fill="#000000" stroke="none" stroke-width="0"/><path d="M229.0584,114.79232c0,0 1.50899,1.75251 2.3644,2.36016c0.78727,0.55925 2.15603,0.62888 2.15603,0.62888c0,0 -0.31039,-0.75847 -0.618,-1.54721c-0.32082,-0.82263 -0.77665,-3.15397 -0.77665,-3.15397c0,0 1.2098,1.79704 1.84403,2.42793c0.60653,0.60333 2.09389,1.48763 2.09389,1.48763c0,0 2.59286,-0.06521 4.29701,-0.07633c4.46098,-0.0291 7.37592,3.11074 7.37592,3.11074c0,0 -2.42785,-0.66544 -3.27651,-0.867c-0.60283,-0.14318 -1.33417,-0.08793 -1.33417,-0.08793c0,0 0.20681,8.50977 -6.16466,8.62153c-5.21857,0.09154 -3.81697,-6.95008 -4.01964,-7.33472c-0.14683,-0.27868 -1.03717,-1.16274 -1.03717,-1.16274c0,0 -1.42698,-0.89604 -1.88893,-1.58038c-0.50254,-0.74448 -1.01554,-2.82658 -1.01554,-2.82658z" fill="#000000" stroke="none" stroke-width="0"/></g><path d="M277.67159,113.36743c0,0 -0.34344,-2.74285 -0.61723,-4.12181c-0.26181,-1.31862 -0.99121,-3.97898 -0.99121,-3.97898c0,0 1.06608,0.70078 1.6461,3.04051c0.37909,1.52917 1.29854,5.49603 1.29854,5.49603z" fill="#000000" stroke="none" stroke-width="0"/></g></g></g></svg>