<svg version="1.1" xmlns="http://www.w3.org/2000/svg" xmlns:xlink="http://www.w3.org/1999/xlink" width="374.77477" height="288.28829" viewBox="0,0,374.77477,288.28829"><g transform="translate(-52.61261,-35.85585)"><g data-paper-data="{&quot;isPaintingLayer&quot;:true}" fill-rule="nonzero" stroke-linejoin="miter" stroke-miterlimit="10" stroke-dasharray="" stroke-dashoffset="0" style="mix-blend-mode: normal"><path d="M52.61262,324.14414v-288.28829h374.77477v288.28829z" fill="none" stroke="none" stroke-width="none" stroke-linecap="butt"/><g data-paper-data="{&quot;index&quot;:null}"><g data-paper-data="{&quot;index&quot;:null}"><g stroke="#000000" stroke-width="3" stroke-linecap="round"><path d="M285.57919,206.22814l-20.87329,-21.68678c0,0 -3.90046,-4.17697 -3.54619,-5.27419c1.06278,-3.29165 6.0183,-7.56595 10.07085,-12.80754c0.67359,-0.87125 5.68198,2.29357 5.68198,2.29357c0,0 7.6603,5.32712 12.56325,8.73677c7.46672,5.19254 19.13261,13.30524 19.13261,13.30524c0,0 6.10556,3.95564 4.7396,5.46086c0,0 6.98679,8.21909 5.48109,11.21386c-0.79429,1.57982 -7.40721,1.39156 -11.13017,-1.53965c-4.67401,-3.67999 -5.84588,6.53089 -10.5884,10.09352c-4.15858,-1.98407 -11.53131,-9.7956 -11.53131,-9.7956z" data-paper-data="{&quot;origPos&quot;:null}" fill="#582700"/><path d="M287.28344,207.45871l16.67303,-19.56351l2.62023,2.16982l-16.45105,19.69627z" data-paper-data="{&quot;origPos&quot;:null}" fill="none"/></g><path d="M287.3977,206.60488l-25.9453,-26.95983l10.23666,-12.05163l1.33669,-0.54679l30.71612,20.3896z" fill="#66c8ff" stroke="#000000" stroke-width="1" stroke-linecap="round"/><path d="M289.88651,209.30411l-1.7873,-1.49653l16.3712,-19.55189l1.7873,1.49653z" fill="#ffffff" stroke="none" stroke-width="0" stroke-linecap="butt"/></g><g fill="#fffc96" stroke="#000000" stroke-width="2" stroke-linecap="round"><path d="M284.03141,204.09906c0,0 2.95451,-4.15198 5.544,-11.29346c2.62586,-7.24184 3.59787,-13.50967 3.59787,-13.50967l-1.43229,-1.20482c0,0 1.77819,-2.62717 3.45897,-1.52579c4.11376,2.69565 -7.8287,33.47598 -11.91713,31.13603c-2.55533,-1.46251 -0.717,-5.44201 -0.717,-5.44201z"/><path d="M277.42915,197.05264c0,0 5.48139,-0.8676 12.7104,-4.13761c7.22901,-3.27 11.53985,-6.39677 11.53985,-6.39677l-1.02718,-0.91698c0,0 2.65237,-2.25038 4.73317,-0.36688c3.43582,3.11006 -28.26792,18.12364 -31.04748,14.11924c-1.32414,-1.90763 2.22806,-3.28008 2.22806,-3.28008z" data-paper-data="{&quot;index&quot;:null}"/></g></g><g data-paper-data="{&quot;origRot&quot;:0}" stroke="#000000" stroke-linecap="round"><path d="M253.79161,219.85192c0,0 0.51809,-4.77267 2.04666,-4.56028c4.51056,0.62674 9.0938,-0.44699 13.0944,1.72856c1.66125,0.90339 1.82414,5.18899 1.82414,5.18899l0.17718,33.1073c0,0 0.06286,3.41833 0.02975,5.38366c-0.0354,2.10125 -1.46794,5.0848 -3.5625,4.91339c-7.69056,-0.62925 -12.59734,0.39565 -17.28728,-1.22051c-1.70862,-0.5888 -3.48327,-1.32583 -3.98538,-3.0619c-0.65592,-2.26776 0.57075,-6.57835 0.57075,-6.57835z" data-paper-data="{&quot;origPos&quot;:null}" fill="#ff0000" stroke-width="3"/><path d="M270.60353,264.03331c0,0 -6.19421,1.94274 -11.24928,1.3731c-3.87841,-0.43705 -12.16416,-2.40116 -12.16416,-2.40116c0,0 -1.05229,-2.74261 -0.96159,-4.34269c0.09554,-1.6856 1.43877,-4.07651 1.43877,-4.07651l23.25297,1.8179z" data-paper-data="{&quot;origPos&quot;:null}" fill="#976e57" stroke-width="2"/><path d="M253.83654,220.17986c0,0 0.51809,-4.77267 2.04667,-4.56027c4.51055,0.62673 9.0938,-0.44698 13.0944,1.72858c1.66125,0.90339 1.82414,5.18897 1.82414,5.18897l0.17718,33.10732c0,0 0.06288,3.41832 0.02977,5.38365c-0.0354,2.10125 -1.46794,5.08479 -3.5625,4.91339c-7.69056,-0.62925 -12.59735,0.39566 -17.28726,-1.2205c-1.70862,-0.5888 -3.48327,-1.32585 -3.98538,-3.06191c-0.65592,-2.26776 0.57073,-6.57835 0.57073,-6.57835z" data-paper-data="{&quot;origPos&quot;:null}" fill="#4b4b4b" stroke-width="3"/></g><path d="M232.37291,257.09527c0,0 -0.85189,4.40002 -2.46107,6.12729c-1.23191,1.3223 -3.14812,1.17863 -4.93851,0.93251c-4.91436,-0.67559 -8.82967,-3.80564 -15.97577,-6.71667c-1.94628,-0.79282 -1.87732,-4.10175 -0.96015,-5.99258c0.85786,-1.7685 2.45741,-4.79014 2.45741,-4.79014l15.10698,-29.46024c0,0 2.08038,-3.7503 3.97055,-3.80625c4.55188,-0.13477 8.15651,2.89273 12.46406,4.37016c1.45977,0.50069 -0.23295,4.99305 -0.23295,4.99305c0,0 -2.38459,8.68388 -3.91085,14.242c-2.15412,7.84464 -5.5197,20.10089 -5.5197,20.10089z" fill="#4b4b4b" stroke="#000000" stroke-width="3" stroke-linecap="round"/><g stroke="#000000" stroke-linecap="round"><path d="M249.34151,175.62471c0,0 -28.22914,5.91484 -28.27891,-12.06568c-0.01835,-6.62461 16.21325,-5.02736 16.21325,-5.02736z" data-paper-data="{&quot;origPos&quot;:null}" fill="#66c8ff" stroke-width="2"/><path d="M241.29767,163.93608c0,0 -15.91916,-1.89997 -15.71052,-2.51368c0.66156,-1.94585 12.44273,-1.38252 12.44273,-1.38252z" data-paper-data="{&quot;origPos&quot;:null}" fill="#0a0a0a" stroke-width="1"/></g><g><g><path d="M235.30464,175.35911c0,0 4.16821,-13.92927 6.38482,-14.13337c6.64979,-0.61232 21.11978,2.61834 30.88829,4.16327c1.51011,0.23884 0.70008,13.81232 0.70008,13.81232l-3.02567,30.53037c0,0 -2.09631,14.81233 -3.74369,14.5518c-14.66469,-2.31928 -31.98589,-4.19549 -38.3909,-6.05984c-2.13499,-0.62144 1.14443,-16.05641 1.14443,-16.05641z" data-paper-data="{&quot;origPos&quot;:null}" fill="#66c8ff" stroke="#000000" stroke-width="3.5" stroke-linecap="round"/><path d="M252.6374,186.40107c-1.27581,-0.20177 -0.88724,-2.65874 -0.88724,-2.65874c0.80594,-5.09592 1.87093,-11.82981 2.67688,-16.92572c0,0 0.38857,-2.45695 1.66438,-2.25518c1.27581,0.20177 0.88724,2.65874 0.88724,2.65874c-0.80594,5.09592 -1.61187,10.19184 -2.41781,15.28776l-0.25905,1.63798c0,0 -0.38858,2.45695 -1.66439,2.25518z" fill="#ffffff" stroke="none" stroke-width="0.5" stroke-linecap="butt"/><path d="M263.50074,194.5312c-1.27581,-0.20177 -0.78765,-3.28841 -0.78765,-3.28841c1.01249,-6.40191 2.35041,-14.86157 3.3629,-21.26348c0,0 0.48817,-3.08663 1.76398,-2.88487c1.27581,0.20177 0.78765,3.28841 0.78765,3.28841c-1.01249,6.40191 -2.02497,12.80382 -3.03746,19.20575l-0.32545,2.05776c0,0 -0.48817,3.08663 -1.76398,2.88487z" fill="#ffffff" stroke="none" stroke-width="0.5" stroke-linecap="butt"/></g><g fill="none" stroke="#b9b9b9" stroke-width="3"><path d="M269.64266,170.0219c-0.60521,-1.47069 0.4875,-2.53261 1.88571,-3.54464c1.39821,-1.01202 2.66865,-1.18764 3.17768,-0.12025c1.07926,2.2632 -0.54418,2.99409 -1.63902,3.78654c-1.39823,1.01203 -2.56965,1.95536 -3.42437,-0.12163z" stroke-linecap="butt"/><path d="M267.7554,171.67608l2.95173,-2.08393" stroke-linecap="round"/><path d="M264.15412,171.74369c1.39821,-1.01202 2.66866,-1.18764 3.17768,-0.12024c1.07926,2.2632 -0.54418,2.99409 -1.63902,3.78654c-1.39822,1.01203 -2.56964,1.95536 -3.42435,-0.12164c-0.60521,-1.47069 0.48748,-2.5326 1.88569,-3.54465z" stroke-linecap="butt"/><path d="M263.33286,174.85858l-2.95174,2.08393" stroke-linecap="round"/><path d="M254.89852,175.61754c0.65116,-1.55242 1.94863,-1.19069 3.37811,-0.50008c1.42947,0.69062 2.23339,1.80663 1.79852,3.00097c-0.92207,2.53232 -2.2863,1.43877 -3.40562,0.89802c-1.42948,-0.69061 -2.6906,-1.20649 -1.77099,-3.3989z" stroke-linecap="butt"/><path d="M252.77729,174.87461l2.98279,1.49243" stroke-linecap="round"/><path d="M248.47075,170.1708c1.08773,-1.16106 2.12515,-0.20009 3.17262,1.13543c1.04748,1.33552 1.3986,2.77623 0.62067,3.70097c-1.64946,1.96068 -2.50705,0.27435 -3.32727,-0.77141c-1.04748,-1.33553 -2.00212,-2.42527 -0.46601,-4.06498z" stroke-linecap="butt"/><path d="M246.82421,168.45617l2.16888,2.83544" stroke-linecap="round"/><path d="M243.00362,163.10542c1.08772,-1.16104 2.12516,-0.20009 3.17263,1.13544c1.04749,1.33552 1.3986,2.77623 0.62067,3.70097c-1.64946,1.96067 -2.50705,0.27434 -3.32726,-0.77141c-1.04748,-1.33552 -2.00213,-2.42525 -0.466,-4.06496z" stroke-linecap="butt"/><path d="M241.3571,161.39076l2.16889,2.83544" stroke-linecap="round"/></g></g><g><path d="M272.79769,167.07279c-12.08492,-0.22691 -23.8033,-0.48306 -28.563,-1.62511c-4.35005,-1.04374 -5.58909,-3.84141 -5.58909,-3.84141c0,0 -1.68557,-2.48392 -1.72723,-4.01836c-0.12504,-4.60333 0.1342,-17.75114 1.40704,-29.05666c0.04248,-0.37732 0.08002,-0.58784 0.1449,-0.96196c0.19463,-1.12235 1.14002,-5.47332 1.14002,-5.47332c0,0 3.23666,-1.56607 4.98243,-1.98892c5.2373,-1.26856 18.40127,0.6057 32.29758,1.42806c1.25952,0.07454 3.37137,1.81822 3.37137,1.81822c0,0 1.44868,3.18126 1.34232,5.16194c-0.6876,12.80538 -1.49551,26.97111 -1.89223,30.20353c-0.13224,1.07748 -2.0916,5.21159 -2.0916,5.21159z" fill="#582700" stroke="#000000" stroke-width="2.5" stroke-linecap="round"/><path d="M235.30335,122.77808c-0.63344,-1.07761 0.44416,-1.71106 0.44416,-1.71106l1.33073,-0.73464c0.11934,-0.03353 0.23857,-0.06629 0.35771,-0.0983c-0.87605,-5.80694 0.41647,-12.76121 0.52944,-18.47857c0.0293,-1.48271 -0.24529,-5.50864 0.50299,-6.76197c1.25304,-2.09874 2.94872,-1.46158 4.84432,-1.41897c3.22532,0.0725 6.42376,0.18378 9.62545,-0.2167c7.93633,-0.98331 15.78667,-1.06205 23.74967,-1.55777c2.51279,-0.15643 4.96477,-0.19146 7.48103,0.08195c0.6885,0.0748 1.5773,-0.15609 2.04757,0.35232c1.66554,1.8006 0.88716,3.74184 0.52312,5.69602c-0.72615,3.89799 -2.42544,7.38834 -2.64046,11.39229c-0.18496,3.0621 -0.73225,6.19574 -1.19538,9.2261c-0.15984,1.04575 0.13512,2.99594 -0.94444,3.75879c-2.21362,1.56421 -7.83268,0.22229 -10.36895,0.07862c-7.73361,-0.43806 -15.46464,-1.03579 -23.21141,-1.0325c-2.77163,0.09593 -5.41603,0.26866 -8.07648,0.7828c-0.03513,0.37188 -0.22383,0.8454 -0.91262,1.03245c-0.74731,0.20294 -1.15738,-0.1828 -1.36125,-0.50572c-0.09082,0.0247 -0.18172,0.04989 -0.27268,0.07557l-0.74147,0.48345c0,0 -1.07761,0.63344 -1.71107,-0.44416z" fill="#000000" stroke="none" stroke-width="0.5" stroke-linecap="butt"/><path d="M253.23872,138.85896c4.71628,-2.42503 8.9613,-0.19082 10.52998,4.61462c1.79909,5.51127 -2.06297,8.60062 -2.06297,8.60062c0,0 -2.5451,-1.10159 -5.7884,-1.5119c-4.03842,-0.51089 -6.26261,-0.07112 -6.26261,-0.07112c0,0 -2.81414,-8.3424 3.584,-11.63222z" fill="#ffffff" stroke="#000000" stroke-width="2" stroke-linecap="butt"/><path d="M279.84521,140.1657c5.98571,3.99128 2.24752,11.96253 2.24752,11.96253c0,0 -2.1603,-0.68811 -6.23058,-0.63653c-3.26889,0.04143 -5.9221,0.84857 -5.9221,0.84857c0,0 -3.48849,-3.50571 -1.07856,-8.77857c2.10129,-4.59755 6.57145,-6.33811 10.98372,-3.39601z" data-paper-data="{&quot;index&quot;:null}" fill="#ffffff" stroke="#000000" stroke-width="2" stroke-linecap="butt"/><g data-paper-data="{&quot;index&quot;:null}" stroke="#000000" stroke-width="1" stroke-linecap="butt"><path d="M251.39184,166.73766c-12.12493,-3.21851 -5.69044,-15.11131 -5.69044,-15.11131l18.09129,4.63122c0,0 0.43618,13.88761 -12.40086,10.48008z" fill="#000000"/><path d="M250.85486,162.5782c3.07504,1.85803 5.09662,4.68207 4.53342,4.69487c-1.16382,0.02646 -2.48855,-0.13516 -3.99642,-0.53541c-4.51916,-1.19957 -6.4601,-3.6042 -7.1169,-6.14891c-0.1276,-0.49437 3.75612,0.28323 6.57988,1.98945z" fill="#ff8484"/><path d="M244.38532,155.85214c0.49713,-1.73669 1.31611,-4.22579 1.31611,-4.22579l15.89963,4.07017l-1.05708,4.42189c0,0 -16.17503,-4.20901 -16.15864,-4.26626z" fill="#ffffff"/></g></g><g><path d="M240.96656,164.7284c2.60688,-1.88292 4.0801,12.26457 5.09649,14.33171c1.10469,2.24667 -19.52983,-1.24227 -19.52983,-1.24227l-3.48944,-0.64073l23.16162,3.81767c0,0 8.06572,0.91513 7.44977,3.09793c0,0 2.06838,10.94504 -6.38962,27.81992c-5.14055,0.08606 -16.38943,-4.05058 -16.38943,-4.05058c0,0 -25.40273,-8.02816 -26.63728,-12.57991c-0.28587,-1.05402 -0.71246,-14.13179 2.08795,-17.20435c9.29307,-10.19613 34.63975,-13.34938 34.63975,-13.34938z" fill="#582700" stroke="#000000" stroke-width="2.5" stroke-linecap="round"/><path d="M228.09545,178.77678c-0.49409,-0.11249 -0.98744,-0.23201 -1.48236,-0.35013c-0.10922,-0.02607 -1.31612,-0.44166 -1.91748,-0.40192c-1.71428,6.68368 -2.37011,13.55821 -4.44521,20.18121c-0.1433,0.59657 -0.32044,1.88583 -0.6557,3.09716c0.00039,0.38027 0.04685,0.68036 0.17371,0.80175c1.07871,1.03228 2.93597,1.42896 4.20452,2.24319c-0.02613,-0.38249 -0.08611,-1.48979 -0.02555,-1.9443c0.17981,-1.3498 0.35348,-2.68445 0.49207,-4.03838c0.48585,-4.74606 1.5469,-9.83117 2.58496,-14.46208c0.18578,-1.68831 0.53269,-3.46375 1.07104,-5.1265zM229.56991,179.08244c-0.54599,1.63506 -0.88312,3.40571 -1.06614,5.06897c-1.19822,5.23215 -2.0844,10.78007 -2.72579,16.1393c-0.26427,2.20819 0.17071,5.65062 -2.40643,5.43232c-1.36043,-0.85031 -3.38892,-1.36237 -4.57726,-2.49108c-0.2625,0.38751 -0.57443,0.6603 -0.94792,0.74294c-0.52575,0.11632 -2.35534,-1.05021 -2.90023,-1.28572c-3.25087,-1.40501 -7.41607,-2.48827 -8.81734,-6.11173c-3.7325,-4.97612 -2.89827,-14.06733 -0.49848,-19.41532c3.12537,-3.11296 6.38372,-4.17034 10.5219,-5.36556c2.98789,-0.86298 5.64223,-2.22491 8.76825,-2.7476c4.24338,-1.3231 8.51529,-2.512 12.75896,-3.829c1.94768,-0.60445 3.6176,-1.85352 5.23515,-0.24394c0.86322,3.49546 1.73425,7.02949 2.5201,10.55886c0.24496,1.10017 0.66828,3.35017 0.02547,4.38318c-0.89332,1.43559 -2.68512,0.88176 -4.02738,0.57847c-3.03054,-0.2562 -6.3368,-0.69737 -9.5563,-1.3764c-0.24184,0.22834 -0.59948,0.19738 -0.59948,0.19738c-0.5752,-0.05041 -1.14309,-0.13286 -1.70704,-0.23507zM218.3641,199.46996c0.31203,-4.05499 1.80035,-7.78957 2.22619,-11.77836c0.20377,-2.35568 0.22394,-6.57615 1.61174,-9.18419c0.01211,-0.15513 0.06134,-0.26899 0.06134,-0.26899l0.30819,-0.70469c0.17505,-0.7332 0.59473,-1.40776 1.07206,-1.99117c5.98993,0.11608 11.95301,2.9355 18.02,3.47185c0.67371,0.15297 1.61965,0.43218 2.30421,0.38038c0.42104,-0.03185 0.20081,-2.5481 0.15858,-2.85055c-0.5142,-3.6824 -1.88672,-7.22433 -2.54546,-10.88154c-0.14956,-0.35157 -2.86839,0.8077 -3.45971,0.99072c-4.2757,1.32332 -8.57461,2.53599 -12.85393,3.8549c-3.10886,0.52319 -5.73301,1.86535 -8.70453,2.73096c-3.78213,1.10175 -6.79239,1.9978 -9.69641,4.7726c-2.03941,4.9954 -2.87602,13.23695 0.5712,17.83274c1.42208,3.51675 6.89346,5.29614 10.09671,6.66309c0.03396,0.01449 0.47188,-1.62669 0.82457,-2.9754c0.00191,-0.02113 0.00367,-0.04191 0.00525,-0.06234z" fill="#000000" stroke="none" stroke-width="0.5" stroke-linecap="butt"/><path d="M227.04405,183.8573c-1.03806,4.63092 -2.11503,9.81187 -2.60087,14.55794c-0.13861,1.35393 -0.31579,2.68871 -0.49561,4.03852c-0.06054,0.45452 -0.00051,1.56181 0.02563,1.9443c-1.26856,-0.81423 -3.14382,-1.21417 -4.22254,-2.24645c-0.12686,-0.12141 -0.17521,-0.42225 -0.1756,-0.80253c0.33526,-1.21134 0.5089,-2.50226 0.65219,-3.09882c2.0751,-6.62299 2.75706,-13.59176 4.47135,-20.27543c0.60135,-0.03974 1.81563,0.37685 1.92484,0.40292c0.49491,0.11813 0.99387,0.23918 1.48797,0.35167c-0.53835,1.66275 -0.88159,3.4396 -1.06737,5.1279z" data-paper-data="{&quot;noHover&quot;:false,&quot;origItem&quot;:[&quot;Path&quot;,{&quot;applyMatrix&quot;:true,&quot;segments&quot;:[[[926.17844,407.1979],[3.2606,1.25965],[-0.27949,0.97418]],[[925.31465,410.11917],[0.29084,-0.97519],[-0.06418,0.21521]],[[924.29914,413.90358],[-0.01258,-1.20526],[13.15638,4.16543]],[[964.1057,425.02121],[-12.99513,-4.87922],[1.17537,0.35239]],[[970.21765,426.67451],[-2.3817,-0.804],[0.75941,0.04146]],[[971.83798,426.41666],[-0.25651,0.23985],[2.18115,-2.03947]],[[976.78433,418.26967],[-1.76682,2.44279],[-0.76669,0.00973]],[[972.89889,418.10481],[0.90089,0.17138],[-2.67549,-0.50896]],[[964.88923,416.67374],[2.68829,0.42712],[-9.42353,-1.49721]],[[936.29671,409.90591],[9.13228,2.58714],[-3.35077,-0.55846]]],&quot;closed&quot;:true}]}" fill="#ffffff" stroke="none" stroke-width="0.5" stroke-linecap="butt"/><path d="M218.8247,197.76071c-0.05311,0.2208 -1.25265,4.81745 -1.30883,4.79347c-3.20325,-1.36695 -8.69783,-3.16511 -10.11991,-6.68185c-3.4472,-4.5958 -2.61616,-12.88171 -0.57674,-17.87711c2.90402,-2.7748 5.93175,-3.69445 9.71387,-4.79621c2.97151,-0.86561 5.62729,-2.2175 8.73614,-2.7407c4.27931,-1.31889 8.60652,-2.52146 12.88221,-3.84478c0.59133,-0.18301 3.31347,-1.33955 3.46301,-0.98797c0.65875,3.6572 2.04417,7.21764 2.55837,10.90004c0.04223,0.30245 0.26449,2.82492 -0.15654,2.85676c-0.68457,0.0518 -1.72666,-0.20007 -2.40038,-0.35305c-6.06699,-0.53635 -11.97617,-3.32108 -17.9661,-3.43716c-0.47732,0.58342 -0.88798,1.25598 -1.06303,1.98919l-0.30454,0.70336c0,0 -0.33544,0.59581 0.35297,0.89346c0.06892,0.02979 0.17043,0.1428 0.23161,0.15452c-1.42209,6.15988 -2.14358,12.35164 -4.04209,18.428z" data-paper-data="{&quot;noHover&quot;:false,&quot;origItem&quot;:[&quot;Path&quot;,{&quot;applyMatrix&quot;:true,&quot;segments&quot;:[[[926.61254,417.73069],[12.14285,3.5238],[-0.03018,0.12086]],[[926.46822,418.11346],[0.06716,-0.13431],[-0.67082,1.34164]],[924.45576,418.78428],[[923.08279,418.0906],[0,0],[-1.44471,-0.43097]],[[919.22563,415.72869],[1.11205,1.01797],[0.89694,-11.9485]],[[928.15956,380.1298],[-1.74473,12.05571],[0.38029,-1.32836]],[[929.175,375.57071],[0.02742,1.37277],[-0.01686,-0.84429]],[[923.5003,374.93752],[0.60865,-0.05075],[-7.41054,0.61792]],[[901.48814,378.8123],[7.37628,-0.90935],[-0.71866,0.25961]],[[903.08234,385.83106],[-0.2998,-1.20115],[2.16779,8.68513]],[[909.35292,411.92731],[-2.15853,-8.69186],[0.69956,6.26621]],[[913.83986,429.61277],[-1.39861,-6.02998],[1.78014,7.67491]],[[922.29365,449.50563],[-5.21858,-6.1072],[9.74892,4.62723]],[[957.96755,450.34516],[-9.56021,6.37347],[7.18055,-2.44927]],[[972.39433,430.92276],[-3.08539,6.24485],[0.05411,-0.10951]],[[963.14745,427.86406],[0.43501,0.13058],[-11.92317,-4.46591]]],&quot;closed&quot;:true}]}" fill="#66c8ff" stroke="none" stroke-width="0.5" stroke-linecap="butt"/></g><path d="M282.9281,151.74659c-0.32914,0.78369 -1.11283,0.45456 -1.11283,0.45456l-0.59,-0.24832c-0.55093,-0.21024 -1.05208,-0.55401 -1.62147,-0.70737c-0.52962,-0.14265 -1.0587,0.04641 -1.57827,0.08951c-1.89245,0.15696 -3.25492,-0.18342 -5.01285,0.78708c0,0 -0.74659,0.40635 -1.15293,-0.34023c-0.40635,-0.74659 0.34023,-1.15293 0.34023,-1.15293c1.64567,-0.88525 3.02675,-1.04172 4.85464,-0.95738c1.02347,0.04722 1.94648,-0.31944 2.97986,-0.07059c0.63227,0.15227 1.18758,0.53231 1.79558,0.76313l0.64348,0.26972c0,0 0.78369,0.32914 0.45456,1.11283z" fill="#000000" stroke="none" stroke-width="0.5" stroke-linecap="butt"/><path d="M249.87017,150.13056c-0.24096,-0.81513 0.57418,-1.05608 0.57418,-1.05608l0.66925,-0.19732c0.6297,-0.16256 1.22344,-0.47923 1.86862,-0.56103c1.05448,-0.1337 1.93157,0.33225 2.95402,0.39788c1.82608,0.1172 3.18157,0.4246 4.7199,1.48547c0,0 0.69737,0.48599 0.21138,1.18336c-0.48599,0.69737 -1.18335,0.21137 -1.18335,0.21137c-1.64054,-1.15794 -3.03218,-0.96947 -4.89589,-1.3336c-0.51167,-0.09997 -1.01675,-0.34608 -1.55885,-0.26254c-0.5828,0.08981 -1.11872,0.37638 -1.68943,0.52476l-0.61373,0.18193c0,0 -0.81513,0.24096 -1.05608,-0.57418z" data-paper-data="{&quot;index&quot;:null}" fill="#000000" stroke="none" stroke-width="0.5" stroke-linecap="butt"/><path d="M245.85453,158.94352c0.47472,-0.26215 1.00254,0.03042 1.00254,0.03042l0.62731,0.34927c1.37622,0.6784 2.31696,1.55364 3.55851,2.43558c0.77963,0.55382 1.66253,0.98296 2.34492,1.65296c1.03937,1.02048 1.69005,2.35479 2.70541,3.37673c1.99943,2.01238 4.89379,3.72356 7.43535,4.95532c0.91159,0.49181 1.80066,1.28632 2.12039,2.27153c0.49005,1.51001 0.48131,1.85099 -0.16192,3.19688c-0.12329,0.25798 -0.4341,0.4161 -0.50557,0.69296c-0.16081,0.62292 0.31234,1.25128 0.54055,1.85278c0.57293,1.51007 1.06897,2.70534 0.99692,4.21118c0.00057,0.00006 0.00113,0.00011 0.0017,0.00016c1.62611,0.15355 3.32554,-0.25413 4.89249,-0.62985c0.56573,-0.13565 1.13739,-0.59486 1.69322,-0.42311c0.82969,0.25638 1.8379,0.74767 2.06742,1.58519c0.62235,2.27099 -1.41559,2.70347 -2.75197,2.85337c-1.93795,0.21738 -3.83061,-0.71951 -5.82949,-0.63832c-0.25047,0.05189 -0.49901,0.09668 -0.74609,0.13844c-0.24842,0.3717 -0.62914,0.66014 -1.24198,0.78374c-0.47215,0.09523 -0.91987,-0.03697 -1.32496,-0.281c-0.08339,0.02418 -0.16681,0.04969 -0.25028,0.07668c-0.08466,0.03793 -0.28164,0.12617 -0.48749,0.21838c-0.20123,0.28771 -0.58544,0.60716 -1.25015,0.41064c-0.07619,-0.02252 -0.1456,-0.04874 -0.2088,-0.07802c-0.30365,-0.09616 -0.56649,-0.31657 -0.70695,-0.63012c-0.2251,-0.50249 -0.06247,-1.08023 0.35993,-1.39758l0.09734,-0.07651c0.00445,-0.03523 0.00593,-0.07092 0.00379,-0.10718v0.00001c-0.03263,-0.55403 -0.74988,-1.11711 -0.47102,-1.59696c0.06462,-0.11119 0.13897,-0.21754 0.22154,-0.31857c-0.75121,-1.49812 -1.35565,-3.09888 -2.24743,-4.50363c-1.68093,-2.67703 -4.29361,-3.4334 -6.65798,-5.29205c-0.9844,-0.77384 -1.71402,-2.12718 -2.37318,-3.17076c-2.09247,-3.31283 -3.30357,-6.87458 -4.56746,-10.55805c0,0 -0.33791,-0.98492 0.647,-1.32283c0.1754,-0.06018 0.33027,-0.0784 0.46637,-0.06771z" fill="#000000" stroke="none" stroke-width="0.5" stroke-linecap="butt"/></g></g></svg>