<svg version="1.1" xmlns="http://www.w3.org/2000/svg" xmlns:xlink="http://www.w3.org/1999/xlink" width="82.5276" height="181.90906" viewBox="0,0,82.5276,181.90906"><g transform="translate(-191.46603,-92.06246)"><g data-paper-data="{&quot;isPaintingLayer&quot;:true}" fill-rule="nonzero" stroke-linejoin="miter" stroke-miterlimit="10" stroke-dasharray="" stroke-dashoffset="0" style="mix-blend-mode: normal"><g data-paper-data="{&quot;index&quot;:null}" stroke="#000000" stroke-linecap="round"><path d="M256.78037,157.65446c0,0 16.2316,-1.59725 16.21325,5.02736c-0.04977,17.98052 -28.27891,12.06568 -28.27891,12.06568z" data-paper-data="{&quot;origPos&quot;:null}" fill="#66c8ff" stroke-width="2"/><path d="M256.02631,159.16269c0,0 11.78117,-0.56333 12.44273,1.38252c0.20864,0.61371 -15.71052,2.51368 -15.71052,2.51368z" data-paper-data="{&quot;origPos&quot;:null}" fill="#0a0a0a" stroke-width="1"/></g><g data-paper-data="{&quot;index&quot;:null,&quot;origRot&quot;:0}" stroke="#000000" stroke-linecap="round"><path d="M228.41999,264.35412c0,0 -0.41591,4.46239 -1.8478,6.33926c-1.09616,1.43683 -3.01725,1.48191 -4.82315,1.4127c-4.95693,-0.19 -9.16057,-2.92065 -16.55787,-5.11625c-2.01471,-0.59798 -2.27086,-3.89767 -1.54368,-5.86941c0.68013,-1.84416 1.9754,-5.00822 1.9754,-5.00822l12.14256,-30.80072c0,0 1.70224,-3.93636 3.57781,-4.17757c4.51668,-0.58087 8.40104,2.07822 12.83281,3.12574c1.50186,0.35501 0.25825,4.99183 0.25825,4.99183z" data-paper-data="{&quot;origPos&quot;:null}" fill="#ff0000" stroke-width="3"/><path d="M205.24232,257.13107l22.33559,6.71753c0,0 0.38729,2.71492 -0.13345,4.32091c-0.49432,1.52453 -2.46753,3.70067 -2.46753,3.70067c0,0 -8.43508,-1.16651 -12.2089,-2.16216c-4.91872,-1.29771 -9.99054,-5.34979 -9.99054,-5.34979z" data-paper-data="{&quot;origPos&quot;:null}" fill="#976e57" stroke-width="2.5"/><path d="M228.25943,264.64362c0,0 -0.41591,4.46239 -1.8478,6.33926c-1.09616,1.43683 -3.01726,1.48192 -4.82315,1.41271c-4.95693,-0.19 -9.16057,-2.92065 -16.55787,-5.11625c-2.0147,-0.59799 -2.27084,-3.89767 -1.54366,-5.86941c0.68013,-1.84416 1.9754,-5.00822 1.9754,-5.00822l12.14256,-30.80072c0,0 1.70224,-3.93636 3.57781,-4.17757c4.51668,-0.58087 8.40105,2.07822 12.83281,3.12574c1.50186,0.35499 0.25823,4.99181 0.25823,4.99181c0,0 -1.52076,8.87599 -2.49413,14.55709c-1.37378,8.01819 -3.52018,20.5456 -3.52018,20.5456z" data-paper-data="{&quot;origPos&quot;:null}" fill="#4b4b4b" stroke-width="1.5"/></g><g data-paper-data="{&quot;index&quot;:null,&quot;origRot&quot;:0}" stroke="#000000" stroke-linecap="round"><path d="M237.20712,228.01803c0,0 -0.35516,-4.78754 1.18659,-4.85562c4.54945,-0.20084 8.86232,-2.08715 13.19087,-0.67242c1.79744,0.58748 2.73405,4.77261 2.73405,4.77261l6.17246,32.52733c0,0 0.68114,3.35039 1.00464,5.28916c0.34588,2.0729 -0.52241,5.26658 -2.61338,5.47751c-7.6773,0.77447 -12.31719,2.67142 -17.2223,1.9317c-1.78701,-0.2695 -3.66583,-0.67281 -4.47416,-2.28918c-1.05591,-2.1114 -0.63054,-6.5729 -0.63054,-6.5729z" data-paper-data="{&quot;origPos&quot;:null}" fill="#ff0000" stroke-width="3"/><path d="M261.74532,268.42244c0,0 -5.73974,3.03284 -10.81432,3.38846c-3.89341,0.27284 -12.39788,-0.15759 -12.39788,-0.15759c0,0 -1.53176,-2.50656 -1.73246,-4.09661c-0.21143,-1.67501 0.67641,-4.26972 0.67641,-4.26972l23.19748,-2.42501z" data-paper-data="{&quot;origPos&quot;:null}" fill="#976e57" stroke-width="2.5"/><path d="M236.65897,263.94064c0,0 0.23259,-12.70783 0.38149,-20.84149c0.10548,-5.76292 0.2703,-14.76674 0.2703,-14.76674c0,0 -0.35517,-4.78754 1.18657,-4.8556c4.54944,-0.20084 8.86232,-2.08715 13.19087,-0.67242c1.79744,0.58748 2.73405,4.77261 2.73405,4.77261l6.17246,32.52733c0,0 0.68114,3.35039 1.00464,5.28916c0.34588,2.0729 -0.52241,5.26658 -2.61337,5.47752c-7.6773,0.77447 -12.31719,2.67142 -17.2223,1.9317c-1.78701,-0.2695 -3.66583,-0.67282 -4.47416,-2.28919c-1.05591,-2.1114 -0.63054,-6.5729 -0.63054,-6.5729z" data-paper-data="{&quot;origPos&quot;:null}" fill="#4b4b4b" stroke-width="1.5"/></g><g data-paper-data="{&quot;index&quot;:null}"><g data-paper-data="{&quot;origRot&quot;:0,&quot;index&quot;:null}" stroke="#000000" stroke-width="3" stroke-linecap="round"><path d="M216.23819,218.5555c0,0 -23.89632,-8.17442 -23.25966,-10.6493c1.14796,-4.46237 6.52504,-13.65095 6.52504,-13.65095l15.63542,-25.72054c0,0 3.04206,-4.83801 4.19338,-4.77579c3.45394,0.18668 8.85226,3.88599 14.95515,6.46516c1.01441,0.42873 -0.76605,6.07936 -0.76605,6.07936c0,0 -3.19366,8.76693 -5.23775,14.37821c-3.11298,8.54543 -7.97657,21.89658 -7.97657,21.89658c0,0 -2.26479,6.91345 -4.06898,5.97729z" data-paper-data="{&quot;origPos&quot;:null}" fill="#582700"/><path d="M219.331,211.8621l-22.60245,-10.51813" fill="none"/><path d="M220.94867,208.94859l-22.50228,-10.73338" data-paper-data="{&quot;origPos&quot;:null}" fill="none"/></g><path d="M198.49415,197.48395l19.81719,-32.58602l1.44949,-0.0806l14.32011,6.71691l-12.75292,36.60572z" fill="#66c8ff" stroke="#000000" stroke-width="1" stroke-linecap="round"/><path d="M196.77118,201.18279l0.99051,-2.1102l23.0843,10.83546l-0.99049,2.1102z" fill="#ffffff" stroke="none" stroke-width="0" stroke-linecap="butt"/></g><g><g><path d="M257.71285,206.65961c0,0 0.82804,15.75777 -1.37782,16.03807c-6.6176,0.84095 -24.01925,-0.01169 -38.86622,-0.01169c-1.66786,0 -1.42457,-14.95796 -1.42457,-14.95796l1.78071,-30.62821c0,0 1.32025,-13.5334 2.84914,-13.5334c9.88992,0 24.68694,-0.93059 31.15944,0.71298c2.1575,0.54786 4.09861,14.95725 4.09861,14.95725z" data-paper-data="{&quot;origPos&quot;:null}" fill="#66c8ff" stroke="#000000" stroke-width="3.5" stroke-linecap="round"/><path d="M225.85463,187.10214c-1.29166,0 -1.29167,-2.4875 -1.29167,-2.4875c0,-5.15926 0,-11.97684 0,-17.1361c0,0 0.00001,-2.4875 1.29167,-2.4875c1.29166,0 1.29166,2.4875 1.29166,2.4875c0,5.15926 0,10.31851 0,15.47777v1.65833c0,0 0,2.4875 -1.29166,2.4875z" fill="#ffffff" stroke="none" stroke-width="0.5" stroke-linecap="butt"/><path d="M237.85463,193.43547c-1.29166,0 -1.29167,-3.125 -1.29167,-3.125c0,-6.48148 0,-15.04629 0,-21.52778c0,0 0.00001,-3.125 1.29167,-3.125c1.29166,0 1.29166,3.125 1.29166,3.125c0,6.48148 0,12.96296 0,19.44445v2.08333c0,0 0,3.125 -1.29166,3.125z" fill="#ffffff" stroke="none" stroke-width="0.5" stroke-linecap="butt"/></g><g fill="none" stroke="#b9b9b9" stroke-width="3"><path d="M247.92585,168.60095c-0.82753,-1.35809 0.08589,-2.57767 1.30884,-3.7957c1.22296,-1.21801 2.45037,-1.58994 3.11989,-0.61516c1.41955,2.06682 -0.06978,3.04234 -1.0274,3.99608c-1.22297,1.21803 -2.23265,2.33277 -3.40133,0.41479z" stroke-linecap="butt"/><path d="M248.91012,168.01021l-2.58997,2.51944" stroke-linecap="round"/><path d="M242.77365,171.15898c1.22296,-1.21801 2.45037,-1.58994 3.11989,-0.61516c1.41955,2.06682 -0.06978,3.04234 -1.0274,3.99608c-1.22296,1.21802 -2.23264,2.33277 -3.40132,0.41479c-0.82753,-1.35809 0.08588,-2.57767 1.30883,-3.79571z" stroke-linecap="butt"/><path d="M242.44906,174.36393l-2.58997,2.51946" stroke-linecap="round"/><path d="M234.23682,176.43111c0.40066,-1.63508 1.7387,-1.48046 3.25851,-1.02164c1.51981,0.45883 2.48819,1.43557 2.24522,2.68318c-0.51516,2.64527 -2.03348,1.77826 -3.22353,1.41899c-1.51981,-0.45882 -2.84605,-0.77137 -2.2802,-3.08052z" stroke-linecap="butt"/><path d="M232.0256,176.02867l3.1793,1.00816" stroke-linecap="round"/><path d="M227.0371,172.05536c0.893,-1.31672 2.06779,-0.52961 3.31104,0.62589c1.24326,1.1555 1.81512,2.52367 1.19118,3.55857c-1.32294,2.19428 -2.43342,0.66261 -3.40694,-0.24218c-1.24325,-1.15551 -2.3564,-2.08274 -1.09528,-3.94227z" stroke-linecap="butt"/><path d="M225.14292,170.61896l2.58519,2.46183" stroke-linecap="round"/><path d="M220.5334,165.93074c0.893,-1.3167 2.0678,-0.52961 3.31104,0.62589c1.24326,1.1555 1.81512,2.52367 1.19118,3.55857c-1.32294,2.19427 -2.43342,0.66261 -3.40693,-0.24218c-1.24325,-1.1555 -2.3564,-2.08273 -1.09528,-3.94227z" stroke-linecap="butt"/><path d="M221.22444,166.95616l-2.58521,-2.46183" stroke-linecap="round"/></g></g><g fill="none" stroke="#b9b9b9" stroke-width="3"><path d="M244.04547,168.47288c-0.56214,-1.35809 0.05834,-2.57767 0.8891,-3.7957c0.83076,-1.21801 1.66455,-1.58994 2.11936,-0.61516c0.96431,2.06682 -0.04741,3.04234 -0.69792,3.99608c-0.83077,1.21803 -1.51665,2.33277 -2.31054,0.41479z" stroke-linecap="butt"/><path d="M244.71408,167.88214l-1.75939,2.51944" stroke-linecap="round"/><path d="M240.54556,171.03091c0.83076,-1.21801 1.66455,-1.58994 2.11936,-0.61516c0.96431,2.06682 -0.04741,3.04234 -0.69792,3.99608c-0.83076,1.21802 -1.51665,2.33277 -2.31054,0.41479c-0.56214,-1.35809 0.05833,-2.57767 0.88909,-3.79571z" stroke-linecap="butt"/><path d="M238.56568,176.75532l1.75938,-2.51946" stroke-linecap="round"/><path d="M234.74644,176.30304c0.27217,-1.63508 1.18111,-1.48046 2.21353,-1.02164c1.03242,0.45883 1.69024,1.43557 1.52519,2.68318c-0.34996,2.64527 -1.38136,1.77826 -2.18976,1.41899c-1.03242,-0.45882 -1.93333,-0.77137 -1.54895,-3.08052z" stroke-linecap="butt"/><path d="M233.24434,175.9006l2.15972,1.00816" stroke-linecap="round"/><path d="M229.85564,171.92729c0.60662,-1.31672 1.40466,-0.52961 2.2492,0.62589c0.84455,1.1555 1.23302,2.52367 0.80918,3.55857c-0.89868,2.19428 -1.65303,0.66261 -2.31435,-0.24218c-0.84454,-1.15551 -1.60072,-2.08274 -0.74403,-3.94227z" stroke-linecap="butt"/><path d="M228.56891,170.49089l1.75614,2.46183" stroke-linecap="round"/><path d="M225.43763,165.80265c0.60662,-1.3167 1.40467,-0.52961 2.24921,0.62589c0.84455,1.1555 1.23302,2.52367 0.80917,3.55857c-0.89868,2.19427 -1.65303,0.66261 -2.31435,-0.24218c-0.84454,-1.1555 -1.60072,-2.08273 -0.74403,-3.94227z" stroke-linecap="butt"/><path d="M224.1509,164.36626l1.75615,2.46183" stroke-linecap="round"/></g><path d="M213.82251,158.05291c-0.45994,-3.22404 -1.545,-17.37122 -2.48313,-30.1607c-0.14512,-1.97822 1.24102,-5.18723 1.24102,-5.18723c0,0 2.0773,-1.7847 3.33512,-1.88387c13.87754,-1.09423 27.00232,-3.22583 32.26343,-2.06004c1.75371,0.38859 5.0204,1.891 5.0204,1.891c0,0 1.03037,4.33163 1.24695,5.44995c0.07219,0.37278 0.11385,0.58251 0.16371,0.95892c1.49392,11.27845 2.01048,24.41867 1.97557,29.02357c-0.01163,1.53496 -1.64824,4.05139 -1.64824,4.05139c0,0 -1.18405,2.82138 -5.51282,3.95008c-4.73642,1.23502 -16.44754,1.72049 -28.52572,2.18394c-1.81335,0.06957 -4.8831,-3.04739 -4.8831,-3.04739z" fill="#582700" stroke="#000000" stroke-width="2.5" stroke-linecap="round"/><path d="M247.02408,151.07375c-0.509,0.03735 -1.12591,-2.71763 -1.37793,-6.15336c-0.25202,-3.43572 -0.0437,-6.25121 0.46531,-6.28853c0.509,-0.03735 1.12593,2.71761 1.37794,6.15335c0.25202,3.43572 0.04369,6.25122 -0.46532,6.28855z" fill="none" stroke="#000000" stroke-width="2.5" stroke-linecap="butt"/><path d="M255.32726,122.76224l-0.75079,-0.46885c-0.09144,-0.02389 -0.1828,-0.04729 -0.27409,-0.07022c-0.19751,0.32686 -0.59994,0.72056 -1.3511,0.53228c-0.69231,-0.17353 -0.89024,-0.64327 -0.93266,-1.0144c-2.67002,-0.46197 -5.31728,-0.58288 -8.09026,-0.62453c-7.74534,0.14835 -15.4632,0.89731 -23.18675,1.48668c-2.53298,0.19328 -8.12469,1.64494 -10.3685,0.12437c-1.0943,-0.74157 -0.83757,-2.69716 -1.01785,-3.73959c-0.52239,-3.02071 -1.1309,-6.14303 -1.37577,-9.20091c-0.29334,-3.99898 -2.06063,-7.4554 -2.86295,-11.33843c-0.40223,-1.94669 -1.21846,-3.87232 0.41151,-5.70518c0.46023,-0.51752 1.35338,-0.30404 2.04028,-0.39232c2.51042,-0.32261 4.96262,-0.33561 7.47799,-0.2284c7.97119,0.33975 15.82157,0.2648 23.77563,1.09256c3.20893,0.33773 6.40456,0.16388 9.62785,0.02825c1.89439,-0.07971 3.57727,-0.74994 4.87116,1.32387c0.77269,1.23844 0.57696,5.26898 0.63528,6.75083c0.22487,5.71404 1.65329,12.64169 0.89108,18.46467c0.11974,0.02967 0.2396,0.06008 0.35957,0.09127l1.34485,0.70845c0,0 1.08981,0.61224 0.47758,1.70204c-0.61224,1.0898 -1.70204,0.47758 -1.70204,0.47758z" data-paper-data="{&quot;index&quot;:null}" fill="#000000" stroke="none" stroke-width="0.5" stroke-linecap="butt"/><path d="M230.27061,158.75808c-0.31623,0.94868 -1.26491,0.63246 -1.26491,0.63246l-0.11661,-0.06476c-2.18151,-0.22107 -4.12974,-0.69542 -6.34562,-0.4456c0,0 -0.99388,0.11043 -1.10432,-0.88345c-0.11043,-0.99388 0.88345,-1.10432 0.88345,-1.10432c2.3643,-0.25925 4.44159,0.21433 6.76549,0.44329l0.55006,0.15747c0,0 0.94868,0.31623 0.63246,1.26491z" fill="#000000" stroke="none" stroke-width="0.5" stroke-linecap="butt"/><path d="M253.04969,141.11129c-0.44721,0.89443 -1.34164,0.44721 -1.34164,0.44721l-0.97855,-0.49521c-0.85277,-0.54268 -2.50571,-1.2621 -3.74197,-2.08107c-0.59442,-0.24724 -1.21247,-0.53409 -1.90793,-0.85005l-0.97628,-0.4339c-0.36103,-0.15086 -0.61472,-0.50734 -0.61472,-0.92308c0,-0.55228 0.44772,-1 1,-1c0.11876,0 0.23269,0.0207 0.33837,0.0587l0.29702,0.09901c0.0764,0.02294 0.15285,0.04568 0.22932,0.06824c0.05542,0.00477 0.10955,0.01407 0.16201,0.02751l1.08372,0.25326l-0.00507,0.02171l0.0538,-0.00902c1.15004,0.39351 2.63549,0.45514 3.38291,1.14726c0.2005,0.07726 0.39999,0.15794 0.59829,0.24264l0.00514,-0.00943l0.10199,0.05563c0.02926,0.01274 0.0585,0.02558 0.08771,0.03851l0.01158,0.01565l0.02344,0.01279l0.00429,-0.00773l0.98254,0.54586c0.31636,0.16793 0.53182,0.50073 0.53182,0.88386c0,0.14165 -0.02945,0.27642 -0.08256,0.39852l0.30756,0.15149c0,0 0.89443,0.44721 0.44721,1.34164z" fill="#582700" stroke="none" stroke-width="0.5" stroke-linecap="butt"/><g data-paper-data="{&quot;index&quot;:null}"><g><path d="M262.50964,164.07399c0,0 8.81654,23.9722 4.01473,36.90529c-1.44701,3.89733 -13.26536,9.51307 -14.33316,9.74217c-4.61127,0.98933 -23.39092,-17.90709 -23.39092,-17.90709c0,0 -8.83292,-8.10114 -11.11288,-12.70923c11.12031,-15.25248 21.7958,-18.43144 21.7958,-18.43144c1.6576,-1.54802 6.16826,5.20085 6.16826,5.20085l14.01027,18.83475l-2.16901,-2.80751c0,0 -12.55968,-16.73949 -10.05657,-16.78759c2.30307,-0.04427 15.55191,-5.22019 15.07347,-2.0402z" fill="#582700" stroke="#000000" stroke-width="2.5" stroke-linecap="round"/><path d="M255.92434,181.95291c-1.23099,1.24066 -2.64987,2.36284 -4.06519,3.30188c-3.63986,3.04539 -7.67283,6.31942 -11.66815,8.92682c-1.13976,0.74382 -2.24632,1.50997 -3.36352,2.28853c-0.37619,0.26216 -1.38779,0.71645 -1.7397,0.86856c1.30515,0.75417 2.50907,2.22297 3.92099,2.70846c0.16604,0.0571 0.45404,-0.03916 0.79218,-0.21314c0.92288,-0.85324 1.9875,-1.60168 2.45201,-2.0025c4.93493,-4.88023 10.744,-8.61439 15.89826,-13.20176c-0.24034,-0.55266 -1.16294,-1.43478 -1.23618,-1.5199c-0.33185,-0.3857 -0.66422,-0.76938 -0.99069,-1.15694zM254.97679,180.78262c-0.34935,-0.45436 -0.68295,-0.92127 -0.99143,-1.40937c0,0 -0.19146,-0.30366 -0.09938,-0.62326c-2.07931,-2.55004 -3.98699,-5.28624 -5.60389,-7.86217c-0.88485,-1.0539 -2.19843,-2.39248 -1.33205,-3.84449c0.62342,-1.04482 2.81715,-1.7 3.90721,-1.98662c3.49695,-0.91946 7.03708,-1.76534 10.53935,-2.60048c2.172,0.69976 1.82739,2.75646 2.18301,4.76454c0.77483,4.37526 1.67646,8.71689 2.44573,13.09469c0.96843,3.01783 0.97479,6.00118 1.57747,9.05224c0.8347,4.22567 1.3886,7.60622 0.05465,11.81087c-3.65293,4.58433 -11.35029,9.49317 -17.48377,8.457c-3.86269,0.41563 -6.73477,-2.78962 -9.47366,-5.03474c-0.45909,-0.37632 -2.33452,-1.46761 -2.47215,-1.9882c-0.09777,-0.36982 0.00168,-0.77209 0.22575,-1.18303c-1.54787,-0.53874 -2.93283,-2.10682 -4.31216,-2.92611c-1.37538,-2.19036 1.88346,-3.38179 3.72484,-4.6289c4.46898,-3.02671 8.99344,-6.35748 13.09422,-9.82081c1.39431,-0.9251 2.81343,-2.03639 4.01629,-3.27115zM241.99427,200.08742c-0.01743,0.01077 -0.03509,0.02186 -0.053,0.03324c-1.03699,0.9317 -2.29484,2.07321 -2.26639,2.09676c2.68325,2.22026 6.77276,6.26724 10.55014,5.91903c5.6647,0.95697 12.60584,-3.5645 16.1106,-7.66692c1.13488,-3.85291 0.55133,-6.93901 -0.20323,-10.8054c-0.59284,-3.03772 -0.60292,-5.98517 -1.56304,-8.98799c-0.78949,-4.4078 -1.68236,-8.78434 -2.46625,-13.19096c-0.10841,-0.60943 -0.32443,-3.55719 -0.70545,-3.52895c-3.5523,1.09101 -7.32933,1.49482 -10.83776,2.72585c-0.28816,0.10112 -2.62541,1.05884 -2.46072,1.44764c0.26777,0.63214 0.94953,1.34486 1.39431,1.87349c3.2578,5.14614 8.49702,9.15337 11.34598,14.42368c-0.2997,0.69167 -0.70683,1.37387 -1.27821,1.86555l-0.48501,0.59693c0,0 -0.07862,0.09595 -0.21095,0.17782c-1.68171,2.42894 -5.42339,4.38153 -7.42358,5.64248c-3.3498,2.20694 -5.98665,5.24161 -9.44747,7.37774z" fill="#000000" stroke="none" stroke-width="0.5" stroke-linecap="butt"/><path d="M251.89103,185.21628c1.41531,-0.93904 2.83712,-2.0586 4.06811,-3.29926c0.32647,0.38756 0.66278,0.77552 0.99463,1.16122c0.07323,0.08512 1.0001,0.97334 1.24044,1.526c-5.15425,4.58737 -11.03509,8.38795 -15.97002,13.26818c-0.4645,0.40081 -1.53222,1.14689 -2.4551,2.00013c-0.33814,0.17398 -0.62769,0.26891 -0.79374,0.21182c-1.41191,-0.48551 -2.62698,-1.9688 -3.93214,-2.72298c0.35192,-0.15211 1.36354,-0.60633 1.73973,-0.86849c1.1172,-0.77857 2.22225,-1.54791 3.36202,-2.29174c3.99533,-2.6074 8.1062,-5.9395 11.74605,-8.98489z" data-paper-data="{&quot;noHover&quot;:false,&quot;origItem&quot;:[&quot;Path&quot;,{&quot;applyMatrix&quot;:true,&quot;segments&quot;:[[[926.17844,407.1979],[3.2606,1.25965],[-0.27949,0.97418]],[[925.31465,410.11917],[0.29084,-0.97519],[-0.06418,0.21521]],[[924.29914,413.90358],[-0.01258,-1.20526],[13.15638,4.16543]],[[964.1057,425.02121],[-12.99513,-4.87922],[1.17537,0.35239]],[[970.21765,426.67451],[-2.3817,-0.804],[0.75941,0.04146]],[[971.83798,426.41666],[-0.25651,0.23985],[2.18115,-2.03947]],[[976.78433,418.26967],[-1.76682,2.44279],[-0.76669,0.00973]],[[972.89889,418.10481],[0.90089,0.17138],[-2.67549,-0.50896]],[[964.88923,416.67374],[2.68829,0.42712],[-9.42353,-1.49721]],[[936.29671,409.90591],[9.13228,2.58714],[-3.35077,-0.55846]]],&quot;closed&quot;:true}]}" fill="#ffffff" stroke="none" stroke-width="0.5" stroke-linecap="butt"/><path d="M243.30221,198.89452c4.53006,-4.47271 9.70223,-7.95224 14.52489,-12.03982c0.03845,0.049 0.18542,0.08741 0.2435,0.13501c0.5801,0.47538 0.95586,-0.09586 0.95586,-0.09586l0.48551,-0.59309c0.57139,-0.49168 0.98088,-1.16495 1.28059,-1.85661c-2.84897,-5.27031 -8.03266,-9.24555 -11.29046,-14.39168c-0.44478,-0.52864 -1.14633,-1.33933 -1.4141,-1.97148c-0.1647,-0.38879 2.17901,-1.34755 2.46717,-1.44867c3.50843,-1.23102 7.30782,-1.63185 10.86012,-2.72287c0.38101,-0.02825 0.60099,2.9212 0.7094,3.53063c0.78389,4.4066 1.69872,8.80366 2.4882,13.21145c0.96012,3.0028 0.97605,5.98282 1.56889,9.02054c0.75455,3.86639 1.32514,6.97884 0.19025,10.83175c-3.50476,4.10242 -10.48787,8.63928 -16.15257,7.68232c-3.77737,0.34822 -7.8942,-3.71078 -10.57745,-5.93105c-0.04706,-0.03894 3.48831,-3.21214 3.6602,-3.36055z" data-paper-data="{&quot;noHover&quot;:false,&quot;origItem&quot;:[&quot;Path&quot;,{&quot;applyMatrix&quot;:true,&quot;segments&quot;:[[[926.61254,417.73069],[12.14285,3.5238],[-0.03018,0.12086]],[[926.46822,418.11346],[0.06716,-0.13431],[-0.67082,1.34164]],[924.45576,418.78428],[[923.08279,418.0906],[0,0],[-1.44471,-0.43097]],[[919.22563,415.72869],[1.11205,1.01797],[0.89694,-11.9485]],[[928.15956,380.1298],[-1.74473,12.05571],[0.38029,-1.32836]],[[929.175,375.57071],[0.02742,1.37277],[-0.01686,-0.84429]],[[923.5003,374.93752],[0.60865,-0.05075],[-7.41054,0.61792]],[[901.48814,378.8123],[7.37628,-0.90935],[-0.71866,0.25961]],[[903.08234,385.83106],[-0.2998,-1.20115],[2.16779,8.68513]],[[909.35292,411.92731],[-2.15853,-8.69186],[0.69956,6.26621]],[[913.83986,429.61277],[-1.39861,-6.02998],[1.78014,7.67491]],[[922.29365,449.50563],[-5.21858,-6.1072],[9.74892,4.62723]],[[957.96755,450.34516],[-9.56021,6.37347],[7.18055,-2.44927]],[[972.39433,430.92276],[-3.08539,6.24485],[0.05411,-0.10951]],[[963.14745,427.86406],[0.43501,0.13058],[-11.92317,-4.46591]]],&quot;closed&quot;:true}]}" fill="#66c8ff" stroke="none" stroke-width="0.5" stroke-linecap="butt"/></g><g data-paper-data="{&quot;index&quot;:null}" fill="#fffc96" stroke="#000000" stroke-width="2" stroke-linecap="round"><path d="M267.24244,171.20608c0.71677,2.07131 -4.49939,6.60823 -10.66264,10.61673c-0.24723,-0.76517 -0.67691,-1.63779 -1.3189,-2.78589c5.20957,-3.58692 8.70852,-6.90831 8.70852,-6.90831l-0.39724,-1.82901c0,0 3.01312,-0.99252 3.67026,0.90649z"/><path d="M270.00547,184.29281c0.35915,2.00146 -6.03675,1.68192 -13.30809,0.28161c0.21995,-0.99138 0.19701,-1.80304 -0.13393,-2.80157c5.8855,1.15562 9.72412,1.27101 9.72412,1.27101l-0.25253,-1.35358c0,0 3.47472,-0.16001 3.97043,2.60254z" data-paper-data="{&quot;index&quot;:null}"/></g></g><path d="M240.52408,151.90708c-0.509,0.03735 -1.12591,-2.71763 -1.37793,-6.15336c-0.25202,-3.43572 -0.0437,-6.25121 0.46531,-6.28853c0.509,-0.03735 1.12593,2.71761 1.37794,6.15335c0.25202,3.43572 0.04369,6.25122 -0.46532,6.28855z" fill="none" stroke="#000000" stroke-width="2.5" stroke-linecap="butt"/><path d="M235.9913,140.81656l0.18055,-0.11977c-0.03118,-0.09653 -0.04847,-0.20308 -0.04847,-0.31507c0,-0.3029 0.12648,-0.56602 0.3122,-0.69878l0.5768,-0.43156l0.00252,0.00611l0.01376,-0.01011l0.0068,-0.01237c0.01715,-0.01022 0.03431,-0.02037 0.05149,-0.03045l0.05987,-0.04398l0.00302,0.00746c0.11641,-0.06696 0.23352,-0.13075 0.35122,-0.19183c0.43877,-0.54719 1.3108,-0.59592 1.98592,-0.90703l0.03158,0.00713l-0.00298,-0.01716l0.63619,-0.20023c0.0308,-0.01063 0.06257,-0.01798 0.09511,-0.02175c0.04489,-0.01784 0.08977,-0.03581 0.13462,-0.05395l0.17436,-0.07828c0.06204,-0.03004 0.12892,-0.04641 0.19864,-0.04641c0.32421,0 0.58705,0.35397 0.58705,0.7906c0,0.32869 -0.14893,0.61052 -0.36087,0.72979l-0.57312,0.34304c-0.40827,0.2498 -0.77109,0.47658 -1.12004,0.67205c-0.72574,0.64748 -1.69609,1.21626 -2.19671,1.6453l-0.57445,0.39152c0,0 -0.52507,0.35357 -0.7876,-0.35357c-0.26254,-0.70714 0.26253,-1.06071 0.26253,-1.06071z" data-paper-data="{&quot;index&quot;:null}" fill="#582700" stroke="none" stroke-width="0.5" stroke-linecap="butt"/></g></g></svg>