<svg version="1.1" xmlns="http://www.w3.org/2000/svg" xmlns:xlink="http://www.w3.org/1999/xlink" width="132.46782" height="187.90742" viewBox="0,0,132.46782,187.90742"><g transform="translate(-154.51515,-82.25865)"><g data-paper-data="{&quot;isPaintingLayer&quot;:true}" fill-rule="nonzero" stroke-linejoin="miter" stroke-miterlimit="10" stroke-dasharray="" stroke-dashoffset="0" style="mix-blend-mode: normal"><g stroke="#000000" stroke-width="1.5"><g data-paper-data="{&quot;index&quot;:null}"><path d="M192.65911,189.30925c0.17221,-0.0485 5.55663,-1.339 11.10837,-1.66634c5.32808,-0.31414 10.83053,0.60325 11.39256,2.41904c1.18441,3.82655 -6.73535,9.20652 -17.42626,12.87571c-10.69092,3.66917 -15.00336,8.41022 -18.04295,6.19213c-14.1588,-10.33204 1.68691,-16.64449 12.96826,-19.82055z" fill="#f0d5b1" stroke-linecap="butt"/><path d="M192.71548,204.37745l-8.24759,-8.37497" fill="none" stroke-linecap="round"/><path d="M189.1425,213.95163c0,0 -3.48291,-1.44097 -5.16638,-2.44042c-2.1861,-1.29781 -6.84076,-4.68783 -6.84076,-4.68783c0,0 1.51123,-3.91974 2.69347,-5.65486c1.23027,-1.80562 5.87608,-3.41868 5.87608,-3.41868l9.38506,7.08111l-5.94745,9.12063z" fill="#955544" stroke-linecap="butt"/><path d="M192.82363,207.88961l-10.62698,-6.76768l-0.98735,-0.92836" fill="none" stroke-linecap="round"/><path d="M190.27141,212.18679l-11.22727,-7.58015" fill="none" stroke-linecap="round"/></g><g data-paper-data="{&quot;index&quot;:null}"><g><path d="" data-paper-data="{&quot;index&quot;:null}" fill="#f0d5b1" stroke-linecap="butt"/><path d="" data-paper-data="{&quot;index&quot;:null}" fill="#955544" stroke-linecap="butt"/><path d="" data-paper-data="{&quot;index&quot;:null}" fill="none" stroke-linecap="round"/><path d="" data-paper-data="{&quot;index&quot;:null}" fill="none" stroke-linecap="round"/></g><path d="M198.61127,211.00552c0,0 1.46255,-1.4694 6.43153,-0.62658c2.11322,0.35845 4.82204,0.68302 5.11149,2.56817c0.24273,1.58088 -1.26702,2.24032 -3.98367,3.65049c-2.29911,1.19344 -1.38283,1.50158 -3.37197,2.77077c-1.44031,0.91899 -3.24354,2.28604 -5.38847,3.34089c-2.43706,1.19852 -5.9191,0.39741 -9.06476,0.53666c-2.42736,0.10744 -4.23631,2.47271 -6.95827,1.34468c-5.22039,-2.1634 -4.66284,-5.08154 -5.39809,-8.30704c-0.58221,-2.55398 -3.17935,-5.29573 -1.63928,-8.04278c3.48506,-6.21636 19.6787,-7.47697 19.6787,-7.47697c0,0 5.6628,11.80495 2.94752,13.20783c-4.71033,2.43362 -6.55066,-6.71527 -6.55066,-6.71527c0,0 2.18355,8.87325 -0.02375,9.63229c-6.47944,2.22816 -7.50237,-5.93154 -6.99892,-3.52168c0.22855,1.09409 0.29136,2.25019 -0.00923,3.29907c-0.96271,3.35915 -5.71533,1.42729 -5.71533,1.42729c0,0 1.649,0.37128 3.20828,0.1503c1.34306,-0.19034 2.60552,-0.905 2.85455,-1.68098c0.78235,-2.43785 -1.7178,-6.73606 -1.7178,-6.73606c0,0 1.03681,2.7617 2.49161,4.95014c1.3103,1.97102 2.92326,3.451 5.05423,2.48048c2.96402,-1.34989 0.84278,-10.08316 0.84278,-10.08316c0,0 2.61919,7.61333 4.74787,7.382c1.74013,-0.18911 3.45169,-3.55058 3.45169,-3.55058z" fill="#46b8d9" stroke-linecap="round"/></g></g><g stroke="#000000" stroke-width="1.5"><path d="M235.7597,257.79131c0,3.69674 -5.2465,6.69354 -11.71836,6.69354c-6.47187,0 -11.71836,-2.99681 -11.71836,-6.69354c0,-3.69673 5.2465,-6.69353 11.71836,-6.69353c6.47187,0 11.71836,2.99677 11.71836,6.69353z" fill="#46b8d9" stroke-linecap="butt"/><path d="M214.12096,252.84939l9.55575,-12.0421l-0.88014,-9.0707l12.32189,1.56391c0,0 0.2814,7.04754 -1.00586,11.10376c-1.28727,4.05621 -4.65214,6.72482 -4.65214,6.72482z" fill="#494d5f" stroke-linecap="round"/><path d="M222.44453,242.465c0,0 2.57835,2.22992 5.77508,2.26127c1.94488,0.01906 5.71698,-1.29163 5.71698,-1.29163c0,0 -1.19203,3.57083 -2.07388,4.89448c-0.86115,1.29255 -3.15664,2.95633 -3.15664,2.95633l-13.70496,1.25114z" fill="#f0d5b1" stroke-linecap="round"/><path d="M254.56945,250.22203l-9.65634,-22.01987l8.75106,-4.50406l13.88099,27.77506z" fill="#494d5f" stroke-linecap="butt"/><path d="M269.4563,257.04068c0,3.97313 -4.59349,7.19398 -10.25987,7.19398c-5.66638,0 -10.25987,-3.22085 -10.25987,-7.19398c0,-3.97312 4.5935,-7.19398 10.25987,-7.19398c5.66638,0 10.25987,3.22085 10.25987,7.19398z" fill="#46b8d9" stroke-linecap="butt"/><path d="M222.78399,264.23463l1.70998,-7.25655" fill="none" stroke-linecap="round"/><path d="M230.62978,262.23281l0.90528,-5.37986" fill="none" stroke-linecap="round"/><path d="M253.56357,261.85747l0.40234,-4.87942" fill="none" stroke-linecap="round"/><path d="M261.10759,262.85839l0.20117,-5.88031" fill="none" stroke-linecap="round"/><path d="M252.25594,244.84215l9.55575,-4.75429l5.83404,11.51039l-12.67394,-1.12603z" fill="#f0d5b1" stroke-linecap="round"/></g><g stroke="#000000" stroke-width="1.5"><path d="M225.16591,234.8219c0,0 -7.92975,4.41224 -13.69867,5.9067c-5.7689,1.49446 -9.62473,4.57569 -10.8229,1.01824c-2.68328,-7.96689 3.14722,-8.05187 8.91611,-9.54636c5.57416,-1.44401 15.60544,2.62142 15.60544,2.62142z" fill="#49c0e0" stroke-linecap="butt"/><path d="M257.19782,216.20505c2.50799,6.05475 -3.20628,14.5875 -12.76317,19.05845c-9.34002,4.36947 -18.8837,7.41398 -22.42577,-0.93944c-1.32592,-3.12693 3.00128,-8.7426 3.00128,-8.7426l-19.49632,-43.37904l24.40015,2.34746l17.49427,29.57029c0,0 8.26485,-1.59603 9.78955,2.08487z" fill="#f0d5b1" stroke-linecap="butt"/><path d="M257.5058,218.74879c0.19706,1.45739 -0.60545,4.81425 -0.60545,4.81425c0,0 -4.48628,8.03328 -10.60303,10.72317c-8.28203,3.64207 -17.74519,5.13673 -17.74519,5.13673c0,0 -3.94127,-1.40946 -5.13046,-2.83903c-0.93347,-1.12221 -1.91312,-4.472 -1.91312,-4.472c0,0 15.36323,-3.18315 21.36729,-6.0924c5.58583,-2.7066 13.49307,-10.799 13.49307,-10.799c0,0 0.97816,2.35446 1.13689,3.52828z" fill="#494d5f" stroke-linecap="round"/><path d="M243.66742,226.08262c2.26456,-1.04381 6.4297,-4.01992 6.4297,-4.01992c0,0 -1.47065,5.76659 -4.24775,7.04664c-2.77713,1.28004 -9.24244,-0.82864 -9.24244,-0.82864c0,0 4.82885,-1.16942 7.06053,-2.19805z" fill="#e7e7e8" stroke-linecap="round"/><path d="M244.62613,235.32308l-1.02139,-4.72499" fill="none" stroke-linecap="round"/><path d="M251.79987,229.212l-2.70544,-2.62877" fill="none" stroke-linecap="round"/><path d="M210.99662,193.35034l-2.98125,-10.33826l22.23085,-2.25429l6.69957,11.54138z" fill="#955544" stroke-linecap="butt"/><path d="M229.3046,188.34958l1.41192,4.18211" fill="none" stroke-linecap="round"/></g><g stroke="#000000" stroke-width="1.5"><g><path d="M253.57418,153.41988c-4.03375,-3.49513 -7.33252,-7.99363 -6.46711,-9.68601c1.28323,-2.50945 6.41872,-3.18666 12.85641,-1.22943c2.71153,0.82438 7.76526,4.41258 10.79281,5.84625c3.27834,1.55243 5.78123,0.34922 7.98921,-0.39283c4.67224,-1.57019 5.47323,-3.0822 5.89935,-0.56267c2.9227,17.28237 -11.66071,18.19031 -21.95463,12.58749c-0.15715,-0.08553 -4.91292,-2.92098 -9.11601,-6.56282z" data-paper-data="{&quot;index&quot;:null}" fill="#f0d5b1" stroke-linecap="butt"/><path d="M280.57771,135.1013c0,0 1.96836,3.21442 2.74156,5.01307c1.00404,2.33566 2.7731,7.8155 2.7731,7.8155c0,0 -3.52825,2.28023 -5.5051,2.98761c-2.05714,0.73611 -6.7628,-0.69311 -6.7628,-0.69311l-3.42219,-11.24767l10.17545,-3.87539z" data-paper-data="{&quot;index&quot;:null}" fill="#955544" stroke-linecap="butt"/><path d="M274.03444,137.83699l4.6108,11.72499l0.25213,1.33162" data-paper-data="{&quot;index&quot;:null}" fill="none" stroke-linecap="round"/><path d="M278.62652,135.86405l4.61813,12.73511" data-paper-data="{&quot;index&quot;:null}" fill="none" stroke-linecap="round"/><path d="M268.34003,143.04039c-0.26227,-0.03552 -1.62787,-0.24704 -2.19056,-0.76794c-0.80219,-0.74262 -0.92819,-1.89623 -2.06968,-2.20263c-3.2788,-0.88012 -6.8954,-1.52068 -6.95153,-3.68669c-0.0586,-2.2607 6.73166,-1.86906 6.73166,-1.86906c0,0 -5.87915,-2.32632 -5.59246,-4.44298c0.48258,-3.56284 7.30901,-2.3384 7.30901,-2.3384c0,0 -3.83777,-1.93289 -2.48322,-3.98946c1.76557,-2.6806 6.97357,1.92736 7.58826,2.01063c5.56409,0.75368 9.55051,5.23436 8.90393,10.00791c-0.64657,4.77355 -5.68133,8.03233 -11.2454,7.27866z" data-paper-data="{&quot;index&quot;:null}" fill="#46b8d9" stroke-linecap="butt"/></g><path d="M236.26526,95.01712c7.60403,-2.76996 14.2361,-3.21634 15.49175,-2.52227c9.23684,5.10565 19.09877,37.65019 3.92991,41.85219c-15.16886,4.20199 -33.19021,-7.39697 -36.55698,-23.3377c-0.92448,-4.37701 7.64498,-12.53507 17.13533,-15.99217z" data-paper-data="{&quot;index&quot;:null}" fill="#49c0e0" stroke-linecap="butt"/><path d="M195.40247,101.46523c3.48948,15.91431 -8.16421,33.90033 -23.71862,36.31102c-15.55443,2.41068 -19.95477,-31.30937 -13.63635,-39.76305c0.85893,-1.14919 7.08742,-3.4708 15.15769,-4.07447c10.07225,-0.7534 21.23918,3.15676 22.19732,7.52651z" fill="#49c0e0" stroke-linecap="butt"/><path d="M263.78425,137.86679c0,0 17.69227,9.92458 11.97425,31.88708c-2.88267,11.07213 -15.78381,20.56712 -53.38751,22.47188c-28.40625,1.43889 -53.8592,-16.1523 -57.86642,-42.0081c-4.00722,-25.85582 17.57313,-51.47897 43.78988,-53.71534c57.87599,-4.937 55.48982,41.3645 55.48982,41.3645z" fill="#49c0e0" stroke-linecap="butt"/><path d="M247.16315,162.42329c-0.86366,9.5529 -24.69767,34.20529 -34.72927,34.43401c-7.97328,0.18179 -12.6013,-19.48722 -13.28435,-32.63688c-0.67614,-13.0166 -1.368,-22.28524 10.06644,-22.19028c5.89076,0.04896 13.17848,13.56269 21.52922,17.21621c7.85868,3.43819 16.99278,-3.18092 16.41796,3.17697z" fill="#c25e5d" stroke-linecap="butt"/><path d="M254.02655,160.48184c-1.67701,3.42345 -10.5392,3.81312 -19.79426,0.87037c-9.25505,-2.94273 -15.39827,-8.10353 -13.72123,-11.52697c1.67701,-3.42345 10.5392,-3.81311 19.79426,-0.87037c9.25505,2.94273 15.39827,8.10353 13.72123,11.52697z" fill="#c8dee6" stroke-linecap="butt"/><path d="M246.88737,152.77831c0,0 -5.07965,2.93084 -8.40688,1.77949c-3.32726,-1.15134 -5.30536,-6.0706 -5.30536,-6.0706c0,0 4.35081,-0.28802 7.67806,0.86331c3.32725,1.15134 6.03423,3.42778 6.03423,3.42778z" fill="#c04915" stroke-linecap="butt"/><path d="M238.8545,153.34552c0,0 -0.89539,2.77443 -1.57182,3.87437c-0.67058,1.09045 -1.77519,3.09544 -1.77519,3.09544" fill="none" stroke-linecap="round"/><path d="M225.25627,123.93859c1.76441,11.38456 -5.67232,21.98779 -16.61042,23.68301c-10.9381,1.69523 -21.23551,-6.15951 -22.99992,-17.5441c-1.76441,-11.38456 5.67232,-21.9878 16.61042,-23.68301c10.9381,-1.69522 21.23551,6.15952 22.99992,17.5441z" fill="#ffffff" stroke-linecap="butt"/><path d="M260.76335,129.0072c2.44429,10.2656 -0.88163,19.93143 -7.42866,21.58923c-6.54702,1.6578 -13.83587,-5.32017 -16.28013,-15.58577c-2.44429,-10.2656 0.88163,-19.93143 7.42866,-21.58923c6.54702,-1.6578 13.83587,5.32017 16.28013,15.58577z" fill="#ffffff" stroke-linecap="butt"/><path d="M220.35629,88.78641c0.3506,3.50331 -6.62014,3.03142 -6.62014,3.03142c0,0 -5.13877,7.41339 -8.16024,5.60594c-3.02146,-1.80746 -1.75872,-7.04316 0.86384,-11.42725c2.62257,-4.38409 13.20324,-4.33706 13.9165,2.78988z" data-paper-data="{&quot;index&quot;:null}" fill="#000000" stroke-linecap="butt"/><path d="M242.90104,97.47633c0,0 -5.6336,-3.36789 -3.6563,-5.73486c4.02254,-4.81528 12.24784,0.78456 12.14662,5.37677c-0.10121,4.59224 -1.67119,9.08111 -4.89342,8.78973c-3.22225,-0.29139 -3.59687,-8.4316 -3.59687,-8.4316z" data-paper-data="{&quot;index&quot;:null}" fill="#000000" stroke-linecap="butt"/><path d="M200.1126,153.83881c0,0 10.39039,7.22986 14.17672,12.79819c4.10358,6.03488 10.63472,24.56711 10.63472,24.56711c0,0 -9.51186,9.02496 -15.83632,3.73235c-10.15284,-8.49632 -8.9751,-41.09763 -8.9751,-41.09763z" fill="#f1898a" stroke-linecap="round"/><path d="M223.04253,157.36559l-4.67436,5.68855l0.6705,-11.39478z" fill="#ffffff" stroke-linecap="butt"/></g><path d="M213.3354,146.12963c-3.52093,-0.11338 -6.85175,-0.26633 -10.56347,0.34619c-0.23318,0.03848 -4.6946,0.92204 -4.98202,1.32896c-0.99209,1.4046 -0.64647,8.3137 -0.62515,8.95494c0.22171,6.66805 2.85109,12.79599 3.63899,19.35336c0.66991,5.57538 0.9154,11.66431 0.69045,17.27332c-0.27353,6.82015 -2.44175,13.97626 -3.61987,20.7014c-1.82396,10.31011 -2.1436,22.81347 0.25349,32.93224c1.07502,4.53794 2.92937,8.88495 3.3067,13.50457c1.49398,-1.37121 3.42611,-2.72415 4.04119,-3.51312c3.88026,-4.97726 3.15519,-9.28728 2.12847,-15.02777c-2.00902,-5.52575 -5.91577,-8.59474 -7.06985,-14.66448c-1.1617,-6.10979 1.3724,-10.35295 3.46943,-15.78269c1.68559,-4.36442 2.14875,-9.58783 3.49383,-14.12147c1.10151,-3.71267 0.83669,-3.99135 1.71014,-8.7036c1.59844,-8.62353 3.3568,-16.93423 2.31153,-25.8387c-0.31554,-2.68807 -1.08949,-5.31243 -1.3526,-8.00614c0.27308,-2.52019 0.8817,-5.05861 1.98339,-7.34164zM217.62741,146.08478c2.11117,2.11929 -0.00609,4.23654 -0.00609,4.23654l-0.10471,-0.11301c-0.75222,1.43101 -1.21132,3.04764 -1.34995,4.65836c0.25452,2.46828 1.03399,4.86169 1.31406,7.3272c0.53853,4.74075 0.23409,10.03744 0.01619,14.80875c-0.28283,6.19317 -2.18338,12.72554 -3.39547,18.81952c-0.60091,3.0212 -1.87531,5.87313 -2.61625,8.86308c-0.37167,1.49981 -1.02658,6.73124 -1.82229,8.84489c-1.76598,4.69097 -4.04307,7.68392 -3.19724,12.88398c0.42804,2.63155 2.2172,4.89344 3.80425,7.03576c1.68926,2.28029 2.14372,4.26577 3.1259,6.96643c0.45044,2.44159 1.30653,4.82948 1.43418,7.30898c0.30039,5.83462 -2.91529,11.12229 -6.73416,15.16138c-1.14435,1.21034 -6.54495,7.98756 -9.34299,7.21884c-4.99311,-1.37178 -2.57521,-7.61331 -3.30802,-10.68183c-1.36857,-5.73067 -3.9034,-11.28244 -4.59149,-17.21111c-1.04706,-9.02156 -0.43895,-20.23214 1.111,-29.16004c1.13511,-6.47965 3.30118,-13.47087 3.54146,-20.03891c0.19109,-5.22342 -0.03071,-10.86813 -0.64288,-16.06001c-0.79894,-6.77584 -3.49033,-13.07307 -3.69434,-19.97997c-0.10918,-3.69635 -0.46556,-9.7898 2.04152,-13.04506c1.14535,-1.48716 3.26232,-1.88522 5.0082,-2.5747c6.0215,-2.378 12.40934,-1.14752 18.61504,-1.15385c0,0 3,0 3,3c0,1.98782 -1.31714,2.65849 -2.20593,2.88478z" fill="#000000" stroke="none" stroke-width="0.5" stroke-linecap="butt"/><path d="M257.25744,149.38176l-1.68559,3.32125c-1.55688,0.60985 -3.02127,2.10409 -4.67065,1.82956c-0.32975,-0.05488 -0.64919,-0.13898 -0.96038,-0.24643l-0.03273,0.10095l-2.54964,-0.82665c0.27532,1.12746 0.64303,2.17642 0.93026,2.86696c2.20897,5.3105 6.11028,9.66077 8.57447,14.7911c5.2391,10.90754 6.23357,22.45822 6.28217,34.34856c0.03176,7.89084 -0.31334,15.75266 -0.31202,23.63295c0.00045,2.65561 -0.31394,5.32722 -0.02248,7.96678c0.03506,0.3175 0.3047,1.2284 0.56339,2.17635c0.59616,-1.14724 1.3927,-2.29476 1.5864,-3.00781c0.98758,-3.6354 2.02504,-7.81896 2.5659,-11.53352c0.36056,-2.47629 -0.53183,-6.2252 -0.96631,-8.33696c-1.10719,-5.38146 -2.092,-9.57668 -2.57575,-15.0823c-0.20525,-10.14578 0.57341,-20.52615 -0.14361,-30.63654c-0.39786,-5.60998 -1.79854,-11.43343 -2.94198,-16.92223c-0.26125,-1.25406 -0.76038,-2.45153 -1.00853,-3.70824c-0.12951,-0.65588 0.20939,-1.41979 -0.11903,-2.00211c-0.37309,-0.66151 -0.85012,-1.24016 -1.38544,-1.77309l-1.04086,0.72544c0.41488,1.14352 -0.0876,2.31598 -0.0876,2.31598zM258.88897,138.81318c2.17522,1.95298 5.48675,5.25747 6.3397,6.80674c0.54273,0.98579 0.30454,2.23248 0.54764,3.33123c0.58769,2.65618 1.13103,5.3221 1.6646,7.98967c0.89899,4.4944 2.05548,8.75379 2.38488,13.37985c0.72259,10.14789 -0.0504,20.5591 0.15017,30.74191c0.59223,6.8904 2.82602,13.348 3.51261,20.20908c0.5216,5.21239 -1.3663,11.78249 -2.78254,16.79302c-0.91042,3.22098 -4.1349,9.87975 -7.92054,10.13494c-4.30889,0.29047 -5.61919,-7.51916 -5.92967,-10.29974c-1.1744,-10.51766 0.33227,-21.71249 0.28959,-32.30868c-0.04358,-10.99177 -0.84569,-21.64268 -5.67525,-31.74303c-3.6467,-7.62656 -13.84631,-17.55805 -9.74959,-27.11055c0.81833,-1.90814 2.09485,-3.45183 3.58707,-4.808c1.37043,-3.20649 5.62619,-7.17034 7.87986,-7.06289c0.40614,0.01936 0.78693,0.127 1.14963,0.29386c0.49845,-0.36261 2.42385,-1.54368 4.10731,0.42036c1.09213,1.27416 0.86059,2.44649 0.44453,3.23222z" fill="#000000" stroke="none" stroke-width="0.5" stroke-linecap="butt"/></g></g></svg>