<svg version="1.1" xmlns="http://www.w3.org/2000/svg" xmlns:xlink="http://www.w3.org/1999/xlink" width="210" height="221" viewBox="0,0,210,221"><g transform="translate(-140,-90)"><g data-paper-data="{&quot;isPaintingLayer&quot;:true}" fill-rule="nonzero" stroke-linejoin="miter" stroke-miterlimit="10" stroke-dasharray="" stroke-dashoffset="0" style="mix-blend-mode: normal"><path d="M140,311v-221h210v221z" fill="none" stroke="none" stroke-width="0" stroke-linecap="butt"/><g data-paper-data="{&quot;index&quot;:null}"><g stroke="#000000" stroke-width="3" stroke-linecap="round"><path d="M230.06451,244.21294c0,0 -1.37227,10.23981 -3.66476,14.1434c-17.87176,-0.14601 -26.20105,-6.02681 -26.20105,-6.02681c-2.10527,-0.38508 0.60684,-6.92219 0.60684,-6.92219c0,0 4.83426,-12.91921 7.9284,-21.18815c2.03174,-5.42973 5.20611,-13.91301 5.20611,-13.91301c0,0 2.27486,-5.30056 3.39392,-5.01097c6.73233,1.74222 13.62609,2.22214 16.59351,4.16091c0.98914,0.64625 0.29098,6.09782 0.29098,6.09782l-4.15396,28.659z" data-paper-data="{&quot;origPos&quot;:null}" fill="#582700"/><path d="M228.41341,249.53497l-26.33787,-5.84986l0.86785,-3.17047l26.4434,5.62074z" data-paper-data="{&quot;origPos&quot;:null}" fill="none"/></g><path d="M202.83808,240.03753l13.33733,-33.26555l1.47948,-0.33909l16.26061,3.4821l-5.16124,35.62545z" fill="#66c8ff" stroke="#000000" stroke-width="1" stroke-linecap="round"/><path d="M202.15067,243.26151l0.58163,-2.17536l26.17944,5.78377l-0.58163,2.17536z" fill="#ffffff" stroke="none" stroke-width="0" stroke-linecap="butt"/></g><g data-paper-data="{&quot;index&quot;:null}" stroke="#000000" stroke-linecap="round"><path d="M262.61833,197.80378c0,0 17.14865,-1.53393 17.12927,4.82805c-0.05258,17.26766 -29.87661,11.58732 -29.87661,11.58732z" data-paper-data="{&quot;origPos&quot;:null}" fill="#66c8ff" stroke-width="2"/><path d="M261.82165,199.25221c0,0 12.44678,-0.541 13.14572,1.32771c0.22043,0.58938 -16.59813,2.41402 -16.59813,2.41402z" data-paper-data="{&quot;origPos&quot;:null}" fill="#0a0a0a" stroke-width="1"/></g><g><path d="M266.10016,246.51025c0,0 0.89683,14.37915 -1.49229,14.63493c-7.1674,0.76738 -26.01482,-0.01066 -42.09531,-0.01066c-1.80643,0 -1.54293,-13.64931 -1.54293,-13.64931l1.92866,-27.9486c0,0 1.42994,-12.34939 3.08585,-12.34939c10.7116,0 26.73799,-0.84917 33.74824,0.6506c2.33675,0.49993 4.43914,13.64867 4.43914,13.64867z" data-paper-data="{&quot;origPos&quot;:null}" fill="#66c8ff" stroke="#000000" stroke-width="3.5" stroke-linecap="round"/><path d="M231.59509,228.66384c-1.39897,0 -1.39898,-2.26987 -1.39898,-2.26987c0,-4.70789 0,-10.92901 0,-15.63689c0,0 0.00001,-2.26987 1.39898,-2.26987c1.39897,0 1.39898,2.26987 1.39898,2.26987c0,4.70789 0,9.41576 0,14.12365v1.51324c0,0 -0.00001,2.26987 -1.39898,2.26987z" fill="#ffffff" stroke="none" stroke-width="0.5" stroke-linecap="butt"/><path d="M244.59208,234.44307c-1.39897,0 -1.39898,-2.8516 -1.39898,-2.8516c0,-5.91443 0,-13.72992 0,-19.64435c0,0 0.00001,-2.8516 1.39898,-2.8516c1.39897,0 1.39897,2.8516 1.39897,2.8516c0,5.91443 0,11.82885 0,17.74329v1.90106c0,0 0,2.8516 -1.39897,2.8516z" fill="#ffffff" stroke="none" stroke-width="0.5" stroke-linecap="butt"/></g><g fill="none" stroke="#b9b9b9" stroke-width="3"><path d="M256.04158,211.78129c-0.89629,-1.23927 0.09302,-2.35216 1.41758,-3.46362c1.32457,-1.11145 2.65395,-1.45084 3.3791,-0.56134c1.53749,1.886 -0.07558,2.77617 -1.11276,3.64647c-1.32458,1.11147 -2.41814,2.12868 -3.68392,0.3785z" stroke-linecap="butt"/><path d="M254.30247,213.54124l2.80515,-2.29902" stroke-linecap="round"/><path d="M250.46132,214.11552c1.32457,-1.11145 2.65395,-1.45084 3.3791,-0.56134c1.53749,1.886 -0.07558,2.77617 -1.11276,3.64647c-1.32457,1.11146 -2.41813,2.12868 -3.68391,0.3785c-0.89629,-1.23927 0.09301,-2.35216 1.41757,-3.46363z" stroke-linecap="butt"/><path d="M250.10977,217.04007l-2.80515,2.29903" stroke-linecap="round"/><path d="M241.21523,218.9264c0.43395,-1.49203 1.88316,-1.35094 3.52924,-0.93226c1.64608,0.41869 2.69492,1.30998 2.43176,2.44844c-0.55796,2.41384 -2.20242,1.62268 -3.49135,1.29484c-1.64608,-0.41868 -3.08251,-0.70388 -2.46965,-2.81101z" stroke-linecap="butt"/><path d="M238.8203,218.55917l3.44344,0.91996" stroke-linecap="round"/><path d="M233.41734,214.93347c0.96719,-1.20152 2.23958,-0.48327 3.58612,0.57113c1.34655,1.05441 1.96593,2.30288 1.29015,3.24724c-1.43285,2.0023 -2.63559,0.60464 -3.68999,-0.22099c-1.34654,-1.05442 -2.55218,-1.90052 -1.18628,-3.59737z" stroke-linecap="butt"/><path d="M231.36579,213.62274l2.79997,2.24645" stroke-linecap="round"/><path d="M226.3733,209.34467c0.96719,-1.2015 2.2396,-0.48327 3.58613,0.57113c1.34655,1.05441 1.96593,2.30288 1.29015,3.24724c-1.43285,2.00229 -2.63559,0.60464 -3.68998,-0.22099c-1.34654,-1.05441 -2.55218,-1.90052 -1.18628,-3.59737z" stroke-linecap="butt"/><path d="M227.12175,210.2804l-2.79999,-2.24645" stroke-linecap="round"/></g><path d="M283.02365,256.21853c0,0 4.72507,-0.93662 7.14584,-0.24324c1.85321,0.53079 2.56193,2.17949 3.11359,3.76175c1.51418,4.3431 0.16003,8.77267 0.4565,15.80941c0.08073,1.9165 -3.21881,3.09668 -5.494,3.04048c-2.12797,-0.05258 -5.82323,-0.25381 -5.82323,-0.25381l-35.8109,-1.55559c0,0 -4.62853,-0.32892 -5.52292,-1.88125c-2.15383,-3.7383 -0.7631,-7.87092 -1.21573,-12.00885c-0.1534,-1.40229 5.03617,-1.67358 5.03617,-1.67358c0,0 9.6376,-1.26312 15.80617,-2.07157c8.70619,-1.14104 22.30853,-2.92375 22.30853,-2.92375z" data-paper-data="{&quot;index&quot;:null}" fill="#4b4b4b" stroke="#000000" stroke-width="3" stroke-linecap="round"/><path d="M240.48539,266.76171c0,0 2.20771,3.64216 1.98651,5.78827c-0.16931,1.64293 -1.90038,2.61642 -3.59237,3.44554c-4.64431,2.27579 -10.07313,2.22552 -18.11288,4.14818c-2.18968,0.52364 -4.33775,-1.89409 -4.8162,-3.76895c-0.44747,-1.75354 -1.09782,-4.82485 -1.09782,-4.82485l-6.75733,-29.66998c0,0 -0.726,-3.86536 0.84966,-4.96773c3.7945,-2.65472 8.88979,-2.5036 13.55108,-3.8619c1.57965,-0.46032 3.13142,3.72074 3.13142,3.72074c0,0 3.75695,7.58337 6.1616,12.43715c3.39387,6.85051 8.69634,17.55357 8.69634,17.55357z" data-paper-data="{&quot;index&quot;:null}" fill="#4b4b4b" stroke="#000000" stroke-width="3" stroke-linecap="round"/><path d="M221.89817,204.87437c0,0 -2.09724,-3.95841 -2.24404,-4.99235c-0.44043,-3.10184 -1.38721,-16.70084 -2.19793,-28.99419c-0.12541,-1.90149 1.38414,-4.96523 1.38414,-4.96523c0,0 2.21964,-1.68715 3.54981,-1.76627c14.67572,-0.87289 28.57084,-2.75159 34.11226,-1.56469c1.84715,0.39563 5.27691,1.88021 5.27691,1.88021c0,0 1.02741,4.17272 1.24045,5.2494c0.07101,0.35889 0.11205,0.56083 0.15942,0.92293c1.41915,10.84947 1.77958,23.47425 1.67778,27.89572c-0.03393,1.47383 -1.79833,3.86931 -1.79833,3.86931c0,0 -1.29062,2.69409 -5.87946,3.72248c-5.021,1.12523 -17.39949,1.44133 -30.16547,1.73156z" fill="#582700" stroke="#000000" stroke-width="2.5" stroke-linecap="round"/><path d="M264.2714,164.91114l-0.78653,-0.45985c-0.09626,-0.02411 -0.19245,-0.04775 -0.28857,-0.07094c-0.21325,0.31134 -0.64394,0.68424 -1.43481,0.49382c-0.72892,-0.1755 -0.93138,-0.62912 -0.97095,-0.98605c-2.8141,-0.47783 -5.60897,-0.62787 -8.53778,-0.70341c-8.1843,0.04319 -16.34804,0.66347 -24.51553,1.13043c-2.67856,0.15314 -8.60615,1.47545 -10.95508,-0.01346c-1.14556,-0.72613 -0.84678,-2.60073 -1.02253,-3.60405c-0.50925,-2.90739 -1.10807,-5.91345 -1.32364,-8.85298c-0.2535,-3.84386 -2.07175,-7.18559 -2.86457,-10.92463c-0.39747,-1.8745 -1.2326,-3.73408 0.51516,-5.47323c0.49348,-0.49106 1.43401,-0.27462 2.1609,-0.35059c2.65657,-0.27762 5.24726,-0.25867 7.903,-0.12347c8.416,0.42841 16.71024,0.45706 25.10125,1.35387c3.38516,0.36544 6.76351,0.23945 10.1705,0.15052c2.00236,-0.05226 3.78962,-0.6743 5.12725,1.3337c0.79881,1.19914 0.53521,5.06701 0.57592,6.49075c0.15699,5.4899 1.56829,12.16061 0.68098,17.74246c0.12608,0.03002 0.25226,0.06077 0.37856,0.09225l1.41073,0.69754c0,0 1.14264,0.60188 0.48052,1.64053c-0.66213,1.03866 -1.80477,0.43679 -1.80477,0.43679z" data-paper-data="{&quot;index&quot;:null}" fill="#000000" stroke="none" stroke-width="0.5" stroke-linecap="butt"/><path d="M231.74883,181.35333c0.26667,-0.25164 1.99764,0.87075 3.86625,2.50691c1.86861,1.63615 3.16725,3.16652 2.90058,3.41815c-0.26667,0.25164 -1.99764,-0.87075 -3.86625,-2.5069c-1.86861,-1.63615 -3.16728,-3.16653 -2.90059,-3.41816z" data-paper-data="{&quot;index&quot;:null}" fill="none" stroke="#000000" stroke-width="2.5" stroke-linecap="butt"/><path d="M247.17188,177.44604c0,0 1.11189,-0.64771 1.82445,0.363c0.71255,1.01071 -0.39934,1.65842 -0.39934,1.65842l-0.74028,0.41124c-1.18857,0.97825 -1.85276,1.43357 -2.75673,1.67647l0.10011,0.19842l-1.31006,0.54612c-0.15055,0.06665 -0.31763,0.10823 -0.49513,0.11837c-0.72793,0.04162 -1.35513,-0.46104 -1.40092,-1.12272c-0.02647,-0.38248 0.14714,-0.73437 0.43896,-0.97128l0.99233,-0.8196l0.02393,0.02394l0.03786,-0.07191c0.86866,-0.5588 1.74344,-1.10991 2.62714,-1.64887c0,0 0.36822,-0.22453 0.82106,-0.21946l0.23661,-0.14217z" data-paper-data="{&quot;index&quot;:null}" fill="#582700" stroke="none" stroke-width="0.5" stroke-linecap="butt"/><g data-paper-data="{&quot;index&quot;:null}" stroke="#000000" stroke-width="1.25" stroke-linecap="butt"><g data-paper-data="{&quot;index&quot;:null}" fill="#000000"><path d="M249.1825,200.1278c-11.09403,0.72262 -7.69631,-3.82315 -7.69631,-3.82315l14.80272,-0.91659c0,0 4.69637,3.86974 -7.10641,4.73974z"/></g><g data-paper-data="{&quot;index&quot;:null}" fill="#ffffff"><path d="M249.18251,200.12781c-2.26929,0.14781 -3.93223,0.07519 -5.14194,-0.13387c-0.02167,-0.00375 0.73208,-0.94428 0.67629,-1.79744c-0.06812,-1.04167 -0.94507,-2.03337 -0.94162,-2.03358c2.49916,-0.15475 12.51366,-0.77486 12.51366,-0.77486c0,0 4.69637,3.86974 -7.10641,4.73974z"/></g></g><g><g><path d="M252.31882,207.11966c-1.50848,-2.74366 13.39129,-1.9531 15.70398,-2.59169c2.51356,-0.69408 -4.59299,18.19236 -4.59299,18.19236l-1.2543,3.18602l7.87481,-21.21464c0,0 2.31324,-7.45147 4.46935,-6.53574c0,0 11.68426,-0.26253 27.72691,10.29609c-0.78122,4.85207 -6.96941,14.80409 -6.96941,14.80409c0,0 -12.6144,22.67621 -17.53696,23.13778c-1.13988,0.10687 -14.75471,-1.50425 -17.46234,-4.61317c-8.98515,-10.31682 -7.95906,-34.66109 -7.95906,-34.66109z" fill="#582700" stroke="#000000" stroke-width="2.5" stroke-linecap="round"/><path d="M264.68735,221.39737c-0.20015,0.44778 -0.40744,0.89378 -0.61355,1.34147c-0.04548,0.09881 -0.68018,1.17091 -0.74085,1.74308c6.631,2.64229 13.63883,4.31762 20.14591,7.2902c0.5935,0.2267 1.89861,0.59186 3.09623,1.09387c0.39386,0.05816 0.71248,0.06061 0.85966,-0.04012c1.25161,-0.85653 1.97683,-2.54372 3.03478,-3.61251c-0.40051,-0.03426 -1.55732,-0.14823 -2.01774,-0.27518c-1.36734,-0.37699 -2.72002,-0.74587 -4.0986,-1.08471c-4.8325,-1.18775 -9.9187,-2.96913 -14.53846,-4.65897c-1.71686,-0.43471 -3.49668,-1.0345 -5.12738,-1.79715zM265.2535,220.05651c1.60073,0.76558 3.37723,1.35542 5.06863,1.78368c5.21525,1.93312 10.81031,3.62111 16.25144,5.04964c2.24193,0.5886 5.88038,0.70895 5.21798,3.10124c-1.11086,1.14972 -1.98457,2.98034 -3.35459,3.92523c0.35684,0.30674 0.58651,0.64234 0.60885,1.00662c0.03144,0.5128 -1.48632,2.05546 -1.82246,2.53214c-2.00534,2.84383 -3.83231,6.59784 -7.82181,7.35922c-5.78493,2.74759 -15.05803,0.56319 -20.1898,-2.51881c-2.69446,-3.42103 -3.23775,-6.65086 -3.77483,-10.73009c-0.38778,-2.94533 -1.34871,-5.65348 -1.36072,-8.67646c-0.6517,-4.19794 -1.15958,-8.40209 -1.8049,-12.59938c-0.29617,-1.92639 -1.30691,-3.69052 0.63375,-4.96542c3.76584,-0.27461 7.57297,-0.55061 11.36083,-0.74716c1.18076,-0.06127 3.58239,-0.11346 4.54329,0.65059c1.33537,1.06182 0.45848,2.66322 -0.08284,3.88003c-0.7784,2.81324 -1.79502,5.85754 -3.04327,8.78357c0.19552,0.26279 0.10289,0.59467 0.10289,0.59467c-0.14959,0.53368 -0.33111,1.05555 -0.53243,1.57067zM284.46843,233.74226c-4.14629,-0.91778 -7.76163,-2.89349 -11.82009,-3.90822c-2.40491,-0.55435 -6.77196,-1.22287 -9.23774,-2.9306c-0.1586,-0.03527 -0.26817,-0.09914 -0.26817,-0.09914l-0.67755,-0.39855c-0.72962,-0.27762 -1.3571,-0.77647 -1.88044,-1.31558c1.13436,-5.6205 5.06356,-10.79967 6.64618,-16.42802c0.27247,-0.61063 0.72175,-1.45807 0.78402,-2.11043c0.0383,-0.40122 -2.60466,-0.58118 -2.92502,-0.58797c-3.90034,-0.08271 -7.80055,0.66415 -11.69928,0.72139c-0.38939,0.08667 0.35077,2.82434 0.44017,3.40912c0.64645,4.2284 1.17438,8.46163 1.81563,12.69275c0.01543,3.0069 0.961,5.6836 1.35428,8.61392c0.50057,3.7297 0.9188,6.70118 3.30055,9.8618c4.82766,2.6885 13.22049,4.74438 18.56328,2.2068c3.88251,-0.79739 6.65151,-5.67377 8.60937,-8.47864c0.02077,-0.02974 -1.60461,-0.69454 -2.94155,-1.23409c-0.02156,-0.00505 -0.04278,-0.0099 -0.06366,-0.01453z" fill="#000000" stroke="none" stroke-width="0.5" stroke-linecap="butt"/><path d="M269.77043,223.16897c4.61976,1.68983 9.80253,3.50093 14.63502,4.68869c1.37859,0.33884 2.73081,0.71105 4.09815,1.08806c0.46042,0.12695 1.61724,0.24084 2.01774,0.2751c-1.05796,1.0688 -1.7896,2.77244 -3.0412,3.62898c-0.1472,0.10072 -0.46693,0.09994 -0.86079,0.04178c-1.19763,-0.50201 -2.50504,-0.86413 -3.09854,-1.09082c-6.50707,-2.97258 -13.60806,-4.68702 -20.23906,-7.32931c0.06066,-0.57217 0.69765,-1.65107 0.74313,-1.74987c0.20612,-0.44768 0.41594,-0.89873 0.61609,-1.34651c1.6307,0.76264 3.41258,1.3592 5.12945,1.79391z" data-paper-data="{&quot;noHover&quot;:false,&quot;origItem&quot;:[&quot;Path&quot;,{&quot;applyMatrix&quot;:true,&quot;segments&quot;:[[[926.17844,407.1979],[3.2606,1.25965],[-0.27949,0.97418]],[[925.31465,410.11917],[0.29084,-0.97519],[-0.06418,0.21521]],[[924.29914,413.90358],[-0.01258,-1.20526],[13.15638,4.16543]],[[964.1057,425.02121],[-12.99513,-4.87922],[1.17537,0.35239]],[[970.21765,426.67451],[-2.3817,-0.804],[0.75941,0.04146]],[[971.83798,426.41666],[-0.25651,0.23985],[2.18115,-2.03947]],[[976.78433,418.26967],[-1.76682,2.44279],[-0.76669,0.00973]],[[972.89889,418.10481],[0.90089,0.17138],[-2.67549,-0.50896]],[[964.88923,416.67374],[2.68829,0.42712],[-9.42353,-1.49721]],[[936.29671,409.90591],[9.13228,2.58714],[-3.35077,-0.55846]]],&quot;closed&quot;:true}]}" fill="#ffffff" stroke="none" stroke-width="0.5" stroke-linecap="butt"/><path d="M282.77641,233.04563c0.21966,0.08397 4.7766,1.92054 4.74225,1.96973c-1.95788,2.80487 -4.75022,7.70021 -8.63274,8.49759c-5.34279,2.53759 -13.7825,0.4801 -18.61017,-2.20841c-2.38175,-3.16061 -2.82147,-6.15217 -3.32204,-9.88187c-0.39328,-2.93032 -1.34357,-5.63828 -1.35902,-8.64518c-0.64125,-4.23111 -1.15392,-8.48942 -1.80037,-12.71781c-0.08941,-0.58477 -0.82615,-3.32514 -0.43677,-3.41181c3.89873,-0.05724 7.82027,-0.81338 11.72062,-0.73068c0.32035,0.00679 2.9701,0.18579 2.9318,0.58701c-0.06226,0.65236 -0.49952,1.59453 -0.772,2.20516c-1.58261,5.62835 -5.46679,10.76213 -6.60114,16.38262c0.52335,0.5391 1.15028,1.02916 1.87992,1.30678l0.6768,0.39492c0,0 0.5602,0.40744 0.98498,-0.19475c0.04252,-0.06029 0.17674,-0.13844 0.19922,-0.19423c6.13804,2.28663 12.42772,3.91869 18.39864,6.64093z" data-paper-data="{&quot;noHover&quot;:false,&quot;origItem&quot;:[&quot;Path&quot;,{&quot;applyMatrix&quot;:true,&quot;segments&quot;:[[[926.61254,417.73069],[12.14285,3.5238],[-0.03018,0.12086]],[[926.46822,418.11346],[0.06716,-0.13431],[-0.67082,1.34164]],[924.45576,418.78428],[[923.08279,418.0906],[0,0],[-1.44471,-0.43097]],[[919.22563,415.72869],[1.11205,1.01797],[0.89694,-11.9485]],[[928.15956,380.1298],[-1.74473,12.05571],[0.38029,-1.32836]],[[929.175,375.57071],[0.02742,1.37277],[-0.01686,-0.84429]],[[923.5003,374.93752],[0.60865,-0.05075],[-7.41054,0.61792]],[[901.48814,378.8123],[7.37628,-0.90935],[-0.71866,0.25961]],[[903.08234,385.83106],[-0.2998,-1.20115],[2.16779,8.68513]],[[909.35292,411.92731],[-2.15853,-8.69186],[0.69956,6.26621]],[[913.83986,429.61277],[-1.39861,-6.02998],[1.78014,7.67491]],[[922.29365,449.50563],[-5.21858,-6.1072],[9.74892,4.62723]],[[957.96755,450.34516],[-9.56021,6.37347],[7.18055,-2.44927]],[[972.39433,430.92276],[-3.08539,6.24485],[0.05411,-0.10951]],[[963.14745,427.86406],[0.43501,0.13058],[-11.92317,-4.46591]]],&quot;closed&quot;:true}]}" fill="#66c8ff" stroke="none" stroke-width="0.5" stroke-linecap="butt"/></g><g data-paper-data="{&quot;index&quot;:null}" fill="#fffc96" stroke="#000000" stroke-width="2" stroke-linecap="round"><path d="M249.90814,214.98425c0.04009,-1.91631 3.36882,-1.904 3.36882,-1.904l0.19659,1.77622c0,0 4.56863,1.98172 10.93046,3.70018c-0.26842,1.23067 -0.41431,2.1489 -0.41294,2.91586c-7.45024,-1.8198 -14.12665,-4.39808 -14.08292,-6.48827z"/><path d="M251.39381,227.66992c-0.40098,-2.65208 3.11847,-3.531 3.11847,-3.531l0.18685,1.30229c0,0 3.79331,-1.23598 9.29204,-4.01884c-0.00651,1.00332 0.23374,1.74637 0.77468,2.58086c-6.80238,3.41325 -13.08154,5.5881 -13.37205,3.66667z" data-paper-data="{&quot;index&quot;:null}"/></g></g><path d="M232.5707,193.23142c-0.29926,-0.21929 0.77821,-1.8855 2.40657,-3.72158c1.62835,-1.83608 3.19098,-3.14679 3.49023,-2.92749c0.29925,0.21929 -0.77821,1.88549 -2.40656,3.72157c-1.62835,1.83608 -3.19099,3.14679 -3.49024,2.9275z" data-paper-data="{&quot;index&quot;:null}" fill="none" stroke="#000000" stroke-width="2.5" stroke-linecap="butt"/><path d="M249.45925,179.69928c0.29926,0.21929 -0.77821,1.8855 -2.40657,3.72158c-1.62835,1.83608 -3.19098,3.14679 -3.49023,2.92749c-0.29925,-0.21929 0.77821,-1.88549 2.40657,-3.72157c1.62835,-1.83608 3.19098,-3.14679 3.49024,-2.9275z" data-paper-data="{&quot;index&quot;:null}" fill="none" stroke="#000000" stroke-width="2.5" stroke-linecap="butt"/><path d="M250.32535,192.21634c-0.26667,0.25165 -1.99764,-0.87075 -3.86625,-2.5069c-1.86861,-1.63615 -3.16726,-3.16652 -2.90058,-3.41816c0.26667,-0.25165 1.99764,0.87075 3.86626,2.5069c1.86861,1.63615 3.16728,3.16653 2.90059,3.41817z" data-paper-data="{&quot;index&quot;:null}" fill="none" stroke="#000000" stroke-width="2.5" stroke-linecap="butt"/></g></g></svg>