<svg version="1.1" xmlns="http://www.w3.org/2000/svg" xmlns:xlink="http://www.w3.org/1999/xlink" width="127.66667" height="127.66667" viewBox="0,0,127.66667,127.66667"><g transform="translate(-176.16667,-116.16666)"><g data-paper-data="{&quot;isPaintingLayer&quot;:true}" fill-rule="nonzero" stroke-linejoin="miter" stroke-miterlimit="10" stroke-dasharray="" stroke-dashoffset="0" style="mix-blend-mode: normal"><path d="M176.16667,243.83333v-127.66667h127.66667v127.66667z" fill="none" stroke="none" stroke-width="NaN" stroke-linecap="butt"/><g stroke="#000000" stroke-width="1" stroke-linecap="butt"><path d="M231.06027,178.49025c0.44604,-1.22426 1.83649,-4.15853 3.06796,-4.74415c3.51246,-1.67036 4.68512,2.12885 4.95759,4.687c0.0031,2.38727 -1.20004,6.14973 -3.49349,8.83185c-1.58133,1.8493 -3.9459,2.97064 -5.41127,3.64425c-0.49979,0.22975 -2.05033,0.0349 -4.0775,-3.25245c-1.89558,-3.07395 -3.04245,-7.64005 -1.91029,-8.3818c0.97428,-0.63833 6.55643,0.07539 6.55643,0.07539z" fill="#dc94e7"/><path d="M227.30814,182.89887c0.05379,0.04076 0.08424,0.07215 0.08424,0.07215l0.65813,0.78117c0.29722,0.82239 0.27679,1.565 0.29149,2.28761c0.01809,0.88943 -0.0127,1.74857 -0.57042,2.68894c-3.91292,5.38432 -14.60628,7.09836 -14.60628,-2.13614c0.0186,-3.85205 3.50711,-5.04006 7.16449,-5.10898c2.49192,-0.04696 5.06225,0.31611 6.66681,1.13844c0,0 0.17906,0.09228 0.31154,0.27681z" fill="#f89688"/></g><g><g stroke-linecap="butt"><path d="M251.06768,180.6293l0.95514,0.12926c4.07368,1.32683 3.57712,3.69013 2.81563,7.0772c0.14737,0.16876 0.29476,0.33752 0.44213,0.50627c1.04511,1.19738 2.94185,2.74336 1.15648,4.54473c-0.7966,0.80371 -2.3717,0.2442 -3.25458,0.07841c-2.1052,-0.39531 -6.08617,-1.04182 -7.22066,-3.25081c-1.46589,-2.85432 2.00566,-6.72506 3.67169,-8.63348c0,0 0.39525,-0.45261 0.92713,-0.39163c0.26682,-0.08745 0.50705,-0.05994 0.50705,-0.05994z" fill="#aa96c7" stroke="none" stroke-width="0.5"/><path d="M251.06768,180.6293l0.95514,0.12926c3.29047,1.07173 3.59912,2.8197 3.19488,5.2372c-2.34115,-1.79853 -4.33679,-2.87866 -7.42392,-2.70192c0.6536,-0.86414 1.33088,-1.63008 1.83973,-2.21297c0,0 0.39525,-0.45259 0.92712,-0.39162c0.26682,-0.08745 0.50705,-0.05994 0.50705,-0.05994z" fill="#a7649a" stroke="none" stroke-width="0.5"/><path d="M251.06768,180.6293l0.95514,0.12926c4.07368,1.32683 3.57712,3.69013 2.81563,7.0772c0.14737,0.16876 0.29476,0.33752 0.44213,0.50627c1.04511,1.19738 2.94185,2.74336 1.15648,4.54473c-0.7966,0.80371 -2.3717,0.2442 -3.25458,0.07841c-2.1052,-0.39531 -6.08617,-1.04182 -7.22066,-3.25081c-1.46589,-2.85432 2.00566,-6.72506 3.67169,-8.63348c0,0 0.39525,-0.45261 0.92713,-0.39163c0.26682,-0.08745 0.50705,-0.05994 0.50705,-0.05994z" fill="none" stroke="#000000" stroke-width="1"/></g><g><path d="M236.45594,191.07152c-3.3014,-0.64265 -7.45708,-0.07812 -10.83949,-0.07599h-0.16775c0,0 -0.07648,0 -0.18894,-0.02088c-0.07067,0.03118 -0.14933,0.05773 -0.23688,0.07855c-1.06248,0.25269 -1.30766,-0.84229 -1.30766,-0.84229c-0.40421,-1.82799 0.40794,-2.89039 1.24582,-3.9274c1.69088,-2.09273 4.77509,-3.28537 7.19954,-4.88029l0.36982,-0.19467c1.72978,-3.81587 4.36309,-8.29227 7.61832,-11.20603c2.108,-1.88687 4.18456,-3.31923 7.43309,-2.81398c1.31253,0.66377 2.18676,1.28105 3.16944,2.3955l0.15684,0.23476c0.02505,-0.00165 0.0392,-0.00166 0.0392,-0.00166c1.63446,0.05319 2.42791,-0.54295 4.20076,-0.15837c2.49741,0.54176 2.87416,1.649 2.71064,2.90598c-0.20373,1.56604 -1.43134,3.36451 -2.5952,4.59144c1.29098,1.90127 3.31553,7.02868 2.99978,7.38928c-0.08395,0.11642 -2.94903,-2.57611 -5.65661,-3.5184c-1.29172,-0.44954 -2.63899,-0.23366 -3.31434,0.37608c-2.62704,2.37184 -3.8162,10.56916 -4.18193,10.54321c-3.09617,-0.00847 -5.65772,-0.29148 -8.65441,-0.87482z" fill="#ab9efa" stroke="none" stroke-width="0.5" stroke-linecap="butt"/><path d="M240.14871,170.00251c2.108,-1.88687 4.18456,-3.31923 7.43309,-2.81398c1.31253,0.66377 2.18676,1.28105 3.16944,2.3955l0.15684,0.23476c0.02505,-0.00165 0.0392,-0.00166 0.0392,-0.00166c1.63446,0.05319 2.42791,-0.54295 4.20076,-0.15837c2.49741,0.54176 2.87416,1.649 2.71064,2.90598c-0.20373,1.56604 -1.43134,3.36451 -2.5952,4.59144c0.26301,0.38733 0.55645,0.90858 0.85436,1.49612c-1.03797,-0.90278 -2.27037,-1.6181 -3.53878,-2.18102c-1.01784,-0.73832 -2.09628,-1.3945 -3.07412,-1.8426c-3.09346,-0.51344 -6.11733,-1.99464 -9.34372,-0.66777c-2.15777,0.88739 -4.22526,3.14364 -6.19129,4.49076c0,0 -0.07558,0.05193 -0.15957,0.14713c1.64741,-3.11321 3.80448,-6.32817 6.33839,-8.59627z" fill="#9362ec" stroke="none" stroke-width="0.5" stroke-linecap="butt"/><path d="M247.25722,184.35844c-1.70221,-1.86859 -0.36662,-2.13765 1.2644,-2.04653c-0.42104,0.61789 -0.79743,1.37778 -1.13276,2.1974c-0.04305,-0.05123 -0.08682,-0.10166 -0.13164,-0.15086z" fill="#9362ec" stroke="none" stroke-width="0.5" stroke-linecap="butt"/><path d="M236.45594,191.07152c-3.3014,-0.64265 -7.45708,-0.07812 -10.83949,-0.07599h-0.16775c0,0 -0.07648,0 -0.18894,-0.02088c-0.07067,0.03118 -0.14933,0.05773 -0.23688,0.07855c-1.06248,0.25269 -1.30766,-0.84229 -1.30766,-0.84229c-0.40421,-1.82799 0.40794,-2.89039 1.24582,-3.9274c1.69088,-2.09273 4.77509,-3.28537 7.19954,-4.88029l0.36982,-0.19467c1.72978,-3.81587 4.36309,-8.29227 7.61832,-11.20603c2.108,-1.88687 4.18456,-3.31923 7.43309,-2.81398c1.31253,0.66377 2.18676,1.28105 3.16944,2.3955l0.19604,0.2331c1.63446,0.05319 2.42791,-0.54295 4.20076,-0.15837c2.49741,0.54176 2.87416,1.649 2.71064,2.90598c-0.20373,1.56604 -1.43134,3.36451 -2.5952,4.59144c1.29098,1.90127 3.31553,7.02868 2.99978,7.38928c-0.08395,0.11642 -2.94903,-2.57611 -5.65661,-3.5184c-1.29172,-0.44954 -2.63899,-0.23366 -3.31434,0.37608c-2.62704,2.37184 -3.8162,10.56916 -4.18193,10.54321c-3.09617,-0.00847 -5.65772,-0.29148 -8.65441,-0.87482z" fill="none" stroke="#000000" stroke-width="1" stroke-linecap="butt"/><path d="M245.99853,182.43772c0,0 1.50855,-1.03457 2.10145,-1.28526c0.46736,-0.1976 1.16975,-0.09782 1.16975,-0.09782" fill="none" stroke="#000000" stroke-width="1" stroke-linecap="round"/><path d="M248.51484,171.71886l2.26467,-1.64241" fill="none" stroke="#000000" stroke-width="1" stroke-linecap="round"/><path d="M240.71827,183.57699c-3.10704,1.19574 -5.8794,1.65684 -6.72017,0.66648c-0.85636,-1.00874 1.3405,-3.50525 4.44754,-4.70101c3.10704,-1.19574 5.93924,-1.50967 6.6363,-0.06139c0.69706,1.44829 -1.25663,2.90015 -4.36367,4.09591z" fill="none" stroke="#ae0010" stroke-width="1" stroke-linecap="butt"/><path d="M240.63041,182.69705l-2.09693,-2.76616" fill="none" stroke="#ae0010" stroke-width="1" stroke-linecap="round"/></g><g stroke="#000000"><path d="M220.08057,198.2567c0,0 -2.05653,-6.43708 -1.4274,-7.18043c0.63227,-0.74704 5.64121,-1.74397 5.64121,-1.74397c0,0 7.7391,-2.78177 10.29428,-2.87186c5.995,-0.21139 10.90659,4.96731 10.90659,4.96731c0,0 4.34707,0.28193 5.31698,1.08159c0.98693,0.8137 0.5544,3.7592 0.5544,3.7592c0,0 -3.3249,5.58972 -7.39329,5.84827c-5.76013,0.36604 -23.89279,-3.86009 -23.89279,-3.86009z" fill="#0045d8" stroke-width="0" stroke-linecap="round"/><path d="M234.8429,194.36678l-2.43243,-2.67972" fill="none" stroke-width="1" stroke-linecap="round"/><path d="M234.58869,186.46043c5.995,-0.21139 10.90659,4.96731 10.90659,4.96731c0,0 1.23518,0.08011 2.53562,0.27604c-3.79763,0.62059 -7.5642,-0.48351 -11.3322,-1.35792c-2.23856,-0.51949 -4.62901,-0.72931 -4.4221,2.08466c0.4074,0.44828 0.78579,0.92428 1.1572,1.40463c0.15169,0.1962 0.74293,0.51613 0.50139,0.54718c-2.53896,0.32629 -3.83458,-2.33503 -5.43434,-3.76419c-0.97041,-0.86693 -2.0245,-1.26343 -3.15036,-1.6556c2.20701,-0.75998 7.2663,-2.43259 9.23821,-2.50211z" fill="#080f95" stroke-width="0" stroke-linecap="butt"/><path d="M220.08057,198.25669c0,0 -2.05654,-6.43708 -1.4274,-7.18043c0.63227,-0.74704 5.64123,-1.74397 5.64123,-1.74397c0,0 7.73908,-2.78177 10.29427,-2.87186c5.99499,-0.21139 10.90659,4.96731 10.90659,4.96731c0,0 4.34709,0.28193 5.31698,1.08159c0.98694,0.8137 0.5544,3.7592 0.5544,3.7592c0,0 -3.3249,5.58972 -7.39329,5.84827c-5.76013,0.36605 -23.89278,-3.86009 -23.89278,-3.86009z" fill="none" stroke-width="1" stroke-linecap="round"/></g><g><path d="M209.77732,206.68171c0.67172,0.69226 -0.9267,2.40039 -0.13024,2.93398c0.96181,0.64436 1.88869,1.14111 2.82611,1.50601h3.7323l0.50431,-0.08662l0.32226,-0.09489l0.0984,-0.00339l0.09267,-0.03429l0.46623,-0.04805l0.35916,-0.09254h0.08934l0.08457,-0.02967l0.63929,-0.05491l0.38471,-0.04405l0.29355,-0.08644l0.01864,-0.00064l0.01646,-0.00905l0.41854,-0.10784l0.64837,-0.19091l0.34551,-0.17805l0.09269,-0.02122l0.08162,-0.05002l0.45506,-0.14069l0.63277,-0.32606l0.39223,-0.25264l0.05021,-0.01678l0.04007,-0.03539l0.45726,-0.23562l0.13942,-0.10777l0.09135,-0.03964l0.07525,-0.06647l0.37543,-0.19347l0.24545,-0.16864l0.19386,-0.14985l0.13262,-0.05755l0.11665,-0.08683l0.19147,-0.07893l0.19768,-0.12223l0.04091,-0.01283l0.03246,-0.02868l0.21392,-0.11024l0.2299,-0.19744l0.11417,-0.05679l0.09624,-0.08502l0.21808,-0.11237l0.07661,-0.01755l0.06621,-0.04343l0.25361,-0.08713l0.43843,-0.22592l0.23669,-0.14635l0.08446,-0.0265l0.07157,-0.05327l0.16719,-0.06892l0.0691,-0.04747l0.06489,-0.02388l0.05232,-0.04621l0.15735,-0.08109l0.10708,-0.07357l0.05406,-0.0199l0.00854,-0.03129l0.08678,-0.04769l0.06399,-0.07696l0.08483,-0.00486l0.26026,-0.14304l0.00446,-0.00115l0.04192,-0.03241l0.09135,-0.03964l0.07525,-0.06647l0.15735,-0.08109l0.10708,-0.07357l0.17573,-0.06468l0.16465,-0.09049l0.43616,-0.11237h0.02658l0.02404,-0.01173l0.22932,-0.04727l1.10248,-0.32463l0.152,-0.00522l0.14756,-0.03801h0.11011l0.71192,-0.14674l0.10849,0.00533l0.10537,-0.02715h0.1502l0.36879,-0.04751l0.0684,0.00854l0.06684,-0.01722h0.18236l0.12185,-0.02092l0.16315,-0.06726l0.12962,-0.01821l0.12114,-0.05086l0.38164,-0.05619l0.07807,0.00832l0.02887,-0.00744l0.00211,-0.00089l0.00311,-0.00046l0.04207,-0.01083h0.03155l0.23119,-0.03403l0.31002,-0.09129l0.152,-0.00522l0.14756,-0.03801h0.2122l0.41373,-0.04738l0.26745,-0.03938l0.23384,-0.08033l0.08624,-0.00683l0.07932,-0.03555l0.32712,-0.05619l0.09084,0.0075l0.08841,-0.02278h0.87232l0.17005,0.04382l0.17477,0.01386l0.16356,0.05619l0.31609,0.2073l0.07184,0.01481l0.03352,0.05429l0.05268,0.03455l0.01438,0.07403l0.0346,0.05601l0.0284,0.00586l0.07522,0.12181l0.10638,0.09397l0.00463,0.08579l0.1155,0.18704l0.05452,0.16857l0.01345,0.18012l0.04252,0.17525v0.67425l-0.04252,0.17525l-0.01345,0.18012l-0.03203,0.09901l0.00323,0.01218l-0.01612,0.02767l-0.0096,0.0297l-0.13451,0.21784l-0.12891,0.22142l-0.02148,0.02214l-0.01681,0.02723l-0.01201,0.00247l-0.16777,0.1729l-0.1503,0.09295l-0.13308,0.11755l-0.0454,0.0234l-0.00607,0.01095l-0.03038,0.00783l-0.02718,0.014l-0.06172,0.01414l-0.02774,0.01716l-0.02117,-0.00596l-0.13393,0.03068l-0.24306,0.06263h-0.03038l-0.03058,0.007l-0.0102,-0.007h-0.04581l-0.08341,0.0547l-0.16356,0.05619l-0.17477,0.01386l-0.17005,0.04382h-0.13836l-0.08785,0.02264h-0.01204l-0.11839,0.02712l-0.24306,0.06263h-0.03038l-0.03058,0.007l-0.00566,-0.00389l-0.20598,0.05307h-0.02932l-0.08785,0.02264h-0.02658l-0.02404,0.01173l-0.2726,0.05619l-0.01689,-0.00084l-0.21716,0.05595l-0.2313,0.08514l-0.0195,-0.01005l-0.04519,0.01863l-0.06847,0.03528l-0.07661,0.01755l-0.06621,0.04343l-0.09004,0.03094l-0.03973,0.02048l-0.11723,0.02685l-0.10596,0.05824l-0.03485,0.00898l-0.00642,0.0044l-0.06489,0.02388l-0.05232,0.04621l-0.21808,0.11237l-0.11723,0.02685l-0.10596,0.05824l-0.10197,0.02627l-0.11102,0.05721l-0.11723,0.02685l-0.10596,0.05824l-0.17745,0.04572l-0.12384,0.04255l-0.17477,0.01386l-0.17005,0.04382h-0.10904l-0.21808,0.05619h-0.03038l-0.03058,0.007l-0.0102,-0.007h-1.44982c-0.47637,1.34553 -2.63956,2.54328 -4.12451,3.41574c-4.70921,2.76682 -9.74397,3.22377 -13.54555,2.98966c-1.13804,-0.07009 -3.49224,0.14907 -4.57663,-0.2872c-2.35236,-0.94639 -5.39618,-4.94317 -3.58885,-7.87013c0.2936,-0.47548 3.5665,-3.05251 3.96906,-1.57736c0.0603,0.06116 0.11372,0.12952 0.15896,0.2037c0.13374,0.10422 0.26991,0.22834 0.4086,0.37126z" fill="#ab9efa" stroke="none" stroke-width="0.5" stroke-linecap="butt"/><path d="M216.2055,211.1217l0.50431,-0.08663l0.32226,-0.09489l0.0984,-0.00339l0.09267,-0.03429l0.46622,-0.04804l0.35916,-0.09254h0.08934l0.08457,-0.02967l0.63929,-0.05491l0.38471,-0.04405l0.29356,-0.08644l0.01865,-0.00064l0.01646,-0.00905l0.41854,-0.10784l0.64838,-0.19091l0.34551,-0.17805l0.09269,-0.02122l0.08162,-0.05002l0.45506,-0.14069l0.63276,-0.32606l0.39223,-0.25264l0.0502,-0.01678l0.04007,-0.03539l0.45726,-0.23562l0.13942,-0.10775l0.09136,-0.03965l0.07526,-0.06647l0.37543,-0.19347l0.24545,-0.16864l0.19387,-0.14985l0.13262,-0.05755l0.11665,-0.08683l0.19147,-0.07893l0.19768,-0.12223l0.04091,-0.01282l0.03248,-0.02868l0.21392,-0.11024l0.2299,-0.19744l0.11417,-0.05679l0.09626,-0.08504l0.21808,-0.11237l0.07661,-0.01755l0.06621,-0.04344l0.25361,-0.08712l0.43843,-0.22592l0.23668,-0.14635l0.08446,-0.0265l0.07157,-0.05327l0.16718,-0.06892l0.0691,-0.04747l0.06489,-0.02388l0.05232,-0.04621l0.15736,-0.08109l0.10707,-0.07356l0.05406,-0.0199l0.00854,-0.03131l0.08678,-0.04769l0.064,-0.07695l0.08484,-0.00487l0.26026,-0.14304l0.00446,-0.00115l0.04191,-0.03241l0.09136,-0.03964l0.07526,-0.06647l0.15736,-0.08109l0.10708,-0.07357l0.17573,-0.06468l0.16465,-0.09049l0.43616,-0.11237h0.02658l0.02402,-0.01173l0.22932,-0.04728l1.10248,-0.32463l0.15201,-0.00522l0.14755,-0.03801h0.11011l0.71192,-0.14674l0.10849,0.00531l0.10537,-0.02715h0.1502l0.36879,-0.04751l0.0684,0.00854l0.06684,-0.01722h0.18236l0.12185,-0.02093l0.16315,-0.06726l0.12962,-0.0182l0.12114,-0.05087l0.38164,-0.05619l0.07808,0.00832l0.02887,-0.00744l0.00211,-0.00089l0.00311,-0.00046l0.04207,-0.01084h0.03155l0.23119,-0.03403l0.31002,-0.0913l0.15201,-0.00521l0.14755,-0.03801h0.2122l0.41373,-0.04738l0.26745,-0.03938l0.23384,-0.08032l0.08623,-0.00683l0.07932,-0.03555l0.32712,-0.05619l0.09084,0.00749l0.08842,-0.02278h0.87232l0.17005,0.0438l0.17477,0.01386l0.16356,0.05619l0.31608,0.2073l0.07184,0.01481l0.03352,0.05429l0.05269,0.03455l0.01438,0.07403l0.03459,0.05601l0.0284,0.00586l0.07522,0.12181l0.10637,0.09397l0.00463,0.08579l0.1155,0.18704l0.05452,0.16857l0.01345,0.18012l0.0425,0.17525v0.67425l-0.0425,0.17525l-0.01345,0.18012l-0.03202,0.09901l0.00322,0.01218l-0.01612,0.02767l-0.0096,0.0297l-0.13451,0.21784l-0.12891,0.22142l-0.02148,0.02215l-0.01681,0.02723l-0.01201,0.00248l-0.16777,0.1729l-0.1503,0.09295l-0.13308,0.11755l-0.0454,0.0234l-0.00607,0.01095l-0.03038,0.00783l-0.02718,0.014l-0.06172,0.01414l-0.02774,0.01715l-0.02117,-0.00596l-0.13393,0.03067l-0.24308,0.06263h-0.03038l-0.03058,0.007l-0.01018,-0.007h-0.04581l-0.08341,0.0547l-0.16356,0.05619l-0.17476,0.01386l-0.17006,0.04382h-0.13836l-0.08785,0.02264h-0.01204l-0.11839,0.02712l-0.24308,0.06263h-0.03038l-0.03058,0.007l-0.00566,-0.00389l-0.20599,0.05307h-0.02932l-0.08785,0.02264h-0.02658l-0.02402,0.01173l-0.2726,0.05619l-0.01689,-0.00084l-0.21716,0.05595l-0.2313,0.08515l-0.01951,-0.01005l-0.04519,0.01863l-0.06847,0.03528l-0.07661,0.01755l-0.06621,0.04343l-0.09004,0.03094l-0.03973,0.02048l-0.11722,0.02685l-0.10597,0.05823l-0.03484,0.00898l-0.00642,0.0044l-0.06489,0.0239l-0.05232,0.04621l-0.21808,0.11237l-0.11723,0.02685l-0.10596,0.05823l-0.10196,0.02627l-0.11102,0.05721l-0.11723,0.02685l-0.10596,0.05824l-0.17745,0.04571l-0.12382,0.04255l-0.17476,0.01386l-0.17006,0.04382h-0.10904l-0.21808,0.05619h-0.03038l-0.03058,0.007l-0.0102,-0.007h-1.44982c-0.47636,1.34553 -2.63956,2.54327 -4.12451,3.41572c-4.17114,2.45069 -8.59768,3.0892 -12.19648,3.04042c-0.27458,-0.88914 -0.65894,-1.78151 -0.64032,-1.93676c0.13782,-1.1491 1.05883,-1.9789 1.42148,-2.79332c0.0265,-0.0121 0.05226,-0.02562 0.07719,-0.04045z" fill="#9362ec" stroke="none" stroke-width="0.5" stroke-linecap="butt"/><path d="M209.77732,206.68171c0.67173,0.69226 -0.9267,2.40039 -0.13024,2.93398c0.96181,0.64436 1.88869,1.14111 2.82611,1.50601h3.7323l0.50431,-0.08663l0.32226,-0.09489l0.0984,-0.00339l0.09267,-0.03429l0.46622,-0.04804l0.35916,-0.09254h0.08934l0.08457,-0.02967l0.63929,-0.05491l0.38471,-0.04405l0.29356,-0.08644l0.01865,-0.00064l0.01646,-0.00905l0.41854,-0.10784l0.64838,-0.19091l0.34551,-0.17805l0.09269,-0.02122l0.08162,-0.05002l0.45506,-0.14069l0.63276,-0.32606l0.39223,-0.25264l0.0502,-0.01678l0.04007,-0.03539l0.45726,-0.23562l0.13942,-0.10775l0.09136,-0.03965l0.07526,-0.06647l0.37543,-0.19347l0.24545,-0.16864l0.19387,-0.14985l0.13262,-0.05755l0.11665,-0.08683l0.19147,-0.07893l0.19768,-0.12223l0.04091,-0.01282l0.03248,-0.02868l0.21392,-0.11024l0.2299,-0.19744l0.11417,-0.05679l0.09626,-0.08504l0.21808,-0.11237l0.07661,-0.01755l0.06621,-0.04344l0.25361,-0.08712l0.43843,-0.22592l0.23668,-0.14635l0.08446,-0.0265l0.07157,-0.05327l0.16718,-0.06892l0.0691,-0.04747l0.06489,-0.02388l0.05232,-0.04621l0.15736,-0.08109l0.10707,-0.07356l0.05406,-0.0199l0.00854,-0.03131l0.08678,-0.04769l0.064,-0.07695l0.08484,-0.00487l0.26026,-0.14304l0.00446,-0.00115l0.04191,-0.03241l0.09136,-0.03964l0.07526,-0.06647l0.15736,-0.08109l0.10708,-0.07357l0.17573,-0.06468l0.16465,-0.09049l0.43616,-0.11237h0.02658l0.02402,-0.01173l0.22932,-0.04728l1.10248,-0.32463l0.15201,-0.00522l0.14755,-0.03801h0.11011l0.71192,-0.14674l0.10849,0.00531l0.10537,-0.02715h0.1502l0.36879,-0.04751l0.0684,0.00854l0.06684,-0.01722h0.18236l0.12185,-0.02093l0.16315,-0.06726l0.12962,-0.0182l0.12114,-0.05087l0.38164,-0.05619l0.07808,0.00832l0.02887,-0.00744l0.00211,-0.00089l0.00311,-0.00046l0.04207,-0.01084h0.03155l0.23119,-0.03403l0.31002,-0.0913l0.15201,-0.00521l0.14755,-0.03801h0.2122l0.41373,-0.04738l0.26745,-0.03938l0.23384,-0.08032l0.08623,-0.00683l0.07932,-0.03555l0.32712,-0.05619l0.09084,0.00749l0.08842,-0.02278h0.87232l0.17005,0.0438l0.17477,0.01386l0.16356,0.05619l0.31608,0.2073l0.07184,0.01481l0.03352,0.05429l0.05269,0.03455l0.01438,0.07403l0.03459,0.05601l0.0284,0.00586l0.07522,0.12181l0.10637,0.09397l0.00463,0.08579l0.1155,0.18704l0.05452,0.16857l0.01345,0.18012l0.0425,0.17525v0.67425l-0.0425,0.17525l-0.01345,0.18012l-0.03202,0.09901l0.00322,0.01218l-0.01612,0.02767l-0.0096,0.0297l-0.13451,0.21784l-0.12891,0.22142l-0.02148,0.02215l-0.01681,0.02723l-0.01201,0.00248l-0.16777,0.1729l-0.1503,0.09295l-0.13308,0.11755l-0.0454,0.0234l-0.00607,0.01095l-0.03038,0.00783l-0.02718,0.014l-0.06172,0.01414l-0.02774,0.01715l-0.02117,-0.00596l-0.13393,0.03067l-0.24308,0.06263h-0.03038l-0.03058,0.007l-0.01018,-0.007h-0.04581l-0.08341,0.0547l-0.16356,0.05619l-0.17476,0.01386l-0.17006,0.04382h-0.13836l-0.08785,0.02264h-0.01204l-0.11839,0.02712l-0.24308,0.06263h-0.03038l-0.03058,0.007l-0.00566,-0.00389l-0.20599,0.05307h-0.02932l-0.08785,0.02264h-0.02658l-0.02402,0.01173l-0.2726,0.05619l-0.01689,-0.00084l-0.21716,0.05595l-0.2313,0.08515l-0.01951,-0.01005l-0.04519,0.01863l-0.06847,0.03528l-0.07661,0.01755l-0.06621,0.04343l-0.09004,0.03094l-0.03973,0.02048l-0.11722,0.02685l-0.10597,0.05823l-0.03484,0.00898l-0.00642,0.0044l-0.06489,0.0239l-0.05232,0.04621l-0.21808,0.11237l-0.11723,0.02685l-0.10596,0.05823l-0.10196,0.02627l-0.11102,0.05721l-0.11723,0.02685l-0.10596,0.05824l-0.17745,0.04571l-0.12382,0.04255l-0.17476,0.01386l-0.17006,0.04382h-0.10904l-0.21808,0.05619h-0.03038l-0.03058,0.007l-0.0102,-0.007h-1.44982c-0.47636,1.34553 -2.63956,2.54327 -4.12451,3.41572c-4.7092,2.76682 -9.74397,3.22377 -13.54555,2.98966c-1.13804,-0.07009 -3.49224,0.14907 -4.57663,-0.2872c-2.35235,-0.94639 -5.39618,-4.94317 -3.58886,-7.87013c0.29359,-0.47547 3.5665,-3.05251 3.96907,-1.57737c0.0603,0.06116 0.11372,0.12952 0.15896,0.2037c0.13375,0.10422 0.26991,0.22834 0.4086,0.37127z" fill="none" stroke="#000000" stroke-width="1" stroke-linecap="butt"/><path d="M229.05471,197.93004c0,0 2.29258,-4.50728 4.00721,-4.56238c3.4104,-0.1096 4.91423,10.48762 4.91423,10.48762c0,0 -2.396,1.1275 -3.78714,1.43472c-1.38438,0.30573 -4.53955,0.40416 -4.53955,0.40416c0,0 -3.88244,3.79827 -8.80606,5.46912c-4.16678,1.41401 -9.38872,0.81147 -10.44108,0.17947c-5.3669,-3.22315 -2.24676,-5.95809 1.10486,-8.68893c2.54582,-2.0743 5.05748,-4.62162 5.05748,-4.62162c0,0 0.45488,-4.98482 5.64987,-5.36093c3.81759,-0.27637 6.84016,5.25878 6.84016,5.25878z" fill="#ae1c51" stroke="#000000" stroke-width="0" stroke-linecap="round"/><path d="M233.0619,193.36767c3.4104,-0.1096 4.91423,10.48762 4.91423,10.48762c0,0 -2.39599,1.1275 -3.78714,1.43472c-1.38438,0.30573 -4.53955,0.40416 -4.53955,0.40416c0,0 -3.88244,3.79827 -8.80606,5.46912c-2.38715,0.81009 -5.12063,0.95832 -7.21797,0.81832c-0.01262,-0.39518 -0.04798,-0.77452 0.00779,-1.00914c0.1519,-0.63899 0.16805,-1.29038 0.32258,-1.92744c0.59094,-2.43608 3.15332,-5.20093 4.81381,-7.28836c2.2924,-2.88181 5.37358,-3.04464 8.19615,-4.99558c0.17177,-0.11872 0.46523,-0.4368 0.74079,-0.81204c0.84893,1.0668 1.34816,1.98102 1.34816,1.98102c0,0 0.19126,-0.376 0.5046,-0.91214c0.01937,0.15652 0.04144,0.32017 0.023,0.50958c-0.05921,0.11664 -0.0927,0.24936 -0.0927,0.39013c0,0.38257 0.24732,0.70561 0.58619,0.80854c0.24806,0.26677 0.95543,-0.17202 1.11517,-0.37485c0.55118,-0.69986 1.79302,-1.3606 1.79302,-2.39118c0,-0.68496 -0.43016,-1.67686 -1.03216,-2.06829c0.37783,-0.31183 0.75628,-0.5128 1.11011,-0.52417z" fill="#710c65" stroke="#000000" stroke-width="0" stroke-linecap="butt"/><path d="M233.0619,193.36767c3.4104,-0.1096 4.91423,10.48762 4.91423,10.48762c0,0 -2.39599,1.1275 -3.78714,1.43472c-1.38438,0.30573 -4.53954,0.40416 -4.53954,0.40416c0,0 -3.88244,3.79827 -8.80606,5.46912c-4.16678,1.41401 -9.38871,0.81149 -10.44108,0.17947c-5.3669,-3.22315 -2.24677,-5.95809 1.10485,-8.68893c2.54583,-2.0743 5.05749,-4.62162 5.05749,-4.62162c0,0 0.45488,-4.98482 5.64987,-5.36093c3.81759,-0.27639 6.84015,5.25877 6.84015,5.25877c0,0 2.29259,-4.50728 4.00722,-4.56237z" fill="none" stroke="#000000" stroke-width="1" stroke-linecap="round"/><path d="M234.70123,199.32672c-0.02096,0.24399 -0.16028,1.05515 -1.08669,1.05515c-1.0904,0 -1.0904,-1.12375 -1.0904,-1.12375l0.11512,-0.70688c0.16522,-0.34053 0.33042,-0.68106 0.49564,-1.0216c0,0 0.48764,-1.00512 1.46293,-0.50255c0.97529,0.50255 0.48764,1.50767 0.48764,1.50767c-0.12808,0.264 -0.25616,0.52797 -0.38423,0.79197z" fill="#000000" stroke="none" stroke-width="0.5" stroke-linecap="butt"/><path d="M219.13398,205.57552c-0.97529,0.50255 -1.46293,-0.50255 -1.46293,-0.50255l-0.49564,-1.0216c-0.44361,-1.23645 -2.08917,-1.05407 -3.25427,-1.35338c0,0 -1.05784,-0.27255 -0.79339,-1.36275c0.26446,-1.0902 1.3223,-0.81766 1.3223,-0.81766c2.08446,0.53872 3.53299,0.44659 4.67592,2.52866l0.49564,1.0216c0,0 0.48764,1.00512 -0.48764,1.50767z" fill="#ab9efa" stroke="none" stroke-width="0.5" stroke-linecap="butt"/><path d="M226.44618,199.12199c-0.44285,1.0269 -1.43927,0.57049 -1.43927,0.57049l-0.82193,-0.37943c-1.46762,-0.55143 -2.62412,-0.75107 -4.18722,-0.74962c0,0 -1.0904,0 -1.0904,-1.12375c0,-1.12375 1.0904,-1.12375 1.0904,-1.12375c1.80345,0.00155 3.23711,0.2511 4.93249,0.88494l0.96237,0.43783c0,0 0.99642,0.4564 0.55356,1.48329z" fill="#ab9efa" stroke="none" stroke-width="0.5" stroke-linecap="butt"/><path d="M217.49508,200.48186c-0.26855,-0.04341 -0.54482,-0.07812 -0.83088,-0.10461c0,0 -1.08592,-0.10175 -0.98721,-1.22088c0.09873,-1.11913 1.18465,-1.0174 1.18465,-1.0174c2.19741,0.20804 3.95475,0.84711 5.84767,2.01532l0.02325,0.03464l0.00853,-0.01256l0.97878,0.7061c0.28828,0.20222 0.4776,0.54314 0.4776,0.92963c0,0.62063 -0.4882,1.12375 -1.0904,1.12375c-0.07403,0 -0.14633,-0.00761 -0.21622,-0.02209l-1.06923,-0.20035c0,0 -0.56501,-0.63195 -1.59231,-1.15607c-0.70472,-0.35955 -1.76169,-0.60886 -2.46462,-0.80643z" fill="#ab9efa" stroke="none" stroke-width="0.5" stroke-linecap="butt"/><path d="M219.13398,205.57552c-0.97529,0.50255 -1.46293,-0.50255 -1.46293,-0.50255l-0.49563,-1.0216c-0.05969,-0.16637 -0.14114,-0.30705 -0.24026,-0.42669c0.62815,-0.36052 1.30245,-0.8982 1.58388,-0.95073c0.10238,-0.01911 0.21241,-0.04721 0.32896,-0.08363c0.09469,0.13922 0.1873,0.29073 0.27799,0.45593l0.49563,1.0216c0,0 0.48764,1.00511 -0.48764,1.50767z" fill="#9362ec" stroke="none" stroke-width="0.5" stroke-linecap="butt"/><path d="M226.44619,199.12199c-0.44285,1.0269 -1.43927,0.57051 -1.43927,0.57051l-0.82193,-0.37943c-0.17072,-0.06415 -0.33723,-0.12354 -0.50066,-0.17839c0.57402,-0.65799 1.01109,-1.33291 1.19255,-1.95367c0.01776,0.00657 0.03556,0.0132 0.05338,0.01986l0.96237,0.43783c0,0 0.99642,0.4564 0.55358,1.48329z" fill="#9362ec" stroke="none" stroke-width="0.5" stroke-linecap="butt"/><path d="M222.70931,200.15429l0.02325,0.03464l0.00853,-0.01256l0.97878,0.7061c0.28828,0.20223 0.4776,0.54314 0.4776,0.92963c0,0.62063 -0.48819,1.12375 -1.0904,1.12375c-0.07403,0 -0.14633,-0.00761 -0.21622,-0.02209l-1.06923,-0.20035c0,0 -0.44019,-0.49232 -1.24993,-0.96829c0.70339,-0.4378 1.44655,-0.99449 2.11771,-1.6031c0.00664,0.00409 0.01328,0.00818 0.01992,0.01229z" fill="#9362ec" stroke="none" stroke-width="0.5" stroke-linecap="butt"/><path d="M219.13398,205.57552c-0.97529,0.50255 -1.46293,-0.50255 -1.46293,-0.50255l-0.49563,-1.0216c-0.44361,-1.23645 -2.08916,-1.05408 -3.25427,-1.35339c0,0 -1.05785,-0.27254 -0.79339,-1.36275c0.26446,-1.09021 1.3223,-0.81766 1.3223,-0.81766c2.08445,0.53872 3.53299,0.4466 4.67591,2.52867l0.49563,1.0216c0,0 0.48764,1.00511 -0.48764,1.50767z" fill="none" stroke="#000000" stroke-width="1" stroke-linecap="butt"/><path d="M226.44619,199.12199c-0.44285,1.0269 -1.43927,0.57051 -1.43927,0.57051l-0.82193,-0.37943c-1.46763,-0.55143 -2.62412,-0.75107 -4.18721,-0.74962c0,0 -1.0904,0 -1.0904,-1.12375c0,-1.12375 1.0904,-1.12375 1.0904,-1.12375c1.80343,0.00155 3.23711,0.2511 4.93249,0.88494l0.96237,0.43783c0,0 0.99642,0.4564 0.55358,1.48329z" fill="none" stroke="#000000" stroke-width="1" stroke-linecap="butt"/><path d="M217.49508,200.48186c-0.26855,-0.04341 -0.54482,-0.07813 -0.83087,-0.10461c0,0 -1.08592,-0.10173 -0.98721,-1.22088c0.09871,-1.11914 1.18465,-1.0174 1.18465,-1.0174c2.19741,0.20804 3.95475,0.8471 5.84767,2.01531l0.02325,0.03464l0.00853,-0.01256l0.97878,0.7061c0.28828,0.20223 0.4776,0.54314 0.4776,0.92963c0,0.62063 -0.48819,1.12375 -1.0904,1.12375c-0.07403,0 -0.14633,-0.00761 -0.21622,-0.02209l-1.06923,-0.20035c0,0 -0.56502,-0.63195 -1.59232,-1.15606c-0.70472,-0.35955 -1.76169,-0.60886 -2.46462,-0.80644z" fill="none" stroke="#000000" stroke-width="1" stroke-linecap="butt"/></g><g><path d="M244.84024,214.47253c2.88599,1.57333 8.06787,0.42362 11.17404,-0.24148c2.51336,-0.53818 7.32208,-1.92464 8.97479,-3.98161c0.45284,-0.5636 1.46281,-3.01433 2.29326,-2.99671c0.15163,-0.08243 0.3255,-0.12926 0.51036,-0.12926c0.51976,0 0.9528,0.37032 1.04825,0.86082c0.01536,0.0141 0.03078,0.02887 0.04627,0.04432c0.99915,0.99639 -0.2955,3.97909 -0.60443,4.9694c-0.28247,0.9055 -1.00674,1.82381 -2.29084,2.84022c-3.29903,2.61122 -9.34445,5.07184 -11.76064,5.12857c-2.59351,0.06089 -5.87704,0.31895 -8.25535,-0.12435c-2.29431,-0.42765 -3.69704,-1.51969 -5.46621,-3.44296c-1.36201,-1.48064 -1.23386,-3.39246 -1.25563,-5.36812c-0.00676,-0.61353 -0.17575,-1.28401 -0.21921,-1.88466c-0.05415,-0.16208 -0.07715,-0.31788 -0.04153,-0.45872c-0.08667,-0.78436 -0.25755,-1.53839 -0.60372,-2.22885c-0.07812,-0.14799 -0.12234,-0.31654 -0.12234,-0.4954c0,-0.01242 0.00021,-0.02479 0.00065,-0.03712c0.02508,-1.17104 0.50844,-1.30755 1.05403,-1.02767c0.00438,-0.00006 0.00878,-0.00008 0.01317,-0.00008c0.55256,0 1.00711,0.41855 1.06221,0.95508c0.25015,0.31366 0.43534,0.626 0.48613,0.8286c0.17952,0.71611 0.23605,1.46683 0.25353,2.2289c1.1557,1.36119 2.69608,4.01203 3.70325,4.56109z" fill="#ab9efa" stroke="none" stroke-width="0.5" stroke-linecap="butt"/><path d="M268.28279,212.998c-0.28247,0.9055 -1.00675,1.82381 -2.29085,2.84022c-3.29902,2.61122 -9.34445,5.07184 -11.76063,5.12857c-2.59351,0.06089 -5.87704,0.31894 -8.25536,-0.12436c-2.29431,-0.42764 -3.69704,-1.51969 -5.46621,-3.44296c-0.66315,-0.72091 -0.97304,-1.54403 -1.11897,-2.42697c1.33273,1.61239 3.65422,3.34646 5.05702,3.77498c7.6687,2.34259 13.54536,-1.39148 20.06028,-4.42998c1.35482,-0.63188 3.25949,-1.83007 4.45084,-3.35582c-0.23561,0.83501 -0.54486,1.61553 -0.67611,2.03632z" fill="#9362ec" stroke="none" stroke-width="0.5" stroke-linecap="butt"/><path d="M244.84024,214.47253c2.88599,1.57333 8.06787,0.42362 11.17404,-0.24148c2.51336,-0.53818 7.32208,-1.92464 8.97479,-3.98161c0.45284,-0.5636 1.46281,-3.01433 2.29326,-2.99671c0.15163,-0.08243 0.3255,-0.12926 0.51036,-0.12926c0.51976,0 0.9528,0.37032 1.04825,0.86082c0.01536,0.0141 0.03078,0.02887 0.04627,0.04432c0.99915,0.99639 -0.2955,3.97909 -0.60443,4.9694c-0.28247,0.9055 -1.00674,1.82381 -2.29084,2.84022c-3.29903,2.61122 -9.34445,5.07184 -11.76064,5.12857c-2.59351,0.06089 -5.87704,0.31895 -8.25535,-0.12435c-2.29431,-0.42765 -3.69704,-1.51969 -5.46621,-3.44296c-1.36201,-1.48064 -1.23386,-3.39246 -1.25563,-5.36812c-0.00676,-0.61353 -0.17575,-1.28401 -0.21921,-1.88466c-0.05415,-0.16208 -0.07715,-0.31788 -0.04153,-0.45872c-0.08667,-0.78436 -0.25755,-1.53839 -0.60372,-2.22885c-0.07812,-0.14799 -0.12234,-0.31654 -0.12234,-0.4954c0,-0.01242 0.00021,-0.02479 0.00065,-0.03712c0.02508,-1.17104 0.50844,-1.30755 1.05403,-1.02767c0.00438,-0.00006 0.00878,-0.00008 0.01317,-0.00008c0.55256,0 1.00711,0.41855 1.06221,0.95508c0.25015,0.31366 0.43534,0.626 0.48613,0.8286c0.17952,0.71611 0.23605,1.46683 0.25353,2.2289c1.1557,1.36119 2.69608,4.01203 3.70325,4.56109z" fill="none" stroke="#000000" stroke-width="1" stroke-linecap="butt"/><path d="M242.73794,197.02805l11.77632,-3.37125l2.88956,4.5512l3.05311,-3.93313l2.9986,2.97795l-2.88956,4.5512l1.14492,1.29231c0,0 3.73553,0.79854 5.33274,2.58976c1.82561,2.04738 0.97452,5.35725 -9.42173,9.65915c-3.25627,1.34742 -9.32015,3.26535 -12.67075,0.93482c-1.21738,-0.84675 -3.01685,-1.5976 -3.56391,-2.98369c-0.63059,-1.59771 0.04451,-3.87322 -0.68587,-5.38594c-1.70756,-3.53656 -4.1787,-6.05021 -4.1787,-6.05021l0.87232,-5.28164l6.21528,3.93313z" fill="#ae1c51" stroke="#000000" stroke-width="0" stroke-linecap="round"/><path d="M267.04363,205.68606c1.82561,2.04738 0.97452,5.35725 -9.42173,9.65915c-3.25627,1.34742 -9.32015,3.26535 -12.67075,0.93482c-0.27597,-0.19195 -0.58185,-0.37898 -0.89627,-0.56958c0.36907,-0.3884 0.69141,-0.76395 0.89694,-0.94923c2.51994,-2.27148 5.84605,-3.59285 9.09069,-4.95823c3.00093,-1.26283 8.22863,2.19281 10.02532,-1.49566c0.89972,-1.84706 1.08599,-3.18232 0.76657,-4.14473c0.83046,0.39192 1.65063,0.89697 2.20926,1.52343z" fill="#710c65" stroke="#000000" stroke-width="0" stroke-linecap="butt"/><path d="M254.51425,193.6568l2.88956,4.5512l3.05311,-3.93313l2.9986,2.97795l-2.88956,4.5512l0.06138,0.06928c-4.11424,-0.45468 -9.94183,0.54665 -11.9121,-0.72216c-2.10956,-1.35851 -0.05997,-3.98264 -0.21024,-5.77404z" fill="#710c65" stroke="#000000" stroke-width="0" stroke-linecap="butt"/><path d="M238.4871,197.65535c0.07203,-0.08052 0.12903,-0.17556 0.16641,-0.28037l4.6168,2.9216c0.86906,1.47095 1.68617,2.87127 1.64842,3.64257c-0.00511,0.10449 -2.40683,-1.43274 -2.69121,-1.5481c-1.86395,-0.75606 -4.14498,-2.87069 -3.74043,-4.73571z" fill="#710c65" stroke="#000000" stroke-width="0" stroke-linecap="butt"/><path d="M242.73795,197.02805l11.77632,-3.37125l2.88956,4.5512l3.05311,-3.93313l2.9986,2.97795l-2.88956,4.5512l1.14492,1.29231c0,0 3.73553,0.79854 5.33274,2.58976c1.82561,2.04738 0.97452,5.35724 -9.42173,9.65915c-3.25627,1.34742 -9.32015,3.26535 -12.67075,0.93482c-1.21739,-0.84675 -3.01686,-1.5976 -3.56392,-2.98369c-0.63058,-1.59772 0.04451,-3.87322 -0.68587,-5.38594c-1.70757,-3.53656 -4.1787,-6.05021 -4.1787,-6.05021l0.87232,-5.28164l6.21528,3.93313z" fill="none" stroke="#000000" stroke-width="1" stroke-linecap="round"/><path d="M239.7379,202.60886c-0.88859,2.74729 -3.482,-1.14543 -2.51937,-1.71233c0.18967,-0.33122 0.53952,-0.55342 0.93973,-0.55342c0.52596,0 0.96496,0.38379 1.06769,0.89446c0.19026,0.4488 0.66224,0.90666 0.51197,1.37128z" fill="#000000" stroke="none" stroke-width="0.5" stroke-linecap="butt"/><path d="M254.05661,208.26557c-1.2843,0.01296 -2.6998,0.43867 -3.96662,0.64069c-4.63482,0.73917 -5.25989,-0.212 -3.91921,-1.39181c-0.81129,0.03591 -1.47935,-0.22171 -1.4224,-1.27826c0.02171,-0.40277 0.17266,-0.7598 0.42471,-1.07625c-0.47219,0.05488 -0.84296,-0.03486 -1.02584,-0.36472c-0.32139,-0.19547 -0.53699,-0.55602 -0.53699,-0.96847c0,-0.62063 0.4882,-1.12375 1.0904,-1.12375c0.01166,0 0.02328,0.00019 0.03485,0.00056c2.72999,-1.72717 8.62725,-1.61559 10.61534,-1.63c0.94362,-0.00684 2.81624,-0.69966 2.81624,1.01138c0,0.33189 -0.16113,0.58231 -0.44585,0.77025c0.69466,0.11838 1.34516,0.31358 1.42883,0.62019l0.32549,0.80088c-0.10191,0.32243 -0.25352,0.60125 -0.44743,0.84252c1.04533,0.15417 1.99058,0.41779 2.01691,0.90628c0.1108,0.1759 0.17515,0.38574 0.17515,0.61106c0,0.62063 -0.4882,1.12375 -1.0904,1.12375c-0.11639,0 -0.22852,-0.01879 -0.3337,-0.05361c-1.6761,0.80423 -3.70161,0.53872 -5.73949,0.55929z" fill="#ab9efa" stroke="none" stroke-width="0.5" stroke-linecap="butt"/><path d="M255.35085,201.07356c0.94362,-0.00684 2.81624,-0.69966 2.81624,1.01138c0,0.33189 -0.16113,0.58231 -0.44584,0.77025c0.25389,0.04327 0.50188,0.09679 0.71845,0.16227v0.45113c-0.45965,0.78976 -0.93936,1.82527 -1.34628,2.847l-0.0342,0.01259l-0.28475,0.19565l-0.0635,0.03272l-0.05069,0.04478l-0.04074,0.00234l-0.1055,0.12685l-0.05259,0.04646l-0.00193,0.00071l-0.1212,0.08327l-0.0635,0.03272l-0.03923,0.03466l-0.04866,0.01791l-0.16356,0.11237l-0.02713,0.03076l-0.06126,0.01263l-0.02974,0.01452l-0.02674,-0.00752l-0.15797,0.09768l-0.16648,0.08127l-0.00876,0.02709l-0.02822,0.01746l-0.06972,0.07186l-0.09938,0.05121l-0.03923,0.03466l-0.04866,0.01791l-0.00921,0.00633l-0.14047,0.02068h-0.45759l-0.26348,-0.13577l-0.05746,-0.01316l-0.04966,-0.03256l-0.16356,-0.05619l-0.03197,-0.00254l-0.0283,-0.01555l-0.10002,-0.02577l-0.16825,-0.10404l-0.00445,-0.00139l-0.0074,-0.01336l-0.19706,-0.05077l-0.00218,-0.00069l-0.0251,-0.03018l-0.02766,-0.00158l-0.02376,-0.02346l-0.38164,-0.22475l-0.02236,-0.00648l-0.01764,-0.01559l-0.15212,-0.0784l-0.15908,-0.12296l-0.04763,-0.02067l-0.03732,-0.03685l-0.28654,-0.16876l-0.19242,-0.19831l-0.06413,-0.09913l-0.06027,-0.05647l-0.0419,-0.07199l-0.05178,-0.05336l-0.39125,-0.60482l-0.06027,-0.05647l-0.0419,-0.07199l-0.58455,-0.60243l-0.0194,-0.02332l-0.02884,-0.07061l-0.32712,-0.4495l-0.04569,-0.03826l-0.03028,-0.05202l-0.82447,-0.84968l-0.21428,-0.30917l-0.14675,-0.25208l-0.07119,-0.07337l-0.05179,-0.08897l-0.07702,-0.07938l-0.18978,-0.24448l-0.03662,-0.02875l-0.02369,-0.0407l-0.07702,-0.07938l-0.13566,-0.17476l-0.00057,-0.00116l-0.0824,-0.21232c2.63521,-0.4311 5.54197,-0.38802 6.82376,-0.39733z" fill="#9362ec" stroke="none" stroke-width="0.5" stroke-linecap="butt"/><path d="M254.05661,208.26557c-1.2843,0.01296 -2.6998,0.43867 -3.96662,0.64069c-4.63482,0.73917 -5.25989,-0.21199 -3.91921,-1.39181c-0.81129,0.03589 -1.47935,-0.22171 -1.4224,-1.27827c0.02171,-0.40277 0.17264,-0.75979 0.42471,-1.07625c-0.47219,0.05488 -0.84296,-0.03486 -1.02584,-0.36473c-0.32139,-0.19547 -0.53699,-0.55602 -0.53699,-0.96846c0,-0.62063 0.48819,-1.12375 1.0904,-1.12375c0.01166,0 0.02328,0.00018 0.03486,0.00056c2.73,-1.72716 8.62725,-1.61559 10.61535,-1.63c0.94362,-0.00684 2.81624,-0.69966 2.81624,1.01138c0,0.33189 -0.16113,0.58231 -0.44584,0.77025c0.69466,0.11838 1.34516,0.31358 1.42883,0.62019l0.32549,0.80088c-0.10191,0.32243 -0.25352,0.60124 -0.44743,0.84252c1.04533,0.15417 1.99059,0.4178 2.01692,0.90629c0.1108,0.1759 0.17514,0.38574 0.17514,0.61106c0,0.62063 -0.48819,1.12375 -1.0904,1.12375c-0.11639,0 -0.22852,-0.0188 -0.3337,-0.05361c-1.67611,0.80423 -3.7016,0.53872 -5.7395,0.55929z" fill="none" stroke="#000000" stroke-width="1" stroke-linecap="butt"/><path d="M245.13681,204.89432c0,0 3.72145,-1.22239 5.84505,-1.55115c2.1107,-0.32675 6.8581,-0.41542 6.8581,-0.41542" fill="none" stroke="#000000" stroke-width="1" stroke-linecap="round"/><path d="M245.95462,207.53513c0,0 4.12537,-1.00923 6.31253,-1.32331c2.24559,-0.32248 6.99035,-0.58706 6.99035,-0.58706" fill="none" stroke="#000000" stroke-width="1" stroke-linecap="round"/></g><path d="M249.88312,194.1938c-0.02685,-0.02441 -0.05315,-0.04842 -0.07884,-0.07199c0.0277,0.01229 0.05551,0.0246 0.0834,0.03693c-0.00157,0.01161 -0.00309,0.02329 -0.00455,0.03506z" fill="#061382" stroke="#000000" stroke-width="0" stroke-linecap="butt"/><g stroke="#000000"><path d="M245.32751,191.68706l4.52935,-2.16106l5.53587,3.19836l2.85182,-1.46952l4.3616,4.75434c0,0 -5.65976,6.50213 -8.61686,6.23378c-4.62567,-0.41976 -5.55833,-8.30841 -5.55833,-8.30841z" fill="#0045d8" stroke-width="0" stroke-linecap="round"/><path d="M262.60615,196.00919c0,0 -5.65976,6.50214 -8.61686,6.23378c-3.37805,-0.30655 -4.78656,-4.59634 -5.30063,-6.88809c1.56937,1.45842 3.95072,3.50362 6.4294,4.12813c1.45333,0.36617 4.88382,-4.69 5.13511,-6.03867z" fill="#080f95" stroke-width="0" stroke-linecap="butt"/><path d="M245.32751,191.68706l4.52936,-2.16107l5.53587,3.19836l2.8518,-1.46952l4.3616,4.75434c0,0 -5.65976,6.50214 -8.61686,6.23378c-4.62567,-0.41976 -5.55833,-8.30841 -5.55833,-8.30841" fill="none" stroke-width="1" stroke-linecap="round"/></g></g><g><path d="M274.57809,177.61216c-1.38645,-0.02998 -1.95027,-1.89357 -3.9164,-3.48047c-2.00475,-1.61806 -4.2604,-2.92785 -4.484,-3.33389c-0.62591,-1.1366 0.59885,-2.03384 1.28535,-2.59962c0.13195,-0.10875 3.33741,0.45929 6.23854,1.58065c2.44097,0.94349 4.65833,2.32701 4.72937,3.54894c0.00563,0.09691 0.00253,0.19248 -0.00852,0.28624c-0.00391,0.08275 -0.01282,0.16617 -0.02695,0.24991c-0.07031,0.41646 -1.9663,3.78829 -3.81739,3.74825z" fill="#0045d8" stroke="none" stroke-width="0.5" stroke-linecap="butt"/><path d="M274.5781,177.61216c-1.38645,-0.02998 -1.95026,-1.89358 -3.9164,-3.48047c-2.00475,-1.61806 -4.26041,-2.92785 -4.484,-3.33389c-0.22536,-0.40923 -0.2108,-0.78743 -0.06785,-1.1303c2.00033,0.32931 3.97322,0.68032 4.49083,0.99257c2.56758,1.54892 3.95768,4.09964 5.71542,6.14354c-0.54247,0.48127 -1.14257,0.82142 -1.73802,0.80856z" fill="#080f95" stroke="none" stroke-width="0.5" stroke-linecap="butt"/><path d="M274.5781,177.61216c-1.38645,-0.02998 -1.95026,-1.89358 -3.9164,-3.48047c-2.00475,-1.61806 -4.26041,-2.92785 -4.484,-3.33389c-0.62591,-1.13659 0.59885,-2.03384 1.28535,-2.59963c0.13195,-0.10875 3.33741,0.45929 6.23854,1.58064c2.44096,0.94349 4.65834,2.32701 4.72937,3.54895c0.00563,0.09691 0.00253,0.19247 -0.00853,0.28625c-0.00391,0.08275 -0.01282,0.16617 -0.02695,0.2499c-0.07031,0.41646 -1.96629,3.78829 -3.81739,3.74826z" fill="none" stroke="#000000" stroke-width="1" stroke-linecap="butt"/><g fill="none" stroke="none" stroke-width="1" stroke-linecap="butt" font-family="sans-serif" font-weight="normal" font-size="12" text-anchor="start"/><g stroke="#000000" stroke-linecap="round"><path d="M227.63573,165.72275c0,0 -3.44316,-26.08727 18.3982,-21.46216c22.39483,4.74231 14.68611,24.35316 14.68611,24.35316c0,0 6.77549,-3.76224 7.55062,-3.04856c0.65426,0.6024 -1.46393,5.29332 -2.58588,7.02731c-0.82903,1.2813 -2.1722,4.13688 -3.53159,4.06124c-0.85562,-0.04762 -3.79485,-3.52076 -3.79485,-3.52076c0,0 -7.91749,2.76069 -14.71778,2.84231c-6.71519,0.08059 -15.79783,-2.73795 -15.79783,-2.73795c0,0 -6.74295,-2.13425 -6.47023,-4.60941c0.23238,-2.10903 6.26323,-2.90521 6.26323,-2.90521z" fill="#aa96c7" stroke-width="0"/><path d="M254.0254,174.40386c-0.03553,0.00908 -0.8562,-2.31736 -0.8562,-2.31736l-3.54217,1.93677l-3.34494,-8.08649l-7.37402,2.98004l0.27242,-6.64325c0,0 -11.71051,1.27898 -11.7118,1.24758c-0.25358,-6.18958 0.65256,-23.05376 18.56523,-19.26058c22.39483,4.74231 14.68611,24.35316 14.68611,24.35316c0,0 4.25223,5.16874 4.16384,5.31721c-0.77701,1.30525 -1.74963,2.77739 -2.73069,2.7228c-0.85562,-0.04762 -3.79485,-3.52076 -3.79485,-3.52076c0,0 -1.75993,0.61364 -4.33295,1.27089z" fill="#a7649a" stroke-width="0"/><path d="M260.8289,170.15408l3.21251,-0.81804l-2.02438,4.70648z" fill="#a7649a" stroke-width="0.5"/><path d="M246.0339,144.26059c22.39483,4.74231 14.68611,24.35316 14.68611,24.35316c0,0 6.77549,-3.76224 7.55062,-3.04856c0.65426,0.6024 -1.46393,5.29332 -2.58588,7.02731c-0.82903,1.2813 -2.1722,4.13688 -3.53159,4.06124c-0.85562,-0.04762 -3.79485,-3.52076 -3.79485,-3.52076c0,0 -7.91749,2.76069 -14.71778,2.84231c-6.71519,0.08059 -15.79783,-2.73795 -15.79783,-2.73795c0,0 -6.74295,-2.13425 -6.47023,-4.60941c0.23238,-2.10903 6.26323,-2.90521 6.26323,-2.90521c0,0 -3.44315,-26.08725 18.3982,-21.46214z" fill="none" stroke-width="1"/></g><g stroke="#000000" stroke-linecap="round"><path d="M267.94839,162.61674c0,0 -2.41867,3.03824 -3.739,4.21445c-1.14014,1.01568 -3.72201,2.43211 -3.72201,2.43211c0,0 -9.46578,-7.03001 -16.48924,-9.28137c-7.17398,-2.29961 -16.79951,-3.3244 -16.79951,-3.3244c0,0 -0.27541,-18.37582 3.67391,-20.35874c2.8757,-1.44388 10.47975,-1.87145 17.45251,0.07026c3.17799,0.88498 12.24304,3.51492 14.68317,7.13174c3.27042,4.84751 4.94018,19.11596 4.94018,19.11596z" fill="#ae1c51" stroke-width="0"/><path d="M267.94839,162.61674c0,0 -2.41867,3.03825 -3.739,4.21445c-1.14014,1.01568 -3.722,2.43211 -3.722,2.43211c0,0 -4.58402,-3.40445 -9.739,-6.23377c-0.13494,-0.07405 4.84202,-13.52369 8.67583,-18.46608c1.26954,-1.63662 2.97698,-1.96242 3.58399,-1.06267c3.27042,4.84752 4.94018,19.11597 4.94018,19.11597z" fill="#710c65" stroke-width="0.5"/><path d="M264.20939,166.8312c-1.14014,1.01568 -3.722,2.43211 -3.722,2.43211c0,0 -9.46578,-7.03001 -16.48925,-9.28136c-7.17398,-2.29961 -16.7995,-3.3244 -16.7995,-3.3244c0,0 -0.27541,-18.37583 3.67391,-20.35874c2.87571,-1.44387 10.47975,-1.87145 17.45251,0.07026c3.17799,0.88498 12.24304,3.51491 14.68315,7.13173c3.27042,4.84752 4.94018,19.11597 4.94018,19.11597c0,0 -2.41867,3.03824 -3.739,4.21444z" fill="none" stroke-width="1"/></g><g stroke="#000000" stroke-linecap="round"><path d="M226.96132,162.43336c0,0 -3.87001,0.25207 -5.67758,0.59866c-1.83525,0.35189 -5.25217,1.49702 -5.25217,1.49702c0,0 2.21075,-3.54689 3.54091,-5.08277c1.26323,-1.4586 4.2496,-3.91269 4.2496,-3.91269l-9.29473,-1.03304c0,0 10.65717,-11.03588 14.37974,-11.93703c2.22017,-0.53743 9.02644,5.86849 9.02644,5.86849c0,0 1.67777,-2.44081 2.73709,-3.52771c0.96463,-0.98974 3.36135,-2.7295 3.36135,-2.7295c0,0 0.42046,6.35087 0.91544,9.47865c0.51566,3.25839 2.11903,9.69589 2.11903,9.69589l13.25398,7.4462l-2.4345,6.40727l-4.45221,-7.13524l-3.08813,2.99489l-3.27914,-9.71309l-5.45985,3.20327l-0.22274,-5.23617c0,0 -11.04057,0.65643 -13.61921,1.42769c-0.70292,0.21024 -0.80328,1.68926 -0.80328,1.68926z" fill="#346def" stroke-width="0"/><path d="M231.5351,153.81737l-15.50353,10.71167c0,0 2.21075,-3.54689 3.5409,-5.08278c1.26322,-1.45861 4.2496,-3.91269 4.2496,-3.91269l-9.29472,-1.03305c0,0 10.65716,-11.03589 14.37974,-11.93703c2.22016,-0.53745 9.02645,5.86849 9.02645,5.86849c0,0 1.67776,-2.44081 2.73708,-3.52771c0.96463,-0.98974 3.36135,-2.72949 3.36135,-2.72949l-4.42637,11.32049c0,0 -7.93693,-5.95969 -10.10959,-6.02775c-3.40989,-0.10682 -9.25751,5.98323 -9.25751,5.98323z" fill="#45afff" stroke-width="0"/><path d="M251.31459,165.5215l-1.43447,4.16228l-1.98688,-5.88534z" fill="#45afff" stroke-width="0"/><path d="M216.03159,164.52905c0,0 2.21075,-3.54689 3.5409,-5.08278c1.26322,-1.45861 4.2496,-3.91269 4.2496,-3.91269l-9.29472,-1.03305c0,0 10.65716,-11.03589 14.37974,-11.93703c2.22016,-0.53745 9.02645,5.86849 9.02645,5.86849c0,0 1.67776,-2.44081 2.73708,-3.52771c0.96463,-0.98974 3.36135,-2.72949 3.36135,-2.72949c0,0 0.42045,6.35086 0.91543,9.47864c0.51565,3.25839 2.11903,9.69589 2.11903,9.69589l13.25398,7.4462l-2.4345,6.40727l-4.45221,-7.13523l-3.08814,2.99489l-3.27915,-9.7131l-5.45986,3.20327l-0.22274,-5.23617c0,0 -11.04057,0.65643 -13.61921,1.42769c-0.70292,0.21024 -0.80328,1.68926 -0.80328,1.68926c0,0 -3.86999,0.25208 -5.67757,0.59866c-1.80758,0.34659 -5.25216,1.49699 -5.25216,1.49699z" fill="none" stroke-width="1"/></g></g><g stroke-width="1" stroke-linecap="butt"><path d="M236.42001,166.7145c0.06497,1.43454 -6.0971,1.53684 -6.92393,0.19498c-0.41235,-0.22477 -0.70195,-0.66202 -0.72527,-1.17701c-0.0351,-0.77494 0.54603,-1.43249 1.29796,-1.46866c0.40162,-0.01932 0.77076,0.14254 1.03289,0.41563c2.24009,-0.27385 5.24142,0.33642 5.31835,2.03506z" fill="#000000" stroke="none"/><path d="M248.97709,169.63919c-0.27789,1.67592 -6.42722,0.88618 -7.3938,-0.36694c-0.4682,-0.1931 -0.82798,-0.62905 -0.91013,-1.17994c-0.12363,-0.82895 0.42822,-1.60423 1.23257,-1.73164c0.48253,-0.07643 0.9463,0.09767 1.26688,0.42816c2.57141,-0.16582 6.08709,1.14608 5.80449,2.85037z" fill="#000000" stroke="none"/><path d="M232.78596,168.85745c2.32029,-0.36752 6.47827,1.41277 8.72415,1.91755c0.63806,0.14341 1.6593,-0.19457 2.18253,0.20939c0.96526,0.74521 3.12838,-0.103 3.47694,1.56398c0.28326,1.35469 -1.56597,1.74871 -2.57847,1.44616c-1.96815,-0.58814 -11.50651,-1.49831 -12.3543,-2.52705c-0.44055,-0.16516 -0.77628,-0.54533 -0.8485,-1.0296c-0.0781,-0.52377 0.17327,-1.02677 0.60357,-1.31304c0.09589,-0.07501 0.22067,-0.13409 0.39284,-0.18306c0.0236,-0.00694 0.04749,-0.01332 0.07164,-0.01912c0.09569,-0.02396 0.20472,-0.04544 0.32961,-0.06522z" fill="#ad5893" stroke="#000000"/></g><g fill="none" stroke="#000000" stroke-width="1" stroke-linecap="round"><path d="M257.87951,142.31427v10.0986"/><path d="M259.7546,139.07275v17.20503"/><path d="M261.77394,140.07015v14.83621"/><path d="M263.64903,141.06753v11.47002"/><path d="M265.37989,142.93765v7.60511"/></g><g><path d="M205.54366,194.6108c-0.60668,-1.66366 0.21015,-3.51917 1.82443,-4.14441c1.61428,-0.62523 3.4147,0.21657 4.02139,1.88024c0.60668,1.66366 -0.21014,3.51915 -1.82442,4.14438c-1.61428,0.62523 -3.41472,-0.21657 -4.0214,-1.88021z" fill="#3f5479" stroke="#000000" stroke-width="1" stroke-linecap="butt"/><path d="M214.81413,174.51347c4.45836,-0.83277 10.85679,6.80177 9.95407,11.88744c-0.34745,1.95741 -1.94378,3.32663 -3.72231,3.66139c-0.16166,0.03044 -1.49973,-0.47329 -1.52888,-0.40586c-0.16463,0.38107 0.21716,1.56404 -0.38326,2.46875c-0.81104,1.22206 -2.62961,2.17243 -2.62961,2.17243c0,0 -1.10276,3.0608 -2.21,3.02702c-5.74656,-0.17525 -8.3872,-5.09813 -8.23318,-8.74706c0.0402,-0.95261 1.93345,-3.14474 2.52686,-4.71988c0.54314,-1.44173 -0.42318,-1.46859 0.24164,-2.24611c0.15076,-0.17631 0.64976,-0.78068 1.29911,-1.0913c0.71791,-0.34344 1.60921,-0.42087 2.18676,-1.2249c1.2036,-1.67552 0.06855,-4.32798 2.49878,-4.78191z" fill="#aa96c7" stroke="#000000" stroke-width="0" stroke-linecap="butt"/><path d="M218.27014,193.47818c-0.89788,-6.52763 8.72657,-10.84151 9.93432,-4.92172c0.61579,3.0183 -1.8717,3.29025 -3.59684,4.64576c-0.13205,0.10375 -0.23789,0.24077 -0.33034,0.40006c-0.0137,1.12362 -0.68536,2.17606 -1.76753,2.5952c-0.19872,0.07697 -0.40064,0.12847 -0.60244,0.15608c-1.0882,0.14893 -2.17218,-0.39668 -2.72231,-1.38926c-0.54877,-0.32479 -0.69409,-0.93048 -0.88999,-1.46769z" fill="#a7649a" stroke="#000000" stroke-width="1" stroke-linecap="butt"/><path d="M224.7682,186.40089c-0.34745,1.95741 -1.94378,3.32663 -3.7223,3.66138c-0.16166,0.03044 -1.49973,-0.47329 -1.52888,-0.40586c-0.16463,0.38107 0.21716,1.56404 -0.38326,2.46875c-0.81105,1.22206 -2.62961,2.17243 -2.62961,2.17243c0,0 -1.10276,3.0608 -2.21,3.02702c-1.03361,-0.03151 -1.96675,-0.21665 -2.80123,-0.52031c0.27845,-1.84779 0.63501,-3.23119 -0.04881,-5.10636c-0.2272,-0.62304 -0.60758,-2.37281 -0.92473,-2.92706c0.3726,-0.48179 0.31529,-0.40013 0.66069,-0.93551c0.1037,0.20519 0.22532,0.39929 0.36588,0.58092c0.20428,0.26398 0.45329,0.51329 0.73222,0.74017c0.61059,1.28416 2.08003,1.90391 3.40564,1.39048c0.18629,-0.07216 0.36041,-0.16307 0.52112,-0.26989c0.75957,-0.2474 1.27877,-0.91386 1.24002,-2.16557c0.01021,-0.15044 0.00867,-0.30267 -0.00522,-0.45528c0.57702,0.20311 1.22334,0.20895 1.83867,-0.02938c0.11763,-0.04556 0.23043,-0.09861 0.33805,-0.15842c0.62908,-0.34961 1.08155,-0.93025 1.2939,-1.59773c0.86471,-1.42485 1.77266,-3.51384 2.38337,-5.5117c1.16287,1.99706 1.80341,4.18874 1.47446,6.04193z" fill="#a7649a" stroke="#000000" stroke-width="0" stroke-linecap="butt"/><path d="M210.02619,188.09997l1.86825,0.47689c0,0 0.95993,2.20886 1.6904,3.03331c0.81912,0.92453 2.7105,2.35597 2.7105,2.35597" fill="none" stroke="#000000" stroke-width="1" stroke-linecap="round"/><path d="M214.5711,183.72039l1.68267,0.54876c0,0 0.5859,1.94438 1.22186,2.97212c0.65286,1.05505 2.41367,2.93186 2.41367,2.93186" fill="none" stroke="#000000" stroke-width="1" stroke-linecap="round"/><path d="M214.81413,174.51347c4.45836,-0.83277 10.85679,6.80176 9.95408,11.88744c-0.34745,1.95741 -1.94378,3.32663 -3.7223,3.66138c-0.16166,0.03044 -1.49973,-0.47329 -1.52888,-0.40586c-0.16463,0.38107 0.21716,1.56404 -0.38326,2.46875c-0.81105,1.22206 -2.62961,2.17243 -2.62961,2.17243c0,0 -1.10276,3.0608 -2.21,3.02702c-5.74656,-0.17525 -8.3872,-5.09813 -8.23318,-8.74706c0.04021,-0.95261 1.93345,-3.14474 2.52686,-4.71988c0.54314,-1.44173 -0.42318,-1.46859 0.24164,-2.24611c0.15711,-0.18374 0.51089,-0.72449 1.19616,-1.05937c0.69929,-0.34174 1.73417,-0.48346 2.2897,-1.25682c1.2036,-1.67551 0.06855,-4.32798 2.49878,-4.78191z" fill="none" stroke="#000000" stroke-width="1" stroke-linecap="butt"/><path d="M219.12671,182.20151c-1.1941,-3.27449 -0.40407,-6.28251 1.9789,-7.20546c2.38298,-0.92296 5.28277,0.98332 6.47687,4.25782c1.1941,3.27449 0.71732,6.2703 -1.66567,7.19327c-2.38298,0.92296 -5.59602,-0.97115 -6.7901,-4.24563z" fill="#93c0c3" stroke="none" stroke-width="0" stroke-linecap="butt"/><path d="M225.91682,186.44714c-2.30003,0.89083 -5.37331,-0.84267 -6.65818,-3.90875c2.78806,-1.05113 5.60623,-2.01885 8.40384,-3.05835c1.0911,3.18544 0.58235,6.06542 -1.74567,6.9671z" fill="#475f86" stroke="none" stroke-width="0" stroke-linecap="butt"/><path d="M218.62601,180.1291c0.80365,-0.20897 1.74585,-0.955 2.21946,-1.15798c1.05179,-0.45081 3.47406,-1.16607 5.19064,-2.33614c0.46131,0.51513 0.8709,1.12338 1.20312,1.8079c-2.77829,1.03154 -5.5765,1.99303 -8.34524,3.03646c-0.12873,-0.46 -0.21766,-0.91183 -0.26796,-1.35023z" fill="#475f86" stroke="none" stroke-width="0" stroke-linecap="butt"/><path d="M219.12671,182.20151c-1.1941,-3.27449 -0.40407,-6.28251 1.9789,-7.20546c2.38298,-0.92296 5.28277,0.98332 6.47687,4.25782c1.1941,3.27449 0.71732,6.2703 -1.66567,7.19327c-2.38298,0.92296 -5.59602,-0.97115 -6.7901,-4.24563z" fill="none" stroke="#000000" stroke-width="1" stroke-linecap="butt"/><path d="M221.52682,180.07139c-1.67558,-4.59485 0.13372,-9.87399 4.28471,-11.48174c4.151,-1.60775 7.96953,0.94599 9.64512,5.54083c1.67558,4.59485 -0.33114,9.62304 -4.48212,11.23078c-4.15099,1.60774 -7.7721,-0.69503 -9.44769,-5.28987z" fill="#3f5479" stroke="#000000" stroke-width="0" stroke-linecap="butt"/><path d="M235.45666,174.13051c1.67558,4.59485 -0.33114,9.62304 -4.48212,11.23078c-3.52364,1.36476 -6.66547,-0.08829 -8.55956,-3.36923c0.19801,0.00951 0.40463,0.00223 0.62001,-0.02331c4.61702,-0.54726 11.19313,-4.38745 11.44998,-9.89549c0.37468,0.62658 0.70111,1.3153 0.97167,2.05724z" fill="#323344" stroke="#000000" stroke-width="0" stroke-linecap="butt"/><path d="M225.44147,170.26091c-0.15889,-0.43572 0.05504,-0.92168 0.47782,-1.08543c0.42279,-0.16376 0.89433,0.05673 1.05322,0.49244c0.15889,0.43572 -0.05504,0.92168 -0.47782,1.08543c-0.42279,0.16376 -0.89433,-0.05673 -1.05322,-0.49244z" fill="#95c2c5" stroke="none" stroke-width="0.5" stroke-linecap="butt"/><path d="M221.52682,180.07139c-1.67558,-4.59485 0.13372,-9.87399 4.28471,-11.48174c4.151,-1.60775 7.96953,0.94599 9.64512,5.54083c1.67558,4.59485 -0.33114,9.62304 -4.48212,11.23078c-4.15099,1.60774 -7.7721,-0.69503 -9.44769,-5.28987z" fill="none" stroke="#000000" stroke-width="1" stroke-linecap="butt"/><path d="M235.6224,176.47982c0,0 -0.21387,2.8619 -4.80409,4.86956c-2.52991,1.10655 -5.73894,2.15512 -5.73894,2.15512" fill="none" stroke="#000000" stroke-width="1" stroke-linecap="round"/><path d="M235.23781,173.98771c0,0 -2.05381,1.56908 -3.56694,2.39956c-2.39918,1.31677 -9.4391,4.73874 -9.4391,4.73874" fill="none" stroke="#000000" stroke-width="1" stroke-linecap="round"/><path d="M221.35632,179.36421c0,0 2.07607,-3.75417 5.84182,-5.57623c3.20548,-1.55096 7.27281,-1.42406 7.27281,-1.42406" fill="none" stroke="#000000" stroke-width="1" stroke-linecap="round"/><path d="M220.69018,175.78066c0,0 1.87045,-3.23303 4.90372,-4.50475c3.04814,-1.27794 7.04395,-1.38328 7.04395,-1.38328" fill="none" stroke="#000000" stroke-width="1" stroke-linecap="round"/><path d="M229.15185,185.40861c0,0 -3.87796,-1.53377 -5.90267,-5.09027c-1.17061,-2.05622 -1.76293,-6.8268 -1.76293,-6.8268" fill="none" stroke="#000000" stroke-width="1" stroke-linecap="round"/><path d="M231.4549,184.69666c0,0 -4.48337,-2.84444 -6.04762,-6.24303c-1.2204,-2.65151 -1.4477,-8.56116 -1.4477,-8.56116" fill="none" stroke="#000000" stroke-width="1" stroke-linecap="round"/><path d="M233.78266,182.77469c0,0 -2.37801,-0.03634 -5.51251,-7.84667c-1.00891,-2.51393 -1.15943,-6.61617 -1.15943,-6.61617" fill="none" stroke="#000000" stroke-width="1" stroke-linecap="round"/><path d="M235.4398,179.97195l-4.08499,-10.72285" fill="none" stroke="#000000" stroke-width="1" stroke-linecap="round"/></g></g></g></svg>