<svg version="1.1" xmlns="http://www.w3.org/2000/svg" xmlns:xlink="http://www.w3.org/1999/xlink" width="220.26654" height="257.84143" viewBox="0,0,220.26654,257.84143"><g transform="translate(-189.86673,-51.0793)"><g data-paper-data="{&quot;isPaintingLayer&quot;:true}" fill-rule="nonzero" stroke-linejoin="miter" stroke-miterlimit="10" stroke-dasharray="" stroke-dashoffset="0" style="mix-blend-mode: normal"><g><g><g data-paper-data="{&quot;origRot&quot;:0}" stroke="#000000" stroke-width="3" stroke-linecap="round"><path d="M372.79809,218.5417c0.68628,2.35194 -8.01754,3.41785 -8.01754,3.41785c0,0 -22.9478,3.47556 -33.77936,5.16392c-4.6512,0.02498 -16.59506,-37.05363 -14.01381,-42.24814c1.15064,-2.31555 9.82285,-7.21988 11.62074,-6.30831c3.42212,1.73508 12.64736,15.78376 12.64736,15.78376l-3.93698,1.40593l10.64562,-2.67217c0,0 12.12021,-4.21584 17.66502,-4.53268c3.07519,-0.17572 7.16897,29.98984 7.16897,29.98984z" data-paper-data="{&quot;origPos&quot;:null}" fill="#582700"/><path d="M355.94033,191.43666l7.16711,29.18207" fill="none"/><path d="M359.28476,221.85227l-7.44503,-29.1138" data-paper-data="{&quot;origPos&quot;:null}" fill="none"/></g><path d="M363.08319,221.26626l-2.72445,0.68727l-7.51822,-29.80379l2.72445,-0.68726z" fill="#ffffff" stroke="none" stroke-width="0" stroke-linecap="butt"/><path d="M330.75837,227.34522l-5.83533,-9.43791l-6.92983,-22.97911l-0.55544,-8.47078l2.53342,-4.46029l7.15764,-2.24012l1.43152,-0.44803l11.5195,14.20787l-2.78839,1.13463l0.59738,1.90871l12.86919,-3.2418l8.31943,29.09316l-26.96224,4.24705z" fill="#66c8ff" stroke="#000000" stroke-width="0.5" stroke-linecap="round"/></g><g fill="#fffc96" stroke="#000000" stroke-width="2" stroke-linecap="round"><path d="M344.45269,193.15696c0,0 2.93648,-4.03309 5.73416,-2.09715c4.47617,3.09742 -19.44744,31.884 -24.28697,28.94642c-1.97731,-1.20023 -0.33901,-4.46008 -0.33901,-4.46008l1.94689,0.88307c0,0 5.64806,-4.3174 11.3745,-10.8956c5.64709,-6.48705 8.15952,-11.79151 8.15952,-11.79151z"/><path d="M335.17709,190.05551c0,0 -0.53943,-4.47823 2.04122,-4.0784c5.41716,0.83929 7.51262,42.25854 2.62607,40.25564c-2.9594,-1.21299 -2.15667,-5.19996 -2.15667,-5.19996l1.4483,0.60552c0,0 0.78261,-6.20143 0.15397,-15.56527c-0.62862,-9.36385 -2.69075,-15.61814 -2.69075,-15.61814z" data-paper-data="{&quot;index&quot;:null}"/></g></g><path d="M189.86673,308.92071v-257.84141h220.26654v257.84143z" fill="none" stroke="none" stroke-width="NaN" stroke-linecap="butt"/><g stroke="#000000" stroke-linecap="round"><path d="M314.21841,184.69451c0,0 -28.83627,0.58212 -25.55375,-17.09629c1.20938,-6.51331 16.864,-1.93632 16.864,-1.93632z" data-paper-data="{&quot;origPos&quot;:null}" fill="#66c8ff" stroke-width="2"/><path d="M308.47955,171.7179c0,0 -15.2915,-4.81658 -14.97277,-5.38101c1.01063,-1.78958 12.48345,0.94681 12.48345,0.94681z" data-paper-data="{&quot;origPos&quot;:null}" fill="#0a0a0a" stroke-width="1"/></g><g data-paper-data="{&quot;origRot&quot;:0}" stroke="#000000" stroke-linecap="round"><path d="M331.01327,226.00429c0,0 2.55051,-4.06715 3.83283,-3.20851c3.78392,2.53376 8.37587,3.56956 11.0246,7.27388c1.0999,1.53822 -0.62529,5.46462 -0.62529,5.46462l-14.30002,29.86026c0,0 -1.43639,3.10253 -2.32451,4.85604c-0.94956,1.8748 -3.5413,3.93309 -5.35068,2.86411c-6.6435,-3.92489 -11.50518,-5.14589 -15.01834,-8.64806c-1.2799,-1.2759 -2.55445,-2.714 -2.24793,-4.49504c0.40038,-2.32652 3.38649,-5.66853 3.38649,-5.66853z" data-paper-data="{&quot;origPos&quot;:null}" fill="#ff0000" stroke-width="3"/><path d="M326.84108,273.09175c0,0 -6.42071,-0.95762 -10.71938,-3.67783c-3.29809,-2.08704 -9.89402,-7.47267 -9.89402,-7.47267c0,0 0.25119,-2.9268 1.03161,-4.3266c0.82212,-1.47461 3.0747,-3.03879 3.0747,-3.03879l20.12408,11.79094z" data-paper-data="{&quot;origPos&quot;:null}" fill="#976e57" stroke-width="2"/><path d="M330.91047,226.31892c0,0 2.55051,-4.06715 3.83282,-3.2085c3.7839,2.53376 8.37588,3.56956 11.02459,7.27391c1.0999,1.53822 -0.62529,5.46461 -0.62529,5.46461l-14.30002,29.86026c0,0 -1.43637,3.10256 -2.32449,4.85606c-0.94956,1.8748 -3.54129,3.93309 -5.35068,2.86411c-6.6435,-3.92489 -11.50519,-5.14589 -15.01835,-8.64806c-1.2799,-1.2759 -2.55443,-2.71401 -2.24791,-4.49502c0.40038,-2.32652 3.38647,-5.66853 3.38647,-5.66853z" data-paper-data="{&quot;origPos&quot;:null}" fill="#4b4b4b" stroke-width="3"/></g><path d="M292.42384,262.83257c0,0 -1.72208,4.13767 -3.64666,5.50477c-1.47334,1.04657 -3.32118,0.51925 -5.02509,-0.08302c-4.677,-1.65318 -7.88031,-5.50878 -14.29216,-9.80168c-1.74629,-1.1692 -1.01119,-4.39616 0.26861,-6.06307c1.197,-1.55908 3.37329,-4.19586 3.37329,-4.19586l20.73996,-25.8066c0,0 2.79423,-3.25347 4.65682,-2.92693c4.48547,0.78635 7.40518,4.47882 11.32608,6.79493c1.32873,0.78491 -1.2355,4.84338 -1.2355,4.84338c0,0 -4.08753,8.02422 -6.70376,13.16014c-3.6925,7.24873 -9.46157,18.57395 -9.46157,18.57395z" fill="#4b4b4b" stroke="#000000" stroke-width="3" stroke-linecap="round"/><g><g><path d="M300.44287,187.53567c0,0 3.42075,-14.03818 5.66494,-14.34857c6.73255,-0.93117 21.6519,1.57495 31.68622,2.63504c1.5512,0.16387 1.52768,13.68555 1.52768,13.68555l-1.27814,30.47228c0,0 -1.2597,14.81467 -2.95191,14.6359c-15.06375,-1.59143 -32.80536,-2.61373 -39.4349,-4.15448c-2.20983,-0.51357 0.21738,-16.00416 0.21738,-16.00416z" data-paper-data="{&quot;origPos&quot;:null}" fill="#66c8ff" stroke="#000000" stroke-width="3.5" stroke-linecap="round"/><path d="M318.73711,197.66159c-1.31053,-0.13846 -1.06,-2.59779 -1.06,-2.59779c0.51963,-5.10084 1.20628,-11.84123 1.72593,-16.94208c0,0 0.25054,-2.45934 1.56107,-2.32089c1.31053,0.13846 1.06,2.59778 1.06,2.59778c-0.51963,5.10084 -1.03927,10.20168 -1.5589,15.30252l-0.16703,1.63954c0,0 -0.25054,2.45935 -1.56107,2.32089z" fill="#ffffff" stroke="none" stroke-width="0.5" stroke-linecap="butt"/><path d="M330.27445,205.20949c-1.31053,-0.13846 -0.99578,-3.22806 -0.99578,-3.22806c0.6528,-6.4081 1.51543,-14.87594 2.16825,-21.28401c0,0 0.31475,-3.08961 1.62528,-2.95116c1.31053,0.13846 0.99578,3.22806 0.99578,3.22806c-0.6528,6.4081 -1.30562,12.81619 -1.95841,19.22429l-0.20983,2.05974c0,0 -0.31475,3.08962 -1.62528,2.95117z" fill="#ffffff" stroke="none" stroke-width="0.5" stroke-linecap="butt"/></g><g fill="none" stroke="#b9b9b9" stroke-width="3"><path d="M335.13723,180.24026c-0.70282,-1.43142 0.34677,-2.53927 1.71026,-3.61242c1.3635,-1.07312 2.64629,-1.30928 3.22741,-0.27378c1.23211,2.19558 -0.37723,3.00041 -1.44488,3.84071c-1.3635,1.07314 -2.5002,2.06705 -3.49278,0.04552z" stroke-linecap="butt"/><path d="M333.31382,181.97502l2.88155,-2.2133" stroke-linecap="round"/><path d="M329.65215,182.21709c1.3635,-1.07312 2.6463,-1.30928 3.22741,-0.27378c1.23211,2.19558 -0.37723,3.00041 -1.44488,3.84071c-1.36348,1.07314 -2.50019,2.06704 -3.49278,0.04551c-0.70282,-1.43142 0.34675,-2.53928 1.71025,-3.61244z" stroke-linecap="butt"/><path d="M329.00003,185.35094l-2.88154,2.21332" stroke-linecap="round"/><path d="M320.45967,186.51446c0.57119,-1.57363 1.91322,-1.27732 3.409,-0.66079c1.49578,0.61654 2.37994,1.68601 2.00776,2.89346c-0.78911,2.5601 -2.24228,1.54015 -3.41352,1.05739c-1.49577,-0.61653 -2.8099,-1.06769 -2.00323,-3.29005z" stroke-linecap="butt"/><path d="M318.25668,185.87953l3.12418,1.33754" stroke-linecap="round"/><path d="M313.59554,181.41651c1.03866,-1.2061 2.15134,-0.30197 3.29635,0.97371c1.14502,1.27567 1.58744,2.68965 0.85016,3.64596c-1.56326,2.02763 -2.53568,0.39427 -3.43229,-0.60462c-1.14502,-1.27568 -2.18105,-2.31174 -0.71422,-4.01504z" stroke-linecap="butt"/><path d="M314.19337,182.50442l-2.37498,-2.71106" stroke-linecap="round"/><path d="M307.61373,174.66411c1.03865,-1.20608 2.15133,-0.30197 3.29635,0.97371c1.14503,1.27568 1.58744,2.68965 0.85016,3.64596c-1.56326,2.02762 -2.53568,0.39427 -3.43229,-0.60462c-1.14502,-1.27567 -2.18104,-2.31173 -0.7142,-4.01504z" stroke-linecap="butt"/><path d="M308.21158,175.75199l-2.37499,-2.71107" stroke-linecap="round"/></g></g><path d="M338.46778,179.14608c-12.03965,-1.06945 -23.71162,-2.14247 -28.38004,-3.61378c-4.26664,-1.34467 -5.30748,-4.22196 -5.30748,-4.22196c0,0 -1.50817,-2.59545 -1.44269,-4.12906c0.19642,-4.60083 1.37223,-17.69853 3.43068,-28.8877c0.0687,-0.37344 0.12084,-0.58083 0.21166,-0.94951c0.27246,-1.10604 1.51908,-5.38045 1.51908,-5.38045c0,0 3.33802,-1.33644 5.10903,-1.63648c5.31304,-0.9001 18.31418,1.88795 32.11926,3.67776c1.25125,0.16223 3.23632,2.04898 3.23632,2.04898c0,0 1.22321,3.27458 0.97893,5.24302c-1.57927,12.72621 -3.37344,26.80107 -3.99472,29.99794c-0.20708,1.06562 -2.45009,5.05297 -2.45009,5.05297z" fill="#582700" stroke="#000000" stroke-width="2.5" stroke-linecap="round"/><path d="M304.15491,132.34357c-0.55672,-1.11917 0.56245,-1.6759 0.56245,-1.6759l1.37874,-0.64002c0.1214,-0.02512 0.24261,-0.04949 0.3637,-0.0731c-0.46881,-5.85391 1.30571,-12.70108 1.81726,-18.39661c0.13266,-1.47706 0.1396,-5.51233 0.97351,-6.7104c1.3964,-2.00622 3.04351,-1.25231 4.93151,-1.07756c3.21241,0.29733 6.39527,0.63148 9.61711,0.45532c7.9856,-0.42725 15.82231,0.04187 23.8005,0.10288c2.51758,0.01926 4.96603,0.15537 7.45708,0.60365c0.6816,0.12265 1.58436,-0.04569 2.01801,0.4943c1.53588,1.91241 0.62395,3.7946 0.12447,5.71864c-0.99632,3.83784 -2.93496,7.20115 -3.42877,11.18035c-0.39814,3.04174 -1.1627,6.12955 -1.83612,9.12022c-0.2324,1.03205 -0.07422,2.99807 -1.20438,3.68376c-2.31734,1.40597 -7.8291,-0.32468 -10.34918,-0.64493c-7.6842,-0.97651 -15.3547,-2.11212 -23.08282,-2.64928c-2.77157,-0.09766 -5.42157,-0.10984 -8.11143,0.21745c-0.06099,0.36852 -0.28225,0.82773 -0.98242,0.96628c-0.75964,0.15032 -1.14181,-0.2631 -1.32265,-0.59946c-0.09233,0.01831 -0.18475,0.0371 -0.27728,0.05636l-0.7734,0.43054c0,0 -1.11917,0.55672 -1.6759,-0.56246z" fill="#000000" stroke="none" stroke-width="0.5" stroke-linecap="butt"/><path d="M322.35335,151.43681c4.94059,-1.92734 8.93344,0.73143 9.99979,5.67268c1.22299,5.66702 -2.93621,8.34297 -2.93621,8.34297c0,0 -2.41837,-1.3574 -5.6023,-2.09895c-3.96451,-0.92334 -6.22212,-0.71456 -6.22212,-0.71456c0,0 -1.9416,-8.5875 4.76084,-11.20215z" fill="#ffffff" stroke="#0a0a0a" stroke-width="2" stroke-linecap="butt"/><path d="M340.8006,154.30019c4.94059,-1.92734 8.93344,0.73143 9.99979,5.67268c1.22299,5.66702 -2.93621,8.34297 -2.93621,8.34297c0,0 -2.41837,-1.3574 -5.6023,-2.09895c-3.96451,-0.92334 -6.22212,-0.71456 -6.22212,-0.71456c0,0 -1.9416,-8.5875 4.76084,-11.20215z" fill="#ffffff" stroke="#0a0a0a" stroke-width="2" stroke-linecap="butt"/><g data-paper-data="{&quot;index&quot;:null}"><g stroke="#000000" stroke-width="3" stroke-linecap="round"><path d="M284.59105,208.65216l12.766,-27.44596c0,0 2.50337,-5.17487 3.67394,-5.25325c3.51166,-0.23509 9.40184,2.7814 15.87183,4.59976c1.07545,0.30225 -0.05752,6.13055 -0.05752,6.13055c0,0 -2.1935,9.09503 -3.59745,14.91631c-2.1381,8.86522 -5.47857,22.7161 -5.47857,22.7161c0,0 -1.47345,7.14129 -3.40667,6.43126c0,0 -10.10432,1.0484 -24.75535,-7.74392c0.33125,-4.60032 4.98378,-14.35084 4.98378,-14.35084z" data-paper-data="{&quot;origPos&quot;:null}" fill="#582700"/><path d="M284.06004,210.69244l24.72406,8.22441l-1.07943,3.2401l-24.76717,-7.96889z" data-paper-data="{&quot;origPos&quot;:null}" fill="none"/></g><path d="M284.91096,210.48148l15.87117,-34.11633l15.21788,5.03456l1.01493,1.03876l-7.87611,36.10856z" fill="#66c8ff" stroke="#000000" stroke-width="1" stroke-linecap="round"/><path d="M283.28138,213.79612l0.7519,-2.21623l24.60077,7.94833l-0.7519,2.21623z" fill="#ffffff" stroke="none" stroke-width="0" stroke-linecap="butt"/></g><path d="M298.41596,185.99603l0.20455,0.00143c0.68,2.04579 0.46072,3.78132 0.89589,5.84248c0.29907,1.41656 1.01711,2.07493 1.20244,3.597c0.11506,0.94506 -0.24653,2.00795 0.19931,2.84915c1.1217,2.11638 3.22404,1.8504 4.19436,4.47361c0.40806,1.10316 -0.48061,2.38673 -0.1805,3.52402c0.27445,1.03998 3.23251,2.31778 3.92015,3.16448c2.62628,3.23377 2.40254,6.35048 1.42158,10.0832c-0.99339,3.78 -1.43811,9.20847 -5.95084,10.56669c-2.07248,0.62375 -4.44019,-0.37303 -6.41432,-0.89182c-4.18936,-1.10098 -8.94704,-2.58337 -12.87939,-4.45281c-1.68216,-0.79971 -4.56201,-2.61062 -5.16944,-4.49552c-0.36064,-1.11907 0.32746,-3.27899 0.62432,-4.4195c1.71099,-6.46271 5.20344,-13.53088 8.75008,-19.19312c1.90586,-3.04271 3.88783,-5.42403 5.13997,-8.58586c-0.60605,-1.19165 0.5247,-2.08807 0.5247,-2.08807l0.15945,0.00112c0.11813,-0.33806 0.64946,-1.54626 2.11024,-1.16235c0.81715,0.21475 1.13612,0.72036 1.24744,1.18589z" fill="#000000" stroke="none" stroke-width="0.5" stroke-linecap="butt"/><path d="M304.7346,232.52565c0,0 -2.35367,1.69604 -3.53583,1.46362c-7.87398,-1.54813 -15.50473,-3.07254 -18.47772,-4.35999c-2.7171,-1.17663 -3.18653,-3.12153 -3.18653,-3.12153c0,0 -0.79958,-1.7947 -0.63995,-2.78742c0.47885,-2.97817 2.24953,-11.41274 4.45861,-18.54363c0.07373,-0.23798 0.12392,-0.36914 0.21189,-0.60248c0.26395,-0.7 1.41196,-3.3915 1.41196,-3.3915c0,0 2.30698,-0.63275 3.49992,-0.70244c3.57885,-0.20909 11.95773,2.52478 20.94353,4.66641c0.81445,0.19411 1.98291,1.56173 1.98291,1.56173c0,0 0.55979,2.21619 0.24901,3.47902c-2.00905,8.16442 -4.26247,17.19066 -4.91552,19.22568z" fill="#582700" stroke="#000000" stroke-width="2.5" stroke-linecap="round"/><g data-paper-data="{&quot;index&quot;:null}" stroke="#000000" stroke-width="1" stroke-linecap="butt"><g data-paper-data="{&quot;index&quot;:null}" fill="#000000"><path d="M317.82527,171.42358c-8.64447,-1.83682 -4.7822,-4.50955 -4.7822,-4.50955l10.85917,2.1628c0,0 2.05798,3.9965 -6.07695,2.34679z"/></g><g data-paper-data="{&quot;index&quot;:null}" fill="#ffffff"><path d="M317.82528,171.42362c-8.64447,-1.83682 -4.7822,-4.50955 -4.7822,-4.50955c0,0 7.34658,1.46317 9.17994,1.82832c0.0025,0.00052 -0.74566,0.71687 -0.90047,1.55127c-0.1268,0.68339 0.33656,1.51516 0.32016,1.5161c-0.91587,0.05251 -2.1534,-0.0487 -3.81741,-0.38614z"/></g></g><path d="M281.96527,213.99445c0.0058,-0.02034 0.00944,-0.03125 0.00944,-0.03125c1.14989,-3.29544 0.96635,-8.88677 3.64993,-11.51063c3.23209,-3.16015 11.52989,-1.7439 14.68723,0.88467c3.39188,2.82382 2.78731,8.10337 -1.03953,10.0168c-1.09377,2.26787 -3.99978,4.12917 -6.40959,4.99606c-1.37915,0.49612 -3.02352,-0.02247 -4.35815,0.58329c-2.51068,1.13954 -1.81137,4.30932 -5.37956,3.02376c-0.39715,1.20287 -1.21578,3.1845 -1.44215,3.7495l-0.57502,1.72507c-0.21992,0.71509 -0.88574,1.23488 -1.67296,1.23488c-0.78722,0 -1.45303,-0.51979 -1.67296,-1.23488l-0.58724,-1.76172l0.10198,-0.03399c-0.07926,-0.18358 -0.14422,-0.3733 -0.19103,-0.57081c-0.20603,-0.8693 0.61589,-1.67759 0.89709,-2.52556c0.88696,-2.67462 1.41516,-5.25242 2.6869,-7.80566z" fill="#000000" stroke="none" stroke-width="0.5" stroke-linecap="butt"/><path d="M293.71033,248.7413c1.56444,1.34715 3.87684,3.19928 4.36741,5.34002c0.30408,1.32695 -0.01851,2.10597 -0.3704,3.02036c0.72906,-0.0959 1.48056,-0.27176 1.94695,0.20352c2.7161,2.76788 -1.14161,6.39477 -1.68996,8.70916c-0.31563,1.33217 0.68228,2.85327 0.12813,4.10516c-1.73556,3.92091 -6.53967,4.17756 -10.05184,3.74421l-1.83294,-1.08649c0,0 -0.01415,-0.01061 -0.03853,-0.03112c-3.16788,1.35269 -8.08616,-0.37246 -11.41147,-0.36888c-4.81052,0 -9.36594,-0.64811 -14.12406,-1.0044c-5.34433,-0.40019 -12.01696,0.92386 -17.11048,-1.40721c-1.28269,-0.58703 -2.16641,-1.85502 -3.43516,-2.47159c-1.11563,-0.54216 -2.56648,0.04787 -3.69052,-0.47663c-0.95024,-0.44339 -1.65825,-1.28391 -2.48737,-1.92587c0.15286,-1.17627 -0.15394,-2.51303 0.45858,-3.5288c0.69137,-1.14653 1.71896,-1.21233 2.65157,-2.17293c2.15861,-2.22343 4.92538,-0.78997 9.38683,-0.67799c2.33691,0.05866 5.00278,-0.77019 7.43927,-1.15073c1.28362,-0.20048 2.74732,-1.35566 4.02792,-1.5746c3.42955,-0.58635 4.37645,-2.0681 7.88228,-1.81287c0.01519,-0.35425 2.25908,-0.48867 2.22335,-0.82415l1,-0.80556c0,0 -1.55556,-0.89442 -0.38449,-1.22999c0.56342,-0.5226 0.65151,-0.88712 0.81673,-1.60157c0.18126,-0.78383 0.76539,-2.57132 1.27887,-3.19067c0.45886,-0.55347 3.5947,-1.68404 4.42736,-1.64094c0.48929,0.02533 2.82889,1.25518 3.63931,1.2465c1.329,-0.01424 2.53628,-1.10765 3.86069,-0.9965c2.02568,0.17001 2.3999,1.13035 3.93714,1.93894c1.85056,0.97341 3.8532,0.57652 5.46511,1.29909c0.89022,-0.31275 1.68971,0.37253 1.68971,0.37253z" fill="#000000" stroke="none" stroke-width="0.5" stroke-linecap="butt"/></g></g></svg>