<svg version="1.1" xmlns="http://www.w3.org/2000/svg" xmlns:xlink="http://www.w3.org/1999/xlink" width="199.11324" height="221.55319" viewBox="0,0,199.11324,221.55319"><g transform="translate(-195.52004,-69.22341)"><g data-paper-data="{&quot;isPaintingLayer&quot;:true}" fill-rule="nonzero" stroke-linejoin="miter" stroke-miterlimit="10" stroke-dasharray="" stroke-dashoffset="0" style="mix-blend-mode: normal"><path d="M205.36674,290.77659v-221.55318h189.26654v221.55319z" fill="none" stroke="none" stroke-width="NaN" stroke-linecap="butt"/><g data-paper-data="{&quot;index&quot;:null}" fill="#000000"><path d="M216.09129,249.25031c-0.20496,-2.25285 -4.06064,-5.72516 -2.00582,-5.85124c1.36892,-0.08399 20.78486,3.36685 22.01641,4.72571c0.61705,0.68084 1.07925,1.81579 1.14769,2.5678c0.10056,1.10531 -0.38962,2.05404 -1.24025,2.75375c-0.88315,0.72645 -19.9671,2.27726 -21.01376,2.34149c-2.05481,0.12608 1.30073,-4.28466 1.09574,-6.53752z" stroke="#000000" stroke-width="1.5" stroke-linecap="butt"/><g stroke-linecap="butt"><path d="M209.32278,249.69123c-0.37137,-4.08164 1.47327,-7.5221 4.12011,-7.68449c2.64685,-0.16239 5.09358,3.01478 5.46495,7.09643c0.37133,4.08164 -1.47331,7.5221 -4.12014,7.68449c-2.64683,0.16242 -5.09357,-3.01477 -5.46493,-7.09641z" stroke="#000000" stroke-width="1.5"/><path d="M214.98044,245.6816l-1.76101,-3.23445c0,0 1.74495,0.55298 2.34388,1.04651c1.24099,1.05291 1.73129,2.56411 1.73129,2.56411z" stroke="none" stroke-width="0"/><path d="M216.02469,248.88888l-0.41294,-1.46811c0,0 0.91946,-0.16024 1.24795,-0.15881c0.38463,0.00168 1.08407,0.21294 1.08407,0.21294l0.20968,1.78122z" stroke="none" stroke-width="0"/></g><g><path d="M215.22539,249.43717c0.51229,5.63067 -2.45858,8.95223 -7.98857,9.29152c-5.52998,0.33927 -10.45446,-4.23881 -10.96678,-9.86954c-0.51232,-5.63069 3.04106,-9.85846 8.57105,-10.19775c5.52996,-0.33926 9.87198,5.14501 10.3843,10.77574z" stroke="#000000" stroke-width="1.5" stroke-linecap="butt"/><path d="M203.23015,239.15815c2.74366,-0.16836 5.71112,1.01724 7.94696,2.58665c1.59293,1.11813 2.81739,2.90241 2.99847,4.89274c0.37219,4.0911 -1.28465,5.65574 -6.12296,5.95259c-2.4162,0.14823 -5.51488,-1.11011 -7.65869,-2.74116c-2.14902,-1.63502 -3.58148,-2.92615 -3.58148,-2.92615c0,0 1.57938,-7.46781 6.41769,-7.76466z" stroke="none" stroke-width="0" stroke-linecap="butt"/><path d="M204.90342,238.9684c0,0 4.04701,2.54665 4.86756,9.04547c0.82728,6.55207 -2.27429,9.7456 -2.27429,9.7456" stroke="#000000" stroke-width="0.8" stroke-linecap="round"/><path d="M209.40381,239.87317c0,0 2.46598,3.68779 3.4531,7.77697c1.42258,5.89302 -0.27515,8.33531 -0.27515,8.33531" stroke="#000000" stroke-width="0.75" stroke-linecap="round"/><path d="M200.70109,240.12592c0,0 3.49488,2.75874 4.67566,9.2287c1.13572,6.22294 -0.60165,8.23441 -0.60165,8.23441" stroke="#000000" stroke-width="0.8" stroke-linecap="round"/><path d="M203.50687,257.61063c0,0 -2.51441,-3.73755 -3.61762,-6.84506c-1.45312,-4.09309 -1.8008,-8.39875 -1.8008,-8.39875" stroke="#000000" stroke-width="0.8" stroke-linecap="round"/><path d="M214.67153,251.63985c0,0 -2.86257,2.46501 -8.668,3.06222c-5.41748,0.5573 -8.08244,-2.03456 -8.08244,-2.03456" stroke="#000000" stroke-width="0.8" stroke-linecap="round"/><path d="M197.45823,250.6153c0,0 2.77879,0.01709 5.76598,-0.43942c2.62696,-0.40147 5.39341,-1.26975 6.87253,-1.44666c1.75679,-0.21011 4.73434,-0.19192 4.73434,-0.19192" stroke="#000000" stroke-width="0.8" stroke-linecap="round"/><path d="M196.72995,248.07334c0,0 4.02104,-3.17879 7.80682,-3.52048c5.9419,-0.5363 9.95043,1.41887 9.95043,1.41887" stroke="#000000" stroke-width="0.8" stroke-linecap="round"/><path d="M196.87422,244.80305c0,0 2.82486,-2.45953 6.52529,-3.32437c5.32876,-1.24541 8.35879,-0.00677 8.35879,-0.00677" stroke="#000000" stroke-width="0.8" stroke-linecap="round"/><path d="M203.82235,240.44052c0.03654,0.40148 -0.30269,0.74962 -0.75765,0.77751c-0.45497,0.02793 -0.85341,-0.27493 -0.88993,-0.67641c-0.03652,-0.4015 0.30268,-0.74962 0.75764,-0.77751c0.45497,-0.02795 0.85343,0.27491 0.88995,0.67639z" stroke="none" stroke-width="0" stroke-linecap="butt"/><path d="M200.44693,241.8847c-0.22747,0.01395 -0.42897,-0.16251 -0.45004,-0.39413c-0.02107,-0.23162 0.14626,-0.43071 0.37374,-0.44466c0.22748,-0.01394 0.42897,0.16251 0.45004,0.39413c0.02108,0.23162 -0.14626,0.43071 -0.37374,0.44466z" stroke="none" stroke-width="0" stroke-linecap="butt"/></g></g><g data-paper-data="{&quot;origRot&quot;:0}" fill="#000000" stroke="#000000" stroke-linecap="round"><path d="M328.99143,216.96696c0,0 0.45826,-4.7799 2.0306,-4.59051c4.63973,0.55894 9.32786,-0.58348 13.46798,1.53175c1.71919,0.87836 1.95246,5.16102 1.95246,5.16102l0.6922,33.10092c0,0 0.11722,3.41701 0.11352,5.38259c-0.00394,2.10156 -1.42846,5.10626 -3.58115,4.96633c-7.90403,-0.51372 -12.92501,0.58474 -17.76412,-0.96081c-1.76297,-0.56307 -3.59598,-1.27339 -4.13817,-3.00171c-0.70825,-2.25766 0.48447,-6.58618 0.48447,-6.58618z" data-paper-data="{&quot;origPos&quot;:null}" stroke-width="3"/><path d="M346.92984,260.89095c0,0 -6.32838,2.03553 -11.52615,1.54185c-3.98791,-0.37878 -12.52347,-2.21824 -12.52347,-2.21824c0,0 -1.12244,-2.72649 -1.05401,-4.32778c0.07209,-1.68686 1.41407,-4.09765 1.41407,-4.09765l23.89709,1.46855z" data-paper-data="{&quot;origPos&quot;:null}" stroke-width="2"/><path d="M329.04265,217.29418c0,0 0.45826,-4.7799 2.03061,-4.59049c4.63972,0.55895 9.32786,-0.58348 13.46799,1.53178c1.71919,0.87836 1.95245,5.161 1.95245,5.161l0.6922,33.10092c0,0 0.11724,3.41701 0.11354,5.38259c-0.00394,2.10156 -1.42847,5.10625 -3.58115,4.96633c-7.90403,-0.51372 -12.92501,0.58475 -17.76411,-0.9608c-1.76297,-0.56307 -3.59598,-1.27341 -4.13817,-3.00171c-0.70825,-2.25766 0.48445,-6.58618 0.48445,-6.58618z" data-paper-data="{&quot;origPos&quot;:null}" stroke-width="3"/></g><g data-paper-data="{&quot;index&quot;:null,&quot;origRot&quot;:0}" fill="#000000" stroke="#000000" stroke-linecap="round"><path d="M296.97767,255.21128c0,0 -1.95985,4.0548 -3.99761,5.33267c-1.56,0.97828 -3.43034,0.36719 -5.14956,-0.31219c-4.71903,-1.86482 -7.82359,-5.86257 -14.19816,-10.44351c-1.73614,-1.24765 -0.83113,-4.43769 0.55944,-6.0445c1.30059,-1.50283 3.65597,-4.0376 3.65597,-4.0376l22.47836,-24.83355c0,0 3.01798,-3.1226 4.91284,-2.71143c4.5632,0.99016 7.38454,4.81198 11.29712,7.30456c1.32591,0.84469 -1.4939,4.78198 -1.4939,4.78198z" data-paper-data="{&quot;origPos&quot;:null}" stroke-width="3"/><path d="M277.12458,240.53478l19.21672,13.91466c0,0 -0.57419,2.68476 -1.63774,4.01783c-1.00959,1.26547 -3.67447,2.64064 -3.67447,2.64064c0,0 -7.73578,-3.96624 -11.0313,-6.18622c-4.29531,-2.8935 -7.77656,-8.42915 -7.77656,-8.42915z" data-paper-data="{&quot;origPos&quot;:null}" stroke-width="2.5"/><path d="M296.72161,255.4289c0,0 -1.95985,4.0548 -3.99761,5.33267c-1.56,0.97828 -3.43033,0.3672 -5.14956,-0.31219c-4.71903,-1.86482 -7.82359,-5.86255 -14.19817,-10.4435c-1.73614,-1.24765 -0.83113,-4.4377 0.55944,-6.0445c1.30059,-1.50283 3.65597,-4.0376 3.65597,-4.0376l22.47836,-24.83355c0,0 3.01797,-3.1226 4.91284,-2.71143c4.5632,0.99016 7.38456,4.81199 11.29713,7.30456c1.32591,0.84469 -1.4939,4.78197 -1.4939,4.78197c0,0 -4.56775,7.82938 -7.49136,12.8406c-4.12632,7.07272 -10.57316,18.12296 -10.57316,18.12296z" data-paper-data="{&quot;origPos&quot;:null}" stroke-width="1.5"/></g><g fill="#000000"><g data-paper-data="{&quot;origRot&quot;:0}" stroke="#000000" stroke-width="3" stroke-linecap="round"><path d="M381.12564,223.16701c-0.38446,2.42123 -8.9423,-0.29972 -8.9423,-0.29972c0,0 -22.8522,-6.5712 -33.65945,-9.62952c-4.33637,-1.94741 0.6788,-40.59471 5.338,-44.20697c2.07693,-1.61023 12.27442,-2.37977 13.55004,-0.79251c2.42805,3.0212 4.89859,19.65488 4.89859,19.65488l-4.27263,-0.39393l11.06212,2.08835c0,0 13.10468,1.31455 18.39899,3.37605c2.93626,1.14332 -6.37334,30.20338 -6.37334,30.20338z" data-paper-data="{&quot;origPos&quot;:null}"/><path d="M377.23423,191.47317l-6.02382,29.47085"/><path d="M367.11902,220.44234l5.73568,-29.52673" data-paper-data="{&quot;origPos&quot;:null}"/></g><path d="M370.90627,221.52034l-2.83251,-0.53137l5.96763,-30.18276l2.83251,0.53137z" stroke="none" stroke-width="0" stroke-linecap="butt"/><path d="M338.20165,213.3358l-1.32289,-11.0211l3.5473,-23.75127l3.16677,-7.90869l4.29547,-2.96742l7.63051,1.00238l1.5261,0.20048l4.53494,17.74962l-3.08651,-0.15319l-0.2744,1.98207l13.37766,2.51414l-4.91354,29.87838l-26.921,-7.57266z" stroke="#000000" stroke-width="0.5" stroke-linecap="round"/></g><g fill="#000000"><g><path d="M312.47959,175.66521c0,0 4.58336,-13.83714 6.86291,-13.99388c6.83861,-0.47024 21.6195,3.0685 31.61181,4.82157c1.54471,0.27101 0.4159,13.82413 0.4159,13.82413l-3.77444,30.45884c0,0 -2.47618,14.76422 -4.16129,14.46858c-15.0007,-2.63174 -32.73767,-4.87721 -39.27077,-6.87785c-2.1777,-0.66686 1.52644,-16.02833 1.52644,-16.02833z" data-paper-data="{&quot;origPos&quot;:null}" stroke="#000000" stroke-width="3.5" stroke-linecap="round"/><path d="M330.02759,187.07458c-1.30505,-0.22895 -0.85237,-2.67707 -0.85237,-2.67707c0.93887,-5.07757 2.17949,-11.78718 3.11834,-16.86474c0,0 0.45266,-2.44811 1.75771,-2.21914c1.30505,0.22895 0.85238,2.67707 0.85238,2.67707c-0.93887,5.07757 -1.87771,10.1551 -2.81657,15.23267l-0.30177,1.63207c0,0 -0.45266,2.44811 -1.7577,2.21915z" stroke="none" stroke-width="0.5" stroke-linecap="butt"/><path d="M340.99933,195.43471c-1.30505,-0.22895 -0.73638,-3.30447 -0.73638,-3.30447c1.17947,-6.37884 2.73805,-14.80802 3.91753,-21.18687c0,0 0.56867,-3.07551 1.87372,-2.84655c1.30505,0.22895 0.73637,3.30447 0.73637,3.30447c-1.17947,6.37884 -2.35894,12.75769 -3.53841,19.13654l-0.37912,2.05033c0,0 -0.56867,3.07551 -1.87372,2.84655z" stroke="none" stroke-width="0.5" stroke-linecap="butt"/></g><g stroke="#000000" stroke-width="0.5" stroke-linecap="butt"><path d="M341.99174,205.74385c-1.22974,6.65072 -6.88941,11.22415 -12.64124,10.21504c-5.75183,-1.00911 -9.4177,-7.21864 -8.18795,-13.86935c1.22974,-6.65072 6.88941,-11.22415 12.64124,-10.21504c5.75183,1.00911 9.4177,7.21864 8.18796,13.86935z"/><path d="M336.7234,193.35017c-0.00161,0.01111 -0.00347,0.0224 -0.00561,0.03386c-0.11369,0.61483 -0.74488,0.50409 -0.74488,0.50409l-0.12623,-0.02215c-0.46117,-0.0809 -2.56858,-0.42229 -2.85906,-0.61073c-0.2425,-0.15732 -0.107,-0.57059 -0.25747,-0.81362c-0.14457,-0.23346 -0.38023,-0.4035 -0.60041,-0.57184c-0.35013,-0.2677 -0.87937,-0.35725 -1.10419,-0.73145c-0.20766,-0.34568 -0.15388,-0.81122 -0.05635,-1.20031c0.458,-1.82733 1.62552,-1.64203 3.09831,-1.21163c0.43552,0.17687 0.89475,0.3062 1.30655,0.5306c0.18117,0.09871 0.2549,0.34354 0.44533,0.42402c0.13536,0.05721 0.29212,-0.04812 0.43967,-0.05002c0.00629,-0.00009 1.81269,0.06387 1.8306,0.06451c1.22105,0.04423 2.5032,0.21957 3.68906,0.51526c0.75564,0.18841 2.45143,0.67667 2.75482,1.50143c0.43207,1.17457 -1.52882,1.57403 -2.01998,1.67595c-1.45351,0.30159 -2.54711,-0.23625 -3.95486,-0.3217c-0.47953,-0.02911 -1.2937,0.15928 -1.8353,0.28372z"/></g></g><path d="M351.8342,167.84508c-12.40851,-0.06928 -24.44113,-0.17258 -29.34235,-1.25245c-4.4794,-0.98693 -5.78877,-3.76818 -5.78877,-3.76818c0,0 -1.76352,-2.46173 -1.82685,-3.9955c-0.18998,-4.6013 -0.09992,-17.75138 1.0553,-29.07254c0.03855,-0.37784 0.07428,-0.58883 0.13586,-0.96376c0.18476,-1.1248 1.09699,-5.48772 1.09699,-5.48772c0,0 3.30153,-1.60814 5.08795,-2.05373c5.35923,-1.33675 18.89746,0.36566 33.17336,1.0067c1.29393,0.05811 3.48514,1.77409 3.48514,1.77409c0,0 1.5297,3.1621 1.44703,5.144c-0.53437,12.81326 -1.17404,26.98832 -1.53803,30.22565c-0.12131,1.07911 -2.07731,5.23841 -2.07731,5.23841z" fill="#000000" stroke="#000000" stroke-width="2.5" stroke-linecap="round"/><path d="M352.96016,147.40271c0.14356,-3.44211 0.68432,-6.21572 1.20783,-6.195c0.52351,0.0207 0.83153,2.8279 0.68798,6.27001c-0.14356,3.44211 -0.68432,6.21573 -1.20783,6.19501c-0.52351,-0.0207 -0.83153,-2.8279 -0.68798,-6.27002z" fill="#000000" stroke="#000000" stroke-width="2.5" stroke-linecap="butt"/><path d="M346.25962,147.83564c0.14621,-3.50588 0.58305,-6.33535 0.97567,-6.31981c0.39263,0.01554 0.59241,2.87021 0.4462,6.37607c-0.14621,3.50588 -0.58302,6.33532 -0.97566,6.3198c-0.39263,-0.01554 -0.59242,-2.87019 -0.44621,-6.37605z" fill="#000000" stroke="#000000" stroke-width="2.5" stroke-linecap="butt"/><path d="M315.91115,122.82895l0.5809,-12.98768l44.92295,1.90645l-0.5809,12.98768z" fill="#000000" stroke="none" stroke-width="0" stroke-linecap="butt"/><path d="M341.07151,137.25473c0.0617,-1.37941 1.2597,-2.44891 2.67581,-2.38882c0.29077,0.01233 0.56812,0.07135 0.82477,0.16927c1.47747,-0.21195 9.2344,5.09758 6.95279,7.66818c-1.70252,1.91816 -7.07117,-1.44632 -8.91201,-2.78004c-0.50701,-0.36734 -2.12647,-2.04522 -1.54135,-2.66859z" data-paper-data="{&quot;index&quot;:null}" fill="#000000" stroke="none" stroke-width="0.5" stroke-linecap="butt"/><path d="M357.26686,140.94559c-1.42981,1.19492 -5.55929,4.15632 -6.63908,2.12009c-1.44706,-2.72884 4.55398,-7.4545 5.60283,-7.13534c0.19257,-0.07886 0.39706,-0.11742 0.60765,-0.10848c1.02557,0.04353 1.80695,1.19704 1.74525,2.57643c0.37386,0.66407 -0.92284,2.21819 -1.31664,2.5473z" data-paper-data="{&quot;index&quot;:null}" fill="#000000" stroke="none" stroke-width="0.5" stroke-linecap="butt"/><g fill="#000000" stroke="#000000" stroke-width="1.25" stroke-linecap="butt"><path d="M342.85978,161.83908l-9.19652,-1.02182c0,0 -0.88049,-6.47185 5.30332,-5.83873c6.54701,0.67031 3.8932,6.86055 3.8932,6.86055z"/><path d="M334.36198,156.86998c0.70422,-1.20428 2.05306,-2.15268 4.60461,-1.89145c1.69592,0.17364 2.77446,0.71766 3.44167,1.42853c0.00317,0.00339 -0.17303,1.23658 -0.17303,1.23658c0,0 -7.87553,-0.76976 -7.87326,-0.77366z"/><path d="M338.31308,161.33391c-1.54125,-0.17125 -4.64982,-0.51664 -4.64982,-0.51664c0,0 -0.04753,-0.792 0.00206,-1.56546c0.0043,-0.06709 1.45053,0.05549 2.55268,0.49496c1.29822,0.51765 2.24596,1.6039 2.09508,1.58714z"/></g><g fill="#000000"><g data-paper-data="{&quot;index&quot;:null}"><g stroke="#000000" stroke-width="3" stroke-linecap="round"><path d="M287.38754,187.24112l19.43771,-24.02152c0,0 3.76538,-4.50824 5.0026,-4.33004c3.71167,0.53459 9.17484,4.76171 15.51002,7.94509c1.05303,0.52914 -1.43044,5.97359 -1.43044,5.97359c0,0 -4.31883,8.40346 -7.08311,13.78211c-4.20974,8.19113 -10.78687,20.98881 -10.78687,20.98881c0,0 -3.13179,6.65243 -4.98744,5.53848c0,0 -10.76298,-1.17501 -24.06368,-12.94824c1.37357,-4.41985 8.40122,-12.92829 8.40122,-12.92829z" data-paper-data="{&quot;origPos&quot;:null}"/><path d="M286.37814,189.11781l23.92366,13.41058l-1.84909,2.92889l-24.02571,-13.17046z" data-paper-data="{&quot;origPos&quot;:null}"/></g><path d="M287.31191,189.09697l24.16445,-29.85907l14.73142,8.22735l0.82533,1.23514l-16.27905,33.54408z" stroke="#000000" stroke-width="1" stroke-linecap="round"/><path d="M284.87293,191.97891l1.27892,-2.00041l23.85692,13.11418l-1.27892,2.00041z" stroke="none" stroke-width="0" stroke-linecap="butt"/></g><path d="M303.05409,214.71279c0,0 -2.83167,1.14392 -4.0115,0.65973c-7.85852,-3.22502 -15.46894,-6.37396 -18.27895,-8.27801c-2.56816,-1.74016 -2.62252,-3.74138 -2.62252,-3.74138c0,0 -0.43195,-1.92642 -0.04371,-2.86101c1.16474,-2.8038 4.89535,-10.65437 8.79133,-17.13659c0.13001,-0.21634 0.21164,-0.3335 0.35547,-0.54219c0.43153,-0.62607 2.22943,-3.00436 2.22943,-3.00436c0,0 2.54529,-0.11584 3.80391,0.07568c3.77588,0.57459 11.89543,5.06729 20.77979,9.11376c0.80525,0.36676 1.71705,1.9564 1.71705,1.9564c0,0 0.08786,2.2858 -0.51825,3.45126c-3.91861,7.53491 -8.28449,15.85817 -9.41991,17.70314z" data-paper-data="{&quot;index&quot;:null}" stroke="#000000" stroke-width="2.5" stroke-linecap="round"/></g></g></g></svg>