<svg version="1.1" xmlns="http://www.w3.org/2000/svg" xmlns:xlink="http://www.w3.org/1999/xlink" width="84.28263" height="181.70304" viewBox="0,0,84.28263,181.70304"><g transform="translate(-197.41721,-95.57458)"><g data-paper-data="{&quot;isPaintingLayer&quot;:true}" fill-rule="nonzero" stroke-linejoin="miter" stroke-miterlimit="10" stroke-dasharray="" stroke-dashoffset="0" style="mix-blend-mode: normal"><g stroke="#000000" stroke-linecap="round"><path d="M232.31151,176.19404c0,0 -28.3236,5.44456 -28.07434,-12.5343c0.09182,-6.624 16.29461,-4.75703 16.29461,-4.75703z" data-paper-data="{&quot;origPos&quot;:null}" fill="#66c8ff" stroke-width="2"/><path d="M224.46321,164.37326c0,0 -15.88536,-2.16445 -15.66654,-2.7746c0.69383,-1.93458 12.464,-1.1754 12.464,-1.1754z" data-paper-data="{&quot;origPos&quot;:null}" fill="#0a0a0a" stroke-width="1"/></g><g><g data-paper-data="{&quot;index&quot;:null}"><g stroke="#000000" stroke-width="3" stroke-linecap="round"><path d="M277.89764,203.30218c0,0 2.74749,10.38404 2.23954,14.9636c-15.76645,6.13144 -25.35895,3.36785 -25.35895,3.36785c-1.99931,0.36651 -2.13935,-6.90708 -2.13935,-6.90708c0,0 -0.73881,-14.19023 -1.21171,-23.27268c-0.31052,-5.96391 -0.79567,-15.2818 -0.79567,-15.2818c0,0 -0.04693,-5.92433 1.04857,-6.03705c6.59072,-0.67811 12.83595,-2.63358 16.19303,-1.8002c1.11903,0.27779 2.61026,5.79475 2.61026,5.79475l7.41425,29.1726z" data-paper-data="{&quot;origPos&quot;:null}" fill="#582700"/><path d="M278.50109,209.02835l-25.4109,3.58698l-0.4613,-3.3706l25.41519,-3.84559z" data-paper-data="{&quot;origPos&quot;:null}" fill="none"/></g><path d="M252.35218,208.8203l-1.12034,-36.85053l1.1696,-0.84719l15.6383,-2.3398l9.21869,36.26303z" fill="#66c8ff" stroke="#000000" stroke-width="1" stroke-linecap="round"/><path d="M252.99275,212.17933l-0.32866,-2.30781l25.24611,-3.5953l0.32866,2.30781z" fill="#ffffff" stroke="none" stroke-width="0" stroke-linecap="butt"/></g><g fill="#fffc96" stroke="#000000" stroke-width="2" stroke-linecap="round"><path d="M276.11533,198.64865c0,0 4.35053,0.53732 4.24516,3.47968c-0.16859,4.70767 -32.61799,-1.38228 -32.73823,-6.2991c-0.04912,-2.00889 3.12079,-2.13382 3.12079,-2.13382l0.26808,1.85235c0,0 5.83766,2.48035 13.37519,4.06939c7.43308,1.56702 12.51891,1.24704 12.51891,1.24704z"/><path d="M274.02487,190.28855c0,0 3.03969,-2.29392 3.96191,-0.16273c1.93587,4.47365 -27.5422,23.48887 -28.3721,18.92942c-0.5026,-2.76131 2.80832,-3.82765 2.80832,-3.82765l0.23722,1.35635c0,0 4.93028,-2.01307 11.52151,-6.42976c6.59124,-4.41669 10.21963,-8.61588 10.21963,-8.61588z" data-paper-data="{&quot;index&quot;:null}"/></g></g><g data-paper-data="{&quot;origRot&quot;:0}" stroke="#000000" stroke-linecap="round"><path d="M242.60597,226.12872c0,0 -0.1438,-4.73051 1.42673,-4.72977c4.63438,0.00223 9.10472,-1.66587 13.44117,-0.0823c1.80072,0.65757 2.56301,4.82041 2.56301,4.82041l4.79905,32.30512c0,0 0.54043,3.32947 0.78133,5.25307c0.25756,2.05665 -0.77015,5.16372 -2.90551,5.27951c-7.84037,0.42521 -12.64366,2.08937 -17.59694,1.14523c-1.80456,-0.34397 -3.69638,-0.82377 -4.44482,-2.45115c-0.97769,-2.12578 -0.34273,-6.50087 -0.34273,-6.50087z" data-paper-data="{&quot;origPos&quot;:null}" fill="#ff0000" stroke-width="3"/><path d="M265.7193,266.99877c0,0 -5.97301,2.73447 -11.14831,2.8616c-3.97067,0.09754 -12.5973,-0.70025 -12.5973,-0.70025c0,0 -1.44353,-2.53588 -1.5754,-4.11062c-0.13893,-1.6589 0.88146,-4.17519 0.88146,-4.17519l23.69409,-1.36838z" data-paper-data="{&quot;origPos&quot;:null}" fill="#976e57" stroke-width="2"/><path d="M242.69703,226.44287c0,0 -0.1438,-4.73051 1.42673,-4.72976c4.63437,0.00223 9.10472,-1.66587 13.44118,-0.08228c1.80072,0.65757 2.563,4.8204 2.563,4.8204l4.79905,32.30512c0,0 0.54045,3.32948 0.78135,5.25307c0.25756,2.05665 -0.77016,5.16371 -2.90551,5.27951c-7.84037,0.42521 -12.64366,2.08938 -17.59694,1.14524c-1.80456,-0.34397 -3.69637,-0.82379 -4.44481,-2.45115c-0.97769,-2.12578 -0.34274,-6.50087 -0.34274,-6.50087z" data-paper-data="{&quot;origPos&quot;:null}" fill="#4b4b4b" stroke-width="3"/></g><path d="M233.61527,265.67571c0,0 -0.78369,4.35241 -2.38841,6.08431c-1.22849,1.32584 -3.18097,1.2193 -5.00732,1.00947c-5.01312,-0.57598 -9.05606,-3.58944 -16.3822,-6.32792c-1.9953,-0.74584 -1.98765,-4.00849 -1.09012,-5.88894c0.83946,-1.7588 2.40994,-4.76631 2.40994,-4.76631l14.81493,-29.31349c0,0 2.04595,-3.73449 3.96815,-3.82422c4.62898,-0.21611 8.35388,2.70195 12.76471,4.07936c1.49476,0.46679 -0.14272,4.9256 -0.14272,4.9256c0,0 -2.2623,8.60277 -3.7103,14.10901c-2.04367,7.77137 -5.23666,19.91317 -5.23666,19.91317z" fill="#4b4b4b" stroke="#000000" stroke-width="3" stroke-linecap="round"/><g><path d="M221.28788,184.15488c0,0 2.21901,-14.1711 4.42363,-14.67573c6.61381,-1.5139 21.65453,-0.35406 31.71785,-0.19193c1.55569,0.02507 2.67005,13.38618 2.67005,13.38618l1.29357,30.21852c0,0 -0.0056,14.74761 -1.70269,14.72027c-15.1073,-0.24341 -32.82847,0.31171 -39.54789,-0.62566c-2.23979,-0.31245 -1.13055,-15.83085 -1.13055,-15.83085z" data-paper-data="{&quot;origPos&quot;:null}" fill="#66c8ff" stroke="#000000" stroke-width="3.5" stroke-linecap="round"/><path d="M240.3244,192.54515c-1.31432,-0.02118 -1.27222,-2.47303 -1.27222,-2.47303c0.08732,-5.08533 0.2027,-11.80522 0.29002,-16.89055c0,0 0.0421,-2.45186 1.35642,-2.43068c1.31432,0.02118 1.27222,2.47303 1.27222,2.47303c-0.08732,5.08533 -0.17463,10.17065 -0.26195,15.25598l-0.02807,1.63457c0,0 -0.0421,2.45186 -1.35642,2.43068z" fill="#ffffff" stroke="none" stroke-width="0.5" stroke-linecap="butt"/><path d="M252.42762,198.98447c-1.31432,-0.02118 -1.26143,-3.1014 -1.26143,-3.1014c0.1097,-6.3886 0.25465,-14.83069 0.36434,-21.21929c0,0 0.05289,-3.08022 1.3672,-3.05905c1.31432,0.02118 1.26143,3.1014 1.26143,3.1014c-0.1097,6.3886 -0.21939,12.77721 -0.32909,19.16582l-0.03526,2.05348c0,0 -0.05289,3.08022 -1.3672,3.05905z" fill="#ffffff" stroke="none" stroke-width="0.5" stroke-linecap="butt"/></g><g fill="none" stroke="#b9b9b9" stroke-width="3"><path d="M255.13069,174.21394c-0.81905,-1.35219 0.13103,-2.53933 1.39603,-3.71985c1.26502,-1.1805 2.52024,-1.52699 3.18501,-0.5552c1.40946,2.06047 -0.12251,2.9976 -1.11304,3.92197c-1.26503,1.18052 -2.31128,2.26274 -3.46799,0.35309z" stroke-linecap="butt"/><path d="M253.46419,176.08867l2.67802,-2.44088" stroke-linecap="round"/><path d="M249.84485,176.65084c1.26502,-1.1805 2.52024,-1.52699 3.18501,-0.5552c1.40946,2.06047 -0.12251,2.9976 -1.11304,3.92197c-1.26501,1.18051 -2.31127,2.26274 -3.46798,0.35309c-0.81905,-1.35219 0.13102,-2.53933 1.39602,-3.71986z" stroke-linecap="butt"/><path d="M249.46034,179.80455l-2.67801,2.4409" stroke-linecap="round"/><path d="M241.0691,181.70747c0.43536,-1.60508 1.79425,-1.43074 3.33295,-0.95358c1.53869,0.47717 2.50752,1.45579 2.23918,2.68154c-0.56897,2.59892 -2.09923,1.71944 -3.30406,1.34581c-1.53869,-0.47716 -2.88289,-0.80697 -2.26804,-3.07376z" stroke-linecap="butt"/><path d="M242.0439,182.32039l-3.21798,-1.04583" stroke-linecap="round"/><path d="M233.8172,177.27639c0.93094,-1.28322 2.11302,-0.48812 3.3585,0.67121c1.24549,1.15933 1.80424,2.51727 1.15184,3.52711c-1.38327,2.14115 -2.4873,0.61322 -3.46257,-0.29456c-1.24549,-1.15934 -2.36248,-2.09153 -1.04778,-3.90374z" stroke-linecap="butt"/><path d="M231.91413,175.82952l2.58885,2.46893" stroke-linecap="round"/><path d="M227.30312,171.13291c0.93094,-1.2832 2.11302,-0.48812 3.3585,0.67121c1.2455,1.15933 1.80424,2.51727 1.15184,3.52711c-1.38327,2.14114 -2.4873,0.61322 -3.46257,-0.29456c-1.24549,-1.15933 -2.36247,-2.09152 -1.04777,-3.90374z" stroke-linecap="butt"/><path d="M225.40006,169.68603l2.58886,2.46893" stroke-linecap="round"/></g><path d="M255.92258,171.03698c-12.08654,-0.11219 -23.80682,-0.25709 -28.57713,-1.3539c-4.35975,-1.00241 -5.6253,-3.78818 -5.6253,-3.78818c0,0 -1.70906,-2.4678 -1.7653,-4.00179c-0.16872,-4.60193 -0.03432,-17.75161 1.13115,-29.0687c0.03889,-0.37771 0.07444,-0.58857 0.13577,-0.96328c0.18397,-1.12415 1.08802,-5.48389 1.08802,-5.48389c0,0 3.22164,-1.59672 4.96332,-2.03612c5.22502,-1.31822 18.40619,0.431 32.30967,1.12141c1.26017,0.06258 3.38848,1.78613 3.38848,1.78613c0,0 1.47882,3.16738 1.39126,5.14897c-0.56601,12.81133 -1.23941,26.98409 -1.60545,30.22012c-0.122,1.07869 -2.04204,5.23121 -2.04204,5.23121z" fill="#582700" stroke="#000000" stroke-width="2.5" stroke-linecap="round"/><path d="M253.66815,150.86631c0.15205,-3.4416 0.68864,-6.21332 1.1985,-6.19078c0.50986,0.02252 0.79993,2.83076 0.64789,6.27235c-0.15205,3.4416 -0.68864,6.21333 -1.1985,6.19079c-0.50986,-0.02252 -0.79993,-2.83076 -0.64789,-6.27236z" fill="none" stroke="#000000" stroke-width="2.5" stroke-linecap="butt"/><path d="M247.45431,150.67114c0.15486,-3.50535 0.59043,-6.3333 0.97281,-6.31639c0.3824,0.0169 0.56685,2.87224 0.41199,6.37757c-0.15486,3.50535 -0.5904,6.33327 -0.9728,6.31638c-0.3824,-0.0169 -0.56686,-2.87222 -0.412,-6.37756z" fill="none" stroke="#000000" stroke-width="2.5" stroke-linecap="butt"/><path d="M218.00946,127.10018c-0.64365,-1.07155 0.4279,-1.71519 0.4279,-1.71519l1.32369,-0.74723c0.11902,-0.03465 0.23793,-0.06856 0.35676,-0.10169c-0.93114,-5.79836 0.29531,-12.7646 0.354,-18.48276c0.01522,-1.48292 -0.29758,-5.50606 0.43879,-6.76644c1.23307,-2.11054 2.93472,-1.48951 4.83063,-1.4649c3.22586,0.04189 6.4252,0.1228 9.62296,-0.30806c7.92664,-1.05859 15.77588,-1.21185 23.73382,-1.78315c2.51118,-0.18027 4.96272,-0.23857 7.48147,0.01095c0.68918,0.06827 1.57575,-0.17106 2.05082,0.33286c1.68257,1.78471 0.92264,3.73325 0.57716,5.69081c-0.68911,3.90471 -2.3552,7.41104 -2.53218,11.41685c-0.15587,3.06371 -0.6734,6.20241 -1.10776,9.23703c-0.1499,1.04722 0.16355,2.99452 -0.90873,3.76759c-2.19866,1.58515 -7.83022,0.29664 -10.36774,0.17705c-7.73741,-0.36462 -15.47378,-0.88894 -23.22016,-0.81211c-2.7706,0.12224 -5.41323,0.32005 -8.06869,0.85943c-0.03161,0.37219 -0.21579,0.84749 -0.90277,1.04107c-0.74535,0.21003 -1.15907,-0.1718 -1.36599,-0.49278c-0.09058,0.02556 -0.18123,0.05161 -0.27194,0.07815l-0.73686,0.49047c0,0 -1.07155,0.64365 -1.71519,-0.4279z" fill="#000000" stroke="none" stroke-width="0.5" stroke-linecap="butt"/><g><g stroke="#000000" stroke-width="3" stroke-linecap="round"><path d="M201.64869,202.38587l8.38032,-28.90989c0,0 1.67389,-5.46432 2.80153,-5.70474c3.38294,-0.72128 9.55967,1.44081 16.1242,2.33772c1.09115,0.14909 0.84723,6.06858 0.84723,6.06858c0,0 -0.79476,9.2966 -1.30344,15.24688c-0.77469,9.0617 -1.985,23.21951 -1.985,23.21951c0,0 -0.38185,7.26491 -2.36787,6.83212c0,0 -9.67911,2.44304 -25.23292,-4.20932c-0.35538,-4.59393 2.73593,-14.88085 2.73593,-14.88085z" data-paper-data="{&quot;origPos&quot;:null}" fill="#582700"/><path d="M201.43254,204.4768l25.27324,4.68867l-0.57314,3.35339l-25.27755,-4.43007z" data-paper-data="{&quot;origPos&quot;:null}" fill="none"/></g><path d="M202.22954,204.14981l10.41956,-35.9364l15.55184,2.85858l1.14078,0.88561l-2.34523,36.79289z" fill="#66c8ff" stroke="#000000" stroke-width="1" stroke-linecap="round"/><path d="M201.132,207.65345l0.40523,-2.29561l25.11258,4.43289l-0.40522,2.29561z" fill="#ffffff" stroke="none" stroke-width="0" stroke-linecap="butt"/></g><path d="M245.60883,162.93065c-0.05004,1.64228 -1.42194,2.93306 -3.06422,2.88302c-1.64228,-0.05004 -2.93306,-1.42194 -2.88302,-3.06422c0.05004,-1.64228 1.42194,-2.93306 3.06422,-2.88302c1.64228,0.05004 2.93306,1.42194 2.88302,3.06422z" fill="#ff8484" stroke="#000000" stroke-width="1" stroke-linecap="butt"/></g></g></svg>