<svg version="1.1" xmlns="http://www.w3.org/2000/svg" xmlns:xlink="http://www.w3.org/1999/xlink" width="350" height="350" viewBox="0,0,350,350"><g transform="translate(-125,-5)"><g data-paper-data="{&quot;isPaintingLayer&quot;:true}" fill-rule="nonzero" stroke-linecap="butt" stroke-linejoin="miter" stroke-miterlimit="10" stroke-dasharray="" stroke-dashoffset="0" style="mix-blend-mode: normal"><path d="M300,324.24978l-144.24978,-144.24978l144.24978,-144.24978l144.24978,144.24978z" fill-opacity="0.27059" fill="#00c1ff" stroke="none" stroke-width="0"/><path d="M125,355v-350h350c0,0 0,219.79557 0,281.75c0,30.49241 0,68.25 0,68.25z" fill-opacity="0.01569" fill="#ffffff" stroke="none" stroke-width="0"/><path d="M300,324.24978l-144.24978,-144.24978l144.24978,-144.24978l144.24978,144.24978z" fill="none" stroke="#000000" stroke-width="14.5"/><g data-paper-data="{&quot;index&quot;:null}" stroke="#ffffff" stroke-width="23"><path d="M349.35354,190.5744c0.06024,0.16725 12.23208,-15.98253 13.43822,-15.62951c1.81013,0.52983 36.55295,4.98501 30.6783,32.81473c-3.2492,1.65138 -27.80745,-23.44331 -27.80745,-19.54891c0,3.80935 2.12998,7.12121 5.26395,8.80958c-2.21018,3.33918 -4.18544,6.86526 -5.22923,8.69323c-7.23038,12.66234 -13.15091,25.83072 -19.72077,38.77501c-2.30184,4.53521 -3.45766,9.93806 -6.34688,14.12965c-4.38039,6.35495 -20.77048,11.2804 -24.66738,19.58948c-8.91358,-4.29999 -7.30645,-5.23534 -7.30645,-5.23534c0,0 -13.87157,6.01032 -19.62534,5.61058c-26.36792,-1.83188 -21.99721,-18.35752 -28.60256,-22.88048c-9.78424,-6.69964 -27.36192,-1.06759 -36.23405,-9.86118c-7.94229,-7.87198 -5.15528,-13.15666 -4.63769,-26.47399c0.73607,-18.93855 42.75436,-31.33706 44.11455,-50.91561c1.77849,-25.59944 3.15827,-83.83584 13.69251,-97.31351c10.83322,-13.86021 36.74401,-13.38729 54.61953,-7.64374c10.06089,3.23266 -9.64639,54.79098 -20.22222,93.6557c-1.48535,5.45844 15.56586,-22.42319 37.44874,-57.164c10.68693,-16.96632 15.83638,-36.1503 29.149,-33.0892c8.99918,2.06923 27.66017,21.79174 33.80652,29.94267c5.30909,7.04062 -63.58179,88.81953 -61.81128,93.73487z" fill="#fddfbd"/><path d="" fill="#fddfbd"/><path d="M268.13591,217.90966c0,0 -15.58613,-0.48233 -16.52915,-2.37324c-2.04476,-4.10005 7.06471,-16.30454 10.93872,-16.75595c5.25552,-0.92994 27.65973,3.85277 34.36206,0.8039c1.79976,-0.81871 12.45076,-5.24824 12.45076,-5.24824c0,0 5.36413,9.50644 17.42737,7.3092c15.23492,-2.77492 37.25255,-21.92392 37.25255,-21.92392l3.14214,3.05523l-13.35162,23.34617l-6.59582,13.02831c0,0 3.27697,4.20031 7.24605,8.10058c-2.82009,5.74735 -5.59779,11.51399 -8.50241,17.23682c-2.30184,4.53521 -3.45766,9.93806 -6.34688,14.12965c-3.75531,5.4481 -14.8493,11.24315 -19.24572,18.54367c-6.97195,-2.81867 -8.60986,-3.78477 -8.60986,-3.78477c0,0 33.63321,-26.99386 -3.01379,-52.8664c-21.83396,-15.41465 -40.62433,-2.60109 -40.62433,-2.60109z" fill="#f89587"/><path d="M328.71701,239.01671c2.89008,-17.91649 27.10115,-35.84318 27.44152,-36.47779c-2.49097,6.91738 -7.12653,12.06053 -10.96605,16.75158c-7.07166,8.64003 -12.25857,15.13356 -9.66306,21.57912c0.88236,2.76226 4.54175,5.42495 8.78088,7.43029c-0.89575,2.29523 -1.70852,4.65938 -2.74318,6.87233c-8.71813,-5.84119 -13.11942,-14.48609 -12.8501,-16.15553z" fill="#000000"/><path d="M356.16211,202.52897c-0.00119,0.00332 -0.00239,0.00663 -0.00358,0.00995c0.00215,-0.00401 0.00335,-0.00733 0.00358,-0.00995z" fill="#000000"/><path d="M220.23242,227.63738c0,0 7.53297,6.4229 19.80332,7.90971c6.27637,0.7605 10.74595,-3.84754 21.93825,-2.87703c8.11656,0.70381 20.09743,20.52447 30.6447,20.067c10.16333,-0.44081 19.9833,-20.76312 19.9833,-20.76312c0,0 8.5969,2.96522 7.32439,16.67424c-1.98054,21.33659 -18.91744,26.1596 -31.72276,25.80542c-25.14312,-0.69542 -18.9046,-11.92564 -31.34526,-21.3006c-5.74955,-4.33271 -15.89565,2.94905 -27.4307,-3.99869c-11.19265,-6.74146 -9.19524,-21.51691 -9.19524,-21.51691z" fill="#f89587"/><path d="M322.46322,282.59844c-8.91358,-4.29999 -14.80737,-9.62611 -14.80737,-9.62611c0,0 -13.87157,6.01032 -19.62534,5.61058c-26.36792,-1.83188 -21.99721,-18.35752 -28.60256,-22.88048c-9.78424,-6.69964 -27.36192,-1.06759 -36.23405,-9.86118c-7.94229,-7.87198 -5.15528,-13.15666 -4.63769,-26.47399c0.73607,-18.93855 42.75436,-31.33706 44.11455,-50.91561c1.77849,-25.59944 3.15827,-83.83584 13.69251,-97.31351c10.83322,-13.86021 36.74401,-13.38729 54.61953,-7.64374c10.06089,3.23266 -9.64639,54.79098 -20.22222,93.6557c-1.48535,5.45844 15.56586,-22.42319 37.44874,-57.164c10.68693,-16.96632 15.83638,-36.1503 29.149,-33.0892c8.99918,2.06923 27.66017,21.79174 33.80652,29.94267c5.30909,7.04062 -63.58179,88.81953 -61.81128,93.73487v-0.00003c0.06024,0.16725 12.23208,-15.98253 13.43822,-15.62951c1.81013,0.52983 5.01526,2.25742 8.3462,4.34558" fill="none"/><path d="M304.96902,269.50562c0,0 16.25232,-18.56144 14.92734,-22.18879c-7.29085,-19.95942 -15.54138,-28.14784 -28.38616,-31.89672c-3.09392,-0.90302 -12.06217,0.25631 -23.85322,2.15186c2.86702,-4.85728 19.13843,-8.20408 27.69383,-7.13933c19.07345,2.37371 32.75438,24.49892 32.01331,35.16583c-1.18066,16.99428 -15.04439,28.05537 -15.04439,28.05537z" fill="#000000"/></g><g data-paper-data="{&quot;index&quot;:null}"><path d="M349.35354,190.5744c0.06024,0.16725 12.23208,-15.98253 13.43822,-15.62951c2.58717,0.75727 8.02411,3.96137 12.60503,7.16788c10.57048,7.39912 22.72781,20.42957 23.80585,27.34925c0.47225,3.03136 0.40775,5.83439 -0.10658,8.48853c-4.80277,2.25135 -9.31613,7.15769 -12.59301,9.99076c-7.46983,6.45814 -14.98724,13.34956 -21.11623,21.13047c-5.43358,6.89807 -9.7637,15.49332 -16.3374,21.23666c-6.09949,5.32903 -16.10868,8.08391 -21.21701,14.57932c-11.83923,-4.38112 -20.17656,-11.91543 -20.17656,-11.91543c0,0 -13.87157,6.01032 -19.62534,5.61058c-26.36792,-1.83188 -21.99721,-18.35752 -28.60256,-22.88048c-9.78424,-6.69964 -27.36192,-1.06759 -36.23405,-9.86118c-7.94229,-7.87198 -5.15528,-13.15666 -4.63769,-26.47399c0.73607,-18.93855 42.75436,-31.33706 44.11455,-50.91561c1.77849,-25.59944 3.15827,-83.83584 13.69251,-97.31351c10.83322,-13.86021 36.74401,-13.38729 54.61953,-7.64374c10.06089,3.23266 -9.64639,54.79098 -20.22222,93.6557c-1.48535,5.45844 15.56586,-22.42319 37.44874,-57.164c10.68693,-16.96632 15.83638,-36.1503 29.149,-33.0892c8.99918,2.06923 27.66017,21.79174 33.80652,29.94267c5.30909,7.04062 -63.58179,88.81953 -61.81128,93.73487z" fill="#fddfbd" stroke="none" stroke-width="0"/><path d="M268.13591,217.90966c0,0 -15.58613,-0.48233 -16.52915,-2.37324c-2.04476,-4.10005 7.06471,-16.30454 10.93872,-16.75595c5.25552,-0.92994 27.65973,3.85277 34.36206,0.8039c1.79976,-0.81871 12.45076,-5.24824 12.45076,-5.24824c0,0 5.36413,9.50644 17.42737,7.3092c15.23492,-2.77492 37.25255,-21.92392 37.25255,-21.92392l3.14214,3.05523l-13.35162,23.34617l-6.59582,13.02831c0,0 12.15597,15.5811 18.00015,14.59034c15.6478,-2.65272 30.6081,-27.77799 30.6081,-27.77799c0,0 0.21183,9.40727 -2.05305,14.35799c-0.26903,0.58807 -0.55033,1.18542 -0.84168,1.78959c-2.42113,2.04284 -4.62304,4.25644 -6.44338,5.83025c-7.46983,6.45814 -14.98724,13.34956 -21.11623,21.13047c-5.43358,6.89807 -9.7637,15.49332 -16.3374,21.23666c-4.94469,4.3201 -12.45879,6.94849 -17.84835,11.24943c-9.66834,-3.36316 -19.42698,-8.18078 -19.42698,-8.18078c0,0 33.63321,-26.99386 -3.01379,-52.8664c-21.83396,-15.41465 -40.62433,-2.60109 -40.62433,-2.60109z" fill="#f89587" stroke="none" stroke-width="0"/><path d="M328.71701,239.01671c2.89008,-17.91649 27.10115,-35.84318 27.44152,-36.47779c-2.49097,6.91738 -7.12653,12.06053 -10.96605,16.75158c-7.07166,8.64003 -12.25857,15.13356 -9.66306,21.57912c2.01638,6.31234 18.53492,12.10472 23.3337,10.72077c2.30104,-0.66361 4.59544,-1.67305 6.83239,-2.90828c-0.10328,0.12965 -0.20618,0.25954 -0.30869,0.38968c-2.82803,3.59026 -5.35714,7.64027 -8.05924,11.50864c-0.08009,-0.00431 -0.16029,-0.00925 -0.24059,-0.01483c-18.92934,-1.31509 -28.76871,-19.0772 -28.36997,-21.54889z" fill="#000000" stroke="none" stroke-width="0"/><path d="M356.15853,202.53892c0.00119,-0.00332 0.00239,-0.00663 0.00358,-0.00995c-0.00023,0.00262 -0.00143,0.00594 -0.00358,0.00995z" fill="#000000" stroke="none" stroke-width="0"/><path d="M220.23242,227.63738c0,0 7.53297,6.4229 19.80332,7.90971c6.27637,0.7605 10.74595,-3.84754 21.93825,-2.87703c8.11656,0.70381 20.09743,20.52447 30.6447,20.067c10.16333,-0.44081 19.9833,-20.76312 19.9833,-20.76312c0,0 8.5969,2.96522 7.32439,16.67424c-1.98054,21.33659 -18.91744,26.1596 -31.72276,25.80542c-25.14312,-0.69542 -18.9046,-11.92564 -31.34526,-21.3006c-5.74955,-4.33271 -15.89565,2.94905 -27.4307,-3.99869c-11.19265,-6.74146 -9.19524,-21.51691 -9.19524,-21.51691z" fill="#f89587" stroke="none" stroke-width="0"/><path d="M327.83241,284.88776c-11.83923,-4.38112 -20.17656,-11.91543 -20.17656,-11.91543c0,0 -13.87157,6.01032 -19.62534,5.61058c-26.36792,-1.83188 -21.99721,-18.35752 -28.60256,-22.88048c-9.78424,-6.69964 -27.36192,-1.06759 -36.23405,-9.86118c-7.94229,-7.87198 -5.15528,-13.15666 -4.63769,-26.47399c0.73607,-18.93855 42.75436,-31.33706 44.11455,-50.91561c1.77849,-25.59944 3.15827,-83.83584 13.69251,-97.31351c10.83322,-13.86021 36.74401,-13.38729 54.61953,-7.64374c10.06089,3.23266 -9.64639,54.79098 -20.22222,93.6557c-1.48535,5.45844 15.56586,-22.42319 37.44874,-57.164c10.68693,-16.96632 15.83638,-36.1503 29.149,-33.0892c8.99918,2.06923 27.66017,21.79174 33.80652,29.94267c5.30909,7.04062 -63.58179,88.81953 -61.81128,93.73487v-0.00003c0.06024,0.16725 12.23208,-15.98253 13.43822,-15.62951c2.58717,0.75727 8.02411,3.96137 12.60503,7.16788c10.57048,7.39912 22.72781,20.42957 23.80585,27.34925c0.47225,3.03136 0.40775,5.83439 -0.10658,8.48853" fill="none" stroke="#000000" stroke-width="12"/><path d="M304.96902,269.50562c0,0 16.25232,-18.56144 14.92734,-22.18879c-7.29085,-19.95942 -15.54138,-28.14784 -28.38616,-31.89672c-3.09392,-0.90302 -12.06217,0.25631 -23.85322,2.15186c2.86702,-4.85728 19.13843,-8.20408 27.69383,-7.13933c19.07345,2.37371 32.75438,24.49892 32.01331,35.16583c-1.18066,16.99428 -15.04439,28.05537 -15.04439,28.05537z" fill="#000000" stroke="none" stroke-width="0"/></g></g></g></svg>