<svg version="1.1" xmlns="http://www.w3.org/2000/svg" xmlns:xlink="http://www.w3.org/1999/xlink" width="374.77477" height="288.28829" viewBox="0,0,374.77477,288.28829"><g transform="translate(-52.61263,-35.85585)"><g data-paper-data="{&quot;isPaintingLayer&quot;:true}" fill-rule="nonzero" stroke-linejoin="miter" stroke-miterlimit="10" stroke-dasharray="" stroke-dashoffset="0" style="mix-blend-mode: normal"><path d="M52.61263,324.14414v-288.28829h374.77477v288.28829z" fill="none" stroke="none" stroke-width="NaN" stroke-linecap="butt"/><g><g data-paper-data="{&quot;index&quot;:null}"><g stroke="#000000" stroke-width="3" stroke-linecap="round"><path d="M217.24123,176.61952c0,0 3.67904,-10.17487 6.83402,-13.71277c17.66815,3.5924 24.58565,11.19264 24.58565,11.19264c1.99793,0.79823 -2.16929,6.94011 -2.16929,6.94011c0,0 -7.71502,12.23939 -12.653,20.07323c-3.24248,5.14401 -8.30847,13.18091 -8.30847,13.18091c0,0 -3.45402,4.96549 -4.49678,4.45464c-6.27338,-3.07335 -12.99265,-4.89091 -15.49251,-7.4392c-0.83329,-0.84942 1.09327,-6.27266 1.09327,-6.27266l10.60711,-28.41687z" data-paper-data="{&quot;origPos&quot;:null}" fill="#582700"/><path d="M220.08235,171.51199l24.76125,11.03861l-1.57785,3.06501l-24.91768,-10.82536z" data-paper-data="{&quot;origPos&quot;:null}" fill="none"/></g><path d="M243.26198,186.12231l-20.74649,31.34369l-1.54219,0.06063l-15.31658,-6.68304l13.18305,-35.32495z" fill="#66c8ff" stroke="#000000" stroke-width="1" stroke-linecap="round"/><path d="M244.67323,182.96795l-1.06892,2.10566l-24.61931,-10.94071l1.06892,-2.10566z" fill="#ffffff" stroke="none" stroke-width="0" stroke-linecap="butt"/></g><g fill="#fffc96" stroke="#000000" stroke-width="2" stroke-linecap="round"><path d="M216.08357,181.48356c0,0 -3.55986,-2.84993 -1.72973,-5.24504c2.92816,-3.83208 28.2515,19.16092 25.45733,23.32683c-1.14164,1.70209 -4.04018,0.05614 -4.04018,0.05614l0.85414,-1.69245c0,0 -3.73855,-5.29103 -9.51787,-10.77741c-5.69923,-5.41035 -10.42024,-7.95144 -10.42024,-7.95144z"/><path d="M213.0133,189.60817c0,0 -4.06238,0.2344 -3.62664,-2.05169c0.9147,-4.79883 38.40429,-4.37844 36.45341,-0.11869c-1.18151,2.5798 -4.76123,1.64093 -4.76123,1.64093l0.58897,-1.26186c0,0 -5.58144,-1.04356 -14.06136,-1.00004c-8.47992,0.04351 -14.19118,1.54147 -14.19118,1.54147z" data-paper-data="{&quot;index&quot;:null}"/></g></g><g data-paper-data="{&quot;origRot&quot;:0}" stroke="#000000" stroke-linecap="round"><path d="M217.67584,232.51761c0,0 -3.67918,-3.34618 -2.49462,-4.42009c3.49546,-3.16891 5.60643,-7.44186 10.07094,-9.25549c1.85389,-0.75311 5.57084,1.75657 5.57084,1.75657l28.00302,20.24002c0,0 2.92064,2.05466 4.55425,3.29053c1.74661,1.32135 3.31716,4.28688 1.79476,5.83207c-5.58974,5.67348 -7.9547,10.17135 -12.40156,12.87258c-1.62006,0.98409 -3.40844,1.92899 -5.20109,1.25603c-2.34169,-0.87904 -5.16548,-4.49919 -5.16548,-4.49919z" data-paper-data="{&quot;origPos&quot;:null}" fill="#ff0000" stroke-width="3"/><path d="M265.95081,246.46483c0,0 -2.43887,6.07746 -6.24448,9.71064c-2.91979,2.78749 -10.02545,8.10835 -10.02545,8.10835c0,0 -3.00243,-0.85895 -4.29051,-1.91539c-1.35693,-1.11289 -2.48708,-3.64322 -2.48708,-3.64322l16.82965,-17.20633z" data-paper-data="{&quot;origPos&quot;:null}" fill="#976e57" stroke-width="2"/><path d="M217.98162,232.68406c0,0 -3.67918,-3.34618 -2.49461,-4.42009c3.49545,-3.16891 5.60643,-7.44186 10.07096,-9.25548c1.85389,-0.75311 5.57081,1.75656 5.57081,1.75656l28.00303,20.24003c0,0 2.92065,2.05465 4.55426,3.29052c1.74661,1.32135 3.31715,4.28688 1.79476,5.83208c-5.58974,5.67348 -7.95468,10.17136 -12.40155,12.87257c-1.62006,0.98409 -3.40845,1.92896 -5.20109,1.25603c-2.34169,-0.87904 -5.16549,-4.49918 -5.16549,-4.49918z" data-paper-data="{&quot;origPos&quot;:null}" fill="#4b4b4b" stroke-width="3"/></g><path d="M200.2419,259.70349c0,0 -0.2463,4.4758 -1.69217,6.41045c-1.10688,1.48106 -3.15635,1.60581 -5.08789,1.61157c-5.30182,0.0158 -9.91184,-2.53814 -17.9086,-4.42499c-2.17796,-0.51389 -2.59779,-3.80013 -1.90868,-5.80032c0.64454,-1.87079 1.88744,-5.08584 1.88744,-5.08584l11.60118,-31.27791c0,0 1.64326,-4.0036 3.63544,-4.32239c4.7975,-0.76774 9.06342,1.72793 13.84243,2.59072c1.61954,0.29239 0.49709,4.9768 0.49709,4.9768c0,0 -1.23046,8.93143 -2.01803,14.64802c-1.11155,8.06827 -2.84821,20.67393 -2.84821,20.67393z" fill="#4b4b4b" stroke="#000000" stroke-width="3" stroke-linecap="round"/><g stroke="#000000" stroke-linecap="round"><path d="M191.87637,177.95654c0,0 -30.17121,5.91484 -30.2244,-12.06568c-0.01961,-6.62461 17.32867,-5.02736 17.32867,-5.02736z" data-paper-data="{&quot;origPos&quot;:null}" fill="#66c8ff" stroke-width="2"/><path d="M183.27914,166.26791c0,0 -17.01435,-1.89997 -16.79135,-2.51368c0.70707,-1.94585 13.29875,-1.38252 13.29875,-1.38252z" data-paper-data="{&quot;origPos&quot;:null}" fill="#0a0a0a" stroke-width="1"/></g><g><g><path d="M180.25742,183.00555c0,0 0.61139,-14.5283 2.85175,-15.27739c6.72104,-2.24731 22.55931,-2.71787 33.08241,-3.65159c1.62676,-0.14434 4.39715,13.20395 4.39715,13.20395l4.98528,30.32329c0,0 1.76822,14.86818 -0.0064,15.02565c-15.79751,1.40172 -34.22721,3.89343 -41.35336,3.68104c-2.37537,-0.07079 -3.08439,-15.83635 -3.08439,-15.83635z" data-paper-data="{&quot;origPos&quot;:null}" fill="#66c8ff" stroke="#000000" stroke-width="3.5" stroke-linecap="round"/><path d="M201.13609,189.38857c-1.37437,0.12195 -1.62537,-2.35444 -1.62537,-2.35444c-0.5206,-5.13621 -1.20854,-11.92335 -1.72913,-17.05956c0,0 -0.25101,-2.47638 1.12336,-2.59833c1.37437,-0.12195 1.62537,2.35444 1.62537,2.35444c0.5206,5.13621 1.04121,10.27242 1.56181,15.40864l0.16734,1.65093c0,0 0.251,2.47638 -1.12337,2.59833z" fill="#ffffff" stroke="none" stroke-width="0.5" stroke-linecap="butt"/><path d="M214.54344,194.56068c-1.37437,0.12195 -1.68969,-2.98909 -1.68969,-2.98909c-0.65402,-6.45253 -1.51827,-14.97908 -2.17229,-21.43161c0,0 -0.31533,-3.11104 1.05903,-3.23299c1.37437,-0.12195 1.68969,2.98909 1.68969,2.98909c0.65402,6.45253 1.30805,12.90506 1.96206,19.3576l0.21022,2.07403c0,0 0.31533,3.11104 -1.05903,3.23299z" fill="#ffffff" stroke="none" stroke-width="0.5" stroke-linecap="butt"/></g><g fill="none" stroke="#b9b9b9" stroke-width="3"><path d="M214.385,169.29396c-1.01755,-1.2739 -0.16871,-2.57426 1.00963,-3.90231c1.17835,-1.32803 2.44681,-1.81418 3.25755,-0.90697c1.71899,1.92356 0.23274,3.03534 -0.68994,4.07523c-1.17836,1.32805 -2.1402,2.53313 -3.57724,0.73406z" stroke-linecap="butt"/><path d="M212.87112,171.36564l2.50155,-2.75271" stroke-linecap="round"/><path d="M209.16107,172.32698c1.17835,-1.32803 2.44682,-1.81418 3.25756,-0.90696c1.71899,1.92356 0.23274,3.03534 -0.68994,4.07523c-1.17835,1.32804 -2.14019,2.53313 -3.57722,0.73405c-1.01755,-1.2739 -0.16873,-2.57426 1.00961,-3.90232z" stroke-linecap="butt"/><path d="M209.13909,175.54827l-2.50155,2.75272" stroke-linecap="round"/><path d="M200.60966,178.38155c0.26132,-1.6656 1.70064,-1.63801 3.36405,-1.32472c1.66341,0.3133 2.79235,1.19425 2.65972,2.45922c-0.28123,2.68209 -1.98423,1.9623 -3.28672,1.71699c-1.66341,-0.31329 -3.10608,-0.49923 -2.73703,-2.85148z" stroke-linecap="butt"/><path d="M201.70083,178.89315l-3.48458,-0.70349" stroke-linecap="round"/><path d="M192.50746,174.70507c0.81731,-1.39515 2.14674,-0.72247 3.58618,0.3105c1.43944,1.03296 2.18598,2.34103 1.62653,3.43022c-1.18621,2.30938 -2.52235,0.8894 -3.64949,0.08056c-1.43944,-1.03297 -2.71743,-1.85097 -1.56321,-3.82126z" stroke-linecap="butt"/><path d="M193.3462,175.66068l-2.99912,-2.20676" stroke-linecap="round"/><path d="M184.96936,169.22183c0.81731,-1.39513 2.14675,-0.72247 3.58619,0.3105c1.43946,1.03296 2.18598,2.34103 1.62653,3.43022c-1.18621,2.30937 -2.52235,0.88939 -3.64948,0.08055c-1.43944,-1.03296 -2.71743,-1.85095 -1.5632,-3.82125z" stroke-linecap="butt"/><path d="M185.80812,170.17743l-2.99913,-2.20676" stroke-linecap="round"/></g></g><g data-paper-data="{&quot;index&quot;:null}"><path d="M209.62484,172.27095c-12.69201,-2.25392 -24.99257,-4.47508 -29.80236,-6.4005c-4.39583,-1.7597 -5.19897,-4.72576 -5.19897,-4.72576c0,0 -1.32993,-2.73178 -1.09831,-4.25142c0.6948,-4.55891 3.32868,-17.47631 6.69972,-28.40732c0.1125,-0.36483 0.18986,-0.56604 0.3254,-0.92394c0.40659,-1.0737 2.18389,-5.20401 2.18389,-5.20401c0,0 3.69136,-1.00007 5.60664,-1.12362c5.74583,-0.37068 19.27894,3.68845 33.77252,6.83365c1.31366,0.28508 3.22563,2.35875 3.22563,2.35875c0,0 0.95513,3.37942 0.48742,5.31408c-3.02372,12.50787 -6.41846,26.33654 -7.41685,29.45637c-0.3328,1.03995 -3.13949,4.78614 -3.13949,4.78614z" fill="#582700" stroke="#000000" stroke-width="2.5" stroke-linecap="round"/><path d="M178.07386,122.30684c-0.47392,-1.16871 0.7752,-1.61212 0.7752,-1.61212l1.53397,-0.50064c0.13176,-0.013 0.26327,-0.02527 0.39454,-0.03681c0.11964,-5.87158 2.73013,-12.50988 3.87573,-18.127c0.2971,-1.45672 0.73066,-5.47156 1.74409,-6.58137c1.69705,-1.8584 3.36922,-0.94543 5.35879,-0.58497c3.3852,0.61332 6.73511,1.26034 10.18035,1.40343c8.53833,0.36394 16.82363,1.60515 25.30251,2.45424c2.67558,0.26793 5.26529,0.64533 7.86735,1.33758c0.71198,0.18941 1.68989,0.11111 2.09407,0.69129c1.43151,2.05482 0.26285,3.8377 -0.47159,5.70295c-1.46498,3.7206 -3.88207,6.87587 -4.82754,10.78679c-0.74468,2.98751 -1.88398,5.98467 -2.91605,8.89415c-0.35618,1.00403 -0.39557,2.97606 -1.66998,3.54671c-2.61314,1.1701 -8.29247,-1.09674 -10.93891,-1.66444c-8.06952,-1.73105 -16.10766,-3.61908 -24.2703,-4.91726c-2.93744,-0.37105 -5.7546,-0.64504 -8.64999,-0.58515c-0.10379,0.3607 -0.38763,0.79578 -1.14692,0.86446c-0.82382,0.07451 -1.1866,-0.37464 -1.34341,-0.72722c-0.10012,0.0091 -0.20042,0.01865 -0.30087,0.02869l-0.86802,0.35202c0,0 -1.24911,0.44341 -1.72304,-0.7253z" fill="#000000" stroke="none" stroke-width="0.5" stroke-linecap="butt"/><path d="M194.08332,141.17226c5.40453,-1.59825 9.47595,1.31736 10.26588,6.31803c0.90597,5.73518 -3.71784,8.13181 -3.71784,8.13181c0,0 -2.48374,-1.5135 -5.82722,-2.46285c-4.16318,-1.18207 -6.58556,-1.12221 -6.58556,-1.12221c0,0 -1.46707,-8.6966 5.86474,-10.8648z" fill="#ffffff" stroke="#0a0a0a" stroke-width="2" stroke-linecap="butt"/><path d="M221.88144,146.93025c5.58993,4.94014 0.22008,12.17009 0.22008,12.17009c0,0 -2.15255,-1.04125 -6.45029,-1.6742c-3.45156,-0.50833 -6.39193,-0.15838 -6.39193,-0.15838c0,0 -3.04603,-4.04194 0.43985,-8.835c3.03944,-4.1792 8.06176,-5.14405 12.18228,-1.50252z" data-paper-data="{&quot;index&quot;:null}" fill="#ffffff" stroke="#0a0a0a" stroke-width="2" stroke-linecap="butt"/><g data-paper-data="{&quot;index&quot;:null}" stroke="#000000" stroke-width="1" stroke-linecap="butt"><path d="M187.13168,168.34447c-12.197,-5.20972 -3.28219,-15.85251 -3.28219,-15.85251l18.22955,7.60468c0,0 -2.03402,13.76351 -14.94737,8.24782z" fill="#000000"/><path d="M187.31275,164.15391c2.90626,2.34822 4.52915,5.47174 3.93345,5.38974c-1.23097,-0.16943 -2.59768,-0.55131 -4.11451,-1.19919c-4.54603,-1.94173 -6.15925,-4.63825 -6.39435,-7.25713c-0.04568,-0.50878 3.90661,0.91022 6.5754,3.06658z" fill="#ff8484"/><path d="M181.70409,156.43658c0.83561,-1.6285 2.14542,-3.94463 2.14542,-3.94463l16.02113,6.68341l-1.90772,4.18145c0,0 -16.28637,-6.86655 -16.25882,-6.92022z" fill="#ffffff"/></g></g><g data-paper-data="{&quot;index&quot;:null}"><g data-paper-data="{&quot;origRot&quot;:0,&quot;index&quot;:null}" stroke="#000000" stroke-width="3" stroke-linecap="round"><path d="M165.10048,220.79733c0,0 -24.26146,-11.07135 -23.25859,-13.44831c1.80823,-4.28581 8.72742,-12.73762 8.72742,-12.73762l19.98738,-23.58581c0,0 3.86679,-4.42397 5.0796,-4.21961c3.63839,0.61307 8.87396,4.95254 15.00503,8.26777c1.01909,0.55106 -1.61727,5.93765 -1.61727,5.93765c0,0 -4.5477,8.30384 -7.45844,13.61872c-4.43278,8.09403 -11.35842,20.73997 -11.35842,20.73997c0,0 -3.31717,6.57968 -5.10673,5.42725z" data-paper-data="{&quot;origPos&quot;:null}" fill="#582700"/><path d="M146.68775,201.30181l22.57898,13.23675" fill="none"/><path d="M148.92387,198.40994l22.44423,13.43795" data-paper-data="{&quot;origPos&quot;:null}" fill="none"/></g><path d="M149.07134,197.69021l25.33131,-29.88047l1.54795,0.09956l14.29821,8.43892l-18.37135,34.7442z" fill="#66c8ff" stroke="#000000" stroke-width="1" stroke-linecap="round"/><path d="M146.75436,201.14717l1.32985,-1.97125l23.04798,13.6113l-1.32985,1.97125z" fill="#ffffff" stroke="none" stroke-width="0" stroke-linecap="butt"/></g><path d="M181.14285,160.89246c0.08047,-0.02384 0.1377,-0.02007 0.1377,-0.02007l0.18229,0.01687c1.39722,-0.12363 2.82763,0.41121 4.22107,0.68362c1.37349,0.27247 2.81231,0.37524 4.1474,1.08134c1.72415,0.91186 3.23332,2.71117 5.10788,2.62415c1.04998,-0.04874 2.19227,-0.58485 3.19179,-1.11041c0.32212,-0.16938 0.62996,-0.63831 0.96163,-0.5329c0.47696,0.1516 1.16061,0.4388 1.25579,1.2377c0.12326,1.03464 -1.05917,2.3655 -1.50328,2.93303c-0.24299,0.22166 -0.47305,0.48906 -0.72899,0.66497c-0.36414,0.25028 -0.81495,0.10443 -1.14923,0.45281c-0.31367,0.3269 -0.29962,1.13327 -0.43316,1.711c-0.19484,0.8429 -0.2643,1.82526 -0.14861,2.7413c0.29091,2.30328 2.9219,5.37126 0.88721,7.32982c-0.27735,0.26697 -1.49571,0.03221 -1.79866,-0.12503c-1.24369,-0.64555 -2.35871,-1.96414 -3.51475,-2.92966c-0.74968,-0.87105 -1.56151,-1.53674 -2.30153,-2.44526c-2.01761,-2.47702 -3.98471,-5.19851 -5.9007,-7.89339c-1.07677,-1.51449 -2.07272,-3.44567 -3.27997,-4.64686c0,0 -0.5353,-0.53949 -0.21384,-1.43789c0.32145,-0.89839 0.85675,-0.3589 0.85675,-0.3589c0.00775,0.00789 0.01549,0.01581 0.02322,0.02376z" data-paper-data="{&quot;index&quot;:null}" fill="#000000" stroke="none" stroke-width="0.5" stroke-linecap="butt"/><path d="M192.41205,155.99384c-0.38751,-0.22496 -0.22431,-0.86253 -0.38231,-1.20997c-0.26866,-0.24318 -0.49835,-0.55868 -0.69241,-0.88301c-0.24877,-0.256 -0.5087,-0.50353 -0.70675,-0.73396c0,0 -0.23161,-0.26945 -0.088,-0.54808c-0.12882,-0.04269 -0.25604,-0.0894 -0.38122,-0.14095c0,0 -1.11548,-0.47847 -0.60411,-1.52215c0.51139,-1.04368 1.62687,-0.56522 1.62687,-0.56522c0.94997,0.43264 1.88464,0.42066 2.90771,0.72229c0.93039,0.2743 1.7554,0.91524 2.70323,1.07595c0.71497,0.12123 1.44511,0.19719 2.13558,0.40894l0.61332,0.20704c0,0 1.1541,0.39015 0.73712,1.46996c-0.41699,1.07981 -1.57109,0.68967 -1.57109,0.68967l-0.44469,-0.15056l-0.6066,0.23864c-1.19085,0.0308 -1.84542,-0.21582 -2.88957,-0.57279c-0.19538,0.03926 -0.40046,0.09903 -0.52426,0.22808c-0.02348,0.03337 -0.04868,0.06535 -0.0758,0.09572c-0.50198,0.73486 -0.0003,2.21025 -1.75708,1.19038z" fill="#000000" stroke="none" stroke-width="0.5" stroke-linecap="butt"/><path d="M216.29398,161.21116c-2.04927,0.25614 -0.94507,-0.89701 -1.08082,-1.75984c-0.01141,-0.03811 -0.02038,-0.07694 -0.02718,-0.11638c-0.05636,-0.16521 -0.2172,-0.2984 -0.37818,-0.40917c-1.10878,-0.07504 -1.81387,-0.10125 -2.88649,-0.58624l-0.44866,-0.45039l-0.47157,-0.0333c0,0 -1.22359,-0.08697 -1.13064,-1.2318c0.09295,-1.14483 1.31654,-1.05786 1.31654,-1.05786l0.65013,0.04649c0.72256,0.07179 1.42178,0.28265 2.127,0.4464c0.93491,0.21708 1.96829,-0.05095 2.93706,0.05584c1.0653,0.11742 1.91253,0.48696 2.96856,0.45685c0,0 1.22709,-0.0084 1.23606,1.1397c0.00898,1.1481 -1.21811,1.1565 -1.21811,1.1565c-0.13676,-0.00101 -0.27326,-0.00722 -0.40947,-0.01771c0.00886,0.30922 -0.32048,0.46612 -0.32048,0.46612c-0.28162,0.13417 -0.62718,0.26021 -0.96628,0.39824c-0.31913,0.22135 -0.66691,0.42099 -1.01852,0.5397c-0.29638,0.25627 -0.42697,0.90039 -0.879,0.95688z" data-paper-data="{&quot;index&quot;:null}" fill="#000000" stroke="none" stroke-width="0.5" stroke-linecap="butt"/><g data-paper-data="{&quot;index&quot;:null}" fill="#582700" stroke="none" stroke-width="0" stroke-linecap="butt"><path d="M147.07043,136.31297l4.16382,9.39935l-12.4478,5.51425l-4.16382,-9.39935z" data-paper-data="{&quot;index&quot;:null}"/><path d="M156.47976,123.93973l2.36325,5.33476l-6.85898,3.03846l-2.36325,-5.33476z" data-paper-data="{&quot;index&quot;:null}"/></g></g></g></svg>