<svg version="1.1" xmlns="http://www.w3.org/2000/svg" xmlns:xlink="http://www.w3.org/1999/xlink" width="210" height="221" viewBox="0,0,210,221"><g transform="translate(-140,-90)"><g data-paper-data="{&quot;isPaintingLayer&quot;:true}" fill-rule="nonzero" stroke-linejoin="miter" stroke-miterlimit="10" stroke-dasharray="" stroke-dashoffset="0" style="mix-blend-mode: normal"><path d="M140,311v-221h210v221z" fill="none" stroke="none" stroke-width="0" stroke-linecap="butt"/><g data-paper-data="{&quot;index&quot;:null}" stroke="#000000" stroke-linecap="round"><path d="M261.27132,192.75898c0,0 15.61508,-1.62782 15.59742,5.12359c-0.04788,18.32469 -27.20479,12.29663 -27.20479,12.29663z" data-paper-data="{&quot;origPos&quot;:null}" fill="#7c7c7c" stroke-width="2"/><path d="M260.54588,194.29607c0,0 11.33369,-0.57411 11.97012,1.40898c0.20072,0.62546 -15.11379,2.56179 -15.11379,2.56179z" data-paper-data="{&quot;origPos&quot;:null}" fill="#0a0a0a" stroke-width="1"/></g><g data-paper-data="{&quot;index&quot;:null}"><path d="M233.24467,201.99057c0,0 -1.60812,26.49596 -10.53429,36.73226c-2.68986,3.08466 -14.77185,3.39674 -15.7585,3.16081c-4.26087,-1.0189 -12.96694,-26.92756 -12.96694,-26.92756c0,0 -4.39158,-11.43934 -4.57581,-16.78102c15.12802,-9.75491 25.32742,-8.23945 25.32742,-8.23945c1.98137,-0.76547 3.23888,7.55522 3.23888,7.55522l4.7083,23.8251l-0.76981,-3.58561c0,0 -4.27557,-21.22053 -2.14708,-20.20339c1.9584,0.93584 15.08054,1.64857 13.47781,4.46362z" fill="#582700" stroke="#000000" stroke-width="2.5" stroke-linecap="round"/><path d="M220.9495,216.16381c-1.50575,0.65488 -3.12525,1.11752 -4.67266,1.40785c-4.21733,1.34501 -8.85232,2.74011 -13.20415,3.51848c-1.24146,0.22205 -2.46334,0.47938 -3.69889,0.74398c-0.41604,0.0891 -1.44025,0.09076 -1.79432,0.08571c0.81592,1.26996 1.27698,3.17519 2.28424,4.23547c0.11845,0.1247 0.39757,0.15561 0.74827,0.13406c1.09988,-0.41799 2.27974,-0.67631 2.82253,-0.85952c6.00121,-2.53662 12.30716,-3.61432 18.38283,-5.77986c0.00581,-0.6266 -0.43933,-1.85555 -0.46897,-1.96744c-0.13431,-0.50698 -0.26982,-1.01225 -0.3989,-1.51871zM220.59201,214.65075c-0.12317,-0.57958 -0.22833,-1.16437 -0.30431,-1.75862c0,0 -0.04689,-0.3695 0.15128,-0.63375c-0.79128,-3.30316 -1.36766,-6.71012 -1.75932,-9.84152c-0.34853,-1.37597 -0.95114,-3.20419 0.32693,-4.21447c0.91966,-0.72696 3.01628,-0.41738 4.04341,-0.22659c3.29503,0.61209 6.59872,1.31234 9.86644,2.00671c1.56728,1.58637 0.50104,3.3921 0.0435,5.44901c-0.9969,4.48164 -1.87422,8.9852 -2.87677,13.46689c-0.32172,3.27548 -1.44155,6.10974 -2.08416,9.26146c-0.89,4.36509 -1.69802,7.80882 -4.40848,11.23317c-4.80877,2.8001 -13.14976,4.19098 -17.93006,0.60331c-3.41336,-1.24558 -4.62591,-5.50719 -6.08829,-8.801c-0.24513,-0.5521 -1.4147,-2.38416 -1.33439,-2.93669c0.05705,-0.39252 0.29262,-0.7321 0.63651,-1.02698c-1.10181,-1.16854 -1.67805,-3.24488 -2.53196,-4.60813c-0.33347,-2.66289 2.8634,-2.41004 4.8862,-2.81187c4.90931,-0.97523 9.98007,-2.21551 14.74362,-3.76149c1.52444,-0.28603 3.14002,-0.73823 4.61984,-1.39945zM202.3656,227.46113c-0.01876,0.00282 -0.03783,0.00584 -0.05722,0.00905c-1.22567,0.444 -2.71669,0.99337 -2.70158,1.02779c1.42484,3.24658 3.34634,8.82402 6.66235,10.09736c4.41494,3.31345 11.97227,1.96914 16.47435,-0.43646c2.40996,-3.17502 3.08191,-6.35189 3.90399,-10.34194c0.64588,-3.13488 1.74903,-5.93666 2.07209,-9.19436c0.99682,-4.51875 1.89469,-9.05173 2.89578,-13.56698c0.13845,-0.62445 1.06809,-3.51396 0.73621,-3.64893c-3.4064,-0.47276 -6.74309,-1.69318 -10.16531,-2.01443c-0.28108,-0.02638 -2.61281,-0.10975 -2.6206,0.32919c-0.01266,0.71368 0.29332,1.67959 0.46893,2.37018c0.80573,6.26755 3.71152,12.29541 4.12573,18.50722c-0.51355,0.52923 -1.11408,1.00386 -1.78125,1.22792l-0.63405,0.36063c0,0 -0.10248,0.05769 -0.24492,0.07921c-2.33393,1.59133 -6.22494,1.8559 -8.38687,2.20344c-3.65656,0.67236 -7.02421,2.43307 -10.74765,2.99109z" fill="#000000" stroke="none" stroke-width="0.5" stroke-linecap="butt"/><path d="M216.31824,217.54865c1.5474,-0.29033 3.16837,-0.74925 4.67413,-1.40413c0.12908,0.50646 0.26629,1.01747 0.4006,1.52445c0.02964,0.11188 0.47607,1.34845 0.47026,1.97505c-6.07567,2.16554 -12.46718,3.27582 -18.46839,5.81244c-0.54279,0.1832 -1.72436,0.43798 -2.82423,0.85596c-0.3507,0.02155 -0.63062,-0.01128 -0.74908,-0.13597c-1.00726,-1.06029 -1.47224,-2.98402 -2.28817,-4.25399c0.35406,0.00505 1.37827,0.00346 1.79432,-0.08563c1.23555,-0.26461 2.45737,-0.52561 3.69884,-0.74766c4.35183,-0.77836 9.0744,-2.19552 13.29173,-3.54052z" data-paper-data="{&quot;noHover&quot;:false,&quot;origItem&quot;:[&quot;Path&quot;,{&quot;applyMatrix&quot;:true,&quot;segments&quot;:[[[926.17844,407.1979],[3.2606,1.25965],[-0.27949,0.97418]],[[925.31465,410.11917],[0.29084,-0.97519],[-0.06418,0.21521]],[[924.29914,413.90358],[-0.01258,-1.20526],[13.15638,4.16543]],[[964.1057,425.02121],[-12.99513,-4.87922],[1.17537,0.35239]],[[970.21765,426.67451],[-2.3817,-0.804],[0.75941,0.04146]],[[971.83798,426.41666],[-0.25651,0.23985],[2.18115,-2.03947]],[[976.78433,418.26967],[-1.76682,2.44279],[-0.76669,0.00973]],[[972.89889,418.10481],[0.90089,0.17138],[-2.67549,-0.50896]],[[964.88923,416.67374],[2.68829,0.42712],[-9.42353,-1.49721]],[[936.29671,409.90591],[9.13228,2.58714],[-3.35077,-0.55846]]],&quot;closed&quot;:true}]}" fill="#ffffff" stroke="none" stroke-width="0.5" stroke-linecap="butt"/><path d="M203.91824,226.88426c5.50618,-2.32174 11.17912,-3.42819 16.78673,-5.26016c0.01394,0.06283 0.12336,0.16169 0.15437,0.23152c0.30979,0.69749 0.84204,0.31486 0.84204,0.31486l0.63301,-0.35678c0.66718,-0.22406 1.26634,-0.68921 1.77989,-1.21842c-0.41421,-6.21181 -3.28525,-12.18573 -4.09099,-18.45328c-0.17562,-0.69059 -0.46132,-1.75791 -0.44866,-2.4716c0.00777,-0.43894 2.34535,-0.35381 2.62643,-0.32743c3.42221,0.32125 6.77664,1.55399 10.18303,2.02675c0.33188,0.13496 -0.59507,3.02775 -0.73351,3.65221c-1.00109,4.51524 -1.88818,9.077 -2.885,13.59575c-0.32306,3.25769 -1.43356,6.09285 -2.07944,9.22773c-0.82208,3.99005 -1.5149,7.18641 -3.92487,10.36144c-4.5021,2.40562 -12.10061,3.7467 -16.51555,0.43326c-3.316,-1.27332 -5.256,-6.87378 -6.68084,-10.12036c-0.025,-0.05694 4.15245,-1.56761 4.35334,-1.6355z" data-paper-data="{&quot;noHover&quot;:false,&quot;origItem&quot;:[&quot;Path&quot;,{&quot;applyMatrix&quot;:true,&quot;segments&quot;:[[[926.61254,417.73069],[12.14285,3.5238],[-0.03018,0.12086]],[[926.46822,418.11346],[0.06716,-0.13431],[-0.67082,1.34164]],[924.45576,418.78428],[[923.08279,418.0906],[0,0],[-1.44471,-0.43097]],[[919.22563,415.72869],[1.11205,1.01797],[0.89694,-11.9485]],[[928.15956,380.1298],[-1.74473,12.05571],[0.38029,-1.32836]],[[929.175,375.57071],[0.02742,1.37277],[-0.01686,-0.84429]],[[923.5003,374.93752],[0.60865,-0.05075],[-7.41054,0.61792]],[[901.48814,378.8123],[7.37628,-0.90935],[-0.71866,0.25961]],[[903.08234,385.83106],[-0.2998,-1.20115],[2.16779,8.68513]],[[909.35292,411.92731],[-2.15853,-8.69186],[0.69956,6.26621]],[[913.83986,429.61277],[-1.39861,-6.02998],[1.78014,7.67491]],[[922.29365,449.50563],[-5.21858,-6.1072],[9.74892,4.62723]],[[957.96755,450.34516],[-9.56021,6.37347],[7.18055,-2.44927]],[[972.39433,430.92276],[-3.08539,6.24485],[0.05411,-0.10951]],[[963.14745,427.86406],[0.43501,0.13058],[-11.92317,-4.46591]]],&quot;closed&quot;:true}]}" fill="#616161" stroke="none" stroke-width="0.5" stroke-linecap="butt"/></g><g><path d="M263.62264,242.4697c0,0 0.79659,16.05939 -1.32549,16.34506c-6.36624,0.85705 -23.10693,-0.01191 -37.38997,-0.01191c-1.60451,0 -1.37046,-15.24427 -1.37046,-15.24427l1.71307,-31.21447c0,0 1.2701,-13.79244 2.74092,-13.79244c9.51427,0 23.74926,-0.9484 29.97591,0.72663c2.07555,0.55835 3.94293,15.24355 3.94293,15.24355z" data-paper-data="{&quot;origPos&quot;:null}" fill="#7c7c7c" stroke="#000000" stroke-width="3.5" stroke-linecap="round"/><path d="M232.97449,222.53788c-1.2426,0 -1.24261,-2.53511 -1.24261,-2.53511c0,-5.25801 0,-12.20609 0,-17.4641c0,0 0.00001,-2.53511 1.24261,-2.53511c1.2426,0 1.2426,2.53511 1.2426,2.53511c0,5.25801 0,10.51602 0,15.77403v1.69007c0,0 0,2.53511 -1.2426,2.53511z" fill="#ffffff" stroke="none" stroke-width="0.5" stroke-linecap="butt"/><path d="M244.5187,228.99244c-1.2426,0 -1.24261,-3.18482 -1.24261,-3.18482c0,-6.60554 0,-15.33429 0,-21.93984c0,0 0.00001,-3.18482 1.24261,-3.18482c1.2426,0 1.2426,3.18482 1.2426,3.18482c0,6.60554 0,13.21108 0,19.81664v2.12321c0,0 0,3.18482 -1.2426,3.18482z" fill="#ffffff" stroke="none" stroke-width="0.5" stroke-linecap="butt"/></g><g fill="none" stroke="#b9b9b9" stroke-width="3"><path d="M254.20738,203.88639c-0.7961,-1.38409 0.08263,-2.62701 1.25913,-3.86835c1.17651,-1.24132 2.3573,-1.62037 3.00139,-0.62693c1.36563,2.10638 -0.06713,3.10057 -0.98838,4.07257c-1.17652,1.24134 -2.14785,2.37742 -3.27214,0.42273z" stroke-linecap="butt"/><path d="M252.66267,205.852l2.4916,-2.56766" stroke-linecap="round"/><path d="M249.25088,206.49338c1.17651,-1.24132 2.3573,-1.62037 3.00139,-0.62693c1.36563,2.10638 -0.06713,3.10057 -0.98838,4.07257c-1.17651,1.24133 -2.14784,2.37742 -3.27213,0.42273c-0.7961,-1.38409 0.08262,-2.62701 1.25912,-3.86836z" stroke-linecap="butt"/><path d="M246.44702,212.32737l2.4916,-2.56769" stroke-linecap="round"/><path d="M241.0383,211.86642c0.38544,-1.66638 1.67266,-1.5088 3.13474,-1.0412c1.46208,0.46761 2.39368,1.46305 2.15994,2.73454c-0.49559,2.6959 -1.95624,1.8123 -3.10109,1.44615c-1.46208,-0.4676 -2.73795,-0.78613 -2.19359,-3.13948z" stroke-linecap="butt"/><path d="M241.96961,212.48374l-3.05854,-1.02746" stroke-linecap="round"/><path d="M234.11205,207.40692c0.85908,-1.34192 1.98925,-0.53975 3.18528,0.63787c1.19604,1.17762 1.74618,2.57198 1.14594,3.62668c-1.27269,2.23628 -2.34099,0.67529 -3.27753,-0.24682c-1.19603,-1.17763 -2.2669,-2.12261 -1.05368,-4.01773z" stroke-linecap="butt"/><path d="M234.77681,208.45197l-2.487,-2.50895" stroke-linecap="round"/><path d="M227.85538,201.16504c0.85908,-1.3419 1.98926,-0.53975 3.18528,0.63787c1.19604,1.17762 1.74618,2.57198 1.14594,3.62668c-1.27269,2.23627 -2.34099,0.67529 -3.27752,-0.24682c-1.19603,-1.17762 -2.2669,-2.1226 -1.05368,-4.01773z" stroke-linecap="butt"/><path d="M228.52017,202.21011l-2.48702,-2.50895" stroke-linecap="round"/></g><path d="M277.69243,253.41433c0,0 4.19691,-1.04607 6.34709,-0.27166c1.64606,0.59281 2.27556,2.43418 2.76556,4.20133c1.34493,4.8506 0.14215,9.79778 0.40547,17.65678c0.07171,2.14045 -2.85902,3.45854 -4.87989,3.39577c-1.8901,-0.05872 -5.17231,-0.28347 -5.17231,-0.28347l-31.80802,-1.73736c0,0 -4.11116,-0.36736 -4.90558,-2.10108c-1.91308,-4.17514 -0.6778,-8.79065 -1.07984,-13.41211c-0.13625,-1.56615 4.47324,-1.86915 4.47324,-1.86915c0,0 8.56032,-1.41072 14.03938,-2.31363c7.73303,-1.27437 19.81492,-3.2654 19.81492,-3.2654z" data-paper-data="{&quot;index&quot;:null}" fill="#171717" stroke="#000000" stroke-width="3" stroke-linecap="round"/><path d="M240.39004,265.1895c0,0 1.96094,4.06776 1.76446,6.46465c-0.15038,1.83491 -1.68796,2.92215 -3.19083,3.84816c-4.12518,2.54173 -8.94717,2.48557 -16.08824,4.6329c-1.94492,0.58482 -3.85289,-2.11542 -4.27786,-4.20936c-0.39746,-1.95844 -0.97511,-5.38865 -0.97511,-5.38865l-6.00201,-33.13699c0,0 -0.64485,-4.31703 0.75468,-5.54822c3.37036,-2.96493 7.8961,-2.79616 12.03636,-4.31318c1.40308,-0.51411 2.78139,4.15552 2.78139,4.15552c0,0 3.33701,8.46951 5.47287,13.89046c3.01451,7.65101 7.72428,19.60475 7.72428,19.60475z" data-paper-data="{&quot;index&quot;:null}" fill="#171717" stroke="#000000" stroke-width="3" stroke-linecap="round"/><path d="M225.04798,194.97155c0,0 -1.29969,-4.45455 -1.27809,-5.56066c0.0648,-3.31831 1.2351,-17.72538 2.3337,-30.74276c0.16992,-2.01348 1.98497,-5.01248 1.98497,-5.01248c0,0 2.2497,-1.45263 3.45925,-1.34513c13.34499,1.18614 26.13667,1.20491 30.95004,3.24427c1.60446,0.67979 4.47205,2.72907 4.47205,2.72907c0,0 0.30447,4.52623 0.33615,5.68666c0.01055,0.38681 0.01747,0.60462 0.00626,0.99141c-0.33595,11.58925 -1.88933,24.88993 -2.6387,29.51546c-0.24979,1.54185 -2.19492,3.80305 -2.19492,3.80305c0,0 -1.56292,2.64243 -5.84804,3.06436c-4.68867,0.46165 -15.88223,-0.97974 -27.42086,-2.50378z" fill="#582700" stroke="#000000" stroke-width="2.5" stroke-linecap="round"/><path d="M269.14862,159.10183l-0.63985,-0.59525c-0.0831,-0.03909 -0.16619,-0.07768 -0.2493,-0.11578c-0.23834,0.29618 -0.68164,0.62583 -1.36547,0.31271c-0.63028,-0.2886 -0.74511,-0.79365 -0.72765,-1.17389c-2.46296,-0.90456 -4.95735,-1.46236 -7.58344,-1.96116c-7.3762,-1.12702 -14.81972,-1.64544 -22.24382,-2.32533c-2.43476,-0.22297 -7.96911,0.31565 -9.86279,-1.58336c-0.92354,-0.92613 -0.37565,-2.85063 -0.38466,-3.92874c-0.02609,-3.12411 -0.11816,-6.36459 0.12498,-9.48035c0.34351,-4.07025 -0.79669,-7.83767 -0.95444,-11.87516c-0.07908,-2.02413 -0.55448,-4.09529 1.27803,-5.67008c0.51741,-0.44465 1.33213,-0.08278 1.99798,-0.05839c2.43347,0.08919 4.76351,0.48017 7.13483,1.00247c7.51468,1.65513 14.97918,2.87327 22.40169,5.01639c2.9939,0.86841 6.05476,1.22012 9.1359,1.61481c1.81085,0.23198 3.51276,-0.16481 4.41858,2.13409c0.54093,1.37285 -0.27178,5.39424 -0.4469,6.89421c-0.67526,5.78385 -0.39668,12.98658 -2.02599,18.71734c0.10906,0.04956 0.21812,0.09991 0.32716,0.15104l1.16657,0.9341c0,0 0.93939,0.79532 0.18866,1.79049c-0.75074,0.99517 -1.69013,0.19986 -1.69013,0.19986z" data-paper-data="{&quot;index&quot;:null}" fill="#000000" stroke="none" stroke-width="0.5" stroke-linecap="butt"/><path d="M240.71117,171.41947c0.52561,0.02723 0.81097,3.09615 0.63742,6.85457c-0.17355,3.75843 -0.74031,6.78316 -1.26592,6.75591c-0.52561,-0.02723 -0.81097,-3.09614 -0.63743,-6.85457c0.17355,-3.75843 0.7403,-6.78318 1.26592,-6.75593z" data-paper-data="{&quot;index&quot;:null}" fill="none" stroke="#590000" stroke-width="2.5" stroke-linecap="butt"/><path d="M236.87147,169.40519c0.4913,-1.16275 1.58888,-0.64228 1.58888,-0.64228l0.23422,0.11531c0.40703,-0.0702 0.772,0.1127 0.772,0.1127c0.87592,0.43901 1.74562,0.89207 2.61094,1.35408l0.04479,0.07005l0.01799,-0.02855l1.01549,0.71798c0.29801,0.20682 0.50669,0.55124 0.53975,0.95643c0.0572,0.70096 -0.43282,1.31831 -1.09449,1.37891c-0.16133,0.01478 -0.31797,-0.00491 -0.46345,-0.0533l-1.26092,-0.38547l0.06063,-0.22258c-0.85012,-0.12542 -1.51594,-0.50813 -2.73174,-1.36449l-0.72777,-0.32553c0,0 -1.09757,-0.52046 -0.60628,-1.68322z" data-paper-data="{&quot;index&quot;:null}" fill="#582700" stroke="none" stroke-width="0.5" stroke-linecap="butt"/><path d="M249.8081,172.35484c0.52562,0.02723 0.81096,3.09616 0.63742,6.85458c-0.17354,3.75843 -0.74031,6.78316 -1.26593,6.75591c-0.52562,-0.02723 -0.81097,-3.09614 -0.63743,-6.85457c0.17354,-3.75843 0.74031,-6.78317 1.26592,-6.75593z" data-paper-data="{&quot;index&quot;:null}" fill="none" stroke="#590000" stroke-width="2.5" stroke-linecap="butt"/><path d="M251.66657,169.67306c0,0 0.99699,-0.71228 1.66935,0.34391c0.67236,1.05618 -0.32463,1.76847 -0.32463,1.76847l-0.66424,0.45302c-1.05904,1.06469 -1.65299,1.56276 -2.47019,1.84086l0.09579,0.20824l-1.17977,0.60899c-0.13548,0.07411 -0.2866,0.12199 -0.44794,0.13677c-0.66167,0.06059 -1.24442,-0.45852 -1.30162,-1.15948c-0.03307,-0.40519 0.11672,-0.78245 0.37681,-1.04037l0.88411,-0.89194l0.02235,0.02486l0.03279,-0.07715c0.77764,-0.61246 1.56105,-1.21692 2.35286,-1.80866c0,0 0.32993,-0.24653 0.74228,-0.25137l0.21206,-0.15617z" data-paper-data="{&quot;index&quot;:null}" fill="#582700" stroke="none" stroke-width="0.5" stroke-linecap="butt"/><g data-paper-data="{&quot;index&quot;:null}" stroke="#000000" stroke-width="1.25" stroke-linecap="butt"><path d="M253.69529,199.07489c-9.1445,0.68186 -7.08442,-8.68735 -7.08442,-8.68735l12.86565,-0.84487c0,0 2.856,8.88819 -5.78122,9.53223z" fill="#000000"/><path d="M254.58807,196.32035c2.13304,-0.79921 4.86744,-0.83359 4.71804,-0.5143c-0.76897,1.64349 -2.3916,3.02881 -5.61084,3.26883c-1.07414,0.08009 -1.99368,0.0215 -2.78011,-0.14429c-0.38058,-0.08023 1.35006,-1.73993 3.67289,-2.61024z" fill="#ff8484"/><path d="M259.8329,192.57762c0.00385,0.04092 -11.50772,0.84269 -11.50772,0.84269l-0.1557,-3.13513l11.30704,-0.74252c0,0 0.23961,1.79322 0.35638,3.03494z" fill="#ffffff"/></g><g><g><path d="M253.2473,204.53319c-1.66427,-2.76123 11.96182,-3.46032 13.99544,-4.37827c2.21024,-0.99769 -2.22954,19.81706 -2.22954,19.81706l-0.79937,3.51704l4.88913,-23.36952c0,0 1.30581,-8.16157 3.36327,-7.41074c0,0 10.59111,-1.48649 26.30014,8.08189c-0.19132,5.23954 -4.75155,16.46015 -4.75155,16.46015c0,0 -9.04043,25.41323 -13.46493,26.41265c-1.02456,0.23142 -13.57055,-0.07469 -16.36373,-3.10037c-9.26898,-10.04056 -10.93886,-36.02988 -10.93886,-36.02988z" fill="#582700" stroke="#000000" stroke-width="2.5" stroke-linecap="round"/><path d="M266.01468,218.43544c-0.13403,0.49678 -0.27475,0.99238 -0.41421,1.48967c-0.03077,0.10975 -0.49301,1.31521 -0.48698,1.92982c6.30901,2.12413 12.85715,3.18123 19.08884,5.66934c0.56365,0.17971 1.78881,0.43309 2.93093,0.84309c0.36417,0.02114 0.65401,-0.00918 0.77701,-0.13149c1.04595,-1.04001 1.5247,-2.9088 2.37197,-4.15448c-0.36766,0.00495 -1.43121,0.00332 -1.86322,-0.08407c-1.283,-0.25954 -2.55181,-0.51195 -3.84095,-0.72975c-4.51897,-0.76349 -9.33197,-2.13191 -13.71126,-3.4512c-1.60683,-0.28478 -3.28853,-0.73858 -4.85211,-1.38093zM266.38589,216.95131c1.53666,0.64857 3.21428,1.09213 4.79727,1.37269c4.94651,1.51642 10.21201,2.73298 15.30987,3.68957c2.10049,0.39415 5.42013,0.14613 5.07386,2.7581c-0.8867,1.33719 -1.48507,3.37382 -2.62919,4.52002c0.3571,0.28925 0.60171,0.62233 0.66096,1.00735c0.08339,0.54197 -1.1311,2.339 -1.38564,2.88054c-1.51854,3.23083 -2.77765,7.41095 -6.32211,8.63271c-4.9639,3.51906 -13.62523,2.15478 -18.61867,-0.59178c-2.81456,-3.35887 -3.6536,-6.73675 -4.57779,-11.01837c-0.66729,-3.09145 -1.83013,-5.87152 -2.1642,-9.08436c-1.04105,-4.39599 -1.95207,-8.81343 -2.98725,-13.20938c-0.4751,-2.01757 -1.5823,-3.78878 0.04518,-5.34481c3.39321,-0.6811 6.82379,-1.36796 10.24537,-1.96834c1.06657,-0.18715 3.24372,-0.49081 4.1987,0.22225c1.32716,0.99096 0.7014,2.78421 0.33949,4.13387c-0.40671,3.07152 -1.00523,6.41334 -1.8269,9.65333c0.20578,0.2592 0.15709,0.62162 0.15709,0.62162c-0.0789,0.58289 -0.1881,1.1565 -0.316,1.72499zM285.3123,229.51671c-3.86645,-0.54735 -7.36343,-2.27439 -11.16042,-2.93389c-2.24495,-0.34089 -6.28539,-0.6004 -8.70896,-2.1613c-0.14791,-0.02111 -0.25432,-0.0777 -0.25432,-0.0777l-0.65839,-0.35374c-0.69279,-0.21977 -1.3164,-0.68533 -1.84967,-1.20444c0.43012,-6.09303 3.44751,-12.00564 4.28419,-18.15333c0.18236,-0.67738 0.50009,-1.62483 0.48694,-2.32486c-0.00809,-0.43054 -2.42936,-0.34877 -2.72125,-0.32289c-3.55365,0.3151 -7.01849,1.51219 -10.55571,1.97591c-0.34463,0.13239 0.62071,2.96665 0.76448,3.57916c1.03954,4.42891 1.97188,8.87521 3.00699,13.30755c0.33546,3.1954 1.48099,5.9436 2.15167,9.01854c0.85365,3.91376 1.5514,7.02988 4.05392,10.14418c4.675,2.35961 12.52257,3.67821 17.10707,0.42812c3.44336,-1.24899 5.43866,-6.71978 6.91822,-9.90428c0.0157,-0.03377 -1.5326,-0.57263 -2.80534,-1.00814c-0.02013,-0.00314 -0.03994,-0.00611 -0.05941,-0.00888z" fill="#000000" stroke="none" stroke-width="0.5" stroke-linecap="butt"/><path d="M270.8238,219.79378c4.37929,1.31929 9.28323,2.70934 13.8022,3.47282c1.28915,0.2178 2.55789,0.47382 3.84089,0.73336c0.43202,0.08739 1.49557,0.08895 1.86322,0.084c-0.84727,1.24569 -1.3301,3.13262 -2.37604,4.17264c-0.12301,0.12231 -0.41368,0.15451 -0.77785,0.13337c-1.14213,-0.41 -2.36908,-0.6599 -2.93271,-0.8396c-6.23169,-2.48811 -12.86866,-3.57716 -19.17768,-5.70129c-0.00603,-0.61461 0.45755,-1.82754 0.48833,-1.93727c0.13947,-0.49729 0.28196,-0.99853 0.41599,-1.4953c1.56359,0.64235 3.24682,1.0925 4.85365,1.37728z" data-paper-data="{&quot;noHover&quot;:false,&quot;origItem&quot;:[&quot;Path&quot;,{&quot;applyMatrix&quot;:true,&quot;segments&quot;:[[[926.17844,407.1979],[3.2606,1.25965],[-0.27949,0.97418]],[[925.31465,410.11917],[0.29084,-0.97519],[-0.06418,0.21521]],[[924.29914,413.90358],[-0.01258,-1.20526],[13.15638,4.16543]],[[964.1057,425.02121],[-12.99513,-4.87922],[1.17537,0.35239]],[[970.21765,426.67451],[-2.3817,-0.804],[0.75941,0.04146]],[[971.83798,426.41666],[-0.25651,0.23985],[2.18115,-2.03947]],[[976.78433,418.26967],[-1.76682,2.44279],[-0.76669,0.00973]],[[972.89889,418.10481],[0.90089,0.17138],[-2.67549,-0.50896]],[[964.88923,416.67374],[2.68829,0.42712],[-9.42353,-1.49721]],[[936.29671,409.90591],[9.13228,2.58714],[-3.35077,-0.55846]]],&quot;closed&quot;:true}]}" fill="#ffffff" stroke="none" stroke-width="0.5" stroke-linecap="butt"/><path d="M283.70005,228.95088c0.20861,0.06659 4.54649,1.54837 4.52053,1.60422c-1.47956,3.1845 -3.49406,8.67786 -6.93742,9.92684c-4.5845,3.25009 -12.47485,1.93465 -17.14984,-0.42497c-2.50251,-3.11431 -3.22195,-6.24955 -4.0756,-10.16331c-0.67068,-3.07494 -1.82383,-5.85589 -2.15931,-9.05128c-1.03511,-4.43233 -1.95627,-8.90687 -2.9958,-13.33577c-0.14377,-0.61251 -1.10631,-3.44998 -0.76168,-3.58237c3.53722,-0.46372 7.02047,-1.67289 10.57412,-1.98799c0.29188,-0.02588 2.71922,-0.10937 2.7273,0.32117c0.01315,0.70004 -0.28353,1.74695 -0.46589,2.42433c-0.83667,6.14769 -3.81798,12.00739 -4.24811,18.10042c0.53327,0.5191 1.15544,0.97536 1.84825,1.19513l0.65732,0.34995c0,0 0.55269,0.37532 0.87438,-0.30884c0.0322,-0.0685 0.14583,-0.16546 0.1603,-0.22709c5.82298,1.79693 11.71379,2.88223 17.43143,5.15957z" data-paper-data="{&quot;noHover&quot;:false,&quot;origItem&quot;:[&quot;Path&quot;,{&quot;applyMatrix&quot;:true,&quot;segments&quot;:[[[926.61254,417.73069],[12.14285,3.5238],[-0.03018,0.12086]],[[926.46822,418.11346],[0.06716,-0.13431],[-0.67082,1.34164]],[924.45576,418.78428],[[923.08279,418.0906],[0,0],[-1.44471,-0.43097]],[[919.22563,415.72869],[1.11205,1.01797],[0.89694,-11.9485]],[[928.15956,380.1298],[-1.74473,12.05571],[0.38029,-1.32836]],[[929.175,375.57071],[0.02742,1.37277],[-0.01686,-0.84429]],[[923.5003,374.93752],[0.60865,-0.05075],[-7.41054,0.61792]],[[901.48814,378.8123],[7.37628,-0.90935],[-0.71866,0.25961]],[[903.08234,385.83106],[-0.2998,-1.20115],[2.16779,8.68513]],[[909.35292,411.92731],[-2.15853,-8.69186],[0.69956,6.26621]],[[913.83986,429.61277],[-1.39861,-6.02998],[1.78014,7.67491]],[[922.29365,449.50563],[-5.21858,-6.1072],[9.74892,4.62723]],[[957.96755,450.34516],[-9.56021,6.37347],[7.18055,-2.44927]],[[972.39433,430.92276],[-3.08539,6.24485],[0.05411,-0.10951]],[[963.14745,427.86406],[0.43501,0.13058],[-11.92317,-4.46591]]],&quot;closed&quot;:true}]}" fill="#616161" stroke="none" stroke-width="0.5" stroke-linecap="butt"/></g><g data-paper-data="{&quot;index&quot;:null}" fill="#fffc96" stroke="#000000" stroke-width="2" stroke-linecap="round"><path d="M251.8971,213.14407c-0.16842,-2.0416 2.85819,-2.37247 2.85819,-2.37247l0.36855,1.8682c0,0 4.36402,1.63491 10.32964,2.80462c-0.11239,1.33622 -0.14682,2.32755 -0.06358,3.14287c-6.96566,-1.16499 -13.3091,-3.21637 -13.4928,-5.44322z"/><path d="M254.60345,226.47819c-0.64795,-2.77831 2.45674,-4.07646 2.45674,-4.07646l0.30904,1.36532c0,0 3.31541,-1.70609 8.01541,-5.23307c0.10134,1.06743 0.39914,1.83262 0.97996,2.66396c-5.81743,4.33194 -11.29173,7.29312 -11.76115,5.28024z" data-paper-data="{&quot;index&quot;:null}"/></g></g></g></g></svg>