<svg version="1.1" xmlns="http://www.w3.org/2000/svg" xmlns:xlink="http://www.w3.org/1999/xlink" width="210" height="221" viewBox="0,0,210,221"><g transform="translate(-140,-90)"><g data-paper-data="{&quot;isPaintingLayer&quot;:true}" fill-rule="nonzero" stroke-linejoin="miter" stroke-miterlimit="10" stroke-dasharray="" stroke-dashoffset="0" style="mix-blend-mode: normal"><path d="M140,311v-221h210v221z" fill="none" stroke="none" stroke-width="0" stroke-linecap="butt"/><g data-paper-data="{&quot;index&quot;:null}" stroke="#000000" stroke-linecap="round"><path d="M260.57646,195.10156c0,0 16.43711,-1.59725 16.41853,5.02736c-0.0504,17.98052 -28.63695,12.06568 -28.63695,12.06568z" data-paper-data="{&quot;origPos&quot;:null}" fill="#66c8ff" stroke-width="2"/><path d="M259.81283,196.60979c0,0 11.93033,-0.56333 12.60027,1.38252c0.21128,0.61371 -15.90943,2.51368 -15.90943,2.51368z" data-paper-data="{&quot;origPos&quot;:null}" fill="#0a0a0a" stroke-width="1"/></g><g><path d="M263.91849,243.37197c0,0 1.51573,15.70836 -0.70398,16.08212c-6.65915,1.12134 -24.3019,1.0088 -39.32327,1.6396c-1.68745,0.07086 -2.08487,-14.88392 -2.08487,-14.88392l0.48388,-30.67621c0,0 0.7535,-13.57728 2.30035,-13.64223c10.00609,-0.42018 24.93689,-1.97861 31.55614,-0.61151c2.20642,0.4557 4.79027,14.76961 4.79027,14.76961z" data-paper-data="{&quot;origPos&quot;:null}" fill="#66c8ff" stroke="#000000" stroke-width="3.5" stroke-linecap="round"/><path d="M230.84459,225.18569c-1.30684,0.05488 -1.41387,-2.43037 -1.41387,-2.43037c-0.22197,-5.15461 -0.5153,-11.96603 -0.73727,-17.12063c0,0 -0.10701,-2.48526 1.19982,-2.54013c1.30684,-0.05488 1.41386,2.43037 1.41386,2.43037c0.22197,5.15461 0.44395,10.30919 0.66592,15.4638l0.07135,1.65684c0,0 0.10702,2.48526 -1.19981,2.54013z" fill="#ffffff" stroke="none" stroke-width="0.5" stroke-linecap="butt"/><path d="M243.25804,231.00347c-1.30684,0.05488 -1.44129,-3.0673 -1.44129,-3.0673c-0.27887,-6.47563 -0.64735,-15.0327 -0.92622,-21.50834c0,0 -0.13444,-3.12218 1.17239,-3.17705c1.30684,-0.05488 1.44128,3.0673 1.44128,3.0673c0.27887,6.47563 0.55771,12.95125 0.83658,19.42689l0.08964,2.08145c0,0 0.13445,3.12218 -1.17238,3.17705z" fill="#ffffff" stroke="none" stroke-width="0.5" stroke-linecap="butt"/></g><g fill="none" stroke="#b9b9b9" stroke-width="3"><path d="M253.95078,206.21998c-0.83801,-1.35809 0.08698,-2.57767 1.32541,-3.7957c1.23844,-1.21801 2.48139,-1.58994 3.15939,-0.61516c1.43752,2.06682 -0.07066,3.04234 -1.04041,3.99608c-1.23845,1.21803 -2.26092,2.33277 -3.44439,0.41479z" stroke-linecap="butt"/><path d="M252.32475,208.14868l2.62276,-2.51944" stroke-linecap="round"/><path d="M248.73335,208.77801c1.23844,-1.21801 2.48139,-1.58994 3.15939,-0.61516c1.43752,2.06682 -0.07066,3.04234 -1.04041,3.99608c-1.23844,1.21802 -2.26091,2.33277 -3.44438,0.41479c-0.83801,-1.35809 0.08697,-2.57767 1.3254,-3.79571z" stroke-linecap="butt"/><path d="M245.78189,214.50242l2.62276,-2.51946" stroke-linecap="round"/><path d="M240.08844,214.05014c0.40573,-1.63508 1.76071,-1.48046 3.29977,-1.02164c1.53905,0.45883 2.51969,1.43557 2.27365,2.68318c-0.52168,2.64527 -2.05923,1.77826 -3.26434,1.41899c-1.53905,-0.45882 -2.88208,-0.77137 -2.30907,-3.08052z" stroke-linecap="butt"/><path d="M241.06877,214.65586l-3.21955,-1.00816" stroke-linecap="round"/><path d="M232.79756,209.67439c0.90431,-1.31672 2.09397,-0.52961 3.35296,0.62589c1.259,1.1555 1.8381,2.52367 1.20626,3.55857c-1.33969,2.19428 -2.46423,0.66261 -3.45008,-0.24218c-1.25899,-1.15551 -2.38623,-2.08274 -1.10915,-3.94227z" stroke-linecap="butt"/><path d="M230.8794,208.23799l2.61792,2.46183" stroke-linecap="round"/><path d="M226.21152,203.54975c0.90431,-1.3167 2.09398,-0.52961 3.35296,0.62589c1.259,1.1555 1.8381,2.52367 1.20626,3.55857c-1.33969,2.19427 -2.46423,0.66261 -3.45007,-0.24218c-1.25899,-1.1555 -2.38623,-2.08273 -1.10915,-3.94227z" stroke-linecap="butt"/><path d="M226.91131,204.57519l-2.61794,-2.46183" stroke-linecap="round"/></g><g><g data-paper-data="{&quot;index&quot;:null}"><g stroke="#000000" stroke-width="3" stroke-linecap="round"><path d="M277.64483,237.0408c0,0 2.95677,10.33691 2.51958,14.92429c-15.8606,6.39279 -25.61975,3.78911 -25.61975,3.78911c-2.01817,0.39971 -2.28246,-6.87055 -2.28246,-6.87055c0,0 -0.98704,-14.17598 -1.61882,-23.24931c-0.41485,-5.95792 -1.06299,-15.26645 -1.06299,-15.26645c0,0 -0.14729,-5.92273 0.96003,-6.05365c6.66182,-0.78762 12.95232,-2.84668 16.36546,-2.06925c1.13771,0.25914 2.74053,5.75054 2.74053,5.75054l7.99838,29.04526z" data-paper-data="{&quot;origPos&quot;:null}" fill="#582700"/><path d="M278.35236,242.75614l-25.66866,4.00908l-0.52384,-3.36246l25.66865,-4.26772z" data-paper-data="{&quot;origPos&quot;:null}" fill="none"/></g><path d="M251.87248,242.98299l-1.75496,-36.8268l1.16998,-0.86652l15.79471,-2.59955l9.94482,36.10471z" fill="#66c8ff" stroke="#000000" stroke-width="1" stroke-linecap="round"/><path d="M252.57763,246.3309l-0.37164,-2.30203l25.50167,-4.01465l0.37164,2.30203z" fill="#ffffff" stroke="none" stroke-width="0" stroke-linecap="butt"/></g><g fill="#fffc96" stroke="#000000" stroke-width="2" stroke-linecap="round"><path d="M275.76187,232.41755c0,0 4.41405,0.46489 4.35691,3.4086c-0.09142,4.70982 -33.04968,-0.83964 -33.25423,-5.75378c-0.08357,-2.0078 3.12394,-2.18542 3.12394,-2.18542l0.30263,1.84764c0,0 5.95253,2.38292 13.61119,3.84639c7.55254,1.44319 12.69665,1.03867 12.69665,1.03867z"/><path d="M273.50443,224.09337c0,0 3.03912,-2.34415 4.00877,-0.2286c2.03545,4.44084 -27.49147,23.94366 -28.40854,19.39864c-0.55539,-2.75257 2.77903,-3.87382 2.77903,-3.87382l0.26304,1.35222c0,0 4.95811,-2.09478 11.55748,-6.62048c6.59938,-4.52569 10.20249,-8.78464 10.20249,-8.78464z" data-paper-data="{&quot;index&quot;:null}"/></g></g><path d="M279.1785,253.91771c0,0 4.41784,-1.02642 6.68122,-0.26656c1.73271,0.58168 2.39536,2.38846 2.91115,4.12242c1.41573,4.7595 0.14963,9.61376 0.42682,17.32516c0.07548,2.10025 -3.00953,3.39358 -5.13678,3.33199c-1.98961,-0.05762 -5.4446,-0.27815 -5.4446,-0.27815l-33.4825,-1.70473c0,0 -4.32759,-0.36046 -5.16382,-2.06162c-2.01379,-4.09672 -0.71348,-8.62555 -1.13668,-13.16021c-0.14342,-1.53674 4.70872,-1.83404 4.70872,-1.83404c0,0 9.01096,-1.38422 14.77846,-2.27018c8.14012,-1.25044 20.85804,-3.20407 20.85804,-3.20407z" data-paper-data="{&quot;index&quot;:null}" fill="#4b4b4b" stroke="#000000" stroke-width="3" stroke-linecap="round"/><path d="M239.91237,265.47173c0,0 2.06417,3.99136 1.85735,6.34323c-0.1583,1.80045 -1.77683,2.86727 -3.3588,3.77589c-4.34234,2.49399 -9.41818,2.43889 -16.93519,4.54589c-2.04731,0.57384 -4.05572,-2.07569 -4.50306,-4.1303c-0.41838,-1.92166 -1.02644,-5.28744 -1.02644,-5.28744l-6.31797,-32.51463c0,0 -0.6788,-4.23595 0.79441,-5.44402c3.54779,-2.90924 8.31178,-2.74364 12.67,-4.23217c1.47695,-0.50445 2.92782,4.07747 2.92782,4.07747c0,0 3.51268,8.31044 5.76098,13.62958c3.1732,7.50731 8.13091,19.23654 8.13091,19.23654z" data-paper-data="{&quot;index&quot;:null}" fill="#4b4b4b" stroke="#000000" stroke-width="3" stroke-linecap="round"/><path d="M220.12792,200.13553c0,0 -1.9496,-4.15011 -2.07452,-5.22864c-0.37479,-3.23558 -1.07466,-17.40747 -1.66407,-30.21809c-0.09118,-1.98149 1.40234,-5.1507 1.40234,-5.1507c0,0 2.15306,-1.72621 3.42911,-1.79037c14.07863,-0.7078 27.42448,-2.47351 32.7173,-1.16184c1.76428,0.43722 5.02873,2.02991 5.02873,2.02991c0,0 0.92101,4.3586 1.10875,5.48253c0.06257,0.37464 0.09884,0.58546 0.1387,0.96312c1.19456,11.31563 1.34735,24.46514 1.1823,29.06727c-0.05501,1.53405 -1.78258,4.00399 -1.78258,4.00399c0,0 -1.27806,2.78733 -5.69173,3.79522c-4.82933,1.10279 -16.69778,1.26235 -28.93721,1.38965z" fill="#582700" stroke="#000000" stroke-width="2.5" stroke-linecap="round"/><g data-paper-data="{&quot;index&quot;:null}"><g data-paper-data="{&quot;origRot&quot;:0}" stroke="#000000" stroke-width="3" stroke-linecap="round"><path d="M259.64516,255.40411c-0.13794,2.44902 -9.44909,0.30068 -9.44909,0.30068c0,0 -24.78722,-5.04154 -36.50416,-7.37644c-4.78076,-1.6577 -3.75985,-40.67324 0.74803,-44.60141c2.00945,-1.75104 12.66241,-3.20617 14.18055,-1.7033c2.88971,2.86057 7.3246,19.34181 7.3246,19.34181l-4.54243,-0.10725l11.87838,1.34701c0,0 13.94388,0.43538 19.7459,2.14293c3.21786,0.94702 -3.38179,30.65599 -3.38179,30.65599z" data-paper-data="{&quot;origPos&quot;:null}" fill="#582700"/><path d="M252.05408,223.94594l-3.0945,29.89941" fill="none"/><path d="M244.59613,253.61809l2.78495,-29.93597" data-paper-data="{&quot;origPos&quot;:null}" fill="none"/></g><path d="M248.70285,254.44256l-3.04114,-0.34154l2.95686,-30.60809l3.04115,0.34154z" fill="#ffffff" stroke="none" stroke-width="0" stroke-linecap="butt"/><path d="M213.36339,248.44811l-2.60778,-10.94117l1.11724,-24.00883l2.46278,-8.12781l4.19596,-3.25834l8.14527,0.49065l1.62905,0.09813l6.73169,17.45943l-3.26693,0.054l-0.07047,2.0021l14.36354,1.61759l-1.88049,30.23267l-29.182,-5.77054z" fill="#66c8ff" stroke="#000000" stroke-width="0.5" stroke-linecap="round"/></g><path d="M261.34855,159.10729l-0.7468,-0.48955c-0.0919,-0.02643 -0.18371,-0.05236 -0.27548,-0.07782c-0.20913,0.32123 -0.62761,0.70359 -1.38267,0.49449c-0.69593,-0.19271 -0.88305,-0.66778 -0.91553,-1.03995c-2.68976,-0.53605 -5.36609,-0.73056 -8.17193,-0.84933c-7.84456,-0.06714 -15.6782,0.46686 -23.51311,0.84117c-2.5695,0.12276 -8.27071,1.41832 -10.49922,-0.16408c-1.08684,-0.77172 -0.77188,-2.71941 -0.92502,-3.76645c-0.44371,-3.03408 -0.97174,-6.17212 -1.13348,-9.23562c-0.18429,-4.0056 -1.87591,-7.50983 -2.57871,-11.41367c-0.35234,-1.95713 -1.12435,-3.90471 0.57726,-5.69153c0.48045,-0.50451 1.37855,-0.26628 2.07637,-0.33542c2.55032,-0.25266 5.03297,-0.19744 7.57617,-0.02031c8.05942,0.56134 16.00823,0.70477 24.03655,1.75344c3.23879,0.42686 6.47854,0.34195 9.74517,0.29603c1.91987,-0.02699 3.64229,-0.65016 4.89364,1.45885c0.74728,1.25946 0.43563,5.28297 0.45292,6.76589c0.06668,5.71809 1.31749,12.68279 0.3819,18.4823c0.12038,0.03299 0.24084,0.06673 0.36141,0.10124l1.34141,0.74558c0,0 1.08593,0.64231 0.43549,1.71466c-0.65044,1.07235 -1.73637,0.43005 -1.73637,0.43005z" data-paper-data="{&quot;index&quot;:null}" fill="#000000" stroke="none" stroke-width="0.5" stroke-linecap="butt"/><path d="M236.06629,172.85463c0.66749,1.06209 -0.40803,1.72123 -0.40803,1.72123l-0.71575,0.41803c-1.15407,1.00225 -1.79757,1.46722 -2.66764,1.70773l0.09291,0.20796l-1.26391,0.55067c-0.1453,0.06734 -0.30608,0.10833 -0.47634,0.11647c-0.69828,0.03336 -1.29173,-0.49858 -1.32551,-1.18813c-0.01952,-0.39859 0.15223,-0.7626 0.43553,-1.00526l0.96356,-0.83975l0.02257,0.02525l0.03739,-0.07435c0.84105,-0.56991 1.68785,-1.13174 2.54302,-1.68077c0,0 0.35633,-0.22874 0.79027,-0.21724l0.22894,-0.14479c0,0 1.07554,-0.65914 1.74302,0.40293z" fill="#582700" stroke="none" stroke-width="0.5" stroke-linecap="butt"/><path d="M242.07095,172.48201l0.24202,0.12228c0.43078,-0.05279 0.80781,0.1409 0.80781,0.1409c0.90485,0.46495 1.80262,0.94343 2.69545,1.43051l0.04448,0.07044l0.01999,-0.02728l1.04115,0.74398c0.30569,0.21452 0.51222,0.56046 0.53175,0.95905c0.03378,0.68955 -0.50489,1.27558 -1.20317,1.30894c-0.17028,0.00814 -0.33429,-0.01735 -0.48549,-0.07052l-1.31184,-0.42761l0.07216,-0.21584c-0.88952,-0.15645 -1.57549,-0.5579 -2.82212,-1.44547l-0.75329,-0.34785c0,0 -1.13494,-0.55355 -0.57439,-1.6743c0.56056,-1.12075 1.6955,-0.56721 1.6955,-0.56721z" data-paper-data="{&quot;index&quot;:null}" fill="#582700" stroke="none" stroke-width="0.5" stroke-linecap="butt"/><path d="M228.11435,175.59549c0.30078,-0.20713 1.69238,1.2502 3.10821,3.25502c1.41583,2.00482 2.3198,3.79797 2.01901,4.00511c-0.30078,0.20715 -1.69238,-1.25018 -3.10821,-3.255c-1.41583,-2.00482 -2.31981,-3.79798 -2.01902,-4.00512z" data-paper-data="{&quot;index&quot;:null}" fill="none" stroke="#000000" stroke-width="2.5" stroke-linecap="butt"/><path d="M233.35631,182.08583c0.29337,0.21726 -0.67275,1.97854 -2.15783,3.9339c-1.48507,1.95536 -2.92678,3.36439 -3.22014,3.1471c-0.29337,-0.21726 0.67274,-1.97853 2.15782,-3.93389c1.48507,-1.95536 2.92678,-3.36439 3.22014,-3.14712z" data-paper-data="{&quot;index&quot;:null}" fill="none" stroke="#000000" stroke-width="2.5" stroke-linecap="butt"/><path d="M247.1633,174.42006c0.29337,0.21726 -0.67275,1.97854 -2.15783,3.9339c-1.48507,1.95536 -2.92678,3.36439 -3.22014,3.1471c-0.29337,-0.21726 0.67274,-1.97853 2.15782,-3.93389c1.48507,-1.95536 2.92678,-3.36439 3.22014,-3.14712z" data-paper-data="{&quot;index&quot;:null}" fill="none" stroke="#000000" stroke-width="2.5" stroke-linecap="butt"/><path d="M247.34269,187.65445c-0.28113,0.23249 -1.79726,-1.09823 -3.38633,-2.97217c-1.58908,-1.87395 -2.64937,-3.58155 -2.36822,-3.81403c0.28113,-0.23249 1.79725,1.09821 3.38633,2.97216c1.58908,1.87395 2.64937,3.58155 2.36824,3.81404z" data-paper-data="{&quot;index&quot;:null}" fill="none" stroke="#000000" stroke-width="2.5" stroke-linecap="butt"/><g data-paper-data="{&quot;index&quot;:null}" stroke="#000000" stroke-width="1.25" stroke-linecap="butt"><path d="M245.13041,189.56387c4.70831,-0.36355 6.1157,4.76626 6.1157,4.76626l-14.53103,1.12201c0,0 3.70703,-5.52472 8.41533,-5.88827z" data-paper-data="{&quot;index&quot;:null}" fill="#000000"/><path d="M243.97329,194.87112c0,0 0.19603,-1.67878 2.03944,-2.56482c1.20467,-0.57903 3.84009,-0.66922 4.19921,-0.13437c0.74747,1.11325 1.03417,2.15822 1.03417,2.15822z" data-paper-data="{&quot;index&quot;:null}" fill="#ff8484"/></g></g></g></svg>