<svg version="1.1" xmlns="http://www.w3.org/2000/svg" xmlns:xlink="http://www.w3.org/1999/xlink" width="210" height="221" viewBox="0,0,210,221"><g transform="translate(-140,-90)"><g data-paper-data="{&quot;isPaintingLayer&quot;:true}" fill-rule="nonzero" stroke-linejoin="miter" stroke-miterlimit="10" stroke-dasharray="" stroke-dashoffset="0" style="mix-blend-mode: normal"><path d="M140,311v-221h210v221z" fill="none" stroke="none" stroke-width="0" stroke-linecap="butt"/><g data-paper-data="{&quot;index&quot;:null}" stroke="#000000" stroke-linecap="round"><path d="M262.23752,194.40156c0,0 16.2316,-1.59725 16.21325,5.02736c-0.04977,17.98052 -28.27891,12.06568 -28.27891,12.06568z" data-paper-data="{&quot;origPos&quot;:null}" fill="#66c8ff" stroke-width="2"/><path d="M261.48344,195.90979c0,0 11.78117,-0.56333 12.44273,1.38252c0.20864,0.61371 -15.71052,2.51368 -15.71052,2.51368z" data-paper-data="{&quot;origPos&quot;:null}" fill="#0a0a0a" stroke-width="1"/></g><g><path d="M264.68168,243.27864c0,0 0.82804,15.75777 -1.37782,16.03807c-6.6176,0.84095 -24.01925,-0.01169 -38.86622,-0.01169c-1.66786,0 -1.42457,-14.95796 -1.42457,-14.95796l1.78071,-30.62821c0,0 1.32025,-13.5334 2.84914,-13.5334c9.88992,0 24.68694,-0.93059 31.15944,0.71298c2.1575,0.54786 4.09861,14.95725 4.09861,14.95725z" data-paper-data="{&quot;origPos&quot;:null}" fill="#66c8ff" stroke="#000000" stroke-width="3.5" stroke-linecap="round"/><path d="M232.82346,223.72117c-1.29166,0 -1.29167,-2.4875 -1.29167,-2.4875c0,-5.15926 0,-11.97684 0,-17.1361c0,0 0.00001,-2.4875 1.29167,-2.4875c1.29166,0 1.29166,2.4875 1.29166,2.4875c0,5.15926 0,10.31851 0,15.47777v1.65833c0,0 0,2.4875 -1.29166,2.4875z" fill="#ffffff" stroke="none" stroke-width="0.5" stroke-linecap="butt"/><path d="M244.82346,230.0545c-1.29166,0 -1.29167,-3.125 -1.29167,-3.125c0,-6.48148 0,-15.04629 0,-21.52778c0,0 0.00001,-3.125 1.29167,-3.125c1.29166,0 1.29166,3.125 1.29166,3.125c0,6.48148 0,12.96296 0,19.44445v2.08333c0,0 0,3.125 -1.29166,3.125z" fill="#ffffff" stroke="none" stroke-width="0.5" stroke-linecap="butt"/></g><g fill="none" stroke="#b9b9b9" stroke-width="3"><path d="M254.89468,205.21998c-0.82753,-1.35809 0.08589,-2.57767 1.30884,-3.7957c1.22296,-1.21801 2.45037,-1.58994 3.11989,-0.61516c1.41955,2.06682 -0.06978,3.04234 -1.0274,3.99608c-1.22297,1.21803 -2.23265,2.33277 -3.40133,0.41479z" stroke-linecap="butt"/><path d="M253.28898,207.14868l2.58997,-2.51944" stroke-linecap="round"/><path d="M249.74248,207.77801c1.22296,-1.21801 2.45037,-1.58994 3.11989,-0.61516c1.41955,2.06682 -0.06978,3.04234 -1.0274,3.99608c-1.22296,1.21802 -2.23264,2.33277 -3.40132,0.41479c-0.82753,-1.35809 0.08588,-2.57767 1.30883,-3.79571z" stroke-linecap="butt"/><path d="M249.41789,210.98296l-2.58997,2.51946" stroke-linecap="round"/><path d="M241.20565,213.05014c0.40066,-1.63508 1.7387,-1.48046 3.25851,-1.02164c1.51981,0.45883 2.48819,1.43557 2.24522,2.68318c-0.51516,2.64527 -2.03348,1.77826 -3.22353,1.41899c-1.51981,-0.45882 -2.84605,-0.77137 -2.2802,-3.08052z" stroke-linecap="butt"/><path d="M238.99443,212.6477l3.1793,1.00816" stroke-linecap="round"/><path d="M234.00593,208.67439c0.893,-1.31672 2.06779,-0.52961 3.31104,0.62589c1.24326,1.1555 1.81512,2.52367 1.19118,3.55857c-1.32294,2.19428 -2.43342,0.66261 -3.40694,-0.24218c-1.24325,-1.15551 -2.3564,-2.08274 -1.09528,-3.94227z" stroke-linecap="butt"/><path d="M232.11175,207.23799l2.58519,2.46183" stroke-linecap="round"/><path d="M227.50223,202.54975c0.893,-1.3167 2.0678,-0.52961 3.31104,0.62589c1.24326,1.1555 1.81512,2.52367 1.19118,3.55857c-1.32294,2.19427 -2.43342,0.66261 -3.40693,-0.24218c-1.24325,-1.1555 -2.3564,-2.08273 -1.09528,-3.94227z" stroke-linecap="butt"/><path d="M225.60806,201.11336l2.58521,2.46183" stroke-linecap="round"/></g><g><g data-paper-data="{&quot;index&quot;:null}"><g stroke="#000000" stroke-width="3" stroke-linecap="round"><path d="M278.99249,236.3408c0,0 2.9198,10.33691 2.48808,14.92429c-15.6623,6.39279 -25.29943,3.78911 -25.29943,3.78911c-1.99294,0.39971 -2.25392,-6.87055 -2.25392,-6.87055c0,0 -0.9747,-14.17598 -1.59858,-23.24931c-0.40966,-5.95792 -1.0497,-15.26645 -1.0497,-15.26645c0,0 -0.14545,-5.92273 0.94803,-6.05365c6.57853,-0.78762 12.79038,-2.84668 16.16085,-2.06925c1.12349,0.25914 2.70627,5.75054 2.70627,5.75054l7.89838,29.04526z" data-paper-data="{&quot;origPos&quot;:null}" fill="#582700"/><path d="M279.69117,242.05614l-25.34773,4.00908l-0.51729,-3.36246l25.34772,-4.26772z" data-paper-data="{&quot;origPos&quot;:null}" fill="none"/></g><path d="M253.54236,242.28299l-1.73302,-36.8268l1.15535,-0.86652l15.59723,-2.59955l9.82048,36.10471z" fill="#66c8ff" stroke="#000000" stroke-width="1" stroke-linecap="round"/><path d="M254.2387,245.6309l-0.36699,-2.30203l25.18283,-4.01465l0.36699,2.30203z" fill="#ffffff" stroke="none" stroke-width="0" stroke-linecap="butt"/></g><g fill="#fffc96" stroke="#000000" stroke-width="2" stroke-linecap="round"><path d="M277.13307,231.71755c0,0 4.35886,0.46489 4.30244,3.4086c-0.09028,4.70982 -32.63647,-0.83964 -32.83846,-5.75378c-0.08253,-2.0078 3.08488,-2.18542 3.08488,-2.18542l0.29885,1.84764c0,0 5.87811,2.38292 13.44101,3.84639c7.45811,1.44319 12.53791,1.03867 12.53791,1.03867z"/><path d="M274.90385,223.39337c0,0 3.00112,-2.34415 3.95865,-0.2286c2.01,4.44084 -27.14775,23.94366 -28.05336,19.39864c-0.54845,-2.75257 2.74428,-3.87382 2.74428,-3.87382l0.25975,1.35222c0,0 4.89612,-2.09478 11.41298,-6.62048c6.51687,-4.52569 10.07493,-8.78464 10.07493,-8.78464z" data-paper-data="{&quot;index&quot;:null}"/></g></g><path d="M279.30698,253.91771c0,0 4.36261,-1.02642 6.59769,-0.26656c1.71105,0.58168 2.36541,2.38846 2.87475,4.12242c1.39803,4.7595 0.14776,9.61376 0.42148,17.32516c0.07454,2.10025 -2.9719,3.39358 -5.07256,3.33199c-1.96473,-0.05762 -5.37653,-0.27815 -5.37653,-0.27815l-33.06388,-1.70473c0,0 -4.27348,-0.36046 -5.09926,-2.06162c-1.98861,-4.09672 -0.70456,-8.62555 -1.12247,-13.16021c-0.14163,-1.53674 4.64985,-1.83404 4.64985,-1.83404c0,0 8.8983,-1.38422 14.59369,-2.27018c8.03835,-1.25044 20.59726,-3.20407 20.59726,-3.20407z" data-paper-data="{&quot;index&quot;:null}" fill="#4b4b4b" stroke="#000000" stroke-width="3" stroke-linecap="round"/><path d="M240.53179,265.47173c0,0 2.03836,3.99136 1.83413,6.34323c-0.15632,1.80045 -1.75461,2.86727 -3.31681,3.77589c-4.28805,2.49399 -9.30043,2.43889 -16.72345,4.54589c-2.02171,0.57384 -4.00501,-2.07569 -4.44676,-4.1303c-0.41315,-1.92166 -1.01361,-5.28744 -1.01361,-5.28744l-6.23898,-32.51463c0,0 -0.67031,-4.23595 0.78448,-5.44402c3.50343,-2.90924 8.20786,-2.74364 12.51159,-4.23217c1.45848,-0.50445 2.89121,4.07747 2.89121,4.07747c0,0 3.46876,8.31044 5.68895,13.62958c3.13353,7.50731 8.02925,19.23654 8.02925,19.23654z" data-paper-data="{&quot;index&quot;:null}" fill="#4b4b4b" stroke="#000000" stroke-width="3" stroke-linecap="round"/><path d="M223.48786,197.61751c0,0 -1.72243,-4.2383 -1.79353,-5.32153c-0.21331,-3.24969 -0.21881,-17.43842 -0.18113,-30.2622c0.00582,-1.98353 1.63209,-5.07777 1.63209,-5.07777c0,0 2.20707,-1.62146 3.4688,-1.62465c13.92057,-0.03517 27.16949,-1.16198 32.32665,0.40073c1.71906,0.5209 4.86197,2.2675 4.86197,2.2675c0,0 0.69781,4.39746 0.82868,5.52903c0.04362,0.37719 0.06919,0.58949 0.09027,0.96861c0.63145,11.35941 0.14673,24.50086 -0.23844,29.08973c-0.12839,1.52963 -1.95172,3.91425 -1.95172,3.91425c0,0 -1.39529,2.72309 -5.79739,3.51918c-4.81667,0.87105 -16.53075,0.46408 -28.60919,0.0072z" fill="#582700" stroke="#000000" stroke-width="2.5" stroke-linecap="round"/><g data-paper-data="{&quot;index&quot;:null}"><g data-paper-data="{&quot;origRot&quot;:0}" stroke="#000000" stroke-width="3" stroke-linecap="round"><path d="M265.74868,251.30505c0.01358,2.45277 -9.29518,0.86989 -9.29518,0.86989c0,0 -24.73948,-3.5375 -36.43092,-5.16152c-4.8134,-1.36634 -6.18951,-40.37063 -1.98615,-44.56329c1.87371,-1.86894 12.28499,-3.96371 13.87313,-2.55519c3.02292,2.68099 8.40058,18.86405 8.40058,18.86405l-4.48382,0.16685l11.79023,0.62824c0,0 13.77043,-0.40623 19.59349,0.94828c3.22953,0.75122 -1.46136,30.8027 -1.46136,30.8027z" data-paper-data="{&quot;origPos&quot;:null}" fill="#582700"/><path d="M256.3456,220.36331l-1.22438,30.03021" fill="none"/><path d="M251.72352,220.38176l-0.91704,30.04804" data-paper-data="{&quot;origPos&quot;:null}" fill="none"/></g><path d="M254.90463,251.0051l-3.01837,-0.15753l1.04544,-30.72927l3.01838,0.15753z" fill="#ffffff" stroke="none" stroke-width="0" stroke-linecap="butt"/><path d="M219.70609,247.15277l-3.23847,-10.76351l-0.36482,-24.03139l1.93115,-8.26114l3.93681,-3.50527l8.05838,-0.00142l1.61167,-0.00028l7.70123,17.02093l-3.21676,0.25089l0.05279,2.00261l14.25626,0.74847l-0.00744,30.28965l-29.11574,-4.00013z" fill="#66c8ff" stroke="#000000" stroke-width="0.5" stroke-linecap="round"/></g><path d="M266.12816,158.60417l-0.71294,-0.52462c-0.08936,-0.03078 -0.17867,-0.06106 -0.26796,-0.09087c-0.2218,0.31088 -0.65303,0.67282 -1.38768,0.42794c-0.67711,-0.2257 -0.83872,-0.70914 -0.85277,-1.08242c-2.62713,-0.66378 -5.25751,-0.98576 -8.01929,-1.23828c-7.73418,-0.44139 -15.48665,-0.28182 -23.23265,-0.28182c-2.54033,0 -8.2263,1.022 -10.34791,-0.66489c-1.0347,-0.82268 -0.62993,-2.75307 -0.73037,-3.80619c-0.29103,-3.0517 -0.66022,-6.21127 -0.67172,-9.27892c0.01178,-4.00971 -1.48741,-7.59057 -1.99196,-11.52339c-0.25295,-1.97165 -0.92031,-3.9538 0.8444,-5.65733c0.49827,-0.481 1.37259,-0.20019 2.06422,-0.23595c2.52769,-0.13067 4.97377,0.04295 7.47369,0.34124c7.92223,0.94526 15.75556,1.46783 23.62357,2.89838c3.17393,0.58091 6.37354,0.6507 9.59779,0.76071c1.89496,0.06466 3.62396,-0.47559 4.75632,1.69066c0.67622,1.29364 0.17439,5.29759 0.11979,6.7796c-0.21054,5.71459 0.68664,12.73084 -0.51642,18.47894c0.11714,0.03869 0.23433,0.07814 0.35158,0.11836l1.28706,0.80872c0,0 1.04006,0.69338 0.34669,1.73344c-0.69338,1.04006 -1.73344,0.34669 -1.73344,0.34669z" data-paper-data="{&quot;index&quot;:null}" fill="#000000" stroke="none" stroke-width="0.5" stroke-linecap="butt"/><path d="M237.71867,173.1914c0.54663,-0.02043 1.1015,2.95411 1.23938,6.64378c0.13788,3.68967 -0.19346,6.69731 -0.74009,6.71772c-0.54663,0.02043 -1.1015,-2.9541 -1.23939,-6.64377c-0.13788,-3.68967 0.19345,-6.69733 0.74009,-6.71774z" data-paper-data="{&quot;index&quot;:null}" fill="none" stroke="#000000" stroke-width="2.5" stroke-linecap="butt"/><path d="M240.52685,171.12902c0.60705,1.0927 -0.48564,1.69975 -0.48564,1.69975l-0.72618,0.38339c-1.18674,0.946 -1.84393,1.37973 -2.71374,1.57844l0.0816,0.21216l-1.27326,0.48971c-0.14657,0.06033 -0.30713,0.0936 -0.47546,0.0936c-0.69036,0 -1.25,-0.55964 -1.25,-1.25c0,-0.39906 0.187,-0.75444 0.47815,-0.9833l0.99098,-0.79279l0.02104,0.0263l0.04047,-0.07248c0.8571,-0.52911 1.71949,-1.04987 2.58952,-1.55746c0,0 0.36251,-0.21147 0.78997,-0.17928l0.23282,-0.13369c0,0 1.0927,-0.60705 1.69975,0.48564z" fill="#582700" stroke="none" stroke-width="0.5" stroke-linecap="butt"/><path d="M247.21868,173.2914c0.54664,-0.02043 1.10149,2.95412 1.23938,6.64379c0.13789,3.68967 -0.19346,6.69731 -0.7401,6.71772c-0.54664,0.02043 -1.1015,-2.9541 -1.23939,-6.64377c-0.13789,-3.68967 0.19346,-6.69732 0.74009,-6.71774z" data-paper-data="{&quot;index&quot;:null}" fill="none" stroke="#000000" stroke-width="2.5" stroke-linecap="butt"/><path d="M246.46751,171.04338l0.23281,0.13369c0.42745,-0.03218 0.78997,0.17928 0.78997,0.17928c0.87002,0.50759 1.73241,1.02835 2.58952,1.55746l0.04047,0.07248l0.02104,-0.0263l0.99098,0.79279c0.29115,0.22886 0.47815,0.58424 0.47815,0.9833c0,0.69036 -0.55964,1.25 -1.25,1.25c-0.16834,0 -0.32889,-0.03328 -0.47546,-0.0936l-1.27326,-0.48971l0.0816,-0.21215c-0.86981,-0.19871 -1.52701,-0.63243 -2.71374,-1.57844l-0.72619,-0.38339c0,0 -1.09269,-0.60706 -0.48564,-1.69975c0.60706,-1.09269 1.69975,-0.48564 1.69975,-0.48564z" data-paper-data="{&quot;index&quot;:null}" fill="#582700" stroke="none" stroke-width="0.5" stroke-linecap="butt"/><path d="M253.16922,194.61366c-0.53033,0.53033 -1.06066,0 -1.06066,0l-0.10792,-0.12851c-1.70817,-1.17136 -3.93414,-1.32677 -5.9456,-1.10085c0,0 -0.74541,0.08282 -0.82824,-0.66259c-0.08282,-0.74541 0.66259,-0.82824 0.66259,-0.82824c2.40085,-0.2641 4.89136,0.00446 6.94329,1.3436l0.33653,0.31593c0,0 0.53033,0.53033 0,1.06066z" fill="#000000" stroke="none" stroke-width="0.5" stroke-linecap="butt"/></g></g></svg>