<svg version="1.1" xmlns="http://www.w3.org/2000/svg" xmlns:xlink="http://www.w3.org/1999/xlink" width="132.65666" height="181.9052" viewBox="0,0,132.65666,181.9052"><g transform="translate(-153.92823,-83.32965)"><g data-paper-data="{&quot;isPaintingLayer&quot;:true}" fill-rule="nonzero" stroke-linejoin="miter" stroke-miterlimit="10" stroke-dasharray="" stroke-dashoffset="0" style="mix-blend-mode: normal"><g stroke="#000000" stroke-width="1.5"><g data-paper-data="{&quot;index&quot;:null}"><path d="M192.46833,190.48093c0.17196,-0.04936 5.54984,-1.36687 11.09986,-1.72208c5.32644,-0.34088 10.83342,0.54888 11.40456,2.36183c1.2036,3.82055 -6.68906,9.24022 -17.36141,12.96301c-10.67237,3.72279 -14.96096,8.48542 -18.01164,6.28262c-14.21048,-10.26084 1.60334,-16.65274 12.86861,-19.8854z" fill="#f0d5b1" stroke-linecap="butt"/><path d="M192.60033,205.54866l-8.28953,-8.33346" fill="none" stroke-linecap="round"/><path d="M189.07545,215.14066c0,0 -3.4901,-1.42347 -5.17856,-2.41446c-2.19259,-1.28682 -6.8642,-4.65344 -6.8642,-4.65344c0,0 1.49154,-3.92727 2.66505,-5.66831c1.22119,-1.81177 5.85885,-3.44813 5.85885,-3.44813l9.42049,7.03391l-5.90159,9.15037z" fill="#955544" stroke-linecap="butt"/><path d="M192.72611,209.06024l-10.66081,-6.71425l-0.99199,-0.92339" fill="none" stroke-linecap="round"/><path d="M190.19549,213.37017l-11.26518,-7.5237" fill="none" stroke-linecap="round"/></g><g data-paper-data="{&quot;index&quot;:null}"><g><path d="" data-paper-data="{&quot;index&quot;:null}" fill="#f0d5b1" stroke-linecap="butt"/><path d="" data-paper-data="{&quot;index&quot;:null}" fill="#955544" stroke-linecap="butt"/><path d="" data-paper-data="{&quot;index&quot;:null}" fill="none" stroke-linecap="round"/><path d="" data-paper-data="{&quot;index&quot;:null}" fill="none" stroke-linecap="round"/></g><path d="M198.52932,212.14705c0,0 1.45515,-1.47672 6.4283,-0.65886c2.11499,0.34784 4.82541,0.65881 5.12432,2.54248c0.25066,1.57965 -1.25576,2.24665 -3.9653,3.67044c-2.29309,1.20497 -1.37528,1.50851 -3.35802,2.78766c-1.43568,0.92621 -3.23202,2.30229 -5.37163,3.3679c-2.43102,1.21074 -5.91703,0.42711 -9.06195,0.58215c-2.42679,0.11962 -4.22385,2.49394 -6.95143,1.37959c-5.23119,-2.13717 -4.68829,-5.05808 -5.43972,-8.27984c-0.59502,-2.55102 -3.2059,-5.27971 -1.67963,-8.03445c3.45381,-6.23377 19.64092,-7.57565 19.64092,-7.57565c0,0 5.72198,11.77638 3.01377,13.19287c-4.69805,2.45723 -6.58428,-6.68231 -6.58428,-6.68231c0,0 2.22806,8.86218 0.0246,9.63228c-6.46817,2.26066 -7.53204,-5.89381 -7.01651,-3.4865c0.23404,1.09293 0.30265,2.2487 0.00733,3.29907c-0.94583,3.36394 -5.70809,1.45596 -5.70809,1.45596c0,0 1.65084,0.363 3.20899,0.1342c1.34209,-0.19708 2.60095,-0.91806 2.84608,-1.69529c0.7701,-2.44175 -1.75159,-6.72735 -1.75159,-6.72735c0,0 1.05066,2.75646 2.51642,4.93757c1.32017,1.96442 2.94054,3.43628 5.06662,2.45508c2.95721,-1.36475 0.79216,-10.08727 0.79216,-10.08727c0,0 2.65737,7.60008 4.78486,7.35808c1.73916,-0.19785 3.43382,-3.56786 3.43382,-3.56786z" fill="#46b8d9" stroke-linecap="round"/></g></g><g stroke="#000000" stroke-width="1.5"><path d="M235.7597,257.79131c0,3.69674 -5.2465,6.69354 -11.71836,6.69354c-6.47187,0 -11.71836,-2.99681 -11.71836,-6.69354c0,-3.69673 5.2465,-6.69353 11.71836,-6.69353c6.47187,0 11.71836,2.99677 11.71836,6.69353z" fill="#46b8d9" stroke-linecap="butt"/><path d="M214.12096,252.84939l9.55575,-12.0421l-0.88014,-9.0707l12.32189,1.56391c0,0 0.2814,7.04754 -1.00586,11.10376c-1.28727,4.05621 -4.65214,6.72482 -4.65214,6.72482z" fill="#494d5f" stroke-linecap="round"/><path d="M222.44453,242.465c0,0 2.57835,2.22992 5.77508,2.26127c1.94488,0.01906 5.71698,-1.29163 5.71698,-1.29163c0,0 -1.19203,3.57083 -2.07388,4.89448c-0.86115,1.29255 -3.15664,2.95633 -3.15664,2.95633l-13.70496,1.25114z" fill="#f0d5b1" stroke-linecap="round"/><path d="M254.56945,250.22203l-9.65634,-22.01987l8.75106,-4.50406l13.88099,27.77506z" fill="#494d5f" stroke-linecap="butt"/><path d="M269.4563,257.04068c0,3.97313 -4.59349,7.19398 -10.25987,7.19398c-5.66638,0 -10.25987,-3.22085 -10.25987,-7.19398c0,-3.97312 4.5935,-7.19398 10.25987,-7.19398c5.66638,0 10.25987,3.22085 10.25987,7.19398z" fill="#46b8d9" stroke-linecap="butt"/><path d="M224.49397,256.97808l-1.70998,7.25655" fill="none" stroke-linecap="round"/><path d="M230.62978,262.23281l0.90528,-5.37986" fill="none" stroke-linecap="round"/><path d="M253.56357,261.85747l0.40234,-4.87942" fill="none" stroke-linecap="round"/><path d="M261.10759,262.85839l0.20117,-5.88031" fill="none" stroke-linecap="round"/><path d="M252.25594,244.84215l9.55575,-4.75429l5.83404,11.51039l-12.67394,-1.12603z" fill="#f0d5b1" stroke-linecap="round"/></g><g stroke="#000000" stroke-width="1.5"><path d="M225.20317,235.82985c0,0 -7.9075,4.45199 -13.66885,5.97539c-5.76132,1.5234 -9.60164,4.62394 -10.81765,1.07255c-2.72324,-7.95333 3.10676,-8.06757 8.86808,-9.591c5.56684,-1.47197 15.6184,2.54306 15.6184,2.54306z" fill="#49c0e0" stroke-linecap="butt"/><path d="M257.14122,217.05246c2.53834,6.04209 -3.13302,14.60341 -12.66735,19.12227c-9.31797,4.4163 -18.84625,7.50868 -22.4302,-0.82687c-1.3416,-3.12024 2.95736,-8.75756 2.95736,-8.75756l-19.71381,-43.28063l24.41162,2.22496l17.64248,29.48211c0,0 8.25674,-1.6375 9.7999,2.0357z" fill="#f0d5b1" stroke-linecap="butt"/><path d="M257.46198,219.59462c0.20438,1.45639 -0.58128,4.81723 -0.58128,4.81723c0,0 -4.4459,8.05569 -10.54907,10.77625c-8.26365,3.68359 -17.71918,5.22573 -17.71918,5.22573c0,0 -3.94829,-1.38966 -5.14464,-2.81324c-0.93909,-1.11751 -1.93554,-4.46234 -1.93554,-4.46234c0,0 15.34706,-3.26022 21.33645,-6.19957c5.57218,-2.73461 13.43869,-10.86659 13.43869,-10.86659c0,0 0.98997,2.34953 1.15459,3.52253z" fill="#494d5f" stroke-linecap="round"/><path d="M243.66058,226.99782c2.25929,-1.05517 6.40944,-4.05214 6.40944,-4.05214c0,0 -1.44169,5.77389 -4.21232,7.06787c-2.77067,1.29396 -9.24648,-0.78224 -9.24648,-0.78224c0,0 4.82292,-1.19364 7.04941,-2.23346z" fill="#e7e7e8" stroke-linecap="round"/><path d="M243.62055,231.51355l1.0451,4.7198" fill="none" stroke-linecap="round"/><path d="M251.80864,230.08634l-2.7186,-2.61516" fill="none" stroke-linecap="round"/><path d="M210.8259,194.42993l-3.0331,-10.32317l22.21925,-2.36585l6.75742,11.5076z" fill="#955544" stroke-linecap="butt"/><path d="M230.54144,193.51232l-1.4329,-4.17498" fill="none" stroke-linecap="round"/></g><g stroke="#000000" stroke-width="1.5"><g><path d="M253.20249,154.28626c-4.05124,-3.47484 -7.37255,-7.95673 -6.51564,-9.65343c1.27062,-2.51585 6.40265,-3.21884 12.85008,-1.29394c2.71563,0.81076 7.78732,4.37355 10.82202,5.792c3.2861,1.53595 5.78291,0.3202 7.98714,-0.43293c4.6643,-1.59363 5.45769,-3.10963 5.89645,-0.59227c3.00941,17.26748 -11.56926,18.24861 -21.89118,12.69753c-0.15758,-0.08474 -4.92752,-2.89629 -9.14884,-6.51698z" data-paper-data="{&quot;index&quot;:null}" fill="#f0d5b1" stroke-linecap="butt"/><path d="M280.11373,135.83237c0,0 1.98447,3.2045 2.76669,4.99925c1.01575,2.33059 2.8123,7.80149 2.8123,7.80149c0,0 -3.51676,2.29791 -5.49003,3.0152c-2.05342,0.74642 -6.7662,-0.65916 -6.7662,-0.65916l-3.4786,-11.23035l10.15587,-3.92641z" data-paper-data="{&quot;index&quot;:null}" fill="#955544" stroke-linecap="butt"/><path d="M273.58428,138.60087l4.6696,11.7017l0.25881,1.33034" data-paper-data="{&quot;index&quot;:null}" fill="none" stroke-linecap="round"/><path d="M278.1664,136.6049l4.68199,12.71177" data-paper-data="{&quot;index&quot;:null}" fill="none" stroke-linecap="round"/><path d="M267.91606,143.83278c-0.26244,-0.0342 -1.62908,-0.23886 -2.19439,-0.75693c-0.80591,-0.73858 -0.9377,-1.89155 -2.08071,-2.19221c-3.28318,-0.86365 -6.90295,-1.48606 -6.96995,-3.65175c-0.06995,-2.26038 6.72219,-1.90283 6.72219,-1.90283c0,0 -5.89076,-2.29678 -5.6147,-4.41485c0.46469,-3.56522 7.29718,-2.37506 7.29718,-2.37506c0,0 -3.84742,-1.9136 -2.50321,-3.97695c1.7521,-2.68942 6.98316,1.89233 7.59826,1.97252c5.5678,0.72574 9.57666,5.18635 8.95405,9.96309c-0.6226,4.77674 -5.64094,8.06075 -11.20873,7.33502z" data-paper-data="{&quot;index&quot;:null}" fill="#46b8d9" stroke-linecap="butt"/></g><path d="M235.60065,95.97112c7.59003,-2.80809 14.21977,-3.28775 15.47889,-2.59999c9.26235,5.05922 19.28751,37.55385 4.13993,41.83194c-15.14758,4.27807 -33.22692,-7.23028 -36.67366,-23.15391c-0.94644,-4.37232 7.58196,-12.57328 17.05485,-16.07798z" data-paper-data="{&quot;index&quot;:null}" fill="#49c0e0" stroke-linecap="butt"/><path d="M194.77074,102.62425c3.56932,15.89659 -7.99394,33.94089 -23.53607,36.42961c-15.54213,2.48872 -20.11167,-31.20881 -13.83576,-39.6941c0.85315,-1.15348 7.0699,-3.50634 15.13705,-4.1505c10.06835,-0.80395 21.25476,3.05012 22.23482,7.415z" fill="#49c0e0" stroke-linecap="butt"/><path d="M263.33437,138.68212c0,0 17.74186,9.83566 12.13415,31.82658c-2.82706,11.08646 -15.68038,20.64608 -53.27404,22.73957c-28.39867,1.58145 -53.9396,-15.88175 -58.07654,-41.71712c-4.13695,-25.83538 17.31452,-51.56653 43.51971,-53.93446c57.85048,-5.22744 55.69675,41.08546 55.69675,41.08546z" fill="#49c0e0" stroke-linecap="butt"/><path d="M246.83673,163.32174c-0.8157,9.55711 -24.52567,34.32883 -34.55599,34.6079c-7.97226,0.22181 -12.69895,-19.42373 -13.448,-32.56979c-0.74147,-13.01304 -1.47984,-22.27809 9.95493,-22.24053c5.89094,0.01939 13.24639,13.49637 21.61536,17.10793c7.87584,3.3987 16.9766,-3.26617 16.4337,3.09452z" fill="#c25e5d" stroke-linecap="butt"/><path d="M253.6903,161.34586c-1.65981,3.43183 -10.51993,3.86598 -19.78965,0.96971c-9.26971,-2.89624 -15.43875,-8.02614 -13.77891,-11.45795c1.65981,-3.43183 10.51993,-3.86597 19.78965,-0.96971c9.26971,2.89624 15.43875,8.02614 13.77891,11.45795z" fill="#c8dee6" stroke-linecap="butt"/><path d="M246.51254,153.67826c0,0 -5.06488,2.9563 -8.39784,1.82167c-3.333,-1.13463 -5.33576,-6.04389 -5.33576,-6.04389c0,0 4.34931,-0.30985 7.6823,0.82477c3.33299,1.13463 6.05136,3.39745 6.05136,3.39745z" fill="#c04915" stroke-linecap="butt"/><path d="M238.48262,154.28579c0,0 -0.88145,2.77889 -1.55235,3.88221c-0.6651,1.0938 -1.75963,3.10431 -1.75963,3.10431" fill="none" stroke-linecap="round"/><path d="M224.73696,124.94748c1.82153,11.37556 -5.56188,22.01598 -16.49134,23.76608c-10.92945,1.75011 -21.26616,-6.05285 -23.0877,-17.42843c-1.82153,-11.37556 5.56188,-22.01599 16.49134,-23.76608c10.92945,-1.7501 21.26616,6.05286 23.0877,17.42843z" fill="#ffffff" stroke-linecap="butt"/><path d="M260.26903,129.83781c2.49578,10.2532 -0.78158,19.93561 -7.32021,21.62625c-6.53862,1.69065 -13.8624,-5.25065 -16.35816,-15.50386c-2.49578,-10.2532 0.78158,-19.93561 7.32021,-21.62625c6.53862,-1.69065 13.8624,5.25065 16.35816,15.50386z" fill="#ffffff" stroke-linecap="butt"/><path d="M219.6606,89.82034c0.36818,3.5015 -6.60484,3.06461 -6.60484,3.06461c0,0 -5.1015,7.43909 -8.132,5.64683c-3.03049,-1.79228 -1.79405,-7.03425 0.80647,-11.43144c2.60053,-4.3972 13.18131,-4.40328 13.93032,2.71999z" data-paper-data="{&quot;index&quot;:null}" fill="#000000" stroke-linecap="butt"/><path d="M242.24868,98.39699c0,0 -5.65044,-3.33957 -3.68504,-5.71644c3.99832,-4.83541 12.25162,0.72307 12.17345,5.31574c-0.07816,4.59269 -1.62559,9.08938 -4.84924,8.81418c-3.22367,-0.27521 -3.63914,-8.41344 -3.63914,-8.41344z" data-paper-data="{&quot;index&quot;:null}" fill="#000000" stroke-linecap="butt"/><path d="M199.74368,154.97353c0,0 10.42655,7.17762 14.24078,12.72687c4.13382,6.0142 10.7579,24.51342 10.7579,24.51342c0,0 -9.46644,9.07259 -15.81738,3.81179c-10.19536,-8.44525 -9.18127,-41.05207 -9.18127,-41.05207z" fill="#f1898a" stroke-linecap="round"/><path d="M222.69103,158.38517l-4.64574,5.71194l0.6133,-11.398z" fill="#ffffff" stroke-linecap="butt"/></g><path d="M205.8721,152.51017c-2.55304,0.31913 -3.1902,-1.82502 -3.31987,-2.44199c-1.02283,0.14796 -2.05925,0.22468 -3.11793,0.21723c-0.24866,0.88176 0.29016,1.89178 0.39777,2.82792c0.49498,4.30586 1.79053,8.24829 1.99904,12.63821c0.2941,6.19187 0.26535,12.39527 0.6299,18.59655c0.52629,8.95279 1.01427,17.09479 -1.3821,25.90552c-0.62767,2.8283 -1.28983,5.64898 -1.90031,8.48104c-0.13038,0.60483 -0.68312,2.08906 -0.11128,1.85281c0.31775,-0.13127 0.31695,-0.65967 0.61796,-0.82577c2.18324,-1.20469 3.25917,-0.72796 4.89902,-2.5471c1.32939,-1.47475 1.64125,-3.63256 2.72203,-5.29812c2.20803,-3.40273 4.16295,-6.186 5.31066,-10.21273c1.54736,-5.42889 1.21635,-10.92076 1.21635,-16.50375c0,-7.49996 0.10175,-14.98314 -0.28795,-22.47385c-1.33485,-4.40022 -2.32935,-9.31587 -3.02538,-13.84695c-0.0304,-0.19788 -0.05002,-0.397 -0.06113,-0.59688l-2.12734,0.47274l0.1453,0.40617c0,0 0.3721,2.97683 -2.60473,3.34894zM206.7614,141.25751c2.04587,-1.54129 4.30524,-2.25483 7.39008,-0.56204c0.95807,0.52574 1.45128,1.58933 1.81889,2.6983c0.34513,0.43789 0.58459,1.03385 0.54144,1.8395c0.16875,0.95454 -0.18121,1.98456 -0.03181,2.95419c0.68366,4.43707 1.70023,9.18997 2.97565,13.50486c0.45956,7.84105 0.37769,15.6547 0.37769,23.50767c0,9.13538 -0.09278,18.23504 -4.7313,26.49313c-0.72027,1.28232 -1.93917,2.22455 -2.74169,3.45706c-1.0424,1.60092 -1.92509,4.58879 -3.27797,6.03521c-2.1236,2.27042 -4.26415,3.13861 -7.10098,4.11956c-4.29083,1.48374 -5.53148,2.50332 -8.5928,-2.9726c-0.69772,-1.24804 -0.33118,-2.86535 -0.17036,-4.28611c0.02204,-0.19469 1.67167,-7.59498 2.03619,-9.2332c2.80428,-10.25325 1.24775,-19.77645 0.91319,-30.20479c-0.17692,-5.51454 0.11288,-11.15093 -0.63493,-16.63338c-0.39223,-2.87556 -1.8748,-5.73222 -1.69809,-8.68822c0.06371,-1.06567 0.0049,-2.19996 0.04481,-3.30363c-0.41214,-0.1237 -0.78184,-0.32414 -1.08176,-0.64615c-1.60564,-1.72396 -3.42569,-4.7265 -2.17673,-6.72406c1.30255,-2.08328 4.79651,-1.13183 7.2413,-1.37616c2.88621,-0.28844 5.90587,-0.23753 8.89919,0.02084z" fill="#000000" stroke="none" stroke-width="0.5" stroke-linecap="butt"/><path d="M259.25031,152.93405c-2.5433,1.45002 -9.41943,4.91045 -11.91317,0.99129c0.08063,0.97085 0.59025,2.1091 0.77445,3.03579c0.89062,4.48058 4.29259,6.49524 6.35518,10.46851c1.00786,1.94149 1.81571,3.99045 2.49378,6.07021c2.80605,8.60658 4.89228,18.0189 4.8503,27.0667c-0.39498,1.61421 -2.23142,6.21463 -1.72444,8.27752c0.14338,0.58344 1.92398,3.7144 2.74462,3.43146c1.01995,-0.35166 1.14573,-1.84175 1.54525,-2.84392c1.35024,-3.38698 0.79101,-7.67389 0.79038,-11.23162c-0.00109,-6.16594 0.41207,-12.52171 -0.28084,-18.6573c-1.02371,-9.06474 -3.85683,-17.72931 -5.63552,-26.60865zM263.73419,145.52722c0.23067,0.7816 0.46135,1.56321 0.69202,2.34481c1.66812,10.41882 5.24006,20.44569 6.42205,31.00023c0.56655,5.05898 0.31841,10.24635 0.31841,15.32773c0,5.51676 0.97254,12.23347 -1.20962,17.43505c-0.94074,2.24241 -2.98146,5.92602 -5.78808,6.48941c-4.71358,0.9462 -8.90885,-3.87848 -9.92205,-7.90187c-0.83534,-3.31712 0.80356,-7.2478 1.60889,-10.38914c-0.04044,-6.61088 -1.74095,-12.47465 -3.27035,-18.8797c-1.08335,-4.53704 -1.24384,-6.50823 -3.38556,-10.65007c-3.02774,-5.85528 -8.46649,-9.41452 -7.69071,-17.00502c0.5199,-5.08683 1.75311,-4.68917 5.45635,-7.00988c1.68683,-1.05708 3.28704,-2.03748 4.88692,-2.9096c0.55347,-0.53659 1.16703,-1.06714 1.81032,-1.58433l3.61823,-3.94716c0.54872,-0.60273 1.33967,-0.98103 2.21899,-0.98103c1.55721,0 2.8373,1.18644 2.98565,2.70468l0.00805,0.07243c0.20935,-0.03107 0.42072,-0.06018 0.6342,-0.08728c0,0 2.97683,-0.3721 3.34894,2.60473c0.3721,2.97683 -2.60473,3.34894 -2.60473,3.34894c-0.04604,0.00565 -0.09202,0.01134 -0.13792,0.01706z" fill="#000000" stroke="none" stroke-width="0.5" stroke-linecap="butt"/></g></g></svg>