<svg version="1.1" xmlns="http://www.w3.org/2000/svg" xmlns:xlink="http://www.w3.org/1999/xlink" width="127.66667" height="127.66667" viewBox="0,0,127.66667,127.66667"><g transform="translate(-176.16667,-116.16666)"><g data-paper-data="{&quot;isPaintingLayer&quot;:true}" fill-rule="nonzero" stroke-linejoin="miter" stroke-miterlimit="10" stroke-dasharray="" stroke-dashoffset="0" style="mix-blend-mode: normal"><g stroke="#000000" stroke-width="1" stroke-linecap="butt"><path d="M235.18956,181.48707c0.45612,-1.21477 1.878,-4.12631 3.1373,-4.70739c3.59185,-1.65742 4.79101,2.11235 5.06964,4.65068c0.00317,2.36877 -2.82716,6.10208 -5.17245,8.76341c-1.61707,1.83497 -4.03508,2.94762 -5.53357,3.61601c-0.51109,0.22797 -2.09667,0.03463 -4.16966,-3.22725c-1.93842,-3.05013 -1.51121,-7.58085 -0.35347,-8.31685c0.9963,-0.63338 6.70462,0.07481 6.70462,0.07481z" fill="#dc94e7"/><path d="M231.35262,185.86153c0.05501,0.04044 0.08614,0.07159 0.08614,0.07159l0.673,0.77512c0.30394,0.81602 -1.31695,1.55287 -1.30192,2.26988c0.0185,0.88254 -0.01299,1.73502 -0.58331,2.6681c-4.00136,5.3426 -14.9364,7.04336 -14.9364,-2.11959c0.01902,-3.8222 5.18638,-5.00101 8.92642,-5.06939c2.54824,-0.0466 5.17666,0.31366 6.81749,1.12962c0,0 0.18311,0.09156 0.31858,0.27467z" fill="#f89688"/></g><g><g stroke="#000000"><path d="M255.89413,193.31798l1.75835,9.73519l-37.56842,-0.98638c0,0 0.35965,-9.54107 2.07153,-11.34553c0.59347,-0.62556 6.41997,2.03919 6.41997,2.03919l0.25732,-3.81689z" fill="#0066cd" stroke-width="0" stroke-linecap="round"/><path d="M249.35783,195.084c-1.50492,0.75211 -3.46626,1.96401 -5.55469,2.32519c-3.234,0.55932 -6.47304,0.03793 -6.47304,0.03793c0,0 0.30281,3.49312 0.18664,5.07736l-6.30755,-0.16562c0.10962,-1.29633 -0.57405,-3.71336 -1.36584,-5.89166c-0.62872,-1.72966 -1.37315,-3.35633 -1.50415,-3.81326c0.15103,0.06748 0.23634,0.1065 0.23634,0.1065l0.25732,-3.81689l20.66543,3.37873c0,0 0.43609,0.795 0.40582,1.59336c-0.01954,0.51496 -0.48353,1.15655 -0.54628,1.16833z" fill="#061483" stroke-width="0" stroke-linecap="butt"/><path d="M255.89413,193.31798l1.75835,9.73519l-37.56842,-0.98638c0,0 0.35965,-9.54107 2.07153,-11.34553c0.59347,-0.62556 6.41997,2.03919 6.41997,2.03919l0.25732,-3.81689z" fill="none" stroke-width="1" stroke-linecap="round"/><path d="M234.4081,195.67673l2.1872,1.887" fill="none" stroke-width="1" stroke-linecap="round"/></g><g><path d="M240.61342,209.63623c0,0.33519 -1.63074,2.50378 -2.85523,2.79868c-2.46242,0.59307 -7.38873,0.24178 -11.07692,0.90119c-1.33696,0.23903 -3.19606,0.44866 -4.63054,1.09762c-0.92448,0.41823 -1.74343,2.02085 -6.96282,2.16315c-3.25738,0.0888 -6.83425,-0.83198 -7.71227,-1.14691c-2.50226,-0.89751 -3.34425,-2.76549 -3.30137,-4.09828c0.01257,-0.39041 0.42812,-1.81565 1.76048,-1.48829c0.90605,0.22261 3.46358,1.84521 6.17255,2.24522c3.29288,0.48623 6.89529,0.06209 7.94157,-0.19361c2.51502,-0.61463 4.62961,-2.03761 7.06881,-2.81725c2.58159,-0.82516 5.97162,0.34968 8.04687,-0.15176c2.70956,-0.65471 3.81251,-2.83717 4.39353,-2.55589c0.93799,0.4541 1.15532,2.55874 1.15532,3.24612z" fill="#feecf7" stroke="none" stroke-width="0" stroke-linecap="butt"/><path d="M237.75819,212.4349c-2.46242,0.59306 -7.38873,0.24178 -11.07692,0.90119c-1.33696,0.23904 -3.19606,0.44867 -4.63054,1.09763c-0.92447,0.41822 -1.74343,2.02085 -6.9628,2.16315c-0.4438,0.0121 -0.89353,0.00545 -1.34155,-0.01584c-0.43617,-1.67958 -1.41883,-3.10604 -2.32625,-4.5779c0.19455,0.04094 0.39047,0.07644 0.58718,0.10547c3.29288,0.48623 6.8953,0.0621 7.94157,-0.19361c2.51503,-0.61465 4.62961,-2.03761 7.06882,-2.81725c2.58159,-0.82514 5.97162,0.34968 8.04687,-0.15176c2.70956,-0.6547 3.81251,-2.83717 4.39353,-2.55589c0.93799,0.45411 1.15532,2.55874 1.15532,3.24612c0,0.3352 -1.63074,2.50378 -2.85523,2.79868z" fill="#dd95e8" stroke="none" stroke-width="0" stroke-linecap="butt"/><path d="M240.61342,209.63623c0,0.33519 -1.63074,2.50378 -2.85523,2.79868c-2.46242,0.59307 -7.38873,0.24178 -11.07692,0.90119c-1.33696,0.23903 -3.19606,0.44866 -4.63054,1.09762c-0.92448,0.41823 -1.74343,2.02085 -6.96282,2.16315c-3.25738,0.0888 -6.83425,-0.83198 -7.71227,-1.14691c-2.50226,-0.89751 -3.34425,-2.76549 -3.30137,-4.09828c0.01257,-0.39041 0.42812,-1.81565 1.76048,-1.48829c0.90605,0.22261 3.46358,1.84521 6.17255,2.24522c3.29288,0.48623 6.89529,0.06209 7.94157,-0.19361c2.51502,-0.61463 4.62961,-2.03761 7.06881,-2.81725c2.58159,-0.82516 5.97162,0.34968 8.04687,-0.15176c2.70956,-0.65471 3.81251,-2.83717 4.39353,-2.55589c0.93799,0.4541 1.15532,2.55874 1.15532,3.24612z" fill="none" stroke="#000000" stroke-width="1" stroke-linecap="butt"/><path d="M219.95539,201.20906l-1.32948,-3.73111c0,0 2.8106,-2.12368 7.65675,-1.54147c3.72193,0.44716 5.08049,4.41485 5.08049,4.41485c0,0 3.57503,-4.04059 4.74028,-3.35392c0.51589,0.30401 2.34417,1.10802 2.97465,2.21711c1.53721,2.70415 0.20584,6.62625 0.20584,6.62625c0,0 -0.38263,2.21366 -2.79127,2.88539c-1.68043,0.46864 -4.34287,0.34385 -7.03231,0.50096c-0.85331,0.04984 -1.69638,0.03395 -2.4905,0.25952c-1.84413,0.5238 -3.42297,1.56729 -5.3759,2.2564c-1.55439,0.54848 -3.47151,0.8096 -5.04159,0.85874c-3.6108,0.11301 -7.30255,-0.80321 -10.16225,-2.30084c-1.8351,-0.96105 1.51881,-3.82844 5.17407,-5.95649c3.26663,-1.9018 8.39121,-3.1354 8.39121,-3.1354z" fill="#ff292e" stroke="#000000" stroke-width="0" stroke-linecap="round"/><path d="M229.2901,197.3114c0.56861,0.50162 1.73755,1.99339 1.90193,3.00395c0.1394,0.857 -0.70861,1.23546 -0.48498,1.75693c0.19854,0.46296 1.42806,0.16605 1.42806,0.16605c0,0 2.04695,-0.84384 3.62863,-2.29243c0.7716,-0.70667 1.64124,-2.23 1.64124,-2.23c0,0 1.33278,0.89999 1.67309,1.49863c1.53721,2.70415 0.20584,6.62625 0.20584,6.62625c0,0 -0.38263,2.21366 -2.79127,2.88539c-1.68043,0.46864 -4.34287,0.34385 -7.03231,0.50096c-0.85331,0.04984 -1.69638,0.03395 -2.4905,0.25952c-1.84413,0.5238 -3.42297,1.56729 -5.3759,2.2564c-1.55439,0.54848 -3.47151,0.8096 -5.04159,0.85874c-0.98536,0.03084 -2.95564,-0.12833 -2.95564,-0.12833c0,0 -0.45608,-2.69671 1.66501,-5.12594c2.44768,-2.80325 9.28327,-4.11214 12.04969,-6.15067c2.49395,-1.83776 1.78263,-4.05842 1.97869,-3.88545z" fill="#ac0e49" stroke="#000000" stroke-width="0" stroke-linecap="round"/><path d="M231.36313,200.30844c0,0 0.12921,1.06387 -0.40554,1.51144c-0.38839,0.32507 -1.9532,0.58999 -1.9532,0.58999" fill="none" stroke="#000000" stroke-width="1" stroke-linecap="round"/><path d="M236.65963,200.30844c0,-0.46186 0.37442,-0.83628 0.83628,-0.83628c0.46186,0 0.83628,0.37442 0.83628,0.83628c0,0.46186 -0.37442,0.83628 -0.83628,0.83628c-0.46186,0 -0.83628,-0.37442 -0.83628,-0.83628z" fill="#000000" stroke="none" stroke-width="0.5" stroke-linecap="butt"/><path d="M219.95539,201.20906l-1.32948,-3.73111c0,0 2.8106,-2.12368 7.65675,-1.54147c3.72193,0.44716 5.08049,4.41485 5.08049,4.41485c0,0 3.57503,-4.04059 4.74028,-3.35392c0.51589,0.30401 2.34417,1.10802 2.97465,2.21711c1.53721,2.70415 0.20584,6.62625 0.20584,6.62625c0,0 -0.38263,2.21366 -2.79127,2.88539c-1.68043,0.46864 -4.34287,0.34385 -7.03231,0.50096c-0.85331,0.04984 -1.69638,0.03395 -2.4905,0.25952c-1.84413,0.5238 -3.42297,1.56729 -5.3759,2.2564c-1.55439,0.54848 -3.47151,0.8096 -5.04159,0.85874c-3.6108,0.11301 -7.30255,-0.80321 -10.16225,-2.30084c-1.8351,-0.96105 1.51881,-3.82844 5.17407,-5.95649c3.26663,-1.9018 8.39121,-3.1354 8.39121,-3.1354z" fill="none" stroke="#000000" stroke-width="1" stroke-linecap="round"/><path d="M214.78761,203.43915c0,-0.2686 0.12664,-0.50764 0.32345,-0.66064c-0.14245,0.30595 -0.231,0.64203 -0.25346,0.99609c-0.04501,-0.10268 -0.06999,-0.21615 -0.06999,-0.33545z" fill="#db93e6" stroke="none" stroke-width="0.5" stroke-linecap="butt"/><path d="M223.129,200.84453c5.36301,0.04651 3.0557,6.30284 0.37676,4.47385c-0.56413,-0.38516 0.45365,-1.13569 -0.15326,-1.58809c-0.80799,-0.60228 -2.20652,-1.18841 -3.05294,-1.67209c-0.29133,-0.13074 -0.16932,-1.01887 0.23482,-1.19223c0.40415,-0.17336 1.73335,-0.02891 2.59462,-0.02144z" fill="#f0e0ec" stroke="none" stroke-width="0.5" stroke-linecap="butt"/><path d="M221.58913,206.78426c-0.04287,0.42165 -0.399,0.75067 -0.83196,0.75067c-0.30694,0 -0.57525,-0.16535 -0.72072,-0.41184c-0.2312,-0.13211 -1.05102,-1.37107 -2.08121,-2.38367c-0.87171,-0.85682 -0.29764,-1.52796 -0.73491,-2.16462c-0.32071,-0.46696 -0.11359,-0.78023 0.33214,-0.94991c1.44435,-0.54982 5.20364,3.20573 4.03666,5.15938z" data-paper-data="{&quot;index&quot;:null}" fill="#f0e0ec" stroke="none" stroke-width="0.5" stroke-linecap="butt"/><path d="M218.84858,207.16312c0.33475,1.26692 -1.09143,2.00882 -1.79482,0.9035c-0.41897,-0.65837 -0.90974,-1.69156 -1.54123,-2.21345c-0.66411,-0.54886 0.11614,-0.94215 -0.31308,-1.69329c-0.24648,-0.14548 -0.41184,-0.41378 -0.41184,-0.72072c0,-0.46186 0.37442,-0.83628 0.83628,-0.83628c0.25436,0 0.48222,0.11357 0.6356,0.29277c1.65607,0.45449 2.27257,3.06959 2.58909,4.2675z" fill="#f0e0ec" stroke="none" stroke-width="0.5" stroke-linecap="butt"/><path d="M223.50574,205.31838c-0.54218,-0.37016 0.49894,-1.07782 -0.08251,-1.53396c1.10453,-0.27698 1.94761,-1.21297 2.08707,-2.36577c2.65203,1.51262 0.17818,5.38995 -2.00456,3.89972z" fill="#db93e6" stroke="none" stroke-width="0.5" stroke-linecap="butt"/><path d="M221.58913,206.78426c-0.04287,0.42165 -0.399,0.75067 -0.83196,0.75067c-0.30694,0 -0.57525,-0.16535 -0.72072,-0.41184c-0.16927,-0.09673 -0.6541,-0.7868 -1.30598,-1.54695c0.88983,-0.0642 1.66392,-0.54608 2.12724,-1.25056c0.74673,0.8655 1.14097,1.77304 0.73142,2.45866z" data-paper-data="{&quot;index&quot;:null}" fill="#db93e6" stroke="none" stroke-width="0.5" stroke-linecap="butt"/><path d="M218.84858,207.16312c0.33475,1.26692 -1.09143,2.00882 -1.79482,0.9035c-0.23987,-0.37693 -0.50328,-0.87673 -0.80316,-1.33309c0.74314,-0.05563 1.40506,-0.40263 1.87188,-0.92709c0.36774,0.51507 0.63159,0.99905 0.72609,1.35669z" fill="#db93e6" stroke="none" stroke-width="0.5" stroke-linecap="butt"/><path d="M223.129,200.84453c5.36301,0.04651 3.0557,6.30284 0.37676,4.47385c-0.56413,-0.38516 0.45365,-1.13569 -0.15326,-1.58809c-0.80799,-0.60228 -2.20652,-1.18841 -3.05294,-1.67209c-0.29133,-0.13074 -0.16932,-1.01887 0.23482,-1.19223c0.40415,-0.17336 1.73335,-0.02891 2.59462,-0.02144z" fill="none" stroke="#000000" stroke-width="1" stroke-linecap="butt"/><path d="M221.58913,206.78426c-0.04287,0.42165 -0.399,0.75067 -0.83196,0.75067c-0.30694,0 -0.57525,-0.16535 -0.72072,-0.41184c-0.2312,-0.13211 -1.05102,-1.37107 -2.08121,-2.38367c-0.87171,-0.85682 -0.29764,-1.52796 -0.73491,-2.16462c-0.32071,-0.46696 -0.11359,-0.78023 0.33214,-0.94991c1.44435,-0.54982 5.20364,3.20573 4.03666,5.15938z" data-paper-data="{&quot;index&quot;:null}" fill="none" stroke="#000000" stroke-width="1" stroke-linecap="butt"/><path d="M217.05375,208.06662c-0.41897,-0.65837 -0.90974,-1.69156 -1.54123,-2.21345c-0.66411,-0.54886 0.11614,-0.94215 -0.31308,-1.69329c-0.24648,-0.14548 -0.41184,-0.41378 -0.41184,-0.72072c0,-0.46186 0.37442,-0.83628 0.83628,-0.83628c0.25436,0 0.48222,0.11357 0.6356,0.29277c1.65607,0.45449 2.27257,3.06959 2.58909,4.2675c0.31652,1.1979 -1.09143,2.00881 -1.79482,0.90349z" fill="none" stroke="#000000" stroke-width="1" stroke-linecap="butt"/></g><g><path d="M239.36971,208.91399c0,0 0.3915,8.34024 14.60749,6.23944c13.4989,-1.99483 11.63893,-9.15571 11.63893,-9.15571l4.20286,1.887c0,0 -0.00863,1.18868 0.0127,2.61652c0.02049,1.37182 0.09502,2.95119 -1.0369,4.54341c-2.00021,2.81361 -6.76078,4.99215 -16.60204,5.40697c-20.06166,0.84564 -12.82304,-11.53763 -12.82304,-11.53763z" fill="#ffeffa" stroke="#000000" stroke-width="0" stroke-linecap="round"/><path d="M238.24138,214.9262c-0.01726,-0.07859 3.87856,5.67316 16.55063,3.82969c14.35662,-1.86616 15.02695,-10.87116 15.02695,-10.87116c0,0 -0.00863,1.18868 0.0127,2.61652c0.02049,1.37182 0.09502,2.95119 -1.0369,4.54341c-2.00021,2.81361 -6.76078,4.99215 -16.60204,5.40697c-10.11326,0.42629 -13.28882,-2.50921 -13.95136,-5.52542z" fill="#dd95e8" stroke="#000000" stroke-width="0" stroke-linecap="round"/><path d="M239.36971,208.91399c0,0 0.3915,8.34024 14.60749,6.23944c13.4989,-1.99483 11.63893,-9.15571 11.63893,-9.15571l4.20286,1.887c0,0 -0.00863,1.18868 0.0127,2.61652c0.02049,1.37182 0.09502,2.95119 -1.0369,4.54341c-2.00021,2.81361 -6.76078,4.99215 -16.60204,5.40697c-20.06166,0.84564 -12.82304,-11.53763 -12.82304,-11.53763z" fill="none" stroke="#000000" stroke-width="1" stroke-linecap="round"/><path d="M246.15778,199.14542c1.31642,-1.17593 6.83383,-2.37225 9.54146,-1.8472c1.63401,0.31686 1.35284,1.93808 1.35284,1.93808c0,0 6.50518,-3.29028 7.2311,-2.78214c0.28324,0.19828 1.53295,2.07667 0.92706,3.17351c-0.89762,1.62499 -3.86953,2.61068 -3.86953,2.61068c0,0 0.38686,0.12296 0.98019,0.36644c-4.37977,0.2708 -12.05727,2.81658 -14.69573,2.97807c-0.28949,0.01772 -0.09375,-0.57255 -0.14995,-0.85709c-0.2393,-1.21161 1.23526,-2.58493 0.44798,-3.60541c-0.53209,-0.6897 -1.20811,-1.28668 -1.96677,-1.76955c0.06482,-0.07445 0.13195,-0.14336 0.20135,-0.20536z" fill="#ff292e" stroke="#000000" stroke-width="0" stroke-linecap="butt"/><path d="M239.75568,206.14098l-4.26626,-0.16396c0,0 0.84014,-1.06582 2.24989,-3.95604l0.44322,0.77565c0.89587,1.56777 4.31336,-0.09743 3.82961,2.84951c-0.11145,0.67887 -1.32062,0.92814 -2.47088,1.49438c0.1108,-0.61531 0.21443,-0.99954 0.21443,-0.99954z" fill="#ff292e" stroke="#000000" stroke-width="0" stroke-linecap="butt"/><path d="M258.17176,209.10014c0.36853,-0.08338 0.88232,-0.11124 1.46868,-0.11798c-0.6464,0.16771 -1.32782,0.23565 -2.02895,0.24198c0.20663,-0.04469 0.39459,-0.08651 0.56025,-0.12398z" fill="#ac0e49" stroke="#000000" stroke-width="0" stroke-linecap="butt"/><path d="M244.70081,202.06679c0,0 0.52294,-2.08702 1.45697,-2.92137c1.31642,-1.17593 6.83383,-2.37225 9.54146,-1.8472c1.63401,0.31686 1.35284,1.93808 1.35284,1.93808c0,0 6.50518,-3.29028 7.2311,-2.78214c0.28324,0.19828 1.53295,2.07667 0.92706,3.17351c-0.89762,1.62499 -3.86953,2.61068 -3.86953,2.61068c0,0 1.6768,1.04143 3.78321,3.06446c3.27168,3.14221 4.20444,8.1679 -10.60834,11.59558c-1.79091,0.41442 -10.06451,0.93634 -13.55884,-2.11337c-2.85954,-2.49569 -1.20105,-8.64402 -1.20105,-8.64402l-4.26626,-0.16396c0,0 0.80377,-1.11685 2.35362,-4.16423c0.36247,-0.7127 6.85777,0.254 6.85777,0.254z" fill="#ff292e" stroke="#000000" stroke-width="0" stroke-linecap="round"/><path d="M239.75568,206.14098l-4.26626,-0.16396c0,0 1.0573,-0.76123 1.74011,-2.74157c1.97616,0.73611 4.61238,1.20089 5.82841,1.75617c0.14476,0.0661 -1.20123,0.75924 -1.35092,0.8545c-0.89102,0.56702 -1.4988,1.12815 -2.20328,1.90308c-0.02477,0.02724 -0.04901,0.05479 -0.07273,0.08264c0.13987,-1.0057 0.32469,-1.69088 0.32469,-1.69088z" fill="#ac0e49" stroke="#000000" stroke-width="0" stroke-linecap="butt"/><path d="M239.01589,206.27232c-0.27303,0.24428 -2.54969,0.17339 -2.50058,-0.53893c-0.05339,-0.11013 -0.08333,-0.23375 -0.08333,-0.36435c0,-0.46186 0.37442,-0.83628 0.83628,-0.83628c0.24056,0 0.4574,0.10157 0.60997,0.26417c1.11623,-0.04955 2.12857,0.58878 1.13765,1.4754z" fill="#000000" stroke="none" stroke-width="0.5" stroke-linecap="butt"/><path d="M254.51556,216.89838c-1.79091,0.41442 -10.06451,0.93634 -13.55884,-2.11337c-0.3195,-0.27885 -0.5826,-0.60331 -0.79791,-0.95967c3.21261,0.17766 11.22397,-3.76602 14.15318,-4.46787c1.7611,-0.42198 5.91336,0.01395 8.68214,-0.70891c0.18548,-0.04842 1.22555,1.94151 1.60247,1.53843c0.40093,-0.42875 1.09917,-3.59532 1.0842,-4.30339c2.77006,3.15444 2.76525,7.79127 -11.16524,11.01479z" fill="#ac0e49" stroke="#000000" stroke-width="0" stroke-linecap="butt"/><path d="M265.21022,199.62765c-0.89762,1.62499 -3.86953,2.61068 -3.86953,2.61068c0,0 0.88914,0.28259 2.03882,0.8393c-2.6179,0.16708 -5.35164,0.92473 -5.54022,0.30285c-0.44904,-1.48077 3.96725,-4.01273 6.07544,-5.71395c0.29957,-0.18436 0.56161,-0.42379 0.77203,-0.70418c0.43424,0.68131 0.95958,1.87579 0.52345,2.66532z" fill="#ac0e49" stroke="#000000" stroke-width="0" stroke-linecap="butt"/><path d="M245.28802,205.24037l-0.80164,-3.00204" fill="none" stroke="#000000" stroke-width="1" stroke-linecap="round"/><path d="M245.20225,208.11375c0,0 -1.46726,-0.21889 -1.62111,-0.58326c-0.46565,-1.10286 0.59183,-1.47529 0.59183,-1.47529c0,0 4.9467,-2.24519 7.44223,-2.74497c4.07916,-0.81696 6.42326,-0.04264 6.42326,-0.04264c0,0 1.21563,0.0579 1.55332,0.68722c0.31306,0.58342 -1.78096,1.02823 -1.78096,1.02823c0,0 1.6958,0.03505 2.41724,0.88295c0.94578,1.11157 0.15594,1.39003 0.15594,1.39003c0,0 1.26494,-0.00347 1.66996,0.92131c0.31713,0.72408 -0.51203,1.18013 -0.51203,1.18013c0,0 -5.20712,0.3391 -7.70654,0.76286c-2.47516,0.41965 -7.2179,1.76743 -7.2179,1.76743c0,0 -0.99125,0.44662 -1.27567,-0.67379c-0.23639,-0.93121 0.46081,-1.42764 0.46081,-1.42764c0,0 -1.03151,0.46549 -1.3061,-0.43725c-0.18736,-0.61595 0.70569,-1.23531 0.70569,-1.23531z" fill="#feeffb" stroke="#000000" stroke-width="0" stroke-linecap="round"/><path d="M251.6152,203.31023c4.07916,-0.81696 6.42326,-0.04264 6.42326,-0.04264c0,0 0.90806,0.04325 1.37255,0.46129c-1.71687,1.49587 -4.52822,4.45112 -7.02574,3.93719c-1.53135,-0.31512 -1.16377,-2.09366 -2.38648,-3.85867c0.55045,-0.21665 1.10154,-0.39407 1.6164,-0.49718z" fill="#dd95e8" stroke="#000000" stroke-width="0" stroke-linecap="round"/><path d="M245.93131,209.82921c0,0 3.18295,-0.99515 6.53549,-1.65399c2.90506,-0.5709 7.57412,-0.70476 7.57412,-0.70476" fill="none" stroke="#000000" stroke-width="1" stroke-linecap="round"/><path d="M245.15935,208.02798c0,0 2.227,-1.48295 5.68833,-2.32773c2.06082,-0.50296 6.70582,-0.67431 6.70582,-0.67431" fill="none" stroke="#000000" stroke-width="1" stroke-linecap="round"/><path d="M245.20225,208.11375c0,0 -1.46726,-0.21889 -1.62111,-0.58326c-0.46565,-1.10286 0.59183,-1.47529 0.59183,-1.47529c0,0 4.9467,-2.24519 7.44223,-2.74497c4.07916,-0.81696 6.42326,-0.04264 6.42326,-0.04264c0,0 1.21563,0.0579 1.55332,0.68722c0.31306,0.58342 -1.78096,1.02823 -1.78096,1.02823c0,0 1.6958,0.03505 2.41724,0.88295c0.94578,1.11157 0.15594,1.39003 0.15594,1.39003c0,0 1.26494,-0.00347 1.66996,0.92131c0.31713,0.72408 -0.51203,1.18013 -0.51203,1.18013c0,0 -5.20712,0.3391 -7.70654,0.76286c-2.47516,0.41965 -7.2179,1.76743 -7.2179,1.76743c0,0 -0.99125,0.44662 -1.27567,-0.67379c-0.23639,-0.93121 0.46081,-1.42764 0.46081,-1.42764c0,0 -1.03151,0.46549 -1.3061,-0.43725c-0.18736,-0.61595 0.70569,-1.23531 0.70569,-1.23531z" fill="none" stroke="#000000" stroke-width="1" stroke-linecap="round"/><path d="M264.04968,198.78601c1.15018,0.38339 0.40356,1.84688 -0.40023,2.63312c-0.13,0.2931 -0.42355,0.49754 -0.76483,0.49754c-0.46186,0 -0.83628,-0.37442 -0.83628,-0.83628c0,-0.18665 0.06115,-0.35902 0.16451,-0.49817c0.39289,-0.79476 1.38393,-1.94719 1.83685,-1.79621z" fill="#000000" stroke="none" stroke-width="0.5" stroke-linecap="butt"/><path d="M246.15778,199.14542c1.31642,-1.17593 6.83383,-2.37225 9.54146,-1.8472c1.63401,0.31686 1.35284,1.93808 1.35284,1.93808c0,0 6.50518,-3.29028 7.2311,-2.78214c0.28324,0.19828 1.53295,2.07667 0.92706,3.17351c-0.89762,1.62499 -3.86953,2.61068 -3.86953,2.61068c0,0 1.6768,1.04143 3.78321,3.06446c3.27168,3.14221 4.20444,8.1679 -10.60834,11.59558c-1.79091,0.41442 -10.06451,0.93634 -13.55884,-2.11337c-2.85954,-2.49569 -1.20105,-8.64402 -1.20105,-8.64402l-4.26626,-0.16396c0,0 0.80377,-1.11685 2.35362,-4.16423c0.36247,-0.7127 6.85777,0.254 6.85777,0.254c0,0 0.52293,-2.08703 1.45696,-2.92138z" fill="none" stroke="#000000" stroke-width="1" stroke-linecap="round"/></g><g><path d="M239.71091,180.97036c0,0 -1.0256,-4.0956 1.03203,-5.33746c5.68956,-3.43387 12.3485,-2.32847 12.3485,-2.32847c0,0 4.35038,-2.34374 6.74085,-1.58789c2.15327,0.68085 -0.5948,4.24215 -0.56921,7.29582c0.01305,1.55583 1.50782,3.2307 2.03827,4.70018c0.51068,1.41471 0.08678,2.64924 -1.34434,2.88658c-3.02232,0.50121 -7.14433,-3.2593 -7.14433,-3.2593l0.63009,9.19911c0,0 -6.68449,3.43094 -17.20515,2.16149c-7.48165,-0.90275 -7.39837,-6.76105 -7.39837,-6.76105c0,0 2.67148,-2.61667 4.48804,-3.78114c1.80727,-1.15851 6.38364,-3.18789 6.38364,-3.18789z" fill="#feecf7" stroke="#000000" stroke-width="0" stroke-linecap="round"/><path d="M239.71091,180.97036c0,0 -1.0256,-4.0956 1.03203,-5.33746c5.68956,-3.43387 12.3485,-2.32847 12.3485,-2.32847c0,0 4.35038,-2.34374 6.74085,-1.58789c1.68439,0.5326 0.3696,2.82775 -0.27061,5.26374c-0.70722,0.11136 -9.11847,2.47833 -9.11847,2.47833l2.36947,3.88121l0.63009,9.19911c0,0 -0.97231,0.49906 -2.75892,1.04608c-0.18269,-0.61384 -0.94552,-14.15458 -0.94552,-14.15458c0,0 -13.8315,3.3255 -13.60022,3.21161c1.78302,-0.87801 3.5728,-1.67169 3.5728,-1.67169z" fill="#dc94e7" stroke="#000000" stroke-width="0" stroke-linecap="butt"/><path d="M253.09145,173.30443c0,0 4.35038,-2.34374 6.74085,-1.58789c2.15327,0.68085 -0.5948,4.24215 -0.56921,7.29582c0.01305,1.55583 1.50782,3.2307 2.03827,4.70018c0.51068,1.41471 0.08678,2.64924 -1.34434,2.88658c-3.02232,0.50121 -7.14433,-3.2593 -7.14433,-3.2593l0.63009,9.19911c0,0 -6.68449,3.43094 -17.20515,2.16149c-7.48165,-0.90275 -7.39837,-6.76105 -7.39837,-6.76105c0,0 2.67148,-2.61667 4.48804,-3.78114c1.80727,-1.15851 6.38364,-3.18789 6.38364,-3.18789c0,0 -1.02561,-4.0956 1.03202,-5.33746c2.05763,-1.24186 12.34849,-2.32845 12.34849,-2.32845z" fill="none" stroke="#000000" stroke-width="1" stroke-linecap="round"/><g fill="none" stroke="#ff0000" stroke-width="1"><path d="M242.59671,189.17228c-2.61753,1.57784 -5.39303,1.83454 -6.86544,0.66896c-1.51155,-1.19657 1.56842,-4.01856 4.1728,-5.75385c1.96727,-1.31078 4.59452,-2.07518 6.95426,-0.63327c1.65703,1.01252 -1.54184,4.0787 -4.26162,5.71816z" stroke-linecap="butt"/><path d="M240.3825,183.92588l0.02968,5.66099" stroke-linecap="round"/></g><path d="M252.49788,173.87938c-0.15822,0.2769 -0.33031,0.54033 -0.51511,0.79043c-1.85699,2.5132 -4.99844,3.67936 -8.27648,3.61643c-1.07897,-0.02071 -3.58375,-0.18549 -3.34389,-1.83804c0.44548,-3.06916 11.25241,-4.11418 11.71015,-3.31314z" fill="#f89688" stroke="#000000" stroke-width="1" stroke-linecap="butt"/></g><g stroke="#000000" stroke-linecap="round"><path d="M252.94819,183.92588c0,0 1.77797,1.25752 2.70122,1.82735c1.91797,1.18373 3.73173,0.96026 3.73173,0.96026c0,0 -1.66714,1.51828 -1.0845,3.17082c0.49653,1.40832 1.62163,2.66857 1.54419,3.2999c-0.16328,1.33106 -2.47589,2.06611 -4.53298,2.16198c-3.40422,0.15866 -4.60295,-1.12759 -4.60295,-1.12759c0,0 -0.12303,-3.93402 -0.0028,-5.75262c0.10692,-1.6172 2.2461,-4.54009 2.2461,-4.54009z" fill="#fddfbd" stroke-width="0"/><path d="M252.94819,183.92588c0,0 1.77797,1.25752 2.70122,1.82735c1.91797,1.18373 3.73173,0.96026 3.73173,0.96026c0,0 -1.64382,0.99079 -1.35352,2.24277c-0.82894,-0.25009 -1.37266,0.05301 -3.1407,-0.41531c-2.50102,-0.66247 -1.87666,-2.02588 -2.31129,-2.37123c0.1784,-1.1913 0.37255,-2.24383 0.37255,-2.24383z" fill="#fa9789" stroke-width="0"/><path d="M255.6494,185.75322c1.91797,1.18373 3.73173,0.96026 3.73173,0.96026c0,0 -1.66714,1.51828 -1.0845,3.17082c0.49653,1.40832 1.62163,2.66857 1.54419,3.2999c-0.16328,1.33106 -2.47589,2.06611 -4.53298,2.16198c-3.40422,0.15866 -4.60295,-1.12759 -4.60295,-1.12759c0,0 -0.12303,-3.93402 -0.0028,-5.75262c0.10692,-1.6172 2.2461,-4.54009 2.2461,-4.54009c0,0 1.77796,1.25752 2.70121,1.82735z" fill="none" stroke-width="1"/></g><g><path d="M249.28964,193.87551l3.4738,-2.61607l4.54595,2.70184l2.40164,-1.37236l2.61606,3.774c0,0 -6.95589,8.2865 -9.0958,8.63451c-1.97887,0.32182 -3.29836,-6.61886 -3.29836,-6.61886z" fill="#0066cd" stroke="#000000" stroke-width="0" stroke-linecap="round"/><path d="M255.25747,201.33418c1.97357,-1.65742 2.70693,-4.89361 5.38818,-5.8804c0.3998,-0.14713 1.26327,-0.17111 1.42679,0.36231c0.30378,0.99095 -7.37846,9.20631 -8.97912,9.14551c-1.39841,-0.05311 -1.79606,-3.06459 -2.61988,-5.17789c-0.48603,-1.24678 -0.20003,-2.06909 -0.12194,-2.08861c0.13625,-0.09627 1.56123,0.64404 1.64258,1.02069c1.36218,0.92807 3.09633,2.75869 3.2634,2.61838z" fill="#061484" stroke="none" stroke-width="0.5" stroke-linecap="butt"/><path d="M249.28964,193.87549l3.4738,-2.61607l4.54595,2.70184l2.40164,-1.37236l2.61606,3.774c0,0 -6.95589,8.28651 -9.0958,8.63451c-1.97886,0.32182 -3.29836,-6.61886 -3.29836,-6.61886" fill="none" stroke="#000000" stroke-width="1" stroke-linecap="round"/></g></g><g stroke="#000000"><g stroke-linecap="butt"><path d="M270.38175,167.15113l0.43258,-2.30217c0,0 9.00249,-1.46245 11.1044,-0.56404c1.47557,0.63068 1.74897,4.88451 -0.82435,5.58415c-3.42693,0.93171 -10.71262,-2.71794 -10.71262,-2.71794z" fill="#0066cd" stroke-width="0"/><path d="M270.38176,167.15113l0.15353,-0.81707c0,0 2.06033,0.05663 4.11138,0.29897c1.58526,0.18731 2.97812,0.54142 4.57999,0.71638c1.90516,0.20808 3.73103,0.26483 3.71341,0.34846c-0.20906,0.9923 -0.786,1.8831 -1.84568,2.17121c-3.42693,0.93172 -10.71263,-2.71795 -10.71263,-2.71795z" fill="#061483" stroke-width="0"/><path d="M270.38176,167.15113l0.43258,-2.30217c0,0 9.00249,-1.46244 11.1044,-0.56403c1.47558,0.63068 1.74897,4.88451 -0.82435,5.58415c-3.42693,0.93172 -10.71263,-2.71795 -10.71263,-2.71795z" fill="none" stroke-width="1"/></g><g stroke-linecap="round"><path d="M231.34099,174.22178c0,0 -10.9549,-23.71554 11.74416,-25.87577c23.27427,-2.21497 21.44235,18.69993 21.44235,18.69993c0,0 5.52979,-5.60029 6.49521,-5.15564c0.81489,0.37532 0.10855,5.4604 -0.48393,7.44171c-0.4378,1.46404 -0.92031,4.57567 -2.27134,4.91145c-0.85037,0.21134 -4.73429,-2.20232 -4.73429,-2.20232c0,0 -6.93764,4.99254 -13.56233,7.10864c-6.54179,2.08961 -16.24153,2.1387 -16.24153,2.1387c0,0 -7.21323,-0.00319 -7.66659,-2.43301c-0.38632,-2.07041 5.27827,-4.6337 5.27827,-4.6337z" fill="#fde0be" stroke-width="0"/><path d="M259.66667,174.54575c-0.0321,0.01926 -1.51118,-1.94168 -1.51118,-1.94168l-2.89969,2.89923l-5.62255,-6.66849l-6.34248,5.03769l-1.66614,-6.38381c0,0 -11.07697,4.72402 -11.08736,4.69462c-2.04842,-5.79575 -6.06821,-22.06566 12.54788,-23.83731c23.27427,-2.21497 21.44235,18.69993 21.44235,18.69993c0,0 5.66084,3.62856 5.61761,3.79591c-0.37996,1.47117 -0.90263,3.1593 -1.87766,3.40163c-0.85037,0.21134 -4.73429,-2.20232 -4.73429,-2.20232c0,0 -1.54213,1.10975 -3.8665,2.5046z" fill="#fc988a" stroke-width="0"/><path d="M265.08201,168.47456l2.90281,-1.73912l-0.61008,5.07171z" fill="#f79587" stroke-width="0.5"/><path d="M243.08513,148.34601c23.27427,-2.21497 21.44235,18.69993 21.44235,18.69993c0,0 5.52979,-5.60029 6.49521,-5.15564c0.81489,0.37532 0.10855,5.4604 -0.48393,7.44171c-0.4378,1.46404 -0.92031,4.57567 -2.27134,4.91145c-0.85037,0.21134 -4.73429,-2.20232 -4.73429,-2.20232c0,0 -6.93764,4.99254 -13.56233,7.10864c-6.54179,2.08961 -16.24153,2.1387 -16.24153,2.1387c0,0 -7.21323,-0.00319 -7.66659,-2.43301c-0.38632,-2.07041 5.27827,-4.6337 5.27827,-4.6337c0,0 -10.95489,-23.71553 11.74417,-25.87576z" fill="none" stroke-width="1"/></g><g stroke-linecap="round"><path d="M269.84997,159.18987c0,0 -1.48086,3.60734 -2.42955,5.11897c-0.81923,1.30533 -2.93141,3.42304 -2.93141,3.42304c0,0 -11.29939,-3.83129 -18.82093,-3.86147c-7.68273,-0.03083 -17.39143,1.88265 -17.39143,1.88265c0,0 -5.61467,-17.34972 -2.33035,-20.4148c2.39148,-2.23185 9.70135,-4.9171 17.08323,-5.16546c3.36446,-0.1132 12.99211,-0.33592 16.42987,2.36366c4.60751,3.61817 10.39058,16.6534 10.39058,16.6534z" fill="#ff292e" stroke-width="0"/><path d="M269.84997,159.18987c0,0 -1.48085,3.60735 -2.42955,5.11897c-0.81923,1.30533 -2.9314,3.42304 -2.9314,3.42304c0,0 -5.472,-1.85539 -11.3349,-2.99403c-0.15346,-0.0298 0.79995,-14.2809 3.11044,-20.11885c0.7651,-1.93319 2.33965,-2.75412 3.19483,-2.08255c4.60751,3.61818 10.39058,16.65341 10.39058,16.65341z" fill="#ac0e49" stroke-width="0.5"/><path d="M267.42041,164.30885c-0.81923,1.30533 -2.9314,3.42304 -2.9314,3.42304c0,0 -11.29939,-3.83129 -18.82094,-3.86146c-7.68273,-0.03083 -17.39142,1.88265 -17.39142,1.88265c0,0 -5.61467,-17.34973 -2.33035,-20.4148c2.39149,-2.23185 9.70135,-4.9171 17.08323,-5.16546c3.36446,-0.1132 12.99211,-0.33593 16.42985,2.36366c4.60751,3.61818 10.39058,16.65341 10.39058,16.65341c0,0 -1.48086,3.60734 -2.42955,5.11896z" fill="none" stroke-width="1"/></g><g stroke-linecap="round"><path d="M229.72478,171.30348c0,0 -3.71026,1.39932 -5.37665,2.27001c-1.69191,0.88402 -4.69941,2.9947 -4.69941,2.9947c0,0 1.12962,-4.02753 1.98329,-5.88333c0.81073,-1.76242 3.01653,-4.98578 3.01653,-4.98578l-9.3877,1.80648c0,0 7.20894,-13.66417 10.58623,-15.63503c2.01426,-1.17543 10.53199,2.86112 10.53199,2.86112c0,0 0.9303,-2.81847 1.64978,-4.16713c0.65518,-1.22811 2.4923,-3.59705 2.4923,-3.59705c0,0 2.25849,5.89873 3.65228,8.71751c1.45199,2.93649 4.89219,8.56277 4.89219,8.56277l15.12407,3.09043l-0.5163,6.80812l-6.42839,-5.43413l-2.14798,3.7669l-6.03139,-8.23131l-4.40613,4.67562l-1.74094,-4.90055c0,0 -10.60309,3.93259 -12.8998,5.43731c-0.62607,0.41017 -0.29395,1.84334 -0.29395,1.84334z" fill="#4fa6ec" stroke-width="0"/><path d="M231.69009,161.75871l-12.04137,14.80949c0,0 1.12962,-4.02753 1.98328,-5.88333c0.81072,-1.76242 3.01653,-4.98578 3.01653,-4.98578l-9.38769,1.80647c0,0 7.20893,-13.66417 10.58623,-15.63503c2.01425,-1.17544 10.532,2.86112 10.532,2.86112c0,0 0.93029,-2.81847 1.64977,-4.16713c0.65518,-1.22811 2.4923,-3.59704 2.4923,-3.59704l-1.03446,12.06621c0,0 -9.49335,-3.27426 -11.63728,-2.68748c-3.36482,0.92092 -7.3103,8.45133 -7.3103,8.45133z" fill="#66ffff" stroke-width="0"/><path d="M254.43258,166.93215l-0.19166,4.37861l-3.65453,-4.9875z" fill="#66ffff" stroke-width="0"/><path d="M219.64872,176.5682c0,0 1.12962,-4.02753 1.98328,-5.88333c0.81072,-1.76242 3.01653,-4.98578 3.01653,-4.98578l-9.38769,1.80647c0,0 7.20893,-13.66417 10.58623,-15.63503c2.01425,-1.17544 10.532,2.86112 10.532,2.86112c0,0 0.93029,-2.81847 1.64977,-4.16713c0.65518,-1.22811 2.4923,-3.59704 2.4923,-3.59704c0,0 2.25848,5.89872 3.65227,8.7175c1.45198,2.93649 4.89219,8.56277 4.89219,8.56277l15.12407,3.09043l-0.5163,6.80812l-6.42839,-5.43412l-2.14799,3.7669l-6.0314,-8.23131l-4.40614,4.67562l-1.74094,-4.90055c0,0 -10.60309,3.93259 -12.8998,5.43731c-0.62607,0.41017 -0.29395,1.84334 -0.29395,1.84334c0,0 -3.71024,1.39932 -5.37664,2.27001c-1.6664,0.87069 -4.69941,2.99467 -4.69941,2.99467z" fill="none" stroke-width="1"/></g></g><path d="M176.16667,243.83333v-127.66667h127.66667v127.66667z" fill="none" stroke="none" stroke-width="NaN" stroke-linecap="butt"/><g stroke="none" stroke-width="0.5" stroke-linecap="butt"><path d="M244.85688,170.43513c0,0 -0.19229,0.20468 -0.44919,0.18702c-0.21861,0.22939 -0.55803,0.12788 -0.55803,0.12788l-0.49425,-0.1498c-0.94275,-0.36968 -1.88643,-0.76374 -2.82119,-1.17935c0.08092,1.18019 0.33224,2.07792 0.67256,3.27582l0.01962,0.21815c0.03161,0.20811 -0.02805,0.3495 -0.11413,0.44485c-0.07272,0.09574 -0.18939,0.17622 -0.37651,0.19234c-0.86776,0.13515 -1.72328,0.44487 -2.57916,0.66334l-0.08578,0.05609c-0.16594,0.13384 -0.32162,0.14897 -0.4489,0.11868c-0.11927,-0.01637 -0.24703,-0.07727 -0.3495,-0.23084c-1.44702,-1.75783 -1.45579,-4.55888 -0.67347,-6.64983c-3.55986,-1.89587 -6.65289,-5.30491 -8.94784,-8.52217c0,0 -0.32357,-0.45401 0.13045,-0.7776c0.1385,-0.09871 0.26487,-0.12505 0.3736,-0.114c0.36008,-0.03361 0.52961,0.33021 0.52961,0.33021c0.26342,0.69579 1.43901,1.2256 2.01656,1.76772c2.02926,1.90478 3.63862,3.91549 5.85211,5.64848c0.55127,0.36786 1.02815,0.67931 1.47618,1.15796c0.07163,0.03668 0.14339,0.07323 0.2153,0.10966l0.11692,0.03163c0,0 0.07258,0.0335 0.15008,0.10261c1.70567,0.8516 3.48498,1.62581 5.25053,2.31815l0.30134,0.08862c2.60571,-2.776 4.64612,-6.00172 7.29012,-8.83439c2.66696,-2.83649 5.39055,-5.14552 8.27465,-7.72949l0.51297,-0.20299c0,0 0.53639,-0.15202 0.68842,0.38437c0.15202,0.53639 -0.38437,0.68842 -0.38437,0.68842l-0.0768,-0.03585c-2.88852,2.54393 -5.55291,4.83704 -8.20219,7.65905c-0.19656,0.20804 -0.38948,0.41817 -0.57928,0.63003c0.07385,0.21589 -0.02676,0.43388 -0.02676,0.43388c-1.15391,2.49773 -1.50374,5.39166 -0.73351,8.10936l0.0268,0.72726c0.00013,0.00311 0.00026,0.00626 0.00035,0.0094c0.00604,0.19354 -0.05724,0.32194 -0.14239,0.40713c-0.07971,0.09031 -0.20393,0.16148 -0.39747,0.16752c-0.00096,0.00003 -0.00192,0.00006 -0.00287,0.00008c-1.31129,0.03864 -2.41168,0.05411 -3.71282,0.26028l-0.42437,0.01739c-0.00531,0.00027 -0.01069,0.00049 -0.01611,0.00066c-0.19354,0.00604 -0.32194,-0.05724 -0.40713,-0.14239c-0.09032,-0.07971 -0.16148,-0.20393 -0.16752,-0.39747c-0.02179,-0.6983 -0.04357,-1.3966 -0.06536,-2.09491c-0.21643,0.24512 -0.43659,0.48765 -0.66129,0.72706z" fill="#000000"/><path d="M249.75683,177.60206c1.59195,-0.44579 6.64491,-3.6353 6.62267,-5.70198c-2.21412,1.76703 -5.75268,3.17679 -8.34791,3.93928c-1.91595,0.46811 -3.76224,1.24285 -5.65277,1.73548c1.6235,1.63739 5.55019,0.54955 7.37802,0.02721zM256.38593,170.53545c0.1723,-0.10571 0.32044,-0.11063 0.43931,-0.07394c0.11971,0.02756 0.24376,0.10453 0.33927,0.27773c1.72501,2.97699 -4.54887,7.2041 -7.10363,7.93562c-2.53878,0.71422 -6.8615,1.75748 -8.79157,-0.68638l-0.0825,-0.14712c-1.46281,0.26675 -2.96539,0.29686 -4.55855,-0.17249c0,0 -0.53415,-0.15972 -0.37443,-0.69387c0.15973,-0.53415 0.69387,-0.37443 0.69387,-0.37443c3.80968,1.15914 7.30346,-0.91666 10.79399,-1.8379c2.53064,-0.68152 6.29749,-2.2432 8.27314,-4.01111l0.36666,-0.21339c0.00148,-0.00092 0.00295,-0.00182 0.00444,-0.00274z" fill="#000000"/><path d="M242.32598,177.59262c1.89053,-0.49263 3.84035,-1.30837 5.7563,-1.77648c2.59523,-0.76251 6.13348,-2.17293 8.34759,-3.93996c0.02223,2.06668 -5.0727,5.33521 -6.66468,5.781c-1.82782,0.52233 -5.81572,1.57283 -7.43923,-0.06456z" data-paper-data="{&quot;noHover&quot;:false,&quot;origItem&quot;:[&quot;Path&quot;,{&quot;applyMatrix&quot;:true,&quot;segments&quot;:[[[670.47868,383.19107],[-3.3061,0.8342],[2.87897,-0.71016]],[[682.67059,373.3391],[-0.07572,3.70634],[-4.06825,3.04406]],[[667.4843,379.93446],[4.69532,-1.22185],[-3.46106,0.73206]],[[657.25306,382.72964],[3.41686,-0.77745],[2.819,3.02628]]],&quot;closed&quot;:true}]}" fill="#ff6666"/></g><g><path d="M205.38543,195.38163c-0.00653,-1.76349 1.41776,-3.19837 3.18123,-3.2049c1.76349,-0.00653 3.19835,1.41775 3.20488,3.18123c0.00653,1.76349 -1.41775,3.19835 -3.18121,3.20489c-1.76349,0.00653 -3.19837,-1.41775 -3.20491,-3.18121z" fill="#3f5479" stroke="#000000" stroke-width="1" stroke-linecap="butt"/><path d="M221.21788,179.99099c4.56143,0.81348 8.05601,10.19355 5.43298,14.60226c-1.00958,1.69685 -3.013,2.40175 -4.83353,2.07961c-0.16548,-0.02927 -1.27401,-0.97441 -1.32523,-0.92208c-0.28952,0.2958 -0.3324,1.53209 -1.22064,2.15969c-1.19981,0.84777 -3.27149,1.08394 -3.27149,1.08394c0,0 -2.11495,2.45408 -3.16463,2.02826c-5.44785,-2.20992 -6.2776,-7.72932 -4.8688,-11.06837c0.36778,-0.87171 2.94023,-2.23626 4.05346,-3.48996c1.01894,-1.14749 0.10194,-1.51668 1.00794,-2.00307c0.20546,-0.11029 0.89266,-0.49467 1.62245,-0.55229c0.80687,-0.06372 1.68799,0.18174 2.51949,-0.36037c1.73282,-1.12971 1.56157,-4.00108 4.04798,-3.55765z" fill="#fde0be" stroke="#000000" stroke-width="0" stroke-linecap="butt"/><path d="M217.97598,198.8613c1.39544,-6.39125 12.11203,-6.97542 11.22372,-1.03917c-0.45293,3.02669 -2.93132,2.3936 -5.05347,3.03988c-0.16243,0.04946 -0.31125,0.13919 -0.45492,0.25444c-0.40148,1.04021 -1.40906,1.77986 -2.59125,1.78424c-0.21707,0.00081 -0.42845,-0.02322 -0.63142,-0.06941c-1.09459,-0.2491 -1.94506,-1.14269 -2.12934,-2.26184c-0.41378,-0.49756 -0.34374,-1.11268 -0.34584,-1.68213z" fill="#f89688" stroke="#000000" stroke-width="1" stroke-linecap="butt"/><path d="M226.65087,194.59322c-1.00958,1.69685 -3.013,2.40175 -4.83352,2.07962c-0.16548,-0.02927 -1.27401,-0.97441 -1.32523,-0.92208c-0.28952,0.2958 -0.3324,1.53209 -1.22064,2.15969c-1.19982,0.84775 -3.27149,1.08394 -3.27149,1.08394c0,0 -2.11495,2.45408 -3.16463,2.02826c-0.97989,-0.39748 -1.81037,-0.90206 -2.50531,-1.48173c0.90555,-1.61946 1.72547,-2.77917 1.71811,-4.76687c-0.00245,-0.66043 0.2377,-2.42339 0.12526,-3.05188c0.52368,-0.3154 0.44052,-0.25986 0.95665,-0.63479c0.02848,0.22779 0.07798,0.45164 0.14994,0.67065c0.10458,0.31828 0.25711,0.63887 0.44606,0.94926c0.14146,1.4119 1.33579,2.51175 2.78392,2.50638c0.20351,-0.00076 0.40185,-0.0233 0.5928,-0.06541c0.81359,0.04045 1.54164,-0.3945 1.93711,-1.57253c0.06178,-0.13629 0.11292,-0.27842 0.15234,-0.42533c0.48291,0.39446 1.10042,0.6301 1.77263,0.62761c0.12851,-0.00048 0.25497,-0.00964 0.3788,-0.02693c0.72384,-0.10109 1.35824,-0.48 1.79249,-1.02518c1.32134,-1.01727 2.91367,-2.63684 4.18958,-4.27754c0.42443,2.2717 0.28094,4.53835 -0.67489,6.14485z" fill="#f89688" stroke="#000000" stroke-width="0" stroke-linecap="butt"/><path d="M211.9325,190.9225l1.62602,1.10903c0,0 0.15672,2.39641 0.57196,3.42343c0.46563,1.15169 1.78389,3.15678 1.78389,3.15678" fill="none" stroke="#000000" stroke-width="1" stroke-linecap="round"/><path d="M217.80277,188.46789l1.42328,1.10977c0,0 -0.11041,2.01718 0.14399,3.19963c0.26115,1.21386 1.30032,3.58669 1.30032,3.58669" fill="none" stroke="#000000" stroke-width="1" stroke-linecap="round"/><path d="M221.21788,179.99099c4.56143,0.81348 8.05602,10.19355 5.43299,14.60226c-1.00958,1.69685 -3.013,2.40175 -4.83352,2.07962c-0.16548,-0.02927 -1.27401,-0.97441 -1.32523,-0.92208c-0.28952,0.2958 -0.3324,1.53209 -1.22064,2.15969c-1.19982,0.84775 -3.27149,1.08394 -3.27149,1.08394c0,0 -2.11495,2.45408 -3.16463,2.02826c-5.44785,-2.20992 -6.2776,-7.72932 -4.8688,-11.06837c0.36779,-0.87171 2.94023,-2.23626 4.05346,-3.48996c1.01894,-1.14749 0.10194,-1.51668 1.00794,-2.00307c0.21411,-0.11494 0.74012,-0.49187 1.51273,-0.55926c0.78842,-0.06877 1.82941,0.16804 2.62921,-0.3534c1.73282,-1.1297 1.56157,-4.00108 4.04798,-3.55765z" fill="none" stroke="#000000" stroke-width="1" stroke-linecap="butt"/><path d="M222.69456,188.67785c-0.01287,-3.47098 1.78407,-5.98735 4.38729,-5.997c2.60323,-0.00965 4.72399,2.79631 4.73686,6.26729c0.01287,3.47098 -1.47959,6.08758 -4.08282,6.09722c-2.60323,0.00965 -5.02847,-2.89655 -5.04134,-6.36751z" fill="#93c0c3" stroke="none" stroke-width="0" stroke-linecap="butt"/><path d="M227.7359,195.04538c-2.51261,0.00931 -4.8594,-2.69774 -5.03131,-6.00719c3.03581,0.01543 6.07167,0.11915 9.11264,0.14883c-0.05508,3.35146 -1.53814,5.84894 -4.08133,5.85836z" fill="#475f86" stroke="none" stroke-width="0" stroke-linecap="butt"/><path d="M222.93088,186.57193c0.84257,0.09189 2.00357,-0.26639 2.5277,-0.28649c1.16402,-0.04465 3.73311,0.15287 5.78298,-0.32397c0.26416,0.64345 0.44654,1.35509 0.52841,2.11008c-3.01968,-0.03016 -6.03425,-0.13258 -9.04891,-0.1483c0.03559,-0.4737 0.10651,-0.92563 0.20982,-1.35132z" fill="#475f86" stroke="none" stroke-width="0" stroke-linecap="butt"/><path d="M222.69456,188.67785c-0.01287,-3.47098 1.78407,-5.98735 4.38729,-5.997c2.60323,-0.00965 4.72399,2.79631 4.73686,6.26729c0.01287,3.47098 -1.47959,6.08758 -4.08282,6.09722c-2.60323,0.00965 -5.02847,-2.89655 -5.04134,-6.36751z" fill="none" stroke="#000000" stroke-width="1" stroke-linecap="butt"/><path d="M225.73143,187.55153c-0.01805,-4.87055 3.54088,-9.13627 8.07553,-9.15309c4.53467,-0.0168 7.31231,3.71859 7.33036,8.58915c0.01805,4.87055 -3.64337,8.83254 -8.17802,8.84936c-4.53465,0.01681 -7.20981,-3.41485 -7.22786,-8.28541z" fill="#3f5479" stroke="#000000" stroke-width="0" stroke-linecap="butt"/><path d="M241.13734,186.9876c0.01805,4.87055 -3.64337,8.83254 -8.17802,8.84936c-3.84931,0.01427 -6.35874,-2.45635 -7.04036,-6.18265c0.18651,0.07938 0.38709,0.14619 0.60237,0.19916c4.61485,1.13555 12.2457,-0.09385 14.39564,-5.12545c0.1426,0.71625 0.21746,1.47312 0.22037,2.25957z" fill="#323344" stroke="#000000" stroke-width="0" stroke-linecap="butt"/><path d="M232.8746,179.82106c-0.00171,-0.46186 0.37131,-0.83767 0.83318,-0.83937c0.46187,-0.00171 0.83767,0.37132 0.83937,0.83318c0.00171,0.46186 -0.37131,0.83767 -0.83318,0.83937c-0.46187,0.00171 -0.83767,-0.37132 -0.83937,-0.83318z" fill="#95c2c5" stroke="none" stroke-width="0.5" stroke-linecap="butt"/><path d="M225.73143,187.55153c-0.01805,-4.87055 3.54088,-9.13627 8.07553,-9.15309c4.53467,-0.0168 7.31231,3.71859 7.33036,8.58915c0.01805,4.87055 -3.64337,8.83254 -8.17802,8.84936c-4.53465,0.01681 -7.20981,-3.41485 -7.22786,-8.28541z" fill="none" stroke="#000000" stroke-width="1" stroke-linecap="butt"/><path d="M240.48423,189.23176c0,0 -1.19416,2.58571 -6.28806,2.81803c-2.80753,0.12807 -6.24598,-0.03969 -6.24598,-0.03969" fill="none" stroke="#000000" stroke-width="1" stroke-linecap="round"/><path d="M240.97691,186.77683c0,0 -2.51101,0.72786 -4.24848,0.96133c-2.75487,0.37016 -10.68577,1.04537 -10.68577,1.04537" fill="none" stroke="#000000" stroke-width="1" stroke-linecap="round"/><path d="M225.81242,186.83304c0,0 3.28757,-2.7523 7.52701,-3.10567c3.6087,-0.30079 7.46363,1.26602 7.46363,1.26602" fill="none" stroke="#000000" stroke-width="1" stroke-linecap="round"/><path d="M226.41245,183.26265c0,0 2.91035,-2.34083 6.25746,-2.44322c3.36351,-0.10289 7.23014,1.22243 7.23014,1.22243" fill="none" stroke="#000000" stroke-width="1" stroke-linecap="round"/><path d="M231.1958,195.23172c0,0 -3.18715,-2.80791 -3.89875,-6.83703c-0.41142,-2.32949 0.66964,-6.97763 0.66964,-6.97763" fill="none" stroke="#000000" stroke-width="1" stroke-linecap="round"/><path d="M233.6495,195.38989c0,0 -3.31446,-4.2426 -3.63927,-7.96085c-0.2534,-2.9009 1.57125,-8.47849 1.57125,-8.47849" fill="none" stroke="#000000" stroke-width="1" stroke-linecap="round"/><path d="M236.54507,194.43137c0,0 -2.2669,-0.88085 -2.57207,-9.26181c-0.09822,-2.69761 1.17533,-6.56675 1.17533,-6.56675" fill="none" stroke="#000000" stroke-width="1" stroke-linecap="round"/><path d="M238.8926,180.98629l0.20962,11.4285" fill="none" stroke="#000000" stroke-width="1" stroke-linecap="round"/></g></g></g></svg>