<svg version="1.1" xmlns="http://www.w3.org/2000/svg" xmlns:xlink="http://www.w3.org/1999/xlink" width="189.26654" height="221.55319" viewBox="0,0,189.26654,221.55319"><g transform="translate(-205.36673,-69.22341)"><g data-paper-data="{&quot;isPaintingLayer&quot;:true}" fill-rule="nonzero" stroke-linejoin="miter" stroke-miterlimit="10" stroke-dasharray="" stroke-dashoffset="0" style="mix-blend-mode: normal"><path d="M205.36673,290.77659v-221.55318h189.26654v221.55319z" fill="none" stroke="none" stroke-width="NaN" stroke-linecap="butt"/><g fill="#000000" stroke="#000000" stroke-linecap="round"><path d="M290.43658,180.67841c0,0 -27.74163,7.89121 -29.05952,-10.04101c-0.48556,-6.60682 15.81827,-6.15842 15.81827,-6.15842z" data-paper-data="{&quot;origPos&quot;:null}" stroke-width="2"/><path d="M281.58837,169.58626c0,0 -16.01352,-0.7724 -15.84869,-1.3993c0.52266,-1.98766 12.31423,-2.25671 12.31423,-2.25671z" data-paper-data="{&quot;origPos&quot;:null}" stroke-width="1"/></g><g><g data-paper-data="{&quot;index&quot;:null}"><g stroke="#000000" stroke-width="3" stroke-linecap="round"><path d="M337.62792,204.88146c0,0 3.64163,10.10522 3.53455,14.71163c-15.17239,7.48159 -24.96916,5.56413 -24.96916,5.56413c-1.95979,0.53929 -2.73291,-6.69446 -2.73291,-6.69446c0,0 -1.97216,-14.07193 -3.23446,-23.07865c-0.82888,-5.91419 -2.12389,-15.15439 -2.12389,-15.15439c0,0 -0.56284,-5.89772 0.51869,-6.10544c6.50659,-1.24966 12.55774,-3.74174 15.97465,-3.20398c1.13897,0.17925 3.10514,5.54533 3.10514,5.54533l9.92738,28.41582z" data-paper-data="{&quot;origPos&quot;:null}" fill="#000000"/><path d="M338.72791,210.53329l-25.00182,5.78697l-0.75316,-3.3176l24.98357,-6.04496z" data-paper-data="{&quot;origPos&quot;:null}" fill="none"/></g><path d="M312.66025,212.60395l-4.32623,-36.61284l1.09135,-0.94585l15.37503,-3.69321l12.34262,35.32211z" fill="#000000" stroke="#000000" stroke-width="1" stroke-linecap="round"/><path d="M313.591,215.8944l-0.52845,-2.27041l24.83695,-5.78089l0.52844,2.27041z" fill="#000000" stroke="none" stroke-width="0" stroke-linecap="butt"/></g><g fill="#000000" stroke="#000000" stroke-width="2" stroke-linecap="round"><path d="M335.44698,200.40088c0,0 4.3808,0.15628 4.53215,3.09664c0.24214,4.70445 -32.61441,1.46442 -33.16251,-3.42324c-0.22393,-1.99698 2.92304,-2.39757 2.92304,-2.39757l0.42843,1.82196c0,0 6.03153,1.96238 13.67884,2.88877c7.54133,0.91355 12.57996,0.15174 12.57996,0.15174z"/><path d="M332.63619,192.25467c0,0 2.8283,-2.54999 3.93268,-0.50725c2.31822,4.288 -25.39131,25.79886 -26.61524,21.32904c-0.74123,-2.70703 2.46421,-4.05774 2.46421,-4.05774l0.35447,1.33053c0,0 4.73617,-2.43491 10.9176,-7.40899c6.18144,-4.97408 9.43023,-9.47338 9.43023,-9.47338z" data-paper-data="{&quot;index&quot;:null}"/></g></g><path d="M295.38302,263.99392c0,0 -0.24603,4.44653 -1.59917,6.36384c-1.03589,1.46778 -2.94413,1.58458 -4.74213,1.58355c-4.93531,-0.00285 -9.21701,-2.5567 -16.65379,-4.45954c-2.02544,-0.51825 -2.40395,-3.7851 -1.75499,-5.77018c0.60697,-1.85666 1.77598,-5.04696 1.77598,-5.04696l10.91613,-31.03879c0,0 1.54463,-3.97244 3.40025,-4.28224c4.46866,-0.74608 8.43029,1.74865 12.87565,2.62268c1.50647,0.2962 0.44409,4.94694 0.44409,4.94694c0,0 -1.17882,8.87044 -1.93332,14.54799c-1.06489,8.01317 -2.72866,20.53274 -2.72866,20.53274z" fill="#000000" stroke="#000000" stroke-width="3" stroke-linecap="round"/><g data-paper-data="{&quot;origRot&quot;:0}" stroke="#000000" stroke-linecap="round"><path d="M301.23671,229.81346c0,0 -1.60387,-4.49327 -0.14287,-4.96476c4.31122,-1.39127 7.95079,-4.33502 12.47635,-4.12023c1.87925,0.08918 3.88198,3.85209 3.88198,3.85209l14.50333,29.53726c0,0 1.53738,3.03043 2.35925,4.8027c0.87872,1.89486 0.88842,5.18349 -1.06174,5.93657c-7.16036,2.76511 -11.11082,5.8052 -16.01138,6.38907c-1.78536,0.21271 -3.69409,0.3214 -4.89598,-1.01421c-1.57001,-1.74464 -2.33909,-6.13121 -2.33909,-6.13121z" data-paper-data="{&quot;origPos&quot;:null}" fill="#ff0000" stroke-width="3"/><path d="M335.43631,262.05788c0,0 -4.70581,4.4182 -9.47996,6.09616c-3.66289,1.28739 -11.93464,3.11606 -11.93464,3.11606c0,0 -2.13074,-1.99785 -2.74279,-3.46835c-0.64477,-1.54909 -0.47767,-4.26898 -0.47767,-4.26898l21.61311,-8.43628z" data-paper-data="{&quot;origPos&quot;:null}" fill="#976e57" stroke-width="2"/><path d="M301.41903,230.08734c0,0 -1.60387,-4.49327 -0.14287,-4.96475c4.31122,-1.39126 7.95079,-4.33503 12.47636,-4.12021c1.87925,0.08918 3.88197,3.85209 3.88197,3.85209l14.50332,29.53726c0,0 1.53741,3.03043 2.35928,4.80269c0.87872,1.89486 0.88842,5.18348 -1.06174,5.93657c-7.16036,2.76511 -11.11082,5.80521 -16.01138,6.38908c-1.78536,0.21271 -3.69409,0.32137 -4.89596,-1.01422c-1.57001,-1.74464 -2.3391,-6.1312 -2.3391,-6.1312z" data-paper-data="{&quot;origPos&quot;:null}" fill="#000000" stroke-width="3"/></g><g><g fill="#000000"><path d="M279.09667,185.82233c0,0 0.91525,-14.41842 3.01797,-15.11266c6.30815,-2.08271 21.05843,-2.1974 30.87344,-2.89055c1.5173,-0.10716 3.77727,13.21441 3.77727,13.21441l3.91652,30.23341c0,0 1.29112,14.80905 -0.36411,14.92595c-14.73453,1.04057 -31.94457,3.1053 -38.57108,2.73558c-2.20882,-0.12323 -2.49285,-15.80012 -2.49285,-15.80012z" data-paper-data="{&quot;origPos&quot;:null}" stroke="#000000" stroke-width="3.5" stroke-linecap="round"/><path d="M298.37417,192.62809c-1.28189,0.09052 -1.45645,-2.37504 -1.45645,-2.37504c-0.36205,-5.11378 -0.84047,-11.87126 -1.20251,-16.98504c0,0 -0.17456,-2.46557 1.10733,-2.5561c1.28189,-0.09052 1.45645,2.37503 1.45645,2.37503c0.36205,5.11378 0.72409,10.22755 1.08614,15.34133l0.11636,1.64371c0,0 0.17456,2.46558 -1.10733,2.55611z" stroke="none" stroke-width="0.5" stroke-linecap="butt"/><path d="M310.72774,198.06456c-1.28189,0.09052 -1.50118,-3.00692 -1.50118,-3.00692c-0.45484,-6.42435 -1.05587,-14.91366 -1.51069,-21.33799c0,0 -0.2193,-3.09745 1.0626,-3.18798c1.28189,-0.09052 1.50118,3.00692 1.50118,3.00692c0.45484,6.42435 0.90966,12.84869 1.3645,19.27304l0.1462,2.06496c0,0 0.2193,3.09746 -1.0626,3.18799z" stroke="none" stroke-width="0.5" stroke-linecap="butt"/></g><g fill="none" stroke-width="3"><path d="M311.18253,172.63049c-0.91656,-1.28812 -0.09564,-2.56096 1.03257,-3.85397c1.12823,-1.29298 2.32024,-1.74766 3.0531,-0.8284c1.55384,1.94911 0.14423,3.02041 -0.73919,4.03286c-1.12823,1.293 -2.05204,2.46869 -3.34647,0.64953z" stroke="#b9b9b9" stroke-linecap="butt"/><path d="M309.72434,174.65473l2.39356,-2.67875" stroke="#b9b9b9" stroke-linecap="round"/><path d="M306.24886,175.52708c1.12823,-1.29298 2.32025,-1.74766 3.0531,-0.8284c1.55384,1.94911 0.14423,3.02041 -0.73919,4.03286c-1.12821,1.29299 -2.05203,2.46868 -3.34647,0.64952c-0.91656,-1.28812 -0.09566,-2.56097 1.03256,-3.85398z" stroke="#000000" stroke-linecap="butt"/><path d="M303.75809,181.40529l2.39355,-2.67877" stroke="#000000" stroke-linecap="round"/><path d="M298.14664,181.35105c0.28288,-1.64875 1.62166,-1.58927 3.16216,-1.24101c1.5405,0.34827 2.57009,1.24852 2.41651,2.50216c-0.32563,2.65806 -1.89329,1.9051 -3.09954,1.6324c-1.54049,-0.34826 -2.87862,-0.56509 -2.4791,-2.89355z" stroke="#000000" stroke-linecap="butt"/><path d="M299.14988,181.88359l-3.22597,-0.77646" stroke="#000000" stroke-linecap="round"/><path d="M290.69437,177.51847c0.79383,-1.3677 2.01498,-0.66987 3.32989,0.38831c1.31491,1.05818 1.97847,2.37421 1.43188,3.44372c-1.15894,2.26766 -2.36849,0.82731 -3.39812,-0.00126c-1.31491,-1.05819 -2.48473,-1.89923 -1.36365,-3.83076z" stroke="#000000" stroke-linecap="butt"/><path d="M288.71375,176.22749l2.73837,2.25895" stroke="#000000" stroke-linecap="round"/><path d="M283.81013,171.90367c0.79383,-1.36768 2.01497,-0.66987 3.32989,0.38831c1.31492,1.05818 1.97847,2.37421 1.43188,3.44372c-1.15894,2.26765 -2.36849,0.82731 -3.39812,-0.00126c-1.31491,-1.05818 -2.48471,-1.89922 -1.36363,-3.83076z" stroke="#000000" stroke-linecap="butt"/><path d="M284.56789,172.87161l-2.73838,-2.25895" stroke="#000000" stroke-linecap="round"/></g></g><path d="M305.97409,157.8805c0,0 -2.72083,0.44992 -6.06883,0.42912" fill="none" stroke="#000000" stroke-width="2.5" stroke-linecap="round"/><path d="M314.17082,174.0678c-12.04643,-0.99024 -23.7252,-1.98646 -28.40319,-3.42704c-4.27539,-1.31658 -5.33514,-4.18696 -5.33514,-4.18696c0,0 -1.5252,-2.58548 -1.46982,-4.11948c0.16616,-4.60202 1.25579,-17.70717 3.24061,-28.90964c0.06624,-0.37388 0.11701,-0.5816 0.20541,-0.95088c0.26518,-1.1078 1.48366,-5.39033 1.48366,-5.39033c0,0 3.32915,-1.35837 5.09816,-1.67005c5.30699,-0.93503 18.3262,1.76745 32.14275,3.46642c1.2523,0.154 3.24973,2.02765 3.24973,2.02765c0,0 1.24472,3.26647 1.01339,5.23646c-1.49553,12.73633 -3.19709,26.82268 -3.79733,30.02356c-0.20006,1.06696 -2.4168,5.06897 -2.4168,5.06897z" fill="#000000" stroke="#000000" stroke-width="2.5" stroke-linecap="round"/><path d="M279.55086,127.49199c-0.56407,-1.11549 0.55142,-1.67956 0.55142,-1.67956l1.37449,-0.64907c0.12123,-0.02591 0.24228,-0.05109 0.36321,-0.0755c-0.5073,-5.85069 1.22215,-12.70939 1.69622,-18.40817c0.12295,-1.4779 0.10335,-5.51313 0.92935,-6.71666c1.38317,-2.01536 3.03521,-1.2723 4.92433,-1.10997c3.21429,0.2762 6.39928,0.5894 9.6199,0.39205c7.98261,-0.47977 15.82224,-0.06219 23.80067,-0.05367c2.51765,0.0027 4.96694,0.12271 7.46089,0.55459c0.68239,0.11816 1.58402,-0.05611 2.02122,0.48102c1.54842,1.90226 0.6489,3.79042 0.16208,5.7177c-0.97105,3.8443 -2.88753,7.22029 -3.35516,11.20265c-0.37812,3.04429 -1.12235,6.13707 -1.77609,9.1321c-0.22561,1.03355 -0.0545,2.99849 -1.18012,3.69159c-2.30805,1.42119 -7.83107,-0.27319 -10.35319,-0.57685c-7.69046,-0.92595 -15.36826,-2.01109 -23.09975,-2.4974c-2.77215,-0.07943 -5.42217,-0.07419 -8.10982,0.27081c-0.05857,0.36891 -0.27681,0.82957 -0.97604,0.97271c-0.75864,0.15531 -1.14351,-0.25558 -1.32656,-0.59074c-0.09221,0.01891 -0.1845,0.03832 -0.27691,0.05819l-0.77055,0.43562c0,0 -1.11549,0.56407 -1.67956,-0.55143z" fill="#000000" stroke="none" stroke-width="0.5" stroke-linecap="butt"/><g><g stroke="#000000" stroke-width="3" stroke-linecap="round"><path d="M259.0317,206.06077l8.27841,-28.93924c0,0 1.65462,-5.47018 2.78141,-5.71457c3.38038,-0.73319 9.56469,1.40711 16.13234,2.28089c1.09167,0.14524 0.86861,6.06556 0.86861,6.06556c0,0 -0.762,9.29934 -1.24971,15.25138c-0.74275,9.06438 -1.90318,23.22636 -1.90318,23.22636c0,0 -0.35625,7.26622 -2.34378,6.84042c0,0 -9.67045,2.47713 -25.24759,-4.1204c-0.37157,-4.59265 2.68348,-14.89039 2.68348,-14.89039z" data-paper-data="{&quot;origPos&quot;:null}" fill="#582700"/><path d="M258.82292,208.15246l25.2896,4.59959l-0.56132,3.35539l-25.293,-4.34098z" data-paper-data="{&quot;origPos&quot;:null}" fill="none"/></g><path d="M259.61876,207.82266l10.29287,-35.97289l15.56182,2.80376l1.14389,0.88159l-2.21558,36.80093z" fill="#000000" stroke="#000000" stroke-width="1" stroke-linecap="round"/><path d="M258.53357,211.33015l0.39715,-2.29702l25.12804,4.34438l-0.39713,2.29702z" fill="#ffffff" stroke="none" stroke-width="0" stroke-linecap="butt"/></g><path d="M297.36144,147.45847c4.92781,-1.95979 8.93806,0.67266 10.03689,5.60678c1.26024,5.65885 -2.88127,8.36211 -2.88127,8.36211c0,0 -2.42725,-1.34147 -5.61598,-2.06206c-3.97049,-0.89725 -6.22669,-0.67361 -6.22669,-0.67361c0,0 -1.99805,-8.57455 4.68706,-11.23322z" fill="#000000" stroke="#000000" stroke-width="2" stroke-linecap="butt"/><path d="M323.05634,150.97819c5.57372,4.54892 1.0856,12.12332 1.0856,12.12332c0,0 -2.08403,-0.89286 -6.14038,-1.23331c-3.2577,-0.27342 -5.97629,0.27459 -5.97629,0.27459c0,0 -3.13484,-3.82523 -0.22855,-8.84163c2.53408,-4.37394 7.15103,-5.67613 11.2596,-2.32298z" data-paper-data="{&quot;index&quot;:null}" fill="#000000" stroke="#000000" stroke-width="2" stroke-linecap="butt"/><g data-paper-data="{&quot;index&quot;:null}" fill="#000000" stroke="#000000" stroke-width="1.25" stroke-linecap="butt"><path d="M290.30077,173.50432c-10.18048,-3.08202 -4.38003,-12.97172 -4.38003,-12.97172l15.19503,4.45367c0,0 -0.03661,11.78108 -10.815,8.51805z"/><path d="M289.96738,169.9639c2.55143,1.66444 4.1819,4.11665 3.70427,4.11102c-0.98699,-0.01162 -2.10483,-0.18733 -3.37088,-0.57061c-3.79444,-1.14872 -5.36883,-3.24315 -5.85098,-5.41874c-0.09366,-0.42266 3.17464,0.34988 5.51758,1.87832z"/><path d="M284.68186,164.07503c0.47206,-1.45712 1.23887,-3.54243 1.23887,-3.54243l13.35422,3.91413l-1.02512,3.71617c0,0 -13.58355,-4.03984 -13.56799,-4.08787z"/></g><path d="M266.24424,183.73843l0.20061,-0.03996c1.07962,1.86603 1.21579,3.61006 2.05874,5.54065c0.57933,1.32683 1.41565,1.82641 1.90491,3.27957c0.30378,0.90227 0.16457,2.01632 0.77129,2.74999c1.52647,1.84585 3.53159,1.16028 5.01229,3.5331c0.62269,0.99786 0.01192,2.43461 0.53579,3.48772c0.47906,0.963 3.63439,1.61629 4.47904,2.30646c3.2259,2.63594 3.63699,5.73351 3.43105,9.58748c-0.20855,3.90278 0.45356,9.30905 -3.69133,11.55169c-1.90354,1.02993 -4.4239,0.53248 -6.46215,0.42357c-4.32544,-0.23114 -9.28459,-0.72091 -13.51372,-1.7566c-1.80912,-0.44305 -4.99565,-1.63425 -5.97166,-3.3574c-0.57946,-1.02304 -0.34232,-3.27747 -0.2822,-4.45445c0.36888,-6.67518 2.36,-14.30353 4.68847,-20.56594c1.25125,-3.36523 2.71077,-6.09811 3.29773,-9.44781c-0.83449,-1.04449 0.09166,-2.15103 0.09166,-2.15103l0.15637,-0.03115c0.04733,-0.35497 0.3234,-1.64564 1.83163,-1.56504c0.8437,0.04508 1.2583,0.47575 1.46146,0.90916z" fill="#000000" stroke="none" stroke-width="0.5" stroke-linecap="butt"/><path d="M299.44784,258.32955c0.92856,0.12776 0.54995,3.10662 1.20645,3.77563c2.7161,2.76788 1.65839,1.39477 1.11004,3.70916c-0.31563,1.33217 0.68228,2.85327 0.12813,4.10516c-1.73556,3.92091 -6.53967,4.17756 -10.05184,3.74421l-1.83294,-1.08649c0,0 -0.01415,-0.01061 -0.03853,-0.03112c-3.16788,1.35269 -8.08616,-0.37246 -11.41147,-0.36888c-4.81052,0 -9.36594,-0.64811 -14.12406,-1.0044c-5.34433,-0.40019 -12.01696,0.92386 -17.11048,-1.40721c-1.28269,-0.58703 -2.16641,-1.85502 -3.43516,-2.47159c-1.11563,-0.54216 -2.56648,0.04787 -3.69052,-0.47663c-0.95024,-0.44339 -1.65825,-1.28391 -2.48737,-1.92587c0.15286,-1.17627 -0.15394,-2.51303 0.45858,-3.5288c0.69137,-1.14653 2.71896,-0.71233 3.65157,-1.67293c2.15861,-2.22343 1.84205,-4.1233 6.3035,-4.01132c2.33691,0.05866 4.75278,0.39648 7.18927,0.01594c1.28362,-0.20048 2.41399,-1.02233 3.69459,-1.24127c3.42955,-0.58635 7.04312,-0.73477 10.54895,-0.47954c0.01519,-0.35425 2.25908,-0.48867 2.22335,-0.82415l1,-0.80556c0,0 -1.55556,-0.89442 -0.38449,-1.22999c0.56342,-0.5226 0.65151,-0.88712 0.81673,-1.60157c0.18126,-0.78383 0.76539,-2.57132 1.27887,-3.19067c0.45886,-0.55347 5.26137,-1.85071 6.09403,-1.80761c0.48929,0.02533 1.82889,0.08851 2.63931,0.07983c1.329,-0.01424 1.36961,1.39235 2.69402,1.5035c2.02568,0.17001 2.3999,-1.20298 3.93714,-0.39439c2.81942,1.48304 6.49184,0.95201 8.09764,4.87848c0.3268,0.79908 0.05841,1.72565 0.08761,2.58847c-0.46868,1.67955 -1.28401,2.83409 -2.03156,4.10195c1.44139,-0.65381 2.57233,-0.62665 4.63863,-0.34236z" fill="#000000" stroke="none" stroke-width="0.5" stroke-linecap="butt"/></g></g></svg>