<svg version="1.1" xmlns="http://www.w3.org/2000/svg" xmlns:xlink="http://www.w3.org/1999/xlink" width="189.26654" height="221.55319" viewBox="0,0,189.26654,221.55319"><g transform="translate(-145.36673,-69.22341)"><g data-paper-data="{&quot;isPaintingLayer&quot;:true}" fill-rule="nonzero" stroke-linejoin="miter" stroke-miterlimit="10" stroke-dasharray="" stroke-dashoffset="0" style="mix-blend-mode: normal"><path d="M145.36673,290.7766v-221.55318h189.26654v221.55319z" fill="none" stroke="none" stroke-width="none" stroke-linecap="butt"/><g><g><g data-paper-data="{&quot;origRot&quot;:0}" stroke="#000000" stroke-width="3" stroke-linecap="round"><path d="M288.14259,205.32583c-0.1228,2.23683 -7.95283,0.51137 -7.95283,0.51137c0,0 -20.84615,-3.97546 -30.70026,-5.81063c-4.01877,-1.39175 -3.05264,-36.99737 0.75177,-40.69278c1.6959,-1.64729 10.66498,-3.24169 11.93849,-1.90927c2.42402,2.53616 6.11108,17.45481 6.11108,17.45481l-3.82244,0.0162l9.99268,0.93025c0,0 11.73342,0.04705 16.6115,1.45861c2.70542,0.78286 -2.93003,28.04143 -2.93003,28.04143z" data-paper-data="{&quot;origPos&quot;:null}" fill="#582700"/><path d="M281.84049,176.82825l-2.68619,27.34426" fill="none"/><path d="M275.4828,204.07477l2.42576,-27.36984" data-paper-data="{&quot;origPos&quot;:null}" fill="none"/></g><path d="M278.93663,204.72358l-2.55839,-0.23513l2.57229,-27.98711l2.55839,0.23513z" fill="#ffffff" stroke="none" stroke-width="0" stroke-linecap="butt"/><path d="M249.19121,200.12045l-2.16462,-9.9123l1.00603,-21.92274l2.09486,-7.47393l3.5401,-3.07675l6.85339,0.243l1.37069,0.04859l5.61728,15.75305l-2.74947,0.13124l-0.06479,1.82757l12.08336,1.11462l-1.66541,27.61772l-24.54262,-4.52994z" fill="#ffcb66" stroke="#000000" stroke-width="0.5" stroke-linecap="round"/></g><g fill="none" stroke="none" stroke-width="1" stroke-linecap="butt" font-family="sans-serif" font-weight="normal" font-size="12" text-anchor="start"/></g><g><g data-paper-data="{&quot;index&quot;:null}"><path d="M287.98685,176.02969c2.17562,0.50645 7.06897,-2.22712 6.59862,-0.20661c-0.2396,1.02918 -4.98072,19.74346 -5.84239,20.52139c-0.82997,0.74927 -1.84345,1.10764 -2.91087,0.85916c-0.72623,-0.16907 -1.7617,-0.78012 -2.32556,-1.48362c-1.12536,-1.40404 -1.2352,-21.12069 -0.92185,-22.46676c0.47037,-2.02052 3.22644,2.26998 5.40205,2.77644z" fill="#e99b00" stroke="#000000" stroke-width="1.5" stroke-linecap="butt"/><g stroke-linecap="butt"><path d="M289.56138,169.37757c3.94172,0.91758 6.64596,3.77129 6.04007,6.37395c-0.60586,2.60265 -4.2924,3.96869 -8.23412,3.05114c-3.94172,-0.91759 -6.64596,-3.7713 -6.04008,-6.37397c0.60586,-2.60265 4.29241,-3.96868 8.23412,-3.05111z" fill="#ffb727" stroke="#000000" stroke-width="1.5"/><path d="M284.65175,176.79316c0,0 -1.39987,-0.68956 -2.22348,-2.0618c-0.38313,-0.66031 -0.63125,-2.46497 -0.63125,-2.46497l2.87612,2.18148z" fill="#ffd683" stroke="none" stroke-width="0"/><path d="M287.64466,178.07521l-1.71212,-0.44765c0,0 -0.08925,-0.72197 -0.02602,-1.10357c0.05401,-0.32591 0.36634,-1.21606 0.36634,-1.21606l1.37066,0.60707z" fill="#ffd683" stroke="none" stroke-width="0"/></g><g><path d="M288.31624,175.19621c-5.4377,-1.26584 -10.08561,-6.30937 -8.81979,-11.74703c1.26584,-5.4377 6.01305,-8.39206 11.45072,-7.12623c5.4377,1.26584 9.0983,6.76497 7.83248,12.20263c-1.26584,5.4377 -5.02572,7.93646 -10.46338,6.67064z" fill="#e99b00" stroke="#000000" stroke-width="1.5" stroke-linecap="butt"/><path d="M288.95599,156.60017c0,0 1.02502,1.59415 2.26653,3.94511c1.2385,2.34525 1.95023,5.58715 1.39717,7.96302c-1.1075,4.75756 -2.92205,6.18984 -6.87291,5.27015c-1.92209,-0.44744 -3.46603,-1.9017 -4.29423,-3.63168c-1.16249,-2.42821 -1.82499,-5.53021 -1.19695,-8.22807c1.1075,-4.75756 8.70039,-5.31852 8.70039,-5.31852z" fill="#ffb727" stroke="none" stroke-width="0" stroke-linecap="butt"/><path d="M297.78493,168.65282c0,0 -3.65634,2.64558 -9.94479,0.94344c-6.23735,-1.68831 -8.05301,-6.04394 -8.05301,-6.04394" fill="none" stroke="#000000" stroke-width="0.8" stroke-linecap="round"/><path d="M295.1866,173.45624c0,0 -2.68248,1.3547 -8.22394,-0.84902c-3.84523,-1.52917 -7.04718,-4.47068 -7.04718,-4.47068" fill="none" stroke="#000000" stroke-width="0.75" stroke-linecap="round"/><path d="M298.07688,165.93125c0,0 -2.2665,1.45198 -8.18004,-0.51169c-6.14827,-2.04163 -8.26515,-5.87833 -8.26515,-5.87833" fill="none" stroke="#000000" stroke-width="0.8" stroke-linecap="round"/><path d="M284.27095,157.25222c0,0 4.16549,0.92426 7.93593,2.91602c2.86258,1.51215 6.10514,4.50839 6.10514,4.50839" fill="none" stroke="#000000" stroke-width="0.8" stroke-linecap="round"/><path d="M294.40487,158.47267c0,0 2.09319,2.99133 0.63246,8.2881c-1.56535,5.67609 -4.46663,8.18274 -4.46663,8.18274" fill="none" stroke="#000000" stroke-width="0.8" stroke-linecap="round"/><path d="M287.49996,174.68414c0,0 0.4845,-2.95489 0.98702,-4.66858c0.42311,-1.44282 1.74168,-4.06909 2.57874,-6.61985c0.95183,-2.90056 1.40389,-5.6582 1.40389,-5.6582" fill="none" stroke="#000000" stroke-width="0.8" stroke-linecap="round"/><path d="M285.04097,173.99785c0,0 -1.24187,-4.23786 0.28674,-10.05747c0.97393,-3.70786 4.77092,-7.26716 4.77092,-7.26716" fill="none" stroke="#000000" stroke-width="0.8" stroke-linecap="round"/><path d="M281.08674,170.68634c0,0 -0.70398,-3.17118 1.41685,-8.28736c1.47278,-3.55281 4.36232,-6.02283 4.36232,-6.02283" fill="none" stroke="#000000" stroke-width="0.8" stroke-linecap="round"/><path d="M281.41375,162.67852c-0.38772,-0.09026 -0.61762,-0.52608 -0.51346,-0.97347c0.10413,-0.44737 0.50288,-0.73687 0.89062,-0.64661c0.38772,0.09026 0.61763,0.52609 0.51347,0.97346c-0.10413,0.44737 -0.5029,0.73688 -0.89062,0.64662z" fill="#ffd683" stroke="none" stroke-width="0" stroke-linecap="butt"/><path d="M282.90077,159.83665c-0.22369,-0.05208 -0.3628,-0.27561 -0.31074,-0.49929c0.05207,-0.22368 0.27561,-0.3628 0.49929,-0.31074c0.22369,0.05208 0.36281,0.27562 0.31074,0.49929c-0.05207,0.22368 -0.27561,0.36281 -0.49929,0.31074z" fill="#ffd683" stroke="none" stroke-width="0" stroke-linecap="butt"/></g></g><path d="M283.57911,176.62642c-1.75236,9.71891 -2.74042,11.24897 -2.74042,11.24897c-0.28543,1.20562 -1.42802,0.8137 -1.42802,0.8137c0,0 -2.30874,-0.48944 -3.78644,-0.80271c-0.97033,-0.2057 -2.48633,-0.52708 -2.48633,-0.52708c0,0 -0.91916,-0.35892 -0.74922,-1.01378c1.02244,-3.9397 1.78933,-7.75854 2.4914,-9.68835c0.23402,-0.64327 1.33745,-1.1646 1.33745,-1.1646l4.7754,0.45968c0,0 1.96867,0.07506 2.58615,0.67416z" fill="#582700" stroke="#000000" stroke-width="3" stroke-linecap="round"/><path d="M294.72519,180.27448c-4.07523,20.00237 -6.01309,23.20627 -6.01309,23.20627c-0.62938,2.4865 -2.67345,1.77331 -2.67345,1.77331c0,0 -4.15779,-0.82268 -6.81896,-1.3492c-1.74745,-0.34575 -4.47762,-0.88593 -4.47762,-0.88593c0,0 -1.64036,-0.66288 -1.27137,-2.01462c2.22,-8.13227 3.96391,-15.99787 5.41768,-19.99688c0.48459,-1.333 2.54057,-2.48371 2.54057,-2.48371l8.65029,0.57184c0,0 3.57653,0.00178 4.64592,1.17891z" fill="#582700" stroke="#000000" stroke-width="3" stroke-linecap="round"/></g><g data-paper-data="{&quot;origRot&quot;:0}" stroke="#000000" stroke-linecap="round"><path d="M242.17824,218.23266c0,0 -0.78361,-4.67505 0.80161,-4.86982c4.67779,-0.57471 8.96457,-2.78606 13.55509,-1.7549c1.90622,0.42819 3.23747,4.46306 3.23747,4.46306l9.20398,31.45112c0,0 0.99484,3.23575 1.49762,5.11408c0.53755,2.00825 -0.08035,5.21858 -2.21995,5.59927c-7.85591,1.39786 -12.47926,3.64675 -17.60605,3.32673c-1.86777,-0.11659 -3.84194,-0.35707 -4.81699,-1.87836c-1.2737,-1.98719 -1.22335,-6.40657 -1.22335,-6.40657z" data-paper-data="{&quot;origPos&quot;:null}" fill="#ff0000" stroke-width="3"/><path d="M271.0229,255.90078c0,0 -5.65949,3.45631 -10.86577,4.2267c-3.99445,0.59106 -12.80899,0.87352 -12.80899,0.87352c0,0 -1.79923,-2.33604 -2.14488,-3.88186c-0.36413,-1.62843 0.32613,-4.25176 0.32613,-4.25176l23.72979,-4.30713z" data-paper-data="{&quot;origPos&quot;:null}" fill="#976e57" stroke-width="2"/><path d="M242.31257,218.53299c0,0 -0.78361,-4.67505 0.80162,-4.86981c4.67778,-0.57471 8.96457,-2.78606 13.55511,-1.75488c1.90622,0.42819 3.23746,4.46305 3.23746,4.46305l9.20398,31.45112c0,0 0.99486,3.23576 1.49764,5.11408c0.53755,2.00825 -0.08036,5.21857 -2.21995,5.59927c-7.85591,1.39786 -12.47926,3.64676 -17.60605,3.32674c-1.86777,-0.11659 -3.84194,-0.35709 -4.81698,-1.87836c-1.2737,-1.98719 -1.22336,-6.40657 -1.22336,-6.40657z" data-paper-data="{&quot;origPos&quot;:null}" fill="#474747" stroke-width="3"/></g><g data-paper-data="{&quot;index&quot;:null,&quot;origRot&quot;:0}" stroke="#000000" stroke-linecap="round"><path d="M239.30115,252.93067c0,0 0.25916,4.41276 -0.9193,6.45251c-0.90217,1.56153 -2.86296,1.88634 -4.72333,2.08286c-5.10646,0.53939 -9.83143,-1.50914 -17.74545,-2.56894c-2.15542,-0.28865 -2.92444,-3.46923 -2.48237,-5.49849c0.41348,-1.89795 1.25437,-5.17306 1.25437,-5.17306l7.70806,-31.81365c0,0 1.13917,-4.08782 3.02321,-4.59725c4.53714,-1.22682 8.92409,0.79857 13.62429,1.17227c1.59283,0.12664 1.03099,4.83052 1.03099,4.83052z" data-paper-data="{&quot;origPos&quot;:null}" fill="#ff0000" stroke-width="3"/><path d="M214.45169,249.27481l23.90931,3.28592c0,0 0.81356,2.59111 0.52677,4.23348c-0.27223,1.55907 -1.95923,3.96983 -1.95923,3.96983c0,0 -8.81898,0.09553 -12.83729,-0.32376c-5.2374,-0.54651 -11.05453,-3.7568 -11.05453,-3.7568z" data-paper-data="{&quot;origPos&quot;:null}" fill="#976e57" stroke-width="2.5"/><path d="M239.18116,253.23646c0,0 0.25916,4.41276 -0.9193,6.45251c-0.90217,1.56153 -2.86296,1.88635 -4.72333,2.08287c-5.10646,0.53939 -9.83142,-1.50913 -17.74545,-2.56894c-2.15542,-0.28865 -2.92444,-3.46923 -2.48237,-5.49848c0.41348,-1.89795 1.25437,-5.17306 1.25437,-5.17306l7.70806,-31.81365c0,0 1.13916,-4.08782 3.02321,-4.59725c4.53714,-1.22682 8.92411,0.79857 13.6243,1.17227c1.59283,0.12664 1.03098,4.83052 1.03098,4.83052c0,0 -0.19482,8.87865 -0.31951,14.56146c-0.176,8.02059 -0.45097,20.55176 -0.45097,20.55176z" data-paper-data="{&quot;origPos&quot;:null}" fill="#474747" stroke-width="1.5"/></g><g><g><path d="M221.48292,170.81217c0,0 2.01045,-14.20981 4.24504,-14.75007c6.70372,-1.6208 22.02934,-0.7031 32.27255,-0.7031c1.5835,0 2.95092,13.34594 2.95092,13.34594l1.84432,30.20397c0,0 0.25198,14.75077 -1.47545,14.75077c-15.37735,0 -33.40062,0.84081 -40.25464,0.01153c-2.28466,-0.27642 -1.42705,-15.81592 -1.42705,-15.81592z" data-paper-data="{&quot;origPos&quot;:null}" fill="#ffcb66" stroke="#000000" stroke-width="3.5" stroke-linecap="round"/><path d="M241.00098,178.8974c-1.33781,0 -1.33781,-2.45304 -1.33781,-2.45304c0,-5.0878 0,-11.81095 0,-16.89874c0,0 0,-2.45304 1.33781,-2.45304c1.33781,0 1.33781,2.45304 1.33781,2.45304c0,5.0878 0,10.17559 0,15.26338v1.63536c0,0 0,2.45304 -1.33781,2.45304z" fill="#ffffff" stroke="none" stroke-width="0.5" stroke-linecap="butt"/><path d="M253.42966,185.14302c-1.33781,0 -1.33781,-3.08171 -1.33781,-3.08171c0,-6.3917 0,-14.83788 0,-21.22958c0,0 0,-3.08171 1.33781,-3.08171c1.33781,0 1.33781,3.08171 1.33781,3.08171c0,6.3917 0,12.78341 0,19.17512v2.05447c0,0 0,3.08171 -1.33781,3.08171z" fill="#ffffff" stroke="none" stroke-width="0.5" stroke-linecap="butt"/></g><g stroke="#000000" stroke-width="0.5" stroke-linecap="butt"><path d="M256.35883,194.93068c0,6.66413 -4.77985,12.06648 -10.6761,12.06648c-5.89625,0 -10.6761,-5.40235 -10.6761,-12.06648c0,-6.66413 4.77985,-12.06648 10.6761,-12.06648c5.89625,0 10.6761,5.40235 10.6761,12.06648z" fill="#ffa924"/><path d="M248.85255,183.79926c0.00044,0.01105 0.00066,0.02233 0.00066,0.03382c0,0.61607 -0.64704,0.61607 -0.64704,0.61607h-0.1294c-0.47275,0 -2.62787,0.02751 -2.95089,-0.10592c-0.26965,-0.1114 -0.211,-0.53557 -0.40502,-0.7458c-0.1864,-0.20197 -0.45161,-0.32686 -0.70113,-0.45275c-0.3968,-0.2002 -0.93872,-0.19698 -1.23064,-0.52188c-0.26966,-0.30013 -0.30172,-0.76111 -0.27632,-1.15534c0.11927,-1.85147 1.31251,-1.87043 2.85386,-1.70348c0.46489,0.0975 0.94462,0.14483 1.39469,0.29249c0.198,0.06496 0.31616,0.29002 0.52002,0.33569c0.1449,0.03247 0.28122,-0.09645 0.42736,-0.12341c0.00624,-0.00115 1.81154,-0.24666 1.82944,-0.24908c1.2205,-0.16498 2.52573,-0.21313 3.75746,-0.12807c0.78486,0.0542 2.55826,0.23932 3.01091,0.98812c0.64463,1.06639 -1.22899,1.78797 -1.69794,1.9705c-1.38781,0.54019 -2.57241,0.20441 -3.98583,0.36118c-0.48147,0.0534 -1.25528,0.37487 -1.77019,0.58787z" fill="#1cc735"/></g></g><path d="M258.71678,157.93062c-12.08206,-0.34786 -23.79728,-0.72128 -28.54531,-1.91091c-4.33938,-1.08724 -5.55037,-3.89715 -5.55037,-3.89715c0,0 -1.66062,-2.50066 -1.68694,-4.03545c-0.07895,-4.60435 0.31185,-17.7489 1.69779,-29.04111c0.04625,-0.37687 0.0859,-0.58701 0.15453,-0.96046c0.20585,-1.12035 1.19475,-5.46163 1.19475,-5.46163c0,0 3.25217,-1.53359 5.00208,-1.93895c5.24972,-1.21608 18.39429,0.78984 32.28167,1.75124c1.25871,0.08714 3.353,1.85187 3.353,1.85187c0,0 1.41676,3.19561 1.29059,5.17512c-0.81573,12.79786 -1.76537,26.9548 -2.19444,30.18308c-0.14302,1.0761 -2.14366,5.19039 -2.14366,5.19039z" fill="#582600" stroke="#000000" stroke-width="2.5" stroke-linecap="round"/><path d="M260.28447,137.51896c0.21913,-3.43798 0.80967,-6.19871 1.319,-6.16624c0.50933,0.03245 0.74458,2.84582 0.52546,6.28379c-0.21913,3.43798 -0.80967,6.19872 -1.319,6.16625c-0.50933,-0.03245 -0.74458,-2.84583 -0.52546,-6.28381z" fill="none" stroke="#000000" stroke-width="2.5" stroke-linecap="butt"/><path d="M253.74936,137.80131c0.22319,-3.50166 0.71381,-6.32058 1.09579,-6.29622c0.38199,0.02435 0.51075,2.88275 0.28755,6.38439c-0.22319,3.50166 -0.71379,6.32056 -1.09578,6.29622c-0.38199,-0.02435 -0.51075,-2.88273 -0.28756,-6.38438z" fill="none" stroke="#000000" stroke-width="2.5" stroke-linecap="butt"/><path d="M224.77179,112.11988l0.86505,-12.97119l43.70292,2.91454l-0.86505,12.97119z" fill="#000000" stroke="none" stroke-width="0" stroke-linecap="butt"/><path d="M257.79359,130.3036c-1.92885,1.12856 -7.49643,3.89789 -8.93396,1.80908c-1.92647,-2.7993 6.16718,-7.2462 7.57433,-6.87735c0.25925,-0.06985 0.53426,-0.09881 0.81713,-0.07995c1.37765,0.09188 2.41998,1.28316 2.3281,2.66081c0.49798,0.68224 -1.25436,2.17658 -1.78561,2.48741z" fill="#582600" stroke="none" stroke-width="0.5" stroke-linecap="butt"/><g data-paper-data="{&quot;index&quot;:null}"><g data-paper-data="{&quot;origRot&quot;:0,&quot;index&quot;:null}" stroke="#000000" stroke-width="3" stroke-linecap="round"><path d="M225.95795,209.83746c0,0 -25.19106,-1.80717 -25.20687,-4.36259c-0.02853,-4.60758 2.8263,-14.86395 2.8263,-14.86395l8.55584,-28.85843c0,0 1.70706,-5.45404 2.83615,-5.68761c3.38724,-0.70071 9.55074,1.4989 16.10969,2.43567c1.09021,0.15572 0.81033,6.07362 0.81033,6.07362c0,0 -0.85125,9.2916 -1.39607,15.2387c-0.82972,9.05684 -2.12605,23.20702 -2.12605,23.20702c0,0 -0.42598,7.26246 -2.40933,6.8176z" data-paper-data="{&quot;origPos&quot;:null}" fill="#582600"/><path d="M227.24071,202.57649l-24.53798,-4.40343" fill="none"/><path d="M228.06154,199.34671l-24.49603,-4.63713" data-paper-data="{&quot;origPos&quot;:null}" fill="none"/></g><path d="M203.4251,193.99032l10.84762,-36.56362l1.38095,-0.44775l15.55991,2.8411l-2.99159,38.64797z" fill="#ffcb66" stroke="#000000" stroke-width="1" stroke-linecap="round"/><path d="M202.70287,198.00633l0.41935,-2.29307l25.08483,4.58732l-0.41935,2.29307z" fill="#ffffff" stroke="none" stroke-width="0" stroke-linecap="butt"/></g><path d="M231.55489,149.30028c-0.57573,-0.48066 -0.09506,-1.05638 -0.09506,-1.05638l0.45335,-0.47493c1.7936,-1.04774 3.19541,-1.37574 5.27932,-1.17378c0,0 0.74634,0.074 0.67234,0.82034c-0.074,0.74634 -0.82034,0.67235 -0.82034,0.67235c-1.76824,-0.17977 -2.85526,0.07289 -4.37003,0.97354l-0.0632,0.1438c0,0 -0.48067,0.57572 -1.05639,0.09506z" fill="#000000" stroke="none" stroke-width="0.5" stroke-linecap="butt"/></g></g></svg>