<svg version="1.1" xmlns="http://www.w3.org/2000/svg" xmlns:xlink="http://www.w3.org/1999/xlink" width="210" height="221" viewBox="0,0,210,221"><g transform="translate(-140,-90)"><g data-paper-data="{&quot;isPaintingLayer&quot;:true}" fill-rule="nonzero" stroke-linejoin="miter" stroke-miterlimit="10" stroke-dasharray="" stroke-dashoffset="0" style="mix-blend-mode: normal"><path d="M140,311v-221h210v221z" fill="none" stroke="none" stroke-width="0" stroke-linecap="butt"/><g data-paper-data="{&quot;index&quot;:null}"><g stroke="#000000" stroke-width="3" stroke-linecap="round"><path d="M226.60264,242.0897c0,0 -2.60025,10.43806 -5.29792,14.22175c-17.2179,-2.1254 -24.51765,-9.1273 -24.51765,-9.1273c-1.98238,-0.63082 1.44837,-7.09165 1.44837,-7.09165c0,0 6.27318,-12.82654 10.28831,-21.03617c2.63649,-5.39078 6.75571,-13.81321 6.75571,-13.81321c0,0 2.85486,-5.23034 3.89801,-4.80723c6.27564,2.5455 12.86436,3.80342 15.48449,6.13625c0.87338,0.77761 -0.4797,6.3383 -0.4797,6.3383l-7.57963,29.17924z" data-paper-data="{&quot;origPos&quot;:null}" fill="#582700"/><path d="M224.34668,247.41116l-24.67168,-8.95942l1.2323,-3.18292l24.80202,8.73413z" data-paper-data="{&quot;origPos&quot;:null}" fill="none"/></g><path d="M200.86522,234.76378l17.01074,-32.92864l1.46914,-0.18723l15.24809,5.39747l-9.41971,36.27243z" fill="#66c8ff" stroke="#000000" stroke-width="1" stroke-linecap="round"/><path d="M199.80027,238.02197l0.83219,-2.18542l24.52712,8.87357l-0.83219,2.18542z" fill="#ffffff" stroke="none" stroke-width="0" stroke-linecap="butt"/></g><g data-paper-data="{&quot;index&quot;:null}" stroke="#000000" stroke-linecap="round"><path d="M261.38598,194.40156c0,0 16.65253,-1.59725 16.6337,5.02736c-0.05106,17.98052 -29.01226,12.06568 -29.01226,12.06568z" data-paper-data="{&quot;origPos&quot;:null}" fill="#66c8ff" stroke-width="2"/><path d="M260.61235,195.90979c0,0 12.08669,-0.56333 12.7654,1.38252c0.21405,0.61371 -16.11793,2.51368 -16.11793,2.51368z" data-paper-data="{&quot;origPos&quot;:null}" fill="#0a0a0a" stroke-width="1"/></g><g><path d="M263.89352,243.77864c0,0 0.84951,15.75777 -1.41355,16.03807c-6.78921,0.84095 -24.64213,-0.01169 -39.87412,-0.01169c-1.71111,0 -1.46151,-14.95796 -1.46151,-14.95796l1.82689,-30.62821c0,0 1.35449,-13.5334 2.92303,-13.5334c10.14639,0 25.32714,-0.93059 31.96748,0.71298c2.21345,0.54786 4.2049,14.95725 4.2049,14.95725z" data-paper-data="{&quot;origPos&quot;:null}" fill="#66c8ff" stroke="#000000" stroke-width="3.5" stroke-linecap="round"/><path d="M231.20914,224.22117c-1.32516,0 -1.32517,-2.4875 -1.32517,-2.4875c0,-5.15926 0,-11.97684 0,-17.1361c0,0 0.00001,-2.4875 1.32517,-2.4875c1.32516,0 1.32516,2.4875 1.32516,2.4875c0,5.15926 0,10.31851 0,15.47777v1.65833c0,0 0,2.4875 -1.32516,2.4875z" fill="#ffffff" stroke="none" stroke-width="0.5" stroke-linecap="butt"/><path d="M243.52033,230.5545c-1.32516,0 -1.32517,-3.125 -1.32517,-3.125c0,-6.48148 0,-15.04629 0,-21.52778c0,0 0.00001,-3.125 1.32517,-3.125c1.32516,0 1.32516,3.125 1.32516,3.125c0,6.48148 0,12.96296 0,19.44445v2.08333c0,0 0,3.125 -1.32516,3.125z" fill="#ffffff" stroke="none" stroke-width="0.5" stroke-linecap="butt"/></g><g fill="none" stroke="#b9b9b9" stroke-width="3"><path d="M253.85272,206.21998c-0.84899,-1.35809 0.08812,-2.57767 1.34278,-3.7957c1.25467,-1.21801 2.51391,-1.58994 3.2008,-0.61516c1.45636,2.06682 -0.07159,3.04234 -1.05404,3.99608c-1.25468,1.21803 -2.29055,2.33277 -3.48954,0.41479z" stroke-linecap="butt"/><path d="M254.86252,205.62924l-2.65713,2.51944" stroke-linecap="round"/><path d="M248.56691,208.77801c1.25467,-1.21801 2.51391,-1.58994 3.2008,-0.61516c1.45636,2.06682 -0.07159,3.04234 -1.05404,3.99608c-1.25467,1.21802 -2.29054,2.33277 -3.48953,0.41479c-0.84899,-1.35809 0.08811,-2.57767 1.34277,-3.79571z" stroke-linecap="butt"/><path d="M248.23391,211.98296l-2.65713,2.51946" stroke-linecap="round"/><path d="M239.8087,214.05014c0.41105,-1.63508 1.78379,-1.48046 3.34301,-1.02164c1.55922,0.45883 2.55272,1.43557 2.30344,2.68318c-0.52852,2.64527 -2.08621,1.77826 -3.30712,1.41899c-1.55922,-0.45882 -2.91986,-0.77137 -2.33933,-3.08052z" stroke-linecap="butt"/><path d="M237.54014,213.6477l3.26175,1.00816" stroke-linecap="round"/><path d="M232.42227,209.67439c0.91616,-1.31672 2.12141,-0.52961 3.3969,0.62589c1.2755,1.1555 1.86219,2.52367 1.22207,3.55857c-1.35725,2.19428 -2.49652,0.66261 -3.49529,-0.24218c-1.27549,-1.15551 -2.41751,-2.08274 -1.12368,-3.94227z" stroke-linecap="butt"/><path d="M230.47897,208.23799l2.65223,2.46183" stroke-linecap="round"/><path d="M225.74992,203.54975c0.91616,-1.3167 2.12142,-0.52961 3.3969,0.62589c1.2755,1.1555 1.86219,2.52367 1.22207,3.55857c-1.35725,2.19427 -2.49652,0.66261 -3.49528,-0.24218c-1.27549,-1.1555 -2.41751,-2.08273 -1.12368,-3.94227z" stroke-linecap="butt"/><path d="M223.80662,202.11336l2.65225,2.46183" stroke-linecap="round"/></g><path d="M278.8981,253.91771c0,0 4.47574,-1.02642 6.76879,-0.26656c1.75542,0.58168 2.42675,2.38846 2.9493,4.12242c1.43428,4.7595 0.15159,9.61376 0.43241,17.32516c0.07647,2.10025 -3.04897,3.39358 -5.2041,3.33199c-2.01568,-0.05762 -5.51596,-0.27815 -5.51596,-0.27815l-33.92131,-1.70473c0,0 -4.3843,-0.36046 -5.2315,-2.06162c-2.04018,-4.09672 -0.72283,-8.62555 -1.15158,-13.16021c-0.1453,-1.53674 4.77043,-1.83404 4.77043,-1.83404c0,0 9.12906,-1.38422 14.97214,-2.27018c8.24681,-1.25044 21.1314,-3.20407 21.1314,-3.20407z" data-paper-data="{&quot;index&quot;:null}" fill="#4b4b4b" stroke="#000000" stroke-width="3" stroke-linecap="round"/><path d="M239.11737,265.47173c0,0 2.09122,3.99136 1.88169,6.34323c-0.16037,1.80045 -1.80011,2.86727 -3.40282,3.77589c-4.39925,2.49399 -9.54161,2.43889 -17.15713,4.54589c-2.07414,0.57384 -4.10887,-2.07569 -4.56208,-4.1303c-0.42386,-1.92166 -1.0399,-5.28744 -1.0399,-5.28744l-6.40077,-32.51463c0,0 -0.68769,-4.23595 0.80482,-5.44402c3.59428,-2.90924 8.42071,-2.74364 12.83605,-4.23217c1.4963,-0.50445 2.96619,4.07747 2.96619,4.07747c0,0 3.55871,8.31044 5.83648,13.62958c3.21479,7.50731 8.23747,19.23654 8.23747,19.23654z" data-paper-data="{&quot;index&quot;:null}" fill="#4b4b4b" stroke="#000000" stroke-width="3" stroke-linecap="round"/><path d="M220.07641,201.6562c0,0 -2.01009,-4.13415 -2.14574,-5.21163c-0.40697,-3.23243 -1.23553,-17.39816 -1.94071,-30.20356c-0.10908,-1.98069 1.37723,-5.16192 1.37723,-5.16192c0,0 2.16664,-1.74364 3.45884,-1.81815c14.25669,-0.82208 27.76209,-2.69609 33.13517,-1.42743c1.79103,0.42288 5.11159,1.98901 5.11159,1.98901c0,0 0.9698,4.35098 1.16949,5.47334c0.06655,0.37412 0.10506,0.58464 0.14864,0.96196c1.30562,11.30555 1.57132,24.45338 1.44294,29.05669c-0.04279,1.53444 -1.77211,4.01833 -1.77211,4.01833c0,0 -1.27124,2.79761 -5.73411,3.84129c-4.88315,1.14196 -16.9054,1.39787 -29.30374,1.62455z" fill="#582700" stroke="#000000" stroke-width="2.5" stroke-linecap="round"/><path d="M261.4898,160.29467l-0.76069,-0.48348c-0.09332,-0.02568 -0.18656,-0.05086 -0.27974,-0.07558c-0.20916,0.32292 -0.62987,0.70866 -1.39657,0.50571c-0.70665,-0.18706 -0.90023,-0.66059 -0.93627,-1.03248c-2.72944,-0.5142 -5.4424,-0.68696 -8.28591,-0.78295c-7.94765,-0.00345 -15.87919,0.59413 -23.81336,1.03204c-2.60204,0.14361 -8.36686,1.48542 -10.63784,-0.07883c-1.10755,-0.76287 -0.80491,-2.71306 -0.96887,-3.75881c-0.4751,-3.03037 -1.0365,-6.16401 -1.2262,-9.22611c-0.22049,-4.00396 -1.96379,-7.49434 -2.70869,-11.39235c-0.37345,-1.9542 -1.17198,-3.89545 0.53679,-5.69602c0.48248,-0.5084 1.39432,-0.27747 2.10068,-0.35227c2.58151,-0.27336 5.09708,-0.2383 7.67503,-0.08181c8.1695,0.49588 16.22342,0.57478 24.36553,1.55824c3.28472,0.40055 6.5661,0.28935 9.87506,0.2169c1.94474,-0.04257 3.68441,-0.6797 4.96991,1.41907c0.76767,1.25334 0.48588,5.27926 0.51591,6.76199c0.11579,5.71735 1.44169,12.67166 0.54279,18.47858c0.12223,0.03201 0.24455,0.06477 0.36699,0.09829l1.36523,0.73467c0,0 1.10554,0.63347 0.45565,1.71107c-0.6499,1.0776 -1.75544,0.44413 -1.75544,0.44413z" data-paper-data="{&quot;index&quot;:null}" fill="#000000" stroke="none" stroke-width="0.5" stroke-linecap="butt"/><path d="M233.23623,176.46464c0.55872,-0.0513 1.29959,2.88711 1.65482,6.56309c0.35523,3.67597 0.19028,6.69754 -0.36844,6.74882c-0.55872,0.0513 -1.29959,-2.8871 -1.65483,-6.56308c-0.35523,-3.67597 -0.19029,-6.69756 0.36844,-6.74884z" data-paper-data="{&quot;index&quot;:null}" fill="none" stroke="#580000" stroke-width="2.5" stroke-linecap="butt"/><path d="M229.17216,174.62325c0.55843,-1.12526 1.71288,-0.58095 1.71288,-0.58095l0.24623,0.12031c0.43598,-0.0563 0.81956,0.13433 0.81956,0.13433c0.9206,0.45759 1.83414,0.92877 2.74276,1.40858l0.04565,0.07008l0.02003,-0.02745l1.06103,0.7355c0.31149,0.21203 0.52365,0.55627 0.54679,0.9547c0.04004,0.68926 -0.50074,1.27964 -1.20786,1.31867c-0.17242,0.00952 -0.3388,-0.01462 -0.49244,-0.06657l-1.33259,-0.41695l0.07128,-0.21643c-0.90246,-0.14922 -1.60077,-0.5451 -2.87121,-1.4225l-0.76605,-0.34172c0,0 -1.15444,-0.54431 -0.59602,-1.66958z" data-paper-data="{&quot;index&quot;:null}" fill="#582700" stroke="none" stroke-width="0.5" stroke-linecap="butt"/><path d="M242.97281,176.02742c0.55873,-0.0513 1.29958,2.88713 1.65482,6.5631c0.35524,3.67597 0.19028,6.69754 -0.36845,6.74882c-0.55873,0.0513 -1.29959,-2.8871 -1.65483,-6.56308c-0.35524,-3.67597 -0.19028,-6.69755 0.36844,-6.74884z" data-paper-data="{&quot;index&quot;:null}" fill="none" stroke="#580000" stroke-width="2.5" stroke-linecap="butt"/><path d="M244.80161,173.24563c0,0 1.08402,-0.66785 1.76921,0.38877c0.68517,1.05662 -0.39885,1.72449 -0.39885,1.72449l-0.72159,0.42383c-1.16069,1.01159 -1.8087,1.48177 -2.68812,1.72933l0.09588,0.2072l-1.27579,0.56091c-0.14664,0.06851 -0.30915,0.11081 -0.48158,0.12033c-0.70713,0.03903 -1.31282,-0.48808 -1.35287,-1.17733c-0.02315,-0.39842 0.14779,-0.76381 0.43274,-1.00876l0.96908,-0.84755l0.02307,0.02507l0.03725,-0.07465c0.84725,-0.57672 1.70038,-1.1454 2.56209,-1.70136c0,0 0.35907,-0.23162 0.79876,-0.22365l0.23071,-0.14664z" data-paper-data="{&quot;index&quot;:null}" fill="#582700" stroke="none" stroke-width="0.5" stroke-linecap="butt"/><g data-paper-data="{&quot;index&quot;:null}" stroke="#000000" stroke-width="1.25" stroke-linecap="butt"><g data-paper-data="{&quot;index&quot;:null}" fill="#000000"><path d="M246.60256,196.87519c-10.77768,0.6868 -7.44798,-4.02643 -7.44798,-4.02643l14.3803,-0.86684c0,0 4.53457,4.0572 -6.93233,4.89326z"/></g><g data-paper-data="{&quot;index&quot;:null}" fill="#ffffff"><path d="M246.60257,196.8752c-2.20458,0.14049 -3.8189,0.05502 -4.99219,-0.16981c-0.02102,-0.00403 0.7172,-0.97891 0.66871,-1.86761c-0.05919,-1.08505 -0.90413,-2.12286 -0.90079,-2.12306c2.42784,-0.14635 12.15656,-0.7328 12.15656,-0.7328c0,0 4.53457,4.0572 -6.93233,4.89326z"/></g></g><g><g><path d="M246.71429,206.45716c-1.76814,-2.68894 12.70835,-3.36973 14.86888,-4.26364c2.34818,-0.97157 -2.36868,19.29822 -2.36868,19.29822l-0.84927,3.42496l5.19426,-22.75767c0,0 1.38731,-7.94789 3.57317,-7.21672c0,0 11.2521,-1.44757 27.94151,7.8703c-0.20326,5.10236 -5.04809,16.02919 -5.04809,16.02919c0,0 -9.60464,24.74788 -14.30528,25.72113c-1.08849,0.22536 -14.41748,-0.07274 -17.38497,-3.0192c-9.84745,-9.77769 -11.62154,-35.08656 -11.62154,-35.08656z" fill="#582700" stroke="#000000" stroke-width="2.5" stroke-linecap="round"/><path d="M260.27847,219.99542c-0.1424,0.48377 -0.2919,0.9664 -0.44006,1.45067c-0.0327,0.10688 -0.52378,1.28078 -0.51738,1.8793c6.70276,2.06852 13.65955,3.09794 20.28016,5.52091c0.59882,0.175 1.90045,0.42175 3.11385,0.82101c0.3869,0.02059 0.69482,-0.00894 0.8255,-0.12805c1.11123,-1.01278 1.61987,-2.83265 2.52,-4.04571c-0.39061,0.00483 -1.52052,0.00324 -1.97951,-0.08187c-1.36307,-0.25274 -2.71107,-0.49855 -4.08067,-0.71065c-4.801,-0.74349 -9.91437,-2.07609 -14.56697,-3.36084c-1.70711,-0.27733 -3.49376,-0.71924 -5.15493,-1.34478zM260.67285,218.55015c1.63256,0.63159 3.41488,1.06354 5.09667,1.33675c5.25522,1.47672 10.84933,2.66142 16.26534,3.59297c2.23158,0.38382 5.75841,0.1423 5.39052,2.68589c-0.94203,1.30218 -1.57775,3.28549 -2.79328,4.40167c0.37939,0.28168 0.63927,0.60604 0.70221,0.98097c0.0886,0.52778 -1.2017,2.27776 -1.47212,2.80512c-1.61331,3.14624 -2.95101,7.21692 -6.71667,8.40669c-5.27368,3.42693 -14.47556,2.09836 -19.78065,-0.57628c-2.99021,-3.27093 -3.88162,-6.56037 -4.86348,-10.72989c-0.70893,-3.01052 -1.94435,-5.7178 -2.29927,-8.84652c-1.10603,-4.28089 -2.07389,-8.58268 -3.17369,-12.86354c-0.50476,-1.96475 -1.68105,-3.68958 0.04799,-5.20488c3.60498,-0.66327 7.24966,-1.33214 10.88478,-1.91681c1.13314,-0.18225 3.44615,-0.47796 4.46073,0.21643c1.40998,0.96501 0.74517,2.71132 0.36068,4.02565c-0.43209,2.9911 -1.06795,6.24542 -1.94091,9.40059c0.21863,0.25241 0.16689,0.60535 0.16689,0.60535c-0.08383,0.56762 -0.19983,1.12622 -0.33572,1.67982zM280.78045,230.78657c-4.10775,-0.53302 -7.82298,-2.21484 -11.85694,-2.85708c-2.38506,-0.33197 -6.67766,-0.58469 -9.25249,-2.10472c-0.15714,-0.02056 -0.27019,-0.07566 -0.27019,-0.07566l-0.69949,-0.34447c-0.73602,-0.21402 -1.39855,-0.66739 -1.9651,-1.17291c0.45696,-5.93351 3.66266,-11.69131 4.55156,-17.67805c0.19374,-0.65965 0.5313,-1.58229 0.51734,-2.26399c-0.00859,-0.41927 -2.58098,-0.33964 -2.89108,-0.31444c-3.77543,0.30685 -7.45651,1.4726 -11.21449,1.92418c-0.36613,0.12892 0.65946,2.88897 0.81219,3.48545c1.10442,4.31295 2.09495,8.64284 3.19466,12.95914c0.3564,3.11174 1.57341,5.78799 2.28595,8.78242c0.90692,3.81129 1.64823,6.84582 4.30693,9.8786c4.96677,2.29783 13.30409,3.5819 18.1747,0.41691c3.65826,-1.21629 5.77808,-6.54384 7.34998,-9.64497c0.01667,-0.03288 -1.62824,-0.55764 -2.98042,-0.98175c-0.02139,-0.00306 -0.04243,-0.00595 -0.06313,-0.00864z" fill="#000000" stroke="none" stroke-width="0.5" stroke-linecap="butt"/><path d="M265.38772,221.3182c4.6526,1.28475 9.8626,2.6384 14.66358,3.3819c1.3696,0.2121 2.71753,0.46141 4.08061,0.71417c0.45898,0.08511 1.5889,0.08663 1.97951,0.0818c-0.90014,1.21307 -1.41311,3.05061 -2.52433,4.0634c-0.13069,0.1191 -0.4395,0.15047 -0.8264,0.12988c-1.2134,-0.39926 -2.51692,-0.64263 -3.11574,-0.81762c-6.62061,-2.42297 -13.67179,-3.48351 -20.37455,-5.55203c-0.00641,-0.59852 0.48611,-1.77969 0.5188,-1.88656c0.14818,-0.48426 0.29955,-0.97238 0.44195,-1.45615c1.66117,0.62553 3.44944,1.06389 5.15656,1.34122z" data-paper-data="{&quot;noHover&quot;:false,&quot;origItem&quot;:[&quot;Path&quot;,{&quot;applyMatrix&quot;:true,&quot;segments&quot;:[[[926.17844,407.1979],[3.2606,1.25965],[-0.27949,0.97418]],[[925.31465,410.11917],[0.29084,-0.97519],[-0.06418,0.21521]],[[924.29914,413.90358],[-0.01258,-1.20526],[13.15638,4.16543]],[[964.1057,425.02121],[-12.99513,-4.87922],[1.17537,0.35239]],[[970.21765,426.67451],[-2.3817,-0.804],[0.75941,0.04146]],[[971.83798,426.41666],[-0.25651,0.23985],[2.18115,-2.03947]],[[976.78433,418.26967],[-1.76682,2.44279],[-0.76669,0.00973]],[[972.89889,418.10481],[0.90089,0.17138],[-2.67549,-0.50896]],[[964.88923,416.67374],[2.68829,0.42712],[-9.42353,-1.49721]],[[936.29671,409.90591],[9.13228,2.58714],[-3.35077,-0.55846]]],&quot;closed&quot;:true}]}" fill="#ffffff" stroke="none" stroke-width="0.5" stroke-linecap="butt"/><path d="M279.06757,230.23556c0.22163,0.06484 4.83023,1.50784 4.80266,1.56222c-1.5719,3.10113 -3.71212,8.45066 -7.37038,9.66694c-4.87061,3.165 -13.25339,1.88399 -18.22015,-0.41385c-2.65869,-3.03277 -3.42303,-6.08593 -4.32996,-9.89722c-0.71254,-2.99443 -1.93766,-5.70257 -2.29407,-8.8143c-1.09971,-4.31629 -2.07835,-8.67368 -3.18277,-12.98662c-0.15274,-0.59647 -1.17535,-3.35966 -0.80921,-3.48857c3.75798,-0.45158 7.45861,-1.62909 11.23404,-1.93595c0.31009,-0.0252 2.88892,-0.10651 2.89751,0.31276c0.01397,0.68171 -0.30122,1.70121 -0.49497,2.36086c-0.88889,5.98674 -4.05626,11.69302 -4.51322,17.62652c0.56655,0.50551 1.22755,0.94982 1.96359,1.16384l0.69835,0.34079c0,0 0.58718,0.36549 0.92894,-0.30075c0.03421,-0.0667 0.15493,-0.16113 0.1703,-0.22115c6.18638,1.74988 12.44484,2.80677 18.51932,5.02449z" data-paper-data="{&quot;noHover&quot;:false,&quot;origItem&quot;:[&quot;Path&quot;,{&quot;applyMatrix&quot;:true,&quot;segments&quot;:[[[926.61254,417.73069],[12.14285,3.5238],[-0.03018,0.12086]],[[926.46822,418.11346],[0.06716,-0.13431],[-0.67082,1.34164]],[924.45576,418.78428],[[923.08279,418.0906],[0,0],[-1.44471,-0.43097]],[[919.22563,415.72869],[1.11205,1.01797],[0.89694,-11.9485]],[[928.15956,380.1298],[-1.74473,12.05571],[0.38029,-1.32836]],[[929.175,375.57071],[0.02742,1.37277],[-0.01686,-0.84429]],[[923.5003,374.93752],[0.60865,-0.05075],[-7.41054,0.61792]],[[901.48814,378.8123],[7.37628,-0.90935],[-0.71866,0.25961]],[[903.08234,385.83106],[-0.2998,-1.20115],[2.16779,8.68513]],[[909.35292,411.92731],[-2.15853,-8.69186],[0.69956,6.26621]],[[913.83986,429.61277],[-1.39861,-6.02998],[1.78014,7.67491]],[[922.29365,449.50563],[-5.21858,-6.1072],[9.74892,4.62723]],[[957.96755,450.34516],[-9.56021,6.37347],[7.18055,-2.44927]],[[972.39433,430.92276],[-3.08539,6.24485],[0.05411,-0.10951]],[[963.14745,427.86406],[0.43501,0.13058],[-11.92317,-4.46591]]],&quot;closed&quot;:true}]}" fill="#66c8ff" stroke="none" stroke-width="0.5" stroke-linecap="butt"/></g><g data-paper-data="{&quot;index&quot;:null}" fill="#fffc96" stroke="#000000" stroke-width="2" stroke-linecap="round"><path d="M245.27981,214.84259c-0.17893,-1.98815 3.03658,-2.31036 3.03658,-2.31036l0.39155,1.81929c0,0 4.63638,1.59211 10.97432,2.73119c-0.11941,1.30123 -0.15598,2.26662 -0.06756,3.06058c-7.40038,-1.13449 -14.13971,-3.13216 -14.33487,-5.30071z"/><path d="M248.15507,227.8276c-0.68838,-2.70557 2.61006,-3.96973 2.61006,-3.96973l0.32832,1.32957c0,0 3.52232,-1.66142 8.51565,-5.09607c0.10766,1.03948 0.42404,1.78464 1.04112,2.59422c-6.18049,4.21852 -11.99643,7.10218 -12.49516,5.142z" data-paper-data="{&quot;index&quot;:null}"/></g></g></g></g></svg>