<svg version="1.1" xmlns="http://www.w3.org/2000/svg" xmlns:xlink="http://www.w3.org/1999/xlink" width="234" height="234" viewBox="0,0,234,234"><g transform="translate(-123,-63)"><g data-paper-data="{&quot;isPaintingLayer&quot;:true}" fill-rule="nonzero" stroke-linejoin="miter" stroke-miterlimit="10" stroke-dasharray="" stroke-dashoffset="0" style="mix-blend-mode: normal"><g><g><g><g data-paper-data="{&quot;origRot&quot;:0}" stroke="#000000" stroke-width="3" stroke-linecap="round"><path d="M286.02567,222.01714c-0.31229,2.43002 -8.71532,-0.07632 -8.71532,-0.07632c0,0 -22.421,-5.99834 -33.02305,-8.78574c-4.27251,-1.83847 -0.37981,-40.59831 4.06451,-44.32575c1.98114,-1.66156 11.89131,-2.68555 13.17415,-1.13066c2.44178,2.95958 5.27397,19.52608 5.27397,19.52608l-4.17062,-0.2871l10.82536,1.81139c0,0 12.79448,0.98685 18.00271,2.91545c2.88853,1.06962 -5.43173,30.3526 -5.43173,30.3526z" data-paper-data="{&quot;origPos&quot;:null}" fill="#582700"/><path d="M276.31364,220.04251l5.11016,-29.61161" fill="none"/><path d="M277.14489,189.9829l-4.82814,29.66027" data-paper-data="{&quot;origPos&quot;:null}" fill="none"/></g><path d="M276.03228,220.62623l-2.77181,-0.46046l5.03719,-30.32187l2.77181,0.46046z" fill="#ffffff" stroke="none" stroke-width="0" stroke-linecap="butt"/><path d="M243.97601,213.26115l-1.57073,-10.98444l2.84527,-23.83205l2.88089,-7.98517l4.10667,-3.07371l7.45597,0.81147l1.4912,0.16229l4.87103,17.63053l-3.00945,-0.07607l-0.21638,1.98827l13.09106,2.17921l-4.01856,29.99127l-26.40871,-6.89786z" fill="#66c8ff" stroke="#000000" stroke-width="0.5" stroke-linecap="round"/></g><g fill="#fffc96" stroke="#000000" stroke-width="2" stroke-linecap="round"><path d="M270.20768,187.41023c0,0 4.30508,-2.52091 6.09423,0.37285c2.86256,4.62989 -30.58189,21.43689 -33.84142,16.80807c-1.33176,-1.89123 1.47419,-4.22302 1.47419,-4.22302l1.4308,1.5884c0,0 6.90385,-1.69631 14.78426,-5.43315c7.77122,-3.68505 12.1965,-7.54076 12.1965,-7.54076z"/><path d="M262.9484,180.85594c0,0 1.29778,-4.31987 3.50278,-2.9207c4.6286,2.93703 -10.02659,41.73359 -13.70324,37.9425c-2.22666,-2.29594 0.10452,-5.62847 0.10452,-5.62847l1.08495,1.1345c0,0 3.19895,-5.37001 6.37016,-14.20291c3.17123,-8.8329 3.7843,-15.38977 3.7843,-15.38977z" data-paper-data="{&quot;index&quot;:null}"/></g></g><g><g data-paper-data="{&quot;index&quot;:null}"><path d="M289.93442,188.34522c2.33268,0.72588 7.88806,-1.86562 7.21392,0.30076c-0.3434,1.10348 -7.0069,21.13808 -8.0088,21.91791c-0.96504,0.7511 -2.09906,1.06118 -3.24353,0.70505c-0.77865,-0.24232 -1.85938,-0.99139 -2.41831,-1.80368c-1.11555,-1.62119 0.3367,-23.13589 0.7858,-24.57914c0.67415,-2.16638 3.33826,2.73323 5.67093,3.45912z" fill="#0091d4" stroke="#000000" stroke-width="1.5" stroke-linecap="butt"/><g stroke-linecap="butt"><path d="M292.18575,181.18555c4.22627,1.31513 6.94839,4.64344 6.08001,7.43397c-0.86836,2.79053 -4.99837,3.98661 -9.22465,2.6715c-4.22627,-1.31514 -6.9484,-4.64344 -6.08003,-7.434c0.86836,-2.79053 4.99838,-3.98661 9.22464,-2.67147z" fill="#0091d4" stroke="#000000" stroke-width="1.5"/><path d="M286.23932,188.88266c0,0 -1.47193,-0.86376 -2.26087,-2.42619c-0.36525,-0.75078 -0.492,-2.73899 -0.492,-2.73899l2.9632,2.60878z" fill="#00aeff" stroke="none" stroke-width="0"/><path d="M289.40161,190.51969l-1.83181,-0.62479c0,0 -0.0398,-0.79461 0.05961,-1.20581c0.08489,-0.35118 0.49655,-1.29721 0.49655,-1.29721l1.44664,0.77145z" fill="#00aeff" stroke="none" stroke-width="0"/></g><g><path d="M290.36723,187.40355c-5.83025,-1.81427 -10.49783,-7.6861 -8.68359,-13.51631c1.81427,-5.83025 7.22786,-8.67423 13.05808,-6.85997c5.83025,1.81427 9.38459,8.10431 7.57035,13.93453c-1.81427,5.83025 -6.1146,8.25599 -11.9448,6.44175z" fill="#00699a" stroke="#000000" stroke-width="1.5" stroke-linecap="butt"/><path d="M292.51122,167.22619c0,0 0.99094,1.82054 2.15767,4.48385c1.1639,2.65684 1.68174,6.24969 0.88906,8.79707c-1.58734,5.10101 -3.68076,6.51859 -7.91683,5.20043c-2.06084,-0.6413 -3.62895,-2.35063 -4.39438,-4.30365c-1.07437,-2.74125 -1.54968,-6.17759 -0.64953,-9.07022c1.58734,-5.10101 9.91402,-5.10749 9.91402,-5.10749z" fill="#0091d4" stroke="none" stroke-width="0" stroke-linecap="butt"/><path d="M301.21338,181.0507c0,0 -4.19909,2.59415 -10.92251,0.23615c-6.66879,-2.33883 -8.30193,-7.23452 -8.30193,-7.23452" fill="none" stroke="#000000" stroke-width="0.8" stroke-linecap="round"/><path d="M297.99626,186.08286c0,0 -3.03392,1.26376 -8.90257,-1.58178c-4.07227,-1.97453 -7.33026,-5.43828 -7.33026,-5.43828" fill="none" stroke="#000000" stroke-width="0.75" stroke-linecap="round"/><path d="M301.74883,178.10543c0,0 -2.58795,1.40304 -8.88158,-1.21034c-6.54345,-2.71711 -8.54655,-7.07078 -8.54655,-7.07078" fill="none" stroke="#000000" stroke-width="0.8" stroke-linecap="round"/><path d="M287.38198,167.53799c0,0 4.46981,1.34025 8.42363,3.81339c3.0018,1.87761 6.29973,5.40431 6.29973,5.40431" fill="none" stroke="#000000" stroke-width="0.8" stroke-linecap="round"/><path d="M298.33826,169.6772c0,0 2.04464,3.42969 0.02903,9.09069c-2.15996,6.0664 -5.52441,8.56921 -5.52441,8.56921" fill="none" stroke="#000000" stroke-width="0.8" stroke-linecap="round"/><path d="M289.51415,186.80932c0,0 0.76406,-3.18441 1.44883,-5.01356c0.57656,-1.54003 2.22417,-4.29949 3.34058,-7.015c1.26947,-3.08789 1.98244,-6.05975 1.98244,-6.05975" fill="none" stroke="#000000" stroke-width="0.8" stroke-linecap="round"/><path d="M286.88672,185.8647c0,0 -1.01668,-4.72147 1.11466,-10.94733c1.35795,-3.9667 5.78331,-7.54626 5.78331,-7.54626" fill="none" stroke="#000000" stroke-width="0.8" stroke-linecap="round"/><path d="M282.83767,181.93739c0,0 -0.51502,-3.5151 2.2062,-8.92649c1.8897,-3.75781 5.23842,-6.2216 5.23842,-6.2216" fill="none" stroke="#000000" stroke-width="0.8" stroke-linecap="round"/><path d="M283.83285,173.22893c-0.41571,-0.12935 -0.63173,-0.62308 -0.48244,-1.10275c0.14925,-0.47967 0.60727,-0.76364 1.023,-0.63428c0.41571,0.12935 0.63174,0.62307 0.48245,1.10275c-0.14925,0.47967 -0.60728,0.76365 -1.023,0.63429z" fill="#00aeff" stroke="none" stroke-width="0" stroke-linecap="butt"/><path d="M285.68139,170.24772c-0.23983,-0.07464 -0.37375,-0.32955 -0.29913,-0.56939c0.07463,-0.23983 0.32955,-0.37375 0.56939,-0.29913c0.23983,0.07464 0.37375,0.32956 0.29914,0.56939c-0.07463,0.23983 -0.32955,0.37376 -0.56939,0.29914z" fill="#00aeff" stroke="none" stroke-width="0" stroke-linecap="butt"/></g></g><path d="M286.21962,189.58742c-2.68629,10.46118 -3.88601,12.05133 -3.88601,12.05133c-0.40746,1.29227 -1.62249,0.77369 -1.62249,0.77369c0,0 -2.47924,-0.71793 -4.06607,-1.17746c-1.04199,-0.30173 -2.66994,-0.77315 -2.66994,-0.77315c0,0 -0.97396,-0.46478 -0.73639,-1.16551c1.42934,-4.2157 2.57032,-8.31997 3.48997,-10.36893c0.30655,-0.68299 1.55169,-1.16365 1.55169,-1.16365l5.17212,0.88215c0,0 2.14134,0.23885 2.76709,0.94155z" fill="#582700" stroke="#000000" stroke-width="3" stroke-linecap="round"/><path d="M298.06048,194.42228c-6.03987,21.49268 -8.40905,24.83283 -8.40905,24.83283c-0.88475,2.66197 -3.05745,1.72108 -3.05745,1.72108c0,0 -4.46951,-1.22883 -7.33021,-2.01532c-1.87846,-0.51645 -4.81332,-1.32334 -4.81332,-1.32334c0,0 -1.73638,-0.85384 -1.22611,-2.29882c3.06987,-8.69327 5.59917,-17.13364 7.50372,-21.37966c0.63485,-1.41533 2.96916,-2.50653 2.96916,-2.50653l9.38972,1.31345c0,0 3.90097,0.28711 4.97354,1.65631z" fill="#582700" stroke="#000000" stroke-width="3" stroke-linecap="round"/></g></g><path d="M123,297v-234h234v234z" data-paper-data="{&quot;index&quot;:null}" fill="none" stroke="none" stroke-width="0" stroke-linecap="butt"/><g stroke="#000000" stroke-linecap="round"><path d="M231.01765,175.9749c0,0 -28.34669,5.32305 -28.02033,-12.65459c0.12022,-6.62354 16.31486,-4.68711 16.31486,-4.68711z" data-paper-data="{&quot;origPos&quot;:null}" fill="#66c8ff" stroke-width="2"/><path d="M223.22011,164.12057c0,0 -15.87594,-2.23255 -15.65451,-2.84177c0.70212,-1.93158 12.46892,-1.12194 12.46892,-1.12194z" data-paper-data="{&quot;origPos&quot;:null}" fill="#0a0a0a" stroke-width="1"/></g><g data-paper-data="{&quot;origRot&quot;:0}" stroke="#000000" stroke-linecap="round"><path d="M240.30226,226.95774c0,0 -0.43859,-4.78062 1.10174,-4.87557c4.54527,-0.28013 8.82459,-2.24137 13.17714,-0.90232c1.80741,0.55603 2.81687,4.72423 2.81687,4.72423l6.73867,32.41475c0,0 0.73945,3.33798 1.09671,5.27084c0.38197,2.06655 -0.43051,5.27491 -2.51747,5.52225c-7.66263,0.90823 -12.26874,2.88578 -17.18601,2.2317c-1.79144,-0.23829 -3.67701,-0.60879 -4.5134,-2.21082c-1.09258,-2.09267 -0.74505,-6.5609 -0.74505,-6.5609z" data-paper-data="{&quot;origPos&quot;:null}" fill="#ff0000" stroke-width="3"/><path d="M265.54127,266.92808c0,0 -5.68597,3.13245 -10.75361,3.5765c-3.88807,0.34069 -12.39875,0.05862 -12.39875,0.05862c0,0 -1.57524,-2.47948 -1.80363,-4.06578c-0.2406,-1.67108 0.60186,-4.28086 0.60186,-4.28086l23.1517,-2.82914z" data-paper-data="{&quot;origPos&quot;:null}" fill="#976e57" stroke-width="2"/><path d="M240.41133,227.27025c0,0 -0.43859,-4.78062 1.10174,-4.87556c4.54526,-0.28013 8.82459,-2.24137 13.17715,-0.9023c1.80741,0.55603 2.81686,4.72422 2.81686,4.72422l6.73867,32.41475c0,0 0.73947,3.33799 1.09673,5.27084c0.38197,2.06655 -0.43052,5.2749 -2.51747,5.52225c-7.66263,0.90823 -12.26874,2.88579 -17.18601,2.23171c-1.79144,-0.23829 -3.677,-0.60881 -4.51339,-2.21082c-1.09258,-2.09267 -0.74506,-6.5609 -0.74506,-6.5609z" data-paper-data="{&quot;origPos&quot;:null}" fill="#4b4b4b" stroke-width="3"/></g><path d="M234.57193,263.29374c0,0 -0.08224,4.48097 -1.37029,6.45932c-0.98606,1.51451 -2.89844,1.70264 -4.70447,1.76819c-4.95732,0.17991 -9.35273,-2.22992 -16.89308,-3.86819c-2.05365,-0.44619 -2.55497,-3.71763 -1.97675,-5.73806c0.54082,-1.88972 1.59671,-5.14148 1.59671,-5.14148l9.81364,-31.61991c0,0 1.40419,-4.05228 3.25656,-4.43257c4.46083,-0.91583 8.53255,1.44641 13.03004,2.16079c1.52413,0.24209 0.62949,4.95869 0.62949,4.95869c0,0 -0.85513,8.96463 -1.40246,14.70247c-0.77249,8.09826 -1.97941,20.75078 -1.97941,20.75078z" fill="#4b4b4b" stroke="#000000" stroke-width="3" stroke-linecap="round"/><g><path d="M220.23761,180.86194c0,0 2.2421,-14.36565 4.4106,-14.86824c6.50546,-1.50781 21.27978,-0.26791 31.16754,-0.06102c1.52855,0.03198 2.56542,13.59004 2.56542,13.59004l1.13962,30.65876c0,0 -0.06965,14.95978 -1.73714,14.92488c-14.84372,-0.31057 -32.25938,0.17785 -38.85796,-0.80132c-2.19952,-0.32638 -1.04204,-16.06338 -1.04204,-16.06338z" data-paper-data="{&quot;origPos&quot;:null}" fill="#66c8ff" stroke="#000000" stroke-width="3.5" stroke-linecap="round"/><path d="M238.90684,189.45314c-1.29139,-0.02702 -1.23935,-2.51398 -1.23935,-2.51398c0.10793,-5.15813 0.25053,-11.97421 0.35846,-17.13235c0,0 0.05203,-2.48696 1.34342,-2.45994c1.29139,0.02702 1.23935,2.51398 1.23935,2.51398c-0.10793,5.15813 -0.21584,10.31626 -0.32377,15.47438l-0.03469,1.65797c0,0 -0.05203,2.48696 -1.34342,2.45994z" fill="#ffffff" stroke="none" stroke-width="0.5" stroke-linecap="butt"/><path d="M250.66298,189.28237c-1.29139,-0.02702 -1.22602,-3.15133 -1.22602,-3.15133c0.13558,-6.48006 0.31474,-15.04299 0.45032,-21.52306c0,0 0.06537,-3.12432 1.35675,-3.0973c1.29139,0.02702 1.22602,3.15133 1.22602,3.15133c-0.13558,6.48006 -0.27116,12.96012 -0.40674,19.4402l-0.04357,2.08288c0,0 -0.06537,3.12432 -1.35675,3.0973z" fill="#ffffff" stroke="none" stroke-width="0.5" stroke-linecap="butt"/></g><g fill="none" stroke="#b9b9b9" stroke-width="3"><path d="M253.53559,170.92057c-0.79894,-1.3751 0.13979,-2.57531 1.38796,-3.76749c1.24817,-1.19216 2.48309,-1.53834 3.13208,-0.54977c1.376,2.09606 -0.13342,3.04022 -1.11077,3.97371c-1.24818,1.19218 -2.28096,2.28556 -3.40926,0.34355z" stroke-linecap="butt"/><path d="M254.532,170.35055l-2.6421,2.46472" stroke-linecap="round"/><path d="M248.33101,173.37027c1.24817,-1.19216 2.48309,-1.53834 3.13208,-0.54977c1.376,2.09606 -0.13342,3.04022 -1.11077,3.97371c-1.24817,1.19217 -2.28095,2.28556 -3.40925,0.34355c-0.79894,-1.3751 0.13978,-2.57531 1.38794,-3.7675z" stroke-linecap="butt"/><path d="M247.93944,176.56773l-2.6421,2.46474" stroke-linecap="round"/><path d="M239.68575,178.46267c0.43477,-1.62634 1.7693,-1.44377 3.27918,-0.95325c1.50988,0.49052 2.45762,1.48731 2.1886,2.72956c-0.57039,2.63392 -2.07024,1.73533 -3.25251,1.35125c-1.50988,-0.49051 -2.82928,-0.83073 -2.21526,-3.12754z" stroke-linecap="butt"/><path d="M240.64093,179.08852l-3.15751,-1.07445" stroke-linecap="round"/><path d="M232.57913,173.93728c0.92034,-1.29776 2.07843,-0.48623 3.29722,0.69502c1.2188,1.18125 1.76193,2.56109 1.11648,3.5827c-1.36856,2.16613 -2.44675,0.61157 -3.40112,-0.31339c-1.21881,-1.18126 -2.31233,-2.13157 -1.01258,-3.96432z" stroke-linecap="butt"/><path d="M233.24856,174.97694l-2.53313,-2.51537" stroke-linecap="round"/><path d="M226.20497,167.67795c0.92034,-1.29774 2.07843,-0.48623 3.29722,0.69502c1.21881,1.18125 1.76193,2.56109 1.11648,3.5827c-1.36855,2.16612 -2.44675,0.61157 -3.40112,-0.31339c-1.2188,-1.18125 -2.31232,-2.13157 -1.01257,-3.96432z" stroke-linecap="butt"/><path d="M226.87441,168.7176l-2.53314,-2.51537" stroke-linecap="round"/></g><path d="M255.13026,167.85861c-12.06669,-0.70147 -23.76594,-1.41776 -28.47712,-2.7459c-4.30568,-1.21382 -5.43388,-4.05799 -5.43388,-4.05799c0,0 -1.58668,-2.54821 -1.56805,-4.08311c0.05589,-4.60468 0.83141,-17.73217 2.54739,-28.97896c0.05727,-0.37536 0.10305,-0.58424 0.18258,-0.95552c0.23857,-1.11383 1.35414,-5.4243 1.35414,-5.4243c0,0 3.29568,-1.43771 5.05671,-1.79165c5.28308,-1.06184 18.36327,1.3281 32.21655,2.69571c1.25562,0.12396 3.29733,1.94924 3.29733,1.94924c0,0 1.32259,3.23573 1.1385,5.21069c-1.1901,12.76848 -2.55386,26.89154 -3.07725,30.10588c-0.17446,1.07146 -2.29471,5.1254 -2.29471,5.1254z" fill="#582700" stroke="#000000" stroke-width="2.5" stroke-linecap="round"/><path d="M219.32913,122.11553c-0.59062,-1.10165 0.51104,-1.69229 0.51104,-1.69229l1.35856,-0.68179c0.12057,-0.02882 0.24098,-0.05686 0.3613,-0.08417c-0.64726,-5.83687 0.91744,-12.73502 1.25491,-18.44352c0.08752,-1.48041 -0.02872,-5.51403 0.76824,-6.73699c1.33451,-2.0479 3.00387,-1.34461 4.89633,-1.22758c3.21998,0.19915 6.41157,0.43599 9.62652,0.16157c7.96883,-0.67079 15.81621,-0.44107 23.79256,-0.6236c2.51699,-0.05759 4.96845,0.00374 7.47203,0.37577c0.68503,0.10179 1.58223,-0.09401 2.03215,0.43247c1.59353,1.86464 0.73949,3.77381 0.29895,5.71218c-0.87872,3.86646 -2.7138,7.28737 -3.08593,11.27979c-0.3051,3.05248 -0.97507,6.1622 -1.55689,9.17202c-0.20079,1.03868 0.01732,2.99892 -1.09138,3.7188c-2.27334,1.47605 -7.83536,-0.08557 -10.36403,-0.32876c-7.71043,-0.74152 -15.41202,-1.64249 -23.15293,-1.94351c-2.77327,-0.01303 -5.42239,0.05569 -8.101,0.46493c-0.04972,0.37021 -0.25686,0.83595 -0.95247,0.99581c-0.75472,0.17342 -1.14932,-0.22813 -1.34032,-0.5588c-0.09172,0.02112 -0.18354,0.04272 -0.27543,0.0648l-0.7599,0.45395c0,0 -1.10165,0.59061 -1.69229,-0.51104z" fill="#000000" stroke="none" stroke-width="0.5" stroke-linecap="butt"/><g><g stroke="#000000" stroke-width="3" stroke-linecap="round"><path d="M227.15953,148.06952l1.79998,30.04615c0,0 0.25553,5.70924 -0.7262,6.31389c-2.94516,1.814 -9.48927,1.84849 -15.97445,3.20495c-1.07795,0.22547 -2.83329,-5.43304 -2.83329,-5.43304c0,0 -2.3689,-9.02478 -3.88512,-14.80109c-2.30905,-8.79675 -5.91668,-22.54062 -5.91668,-22.54062c0,0 -2.07656,-6.97227 -0.06042,-7.23055c0,0 8.29934,-5.54749 25.18335,-4.49636c1.87539,4.20873 2.41283,14.93664 2.41283,14.93664z" data-paper-data="{&quot;origPos&quot;:null}" fill="#582700"/><path d="M226.66196,146.02719l-25.3821,4.0583l-0.58462,-3.35141l25.29943,-4.30336z" data-paper-data="{&quot;origPos&quot;:null}" fill="none"/></g><path d="M226.02078,146.60251l2.23519,37.34963l-15.60991,2.52232l-1.37172,-0.45175l-10.12917,-35.44879z" fill="#66c8ff" stroke="#000000" stroke-width="1" stroke-linecap="round"/><path d="M225.8798,142.93369l0.38807,2.29857l-25.14497,4.24539l-0.38809,-2.29857z" fill="#ffffff" stroke="none" stroke-width="0" stroke-linecap="butt"/></g><path d="M244.78363,141.46413l4.69945,4.60395l-5.15287,3.25401" fill="none" stroke="#000000" stroke-width="2.5" stroke-linecap="round"/><path d="M258.76932,151.53382l-3.99333,-4.60369l5.82897,-3.0503" data-paper-data="{&quot;index&quot;:null}" fill="none" stroke="#000000" stroke-width="2.5" stroke-linecap="round"/><g stroke="#000000" stroke-width="1.25" stroke-linecap="butt"><g data-paper-data="{&quot;index&quot;:null}" fill="#000000"><path d="M244.7461,157.93469c-9.35274,-1.45017 -5.36119,-4.57026 -5.36119,-4.57026l11.74112,1.6657c0,0 2.41727,4.18421 -6.37993,2.90456z"/></g><g data-paper-data="{&quot;index&quot;:null}" fill="#ffffff"><path d="M244.7461,157.93469c-9.35274,-1.45017 -5.36119,-4.57026 -5.36119,-4.57026c0,0 7.94323,1.1269 9.92549,1.40813c0.00274,0.00039 -0.75985,0.81899 -0.88087,1.72851c-0.09913,0.74492 0.44149,1.6136 0.42397,1.61563c-0.97769,0.11289 -2.30794,0.07976 -4.10742,-0.182z"/></g></g></g></g></svg>