<svg version="1.1" xmlns="http://www.w3.org/2000/svg" xmlns:xlink="http://www.w3.org/1999/xlink" width="351.54309" height="351.54309" viewBox="0,0,351.54309,351.54309"><g transform="translate(-64.22845,-4.22846)"><g data-paper-data="{&quot;isPaintingLayer&quot;:true}" fill-rule="nonzero" stroke-linejoin="miter" stroke-miterlimit="10" stroke-dasharray="" stroke-dashoffset="0" style="mix-blend-mode: normal"><g data-paper-data="{&quot;index&quot;:null}" stroke="#2f3bd4" stroke-width="11"><path d="M328.72577,175.48642c0.7254,4.03584 0.09122,7.03534 -2.37133,9.20408c-2.15598,1.89875 -5.98792,3.00171 -7.88158,5.72264c-1.44354,2.07417 -1.80741,4.57847 -2.05514,8.25261c-9.61865,1.72883 -7.45342,-3.38245 -9.29802,-13.64519c-11.81055,-4.60522 -4.43593,-20.91333 -4.43593,-20.91333c0,0 3.95222,9.20129 7.82654,12.43868c3.34062,2.79141 17.3614,-5.81129 18.21547,-1.0595z" data-paper-data="{&quot;index&quot;:null}" fill="#ffffff" stroke-linecap="butt"/><path d="M348.06348,175.06508c0,0 0.12367,2.26745 -0.33096,3.55209c-0.71693,2.02583 -3.55465,7.42749 -3.55465,7.42749c0,0 -8.68179,-0.48731 -10.64688,-2.15698c-1.90969,-1.62262 -1.48496,-8.93913 -1.48496,-8.93913c0,0 2.83497,-3.14353 7.71296,-3.17939c3.2103,-0.02361 7.46461,1.10159 8.30449,3.29592z" data-paper-data="{&quot;index&quot;:null}" fill="#ffffff" stroke-linecap="butt"/><path d="M327.89381,192.78332c2.00823,-1.06505 4.53233,0.39328 7.06627,1.72984c2.52997,1.33445 5.07102,2.54429 5.53112,5.10415c0.74247,4.13086 -3.50918,7.10056 -7.67625,6.92632c-3.36039,-0.14049 -6.59834,-2.63067 -7.63879,-5.84963c-0.26267,-0.81266 -1.37973,-5.73768 2.71764,-7.91071z" data-paper-data="{&quot;index&quot;:null}" fill="#ffffff" stroke-linecap="butt"/><path d="M329.63925,160.06106c0.86369,-0.15523 1.70136,0.16894 2.23395,0.78092l0.03418,0.01197l0.02882,0.06357c0.23567,0.29486 0.40311,0.65009 0.47437,1.04654l0.06384,0.35516l-0.02656,0.37922l0.03801,0.37801l-0.03357,0.22603l0.06274,0.62424l-0.04261,0.28681l-0.02832,0.40447l-0.02897,0.08828l0.00927,0.09222l-0.06656,0.4482l0.17697,1.5363l0.0295,0.16416l-0.01655,0.23654l0.00102,0.00506l-0.00152,0.00216l-0.04762,0.68009l0.74703,0.39962l0.51252,0.19142l0.24125,0.16565l0.10629,0.03969l0.28249,0.08159l1.06106,0.61462l0.02165,0.09078l0.08885,0.03106l0.50317,1.11009l0.06384,0.35516l-0.00664,0.09491l0.04833,0.06408l-0.0896,0.52545l-0.03719,0.53138l-0.06219,0.05154l-0.01601,0.09385l-0.0951,0.21553l0.00394,0.01948l-0.03358,0.04773l-0.05096,0.11549l-0.32042,0.41203l-0.30028,0.42656l-0.02181,0.01889l-0.08217,0.35926l-0.13952,0.27381l-0.25968,1.15518l-0.15467,1.04148l0.49326,2.74429l0.45647,0.95208l0.01647,0.08153l0.04876,0.06763l0.14616,0.36862l0.23006,0.36502l0.05037,0.1546l0.10154,0.12748l0.20865,0.46031l0.01097,0.01521l0.08479,0.07802l0.2873,0.438l0.30649,0.42505l0.04231,0.10671l0.03312,0.05048l-0.00493,0.0206l0.03895,0.09827l0.13366,0.17722l0.10116,0.23996l0.16258,0.20409l0.01549,0.03419l0.20776,0.16752l0.74255,0.98459l0.11836,0.08126l0.02684,0.00047l0.04641,0.04985l0.0546,0.03749l0.36055,0.40827l0.00215,0.00231l0.13409,0.01254l0.13315,0.16714l0.18568,0.10756l0.0427,0.17913l0.39933,0.50129l0.2049,0.45203l0.21546,1.19876l-0.33644,0.45694l-0.0123,0.56409l-0.90756,0.8275l-0.33806,0.18297l-0.09075,0.02354l-0.07369,0.05756l-0.87933,0.39276l-0.76009,0.37006l-0.25685,0.05494l-0.22847,0.12365l-0.372,0.09646l-0.3507,0.15665l-0.23955,0.04306l-0.45784,0.20448l-0.06556,0.01179l-0.06337,0.02635l-0.02461,-0.01054l-1.40356,0.25228l-0.45158,-0.02912l-0.45229,0.01985l-0.38849,-0.0782l-0.41648,0.00608l-1.0343,0.07091l-0.03772,-0.00663l-0.03685,0.01059l-0.68995,0.02595l-2.41772,0.43456l-0.18927,0.08453l-0.07759,0.01395l-0.24804,0.25161l-0.53328,0.58689l-0.00054,0.00182l-0.19516,0.32813l-0.137,0.35559l-0.591,0.83951l-0.2408,0.20827l-0.1883,0.25574l-0.50748,0.42051l-0.13398,0.19028l-0.00187,0.01256l-0.12164,0.29243l-0.05313,0.31158l-0.14702,0.33317l-0.55838,1.50474l-0.06317,0.09213l-0.02225,0.109l-0.44994,0.93635l-0.27464,0.33064l-0.23009,0.36231l-0.14585,0.13875l-0.0615,0.08736l-0.35567,0.30763l-0.06153,0.17047l-0.28031,0.12521l-0.23164,0.20038l-0.18202,-0.01559l-0.43039,0.19224l-2.03624,0.36599l-0.45158,-0.02912l-0.4523,0.01986l-0.2999,-0.06038l-0.99127,0.08768l-0.15343,-0.02386l-0.15225,0.03147l-1.12057,-0.04302l-0.18778,-0.05423l-0.19565,0.00859l-0.48263,-0.09715l-0.33858,-0.02185l-0.05542,-0.01759l-0.12967,0.01707l-0.1223,-0.09701l-0.86416,-0.27422l-0.32892,-0.67222l-0.55992,-0.44417l0.07976,-0.53711l-0.23858,-0.48758l0.39912,-0.59337l0.10997,-0.74049l0.74045,-0.52385l0.08718,-0.12959l0.07477,-0.01344l0.02344,-0.3348l0.01264,-0.03851l-0.00582,-0.03999l0.09062,-0.87178l0.04237,-0.11588l-0.00502,-0.12294l0.13317,-0.635l0.02009,-0.04127l-0.00012,-0.04574l0.2876,-1.15161l0.06952,-0.13l0.01771,-0.14584l0.25295,-0.65652l0.03336,-0.04739l0.0097,-0.05689l0.70288,-1.59287l0.14542,-0.18703l0.08489,-0.22032l1.2805,-1.81891l0.11391,-0.09853l0.07093,-0.13217l0.87653,-0.96466l1.76694,-2.22064l0.09432,-0.07243l0.05934,-0.10245l2.22848,-2.29955l1.36106,-1.64878l0.16322,-0.12071l0.11644,-0.16541l1.02722,-0.88852l0.48823,-0.46449l0.22728,-0.27533l-0.09012,-0.50143l-0.30283,-0.71829l-0.21902,-0.44295l-0.06571,-0.07441l-0.27,-0.1854l-0.24509,-0.105l-0.3101,-0.03029l-0.76681,0.05258l-1.58239,0.28442l-1.31682,0.33389l-0.82627,0.41565l-0.71718,0.42293l-0.33589,0.24843l-0.24301,0.10104l-0.207,0.16163l-0.91567,0.40902l-0.2897,0.05207l-0.26856,0.11997l-0.83844,0.1507l-0.25198,-0.01625l-0.11739,0.0721l-0.42327,-0.10696l-0.43625,-0.02813l-0.08831,-0.10443l-0.24448,-0.06178l-2.05201,-1.09772l-0.09904,-0.08975l-0.12573,-0.04697l-1.42378,-0.97766l-0.02684,-0.00046l-0.04643,-0.04986l-0.0546,-0.03749l-0.36056,-0.40826l-0.0066,-0.00708l-0.2757,-0.14747l-0.27094,-0.24553l-0.31157,-0.1928l-0.49849,-0.51282l-0.88655,-0.69999l-0.18525,-0.24044l-0.23688,-0.19098l-0.62389,-0.82722l-0.92607,-1.14026l-0.01826,-0.0393l-0.03388,-0.02731l-1.13634,-1.50673l-0.0661,-0.15681l-0.11632,-0.12488l-0.4379,-0.79566l-0.21491,-0.25411l-0.2182,0.18874l-0.06153,0.17046l-0.28032,0.12521l-0.23164,0.20037l-0.18201,-0.01558l-0.43039,0.19224l-0.5989,0.10765l-0.38328,-0.02472l-0.38232,0.03911l-0.38061,-0.0538l-0.29516,-0.11912l-0.31478,-0.05128l-0.40188,-0.17219l-0.26011,-0.19747l-0.29705,-0.13761l-0.86763,-0.69955l-0.17559,-0.23282l-0.2276,-0.18353l-0.32467,-0.43048l-0.1227,-0.29103l-0.18502,-0.25658l-0.22616,-0.5704l-0.03044,-0.2334l-0.09725,-0.21454l-0.21279,-1.18386l0.00648,-0.09249l-0.03161,-0.08713l-0.15686,-1.56056l0.01348,-0.0907l-0.02454,-0.08824l-0.01717,-1.66954l-0.01744,-0.08781l0.0827,-1.60362l0.17718,-0.78101l0.55741,-1.34002l0.12704,-0.42492l1.94228,-1.18424l1.37598,1.8979l0.58221,-1.05403l1.85493,2.62155l1.2433,-0.20082l0.10012,0.20713l0.15721,0.16878l0.28616,0.51996l0.22331,0.29608l0.03899,0.09246l0.07285,0.06951l0.08621,0.1368l1.15088,0.13221l0.38651,-0.1573l1.08712,-1.54424l0.22241,-0.61629l0.09547,-0.14194l0.04092,-0.16544l0.64693,-1.21618l0.01245,-0.01381l0.06294,-0.21048l0.0164,-0.0276l0.00723,-0.10341l0.107,-0.08866l0.49508,-0.83239l0.71346,-0.16907l0.53454,-0.44295l0.53918,0.18849l0.55737,-0.13208l0.48137,0.49519l0.69022,0.24129l0.39813,0.87833l0.09637,0.09913l-0.0045,0.10355l0.0132,0.0291l0.06384,0.35517l-0.06923,0.98874l0.02559,0.10125l-0.02288,0.03605l0.03716,0.84873l0.1209,1.28616l0.27577,1.53427l0.24602,0.78516l0.00833,0.14912l0.06169,0.1361l0.02245,0.12486l0.13987,0.35279l0.03045,0.2334l0.05378,0.11862l0.43256,0.34875l0.436,0.29936l0.10711,0.04588l1.81602,-0.04183l0.03438,0.00767l0.03431,-0.00827l1.87043,0.01011l3.78723,-0.32438l0.14107,0.02232l0.13981,-0.02999l1.2864,0.03974l0.22089,-0.10756l0.54575,-0.3564l0.87679,-0.70902l0.04822,-0.02253l0.03375,-0.04087l0.43656,-0.32288l0.15883,-0.06604l0.12674,-0.11556l0.1888,-0.10219l0.30025,-0.22207l0.47917,-0.19924l0.19052,-0.30762c-0.05189,-0.36649 -0.01528,-0.7268 0.09428,-1.05893l0.00488,-0.06962l0.02787,-0.02312c0.28614,-0.75912 0.95851,-1.35472 1.82219,-1.50996zM301.27339,165.11318l-0.07313,-0.06979l-0.60254,-0.956l0.09852,0.98035l0.0629,0.34998l0.15502,-0.11466l0.00904,-0.02504l0.06265,-0.02799l0.05344,-0.03951z" data-paper-data="{&quot;index&quot;:null}" fill="#000000" stroke-linecap="butt"/><path d="M329.63924,160.0611c0.86369,-0.15523 1.70136,0.16894 2.23395,0.78092l0.03418,0.01197l0.02882,0.06357c0.23567,0.29486 0.40311,0.65009 0.47437,1.04654l0.06384,0.35516l-0.02656,0.37922l0.03801,0.37801l-0.03357,0.22603l0.06274,0.62424l-0.04261,0.28681l-0.02832,0.40447l-0.02897,0.08828l0.00927,0.09222l-0.06656,0.4482l0.17697,1.5363l0.0295,0.16416l-0.01655,0.23654l0.00102,0.00506l-0.00152,0.00216l-0.04762,0.68009l0.74703,0.39962l0.51252,0.19142l0.24125,0.16565l0.10629,0.03969l0.28249,0.08159l1.06106,0.61462l0.02165,0.09078l0.08885,0.03106l0.50317,1.11009l0.06384,0.35516l-0.00664,0.09491l0.04833,0.06408l-0.0896,0.52545l-0.03719,0.53138l-0.06219,0.05154l-0.01601,0.09385l-0.0951,0.21553l0.00394,0.01948l-0.03358,0.04773l-0.05096,0.11549l-0.32042,0.41203l-0.30028,0.42656l-0.02181,0.01889l-0.08217,0.35926l-0.13952,0.27381l-0.25968,1.15518l-0.15467,1.04148l0.49326,2.74429l0.45647,0.95208l0.01647,0.08153l0.04876,0.06763l0.14616,0.36862l0.23006,0.36502l0.05037,0.1546l0.10154,0.12748l0.20865,0.46031l0.01097,0.01521l0.08479,0.07802l0.2873,0.438l0.30649,0.42505l0.04231,0.10671l0.03312,0.05048l-0.00493,0.0206l0.03895,0.09827l0.13366,0.17722l0.10116,0.23996l0.16258,0.20409l0.01549,0.03419l0.20776,0.16752l0.74255,0.98459l0.11836,0.08126l0.02684,0.00047l0.04641,0.04985l0.0546,0.03749l0.36055,0.40827l0.00215,0.00231l0.13409,0.01254l0.13315,0.16714l0.18568,0.10756l0.0427,0.17913l0.39933,0.50129l0.2049,0.45203l0.21546,1.19876l-0.33644,0.45694l-0.0123,0.56409l-0.90756,0.8275l-0.33806,0.18297l-0.09075,0.02354l-0.07369,0.05756l-0.87933,0.39276l-0.76009,0.37006l-0.25685,0.05494l-0.22847,0.12365l-0.372,0.09646l-0.3507,0.15665l-0.23955,0.04306l-0.45784,0.20448l-0.06556,0.01179l-0.06337,0.02635l-0.02461,-0.01054l-1.40356,0.25228l-0.45158,-0.02912l-0.45229,0.01985l-0.38849,-0.0782l-0.41648,0.00608l-1.0343,0.07091l-0.03772,-0.00663l-0.03685,0.01059l-0.68995,0.02595l-2.41772,0.43456l-0.18927,0.08453l-0.07759,0.01395l-0.24804,0.25161l-0.53328,0.58689l-0.00054,0.00182l-0.19516,0.32813l-0.137,0.35559l-0.591,0.83951l-0.2408,0.20827l-0.1883,0.25574l-0.50748,0.42051l-0.13398,0.19028l-0.00187,0.01256l-0.12164,0.29243l-0.05313,0.31158l-0.14702,0.33317l-0.55838,1.50474l-0.06317,0.09213l-0.02225,0.109l-0.44994,0.93635l-0.27464,0.33064l-0.23009,0.36231l-0.14585,0.13875l-0.0615,0.08736l-0.35567,0.30763l-0.06153,0.17047l-0.28031,0.12521l-0.23164,0.20038l-0.18202,-0.01559l-0.43039,0.19224l-2.03624,0.36599l-0.45158,-0.02912l-0.4523,0.01986l-0.2999,-0.06038l-0.99127,0.08768l-0.15343,-0.02386l-0.15225,0.03147l-1.12057,-0.04302l-0.18778,-0.05423l-0.19565,0.00859l-0.48263,-0.09715l-0.33858,-0.02185l-0.05542,-0.01759l-0.12967,0.01707l-0.1223,-0.09701l-0.86416,-0.27422l-0.32892,-0.67222l-0.55992,-0.44417l0.07976,-0.53711l-0.23858,-0.48758l0.39912,-0.59337l0.10997,-0.74049l0.74045,-0.52385l0.08718,-0.12959l0.07477,-0.01344l0.02344,-0.3348l0.01264,-0.03851l-0.00582,-0.03999l0.09062,-0.87178l0.04237,-0.11588l-0.00502,-0.12294l0.13317,-0.635l0.02009,-0.04127l-0.00012,-0.04574l0.2876,-1.15161l0.06952,-0.13l0.01771,-0.14584l0.25295,-0.65652l0.03336,-0.04739l0.0097,-0.05689l0.70288,-1.59287l0.14542,-0.18703l0.08489,-0.22032l1.2805,-1.81891l0.11391,-0.09853l0.07093,-0.13217l0.87653,-0.96466l1.76694,-2.22064l0.09432,-0.07243l0.05934,-0.10245l2.22848,-2.29955l1.36106,-1.64878l0.16322,-0.12071l0.11644,-0.16541l1.02722,-0.88852l0.48823,-0.46449l0.22728,-0.27533l-0.09012,-0.50143l-0.30283,-0.71829l-0.21902,-0.44295l-0.06571,-0.07441l-0.27,-0.1854l-0.24509,-0.105l-0.3101,-0.03029l-0.76681,0.05258l-1.58239,0.28442l-1.31682,0.33389l-0.82627,0.41565l-0.71718,0.42293l-0.33589,0.24843l-0.24301,0.10104l-0.207,0.16163l-0.91567,0.40902l-0.2897,0.05207l-0.26856,0.11997l-0.83844,0.1507l-0.25198,-0.01625l-0.11739,0.0721l-0.42327,-0.10696l-0.43625,-0.02813l-0.08831,-0.10443l-0.24448,-0.06178l-2.05201,-1.09772l-0.09904,-0.08975l-0.12573,-0.04697l-1.42378,-0.97766l-0.02684,-0.00046l-0.04643,-0.04986l-0.0546,-0.03749l-0.36056,-0.40826l-0.0066,-0.00708l-0.2757,-0.14747l-0.27094,-0.24553l-0.31157,-0.1928l-0.49849,-0.51282l-0.88655,-0.69999l-0.18525,-0.24044l-0.23688,-0.19098l-0.62389,-0.82722l-0.92607,-1.14026l-0.01826,-0.0393l-0.03388,-0.02731l-1.13634,-1.50673l-0.0661,-0.15681l-0.11632,-0.12488l-0.4379,-0.79566l-0.21491,-0.25411l-0.2182,0.18874l-0.06153,0.17046l-0.28032,0.12521l-0.23164,0.20037l-0.18201,-0.01558l-0.43039,0.19224l-0.5989,0.10765l-0.38328,-0.02472l-0.38232,0.03911l-0.38061,-0.0538l-0.29516,-0.11912l-0.31478,-0.05128l-0.40188,-0.17219l-0.26011,-0.19747l-0.29705,-0.13761l-0.86763,-0.69955l-0.17559,-0.23282l-0.2276,-0.18353l-0.32467,-0.43048l-0.1227,-0.29103l-0.18502,-0.25658l-0.22616,-0.5704l-0.03044,-0.2334l-0.31003,-1.3984l0.00648,-0.09249l-0.18846,-1.6477l0.01348,-0.0907l-0.06162,-1.67034l0.01992,-0.08743l-0.01744,-0.08781l0.0827,-1.60362l0.11824,-0.38405l3.85678,-1.17283l3.88532,1.09125l0.10012,0.20713l0.15721,0.16878l0.28616,0.51996l0.22331,0.29608l0.03899,0.09246l0.07285,0.06951l0.08621,0.1368l1.15088,0.13221l0.38651,-0.1573l1.08712,-1.54424l0.22241,-0.61629l0.09547,-0.14194l3.17616,-3.08149l1.03873,0.36309l1.08834,1.1196l0.09637,0.09913l-0.0045,0.10355l0.0132,0.0291l0.06384,0.35517l-0.06923,0.98874l0.02559,0.10125l-0.02288,0.03605l0.03716,0.84873l0.1209,1.28616l0.27577,1.53427l0.24602,0.78516l0.00833,0.14912l0.06169,0.1361l0.02245,0.12486l0.13987,0.35279l0.03045,0.2334l0.05378,0.11862l0.43256,0.34875l0.436,0.29936l0.10711,0.04588l1.81602,-0.04183l0.03438,0.00767l0.03431,-0.00827l1.87043,0.01011l3.78723,-0.32438l0.14107,0.02232l0.13981,-0.02999l1.2864,0.03974l0.22089,-0.10756l0.54575,-0.3564l0.87679,-0.70902l0.04822,-0.02253l0.03375,-0.04087l0.43656,-0.32288l0.15883,-0.06604l0.12674,-0.11556l0.1888,-0.10219l0.30025,-0.22207l0.47917,-0.19924l0.19052,-0.30762c-0.05189,-0.36649 -0.01528,-0.7268 0.09428,-1.05893l0.00488,-0.06962l0.02787,-0.02312c0.28614,-0.75912 0.95851,-1.35472 1.82219,-1.50996zM301.27339,165.11318l-0.07313,-0.06979l-0.60254,-0.956l0.09852,0.98035l0.0629,0.34998l0.15502,-0.11466l0.00904,-0.02504l0.06265,-0.02799l0.05344,-0.03951z" data-paper-data="{&quot;index&quot;:null}" fill="#000000" stroke-linecap="butt"/><path d="M344.47829,180.71547l-5.81541,-7.71085" data-paper-data="{&quot;index&quot;:null}" fill="none" stroke-linecap="round"/><g data-paper-data="{&quot;index&quot;:null}"><path d="M334.87682,161.73342c0,0 -10.83208,5.2106 -16.09805,5.66015c-7.80008,0.66587 -6.04612,-3.08841 -6.27916,-6.27095c-0.23303,-3.18254 14.74373,-11.217 14.74373,-11.217c0,0 3.30064,1.04972 5.87044,5.13344c1.98312,3.15142 1.76308,6.69438 1.76308,6.69438z" fill="#ffffff" stroke-linecap="butt"/><path d="M298.14205,159.273c0.44366,6.05893 -4.37473,13.45073 -8.41156,13.79535c-4.03683,0.34461 -4.57175,-6.81661 -5.0154,-12.87555c-0.44365,-6.05894 4.5834,-7.13886 4.5834,-7.13886c0,0 7.22791,-3.22421 9.93755,-0.75104c0.92629,0.84547 1.25835,5.5272 1.37137,7.07081z" fill="#ffffff" stroke-linecap="butt"/><path d="M285.99327,161.04605c0,0 2.99703,-2.7694 4.80772,-2.82683c1.69963,-0.0539 5.74436,2.49214 5.74436,2.49214" fill="none" stroke-linecap="round"/><path d="M322.11688,152.98043c0,0 3.6914,2.33808 4.865,3.94498c1.21223,1.65979 2.2962,5.86023 2.2962,5.86023" fill="none" stroke-linecap="round"/><path d="M313.32183,162.61891l2.69259,1.27277l0.18223,2.48884" fill="none" stroke-linecap="round"/><path d="M320.49246,156.49708l-0.56477,3.30393l-4.1805,4.11348" fill="none" stroke-linecap="round"/><path d="M319.99857,159.54453l3.16631,0.39753" fill="none" stroke-linecap="round"/></g></g><g data-paper-data="{&quot;index&quot;:null}" fill="#2f3bd4" stroke="#2f3bd4" stroke-width="10" stroke-linecap="butt"><path d="M180.47959,218.31518c-0.51176,-4.9573 1.80104,-8.09945 4.96615,-8.41341c1.77068,-0.17563 3.08912,2.46982 6.06946,1.4913c3.62754,-1.19101 6.05435,-6.58835 9.27654,-7.13336c3.57505,-0.60472 9.52202,6.26281 9.52202,6.26281c0,0 -0.54949,7.39627 -2.04933,13.56864c-1.57743,6.49163 -4.31027,11.67243 -7.25489,11.72132c-3.15422,0.05235 -19.38342,-6.39126 -20.52995,-17.49733z"/><path d="M209.06649,218.76689c0,0 -1.02612,3.8027 -1.40323,5.84312c-0.82985,4.48999 -3.27713,10.78026 -7.03866,11.00656c-2.17659,0.13096 -6.4573,-2.11235 -11.37505,-6.03386c-3.31006,-2.6395 -7.70535,-5.98007 -8.93729,-10.09204c-0.31568,-1.05367 1.46837,-2.70578 1.35221,-3.83094c9.48866,7.11721 14.64765,13.51581 16.06062,13.06925z"/><path d="M211.65515,211.73891c0,0 -7.83552,-6.81018 -10.09347,-7.08746c-0.46899,-0.05759 -6.68241,5.88412 -9.64091,7.44811c-0.51953,0.27464 -2.06089,0.50473 -3.38002,0.08138c-1.13044,-0.3628 -1.97942,-1.31157 -3.21441,-1.92795c-0.78343,0.42223 -4.72522,8.38813 -4.72522,8.38813c0,0 12.34641,16.75434 19.5018,16.48298c1.8412,-0.06982 4.41229,-2.49858 5.74325,-5.97229c1.01371,-2.64573 1.76026,-6.16981 2.52246,-8.60194c0.69604,-2.22101 1.45389,-3.47413 1.45389,-3.47413c0,0 -0.29925,4.36107 -1.10392,9.00809c-0.88865,5.13205 -4.276,11.38882 -8.87606,10.93375c-1.07377,-0.10623 -5.15203,-1.34035 -8.12653,-3.61085c-6.35905,-4.85403 -13.17123,-13.03589 -13.46537,-15.15087c-0.15163,-1.09036 1.63736,-3.6483 2.39826,-4.98269c1.02457,-1.79682 2.15047,-4.1339 4.8963,-5.0274c1.45732,-0.47421 3.74031,2.12673 5.18671,1.57101c4.5662,-1.75434 8.5361,-8.10961 11.26272,-8.03763c2.72662,0.07196 9.66051,9.95978 9.66051,9.95978z"/></g><path d="M178.75863,220.96173l-3.49372,2.10094l0.78928,8.31066l-7.18577,0.58688l0.73982,-9.99185c0,0 3.49246,-4.01691 7.26721,-6.20386c1.54361,-0.89429 4.32816,-0.96073 5.0712,-1.13846c1.79556,-0.42952 0.72844,3.66942 0.72844,3.66942z" data-paper-data="{&quot;index&quot;:null}" fill="#2f3bd4" stroke="#2f3bd4" stroke-width="10" stroke-linecap="butt"/><path d="M193.25857,216.86531l-7.17224,5.71796c0,0 -2.32029,-0.47813 -3.07006,-1.17242c-1.77001,-1.63902 -0.3635,-3.3387 -0.3635,-3.3387c0,0 5.42595,-8.44509 8.16388,-8.41687c3.02903,0.03123 8.4691,1.27006 8.4691,1.27006l0.92891,5.61588z" data-paper-data="{&quot;index&quot;:null}" fill="#2f3bd4" stroke="#2f3bd4" stroke-width="10" stroke-linecap="butt"/><path d="M192.75796,216.18277l-2.17403,-4.99372" data-paper-data="{&quot;index&quot;:null}" fill="#2f3bd4" stroke="#2f3bd4" stroke-width="10" stroke-linecap="round"/><path d="M184.07667,214.4923c0,0 -2.52509,-2.38144 -7.55808,-0.36396c-2.50806,1.00536 -6.57619,6.35307 -6.57619,6.35307l-6.53729,-4.29921c0,0 9.62181,-12.66143 12.78194,-12.26615c4.02169,0.50306 9.42603,5.26591 9.42603,5.26591l-1.5364,5.31035z" data-paper-data="{&quot;index&quot;:null}" fill="#2f3bd4" stroke="#2f3bd4" stroke-width="10" stroke-linecap="butt"/><path d="M177.30331,204.79927l2.77264,7.44137" data-paper-data="{&quot;index&quot;:null}" fill="#2f3bd4" stroke="#2f3bd4" stroke-width="10" stroke-linecap="round"/><path d="M169.56764,209.86137l3.93075,5.45652" data-paper-data="{&quot;index&quot;:null}" fill="#2f3bd4" stroke="#2f3bd4" stroke-width="10" stroke-linecap="round"/><path d="M194.23463,230.83549c0,0 -4.2042,-1.90305 -5.94029,-3.18873c-1.81989,-1.34772 -4.73954,-4.72024 -4.73954,-4.72024l5.37427,-3.3402c0,0 2.18458,1.54538 4.80494,3.91282c1.26495,1.14286 2.9543,3.80615 2.9543,3.80615z" data-paper-data="{&quot;index&quot;:null}" fill="#2f3bd4" stroke="#2f3bd4" stroke-width="10" stroke-linecap="butt"/><path d="M180.15663,219.75467l-2.2712,-3.53399" data-paper-data="{&quot;index&quot;:null}" fill="#2f3bd4" stroke="#2f3bd4" stroke-width="10" stroke-linecap="round"/><path d="M174.24008,222.6593l-3.2704,-2.77545" data-paper-data="{&quot;index&quot;:null}" fill="#2f3bd4" stroke="#2f3bd4" stroke-width="10" stroke-linecap="round"/><path d="M212.87519,196.53096l-5.86914,0.74054l-0.74926,-6.04784l5.6194,1.23424l-0.24975,3.57935" data-paper-data="{&quot;index&quot;:null}" fill="#ffffff" stroke="#000000" stroke-width="3.5" stroke-linecap="round"/><g data-paper-data="{&quot;index&quot;:null}" fill="#2f3bd4" stroke="#2f3bd4" stroke-width="4" stroke-linecap="butt"><path d="M280.70319,191.38531c0,0 4.4915,10.46242 -2.99892,14.65612c-3.47393,1.94498 -20.91744,6.93106 -26.59088,3.46452c-12.35716,-7.55037 -14.53288,-16.5373 -14.53288,-16.5373c0,0 1.8312,-4.8474 4.20154,-6.01923c6.8031,-3.36325 10.14672,-0.16211 10.14672,-0.16211c0,0 1.47592,1.55314 2.73612,2.25947c1.38997,0.77907 5.25257,2.2181 5.25257,2.2181c0,0 14.04781,-8.04341 15.1283,-7.26422c0.48143,0.34718 6.65743,7.38469 6.65743,7.38469z"/><path d="M276.60102,188.11011c0,0 14.20861,-8.9673 20.12777,-8.69993c9.32303,0.42113 11.88336,10.33102 11.25029,11.89973c-1.98224,4.9118 -14.58959,14.1479 -14.58959,14.1479c-2.65085,1.57903 -9.47773,5.33917 -11.83158,5.9037c-3.70851,0.88944 -5.84516,-3.21861 -8.11762,-7.31156c-3.75097,-6.75592 -3.811,-12.06904 3.16074,-15.93984z"/></g><g data-paper-data="{&quot;index&quot;:null}" fill="#2f3bd4" stroke="#2f3bd4" stroke-width="4" stroke-linecap="butt"><path d="M286.41716,219.57292c0,0 0.21986,3.6341 -11.11129,6.60648c-17.24548,4.52382 -49.8379,9.06273 -60.82856,9.11486c-5.3211,0.02523 -11.16554,-3.27898 -15.97854,-5.29976c-10.69364,-4.4898 -12.17491,-9.21448 -12.17491,-9.21448c0,0 -1.55014,-4.88386 -0.5826,-6.97075c0.78545,-1.69417 5.71446,-0.98682 5.71446,-0.98682c0,0 43.95938,-6.92362 71.55949,-8.03702c1.1883,-0.04793 1.81684,4.2678 2.9201,4.21202c6.1094,-4.79912 15.10216,-5.86739 15.28147,-5.71861c4.41711,3.66513 5.20039,16.29405 5.20039,16.29405z"/><path d="M210.97907,210.88377c0,-1.81579 -1.50264,-8.71753 -1.50264,-8.71753c0,0 12.14012,-0.45527 26.82079,-0.45527c12.15193,0 21.17305,-3.6674 21.17305,-3.6674c0,0 5.94851,8.62686 6.36749,9.12105c0.95293,1.12396 0.59644,2.89877 0.59644,2.89877c0,0 -1.567,4.78993 -2.61516,7.2259c-1.28265,2.98095 -5.1703,11.247 -5.1703,11.247c0,0 -0.78377,1.54427 -1.90288,0.36709c-2.03611,-2.14176 -5.18233,-7.95618 -6.73819,-10.69361c-0.9509,-0.08125 -1.80371,-0.18483 -2.80271,-0.1173c-2.98131,0.20154 -6.18752,1.2349 -9.68271,1.30925c-4.36989,0.09296 -8.32145,0.10197 -11.71395,-0.53822c-7.94939,-1.50012 -12.82922,-4.98591 -12.82922,-7.97975z"/><path d="M242.32372,220.14332c0,0 4.68124,-3.75703 5.64056,-4.52793c1.10919,-0.89136 4.19937,-2.88296 4.19937,-2.88296c0,0 -1.07066,2.38441 -3.92578,5.73107c-3.06136,3.58844 -5.91415,1.6798 -5.91415,1.6798z"/></g><g data-paper-data="{&quot;index&quot;:null}" fill="#2f3bd4" stroke="#2f3bd4" stroke-width="4" stroke-linecap="butt"><g><path d="M268.27625,196.64914c0,0 -0.83804,11.39446 -19.36833,14.21863c-17.90553,2.72895 -28.07603,0.70395 -33.67317,-0.85649c-3.05381,-0.85138 -8.03409,-1.35627 -8.03409,-1.35627c0,0 -1.83299,-8.39487 -2.34231,-16.92912c-0.4712,-7.89534 0.38098,-15.83087 0.31958,-19.23694c-0.18953,-10.51391 4.05428,-8.29921 4.05428,-8.29921l32.42593,6.37336c0,0 -0.23312,2.99383 -1.0839,8.36091c8.68612,4.73065 27.47292,13.84022 27.702,17.72514z"/><path d="M246.10832,189.64932l0.50868,0.57509c0.05154,0.05757 0.09427,0.12277 0.1261,0.19362c0.49976,0.56704 0.98608,1.15876 1.46235,1.77415c3.95708,6.15402 0.52781,10.9635 -6.6195,11.61392c-8.00689,0.69894 -11.83262,-2.01348 -16.93226,-6.95526c-2.67091,-3.03095 -8.61376,-10.28681 -2.26887,-13.2185c0.759,-0.3507 2.21295,-0.45894 3.02635,-0.63404c3.5131,-0.66696 7.9352,-0.62057 11.27612,0.79794c1.30705,0.55496 2.71536,1.29569 3.94587,2.07973c0.29383,0.1735 0.67447,0.26366 0.95779,0.44907zM238.8579,189.37431c-0.61896,1.95508 -0.93339,4.31401 -1.46443,6.03448c-0.30319,0.88143 -1.54838,3.85438 -0.7036,4.60718c1.82362,1.62507 8.09788,-0.59563 8.73818,-2.72587c0,-3.81811 -3.18842,-6.13994 -6.57016,-7.91581zM235.57169,187.76862c-0.70401,-0.33585 -1.36947,-0.66025 -1.96406,-0.9835c-3.02474,-0.96226 -4.70176,-0.6542 -7.71992,0.27657c-0.61513,0.18971 -2.2464,0.34666 -2.37095,1.17114c-0.241,1.59536 1.20766,3.53772 2.02972,4.8123c0.92016,1.43744 4.1308,5.31187 6.19724,5.10808c0.34435,-0.03395 0.85863,-1.12745 0.97765,-1.34455c0.90405,-1.64905 1.08602,-3.6686 1.63702,-5.44593c0.23516,-1.13939 0.58137,-2.20143 1.06707,-3.26337l0.14623,-0.33075z"/></g><path d="M207.20206,176.02013c5.92625,-5.57684 7.68515,-3.14627 7.68515,-3.14627c0,0 -3.65226,27.56198 -5.61297,34.8839c-3.80038,0 -4.10165,-25.66614 -4.10165,-25.66614c0,0 0.59011,-4.71698 2.02947,-6.07148z"/></g><g data-paper-data="{&quot;index&quot;:null}" fill="#2f3bd4" stroke="#2f3bd4" stroke-width="4" stroke-linecap="butt"><path d="M192.27966,212.18451c-3.0638,-0.57973 -6.67429,-4.35797 -6.67429,-4.35797c0,0 -0.62719,0.07581 -0.8271,-1.6769c-0.15293,-1.34078 3.10908,-2.17282 3.98287,-4.25618c1.81878,-4.33647 2.04462,-10.21883 2.04462,-10.21883c0,0 -1.73923,-7.31608 3.58751,-8.71824c7.19558,-1.89409 11.74696,2.12826 11.74696,2.12826c0,0 3.0669,9.559 3.0669,13.95525c0,5.103 -1.60012,12.53389 -1.60012,12.53389c0,0 -11.2007,1.39158 -15.32735,0.61073z"/><path d="M191.20579,198.07077c0,0 0.50007,-2.68625 0.18744,-5.62626c-0.42276,-3.97583 0.26291,-9.03967 3.9462,-9.03967c3.84698,0 7.58247,-0.38136 9.98331,2.19918c1.49245,1.60416 1.7509,7.29815 1.7509,7.29815c0,0 -2.87873,2.31359 -8.93399,4.45793c-5.55166,1.966 -6.93385,0.71069 -6.93385,0.71069z"/></g><g data-paper-data="{&quot;index&quot;:null}" fill="#2f3bd4" stroke="#2f3bd4" stroke-width="4" stroke-linecap="butt"><path d="M188.69266,191.55449c-0.65552,-0.23884 -2.08666,-1.31697 -2.58396,-2.29827c-1.42237,-2.80672 4.03996,-7.71172 4.43101,-13.05716c0.40598,-5.54954 -2.8933,-11.76337 -1.75171,-14.27833c0.27829,-0.61307 2.8765,-1.83793 3.67508,-2.00901c8.63192,1.64755 21.46762,9.1054 21.46762,9.1054l-0.02098,5.67083c0,0 -12.22844,21.59912 -25.21705,16.86656z"/><path d="M212.3423,177.92456c0,0 -3.2107,10.95131 -14.35395,14.32123c-4.65569,1.40796 -12.47895,-0.47962 -12.47895,-0.47962c-3.42205,-1.75078 -0.83412,-7.93787 1.76814,-13.13638c0.78767,-1.57352 1.9571,-3.15923 1.44563,-6.7736c-0.6058,-4.28092 -3.50444,-11.32251 -3.50444,-11.32251c0,0 1.25173,-2.30194 2.54042,-0.9216c0.5661,0.60636 1.34328,4.23588 1.82067,5.1789c1.718,3.39366 2.71121,9.59087 2.31048,11.11867c-0.60251,2.29707 -4.67407,11.98721 -4.67407,11.98721c0,0 -0.37635,1.03158 0.01865,1.61838c1.33387,1.98159 6.0249,1.91576 8.53759,1.30422c6.05256,-1.47308 9.44538,-4.93817 12.10633,-7.86187c2.51529,-2.76365 4.46352,-5.03305 4.46352,-5.03305z"/></g><path d="M271.23908,237.82936c-1.60779,-1.63451 -1.48564,-3.72074 -0.86379,-5.0202c0.47812,-0.99911 1.35133,-1.43653 1.35133,-1.43653l4.87536,3.22836c0,0 -3.54051,4.64727 -5.36289,3.22836z" data-paper-data="{&quot;index&quot;:null}" fill="#2f3bd4" stroke="#2f3bd4" stroke-width="4" stroke-linecap="butt"/><g data-paper-data="{&quot;index&quot;:null}" fill="#2f3bd4" stroke="#2f3bd4" stroke-width="4" stroke-linecap="butt"><g><g><path d="M234.09997,242.64037c0,-5.61422 -0.64296,-16.67505 5.97858,-21.24284c1.64967,-1.13801 5.9504,-4.43219 9.68099,-0.94438c0.42451,0.39688 -0.73171,1.44813 0.03608,2.91795c0.28341,0.54257 2.1569,0.59917 2.64237,1.23738c1.53361,2.01604 4.8062,3.97597 5.50511,3.89525c2.22488,-5.3728 9.07157,-11.85782 11.34244,-12.35508c4.08074,-0.89359 19.56272,2.56187 19.3976,5.59051c0.49959,2.46403 -3.39358,6.52251 -3.39358,6.52251c0,0 16.28853,8.90662 22.38911,12.45132c10.50474,6.1037 10.7034,10.96357 10.7034,10.96357c0,0 0.63527,2.42813 -3.67238,3.65406c-8.44382,2.40304 -18.91755,3.10215 -31.20606,2.77552c-11.93942,-0.31734 -11.56966,-6.44227 -24.09847,-7.79006c-10.56399,-1.13644 -25.30518,1.6476 -25.30518,-7.67568z"/><path d="M298.96307,256.50544c0,0 -11.59833,1.21951 -17.44088,0.39436c-5.89537,-0.83261 -13.94812,-6.74989 -19.66627,-7.55323c-12.10132,-1.70011 -19.63467,0.33297 -22.7477,-1.72569c-0.20024,-0.13242 -4.92954,-1.86973 -4.30941,-7.55813c1.49076,-13.67461 7.65913,-15.75613 7.65913,-15.75613c0,0 7.13325,7.83417 15.49228,8.82079c1.63708,0.19322 0.50458,-2.61467 0.50458,-2.61467c0,0 -0.23846,-1.35017 0.14956,-2.24932c0.58108,-1.34653 2.99805,-5.04455 2.99805,-5.04455c0,0 0.78401,2.0222 2.98542,4.39836c2.65741,2.86835 7.73996,5.63867 13.00151,9.16318c5.84909,3.91808 15.66134,7.33658 18.00996,9.47912c2.55779,2.33334 3.36377,10.24588 3.36377,10.24588z"/><path d="M241.55781,229.83591c-1.46216,0 -2.17471,-0.41561 -2.17471,-1.83251c0,-1.41689 0.90166,-1.92413 2.36382,-1.92413c1.46215,0 1.9856,0.41561 1.9856,1.83251c0,1.41689 -0.71255,1.92413 -2.17471,1.92413z"/><path d="M255.36246,228.18665c0,0 1.19923,0.18325 5.29494,2.38227c3.33445,1.79029 5.48405,2.84038 5.48405,2.84038c0,0 -0.56053,1.20502 -5.9568,0.09163c-5.61702,-1.15893 -4.82218,-5.31427 -4.82218,-5.31427z"/></g><g><path d="M269.39469,240.50391c-1.7074,-1.18232 -2.05058,-3.61246 -1.68843,-5.08294c0.85922,-3.48884 3.80593,-5.57733 5.68872,-6.06188c7.97827,-2.0533 14.24839,-1.06024 14.10104,0.58148c-0.26551,2.9583 -6.05325,3.19801 -9.75722,5.77647c-1.87359,1.30427 -2.43631,2.72244 -3.55206,3.81202c-1.06518,1.04019 -2.87869,2.29981 -4.79205,0.97486z"/><path d="M268.49156,236.3565c0,-2.19175 1.91764,-3.21261 1.91764,-3.21261c0,0 0.87582,0.13299 2.42968,0.88985c2.03801,0.99269 2.7382,2.0708 2.7382,2.0708c0,0 -0.76044,0.80911 -1.4932,1.64912c-0.94373,1.08184 -1.29777,2.50839 -2.4396,2.50839c-2.02841,0 -3.15273,-1.71378 -3.15273,-3.90553z"/></g><g><path d="M277.51105,244.5946c-0.57023,-0.67497 0.68112,-4.98974 3.90002,-8.09541c7.64762,-7.37861 11.34351,-7.24363 12.78543,-4.80742c1.30465,2.20428 -4.36898,5.16323 -8.34686,9.05819c-3.55075,3.47672 -7.19821,5.19446 -8.33858,3.84463z"/><path d="M283.06211,241.95394c0,0 -3.00033,2.70574 -4.25219,2.28462c-0.77357,-0.26022 -0.20273,-3.46327 0.12673,-3.992c0.88137,-1.41448 2.23028,-1.87206 2.23028,-1.87206l3.56693,1.71715c0,0 -0.96856,1.29313 -1.67174,1.8623z"/></g><g><path d="M285.65378,248.5122c-2.88508,-1.5392 9.70948,-17.31926 14.19882,-13.88839c3.04272,2.32533 -2.88826,3.41624 -6.49878,7.64717c-3.18855,3.73643 -4.23491,8.08985 -7.70004,6.24121z"/><path d="M285.90143,247.10737c0,-1.75688 3.44036,-4.69382 3.44036,-4.69382l1.02764,1.71638c0,0 -1.20143,3.02655 -2.48561,4.01006c-1.06855,0.81834 -1.98237,0.02068 -1.98237,-1.03262z"/></g></g><g><path d="M288.5298,267.80437c-6.33614,0 -14.77679,-6.35643 -22.3666,-7.13331c-11.17507,-1.14385 -30.20994,-1.60558 -33.62685,-4.93499c-3.12579,-3.04574 -4.37291,-12.18178 0.25132,-12.82367c1.01381,6.08761 6.67904,6.60031 11.11895,6.70524c5.37359,0.127 12.77503,0.00426 18.65035,1.11775c10.40493,1.97194 16.02063,7.47787 23.95976,7.47787c13.64766,0 22.89286,-1.56129 28.06612,-3.26827c2.80914,-0.92692 3.70787,-2.35531 5.08447,-2.54981c1.80196,-0.2546 3.75537,3.94861 3.75537,3.94861c0,0 0.0197,4.19898 -4.5774,6.99732c-4.81169,2.92896 -14.58512,4.46324 -30.3155,4.46324z"/><path d="M232.49985,242.76989c0,0 -0.39684,1.6521 1.39854,3.82523c1.16955,1.41565 3.00409,3.12234 7.69047,4.21181c4.11458,0.95654 18.31249,0.1439 21.69289,1.04152c4.67681,1.24186 7.81971,3.0754 11.60167,4.68888c1.47861,0.63082 3.05492,1.52585 4.85878,1.89138c7.34125,1.48763 10.16941,1.11154 13.24117,0.97041c4.57573,-0.21025 7.33331,-0.75636 7.33331,-0.75636c0,0 1.00638,1.79547 0.45918,3.77816c-0.5472,1.98269 -2.07511,3.29992 -2.07511,3.29992c0,0 -4.63418,2.55119 -13.2027,0.17398c-4.85969,-1.34825 -5.96307,-1.67741 -15.21641,-5.67793c-4.78855,-2.07024 -28.33662,-2.33456 -32.65642,-4.05723c-1.27489,-0.50841 -3.34043,-0.59258 -4.09857,-0.99275c-2.56617,-1.35447 -1.53551,-2.65269 -2.14389,-4.62819c-1.13703,-3.69211 1.1171,-7.7688 1.1171,-7.7688z"/></g></g><g data-paper-data="{&quot;index&quot;:null}" fill="#2f3bd4" stroke="#2f3bd4" stroke-width="4" stroke-linecap="butt"><path d="M164.89226,244.06358c2.75076,-3.02799 10.94495,-7.73467 17.50114,-9.32598c-4.556,-2.56852 -10.99371,-4.39556 -11.15086,-6.28127c-0.49296,-5.91547 1.18331,-6.3128 3.31788,-7.81667c1.77845,-1.25298 16.33719,6.64249 16.33719,6.64249c0,0 1.03175,-5.01525 5.66005,-6.11374c3.97064,-0.94241 12.48984,1.85877 17.93618,3.40394c3.59836,1.02089 7.43652,2.67423 8.8389,5.54167c0.87612,1.79139 -0.86246,6.06548 0.75098,4.84672c4.09382,-3.09237 14.03179,-3.11102 16.77864,-0.95833c2.40445,1.88435 3.62076,7.03351 2.67617,9.37013c-0.3991,0.98726 -12.50011,0.18065 -12.27704,1.21226c0.44229,2.04534 -3.16119,4.68577 -2.84319,6.36184c0.84066,4.43086 2.39652,6.90116 2.39652,6.90116c0,0 1.66123,6.47939 -1.94645,9.43268c-4.63605,3.79512 -15.98042,4.27746 -29.63824,4.27746c-24.28607,0 -44.91961,-15.84623 -34.33783,-27.49437z"/><path d="M226.39359,241.61386c0,0 1.5738,-2.41601 6.8255,-3.40159c4.69922,-0.8819 8.77565,-0.75591 8.77565,-0.75591c0,0 0.39438,1.90081 0.68903,2.82632c0.32976,1.03582 -0.33342,2.69973 -0.33342,2.69973c0,0 -3.85468,0.47191 -9.06631,0.13787c-1.80248,-0.11553 -2.61874,0.40907 -3.49929,0.40787c-1.18733,-0.00163 -2.39387,-0.51322 -2.98198,-1.05203c-0.43073,-0.39462 -0.40918,-0.86226 -0.40918,-0.86226z"/><path d="M187.00069,231.2201c0,0 3.20949,-0.09278 4.61487,-1.78607c-0.23535,-3.20978 2.66917,-6.45315 4.93329,-7.06673c3.82157,-1.03568 13.95107,2.30159 13.95107,2.30159c0,0 0.46378,4.2279 0.70307,6.18922c0.27561,2.25898 0.3695,6.91322 0.3695,6.91322c0,0 -15.95757,0.38907 -19.5711,0.32388c-1.17358,-0.02117 -4.04959,0.82655 -4.04959,0.82655c0,0 -2.11341,-2.84657 -4.2907,-4.51504c-1.78268,-1.36609 -5.34411,-2.25021 -5.35462,-2.7445c-0.00447,-0.21006 -4.26376,-1.34596 -5.84963,-3.05201c-1.53615,-1.65256 -0.10946,-4.86984 0.77793,-4.7777c2.1148,0.21959 13.76588,7.38759 13.76588,7.38759z"/><path d="M176.55348,231.2797c0,0 -2.04125,-1.31935 -2.99709,-2.46332c-0.92639,-1.10875 -0.77689,-2.04184 -0.25315,-2.12614c2.97534,-0.4789 4.85711,2.28423 5.59504,3.96909c0.26521,0.60555 0.39469,1.83523 0.39469,1.83523c0,0 -1.31258,-1.21485 -2.73949,-1.21485z"/><path d="M234.1756,240.77358c0.09285,-0.87652 0.86052,-0.76491 3.29667,-0.76491c3.0862,0 3.85386,0.24836 3.85386,2.4747c0,1.63801 -2.3882,0.52779 -4.35011,-0.07578c-1.65086,-0.50787 -2.94568,-0.26291 -2.80041,-1.63402z"/><path d="M166.58916,244.70049c0,0 0.17503,4.78147 0.63003,6.27906c0.4268,1.40477 2.02076,4.08371 2.02076,4.08371c0,0 0.90913,-1.47149 1.83901,-2.63207c0.42742,-0.53347 0.34652,-1.19999 1.09738,-1.27358c5.00367,-0.49038 15.73555,2.26974 24.44505,3.18073c26.49848,2.77167 30.55226,13.03945 30.55226,13.03945c0,0 -6.65397,4.59845 -31.33232,3.3386c-7.63954,-0.39001 -16.3204,-1.62688 -22.65867,-4.71617c-6.09485,-2.97063 -8.5455,-5.322 -10.71452,-11.59015c-1.20053,-3.46937 1.04806,-7.22469 2.6549,-8.93366c0.685,-0.72853 1.46613,-0.77592 1.46613,-0.77592z"/><g><path d="M154.90898,249.67523c-0.06916,-0.54518 7.65698,-4.45517 7.65698,-4.45517c0,0 -2.11079,5.06123 0.23847,10.55133c2.70049,6.31094 10.98651,13.27383 30.01262,15.18867c10.56433,1.06323 30.33311,0.54507 36.82743,-4.93059c1.98898,-1.67701 3.2386,-4.91993 2.42195,-7.4766c-1.02696,-3.21509 -2.45075,-5.12287 -0.92591,-5.47627c2.37546,-0.55053 5.05868,5.62208 5.05868,9.06452c0,4.07129 -1.1215,7.32069 -4.14846,10.23298c-6.74759,6.492 -20.10667,7.86907 -36.9072,7.86907c-14.97446,0 -39.55559,-14.28849 -40.13062,-15.8361c-0.18577,-0.49999 0.53284,-9.71188 -0.10394,-14.73183z"/><path d="M156.12743,256.63132c0,0 7.11173,16.55945 33.67883,19.63336c41.26217,4.77417 44.61384,-9.15049 44.61384,-9.15049c0,0 -1.01849,3.45346 -6.69857,6.96426c-5.32676,3.29243 -14.68529,7.25114 -36.81359,4.67941c-10.76816,-1.25145 -19.83619,-5.64828 -25.71725,-9.15204c-5.61333,-3.34425 -9.11406,-5.8632 -9.11406,-5.8632z"/></g><g><g><path d="M183.64348,240.92537c-0.02718,-0.53599 6.03512,-5.06168 17.11315,-4.69509c17.91637,0.59287 22.9728,11.12352 22.41551,12.40241c-1.12165,2.57397 -9.18969,-5.68013 -23.33322,-6.86588c-11.04323,-0.92583 -16.11912,0.66391 -16.19544,-0.84145z"/><path d="M189.20959,240.35153l-1.31177,-1.38337c0,0 5.08384,-2.33569 7.92174,-2.30241c9.11009,0.10685 13.37583,1.90717 13.37583,1.90717l-2.54921,3.45841z"/></g><g><path d="M178.08123,246.28943c-0.21325,-0.28537 -0.60485,-1.82158 3.06471,-2.89678c3.09759,-0.90762 9.7631,-1.40152 15.03467,-1.40152c11.51653,0 25.12074,7.15908 24.21748,11.01752c-0.50984,2.17787 -10.96748,-4.00188 -22.48401,-4.00188c-11.51653,0 -19.20101,-1.87184 -19.83284,-2.71733z"/><path d="M201.52014,248.17607c0,0 -3.77478,-0.25143 -5.03234,-0.29134c-1.2407,-0.03937 -2.9039,0.22436 -2.9039,0.22436l-2.62699,-5.11142c0,0 5.33494,-0.3348 7.70104,0.01239c4.62156,0.67815 5.87975,1.10971 5.87975,1.10971l-3.01757,4.0563z"/></g><path d="M174.10445,250.78537c0,-0.68508 0.30626,-2.91142 3.49458,-3.08786c3.9304,-0.2175 11.24178,1.11164 18.37763,1.11164c7.01826,0 14.22609,1.93185 18.32299,4.01494c3.44771,1.75301 4.36497,3.55545 4.36497,4.97693c0,3.11061 -12.31275,-4.74296 -25.23717,-4.74296c-12.92441,0 -19.32299,-0.05136 -19.32299,-2.27268z"/></g></g><g data-paper-data="{&quot;index&quot;:null}" fill="#2f3bd4" stroke="#2f3bd4" stroke-width="4" stroke-linecap="butt"><path d="M180.47959,218.31518c-0.51176,-4.9573 1.80104,-8.09945 4.96615,-8.41341c1.77068,-0.17563 3.08912,2.46982 6.06946,1.4913c3.62754,-1.19101 6.05435,-6.58835 9.27654,-7.13336c3.57505,-0.60472 9.52202,6.26281 9.52202,6.26281c0,0 -0.54949,7.39627 -2.04933,13.56864c-1.57743,6.49163 -4.31027,11.67243 -7.25489,11.72132c-3.15422,0.05235 -19.38342,-6.39126 -20.52995,-17.49733z"/><path d="M209.06649,218.76689c0,0 -1.02612,3.8027 -1.40323,5.84312c-0.82985,4.48999 -3.27713,10.78026 -7.03866,11.00656c-2.17659,0.13096 -6.4573,-2.11235 -11.37505,-6.03386c-3.31006,-2.6395 -7.70535,-5.98007 -8.93729,-10.09204c-0.31568,-1.05367 1.46837,-2.70578 1.35221,-3.83094c9.48866,7.11721 14.64765,13.51581 16.06062,13.06925z"/><path d="M211.65515,211.73891c0,0 -7.83552,-6.81018 -10.09347,-7.08746c-0.46899,-0.05759 -6.68241,5.88412 -9.64091,7.44811c-0.51953,0.27464 -2.06089,0.50473 -3.38002,0.08138c-1.13044,-0.3628 -1.97942,-1.31157 -3.21441,-1.92795c-0.78343,0.42223 -4.72522,8.38813 -4.72522,8.38813c0,0 12.34641,16.75434 19.5018,16.48298c1.8412,-0.06982 4.41229,-2.49858 5.74325,-5.97229c1.01371,-2.64573 1.76026,-6.16981 2.52246,-8.60194c0.69604,-2.22101 1.45389,-3.47413 1.45389,-3.47413c0,0 -0.29925,4.36107 -1.10392,9.00809c-0.88865,5.13205 -4.276,11.38882 -8.87606,10.93375c-1.07377,-0.10623 -5.15203,-1.34035 -8.12653,-3.61085c-6.35905,-4.85403 -13.17123,-13.03589 -13.46537,-15.15087c-0.15163,-1.09036 1.63736,-3.6483 2.39826,-4.98269c1.02457,-1.79682 2.15047,-4.1339 4.8963,-5.0274c1.45732,-0.47421 3.74031,2.12673 5.18671,1.57101c4.5662,-1.75434 8.5361,-8.10961 11.26272,-8.03763c2.72662,0.07196 9.66051,9.95978 9.66051,9.95978z"/></g><g data-paper-data="{&quot;index&quot;:null}" stroke="#000000"><path d="M201.11477,188.39552l-5.60974,-11.27716c0,0 2.30805,-2.32561 4.2088,-2.7143c1.76575,-0.36108 3.5878,2.05645 3.5878,2.05645l3.23273,11.74705z" fill="#ffffff" stroke-width="3.5" stroke-linecap="butt"/><path d="M202.96735,188.36052l0.12169,-4.08968l-2.19055,-3.1274l1.46037,-4.69111" fill="none" stroke-width="1.5" stroke-linecap="round"/><path d="M200.8985,180.90287l-3.28584,-0.24057" fill="none" stroke-width="1.5" stroke-linecap="round"/></g><path d="M328.72577,175.48642c0.7254,4.03584 0.09122,7.03534 -2.37133,9.20408c-2.15598,1.89875 -5.98792,3.00171 -7.88158,5.72264c-1.44354,2.07417 -1.80741,4.57847 -2.05514,8.25261c-9.61865,1.72883 -7.45342,-3.38245 -9.29802,-13.64519c-11.81055,-4.60522 -4.43593,-20.91333 -4.43593,-20.91333c0,0 3.95222,9.20129 7.82654,12.43868c3.34062,2.79141 17.3614,-5.81129 18.21547,-1.0595z" data-paper-data="{&quot;index&quot;:null}" fill="#ffffff" stroke="#000000" stroke-width="3.5" stroke-linecap="butt"/><g><path d="M336.58248,202.18059c0.802,3.15182 0.35309,7.87201 -1.87598,11.14019c-1.11686,1.63751 -3.23897,3.05259 -4.75437,3.4382c-2.22738,0.56677 -4.4043,-0.2848 -6.23459,-2.04798c-1.90025,-1.83057 -3.42318,-4.62926 -4.03639,-7.03914c-1.20385,-4.73103 -12.49541,-46.04169 -7.95552,-47.19689c2.0877,-0.53123 11.4929,-18.81594 16.79094,-10.00654c6.22303,10.34745 7.41566,49.15673 8.06591,51.71217z" fill="#2d2f45" stroke="#000000" stroke-width="3" stroke-linecap="butt"/><g stroke-linecap="butt"><path d="M319.45611,152.70482c8.22522,-2.09297 16.01336,0.61305 17.39532,6.04404c1.38196,5.43099 -4.1656,11.53039 -12.39079,13.62335c-8.2252,2.09297 -16.01335,-0.61305 -17.39531,-6.04405c-1.38196,-5.43099 4.16561,-11.53038 12.3908,-13.62333z" fill="#485e84" stroke="#000000" stroke-width="3"/><path d="M329.92277,163.12607l5.93677,-4.69729c0,0 -0.44279,3.79443 -1.21779,5.19533c-1.66801,2.91246 -4.57353,4.41834 -4.57353,4.41834z" fill="#8fbbbe" stroke="none" stroke-width="0"/><path d="M323.75768,166.32951l2.8478,-1.33162c0,0 0.69301,1.85299 0.82028,2.53401c0.14901,0.79741 -0.00719,2.31496 -0.00719,2.31496l-3.57059,1.01203z" fill="#8fbbbe" stroke="none" stroke-width="0"/></g><g><path d="M300.08788,151.25717c-2.88729,-11.34685 4.552,-23.03385 15.89886,-25.92115c11.34686,-2.88728 21.42704,3.10351 24.31433,14.45037c2.88729,11.34685 -6.64166,22.12097 -17.98851,25.00826c-11.34685,2.88729 -19.33738,-2.19063 -22.22469,-13.53748z" fill="#343545" stroke="#000000" stroke-width="3" stroke-linecap="butt"/><path d="M320.23788,125.94143c0,0 15.94405,0.85049 18.47022,10.77812c1.43252,5.62966 0.17647,12.162 -2.15671,17.30311c-1.66227,3.66277 -4.83704,6.77812 -8.84788,7.79871c-8.24426,2.09781 -12.11029,-0.82744 -14.63646,-10.75506c-1.26155,-4.95779 0.09168,-11.78558 2.58783,-16.75598c2.5022,-4.98251 4.583,-8.36891 4.583,-8.36891z" fill="#485e84" stroke="none" stroke-width="0" stroke-linecap="butt"/><path d="M339.69987,140.07175c0,0 -3.62006,9.21035 -16.62544,13.01777c-13.11196,3.8386 -22.00241,-2.31229 -22.00241,-2.31229" fill="none" stroke="#000000" stroke-width="1.6" stroke-linecap="round"/><path d="M339.62737,149.68893c0,0 -6.58735,6.30479 -14.58399,9.67594c-11.52423,4.85827 -17.20665,2.13296 -17.20665,2.13296" fill="none" stroke="#000000" stroke-width="1.6" stroke-linecap="round"/><path d="M335.66027,131.74086c0,0 -4.27393,8.13516 -17.07736,12.67958c-12.31461,4.37092 -17.12905,1.42379 -17.12905,1.42379" fill="none" stroke="#000000" stroke-width="1.6" stroke-linecap="round"/><path d="M301.38812,140.79607c0,0 6.25778,-4.34042 12.19487,-7.63375c7.82003,-4.33781 16.51414,-6.45439 16.51414,-6.45439" fill="none" stroke="#000000" stroke-width="1.6" stroke-linecap="round"/><path d="M317.57867,164.41819c0,0 -6.19067,-5.13122 -9.7162,-16.96512c-3.28992,-11.04302 0.97054,-17.40475 0.97054,-17.40475" fill="none" stroke="#000000" stroke-width="1.6" stroke-linecap="round"/><path d="M312.85909,128.42397c0,0 1.06616,5.76256 3.18627,11.80329c1.86444,5.31228 4.74178,10.76217 5.69081,13.76916c1.12719,3.5715 2.26975,9.74622 2.26975,9.74622" fill="none" stroke="#000000" stroke-width="1.6" stroke-linecap="round"/><path d="M317.78467,126.09075c0,0 8.11387,7.29994 10.31492,15.03236c3.45464,12.13635 1.03261,21.07513 1.03261,21.07513" fill="none" stroke="#000000" stroke-width="1.6" stroke-linecap="round"/><path d="M324.54994,125.32915c0,0 6.1645,5.05496 9.40482,12.44093c4.66621,10.6361 3.32621,17.31529 3.32621,17.31529" fill="none" stroke="#000000" stroke-width="1.6" stroke-linecap="round"/><path d="M334.35675,136.99191c-0.23754,-0.93354 0.22577,-1.85722 1.03483,-2.06309c0.80907,-0.20587 1.65751,0.38402 1.89506,1.31756c0.23754,0.93354 -0.22576,1.85722 -1.03483,2.06309c-0.80907,0.20587 -1.65751,-0.38402 -1.89506,-1.31756z" fill="#8fbbbe" stroke="none" stroke-width="0" stroke-linecap="butt"/><path d="M331.95186,131.7846c-0.11877,-0.46677 0.16335,-0.94145 0.6301,-1.06021c0.46677,-0.11877 0.94145,0.16335 1.06021,0.6301c0.11877,0.46677 -0.16334,0.94145 -0.6301,1.06021c-0.46677,0.11877 -0.94146,-0.16335 -1.06022,-0.6301z" fill="#8fbbbe" stroke="none" stroke-width="0" stroke-linecap="butt"/></g><path d="M322.1088,202.84597c-0.76736,-5.19225 -2.06762,-19.84974 -3.85925,-25.99483c-0.34952,-1.19881 11.71837,-2.12404 11.78358,-2.17017c2.97497,11.79947 3.8343,16.86737 3.10007,28.00696c-0.45852,6.9565 -10.62354,2.8705 -11.0244,0.15805z" fill="#494c70" stroke="none" stroke-width="0" stroke-linecap="butt"/></g><path d="M348.06348,175.06508c0,0 0.12367,2.26745 -0.33096,3.55209c-0.71693,2.02583 -3.55465,7.42749 -3.55465,7.42749c0,0 -8.68179,-0.48731 -10.64688,-2.15698c-1.90969,-1.62262 -1.48496,-8.93913 -1.48496,-8.93913c0,0 2.83497,-3.14353 7.71296,-3.17939c3.2103,-0.02361 7.46461,1.10159 8.30449,3.29592z" data-paper-data="{&quot;index&quot;:null}" fill="#ffffff" stroke="#000000" stroke-width="3.5" stroke-linecap="butt"/><path d="M327.89381,192.78332c2.00823,-1.06505 4.53233,0.39328 7.06627,1.72984c2.52997,1.33445 5.07102,2.54429 5.53112,5.10415c0.74247,4.13086 -3.50918,7.10056 -7.67625,6.92632c-3.36039,-0.14049 -6.59834,-2.63067 -7.63879,-5.84963c-0.26267,-0.81266 -1.37973,-5.73768 2.71764,-7.91071z" data-paper-data="{&quot;index&quot;:null}" fill="#ffffff" stroke="#000000" stroke-width="3.5" stroke-linecap="butt"/><path d="M344.41815,185.27973l-5.15108,-8.16961" data-paper-data="{&quot;index&quot;:null}" fill="none" stroke="#000000" stroke-width="1.5" stroke-linecap="round"/><path d="M274.28217,202.32682l-0.03412,-5.86639l3.62474,-1.06749l0.97412,6.21888z" data-paper-data="{&quot;index&quot;:null}" fill="#ffffff" stroke="#000000" stroke-width="3.5" stroke-linecap="butt"/><g data-paper-data="{&quot;index&quot;:null}" stroke="#000000"><path d="M257.03493,201.15558l0.1259,-7.2657l13.6989,2.72652l0.48063,6.29616z" fill="#ffffff" stroke-width="3.5" stroke-linecap="butt"/><path d="M263.84264,200.98627l1.66781,-4.70492" fill="none" stroke-width="1.5" stroke-linecap="round"/><path d="M260.30455,195.75334l3.33997,3.30046" fill="none" stroke-width="1.5" stroke-linecap="round"/></g><g data-paper-data="{&quot;index&quot;:null}" stroke="#000000"><path d="M288.1862,206.19027c0,0 -2.46078,0.20045 -3.22487,-0.06224c-1.05511,-0.36274 -2.51941,-1.91258 -2.51941,-1.91258l8.36666,-20.73552c0,0 3.20139,1.46839 4.76485,2.36633c1.51532,0.8703 4.47595,2.94098 4.47595,2.94098c0,0 -1.98809,5.58269 -3.53865,7.83155c-2.10614,3.05465 -8.32453,9.57146 -8.32453,9.57146z" fill="#ffffff" stroke-width="3.5" stroke-linecap="butt"/><path d="M294.47978,185.7904l-1.44614,3.77757l-2.16921,5.00273l0.72307,2.8587l-3.71866,4.69644l-2.89228,-2.04194" fill="none" stroke-width="1.5" stroke-linecap="round"/></g><g data-paper-data="{&quot;index&quot;:null}"><path d="M253.01988,215.90414c-2.96121,2.10396 -10.06817,-3.88055 -12.91787,-4.13806c-2.22587,-0.20113 -3.21306,6.91425 -5.65176,6.81947c-12.19277,-0.47383 -22.34717,-11.11123 -22.34717,-11.11123l1.01187,-7.96099c0,0 -0.17805,-3.70647 -0.89045,-6.56204c-0.38007,-1.52343 -4.1415,0.40936 -4.7333,-2.34297c-0.31708,-1.47464 1.39307,-1.52717 1.3718,-3.40583c-0.04796,-4.23862 -1.83404,-10.56634 -1.83404,-10.56634c0,0 8.94133,1.47235 17.26412,2.05331c10.50468,0.73326 21.11243,0.80589 23.6527,3.1753c0.92804,0.86561 0.25876,7.84619 0.25876,7.84619c0,0 4.47309,1.91384 5.4278,4.33763c0.54712,1.38902 -0.96819,6.93526 -0.96819,6.93526c0,0 14.90214,4.58499 0.35573,14.92027z" fill="#ffffff" stroke="#000000" stroke-width="3.5" stroke-linecap="butt"/><path d="M248.98774,194.85208c0.09487,5.15676 -12.65008,12.44339 -13.42333,4.80065c-0.42235,-4.1744 3.07825,-5.17352 6.55415,-5.93408c0.47856,-0.10471 0.86803,-1.03394 1.41474,-1.22692c0.89609,-0.31632 2.0971,-0.09062 3.17201,0.41643c0.95188,0.0733 1.74731,0.69756 2.06014,1.55043c0.08877,0.11139 0.16835,0.22441 0.2375,0.33833z" fill="#000000" stroke="none" stroke-width="0.5" stroke-linecap="butt"/><path d="M252.04544,203.39105c0.27321,0.15431 0.44203,1.63973 0.50095,2.11286c0.45615,3.66227 -3.43107,6.05318 -6.59393,6.63103c-2.30738,0.42155 -3.28458,-3.34002 -2.25475,-4.78626c0.6299,-0.88459 1.2694,-1.86323 2.17154,-2.51418c0.7189,-0.51873 1.35735,-0.96048 2.01967,-1.3821c0.64409,-0.41001 1.31077,-0.80098 2.09597,-1.22516z" fill="#000000" stroke="none" stroke-width="0.5" stroke-linecap="butt"/><path d="M214.01527,192.49205c3.44162,-0.85041 13.70257,1.01315 17.40814,4.66754c0.75788,0.39639 1.27427,1.18366 1.27427,2.09017c0,1.30515 -1.07047,2.3632 -2.39096,2.3632c-0.96993,0 -1.80497,-0.57084 -2.17998,-1.39115c-0.20587,-0.08204 -0.41215,-0.09144 -0.62206,0.0218c-1.15883,0.62515 -2.65944,0.78591 -3.9346,0.44798c-1.72151,-0.45621 -2.98477,-0.9521 -4.53769,-1.9131c-0.21467,-0.13285 -5.51327,-2.02709 -5.60884,-2.19241c-0.65203,-1.12779 -1.55133,-3.56451 0.59174,-4.09405z" fill="#000000" stroke="none" stroke-width="0.5" stroke-linecap="butt"/><path d="M230.39037,210.29606c-0.70261,0.46297 -2.80702,-1.09855 -3.48506,-1.47799c-3.22673,-1.80571 -8.07366,-2.05332 -8.78665,-6.40976c-0.36386,-2.22323 3.67873,-1.35556 4.62243,-1.06706c2.2677,0.69329 6.21802,2.30727 8.41486,4.41929c0.7064,0.67912 1.2315,1.40975 1.46104,2.1778z" fill="#000000" stroke="none" stroke-width="0.5" stroke-linecap="butt"/><path d="M241.04283,185.02788c3.34507,-2.8339 7.12144,1.26976 4.20749,4.13904c-0.6104,0.60105 -9.33342,8.17213 -9.12654,1.90152c0.06909,-2.09413 3.1845,-4.45644 4.58949,-5.84511z" fill="#000000" stroke="none" stroke-width="0.5" stroke-linecap="butt"/><path d="M230.26907,197.69214l1.87314,-6.17128" fill="none" stroke="#000000" stroke-width="1.5" stroke-linecap="round"/><path d="M224.64965,193.98937v-3.82619" fill="none" stroke="#000000" stroke-width="1.5" stroke-linecap="round"/><path d="M246.25312,205.0977l-2.74727,-1.23426v-3.33248" fill="none" stroke="#000000" stroke-width="1.5" stroke-linecap="round"/><path d="M224.52476,212.62665l0.12488,-6.29471" fill="none" stroke="#000000" stroke-width="1.5" stroke-linecap="round"/><path d="M220.40387,211.76267l3.62139,-2.96222" fill="none" stroke="#000000" stroke-width="1.5" stroke-linecap="round"/><path d="M237.35297,226.54791l-11.94951,-1.66137l-2.0372,-9.20476c0,0 5.39288,2.67339 9.78619,1.76625c3.07639,-0.63521 5.11876,-4.9808 6.79925,-4.87971c2.34303,0.14097 5.72667,4.45583 5.72667,4.45583l3.49233,3.73942z" fill="#ffffff" stroke="#000000" stroke-width="3.5" stroke-linecap="butt"/><path d="M245.74307,220.35875c-0.71174,2.11048 -2.93606,1.7891 -4.50759,0.8871c-0.4286,-0.16195 -0.79799,-0.44231 -1.0672,-0.80059c-0.51393,-0.51522 -0.74912,-1.0515 -0.47019,-1.40759c0,-1.30515 1.07047,-2.3632 2.39095,-2.3632c0.20698,0 0.4078,0.02599 0.59936,0.07486c2.27269,-0.61263 3.83527,1.29478 3.05467,3.6094z" fill="#000000" stroke="none" stroke-width="0.5" stroke-linecap="butt"/><path d="M227.46004,222.74086c0.20384,-1.80661 1.22057,-2.45024 2.36981,-2.39582c0.30584,-0.14042 0.64673,-0.2188 1.00615,-0.2188c1.32048,0 2.39095,1.05806 2.39095,2.36321c0,0.78016 -0.38247,1.47202 -0.97221,1.90239c-1.24901,1.93995 -5.0728,0.81379 -4.79471,-1.65095z" fill="#000000" stroke="none" stroke-width="0.5" stroke-linecap="butt"/></g><path d="M214.74911,184.12013c0.07774,-0.06102 0.24227,-0.07697 0.45982,-0.06237c-0.03147,0.06099 -0.05122,0.13751 -0.05122,0.23356c0,0.47264 0.47818,0.47265 0.47818,0.47265l0.82001,-0.00609c2.2303,0.7348 4.66608,1.05066 6.98408,1.61667c0.82692,0.20192 2.01913,0.03264 2.68999,0.52553c0,0 0.24421,0.1609 0.47752,0.04152c0.00172,0.00027 0.00343,0.00057 0.00516,0.00083c0.54958,0.27008 1.05208,0.57626 1.48301,0.92568c0.85422,0.36048 1.45292,1.19834 1.45292,2.17439c0,1.30515 -1.07047,2.36321 -2.39096,2.36321c-0.05932,0 -0.11813,-0.00214 -0.17635,-0.00634c-2.20269,-0.09868 -4.15276,-0.91979 -6.27418,-1.80857c-1.74235,-0.72998 -3.61345,-1.15296 -5.43783,-1.60376c-3.04805,-0.75318 -2.56639,-3.26086 -0.52016,-4.86694z" data-paper-data="{&quot;index&quot;:null}" fill="#000000" stroke="none" stroke-width="0.5" stroke-linecap="butt"/><path d="M193.36737,166.06659l-1.59255,-3.12982l2.39502,-5.21566" data-paper-data="{&quot;index&quot;:null}" fill="none" stroke="#000000" stroke-width="1.5" stroke-linecap="round"/><path d="M267.45803,163.42613l-1.29266,1.56158" data-paper-data="{&quot;index&quot;:null}" fill="none" stroke="#000000" stroke-width="1.5" stroke-linecap="round"/><path d="M316.2615,255.72523c1.05561,1.0417 0.9525,3.01467 -0.23029,4.40679c-1.18278,1.3921 -2.99737,1.67618 -4.05297,0.63449c-1.05561,-1.04169 -0.9525,-3.01468 0.23029,-4.4068c1.18279,-1.39211 2.99738,-1.67618 4.05298,-0.63449z" data-paper-data="{&quot;index&quot;:null}" fill="#ffffff" stroke="#000000" stroke-width="3.5" stroke-linecap="butt"/><path d="M304.17643,258.00613c0,0 1.57125,-2.76021 1.96301,-4.30908c0.38416,-1.51879 0.36521,-4.89567 0.36521,-4.89567c0,0 1.66442,-1.30356 4.3649,0.32259c3.64922,2.19747 3.0078,5.04685 3.0078,5.04685l-4.17139,5.0818z" data-paper-data="{&quot;index&quot;:null}" fill="#ffffff" stroke="#000000" stroke-width="3.5" stroke-linecap="butt"/><path d="M295.83366,245.15785c5.46483,0 9.89494,3.69183 9.89494,8.24593c0,4.5541 -2.32823,6.23238 -2.32823,6.23238c0,0 -11.12675,0.0198 -14.06205,-1.96154c-2.00132,-1.35089 -1.84746,-8.77735 -1.84746,-8.77735c0,0 2.87796,-3.73944 8.34279,-3.73944z" data-paper-data="{&quot;index&quot;:null}" fill="#ffffff" stroke="#000000" stroke-width="3.5" stroke-linecap="butt"/><path d="M239.93027,236.73017c2.05066,-0.71459 7.73057,-6.44458 7.73057,-6.44458l9.1908,-0.22289c0,0 -1.16003,3.7444 -0.407,3.7444c3.91472,0 4.55858,2.45982 6.30842,3.85779c2.29923,1.83686 4.66628,2.73322 4.66628,2.73322c0,0 3.23369,-0.54122 6.9943,0.00555c5.62199,0.81742 12.5397,3.01583 12.5397,4.65229c0,0.60426 0.30779,5.06878 0.16175,5.64047c-1.55733,6.09663 -11.60184,6.36462 -25.12343,6.36462c-0.61323,-1.17712 -2.90935,-3.33531 -6.13775,-3.87075c-4.19589,-0.69589 -9.63702,0.37213 -11.61949,-0.14115c-4.59803,-1.19047 -11.5868,-1.14184 -13.86651,-3.59542c-2.66161,-2.8646 -0.22389,-8.1789 -0.22389,-8.1789c0,0 3.77808,-2.45101 9.78625,-4.54466z" data-paper-data="{&quot;index&quot;:null}" fill="#ffffff" stroke="#000000" stroke-width="3.5" stroke-linecap="butt"/><path d="M257.20973,233.52352c0,0 -4.59109,2.95771 -7.95866,3.81819c-8.5297,2.17948 -13.56002,1.09727 -13.56002,1.09727" data-paper-data="{&quot;index&quot;:null}" fill="none" stroke="#000000" stroke-width="3.5" stroke-linecap="round"/><path d="M300.97513,257.19115c-0.90237,3.89732 -3.57004,2.15737 -9.4099,2.15737c-5.83986,0 -11.05904,-6.4721 -11.05904,-6.4721c0,0 3.09161,-2.67148 3.25669,-2.81064c0.87932,-0.74124 3.66158,0.07796 8.57844,0.07796c5.83986,0 9.60391,2.85755 8.63382,7.04739z" data-paper-data="{&quot;index&quot;:null}" fill="#ffffff" stroke="#000000" stroke-width="3.5" stroke-linecap="butt"/><path d="M292.43833,257.33497l1.35812,-3.45178l4.17139,-1.82178" data-paper-data="{&quot;index&quot;:null}" fill="none" stroke="#000000" stroke-width="1.5" stroke-linecap="round"/><path d="M262.40563,256.56798l0.67745,-12.18645l4.60667,-4.41925" data-paper-data="{&quot;index&quot;:null}" fill="none" stroke="#000000" stroke-width="1.5" stroke-linecap="round"/><path d="M262.67661,249.33645l-3.65823,3.0801" data-paper-data="{&quot;index&quot;:null}" fill="none" stroke="#000000" stroke-width="1.5" stroke-linecap="round"/><path d="M250.61797,248.53295l-7.85842,-4.15143l1.08392,-4.82101" data-paper-data="{&quot;index&quot;:null}" fill="none" stroke="#000000" stroke-width="1.5" stroke-linecap="round"/><path d="M243.03053,244.51543l0.13549,7.7672" data-paper-data="{&quot;index&quot;:null}" fill="none" stroke="#000000" stroke-width="1.5" stroke-linecap="round"/><path d="M250.48249,246.25637l-2.03235,0.93742" data-paper-data="{&quot;index&quot;:null}" fill="none" stroke="#000000" stroke-width="1.5" stroke-linecap="round"/><path d="M285.43816,251.23164c0.80415,3.97406 -1.77614,3.61372 -3.75092,3.02288l0.20194,0.25662l-0.8876,2.21413l-1.1412,0.45953l-0.72307,0.10211l-0.17119,-0.0175l-0.16695,0.04126h-1.85934l-0.19387,-0.04791l-0.19921,0.01575l-1.23955,-0.20418l-0.2379,-0.10223l-0.25701,-0.03464l-0.51647,-0.20419l-0.28524,-0.2036l-0.16338,-0.00896l-0.24508,-0.2826l-0.30529,-0.21794l-0.02261,-0.16018l-0.2017,-0.23259l-0.55807,-0.15514l-0.27477,-0.50922l-0.12409,-0.08177l0.00755,-0.13421l-0.18858,-0.34948l-0.10329,-0.40838v-0.12405l-0.04735,-0.11489l-0.1033,-0.71469l0.01771,-0.16918l-0.04173,-0.16502v-1.42934l0.0246,-0.09729l-0.01635,-0.09896l0.1033,-1.22516l0.02892,-0.08395l-0.00792,-0.08837l0.30133,-1.8862l0.08261,-0.73482v-0.48169l0.29887,-1.1816l0.2122,-0.11983l0.04144,-0.23805l1.02138,-0.68144l0.40763,-0.14652l0.02807,-0.11297l0.22134,-0.12621l0.16629,-0.19175l0.18811,-0.01034l0.49166,-0.28033l0.72307,-0.20418l0.30663,-0.01012l0.29588,-0.08021l4.50934,-0.1013l1.75378,-0.09123l1.33098,-0.2631c0.16658,-0.03632 0.33968,-0.05547 0.51731,-0.05547c0.24068,0 0.47305,0.03514 0.69216,0.10053l0.06982,0.00328l0.02348,0.02666c0.93467,0.3212 1.60552,1.19952 1.60552,2.23274c0,0.69976 -0.30772,1.32849 -0.7967,1.7612l-0.01171,0.03471l-0.06524,0.03056c-0.16515,0.13417 -0.34882,0.24691 -0.54663,0.33387l0.07742,0.177l-0.37834,0.88814l-0.00773,0.13751l-0.07957,0.06743l-0.01254,0.02943l-0.30989,0.40839l-0.30327,0.24355l-0.25935,0.28889l-0.2519,0.17036c0.6234,0.41983 1.16809,0.93679 1.30563,1.61652z" data-paper-data="{&quot;index&quot;:null}" fill="#000000" stroke="none" stroke-width="0.5" stroke-linecap="butt"/><g data-paper-data="{&quot;index&quot;:null}" stroke="#000000"><path d="M252.43373,229.16945c0,0 3.02975,-5.82805 4.93187,-7.97552c2.6378,-2.97803 4.08999,-2.76338 4.08999,-2.76338c0,0 1.68112,2.24338 2.19992,3.63926c0.6253,1.68247 0.71036,5.66139 0.71036,5.66139z" fill="#ffffff" stroke-width="3.5" stroke-linecap="butt"/><path d="M245.44306,225.07613l6.76694,-8.00704l4.29881,1.89684l-3.4544,6.67684z" fill="#ffffff" stroke-width="3.5" stroke-linecap="butt"/><path d="M259.1188,227.69135l2.84028,-6.06985" fill="none" stroke-width="1.5" stroke-linecap="round"/><path d="M258.04411,221.318l2.45646,2.35207" fill="none" stroke-width="1.5" stroke-linecap="round"/></g><path d="M207.23349,233.34827c2.43446,3.08889 4.74551,7.97506 2.2881,9.86712c-2.4574,1.89206 -7.77179,-0.53247 -10.20625,-3.62137c-2.43445,-3.08889 -1.43493,-6.88436 1.02248,-8.77641c2.4574,-1.89206 4.46122,-0.55823 6.89568,2.53066z" data-paper-data="{&quot;index&quot;:null}" fill="none" stroke="#000000" stroke-width="3.5" stroke-linecap="butt"/><path d="M174.33759,249.80201c0,0 7.7694,-5.54582 11.76269,-8.29063c4.05734,-2.78884 12.39219,-8.3124 12.39219,-8.3124c0,0 5.67754,-9.97972 15.91171,-3.02167c6.80871,4.62913 10.20498,9.80832 10.20498,9.80832c0,0 -2.31592,3.6756 -2.40062,6.31112c-0.04925,1.53242 4.02731,9.1224 4.09692,12.11302c0.18213,7.82357 -3.41287,13.20646 -3.41287,13.20646z" data-paper-data="{&quot;index&quot;:null}" fill="#ffffff" stroke="#000000" stroke-width="3.5" stroke-linecap="butt"/><path d="M181.64304,258.63129c-3.60284,5.02358 -6.84794,4.96914 -10.27315,2.56932c-3.42522,-2.39981 -2.05509,-6.5998 1.54775,-11.62338c1.20936,-1.68623 2.97849,-1.75192 4.49922,-2.14666c1.9072,-0.49504 4.12478,-0.58862 6.2644,0.91046c3.42522,2.39982 1.56464,5.26671 -2.0382,10.29029z" data-paper-data="{&quot;index&quot;:null}" fill="#ffffff" stroke="#000000" stroke-width="3.5" stroke-linecap="butt"/><path d="M197.26638,257.92176c0,5.01985 -2.53065,9.6952 -6.55983,9.6952c-2.3629,0 -5.19132,-0.37681 -6.3153,-2.2021c-0.79261,-1.28718 -0.24452,-3.59929 -0.24452,-5.67526c0,-5.01985 3.02108,-11.75542 9.50256,-9.21043c3.74454,1.47032 3.6171,2.37273 3.6171,7.39258z" data-paper-data="{&quot;index&quot;:null}" fill="#ffffff" stroke="#000000" stroke-width="3.5" stroke-linecap="butt"/><path d="M193.8332,267.37458c0,0 3.42919,-17.45134 7.35681,-17.45134c3.92763,0 6.37592,4.46545 6.37592,10.42233c0,5.9569 -1.8392,9.93757 -1.8392,9.93757c0,0 -3.26337,0.7921 -8.17002,-0.5437c-3.30678,-0.90025 -3.7235,-2.36488 -3.7235,-2.36488z" data-paper-data="{&quot;index&quot;:null}" fill="#ffffff" stroke="#000000" stroke-width="3.5" stroke-linecap="butt"/><path d="M209.45247,271.28977c0,0 -2.45968,-19.19206 2.356,-21.25398c4.81568,-2.06191 10.2455,2.50835 13.48911,9.90903c1.39126,3.17426 4.3841,8.97997 4.3841,8.97997c0,0 -3.86733,4.43104 -6.61749,5.60857c-4.81568,2.06193 -13.61173,-3.24358 -13.61173,-3.24358z" data-paper-data="{&quot;index&quot;:null}" fill="#ffffff" stroke="#000000" stroke-width="3.5" stroke-linecap="butt"/><path d="M221.2136,246.83949l-6.26167,0.53354l8.52883,-9.07006" data-paper-data="{&quot;index&quot;:null}" fill="none" stroke="#000000" stroke-width="1.5" stroke-linecap="round"/><path d="M188.93356,240.3304l6.58554,4.26826l-0.64775,3.20118" data-paper-data="{&quot;index&quot;:null}" fill="none" stroke="#000000" stroke-width="1.5" stroke-linecap="round"/><path d="M192.60417,237.55601l0.97165,5.22863" data-paper-data="{&quot;index&quot;:null}" fill="none" stroke="#000000" stroke-width="1.5" stroke-linecap="round"/><path d="M222.08989,269.0368l-4.02854,-3.36919l-2.78899,-1.73564l-0.61978,-5.71741l2.16922,-6.53417" data-paper-data="{&quot;index&quot;:null}" fill="none" stroke="#000000" stroke-width="1.5" stroke-linecap="round"/><path d="M215.37568,264.03407l-3.82194,3.16499" data-paper-data="{&quot;index&quot;:null}" fill="none" stroke="#000000" stroke-width="1.5" stroke-linecap="round"/><path d="M196.47251,267.70954l4.02855,-6.22789h3.92524l1.65275,-4.18596" data-paper-data="{&quot;index&quot;:null}" fill="none" stroke="#000000" stroke-width="1.5" stroke-linecap="round"/><g data-paper-data="{&quot;index&quot;:null}" fill="#ffffff" stroke="#000000" stroke-width="3.5" stroke-linecap="butt"><path d="M223.18799,232.14842c0,1.57519 -1.49496,2.85214 -3.33911,2.85214c-1.84415,0 -3.33911,-1.27695 -3.33911,-2.85214c0,-1.57518 1.49496,-2.85215 3.33911,-2.85215c1.84414,0 3.33911,1.27695 3.33911,2.85215z"/><path d="M211.48054,226.36267c0,0 0.34597,-3.71905 0.9733,-5.73424c0.5778,-1.85608 2.65435,-5.91881 2.65435,-5.91881c0,0 3.92192,2.13571 5.83459,3.33621c1.85035,1.1614 5.46066,3.7534 5.46066,3.7534l-2.8032,5.37832z"/><path d="M223.10554,224.52913c0,2.36278 -2.14094,4.27821 -4.78193,4.27821c-2.64099,0 -5.11172,-2.40436 -5.11172,-4.76715c0,-2.36278 2.9654,-2.15947 5.60639,-2.15947c2.64098,0 4.28724,0.28562 4.28724,2.64842z"/></g><path d="M199.37322,208.50407c0,0 1.46263,-3.17155 2.29242,-4.62801c0.90759,-1.59304 2.94064,-4.55727 2.94064,-4.55727l5.41351,3.47794c0,0 -0.37067,3.74449 -0.8046,5.39879c-0.40637,1.54919 -1.7217,4.23237 -1.7217,4.23237z" data-paper-data="{&quot;index&quot;:null}" fill="#ffffff" stroke="#000000" stroke-width="3.5" stroke-linecap="butt"/><path d="M178.75863,220.96173l-3.49372,2.10094l0.78928,8.31066l-7.18577,0.58688l0.73982,-9.99185c0,0 3.49246,-4.01691 7.26721,-6.20386c1.54361,-0.89429 4.32816,-0.96073 5.0712,-1.13846c1.79556,-0.42952 0.72844,3.66942 0.72844,3.66942z" data-paper-data="{&quot;index&quot;:null}" fill="#ffffff" stroke="#000000" stroke-width="3.5" stroke-linecap="butt"/><path d="M202.21733,232.31475c2.40166,-0.84686 5.21061,0.85485 6.27397,3.80087c1.06336,2.94603 -0.02155,6.02075 -2.4232,6.86761c-2.40166,0.84686 -5.2106,-0.85484 -6.27396,-3.80086c-1.06336,-2.94604 0.02154,-6.02077 2.42319,-6.86763z" data-paper-data="{&quot;index&quot;:null}" fill="#ffffff" stroke="#000000" stroke-width="3.5" stroke-linecap="butt"/><path d="M200.92727,230.11118l1.31915,-3.42257l11.21279,1.46681l-2.22606,5.37833z" data-paper-data="{&quot;index&quot;:null}" fill="#ffffff" stroke="#000000" stroke-width="3.5" stroke-linecap="butt"/><path d="M209.44522,220.049c1.74909,2.40641 2.8942,4.51136 1.06338,5.82024c-1.83081,1.30888 -5.48355,1.4581 -7.23264,-0.94831c-1.74909,-2.40642 -3.02935,-6.3292 -1.19853,-7.63808c1.8308,-1.30888 5.61867,0.35972 7.36776,2.76614z" data-paper-data="{&quot;index&quot;:null}" fill="#ffffff" stroke="#000000" stroke-width="3.5" stroke-linecap="butt"/><path d="M193.25857,216.86531l-7.17224,5.71796c0,0 -2.32029,-0.47813 -3.07006,-1.17242c-1.77001,-1.63902 -0.3635,-3.3387 -0.3635,-3.3387c0,0 5.42595,-8.44509 8.16388,-8.41687c3.02903,0.03123 8.4691,1.27006 8.4691,1.27006l0.92891,5.61588z" data-paper-data="{&quot;index&quot;:null}" fill="#ffffff" stroke="#000000" stroke-width="3.5" stroke-linecap="butt"/><path d="M192.75796,216.18277l-2.17403,-4.99372" data-paper-data="{&quot;index&quot;:null}" fill="#ffffff" stroke="#000000" stroke-width="3.5" stroke-linecap="round"/><path d="M184.07667,214.4923c0,0 -2.52509,-2.38144 -7.55808,-0.36396c-2.50806,1.00536 -6.57619,6.35307 -6.57619,6.35307l-6.53729,-4.29921c0,0 9.62181,-12.66143 12.78194,-12.26615c4.02169,0.50306 9.42603,5.26591 9.42603,5.26591l-1.5364,5.31035z" data-paper-data="{&quot;index&quot;:null}" fill="#ffffff" stroke="#000000" stroke-width="3.5" stroke-linecap="butt"/><path d="M177.30331,204.79927l2.77264,7.44137" data-paper-data="{&quot;index&quot;:null}" fill="#ffffff" stroke="#000000" stroke-width="3.5" stroke-linecap="round"/><path d="M169.56764,209.86137l3.93075,5.45652" data-paper-data="{&quot;index&quot;:null}" fill="#ffffff" stroke="#000000" stroke-width="3.5" stroke-linecap="round"/><path d="M194.23463,230.83549c0,0 -4.2042,-1.90305 -5.94029,-3.18873c-1.81989,-1.34772 -4.73954,-4.72024 -4.73954,-4.72024l5.37427,-3.3402c0,0 2.18458,1.54538 4.80494,3.91282c1.26495,1.14286 2.9543,3.80615 2.9543,3.80615z" data-paper-data="{&quot;index&quot;:null}" fill="#ffffff" stroke="#000000" stroke-width="3.5" stroke-linecap="butt"/><path d="M180.15663,219.75467l-2.2712,-3.53399" data-paper-data="{&quot;index&quot;:null}" fill="#ffffff" stroke="#000000" stroke-width="3.5" stroke-linecap="round"/><path d="M174.24008,222.6593l-3.2704,-2.77545" data-paper-data="{&quot;index&quot;:null}" fill="#ffffff" stroke="#000000" stroke-width="3.5" stroke-linecap="round"/><g data-paper-data="{&quot;index&quot;:null}" stroke="#000000"><path d="M334.87682,161.73342c0,0 -10.83208,5.2106 -16.09805,5.66015c-7.80008,0.66587 -6.04612,-3.08841 -6.27916,-6.27095c-0.23303,-3.18254 14.74373,-11.217 14.74373,-11.217c0,0 3.30064,1.04972 5.87044,5.13344c1.98312,3.15142 1.76308,6.69438 1.76308,6.69438z" fill="#ffffff" stroke-width="3.5" stroke-linecap="butt"/><path d="M298.14207,159.27299c0.44366,6.05893 -4.37473,13.45073 -8.41156,13.79535c-4.03683,0.34461 -4.57175,-6.81661 -5.0154,-12.87555c-0.44366,-6.05893 3.51588,-7.60304 3.51588,-7.60304c0,0 8.0383,-2.82172 10.74794,-0.34854c0.92629,0.84546 -0.94992,5.48818 -0.83689,7.03179z" fill="#ffffff" stroke-width="3.5" stroke-linecap="butt"/><path d="M285.99327,161.04605c0,0 2.99703,-2.7694 4.80772,-2.82683c1.69963,-0.0539 5.74436,2.49214 5.74436,2.49214" fill="none" stroke-width="3.5" stroke-linecap="round"/><path d="M322.11688,152.98043c0,0 3.6914,2.33808 4.865,3.94498c1.21223,1.65979 2.2962,5.86023 2.2962,5.86023" fill="none" stroke-width="3.5" stroke-linecap="round"/><path d="M313.32183,162.61891l2.69259,1.27277l0.18223,2.48884" fill="none" stroke-width="1.5" stroke-linecap="round"/><path d="M320.49246,156.49708l-0.56477,3.30393l-4.1805,4.11348" fill="none" stroke-width="1.5" stroke-linecap="round"/><path d="M319.99857,159.54453l3.16631,0.39753" fill="none" stroke-width="1.5" stroke-linecap="round"/></g><path d="M314.97361,232.63871c1.27209,4.82618 -44.53519,10.52816 -44.53519,10.52816c0,0 43.9863,-12.61061 44.53519,-10.52816z" data-paper-data="{&quot;index&quot;:null}" fill="#ffffff" stroke="none" stroke-width="0" stroke-linecap="butt"/><path d="M190.44828,174.15289c0,0 2.43597,-2.0717 22.00053,-5.11775c22.65811,-3.52768 26.41579,2.12539 26.41579,2.12539l0.70394,7.57939c0,0 -8.26811,0.49253 -14.34417,0.97008c-8.8035,0.69194 -35.01434,2.98335 -35.01434,2.98335c0,0 -1.94247,-0.92068 -2.18241,-2.17259c-0.22724,-1.18573 2.42066,-6.36787 2.42066,-6.36787z" data-paper-data="{&quot;index&quot;:null}" fill="#2f3bd4" stroke="#2f3bd4" stroke-width="4" stroke-linecap="butt"/><g data-paper-data="{&quot;index&quot;:null}" fill="#2f3bd4" stroke="#2f3bd4" stroke-width="4" stroke-linecap="butt"><path d="M261.76449,149.11012c0,0 15.65675,-1.6291 15.27393,4.74304c-1.03356,17.20338 -4.56262,16.9544 -33.25332,28.54024c-14.02085,5.66189 -38.6529,1.23446 -49.24881,0.02731c-6.95155,-0.79195 -11.79612,-36.02055 -7.52794,-41.5564c11.20979,-14.53921 39.22691,-32.02102 57.06622,-28.89732c10.93077,1.91401 16.53465,23.325 16.53465,23.325c0,0 -0.65212,5.91553 1.15527,13.81815z"/><path d="M258.7513,144.30694c0,0 -25.41065,-0.87351 -28.80398,0.9965c-0.12125,1.36181 4.18976,14.97874 3.63296,14.96618c-13.90908,-0.31377 -18.57397,-1.42482 -18.57397,-1.42482l-3.60294,22.12247c0,0 -8.39603,-3.74571 -12.22557,-5.74721c-0.88053,-2.07272 0.26228,6.32762 0.26228,6.32762l-4.95479,-0.42739c0,0 -1.2172,-1.06139 -1.66574,-2.26269c-2.12674,-5.69585 -6.75422,-22.57288 -0.35823,-32.90603c7.4531,-12.041 61.32146,-28.45333 61.32146,-28.45333c0,0 4.15684,12.70017 5.07116,17.63356c-0.09658,3.65444 0.56454,9.3417 0.56454,9.3417z"/></g><g data-paper-data="{&quot;index&quot;:null}" fill="#2f3bd4" stroke="#2f3bd4" stroke-width="0" stroke-linecap="butt"><g><path d="M166.90142,180.37201c0,0 -3.68803,8.33278 -9.5079,13.72604c-4.03389,3.73822 -7.44245,8.22376 -9.52855,8.83111c-5.09582,1.4836 -10.51655,-7.6947 -8.14056,-10.58073c1.395,-1.69446 5.3192,-3.91632 8.78639,-5.64975c8.64788,-4.32356 16.90129,-10.97261 16.90129,-10.97261l1.48934,4.64593z"/><path d="M142.76287,199.21414c0,0 2.47166,-0.88694 10.45444,-5.67959c6.77847,-4.06964 6.29437,-10.65621 7.87894,-12.59299c1.43179,-1.75004 1.85825,-2.57737 1.85825,-2.57737l1.35876,3.27055c0,0 -3.59249,11.83734 -9.62232,16.06314c-3.54463,2.48413 -7.65941,4.06265 -7.65941,4.06265c0,0 -1.89679,-0.41694 -2.50281,-0.83449c-0.6418,-0.44219 -1.76588,-1.71191 -1.76588,-1.71191z"/></g><g><path d="M238.32937,79.37619c14.28844,4.47564 25.25722,68.49982 25.25722,68.49982c0,0 -54.86933,0.49463 -62.60746,7.38077c-10.09674,8.98507 -19.80351,17.14255 -19.80351,17.14255c0,0 -13.54897,1.30368 -22.394,-8.3978c-2.70784,-2.97002 -2.56042,-25.33013 -2.29952,-28.04965c0.78959,-8.23036 -0.31442,-17.25713 7.41922,-27.1266c12.58557,-16.06134 58.39574,-34.47098 74.42808,-29.44909z"/><path d="M178.92169,172.7859c0,0 -15.87586,-7.03783 -19.42726,-13.7703c-2.16645,-4.10703 -6.336,-16.74063 -4.91387,-28.75769c0.94694,-8.00164 6.89331,-17.29448 8.35248,-17.89827c12.38868,-5.1262 39.00323,41.9285 39.00323,41.9285l-23.01458,18.49777z"/></g></g><g data-paper-data="{&quot;index&quot;:null}" fill="#2f3bd4" stroke="#2f3bd4" stroke-width="4" stroke-linecap="butt"><path d="M160.86203,172.32186c0.20239,-1.07295 9.78226,-2.759 17.18242,1.22848c4.25243,2.29136 5.30394,7.21769 6.41174,10.07951c0.84885,2.19287 -1.80249,6.98605 -4.48535,8.68595z"/><path d="M173.29543,185.47598c0,0 0.59977,0.74923 2.09754,-0.69115c1.89441,-1.82184 5.27972,-7.28932 5.27972,-7.28932c0,0 2.90543,2.92067 3.32836,3.96799c0.57736,1.42972 -1.39363,5.78538 -3.41885,8.29808c-1.1037,1.36936 -2.30637,1.37266 -2.45508,1.49109z"/><path d="M170.45384,176.30551c-0.21339,-0.56047 9.39483,-0.06738 9.50713,1.29053c0.14495,1.75262 0.99028,9.79544 -1.88832,8.78774c-1.17565,-0.41156 -6.60864,-7.42538 -7.61878,-10.07829z"/></g><g data-paper-data="{&quot;index&quot;:null}" fill="#2f3bd4" stroke="#2f3bd4" stroke-width="4" stroke-linecap="butt"><g><path d="M207.05413,141.71123c-0.14826,0.22876 3.00727,-0.43924 3.00727,-0.43924c0,0 7.21927,2.06167 9.87475,3.39643c1.75872,0.88401 4.508,3.83296 4.508,3.83296c0,0 3.75396,10.47642 -1.4007,12.32153c-2.53365,0.90692 -3.52059,-1.47966 -5.75945,-5.43498c-2.02028,-3.56916 -7.10671,-11.20366 -10.22987,-13.67669z" data-paper-data="{&quot;index&quot;:null}"/><path d="M246.11698,136.3947c1.15142,3.21674 1.44329,6.84448 1.50291,9.45005c0.08407,3.67353 -0.65044,6.55267 -2.28461,7.33333c-0.82778,0.30184 -1.58612,0.33868 -2.27332,-0.31334c-2.52309,-2.39394 -4.03553,-9.91761 -4.03553,-9.91761l-1.99883,-4.77775c0,0 4.20515,-9.06625 5.73826,-9.34386c0.57022,-0.10326 2.99304,6.56882 3.35112,7.56916z" data-paper-data="{&quot;index&quot;:null}"/></g><g><path d="M225.21477,165.29854c6.17095,0.62625 18.6233,-7.05886 18.6233,-7.05886c0,0 -3.97629,4.37311 -9.7555,6.81535c-2.30013,0.97201 -16.50504,6.12984 -22.0026,6.6714c-3.20137,0.31535 -7.36811,-6.55038 -8.3338,-7.71795c-0.49107,-0.59374 4.06792,-2.71111 8.23117,-3.23488c1.07672,-0.13545 2.92557,-0.83756 3.93723,-0.66961c0.47943,0.07958 1.00838,0.68692 0.70025,1.08224c-0.57027,0.73166 -2.5268,1.40903 -2.5268,1.40903c0,0 1.28073,0.92548 2.21813,1.1982c3.32324,0.96674 6.60123,1.27092 8.90861,1.50509z"/><path d="M220.55508,167.25545c0,0 -2.25273,1.01469 -3.58365,1.38968c0,0 -3.06893,0.64765 -4.19529,0.40536c-0.89498,-0.19249 -2.26662,-1.26304 -2.26662,-1.26304c-1.31453,-1.35253 -3.6988,-3.49523 -3.6988,-3.49523c0,0 2.55214,-0.72299 3.48653,-1.05746c0.85332,0.54417 -0.37241,1.06845 1.81711,2.12014c4.05727,1.78844 8.44072,1.90057 8.44072,1.90057z"/></g></g><path d="M235.32817,97.74131c17.28158,15.95728 21.00914,55.7 21.00914,55.7c0,0 16.72767,-5.16419 16.94192,6.11869c0.1826,9.61646 -31.03934,14.65998 -52.55366,18.05075c-29.66675,4.67564 -47.63915,2.14243 -56.17427,-21.70206c-8.53514,-23.84449 3.14548,-45.21455 31.33434,-55.61193c13.66141,-5.03898 30.32461,-10.9747 39.44254,-2.55548z" data-paper-data="{&quot;index&quot;:null}" fill="#ffffff" stroke="#000000" stroke-width="3.5" stroke-linecap="butt"/><path d="M214.28387,187.54414l-0.25293,-0.18006l-0.58763,-0.39208l-0.06495,-0.07249l-0.07297,-0.05195l-0.01417,-0.04531l-0.42645,-0.47591l-0.02656,-0.04514l-0.11136,-0.07929l-0.07357,-0.23511l-0.80151,-1.36252l-0.02974,-1.29326l-0.36769,-1.17465l0.3229,-0.77164l-0.02323,-1.01029l0.44444,-0.32796l0.00011,-0.00232l0.24609,-0.25424l0.36801,-0.87943l0.66035,-0.05617l0.83243,-0.39791l1.05551,-0.04343l2.55637,-1.22202l0.01513,-0.0362l0.07365,-0.00622l0.06618,-0.03164l0.59255,-0.02441l0.41171,-0.035l0.33269,-0.11076l1.04404,0.08819l1.21003,-0.18248l1.50846,-0.2656l0.17802,0.04029l0.16466,-0.06189l3.51476,0.16425l0.03129,0.01373l0.02934,-0.00976l1.12935,0.0954l0.89511,-0.03688l1.18946,-0.14386l0.72277,-0.12723l0.31694,0.07172l0.30433,-0.05634l0.55862,0.12176l2.75341,-0.91665l1.92483,-0.69165l0.20628,0.01262l0.18554,-0.09834l0.89195,-0.07585l0.4466,-0.2135l0.25684,-0.01058l0.2309,-0.13237l0.55245,-0.0668l0.90806,-0.22455l0.09791,0.01576l0.08651,-0.04961l0.64566,-0.07806l0.35143,0.09759l0.07297,-0.00623l0.04098,-0.04469l0.07938,0.03448l0.1492,-0.01269l0.292,0.09097l0.26328,0.18742l0.10692,0.0297l0.03793,0.07343l0.00024,0.00018l0.42105,0.18288l0.69642,0.58929l0.43267,0.57892l0.20066,0.08031l0.2152,0.47616l0.28181,0.37705l0.03578,0.32556l0.33043,0.73105l1.23688,4.48091l0.06437,0.52397l0.13943,0.50516l0.04263,0.34709l0.08544,0.30954l0.08404,0.68422l0.15226,0.67168l0.05079,0.66738l-0.16464,2.09834l-0.24535,0.22337l-0.02269,0.48052l-1.04591,1.08058l-4.75459,2.27282l-2.41559,2.01011l-1.76472,1.50863l-1.72123,1.71498l-0.1299,0.05856l-0.09813,0.13801l-3.5474,2.61799l-0.14905,0.03782c-0.00527,-0.02376 -0.01117,-0.04757 -0.01772,-0.0713c-0.12511,-0.45325 -0.4392,-0.71902 -0.70153,-0.59363c-0.05757,0.02752 -0.10787,0.07158 -0.14997,0.12841c-2.26342,-0.93564 -5.05236,-0.0197 -7.64463,0.53756l-0.00406,-0.00166l-0.00694,-0.01547l-0.71641,-0.49305l-0.41197,-0.47024l-0.43783,-0.3873l-0.86509,-1.20035l-0.04925,-0.10352l-0.06837,-0.06753l-0.7921,-1.20711l-0.26375,-0.32497l-0.19514,-0.3643l-0.24151,-0.27844l-0.36194,-0.63417l-0.40683,-0.54437l-0.35067,-0.43206l-0.36247,-0.6767l-0.39646,-0.62612l-0.18787,-0.45302l-0.41308,-0.62949l-0.17852,-0.41402l-0.23315,-0.33989l-0.91463,-2.0236l-0.38564,-0.67572z" data-paper-data="{&quot;index&quot;:null}" fill="#000000" stroke="none" stroke-width="0.5" stroke-linecap="butt"/><path d="M227.45061,135.80422l0.27153,-0.19933l2.63276,-0.9424l0.48604,-0.02636l0.47646,-0.07972l1.37808,0.16215l0.23766,0.09541l0.24405,0.01431l0.97374,0.33094l0.08082,0.01585l1.23218,0.59867l0.04715,0.11463l0.8513,0.14068l3.52191,0.27l0.04233,0.01518l0.0418,-0.00711l3.32691,0.38218l0.05011,0.01995l0.05033,-0.00616l1.51719,0.24346l0.2567,0.11478l0.26669,0.03252l1.02964,0.41796l0.03556,0.02586l0.04021,0.00633l1.21133,0.53771l0.03338,-0.00704l0.59307,0.45965l0.59348,0.45889l0.00854,0.03948l0.48631,0.59048l1.10019,1.2716l0.10359,0.18889l0.14958,0.14483l2.38929,3.60176l0.02269,0.05711l0.04113,0.04289l0.79165,1.28968l0.09251,0.25845l0.15315,0.22339l0.8046,1.94049l0.01624,0.08579l0.0455,0.07413l0.74868,2.0916l0.0435,0.31561l0.11497,0.30011l0.17933,1.1156l-0.00463,0.08624l0.02766,0.08461l0.09613,0.88322l-0.0281,0.26144l0.04306,0.26791l-0.02866,0.5346l-0.08021,0.27908l-0.00709,0.30232l-0.18208,0.72062l-0.06971,0.13075l-0.01932,0.1566l-0.50326,1.35992l-0.1059,0.15269l-0.0497,0.19096l-0.2331,0.42903l-0.34784,0.7291l-0.0433,0.05086l-0.01812,0.06962l-0.26527,0.48823l-0.28025,0.29367l-0.22783,0.34908l-1.00374,0.88364l-0.10761,0.05004l-0.07777,0.09604l-1.14283,0.80234l-0.2652,0.08849l-0.2281,0.16746l-4.77798,1.71028l-0.46885,0.02544l-0.45786,0.08457l-0.27031,-0.02741l-0.43386,0.07677l-0.30069,-0.03269l-0.29004,0.05358l-1.14148,-0.11575l-0.28321,-0.10885l-0.29015,-0.02458l-1.17997,-0.43273l-1.13734,-0.32334l-0.12208,-0.07136l-0.1316,-0.01604l-1.54445,-0.62694l-0.1596,-0.11603l-0.17874,-0.05081l-3.7558,-2.195l-0.12325,-0.11728l-0.14721,-0.06268l-1.65493,-1.24287l-0.07326,-0.08643l-0.09428,-0.04928l-2.2386,-1.95156l-0.0146,-0.0198l-0.02018,-0.01098l-1.4599,-1.31266l-0.16896,-0.23643l-0.21586,-0.17858l-1.43126,-1.84726l-0.03187,-0.06602l-0.05205,-0.0472l-1.55605,-2.19587l-0.03012,-0.06964l-0.05187,-0.0516l-1.23623,-1.91708l-0.0392,-0.1024l-0.07049,-0.08005l-0.30548,-0.54609l-0.08694,-0.27726l-0.15074,-0.24557l-0.16638,-0.46482l-0.03301,-0.23952l-0.09732,-0.22342l-0.15205,-0.7321l0.00221,-0.3621l-0.07259,-0.36207l0.0157,-1.18542l0.05535,-0.2296l-0.01294,-0.24607l0.21071,-1.25522l0.10404,-0.24494l0.03416,-0.27696l0.61509,-1.66213l0.19241,-0.27746l0.12703,-0.32763l1.39516,-1.94137l0.24786,-0.19785l0.19382,-0.26433l1.54721,-1.20925z" data-paper-data="{&quot;index&quot;:null}" fill="#000000" stroke="none" stroke-width="0.5" stroke-linecap="butt"/><path d="M211.75926,145.50707l0.23964,-0.03695l0.22775,-0.09109l0.51763,-0.09978l0.22331,0.00159l0.11903,-0.01835l0.12124,-0.08733l0.41008,0.00544l0.41667,-0.06421l0.10622,0.07116l0.28748,0.0038l0.72427,0.16828l0.08722,0.04425l0.10723,0.00971l0.73999,0.24039l0.02697,-0.00519l0.05132,0.03063l0.05835,0.01895l0.40064,0.25497l0.41054,0.24501l0.03739,0.04006l0.05008,0.03186l0.00008,0.02081l0.07225,0.05523l0.88482,0.47929l0.00483,-0.00093l0.05134,0.03063l0.05835,0.01895l0.40064,0.25498l0.41054,0.24501l0.0374,0.04006l0.05007,0.03186l0.00009,0.02188l0.09193,0.09846l0.0182,0.03839l0.0382,0.02535l0.35887,0.42784l0.4535,0.48577l0.42168,0.3703l0.08117,0.13259l0.13422,0.0964l0.16113,0.20902l0.12794,0.13705l0.03207,0.06757l0.065,0.04669l0.20662,0.26807l0.07897,0.22064l0.14588,0.18927l0.43409,1.21272l0.00596,0.19326l0.01249,0.02912l0.12611,0.09059l0.61988,0.80419l0.03934,0.10989l0.08803,0.08411l0.05977,0.10831l0.11782,0.0085l0.15226,0.19754l0.22404,0.14258l0.00066,0.14892l0.05152,0.06685l0.09409,0.05616l0.17948,0.19227l0.42137,0.8882l-0.5911,1.04505l0.12423,0.34707l0.008,0.25915l0.07907,0.2417l0.00414,0.9391l-0.0925,0.31659l-0.02831,0.31624l-0.22962,0.59523l-0.12797,0.18128l-0.06409,0.19563l-0.70973,1.10911l-0.23143,0.22794l-0.17516,0.25536l-0.71867,0.66841l-0.29589,0.29142l-0.23514,0.2781l-0.05368,0.04152l-0.03085,0.05355l-0.24005,0.25694l-0.06929,0.04874l-0.04334,0.06475l-0.56016,0.53186l-0.39146,0.38556l-0.31865,0.20634l-0.27826,0.24368l-1.1939,0.68389l-0.01883,0.00645l-0.01453,0.01239l-1.27528,0.70968l-1.17733,0.67436l-0.18362,0.06283l-0.15794,0.10607l-1.33286,0.56175l-1.07036,0.46271l-0.59476,0.29l-0.17084,0.04617l-0.15079,0.08928l-0.73849,0.26435l-0.61933,0.29159l-0.1504,0.03846l-0.13238,0.07838l-0.3924,0.14046l-0.29621,0.04565l-0.28557,0.10221l-0.41953,0.06466l-0.16158,-0.00762l-0.16406,0.03993l-1.01927,0.04488l-1.21511,0.1117l-0.12292,-0.01397l-0.12803,0.02632l-1.21478,0.0073l-0.04207,-0.00883l-0.04565,0.00801l-1.56335,-0.03894l-0.31349,-0.07713l-0.33669,-0.02048l-1.83736,-0.53037l-1.33634,-0.36782l-0.0444,-0.02514l-0.05655,-0.00512l-0.25699,-0.08348l-0.0048,0.00116l-0.01429,-0.00735l-0.22486,-0.07304l-0.35092,-0.22331l-0.37802,-0.19458l-0.15647,-0.14559l-0.01328,-0.00843l-0.00002,-0.00392l-0.16208,-0.1508l-0.06531,-0.11445l-0.11403,-0.08191l-0.61988,-0.80419l-0.10142,-0.28333l-0.16327,-0.2564l-0.28172,-1.09626l0.00919,-0.16131l-0.0549,-0.14661l-0.07923,-1.76728l0.04207,-0.16626l-0.0232,-0.16001l0.37372,-2.35696l0.02863,-0.06263l-0.004,-0.06258l0.17536,-0.74683l0.09295,-0.17283l0.02807,-0.17942l0.15205,-0.33434l0.36123,-1.00436l0.04868,-0.07199l0.01211,-0.0774l0.37157,-0.81706l0.04648,-0.05912l0.01545,-0.06576l0.39011,-0.72532l0.03845,-0.17622l0.32772,-0.63034l0.06909,-0.0799l0.02975,-0.09082l0.85165,-1.33092l0.06046,-0.05955l0.02941,-0.07086l1.11882,-1.51206l0.17007,-0.14825l0.11655,-0.17623l1.36272,-1.30653l0.00034,-0.00224l0.00862,-0.00632l0.19382,-0.18581l0.40858,-0.25742l0.38461,-0.28298l0.25545,-0.12026l0.00914,-0.00575l0.00265,0.0002l0.49046,-0.23089l0.15041,-0.03847l0.13237,-0.07838l1.37343,-0.49162l0.15204,-0.02343l0.14065,-0.06571l1.41266,-0.35688l1.63431,-0.66108l0.06462,-0.01272l0.05641,-0.03341z" data-paper-data="{&quot;index&quot;:null}" fill="#000000" stroke="none" stroke-width="0.5" stroke-linecap="butt"/><path d="M241.94515,173.78046c0,0 -0.79029,-3.98606 0.04807,-6.67208c0.36283,-1.16253 1.09584,-2.82523 2.22193,-2.58093c3.8574,0.83685 3.41641,4.63878 3.41641,4.63878l-0.51165,3.80958z" data-paper-data="{&quot;index&quot;:null}" fill="#ffffff" stroke="#000000" stroke-width="1.5" stroke-linecap="butt"/><path d="M241.19135,172.35793c0,0 -1.70544,1.11707 -2.65412,1.3408c-1.02529,0.24182 -3.28566,0.06007 -3.28566,0.06007l0.57635,-8.18445c0,0 1.37062,-1.31922 2.11264,-1.08142c1.6043,0.51418 1.78337,1.9433 1.78337,1.9433l1.46741,5.92174z" data-paper-data="{&quot;index&quot;:null}" fill="#ffffff" stroke="#000000" stroke-width="1.5" stroke-linecap="butt"/><path d="M228.95046,175.289c0,0 -0.51627,-2.99517 -0.12369,-4.31115c0.33067,-1.10851 1.00337,-3.09543 1.00337,-3.09543l2.36297,-0.84582l2.45472,6.85772z" data-paper-data="{&quot;index&quot;:null}" fill="#ffffff" stroke="#000000" stroke-width="1.5" stroke-linecap="butt"/><path d="M226.60454,177.11685c-1.55736,0.55745 -3.25406,0.36055 -4.15487,-2.15605c-0.9008,-2.51657 -0.75831,-4.96888 0.79902,-5.52632c1.55735,-0.55746 3.26504,0.23442 4.16585,2.75099c0.9008,2.51657 0.74735,4.37391 -0.81001,4.93137z" data-paper-data="{&quot;index&quot;:null}" fill="#ffffff" stroke="#000000" stroke-width="1.5" stroke-linecap="butt"/><path d="M220.84809,174.43616c0.81335,2.27225 0.40189,3.9985 -0.83409,4.44091c-1.23599,0.44242 -3.05987,-0.08443 -3.87321,-2.35668c-0.81335,-2.27225 -0.23934,-4.95502 0.99663,-5.39743c1.23598,-0.44242 2.89731,1.04094 3.71065,3.31319z" data-paper-data="{&quot;index&quot;:null}" fill="#ffffff" stroke="#000000" stroke-width="1.5" stroke-linecap="butt"/><g data-paper-data="{&quot;index&quot;:null}" fill="#ffffff" stroke="#000000" stroke-width="1.5" stroke-linecap="butt"><path d="M240.57507,196.04164l-2.71894,-4.82325l5.03855,-1.80355c0,0 0.84532,3.11773 1.11824,3.8802c0.1081,0.30199 0.55119,0.78365 0.55119,0.78365z"/><path d="M237.18402,198.41475l-1.75924,-5.16677l2.79919,-1.00197l1.76414,5.43255z"/><path d="M237.27379,198.9177c0,0 -1.57817,0.84077 -2.33053,1.03207c-0.67197,0.17085 -1.96976,0.06131 -1.96976,0.06131l-2.98718,-4.81641l5.27849,-1.88943l2.00897,5.61245z"/><path d="M227.49285,200.61474c-0.00047,-0.05096 -0.00934,-0.10266 -0.02745,-0.15326c-0.07268,-0.20304 -0.2716,-0.32507 -0.47876,-0.31116l-1.99697,-3.79131l4.79864,-1.71767l2.00897,5.61244z"/><path d="M222.29616,200.17678l-2.73134,-2.58937l4.79864,-1.71767l1.79127,3.99601z"/></g><path d="M235.94834,100.4542l-0.0485,12.62974l7.08069,19.78124l-5.70685,7.92329" data-paper-data="{&quot;index&quot;:null}" fill="none" stroke="#000000" stroke-width="1.5" stroke-linecap="round"/><path d="M227.58963,95.00241l8.16668,17.68058" data-paper-data="{&quot;index&quot;:null}" fill="none" stroke="#000000" stroke-width="1.5" stroke-linecap="round"/><path d="M204.2588,168.73984l-1.03443,10.32191" data-paper-data="{&quot;index&quot;:null}" fill="none" stroke="#000000" stroke-width="1.5" stroke-linecap="round"/><path d="M199.96908,167.41049l3.27623,7.87419" data-paper-data="{&quot;index&quot;:null}" fill="none" stroke="#000000" stroke-width="1.5" stroke-linecap="round"/><path d="M211.64165,177.85818l-2.26716,-9.74322" data-paper-data="{&quot;index&quot;:null}" fill="none" stroke="#000000" stroke-width="1.5" stroke-linecap="round"/><path d="M187.66539,174.37788l-3.42022,1.52583" data-paper-data="{&quot;index&quot;:null}" fill="none" stroke="#000000" stroke-width="1.5" stroke-linecap="round"/><path d="M256.46034,155.18089l6.95469,0.677" data-paper-data="{&quot;index&quot;:null}" fill="none" stroke="#000000" stroke-width="1.5" stroke-linecap="round"/><path d="M260.36052,167.35526l0.1728,-2.92673" data-paper-data="{&quot;index&quot;:null}" fill="none" stroke="#000000" stroke-width="1.5" stroke-linecap="round"/><path d="M153.63285,146.42454c0.95495,-5.38646 37.43912,11.63013 37.43912,11.63013c0,0 -37.85117,-9.30593 -37.43912,-11.63013z" data-paper-data="{&quot;index&quot;:null}" fill="#ffffff" stroke="none" stroke-width="0" stroke-linecap="butt"/><path d="M171.60817,178.30469c0.00457,-3.88616 27.62615,3.52478 27.62615,3.52478c0,0 -27.62812,-1.84794 -27.62615,-3.52478z" data-paper-data="{&quot;index&quot;:null}" fill="#ffffff" stroke="none" stroke-width="0" stroke-linecap="butt"/><path d="M277.85768,116.54708c4.76761,1.47652 -14.65195,43.35373 -14.65195,43.35373c0,0 12.59477,-43.99083 14.65195,-43.35373z" data-paper-data="{&quot;index&quot;:null}" fill="#ffffff" stroke="none" stroke-width="0" stroke-linecap="butt"/><path d="M287.7349,146.31795c3.06897,2.7292 -24.08651,18.97709 -24.08651,18.97709c0,0 22.76228,-20.15471 24.08651,-18.97709z" data-paper-data="{&quot;index&quot;:null}" fill="#ffffff" stroke="none" stroke-width="0" stroke-linecap="butt"/><path d="M302.54484,109.81876c3.8351,1.49828 -15.59906,25.92086 -15.59906,25.92086c0,0 13.94425,-26.56735 15.59906,-25.92086z" data-paper-data="{&quot;index&quot;:null}" fill="#ffffff" stroke="none" stroke-width="0" stroke-linecap="butt"/><path d="M64.22846,355.77155v-351.54309h351.54309v351.54309z" data-paper-data="{&quot;index&quot;:null}" fill="none" stroke="none" stroke-width="NaN" stroke-linecap="butt"/></g></g></svg>