<svg version="1.1" xmlns="http://www.w3.org/2000/svg" xmlns:xlink="http://www.w3.org/1999/xlink" width="374.77477" height="288.28829" viewBox="0,0,374.77477,288.28829"><g transform="translate(-52.61267,-35.85585)"><g data-paper-data="{&quot;isPaintingLayer&quot;:true}" fill-rule="nonzero" stroke-linejoin="miter" stroke-miterlimit="10" stroke-dasharray="" stroke-dashoffset="0" style="mix-blend-mode: normal"><g stroke="#000000" stroke-linecap="round"><path d="M236.03337,195.34455c0,0 -28.22914,5.91484 -28.27891,-12.06568c-0.01835,-6.62461 16.21325,-5.02736 16.21325,-5.02736z" data-paper-data="{&quot;origPos&quot;:null}" fill="#66c8ff" stroke-width="2"/><path d="M227.98951,183.65594c0,0 -15.91916,-1.89997 -15.71052,-2.51368c0.66156,-1.94585 12.44273,-1.38252 12.44273,-1.38252z" data-paper-data="{&quot;origPos&quot;:null}" fill="#0a0a0a" stroke-width="1"/></g><g data-paper-data="{&quot;origRot&quot;:0}" stroke="#000000" stroke-linecap="round"><path d="M250.22606,222.10396c0,0 0.43774,-4.69773 1.93765,-4.51139c4.42601,0.54991 8.8984,-0.57233 12.84763,1.50708c1.63992,0.86347 1.8619,5.07258 1.8619,5.07258l0.65622,32.53233c0,0 0.11139,3.35831 0.10763,5.29013c-0.00402,2.06545 -1.36331,5.01836 -3.41687,4.88057c-7.54001,-0.50584 -12.32992,0.57313 -16.946,-0.94646c-1.6817,-0.55361 -3.43025,-1.25193 -3.94724,-2.95064c-0.67537,-2.21897 0.46297,-6.47297 0.46297,-6.47297z" data-paper-data="{&quot;origPos&quot;:null}" fill="#ff0000" stroke-width="3"/><path d="M267.33298,265.27549c0,0 -6.03723,1.9998 -10.99561,1.51396c-3.80423,-0.37274 -11.94652,-2.18165 -11.94652,-2.18165c0,0 -1.07043,-2.6798 -1.00493,-4.25355c0.06898,-1.65786 1.34944,-4.02709 1.34944,-4.02709l22.79649,1.44623z" data-paper-data="{&quot;origPos&quot;:null}" fill="#976e57" stroke-width="2"/><path d="M250.27489,222.42556c0,0 0.43774,-4.69774 1.93765,-4.51137c4.426,0.54989 8.8984,-0.57233 12.84764,1.50709c1.63992,0.86347 1.8619,5.07257 1.8619,5.07257l0.65621,32.53233c0,0 0.11141,3.35832 0.10765,5.29014c-0.00402,2.06545 -1.36333,5.01836 -3.41688,4.88058c-7.54001,-0.50584 -12.32993,0.57315 -16.946,-0.94645c-1.6817,-0.55361 -3.43024,-1.25197 -3.94724,-2.95065c-0.67537,-2.21897 0.46296,-6.47297 0.46296,-6.47297z" data-paper-data="{&quot;origPos&quot;:null}" fill="#4b4b4b" stroke-width="3"/></g><path d="M216.85017,262.27521c0,0 -2.92222,3.28656 -5.14189,3.93548c-1.69925,0.49678 -3.23944,-0.58845 -4.62239,-1.69687c-3.79601,-3.04248 -5.5212,-7.65481 -10.07436,-13.70738c-1.24009,-1.64844 0.47652,-4.40758 2.19596,-5.5427c1.6082,-1.06168 4.46856,-2.80833 4.46856,-2.80833l27.47696,-17.27499c0,0 3.63013,-2.12001 5.24846,-1.21644c3.89724,2.17593 5.41244,6.54538 8.29599,9.95965c0.97719,1.15704 -2.69873,4.09861 -2.69873,4.09861c0,0 -6.359,6.13255 -10.42911,10.05771c-5.74445,5.53989 -14.71946,14.19526 -14.71946,14.19526z" fill="#4b4b4b" stroke="#000000" stroke-width="3" stroke-linecap="round"/><g><g><path d="M226.61082,195.57587c0,0 3.72017,-13.79345 5.88492,-14.05153c6.49427,-0.7743 20.74394,2.0239 30.34726,3.28804c1.48458,0.19542 1.04285,13.55209 1.04285,13.55209l-2.17196,30.07397c0,0 -1.66892,14.60723 -3.28843,14.39405c-14.41671,-1.89775 -31.42265,-3.29119 -37.74138,-4.95651c-2.10624,-0.5551 0.70483,-15.80477 0.70483,-15.80477z" data-paper-data="{&quot;origPos&quot;:null}" fill="#66c8ff" stroke="#000000" stroke-width="3.5" stroke-linecap="round"/><path d="M243.86527,205.97412c-1.25424,-0.16509 -0.93742,-2.58909 -0.93742,-2.58909c0.65712,-5.02755 1.52547,-11.67111 2.1826,-16.69866c0,0 0.31682,-2.42398 1.57107,-2.25888c1.25424,0.16509 0.93742,2.58909 0.93742,2.58909c-0.65712,5.02755 -1.31424,10.0551 -1.97136,15.08267l-0.21121,1.61601c0,0 -0.31684,2.42398 -1.57108,2.25889z" fill="#ffffff" stroke="none" stroke-width="0.5" stroke-linecap="butt"/><path d="M254.71086,213.67965c-1.25424,-0.16509 -0.85622,-3.21033 -0.85622,-3.21033c0.82553,-6.31602 1.91642,-14.6622 2.74195,-20.97822c0,0 0.39803,-3.04522 1.65226,-2.88013c1.25424,0.16509 0.85621,3.21034 0.85621,3.21034c-0.82553,6.31602 -1.65106,12.63205 -2.4766,18.94808l-0.26535,2.03015c0,0 -0.39802,3.04522 -1.65226,2.88013z" fill="#ffffff" stroke="none" stroke-width="0.5" stroke-linecap="butt"/></g><g fill="none" stroke="#b9b9b9" stroke-width="3"><path d="M260.08946,189.4403c-0.63057,-1.4292 0.41172,-2.50089 1.75437,-3.53151c1.34266,-1.0306 2.58186,-1.23614 3.10783,-0.20067c1.11516,2.19551 -0.45526,2.95577 -1.50659,3.76276c-1.34267,1.03061 -2.46507,1.98783 -3.35561,-0.03056z" stroke-linecap="butt"/><path d="M261.12046,188.99042l-2.83579,2.12408" stroke-linecap="round"/><path d="M254.76076,191.27448c1.34266,-1.0306 2.58187,-1.23614 3.10784,-0.20066c1.11516,2.19551 -0.45527,2.95576 -1.5066,3.76275c-1.34266,1.0306 -2.46506,1.98784 -3.35557,-0.03056c-0.63057,-1.4292 0.41171,-2.50089 1.75434,-3.53152z" stroke-linecap="butt"/><path d="M254.03738,194.3561l-2.83579,2.12409" stroke-linecap="round"/><path d="M245.79983,195.32085c0.5973,-1.54212 1.87688,-1.22044 3.29421,-0.57906c1.41732,0.64138 2.23324,1.71697 1.83841,2.90167c-0.83717,2.51189 -2.20105,1.47294 -3.31084,0.97073c-1.41732,-0.64138 -2.6653,-1.11545 -1.82176,-3.29332z" stroke-linecap="butt"/><path d="M246.6627,196.03483l-2.95876,-1.38881" stroke-linecap="round"/><path d="M239.36608,190.1365c1.03483,-1.16897 2.07532,-0.25179 3.13537,1.03314c1.06004,1.28492 1.44108,2.69125 0.7034,3.61998c-1.56407,1.96916 -2.4473,0.33468 -3.27735,-0.67146c-1.06004,-1.28493 -2.02284,-2.33077 -0.56142,-3.98164z" stroke-linecap="butt"/><path d="M237.70977,188.49467l2.19673,2.72943" stroke-linecap="round"/><path d="M233.83092,183.33693c1.03482,-1.16895 2.07535,-0.25179 3.13538,1.03314c1.06007,1.28492 1.44108,2.69126 0.70341,3.62c-1.56407,1.96916 -2.44729,0.33465 -3.27735,-0.67149c-1.06004,-1.28492 -2.02284,-2.33075 -0.56142,-3.98163z" stroke-linecap="butt"/><path d="M232.17462,181.69506l2.19674,2.72942" stroke-linecap="round"/></g></g><path d="M52.61268,324.14414v-288.28829h374.77477v288.28829z" fill="none" stroke="none" stroke-width="NaN" stroke-linecap="butt"/><g><g data-paper-data="{&quot;index&quot;:null}" stroke="#000000" stroke-width="2.5" stroke-linecap="round"><path d="M229.13456,149.82261c1.39832,-4.37193 4.35513,-5.42734 4.35513,-5.42734c0,0 2.66963,-1.53612 4.24289,-1.46228c4.71982,0.22162 18.15357,1.48525 29.62525,3.64616c0.38285,0.07212 0.59542,0.12654 0.97332,0.22132c1.13364,0.28439 5.51398,1.58214 5.51398,1.58214c0,0 1.35669,3.4308 1.65681,5.24927c0.90037,5.45536 -2.01709,18.78303 -3.91375,32.93989c-0.17188,1.28314 -2.1165,3.3117 -2.1165,3.3117c0,0 -3.36521,1.24078 -5.38385,0.98154c-13.05084,-1.67594 -27.4845,-3.57828 -30.76193,-4.22969c-1.09248,-0.21712 -3.54953,-0.97515 -5.17391,-2.53595c-1.6244,-1.56081 -3.02188,-3.31929 -2.84923,-5.17322c0.17264,-1.85396 2.30177,-24.31992 3.83179,-29.10354z" fill="#582700"/><path d="M230.73735,135.46159c1.39832,-4.37193 4.35511,-5.42731 4.35511,-5.42731c0,0 2.66964,-1.53612 4.24293,-1.46224c4.71984,0.22162 18.15358,1.48522 29.62525,3.64616c0.38286,0.07209 0.59542,0.12654 0.97332,0.22132c1.13364,0.28439 5.51398,1.58214 5.51398,1.58214c0,0 1.35669,3.43081 1.65681,5.24927c0.90037,5.45536 -2.01709,18.78303 -3.91372,32.93989c-0.17188,1.28314 -2.11647,3.31167 -2.11647,3.31167c0,0 -3.36521,1.2408 -5.38385,0.98157c-13.05084,-1.67594 -27.4845,-3.57828 -30.76193,-4.22969c-1.09248,-0.21715 -3.54954,-0.97514 -5.17392,-2.53599c-1.6244,-1.56081 -3.02188,-3.31926 -2.84926,-5.17322c0.17262,-1.85393 2.30179,-24.31992 3.83178,-29.10357z" fill="#000000"/></g><path d="M238.41248,171.29025c4.93359,-1.38958 8.93293,0.67426 10.01321,4.42346c1.23897,4.29989 -2.9113,6.26591 -2.9113,6.26591c0,0 -2.42157,-1.05883 -5.6067,-1.66258c-3.966,-0.75177 -6.22235,-0.62466 -6.22235,-0.62466c0,0 -1.96579,-6.51702 4.72714,-8.40214z" fill="#ffffff" stroke="#000000" stroke-width="2" stroke-linecap="butt"/><path d="M264.74753,174.69793c5.55527,3.54117 1.0405,9.18196 1.0405,9.18196c0,0 -2.08011,-0.71343 -6.134,-1.04602c-3.25572,-0.2671 -5.97552,0.09658 -5.97552,0.09658c0,0 -3.11978,-2.94899 -0.19583,-6.68603c2.54949,-3.25842 7.16987,-4.1568 11.26485,-1.5465z" data-paper-data="{&quot;index&quot;:null}" fill="#ffffff" stroke="#000000" stroke-width="2" stroke-linecap="butt"/><path d="M240.31435,180.98126l-0.40442,-0.08707c-0.87779,0.04072 -1.89673,-0.04266 -2.62803,-0.50351c-0.27272,0.56984 -0.86159,1.17829 -1.01035,1.18575c-2.21461,0.1111 -1.19242,-1.14399 -1.16605,-1.66174c0.01231,-0.24171 -0.50757,-0.47627 -0.655,-0.56844c0,0 -0.05194,-0.03468 -0.11129,-0.09481c-0.16015,0.00033 -0.30911,-0.00042 -0.44188,-0.00406c0,0 -1.1032,-0.03141 -1.08468,-0.86513c0.01852,-0.83373 1.12171,-0.80232 1.12171,-0.80232c1.32478,0.03896 3.09302,-0.01316 4.31824,0.43662c0.55886,0.20516 0.95542,0.62244 1.51757,0.82225c0.5178,0.18402 1.08935,0.26247 1.61783,0.42747l0.6955,0.3224c0,0 0.93645,0.45588 0.35298,1.15463c-0.58347,0.69876 -1.51991,0.24287 -1.51991,0.24287l-0.09229,-0.04935c-0.24438,0.08555 -0.50993,0.04443 -0.50993,0.04443z" fill="#000000" stroke="none" stroke-width="0.5" stroke-linecap="butt"/><path d="M256.31363,183.13398c0,0 -0.26946,-0.01704 -0.47792,-0.15184l-0.10489,0.02791c0,0 -1.0499,0.23989 -1.38913,-0.55919c-0.33922,-0.79907 0.71068,-1.03897 0.71068,-1.03897l0.77458,-0.16255c0.56293,-0.04632 1.1397,0.0001 1.69843,-0.06687c0.60657,-0.07271 1.12305,-0.39073 1.72818,-0.46932c1.32665,-0.1723 3.01657,0.25584 4.30768,0.50132c0,0 1.07481,0.20541 0.82553,1.01405c-0.24929,0.80863 -1.32411,0.60321 -1.32411,0.60321c-0.12932,-0.02486 -0.27334,-0.05597 -0.4278,-0.0905c-0.07655,0.04536 -0.13779,0.06772 -0.13779,0.06772c-0.17184,0.05745 -0.74876,0.17275 -0.81433,0.40867c-0.14047,0.50534 0.44393,1.93512 -1.65792,1.35468c-0.14116,-0.03898 -0.51456,-0.75206 -0.59517,-1.36032c-0.85351,0.28853 -1.86365,0.1513 -2.69782,-0.07557l-0.41823,-0.00239z" data-paper-data="{&quot;index&quot;:null}" fill="#000000" stroke="none" stroke-width="0.5" stroke-linecap="butt"/><g data-paper-data="{&quot;index&quot;:null}" stroke="#000000" stroke-width="1" stroke-linecap="butt"><path d="M233.12159,192.1032c-9.38309,-3.62368 -3.21642,-12.54103 -3.21642,-12.54103l14.0152,5.27048c0,0 -0.86461,11.10705 -10.79879,7.27054z" fill="#000000"/><path d="M233.05666,188.74105c2.28874,1.74935 3.6535,4.17668 3.2035,4.13773c-0.92992,-0.0805 -1.97168,-0.32497 -3.13857,-0.7756c-3.49723,-1.35059 -4.83433,-3.4366 -5.13569,-5.52217c-0.05855,-0.40517 2.96905,0.55362 5.07076,2.16004z" fill="#ff8484"/><path d="M228.48733,182.81541c0.54782,-1.34082 1.41786,-3.25323 1.41786,-3.25323l12.31734,4.63198l-1.22854,3.43215c0,0 -12.52471,-4.76669 -12.50666,-4.81089z" fill="#ffffff"/></g><path d="M228.66718,185.99738c0.41765,-0.32161 0.93743,-0.04476 0.93743,-0.04476l0.40276,0.24121c1.78386,1.58888 4.63705,2.26125 6.76146,3.39391c0.74559,0.39752 2.27312,1.00811 2.63179,1.85791c0.02365,0.05605 0.04509,0.11275 0.06456,0.17002l0.02934,-0.01373l0.44361,0.94752c0.06161,0.12472 0.09466,0.26582 0.09083,0.41454c-0.00714,0.27657 -0.14029,0.52024 -0.3431,0.67749c0.05313,0.11772 0.08122,0.24894 0.07767,0.38671c-0.00864,0.33526 -0.20248,0.62219 -0.48111,0.76543l-0.56251,0.30248c0.0594,0.18097 0.05544,0.33464 0.05544,0.33464l-0.00001,0.00001l-0.00614,0.23785c-0.02839,0.41716 0.14743,0.90402 -0.08518,1.25146c-0.37459,0.55953 -0.91534,1.27225 -1.58827,1.24821c-0.2151,-0.00769 -0.36566,-0.14151 -0.48734,-0.32945c-0.23586,-0.12186 -0.4092,-0.34633 -0.4625,-0.61288l-0.11465,-0.51461c-0.16903,-0.25907 -0.32017,-0.50566 -0.4743,-0.73658c-0.65477,1.49957 0.66271,3.44483 0.45804,4.91242c-0.15112,1.08362 -0.58875,2.31936 -2.10435,2.0823c-0.61358,-0.09598 -1.16521,-0.58413 -1.49706,-1.10908c-0.147,-0.23253 -0.02439,-2.00718 -0.03549,-2.38041c-0.02333,-0.78428 -0.06899,-1.58888 -0.1425,-2.3925c-0.19058,-1.36011 -0.48017,-2.69906 -1.03879,-3.97456c-0.02626,-0.05998 -0.05305,-0.11914 -0.08031,-0.17753c-0.26029,-0.32563 -0.48593,-0.67784 -0.66921,-1.05337l-0.52654,-0.77884c-0.07045,-0.04798 -0.13972,-0.09356 -0.20771,-0.13639l-0.02116,0.02344l-0.8098,-0.73115c-0.18762,-0.16736 -0.30314,-0.41309 -0.29615,-0.68412c0.00131,-0.05059 0.00682,-0.10008 0.01622,-0.14814c-0.13379,-0.15609 -0.26361,-0.31755 -0.38957,-0.4843c-0.24749,-0.32762 -0.68345,-0.58941 -0.72173,-0.99823c-0.0639,-0.68245 -0.12251,-1.61721 0.44016,-2.00866c0.14021,-0.09754 0.41449,-0.05312 0.73614,0.06174zM233.75026,194.89222c0.01249,0.08132 0.02467,0.16283 0.03654,0.24447c0.03124,-0.06393 0.06453,-0.12697 0.09996,-0.18915c-0.04568,-0.01797 -0.09119,-0.0364 -0.13651,-0.05533z" fill="#000000" stroke="none" stroke-width="0.5" stroke-linecap="butt"/></g><g data-paper-data="{&quot;index&quot;:null}"><g data-paper-data="{&quot;origRot&quot;:0,&quot;index&quot;:null}" stroke="#000000" stroke-width="3" stroke-linecap="round"><path d="M220.83233,239.5764c0,0 -24.50279,-6.12115 -24.07802,-8.64107c0.76589,-4.54355 5.34544,-14.15455 5.34544,-14.15455l13.40083,-26.95237c0,0 2.62138,-5.0783 3.77383,-5.11379c3.45731,-0.1065 9.14957,3.12229 15.44897,5.1753c1.04707,0.34127 -0.24842,6.1224 -0.24842,6.1224c0,0 -2.43966,9.0059 -4.00116,14.77016c-2.37801,8.77836 -6.09336,22.49349 -6.09336,22.49349c0,0 -1.6711,7.0804 -3.54811,6.30042z" data-paper-data="{&quot;origPos&quot;:null}" fill="#582700"/><path d="M223.34715,232.6451l-23.4121,-8.56603" fill="none"/><path d="M224.71228,229.60508l-23.33051,-8.789" data-paper-data="{&quot;origPos&quot;:null}" fill="none"/></g><path d="M201.36742,220.0834l16.9861,-34.14735l1.43745,-0.20308l14.83755,5.47992l-9.60678,37.55429z" fill="#66c8ff" stroke="#000000" stroke-width="1" stroke-linecap="round"/><path d="M199.96394,223.91488l0.80823,-2.1865l23.91907,8.84139l-0.80823,2.1865z" fill="#ffffff" stroke="none" stroke-width="0" stroke-linecap="butt"/></g><path d="M197.3374,239.06852c-2.60278,-1.59498 -2.8167,-3.67191 -2.8167,-3.67191c0,0 -0.56986,-1.96747 -0.27323,-2.97205c0.88992,-3.01368 3.8317,-11.49122 7.0426,-18.5594c0.10716,-0.23589 0.17594,-0.36458 0.29696,-0.59369c0.36307,-0.68727 1.89441,-3.3114 1.89441,-3.3114c0,0 2.43077,-0.33352 3.65289,-0.23965c3.66632,0.28157 11.81368,4.27482 20.65814,7.7399c0.80165,0.31405 1.8043,1.89114 1.8043,1.89114c0,0 0.26902,2.37006 -0.21782,3.63296c-3.14749,8.16496 -6.66003,17.18733 -7.59936,19.20131c-0.31308,0.67134 -1.1915,2.13852 -2.45671,2.94082c-1.26521,0.80232 -2.62221,1.42679 -3.79243,1.02193c-1.17025,-0.40485 -15.34517,-5.33476 -18.19304,-7.07994z" fill="#582700" stroke="#000000" stroke-width="2.5" stroke-linecap="round"/><g><g data-paper-data="{&quot;index&quot;:null}"><g stroke="#000000" stroke-width="3" stroke-linecap="round"><path d="M284.83858,227.28182c0,0 2.32425,10.48689 1.63106,15.04209c-16.00206,5.48721 -25.47463,2.33699 -25.47463,2.33699c-2.01253,0.28516 -1.85758,-6.98813 -1.85758,-6.98813c0,0 -0.16292,-14.20852 -0.26723,-23.30267c-0.06848,-5.9716 -0.17547,-15.30148 -0.17547,-15.30148c0,0 0.19328,-5.92137 1.29246,-5.98958c6.61278,-0.41035 12.93217,-2.11103 16.2527,-1.14224c1.10684,0.32292 2.37319,5.89581 2.37319,5.89581l6.22547,29.44919z" data-paper-data="{&quot;origPos&quot;:null}" fill="#582700"/><path d="M285.20941,233.02773l-25.53542,2.55385l-0.32427,-3.38653l25.5502,-2.81207z" data-paper-data="{&quot;origPos&quot;:null}" fill="none"/></g><path d="M259.09036,231.75977l0.37453,-36.86565l1.20299,-0.79908l15.72032,-1.70388l7.74098,36.60695z" fill="#66c8ff" stroke="#000000" stroke-width="1" stroke-linecap="round"/><path d="M259.59425,235.14201l-0.23482,-2.31925l25.37112,-2.56885l0.23482,2.31925z" fill="#ffffff" stroke="none" stroke-width="0" stroke-linecap="butt"/></g><g fill="#fffc96" stroke="#000000" stroke-width="2" stroke-linecap="round"><path d="M283.24638,222.55985c0,0 4.32517,0.71325 4.1006,3.64893c-0.35931,4.69697 -32.53514,-2.70351 -32.45595,-7.62115c0.03236,-2.00923 3.20473,-2.00554 3.20473,-2.00554l0.19277,1.8617c0,0 5.7323,2.71497 13.19921,4.60829c7.36344,1.86707 12.45806,1.75352 12.45806,1.75352z"/><path d="M281.49654,214.12188c0,0 3.13019,-2.16879 3.96524,-0.00198c1.75291,4.54846 -28.4718,22.35297 -29.11618,17.76362c-0.39025,-2.77941 2.9612,-3.71066 2.9612,-3.71066l0.18203,1.36484c0,0 5.00784,-1.81153 11.77271,-5.95738c6.76488,-4.14585 10.56052,-8.19448 10.56052,-8.19448z" data-paper-data="{&quot;index&quot;:null}"/></g></g><path d="M285.04567,246.89242c-3.17465,1.03808 -18.10598,2.55064 -19.33818,2.67342c-1.23218,0.12279 -2.40763,-0.799 -3.4526,-1.87255c-1.04498,-1.07355 -1.55965,-2.70429 -1.70872,-3.42989c-0.4473,-2.17678 -1.77449,-11.76738 -2.94517,-20.43934c-0.18109,-1.34134 0.62958,-3.58462 0.62958,-3.58462c0,0 1.34068,-1.30194 2.19326,-1.42178c9.40654,-1.32223 18.25727,-3.31975 21.88909,-2.74445c1.21063,0.19177 3.49804,1.07924 3.49804,1.07924c0,0 0.88186,2.90747 1.07587,3.66014c0.06466,0.25091 0.10176,0.39204 0.15136,0.64633c1.48641,7.6197 2.38456,16.54807 2.55224,19.68594c0.05588,1.04594 -0.9542,2.82793 -0.9542,2.82793c0,0 -0.68916,1.97091 -3.59061,2.91964z" data-paper-data="{&quot;index&quot;:null}" fill="#582700" stroke="#000000" stroke-width="2.5" stroke-linecap="round"/></g></g></svg>