<svg version="1.1" xmlns="http://www.w3.org/2000/svg" xmlns:xlink="http://www.w3.org/1999/xlink" width="306.30631" height="274.77477" viewBox="0,0,306.30631,274.77477"><g transform="translate(-86.84686,-42.61264)"><g data-paper-data="{&quot;isPaintingLayer&quot;:true}" fill-rule="nonzero" stroke-linecap="butt" stroke-linejoin="miter" stroke-miterlimit="10" stroke-dasharray="" stroke-dashoffset="0" style="mix-blend-mode: normal"><path d="M86.84686,317.38741v-274.77477h306.30631v274.77477z" data-paper-data="{&quot;index&quot;:null}" fill="none" stroke="none" stroke-width="0"/><text transform="translate(271.55604,110.72268) rotate(-180) scale(0.1602,-0.1602)" font-size="40" xml:space="preserve" data-paper-data="{&quot;index&quot;:null}" fill="#000000" fill-rule="nonzero" stroke="none" stroke-width="1" stroke-linecap="butt" stroke-linejoin="miter" stroke-miterlimit="10" stroke-dasharray="" stroke-dashoffset="0" font-family="Sans Serif" font-weight="normal" text-anchor="start" style="mix-blend-mode: normal"><tspan x="0" dy="0">AwezomeXD</tspan><tspan x="0" dy="46.150000000000006px"> </tspan><tspan x="0" dy="46.150000000000006px">MeIzAwezomeDede</tspan></text><g data-paper-data="{&quot;index&quot;:null}"><g><g><g><path d="M203.28131,120.63046c0,0 -1.6331,-12.03174 6.75779,-15.55901c5.95622,-2.5038 20.90484,4.63712 31.95139,5.11612c12.55738,0.5445 36.30581,0.58767 36.30581,0.58767c0,0 4.84677,3.6873 6.81816,3.84344c2.4615,0.19494 5.35746,-2.91325 5.35746,-2.91325c0,0 0.04541,4.1644 -0.60121,7.46156c-2.43561,12.4192 -12.26252,11.06062 -12.26252,11.06062c0,0 3.06136,6.21052 2.6109,10.48679c-0.47355,4.49513 -4.44345,6.39695 -4.44345,6.39695c0,0 1.96301,3.82218 1.60822,7.40052c-0.23422,2.3623 -1.27852,6.15136 -1.96393,8.50888c-1.16961,4.0231 5.60216,9.0707 5.60216,9.0707c0,0 -4.40273,2.68072 -7.22745,2.81235c-2.87511,0.13396 -8.72162,-3.72432 -8.72162,-3.72432c0,0 -2.53673,0.2949 -3.41654,3.0244c-0.27735,0.86044 -0.29924,2.92443 -0.29036,3.87533c0.02996,3.20741 -2.23709,5.15711 -2.23709,5.15711c0,0 -1.02093,-3.63373 -1.69584,-4.59599c-0.49533,-0.70625 -1.06557,-0.98152 -1.06557,-0.98152c0,0 -2.00155,4.0939 -1.97927,6.60712c0.04956,5.58994 1.07216,12.655 -0.19165,12.61687c-2.28517,-0.06897 -4.35914,-4.32553 -6.87407,-5.1017c-2.31476,-0.71438 -3.81349,-7.38241 -3.81349,-7.38241c0,0 -2.9216,6.45601 -5.85424,6.89788c-2.84585,0.42882 -5.1918,5.29985 -6.3635,5.25796c-4.27123,-0.1527 -7.23353,-13.67848 -7.23353,-13.67848c0,0 -13.22662,6.65812 -15.65283,3.76877c-2.8635,-3.41014 -1.6181,-19.28037 -1.6181,-19.28037c0,0 -4.80707,-5.34625 -4.83062,-8.20689c-0.05286,-6.42447 3.80807,-10.95512 3.80807,-10.95512c0,0 -3.22927,-0.1224 -4.96189,0.80429c-1.84162,0.985 -5.7808,4.94143 -5.7808,4.94143c0,0 -0.43179,-5.72182 0.39467,-8.31827c0.86914,-2.73046 4.6986,-7.68266 4.6986,-7.68266c0,0 -4.15993,-4.21639 -5.2775,-9.65166c-0.59898,-2.91304 1.13261,-8.73679 1.13261,-8.73679c0,0 3.63066,4.48925 5.29714,5.30211c1.29272,0.63055 1.75968,-2.34717 1.75968,-2.34717z" fill="#6d0f0a" stroke="#000000" stroke-width="2"/><path d="M202.98731,115.23993c0,0 -2.27699,-8.13803 1.01117,-17.84503c1.78014,-5.25518 7.235,-11.41584 10.62909,-15.72165c4.80997,-6.10196 13.66449,-8.12519 20.87585,-7.81249c9.47983,0.41107 14.89463,10.5528 14.89463,10.5528c0,0 10.1898,-2.97549 17.23204,-0.50507c6.80341,2.38661 10.79824,10.83122 11.93156,12.94117c1.72655,3.21441 1.95556,17.18046 1.95556,17.18046c0,0 -29.50785,18.71596 -44.53297,18.06441c-16.05137,-0.69604 -24.74636,-18.78592 -30.77117,-16.5855c-2.11989,0.77425 -3.22576,-0.2691 -3.22576,-0.2691z" fill="#6d0f0a" stroke="#000000" stroke-width="2"/><path d="M211.9478,86.13703c0,0 2.48379,-2.86705 3.75209,-4.09462c1.21003,-1.17116 3.69111,-3.1096 3.69111,-3.1096c0,0 7.49467,7.0482 11.6796,8.95652c4.38543,1.99976 12.23356,0.90563 12.23356,0.90563c0,0 -0.23194,2.30886 -0.0948,3.27567c0.14499,1.02218 0.46802,2.67994 0.46802,2.67994c0,0 1.43986,-1.69015 1.85996,-2.43201c0.45374,-0.80129 1.25755,-2.50696 1.25755,-2.50696c0,0 1.25434,3.94072 1.86893,5.43021c0.50329,1.21977 1.5519,2.86028 1.5519,2.86028c0,0 0.19274,-2.12503 0.2108,-3.2373c0.0191,-1.17759 -0.09917,-3.64346 -0.09917,-3.64346c0,0 8.93624,5.4533 14.62046,7.76055c0.11412,0.0463 4.7073,0.48382 5.04281,0.56371c7.21395,1.71782 5.80925,-7.8315 5.80925,-7.8315c0,0 2.40489,3.74617 3.16507,6.90063c0.77101,3.19941 1.42892,12.16284 1.42892,12.16284c0,0 -4.94585,-3.69746 -9.89051,-4.73511c-0.87741,-0.18413 -10.47464,-1.65073 -10.47464,-1.65073c0,0 -1.19088,-2.2929 -1.86194,-3.26956c-0.65759,-0.95706 -2.12475,-2.53279 -2.12475,-2.53279c0,0 -1.38945,1.72943 -2.09754,2.81287c-0.85073,1.30161 -2.65777,4.46309 -2.65777,4.46309c0,0 -0.68721,-1.95309 -1.23018,-3.01716c-0.60405,-1.1838 -2.23035,-3.76485 -2.23035,-3.76485c0,0 -1.35825,0.32066 -2.12626,0.72807c-1.06619,0.56558 -3.6751,2.34928 -3.6751,2.34928c0,0 -0.47041,-2.93759 -0.82262,-4.25878c-0.30472,-1.14308 -1.16886,-3.21182 -1.16886,-3.21182c0,0 -1.74766,0.96563 -2.68555,1.62994c-1.17037,0.829 -3.79501,2.96017 -3.79501,2.96017c0,0 -6.3732,-8.65032 -10.08594,-10.90891c-3.47292,-2.11272 -11.51908,-2.23419 -11.51908,-2.23419z" fill="#c42d06" stroke="none" stroke-width="0"/></g><path d="M222.62648,133.6125c0,0 -17.51173,-8.31535 -17.69294,-9.76792c-0.03143,-0.25199 3.73654,-8.44458 3.61499,-9.3425c-0.22203,-1.64012 -4.73268,-1.05675 -4.73268,-1.05675c0,0 64.54186,-0.81857 74.60143,-0.53079c2.56277,0.07331 4.87446,2.80937 4.87446,2.80937l-13.94133,17.5792z" fill="#6d0f0a" stroke="none" stroke-width="NaN"/></g><path d="M251.46372,85.83261c0,0 -4.01581,-2.26239 -1.64136,-7.57828c0.12511,-0.28009 0.93357,-1.36501 1.19027,-1.59402c1.96704,-1.75478 6.92136,-1.38006 6.92136,-1.38006c0,0 -3.63876,4.1024 -4.83698,5.50908c-1.06801,1.25382 -1.63327,5.04329 -1.63327,5.04329z" fill="#6d0f0a" stroke="#000000" stroke-width="1.5"/><path d="M247.60011,74.3107c0,0 1.2026,1.21069 1.40221,2.99038c0.28287,0.90907 0.15193,3.79132 0.15193,3.79132l-1.71463,-1.33907z" fill="#000000" stroke="none" stroke-width="0"/></g><path d="M250.82182,84.25497l3.74151,0.50405c0,0 -3.44556,3.93457 -3.98131,4.02764c-0.75004,0.13031 -2.56765,-5.50286 -2.56765,-5.50286z" fill="#6d0f0a" stroke="none" stroke-width="0"/></g><g data-paper-data="{&quot;index&quot;:null}"><text transform="translate(294.68336,229.0029) rotate(-180) scale(0.27921,-0.27921)" font-size="40" xml:space="preserve" fill="#000000" fill-rule="nonzero" stroke="none" stroke-width="1" stroke-linecap="butt" stroke-linejoin="miter" stroke-miterlimit="10" stroke-dasharray="" stroke-dashoffset="0" font-family="Sans Serif" font-weight="normal" text-anchor="start" style="mix-blend-mode: normal"><tspan x="0" dy="0">AwezomeXD</tspan><tspan x="0" dy="46.150000000000006px"> </tspan><tspan x="0" dy="46.150000000000006px">MeIzAwezomeDede</tspan></text><g data-paper-data="{&quot;index&quot;:null}"><g><path d="M304.61431,280.7271c-0.97394,-0.3343 -2.81981,-1.05375 -2.81981,-1.05375l2.00112,-62.99775c0,0 3.12264,-3.42551 4.77674,-5.10754c1.78782,-1.81801 6.83093,-5.9246 6.83093,-5.9246c0,0 5.94054,0.17965 11.08569,1.75457c7.39586,2.26385 29.04162,10.52827 29.04162,10.52827c0,0 -0.29139,23.00613 -1.11993,33.98866c-0.74728,9.90532 -3.63272,29.00908 -3.63272,29.00908c0,0 -14.3168,1.48011 -21.61682,1.59314c-7.15813,0.11083 -21.76596,-0.92143 -21.76596,-0.92143c0,0 -1.89659,-0.56514 -2.78087,-0.86866z" fill="#434253" stroke="#000000" stroke-width="2.5"/><path d="M306.04171,281.58894c0,0 3.19421,-16.34268 5.26935,-30.13714c1.48339,-9.86081 2.04443,-18.33187 2.06476,-19.00203c0.15509,-5.11269 -0.3723,-9.50368 -0.00091,-14.70459c0.49814,-6.97594 1.18056,-11.43244 1.18056,-11.43244l2.10035,-1.22928c0,0 -1.17975,18.14658 -2.93073,35.27697c-0.73182,7.15966 -2.77258,22.22022 -3.75528,31.64788c-0.10799,1.03599 0.50491,2.39047 0.4064,3.33489c-0.55015,5.27458 -0.93311,6.24975 -0.93311,6.24975l-3.40139,-0.00403z" fill="#000000" stroke="none" stroke-width="0"/></g><g stroke="#000000" stroke-width="1.5"><path d="M345.29833,263.35312c0.94113,9.66742 -4.93088,16.17699 -12.88074,16.95092c-7.94986,0.77393 -14.77082,-5.25083 -14.91119,-14.96294c-0.15638,-10.82018 5.8426,-16.14324 12.54261,-16.73861c6.71115,-0.59636 14.44659,6.50489 15.24932,14.75063z" fill="#2c262f"/><path d="M323.67438,268.45714c-0.26544,-2.72671 1.31874,-5.06632 3.56101,-5.2846c2.24227,-0.21828 3.76096,1.25807 4.0264,3.98478c0.26545,2.72671 -1.3891,5.14677 -3.63137,5.36505c-2.24227,0.21828 -3.69059,-1.33852 -3.95603,-4.06523z" data-paper-data="{&quot;index&quot;:null}" fill="#1b171c"/></g><g stroke="#000000" stroke-width="1.5"><path d="M334.90072,214.22597c6.72176,-0.46163 14.18059,7.06601 14.65957,15.33688c0.56156,9.69688 -5.56103,15.97134 -13.53511,16.43313c-7.97408,0.46179 -14.55372,-5.82563 -14.31338,-15.53578c0.26776,-10.81801 6.4647,-15.77245 13.18893,-16.23424z" fill="#2c262f"/><path d="M327.75294,233.81558c-0.15839,-2.73501 1.51626,-5.01074 3.76536,-5.14099c2.2491,-0.13025 3.70876,1.40448 3.86715,4.1395c0.15839,2.73502 -1.58973,5.08838 -3.83883,5.21863c-2.2491,0.13025 -3.6353,-1.48212 -3.79369,-4.21714z" data-paper-data="{&quot;index&quot;:null}" fill="#1b171c"/></g></g><g><g><path d="M178.20549,279.80011c0,0 -1.84588,0.71945 -2.81982,1.05375c-0.88428,0.30352 -2.78086,0.86866 -2.78086,0.86866c0,0 -14.60784,1.03226 -21.76596,0.92143c-7.30001,-0.11302 -21.61681,-1.59314 -21.61681,-1.59314c0,0 -2.88544,-19.10377 -3.63272,-29.00909c-0.82854,-10.98252 -1.11993,-33.98866 -1.11993,-33.98866c0,0 21.64575,-8.26442 29.04162,-10.52827c5.14515,-1.57491 11.08569,-1.75457 11.08569,-1.75457c0,0 5.04312,4.1066 6.83094,5.9246c1.6541,1.68203 4.77674,5.10754 4.77674,5.10754l2.00112,62.99775z" fill="#434253" stroke="#000000" stroke-width="2.5"/><path d="M173.95827,281.71568l-3.40139,0.00403c0,0 -0.38295,-0.97517 -0.93311,-6.24976c-0.0985,-0.94441 0.51439,-2.2989 0.40641,-3.33488c-0.98271,-9.42766 -3.02346,-24.48823 -3.75529,-31.64789c-1.75097,-17.13039 -2.93073,-35.27697 -2.93073,-35.27697l2.10035,1.22928c0,0 0.68243,4.4565 1.18057,11.43244c0.37139,5.20091 -0.156,9.59191 -0.00092,14.70459c0.02033,0.67016 0.58138,9.14123 2.06477,19.00203c2.07514,13.79446 5.26935,30.13713 5.26935,30.13713z" fill="#000000" stroke="none" stroke-width="0"/></g><g stroke="#000000" stroke-width="1.5"><path d="M134.70167,263.47986c0.80273,-8.24574 8.53818,-15.34698 15.24933,-14.75062c6.70001,0.59537 12.69899,5.91843 12.54261,16.73861c-0.14037,9.71211 -6.96134,15.73687 -14.9112,14.96294c-7.94986,-0.77392 -13.82187,-7.2835 -12.88074,-16.95092z" fill="#2c262f"/><path d="M152.76465,263.29931c2.24227,0.21828 3.82645,2.55788 3.56101,5.28459c-0.26545,2.72671 -1.71376,4.28351 -3.95603,4.06523c-2.24227,-0.21829 -3.89681,-2.63834 -3.63137,-5.36505c0.26544,-2.72671 1.78413,-4.20306 4.0264,-3.98478z" data-paper-data="{&quot;index&quot;:null}" fill="#1b171c"/></g><g stroke="#000000" stroke-width="1.5"><path d="M130.43971,229.68961c0.47898,-8.27087 7.9378,-15.79851 14.65956,-15.33689c6.72423,0.46179 12.92117,5.41624 13.18893,16.23424c0.24034,9.71016 -6.33929,15.99758 -14.31338,15.53579c-7.97409,-0.46179 -14.09668,-6.73625 -13.53512,-16.43313z" fill="#2c262f"/><path d="M152.24706,233.94233c-0.15839,2.73501 -1.54458,4.34738 -3.79368,4.21713c-2.2491,-0.13025 -3.99721,-2.48361 -3.83882,-5.21863c0.15839,-2.73501 1.61804,-4.26975 3.86714,-4.1395c2.2491,0.13025 3.92375,2.40598 3.76536,5.141z" data-paper-data="{&quot;index&quot;:null}" fill="#1b171c"/></g></g><g stroke="#000000"><g fill="#434253"><path d="M302.93639,282.15582c0,0 -39.39406,0.31655 -59.64769,0.31655c-21.72904,0 -66.6118,-0.31655 -66.6118,-0.31655c0,0 -2.38216,-40.33861 -2.16309,-60.75635c0.20152,-18.78125 2.16309,-54.08575 2.16309,-54.08575c0,0 42.82931,-1.2662 64.39595,-1.2662c21.14461,0 59.33114,1.58275 59.33114,1.58275c0,0 4.66352,44.84767 4.63123,67.07726c-0.03994,25.54257 -2.09882,47.44828 -2.09882,47.44828z" stroke-width="2.5"/><path d="M182.62638,273.74783c1.29409,0 2.34316,0.94416 2.34316,2.10884c0,1.16468 -1.04906,2.10884 -2.34316,2.10884c-1.29409,0 -2.34316,-0.94416 -2.34316,-2.10884c0,-1.16468 1.04906,-2.10884 2.34316,-2.10884z" stroke-width="2"/><path d="M296.08662,273.11069c1.29409,0 2.34316,0.94416 2.34316,2.10884c0,1.16468 -1.04907,2.10884 -2.34316,2.10884c-1.29409,0 -2.34316,-0.94416 -2.34316,-2.10884c0,-1.16468 1.04907,-2.10884 2.34316,-2.10884z" stroke-width="2"/><path d="M291.8315,175.44762c-0.48529,-1.12251 0.08425,-2.44878 1.27209,-2.9623c1.18785,-0.51352 2.54417,-0.01985 3.02946,1.10266c0.48528,1.12251 -0.08426,2.44879 -1.2721,2.96231c-1.18785,0.51352 -2.54417,0.01984 -3.02946,-1.10267z" stroke-width="2"/><path d="M180.91757,172.05908c1.18784,-0.51352 2.54418,-0.01985 3.02946,1.10266c0.48528,1.12251 -0.08426,2.44879 -1.2721,2.96231c-1.18784,0.51352 -2.54417,0.01984 -3.02945,-1.10267c-0.48528,-1.12251 0.08425,-2.44878 1.27209,-2.9623z" stroke-width="2"/></g><g><path d="M187.36314,208.89734c-2.36044,-6.40232 -2.14847,-24.22034 1.17777,-27.70117c8.80798,-9.21732 26.01104,-9.48636 48.15555,-9.48636c20.7312,0 40.80646,1.21551 50.19223,9.11804c4.42593,3.72649 4.09175,24.72433 0.61728,30.38921c-5.21713,8.50616 -20.51325,11.67052 -51.0204,11.67052c-30.50715,0 -45.72795,-4.44989 -49.12243,-13.65691z" fill="#434253" stroke-width="2"/><path d="M191.46432,207.317c-2.1792,-5.67588 -1.98352,-21.47217 1.08734,-24.55804c8.13172,-8.17147 24.01396,-7.77733 44.45825,-7.77733c19.1395,0 37.67343,0.44494 46.33857,7.45081c4.08612,3.30367 3.77759,21.91897 0.56988,26.94108c-4.81657,7.54101 -18.93828,9.50278 -47.10314,9.50278c-28.16487,0 -42.21704,-3.39695 -45.3509,-11.55929z" fill="#2c262f" stroke-width="1.5"/><path d="M216.73025,204.30872c-0.84859,-2.4182 -0.77238,-9.14817 0.42343,-10.4629c3.16654,-3.48144 9.35117,-4.21571 17.31229,-4.21571c7.45303,0 14.67023,1.09175 18.04449,4.07659c1.59116,1.40752 1.47102,9.33853 0.22192,11.47819c-1.8756,3.21283 -7.37467,4.61891 -18.34223,4.61891c-10.96755,0 -16.43956,-1.85087 -17.65989,-5.32841z" fill="#1b171c" stroke-width="1.5"/></g><g><path d="M187.36314,264.28152c-2.36044,-6.40232 -2.14847,-24.22034 1.17777,-27.70116c8.80798,-9.21732 26.01104,-9.48637 48.15555,-9.48637c20.7312,0 40.80646,1.21551 50.19223,9.11804c4.42593,3.7265 4.09175,24.72433 0.61728,30.38921c-5.21713,8.50616 -20.51325,11.67052 -51.0204,11.67052c-30.50715,0 -45.72795,-4.4499 -49.12243,-13.65692z" fill="#434253" stroke-width="2"/><path d="M191.46432,262.70117c-2.1792,-5.67588 -1.98352,-21.47217 1.08734,-24.55804c8.13172,-8.17147 24.01396,-7.77734 44.45825,-7.77734c19.1395,0 37.67343,0.44494 46.33857,7.45081c4.08612,3.30367 3.77759,21.91898 0.56988,26.94109c-4.81657,7.54101 -18.93828,9.50278 -47.10314,9.50278c-28.16487,0 -42.21704,-3.39695 -45.3509,-11.55929z" fill="#2c262f" stroke-width="1.5"/><path d="M216.73025,259.69291c-0.84859,-2.41819 -0.77238,-9.14816 0.42343,-10.46289c3.16654,-3.48144 9.35117,-4.21571 17.31229,-4.21571c7.45303,0 14.67023,1.09175 18.04449,4.07659c1.59116,1.40752 1.47102,9.33852 0.22192,11.47818c-1.8756,3.21283 -7.37467,4.61891 -18.34223,4.61891c-10.96755,0 -16.43956,-1.85087 -17.65989,-5.32842z" fill="#1b171c" stroke-width="1.5"/></g></g></g><path d="M256.2808,158.11394c-2.8576,-2.66303 14.79875,-1.09104 14.79875,-1.09104c0,0 -1.04668,7.29658 -5.86596,7.72655c-0.71551,0.085 -1.7737,-0.02826 -2.67193,-0.55968c-2.80558,-1.65986 -5.80176,-5.64801 -6.26086,-6.07584z" data-paper-data="{&quot;index&quot;:null}" fill="#fb95a9" stroke="#000000" stroke-width="2"/><g data-paper-data="{&quot;index&quot;:null}"><path d="M229.76574,132.00554c2.41131,-2.95149 10.53162,-0.25987 12.59919,3.86227c0.26008,0.51854 1.70637,-0.66733 5.40284,0.98163c0.86997,0.38809 5.76087,2.42654 8.41284,5.62037c1.26983,1.52929 1.69603,4.4245 1.54261,5.46051c-0.22905,2.80784 -2.67033,5.18657 -4.85989,7.14774c-2.87249,2.57284 1.75248,7.33006 -2.40533,7.33006c-3.03121,0 -16.54137,0.60747 -18.69314,-0.7284c-1.28409,-0.79719 -0.53199,-7.61244 -0.88049,-9.01861c-0.48674,-1.96396 -4.99822,-4.40189 -4.99822,-6.61256c0,-2.58633 2.29137,-12.099 3.87959,-14.04301z" fill="#ee1536" stroke="#000000" stroke-width="2"/><path d="M245.87773,152.19464c0,-3.14019 3.56399,-6.94934 7.26523,-7.10728c1.42906,-0.06098 2.65733,0.06996 3.18396,0.81425c0.66164,0.93511 0.38103,2.67311 -0.13046,4.34512c-1.10558,3.61402 -4.40634,5.42259 -7.63376,5.42259c-0.06272,0 2.08362,-1.58996 2.84464,-0.28992c1.01358,1.73146 0.66979,6.51156 0.03616,6.86773c-2.98614,1.67855 -13.402,-0.74155 -16.31172,-0.67209c-0.60085,0.01435 -2.90823,0.59035 -3.45604,-1.26733c-0.44915,-1.5231 0.38106,-5.65028 0.34354,-5.65555c-0.60286,-0.08461 -1.36799,-4.06688 -1.36799,-4.06688c0,0 -2.86476,-2.27685 -2.9505,-2.85725c-0.15338,-1.03828 2.10836,-2.8435 2.10836,-2.8435c0,0 1.25189,1.00644 1.97555,1.57762c0.66583,0.52553 1.57561,2.98741 1.57561,2.98741c0,0 4.12841,-5.5717 8.29185,-4.21031c5.58397,1.82588 4.22558,7.21129 4.22558,6.95539z" fill="#9a1652" stroke="none" stroke-width="0"/><path d="M232.38807,161.18462c0.86132,-1.55025 8.52088,-5.58592 9.70316,-7.17085c2.60911,-3.4977 4.57621,-6.08348 4.57621,-6.08348c0,0 0.91108,5.32297 -0.66029,9.58239c-1.16307,3.15265 6.61433,5.47453 5.8723,5.47453c-1.74455,0 -20.27813,-0.38656 -19.49138,-1.80259z" fill="#000000" stroke="none" stroke-width="0"/></g><g data-paper-data="{&quot;index&quot;:null}"><path d="M233.74863,141.8992c1.04899,5.04395 -1.7023,18.56357 -1.7023,18.56357c0,0 -0.21844,1.38755 -0.90199,2.66965c-0.38029,0.71328 -0.56545,1.35525 -1.74929,1.80012c-0.79181,0.29757 -3.51708,0.29898 -4.68626,-0.65554c-1.02337,-0.83547 -1.30849,-3.14919 -1.4299,-3.9125c-0.48148,-3.02703 -0.13874,-7.37128 -0.74681,-12.31579c-0.75607,-6.14796 -2.2723,-13.52452 -1.83918,-15.98046c0.11174,-0.63357 1.12798,0.11567 1.40673,0.05331c1.2249,-0.274 1.91124,0.16959 3.7447,1.03483c3.12716,1.47574 6.98919,4.43335 7.82816,8.46741z" fill="#ffd5d5" stroke="#000000" stroke-width="2"/><path d="M231.01974,161.58041c-0.50276,1.28299 -1.11227,2.12069 -1.83597,2.36031c-1.30281,0.43137 -3.40945,0.42729 -4.23474,-0.71747c-1.98619,-2.75507 -0.98242,-12.27929 -0.98242,-12.27929l7.75853,5.89219c0,0 0.10372,2.67953 -0.7054,4.74426z" fill="#fb95a9" stroke="none" stroke-width="0"/></g><g data-paper-data="{&quot;index&quot;:null}"><path d="M255.19958,183.60414c-1.00101,-2.204 -1.48204,-4.3489 -0.72825,-4.96606c2.33239,-1.90961 13.28484,-2.98899 13.38878,-2.98899c6.31528,0 14.84633,4.70166 14.84633,7.42317c0,2.15815 -5.66177,5.08636 -11.867,4.87772c-9.17694,-0.30857 -12.61375,-4.42959 -12.80984,-4.64776c-0.77835,-0.86597 0.94691,1.54978 1.61014,2.51138c0.76014,1.10213 2.09503,1.87099 1.91005,2.94778c-0.21138,1.23048 -1.04517,0.91066 -1.93413,0.37576c-1.07219,-0.64516 -2.75079,-1.86638 -4.41608,-5.533z" fill="#ee1536" stroke="#000000" stroke-width="1.5"/><path d="M224.16343,166.26341c0,-3.59654 1.88208,-6.79388 5.00437,-9.12732c4.14737,-3.09953 10.28977,-4.77137 15.23297,-4.77137c5.31995,0 12.36793,-0.19935 14.37465,2.09274c0.5447,0.62216 0.11605,3.35746 0.47021,5.96384c0.20355,1.49801 1.01152,5.12835 2.06489,8.05201c0.76659,2.12772 1.6857,4.5633 2.81912,4.87357c4.6996,1.28652 11.33458,3.83886 9.65309,6.39177c-1.27777,1.93997 -8.71321,2.17386 -14.6326,0.37436c-5.32793,-1.61969 -9.13974,-5.17457 -11.08352,-5.65964c-3.29754,-0.8229 -10.29591,1.43415 -13.65474,0.96798c-2.18858,-0.30375 -4.10262,-1.02669 -5.53901,-1.79684c-3.55989,-1.90871 -4.7094,-5.13615 -4.7094,-7.3611z" fill="#ffd5d5" stroke="#000000" stroke-width="1.5"/><path d="M254.40495,162.56109c0,0 1.5473,-1.13661 2.20683,-1.84011c0.59795,-0.63781 1.58373,-2.20314 1.58373,-2.20314c0,0 0.47515,2.43192 0.69523,3.67533c0.19897,1.12418 0.56829,3.46354 0.56829,3.46354c0,0 -2.16472,-0.56777 -3.07746,-1.12683c-0.7315,-0.44803 -1.97661,-1.96878 -1.97661,-1.96878z" fill="#fb95a9" stroke="none" stroke-width="0"/><path d="M275.0888,179.52293c0.16969,-0.35395 1.67522,-0.13645 2.97302,0.48578c1.2978,0.62223 2.68613,2.36122 2.51643,2.71517c-0.1697,0.35394 -1.51728,-1.12707 -2.81508,-1.7493c-1.29779,-0.62223 -2.84406,-1.0977 -2.67436,-1.45165z" fill="#fc9ea5" stroke="none" stroke-width="0"/></g><g data-paper-data="{&quot;index&quot;:null}"><path d="M231.0166,187.59701c2.5441,-6.35721 7.6863,-8.12709 12.34285,-6.26357c4.65656,1.86351 6.54811,7.90162 4.004,14.25883c-2.5441,6.35722 -11.22418,11.88722 -14.69074,10.29339c-3.43224,-1.57805 -4.378,-11.60389 -1.83389,-17.9611z" fill="#ee1536" stroke="#000000" stroke-width="1.5"/><path d="M233.51808,184.81938c0,0 2.00422,-2.86118 4.30555,-3.50609c0.77193,-0.21631 4.08674,0.23689 6.56763,1.86017c1.68622,1.10331 2.8021,3.19439 3.19142,4.24588c0.67057,1.81111 0.10967,3.76134 0.10967,3.76134c0,0 -1.81828,1.66589 -5.43619,1.54424c-1.90251,-0.06397 -4.61734,-2.13774 -6.33064,-4.2466c-1.54479,-1.90145 -2.40744,-3.65892 -2.40744,-3.65892z" fill="#9a1652" stroke="none" stroke-width="0"/><path d="M237.96925,175.03086c0.55432,-7.08643 2.21505,-10.84502 10.62649,-10.5467c4.91806,0.17442 6.52345,5.86357 6.20118,8.26798c-1.07822,8.0444 -9.74893,15.13352 -9.74893,15.13352c0,0 1.38491,8.01261 -6.9327,9.02219c-4.06733,0.49369 -4.09452,-6.52097 -3.42123,-8.22854c1.22234,-3.10001 3.42075,-4.916 3.42075,-4.916c0,0 -0.3919,-5.5836 -0.14558,-8.73245z" fill="#ffd5d5" stroke="#000000" stroke-width="1.5"/><path d="M245.10259,176.38818c-0.98594,-0.64 -1.21165,-1.61216 -1.54278,-2.57662c-0.39958,-1.16379 -0.68288,-4.079 -0.68288,-4.079c0,0 1.88781,1.43735 2.95744,2.05164c1.0526,0.6045 3.57324,1.45269 3.57324,1.45269c0,0 -1.55297,2.41034 -2.26572,2.89984c-0.66241,0.45494 -1.05335,0.89143 -2.03929,0.25145z" fill="#fb95a9" stroke="none" stroke-width="0"/><path d="M235.86949,203.05131c-0.64171,-0.03296 1.51192,-1.05037 2.3367,-1.53259c0.91489,-0.5349 2.82616,-2.37563 2.86295,-2.00666c0.07441,0.74608 -1.44675,2.17702 -2.28268,2.66576c-0.90726,0.53045 -1.82762,0.92947 -2.91696,0.87351z" fill="#fc9ea5" stroke="none" stroke-width="0"/></g><g data-paper-data="{&quot;index&quot;:null}"><path d="M241.91318,157.68957c0,2.29411 -1.25818,4.61538 -3,4.61538c-0.76278,0 -3.11037,-0.73494 -3.60601,-1.49437c-0.52018,-0.79702 -2.20134,-5.64467 -0.8631,-7.58224c0.2984,-0.43204 3.61307,-0.53877 3.93065,-0.53877c1.74182,0 3.53846,2.70589 3.53846,5z" fill="#fd96aa" stroke="#000000" stroke-width="1.5"/><path d="M238.99765,155.36429c0,4.48731 -3.19181,8.875 -7.4375,8.875c-4.24569,0 -6.5625,-3.26269 -6.5625,-7.75c0,-4.48731 3.06681,-8.375 7.3125,-8.375c0.42285,0 2.52519,-0.3495 4.87944,-1.18678c3.58981,-1.2767 8.28642,-3.06533 10.90324,-2.80277c0.41148,0.04129 0.96513,0.31779 1.36082,0.71617c0.443,0.44602 0.7075,1.02531 0.74205,1.20909c0.83269,4.42997 -5.98453,5.25017 -9.58073,5.89658c-1.33894,0.24067 -2.15109,0.83204 -2.15109,0.83204c0,0 0.53377,1.69476 0.53377,2.58568z" fill="#ffd5d5" stroke="#000000" stroke-width="2"/><path d="M225.96074,157.7649c0,0 1.31118,2.06283 3.21457,2.64476c0.63741,0.19487 -0.02157,-0.60386 0.96662,-0.65647c0.48158,-0.02564 1.71308,1.26414 3.2383,0.76702c1.8479,-0.60229 4.67142,-5.5735 4.67142,-5.5735c0,0 0.09418,3.12019 -1.52514,5.55894c-0.89188,1.34321 -2.3669,2.4797 -4.51488,2.7743c-1.38135,0.18945 -3.03094,-0.32712 -3.99461,-1.29818c-1.71101,-1.72412 -2.05627,-4.21688 -2.05627,-4.21688z" fill="#fb95a9" stroke="none" stroke-width="0"/><path d="M227.83626,162.30496c0,0 -0.1889,-0.61077 0.84803,-1.90619c0.80488,-1.00553 2.25406,-0.81564 2.20899,-0.57336c-0.05147,0.27667 -0.53704,0.76628 -0.86242,1.42386c-0.48657,0.98336 -0.34844,2.20255 -0.34844,2.20255z" fill="#000000" stroke="none" stroke-width="0"/><path d="M237.14395,160.38188c0,0 -0.00528,-1.80894 -0.31401,-2.63224c-0.30663,-0.81768 -1.22445,-2.21391 -1.22445,-2.21391c0,0 0.99221,0.41313 1.45799,0.67929c0.42856,0.24489 1.23432,0.85917 1.23432,0.85917z" fill="#000000" stroke="none" stroke-width="0"/><path d="M244.35977,145.00529c0,0 0.96222,-0.41929 1.72045,-0.51819c0.66775,-0.0871 2.25871,0.0043 2.25871,0.0043c0,0 0.17421,1.21756 -0.43926,1.86061c-0.97065,1.01744 -2.02554,1.21278 -2.84958,1.30382c-0.41762,0.04614 -0.69032,-0.58635 -0.69032,-0.96305z" fill="#f7426f" stroke="#000000" stroke-width="1"/></g><g data-paper-data="{&quot;index&quot;:null}"><path d="M271.32482,151.84264c0.98554,0.91565 2.69914,2.98473 2.37761,6.30422c-0.28178,2.90909 -4.38362,4.59501 -7.25167,4.59501c-3.68535,0 -4.09378,-3.88056 -4.09378,-3.88056c0,0 -1.37986,0.91927 -3.09615,0.6913c-1.53049,-0.20328 -2.9026,-1.60588 -3.51944,-4.12752c-0.21117,-1.71239 0.11239,-2.88628 0.52321,-3.91997c0.38389,-0.96592 1.31487,-1.99144 2.11654,-2.76018c1.19174,-1.14279 2.52968,-2.6382 5.42603,-2.6382c1.5625,0 4.83369,0.12169 8.09991,-0.41155c2.1263,-0.34715 4.01238,-0.96808 5.86219,-1.38272c1.67872,-0.37628 3.09727,-0.56713 4.03811,-0.52167c0.33355,0.01612 0.97651,0.15316 1.32961,0.83793c0.29813,0.57814 0.15478,1.26078 0.10625,1.44209c-1.58824,5.93383 -8.93545,5.69056 -11.57822,5.40151c-0.59388,-0.06496 -0.6994,-0.1063 -0.34018,0.22746z" fill="#ffd5d5" stroke="#000000" stroke-width="2"/><path d="M257.20447,151.92231c0,0 0.14235,2.17809 2.29704,2.33172c0.60189,0.04291 2.41805,-0.85162 4.01223,-2.32232c0.79204,-0.7307 1.16395,-2.64115 2.02732,-2.98534c0.05698,-0.02272 0.24744,-0.17084 0.53295,-0.09898c0.33181,0.0835 0.49079,0.32205 0.6147,0.32874c0.60663,0.03273 1.64317,0.1642 2.49583,0.176c1.96501,0.02719 4.28583,-0.22808 6.50634,-0.68366c2.5281,-0.51868 4.35553,-2.57434 5.47836,-2.79484c0.44269,-0.08694 1.17936,-0.0669 1.17936,-0.0669c0,0 -0.6693,2.06881 -1.88193,2.95162c-0.92901,0.67633 -1.98172,1.18858 -3.13835,1.47319c-3.39135,0.83451 -7.15032,0.23808 -7.15032,0.23808l-1.14731,1.12063c0,0 -0.27473,4.8443 1.15371,4.94696c0.29148,0.02095 0.60971,-0.5765 0.85243,-0.47295c0.55191,0.23546 0.40644,2.31029 0.78122,2.46812c0.56445,0.23771 0.82632,0.10593 0.82632,0.10593c0,0 -0.74914,1.54659 -2.39341,2.34197c-2.09132,1.01164 -4.38846,1.20925 -5.60484,0.66087c-1.51635,-0.68362 -2.33867,-3.40278 -2.33867,-3.40278c0,0 -3.06338,0.09194 -4.00015,-0.56226c-0.9902,-0.6915 -1.50132,-1.82235 -1.60252,-2.89405c-0.13686,-1.44935 0.49969,-2.85976 0.49969,-2.85976z" fill="#fb95a9" stroke="none" stroke-width="0"/><path d="M261.15098,159.05375c0,0 0.90401,-1.48142 0.97239,-2.35001c0.07167,-0.91042 -0.4879,-1.87333 -0.88459,-2.81069c-0.18257,-0.43139 -0.30178,-0.98281 -0.12077,-1.20562c0.14542,-0.179 0.53371,-0.09681 0.86714,0.05862c0.44538,0.20764 0.57266,0.52662 1.01192,0.75319c0.1529,0.07886 0.34458,0.26723 0.57724,0.29229c0.41666,0.04488 0.96464,-0.12835 1.65634,-0.21891c1.26798,-0.16602 2.84406,-1.58105 2.84406,-1.58105c0,0 -0.08929,1.58905 -0.50621,2.52936c-0.29641,0.75395 -3.60389,0.85701 -3.74836,1.12336c-0.35765,0.65941 -0.36178,1.879 -0.09219,2.50284c0.35788,0.82817 1.09261,0.97588 1.09261,0.97588z" fill="#000000" stroke="none" stroke-width="0"/><path d="M262.81269,158.08445c0,0 2.03082,0.996 4.34184,0.58636c1.47907,-0.26218 3.62044,-2.17882 3.62044,-2.17882c0,0 -0.63559,2.71144 -3.30238,3.50931c-0.23268,0.06962 -0.86955,0.23053 -1.5447,0.22818c-1.52548,-0.00532 -3.53062,-0.27563 -3.53062,-0.27563z" fill="#000000" stroke="none" stroke-width="0"/><path d="M258.46286,158.97453c-1.36072,-0.63778 -1.67383,-1.72093 -1.67383,-1.72093c0,0 0.32157,-0.60438 1.07624,-1.02583c0.4786,-0.26728 1.14418,-0.25328 1.3625,-0.1726c0.19699,0.07279 0.98738,0.56135 1.28218,1.20123c0.43638,0.94721 0.43333,2.07431 0.43333,2.07431c0,0 -1.27937,0.20676 -2.48041,-0.35618z" fill="#871847" stroke="#000000" stroke-width="1"/><path d="M271.25963,152.82241c0,0 -0.16751,-0.38189 -0.70469,-0.59158c-0.82041,-0.32025 -2.13404,-0.4002 -2.13404,-1.4163c0,-0.98501 4.50042,-0.20772 4.50042,-0.20772z" fill="#000000" stroke="none" stroke-width="0"/></g><g data-paper-data="{&quot;index&quot;:null}"><g><g><g><path d="M260.26653,126.47452c0.63925,-3.60736 3.5248,-6.11219 6.44504,-5.59468c2.92024,0.5175 4.76932,3.86135 4.13005,7.46871c-0.63927,3.60736 -3.52483,6.11219 -6.44507,5.59468c-2.92025,-0.5175 -4.76932,-3.86134 -4.13005,-7.4687z" fill="#fb95a9" stroke="#000000" stroke-width="2"/><path d="M243.7489,139.74054c-23.96854,-8.00098 -26.11495,-11.27617 -26.02043,-21.51044c0.09453,-10.2343 14.71402,-8.65012 29.19316,-8.51639c14.47917,0.13372 22.06384,-0.403 21.96931,9.83129c-0.01542,1.66952 -3.31058,11.35486 -3.31058,11.35486c0,0 7.04701,5.37289 5.5571,9.16148c-1.62258,4.08659 -18.32189,2.70575 -27.38855,-0.32079z" fill="#ffd5d5" stroke="#000000" stroke-width="2"/><path d="M220.94929,111.5209c0,0 27.55067,-3.71215 33.75006,-3.65488c11.74616,0.10849 13.39523,6.6925 13.35118,11.46075c-0.01925,2.08265 -3.03985,10.08988 -3.03985,10.08988c0,0 -2.96314,-5.89685 -4.84072,-7.52191c-0.74338,-0.64341 -2.03919,-2.06257 -2.03919,-2.06257c0,0 -1.5666,1.36178 -2.45075,2.18457c-1.22412,1.13917 -4.22716,3.17722 -4.22716,3.17722l-0.31468,-3.81678l-4.82961,3.43483l-5.3931,-8.34436c0,0 -3.77756,4.97718 -6.41411,6.80823c-2.8112,1.95232 -9.9628,4.56527 -9.9628,4.56527l-3.91617,-0.9553c0,0 -2.20185,-5.40275 -2.14629,-8.01301c0.05334,-2.50726 2.47325,-7.35199 2.47325,-7.35199z" fill="#fb95a9" stroke="none" stroke-width="0"/><path d="M210.96767,120.58955c0.02951,-3.19821 -0.04591,-3.8964 1.94478,-5.35219c1.59595,-1.1671 7.54711,3.71555 7.51757,6.91377c-0.02952,3.19821 -1.02837,6.20305 -3.00545,6.1848c-1.97709,-0.01827 -6.41365,-3.69422 -6.37828,-7.52418z" fill="#ffd5d5" stroke="#000000" stroke-width="2.5"/><path d="M217.5376,127.49458c-0.7056,-0.00652 -3.23973,-1.50475 -4.23408,-3.22942c-0.62078,-1.0767 -0.91699,-2.41416 -1.05496,-3.56088c-0.16919,-1.40627 0.88259,-2.01365 2.11196,-1.26306c2.05618,1.25539 4.80154,3.17804 4.78946,4.48811c-0.01932,2.09337 0.07396,3.5808 -1.61238,3.56523z" fill="#fb95a9" stroke="none" stroke-width="0"/><path d="M214.14375,118.72355c0.0059,-0.63965 5.41666,6.36788 5.41666,6.36788l-1.07719,2.62248c0,0 -4.34536,-8.35073 -4.33945,-8.99039z" fill="#000000" stroke="none" stroke-width="0"/><path d="M216.49177,128.34165c-0.21257,-1.85672 1.53142,-3.2838 3.65445,-3.46576c2.12298,-0.18195 4.47758,-0.56128 5.0638,2.59727c0.10319,0.55599 0.68472,4.19433 -1.02834,5.78068c-0.26702,0.24727 -1.736,1.14087 -3.15314,1.17322c-1.95709,0.0447 -3.09718,-0.52825 -3.09718,-0.52825c0,0 2.38137,-1.51103 2.17917,-1.68028c-0.64489,-0.53976 -3.44016,-2.31687 -3.61878,-3.87686z" fill="#6d0f0a" stroke="#000000" stroke-width="2"/><path d="M203.83939,125.58156c-6.7665,-4.66637 -8.84073,-8.93024 -8.84073,-8.93024c0,0 6.69339,0.22005 9.12541,-1.69054c2.45145,-1.92586 5.53718,-11.08255 5.53718,-11.08255c0,0 23.00583,2.48592 32.81554,2.57652c9.08368,0.08392 17.05285,0.18171 22.88991,0.26079c6.34428,0.08597 11.6381,3.2892 12.14354,8.24016c0.12511,1.22521 0.29262,2.87526 0.2464,4.25117c-0.21124,6.28892 -2.9523,11.76779 -2.9523,11.76779c0,0 -4.60307,-7.96676 -6.87717,-11.45323c-2.81256,-4.31195 -7.74511,-8.37008 -7.74511,-8.37008c0,0 -1.17034,3.83183 -2.96472,6.2241c-1.85747,2.47638 -5.00779,2.12749 -5.00779,2.12749c0,0 -0.0124,-3.18698 -0.51268,-4.68814c-0.4605,-1.38187 -1.30655,-3.98371 -1.45278,-2.82011c-0.14712,1.17051 -0.8865,3.92874 -1.20876,5.28845c-0.83412,3.51916 -1.43019,3.96063 -1.43019,3.96063c0,0 -1.61696,-3.33186 -3.26382,-6.45731c-1.40028,-2.65745 -3.87885,-4.27072 -3.87885,-4.27072c0,0 -4.98735,4.20794 -7.78039,5.85873c-2.52307,1.49124 -7.86876,3.61955 -7.86876,3.61955c0,0 1.68453,8.23156 -2.29557,7.59566c-2.813,-0.44944 -4.00348,-1.04255 -5.41741,-2.34724c-0.84765,-0.78216 -0.91769,-3.7818 -0.91769,-3.7818l2.04948,0.67313c0,0 -0.82129,-6.29205 -2.13298,-6.73707c-2.30957,-0.78357 -0.51288,-0.97894 -4.01816,-0.92422c-0.51021,0.00797 -2.08219,2.94978 -2.0448,5.78988c0.04013,3.04914 1.70994,6.01116 1.70994,6.01116c0,0 -4.45189,1.65862 -7.75625,-0.62018z" fill="#6d0f0a" stroke="#000000" stroke-width="1.5"/><path d="M253.52798,109.56606c-0.9806,-0.00907 -2.22648,-1.16453 -4.20068,-1.32423c-2.13884,-0.17304 -5.01511,0.65008 -6.14686,0.67818c-16.34556,0.40633 -34.53868,1.27629 -34.53868,1.27629c0,0 0.82341,-2.5686 0.92329,-3.83777c0.10673,-1.35594 0.01383,-4.05194 0.01383,-4.05194c0,0 21.95809,2.99423 35.11875,3.11579c8.44479,0.07798 17.34729,-0.18392 22.88876,0.65625c5.86764,0.8896 8.57415,2.88576 8.57415,2.88576l0.78192,6.90991l-2.52215,-0.71672l-5.9679,-6.55236c0,0 -10.42633,1.00234 -14.92443,0.9608z" fill="#6d0f0a" stroke="none" stroke-width="0"/><path d="M241.98724,137.77165c0,0 -2.35783,-6.42053 -2.22126,-6.62029c0.21013,-0.30737 8.7559,2.26969 8.76777,2.66076c0.01134,0.37314 -5.48742,4.11783 -6.54652,3.95953z" fill="#ef3d61" stroke="#000000" stroke-width="1.5"/><path d="M228.22619,114.54611c0,0 1.48116,1.77607 2.32691,2.39711c0.77836,0.57157 2.14585,0.66277 2.14585,0.66277c0,0 -0.29837,-0.76328 -0.59352,-1.55677c-0.30782,-0.82756 -0.72685,-3.16581 -0.72685,-3.16581c0,0 1.18132,1.81588 1.80554,2.45669c0.59694,0.61283 2.07018,1.52045 2.07018,1.52045c0,0 2.59355,-0.02435 4.29767,-0.0086c4.4609,0.04121 7.326,3.2266 7.326,3.2266c0,0 -2.41704,-0.70365 -3.26244,-0.91854c-0.60049,-0.15269 -1.33262,-0.10896 -1.33262,-0.10896c0,0 0.07269,8.51199 -6.29976,8.52332c-5.21938,0.0093 -3.70698,-7.00935 -3.90356,-7.39714c-0.14242,-0.28094 -1.01871,-1.17893 -1.01871,-1.17893c0,0 -1.41269,-0.91841 -1.86379,-1.60996c-0.49074,-0.75233 -0.97088,-2.84224 -0.97088,-2.84224z" fill="#000000" stroke="none" stroke-width="0"/></g><path d="M276.85578,113.8875c0,0 -0.30018,-2.74794 -0.55219,-4.13103c-0.24098,-1.32258 -0.92838,-3.99411 -0.92838,-3.99411c0,0 1.05489,0.7175 1.59797,3.06608c0.35494,1.53494 1.21177,5.51579 1.21177,5.51579z" fill="#000000" stroke="none" stroke-width="0"/></g></g><path d="M249.48186,125.61297c-0.01263,-1.94221 0.55894,-5.26887 3.52599,-6.3824c0.53272,-0.19995 1.74286,-0.09595 3.06153,0.35109c1.35161,0.4582 2.47609,1.22456 2.80468,1.41584c0.64915,0.37793 1.91134,0.07266 1.91134,0.07266c0,0 1.25469,-0.59058 1.96772,-1.07094c0.59859,-0.40327 2.02417,-2.12598 2.02417,-2.12598c0,0 -0.08289,1.49994 -1.30325,3.07565c-0.50287,0.64932 -1.85416,1.78139 -1.85416,1.78139c0,0 1.02792,0.14106 2.204,-0.05251c0.88342,-0.14538 3.10184,-1.39079 3.10184,-1.39079c0,0 -1.02525,1.68228 -1.729,2.39329c-0.48595,0.49096 -1.6733,1.07416 -1.6733,1.07416l-0.24176,1.01231c0,0 -1.45031,-1.87895 -2.23364,-2.30907c-0.63336,-0.34777 -2.2399,-0.20299 -2.2399,-0.20299c0,0 -0.28262,7.7116 -5.16445,7.61703c-3.8064,-0.07375 -4.14099,-2.06048 -4.1618,-5.25875z" fill="#000000" stroke="none" stroke-width="0"/></g></g></g></svg>