<svg version="1.1" xmlns="http://www.w3.org/2000/svg" xmlns:xlink="http://www.w3.org/1999/xlink" width="127.66667" height="127.66667" viewBox="0,0,127.66667,127.66667"><g transform="translate(-176.16667,-116.16666)"><g data-paper-data="{&quot;isPaintingLayer&quot;:true}" fill-rule="nonzero" stroke-linejoin="miter" stroke-miterlimit="10" stroke-dasharray="" stroke-dashoffset="0" style="mix-blend-mode: normal"><g stroke="#000000" stroke-width="1" stroke-linecap="butt"><path d="M227.20346,183.54325c0.46917,-1.20979 1.9223,-4.10586 3.18778,-4.67335c3.60948,-1.61867 4.768,2.16379 5.0193,4.70497c-0.02232,2.36867 -1.29276,6.08852 -3.66655,8.72446c-1.63672,1.81746 -4.06657,2.90403 -5.57216,3.55625c-0.51351,0.22246 -2.09692,0.01206 -4.13469,-3.27194c-1.90548,-3.07081 -3.02945,-7.61389 -1.86385,-8.33739c1.00306,-0.62262 6.70343,0.14696 6.70343,0.14696z" fill="#dc94e7"/><path d="M223.31967,187.87617c0.05457,0.04103 0.08536,0.07251 0.08536,0.07251l0.66462,0.78232c0.29514,0.81924 0.26632,1.55583 0.27364,2.27296c0.009,0.88269 -0.03166,1.73478 -0.61199,2.66167c-4.05862,5.29923 -15.01133,6.88221 -14.91272,-2.28021c0.06015,-3.82177 3.63999,-4.96213 7.38055,-4.99025c2.54859,-0.01917 5.17298,0.36935 6.80494,1.20292c0,0 0.18211,0.09353 0.31561,0.27808z" fill="#f89688"/></g><g><g stroke="#000000" stroke-linecap="round"><path d="M217.39262,198.10566c0,0 2.77356,-5.4398 4.13943,-6.21618c0.72822,-0.41394 3.42693,1.9153 3.42693,1.9153c0,0 4.75261,-4.06073 11.07906,-4.08413c8.09534,-0.02994 19.34573,2.25227 19.34573,2.25227l2.86726,11.62832c0,0 -16.00774,1.20555 -22.80124,0.29181c-6.82582,-0.91809 -18.05716,-5.78738 -18.05716,-5.78738z" fill="#0065cc" stroke-width="0"/><path d="M224.95899,193.80477c0,0 4.75261,-4.06073 11.07906,-4.08413c8.09534,-0.02994 19.34573,2.25227 19.34573,2.25227l2.86726,11.62832c0,0 -16.00774,1.20555 -22.80124,0.29181c-2.42102,-0.32564 -5.39627,-1.14834 -8.22801,-2.07454c-0.18852,-2.71503 -0.97078,-5.45195 -1.84464,-7.13762c-0.12154,-0.23446 -0.27258,-0.54189 -0.44949,-0.9029c0.02049,0.01743 0.03134,0.02678 0.03134,0.02678z" fill="#061382" stroke-width="0"/><path d="M232.04747,200.89327l-2.70796,-2.54867" fill="none" stroke-width="1"/><path d="M217.39262,198.10566c0,0 2.77356,-5.4398 4.13943,-6.21618c0.72822,-0.41394 3.42693,1.9153 3.42693,1.9153c0,0 4.75261,-4.06073 11.07906,-4.08413c8.09534,-0.02994 19.34573,2.25227 19.34573,2.25227l2.86726,11.62832c0,0 -16.00774,1.20555 -22.80124,0.29181c-6.82582,-0.91809 -18.05716,-5.78738 -18.05716,-5.78738z" fill="none" stroke-width="1"/></g><g stroke="#000000" stroke-linecap="round"><path d="M249.25102,194.60123l-1.51328,-6.21239l7.64603,-2.38938c0,0 0.17149,2.7748 0.98286,3.82705c0.40524,0.52553 1.70508,0.75763 2.56131,1.28546c1.0071,0.62083 1.55317,1.49811 1.55317,1.49811c0,0 -0.28803,4.42718 -4.95489,4.6561c-3.93081,0.19281 -6.2752,-2.66494 -6.2752,-2.66494z" fill="#fde0be" stroke-width="0"/><path d="M247.73773,188.38884l7.64603,-2.38938c0,0 0.12788,2.06935 0.68533,3.31165c-2.32251,2.12352 -4.27784,2.37238 -7.34419,3.3381z" fill="#f89688" stroke-width="0"/><path d="M249.25102,194.60123l-1.51328,-6.21239l7.64603,-2.38938c0,0 0.17149,2.7748 0.98286,3.82705c0.40524,0.52553 1.70508,0.75763 2.56131,1.28546c1.0071,0.62083 1.55317,1.49811 1.55317,1.49811c0,0 -0.28803,4.42718 -4.95489,4.6561c-3.93081,0.19281 -6.2752,-2.66494 -6.2752,-2.66494z" fill="none" stroke-width="1"/></g><g><path d="M229.23001,185.91782c0,0 -2.69302,-5.63292 1.16249,-10.76664c1.41904,-1.88949 3.84565,-4.31385 7.44797,-5.50405c15.78375,-5.21493 14.80547,9.16228 14.80547,9.16228c0,0 3.97095,4.30425 3.3419,5.91514c-1.28839,3.29933 -7.6627,3.70211 -7.6627,3.70211l0.83628,6.27212c0,0 -9.08739,7.27359 -17.77238,2.91128c-9.96441,-5.00493 -2.15904,-11.69225 -2.15904,-11.69225z" fill="#feecf7" stroke="#000000" stroke-width="0" stroke-linecap="round"/><path d="M229.23001,185.91782c0,0 -2.69302,-5.63292 1.16249,-10.76664c1.41904,-1.88949 3.84565,-4.31385 7.44797,-5.50405c15.78375,-5.21493 14.80547,9.16228 14.80547,9.16228c0,0 3.97095,4.30425 3.3419,5.91514c-1.28839,3.29933 -7.6627,3.70211 -7.6627,3.70211l0.83628,6.27212l-4.43629,-4.52891c0,0 -6.04137,0.87198 -8.08226,-0.02716c-2.86031,-1.26013 -7.41285,-4.22489 -7.41285,-4.22489z" fill="#dc94e7" stroke="#000000" stroke-width="0" stroke-linecap="round"/><path d="M229.23001,185.91782c0,0 -2.69302,-5.63292 1.16249,-10.76664c1.41904,-1.88949 3.84565,-4.31385 7.44797,-5.50405c15.78375,-5.21493 14.80547,9.16228 14.80547,9.16228c0,0 3.97095,4.30425 3.3419,5.91514c-1.28839,3.29933 -7.6627,3.70211 -7.6627,3.70211l0.83628,6.27212c0,0 -9.08739,7.27359 -17.77238,2.91128c-9.96441,-5.00493 -2.15904,-11.69225 -2.15904,-11.69225z" fill="none" stroke="#000000" stroke-width="1" stroke-linecap="round"/><path d="M244.23333,193.00831c0,0.36843 -0.24347,0.49338 -0.40863,0.53577c-0.71336,1.08236 -2.20313,1.73851 -3.73216,1.52943c-3.94843,-0.57486 -8.74636,-2.12117 -8.84151,-7.00325c0,0 0,-0.2193 0.13755,-0.38283c-0.22271,-0.39044 0.15134,-0.6897 0.15134,-0.6897l0.35228,-0.27746c1.72162,-1.63917 4.19053,-0.24457 6.18431,0.25159c1.86258,0.46588 4.31315,1.63172 5.48879,3.23426c0.662,0.90238 0.8125,1.78251 0.61596,2.5424c0.03221,0.06924 0.05205,0.15459 0.05205,0.25978zM242.14221,193.39751c-1.69096,-0.37577 -4.83408,-0.61283 -6.24775,-1.50879c-0.93214,-0.59078 -1.71652,-1.26796 -2.5828,-1.86213c0.1135,0.13862 0.22668,0.29163 0.33281,0.47136c1.74177,2.94955 3.29812,3.00705 6.60574,3.47172c0.78585,0.11833 1.63835,-0.09001 2.22033,-0.52505c-0.10944,-0.01569 -0.21889,-0.03139 -0.32835,-0.04711zM236.4837,190.94207c1.27233,0.83477 4.29183,1.01032 5.85845,1.35846c0.27176,0.03861 0.54351,0.07731 0.81524,0.11608c0.08406,-0.45072 -0.04448,-0.97537 -0.48613,-1.54416c-1.07945,-1.39021 -3.20154,-2.40313 -4.86518,-2.81883c-1.37867,-0.34639 -4.00629,-1.75336 -5.12542,-0.54488l-0.3745,0.30328c0.05991,0.13221 0.05991,0.25823 0.05991,0.25823c-0.00128,0.04367 -0.00163,0.08608 -0.00108,0.1273c1.55025,0.73894 2.68997,1.80713 4.11871,2.74451z" fill="#ff0000" stroke="none" stroke-width="0.5" stroke-linecap="butt"/><path d="M231.53992,186.99774l0.35228,-0.27746c1.72162,-1.63917 4.19053,-0.24457 6.18431,0.25159c1.86258,0.46588 4.31315,1.63172 5.48879,3.23426c0.07927,0.10805 0.1512,0.21577 0.21607,0.32302c-0.35795,0.10879 -0.73365,0.2254 -1.1125,0.34026c-1.08019,-1.38865 -3.20038,-2.40039 -4.86282,-2.81578c-1.37867,-0.34639 -4.00629,-1.75336 -5.12542,-0.54488l-0.3745,0.30328c0.05991,0.13221 0.05991,0.25823 0.05991,0.25823c-0.00064,0.022 -0.00105,0.04369 -0.00123,0.06506c-0.12229,-0.03815 -0.2449,-0.07476 -0.36781,-0.10985c-0.22521,-0.17528 -0.44994,-0.35039 -0.67443,-0.52369c-0.04303,-0.29575 0.21732,-0.50402 0.21732,-0.50402z" fill="#ab0d46" stroke="none" stroke-width="0.5" stroke-linecap="butt"/><path d="M248.37492,188.54814c0,0 -1.29481,-0.23135 -1.88091,-0.53662c-0.67549,-0.35183 -1.94209,-1.45454 -1.94209,-1.45454" fill="none" stroke="#000000" stroke-width="1" stroke-linecap="round"/></g><g><path d="M239.45457,206.07026l2.23009,4.93805c0,0 -4.89814,0.96441 -7.47833,1.20505c-2.54317,0.23719 -7.89335,0.22857 -7.89335,0.22857c0,0 -11.67459,5.12974 -17.8515,3.9866c-5.94968,-1.10108 -6.4953,-4.009 -5.86788,-5.63514c0.04884,-0.12657 1.10014,-1.13377 2.45825,-1.48041c2.20435,-0.56265 5.47735,-0.55675 8.52517,-0.95618c10.89804,-1.42823 25.87756,-2.28654 25.87756,-2.28654z" fill="#feecf7" stroke="#000000" stroke-width="0" stroke-linecap="round"/><path d="M239.45457,206.07026l2.23009,4.93805c0,0 -4.89814,0.96441 -7.47833,1.20505c-2.54317,0.23719 -7.89335,0.22857 -7.89335,0.22857c0,0 -8.81232,3.87207 -15.17535,4.13836c0.37635,-0.33171 0.70783,-0.71888 0.98226,-1.13323c0.88023,-1.34859 2.22403,-1.32448 3.47357,-2.26316c1.22049,-0.91685 1.56073,-1.80523 2.31829,-2.96096c0.59366,-0.90568 2.20453,-1.89236 3.81196,-2.77827c8.98703,-0.87341 17.73086,-1.37443 17.73086,-1.37443z" fill="#dc94e7" stroke="#000000" stroke-width="0" stroke-linecap="butt"/><path d="M239.45457,206.07026l2.23009,4.93805c0,0 -4.89814,0.96441 -7.47833,1.20505c-2.54317,0.23719 -7.89335,0.22857 -7.89335,0.22857c0,0 -11.67459,5.12974 -17.8515,3.9866c-5.94968,-1.10108 -6.4953,-4.009 -5.86788,-5.63514c0.0402,-0.10417 1.44794,-1.35468 2.42014,-1.62081c2.12647,-0.58208 5.18309,-0.37282 8.56328,-0.8158c10.89804,-1.42823 25.87756,-2.28654 25.87756,-2.28654z" fill="none" stroke="#000000" stroke-width="1" stroke-linecap="round"/><path d="M230.45458,199.61895c0,0 3.10882,1.76186 4.57126,2.85227c1.55805,1.16171 4.50839,3.91764 4.50839,3.91764c0,0 -3.76446,1.91266 -5.85377,2.24376c-2.63937,0.41825 -8.72145,0.06597 -8.72145,0.06597c0,0 -11.72116,6.07774 -18.55752,2.54867c-0.70667,-0.36481 -1.59429,-1.22776 -1.51385,-1.7523c0.25359,-1.65374 3.13737,-3.04922 6.22208,-4.52062c2.19777,-1.04833 4.92893,-2.48814 4.92893,-2.48814c0,0 -3.21863,-2.34208 -1.09939,-5.33439c0.41683,-0.58855 1.64161,-0.50843 3.19209,-0.67985c1.62164,-0.17929 3.56216,-0.59637 3.56216,-0.59637l6.45132,4.77876z" fill="#ff292e" stroke="#000000" stroke-width="0" stroke-linecap="round"/><path d="M235.02582,202.4712c1.55805,1.16171 4.50839,3.91764 4.50839,3.91764c0,0 -3.76446,1.91267 -5.85377,2.24376c-2.63937,0.41826 -8.72145,0.06597 -8.72145,0.06597c0,0 -8.31219,4.3101 -15.01955,3.56354c0.7367,-0.98845 1.46856,-2.13299 1.7916,-2.6706c0.76831,-0.47787 1.54469,-0.78361 2.30282,-1.13264c0.49412,-0.01148 0.95645,-0.15155 1.35483,-0.38801c1.23894,-0.28351 2.16322,-1.39252 2.16322,-2.71742c0,-1.02311 -0.55118,-1.91749 -1.37281,-2.4024c-0.08849,-0.15487 -0.18563,-0.28264 -0.2902,-0.38622c0.09689,-0.05079 0.14973,-0.07864 0.14973,-0.07864c0,0 -1.52792,-1.11182 -1.78515,-2.7821c3.28121,0.0617 7.36037,-0.22915 7.36037,-3.03206c0,-0.28233 -0.02403,-0.53649 -0.06918,-0.76524c0.09582,-0.01984 0.14882,-0.03122 0.14882,-0.03122l6.31571,4.67831c-0.25157,0.1195 -0.57155,0.23866 -0.96758,0.39217c-0.23176,0.05534 -0.47028,0.1105 -0.70976,0.1758c0,0 -0.80681,0.22004 -0.58677,1.02686c0.22004,0.80681 1.02686,0.58677 1.02686,0.58677c0.06088,-0.0166 0.12122,-0.03304 0.18101,-0.04934c0.21492,0.00835 0.38742,-0.06065 0.38742,-0.06065c0.12726,-0.05115 0.25032,-0.10171 0.36919,-0.15195c0.69645,-0.20645 1.30087,-0.43109 1.80102,-0.78311c0.12999,0.0851 0.3054,0.13683 0.54182,0.11533c0.83285,-0.07571 0.75714,-0.90856 0.75714,-0.90856c-0.02642,-0.2891 -0.05538,-0.56716 -0.09158,-0.83887c0.02861,-0.07776 0.05591,-0.15824 0.08188,-0.24153c0.85031,0.49051 3.06075,1.78559 4.22598,2.65441z" fill="#ac0e49" stroke="#000000" stroke-width="0" stroke-linecap="round"/><path d="M230.45458,199.61895c0,0 3.10882,1.76186 4.57126,2.85227c1.55805,1.16171 4.50839,3.91764 4.50839,3.91764c0,0 -3.76446,1.91266 -5.85377,2.24376c-2.63937,0.41825 -8.72145,0.06597 -8.72145,0.06597c0,0 -11.72116,6.07774 -18.55752,2.54867c-0.70667,-0.36481 -1.59429,-1.22776 -1.51385,-1.7523c0.25359,-1.65374 3.13737,-3.04922 6.22208,-4.52062c2.19777,-1.04833 4.92893,-2.48814 4.92893,-2.48814c0,0 -3.21863,-2.34208 -1.09939,-5.33439c0.41683,-0.58855 1.64161,-0.50843 3.19209,-0.67985c1.62164,-0.17929 3.56216,-0.59637 3.56216,-0.59637l6.45132,4.77876z" fill="none" stroke="#000000" stroke-width="1" stroke-linecap="round"/><path d="M226.95015,201.29149l0.95575,-0.55752" fill="none" stroke="#000000" stroke-width="1" stroke-linecap="round"/><path d="M230.8528,203.84017c0,0 1.01887,-0.41906 1.74361,-0.53275c0.60901,-0.09553 3.1148,-0.26372 3.1148,-0.26372" fill="none" stroke="#000000" stroke-width="0.5" stroke-linecap="round"/><path d="M215.55997,204.86655c-0.44827,-0.09541 -0.92133,-0.15147 -1.43284,-0.15027c0,0 -0.55752,0 -0.55752,-0.55752c0,-0.55752 0.55752,-0.55752 0.55752,-0.55752c1.9216,0.00398 4.45698,0.53054 5.98843,1.70371c0.3401,0.26053 1.41335,1.07701 0.9451,1.68232c-0.66859,0.8643 -3.2699,-0.97184 -3.9817,-1.44637c-0.34543,-0.09366 -0.69007,-0.19023 -1.0342,-0.28854l-0.47999,-0.38078c0,0 -0.00172,-0.00172 -0.00479,-0.00502z" fill="#fff1fd" stroke="none" stroke-width="0.5" stroke-linecap="butt"/><path d="M216.4068,203.16169c-0.35691,-0.4283 0.07139,-0.78523 0.07139,-0.78523c1.75902,-1.41781 6.99466,-0.93211 8.03108,1.30933c0.90197,1.95065 -0.90818,2.29874 -2.30106,1.62972c-1.77244,-0.49774 -3.43691,-1.08759 -5.17796,-1.63201l-0.075,-0.12278l-0.0365,0.03651l-0.2459,-0.2459c-0.08811,-0.02769 -0.1792,-0.08541 -0.26605,-0.18964z" fill="#fff1fd" stroke="none" stroke-width="0.5" stroke-linecap="butt"/><path d="M218.12549,201.12595c-0.00069,-0.00103 -0.00137,-0.00205 -0.00206,-0.00308c-0.30926,-0.46389 0.15463,-0.77314 0.15463,-0.77314c1.42629,-0.88531 6.77622,-1.17922 7.42071,0.93575c0.85711,2.81275 -2.46085,1.08094 -3.41666,0.52333c-1.02781,-0.24744 -1.9156,-0.27838 -2.97798,-0.27838h-0.63717c0,0 -0.45014,0.00001 -0.54148,-0.40448z" fill="#dc94e7" stroke="none" stroke-width="0.5" stroke-linecap="butt"/><path d="M220.11556,205.30494c0.3401,0.26053 1.41335,1.07701 0.9451,1.68232c-0.51816,0.66983 -2.19713,-0.28227 -3.25778,-0.96552c0.61631,-0.29985 1.16038,-0.68291 1.64656,-1.15405c0.23748,0.13433 0.46083,0.27998 0.66613,0.43724z" fill="#dc94e7" stroke="none" stroke-width="0.5" stroke-linecap="butt"/><path d="M224.50927,203.68581c0.90197,1.95065 -0.90818,2.29874 -2.30106,1.62972c-0.83847,-0.23545 -1.65277,-0.49153 -2.46244,-0.75366c0.66994,-0.73562 1.22469,-1.65798 1.70771,-2.78181c1.38816,0.30281 2.61016,0.94199 3.0558,1.90576z" fill="#dc94e7" stroke="none" stroke-width="0.5" stroke-linecap="butt"/><path d="M215.55997,204.86655c-0.44827,-0.09541 -0.92133,-0.15147 -1.43284,-0.15027c0,0 -0.55752,0 -0.55752,-0.55752c0,-0.55752 0.55752,-0.55752 0.55752,-0.55752c1.9216,0.00398 4.45698,0.53054 5.98843,1.70371c0.3401,0.26053 1.41335,1.07701 0.9451,1.68232c-0.66859,0.8643 -3.2699,-0.97184 -3.9817,-1.44637c-0.34543,-0.09366 -0.69007,-0.19023 -1.0342,-0.28854l-0.47999,-0.38078c0,0 -0.00172,-0.00172 -0.00479,-0.00502z" fill="none" stroke="#000000" stroke-width="1" stroke-linecap="butt"/><path d="M216.4068,203.16169c-0.35691,-0.4283 0.07139,-0.78523 0.07139,-0.78523c1.75902,-1.41781 6.99466,-0.93211 8.03108,1.30933c0.90197,1.95065 -0.90818,2.29874 -2.30106,1.62972c-1.77244,-0.49774 -3.43691,-1.08759 -5.17796,-1.63201l-0.075,-0.12278l-0.0365,0.03651l-0.2459,-0.2459c-0.08811,-0.02769 -0.1792,-0.08541 -0.26605,-0.18964z" fill="none" stroke="#000000" stroke-width="1" stroke-linecap="butt"/><path d="M218.12549,201.12595c-0.00069,-0.00103 -0.00137,-0.00205 -0.00206,-0.00308c-0.30926,-0.46389 0.15463,-0.77314 0.15463,-0.77314c1.42629,-0.88531 6.77622,-1.17922 7.42071,0.93575c0.85711,2.81275 -2.46085,1.08094 -3.41666,0.52333c-1.02781,-0.24744 -1.9156,-0.27838 -2.97798,-0.27838h-0.63717c0,0 -0.45014,0.00001 -0.54148,-0.40448z" fill="none" stroke="#000000" stroke-width="1" stroke-linecap="butt"/></g><g><path d="M246.65483,209.64192c7.94441,0 15.6222,-2.38989 23.5533,-2.40159c0.3789,-0.01777 0.63336,0.10883 0.80389,0.27848c0.18354,0.15611 0.33101,0.3997 0.34435,0.77983l0.08675,1.08596c-0.01103,4.69311 -2.81055,6.27771 -6.8464,7.92873c-3.46341,1.41684 -7.95033,3.22171 -11.08007,3.22171c-4.13009,0 -8.3331,0.47822 -12.24293,-1.10593c-2.50729,-1.01588 -5.8045,-3.67786 -4.59298,-6.89245c0.63231,-1.67774 1.61924,-1.61351 2.92673,-2.33261c0,0 0.71675,-0.38595 1.25518,0.11412c1.99852,-0.58822 3.69089,-0.67626 5.79218,-0.67626z" fill="#ffeef9" stroke="none" stroke-width="0.5" stroke-linecap="butt"/><path d="M270.20813,207.24032c0.3789,-0.01777 0.63336,0.10882 0.80389,0.27848c0.18354,0.15611 0.331,0.3997 0.34435,0.77983l0.08676,1.08598c-0.01103,4.6931 -2.81055,6.2777 -6.84642,7.92873c-3.46341,1.41684 -7.95033,3.22171 -11.08007,3.22171c-4.13009,0 -8.3331,0.47822 -12.24293,-1.10593c-2.22959,-0.90338 -5.0838,-3.10839 -4.83681,-5.84614c0.93192,0.79199 1.83944,1.52222 2.77161,2.18458c1.54318,1.29335 3.19176,2.19591 5.15314,2.73973c0.52442,0.18922 1.07098,0.36232 1.64427,0.51872c0,0 0.34247,0.0934 0.64202,-0.06463c0.94223,0.12144 1.95462,0.18022 3.05305,0.17883c5.80039,0.58745 14.9546,-2.20031 18.21022,-7.08373c0.4765,-1.56444 0.70156,-3.2451 0.32281,-4.7666c0.65648,-0.03113 1.31443,-0.04856 1.97411,-0.04954z" fill="#db93e6" stroke="none" stroke-width="0.5" stroke-linecap="butt"/><path d="M246.65483,209.64193c7.94441,0 15.62222,-2.3899 23.5533,-2.40159c0.3789,-0.01777 0.63336,0.10882 0.80389,0.27848c0.18354,0.15611 0.331,0.3997 0.34435,0.77983l0.08676,1.08598c-0.01103,4.6931 -2.81055,6.2777 -6.84642,7.92873c-3.46341,1.41684 -7.95033,3.22171 -11.08007,3.22171c-4.13009,0 -8.3331,0.47822 -12.24293,-1.10593c-2.50729,-1.01588 -5.8045,-3.67786 -4.59298,-6.89245c0.63231,-1.67774 1.61924,-1.6135 2.92673,-2.33259c0,0 0.71676,-0.38595 1.25518,0.11411c1.99852,-0.58822 3.69089,-0.67626 5.79218,-0.67626z" fill="none" stroke="#000000" stroke-width="1" stroke-linecap="butt"/><path d="M243.9101,201.83663c0,0 6.3901,-3.96572 9.19295,-4.65741c4.09319,-1.01012 5.9888,0.79764 5.9888,0.79764c0,0 4.39459,0.75358 6.26754,0.3767c3.67902,-0.74032 4.53982,-2.34947 4.53982,-2.34947c0,0 1.4028,1.64035 0.131,3.36975c-1.29216,1.75706 -3.81923,3.40628 -3.81923,3.40628c0,0 11.5832,10.8123 -9.82268,14.13838c-26.36163,4.09609 -14.45097,-7.79122 -14.45097,-7.79122c0,0 -0.78383,-0.86549 -1.01696,-1.41404c-0.25151,-0.59179 -0.44117,-2.01687 -0.44117,-2.01687c0,0 -3.60204,0.34806 -4.92069,-0.73335c-0.62871,-0.5156 0.25577,-2.68164 0.43922,-2.88802c0.57532,-0.64724 7.91238,-0.23839 7.91238,-0.23839z" fill="#ff292e" stroke="#000000" stroke-width="0" stroke-linecap="round"/><path d="M253.10305,197.1792c4.09319,-1.01012 5.9888,0.79764 5.9888,0.79764c0,0 3.18371,0.54594 5.28638,0.47606c-0.24955,0.05368 -0.58317,0.22204 -0.62979,0.73481c-0.07571,0.83285 0.75714,0.90856 0.75714,0.90856c2.19369,0.17554 4.23397,-0.94561 6.05395,-2.12998c-0.02462,0.43887 -0.17055,0.91966 -0.52933,1.40752c-1.29216,1.75706 -3.81923,3.40628 -3.81923,3.40628c0,0 0.60956,0.569 1.29061,1.48609c-0.56614,-0.47697 -1.10999,0.06688 -1.10999,0.06688c-0.07644,0.07814 -0.16098,0.15063 -0.25211,0.2185c-0.39683,0.06129 -0.75367,0.26594 -1.05122,0.55234c-1.31195,0.53898 -2.83302,0.91943 -2.51144,2.53921c0.20752,1.04529 3.34492,2.41526 4.27572,2.00803c1.26035,-0.55141 1.16696,-2.10439 1.05245,-3.18284c-0.04455,-0.41957 0.09405,-0.96988 -0.11479,-1.30523c0.04779,-0.13427 0.06969,-0.29734 0.01379,-0.47189c2.21809,3.25883 4.35987,9.77605 -11.41569,12.22727c-7.59402,1.17997 -12.01203,1.03356 -14.45365,0.22702c0.36146,-0.46116 0.73227,-0.91205 1.12577,-1.35466c1.32342,-1.32372 3.78504,-2.35589 4.67282,-3.94939c1.1202,-2.01067 -0.15893,-5.00594 -1.37513,-7.71178c3.6641,-0.94062 8.70312,-3.76042 5.69255,-6.609c0.38591,-0.14758 0.74125,-0.2647 1.05239,-0.34148z" fill="#ac0e49" stroke="#000000" stroke-width="0" stroke-linecap="butt"/><path d="M243.9101,201.83663c0,0 6.3901,-3.96572 9.19295,-4.65741c4.09319,-1.01012 5.9888,0.79764 5.9888,0.79764c0,0 4.39459,0.75358 6.26754,0.3767c3.67902,-0.74032 4.53982,-2.34947 4.53982,-2.34947c0,0 1.4028,1.64035 0.131,3.36975c-1.29216,1.75706 -3.81923,3.40628 -3.81923,3.40628c0,0 11.5832,10.8123 -9.82268,14.13838c-26.36163,4.09609 -14.45097,-7.79122 -14.45097,-7.79122c0,0 -0.78383,-0.86549 -1.01696,-1.41404c-0.25151,-0.59179 -0.44117,-2.01687 -0.44117,-2.01687c0,0 -3.60204,0.34806 -4.92069,-0.73335c-0.62871,-0.5156 0.25577,-2.68164 0.43922,-2.88802c0.57532,-0.64724 7.91238,-0.23839 7.91238,-0.23839z" fill="none" stroke="#000000" stroke-width="1" stroke-linecap="round"/><path d="M244.2532,209.12729h-2.23009" fill="none" stroke="#000000" stroke-width="1" stroke-linecap="round"/><path d="M240.73651,205.86793l1.54391,-0.42887" fill="none" stroke="#000000" stroke-width="1" stroke-linecap="round"/><path d="M265.8679,202.60857l-4.11709,-0.17155" fill="none" stroke="#000000" stroke-width="1" stroke-linecap="round"/><path d="M239.68559,205.82929c-0.21867,1.09339 -1.31206,0.87471 -1.31206,0.87471l-0.29571,-0.0674c-0.37169,-0.02859 -0.74336,-0.05719 -1.11504,-0.08578c0,0 -1.11175,-0.08552 -1.02624,-1.19728c0.08552,-1.11177 1.19728,-1.02624 1.19728,-1.02624c0.37169,0.02859 0.74336,0.05718 1.11504,0.08577l0.56203,0.10415c0,0 1.09339,0.21867 0.87471,1.31206z" fill="#000000" stroke="none" stroke-width="0.5" stroke-linecap="butt"/><path d="M268.6984,200.97888c0,0.72492 -0.47128,0.97855 -0.80107,1.06729c-0.24821,0.15795 -0.49641,0.31589 -0.7446,0.47384c0,0 -0.94072,0.59863 -1.53936,-0.34208c-0.59864,-0.94072 0.34208,-1.53935 0.34208,-1.53935c0.3145,-0.20013 0.629,-0.40028 0.94349,-0.60042l0.68441,-0.17433c0,0 1.11504,0 1.11504,1.11504z" fill="#000000" stroke="none" stroke-width="0.5" stroke-linecap="butt"/><path d="M263.80936,208.35533c0,1.11504 -1.11504,1.11504 -1.11504,1.11504h-0.17155c-4.74653,-0.01286 -8.88976,1.35673 -13.22373,3.09384c0,0 -1.0353,0.41412 -1.44941,-0.62118c-0.14743,-0.36858 -0.11116,-0.65842 -0.00329,-0.87889c-0.15165,0.07212 -1.00656,0.42769 -1.48709,-0.46473c-0.45643,-0.84766 0.21308,-1.35752 0.40452,-1.481c-0.0905,-0.08843 -0.17494,-0.20303 -0.24853,-0.3502c-0.49866,-0.99733 0.49866,-1.49599 0.49866,-1.49599l0.17155,-0.08577c4.30326,-2.14435 9.01365,-4.42724 13.96471,-4.05998c0,0 1.11175,0.08552 1.02624,1.19728c-0.0412,0.53566 -0.32064,0.79338 -0.59918,0.91663c0.22858,-0.01922 0.45807,-0.03766 0.6885,-0.05537l0.25706,-0.00329c0,0 1.11504,0 1.11504,1.11504c0,0.5892 -0.31133,0.86706 -0.60498,0.9981c0.3281,0.09464 0.77653,0.35334 0.77653,1.06045z" fill="#fff1fd" stroke="none" stroke-width="0.5" stroke-linecap="butt"/><path d="M246.65483,206.81142c0,0 -1.8321,-1.56576 -2.23807,-2.43784c-0.36058,-0.77459 -0.07779,-2.53697 -0.07779,-2.53697" fill="none" stroke="#000000" stroke-width="1" stroke-linecap="round"/><path d="M261.15016,203.12649c0,0 0.47612,0.03663 0.78123,0.37353c-0.07751,0.31265 -0.15501,0.62528 -0.23252,0.93793c-0.0322,0.31818 -0.03257,0.5594 -0.03575,0.7599c-0.02847,0.01572 -0.05719,0.02986 -0.0859,0.04256c0.02842,-0.00239 0.05686,-0.00477 0.0853,-0.00714c-0.00836,0.44968 -0.04251,0.69602 -0.52239,1.17837c-0.6959,0.69947 -1.22637,2.04304 -2.18718,2.45377c-2.47385,1.05753 -4.75482,-2.27265 -6.30827,-4.18342c2.72779,-1.06156 5.57446,-1.77292 8.50549,-1.5555z" fill="#dc94e7" stroke="#000000" stroke-width="0" stroke-linecap="butt"/><path d="M247.42679,209.12728c0,0 4.35217,-2.00359 6.78064,-2.72934c2.54123,-0.75945 8.1438,-1.73084 8.1438,-1.73084" fill="none" stroke="#000000" stroke-width="1" stroke-linecap="round"/><path d="M247.76987,211.18583c0,0 4.02549,-1.66891 6.44128,-2.28309c2.62707,-0.6679 8.74047,-1.57668 8.74047,-1.57668" fill="none" stroke="#000000" stroke-width="1" stroke-linecap="round"/><path d="M263.80936,208.35533c0,1.11504 -1.11504,1.11504 -1.11504,1.11504h-0.17154c-4.74653,-0.01286 -8.88976,1.35673 -13.22373,3.09384c0,0 -1.03529,0.41412 -1.4494,-0.62118c-0.14743,-0.36858 -0.11116,-0.65842 -0.0033,-0.87889c-0.15165,0.07212 -1.00656,0.42769 -1.48708,-0.46473c-0.45642,-0.84765 0.21307,-1.35752 0.4045,-1.481c-0.0905,-0.08843 -0.17494,-0.20302 -0.24852,-0.35019c-0.49866,-0.99732 0.49866,-1.49599 0.49866,-1.49599l0.17155,-0.08577c4.30326,-2.14435 9.01365,-4.42725 13.96471,-4.05998c0,0 1.11175,0.08552 1.02624,1.19728c-0.04121,0.53567 -0.32064,0.79338 -0.59918,0.91663c0.22857,-0.01922 0.45807,-0.03764 0.6885,-0.05537l0.25707,-0.00329c0,0 1.11504,0 1.11504,1.11504c0,0.5892 -0.31133,0.86706 -0.60498,0.9981c0.3281,0.09463 0.77653,0.35334 0.77653,1.06045z" fill="none" stroke="#000000" stroke-width="1" stroke-linecap="butt"/></g><g stroke="#000000" stroke-linecap="round"><path d="M249.25102,194.60124c0,0 4.0674,1.30546 7.99658,0.40524c1.60456,-0.36762 2.43704,-3.67073 2.43704,-3.67073c0,0 3.25064,2.17515 3.06355,3.22291c-0.44874,2.513 -3.85374,9.96235 -5.29364,9.99831c-1.92823,0.04815 -6.69027,-6.53097 -6.69027,-6.53097z" fill="#0066cd" stroke-width="0"/><path d="M262.7482,194.55867c-0.44873,2.51301 -3.85374,9.96235 -5.29364,9.99831c-1.92823,0.04815 -6.69027,-6.53097 -6.69027,-6.53097c0,0 4.36514,2.54168 5.74144,3.06129c1.80158,0.68018 3.63679,-8.63749 3.8286,-9.28874c0.93822,0.69714 2.54703,2.01427 2.41386,2.76011z" fill="#061382" stroke-width="0"/><path d="M249.25102,194.60123c0,0 4.0674,1.30545 7.99658,0.40524c1.60456,-0.36762 2.43704,-3.67073 2.43704,-3.67073c0,0 3.25064,2.17516 3.06355,3.22291c-0.44873,2.51301 -3.85374,9.96235 -5.29364,9.99831c-1.92823,0.04815 -6.69027,-6.53097 -6.69027,-6.53097" fill="none" stroke-width="1"/></g></g><g stroke="#000000"><g stroke-linecap="butt"><path d="M260.46119,174.88807l0.51066,-2.28613c0,0 9.04703,-1.15532 11.11717,-0.18593c1.45326,0.68053 1.58179,4.94118 -1.01386,5.55288c-3.45665,0.81459 -10.61395,-3.08082 -10.61395,-3.08082z" fill="#0066cd" stroke-width="0"/><path d="M260.4612,174.88807l0.18124,-0.81137c0,0 2.05721,0.1267 4.09883,0.43868c1.57798,0.24113 2.95797,0.64243 4.55296,0.87178c1.89699,0.27278 3.71986,0.39161 3.6994,0.47459c-0.2427,0.98462 -0.84961,1.85526 -1.91848,2.10716c-3.45665,0.8146 -10.61396,-3.08083 -10.61396,-3.08083z" fill="#061483" stroke-width="0"/><path d="M260.4612,174.88807l0.51066,-2.28613c0,0 9.04703,-1.15531 11.11717,-0.18592c1.45327,0.68053 1.58179,4.94118 -1.01386,5.55288c-3.45665,0.8146 -10.61396,-3.08083 -10.61396,-3.08083z" fill="none" stroke-width="1"/></g><g stroke-linecap="round"><path d="M221.20249,180.62642c0,0 -10.14172,-24.07452 12.61769,-25.46124c23.33615,-1.42187 20.79374,19.41861 20.79374,19.41861c0,0 5.71712,-5.40893 6.66686,-4.93168c0.80164,0.40283 -0.07729,5.46093 -0.73682,7.42093c-0.48735,1.4483 -1.07544,4.54171 -2.43712,4.83134c-0.85707,0.18229 -4.65662,-2.3621 -4.65662,-2.3621c0,0 -7.10347,4.75362 -13.79633,6.64311c-6.60909,1.86584 -16.30489,1.5849 -16.30489,1.5849c0,0 -7.20894,-0.24859 -7.57938,-2.69243c-0.31565,-2.08235 5.43286,-4.45145 5.43286,-4.45145z" fill="#fde0be" stroke-width="0"/><path d="M249.50073,181.91387c-0.03273,0.01816 -1.44425,-1.99197 -1.44425,-1.99197l-2.99664,2.7989l-5.39243,-6.85592l-6.5102,4.819l-1.44799,-6.4368c0,0 -11.23128,4.34443 -11.24067,4.31469c-1.85006,-5.86208 -5.31399,-22.25934 13.3516,-23.39662c23.33615,-1.42187 20.79374,19.41861 20.79374,19.41861c0,0 5.53412,3.81905 5.48521,3.98482c-0.4298,1.4574 -1.0096,3.12677 -1.99231,3.33578c-0.85707,0.18229 -4.65662,-2.3621 -4.65662,-2.3621c0,0 -1.57899,1.05664 -3.94947,2.37161z" fill="#fc988a" stroke-width="0"/><path d="M255.11949,176.03044l2.9603,-1.63936l-0.78227,5.04802z" fill="#f79587" stroke-width="0.5"/><path d="M233.82015,155.16518c23.33615,-1.42187 20.79374,19.41861 20.79374,19.41861c0,0 5.71712,-5.40893 6.66686,-4.93168c0.80164,0.40283 -0.07729,5.46093 -0.73682,7.42093c-0.48735,1.4483 -1.07544,4.54171 -2.43712,4.83134c-0.85707,0.18229 -4.65662,-2.3621 -4.65662,-2.3621c0,0 -7.10347,4.75362 -13.79633,6.64311c-6.60909,1.86584 -16.30489,1.5849 -16.30489,1.5849c0,0 -7.20894,-0.24859 -7.57938,-2.69243c-0.31565,-2.08235 5.43286,-4.45145 5.43286,-4.45145c0,0 -10.14171,-24.07451 12.6177,-25.46123z" fill="none" stroke-width="1"/></g><g stroke-linecap="round"><path d="M260.20057,166.91333c0,0 -1.60273,3.55487 -2.6023,5.03334c-0.86316,1.2767 -3.04617,3.32133 -3.04617,3.32133c0,0 -11.16251,-4.21349 -18.67866,-4.49955c-7.67723,-0.29219 -17.44542,1.28988 -17.44542,1.28988c0,0 -5.02116,-17.53069 -1.63447,-20.48227c2.46603,-2.1492 9.86302,-4.5842 17.24908,-4.58127c3.36636,0.00133 12.99603,0.10629 16.33995,2.92126c4.48174,3.77282 9.818,16.99726 9.818,16.99726z" fill="#ff292e" stroke-width="0"/><path d="M260.20057,166.91333c0,0 -1.60273,3.55488 -2.6023,5.03334c-0.86316,1.2767 -3.04616,3.32133 -3.04616,3.32133c0,0 -5.40571,-2.04048 -11.22648,-3.37792c-0.15236,-0.03501 1.28533,-14.24541 3.79311,-20.00138c0.83043,-1.90603 2.43199,-2.67293 3.26384,-1.97266c4.48174,3.77283 9.818,16.99727 9.818,16.99727z" fill="#ac0e49" stroke-width="0.5"/><path d="M257.59827,171.94669c-0.86316,1.2767 -3.04616,3.32133 -3.04616,3.32133c0,0 -11.16251,-4.21349 -18.67867,-4.49954c-7.67723,-0.29219 -17.44541,1.28988 -17.44541,1.28988c0,0 -5.02116,-17.5307 -1.63447,-20.48227c2.46604,-2.1492 9.86302,-4.5842 17.24908,-4.58127c3.36636,0.00133 12.99602,0.10628 16.33993,2.92126c4.48174,3.77283 9.818,16.99727 9.818,16.99727c0,0 -1.60273,3.55487 -2.6023,5.03333z" fill="none" stroke-width="1"/></g><g stroke-linecap="round"><path d="M219.68649,177.65482c0,0 -3.75572,1.27229 -5.45077,2.08577c-1.72101,0.82594 -4.79858,2.83309 -4.79858,2.83309c0,0 1.26599,-3.98677 2.1823,-5.81245c0.87022,-1.73381 3.18441,-4.88026 3.18441,-4.88026l-9.44372,1.48605c0,0 7.66963,-13.411 11.11203,-15.26581c2.05309,-1.10623 10.42855,3.21778 10.42855,3.21778c0,0 1.02564,-2.78518 1.7906,-4.10859c0.69658,-1.20511 2.61323,-3.51018 2.61323,-3.51018c0,0 2.05651,5.97216 3.35358,8.83672c1.35125,2.98419 4.59803,8.72425 4.59803,8.72425l15.01018,3.60318l-0.74762,6.78661l-6.23979,-5.64968l-2.27489,3.69164l-5.74786,-8.43174l-4.56264,4.523l-1.5732,-4.95693c0,0 -10.73074,3.56958 -13.07732,4.99529c-0.63967,0.38864 -0.3565,1.83227 -0.3565,1.83227z" fill="#4fa6ec" stroke-width="0"/><path d="M221.97539,168.18243l-12.53824,14.39125c0,0 1.26599,-3.98677 2.18229,-5.81245c0.87021,-1.73381 3.18441,-4.88026 3.18441,-4.88026l-9.44371,1.48604c0,0 7.66962,-13.411 11.11203,-15.26581c2.05308,-1.10623 10.42856,3.21778 10.42856,3.21778c0,0 1.02563,-2.78518 1.79059,-4.10859c0.69658,-1.20511 2.61323,-3.51017 2.61323,-3.51017l-1.44438,12.02403c0,0 -9.37645,-3.59533 -11.53911,-3.08184c-3.3942,0.80591 -7.5936,8.19774 -7.5936,8.19774z" fill="#66ffff" stroke-width="0"/><path d="M244.5287,174.1266l-0.34051,4.36955l-3.48273,-5.10894z" fill="#66ffff" stroke-width="0"/><path d="M209.43715,182.57368c0,0 1.26599,-3.98677 2.18229,-5.81245c0.87021,-1.73381 3.18441,-4.88026 3.18441,-4.88026l-9.44371,1.48604c0,0 7.66962,-13.411 11.11203,-15.26581c2.05308,-1.10623 10.42856,3.21778 10.42856,3.21778c0,0 1.02563,-2.78518 1.79059,-4.10859c0.69658,-1.20511 2.61323,-3.51017 2.61323,-3.51017c0,0 2.0565,5.97215 3.35357,8.83671c1.35124,2.98419 4.59803,8.72425 4.59803,8.72425l15.01018,3.60318l-0.74762,6.78661l-6.23979,-5.64967l-2.2749,3.69164l-5.74787,-8.43174l-4.56265,4.523l-1.5732,-4.95693c0,0 -10.73074,3.56958 -13.07732,4.99529c-0.63967,0.38864 -0.3565,1.83227 -0.3565,1.83227c0,0 -3.7557,1.27228 -5.45076,2.08577c-1.69506,0.81349 -4.79858,2.83306 -4.79858,2.83306z" fill="none" stroke-width="1"/></g></g><path d="M176.16667,243.83333v-127.66667h127.66667v127.66667z" fill="none" stroke="none" stroke-width="NaN" stroke-linecap="butt"/><g stroke-linecap="butt"><path d="M231.31892,177.63772l-0.07581,-0.59876c-1.41461,-0.74096 -2.68435,-1.78292 -4.04204,-2.57813c-2.89929,-1.53427 -6.14666,-3.8355 -6.22437,-6.29185c0,0 0,-0.55752 0.55752,-0.55752c0.55752,0 0.55752,0.55752 0.55752,0.55752c-0.01127,0.20398 0.02642,0.38895 0.09884,0.55979c0.10728,0.07046 0.169,0.15686 0.169,0.15686c0.24232,0.33988 0.53287,0.66751 0.86136,0.98268c0.19135,0.15845 0.37897,0.31472 0.53707,0.47764c2.20899,1.82989 5.6141,3.19959 7.93303,4.06561c0.99369,0.37264 2.9758,0.60368 3.57391,1.57304c0.53094,0.86048 0.26737,1.38852 -0.27711,1.6577c-0.13087,1.63645 -0.61242,4.11672 -1.69154,4.81372c-1.74115,1.1246 -4.85455,0.52813 -6.22686,-0.8279c-0.55785,-0.67364 -0.98588,-1.25907 -1.49275,-1.97221l-0.21452,-0.56056c-0.03338,-0.06068 -0.05819,-0.13534 -0.06967,-0.22712c-0.01968,-0.15746 0.01106,-0.27571 0.06511,-0.3643c0.05334,-0.08903 0.14377,-0.17116 0.29235,-0.22688c0.08444,-0.03167 0.16034,-0.04456 0.22826,-0.04391c0.36257,-0.04533 0.72515,-0.09064 1.08773,-0.13597l0.25876,-0.09497c0.15276,-0.08848 0.29361,-0.08247 0.407,-0.04417c0.11363,0.02478 0.23381,0.08905 0.31895,0.23442c1.71344,1.97016 4.36629,3.43741 3.36826,-0.55472z" fill="#000000" stroke="none" stroke-width="0.5"/><path d="M244.84905,163.26465c0,0 0.17053,-0.27286 0.45979,-0.27445c0.27924,-0.35678 0.55831,-0.70222 0.83541,-1.0345c0.64353,-0.90047 1.39702,-1.54075 2.24012,-2.24334l0.15695,-0.08489c0.38496,-0.52674 0.82257,-1.00015 1.43736,-1.32352c0,0 0.49867,-0.24934 0.74799,0.24934c0.24934,0.49866 -0.24934,0.74799 -0.24934,0.74799c-0.34147,0.15771 -0.6225,0.40857 -0.87027,0.70512c0.00372,0.32283 -0.3191,0.48425 -0.3191,0.48425l-0.05302,0.02188c-0.32578,0.49112 -0.61054,1.02688 -0.94262,1.45327c-1.33968,1.72016 -2.85051,2.85232 -4.13319,4.50471c-1.71012,2.5427 -3.24923,5.36332 -4.10999,7.98011c-0.40801,1.08474 -1.0399,2.12253 -0.79712,3.34431c0.11504,0.57892 1.05839,2.51603 1.91809,1.47298c0.2993,-0.36313 0.07589,-1.92335 0.09577,-2.56556c-0.02598,-0.16374 0.03158,-0.29143 0.10416,-0.38306c0.05902,-0.09381 0.15311,-0.18568 0.3017,-0.22052l0.3068,-0.15124c0.71997,-0.44804 1.14872,-1.05368 1.83337,-1.49872c0.07294,-0.07407 0.1786,-0.13203 0.3316,-0.14457c0.10301,-0.01648 0.22984,-0.01138 0.34901,0.06259c0.12335,0.06677 0.19071,0.17436 0.2275,0.27197c0.06065,0.1297 0.06656,0.24325 0.04427,0.33914v0.02997c0,1.79563 -0.59514,4.77944 -1.94737,6.11812c-2.16575,2.14409 -5.01305,-0.05391 -5.90541,-2.15595c-1.04629,-4.63802 2.24584,-8.25202 5.14494,-11.5813c0.92016,-1.33922 1.87865,-2.6555 2.79257,-4.12415z" fill="#000000" stroke="none" stroke-width="0.5"/><path d="M239.34831,184.7984c1.32395,1.67474 1.62702,3.64125 0.67693,4.39235c-0.95008,0.75109 -2.79356,0.00231 -4.11751,-1.67242c-1.32395,-1.67474 -1.62702,-3.64124 -0.67692,-4.39234c0.95008,-0.75109 2.79356,-0.00232 4.11751,1.67241z" fill="#ff6666" stroke="#000000" stroke-width="1"/></g><g><path d="M203.40812,190.89126c0.72655,-1.60688 2.61815,-2.32052 4.22503,-1.59398c1.60688,0.72655 2.32051,2.61813 1.59396,4.22502c-0.72655,1.60688 -2.61813,2.32051 -4.225,1.59397c-1.60688,-0.72655 -2.32052,-2.61815 -1.59399,-4.22501z" fill="#3f5479" stroke="#000000" stroke-width="1" stroke-linecap="butt"/><path d="M224.20292,183.46733c3.81144,2.63465 3.09415,12.61881 -1.12312,15.53967c-1.62318,1.1242 -3.7384,0.93329 -5.26064,-0.11594c-0.13837,-0.09536 -0.75417,-1.41556 -0.82251,-1.38923c-0.38622,0.14883 -0.93875,1.25559 -2.00742,1.45757c-1.44353,0.27281 -3.42616,-0.37284 -3.42616,-0.37284c0,0 -2.94322,1.35389 -3.7212,0.53055c-4.03775,-4.2731 -2.49995,-9.6385 0.16849,-12.09072c0.69664,-0.6402 3.60346,-0.81296 5.13685,-1.49099c1.40351,-0.62061 0.72271,-1.33732 1.74888,-1.40344c0.2327,-0.01498 1.01749,-0.0792 1.70528,0.17151c0.76044,0.27718 1.46,0.86645 2.44156,0.71869c2.04551,-0.30788 3.08239,-2.99098 5.15999,-1.55484z" fill="#fde0be" stroke="#000000" stroke-width="0" stroke-linecap="butt"/><path d="M213.41586,199.28623c3.92407,-5.2342 13.91512,-1.31432 10.64134,3.71665c-1.66919,2.56512 -3.66071,0.95978 -5.85959,0.66621c-0.16831,-0.02247 -0.34094,-0.00265 -0.5195,0.04248c-0.79727,0.77947 -2.02105,1.03378 -3.09825,0.54672c-0.19781,-0.08944 -0.38009,-0.19908 -0.54554,-0.32542c-0.89223,-0.68123 -1.2947,-1.84735 -0.99747,-2.94195c-0.16972,-0.62447 0.14949,-1.15493 0.3841,-1.6738z" fill="#f89688" stroke="#000000" stroke-width="1" stroke-linecap="butt"/><path d="M223.07981,199.00699c-1.62318,1.1242 -3.7384,0.93329 -5.26063,-0.11594c-0.13837,-0.09536 -0.75417,-1.41556 -0.82251,-1.38923c-0.38622,0.14883 -0.93875,1.25559 -2.00742,1.45757c-1.44355,0.2728 -3.42616,-0.37284 -3.42616,-0.37284c0,0 -2.94322,1.35389 -3.7212,0.53055c-0.72625,-0.76857 -1.27212,-1.57252 -1.6635,-2.38849c1.49641,-1.09702 2.72395,-1.81139 3.54286,-3.62256c0.27209,-0.60178 1.22282,-2.10571 1.38158,-2.72412c0.60737,-0.06939 0.50866,-0.0534 1.13388,-0.18008c-0.06871,0.21903 -0.11667,0.44323 -0.14217,0.67234c-0.03708,0.33298 -0.03148,0.68795 0.01148,1.04877c-0.45778,1.3431 0.17182,2.83967 1.49135,3.43629c0.18544,0.08384 0.37521,0.14571 0.56642,0.18673c0.72329,0.37474 1.56621,0.28148 2.41528,-0.62585c0.1128,-0.09831 0.21837,-0.20636 0.31525,-0.32361c0.27543,0.55939 0.73929,1.03024 1.3518,1.3072c0.11709,0.05294 0.23593,0.09714 0.35576,0.13284c0.70044,0.2087 1.43491,0.12754 2.05638,-0.18802c1.6245,-0.37652 3.74569,-1.18838 5.58782,-2.15088c-0.55748,2.24276 -1.62952,4.24503 -3.16627,5.30938z" fill="#f89688" stroke="#000000" stroke-width="0" stroke-linecap="butt"/><path d="M211.21587,189.55442l1.01846,1.68421c0,0 -0.85282,2.245 -0.90169,3.35172c-0.05481,1.24105 0.31152,3.61255 0.31152,3.61255" fill="none" stroke="#000000" stroke-width="1" stroke-linecap="round"/><path d="M217.57534,189.75986l0.83372,1.60068c0,0 -0.9383,1.78908 -1.19803,2.97036c-0.26663,1.21267 -0.30695,3.80276 -0.30695,3.80276" fill="none" stroke="#000000" stroke-width="1" stroke-linecap="round"/><path d="M224.20292,183.46733c3.81144,2.63465 3.09416,12.6188 -1.12312,15.53968c-1.62318,1.1242 -3.7384,0.93329 -5.26063,-0.11594c-0.13837,-0.09536 -0.75417,-1.41556 -0.82251,-1.38923c-0.38622,0.14883 -0.93875,1.25559 -2.00742,1.45757c-1.44355,0.2728 -3.42616,-0.37284 -3.42616,-0.37284c0,0 -2.94322,1.35389 -3.7212,0.53055c-4.03775,-4.2731 -2.49995,-9.6385 0.16849,-12.09072c0.69665,-0.64019 3.60346,-0.81296 5.13685,-1.49099c1.40351,-0.62061 0.72271,-1.33732 1.74888,-1.40344c0.2425,-0.01562 0.87757,-0.14002 1.60837,0.1196c0.74576,0.26492 1.59433,0.91273 2.53846,0.77061c2.04551,-0.30788 3.08239,-2.99098 5.15999,-1.55484z" fill="none" stroke="#000000" stroke-width="1" stroke-linecap="butt"/><path d="M221.93798,191.98275c1.43001,-3.16273 4.10983,-4.70539 6.48186,-3.63288c2.37204,1.07252 3.13572,4.50585 1.7057,7.66859c-1.43001,3.16273 -3.87447,4.92303 -6.24653,3.85051c-2.37204,-1.07252 -3.37104,-4.72351 -1.94102,-7.88624z" fill="#93c0c3" stroke="none" stroke-width="0" stroke-linecap="butt"/><path d="M223.87901,199.86899c-2.28948,-1.03518 -3.29983,-4.47243 -2.08158,-7.5543c2.75514,1.275 5.47364,2.63036 8.22753,3.92044c-1.44219,3.02579 -3.82862,4.68163 -6.14596,3.63386z" fill="#475f86" stroke="none" stroke-width="0" stroke-linecap="butt"/><path d="M223.02767,190.16525c0.72828,0.43356 1.93321,0.58989 2.41834,0.78931c1.07741,0.44286 3.33235,1.68968 5.39508,2.10733c-0.02698,0.69504 -0.15666,1.41813 -0.39579,2.13894c-2.73434,-1.28171 -5.43401,-2.62703 -8.16977,-3.8935c0.22914,-0.41613 0.48136,-0.79777 0.75215,-1.14208z" fill="#475f86" stroke="none" stroke-width="0" stroke-linecap="butt"/><path d="M221.93798,191.98275c1.43001,-3.16273 4.10983,-4.70539 6.48186,-3.63288c2.37204,1.07252 3.13572,4.50585 1.7057,7.66859c-1.43001,3.16273 -3.87447,4.92303 -6.24653,3.85051c-2.37204,-1.07252 -3.37104,-4.72351 -1.94102,-7.88624z" fill="none" stroke="#000000" stroke-width="1" stroke-linecap="butt"/><path d="M225.16832,192.21958c2.00664,-4.43802 7.01586,-6.8401 11.14782,-4.97186c4.13196,1.86824 5.10711,6.41992 3.10048,10.85794c-2.00664,4.43802 -6.98294,6.52123 -11.11489,4.653c-4.13194,-1.86824 -5.14003,-6.10103 -3.1334,-10.53906z" fill="#3f5479" stroke="#000000" stroke-width="0" stroke-linecap="butt"/><path d="M239.41661,198.10568c-2.00664,4.43802 -6.98294,6.52123 -11.11489,4.653c-3.50748,-1.58589 -4.76398,-4.87562 -3.83625,-8.54839c0.1367,0.14968 0.2914,0.29378 0.46523,0.43137c3.72624,2.9498 11.17834,5.00106 15.22398,1.31705c-0.16779,0.71076 -0.41406,1.43035 -0.73808,2.14696z" fill="#323344" stroke="#000000" stroke-width="0" stroke-linecap="butt"/><path d="M234.8771,188.15456c0.19029,-0.42084 0.68571,-0.60775 1.10654,-0.41747c0.42086,0.19029 0.60775,0.68571 0.41747,1.10654c-0.19029,0.42084 -0.68571,0.60775 -1.10654,0.41747c-0.42086,-0.19029 -0.60775,-0.68571 -0.41747,-1.10654z" fill="#95c2c5" stroke="none" stroke-width="0.5" stroke-linecap="butt"/><path d="M225.16832,192.21958c2.00664,-4.43802 7.01586,-6.8401 11.14782,-4.97186c4.13196,1.86824 5.10711,6.41992 3.10048,10.85794c-2.00664,4.43802 -6.98294,6.52123 -11.11489,4.653c-4.13194,-1.86824 -5.14003,-6.10103 -3.1334,-10.53906z" fill="none" stroke="#000000" stroke-width="1" stroke-linecap="butt"/><path d="M237.89037,199.87582c0,0 -2.16027,1.85609 -6.89047,-0.0484c-2.60707,-1.04965 -5.6652,-2.63047 -5.6652,-2.63047" fill="none" stroke="#000000" stroke-width="1" stroke-linecap="round"/><path d="M239.35822,197.84731c0,0 -2.58649,-0.38088 -4.26395,-0.89019c-2.65974,-0.80755 -10.15458,-3.48757 -10.15458,-3.48757" fill="none" stroke="#000000" stroke-width="1" stroke-linecap="round"/><path d="M225.54042,191.59964c0,0 4.13376,-1.13811 8.13698,0.30137c3.4076,1.22532 6.26346,4.25177 6.26346,4.25177" fill="none" stroke="#000000" stroke-width="1" stroke-linecap="round"/><path d="M227.56926,188.60106c0,0 3.61971,-0.92049 6.70696,0.37664c3.10237,1.30349 6.06918,4.11513 6.06918,4.11513" fill="none" stroke="#000000" stroke-width="1" stroke-linecap="round"/><path d="M226.94892,201.47563c0,0 -1.7329,-3.87805 -0.70664,-7.83874c0.59334,-2.28992 3.50741,-6.06909 3.50741,-6.06909" fill="none" stroke="#000000" stroke-width="1" stroke-linecap="round"/><path d="M229.11523,202.63867c0,0 -1.25279,-5.23602 -0.00382,-8.75325c0.97443,-2.74406 4.95095,-7.05986 4.95095,-7.05986" fill="none" stroke="#000000" stroke-width="1" stroke-linecap="round"/><path d="M232.14734,202.96949c0,0 -1.69623,-1.74285 1.50734,-9.4934c1.03114,-2.49469 3.79674,-5.48529 3.79674,-5.48529" fill="none" stroke="#000000" stroke-width="1" stroke-linecap="round"/><path d="M235.3111,202.19724l4.55631,-10.48306" fill="none" stroke="#000000" stroke-width="1" stroke-linecap="round"/></g></g></g></svg>