<svg version="1.1" xmlns="http://www.w3.org/2000/svg" xmlns:xlink="http://www.w3.org/1999/xlink" width="374.77477" height="288.28829" viewBox="0,0,374.77477,288.28829"><g transform="translate(-52.61265,-35.85585)"><g data-paper-data="{&quot;isPaintingLayer&quot;:true}" fill-rule="nonzero" stroke-linejoin="miter" stroke-miterlimit="10" stroke-dasharray="" stroke-dashoffset="0" style="mix-blend-mode: normal"><path d="M52.61265,324.14414v-288.28829h374.77477v288.28829z" fill="none" stroke="none" stroke-width="NaN" stroke-linecap="butt"/><path d="M141.50604,136.313l2.30251,5.19766l-6.88339,3.04927l-2.30251,-5.19766z" data-paper-data="{&quot;index&quot;:null}" fill="#582700" stroke="none" stroke-width="0" stroke-linecap="butt"/><path d="M153.20314,123.93976l1.23429,2.78627l-3.58235,1.58695l-1.23429,-2.78627z" data-paper-data="{&quot;index&quot;:null}" fill="#582700" stroke="none" stroke-width="0" stroke-linecap="butt"/><g><g data-paper-data="{&quot;index&quot;:null}"><g stroke="#000000" stroke-width="3" stroke-linecap="round"><path d="M224.79907,177.37404c0,0 4.71416,-9.75384 8.182,-12.95977c16.82691,5.32026 22.72875,13.56227 22.72875,13.56227c1.85938,0.99142 -2.88385,6.68659 -2.88385,6.68659c0,0 -8.87764,11.40748 -14.55977,18.70887c-3.73112,4.79438 -9.56052,12.28502 -9.56052,12.28502c0,0 -3.91756,4.59592 -4.87756,3.98477c-5.77548,-3.67677 -12.1248,-6.14891 -14.2796,-8.93024c-0.71826,-0.9271 1.76087,-6.12933 1.76087,-6.12933l13.48968,-27.20814z" data-paper-data="{&quot;origPos&quot;:null}" fill="#582700"/><path d="M228.13484,172.57623l22.91702,13.42647l-1.87788,2.89173l-23.09314,-13.2299z" data-paper-data="{&quot;origPos&quot;:null}" fill="none"/></g><path d="M249.11416,189.39792l-23.69901,29.11541l-1.51022,-0.09229l-14.19188,-8.16092l16.76644,-33.82264z" fill="#66c8ff" stroke="#000000" stroke-width="1" stroke-linecap="round"/><path d="M250.83951,186.40085l-1.27542,1.9881l-22.78948,-13.31508l1.27542,-1.9881z" fill="#ffffff" stroke="none" stroke-width="0" stroke-linecap="butt"/></g><g fill="#fffc96" stroke="#000000" stroke-width="2" stroke-linecap="round"><path d="M223.1315,182.09627c0,0 -3.15479,-3.18615 -1.10518,-5.38676c3.27931,-3.5209 25.41974,21.84855 22.23407,25.71466c-1.30159,1.5796 -3.94505,-0.34389 -3.94505,-0.34389l1.02025,-1.59846c0,0 -3.05852,-5.63124 -8.08496,-11.65864c-4.95679,-5.94387 -9.27781,-8.93779 -9.27781,-8.93779z"/><path d="M219.23802,189.87157c0,0 -3.98645,-0.16882 -3.30833,-2.39898c1.42347,-4.68143 37.92607,-0.55437 35.55213,3.48848c-1.43772,2.44844 -4.82362,1.16068 -4.82362,1.16068l0.71401,-1.19652c0,0 -5.3258,-1.58991 -13.59783,-2.38559c-8.27202,-0.79569 -14.006,0.12883 -14.006,0.12883z" data-paper-data="{&quot;index&quot;:null}"/></g></g><g data-paper-data="{&quot;origRot&quot;:0}" stroke="#000000" stroke-linecap="round"><path d="M221.97714,227.66892c0,0 -2.66385,-4.07235 -1.26706,-4.85003c4.12169,-2.29478 7.20208,-5.97136 11.90663,-6.73335c1.95357,-0.31642 4.863,2.95217 4.863,2.95217l21.58543,25.91881c0,0 2.26541,2.64858 3.51082,4.21413c1.33156,1.67384 2.08348,4.90474 0.24697,6.06443c-6.74303,4.25803 -10.12158,8.09617 -15.03176,9.72395c-1.78885,0.59301 -3.72811,1.11031 -5.26599,0.05575c-2.0089,-1.37752 -3.7898,-5.52449 -3.7898,-5.52449z" data-paper-data="{&quot;origPos&quot;:null}" fill="#ff0000" stroke-width="3"/><path d="M264.43769,252.01375c0,0 -3.84475,5.35536 -8.37806,8.03153c-3.47809,2.05324 -11.57585,5.62967 -11.57585,5.62967c0,0 -2.64294,-1.50587 -3.60438,-2.81988c-1.01285,-1.38423 -1.45457,-4.09402 -1.45457,-4.09402l20.33319,-12.94108z" data-paper-data="{&quot;origPos&quot;:null}" fill="#976e57" stroke-width="2"/><path d="M222.22652,227.89896c0,0 -2.66385,-4.07236 -1.26705,-4.85003c4.12168,-2.29478 7.20208,-5.97137 11.90664,-6.73334c1.95357,-0.31642 4.86299,2.95216 4.86299,2.95216l21.58543,25.91882c0,0 2.26542,2.64857 3.51083,4.21413c1.33156,1.67384 2.08346,4.90474 0.24697,6.06444c-6.74303,4.25803 -10.12156,8.09619 -15.03175,9.72394c-1.78885,0.59301 -3.72812,1.11028 -5.26599,0.05574c-2.0089,-1.37752 -3.78981,-5.52448 -3.78981,-5.52448z" data-paper-data="{&quot;origPos&quot;:null}" fill="#4b4b4b" stroke-width="3"/></g><path d="M205.80273,260.03684c0,0 -0.24148,4.4758 -1.65903,6.41045c-1.0852,1.48106 -3.09452,1.60581 -4.98822,1.61157c-5.19797,0.0158 -9.71768,-2.53814 -17.5578,-4.42499c-2.1353,-0.51389 -2.5469,-3.80013 -1.87129,-5.80032c0.63192,-1.87079 1.85047,-5.08584 1.85047,-5.08584l11.37393,-31.27791c0,0 1.61107,-4.0036 3.56423,-4.32239c4.70352,-0.76774 8.88588,1.72793 13.57129,2.59072c1.58781,0.29239 0.48735,4.9768 0.48735,4.9768c0,0 -1.20636,8.93143 -1.9785,14.64802c-1.08978,8.06827 -2.79243,20.67393 -2.79243,20.67393z" fill="#4b4b4b" stroke="#000000" stroke-width="3" stroke-linecap="round"/><g stroke="#000000" stroke-linecap="round"><path d="M197.60106,177.95657c0,0 -29.58021,5.91484 -29.63236,-12.06568c-0.01923,-6.62461 16.98923,-5.02736 16.98923,-5.02736z" data-paper-data="{&quot;origPos&quot;:null}" fill="#66c8ff" stroke-width="2"/><path d="M189.17224,166.26791c0,0 -16.68106,-1.89997 -16.46244,-2.51368c0.69323,-1.94585 13.03825,-1.38252 13.03825,-1.38252z" data-paper-data="{&quot;origPos&quot;:null}" fill="#0a0a0a" stroke-width="1"/></g><g><g><path d="M186.2097,183.33892c0,0 0.59942,-14.5283 2.79589,-15.27739c6.58939,-2.24731 22.1174,-2.71787 32.43438,-3.65159c1.5949,-0.14434 4.31101,13.20395 4.31101,13.20395l4.88763,30.32329c0,0 1.73358,14.86818 -0.00627,15.02565c-15.48806,1.40172 -33.55676,3.89343 -40.54331,3.68104c-2.32884,-0.07079 -3.02397,-15.83635 -3.02397,-15.83635z" data-paper-data="{&quot;origPos&quot;:null}" fill="#66c8ff" stroke="#000000" stroke-width="3.5" stroke-linecap="round"/><path d="M206.6794,189.72193c-1.34745,0.12195 -1.59353,-2.35444 -1.59353,-2.35444c-0.51041,-5.13621 -1.18487,-11.92335 -1.69526,-17.05956c0,0 -0.24609,-2.47638 1.10135,-2.59833c1.34745,-0.12195 1.59353,2.35444 1.59353,2.35444c0.51041,5.13621 1.02082,10.27242 1.53122,15.40864l0.16407,1.65093c0,0 0.24608,2.47638 -1.10136,2.59833z" fill="#ffffff" stroke="none" stroke-width="0.5" stroke-linecap="butt"/><path d="M219.82412,194.89403c-1.34745,0.12195 -1.6566,-2.98909 -1.6566,-2.98909c-0.6412,-6.45253 -1.48853,-14.97908 -2.12973,-21.43161c0,0 -0.30915,-3.11104 1.03828,-3.23299c1.34745,-0.12195 1.6566,2.98909 1.6566,2.98909c0.6412,6.45253 1.28242,12.90506 1.92363,19.3576l0.20611,2.07403c0,0 0.30915,3.11104 -1.03828,3.23299z" fill="#ffffff" stroke="none" stroke-width="0.5" stroke-linecap="butt"/></g><g fill="none" stroke="#b9b9b9" stroke-width="3"><path d="M219.66878,169.62733c-0.99762,-1.2739 -0.1654,-2.57426 0.98985,-3.90231c1.15527,-1.32803 2.39888,-1.81418 3.19374,-0.90697c1.68532,1.92356 0.22818,3.03534 -0.67643,4.07523c-1.15528,1.32805 -2.09828,2.53313 -3.50717,0.73406z" stroke-linecap="butt"/><path d="M218.18456,171.69901l2.45255,-2.75271" stroke-linecap="round"/><path d="M214.54718,172.66034c1.15527,-1.32803 2.39889,-1.81418 3.19375,-0.90696c1.68532,1.92356 0.22818,3.03534 -0.67643,4.07523c-1.15527,1.32804 -2.09827,2.53313 -3.50715,0.73405c-0.99762,-1.2739 -0.16542,-2.57426 0.98983,-3.90232z" stroke-linecap="butt"/><path d="M214.52563,175.88164l-2.45255,2.75272" stroke-linecap="round"/><path d="M206.16328,178.71492c0.2562,-1.6656 1.66732,-1.63801 3.29816,-1.32472c1.63082,0.3133 2.73765,1.19425 2.60762,2.45922c-0.27573,2.68209 -1.94536,1.9623 -3.22234,1.71699c-1.63082,-0.31329 -3.04524,-0.49923 -2.68342,-2.85148z" stroke-linecap="butt"/><path d="M203.81676,178.52302l3.41632,0.70349" stroke-linecap="round"/><path d="M198.21979,175.03844c0.8013,-1.39515 2.10469,-0.72247 3.51593,0.3105c1.41124,1.03296 2.14316,2.34103 1.59466,3.43022c-1.16298,2.30938 -2.47294,0.8894 -3.578,0.08056c-1.41124,-1.03297 -2.66419,-1.85097 -1.53259,-3.82126z" stroke-linecap="butt"/><path d="M199.0421,175.99404l-2.94037,-2.20676" stroke-linecap="round"/><path d="M190.82934,169.55519c0.8013,-1.39513 2.1047,-0.72247 3.51594,0.3105c1.41126,1.03296 2.14316,2.34103 1.59466,3.43022c-1.16298,2.30937 -2.47294,0.88939 -3.57799,0.08055c-1.41124,-1.03296 -2.66419,-1.85095 -1.53258,-3.82125z" stroke-linecap="butt"/><path d="M191.65167,170.51079l-2.94038,-2.20676" stroke-linecap="round"/></g></g><g data-paper-data="{&quot;index&quot;:null}"><path d="M219.47318,170.54804c-12.58625,-1.35042 -24.78723,-2.69583 -29.64174,-4.2758c-4.43671,-1.44398 -5.45664,-4.3448 -5.45664,-4.3448c0,0 -1.51639,-2.62998 -1.41024,-4.16164c0.31837,-4.59499 1.87078,-17.66164 4.30107,-28.79968c0.0811,-0.37174 0.1408,-0.57784 0.24497,-0.9443c0.31249,-1.09937 1.72306,-5.3435 1.72306,-5.3435c0,0 3.52954,-1.25812 5.39216,-1.51668c5.58784,-0.77573 19.13926,2.31529 33.5573,4.4271c1.30681,0.19142 3.34012,2.12402 3.34012,2.12402c0,0 1.20125,3.30226 0.89716,5.26444c-1.96594,12.68585 -4.19002,26.71494 -4.9191,29.89642c-0.24303,1.0605 -2.69034,4.99436 -2.69034,4.99436z" fill="#582700" stroke="#000000" stroke-width="2.5" stroke-linecap="round"/><path d="M184.6736,122.95669c-0.55581,-1.13187 0.63022,-1.6623 0.63022,-1.6623l1.45999,-0.60763c0.12778,-0.02228 0.25538,-0.04381 0.38278,-0.06459c-0.34781,-5.86326 1.67876,-12.6671 2.35407,-18.34914c0.17514,-1.47356 0.28119,-5.50757 1.18408,-6.68584c1.51194,-1.97304 3.21894,-1.18086 5.1925,-0.96205c3.35795,0.3723 6.68408,0.78071 10.06351,0.67988c8.37597,-0.24058 16.57402,0.41148 24.93026,0.65886c2.63689,0.07806 5.19848,0.27134 7.79708,0.7777c0.71103,0.13855 1.66085,-0.00865 2.1019,0.54131c1.56212,1.94777 0.56074,3.80816 -0.0096,5.71999c-1.13766,3.81351 -3.25088,7.13061 -3.8656,11.09718c-0.49153,3.03161 -1.36806,6.10073 -2.14672,9.07484c-0.26872,1.02634 -0.15114,2.99552 -1.35185,3.65461c-2.46201,1.35145 -8.19362,-0.5075 -10.82574,-0.88653c-8.02587,-1.15575 -16.03349,-2.47026 -24.11613,-3.1878c-2.90104,-0.16237 -5.67681,-0.23646 -8.50263,0.0279c-0.07291,0.36701 -0.31596,0.8209 -1.0528,0.94305c-0.79948,0.13252 -1.18969,-0.2897 -1.3709,-0.63019c-0.09716,0.01615 -0.19446,0.03276 -0.29186,0.04987l-0.82072,0.41237c0,0 -1.18604,0.53043 -1.74187,-0.60144z" fill="#000000" stroke="none" stroke-width="0.5" stroke-linecap="butt"/><path d="M201.81793,140.63667c5.15702,-1.97567 9.36806,0.64384 10.53614,5.57439c1.33966,5.65476 -2.99091,8.37135 -2.99091,8.37135c0,0 -2.54794,-1.33363 -5.8917,-2.04395c-4.16354,-0.88444 -6.52695,-0.65354 -6.52695,-0.65354c0,0 -2.12263,-8.56806 4.8734,-11.24827z" fill="#ffffff" stroke="#0a0a0a" stroke-width="2" stroke-linecap="butt"/><path d="M229.44945,144.41344c5.85583,4.53093 1.1785,12.11976 1.1785,12.11976c0,0 -2.18677,-0.88613 -6.4384,-1.21351c-3.41451,-0.26292 -6.26135,0.29385 -6.26135,0.29385c0,0 -3.29777,-3.8151 -0.26935,-8.84084c2.64057,-4.38208 7.47408,-5.69915 11.79059,-2.35926z" data-paper-data="{&quot;index&quot;:null}" fill="#ffffff" stroke="#0a0a0a" stroke-width="2" stroke-linecap="butt"/><g data-paper-data="{&quot;index&quot;:null}" stroke="#000000" stroke-width="1" stroke-linecap="butt"><path d="M197.17282,168.22257c-12.33629,-4.33276 -4.46354,-15.57523 -4.46354,-15.57523l18.42336,6.2945c0,0 -0.89899,13.86795 -13.95982,9.28072z" fill="#000000"/><path d="M197.01813,164.03119c3.02707,2.1361 4.86088,5.13599 4.27202,5.09633c-1.21682,-0.08194 -2.58315,-0.36613 -4.11731,-0.90495c-4.59795,-1.61487 -6.38851,-4.18966 -6.82564,-6.78444c-0.08493,-0.5041 3.8912,0.6315 6.67093,2.59307z" fill="#ff8484"/><path d="M190.92416,156.73232c0.68799,-1.68291 1.78513,-4.085 1.78513,-4.085l16.19147,5.53195l-1.53402,4.30434c0,0 -16.46526,-5.69582 -16.44258,-5.75128z" fill="#ffffff"/></g></g><g data-paper-data="{&quot;index&quot;:null}"><g data-paper-data="{&quot;origRot&quot;:0,&quot;index&quot;:null}" stroke="#000000" stroke-width="3" stroke-linecap="round"><path d="M179.75182,222.29987c0,0 -25.34388,-7.27172 -24.77454,-9.76875c1.02653,-4.50231 6.29561,-13.88625 6.29561,-13.88625l15.36056,-26.28928c0,0 2.99512,-4.9488 4.20314,-4.92983c3.62402,0.05692 9.42223,3.55099 15.91414,5.89927c1.07906,0.39034 -0.56305,6.10382 -0.56305,6.10382c0,0 -2.99935,8.88063 -4.91906,14.56467c-2.92354,8.65624 -7.49118,22.18056 -7.49118,22.18056c0,0 -2.09958,6.99358 -4.02563,6.12579z" data-paper-data="{&quot;origPos&quot;:null}" fill="#582700"/><path d="M158.64587,205.83276l24.08124,9.66234" fill="none"/><path d="M160.32162,202.64176l23.98481,9.88121" data-paper-data="{&quot;origPos&quot;:null}" fill="none"/></g><path d="M160.3429,201.9092l19.46935,-33.3069l1.51462,-0.13495l15.25909,6.17467l-11.91411,37.05859z" fill="#66c8ff" stroke="#000000" stroke-width="1" stroke-linecap="round"/><path d="M158.68422,205.67011l0.95418,-2.14588l24.59826,9.96134l-0.95418,2.14588z" fill="#ffffff" stroke="none" stroke-width="0" stroke-linecap="butt"/></g><path d="M201.35733,155.53402c-0.39665,-0.19693 -0.28756,-0.84421 -0.46953,-1.17949c-0.2819,-0.2235 -0.53141,-0.52186 -0.7468,-0.83155c-0.26346,-0.23769 -0.53717,-0.46614 -0.74903,-0.68191c0,0 -0.24776,-0.25231 -0.12942,-0.54029c-0.12931,-0.03346 -0.25738,-0.07105 -0.38384,-0.1136c0,0 -1.12838,-0.39826 -0.71107,-1.4751c0.41732,-1.07684 1.5457,-0.67859 1.5457,-0.67859c0.96294,0.36426 1.87574,0.28625 2.89979,0.51471c0.93126,0.20776 1.78855,0.78855 2.72788,0.88181c0.70857,0.07035 1.42836,0.09449 2.12013,0.25683l0.61597,0.1631c0,0 1.15915,0.30746 0.83697,1.41366c-0.32218,1.1062 -1.48132,0.79874 -1.48132,0.79874l-0.44665,-0.1187l-0.57412,0.28083c-1.16176,0.11488 -1.82118,-0.08477 -2.87021,-0.36692c-0.18789,0.05296 -0.38365,0.12705 -0.49446,0.26448c-0.02032,0.03493 -0.04241,0.0686 -0.06653,0.1008c-0.43257,0.76824 0.17467,2.20396 -1.62351,1.31117z" fill="#000000" stroke="none" stroke-width="0.5" stroke-linecap="butt"/><path d="M225.11753,159.04848c-1.98311,0.40025 -0.99493,-0.82765 -1.19592,-1.67842c-0.01418,-0.03719 -0.02602,-0.07528 -0.03578,-0.11413c-0.06818,-0.16075 -0.23596,-0.2822 -0.40211,-0.38127c-1.08989,0.00354 -1.78127,0.02724 -2.86826,-0.38055l-0.47426,-0.41739l-0.46365,0.00013c0,0 -1.20308,-0.00024 -1.20283,-1.14837c0.00025,-1.14813 1.20333,-1.14789 1.20333,-1.14789l0.63925,0.00041c0.71206,0.02051 1.41231,0.18135 2.11472,0.29479c0.93116,0.15038 1.92018,-0.18992 2.87573,-0.15191c1.05075,0.04179 1.90825,0.35039 2.93826,0.24573c0,0 1.19894,-0.09511 1.29861,1.04908c0.09966,1.14418 -1.09929,1.23929 -1.09929,1.23929c-0.13378,0.00866 -0.26771,0.01211 -0.4017,0.01128c0.03315,0.30771 -0.2764,0.48744 -0.2764,0.48744c-0.26469,0.15369 -0.59255,0.3038 -0.91311,0.4654c-0.29447,0.24327 -0.61864,0.46692 -0.953,0.61015c-0.26945,0.27649 -0.34614,0.928 -0.78358,1.01627z" data-paper-data="{&quot;index&quot;:null}" fill="#000000" stroke="none" stroke-width="0.5" stroke-linecap="butt"/><path d="M190.67548,160.91899c0.07656,-0.01812 0.13043,-0.00946 0.13043,-0.00946l0.17152,0.03267c1.32143,-0.01271 2.6566,0.66226 3.9639,1.06121c1.28847,0.39734 2.64311,0.62358 3.88377,1.4688c1.60221,1.09153 2.97791,3.08836 4.74869,3.15332c0.99184,0.03638 2.08381,-0.42655 3.04077,-0.89034c0.30841,-0.14947 0.61135,-0.61173 0.92143,-0.47457c0.44592,0.19726 1.08319,0.5527 1.15166,1.39162c0.08866,1.08647 -1.06238,2.37278 -1.49652,2.92629c-0.23516,0.21042 -0.45934,0.46949 -0.70548,0.63124c-0.35022,0.23014 -0.77162,0.04103 -1.09628,0.37571c-0.30465,0.31403 -0.31293,1.154 -0.45434,1.74388c-0.20632,0.86063 -0.29809,1.87673 -0.21341,2.83921c0.21293,2.42002 2.61308,5.82959 0.64125,7.69815c-0.26878,0.2547 -1.41191,-0.09054 -1.69351,-0.27924c-1.15606,-0.77466 -2.17274,-2.23875 -3.23758,-3.33898c-0.68398,-0.96826 -1.43209,-1.72804 -2.10596,-2.73447c-1.83726,-2.74396 -3.62033,-5.73804 -5.35592,-8.70019c-0.97537,-1.66469 -1.86338,-3.75614 -2.97023,-5.10576c0,0 -0.49058,-0.60559 -0.16334,-1.51345c0.32725,-0.90786 0.81784,-0.30227 0.81784,-0.30227c0.0071,0.00885 0.01419,0.01773 0.02127,0.02664z" fill="#000000" stroke="none" stroke-width="0.5" stroke-linecap="butt"/><path d="M223.2722,200.69047c-0.3699,2.03607 -3.50429,3.21766 -7.0009,2.63915c-3.4966,-0.57851 -6.03132,-2.69805 -5.66142,-4.73413c0.3699,-2.03607 3.50429,-3.21766 7.0009,-2.63915c3.4966,0.57851 6.03132,2.69806 5.66142,4.73413z" fill="#000000" stroke="none" stroke-width="0" stroke-linecap="butt"/></g></g></svg>