<svg version="1.1" xmlns="http://www.w3.org/2000/svg" xmlns:xlink="http://www.w3.org/1999/xlink" width="199.11324" height="221.55319" viewBox="0,0,199.11324,221.55319"><g transform="translate(-195.52004,-69.22341)"><g data-paper-data="{&quot;isPaintingLayer&quot;:true}" fill-rule="nonzero" stroke-linejoin="miter" stroke-miterlimit="10" stroke-dasharray="" stroke-dashoffset="0" style="mix-blend-mode: normal"><path d="M205.36674,290.77659v-221.55318h189.26654v221.55319z" fill="none" stroke="none" stroke-width="NaN" stroke-linecap="butt"/><g data-paper-data="{&quot;index&quot;:null}" fill="#000000"><path d="M216.09129,249.25031c-0.20496,-2.25285 -4.06064,-5.72516 -2.00582,-5.85124c1.36892,-0.08399 20.78486,3.36685 22.01641,4.72571c0.61705,0.68084 1.07925,1.81579 1.14769,2.5678c0.10056,1.10531 -0.38962,2.05404 -1.24025,2.75375c-0.88315,0.72645 -19.9671,2.27726 -21.01376,2.34149c-2.05481,0.12608 1.30073,-4.28466 1.09574,-6.53752z" stroke="#000000" stroke-width="1.5" stroke-linecap="butt"/><g stroke-linecap="butt"><path d="M209.32278,249.69123c-0.37137,-4.08164 1.47327,-7.5221 4.12011,-7.68449c2.64685,-0.16239 5.09358,3.01478 5.46495,7.09643c0.37133,4.08164 -1.47331,7.5221 -4.12014,7.68449c-2.64683,0.16242 -5.09357,-3.01477 -5.46493,-7.09641z" stroke="#000000" stroke-width="1.5"/><path d="M214.98044,245.6816l-1.76101,-3.23445c0,0 1.74495,0.55298 2.34388,1.04651c1.24099,1.05291 1.73129,2.56411 1.73129,2.56411z" stroke="none" stroke-width="0"/><path d="M216.02469,248.88888l-0.41294,-1.46811c0,0 0.91946,-0.16024 1.24795,-0.15881c0.38463,0.00168 1.08407,0.21294 1.08407,0.21294l0.20968,1.78122z" stroke="none" stroke-width="0"/></g><g><path d="M215.22539,249.43717c0.51229,5.63067 -2.45858,8.95223 -7.98857,9.29152c-5.52998,0.33927 -10.45446,-4.23881 -10.96678,-9.86954c-0.51232,-5.63069 3.04106,-9.85846 8.57105,-10.19775c5.52996,-0.33926 9.87198,5.14501 10.3843,10.77574z" stroke="#000000" stroke-width="1.5" stroke-linecap="butt"/><path d="M203.23015,239.15815c2.74366,-0.16836 5.71112,1.01724 7.94696,2.58665c1.59293,1.11813 2.81739,2.90241 2.99847,4.89274c0.37219,4.0911 -1.28465,5.65574 -6.12296,5.95259c-2.4162,0.14823 -5.51488,-1.11011 -7.65869,-2.74116c-2.14902,-1.63502 -3.58148,-2.92615 -3.58148,-2.92615c0,0 1.57938,-7.46781 6.41769,-7.76466z" stroke="none" stroke-width="0" stroke-linecap="butt"/><path d="M204.90342,238.9684c0,0 4.04701,2.54665 4.86756,9.04547c0.82728,6.55207 -2.27429,9.7456 -2.27429,9.7456" stroke="#000000" stroke-width="0.8" stroke-linecap="round"/><path d="M209.40381,239.87317c0,0 2.46598,3.68779 3.4531,7.77697c1.42258,5.89302 -0.27515,8.33531 -0.27515,8.33531" stroke="#000000" stroke-width="0.75" stroke-linecap="round"/><path d="M200.70109,240.12592c0,0 3.49488,2.75874 4.67566,9.2287c1.13572,6.22294 -0.60165,8.23441 -0.60165,8.23441" stroke="#000000" stroke-width="0.8" stroke-linecap="round"/><path d="M203.50687,257.61063c0,0 -2.51441,-3.73755 -3.61762,-6.84506c-1.45312,-4.09309 -1.8008,-8.39875 -1.8008,-8.39875" stroke="#000000" stroke-width="0.8" stroke-linecap="round"/><path d="M214.67153,251.63985c0,0 -2.86257,2.46501 -8.668,3.06222c-5.41748,0.5573 -8.08244,-2.03456 -8.08244,-2.03456" stroke="#000000" stroke-width="0.8" stroke-linecap="round"/><path d="M197.45823,250.6153c0,0 2.77879,0.01709 5.76598,-0.43942c2.62696,-0.40147 5.39341,-1.26975 6.87253,-1.44666c1.75679,-0.21011 4.73434,-0.19192 4.73434,-0.19192" stroke="#000000" stroke-width="0.8" stroke-linecap="round"/><path d="M196.72995,248.07334c0,0 4.02104,-3.17879 7.80682,-3.52048c5.9419,-0.5363 9.95043,1.41887 9.95043,1.41887" stroke="#000000" stroke-width="0.8" stroke-linecap="round"/><path d="M196.87422,244.80305c0,0 2.82486,-2.45953 6.52529,-3.32437c5.32876,-1.24541 8.35879,-0.00677 8.35879,-0.00677" stroke="#000000" stroke-width="0.8" stroke-linecap="round"/><path d="M203.82235,240.44052c0.03654,0.40148 -0.30269,0.74962 -0.75765,0.77751c-0.45497,0.02793 -0.85341,-0.27493 -0.88993,-0.67641c-0.03652,-0.4015 0.30268,-0.74962 0.75764,-0.77751c0.45497,-0.02795 0.85343,0.27491 0.88995,0.67639z" stroke="none" stroke-width="0" stroke-linecap="butt"/><path d="M200.44693,241.8847c-0.22747,0.01395 -0.42897,-0.16251 -0.45004,-0.39413c-0.02107,-0.23162 0.14626,-0.43071 0.37374,-0.44466c0.22748,-0.01394 0.42897,0.16251 0.45004,0.39413c0.02108,0.23162 -0.14626,0.43071 -0.37374,0.44466z" stroke="none" stroke-width="0" stroke-linecap="butt"/></g></g><g data-paper-data="{&quot;index&quot;:null}" fill="#000000"><g data-paper-data="{&quot;origRot&quot;:0,&quot;index&quot;:null}" stroke="#000000" stroke-width="3" stroke-linecap="round"><path d="M356.5663,180.79925c-0.00683,2.03262 -7.4193,0.83541 -7.4193,0.83541c0,0 -14.54939,-1.87795 -23.86174,-3.07992c-6.11488,-0.78928 -15.66862,-2.02238 -15.66862,-2.02238c0,0 -6.0247,-1.04113 -5.9315,-2.1387c0.56087,-6.60322 -0.24088,-13.10127 1.24178,-16.24836c0.49421,-1.04904 6.37908,-1.50247 6.37908,-1.50247l31.02861,-1.93452c0,0 10.98502,-0.50624 15.61922,0.54464c2.57019,0.58282 -1.38757,25.54631 -1.38757,25.54631z" data-paper-data="{&quot;origPos&quot;:null}"/><path d="M348.9588,180.43776l1.19302,-24.90319"/><path d="M345.5175,180.52096l0.948,-24.91417" data-paper-data="{&quot;origPos&quot;:null}"/></g><path d="M344.59567,180.48231l-39.6124,-5.6645l0.70735,-15.80233l0.7677,-1.24706l39.31492,-2.45824z" stroke="#000000" stroke-width="1" stroke-linecap="round"/><path d="M348.85064,180.9749l-2.40576,-0.10028l1.13323,-25.47723l2.40576,0.10028z" stroke="none" stroke-width="0" stroke-linecap="butt"/></g><g data-paper-data="{&quot;origRot&quot;:0}" fill="#000000" stroke="#000000" stroke-linecap="round"><path d="M294.09768,222.63089c0,0 -2.55327,-4.11549 -1.16272,-4.87012c4.10336,-2.22677 7.20491,-5.85224 11.85552,-6.53688c1.93118,-0.2843 4.74079,3.03157 4.74079,3.03157l20.81529,26.26936c0,0 2.18586,2.68538 3.38558,4.27114c1.28272,1.69546 1.96644,4.93823 0.13566,6.06759c-6.722,4.1467 -10.12028,7.9288 -14.98897,9.47573c-1.77374,0.56356 -3.69438,1.04893 -5.19146,-0.03072c-1.9556,-1.41029 -3.63728,-5.58588 -3.63728,-5.58588z" data-paper-data="{&quot;origPos&quot;:null}" stroke-width="3"/><path d="M335.51669,247.66918c0,0 -3.88479,5.29144 -8.40061,7.89279c-3.46471,1.99584 -11.50988,5.4388 -11.50988,5.4388c0,0 -2.57826,-1.54904 -3.50259,-2.87864c-0.97372,-1.40066 -1.36095,-4.11731 -1.36095,-4.11731l20.27155,-12.60535z" data-paper-data="{&quot;origPos&quot;:null}" stroke-width="2"/><path d="M294.33943,222.86498c0,0 -2.55327,-4.11549 -1.16271,-4.87012c4.10335,-2.22677 7.20491,-5.85224 11.85555,-6.53686c1.93118,-0.2843 4.74078,3.03156 4.74078,3.03156l20.81529,26.26936c0,0 2.18588,2.68537 3.3856,4.27113c1.28272,1.69546 1.96643,4.93823 0.13566,6.06759c-6.722,4.1467 -10.12028,7.92881 -14.98897,9.47574c-1.77374,0.56356 -3.69439,1.04892 -5.19145,-0.03072c-1.9556,-1.41029 -3.63729,-5.58588 -3.63729,-5.58588z" data-paper-data="{&quot;origPos&quot;:null}" stroke-width="3"/></g><g data-paper-data="{&quot;index&quot;:null,&quot;origRot&quot;:0}" fill="#000000" stroke="#000000" stroke-linecap="round"><path d="M282.3728,252.32865c0,0 0.09261,4.48083 -1.15858,6.50712c-0.95784,1.55122 -2.92439,1.81252 -4.78603,1.94729c-5.10994,0.36988 -9.74247,-1.86963 -17.59071,-3.21753c-2.13751,-0.36711 -2.78458,-3.6169 -2.26775,-5.65804c0.48339,-1.90906 1.4445,-5.19893 1.4445,-5.19893l8.87732,-31.97299c0,0 1.28893,-4.10315 3.1859,-4.55419c4.56831,-1.08622 8.86479,1.11813 13.53553,1.65952c1.58284,0.18347 0.84622,4.9309 0.84622,4.9309z" data-paper-data="{&quot;origPos&quot;:null}" stroke-width="3"/><path d="M257.74225,247.76378l23.7074,4.15744c0,0 0.7136,2.65396 0.36608,4.3084c-0.32987,1.57053 -2.10186,3.9552 -2.10186,3.9552c0,0 -8.7936,-0.20842 -12.78298,-0.7724c-5.19968,-0.7351 -10.87716,-4.18972 -10.87716,-4.18972z" data-paper-data="{&quot;origPos&quot;:null}" stroke-width="2.5"/><path d="M282.24175,252.63438c0,0 0.09261,4.48083 -1.15858,6.50712c-0.95784,1.55122 -2.92439,1.81253 -4.78603,1.94729c-5.10994,0.36988 -9.74246,-1.86961 -17.59071,-3.21752c-2.13751,-0.36711 -2.78458,-3.61691 -2.26775,-5.65804c0.48339,-1.90906 1.4445,-5.19893 1.4445,-5.19893l8.87732,-31.97299c0,0 1.28892,-4.10315 3.1859,-4.55419c4.56831,-1.08622 8.86481,1.11814 13.53554,1.65952c1.58284,0.18347 0.84621,4.9309 0.84621,4.9309c0,0 -0.52757,8.99083 -0.86523,14.74544c-0.47659,8.12193 -1.2212,20.81143 -1.2212,20.81143z" data-paper-data="{&quot;origPos&quot;:null}" stroke-width="1.5"/></g><g fill="#000000"><g><path d="M268.35891,170.6995c0,0 3.07388,-14.23179 5.33758,-14.62254c6.79108,-1.17228 21.96699,0.82352 32.1565,1.5371c1.5752,0.11031 1.92678,13.7037 1.92678,13.7037l-0.44814,30.67686c0,0 -0.86419,14.93653 -2.58257,14.81619c-15.29673,-1.07124 -33.28907,-1.47641 -40.04447,-2.79262c-2.2518,-0.43873 -0.22422,-16.09568 -0.22422,-16.09568z" data-paper-data="{&quot;origPos&quot;:null}" stroke="#000000" stroke-width="3.5" stroke-linecap="round"/><path d="M287.16356,180.23663c-1.3308,-0.0932 -1.1454,-2.57421 -1.1454,-2.57421c0.38453,-5.14581 0.89266,-11.94562 1.27719,-17.09144c0,0 0.1854,-2.48102 1.5162,-2.38782c1.3308,0.0932 1.1454,2.57421 1.1454,2.57421c-0.38453,5.14581 -0.76906,10.29162 -1.1536,15.43743l-0.1236,1.65401c0,0 -0.1854,2.48102 -1.5162,2.38782z" stroke="none" stroke-width="0.5" stroke-linecap="butt"/><path d="M299.05504,187.41928c-1.3308,-0.0932 -1.09789,-3.21005 -1.09789,-3.21005c0.48308,-6.46459 1.12143,-15.00707 1.60452,-21.47166c0,0 0.23292,-3.11686 1.56371,-3.02366c1.3308,0.0932 1.09789,3.21005 1.09789,3.21005c-0.48308,6.46459 -0.96616,12.92917 -1.44924,19.39377l-0.15528,2.0779c0,0 -0.23292,3.11686 -1.56371,3.02366z" stroke="none" stroke-width="0.5" stroke-linecap="butt"/></g><g stroke="#000000" stroke-width="0.5" stroke-linecap="butt"><path d="M301.17455,197.56831c-0.50367,6.74012 -5.66676,11.87109 -11.53211,11.46033c-5.86533,-0.41075 -10.21183,-6.20769 -9.70815,-12.9478c0.50367,-6.74012 5.66676,-11.87109 11.53211,-11.46033c5.86533,0.41075 10.21183,6.20769 9.70815,12.9478z"/><path d="M294.54891,185.78704c-0.0004,0.01121 -0.00103,0.02263 -0.0019,0.03425c-0.04656,0.62309 -0.69021,0.57802 -0.69021,0.57802l-0.12872,-0.00901c-0.47028,-0.03293 -2.61617,-0.15524 -2.92741,-0.3127c-0.25982,-0.13145 -0.16941,-0.55637 -0.34653,-0.78252c-0.17015,-0.21726 -0.42454,-0.36205 -0.66324,-0.50676c-0.37958,-0.23012 -0.9189,-0.26463 -1.18474,-0.61357c-0.24556,-0.32234 -0.24261,-0.79081 -0.18755,-1.18777c0.25858,-1.86428 1.447,-1.80031 2.96764,-1.5241c0.45509,0.131 0.92873,0.21228 1.36528,0.39299c0.19205,0.07949 0.29259,0.31535 0.49192,0.37575c0.14168,0.04294 0.28704,-0.07795 0.43444,-0.09504c0.00629,-0.00073 1.82069,-0.12327 1.83867,-0.12448c1.22657,-0.08184 2.5286,-0.0396 3.74743,0.13223c0.77665,0.10949 2.52676,0.42026 2.92045,1.20914c0.56065,1.12346 -1.35768,1.72274 -1.83797,1.87469c-1.42137,0.44967 -2.57437,0.02754 -3.99224,0.08763c-0.48298,0.02047 -1.27703,0.2917 -1.80534,0.47126z"/></g></g><path d="M303.63297,160.63971c-12.45562,-0.83935 -24.53155,-1.68931 -29.3821,-3.07121c-4.43309,-1.26296 -5.56484,-4.11984 -5.56484,-4.11984c0,0 -1.60882,-2.56619 -1.57146,-4.10077c0.1121,-4.60374 1.06814,-17.72151 2.97339,-28.94795c0.06358,-0.37468 0.11334,-0.58302 0.19986,-0.95337c0.25957,-1.11105 1.46278,-5.40848 1.46278,-5.40848c0,0 3.42113,-1.39994 5.24432,-1.73374c5.46954,-1.00138 18.95208,1.5379 33.24524,3.06375c1.2955,0.13831 3.38287,1.98681 3.38287,1.98681c0,0 1.32792,3.25062 1.11446,5.22336c-1.38003,12.75405 -2.95542,26.8606 -3.53402,30.06875c-0.19285,1.06939 -2.43077,5.09882 -2.43077,5.09882z" fill="#000000" stroke="#000000" stroke-width="2.5" stroke-linecap="round"/><path d="M306.10923,140.30878c0.37074,-3.4262 1.09632,-6.16061 1.62064,-6.10744c0.52432,0.05315 0.64885,2.87377 0.27813,6.29997c-0.37074,3.4262 -1.09632,6.16062 -1.62064,6.10745c-0.52432,-0.05315 -0.64885,-2.87377 -0.27813,-6.29998z" fill="#000000" stroke="#000000" stroke-width="2.5" stroke-linecap="butt"/><path d="M299.35229,140.32492c0.37759,-3.48968 1.0025,-6.28628 1.39573,-6.24641c0.39324,0.03988 0.40594,2.90115 0.02836,6.39081c-0.37759,3.48968 -1.00247,6.28626 -1.39572,6.2464c-0.39324,-0.03988 -0.40595,-2.90113 -0.02837,-6.39079z" fill="#000000" stroke="#000000" stroke-width="2.5" stroke-linecap="butt"/><path d="M270.52349,113.4853l1.43823,-12.92523l44.98453,4.69098l-1.43823,12.92523z" fill="#000000" stroke="none" stroke-width="0" stroke-linecap="butt"/><path d="M294.83906,129.44348c0.15276,-1.37278 1.42615,-2.36574 2.84419,-2.21788c0.29117,0.03035 0.56579,0.10647 0.81706,0.22012c1.49757,-0.11981 8.93731,5.66041 6.47699,8.08416c-1.83587,1.80858 -7.00542,-1.88229 -8.76613,-3.32757c-0.48495,-0.39806 -2.0007,-2.17306 -1.37211,-2.75884z" data-paper-data="{&quot;index&quot;:null}" fill="#000000" stroke="none" stroke-width="0.5" stroke-linecap="butt"/><path d="M310.8589,134.1321c-1.51442,1.10374 -5.85604,3.8028 -6.80628,1.70369c-1.27346,-2.81311 5.06362,-7.15668 6.09584,-6.77307c0.19856,-0.06675 0.40645,-0.09254 0.61732,-0.07054c1.02698,0.1071 1.73567,1.30677 1.58293,2.67952c0.3317,0.68593 -1.07269,2.1564 -1.48979,2.4604z" data-paper-data="{&quot;index&quot;:null}" fill="#000000" stroke="none" stroke-width="0.5" stroke-linecap="butt"/><g data-paper-data="{&quot;index&quot;:null}" fill="#000000" stroke="#000000" stroke-width="1" stroke-linecap="butt"><g data-paper-data="{&quot;index&quot;:null}"><path d="M286.50872,147.88932c9.81741,0.91392 6.09349,4.62069 6.09349,4.62069l-13.09144,-1.26328c0,0 -3.46347,-4.23636 6.99791,-3.35737z"/></g><g data-paper-data="{&quot;index&quot;:null}"><path d="M286.50873,147.88932c2.00817,0.18697 3.44974,0.49075 4.47247,0.85576c0.01831,0.00654 -0.79656,0.76625 -0.88926,1.5607c-0.1132,0.96999 0.48888,2.00914 0.48585,2.00887c-2.21025,-0.21329 -11.067,-1.06796 -11.067,-1.06796c0,0 -3.46347,-4.23636 6.99791,-3.35737z"/></g></g><g data-paper-data="{&quot;index&quot;:null}" fill="#000000"><path d="M271.53755,155.08881c2.63881,-1.95334 4.55874,12.14869 5.6665,14.18734c1.20401,2.2157 -20.20154,-0.70903 -20.20154,-0.70903l-3.62126,-0.5453l24.0243,3.1844c0,0 8.35446,0.69475 7.77994,2.89354c0,0 2.44424,10.88453 -5.81396,27.98387c-5.30571,0.22626 -17.03789,-3.60197 -17.03789,-3.60197c0,0 -26.45712,-7.33218 -27.86018,-11.84857c-0.32489,-1.04584 -1.13393,-14.1071 1.67121,-17.25491c9.30871,-10.44585 35.39287,-14.28939 35.39287,-14.28939z" stroke="#000000" stroke-width="2.5" stroke-linecap="round"/><path d="M258.64273,169.48307c-0.51338,-0.09896 -1.02618,-0.20498 -1.54055,-0.30956c-0.11351,-0.02308 -1.37147,-0.4056 -1.99132,-0.34947c-1.58182,6.72795 -2.0653,13.61783 -4.02141,20.29496c-0.13117,0.60025 -0.27775,1.89387 -0.58981,3.1139c0.01111,0.38012 0.06755,0.67883 0.20197,0.79672c1.14297,1.00247 3.07194,1.34833 4.4048,2.12766c-0.03777,-0.38163 -0.13089,-1.48688 -0.08118,-1.94288c0.14763,-1.35421 0.28934,-2.6931 0.39431,-4.0503c0.36795,-4.75755 1.3203,-9.86971 2.2617,-14.52722c0.14427,-1.69274 0.45246,-3.47699 0.96149,-5.15381zM260.17385,169.74839c-0.51772,1.64935 -0.81593,3.42853 -0.95805,5.09616c-1.08984,5.26288 -1.84857,10.83291 -2.35984,16.20765c-0.21066,2.21457 0.33551,5.64387 -2.33181,5.49595c-1.42873,-0.81288 -3.53779,-1.26942 -4.79669,-2.36529c-0.26015,0.39453 -0.57455,0.67573 -0.9579,0.76852c-0.53961,0.13062 -2.46172,-0.98556 -3.03102,-1.20612c-3.39645,-1.3158 -7.72796,-2.28503 -9.27704,-5.86892c-3.9944,-4.87245 -3.38917,-13.98303 -1.06185,-19.3945c3.13954,-3.19707 6.47432,-4.34294 10.71372,-5.6506c3.06097,-0.94417 5.76348,-2.37799 8.97668,-2.98577c4.34443,-1.43837 8.72211,-2.74336 13.06702,-4.17564c1.99415,-0.65735 3.6833,-1.95152 5.39895,-0.38666c0.98987,3.47061 1.98888,6.97956 2.8998,10.48618c0.28395,1.09309 0.78446,3.33069 0.14982,4.38086c-0.88198,1.45943 -2.74782,0.95468 -4.14239,0.68812c-3.13655,-0.17343 -6.56303,-0.52424 -9.90662,-1.11518c-0.24329,0.23485 -0.61346,0.21366 -0.61346,0.21366c-0.59538,-0.0347 -1.1841,-0.10162 -1.76932,-0.18841zM249.17722,190.43403c0.20793,-4.06199 1.63952,-7.83579 1.96686,-11.83471c0.14404,-2.36035 0.04592,-6.5798 1.40548,-9.22474c0.00813,-0.1554 0.05576,-0.27057 0.05576,-0.27057l0.29838,-0.71283c0.1601,-0.7377 0.57445,-1.42345 1.05091,-2.01968c6.18848,-0.04737 12.42541,2.60831 18.7053,2.97896c0.69998,0.13453 1.68462,0.38783 2.39005,0.31738c0.43386,-0.04334 0.13555,-2.55264 0.08342,-2.85382c-0.63473,-3.667 -2.15181,-7.17017 -2.93509,-10.80805c-0.16435,-0.34736 -2.93914,0.88565 -3.54459,1.08472c-4.37779,1.43947 -8.78269,2.76897 -13.16435,4.20412c-3.19546,0.60781 -5.86736,2.02104 -8.91135,2.9674c-3.87438,1.20453 -6.95753,2.18236 -9.87803,5.03535c-1.96513,5.04918 -2.59676,13.31048 1.09234,17.81053c1.56755,3.47665 7.26745,5.10612 10.61365,6.38517c0.03548,0.01356 0.44143,-1.63895 0.7676,-2.99678c0.00137,-0.02117 0.0026,-0.042 0.00366,-0.06246z" stroke="none" stroke-width="0.5" stroke-linecap="butt"/><path d="M257.7002,174.59039c-0.94139,4.65752 -1.90747,9.86592 -2.27541,14.62347c-0.10496,1.35721 -0.25032,2.69632 -0.39797,4.05053c-0.04972,0.45599 0.04349,1.56124 0.08125,1.94287c-1.33287,-0.77933 -3.28054,-1.12797 -4.4235,-2.13042c-0.13441,-0.1179 -0.19283,-0.41732 -0.20394,-0.79744c0.31205,-1.22003 0.45498,-2.51521 0.58613,-3.11546c1.95611,-6.67715 2.46393,-13.66192 4.04575,-20.38987c0.61983,-0.05612 1.88544,0.32718 1.99895,0.35026c0.51438,0.10458 1.03302,0.21197 1.54639,0.31094c-0.50903,1.67682 -0.8134,3.46236 -0.95767,5.15511z" data-paper-data="{&quot;noHover&quot;:false,&quot;origItem&quot;:[&quot;Path&quot;,{&quot;applyMatrix&quot;:true,&quot;segments&quot;:[[[926.17844,407.1979],[3.2606,1.25965],[-0.27949,0.97418]],[[925.31465,410.11917],[0.29084,-0.97519],[-0.06418,0.21521]],[[924.29914,413.90358],[-0.01258,-1.20526],[13.15638,4.16543]],[[964.1057,425.02121],[-12.99513,-4.87922],[1.17537,0.35239]],[[970.21765,426.67451],[-2.3817,-0.804],[0.75941,0.04146]],[[971.83798,426.41666],[-0.25651,0.23985],[2.18115,-2.03947]],[[976.78433,418.26967],[-1.76682,2.44279],[-0.76669,0.00973]],[[972.89889,418.10481],[0.90089,0.17138],[-2.67549,-0.50896]],[[964.88923,416.67374],[2.68829,0.42712],[-9.42353,-1.49721]],[[936.29671,409.90591],[9.13228,2.58714],[-3.35077,-0.55846]]],&quot;closed&quot;:true}]}" stroke="none" stroke-width="0.5" stroke-linecap="butt"/><path d="M249.60469,188.71284c-0.04862,0.22216 -1.15774,4.84983 -1.21642,4.82739c-3.34621,-1.27906 -9.0706,-2.92666 -10.63812,-6.4033c-3.6891,-4.50005 -3.06447,-12.80555 -1.09932,-17.85472c2.92051,-2.85299 6.02103,-3.85489 9.8954,-5.05942c3.044,-0.94635 5.74827,-2.37019 8.94371,-2.97799c4.38165,-1.43514 8.81605,-2.7553 13.19383,-4.19477c0.60543,-0.19907 3.38374,-1.42943 3.54808,-1.08207c0.78328,3.63787 2.31419,7.15918 2.94893,10.82619c0.05212,0.30119 0.35271,2.81664 -0.08114,2.85996c-0.70544,0.07045 -1.7886,-0.15289 -2.48858,-0.28743c-6.27989,-0.37065 -12.46019,-2.99314 -18.64868,-2.94577c-0.47644,0.59623 -0.88153,1.27974 -1.04163,2.01745l-0.29465,0.71141c0,0 -0.32957,0.60474 0.38966,0.8835c0.072,0.02792 0.18001,0.13811 0.24351,0.14815c-1.29487,6.19638 -1.86539,12.4055 -3.65457,18.53141z" data-paper-data="{&quot;noHover&quot;:false,&quot;origItem&quot;:[&quot;Path&quot;,{&quot;applyMatrix&quot;:true,&quot;segments&quot;:[[[926.61254,417.73069],[12.14285,3.5238],[-0.03018,0.12086]],[[926.46822,418.11346],[0.06716,-0.13431],[-0.67082,1.34164]],[924.45576,418.78428],[[923.08279,418.0906],[0,0],[-1.44471,-0.43097]],[[919.22563,415.72869],[1.11205,1.01797],[0.89694,-11.9485]],[[928.15956,380.1298],[-1.74473,12.05571],[0.38029,-1.32836]],[[929.175,375.57071],[0.02742,1.37277],[-0.01686,-0.84429]],[[923.5003,374.93752],[0.60865,-0.05075],[-7.41054,0.61792]],[[901.48814,378.8123],[7.37628,-0.90935],[-0.71866,0.25961]],[[903.08234,385.83106],[-0.2998,-1.20115],[2.16779,8.68513]],[[909.35292,411.92731],[-2.15853,-8.69186],[0.69956,6.26621]],[[913.83986,429.61277],[-1.39861,-6.02998],[1.78014,7.67491]],[[922.29365,449.50563],[-5.21858,-6.1072],[9.74892,4.62723]],[[957.96755,450.34516],[-9.56021,6.37347],[7.18055,-2.44927]],[[972.39433,430.92276],[-3.08539,6.24485],[0.05411,-0.10951]],[[963.14745,427.86406],[0.43501,0.13058],[-11.92317,-4.46591]]],&quot;closed&quot;:true}]}" stroke="none" stroke-width="0.5" stroke-linecap="butt"/></g></g></g></svg>