<svg version="1.1" xmlns="http://www.w3.org/2000/svg" xmlns:xlink="http://www.w3.org/1999/xlink" width="84.93345" height="180.50677" viewBox="0,0,84.93345,180.50677"><g transform="translate(-197.22503,-92.89521)"><g data-paper-data="{&quot;isPaintingLayer&quot;:true}" fill-rule="nonzero" stroke-linejoin="miter" stroke-miterlimit="10" stroke-dasharray="" stroke-dashoffset="0" style="mix-blend-mode: normal"><g stroke="#000000" stroke-linecap="round"><path d="M231.0851,173.99461c0,0 -28.22914,5.91484 -28.27891,-12.06568c-0.01835,-6.62461 16.21325,-5.02736 16.21325,-5.02736z" data-paper-data="{&quot;origPos&quot;:null}" fill="#66c8ff" stroke-width="2"/><path d="M223.0413,162.30599c0,0 -15.91916,-1.89997 -15.71052,-2.51368c0.66156,-1.94585 12.44273,-1.38252 12.44273,-1.38252z" data-paper-data="{&quot;origPos&quot;:null}" fill="#0a0a0a" stroke-width="1"/></g><g><g data-paper-data="{&quot;index&quot;:null}"><g stroke="#000000" stroke-width="3" stroke-linecap="round"><path d="M278.12685,201.00747c0,0 2.9198,10.33691 2.48808,14.92429c-15.6623,6.39279 -25.29943,3.78911 -25.29943,3.78911c-1.99294,0.39971 -2.25392,-6.87055 -2.25392,-6.87055c0,0 -0.9747,-14.17598 -1.59858,-23.24931c-0.40966,-5.95792 -1.0497,-15.26645 -1.0497,-15.26645c0,0 -0.14545,-5.92273 0.94803,-6.05365c6.57853,-0.78762 12.79038,-2.84668 16.16085,-2.06925c1.12349,0.25914 2.70627,5.75054 2.70627,5.75054l7.89838,29.04526z" data-paper-data="{&quot;origPos&quot;:null}" fill="#582700"/><path d="M278.82545,206.72281l-25.34773,4.00908l-0.51729,-3.36246l25.34772,-4.26772z" data-paper-data="{&quot;origPos&quot;:null}" fill="none"/></g><path d="M252.67667,206.94966l-1.73302,-36.8268l1.15535,-0.86652l15.59723,-2.59955l9.82048,36.10471z" fill="#66c8ff" stroke="#000000" stroke-width="1" stroke-linecap="round"/><path d="M253.37301,210.29757l-0.36699,-2.30203l25.18283,-4.01465l0.36699,2.30203z" fill="#ffffff" stroke="none" stroke-width="0" stroke-linecap="butt"/></g><g fill="#fffc96" stroke="#000000" stroke-width="2" stroke-linecap="round"><path d="M276.26738,196.38422c0,0 4.35886,0.46489 4.30244,3.4086c-0.09028,4.70982 -32.63647,-0.83964 -32.83846,-5.75378c-0.08252,-2.0078 3.08487,-2.18542 3.08487,-2.18542l0.29885,1.84764c0,0 5.8781,2.38292 13.44102,3.84639c7.45811,1.44319 12.53792,1.03867 12.53792,1.03867z"/><path d="M274.03817,188.06004c0,0 3.00112,-2.34415 3.95866,-0.2286c2.01,4.44084 -27.14776,23.94366 -28.05337,19.39864c-0.54845,-2.75257 2.74428,-3.87382 2.74428,-3.87382l0.25974,1.35222c0,0 4.89612,-2.09478 11.41299,-6.62048c6.51688,-4.52569 10.07493,-8.78464 10.07493,-8.78464z" data-paper-data="{&quot;index&quot;:null}"/></g></g><g data-paper-data="{&quot;origRot&quot;:0}" stroke="#000000" stroke-linecap="round"><path d="M243.34182,226.51926c0,0 -0.14544,-4.68871 1.44302,-4.68798c4.68727,0.00221 9.20864,-1.65114 13.59458,-0.08156c1.82127,0.65176 2.59227,4.77781 2.59227,4.77781l4.85382,32.01962c0,0 0.54659,3.30005 0.79025,5.20664c0.2605,2.03847 -0.77893,5.11808 -2.93867,5.23285c-7.92986,0.42145 -12.78797,2.07091 -17.79778,1.13511c-1.82516,-0.34093 -3.73857,-0.81649 -4.49555,-2.42949c-0.98885,-2.107 -0.34665,-6.44342 -0.34665,-6.44342z" data-paper-data="{&quot;origPos&quot;:null}" fill="#ff0000" stroke-width="3"/><path d="M266.71897,267.02812c0,0 -6.04118,2.7103 -11.27555,2.83632c-4.01599,0.09668 -12.74109,-0.69406 -12.74109,-0.69406c0,0 -1.46001,-2.51347 -1.59338,-4.07429c-0.14052,-1.64424 0.89151,-4.13829 0.89151,-4.13829l23.96453,-1.35629z" data-paper-data="{&quot;origPos&quot;:null}" fill="#976e57" stroke-width="2"/><path d="M243.43392,226.83063c0,0 -0.14544,-4.68871 1.44302,-4.68797c4.68726,0.00221 9.20864,-1.65114 13.59459,-0.08154c1.82127,0.65176 2.59226,4.7778 2.59226,4.7778l4.85382,32.01962c0,0 0.54661,3.30006 0.79027,5.20664c0.2605,2.03847 -0.77895,5.11807 -2.93867,5.23285c-7.92986,0.42145 -12.78797,2.07091 -17.79778,1.13512c-1.82516,-0.34093 -3.73855,-0.81651 -4.49554,-2.42949c-0.98885,-2.107 -0.34666,-6.44342 -0.34666,-6.44342z" data-paper-data="{&quot;origPos&quot;:null}" fill="#4b4b4b" stroke-width="3"/></g><path d="M239.6915,262.83669c0,0 0.58777,4.34338 -0.42742,6.43906c-0.77716,1.60433 -2.69638,2.05824 -4.52568,2.37853c-5.02119,0.87914 -9.85826,-0.82512 -17.78228,-1.33612c-2.15814,-0.13918 -3.1589,-3.2303 -2.87286,-5.26569c0.26755,-1.90369 0.85547,-5.19733 0.85547,-5.19733l5.25493,-31.96252c0,0 0.82266,-4.11702 2.65197,-4.74816c4.40532,-1.51991 8.90564,0.18439 13.5926,0.23516c1.58834,0.01721 1.38413,4.70393 1.38413,4.70393c0,0 0.47263,8.78761 0.77514,14.41215c0.42695,7.93835 1.094,20.34102 1.094,20.34102z" fill="#4b4b4b" stroke="#000000" stroke-width="3" stroke-linecap="round"/><g><path d="M221.66332,180.82409c0,0 1.99796,-14.07935 4.21867,-14.61465c6.66209,-1.60593 21.8925,-0.69665 32.0721,-0.69665c1.57366,0 2.93259,13.22341 2.93259,13.22341l1.83285,29.92667c0,0 0.25042,14.61535 -1.46629,14.61535c-15.28184,0 -33.19316,0.83309 -40.00462,0.01143c-2.27046,-0.27388 -1.41818,-15.67071 -1.41818,-15.67071z" data-paper-data="{&quot;origPos&quot;:null}" fill="#66c8ff" stroke="#000000" stroke-width="3.5" stroke-linecap="round"/><path d="M241.06015,188.8351c-1.3295,0 -1.3295,-2.43052 -1.3295,-2.43052c0,-5.04109 0,-11.70251 0,-16.74359c0,0 0,-2.43052 1.3295,-2.43052c1.3295,0 1.3295,2.43052 1.3295,2.43052c0,5.04109 0,10.08216 0,15.12325v1.62034c0,0 0,2.43052 -1.3295,2.43052z" fill="#ffffff" stroke="none" stroke-width="0.5" stroke-linecap="butt"/><path d="M253.41163,195.02337c-1.3295,0 -1.3295,-3.05342 -1.3295,-3.05342c0,-6.33302 0,-14.70166 0,-21.03467c0,0 0,-3.05342 1.3295,-3.05342c1.3295,0 1.3295,3.05342 1.3295,3.05342c0,6.33302 0,12.66604 0,18.99907v2.03561c0,0 0,3.05342 -1.3295,3.05342z" fill="#ffffff" stroke="none" stroke-width="0.5" stroke-linecap="butt"/></g><g fill="none" stroke="#b9b9b9" stroke-width="3"><path d="M255.71506,170.43199c-0.85177,-1.32698 0.0884,-2.51863 1.34718,-3.70876c1.25878,-1.19011 2.52214,-1.55352 3.21127,-0.60107c1.46113,2.01948 -0.07184,2.97265 -1.05749,3.90455c-1.25879,1.19013 -2.29805,2.27933 -3.50096,0.40529z" stroke-linecap="butt"/><path d="M256.72815,169.85477l-2.66583,2.46173" stroke-linecap="round"/><path d="M250.41195,172.93143c1.25878,-1.19011 2.52214,-1.55352 3.21127,-0.60107c1.46113,2.01948 -0.07184,2.97265 -1.05749,3.90455c-1.25877,1.19012 -2.29804,2.27933 -3.50095,0.40529c-0.85177,-1.32698 0.0884,-2.51863 1.34716,-3.70877z" stroke-linecap="butt"/><path d="M247.41203,178.52471l2.66581,-2.46175" stroke-linecap="round"/><path d="M241.62506,178.0828c0.41239,-1.59763 1.78963,-1.44655 3.35397,-0.99824c1.56433,0.44832 2.56107,1.40269 2.31098,2.62172c-0.53026,2.58468 -2.09304,1.73753 -3.31794,1.38649c-1.56433,-0.44831 -2.9294,-0.7537 -2.347,-3.00996z" stroke-linecap="butt"/><path d="M239.34905,177.68957l3.27242,0.98507" stroke-linecap="round"/><path d="M234.21447,173.80727c0.91916,-1.28656 2.12837,-0.51748 3.40802,0.61155c1.27967,1.12904 1.86828,2.46586 1.22607,3.47706c-1.36169,2.14402 -2.5047,0.64743 -3.50672,-0.23663c-1.27967,-1.12905 -2.42543,-2.03503 -1.12737,-3.85197z" stroke-linecap="butt"/><path d="M232.26481,172.40377l2.66091,2.40545" stroke-linecap="round"/><path d="M227.52027,167.82293c0.91916,-1.28654 2.12837,-0.51748 3.40802,0.61155c1.27968,1.12904 1.86828,2.46586 1.22607,3.47706c-1.36169,2.14401 -2.5047,0.64743 -3.50672,-0.23663c-1.27967,-1.12904 -2.42542,-2.03502 -1.12736,-3.85197z" stroke-linecap="butt"/><path d="M228.23154,168.82488l-2.66092,-2.40545" stroke-linecap="round"/></g><path d="M256.35958,168.25348c-12.08373,-0.28346 -23.80079,-0.59445 -28.55508,-1.75875c-4.34511,-1.06409 -5.57105,-3.86751 -5.57105,-3.86751c0,0 -1.67391,-2.49178 -1.70842,-4.0264c-0.10349,-4.60386 0.21725,-17.75032 1.54298,-29.04976c0.04424,-0.37712 0.08278,-0.58746 0.1494,-0.96127c0.19988,-1.12142 1.16563,-5.46792 1.16563,-5.46792c0,0 3.24395,-1.5509 4.99167,-1.96558c5.24316,-1.24403 18.39824,0.69181 32.29055,1.57918c1.25915,0.08044 3.36283,1.83397 3.36283,1.83397c0,0 1.43378,3.18802 1.31815,5.16817c-0.7475,12.80202 -1.6217,26.96381 -2.03356,30.19433c-0.13727,1.07684 -2.11596,5.20174 -2.11596,5.20174z" fill="#582700" stroke="#000000" stroke-width="2.5" stroke-linecap="round"/><path d="M254.39121,148.05289c0.20081,-3.4391 0.77663,-6.20294 1.28612,-6.17318c0.50949,0.02973 0.75974,2.84182 0.55893,6.2809c-0.20081,3.4391 -0.77663,6.20295 -1.28612,6.17319c-0.50949,-0.02973 -0.75974,-2.84182 -0.55893,-6.28091z" fill="none" stroke="#000000" stroke-width="2.5" stroke-linecap="butt"/><path d="M248.18077,147.76968c0.20453,-3.5028 0.68011,-6.3243 1.06222,-6.30197c0.38212,0.02232 0.5261,2.87999 0.32157,6.38277c-0.20453,3.5028 -0.68009,6.32427 -1.06221,6.30196c-0.38212,-0.02232 -0.52611,-2.87997 -0.32158,-6.38275z" fill="none" stroke="#000000" stroke-width="2.5" stroke-linecap="butt"/><path d="M250.89811,157.62831c0,0 -2.75637,0.0883 -6.07257,-0.37249" fill="none" stroke="#000000" stroke-width="2.5" stroke-linecap="round"/><path d="M219.07291,123.7838c-0.62839,-1.08056 0.45216,-1.70896 0.45216,-1.70896l1.33416,-0.7284c0.1195,-0.03297 0.23887,-0.06518 0.35817,-0.09661c-0.84887,-5.81097 0.47617,-12.75913 0.6159,-18.47589c0.03624,-1.48257 -0.21951,-5.50973 0.53464,-6.75953c1.26286,-2.09285 2.95553,-1.44777 4.8509,-1.39629c3.22495,0.08759 6.42282,0.21383 9.62636,-0.17166c7.94085,-0.94616 15.79147,-0.98817 23.75671,-1.44661c2.51349,-0.14466 4.9656,-0.16822 7.48057,0.11697c0.68814,0.07803 1.57802,-0.14872 2.0459,0.36189c1.6571,1.80838 0.86964,3.74596 0.49645,5.69841c-0.74439,3.89455 -2.45998,7.37692 -2.69373,11.37982c-0.19928,3.0612 -0.76123,6.19224 -1.23855,9.22039c-0.16472,1.045 0.1211,2.99654 -0.96203,3.75434c-2.22091,1.55383 -7.83364,0.18563 -10.3692,0.03011c-7.73146,-0.47424 -15.45962,-1.10814 -23.20632,-1.1411c-2.77206,0.08296 -5.41721,0.2433 -8.08005,0.745c-0.03687,0.37171 -0.22778,0.84435 -0.91743,1.02817c-0.74825,0.19945 -1.15652,-0.18821 -1.35887,-0.51208c-0.09093,0.02428 -0.18194,0.04905 -0.27302,0.07429l-0.74374,0.47998c0,0 -1.08056,0.62839 -1.70896,-0.45216z" fill="#000000" stroke="none" stroke-width="0.5" stroke-linecap="butt"/><g><g stroke="#000000" stroke-width="3" stroke-linecap="round"><path d="M201.20653,201.02599l7.89838,-29.04526c0,0 1.58278,-5.4914 2.70627,-5.75054c3.37048,-0.77744 9.58231,1.28163 16.16085,2.06925c1.09348,0.13092 0.94804,6.05365 0.94804,6.05365c0,0 -0.64004,9.30853 -1.0497,15.26645c-0.62388,9.07333 -1.59858,23.24931 -1.59858,23.24931c0,0 -0.26098,7.27026 -2.25392,6.87055c0,0 -9.63714,2.60367 -25.29943,-3.78911c-0.43173,-4.58738 2.48808,-14.92429 2.48808,-14.92429z" data-paper-data="{&quot;origPos&quot;:null}" fill="#582700"/><path d="M201.02518,203.12023l25.34772,4.26772l-0.51729,3.36246l-25.34773,-4.00908z" data-paper-data="{&quot;origPos&quot;:null}" fill="none"/></g><path d="M201.81663,202.78003l9.82048,-36.10471l15.59723,2.59955l1.15535,0.86652l-1.73303,36.8268z" fill="#66c8ff" stroke="#000000" stroke-width="1" stroke-linecap="round"/><path d="M200.77751,206.30144l0.367,-2.30203l25.18283,4.01465l-0.36699,2.30203z" fill="#ffffff" stroke="none" stroke-width="0" stroke-linecap="butt"/></g></g></g></svg>