<svg version="1.1" xmlns="http://www.w3.org/2000/svg" xmlns:xlink="http://www.w3.org/1999/xlink" width="306.30631" height="274.77477" viewBox="0,0,306.30631,274.77477"><g transform="translate(-86.84686,-42.61264)"><g data-paper-data="{&quot;isPaintingLayer&quot;:true}" fill-rule="nonzero" stroke-linecap="butt" stroke-linejoin="miter" stroke-miterlimit="10" stroke-dasharray="" stroke-dashoffset="0" style="mix-blend-mode: normal"><path d="M86.84686,317.38741v-274.77477h306.30631v274.77477z" data-paper-data="{&quot;index&quot;:null}" fill="none" stroke="none" stroke-width="0"/><g data-paper-data="{&quot;index&quot;:null}"><g><path d="M177.70553,280.24702c0,0 -1.88024,0.73284 -2.8723,1.07336c-0.90074,0.30917 -2.83261,0.88483 -2.83261,0.88483c0,0 -14.87968,1.05147 -22.17101,0.93858c-7.43586,-0.11513 -22.01909,-1.62279 -22.01909,-1.62279c0,0 -2.93913,-19.45928 -3.70032,-29.54893c-0.84396,-11.1869 -1.14077,-34.62117 -1.14077,-34.62117c0,0 22.04857,-8.41822 29.58207,-10.7242c5.2409,-1.60422 11.29199,-1.78722 11.29199,-1.78722c0,0 5.13697,4.18302 6.95806,6.03485c1.68488,1.71333 4.86563,5.20259 4.86563,5.20259l2.03836,64.1701z" fill="#434253" stroke="#000000" stroke-width="2.5"/><path d="M173.37927,282.19824l-3.46469,0.0041c0,0 -0.39007,-0.99331 -0.95047,-6.36606c-0.10034,-0.96198 0.52396,-2.34168 0.41397,-3.39694c-1.00099,-9.6031 -3.07972,-24.94394 -3.82517,-32.23684c-1.78356,-17.44918 -2.98527,-35.93346 -2.98527,-35.93346l2.13944,1.25216c0,0 0.69513,4.53943 1.20254,11.64519c0.3783,5.29769 -0.15891,9.77041 -0.00094,14.97823c0.0207,0.68263 0.59219,9.31135 2.10319,19.35565c2.11376,14.05117 5.36741,30.69797 5.36741,30.69797z" fill="#000000" stroke="none" stroke-width="0"/></g><g stroke="#000000" stroke-width="1.5"><path d="M133.39213,263.62307c0.81767,-8.39919 8.69707,-15.63258 15.53311,-15.02512c6.82469,0.60645 12.93531,6.02857 12.77602,17.05011c-0.14298,9.89284 -7.09089,16.02972 -15.18869,15.24139c-8.0978,-0.78832 -14.07908,-7.41904 -13.12044,-17.26637z" fill="#2c262f"/><path d="M151.79121,263.43917c2.284,0.22234 3.89766,2.60548 3.62728,5.38293c-0.27039,2.77745 -1.74565,4.36322 -4.02965,4.14088c-2.284,-0.22235 -3.96933,-2.68744 -3.69895,-5.46489c0.27038,-2.77745 1.81733,-4.28127 4.10133,-4.05893z" data-paper-data="{&quot;index&quot;:null}" fill="#1b171c"/></g><g stroke="#000000" stroke-width="1.5"><path d="M129.05084,229.20399c0.4879,-8.42479 8.08552,-16.09251 14.93237,-15.6223c6.84937,0.47038 13.16163,5.51703 13.43437,16.53635c0.24482,9.89086 -6.45726,16.29528 -14.57974,15.8249c-8.12248,-0.47038 -14.35901,-6.86161 -13.787,-16.73894z" fill="#2c262f"/><path d="M151.26403,233.53585c-0.16134,2.78591 -1.57333,4.42828 -3.86428,4.29561c-2.29096,-0.13268 -4.0716,-2.52983 -3.91026,-5.31575c0.16134,-2.7859 1.64816,-4.3492 3.93911,-4.21653c2.29095,0.13267 3.99677,2.45075 3.83543,5.23667z" data-paper-data="{&quot;index&quot;:null}" fill="#1b171c"/></g></g><text transform="translate(271.55606,110.72268) rotate(-180) scale(0.1602,-0.1602)" font-size="40" xml:space="preserve" data-paper-data="{&quot;index&quot;:null}" fill="#000000" fill-rule="nonzero" stroke="none" stroke-width="1" stroke-linecap="butt" stroke-linejoin="miter" stroke-miterlimit="10" stroke-dasharray="" stroke-dashoffset="0" font-family="Sans Serif" font-weight="normal" text-anchor="start" style="mix-blend-mode: normal"><tspan x="0" dy="0">AwezomeXD</tspan><tspan x="0" dy="46.150000000000006px"> </tspan><tspan x="0" dy="46.150000000000006px">MeIzAwezomeDede</tspan></text><g data-paper-data="{&quot;index&quot;:null}"><g><g><g><path d="M197.72502,130.97916c0,0 -4.95946,-11.15428 2.42121,-16.80077c5.23912,-4.00812 22.1067,-1.13352 33.24227,-3.63176c12.65857,-2.83993 36.32509,-9.16132 36.32509,-9.16132c0,0 5.84899,2.25388 7.85585,1.87611c2.50576,-0.4717 4.5293,-4.24217 4.5293,-4.24217c0,0 1.19877,3.99997 1.46802,7.34983c1.01416,12.6177 -9.15024,13.94175 -9.15024,13.94175c0,0 4.76959,5.16322 5.50544,9.40383c0.77348,4.45766 -2.65393,7.35361 -2.65393,7.35361c0,0 3.014,3.15648 3.65182,6.69905c0.42106,2.33868 0.43046,6.269 0.4008,8.72397c-0.05058,4.18938 8.09261,7.23805 8.09261,7.23805c0,0 -3.64277,3.76234 -6.41986,4.64599c-2.82664,0.89941 -9.71878,-1.25134 -9.71878,-1.25134c0,0 -2.44502,0.9638 -2.56527,3.82923c-0.03791,0.90328 0.51202,2.89768 0.78426,3.81143c0.9183,3.08211 -0.79972,5.56794 -0.79972,5.56794c0,0 -2.02345,-3.22733 -2.96223,-3.97358c-0.68901,-0.54771 -1.33324,-0.66013 -1.33324,-0.66013c0,0 -0.85962,4.4805 -0.14126,6.89586c1.59778,5.37227 4.57337,11.90503 3.304,12.20691c-2.29524,0.54582 -5.54009,-2.99943 -8.26007,-3.07339c-2.50349,-0.06806 -5.84336,-6.09074 -5.84336,-6.09074c0,0 -1.12174,7.00275 -3.92038,8.21421c-2.71581,1.17564 -3.70321,6.49713 -4.88188,6.77071c-4.29665,0.99729 -10.99391,-11.24026 -10.99391,-11.24026c0,0 -11.33004,9.95853 -14.54701,7.82488c-3.79679,-2.51824 -6.95239,-18.1419 -6.95239,-18.1419c0,0 -6.26898,-3.8628 -7.08484,-6.61254c-1.83225,-6.17541 0.75843,-11.57488 0.75843,-11.57488c0,0 -3.25042,0.7473 -4.71949,2.10433c-1.56149,1.44242 -4.38916,6.30963 -4.38916,6.30963c0,0 -2.01504,-5.39693 -1.91107,-8.11988c0.10936,-2.8635 2.55192,-8.66068 2.55192,-8.66068c0,0 -5.31145,-2.94765 -7.93017,-7.88476c-1.40353,-2.64605 -1.29197,-8.72081 -1.29197,-8.72081c0,0 4.85983,3.35233 6.74489,3.68897c1.46227,0.26113 1.10256,-2.73283 1.10256,-2.73283z" fill="#6d0f0a" stroke="#000000" stroke-width="2"/><path d="M192.00302,108.40097c0.31743,-5.54 4.04422,-12.93695 6.23217,-17.99471c3.10071,-7.1676 11.35979,-11.48927 18.62927,-13.12016c9.55624,-2.14392 17.7589,6.17621 17.7589,6.17621c0,0 9.3253,-5.59688 17.02402,-5.10363c7.43762,0.4765 13.75582,7.542 15.46912,9.27116c2.61014,2.63429 6.70685,16.02834 6.70685,16.02834c0,0 -24.20687,25.93778 -39.35308,29.33577c-16.18073,3.63009 -29.85228,-11.46871 -35.24375,-7.7345c-1.89705,1.31393 -3.28757,0.60502 -3.28757,0.60502c0,0 -4.52223,-7.2304 -3.93593,-17.4635z" fill="#6d0f0a" stroke="#000000" stroke-width="2"/><path d="M196.80244,95.42485c0,0 1.67979,-3.42772 2.60304,-4.95022c0.88084,-1.45254 2.81516,-3.98487 2.81516,-3.98487c0,0 9.4174,4.78243 14.1144,5.4997c4.92204,0.75164 12.43607,-2.40525 12.43607,-2.40525c0,0 0.40852,2.28659 0.81293,3.18131c0.42756,0.94595 1.20852,2.45655 1.20852,2.45655c0,0 0.966,-2.01413 1.17894,-2.84143c0.22999,-0.89355 0.55815,-2.75223 0.55815,-2.75223c0,0 2.34098,3.46056 3.36573,4.73092c0.83917,1.04032 2.33806,2.33989 2.33806,2.33989c0,0 -0.39665,-2.09897 -0.68677,-3.17541c-0.30716,-1.13966 -1.10802,-3.48368 -1.10802,-3.48368c0,0 10.4115,2.85959 16.71236,3.5595c0.1265,0.01404 4.82272,-0.79511 5.17903,-0.80803c7.66129,-0.27784 3.61696,-9.10165 3.61696,-9.10165c0,0 3.43307,2.96485 5.06404,5.8003c1.65419,2.87584 4.79239,11.33528 4.79239,11.33528c0,0 -5.9505,-2.23711 -11.16305,-1.91199c-0.92494,0.05769 -10.89049,1.21612 -10.89049,1.21612c0,0 -1.8213,-1.88998 -2.76024,-2.65114c-0.9201,-0.74588 -2.81794,-1.8709 -2.81794,-1.8709c0,0 -0.9049,2.03848 -1.31008,3.27202c-0.48682,1.48196 -1.41099,5.01201 -1.41099,5.01201c0,0 -1.22548,-1.69755 -2.06106,-2.57724c-0.92958,-0.97867 -3.26441,-3.02961 -3.26441,-3.02961c0,0 -1.26406,0.67286 -1.91618,1.27115c-0.90531,0.83056 -3.00982,3.24806 -3.00982,3.24806c0,0 -1.28228,-2.70414 -1.99906,-3.88266c-0.62015,-1.01965 -2.05392,-2.78122 -2.05392,-2.78122c0,0 -1.47326,1.39857 -2.22343,2.28989c-0.93612,1.11227 -2.96004,3.86875 -2.96004,3.86875c0,0 -8.74416,-6.62646 -13.06785,-7.80771c-4.04442,-1.10497 -12.09242,0.93383 -12.09242,0.93383z" fill="#c42d06" stroke="none" stroke-width="0"/></g><path d="M220.5897,138.30332c0,0 -19.74588,-3.31936 -20.32873,-4.67027c-0.1011,-0.23435 1.3826,-9.13697 1.01282,-9.96949c-0.67547,-1.52068 -5.0067,0.24992 -5.0067,0.24992c0,0 64.06,-18.08151 74.15953,-20.49954c2.57295,-0.61602 5.63339,1.40063 5.63339,1.40063l-9.01676,20.6718z" fill="#6d0f0a" stroke="none" stroke-width="NaN"/></g><path d="M236.07788,84.54395c0,0 -4.62662,-1.10371 -3.73407,-6.86143c0.04703,-0.30337 0.55177,-1.56524 0.74402,-1.85465c1.47319,-2.21765 6.51173,-3.18406 6.51173,-3.18406c0,0 -2.48801,4.92735 -3.29184,6.60364c-0.71648,1.49413 -0.22982,5.2965 -0.22982,5.2965z" fill="#6d0f0a" stroke="#000000" stroke-width="1.5"/><path d="M229.03795,74.47848c0,0 1.53321,0.84421 2.225,2.50535c0.53356,0.80004 1.20153,3.61199 1.20153,3.61199l-2.07878,-0.8307z" fill="#000000" stroke="none" stroke-width="0"/></g><path d="M235.00153,83.19597l3.86634,-0.51685c0,0 -2.34205,4.7139 -2.84991,4.94711c-0.71098,0.32651 -4.08181,-4.61371 -4.08181,-4.61371z" fill="#6d0f0a" stroke="none" stroke-width="0"/></g><g data-paper-data="{&quot;index&quot;:null}"><g><path d="M305.15075,281.20389c-0.98651,-0.33862 -2.85622,-1.06736 -2.85622,-1.06736l2.02696,-63.81123c0,0 3.16296,-3.46974 4.83842,-5.17349c1.81091,-1.84148 6.91914,-6.0011 6.91914,-6.0011c0,0 6.01725,0.18197 11.22884,1.77723c7.49136,2.29308 29.41663,10.66422 29.41663,10.66422c0,0 -0.29515,23.3032 -1.13439,34.42755c-0.75693,10.03323 -3.67963,29.38367 -3.67963,29.38367c0,0 -14.50168,1.49922 -21.89596,1.61371c-7.25056,0.11226 -22.04702,-0.93333 -22.04702,-0.93333c0,0 -1.92108,-0.57244 -2.81678,-0.87988z" fill="#434253" stroke="#000000" stroke-width="2.5"/><path d="M306.59659,282.07685c0,0 3.23545,-16.55371 5.33739,-30.5263c1.50254,-9.98814 2.07083,-18.56859 2.09142,-19.2474c0.15709,-5.17871 -0.37711,-9.6264 -0.00092,-14.89447c0.50457,-7.06602 1.1958,-11.58007 1.1958,-11.58007l2.12747,-1.24515c0,0 -1.19498,18.38091 -2.96857,35.7325c-0.74127,7.25212 -2.80838,22.50715 -3.80377,32.05655c-0.10938,1.04936 0.51143,2.42133 0.41165,3.37795c-0.55725,5.34269 -0.94516,6.33045 -0.94516,6.33045l-3.44531,-0.00408z" fill="#000000" stroke="none" stroke-width="0"/></g><g stroke="#000000" stroke-width="1.5"><path d="M330.91389,248.66445c6.79781,-0.60406 14.63313,6.58888 15.44623,14.9411c0.95328,9.79226 -4.99455,16.38589 -13.04707,17.16981c-8.05252,0.78393 -14.96156,-5.31863 -15.10374,-15.15615c-0.1584,-10.9599 5.91804,-16.35169 12.70457,-16.95475z" fill="#2c262f"/><path d="M324.45693,268.77549c-0.26887,-2.76192 1.33577,-5.13174 3.60699,-5.35284c2.27122,-0.2211 3.80952,1.27431 4.07839,4.03623c0.26888,2.76192 -1.40704,5.21323 -3.67826,5.43433c-2.27122,0.2211 -3.73824,-1.3558 -4.00711,-4.11772z" data-paper-data="{&quot;index&quot;:null}" fill="#1b171c"/></g><g stroke="#000000" stroke-width="1.5"><path d="M335.82825,213.84404c6.80856,-0.46759 14.3637,7.15725 14.84887,15.53492c0.56881,9.8221 -5.63284,16.17758 -13.70989,16.64533c-8.07705,0.46775 -14.74165,-5.90085 -14.49821,-15.73639c0.27122,-10.9577 6.54818,-15.97612 13.35924,-16.44387z" fill="#2c262f"/><path d="M328.58818,233.68658c-0.16044,-2.77032 1.53584,-5.07544 3.81398,-5.20737c2.27815,-0.13193 3.75665,1.42261 3.91709,4.19295c0.16044,2.77034 -1.61026,5.15409 -3.8884,5.28602c-2.27814,0.13193 -3.68224,-1.50126 -3.84268,-4.2716z" data-paper-data="{&quot;index&quot;:null}" fill="#1b171c"/></g></g><g data-paper-data="{&quot;index&quot;:null}" fill="#434253" stroke="#000000"><path d="M302.9364,282.15581c0,0 -39.39406,0.31655 -59.64769,0.31655c-21.72904,0 -66.6118,-0.31655 -66.6118,-0.31655c0,0 -4.38216,-25.00528 -4.16309,-53.75635c-0.46515,-31.11458 4.16309,-61.08575 4.16309,-61.08575c0,0 42.82931,-1.2662 64.39595,-1.2662c21.14461,0 59.33114,1.58275 59.33114,1.58275c0,0 7.99686,28.51433 7.2979,63.41059c-1.03994,32.54257 -4.76549,51.11495 -4.76549,51.11495z" stroke-width="2.5"/><path d="M182.1264,274.24782c1.29409,0 2.34316,0.94416 2.34316,2.10884c0,1.16468 -1.04906,2.10884 -2.34316,2.10884c-1.29409,0 -2.34316,-0.94416 -2.34316,-2.10884c0,-1.16468 1.04906,-2.10884 2.34316,-2.10884z" stroke-width="2"/><path d="M296.58667,273.61069c1.29409,0 2.34316,0.94416 2.34316,2.10884c0,1.16468 -1.04907,2.10884 -2.34316,2.10884c-1.29409,0 -2.34316,-0.94416 -2.34316,-2.10884c0,-1.16468 1.04907,-2.10884 2.34316,-2.10884z" stroke-width="2"/><path d="M292.33154,174.94761c-0.48529,-1.12251 0.08425,-2.44878 1.27209,-2.9623c1.18785,-0.51352 2.54417,-0.01985 3.02946,1.10266c0.48528,1.12251 -0.08426,2.44879 -1.2721,2.96231c-1.18785,0.51352 -2.54417,0.01984 -3.02946,-1.10267z" stroke-width="2"/><path d="M180.4176,171.55907c1.18784,-0.51352 2.54418,-0.01985 3.02946,1.10266c0.48528,1.12251 -0.08426,2.44879 -1.2721,2.96231c-1.18784,0.51352 -2.54417,0.01984 -3.02945,-1.10267c-0.48528,-1.12251 0.08425,-2.44878 1.27209,-2.9623z" stroke-width="2"/></g><g data-paper-data="{&quot;index&quot;:null}" stroke="#000000"><path d="M185.3853,208.8506c-2.45268,-6.65252 -2.23243,-25.16686 1.2238,-28.78372c9.15219,-9.57753 27.02753,-9.85708 50.03744,-9.85708c21.54137,0 42.40116,1.26301 52.15372,9.47437c4.59889,3.87212 4.25165,25.69054 0.6414,31.5768c-5.42101,8.83858 -21.3149,12.1266 -53.01425,12.1266c-31.69935,0 -47.51498,-4.62378 -51.04211,-14.19061z" fill="#434253" stroke-width="2"/><path d="M189.64677,207.2085c-2.26436,-5.8977 -2.06104,-22.3113 1.12983,-25.51776c8.4495,-8.4908 24.95241,-8.08126 46.19565,-8.08126c19.88746,0 39.14569,0.46232 48.14946,7.74198c4.2458,3.43277 3.92522,22.77555 0.59215,27.99392c-5.0048,7.83571 -19.67838,9.87414 -48.94391,9.87414c-29.26554,0 -43.86686,-3.5297 -47.12319,-12.01102z" fill="#2c262f" stroke-width="1.5"/><path d="M215.90007,204.08267c-0.88175,-2.5127 -0.80256,-9.50567 0.43998,-10.87178c3.29029,-3.6175 9.71661,-4.38046 17.98885,-4.38046c7.74429,0 15.24354,1.13441 18.74966,4.2359c1.65334,1.46252 1.5285,9.70347 0.23059,11.92675c-1.94889,3.33838 -7.66286,4.79941 -19.05903,4.79941c-11.39616,0 -17.08201,-1.9232 -18.35003,-5.53664z" fill="#1b171c" stroke-width="1.5"/></g><g data-paper-data="{&quot;index&quot;:null}" stroke="#000000"><path d="M185.3853,265.23479c-2.45268,-6.65252 -2.23243,-25.16686 1.2238,-28.78371c9.15219,-9.57753 27.02753,-9.85709 50.03744,-9.85709c21.54137,0 42.40116,1.26301 52.15372,9.47437c4.59889,3.87213 4.25165,25.69054 0.6414,31.5768c-5.42101,8.83858 -21.3149,12.1266 -53.01425,12.1266c-31.69935,0 -47.51498,-4.62379 -51.04211,-14.19062z" fill="#434253" stroke-width="2"/><path d="M189.64677,263.59268c-2.26436,-5.8977 -2.06104,-22.3113 1.12983,-25.51776c8.4495,-8.4908 24.95241,-8.08127 46.19565,-8.08127c19.88746,0 39.14569,0.46232 48.14946,7.74198c4.2458,3.43277 3.92522,22.77556 0.59215,27.99393c-5.0048,7.83571 -19.67838,9.87414 -48.94391,9.87414c-29.26554,0 -43.86686,-3.5297 -47.12319,-12.01102z" fill="#2c262f" stroke-width="1.5"/><path d="M215.90007,260.46685c-0.88175,-2.51269 -0.80256,-9.50566 0.43998,-10.87177c3.29029,-3.6175 9.71661,-4.38046 17.98885,-4.38046c7.74429,0 15.24354,1.13441 18.74966,4.2359c1.65334,1.46252 1.5285,9.70346 0.23059,11.92674c-1.94889,3.33838 -7.66286,4.79941 -19.05903,4.79941c-11.39616,0 -17.08201,-1.9232 -18.35003,-5.53665z" fill="#1b171c" stroke-width="1.5"/></g><path d="M250.64545,155.11171l-6.4,-17.3l6.1,-3.1c0,0 4.06032,1.97305 5.10153,3.81235c0.73268,1.29428 1.87972,3.39995 2.9215,6.27931c0.45017,1.24425 0.51804,3.03297 0.99395,4.56313c1.03664,3.33308 5.1858,6.17585 6.77721,9.39747c0.7268,1.47131 1.31005,2.774 1.22277,4.36513c-0.058,1.0576 -0.18898,2.46591 -1.58259,3.3242c-2.36673,1.45762 -6.33438,-0.54158 -6.33438,-0.54158z" data-paper-data="{&quot;index&quot;:null}" fill="#fb95a9" stroke="#000000" stroke-width="2"/><g data-paper-data="{&quot;index&quot;:null}"><path d="M229.73004,132.29254c2.41131,-2.95149 10.53162,-0.25987 12.59919,3.86227c0.26008,0.51854 1.70637,-0.66733 5.40284,0.98163c0.86997,0.38809 5.3323,2.85511 7.98427,6.04894c1.26983,1.52929 2.1246,3.99593 1.97118,5.03194c-0.22905,2.80784 -2.67033,5.18657 -4.85989,7.14774c-2.87249,2.57284 1.75248,7.33006 -2.40533,7.33006c-3.03121,0 -16.54137,0.60747 -18.69314,-0.7284c-1.28409,-0.79719 -0.53199,-7.61244 -0.88049,-9.01861c-0.48674,-1.96396 -4.99822,-4.40189 -4.99822,-6.61256c0,-2.58633 2.29137,-12.099 3.87959,-14.04301z" fill="#ee1536" stroke="#000000" stroke-width="2"/><path d="M245.84203,152.48165c0,-3.14019 3.56399,-6.94934 7.26523,-7.10728c3.22449,-0.13759 3.97211,2.15654 3.0535,5.15937c-1.10558,3.61402 -4.40634,5.42259 -7.63376,5.42259c-0.06272,0 2.08362,-1.58996 2.84464,-0.28992c1.01358,1.73146 0.66979,6.51156 0.03616,6.86773c-2.98614,1.67855 -13.402,-0.74155 -16.31172,-0.67209c-0.60085,0.01435 -2.90823,0.59035 -3.45604,-1.26733c-0.44915,-1.5231 0.38106,-5.65028 0.34354,-5.65555c-0.60286,-0.08461 -1.36799,-4.06688 -1.36799,-4.06688c0,0 -2.86476,-2.27685 -2.9505,-2.85725c-0.15338,-1.03828 2.10836,-2.8435 2.10836,-2.8435c0,0 1.25189,1.00644 1.97555,1.57762c0.66583,0.52553 1.57561,2.98741 1.57561,2.98741c0,0 4.12841,-5.5717 8.29185,-4.21031c5.58397,1.82588 4.22558,7.21129 4.22558,6.95539z" fill="#9a1652" stroke="none" stroke-width="0"/><path d="M232.35237,161.47162c0.86132,-1.55025 8.52088,-5.58592 9.70316,-7.17085c2.60911,-3.4977 4.57621,-6.08348 4.57621,-6.08348c0,0 0.91108,5.32297 -0.66029,9.58239c-1.16307,3.15265 6.61433,5.47453 5.8723,5.47453c-1.74455,0 -20.27813,-0.38656 -19.49138,-1.80259z" fill="#000000" stroke="none" stroke-width="0"/></g><g data-paper-data="{&quot;index&quot;:null}"><path d="M225.82955,161.82996c0,0 -0.10533,3.29474 -3.77134,3.78674c-0.87652,0.11764 -2.46232,-0.74754 -3.42091,-1.93539c-0.83904,-1.0397 -0.89738,-2.13036 -0.83698,-2.90249c0.23953,-3.062 0.77506,-8.1912 1.34767,-13.15387c0.71198,-6.17054 0.94712,-13.70726 1.9788,-16.01158c0.26615,-0.59446 1.11871,0.35946 1.41707,0.35946c1.31105,0 1.90189,0.58328 3.5572,1.82908c2.82331,2.12484 6.56145,5.90426 6.44279,10.02806c-0.14837,5.15614 -6.71429,18 -6.71429,18z" fill="#ffd5d5" stroke="#000000" stroke-width="2"/><path d="M222.08228,164.60174c-1.42815,0.13668 -2.69039,-0.7987 -3.2536,-2.09724c-1.35546,-3.12516 1.08026,-11.73801 1.08026,-11.73801l8.09524,9.11111l-1.77778,2.80953c0,0 -2.07406,1.71649 -4.14412,1.91461z" fill="#fb95a9" stroke="none" stroke-width="0"/></g><g data-paper-data="{&quot;index&quot;:null}"><path d="M255.19958,185.92557c-1.00101,-2.204 -1.48204,-4.3489 -0.72825,-4.96606c2.33239,-1.90961 13.28484,-2.98899 13.38878,-2.98899c6.31528,0 14.84633,4.70166 14.84633,7.42317c0,2.15815 -5.66177,5.08636 -11.867,4.87772c-9.17694,-0.30857 -12.61375,-4.42959 -12.80984,-4.64776c-0.77835,-0.86597 0.94691,1.54978 1.61014,2.51138c0.76014,1.10213 2.09503,1.87099 1.91005,2.94778c-0.21138,1.23048 -1.04517,0.91066 -1.93413,0.37576c-1.07219,-0.64516 -2.75079,-1.86638 -4.41608,-5.533z" fill="#ee1536" stroke="#000000" stroke-width="1.5"/><path d="M224.16344,168.58485c0,-3.59654 1.88208,-6.79388 5.00437,-9.12732c4.14737,-3.09953 10.28977,-4.77137 15.23297,-4.77137c5.31995,0 12.36793,-0.19935 14.37465,2.09274c0.5447,0.62216 0.11605,3.35746 0.47021,5.96384c0.20355,1.49801 1.01152,5.12835 2.06489,8.05201c0.76659,2.12772 1.6857,4.5633 2.81912,4.87357c4.6996,1.28652 11.33458,3.83886 9.65309,6.39177c-1.27777,1.93997 -8.71321,2.17386 -14.6326,0.37436c-5.32793,-1.61969 -9.13974,-5.17457 -11.08352,-5.65964c-3.29754,-0.8229 -10.29591,1.43415 -13.65474,0.96798c-2.18858,-0.30375 -4.10262,-1.02669 -5.53901,-1.79684c-3.55989,-1.90871 -4.7094,-5.13615 -4.7094,-7.3611z" fill="#ffd5d5" stroke="#000000" stroke-width="1.5"/><path d="M254.40497,164.88252c0,0 1.5473,-1.13661 2.20683,-1.84011c0.59795,-0.63781 1.58373,-2.20314 1.58373,-2.20314c0,0 0.47515,2.43192 0.69523,3.67533c0.19897,1.12418 0.56829,3.46354 0.56829,3.46354c0,0 -2.16472,-0.56777 -3.07746,-1.12683c-0.7315,-0.44803 -1.97661,-1.96878 -1.97661,-1.96878z" fill="#fb95a9" stroke="none" stroke-width="0"/><path d="M275.08882,181.84436c0.16969,-0.35395 1.67522,-0.13645 2.97302,0.48578c1.2978,0.62223 2.68613,2.36122 2.51643,2.71517c-0.1697,0.35394 -1.51728,-1.12707 -2.81508,-1.7493c-1.29779,-0.62223 -2.84406,-1.0977 -2.67436,-1.45165z" fill="#fc9ea5" stroke="none" stroke-width="0"/></g><g data-paper-data="{&quot;index&quot;:null}"><path d="M231.01662,189.91844c2.5441,-6.35721 7.6863,-8.12709 12.34285,-6.26357c4.65656,1.86351 6.54811,7.90162 4.004,14.25883c-2.5441,6.35722 -11.22418,11.88722 -14.69074,10.29339c-3.43224,-1.57805 -4.378,-11.60389 -1.83389,-17.9611z" fill="#ee1536" stroke="#000000" stroke-width="1.5"/><path d="M233.5181,187.14081c0,0 2.00422,-2.86118 4.30555,-3.50609c0.77193,-0.21631 4.08674,0.23689 6.56763,1.86017c1.68622,1.10331 2.8021,3.19439 3.19142,4.24588c0.67057,1.81111 0.10967,3.76134 0.10967,3.76134c0,0 -1.81828,1.66589 -5.43619,1.54424c-1.90251,-0.06397 -4.61734,-2.13774 -6.33064,-4.2466c-1.54479,-1.90145 -2.40744,-3.65892 -2.40744,-3.65892z" fill="#9a1652" stroke="none" stroke-width="0"/><path d="M237.96927,177.35229c0.55432,-7.08643 2.21505,-10.84502 10.62649,-10.5467c4.91806,0.17442 6.52345,5.86357 6.20118,8.26798c-1.07822,8.0444 -9.74893,15.13352 -9.74893,15.13352c0,0 1.38491,8.01261 -6.9327,9.02219c-4.06733,0.49369 -4.09452,-6.52097 -3.42123,-8.22854c1.22234,-3.10001 3.42075,-4.916 3.42075,-4.916c0,0 -0.3919,-5.5836 -0.14558,-8.73245z" fill="#ffd5d5" stroke="#000000" stroke-width="1.5"/><path d="M245.10261,178.70961c-0.98594,-0.64 -1.21165,-1.61216 -1.54278,-2.57662c-0.39958,-1.16379 -0.68288,-4.079 -0.68288,-4.079c0,0 1.88781,1.43735 2.95744,2.05164c1.0526,0.6045 3.57324,1.45269 3.57324,1.45269c0,0 -1.55297,2.41034 -2.26572,2.89984c-0.66241,0.45494 -1.05335,0.89143 -2.03929,0.25145z" fill="#fb95a9" stroke="none" stroke-width="0"/><path d="M235.86951,205.37274c-0.64171,-0.03296 1.51192,-1.05037 2.3367,-1.53259c0.91489,-0.5349 2.82616,-2.37563 2.86295,-2.00666c0.07441,0.74608 -1.44675,2.17702 -2.28268,2.66576c-0.90726,0.53045 -1.82762,0.92947 -2.91696,0.87351z" fill="#fc9ea5" stroke="none" stroke-width="0"/></g><g data-paper-data="{&quot;index&quot;:null}"><path d="M246.02798,157.78236c0,-2.4546 1.96334,-5.88889 4.11111,-5.88889c2.14777,0 3,1.98985 3,4.44445c0,2.4546 -1.74112,4.44445 -3.88889,4.44445c-2.14778,0 -3.22222,-0.5454 -3.22222,-3z" fill="#fb95a9" stroke="#000000" stroke-width="2"/><path d="M266.53711,161.0711c-0.43234,0.83498 -1.44468,1.52809 -2.11753,1.92896c-0.26359,0.15704 -1.43777,0.25056 -2.22874,0.30184c-0.72193,0.0468 -1.45759,-0.39347 -1.45759,-0.39347c0,0 -0.89624,0.43585 -1.22625,0.42821c-0.98223,-0.02273 -1.96314,-0.06241 -2.66226,-0.09436c-0.60593,-0.02769 -1.00018,-0.3829 -1.00018,-0.3829c0,0 0.03936,0.74167 0.05095,1.36234c0.00806,0.43162 -0.10843,0.97251 -0.14981,1.55354c-0.12854,1.80484 -0.49341,3.99699 -1.99352,4.50433c-0.35014,0.11841 -2.18088,0.07726 -2.56057,-0.00265c-2.67661,-0.56335 -2.2783,-5.57902 -2.12244,-10.05008c0.09692,-2.78032 0.17445,-5.81899 0.32796,-6.36568c0.18827,-0.67044 0.07376,-1.738 0.99423,-2.73994c1.35148,-2.21457 5.97338,-2.22778 6.89853,-2.22778c1.6218,0 7.42333,1.43853 9.38663,6.26648c0.65516,1.61111 0.80031,4.09626 -0.13941,5.91116z" fill="#ffd5d5" stroke="#000000" stroke-width="2"/><path d="M252.55972,168.32602c-2.17395,0.07143 -1.78572,-2.5 -1.78572,-2.5h3.21429c0,0 0.31615,2.44268 -1.42857,2.5z" fill="#ee406b" stroke="none" stroke-width="0"/></g><g data-paper-data="{&quot;index&quot;:null}"><path d="M236.66521,151.89347c2.14777,0 4.11111,3.43429 4.11111,5.88889c0,2.4546 -1.07445,3 -3.22222,3c-2.14777,0 -3.88889,-1.98985 -3.88889,-4.44445c0,-2.4546 0.85223,-4.44445 3,-4.44445z" fill="#fb95a9" stroke="#000000" stroke-width="2"/><path d="M220.26718,161.07111c-0.93971,-1.8149 -0.79457,-4.30005 -0.1394,-5.91116c1.96331,-4.82795 7.76483,-6.26648 9.38663,-6.26648c0.92515,0 5.54706,0.01322 6.89854,2.22778c0.92047,1.00194 0.80596,2.06951 0.99423,2.73994c0.15352,0.5467 0.23104,3.58536 0.32796,6.36568c0.15585,4.47105 0.55417,9.48673 -2.12244,10.05008c-0.37969,0.07992 -2.21043,0.12107 -2.56057,0.00265c-1.50011,-0.50734 -1.86499,-2.69948 -1.99352,-4.50433c-0.04138,-0.58103 -0.15786,-1.12192 -0.1498,-1.55354c0.01159,-0.62067 0.05095,-1.36234 0.05095,-1.36234c0,0 -0.39425,0.35521 -1.00018,0.3829c-0.69912,0.03195 -1.68002,0.07163 -2.66226,0.09436c-0.33001,0.00764 -1.22626,-0.42821 -1.22626,-0.42821c0,0 -0.73565,0.44027 -1.45759,0.39347c-0.79097,-0.05128 -1.96515,-0.1448 -2.22874,-0.30184c-0.67286,-0.40087 -1.68519,-1.09398 -2.11753,-1.92896z" fill="#ffd5d5" stroke="#000000" stroke-width="2"/><path d="M232.81601,165.82602h3.21429c0,0 0.38823,2.57143 -1.78572,2.5c-1.74472,-0.05732 -1.42857,-2.5 -1.42857,-2.5z" fill="#ee406b" stroke="none" stroke-width="0"/></g><g data-paper-data="{&quot;index&quot;:null}"><g><path d="M255.18985,122.35998c-0.00192,-3.66356 2.44168,-6.6347 5.45794,-6.63622c3.01626,-0.00152 5.46298,2.96714 5.46489,6.6307c0.00191,3.66356 -2.44171,6.63471 -5.45797,6.63623c-3.01626,0.00153 -5.46296,-2.96713 -5.46487,-6.63069z" fill="#fb95a9" stroke="#000000" stroke-width="2"/><path d="M241.01118,138.31187c-25.4247,-3.68303 -28.15692,-6.53205 -29.88377,-16.62494c-1.72685,-10.0929 13.19419,-11.09158 27.71656,-13.49375c14.52238,-2.40219 22.02172,-4.25795 23.74856,5.83496c0.28169,1.64645 -1.29409,11.75898 -1.29409,11.75898c0,0 8.01273,4.05675 7.19512,8.04761c-0.89742,4.30749 -17.86488,5.87033 -27.48237,4.47715z" fill="#ffd5d5" stroke="#000000" stroke-width="2"/><path d="M213.15849,114.51761c0,0 26.92692,-8.47621 33.14481,-9.50472c11.78121,-1.94876 14.60433,4.24505 15.40887,8.94743c0.35139,2.05388 -1.24813,10.46615 -1.24813,10.46615c0,0 -4.01665,-5.2873 -6.18597,-6.55871c-2.47086,-1.44813 -7.64146,-1.70395 -7.64146,-1.70395l-5.7193,7.00195l-6.88547,-7.2718c0,0 -2.8968,5.56144 -5.21099,7.82563c-2.46749,2.41416 -9.16362,6.23831 -9.16362,6.23831l-4.09145,-0.25522c0,0 -3.16639,-4.93406 -3.57534,-7.51376c-0.39284,-2.47791 1.16806,-7.67136 1.16806,-7.67136z" fill="#fb95a9" stroke="none" stroke-width="0"/><path d="M204.77749,125.19311c-0.53966,-3.15402 -0.73946,-3.82824 0.9948,-5.60994c1.39037,-1.42838 8.21853,2.33747 8.75817,5.4915c0.53966,3.15402 0.07428,6.2873 -1.9087,6.61531c-1.98299,0.328 -7.19803,-2.71983 -7.84428,-6.49688z" fill="#ffd5d5" stroke="#000000" stroke-width="2.5"/><path d="M212.58519,130.84182c-0.70772,0.11705 -3.51189,-0.91459 -4.81453,-2.43863c-0.81324,-0.95145 -1.34788,-2.21643 -1.69014,-3.32131c-0.4197,-1.35496 0.52539,-2.13704 1.88999,-1.61317c2.28238,0.87619 5.37361,2.28874 5.59468,3.58071c0.35322,2.06446 0.71135,3.5126 -0.98001,3.79238z" fill="#fb95a9" stroke="none" stroke-width="0"/><path d="M207.62574,122.80009c-0.10794,-0.63081 6.55728,5.3217 6.55728,5.3217l-0.61189,2.77052c0,0 -5.83745,-7.46142 -5.94538,-8.09225z" fill="#000000" stroke="none" stroke-width="0"/><path d="M211.68874,131.85888c-0.54332,-1.79086 0.94903,-3.50112 3.04251,-4.0518c2.09345,-0.55066 4.38366,-1.33619 5.53284,1.67103c0.20229,0.52936 1.43216,4.00978 -0.00086,5.87143c-0.22337,0.29018 -1.53529,1.42706 -2.94857,1.70691c-1.95175,0.38649 -3.19534,0.0219 -3.19534,0.0219c0,0 2.11563,-1.90445 1.88303,-2.0357c-0.74181,-0.41858 -3.85713,-1.6791 -4.31363,-3.18376z" fill="#6d0f0a" stroke="#000000" stroke-width="2"/><path d="M198.52816,131.35549c-7.60609,-3.41023 -10.442,-7.24531 -10.442,-7.24531c0,0 6.74152,-0.95469 8.83676,-3.26139c2.11197,-2.32515 3.57212,-11.88054 3.57212,-11.88054c0,0 23.47912,-1.57845 33.31811,-3.20594c9.11079,-1.50701 17.10806,-2.80534 22.96702,-3.74896c6.36808,-1.02561 12.23913,1.20179 13.62641,5.98789c0.34333,1.18442 0.80474,2.77969 1.00334,4.14245c0.90778,6.22885 -0.86182,12.10286 -0.86182,12.10286c0,0 -6.02717,-7.03828 -8.92484,-10.07298c-3.58378,-3.75322 -9.2452,-6.88553 -9.2452,-6.88553c0,0 -0.48993,3.97751 -1.86093,6.64688c-1.41922,2.76323 -4.63585,2.97103 -4.63585,2.97103c0,0 -0.57966,-3.13564 -1.34778,-4.52608c-0.70707,-1.27995 -2.01733,-3.69358 -1.95665,-2.52235c0.06102,1.1782 -0.18845,4.02327 -0.26914,5.41838c-0.2089,3.61082 -0.7272,4.14979 -0.7272,4.14979c0,0 -2.21212,-2.99748 -4.41747,-5.7865c-1.87513,-2.3714 -4.64415,-3.52602 -4.64415,-3.52602c0,0 -4.2451,5.01578 -6.74808,7.12988c-2.26105,1.90978 -7.23511,4.94073 -7.23511,4.94073c0,0 3.15184,7.80975 -0.94677,7.88018c-2.89676,0.04978 -4.19441,-0.32585 -5.84244,-1.36297c-0.988,-0.62175 -1.592,-3.56285 -1.592,-3.56285l2.17203,0.30409c0,0 -1.94225,-6.05123 -3.3349,-6.25984c-2.45213,-0.3673 -0.68781,-0.87408 -4.18805,-0.20678c-0.50948,0.09713 -1.55996,3.26865 -1.01705,6.05838c0.58288,2.99506 2.78211,5.61915 2.78211,5.61915c0,0 -4.32606,2.36775 -8.04042,0.70238z" fill="#6d0f0a" stroke="#000000" stroke-width="1.5"/><path d="M245.43291,106.89167c-0.98354,0.16269 -2.43674,-0.75692 -4.44201,-0.56867c-2.1725,0.20393 -4.90612,1.51768 -6.03439,1.74341c-16.29516,3.26052 -34.35784,7.30084 -34.35784,7.30084c0,0 0.36734,-2.67305 0.24147,-3.94012c-0.13445,-1.3537 -0.70732,-3.99184 -0.70732,-3.99184c0,0 22.52044,-0.89463 35.72039,-3.07805c8.46999,-1.40105 17.33782,-3.21684 23.03625,-3.35939c6.03385,-0.15096 9.09926,1.34076 9.09926,1.34076l2.0128,6.66644l-2.65309,-0.26429l-7.14209,-5.40686c0,0 -10.26192,2.81148 -14.77345,3.55775z" fill="#6d0f0a" stroke="none" stroke-width="0"/><path d="M238.47773,134.91211c-1.26273,0.03421 -2.35877,-0.4854 -2.92719,-1.57806c-0.64125,-1.2327 -1.4673,-2.26895 -1.36611,-2.48952c0.15571,-0.33941 10.17161,0.70238 10.2531,1.08534c0.07777,0.3654 -1.13552,1.36191 -2.75939,2.35348c-0.91496,0.55867 -3.20041,0.62876 -3.20041,0.62876z" fill="#ef3d61" stroke="#000000" stroke-width="1.5"/><path d="M244.17639,123.11208c-0.3277,-1.91534 -0.2934,-5.29058 2.50497,-6.86304c0.50243,-0.28235 1.73429,-0.37266 3.13077,-0.14165c1.43135,0.23677 2.68466,0.81399 3.0456,0.95043c0.71306,0.26957 2.59747,0.54469 2.59747,0.54469c0,0 0.83061,0.10578 1.46859,-0.48215c0.53559,-0.49357 1.13193,-1.22158 1.13193,-1.22158c0,0 0.16007,-0.26159 -0.80962,1.48857c-0.39957,0.7212 -1.35045,0.94317 -1.35045,0.94317c0,0 0.61049,1.08643 1.7599,0.70778c0.86339,-0.28441 1.99984,-0.97878 1.99984,-0.97878c0,0 0.02126,-0.06463 -0.56999,0.74951c-0.40828,0.56218 -0.95025,1.21617 -0.95025,1.21617l-0.07853,1.03791c0,0 -1.76089,-1.62361 -2.61713,-1.9233c-0.69232,-0.24232 -2.28183,0.15682 -2.28183,0.15682c0,0 0.96703,6.88019 -3.94976,7.56538c-3.83364,0.53424 -4.49182,-0.59592 -5.03146,-3.74994z" fill="#000000" stroke="#000000" stroke-width="1"/><path d="M221.79491,118.74003c-0.62529,-0.65484 -1.67811,-1.42845 -1.67811,-1.42845c0,0 1.99926,0.28946 2.95668,0.75292c0.88114,0.42654 2.26669,0.27702 2.26669,0.27702c0,0 -0.43462,-0.69928 -0.87139,-1.42888c-0.45552,-0.76093 -1.89128,-2.18976 -1.89128,-2.18976c0,0 2.1061,0.78113 2.84521,1.30282c0.70682,0.49891 2.34358,1.1347 2.34358,1.1347c0,0 2.59271,-0.47785 4.30191,-0.76056c1.93173,-0.31953 3.44768,0.43449 4.79936,0.88951c1.77902,0.59888 3.11073,1.00525 3.11073,1.00525c0,0 -2.5455,-0.2698 -3.43028,-0.33344c-0.62848,-0.04524 -1.35381,0.12593 -1.35381,0.12593c0,0 1.58776,7.59013 -4.79121,8.71646c-5.22472,0.92253 -4.95948,-5.4747 -5.22534,-5.8221c-0.1926,-0.25168 -1.2299,-0.98246 -1.2299,-0.98246c0,0 -1.57804,-0.65703 -2.15283,-1.25896z" fill="#000000" stroke="#000000" stroke-width="1"/></g><path d="M269.56115,107.06409c0,0 -0.78967,-2.653 -1.28818,-3.97065c-0.47671,-1.26 -1.64051,-3.77001 -1.64051,-3.77001c0,0 1.18402,0.52182 2.14583,2.73911c0.6286,1.44915 2.19509,5.21862 2.19509,5.21862z" fill="#000000" stroke="none" stroke-width="0"/></g></g></g></svg>