<svg version="1.1" xmlns="http://www.w3.org/2000/svg" xmlns:xlink="http://www.w3.org/1999/xlink" width="173" height="208" viewBox="0,0,173,208"><defs><radialGradient cx="265.21897" cy="143.72475" r="43.87922" gradientUnits="userSpaceOnUse" id="color-1"><stop offset="0" stop-color="#8f8256"/><stop offset="1" stop-color="#8d681f"/></radialGradient><radialGradient cx="266.18598" cy="150.23793" r="18.68929" gradientUnits="userSpaceOnUse" id="color-2"><stop offset="0" stop-color="#0c0b0b"/><stop offset="1" stop-color="#533907"/></radialGradient><radialGradient cx="293.44212" cy="141.46559" r="15.62237" gradientUnits="userSpaceOnUse" id="color-3"><stop offset="0" stop-color="#36270c"/><stop offset="1" stop-color="#0c0b0b"/></radialGradient><radialGradient cx="237.46501" cy="148.13895" r="15.62237" gradientUnits="userSpaceOnUse" id="color-4"><stop offset="0" stop-color="#36270c"/><stop offset="1" stop-color="#0c0b0b"/></radialGradient></defs><g transform="translate(-153.5,-76)"><g data-paper-data="{&quot;isPaintingLayer&quot;:true}" fill-rule="nonzero" stroke-linejoin="miter" stroke-miterlimit="10" stroke-dasharray="" stroke-dashoffset="0" style="mix-blend-mode: normal"><g data-paper-data="{&quot;index&quot;:null}"><g data-paper-data="{&quot;index&quot;:null}"><path d="M222.51528,175.51077c-0.96749,-3.32515 10.05333,-17.14476 12.51766,-17.42843c2.67834,-0.3083 13.48871,11.54301 13.48871,11.54301l-1.91152,3.30795l12.24641,-22.11432c0,0 3.84439,-7.8508 5.83587,-6.43683c0,0 11.8502,1.85897 25.90976,16.53947c-1.77121,5.24554 -10.03424,15.16057 -10.03424,15.16057c0,0 -17.32763,22.86543 -22.39121,22.47206c-5.06352,-0.39334 -34.75351,-19.92322 -35.66141,-23.04351z" fill="#68330c" stroke="none" stroke-width="3" stroke-linecap="round"/><path d="M258.85381,150.48364c0,0 4.74629,-7.22713 6.68549,-5.80851c0,0 11.63061,1.99379 25.25567,16.63037c-0.97823,2.76711 -3.82954,6.84158 -6.25128,10.01101c-0.43493,-0.31453 -0.83569,-0.59106 -1.16728,-0.81647c-7.34976,-4.99621 -18.04223,-11.12567 -25.83334,-16.8392c-0.07721,-0.05663 1.31076,-3.17721 1.31076,-3.17721z" fill="#ffddb7" stroke="#000000" stroke-width="2" stroke-linecap="butt"/><path d="M258.59339,152.77983l26.18494,17.95293l-2.27457,2.98739l-26.06109,-17.52145z" data-paper-data="{&quot;index&quot;:null}" fill="#ffffff" stroke="#000000" stroke-width="2" stroke-linecap="round"/><path d="M222.75714,175.43366c-0.96748,-3.32513 10.05332,-17.14474 12.51765,-17.42841c2.67832,-0.3083 13.4887,11.543 13.4887,11.543l-1.91152,3.30796l12.2464,-22.11433c0,0 3.84438,-7.85081 5.83585,-6.43684c0,0 11.85019,1.85897 25.90975,16.53947c-1.77122,5.24555 -10.03422,15.16059 -10.03422,15.16059c0,0 -17.32763,22.86541 -22.39121,22.47204c-5.06351,-0.39334 -34.75351,-19.92322 -35.66141,-23.04351z" data-paper-data="{&quot;origPos&quot;:null}" fill="none" stroke="#000000" stroke-width="2.5" stroke-linecap="round"/></g><g stroke-linecap="butt"><path d="M282.13923,109.72106c0,0 1.31825,6.79976 -2.42517,7.23799c-1.15485,0.1352 -6.60937,2.44281 -9.48619,0.93287c-1.41826,-0.74439 2.63361,-4.5922 -0.52377,-8.44739c-0.66914,-0.81705 -17.48358,0.27556 -17.11011,3.41748c1.34476,11.31321 -3.61683,6.87368 -4.29491,7.15467c-8.94603,3.70723 -7.32022,-5.47694 -7.32022,-5.47694l-0.94481,-8.07067l41.16037,-4.81864z" fill="#8c651a" stroke="#000000" stroke-width="2.5"/><g stroke="#000000"><path d="M224.15324,170.22404l-5.87675,-50.19864l87.16317,-10.20415l5.87673,50.19861z" fill="#121010" stroke-width="3"/><path d="M224.57575,173.92614l-5.87674,-50.19863l87.16318,-10.20415l5.87674,50.19865z" fill="url(#color-1)" stroke-width="2.5"/></g><path d="M256.85843,170.14681l-4.34621,-37.12504l23.00137,-2.69274l4.34621,37.12505z" fill="url(#color-2)" stroke="#000000" stroke-width="2.5"/><path d="M278.00591,143.35621c-0.74885,-8.60075 5.55514,-16.41933 14.08028,-17.46346c8.52522,-1.04417 16.04333,5.08166 16.7922,13.6823c0.74886,8.60073 -5.55516,16.41931 -14.0803,17.46345c-8.52522,1.04413 -16.04334,-5.08167 -16.79219,-13.68234z" fill="url(#color-3)" stroke="none" stroke-width="0"/><path d="M222.02875,150.02958c-0.74886,-8.60071 5.55516,-16.41931 14.0803,-17.46345c8.52517,-1.04414 16.04333,5.08167 16.79219,13.68232c0.74885,8.6007 -5.55516,16.41929 -14.0803,17.46345c-8.52517,1.04411 -16.0433,-5.08169 -16.79216,-13.68235z" fill="url(#color-4)" stroke="none" stroke-width="0"/></g></g><path d="M233.73691,263.06581c0,0 0.2887,4.45905 -1.14476,6.51483c-1.09731,1.57379 -3.46556,1.89383 -5.71187,2.08463c-6.16582,0.52374 -11.85706,-1.56534 -21.40251,-2.66883c-2.59974,-0.30054 -3.51048,-3.51693 -2.96588,-5.56513c0.50939,-1.9157 1.54213,-5.2209 1.54213,-5.2209l9.47649,-32.10779c0,0 1.39717,-4.12499 3.67381,-4.63186c5.48249,-1.22057 10.76591,0.84377 16.43646,1.24078c1.92167,0.13453 1.21788,4.88432 1.21788,4.88432z" fill="#000000" stroke="#000000" stroke-width="3" stroke-linecap="round"/><path d="M236.23833,226.30424c0,0 -0.33071,-4.88767 1.50756,-4.93159c5.42441,-0.12961 10.59944,-1.98177 15.72942,-0.46766c2.13026,0.62876 3.16534,4.91176 3.16534,4.91176l6.7261,33.26975c0,0 0.74685,3.42759 1.09484,5.40989c0.37208,2.11945 -0.72414,5.36164 -3.21953,5.54217c-9.16217,0.66283 -14.72705,2.52047 -20.55705,1.68511c-2.12395,-0.30434 -4.35471,-0.74663 -5.28659,-2.40821c-1.21729,-2.17042 -0.62434,-6.71274 -0.62434,-6.71274z" fill="#000000" stroke="#000000" stroke-width="3" stroke-linecap="round"/><g data-paper-data="{&quot;index&quot;:null}" stroke="#000000"><path d="M213.44364,180.773c0,0 1.95432,-14.10291 4.32547,-14.65149c3.79022,-0.87694 10.20601,-0.77303 17.00254,-0.68228c5.95911,0.07957 12.21093,0.05475 17.24239,0.62071c1.95148,0.2195 3.31028,14.20429 3.31028,14.20429l1.59902,27.40816c0,0 0.62539,16.60936 -1.20761,16.60936c-16.31716,0 -35.44195,0.85378 -42.71487,0.0117c-2.42429,-0.28068 -1.51427,-16.05999 -1.51427,-16.05999z" fill="#68330c" stroke-width="2.5" stroke-linecap="round"/><g><g><path d="M227.58904,165.44849h20.41042v8.70022c-0.31153,1.21913 -0.55139,2.22085 -0.69004,2.73538c-1.36219,5.05563 -9.2376,25.75294 -9.93914,29.19149c-3.37509,-10.49757 -6.61904,-21.15505 -9.78125,-31.84622z" fill="#ffffff" stroke-width="2" stroke-linecap="butt"/><path d="M233.05366,166.32469h9.14544v2.2044c-0.13959,0.29643 -4.25306,6.83789 -4.56741,7.67398c-1.51231,-2.55247 -3.16112,-5.116 -4.57803,-7.71554z" fill="#ffddb7" stroke-width="1.5" stroke-linecap="butt"/><path d="M237.42715,202.16148l0.37859,-26.21634" fill="none" stroke-width="1.5" stroke-linecap="round"/><path d="M237.51023,223.70856v-18.14977" fill="none" stroke-width="2" stroke-linecap="round"/><path d="M238.22678,179.00865c0,-0.27651 0.24603,-0.50069 0.54951,-0.50069c0.30348,0 0.5495,0.22417 0.5495,0.50069c0,0.27651 -0.24602,0.50068 -0.5495,0.50068c-0.30348,0 -0.54951,-0.22416 -0.54951,-0.50068z" fill="#000000" stroke-width="0.5" stroke-linecap="butt"/><path d="M238.10467,185.01686c0,-0.27651 0.24602,-0.50068 0.5495,-0.50068c0.30348,0 0.54951,0.22416 0.54951,0.50068c0,0.27651 -0.24603,0.50069 -0.54951,0.50069c-0.30348,0 -0.5495,-0.22417 -0.5495,-0.50069z" fill="#000000" stroke-width="0.5" stroke-linecap="butt"/><path d="M238.08357,191.02507c0,-0.27651 0.24603,-0.50069 0.54951,-0.50069c0.30348,0 0.5495,0.22417 0.5495,0.50069c0,0.27651 -0.24602,0.50069 -0.5495,0.50069c-0.30348,0 -0.54951,-0.22417 -0.54951,-0.50069z" fill="#000000" stroke-width="0.5" stroke-linecap="butt"/><path d="M238.60901,221.06607c0,-0.27651 0.24602,-0.50068 0.5495,-0.50068c0.30348,0 0.54951,0.22416 0.54951,0.50068c0,0.27651 -0.24603,0.50069 -0.54951,0.50069c-0.30348,0 -0.5495,-0.22417 -0.5495,-0.50069z" fill="#000000" stroke-width="0.5" stroke-linecap="butt"/><path d="M238.34369,214.94659c0,-0.27651 0.24603,-0.50068 0.54951,-0.50068c0.30348,0 0.54951,0.22416 0.54951,0.50068c0,0.27651 -0.24603,0.50069 -0.54951,0.50069c-0.30348,0 -0.54951,-0.22417 -0.54951,-0.50069z" fill="#000000" stroke-width="0.5" stroke-linecap="butt"/><path d="M237.15009,207.64769l-18.97408,-26.74762l5.72802,-4.56666l-3.22201,-5.54524l5.72803,-2.60952" fill="none" stroke-width="2" stroke-linecap="round"/><path d="M248.42765,167.99818l5.33078,2.63105l-2.55704,5.53309l4.24886,4.58818l-17.82911,27.16942" fill="none" stroke-width="2" stroke-linecap="round"/><g stroke-width="1.5" stroke-linecap="round"><path d="M246.19993,212.01698l0.09358,-3.23965l3.08774,1.02306l2.24564,-3.1544l0.18713,5.45626z" fill="#ffffff"/><path d="M244.5766,212.3471h9.07611" fill="none"/></g></g><path d="M236.71903,175.5853l-7.74585,2.9802" fill="none" stroke-width="1.5" stroke-linecap="round"/><path d="M237.92322,175.83735l7.87603,2.44643" fill="none" stroke-width="1.5" stroke-linecap="round"/></g></g><path d="M221.59351,166.43237c-4.47761,-1.08202 -5.74689,-3.94889 -5.74689,-3.94889c0,0 -1.7299,-2.54724 -1.76908,-4.11758c-0.11755,-4.71104 0.18149,-18.16454 1.52001,-29.72955c0.04467,-0.38597 0.08384,-0.60127 0.1516,-0.9839c0.20321,-1.14789 1.18748,-5.59727 1.18748,-5.59727c0,0 3.33729,-1.5922 5.1363,-2.0193c5.39704,-1.28133 18.95019,0.67887 33.26016,1.56497c1.297,0.0803 3.46777,1.87143 3.46777,1.87143c0,0 1.48424,3.26008 1.36987,5.28658c-0.73941,13.10171 -1.60602,27.59511 -2.02252,30.90158c-0.0721,0.57245 -0.40582,3.05572 -2.23823,5.1131c-0.4829,0.54218 -2.29066,2.76178 -5.86681,3.12071c-8.98132,0.90142 -24.94563,-0.6151 -28.44967,-1.46188z" fill="#ffddb7" stroke="#000000" stroke-width="2.5" stroke-linecap="round"/><path d="M251.07882,149.97128c0.19864,-3.5196 0.78509,-6.3488 1.30988,-6.31915c0.52482,0.02963 0.78922,2.90688 0.59061,6.42647c-0.19864,3.5196 -0.7851,6.3488 -1.30989,6.31916c-0.52482,-0.02963 -0.78922,-2.90688 -0.59061,-6.42649z" fill="#000000" stroke="#000000" stroke-width="2.5" stroke-linecap="butt"/><path d="M258.4737,144.20597c-0.07261,-0.8074 -0.14333,-1.61429 -0.21846,-2.42065c-0.81655,0.41995 -1.58765,0.78265 -1.73661,0.85872c-1.63595,0.8357 -4.25653,2.21883 -6.059,2.47758c-0.88138,0.12654 -1.94107,0.468 -2.67164,-0.03871c-0.90345,-0.62661 -0.6855,-3.05789 -0.66645,-3.99062c0.07169,-3.50687 0.15151,-7.01364 0.22816,-10.52045c-1.67158,1.71758 -4.29518,3.18943 -5.90208,4.71893c-3.61475,3.44053 -7.4569,6.52344 -11.2093,9.76922c-1.2871,1.11334 -2.35749,2.17451 -3.77153,3.13563c-0.5421,0.3685 -0.93797,1.18701 -1.59404,1.1509c-0.91622,-0.05043 -1.58913,-0.91321 -2.3837,-1.36982c-0.09336,-1.60739 -0.19137,-3.64736 -0.04756,-5.49127c-0.81015,1.06676 -1.88147,2.09469 -2.51162,3.0221c-2.19677,3.23296 -6.15539,12.52551 -6.15539,12.52551c-3.87835,-0.16552 -7.38355,-3.76508 -9.57635,-6.64692c-2.07915,-0.08191 -4.12812,-0.31241 -6.22214,-0.35885c-0.49926,-0.01108 -3.28774,-0.02907 -3.5934,-0.24503c-1.88335,-1.33064 -1.28524,-2.57548 -0.72201,-4.24461c0.45064,-1.33551 1.22384,-2.4638 2.19106,-3.42319c-1.11051,-0.70572 -2.38424,-1.56766 -2.71404,-2.50518c-0.59631,-1.69512 0.07229,-2.35639 0.84831,-3.61847c0.86845,-1.41243 1.96965,-2.61494 3.22307,-3.64456c-0.70263,-0.45156 -1.45423,-0.96522 -1.53751,-1.15791c-0.879,-2.03428 0.08594,-2.7888 1.03709,-4.23374c1.64075,-2.49259 4.48006,-3.90103 7.14913,-4.92424c0.2246,-2.58809 1.49867,-4.1809 2.81234,-6.45415c1.73004,-2.99381 4.88444,-7.34695 9.66107,-10.61747c5.24162,-3.58889 11.77813,-5.59229 13.80241,-6.01309c4.39288,-0.91315 9.98861,-0.70698 12.15177,-0.44104c3.98493,0.48995 11.04093,2.54822 16.06989,5.91644c5.06807,3.39442 7.74377,7.78003 8.11307,8.48932c3.22398,6.19203 5.25967,12.05473 5.11859,18.97485c-0.03756,1.7303 0.83049,10.79025 -1.88236,15.65896c-3.29564,5.91469 -10.58985,8.43036 -10.8931,8.52339c-0.35916,0.1102 -1.82088,-0.15326 -2.00878,-1.23228c-0.45256,-2.59912 0.79493,-7.97524 1.45941,-10.11015c0.12462,-0.34583 0.2394,-0.69493 0.34903,-1.04575c-0.11723,-0.25057 -0.13728,-0.47336 -0.13728,-0.47336z" fill="#000000" stroke="none" stroke-width="0.5" stroke-linecap="butt"/><g><g data-paper-data="{&quot;index&quot;:null}"><path d="M246.25778,180.01186c2.43961,-0.12867 6.22894,-4.22067 6.34846,-1.95499c0.07961,1.50941 -3.81469,22.71851 -5.29536,24.0148c-0.74184,0.64951 -1.97384,1.10916 -2.78821,1.15212c-1.19695,0.06311 -2.21956,-0.51686 -2.96975,-1.4826c-0.77884,-1.00269 -2.29982,-22.06152 -2.3607,-23.21558c-0.11951,-2.2657 4.62594,1.61486 7.06557,1.48619z" fill="#485e84" stroke="#000000" stroke-width="1.5" stroke-linecap="butt"/><g stroke-linecap="butt"><path d="M245.84021,172.51815c4.42001,-0.23311 8.12791,1.9438 8.28185,4.86229c0.15394,2.91848 -3.30443,5.47334 -7.72444,5.70648c-4.42004,0.2331 -8.12793,-1.94383 -8.28186,-4.86231c-0.15394,-2.91849 3.3044,-5.47335 7.72442,-5.70646z" fill="#485e84" stroke="#000000" stroke-width="1.5"/><path d="M250.13259,178.9138l3.5147,-1.79813c0,0 -0.61277,1.89568 -1.15178,2.53329c-1.14965,1.31983 -2.78902,1.79424 -2.78902,1.79424z" fill="#6987bb" stroke="none" stroke-width="0"/><path d="M246.65326,179.92471l1.59214,-0.39118c0,0 0.16583,1.0183 0.16156,1.37956c-0.00498,0.423 -0.23934,1.1833 -0.23934,1.1833l-1.92927,0.1541z" fill="#6987bb" stroke="none" stroke-width="0"/></g><g><path d="M246.07033,178.9925c-6.0975,0.32156 -9.66744,-3.08907 -9.98904,-9.1866c-0.3216,-6.09748 4.67317,-11.31766 10.77071,-11.63927c6.09752,-0.32159 10.64332,3.76872 10.96492,9.86625c0.3216,6.09749 -5.64902,10.63802 -11.74656,10.95963z" fill="#2c394f" stroke="#000000" stroke-width="1.5" stroke-linecap="butt"/><path d="M248.96469,158.90905c0,0 8.0683,2.0582 8.34967,7.39306c0.15957,3.02524 -1.14787,6.23847 -2.86463,8.63044c-1.22309,1.70417 -3.16406,2.97437 -5.31938,3.08805c-4.43026,0.23363 -6.1098,-1.65611 -6.39116,-6.99097c-0.14051,-2.66418 1.24672,-6.01862 3.02947,-8.3067c1.78703,-2.29366 3.19606,-3.81387 3.19606,-3.81387z" fill="#485e84" stroke="none" stroke-width="0" stroke-linecap="butt"/><path d="M257.48037,168.11764c0,0 -2.7892,4.34226 -9.82869,4.96561c-7.09716,0.62846 -10.5275,-2.92046 -10.5275,-2.92046" fill="none" stroke="#000000" stroke-width="0.8" stroke-linecap="round"/><path d="M256.46424,173.02916c0,0 -4.01109,2.5541 -8.44435,3.46422c-6.38888,1.3116 -9.01782,-0.66082 -9.01782,-0.66082" fill="none" stroke="#000000" stroke-width="0.75" stroke-linecap="round"/><path d="M256.26239,163.44538c0,0 -3.0142,3.72579 -10.02541,4.74665c-6.74354,0.98187 -8.90594,-1.01563 -8.90594,-1.01563" fill="none" stroke="#000000" stroke-width="0.8" stroke-linecap="round"/><path d="M237.31815,165.78045c0,0 4.06528,-2.60523 7.43722,-3.68524c4.44133,-1.42255 9.10357,-1.62001 9.10357,-1.62001" fill="none" stroke="#000000" stroke-width="0.8" stroke-linecap="round"/><path d="M243.68743,178.31805c0,0 -2.64389,-3.25474 -3.24236,-9.66632c-0.55846,-5.98313 2.2683,-8.80319 2.2683,-8.80319" fill="none" stroke="#000000" stroke-width="0.8" stroke-linecap="round"/><path d="M244.93796,159.42757c0,0 -0.04135,3.0559 0.42804,6.3614c0.4128,2.90688 1.32963,5.98728 1.50888,7.62187c0.21291,1.94147 0.16869,5.21599 0.16869,5.21599" fill="none" stroke="#000000" stroke-width="0.8" stroke-linecap="round"/><path d="M247.69477,158.73569c0,0 3.40682,4.55968 3.74538,8.73868c0.5314,6.55911 -1.61741,10.88442 -1.61741,10.88442" fill="none" stroke="#000000" stroke-width="0.8" stroke-linecap="round"/><path d="M251.23255,159.0349c0,0 2.63833,3.21302 3.54372,7.32061c1.3038,5.91508 -0.06156,9.19487 -0.06156,9.19487" fill="none" stroke="#000000" stroke-width="0.8" stroke-linecap="round"/><path d="M255.89622,166.86521c-0.43474,0.02293 -0.80868,-0.36514 -0.83513,-0.86681c-0.02648,-0.50167 0.30452,-0.92691 0.7393,-0.94984c0.43478,-0.02293 0.80868,0.36515 0.83514,0.86681c0.02648,0.50168 -0.30453,0.92693 -0.73931,0.94987z" fill="#6987bb" stroke="none" stroke-width="0" stroke-linecap="butt"/><path d="M254.83929,163.52046c-0.25085,0.01323 -0.46489,-0.1794 -0.47813,-0.43021c-0.01321,-0.25085 0.1794,-0.46489 0.43022,-0.47813c0.25086,-0.01323 0.46491,0.17939 0.47815,0.4302c0.01324,0.25084 -0.1794,0.46489 -0.43022,0.47813z" fill="#6987bb" stroke="none" stroke-width="0" stroke-linecap="butt"/></g></g><g><path d="M205.41387,166.2334c2.17928,-2.36474 18.45454,-0.23427 19.86254,1.58881c1.5303,1.98141 -2.7044,16.26273 -2.7044,16.26273l-3.54714,0.06761l23.45783,-0.87537c0,0 8.08628,-0.71085 7.91775,1.55093c0,0 4.20839,10.31318 -0.71648,28.53527c-5.02026,1.10893 -16.86792,-0.70264 -16.86792,-0.70264c0,0 -26.49317,-2.80392 -28.61019,-7.01831c-2.117,-4.21438 -0.83704,-37.18997 1.20801,-39.40903z" fill="#68330c" stroke="none" stroke-width="3" stroke-linecap="round"/><path d="M242.74799,183.1141c0,0 8.02323,0.3055 7.82593,2.52791c0,0 3.99581,10.2033 -1.10262,28.0589c-2.66931,0.55007 -7.27683,0.23835 -10.95864,-0.16614c0.04134,-0.49673 0.06892,-0.94804 0.08899,-1.31982c0.44531,-8.24066 0.18762,-19.68264 0.99143,-28.61834c0.00797,-0.08855 3.15491,-0.48251 3.15491,-0.48251z" fill="#ffddb7" stroke="#000000" stroke-width="2" stroke-linecap="butt"/><path d="M240.79751,184.00887l-1.70816,29.4323l-3.46651,-0.37484l1.42456,-29.1268z" data-paper-data="{&quot;index&quot;:null}" fill="#ffffff" stroke="#000000" stroke-width="2" stroke-linecap="round"/><path d="M205.59123,166.38864c2.17928,-2.36474 18.45454,-0.23427 19.86254,1.58881c1.5303,1.98141 -2.70441,16.26273 -2.70441,16.26273l-3.54714,0.06761l23.45783,-0.87537c0,0 8.08628,-0.71085 7.91774,1.55092c0,0 4.20839,10.31318 -0.71648,28.53527c-5.02026,1.10893 -16.86792,-0.70264 -16.86792,-0.70264c0,0 -26.49317,-2.80392 -28.61018,-7.0183c-2.117,-4.21438 -0.83704,-37.18997 1.20801,-39.40903z" data-paper-data="{&quot;origPos&quot;:null}" fill="none" stroke="#000000" stroke-width="2.5" stroke-linecap="round"/></g></g><path d="M153.5,284v-208h173v208z" fill="none" stroke="none" stroke-width="0" stroke-linecap="butt"/><path d="M232.51378,160.08226c-0.47084,1.44449 -1.56589,2.3307 -2.44586,1.9794c-0.87997,-0.3513 -1.21165,-1.80707 -0.7408,-3.25156c0.47084,-1.44449 1.56589,-2.3307 2.44586,-1.9794c0.87997,0.3513 1.21166,1.80707 0.74081,3.25156z" fill="#ff7d7d" stroke="#000000" stroke-width="1.25" stroke-linecap="butt"/><g fill="#000000" stroke="#000000" stroke-width="2.5" stroke-linecap="butt"><path d="M242.64737,153.21101c2.41603,-1.78973 4.53394,-3.02552 4.73047,-2.76026c0.19651,0.26529 -1.60276,1.93116 -4.01879,3.72089c-2.41604,1.78972 -4.53396,3.02554 -4.73048,2.76028c-0.19653,-0.26525 1.60277,-1.93117 4.0188,-3.72091z" data-paper-data="{&quot;index&quot;:null}"/><path d="M244.22481,145.94191c2.14654,2.10539 3.69926,4.00323 3.4681,4.23892c-0.23118,0.2357 -2.15867,-1.27999 -4.30522,-3.38537c-2.14655,-2.10539 -3.69929,-4.00324 -3.46813,-4.23893c0.23115,-0.23571 2.15869,1.28 4.30524,3.38537z" data-paper-data="{&quot;index&quot;:null}"/></g></g></g></svg>