<svg version="1.1" xmlns="http://www.w3.org/2000/svg" xmlns:xlink="http://www.w3.org/1999/xlink" width="374.77477" height="288.28829" viewBox="0,0,374.77477,288.28829"><g transform="translate(-52.61261,-35.85585)"><g data-paper-data="{&quot;isPaintingLayer&quot;:true}" fill-rule="nonzero" stroke-linejoin="miter" stroke-miterlimit="10" stroke-dasharray="" stroke-dashoffset="0" style="mix-blend-mode: normal"><path d="M52.61262,324.14414v-288.28829h374.77477v288.28829z" fill="none" stroke="none" stroke-width="none" stroke-linecap="butt"/><g><g><g data-paper-data="{&quot;origRot&quot;:0}" stroke="#000000" stroke-width="3" stroke-linecap="round"><path d="M268.71621,130.7217c2.22893,-1.0171 4.53438,7.44325 4.53438,7.44325c0,0 6.73675,22.21029 9.96393,32.68687c0.69303,4.59935 -34.28467,21.74692 -39.79617,19.93883c-2.45685,-0.80599 -8.55637,-8.68354 -7.91258,-10.59375c1.22537,-3.63592 13.80275,-14.78401 13.80275,-14.78401l1.95703,3.69411l-4.17406,-10.1512c0,0 -5.91359,-11.3887 -7.02385,-16.83044c-0.61576,-3.01803 28.64858,-11.40368 28.64858,-11.40368z" data-paper-data="{&quot;origPos&quot;:null}" fill="#582700"/><path d="M272.16408,140.01336l-27.84945,11.28578" fill="none"/><path d="M273.93409,143.61914l-27.74196,11.55101" data-paper-data="{&quot;origPos&quot;:null}" fill="none"/></g><path d="M272.8084,139.94431l1.0716,2.59742l-28.41427,11.72258l-1.0716,-2.59742z" fill="#ffffff" stroke="none" stroke-width="0" stroke-linecap="butt"/><path d="M283.46887,171.06027l-8.50152,7.13086l-21.74495,10.15968l-8.30307,1.76679l-4.77803,-1.86626l-3.24533,-6.7615l-0.64907,-1.35229l12.40525,-13.44142l1.52351,2.59642l1.80307,-0.86544l-5.05727,-12.26985l27.5959,-12.41336l8.07706,26.07223z" fill="#66c8ff" stroke="#000000" stroke-width="0.5" stroke-linecap="round"/></g><g fill="#fffc96" stroke="#000000" stroke-width="2" stroke-linecap="round"><path d="M247.6677,162.42039c0,0 -4.41317,-2.32651 -2.89931,-5.37333c2.42211,-4.87478 34.34746,14.66438 32.13573,19.87579c-0.90367,2.12925 -4.36509,0.97634 -4.36509,0.97634l0.59417,-2.05358c0,0 -5.08414,-4.96911 -12.41689,-9.69093c-7.23114,-4.6564 -12.84156,-6.38059 -12.84156,-6.38059z"/><path d="M245.93118,172.04538c0,0 -4.35425,1.17728 -4.32937,-1.43403c0.05221,-5.48155 40.74059,-13.50659 39.4606,-8.38296c-0.77519,3.10297 -4.83612,2.88145 -4.83612,2.88145l0.39113,-1.52028c0,0 -6.24953,0.11656 -15.42588,2.08412c-9.17636,1.96754 -15.06945,4.90693 -15.06945,4.90693z" data-paper-data="{&quot;index&quot;:null}"/></g></g><g data-paper-data="{&quot;origRot&quot;:0}" stroke="#000000" stroke-linecap="round"><path d="M238.04394,224.42535c0,0 -1.93165,-4.39494 -0.50089,-4.97334c4.22196,-1.70674 7.6587,-4.92355 12.21124,-5.03355c1.89045,-0.04568 4.16935,3.58742 4.16935,3.58742l16.66805,28.60597c0,0 1.7596,2.93134 2.71124,4.65121c1.01746,1.83883 1.2641,5.13926 -0.63677,6.03551c-6.97935,3.2908 -10.72086,6.62668 -15.59182,7.56536c-1.77457,0.34197 -3.68032,0.58841 -4.98148,-0.6658c-1.69969,-1.63831 -2.78673,-5.9862 -2.78673,-5.9862z" data-paper-data="{&quot;origPos&quot;:null}" fill="#ff0000" stroke-width="3"/><path d="M274.65337,254.33162c0,0 -4.3995,4.77357 -9.06491,6.8014c-3.57946,1.55582 -11.7405,3.98659 -11.7405,3.98659c0,0 -2.28009,-1.85214 -2.99962,-3.28419c-0.758,-1.50858 -0.78644,-4.25082 -0.78644,-4.25082l21.06032,-10.02338z" data-paper-data="{&quot;origPos&quot;:null}" fill="#976e57" stroke-width="2"/><path d="M238.24647,224.68715c0,0 -1.93165,-4.39494 -0.50088,-4.97333c4.22195,-1.70674 7.6587,-4.92355 12.21126,-5.03354c1.89045,-0.04568 4.16934,3.58741 4.16934,3.58741l16.66805,28.60598c0,0 1.75962,2.93133 2.71126,4.6512c1.01746,1.83883 1.26409,5.13926 -0.63677,6.03552c-6.97935,3.2908 -10.72085,6.62669 -15.59181,7.56536c-1.77457,0.34197 -3.68032,0.58838 -4.98148,-0.6658c-1.69969,-1.63831 -2.78674,-5.9862 -2.78674,-5.9862z" data-paper-data="{&quot;origPos&quot;:null}" fill="#4b4b4b" stroke-width="3"/></g><path d="M229.48083,258.62015c0,0 -0.23045,4.4758 -1.58325,6.41045c-1.03563,1.48106 -2.95318,1.60581 -4.76039,1.61157c-4.96055,0.0158 -9.27383,-2.53814 -16.75585,-4.42499c-2.03777,-0.51389 -2.43057,-3.80013 -1.78582,-5.80032c0.60305,-1.87079 1.76595,-5.08584 1.76595,-5.08584l10.85443,-31.27791c0,0 1.53749,-4.0036 3.40143,-4.32239c4.48869,-0.76774 8.48002,1.72793 12.95142,2.59072c1.51529,0.29239 0.46509,4.9768 0.46509,4.9768c0,0 -1.15126,8.93143 -1.88813,14.64802c-1.04,8.06827 -2.66488,20.67393 -2.66488,20.67393z" fill="#4b4b4b" stroke="#000000" stroke-width="3" stroke-linecap="round"/><g stroke="#000000" stroke-linecap="round"><path d="M225.65377,173.53987c0,0 -28.22914,5.91484 -28.27891,-12.06568c-0.01835,-6.62461 16.21325,-5.02736 16.21325,-5.02736z" data-paper-data="{&quot;origPos&quot;:null}" fill="#66c8ff" stroke-width="2"/><path d="M217.60993,161.85124c0,0 -15.91916,-1.89997 -15.71052,-2.51368c0.66156,-1.94585 12.44273,-1.38252 12.44273,-1.38252z" data-paper-data="{&quot;origPos&quot;:null}" fill="#0a0a0a" stroke-width="1"/></g><g><g><path d="M214.78271,182.58887c0,0 0.57204,-14.5283 2.66819,-15.27739c6.28842,-2.24731 21.1072,-2.71787 30.95295,-3.65159c1.52205,-0.14434 4.11411,13.20395 4.11411,13.20395l4.66439,30.32329c0,0 1.6544,14.86818 -0.00599,15.02565c-14.78065,1.40172 -32.02406,3.89343 -38.69151,3.68104c-2.22247,-0.07079 -2.88585,-15.83635 -2.88585,-15.83635z" data-paper-data="{&quot;origPos&quot;:null}" fill="#66c8ff" stroke="#000000" stroke-width="3.5" stroke-linecap="round"/><path d="M234.31746,188.97189c-1.2859,0.12195 -1.52075,-2.35444 -1.52075,-2.35444c-0.48709,-5.13621 -1.13075,-11.92335 -1.61783,-17.05956c0,0 -0.23485,-2.47638 1.05105,-2.59833c1.2859,-0.12195 1.52075,2.35444 1.52075,2.35444c0.48709,5.13621 0.97419,10.27242 1.46128,15.40864l0.15657,1.65093c0,0 0.23484,2.47638 -1.05106,2.59833z" fill="#ffffff" stroke="none" stroke-width="0.5" stroke-linecap="butt"/><path d="M246.8618,194.14401c-1.2859,0.12195 -1.58093,-2.98909 -1.58093,-2.98909c-0.61192,-6.45253 -1.42054,-14.97908 -2.03246,-21.43161c0,0 -0.29503,-3.11104 0.99086,-3.23299c1.2859,-0.12195 1.58093,2.98909 1.58093,2.98909c0.61192,6.45253 1.22385,12.90506 1.83577,19.3576l0.19669,2.07403c0,0 0.29503,3.11104 -0.99086,3.23299z" fill="#ffffff" stroke="none" stroke-width="0.5" stroke-linecap="butt"/></g><g fill="none" stroke="#b9b9b9" stroke-width="3"><path d="M246.71356,168.87728c-0.95205,-1.2739 -0.15785,-2.57426 0.94464,-3.90231c1.1025,-1.32803 2.28931,-1.81418 3.04787,-0.90697c1.60834,1.92356 0.21776,3.03534 -0.64553,4.07523c-1.10251,1.32805 -2.00244,2.53313 -3.34698,0.73406z" stroke-linecap="butt"/><path d="M247.63765,168.19624l-2.34053,2.75271" stroke-linecap="round"/><path d="M241.82588,171.91031c1.1025,-1.32803 2.28932,-1.81418 3.04788,-0.90696c1.60834,1.92356 0.21776,3.03534 -0.64553,4.07523c-1.1025,1.32804 -2.00243,2.53313 -3.34696,0.73405c-0.95205,-1.2739 -0.15787,-2.57426 0.94462,-3.90232z" stroke-linecap="butt"/><path d="M241.80532,175.13159l-2.34053,2.75272" stroke-linecap="round"/><path d="M233.82491,177.96487c0.2445,-1.6656 1.59117,-1.63801 3.14751,-1.32472c1.55634,0.3133 2.61261,1.19425 2.48852,2.45922c-0.26313,2.68209 -1.85651,1.9623 -3.07516,1.71699c-1.55634,-0.31329 -2.90615,-0.49923 -2.56085,-2.85148z" stroke-linecap="butt"/><path d="M234.84585,178.47648l-3.26028,-0.70349" stroke-linecap="round"/><path d="M226.24424,174.28839c0.7647,-1.39515 2.00856,-0.72247 3.35534,0.3105c1.34679,1.03296 2.04527,2.34103 1.52183,3.43022c-1.10986,2.30938 -2.35999,0.8894 -3.41458,0.08056c-1.34679,-1.03297 -2.54251,-1.85097 -1.46259,-3.82126z" stroke-linecap="butt"/><path d="M224.22292,173.03724l2.80607,2.20676" stroke-linecap="round"/><path d="M219.19135,168.80515c0.7647,-1.39513 2.00857,-0.72247 3.35535,0.3105c1.3468,1.03296 2.04527,2.34103 1.52183,3.43022c-1.10986,2.30937 -2.35999,0.88939 -3.41457,0.08055c-1.34679,-1.03296 -2.54251,-1.85095 -1.46258,-3.82125z" stroke-linecap="butt"/><path d="M219.97612,169.76075l-2.80608,-2.20676" stroke-linecap="round"/></g></g><g><path d="M248.04205,171.49167c-12.00111,-1.43882 -23.63459,-2.86993 -28.25561,-4.48397c-4.22331,-1.47512 -5.17528,-4.38302 -5.17528,-4.38302c0,0 -1.42772,-2.64056 -1.31516,-4.17144c0.33766,-4.59263 1.91533,-17.64802 4.31656,-28.76867c0.08014,-0.37115 0.13862,-0.57684 0.24073,-0.94255c0.30631,-1.09715 1.68366,-5.33124 1.68366,-5.33124c0,0 3.37751,-1.23328 5.15691,-1.47875c5.33818,-0.73645 18.24754,2.44971 31.99112,4.66278c1.24568,0.20059 3.17184,2.14744 3.17184,2.14744c0,0 1.12203,3.3106 0.8174,5.27061c-1.96949,12.67169 -4.19523,26.68478 -4.91442,29.86105c-0.23973,1.05877 -2.60416,4.97532 -2.60416,4.97532z" fill="#582700" stroke="#000000" stroke-width="2.5" stroke-linecap="round"/><path d="M215.18324,123.6571c-0.52208,-1.13575 0.61367,-1.65783 0.61367,-1.65783l1.39775,-0.59735c0.12211,-0.02138 0.24402,-0.04201 0.36577,-0.0619c-0.28875,-5.86555 1.6953,-12.65496 2.38159,-18.3321c0.17798,-1.47228 0.30889,-5.50545 1.1792,-6.67733c1.45738,-1.96236 3.08053,-1.15821 4.96228,-0.92555c3.20175,0.39589 6.37287,0.82765 9.59859,0.75057c7.99495,-0.18172 15.81354,0.52793 23.78609,0.83402c2.5158,0.09658 4.95891,0.30786 7.43502,0.83246c0.67752,0.14354 1.585,0.00302 2.00187,0.55607c1.47639,1.95869 0.50708,3.81199 -0.05127,5.71977c-1.11375,3.80541 -3.15481,7.10757 -3.77065,11.06971c-0.49139,3.02807 -1.35046,6.09095 -2.11543,9.05952c-0.264,1.02442 -0.16629,2.99437 -1.31697,3.64501c-2.35945,1.33411 -7.81543,-0.56506 -10.32448,-0.96258c-7.65058,-1.21212 -15.28256,-2.58286 -22.99054,-3.35718c-2.76726,-0.18276 -5.41564,-0.27634 -8.11427,-0.03185c-0.07229,0.36648 -0.30756,0.81866 -1.01164,0.93563c-0.76391,0.12691 -1.13318,-0.29805 -1.30361,-0.63981c-0.09284,0.01546 -0.18581,0.03139 -0.27889,0.04782l-0.78625,0.40658c0,0 -1.13575,0.52208 -1.65784,-0.61367z" fill="#000000" stroke="none" stroke-width="0.5" stroke-linecap="butt"/><path d="M231.4139,141.45706c4.93588,-1.93938 8.9352,0.70965 10.01359,5.64828c1.2368,5.66402 -2.91586,8.35011 -2.91586,8.35011c0,0 -2.42167,-1.3515 -5.6074,-2.08529c-3.96675,-0.91367 -6.22384,-0.69938 -6.22384,-0.69938c0,0 -1.96254,-8.58274 4.73351,-11.21372z" fill="#ffffff" stroke="#0a0a0a" stroke-width="2" stroke-linecap="butt"/><path d="M257.75483,145.42789c5.55485,4.57195 1.03541,12.12771 1.03541,12.12771c0,0 -2.08032,-0.90148 -6.13522,-1.25872c-3.25654,-0.2869 -5.97737,0.24984 -5.97737,0.24984c0,0 -3.11898,-3.83817 -0.19195,-8.8425c2.55216,-4.36341 7.17447,-5.64648 11.26913,-2.27635z" data-paper-data="{&quot;index&quot;:null}" fill="#ffffff" stroke="#0a0a0a" stroke-width="2" stroke-linecap="butt"/><g data-paper-data="{&quot;index&quot;:null}" stroke="#000000" stroke-width="1" stroke-linecap="butt"><path d="M226.77796,169.00959c-11.74063,-4.41932 -4.14487,-15.60617 -4.14487,-15.60617l17.53505,6.42378c0,0 -0.96002,13.86126 -13.39018,9.18238z" fill="#000000"/><path d="M226.66119,164.81722c2.87301,2.15731 4.60091,5.17 4.03926,5.12621c-1.1606,-0.09049 -2.46241,-0.38428 -3.92249,-0.93385c-4.37593,-1.64713 -6.06569,-4.23444 -6.46375,-6.83223c-0.07734,-0.50468 3.70872,0.65883 6.34696,2.63987z" fill="#ff8484"/><path d="M220.89946,157.47575c0.66894,-1.67802 1.73364,-4.07234 1.73364,-4.07234l15.41077,5.64557l-1.4956,4.29345c0,0 -15.67084,-5.81136 -15.6488,-5.86667z" fill="#ffffff"/></g></g><g data-paper-data="{&quot;index&quot;:null}"><g data-paper-data="{&quot;origRot&quot;:0,&quot;index&quot;:null}" stroke="#000000" stroke-width="3" stroke-linecap="round"><path d="M220.30818,221.42555c0,0 -25.217,-1.39936 -25.27416,-3.95418c-0.10307,-4.6065 2.58545,-14.90773 2.58545,-14.90773l8.0878,-28.99309c0,0 1.61859,-5.48095 2.74375,-5.73275c3.37546,-0.7554 9.57375,1.34417 16.14699,2.1747c1.09259,0.13806 0.90849,6.05971 0.90849,6.05971c0,0 -0.7008,9.30416 -1.14933,15.25929c-0.68308,9.06907 -1.75029,23.23838 -1.75029,23.23838c0,0 -0.30842,7.2684 -2.29871,6.85569z" data-paper-data="{&quot;origPos&quot;:null}" fill="#582700"/><path d="M196.86729,210.13894l24.60602,4.00584" fill="none"/><path d="M197.67392,206.66195l24.56786,4.24019" data-paper-data="{&quot;origPos&quot;:null}" fill="none"/></g><path d="M197.52191,205.94505l10.2546,-36.73435l1.37353,-0.47003l15.60384,2.58897l-2.36589,38.69131z" fill="#66c8ff" stroke="#000000" stroke-width="1" stroke-linecap="round"/><path d="M196.86474,209.97224l0.38219,-2.29955l25.15576,4.18085l-0.38219,2.29955z" fill="#ffffff" stroke="none" stroke-width="0" stroke-linecap="butt"/></g><path d="M230.31253,156.16303c-0.35476,-0.23708 -0.18061,-0.86913 -0.31661,-1.22137c-0.24301,-0.25153 -0.44713,-0.57412 -0.61763,-0.9044c-0.22398,-0.26372 -0.45867,-0.51933 -0.63608,-0.75588c0,0 -0.20747,-0.27662 -0.06377,-0.55055c-0.11902,-0.04674 -0.2364,-0.09744 -0.35171,-0.15292c0,0 -1.02692,-0.51346 -0.51346,-1.54038c0.51346,-1.02692 1.54038,-0.51346 1.54038,-0.51346c0.87369,0.46243 1.74811,0.48 2.69459,0.81381c0.86073,0.30356 1.61055,0.97021 2.49143,1.1608c0.66447,0.14376 1.34465,0.24276 1.98316,0.47622l0.56652,0.22631c0,0 1.06601,0.42641 0.63961,1.49242c-0.42641,1.06601 -1.49242,0.63961 -1.49242,0.63961l-0.41075,-0.16453l-0.57529,0.21933c-1.1146,-0.00687 -1.71835,-0.27404 -2.68267,-0.66382c-0.18402,0.03306 -0.37781,0.08631 -0.49794,0.21138c-0.02309,0.03261 -0.04773,0.06377 -0.07411,0.09327c-0.49423,0.71857 -0.07496,2.20898 -1.68326,1.13415z" fill="#000000" stroke="none" stroke-width="0.5" stroke-linecap="butt"/><path d="M228.32921,158.99757c0,-0.91127 0.73873,-1.65 1.65,-1.65c0.91127,0 1.65,0.73873 1.65,1.65c0,0.91127 -0.73873,1.65 -1.65,1.65c-0.91127,0 -1.65,-0.73873 -1.65,-1.65z" fill="#000000" stroke="none" stroke-width="0.5" stroke-linecap="butt"/><path d="M254.18722,159.41605c-1.85404,0.55171 -1.01318,-0.7483 -1.27306,-1.58081c-0.01649,-0.03598 -0.03082,-0.07302 -0.04325,-0.111c-0.07782,-0.15497 -0.24722,-0.2631 -0.41327,-0.34904c-1.03643,0.08749 -1.69216,0.16438 -2.75904,-0.15834l-0.48481,-0.37949l-0.44103,0.03584c0,0 -1.14441,0.09244 -1.23685,-1.05196c-0.09244,-1.14441 1.05197,-1.23685 1.05197,-1.23685l0.60809,-0.04885c0.67897,-0.0344 1.35804,0.07196 2.03533,0.13091c0.89787,0.07816 1.81116,-0.33721 2.72316,-0.37294c1.00284,-0.03929 1.84344,0.20225 2.81474,0.01857c0,0 1.13277,-0.18716 1.31994,0.94561c0.18717,1.13278 -0.94561,1.31994 -0.94561,1.31994c-0.12656,0.01893 -0.25367,0.03269 -0.38119,0.04219c0.05636,0.30415 -0.22357,0.50714 -0.22357,0.50714c-0.23938,0.17358 -0.5391,0.34845 -0.83099,0.53423c-0.26047,0.26516 -0.55077,0.51304 -0.85724,0.68156c-0.23399,0.29634 -0.25433,0.95162 -0.6633,1.07331z" data-paper-data="{&quot;index&quot;:null}" fill="#000000" stroke="none" stroke-width="0.5" stroke-linecap="butt"/><path d="M250.70064,162.99757c0,-0.91127 0.73873,-1.65 1.65,-1.65c0.91127,0 1.65,0.73873 1.65,1.65c0,0.91127 -0.73873,1.65 -1.65,1.65c-0.91127,0 -1.65,-0.73873 -1.65,-1.65z" fill="#000000" stroke="none" stroke-width="0.5" stroke-linecap="butt"/><path d="M221.80914,162.48485l0.11043,-0.14009c2.325,0.01173 4.7607,0.58808 6.8339,1.61281c2.13529,1.33272 5.53401,2.54947 6.41192,5.18748c0.3797,1.14094 0.20454,3.22004 -0.40583,4.21703c-0.76212,1.24486 -2.28524,1.56916 -2.68586,3.17301c-0.49485,1.98112 1.61766,5.68176 -0.07798,7.30281c-1.80318,1.72386 -2.1632,0.50669 -3.30864,-0.66252c-0.23991,-1.71682 -0.69302,-3.42471 -0.88404,-5.14215c-0.16645,-1.49653 -0.10007,-2.57467 -0.83627,-3.96236c-1.10137,-2.07604 -3.20181,-3.3813 -4.52304,-5.29027c-1.11017,-1.60403 -1.62261,-3.30754 -1.79533,-5.21271c0,0 -0.08344,-1.00127 0.91783,-1.0847c0.08784,-0.00732 0.16862,-0.00629 0.2429,0.00168z" fill="#000000" stroke="none" stroke-width="0.5" stroke-linecap="butt"/><path d="M228.70421,189.76543c0,-0.91127 0.73873,-1.65 1.65,-1.65c0.91127,0 1.65,0.73873 1.65,1.65c0,0.91127 -0.73873,1.65 -1.65,1.65c-0.91127,0 -1.65,-0.73873 -1.65,-1.65z" fill="#000000" stroke="none" stroke-width="0.5" stroke-linecap="butt"/></g></g></svg>