<svg version="1.1" xmlns="http://www.w3.org/2000/svg" xmlns:xlink="http://www.w3.org/1999/xlink" width="311.75973" height="231.21399" viewBox="0,0,311.75973,231.21399"><g transform="translate(-84.12014,-64.64158)"><g data-paper-data="{&quot;isPaintingLayer&quot;:true}" fill-rule="nonzero" stroke-linejoin="miter" stroke-miterlimit="10" stroke-dasharray="" stroke-dashoffset="0" style="mix-blend-mode: normal"><path d="M253.31683,78.96788c0,-1.55669 1.26196,-2.81865 2.81865,-2.81865c1.55669,0 2.81865,1.26196 2.81865,2.81865c0,1.55669 -1.26196,2.81865 -2.81865,2.81865c-1.55669,0 -2.81865,-1.26196 -2.81865,-2.81865z" fill="#3381bd" stroke="none" stroke-width="0" stroke-linecap="butt"/><g><path d="M98.67797,111.96682c-0.28219,-1.47185 1.03261,-4.01507 3.71491,-4.44102c2.48701,-0.39495 3.27378,1.83877 7.00884,1.67559c0.03527,0.03098 2.32783,-0.09673 3.53788,-1.05867c0.24198,-0.19237 0.07948,-1.45811 -0.608,-3.23775c-0.91834,-2.37725 -2.65959,-5.57136 -0.53558,-7.31799c0.77987,-0.64131 2.39937,-0.90243 3.84077,0.40799c0.77567,0.70519 1.11774,2.02844 1.90777,2.86085c0.46931,0.4945 1.42093,0.82118 1.82755,0.7274c0.81626,-0.18826 2.11955,-1.80359 2.85892,-3.91174c1.48899,-4.24551 1.53523,-8.7538 2.80119,-10.87221c0.54484,-0.91172 8.73746,-4.16768 11.36092,-5.49671c3.39141,-1.71804 7.80637,-2.6461 11.7199,-3.95504c6.58551,-2.2026 12.80099,-4.21678 17.98843,-3.64627c1.33,0.14626 2.38995,-2.02352 3.76954,-3.17464c1.49117,-1.24423 3.23573,-2.10726 5.11558,-2.50482c1.03797,-0.21952 1.91562,1.33385 3.35868,2.85787c3.73831,3.94804 8.43365,10.99087 8.43365,10.99087c0,0 0.904,-0.81163 1.56276,-1.25404c0.91924,-0.61735 2.02714,-0.96224 2.57705,-1.0061c0.27907,-0.02225 3.23263,0.50508 4.35524,1.29399c1.92504,1.35285 2.35911,3.29677 2.82813,3.27025c0.47414,-0.02681 1.0724,-0.17294 1.53991,-0.19193c2.54417,-0.1033 5.67174,3.64235 9.74202,2.8657c1.41163,-0.26935 1.14553,-0.6873 2.43083,-0.91672c3.88039,-0.69264 7.78198,-0.23815 10.74232,-0.18115c2.41612,0.04653 4.27474,-0.34801 4.41002,-0.39307c1.04594,-0.86966 -0.30984,-5.54931 1.77402,-6.23555c3.66505,-1.20692 6.94185,1.09285 10.92652,4.39285c2.96987,2.45955 6.73084,5.52569 9.20544,7.83649c3.85572,3.60051 5.97783,6.47697 6.06855,6.43003c0.10381,-0.0537 2.15791,-9.56564 3.32385,-10.7138c1.41802,-1.39639 4.73594,-1.34256 6.71611,-1.98197c1.25059,-0.40384 1.02819,-1.17908 1.90735,-1.63153c0.95439,-0.49116 1.95765,0.36712 2.89798,-0.08118c0.34421,-0.1641 1.06228,-1.97482 1.00695,-3.05927c-0.12066,-2.36507 -1.05284,-5.05173 1.4027,-6.33201c1.45636,-0.75933 2.97987,0.56029 4.542,1.29684c0.21407,0.10094 1.90988,0.60465 2.42899,-0.26413c0.24524,-0.41043 0.65844,-3.24559 0.98296,-3.62632c-0.00174,-0.1291 -0.91736,-1.33791 -0.68705,-2.94305c0.27757,-1.93468 1.93335,-4.27263 5.09216,-3.72126c1.6825,0.29368 4.17898,3.10051 3.07625,6.31593c-0.60114,1.75284 -3.32922,1.7026 -3.17648,1.85404c0.46161,0.90094 0.1145,5.84765 0.75117,5.94344c0.72022,0.10836 2.211,-0.48958 3.41145,-0.79061c1.091,-0.27358 1.89829,-0.25948 2.50878,-0.05891c2.32206,0.76285 4.12022,2.67258 6.54731,4.26124c2.83659,1.8567 6.13732,3.35906 6.13732,3.35906c0,0 2.62705,-2.40145 5.17156,-4.02679c2.94115,-1.87869 6.03008,-3.2702 6.08318,-3.3855c1.68926,-3.66832 2.30506,-5.69585 4.8637,-6.50773c7.60766,-2.41397 23.95195,6.18412 38.03771,12.39021c3.48497,1.53545 6.68508,3.57538 9.80005,5.05277c0.44201,0.20964 0.43097,14.22562 -1.94755,19.21522c-1.49586,3.138 -8.52035,2.8086 -10.07452,5.14465c-0.84987,1.27745 2.31137,7.11918 2.66675,7.12304c0.40588,0.00441 3.14053,-0.1094 7.00052,-0.52108c4.5258,-0.4827 10.26425,-0.99064 14.14388,0.87597c4.39549,2.11478 3.11134,8.64331 2.80863,9.39959c-0.54144,1.35277 -1.67939,4.73238 -2.07649,8.49582c-0.89914,8.52147 1.12203,13.99503 0.39083,19.73894c-0.04879,0.38329 2.41629,3.08407 1.42885,6.53665c-0.82866,2.89738 -4.48152,5.88054 -6.19412,9.03782c-3.26428,6.0179 -8.33831,10.39655 -7.92557,10.79805c0.05221,0.05079 3.14218,5.88545 3.94428,5.59642c0.47109,-0.16975 1.56744,-0.6103 2.28863,-0.65366c1.26108,-0.07584 2.48359,0.88062 3.25199,1.85886c1.41967,1.80739 2.50016,4.71019 4.73228,4.66711c0.36846,-0.00711 4.14674,-9.79861 9.10854,-5.31119c0.97831,0.88477 1.43907,2.07385 1.23865,3.10072c-0.29572,1.51527 -1.80962,2.76252 -2.87771,3.41091c-1.60902,0.97676 -3.06554,2.02318 -3.15168,2.64817c-0.26628,1.93236 0.86716,5.70132 2.83147,5.53157c4.49144,-3.02637 6.3283,-0.56939 6.50378,1.62264c0.402,5.02169 -5.19932,2.98112 -5.1882,3.33065c0.0457,1.43616 -0.20429,3.59999 0.21754,4.97388c0.65657,2.13846 2.74491,2.96635 2.96182,4.81645c0.25563,2.18049 -0.99833,5.66284 -1.83311,8.07481c-0.77413,2.23678 -1.08281,3.39562 -2.08267,5.62678c-2.7588,6.15621 -5.89055,8.6021 -5.736,8.95956c0.42737,0.9885 -9.24502,1.15746 -22.12509,-0.52515c-11.04546,-1.44294 -25.53679,-4.78136 -25.73032,-4.08631c-0.41382,1.48605 -3.16033,6.08896 -6.47055,6.45187c-4.457,0.48861 -5.74957,-1.82489 -6.19541,-1.47195c-1.71864,1.36054 -3.92146,1.97661 -6.33425,1.44669c-5.02905,-1.10455 -4.00266,-7.23709 -4.67689,-7.17107c-1.32543,0.1298 -5.4574,-4.12353 -8.34096,-3.385c-2.93507,0.75171 -7.79384,6.67701 -8.30683,6.79706c-3.8939,0.91125 -7.69149,1.70385 -9.50333,2.88785c-2.13464,1.39494 -2.11409,3.06516 -2.11409,3.06516c0,0 1.79217,0.95707 2.87073,2.42999c0.59447,0.81182 0.64578,1.63396 0.82889,2.88342c0.29162,1.98985 -1.61649,3.76776 -3.69385,3.82036c-2.03809,0.0516 -3.98817,-0.60616 -4.45228,-3.69754c-0.12243,-0.81546 -1.24706,-3.45344 -1.24706,-3.45344c0,0 -2.15751,-1.1554 -4.63916,0.33218c-0.70491,0.42256 -1.37185,0.91987 -1.69141,2.17442c-0.48658,1.91018 0.30777,5.11709 -0.30191,7.36896c-0.77571,2.86512 -3.06244,4.55534 -4.8569,4.10263c-3.36404,-0.84869 -5.0018,-3.45462 -4.04399,-7.04712c0.25374,-0.95175 1.45312,-2.14903 1.97308,-3.39972c0.5362,-1.28974 0.38133,-2.6305 -0.17131,-3.43005c-0.72993,-1.05606 -3.23891,-1.06916 -4.48454,-0.82398c-4.80263,0.94534 -7.28968,3.85082 -13.67759,3.70075c-0.64891,-0.01524 -2.66615,-0.06919 -4.4857,-2.11801c-3.13584,-3.53098 -6.47095,-9.74292 -6.1875,-9.07692c0.27669,0.65015 -3.63899,-0.36125 -3.9456,0.1889c-0.23625,0.42393 -1.00339,2.91002 -6.39356,2.48408c-2.97772,-0.2353 -4.54627,-2.07649 -5.31072,-3.60094c-0.63088,-1.25807 -0.68156,-2.36473 -0.7353,-2.40391c-3.35451,-2.44646 -10.4881,-3.79074 -11.45943,-2.73744c-0.2676,0.29017 -1.24623,2.68464 -3.32849,4.75675c-2.46456,2.45254 -6.35386,4.70664 -10.70967,6.09584c-11.36998,3.62623 -25.47722,2.04164 -26.77515,2.68158c-1.04307,0.51427 -2.313,2.0916 -3.54981,2.49858c-0.19662,0.0647 -3.9706,0.4711 -6.39368,-1.28799c-1.53749,-1.11618 -1.5067,-2.35837 -2.91588,-4.0194c-1.342,-1.58188 -3.47654,-2.91064 -4.32828,-3.49875c-0.76462,-0.52797 -1.60523,0.54532 -1.6385,0.76501c-0.18,1.18903 -3.90535,-1.25768 -9.43413,-1.57988c-6.79164,-0.39578 -15.98745,1.07494 -20.83869,2.25734c-6.76082,1.64784 -12.43819,4.90416 -13.19215,5.1268c-1.19669,0.35336 -6.57345,0.84161 -8.31026,-1.92816c-1.4174,-2.26038 -2.48931,-6.58576 -2.68093,-8.11516c-0.17867,-1.42591 -2.16683,-2.00877 -2.29597,-3.84285c-0.21427,-3.04289 1.58364,-2.33533 2.12069,-3.98093c0.34489,-1.05679 -1.00316,-2.78768 -1.21368,-3.13143c-0.60297,-0.98457 -1.82533,-1.36977 -2.2461,-1.26179c-1.39754,0.35863 -2.89016,0.4958 -3.69677,0.36375c-2.51655,-0.41202 -2.12338,-2.67062 -2.15184,-3.45558c-0.15199,-4.18964 5.83228,-1.9043 5.93099,-1.98127c1.14184,-0.89049 1.77271,-2.51538 1.59596,-4.113c-0.07909,-0.71479 -0.19402,-1.41568 -1.13453,-1.9926c-1.61926,-0.99325 -5.97897,0.48526 -6.72607,-2.49374c-1.26487,-5.04356 2.3999,-5.94596 3.31588,-6.00401c2.16658,-0.1373 3.41674,1.22132 4.34455,2.43539c0.81338,1.06434 1.43869,2.01855 1.41299,1.74298c-0.04972,-0.53281 2.91315,-0.3252 2.89755,-0.84231c-0.06081,-2.01487 -0.05388,-3.15364 0.80539,-4.6621c0.44801,-0.78652 1.2197,-1.35456 2.00656,-1.81671c2.42678,-1.42531 5.86625,2.06047 5.59517,2.09698c-1.17551,0.15828 2.37854,-1.1538 2.36948,-1.58259c-0.06547,-3.10175 2.58821,-5.29855 6.21273,-3.30436c-0.23541,0.15905 0.68224,-1.94934 1.12454,-3.89172c0.34055,-1.4955 0.24715,-2.94613 0.06503,-2.85817c-1.02155,0.49344 -4.93815,2.06309 -7.32016,1.50646c-4.44277,-0.84553 -5.81707,-2.74089 -6.88766,-4.72081c-0.61526,-1.13782 -1.39751,-3.14187 -1.83846,-5.1491c-1.32184,-6.01712 -1.02733,-6.33149 -1.54251,-11.34588c-0.36675,-3.5697 -0.73624,-7.9079 -0.48254,-10.74364c0.26909,-3.00755 1.21412,-4.46233 2.70072,-6.47805c1.00373,-1.361 2.32875,-2.55071 3.06696,-3.76754c0.65921,-1.08659 0.35877,-1.88162 0.37121,-2.11993c0.10684,-2.04575 -0.12297,-5.08263 0.26299,-8.1702c0.29535,-2.36275 0.92345,-4.22331 1.2717,-6.24856c0.45773,-2.66187 1.15785,-5.07891 1.95156,-6.49985c0.98721,-1.76737 2.04018,-2.21562 2.02788,-2.27145c-0.26464,-1.20122 -1.7366,-1.19298 -1.86182,-2.23488c-0.09521,-0.79235 -0.12183,-1.97042 0.29319,-3.1831c0.37472,-1.09494 1.26237,-2.27273 1.86673,-2.34746c0.07686,-0.00951 0.65279,-2.91581 0.36929,-3.47758c-0.40194,-0.72906 -1.85094,-1.17912 -3.43978,-1.1847c-1.21835,-0.00428 -1.94302,0.62211 -3.11907,0.3038c-2.22831,-0.60312 -3.29734,-2.72057 -3.54493,-4.01201z" fill="#45aeff" stroke="none" stroke-width="0" stroke-linecap="butt"/><path d="M104.94195,155.86883c0.50305,-0.85378 0.88018,-2.68243 1.08695,-5.09184c0.44271,-5.15873 0.42713,-10.20332 0.54797,-10.70614c0.30739,-1.27913 0.79214,-6.27039 2.44065,-8.17942c3.51439,-4.06977 9.64404,-7.0704 9.82605,-7.15045c0.47552,-0.20918 1.4397,-5.01179 2.6632,-11.33129c0.44847,-2.31641 1.66528,-7.90557 2.64054,-12.14574c1.59963,-6.95478 2.23136,-10.41436 3.71037,-12.21827c3.14658,-3.83781 9.52182,-5.1667 12.64001,-6.36076c0.08416,-0.03223 16.03957,-5.83691 22.11459,-6.61963c1.79125,-0.23079 3.75878,1.15879 3.82595,1.16897c0.47866,0.07251 6.81698,-6.97936 7.8105,-6.58468c2.00581,0.79681 13.60886,15.08686 13.54709,16.05858c-0.02497,0.39283 0.69243,-1.51413 1.94227,-2.82774c0.72729,-0.7644 1.70352,-1.00643 2.13605,-0.88745c1.89748,0.52199 3.76255,3.49101 4.96936,4.85625c0.46475,0.52576 1.01618,0.17981 1.16104,0.30427c0.0636,0.18845 0.13545,-0.59681 0.87501,-1.17938c0.00198,-0.00155 2.07444,-0.21874 3.29801,0.19407c3.49096,1.1778 9.00144,3.98004 9.32126,4.2708c0.0623,0.05665 -0.68097,-1.98652 0.13033,-2.49876c0.64151,-0.40504 1.7554,-0.67162 2.80588,-0.83893c3.80332,-0.60575 9.99407,-0.51434 13.19678,0.06442c1.44032,0.26027 1.91782,1.13787 1.92409,1.19485c0.09694,0.87917 0.12544,7.05421 0.13914,7.112c0.00936,0.03946 0.92374,-0.54106 1.6341,-0.36501c0.33276,0.08246 0.55799,0.67219 0.73899,0.94642c0.06753,0.10231 -0.29713,-1.9136 -0.90185,-5.04964c-0.0808,-0.41894 -1.83226,-8.87361 -0.81867,-9.74137c1.32126,-1.13116 7.28084,2.87708 8.66535,4.00195c7.7935,6.33203 16.4356,17.36651 17.35951,18.52373c0.13801,0.17288 1.58245,-7.29165 2.96934,-11.88963c0.01459,-0.04834 0.89411,-3.66445 1.43601,-3.83503c1.80814,-0.56915 6.93505,-2.19135 11.48539,-2.68313c6.95427,-0.75156 13.65818,-0.21116 13.70835,0.18941c0.03715,0.29658 5.31967,-4.0732 6.5932,-4.27742c0.80964,-0.12983 4.56295,3.10669 7.2695,5.27664c1.15313,0.9245 3.01152,1.77592 2.90976,1.89419c-0.17702,0.20571 15.03254,-10.3747 15.66225,-9.05742c0.0282,0.05901 -0.38401,-2.06641 -0.0086,-2.94069c0.72089,-1.67896 2.448,-2.70446 2.46214,-2.56378c0.01202,0.11956 1.85732,-0.18953 4.11937,0.39498c3.54384,0.91571 8.76415,3.07888 14.56882,5.27237c8.63932,3.26467 18.21764,6.79219 22.63284,9.19647c1.72887,0.94145 2.42237,2.8258 2.39437,2.99971c-0.17695,1.09893 -0.68507,12.66714 -2.28319,13.64046c-0.71011,0.43249 -11.17278,4.01207 -12.11394,4.34172c-0.385,0.13485 1.41352,4.80107 2.72581,7.59002c1.75545,3.73077 2.06338,5.1469 2.62021,5.95493c0.01445,0.02098 10.24051,-2.18021 17.05611,-2.0392c3.30288,0.06833 5.85338,2.15866 6.02544,2.57281c0.62368,1.76214 -0.93662,5.20999 -1.95105,8.70637c-0.64488,2.22268 -0.76666,4.33436 -0.99866,6.4583c-0.40567,3.71366 1.61196,13.75887 1.52922,14.04452c-0.08697,0.30024 -2.60944,0.78118 -2.40113,1.50519c0.1825,0.63432 3.38283,4.14063 3.37002,4.73246c-0.02567,1.1874 0.62054,3.42108 -0.19872,5.05182c-3.68879,7.34253 -14.79133,16.92004 -14.89838,16.64478c-0.0774,-0.19896 5.0132,10.63691 11.7126,20.10062c6.26494,8.85001 13.70812,16.16062 15.44491,18.46439c0.95495,1.26671 -2.15489,6.50002 -4.90386,11.47129c-2.07852,3.75879 -3.68656,7.56419 -4.68067,7.67531c-2.96929,1.09946 -10.69305,0.91034 -20.77115,-0.27824c-11.50356,-1.35668 -23.5359,-4.73071 -24.53441,-4.67119c-1.74466,0.10397 -2.37788,3.61691 -3.17217,4.64498c-1.41519,1.83175 -2.29639,1.70484 -3.44182,2.58369c-1.03494,0.79408 -4.15329,-2.29138 -5.35669,-2.20918c-0.78278,0.05348 -2.91149,3.08729 -4.06403,2.749c-3.76355,-1.10467 -4.16375,-6.45018 -4.139,-6.39355c0.04251,-0.05611 -2.22603,-1.03163 -4.86577,-2.43748c-2.95536,-1.57393 -6.33339,-3.57539 -6.6043,-3.19678c-0.72061,1.00709 -16.99234,11.77788 -22.57727,11.63851c-3.77462,-0.24848 -3.57827,-2.83553 -3.8731,-4.58605c-0.11543,-0.68535 -0.82619,-1.68727 -1.05349,-1.60877c-2.98082,1.02943 -22.24889,11.86906 -26.15975,12.9317c-1.29401,0.3516 -3.3406,-0.01524 -4.13457,-0.01616c-2.27253,-0.00262 -6.66133,-10.69672 -8.25992,-11.34609c-0.48675,-0.19773 -6.83008,0.60552 -7.14703,0.89882c-0.90109,0.83387 -0.44675,2.22872 -2.22595,2.32554c-0.96852,0.05269 -3.48731,-0.97062 -4.01443,-1.61213c-1.29413,-1.57497 -1.79919,-4.47282 -2.01896,-4.46549c-1.02617,0.03431 -14.66483,-5.68453 -14.89506,-5.05517c-1.2877,3.52015 -5.74671,10.20894 -11.35909,12.30167c-6.29447,2.34706 -21.43725,3.93712 -30.34549,3.40329c-0.67856,-0.04066 -0.92348,1.80399 -1.51377,1.9667c-3.56823,0.9836 -4.58916,0.0598 -5.06713,-0.54353c-0.95307,-1.20301 -0.50128,-3.70027 -1.11875,-3.65035c-0.17753,0.01435 -1.94922,-0.68514 -3.57525,-2.12818c-1.97125,-1.74942 -4.08776,-4.42846 -4.57655,-4.42202c-0.45858,0.02352 -0.39989,2.54236 -0.8574,2.54827c-4.24244,0.0548 -11.73584,-1.91609 -19.29847,-1.60699c-5.2572,0.21487 -11.94127,1.1952 -12.72714,1.33784c-1.58569,0.28785 -7.37484,2.6385 -10.99242,3.50314c-3.60159,0.86081 -5.03398,0.23679 -5.56338,-0.02378c-0.27709,-0.13638 -1.53254,-2.34285 -1.91897,-5.1334c-0.7866,-5.68032 -0.72471,-14.05656 -0.75371,-14.25074c-0.14322,-0.95907 0.48966,-5.50874 1.94128,-7.38171c5.13048,-6.61964 17.63554,-13.97496 16.98227,-13.88665c-0.28779,0.03891 1.12845,-2.74734 1.49097,-4.94532c0.66071,-4.00583 0.61091,-8.59671 0.10675,-8.53765c-1.01997,0.1195 -2.71673,0.78159 -3.66664,0.86531c-4.34526,0.38296 -5.61636,0.66932 -8.05378,0.2043c-3.53352,-0.67415 -5.51083,-8.77173 -6.29485,-16.61714c-0.51197,-5.12311 -0.9977,-8.89406 -0.09316,-11.45234c0.26407,-0.74685 3.74717,-3.344 4.87551,-5.25902z" fill="#000000" stroke="none" stroke-width="0" stroke-linecap="butt"/><path d="M118.95295,173.79051c-2.5995,-0.04339 -13.61929,5.28308 -14.4227,4.06162c-0.56021,-0.85171 -1.89857,-12.25307 -0.86997,-15.97331c0.16756,-0.46928 0.91928,-1.35342 2.51864,-2.58913c3.32452,-2.56864 9.57956,-6.42588 16.7315,-9.61786c9.00962,-4.02107 18.96928,-7.41091 29.6577,-11.44894c4.39731,-1.66128 9.45282,-2.76079 14.68973,-3.80815c11.51543,-2.30306 22.97109,-3.5901 23.59508,-3.48005c1.85429,0.32708 1.60852,9.63349 1.7627,14.39734c0.30393,9.39162 -0.03231,19.94369 -1.66471,20.79937c-0.85591,0.44867 -17.01875,4.27448 -24.30745,4.43777c-1.81899,0.04075 -0.74439,-4.86137 -1.40516,-4.87699c-0.32722,-0.00774 -17.98547,1.58658 -19.35405,3.15374c-0.13865,0.15877 -0.26542,5.56152 -0.38925,5.72494c-0.82718,1.09167 16.15952,-2.47918 17.40202,1.42122c0.00742,0.02329 1.01062,16.52076 -1.07858,17.97623c-3.77943,2.63298 -11.36214,1.54317 -18.23172,3.10416c-1.01715,0.23112 -0.84161,6.19458 -1.84836,6.45633c-0.30948,0.08047 5.8326,-0.38269 6.53242,1.5108c0.68142,1.84367 0.35941,7.1037 0.12332,11.55401c-0.20165,3.80118 -0.15791,6.99644 -1.38305,7.1348c-0.51973,0.05869 -4.96466,-0.43503 -8.74379,-1.37495c-0.27434,-0.06822 -0.47439,-0.99236 -0.71245,-0.79389c-0.32955,0.27474 0.37475,2.74628 0.05894,3.12951c-0.68577,0.83217 -1.83369,1.19227 -2.87257,1.21481c-0.16598,0.00361 -1.7237,-0.407 -2.03808,-1.31351c-0.3364,-0.97001 0.43734,-2.48668 0.25287,-2.47861c-0.24817,0.01084 0.25376,-1.07251 -0.29995,-1.06246c-0.17917,0.00325 -0.64958,0.46029 -1.1164,0.77166c-0.3416,0.22785 -0.72177,0.33581 -0.78225,0.33997c-10.74538,0.73789 -24.5188,4.73129 -28.34472,5.76499c-1.19823,0.32374 -1.38365,-2.7342 -1.29335,-6.16253c0.03717,-1.41127 0.0366,-4.24354 0.16443,-4.7879c0.29023,-1.23588 3.45648,-4.16945 8.39892,-7.40734c4.71883,-3.09142 9.25593,-4.73763 9.72099,-5.68099c0.59102,-1.19895 1.73512,-5.60561 1.93936,-12.78234c0.10297,-3.61816 0.00018,-8.00938 -0.49183,-11.16196c-0.60434,-3.87249 -1.65408,-6.14831 -1.89827,-6.15238z" fill="#ffffff" stroke="none" stroke-width="0" stroke-linecap="butt"/><path d="M173.37192,203.748c0.59492,-0.61383 1.6608,-0.76318 6.81449,-0.67715c0.67413,0.01126 0.0634,-28.46314 0.47658,-29.2023c0.22144,-0.39616 1.03985,-1.87299 4.24638,-3.0421c7.56706,-2.75899 26.23568,-2.95231 27.30806,-1.5282c0.09911,0.13161 0.88038,21.67397 -0.04293,23.94385c-0.36657,0.90118 -5.42216,0.08752 -5.42109,0.2845c0.07846,14.59132 -0.18294,21.72822 -4.60013,28.65108c-1.47134,2.30597 -4.54022,5.1209 -6.81954,6.0543c-1.07509,0.44026 -2.15469,0.70833 -3.20855,0.8546c-0.19614,0.02722 -0.71391,-2.38694 -0.90808,-2.36782c-0.05407,0.00531 -0.51118,-0.19191 -0.5157,0.0567c-0.01004,0.55452 0.44582,2.2518 0.6198,3.319c0.21996,1.34914 0.15837,2.04384 0.01101,2.0627c-0.19868,0.9771 -1.26872,1.35114 -1.65034,1.30468c-0.28383,-0.03456 -1.06113,-0.40051 -1.3367,-0.81121c-0.6192,-0.92284 -0.8145,-1.92462 -0.63072,-2.6933c0.08611,-0.36015 0.67618,-0.81423 0.57653,-0.92007c-0.08761,-0.09306 -0.77893,0.33939 -1.56659,0.44333c-1.70816,0.22539 -6.01277,0.6058 -6.55025,0.59683c-3.35604,-0.05602 -14.73971,-0.0231 -14.75658,0.07732c-0.32666,0.17125 -1.30843,0.68696 -1.97296,1.46344c-0.44947,0.52521 -0.50671,2.02084 -0.57678,3.01731c-0.05239,0.74486 0.60286,1.88957 1.00009,3.10349c0.44952,1.37373 0.64034,2.8135 0.42431,3.4462c-0.29738,0.87414 -1.06522,1.76053 -1.56889,1.7919c-1.79634,0.11188 -1.90964,-1.91004 -2.0383,-3.04955c-0.08588,-0.76074 0.22079,-1.71125 0.44821,-2.55634c0.28949,-1.07569 0.44394,-1.93836 0.43899,-2.04805c-0.09828,-2.17963 -0.10101,-3.99483 -0.14304,-3.9495c-0.05924,0.06388 -0.43464,-1.36389 -1.14718,-1.72314c-0.39995,-0.20165 -1.02113,-0.60797 -2.09141,-0.90566c-1.1741,-0.32657 -2.81072,-0.54692 -3.43253,-0.80732c-2.3033,-0.96454 -2.34377,-1.62963 -2.46243,-2.0109c-0.20016,-0.64309 -0.09941,-14.0936 0.13442,-21.45306c0.07896,-2.48508 -0.08322,-4.65516 0.10786,-4.89291c0.15951,-0.19844 0.46462,-0.5246 2.26192,-1.02972c2.32237,-0.65268 5.71635,-1.19995 8.45735,-2.56672c0.18927,-0.09438 0.86571,-0.66522 1.01045,-1.32741c0.52342,-2.39486 0.25508,-7.41632 0.28568,-8.2981c0.03025,-0.87194 0.21024,-2.51875 1.16941,-2.81366c1.19421,-0.36718 3.97503,-0.34839 5.06777,-0.16628c0.70521,0.11753 0.9163,0.625 1.05535,0.69313c0.74662,0.36584 0.63295,5.56125 0.65784,5.81c0.2009,2.00729 0.51593,5.51892 0.57085,7.85175c0.09639,4.09439 0.06466,6.25451 0.29737,6.01439z" fill="#ffffff" stroke="none" stroke-width="0" stroke-linecap="butt"/><path d="M221.30541,138.41817c1.58792,-0.1267 10.053,26.75934 15.77459,38.90043c1.56243,3.31544 3.97883,5.34652 4.31558,5.39625c0.07958,0.01175 -2.966,-4.47507 -4.50059,-9.70479c-1.11251,-3.79132 -1.27923,-8.40768 -2.32536,-12.89129c-2.28285,-9.784 -5.32687,-19.36402 -5.00218,-20.75272c0.35592,-1.52218 2.95528,-3.26318 5.35661,-5.16162c2.44416,-1.93229 4.35862,-3.63586 5.00231,-3.57456c0.56036,0.05337 1.74955,1.57462 2.68887,2.69981c3.27966,3.92872 10.51435,12.57527 12.45326,16.38932c0.25894,0.50934 -1.43652,3.08662 -2.8692,6.82408c-1.14239,2.98019 -1.98512,6.72687 -2.50151,10.54125c-0.44403,3.27975 -0.13968,6.88237 -0.01123,10.07135c0.21782,5.40789 0.61282,9.77468 0.95711,10.43899c1.45168,2.80091 1.3819,10.68741 8.08067,18.576c1.52392,1.7946 4.71188,3.74797 7.75723,5.42025c3.58259,1.96729 7.16639,3.26209 8.72242,4.41754c0.71362,0.5299 0.21763,1.28777 0.12097,1.62947c-1.67589,5.92393 -20.84165,13.8587 -24.14485,15.84217c-0.58789,0.353 -0.55919,1.46553 -1.85838,1.53465c-0.41642,0.02215 -0.70432,-1.48698 -1.14227,-1.55497c-2.45113,-0.38057 -7.66541,-15.08895 -11.97888,-27.20098c-3.73911,-10.49931 -6.39278,-18.96033 -8.48747,-17.95216c-0.36879,0.1775 2.43352,9.68133 3.36486,16.21534c1.52337,10.68752 1.59717,20.46855 0.978,20.70739c-1.1107,0.42847 -2.71049,-1.41169 -3.769,-1.12554c-0.80625,0.21797 0.75768,5.25412 0.68504,7.51436c-0.08629,2.68497 -1.78064,2.63636 -2.66805,2.53343c-1.26195,-0.14636 -1.72033,-1.41934 -1.58765,-2.95131c0.14327,-1.65434 0.93966,-3.62949 1.1393,-5.34459c0.19315,-1.65932 -1.03134,-3.15088 -1.20916,-3.19593c-0.4106,-0.104 -2.27182,-1.21295 -4.50695,-1.78312c-3.81248,-0.97255 -8.69187,-1.6332 -9.16401,-2.16309c-0.71432,-0.80169 -0.06568,-20.7444 0.15541,-21.13401c0.53654,-0.94557 3.85012,-0.11664 3.81938,-1.25848c-0.13414,-4.9793 2.36773,-18.73403 0.13794,-27.35773c-0.16261,-0.62885 -0.89599,-1.24128 -1.10671,-1.81383c-0.16141,-0.43857 -1.03911,-0.86195 -1.84496,-1.07518c-3.98815,-1.05534 -13.89767,0.33247 -14.11182,-0.33608c-0.91327,-2.851 -0.12633,-5.05865 -0.1993,-8.10068c-0.14051,-5.85844 -0.73502,-12.06498 -0.15704,-13.46405c0.01855,-0.0449 1.39123,-0.94058 3.94504,-1.8436c5.67211,-2.00564 17.39446,-3.72846 19.69195,-3.91179z" fill="#ffffff" stroke="none" stroke-width="0" stroke-linecap="butt"/><path d="M252.5003,173.5998c0.37258,-4.7512 0.49392,-7.40344 2.73183,-13.44965c0.58101,-1.56971 2.74939,-8.25158 3.39412,-9.48581c0.15043,-0.28799 -0.03836,-1.8999 -0.79671,-3.83533c-0.8868,-2.26324 -2.36584,-4.88524 -2.1658,-5.08249c0.10257,-0.10114 4.62529,-2.45762 9.08538,-4.25163c2.19253,-0.88192 4.3457,-1.34995 5.99941,-1.88683c0.39442,-0.12805 0.83695,1.87412 1.41566,3.0891c1.6768,3.52047 4.17713,9.10402 4.14523,9.64682c-0.05029,0.85584 -4.67462,1.908 -6.80925,6.25381c-2.12065,4.31733 -1.75337,11.92972 -1.30066,12.40174c0.04583,0.0478 1.16111,-2.03046 3.58056,-4.68485c3.43511,-3.76868 9.93737,-9.27129 14.4942,-13.78175c4.02134,-3.98039 6.24372,-7.6152 7.64982,-8.32654c0.3565,-0.18034 5.37457,11.22865 7.68061,18.18553c0.62017,1.87092 1.02738,2.80473 1.00555,4.4551c-0.00675,0.50981 -1.6453,0.49608 -1.71998,0.53128c-2.30224,1.08518 -7.13502,3.77525 -11.51728,6.67906c-3.77128,2.49897 -6.64437,5.45386 -6.21595,5.4868c1.04358,0.08022 4.02129,-1.19352 6.75396,-1.7873c2.19923,-0.47785 6.16614,-1.22443 7.7023,-1.20716c1.41791,0.01595 1.93009,1.49756 2.86293,4.55176c0.83927,2.74787 2.10139,6.8397 3.25804,11.06528c0.60058,2.19404 2.25312,5.14733 2.96501,7.44408c1.96992,6.35542 2.99568,11.68058 2.57631,12.62125c-0.28242,0.63345 -0.57514,1.92443 -1.22855,2.83935c-1.36811,1.91558 -3.85182,3.9214 -7.86595,6.99179c-3.96841,3.03541 -9.46488,6.26426 -13.73522,8.36951c-2.35487,1.16093 -4.05044,2.33456 -5.19314,2.31549c-1.7473,-0.02916 -0.12172,-1.77839 0.24453,-6.42352c0.53089,-6.73314 0.79008,-14.90478 0.58736,-23.22841c-0.07873,-3.23294 0.11827,-8.59311 -0.28138,-10.75842c-0.21261,-1.15181 -9.20802,-0.20077 -9.95663,0.05387c-0.38881,0.13226 -1.01499,1.56837 -1.7303,4.12981c-1.2471,4.46567 -2.56166,10.89974 -2.66085,10.89305c-0.22068,-0.01484 -1.53251,-0.57095 -2.80385,-1.47835c-3.10095,-2.21326 -6.99794,-6.86383 -8.91653,-10.43162c-3.04109,-5.65518 -3.79188,-10.8007 -3.23479,-17.90481z" fill="#ffffff" stroke="none" stroke-width="0" stroke-linecap="butt"/><path d="M316.75717,147.1008c-0.6808,0.95973 -1.94782,2.36278 -3.7699,3.7627c-2.47935,1.90491 -5.70645,3.80865 -7.28832,4.62497c-0.57857,0.29857 -1.55179,0.12714 -1.62896,0.11608c-0.99633,-0.04567 -1.57214,-1.99847 -2.4915,-4.26011c-1.34526,-3.30937 -2.58901,-7.2815 -2.57743,-7.97507c0.00713,-0.42738 -0.63893,-4.37699 0.07787,-5.05136c0.48426,-0.45557 1.49823,-0.73129 3.07702,-1.18472c0.9303,-0.26719 2.05854,-0.7034 3.38523,-0.98571c4.12272,-0.87731 11.10568,-1.48603 12.22416,-0.63032c0.24916,0.19062 0.23718,3.39541 0.04183,6.85103c-0.09866,1.74529 0.01581,3.23004 -1.05001,4.73252z" fill="#ffffff" stroke="none" stroke-width="0" stroke-linecap="butt"/><path d="M314.70813,176.67674c0.21242,0.98719 1.97754,7.02666 4.39547,12.97646c2.57567,6.33793 5.85407,12.63988 7.50069,14.849c2.30138,3.08754 6.1213,5.55131 6.92462,7.63154c0.22991,0.59533 -0.0956,1.80706 -0.10314,2.20128c-0.03474,1.81422 -1.26125,5.2253 -2.47076,8.22809c-0.80844,2.00708 -1.41071,4.30276 -2.23783,4.52254c-0.85033,0.22595 -4.91593,-1.75239 -6.61722,-1.91518c-2.17996,-0.20857 -2.13193,1.15587 -2.23614,1.52434c-0.28483,1.00704 1.1731,5.71504 1.19668,6.82829c0.06979,3.29563 -0.55429,2.9479 -1.86471,3.05356c-2.7318,0.22028 -1.50124,-3.89847 -1.65785,-3.84064c-0.0722,0.02666 0.57933,-2.3671 0.69349,-4.40276c0.14749,-2.62973 -0.2285,-5.05891 -0.32439,-5.04429c-0.10758,0.01641 -1.91647,-0.62535 -3.4581,-1.41617c-2.22731,-1.14255 -4.43306,-2.6052 -4.64162,-2.91875c-0.29487,-0.44331 -0.10068,-0.84627 0.25382,-2.03785c0.43136,-1.44993 1.29725,-3.486 1.81967,-5.28311c0.56874,-1.95645 0.88863,-3.64165 0.75434,-3.67533c-0.18241,-0.04575 -1.66891,-5.49871 -3.45404,-12.01251c-0.50649,-1.84813 -1.09245,-3.48019 -1.61159,-5.46762c-2.37864,-9.106 -7.77432,-18.79269 -6.62005,-21.78049c0.39444,-1.02097 1.68764,-2.36432 2.98046,-3.41858c2.58512,-2.10811 6.29174,-4.68568 7.03048,-4.76342c1.20871,-0.1272 1.22163,4.67194 1.92387,9.47827c0.35493,2.42918 1.26607,4.0911 1.82384,6.68331z" fill="#ffffff" stroke="none" stroke-width="0" stroke-linecap="butt"/><path d="M347.33462,220.21018c-0.10235,0.25498 -2.4789,-0.23715 -4.88324,-1.03762c-1.24496,-0.41448 -2.78198,-0.91638 -3.41347,-1.42998c-0.03363,-0.02735 -0.37607,-3.08303 -1.3348,-7.11753c-0.60556,-2.54835 -1.51601,-5.2993 -2.33035,-8.03383c-1.38487,-4.65036 -3.59482,-10.11057 -5.02942,-13.6189c-1.18321,-2.89352 -1.63435,-7.11181 -2.74461,-7.00407c-0.34388,0.03337 -0.04287,2.95439 -0.0988,3.98033c-0.23841,4.37176 1.16805,13.34283 0.94262,13.2349c-0.00704,-0.00337 -2.23861,-1.83551 -3.26614,-3.5321c-2.83499,-4.68089 -7.49666,-15.38536 -7.50093,-15.40993c-0.00454,-0.02613 -1.11266,-2.55571 -1.59707,-5.08944c-1.33968,-7.00743 -3.03746,-19.34975 -2.73313,-19.49667c0.18903,-0.09125 6.4225,-12.05584 8.92768,-13.93896c0.65921,-0.49552 3.87703,-0.89983 6.49315,-1.50384c4.24111,-0.97916 8.62815,-2.03429 8.90381,-1.90945c0.84052,0.3807 0.3461,10.66325 0.09491,14.07485c-0.04859,0.65988 -5.04958,2.48552 -5.03197,3.14675c0.15839,5.94837 5.25437,14.44349 5.41413,14.31814c0.11602,-0.09103 -0.18655,-3.90154 0.48985,-9.00967c0.72858,-5.50224 2.48848,-12.45261 4.09165,-16.21162c0.2807,-0.65815 0.77428,-1.42173 1.45659,-1.65214c0.979,-0.33061 4.34614,-0.06273 7.25263,-0.06157c0.26238,0.0001 2.96083,-0.74436 4.01703,-0.10619c0.33814,0.20432 0.57416,1.0928 1.45477,2.03429c1.63026,1.74294 4.232,3.98298 5.05261,4.62466c1.24946,0.97703 2.12408,2.32035 3.2448,3.1954c4.14162,3.2337 7.46821,5.2605 7.35476,6.15651c-0.35916,1.40699 -4.34302,5.29291 -7.8675,8.60574c-2.7872,2.61983 -5.20183,4.95188 -5.90451,4.9234c-0.47578,-0.01927 -2.46981,-2.23375 -3.8979,-3.62491c-0.73401,-0.71503 -1.59299,-1.0473 -1.44661,-1.09711c0.03863,-0.01316 -0.03751,0.53773 0.07255,0.96828c0.24423,0.95525 0.84095,2.57624 1.64789,5.03562c0.54474,1.66026 1.10624,3.55404 2.13557,5.54392c3.0492,5.89458 7.08497,13.60366 11.23429,19.76982c2.90942,4.32356 6.11433,7.58753 8.04579,10.22716c0.88378,1.20784 3.00647,3.88353 5.14029,6.41664c2.05561,2.44027 4.13157,4.74508 4.60293,5.64073c0.35075,0.66647 -3.61202,4.56224 -3.68609,5.00344c-0.04427,0.26367 -2.55694,0.28076 -5.45706,0.0052c-2.75739,-0.262 -5.44271,-0.79642 -9.44988,-1.52778c-1.66768,-0.30438 -6.8328,-0.3075 -8.24062,-0.61594c-0.93295,-0.20439 -3.07268,-1.16785 -3.78038,-1.33371c-1.34855,-0.31604 -3.67734,-0.44809 -3.72315,-0.531c-0.0747,-0.13522 -0.36509,-1.66692 -0.55277,-1.94356c-0.24776,-0.36521 -0.34042,0.77364 -0.35361,0.95794c-0.05901,0.82296 0.2243,2.6855 0.08752,3.24925c-0.24578,1.01304 -1.16542,1.23644 -1.67497,1.23909c-0.71867,0.00372 -1.33684,-0.20367 -1.68933,-0.61409c-1.28623,-1.49766 -0.41451,-5.03741 -0.46949,-4.90043z" fill="#ffffff" stroke="none" stroke-width="0" stroke-linecap="butt"/><path d="M371.94847,138.35434c-0.07054,4.2262 0.62556,9.70965 -0.08287,10.01828c-0.84361,0.36753 -2.05122,0.19844 -3.28237,0.26936c-1.40965,0.08119 -3.22532,0.1426 -3.34729,0.13255c-0.96907,-0.07971 -1.42817,-1.45662 -2.25861,-2.48781c-1.36598,-1.69618 -5.99643,-11.02535 -5.92888,-15.07208c0.04222,-2.52916 1.99676,-3.1799 4.65082,-3.94479c2.01956,-0.58201 4.12351,-0.78825 6.39619,-1.02944c2.42471,-0.25732 4.99772,-0.52917 6.42069,-0.5054c1.95488,0.03263 0.54921,1.97995 -0.31601,3.80594c-1.13066,2.38616 -2.19014,5.12723 -2.25166,8.81338z" fill="#ffffff" stroke="none" stroke-width="0" stroke-linecap="butt"/><path d="M159.20366,107.00494c2.25993,-0.1945 3.99932,0.75428 4.65368,2.01193c0.40473,0.77787 -3.1255,9.82084 -3.46009,10.90079c-0.09012,0.29087 -1.38232,0.0334 -2.92199,-0.47624c-1.97983,-0.65533 -4.37201,-1.53664 -5.17737,-0.18693c-0.35716,0.59855 0.47456,10.32398 0.48158,10.42701c0.04606,0.67541 0.86225,2.39383 0.34516,2.96952c-1.07885,1.88281 -8.83231,4.87431 -9.73479,3.11129c-0.79991,-1.56269 -0.32718,-10.13155 -0.40221,-13.20923c-0.03148,-1.2909 -0.80146,-6.82754 -0.64189,-7.26623c0.5658,-1.55529 3.83905,-2.53072 5.11957,-3.05759c1.31974,-0.543 1.47361,0.79903 2.37467,0.88782c0.60992,0.06011 2.12926,-2.35191 2.62907,-2.8833c1.06416,-1.13138 2.08943,-1.90989 3.28553,-2.42132c1.09985,-0.47028 2.36646,-0.71437 3.44906,-0.80755z" fill="#45aeff" stroke="none" stroke-width="0" stroke-linecap="butt"/><path d="M173.10439,111.74922c-0.02873,1.72173 -0.04271,16.85783 -1.79134,16.82864c-1.74864,-0.02919 -12.56198,2.38958 -12.54464,1.34978c0.00281,-0.16883 -0.78644,-1.74764 -0.66731,-2.14727c0.32548,-1.09194 2.58956,-3.29458 3.58724,-5.20048c0.68533,-1.30918 1.5503,-2.93231 2.18114,-4.44268c1.54229,-3.69258 2.66854,-7.51707 3.45536,-7.50394c1.74864,0.02918 5.80828,-0.6058 5.77954,1.11593z" fill="#45aeff" stroke="none" stroke-width="0" stroke-linecap="butt"/><path d="M176.259,107.02194c0.31144,-1.4 6.11181,-8.68702 10.21772,-13.97709c2.61605,-3.37055 3.99609,-5.81352 4.60496,-5.7851c0.08875,0.00414 1.47486,-0.25143 1.70864,-0.08165c2.40558,1.74704 7.70375,12.07147 8.23919,13.89175c0.60885,3.49047 -1.21018,19.20235 -2.92694,21.14249c-1.5209,1.7188 -9.4937,5.4758 -15.28015,6.89108c-4.13073,1.01032 -7.65422,1.04731 -7.94574,1.01713c-1.24737,-0.12908 -1.01889,-3.6877 -0.62482,-7.92549c0.57391,-6.17179 1.73386,-13.94459 2.00714,-15.17312zM188.14639,116.21859c0.28914,0.12549 5.01809,-4.01967 5.33277,-5.92292c0.1975,-1.19455 -0.48469,-7.92244 -1.21246,-7.8711c-0.18336,0.01292 -0.82793,0.70152 -1.25237,1.605c-0.85349,1.81677 -1.68131,4.70336 -2.13006,6.11868c-0.36594,1.15413 -1.53141,5.72592 -0.73788,6.07033z" fill="#45aeff" stroke="none" stroke-width="0" stroke-linecap="butt"/><path d="M192.70901,128.36549c-0.02677,-0.36629 7.22226,-4.27163 7.96314,-7.14347c0.95596,-3.70553 2.25107,-11.98358 2.08468,-16.77688c-0.08517,-2.45327 -2.29132,-8.37541 -3.49472,-11.03305c-0.44806,-0.98948 1.47505,-3.24151 1.72073,-3.46934c0.57528,-0.53351 3.31682,0.80581 6.62795,2.28745c4.34348,1.94358 9.17838,4.03389 9.27065,5.08304c0.02488,0.28298 1.16395,1.52368 1.1827,5.40586c0.03814,7.89093 -0.02192,27.21654 -0.65199,27.80344c-0.77783,0.72455 -7.94826,1.4766 -8.31514,1.47795c-0.15253,0.00055 0.29879,-2.40846 0.38614,-4.78416c0.08697,-2.36571 -0.19022,-4.69844 -0.24971,-4.56029c-0.13461,0.31254 -0.64351,-0.1568 -0.77874,0.15183c-0.58837,1.34259 -1.11726,2.58261 -1.70867,3.81958c-4.18117,8.74493 -8.23639,13.1599 -8.70719,13.22701c-1.1281,0.16085 -5.10163,-8.3667 -5.32981,-11.48897zM210.13968,111.99746c0.21713,0.0395 2.11161,-3.03977 2.08583,-3.74578c-0.02426,-0.66382 -3.12125,-2.66813 -3.38763,-2.50724c0,0 0.46533,1.79715 0.76921,3.4633c0.26017,1.4265 0.34758,2.75606 0.53258,2.78972z" fill="#45aeff" stroke="none" stroke-width="0" stroke-linecap="butt"/><g fill="#45aeff" stroke="none" stroke-width="0" stroke-linecap="butt"><path d="M177.22292,94.78554c-0.04363,0.25162 -2.71872,1.25557 -5.25419,1.84032c-1.16723,0.2692 -2.95303,0.9375 -2.99347,0.64356c-0.05903,-0.42915 -0.02112,-3.33322 0.33717,-6.33976c0.22204,-1.86326 0.18521,-3.91299 0.36773,-4.21901c0.18218,-0.30548 1.91854,-0.71447 3.38479,-1.30362c1.40894,-0.56611 3.46639,-1.21849 4.42776,-0.9605c0.22988,0.01913 0.15722,2.36518 0.07209,5.1569c-0.052,1.7049 -0.03379,3.40525 -0.34191,5.18211z"/><path d="M172.38844,107.07982c-0.72054,0.23946 -4.12913,-3.6684 -4.17434,-4.045c-0.01396,-0.11625 0.04274,-3.91021 0.5725,-4.38077c1.07126,-0.95157 8.21346,-3.10643 8.37822,-2.84875c0.14393,0.2251 0.34232,3.21667 0.31089,5.09982c-0.00703,0.42182 -4.52271,5.98708 -5.08726,6.1747z"/><path d="M162.08959,93.6207c0.0136,-0.8146 0.49046,-1.82454 1.23028,-3.06623c0.44189,-0.74168 0.98136,-1.79159 1.56149,-2.30664c1.51116,-1.34162 3.25236,-1.25925 3.63651,-1.04561c0.12634,0.05456 -0.40359,9.98007 -0.77697,10.40967c-0.23174,0.26664 -2.91102,0.90658 -3.04307,0.83141c-0.35304,-0.13182 -2.65112,-2.25401 -2.60825,-4.82257z"/><path d="M166.91382,101.76916c-0.16711,-0.01847 -0.76411,-0.66489 -1.12807,-1.22656c-0.29521,-0.45557 -0.21184,-0.697 -0.20712,-0.98025c0.00138,-0.08289 1.16585,-0.44845 1.84052,-0.56699c0.37131,-0.06524 0.42466,0.03323 0.4522,0.08619c0.03061,0.05885 -0.33829,1.95968 -0.4582,2.2416c-0.11613,0.27303 -0.41736,0.45508 -0.49933,0.44602z"/><path d="M166.17377,85.92533c-0.06959,-0.10672 0.01423,-0.44827 0.28271,-0.80752c0.19726,-0.26395 0.78244,-0.88921 0.90395,-1.12693c0.49041,-0.95952 0.64197,-1.46232 0.85244,-1.48776c0.08454,-0.01022 0.29404,0.31303 0.46174,0.80412c0.22223,0.65077 0.37181,1.55266 0.06719,1.93652c-0.56992,0.75445 -2.36671,0.99022 -2.56801,0.68157z"/><path d="M181.02731,81.86048c-0.62208,0.81224 -2.15504,0.963 -2.52769,0.80461c-0.1677,-0.07128 -0.34471,-1.33648 -0.22659,-2.53178c0.0725,-0.73368 0.28684,-1.59991 0.48215,-1.61037c0.91342,-0.04892 2.62635,2.87505 2.27213,3.33755z"/><path d="M177.6628,77.37615c0.04359,0.24526 0.17294,5.42635 -0.18176,5.54962c-0.15171,0.05272 -1.56751,0.37413 -3.24699,0.83357c-1.81513,0.49654 -3.91256,1.12946 -4.33737,1.06449c-0.31554,-0.04825 -0.62075,-3.5413 -0.38227,-4.56889c0.14967,-0.64494 1.32282,-1.9498 2.137,-3.00742c1.22753,-1.59458 2.36922,-2.97741 2.69933,-2.98982c1.14632,-0.04309 3.23345,2.67624 3.31206,3.11845z"/><path d="M181.60647,95.5507c-0.04895,0.34425 -1.95247,2.64604 -2.50662,2.63679c-0.33819,-0.00565 -0.137,-2.82578 -0.03375,-3.15443c0.0722,-0.22983 2.08691,-0.5648 2.51484,-0.54127c0.35452,0.01949 0.15315,0.16136 0.02553,1.05891z"/><path d="M185.58968,89.08227c-0.07516,0.38129 -0.63363,2.03387 -2.26842,3.23896c-1.49038,1.09865 -3.98316,1.64605 -4.3508,1.51668c-0.6583,-0.23166 -0.81978,-8.78562 -0.67701,-9.51978c0.14136,-0.72695 2.986,-1.51004 3.59997,-1.39702c0.37349,0.06876 0.89569,1.34117 1.75313,2.77527c0.8422,1.40863 2.02391,2.97624 1.94315,3.38588z"/></g><path d="M226.05536,109.66189c0.10188,-0.00629 1.22584,-2.63132 2.12261,-4.74569c1.20993,-2.85269 2.09261,-5.56126 2.56185,-5.70177c1.05347,-0.31544 3.63483,1.88632 6.34909,4.23144c1.61698,1.39708 4.09028,3.15858 4.08596,3.60501c-0.0051,0.52802 -4.45508,4.674 -8.31048,8.10872c-2.76133,2.46003 -5.2182,4.58752 -5.51603,4.61028c-0.55226,0.0422 0.26979,6.28423 0.35807,6.82746c0.00167,0.01027 1.10512,0.75101 2.20088,0.68804c1.92919,-0.11086 4.0335,-1.10201 4.17964,-0.85066c0.10692,0.1839 2.21251,2.49849 2.15008,2.74411c-0.18048,0.71024 -1.54125,1.83182 -3.22776,3.28234c-3.51326,3.02172 -8.65075,6.80181 -8.95372,6.57182c-0.44909,-0.3409 -4.60282,-3.54835 -4.71327,-4.11984c-0.51916,-2.68609 -0.06694,-9.6526 0.01013,-16.56345c0.00604,-0.54232 -0.01056,-17.90518 0.0096,-20.12909c0.00563,-0.62132 -0.96724,-2.16761 -2.04335,-2.98318c-1.26543,-0.95906 -2.59719,-1.19277 -2.73057,-1.40506c-0.7636,-1.21538 -0.12032,-3.58917 0.64003,-3.92333c1.17359,-0.51577 2.23531,-0.14361 3.66861,-0.08465c1.82817,0.0752 4.23119,0.1714 5.8826,0.48285c1.40618,0.2652 2.54318,0.25646 2.90955,1.39654c0.38789,1.20708 -0.04315,3.59784 -0.26435,5.09666c-0.33356,2.26023 -0.95175,4.40353 -1.15045,6.71904c-0.30497,3.55385 -0.21877,6.14242 -0.21877,6.14242z" fill="#45aeff" stroke="none" stroke-width="0" stroke-linecap="butt"/><g stroke="none" stroke-width="0" stroke-linecap="butt"><path d="M140.15081,138.40345c-2.00995,1.00704 -29.31529,14.75083 -30.90947,13.94539c-0.37959,-0.19179 -0.95528,-2.07103 -0.95291,-4.55304c0.00483,-5.02594 1.17834,-12.93318 2.68512,-14.05643c5.69058,-4.24211 8.803,-4.22306 9.40913,-5.50815c0.45961,-0.95341 3.60687,-13.61023 5.9691,-23.98217c1.35584,-5.95316 2.33948,-11.84714 2.80524,-12.45343c3.66471,-4.77043 31.67492,-13.77029 34.85851,-12.92411c0.27837,0.07399 0.97771,0.20895 1.29014,0.68924c0.20693,0.31812 0.07991,1.25754 -0.00045,1.61463c-0.36381,1.61688 -1.97982,4.08398 -3.3336,6.54637c-1.91987,3.49207 -3.70203,6.96813 -3.99621,7.94015c-0.27149,0.89708 -6.05238,2.2287 -8.87987,2.81039c-1.31107,0.26972 0.36792,-2.19767 -1.61177,-1.98641c-0.18833,0.0201 -6.71479,2.83847 -7.58581,3.45762c-0.4262,0.30294 -0.57308,3.93393 -0.53898,4.02058c0.07825,0.19882 2.15925,-0.29812 4.59636,-1.22012c2.4119,-0.91246 6.00229,-1.99855 6.15251,-1.81787c0.28535,0.34324 0.39853,3.69862 0.35633,6.05999c-0.02472,1.38305 0.15026,2.32222 -0.10683,2.44934c-1.1857,0.58633 -3.77819,1.20421 -7.35462,2.71282c-2.35513,0.99346 -4.56725,2.46683 -4.54642,2.63945c0.5013,4.96771 0.32314,9.30872 0.7025,13.25063c0,0 0.62663,4.86916 0.81933,6.66795c0.16606,1.55003 0.17263,3.69722 0.17263,3.69722z" fill="#39a6f7"/><path d="M150.50269,109.0335c0.01047,0.27801 -5.01774,2.5494 -11.32154,4.73882c-7.29062,2.53217 -16.00573,5.24294 -16.00573,5.24294l2.62897,-12.61019c0,0 2.97674,-0.43039 6.42503,-1.36204c3.20008,-0.86459 6.71536,-1.81532 6.94836,-1.85818c0.2258,-0.04153 -0.1947,0.74509 0.22214,1.02145c0.05673,0.03762 2.89639,-1.00046 5.53786,-1.9591c0,0 2.7262,-0.9021 4.25724,-1.11649c0.47867,-0.06702 0.88233,-0.0236 0.99562,0.08009c0.46458,0.4252 0.30237,7.56502 0.31207,7.82268z" fill="#45aeff"/><path d="M140.2182,138.31004c-0.07507,0.08004 -3.09864,1.51008 -7.37255,3.51018c-3.5135,1.64425 -7.90652,3.69032 -11.90416,5.54606c-3.43753,1.59573 -7.29116,3.61606 -9.31671,4.43482c-1.32213,0.53442 -1.6585,0.54761 -1.88529,0.50282c-0.50441,-0.0996 -1.51579,-1.08312 -1.56865,-2.68249c-0.16074,-4.86384 1.51929,-13.89978 1.53189,-14.04915c0.02442,-0.28958 0.88287,-1.48758 1.67022,-2.21275c0.73675,-0.67855 3.63741,-1.85036 4.71798,-2.69616c1.38775,-1.08623 3.24367,-1.61289 4.15434,-2.51111c1.22409,-1.20738 1.05846,-2.64844 1.13494,-2.82493c0.25644,-0.59161 3.94241,-1.49007 7.86538,-2.7115c4.25162,-1.32376 8.99336,-2.94677 9.37174,-2.90931c0.26503,0.02624 0.36685,5.97597 0.78701,11.37727c0.25198,3.23932 1.10712,6.91354 0.81385,7.22625z" fill="#45aeff"/></g><g stroke="none" stroke-width="0" stroke-linecap="butt"><path d="M281.7677,89.01766c0.22297,0.32317 -0.28409,1.9229 -1.15173,3.59618c-2.03247,3.91963 -6.07713,10.25007 -7.59248,15.92232c-2.87575,10.76453 -1.78333,21.19068 -2.10346,21.58078c-0.31527,0.38417 -2.23799,0.90028 -4.46611,1.79046c-3.16821,1.26575 -6.94778,2.92213 -7.54914,2.89187c-0.67346,-0.03388 -1.48457,-2.63457 -2.88999,-4.90818c-1.73806,-2.81175 -4.04878,-5.40195 -4.12241,-5.34101c-0.20249,0.16761 0.84364,3.73209 1.09742,6.86898c0.15954,1.97216 0.87405,4.29773 1.03126,6.02523c0.22147,2.43352 -0.58344,3.67741 -0.69593,3.67591c-0.68484,-0.00914 -4.68324,-4.49483 -8.19802,-8.5513c-3.03782,-3.50599 -6.13391,-6.6078 -6.20525,-7.30568c0,0 0.92997,-1.04761 0.81399,-4.28348c-0.11962,-3.33773 -1.28139,-8.78139 -0.9158,-9.04817c0.13548,-0.09887 4.86448,-4.54132 5.68171,-4.53839c0.37086,0.00134 -8.32626,-7.18188 -7.90391,-7.11265c0.30104,0.04936 -1.55756,-2.84801 -2.29955,-5.89369c-0.70893,-2.90996 -2.19012,-6.72254 -1.38115,-7.90129c1.49815,-2.18297 11.56997,7.0225 16.79487,13.5367c1.68965,2.10658 8.52664,12.18498 8.59678,12.00102c0.25014,-0.65605 0.11879,-6.94452 1.21351,-12.66667c0.77506,-4.05126 2.88011,-8.16286 2.99861,-8.26466c3.06955,-2.63687 19.01072,-2.4164 19.24676,-2.07429z" fill="#45aeff"/><path d="M277.46156,98.4802c0,0 -1.97528,3.44818 -2.57761,4.9318c-0.65197,1.60592 -1.62691,4.35873 -1.62691,4.35873l-14.8571,4.10407c0,0 0.04499,-0.92574 0.07963,-1.63904c0.06516,-1.34112 0.28151,-5.79391 0.28151,-5.79391z" fill="#39a6f7"/><path d="M239.35312,117.60125c0,0 -0.04119,-1.45337 -0.2013,-2.66892c-0.17858,-1.35595 -0.47472,-2.50234 -0.40203,-2.77985c0.06318,-0.24116 3.7751,-2.36779 4.88681,-2.90805c4.01732,-1.95227 10.03141,-3.21968 10.03141,-3.21968l0.32315,-0.10267c0,0 1.73773,2.48794 2.30559,3.44152c0.56844,0.95461 1.98133,2.58316 1.98133,2.58316z" fill="#39a6f7"/></g><g stroke="none" stroke-width="0" stroke-linecap="butt"><path d="M276.27898,107.50866c0.23302,-1.03611 0.84934,-1.95338 1.33029,-2.91083c1.72085,-3.42586 4.50152,-6.19443 6.73577,-6.29684c1.29397,-0.05931 7.7181,9.66869 7.49214,10.89733c-0.19164,1.04199 -5.95028,5.25612 -7.37978,5.21529c-0.69149,-0.01977 -2.95929,-1.11503 -4.69017,-2.47747c-2.1091,-1.66017 -3.65235,-3.69779 -3.48826,-4.42745z" fill="#45aeff"/><path d="M280.12608,100.67328c1.26346,-1.48818 2.42735,-2.3505 4.02659,-2.69685c0.59816,-0.12954 1.41643,0.66253 2.34018,1.9434c1.12086,1.5542 2.30651,3.71666 2.30651,3.71666c0,0 -4.09263,0.9601 -6.14078,1.4748c-2.08679,0.52442 -6.35649,1.89957 -6.35649,1.89957c0,0 1.20696,-2.32991 1.8634,-3.41782c0.61561,-1.02026 1.9606,-2.91974 1.9606,-2.91974z" fill="#39a6f7"/></g><g stroke="none" stroke-width="0" stroke-linecap="butt"><path d="M277.27761,143.99257c-0.69056,0.11397 -3.55304,-6.39015 -4.27445,-9.729c-0.26882,-1.2441 -0.33451,-2.48494 -0.16693,-3.97164c0.14341,-1.27214 0.50653,-2.80285 0.51411,-3.79426c0.00218,-0.2851 1.94281,-6.57401 2.06948,-7.07653c0.57379,-2.27649 0.65134,-4.49037 0.65134,-4.49037c0.69461,-0.6383 1.65409,-0.68553 1.8868,-0.67771c0.54853,0.01845 2.54698,0.80126 4.69236,2.67404c0.3794,0.58066 -1.1031,9.6375 -0.82404,10.39849c0.30262,0.82521 5.59596,4.5785 5.66929,5.2203c0.24542,2.14805 -1.46555,5.65846 -2.98081,7.1983c-0.94771,0.96309 -2.4105,2.33615 -4.16777,3.23585c-1.05237,0.5388 -2.53143,0.9237 -3.06935,1.01248z" fill="#45aeff"/><path d="M276.98266,144.1161c0,0 -0.94328,-1.60712 -1.306,-2.36388c-0.2991,-0.62404 -0.7165,-1.85573 -0.7165,-1.85573l10.85283,-2.36025c0,0 -0.13722,0.71241 -1.35089,1.9921c-1.33294,1.40544 -3.78827,3.41585 -4.64164,4.05174c-1.07124,0.79822 -2.83782,0.53602 -2.83782,0.53602z" fill="#39a6f7"/></g><g stroke="none" stroke-width="0" stroke-linecap="butt"><path d="M293.70064,109.9303c0.43473,-1.37757 -9.73776,-16.96292 -9.36054,-17.40399c1.30462,-1.5255 7.66154,-7.22076 8.98929,-7.50772c0.332,-0.07175 2.67747,2.3132 6.00334,4.70295c6.1442,4.41479 14.8646,10.3145 14.97358,11.02897c0.129,0.84553 -1.13653,3.51798 -1.27478,5.72485c-0.32848,5.24335 -0.0039,12.17116 -0.41827,12.37497c-0.39189,0.19274 -2.08691,0.29691 -3.65123,0.16705c-1.85213,-0.15374 -3.61252,-0.5693 -4.11234,-0.61112c-0.42148,-0.03526 -0.67014,-2.56883 -1.17446,-4.74111c-0.38498,-1.6582 -1.08309,-3.10862 -1.14806,-3.06032c-0.69073,0.51341 -0.96742,17.61227 -0.52813,17.66785c0.20268,0.02563 3.37255,-0.41911 3.87221,-0.97973c0.25986,-0.29156 -0.06507,-1.48501 -0.06031,-1.52348c0.02014,-0.16308 -1.64572,0.45755 -1.7888,0.23305c-0.15835,-0.24849 -0.1761,-3.64484 0.14711,-4.05772c0.67283,-0.85953 3.66935,-0.81208 6.18237,-1.09991c1.66784,-0.19102 2.5914,0.17042 2.60748,0.29899c0.03535,0.28252 1.05558,1.34554 1.37826,2.61615c0.62869,2.47563 0.60546,5.93808 0.15868,6.03045c-0.8472,0.17516 -11.05881,2.1082 -18.36317,4.9526c-4.06727,1.58385 -8.3666,5.13726 -8.47771,5.06388c-0.37044,-0.24462 1.1275,-3.86922 1.75113,-7.22156c0.05256,-0.28254 0.22194,-1.12303 -0.64108,-1.91296c-1.03427,-0.94667 -3.07321,-1.85664 -3.06597,-2.22612c0.01963,-1.00438 -1.07837,-10.22398 -0.41575,-11.27222c0.40005,-0.63287 2.24459,-1.88484 3.83208,-3.17902c2.31083,-1.88386 4.51724,-3.84979 4.5851,-4.06481z" fill="#45aeff"/><path d="M287.6104,140.02545c-0.22272,0.03452 -0.27658,-0.25643 -0.17299,-0.74674c0.23779,-1.12552 1.08902,-3.09245 1.08902,-3.09245l7.44694,-1.3208z" fill="#39a6f7"/><path d="M290.38366,103.24813l-4.13041,-7.12866c0,0 3.87207,-1.60673 6.13044,-2.31395c2.59321,-0.81207 8.82867,-2.71305 8.82867,-2.71305c0,0 3.70637,2.64727 5.27825,3.74658c1.54554,1.08088 3.98505,3.05142 3.98505,3.05142z" fill="#39a6f7"/></g><g stroke="none" stroke-width="0" stroke-linecap="butt"><path d="M331.76441,109.03296c-0.04826,2.89109 0.95096,8.96219 2.73501,14.38038c0.87601,2.66048 2.68843,5.25917 3.20391,7.06042c0.5,1.74715 0.50599,3.05615 0.23707,3.04043c-1.78105,-0.104 -4.84423,0.79932 -7.87075,1.80657c-2.49525,0.83043 -5.57598,2.23446 -6.03112,2.55362c-0.1989,0.13947 -0.15178,-7.55244 -0.98726,-12.53656c-0.34896,-2.08167 -0.89103,-3.89411 -1.41065,-4.75811c-0.38671,-0.64303 -0.81231,-0.61486 -0.86284,-0.559c-0.94742,1.04744 0.14758,12.06069 -0.08615,12.01399c-1.1432,-0.22838 -3.83561,0.20694 -3.92514,-0.99737c-0.17248,-2.32012 -1.44423,-13.38519 -1.72556,-21.56265c-0.21447,-6.23365 0.29217,-10.2414 0.13439,-10.7183c0.01606,-0.70293 -8.90575,-6.50748 -8.76796,-7.97057c0.11884,-1.26193 7.93857,-5.77237 11.48505,-7.14323c1.17229,-0.45314 1.72336,0.57006 1.7604,0.55947c0.71412,-0.20434 3.18204,20.41102 3.25345,20.24305c0.06068,-0.14272 1.197,-4.68608 2.73389,-8.04306c0.92512,-2.02069 1.74978,-3.17712 2.05458,-3.13233c0.96414,0.14166 3.37294,0.70302 4.7051,2.04724c0.61824,0.62383 -0.50115,5.67479 -0.63537,13.71601z" fill="#45aeff"/><path d="M316.63057,129.1575l3.95918,-1.02016l0.07589,1.91209c0,0 -1.12289,0.46261 -1.6383,0.62394c-0.72674,0.22747 -2.22783,0.62343 -2.22783,0.62343z" fill="#39a6f7"/><path d="M323.84697,133.55995l13.29373,-4.58338c0,0 0.28201,0.5849 0.5236,1.35353c0.1882,0.5988 0.33962,1.35489 0.39361,1.73566c0.07882,0.55578 0.017,1.45126 0.017,1.45126c0,0 -3.62089,0.61569 -5.48012,1.15025c-1.04518,0.30052 -2.91149,1.01662 -4.48043,1.63353c-1.77346,0.69735 -4.04428,1.54532 -4.04428,1.54532c0,0 -0.1858,-1.39792 -0.22032,-2.06109c-0.03925,-0.75391 -0.00279,-2.22507 -0.00279,-2.22507z" fill="#39a6f7"/><path d="M313.29244,96.95523c0,0 -1.33294,-1.01015 -2.89665,-2.15287c-1.44106,-1.0531 -2.7948,-2.12805 -3.4162,-2.71362c-0.99071,-0.93359 -0.36647,-1.73826 -0.36647,-1.73826c0,0 4.65736,-2.22091 7.20593,-3.10939c2.24315,-0.782 6.31295,-1.70791 6.31295,-1.70791c0,0 1.06828,4.69771 1.1251,5.41021c0.1058,1.32653 0.17186,3.68769 0.17186,3.68769z" fill="#39a6f7"/><path d="M323.2578,126.94997c0,0 7.38573,-2.82067 9.28201,-3.5015c0.7846,-0.2817 1.7349,-0.63842 1.7349,-0.63842l1.0186,2.54632c0,0 -2.63715,0.28068 -4.33759,0.79456c-2.33754,0.70641 -7.47253,2.94241 -7.47253,2.94241z" fill="#39a6f7"/></g><g stroke="none" stroke-width="0" stroke-linecap="butt"><path d="M358.72862,101.55491c-0.80058,0.49146 -14.67068,0.57884 -14.60803,1.42783c0.42455,5.75199 11.30358,31.15623 10.89954,31.39373c-1.36011,0.79948 -14.84259,6.4761 -15.15067,6.45281c-0.84731,-0.06404 -0.14081,-11.21072 -1.50889,-22.73297c-0.81733,-6.88367 -1.76664,-13.18945 -2.79842,-17.72102c-0.34679,-1.52309 -0.914,-5.51006 -2.46878,-6.93784c-1.75824,-1.61462 -5.98588,-2.711 -5.9347,-2.88022c0.07516,-0.24847 -1.86419,3.90023 -2.34303,3.74805c-0.46102,-0.14651 -0.96984,-0.67516 -1.16116,-1.93126c-0.2532,-1.66251 -0.15643,-4.33368 -0.68363,-6.46863c-1.02479,-4.15 -2.14368,-7.59172 -1.98448,-8.00703c0.86092,-2.24599 36.77952,13.0732 38.93529,14.33603c0.63941,0.37456 0.12216,2.72747 -0.31672,4.98284c-0.39972,2.05402 -0.56763,4.14822 -0.87631,4.33769z" fill="#45aeff"/><path d="M338.64883,120.48909c0,0 3.80271,-1.27842 5.49923,-1.78805c1.59855,-0.48019 4.4912,-1.1852 4.4912,-1.1852l0.93115,2.3359c0,0 -3.27891,0.88954 -4.99212,1.50065c-1.85228,0.66071 -5.67408,2.0644 -5.67408,2.0644z" fill="#39a6f7"/><path d="M340.016,141.13846c0,0 -0.61677,0.1589 -0.64187,-0.19715c-0.10525,-1.49285 0.20531,-4.99036 0.12412,-6.89629c-0.06524,-1.53177 -0.33824,-6.08185 -0.33824,-6.08185l11.92867,-4.03874c0,0 3.05737,7.95247 3.62133,9.44752c0.17205,0.45609 0.33436,1.03897 0.33436,1.03897c0,0 -2.15252,1.04514 -4.99768,2.45166c-1.48205,0.73265 -3.37104,1.48018 -4.36901,1.91659c-2.22388,0.97252 -5.66168,2.35927 -5.66168,2.35927z" fill="#39a6f7"/><path d="M323.68504,92.70216c-0.08183,-0.51148 -0.18991,-3.035 -0.39804,-4.47024c-0.35775,-2.46699 -0.73921,-3.8452 -0.73921,-3.8452l10.25542,-3.36678l12.15368,4.69619c0,0 -4.1889,1.73449 -6.46034,2.64524c-2.67309,1.07179 -8.60752,3.30382 -8.60752,3.30382c0,0 -1.5107,-0.91181 -2.4855,-0.68568c-0.28931,0.06711 -0.54256,0.56406 -0.76171,0.79899c-0.61194,0.65595 -0.65965,1.16174 -0.73621,1.19191c-0.88979,0.35059 -1.74191,0.79915 -1.74191,0.79915z" fill="#39a6f7"/></g><g stroke-linecap="round"><g stroke-width="1"><g><path d="M305.95707,239.00179c0,0 4.84011,0.63976 7.85494,1.42567c3.01483,0.78593 6.75835,2.38387 6.75835,2.38387c0,0 0.56923,0.84751 1.42333,2.28152c2.7973,4.69669 8.65003,15.68462 7.56592,23.79288c-0.53902,4.03133 -1.8704,7.19326 -3.67431,9.67056c-0.11702,0.16068 0.28983,1.13167 -0.03377,1.52036c-0.27856,0.33457 -1.28987,0.0924 -1.41226,0.22224c-1.35299,1.43539 -2.88159,2.58489 -4.48992,3.50389c-0.27193,0.15539 1.68581,4.68977 -0.34061,5.72309c-2.02642,1.03333 -1.18449,-4.9253 -1.5394,-4.76443c-2.67748,1.21369 -5.4673,1.87994 -7.96351,2.23319c-0.46732,0.06615 1.54787,5.27911 -0.8023,5.52902c-2.35017,0.2499 -1.33977,-5.28863 -1.70963,-5.26191c-3.37504,0.24385 -5.75785,-0.0358 -5.75785,-0.0358z" fill="#45aeff" stroke="#45aeff"/><path d="M320.46933,261.30243c0,0 -0.37758,4.12258 -0.89093,5.78772c-0.49293,1.59885 -2.1304,4.01233 -2.1304,4.01233" fill="#000000" stroke="#000000"/></g><path d="M307.05686,287.23526c0,0 -3.79233,-0.06018 -8.72316,-0.13841c-0.45583,-0.00724 0.64105,5.30074 -1.51624,5.26653c-2.15728,-0.03424 -0.61723,-5.30036 -0.9926,-5.30633c-5.3267,-0.08452 -11.38158,-0.18059 -15.36584,-0.24379c-0.52572,-0.00834 0.87221,5.56107 -1.49293,5.52354c-2.36513,-0.03753 -0.88296,-5.56123 -1.25779,-5.56718c-3.08944,-0.04902 -6.87746,-0.10913 -6.87746,-0.10913l-1.561,-8.27774c0,0 2.48092,-0.8796 3.26202,-2.15138c2.02403,-3.29557 1.16845,-25.86684 1.16845,-25.86684l-5.02067,0.27731l-1.96195,-8.1802c0,0 11.8337,-2.82043 17.95012,-3.86564c6.28155,-1.07341 19.25697,-2.49243 19.25697,-2.49243l-0.64987,16.55903c0,0 -0.78885,0.92608 -1.926,1.05428c-0.59835,0.06746 -1.46582,-0.6719 -1.99106,-0.6127c-2.13317,0.24048 -8.14772,1.51281 -8.14772,1.51281l0.5395,-3.02196l-6.13631,0.52803l0.11415,7.88341l9.49152,-1.14691l0.34012,9.10479l-9.2564,-0.23549l0.50493,9.09666l6.56819,-0.19932l-0.41136,-3.59163l12.20418,-0.88472c0,0 2.09574,3.98854 2.3559,6.06705c0.08684,0.69382 -1.64335,-0.37427 -1.57237,0.19269c0.33669,2.68986 1.1047,8.82572 1.1047,8.82572z" data-paper-data="{&quot;index&quot;:null}" fill="#45aeff" stroke="#45aeff"/><path d="M238.55025,238.2021l41.30957,-7.8467l2.72383,16.93836l-2.19564,0.90067c0,0 0.98845,4.37426 -0.78699,4.8364c-1.77547,0.46216 -3.0391,-3.84046 -3.0391,-3.84046l-9.29542,2.53181l8.19925,32.35861l-6.97267,0.76642c0,0 0.67044,4.93917 -2.78164,5.29133c-2.59588,0.26481 -1.7524,-4.97933 -1.7524,-4.97933l-8.59306,1.1309l-0.97337,-30.59015l-7.32798,1.06907c0,0 1.37574,4.54061 -1.21641,4.82116c-2.49743,0.27033 -2.02002,-4.18164 -2.02002,-4.18164l-4.34129,0.60543z" fill="#45aeff" stroke="#45aeff"/><path d="M232.25008,240.53529l8.62723,-4.25486l7.06752,5.6312c0,0 -4.36007,8.75624 -5.58164,13.95318c-1.39734,5.94469 -2.34621,19.7742 -2.34621,19.7742l6.02261,0.03289l0.46075,-5.59006l14.63106,-0.78047l0.12698,16.13319c0,0 -6.04165,0.59165 -12.68743,1.24247c-0.52943,0.05185 -1.06783,1.0451 -1.60218,1.09743c-0.44033,0.04313 -0.87626,-0.85472 -1.31654,-0.8116c-4.75504,0.46568 -9.41657,0.92216 -12.0465,1.17971c-0.28519,0.02793 0.31507,5.59842 -1.0418,5.73129c-1.35686,0.13288 -0.86759,-5.54431 -1.39504,-5.49266c-3.60317,0.35285 -7.35796,0.72057 -7.35796,0.72057c0,0 3.82229,-17.58717 5.27353,-25.93897c1.35522,-7.79915 3.16557,-22.62747 3.16557,-22.62747z" fill="#45aeff" stroke="#45aeff"/><path d="M188.95636,240.72767c0,0 13.69584,-0.42531 20.40225,-1.00975c7.84821,-0.68393 23.80238,-2.84251 23.80238,-2.84251c0,0 0.52903,7.2953 0.63665,10.9269c0.09634,3.25137 -0.0075,7.36953 -0.0075,7.36953c0,0 -2.44156,-0.07238 -4.76487,-0.14125c-0.58705,-0.0174 -1.17214,0.98612 -1.70279,0.9704c-0.56489,-0.01674 -1.06886,-1.05257 -1.47321,-1.06456c-1.74063,-0.05161 -4.59764,-0.13631 -4.59764,-0.13631c0,0 0.86994,8.28945 0.94915,11.26833c0.08199,3.08321 -0.47482,8.67852 -0.47482,8.67852l12.70871,-4.08812c0,0 1.00468,6.60283 1.06227,10.04522c0.05172,3.09037 -0.72773,8.79231 -0.72773,8.79231c0,0 -3.27825,-0.09765 -7.39817,-0.18631c-0.3395,-0.00731 -0.09785,1.13154 -1.0405,1.11245c-0.94264,-0.0191 -0.81012,-1.15049 -1.22492,-1.15832c-3.07271,-0.0581 -6.34976,-0.10222 -8.9678,-0.09459c-0.31239,0.0009 1.90453,5.77379 -0.37211,5.79215c-2.27663,0.01837 -1.0361,-5.78227 -1.27308,-5.77888c-2.97634,0.04257 -7.28695,0.24463 -10.95236,0.44243c-0.37509,0.02025 1.15595,5.60372 -1.13389,5.73104c-2.28985,0.12731 -0.75856,-5.6264 -1.13389,-5.60495c-2.82271,0.16137 -4.85706,0.29359 -4.85706,0.29359c0,0 0.09173,-5.8623 -0.18112,-9.11813c-0.31445,-3.7523 -1.59854,-12.11841 -1.59854,-12.11841l12.23033,3.40246c0,0 -0.19639,-3.48004 -0.54585,-5.40005c-0.399,-2.19221 -1.70575,-9.52405 -1.70575,-9.52405c0,0 -2.65858,0.66562 -4.81718,1.20603c-0.27833,0.0697 0.49995,3.72559 -0.82433,4.05714c-1.32429,0.33154 -0.87903,-3.63067 -1.20588,-3.54884c-1.27594,0.31943 -3.22799,0.80817 -3.22799,0.80817c0,0 -1.39272,-4.55157 -2.3128,-8.11354c-0.93606,-3.62378 -3.26996,-10.96806 -3.26996,-10.96806z" fill="#45aeff" stroke="#45aeff"/><path d="M150.75386,225.33826l55.67176,-10.57477l3.67081,22.82738l-2.95899,1.2138c0,0 1.33212,5.89505 -1.06061,6.51788c-2.39274,0.62284 -4.09572,-5.17568 -4.09572,-5.17568l-12.5272,3.41208l11.04991,43.60881l-9.39689,1.03288c0,0 0.90352,6.65639 -3.74875,7.13098c-3.49839,0.35686 -2.36167,-6.71052 -2.36167,-6.71052l-11.58063,1.52409l-1.31178,-41.2255l-9.87574,1.44073c0,0 1.85405,6.11923 -1.63933,6.49736c-3.36574,0.36431 -2.72232,-5.63547 -2.72232,-5.63547l-5.85065,0.81592z" fill="#45aeff" stroke="#45aeff"/></g><g fill="#000000" stroke="#000000" stroke-width="1"><g><path d="M305.98082,236.64564c0,0 4.84012,0.63976 7.85494,1.42568c3.01482,0.78592 6.75835,2.38387 6.75835,2.38387c0,0 0.56924,0.84751 1.42334,2.28152c2.7973,4.69669 8.65002,15.68461 7.5659,23.79288c-0.539,4.03134 -1.8704,7.19326 -3.67431,9.67056c-0.117,0.16068 0.28983,1.13168 -0.03378,1.52036c-0.27856,0.33457 -1.28986,0.0924 -1.41225,0.22223c-1.35299,1.4354 -2.8816,2.5849 -4.48992,3.5039c-0.27193,0.15539 1.68582,4.68976 -0.3406,5.72308c-2.02642,1.03333 -1.1845,-4.9253 -1.53942,-4.76443c-2.67748,1.21369 -5.4673,1.87994 -7.9635,2.23319c-0.46732,0.06615 1.54786,5.27911 -0.80231,5.52903c-2.35016,0.24991 -1.33977,-5.28864 -1.70962,-5.26191c-3.37504,0.24386 -5.75784,-0.0358 -5.75784,-0.0358z"/><path d="M320.49308,258.94629c0,0 -0.37759,4.12258 -0.89093,5.78772c-0.49293,1.59885 -2.1304,4.01232 -2.1304,4.01232"/></g><path d="M307.08063,284.87911c0,0 -3.79233,-0.06018 -8.72316,-0.13841c-0.45583,-0.00724 0.64105,5.30074 -1.51623,5.26652c-2.15728,-0.03424 -0.61724,-5.30036 -0.9926,-5.30632c-5.32671,-0.08452 -11.38158,-0.1806 -15.36584,-0.24379c-0.52572,-0.00835 0.8722,5.56106 -1.49293,5.52355c-2.36513,-0.03753 -0.88296,-5.56124 -1.25778,-5.56719c-3.08944,-0.04901 -6.87746,-0.10912 -6.87746,-0.10912l-1.561,-8.27774c0,0 2.48093,-0.87959 3.26202,-2.15138c2.02403,-3.29557 1.16845,-25.86684 1.16845,-25.86684l-5.02067,0.27732l-1.96195,-8.18018c0,0 11.83372,-2.82044 17.95013,-3.86565c6.28155,-1.07341 19.25697,-2.49243 19.25697,-2.49243l-0.64987,16.55903c0,0 -0.78885,0.92609 -1.92599,1.05429c-0.59835,0.06746 -1.46582,-0.6719 -1.99105,-0.61271c-2.13317,0.24048 -8.14772,1.51281 -8.14772,1.51281l0.5395,-3.02197l-6.1363,0.52804l0.11414,7.8834l9.49152,-1.1469l0.3401,9.10478l-9.25639,-0.23549l0.50492,9.09666l6.56819,-0.19932l-0.41137,-3.59164l12.20419,-0.88472c0,0 2.09573,3.98856 2.3559,6.06705c0.08684,0.69382 -1.64335,-0.37426 -1.57238,0.19268c0.33669,2.68986 1.10471,8.82572 1.10471,8.82572z" data-paper-data="{&quot;index&quot;:null}"/><path d="M238.57402,235.84594l41.30957,-7.8467l2.72383,16.93836l-2.19564,0.90066c0,0 0.98847,4.37425 -0.78698,4.83639c-1.77547,0.46216 -3.0391,-3.84046 -3.0391,-3.84046l-9.29542,2.53181l8.19925,32.3586l-6.97267,0.76642c0,0 0.67043,4.93917 -2.78165,5.29134c-2.59588,0.26481 -1.75241,-4.97932 -1.75241,-4.97932l-8.59306,1.1309l-0.97336,-30.59014l-7.32798,1.06905c0,0 1.37574,4.54062 -1.21641,4.82116c-2.49743,0.27033 -2.02002,-4.18164 -2.02002,-4.18164l-4.34129,0.60542z"/><path d="M232.27383,238.17913l8.62723,-4.25487l7.06752,5.6312c0,0 -4.36006,8.75624 -5.58164,13.95318c-1.39735,5.94469 -2.34621,19.77418 -2.34621,19.77418l6.02261,0.03291l0.46075,-5.59007l14.63106,-0.78048l0.12698,16.13319c0,0 -6.04165,0.59165 -12.68742,1.24247c-0.52943,0.05186 -1.06782,1.0451 -1.60217,1.09743c-0.44033,0.04313 -0.87626,-0.85472 -1.31654,-0.8116c-4.75503,0.46567 -9.41658,0.92217 -12.0465,1.17971c-0.28519,0.02792 0.31506,5.59842 -1.04179,5.73129c-1.35687,0.13287 -0.8676,-5.54431 -1.39504,-5.49266c-3.60317,0.35285 -7.35795,0.72057 -7.35795,0.72057c0,0 3.82228,-17.58718 5.27352,-25.93898c1.35522,-7.79915 3.16558,-22.62747 3.16558,-22.62747z"/><path d="M188.98012,238.37152c0,0 13.69582,-0.42532 20.40224,-1.00976c7.84821,-0.68393 23.80238,-2.84251 23.80238,-2.84251c0,0 0.52904,7.29532 0.63665,10.9269c0.09634,3.25137 -0.00749,7.36952 -0.00749,7.36952c0,0 -2.44155,-0.07238 -4.76486,-0.14126c-0.58706,-0.0174 -1.17216,0.98613 -1.7028,0.9704c-0.56489,-0.01675 -1.06885,-1.05257 -1.47321,-1.06456c-1.74064,-0.05161 -4.59765,-0.13631 -4.59765,-0.13631c0,0 0.86994,8.28945 0.94915,11.26834c0.08199,3.08321 -0.47483,8.67852 -0.47483,8.67852l12.70871,-4.08812c0,0 1.00468,6.60283 1.06229,10.04522c0.0517,3.09037 -0.72773,8.79231 -0.72773,8.79231c0,0 -3.27825,-0.09764 -7.39817,-0.18631c-0.3395,-0.00731 -0.09785,1.13153 -1.04049,1.11244c-0.94265,-0.01909 -0.81013,-1.15048 -1.22494,-1.15832c-3.0727,-0.05811 -6.34975,-0.10222 -8.96779,-0.09459c-0.31239,0.0009 1.90452,5.77379 -0.37211,5.79214c-2.27663,0.01837 -1.03609,-5.78225 -1.27308,-5.77886c-2.97634,0.04257 -7.28697,0.24464 -10.95237,0.44244c-0.37509,0.02024 1.15597,5.60372 -1.13387,5.73104c-2.28985,0.12731 -0.75856,-5.62641 -1.13389,-5.60496c-2.8227,0.16137 -4.85706,0.29359 -4.85706,0.29359c0,0 0.09173,-5.8623 -0.18111,-9.11814c-0.31445,-3.7523 -1.59854,-12.1184 -1.59854,-12.1184l12.23032,3.40246c0,0 -0.19639,-3.48003 -0.54584,-5.40005c-0.399,-2.19221 -1.70576,-9.52405 -1.70576,-9.52405c0,0 -2.65858,0.66561 -4.81718,1.20603c-0.27834,0.0697 0.49994,3.72559 -0.82434,4.05714c-1.32429,0.33154 -0.87904,-3.63067 -1.20588,-3.54884c-1.27594,0.31943 -3.22799,0.80817 -3.22799,0.80817c0,0 -1.39272,-4.55156 -2.3128,-8.11354c-0.93606,-3.62378 -3.26996,-10.96807 -3.26996,-10.96807z"/><path d="M150.77762,222.9821l55.67178,-10.57477l3.67081,22.82736l-2.95899,1.21381c0,0 1.33213,5.89505 -1.0606,6.51788c-2.39274,0.62284 -4.09571,-5.17566 -4.09571,-5.17566l-12.5272,3.41209l11.04991,43.6088l-9.39689,1.03287c0,0 0.90352,6.65639 -3.74874,7.13097c-3.49838,0.35686 -2.36168,-6.71051 -2.36168,-6.71051l-11.58062,1.52408l-1.31178,-41.22549l-9.87574,1.44074c0,0 1.85405,6.11925 -1.63933,6.49735c-3.36574,0.36431 -2.72233,-5.63548 -2.72233,-5.63548l-5.85064,0.81592z"/></g><g stroke="#000000" stroke-width="2.5"><g><path d="M304.83645,234.28598c0,0 4.74182,0.62677 7.69543,1.39673c2.95361,0.76997 6.6211,2.33545 6.6211,2.33545c0,0 0.55767,0.83029 1.39441,2.23518c2.74048,4.60129 8.47438,15.3661 7.41229,23.30973c-0.52806,3.94946 -1.83241,7.04719 -3.59968,9.47417c-0.11463,0.15742 0.28394,1.1087 -0.0331,1.48949c-0.27289,0.32776 -1.26366,0.09052 -1.38357,0.21771c-1.32551,1.40625 -2.82308,2.5324 -4.39874,3.43274c-0.26641,0.15223 1.65159,4.59455 -0.33369,5.60689c-1.98527,1.01234 -1.16045,-4.82529 -1.50815,-4.66769c-2.62311,1.18905 -5.35627,1.84177 -7.80179,2.18785c-0.45783,0.06479 1.51644,5.1719 -0.78599,5.41674c-2.30244,0.24483 -1.31257,-5.18124 -1.6749,-5.15506c-3.30651,0.2389 -5.64094,-0.03508 -5.64094,-0.03508z" fill="#ffffff"/><path d="M319.05401,256.13376c0,0 -0.36993,4.03886 -0.87285,5.67019c-0.4829,1.56637 -2.08713,3.93085 -2.08713,3.93085" fill="none"/></g><path d="M305.91391,281.53999c0,0 -3.71533,-0.05895 -8.54602,-0.13562c-0.44657,-0.00708 0.62804,5.19309 -1.48544,5.15958c-2.11347,-0.03353 -0.60471,-5.19273 -0.97246,-5.19856c-5.21853,-0.0828 -11.15045,-0.17692 -15.05381,-0.23885c-0.51505,-0.00817 0.85449,5.44815 -1.46261,5.41137c-2.31711,-0.03677 -0.86503,-5.4483 -1.23224,-5.45413c-3.02668,-0.04803 -6.7378,-0.10691 -6.7378,-0.10691l-1.5293,-8.10965c0,0 2.43054,-0.86174 3.19577,-2.1077c1.98293,-3.22865 1.14472,-25.34157 1.14472,-25.34157l-4.91872,0.27167l-1.92212,-8.01406c0,0 11.59341,-2.76316 17.58562,-3.78714c6.154,-1.05162 18.86592,-2.44182 18.86592,-2.44182l-0.63669,16.22277c0,0 -0.77283,0.90727 -1.88689,1.03287c-0.58619,0.06608 -1.43606,-0.65824 -1.95062,-0.60026c-2.08983,0.23559 -7.98227,1.4821 -7.98227,1.4821l0.52856,-2.9606l-6.0117,0.51731l0.11183,7.7233l9.29878,-1.12361l0.33319,8.91989l-9.06843,-0.23071l0.49468,8.91194l6.43482,-0.19527l-0.40301,-3.51869l11.95635,-0.86674c0,0 2.05318,3.90756 2.30805,5.94384c0.08508,0.67973 -1.60997,-0.36666 -1.54044,0.18878c0.32985,2.63524 1.08227,8.64649 1.08227,8.64649z" data-paper-data="{&quot;index&quot;:null}" fill="#ffffff"/><path d="M238.79846,233.50252l40.4707,-7.68736l2.66851,16.5944l-2.15106,0.88237c0,0 0.96838,4.28543 -0.77101,4.73818c-1.73941,0.45276 -2.97739,-3.76246 -2.97739,-3.76246l-9.10667,2.48041l8.03275,31.7015l-6.83108,0.75086c0,0 0.65682,4.83887 -2.72516,5.18388c-2.54317,0.25943 -1.71682,-4.87821 -1.71682,-4.87821l-8.41855,1.10794l-0.95361,-29.96894l-7.17917,1.04735c0,0 1.3478,4.4484 -1.19171,4.72326c-2.44673,0.26484 -1.979,-4.09673 -1.979,-4.09673l-4.25314,0.59313z" fill="#ffffff"/><path d="M232.62622,235.78832l8.45203,-4.16845l6.924,5.51684c0,0 -4.27152,8.57843 -5.46829,13.66984c-1.36897,5.82398 -2.29856,19.37262 -2.29856,19.37262l5.90031,0.03223l0.45139,-5.47657l14.33393,-0.76462l0.12439,15.80557c0,0 -5.91895,0.57964 -12.42978,1.21724c-0.51867,0.05079 -1.04615,1.02389 -1.56963,1.07513c-0.43139,0.04225 -0.85847,-0.83737 -1.2898,-0.79511c-4.65846,0.4562 -9.22535,0.90344 -11.80187,1.15576c-0.27941,0.02736 0.30866,5.48474 -1.02064,5.61492c-1.32931,0.13018 -0.84998,-5.43172 -1.36671,-5.38113c-3.53,0.34569 -7.20853,0.70593 -7.20853,0.70593c0,0 3.74466,-17.23003 5.16643,-25.41222c1.3277,-7.64077 3.1013,-22.16798 3.1013,-22.16798z" fill="#ffffff"/><path d="M190.21166,235.97681c0,0 13.41771,-0.41668 19.98795,-0.98926c7.68883,-0.67004 23.31903,-2.78478 23.31903,-2.78478c0,0 0.51829,7.14717 0.62373,10.705c0.09439,3.18535 -0.00735,7.21989 -0.00735,7.21989c0,0 -2.39198,-0.07092 -4.66809,-0.1384c-0.57513,-0.01705 -1.14835,0.96609 -1.66823,0.95069c-0.55343,-0.01641 -1.04715,-1.03119 -1.4433,-1.04294c-1.70528,-0.05056 -4.50428,-0.13353 -4.50428,-0.13353c0,0 0.85228,8.12112 0.92987,11.03951c0.08032,3.02059 -0.4652,8.50227 -0.4652,8.50227l12.45063,-4.00511c0,0 0.98429,6.46875 1.04071,9.84124c0.05066,3.02761 -0.71295,8.61376 -0.71295,8.61376c0,0 -3.21169,-0.09565 -7.24793,-0.18252c-0.33261,-0.00715 -0.09588,1.10856 -1.01937,1.08985c-0.9235,-0.0187 -0.79366,-1.12712 -1.20006,-1.13482c-3.01031,-0.05692 -6.2208,-0.10015 -8.78568,-0.09267c-0.30606,0.00089 1.86584,5.65655 -0.36456,5.67453c-2.23039,0.01799 -1.01504,-5.66484 -1.24722,-5.66153c-2.91589,0.0417 -7.13898,0.23966 -10.72994,0.43344c-0.36748,0.01984 1.13247,5.48992 -1.11086,5.61466c-2.24334,0.12473 -0.74316,-5.51215 -1.11087,-5.49113c-2.76539,0.15809 -4.75842,0.28763 -4.75842,0.28763c0,0 0.08987,-5.74326 -0.17744,-8.93298c-0.30807,-3.67612 -1.56608,-11.87231 -1.56608,-11.87231l11.98196,3.33337c0,0 -0.1924,-3.40937 -0.53476,-5.29039c-0.39089,-2.14769 -1.67111,-9.33065 -1.67111,-9.33065c0,0 -2.6046,0.6521 -4.71936,1.18154c-0.27268,0.06826 0.4898,3.64993 -0.80761,3.97474c-1.29741,0.32481 -0.86118,-3.55696 -1.18139,-3.47679c-1.25003,0.31296 -3.16243,0.79176 -3.16243,0.79176c0,0 -1.36443,-4.45914 -2.26585,-7.94878c-0.91704,-3.55018 -3.20354,-10.74532 -3.20354,-10.74532z" fill="#ffffff"/><path d="M152.78494,220.8999l54.54125,-10.36003l3.59626,22.36383l-2.89891,1.18914c0,0 1.30507,5.77535 -1.03907,6.38552c-2.34413,0.61019 -4.01255,-5.07056 -4.01255,-5.07056l-12.27282,3.34279l10.82552,42.72324l-9.20607,1.0119c0,0 0.88518,6.52121 -3.67261,6.98617c-3.42736,0.34962 -2.31371,-6.57424 -2.31371,-6.57424l-11.34548,1.49314l-1.28514,-40.38833l-9.67518,1.41148c0,0 1.81639,5.99498 -1.60604,6.36541c-3.29737,0.35692 -2.66705,-5.52104 -2.66705,-5.52104l-5.73184,0.79936z" fill="#ffffff"/></g></g></g></g></g></svg>