<svg version="1.1" xmlns="http://www.w3.org/2000/svg" xmlns:xlink="http://www.w3.org/1999/xlink" width="127.66667" height="127.66667" viewBox="0,0,127.66667,127.66667"><g transform="translate(-176.16667,-116.16666)"><g data-paper-data="{&quot;isPaintingLayer&quot;:true}" fill-rule="nonzero" stroke-linejoin="miter" stroke-miterlimit="10" stroke-dasharray="" stroke-dashoffset="0" style="mix-blend-mode: normal"><g><path d="M204.47764,196.01791c-0.00234,0.00071 -0.00357,0.00105 -0.00357,0.00105l-0.57254,-0.03432c-1.10137,-0.79756 -1.04593,-2.15533 -0.66525,-3.3904c1.3399,-1.90124 4.37108,-7.27193 7.40243,-4.86234c1.43311,1.13917 1.86468,3.09648 2.73956,4.61308c1.80397,6.40988 -5.03105,4.74416 -8.90063,3.67293z" fill="#323344" stroke="#000000" stroke-width="1" stroke-linecap="butt"/><path d="M231.07149,184.47199c0.11851,-1.29216 0.71949,-4.47612 1.78019,-5.36965c3.0254,-2.54859 5.17914,0.76963 6.11935,3.14382c0.62971,2.28353 0.43086,6.20933 -1.12682,9.39628c-1.07402,2.19738 -3.11153,3.91008 -4.37981,4.95107c-0.43257,0.35505 -2.01281,0.58807 -4.87487,-2.00919c-2.67627,-2.42866 -5.00587,-6.48769 -4.08408,-7.50375c0.79325,-0.87437 6.48554,-1.70154 6.48554,-1.70154z" fill="#dc94e7" stroke="#000000" stroke-width="1" stroke-linecap="butt"/><path d="M228.52853,189.70566c0.06374,0.02445 0.10201,0.04625 0.10201,0.04625l0.85408,0.56946c0.50899,0.70654 0.68377,1.42267 0.88795,2.11015c0.25131,0.84618 0.44647,1.67664 0.14331,2.72737c-2.44541,6.21081 -12.54094,10.74384 -14.96499,1.90734c-0.99281,-3.69106 2.13559,-5.77161 5.72429,-6.82699c2.44512,-0.71907 5.07521,-1.06699 6.87344,-0.71417c0,0 0.20081,0.03985 0.37989,0.18059z" fill="#f89688" stroke="#000000" stroke-width="1" stroke-linecap="butt"/><path d="M209.88614,189.72615c-0.70095,-0.13699 -0.64027,-0.88416 -0.64027,-0.88416c0.16369,-1.99822 2.26175,-6.61856 4.75579,-6.17493c2.55775,0.45496 1.86822,3.08373 3.57879,4.23092c0.80589,0.54047 2.60291,0.06444 3.54479,0.14129c0.64342,0.91377 0.87469,1.04075 1.13172,2.07563c0.45378,1.82707 -0.64804,3.31347 -2.58546,3.40623c-3.10319,0.14857 -5.65355,-2.59074 -8.75597,-2.54169l-0.32057,0.02459c0,0 -0.44607,0.03142 -0.70882,-0.27786z" fill="#fcdfbd" stroke="none" stroke-width="0.5" stroke-linecap="butt"/><path d="M221.12524,187.03928c0.64342,0.91377 0.87469,1.04075 1.13172,2.07564c0.45377,1.82707 -0.64804,3.31347 -2.58546,3.40623c-2.39661,0.11474 -4.46348,-1.49301 -6.70958,-2.20852c0.70412,-0.31427 1.35086,-0.59934 1.85914,-0.73805c0.55503,-0.15147 1.05375,-0.03063 1.5439,0.15446c0.59256,0.4747 1.37114,0.70225 2.15984,0.5825c0.32222,-0.02782 0.66383,-0.13136 1.03389,-0.34999c0.10411,-0.06152 0.20486,-0.14116 0.30093,-0.23595c0.78274,-0.63161 1.18706,-1.6614 0.9882,-2.6947c0.09864,-0.00099 0.19158,0.00141 0.27743,0.00843z" fill="#f89688" stroke="none" stroke-width="0.5" stroke-linecap="butt"/><path d="M209.88614,189.72615c-0.70095,-0.13699 -0.64027,-0.88416 -0.64027,-0.88416c0.16369,-1.99822 2.26175,-6.61856 4.75578,-6.17493c2.55774,0.45497 1.86822,3.08372 3.57879,4.23091c0.80588,0.54046 2.6029,0.06445 3.54479,0.1413c0.64342,0.91377 0.87469,1.04075 1.13172,2.07564c0.45377,1.82707 -0.64804,3.31347 -2.58546,3.40623c-3.10318,0.14857 -5.65355,-2.59074 -8.75597,-2.54169l-0.32057,0.02457c0,0 -0.44607,0.03142 -0.70882,-0.27785z" fill="none" stroke="#000000" stroke-width="1" stroke-linecap="butt"/><path d="M210.09885,187.42425c0.1475,0.53766 -0.39017,0.68515 -0.39017,0.68515l-0.08271,0.02269c-3.33416,0.91464 -5.26054,3.881 -4.70046,7.35683c0,0 0.02753,0.17386 -0.04603,0.34167l0.13063,0.24689c0,0 -0.26772,0.47013 -0.73881,0.22044c-0.07245,0.00916 -0.14492,0.01833 -0.21738,0.02749c0,0 -0.31292,0.03959 -0.49779,-0.17616c-0.32792,-0.05186 -0.42604,-0.40955 -0.42604,-0.40955l-0.03684,-0.15053c-0.72219,-5.00337 1.21725,-7.68881 5.93618,-8.98333c0,0 0.53766,-0.1475 0.68515,0.39017c0.0034,0.01237 0.00643,0.02455 0.00911,0.0365c0.14679,0.03538 0.30507,0.13613 0.37518,0.39173z" fill="#455d83" stroke="none" stroke-width="0.5" stroke-linecap="butt"/><path d="M204.84424,194.76984c-0.53572,-0.14436 -1.1002,-0.16493 -1.61381,-0.04203c-0.07836,-0.02284 -0.15906,-0.03889 -0.24122,-0.04764c-0.13579,-1.6433 0.05223,-3.01239 0.56901,-4.14648c0.5674,0.47982 1.1236,0.98039 1.67803,1.47344c-0.31596,0.8439 -0.45541,1.77738 -0.392,2.76272z" fill="#85afb1" stroke="none" stroke-width="0.5" stroke-linecap="butt"/><path d="M205.08224,188.52345c0.47461,0.50483 1.07653,0.97406 1.58477,1.27818c-0.35734,0.35198 -0.66769,0.74354 -0.92648,1.1681c-0.53504,-0.47358 -1.0705,-0.95062 -1.61678,-1.41031c0.272,-0.37663 0.59142,-0.72124 0.95851,-1.03597z" fill="#85afb1" stroke="none" stroke-width="0.5" stroke-linecap="butt"/><path d="M210.09885,187.42426c0.1475,0.53766 -0.39017,0.68515 -0.39017,0.68515l-0.08271,0.02269c-3.33416,0.91464 -5.26054,3.881 -4.70048,7.35684c0,0 0.02753,0.17386 -0.04603,0.34167l0.13063,0.2469c0,0 -0.26771,0.47012 -0.73881,0.22044c-0.07245,0.00916 -0.14492,0.01833 -0.21738,0.02749c0,0 -0.31292,0.03958 -0.49779,-0.17616c-0.32793,-0.05184 -0.42605,-0.40955 -0.42605,-0.40955l-0.03684,-0.15053c-0.72219,-5.00337 1.21724,-7.68881 5.93618,-8.98333c0,0 0.53766,-0.1475 0.68515,0.39017c0.00339,0.01236 0.00643,0.02455 0.00912,0.03651c0.14679,0.03538 0.30507,0.13613 0.37518,0.39173z" fill="none" stroke="#000000" stroke-width="1" stroke-linecap="butt"/><path d="M221.20088,194.64931c0,0 3.05132,-0.78022 3.9945,0.81235c0.75676,1.2778 -0.18437,2.6512 -0.57984,3.88441c-0.93606,2.91884 -2.22201,7.75955 -6.20652,6.21388c-0.86019,-0.42827 -1.54848,-0.93001 -2.31525,-1.5033l-0.09898,-0.05502c-0.90932,0.79672 -1.92568,1.12232 -2.69567,0.70407c-0.81517,-0.44279 -1.73782,-1.57679 -2.54174,-2.32431c-1.36648,0.61004 -2.85743,1.27302 -4.23987,0.69388c-1.32953,-0.55697 -1.35311,-1.66493 -1.68114,-2.86071c-0.91882,-3.3494 0.40138,-6.64306 3.04682,-8.84935c1.2518,-1.29227 2.4178,-3.11264 4.24252,-3.72693c1.28331,-0.43201 2.2879,0.11623 3.05872,0.87755c0.88935,0.8784 1.43303,2.101 1.17234,3.41611c1.25027,-0.1237 2.60052,0.2481 3.62771,0.89512c1.00583,0.63358 0.78746,1.11021 1.21636,1.82225z" fill="#fde0be" stroke="none" stroke-width="0.5" stroke-linecap="butt"/><path d="M225.19538,195.46168c0.75677,1.27781 -0.18436,2.6512 -0.57985,3.8844c-0.93607,2.91885 -2.222,7.75956 -6.20652,6.21389c-0.86019,-0.42827 -1.54848,-0.93001 -2.31524,-1.50331l-0.09898,-0.05502c-0.90932,0.79672 -1.92568,1.12232 -2.69567,0.70407c-0.81517,-0.44279 -1.73781,-1.57681 -2.54173,-2.32432c-1.36648,0.61004 -2.85742,1.27302 -4.23986,0.69388c-1.32953,-0.55698 -1.35311,-1.66493 -1.68114,-2.86071c-0.30738,-1.1205 -0.36418,-2.23477 -0.2046,-3.30416c0.1156,0.16039 0.20634,0.32549 0.24368,0.51085l0.00784,0.00497c0.21857,1.13055 0.81566,1.9149 1.60115,2.32139c0.6315,0.3819 1.41251,0.51383 2.18039,0.30318c0.27785,-0.07622 0.53428,-0.19189 0.76492,-0.3393c0.26027,-0.11824 0.51943,-0.26608 0.7738,-0.44413c1.10621,-0.77431 2.54408,-2.22516 3.80888,-3.924c-0.08207,0.94725 -0.10996,1.87466 -0.09505,2.62046c-0.05183,0.36589 -0.03133,0.74814 0.07265,1.12719c0.06194,0.2258 0.14994,0.43744 0.25985,0.63262c0.42056,1.53311 1.75944,1.73558 2.95059,1.36834c0.07181,-0.01378 0.14362,-0.03045 0.21532,-0.05012c0.59149,-0.16226 1.08596,-0.50331 1.44109,-0.94881c0.12054,-0.13072 0.21955,-0.26584 0.2917,-0.40154c0.08136,-0.15304 0.16515,-0.32228 0.25028,-0.5049c0.23195,0.06302 -0.30839,2.31628 -0.06808,2.31943c0.71106,0.00938 2.2148,-2.48119 2.81714,-3.15407c0.48263,-0.53914 0.73651,-1.07486 0.81757,-1.58449c0.16787,-0.50484 0.19331,-1.06317 0.04201,-1.61473c-0.06845,-0.24951 -0.16871,-0.48176 -0.2952,-0.69358c0.91089,-0.0158 1.9877,0.16614 2.48305,1.00254z" fill="#f89688" stroke="none" stroke-width="0.5" stroke-linecap="butt"/><path d="M221.20088,194.64931c0,0 3.05132,-0.78022 3.9945,0.81235c0.75677,1.27781 -0.18436,2.6512 -0.57985,3.8844c-0.93607,2.91885 -2.222,7.75956 -6.20652,6.21389c-0.86019,-0.42827 -1.54848,-0.93001 -2.31524,-1.50331l-0.09898,-0.05502c-0.90932,0.79672 -1.92568,1.12232 -2.69567,0.70407c-0.81517,-0.44279 -1.73781,-1.57681 -2.54173,-2.32432c-1.36648,0.61004 -2.85742,1.27302 -4.23986,0.69388c-1.32953,-0.55698 -1.35311,-1.66493 -1.68114,-2.86071c-0.91882,-3.3494 0.40137,-6.64306 3.0468,-8.84935c1.2518,-1.29227 2.4178,-3.11264 4.24253,-3.72694c1.28331,-0.43201 2.2879,0.11623 3.0587,0.87756c0.88935,0.8784 1.43303,2.101 1.17234,3.41611c1.25028,-0.12371 2.60052,0.2481 3.62771,0.89513c1.00584,0.63357 0.78746,1.11021 1.21636,1.82225z" fill="none" stroke="#000000" stroke-width="1" stroke-linecap="butt"/><path d="M216.68224,192.18582l-4.18521,4.6939" fill="none" stroke="#000000" stroke-width="1" stroke-linecap="round"/><path d="M220.98282,194.93729l-2.4774,4.45665" fill="none" stroke="#000000" stroke-width="1" stroke-linecap="round"/><path d="M194.83141,189.96704c-1.25946,-4.59115 0.93706,-9.55144 5.52823,-10.81089c2.45275,-0.67285 4.17229,0.01042 6.02933,1.24673c0.62565,0.41652 1.64794,1.27961 2.35872,2.29413c1.12854,1.61081 1.22482,3.49323 1.18606,3.7981c-0.03087,0.24276 -3.26564,-0.63125 -5.48244,2.36763c-2.26115,3.05891 -1.72677,7.34401 -1.72677,7.34401c0,0 -2.22032,0.18899 -3.91774,-0.68547c-1.89146,-0.97443 -3.3116,-3.13455 -3.97538,-5.55425z" fill="#465e85" stroke="#000000" stroke-width="0" stroke-linecap="butt"/><path d="M194.83141,189.96704c-0.15814,-0.57648 -0.26179,-1.15878 -0.31307,-1.73885c0.06677,0.06721 0.14003,0.12722 0.21843,0.17927l0.00968,0.01928l0.04037,0.01245c0.20247,0.12243 0.43569,0.19346 0.67821,0.20089l0.23875,0.01291l0.14013,-0.02709l0.14341,0.04757l0.08783,0.00663l0.07965,0.03758l0.09893,0.01963l0.01109,0.01105l0.04003,-0.00091l0.03808,0.00756l0.31988,-0.01571l0.32018,-0.00729l0.03746,-0.01028l0.03999,-0.00195l0.01025,-0.01182l0.02817,-0.00773l0.03391,0.016l0.09893,0.01963l0.01109,0.01105l0.04003,-0.00091l0.03808,0.00756l0.31988,-0.01571l0.32018,-0.00729l0.03746,-0.01028l0.03999,-0.00195l0.01025,-0.01182l6.93931,-1.90361l0.03729,-0.00183l0.32018,-0.00729l0.03746,-0.01028l0.03999,-0.00195l0.01025,-0.01182l0.21011,-0.05764l0.02537,0.00782l0.54168,0.02929l0.17296,-0.03343l0.30439,-0.01494l0.32018,-0.00729l0.03746,-0.01028l0.03999,-0.00195l0.01025,-0.01182l0.45825,-0.12571l0.02537,0.00782l0.17193,0.00929l0.18989,0.03768l0.01109,0.01105l0.04003,-0.00091l0.03808,0.00756l0.2676,-0.01314c-1.12927,0.14169 -2.63887,0.62605 -3.84643,2.25965c-2.26115,3.05891 -1.72677,7.34401 -1.72677,7.34401c0,0 -2.22032,0.18899 -3.91774,-0.68547c-1.89146,-0.97443 -3.3116,-3.13455 -3.97538,-5.55425z" fill="#323344" stroke="#000000" stroke-width="0" stroke-linecap="butt"/><path d="M198.16919,184.14617l0.00768,0.01528l-0.02425,-0.00548z" fill="#323344" stroke="#000000" stroke-width="0" stroke-linecap="butt"/><path d="M194.83141,189.96704c-1.25946,-4.59116 0.93707,-9.55144 5.52823,-10.81089c2.45275,-0.67285 4.17228,0.01042 6.02932,1.24673c0.62565,0.41652 1.64793,1.27961 2.35872,2.29413c1.12854,1.6108 1.22483,3.49322 1.18607,3.7981c-0.03087,0.24276 -3.26563,-0.63125 -5.48244,2.36765c-2.26115,3.05891 -1.72677,7.34401 -1.72677,7.34401c0,0 -2.22034,0.189 -3.91775,-0.68546c-1.89146,-0.97443 -3.3116,-3.13455 -3.97538,-5.55424z" fill="none" stroke="#000000" stroke-width="1" stroke-linecap="butt"/><path d="M200.94467,195.71664c0,0 -1.40632,-5.73477 1.00989,-8.51152c2.5548,-2.93604 7.57299,-2.02556 7.57299,-2.02556" fill="none" stroke="#000000" stroke-width="1" stroke-linecap="round"/><path d="M197.05263,193.84925c0,0 -0.10146,-5.58443 1.90151,-9.12707c1.81845,-3.21628 7.14403,-3.93836 7.14403,-3.93836" fill="none" stroke="#000000" stroke-width="1" stroke-linecap="round"/><path d="M194.73589,188.97042c0,0 1.70026,-4.52909 2.90797,-6.28666c1.08966,-1.58581 4.02058,-3.7966 4.02058,-3.7966" fill="none" stroke="#000000" stroke-width="1" stroke-linecap="round"/><path d="M202.14518,193.60848c0,0 -2.65866,0.13068 -3.77063,-0.20858c-1.08766,-0.33185 -2.82983,-1.80524 -2.82983,-1.80524" fill="none" stroke="#000000" stroke-width="1" stroke-linecap="round"/><path d="M202.86547,192.34361c0,0 -3.23685,-0.66513 -4.67869,-1.26624c-1.28507,-0.53574 -3.55631,-2.16696 -3.55631,-2.16696" fill="none" stroke="#000000" stroke-width="1" stroke-linecap="round"/><path d="M203.23883,190.46235c0,0 -3.31496,-1.03092 -4.59583,-2.04822c-1.39985,-1.11178 -3.47808,-4.36424 -3.47808,-4.36424" fill="none" stroke="#000000" stroke-width="1" stroke-linecap="round"/><path d="M196.72558,181.30929c0,0 3.76225,3.1547 5.04953,4.53769c1.06733,1.14671 2.13866,3.18504 2.13866,3.18504" fill="none" stroke="#000000" stroke-width="1" stroke-linecap="round"/><path d="M199.67923,179.43173c0,0 2.75131,1.7886 3.7528,3.01655c1.05105,1.2887 2.41204,4.5422 2.41204,4.5422" fill="none" stroke="#000000" stroke-width="1" stroke-linecap="round"/><path d="M205.26954,180.03278c0,0 1.24433,1.78863 1.6848,2.81297c0.45956,1.06878 1.01769,3.47205 1.01769,3.47205" fill="none" stroke="#000000" stroke-width="1" stroke-linecap="round"/></g><g><path d="M229.21918,193.1053c0,0 1.39092,-3.36858 3.78463,-7.09929c1.27412,-1.98577 2.49586,-4.53679 4.68729,-5.71387c1.99546,-1.07183 4.93381,-0.80029 7.66689,-0.39131c6.3148,0.94494 9.33116,8.15743 9.33116,8.15743z" fill="#f89688" stroke="#000000" stroke-width="1" stroke-linecap="butt"/><path d="M228.94628,193.26787c0,0 7.57326,-3.32608 13.93343,-4.50733c4.07746,-0.75729 12.15862,-0.95638 12.15862,-0.95638l6.35575,14.94159l-40.69911,1.44956c0,0 -3.84157,-8.87466 -2.51107,-10.63669c0.51124,-0.67705 10.7624,-0.29075 10.7624,-0.29075z" fill="#0066cd" stroke="#000000" stroke-width="0" stroke-linecap="round"/><path d="M220.69496,204.1953c0,0 -2.48891,-5.74978 -2.76616,-8.91207c1.60468,-0.04097 3.55231,-0.79554 5.12842,-0.78882c2.21826,0.00947 6.09094,1.21487 8.18292,1.89998c3.0425,0.9964 6.64048,-0.38223 9.28249,1.26236c1.30988,0.81536 2.66213,1.56407 4.07691,2.11079c0.36983,0.23182 0.68731,0.44656 0.80457,0.57757c0.48029,0.53662 1.68916,1.69424 3.17568,2.85703z" fill="#061382" stroke="#000000" stroke-width="0" stroke-linecap="butt"/><path d="M242.87971,188.76053c4.07745,-0.75729 12.15862,-0.95638 12.15862,-0.95638l6.35575,14.94159l-3.48557,0.12414c0.17544,-2.82462 -1.40429,-5.85138 -3.61076,-7.24181c-0.0605,-0.09105 -0.12816,-0.1816 -0.20334,-0.27144c-3.49966,-4.18251 -8.29833,-5.46688 -13.72994,-6.04056c0.84604,-0.21327 1.69084,-0.40242 2.51525,-0.55554z" fill="#061382" stroke="#000000" stroke-width="0" stroke-linecap="butt"/><path d="M228.94628,193.26787c0,0 7.57326,-3.32608 13.93343,-4.50733c4.07746,-0.75729 12.15862,-0.95638 12.15862,-0.95638l6.35575,14.94159l-40.69911,1.44956c0,0 -3.84157,-8.87466 -2.51107,-10.63669c0.51124,-0.67705 10.7624,-0.29075 10.7624,-0.29075z" fill="none" stroke="#000000" stroke-width="1" stroke-linecap="round"/><path d="M207.85195,210.28669c1.80542,0.70627 2.54986,1.58364 4.64157,1.58364c0,0 0.07156,-0.00001 0.17282,0.02093c0.14433,-0.02756 0.25501,-0.0175 0.25501,-0.0175l0.56984,0.05525c4.1904,0.00341 7.46857,0.17318 11.405,-1.51567c5.52461,-2.40699 12.38776,-3.90543 18.08093,-5.79563c0.0734,-0.0327 0.84286,3.4773 0.84286,3.4773c-1.21956,0.41128 -5.65408,1.76718 -8.55751,2.2672c-3.05654,0.52639 -5.8471,0.65634 -5.8471,0.65634c0,0 -0.86173,1.49922 -2.76305,2.98229c-0.7494,0.58455 -2.88239,2.06967 -6.12803,2.51081c-2.51596,0.34197 -9.21476,-0.05582 -13.24962,-0.94865c-3.11469,-0.68921 -4.02535,-1.88686 -4.03802,-1.9381c-0.02901,-0.10212 0.09318,-3.15157 0.21404,-3.28137c0.10615,-0.14177 0.27291,-0.26526 0.5344,-0.28912l0.87176,-0.21772c0.61545,-0.12325 1.23172,-0.24249 1.84863,-0.35816c0,0 0.82197,-0.15412 0.97608,0.66783c0.00108,0.00573 0.0021,0.01143 0.00308,0.01709c0.08579,0.05124 0.14501,0.10271 0.1673,0.12325z" fill="#ffedf8" stroke="none" stroke-width="0.5" stroke-linecap="butt"/><path d="M224.89618,210.41334c5.52461,-2.40699 12.38776,-3.90543 18.08093,-5.79563c0.0734,-0.0327 0.84286,3.4773 0.84286,3.4773c-1.21956,0.41128 -5.65408,1.76718 -8.55751,2.2672c-3.05654,0.52639 -5.8471,0.65634 -5.8471,0.65634c0,0 -0.86173,1.49922 -2.76305,2.98229c-0.7494,0.58455 -2.88239,2.06967 -6.12803,2.51081c-1.50167,0.20411 -4.49345,0.14469 -7.51952,-0.12623c0.03715,-0.05612 0.07338,-0.11353 0.10863,-0.17227c0.48289,-0.80482 0.86631,-2.88553 0.70629,-4.28354c4.03464,0.01047 7.24352,0.12822 11.07649,-1.51625z" fill="#de95ea" stroke="none" stroke-width="0.5" stroke-linecap="butt"/><path d="M207.85195,210.28669c1.80542,0.70627 2.54986,1.58364 4.64157,1.58364c0,0 0.07156,-0.00001 0.17282,0.02093c0.14433,-0.02756 0.25501,-0.0175 0.25501,-0.0175l0.56984,0.05525c4.1904,0.00341 7.46857,0.17318 11.405,-1.51567c5.52461,-2.40699 12.38776,-3.90543 18.08093,-5.79563c0.0734,-0.0327 0.84286,3.4773 0.84286,3.4773c-1.21956,0.41128 -5.65408,1.76718 -8.55751,2.2672c-3.05654,0.52639 -5.8471,0.65634 -5.8471,0.65634c0,0 -0.86173,1.49922 -2.76305,2.98229c-0.7494,0.58455 -2.88239,2.06967 -6.12803,2.51081c-2.51596,0.34197 -9.21476,-0.05582 -13.24962,-0.94865c-3.11469,-0.68921 -4.02535,-1.88686 -4.03802,-1.9381c-0.02901,-0.10212 0.09318,-3.15157 0.21404,-3.28137c0.10615,-0.14177 0.27291,-0.26526 0.5344,-0.28912l0.87176,-0.21772c0.61545,-0.12325 1.23172,-0.24249 1.84863,-0.35816c0,0 0.82197,-0.15412 0.97608,0.66783c0.00108,0.00573 0.0021,0.01143 0.00308,0.01709c0.08579,0.05124 0.14501,0.10271 0.1673,0.12325z" fill="none" stroke="#000000" stroke-width="1" stroke-linecap="butt"/><path d="M228.05426,201.4077c0,0 -2.29463,-7.56979 8.619,-6.27339c1.18054,0.14023 -0.14467,4.82384 -0.14467,4.82384c0,0 1.71131,0.97787 2.81953,1.64694c1.45306,0.87726 2.64418,3.70526 2.64418,3.70526c0,0 -5.42303,1.38386 -12.38646,3.76344c-2.66106,0.90934 -5.45185,3.58286 -8.39115,3.99614c-3.09002,0.43448 -7.0206,0.25106 -10.11665,-0.47992c-3.0322,-0.7159 -5.26395,-1.9661 -5.12168,-2.81949c0.902,-5.41083 10.92743,-5.35221 10.92743,-5.35221l-0.89204,-1.78407l-2.05693,-0.75276c0,0 0.49307,-2.21376 1.95442,-3.60366c1.58675,-1.50916 4.17537,-2.20665 4.81474,-2.27177c1.80653,-0.18399 7.33026,5.40163 7.33026,5.40163z" fill="#ff292e" stroke="#000000" stroke-width="0" stroke-linecap="round"/><path d="M236.52859,199.95813c0,0 1.71131,0.97787 2.81953,1.64694c1.45306,0.87726 2.64418,3.70526 2.64418,3.70526c0,0 -5.42303,1.38386 -12.38646,3.76344c-2.66105,0.90934 -5.45185,3.58285 -8.39115,3.99614c-2.01657,0.28354 -4.39113,0.30393 -6.65812,0.0807c0.73572,-1.11251 0.95892,-2.69265 1.00917,-3.932c0.0002,-0.00486 0.00048,-0.00965 0.00085,-0.01435c0.07329,0.00578 0.14738,0.00872 0.22216,0.00872c0.44431,0 0.86435,-0.10394 1.23711,-0.28885c0.05717,-0.01396 0.10992,-0.03328 0.1567,-0.0596c0.108,-0.06075 0.2037,-0.13389 0.28951,-0.21698c0.56273,-0.54478 0.70117,-1.51672 1.1043,-2.22218l-1.37281,-2.40241c-0.1603,-0.28052 -0.42395,-0.42797 -0.7429,-0.49095l-0.44889,-0.89778l-1.36936,-0.50113c0.93289,-0.3125 1.929,-1.01023 2.84795,-1.36907c1.69752,-0.66287 3.1317,-0.97629 3.41747,-1.26205c0.18058,-0.18059 0.31551,-0.60441 0.44222,-0.82615c0.30321,-0.53062 0.39693,-1.43418 0.39337,-2.40773c2.30463,1.08848 6.31084,5.13958 6.31084,5.13958c0,0 -0.27217,-0.89787 -0.18322,-2.02219c1.14586,-0.03851 3.1178,-0.55161 4.58163,-1.05165c0.89563,-0.07029 1.82358,-0.28117 2.70097,-0.61607c0.30301,-0.11566 0.59999,-0.24612 0.88752,-0.39069c0.33522,0.02199 0.68227,0.06041 1.02864,0.09512c-0.17626,1.24615 -0.5412,2.53592 -0.5412,2.53592z" fill="#ac0e49" stroke="#000000" stroke-width="0" stroke-linecap="round"/><path d="M228.05426,201.4077c0,0 -2.29463,-7.56979 8.619,-6.27339c1.18054,0.14023 -0.14467,4.82384 -0.14467,4.82384c0,0 1.71131,0.97787 2.81953,1.64694c1.45306,0.87726 2.64418,3.70526 2.64418,3.70526c0,0 -5.42303,1.38386 -12.38646,3.76344c-2.66106,0.90934 -5.45185,3.58286 -8.39115,3.99614c-3.09002,0.43448 -7.0206,0.25106 -10.11665,-0.47992c-3.0322,-0.7159 -5.26395,-1.9661 -5.12168,-2.81949c0.902,-5.41083 10.92743,-5.35221 10.92743,-5.35221l-0.89204,-1.78407l-2.05693,-0.75276c0,0 0.49307,-2.21376 1.95442,-3.60366c1.58675,-1.50916 4.17537,-2.20665 4.81474,-2.27177c1.80653,-0.18399 7.33026,5.40163 7.33026,5.40163z" fill="none" stroke="#000000" stroke-width="1" stroke-linecap="round"/><path d="M233.29496,198.95459l-1.56106,0.33451" fill="none" stroke="#000000" stroke-width="1.5" stroke-linecap="round"/><path d="M224.45352,203.78782c0,0 0.40861,0.08172 0.59127,0.41822c0.21707,0.13609 0.49151,0.41762 0.34045,0.93123c-0.23598,0.80231 -1.03827,0.56633 -1.03827,0.56633l-1.10932,-0.33513c-0.16865,-0.10969 -0.34194,-0.20361 -0.51914,-0.28358c-0.16654,-0.04738 -0.33247,-0.09686 -0.49771,-0.1483l-0.70153,-0.15942c0,0 -0.06467,-0.01492 -0.15336,-0.05458c-0.92279,-0.11001 -1.89481,-0.00006 -2.83451,0.12735c0,0 -0.82895,0.11052 -0.93947,-0.71842c-0.11052,-0.82895 0.71842,-0.93947 0.71842,-0.93947c1.67724,-0.22031 3.46946,-0.36423 5.00866,0.3252c0.37487,0.10372 0.7533,0.19487 1.13454,0.27057z" fill="#d791e2" stroke="#000000" stroke-width="1" stroke-linecap="butt"/><path d="M220.62417,201.03829l0.38195,-0.08181c0.76154,-0.04312 1.41672,0.09866 2.05097,0.26049c1.02012,-0.00553 2.0415,0.025 3.04864,0.09163l0.56095,0.15844c0,0 0.79337,0.26446 0.52891,1.05782c-0.0819,0.2457 -0.21453,0.38995 -0.35862,0.47202c-0.1615,0.10635 -0.31821,0.13994 -0.31821,0.13994c-1.21613,0.25423 -2.19716,-0.01206 -3.18162,-0.24929c-0.92026,-0.00101 -1.84068,0.02897 -2.74794,0.08995c0,0 -0.83442,0.05563 -0.89006,-0.7788c-0.02842,-0.42621 0.1754,-0.64925 0.3816,-0.76546c0.17942,-0.30393 0.54343,-0.39493 0.54343,-0.39493z" fill="#d791e2" stroke="#000000" stroke-width="1" stroke-linecap="butt"/><path d="M213.31808,205.93502c-0.20257,-0.09722 -0.40046,-0.29278 -0.42658,-0.68466c-0.05563,-0.83443 0.7788,-0.89006 0.7788,-0.89006c1.97493,-0.13066 4.55285,0.12302 6.47783,0.59728c0.72558,0.17876 2.9135,0.9737 1.50714,2.52823c-0.43147,0.47693 -1.2923,0.00946 -1.92712,-0.09361c-1.91159,-0.31036 -3.76588,-1.06732 -5.76094,-1.18675l-0.00652,0.00163c0,0 -0.39556,0 -0.64259,-0.27205z" fill="#fff0fd" stroke="none" stroke-width="0.5" stroke-linecap="butt"/><path d="M220.14813,204.95758c0.72558,0.17876 2.9135,0.9737 1.50714,2.52823c-0.43147,0.47693 -1.2923,0.00946 -1.92712,-0.09361c-0.36698,-0.05958 -0.73184,-0.13562 -1.096,-0.22044c0.32872,-0.45747 0.5223,-1.01857 0.5223,-1.6249c0,-0.288 -0.04368,-0.56582 -0.12477,-0.82716c0.38965,0.07118 0.76505,0.15082 1.11846,0.23788z" fill="#de95ea" stroke="none" stroke-width="0.5" stroke-linecap="butt"/><path d="M213.31808,205.93502c-0.20257,-0.09722 -0.40046,-0.29278 -0.42658,-0.68466c-0.05563,-0.83443 0.7788,-0.89006 0.7788,-0.89006c1.97493,-0.13066 4.55285,0.12302 6.47783,0.59728c0.72558,0.17876 2.9135,0.9737 1.50714,2.52823c-0.43147,0.47693 -1.2923,0.00946 -1.92712,-0.09361c-1.91159,-0.31036 -3.76588,-1.06732 -5.76094,-1.18675l-0.00652,0.00163c0,0 -0.39556,0 -0.64259,-0.27205z" fill="none" stroke="#000000" stroke-width="1" stroke-linecap="butt"/><path d="M239.42796,211.82004c3.82187,-3.82082 7.77789,-3.05568 12.6486,-4.77755c6.29826,-1.98936 12.79619,-4.63363 18.23927,-0.01786c0,0 0.43792,0.37536 0.27467,0.8663l0.10976,1.2039c-0.54944,2.16183 -1.29715,3.98584 -2.44897,5.65157c-0.30951,0.44761 -2.20215,2.34659 -4.48785,3.85404c-2.33975,1.5431 -5.08859,2.69559 -6.72679,3.18363c-3.17927,0.94716 -7.08277,0.63271 -10.29613,0.12625c-2.13063,-0.33581 -7.72843,-2.79898 -7.30099,-7.84945c0,0 -0.3618,-2.19499 -0.01157,-2.24082z" fill="#de95ea" stroke="none" stroke-width="0.5" stroke-linecap="butt"/><path d="M239.42796,211.82004c3.82187,-3.82082 7.77789,-3.05568 12.6486,-4.77755c2.45238,-0.77461 4.93503,-1.6485 7.3739,-2.15444c5.1849,0.27482 7.25146,3.97697 7.18139,8.30712c-0.07058,4.36243 -14.3888,7.95027 -17.7168,7.87427c-1.6621,-0.03796 -3.49061,-0.48026 -5.17368,-0.25567c-2.23908,-1.21109 -4.58408,-3.41792 -4.30183,-6.75293c0,0 -0.3618,-2.19499 -0.01157,-2.24082z" fill="#fdebf6" stroke="none" stroke-width="0.5" stroke-linecap="butt"/><path d="M239.42796,211.82004c3.82187,-3.82082 7.77789,-3.05568 12.6486,-4.77755c6.29826,-1.98936 12.79619,-4.63363 18.23927,-0.01786c0,0 0.43792,0.37536 0.27467,0.8663l0.10976,1.2039c-0.54944,2.16183 -1.29715,3.98584 -2.44897,5.65157c-0.30951,0.44761 -2.20215,2.34659 -4.48785,3.85404c-2.33975,1.5431 -5.08859,2.69559 -6.72679,3.18363c-3.17927,0.94716 -7.08277,0.63271 -10.29613,0.12625c-2.13063,-0.33581 -7.72843,-2.79898 -7.30099,-7.84945c0,0 -0.3618,-2.19499 -0.01157,-2.24082z" fill="none" stroke="#000000" stroke-width="1" stroke-linecap="butt"/><path d="M242.54103,206.30978c0,0 -3.8121,3.08216 -5.29829,3.26664c-1.41025,0.17506 -2.45397,-2.56836 -2.41942,-2.85233c0.0881,-0.72439 8.06983,-4.81581 8.06983,-4.81581c0,0 -0.08674,-0.71264 0.48334,-1.34976c0.95362,-1.06578 3.2175,-2.44792 6.93826,-3.79109c2.59236,-0.93582 6.95947,-1.67427 8.95077,-1.06144c0.72576,0.22335 0.88148,2.15293 0.88148,2.15293c0,0 2.22629,0.58597 3.22461,0.67926c1.08724,0.10161 3.05485,-0.09239 3.05485,-0.09239c0,0 0.96489,1.88483 -0.21128,3.2395c-0.53156,0.61224 -2.19488,1.57279 -2.19488,1.57279c0,0 3.50115,1.89339 3.45974,4.69488c-0.06329,4.28165 -4.81493,10.09675 -15.38046,10.94437c-1.58322,0.12701 -7.71452,-0.74487 -9.20033,-3.71328c-2.42232,-4.83943 1.28501,-7.17237 1.28501,-7.17237z" fill="#ac0e49" stroke="#000000" stroke-width="0" stroke-linecap="round"/><path d="M242.54103,206.30978c0,0 -3.8121,3.08216 -5.29829,3.26664c-1.41025,0.17506 -2.45397,-2.56836 -2.41942,-2.85233c0.0881,-0.72439 8.06983,-4.81581 8.06983,-4.81581c0,0 -0.08674,-0.71264 0.48334,-1.34976c0.95362,-1.06578 3.2175,-2.44792 6.93826,-3.79109c2.59236,-0.93582 6.95947,-1.67427 8.95077,-1.06144c0.72576,0.22335 0.88148,2.15293 0.88148,2.15293c0,0 2.22629,0.58597 3.22461,0.67926c1.08724,0.10161 3.05485,-0.09239 3.05485,-0.09239c0,0 0.11312,0.22095 0.21467,0.56593c-1.0931,0.55768 -1.9617,1.33327 -2.72075,2.27002c-0.07882,0.0338 -1.1921,0.55473 -1.92189,-0.01754c-1.04128,-0.81654 -1.78815,-2.82524 -1.78815,-2.82524l-1.80276,-2.5286c0,0 0.86375,1.74644 -0.44603,2.98309c-1.36664,1.29034 -5.2977,3.65535 -8.69557,4.40449c-3.36382,0.74165 -6.20157,-0.12608 -6.20157,-0.12608l-0.61052,3.12952l1.65122,1.69586l-1.54713,2.50438l3.0085,-0.07466c0,0 14.02003,-3.92308 16.10279,-4.15004c0.84501,-0.09208 4.16456,2.16863 4.16456,2.16863l-2.47186,4.58436c0,0 -1.27137,-0.15531 -3.75944,0.21191c-4.34127,0.64075 -10.41518,1.8843 -11.0139,2.3912c-0.30942,0.16153 -0.58475,0.37944 -0.81235,0.64009c-0.56287,0.3852 -0.97729,0.97145 -1.13978,1.65531c-1.61606,-0.58844 -3.10167,-1.4746 -3.73725,-2.74437c-2.42232,-4.83943 1.28501,-7.17237 1.28501,-7.17237z" fill="#ff292e" stroke="#000000" stroke-width="0" stroke-linecap="round"/><path d="M242.54103,206.30978c0,0 -3.8121,3.08216 -5.29829,3.26664c-1.41025,0.17506 -2.45397,-2.56836 -2.41942,-2.85233c0.0881,-0.72439 8.06983,-4.81581 8.06983,-4.81581c0,0 -0.08674,-0.71264 0.48334,-1.34976c0.95362,-1.06578 3.2175,-2.44792 6.93826,-3.79109c2.59236,-0.93582 6.95947,-1.67427 8.95077,-1.06144c0.72576,0.22335 0.88148,2.15293 0.88148,2.15293c0,0 2.22629,0.58597 3.22461,0.67926c1.08724,0.10161 3.05485,-0.09239 3.05485,-0.09239c0,0 0.96489,1.88483 -0.21128,3.2395c-0.53156,0.61224 -2.19488,1.57279 -2.19488,1.57279c0,0 3.50115,1.89339 3.45974,4.69488c-0.06329,4.28165 -4.81493,10.09675 -15.38046,10.94437c-1.58322,0.12701 -7.71452,-0.74487 -9.20033,-3.71328c-2.42232,-4.83943 1.28501,-7.17237 1.28501,-7.17237z" fill="none" stroke="#000000" stroke-width="1" stroke-linecap="round"/><path d="M242.6584,206.54453l-0.58686,-1.05636" fill="none" stroke="#000000" stroke-width="1" stroke-linecap="round"/><path d="M243.01052,201.96698l1.87797,2.11271" fill="none" stroke="#000000" stroke-width="1" stroke-linecap="round"/><path d="M259.97093,198.15234c0,0 -0.2183,1.74906 -1.49904,2.46779c-3.52137,1.97617 -10.29695,3.16612 -10.29695,3.16612" fill="none" stroke="#000000" stroke-width="1" stroke-linecap="round"/><path d="M263.78554,203.02333l-2.87564,0.05868" fill="none" stroke="#000000" stroke-width="1" stroke-linecap="round"/><path d="M245.71009,207.65957l-1.70191,0.17605" fill="none" stroke="#000000" stroke-width="1" stroke-linecap="round"/><path d="M259.72125,202.7667c0.374,0.74799 -0.374,1.12199 -0.374,1.12199l-0.44485,0.21563c-3.84821,1.37231 -7.6633,3.14229 -11.83294,2.92292c0,0 -0.83483,-0.04911 -0.78573,-0.88395c0.04911,-0.83484 0.88394,-0.78574 0.88394,-0.78574c3.89341,0.25901 7.58562,-1.54564 11.17219,-2.82835l0.25939,-0.13649c0,0 0.74799,-0.374 1.122,0.374z" fill="#de95ea" stroke="none" stroke-width="0.5" stroke-linecap="butt"/><path d="M245.51937,210.65259c0,-0.83628 0.83628,-0.83628 0.83628,-0.83628l-0.05185,0.00733c5.73031,-0.76077 10.56578,-2.70284 16.02674,-4.65354c0,0 0.78756,-0.28127 1.06883,0.50629c0.28127,0.78757 -0.50629,1.06884 -0.50629,1.06884c-5.56049,1.98555 -10.52612,3.9538 -16.36824,4.73631l-0.16921,0.00734c0,0 -0.83628,0 -0.83628,-0.83628z" fill="#de95ea" stroke="none" stroke-width="0.5" stroke-linecap="butt"/><path d="M261.45276,204.78393c0,0.78839 -0.74324,0.83354 -0.82837,0.83613c-4.0974,1.88209 -9.24978,3.62026 -13.74362,3.9303c0,0 -0.83443,0.05563 -0.89006,-0.7788c-0.05563,-0.83443 0.7788,-0.89006 0.7788,-0.89006c4.33173,-0.27723 9.40153,-2.01424 13.31726,-3.85539l0.5297,-0.07845c0,0 0.83628,0 0.83628,0.83628z" fill="#de95ea" stroke="none" stroke-width="0.5" stroke-linecap="butt"/><path d="M247.06946,207.02724c0,0 -0.83483,-0.04911 -0.78573,-0.88395c0.00264,-0.04507 0.00759,-0.08756 0.01456,-0.12763c0.14365,0.3458 0.4465,0.69104 0.8214,1.01412c-0.01675,-0.00083 -0.03348,-0.00167 -0.05024,-0.00255z" fill="#ffeffc" stroke="none" stroke-width="0.5" stroke-linecap="butt"/><path d="M253.85826,204.26492c-0.03692,-0.00769 -0.07563,-0.01758 -0.11603,-0.02952c0.06511,-0.02228 0.13017,-0.04474 0.19519,-0.06734c-0.03881,0.05857 -0.06938,0.0989 -0.07916,0.09686z" fill="#ffeffc" stroke="none" stroke-width="0.5" stroke-linecap="butt"/><path d="M245.51937,210.65259c0,-0.83628 0.83628,-0.83628 0.83628,-0.83628l-0.05185,0.00733c1.50717,-0.20009 2.95243,-0.48191 4.36345,-0.82411c1.26357,0.47067 2.48598,0.7456 3.63347,0.72443c-2.50054,0.76567 -5.04225,1.39142 -7.77586,1.75757l-0.16921,0.00734c0,0 -0.83628,0 -0.83628,-0.83628z" fill="#ffeffc" stroke="none" stroke-width="0.5" stroke-linecap="butt"/><path d="M262.33054,205.17009c0,0 0.78756,-0.28127 1.06883,0.50629c0.28127,0.78757 -0.50629,1.06884 -0.50629,1.06884c-1.85683,0.66304 -3.64732,1.32416 -5.42627,1.93983c0.63251,-0.46446 1.21844,-1.0989 1.7483,-1.93152c0.11061,-0.17382 0.21678,-0.36645 0.31523,-0.57272c0.91981,-0.33254 1.85054,-0.67149 2.80019,-1.01071z" fill="#ffeffc" stroke="none" stroke-width="0.5" stroke-linecap="butt"/><path d="M246.88077,209.55035c0,0 -0.83443,0.05563 -0.89006,-0.7788c-0.05563,-0.83443 0.7788,-0.89006 0.7788,-0.89006c0.44146,-0.02826 0.89057,-0.07166 1.34535,-0.12881c0.66497,0.41901 1.33511,0.74561 1.69787,0.90238c0.28959,0.12514 0.57746,0.24143 0.86322,0.34769c-1.29092,0.27165 -2.56761,0.4629 -3.79516,0.5476z" fill="#ffeffc" stroke="none" stroke-width="0.5" stroke-linecap="butt"/><path d="M261.45276,204.78393c0,0.78839 -0.74324,0.83354 -0.82837,0.83613c-0.34338,0.15772 -0.69416,0.31444 -1.05134,0.46939c0.2844,-0.62165 0.49728,-1.35604 0.55461,-2.0694l0.48882,-0.07241c0,0 0.83628,0 0.83628,0.83628z" fill="#ffeffc" stroke="none" stroke-width="0.5" stroke-linecap="butt"/><path d="M259.72125,202.7667c0.374,0.74799 -0.374,1.12199 -0.374,1.12199l-0.44485,0.21563c-3.84821,1.37231 -7.6633,3.14229 -11.83294,2.92292c0,0 -0.83483,-0.04911 -0.78573,-0.88395c0.04911,-0.83484 0.88394,-0.78574 0.88394,-0.78574c3.89341,0.25901 7.58562,-1.54564 11.17219,-2.82835l0.25939,-0.13649c0,0 0.74799,-0.374 1.122,0.374z" fill="none" stroke="#000000" stroke-width="1" stroke-linecap="butt"/><path d="M245.51937,210.65259c0,-0.83628 0.83628,-0.83628 0.83628,-0.83628l-0.05185,0.00733c5.73031,-0.76077 10.56578,-2.70284 16.02674,-4.65354c0,0 0.78756,-0.28127 1.06883,0.50629c0.28127,0.78757 -0.50629,1.06884 -0.50629,1.06884c-5.56049,1.98555 -10.52612,3.9538 -16.36824,4.73631l-0.16921,0.00734c0,0 -0.83628,0 -0.83628,-0.83628z" fill="none" stroke="#000000" stroke-width="1" stroke-linecap="butt"/><path d="M261.45276,204.78393c0,0.78839 -0.74324,0.83354 -0.82837,0.83613c-4.0974,1.88209 -9.24978,3.62026 -13.74362,3.9303c0,0 -0.83443,0.05563 -0.89006,-0.7788c-0.05563,-0.83443 0.7788,-0.89006 0.7788,-0.89006c4.33173,-0.27723 9.40153,-2.01424 13.31726,-3.85539l0.5297,-0.07845c0,0 0.83628,0 0.83628,0.83628z" fill="none" stroke="#000000" stroke-width="1" stroke-linecap="butt"/></g><g stroke="#000000" stroke-width="1"><path d="M253.20524,173.92482l1.66246,0.51194c0,0 0.0441,-2.11909 0.44312,-2.86428c0.33523,-0.62609 1.79312,-1.31213 1.79312,-1.31213c0,0 -0.02117,-1.08204 0.43162,-1.4196c0.19293,-0.14382 2.45681,-1.30825 3.03316,-0.97699c0.47192,0.27122 0.53774,5.34624 0.53774,5.34624c0,0 2.75503,-6.26627 4.03579,-6.8851c0.18032,-0.08712 2.85413,1.47978 2.58397,2.55657c-0.4799,1.91283 -3.83492,6.39157 -4.34028,10.34262c-0.30554,2.38888 2.50298,4.57666 1.71411,5.91108c-0.44781,0.7575 -2.36632,2.18225 -3.54338,1.81681c-1.27328,-0.39531 -1.79284,-2.61665 -1.79284,-2.61665c0,0 -2.19076,0.13079 -2.83737,-0.55628c-0.65283,-0.69369 -1.06112,-3.58619 -1.06112,-3.58619l-2.31251,0.11207z" fill="#f89688" stroke-linecap="round"/><path d="M257.18843,170.02307l0.46139,4.70953l-2.53675,-0.60948" fill="none" stroke-linecap="round"/><path d="M258.02672,179.6794l-1.92413,0.59798" fill="none" stroke-linecap="round"/><path d="M255.03412,175.7508c0.92425,2.95853 -1.44263,6.33039 -5.28656,7.53123c-3.84394,1.20084 -7.76898,-0.0026 -8.47755,-3.02006c-0.39288,-1.67307 1.28662,-6.49289 5.13055,-7.69374c3.84394,-1.20084 7.70931,0.22404 8.63357,3.18257z" fill="#dc94e7" stroke-linecap="butt"/></g><g><path d="M248.83933,181.63459l7.66593,7.03872l-2.71792,2.36947c0,0 -0.00074,-4.24691 -5.83906,-4.02789c-3.35552,0.12589 -8.7262,2.91284 -8.7262,2.91284c0,0 -0.37551,-0.82151 -1.56725,-1.22298c-0.87186,-0.29371 -2.5045,-0.20065 -3.13091,-0.20447c-4.86352,-0.0296 -9.93679,7.07236 -9.93679,7.07236c0,0 -2.32663,-2.5199 -1.9287,-3.63581c0.59173,-1.65941 5.13446,-5.35423 5.13446,-5.35423l0.41814,-5.0177c0,0 1.17686,-6.13112 9.12978,-6.09955c9.02077,0.03582 11.49854,6.16924 11.49854,6.16924z" fill="#fdebf6" stroke="#000000" stroke-width="0" stroke-linecap="round"/><path d="M248.83933,181.63459l7.66593,7.03872l-2.71792,2.36947c0,0 -0.00031,-1.7831 -1.58886,-2.97894c-0.41393,-0.85405 -0.94303,-1.6335 -1.58469,-2.23222c-1.35808,-1.57285 -3.01716,-2.7211 -4.98523,-3.24813c-0.30519,-0.13019 -0.63601,-0.23695 -1.0046,-0.31161c-1.35739,-0.27496 -4.43605,-0.1848 -4.6988,1.71899c-0.16801,1.21743 1.54871,3.04006 2.22084,3.93271c0.15575,0.15575 0.3249,0.31111 0.50179,0.46691c-1.30732,0.51447 -2.42447,1.04203 -3.00304,1.32566c-0.67528,-4.16233 -3.48041,-7.72662 -8.06998,-5.43861c-1.14426,0.63545 -2.47022,1.35316 -3.77107,2.17478l0.40728,-4.88741c0,0 1.17686,-6.13112 9.12978,-6.09954c9.02079,0.03582 11.49854,6.16923 11.49854,6.16923z" fill="#dc94e7" stroke="#000000" stroke-width="0" stroke-linecap="butt"/><path d="M241.22489,182.32166c-0.40273,0.30858 -0.76242,1.77467 -1.12871,3.05766c1.24898,-1.27573 2.88966,-2.20441 4.6085,-2.61793c0.1633,-0.03928 0.39493,-0.08587 0.65751,-0.12134c-0.48605,-1.04025 -3.43517,-0.85637 -4.13729,-0.3184zM246.04478,180.87706c0.45169,0.38717 1.06712,1.21833 1.26273,1.97823c0.21467,0.14937 0.34976,0.37219 0.34976,0.69579c0,0.42895 -0.4878,0.64087 -1.1565,0.78124c-0.08591,0.02257 -0.17918,0.04103 -0.28019,0.05504c-0.0092,0.00127 -0.01899,0.0024 -0.02929,0.00335c-1.07579,0.18383 -2.45712,0.2549 -3.10185,0.70719c-0.30754,0.21575 -1.69402,1.6655 -2.73937,2.41389c-0.14202,0.2593 -0.41746,0.43513 -0.73397,0.43513c-0.0065,0 -0.01299,-0.00008 -0.01946,-0.00022c-0.00647,0.00183 -0.01299,0.00364 -0.01956,0.00543c-0.98892,0.26971 -2.79821,-1.2749 -3.90651,-1.2918c-1.26533,-0.0193 -3.71725,1.01027 -3.78967,-0.25111c-0.00295,-0.005 -0.00587,-0.01011 -0.00874,-0.01537c-0.07967,-0.12806 -0.12569,-0.27923 -0.12569,-0.44116c0,-0.0121 0.00026,-0.02414 0.00077,-0.03612c-0.00026,-0.00225 -0.00051,-0.0045 -0.00077,-0.00677c-0.34183,-3.05015 4.99771,-4.80954 6.83827,-2.66913c1.15597,-2.74551 4.91525,-4.54491 7.46007,-2.36364zM237.82878,184.91919c-0.76594,-0.2412 -1.64996,-0.94136 -2.60412,-0.87492c-0.34901,0.02431 -0.77808,0.39704 -1.21475,0.84911c1.43489,-0.17365 3.06938,0.23532 4.30049,0.81251c-0.03755,-0.18898 -0.06089,-0.37758 -0.07093,-0.56508c-0.15808,-0.03382 -0.29959,-0.11231 -0.41069,-0.22162z" fill="#ff0000" stroke="none" stroke-width="0.5" stroke-linecap="butt"/><path d="M246.04478,180.87706c0.45169,0.38717 1.06712,1.21832 1.26273,1.97823c0.19849,0.13812 0.32895,0.33903 0.34748,0.62435c-0.02277,-0.02398 -0.0462,-0.04753 -0.07026,-0.07067l0.00335,-0.03144c-0.01491,-0.0024 -0.02985,-0.00486 -0.04481,-0.00742c-0.53955,-0.49294 -1.37503,-0.78217 -2.2524,-0.85114c-0.65124,-0.9036 -3.39243,-0.71336 -4.06595,-0.19731c-0.13121,0.10053 -0.25785,0.32393 -0.38165,0.62383c-0.25574,0.29322 -0.35732,0.65181 -0.35034,1.03483c-0.13295,0.44809 -0.26442,0.93549 -0.39674,1.39899c0.18166,-0.18555 0.3716,-0.36376 0.56887,-0.53411c0.20922,0.58667 0.58262,1.16129 0.97293,1.59171c-0.42537,0.3885 -0.88232,0.78448 -1.28793,1.07487c-0.14202,0.2593 -0.41746,0.43512 -0.73397,0.43512c-0.0065,0 -0.013,-0.00008 -0.01947,-0.00022c-0.00647,0.00183 -0.01299,0.00364 -0.01956,0.00543c-0.09448,0.02577 -0.19644,0.03497 -0.30455,0.03054c0.00049,-0.00921 0.00049,-0.01431 0.00049,-0.01431l-0.00561,-0.20751c-0.1524,-1.05174 -0.51361,-1.88486 -1.02054,-2.51048c-0.00297,-0.03656 -0.00542,-0.07309 -0.00737,-0.10958c-0.03903,-0.00835 -0.07705,-0.01942 -0.11386,-0.03302c-1.44063,-1.61493 -3.92446,-1.69894 -6.1799,-0.47592c0.98366,-2.21266 5.07483,-3.21017 6.639,-1.39117c1.15598,-2.74551 4.91526,-4.54491 7.46007,-2.36364z" fill="#90093a" stroke="none" stroke-width="0.5" stroke-linecap="butt"/><path d="M248.83932,181.63459l7.66593,7.03872l-2.71792,2.36947c0,0 -0.00072,-4.24691 -5.83906,-4.02789c-3.35552,0.12589 -8.7262,2.91284 -8.7262,2.91284c0,0 -0.37551,-0.82152 -1.56725,-1.22299c-0.87186,-0.29371 -2.5045,-0.20065 -3.1309,-0.20447c-4.86351,-0.0296 -9.93679,7.07237 -9.93679,7.07237c0,0 -2.32663,-2.5199 -1.9287,-3.63581c0.59173,-1.65941 5.13446,-5.35423 5.13446,-5.35423l0.41814,-5.0177" fill="none" stroke="#000000" stroke-width="1" stroke-linecap="round"/><path d="M239.50082,187.14012l-1.11504,-2.29978" fill="none" stroke="#000000" stroke-width="1" stroke-linecap="round"/></g><path d="M176.16667,243.83333v-127.66667h127.66667v127.66667z" fill="none" stroke="none" stroke-width="NaN" stroke-linecap="butt"/><g stroke="#000000"><g stroke-linecap="round"><path d="M260.15112,166.1158c0,0 6.79638,-5.66552 10.05862,-1.03364c0.69287,0.98378 0.13801,1.82904 -0.97291,2.29554c-1.18006,0.49553 -2.9882,0.5955 -4.61761,1.10127c-2.83068,0.87866 -4.93843,2.46006 -4.93843,2.46006l0.47033,-4.82327z" fill="#0066cd" stroke-width="0"/><path d="M270.20974,165.08215c0.69287,0.98377 0.13801,1.82904 -0.97291,2.29554c-1.18006,0.49554 -2.9882,0.59551 -4.61761,1.10127c-2.83069,0.87866 -4.93843,2.46006 -4.93843,2.46006l0.2847,-2.91966c2.70732,-1.27584 5.6749,-2.85783 7.78886,-4.60953c0.01121,-0.00928 0.0231,-0.01914 0.03562,-0.02954c0.89834,0.21338 1.73655,0.73177 2.41975,1.70184z" fill="#061482" stroke-width="0"/><path d="M270.20975,165.08214c0.69287,0.98378 0.138,1.82904 -0.97291,2.29554c-1.18006,0.49554 -2.98821,0.59551 -4.61761,1.10129c-2.83069,0.87867 -4.93844,2.46006 -4.93844,2.46006l0.47033,-4.82325c0,0 6.79641,-5.66553 10.05863,-1.03365z" fill="none" stroke-width="1"/></g><g><path d="M223.98658,171.20095c-0.04544,2.22334 -1.73346,4.73548 -3.75157,4.69424c-2.01811,-0.04124 -3.60209,-2.62025 -3.55665,-4.84359c0.04544,-2.22334 1.71827,-3.99228 3.73638,-3.95103c2.01811,0.04124 3.61727,1.87705 3.57184,4.10039z" fill="#f99688" stroke-width="1" stroke-linecap="butt"/><path d="M220.84305,173.42922c0,0 -10.94919,-25.61661 12.92862,-26.9625c31.41923,-1.77097 22.24244,21.98097 22.24244,21.98097c0,0 4.07441,-5.60548 4.16766,-5.0451c0.12923,0.7765 -0.35484,4.81722 -1.20035,8.25751c-0.33174,1.3498 -0.74618,4.20688 -1.68664,4.48458c-0.78044,0.23047 -2.14033,-2.01427 -2.14033,-2.01427c0,0 -2.38328,2.25812 -6.9451,3.94729c-7.36758,2.72813 -19.84033,4.9806 -32.81362,1.38401c-1.22833,-0.34054 -1.41546,-1.62637 -0.08853,-2.82633c1.79354,-1.62194 5.53582,-3.20617 5.53582,-3.20617z" fill="#fde0be" stroke-width="0" stroke-linecap="round"/><path d="M233.77167,146.46672c31.41923,-1.77097 22.24244,21.98097 22.24244,21.98097c0,0 4.07441,-5.60548 4.16766,-5.0451c0.12923,0.7765 -0.35484,4.81722 -1.20035,8.25751c-0.07148,0.29083 -0.14679,0.65164 -0.23039,1.04154c-0.49782,-0.31725 -1.02603,-0.60971 -1.57417,-0.87865c0.00579,-0.04241 0.0092,-0.0856 0.0101,-0.12942c0.01258,-0.61569 -0.47634,-1.12501 -1.09202,-1.13759c-0.36201,-0.0074 -0.68725,0.15858 -0.89635,0.42176c-2.24101,-0.83336 -4.59803,-1.33735 -6.46977,-1.5833c-7.79842,-1.02477 -19.66939,-0.50831 -27.96829,3.83367c-0.96287,-2.39963 -9.6239,-25.48552 13.01114,-26.76136z" fill="#f89688" stroke-width="0" stroke-linecap="round"/><path d="M233.77167,146.46672c31.41921,-1.77097 22.24244,21.98095 22.24244,21.98095c0,0 4.0744,-5.60548 4.16766,-5.0451c0.12923,0.7765 -0.35484,4.81722 -1.20035,8.25751c-0.33174,1.3498 -0.74618,4.20688 -1.68664,4.48458c-0.78044,0.23047 -2.14033,-2.01427 -2.14033,-2.01427c0,0 -2.38328,2.25812 -6.94509,3.94729c-7.36758,2.72813 -19.84033,4.9806 -32.81362,1.38401c-1.22833,-0.34054 -1.41546,-1.62637 -0.08854,-2.82633c1.79354,-1.62194 5.53582,-3.20617 5.53582,-3.20617c0,0 -10.94917,-25.61659 12.92863,-26.96248z" fill="none" stroke-width="1" stroke-linecap="round"/><path d="M257.43978,171.45089l1.18822,-3.56939" fill="none" stroke-width="1" stroke-linecap="round"/></g><g stroke-linecap="round"><path d="M219.66007,170.67883c0,0 -6.29139,-17.22911 -5.20478,-20.1996c1.38403,-3.78356 11.75618,-8.9153 19.01372,-8.99365c8.82528,-0.09527 14.10976,1.05614 18.57619,3.99287c3.03563,1.99597 5.5443,6.52012 5.5443,6.52012l-1.57029,16.20138c0,0 -7.07175,-5.61492 -19.6105,-4.79796c-12.21079,0.79559 -16.74863,7.27683 -16.74863,7.27683z" fill="#ff292e" stroke-width="0"/><path d="M250.36074,165.28182c0,0 0.37561,-20.92645 3.84465,-17.92844c2.18977,1.89246 3.38407,4.64516 3.38407,4.64516l-1.57029,16.20138c0,0 -2.4124,-1.43309 -3.4204,-1.95293c-0.85166,-0.4392 -2.23802,-0.96517 -2.23802,-0.96517z" fill="#ac0e49" stroke-width="0.5"/><path d="M214.45526,150.47921c1.38403,-3.78355 11.75618,-8.9153 19.01372,-8.99365c8.82528,-0.09527 14.10975,1.05614 18.57619,3.99287c3.03563,1.99596 5.5443,6.52012 5.5443,6.52012l-1.57029,16.20139c0,0 -7.07175,-5.61491 -19.6105,-4.79795c-12.21078,0.79559 -16.74862,7.27682 -16.74862,7.27682c0,0 -6.2914,-17.22911 -5.20479,-20.1996z" fill="none" stroke-width="1"/></g></g><g stroke="#000000"><path d="M214.20652,160.93581c0,0 -8.36516,-6.577 -6.85455,-8.01469c1.39853,-1.33102 9.32505,-3.63548 13.62603,-3.70563c1.34925,-0.022 3.46509,1.97781 3.46509,1.97781c0,0 3.26264,-3.17317 4.9485,-3.97856c1.5599,-0.74522 4.81811,-0.68733 4.81811,-0.68733c0,0 -3.62737,1.93607 -4.25114,5.55861c-0.80459,4.67274 11.13986,11.11517 11.13986,11.11517c0,0 6.89526,0.72224 10.95054,2.24808c6.88995,2.5924 11.39966,8.16038 11.39966,8.16038l-11.50153,-3.92404l0.44969,3.18343l-11.04461,-9.49108c0,0 -7.66068,-0.20764 -11.37295,0.71313c-4.76527,1.18194 -10.8867,5.43785 -10.8867,5.43785c0,0 -2.39134,-1.12185 -3.90315,-1.43968c-1.97777,-0.41578 -6.95616,-0.32648 -6.95616,-0.32648c0,0 0.2032,-2.07201 0.94818,-2.86065c1.10042,-1.16495 5.0251,-3.96631 5.0251,-3.96631z" fill="#4fa6ec" stroke-width="0" stroke-linecap="round"/><path d="M214.20652,160.93581c0,0 -8.36516,-6.577 -6.85455,-8.01469c1.39853,-1.33102 9.32505,-3.63548 13.62603,-3.70563c1.34925,-0.022 3.46509,1.97781 3.46509,1.97781c0,0 3.26264,-3.17317 4.9485,-3.97856c1.5599,-0.74522 4.81811,-0.68733 4.81811,-0.68733c0,0 -2.4162,1.68262 -4.26894,3.47362c-1.15717,1.1186 -2.04435,2.38516 -2.14019,2.98515c-0.12872,0.80586 -0.00344,1.62052 -0.06558,2.42048c-1.03645,-0.71416 -3.74466,-2.31191 -5.46763,-2.29014c-2.83658,0.03584 -4.71498,2.07845 -4.71498,2.07845l3.59613,5.1412c0,0 -3.07944,1.69022 -4.52237,2.6281c-1.37129,0.89131 -3.93126,2.86657 -3.93126,2.86657c0,0 1.57282,0.93019 2.34073,1.62054c0.31041,0.27906 -0.01291,0.50867 0.15287,0.63772c-1.97838,-0.41556 -6.95524,-0.32628 -6.95524,-0.32628c0,0 0.2032,-2.07201 0.94818,-2.86065c1.10042,-1.16495 5.0251,-3.96631 5.0251,-3.96631z" fill="#66ffff" stroke-width="0" stroke-linecap="butt"/><path d="M214.20651,160.93581c0,0 -8.36516,-6.577 -6.85455,-8.01469c1.39851,-1.33102 9.32505,-3.63548 13.62603,-3.70563c1.34925,-0.02201 3.46509,1.97782 3.46509,1.97782c0,0 3.26266,-3.17318 4.94851,-3.97857c1.5599,-0.74522 4.81811,-0.68732 4.81811,-0.68732c0,0 -3.62738,1.93607 -4.25114,5.55861c-0.80459,4.67274 11.13986,11.11516 11.13986,11.11516c0,0 6.89526,0.72225 10.95054,2.24808c6.88995,2.59241 11.39966,8.16038 11.39966,8.16038l-11.50154,-3.92404l0.44969,3.18343l-11.0446,-9.49108c0,0 -7.66068,-0.20764 -11.37295,0.71313c-4.76527,1.18192 -10.8867,5.43785 -10.8867,5.43785c0,0 -2.39133,-1.12185 -3.90314,-1.43967c-1.97776,-0.41578 -6.95617,-0.32648 -6.95617,-0.32648c0,0 0.2032,-2.07201 0.94817,-2.86065c1.10042,-1.16495 5.02511,-3.96631 5.02511,-3.96631z" fill="none" stroke-width="1" stroke-linecap="round"/><path d="M224.47979,153.59618l0.05257,-2.57264" fill="none" stroke-width="1" stroke-linecap="round"/></g><g stroke-linecap="butt"><path d="M223.95936,155.39251c0.39639,-0.27821 0.76994,-0.49253 1.12331,-0.65037c0.67306,-1.09859 1.54012,-1.76838 3.73015,-1.14419c2.60704,2.17484 2.91351,3.91566 4.47988,6.7807l0.06779,0.14121c0.06363,0.10097 0.11284,0.24119 0.06535,0.40591c-0.01937,0.10471 -0.07374,0.21449 -0.19534,0.30411c-0.11175,0.10166 -0.23005,0.13343 -0.33653,0.13187c-0.17462,0.01458 -0.30432,-0.06491 -0.3909,-0.14918c-2.08883,-1.66029 -3.63585,-6.72598 -6.90953,-5.4741c-0.3432,0.70641 -0.59308,1.58416 -1.12934,2.3066c-0.51877,0.69886 -1.10452,1.30169 -1.47652,1.99114c-0.07283,0.35918 -0.11526,0.71897 -0.12007,1.07518l-0.00152,0.07432c0,0 -0.00651,0.31844 -0.25038,0.46903c0.00274,0.04156 0.00634,0.08359 0.01087,0.12607c0,0 0.05784,0.55452 -0.49667,0.61234c-0.55452,0.05784 -0.61235,-0.49668 -0.61235,-0.49668c-0.08891,-0.86673 0.0897,-1.56566 0.41191,-2.2034c0.34161,-1.54258 1.13319,-3.04023 2.02992,-4.30062z" fill="#000000" stroke="none" stroke-width="0.5"/><path d="M240.01675,153.68428c-0.28008,1.03624 0.26111,5.89564 -1.44516,5.85172c-0.05218,-0.00135 -0.10171,-0.00469 -0.14871,-0.00992c-0.06541,0.09344 -0.17348,0.17444 -0.34998,0.20989c-0.5466,0.10979 -0.6564,-0.4368 -0.6564,-0.4368c-0.65013,-3.31301 0.06163,-10.72466 5.28129,-8.69173c2.17756,1.41629 4.28631,2.52061 5.93912,4.57573l0.22265,0.61007c0.06037,0.10024 0.09838,0.2332 0.05056,0.39403c-0.01914,0.10579 -0.07135,0.21892 -0.19082,0.3063c-0.10948,0.09959 -0.23076,0.12813 -0.33826,0.12573c-0.16949,0.01492 -0.29326,-0.0509 -0.37959,-0.13164c-1.89202,-1.23004 -6.17991,-6.78471 -7.98471,-2.80339z" fill="#000000" stroke="none" stroke-width="0.5"/><path d="M242.81893,168.63584c0.17495,2.78625 -0.59666,5.10228 -1.72344,5.17304c-1.12679,0.07074 -2.18206,-2.13058 -2.35701,-4.91682c-0.17495,-2.78625 0.59667,-5.10228 1.72346,-5.17305c1.12679,-0.07074 2.18205,2.13059 2.357,4.91683z" fill="#000000" stroke="none" stroke-width="0"/><path d="M233.63384,169.40042c0.88114,2.73541 0.77179,5.21823 -0.24421,5.54551c-1.01602,0.32728 -2.55395,-1.62491 -3.4351,-4.36033c-0.88114,-2.73541 -0.77179,-5.21823 0.24422,-5.54551c1.01602,-0.32728 2.55395,1.62491 3.4351,4.36033z" fill="#000000" stroke="none" stroke-width="0"/><path d="M239.82821,178.43039c0.38664,1.93233 -0.16475,3.67183 -1.23156,3.88528c-1.0668,0.21346 -2.24505,-1.17996 -2.63169,-3.11229c-0.38664,-1.93233 0.16475,-3.67184 1.23156,-3.8853c1.0668,-0.21346 2.24506,1.17998 2.6317,3.11231z" fill="#ff6666" stroke="#000000" stroke-width="1"/></g></g></g></svg>