<svg version="1.1" xmlns="http://www.w3.org/2000/svg" xmlns:xlink="http://www.w3.org/1999/xlink" width="306.30631" height="274.77477" viewBox="0,0,306.30631,274.77477"><g transform="translate(-86.84685,-42.61262)"><g data-paper-data="{&quot;isPaintingLayer&quot;:true}" fill-rule="nonzero" stroke-linecap="butt" stroke-linejoin="miter" stroke-miterlimit="10" stroke-dasharray="" stroke-dashoffset="0" style="mix-blend-mode: normal"><path d="M86.84686,317.38739v-274.77477h306.30631v274.77477z" data-paper-data="{&quot;index&quot;:null}" fill="none" stroke="none" stroke-width="0"/><text transform="translate(271.55609,110.72263) rotate(-180) scale(0.1602,-0.1602)" font-size="40" xml:space="preserve" data-paper-data="{&quot;index&quot;:null}" fill="#000000" fill-rule="nonzero" stroke="none" stroke-width="1" stroke-linecap="butt" stroke-linejoin="miter" stroke-miterlimit="10" stroke-dasharray="" stroke-dashoffset="0" font-family="Sans Serif" font-weight="normal" text-anchor="start" style="mix-blend-mode: normal"><tspan x="0" dy="0">AwezomeXD</tspan><tspan x="0" dy="46.150000000000006px"> </tspan><tspan x="0" dy="46.150000000000006px">MeIzAwezomeDede</tspan></text><g data-paper-data="{&quot;index&quot;:null}"><g><g><g><path d="M203.32552,123.37766c0,0 9.48509,-14.20658 36.08175,-15.60721c12.55177,-0.66101 36.1951,-2.8932 36.1951,-2.8932c0,0 5.17771,3.20602 7.155,3.17257c2.46885,-0.04177 5.05373,-3.41311 5.05373,-3.41311c0,0 0.44414,4.1409 0.11637,7.48483c-1.23462,12.59543 -11.14649,12.18454 -11.14649,12.18454c0,0 3.64225,5.88867 3.60353,10.18842c-0.04072,4.51981 -3.81017,6.79322 -3.81017,6.79322c0,0 2.32013,3.61654 2.3098,7.21241c-0.00683,2.37386 -0.37088,5.03523 -0.82726,7.44757c-0.77881,4.11666 8.50687,8.50813 8.50687,8.50813c0,0 -7.58897,5.87765 -14.40675,6.41601c-7.17934,0.5669 1.99451,15.9142 0.0261,16.1159c-2.93505,0.30075 -10.3977,-4.42029 -10.3977,-4.42029c0,0 -0.09361,10.2096 -1.92248,10.3301c-2.28126,0.15028 -4.75349,-3.88803 -7.33121,-4.41969c-2.37256,-0.48933 -4.50321,-6.98312 -4.50321,-6.98312c0,0 -2.28968,6.70619 -5.1665,7.42698c-2.79169,0.69948 -4.66018,5.77285 -5.83051,5.84341c-4.26622,0.2572 -8.51069,-12.92256 -8.51069,-12.92256c0,0 -12.52794,7.89463 -15.21979,5.25101c-3.17703,-3.12013 -3.45776,-19.03668 -3.45776,-19.03668c0,0 -5.29715,-4.86112 -5.59463,-7.70635c-0.66809,-6.38987 2.74103,-11.26955 2.74103,-11.26955c0,0 -3.22617,0.18751 -4.86204,1.27593c-1.73879,1.1569 -5.28082,5.47252 -5.28082,5.47252c0,0 -0.97799,-5.65414 -0.40407,-8.31782c0.60355,-2.80116 3.94097,-8.09747 3.94097,-8.09747c0,0 -4.54473,-3.79846 -6.17789,-9.10167c-0.8753,-2.84226 0.2904,-8.80511 0.2904,-8.80511c0,0 4.04402,4.12076 5.78071,4.77023c1.34718,0.50381 3.04862,-2.89993 3.04862,-2.89993z" fill="#6d0f0a" stroke="#000000" stroke-width="2"/><path d="M201.06733,116.53608c0,0 -3.04615,-7.88244 -0.70306,-17.85983c1.2685,-5.40155 6.10807,-12.05647 9.07403,-16.66762c4.20325,-6.53471 12.82324,-9.39692 20.03138,-9.77651c9.47561,-0.49901 15.83711,9.07734 15.83711,9.07734c0,0 9.85785,-3.93799 17.10439,-2.15361c7.00075,1.72386 11.78622,9.74691 13.11648,11.73858c2.02658,3.03422 3.5925,16.91409 3.5925,16.91409c0,0 -27.5791,21.45679 -42.59752,22.24768c-16.04422,0.84492 -26.43227,-16.32875 -32.21856,-13.56127c-2.03598,0.97378 -3.23673,0.04116 -3.23673,0.04116z" fill="#6d0f0a" stroke="#000000" stroke-width="2"/><path d="M207.19843,86.70863c0,0 2.1977,-3.09179 3.34256,-4.43523c1.09225,-1.28169 3.37622,-3.4489 3.37622,-3.4489c0,0 8.13544,6.29778 12.48393,7.79639c4.55686,1.57042 12.26407,-0.27054 12.26407,-0.27054c0,0 -0.00969,2.3205 0.21944,3.26971c0.24225,1.00358 0.72262,2.62276 0.72262,2.62276c0,0 1.27131,-1.82029 1.6184,-2.599c0.37489,-0.84106 1.0116,-2.6159 1.0116,-2.6159c0,0 1.62609,3.80242 2.38056,5.22618c0.61782,1.16593 1.81878,2.69844 1.81878,2.69844c0,0 -0.01172,-2.13373 -0.10031,-3.2426c-0.09381,-1.17402 -0.44778,-3.61721 -0.44778,-3.61721c0,0 9.4176,4.57209 15.29671,6.32417c0.11804,0.03517 4.73199,0.03062 5.07361,0.07801c7.34535,1.01881 5.03226,-8.35202 5.03226,-8.35202c0,0 2.75273,3.49853 3.81162,6.56566c1.07396,3.11081 2.58757,11.97 2.58757,11.97c0,0 -5.27734,-3.20662 -10.29866,-3.76578c-0.891,-0.09922 -10.58459,-0.63965 -10.58459,-0.63965c0,0 -1.40506,-2.16826 -2.1666,-3.07615c-0.74623,-0.88965 -2.35761,-2.31759 -2.35761,-2.31759c0,0 -1.21737,1.85458 -1.81841,3.00088c-0.72209,1.37714 -2.21796,4.69718 -2.21796,4.69718c0,0 -0.87116,-1.87825 -1.51357,-2.88543c-0.71467,-1.12048 -2.58077,-3.53385 -2.58077,-3.53385c0,0 -1.32129,0.44932 -2.04673,0.92842c-1.0071,0.6651 -3.43312,2.69054 -3.43312,2.69054c0,0 -0.74967,-2.87899 -1.22683,-4.16038c-0.41283,-1.10864 -1.47119,-3.08509 -1.47119,-3.08509c0,0 -1.6471,1.12863 -2.51704,1.87973c-1.08559,0.9373 -3.49398,3.31012 -3.49398,3.31012c0,0 -7.1726,-7.99998 -11.08463,-9.89249c-3.65935,-1.77028 -11.68014,-1.12035 -11.68014,-1.12035z" fill="#c42d06" stroke="none" stroke-width="0"/></g><path d="M222.37632,132.94274c0,0 -20.91368,-9.5306 -21.23321,-10.95914c-0.43373,-1.93913 1.68543,-3.10605 1.4481,-4.11745c-0.37811,-1.61133 -0.87106,-3.19574 -0.87106,-3.19574c0,0 64.16658,-6.99807 74.20745,-7.67534c2.55799,-0.17255 5.12118,2.32946 5.12118,2.32946l-12.19308,18.83395z" fill="#6d0f0a" stroke="none" stroke-width="NaN"/></g><path d="M246.50355,82.61992c0,0 -4.21409,-1.86728 -2.35983,-7.38618c0.09771,-0.2908 0.79852,-1.44818 1.0321,-1.70072c1.78988,-1.93515 6.75731,-2.0368 6.75731,-2.0368c0,0 -3.229,4.43212 -4.28695,5.94714c-0.94298,1.35037 -1.14262,5.17656 -1.14262,5.17656z" fill="#6d0f0a" stroke="#000000" stroke-width="1.5"/><path d="M241.55389,71.5211c0,0 1.31307,1.08991 1.68224,2.8423c0.36865,0.87778 0.51444,3.75933 0.51444,3.75933l-1.83504,-1.16863z" fill="#000000" stroke="none" stroke-width="0"/></g><path d="M245.71344,81.11103l3.77259,0.14328c0,0 -3.05276,4.24658 -3.57713,4.39055c-0.73411,0.20156 -3.08303,-5.23157 -3.08303,-5.23157z" fill="#6d0f0a" stroke="none" stroke-width="0"/></g><g data-paper-data="{&quot;index&quot;:null}"><text transform="translate(294.68339,229.00289) rotate(-180) scale(0.27921,-0.27921)" font-size="40" xml:space="preserve" fill="#000000" fill-rule="nonzero" stroke="none" stroke-width="1" stroke-linecap="butt" stroke-linejoin="miter" stroke-miterlimit="10" stroke-dasharray="" stroke-dashoffset="0" font-family="Sans Serif" font-weight="normal" text-anchor="start" style="mix-blend-mode: normal"><tspan x="0" dy="0">AwezomeXD</tspan><tspan x="0" dy="46.150000000000006px"> </tspan><tspan x="0" dy="46.150000000000006px">MeIzAwezomeDede</tspan></text><g data-paper-data="{&quot;index&quot;:null}"><g><path d="M304.61433,280.7271c-0.97394,-0.3343 -2.81981,-1.05375 -2.81981,-1.05375l2.00112,-62.99775c0,0 3.12264,-3.42551 4.77674,-5.10754c1.78782,-1.81801 6.83093,-5.9246 6.83093,-5.9246c0,0 5.94054,0.17965 11.08569,1.75457c7.39586,2.26385 29.04162,10.52827 29.04162,10.52827c0,0 -0.29139,23.00613 -1.11993,33.98866c-0.74728,9.90532 -3.63272,29.00908 -3.63272,29.00908c0,0 -14.3168,1.48011 -21.61682,1.59314c-7.15813,0.11083 -21.76596,-0.92143 -21.76596,-0.92143c0,0 -1.89659,-0.56514 -2.78087,-0.86866z" fill="#434253" stroke="#000000" stroke-width="2.5"/><path d="M306.04174,281.58894c0,0 3.19421,-16.34268 5.26935,-30.13714c1.48339,-9.86081 2.04443,-18.33187 2.06476,-19.00203c0.15509,-5.11269 -0.3723,-9.50368 -0.00091,-14.70459c0.49814,-6.97594 1.18056,-11.43244 1.18056,-11.43244l2.10035,-1.22928c0,0 -1.17975,18.14658 -2.93073,35.27697c-0.73182,7.15966 -2.77258,22.22022 -3.75528,31.64788c-0.10799,1.03599 0.50491,2.39047 0.4064,3.33489c-0.55015,5.27458 -0.93311,6.24975 -0.93311,6.24975l-3.40139,-0.00403z" fill="#000000" stroke="none" stroke-width="0"/></g><g stroke="#000000" stroke-width="1.5"><path d="M345.29834,263.35312c0.94113,9.66742 -4.93088,16.17699 -12.88074,16.95092c-7.94986,0.77393 -14.77082,-5.25083 -14.91119,-14.96294c-0.15638,-10.82018 5.8426,-16.14324 12.54261,-16.73861c6.71115,-0.59636 14.44659,6.50489 15.24932,14.75063z" fill="#2c262f"/><path d="M323.67439,268.45714c-0.26544,-2.72671 1.31874,-5.06632 3.56101,-5.2846c2.24227,-0.21828 3.76096,1.25807 4.0264,3.98478c0.26545,2.72671 -1.3891,5.14677 -3.63137,5.36505c-2.24227,0.21828 -3.69059,-1.33852 -3.95603,-4.06523z" data-paper-data="{&quot;index&quot;:null}" fill="#1b171c"/></g><g stroke="#000000" stroke-width="1.5"><path d="M334.90074,214.22597c6.72176,-0.46163 14.18059,7.06601 14.65957,15.33688c0.56156,9.69688 -5.56103,15.97134 -13.53511,16.43313c-7.97408,0.46179 -14.55372,-5.82563 -14.31338,-15.53578c0.26776,-10.81801 6.4647,-15.77245 13.18893,-16.23424z" fill="#2c262f"/><path d="M327.75297,233.81557c-0.15839,-2.73501 1.51626,-5.01074 3.76536,-5.14099c2.2491,-0.13025 3.70876,1.40448 3.86715,4.1395c0.15839,2.73502 -1.58973,5.08838 -3.83883,5.21863c-2.2491,0.13025 -3.6353,-1.48212 -3.79369,-4.21714z" data-paper-data="{&quot;index&quot;:null}" fill="#1b171c"/></g></g><g><g><path d="M178.20552,279.8001c0,0 -1.84588,0.71945 -2.81982,1.05375c-0.88428,0.30352 -2.78086,0.86866 -2.78086,0.86866c0,0 -14.60784,1.03226 -21.76596,0.92143c-7.30001,-0.11302 -21.61681,-1.59314 -21.61681,-1.59314c0,0 -2.88544,-19.10377 -3.63272,-29.00909c-0.82854,-10.98252 -1.11993,-33.98866 -1.11993,-33.98866c0,0 21.64575,-8.26442 29.04162,-10.52827c5.14515,-1.57491 11.08569,-1.75457 11.08569,-1.75457c0,0 5.04312,4.1066 6.83094,5.9246c1.6541,1.68203 4.77674,5.10754 4.77674,5.10754l2.00112,62.99775z" fill="#434253" stroke="#000000" stroke-width="2.5"/><path d="M173.95829,281.71567l-3.40139,0.00403c0,0 -0.38295,-0.97517 -0.93311,-6.24976c-0.0985,-0.94441 0.51439,-2.2989 0.40641,-3.33488c-0.98271,-9.42766 -3.02346,-24.48823 -3.75529,-31.64789c-1.75097,-17.13039 -2.93073,-35.27697 -2.93073,-35.27697l2.10035,1.22928c0,0 0.68243,4.4565 1.18057,11.43244c0.37139,5.20091 -0.156,9.59191 -0.00092,14.70459c0.02033,0.67016 0.58138,9.14123 2.06477,19.00203c2.07514,13.79446 5.26935,30.13713 5.26935,30.13713z" fill="#000000" stroke="none" stroke-width="0"/></g><g stroke="#000000" stroke-width="1.5"><path d="M134.7017,263.47986c0.80273,-8.24574 8.53818,-15.34698 15.24933,-14.75062c6.70001,0.59537 12.69899,5.91843 12.54261,16.73861c-0.14037,9.71211 -6.96134,15.73687 -14.9112,14.96294c-7.94986,-0.77392 -13.82187,-7.2835 -12.88074,-16.95092z" fill="#2c262f"/><path d="M152.76464,263.29932c2.24227,0.21828 3.82645,2.55788 3.56101,5.28459c-0.26545,2.72671 -1.71376,4.28351 -3.95603,4.06523c-2.24227,-0.21829 -3.89681,-2.63834 -3.63137,-5.36505c0.26544,-2.72671 1.78413,-4.20306 4.0264,-3.98478z" data-paper-data="{&quot;index&quot;:null}" fill="#1b171c"/></g><g stroke="#000000" stroke-width="1.5"><path d="M130.43974,229.6896c0.47898,-8.27087 7.9378,-15.79851 14.65956,-15.33689c6.72423,0.46179 12.92117,5.41624 13.18893,16.23424c0.24034,9.71016 -6.33929,15.99758 -14.31338,15.53579c-7.97409,-0.46179 -14.09668,-6.73625 -13.53512,-16.43313z" fill="#2c262f"/><path d="M152.24709,233.94232c-0.15839,2.73501 -1.54458,4.34738 -3.79368,4.21713c-2.2491,-0.13025 -3.99721,-2.48361 -3.83882,-5.21863c0.15839,-2.73501 1.61804,-4.26975 3.86714,-4.1395c2.2491,0.13025 3.92375,2.40598 3.76536,5.141z" data-paper-data="{&quot;index&quot;:null}" fill="#1b171c"/></g></g><g stroke="#000000"><g fill="#434253"><path d="M302.93639,282.15581c0,0 -39.39406,0.31655 -59.64769,0.31655c-21.72904,0 -66.6118,-0.31655 -66.6118,-0.31655c0,0 -2.38216,-40.33861 -2.16309,-60.75635c0.20152,-18.78125 2.16309,-54.08575 2.16309,-54.08575c0,0 42.82931,-1.2662 64.39595,-1.2662c21.14461,0 59.33114,1.58275 59.33114,1.58275c0,0 4.66352,44.84767 4.63123,67.07726c-0.03994,25.54257 -2.09882,47.44828 -2.09882,47.44828z" stroke-width="2.5"/><path d="M182.62639,273.74782c1.29409,0 2.34316,0.94416 2.34316,2.10884c0,1.16468 -1.04906,2.10884 -2.34316,2.10884c-1.29409,0 -2.34316,-0.94416 -2.34316,-2.10884c0,-1.16468 1.04906,-2.10884 2.34316,-2.10884z" stroke-width="2"/><path d="M296.08665,273.11069c1.29409,0 2.34316,0.94416 2.34316,2.10884c0,1.16468 -1.04907,2.10884 -2.34316,2.10884c-1.29409,0 -2.34316,-0.94416 -2.34316,-2.10884c0,-1.16468 1.04907,-2.10884 2.34316,-2.10884z" stroke-width="2"/><path d="M291.83153,175.44761c-0.48529,-1.12251 0.08425,-2.44878 1.27209,-2.9623c1.18785,-0.51352 2.54417,-0.01985 3.02946,1.10266c0.48528,1.12251 -0.08426,2.44879 -1.2721,2.96231c-1.18785,0.51352 -2.54417,0.01984 -3.02946,-1.10267z" stroke-width="2"/><path d="M180.91758,172.05907c1.18784,-0.51352 2.54418,-0.01985 3.02946,1.10266c0.48528,1.12251 -0.08426,2.44879 -1.2721,2.96231c-1.18784,0.51352 -2.54417,0.01984 -3.02945,-1.10267c-0.48528,-1.12251 0.08425,-2.44878 1.27209,-2.9623z" stroke-width="2"/></g><g><path d="M187.36313,208.89733c-2.36044,-6.40232 -2.14847,-24.22034 1.17777,-27.70117c8.80798,-9.21732 26.01104,-9.48636 48.15555,-9.48636c20.7312,0 40.80646,1.21551 50.19223,9.11804c4.42593,3.72649 4.09175,24.72433 0.61728,30.38921c-5.21713,8.50616 -20.51325,11.67052 -51.0204,11.67052c-30.50715,0 -45.72795,-4.44989 -49.12243,-13.65691z" fill="#434253" stroke-width="2"/><path d="M191.46433,207.31699c-2.1792,-5.67588 -1.98352,-21.47217 1.08734,-24.55804c8.13172,-8.17147 24.01396,-7.77733 44.45825,-7.77733c19.1395,0 37.67343,0.44494 46.33857,7.45081c4.08612,3.30367 3.77759,21.91897 0.56988,26.94108c-4.81657,7.54101 -18.93828,9.50278 -47.10314,9.50278c-28.16487,0 -42.21704,-3.39695 -45.3509,-11.55929z" fill="#2c262f" stroke-width="1.5"/><path d="M216.73027,204.30871c-0.84859,-2.4182 -0.77238,-9.14817 0.42343,-10.4629c3.16654,-3.48144 9.35117,-4.21571 17.31229,-4.21571c7.45303,0 14.67023,1.09175 18.04449,4.07659c1.59116,1.40752 1.47102,9.33853 0.22192,11.47819c-1.8756,3.21283 -7.37467,4.61891 -18.34223,4.61891c-10.96755,0 -16.43956,-1.85087 -17.65989,-5.32841z" fill="#1b171c" stroke-width="1.5"/></g><g><path d="M187.36313,264.28152c-2.36044,-6.40232 -2.14847,-24.22034 1.17777,-27.70116c8.80798,-9.21732 26.01104,-9.48637 48.15555,-9.48637c20.7312,0 40.80646,1.21551 50.19223,9.11804c4.42593,3.7265 4.09175,24.72433 0.61728,30.38921c-5.21713,8.50616 -20.51325,11.67052 -51.0204,11.67052c-30.50715,0 -45.72795,-4.4499 -49.12243,-13.65692z" fill="#434253" stroke-width="2"/><path d="M191.46433,262.70116c-2.1792,-5.67588 -1.98352,-21.47217 1.08734,-24.55804c8.13172,-8.17147 24.01396,-7.77734 44.45825,-7.77734c19.1395,0 37.67343,0.44494 46.33857,7.45081c4.08612,3.30367 3.77759,21.91898 0.56988,26.94109c-4.81657,7.54101 -18.93828,9.50278 -47.10314,9.50278c-28.16487,0 -42.21704,-3.39695 -45.3509,-11.55929z" fill="#2c262f" stroke-width="1.5"/><path d="M216.73027,259.6929c-0.84859,-2.41819 -0.77238,-9.14816 0.42343,-10.46289c3.16654,-3.48144 9.35117,-4.21571 17.31229,-4.21571c7.45303,0 14.67023,1.09175 18.04449,4.07659c1.59116,1.40752 1.47102,9.33852 0.22192,11.47818c-1.8756,3.21283 -7.37467,4.61891 -18.34223,4.61891c-10.96755,0 -16.43956,-1.85087 -17.65989,-5.32842z" fill="#1b171c" stroke-width="1.5"/></g></g></g><g data-paper-data="{&quot;index&quot;:null}"><path d="M255.19398,159.4396c0,-4.62307 -7.83709,-15.53073 -3.51939,-15.53073c1.12858,0 4.08686,2.33459 6.9209,4.85516c1.33879,1.19071 3.33461,2.34172 4.22721,3.77227c0.82033,1.31474 0.71759,2.94412 0.81615,3.34049c0.13054,0.52495 0.97794,2.14097 0.97794,2.14097c0,0 1.7009,1.97795 4.85502,3.90074c2.12081,1.29287 3.91238,0.66077 6.09705,2.01002c1.39407,0.86098 4.74521,2.7213 3.57433,4.97488c-0.16751,0.32243 -4.72733,0.24975 -4.72733,0.24975c0,0 -1.28002,1.6276 -2.42174,2.04842c-2.97548,1.09671 -4.90019,-1.08587 -5.64742,-1.03821c-2.40307,0.15328 -6.20812,-0.10553 -6.20812,-0.10553c0,0 -0.39607,-0.10557 -1.56003,-0.80571c-4.8384,-2.91039 -3.38459,-7.69547 -3.38459,-9.81253z" fill="#ffd5d5" stroke="#000000" stroke-width="1.5"/><path d="M256.45451,166.1269c0,0 6.72891,1.48578 9.18531,0.65935c0.09698,-0.03263 1.00867,-0.82199 2.26602,-1.24686c1.05474,-0.35642 2.44826,-0.36275 2.87828,-0.36185c1.08859,0.00229 1.48586,1.90079 2.4176,1.90079c3.7563,0 4.6255,-0.51035 4.6255,-0.51035c0,0 0.51167,0.54917 0.68621,1.15381c0.12452,0.43135 0.02469,0.94264 -0.31472,1.06756c-1.29408,0.47629 -4.42364,0.20759 -4.42364,0.20759c0,0 -1.60883,1.7083 -2.35365,1.73805c-4.96756,0.19843 -4.03428,-1.18226 -4.90923,-1.18226c-3.37544,0 -5.35486,-0.08543 -6.50858,-0.35945c-0.16216,-0.03852 -1.21536,-0.5453 -1.92726,-1.13084c-1.02863,-0.84606 -1.62185,-1.93553 -1.62185,-1.93553z" fill="#fb95a9" stroke="none" stroke-width="0"/><path d="M266.37786,166.1044c0,0 1.44224,-1.17823 3.5643,-1.43765c0.66844,-0.08172 2.64875,-0.06303 3.46174,0.94108c1.06801,1.3191 0.90142,3.72747 0.90142,3.72747l-1.92995,1.52047c0,0 0.75175,-4.96196 -1.6453,-4.96196c-1.92887,0 -4.35222,0.21059 -4.35222,0.21059z" fill="#000000" stroke="none" stroke-width="0"/><path d="M265.55327,158.87901l-0.12895,3.79055l-2.38566,-6.19124z" fill="#000000" stroke="none" stroke-width="0"/></g><g data-paper-data="{&quot;index&quot;:null}"><path d="M229.93006,130.62585c2.41131,-2.95149 10.53162,-0.25987 12.59919,3.86227c0.26008,0.51854 1.70637,-0.66733 5.40284,0.98163c0.86997,0.38809 5.3323,2.85511 7.98427,6.04894c1.26983,1.52929 2.1246,3.99593 1.97118,5.03194c-0.22905,2.80784 -2.67033,5.18657 -4.85989,7.14774c-2.87249,2.57284 1.75248,7.33006 -2.40533,7.33006c-3.03121,0 -16.54137,0.60747 -18.69314,-0.7284c-1.28409,-0.79719 -0.53199,-7.61244 -0.88049,-9.01861c-0.48674,-1.96396 -4.99822,-4.40189 -4.99822,-6.61256c0,-2.58633 2.29137,-12.099 3.87959,-14.04301z" fill="#ee1536" stroke="#000000" stroke-width="2"/><path d="M246.04205,150.81496c0,-3.14019 3.56399,-6.94934 7.26523,-7.10728c3.22449,-0.13759 3.97211,2.15654 3.0535,5.15937c-1.10558,3.61402 -4.40634,5.42259 -7.63376,5.42259c-0.06272,0 2.08362,-1.58996 2.84464,-0.28992c1.01358,1.73146 0.66979,6.51156 0.03616,6.86773c-2.98614,1.67855 -13.402,-0.74155 -16.31172,-0.67209c-0.60085,0.01435 -2.90823,0.59035 -3.45604,-1.26733c-0.44915,-1.5231 0.38106,-5.65028 0.34354,-5.65555c-0.60286,-0.08461 -1.36799,-4.06688 -1.36799,-4.06688c0,0 -2.86476,-2.27685 -2.9505,-2.85725c-0.15338,-1.03828 2.10836,-2.8435 2.10836,-2.8435c0,0 1.25189,1.00644 1.97555,1.57762c0.66583,0.52553 1.57561,2.98741 1.57561,2.98741c0,0 4.12841,-5.5717 8.29185,-4.21031c5.58397,1.82588 4.22558,7.21129 4.22558,6.95539z" fill="#9a1652" stroke="none" stroke-width="0"/><path d="M232.55239,159.80494c0.86132,-1.55025 8.52088,-5.58592 9.70316,-7.17085c2.60911,-3.4977 4.57621,-6.08348 4.57621,-6.08348c0,0 0.91108,5.32297 -0.66029,9.58239c-1.16307,3.15265 6.61433,5.47453 5.8723,5.47453c-1.74455,0 -20.27813,-0.38656 -19.49138,-1.80259z" fill="#000000" stroke="none" stroke-width="0"/></g><g data-paper-data="{&quot;index&quot;:null}"><path d="M220.82039,137.45033c0.8478,-4.14085 1.05969,-6.42267 6.00865,-6.09581c3.43927,0.22716 5.83687,5.73249 5.6375,9.96913c-0.21476,4.52163 -3.06549,5.65485 -5.22987,10.53241c-0.32418,0.45941 -0.41178,3.3817 -0.38937,5.48931c0.00209,0.19637 -0.33717,0.64155 -0.76323,1.19886c-0.26544,0.34721 -0.56457,0.73793 -0.83585,1.13913c-0.58792,0.86949 -1.00834,1.82799 -1.00967,2.13136c-0.00063,0.14475 0.8938,0.60237 1.37429,-0.09778c0.59429,-0.86598 0.82022,-2.95493 1.09309,-3.06424c0.60322,-0.24166 -0.26637,2.60026 -0.44615,3.21905c-0.2653,0.91315 -0.4921,0.66222 -0.44475,1.82724c0.09045,2.22613 1.56896,3.47854 2.62602,4.72835c0.70741,0.83638 0.22384,1.81466 0.01145,1.9624c-0.37801,0.26293 -3.54371,-0.54963 -4.05789,-0.44182c-0.39765,0.08337 -1.34654,-0.41873 -3.49097,-0.28041c-0.82355,0.05311 -1.65645,0.78963 -2.63719,0.84893c-0.71638,0.04332 -1.3057,-0.16409 -1.95166,-0.32402c-0.22206,-0.05498 -1.02829,-0.55037 -1.25815,-0.54453c-0.34771,0.00886 -0.82528,0.50283 -1.23178,0.65734c-0.77623,0.29504 -1.60661,0.71437 -2.28854,0.71848c-3.18977,0.01925 -3.26689,-1.95321 -3.26689,-1.95321c0,0 -3.04432,0.06524 -4.03211,-0.43703c-0.75092,-0.38183 -1.55925,-1.0384 -1.38133,-2.31557c0.24894,-1.78689 1.10352,-2.41723 3.08465,-3.31488c2.98491,-1.35246 6.06524,-0.60025 9.46825,-4.05899c3.20388,-3.25634 4.43719,-15.9072 4.7865,-17.61336z" fill="#ffd5d5" stroke="#000000" stroke-width="1.5"/><path d="M208.06714,168.21333c0,0 -3.07229,0.00287 -3.71369,-0.29952c-0.71612,-0.33761 -0.72723,-1.63218 -0.72723,-1.63218c0,0 2.41577,-0.11422 3.38045,-0.24361c0.79242,-0.10629 2.33677,-0.57054 2.33677,-0.57054l-0.52435,2.94002c0,0 1.64547,0.73101 3.17917,0.8577c0.82685,0.0683 0.81717,-1.93904 3.46531,-1.93904c0.98114,0 3.17859,1.30824 4.02568,0.79721c2.1093,-1.2725 5.04158,-5.36843 5.04158,-5.36843c0,0 0.81464,0.24912 0.81464,0.64519c0,0.49924 3.67599,6.40357 3.15662,6.35213c-0.73361,-0.07266 -6.5234,-0.97537 -7.38145,-0.99626c-0.84998,-0.02069 -2.23775,0.97666 -3.09742,0.9446c-0.46569,-0.01737 -0.92766,-0.12959 -1.38038,-0.23593c-0.43517,-0.10223 -0.94769,-0.57255 -1.3608,-0.57442c-0.55722,-0.00251 -0.93268,0.43835 -1.3338,0.53975c-1.2246,0.30959 -1.88782,0.93698 -3.00328,0.86589c-1.46527,-0.09337 -2.87782,-2.08254 -2.87782,-2.08254z" fill="#fb95a9" stroke="none" stroke-width="0"/><path d="M207.81187,168.3117c0,0 1.25348,-3.24591 2.41663,-3.57721c0.61518,-0.17522 1.83386,-0.26084 2.78582,0.09324c0.96988,0.36074 1.90801,1.42448 1.90801,1.42448c0,0 -2.47695,-0.5943 -3.78841,-0.19611c-1.72244,0.52297 -1.74386,3.59542 -1.74386,3.59542z" fill="#000000" stroke="none" stroke-width="0"/><path d="M221.68194,167.86701l-0.94496,1.96113l-1.41743,-0.18677z" fill="#000000" stroke="none" stroke-width="0"/></g><g data-paper-data="{&quot;index&quot;:null}"><g><path d="M266.49978,117.36444c2.94768,0.32678 5.01003,3.5435 4.60636,7.18476c-0.40366,3.64126 -3.12047,6.32818 -6.06815,6.0014c-2.94768,-0.32677 -5.01002,-3.54349 -4.60635,-7.18475c0.40366,-3.64127 3.12046,-6.32819 6.06814,-6.00141z" fill="#fb95a9" stroke="#000000" stroke-width="2"/><path d="M244.81038,137.6765c-24.43752,-6.4276 -26.7921,-9.55649 -27.36237,-19.7753c-0.57027,-10.21883 14.12121,-9.58737 28.5785,-10.39417c14.45729,-0.80681 21.9911,-1.83494 22.56138,8.38388c0.09302,1.66699 -2.56623,11.54587 -2.56623,11.54587c0,0 7.38106,4.90392 6.14031,8.78127c-1.3538,4.18333 -18.10753,3.88985 -27.3516,1.45846z" fill="#ffd5d5" stroke="#000000" stroke-width="2"/><path d="M220.2264,110.99693c0,0 27.25145,-5.49341 33.44147,-5.83885c11.7284,-0.65453 13.80155,5.80849 14.06724,10.56953c0.11605,2.07952 -2.37821,10.266 -2.37821,10.266c0,0 -3.33981,-5.69197 -5.31896,-7.19168c-2.25425,-1.70815 -7.27869,-2.52518 -7.27869,-2.52518l-6.36401,6.33643l-5.92359,-7.9765c0,0 -3.44638,5.21197 -5.95847,7.21037c-2.67849,2.13078 -9.64532,5.20263 -9.64532,5.20263l-3.96993,-0.69896c0,0 -2.54805,-5.24838 -2.66213,-7.85673c-0.10959,-2.50543 1.9906,-7.49708 1.9906,-7.49708z" fill="#fb95a9" stroke="none" stroke-width="0"/><path d="M210.85465,120.69469c-0.17822,-3.19337 -0.29883,-3.8852 1.59312,-5.46719c1.51679,-1.26828 7.77247,3.21761 7.95068,6.41099c0.17822,3.19338 -0.62338,6.25675 -2.59748,6.36691c-1.9741,0.11016 -6.7329,-3.48656 -6.94632,-7.31072z" fill="#ffd5d5" stroke="#000000" stroke-width="2.5"/><path d="M217.85914,127.15847c-0.70454,0.03932 -3.3306,-1.29119 -4.43485,-2.94765c-0.68938,-1.03412 -1.07182,-2.34951 -1.28396,-3.48484c-0.26015,-1.39229 0.74998,-2.0667 2.02549,-1.39754c2.13336,1.11922 4.99779,2.85953 5.0708,4.16763c0.11664,2.09021 0.30632,3.56844 -1.37747,3.66241z" fill="#fb95a9" stroke="none" stroke-width="0"/><path d="M213.90292,118.62636c-0.03565,-0.63869 5.81875,6.00269 5.81875,6.00269l-0.90461,2.6869c0,0 -4.87849,-8.05093 -4.91413,-8.68961z" fill="#000000" stroke="none" stroke-width="0"/><path d="M216.87054,128.0717c-0.33269,-1.83898 1.31495,-3.37632 3.42167,-3.69575c2.10669,-0.31943 4.43166,-0.85085 5.22177,2.26296c0.13908,0.54812 0.95566,4.141 -0.65077,5.83525c-0.25039,0.26409 -1.65826,1.25119 -3.0703,1.37551c-1.95004,0.17168 -3.12493,-0.32601 -3.12493,-0.32601c0,0 2.27821,-1.6625 2.06545,-1.81825c-0.67857,-0.49674 -3.58337,-2.0886 -3.8629,-3.63369z" fill="#6d0f0a" stroke="#000000" stroke-width="2"/><path d="M204.06569,126.13906c-7.05525,-4.21711 -9.40199,-8.33728 -9.40199,-8.33728c0,0 6.69354,-0.21508 8.99636,-2.27956c2.32122,-2.08098 4.8058,-11.41873 4.8058,-11.41873c0,0 23.11868,0.98671 32.91358,0.44008c9.06994,-0.50615 17.02866,-0.92608 22.85853,-1.22621c6.33647,-0.32619 11.82714,2.5265 12.65301,7.43418c0.20437,1.21452 0.47869,2.85018 0.52192,4.22619c0.1976,6.28936 -2.18189,11.93469 -2.18189,11.93469c0,0 -5.11069,-7.65102 -7.60641,-10.98245c-3.08665,-4.12023 -8.2723,-7.84947 -8.2723,-7.84947c0,0 -0.91906,3.89976 -2.55428,6.4035c-1.69274,2.59178 -4.85906,2.44822 -4.85906,2.44822c0,0 -0.21935,-3.17947 -0.81605,-4.64497c-0.54925,-1.34903 -1.56248,-3.89045 -1.63284,-2.71981c-0.07078,1.17761 -0.62949,3.97804 -0.86278,5.35579c-0.60382,3.56589 -1.16998,4.04515 -1.16998,4.04515c0,0 -1.82991,-3.21985 -3.67627,-6.23175c-1.56989,-2.56091 -4.14799,-4.00981 -4.14799,-4.00981c0,0 -4.70356,4.52292 -7.38351,6.35161c-2.42094,1.65193 -7.61713,4.12288 -7.61713,4.12288c0,0 2.21552,8.10481 -1.79747,7.72871c-2.83623,-0.2658 -4.06274,-0.78037 -5.5584,-1.99048c-0.89665,-0.72548 -1.16133,-3.71424 -1.16133,-3.71424l2.08887,0.53862c0,0 -1.22811,-6.22546 -2.56595,-6.58436c-2.35559,-0.63192 -0.57537,-0.94356 -4.06971,-0.66132c-0.50861,0.0411 -1.88622,3.07877 -1.6645,5.91046c0.23806,3.0401 2.0967,5.88743 2.0967,5.88743c0,0 -4.48955,1.88233 -7.93492,-0.17706z" fill="#6d0f0a" stroke="#000000" stroke-width="1.5"/><path d="M252.60934,106.93058c-0.97911,0.05464 -2.29742,-1.01747 -4.27782,-1.04863c-2.14557,-0.03377 -4.96231,0.97437 -6.08985,1.07593c-16.28466,1.46691 -34.38289,3.51647 -34.38289,3.51647c0,0 0.65485,-2.61664 0.67212,-3.88962c0.01846,-1.36003 -0.24933,-4.0443 -0.24933,-4.0443c0,0 22.10617,1.56199 35.24696,0.82865c8.43201,-0.47056 17.29874,-1.31 22.88306,-0.83148c5.91303,0.50669 8.74346,2.32289 8.74346,2.32289l1.229,6.84455l-2.56336,-0.55141l-6.38081,-6.15098c0,0 -10.33924,1.67729 -14.83054,1.92794z" fill="#6d0f0a" stroke="none" stroke-width="0"/><path d="M243.36182,134.3962c-1.23774,-0.10346 -1.79399,-1.29193 -2.2285,-2.43974c-0.49018,-1.2949 -0.76967,-2.56992 -0.64637,-2.77813c0.18972,-0.32037 8.88481,1.69629 8.92206,2.08578c0.03555,0.37161 -1.26039,1.22996 -2.95701,2.03869c-0.95593,0.45566 -2.02305,1.18259 -3.09017,1.0934z" fill="#ef3d61" stroke="#000000" stroke-width="1.5"/><path d="M249.56142,123.13539c-0.10823,-1.93924 0.29891,-5.28999 3.20756,-6.54822c0.52222,-0.22593 1.736,-0.18161 3.07509,0.19997c1.37254,0.39111 2.53337,1.1012 2.87098,1.27608c0.66697,0.34552 1.9126,-0.0215 1.9126,-0.0215c0,0 1.22412,-0.65163 1.91263,-1.16649c0.57801,-0.43223 1.91707,-2.22304 1.91707,-2.22304c0,0 -0.00895,1.5022 -1.15027,3.13606c-0.47031,0.67328 -1.76423,1.87049 -1.76423,1.87049c0,0 1.03362,0.09029 2.19875,-0.16093c0.87517,-0.1887 3.02962,-1.54179 3.02962,-1.54179c0,0 -0.94122,1.73071 -1.6091,2.4755c-0.46121,0.51429 -1.6184,1.15523 -1.6184,1.15523l-0.19165,1.023c0,0 -1.54105,-1.80529 -2.34461,-2.19632c-0.64973,-0.31616 -2.24719,-0.09249 -2.24719,-0.09249c0,0 0.0973,7.71618 -4.78327,7.86201c-3.80542,0.11371 -4.2374,-1.85413 -4.4156,-5.04751z" fill="#000000" stroke="none" stroke-width="0"/><path d="M227.68435,113.54327c0,0 1.59339,1.67613 2.47767,2.24095c0.81384,0.51983 2.18436,0.52203 2.18436,0.52203c0,0 -0.34733,-0.74228 -0.69338,-1.51493c-0.36091,-0.80584 -0.9309,-3.11193 -0.9309,-3.11193c0,0 1.29675,1.73533 1.96126,2.33425c0.63548,0.57276 2.16455,1.3828 2.16455,1.3828c0,0 2.58651,-0.19272 4.28805,-0.28768c4.45414,-0.24857 7.52005,2.74404 7.52005,2.74404c0,0 -2.45765,-0.54518 -3.3152,-0.70473c-0.60914,-0.11335 -1.33688,-0.02218 -1.33688,-0.02218c0,0 0.62529,8.4893 -5.73296,8.91443c-5.20775,0.3482 -4.15433,-6.75384 -4.37568,-7.12805c-0.16037,-0.27112 -1.09313,-1.1103 -1.09313,-1.1103c0,0 -1.46935,-0.82474 -1.96441,-1.48552c-0.53857,-0.71885 -1.1534,-2.77319 -1.1534,-2.77319z" fill="#000000" stroke="none" stroke-width="0"/></g><path d="M276.16853,109.72804c0,0 -0.47798,-2.72263 -0.81929,-4.08645c-0.32638,-1.30413 -1.1858,-3.92538 -1.1858,-3.92538c0,0 1.09926,0.64747 1.79371,2.95583c0.45387,1.50867 1.5674,5.42548 1.5674,5.42548z" fill="#000000" stroke="none" stroke-width="0"/></g><g data-paper-data="{&quot;index&quot;:null}"><path d="M255.19958,182.67555c-1.00101,-2.204 -1.48204,-4.3489 -0.72825,-4.96606c2.33239,-1.90961 13.28484,-2.98899 13.38878,-2.98899c6.31528,0 14.84633,4.70166 14.84633,7.42317c0,2.15815 -5.66177,5.08636 -11.867,4.87772c-9.17694,-0.30857 -12.61375,-4.42959 -12.80984,-4.64776c-0.77835,-0.86597 0.94691,1.54978 1.61014,2.51138c0.76014,1.10213 2.09503,1.87099 1.91005,2.94778c-0.21138,1.23048 -1.04517,0.91066 -1.93413,0.37576c-1.07219,-0.64516 -2.75079,-1.86638 -4.41608,-5.533z" fill="#ee1536" stroke="#000000" stroke-width="1.5"/><path d="M224.16344,165.33483c0,-3.59654 1.88208,-6.79388 5.00437,-9.12732c4.14737,-3.09953 10.28977,-4.77137 15.23297,-4.77137c5.31995,0 12.36793,-0.19935 14.37465,2.09274c0.5447,0.62216 0.11605,3.35746 0.47021,5.96384c0.20355,1.49801 1.01152,5.12835 2.06489,8.05201c0.76659,2.12772 1.6857,4.5633 2.81912,4.87357c4.6996,1.28652 11.33458,3.83886 9.65309,6.39177c-1.27777,1.93997 -8.71321,2.17386 -14.6326,0.37436c-5.32793,-1.61969 -9.13974,-5.17457 -11.08352,-5.65964c-3.29754,-0.8229 -10.29591,1.43415 -13.65474,0.96798c-2.18858,-0.30375 -4.10262,-1.02669 -5.53901,-1.79684c-3.55989,-1.90871 -4.7094,-5.13615 -4.7094,-7.3611z" fill="#ffd5d5" stroke="#000000" stroke-width="1.5"/><path d="M254.40497,161.63252c0,0 1.5473,-1.13661 2.20683,-1.84011c0.59795,-0.63781 1.58373,-2.20314 1.58373,-2.20314c0,0 0.47515,2.43192 0.69523,3.67533c0.19897,1.12418 0.56829,3.46354 0.56829,3.46354c0,0 -2.16472,-0.56777 -3.07746,-1.12683c-0.7315,-0.44803 -1.97661,-1.96878 -1.97661,-1.96878z" fill="#fb95a9" stroke="none" stroke-width="0"/><path d="M275.08882,178.59434c0.16969,-0.35395 1.67522,-0.13645 2.97302,0.48578c1.2978,0.62223 2.68613,2.36122 2.51643,2.71517c-0.1697,0.35394 -1.51728,-1.12707 -2.81508,-1.7493c-1.29779,-0.62223 -2.84406,-1.0977 -2.67436,-1.45165z" fill="#fc9ea5" stroke="none" stroke-width="0"/></g><g data-paper-data="{&quot;index&quot;:null}"><path d="M231.01662,186.66842c2.5441,-6.35721 7.6863,-8.12709 12.34285,-6.26357c4.65656,1.86351 6.54811,7.90162 4.004,14.25883c-2.5441,6.35722 -11.22418,11.88722 -14.69074,10.29339c-3.43224,-1.57805 -4.378,-11.60389 -1.83389,-17.9611z" fill="#ee1536" stroke="#000000" stroke-width="1.5"/><path d="M233.5181,183.89079c0,0 2.00422,-2.86118 4.30555,-3.50609c0.77193,-0.21631 4.08674,0.23689 6.56763,1.86017c1.68622,1.10331 2.8021,3.19439 3.19142,4.24588c0.67057,1.81111 0.10967,3.76134 0.10967,3.76134c0,0 -1.81828,1.66589 -5.43619,1.54424c-1.90251,-0.06397 -4.61734,-2.13774 -6.33064,-4.2466c-1.54479,-1.90145 -2.40744,-3.65892 -2.40744,-3.65892z" fill="#9a1652" stroke="none" stroke-width="0"/><path d="M237.96926,174.10227c0.55432,-7.08643 2.21505,-10.84502 10.62649,-10.5467c4.91806,0.17442 6.52345,5.86357 6.20118,8.26798c-1.07822,8.0444 -9.74893,15.13352 -9.74893,15.13352c0,0 1.38491,8.01261 -6.9327,9.02219c-4.06733,0.49369 -4.09452,-6.52097 -3.42123,-8.22854c1.22234,-3.10001 3.42075,-4.916 3.42075,-4.916c0,0 -0.3919,-5.5836 -0.14558,-8.73245z" fill="#ffd5d5" stroke="#000000" stroke-width="1.5"/><path d="M245.10261,175.45959c-0.98594,-0.64 -1.21165,-1.61216 -1.54278,-2.57662c-0.39958,-1.16379 -0.68288,-4.079 -0.68288,-4.079c0,0 1.88781,1.43735 2.95744,2.05164c1.0526,0.6045 3.57324,1.45269 3.57324,1.45269c0,0 -1.55297,2.41034 -2.26572,2.89984c-0.66241,0.45494 -1.05335,0.89143 -2.03929,0.25145z" fill="#fb95a9" stroke="none" stroke-width="0"/><path d="M235.86951,202.12272c-0.64171,-0.03296 1.51192,-1.05037 2.3367,-1.53259c0.91489,-0.5349 2.82616,-2.37563 2.86295,-2.00666c0.07441,0.74608 -1.44675,2.17702 -2.28268,2.66576c-0.90726,0.53045 -1.82762,0.92947 -2.91696,0.87351z" fill="#fc9ea5" stroke="none" stroke-width="0"/></g></g></g></svg>