<svg version="1.1" xmlns="http://www.w3.org/2000/svg" xmlns:xlink="http://www.w3.org/1999/xlink" width="126.0727" height="167.12511" viewBox="0,0,126.0727,167.12511"><g transform="translate(-175.79987,-84.15274)"><g data-paper-data="{&quot;isPaintingLayer&quot;:true}" fill-rule="nonzero" stroke="none" stroke-width="0" stroke-linecap="butt" stroke-linejoin="miter" stroke-miterlimit="10" stroke-dasharray="" stroke-dashoffset="0" style="mix-blend-mode: normal"><g fill="#12fa05"><path d="M188.34399,226.75044c0,0 31.72702,-47.09926 39.84518,-40.20446c8.34809,7.09009 -39.84518,40.20446 -39.84518,40.20446z" data-paper-data="{&quot;index&quot;:null}"/><path d="M204.3836,235.50054c0,0 13.11361,-54.69254 23.1899,-50.87878c10.36171,3.92179 -23.1899,50.87878 -23.1899,50.87878z" data-paper-data="{&quot;index&quot;:null}"/></g><path d="M249.54669,135.75896c0,11.00611 1.72188,22.53833 0.48233,30.17134c-1.36362,8.39704 -6.35676,7.7591 -9.85839,7.7591c-3.78022,0 -16.77348,-33.41789 -13.92322,-40.09457c2.24065,-5.24866 8.1271,7.27834 8.1271,7.27834c0,0 1.53179,-23.00713 2.79257,-31.41714c1.23912,-8.26552 3.11547,-27.59883 5.51712,-25.07853c5.2709,5.53132 6.86249,32.37682 6.86249,51.38145z" fill="#12fa05"/><path d="M267.56026,208.88592c-5.69882,-6.33249 -12.75193,-12.15126 -15.92539,-17.13074c-3.4911,-5.4779 -0.02356,-7.47838 2.17654,-9.1387c2.37514,-1.79241 27.84227,11.27415 29.50853,16.46713c1.30988,4.08229 -8.87496,-0.33418 -8.87496,-0.33418c0,0 10.95037,13.96373 14.51281,19.40034c3.50123,5.3432 12.33285,17.35653 9.5189,17.0452c-6.1758,-0.68328 -21.07607,-15.37451 -30.91642,-26.30905z" fill="#12fa05"/><path d="M224.54781,180.24116c-6.25352,8.71574 -48.74794,-33.22898 -48.74794,-33.22898c0,0 57.90616,20.34547 48.74794,33.22898z" fill="#12fa05"/><path d="M301.87257,135.78147c0,0 -37.99987,46.05589 -45.10883,38.02262c-10.42317,-11.88341 45.10883,-38.02262 45.10883,-38.02262z" data-paper-data="{&quot;index&quot;:null}" fill="#12fa05"/><path d="M232.08838,251.27785c0,0 -0.41779,-59.70729 10.18963,-58.10936c15.62002,2.42342 -10.18963,58.10936 -10.18963,58.10936z" data-paper-data="{&quot;index&quot;:null}" fill="#12fa05"/><path d="M242.91368,172.1684c-13.58589,-0.14285 -2.03614,-72.41512 -2.03614,-72.41512c0,0 16.00685,72.56202 2.03614,72.41512z" fill="#ffffff"/><path d="M242.46353,172.44051c-7.26691,2.54 -15.02934,-38.19516 -15.02934,-38.19516c0,0 22.50208,35.58322 15.02934,38.19516z" fill="#ffffff"/><path d="M223.64679,178.82022c-4.81754,6.71437 -36.76611,-24.28541 -36.76611,-24.28541c0,0 41.7201,17.38086 36.76611,24.28541z" fill="#ffffff"/><path d="M286.54808,143.1994c0,0 -24.21469,37.35434 -30.41062,31.88609c-6.37143,-5.62314 30.41062,-31.88609 30.41062,-31.88609z" data-paper-data="{&quot;index&quot;:null}" fill="#ffffff"/><path d="M234.93651,237.46286c0,0 -0.73534,-44.51019 7.45725,-43.42715c8.42464,1.11371 -7.45725,43.42715 -7.45725,43.42715z" data-paper-data="{&quot;index&quot;:null}" fill="#ffffff"/><g fill="#ffffff"><path d="M253.82369,186.10541c6.94896,-6.43648 35.72435,35.69885 35.72435,35.69885c0,0 -42.87013,-29.08006 -35.72435,-35.69885z"/><path d="M253.92131,185.75194c2.46342,-4.76785 25.91036,12.14342 25.91036,12.14342c0,0 -28.44355,-7.24052 -25.91036,-12.14342z"/></g><g fill="#ffffff"><path d="M197.6744,218.21913c0,0 21.8689,-33.73566 27.46461,-28.79714c5.7542,5.0784 -27.46461,28.79714 -27.46461,28.79714z" data-paper-data="{&quot;index&quot;:null}"/><path d="M208.73023,224.48654c0,0 9.03899,-39.17448 15.98441,-36.44281c7.14215,2.80905 -15.98441,36.44281 -15.98441,36.44281z" data-paper-data="{&quot;index&quot;:null}"/></g></g></g></svg>