<svg version="1.1" xmlns="http://www.w3.org/2000/svg" xmlns:xlink="http://www.w3.org/1999/xlink" width="350" height="350" viewBox="0,0,350,350"><g transform="translate(-65,-5)"><g data-paper-data="{&quot;isPaintingLayer&quot;:true}" fill-rule="nonzero" stroke="none" stroke-width="0" stroke-linecap="butt" stroke-linejoin="miter" stroke-miterlimit="10" stroke-dasharray="" stroke-dashoffset="0" style="mix-blend-mode: normal"><path d="M65,355v-350h350v350z" fill-opacity="0.01569" fill="#ffffff"/><path d="" data-paper-data="{&quot;index&quot;:null}" fill="#87a9bc"/><path d="" data-paper-data="{&quot;index&quot;:null}" fill="#87a9bc"/><g><path d="M233.94659,36.57686c7.59141,0 125.0967,96.72599 138.15019,118.96003c6.47825,11.03447 8.71622,25.76267 8.86636,30.99381c0.22501,7.83813 -3.54807,25.59182 -13.04656,37.92888c-13.24841,17.20757 -35.79854,32.78208 -57.21691,48.20262c-39.72246,28.59893 -80.50461,51.47258 -82.92761,51.47261c-3.23403,0 -42.81142,-45.11617 -42.94253,-54.37163c-0.05903,-4.16664 50.03256,-29.7518 50.88348,-34.43025c0.47851,-2.63098 4.44057,-9.86613 -0.93992,-10.62401c-2.45158,-0.34533 -117.97597,0.50564 -118.43455,-2.06649c-0.77466,-4.34492 -11.3901,-4.58336 -13.64403,-29.38695c-1.84241,-20.27477 1.21745,-46.54357 2.84362,-48.29283c1.36241,-1.46555 9.33371,-3.06449 17.66514,-3.3064c26.99004,-0.78365 77.33036,4.20167 82.60983,3.59827c5.93472,-0.67828 26.49309,2.51286 31.2095,-3.37081c4.19216,-5.22967 -6.97931,-16.07728 -9.82451,-19.25604c-20.77244,-23.20767 -47.08624,-38.68574 -46.48074,-41.88499c0.5495,-2.90341 50.10815,-44.16572 53.22922,-44.16572z" data-paper-data="{&quot;noHover&quot;:false,&quot;origItem&quot;:[&quot;Path&quot;,{&quot;applyMatrix&quot;:true,&quot;segments&quot;:[[[468.26192,506.02382],[0,0],[3.035,0]],[[519.97642,463.09056],[-0.53434,2.82334],[0.5888,-3.11102]],[[474.8537,422.54302],[20.1996,22.56768],[-2.76674,-3.0911]],[[465.26432,403.62164],[-4.07656,5.08546],[4.58634,-5.72142]],[[495.5535,400.37302],[-5.77106,0.65958],[5.13388,-0.58676]],[[575.86152,403.91104],[-26.24574,0.76204],[8.10168,-0.23524]],[[593.03778,400.70172],[-1.32484,1.42514],[1.58132,-1.70102]],[[595.80018,353.77508],[1.7916,19.71566],[-2.19178,-24.1196]],[[582.53724,325.22126],[0.7533,4.2251],[-0.44594,-2.5012]],[[467.44836,323.27862],[2.38398,0.3358],[-5.23212,-0.73698]],[[466.56002,312.74928],[-0.46532,2.55842],[0.82746,-4.54944]],[[515.97618,279.4524],[0.0574,4.05174],[-0.1275,-9.00022]],[[474.2619,226.59526],[3.14484,0],[-2.35618,0]],[[393.69066,276.6289],[38.62704,-27.81026],[-20.82772,14.9953]],[[338.08606,323.45518],[12.88306,-16.73304],[-9.23656,11.99682]],[[325.40476,360.30956],[-0.2188,-7.62198],[0.14602,5.08688]],[[334.02496,390.42556],[-6.2996,-10.73018],[12.69352,21.6209]],[[468.2619,506.02386],[-7.38206,0],[0,0]]],&quot;closed&quot;:true,&quot;fillColor&quot;:[0,0,0],&quot;strokeWidth&quot;:0}]}" fill="#f9393f"/><path d="M387.83855,184.66533c0,35.20416 -29.97916,62.93803 -62.82118,87.3861c-44.88327,33.41174 -96.45201,57.56351 -96.45201,57.56351l-53.03488,-58.48828l51.268,-36.90339l-123.35008,-9.15814l-3.33651,-84.48579l123.81754,-3.885l-56.18919,-55.69868l64.93857,-51.49007c0,0 80.64463,54.67631 125.19363,102.63234c19.78942,21.30289 29.96613,38.08628 29.96613,52.52741zM233.53577,43.67407c-2.08975,0 -51.05246,43.67586 -51.05246,43.67586c0,0 54.8231,43.3779 54.8231,52.64708c0,0.32575 4.27271,5.7498 -4.26141,7.72254c-7.35776,1.70083 -41.98556,-1.03987 -56.82106,-1.31652c-36.83682,-0.68693 -63.19587,-2.11752 -63.00458,0.79689c0.02451,0.37358 -1.73955,5.32084 -2.43534,13.19506c-1.22079,13.81565 -0.19444,33.97261 2.0567,40.00656c1.3229,3.54591 2.43262,14.6906 3.9998,16.96993c1.60653,2.33651 14.93207,2.15353 35.03466,2.64552c24.62584,0.6027 61.51907,0.7485 78.41441,3.05306c5.81296,0.79289 6.84099,2.44574 7.47796,3.6381c2.43828,4.56427 -16.42938,13.069 -30.1275,23.06977c-11.30191,8.25133 -20.42915,16.89871 -20.42915,16.89871c0,0 39.66579,50.41813 42.21141,50.19808c5.72475,-0.49487 93.02476,-52.08431 132.95231,-92.64953c2.32995,-2.36716 12.05971,-17.87294 10.68317,-41.2048c-1.21105,-20.52686 -13.28597,-38.33733 -17.9376,-42.78017c-34.08635,-32.5563 -118.38266,-96.56611 -121.58441,-96.56611z" fill="#ffffff"/><path d="M395.75933,198.49918c-0.24432,7.20405 -13.14468,36.00336 -39.85219,60.00391c-7.01875,6.30735 -13.87418,13.90365 -21.77681,20.06552c-42.9574,33.49483 -96.12435,60.53065 -102.05142,60.73003c-1.65249,0.05557 -11.59316,2.19361 -18.91839,-6.06172c-16.55341,-18.65525 -41.79774,-59.04889 -44.18113,-65.84132c-0.26616,-0.75856 2.48822,-6.60439 8.96361,-12.86999c7.80076,-7.54805 20.12366,-15.19114 20.20764,-15.79761c0.51017,-3.68422 -91.74215,3.1795 -92.73126,-2.17952c-0.1001,-0.54227 -9.93541,-4.5691 -14.22204,-15.02451c-2.00554,-4.89169 -5.45264,-10.61371 -6.69698,-18.20181c-2.64907,-16.15436 -1.02708,-49.17973 1.82445,-62.85701c1.18216,-5.67016 13.63187,-10.56665 18.48107,-12.92817c5.4928,-2.67494 91.38742,0.73585 100.47567,-1.47924c1.42419,-0.34713 -28.06617,-18.8657 -38.92714,-32.16264c-3.01693,-3.6936 -4.88808,-10.53207 -4.52585,-12.41152c3.29554,-17.09953 65.52375,-61.80854 74.1067,-61.06181c10.0919,0.87802 71.80552,49.2924 114.91391,88.1999c10.82407,9.76927 22.29872,23.69913 30.19816,36.00969c6.78789,10.57829 11.58677,19.52707 12.834,22.43344c5.18122,12.07355 2.01624,27.35818 1.87801,31.43439zM233.952,36.67959c-3.12107,0 -52.63156,41.24739 -53.18106,44.1508c-0.6055,3.19925 26.65827,18.14696 47.4307,41.35463c2.8452,3.17876 13.02513,14.57108 8.83297,19.80076c-4.71641,5.88367 -25.21342,2.66246 -31.14814,3.34075c-5.27947,0.6034 -55.59541,-4.42201 -82.58545,-3.63836c-8.33143,0.24191 -16.30095,1.83478 -17.66336,3.30034c-1.62617,1.74926 -4.68314,27.98265 -2.84073,48.25742c2.25393,24.8036 12.8644,25.01865 13.63906,29.36357c0.45858,2.57213 117.38047,2.00912 119.5524,3.19747c3.13715,1.71648 1.30297,8.80763 -0.62901,10.65655c-4.85461,4.64592 -19.83625,14.96686 -31.22296,21.74232c-11.4442,6.80967 -19.28138,10.06747 -19.25178,12.15604c0.13111,9.25545 39.66322,53.67053 42.89725,53.67053c2.423,0 43.13368,-22.85361 82.85614,-51.45253c21.41837,-15.42055 43.93307,-30.94664 57.18147,-48.15421c9.4985,-12.33703 13.26593,-30.0614 13.04093,-37.89953c-0.15016,-5.23113 -2.38641,-19.93557 -8.86466,-30.97005c-13.05349,-22.23404 -130.45232,-118.87653 -138.04373,-118.87653z" fill="#661010"/></g></g></g></svg>