<svg version="1.1" xmlns="http://www.w3.org/2000/svg" xmlns:xlink="http://www.w3.org/1999/xlink" width="43.7879" height="28.25627" viewBox="0,0,43.7879,28.25627"><g transform="translate(-218.10605,-166.66722)"><g data-paper-data="{&quot;isPaintingLayer&quot;:true}" fill-rule="nonzero" stroke-linejoin="miter" stroke-miterlimit="10" stroke-dasharray="" stroke-dashoffset="0" style="mix-blend-mode: normal"><g data-paper-data="{&quot;index&quot;:null}" fill="#31b0d1" stroke="#000000" stroke-width="3" stroke-linecap="butt"><path d="M219.60652,184.01539c-0.07856,-1.9034 9.69168,-2.39062 9.69168,-2.39062c0,0 -9.60977,4.37515 -9.69168,2.39062z"/><path d="M244.07658,179.39132c0,0 0.18072,-1.06878 1.33835,-2.71634c1.84573,-2.62689 5.34028,-6.30781 8.24102,-6.32182c4.22593,-0.02042 7.3095,8.90861 6.64865,8.81631c-0.12691,-0.01773 -7.2843,-0.42869 -7.8393,-0.31934c-0.15718,0.03097 2.99954,3.05737 3.8359,5.32624c0.50233,1.36271 1.07084,7.32243 0.38919,7.1455c-0.48465,-0.1258 -4.36174,-5.38845 -5.41989,-6.30552c-2.22134,-1.92517 -7.19392,-5.62502 -7.19392,-5.62502z"/><path d="M228.08908,180.93163c0,0 -1.30849,-8.19007 -0.46304,-9.31864c2.18311,-2.91418 14.62891,-3.99686 22.11008,-3.18339c1.40806,0.06128 -0.8682,11.51808 -0.8682,11.51808z"/><path d="M228.11903,187.40123c-0.20294,-1.37784 -0.37723,-5.0226 -0.37723,-5.0226c0,0 -0.72458,-0.84876 1.89,-1.09614c2.69343,-0.25484 2.9719,0.22794 2.9719,0.22794l2.02579,3.70431c0,0 -1.42391,-0.60968 -2.5337,-0.71537c-0.56226,-0.05355 -1.48343,2.01432 -2.2602,3.61601c-0.38325,0.79024 -0.99408,1.72974 -0.99408,1.72974z"/><path d="M230.49995,189.02615l0.06546,-8.05122c0,0 0.33993,-3.45542 11.97864,-3.73105c9.05985,-0.21455 6.80754,4.51654 6.80754,4.51654c0,0 -0.5291,-0.44027 -0.25826,5.6946c2.6336,1.24051 1.34971,1.98295 1.1092,2.35662c-0.37806,0.58736 -5.45566,2.29083 -9.93748,1.98462c-5.15005,-0.35187 -9.76509,-2.77011 -9.76509,-2.77011z"/></g><path d="M230.49995,188.98326l0.06546,-8.05122c0,0 0.33993,-3.45542 11.97864,-3.73105c9.05985,-0.21455 6.80754,4.51654 6.80754,4.51654c0,0 -0.5291,-0.44027 -0.25826,5.6946c2.6336,1.24051 1.34971,1.98295 1.1092,2.35662c-0.37806,0.58736 -5.45566,2.29083 -9.93748,1.98462c-5.15005,-0.35187 -9.76509,-2.77011 -9.76509,-2.77011z" data-paper-data="{&quot;index&quot;:null}" fill="#fddfbd" stroke="none" stroke-width="NaN" stroke-linecap="butt"/><path d="M219.60652,183.9725c-0.07856,-1.9034 9.69168,-2.39062 9.69168,-2.39062c0,0 -9.60977,4.37515 -9.69168,2.39062z" data-paper-data="{&quot;index&quot;:null}" fill="#0066cc" stroke="none" stroke-width="0" stroke-linecap="butt"/><path d="M228.08908,180.88874c0,0 -1.30849,-8.19007 -0.46304,-9.31864c2.18311,-2.91418 14.62891,-3.99686 22.11008,-3.18339c1.40806,0.06128 -0.8682,11.51808 -0.8682,11.51808z" data-paper-data="{&quot;index&quot;:null}" fill="#dd282b" stroke="#000000" stroke-width="1" stroke-linecap="butt"/><path d="M228.11903,187.35834c-0.20294,-1.37784 -0.37723,-5.0226 -0.37723,-5.0226c0,0 -0.72458,-0.84876 1.89,-1.09614c2.69343,-0.25484 2.9719,0.22794 2.9719,0.22794l2.94468,3.55922c0,0 -1.61255,-0.01506 -2.87224,-0.13503c-0.56226,-0.05355 -2.06378,1.57906 -2.84054,3.18075c-0.38325,0.79024 -0.99408,1.72974 -0.99408,1.72974z" data-paper-data="{&quot;index&quot;:null}" fill="#50a5eb" stroke="#000000" stroke-width="1" stroke-linecap="butt"/><path d="M228.82425,180.30237l13.02436,-11.61134c0,0 2.04021,-0.12287 2.94891,-0.12287c1.361,0 4.42337,0.12287 4.42337,0.12287l-15.91183,11.61134z" data-paper-data="{&quot;index&quot;:null}" fill="#ff2d32" stroke="none" stroke-width="0" stroke-linecap="butt"/><path d="M233.83491,190.31384l10.39118,-9.79586h3.6261l-4.32967,11.14888c0,0 -1.98792,0.46565 -5.0439,0.00621c-2.73019,-0.41046 -4.64372,-1.35923 -4.64372,-1.35923z" data-paper-data="{&quot;index&quot;:null}" fill="#fddfbd" stroke="none" stroke-width="0" stroke-linecap="butt"/><path d="M244.07658,179.34843c0,0 0.18072,-1.06878 1.33835,-2.71634c1.84573,-2.62689 5.34028,-6.30781 8.24102,-6.32182c4.22593,-0.02042 7.3095,8.90861 6.64865,8.81631c-0.12691,-0.01773 -7.2843,-0.42869 -7.8393,-0.31934c-0.15718,0.03097 2.99954,3.05737 3.8359,5.32624c0.50233,1.36271 1.07084,7.32243 0.38919,7.1455c-0.48465,-0.1258 -4.36174,-5.38845 -5.41989,-6.30552c-2.22134,-1.92517 -7.19392,-5.62502 -7.19392,-5.62502z" data-paper-data="{&quot;index&quot;:null}" fill="#50a5eb" stroke="#000000" stroke-width="1" stroke-linecap="butt"/><path d="M232.91478,180.14559c0,0 -0.39766,-2.9047 -0.47077,-4.72182c-0.07565,-1.88036 0.02426,-6.3771 0.02426,-6.3771" data-paper-data="{&quot;index&quot;:null}" fill="none" stroke="#000000" stroke-width="0.5" stroke-linecap="round"/><path d="M244.495,179.02427c0,0 4.90525,-9.15077 10.14426,-8.17243c3.9276,0.73344 5.28668,7.79452 5.28668,7.79452c0,0 -2.26218,-6.88924 -6.16367,-6.5726c-4.89917,0.39762 -9.26727,6.9505 -9.26727,6.9505z" data-paper-data="{&quot;index&quot;:null}" fill="#66ffff" stroke="none" stroke-width="0" stroke-linecap="butt"/><path d="M236.53481,185.56124l5.05495,-7.41759" fill="none" stroke="#000000" stroke-width="1.5" stroke-linecap="round"/><path d="M241.26009,185.23157l-5.87912,-6.81319" fill="none" stroke="#000000" stroke-width="1.5" stroke-linecap="round"/><path d="M249.61174,181.60519l-5.87912,3.51649" fill="none" stroke="#000000" stroke-width="1.5" stroke-linecap="round"/><path d="M247.24909,187.04475l-3.46153,-6.5934" fill="none" stroke="#000000" stroke-width="1.5" stroke-linecap="round"/><g stroke="#000000"><path d="M247.44456,190.98564c0,0 0.81553,1.78954 0.34446,2.79218c-0.16013,0.34083 -0.46894,0.59074 -1.009,0.6485c-1.83664,0.19643 -2.8344,-0.39446 -3.92489,-0.83825c-0.87826,-0.35742 -1.52173,-0.61683 -1.76836,-0.63309c-1.59281,-0.105 -2.59981,0.08825 -3.61966,0.27151c-0.6137,0.11027 -3.25311,0.73598 -3.86682,0.16451c-0.97387,-0.90685 0.25866,-3.1746 1.24812,-3.1746" fill="#fddfbd" stroke-width="1" stroke-linecap="round"/><path d="M241.24375,191.95767c-1.99006,-0.32249 -6.39896,1.07283 -5.07602,-0.4484c0.47007,-0.54053 1.79604,-1.4371 4.35376,-1.4371c1.25358,0 3.08872,0.24656 4.01368,0.80992c0.57137,0.348 2.26025,1.75007 1.41671,1.92269c-1.03039,0.21086 -4.70813,-0.84711 -4.70813,-0.84711z" fill="#ffffff" stroke-width="0.5" stroke-linecap="butt"/></g><path d="M230.55091,172.14075c0.38763,0 0.38763,0.38763 0.38763,0.38763l-0.00159,0.16267c0.06861,0.79806 0.32752,1.62143 0.55123,2.39158c0.00624,1.48681 -1.84618,2.85296 -2.8549,1.1602c-0.66504,-1.11602 0.38295,-2.91422 0.38295,-4.10998c0,0 0,-0.38763 0.38763,-0.38763c0.38763,0 0.38763,0.38763 0.38763,0.38763c0,0.94001 -0.96794,2.87687 -0.48723,3.72163c0.5479,0.96282 1.4124,0.02977 1.4169,-0.65927c-0.24287,-0.77694 -0.47929,-1.62412 -0.55627,-2.43397l-0.00159,-0.23286c0,0 0,-0.38763 0.38763,-0.38763z" fill="#ffffff" stroke="none" stroke-width="0.5" stroke-linecap="butt"/></g></g></svg>