<svg version="1.1" xmlns="http://www.w3.org/2000/svg" xmlns:xlink="http://www.w3.org/1999/xlink" width="269.30216" height="100.7" viewBox="0,0,269.30216,100.7"><g transform="translate(-105.3821,-129.65)"><g data-paper-data="{&quot;isPaintingLayer&quot;:true}" fill-rule="nonzero" stroke="none" stroke-width="1" stroke-linecap="butt" stroke-linejoin="miter" stroke-miterlimit="10" stroke-dasharray="" stroke-dashoffset="0" style="mix-blend-mode: normal"><path d="M350.58637,227.90385c-3.26154,0.40769 -5.3,0.40769 -6.11538,0.81538c-1.63077,0.81538 -5.3,1.63077 -9.78462,1.63077c-5.70769,0 -11.00769,-2.03846 -15.49231,-5.3h-3.26154c-1.22308,0 -2.03846,0 -3.26154,-0.40769c-4.48462,1.63077 -8.56154,1.63077 -11.00769,1.63077h-0.81538c-5.70769,0.40769 -11.41538,-0.81538 -16.30769,-3.26154c-2.44615,0.81538 -4.48462,1.22308 -6.93077,1.22308l-15.08462,0.40769c-6.93077,0 -13.04615,-2.44615 -17.93846,-6.93077c-2.03846,0 -4.07692,-0.40769 -5.70769,-0.81538c-2.44615,2.85385 -5.70769,5.3 -9.78462,7.33846c-7.74615,3.66923 -16.30769,4.07692 -24.46154,0.81538c-0.81538,-0.40769 -2.03846,-0.81538 -2.85385,-1.22308l-9.37692,1.22308h-2.85385c-1.22308,0.40769 -2.03846,1.22308 -2.85385,1.63077c-6.11538,2.85385 -11.82308,2.85385 -14.26923,2.85385h-2.03846c-6.93077,0 -13.86154,-2.03846 -19.16154,-5.70769c-1.63077,0.40769 -3.66923,0.81538 -5.3,0.81538c-3.66923,2.44615 -8.15385,4.07692 -13.04615,4.48462h-1.63077c-13.45385,0 -24.46154,-10.19231 -25.68462,-23.64615v-0.40769c0,-2.03846 -0.40769,-6.52308 0,-11.41538c0,-2.44615 0.40769,-6.11538 0.40769,-6.93077c0,-3.26154 0.81538,-6.52308 2.03846,-9.78462c-0.81538,-3.26154 -0.40769,-6.52308 0,-9.78462v-1.22308c0.40769,-2.85385 1.22308,-8.56154 4.07692,-14.26923c5.3,-9.78462 15.08462,-15.9 26.09231,-15.9c3.66923,-2.03846 7.33846,-2.85385 11.41538,-2.85385h1.22308c8.15385,0.40769 15.49231,4.48462 19.97692,11.00769c3.66923,-3.26154 8.15385,-5.3 13.04615,-6.11538c9.78462,-1.22308 17.93846,-1.63077 24.86923,-0.40769c3.66923,-3.26154 8.56154,-5.70769 13.45385,-6.11538l10.6,-1.63077h3.26154c6.11538,0 12.23077,2.44615 17.12308,6.52308h0.81538l15.49231,-0.40769c6.52308,0 12.23077,-0.40769 13.45385,-0.40769h2.03846c5.70769,0 11.82308,2.03846 16.30769,5.70769c4.48462,-3.26154 9.78462,-4.89231 15.49231,-4.89231h5.3c4.07692,-2.44615 8.56154,-4.07692 13.45385,-4.07692l13.04615,-0.40769h0.40769c13.86154,0 25.27692,11.41538 25.68462,25.27692c0,6.52308 -2.03846,12.23077 -6.11538,17.12308v11.82308c3.66923,4.07692 5.70769,9.37692 6.11538,15.08462c0.81538,13.86154 -9.78462,25.68462 -24.05385,26.90769z" fill="#ffffff"/><path d="M349.77099,213.22692c-5.3,0.40769 -8.56154,0.81538 -9.37692,1.22308l-0.40769,0.40769c-1.22308,0.40769 -2.85385,1.22308 -4.89231,1.22308c-2.44615,0 -5.3,-0.81538 -7.33846,-2.85385c-0.81538,-0.81538 -1.63077,-1.63077 -2.03846,-2.44615h-9.37692c-1.63077,0 -3.26154,-0.40769 -4.48462,-1.22308c-0.40769,0.40769 -1.22308,0.40769 -1.63077,0.81538c-3.26154,1.63077 -6.11538,1.63077 -8.15385,1.63077h-2.03846c-6.11538,0 -11.00769,-2.03846 -14.26923,-5.70769c-2.03846,2.03846 -4.89231,3.26154 -7.74615,3.26154l-15.08462,0.40769c-5.3,0 -10.19231,-4.07692 -11.00769,-8.96923c-2.03846,1.22308 -4.07692,2.03846 -6.52308,2.03846c-2.44615,0 -4.89231,-0.81538 -6.93077,-2.03846c-0.40769,-0.40769 -0.81538,-0.81538 -1.22308,-0.81538c-1.22308,0.81538 -2.85385,0.81538 -4.48462,0.81538h-1.22308c-1.63077,4.89231 -4.48462,8.15385 -8.96923,10.19231c-2.03846,0.81538 -4.48462,1.63077 -6.52308,1.63077c-2.03846,0 -4.48462,-0.40769 -6.52308,-1.22308c-2.03846,-0.81538 -3.66923,-2.03846 -4.89231,-3.26154c-0.81538,0.40769 -1.63077,0.40769 -2.44615,0.81538l-11.82308,1.63077h-1.63077c-1.22308,0 -2.03846,0 -3.26154,-0.40769c-1.63077,1.63077 -3.66923,2.44615 -5.3,3.26154c-3.26154,1.63077 -6.11538,1.63077 -8.15385,1.63077h-2.03846c-7.33846,0 -13.04615,-3.26154 -16.30769,-7.74615c-3.26154,2.03846 -7.33846,3.26154 -11.00769,3.26154h-2.44615c0,0.40769 -0.40769,0.40769 -0.40769,0.81538c-2.03846,2.03846 -4.89231,3.66923 -7.74615,3.66923h-0.81538c-5.70769,0 -10.6,-4.48462 -11.00769,-10.6v-0.40769c0,-2.03846 -0.40769,-5.70769 0,-9.78462c0,-2.85385 0.40769,-7.33846 0.40769,-7.33846c0,-2.85385 1.22308,-5.3 2.85385,-7.33846c-1.63077,-3.26154 -2.03846,-6.93077 -1.22308,-11.00769v-0.81538c0.40769,-2.44615 0.81538,-6.11538 2.44615,-9.78462c2.85385,-5.3 8.15385,-8.15385 14.26923,-8.15385h2.85385c2.03846,-1.63077 4.48462,-2.85385 7.33846,-2.85385c6.11538,0 11.00769,5.3 11.00769,11.41538v4.48462c2.03846,-0.81538 4.48462,-1.22308 6.93077,-1.22308c1.22308,0 2.03846,0 3.26154,0.40769c1.63077,-2.03846 4.07692,-3.26154 6.52308,-3.66923c0.40769,-0.81538 0.81538,-1.22308 1.22308,-2.03846c1.63077,-2.44615 4.48462,-4.07692 7.33846,-4.48462c2.44615,-0.40769 7.33846,-0.81538 13.04615,-0.81538c6.52308,0 11.82308,0.81538 15.9,2.85385c1.22308,-4.48462 4.48462,-7.74615 9.37692,-8.56154l10.6,-1.63077h1.63077c3.26154,0 6.11538,1.22308 8.15385,3.66923c0.81538,0.81538 2.03846,2.44615 2.44615,3.66923l0.40769,1.22308c2.03846,-1.22308 4.07692,-2.03846 6.52308,-2.03846l15.9,-0.40769c7.74615,0 14.67692,-0.40769 14.67692,-0.81538h0.81538c2.85385,0 6.11538,1.22308 8.15385,3.26154c1.63077,1.63077 2.85385,3.66923 3.26154,6.11538h0.81538c1.22308,0 2.03846,0 3.26154,0.40769c1.63077,-2.03846 4.07692,-3.26154 6.52308,-3.66923c2.03846,-2.85385 5.70769,-5.3 9.78462,-5.3h10.6c2.03846,-2.44615 4.89231,-4.07692 8.56154,-4.07692h13.04615c6.11538,0 11.00769,4.89231 11.41538,11.00769c0,4.48462 -2.44615,8.56154 -6.11538,10.19231v24.86923c3.26154,1.63077 5.70769,5.3 6.11538,9.37692c0.40769,6.11538 -4.48462,11.41538 -10.6,11.82308z" fill="#f9a83a"/><path d="M242.14022,177.75769l-8.15385,1.22308l2.85385,-14.67692z" fill="#f9a83a"/><path d="M139.40176,178.57308c4.89231,0.81538 15.08462,2.44615 15.08462,12.63846c0,2.85385 -1.63077,6.11538 -4.07692,8.15385c-2.85385,2.44615 -6.52308,3.66923 -10.19231,2.85385c-2.85385,-0.40769 -5.3,-1.63077 -6.93077,-2.85385v4.48462c0,1.22308 -1.22308,2.44615 -2.44615,2.44615c-1.22308,0 -2.44615,-1.22308 -2.44615,-2.44615c0,-0.40769 -0.40769,-4.07692 0,-8.96923c0.40769,-2.85385 0.40769,-7.74615 0.40769,-7.74615c0,-1.22308 1.22308,-2.44615 2.44615,-2.44615c1.22308,0 2.44615,1.22308 2.44615,2.44615v0.81538c0,1.22308 0.40769,3.26154 0.81538,4.89231c0.81538,1.63077 3.26154,2.85385 4.07692,3.26154c0.81538,0 1.22308,0.40769 2.03846,0.40769c2.44615,0.40769 4.89231,0 6.52308,-1.63077c1.63077,-1.22308 2.44615,-2.85385 2.44615,-4.48462c0,-4.07692 -4.48462,-5.3 -11.00769,-6.52308c-6.11538,-1.22308 -8.56154,-6.11538 -7.74615,-13.86154v-0.81538c0.40769,-4.07692 1.22308,-11.00769 8.96923,-9.78462c2.85385,0 5.3,2.03846 7.33846,4.07692v-4.48462c0,-1.22308 1.22308,-2.44615 2.44615,-2.44615c1.22308,0 2.44615,1.22308 2.44615,2.44615c0,0.40769 -0.81538,15.9 -0.81538,15.9c-0.40769,1.22308 -1.63077,2.44615 -2.85385,2.03846c-1.22308,-0.40769 -2.03846,-1.22308 -2.03846,-2.03846v-1.63077c-0.40769,-1.22308 -0.40769,-2.44615 -1.22308,-4.07692c-0.81538,-2.44615 -2.44615,-3.66923 -3.26154,-4.48462c-0.81538,-0.81538 -1.63077,-1.22308 -2.44615,-1.22308c-2.44615,0 -2.85385,1.22308 -3.66923,6.11538v0.81538c-0.81538,5.70769 0.81538,7.74615 3.66923,8.15385M207.89407,171.64231c1.22308,-1.63077 2.03846,-3.26154 2.03846,-4.07692v-0.81538c-1.22308,-2.03846 -6.93077,-2.44615 -13.45385,-2.44615v11.41538c2.44615,-0.40769 4.89231,-0.81538 6.52308,-1.63077l1.22308,-0.40769c0.40769,0 1.63077,-0.40769 2.03846,-0.81538c0.81538,-0.40769 1.22308,-0.81538 1.63077,-1.22308M222.1633,193.65769c1.22308,0.40769 2.03846,1.63077 0.40769,2.44615c-0.81538,3.66923 -2.44615,4.89231 -4.48462,6.11538c-2.44615,1.22308 -4.48462,0.40769 -6.11538,0c-2.03846,-0.81538 -3.26154,-2.85385 -3.66923,-3.66923c-0.81538,-2.03846 -1.22308,-6.93077 -1.22308,-8.15385c-0.40769,-6.11538 -1.22308,-8.56154 -2.03846,-9.78462c-0.40769,-0.81538 -1.22308,-1.22308 -2.03846,-1.22308h-0.81538c-2.03846,0.81538 -4.07692,1.22308 -6.52308,1.63077v14.26923l3.66923,-0.40769c1.22308,-0.40769 2.85385,0.81538 2.85385,2.03846c0.40769,1.22308 -0.81538,2.85385 -2.03846,2.85385l-11.82308,1.63077c-1.22308,0.40769 -2.85385,-0.81538 -2.85385,-2.03846c-0.40769,-1.22308 0.81538,-2.85385 2.03846,-2.85385l3.26154,-0.40769v-14.26923h-1.22308c-1.22308,0 -2.44615,-1.22308 -2.44615,-2.44615c0,-1.22308 1.22308,-2.44615 2.44615,-2.44615h1.22308v-11.41538c-1.22308,0 -2.44615,0.40769 -3.66923,0.40769c-1.22308,0.40769 -2.85385,-0.81538 -2.85385,-2.03846c-0.40769,-1.22308 0.81538,-2.85385 2.03846,-2.85385c5.70769,-0.81538 23.23846,-2.85385 27.31538,4.07692c1.63077,2.85385 0.81538,6.11538 -2.03846,10.19231c0,0 -1.22308,1.22308 -2.44615,2.03846c2.03846,2.03846 3.66923,6.11538 3.66923,13.45385c0,2.03846 0.40769,5.3 0.81538,6.11538c0.40769,0.40769 0.81538,1.22308 0.81538,1.22308c1.22308,0.40769 2.03846,0.81538 2.44615,0.40769c0.40769,-0.40769 1.22308,-0.40769 2.03846,-3.26154c0.40769,-1.22308 2.03846,-2.03846 3.26154,-1.63077M311.04022,185.91154c1.22308,0 2.44615,0.81538 2.44615,1.63077v4.07692c-0.40769,0.81538 -0.81538,3.66923 -1.63077,5.3c-0.81538,1.22308 -1.22308,2.03846 -2.03846,2.85385c-1.22308,1.22308 -2.44615,2.03846 -3.66923,2.44615c-1.63077,0.81538 -3.26154,0.81538 -4.89231,0.81538h-1.22308c-8.96923,0 -11.82308,-7.33846 -12.23077,-11.00769v-11.41538c0.40769,-6.11538 2.44615,-9.78462 5.3,-11.82308c3.66923,-2.44615 8.56154,-0.40769 9.78462,0.40769c1.22308,0.81538 2.44615,1.22308 3.26154,2.03846v-4.48462c0,-1.22308 1.22308,-2.44615 2.44615,-2.44615c1.22308,0 2.44615,1.22308 2.44615,2.44615v11.00769c0,1.22308 -0.40769,2.03846 -1.63077,2.44615c-1.22308,0 -2.44615,-0.40769 -2.85385,-1.22308c-0.40769,0 -2.44615,-3.66923 -5.70769,-4.89231c-2.85385,-0.81538 -4.48462,-1.22308 -5.70769,-0.40769c-1.63077,1.22308 -2.44615,4.07692 -2.85385,8.15385v10.6c0,1.22308 0.81538,6.52308 7.33846,6.11538h1.63077c1.63077,0 2.03846,0 2.85385,-0.40769c0.81538,-0.40769 1.63077,-0.81538 2.03846,-1.22308c0.81538,-0.81538 1.22308,-1.22308 1.63077,-2.03846c0.40769,-0.40769 0.81538,-2.03846 0.81538,-3.26154v-3.26154c0,-1.22308 1.22308,-2.44615 2.44615,-2.44615M351.40176,202.21923c0,1.22308 -0.81538,2.44615 -2.03846,3.26154c-5.70769,0.40769 -10.6,0.81538 -11.82308,1.63077c-1.63077,0.40769 -2.85385,0.81538 -3.66923,0c-1.22308,-0.81538 -1.22308,-2.44615 -0.40769,-3.26154c1.22308,-1.63077 3.66923,-1.63077 6.93077,-2.44615v-18.75385l-14.67692,2.44615v12.63846h4.07692c1.22308,0 2.44615,1.22308 2.44615,2.44615c0,1.22308 -1.22308,2.44615 -2.44615,2.44615l-13.45385,-0.40769c-1.22308,0 -2.44615,-1.22308 -2.44615,-2.44615c0,-1.22308 1.22308,-2.44615 2.44615,-2.44615h4.07692v-33.02308h-4.07692c-1.22308,0 -2.44615,-1.22308 -2.44615,-2.44615c0,-1.22308 1.22308,-2.44615 2.44615,-2.44615h13.04615c1.22308,0 2.44615,1.22308 2.44615,2.44615c0,1.22308 -1.22308,2.44615 -2.44615,2.44615h-4.07692v15.49231l14.67692,-2.44615v-17.12308h-4.07692c-1.22308,0 -2.44615,-1.22308 -2.44615,-2.44615c0,-1.22308 1.22308,-2.44615 2.44615,-2.44615l13.04615,-0.40769c1.22308,0 2.44615,1.22308 2.44615,2.44615c0,1.22308 -1.22308,2.44615 -2.44615,2.44615h-3.66923c0.40769,27.72308 0.40769,36.28462 0.40769,40.36154c1.22308,-0.40769 2.44615,-0.40769 3.26154,-0.40769c1.22308,0 2.44615,1.22308 2.44615,2.44615" fill="#ffffff"/><path d="M242.14022,177.75769l-5.3,-13.45385l-2.85385,14.67692zM255.59407,183.05769c1.22308,-0.40769 2.44615,0.40769 2.85385,1.22308c0.40769,1.22308 -0.40769,2.85385 -1.63077,3.26154c-4.48462,1.63077 -8.96923,3.66923 -10.19231,5.3c-0.81538,0.81538 -2.44615,1.22308 -3.66923,0.40769c-0.81538,-0.81538 -1.22308,-2.03846 -0.40769,-3.26154c1.22308,-1.22308 2.03846,-1.63077 4.07692,-2.85385l-2.44615,-6.11538l-11.41538,2.03846l-0.40769,3.66923c1.63077,0 2.44615,1.22308 2.44615,2.44615c0,1.63077 -1.22308,2.44615 -2.44615,2.44615l-12.23077,-0.40769c-1.63077,0 -2.44615,-1.22308 -2.44615,-2.44615c0,-1.63077 1.22308,-2.44615 2.44615,-2.44615l7.33846,0.40769c1.22308,-5.70769 4.89231,-24.05385 5.70769,-28.53846c-3.26154,0.40769 -7.33846,0.81538 -7.33846,0.81538c-1.63077,0.40769 -2.85385,-0.81538 -2.85385,-2.03846c-0.40769,-1.63077 0.81538,-2.85385 2.03846,-2.85385l10.6,-1.22308c0.81538,0 1.63077,0.40769 2.03846,0.81538c0.40769,0 0.81538,0.81538 0.81538,1.22308l9.37692,22.42308l3.26154,7.74615c2.44615,-1.22308 3.66923,-1.63077 4.48462,-2.03846" fill="#ffffff"/><path d="M284.94791,158.18846c0.81538,0 1.63077,0.40769 1.63077,1.22308c0.81538,0.81538 0.81538,1.22308 0.81538,2.03846c-0.40769,3.26154 -0.40769,8.96923 -0.40769,8.96923c0,0.81538 -0.40769,2.03846 -1.22308,2.44615c-1.22308,0.81538 -2.44615,0.40769 -3.26154,-0.81538c0,-0.40769 -0.40769,-1.22308 -0.40769,-3.66923v-4.89231c-2.44615,0 -6.11538,0.40769 -10.19231,0.40769v32.20769h4.89231c1.22308,0 2.44615,1.22308 2.44615,2.44615c0,1.22308 -1.22308,2.44615 -2.44615,2.44615l-15.08462,0.40769c-1.22308,0 -2.44615,-1.22308 -2.44615,-2.44615c0,-1.22308 1.22308,-2.44615 2.44615,-2.44615h5.3v-32.20769h-10.6c0.81538,3.26154 1.63077,9.78462 1.63077,9.78462c0,1.22308 -0.81538,2.44615 -2.03846,2.44615c-1.22308,0.40769 -2.85385,-0.81538 -2.85385,-2.03846l-2.03846,-12.23077c-0.40769,-0.81538 0,-1.63077 0.40769,-2.03846c0.81538,-0.40769 1.22308,-0.81538 2.03846,-0.81538l15.9,-0.40769c8.15385,-0.40769 15.49231,-0.81538 15.49231,-0.81538M180.98637,188.35769c1.22308,0 2.44615,1.22308 2.44615,2.03846v4.07692c-0.40769,0.81538 -0.81538,3.66923 -1.63077,5.3c-0.81538,1.22308 -1.22308,2.03846 -2.03846,2.85385c-1.22308,1.22308 -2.44615,2.03846 -3.66923,2.44615c-1.63077,0.81538 -3.26154,0.81538 -4.89231,0.81538h-1.22308c-9.37692,0 -12.23077,-7.33846 -12.63846,-11.00769v-11.41538c0.40769,-6.11538 2.44615,-9.78462 5.3,-11.82308c4.07692,-2.03846 8.56154,-0.40769 10.19231,0.40769c1.22308,0.40769 2.44615,1.22308 3.26154,2.03846v-4.48462c0,-1.22308 1.22308,-2.44615 2.44615,-2.44615c1.22308,0 2.44615,1.22308 2.44615,2.44615v11.00769c0,1.22308 -0.40769,2.03846 -1.63077,2.44615c-1.22308,0 -2.44615,-0.40769 -2.85385,-1.22308c0,0 -2.44615,-3.66923 -5.70769,-4.89231c-2.85385,-0.81538 -4.48462,-1.22308 -5.70769,-0.40769c-1.63077,1.22308 -2.44615,4.07692 -2.85385,8.15385v10.6c0,1.22308 0.81538,6.11538 7.33846,6.11538h1.63077c1.63077,0 2.03846,0 2.85385,-0.40769c0.81538,-0.40769 1.63077,-0.81538 2.03846,-1.22308c0.81538,-0.81538 1.22308,-1.22308 1.63077,-2.03846c0.40769,-0.81538 0.81538,-2.44615 0.81538,-3.26154v-3.66923c0,-1.22308 1.22308,-2.44615 2.44615,-2.44615" fill="#ffffff"/></g></g></svg>