<svg version="1.1" xmlns="http://www.w3.org/2000/svg" xmlns:xlink="http://www.w3.org/1999/xlink" width="35.00948" height="47.33782" viewBox="0,0,35.00948,47.33782"><g transform="translate(-224.15917,-150.53049)"><g data-paper-data="{&quot;isPaintingLayer&quot;:true}" fill-rule="nonzero" stroke-linejoin="miter" stroke-miterlimit="10" stroke-dasharray="" stroke-dashoffset="0" style="mix-blend-mode: normal"><path d="M246.04057,197.22517c-7.33798,-0.8622 -14.45124,-1.72021 -17.27825,-2.70017c-2.5837,-0.89561 -3.1698,-2.67174 -3.1698,-2.67174c0,0 -0.87652,-1.61204 -0.80993,-2.54797c0.19979,-2.80782 1.14532,-10.79044 2.59709,-17.59161c0.04845,-0.22699 0.0839,-0.3528 0.14579,-0.5765c0.18565,-0.67109 1.02149,-3.26125 1.02149,-3.26125c0,0 2.06278,-0.75873 3.15012,-0.91135c3.262,-0.45787 11.15768,1.47112 19.56189,2.80409c0.76174,0.12082 1.94195,1.30809 1.94195,1.30809c0,0 0.69063,2.02205 0.50724,3.22058c-1.18562,7.74865 -2.52594,16.31762 -2.96098,18.26021c-0.14501,0.64753 -1.58467,3.04501 -1.58467,3.04501z" fill="#582700" stroke="#000000" stroke-width="1.25" stroke-linecap="round"/><path d="M225.88603,168.03277c-0.32077,-0.6935 0.37273,-1.01426 0.37273,-1.01426l0.85354,-0.36716c0.07461,-0.01324 0.1491,-0.02604 0.22349,-0.03837c-0.18496,-3.58501 1.01803,-7.73803 1.42935,-11.20927c0.10667,-0.90022 0.18088,-3.36574 0.71118,-4.08334c0.88802,-1.20163 1.88137,-0.71242 3.03196,-0.57291c1.9577,0.23737 3.89672,0.49673 5.8684,0.44495c4.8868,-0.12261 9.66709,0.29991 14.5409,0.47551c1.53797,0.05542 3.03167,0.18104 4.546,0.49814c0.41435,0.08676 0.96887,-0.00045 1.22448,0.33702c0.9053,1.19516 0.31546,2.32942 -0.02309,3.49639c-0.67531,2.32774 -1.91818,4.34919 -2.28891,6.77201c-0.29601,1.85167 -0.81671,3.72515 -1.28004,5.54084c-0.1599,0.62658 -0.09733,1.8306 -0.79977,2.22998c-1.44033,0.81891 -4.77814,-0.33413 -6.31242,-0.57351c-4.6783,-0.7299 -9.34548,-1.55678 -14.05824,-2.01898c-1.6918,-0.10773 -3.31081,-0.16112 -4.96005,-0.00777c-0.04366,0.22412 -0.18681,0.50087 -0.61703,0.57339c-0.46676,0.07868 -0.6931,-0.18056 -0.79778,-0.38922c-0.05673,0.00959 -0.11353,0.01947 -0.1704,0.02964l-0.48003,0.24966c0,0 -0.6935,0.32077 -1.01427,-0.37274z" fill="#000000" stroke="none" stroke-width="0.5" stroke-linecap="butt"/><path d="M236.34005,180.61062c3.05224,-1.09199 5.44587,0.60182 6.01176,3.63953c0.64902,3.48389 -1.93875,5.04686 -1.93875,5.04686c0,0 -1.45415,-0.87133 -3.38675,-1.37964c-2.4064,-0.63292 -3.78948,-0.54449 -3.78948,-0.54449c0,0 -1.03748,-5.28084 3.10321,-6.76225z" fill="#ffffff" stroke="#0a0a0a" stroke-width="1" stroke-linecap="butt"/><path d="M251.96182,183.30956c3.30782,2.89796 0.40428,7.42929 0.40428,7.42929c0,0 -1.25406,-0.58995 -3.7248,-0.88456c-1.98428,-0.2366 -3.65676,0.04011 -3.65676,0.04011c0,0 -1.83337,-2.40377 0.04921,-5.40621c1.64147,-2.61791 4.48977,-3.31481 6.92807,-1.17863z" data-paper-data="{&quot;index&quot;:null}" fill="#ffffff" stroke="#0a0a0a" stroke-width="1" stroke-linecap="butt"/><g data-paper-data="{&quot;index&quot;:null}" stroke="#000000" stroke-width="0.625" stroke-linecap="butt"><g data-paper-data="{&quot;index&quot;:null}" fill="#000000"><path d="M233.59295,191.85274c-5.07409,-1.36332 -2.68349,-2.84488 -2.68349,-2.84488l6.37917,1.62604c0,0 1.08211,2.45461 -3.69567,1.21884z"/></g><g data-paper-data="{&quot;index&quot;:null}" fill="#ffffff"><path d="M233.59295,191.85274c-5.07409,-1.36332 -2.68349,-2.84488 -2.68349,-2.84488c0,0 4.3157,1.10007 5.3927,1.3746c0.00149,0.00038 -0.46863,0.40622 -0.59017,0.90087c-0.09954,0.40513 0.1465,0.91706 0.13671,0.91712c-0.54634,0.00345 -1.27846,-0.09492 -2.25576,-0.3477z"/></g></g></g></g></svg>