<svg version="1.1" xmlns="http://www.w3.org/2000/svg" xmlns:xlink="http://www.w3.org/1999/xlink" width="95.86394" height="95.86394" viewBox="0,0,95.86394,95.86394"><g transform="translate(-192.06803,-132.06803)"><g data-paper-data="{&quot;isPaintingLayer&quot;:true}" fill-rule="nonzero" stroke-linejoin="miter" stroke-miterlimit="10" stroke-dasharray="" stroke-dashoffset="0" style="mix-blend-mode: normal"><g><path d="M233.53061,181.11914c0,0 3.25649,-7.04074 5.49053,-6.24145c3.77889,1.35201 4.22605,6.46157 2.69516,9.89632c-2.11383,4.74267 -7.3905,7.88448 -7.3905,7.88448c0,0 -1.64259,0.04772 -2.7619,-0.23988c-0.31934,-0.08205 -1.59878,-0.67223 -2.4837,-1.64205c-1.58329,-1.73522 -2.99914,-4.5805 -3.18541,-7.15634c-0.09947,-1.37547 1.75073,-1.72992 1.98918,-1.76117c2.32716,-0.30495 5.64663,-0.7399 5.64663,-0.7399z" fill="#ff292e" stroke="#000000" stroke-width="1" stroke-linecap="round"/><path d="M228.14185,185.15324l4.53674,0.8197l-1.65596,3.6753l0.78945,4.94716l-3.21474,-0.13052l-1.9945,2.76602c0,0 -2.46303,-3.04918 -3.70388,-4.58532c-1.25343,-1.5517 -1.8143,-6.60352 -0.67599,-7.71856c1.39246,-1.36397 4.64367,-4.54868 4.64367,-4.54868z" fill="#feecf7" stroke="#000000" stroke-width="1" stroke-linecap="round"/><path d="M215.61352,190.03053c-0.31539,-3.28133 1.71689,-5.40782 4.75771,-5.7001c3.04081,-0.29228 5.56537,1.39623 5.88076,4.67756c0.31539,3.28133 -1.46206,5.44612 -4.50287,5.7384c-3.04081,0.29228 -5.8202,-1.43452 -6.13559,-4.71585z" fill="#f89688" stroke="#000000" stroke-width="1" stroke-linecap="butt"/><path d="M206.19633,187.24914c-0.00242,0.0003 -0.00369,0.00043 -0.00369,0.00043l-0.55823,-0.13176c-0.9487,-0.97421 -0.66181,-2.30248 -0.07546,-3.45423c1.64538,-1.644 5.55063,-6.41699 8.12511,-3.52435c1.21711,1.36753 1.30749,3.36982 1.91002,5.01372c0.68086,6.62399 -5.76846,3.81357 -9.39775,2.09619z" fill="#323344" stroke="#000000" stroke-width="1" stroke-linecap="butt"/><path d="M212.6014,181.97535c-0.66717,-0.25488 -0.47957,-0.98066 -0.47957,-0.98066c0.50311,-1.94076 3.36063,-6.13408 5.74201,-5.27035c2.44221,0.8858 1.31316,3.35787 2.80226,4.78077c0.70155,0.67037 2.55351,0.50876 3.46836,0.74559c0.47762,1.01037 0.68375,1.17504 0.75996,2.23863c0.13454,1.87777 -1.20531,3.15377 -3.13003,2.91373c-3.08287,-0.38447 -5.12702,-3.5197 -8.1921,-4.00209l-0.32004,-0.03062c0,0 -0.44487,-0.04534 -0.65084,-0.39502z" fill="#fcdfbd" stroke="none" stroke-width="0.5" stroke-linecap="butt"/><path d="M224.13447,181.25071c0.47762,1.01037 0.68375,1.17504 0.75996,2.23864c0.13453,1.87777 -1.20531,3.15376 -3.13003,2.91372c-2.38091,-0.29693 -4.14228,-2.23456 -6.23287,-3.32376c0.74749,-0.18919 1.43347,-0.35942 1.95799,-0.40913c0.57277,-0.05429 1.04346,0.15009 1.49472,0.41629c0.50262,0.56908 1.2308,0.92647 2.02835,0.94339c0.32223,0.02771 0.67652,-0.01587 1.07852,-0.16797c0.1131,-0.0428 0.22598,-0.10404 0.33686,-0.18098c0.87924,-0.48839 1.45377,-1.43385 1.43462,-2.48594c0.09736,0.0159 0.18852,0.03417 0.27189,0.05577z" fill="#f89688" stroke="none" stroke-width="0.5" stroke-linecap="butt"/><path d="M212.6014,181.97535c-0.66717,-0.25488 -0.47957,-0.98066 -0.47957,-0.98066c0.50311,-1.94076 3.36063,-6.13407 5.742,-5.27034c2.4422,0.8858 1.31316,3.35785 2.80226,4.78076c0.70155,0.67036 2.5535,0.50876 3.46837,0.7456c0.47762,1.01037 0.68375,1.17504 0.75996,2.23864c0.13453,1.87777 -1.20531,3.15377 -3.13003,2.91373c-3.08286,-0.38447 -5.12702,-3.5197 -8.1921,-4.00209l-0.32004,-0.03064c0,0 -0.44487,-0.04534 -0.65084,-0.39501z" fill="none" stroke="#000000" stroke-width="1" stroke-linecap="butt"/><path d="M213.20476,179.74376c0.05334,0.55496 -0.50162,0.6083 -0.50162,0.6083l-0.08537,0.00821c-3.44148,0.33079 -5.84691,2.92387 -5.88969,6.44429c0,0 -0.00261,0.17601 -0.1038,0.32876l0.08648,0.2656c0,0 -0.3442,0.4174 -0.76562,0.09081c-0.07296,-0.00337 -0.14592,-0.00673 -0.21888,-0.0101c0,0 -0.31509,-0.01452 -0.46032,-0.25871c-0.31422,-0.10719 -0.34971,-0.4764 -0.34971,-0.4764l-0.01054,-0.15461c0.14437,-5.05316 2.51462,-7.36726 7.38542,-7.83542c0,0 0.55496,-0.05334 0.6083,0.50162c0.00123,0.01277 0.00213,0.02529 0.00273,0.03752c0.13857,0.05996 0.27729,0.18632 0.30264,0.45014z" fill="#455d83" stroke="none" stroke-width="0.5" stroke-linecap="butt"/><path d="M206.77102,186.08217c-0.50314,-0.23387 -1.05577,-0.35071 -1.58283,-0.31749c-0.0733,-0.0359 -0.15006,-0.06552 -0.22951,-0.0882c0.14733,-1.6423 0.56678,-2.95905 1.26995,-3.98802c0.47695,0.56981 0.93934,1.15814 1.40123,1.73878c-0.45567,0.77741 -0.75275,1.67326 -0.85883,2.65493z" fill="#85afb1" stroke="none" stroke-width="0.5" stroke-linecap="butt"/><path d="M208.07407,179.96857c0.38125,0.57858 0.89403,1.14386 1.34275,1.53043c-0.41228,0.28567 -0.78504,0.61836 -1.11264,0.9924c-0.44614,-0.55812 -0.89211,-1.11973 -1.35169,-1.66609c0.33242,-0.32454 0.70608,-0.60944 1.1216,-0.85674z" fill="#85afb1" stroke="none" stroke-width="0.5" stroke-linecap="butt"/><path d="M213.20476,179.74377c0.05334,0.55496 -0.50162,0.6083 -0.50162,0.6083l-0.08537,0.00821c-3.44148,0.33079 -5.84691,2.92387 -5.88969,6.44429c0,0 -0.00261,0.17601 -0.1038,0.32876l0.08647,0.26561c0,0 -0.34419,0.4174 -0.76562,0.09081c-0.07296,-0.00337 -0.14592,-0.00673 -0.21888,-0.0101c0,0 -0.31509,-0.01453 -0.46032,-0.25871c-0.31423,-0.10718 -0.34972,-0.47639 -0.34972,-0.47639l-0.01054,-0.15462c0.14437,-5.05316 2.5146,-7.36724 7.38542,-7.83541c0,0 0.55496,-0.05334 0.6083,0.50162c0.00123,0.01276 0.00213,0.02528 0.00273,0.03752c0.13857,0.05996 0.27729,0.18632 0.30264,0.45014z" fill="none" stroke="#000000" stroke-width="1" stroke-linecap="butt"/><path d="M222.90717,188.76151c0,0 3.1398,-0.24674 3.79664,1.4837c0.52702,1.38842 -0.63518,2.58058 -1.23579,3.72796c-1.42158,2.71569 -3.51665,7.26506 -7.17802,5.06055c-0.77425,-0.56912 -1.36656,-1.1812 -2.02395,-1.87721l-0.0881,-0.07115c-1.03221,0.62942 -2.08929,0.77636 -2.77638,0.23255c-0.72742,-0.57571 -1.44246,-1.85084 -2.10666,-2.72485c-1.45069,0.36728 -3.03307,0.76545 -4.29607,-0.04166c-1.21465,-0.77619 -1.04836,-1.87186 -1.16699,-3.10612c-0.3323,-3.45721 1.53188,-6.47647 4.51575,-8.19769c1.45442,-1.05909 2.91464,-2.65316 4.81755,-2.94623c1.3383,-0.20611 2.23429,0.50591 2.86352,1.38787c0.72597,1.01759 1.05249,2.31517 0.57067,3.5663c1.253,0.092 2.51976,0.68931 3.42111,1.5025c0.88263,0.79631 0.58593,1.22855 0.88671,2.00347z" fill="#fde0be" stroke="none" stroke-width="0.5" stroke-linecap="butt"/><path d="M226.70382,190.24522c0.52702,1.38844 -0.63517,2.58057 -1.2358,3.72795c-1.42159,2.71569 -3.51665,7.26507 -7.17802,5.06056c-0.77425,-0.56912 -1.36656,-1.1812 -2.02394,-1.87721l-0.0881,-0.07115c-1.03221,0.62942 -2.08928,0.77636 -2.77637,0.23255c-0.72742,-0.57571 -1.44245,-1.85085 -2.10665,-2.72486c-1.45069,0.36728 -3.03306,0.76545 -4.29606,-0.04166c-1.21465,-0.7762 -1.04836,-1.87186 -1.16699,-3.10612c-0.11116,-1.15657 0.02349,-2.26412 0.36365,-3.29046c0.08646,0.17779 0.14762,0.35599 0.1527,0.545l0.00687,0.00624c0.02194,1.15127 0.47605,2.0262 1.18044,2.56108c0.55686,0.4843 1.30379,0.74789 2.09638,0.6717c0.28679,-0.02756 0.55923,-0.09766 0.81169,-0.20344c0.27666,-0.07197 0.5573,-0.17331 0.83837,-0.30521c1.22235,-0.57366 2.88723,-1.75715 4.424,-3.21458c-0.2429,0.91925 -0.42903,1.82822 -0.54193,2.56558c-0.11366,0.35163 -0.15885,0.73175 -0.12124,1.123c0.0224,0.23306 0.07289,0.45665 0.1478,0.66774c0.1521,1.58245 1.4366,2.01097 2.67301,1.85293c0.07311,-0.00129 0.14671,-0.00543 0.22072,-0.01255c0.61053,-0.05868 1.15606,-0.31012 1.58216,-0.68831c0.14112,-0.10818 0.26178,-0.22437 0.35608,-0.34572c0.10634,-0.13687 0.21786,-0.28928 0.33296,-0.45464c0.21775,0.10177 -0.70008,2.22939 -0.46386,2.27361c0.69897,0.13087 2.60659,-2.06573 3.31517,-2.62565c0.56774,-0.44863 0.90953,-0.93302 1.07658,-1.42128c0.25175,-0.46868 0.37234,-1.01443 0.31762,-1.58375c-0.02476,-0.25754 -0.08381,-0.50352 -0.1722,-0.73385c0.90017,0.14026 1.92998,0.50372 2.27495,1.41253z" fill="#f89688" stroke="none" stroke-width="0.5" stroke-linecap="butt"/><path d="M222.90717,188.76151c0,0 3.1398,-0.24674 3.79664,1.4837c0.52702,1.38844 -0.63517,2.58057 -1.23579,3.72795c-1.42159,2.71569 -3.51665,7.26507 -7.17802,5.06056c-0.77425,-0.56912 -1.36656,-1.1812 -2.02394,-1.87721l-0.0881,-0.07115c-1.03221,0.62942 -2.08929,0.77636 -2.77638,0.23255c-0.72742,-0.57571 -1.44245,-1.85085 -2.10665,-2.72486c-1.45069,0.36728 -3.03307,0.76545 -4.29606,-0.04166c-1.21465,-0.7762 -1.04835,-1.87186 -1.16699,-3.10612c-0.3323,-3.45721 1.53187,-6.47646 4.51573,-8.19769c1.45442,-1.05909 2.91464,-2.65316 4.81756,-2.94623c1.3383,-0.20611 2.23429,0.5059 2.8635,1.38787c0.72597,1.01759 1.05249,2.31517 0.57067,3.5663c1.25301,0.092 2.51976,0.68931 3.42111,1.50251c0.88264,0.79631 0.58593,1.22855 0.88671,2.00347z" fill="none" stroke="#000000" stroke-width="1" stroke-linecap="butt"/><path d="M213.95007,189.4701l4.92649,-3.90875" fill="none" stroke="#000000" stroke-width="1" stroke-linecap="round"/><path d="M222.64307,189.00794l-3.20326,3.96716" fill="none" stroke="#000000" stroke-width="1" stroke-linecap="round"/><path d="M197.72738,179.6373c-0.45549,-4.73893 2.55719,-9.25034 7.29613,-9.70583c2.53169,-0.24334 4.109,0.72401 5.72718,2.25977c0.54518,0.51742 1.40475,1.54266 1.9315,2.66381c0.83635,1.78013 0.60919,3.65127 0.51885,3.94501c-0.07193,0.23391 -3.10952,-1.1806 -5.80665,1.39486c-2.7511,2.62701 -2.95764,6.94037 -2.95764,6.94037c0,0 -2.21993,-0.19362 -3.74273,-1.34556c-1.69688,-1.28363 -2.72656,-3.65485 -2.96662,-6.15244z" fill="#465e85" stroke="#000000" stroke-width="0" stroke-linecap="butt"/><path d="M197.72738,179.6373c-0.05719,-0.59503 -0.0597,-1.18647 -0.01098,-1.76677c0.05429,0.07764 0.11621,0.14929 0.18454,0.21399l0.00623,0.02065l0.03765,0.01917c0.17854,0.15526 0.39617,0.26514 0.63385,0.31395l0.23302,0.05356l0.1427,-0.00272l0.13315,0.0714l0.0854,0.02156l0.07204,0.05065l0.09411,0.03626l0.00903,0.01278l0.03958,0.00595l0.03624,0.01397l0.31786,0.03925l0.3167,0.04759l0.03867,-0.00372l0.03973,0.0049l0.01213,-0.0099l0.02907,-0.00279l0.03067,0.02156l0.09411,0.03627l0.00903,0.01278l0.03959,0.00595l0.03624,0.01397l0.31785,0.03925l0.3167,0.04759l0.03867,-0.00372l0.03973,0.00491l0.01212,-0.0099l7.16267,-0.68845l0.03705,0.00458l0.3167,0.04759l0.03867,-0.00372l0.03973,0.00491l0.01212,-0.0099l0.21687,-0.02084l0.02365,0.01204l0.52869,0.12152l0.17613,-0.00336l0.30246,0.03735l0.3167,0.04759l0.03866,-0.00372l0.03973,0.00491l0.01213,-0.0099l0.473,-0.04546l0.02365,0.01204l0.1678,0.03857l0.18065,0.0696l0.00903,0.01278l0.03958,0.00595l0.03624,0.01397l0.26591,0.03284c-1.13686,-0.05358 -2.70707,0.1654 -4.17628,1.56835c-2.7511,2.62701 -2.95764,6.94036 -2.95764,6.94036c0,0 -2.21993,-0.19362 -3.74273,-1.34556c-1.69688,-1.28363 -2.72656,-3.65485 -2.96662,-6.15244z" fill="#323344" stroke="#000000" stroke-width="0" stroke-linecap="butt"/><path d="M202.01173,174.47322l0.00495,0.01637l-0.02296,-0.00954z" fill="#323344" stroke="#000000" stroke-width="0" stroke-linecap="butt"/><path d="M197.72738,179.6373c-0.45549,-4.73894 2.5572,-9.25034 7.29613,-9.70583c2.53169,-0.24334 4.10899,0.72401 5.72717,2.25977c0.54518,0.51742 1.40474,1.54266 1.9315,2.66382c0.83635,1.78012 0.6092,3.65127 0.51886,3.94501c-0.07193,0.23391 -3.10952,-1.1806 -5.80665,1.39488c-2.7511,2.62701 -2.95764,6.94037 -2.95764,6.94037c0,0 -2.21994,-0.19361 -3.74274,-1.34556c-1.69688,-1.28363 -2.72656,-3.65485 -2.96662,-6.15243z" fill="none" stroke="#000000" stroke-width="1" stroke-linecap="butt"/><path d="M202.76697,186.34793c0,0 -0.40456,-5.89081 2.45104,-8.2133c3.01941,-2.45572 7.80787,-0.70021 7.80787,-0.70021" fill="none" stroke="#000000" stroke-width="1" stroke-linecap="round"/><path d="M199.25174,183.84226c0,0 0.85535,-5.51947 3.43482,-8.66724c2.34185,-2.85779 7.71245,-2.6582 7.71245,-2.6582" fill="none" stroke="#000000" stroke-width="1" stroke-linecap="round"/><path d="M197.80376,178.63903c0,0 2.44998,-4.17146 3.94054,-5.69653c1.34488,-1.37602 4.6108,-3.05285 4.6108,-3.05285" fill="none" stroke="#000000" stroke-width="1" stroke-linecap="round"/><path d="M204.31042,184.47623c0,0 -2.64183,-0.32606 -3.67935,-0.85054c-1.01485,-0.51303 -2.47929,-2.26272 -2.47929,-2.26272" fill="none" stroke="#000000" stroke-width="1" stroke-linecap="round"/><path d="M205.23648,183.3532c0,0 -3.07534,-1.20905 -4.3931,-2.04795c-1.17449,-0.74768 -3.13319,-2.7434 -3.13319,-2.7434" fill="none" stroke="#000000" stroke-width="1" stroke-linecap="round"/><path d="M205.92614,181.56355c0,0 -3.08975,-1.5828 -4.1777,-2.80423c-1.18902,-1.33487 -2.68022,-4.89489 -2.68022,-4.89489" fill="none" stroke="#000000" stroke-width="1" stroke-linecap="round"/><path d="M201.0747,171.4312c0,0 3.16713,3.75179 4.19885,5.33461c0.85544,1.31239 1.56227,3.50395 1.56227,3.50395" fill="none" stroke="#000000" stroke-width="1" stroke-linecap="round"/><path d="M204.30601,170.0866c0,0 2.40478,2.23289 3.18144,3.61406c0.8151,1.4495 1.59946,4.88788 1.59946,4.88788" fill="none" stroke="#000000" stroke-width="1" stroke-linecap="round"/><path d="M209.71109,171.63511c0,0 0.92002,1.97513 1.17875,3.05972c0.26995,1.13165 0.40874,3.59496 0.40874,3.59496" fill="none" stroke="#000000" stroke-width="1" stroke-linecap="round"/></g><g><g stroke="#000000" stroke-width="1"><path d="M252.98905,183.14034c0,-1.51762 0.3208,-4.9462 1.34976,-5.93409c1.01113,-0.97076 9.84921,4.9276 9.84921,5.93409c0,3.00893 -2.45415,5.03697 -5.54666,5.03697c-3.09251,0 -5.65231,-2.02804 -5.65231,-5.03697z" fill="#d90250" stroke-linecap="butt"/><path d="M262.76176,174.96811c0,0 -1.16518,3.14923 -0.17773,3.95159c1.53473,1.24705 5.98853,0.82839 5.98853,0.82839c0,0 -2.48847,1.83748 -2.97029,3.04782c-0.4866,1.22236 0.06489,4.25064 0.06489,4.25064c0,0 -2.46869,-4.01433 -4.45506,-3.94918c-0.89864,0.02947 -1.09161,1.99606 -1.09161,1.99606c0,0 -1.4199,-3.35241 -2.3092,-4.18085c-0.73719,-0.68675 -2.65638,-0.44494 -2.65638,-0.44494c0,0 -0.01808,-1.26913 -0.476,-3.08544c-0.2573,-1.02057 -1.63703,-2.87668 -1.63703,-2.87668c0,0 3.64424,1.20138 5.33551,1.28187c1.53313,0.07296 4.38435,-0.8193 4.38435,-0.8193z" fill="#fdebf6" stroke-linecap="round"/></g><g stroke="#000000" stroke-linecap="round"><path d="M215.79999,199.12499c0,0 1.83718,-6.8657 2.15299,-8.04591c0.08909,-0.33293 0.8251,-0.59234 1.64604,-0.53214c0.75018,0.05501 2.43798,0.22517 4.61377,0.38285c9.87477,0.71563 30.83645,2.18169 30.83645,2.18169l0.31695,15.00811z" fill="#4fa6ed" stroke-width="0"/><path d="M255.04924,193.11147l0.31695,15.00811l-13.82907,-3.14376c-0.26934,-1.38311 -1.03549,-6.6785 -1.78478,-7.10877c-0.50351,-0.85735 -3.10529,-0.14119 -4.12844,0.10443c-2.26839,0.54456 -6.80503,1.43676 -8.27875,3.77808l-3.95012,-0.89798c1.18139,-0.88308 2.17704,-2.00487 2.81846,-3.08028c0.59211,-0.99275 1.91301,-3.2792 1.26229,-4.22889l-2.68811,-2.57102c10.08918,0.72922 30.26157,2.14008 30.26157,2.14008z" fill="#2e67e5" stroke-width="0"/><path d="M215.79999,199.12499c0,0 1.83718,-6.8657 2.15299,-8.04591c0.08909,-0.33293 0.8251,-0.59234 1.64604,-0.53214c0.75018,0.05501 2.43798,0.22517 4.61377,0.38285c9.87477,0.71563 30.83645,2.18169 30.83645,2.18169l0.31695,15.00811z" fill="none" stroke-width="1"/></g><path d="M227.63288,185.76162l6.65599,-4.77998l-1.00368,-5.75653c0,0 6.8797,-2.56928 8.96261,-3.23879c1.00551,-0.3232 2.87028,-0.56464 2.87028,-0.56464c0,0 4.73187,1.36248 8.05772,4.69881c2.47411,2.48191 4.30862,6.87052 4.84095,8.71343c0.25518,0.88342 -0.59908,3.14696 -1.05007,4.94045c-0.35737,1.42114 -0.20599,2.37501 -0.85006,3.32652c-1.49354,2.20652 -3.55016,2.01509 -3.55016,2.01509c0,0 -1.45493,0.13212 -2.07909,-0.03661c-0.81131,-0.21931 -2.37625,-1.16778 -2.37625,-1.16778c0,0 -13.87278,-1.25443 -16.85357,-2.37274c-3.41539,-1.28136 -3.62466,-5.77724 -3.62466,-5.77724z" fill="#ff292e" stroke="#000000" stroke-width="0" stroke-linecap="round"/><path d="M258.01675,184.83391c0.25518,0.88342 -0.59908,3.14696 -1.05007,4.94045c-0.35737,1.42114 -0.20599,2.37501 -0.85006,3.32652c-1.49354,2.20652 -3.55016,2.01509 -3.55016,2.01509c0,0 -1.45493,0.13212 -2.07909,-0.03661c-0.81131,-0.21931 -2.37625,-1.16778 -2.37625,-1.16778c0,0 -3.82699,-0.34605 -7.89278,-0.83668c1.72636,-0.97807 3.33486,-2.87538 4.11314,-3.60946c3.93131,-3.70804 2.16497,-6.31224 2.60424,-7.33584c0.0534,-0.12444 0.03531,-0.27614 0.1716,-0.35131c0.21814,-0.12029 1.9585,2.47659 1.90604,2.82451c-0.32832,2.17753 -2.35735,5.35361 0.18057,7.1334c0.12206,0.08559 2.31584,1.1193 2.7004,0.68542c0.18331,-0.20683 2.01227,-1.28619 2.42853,-2.42601c1.22123,-3.34408 1.53495,-9.16366 1.37089,-10.44519c1.16751,2.0328 1.994,4.1444 2.32302,5.28347z" fill="#d90251" stroke="#000000" stroke-width="0" stroke-linecap="butt"/><g><path d="M237.60755,211.03721c0,0 -2.42308,1.53543 -3.28063,1.44826c-0.6489,-0.06596 -1.49433,-1.14622 -2.03834,-1.94923c-0.32778,-0.48384 -0.56277,-0.57982 -0.6218,-0.15764c-0.12948,0.92589 -0.46298,2.50104 -1.27264,3.1196c-1.22929,0.93915 -7.08783,0.30744 -7.40905,0.4453c-3.50363,1.5038 -7.48684,2.94275 -10.8051,3.43335c-1.06072,0.15683 -2.5062,-1.50271 -2.5062,-1.50271c0,0 -3.72585,1.38884 -5.95324,-1.61595c-0.8203,-1.1066 -1.05655,-3.57371 -1.12079,-4.6056c-0.00817,-0.13105 -0.09578,-0.36348 -0.00816,-0.542c0.10697,-0.21795 2.21897,-2.01661 3.00125,-2.08575c4.52447,-0.39989 30.1632,-0.28897 30.1632,-0.28897c0,0 1.36846,0.70397 1.58175,1.41235c0.26086,0.86637 0.26972,2.88898 0.26972,2.88898z" fill="#f38285" stroke="#000000" stroke-width="0" stroke-linecap="round"/><path d="M234.32691,212.48549c-0.64891,-0.06596 -1.49434,-1.14622 -2.03834,-1.94923c-0.32778,-0.48384 -0.56277,-0.57982 -0.6218,-0.15764c-0.12948,0.92589 -0.46298,2.50104 -1.27264,3.1196c-1.22929,0.93915 -7.08782,0.30743 -7.40904,0.4453c-2.02972,0.87118 -4.22039,1.72058 -6.34949,2.37646c0.28915,-0.91803 0.44477,-1.89287 0.44477,-2.90307c0,-2.55279 -0.99364,-4.87977 -2.62515,-6.63478c9.05841,-0.09922 21.30085,-0.04624 21.30085,-0.04624c0,0 1.36846,0.70397 1.58175,1.41235c0.26086,0.86637 0.26972,2.88898 0.26972,2.88898c0,0 -2.42308,1.53544 -3.28063,1.44826z" fill="#e96698" stroke="#000000" stroke-width="0" stroke-linecap="round"/><path d="M237.60755,211.03721c0,0 -2.42308,1.53543 -3.28063,1.44826c-0.6489,-0.06596 -1.49433,-1.14622 -2.03834,-1.94923c-0.32778,-0.48384 -0.56277,-0.57982 -0.6218,-0.15764c-0.12948,0.92589 -0.46298,2.50104 -1.27264,3.1196c-1.22929,0.93915 -7.08783,0.30744 -7.40905,0.4453c-3.50363,1.5038 -7.48684,2.94275 -10.8051,3.43335c-1.06072,0.15683 -2.5062,-1.50271 -2.5062,-1.50271c0,0 -3.72585,1.38884 -5.95324,-1.61595c-0.8203,-1.1066 -1.05655,-3.57371 -1.12079,-4.6056c-0.00817,-0.13105 -0.09578,-0.36348 -0.00816,-0.542c0.10697,-0.21795 2.21897,-2.01661 3.00125,-2.08575c4.52447,-0.39989 30.1632,-0.28897 30.1632,-0.28897c0,0 1.36846,0.70397 1.58175,1.41235c0.26086,0.86637 0.26972,2.88898 0.26972,2.88898z" fill="none" stroke="#000000" stroke-width="1" stroke-linecap="round"/><path d="M215.58946,200.53451l0.62578,-3.75466l9.28237,-2.2325l2.00638,4.25259c0,0 1.26257,-1.34531 3.01503,-1.98038c1.35047,-0.48938 3.20365,0.96829 3.68573,1.19612c1.2937,0.61138 2.24396,1.70702 2.24396,1.70702l0.83438,7.10342c0,0 -2.02949,1.76718 -3.97515,2.1794c-2.70449,0.57298 -10.73857,0.93791 -10.73857,0.93791c0,0 -2.65704,1.9134 -6.15183,2.74325c-3.16015,0.75038 -7.10039,0.46678 -8.66154,-0.24256c-0.46149,-0.20968 -1.9973,-1.17401 -2.59389,-2.41905c-0.78118,-1.63028 -0.47374,-3.74189 0.70452,-5.27086c1.06921,-1.38746 3.31845,-1.27542 5.32228,-1.95524c2.34944,-0.79707 4.40056,-2.26443 4.40056,-2.26443z" fill="#f27056" stroke="#000000" stroke-width="0" stroke-linecap="round"/><path d="M215.58946,200.53451l0.62578,-3.75466l9.28237,-2.2325l0.53402,1.13186c-0.21588,0.93724 -0.44183,3.4225 -0.44183,3.73724c0,0.68305 0.5691,1.23676 1.27111,1.23676c0.6639,0 0.83274,-1.20194 0.83529,-1.23676c0.02252,-0.30679 0.5932,-0.8297 0.7569,-1.44432c0.52698,-0.39882 1.24235,-0.85412 2.06592,-1.15257c1.35047,-0.48938 3.20365,0.96829 3.68573,1.19612c0.47511,0.22454 0.9039,0.51437 1.25631,0.79128c-1.57812,0.9657 -3.47752,3.20198 -4.97791,3.88037c-1.77859,0.80419 -3.71838,0.3956 -5.57352,1.08814c-1.63812,0.61152 -6.8359,3.79239 -9.48499,6.28959c-0.85156,0.34513 -1.4688,1.12791 -1.55503,2.05965c-0.01933,0.07846 -0.02956,0.15346 -0.03013,0.22466c-0.00085,0.10741 0.01281,0.20902 0.039,0.30562c0.01777,0.14023 0.04758,0.27682 0.08842,0.40876c-2.52004,0.20616 -5.0375,-0.08648 -6.2109,-0.61964c-0.46149,-0.20968 -1.9973,-1.17401 -2.59389,-2.41905c-0.78118,-1.63028 -0.47374,-3.74189 0.70452,-5.27086c1.06921,-1.38746 3.31845,-1.27542 5.32228,-1.95524c2.34944,-0.79707 4.40056,-2.26443 4.40056,-2.26443z" fill="#f79d58" stroke="#000000" stroke-width="0" stroke-linecap="round"/><path d="M227.29671,199.59313c0,0 2.80012,-2.93288 4.10387,-2.93288c1.30374,0 4.03124,2.22616 4.03124,2.22616c0,0 -2.00114,2.57952 -3.30489,2.57952c-1.17411,0 -4.83022,-1.87279 -4.83022,-1.87279z" fill="#000000" stroke="none" stroke-width="0.5" stroke-linecap="butt"/><path d="M215.58946,200.53451l0.62577,-3.75466l9.28237,-2.2325l2.00637,4.25258c0,0 1.26258,-1.34531 3.01504,-1.98037c1.35046,-0.48938 3.20365,0.96829 3.68573,1.19612c1.2937,0.61138 2.24396,1.70702 2.24396,1.70702l0.83437,7.10342c0,0 -2.02949,1.76719 -3.97514,2.17941c-2.70449,0.57298 -10.73858,0.93791 -10.73858,0.93791c0,0 -2.65704,1.9134 -6.15183,2.74324c-3.16015,0.75038 -7.10039,0.46678 -8.66154,-0.24255c-0.46149,-0.20969 -1.99729,-1.17401 -2.59389,-2.41905c-0.78118,-1.63028 -0.47374,-3.74189 0.70452,-5.27086c1.0692,-1.38746 3.31845,-1.27542 5.32227,-1.95524c2.34944,-0.79706 4.40056,-2.26443 4.40056,-2.26443z" fill="none" stroke="#000000" stroke-width="1" stroke-linecap="round"/><path d="M223.15729,201.51033c-0.12834,0.8689 -1.87274,1.34284 -3.67522,1.59583c0.69639,0.40324 1.20152,0.73227 1.20152,0.94402c0,0.65801 -2.51988,0.82919 -5.10714,0.81952c0.98596,1.22164 1.79841,2.58748 0.21996,2.58748c-0.55479,0 -1.69715,-1.26663 -2.55158,-2.63869c-1.08291,-0.04151 -2.02591,-0.10075 -2.60293,-0.14951c-0.06729,0.0189 -0.1384,0.02903 -0.21194,0.02903c-0.13789,0 -0.26723,-0.03561 -0.37885,-0.09788c-0.22933,-0.12796 -0.38381,-0.36851 -0.38381,-0.64417c0,-0.38211 0.29683,-0.69676 0.67839,-0.73757c0.53187,-0.36165 1.19925,-0.46607 1.92725,-0.44668c-0.16596,-0.59857 -0.13918,-1.06857 0.19687,-1.2554c0.43261,-0.24052 1.2203,-0.27268 2.17453,-0.23794c-0.75841,-0.74009 -1.51881,-1.71822 -0.88318,-2.30734c0.34253,-0.31746 1.61845,-0.67644 3.11403,-0.9955c0.29582,-0.16252 0.78102,-0.25664 1.35479,-0.26843c2.1376,-0.39476 4.29442,-0.67021 4.64477,-0.61808c0.40162,0.05975 0.76267,0.16482 0.76267,0.74205c0,0.59459 -0.52871,0.98464 -1.30167,1.2391c0.6181,0.59122 0.97622,1.39295 0.82154,2.44017zM221.20816,201.03501c0.35186,-0.14273 -0.49126,-0.58981 -0.60649,-0.94337c-0.07976,-0.24476 -0.23695,-0.45857 -0.43689,-0.63633c-1.69008,0.14141 -3.43171,0.04406 -3.77298,0.06009c-0.24069,0.01131 -0.94256,0.2361 -0.94088,0.302c0.01327,0.51856 0.5226,1.05767 1.21872,1.5749c1.62279,0.09195 3.34228,0.12795 4.53851,-0.35729zM214.7339,203.09711c-0.41102,-0.19031 -0.77359,-0.36705 -0.74034,-0.12711c0.24716,0.04147 0.49475,0.08527 0.74034,0.12711z" fill="#efdee9" stroke="none" stroke-width="0.5" stroke-linecap="butt"/><path d="M223.1573,201.51033c-0.12835,0.8689 -1.87274,1.34284 -3.67522,1.59583c0.69639,0.40324 1.20151,0.73226 1.20151,0.94402c0,0.65801 -2.51988,0.8292 -5.10714,0.81952c0.98596,1.22163 1.79841,2.58748 0.21995,2.58748c-0.5548,0 -1.69714,-1.26662 -2.55158,-2.63869c-1.08291,-0.04151 -2.02591,-0.10075 -2.60293,-0.14952c-0.06729,0.0189 -0.13839,0.02903 -0.21193,0.02903c-0.13789,0 -0.26724,-0.0356 -0.37885,-0.09788c-0.22933,-0.12795 -0.38381,-0.36851 -0.38381,-0.64417c0,-0.38211 0.29683,-0.69677 0.67838,-0.73757c0.53188,-0.36165 1.19926,-0.46607 1.92725,-0.44668c-0.16596,-0.59857 -0.13918,-1.06856 0.19687,-1.2554c0.43261,-0.24052 1.2203,-0.27268 2.17453,-0.23794c-0.75841,-0.74009 -1.51881,-1.71823 -0.88318,-2.30734c0.34253,-0.31746 1.61846,-0.67643 3.11403,-0.9955c0.29582,-0.16252 0.78102,-0.25664 1.35478,-0.26843c2.13759,-0.39475 4.29442,-0.67021 4.64477,-0.61809c0.40163,0.05976 0.76267,0.16482 0.76267,0.74205c0,0.59459 -0.52871,0.98464 -1.30166,1.2391c0.6181,0.59122 0.97622,1.39295 0.82154,2.44017zM221.20817,201.03501c0.35186,-0.14272 -0.49127,-0.58981 -0.60649,-0.94338c-0.07977,-0.24475 -0.23693,-0.45857 -0.43689,-0.63632c-1.69008,0.14141 -3.43171,0.04405 -3.77298,0.06008c-0.24069,0.0113 -0.94257,0.2361 -0.94088,0.302c0.01326,0.51856 0.5226,1.05767 1.21872,1.5749c1.62279,0.09196 3.34228,0.12795 4.53852,-0.35729zM214.73391,203.09711c-0.41102,-0.1903 -0.77359,-0.36705 -0.74034,-0.12711c0.24718,0.04147 0.49476,0.08527 0.74034,0.12711z" fill="none" stroke="#000000" stroke-width="1" stroke-linecap="butt"/></g><g><g stroke="#000000"><path d="M238.88468,206.04025c0,0 1.5836,-1.66832 12.09569,-1.1983c10.2591,0.45872 16.90543,2.22625 16.90543,2.22625l-0.10564,6.63029c0,0 -1.40181,1.49708 -2.18824,2.14241c-0.64818,0.53188 -2.19627,1.45543 -2.19627,1.45543l-1.26782,-0.97656l-0.6339,2.00451c0,0 -4.09712,1.93175 -6.40609,2.2951c-3.03721,0.47795 -7.06438,0.32618 -7.06438,0.32618l-1.37346,-1.54193l-1.00368,1.38774c0,0 -7.16469,-1.27489 -8.25472,-5.95607c-1.08415,-4.65585 1.49308,-8.79505 1.49308,-8.79505z" fill="#f38285" stroke-width="0" stroke-linecap="round"/><path d="M267.8858,207.0682l-0.10564,6.63029c0,0 -1.40181,1.49708 -2.18824,2.14241c-0.64818,0.53188 -2.19627,1.45543 -2.19627,1.45543l-1.26782,-0.97656l-0.6339,2.00451c0,0 -4.09712,1.93175 -6.40609,2.2951c-1.16432,0.18322 -2.4741,0.27391 -3.64672,0.31607c4.55183,-2.92576 8.95693,-4.28688 9.62083,-10.46417c0.1447,-1.3464 0.33154,-3.30621 -0.30028,-4.73406c4.49832,0.63268 7.12413,1.331 7.12413,1.331z" fill="#e96698" stroke-width="0" stroke-linecap="butt"/><path d="M238.88468,206.04025c0,0 1.5836,-1.66832 12.09569,-1.1983c10.2591,0.45872 16.90543,2.22625 16.90543,2.22625l-0.10564,6.63029c0,0 -1.40181,1.49708 -2.18824,2.14241c-0.64818,0.53188 -2.19627,1.45543 -2.19627,1.45543l-1.26782,-0.97656l-0.6339,2.00451c0,0 -4.09712,1.93175 -6.40609,2.2951c-3.03721,0.47795 -7.06438,0.32618 -7.06438,0.32618l-1.37346,-1.54193l-1.00368,1.38774c0,0 -7.16469,-1.27489 -8.25472,-5.95607c-1.08415,-4.65585 1.49308,-8.79505 1.49308,-8.79505z" fill="none" stroke-width="1" stroke-linecap="round"/></g><path d="M241.11893,201.80355c0,0 -0.16385,-1.37658 0.84582,-2.42374c0.8519,-0.88353 2.80818,-1.43911 3.68359,-1.68053c2.42911,-0.6699 5.64059,-0.98206 7.74085,-0.92087c1.06069,0.0309 1.82613,0.99442 2.25774,1.73023c0.26928,0.45908 1.49534,-1.04298 2.50317,-1.16961c0.51893,-0.06521 1.26196,1.38137 1.31211,1.5893c0.27684,1.14771 -0.4727,3.65377 -0.4727,3.65377c0,0 0.56759,0.68266 1.89826,1.26073c1.0569,0.45914 2.81673,0.73255 3.57575,1.39965c1.53203,1.34648 1.85535,4.16923 1.62727,5.11745c-0.24677,1.02586 -4.02911,4.04942 -9.03821,5.6382c-5.0263,1.59423 -11.2841,1.74913 -14.2959,0.12703c-4.23197,-2.27927 -2.03251,-5.57108 -3.80057,-8.22753c-1.0992,-1.6515 -1.84564,-3.64111 -2.03725,-6.0379c-0.17345,-2.16961 1.99964,-1.4835 1.99964,-1.4835l2.20048,1.42734z" fill="#000000" stroke="#000000" stroke-width="0" stroke-linecap="round"/><path d="M241.96474,199.37983c0.8519,-0.88354 2.80817,-1.43912 3.68359,-1.68053c2.42911,-0.6699 5.64059,-0.98206 7.74085,-0.92087c1.06069,0.0309 1.82613,0.99442 2.25774,1.73023c0.12695,0.21643 0.33321,0.06185 0.76237,-0.24389c0.24542,1.37022 1.3576,3.35294 1.79738,3.83622c0.28157,0.30941 0.60625,0.52484 0.95858,0.66037c0.25852,0.24124 0.8118,0.68586 1.72252,1.0815c1.05689,0.45914 2.81672,0.73255 3.57575,1.39965c1.53203,1.34648 1.85535,4.16923 1.62727,5.11745c-0.24677,1.02587 -4.02911,4.04943 -9.03821,5.6382c-5.02629,1.59422 -11.28409,1.74913 -14.2959,0.12703c-4.23198,-2.27927 -2.03251,-5.57108 -3.80057,-8.22753c-0.397,-0.59648 -0.74799,-1.23706 -1.04344,-1.925c1.47343,-0.35158 2.91417,-1.14415 3.54638,-1.89506c1.04143,-1.23695 0.75617,-2.7064 -0.06688,-3.84512c0.12734,-0.28651 0.31041,-0.58068 0.57262,-0.85263z" fill="#f27056" stroke="#000000" stroke-width="0" stroke-linecap="round"/><path d="M241.96474,199.37983c0.8519,-0.88354 2.80817,-1.43912 3.68359,-1.68053c1.96677,-0.54239 4.44645,-0.85027 6.43391,-0.91534c-0.83073,1.78577 -0.31222,5.14828 0.54858,7.22956c0.43101,1.04213 2.6191,1.44713 4.58233,2.23724c1.76436,0.71008 3.34713,1.85597 3.30972,1.94026c-2.28227,5.14168 -10.51219,4.30882 -13.33966,7.0698c-0.55703,0.4413 -0.91826,1.1076 -0.93736,1.85652c-1.37653,-0.17517 -2.58059,-0.50281 -3.48921,-0.99216c-4.23198,-2.27927 -2.03251,-5.57108 -3.80057,-8.22753c-0.397,-0.59648 -0.74799,-1.23706 -1.04344,-1.925c1.47343,-0.35158 2.91417,-1.14415 3.54638,-1.89506c1.04143,-1.23695 0.75617,-2.7064 -0.06688,-3.84512c0.12734,-0.28651 0.31041,-0.58068 0.57262,-0.85263z" fill="#f79d58" stroke="#000000" stroke-width="0" stroke-linecap="butt"/><path d="M241.11893,201.80355c0,0 -0.16385,-1.37658 0.84582,-2.42374c0.8519,-0.88353 2.80818,-1.43911 3.68359,-1.68053c2.42911,-0.6699 5.64059,-0.98206 7.74085,-0.92087c1.06069,0.0309 1.82613,0.99442 2.25774,1.73023c0.26928,0.45908 1.49534,-1.04298 2.50317,-1.16961c0.51893,-0.06521 1.26196,1.38137 1.31211,1.5893c0.27684,1.14771 -0.4727,3.65377 -0.4727,3.65377c0,0 0.56759,0.68266 1.89826,1.26073c1.0569,0.45914 2.81673,0.73255 3.57575,1.39965c1.53203,1.34648 1.85535,4.16923 1.62727,5.11745c-0.24677,1.02586 -4.02911,4.04942 -9.03821,5.6382c-5.0263,1.59423 -11.2841,1.74913 -14.2959,0.12703c-4.23197,-2.27927 -2.03251,-5.57108 -3.80057,-8.22753c-1.0992,-1.6515 -1.84564,-3.64111 -2.03725,-6.0379c-0.17345,-2.16961 1.99964,-1.4835 1.99964,-1.4835l2.20048,1.42734z" fill="none" stroke="#000000" stroke-width="1" stroke-linecap="round"/><g stroke-linecap="butt"><path d="M252.826,200.10606c0.34107,0.66371 -0.34107,0.99557 -0.34107,0.99557l-0.29291,0.14153c0.56905,0.0273 1.13986,0.04722 1.71284,0.04921l0.75745,0.13551c0.11423,0.00087 0.24268,0.03135 0.38472,0.10736c0.01227,0.00657 0.0242,0.01324 0.03579,0.02001c0.11143,0.06164 0.23163,0.15821 0.30218,0.30594c0.07247,0.14685 0.07279,0.29851 0.05096,0.42141c-0.00199,0.013 -0.00427,0.0262 -0.00685,0.0396c-0.03121,0.16193 -0.09242,0.28116 -0.1688,0.36868c-0.54877,0.9059 -1.19721,1.58054 -1.9076,2.12199c0.45448,0.02083 0.90941,0.04316 1.3651,0.06682c0.13401,-0.02327 0.29029,-0.00715 0.46411,0.08528c0.13063,0.05687 0.27185,0.15533 0.35252,0.32532c0.09136,0.16478 0.08758,0.33379 0.05596,0.46958c-0.03552,0.23951 -0.15339,0.38533 -0.28786,0.47398l-0.31428,0.35699c-0.31988,0.16722 -0.63285,0.34322 -0.9406,0.52573c0.7911,-0.05431 1.57177,-0.12626 2.33332,-0.21929l0.72629,-0.10107c0,0 0.75501,-0.10495 0.86286,0.62965c0.10786,0.73459 -0.64715,0.83953 -0.64715,0.83953l-0.75281,0.10452c-1.59689,0.1934 -3.2786,0.29851 -4.96607,0.34385c-1.52023,1.0467 -3.02498,2.1002 -4.75401,2.83772c0,0 -0.69872,0.29743 -1.00441,-0.3824c-0.30569,-0.67984 0.39303,-0.97726 0.39303,-0.97726c0.94786,-0.40259 1.82993,-0.90564 2.68552,-1.4521c-0.91356,-0.0055 -1.8163,-0.02435 -2.69531,-0.05186c-0.14931,0.02808 -0.32481,0.01274 -0.50568,-0.10678c-0.12953,-0.06725 -0.25833,-0.17843 -0.32246,-0.3621c-0.08213,-0.17676 -0.06613,-0.34356 -0.01876,-0.47877c0.04987,-0.21484 0.17394,-0.34429 0.30801,-0.42226l0.07242,-0.06691c0.61077,-0.4546 1.26923,-0.8103 1.94398,-1.12591c-0.59697,-0.00725 -1.19537,-0.01096 -1.79593,-0.01096h-0.32314c-0.15698,0.02867 -0.34569,0.0152 -0.52811,-0.11779c-0.12658,-0.07271 -0.24609,-0.1903 -0.30159,-0.38049c-0.0762,-0.18328 -0.05606,-0.34749 -0.00202,-0.48049c0.05999,-0.21358 0.20008,-0.3369 0.34185,-0.40809c0.94325,-0.71846 1.80084,-1.46157 2.67147,-2.18307c-1.05351,0.01299 -2.10382,0.10589 -3.15259,0.36112c0,0 -0.7399,0.17997 -0.92487,-0.53992c-0.18497,-0.71989 0.55492,-0.89987 0.55492,-0.89987c1.78565,-0.43411 3.56937,-0.44121 5.36448,-0.36071c0.54358,-0.38959 1.11444,-0.76116 1.732,-1.10561l0.45992,-0.22502c0,0 0.68215,-0.33186 1.02322,0.33186zM250.86984,204.71471c0.9369,-0.48189 1.80565,-1.07166 2.51191,-1.9461c-1.10851,-0.01278 -2.21046,-0.09591 -3.30768,-0.15767c-0.86233,0.64542 -1.65778,1.33504 -2.48362,2.02928c1.09643,0.01317 2.18818,0.03871 3.27939,0.07449zM248.63443,207.25429c0.8277,0.00808 1.66534,0.00545 2.50307,-0.01183c0.48251,-0.33269 0.96766,-0.6632 1.4629,-0.98072c-0.55439,-0.02385 -1.10826,-0.04499 -1.66223,-0.06327c-0.75871,0.35068 -1.53737,0.67466 -2.30374,1.05582z" fill="#efdee9" stroke="none" stroke-width="0.5"/><path d="M252.826,200.10606c0.34107,0.66371 -0.34107,0.99557 -0.34107,0.99557l-0.29291,0.14153c0.56905,0.0273 1.13986,0.04722 1.71284,0.04921l0.75745,0.13551c0.11423,0.00087 0.24268,0.03135 0.38472,0.10736c0.01227,0.00657 0.0242,0.01324 0.03579,0.02001c0.11143,0.06164 0.23163,0.15821 0.30218,0.30594c0.07247,0.14685 0.07279,0.29851 0.05096,0.42141c-0.00199,0.013 -0.00427,0.0262 -0.00685,0.0396c-0.03121,0.16193 -0.09242,0.28116 -0.1688,0.36868c-0.54877,0.9059 -1.19721,1.58054 -1.9076,2.12199c0.45448,0.02083 0.90941,0.04316 1.3651,0.06682c0.13401,-0.02327 0.29029,-0.00715 0.46411,0.08528c0.13063,0.05687 0.27185,0.15533 0.35252,0.32532c0.09136,0.16478 0.08758,0.33379 0.05596,0.46958c-0.03552,0.23951 -0.15339,0.38533 -0.28786,0.47398l-0.31428,0.35699c-0.31988,0.16722 -0.63285,0.34322 -0.9406,0.52573c0.7911,-0.05431 1.57177,-0.12626 2.33332,-0.21929l0.72629,-0.10107c0,0 0.75501,-0.10495 0.86286,0.62965c0.10786,0.73459 -0.64715,0.83953 -0.64715,0.83953l-0.75281,0.10452c-1.59689,0.1934 -3.2786,0.29851 -4.96607,0.34385c-1.52023,1.0467 -3.02498,2.1002 -4.75401,2.83772c0,0 -0.69872,0.29743 -1.00441,-0.3824c-0.30569,-0.67984 0.39303,-0.97726 0.39303,-0.97726c0.94786,-0.40259 1.82993,-0.90564 2.68552,-1.4521c-0.91356,-0.0055 -1.8163,-0.02435 -2.69531,-0.05186c-0.14931,0.02808 -0.32481,0.01274 -0.50568,-0.10678c-0.12953,-0.06725 -0.25833,-0.17843 -0.32246,-0.3621c-0.08213,-0.17676 -0.06613,-0.34356 -0.01876,-0.47877c0.04987,-0.21484 0.17394,-0.34429 0.30801,-0.42226l0.07242,-0.06691c0.61077,-0.4546 1.26923,-0.8103 1.94398,-1.12591c-0.59697,-0.00725 -1.19537,-0.01096 -1.79593,-0.01096h-0.32314c-0.15698,0.02867 -0.34569,0.0152 -0.52811,-0.11779c-0.12658,-0.07271 -0.24609,-0.1903 -0.30159,-0.38049c-0.0762,-0.18328 -0.05606,-0.34749 -0.00202,-0.48049c0.05999,-0.21358 0.20008,-0.3369 0.34185,-0.40809c0.94325,-0.71846 1.80084,-1.46157 2.67147,-2.18307c-1.05351,0.01299 -2.10382,0.10589 -3.15259,0.36112c0,0 -0.7399,0.17997 -0.92487,-0.53992c-0.18497,-0.71989 0.55492,-0.89987 0.55492,-0.89987c1.78565,-0.43411 3.56937,-0.44121 5.36448,-0.36071c0.54358,-0.38959 1.11444,-0.76116 1.732,-1.10561l0.45992,-0.22502c0,0 0.68215,-0.33186 1.02322,0.33186zM250.86984,204.71471c0.9369,-0.48189 1.80565,-1.07166 2.51191,-1.9461c-1.10851,-0.01278 -2.21046,-0.09591 -3.30768,-0.15767c-0.86233,0.64542 -1.65778,1.33504 -2.48362,2.02928c1.09643,0.01317 2.18818,0.03871 3.27939,0.07449zM248.63443,207.25429c0.8277,0.00808 1.66534,0.00545 2.50307,-0.01183c0.48251,-0.33269 0.96766,-0.6632 1.4629,-0.98072c-0.55439,-0.02385 -1.10826,-0.04499 -1.66223,-0.06327c-0.75871,0.35068 -1.53737,0.67466 -2.30374,1.05582z" fill="none" stroke="#000000" stroke-width="1"/></g></g><path d="M227.63288,185.76162l6.65599,-4.77998l-1.00368,-5.75653c0,0 6.8797,-2.56928 8.96261,-3.23879c1.00551,-0.3232 2.87028,-0.56464 2.87028,-0.56464c0,0 4.73187,1.36248 8.05772,4.69881c2.47411,2.48191 4.30862,6.87052 4.84095,8.71343c0.25518,0.88342 -0.59908,3.14696 -1.05007,4.94045c-0.35737,1.42114 -0.20599,2.37501 -0.85006,3.32652c-1.49354,2.20652 -3.55016,2.01509 -3.55016,2.01509c0,0 -1.45493,0.13212 -2.07909,-0.03661c-0.81131,-0.21931 -2.37625,-1.16778 -2.37625,-1.16778c0,0 -13.87278,-1.25443 -16.85357,-2.37274c-3.41539,-1.28136 -3.62466,-5.77724 -3.62466,-5.77724z" fill="none" stroke="#000000" stroke-width="1" stroke-linecap="round"/><path d="M256.26424,192.80308l1.10933,-4.31739l2.53562,2.1587l-2.16584,2.98107z" fill="#feecf7" stroke="#000000" stroke-width="1" stroke-linecap="round"/><path d="M239.72988,177.84638l0.21131,5.49955c0,0 -3.77492,1.95508 -4.75434,2.47568c-0.43799,0.23281 -0.96836,0.84154 -0.98549,1.16922c-0.04884,0.93467 -0.28226,5.40108 -0.28226,5.40108" fill="none" stroke="#000000" stroke-width="1" stroke-linecap="round"/><path d="M246.91413,181.18723c0,0 1.41452,2.18192 1.78959,2.76047c0.17198,0.26528 0.30754,0.79209 0.23095,1.02807c-0.28933,0.89143 -2.07336,6.38819 -2.07336,6.38819" fill="none" stroke="#000000" stroke-width="1" stroke-linecap="round"/><path d="M231.6476,187.9203l2.53561,3.34084l3.01105,-1.38774l3.1167,2.26149l3.64494,-3.03245l1.84889,2.00451l1.42629,-1.74752l0.89803,4.06041l-2.11301,2.00451l-3.11669,-0.87376l-2.32432,2.46709l-3.43365,-2.56988l-4.06755,2.0559l-2.74692,-2.36429l-2.27149,0.71956c0,0 -1.03289,-2.09037 -1.96214,-2.72004c-1.03208,-0.69935 -3.9543,-1.28897 -3.9543,-1.28897c0,0 1.41758,-1.40141 1.47284,-2.20014c0.06607,-0.95498 -1.10306,-3.14522 -1.10306,-3.14522l3.43365,0.30839l1.63759,-1.18214l0.89803,3.95762z" fill="#feecf7" stroke="#000000" stroke-width="1" stroke-linecap="round"/><g stroke="#000000" stroke-width="1" stroke-linecap="round"><path d="M231.06653,182.11239l-0.36978,-6.88728l13.89307,-1.74752l3.11669,-3.70063l3.85625,2.82688l6.18057,-2.56989l-0.26413,8.22362l-3.1167,-0.41118l-3.22235,2.41569l-2.95822,-1.79892l-3.69778,3.54643l-1.10932,-2.56988l-3.328,2.87827l-2.37714,-2.2101l-1.79606,2.0559l-2.27149,-1.74752z" fill="#feecf7"/><path d="M244.37852,173.88876l-0.79238,0.92516" fill="none"/></g><g stroke="#000000" stroke-linecap="round"><path d="M246.33306,195.42435l1.47911,-1.9531c0,0 1.74468,1.90372 4.38613,1.81786c3.62006,-0.11767 4.4357,-2.53743 4.4357,-2.53743c0,0 2.55722,2.33176 2.03575,3.63114c-0.39282,0.97885 -3.961,6.85081 -6.26325,6.97457c-2.13961,0.02172 -5.65085,-5.92852 -5.65085,-5.92852z" fill="#4ea5eb" stroke-width="0"/><path d="M247.81217,193.47126c0,0 1.74468,1.90372 4.38613,1.81786c3.62006,-0.11767 4.4357,-2.53743 4.4357,-2.53743c0,0 2.55722,2.33175 2.03575,3.63114c-0.35199,0.87705 -3.25318,5.68238 -5.50888,6.76141c0.14853,-0.59554 0.67916,-5.256 0.67916,-5.256c0,0 -3.37231,-1.55589 -4.63538,-2.41816c-0.54836,-0.37435 -0.98159,-1.18494 -1.4408,-1.93503z" fill="#2e67e5" stroke-width="0"/><path d="M246.33305,195.42437l1.47911,-1.9531c0,0 1.74468,1.90372 4.38613,1.81786c3.62006,-0.11767 4.4357,-2.53743 4.4357,-2.53743c0,0 2.55722,2.33175 2.03575,3.63114c-0.39283,0.97885 -3.961,6.85081 -6.26325,6.97457c-2.13961,0.02172 -5.65084,-5.92852 -5.65084,-5.92852" fill="none" stroke-width="1"/></g></g><path d="M192.06803,227.93197v-95.86394h95.86394v95.86394z" fill="none" stroke="none" stroke-width="0" stroke-linecap="butt"/><g stroke="#000000"><g stroke-linecap="butt"><path d="M263.94966,169.50482l0.46305,-2.29624c0,0 9.02107,-1.34304 11.11091,-0.41686c1.46709,0.65019 1.68409,4.90726 -0.89828,5.57274c-3.43897,0.88623 -10.67567,-2.85965 -10.67567,-2.85965z" fill="#0066cd" stroke-width="0"/><path d="M263.94967,169.50482l0.16435,-0.81498c0,0 2.0594,0.08393 4.10706,0.35342c1.58265,0.2083 2.97068,0.58084 4.57009,0.77699c1.90225,0.23332 3.7272,0.31424 3.70847,0.39762c-0.22219,0.98945 -0.81088,1.87252 -1.87428,2.14657c-3.43897,0.88624 -10.67568,-2.85965 -10.67568,-2.85965z" fill="#061483" stroke-width="0"/><path d="M263.94967,169.50482l0.46305,-2.29624c0,0 9.02107,-1.34303 11.11091,-0.41685c1.4671,0.65019 1.68409,4.90726 -0.89828,5.57274c-3.43897,0.88624 -10.67568,-2.85965 -10.67568,-2.85965z" fill="none" stroke-width="1"/></g><g stroke-linecap="round"><path d="M224.81866,176.05756c0,0 -10.63972,-23.85862 12.08598,-25.71789c23.30157,-1.9064 21.1927,18.9824 21.1927,18.9824c0,0 5.60351,-5.52653 6.56297,-5.06913c0.80984,0.38609 0.03618,5.46136 -0.58249,7.43464c-0.45716,1.45812 -0.98085,4.56308 -2.33621,4.88094c-0.8531,0.20006 -4.70469,-2.26484 -4.70469,-2.26484c0,0 -7.00316,4.90018 -13.65532,6.92832c-6.5689,2.00275 -16.26845,1.92331 -16.26845,1.92331c0,0 -7.21255,-0.09875 -7.6337,-2.53437c-0.35885,-2.07534 5.3392,-4.56336 5.3392,-4.56336z" fill="#fde0be" stroke-width="0"/><path d="M253.13754,176.75682c-0.03235,0.01883 -1.48533,-1.96152 -1.48533,-1.96152l-2.93784,2.86055l-5.53371,-6.74241l-6.40867,4.95321l-1.58141,-6.40533c0,0 -11.1386,4.57684 -11.14859,4.54731c-1.97145,-5.82238 -5.77531,-22.14412 12.86262,-23.66898c23.30157,-1.9064 21.1927,18.9824 21.1927,18.9824c0,0 5.61226,3.70323 5.56681,3.87c-0.39942,1.46601 -0.94442,3.14706 -1.92256,3.37646c-0.8531,0.20006 -4.70469,-2.26484 -4.70469,-2.26484c0,0 -1.55669,1.08922 -3.89934,2.45315z" fill="#fc988a" stroke-width="0"/><path d="M258.63285,170.75792l2.92561,-1.70051l-0.67723,5.06319z" fill="#f79587" stroke-width="0.5"/><path d="M236.9046,150.33968c23.30157,-1.9064 21.1927,18.9824 21.1927,18.9824c0,0 5.60351,-5.52653 6.56297,-5.06913c0.80984,0.38609 0.03618,5.46136 -0.58249,7.43464c-0.45716,1.45812 -0.98085,4.56308 -2.33621,4.88094c-0.8531,0.20006 -4.70469,-2.26484 -4.70469,-2.26484c0,0 -7.00316,4.90018 -13.65532,6.92832c-6.5689,2.00275 -16.26845,1.92331 -16.26845,1.92331c0,0 -7.21255,-0.09875 -7.6337,-2.53437c-0.35885,-2.07534 5.3392,-4.56336 5.3392,-4.56336c0,0 -10.63971,-23.85861 12.08599,-25.71788z" fill="none" stroke-width="1"/></g><g stroke-linecap="round"><path d="M263.52343,161.53721c0,0 -1.52853,3.5874 -2.49716,5.08633c-0.83645,1.29436 -2.9765,3.3839 -2.9765,3.3839c0,0 -11.24763,-3.98067 -18.76812,-4.11051c-7.68165,-0.13262 -17.41485,1.65204 -17.41485,1.65204c0,0 -5.3843,-17.42259 -2.05966,-20.44388c2.42083,-2.19996 9.76564,-4.78813 17.15017,-4.93866c3.36567,-0.06861 12.99543,-0.16374 16.39712,2.58115c4.55917,3.67889 10.16901,16.7896 10.16901,16.7896z" fill="#ff292e" stroke-width="0"/><path d="M263.52343,161.53721c0,0 -1.52853,3.58741 -2.49716,5.08633c-0.83645,1.29436 -2.97649,3.3839 -2.97649,3.3839c0,0 -5.44693,-1.92773 -11.29424,-3.14395c-0.15307,-0.03184 0.98908,-14.26904 3.37674,-20.07587c0.79065,-1.92289 2.37593,-2.72289 3.22215,-2.04004c4.55917,3.6789 10.16901,16.78961 10.16901,16.78961z" fill="#ac0e49" stroke-width="0.5"/><path d="M261.02625,166.62355c-0.83645,1.29436 -2.97649,3.3839 -2.97649,3.3839c0,0 -11.24763,-3.98067 -18.76812,-4.1105c-7.68165,-0.13262 -17.41484,1.65204 -17.41484,1.65204c0,0 -5.3843,-17.4226 -2.05966,-20.44388c2.42084,-2.19996 9.76564,-4.78813 17.15017,-4.93866c3.36567,-0.06861 12.99542,-0.16375 16.3971,2.58114c4.55917,3.6789 10.16901,16.78961 10.16901,16.78961c0,0 -1.52853,3.5874 -2.49716,5.08632z" fill="none" stroke-width="1"/></g><g stroke-linecap="round"><path d="M223.24124,173.11809c0,0 -3.72848,1.35005 -5.40625,2.19856c-1.70347,0.86152 -4.73868,2.93218 -4.73868,2.93218c0,0 1.18288,-4.01222 2.06108,-5.85653c0.834,-1.75152 3.08234,-4.94536 3.08234,-4.94536l-9.41081,1.68193c0,0 7.38935,-13.56746 10.79246,-15.49338c2.02966,-1.14863 10.49315,3.00042 10.49315,3.00042c0,0 0.96756,-2.8059 1.70484,-4.1449c0.67139,-1.21931 2.53973,-3.56371 2.53973,-3.56371c0,0 2.18016,5.92813 3.53645,8.76515c1.41295,2.95547 4.77831,8.62684 4.77831,8.62684l15.08179,3.29054l-0.60646,6.80067l-6.35583,-5.51883l-2.1977,3.73811l-5.9218,-8.3105l-4.46768,4.61683l-1.67585,-4.92317c0,0 -10.65427,3.79175 -12.97071,5.26591c-0.63145,0.40184 -0.31835,1.83928 -0.31835,1.83928z" fill="#4fa6ec" stroke-width="0"/><path d="M225.33284,163.60021l-12.23654,14.64863c0,0 1.18288,-4.01222 2.06107,-5.85653c0.83399,-1.75152 3.08234,-4.94536 3.08234,-4.94536l-9.4108,1.68192c0,0 7.38934,-13.56746 10.79246,-15.49338c2.02965,-1.14864 10.49316,3.00042 10.49316,3.00042c0,0 0.96755,-2.8059 1.70483,-4.1449c0.67139,-1.21931 2.53973,-3.5637 2.53973,-3.5637l-1.19425,12.05145c0,0 -9.44913,-3.39976 -11.60065,-2.84143c-3.37673,0.87626 -7.42164,8.35373 -7.42164,8.35373z" fill="#66ffff" stroke-width="0"/><path d="M248.00481,169.07453l-0.24966,4.37569l-3.58814,-5.03549z" fill="#66ffff" stroke-width="0"/><path d="M213.09632,178.24886c0,0 1.18288,-4.01222 2.06107,-5.85653c0.83399,-1.75152 3.08234,-4.94536 3.08234,-4.94536l-9.4108,1.68192c0,0 7.38934,-13.56746 10.79246,-15.49338c2.02965,-1.14864 10.49316,3.00042 10.49316,3.00042c0,0 0.96755,-2.8059 1.70483,-4.1449c0.67139,-1.21931 2.53973,-3.5637 2.53973,-3.5637c0,0 2.18013,5.92812 3.53643,8.76514c1.41295,2.95548 4.77831,8.62684 4.77831,8.62684l15.08179,3.29054l-0.60646,6.80067l-6.35583,-5.51882l-2.19771,3.73811l-5.92181,-8.3105l-4.46769,4.61683l-1.67585,-4.92317c0,0 -10.65427,3.79175 -12.97071,5.26591c-0.63145,0.40184 -0.31835,1.83928 -0.31835,1.83928c0,0 -3.72846,1.35005 -5.40624,2.19856c-1.67779,0.84854 -4.73868,2.93215 -4.73868,2.93215z" fill="none" stroke-width="1"/></g></g><g><path d="M222.16104,157.74523c0,0 3.17004,5.20521 6.37727,8.36554c2.34926,2.31491 7.61859,6.33025 7.61859,6.33025c0,0 2.2423,-2.14078 4.71249,-4.88423c3.07808,-3.4186 6.66889,-7.73916 8.56182,-9.62669c2.15134,-2.14524 5.22244,-3.93325 5.22244,-3.93325c0,0 -7.54418,8.82008 -10.79736,12.45848c-0.07397,0.08273 -0.61956,2.3216 -0.88865,4.53364c-0.28022,2.30371 -0.2996,4.58269 -1.17936,4.59215c-2.51721,0.02711 -2.4058,-4.30882 -2.97606,-3.71007c-1.21172,1.27223 -2.09897,2.19052 -2.09897,2.19052c0,0 -1.4948,-0.71071 -3.52938,-2.12045c-0.03731,-0.02584 -0.04581,0.81498 0.0355,1.85555c0.10721,1.37224 0.22644,3.03896 -0.7873,2.99911c-0.97661,-0.03837 -2.00655,-1.62997 -2.57803,-3.64166c-0.57748,-2.03281 -0.69184,-4.48616 -0.77184,-4.56341c-4.797,-4.63075 -6.9211,-10.84545 -6.9211,-10.84545z" fill="#000000" stroke="#000000" stroke-width="0" stroke-linecap="round"/><path d="M246.05149,175.04475c-0.7896,1.25168 -1.79365,2.12509 -2.91418,2.91759c1.39273,-0.17614 2.80011,-0.48615 3.66398,-1.19882c0.63618,-0.52484 0.88237,-1.5219 1.18545,-2.3782c-0.59682,0.08052 -1.21226,0.19117 -1.82578,0.27916zM233.75226,178.39886c0,0 4.68242,-0.25878 6.56297,-0.15877c0.14579,-0.01696 0.29941,-0.03271 0.45951,-0.04799c1.56548,-1.01172 3.02646,-1.88469 4.10014,-3.39384c-0.23284,0.01162 -1.35097,-0.94052 -1.35097,-0.94052c0,0 3.45184,-0.48523 4.73707,-0.6257l0.48985,0.02453c0.09674,-0.01734 0.20973,-0.00572 0.33635,0.06106c0.09545,0.04152 0.19961,0.11396 0.26033,0.24004c0.06785,0.1224 0.0668,0.24927 0.04556,0.35118c-0.01861,0.1417 -0.07421,0.24057 -0.1441,0.30949c-0.62916,1.03714 -0.73117,2.54713 -1.72327,3.39282c-1.68059,1.43257 -5.07451,1.5136 -7.17768,1.74349c-0.8152,-0.04336 -2.88201,-0.01781 -4.1393,-0.17405c-1.65214,-0.20531 -2.45648,-0.78175 -2.45648,-0.78175z" fill="#000000" stroke="none" stroke-width="0.5" stroke-linecap="butt"/><path d="M246.18151,174.61268c0.61352,-0.08801 1.25326,-0.17991 1.85008,-0.26044c-0.30308,0.8563 -0.54377,1.9104 -1.17997,2.43525c-0.86386,0.71267 -2.36646,1.03182 -3.75919,1.20794c1.12054,-0.79249 2.19164,-1.75016 2.98122,-3.00185z" data-paper-data="{&quot;noHover&quot;:false,&quot;origItem&quot;:[&quot;Path&quot;,{&quot;applyMatrix&quot;:true,&quot;segments&quot;:[[[815.6142,327.59136],[0,0],[-1.65831,2.07269]],[[809.83498,332.20743],[2.15617,-1.1879],[2.51774,-0.03472]],[[816.60604,330.80527],[-1.68264,1.09707],[1.23918,-0.80793]],[[819.1958,326.80402],[-0.7119,1.46551],[-1.07993,0.02386]],[[815.88553,326.93555],[1.1112,-0.03384],[0,0]]],&quot;closed&quot;:true}]}" fill="#ffffff" stroke="none" stroke-width="0.5" stroke-linecap="butt"/></g><path d="M248.24337,173.58998l1.04185,3.00041l8.48363,-3.27318l-1.78603,3.75052l2.82788,2.25031l-4.91157,-0.06819l-1.78603,1.43201l-3.57205,-1.43201l-4.46507,3.68233l-0.66976,-2.65946c0,0 1.73369,-2.83999 2.59496,-4.02985c0.72897,-1.0071 2.24221,-2.65289 2.24221,-2.65289z" fill="#feecf7" stroke="#000000" stroke-width="1" stroke-linecap="round"/></g></g></svg>