<svg version="1.1" xmlns="http://www.w3.org/2000/svg" xmlns:xlink="http://www.w3.org/1999/xlink" width="210" height="221" viewBox="0,0,210,221"><g transform="translate(-140,-90)"><g data-paper-data="{&quot;isPaintingLayer&quot;:true}" fill-rule="nonzero" stroke-linejoin="miter" stroke-miterlimit="10" stroke-dasharray="" stroke-dashoffset="0" style="mix-blend-mode: normal"><path d="M140,311v-221h210v221z" fill="none" stroke="none" stroke-width="0" stroke-linecap="butt"/><g data-paper-data="{&quot;index&quot;:null}" stroke="#000000" stroke-linecap="round"><path d="M260.93752,194.10156c0,0 16.2316,-1.59725 16.21325,5.02736c-0.04977,17.98052 -28.27891,12.06568 -28.27891,12.06568z" data-paper-data="{&quot;origPos&quot;:null}" fill="#7c7c7c" stroke-width="2"/><path d="M260.18344,195.60979c0,0 11.78117,-0.56333 12.44273,1.38252c0.20864,0.61371 -15.71052,2.51368 -15.71052,2.51368z" data-paper-data="{&quot;origPos&quot;:null}" fill="#0a0a0a" stroke-width="1"/></g><g><path d="M264.43757,243.03642c0,0 1.7519,15.68196 -0.43369,16.09129c-6.5568,1.22808 -23.97849,1.39873 -38.79984,2.27054c-1.66498,0.09794 -2.30045,-14.84849 -2.30045,-14.84849l-0.02084,-30.67992c0,0 0.5233,-13.58758 2.04955,-13.67735c9.87286,-0.58073 24.5897,-2.3786 31.14754,-1.11792c2.18595,0.42023 4.96982,14.69077 4.96982,14.69077z" data-paper-data="{&quot;origPos&quot;:null}" fill="#7c7c7c" stroke="#000000" stroke-width="3.5" stroke-linecap="round"/><path d="M231.48591,225.38339c-1.28944,0.07585 -1.43551,-2.40736 -1.43551,-2.40736c-0.30294,-5.15037 -0.70329,-11.95618 -1.00623,-17.10653c0,0 -0.14605,-2.48321 1.14338,-2.55905c1.28944,-0.07585 1.4355,2.40736 1.4355,2.40736c0.30294,5.15037 0.60591,10.3007 0.90885,15.45107l0.09738,1.65548c0,0 0.14606,2.48321 -1.14337,2.55905z" fill="#ffffff" stroke="none" stroke-width="0.5" stroke-linecap="butt"/><path d="M243.8371,231.00116c-1.28944,0.07585 -1.47294,-3.04376 -1.47294,-3.04376c-0.3806,-6.4703 -0.88351,-15.02032 -1.26411,-21.49063c0,0 -0.18349,-3.11961 1.10594,-3.19545c1.28944,-0.07585 1.47293,3.04376 1.47293,3.04376c0.3806,6.4703 0.76117,12.94059 1.14177,19.4109l0.12234,2.07974c0,0 0.1835,3.11961 -1.10593,3.19545z" fill="#ffffff" stroke="none" stroke-width="0.5" stroke-linecap="butt"/></g><g fill="none" stroke="#b9b9b9" stroke-width="3"><path d="M254.39468,206.21998c-0.82753,-1.35809 0.08589,-2.57767 1.30884,-3.7957c1.22296,-1.21801 2.45037,-1.58994 3.11989,-0.61516c1.41955,2.06682 -0.06978,3.04234 -1.0274,3.99608c-1.22297,1.21803 -2.23265,2.33277 -3.40133,0.41479z" stroke-linecap="butt"/><path d="M252.78898,208.14868l2.58997,-2.51944" stroke-linecap="round"/><path d="M249.24248,208.77801c1.22296,-1.21801 2.45037,-1.58994 3.11989,-0.61516c1.41955,2.06682 -0.06978,3.04234 -1.0274,3.99608c-1.22296,1.21802 -2.23264,2.33277 -3.40132,0.41479c-0.82753,-1.35809 0.08588,-2.57767 1.30883,-3.79571z" stroke-linecap="butt"/><path d="M248.91789,211.98296l-2.58997,2.51946" stroke-linecap="round"/><path d="M240.70565,214.05014c0.40066,-1.63508 1.7387,-1.48046 3.25851,-1.02164c1.51981,0.45883 2.48819,1.43557 2.24522,2.68318c-0.51516,2.64527 -2.03348,1.77826 -3.22353,1.41899c-1.51981,-0.45882 -2.84605,-0.77137 -2.2802,-3.08052z" stroke-linecap="butt"/><path d="M238.49443,213.6477l3.1793,1.00816" stroke-linecap="round"/><path d="M233.50593,209.67439c0.893,-1.31672 2.06779,-0.52961 3.31104,0.62589c1.24326,1.1555 1.81512,2.52367 1.19118,3.55857c-1.32294,2.19428 -2.43342,0.66261 -3.40694,-0.24218c-1.24325,-1.15551 -2.3564,-2.08274 -1.09528,-3.94227z" stroke-linecap="butt"/><path d="M231.61175,208.23799l2.58519,2.46183" stroke-linecap="round"/><path d="M227.00223,203.54975c0.893,-1.3167 2.0678,-0.52961 3.31104,0.62589c1.24326,1.1555 1.81512,2.52367 1.19118,3.55857c-1.32294,2.19427 -2.43342,0.66261 -3.40693,-0.24218c-1.24325,-1.1555 -2.3564,-2.08273 -1.09528,-3.94227z" stroke-linecap="butt"/><path d="M227.69327,204.57519l-2.58521,-2.46183" stroke-linecap="round"/></g><path d="M279.30698,253.91771c0,0 4.36261,-1.02642 6.59769,-0.26656c1.71105,0.58168 2.36541,2.38846 2.87475,4.12242c1.39803,4.7595 0.14776,9.61376 0.42148,17.32516c0.07454,2.10025 -2.9719,3.39358 -5.07256,3.33199c-1.96473,-0.05762 -5.37653,-0.27815 -5.37653,-0.27815l-33.06388,-1.70473c0,0 -4.27348,-0.36046 -5.09926,-2.06162c-1.98861,-4.09672 -0.70456,-8.62555 -1.12247,-13.16021c-0.14163,-1.53674 4.64985,-1.83404 4.64985,-1.83404c0,0 8.8983,-1.38422 14.59369,-2.27018c8.03835,-1.25044 20.59726,-3.20407 20.59726,-3.20407z" data-paper-data="{&quot;index&quot;:null}" fill="#171717" stroke="#000000" stroke-width="3" stroke-linecap="round"/><path d="M240.53179,265.47173c0,0 2.03836,3.99136 1.83413,6.34323c-0.15632,1.80045 -1.75461,2.86727 -3.31681,3.77589c-4.28805,2.49399 -9.30043,2.43889 -16.72345,4.54589c-2.02171,0.57384 -4.00501,-2.07569 -4.44676,-4.1303c-0.41315,-1.92166 -1.01361,-5.28744 -1.01361,-5.28744l-6.23898,-32.51463c0,0 -0.67031,-4.23595 0.78448,-5.44402c3.50343,-2.90924 8.20786,-2.74364 12.51159,-4.23217c1.45848,-0.50445 2.89121,4.07747 2.89121,4.07747c0,0 3.46876,8.31044 5.68895,13.62958c3.13353,7.50731 8.02925,19.23654 8.02925,19.23654z" data-paper-data="{&quot;index&quot;:null}" fill="#171717" stroke="#000000" stroke-width="3" stroke-linecap="round"/><path d="M220.53071,199.15816c0,0 -1.80899,-4.20208 -1.90229,-5.28362c-0.27992,-3.24463 -0.5764,-17.43026 -0.80172,-30.25212c-0.03486,-1.98323 1.52761,-5.11017 1.52761,-5.11017c0,0 2.17335,-1.66638 3.43475,-1.69544c13.91692,-0.32065 27.13994,-1.71893 32.32807,-0.26232c1.72938,0.48553 4.90745,2.16731 4.90745,2.16731c0,0 0.78785,4.38222 0.9419,5.51088c0.05134,0.37621 0.08127,0.58795 0.11012,0.96656c0.86427,11.34407 0.64917,24.49269 0.35819,29.0885c-0.09699,1.53194 -1.87103,3.95345 -1.87103,3.95345c0,0 -1.33916,2.75113 -5.72401,3.63734c-4.79779,0.96965 -16.51775,0.80301 -28.60302,0.59392z" fill="#582700" stroke="#000000" stroke-width="2.5" stroke-linecap="round"/><g data-paper-data="{&quot;index&quot;:null}"><g data-paper-data="{&quot;origRot&quot;:0}" stroke="#000000" stroke-width="3" stroke-linecap="round"><path d="M260.71266,254.30607c-0.07103,2.45178 -9.31965,0.54875 -9.31965,0.54875c0,0 -24.60274,-4.38872 -36.2312,-6.41505c-4.76341,-1.53155 -4.79333,-40.5601 -0.44787,-44.60528c1.93705,-1.8032 12.4144,-3.53761 13.953,-2.07515c2.92865,2.78366 7.7449,19.14259 7.7449,19.14259l-4.48691,0.01209l11.76155,1.03455c0,0 13.77625,0.06899 19.54912,1.62355c3.20169,0.86217 -2.52296,30.73397 -2.52296,30.73397z" data-paper-data="{&quot;origPos&quot;:null}" fill="#582700"/><path d="M252.38243,223.0584l-2.25948,29.97011" fill="none"/><path d="M245.80954,252.91594l1.95294,-29.99853" data-paper-data="{&quot;origPos&quot;:null}" fill="none"/></g><path d="M249.88541,253.63225l-3.01114,-0.26154l2.10476,-30.67492l3.01115,0.26154z" fill="#ffffff" stroke="none" stroke-width="0" stroke-linecap="butt"/><path d="M214.8407,248.56811l-2.86528,-10.86881l0.46431,-24.02968l2.21495,-8.18962l4.05537,-3.36739l8.05363,0.27654l1.61072,0.05531l7.10956,17.27645l-3.2235,0.13979l-0.01631,2.00324l14.22197,1.23976l-1.05221,30.27137l-28.96044,-5.00203z" fill="#7c7c7c" stroke="#000000" stroke-width="0.5" stroke-linecap="round"/></g><path d="M262.36194,159.27855l-0.72355,-0.50988c-0.08998,-0.02895 -0.17988,-0.05739 -0.26977,-0.08536c-0.21538,0.31536 -0.6391,0.68607 -1.37861,0.4563c-0.6816,-0.21176 -0.85309,-0.69179 -0.87479,-1.06471c-2.64018,-0.60976 -5.27662,-0.87774 -8.043,-1.07356c-7.74161,-0.28268 -15.48918,0.03584 -23.23355,0.19471c-2.5398,0.0521 -8.20361,1.19049 -10.35937,-0.45253c-1.05136,-0.80129 -0.68626,-2.73957 -0.80828,-3.79041c-0.35356,-3.0451 -0.78746,-6.19643 -0.86187,-9.26319c-0.07045,-4.00911 -1.64276,-7.55847 -2.22787,-11.48011c-0.29333,-1.96605 -1.0012,-3.93409 0.7282,-5.67346c0.4883,-0.49111 1.36819,-0.22829 2.05895,-0.27823c2.52449,-0.18248 4.97361,-0.05906 7.47912,0.18789c7.93996,0.78259 15.78235,1.1444 23.67804,2.41328c3.18518,0.5157 6.38555,0.51985 9.61137,0.56371c1.89589,0.02578 3.61345,-0.54982 4.78999,1.59276c0.70261,1.27951 0.283,5.2929 0.25881,6.77572c-0.0933,5.71771 0.94758,12.71408 -0.13734,18.48564c0.11791,0.03629 0.23588,0.07332 0.35393,0.11113l1.30338,0.78215c0,0 1.05406,0.6719 0.38217,1.72596c-0.6719,1.05406 -1.72596,0.38217 -1.72596,0.38217z" data-paper-data="{&quot;index&quot;:null}" fill="#000000" stroke="none" stroke-width="0.5" stroke-linecap="butt"/><path d="M237.02288,172.32581c0.62933,1.08002 -0.45067,1.70935 -0.45067,1.70935l-0.71816,0.3982c-1.16709,0.97015 -1.81524,1.41725 -2.68079,1.63376l0.08593,0.21043l-1.26295,0.51572c-0.1453,0.06332 -0.30515,0.09988 -0.47344,0.10334c-0.69021,0.01416 -1.26121,-0.53388 -1.27537,-1.22409c-0.00818,-0.39897 0.17149,-0.75812 0.45789,-0.9929l0.97451,-0.81295l0.02158,0.02586l0.03897,-0.07329c0.84607,-0.54658 1.6976,-1.08492 2.55703,-1.61024c0,0 0.3581,-0.21886 0.78613,-0.19544l0.23002,-0.13844c0,0 1.08002,-0.62933 1.70935,0.45067z" fill="#582700" stroke="none" stroke-width="0.5" stroke-linecap="butt"/><path d="M242.96055,172.11835l0.23549,0.12888c0.42669,-0.04093 0.79348,0.16304 0.79348,0.16304c0.88026,0.48964 1.75314,0.9926 2.62091,1.50403l0.04194,0.07163l0.02049,-0.02672l1.00703,0.7723c0.29578,0.22284 0.49003,0.57432 0.49821,0.97329c0.01416,0.69021 -0.53388,1.26121 -1.22409,1.27537c-0.16831,0.00346 -0.3295,-0.02653 -0.47727,-0.08383l-1.28304,-0.46349l0.07724,-0.21377c-0.87371,-0.18083 -1.53966,-0.60098 -2.74554,-1.52246l-0.7339,-0.36842c0,0 -1.10491,-0.58452 -0.5204,-1.68944c0.58452,-1.10491 1.68944,-0.5204 1.68944,-0.5204z" data-paper-data="{&quot;index&quot;:null}" fill="#582700" stroke="none" stroke-width="0.5" stroke-linecap="butt"/><path d="M229.09713,174.84709c0.30267,-0.19878 1.63578,1.29622 2.97758,3.33917c1.3418,2.04295 2.18422,3.86025 1.88154,4.05904c-0.30267,0.1988 -1.63578,-1.2962 -2.97758,-3.33915c-1.3418,-2.04295 -2.18423,-3.86026 -1.88155,-4.05905z" data-paper-data="{&quot;index&quot;:null}" fill="none" stroke="#000000" stroke-width="2.5" stroke-linecap="butt"/><path d="M234.09094,181.47897c0.28354,0.22524 -0.71914,1.95929 -2.2395,3.87308c-1.52035,1.91379 -2.98269,3.28266 -3.26623,3.05739c-0.28354,-0.22524 0.71913,-1.95928 2.23949,-3.87307c1.52035,-1.91379 2.98269,-3.28266 3.26623,-3.05741z" data-paper-data="{&quot;index&quot;:null}" fill="none" stroke="#000000" stroke-width="2.5" stroke-linecap="butt"/><path d="M247.93335,174.19558c0.28354,0.22524 -0.71914,1.95929 -2.2395,3.87308c-1.52035,1.91379 -2.98269,3.28266 -3.26623,3.05739c-0.28354,-0.22524 0.71913,-1.95928 2.23949,-3.87307c1.52035,-1.91379 2.98269,-3.28266 3.26623,-3.05741z" data-paper-data="{&quot;index&quot;:null}" fill="none" stroke="#000000" stroke-width="2.5" stroke-linecap="butt"/><path d="M247.74215,187.42978c-0.28398,0.22467 -1.74354,-1.14719 -3.25999,-3.06407c-1.51645,-1.91689 -2.51557,-3.65297 -2.23157,-3.87763c0.28398,-0.22467 1.74353,1.14717 3.25999,3.06406c1.51645,1.91689 2.51557,3.65297 2.23159,3.87764z" data-paper-data="{&quot;index&quot;:null}" fill="none" stroke="#000000" stroke-width="2.5" stroke-linecap="butt"/><path d="M244.73205,189.66294c4.67742,-0.12025 6.09755,2.8801 6.09755,2.8801l-14.43571,0.37112c0,0 3.66074,-3.13097 8.33816,-3.25122z" data-paper-data="{&quot;index&quot;:null}" fill="#ffffff" stroke="#000000" stroke-width="1.25" stroke-linecap="butt"/><path d="M220.14589,199.41845c0,0 -1.83027,-4.2041 -1.92434,-5.28576c-0.28223,-3.24496 -0.57705,-17.43106 -0.80034,-30.25329c-0.03455,-1.98329 1.54888,-5.10855 1.54888,-5.10855c0,0 2.20148,-1.66401 3.47885,-1.6917c14.0931,-0.30541 27.48394,-1.68924 32.73714,-0.22693c1.75107,0.48743 4.9687,2.17271 4.9687,2.17271c0,0 0.79615,4.38313 0.95171,5.51196c0.05184,0.37627 0.08208,0.58804 0.11114,0.96669c0.87089,11.34513 0.64806,24.49364 0.35163,29.08918c-0.0988,1.53185 -1.89621,3.95144 -1.89621,3.95144c0,0 -1.35715,2.74969 -5.7978,3.63111c-4.85886,0.96441 -16.72702,0.78493 -28.96509,0.56261z" fill="#582700" stroke="#000000" stroke-width="2.5" stroke-linecap="round"/><path d="M262.5215,159.58424l-0.73251,-0.51068c-0.09111,-0.02904 -0.18214,-0.05759 -0.27315,-0.08566c-0.21822,0.31513 -0.64745,0.68538 -1.39623,0.4548c-0.69014,-0.21251 -0.86362,-0.69273 -0.88545,-1.06567c-2.67335,-0.61265 -5.34304,-0.88352 -8.14434,-1.08238c-7.83944,-0.29116 -15.68514,0.01889 -23.52754,0.16927c-2.57196,0.04932 -8.30784,1.18152 -10.49025,-0.46388c-1.06436,-0.80245 -0.6939,-2.74035 -0.81707,-3.79133c-0.35687,-3.04551 -0.79506,-6.19736 -0.86924,-9.26423c-0.06981,-4.00923 -1.66066,-7.56034 -2.25167,-11.48266c-0.2963,-1.96639 -1.01237,-3.93523 0.73958,-5.67272c0.49466,-0.49058 1.38559,-0.2268 2.0851,-0.27598c2.5565,-0.17972 5.03656,-0.05361 7.57366,0.19608c8.0401,0.79129 15.98157,1.16169 23.97666,2.43923c3.22528,0.51919 6.46613,0.52684 9.73274,0.57424c1.91986,0.02785 3.65937,-0.54587 4.84998,1.59802c0.711,1.28029 0.28457,5.29326 0.2595,6.77607c-0.09666,5.71766 0.95472,12.71524 -0.14613,18.48567c0.11939,0.03641 0.23884,0.07358 0.35837,0.11152l1.31957,0.78359c0,0 1.06714,0.67306 0.38634,1.7264c-0.6808,1.05334 -1.74794,0.38028 -1.74794,0.38028z" data-paper-data="{&quot;index&quot;:null}" fill="#000000" stroke="none" stroke-width="0.5" stroke-linecap="butt"/><path d="M236.85692,172.60389c0.63688,1.08072 -0.45702,1.70887 -0.45702,1.70887l-0.7274,0.39742c-1.18222,0.96888 -1.83874,1.41528 -2.71533,1.63084l0.08693,0.21053l-1.27912,0.51435c-0.14716,0.06316 -0.30905,0.09954 -0.47947,0.10282c-0.69895,0.0134 -1.27696,-0.53527 -1.29104,-1.2255c-0.00813,-0.39898 0.17395,-0.75794 0.46406,-0.99241l0.98715,-0.81189l0.02184,0.02588l0.0395,-0.07325c0.85698,-0.54566 1.71948,-1.08307 2.58999,-1.60745c0,0 0.36272,-0.21847 0.79615,-0.19458l0.23298,-0.13819c0,0 1.09393,-0.62815 1.7308,0.45255z" fill="#582700" stroke="none" stroke-width="0.5" stroke-linecap="butt"/><path d="M242.86978,172.40292l0.23843,0.12914c0.43211,-0.04047 0.80346,0.16391 0.80346,0.16391c0.8912,0.4906 1.77494,0.99453 2.65349,1.50691l0.04245,0.07168l0.02076,-0.0267l1.01948,0.77341c0.29944,0.22316 0.496,0.57486 0.50414,0.97385c0.01407,0.69023 -0.54112,1.26064 -1.24006,1.27404c-0.17044,0.00327 -0.33366,-0.02689 -0.48328,-0.08436l-1.29909,-0.4649l0.0783,-0.21369c-0.88469,-0.18179 -1.55891,-0.60267 -2.77968,-1.52548l-0.74305,-0.36922c0,0 -1.11867,-0.58574 -0.52634,-1.69002c0.59234,-1.10428 1.71101,-0.51855 1.71101,-0.51855z" data-paper-data="{&quot;index&quot;:null}" fill="#582700" stroke="none" stroke-width="0.5" stroke-linecap="butt"/><path d="M228.82995,175.11652c0.30657,-0.19845 1.65598,1.29803 3.01398,3.34247c1.35799,2.04444 2.21038,3.86268 1.9038,4.06114c-0.30657,0.19847 -1.65598,-1.29801 -3.01398,-3.34245c-1.35799,-2.04444 -2.21039,-3.86269 -1.90381,-4.06115z" data-paper-data="{&quot;index&quot;:null}" fill="none" stroke="#000000" stroke-width="2.5" stroke-linecap="butt"/><path d="M233.8844,181.75392c0.28705,0.22555 -0.72898,1.95852 -2.26931,3.87067c-1.54031,1.91215 -3.02168,3.27943 -3.30871,3.05385c-0.28705,-0.22555 0.72897,-1.95851 2.26929,-3.87066c1.54031,-1.91215 3.02168,-3.27943 3.30871,-3.05387z" data-paper-data="{&quot;index&quot;:null}" fill="none" stroke="#000000" stroke-width="2.5" stroke-linecap="butt"/><path d="M247.70603,187.71973c-0.28766,0.22437 -1.76516,-1.14911 -3.30006,-3.06767c-1.53491,-1.91857 -2.546,-3.65576 -2.25832,-3.88011c0.28766,-0.22437 1.76515,1.14909 3.30006,3.06766c1.53491,1.91857 2.546,3.65576 2.25834,3.88012z" data-paper-data="{&quot;index&quot;:null}" fill="none" stroke="#000000" stroke-width="2.5" stroke-linecap="butt"/><g data-paper-data="{&quot;index&quot;:null}" stroke="#000000" stroke-width="1.25" stroke-linecap="butt"><path d="M245.44012,189.56519c4.71677,-0.22893 5.97708,4.93899 5.97708,4.93899l-14.55715,0.70653c0,0 3.86331,-5.41659 8.58007,-5.64552z" data-paper-data="{&quot;index&quot;:null}" fill="#000000"/><path d="M244.13189,194.83723c0,0 0.2439,-1.6725 2.11186,-2.50553c1.22072,-0.54439 3.85764,-0.55927 4.20133,-0.01438c0.71537,1.13414 0.97211,2.18688 0.97211,2.18688z" data-paper-data="{&quot;index&quot;:null}" fill="#ff8484"/></g><path d="M219.10892,199.95882c0,0 -1.93447,-4.18893 -2.04369,-5.26983c-0.32768,-3.24267 -0.79216,-17.42659 -1.16744,-30.24719c-0.05806,-1.98304 1.53899,-5.12155 1.53899,-5.12155c0,0 2.25076,-1.68239 3.56734,-1.72072c14.52568,-0.42285 28.31517,-1.91828 33.74746,-0.49972c1.81077,0.47285 5.14703,2.13134 5.14703,2.13134c0,0 0.87038,4.37657 1.04353,5.50413c0.05771,0.37585 0.09126,0.58738 0.12552,0.96578c1.02621,11.33809 0.94528,24.48871 0.69168,29.0868c-0.08453,1.53271 -1.91016,3.96732 -1.91016,3.96732c0,0 -1.36802,2.76104 -5.93609,3.67949c-4.99828,1.00491 -17.23566,0.92432 -29.8549,0.80398z" fill="#582700" stroke="#000000" stroke-width="2.5" stroke-linecap="round"/><path d="M262.34489,159.77076l-0.76096,-0.50459c-0.09425,-0.02828 -0.18843,-0.05606 -0.28257,-0.08338c-0.2214,0.31696 -0.65973,0.69078 -1.43428,0.46645c-0.7139,-0.20676 -0.89819,-0.68555 -0.9249,-1.05832c-2.763,-0.59039 -5.51835,-0.83901 -8.40857,-1.01454c-8.08528,-0.22584 -16.17022,0.14958 -24.25356,0.36532c-2.65097,0.07074 -8.55152,1.25077 -10.82006,-0.37647c-1.10637,-0.79359 -0.74638,-2.73462 -0.88524,-3.7846c-0.40237,-3.04259 -0.8898,-6.19085 -1.00098,-9.25716c-0.11735,-4.00873 -1.79759,-7.54665 -2.45128,-11.46412c-0.3277,-1.96396 -1.08822,-3.92687 0.69827,-5.67899c0.50442,-0.49472 1.42589,-0.23835 2.14648,-0.29336c2.63355,-0.20103 5.19177,-0.09558 7.81021,0.13298c8.29781,0.72431 16.48917,1.02855 24.74609,2.23949c3.33094,0.49233 6.67215,0.47298 10.04037,0.49315c1.97958,0.01186 3.76642,-0.57636 5.01812,1.55764c0.74749,1.27439 0.35326,5.29099 0.34421,6.77403c-0.03495,5.71857 1.12814,12.70753 0.05854,18.48724c0.12349,0.03542 0.24707,0.07159 0.37072,0.10853l1.36926,0.7726c0,0 1.10777,0.66418 0.41783,1.72322c-0.68995,1.05903 -1.79772,0.39486 -1.79772,0.39486z" data-paper-data="{&quot;index&quot;:null}" fill="#000000" stroke="none" stroke-width="0.5" stroke-linecap="butt"/><path d="M234.417,174.88086c0.55002,-0.00424 1.03257,2.9864 1.07788,6.67973c0.04531,3.69334 -0.36383,6.69082 -0.91383,6.69504c-0.55002,0.00424 -1.03259,-2.98639 -1.07789,-6.67972c-0.04531,-3.69334 0.36382,-6.69083 0.91384,-6.69506z" data-paper-data="{&quot;index&quot;:null}" fill="none" stroke="#580000" stroke-width="2.5" stroke-linecap="butt"/><path d="M243.26113,174.74217c0.55002,-0.00424 1.03257,2.9864 1.07788,6.67973c0.04531,3.69334 -0.36383,6.69082 -0.91383,6.69504c-0.55002,0.00424 -1.03259,-2.98639 -1.07789,-6.67972c-0.04531,-3.69334 0.36382,-6.69083 0.91384,-6.69506z" data-paper-data="{&quot;index&quot;:null}" fill="none" stroke="#580000" stroke-width="2.5" stroke-linecap="butt"/><g data-paper-data="{&quot;index&quot;:null}" stroke="#000000" stroke-width="1.25" stroke-linecap="butt"><g data-paper-data="{&quot;index&quot;:null}" fill="#000000"><path d="M243.41548,195.53609c-9.78928,0.47397 -6.67411,-3.83883 -6.67411,-3.83883l13.06048,-0.58656c0,0 4.03101,3.82358 -6.38638,4.42538z"/></g><g data-paper-data="{&quot;index&quot;:null}" fill="#ffffff"><path d="M238.89097,195.30398c-0.01897,-0.00405 0.67026,-0.89535 0.64421,-1.7187c-0.03179,-1.00526 -0.77721,-1.97859 -0.77417,-1.97873c2.20501,-0.09904 11.04084,-0.49585 11.04084,-0.49585c0,0 4.03101,3.82358 -6.38637,4.42539c-2.0024,0.09695 -3.46486,-0.00638 -4.52449,-0.23211z"/></g></g><g><g><g data-paper-data="{&quot;index&quot;:null}" stroke="#000000"><path d="M297.40739,233.57537c-2.07186,4.54106 -28.23674,9.87904 -33.20215,7.46121c-5.09242,-2.47969 -11.44972,-13.68445 -14.13233,-20.59387c-2.68259,-6.90944 -2.06326,-17.58837 -1.09935,-18.63766c2.8917,-3.14789 15.05347,-2.28836 20.50535,-2.4904c3.25758,-0.12073 16.07127,-0.24906 19.83544,1.8555c3.98239,2.22658 9.5251,29.2665 8.09307,32.40517z" data-paper-data="{&quot;origRot&quot;:0,&quot;origPos&quot;:null}" fill="#582700" stroke-width="3" stroke-linecap="butt"/><path d="M285.73296,204.72989l-20.15022,3.38494" data-paper-data="{&quot;origPos&quot;:null}" fill="none" stroke-width="2" stroke-linecap="round"/><path d="M263.11008,211.83405l3.15726,25.16599" data-paper-data="{&quot;origPos&quot;:null}" fill="none" stroke-width="2" stroke-linecap="round"/><path d="M262.0886,238.49018c0,0 -4.84031,-29.25061 -3.06845,-32.38237c1.55116,-2.74169 28.83499,-4.78988 28.83499,-4.78988" data-paper-data="{&quot;origPos&quot;:null}" fill="none" stroke-width="1.5" stroke-linecap="round"/><path d="M259.6297,235.29541c0,0 -4.60988,-27.85808 -2.92237,-30.84073c1.47732,-2.61117 27.46223,-4.56185 27.46223,-4.56185" data-paper-data="{&quot;origPos&quot;:null}" fill="none" stroke-width="1.5" stroke-linecap="round"/></g><path d="M269.07692,201.07468l-12.46936,3.47697l0.02,10.99579l2.0002,14.17479l0.39209,6.00492l-10.46941,-20.18964l0.8004,-14.55024l19.74192,-1.19749z" fill="#616161" stroke="#000000" stroke-width="0.5" stroke-linecap="round"/><path d="M256.7758,205.26254l1.42332,-0.38444l3.42146,32.33251l-1.42332,0.38443z" fill="#ffffff" stroke="none" stroke-width="0" stroke-linecap="butt"/><path d="M285.24407,199.54818l0.38557,1.37009l-27.93087,4.56224l-0.38556,-1.37009z" fill="#ffffff" stroke="none" stroke-width="0" stroke-linecap="butt"/><path d="M260.3191,235.15935l0.60231,0.57528c0.35775,0.38162 0.71549,0.76321 1.07323,1.14483c0,0 1.06953,1.14087 -0.16144,2.11372c-1.23098,0.97286 -2.30053,-0.16802 -2.30053,-0.16802c-0.35775,-0.38162 -0.71549,-0.76321 -1.07323,-1.14482l-0.47246,-0.44464c0,0 -1.13995,-1.08178 0.0261,-2.11994c1.16605,-1.03817 2.30603,0.0436 2.30603,0.0436z" fill="#000000" stroke="none" stroke-width="0.5" stroke-linecap="butt"/><path d="M258.76052,204.31248c0.0004,0.0001 0.00082,0.0002 0.0012,0.00031l0.03594,-0.14087l0.56364,0.12612c0.24816,0.05055 0.43303,0.25602 0.43004,0.49816c-0.00245,0.19948 -0.1317,0.36924 -0.31656,0.44589l-0.47516,0.20824c-0.45797,0.28886 -0.67233,0.37645 -0.77534,0.89463c0,0 -0.12391,0.48555 -0.65318,0.36713c-0.24971,-0.05588 -0.35402,-0.19348 -0.39455,-0.32325c-0.16991,-0.06413 -0.2971,-0.2044 -0.33178,-0.37356l-0.11918,-0.52182l0.10149,-0.01877c-0.18598,-0.44362 -0.05741,-0.78234 0.6038,-1.33777l0.65472,-0.20631c0,0 0.52432,-0.12739 0.66772,0.35588c0.0026,0.00878 0.00498,0.01746 0.00716,0.026z" fill="#ffffff" stroke="none" stroke-width="0.5" stroke-linecap="butt"/><path d="M286.40621,201.71569c-0.37705,-0.88732 -2.13843,-1.46019 -3.09232,-1.78137l-0.47684,-0.00902c-0.30019,-0.00567 -0.54078,-0.23399 -0.53739,-0.50995c0.0034,-0.27596 0.2495,-0.49508 0.54969,-0.4894v0v0l0.54354,0.01028l-0.00053,0.04302l0.08752,-0.03493c0.04561,0.01449 0.09164,0.02922 0.13806,0.0442c0.60291,-0.36785 2.21765,0.26965 2.81949,0.55782l0.22969,0.18128c0,0 0.37999,0.36058 -0.0087,0.70664c-0.00413,0.00366 -0.00825,0.00726 -0.01239,0.01079c0.29951,0.24712 0.55367,0.52586 0.738,0.84209c0,0 0.23758,0.45153 -0.25133,0.66579c-0.48889,0.21427 -0.72647,-0.23725 -0.72647,-0.23725z" fill="#000000" stroke="none" stroke-width="0.5" stroke-linecap="butt"/></g><path d="M252.32168,203.47948c0,0 -1.02824,4.80631 -0.48706,11.9923c0.5488,7.28695 2.22917,13.02969 2.22917,13.02969l1.82356,0.40164c0,0 -0.56602,3.00161 -2.57726,2.79556c-4.92257,-0.50433 -6.53072,-31.81544 -1.77813,-31.60211c2.97044,0.13334 2.90559,4.3091 2.90559,4.3091z" fill="#fffc96" stroke="#000000" stroke-width="2" stroke-linecap="round"/><path d="M284.34267,198.96463c0,0 -6.50391,-0.20345 -15.53882,1.4695c-9.03493,1.67296 -14.67587,3.74522 -14.67587,3.74522l0.9865,1.024c0,0 -3.541,1.57325 -5.53385,-0.52482c-3.29053,-3.4643 36.47795,-11.41542 38.81973,-7.25362c1.1156,1.98262 -3.27357,2.59064 -3.27357,2.59064z" data-paper-data="{&quot;index&quot;:null}" fill="#fffc96" stroke="#000000" stroke-width="2" stroke-linecap="round"/></g></g></g></svg>