<svg version="1.1" xmlns="http://www.w3.org/2000/svg" xmlns:xlink="http://www.w3.org/1999/xlink" width="210" height="221" viewBox="0,0,210,221"><g transform="translate(-140,-90)"><g data-paper-data="{&quot;isPaintingLayer&quot;:true}" fill-rule="nonzero" stroke-linejoin="miter" stroke-miterlimit="10" stroke-dasharray="" stroke-dashoffset="0" style="mix-blend-mode: normal"><path d="M140,311v-221h210v221z" fill="none" stroke="none" stroke-width="0" stroke-linecap="butt"/><g data-paper-data="{&quot;index&quot;:null}"><g stroke="#000000" stroke-width="3" stroke-linecap="round"><path d="M231.42457,241.22662c0,0 -1.29889,10.66254 -3.46878,14.72728c-16.91604,-0.15204 -24.7999,-6.27561 -24.7999,-6.27561c-1.99269,-0.40098 0.57439,-7.20796 0.57439,-7.20796c0,0 4.57574,-13.45255 7.50442,-22.06286c1.92309,-5.65388 4.9277,-14.48738 4.9277,-14.48738c0,0 2.15321,-5.51938 3.21242,-5.21784c6.37231,1.81414 12.89741,2.31388 15.70614,4.33268c0.93624,0.67293 0.27542,6.34955 0.27542,6.34955l-3.93182,29.84212z" data-paper-data="{&quot;origPos&quot;:null}" fill="#582700"/><path d="M229.86176,246.76836l-24.92941,-6.09136l0.82144,-3.30136l25.02929,5.85278z" data-paper-data="{&quot;origPos&quot;:null}" fill="none"/></g><path d="M205.65412,236.87884l12.62409,-34.63884l1.40036,-0.35309l15.39105,3.62585l-4.88523,37.09617z" fill="#66c8ff" stroke="#000000" stroke-width="1" stroke-linecap="round"/><path d="M205.00347,240.23592l0.55053,-2.26516l24.77945,6.02254l-0.55053,2.26516z" fill="#ffffff" stroke="none" stroke-width="0" stroke-linecap="butt"/></g><g data-paper-data="{&quot;index&quot;:null}" stroke="#000000" stroke-linecap="round"><path d="M262.23752,194.40156c0,0 16.2316,-1.59725 16.21325,5.02736c-0.04977,17.98052 -28.27891,12.06568 -28.27891,12.06568z" data-paper-data="{&quot;origPos&quot;:null}" fill="#66c8ff" stroke-width="2"/><path d="M261.48344,195.90979c0,0 11.78117,-0.56333 12.44273,1.38252c0.20864,0.61371 -15.71052,2.51368 -15.71052,2.51368z" data-paper-data="{&quot;origPos&quot;:null}" fill="#0a0a0a" stroke-width="1"/></g><g><path d="M266.18168,243.27864c0,0 0.82804,15.75777 -1.37782,16.03807c-6.6176,0.84095 -24.01925,-0.01169 -38.86622,-0.01169c-1.66786,0 -1.42457,-14.95796 -1.42457,-14.95796l1.78071,-30.62821c0,0 1.32025,-13.5334 2.84914,-13.5334c9.88992,0 24.68694,-0.93059 31.15944,0.71298c2.1575,0.54786 4.09861,14.95725 4.09861,14.95725z" data-paper-data="{&quot;origPos&quot;:null}" fill="#66c8ff" stroke="#000000" stroke-width="3.5" stroke-linecap="round"/><path d="M234.32346,223.72117c-1.29166,0 -1.29167,-2.4875 -1.29167,-2.4875c0,-5.15926 0,-11.97684 0,-17.1361c0,0 0.00001,-2.4875 1.29167,-2.4875c1.29166,0 1.29166,2.4875 1.29166,2.4875c0,5.15926 0,10.31851 0,15.47777v1.65833c0,0 0,2.4875 -1.29166,2.4875z" fill="#ffffff" stroke="none" stroke-width="0.5" stroke-linecap="butt"/><path d="M246.32346,230.0545c-1.29166,0 -1.29167,-3.125 -1.29167,-3.125c0,-6.48148 0,-15.04629 0,-21.52778c0,0 0.00001,-3.125 1.29167,-3.125c1.29166,0 1.29166,3.125 1.29166,3.125c0,6.48148 0,12.96296 0,19.44445v2.08333c0,0 0,3.125 -1.29166,3.125z" fill="#ffffff" stroke="none" stroke-width="0.5" stroke-linecap="butt"/></g><g fill="none" stroke="#b9b9b9" stroke-width="3"><path d="M256.89468,205.21998c-0.82753,-1.35809 0.08589,-2.57767 1.30884,-3.7957c1.22296,-1.21801 2.45037,-1.58994 3.11989,-0.61516c1.41955,2.06682 -0.06978,3.04234 -1.0274,3.99608c-1.22297,1.21803 -2.23265,2.33277 -3.40133,0.41479z" stroke-linecap="butt"/><path d="M255.28898,207.14868l2.58997,-2.51944" stroke-linecap="round"/><path d="M251.74248,207.77801c1.22296,-1.21801 2.45037,-1.58994 3.11989,-0.61516c1.41955,2.06682 -0.06978,3.04234 -1.0274,3.99608c-1.22296,1.21802 -2.23264,2.33277 -3.40132,0.41479c-0.82753,-1.35809 0.08588,-2.57767 1.30883,-3.79571z" stroke-linecap="butt"/><path d="M251.41789,210.98296l-2.58997,2.51946" stroke-linecap="round"/><path d="M243.20565,213.05014c0.40066,-1.63508 1.7387,-1.48046 3.25851,-1.02164c1.51981,0.45883 2.48819,1.43557 2.24522,2.68318c-0.51516,2.64527 -2.03348,1.77826 -3.22353,1.41899c-1.51981,-0.45882 -2.84605,-0.77137 -2.2802,-3.08052z" stroke-linecap="butt"/><path d="M240.99443,212.6477l3.1793,1.00816" stroke-linecap="round"/><path d="M236.00593,208.67439c0.893,-1.31672 2.06779,-0.52961 3.31104,0.62589c1.24326,1.1555 1.81512,2.52367 1.19118,3.55857c-1.32294,2.19428 -2.43342,0.66261 -3.40694,-0.24218c-1.24325,-1.15551 -2.3564,-2.08274 -1.09528,-3.94227z" stroke-linecap="butt"/><path d="M234.11175,207.23799l2.58519,2.46183" stroke-linecap="round"/><path d="M229.50223,202.54975c0.893,-1.3167 2.0678,-0.52961 3.31104,0.62589c1.24326,1.1555 1.81512,2.52367 1.19118,3.55857c-1.32294,2.19427 -2.43342,0.66261 -3.40693,-0.24218c-1.24325,-1.1555 -2.3564,-2.08273 -1.09528,-3.94227z" stroke-linecap="butt"/><path d="M230.19327,203.57519l-2.58521,-2.46183" stroke-linecap="round"/></g><path d="M281.80698,253.91771c0,0 4.36261,-1.02642 6.59769,-0.26656c1.71105,0.58168 2.36541,2.38846 2.87475,4.12242c1.39803,4.7595 0.14776,9.61376 0.42148,17.32516c0.07454,2.10025 -2.9719,3.39358 -5.07256,3.33199c-1.96473,-0.05762 -5.37653,-0.27815 -5.37653,-0.27815l-33.06388,-1.70473c0,0 -4.27348,-0.36046 -5.09926,-2.06162c-1.98861,-4.09672 -0.70456,-8.62555 -1.12247,-13.16021c-0.14163,-1.53674 4.64985,-1.83404 4.64985,-1.83404c0,0 8.8983,-1.38422 14.59369,-2.27018c8.03835,-1.25044 20.59726,-3.20407 20.59726,-3.20407z" data-paper-data="{&quot;index&quot;:null}" fill="#4b4b4b" stroke="#000000" stroke-width="3" stroke-linecap="round"/><path d="M242.53179,265.47173c0,0 2.03836,3.99136 1.83413,6.34323c-0.15632,1.80045 -1.75461,2.86727 -3.31681,3.77589c-4.28805,2.49399 -9.30043,2.43889 -16.72345,4.54589c-2.02171,0.57384 -4.00501,-2.07569 -4.44676,-4.1303c-0.41315,-1.92166 -1.01361,-5.28744 -1.01361,-5.28744l-6.23898,-32.51463c0,0 -0.67031,-4.23595 0.78448,-5.44402c3.50343,-2.90924 8.20786,-2.74364 12.51159,-4.23217c1.45848,-0.50445 2.89121,4.07747 2.89121,4.07747c0,0 3.46876,8.31044 5.68895,13.62958c3.13353,7.50731 8.02925,19.23654 8.02925,19.23654z" data-paper-data="{&quot;index&quot;:null}" fill="#4b4b4b" stroke="#000000" stroke-width="3" stroke-linecap="round"/><path d="M223.48786,197.61751c0,0 -1.72243,-4.2383 -1.79353,-5.32153c-0.21331,-3.24969 -0.21881,-17.43842 -0.18113,-30.2622c0.00582,-1.98353 1.63209,-5.07777 1.63209,-5.07777c0,0 2.20707,-1.62146 3.4688,-1.62465c13.92057,-0.03517 27.16949,-1.16198 32.32665,0.40073c1.71906,0.5209 4.86197,2.2675 4.86197,2.2675c0,0 0.69781,4.39746 0.82868,5.52903c0.04362,0.37719 0.06919,0.58949 0.09027,0.96861c0.63145,11.35941 0.14673,24.50086 -0.23844,29.08973c-0.12839,1.52963 -1.95172,3.91425 -1.95172,3.91425c0,0 -1.39529,2.72309 -5.79739,3.51918c-4.81667,0.87105 -16.53075,0.46408 -28.60919,0.0072z" fill="#582700" stroke="#000000" stroke-width="2.5" stroke-linecap="round"/><path d="M266.12816,158.60417l-0.71294,-0.52462c-0.08936,-0.03078 -0.17867,-0.06106 -0.26796,-0.09087c-0.2218,0.31088 -0.65303,0.67282 -1.38768,0.42794c-0.67711,-0.2257 -0.83872,-0.70914 -0.85277,-1.08242c-2.62713,-0.66378 -5.25751,-0.98576 -8.01929,-1.23828c-7.73418,-0.44139 -15.48665,-0.28182 -23.23265,-0.28182c-2.54033,0 -8.2263,1.022 -10.34791,-0.66489c-1.0347,-0.82268 -0.62993,-2.75307 -0.73037,-3.80619c-0.29103,-3.0517 -0.66022,-6.21127 -0.67172,-9.27892c0.01178,-4.00971 -1.48741,-7.59057 -1.99196,-11.52339c-0.25295,-1.97165 -0.92031,-3.9538 0.8444,-5.65733c0.49827,-0.481 1.37259,-0.20019 2.06422,-0.23595c2.52769,-0.13067 4.97377,0.04295 7.47369,0.34124c7.92223,0.94526 15.75556,1.46783 23.62357,2.89838c3.17393,0.58091 6.37354,0.6507 9.59779,0.76071c1.89496,0.06466 3.62396,-0.47559 4.75632,1.69066c0.67622,1.29364 0.17439,5.29759 0.11979,6.7796c-0.21054,5.71459 0.68664,12.73084 -0.51642,18.47894c0.11714,0.03869 0.23433,0.07814 0.35158,0.11836l1.28706,0.80872c0,0 1.04006,0.69338 0.34669,1.73344c-0.69338,1.04006 -1.73344,0.34669 -1.73344,0.34669z" data-paper-data="{&quot;index&quot;:null}" fill="#000000" stroke="none" stroke-width="0.5" stroke-linecap="butt"/><path d="M249.15566,170.61483c0,0 1.09269,-0.60705 1.69975,0.48564c0.60705,1.09269 -0.48564,1.69975 -0.48564,1.69975l-0.72619,0.38339c-1.18673,0.94601 -1.84393,1.37973 -2.71374,1.57844l0.0816,0.21215l-1.27326,0.48971c-0.14657,0.06032 -0.30712,0.0936 -0.47546,0.0936c-0.69036,0 -1.25,-0.55964 -1.25,-1.25c0,-0.39906 0.187,-0.75444 0.47815,-0.9833l0.99098,-0.79279l0.02104,0.0263l0.04047,-0.07248c0.85711,-0.52911 1.7195,-1.04987 2.58952,-1.55746c0,0 0.36252,-0.21146 0.78997,-0.17928l0.23281,-0.13369z" data-paper-data="{&quot;index&quot;:null}" fill="#582700" stroke="none" stroke-width="0.5" stroke-linecap="butt"/><g><g><path d="M249.43669,204.95716c-1.72345,-2.68894 12.38712,-3.36973 14.49304,-4.26364c2.28882,-0.97157 -2.30881,19.29822 -2.30881,19.29822l-0.8278,3.42496l5.06296,-22.75767c0,0 1.35224,-7.94789 3.48285,-7.21672c0,0 10.96768,-1.44757 27.23523,7.8703c-0.19812,5.10236 -4.92049,16.02919 -4.92049,16.02919c0,0 -9.36186,24.74788 -13.94368,25.72113c-1.06098,0.22536 -14.05305,-0.07274 -16.94553,-3.0192c-9.59854,-9.77769 -11.32778,-35.08656 -11.32778,-35.08656z" fill="#582700" stroke="#000000" stroke-width="2.5" stroke-linecap="round"/><path d="M262.658,218.49542c-0.1388,0.48377 -0.28452,0.9664 -0.42894,1.45067c-0.03187,0.10688 -0.51054,1.28078 -0.5043,1.8793c6.53333,2.06852 13.31428,3.09794 19.76754,5.52091c0.58368,0.175 1.85241,0.42175 3.03514,0.82101c0.37712,0.02059 0.67726,-0.00894 0.80463,-0.12805c1.08314,-1.01278 1.57892,-2.83265 2.4563,-4.04571c-0.38074,0.00483 -1.48209,0.00324 -1.92947,-0.08187c-1.32862,-0.25274 -2.64254,-0.49855 -3.97752,-0.71065c-4.67964,-0.74349 -9.66376,-2.07609 -14.19876,-3.36084c-1.66396,-0.27733 -3.40545,-0.71924 -5.02463,-1.34478zM263.04241,217.05015c1.59129,0.63159 3.32856,1.06354 4.96784,1.33675c5.12238,1.47672 10.57509,2.66142 15.8542,3.59297c2.17517,0.38382 5.61285,0.1423 5.25426,2.68589c-0.91822,1.30218 -1.53787,3.28549 -2.72267,4.40167c0.3698,0.28168 0.62311,0.60604 0.68446,0.98097c0.08636,0.52778 -1.17132,2.27776 -1.43491,2.80512c-1.57253,3.14624 -2.87642,7.21692 -6.54689,8.40669c-5.14038,3.42693 -14.10966,2.09836 -19.28065,-0.57628c-2.91463,-3.27093 -3.7835,-6.56037 -4.74055,-10.72989c-0.69101,-3.01052 -1.8952,-5.7178 -2.24115,-8.84652c-1.07807,-4.28089 -2.02147,-8.58268 -3.09347,-12.86354c-0.492,-1.96475 -1.63856,-3.68958 0.04678,-5.20488c3.51386,-0.66327 7.06641,-1.33214 10.60964,-1.91681c1.1045,-0.18225 3.35904,-0.47796 4.34798,0.21643c1.37434,0.96501 0.72633,2.71132 0.35156,4.02565c-0.42117,2.9911 -1.04096,6.24542 -1.89185,9.40059c0.2131,0.25241 0.16267,0.60535 0.16267,0.60535c-0.08171,0.56762 -0.19478,1.12622 -0.32723,1.67982zM282.64175,229.28657c-4.00392,-0.53302 -7.62524,-2.21484 -11.55723,-2.85708c-2.32477,-0.33197 -6.50887,-0.58469 -9.01861,-2.10472c-0.15317,-0.02056 -0.26336,-0.07566 -0.26336,-0.07566l-0.68181,-0.34447c-0.71742,-0.21402 -1.3632,-0.66739 -1.91543,-1.17291c0.44541,-5.93351 3.57008,-11.69131 4.43651,-17.67805c0.18884,-0.65965 0.51787,-1.58229 0.50426,-2.26399c-0.00837,-0.41927 -2.51574,-0.33964 -2.818,-0.31444c-3.68,0.30685 -7.26803,1.4726 -10.93102,1.92418c-0.35688,0.12892 0.64279,2.88897 0.79166,3.48545c1.0765,4.31295 2.042,8.64284 3.11391,12.95914c0.34739,3.11174 1.53364,5.78799 2.22817,8.78242c0.884,3.81129 1.60657,6.84582 4.19806,9.8786c4.84122,2.29783 12.9678,3.5819 17.7153,0.41691c3.56579,-1.21629 5.63203,-6.54384 7.16419,-9.64497c0.01625,-0.03288 -1.58708,-0.55764 -2.90508,-0.98175c-0.02085,-0.00306 -0.04136,-0.00595 -0.06153,-0.00864z" fill="#000000" stroke="none" stroke-width="0.5" stroke-linecap="butt"/><path d="M267.63811,219.8182c4.535,1.28475 9.6133,2.6384 14.29293,3.3819c1.33498,0.2121 2.64884,0.46141 3.97746,0.71417c0.44738,0.08511 1.54874,0.08663 1.92947,0.0818c-0.87739,1.21307 -1.37739,3.05061 -2.46052,4.0634c-0.12739,0.1191 -0.42839,0.15047 -0.80551,0.12988c-1.18273,-0.39926 -2.4533,-0.64263 -3.03698,-0.81762c-6.45326,-2.42297 -13.32621,-3.48351 -19.85954,-5.55203c-0.00625,-0.59852 0.47382,-1.77969 0.50569,-1.88656c0.14443,-0.48426 0.29198,-0.97238 0.43078,-1.45615c1.61918,0.62553 3.36225,1.06389 5.02622,1.34122z" data-paper-data="{&quot;noHover&quot;:false,&quot;origItem&quot;:[&quot;Path&quot;,{&quot;applyMatrix&quot;:true,&quot;segments&quot;:[[[926.17844,407.1979],[3.2606,1.25965],[-0.27949,0.97418]],[[925.31465,410.11917],[0.29084,-0.97519],[-0.06418,0.21521]],[[924.29914,413.90358],[-0.01258,-1.20526],[13.15638,4.16543]],[[964.1057,425.02121],[-12.99513,-4.87922],[1.17537,0.35239]],[[970.21765,426.67451],[-2.3817,-0.804],[0.75941,0.04146]],[[971.83798,426.41666],[-0.25651,0.23985],[2.18115,-2.03947]],[[976.78433,418.26967],[-1.76682,2.44279],[-0.76669,0.00973]],[[972.89889,418.10481],[0.90089,0.17138],[-2.67549,-0.50896]],[[964.88923,416.67374],[2.68829,0.42712],[-9.42353,-1.49721]],[[936.29671,409.90591],[9.13228,2.58714],[-3.35077,-0.55846]]],&quot;closed&quot;:true}]}" fill="#ffffff" stroke="none" stroke-width="0.5" stroke-linecap="butt"/><path d="M280.97217,228.73556c0.21603,0.06484 4.70814,1.50784 4.68126,1.56222c-1.53217,3.10113 -3.61829,8.45066 -7.18408,9.66694c-4.7475,3.165 -12.91838,1.88399 -17.7596,-0.41385c-2.59149,-3.03277 -3.33651,-6.08593 -4.22051,-9.89722c-0.69453,-2.99443 -1.88868,-5.70257 -2.23608,-8.8143c-1.07191,-4.31629 -2.02582,-8.67368 -3.10232,-12.98662c-0.14888,-0.59647 -1.14564,-3.35966 -0.78876,-3.48857c3.66299,-0.45158 7.27008,-1.62909 10.95008,-1.93595c0.30225,-0.0252 2.8159,-0.10651 2.82427,0.31276c0.01362,0.68171 -0.29361,1.70121 -0.48246,2.36086c-0.86642,5.98674 -3.95373,11.69302 -4.39914,17.62652c0.55223,0.50551 1.19652,0.94982 1.91396,1.16384l0.6807,0.34079c0,0 0.57234,0.36549 0.90546,-0.30075c0.03335,-0.0667 0.15101,-0.16113 0.166,-0.22115c6.03001,1.74988 12.13027,2.80677 18.05121,5.02449z" data-paper-data="{&quot;noHover&quot;:false,&quot;origItem&quot;:[&quot;Path&quot;,{&quot;applyMatrix&quot;:true,&quot;segments&quot;:[[[926.61254,417.73069],[12.14285,3.5238],[-0.03018,0.12086]],[[926.46822,418.11346],[0.06716,-0.13431],[-0.67082,1.34164]],[924.45576,418.78428],[[923.08279,418.0906],[0,0],[-1.44471,-0.43097]],[[919.22563,415.72869],[1.11205,1.01797],[0.89694,-11.9485]],[[928.15956,380.1298],[-1.74473,12.05571],[0.38029,-1.32836]],[[929.175,375.57071],[0.02742,1.37277],[-0.01686,-0.84429]],[[923.5003,374.93752],[0.60865,-0.05075],[-7.41054,0.61792]],[[901.48814,378.8123],[7.37628,-0.90935],[-0.71866,0.25961]],[[903.08234,385.83106],[-0.2998,-1.20115],[2.16779,8.68513]],[[909.35292,411.92731],[-2.15853,-8.69186],[0.69956,6.26621]],[[913.83986,429.61277],[-1.39861,-6.02998],[1.78014,7.67491]],[[922.29365,449.50563],[-5.21858,-6.1072],[9.74892,4.62723]],[[957.96755,450.34516],[-9.56021,6.37347],[7.18055,-2.44927]],[[972.39433,430.92276],[-3.08539,6.24485],[0.05411,-0.10951]],[[963.14745,427.86406],[0.43501,0.13058],[-11.92317,-4.46591]]],&quot;closed&quot;:true}]}" fill="#66c8ff" stroke="none" stroke-width="0.5" stroke-linecap="butt"/></g><g data-paper-data="{&quot;index&quot;:null}" fill="#fffc96" stroke="#000000" stroke-width="2" stroke-linecap="round"><path d="M248.03847,213.34259c-0.17441,-1.98815 2.95982,-2.31036 2.95982,-2.31036l0.38165,1.81929c0,0 4.51919,1.59211 10.69692,2.73119c-0.11639,1.30123 -0.15204,2.26662 -0.06585,3.06058c-7.21332,-1.13449 -13.7823,-3.13216 -13.97253,-5.30071z"/><path d="M250.84105,226.3276c-0.67098,-2.70557 2.54409,-3.96973 2.54409,-3.96973l0.32002,1.32957c0,0 3.43329,-1.66142 8.3004,-5.09607c0.10494,1.03948 0.41332,1.78464 1.0148,2.59422c-6.02427,4.21852 -11.6932,7.10218 -12.17932,5.142z" data-paper-data="{&quot;index&quot;:null}"/></g></g><path d="M237.53493,179.38059c-0.01031,-3.50875 0.29165,-6.35407 0.6744,-6.35518c0.38277,-0.00112 0.70143,2.84237 0.71174,6.35111c0.01031,3.50875 -0.29162,6.35404 -0.67439,6.35517c-0.38277,0.00112 -0.70144,-2.84235 -0.71175,-6.35109z" fill="none" stroke="#000000" stroke-width="2.5" stroke-linecap="butt"/><path d="M247.03493,179.18059c-0.01031,-3.50875 0.29165,-6.35407 0.6744,-6.35518c0.38277,-0.00112 0.70143,2.84237 0.71174,6.35111c0.01031,3.50875 -0.29162,6.35404 -0.67439,6.35517c-0.38277,0.00112 -0.70144,-2.84235 -0.71175,-6.35109z" fill="none" stroke="#000000" stroke-width="2.5" stroke-linecap="butt"/><path d="M252.92941,194.4157c0.12207,0.16244 0.35256,0.57555 -0.06055,0.98866c-0.53033,0.53033 -1.06066,0 -1.06066,0l-0.30181,-0.46763c-0.23218,-1.06997 -0.2331,-2.13693 0.00675,-3.13501c-1.05846,-0.20378 -2.19402,-0.17368 -3.17917,0.26167c0,0 -0.68936,0.29544 -0.9848,-0.39392c-0.29544,-0.68936 0.39392,-0.9848 0.39392,-0.9848c1.36986,-0.57335 2.86173,-0.60723 4.30154,-0.30115c0.34236,-0.65261 0.80981,-1.25358 1.4058,-1.77893c0,0 0.56944,-0.48809 1.05754,0.08135c0.48809,0.56944 -0.08135,1.05754 -0.08135,1.05754c-1.3923,1.14781 -1.82839,2.95946 -1.49721,4.67223z" fill="#000000" stroke="none" stroke-width="0.5" stroke-linecap="butt"/><path d="M246.39541,170.48815c0.23628,-0.3938 0.56901,-0.40178 0.79148,-0.34879c0.04897,-0.01006 0.09969,-0.01534 0.15163,-0.01534c0.1425,0 0.27572,0.03974 0.38918,0.10875l1.0533,0.61488l-0.00758,0.01298l0.04184,0.00828c0.8096,0.59734 1.3657,1.0228 1.80216,1.48611l0.33761,0.15005l0.55017,0.13754c0.33399,0.07579 0.58332,0.37449 0.58332,0.73141c0,0.10667 -0.02227,0.20813 -0.06241,0.3c0.03351,0.0767 0.05456,0.16008 0.0606,0.2476l0.14726,0.19634c0.09693,0.12637 0.15455,0.28449 0.15455,0.45606c0,0.41421 -0.33579,0.75 -0.75,0.75c-0.18443,0 -0.3533,-0.06657 -0.48392,-0.17699l-0.58512,-0.4876c-0.18134,-0.13579 -0.38344,-0.26852 -0.58803,-0.4038l-0.21216,-0.0816l0.01825,-0.04745c-0.00673,-0.00453 -0.01345,-0.00906 -0.02018,-0.01359c-0.21552,-0.11472 -0.41946,-0.28037 -0.62491,-0.46631c-0.07444,-0.03137 -0.1484,-0.06374 -0.22184,-0.0971c-0.67406,-0.1995 -1.35689,-0.45585 -1.89501,-0.82763c-0.40344,-0.20505 -0.82865,-0.43126 -1.29734,-0.66492l-0.6693,-0.28684c-0.27576,-0.11084 -0.47045,-0.38077 -0.47045,-0.69617c0,-0.41421 0.33579,-0.75 0.75,-0.75c0.10819,0 0.21104,0.02291 0.30394,0.06414l0.66857,0.27857c0.01957,-0.05706 0.04719,-0.11663 0.08436,-0.17859z" fill="#582700" stroke="none" stroke-width="0.5" stroke-linecap="butt"/></g></g></svg>