<svg version="1.1" xmlns="http://www.w3.org/2000/svg" xmlns:xlink="http://www.w3.org/1999/xlink" width="199.11324" height="221.55319" viewBox="0,0,199.11324,221.55319"><g transform="translate(-195.52004,-69.22341)"><g data-paper-data="{&quot;isPaintingLayer&quot;:true}" fill-rule="nonzero" stroke-linejoin="miter" stroke-miterlimit="10" stroke-dasharray="" stroke-dashoffset="0" style="mix-blend-mode: normal"><g data-paper-data="{&quot;index&quot;:null}"><g data-paper-data="{&quot;origRot&quot;:0,&quot;index&quot;:null}" stroke="#000000" stroke-width="3" stroke-linecap="round"><path d="M319.03714,211.11904c-1.95695,0.5495 -2.76773,-6.68013 -2.76773,-6.68013c0,0 -2.0454,-14.06145 -3.35457,-23.0615c-0.85964,-5.90981 -2.20277,-15.14314 -2.20277,-15.14314c0,0 -0.59352,-5.89471 0.48689,-6.10807c6.49999,-1.28352 12.53809,-3.8071 15.95773,-3.28712c1.13989,0.17331 3.13397,5.5291 3.13397,5.5291l10.0752,28.36374c0,0 3.39508,10.09043 3.6111,14.69302c0.11982,2.55266 -24.93984,5.69408 -24.93984,5.69408z" data-paper-data="{&quot;origPos&quot;:null}" fill="#582600"/><path d="M317.37086,203.93634l24.26973,-5.69937" fill="none"/><path d="M340.59523,194.82416l-24.21543,5.93052" data-paper-data="{&quot;origPos&quot;:null}" fill="none"/></g><path d="M316.17293,199.88573l-5.03829,-38.43477l15.38722,-3.6628l1.40276,0.37383l12.77264,35.93645z" fill="#ffcb66" stroke="#000000" stroke-width="1" stroke-linecap="round"/><path d="M316.82556,203.98252l-0.54044,-2.26759l24.80606,-5.91202l0.54044,2.26759z" fill="#ffffff" stroke="none" stroke-width="0" stroke-linecap="butt"/></g><path d="M205.36674,290.77659v-221.55318h189.26654v221.55319z" fill="none" stroke="none" stroke-width="NaN" stroke-linecap="butt"/><g data-paper-data="{&quot;origRot&quot;:0}" stroke="#000000" stroke-linecap="round"><path d="M302.12372,217.61942c0,0 -0.75659,-4.74071 0.77396,-4.93822c4.51645,-0.58278 8.65537,-2.82519 13.08756,-1.77955c1.84048,0.4342 3.12581,4.52575 3.12581,4.52575l8.88652,31.89288c0,0 0.96053,3.28121 1.44596,5.18591c0.51901,2.03646 -0.07758,5.29188 -2.14338,5.67792c-7.58495,1.41749 -12.04884,3.69797 -16.9988,3.37346c-1.80335,-0.11823 -3.70943,-0.36209 -4.65085,-1.90474c-1.22977,-2.0151 -1.18116,-6.49656 -1.18116,-6.49656z" data-paper-data="{&quot;origPos&quot;:null}" fill="#ff0000" stroke-width="3"/><path d="M329.97351,255.81662c0,0 -5.46429,3.50486 -10.491,4.28607c-3.85667,0.59936 -12.3672,0.88579 -12.3672,0.88579c0,0 -1.73717,-2.36885 -2.0709,-3.93638c-0.35157,-1.6513 0.31488,-4.31148 0.31488,-4.31148l22.91133,-4.36763z" data-paper-data="{&quot;origPos&quot;:null}" fill="#976e57" stroke-width="2"/><path d="M302.25343,217.92396c0,0 -0.75659,-4.74071 0.77397,-4.93821c4.51644,-0.58278 8.65537,-2.82519 13.08758,-1.77953c1.84048,0.4342 3.1258,4.52574 3.1258,4.52574l8.88652,31.89288c0,0 0.96055,3.28121 1.44598,5.18591c0.51901,2.03646 -0.07759,5.29187 -2.14338,5.67792c-7.58495,1.41749 -12.04884,3.69798 -16.9988,3.37347c-1.80335,-0.11823 -3.70943,-0.36211 -4.65084,-1.90474c-1.22977,-2.0151 -1.18117,-6.49656 -1.18117,-6.49656z" data-paper-data="{&quot;origPos&quot;:null}" fill="#474747" stroke-width="3"/></g><g data-paper-data="{&quot;index&quot;:null,&quot;origRot&quot;:0}" stroke="#000000" stroke-linecap="round"><path d="M299.34587,252.80478c0,0 0.25022,4.47474 -0.8876,6.54314c-0.87105,1.58346 -2.76422,1.91284 -4.56042,2.11212c-4.93033,0.54697 -9.49233,-1.53035 -17.13339,-2.60503c-2.08108,-0.2927 -2.82358,-3.51795 -2.39675,-5.57571c0.39922,-1.92461 1.21111,-5.24572 1.21111,-5.24572l7.4422,-32.2605c0,0 1.09988,-4.14524 2.91894,-4.66182c4.38065,-1.24405 8.61629,0.80979 13.15438,1.18874c1.53789,0.12842 0.99543,4.89837 0.99543,4.89837z" data-paper-data="{&quot;origPos&quot;:null}" fill="#ff0000" stroke-width="3"/><path d="M275.35352,249.09758l23.08465,3.33207c0,0 0.7855,2.62749 0.5086,4.29293c-0.26284,1.58097 -1.89165,4.0256 -1.89165,4.0256c0,0 -8.5148,0.09687 -12.39452,-0.32831c-5.05676,-0.55419 -10.67325,-3.80957 -10.67325,-3.80957z" data-paper-data="{&quot;origPos&quot;:null}" fill="#976e57" stroke-width="2.5"/><path d="M299.23004,253.11487c0,0 0.25022,4.47474 -0.8876,6.54314c-0.87105,1.58346 -2.76422,1.91285 -4.56042,2.11212c-4.93033,0.54697 -9.49232,-1.53033 -17.13339,-2.60502c-2.08108,-0.2927 -2.82358,-3.51796 -2.39675,-5.57571c0.39922,-1.92461 1.21111,-5.24572 1.21111,-5.24572l7.4422,-32.2605c0,0 1.09987,-4.14524 2.91894,-4.66182c4.38065,-1.24405 8.61631,0.80979 13.15439,1.18874c1.53789,0.12842 0.99542,4.89837 0.99542,4.89837c0,0 -0.1881,9.00336 -0.30849,14.76599c-0.16993,8.13325 -0.43542,20.84043 -0.43542,20.84043z" data-paper-data="{&quot;origPos&quot;:null}" fill="#474747" stroke-width="1.5"/></g><g><g><path d="M282.19163,169.53286c0,0 1.94111,-14.4094 4.09862,-14.95725c6.4725,-1.64357 21.26952,-0.71298 31.15944,-0.71298c1.52888,0 2.84914,13.5334 2.84914,13.5334l1.7807,30.62821c0,0 0.24329,14.95796 -1.42456,14.95796c-14.84697,0 -32.2486,0.85262 -38.86622,0.01169c-2.20586,-0.2803 -1.37783,-16.03807 -1.37783,-16.03807z" data-paper-data="{&quot;origPos&quot;:null}" fill="#ffcb66" stroke="#000000" stroke-width="3.5" stroke-linecap="round"/><path d="M301.03648,177.73166c-1.29167,0 -1.29167,-2.4875 -1.29167,-2.4875c0,-5.15926 0,-11.97684 0,-17.1361c0,0 0,-2.4875 1.29167,-2.4875c1.29167,0 1.29167,2.4875 1.29167,2.4875c0,5.15926 0,10.31851 0,15.47777v1.65833c0,0 0,2.4875 -1.29167,2.4875z" fill="#ffffff" stroke="none" stroke-width="0.5" stroke-linecap="butt"/><path d="M313.03648,184.06499c-1.29167,0 -1.29167,-3.125 -1.29167,-3.125c0,-6.48148 0,-15.04629 0,-21.52777c0,0 0,-3.125 1.29167,-3.125c1.29167,0 1.29167,3.125 1.29167,3.125c0,6.48148 0,12.96296 0,19.44445v2.08333c0,0 0,3.125 -1.29167,3.125z" fill="#ffffff" stroke="none" stroke-width="0.5" stroke-linecap="butt"/></g><g stroke="#000000" stroke-width="0.5" stroke-linecap="butt"><path d="M315.81523,194.03952c0,6.75773 -4.61499,12.23596 -10.30787,12.23596c-5.69288,0 -10.30787,-5.47823 -10.30787,-12.23596c0,-6.75773 4.61499,-12.23596 10.30787,-12.23596c5.69288,0 10.30787,5.47823 10.30787,12.23596z" fill="#ffa924"/><path d="M308.56784,182.75175c0.00042,0.01121 0.00064,0.02264 0.00064,0.03429c0,0.62472 -0.62472,0.62472 -0.62472,0.62472h-0.12494c-0.45645,0 -2.53723,0.0279 -2.84911,-0.10741c-0.26035,-0.11296 -0.20372,-0.54309 -0.39105,-0.75628c-0.17997,-0.20481 -0.43603,-0.33145 -0.67695,-0.45911c-0.38311,-0.20301 -0.90634,-0.19976 -1.18819,-0.52922c-0.26036,-0.30435 -0.29131,-0.7718 -0.26679,-1.17157c0.11516,-1.87748 1.26724,-1.89669 2.75543,-1.72741c0.44886,0.09887 0.91204,0.14686 1.34659,0.2966c0.19117,0.06587 0.30526,0.29409 0.50208,0.34041c0.1399,0.03293 0.27152,-0.0978 0.41262,-0.12514c0.00602,-0.00117 1.74906,-0.25012 1.76634,-0.25258c1.1784,-0.1673 2.43862,-0.21612 3.62786,-0.12987c0.75779,0.05496 2.47002,0.24268 2.90706,1.002c0.6224,1.08137 -1.1866,1.81308 -1.63938,1.99818c-1.33995,0.54778 -2.48368,0.20728 -3.84836,0.36625c-0.46486,0.05415 -1.21198,0.38014 -1.70913,0.59613z" fill="#1cc735"/></g></g><path d="M317.27052,158.34658c-12.08686,-0.06928 -23.80758,-0.17258 -28.58176,-1.25245c-4.36329,-0.98693 -5.63872,-3.76818 -5.63872,-3.76818c0,0 -1.71781,-2.46173 -1.7795,-3.9955c-0.18506,-4.6013 -0.09733,-17.75138 1.02795,-29.07254c0.03755,-0.37784 0.07235,-0.58883 0.13234,-0.96376c0.17997,-1.1248 1.06855,-5.48772 1.06855,-5.48772c0,0 3.21595,-1.60814 4.95606,-2.05373c5.22031,-1.33675 18.40761,0.36566 32.31346,1.0067c1.26039,0.05811 3.3948,1.77409 3.3948,1.77409c0,0 1.49005,3.1621 1.40952,5.144c-0.52052,12.81326 -1.14361,26.98832 -1.49816,30.22565c-0.11817,1.07911 -2.02346,5.23841 -2.02346,5.23841z" fill="#582600" stroke="#000000" stroke-width="2.5" stroke-linecap="round"/><path d="M318.3673,137.90421c0.13984,-3.44211 0.66658,-6.21572 1.17652,-6.195c0.50994,0.0207 0.80998,2.8279 0.67015,6.27001c-0.13984,3.44211 -0.66658,6.21573 -1.17652,6.19501c-0.50994,-0.0207 -0.80998,-2.8279 -0.67015,-6.27002z" fill="none" stroke="#000000" stroke-width="2.5" stroke-linecap="butt"/><path d="M311.84044,138.33714c0.14242,-3.50588 0.56794,-6.33535 0.95038,-6.31981c0.38245,0.01554 0.57705,2.87021 0.43463,6.37607c-0.14242,3.50588 -0.56791,6.33532 -0.95037,6.3198c-0.38245,-0.01554 -0.57706,-2.87019 -0.43464,-6.37605z" fill="none" stroke="#000000" stroke-width="2.5" stroke-linecap="butt"/><path d="M282.27865,113.33045l0.56584,-12.98768l43.75849,1.90645l-0.56584,12.98768z" fill="#000000" stroke="none" stroke-width="0" stroke-linecap="butt"/><path d="M306.78682,127.75623c0.0601,-1.37941 1.22705,-2.44891 2.60645,-2.38882c0.28323,0.01233 0.55339,0.07135 0.80339,0.16927c1.43917,-0.21195 8.99503,5.09758 6.77256,7.66818c-1.65839,1.91816 -6.88788,-1.44632 -8.681,-2.78004c-0.49387,-0.36734 -2.07135,-2.04522 -1.5014,-2.66859z" data-paper-data="{&quot;index&quot;:null}" fill="#582600" stroke="none" stroke-width="0.5" stroke-linecap="butt"/><g data-paper-data="{&quot;index&quot;:null}"><g data-paper-data="{&quot;origRot&quot;:0,&quot;index&quot;:null}" stroke="#000000" stroke-width="3" stroke-linecap="round"><path d="M284.628,210.05441c0,0 -25.09138,-2.87712 -24.99847,-5.4309c0.1675,-4.60462 3.45603,-14.73027 3.45603,-14.73027l9.77569,-28.46836c0,0 1.93752,-5.3765 3.07553,-5.56182c3.41398,-0.55599 9.47833,1.90382 15.9915,3.11874c1.08259,0.20196 0.55123,6.10259 0.55123,6.10259c0,0 -1.24573,9.24698 -2.04304,15.16552c-1.21424,9.01335 -3.11131,23.09557 -3.11131,23.09557c0,0 -0.73453,7.23776 -2.69716,6.70894z" data-paper-data="{&quot;origPos&quot;:null}" fill="#582600"/><path d="M261.89003,197.41133l24.32845,5.44324" fill="none"/><path d="M262.89935,193.98769l24.2766,5.67495" data-paper-data="{&quot;origPos&quot;:null}" fill="none"/></g><path d="M262.78966,193.26309l12.39316,-36.06908l1.39875,-0.3886l15.42497,3.50043l-4.6329,38.48573z" fill="#ffcb66" stroke="#000000" stroke-width="1" stroke-linecap="round"/><path d="M261.89724,197.24476l0.51651,-2.27315l24.86698,5.65024l-0.51651,2.27315z" fill="#ffffff" stroke="none" stroke-width="0" stroke-linecap="butt"/></g><path d="M322.56236,131.44709c-1.39275,1.19492 -5.41519,4.15632 -6.46699,2.12009c-1.40955,-2.72884 4.43593,-7.4545 5.4576,-7.13534c0.18758,-0.07886 0.38677,-0.11742 0.5919,-0.10848c0.99899,0.04353 1.76011,1.19704 1.70001,2.57643c0.36417,0.66407 -0.89892,2.21819 -1.28251,2.5473z" data-paper-data="{&quot;index&quot;:null}" fill="#582600" stroke="none" stroke-width="0.5" stroke-linecap="butt"/><g data-paper-data="{&quot;index&quot;:null}" stroke="#000000" stroke-width="1" stroke-linecap="butt"><g data-paper-data="{&quot;index&quot;:null}" fill="#000000"><path d="M304.27365,146.12422c7.52989,0.24181 4.87748,3.342 4.87748,3.342l-10.0433,-0.35755c0,0 -2.85325,-3.16737 5.16578,-2.98441z"/></g><g data-paper-data="{&quot;index&quot;:null}" fill="#ffffff"><path d="M304.27366,146.12422c1.54025,0.04948 2.65446,0.21853 3.45245,0.45618c0.01429,0.00426 -0.5687,0.64216 -0.59942,1.27227c-0.03752,0.76933 0.4737,1.55832 0.47138,1.55825c-1.69562,-0.06037 -8.49022,-0.30229 -8.49022,-0.30229c0,0 -2.85325,-3.16737 5.16578,-2.98441z"/></g></g><g data-paper-data="{&quot;index&quot;:null}"><path d="M216.09129,249.25031c-0.20496,-2.25285 -4.06064,-5.72516 -2.00582,-5.85124c1.36892,-0.08399 20.78486,3.36685 22.01641,4.72571c0.61705,0.68084 1.07925,1.81579 1.14769,2.5678c0.10056,1.10531 -0.38962,2.05404 -1.24025,2.75375c-0.88315,0.72645 -19.9671,2.27726 -21.01376,2.34149c-2.05481,0.12608 1.30073,-4.28466 1.09574,-6.53752z" fill="#e99b00" stroke="#000000" stroke-width="1.5" stroke-linecap="butt"/><g stroke-linecap="butt"><path d="M209.32278,249.69123c-0.37137,-4.08164 1.47327,-7.5221 4.12011,-7.68449c2.64685,-0.16239 5.09358,3.01478 5.46495,7.09643c0.37133,4.08164 -1.47331,7.5221 -4.12014,7.68449c-2.64683,0.16242 -5.09357,-3.01477 -5.46493,-7.09641z" fill="#ffb727" stroke="#000000" stroke-width="1.5"/><path d="M214.98044,245.6816l-1.76101,-3.23445c0,0 1.74495,0.55298 2.34388,1.04651c1.24099,1.05291 1.73129,2.56411 1.73129,2.56411z" fill="#ffd683" stroke="none" stroke-width="0"/><path d="M216.02469,248.88888l-0.41294,-1.46811c0,0 0.91946,-0.16024 1.24795,-0.15881c0.38463,0.00168 1.08407,0.21294 1.08407,0.21294l0.20968,1.78122z" fill="#ffd683" stroke="none" stroke-width="0"/></g><g><path d="M215.22539,249.43717c0.51229,5.63067 -2.45858,8.95223 -7.98857,9.29152c-5.52998,0.33927 -10.45446,-4.23881 -10.96678,-9.86954c-0.51232,-5.63069 3.04106,-9.85846 8.57105,-10.19775c5.52996,-0.33926 9.87198,5.14501 10.3843,10.77574z" fill="#e99b00" stroke="#000000" stroke-width="1.5" stroke-linecap="butt"/><path d="M203.23015,239.15815c2.74366,-0.16836 5.71112,1.01724 7.94696,2.58665c1.59293,1.11813 2.81739,2.90241 2.99847,4.89274c0.37219,4.0911 -1.28465,5.65574 -6.12296,5.95259c-2.4162,0.14823 -5.51488,-1.11011 -7.65869,-2.74116c-2.14902,-1.63502 -3.58148,-2.92615 -3.58148,-2.92615c0,0 1.57938,-7.46781 6.41769,-7.76466z" fill="#ffb727" stroke="none" stroke-width="0" stroke-linecap="butt"/><path d="M204.90342,238.9684c0,0 4.04701,2.54665 4.86756,9.04547c0.82728,6.55207 -2.27429,9.7456 -2.27429,9.7456" fill="none" stroke="#000000" stroke-width="0.8" stroke-linecap="round"/><path d="M209.40381,239.87317c0,0 2.46598,3.68779 3.4531,7.77697c1.42258,5.89302 -0.27515,8.33531 -0.27515,8.33531" fill="none" stroke="#000000" stroke-width="0.75" stroke-linecap="round"/><path d="M200.70109,240.12592c0,0 3.49488,2.75874 4.67566,9.2287c1.13572,6.22294 -0.60165,8.23441 -0.60165,8.23441" fill="none" stroke="#000000" stroke-width="0.8" stroke-linecap="round"/><path d="M203.50687,257.61063c0,0 -2.51441,-3.73755 -3.61762,-6.84506c-1.45312,-4.09309 -1.8008,-8.39875 -1.8008,-8.39875" fill="none" stroke="#000000" stroke-width="0.8" stroke-linecap="round"/><path d="M214.67153,251.63985c0,0 -2.86257,2.46501 -8.668,3.06222c-5.41748,0.5573 -8.08244,-2.03456 -8.08244,-2.03456" fill="none" stroke="#000000" stroke-width="0.8" stroke-linecap="round"/><path d="M197.45823,250.6153c0,0 2.77879,0.01709 5.76598,-0.43942c2.62696,-0.40147 5.39341,-1.26975 6.87253,-1.44666c1.75679,-0.21011 4.73434,-0.19192 4.73434,-0.19192" fill="none" stroke="#000000" stroke-width="0.8" stroke-linecap="round"/><path d="M196.72995,248.07334c0,0 4.02104,-3.17879 7.80682,-3.52048c5.9419,-0.5363 9.95043,1.41887 9.95043,1.41887" fill="none" stroke="#000000" stroke-width="0.8" stroke-linecap="round"/><path d="M196.87422,244.80305c0,0 2.82486,-2.45953 6.52529,-3.32437c5.32876,-1.24541 8.35879,-0.00677 8.35879,-0.00677" fill="none" stroke="#000000" stroke-width="0.8" stroke-linecap="round"/><path d="M203.82235,240.44052c0.03654,0.40148 -0.30269,0.74962 -0.75765,0.77751c-0.45497,0.02793 -0.85341,-0.27493 -0.88993,-0.67641c-0.03652,-0.4015 0.30268,-0.74962 0.75764,-0.77751c0.45497,-0.02795 0.85343,0.27491 0.88995,0.67639z" fill="#ffd683" stroke="none" stroke-width="0" stroke-linecap="butt"/><path d="M200.44693,241.8847c-0.22747,0.01395 -0.42897,-0.16251 -0.45004,-0.39413c-0.02107,-0.23162 0.14626,-0.43071 0.37374,-0.44466c0.22748,-0.01394 0.42897,0.16251 0.45004,0.39413c0.02108,0.23162 -0.14626,0.43071 -0.37374,0.44466z" fill="#ffd683" stroke="none" stroke-width="0" stroke-linecap="butt"/></g></g></g></g></svg>