<svg version="1.1" xmlns="http://www.w3.org/2000/svg" xmlns:xlink="http://www.w3.org/1999/xlink" width="189.26654" height="221.55319" viewBox="0,0,189.26654,221.55319"><g transform="translate(-205.36673,-69.22341)"><g data-paper-data="{&quot;isPaintingLayer&quot;:true}" fill-rule="nonzero" stroke-linejoin="miter" stroke-miterlimit="10" stroke-dasharray="" stroke-dashoffset="0" style="mix-blend-mode: normal"><g><g><path d="M311.99327,170.71838c-0.70081,-3.13848 12.87912,1.09321 15.17961,0.97546c2.5003,-0.12799 -8.85149,17.45305 -8.85149,17.45305l-1.96627,2.95305l12.65148,-19.7731c0,0 4.02504,-7.04928 5.78737,-5.62162c0,0 10.87257,2.42059 23.03764,16.85355c-1.95035,4.75697 -10.1919,13.45904 -10.1919,13.45904c0,0 -17.40472,20.16992 -22.07414,19.50721c-1.08127,-0.15346 -13.26517,-4.92446 -14.98259,-8.71041c-5.69914,-12.56352 1.41029,-37.09622 1.41029,-37.09622z" fill="#582700" stroke="#000000" stroke-width="2.5" stroke-linecap="round"/><path d="M319.81918,188.09012c-0.29842,0.40955 -0.60299,0.81564 -0.9069,1.22372c-0.06707,0.09006 -0.92537,1.03485 -1.12627,1.60305c5.464,4.21367 11.52123,7.5302 16.78703,12.05141c0.49154,0.36718 1.60614,1.03891 2.58672,1.82516c0.34954,0.14978 0.64359,0.22556 0.80521,0.15692c1.37429,-0.58355 2.47197,-2.13335 3.72087,-2.97741c-0.36174,-0.12699 -1.40277,-0.50904 -1.79646,-0.7441c-1.16918,-0.6981 -2.32686,-1.38455 -3.51609,-2.04641c-4.16875,-2.32007 -8.42191,-5.30247 -12.26686,-8.08444c-1.47783,-0.83721 -2.9721,-1.85687 -4.28726,-3.00792zM320.68211,186.85611c1.28669,1.14714 2.78043,2.15591 4.23632,2.9807c4.33411,3.16647 9.08153,6.17092 13.75224,8.87596c1.92449,1.11457 5.25904,2.07395 4.04104,4.35558c-1.31832,0.91423 -2.58962,2.5758 -4.09578,3.22202c0.2524,0.39416 0.37989,0.78844 0.30836,1.16423c-0.10069,0.52897 -1.89476,1.74941 -2.32626,2.15707c-2.57428,2.43212 -5.21392,5.83135 -9.09627,5.6883c-6.04547,1.4648 -14.06888,-2.89076 -18.03506,-7.20693c-1.62625,-4.10047 -1.31138,-7.51159 -0.77582,-11.78549c0.3867,-3.08588 0.1833,-6.06229 0.93718,-9.14074c0.4596,-4.42104 1.05377,-8.81532 1.51909,-13.23422c0.21357,-2.02811 -0.27478,-4.05549 1.84265,-4.90622c3.55232,0.58686 7.14316,1.18177 10.69609,1.85311c1.10752,0.20927 3.34187,0.70861 4.03721,1.70702c0.96631,1.3875 -0.24992,2.81513 -1.05848,3.92862c-1.43181,2.68323 -3.14241,5.54677 -5.0373,8.23668c0.11432,0.31234 -0.05532,0.6287 -0.05532,0.6287c-0.2734,0.50858 -0.57335,0.99779 -0.88989,1.47558zM334.98969,205.20043c-3.60243,-1.88754 -6.44609,-4.72933 -9.94276,-6.69531c-2.08388,-1.11721 -5.95358,-2.80192 -7.80189,-5.10663c-0.13775,-0.07237 -0.22292,-0.16255 -0.22292,-0.16255l-0.52578,-0.56136c-0.60454,-0.45029 -1.05861,-1.10218 -1.4062,-1.77107c2.4714,-5.45756 7.41594,-9.8232 10.3039,-15.18564c0.40652,-0.5586 1.03649,-1.31748 1.25915,-1.96688c0.13695,-0.39941 -2.26185,-1.19045 -2.5564,-1.27106c-3.58629,-0.98133 -7.38237,-1.11861 -11.00258,-1.95719c-0.38206,-0.00138 -0.39031,2.95427 -0.45561,3.56981c-0.47216,4.45082 -1.05514,8.8793 -1.5328,13.3317c-0.74664,3.06288 -0.54949,6.00375 -0.9273,9.07563c-0.48087,3.90987 -0.84602,7.02937 0.55692,10.79296c3.7845,3.84587 11.02633,7.86818 16.60974,6.51534c3.79251,0.08179 7.5874,-4.24267 10.10792,-6.64608c0.02673,-0.02549 -1.30826,-1.07575 -2.40819,-1.93224c-0.01866,-0.0101 -0.03706,-0.01992 -0.0552,-0.02943z" fill="#000000" stroke="none" stroke-width="0.5" stroke-linecap="butt"/><path d="M324.07195,191.06185c3.84495,2.78197 8.1799,5.81682 12.34864,8.13689c1.18924,0.66186 2.34564,1.35161 3.51482,2.04971c0.39369,0.23507 1.43475,0.61705 1.79648,0.74404c-1.24891,0.84407 -2.35669,2.40912 -3.73098,2.99268c-0.16162,0.06862 -0.45713,-0.00572 -0.80666,-0.15549c-0.98058,-0.78625 -2.09811,-1.45542 -2.58964,-1.82259c-5.26581,-4.52122 -11.39928,-7.89896 -16.86329,-12.11263c0.20089,-0.56819 1.06302,-1.51938 1.13009,-1.60943c0.30391,-0.40808 0.61212,-0.81872 0.91054,-1.22827c1.31516,1.15105 2.81216,2.16789 4.28999,3.0051z" data-paper-data="{&quot;noHover&quot;:false,&quot;origItem&quot;:[&quot;Path&quot;,{&quot;applyMatrix&quot;:true,&quot;segments&quot;:[[[926.17844,407.1979],[3.2606,1.25965],[-0.27949,0.97418]],[[925.31465,410.11917],[0.29084,-0.97519],[-0.06418,0.21521]],[[924.29914,413.90358],[-0.01258,-1.20526],[13.15638,4.16543]],[[964.1057,425.02121],[-12.99513,-4.87922],[1.17537,0.35239]],[[970.21765,426.67451],[-2.3817,-0.804],[0.75941,0.04146]],[[971.83798,426.41666],[-0.25651,0.23985],[2.18115,-2.03947]],[[976.78433,418.26967],[-1.76682,2.44279],[-0.76669,0.00973]],[[972.89889,418.10481],[0.90089,0.17138],[-2.67549,-0.50896]],[[964.88923,416.67374],[2.68829,0.42712],[-9.42353,-1.49721]],[[936.29671,409.90591],[9.13228,2.58714],[-3.35077,-0.55846]]],&quot;closed&quot;:true}]}" fill="#ffffff" stroke="none" stroke-width="0.5" stroke-linecap="butt"/><path d="M333.60113,204.10245c0.1819,0.13597 3.93161,3.05277 3.8874,3.09492c-2.52052,2.40341 -6.34181,6.74179 -10.13431,6.65999c-5.58341,1.35284 -12.86819,-2.68187 -16.65268,-6.52775c-1.40294,-3.76359 -1.05258,-6.90845 -0.57171,-10.81832c0.37781,-3.07188 0.1842,-6.04564 0.93084,-9.10852c0.47765,-4.45239 1.0811,-8.90288 1.55325,-13.35369c0.0653,-0.61554 0.07738,-3.57316 0.45943,-3.57177c3.62021,0.83858 7.43838,0.97131 11.02467,1.95264c0.29456,0.08061 2.69987,0.87223 2.56291,1.27164c-0.22267,0.64941 -0.86549,1.50742 -1.272,2.06602c-2.88796,5.36244 -7.77935,9.69226 -10.25076,15.14982c0.34759,0.66888 0.8034,1.31169 1.40794,1.76199l0.526,0.55749c0,0 0.41499,0.54341 0.96024,0.02843c0.05459,-0.05156 0.19849,-0.10021 0.2334,-0.15179c5.0981,3.73842 10.50209,6.84573 15.33538,10.9889z" data-paper-data="{&quot;noHover&quot;:false,&quot;origItem&quot;:[&quot;Path&quot;,{&quot;applyMatrix&quot;:true,&quot;segments&quot;:[[[926.61254,417.73069],[12.14285,3.5238],[-0.03018,0.12086]],[[926.46822,418.11346],[0.06716,-0.13431],[-0.67082,1.34164]],[924.45576,418.78428],[[923.08279,418.0906],[0,0],[-1.44471,-0.43097]],[[919.22563,415.72869],[1.11205,1.01797],[0.89694,-11.9485]],[[928.15956,380.1298],[-1.74473,12.05571],[0.38029,-1.32836]],[[929.175,375.57071],[0.02742,1.37277],[-0.01686,-0.84429]],[[923.5003,374.93752],[0.60865,-0.05075],[-7.41054,0.61792]],[[901.48814,378.8123],[7.37628,-0.90935],[-0.71866,0.25961]],[[903.08234,385.83106],[-0.2998,-1.20115],[2.16779,8.68513]],[[909.35292,411.92731],[-2.15853,-8.69186],[0.69956,6.26621]],[[913.83986,429.61277],[-1.39861,-6.02998],[1.78014,7.67491]],[[922.29365,449.50563],[-5.21858,-6.1072],[9.74892,4.62723]],[[957.96755,450.34516],[-9.56021,6.37347],[7.18055,-2.44927]],[[972.39433,430.92276],[-3.08539,6.24485],[0.05411,-0.10951]],[[963.14745,427.86406],[0.43501,0.13058],[-11.92317,-4.46591]]],&quot;closed&quot;:true}]}" fill="#66c8ff" stroke="none" stroke-width="0.5" stroke-linecap="butt"/></g><g data-paper-data="{&quot;index&quot;:null}" fill="#fffc96" stroke="#000000" stroke-width="2" stroke-linecap="round"><path d="M307.77357,178.16556c0.52201,-1.9405 3.59745,-1.16227 3.59745,-1.16227l-0.26767,1.85241c0,0 3.72379,3.06718 9.17264,6.27899c-0.55968,1.19039 -0.92695,2.09106 -1.11978,2.87172c-6.42981,-3.56529 -11.95202,-7.72428 -11.38264,-9.84085z"/><path d="M305.9374,191.41416c0.30028,-2.79056 3.77764,-2.87523 3.77764,-2.87523l-0.15675,1.36798c0,0 3.82101,-0.38496 9.6107,-1.95148c-0.25992,1.01932 -0.22575,1.83059 0.06336,2.80405c-7.1549,1.90803 -13.51251,2.67642 -13.29496,0.65467z" data-paper-data="{&quot;index&quot;:null}"/></g></g><g stroke="#000000" stroke-linecap="round"><path d="M289.93659,181.84507c0,0 -27.74163,7.89121 -29.05952,-10.04101c-0.48556,-6.60682 15.81827,-6.15842 15.81827,-6.15842z" data-paper-data="{&quot;origPos&quot;:null}" fill="#66c8ff" stroke-width="2"/><path d="M281.08838,170.75292c0,0 -16.01352,-0.7724 -15.84869,-1.3993c0.52266,-1.98766 12.31423,-2.25671 12.31423,-2.25671z" data-paper-data="{&quot;origPos&quot;:null}" fill="#0a0a0a" stroke-width="1"/></g><path d="M205.36673,290.77659v-221.55318h189.26654v221.55319z" fill="none" stroke="none" stroke-width="NaN" stroke-linecap="butt"/><g data-paper-data="{&quot;origRot&quot;:0}" stroke="#000000" stroke-linecap="round"><path d="M302.57022,226.42552c0,0 -1.29662,-4.62229 0.20108,-4.99446c4.41949,-1.09818 8.27317,-3.80155 12.79619,-3.27242c1.8782,0.21971 3.6254,4.13636 3.6254,4.13636l12.49431,30.65972c0,0 1.33139,3.14901 2.03259,4.98528c0.7497,1.96329 0.53133,5.26571 -1.47639,5.8867c-7.37169,2.28013 -11.54379,5.0587 -16.49824,5.30543c-1.80499,0.08989 -3.72646,0.06679 -4.83901,-1.3574c-1.45329,-1.86035 -1.92023,-6.31769 -1.92023,-6.31769z" data-paper-data="{&quot;origPos&quot;:null}" fill="#ff0000" stroke-width="3"/><path d="M334.62682,261.16756c0,0 -5.0251,4.10984 -9.92867,5.46379c-3.76219,1.03879 -12.18336,2.30176 -12.18336,2.30176c0,0 -1.998,-2.15342 -2.50973,-3.67218c-0.53909,-1.59993 -0.18289,-4.31909 -0.18289,-4.31909l22.25726,-6.97277z" data-paper-data="{&quot;origPos&quot;:null}" fill="#976e57" stroke-width="2"/><path d="M302.73404,226.71312c0,0 -1.29662,-4.62229 0.20108,-4.99445c4.41948,-1.09817 8.27317,-3.80156 12.7962,-3.2724c1.8782,0.21971 3.62539,4.13636 3.62539,4.13636l12.4943,30.65972c0,0 1.33142,3.14902 2.03262,4.98528c0.7497,1.96329 0.53133,5.2657 -1.47639,5.8867c-7.37169,2.28013 -11.54379,5.05871 -16.49824,5.30544c-1.80499,0.08989 -3.72646,0.06676 -4.83899,-1.35741c-1.45329,-1.86035 -1.92025,-6.31768 -1.92025,-6.31768z" data-paper-data="{&quot;origPos&quot;:null}" fill="#4b4b4b" stroke-width="3"/></g><path d="M298.63818,261.24657c0,0 0.04641,4.48149 -1.18433,6.496c-0.94218,1.54219 -2.84837,1.78513 -4.65177,1.90249c-4.95011,0.32212 -9.41287,-1.96055 -16.99714,-3.38172c-2.06561,-0.38707 -2.66063,-3.64277 -2.14063,-5.67896c0.48636,-1.90446 1.44848,-5.18519 1.44848,-5.18519l8.90202,-31.88856c0,0 1.28729,-4.09091 3.12798,-4.52421c4.43271,-1.04348 8.57055,1.2009 13.0867,1.7859c1.53046,0.19825 0.77156,4.93857 0.77156,4.93857c0,0 -0.59746,8.98549 -0.97987,14.73667c-0.53973,8.1171 -1.38299,20.79905 -1.38299,20.79905z" fill="#4b4b4b" stroke="#000000" stroke-width="3" stroke-linecap="round"/><g><g><path d="M279.14151,184.93947c0,0 0.91993,-14.51042 3.03342,-15.20909c6.34045,-2.096 21.16626,-2.21142 31.03154,-2.90899c1.52507,-0.10784 3.79661,13.29873 3.79661,13.29873l3.93658,30.42633c0,0 1.29773,14.90355 -0.36597,15.02119c-14.80999,1.04721 -32.10815,3.12511 -38.7686,2.75304c-2.22013,-0.12402 -2.50562,-15.90094 -2.50562,-15.90094z" data-paper-data="{&quot;origPos&quot;:null}" fill="#66c8ff" stroke="#000000" stroke-width="3.5" stroke-linecap="round"/><path d="M298.51772,191.78866c-1.28845,0.0911 -1.46391,-2.3902 -1.46391,-2.3902c-0.3639,-5.14641 -0.84477,-11.94701 -1.20867,-17.09342c0,0 -0.17545,-2.4813 1.113,-2.57241c1.28845,-0.0911 1.46391,2.39019 1.46391,2.39019c0.3639,5.14641 0.7278,10.29281 1.0917,15.43922l0.11696,1.6542c0,0 0.17545,2.48131 -1.113,2.57242z" fill="#ffffff" stroke="none" stroke-width="0.5" stroke-linecap="butt"/><path d="M310.93455,197.25982c-1.28845,0.0911 -1.50887,-3.02611 -1.50887,-3.02611c-0.45717,-6.46534 -1.06127,-15.00882 -1.51843,-21.47415c0,0 -0.22042,-3.11721 1.06804,-3.20832c1.28845,-0.0911 1.50887,3.02611 1.50887,3.02611c0.45717,6.46534 0.91432,12.93068 1.37149,19.39602l0.14695,2.07814c0,0 0.22042,3.11722 -1.06804,3.20833z" fill="#ffffff" stroke="none" stroke-width="0.5" stroke-linecap="butt"/></g><g fill="none" stroke="#b9b9b9" stroke-width="3"><path d="M311.39167,171.99679c-0.92126,-1.29634 -0.09613,-2.5773 1.03786,-3.87856c1.13401,-1.30123 2.33212,-1.75881 3.06873,-0.83369c1.56179,1.96155 0.14497,3.03968 -0.74298,4.05859c-1.13401,1.30125 -2.06255,2.48444 -3.3636,0.65367z" stroke-linecap="butt"/><path d="M309.92601,174.03394l2.40582,-2.69584" stroke-linecap="round"/><path d="M306.43273,174.91186c1.13401,-1.30123 2.33213,-1.75881 3.06873,-0.83369c1.56179,1.96155 0.14497,3.03968 -0.74298,4.05859c-1.13399,1.30124 -2.06254,2.48443 -3.3636,0.65366c-0.92126,-1.29634 -0.09615,-2.57731 1.03785,-3.87857z" stroke-linecap="butt"/><path d="M303.92921,180.82758l2.4058,-2.69586" stroke-linecap="round"/><path d="M298.28902,180.77299c0.28433,-1.65927 1.62996,-1.59941 3.17835,-1.24893c1.54839,0.35049 2.58325,1.25649 2.42888,2.51813c-0.3273,2.67502 -1.90299,1.91726 -3.11541,1.64282c-1.54838,-0.35048 -2.89336,-0.5687 -2.4918,-2.91201z" stroke-linecap="butt"/><path d="M299.2974,181.30893l-3.24249,-0.78141" stroke-linecap="round"/><path d="M290.79859,176.91596c0.7979,-1.37643 2.0253,-0.67414 3.34694,0.39079c1.32165,1.06493 1.9886,2.38936 1.43921,3.46569c-1.16487,2.28213 -2.38062,0.83259 -3.41553,-0.00127c-1.32165,-1.06494 -2.49745,-1.91135 -1.37063,-3.8552z" stroke-linecap="butt"/><path d="M288.80783,175.61674l2.75239,2.27336" stroke-linecap="round"/><path d="M283.8791,171.26533c0.7979,-1.37641 2.02529,-0.67414 3.34694,0.39079c1.32166,1.06493 1.9886,2.38936 1.43921,3.46569c-1.16487,2.28212 -2.38062,0.83259 -3.41553,-0.00127c-1.32165,-1.06493 -2.49743,-1.91134 -1.37061,-3.8552z" stroke-linecap="butt"/><path d="M281.88834,169.96609l2.7524,2.27336" stroke-linecap="round"/></g></g><path d="M305.97409,157.8805c0,0 -2.72083,0.44992 -6.06883,0.42912" fill="none" stroke="#000000" stroke-width="2.5" stroke-linecap="round"/><path d="M314.66525,171.52511c-12.06636,0.70712 -23.76952,1.35679 -28.6032,0.58576c-4.41767,-0.70466 -5.86908,-3.39827 -5.86908,-3.39827c0,0 -1.87236,-2.34632 -2.03243,-3.87295c-0.48018,-4.57992 -1.23719,-17.70848 -0.84131,-29.07853c0.01321,-0.37948 0.03438,-0.59227 0.07018,-0.97028c0.10737,-1.13403 0.71389,-5.54502 0.71389,-5.54502c0,0 3.10603,-1.81136 4.81393,-2.36778c5.12367,-1.66926 18.39309,-0.8173 32.3114,-1.07065c1.26152,-0.02295 3.50173,1.5524 3.50173,1.5524c0,0 1.69005,3.05988 1.73698,5.04286c0.30345,12.82024 0.59203,27.00605 0.44613,30.25946c-0.04862,1.08447 -1.68285,5.35756 -1.68285,5.35756z" fill="#592800" stroke="#000000" stroke-width="2.5" stroke-linecap="round"/><path d="M273.86188,130.25851c-0.71477,-1.02547 0.31069,-1.74025 0.31069,-1.74025l1.27001,-0.83522c0.1164,-0.04264 0.23273,-0.08452 0.34905,-0.12563c-1.32192,-5.72193 -0.57037,-12.75527 -0.89931,-18.46427c-0.0853,-1.48055 -0.67001,-5.47324 -0.02075,-6.78062c1.0872,-2.18925 2.82704,-1.68496 4.72027,-1.78888c3.22128,-0.17682 6.41875,-0.31289 9.57996,-0.95947c7.83669,-1.59332 15.6575,-2.27812 23.55844,-3.38738c2.4932,-0.35002 4.93515,-0.57432 7.46501,-0.49607c0.69222,0.0214 1.56054,-0.27746 2.06867,0.19312c1.79964,1.66659 1.17349,3.66214 0.96148,5.63861c-0.42293,3.94243 -1.84757,7.55361 -1.75269,11.56221c0.05209,3.06724 -0.25154,6.23378 -0.47925,9.29086c-0.07859,1.05497 0.3661,2.97656 -0.65133,3.82052c-2.08619,1.73051 -7.79211,0.82656 -10.33191,0.87922c-7.74434,0.16054 -15.49844,0.16168 -23.22181,0.76328c-2.75594,0.30971 -5.3791,0.68614 -7.99191,1.40424c-0.00631,0.37348 -0.15786,0.86016 -0.83015,1.09986c-0.7294,0.26006 -1.16804,-0.09287 -1.39624,-0.39908c-0.08865,0.03165 -0.17732,0.06379 -0.26602,0.09641l-0.70192,0.53927c0,0 -1.02547,0.71477 -1.74025,-0.3107z" fill="#000000" stroke="none" stroke-width="0.5" stroke-linecap="butt"/><path d="M294.29393,147.53302c4.60467,-2.63081 8.94415,-0.58611 10.72337,4.14542c2.04056,5.4265 -1.68141,8.68328 -1.68141,8.68328c0,0 -2.59124,-0.9882 -5.84948,-1.25498c-4.05704,-0.33217 -6.25965,0.20532 -6.25965,0.20532c0,0 -3.17955,-8.21008 3.06717,-11.77906z" fill="#ffffff" stroke="#0a0a0a" stroke-width="2" stroke-linecap="butt"/><path d="M320.22853,147.41842c6.15602,3.72324 2.77325,11.85169 2.77325,11.85169c0,0 -2.18856,-0.5921 -6.2526,-0.36094c-3.26388,0.18565 -5.87889,1.1091 -5.87889,1.1091c0,0 -3.6398,-3.34835 -1.46492,-8.72242c1.89634,-4.68581 6.28535,-6.62194 10.82315,-3.87742z" data-paper-data="{&quot;index&quot;:null}" fill="#ffffff" stroke="#0a0a0a" stroke-width="2" stroke-linecap="butt"/><g><path d="M289.85984,173.158c0,0 7.06488,24.54557 1.34294,37.09872c-1.72428,3.78283 -13.91683,8.5317 -14.99838,8.6832c-4.67061,0.65423 -22.03869,-19.54725 -22.03869,-19.54725c0,0 -8.22573,-8.71702 -10.16745,-13.47752c12.19125,-14.41085 23.06819,-16.8117 23.06819,-16.8117c1.76492,-1.42446 5.77715,5.63212 5.77715,5.63212l12.61557,19.79603l-1.96091,-2.95661c0,0 -11.31985,-17.60162 -8.81979,-17.46909c2.30027,0.12192 15.88786,-4.08511 15.18135,-0.9479z" fill="#582700" stroke="#000000" stroke-width="2.5" stroke-linecap="round"/><path d="M282.00239,190.51548c-1.31725,1.14866 -2.81337,2.1656 -4.29271,3.00013c-3.84999,2.77498 -8.10856,5.74966 -12.28151,8.06216c-1.19043,0.6597 -2.34936,1.34405 -3.5198,2.04002c-0.39412,0.23435 -1.43584,0.61451 -1.79781,0.74084c1.24737,0.84633 2.34223,2.39811 3.71546,2.98416c0.16149,0.06893 0.45568,-0.00632 0.80549,-0.15546c0.98201,-0.78447 2.09783,-1.45418 2.59003,-1.82047c5.274,-4.51165 11.33724,-7.81718 16.80888,-12.02092c-0.19986,-0.56856 -1.05645,-1.51491 -1.12336,-1.60509c-0.30317,-0.40863 -0.60701,-0.81527 -0.90468,-1.22537zM281.1417,189.27991c-0.31568,-0.47837 -0.61473,-0.96812 -0.88721,-1.4772c0,0 -0.16906,-0.31667 -0.05418,-0.6288c-1.89,-2.69335 -3.5954,-5.55999 -5.02233,-8.24581c-0.80654,-1.11496 -2.02018,-2.54479 -1.05135,-3.93054c0.69715,-0.99714 2.9324,-1.49243 4.0403,-1.69969c3.55415,-0.66489 7.14606,-1.25328 10.69944,-1.83369c2.11589,0.85457 1.62385,2.88106 1.83374,4.90955c0.4573,4.41975 1.0435,8.81509 1.49507,13.23696c0.74828,3.07981 0.53949,6.05585 0.92058,9.14243c0.52781,4.27486 0.83648,7.68655 -0.79721,11.78406c-3.97401,4.30897 -12.00531,8.64995 -18.04811,7.17418c-3.8826,0.13599 -6.51607,-3.26801 -9.08593,-5.70481c-0.43076,-0.40844 -2.22261,-1.63214 -2.32234,-2.16129c-0.07085,-0.37591 0.05735,-0.76996 0.31047,-1.16367c-1.50499,-0.64896 -2.77327,-2.31283 -4.08993,-3.22945c-1.21385,-2.28384 2.12243,-3.23717 4.04894,-4.34824c4.67561,-2.69656 9.42848,-5.69238 13.76833,-8.85098c1.45739,-0.82215 2.95295,-1.8282 4.24173,-2.97301zM266.80085,207.59825c-0.01816,0.00948 -0.03658,0.01927 -0.05526,0.02933c-1.10148,0.85449 -2.43837,1.90233 -2.41169,1.92786c2.51615,2.40798 6.30318,6.73933 10.09584,6.66442c5.58094,1.36297 12.83006,-2.64618 16.62154,-6.48518c1.40977,-3.76104 1.05028,-6.88119 0.57651,-10.79193c-0.37223,-3.07256 -0.16975,-6.01307 -0.91083,-9.0773c-0.46957,-4.45326 -1.04451,-8.88279 -1.50859,-13.33446c-0.06418,-0.61566 -0.06707,-3.57132 -0.44913,-3.57063c-3.62172,0.83201 -7.41805,0.96239 -11.00611,1.93721c-0.2947,0.08007 -2.69493,0.86676 -2.55871,1.26642c0.22149,0.64981 0.85008,1.40983 1.25558,1.96916c2.87822,5.36767 7.81482,9.74228 10.27631,15.20432c-0.3488,0.66826 -0.80406,1.31932 -1.40941,1.76852l-0.5268,0.5604c0,0 -0.08534,0.09003 -0.22322,0.16215c-1.85249,2.30135 -5.72524,3.97903 -7.81114,5.09246c-3.50023,1.95963 -6.34905,4.79625 -9.9549,6.67725z" fill="#000000" stroke="none" stroke-width="0.5" stroke-linecap="butt"/><path d="M277.74425,193.47951c1.47935,-0.83453 2.97819,-1.84865 4.29544,-2.99731c0.29767,0.41009 0.60513,0.82129 0.9083,1.22992c0.0669,0.09018 0.9273,1.04293 1.12717,1.61148c-5.47164,4.20374 -11.61124,7.57035 -16.88525,12.082c-0.4922,0.36627 -1.61093,1.03341 -2.59294,1.81788c-0.34981,0.14914 -0.64545,0.22295 -0.80695,0.15403c-1.37322,-0.58606 -2.47816,-2.15311 -3.72554,-2.99945c0.36197,-0.12633 1.40372,-0.50642 1.79783,-0.74077c1.17044,-0.69598 2.32809,-1.38363 3.51853,-2.04333c4.17295,-2.3125 8.5134,-5.33948 12.3634,-8.11446z" data-paper-data="{&quot;noHover&quot;:false,&quot;origItem&quot;:[&quot;Path&quot;,{&quot;applyMatrix&quot;:true,&quot;segments&quot;:[[[926.17844,407.1979],[3.2606,1.25965],[-0.27949,0.97418]],[[925.31465,410.11917],[0.29084,-0.97519],[-0.06418,0.21521]],[[924.29914,413.90358],[-0.01258,-1.20526],[13.15638,4.16543]],[[964.1057,425.02121],[-12.99513,-4.87922],[1.17537,0.35239]],[[970.21765,426.67451],[-2.3817,-0.804],[0.75941,0.04146]],[[971.83798,426.41666],[-0.25651,0.23985],[2.18115,-2.03947]],[[976.78433,418.26967],[-1.76682,2.44279],[-0.76669,0.00973]],[[972.89889,418.10481],[0.90089,0.17138],[-2.67549,-0.50896]],[[964.88923,416.67374],[2.68829,0.42712],[-9.42353,-1.49721]],[[936.29671,409.90591],[9.13228,2.58714],[-3.35077,-0.55846]]],&quot;closed&quot;:true}]}" fill="#ffffff" stroke="none" stroke-width="0.5" stroke-linecap="butt"/><path d="M268.19142,206.50277c4.84081,-4.1344 10.25042,-7.23188 15.3553,-10.96104c0.03482,0.05165 0.17863,0.10056 0.23313,0.15221c0.54431,0.51597 0.96029,-0.02668 0.96029,-0.02668l0.52701,-0.55653c0.60536,-0.4492 1.06233,-1.09118 1.41114,-1.75943c-2.46149,-5.46204 -7.34502,-9.80073 -10.22324,-15.1684c-0.4055,-0.55933 -1.04676,-1.41851 -1.26825,-2.06833c-0.13623,-0.39965 2.27051,-1.18691 2.56521,-1.26698c3.58807,-0.97482 7.40647,-1.10062 11.02819,-1.93263c0.38205,-0.0007 0.38877,2.95694 0.45295,3.57259c0.46407,4.45166 1.05944,8.90323 1.52901,13.35648c0.74108,3.06422 0.54207,6.03763 0.91431,9.11019c0.47377,3.91074 0.81842,7.05623 -0.59135,10.81727c-3.79147,3.839 -11.08357,7.86048 -16.66451,6.49751c-3.79264,0.07492 -7.60605,-4.27039 -10.12221,-6.67837c-0.04413,-0.04223 3.71087,-2.95222 3.89301,-3.08786z" data-paper-data="{&quot;noHover&quot;:false,&quot;origItem&quot;:[&quot;Path&quot;,{&quot;applyMatrix&quot;:true,&quot;segments&quot;:[[[926.61254,417.73069],[12.14285,3.5238],[-0.03018,0.12086]],[[926.46822,418.11346],[0.06716,-0.13431],[-0.67082,1.34164]],[924.45576,418.78428],[[923.08279,418.0906],[0,0],[-1.44471,-0.43097]],[[919.22563,415.72869],[1.11205,1.01797],[0.89694,-11.9485]],[[928.15956,380.1298],[-1.74473,12.05571],[0.38029,-1.32836]],[[929.175,375.57071],[0.02742,1.37277],[-0.01686,-0.84429]],[[923.5003,374.93752],[0.60865,-0.05075],[-7.41054,0.61792]],[[901.48814,378.8123],[7.37628,-0.90935],[-0.71866,0.25961]],[[903.08234,385.83106],[-0.2998,-1.20115],[2.16779,8.68513]],[[909.35292,411.92731],[-2.15853,-8.69186],[0.69956,6.26621]],[[913.83986,429.61277],[-1.39861,-6.02998],[1.78014,7.67491]],[[922.29365,449.50563],[-5.21858,-6.1072],[9.74892,4.62723]],[[957.96755,450.34516],[-9.56021,6.37347],[7.18055,-2.44927]],[[972.39433,430.92276],[-3.08539,6.24485],[0.05411,-0.10951]],[[963.14745,427.86406],[0.43501,0.13058],[-11.92317,-4.46591]]],&quot;closed&quot;:true}]}" fill="#66c8ff" stroke="none" stroke-width="0.5" stroke-linecap="butt"/></g><g data-paper-data="{&quot;index&quot;:null}" stroke="#000000" stroke-width="1" stroke-linecap="butt"><g data-paper-data="{&quot;index&quot;:null}" fill="#000000"><path d="M292.34603,164.91205c-6.45913,-1.4683 -3.53619,-3.43041 -3.53619,-3.43041l8.11548,1.73609c0,0 1.49996,3.01701 -4.57927,1.69435z"/></g><g data-paper-data="{&quot;index&quot;:null}" fill="#ffffff"><path d="M292.34604,164.91208c-6.45913,-1.4683 -3.53619,-3.43041 -3.53619,-3.43041c0,0 5.49039,1.1745 6.86053,1.46761c0.00187,0.00042 -0.56644,0.52935 -0.69131,1.15305c-0.10228,0.51082 0.23617,1.13911 0.22386,1.13964c-0.68696,0.02964 -1.61336,-0.05934 -2.85687,-0.32988z"/></g></g><path d="M286.93182,202.54841l-0.09801,0.17954c-2.12411,-0.36853 -3.54951,-1.38263 -5.57135,-1.97414c-1.38954,-0.40653 -2.30923,-0.08531 -3.73793,-0.64195c-0.88709,-0.34564 -1.65252,-1.16697 -2.60455,-1.17203c-2.39523,-0.01275 -3.15528,1.96534 -5.92546,1.57949c-1.16496,-0.16227 -1.87553,-1.55237 -3.01951,-1.82588c-1.0461,-0.25011 -3.57109,1.75173 -4.64234,1.95711c-4.09139,0.78435 -6.73158,-0.88697 -9.55634,-3.51683c-2.86055,-2.66318 -7.68302,-7.12265 -6.74519,-11.7411c0.43071,-2.12102 2.67886,-2.23564 4.06971,-3.72959c2.95159,-3.17033 6.50805,-6.66098 10.01514,-9.24139c1.50026,-1.10383 7.45794,-2.5346 9.40597,-2.17823c1.15655,0.21157 1.98411,1.58947 2.84856,2.39048c4.88476,4.56434 7.96034,9.98465 11.27158,15.78769c1.77935,3.11838 2.18998,6.99097 4.38349,9.58973c1.33658,0.02968 1.59154,1.44995 1.59154,1.44995l-0.0764,0.13996c0.24198,0.26398 1.05516,1.3036 0.02597,2.40904c-0.57572,0.61839 -1.17206,0.66027 -1.63488,0.53815z" data-paper-data="{&quot;index&quot;:null}" fill="#000000" stroke="none" stroke-width="0.5" stroke-linecap="butt"/><path d="M293.71033,248.7413c1.56444,1.34715 3.87684,3.19928 4.36741,5.34002c0.30408,1.32695 -0.01851,2.10597 -0.3704,3.02036c0.72906,-0.0959 1.48056,-0.27176 1.94695,0.20352c2.7161,2.76788 -1.14161,6.39477 -1.68996,8.70916c-0.31563,1.33217 0.68228,2.85327 0.12813,4.10516c-1.73556,3.92091 -6.53967,4.17756 -10.05184,3.74421l-1.83294,-1.08649c0,0 -0.01415,-0.01061 -0.03853,-0.03112c-3.16788,1.35269 -8.08616,-0.37246 -11.41147,-0.36888c-4.81052,0 -9.36594,-0.64811 -14.12406,-1.0044c-5.34433,-0.40019 -12.01696,0.92386 -17.11048,-1.40721c-1.28269,-0.58703 -2.16641,-1.85502 -3.43516,-2.47159c-1.11563,-0.54216 -2.56648,0.04787 -3.69052,-0.47663c-0.95024,-0.44339 -1.65825,-1.28391 -2.48737,-1.92587c0.15286,-1.17627 -0.15394,-2.51303 0.45858,-3.5288c0.69137,-1.14653 1.71896,-1.21233 2.65157,-2.17293c2.15861,-2.22343 2.59205,-3.1233 7.0535,-3.01132c2.33691,0.05866 5.00278,-0.10352 7.43927,-0.48406c1.28362,-0.20048 2.41399,-1.02233 3.69459,-1.24127c3.42955,-0.58635 7.04312,-0.73477 10.54895,-0.47954c0.01519,-0.35425 2.25908,-0.48867 2.22335,-0.82415l1,-0.80556c0,0 1.39628,0.46121 1.52426,0.06309c0.03691,-0.11483 1.49576,0.28204 1.75792,0.20692c0.56342,-0.5226 2.98484,-0.63712 3.15006,-1.35157c0.18126,-0.78383 0.76539,-3.07132 1.27887,-3.69067c0.26525,-0.31994 -0.32495,-2.08273 0.76739,-2.45017c0.79729,-0.26819 0.30865,-0.45895 0.65997,-0.44077c0.48929,0.02533 -0.17111,1.25518 0.63931,1.2465c1.329,-0.01424 2.13628,2.29235 3.46069,2.4035c2.02568,0.17001 2.7999,-2.26965 4.33714,-1.46106c1.85056,0.97341 3.8532,0.57652 5.46511,1.29909c0.89022,-0.31275 1.68971,0.37253 1.68971,0.37253z" fill="#000000" stroke="none" stroke-width="0.5" stroke-linecap="butt"/></g></g></svg>