<svg version="1.1" xmlns="http://www.w3.org/2000/svg" xmlns:xlink="http://www.w3.org/1999/xlink" width="285.88988" height="256.25138" viewBox="0,0,285.88988,256.25138"><g transform="translate(-98.40708,-52.23707)"><g data-paper-data="{&quot;isPaintingLayer&quot;:true}" fill-rule="nonzero" stroke-linecap="butt" stroke-linejoin="miter" stroke-miterlimit="10" stroke-dasharray="" stroke-dashoffset="0" style="mix-blend-mode: normal"><path d="M234.92692,59.15419c14.69733,-15.43652 155.92498,242.12928 142.17951,243.08426c-31.36192,2.17891 -221.39345,0 -272.44934,0c-5.71815,0 58.72085,-118.18616 98.6338,-189.17267c16.15456,-28.73143 31.63603,-53.91159 31.63603,-53.91159z" fill="#ffb92b" stroke="#451800" stroke-width="12.5"/><path d="M235.69155,74.08876c12.90115,-13.92264 138.86922,218.38333 126.8036,219.24466c-27.52915,1.96523 -197.33672,-1 -242.15302,-1c-7.05088,0 115.34942,-218.24466 115.34942,-218.24466z" fill="none" stroke="#ffffff" stroke-width="7.5"/><g fill="#000000"><g stroke="#451800" stroke-width="25"><path d="M227.67883,238.4784v-106.78349h25.46376v106.78349z"/><path d="M223.16106,261.47793c0,-9.29989 7.53905,-16.83894 16.83894,-16.83894c9.29989,0 16.83894,7.53905 16.83894,16.83894c0,9.29989 -7.53905,16.83894 -16.83894,16.83894c-9.29989,0 -16.83894,-7.53905 -16.83894,-16.83894z"/></g><g stroke="#ffffff" stroke-width="12.5"><path d="M227.67883,238.4784v-106.78349h25.46376v106.78349z"/><path d="M223.16106,261.47793c0,-9.29989 7.53905,-16.83894 16.83894,-16.83894c9.29989,0 16.83894,7.53905 16.83894,16.83894c0,9.29989 -7.53905,16.83894 -16.83894,16.83894c-9.29989,0 -16.83894,-7.53905 -16.83894,-16.83894z"/></g><g stroke="none" stroke-width="0"><path d="M227.67883,238.4784v-106.78349h25.46376v106.78349z"/><path d="M223.16106,261.47793c0,-9.29989 7.53905,-16.83894 16.83894,-16.83894c9.29989,0 16.83894,7.53905 16.83894,16.83894c0,9.29989 -7.53905,16.83894 -16.83894,16.83894c-9.29989,0 -16.83894,-7.53905 -16.83894,-16.83894z"/></g></g></g></g></svg>