<svg version="1.1" xmlns="http://www.w3.org/2000/svg" xmlns:xlink="http://www.w3.org/1999/xlink" width="267.42642" height="257.0021" viewBox="0,0,267.42642,257.0021"><g transform="translate(-106.28679,-54.50195)"><g data-paper-data="{&quot;isPaintingLayer&quot;:true}" fill-rule="nonzero" stroke-linejoin="miter" stroke-miterlimit="10" stroke-dasharray="" stroke-dashoffset="0" style="mix-blend-mode: normal"><path d="M373.71321,311.1602l-267.27563,0.34385l-0.15079,-256.65825l267.27563,-0.34385z" fill="none" stroke="none" stroke-width="none" stroke-linecap="butt"/><g data-paper-data="{&quot;index&quot;:null}" stroke="#000000" stroke-linecap="round"><path d="M256.78037,159.9878c0,0 16.2316,-1.59725 16.21325,5.02736c-0.04977,17.98052 -28.27891,12.06568 -28.27891,12.06568z" data-paper-data="{&quot;origPos&quot;:null}" fill="#66c8ff" stroke-width="2"/><path d="M256.0263,161.49603c0,0 11.78117,-0.56333 12.44273,1.38252c0.20864,0.61371 -15.71052,2.51368 -15.71052,2.51368z" data-paper-data="{&quot;origPos&quot;:null}" fill="#0a0a0a" stroke-width="1"/></g><g data-paper-data="{&quot;index&quot;:null}"><g data-paper-data="{&quot;origRot&quot;:0,&quot;index&quot;:null}" stroke="#000000" stroke-width="3" stroke-linecap="round"><path d="M215.87764,220.9188c0,0 -23.78657,-8.48849 -23.11736,-10.95477c1.20664,-4.44686 6.70429,-13.56381 6.70429,-13.56381l15.97287,-25.51235c0,0 3.10553,-4.79752 4.25593,-4.72014c3.45118,0.23216 8.8003,4.00226 14.86869,6.6616c1.00867,0.44206 -0.84606,6.06874 -0.84606,6.06874c0,0 -3.30887,8.7241 -5.42669,14.30797c-3.22528,8.50368 -8.26431,21.78961 -8.26431,21.78961c0,0 -2.35566,6.88302 -4.14736,5.92317z" data-paper-data="{&quot;origPos&quot;:null}" fill="#582700"/><path d="M196.59641,203.45177l22.46194,10.81495" fill="none"/><path d="M198.35532,200.34591l22.35894,11.02886" data-paper-data="{&quot;origPos&quot;:null}" fill="none"/></g><path d="M198.41271,199.61535l20.24471,-32.32215l1.45043,-0.0615l14.23039,6.90496l-13.23401,36.43455z" fill="#66c8ff" stroke="#000000" stroke-width="1" stroke-linecap="round"/><path d="M196.64116,203.29117l1.01822,-2.09697l22.93957,11.1386l-1.0182,2.09697z" fill="#ffffff" stroke="none" stroke-width="0" stroke-linecap="butt"/></g><g data-paper-data="{&quot;index&quot;:null,&quot;origRot&quot;:0}" stroke="#000000" stroke-linecap="round"><path d="M228.70989,264.56365c0,0 -0.42061,4.35389 -1.86869,6.18512c-1.10857,1.40188 -3.05137,1.44588 -4.87768,1.37835c-5.01297,-0.18539 -9.26414,-2.84962 -16.74507,-4.99183c-2.03749,-0.58345 -2.29653,-3.80289 -1.56112,-5.72669c0.68782,-1.79932 1.99774,-4.88645 1.99774,-4.88645l12.27984,-30.05178c0,0 1.7215,-3.84064 3.61826,-4.076c4.56775,-0.56673 8.49601,2.02768 12.97789,3.04973c1.51885,0.34638 0.26117,4.87046 0.26117,4.87046z" data-paper-data="{&quot;origPos&quot;:null}" fill="#ff0000" stroke-width="3"/><path d="M205.27019,257.51624l22.58811,6.55419c0,0 0.39166,2.6489 -0.13496,4.21584c-0.49991,1.48746 -2.49543,3.61069 -2.49543,3.61069c0,0 -8.53045,-1.13814 -12.34693,-2.10958c-4.97432,-1.26616 -10.10349,-5.2197 -10.10349,-5.2197z" data-paper-data="{&quot;origPos&quot;:null}" fill="#976e57" stroke-width="2.5"/><path d="M228.54753,264.8461c0,0 -0.42061,4.35389 -1.86869,6.18512c-1.10857,1.40188 -3.05137,1.44589 -4.87768,1.37836c-5.01297,-0.18539 -9.26414,-2.84962 -16.74507,-4.99183c-2.03748,-0.58346 -2.29653,-3.80289 -1.56112,-5.7267c0.68782,-1.79932 1.99774,-4.88645 1.99774,-4.88645l12.27984,-30.05177c0,0 1.72149,-3.84064 3.61826,-4.07601c4.56775,-0.56673 8.49603,2.02768 12.97789,3.04973c1.51884,0.34636 0.26115,4.87044 0.26115,4.87044c0,0 -1.53796,8.66017 -2.52233,14.20311c-1.3893,7.82321 -3.55998,20.04602 -3.55998,20.04602z" data-paper-data="{&quot;origPos&quot;:null}" fill="#4b4b4b" stroke-width="1.5"/></g><g data-paper-data="{&quot;index&quot;:null,&quot;origRot&quot;:0}" stroke="#000000" stroke-linecap="round"><path d="M237.59636,229.1111c0,0 -0.35917,-4.67112 1.2,-4.73756c4.60088,-0.19595 8.96252,-2.0364 13.34,-0.65607c1.81777,0.57319 2.76496,4.65655 2.76496,4.65655l6.24225,31.73638c0,0 0.68884,3.26893 1.01599,5.16054c0.34979,2.02249 -0.52831,5.13853 -2.64293,5.34432c-7.76409,0.75564 -12.45645,2.60646 -17.41701,1.88472c-1.80721,-0.26295 -3.70728,-0.65645 -4.52474,-2.23352c-1.06785,-2.06007 -0.63767,-6.41308 -0.63767,-6.41308z" data-paper-data="{&quot;origPos&quot;:null}" fill="#ff0000" stroke-width="3"/><path d="M262.41198,268.53303c0,0 -5.80463,2.9591 -10.93658,3.30607c-3.93743,0.26621 -12.53804,-0.15376 -12.53804,-0.15376c0,0 -1.54908,-2.44562 -1.75204,-3.99699c-0.21382,-1.63428 0.68405,-4.16591 0.68405,-4.16591l23.45975,-2.36604z" data-paper-data="{&quot;origPos&quot;:null}" fill="#976e57" stroke-width="2.5"/><path d="M237.04201,264.16022c0,0 0.23522,-12.39882 0.38581,-20.33471c0.10668,-5.62278 0.27335,-14.40768 0.27335,-14.40768c0,0 -0.35918,-4.67112 1.19999,-4.73754c4.60087,-0.19595 8.96252,-2.0364 13.34,-0.65607c1.81777,0.57319 2.76496,4.65655 2.76496,4.65655l6.24225,31.73638c0,0 0.68884,3.26893 1.01599,5.16054c0.34979,2.02249 -0.52831,5.13853 -2.64292,5.34433c-7.76409,0.75564 -12.45645,2.60646 -17.41701,1.88472c-1.80721,-0.26295 -3.70728,-0.65646 -4.52474,-2.23353c-1.06785,-2.06007 -0.63767,-6.41308 -0.63767,-6.41308z" data-paper-data="{&quot;origPos&quot;:null}" fill="#4b4b4b" stroke-width="1.5"/></g><g><g><path d="M258.33392,208.27203c0,0 0.83741,15.3746 -1.3934,15.6481c-6.69241,0.8205 -24.2908,-0.0114 -39.30562,-0.0114c-1.68671,0 -1.44068,-14.59424 -1.44068,-14.59424l1.80084,-29.88345c0,0 1.33517,-13.20432 2.88135,-13.20432c10.00173,0 24.96604,-0.90797 31.51171,0.69563c2.18189,0.53454 4.14495,14.59356 4.14495,14.59356z" data-paper-data="{&quot;origPos&quot;:null}" fill="#66c8ff" stroke="#000000" stroke-width="3.5" stroke-linecap="round"/><path d="M226.11553,189.19012c-1.30626,0 -1.30627,-2.42701 -1.30627,-2.42701c0,-5.0338 0,-11.68561 0,-16.71942c0,0 0.00001,-2.42701 1.30627,-2.42701c1.30626,0 1.30626,2.42701 1.30626,2.42701c0,5.0338 0,10.06761 0,15.10141v1.618c0,0 0,2.42701 -1.30626,2.42701z" fill="#ffffff" stroke="none" stroke-width="0.5" stroke-linecap="butt"/><path d="M238.25119,195.36945c-1.30626,0 -1.30627,-3.04902 -1.30627,-3.04902c0,-6.32387 0,-14.68043 0,-21.00431c0,0 0.00001,-3.04902 1.30627,-3.04902c1.30626,0 1.30626,3.04902 1.30626,3.04902c0,6.32387 0,12.64775 0,18.97163v2.03266c0,0 0,3.04902 -1.30626,3.04902z" fill="#ffffff" stroke="none" stroke-width="0.5" stroke-linecap="butt"/></g><g fill="none" stroke="#b9b9b9" stroke-width="3"><path d="M248.43627,171.13881c-0.83688,-1.32507 0.08686,-2.51499 1.32364,-3.7034c1.23678,-1.18838 2.47807,-1.55129 3.15517,-0.6002c1.4356,2.01655 -0.07057,2.96835 -1.03901,3.89891c-1.23679,1.1884 -2.2579,2.27604 -3.43978,0.4047z" stroke-linecap="butt"/><path d="M246.81241,173.02063l2.61926,-2.45819" stroke-linecap="round"/><path d="M243.22583,173.63464c1.23678,-1.18838 2.47807,-1.55129 3.15517,-0.6002c1.4356,2.01655 -0.07057,2.96835 -1.03901,3.89891c-1.23678,1.18839 -2.25789,2.27604 -3.43978,0.4047c-0.83688,-1.32507 0.08685,-2.51499 1.32363,-3.7034z" stroke-linecap="butt"/><path d="M240.27831,179.21985l2.61926,-2.4582" stroke-linecap="round"/><path d="M234.59248,178.77857c0.40519,-1.59532 1.75836,-1.44446 3.29535,-0.9968c1.53699,0.44767 2.51632,1.40067 2.27061,2.61793c-0.52099,2.58095 -2.05647,1.73502 -3.25998,1.38449c-1.53699,-0.44766 -2.87822,-0.75261 -2.30598,-3.00562z" stroke-linecap="butt"/><path d="M235.57151,179.36957l-3.21525,-0.98365" stroke-linecap="round"/><path d="M227.31136,174.50922c0.90309,-1.28469 2.09117,-0.51673 3.34848,0.61066c1.25731,1.12739 1.83564,2.4623 1.20464,3.47203c-1.33789,2.14093 -2.46093,0.6465 -3.44546,-0.23629c-1.2573,-1.1274 -2.38304,-2.03209 -1.10766,-3.84642z" stroke-linecap="butt"/><path d="M228.01018,175.50973l-2.61441,-2.40198" stroke-linecap="round"/><path d="M220.73414,168.53353c0.90309,-1.28467 2.09118,-0.51673 3.34848,0.61066c1.25731,1.12739 1.83564,2.4623 1.20464,3.47203c-1.33789,2.14092 -2.46093,0.6465 -3.44545,-0.23629c-1.2573,-1.12739 -2.38304,-2.03208 -1.10766,-3.84642z" stroke-linecap="butt"/><path d="M218.81855,167.13203l2.61443,2.40198" stroke-linecap="round"/></g></g><g fill="none" stroke="#b9b9b9" stroke-width="3"><path d="M244.04547,168.47288c-0.56214,-1.35809 0.05834,-2.57767 0.8891,-3.7957c0.83076,-1.21801 1.66455,-1.58994 2.11936,-0.61516c0.96431,2.06682 -0.04741,3.04234 -0.69792,3.99608c-0.83077,1.21803 -1.51665,2.33277 -2.31054,0.41479z" stroke-linecap="butt"/><path d="M244.71408,167.88214l-1.75939,2.51944" stroke-linecap="round"/><path d="M240.54556,171.03091c0.83076,-1.21801 1.66455,-1.58994 2.11936,-0.61516c0.96431,2.06682 -0.04741,3.04234 -0.69792,3.99608c-0.83076,1.21802 -1.51665,2.33277 -2.31054,0.41479c-0.56214,-1.35809 0.05833,-2.57767 0.88909,-3.79571z" stroke-linecap="butt"/><path d="M240.32506,174.23586l-1.75938,2.51946" stroke-linecap="round"/><path d="M234.74644,176.30304c0.27217,-1.63508 1.18111,-1.48046 2.21353,-1.02164c1.03242,0.45883 1.69024,1.43557 1.52519,2.68318c-0.34996,2.64527 -1.38136,1.77826 -2.18976,1.41899c-1.03242,-0.45882 -1.93333,-0.77137 -1.54895,-3.08052z" stroke-linecap="butt"/><path d="M235.40406,176.90876l-2.15972,-1.00816" stroke-linecap="round"/><path d="M229.85564,171.92729c0.60662,-1.31672 1.40466,-0.52961 2.2492,0.62589c0.84455,1.1555 1.23302,2.52367 0.80918,3.55857c-0.89868,2.19428 -1.65303,0.66261 -2.31435,-0.24218c-0.84454,-1.15551 -1.60072,-2.08274 -0.74403,-3.94227z" stroke-linecap="butt"/><path d="M228.56891,170.49089l1.75614,2.46183" stroke-linecap="round"/><path d="M225.43763,165.80265c0.60662,-1.3167 1.40467,-0.52961 2.24921,0.62589c0.84455,1.1555 1.23302,2.52367 0.80917,3.55857c-0.89868,2.19427 -1.65303,0.66261 -2.31435,-0.24218c-0.84454,-1.1555 -1.60072,-2.08273 -0.74403,-3.94227z" stroke-linecap="butt"/><path d="M224.1509,164.36626l1.75615,2.46183" stroke-linecap="round"/></g><g><path d="M213.67767,160.50871c-0.47954,-3.22118 -1.65064,-17.36149 -2.66653,-30.14504c-0.15715,-1.97731 1.20944,-5.19468 1.20944,-5.19468c0,0 2.06641,-1.7973 3.32359,-1.90412c13.87063,-1.17862 26.9822,-3.39002 32.2503,-2.25625c1.75605,0.37791 5.03181,1.86043 5.03181,1.86043c0,0 1.05669,4.32529 1.28007,5.44227c0.07445,0.37233 0.11738,0.58181 0.16954,0.95791c1.56249,11.26915 2.15897,24.40598 2.15207,29.01101c-0.0023,1.535 -1.62357,4.06134 -1.62357,4.06134c0,0 -1.16687,2.82852 -5.4887,3.98354c-4.72882,1.2638 -16.43677,1.8205 -28.5119,2.35742c-1.81289,0.0806 -4.90154,-3.01763 -4.90154,-3.01763z" fill="#582700" stroke="#000000" stroke-width="2.5" stroke-linecap="round"/><path d="M246.83617,153.32773c-0.50876,0.04044 -1.14242,-2.71073 -1.41533,-6.14486c-0.27291,-3.43412 -0.08172,-6.25083 0.42705,-6.29125c0.50876,-0.04044 1.14244,2.71071 1.41534,6.14485c0.27291,3.43412 0.08171,6.25084 -0.42706,6.29127z" fill="none" stroke="#000000" stroke-width="2.5" stroke-linecap="butt"/><path d="M254.967,124.96624l-0.75363,-0.46428c-0.09158,-0.02333 -0.18309,-0.04617 -0.27452,-0.06855c-0.19552,0.32806 -0.59554,0.7242 -1.34784,0.54049c-0.69335,-0.16932 -0.89414,-0.63785 -0.93881,-1.00871c-2.67278,-0.44573 -5.32073,-0.55052 -8.09391,-0.57531c-7.7443,0.19546 -15.45746,0.99135 -23.17727,1.62769c-2.53176,0.20868 -8.11454,1.69433 -10.36756,0.18743c-1.09879,-0.7349 -0.85397,-2.69202 -1.04058,-3.73333c-0.54076,-3.01748 -1.16824,-6.13603 -1.43171,-9.19237c-0.31766,-3.99712 -2.10594,-7.44273 -2.93187,-11.32081c-0.41407,-1.94421 -1.24199,-3.86483 0.37679,-5.70758c0.45708,-0.52031 1.3515,-0.31226 2.03785,-0.40472c2.50841,-0.33787 4.96049,-0.36578 7.47646,-0.27388c7.9731,0.29126 15.82289,0.16856 23.78183,0.94792c3.21093,0.31821 6.40544,0.12491 9.62785,-0.03031c1.89387,-0.09123 3.57264,-0.77168 4.87913,1.29422c0.78021,1.23371 0.609,5.26537 0.67632,6.74684c0.25962,5.71257 1.73015,12.6314 1.00337,18.45891c0.11992,0.02894 0.23997,0.05862 0.36011,0.08908l1.34914,0.70026c0,0 1.09351,0.6056 0.48792,1.6991c-0.6056,1.0935 -1.6991,0.48792 -1.6991,0.48792z" data-paper-data="{&quot;index&quot;:null}" fill="#000000" stroke="none" stroke-width="0.5" stroke-linecap="butt"/><path d="M230.12975,161.11382c-0.31045,0.95058 -1.26104,0.64015 -1.26104,0.64015l-0.117,-0.06406c-2.18281,-0.2078 -4.1339,-0.67029 -6.34821,-0.40699c0,0 -0.99319,0.11648 -1.10967,-0.87671c-0.11648,-0.99319 0.87671,-1.10967 0.87671,-1.10967c2.36269,-0.27363 4.44281,0.18732 6.76806,0.40212l0.55101,0.15412c0,0 0.95058,0.31045 0.64015,1.26104z" fill="#000000" stroke="none" stroke-width="0.5" stroke-linecap="butt"/><path d="M252.80108,143.3288c-0.44176,0.89714 -1.33889,0.45536 -1.33889,0.45536l-0.98155,-0.48925c-0.85605,-0.53749 -2.51334,-1.24683 -3.75455,-2.05827c-0.59591,-0.24361 -1.21569,-0.5267 -1.91306,-0.83843l-0.9789,-0.42795c-0.36194,-0.14866 -0.6178,-0.50359 -0.62032,-0.91932c-0.00336,-0.55227 0.44164,-1.00271 0.99389,-1.00605c0.11876,-0.00072 0.23281,0.01928 0.33872,0.05664l0.29762,0.09721c0.07653,0.02247 0.15313,0.04475 0.22973,0.06684c0.05545,0.00443 0.10963,0.0134 0.16218,0.02652l1.08524,0.24666l-0.00494,0.02174l0.05375,-0.00934c1.15241,0.38651 2.63821,0.43909 3.38982,1.12666c0.20097,0.07604 0.40094,0.1555 0.59976,0.23899l0.00508,-0.00946l0.10232,0.05501c0.02934,0.01256 0.05865,0.02522 0.08794,0.03797l0.01168,0.01558l0.02351,0.01265l0.00424,-0.00775l0.98584,0.53988c0.31737,0.166 0.53486,0.49749 0.53719,0.88061c0.00087,0.14165 -0.02777,0.27659 -0.08013,0.39901l0.30848,0.14961c0,0 0.89714,0.44176 0.45536,1.33889z" fill="#582700" stroke="none" stroke-width="0.5" stroke-linecap="butt"/><path d="M240.34137,154.20057c-0.50876,0.04044 -1.14242,-2.71073 -1.41533,-6.14486c-0.27291,-3.43412 -0.08172,-6.25083 0.42705,-6.29125c0.50876,-0.04044 1.14244,2.71071 1.41534,6.14485c0.27291,3.43412 0.08171,6.25084 -0.42706,6.29127z" fill="none" stroke="#000000" stroke-width="2.5" stroke-linecap="butt"/><path d="M235.74121,143.13783l0.17982,-0.12087c-0.03177,-0.09634 -0.04971,-0.20279 -0.05039,-0.31476c-0.00183,-0.30289 0.12304,-0.56678 0.30794,-0.70067l0.57417,-0.43506l0.00255,0.0061l0.0137,-0.0102l0.00673,-0.01242c0.01708,-0.01032 0.03418,-0.02058 0.0513,-0.03077l0.0596,-0.04435l0.00306,0.00744c0.116,-0.06767 0.23272,-0.13217 0.35005,-0.19396c0.43543,-0.54985 1.30715,-0.60388 1.98037,-0.91909l0.03162,0.00694l-0.00309,-0.01714l0.63496,-0.2041c0.03073,-0.01081 0.06246,-0.01836 0.09497,-0.02232c0.04478,-0.01812 0.08955,-0.03635 0.13429,-0.05477l0.17388,-0.07934c0.06186,-0.03042 0.12863,-0.04719 0.19835,-0.04761c0.32421,-0.00198 0.5892,0.3504 0.59185,0.78702c0.002,0.32868 -0.14522,0.61141 -0.35642,0.73197l-0.57103,0.34652c-0.40674,0.25228 -0.76818,0.48126 -1.11593,0.67884c-0.72178,0.65188 -1.68866,1.22656 -2.18666,1.65863l-0.57205,0.39501c0,0 -0.52292,0.35676 -0.78974,-0.34877c-0.26683,-0.70553 0.25607,-1.06228 0.25607,-1.06228z" data-paper-data="{&quot;index&quot;:null}" fill="#582700" stroke="none" stroke-width="0.5" stroke-linecap="butt"/></g><g data-paper-data="{&quot;index&quot;:null}"><g><path d="M262.32449,164.7974c0,0 12.40737,22.32611 9.65712,35.84493c-0.82878,4.07383 -11.63991,11.44468 -12.65962,11.83569c-4.40358,1.68851 -25.87228,-14.08631 -25.87228,-14.08631c0,0 -9.9764,-6.64232 -12.93961,-10.84376c8.63556,-16.78471 18.69322,-21.57171 18.69322,-21.57171c1.39909,-1.78509 6.89641,4.18757 6.89641,4.18757l16.74684,16.44928l-2.57595,-2.4395c0,0 -14.99054,-14.60275 -12.52477,-15.03622c2.26871,-0.39885 14.56103,-7.55569 14.57864,-4.33997z" fill="#582700" stroke="#000000" stroke-width="2.5" stroke-linecap="round"/><path d="M258.57468,183.4779c-1.02497,1.41563 -2.25385,2.74317 -3.50747,3.8892c-3.12677,3.5702 -6.60668,7.42692 -10.1522,10.61917c-1.01145,0.91067 -1.98664,1.83827 -2.97044,2.77978c-0.33126,0.31704 -1.26072,0.92187 -1.58497,1.12642c1.40582,0.54392 2.82183,1.80951 4.29171,2.0715c0.17286,0.03081 0.44257,-0.10871 0.74984,-0.33273c0.78028,-0.98533 1.71676,-1.88898 2.11392,-2.35663c4.12343,-5.58278 9.28727,-10.16799 13.67257,-15.49522c-0.32268,-0.50899 -1.37026,-1.23831 -1.45575,-1.31111c-0.38735,-0.32993 -0.7749,-0.65777 -1.15724,-0.99035zM257.45802,182.4677c-0.41523,-0.39506 -0.81683,-0.80495 -1.19688,-1.23965c0,0 -0.23599,-0.2705 -0.1943,-0.60048c-2.44763,-2.19893 -4.75439,-4.60827 -6.74914,-6.90409c-1.03676,-0.90487 -2.54103,-2.0249 -1.9089,-3.59313c0.45487,-1.12845 2.52133,-2.11404 3.55417,-2.56532c3.31336,-1.44765 6.68072,-2.82927 10.01234,-4.19443c2.25393,0.35649 2.23056,2.44174 2.89155,4.37097c1.44019,4.20346 3.00047,8.35416 4.43555,12.56098c1.42217,2.83243 1.88846,5.77911 2.95437,8.70075c1.47627,4.04643 2.54479,7.30115 1.8751,11.6612c-2.90239,5.09274 -9.75081,11.12973 -15.97071,11.05168c-3.75241,1.00625 -7.08436,-1.71784 -10.13667,-3.51379c-0.51162,-0.30103 -2.53289,-1.0901 -2.74915,-1.58324c-0.15362,-0.35032 -0.11739,-0.76311 0.04063,-1.20369c-1.61242,-0.29362 -3.22261,-1.62942 -4.71176,-2.22623c-1.69666,-1.9521 1.3395,-3.63176 2.96657,-5.14787c3.94885,-3.67959 7.90564,-7.66814 11.42337,-11.72235c1.23499,-1.12902 2.46579,-2.44584 3.46389,-3.8513zM247.60734,203.5434c-0.01557,0.01333 -0.0313,0.027 -0.04724,0.04102c-0.88093,1.08045 -1.94773,2.40225 -1.91599,2.42114c2.9935,1.77998 7.65811,5.14801 11.33662,4.22153c5.74451,0.07209 11.90548,-5.46556 14.73578,-10.05931c0.52723,-3.98182 -0.52519,-6.94104 -1.86688,-10.64484c-1.05414,-2.90998 -1.51856,-5.82063 -2.9302,-8.6395c-1.45968,-4.23336 -3.0167,-8.4199 -4.47066,-12.65295c-0.20107,-0.58543 -0.86903,-3.46462 -1.24114,-3.37798c-3.34159,1.62569 -7.01119,2.60706 -10.28785,4.36431c-0.26912,0.14434 -2.43075,1.45099 -2.20809,1.80975c0.36204,0.58329 1.14553,1.18236 1.66651,1.63609c4.01233,4.58228 9.80676,7.73375 13.43427,12.50176c-0.18947,0.72961 -0.48654,1.46643 -0.97527,2.04033l-0.38717,0.66457c0,0 -0.06288,0.10693 -0.18102,0.20822c-1.28708,2.65919 -4.68295,5.16537 -6.46479,6.71964c-2.96946,2.69705 -5.10685,6.102 -8.19692,8.74621z" fill="#000000" stroke="none" stroke-width="0.5" stroke-linecap="butt"/><path d="M255.09278,187.32413c1.2536,-1.14603 2.48577,-2.47143 3.51075,-3.88707c0.38232,0.33258 0.77443,0.66405 1.16178,0.99398c0.08548,0.07281 1.13822,0.80749 1.4609,1.31648c-4.38529,5.32724 -9.6098,9.98914 -13.73323,15.57192c-0.39715,0.46764 -1.33706,1.36942 -2.11734,2.35476c-0.30727,0.22404 -0.57872,0.36247 -0.75159,0.33168c-1.46988,-0.262 -2.89913,-1.5402 -4.30497,-2.08412c0.32426,-0.20456 1.25375,-0.80932 1.58501,-1.12635c0.98379,-0.94152 1.95701,-1.87204 2.96845,-2.78272c3.54552,-3.19226 7.09345,-7.11836 10.2202,-10.68856z" data-paper-data="{&quot;noHover&quot;:false,&quot;origItem&quot;:[&quot;Path&quot;,{&quot;applyMatrix&quot;:true,&quot;segments&quot;:[[[926.17844,407.1979],[3.2606,1.25965],[-0.27949,0.97418]],[[925.31465,410.11917],[0.29084,-0.97519],[-0.06418,0.21521]],[[924.29914,413.90358],[-0.01258,-1.20526],[13.15638,4.16543]],[[964.1057,425.02121],[-12.99513,-4.87922],[1.17537,0.35239]],[[970.21765,426.67451],[-2.3817,-0.804],[0.75941,0.04146]],[[971.83798,426.41666],[-0.25651,0.23985],[2.18115,-2.03947]],[[976.78433,418.26967],[-1.76682,2.44279],[-0.76669,0.00973]],[[972.89889,418.10481],[0.90089,0.17138],[-2.67549,-0.50896]],[[964.88923,416.67374],[2.68829,0.42712],[-9.42353,-1.49721]],[[936.29671,409.90591],[9.13228,2.58714],[-3.35077,-0.55846]]],&quot;closed&quot;:true}]}" fill="#ffffff" stroke="none" stroke-width="0.5" stroke-linecap="butt"/><path d="M248.71572,202.1631c3.78624,-5.1177 8.36006,-9.35312 12.49478,-14.13542c0.04554,0.04248 0.19668,0.05777 0.2614,0.09585c0.64647,0.38024 0.92965,-0.2421 0.92965,-0.2421l0.38825,-0.66086c0.48874,-0.57391 0.78953,-1.30225 0.97901,-2.03185c-3.62752,-4.76801 -9.36217,-7.89643 -13.37448,-12.4787c-0.52097,-0.45374 -1.33913,-1.14656 -1.70117,-1.72986c-0.22267,-0.35874 1.94518,-1.66742 2.2143,-1.81175c3.27666,-1.75726 6.96882,-2.73913 10.31042,-4.36482c0.3721,-0.08666 1.04422,2.7936 1.2453,3.37903c1.45397,4.23303 3.03584,8.43645 4.49551,12.66981c1.41164,2.81885 1.88687,5.76078 2.941,8.67076c1.34168,3.70381 2.38536,6.69106 1.85811,10.67288c-2.8303,4.59376 -9.03037,10.15309 -14.77488,10.08101c-3.67851,0.92648 -8.37195,-2.44921 -11.36546,-4.22919c-0.05251,-0.03122 2.95132,-3.71159 3.09826,-3.88472z" data-paper-data="{&quot;noHover&quot;:false,&quot;origItem&quot;:[&quot;Path&quot;,{&quot;applyMatrix&quot;:true,&quot;segments&quot;:[[[926.61254,417.73069],[12.14285,3.5238],[-0.03018,0.12086]],[[926.46822,418.11346],[0.06716,-0.13431],[-0.67082,1.34164]],[924.45576,418.78428],[[923.08279,418.0906],[0,0],[-1.44471,-0.43097]],[[919.22563,415.72869],[1.11205,1.01797],[0.89694,-11.9485]],[[928.15956,380.1298],[-1.74473,12.05571],[0.38029,-1.32836]],[[929.175,375.57071],[0.02742,1.37277],[-0.01686,-0.84429]],[[923.5003,374.93752],[0.60865,-0.05075],[-7.41054,0.61792]],[[901.48814,378.8123],[7.37628,-0.90935],[-0.71866,0.25961]],[[903.08234,385.83106],[-0.2998,-1.20115],[2.16779,8.68513]],[[909.35292,411.92731],[-2.15853,-8.69186],[0.69956,6.26621]],[[913.83986,429.61277],[-1.39861,-6.02998],[1.78014,7.67491]],[[922.29365,449.50563],[-5.21858,-6.1072],[9.74892,4.62723]],[[957.96755,450.34516],[-9.56021,6.37347],[7.18055,-2.44927]],[[972.39433,430.92276],[-3.08539,6.24485],[0.05411,-0.10951]],[[963.14745,427.86406],[0.43501,0.13058],[-11.92317,-4.46591]]],&quot;closed&quot;:true}]}" fill="#66c8ff" stroke="none" stroke-width="0.5" stroke-linecap="butt"/></g><g data-paper-data="{&quot;index&quot;:null}" fill="#fffc96" stroke="#000000" stroke-width="2" stroke-linecap="round"><path d="M268.10039,171.11446c1.02757,1.93603 -3.42666,7.22295 -8.89814,12.13384c-0.36226,-0.7179 -0.92134,-1.51382 -1.73268,-2.54921c4.59421,-4.34729 7.5392,-8.16846 7.5392,-8.16846l-0.6745,-1.74589c0,0 2.82405,-1.44524 3.76614,0.32974z"/><path d="M272.84822,183.61865c0.66346,1.92215 -5.70523,2.5926 -13.10552,2.33021c0.06446,-1.01344 -0.08335,-1.81185 -0.5643,-2.74741c5.9933,0.23432 9.80381,-0.24355 9.80381,-0.24355l-0.45821,-1.29846c0,0 3.40849,-0.69387 4.32423,1.95922z" data-paper-data="{&quot;index&quot;:null}"/></g></g></g></g></svg>