<svg version="1.1" xmlns="http://www.w3.org/2000/svg" xmlns:xlink="http://www.w3.org/1999/xlink" width="501.45432" height="323" viewBox="0,0,501.45432,323"><defs><linearGradient x1="252.5" y1="99.5" x2="252.5" y2="117.5" gradientUnits="userSpaceOnUse" id="color-1"><stop offset="0" stop-color="#97ff73"/><stop offset="1" stop-color="#4ced4f"/></linearGradient><linearGradient x1="245" y1="146.5" x2="245" y2="164.5" gradientUnits="userSpaceOnUse" id="color-2"><stop offset="0" stop-color="#97ff73"/><stop offset="1" stop-color="#4ced4f"/></linearGradient><linearGradient x1="243" y1="190.5" x2="243" y2="208.5" gradientUnits="userSpaceOnUse" id="color-3"><stop offset="0" stop-color="#97ff73"/><stop offset="1" stop-color="#4ced4f"/></linearGradient><radialGradient cx="238" cy="177" r="166.5" gradientUnits="userSpaceOnUse" id="color-4"><stop offset="0" stop-color="#97ff73"/><stop offset="1" stop-color="#97ff73" stop-opacity="0"/></radialGradient><linearGradient x1="149.16019" y1="52.3388" x2="149.16019" y2="278.68823" gradientUnits="userSpaceOnUse" id="color-5"><stop offset="0" stop-color="#97ff73"/><stop offset="1" stop-color="#4ced4f"/></linearGradient><linearGradient x1="333.36576" y1="58.11199" x2="333.36576" y2="264.85814" gradientUnits="userSpaceOnUse" id="color-6"><stop offset="0" stop-color="#97ff73"/><stop offset="1" stop-color="#4ced4f"/></linearGradient></defs><g transform="translate(5.72716,-18.5)"><g data-paper-data="{&quot;isPaintingLayer&quot;:true}" fill-rule="nonzero" stroke-linecap="butt" stroke-linejoin="miter" stroke-miterlimit="10" stroke-dasharray="" stroke-dashoffset="0" style="mix-blend-mode: normal"><path d="M20.5,117.5l60.78603,-18h403.21397l-60.78603,18z" fill="url(#color-1)" stroke="#001026" stroke-width="2"/><path d="M1.5,164.5l63.79913,-18h423.20087l-63.79913,18z" fill="url(#color-2)" stroke="#001026" stroke-width="2"/><path d="M9.5,208.5l61.17904,-18h405.82096l-61.17904,18z" fill="url(#color-3)" stroke="#001026" stroke-width="2"/><path d="M406.5,180c0,89.19399 -74.54459,161.5 -166.5,161.5c-91.95541,0 -166.5,-72.30601 -166.5,-161.5c0,-89.19399 74.54459,-161.5 166.5,-161.5c91.95541,0 166.5,72.30601 166.5,161.5z" fill="url(#color-4)" stroke="none" stroke-width="0"/><path d="M376.06518,62.36386c43.33091,14.15181 63.81751,70.44989 45.75813,125.74532c-18.05939,55.29541 -67.82606,88.64889 -111.15698,74.49709c-43.33091,-14.15181 -63.81751,-70.44989 -45.75813,-125.74532c18.05939,-55.29541 67.82606,-88.64889 111.15698,-74.49709zM382.35635,175.04175c6.28969,-19.25818 6.40893,-68.71545 -22.12745,-77.97418c-36.78998,-11.93663 -54.89128,30.22128 -61.18097,49.47946c-6.28969,19.25818 -14.01034,72.05868 18.66394,80.70195c37.32646,9.8739 58.35481,-32.94906 64.6445,-52.20723z" data-paper-data="{&quot;index&quot;:null}" fill="#66ae4e" stroke="#001026" stroke-width="2"/><path d="M201.93067,107.56673c0,0 1.69261,-24.94894 -36.85253,-20.03291c-21.39239,2.72837 -39.2794,12.13162 -48.10618,31.92762c-6.40377,14.36185 -22.79875,64.78056 11.62274,94.94332c10.5731,9.26496 55.52284,7.53695 62.3736,7.51162c5.20476,-0.01925 7.20618,-5.89578 7.20618,-5.89578l11.7545,-34.099l32.77839,-0.73431l-31.1937,97.13133l-34.74687,0.36961l10.15261,-27.27438c0,0 -1.77908,9.20971 -27.29054,7.75512c-31.30696,-1.78504 -50.46546,-8.88164 -69.28676,-29.33112c-26.69481,-30.97602 -17.81818,-82.50564 -15.20792,-105.27194c2.75238,-24.00586 32.94381,-71.06127 94.32119,-72.19756c81.28929,-1.50492 72.08744,54.96472 72.08744,54.96472z" data-paper-data="{&quot;index&quot;:null}" fill="#66ae4e" stroke="#001026" stroke-width="2"/><path d="M193.93067,107.56673c0,0 1.69261,-24.94894 -36.85253,-20.03291c-21.39239,2.72837 -39.2794,12.13162 -48.10618,31.92762c-6.40377,14.36185 -22.79875,64.78056 11.62274,94.94332c10.5731,9.26496 55.52284,7.53695 62.3736,7.51162c5.20476,-0.01925 7.20618,-5.89578 7.20618,-5.89578l11.7545,-34.099l32.77839,-0.73431l-31.1937,97.13133l-34.74687,0.36961l10.15261,-27.27438c0,0 -1.77908,9.20971 -27.29054,7.75512c-31.30696,-1.78504 -50.46546,-8.88164 -69.28676,-29.33112c-26.69481,-30.97602 -17.81818,-82.50564 -15.20792,-105.27194c2.75238,-24.00586 32.94381,-71.06127 94.32119,-72.19756c81.28929,-1.50492 72.08744,54.96472 72.08744,54.96472z" data-paper-data="{&quot;index&quot;:null}" fill="url(#color-5)" stroke="#001026" stroke-width="2"/><path d="M366.06518,61.36386c43.33091,14.15181 63.81751,70.44989 45.75813,125.74532c-18.05939,55.29541 -67.82606,88.64889 -111.15698,74.49709c-43.33091,-14.15181 -63.81751,-70.44989 -45.75813,-125.74532c18.05939,-55.29541 67.82606,-88.64889 111.15698,-74.49709zM372.35635,174.04175c6.28969,-19.25818 6.40893,-68.71545 -22.12745,-77.97418c-36.78998,-11.93663 -54.89128,30.22128 -61.18097,49.47946c-6.28969,19.25818 -14.01034,72.05868 18.66394,80.70195c37.32646,9.8739 58.35481,-32.94906 64.6445,-52.20723z" data-paper-data="{&quot;index&quot;:null}" fill="url(#color-6)" stroke="#001026" stroke-width="2"/></g></g></svg>