<svg version="1.1" xmlns="http://www.w3.org/2000/svg" xmlns:xlink="http://www.w3.org/1999/xlink" width="225.86233" height="208" viewBox="0,0,225.86233,208"><defs><radialGradient cx="201.59505" cy="214.11332" r="44.25353" gradientUnits="userSpaceOnUse" id="color-1"><stop offset="0" stop-color="#8f8256"/><stop offset="1" stop-color="#8d681f"/></radialGradient><radialGradient cx="196.34966" cy="218.1514" r="18.84872" gradientUnits="userSpaceOnUse" id="color-2"><stop offset="0" stop-color="#0c0b0b"/><stop offset="1" stop-color="#533907"/></radialGradient><radialGradient cx="217.54511" cy="237.59799" r="15.75564" gradientUnits="userSpaceOnUse" id="color-3"><stop offset="0" stop-color="#36270c"/><stop offset="1" stop-color="#0c0b0b"/></radialGradient><radialGradient cx="183.98324" cy="192.09475" r="15.75564" gradientUnits="userSpaceOnUse" id="color-4"><stop offset="0" stop-color="#36270c"/><stop offset="1" stop-color="#0c0b0b"/></radialGradient></defs><g transform="translate(-153.19023,-76)"><g data-paper-data="{&quot;isPaintingLayer&quot;:true}" fill-rule="nonzero" stroke-linejoin="miter" stroke-miterlimit="10" stroke-dasharray="" stroke-dashoffset="0" style="mix-blend-mode: normal"><g data-paper-data="{&quot;index&quot;:null}"><path d="M287.42864,189.9842c0.08923,3.46188 -14.20954,14.01793 -16.68577,13.66443c-2.69128,-0.38419 -10.18919,-14.59849 -10.18919,-14.59849l2.71413,-2.71185l-17.62517,18.26484c0,0 -5.76636,6.61239 -7.34527,4.73773c0,0 -11.07933,-4.81654 -21.01913,-22.59443c3.07512,-4.62125 13.68113,-12.10408 13.68113,-12.10408c0,0 22.77365,-17.69668 27.61084,-16.02632c4.83716,1.67033 28.77469,28.11952 28.85841,31.36815z" fill="#68330c" stroke="none" stroke-width="3" stroke-linecap="round"/><path d="M245.55912,204.92805c0,0 -6.48571,5.77953 -8.01244,3.9137c0,0 -10.83053,-4.89095 -20.35787,-22.51569c1.66496,-2.42658 5.49257,-5.64025 8.6687,-8.08813c0.34338,0.41495 0.66316,0.78447 0.92864,1.08691c5.88422,6.70376 14.73728,15.35495 20.8676,22.8648c0.06075,0.07443 -2.09464,2.73845 -2.09464,2.73845z" fill="#ffddb7" stroke="#000000" stroke-width="2" stroke-linecap="butt"/><path d="M246.40303,202.77399l-20.92435,-24.03134l2.98586,-2.30937l20.91443,23.58256z" data-paper-data="{&quot;index&quot;:null}" fill="#ffffff" stroke="#000000" stroke-width="2" stroke-linecap="round"/><path d="M287.17294,189.99715c0.08923,3.46188 -14.20952,14.01791 -16.68575,13.66441c-2.69127,-0.38419 -10.18918,-14.59847 -10.18918,-14.59847l2.71412,-2.71186l-17.62515,18.26486c0,0 -5.76633,6.6124 -7.34524,4.73774c0,0 -11.07934,-4.81654 -21.01914,-22.59443c3.07512,-4.62127 13.68112,-12.10411 13.68112,-12.10411c0,0 22.77366,-17.69666 27.61085,-16.0263c4.83714,1.67032 28.77467,28.11952 28.85839,31.36815z" data-paper-data="{&quot;origPos&quot;:null}" fill="none" stroke="#000000" stroke-width="2.5" stroke-linecap="round"/></g><path d="M280.25692,223.28991c0,0 -0.43112,-5.30926 1.29356,-5.39553c5.08923,-0.25459 9.90182,-2.37752 14.75524,-0.83811c2.01541,0.63925 3.09289,5.2761 3.09289,5.2761l7.13566,36.04564c0,0 0.78574,3.71245 1.16136,5.86125c0.4016,2.29744 -0.54752,5.84688 -2.88571,6.09549c-8.58509,0.91287 -13.76355,3.04986 -19.25734,2.26339c-2.00147,-0.28653 -4.10665,-0.7209 -5.02249,-2.5086c-1.19641,-2.33521 -0.75183,-7.28815 -0.75183,-7.28815z" data-paper-data="{&quot;index&quot;:null}" fill="#000000" stroke="#000000" stroke-width="3" stroke-linecap="round"/><g data-paper-data="{&quot;index&quot;:null}" stroke-linecap="round"><path d="M265.48931,174.28108c0,0 7.32064,-14.0044 9.74505,-13.77385c7.27322,0.69162 22.16948,7.06033 32.35543,10.6818c1.57464,0.55984 -2.0635,14.86389 -2.0635,14.86389l-9.47704,31.93023c0,0 -5.27343,15.36449 -6.9912,14.75376c-15.29138,-5.43664 -33.52878,-10.93803 -40.03392,-14.22003c-2.16837,-1.09398 4.50382,-16.88295 4.50382,-16.88295z" data-paper-data="{&quot;origPos&quot;:null}" fill="#68330c" stroke="#000000" stroke-width="3.5"/><path d="M258.14112,210.03395c2.09056,4.99853 0.40146,2.10501 3.56916,6.51146c2.4287,3.37849 9.77302,7.63564 9.77302,7.63564c0,0 -6.50075,-2.10728 -12.65133,-4.42117c-2.68748,-1.01104 -7.03105,-3.31309 -7.03105,-3.31309c0,0 0.18402,-3.877 1.07513,-6.34119c2.44525,-6.76178 6.34017,-15.28688 6.34017,-15.28688c0,0 -2.50947,11.78556 -1.07506,15.21522z" data-paper-data="{&quot;origPos&quot;:null}" fill="#55250c" stroke="#55250c" stroke-width="2"/></g><g data-paper-data="{&quot;index&quot;:null}" stroke-linecap="butt"><path d="M239.84996,212.17468c0,0 -5.32345,4.48472 -7.5608,1.4378c-0.69023,-0.93999 -5.41705,-4.56079 -5.51353,-7.80839c-0.04757,-1.60105 5.33879,0.04189 7.16452,-4.60079c0.38696,-0.98394 -8.89295,-15.09964 -11.46932,-13.23272c-9.2768,6.72217 -7.83028,0.22066 -8.41273,-0.23235c-7.68442,-5.97658 1.19121,-9.06573 1.19121,-9.06573l6.62511,-4.78285l24.60066,33.5022z" fill="#8c651a" stroke="#000000" stroke-width="2.5"/><g stroke="#000000"><path d="M157.98801,191.33032l41.20738,-29.74887l52.09551,70.94588l-41.20736,29.74886z" fill="#121010" stroke-width="3"/><path d="M154.94361,193.51482l41.20736,-29.74886l52.09553,70.94587l-41.20739,29.74886z" fill="url(#color-1)" stroke-width="2.5"/></g><path d="M174.23827,219.79107l30.47545,-22.00116l13.7474,18.72182l-30.47546,22.00115z" fill="url(#color-2)" stroke="#000000" stroke-width="2.5"/><path d="M208.24586,225.07477c7.1879,-4.87213 17.17815,-3.2149 22.31397,3.7015c5.13586,6.9164 3.47234,16.47291 -3.71546,21.34503c-7.1879,4.87214 -17.17816,3.21486 -22.31398,-3.7015c-5.13584,-6.91643 -3.47234,-16.47295 3.71549,-21.34505z" fill="url(#color-3)" stroke="none" stroke-width="0"/><path d="M174.68393,179.5715c7.18787,-4.87213 17.17815,-3.21486 22.31397,3.7015c5.13583,6.91638 3.47233,16.47293 -3.71547,21.34505c-7.18788,4.87212 -17.17814,3.21484 -22.31396,-3.70152c-5.13582,-6.9164 -3.47231,-16.47292 3.71552,-21.34504z" fill="url(#color-4)" stroke="none" stroke-width="0"/></g><path d="M238.64875,263.30993c0,0 -2.63378,4.23157 -5.00183,5.39223c-1.81284,0.88855 -3.76146,-0.01289 -5.53777,-0.97121c-4.87577,-2.63048 -7.7341,-7.41581 -14.06042,-13.24223c-1.72302,-1.58688 -0.34071,-4.99353 1.3679,-6.59563c1.59804,-1.49843 4.46855,-4.00609 4.46855,-4.00609l27.47552,-24.64064c0,0 3.66219,-3.07502 5.66259,-2.391c4.81726,1.64725 7.39102,6.20413 11.31424,9.42848c1.32953,1.09269 -2.22079,5.08998 -2.22079,5.08998z" data-paper-data="{&quot;index&quot;:null}" fill="#000000" stroke="#000000" stroke-width="3" stroke-linecap="round"/><g data-paper-data="{&quot;index&quot;:null}"><path d="M315.80789,166.00639c0,0 -3.17613,3.72677 -5.21586,3.80328c-13.58598,0.50956 -26.76219,0.96346 -32.18004,-0.00803c-4.95153,-0.88787 -6.52099,-3.92495 -6.52099,-3.92495c0,0 -2.05091,-2.65956 -2.19532,-4.36555c-0.43324,-5.118 -0.97848,-19.77465 -0.2682,-32.44381c0.0237,-0.42284 0.05247,-0.65961 0.10154,-1.08029c0.14718,-1.26203 0.93209,-6.16652 0.93209,-6.16652c0,0 3.53519,-1.94798 5.46882,-2.52894c5.80085,-1.74289 20.70343,-0.48616 36.36148,-0.44693c1.4192,0.00356 3.90174,1.81198 3.90174,1.81198c0,0 1.82927,3.45099 1.83581,5.66323c0.04238,14.30236 0.03618,30.12706 -0.20374,33.75144z" fill="#c5ac8e" stroke="none" stroke-width="0" stroke-linecap="round"/><path d="M315.88688,164.80495c0,0 -2.81864,3.57901 -4.62878,3.65249c-12.05678,0.48935 -23.74989,0.92526 -28.55792,-0.00771c-4.39421,-0.85267 -5.78701,-3.76933 -5.78701,-3.76933c0,0 -1.82006,-2.55411 -1.94822,-4.19246c-0.38448,-4.91508 -0.86834,-18.99062 -0.23801,-31.15747c0.02104,-0.40607 0.04657,-0.63346 0.09011,-1.03746c0.13061,-1.21199 0.82718,-5.92202 0.82718,-5.92202c0,0 3.13728,-1.87074 4.85326,-2.42867c5.14791,-1.67378 18.37309,-0.46689 32.26871,-0.42921c1.25946,0.00342 3.46258,1.74014 3.46258,1.74014c0,0 1.62338,3.31416 1.62918,5.43869c0.03761,13.73529 0.0321,28.93257 -0.18082,32.41325z" fill="#ffddb7" stroke="none" stroke-width="0" stroke-linecap="round"/><path d="M315.47869,165.98918c0,0 -3.17613,3.72677 -5.21586,3.80328c-13.58598,0.50956 -26.76219,0.96346 -32.18004,-0.00803c-4.95153,-0.88787 -6.52099,-3.92495 -6.52099,-3.92495c0,0 -2.05091,-2.65956 -2.19532,-4.36555c-0.43324,-5.118 -0.97848,-19.77465 -0.2682,-32.44381c0.0237,-0.42284 0.05247,-0.65961 0.10154,-1.08029c0.14718,-1.26203 0.93209,-6.16652 0.93209,-6.16652c0,0 3.53519,-1.94798 5.46882,-2.52894c5.80085,-1.74289 20.70343,-0.48616 36.36148,-0.44693c1.4192,0.00356 3.90174,1.81198 3.90174,1.81198c0,0 1.82927,3.45099 1.83581,5.66323c0.04238,14.30236 0.03618,30.12706 -0.20374,33.75144z" fill="none" stroke="#000000" stroke-width="2.5" stroke-linecap="round"/><path d="M312.84663,144.28733c0,0 -0.44473,6.95822 -1.0188,6.95989c-0.57407,0.00167 -1.04868,-3.11167 -1.06007,-6.95381c-0.0114,-3.84216 0.44474,-6.9582 1.01882,-6.95987c0.57408,-0.00168 1.04867,3.11165 1.06006,6.95379z" fill="#000000" stroke="#000000" stroke-width="2.5" stroke-linecap="butt"/><path d="M294.50801,146.68436c-10.53406,12.16935 -14.10485,16.92686 -20.01306,17.6334c-7.17348,0.85784 -13.77374,-6.78557 -16.35094,-9.77928c-2.27196,0.04528 -4.52069,-0.0731 -6.8066,0.01172c-0.545,0.02022 -3.58615,0.18085 -3.93338,-0.03435c-2.13942,-1.326 -1.56797,-2.71905 -1.06203,-4.57145c0.4048,-1.48214 1.17467,-2.7597 2.16699,-3.86601c-1.25636,-0.69604 -2.70082,-1.55151 -3.12109,-2.55022c-0.75987,-1.80573 -0.07379,-2.56839 0.69049,-3.99169c0.8553,-1.59282 1.97796,-2.97234 3.27775,-4.17356c-0.79526,-0.4459 -1.6479,-0.95619 -1.75118,-1.16047c-1.09002,-2.15646 -0.08693,-3.03973 0.85644,-4.67332c1.62732,-2.81796 4.22385,-4.4935 7.06741,-5.77927c0.07722,-2.83035 1.32268,-5.05248 2.60762,-7.61067c3.54918,-7.06609 9.23568,-11.90088 15.65035,-16.4643c3.17237,-1.49828 6.62776,-2.87555 10.15445,-3.25965c2.5591,-0.27871 5.17767,-0.01232 7.73614,-0.28826c7.5186,-0.81093 15.47262,1.99196 22.36908,5.57035c6.89646,3.57839 9.0563,15.25274 9.57409,28.51247c0.01188,0.315 -0.88311,10.33279 -2.06826,10.93878c-1.0683,0.54624 -2.50926,-6.83354 -4.57687,-8.08416c-2.64985,-1.60278 -4.03618,3.67811 -6.48151,6.02451c-6.23309,5.9809 -12.20571,16.51119 -14.53035,15.31958c-0.2844,-0.14578 -1.45551,-7.72418 -1.45551,-7.72418z" fill="#000000" stroke="none" stroke-width="0.5" stroke-linecap="butt"/></g><g data-paper-data="{&quot;index&quot;:null}" stroke="#000000" stroke-width="1" stroke-linecap="butt"><path d="M306.03403,164.27804c-8.12588,-1.17907 -4.82781,-9.32431 -4.82781,-9.32431l12.11166,1.64896c0,0 1.31927,8.92366 -7.28385,7.67535z" fill="#000000"/><path d="M305.3746,161.63537c2.13852,0.97086 3.6639,2.64255 3.29856,2.69246c-0.75496,0.10311 -1.6286,0.09684 -2.63913,-0.04979c-3.02866,-0.43945 -4.47031,-1.84664 -5.08726,-3.43912c-0.11985,-0.30938 2.46405,-0.09507 4.42782,0.79646z" fill="#ff8484"/><path d="M300.66535,157.77619c0.19382,-1.15673 0.54086,-2.82246 0.54086,-2.82246l10.64439,1.44921l-0.35779,2.92977c0,0 -10.83387,-1.51838 -10.82748,-1.55651z" fill="#ffffff"/></g><g><g data-paper-data="{&quot;index&quot;:null}"><path d="M339.70597,179.47608c2.65941,-0.73406 5.83551,-6.13116 6.52308,-3.68219c0.45804,1.63149 1.36475,25.77526 0.04948,27.55315c-0.65898,0.8908 -1.90517,1.69316 -2.79291,1.93819c-1.30481,0.36014 -2.57504,-0.02548 -3.63942,-0.89925c-1.10505,-0.90723 -7.94816,-23.56959 -8.29839,-24.817c-0.68757,-2.44897 5.49871,0.64112 8.15815,-0.09296z" fill="#485e84" stroke="#000000" stroke-width="1.5" stroke-linecap="butt"/><g stroke-linecap="butt"><path d="M337.40728,171.38169c4.81828,-1.32996 9.44222,0.14916 10.32786,3.3037c0.88566,3.15454 -2.3024,6.78992 -7.12068,8.11991c-4.81831,1.32995 -9.44224,-0.1492 -10.32788,-3.30371c-0.88566,-3.15455 2.30235,-6.78994 7.12065,-8.1199z" fill="#485e84" stroke="#000000" stroke-width="1.5"/><path d="M343.71072,177.33272l3.4358,-2.82145c0,0 -0.21093,2.22236 -0.64909,3.05081c-0.94438,1.72313 -2.63632,2.6407 -2.63632,2.6407z" fill="#6987bb" stroke="none" stroke-width="0"/><path d="M340.12082,179.28455l1.66024,-0.81505c0,0 0.43268,1.07339 0.5166,1.46955c0.09826,0.46386 0.02624,1.3524 0.02624,1.3524l-2.09027,0.63778z" fill="#6987bb" stroke="none" stroke-width="0"/></g><g><path d="M339.24918,178.40677c-6.64692,1.83468 -11.42129,-1.02733 -13.27167,-7.61806c-1.85034,-6.59066 2.37865,-13.51481 9.0256,-15.34956c6.64693,-1.83472 12.66443,1.53333 14.51481,8.12406c1.85035,6.59068 -3.62174,13.00883 -10.26871,14.84356z" fill="#2c394f" stroke="#000000" stroke-width="1.5" stroke-linecap="butt"/><path d="M337.5156,155.73732c0,0 9.40452,0.28878 11.02343,6.05515c0.91807,3.26993 0.26405,7.10226 -1.04288,10.13593c-0.93113,2.16133 -2.76052,4.02264 -5.11005,4.67116c-4.82945,1.33302 -7.14559,-0.32534 -8.7645,-6.09171c-0.80847,-2.87969 -0.1011,-6.88584 1.3041,-9.82193c1.40857,-2.94323 2.58991,-4.94858 2.58991,-4.94858z" fill="#485e84" stroke="none" stroke-width="0" stroke-linecap="butt"/><path d="M349.16747,163.73776c0,0 -2.01153,5.42755 -9.62345,7.8214c-7.67431,2.41348 -12.32862,-0.63375 -12.32862,-0.63375" fill="none" stroke="#000000" stroke-width="0.8" stroke-linecap="round"/><path d="M349.25137,169.35667c0,0 -3.79791,3.76899 -8.46476,5.84261c-6.72548,2.98836 -10.10913,1.47048 -10.10913,1.47048" fill="none" stroke="#000000" stroke-width="0.75" stroke-linecap="round"/><path d="M346.67794,158.92389c0,0 -2.4109,4.80803 -9.89416,7.62974c-7.19756,2.71398 -10.07274,1.05521 -10.07274,1.05521" fill="none" stroke="#000000" stroke-width="0.8" stroke-linecap="round"/><path d="M326.35443,166.08523c0,0 3.84514,-3.8381 7.29962,-5.8394c4.55005,-2.63603 9.64426,-3.98591 9.64426,-3.98591" fill="none" stroke="#000000" stroke-width="0.8" stroke-linecap="round"/><path d="M336.45529,178.24867c0,0 -3.71466,-2.91672 -5.94746,-9.78359c-2.08358,-6.408 0.34274,-10.17982 0.34274,-10.17982" fill="none" stroke="#000000" stroke-width="0.8" stroke-linecap="round"/><path d="M333.20115,157.2838c0,0 0.70393,3.35232 2.03249,6.85344c1.16836,3.0789 2.93523,6.22498 3.5339,7.96916c0.71106,2.07162 1.46547,5.66375 1.46547,5.66375" fill="none" stroke="#000000" stroke-width="0.8" stroke-linecap="round"/><path d="M336.0723,155.85659c0,0 4.8763,4.1584 6.27478,8.64668c2.19501,7.04452 0.88573,12.29779 0.88573,12.29779" fill="none" stroke="#000000" stroke-width="0.8" stroke-linecap="round"/><path d="M340.04798,155.32341c0,0 3.6983,2.87244 5.70451,7.14477c2.88902,6.15229 2.18746,10.0715 2.18746,10.0715" fill="none" stroke="#000000" stroke-width="0.8" stroke-linecap="round"/><path d="M347.11289,162.75327c-0.47391,0.13082 -0.98157,-0.2027 -1.13379,-0.74494c-0.15227,-0.54224 0.10855,-1.08783 0.58249,-1.21867c0.47396,-0.13082 0.98157,0.20267 1.13382,0.74493c0.15227,0.54225 -0.10854,1.08787 -0.58249,1.21869z" fill="#6987bb" stroke="none" stroke-width="0" stroke-linecap="butt"/><path d="M345.12663,159.3521c-0.27345,0.07548 -0.5568,-0.08314 -0.6329,-0.35425c-0.0761,-0.27115 0.08385,-0.55209 0.35727,-0.62757c0.27346,-0.07548 0.55682,0.08312 0.63292,0.35423c0.07613,0.27113 -0.08385,0.55209 -0.35727,0.62756z" fill="#6987bb" stroke="none" stroke-width="0" stroke-linecap="butt"/></g></g><g><path d="M291.2738,174.34006c1.8238,-3.11636 20.29865,-4.74455 22.29892,-3.09307c2.174,1.7949 1.00595,18.44447 1.00595,18.44447l-3.89605,0.93664l25.66024,-6.6626c0,0 8.74514,-2.74413 9.11404,-0.22941c0,0 7.1717,10.25612 6.20897,31.38362c-5.26555,2.43384 -18.77835,3.33396 -18.77835,3.33396c0,0 -29.91083,3.37674 -33.27971,-0.71771c-3.36886,-4.09444 -10.04544,-40.47153 -8.33396,-43.39592z" fill="#68330c" stroke="none" stroke-width="3" stroke-linecap="round"/><path d="M336.59546,183.72264c0,0 8.92488,-1.61721 9.25238,0.86145c0,0 6.91028,10.18764 5.66621,30.95651c-2.80943,1.25083 -7.96818,2.03049 -12.12859,2.48356c-0.07622,-0.55335 -0.15652,-1.05364 -0.22558,-1.46515c-1.53011,-9.12121 -4.62092,-21.57277 -5.92606,-31.54134c-0.01294,-0.09878 3.36163,-1.29502 3.36163,-1.29502z" fill="#ffddb7" stroke="#000000" stroke-width="2" stroke-linecap="butt"/><path d="M334.66347,185.17564l5.33515,32.60589l-3.91563,0.43313l-5.57303,-32.20277z" data-paper-data="{&quot;index&quot;:null}" fill="#ffffff" stroke="#000000" stroke-width="2" stroke-linecap="round"/><path d="M291.50749,174.46674c1.8238,-3.11636 20.29865,-4.74455 22.29892,-3.09307c2.174,1.7949 1.00594,18.44448 1.00594,18.44448l-3.89605,0.93663l25.66023,-6.66259c0,0 8.74514,-2.74414 9.11404,-0.22942c0,0 7.17171,10.25612 6.20899,31.38363c-5.26555,2.43384 -18.77836,3.33396 -18.77836,3.33396c0,0 -29.91083,3.37673 -33.27971,-0.71771c-3.36886,-4.09444 -10.04544,-40.47152 -8.33396,-43.39592z" data-paper-data="{&quot;origPos&quot;:null}" fill="none" stroke="#000000" stroke-width="2.5" stroke-linecap="round"/></g></g><path d="M153.5,284v-208h225.55256v208z" fill="none" stroke="none" stroke-width="0" stroke-linecap="butt"/></g></g></svg>