<svg version="1.1" xmlns="http://www.w3.org/2000/svg" xmlns:xlink="http://www.w3.org/1999/xlink" width="109.375" height="109.375" viewBox="0,0,109.375,109.375"><defs><radialGradient cx="238.9375" cy="178.77636" r="54.6875" gradientUnits="userSpaceOnUse" id="color-1"><stop offset="0" stop-color="#ff0000"/><stop offset="1" stop-color="#ff0000" stop-opacity="0"/></radialGradient></defs><g transform="translate(-184.25,-124.08886)"><g data-paper-data="{&quot;isPaintingLayer&quot;:true}" fill-rule="nonzero" stroke-linecap="butt" stroke-linejoin="miter" stroke-miterlimit="10" stroke-dasharray="" stroke-dashoffset="0" style="mix-blend-mode: normal"><path d="M184.25,178.77636c0,-30.20307 24.48443,-54.6875 54.6875,-54.6875c30.20307,0 54.6875,24.48443 54.6875,54.6875c0,30.20307 -24.48443,54.6875 -54.6875,54.6875c-30.20307,0 -54.6875,-24.48443 -54.6875,-54.6875z" fill="url(#color-1)" stroke="none" stroke-width="0"/><path d="M206.29167,213.45809v-67.48845h67.41666v67.48845z" fill="#ff0000" stroke="none" stroke-width="0"/><path d="M206.29167,213.45809v-67.48845h67.41666v67.48845z" fill="none" stroke="#000000" stroke-width="5"/><path d="M210.71706,180.03716c0,-16.17252 13.11042,-29.28294 29.28294,-29.28294c16.17252,0 29.28294,13.11042 29.28294,29.28294c0,16.17252 -13.11042,29.28294 -29.28294,29.28294c-16.17252,0 -29.28294,-13.11042 -29.28294,-29.28294z" fill-opacity="0.66667" fill="#590028" stroke="none" stroke-width="0"/><path d="M260.53339,180.12611c0.19651,3.01692 -1.91856,6.80351 -7.12182,11.32119c-4.4899,3.8983 -11.78798,8.72254 -15.85,9.54047c-0.95396,0.19209 -5.78245,-8.25371 -5.78285,-8.95602c-0.00115,-2.01631 8.70905,-5.09319 6.79884,-5.05409c-11.74184,0.24035 -15.36958,-0.01999 -16.55104,-0.87606c-2.58146,-1.87049 -2.84399,-4.77138 -2.39301,-7.44055c0.42744,-2.52983 1.47233,-4.86325 2.62432,-5.49741c1.19859,-0.6598 12.97706,0.71004 17.09279,0.71004c0.45706,0 -10.23139,-6.9331 -9.14523,-7.62966c1.4332,-0.91911 8.10656,-7.70638 10.19894,-7.12547c1.47486,0.40946 5.38036,3.80025 9.99752,7.84085c4.25358,3.72241 9.26183,7.89082 10.13151,13.16671z" data-paper-data="{&quot;index&quot;:null}" fill="#ffffff" stroke="none" stroke-width="0"/></g></g></svg>