<svg version="1.1" xmlns="http://www.w3.org/2000/svg" xmlns:xlink="http://www.w3.org/1999/xlink" width="258.66667" height="258.66667" viewBox="0,0,258.66667,258.66667"><g transform="translate(-107.43868,-52.08777)"><g data-paper-data="{&quot;isPaintingLayer&quot;:true}" fill-rule="nonzero" stroke-linejoin="miter" stroke-miterlimit="10" stroke-dasharray="" stroke-dashoffset="0" style="mix-blend-mode: normal"><path d="M195.11031,246.64108l-2.95454,-15.45454c0,0 3.48066,-8.00264 9.55163,-8.62332c12.53426,-1.28146 61.58473,1.3506 61.58473,1.3506c0,0 3.98684,-0.98702 5.20432,1.38706c0.60508,1.17991 -0.08116,5.4714 0.53651,8.14476c1.08544,4.69793 3.35008,8.19545 3.35008,8.19545z" data-paper-data="{&quot;index&quot;:null}" fill="#0f1b82" stroke="#000000" stroke-width="2.5" stroke-linecap="butt"/><g data-paper-data="{&quot;index&quot;:null}" stroke-linecap="butt"><path d="M216.91289,194.47406c6.60388,0 24.92223,-1.68021 31.71839,5.00774c-5.03265,19.67402 10.5252,25.79995 10.5252,25.79995c0,0 -9.93367,6.24359 -31.73077,5.73077c-15.25441,-0.35889 -26.98718,-10.83334 -26.98718,-10.83334c0,0 1.21572,-25.70512 16.47436,-25.70512z" fill="#ffffff" stroke="#000000" stroke-width="2.5"/><path d="M207.15543,213.9766c0,0 0.6531,-3.38082 -0.39368,-8.08776c-0.19583,-0.88056 -8.6416,-0.68501 -12.32516,-2.45914c-5.3271,-2.56572 -7.66904,-7.26648 -7.85679,-8.6797c-0.48601,-3.65822 6.43348,-5.53197 10.08549,-8.00035c5.97553,-4.03883 10.82705,-7.57305 16.71514,-7.57305c16.97648,0 30.73864,8.95431 30.73864,20c0,11.0457 -13.87579,14.09091 -29.94318,10.11364c-4.2492,3.18181 -7.02045,4.68636 -7.02045,4.68636z" fill="#db93e6" stroke="none" stroke-width="0"/><g stroke="none" stroke-width="0.5"><path d="M220.40525,217.33672c-1.63236,0.53811 -0.07853,2.07054 -0.07853,2.07054c1.41518,0.43328 3.54426,0.37043 5.00133,0.3748c5.42615,0.01626 9.70721,-2.13499 12.82316,-6.48443c0.10486,-0.39648 0.17087,-0.80438 0.20491,-1.2159c-2.74423,1.72522 -5.55617,3.59895 -8.70846,4.25285c0,0 -7.78849,0.52285 -9.24241,1.00214zM236.95683,208.9053c0.52005,-0.33338 1.03568,-0.65783 1.54815,-0.96052c0.19295,-0.20246 0.46891,-0.37527 0.86042,-0.48204c1.68834,-0.46045 2.1488,1.22788 2.1488,1.22788l0.41493,1.65357c0.08203,1.48178 -0.13091,2.98873 -0.51483,4.42225c-3.79142,5.60386 -9.12597,8.4983 -15.98637,8.51558c-1.73471,0.00437 -4.55445,0.04961 -6.18915,-0.57758c-5.09555,-1.95504 -5.23701,-7.63143 -3.81122,-11.9639l1.61836,-1.34489l2.8332,1.22443l-1.13117,1.22725c-0.12662,0.37417 -0.25448,0.80505 -0.36489,1.26803h1.2047c1.60415,0 3.30835,0.11581 4.99945,0.13387c3.97652,-1.1131 8.17162,-2.13822 11.78992,-4.09136l0.28515,-0.14347c0,0 0.11347,-0.05672 0.29456,-0.10909z" fill="#ff0000"/><path d="M221.48099,209.03789c-0.42503,0.33527 -2.11649,1.49903 -2.11649,1.49903l-2.61206,-0.88793c0,0 2.43536,-3.76665 5.19804,-5.85294c5.16718,-3.90209 13.56669,-5.31795 17.86354,0.87372c0.32584,0.46951 1.1421,3.00789 1.1421,3.00789l-3.29809,0.87086c0,0 -0.2981,-1.38257 -0.70637,-1.85475c-1.29595,-1.49884 -4.72408,-3.32558 -6.86294,-2.98663c-3.65961,0.57995 -5.92575,3.21514 -8.60772,5.33075z" fill="#ab164a"/></g></g><g data-paper-data="{&quot;index&quot;:null}" stroke-linecap="butt"><g data-paper-data="{&quot;index&quot;:null}"><path d="M287.01113,198.30723c-1.54871,6.8863 -15.53108,8.41727 -45.20523,6.30251c-14.50144,-1.03346 -32.63593,-8.33961 -41.26624,-14.01454c-5.662,-3.7231 5.1124,-37.25219 11.1452,-40.33847c15.84435,-8.10571 47.44016,-11.54293 61.50691,-1.01501c8.61918,6.45083 4.36554,27.98299 4.36554,27.98299c0,0 -3.07384,4.99416 -4.86898,12.82825c4.08893,0.70125 15.51169,2.9679 14.32281,8.25424z" fill="#fddfbd" stroke="#000000" stroke-width="3"/><path d="M272.12732,184.4606c0,0 -21.55494,-11.80615 -25.27672,-11.61048c-0.6827,1.16224 -2.74332,15.18041 -3.21842,14.92759c-11.86835,-6.31573 -15.42184,-9.3312 -15.42184,-9.3312l-12.49983,18.17156c0,0 -5.65451,-6.98491 -8.10922,-10.43225c0.12008,-2.23113 -2.45978,5.75858 -2.45978,5.75858l-4.09386,-2.5314c0,0 -0.59969,-1.47503 -0.47677,-2.74133c0.58281,-6.00406 3.75427,-23.06783 13.65953,-29.51033c11.54239,-7.50731 64.99011,1.2276 64.99011,1.2276c0,0 -1.80448,13.13346 -3.10978,17.93121c-1.63465,3.21815 -3.47845,8.57855 -3.47845,8.57855z" fill="#f89587" stroke="none" stroke-width="0"/></g><g><g><path d="M177.56438,176.77551c0,0 -7.7505,4.21898 -15.06166,6.5047c-5.06754,1.58429 -9.87943,1.61429 -11.93725,1.25084c-5.02675,-0.88783 -5.80786,-11.42793 -2.5326,-12.97146c1.92299,-0.90624 6.25218,-1.18543 9.97971,-1.22722c9.29724,-0.10425 20.23893,1.65225 20.23893,1.65225l-0.68711,4.79086z" fill="#0066cc" stroke="#000000" stroke-width="3"/><path d="M147.74018,179.00288c0,0 2.5092,0.28133 11.43167,-0.52999c7.57642,-0.68894 10.95238,-2.66833 13.1418,-3.70847c1.97834,-0.93985 2.6975,-1.49284 2.6975,-1.49284l0.46057,2.94903c0,0 -9.79893,5.45269 -16.79566,6.60582c-4.11303,0.67785 -8.33357,0.30043 -8.33357,0.30043c0,0 -1.45968,-1.19505 -1.80533,-1.83052c-0.36606,-0.67298 -0.79699,-2.29346 -0.79699,-2.29346z" fill="#0f1b82" stroke="none" stroke-width="0"/></g><g stroke="#000000"><path d="M283.62316,160.57182c0,0 -56.15418,5.8287 -65.75426,8.61377c-12.52623,3.63397 -24.36462,6.69888 -24.36462,6.69888c0,0 -12.24423,-4.71656 -15.75794,-17.20937c-1.07571,-3.82457 8.54338,-23.70767 9.92294,-26.02048c4.17509,-6.99951 6.50729,-16.90519 17.91699,-20.97961c30.56275,-10.91402 69.53928,-1.56531 77.06723,4.84835c6.61775,5.63819 0.84867,23.26033 0.84867,23.26033z" fill="#ff2d32" stroke-width="3"/><path d="M191.15649,175.22425c0,0 -12.62699,-11.23609 -12.8334,-18.78312c-0.20977,-7.66949 20.89729,-42.29697 24.68849,-42.06033c12.86573,0.80305 15.8555,54.32906 15.8555,54.32906l-27.7106,6.51439z" fill="#ab164a" stroke-width="1.5"/></g></g><g><path d="M175.51673,162.70125c0.63011,-0.86933 9.86575,6.05578 14.55834,12.82423c2.69655,3.88941 1.5126,8.74042 1.25364,11.77412c-0.07065,0.82757 -2.43714,1.51883 -3.30903,2.38812c-1.57722,1.5725 -2.29285,3.18722 -4.24836,3.41405c-4.87862,0.56591 -10.41134,-27.4249 -8.25459,-30.40053z" fill="#fddfbd" stroke="#000000" stroke-width="3"/><path d="M180.03593,184.63867c0,0 1.07839,0.3933 2.98221,-0.24169c2.40799,-0.80317 7.64997,-4.21155 7.64997,-4.21155c0,0 1.26713,3.86628 1.18747,4.98412c-0.10875,1.52599 -3.65841,4.55627 -6.47251,5.91898c-1.53364,0.74265 -2.57277,0.22368 -2.75135,0.2648c-0.48832,0.11247 -2.59576,-6.71466 -2.59576,-6.71466z" fill="#f89587" stroke="none" stroke-width="0"/><path d="M182.35587,174.68938c0.05379,-0.59259 8.135,4.01674 7.65545,5.27685c-0.61892,1.62638 -3.30371,9.16807 -5.35976,7.01996c-0.83972,-0.87732 -2.55025,-9.49185 -2.29568,-12.29681z" fill="#f89587" stroke="#000000" stroke-width="1.5"/></g><g><g data-paper-data="{&quot;index&quot;:null}"><path d="M216.24782,184.98487c-1.70945,1.95319 -5.36232,-6.58969 -6.0061,-6.1568c-0.42312,0.28451 -5.14253,3.00679 -8.98637,6.22096c-3.90704,3.26701 -7.05519,7.60815 -7.19471,7.30586c-0.0759,-0.16446 -2.66214,-14.73841 -1.38195,-15.8604c7.06838,-6.19484 34.48236,-8.99237 34.48236,-8.99237c0,0 -8.7163,14.97252 -10.91323,17.48273z" fill="#50a5eb" stroke="#000000" stroke-width="3"/><path d="M216.55813,173.72078l7.86007,-4.60598l-8.98706,15.03695z" fill="#66ffff" stroke="none" stroke-width="0"/></g><g data-paper-data="{&quot;index&quot;:null}"><path d="M301.70065,191.61425c0,0 -16.22417,-8.93283 -24.32046,-11.84785c-0.85406,-0.30751 2.344,-2.64793 0.99614,-3.26082c-7.44214,-3.38403 -23.97786,-8.13429 -31.89989,-10.46345c-0.6229,-0.18315 -2.15139,-0.61487 -2.55846,-0.18643c-2.12416,2.23566 -0.66953,10.81077 -2.71747,10.68802c-2.21489,-0.13275 -4.35214,-1.63474 -6.32171,-3.86786c-3.08051,-3.49267 -5.60617,-7.17151 -5.60617,-7.17151c0,0 7.80086,-9.7378 17.65068,-44.97895c3.02817,1.86231 9.24411,9.30278 10.5315,14.67688c1.16949,4.88199 -0.13942,8.76295 0.56791,8.14234c7.02465,-6.16343 19.83392,-10.79853 24.63185,-11.14906c8.34257,-0.6095 28.1584,37.15058 28.1584,37.15058c0,0 -14.00597,-3.01184 -22.53226,-2.26414c5.87378,3.99332 13.15417,20.5339 13.41995,24.53225z" fill="#66ffff" stroke="#000000" stroke-width="3"/><path d="M270.64562,157.71138c0,0 7.70232,8.21335 11.55273,12.71112c4.53923,5.30239 14.77553,16.80493 14.77553,16.80493l-17.81723,-8.27844c0,0 2.31295,-1.49342 0.06053,-3.55931c-1.48073,-1.3581 -4.83795,-2.11278 -9.78857,-3.75438c-3.75632,-1.24559 -20.26104,-6.2226 -25.03662,-7.45619c-0.79592,-0.2056 -1.54995,0.97636 -1.54995,0.97636c0,0 -1.31587,2.07095 -1.5794,3.41354c-0.38368,1.9546 -0.45001,6.47144 -0.45001,6.47144c0,0 -2.81442,-1.06056 -4.13393,-2.26654c-1.86432,-1.70393 -5.99377,-6.9899 -5.99377,-6.9899c0,0 1.71628,-2.99554 4.08753,-7.23164c4.38863,-7.83997 10.0375,-23.71579 12.68121,-35.88586c0.67592,1.59344 4.60319,29.60255 4.60319,29.60255c0,0 9.09538,-3.2433 17.14613,-5.70465c5.2368,-1.60103 10.5527,-2.93735 10.85313,-2.60867c7.24117,3.71842 19.15289,19.90879 19.15289,19.90879c0,0 -17.85911,-4.28598 -22.84426,-5.35988c-2.34064,-0.50423 -5.71916,-0.79329 -5.71916,-0.79329z" fill="#50a5eb" stroke="none" stroke-width="0"/></g></g></g><g data-paper-data="{&quot;index&quot;:null}" stroke-linecap="butt"><g><g><path d="M229.6725,251.30851c0,-5.27339 -0.62881,-15.66275 5.84694,-19.95325c1.61333,-1.06892 5.81937,-4.16312 9.46782,-0.88705c0.41517,0.37279 -0.71559,1.36023 0.03529,2.74082c0.27717,0.50963 2.10941,0.5628 2.5842,1.16226c1.49984,1.89365 4.70038,3.7346 5.3839,3.65878c2.17588,-5.04663 8.87183,-11.13797 11.09269,-11.60504c3.99089,-0.83933 19.13199,2.40635 18.9705,5.25113c0.48858,2.31445 -3.31886,6.12655 -3.31886,6.12655c0,0 15.92988,8.36591 21.89613,11.69543c10.27345,5.73316 11.55502,9.33992 11.55502,9.33992c0,0 -0.46602,3.23879 -4.67882,4.3903c-8.25789,2.25717 -18.50101,2.91383 -30.51894,2.60703c-11.67654,-0.29808 -9.14099,-9.31205 -21.39394,-10.14324c-10.3314,-1.06744 -26.92192,4.37368 -26.92192,-4.38362z" fill="#ff2d32" stroke="#000000" stroke-width="3"/><path d="M293.10746,264.33186c0,0 -11.34296,1.14548 -17.05687,0.37042c-5.76557,-0.78207 -12.11927,-9.601 -17.71151,-10.35557c-11.83488,-1.59689 -20.7241,3.57364 -23.76858,1.63995c-0.19583,-0.12438 -4.82101,-1.75622 -4.21453,-7.0993c1.45794,-12.84447 7.49049,-14.79963 7.49049,-14.79963c0,0 6.97619,7.35858 15.15116,8.28531c1.60103,0.18149 0.49347,-2.45594 0.49347,-2.45594c0,0 -0.2332,-1.26821 0.14627,-2.11276c0.56829,-1.26478 2.93203,-4.73831 2.93203,-4.73831c0,0 0.76675,1.89943 2.91968,4.13134c2.59891,2.69423 7.56954,5.29636 12.71524,8.60692c5.7203,3.68023 15.31649,6.8912 17.61341,8.90368c2.50147,2.19168 3.2897,9.62387 3.2897,9.62387z" fill="#ab164a" stroke="none" stroke-width="0"/><path d="M244.59548,234.13945c0,0 1.17283,0.17213 5.17835,2.23765c3.26103,1.68161 7.32042,5.54219 7.32042,5.54219c0,0 -2.50531,-1.74238 -7.78277,-2.78817c-5.49335,-1.08856 -4.71601,-4.99165 -4.71601,-4.99165z" fill="#000000" stroke="none" stroke-width="0"/></g><g fill="#db93e6" stroke="#000000" stroke-width="2.5"><path d="M264.19009,249.30177c-1.66981,-1.11055 -2.00545,-3.39316 -1.65126,-4.77438c0.84029,-3.27704 3.72212,-5.23874 5.56346,-5.69388c7.80261,-1.92865 13.93466,-0.99587 13.79056,0.54618c-0.25967,2.77871 -5.91998,3.00386 -9.54239,5.4258c-1.83233,1.22509 -2.38267,2.55716 -3.47385,3.5806c-1.04173,0.97705 -2.81531,2.16019 -4.68654,0.91568z"/></g><g fill="#db93e6" stroke="#000000" stroke-width="2.5"><path d="M272.12776,253.14414c-0.55768,-0.634 0.66612,-4.68684 3.81414,-7.60397c7.47922,-6.93068 11.09373,-6.80389 12.50391,-4.51558c1.27592,2.07047 -4.27279,4.84978 -8.16309,8.50829c-3.47256,3.26566 -7.03971,4.87912 -8.15497,3.61124z"/></g><g fill="none" stroke="none" stroke-width="1" font-family="sans-serif" font-weight="normal" font-size="12" text-anchor="start"/></g><g><path d="M283.55628,273.02874c-6.19662,0 -15.97363,-7.16816 -23.39633,-7.89787c-10.92901,-1.07441 -28.45748,-2.70571 -31.79915,-5.833c-3.05697,-2.86085 -4.49409,-7.13092 0.02833,-7.73384c0.99148,5.71805 6.53197,6.19962 10.87413,6.29818c5.25527,0.11929 11.84156,-3.47426 17.58752,-2.42837c2.58926,0.4713 4.87528,2.2445 6.97262,3.00575c6.14526,2.23049 13.93178,4.67034 19.72045,4.67034c13.34715,0 19.78011,1.35959 24.83945,-0.24377c2.74728,-0.87066 3.62622,-4.60752 4.97251,-4.79021c1.76229,-0.23914 3.67269,6.1041 3.67269,6.1041c0,0 0.01926,3.94408 -4.47661,6.57254c-4.70575,2.75116 -13.6116,2.27614 -28.99563,2.27614z" fill="#ffffff" stroke="#000000" stroke-width="3"/><path d="M228.10761,251.64761c0,0 -0.38811,1.5518 1.36774,3.59301c1.1438,1.3297 2.93794,2.93279 7.52113,3.95612c4.02399,0.89847 16.17014,-4.21266 19.47612,-3.36953c8.48774,2.16462 12.86949,4.63492 21.06385,7.73004c1.83674,0.69376 3.40423,0.94236 5.21093,0.99286c1.31271,0.03669 3.62126,3.88186 5.38156,3.80417c4.74672,0.93503 9.14292,3.01537 9.14292,3.01537l-3.76861,-0.08054c0,0 -4.53214,2.39632 -12.912,0.16342c-4.75268,-1.26641 -9.74603,-3.49174 -18.79562,-7.2494c-4.6831,-1.94456 -23.79843,-0.75572 -28.02312,-2.37381c-2.90673,-1.1133 -5.29762,-2.08354 -6.32247,-5.27971c-1.112,-3.46798 0.65758,-4.902 0.65758,-4.902z" fill="#db93e6" stroke="none" stroke-width="0"/></g></g><g data-paper-data="{&quot;index&quot;:null}"><path d="M145.20936,259.94892c0.04241,-2.47433 0.31501,-6.06808 3.03912,-7.84383c6.77438,-4.41597 21.84121,-5.35458 39.81682,-5.35458c13.73795,0 26.35159,8.21949 35.53927,11.36139c6.69151,2.28828 10.87867,5.81811 10.71426,7.3771c-0.04889,0.46356 -0.80322,9.77073 -3.03353,11.28808c-9.24233,6.28783 -19.76489,8.26512 -44.76437,7.12452c-25.18041,-1.14886 -41.37564,-20.21601 -41.31158,-23.95267z" fill="#feebf7" stroke="#000000" stroke-width="3" stroke-linecap="butt"/><path d="M152.00453,250.90556c0,0 -0.84707,11.89443 8.27964,19.71251c6.07859,5.20701 17.03206,10.26951 27.39504,10.51348c41.52696,0.97766 43.85978,-8.71748 43.85978,-8.71748c0,0 0.67795,0.70047 -0.26928,2.13076c-2.1536,3.25189 -10.66901,8.61306 -41.0121,8.72623c-7.01706,0.02616 -16.70795,-2.47792 -25.10525,-6.68113c-6.59028,-3.29871 -12.3838,-7.9487 -15.46279,-11.19421c-3.50151,-3.69086 -3.9908,-7.24108 -1.56959,-11.79576c1.34505,-2.53025 3.88455,-2.69441 3.88455,-2.69441z" fill="#db93e6" stroke="none" stroke-width="0" stroke-linecap="butt"/><path d="M151.14123,252.65034c0,0 0.19389,-0.8389 0.5468,-1.93955c0.42057,-1.31164 1.067,-2.99503 1.88033,-4.07344c1.55372,-2.06008 3.56103,-2.24624 3.56103,-2.24624c0,0 1.0265,-2.60053 -1.70082,-5.32502c-4.0597,-4.05547 -8.21134,-12.34034 -4.76503,-12.61018c5.54916,-0.4345 7.62992,3.151 12.23512,3.82835c2.53607,0.37303 8.98499,-1.67123 11.41718,-1.28353c11.30486,1.80202 17.29118,6.00828 23.60915,6.00828c7.33385,0 17.78926,1.88915 17.78926,1.88915c0,0 16.97698,-1.6428 20.50515,2.57333c1.50175,1.79457 0.82106,5.80379 1.47305,7.04408c0.96651,1.8386 -13.16138,2.77316 -13.16138,2.77316c0,0 -2.00237,4.32545 -2.48384,5.89325c-0.08947,0.29283 -3.09953,-0.72228 -4.46257,-0.6288c1.53018,0.40939 4.99513,1.89904 6.97111,3.54662c2.19429,1.82961 4.25243,5.55985 4.17404,9.32408c-0.05493,2.63756 -0.10932,3.45474 -1.82169,4.76249c-3.42305,2.61421 -12.20237,4.06439 -31.97182,4.06439c-16.43146,0 -32.00107,-6.4241 -39.10079,-13.25233c-5.7154,-5.49685 -4.69428,-10.34807 -4.69428,-10.34807z" fill="#ff2d32" stroke="#000000" stroke-width="3" stroke-linecap="butt"/><path d="M175.36115,237.25565c0,0 1.03652,-7.96136 7.11928,-10.82989c1.92442,-0.90753 5.24339,-0.13222 8.04451,0.04963c5.65123,0.36688 21.49042,6.97696 24.77663,12.8099c0.60412,1.07231 0.69751,4.18342 -1.27196,6.67123c-2.20742,2.7884 -6.54581,4.91527 -6.54581,4.91527" fill="#ff2d32" stroke="#000000" stroke-width="3" stroke-linecap="round"/><path d="M166.09817,231.90335c0,0 7.27447,6.75731 9.83197,6.7084c0.95237,-0.0182 1.20755,-3.43723 2.14576,-5.88088c0.61725,-1.60766 2.16304,-2.60236 2.16304,-2.60236c0,0 0.63375,-2.6983 3.81385,-2.72704c5.4403,-0.04917 13.82885,2.38961 13.82885,2.38961l2.03405,8.25599c0,0 8.45291,2.15938 9.6234,4.12433c1.95768,3.28645 -1.89165,7.90194 -1.89165,7.90194c0,0 -2.83557,11.70837 -1.24447,14.49703c9.75662,3.18122 15.74286,8.22536 15.74286,8.22536c0,0 -11.11681,8.01019 -49.28375,-1.64155c-7.81188,-1.97549 -15.90575,-5.66675 -18.17961,-11.89839c-0.91988,-2.52099 -2.88462,-3.824 -2.34956,-6.44265c0.59309,-2.90261 3.74727,-6.83043 3.74727,-6.83043l1.53649,12.19772c0,0 1.86675,-1.10784 5.10998,-2.55466c6.10314,-2.72265 15.46024,-6.64573 15.02999,-6.64573c-6.34656,0 -20.1673,-4.3715 -20.1673,-4.3715c0,0 -6.03651,-9.3096 -5.68343,-14.78789c7.07875,4.38348 14.32849,4.9893 14.40253,4.20109z" fill="#ab164a" stroke="none" stroke-width="0" stroke-linecap="butt"/><path d="M168.19211,251.83839c2.69941,-0.28975 8.58227,0.82092 15.06535,1.6593c12.7879,1.65371 17.45613,3.86235 19.94424,6.86548c1.17291,1.4157 3.01447,3.41351 2.87108,4.86644c-0.16474,1.66924 -15.2505,-2.82187 -25.38226,-5.05874c-11.07222,-2.44449 -16.19973,-4.28138 -15.14171,-5.54343c0.4178,-0.49839 -0.3913,-2.46332 2.6433,-2.78905z" fill="#feebf7" stroke="none" stroke-width="0" stroke-linecap="butt"/><path d="M166.53719,250.19538c0,-3.26369 0.04967,-4.21591 16.47316,-2.08568c19.27243,2.49976 26.52178,10.2932 26.52178,13.55689c0,3.26367 -7.14901,-7.18887 -26.35704,-8.69032c-15.42981,-1.20611 -16.63789,0.4828 -16.63789,-2.78089z" fill="#feebf7" stroke="none" stroke-width="0" stroke-linecap="butt"/><path d="M167.0314,244.98117c0,-0.65146 2.91515,-4.51896 7.08346,-4.34516c4.9348,0.20576 15.40028,0.38166 23.89432,3.87724c5.02314,2.06719 9.57241,7.25778 11.30349,8.58579c1.32733,1.01827 -0.7129,2.67154 -0.76892,3.00573c-0.27957,1.6676 -8.84549,-6.43082 -22.73296,-8.5165c-9.99787,-1.50152 -18.7794,1.5205 -18.7794,-2.60709z" fill="#feebf7" stroke="none" stroke-width="0" stroke-linecap="butt"/><path d="M170.26871,242.29163c0,0 -0.16088,-1.03356 10.22634,-0.82543c13.50402,0.27059 15.88864,3.36088 15.88864,3.36088c0,0 -11.56454,11.57386 -16.25471,11.50921c-4.69017,-0.06464 -9.86027,-14.04466 -9.86027,-14.04466z" fill="#db93e6" stroke="none" stroke-width="0" stroke-linecap="butt"/><path d="M168.19211,251.83839c2.69941,-0.28975 8.58227,0.82092 15.06535,1.6593c12.7879,1.65371 17.45613,3.86235 19.94424,6.86548c1.17291,1.4157 3.01447,3.41351 2.87108,4.86644c-0.16474,1.66924 -15.2505,-2.82187 -25.38226,-5.05874c-11.07222,-2.44449 -16.19973,-4.28138 -15.14171,-5.54343c0.4178,-0.49839 -0.3913,-2.46332 2.6433,-2.78905z" fill="none" stroke="#000000" stroke-width="2" stroke-linecap="butt"/><path d="M166.53719,250.19538c0,-3.26369 0.04967,-4.21591 16.47316,-2.08568c19.27243,2.49976 26.52178,10.2932 26.52178,13.55689c0,3.26367 -7.14901,-7.18887 -26.35704,-8.69032c-15.42981,-1.20611 -16.63789,0.4828 -16.63789,-2.78089z" fill="none" stroke="#000000" stroke-width="2" stroke-linecap="butt"/><path d="M167.0314,244.98117c0,-0.65146 2.91515,-4.51896 7.08346,-4.34516c4.9348,0.20576 15.40028,0.38166 23.89432,3.87724c5.02314,2.06719 9.57241,7.25778 11.30349,8.58579c1.32733,1.01827 -0.7129,2.67154 -0.76892,3.00573c-0.27957,1.6676 -8.84549,-6.43082 -22.73296,-8.5165c-9.99787,-1.50152 -18.7794,1.5205 -18.7794,-2.60709z" fill="none" stroke="#000000" stroke-width="2" stroke-linecap="butt"/></g><g data-paper-data="{&quot;index&quot;:null}" stroke-linecap="butt"><path d="M177.84016,213.52422c0,0 4.99489,-1.83232 6.61264,-4.20353c1.75128,-2.56695 2.34978,-10.36346 2.34978,-10.36346c0,0 4.44132,4.17093 7.05635,5.37467c3.12646,1.43916 11.62011,2.38675 11.62011,2.38675c0,0 1.86864,6.50038 -0.66688,11.66245c-2.86195,5.82662 -17.71887,10.83754 -23.91646,8.05976c-9.09962,-4.07847 -3.05556,-12.91666 -3.05556,-12.91666z" fill="#fddfbd" stroke="#000000" stroke-width="2.5"/><path d="M186.79015,207.35199c0,0 -0.96957,-6.26649 1.34781,-6.37597c1.29734,-0.06129 4.48997,2.07665 7.61464,3.22449c4.6895,1.72268 9.47643,2.71814 9.47643,2.71814v7.08334c0,0 -3.32597,1.41603 -9.35789,0.14768c-5.4053,-1.13659 -9.081,-6.79769 -9.081,-6.79769z" fill="#f89587" stroke="none" stroke-width="0"/><path d="M184.2847,196.07664c0,0 -1.82015,-3.72561 1.59546,-6.87332c1.19957,-1.10548 5.15648,-1.0136 6.85975,-0.59813c1.96388,0.47904 1.60554,1.38826 1.60554,1.38826c0,0 -9.83758,2.7673 -5.86382,8.41071c2.49631,3.54518 7.30707,5.60858 9.64922,5.68529c11.74412,0.38461 16.53846,-3.52565 16.53846,-3.52565c0,0 -0.27262,1.89017 -2.54248,3.48278c-2.15838,1.51438 -6.18404,2.73517 -11.17547,2.73517c-10.97489,0 -16.66667,-10.70512 -16.66667,-10.70512z" fill="#000000" stroke="none" stroke-width="0"/></g><g data-paper-data="{&quot;index&quot;:null}" stroke="none" stroke-width="0" stroke-linecap="butt"><path d="M171.63298,217.78747c0,0 2.72868,-4.66309 4.30908,-2.76723c1.98252,2.37826 3.55833,9.01198 9.46091,9.01198c7.55027,0 13.04968,-1.03994 14.65694,-1.46732c0.65089,-0.17308 0.16854,2.24528 0.16854,2.24528c0,0 -1.74011,4.38205 -4.71523,7.45914c-3.52936,3.65032 -8.65626,6.44102 -12.69646,6.47274c-4.25363,0.0334 -11.18377,-20.95459 -11.18377,-20.95459z" fill="#0066cc"/><path d="M169.4233,222.74537c0,0 -0.45853,-3.17708 0.42586,-3.86801c0.85364,-0.66691 2.55014,-1.83102 2.55014,-1.83102c0,0 6.96318,20.15185 10.30612,21.79978c1.60257,0.79 14.21787,-8.49206 14.21787,-8.49206c0,0 -5.61245,14.83696 -15.2174,14.83696c-0.36026,0 -5.11286,-5.14016 -8.30678,-11.16476c-2.71711,-5.1252 -3.97583,-11.28089 -3.97583,-11.28089z" fill="#0f1b82"/><path d="M196.85163,224.12438c-3.76247,0.98462 -10.77204,1.31771 -14.6558,0.81329c-3.44446,-0.44736 -6.37651,-9.63887 -6.37651,-9.63887c0,0 -3.96347,2.52037 -4.21087,2.70732c-0.91576,0.692 -1.59559,2.26848 -1.59559,2.26848c-0.6235,1.75564 0.42657,3.90812 1.61056,7.15492c2.36779,6.49314 7.04681,15.45314 9.63655,15.49622c8.82024,0.14673 16.66667,-15.83334 16.66667,-15.83334c0,0 0.34418,3.11237 -1.25125,6.70171c-2.40713,5.41548 -7.92045,12.08035 -15.28721,12.08035c-4.39055,0 -13.53978,-14.55053 -14.36066,-23.72916c-0.60507,-6.76551 10.27275,-11.10603 10.27275,-11.10603c0,0 -0.37719,0.77836 0.61709,3.04439c1.26064,2.87309 4.10285,7.43667 5.85854,8.12521c3.34322,1.31114 15.87164,-1.65343 15.87164,-1.65343l1.61244,0.89594c0,0 -0.55857,1.66552 -4.40835,2.673z" fill="#000000"/></g><path d="M234.45845,199.3858c3.36211,-4.05163 6.99517,-6.22601 8.69883,-4.64198c1.70365,1.58402 1.1807,6.3983 -2.18141,10.44993c-3.36211,4.05163 -7.22725,7.09557 -8.93091,5.51154c-1.12956,-1.05025 -1.17829,-3.90276 -0.10293,-6.88687c0.54655,-1.51666 1.38345,-3.06733 2.51642,-4.43263z" data-paper-data="{&quot;index&quot;:null}" fill="#ff6666" stroke="#000000" stroke-width="2.35" stroke-linecap="butt"/><g data-paper-data="{&quot;index&quot;:null}" fill="#000000" stroke="none" stroke-linecap="butt"><path d="M224.14115,156.64959c0,0 11.89913,12.83257 14.63842,17.40668c1.75257,2.92646 2.70363,7.19816 2.70363,7.19816c0,0 0.59106,13.01614 -12.60869,10.57754c-3.75581,-0.69387 -7.16803,-4.62083 -8.04325,-9.17101c-0.89239,-4.63943 2.69356,-7.13464 2.69356,-7.13464l3.44674,1.80344c0,0 0.08939,9.88161 4.43087,9.56472c2.53106,-0.18474 3.12971,-1.85095 3.12971,-5.10431c0,-7.29908 -7.89962,-14.36344 -13.4597,-22.29608c-8.1128,-11.57461 -15.05221,-21.19599 -15.05221,-21.19599c0,0 2.19223,-1.76433 5.21209,0.95485c4.46699,4.02223 9.30845,12.9973 12.90884,17.39665z" stroke-width="0"/><path d="M265.58849,188.8875c0,0 -3.61201,5.87253 -9.14381,5.65514c-9.00311,-0.35381 -11.01672,-9.9287 -11.01672,-9.9287c0,0 -1.87445,-2.02272 -1.6027,-3.47511c0.38327,-2.04846 1.91778,-3.42379 3.54665,-4.05973c1.40809,-0.54974 4.81214,-0.67008 6.95522,-1.50587c17.56892,-6.85185 24.62963,-17.59259 24.62963,-17.59259c0,0 0.01672,1.03536 -0.97797,2.56167c-1.82842,2.80562 -5.58751,7.27007 -8.64932,10.01192c-3.7176,3.32912 -16.44308,11.48677 -16.44308,11.48677c0,0 -1.05571,1.80679 -0.58558,4.22944c0.48565,2.50267 2.51257,4.91273 3.47595,5.12109c0.71906,0.15551 3.66093,-1.76065 5.11026,-4.16126c1.07482,-1.7803 0.83963,-4.21836 0.83963,-4.21836c0,0 4.83676,-0.20269 5.60764,1.22223c0.53214,0.98362 -1.35573,4.12678 -1.74581,4.65336z" stroke-width="NaN"/></g><g data-paper-data="{&quot;index&quot;:null}"><path d="M312.49565,222.20087c-0.61124,-4.64451 -1.00645,-9.97455 3.83361,-10.61153c3.22445,-0.42437 7.85864,0.57857 10.84086,3.17784c1.49425,1.30235 2.64893,3.57664 2.85296,5.12697c0.29989,2.27871 -0.80268,4.33989 -2.76958,5.94926c-2.04209,1.67089 -5.00099,2.85281 -7.46639,3.17727c-4.84006,0.63699 -6.68022,-2.17531 -7.29147,-6.81982z" fill="#485e84" stroke="#000000" stroke-width="3" stroke-linecap="butt"/><path d="M276.72257,242.40989c-2.62478,-5.66455 1.69557,-9.63533 10.15472,-10.7486c8.45914,-1.11326 14.82432,0.13874 15.59114,5.96538c0.31506,2.3939 1.17447,9.8285 -2.79518,10.60373c-6.71256,1.31088 -7.27925,-4.5164 -8.72478,-4.30315c-4.10247,0.60519 -11.88098,3.54322 -14.22589,-1.51736z" fill="#f89587" stroke="#000000" stroke-width="3" stroke-linecap="butt"/><path d="M274.46992,225.32183c-1.54245,-11.72035 -1.96237,-28.67713 9.99122,-30.6527c4.69703,-0.77626 7.25613,6.14732 9.06438,5.90934c4.62599,-0.60881 8.0185,-2.24929 11.76271,0.37223c1.81905,1.27361 2.08828,2.75811 3.86687,3.70048c3.6143,1.91499 5.44118,-0.78096 8.20598,1.55426c0.73609,0.87566 8.18174,12.23707 7.33727,18.13078c-1.01579,7.08938 -5.53107,10.58717 -8.59534,11.9348c-4.96827,2.18497 -9.09232,-1.60553 -9.09232,-1.60553c0,0 -3.8908,2.25913 -6.21943,2.11004c-2.2657,-0.14507 -3.9452,-2.36567 -7.15927,-2.94499c-0.79611,-0.1435 -0.69015,3.25728 -5.29961,3.45294c-10.07304,0.42758 -13.18547,-6.81797 -13.86242,-11.96163z" fill="#fddfbd" stroke="#000000" stroke-width="3" stroke-linecap="butt"/><path d="M295.36388,221.15908c0,0 0.58852,0.33466 1.47631,2.01019c0.73018,1.37805 1.56515,4.08386 3.28296,4.62928c0.86159,0.27356 4.96196,-0.06646 6.2593,-0.84233c1.00675,-0.6021 1.50855,-1.62063 1.83582,-1.70555c1.62077,-0.42056 1.31817,-7.76916 1.31817,-7.76916l1.52108,-2.71445c0,0 2.16815,6.15637 3.04607,11.25769c2.75382,2.08139 4.55021,3.59247 4.55021,3.59247l4.26874,-2.62921c0,0 -0.76397,2.14594 -2.12385,3.9061c-0.59233,0.76668 -1.8967,1.3444 -2.29858,1.83329c-2.60097,3.16412 -6.69681,3.93951 -10.0058,1.52553c-0.40297,-0.29398 -1.55158,-1.38954 -2.48108,-0.71616c-3.2652,2.36548 -4.28376,1.83604 -6.03191,1.38874c-2.22339,-0.56891 -5.11241,-1.68361 -5.11241,-1.68361c0,0 -0.41213,-1.03698 -1.15375,-0.76905c-0.9548,0.34498 -1.81261,1.97991 -3.09479,2.81726c-0.52934,0.34569 -1.58709,0.11741 -2.03299,0.29864c-0.9858,0.40064 -2.93011,0.29574 -4.11608,-0.04607c-1.11833,-0.32232 -1.49697,-0.86393 -1.86631,-1.11402c-1.43386,-0.97089 -3.88156,-5.55491 -2.79965,-7.27227c1.31314,-2.0844 6.38691,-1.24775 6.38691,-1.24775c0,0 4.38757,3.45545 7.33748,2.8518c2.21825,-0.45392 1.8341,-7.60138 1.8341,-7.60138z" fill="#f89587" stroke="none" stroke-width="0" stroke-linecap="butt"/><path d="M293.7755,222.70931c-0.67848,-2.66557 -1.25591,-5.76171 -0.8287,-7.83979c0.37671,-1.83246 2.09902,-3.85893 3.06224,-3.9227c0.44235,-0.02928 0.75514,1.25562 0.75514,1.25562c0,0 -1.13622,1.27676 -1.31685,2.47558c-0.20028,1.32922 -0.14417,3.60866 0.31461,5.41109c0.82099,3.2255 1.79959,6.19879 1.50383,8.64956c-0.26315,2.1807 -1.76065,5.6856 -1.76065,5.6856l-2.46835,0.0178c0,0 0.99037,-4.32188 1.33733,-5.5866c0.48331,-1.76183 -0.1543,-4.40061 -0.5986,-6.14615z" fill="#000000" stroke="none" stroke-width="0" stroke-linecap="butt"/><path d="M308.52416,224.74243c-0.3589,-2.72705 -1.11864,-5.58503 -0.44899,-7.59811c0.59051,-1.77516 2.35264,-3.7669 3.31664,-3.71644c0.44273,0.02316 0.60848,1.89153 0.60848,1.89153c0,0 -1.09851,0.76095 -1.41947,1.93005c-0.35587,1.29624 0.07294,3.09536 0.31562,4.93937c0.43428,3.29986 0.41252,6.83894 -0.17061,9.23763c-0.51888,2.13438 -1.58537,3.32107 -1.58537,3.32107l-3.29,-0.41149c0,0 1.49624,-1.92024 1.99014,-3.13513c0.68802,-1.69239 0.91858,-4.67272 0.68356,-6.45851z" fill="#000000" stroke="none" stroke-width="0" stroke-linecap="butt"/><g stroke-linecap="butt"><path d="M265.17773,222.75583c-1.10742,-8.41476 2.49898,-15.82904 8.05513,-16.56026c5.55615,-0.73122 10.95806,5.49752 12.06549,13.91227c1.10743,8.41475 -2.49898,15.82905 -8.05513,16.56027c-5.55615,0.73122 -10.95805,-5.49752 -12.06548,-13.91227z" fill="#485e84" stroke="#000000" stroke-width="3"/><path d="M276.76162,213.59249l-3.96368,-6.44972c0,0 3.71566,0.88758 5.01528,1.82254c2.6952,2.00012 3.84758,5.06308 3.84758,5.06308z" fill="#8fbbbe" stroke="none" stroke-width="0"/><path d="M279.21497,220.09265l-0.98616,-2.98507c0,0 1.92184,-0.46945 2.61311,-0.51544c0.80942,-0.05385 2.29793,0.28039 2.29793,0.28039l0.58348,3.66509z" fill="#8fbbbe" stroke="none" stroke-width="0"/></g><g><path d="M261.45399,241.8178c-11.60833,1.52774 -22.33552,-7.23908 -23.86324,-18.84743c-1.52771,-11.60834 5.61106,-20.91091 17.21941,-22.43863c11.60833,-1.52772 21.18235,9.20637 22.71007,20.81472c1.52773,11.60833 -4.45789,18.94362 -16.06624,20.47134z" fill="#343545" stroke="#000000" stroke-width="3" stroke-linecap="butt"/><path d="M238.69375,218.8204c0,0 2.72658,-15.7322 12.88298,-17.06884c5.75939,-0.75799 12.09779,1.26036 16.92755,4.18408c3.44095,2.08301 6.15978,5.60331 6.69979,9.70659c1.10999,8.43423 -2.25115,11.92796 -12.40755,13.2646c-5.07204,0.66751 -11.69236,-1.48221 -16.33338,-4.5476c-4.65232,-3.07284 -7.76942,-5.53883 -7.76942,-5.53883z" fill="#485e84" stroke="none" stroke-width="0" stroke-linecap="butt"/><path d="M255.02256,201.16244c0,0 8.71864,4.68193 10.96429,18.04581c2.26404,13.4734 -4.00672,20.56247 -4.00672,20.56247" fill="none" stroke="#000000" stroke-width="1.6" stroke-linecap="round"/><path d="M264.56395,202.36964c0,0 5.48314,7.28552 7.8868,15.62418c3.46398,12.01713 0.08697,17.33813 0.08697,17.33813" fill="none" stroke="#000000" stroke-width="1.6" stroke-linecap="round"/><path d="M246.27309,204.19043c0,0 7.5738,5.20432 10.57513,18.45466c2.88673,12.74444 -0.60808,17.17735 -0.60808,17.17735" fill="none" stroke="#000000" stroke-width="1.6" stroke-linecap="round"/><path d="M253.5734,240.05615c0,0 -5.58905,-7.38149 -8.15854,-13.66582c-3.3844,-8.2774 -4.45995,-17.16056 -4.45995,-17.16056" fill="none" stroke="#000000" stroke-width="1.6" stroke-linecap="round"/><path d="M276.58764,226.00282c0,0 -5.82611,5.54171 -17.99342,7.64572c-11.35417,1.96341 -17.16851,-3.0182 -17.16851,-3.0182" fill="none" stroke="#000000" stroke-width="1.6" stroke-linecap="round"/><path d="M240.28797,226.44065c0,0 5.84811,-0.37848 12.09688,-1.77072c5.49522,-1.22434 11.24664,-3.43827 14.34463,-4.02572c3.67958,-0.69773 9.946,-1.10343 9.946,-1.10343" fill="none" stroke="#000000" stroke-width="1.6" stroke-linecap="round"/><path d="M238.55243,221.27411c0,0 8.20665,-7.19547 16.14484,-8.4684c12.45931,-1.99792 21.0497,1.46231 21.0497,1.46231" fill="none" stroke="#000000" stroke-width="1.6" stroke-linecap="round"/><path d="M238.59476,214.46621c0,0 5.74729,-5.52471 13.46411,-7.87055c11.11255,-3.37809 17.58686,-1.25905 17.58686,-1.25905" fill="none" stroke="#000000" stroke-width="1.6" stroke-linecap="round"/><path d="M251.33356,206.10464c-0.95506,0.12569 -1.81758,-0.44341 -1.92652,-1.27112c-0.10893,-0.82771 0.57699,-1.6006 1.53204,-1.72629c0.95506,-0.12569 1.81758,0.44342 1.92652,1.27113c0.10893,0.82771 -0.57699,1.60059 -1.53204,1.72628z" fill="#8fbbbe" stroke="none" stroke-width="0" stroke-linecap="butt"/><path d="M245.87878,207.87804c-0.47752,0.06284 -0.91558,-0.27333 -0.97842,-0.75085c-0.06284,-0.47752 0.27333,-0.91558 0.75085,-0.97842c0.47752,-0.06284 0.91558,0.27333 0.97842,0.75085c0.06284,0.47752 -0.27333,0.91558 -0.75085,0.97842z" fill="#8fbbbe" stroke="none" stroke-width="0" stroke-linecap="butt"/></g></g><path d="M107.43868,310.75444v-258.66667h258.66667v258.66667z" data-paper-data="{&quot;index&quot;:null}" fill="none" stroke="none" stroke-width="0" stroke-linecap="butt"/></g></g></svg>