<svg version="1.1" xmlns="http://www.w3.org/2000/svg" xmlns:xlink="http://www.w3.org/1999/xlink" width="234" height="234" viewBox="0,0,234,234"><g transform="translate(-123,-63)"><g data-paper-data="{&quot;isPaintingLayer&quot;:true}" fill-rule="nonzero" stroke-linejoin="miter" stroke-miterlimit="10" stroke-dasharray="" stroke-dashoffset="0" style="mix-blend-mode: normal"><path d="M123,297v-234h234v234z" data-paper-data="{&quot;index&quot;:null}" fill="none" stroke="none" stroke-width="0" stroke-linecap="butt"/><g data-paper-data="{&quot;index&quot;:null}"><g data-paper-data="{&quot;index&quot;:null}" stroke="#2f3bd4"><path d="M279.6385,260.53648c-1.85406,4.58214 -25.85719,10.41727 -30.45119,8.09236c-4.71152,-2.38439 -10.68508,-13.47357 -13.23045,-20.33513c-2.54536,-6.86157 -2.09665,-17.55666 -1.22204,-18.62462c2.62383,-3.20389 13.81861,-2.57406 18.83034,-2.87931c2.99459,-0.1824 14.77775,-0.55317 18.26343,1.48107c3.68778,2.15217 9.09139,29.09851 7.80991,32.26558z" data-paper-data="{&quot;origRot&quot;:0,&quot;origPos&quot;:null}" fill="#ffffff" stroke-width="3" stroke-linecap="butt"/><path d="M250.08153,235.66733l18.49361,-3.76751" data-paper-data="{&quot;origPos&quot;:null}" fill="none" stroke-width="2" stroke-linecap="round"/><path d="M247.84954,239.43486l3.18856,25.11675" data-paper-data="{&quot;origPos&quot;:null}" fill="none" stroke-width="2" stroke-linecap="round"/></g><path d="M243.42544,262.82268c1.06066,-1.06066 2.12132,0 2.12132,0l0.56045,0.56411c0.33333,0.375 0.66667,0.75 1,1.125c0,0 0.99654,1.12111 -0.12457,2.11766c-1.12111,0.99654 -2.11766,-0.12457 -2.11766,-0.12457c-0.33333,-0.375 -0.66667,-0.75 -1,-1.125l-0.43955,-0.43589c0,0 -1.06066,-1.06066 0,-2.12132z" fill="#2f3bd4" stroke="none" stroke-width="0.5" stroke-linecap="butt"/><path d="M269.1602,228.87165c-0.3568,-0.88055 -1.98321,-1.42035 -2.86413,-1.72361h-0.43865c-0.27614,0 -0.5,-0.22386 -0.5,-0.5c0,-0.27614 0.22386,-0.5 0.5,-0.5v0v0h0.5v0.04305l0.08009,-0.0366c0.04211,0.01364 0.08462,0.0275 0.12747,0.0416c0.55033,-0.37942 2.0426,0.22781 2.59938,0.50473l0.21328,0.17699c0,0 0.35355,0.35356 0,0.70711c-0.00376,0.00376 -0.00751,0.00743 -0.01127,0.01103c0.27825,0.24156 0.51515,0.5156 0.68826,0.82848c0,0 0.2236,0.44721 -0.22361,0.67082c-0.44721,0.2236 -0.67082,-0.22361 -0.67082,-0.22361z" fill="#2f3bd4" stroke="none" stroke-width="0.5" stroke-linecap="butt"/></g><g data-paper-data="{&quot;index&quot;:null}"><g data-paper-data="{&quot;index&quot;:null}" stroke="#2f3bd4"><path d="M244.1385,260.53648c-1.85406,4.58214 -25.85719,10.41727 -30.45119,8.09236c-4.71152,-2.38439 -10.68508,-13.47357 -13.23045,-20.33513c-2.54536,-6.86157 -2.09665,-17.55666 -1.22204,-18.62462c2.62383,-3.20389 13.81861,-2.57406 18.83034,-2.87931c2.99459,-0.1824 14.77775,-0.55317 18.26343,1.48107c3.68778,2.15217 9.09139,29.09851 7.80991,32.26558z" data-paper-data="{&quot;origRot&quot;:0,&quot;origPos&quot;:null}" fill="#ffffff" stroke-width="3" stroke-linecap="butt"/><path d="M214.58153,235.66733l18.49361,-3.76751" data-paper-data="{&quot;origPos&quot;:null}" fill="none" stroke-width="2" stroke-linecap="round"/><path d="M212.34954,239.43486l3.18856,25.11675" data-paper-data="{&quot;origPos&quot;:null}" fill="none" stroke-width="2" stroke-linecap="round"/></g><path d="M207.92544,262.82268c1.06066,-1.06066 2.12132,0 2.12132,0l0.56045,0.56411c0.33333,0.375 0.66667,0.75 1,1.125c0,0 0.99654,1.12111 -0.12457,2.11766c-1.12111,0.99654 -2.11766,-0.12457 -2.11766,-0.12457c-0.33333,-0.375 -0.66667,-0.75 -1,-1.125l-0.43955,-0.43589c0,0 -1.06066,-1.06066 0,-2.12132z" fill="#2f3bd4" stroke="none" stroke-width="0.5" stroke-linecap="butt"/><path d="M233.6602,228.87165c-0.3568,-0.88055 -1.98321,-1.42035 -2.86413,-1.72361h-0.43865c-0.27614,0 -0.5,-0.22386 -0.5,-0.5c0,-0.27614 0.22386,-0.5 0.5,-0.5v0v0h0.5v0.04305l0.08009,-0.0366c0.04211,0.01364 0.08462,0.0275 0.12747,0.0416c0.55033,-0.37942 2.0426,0.22781 2.59938,0.50473l0.21328,0.17699c0,0 0.35355,0.35356 0,0.70711c-0.00376,0.00376 -0.00751,0.00743 -0.01127,0.01103c0.27825,0.24156 0.51515,0.5156 0.68826,0.82848c0,0 0.2236,0.44721 -0.22361,0.67082c-0.44721,0.2236 -0.67082,-0.22361 -0.67082,-0.22361z" fill="#2f3bd4" stroke="none" stroke-width="0.5" stroke-linecap="butt"/></g><g data-paper-data="{&quot;index&quot;:null}" fill="#ffffff" stroke="#2f3bd4" stroke-linecap="round"><path d="M232.03931,223.6872c0,0 -28.84181,0.13938 -25.28828,-17.48658c1.30921,-6.49398 16.89173,-1.6772 16.89173,-1.6772z" data-paper-data="{&quot;origPos&quot;:null}" stroke-width="2"/><path d="M226.50034,210.62402c0,0 -15.21576,-5.05076 -14.88841,-5.61024c1.03798,-1.77385 12.46743,1.13834 12.46743,1.13834z" data-paper-data="{&quot;origPos&quot;:null}" stroke-width="1"/></g><g data-paper-data="{&quot;index&quot;:null}"><path d="M222.24157,220.25407c0,0 4.78859,-10.73142 7.01212,-10.81309c6.67055,-0.24507 20.98113,2.78495 30.67054,4.33381c1.49789,0.23943 0.08003,10.81072 0.08003,10.81072l-4.39159,23.73542c0,0 -2.75838,11.49363 -4.39242,11.23242c-14.54595,-2.32515 -31.76559,-4.39743 -38.08056,-6.07782c-2.10498,-0.56012 1.86325,-12.49849 1.86325,-12.49849z" data-paper-data="{&quot;origPos&quot;:null}" fill="#ffffff" stroke="#2f3bd4" stroke-width="3.5" stroke-linecap="round"/><path d="M239.06178,229.48436c-1.26549,-0.20229 -0.76713,-2.10734 -0.76713,-2.10734c1.03364,-3.95121 2.39948,-9.17243 3.43313,-13.12364c0,0 0.49836,-1.90505 1.76384,-1.70276c1.26549,0.20229 0.76712,2.10734 0.76712,2.10734c-1.03364,3.95121 -2.06726,7.90241 -3.10089,11.85361l-0.33224,1.27004c0,0 -0.49836,1.90505 -1.76384,1.70276z" fill="#2f3bd4" stroke="none" stroke-width="0.5" stroke-linecap="butt"/><path d="M250.65702,231.00541c-1.26549,-0.20229 -0.6394,-2.59556 -0.6394,-2.59556c1.29853,-4.96383 3.01443,-11.52316 4.31296,-16.48699c0,0 0.62608,-2.39327 1.89156,-2.19098c1.26549,0.20229 0.6394,2.59555 0.6394,2.59555c-1.29853,4.96383 -2.59704,9.92765 -3.89558,14.89149l-0.41737,1.59552c0,0 -0.62607,2.39327 -1.89155,2.19098z" fill="#2f3bd4" stroke="none" stroke-width="0.5" stroke-linecap="butt"/></g><g data-paper-data="{&quot;index&quot;:null}" fill="none" stroke="#2f3bd4" stroke-width="3"><path d="M254.78439,219.9856c-0.53866,-1.49634 0.60057,-2.5082 2.04276,-3.45652c1.44218,-0.9483 2.71922,-1.06679 3.17988,0.02236c0.97669,2.30931 -0.6779,2.96667 -1.80716,3.70922c-1.4422,0.94832 -2.65474,1.83818 -3.41546,-0.27505z" stroke-linecap="butt"/><path d="M255.86705,219.60403l-3.04221,1.94949" stroke-linecap="round"/><path d="M249.22416,221.45956c1.44218,-0.9483 2.71922,-1.06679 3.17989,0.02236c0.97669,2.30931 -0.6779,2.96668 -1.80716,3.70923c-1.44218,0.94831 -2.65474,1.83817 -3.41546,-0.27506c-0.53866,-1.49634 0.60056,-2.5082 2.04274,-3.45654z" stroke-linecap="butt"/><path d="M245.22184,226.48401l3.04221,-1.94951" stroke-linecap="round"/><path d="M239.80416,224.91449c0.72011,-1.52166 2.00006,-1.10211 3.39713,-0.3481c1.39707,0.75401 2.15015,1.90497 1.66215,3.0786c-1.03469,2.48844 -2.34853,1.3348 -3.44247,0.74441c-1.39708,-0.754 -2.6338,-1.32592 -1.6168,-3.47489z" stroke-linecap="butt"/><path d="M240.63123,225.70188l-2.91285,-1.62468" stroke-linecap="round"/><path d="M233.62705,219.18504c1.13869,-1.11112 2.13199,-0.10458 3.11852,1.27656c0.98654,1.38115 1.27271,2.83616 0.45409,3.72506c-1.73575,1.88476 -2.51684,0.16167 -3.28933,-0.91982c-0.98655,-1.38116 -1.89138,-2.5126 -0.28327,-4.08178z" stroke-linecap="butt"/><path d="M234.09863,220.32812l-2.03957,-2.92984" stroke-linecap="round"/><path d="M228.48224,211.8816c1.13868,-1.1111 2.13199,-0.10458 3.11852,1.27656c0.98655,1.38115 1.27271,2.83616 0.45409,3.72507c-1.73573,1.88475 -2.51684,0.16166 -3.28933,-0.91983c-0.98654,-1.38115 -1.89137,-2.5126 -0.28325,-4.08178z" stroke-linecap="butt"/><path d="M228.95385,213.02468l-2.03958,-2.92985" stroke-linecap="round"/></g><g data-paper-data="{&quot;index&quot;:null}"><g stroke="#2f3bd4" stroke-width="3" stroke-linecap="round"><path d="M198.79081,251.29928l15.01371,-26.08832c0,0 2.92509,-4.90963 4.07756,-4.87504c3.45741,0.10374 8.94295,3.67243 15.10598,6.10444c1.0244,0.40424 -0.61994,6.09599 -0.61994,6.09599c0,0 -2.98236,8.84103 -4.89121,14.49974c-2.907,8.61766 -7.44882,22.0817 -7.44882,22.0817c0,0 -2.09823,6.96579 -3.92438,6.0732c0,0 -9.98242,0.07164 -23.50849,-10.08807c0.74708,-4.54668 6.19559,-13.80361 6.19559,-13.80361z" data-paper-data="{&quot;origPos&quot;:null}" fill="#ffffff"/><path d="M198.08373,253.27885l23.4337,10.56324l-1.35402,3.12097l-23.49937,-10.3131z" data-paper-data="{&quot;origPos&quot;:null}" fill="none"/></g><path d="M198.9356,253.15074l18.66509,-32.42846l14.42621,6.47425l0.8975,1.13145l-11.02596,35.18017z" fill="#ffffff" stroke="#2f3bd4" stroke-width="1" stroke-linecap="round"/><path d="M197.0365,256.29295l0.93943,-2.13342l23.33846,10.27662l-0.93941,2.13343z" fill="#ffffff" stroke="none" stroke-width="0" stroke-linecap="butt"/></g><g><g stroke="#2f3bd4" stroke-width="2.5" stroke-linecap="round"><path d="M226.28984,180.69673c1.79773,-4.89318 5.20371,-5.94796 5.20371,-5.94796c0,0 3.10333,-1.61409 4.88489,-1.45433c5.34474,0.47935 20.52663,2.56183 33.43887,5.56766c0.43093,0.10032 0.66949,0.17234 1.09371,0.29812c1.27257,0.37744 6.18016,2.06145 6.18016,2.06145c0,0 1.37374,3.95835 1.62647,6.0362c0.7582,6.23352 -3.19567,21.21517 -6.03134,37.18697c-0.25699,1.44764 -2.56144,3.65549 -2.56144,3.65549c0,0 -3.87831,1.24538 -6.15629,0.85376c-14.72749,-2.53181 -31.0131,-5.38726 -34.70045,-6.28465c-1.22912,-0.2991 -3.98048,-1.27785 -5.74825,-3.12729c-1.7678,-1.84944 -3.26857,-3.91222 -2.98315,-6.00748c0.28541,-2.0953 3.78604,-27.48398 5.75309,-32.83794z" data-paper-data="{&quot;index&quot;:null}" fill="#ffffff"/><path d="M227.74803,174.02894c1.79773,-4.89318 5.20368,-5.94793 5.20368,-5.94793c0,0 3.10333,-1.61409 4.88493,-1.45429c5.34477,0.47935 20.52663,2.56179 33.43887,5.56766c0.43093,0.10029 0.66949,0.17234 1.09371,0.29812c1.27257,0.37744 6.18016,2.06145 6.18016,2.06145c0,0 1.37374,3.95835 1.62647,6.0362c0.7582,6.23352 -3.19567,21.21517 -6.0313,37.18698c-0.25699,1.44764 -2.56141,3.65545 -2.56141,3.65545c0,0 -3.87831,1.24541 -6.15629,0.8538c-14.72749,-2.53181 -31.0131,-5.38726 -34.70045,-6.28465c-1.22912,-0.29914 -3.98048,-1.27785 -5.74825,-3.12733c-1.7678,-1.84944 -3.26857,-3.91218 -2.98319,-6.00749c0.28538,-2.09527 3.78607,-27.48398 5.75309,-32.83797z" data-paper-data="{&quot;index&quot;:null}" fill="#2f3bd4"/></g><g data-paper-data="{&quot;index&quot;:null}" fill="none" stroke="none" stroke-width="1" stroke-linecap="butt" font-family="sans-serif" font-weight="normal" font-size="12" text-anchor="start"/><g data-paper-data="{&quot;index&quot;:null}" fill="none" stroke="none" stroke-width="1" stroke-linecap="butt" font-family="sans-serif" font-weight="normal" font-size="12" text-anchor="start"/></g><path d="M211.78913,277.94068c-3.54086,-0.25933 -18.83559,-4.79325 -20.09696,-5.16941c-1.26135,-0.37615 -2.04564,-1.75675 -2.64041,-3.234c-0.59477,-1.47723 -0.44331,-3.28862 -0.29731,-4.06235c0.43794,-2.32122 3.00035,-12.28867 5.34624,-21.28953c0.36284,-1.39221 2.0648,-3.27152 2.0648,-3.27152c0,0 1.84359,-0.73978 2.73042,-0.5138c9.78443,2.49308 19.29455,4.09787 22.6344,6.12831c1.11329,0.67682 3.00504,2.47212 3.00504,2.47212c0,0 -0.30522,3.2151 -0.41796,4.03357c-0.0376,0.27284 -0.05802,0.4266 -0.11178,0.6967c-1.61101,8.09329 -4.32834,17.23644 -5.42885,20.39009c-0.36685,1.0512 -2.0789,2.39642 -2.0789,2.39642c0,0 -1.47261,1.66043 -4.70873,1.4234z" fill="#ffffff" stroke="#2f3bd4" stroke-width="2.5" stroke-linecap="round"/><path d="M245.13491,244.7036c3.58274,10.61608 3.4392,12.67751 3.4392,12.67751c0.37683,1.35418 -0.97308,1.59069 -0.97308,1.59069c0,0 -2.56194,0.77839 -4.20171,1.27659c-1.07674,0.32717 -2.75899,0.83827 -2.75899,0.83827c0,0 -1.10983,0.14691 -1.29971,-0.59683c-1.14223,-4.47433 -2.47217,-8.68862 -2.83172,-10.99054c-0.11987,-0.76731 0.69088,-1.88971 0.69088,-1.88971l4.99637,-2.15914c0,0 1.99708,-1.00381 2.93875,-0.74681z" fill="#ffffff" stroke="#2f3bd4" stroke-width="3" stroke-linecap="round"/><g data-paper-data="{&quot;index&quot;:null}"><path d="M245.16224,242.02179c2.43901,-0.68857 5.80337,-6.08496 6.44284,-3.81985c0.3257,1.15377 5.86643,22.34433 5.43646,23.58927c-0.41419,1.19908 -1.22481,2.11028 -2.42145,2.44812c-0.81414,0.22983 -2.17767,0.18993 -3.12324,-0.20015c-1.8872,-0.77853 -12.79664,-20.30773 -13.22267,-21.81678c-0.63947,-2.26514 4.44905,0.48797 6.88807,-0.20059z" fill="#0091d4" stroke="#000000" stroke-width="1.5" stroke-linecap="butt"/><g stroke-linecap="butt"><path d="M243.06916,234.52256c4.41891,-1.24753 8.66888,0.10645 9.49258,3.0242c0.82372,2.91773 -2.09075,6.29435 -6.50963,7.5419c-4.41891,1.24752 -8.6689,-0.10646 -9.49262,-3.02421c-0.82372,-2.91773 2.09076,-6.29435 6.50965,-7.54187z" fill="#0091d4" stroke="#000000" stroke-width="1.5"/><path d="M242.25329,244.57967c0,0 -1.76856,0.0817 -3.33852,-0.83052c-0.74236,-0.44616 -1.97743,-2.10328 -1.97743,-2.10328l4.05253,0.59193z" fill="#00aeff" stroke="none" stroke-width="0"/><path d="M245.92918,244.214l-1.94628,0.49309c0,0 -0.48416,-0.66842 -0.63036,-1.08219c-0.12486,-0.35339 -0.30214,-1.40888 -0.30214,-1.40888l1.69434,-0.14766z" fill="#00aeff" stroke="none" stroke-width="0"/></g><g><path d="M245.00582,240.95812c-6.096,1.72097 -13.47663,-0.74398 -15.19761,-6.83993c-1.72098,-6.09599 1.37727,-11.63171 7.47322,-13.35268c6.096,-1.72097 12.74527,1.73748 14.46624,7.83342c1.72098,6.09599 -0.64587,10.6382 -6.74182,12.35918z" fill="#00699a" stroke="#000000" stroke-width="1.5" stroke-linecap="butt"/><path d="M235.45447,222.2004c0,0 1.89165,1.02237 4.41294,2.67809c2.51518,1.6517 4.99815,4.4828 5.7501,7.14628c1.50573,5.3335 0.48746,7.75052 -3.94169,9.00095c-2.15478,0.60832 -4.48536,0.00918 -6.25587,-1.25597c-2.48509,-1.77576 -4.84253,-4.49483 -5.69636,-7.51932c-1.50573,-5.3335 5.73087,-10.05007 5.73087,-10.05007z" fill="#0091d4" stroke="none" stroke-width="0" stroke-linecap="butt"/><path d="M250.84263,229.29782c0,0 -2.18354,4.63136 -9.3638,6.38488c-7.12191,1.73928 -11.31177,-1.59367 -11.31177,-1.59367" fill="none" stroke="#000000" stroke-width="0.8" stroke-linecap="round"/><path d="M250.89227,235.49354c0,0 -1.92309,2.81535 -8.63593,3.66134c-4.65804,0.58702 -9.45063,-0.58154 -9.45063,-0.58154" fill="none" stroke="#000000" stroke-width="0.75" stroke-linecap="round"/><path d="M249.64188,226.43389c0,0 -1.4565,2.68415 -8.40753,3.97244c-7.22694,1.33942 -11.4318,-1.31292 -11.4318,-1.31292" fill="none" stroke="#000000" stroke-width="0.8" stroke-linecap="round"/><path d="M231.17089,225.37346c0,0 4.64488,-1.36347 9.48203,-1.44993c3.67242,-0.06568 8.53532,1.13503 8.53532,1.13503" fill="none" stroke="#000000" stroke-width="0.8" stroke-linecap="round"/><path d="M241.90793,221.03489c0,0 3.71826,1.82543 5.1684,7.88816c1.55399,6.49692 0.04452,10.57666 0.04452,10.57666" fill="none" stroke="#000000" stroke-width="0.8" stroke-linecap="round"/><path d="M243.92786,240.92406c0,0 -1.13726,-3.2012 -1.57668,-5.17911c-0.36996,-1.66528 -0.49851,-4.99686 -1.0641,-7.9897c-0.64318,-3.40322 -1.7046,-6.39069 -1.7046,-6.39069" fill="none" stroke="#000000" stroke-width="0.8" stroke-linecap="round"/><path d="M241.10881,241.58919c0,0 -3.55525,-3.53024 -5.22435,-10.14963c-1.06344,-4.21742 0.75936,-9.83364 0.75936,-9.83364" fill="none" stroke="#000000" stroke-width="0.8" stroke-linecap="round"/><path d="M235.36612,240.46508c0,0 -2.43654,-2.76509 -3.13192,-9.00999c-0.48288,-4.33664 1.035,-8.37352 1.035,-8.37352" fill="none" stroke="#000000" stroke-width="0.8" stroke-linecap="round"/><path d="M231.30454,232.32982c-0.43466,0.12271 -0.9018,-0.18437 -1.04338,-0.68592c-0.1416,-0.50153 0.09599,-1.00758 0.53068,-1.1303c0.43466,-0.12271 0.90181,0.18436 1.04338,0.68591c0.1416,0.50153 -0.096,1.00761 -0.53067,1.13032z" fill="#00aeff" stroke="none" stroke-width="0" stroke-linecap="butt"/><path d="M231.22524,228.69175c-0.25076,0.0708 -0.51144,-0.07508 -0.58224,-0.32586c-0.0708,-0.25076 0.0751,-0.51144 0.32587,-0.58223c0.25076,-0.0708 0.51143,0.0751 0.58224,0.32585c0.0708,0.25076 -0.07508,0.51144 -0.32586,0.58225z" fill="#00aeff" stroke="none" stroke-width="0" stroke-linecap="butt"/></g></g><g><g fill="#582700"><path d="M279.02243,235.38328c0.13422,-0.05244 -5.26363,1.93651 -10.37105,3.81912c-4.53556,1.67179 -8.84211,3.25973 -8.84211,3.25973c0,0 -4.43957,-6.92667 -3.88781,-9.56903c0.44263,-2.11969 14.30621,-5.9696 14.67101,-6.29479c1.26307,-1.12599 13.92546,4.47145 16.11362,4.97356c3.55816,0.81644 7.90701,12.47699 11.54371,20.1531c1.96132,4.13987 -28.68055,-12.64895 -19.22737,-16.34167z" stroke="#2f3bd4" stroke-width="3" stroke-linecap="round"/><path d="M281.02336,237.69851c-0.04286,0.60033 3.46946,3.62093 3.8728,3.99792c2.87633,2.68831 7.36643,6.31104 9.6678,9.75837c1.45757,2.18339 2.22253,1.25361 -0.48802,1.21888c-1.20035,-0.01538 -3.68739,-1.71161 -4.73646,-2.31245c-4.42914,-2.53672 -10.2089,-5.75686 -13.0844,-9.91934c-1.04576,-1.51382 -0.0292,-7.4215 2.29622,-7.51648c0.17528,-0.10982 0.36715,-0.1995 0.57345,-0.26492c1.31613,-0.41734 2.72139,0.31125 3.13873,1.62739c0.57388,0.39674 0.35799,1.0178 -0.04287,1.63545c-0.16534,0.4389 -0.4526,0.82874 -0.83439,1.11669c-0.2026,0.26981 -0.35155,0.49986 -0.36288,0.6585z" stroke="none" stroke-width="0.5" stroke-linecap="butt"/></g><path d="M245.39173,251.91749c-1.44095,-4.38639 -0.46416,-3.26468 8.62257,-7.78467c9.08672,-4.51999 21.75361,-9.791 21.75361,-9.791c0,0 12.45781,19.19023 21.69642,16.67058c0.45575,-0.12429 -1.57273,6.19044 -3.226,7.25516c-5.21886,3.361 -18.29177,12.35378 -18.29177,12.35378c0,0 -9.95077,6.87943 -15.00716,7.84255c-5.0564,0.96312 -11.46901,-14.13033 -15.54768,-26.54638z" data-paper-data="{&quot;origPos&quot;:null}" fill="#ffffff" stroke="#2f3bd4" stroke-width="3" stroke-linecap="round"/><path d="M256.40798,243.37652c2.70156,0.01858 15.80109,29.49909 13.66109,30.57794" fill="none" stroke="#2f3bd4" stroke-width="3" stroke-linecap="round"/><path d="M259.45376,242.33021c4.71376,-0.68364 16.40537,29.04006 13.51499,29.93128" fill="none" stroke="#2f3bd4" stroke-width="3" stroke-linecap="round"/><path d="M271.45951,226.49429c-3.14692,1.01247 -6.13403,2.46307 -9.2873,3.46297c-1.30467,0.41371 -5.26084,1.40838 -5.98238,2.57107c-0.16884,0.27207 0.73165,1.84856 0.85939,2.1271c0.94161,2.05318 2.06457,4.06795 2.80392,6.20274c0.94295,-1.36956 3.51911,-1.31365 4.96411,-1.63138c2.64908,-0.58244 5.52871,-1.49958 8.04499,-2.54825c0.84123,-0.35059 1.56202,-0.7269 2.29589,-0.99488c0.09165,-0.05449 0.1827,-0.10957 0.27308,-0.16525c0.36348,-0.11733 0.72715,-0.2341 1.09101,-0.35024l-0.00017,-0.00052l1.1773,-0.37332c0.32511,-0.10309 0.6722,0.07688 0.77531,0.40198c0.10309,0.32509 -0.07687,0.67221 -0.40199,0.77532l-1.1773,0.37332l-0.00019,-0.00056c-0.27882,0.08778 -0.55779,0.1751 -0.83693,0.26189c-0.06517,0.02951 -0.13075,0.05827 -0.19678,0.08652c-3.20529,1.95362 -7.14867,3.19064 -10.75217,4.22422c-1.198,0.34363 -2.80689,1.10008 -4.19068,1.25052c0.05522,0.02897 0.11047,0.05799 0.16571,0.08697c4.08944,4.9662 7.00467,11.13346 9.78407,16.90243c0.87961,2.79586 1.9221,5.51157 2.80981,8.31102c0.15017,0.47355 0.89167,2.33879 0.54061,3.08465c0.29688,-0.27229 0.7396,-0.66041 0.86486,-0.71818c0.69426,-0.32019 1.16079,-0.7113 1.85877,-1.10193c5.20565,-2.65939 10.07046,-5.86181 15.04095,-8.88604c1.60702,-1.54751 4.79077,-3.06499 5.52982,-5.39994c0.12419,-0.39235 -0.78828,-1.89185 -0.96301,-2.29743c-1.00468,-2.33209 -1.62726,-4.99616 -2.95756,-7.15599c-1.11052,-3.47306 -3.32027,-6.57206 -5.14083,-9.70881c-1.01538,-1.74948 -1.88341,-3.337 -3.97935,-3.82813c-3.51107,-0.2524 -7.17638,-2.14266 -10.41114,-3.52706c-0.94085,-0.40267 -1.67915,-1.08528 -2.60184,-1.4348zM270.2306,225.60373c0.00016,-0.00107 0.00033,-0.00218 0.00052,-0.00324c0.09628,-0.60999 0.70628,-0.51368 0.70628,-0.51368c0.17599,0.02951 0.34357,0.06918 0.5045,0.11712l0.4109,-0.1303c0,0 0.58865,-0.18665 0.77532,0.402c0.03271,0.10316 0.04159,0.19396 0.03403,0.27359c0.60884,0.34698 1.18659,0.75058 1.88857,1.04593c3.17421,1.33554 6.67377,3.18221 10.1105,3.4405c2.79347,0.67116 3.80586,2.71905 5.20584,4.99168c1.78736,2.90143 3.82387,5.99188 4.84846,9.25141c1.46005,2.3705 2.0026,5.28099 3.16648,7.80648c0.27246,0.59122 1.01415,1.63502 0.85405,2.3348c-0.62422,2.72845 -4.22003,4.46295 -5.99405,6.20109c-4.99053,3.10241 -9.9614,6.31672 -15.22008,9.0021c-0.66489,0.36087 -3.51453,2.69333 -4.34795,1.96849c-0.33415,-0.29063 -0.23261,-2.56834 -0.42417,-3.16557c-0.9748,-3.03931 -2.062,-5.98562 -3.02928,-9.01335c-2.68387,-5.57069 -5.48366,-11.59113 -9.41353,-16.3985c-0.13372,-0.06767 -0.26744,-0.13538 -0.40117,-0.20307l-0.64095,-0.10118c-0.22903,-0.03125 -0.43105,-0.19042 -0.50556,-0.4254c-0.08397,-0.2648 0.01984,-0.54419 0.23692,-0.69445l0.21981,-0.15987c-1.70743,-1.79996 -2.51582,-4.89624 -3.49477,-7.10184c-0.31692,-0.71403 -1.05458,-1.7067 -0.62795,-2.56864c0.77469,-1.56513 5.15545,-2.68833 6.70552,-3.17987c2.86558,-0.90868 5.59475,-2.19002 8.4317,-3.17627z" fill="#2f3bd4" stroke="none" stroke-width="0.5" stroke-linecap="butt"/><path d="M271.44708,226.45505c0.9227,0.34954 1.6652,1.03104 2.60606,1.43371c3.23476,1.38441 6.92433,3.27708 10.43541,3.52949c2.09594,0.49113 2.97554,2.08602 3.99093,3.83551c1.82056,3.13676 4.04355,6.26126 5.15408,9.73432c1.3303,2.15983 1.95163,4.84006 2.95631,7.17214c0.17474,0.40558 1.08599,1.90871 0.96181,2.30106c-0.73906,2.33496 -3.93093,3.86552 -5.53796,5.41304c-4.97046,3.02425 -9.86744,6.23992 -15.07309,8.89929c-0.69797,0.39063 -1.16771,0.78148 -1.86198,1.10166c-0.12524,0.05777 -0.56929,0.44571 -0.86617,0.718c0.35105,-0.74585 -0.39239,-2.61144 -0.54255,-3.085c-0.88771,-2.79945 -1.94244,-5.51981 -2.82206,-8.31567c-2.77938,-5.76898 -5.71373,-11.98284 -9.80319,-16.94905c-0.05522,-0.02897 -0.11044,-0.05806 -0.16567,-0.08706c1.38379,-0.15046 2.99503,-0.91329 4.19303,-1.25691c3.60351,-1.03357 7.57602,-2.29354 10.7813,-4.24714c0.06605,-0.02825 0.13242,-0.05719 0.19759,-0.08667c0.27915,-0.08678 0.56144,-0.17456 0.84026,-0.26234l0.00018,0.00055l1.18184,-0.3735c0.32511,-0.10309 0.50264,-0.36792 0.39956,-0.69302c-0.10309,-0.32509 -0.44751,-0.50504 -0.77262,-0.40195l-1.17317,0.37304l0.00017,0.00052c-0.36388,0.11614 -0.72362,0.23226 -1.0871,0.34958c-0.09038,0.05566 -0.18037,0.1105 -0.27202,0.16501c-0.73388,0.26802 -1.44628,0.64123 -2.28752,0.99182c-2.5163,1.04867 -5.37867,1.94972 -8.02774,2.53216c-1.445,0.31771 -4.09572,0.22794 -5.03867,1.59751c-0.73935,-2.1348 -1.85877,-4.15734 -2.80039,-6.21052c-0.12776,-0.27856 -1.02708,-1.85691 -0.85823,-2.12899c0.72154,-1.16269 4.68403,-2.16479 5.9887,-2.5785c3.15326,-0.99991 6.156,-2.4596 9.30291,-3.47207z" data-paper-data="{&quot;noHover&quot;:false,&quot;origItem&quot;:[&quot;Path&quot;,{&quot;applyMatrix&quot;:true,&quot;segments&quot;:[[[230.82308,152.52668],[0,0],[-0.93988,0.74338]],[[228.33766,155.1429],[0.94139,-0.81156],[-3.23664,2.79023]],[[217.57953,163.04819],[3.97209,-1.58115],[-2.24615,1.33801]],[[214.37799,168.94085],[0.53327,-2.39813],[-0.95612,4.29976]],[[211.99064,182.06795],[0.01066,-4.42845],[-0.7472,2.98879]],[[211.1937,191.43817],[0.307,-3.06867],[-0.05339,0.53367]],[[210.92223,194.45142],[-0.2878,-0.40863],[1.71279,2.43186]],[[219.30646,198.67289],[-2.42854,-1.20161],[6.86452,1.67648]],[[239.98146,203.43859],[-7.00284,-1.16771],[0.95146,0.19601]],[[242.53788,204.03192],[-0.9213,-0.11581],[0.16621,0.02089]],[[243.80278,204.54585],[-0.44366,-0.20624],[-0.68022,-0.7346]],[[243.29624,200.77631],[0,0.60336],[0,-3.56681]],[[243.49813,190.12314],[0.00805,3.55968],[1.09986,-7.69905]],[[248.62011,166.96343],[-2.91121,7.25063],[0.05329,-0.05383]],[[248.78,166.80192],[-0.05329,0.05384],[-1.65725,0.33382]],[[243.46938,166.89261],[1.51307,-0.04199],[-4.5512,0.1263]],[[229.47086,165.94945],[4.42793,1.08501],[-0.08683,-0.00846]],[[229.21129,165.92152],[0.08627,0.01022],[-0.35502,0.00201]],[[228.14624,165.92558],[0.35502,-0.00073],[0,0]],[228.14624,165.92629],[[226.64624,165.92629],[0,0],[-0.41422,0]],[[225.89624,165.17629],[0,0.41422],[0,-0.41422]],[[226.64624,164.42629],[-0.41422,0],[0,0]],[228.14624,164.42629],[[228.14624,164.42695],[0,0],[0.46388,0.00087]],[[229.53787,164.4319],[-0.46387,-0.00238],[0.12507,0.03126]],[[229.91467,164.52296],[-0.12612,-0.02945],[0.948,0.04085]],[[232.93787,164.8319],[-1.10259,-0.09705],[3.29808,0.29029]],[[243.18703,164.82862],[-3.28065,0.2982],[1.78951,-0.16266]],[[249.53285,164.89489],[-1.59443,-1.23936],[0.07225,-2.74287]],[[250.50186,156.68464],[-0.33637,2.72263],[0.04564,-0.36937]],[[250.71591,153.90661],[0.29535,0.25299],[-1.26215,-1.08115]],[[242.84624,153.12628],[1.66228,0],[-4.0176,0]],[[230.82306,152.52665],[4.01487,0.01687],[0,0]]],&quot;closed&quot;:true,&quot;fillColor&quot;:[0,0,0,1]}]}" fill="#ffffff" stroke="none" stroke-width="0.5" stroke-linecap="butt"/><path d="M266.49257,258.39865c-0.29802,-0.16132 -0.406,-0.50185 -0.406,-0.50185l-0.24888,-0.78486c-0.05401,-0.17094 -0.11147,-0.34001 -0.17205,-0.50733l-0.2842,-0.57403l0.04771,-0.02363c-1.71231,-2.70003 -3.82727,-5.7827 -5.10158,-8.8344c-0.02358,-0.0522 -0.04682,-0.10453 -0.06979,-0.15699c-0.06497,-0.09453 -0.12947,-0.18945 -0.19341,-0.28477l-0.05331,0.03878l-0.64506,-0.88691c-0.05613,-0.0735 -0.10072,-0.15775 -0.13029,-0.25096c-0.06965,-0.21963 -0.04241,-0.44678 0.05779,-0.63532l-0.01132,0.00359l-0.23336,-0.73592c-0.17692,-0.23335 -0.35515,-0.46394 -0.53452,-0.69164c0,0 -0.50862,-0.64751 0.13889,-1.15613c0.64749,-0.50863 1.15612,0.1389 1.15612,0.1389c0.01425,0.01819 0.0285,0.0364 0.04275,0.05462c0.19775,0.05279 0.37268,0.17838 0.48471,0.35606l0.46307,0.69859l-0.02074,0.01373l0.05014,0.03408c0.10015,0.20788 0.20346,0.414 0.30943,0.61861c1.47105,2.05607 2.83285,4.27571 4.01202,6.56956c0.38737,0.56185 0.75851,1.13551 1.10265,1.72931c2.02071,4.18715 4.24466,8.80562 5.34694,13.32076c0.50331,2.06168 1.11642,3.3999 0.95458,5.13582l0.26238,0.00385l-0.01609,1.09679c0.00307,0.35199 -0.22164,0.67981 -0.57469,0.79176c-0.43347,0.13745 -0.89629,-0.10252 -1.03374,-0.53598l-0.28445,-0.89698c-1.38643,-4.40372 -3.01379,-8.74096 -4.41569,-13.14707z" fill="#ffffff" stroke="none" stroke-width="0.5" stroke-linecap="butt"/><g fill="#ffffff" stroke="#2f3bd4" stroke-width="2" stroke-linecap="round"><path d="M272.45024,239.05157c0,0 -0.88309,-4.4635 2.14549,-5.13865c4.84558,-1.08019 9.31362,32.76368 4.35012,34.18618c-2.02799,0.58121 -3.1969,-2.53418 -3.1969,-2.53418l1.79673,-0.75718c0,0 0.60524,-6.45553 -0.25513,-14.36318c-0.84845,-7.79808 -2.84552,-12.7647 -2.84552,-12.7647z"/><path d="M264.6306,243.34356c0,0 -3.33312,-2.41119 -1.46768,-3.89199c3.91583,-3.10841 32.95255,21.13073 28.58593,23.16336c-2.64453,1.23103 -4.81771,-1.77489 -4.81771,-1.77489l1.30215,-0.5951c0,0 -3.66872,-4.36342 -10.32908,-9.73951c-6.66037,-5.37612 -12.12566,-7.86708 -12.12566,-7.86708z" data-paper-data="{&quot;index&quot;:null}"/></g></g></g></g></svg>