<svg version="1.1" xmlns="http://www.w3.org/2000/svg" xmlns:xlink="http://www.w3.org/1999/xlink" width="210" height="221" viewBox="0,0,210,221"><g transform="translate(-140,-90)"><g data-paper-data="{&quot;isPaintingLayer&quot;:true}" fill-rule="nonzero" stroke-linejoin="miter" stroke-miterlimit="10" stroke-dasharray="" stroke-dashoffset="0" style="mix-blend-mode: normal"><path d="M140,311v-221h210v221z" fill="none" stroke="none" stroke-width="0" stroke-linecap="butt"/><g data-paper-data="{&quot;index&quot;:null}" stroke="#000000" stroke-linecap="round"><path d="M260.93752,194.10156c0,0 16.2316,-1.59725 16.21325,5.02736c-0.04977,17.98052 -28.27891,12.06568 -28.27891,12.06568z" data-paper-data="{&quot;origPos&quot;:null}" fill="#66c8ff" stroke-width="2"/><path d="M260.18344,195.60979c0,0 11.78117,-0.56333 12.44273,1.38252c0.20864,0.61371 -15.71052,2.51368 -15.71052,2.51368z" data-paper-data="{&quot;origPos&quot;:null}" fill="#0a0a0a" stroke-width="1"/></g><g><path d="M264.43757,243.03642c0,0 1.7519,15.68196 -0.43369,16.09129c-6.5568,1.22808 -23.97849,1.39873 -38.79984,2.27054c-1.66498,0.09794 -2.30045,-14.84849 -2.30045,-14.84849l-0.02084,-30.67992c0,0 0.5233,-13.58758 2.04955,-13.67735c9.87286,-0.58073 24.5897,-2.3786 31.14754,-1.11792c2.18595,0.42023 4.96982,14.69077 4.96982,14.69077z" data-paper-data="{&quot;origPos&quot;:null}" fill="#66c8ff" stroke="#000000" stroke-width="3.5" stroke-linecap="round"/><path d="M231.48591,225.38339c-1.28944,0.07585 -1.43551,-2.40736 -1.43551,-2.40736c-0.30294,-5.15037 -0.70329,-11.95618 -1.00623,-17.10653c0,0 -0.14605,-2.48321 1.14338,-2.55905c1.28944,-0.07585 1.4355,2.40736 1.4355,2.40736c0.30294,5.15037 0.60591,10.3007 0.90885,15.45107l0.09738,1.65548c0,0 0.14606,2.48321 -1.14337,2.55905z" fill="#ffffff" stroke="none" stroke-width="0.5" stroke-linecap="butt"/><path d="M243.8371,231.00116c-1.28944,0.07585 -1.47294,-3.04376 -1.47294,-3.04376c-0.3806,-6.4703 -0.88351,-15.02032 -1.26411,-21.49063c0,0 -0.18349,-3.11961 1.10594,-3.19545c1.28944,-0.07585 1.47293,3.04376 1.47293,3.04376c0.3806,6.4703 0.76117,12.94059 1.14177,19.4109l0.12234,2.07974c0,0 0.1835,3.11961 -1.10593,3.19545z" fill="#ffffff" stroke="none" stroke-width="0.5" stroke-linecap="butt"/></g><g fill="none" stroke="#b9b9b9" stroke-width="3"><path d="M254.39468,206.21998c-0.82753,-1.35809 0.08589,-2.57767 1.30884,-3.7957c1.22296,-1.21801 2.45037,-1.58994 3.11989,-0.61516c1.41955,2.06682 -0.06978,3.04234 -1.0274,3.99608c-1.22297,1.21803 -2.23265,2.33277 -3.40133,0.41479z" stroke-linecap="butt"/><path d="M252.78898,208.14868l2.58997,-2.51944" stroke-linecap="round"/><path d="M249.24248,208.77801c1.22296,-1.21801 2.45037,-1.58994 3.11989,-0.61516c1.41955,2.06682 -0.06978,3.04234 -1.0274,3.99608c-1.22296,1.21802 -2.23264,2.33277 -3.40132,0.41479c-0.82753,-1.35809 0.08588,-2.57767 1.30883,-3.79571z" stroke-linecap="butt"/><path d="M246.32792,214.50242l2.58997,-2.51946" stroke-linecap="round"/><path d="M240.70565,214.05014c0.40066,-1.63508 1.7387,-1.48046 3.25851,-1.02164c1.51981,0.45883 2.48819,1.43557 2.24522,2.68318c-0.51516,2.64527 -2.03348,1.77826 -3.22353,1.41899c-1.51981,-0.45882 -2.84605,-0.77137 -2.2802,-3.08052z" stroke-linecap="butt"/><path d="M241.67373,214.65586l-3.1793,-1.00816" stroke-linecap="round"/><path d="M233.50593,209.67439c0.893,-1.31672 2.06779,-0.52961 3.31104,0.62589c1.24326,1.1555 1.81512,2.52367 1.19118,3.55857c-1.32294,2.19428 -2.43342,0.66261 -3.40694,-0.24218c-1.24325,-1.15551 -2.3564,-2.08274 -1.09528,-3.94227z" stroke-linecap="butt"/><path d="M231.61175,208.23799l2.58519,2.46183" stroke-linecap="round"/><path d="M227.00223,203.54975c0.893,-1.3167 2.0678,-0.52961 3.31104,0.62589c1.24326,1.1555 1.81512,2.52367 1.19118,3.55857c-1.32294,2.19427 -2.43342,0.66261 -3.40693,-0.24218c-1.24325,-1.1555 -2.3564,-2.08273 -1.09528,-3.94227z" stroke-linecap="butt"/><path d="M227.69327,204.57519l-2.58521,-2.46183" stroke-linecap="round"/></g><g><g data-paper-data="{&quot;index&quot;:null}"><g stroke="#000000" stroke-width="3" stroke-linecap="round"><path d="M278.29249,236.5408c0,0 2.9198,10.33691 2.48808,14.92429c-15.6623,6.39279 -25.29943,3.78911 -25.29943,3.78911c-1.99294,0.39971 -2.25392,-6.87055 -2.25392,-6.87055c0,0 -0.9747,-14.17598 -1.59858,-23.24931c-0.40966,-5.95792 -1.0497,-15.26645 -1.0497,-15.26645c0,0 -0.14545,-5.92273 0.94803,-6.05365c6.57853,-0.78762 12.79038,-2.84668 16.16085,-2.06925c1.12349,0.25914 2.70627,5.75054 2.70627,5.75054l7.89838,29.04526z" data-paper-data="{&quot;origPos&quot;:null}" fill="#582700"/><path d="M278.99117,242.25614l-25.34773,4.00908l-0.51729,-3.36246l25.34772,-4.26772z" data-paper-data="{&quot;origPos&quot;:null}" fill="none"/></g><path d="M252.84236,242.48299l-1.73302,-36.8268l1.15535,-0.86652l15.59723,-2.59955l9.82048,36.10471z" fill="#66c8ff" stroke="#000000" stroke-width="1" stroke-linecap="round"/><path d="M253.5387,245.8309l-0.36699,-2.30203l25.18283,-4.01465l0.36699,2.30203z" fill="#ffffff" stroke="none" stroke-width="0" stroke-linecap="butt"/></g><g fill="#fffc96" stroke="#000000" stroke-width="2" stroke-linecap="round"><path d="M276.43307,231.91755c0,0 4.35886,0.46489 4.30244,3.4086c-0.09028,4.70982 -32.63647,-0.83964 -32.83846,-5.75378c-0.08253,-2.0078 3.08488,-2.18542 3.08488,-2.18542l0.29885,1.84764c0,0 5.87811,2.38292 13.44101,3.84639c7.45811,1.44319 12.53791,1.03867 12.53791,1.03867z"/><path d="M274.20385,223.59337c0,0 3.00112,-2.34415 3.95865,-0.2286c2.01,4.44084 -27.14775,23.94366 -28.05336,19.39864c-0.54845,-2.75257 2.74428,-3.87382 2.74428,-3.87382l0.25975,1.35222c0,0 4.89612,-2.09478 11.41298,-6.62048c6.51687,-4.52569 10.07493,-8.78464 10.07493,-8.78464z" data-paper-data="{&quot;index&quot;:null}"/></g></g><path d="M279.30698,253.91771c0,0 4.36261,-1.02642 6.59769,-0.26656c1.71105,0.58168 2.36541,2.38846 2.87475,4.12242c1.39803,4.7595 0.14776,9.61376 0.42148,17.32516c0.07454,2.10025 -2.9719,3.39358 -5.07256,3.33199c-1.96473,-0.05762 -5.37653,-0.27815 -5.37653,-0.27815l-33.06388,-1.70473c0,0 -4.27348,-0.36046 -5.09926,-2.06162c-1.98861,-4.09672 -0.70456,-8.62555 -1.12247,-13.16021c-0.14163,-1.53674 4.64985,-1.83404 4.64985,-1.83404c0,0 8.8983,-1.38422 14.59369,-2.27018c8.03835,-1.25044 20.59726,-3.20407 20.59726,-3.20407z" data-paper-data="{&quot;index&quot;:null}" fill="#4b4b4b" stroke="#000000" stroke-width="3" stroke-linecap="round"/><path d="M240.53179,265.47173c0,0 2.03836,3.99136 1.83413,6.34323c-0.15632,1.80045 -1.75461,2.86727 -3.31681,3.77589c-4.28805,2.49399 -9.30043,2.43889 -16.72345,4.54589c-2.02171,0.57384 -4.00501,-2.07569 -4.44676,-4.1303c-0.41315,-1.92166 -1.01361,-5.28744 -1.01361,-5.28744l-6.23898,-32.51463c0,0 -0.67031,-4.23595 0.78448,-5.44402c3.50343,-2.90924 8.20786,-2.74364 12.51159,-4.23217c1.45848,-0.50445 2.89121,4.07747 2.89121,4.07747c0,0 3.46876,8.31044 5.68895,13.62958c3.13353,7.50731 8.02925,19.23654 8.02925,19.23654z" data-paper-data="{&quot;index&quot;:null}" fill="#4b4b4b" stroke="#000000" stroke-width="3" stroke-linecap="round"/><path d="M220.53071,199.15816c0,0 -1.80899,-4.20208 -1.90229,-5.28362c-0.27992,-3.24463 -0.5764,-17.43026 -0.80172,-30.25212c-0.03486,-1.98323 1.52761,-5.11017 1.52761,-5.11017c0,0 2.17335,-1.66638 3.43475,-1.69544c13.91692,-0.32065 27.13994,-1.71893 32.32807,-0.26232c1.72938,0.48553 4.90745,2.16731 4.90745,2.16731c0,0 0.78785,4.38222 0.9419,5.51088c0.05134,0.37621 0.08127,0.58795 0.11012,0.96656c0.86427,11.34407 0.64917,24.49269 0.35819,29.0885c-0.09699,1.53194 -1.87103,3.95345 -1.87103,3.95345c0,0 -1.33916,2.75113 -5.72401,3.63734c-4.79779,0.96965 -16.51775,0.80301 -28.60302,0.59392z" fill="#582700" stroke="#000000" stroke-width="2.5" stroke-linecap="round"/><g data-paper-data="{&quot;index&quot;:null}"><g data-paper-data="{&quot;origRot&quot;:0}" stroke="#000000" stroke-width="3" stroke-linecap="round"><path d="M260.71266,254.30607c-0.07103,2.45178 -9.31965,0.54875 -9.31965,0.54875c0,0 -24.60274,-4.38872 -36.2312,-6.41505c-4.76341,-1.53155 -4.79333,-40.5601 -0.44787,-44.60528c1.93705,-1.8032 12.4144,-3.53761 13.953,-2.07515c2.92865,2.78366 7.7449,19.14259 7.7449,19.14259l-4.48691,0.01209l11.76155,1.03455c0,0 13.77625,0.06899 19.54912,1.62355c3.20169,0.86217 -2.52296,30.73397 -2.52296,30.73397z" data-paper-data="{&quot;origPos&quot;:null}" fill="#582700"/><path d="M252.38243,223.0584l-2.25948,29.97011" fill="none"/><path d="M245.80954,252.91594l1.95294,-29.99853" data-paper-data="{&quot;origPos&quot;:null}" fill="none"/></g><path d="M249.88541,253.63225l-3.01114,-0.26154l2.10476,-30.67492l3.01115,0.26154z" fill="#ffffff" stroke="none" stroke-width="0" stroke-linecap="butt"/><path d="M214.8407,248.56811l-2.86528,-10.86881l0.46431,-24.02968l2.21495,-8.18962l4.05537,-3.36739l8.05363,0.27654l1.61072,0.05531l7.10956,17.27645l-3.2235,0.13979l-0.01631,2.00324l14.22197,1.23976l-1.05221,30.27137l-28.96044,-5.00203z" fill="#66c8ff" stroke="#000000" stroke-width="0.5" stroke-linecap="round"/></g><path d="M262.36194,159.27855l-0.72355,-0.50988c-0.08998,-0.02895 -0.17988,-0.05739 -0.26977,-0.08536c-0.21538,0.31536 -0.6391,0.68607 -1.37861,0.4563c-0.6816,-0.21176 -0.85309,-0.69179 -0.87479,-1.06471c-2.64018,-0.60976 -5.27662,-0.87774 -8.043,-1.07356c-7.74161,-0.28268 -15.48918,0.03584 -23.23355,0.19471c-2.5398,0.0521 -8.20361,1.19049 -10.35937,-0.45253c-1.05136,-0.80129 -0.68626,-2.73957 -0.80828,-3.79041c-0.35356,-3.0451 -0.78746,-6.19643 -0.86187,-9.26319c-0.07045,-4.00911 -1.64276,-7.55847 -2.22787,-11.48011c-0.29333,-1.96605 -1.0012,-3.93409 0.7282,-5.67346c0.4883,-0.49111 1.36819,-0.22829 2.05895,-0.27823c2.52449,-0.18248 4.97361,-0.05906 7.47912,0.18789c7.93996,0.78259 15.78235,1.1444 23.67804,2.41328c3.18518,0.5157 6.38555,0.51985 9.61137,0.56371c1.89589,0.02578 3.61345,-0.54982 4.78999,1.59276c0.70261,1.27951 0.283,5.2929 0.25881,6.77572c-0.0933,5.71771 0.94758,12.71408 -0.13734,18.48564c0.11791,0.03629 0.23588,0.07332 0.35393,0.11113l1.30338,0.78215c0,0 1.05406,0.6719 0.38217,1.72596c-0.6719,1.05406 -1.72596,0.38217 -1.72596,0.38217z" data-paper-data="{&quot;index&quot;:null}" fill="#000000" stroke="none" stroke-width="0.5" stroke-linecap="butt"/><path d="M237.02288,172.32581c0.62933,1.08002 -0.45067,1.70935 -0.45067,1.70935l-0.71816,0.3982c-1.16709,0.97015 -1.81524,1.41725 -2.68079,1.63376l0.08593,0.21043l-1.26295,0.51572c-0.1453,0.06332 -0.30515,0.09988 -0.47344,0.10334c-0.69021,0.01416 -1.26121,-0.53388 -1.27537,-1.22409c-0.00818,-0.39897 0.17149,-0.75812 0.45789,-0.9929l0.97451,-0.81295l0.02158,0.02586l0.03897,-0.07329c0.84607,-0.54658 1.6976,-1.08492 2.55703,-1.61024c0,0 0.3581,-0.21886 0.78613,-0.19544l0.23002,-0.13844c0,0 1.08002,-0.62933 1.70935,0.45067z" fill="#582700" stroke="none" stroke-width="0.5" stroke-linecap="butt"/><path d="M242.96055,172.11835l0.23549,0.12888c0.42669,-0.04093 0.79348,0.16304 0.79348,0.16304c0.88026,0.48964 1.75314,0.9926 2.62091,1.50403l0.04194,0.07163l0.02049,-0.02672l1.00703,0.7723c0.29578,0.22284 0.49003,0.57432 0.49821,0.97329c0.01416,0.69021 -0.53388,1.26121 -1.22409,1.27537c-0.16831,0.00346 -0.3295,-0.02653 -0.47727,-0.08383l-1.28304,-0.46349l0.07724,-0.21377c-0.87371,-0.18083 -1.53966,-0.60098 -2.74554,-1.52246l-0.7339,-0.36842c0,0 -1.10491,-0.58452 -0.5204,-1.68944c0.58452,-1.10491 1.68944,-0.5204 1.68944,-0.5204z" data-paper-data="{&quot;index&quot;:null}" fill="#582700" stroke="none" stroke-width="0.5" stroke-linecap="butt"/><path d="M229.09713,174.84709c0.30267,-0.19878 1.63578,1.29622 2.97758,3.33917c1.3418,2.04295 2.18422,3.86025 1.88154,4.05904c-0.30267,0.1988 -1.63578,-1.2962 -2.97758,-3.33915c-1.3418,-2.04295 -2.18423,-3.86026 -1.88155,-4.05905z" data-paper-data="{&quot;index&quot;:null}" fill="none" stroke="#000000" stroke-width="2.5" stroke-linecap="butt"/><path d="M234.09094,181.47897c0.28354,0.22524 -0.71914,1.95929 -2.2395,3.87308c-1.52035,1.91379 -2.98269,3.28266 -3.26623,3.05739c-0.28354,-0.22524 0.71913,-1.95928 2.23949,-3.87307c1.52035,-1.91379 2.98269,-3.28266 3.26623,-3.05741z" data-paper-data="{&quot;index&quot;:null}" fill="none" stroke="#000000" stroke-width="2.5" stroke-linecap="butt"/><path d="M247.93335,174.19558c0.28354,0.22524 -0.71914,1.95929 -2.2395,3.87308c-1.52035,1.91379 -2.98269,3.28266 -3.26623,3.05739c-0.28354,-0.22524 0.71913,-1.95928 2.23949,-3.87307c1.52035,-1.91379 2.98269,-3.28266 3.26623,-3.05741z" data-paper-data="{&quot;index&quot;:null}" fill="none" stroke="#000000" stroke-width="2.5" stroke-linecap="butt"/><path d="M247.74215,187.42978c-0.28398,0.22467 -1.74354,-1.14719 -3.25999,-3.06407c-1.51645,-1.91689 -2.51557,-3.65297 -2.23157,-3.87763c0.28398,-0.22467 1.74353,1.14717 3.25999,3.06406c1.51645,1.91689 2.51557,3.65297 2.23159,3.87764z" data-paper-data="{&quot;index&quot;:null}" fill="none" stroke="#000000" stroke-width="2.5" stroke-linecap="butt"/><path d="M244.73205,189.66294c4.67742,-0.12025 6.09755,2.8801 6.09755,2.8801l-14.43571,0.37112c0,0 3.66074,-3.13097 8.33816,-3.25122z" data-paper-data="{&quot;index&quot;:null}" fill="#ffffff" stroke="#000000" stroke-width="1.25" stroke-linecap="butt"/></g></g></svg>