<svg version="1.1" xmlns="http://www.w3.org/2000/svg" xmlns:xlink="http://www.w3.org/1999/xlink" width="350" height="350" viewBox="0,0,350,350"><defs><linearGradient x1="-835.01851" y1="-895.01851" x2="663.06255" y2="603.06255" gradientUnits="userSpaceOnUse" id="color-1"><stop offset="0" stop-color="#770000"/><stop offset="1" stop-color="#770000" stop-opacity="0"/></linearGradient></defs><g transform="translate(-65,-5)"><g data-paper-data="{&quot;isPaintingLayer&quot;:true}" fill-rule="nonzero" stroke-linecap="butt" stroke-linejoin="miter" stroke-miterlimit="10" stroke-dasharray="" stroke-dashoffset="0" style="mix-blend-mode: normal"><path d="M65,355v-350h350c0,0 0,219.79557 0,281.75c0,30.49241 0,68.25 0,68.25z" fill-opacity="0.01569" fill="#ffffff" stroke="none" stroke-width="0"/><path d="M242.43096,325.17002l-147.60098,-147.60098l142.73906,-142.73906l147.60098,147.60098z" fill="url(#color-1)" stroke="none" stroke-width="0"/><path d="M240,324.24978l-144.24978,-144.24978l144.24978,-144.24978l144.24978,144.24978z" fill="none" stroke="#000000" stroke-width="14.5"/><path d="M161,230v-52h138v52z" fill="#000000" stroke="none" stroke-width="0"/><path d="M194.86506,161.99636c-2.49636,-0.13494 -2.36142,-2.63129 -2.36142,-2.63129c0.44979,-8.32119 1.05021,-19.42881 1.5,-27.75c0,0 0.13494,-2.49636 2.63129,-2.36142c2.49636,0.13494 2.36142,2.63129 2.36142,2.63129c-0.44979,8.32119 -0.89959,16.64237 -1.34938,24.96356l-0.15062,2.78644c0,0 -0.13494,2.49636 -2.63129,2.36142z" fill="#000000" stroke="none" stroke-width="0.5"/><path d="M209.75,149c0,2.5 -2.5,2.5 -2.5,2.5l0.72043,-0.47816c-0.73463,0.48529 -1.71645,0.72266 -2.2039,1.45586c-0.64737,0.97374 -0.63473,2.25153 -0.99946,3.36249c-1.41512,4.31042 -2.95075,9.78789 -5.25054,13.71213c-1.24228,2.11975 -2.00638,5.23884 -4.36032,5.9428c-1.6546,0.49482 -2.78094,-2.11907 -3.8246,-3.49506c-3.50715,-4.6239 -3.81546,-10.89697 -7.33161,-15.50006c0,0 -1.5,-2 0.5,-3.5c2,-1.5 3.5,0.5 3.5,0.5c2.67557,3.61895 3.69874,7.69328 5.50585,11.76255c0.38038,0.85655 0.9283,1.64478 1.39171,2.46428c0.45551,-1.83499 1.46948,-3.7545 1.87579,-4.76994c1.15474,-2.88595 2.22177,-5.80686 3.26308,-8.73565c0.55788,-1.5691 0.75184,-3.32783 1.69704,-4.69893c0.78775,-1.14271 2.1974,-1.69609 3.2961,-2.54414l2.22043,-0.47816c0,0 2.5,0 2.5,2.5z" fill="#000000" stroke="none" stroke-width="0.5"/><path d="M249.18991,157.48069c-2.48069,-0.31009 -2.17061,-2.79078 -2.17061,-2.79078l0.27924,-2.1802c1.48765,-7.23917 0.70274,-15.62357 0.70145,-23.00971c0,0 0,-2.5 2.5,-2.5c2.5,0 2.5,2.5 2.5,2.5c-0.00131,7.75961 0.6911,16.36975 -0.79855,23.99029l-0.22076,1.8198c0,0 -0.31009,2.48069 -2.79078,2.17061z" fill="#000000" stroke="none" stroke-width="0.5"/><path d="M269.92536,150.64366c0.60634,2.42536 -1.81902,3.0317 -1.81902,3.0317l-0.45316,0.04279c-5.07581,2.52937 -7.32655,7.90657 -10.00243,12.63399c-1.72011,3.03887 -3.0816,7.42558 -7.86329,6.8547c-1.47336,-0.1759 -2.34919,-1.82311 -3.41454,-2.85596c-3.50819,-3.40116 -6.33043,-7.44139 -9.15725,-11.39778c0,0 -1.4531,-2.03433 0.58124,-3.48743c2.03433,-1.4531 3.48743,0.58124 3.48743,0.58124c2.73718,3.8332 5.80491,7.21743 8.73071,10.87835c0.31954,0.39982 0.25168,1.11651 0.69751,1.36791c0.25384,0.14314 0.45132,-0.38559 0.59899,-0.63683c0.70919,-1.2066 1.30096,-2.47849 1.95829,-3.7141c0.79777,-1.49959 1.52975,-3.03694 2.40698,-4.49148c2.58667,-4.28893 5.24254,-7.79649 9.67001,-10.16891l1.54684,-0.45721c0,0 2.42536,-0.60634 3.0317,1.81902z" fill="#000000" stroke="none" stroke-width="0.5"/></g></g></svg>