<svg version="1.1" xmlns="http://www.w3.org/2000/svg" xmlns:xlink="http://www.w3.org/1999/xlink" width="199.11324" height="221.55319" viewBox="0,0,199.11324,221.55319"><g transform="translate(-195.52004,-69.22341)"><g data-paper-data="{&quot;isPaintingLayer&quot;:true}" fill-rule="nonzero" stroke-linejoin="miter" stroke-miterlimit="10" stroke-dasharray="" stroke-dashoffset="0" style="mix-blend-mode: normal"><path d="M205.36674,290.77659v-221.55318h189.26654v221.55319z" fill="none" stroke="none" stroke-width="NaN" stroke-linecap="butt"/><g data-paper-data="{&quot;index&quot;:null}" fill="#000000"><g data-paper-data="{&quot;origRot&quot;:0,&quot;index&quot;:null}" stroke="#000000" stroke-width="3" stroke-linecap="round"><path d="M318.52868,251.35641c-1.87201,0.79195 -3.58823,-6.27766 -3.58823,-6.27766c0,0 -3.80272,-13.69114 -6.23666,-22.45417c-1.59821,-5.75418 -4.09527,-14.74434 -4.09527,-14.74434c0,0 -1.33231,-5.77276 -0.28745,-6.1207c6.28618,-2.09315 11.95774,-5.3582 15.41565,-5.27371c1.15265,0.02814 3.80636,5.08963 3.80636,5.08963l13.57242,26.86635c0,0 4.64073,9.5816 5.43558,14.12018c0.44085,2.51716 -24.02242,8.79441 -24.02242,8.79441z" data-paper-data="{&quot;origPos&quot;:null}"/><path d="M315.96971,244.44125l23.35699,-8.71514"/><path d="M314.58525,241.41001l23.27397,-8.93759" data-paper-data="{&quot;origPos&quot;:null}"/></g><path d="M314.27042,240.5741l-9.84606,-37.49228l14.80231,-5.57443l1.43871,0.19391l17.20351,34.03833z" stroke="#000000" stroke-width="1" stroke-linecap="round"/><path d="M315.43459,244.55585l-0.82215,-2.18131l23.86221,-8.99374l0.82215,2.18131z" stroke="none" stroke-width="0" stroke-linecap="butt"/></g><g data-paper-data="{&quot;origRot&quot;:0}" fill="#000000" stroke="#000000" stroke-linecap="round"><path d="M309.30779,214.26227c0,0 0.75297,-4.74295 2.29137,-4.45877c4.53958,0.8386 9.23408,-0.01795 13.183,2.34369c1.6398,0.98068 1.59999,5.26919 1.59999,5.26919l-1.40281,33.07889c0,0 -0.09969,3.4175 -0.22716,5.37906c-0.13629,2.09726 -1.73016,5.00997 -3.84391,4.74005c-7.76105,-0.99098 -12.78097,-0.19843 -17.45499,-2.0338c-1.70282,-0.66866 -3.46545,-1.48851 -3.89115,-3.24631c-0.55611,-2.29615 0.8926,-6.54415 0.8926,-6.54415z" data-paper-data="{&quot;origPos&quot;:null}" stroke-width="3"/><path d="M324.22797,259.18683c0,0 -6.36806,1.64869 -11.46199,0.84147c-3.90824,-0.61934 -12.20846,-2.97171 -12.20846,-2.97171c0,0 -0.93497,-2.78915 -0.76662,-4.38319c0.17735,-1.67923 1.65242,-4.00418 1.65242,-4.00418l23.47014,2.91165z" data-paper-data="{&quot;origPos&quot;:null}" stroke-width="2"/><path d="M309.33767,214.59197c0,0 0.75297,-4.74295 2.29138,-4.45876c4.53957,0.8386 9.23408,-0.01795 13.18301,2.34372c1.6398,0.98068 1.59999,5.26917 1.59999,5.26917l-1.40281,33.07889c0,0 -0.09967,3.4175 -0.22714,5.37907c-0.13629,2.09726 -1.73017,5.00996 -3.84391,4.74005c-7.76105,-0.99098 -12.78097,-0.19842 -17.45499,-2.03379c-1.70282,-0.66866 -3.46544,-1.48853 -3.89114,-3.2463c-0.55611,-2.29615 0.89259,-6.54415 0.89259,-6.54415z" data-paper-data="{&quot;origPos&quot;:null}" stroke-width="3"/></g><g fill="#000000"><g><path d="M278.1829,205.19953c0,0 1.96868,-14.4094 4.15683,-14.95725c6.56443,-1.64357 21.57161,-0.71298 31.60199,-0.71298c1.55059,0 2.88961,13.5334 2.88961,13.5334l1.80599,30.62821c0,0 0.24675,14.95796 -1.44479,14.95796c-15.05784,0 -32.70662,0.85262 -39.41823,0.01169c-2.23719,-0.2803 -1.3974,-16.03807 -1.3974,-16.03807z" data-paper-data="{&quot;origPos&quot;:null}" stroke="#000000" stroke-width="3.5" stroke-linecap="round"/><path d="M297.2954,213.39833c-1.31002,0 -1.31002,-2.4875 -1.31002,-2.4875c0,-5.15926 0,-11.97684 0,-17.1361c0,0 0,-2.4875 1.31002,-2.4875c1.31002,0 1.31002,2.4875 1.31002,2.4875c0,5.15926 0,10.31851 0,15.47777v1.65833c0,0 0,2.4875 -1.31002,2.4875z" stroke="none" stroke-width="0.5" stroke-linecap="butt"/><path d="M309.46584,219.73166c-1.31002,0 -1.31002,-3.125 -1.31002,-3.125c0,-6.48148 0,-15.04629 0,-21.52777c0,0 0,-3.125 1.31002,-3.125c1.31002,0 1.31002,3.125 1.31002,3.125c0,6.48148 0,12.96296 0,19.44445v2.08333c0,0 0,3.125 -1.31002,3.125z" stroke="none" stroke-width="0.5" stroke-linecap="butt"/></g><g stroke="#000000" stroke-width="0.5" stroke-linecap="butt"><path d="M312.28405,229.70619c0,6.75773 -4.68054,12.23596 -10.45427,12.23596c-5.77373,0 -10.45427,-5.47823 -10.45427,-12.23596c0,-6.75773 4.68054,-12.23596 10.45427,-12.23596c5.77373,0 10.45427,5.47823 10.45427,12.23596z"/><path d="M304.93373,218.41842c0.00043,0.01121 0.00065,0.02264 0.00065,0.03429c0,0.62472 -0.63359,0.62472 -0.63359,0.62472h-0.12671c-0.46293,0 -2.57327,0.0279 -2.88958,-0.10741c-0.26405,-0.11296 -0.20661,-0.54309 -0.3966,-0.75628c-0.18253,-0.20481 -0.44222,-0.33145 -0.68656,-0.45911c-0.38855,-0.20301 -0.91921,-0.19976 -1.20507,-0.52922c-0.26406,-0.30435 -0.29545,-0.7718 -0.27058,-1.17157c0.1168,-1.87748 1.28524,-1.89669 2.79456,-1.72741c0.45524,0.09887 0.92499,0.14686 1.36572,0.2966c0.19389,0.06587 0.3096,0.29409 0.50921,0.34041c0.14189,0.03293 0.27538,-0.0978 0.41848,-0.12514c0.00611,-0.00117 1.7739,-0.25012 1.79143,-0.25258c1.19514,-0.1673 2.47326,-0.21612 3.67939,-0.12987c0.76855,0.05496 2.5051,0.24268 2.94835,1.002c0.63124,1.08137 -1.20345,1.81308 -1.66266,1.99818c-1.35898,0.54778 -2.51896,0.20728 -3.90302,0.36625c-0.47146,0.05415 -1.22919,0.38014 -1.7334,0.59613z"/></g></g><g data-paper-data="{&quot;index&quot;:null,&quot;origRot&quot;:0}" fill="#000000" stroke="#000000" stroke-linecap="round"><path d="M300.91916,239.42333c0,0 4.86767,-0.10728 4.8558,1.43592c-0.035,4.55375 1.64951,8.95833 -0.01026,13.20798c-0.6892,1.76466 -4.97721,2.48376 -4.97721,2.48376l-33.26872,4.48338c0,0 -3.42911,0.5071 -5.40975,0.72999c-2.11767,0.2383 -5.30687,-0.79388 -5.41093,-2.89293c-0.38206,-7.70706 -2.06024,-12.43878 -1.05394,-17.29911c0.36662,-1.7707 0.87357,-3.62616 2.55308,-4.34989c2.19386,-0.94539 6.69038,-0.29005 6.69038,-0.29005z" data-paper-data="{&quot;origPos&quot;:null}" stroke-width="3"/><path d="M258.70963,261.84081c0,0 -2.77097,-5.88878 -2.86522,-10.97497c-0.07229,-3.9023 0.80936,-12.37316 0.80936,-12.37316c0,0 2.61906,-1.4002 4.24006,-1.51846c1.70761,-0.12459 4.28911,0.89615 4.28911,0.89615l1.24042,23.2918z" data-paper-data="{&quot;origPos&quot;:null}" stroke-width="2.5"/><path d="M264.56373,237.01958c0,0 12.8589,0.88896 21.08926,1.45795c5.83143,0.40315 14.94229,1.03301 14.94229,1.03301c0,0 4.86767,-0.10729 4.8558,1.43591c-0.035,4.55374 1.64951,8.95834 -0.01026,13.20799c-0.6892,1.76467 -4.97721,2.48376 -4.97721,2.48376l-33.26872,4.48338c0,0 -3.42911,0.5071 -5.40975,0.72999c-2.11766,0.2383 -5.30687,-0.79388 -5.41093,-2.89293c-0.38207,-7.70707 -2.06023,-12.43878 -1.05393,-17.29911c0.36661,-1.7707 0.87357,-3.62616 2.55308,-4.34989c2.19386,-0.94539 6.69038,-0.29005 6.69038,-0.29005z" data-paper-data="{&quot;origPos&quot;:null}" stroke-width="1.5"/></g><path d="M313.35013,196.97209c-12.06913,-0.65802 -23.7709,-1.33219 -28.48681,-2.64335c-4.31003,-1.19832 -5.44845,-4.0384 -5.44845,-4.0384c0,0 -1.59584,-2.54249 -1.58275,-4.07745c0.03931,-4.60485 0.76756,-17.73505 2.44303,-28.98795c0.05591,-0.37556 0.10095,-0.58461 0.17913,-0.95617c0.23455,-1.11469 1.33462,-5.42915 1.33462,-5.42915c0,0 3.29047,-1.44956 5.05023,-1.80985c5.27924,-1.08085 18.36794,1.26197 32.22605,2.5797c1.25606,0.11944 3.30434,1.93736 3.30434,1.93736c0,0 1.33423,3.23093 1.15725,5.20656c-1.14411,12.77269 -2.45702,26.90056 -2.96886,30.11678c-0.1706,1.07207 -2.27626,5.13362 -2.27626,5.13362z" fill="#000000" stroke="#000000" stroke-width="2.5" stroke-linecap="round"/><path d="M315.44148,176.60743c0.30736,-3.43121 0.96859,-6.17587 1.47692,-6.13033c0.50832,0.04552 0.67126,2.864 0.36391,6.29522c-0.30736,3.43121 -0.9686,6.17588 -1.47692,6.13034c-0.50832,-0.04552 -0.67126,-2.864 -0.36391,-6.29523z" fill="#000000" stroke="#000000" stroke-width="2.5" stroke-linecap="butt"/><path d="M308.90128,176.72188c0.31304,-3.49478 0.8759,-6.30016 1.25713,-6.266c0.38124,0.03416 0.43654,2.89492 0.12349,6.38967c-0.31304,3.49478 -0.87587,6.30013 -1.25712,6.266c-0.38124,-0.03416 -0.43655,-2.8949 -0.1235,-6.38965z" fill="#000000" stroke="#000000" stroke-width="2.5" stroke-linecap="butt"/><path d="M280.59282,150.30475l1.19787,-12.9447l43.61366,4.03593l-1.19787,12.9447z" fill="#000000" stroke="none" stroke-width="0" stroke-linecap="butt"/><path d="M304.36913,165.90734c0.12723,-1.37484 1.3449,-2.38623 2.71973,-2.259c0.28229,0.02611 0.54926,0.09822 0.79419,0.20821c1.44779,-0.14159 8.73602,5.52973 6.39095,7.98901c-1.74986,1.8351 -6.80925,-1.78015 -8.53526,-3.19964c-0.47539,-0.39096 -1.96926,-2.1437 -1.36961,-2.73856z" data-paper-data="{&quot;index&quot;:null}" fill="#000000" stroke="none" stroke-width="0.5" stroke-linecap="butt"/><path d="M319.94613,170.36234c-1.44931,1.12566 -5.61124,3.88757 -6.56259,1.80252c-1.27493,-2.79427 4.79382,-7.22955 5.79872,-6.861c0.1912,-0.06963 0.39203,-0.09844 0.59648,-0.07952c0.99568,0.09214 1.69971,1.28136 1.57248,2.65619c0.33139,0.68102 -1.00591,2.17176 -1.40508,2.4818z" data-paper-data="{&quot;index&quot;:null}" fill="#000000" stroke="none" stroke-width="0.5" stroke-linecap="butt"/><g data-paper-data="{&quot;index&quot;:null}" fill="#000000"><path d="M216.09129,249.25031c-0.20496,-2.25285 -4.06064,-5.72516 -2.00582,-5.85124c1.36892,-0.08399 20.78486,3.36685 22.01641,4.72571c0.61705,0.68084 1.07925,1.81579 1.14769,2.5678c0.10056,1.10531 -0.38962,2.05404 -1.24025,2.75375c-0.88315,0.72645 -19.9671,2.27726 -21.01376,2.34149c-2.05481,0.12608 1.30073,-4.28466 1.09574,-6.53752z" stroke="#000000" stroke-width="1.5" stroke-linecap="butt"/><g stroke-linecap="butt"><path d="M209.32278,249.69123c-0.37137,-4.08164 1.47327,-7.5221 4.12011,-7.68449c2.64685,-0.16239 5.09358,3.01478 5.46495,7.09643c0.37133,4.08164 -1.47331,7.5221 -4.12014,7.68449c-2.64683,0.16242 -5.09357,-3.01477 -5.46493,-7.09641z" stroke="#000000" stroke-width="1.5"/><path d="M214.98044,245.6816l-1.76101,-3.23445c0,0 1.74495,0.55298 2.34388,1.04651c1.24099,1.05291 1.73129,2.56411 1.73129,2.56411z" stroke="none" stroke-width="0"/><path d="M216.02469,248.88888l-0.41294,-1.46811c0,0 0.91946,-0.16024 1.24795,-0.15881c0.38463,0.00168 1.08407,0.21294 1.08407,0.21294l0.20968,1.78122z" stroke="none" stroke-width="0"/></g><g><path d="M215.22539,249.43717c0.51229,5.63067 -2.45858,8.95223 -7.98857,9.29152c-5.52998,0.33927 -10.45446,-4.23881 -10.96678,-9.86954c-0.51232,-5.63069 3.04106,-9.85846 8.57105,-10.19775c5.52996,-0.33926 9.87198,5.14501 10.3843,10.77574z" stroke="#000000" stroke-width="1.5" stroke-linecap="butt"/><path d="M203.23015,239.15815c2.74366,-0.16836 5.71112,1.01724 7.94696,2.58665c1.59293,1.11813 2.81739,2.90241 2.99847,4.89274c0.37219,4.0911 -1.28465,5.65574 -6.12296,5.95259c-2.4162,0.14823 -5.51488,-1.11011 -7.65869,-2.74116c-2.14902,-1.63502 -3.58148,-2.92615 -3.58148,-2.92615c0,0 1.57938,-7.46781 6.41769,-7.76466z" stroke="none" stroke-width="0" stroke-linecap="butt"/><path d="M204.90342,238.9684c0,0 4.04701,2.54665 4.86756,9.04547c0.82728,6.55207 -2.27429,9.7456 -2.27429,9.7456" stroke="#000000" stroke-width="0.8" stroke-linecap="round"/><path d="M209.40381,239.87317c0,0 2.46598,3.68779 3.4531,7.77697c1.42258,5.89302 -0.27515,8.33531 -0.27515,8.33531" stroke="#000000" stroke-width="0.75" stroke-linecap="round"/><path d="M200.70109,240.12592c0,0 3.49488,2.75874 4.67566,9.2287c1.13572,6.22294 -0.60165,8.23441 -0.60165,8.23441" stroke="#000000" stroke-width="0.8" stroke-linecap="round"/><path d="M203.50687,257.61063c0,0 -2.51441,-3.73755 -3.61762,-6.84506c-1.45312,-4.09309 -1.8008,-8.39875 -1.8008,-8.39875" stroke="#000000" stroke-width="0.8" stroke-linecap="round"/><path d="M214.67153,251.63985c0,0 -2.86257,2.46501 -8.668,3.06222c-5.41748,0.5573 -8.08244,-2.03456 -8.08244,-2.03456" stroke="#000000" stroke-width="0.8" stroke-linecap="round"/><path d="M197.45823,250.6153c0,0 2.77879,0.01709 5.76598,-0.43942c2.62696,-0.40147 5.39341,-1.26975 6.87253,-1.44666c1.75679,-0.21011 4.73434,-0.19192 4.73434,-0.19192" stroke="#000000" stroke-width="0.8" stroke-linecap="round"/><path d="M196.72995,248.07334c0,0 4.02104,-3.17879 7.80682,-3.52048c5.9419,-0.5363 9.95043,1.41887 9.95043,1.41887" stroke="#000000" stroke-width="0.8" stroke-linecap="round"/><path d="M196.87422,244.80305c0,0 2.82486,-2.45953 6.52529,-3.32437c5.32876,-1.24541 8.35879,-0.00677 8.35879,-0.00677" stroke="#000000" stroke-width="0.8" stroke-linecap="round"/><path d="M203.82235,240.44052c0.03654,0.40148 -0.30269,0.74962 -0.75765,0.77751c-0.45497,0.02793 -0.85341,-0.27493 -0.88993,-0.67641c-0.03652,-0.4015 0.30268,-0.74962 0.75764,-0.77751c0.45497,-0.02795 0.85343,0.27491 0.88995,0.67639z" stroke="none" stroke-width="0" stroke-linecap="butt"/><path d="M200.44693,241.8847c-0.22747,0.01395 -0.42897,-0.16251 -0.45004,-0.39413c-0.02107,-0.23162 0.14626,-0.43071 0.37374,-0.44466c0.22748,-0.01394 0.42897,0.16251 0.45004,0.39413c0.02108,0.23162 -0.14626,0.43071 -0.37374,0.44466z" stroke="none" stroke-width="0" stroke-linecap="butt"/></g></g><g data-paper-data="{&quot;index&quot;:null}" fill="#000000"><path d="M288.02868,191.18328c3.21577,0.00554 -3.89489,12.32463 -4.28524,14.59483c-0.42422,2.46737 -15.08311,-12.46826 -15.08311,-12.46826l-2.44915,-2.56679l16.51199,16.68501c0,0 5.99324,5.47486 4.21343,6.88064c0,0 -4.74922,10.07556 -21.5014,18.77403c-4.21252,-2.94741 -10.89223,-12.89883 -10.89223,-12.89883c0,0 -15.85527,-21.40935 -14.18329,-25.81923c0.38719,-1.02117 7.71741,-11.85988 11.7881,-12.70394c13.50841,-2.80093 35.88091,9.52255 35.88091,9.52255z" stroke="#000000" stroke-width="2.5" stroke-linecap="round"/><path d="M269.3624,195.00315c-0.33403,-0.38107 -0.66332,-0.7674 -0.99468,-1.1535c-0.07313,-0.08522 -0.80637,-1.13006 -1.31658,-1.45083c-5.31074,4.40525 -9.87654,9.58628 -15.44381,13.73061c-0.46616,0.3989 -1.36629,1.33877 -2.34869,2.12274c-0.22288,0.30812 -0.36139,0.57835 -0.32992,0.7511c0.26751,1.46889 1.5384,2.88013 2.08757,4.28391c0.20333,-0.32501 0.80468,-1.25673 1.12046,-1.5892c0.93781,-0.98733 1.86174,-1.96599 2.76861,-2.98084c3.17893,-3.55746 7.02256,-7.05182 10.58102,-10.19196c1.14132,-1.25788 2.46424,-2.49175 3.87601,-3.52203zM270.37677,196.116c-1.40171,1.00337 -2.71389,2.2391 -3.83827,3.47831c-4.04099,3.53291 -8.01466,7.50463 -11.6794,11.46726c-1.51,1.63274 -3.17825,4.67519 -5.13671,2.98586c-0.60239,-1.4869 -1.9442,-3.09206 -2.24389,-4.70338c-0.43998,0.15968 -0.85263,0.19747 -1.20353,0.04516c-0.49395,-0.21439 -1.2906,-2.23268 -1.59355,-2.74318c-1.80742,-3.04555 -4.54395,-6.36726 -3.55181,-10.12343c-0.10139,-6.21957 5.90984,-13.09059 10.99167,-16.01207c4.35751,-0.68605 7.61621,0.37025 11.66815,1.83133c2.92562,1.05494 5.87405,1.51017 8.71179,2.9217c4.21218,1.41928 8.36869,2.96398 12.57755,4.38837c1.93169,0.65375 4.01683,0.62254 4.38179,2.87512c-1.35266,3.33672 -2.72163,6.70925 -4.15684,10.02801c-0.4474,1.03453 -1.42524,3.10466 -2.55196,3.56377c-1.56585,0.63801 -2.69153,-0.86205 -3.60027,-1.89541c-2.30328,-1.98611 -4.72125,-4.28382 -6.92936,-6.72317c-0.32982,0.04294 -0.60122,-0.19204 -0.60122,-0.19204c-0.43613,-0.37842 -0.84752,-0.77846 -1.24413,-1.19221zM249.33817,206.04569c2.63259,-3.09996 6.0295,-5.25013 8.7154,-8.22969c1.54759,-1.78765 4.04098,-5.1929 6.69533,-6.48996c0.10085,-0.11849 0.20754,-0.18179 0.20754,-0.18179l0.66311,-0.38965c0.57206,-0.49088 1.30776,-0.79071 2.03666,-0.98293c4.78159,3.6096 7.95479,9.39216 12.55209,13.38726c0.45569,0.51926 1.05768,1.30051 1.64233,1.66037c0.3596,0.22132 1.65812,-1.9452 1.80144,-2.21486c1.74497,-3.28322 2.71253,-6.95649 4.32568,-10.30417c0.08525,-0.37243 -2.79643,-1.02957 -3.38261,-1.22847c-4.23848,-1.43808 -8.43081,-2.97937 -12.66962,-4.42315c-2.82413,-1.40104 -5.73651,-1.85456 -8.65043,-2.89776c-3.70881,-1.32777 -6.67197,-2.36908 -10.65178,-1.82691c-4.58311,2.84751 -10.09759,9.02923 -10.00395,14.77343c-0.91268,3.68198 2.47282,8.33391 4.26404,11.32071c0.019,0.03166 1.33679,-1.04009 2.41393,-1.92506c0.01394,-0.01598 0.02757,-0.03178 0.04083,-0.0474z" stroke="none" stroke-width="0.5" stroke-linecap="butt"/><path d="M265.52925,198.49946c-3.55843,3.14015 -7.47121,6.70277 -10.65013,10.26025c-0.90686,1.01486 -1.83374,1.99154 -2.77157,2.97887c-0.31579,0.33245 -0.91706,1.26421 -1.1204,1.58923c-0.54919,-1.4038 -1.83275,-2.82824 -2.10027,-4.29712c-0.03144,-0.17275 0.10597,-0.44472 0.32885,-0.75284c0.9824,-0.78398 1.88066,-1.72726 2.34681,-2.12616c5.56728,-4.14437 10.20954,-9.38631 15.52027,-13.79156c0.5102,0.32078 1.24883,1.37074 1.32197,1.45595c0.33137,0.38611 0.66432,0.77697 0.99833,1.15804c-1.41177,1.03028 -2.73254,2.26743 -3.87386,3.52532z" data-paper-data="{&quot;noHover&quot;:false,&quot;origItem&quot;:[&quot;Path&quot;,{&quot;applyMatrix&quot;:true,&quot;segments&quot;:[[[926.17844,407.1979],[3.2606,1.25965],[-0.27949,0.97418]],[[925.31465,410.11917],[0.29084,-0.97519],[-0.06418,0.21521]],[[924.29914,413.90358],[-0.01258,-1.20526],[13.15638,4.16543]],[[964.1057,425.02121],[-12.99513,-4.87922],[1.17537,0.35239]],[[970.21765,426.67451],[-2.3817,-0.804],[0.75941,0.04146]],[[971.83798,426.41666],[-0.25651,0.23985],[2.18115,-2.03947]],[[976.78433,418.26967],[-1.76682,2.44279],[-0.76669,0.00973]],[[972.89889,418.10481],[0.90089,0.17138],[-2.67549,-0.50896]],[[964.88923,416.67374],[2.68829,0.42712],[-9.42353,-1.49721]],[[936.29671,409.90591],[9.13228,2.58714],[-3.35077,-0.55846]]],&quot;closed&quot;:true}]}" stroke="none" stroke-width="0.5" stroke-linecap="butt"/><path d="M250.71432,204.93216c-0.17258,0.14758 -3.84167,3.16521 -3.87308,3.11282c-1.79122,-2.9868 -5.18448,-7.66757 -4.2718,-11.3495c-0.09364,-5.7442 5.44238,-11.9651 10.02549,-14.8126c3.97982,-0.54217 6.97096,0.49028 10.67978,1.81806c2.91392,1.04321 5.85761,1.50739 8.68173,2.90844c4.2388,1.44378 8.4481,3.00986 12.68658,4.44793c0.58617,0.19888 3.46893,0.86019 3.38367,1.23261c-1.61314,3.34766 -2.58114,7.04347 -4.32611,10.32671c-0.14333,0.26965 -1.44386,2.4424 -1.80343,2.22107c-0.58467,-0.35987 -1.28057,-1.17541 -1.73623,-1.69467c-4.5973,-3.9951 -7.74722,-9.71797 -12.52881,-13.32757c-0.72889,0.19222 -1.4561,0.49573 -2.02818,0.98663l-0.65939,0.39073c0,0 -0.62127,0.28553 -0.23861,0.93055c0.03831,0.06459 0.05416,0.21566 0.09681,0.26105c-4.76676,4.15265 -8.98496,8.74231 -14.08843,12.54774z" data-paper-data="{&quot;noHover&quot;:false,&quot;origItem&quot;:[&quot;Path&quot;,{&quot;applyMatrix&quot;:true,&quot;segments&quot;:[[[926.61254,417.73069],[12.14285,3.5238],[-0.03018,0.12086]],[[926.46822,418.11346],[0.06716,-0.13431],[-0.67082,1.34164]],[924.45576,418.78428],[[923.08279,418.0906],[0,0],[-1.44471,-0.43097]],[[919.22563,415.72869],[1.11205,1.01797],[0.89694,-11.9485]],[[928.15956,380.1298],[-1.74473,12.05571],[0.38029,-1.32836]],[[929.175,375.57071],[0.02742,1.37277],[-0.01686,-0.84429]],[[923.5003,374.93752],[0.60865,-0.05075],[-7.41054,0.61792]],[[901.48814,378.8123],[7.37628,-0.90935],[-0.71866,0.25961]],[[903.08234,385.83106],[-0.2998,-1.20115],[2.16779,8.68513]],[[909.35292,411.92731],[-2.15853,-8.69186],[0.69956,6.26621]],[[913.83986,429.61277],[-1.39861,-6.02998],[1.78014,7.67491]],[[922.29365,449.50563],[-5.21858,-6.1072],[9.74892,4.62723]],[[957.96755,450.34516],[-9.56021,6.37347],[7.18055,-2.44927]],[[972.39433,430.92276],[-3.08539,6.24485],[0.05411,-0.10951]],[[963.14745,427.86406],[0.43501,0.13058],[-11.92317,-4.46591]]],&quot;closed&quot;:true}]}" stroke="none" stroke-width="0.5" stroke-linecap="butt"/></g><path d="M306.28505,185.75628c0.02748,0.98253 -0.58276,1.79672 -1.36301,1.81854c-0.78025,0.02182 -1.43503,-0.75699 -1.46251,-1.73952c-0.02748,-0.98253 0.58276,-1.79672 1.36301,-1.81854c0.78025,-0.02182 1.43503,0.75699 1.46251,1.73952z" fill="#000000" stroke="#000000" stroke-width="1" stroke-linecap="butt"/></g></g></svg>