<svg version="1.1" xmlns="http://www.w3.org/2000/svg" xmlns:xlink="http://www.w3.org/1999/xlink" width="746.40465" height="279.94604" viewBox="0,0,746.40465,279.94604"><defs><linearGradient x1="241.70763" y1="-57.53153" x2="241.70763" y2="190.89949" gradientUnits="userSpaceOnUse" id="color-1"><stop offset="0" stop-color="#000000"/><stop offset="1" stop-color="#00394c"/></linearGradient><linearGradient x1="-101.5" y1="60.78722" x2="79.5" y2="60.78722" gradientUnits="userSpaceOnUse" id="color-2"><stop offset="0" stop-color="#000000"/><stop offset="1" stop-color="#000000" stop-opacity="0"/></linearGradient><linearGradient x1="620.5" y1="51.22673" x2="439.5" y2="51.22673" gradientUnits="userSpaceOnUse" id="color-3"><stop offset="0" stop-color="#000000"/><stop offset="1" stop-color="#000000" stop-opacity="0"/></linearGradient><linearGradient x1="258" y1="-89.04655" x2="258" y2="43.5" gradientUnits="userSpaceOnUse" id="color-4"><stop offset="0" stop-color="#000000"/><stop offset="1" stop-color="#000000" stop-opacity="0"/></linearGradient></defs><g transform="translate(121.90465,89.04655)"><g data-paper-data="{&quot;isPaintingLayer&quot;:true}" fill-rule="nonzero" stroke="none" stroke-linecap="butt" stroke-linejoin="miter" stroke-miterlimit="10" stroke-dasharray="" stroke-dashoffset="0" style="mix-blend-mode: normal"><g><path d="M-97.5,190.5v-228h696.5v228z" fill="#f7c33d" stroke-width="0"/><g><path d="M-114.07658,190.89949v-248.43102h711.56841v248.43102z" fill="url(#color-1)" stroke-width="0"/><g><path d="M243.74212,128.27992c-92.98731,0 -168.36841,-9.45117 -168.36841,-21.10979c0,-11.65861 75.3811,-21.10979 168.36841,-21.10979c92.98731,0 168.36841,9.45117 168.36841,21.10979c0,11.65861 -75.3811,21.10979 -168.36841,21.10979z" fill="#00171f" stroke-width="0"/><path d="M408.90351,107.17013c0,11.27426 -73.51453,20.41386 -164.19929,20.41386c-90.68476,0 -164.19929,-9.1396 -164.19929,-20.41386c0,-11.27426 73.51453,-20.41386 164.19929,-20.41386c90.68476,0 164.19929,9.1396 164.19929,20.41386z" fill="#00506a" stroke-width="0"/><path d="M408.26211,106.82216c0,10.69774 -73.51453,19.36997 -164.19929,19.36997c-90.68476,0 -164.19929,-8.67223 -164.19929,-19.36997c0,-10.69774 73.51453,-19.36997 164.19929,-19.36997c90.68476,0 164.19929,8.67223 164.19929,19.36997z" fill="#00769e" stroke-width="0"/><path d="M408.90351,106.59019c0,9.67281 -73.51453,17.51416 -164.19929,17.51416c-90.68476,0 -164.19929,-7.84136 -164.19929,-17.51416c0,-9.67281 73.51453,-17.51416 164.19929,-17.51416c90.68476,0 164.19929,7.84136 164.19929,17.51416z" fill="#00a9e2" stroke-width="0"/><path d="M410.82771,106.24223c0,6.9183 -74.95036,12.52669 -167.40631,12.52669c-92.45595,0 -167.40631,-5.60839 -167.40631,-12.52669c0,-6.9183 74.95036,-12.52669 167.40631,-12.52669c92.45595,0 167.40631,5.60839 167.40631,12.52669z" fill="#00bfff" stroke-width="NaN"/></g></g></g><path d="M-121.90465,187.62367v-275.67021h201.40465l-3.003,277.04504z" fill="url(#color-2)" stroke-width="0"/><path d="M439.5,190.5v-278.54655h181v278.54655z" data-paper-data="{&quot;index&quot;:null}" fill="url(#color-3)" stroke-width="0"/><path d="M624.5,43.5h-733v-132.54655h733z" data-paper-data="{&quot;index&quot;:null}" fill="url(#color-4)" stroke-width="0"/></g></g></svg>