<svg version="1.1" xmlns="http://www.w3.org/2000/svg" xmlns:xlink="http://www.w3.org/1999/xlink" width="189.26654" height="221.55319" viewBox="0,0,189.26654,221.55319"><g transform="translate(-145.36673,-69.22341)"><g data-paper-data="{&quot;isPaintingLayer&quot;:true}" fill-rule="nonzero" stroke-linejoin="miter" stroke-miterlimit="10" stroke-dasharray="" stroke-dashoffset="0" style="mix-blend-mode: normal"><path d="M145.36673,290.77659v-221.55318h189.26654v221.55319z" fill="none" stroke="none" stroke-width="NaN" stroke-linecap="butt"/><g data-paper-data="{&quot;origRot&quot;:0}" stroke="#000000" stroke-linecap="round"><path d="M257.37219,220.95909c0,0 -1.95064,-4.41222 -0.47009,-4.97766c4.36892,-1.6685 7.94232,-4.85412 12.6372,-4.92296c1.94956,-0.02859 4.26533,3.62497 4.26533,3.62497l16.9188,28.75548c0,0 1.7869,2.94711 2.75204,4.67552c1.03191,1.84796 1.25545,5.15049 -0.71279,6.02951c-7.22667,3.22757 -11.1154,6.52949 -16.14631,7.4241c-1.83284,0.32592 -3.80004,0.5551 -5.1299,-0.71081c-1.73718,-1.6536 -2.81743,-6.01115 -2.81743,-6.01115z" data-paper-data="{&quot;origPos&quot;:null}" fill="#ff0000" stroke-width="3"/><path d="M294.83925,251.19509c0,0 -4.58055,4.7336 -9.40967,6.71918c-3.70507,1.52339 -12.14209,3.8803 -12.14209,3.8803c0,0 -2.3336,-1.87268 -3.06213,-3.31118c-0.76748,-1.51538 -0.77122,-4.25777 -0.77122,-4.25777l21.80745,-9.8326z" data-paper-data="{&quot;origPos&quot;:null}" fill="#976e57" stroke-width="2"/><path d="M257.57858,221.22272c0,0 -1.95064,-4.41222 -0.47007,-4.97766c4.36892,-1.6685 7.94232,-4.85412 12.63721,-4.92295c1.94956,-0.02859 4.26531,3.62496 4.26531,3.62496l16.9188,28.75548c0,0 1.78692,2.94712 2.75207,4.67551c1.03191,1.84796 1.25543,5.15047 -0.71279,6.02951c-7.22667,3.22757 -11.1154,6.5295 -16.1463,7.42412c-1.83284,0.32592 -3.80004,0.55509 -5.12989,-0.7108c-1.73718,-1.6536 -2.81744,-6.01114 -2.81744,-6.01114z" data-paper-data="{&quot;origPos&quot;:null}" fill="#474747" stroke-width="3"/></g><g data-paper-data="{&quot;index&quot;:null,&quot;origRot&quot;:0}" stroke="#000000" stroke-linecap="round"><path d="M238.76198,254.10398c0,0 -1.03765,4.36728 -2.75857,6.03679c-1.31743,1.27809 -3.28678,1.06698 -5.12273,0.75794c-5.03943,-0.8483 -8.96024,-4.11435 -16.21814,-7.27532c-1.97672,-0.86091 -1.78548,-4.16533 -0.77169,-6.0227c0.9482,-1.73718 2.70622,-4.7006 2.70622,-4.7006l16.63699,-28.90974c0,0 2.27995,-3.67468 4.22968,-3.66401c4.69534,0.02567 8.29972,3.17826 12.68474,4.80654c1.48602,0.5518 -0.42139,4.98176 -0.42139,4.98176z" data-paper-data="{&quot;origPos&quot;:null}" fill="#ff0000" stroke-width="3"/><path d="M216.06829,243.85918l21.90257,9.63163c0,0 0.02306,2.74231 -0.72956,4.26466c-0.71444,1.44514 -3.02963,3.33918 -3.02963,3.33918c0,0 -8.45967,-2.27923 -12.17945,-3.76848c-4.84829,-1.94108 -9.47491,-6.63235 -9.47491,-6.63235z" data-paper-data="{&quot;origPos&quot;:null}" fill="#976e57" stroke-width="2.5"/><path d="M238.55818,254.36952c0,0 -1.03765,4.36728 -2.75857,6.03679c-1.31743,1.27809 -3.28678,1.06699 -5.12273,0.75795c-5.03943,-0.8483 -8.96024,-4.11434 -16.21814,-7.27532c-1.97672,-0.86091 -1.78548,-4.16533 -0.77169,-6.02269c0.9482,-1.73718 2.70622,-4.7006 2.70622,-4.7006l16.63699,-28.90974c0,0 2.27994,-3.67468 4.22968,-3.66401c4.69534,0.02567 8.29974,3.17827 12.68475,4.80654c1.48602,0.5518 -0.4214,4.98175 -0.4214,4.98175c0,0 -2.77261,8.59447 -4.54723,14.0954c-2.50466,7.76388 -6.41789,19.89396 -6.41789,19.89396z" data-paper-data="{&quot;origPos&quot;:null}" fill="#474747" stroke-width="1.5"/></g><g><g><g data-paper-data="{&quot;origRot&quot;:0}" stroke="#000000" stroke-width="3" stroke-linecap="round"><path d="M305.10887,190.72574c1.16842,1.93244 -6.54426,4.81921 -6.54426,4.81921c0,0 -20.18161,8.20091 -29.69649,12.11426c-4.24682,1.05971 -23.69531,-29.15471 -22.5301,-34.33664c0.51943,-2.30995 7.32034,-8.59332 9.17381,-8.18607c3.52791,0.77518 15.19376,11.17468 15.19376,11.17468l-3.27619,2.12492l9.1186,-4.74424c0,0 10.11176,-6.442 15.10845,-7.95985c2.77121,-0.84181 13.45239,24.99373 13.45239,24.99373z" data-paper-data="{&quot;origPos&quot;:null}" fill="#582700"/><path d="M283.4616,170.45135l13.26491,24.27788" fill="none"/><path d="M293.51516,196.67579l-13.50331,-24.15534" data-paper-data="{&quot;origPos&quot;:null}" fill="none"/></g><path d="M296.85327,195.30883l-2.33287,1.21717l-13.72892,-24.75084l2.33287,-1.21717z" fill="#ffffff" stroke="none" stroke-width="0" stroke-linecap="butt"/><path d="M268.66518,207.90223l-7.50597,-7.06719l-11.62124,-18.83044l-2.45616,-7.38739l1.2904,-4.52023l6.02893,-3.58307l1.20579,-0.71662l13.8001,10.02886l-2.28845,1.62813l0.9852,1.55926l11.02056,-5.74538l14.29802,23.94198l-23.67456,9.78054z" fill="#ffcb66" stroke="#000000" stroke-width="0.5" stroke-linecap="round"/></g><g fill="none" stroke="none" stroke-width="1" stroke-linecap="butt" font-family="sans-serif" font-weight="normal" font-size="12" text-anchor="start"/></g><g><g><path d="M233.7389,170.67878c0,0 3.32519,-14.17739 5.59144,-14.52964c6.79872,-1.05676 21.90824,1.19648 32.06451,2.08301c1.57006,0.13705 1.67503,13.73431 1.67503,13.73431l-1.00218,30.66453c0,0 -1.13266,14.91955 -2.84543,14.77005c-15.24682,-1.33088 -33.1959,-2.04157 -39.91402,-3.47231c-2.23936,-0.4769 0.06739,-16.09701 0.06739,-16.09701z" data-paper-data="{&quot;origPos&quot;:null}" fill="#ffcb66" stroke="#000000" stroke-width="3.5" stroke-linecap="round"/><path d="M252.33349,180.53382c-1.32646,-0.11578 -1.09655,-2.59327 -1.09655,-2.59327c0.47684,-5.13849 1.10697,-11.92862 1.58381,-17.06711c0,0 0.22991,-2.47749 1.55637,-2.3617c1.32646,0.11578 1.09655,2.59327 1.09655,2.59327c-0.47684,5.13849 -0.9537,10.27697 -1.43054,15.41546l-0.15327,1.65165c0,0 -0.22991,2.47749 -1.55637,2.3617z" fill="#ffffff" stroke="none" stroke-width="0.5" stroke-linecap="butt"/><path d="M264.07131,187.91733c-1.32646,-0.11578 -1.03763,-3.2282 -1.03763,-3.2282c0.59906,-6.45539 1.39066,-14.98572 1.98972,-21.4411c0,0 0.28883,-3.11242 1.61528,-2.99663c1.32646,0.11578 1.03763,3.2282 1.03763,3.2282c-0.59906,6.45539 -1.19812,12.91077 -1.79717,19.36617l-0.19255,2.07494c0,0 -0.28883,3.11242 -1.61528,2.99663z" fill="#ffffff" stroke="none" stroke-width="0.5" stroke-linecap="butt"/></g><g stroke="#000000" stroke-width="0.5" stroke-linecap="butt"><path d="M266.003,198.10079c-0.62459,6.73053 -5.8702,11.77301 -11.7164,11.26271c-5.8462,-0.51031 -10.07915,-6.38017 -9.45456,-13.1107c0.62459,-6.73053 5.8702,-11.77301 11.7164,-11.26271c5.8462,0.51031 10.07915,6.38017 9.45456,13.1107z" fill="#ffa924"/><path d="M259.60371,186.20881c-0.00061,0.0112 -0.00143,0.02261 -0.00252,0.03421c-0.05774,0.62221 -0.69928,0.56621 -0.69928,0.56621l-0.12831,-0.0112c-0.46874,-0.04092 -2.60814,-0.19965 -2.91591,-0.36237c-0.25693,-0.13584 -0.15901,-0.55917 -0.33168,-0.78829c-0.16589,-0.22012 -0.41713,-0.3692 -0.65275,-0.51794c-0.37466,-0.23653 -0.91229,-0.28019 -1.17128,-0.63359c-0.23924,-0.32646 -0.22782,-0.79481 -0.16569,-1.19077c0.29179,-1.8596 1.47667,-1.77547 2.98929,-1.47346c0.45181,0.13871 0.92302,0.22802 1.35544,0.41611c0.19023,0.08274 0.2863,0.32027 0.48413,0.38405c0.14062,0.04534 0.28787,-0.07307 0.4353,-0.08765c0.00629,-0.00063 1.81928,-0.09233 1.83725,-0.09323c1.2256,-0.061 2.52428,0.00335 3.73757,0.19585c0.77312,0.12267 2.51411,0.46311 2.89274,1.25855c0.53921,1.13281 -1.38614,1.69941 -1.86822,1.84318c-1.42667,0.42546 -2.56973,-0.01619 -3.98586,0.01981c-0.48238,0.01226 -1.27976,0.26997 -1.81026,0.44052z" fill="#1cc735"/></g></g><path d="M273.32822,158.17755c-12.46129,0.18502 -24.54588,0.32832 -29.4908,-0.65086c-4.51932,-0.89491 -5.89443,-3.64872 -5.89443,-3.64872c0,0 -1.82421,-2.42504 -1.92107,-3.95717c-0.29058,-4.5964 -0.48539,-17.7454 0.42903,-29.08773c0.03052,-0.37855 0.0618,-0.59022 0.11552,-0.96634c0.16114,-1.12833 0.98248,-5.50899 0.98248,-5.50899c0,0 3.2803,-1.67545 5.06442,-2.15754c5.35238,-1.44628 18.98349,-0.02168 33.33229,0.32668c1.30054,0.03158 3.53803,1.70228 3.53803,1.70228c0,0 1.60462,3.13006 1.56461,5.1132c-0.25865,12.82137 -0.59347,27.0064 -0.88873,30.25046c-0.09841,1.08135 -1.97226,5.27984 -1.97226,5.27984z" fill="#582600" stroke="#000000" stroke-width="2.5" stroke-linecap="round"/><g><g data-paper-data="{&quot;index&quot;:null}"><path d="M288.2459,166.41592c2.15842,-0.77958 4.80739,-5.76123 5.55388,-3.81713c0.38023,0.99026 6.96376,19.20931 6.66622,20.33376c-0.28662,1.08305 -0.95361,1.94159 -2.01258,2.32408c-0.7205,0.26021 -1.95851,0.32281 -2.84382,0.04783c-1.76691,-0.5488 -13.09078,-16.92386 -13.58809,-18.21903c-0.74648,-1.94412 4.066,0.11006 6.22441,-0.66952z" fill="#e99b00" stroke="#000000" stroke-width="1.5" stroke-linecap="butt"/><g stroke-linecap="butt"><path d="M285.81056,160.00101c3.91053,-1.41241 7.86016,-0.52731 8.82171,1.97693c0.96158,2.50423 -1.42901,5.67929 -5.33954,7.09172c-3.91053,1.41241 -7.86017,0.5273 -8.82173,-1.97693c-0.96158,-2.50423 1.42903,-5.67929 5.33955,-7.0917z" fill="#ffb727" stroke="#000000" stroke-width="1.5"/><path d="M285.81418,168.89456c0,0 -1.59594,0.19844 -3.08539,-0.49052c-0.70538,-0.3388 -1.94647,-1.7061 -1.94647,-1.7061l3.71449,0.22978z" fill="#ffd683" stroke="none" stroke-width="0"/><path d="M289.11679,168.31008l-1.72654,0.57257c0,0 -0.48791,-0.55253 -0.65089,-0.90556c-0.1392,-0.3015 -0.37773,-1.21606 -0.37773,-1.21606l1.52384,-0.25106z" fill="#ffd683" stroke="none" stroke-width="0"/></g><g><path d="M288.05432,165.53919c-5.3947,1.94844 -12.26212,0.31154 -14.27111,-4.92048c-2.009,-5.23207 0.38864,-10.31705 5.7833,-12.26548c5.3947,-1.94844 11.67298,0.6136 13.68198,5.84564c2.009,5.23207 0.20049,9.39188 -5.19415,11.34032z" fill="#e99b00" stroke="#000000" stroke-width="1.5" stroke-linecap="butt"/><path d="M278.01295,149.68421c0,0 1.78894,0.76268 4.195,2.03667c2.40023,1.27089 4.85836,3.58018 5.73616,5.86619c1.75772,4.57765 1.01384,6.7739 -2.90573,8.18959c-1.90688,0.68873 -4.06218,0.32929 -5.75933,-0.65534c-2.38214,-1.38202 -4.71828,-3.6019 -5.71502,-6.19774c-1.75772,-4.57765 4.44893,-9.23937 4.44893,-9.23937z" fill="#ffb727" stroke="none" stroke-width="0" stroke-linecap="butt"/><path d="M292.46598,154.85438c0,0 -1.63587,4.22501 -8.01029,6.27968c-6.32262,2.03798 -10.3639,-0.58995 -10.3639,-0.58995" fill="none" stroke="#000000" stroke-width="0.8" stroke-linecap="round"/><path d="M292.96844,160.29375c0,0 -1.53405,2.611 -7.55209,3.83494c-4.17592,0.84929 -8.60334,0.16592 -8.60334,0.16592" fill="none" stroke="#000000" stroke-width="0.75" stroke-linecap="round"/><path d="M291.16686,152.42442c0,0 -1.12111,2.46233 -7.32223,4.09188c-6.44728,1.69424 -10.45191,-0.33471 -10.45191,-0.33471" fill="none" stroke="#000000" stroke-width="0.8" stroke-linecap="round"/><path d="M274.35751,152.81564c0,0 4.10667,-1.53045 8.48178,-1.95281c3.32164,-0.32069 7.81513,0.38586 7.81513,0.38586" fill="none" stroke="#000000" stroke-width="0.8" stroke-linecap="round"/><path d="M283.76277,148.23528c0,0 3.5028,1.33734 5.26403,6.55959c1.88734,5.59623 0.82132,9.28836 0.82132,9.28836" fill="none" stroke="#000000" stroke-width="0.8" stroke-linecap="round"/><path d="M287.06106,165.56322c0,0 -1.2665,-2.73081 -1.8106,-4.43692c-0.45808,-1.43646 -0.82053,-4.35404 -1.55383,-6.94271c-0.83388,-2.94366 -2.01593,-5.49213 -2.01593,-5.49213" fill="none" stroke="#000000" stroke-width="0.8" stroke-linecap="round"/><path d="M284.55667,166.3494c0,0 -3.48104,-2.84669 -5.4817,-8.54227c-1.27468,-3.62883 -0.0383,-8.69321 -0.0383,-8.69321" fill="none" stroke="#000000" stroke-width="0.8" stroke-linecap="round"/><path d="M279.27194,165.77314c0,0 -2.4112,-2.25462 -3.50221,-7.69095c-0.75761,-3.77514 0.31918,-7.43024 0.31918,-7.43024" fill="none" stroke="#000000" stroke-width="0.8" stroke-linecap="round"/><path d="M274.99222,158.91722c-0.38466,0.13894 -0.83047,-0.09738 -0.99575,-0.52786c-0.16529,-0.43044 0.01256,-0.89203 0.39721,-1.03096c0.38466,-0.13894 0.83049,0.09738 0.99576,0.52785c0.16529,0.43044 -0.01257,0.89205 -0.39721,1.03097z" fill="#ffd683" stroke="none" stroke-width="0" stroke-linecap="butt"/><path d="M274.65176,155.72686c-0.22191,0.08015 -0.4688,-0.02935 -0.55145,-0.24457c-0.08265,-0.21523 0.03026,-0.45467 0.25217,-0.53483c0.22191,-0.08015 0.46881,0.02935 0.55145,0.24457c0.08265,0.21523 -0.03025,0.45468 -0.25217,0.53483z" fill="#ffd683" stroke="none" stroke-width="0" stroke-linecap="butt"/></g></g><path d="M284.79728,169.34807c4.02916,9.06961 4.05136,10.89084 4.05136,10.89084c0.44131,1.16267 -0.76396,1.4671 -0.76396,1.4671c0,0 -2.26314,0.8673 -3.71166,1.42239c-0.95115,0.36451 -2.43722,0.93401 -2.43722,0.93401c0,0 -0.99445,0.20852 -1.22135,-0.43123c-1.36503,-3.84889 -2.88089,-7.45588 -3.37654,-9.45236c-0.16522,-0.6655 0.48627,-1.70959 0.48627,-1.70959l4.3663,-2.25462c0,0 1.73484,-1.02487 2.60678,-0.86654z" fill="#582700" stroke="#000000" stroke-width="3" stroke-linecap="round"/><path d="M296.45514,166.23228c7.8895,18.92496 8.04865,22.66615 8.04865,22.66615c0.8752,2.42039 -1.28787,2.95497 -1.28787,2.95497c0,0 -4.0422,1.61087 -6.62938,2.64192c-1.69886,0.67703 -4.35311,1.7348 -4.35311,1.7348c0,0 -1.78744,0.35351 -2.24016,-0.97711c-2.72355,-8.0053 -5.70444,-15.52534 -6.73252,-19.66192c-0.34269,-1.37886 0.76906,-3.47375 0.76906,-3.47375l7.76069,-4.3015c0,0 3.07507,-1.97409 4.66464,-1.58355z" fill="#582700" stroke="#000000" stroke-width="3" stroke-linecap="round"/></g><path d="M236.2802,113.90753l0.30157,-12.99671l45.14997,0.98543l-0.30157,12.99671z" fill="#000000" stroke="none" stroke-width="0" stroke-linecap="butt"/><path d="M271.1217,130.61808c-1.93559,1.21248 -7.54479,4.22452 -9.12048,2.20111c-2.11165,-2.71167 6.02338,-7.51099 7.48962,-7.20453c0.26388,-0.08121 0.54583,-0.12226 0.83808,-0.11588c1.42328,0.03106 2.55109,1.17525 2.51906,2.55561c0.54396,0.65963 -1.19317,2.22975 -1.72628,2.56369z" fill="#582600" stroke="none" stroke-width="0.5" stroke-linecap="butt"/><g><g data-paper-data="{&quot;index&quot;:null}"><g stroke="#000000" stroke-width="3" stroke-linecap="round"><path d="M213.58759,184.59462l16.65106,-25.65671c0,0 3.23887,-4.82561 4.45529,-4.75869c3.64925,0.20076 9.33605,3.92203 15.77295,6.52606c1.06993,0.43284 -0.83965,6.0762 -0.83965,6.0762c0,0 -3.41847,8.75386 -5.60648,14.35678c-3.33213,8.53268 -8.5381,21.86398 -8.5381,21.86398c0,0 -2.42766,6.90417 -4.32975,5.96068c0,0 -10.54757,-0.20857 -24.52862,-10.744c0.92699,-4.52393 6.96331,-13.62431 6.96331,-13.62431z" data-paper-data="{&quot;origPos&quot;:null}" fill="#582700"/><path d="M212.7806,186.55357l24.4352,11.2169l-1.52496,3.08173l-24.51216,-10.96868z" data-paper-data="{&quot;origPos&quot;:null}" fill="none"/></g><path d="M213.68443,186.4494l20.70051,-31.89191l15.04362,6.87668l0.91383,1.15621l-12.71392,34.85696z" fill="#ffcb66" stroke="#000000" stroke-width="1" stroke-linecap="round"/><path d="M211.58298,189.53708l1.05706,-2.10623l24.34329,10.92771l-1.05706,2.10623z" fill="#ffffff" stroke="none" stroke-width="0" stroke-linecap="butt"/></g><path d="M231.30315,210.55098c0,0 -2.64174,1.39206 -3.83055,1.01531c-7.91833,-2.50941 -15.58901,-4.96522 -18.48927,-6.61022c-2.65064,-1.50341 -2.8869,-3.49134 -2.8869,-3.49134c0,0 -0.59565,-1.87971 -0.30478,-2.84505c0.87263,-2.89603 3.77126,-11.04678 6.95577,-17.84972c0.10627,-0.22704 0.1747,-0.351 0.29508,-0.57166c0.36115,-0.66198 1.88696,-3.19086 1.88696,-3.19086c0,0 2.45824,-0.34273 3.69664,-0.26445c3.7152,0.23486 12.00297,3.98329 20.99167,7.21904c0.81471,0.29328 1.84491,1.79477 1.84491,1.79477c0,0 0.29485,2.26832 -0.18618,3.48301c-3.10992,7.85322 -6.58138,16.53141 -7.51351,18.47004z" data-paper-data="{&quot;index&quot;:null}" fill="#582700" stroke="#000000" stroke-width="2.5" stroke-linecap="round"/></g><path d="M259.66345,151.08169c-0.45609,0.88994 -1.34602,0.43385 -1.34602,0.43385l-1.28059,-0.65702c-1.60222,-0.6907 -2.8022,-0.90694 -4.44092,-0.91514c-0.0879,1.16905 -0.49219,2.31481 -1.31561,3.47092l-0.19814,0.21447c0,0 -0.70731,0.70691 -1.41422,-0.0004c-0.70691,-0.7073 0.0004,-1.41421 0.0004,-1.41421l-0.00053,0.01697c1.42211,-1.86193 1.08901,-3.77644 0.22744,-5.84097c0,0 -0.38093,-0.9246 0.54367,-1.30554c0.9246,-0.38094 1.30554,0.54367 1.30554,0.54367c0.32356,0.79406 0.57128,1.56346 0.71815,2.3164c2.00601,0.00594 3.49904,0.29404 5.42218,1.10251l1.34479,0.68849c0,0 0.88994,0.45608 0.43385,1.34602z" fill="#000000" stroke="none" stroke-width="0.5" stroke-linecap="butt"/><path d="M272.75621,142.5601c0,1.70428 -2.77578,3.08588 -6.19989,3.08588c-3.4241,0 -6.19989,-1.3816 -6.19989,-3.08588c0,-1.70428 2.77578,-3.08588 6.19989,-3.08588c3.4241,0 6.19989,1.3816 6.19989,3.08588z" fill="#ffffff" stroke="#000000" stroke-width="1" stroke-linecap="butt"/><path d="M286.63613,142.69685c0,1.70428 -2.77578,3.08588 -6.19989,3.08588c-3.4241,0 -6.19989,-1.3816 -6.19989,-3.08588c0,-1.70428 2.77578,-3.08588 6.19989,-3.08588c3.4241,0 6.19989,1.3816 6.19989,3.08588z" fill="#ffffff" stroke="#000000" stroke-width="1" stroke-linecap="butt"/></g></g></svg>