<svg version="1.1" xmlns="http://www.w3.org/2000/svg" xmlns:xlink="http://www.w3.org/1999/xlink" width="267.42642" height="257.0021" viewBox="0,0,267.42642,257.0021"><g transform="translate(-106.28679,-54.50196)"><g data-paper-data="{&quot;isPaintingLayer&quot;:true}" fill-rule="nonzero" stroke-linejoin="miter" stroke-miterlimit="10" stroke-dasharray="" stroke-dashoffset="0" style="mix-blend-mode: normal"><path d="M373.71321,311.1602l-267.27562,0.34386l-0.1508,-256.65825l267.27563,-0.34385z" fill="none" stroke="none" stroke-width="NaN" stroke-linecap="butt"/><g><g data-paper-data="{&quot;origRot&quot;:0}" stroke="#000000" stroke-width="3" stroke-linecap="round"><path d="M215.47073,228.33297c0,0 -25.1341,-11.93227 -24.01561,-14.71309c2.01669,-5.01401 9.51049,-15.02014 9.51049,-15.02014l5.67936,-9.0678l-2.46618,3.24038c0,0 -9.40982,-12.28841 -9.85596,-15.90566c-0.2344,-1.90039 6.78085,-8.54884 9.16964,-8.98022c5.35887,-0.96772 34.0849,20.05628 32.60412,24.32743c-4.87609,9.50521 -15.1178,29.67035 -15.1178,29.67035c0,0 -3.66356,7.71671 -5.50806,6.44874z" data-paper-data="{&quot;origPos&quot;:null}" fill="#582700"/><path d="M220.32935,219.98237l-23.30878,-14.49271" fill="none"/><path d="M222.60872,216.80044l-23.16183,-14.72983" data-paper-data="{&quot;origPos&quot;:null}" fill="none"/></g><path d="M197.16098,205.15142l1.45645,-2.31973l23.7431,14.98395l-1.45644,2.31972z" fill="#ffffff" stroke="none" stroke-width="0" stroke-linecap="butt"/><path d="M235.34008,193.11263l-12.17655,23.64857l-22.86948,-15.52845l6.87568,-10.95868l-1.48422,-1.06619l-1.86831,2.25742l-8.8296,-14.44166l0.84138,-1.19534l4.20694,-5.97672l4.70084,-1.12253l7.24423,2.80424l17.95084,12.59505l6.43511,7.92223z" fill="#66c8ff" stroke="#000000" stroke-width="0.5" stroke-linecap="round"/></g><g data-paper-data="{&quot;index&quot;:null}" stroke="#000000" stroke-linecap="round"><path d="M242.24555,163.35985c0,0 16.42335,-2.3645 16.72412,4.25354c0.81639,17.96269 -28.16538,13.39196 -28.16538,13.39196z" data-paper-data="{&quot;origPos&quot;:null}" fill="#66c8ff" stroke-width="2"/><path d="M241.55173,164.90212c0,0 11.94909,-1.12088 12.71542,0.79144c0.24168,0.60314 -15.84946,3.25521 -15.84946,3.25521z" data-paper-data="{&quot;origPos&quot;:null}" fill="#0a0a0a" stroke-width="1"/></g><g data-paper-data="{&quot;index&quot;:null,&quot;origRot&quot;:0}" stroke="#000000" stroke-linecap="round"><path d="M227.5675,260.63217c0,0 1.79974,4.11807 1.43321,6.45115c-0.28059,1.78607 -1.97577,2.74425 -3.62359,3.54696c-4.52307,2.20331 -9.60916,1.81505 -17.28944,3.42378c-2.09178,0.43816 -3.92642,-2.3374 -4.23594,-4.41684c-0.2895,-1.94489 -0.67145,-5.34314 -0.67145,-5.34314l-4.13497,-32.85755c0,0 -0.394,-4.27115 1.16503,-5.37981c3.75444,-2.66983 8.52034,-2.19176 12.99129,-3.39083c1.51515,-0.40633 2.65996,4.26071 2.65996,4.26071z" data-paper-data="{&quot;origPos&quot;:null}" fill="#ff0000" stroke-width="3"/><path d="M203.33592,265.37089l23.23292,-4.78006c0,0 1.6673,2.19926 1.98336,3.85875c0.30003,1.57532 -0.40471,4.43007 -0.40471,4.43007c0,0 -8.1071,3.00877 -11.96473,3.93879c-5.02794,1.21217 -11.53307,0.07845 -11.53307,0.07845z" data-paper-data="{&quot;origPos&quot;:null}" fill="#976e57" stroke-width="2.5"/><path d="M227.56486,260.96319c0,0 1.79974,4.11807 1.43321,6.45115c-0.28059,1.78607 -1.97576,2.74425 -3.62359,3.54697c-4.52307,2.20331 -9.60916,1.81505 -17.28944,3.42378c-2.09177,0.43814 -3.92642,-2.3374 -4.23595,-4.41685c-0.2895,-1.94489 -0.67145,-5.34314 -0.67145,-5.34314l-4.13497,-32.85754c0,0 -0.39401,-4.27114 1.16502,-5.37982c3.75444,-2.66983 8.52034,-2.19177 12.99129,-3.39083c1.51514,-0.40634 2.65993,4.26071 2.65993,4.26071c0,0 2.95994,8.52272 4.85447,13.97771c2.67391,7.69905 6.85149,19.72788 6.85149,19.72788z" data-paper-data="{&quot;origPos&quot;:null}" fill="#4b4b4b" stroke-width="1.5"/></g><g data-paper-data="{&quot;index&quot;:null,&quot;origRot&quot;:0}" stroke="#000000" stroke-linecap="round"><path d="M230.241,235.35202c0,0 -2.74092,-3.97405 -1.41501,-4.80124c3.91256,-2.44082 6.76174,-6.22514 11.29856,-7.15514c1.88393,-0.38617 4.83246,2.77587 4.83246,2.77587l21.93956,25.12729c0,0 2.29985,2.56557 3.56836,4.08539c1.35627,1.62497 2.20946,4.82664 0.47136,6.05131c-6.38169,4.49658 -9.51403,8.45306 -14.21734,10.25557c-1.71349,0.65668 -3.57585,1.24308 -5.1087,0.24435c-2.00232,-1.30458 -3.88919,-5.38484 -3.88919,-5.38484z" data-paper-data="{&quot;origPos&quot;:null}" fill="#ff0000" stroke-width="3"/><path d="M272.38042,258.15867c0,0 -3.52689,5.48933 -7.82433,8.32598c-3.29717,2.17638 -11.01968,6.04039 -11.01968,6.04039c0,0 -2.62258,-1.41013 -3.6059,-2.68877c-1.03589,-1.34697 -1.5681,-4.03905 -1.5681,-4.03905l19.23964,-13.66032z" data-paper-data="{&quot;origPos&quot;:null}" fill="#976e57" stroke-width="2.5"/><path d="M247.97194,266.77159c0,0 -6.2383,-11.13413 -10.23109,-18.26055c-2.82903,-5.04926 -7.24899,-12.93808 -7.24899,-12.93808c0,0 -2.74093,-3.97405 -1.41502,-4.8012c3.91255,-2.44082 6.76174,-6.22514 11.29856,-7.15514c1.88393,-0.38617 4.83246,2.77587 4.83246,2.77587l21.93956,25.12729c0,0 2.29985,2.56557 3.56836,4.08539c1.35627,1.62497 2.20946,4.82664 0.47137,6.05132c-6.38169,4.49658 -9.51403,8.45306 -14.21734,10.25557c-1.71349,0.65668 -3.57586,1.24307 -5.1087,0.24434c-2.00232,-1.30458 -3.88919,-5.38484 -3.88919,-5.38484z" data-paper-data="{&quot;origPos&quot;:null}" fill="#4b4b4b" stroke-width="1.5"/></g><g><g><path d="M245.5564,212.26579c0,0 1.60156,15.70084 -0.62731,16.08534c-6.68662,1.15354 -24.41753,1.12634 -39.51035,1.82978c-1.69548,0.07902 -2.1694,-14.87367 -2.1694,-14.87367l0.33337,-30.67818c0,0 0.68955,-13.58075 2.24377,-13.65319c10.05368,-0.46858 25.05085,-2.09919 31.70977,-0.76413c2.21964,0.44502 4.88768,14.74626 4.88768,14.74626z" data-paper-data="{&quot;origPos&quot;:null}" fill="#66c8ff" stroke="#000000" stroke-width="3.5" stroke-linecap="round"/><path d="M212.22764,194.2397c-1.31305,0.0612 -1.433,-2.42351 -1.433,-2.42351c-0.24877,-5.15347 -0.57749,-11.96339 -0.82627,-17.11686c0,0 -0.11994,-2.48471 1.19311,-2.5459c1.31305,-0.0612 1.43299,2.42351 1.43299,2.42351c0.24877,5.15347 0.49753,10.30692 0.74631,15.46039l0.07996,1.65647c0,0 0.11995,2.48471 -1.1931,2.5459z" fill="#ffffff" stroke="none" stroke-width="0.5" stroke-linecap="butt"/><path d="M224.73172,199.99737c-1.31305,0.0612 -1.46374,-3.06029 -1.46374,-3.06029c-0.31253,-6.4742 -0.7255,-15.02939 -1.03802,-21.5036c0,0 -0.15067,-3.12149 1.16238,-3.18269c1.31305,-0.0612 1.46373,3.06029 1.46373,3.06029c0.31253,6.4742 0.62505,12.9484 0.93757,19.42261l0.10046,2.08099c0,0 0.15068,3.12149 -1.16237,3.18269z" fill="#ffffff" stroke="none" stroke-width="0.5" stroke-linecap="butt"/></g><g fill="none" stroke="#b9b9b9" stroke-width="3"><path d="M233.77223,174.71357c-0.90672,-1.31736 -0.03697,-2.57884 1.14749,-3.85345c1.18448,-1.27459 2.41428,-1.70425 3.14189,-0.76229c1.54271,1.99724 0.07576,3.04223 -0.85172,4.04027c-1.18449,1.27461 -2.15714,2.43593 -3.43765,0.57548z" stroke-linecap="butt"/><path d="M232.23295,176.71618l2.51137,-2.63932" stroke-linecap="round"/><path d="M228.65807,177.51284c1.18448,-1.27459 2.41428,-1.70425 3.14189,-0.76229c1.54271,1.99724 0.07576,3.04223 -0.85172,4.04027c-1.18448,1.2746 -2.15713,2.43593 -3.43764,0.57548c-0.90672,-1.31736 -0.03698,-2.57884 1.14748,-3.85346z" stroke-linecap="butt"/><path d="M225.97127,183.36891l2.51137,-2.63934" stroke-linecap="round"/><path d="M220.23409,183.18351c0.32845,-1.65223 1.6961,-1.56118 3.26321,-1.17488c1.5671,0.38631 2.59861,1.31607 2.41178,2.57379c-0.39614,2.66671 -1.9814,1.87261 -3.20849,1.57013c-1.5671,-0.3863 -2.93037,-0.63566 -2.46649,-2.96903z" stroke-linecap="butt"/><path d="M221.24741,183.74268l-3.28056,-0.85639" stroke-linecap="round"/><path d="M212.70417,179.1538c0.8443,-1.35755 2.0765,-0.62699 3.39605,0.46831c1.31956,1.0953 1.96686,2.43484 1.38249,3.49814c-1.23904,2.2545 -2.44176,0.77716 -3.47503,-0.08049c-1.31955,-1.09531 -2.49584,-1.96876 -1.3035,-3.88595z" stroke-linecap="butt"/><path d="M210.70936,177.80875l2.7467,2.33658" stroke-linecap="round"/><path d="M205.79745,173.34419c0.8443,-1.35753 2.07651,-0.62699 3.39605,0.46831c1.31956,1.0953 1.96686,2.43484 1.38249,3.49814c-1.23904,2.25449 -2.44176,0.77716 -3.47502,-0.08049c-1.31955,-1.0953 -2.49584,-1.96875 -1.3035,-3.88595z" stroke-linecap="butt"/><path d="M206.54938,174.33572l-2.74672,-2.33658" stroke-linecap="round"/></g></g><g fill="none" stroke="#b9b9b9" stroke-width="3"><path d="M229.82142,174.76949c-0.63693,-1.32993 -0.06498,-2.57754 0.7208,-3.83356c0.78579,-1.256 1.61545,-1.66702 2.12479,-0.71488c1.07993,2.01881 0.0985,3.04117 -0.51679,4.02466c-0.7858,1.25602 -1.42928,2.40201 -2.3288,0.5238z" stroke-linecap="butt"/><path d="M228.80558,176.74771l1.66704,-2.59997" stroke-linecap="round"/><path d="M226.38691,177.49047c0.78579,-1.256 1.61545,-1.66702 2.12479,-0.71488c1.07993,2.01881 0.0985,3.04117 -0.51679,4.02466c-0.78579,1.25601 -1.42928,2.40201 -2.3288,0.5238c-0.63693,-1.32993 -0.06499,-2.57754 0.72079,-3.83357z" stroke-linecap="butt"/><path d="M224.65025,183.30226l1.66703,-2.59999" stroke-linecap="round"/><path d="M220.74597,183.03144c0.19784,-1.64614 1.12928,-1.53476 2.20092,-1.12537c1.07164,0.4094 1.78745,1.35388 1.67982,2.6079c-0.22821,2.65888 -1.31849,1.84171 -2.1576,1.52115c-1.07164,-0.40939 -2.00254,-0.6789 -1.72313,-3.00367z" stroke-linecap="butt"/><path d="M221.44369,183.60532l-2.24409,-0.9047" stroke-linecap="round"/><path d="M215.56319,178.89233c0.55317,-1.34398 1.40238,-0.59557 2.31662,0.51862c0.91425,1.11419 1.37512,2.46242 0.99416,3.51624c-0.80776,2.23439 -1.64845,0.74019 -2.36435,-0.13226c-0.91424,-1.1142 -1.72765,-2.00456 -0.94644,-3.90259z" stroke-linecap="butt"/><path d="M214.1859,177.51851l1.90393,2.37586" stroke-linecap="round"/><path d="M210.77672,172.98389c0.55317,-1.34396 1.40239,-0.59557 2.31663,0.51862c0.91425,1.11419 1.37512,2.46242 0.99415,3.51624c-0.80776,2.23438 -1.64845,0.74019 -2.36435,-0.13226c-0.91424,-1.11419 -1.72765,-2.00455 -0.94644,-3.90259z" stroke-linecap="butt"/><path d="M209.39943,171.61008l1.90394,2.37586" stroke-linecap="round"/></g><path d="M198.59559,165.79317c-0.62302,-3.19863 -2.40819,-17.27851 -3.97853,-30.00918c-0.2429,-1.96912 1.01145,-5.2402 1.01145,-5.2402c0,0 2.02564,-1.88112 3.29951,-2.03977c14.05457,-1.75051 27.29389,-4.50156 32.69833,-3.58635c1.80148,0.30506 5.19471,1.65101 5.19471,1.65101c0,0 1.25629,4.27795 1.53038,5.38475c0.09136,0.36894 0.14382,0.57646 0.21266,0.95009c2.06248,11.195 3.22119,24.29599 3.40774,28.89737c0.06219,1.53379 -1.48019,4.12493 -1.48019,4.12493c0,0 -1.06762,2.87431 -5.41364,4.20684c-4.7553,1.45804 -16.63692,2.49783 -28.89275,3.53302c-1.84002,0.15541 -5.1109,-2.81261 -5.1109,-2.81261z" fill="#582700" stroke="#000000" stroke-width="2.5" stroke-linecap="round"/><path d="M232.01041,157.24878c-0.51563,0.06142 -1.27559,-2.66123 -1.69744,-6.08116c-0.42186,-3.41992 -0.34585,-6.24212 0.16979,-6.30351c0.51563,-0.06142 1.27561,2.66121 1.69745,6.08115c0.42186,3.41992 0.34584,6.24213 -0.1698,6.30353z" fill="none" stroke="#000000" stroke-width="2.5" stroke-linecap="butt"/><path d="M239.08595,128.57567l-0.78583,-0.43275c-0.09411,-0.01953 -0.18811,-0.03858 -0.28202,-0.05715c-0.18502,0.33585 -0.57513,0.74818 -1.3478,0.5957c-0.71214,-0.14053 -0.936,-0.60037 -0.99701,-0.96907c-2.73651,-0.33495 -5.43343,-0.3303 -8.25433,-0.24052c-7.86643,0.51515 -15.67598,1.62894 -23.499,2.58358c-2.5656,0.31307 -8.17991,2.02803 -10.53419,0.61548c-1.14818,-0.68889 -0.98149,-2.65445 -1.21502,-3.68717c-0.67669,-2.99257 -1.44583,-6.08255 -1.8422,-9.12539c-0.49102,-3.98059 -2.45424,-7.3494 -3.45707,-11.19005c-0.50275,-1.92545 -1.42535,-3.81024 0.14323,-5.71827c0.44289,-0.53874 1.36112,-0.36782 2.05515,-0.48855c2.53644,-0.44119 5.02861,-0.57036 7.5908,-0.58245c8.11957,-0.0383 16.09632,-0.48511 24.22199,-0.03514c3.27835,0.18531 6.51851,-0.13975 9.78864,-0.42794c1.92192,-0.16938 3.60034,-0.91859 5.01565,1.09159c0.8452,1.20044 0.84057,5.23573 0.97131,6.71315c0.50411,5.69697 2.29022,12.54916 1.79616,18.40171c0.12315,0.02396 0.24647,0.04866 0.36992,0.07413l1.40128,0.64394c0,0 1.13737,0.55992 0.56756,1.6775c-0.56983,1.11758 -1.70719,0.55769 -1.70719,0.55769z" data-paper-data="{&quot;index&quot;:null}" fill="#000000" stroke="none" stroke-width="0.5" stroke-linecap="butt"/><path d="M237.65542,147.01202c-0.41149,0.91461 -1.34229,0.51027 -1.34229,0.51027l-1.01863,-0.44829c-0.89305,-0.50167 -2.60805,-1.14196 -3.90428,-1.90144c-0.61619,-0.2188 -1.2583,-0.47604 -1.98051,-0.7587l-1.01337,-0.38716c-0.37428,-0.13359 -0.64936,-0.47765 -0.6694,-0.89292c-0.02663,-0.55166 0.40692,-1.02009 0.96834,-1.04626c0.12073,-0.00563 0.23754,0.00965 0.3468,0.0426l0.30671,0.08483c0.07877,0.01929 0.15758,0.03839 0.23641,0.0573c0.05656,0.00214 0.11204,0.00886 0.16602,0.0198l1.11387,0.20163l-0.00411,0.02193l0.05425,-0.01156c1.18805,0.33858 2.70107,0.32976 3.49425,0.98569c0.20755,0.06767 0.41422,0.13881 0.61989,0.21402l0.00477,-0.00966l0.10636,0.05074c0.03036,0.01134 0.06071,0.02278 0.09102,0.03431l0.01253,0.01508l0.02445,0.01167l0.00399,-0.00792l1.02513,0.49869c0.32969,0.15275 0.56477,0.47497 0.58324,0.85767c0.00683,0.14149 -0.01661,0.2775 -0.06472,0.40198l0.31996,0.13675c0,0 0.9308,0.40433 0.5193,1.31894z" fill="#582700" stroke="none" stroke-width="0.5" stroke-linecap="butt"/><path d="M225.44296,158.38914c-0.51563,0.06142 -1.27559,-2.66123 -1.69744,-6.08116c-0.42186,-3.41992 -0.34585,-6.24212 0.16979,-6.30351c0.51563,-0.06142 1.27561,2.66121 1.69745,6.08115c0.42186,3.41992 0.34584,6.24213 -0.1698,6.30353z" fill="none" stroke="#000000" stroke-width="2.5" stroke-linecap="butt"/><path d="M220.30036,147.52583l0.17776,-0.12819c-0.03635,-0.09494 -0.05907,-0.20056 -0.06446,-0.31242c-0.0146,-0.30256 0.10128,-0.57138 0.28367,-0.71279l0.56555,-0.4584l0.00286,0.00598l0.0135,-0.01075l0.00632,-0.01268c0.01694,-0.01102 0.0339,-0.02197 0.05087,-0.03286l0.05874,-0.04677l0.00343,0.00731c0.11511,-0.0724 0.23108,-0.14167 0.34779,-0.20826c0.41965,-0.56736 1.30377,-0.65736 1.97507,-1.0001l0.03244,0.00563l-0.00386,-0.017l0.63707,-0.23015c0.0308,-0.01208 0.06274,-0.02092 0.09563,-0.02623c0.04477,-0.01995 0.08953,-0.04002 0.13424,-0.06027l0.17348,-0.08645c0.06162,-0.03295 0.12882,-0.05247 0.19969,-0.05577c0.32958,-0.01536 0.61384,0.32576 0.63489,0.7619c0.01585,0.32832 -0.12196,0.61689 -0.33166,0.74607l-0.56607,0.36981c-0.40299,0.26886 -0.76087,0.51258 -1.10618,0.72436c-0.70654,0.68114 -1.66553,1.29525 -2.15375,1.74753l-0.56508,0.4183c0,0 -0.51672,0.37805 -0.81769,-0.31586c-0.30099,-0.69391 0.21573,-1.07196 0.21573,-1.07196z" data-paper-data="{&quot;index&quot;:null}" fill="#582700" stroke="none" stroke-width="0.5" stroke-linecap="butt"/><g><g><g data-paper-data="{&quot;index&quot;:null}"><g stroke="#000000" stroke-width="3" stroke-linecap="round"><path d="M262.50568,197.01594c0,0 6.23747,8.82114 7.34348,13.29879c-12.94928,11.14782 -23.08513,11.82679 -23.08513,11.82679c-1.78494,1.02734 -4.44719,-5.761 -4.44719,-5.761c0,0 -5.63922,-13.08451 -9.24862,-21.45923c-2.37007,-5.49919 -6.07302,-14.09101 -6.07302,-14.09101c0,0 -2.10419,-5.55202 -1.09552,-6.03213c6.0683,-2.88842 11.36214,-6.85939 14.86286,-7.22275c1.16691,-0.12112 4.51098,4.55472 4.51098,4.55472l17.23216,24.88583z" data-paper-data="{&quot;origPos&quot;:null}" fill="#582700"/><path d="M265.07338,202.1916l-23.05864,12.05049l-1.61286,-3.01033l22.97286,-12.29501z" data-paper-data="{&quot;origPos&quot;:null}" fill="none"/></g><path d="M239.98961,210.92739l-13.88089,-34.25174l0.82424,-1.19573l14.14469,-7.54044l21.42273,30.93355z" fill="#66c8ff" stroke="#000000" stroke-width="1" stroke-linecap="round"/><path d="M241.76992,213.86562l-1.11656,-2.05677l22.89814,-12.00203l1.11656,2.05677z" fill="#ffffff" stroke="none" stroke-width="0" stroke-linecap="butt"/></g><g fill="#fffc96" stroke="#000000" stroke-width="2" stroke-linecap="round"><path d="M259.18336,193.251c0,0 4.34804,-0.98095 5.27003,1.82046c1.47514,4.48214 -31.67955,9.84169 -33.50364,5.26163c-0.74528,-1.8713 2.24332,-3.07142 2.24332,-3.07142l0.9003,1.64939c0,0 6.44589,0.3373 14.20786,-0.74371c7.65443,-1.06602 12.40778,-3.10385 12.40778,-3.10385z"/><path d="M254.27784,186.10767c0,0 2.11009,-3.19418 3.73299,-1.50616c3.4067,3.54341 -18.1793,31.48347 -20.55796,27.48167c-1.44058,-2.42359 1.35566,-4.55666 1.35566,-4.55666l0.69838,1.19376c0,0 4.01606,-3.57596 8.78531,-9.97832c4.76925,-6.40234 6.78017,-11.5883 6.78017,-11.5883z" data-paper-data="{&quot;index&quot;:null}"/></g></g><path d="M244.19811,221.2293c-0.98845,-1.89493 -4.73878,-10.40879 -8.10227,-18.1147c-0.52026,-1.19191 -0.34411,-3.47091 -0.34411,-3.47091c0,0 0.91981,-1.54583 1.68959,-1.87514c8.49295,-3.63331 16.28739,-7.74748 19.84992,-8.14785c1.1875,-0.13346 3.56834,0.09922 3.56834,0.09922c0,0 1.58748,2.45804 1.96624,3.10319c0.12625,0.21505 0.19793,0.33582 0.31092,0.55787c3.38547,6.65344 6.55981,14.66599 7.53639,17.51994c0.32553,0.95131 -0.15837,2.85555 -0.15837,2.85555c0,0 -0.13307,1.99632 -2.61151,3.61636c-2.71184,1.77262 -9.97392,4.56803 -17.47169,7.42803c-1.12568,0.42938 -3.73271,-0.84329 -3.73271,-0.84329z" fill="#582700" stroke="#000000" stroke-width="2.5" stroke-linecap="round"/></g><g data-paper-data="{&quot;index&quot;:null}" stroke="#000000" stroke-width="1" stroke-linecap="butt"><path d="M215.46271,169.7148c-7.87703,1.69434 -7.24198,-6.57106 -7.24198,-6.57106l11.09657,-2.28591c0,0 3.58548,7.25661 -3.85458,8.85696z" fill="#000000"/><path d="M215.89938,167.24989c1.75824,-0.94286 4.13459,-1.3045 4.04402,-1.0132c-0.46627,1.49939 -1.70766,2.88163 -4.48069,3.4781c-0.92525,0.19902 -1.73306,0.26062 -2.43825,0.21434c-0.34127,-0.0224 0.96024,-1.65248 2.87493,-2.67924z" fill="#ff8484"/><path d="M220.00282,163.41085c0.00842,0.03454 -9.91461,2.11906 -9.91461,2.11906l-0.5232,-2.66309l9.75228,-2.00898c0,0 0.43033,1.50494 0.68553,2.55301z" fill="#ffffff"/></g><path d="M176.74005,137.60417v10.28033h-13.6145v-10.28033z" data-paper-data="{&quot;index&quot;:null}" fill="#582700" stroke="none" stroke-width="0" stroke-linecap="butt"/><path d="M190.35455,130.10231v5.83478h-7.50186v-5.83478z" data-paper-data="{&quot;index&quot;:null}" fill="#582700" stroke="none" stroke-width="0" stroke-linecap="butt"/></g></g></svg>