<svg version="1.1" xmlns="http://www.w3.org/2000/svg" xmlns:xlink="http://www.w3.org/1999/xlink" width="234" height="234" viewBox="0,0,234,234"><g transform="translate(-123,-63)"><g data-paper-data="{&quot;isPaintingLayer&quot;:true}" fill-rule="nonzero" stroke-linejoin="miter" stroke-miterlimit="10" stroke-dasharray="" stroke-dashoffset="0" style="mix-blend-mode: normal"><g data-paper-data="{&quot;index&quot;:null}" stroke="#000000" stroke-width="3" stroke-linecap="butt"><path d="M272.84359,204.68482c0,0 -0.0395,11.29317 -8.2533,12.10392c-3.80945,0.37602 -21.10876,-2.07482 -24.78865,-7.49056c-8.01505,-11.79585 -6.49666,-20.82349 -6.49666,-20.82349c0,0 3.47031,-3.66757 6.01017,-3.7832c7.28961,-0.33185 9.01526,3.91114 9.01526,3.91114c0,0 0.70811,2.0001 1.54986,3.14525c0.92843,1.26308 3.78616,4.11418 3.78616,4.11418c0,0 15.47269,-1.68243 16.128,-0.54302c0.29199,0.50769 3.04915,9.36579 3.04915,9.36579z" fill="#db93e6"/><path d="M291.56563,200.22461c8.06532,4.1111 6.53319,14.13035 5.37443,15.30106c-3.62822,3.66562 -18.2862,7.0068 -18.2862,7.0068c-2.94317,0.37305 -10.40559,1.05563 -12.69856,0.62662c-3.61259,-0.67592 -3.92627,-5.25938 -4.36556,-9.88344c-0.72511,-7.63259 1.25461,-12.47931 8.8872,-13.20442c0,0 15.96804,-2.45675 21.08869,0.15338z" fill="#f89587"/></g><g data-paper-data="{&quot;index&quot;:null}"><g><g><g stroke-linecap="butt"><path d="M340.24827,177.20724c0.84151,11.78527 -5.22185,15.97529 -16.98416,17.09273c-10.92586,1.03797 -20.25385,-4.10057 -20.94384,-15.05391c-0.81022,-12.86187 4.07333,-22.86477 15.83564,-23.98221c9.76357,-0.92755 17.04123,3.10704 20.33776,11.91013c1.03578,2.76594 1.49982,6.46487 1.75461,10.03325z" fill="#485e84" stroke="#000000" stroke-width="3"/><path d="M303.63399,173.43581c0,0 1.08692,0.94159 5.18548,2.09745c2.67126,0.75334 5.67817,2.21261 10.43126,1.76106c5.85737,-0.55646 10.9554,-1.20946 14.43513,-1.99484c3.67642,-0.82978 4.98899,-3.09229 4.98899,-3.09229c0,0 5.33991,18.6239 -10.7269,20.69819c-5.03555,0.65012 -14.9437,-0.19414 -20.09099,-4.04714c-2.72315,-2.03841 -3.40888,-6.22499 -3.97027,-8.42532c-1.08443,-4.25034 -0.25272,-6.9971 -0.25272,-6.9971z" fill="#343545" stroke="none" stroke-width="0"/></g><g fill="none" stroke="#000000" stroke-width="2" stroke-linecap="round"><path d="M307.28237,178.60997c0,0 -1.21146,-3.78532 -1.49451,-6.19792c-0.4328,-3.68896 1.25703,-8.43538 1.25703,-8.43538"/><path d="M303.29584,178.24769c0,0 5.4876,-7.03941 13.1175,-5.24332c15.20707,3.57976 13.96183,19.87902 13.96183,19.87902"/><path d="M317.98667,181.21585c0,0 2.01743,-8.79846 3.77793,-12.72799c2.34114,-5.22557 6.66437,-10.82418 6.66437,-10.82418"/><path d="M333.0369,159.36667c0,0 1.61898,7.67582 -3.37395,16.35827c-3.00357,5.22305 -8.40127,7.89689 -8.40127,7.89689"/><path d="M312.36486,178.37414c0,0 -1.35426,-5.79129 -0.00156,-10.14272c2.33293,-7.50471 9.17702,-12.87742 9.17702,-12.87742"/><path d="M338.15972,169.0897c0,0 -0.33174,6.97812 -5.89756,12.79327c-2.56659,2.68156 -8.45215,4.29619 -8.45215,4.29619"/><path d="M340.11977,178.45449c0,0 -2.1808,5.19385 -6.26982,8.52675c-2.31226,1.8847 -8.75065,2.36889 -8.75065,2.36889"/><path d="M316.39178,155.76078c0,0 5.38825,1.10219 10.92145,4.4791c5.36447,3.27394 12.7768,12.7009 12.7768,12.7009"/><path d="M306.96741,163.16068c0,0 8.6398,-2.71498 16.83419,2.02117c11.7739,6.805 14.61441,21.33878 14.61441,21.33878"/></g></g><g stroke-linecap="butt"><path d="M323.74885,198.53542c0,0 -9.56979,-4.47544 -13.43323,-6.94266c-2.96916,-1.89613 -7.77907,-6.6037 -7.77907,-6.6037l1.08894,-4.13793c0,0 5.43074,-2.60884 9.92128,-1.06805c8.39174,2.87936 12.27471,11.96853 12.27471,11.96853c0,0 0.43363,3.92282 0.0653,5.12839c-0.31375,1.02692 -2.13794,1.65541 -2.13794,1.65541z" fill="#485e84" stroke="#000000" stroke-width="2"/><path d="M313.82785,184.30125l1.48441,-2.48028c0,0 0.61916,0.21285 0.96384,0.37149c0.39254,0.18067 1.35628,0.79872 1.35628,0.79872l-1.11321,2.84323z" fill="#8fbbbe" stroke="none" stroke-width="0"/><path d="M318.12309,186.9202l1.79047,-1.86475c0,0 2.20353,2.28625 2.97386,3.41046c0.6174,0.90105 1.29164,2.81463 1.29164,2.81463l-1.59886,1.70895z" fill="#8fbbbe" stroke="none" stroke-width="0"/><path d="M304.37293,183.88175c0,0 0.87169,-0.42241 2.62798,-0.82625c1.69,-0.3886 4.20546,-0.79443 7.23152,0.93323c2.33729,1.33442 4.84598,2.68194 6.35134,4.58168c3.08809,3.89713 3.8899,8.46927 3.8899,8.46927c0,0 -0.39486,1.34755 -1.0332,0.89125c-0.76243,-0.54503 -3.23557,-3.94276 -3.23557,-3.94276c0,0 0.0264,-3.72196 -5.24044,-6.04533c-2.30064,-1.01489 -6.86382,-1.99718 -9.163,-2.83677c-1.5896,-0.58047 -1.42854,-1.22433 -1.42854,-1.22433z" fill="#000000" stroke="none" stroke-width="0"/></g></g><g stroke-linecap="butt"><path d="M304.01287,188.18757c0.12148,0.11791 3.98391,2.43182 3.98391,2.43182c0,0 3.75456,4.07341 -6.27257,12.28075c-6.99622,7.19777 -12.08524,4.62883 -12.08524,4.62883c0,0 -9.24612,-3.43979 -11.0711,-7.67168c-0.97153,-2.25285 -3.3952,-5.98415 -1.16491,-7.76063c1.75542,-1.39825 6.59643,-1.57833 7.57389,-2.89653c1.75633,-2.36858 -0.15959,-14.65726 8.15677,-14.53616c3.52059,0.05127 10.01907,4.46931 10.87924,13.5236z" fill="#fddfbd" stroke="#000000" stroke-width="3"/><path d="M277.95178,193.78943c0,0 1.91396,0.60004 4.95271,3.4388c5.17997,-2.05582 8.75472,-3.17729 8.75472,-3.17729c0,0 3.4183,3.0512 2.4797,4.93085c-1.06816,2.13912 -6.66479,3.15505 -9.56909,3.43096c-2.40245,0.22824 -4.36283,-1.97545 -5.44882,-4.33601c-0.94299,-2.04971 -1.1692,-4.2873 -1.1692,-4.2873z" fill="#f89587" stroke="none" stroke-width="0"/></g><g stroke-linecap="butt"><g><path d="M273.4542,218.06644c-0.40351,-4.2474 2.2413,-9.13078 10.27497,-9.0317c-0.17316,-2.8007 -1.12366,-4.52963 -0.05868,-5.97051c0.63301,-0.85643 2.25163,-2.1041 4.00928,-2.91431c1.18894,-0.54806 2.04808,-1.00359 3.53832,-1.42248c-0.7677,-4.27832 -0.34916,-6.84776 0.4654,-8.29528c1.39725,-2.48293 1.59327,-5.74679 3.72205,-6.36391c6.12171,-1.77462 15.3649,3.91214 21.91117,8.83886c2.84333,2.13989 6.50854,7.4253 7.50675,9.12681c0.83217,1.41849 0.56487,4.47279 0.85054,7.47976c0.81621,8.59157 -2.29867,7.67697 -5.36586,8.27968c-2.44458,0.48037 -5.59028,-0.95262 -6.18295,0.05826c-1.22705,2.09293 -3.08062,7.63776 -5.71147,8.17742c-2.00533,0.41135 -4.67187,0.23293 -5.93725,0.51587c-2.3375,0.52267 -4.71834,5.90221 -4.9077,6.09537c-1.88111,1.91881 -4.79801,1.67833 -7.82931,1.22804c-10.14121,-1.50645 -15.51985,-7.74518 -16.28525,-15.80185z" fill="#fddfbd" stroke="#000000" stroke-width="3"/><path d="M279.602,211.1594c0,0 -2.4717,4.47944 -1.10566,6.3572c1.48376,2.03959 4.36255,3.99121 7.67183,4.84116c2.65014,2.98353 7.39617,6.48011 6.84875,3.61482c-0.42961,-2.24861 -1.68508,-8.55133 -0.44175,-8.06895c0.58612,0.2274 2.30074,2.29088 2.30074,2.29088c0,0 3.66359,0.29531 4.58445,0.46443c2.65428,0.48746 5.42537,-3.5864 5.32105,-3.82332c1.3267,-0.67193 -5.29258,-13.42544 -5.29258,-13.42544l6.71576,3.83988c0,0 4.82209,1.21815 6.90155,1.93816c3.17936,1.10085 5.6581,2.48254 7.18664,2.38256c2.2713,-0.14857 3.39533,-8.54068 3.39533,-8.54068c0,0 1.67919,12.44713 0.01775,12.86559c-1.79677,0.45255 -6.48878,1.25674 -9.71161,0.65731c-2.39776,0.65977 -3.34206,7.63441 -6.12866,8.41223c-3.03408,0.8469 -2.63807,0.18806 -5.26582,0.54672c-0.41648,0.51602 -3.0272,1.81088 -3.52549,2.39624c-2.1023,2.46963 -2.66808,4.42559 -3.57753,4.53356c-9.89607,1.17483 -15.29067,-3.31961 -18.4167,-7.02261c-2.41579,-2.86167 -3.23394,-10.05113 -1.35444,-12.28508c1.31454,-1.56245 3.87636,-1.97467 3.87636,-1.97467z" fill="#f89587" stroke="none" stroke-width="0"/></g><path d="M294.74376,220.34883c-4.08279,-3.86212 -13.83635,-11.43549 -13.83635,-11.43549c0,0 1.24313,-1.40681 2.6871,-1.08302c0.95955,0.21517 0.83749,0.86946 1.05903,1.65267c5.48402,4.61739 9.43964,8.41137 10.09022,10.86585z" fill="#000000" stroke="none" stroke-width="0"/><path d="M291.54698,197.49743c0,0 10.9923,5.40398 14.86029,9.8727c-8.38289,-4.55273 -15.34847,-7.29831 -15.34847,-7.29831z" fill="#000000" stroke="none" stroke-width="0"/></g></g><g data-paper-data="{&quot;index&quot;:null}" stroke-linecap="butt"><path d="M282.54585,225.76519c0,0 0.21347,3.6302 -10.78811,6.59939c-16.74388,4.51897 -48.38834,9.05301 -59.05933,9.10508c-5.16634,0.02521 -10.84078,-3.27546 -15.51379,-5.29407c-10.38262,-4.48498 -11.8208,-9.20459 -11.8208,-9.20459c0,0 -1.50506,-4.87861 -0.56565,-6.96327c0.76261,-1.69235 5.54825,-0.98576 5.54825,-0.98576c0,0 42.68081,-6.91619 69.47815,-8.02839c1.15373,-0.04788 1.764,4.26323 2.83517,4.2075c5.9317,-4.79397 14.66291,-5.86109 14.837,-5.71247c4.28863,3.6612 5.04913,16.27656 5.04913,16.27656z" fill="#0066cc" stroke="#000000" stroke-width="3"/><path d="M209.30192,217.08536c0,-1.81384 -1.45894,-8.70817 -1.45894,-8.70817c0,0 11.78702,-0.45478 26.04069,-0.45478c11.79849,0 20.55722,-3.66347 20.55722,-3.66347c0,0 5.77549,8.61761 6.18229,9.11126c0.92521,1.12276 0.57908,2.89566 0.57908,2.89566c0,0 -1.52143,4.78479 -2.5391,7.21815c-1.24535,2.97776 -5.01993,11.23494 -5.01993,11.23494c0,0 -0.76097,1.54262 -1.84753,0.3667c-1.97689,-2.13946 -5.03159,-7.94764 -6.54221,-10.68213c-0.92325,-0.08116 -1.75125,-0.18463 -2.7212,-0.11717c-2.89458,0.20132 -6.00755,1.23358 -9.40107,1.30784c-4.24279,0.09286 -8.07941,0.10186 -11.37324,-0.53765c-7.71818,-1.49851 -12.45608,-4.98056 -12.45608,-7.97118z" fill="#0f1b82" stroke="none" stroke-width="0"/><path d="M239.73488,226.33497c0,0 4.5451,-3.753 5.47651,-4.52307c1.07694,-0.89041 4.07723,-2.87987 4.07723,-2.87987c0,0 -1.03953,2.38186 -3.8116,5.72493c-2.97233,3.58459 -5.74214,1.678 -5.74214,1.678z" fill="#000000" stroke="none" stroke-width="0"/></g><g data-paper-data="{&quot;index&quot;:null}" stroke-linecap="butt"><g><path d="M264.93257,202.86603c0,0 -0.81368,11.38223 -18.805,14.20337c-17.38474,2.72601 -27.25943,0.70319 -32.69377,-0.85558c-2.96498,-0.85046 -7.80041,-1.35482 -7.80041,-1.35482c0,0 -1.77967,-8.38587 -2.27418,-16.91096c-0.45749,-7.88686 0.3699,-15.81388 0.31029,-19.2163c-0.18402,-10.50263 3.93635,-8.2903 3.93635,-8.2903l31.48281,6.36652c0,0 -0.22634,2.99061 -1.05238,8.35193c8.43348,4.72557 26.67386,13.82537 26.89628,17.70612z" fill="#feebf7" stroke="#000000" stroke-width="3"/><path d="M243.40938,195.87369l0.49389,0.57447c0.05005,0.05751 0.09152,0.12264 0.12243,0.19341c0.48524,0.56644 0.9574,1.15753 1.41982,1.77225c3.84199,6.14741 0.51245,10.95173 -6.42697,11.60145c-7.77401,0.6982 -11.48846,-2.01132 -16.43978,-6.94779c-2.59323,-3.0277 -8.36323,-10.27577 -2.20288,-13.20431c0.73693,-0.35033 2.14859,-0.45845 2.93833,-0.63337c3.41092,-0.66625 7.7044,-0.6199 10.94815,0.79709c1.26904,0.55437 2.63639,1.2943 3.83111,2.0775c0.28529,0.17331 0.65485,0.26337 0.92994,0.44859zM236.36988,195.59899c-0.60095,1.95298 -0.90623,4.30938 -1.42183,6.02801c-0.29438,0.88049 -1.50335,3.85025 -0.68314,4.60225c1.77059,1.62333 7.86235,-0.595 8.48403,-2.72295c0,-3.81401 -3.09568,-6.13335 -6.37906,-7.90732zM233.17923,193.99502c-0.68354,-0.33548 -1.32964,-0.65954 -1.90693,-0.98244c-2.93676,-0.96123 -4.56501,-0.6535 -7.49538,0.27628c-0.59724,0.1895 -2.18106,0.34629 -2.30199,1.16988c-0.23398,1.59365 1.17254,3.53393 1.97069,4.80714c0.8934,1.43589 4.01067,5.30616 6.017,5.1026c0.33434,-0.03392 0.83366,-1.12625 0.94921,-1.34311c0.87777,-1.64727 1.05443,-3.66466 1.58942,-5.44008c0.22831,-1.13816 0.56446,-2.19907 1.03603,-3.25987l0.14198,-0.33039z" fill="#ff0000" stroke="none" stroke-width="0.5"/></g><path d="M203.66433,188.32412c0,0 0.57294,-4.71192 1.97044,-6.06497c5.75387,-5.57085 7.46162,-3.1429 7.46162,-3.1429c0,0 -3.54604,27.53241 -5.44972,34.84647c-3.68984,0 -3.98235,-25.63861 -3.98235,-25.63861z" fill="#db93e6" stroke="none" stroke-width="0"/></g><g data-paper-data="{&quot;index&quot;:null}" stroke-linecap="butt"><path d="M206.02792,217.77462c0,0 -10.87492,1.39009 -14.88154,0.61007c-2.97468,-0.57911 -6.48016,-4.35329 -6.48016,-4.35329c0,0 -0.60894,0.07572 -0.80304,-1.6751c-0.14847,-1.33935 3.01866,-2.17049 3.86703,-4.25161c1.76589,-4.33181 1.98515,-10.20786 1.98515,-10.20786c0,0 -1.68864,-7.30822 3.48316,-8.70888c6.98629,-1.89207 11.4053,2.12597 11.4053,2.12597c0,0 2.97769,9.54875 2.97769,13.94028c0,5.09753 -1.55358,12.52044 -1.55358,12.52044z" fill="#fddfbd" stroke="#000000" stroke-width="2.35"/><path d="M190.10376,204.28612c0,0 0.48552,-2.68337 0.18199,-5.62023c-0.41047,-3.97155 0.25526,-9.02997 3.83142,-9.02997c3.73508,0 7.36192,-0.38097 9.69293,2.19681c1.44904,1.60243 1.69997,7.29032 1.69997,7.29032c0,0 -2.79499,2.31111 -8.67414,4.45315c-5.39018,1.96389 -6.73218,0.70992 -6.73218,0.70992z" fill="#f89587" stroke="none" stroke-width="0"/></g><g data-paper-data="{&quot;index&quot;:null}" stroke="none" stroke-width="0" stroke-linecap="butt"><path d="M187.66371,197.77685c-0.63645,-0.23859 -2.02596,-1.31555 -2.5088,-2.29581c-1.381,-2.80371 3.92245,-7.70345 4.30213,-13.04315c0.39417,-5.5436 -2.80914,-11.75076 -1.70076,-14.26301c0.2702,-0.61241 2.79284,-1.83596 3.56819,-2.00685c8.38085,1.64578 20.84322,9.09562 20.84322,9.09562l-0.02037,5.66474c0,0 -11.87277,21.57593 -24.4836,16.84845z" fill="#feebf7"/><path d="M210.6255,184.16152c0,0 -3.11732,10.93957 -13.93646,14.30587c-4.52027,1.40645 -12.11599,-0.4791 -12.11599,-0.4791c-3.32252,-1.74889 -0.80986,-7.92935 1.7167,-13.12227c0.76476,-1.57184 1.90018,-3.15584 1.40358,-6.76633c-0.58819,-4.27634 -3.40251,-11.31036 -3.40251,-11.31036c0,0 1.21532,-2.29947 2.46653,-0.92061c0.54964,0.60571 1.30421,4.23133 1.76772,5.17334c1.66803,3.39001 2.63236,9.58058 2.24328,11.10673c-0.58498,2.29461 -4.53813,11.97435 -4.53813,11.97435c0,0 -0.3654,1.03047 0.01811,1.61665c1.29507,1.97947 5.84966,1.91371 8.28927,1.30283c5.87651,-1.47151 9.17065,-4.93287 11.75421,-7.85344c2.44213,-2.76068 4.3337,-5.02765 4.3337,-5.02765z" fill="#000000"/></g><path d="M192.70679,165.2988c0,0 2.90464,-1.12836 21.78563,2.59325c21.86645,4.31006 23.45168,10.89174 23.45168,10.89174l-1.83655,7.36532c0,0 -7.71919,-2.32023 -13.42967,-3.91658c-8.27384,-2.31292 -32.98339,-8.98171 -32.98339,-8.98171c0,0 -1.47439,-1.51984 -1.28408,-2.77802c0.18026,-1.19168 4.29638,-5.17402 4.29638,-5.17402z" data-paper-data="{&quot;index&quot;:null}" fill="#db93e6" stroke="none" stroke-width="0" stroke-linecap="butt"/><g data-paper-data="{&quot;index&quot;:null}" stroke-linecap="butt"><g><g><path d="M232.36747,247.74965c0,-5.60819 -0.62427,-16.65714 5.80469,-21.22004c1.60169,-1.13679 5.77733,-4.42743 9.39941,-0.94337c0.41216,0.39646 -0.71042,1.44658 0.03503,2.91482c0.27516,0.54198 2.09416,0.59854 2.56552,1.23605c1.489,2.01387 4.66641,3.9717 5.34499,3.89107c2.16015,-5.36704 8.80772,-11.8451 11.01253,-12.34182c3.96205,-0.89262 18.99373,2.55912 18.83341,5.58451c0.48506,2.46139 -3.29487,6.51551 -3.29487,6.51551c0,0 15.81477,8.89705 21.73791,12.43795c10.19921,6.09715 10.39209,10.9518 10.39209,10.9518c0,0 0.61679,2.42553 -3.56557,3.65014c-8.19823,2.40047 -18.36732,3.09881 -30.29841,2.77254c-11.59216,-0.317 -11.23315,-6.43536 -23.39755,-7.7817c-10.25674,-1.13521 -24.56917,1.64583 -24.56917,-7.66744z" fill="#ff2d32" stroke="#000000" stroke-width="3"/><path d="M278.41037,261.99374c-5.72389,-0.83172 -13.54243,-6.74265 -19.09426,-7.54513c-11.74935,-1.69828 -19.06359,0.33263 -22.08607,-1.72383c-0.19441,-0.13227 -4.78617,-1.86772 -4.18407,-7.55002c1.44741,-13.65993 7.43637,-15.73922 7.43637,-15.73922c0,0 6.92578,7.82577 15.04168,8.81133c1.58947,0.19301 0.48991,-2.61187 0.48991,-2.61187c0,0 -0.23153,-1.34873 0.14521,-2.2469c0.56418,-1.34508 2.91084,-5.03913 2.91084,-5.03913c0,0 0.7612,2.02003 2.89858,4.39364c2.58013,2.86527 7.51484,5.63262 12.62336,9.15335c5.67896,3.91388 15.20581,7.32872 17.48613,9.46896c2.4834,2.33083 3.26593,10.23488 3.26593,10.23488c0,0 -11.26098,1.21821 -16.93361,0.39394z" fill="#ab164a" stroke="none" stroke-width="0"/><path d="M241.71984,233.03686c0,1.41537 -0.69182,1.92207 -2.11145,1.92207c-1.41963,0 -2.11145,-0.41516 -2.11145,-1.83054c0,-1.41537 0.87543,-1.92207 2.29506,-1.92207c1.41962,0 1.92785,0.41516 1.92785,1.83054z" fill="#000000" stroke="none" stroke-width="0"/><path d="M253.01155,233.31143c0,0 1.16435,0.18306 5.14093,2.37971c3.23746,1.78837 5.32454,2.83734 5.32454,2.83734c0,0 -0.54423,1.20372 -5.78355,0.09153c-5.45365,-1.15767 -4.68193,-5.30856 -4.68193,-5.30856z" fill="#000000" stroke="none" stroke-width="0"/></g><g><path d="M264.99628,240.538c0.83422,-3.4851 3.69523,-5.57134 5.52326,-6.05538c7.74623,-2.0511 13.83396,-1.0591 13.69091,0.58085c-0.25779,2.95512 -5.87719,3.19457 -9.47343,5.77027c-1.81909,1.30288 -2.36545,2.71952 -3.44875,3.80793c-1.03419,1.03908 -2.79496,2.29735 -4.65267,0.97382c-1.65774,-1.18105 -1.99094,-3.60858 -1.63932,-5.07749z" fill="#feebf7" stroke="#000000" stroke-width="2.5"/><path d="M267.62062,238.26338c0,0 0.85035,0.13285 2.35901,0.88889c1.97874,0.99162 2.65856,2.06858 2.65856,2.06858c0,0 -0.73832,0.80823 -1.44977,1.64734c-0.91628,1.08068 -1.26002,2.5057 -2.36864,2.5057c-1.96942,0 -3.06103,-1.71194 -3.06103,-3.90134c0,-2.1894 1.86187,-3.20917 1.86187,-3.20917z" fill="#db93e6" stroke="none" stroke-width="0"/></g><g><path d="M274.51592,249.70179c-0.55365,-0.67424 0.66131,-4.98438 3.78658,-8.08672c7.42518,-7.3707 11.01358,-7.23586 12.41356,-4.80227c1.26671,2.20192 -4.24191,5.15769 -8.10409,9.04847c-3.44748,3.47299 -6.98886,5.18888 -8.09605,3.84051z" fill="#feebf7" stroke="#000000" stroke-width="2.5"/><path d="M279.9055,247.06399c0,0 -2.91306,2.70283 -4.12851,2.28216c-0.75107,-0.25995 -0.19683,-3.45956 0.12304,-3.98772c0.85574,-1.41296 2.16541,-1.87006 2.16541,-1.87006l3.46319,1.71531c0,0 -0.9404,1.29174 -1.62312,1.8603z" fill="#db93e6" stroke="none" stroke-width="0"/></g><g><path d="M296.20765,239.74168c2.95422,2.32283 -2.80426,3.41258 -6.30977,7.63897c-3.0958,3.73244 -4.11173,8.08118 -7.47607,6.23452c-2.80117,-1.53755 9.42708,-17.30068 13.78584,-13.87349z" fill="#ffffff" stroke="#000000" stroke-width="2.5"/><path d="M286.00256,247.52305l0.99775,1.71454c0,0 -1.16648,3.02331 -2.41332,4.00576c-1.03747,0.81747 -1.92472,0.02066 -1.92472,-1.03151c0,-1.755 3.34029,-4.68879 3.34029,-4.68879z" fill="#db93e6" stroke="none" stroke-width="0"/></g></g><g><path d="M285.21419,272.88662c-6.15184,0 -14.34699,-6.34961 -21.71605,-7.12565c-10.85003,-1.14263 -29.33127,-1.60386 -32.64879,-4.9297c-3.03487,-3.04247 -4.24573,-12.1687 0.24401,-12.8099c0.98431,6.08108 6.48477,6.59323 10.79555,6.69805c5.21729,0.12687 12.40345,0.00426 18.10789,1.11655c10.1023,1.96982 15.55467,7.46985 23.26288,7.46985c13.25071,0 22.22702,-1.55961 27.2498,-3.26476c2.72742,-0.92592 3.60001,-2.35278 4.93658,-2.54707c1.74956,-0.25433 3.64615,3.94437 3.64615,3.94437c0,0 0.01913,4.19449 -4.44426,6.98982c-4.67175,2.92582 -14.16091,4.45845 -29.43377,4.45845z" fill="#ffffff" stroke="#000000" stroke-width="3"/><path d="M230.81387,247.87906c0,0 -0.3853,1.65032 1.35786,3.82112c1.13554,1.41413 2.91671,3.11899 7.46678,4.20729c3.99491,0.95551 17.77986,0.14375 21.06195,1.0404c4.54078,1.24053 7.59226,3.0721 11.26423,4.68385c1.43561,0.63015 2.96607,1.52421 4.71746,1.88936c7.12772,1.48604 9.87362,1.11036 12.85604,0.96937c4.44265,-0.21003 7.12002,-0.75555 7.12002,-0.75555c0,0 0.97711,1.79354 0.44583,3.7741c-0.53128,1.98057 -2.01475,3.29638 -2.01475,3.29638c0,0 -4.49939,2.54845 -12.8187,0.17379c-4.71834,-1.34681 -5.78963,-1.67562 -14.77383,-5.67184c-4.64927,-2.06803 -27.51243,-2.33206 -31.70659,-4.05288c-1.23781,-0.50786 -3.24327,-0.59195 -3.97936,-0.99169c-2.49152,-1.35302 -1.49084,-2.64984 -2.08153,-4.62322c-1.10397,-3.68815 1.0846,-7.76047 1.0846,-7.76047z" fill="#db93e6" stroke="none" stroke-width="0"/></g></g><g data-paper-data="{&quot;index&quot;:null}" stroke-linecap="butt"><path d="M164.34987,247.47815c2.67076,-3.02473 10.62661,-7.72637 16.99211,-9.31597c-4.42349,-2.56577 -10.67396,-4.39084 -10.82653,-6.27453c-0.47863,-5.90912 1.14888,-6.30602 3.22137,-7.80828c1.72671,-1.25163 15.86201,6.63536 15.86201,6.63536c0,0 1.00174,-5.00987 5.49542,-6.10718c3.85515,-0.9414 12.12658,1.85678 17.4145,3.40029c3.49369,1.01979 7.22022,2.67135 8.58181,5.53572c0.85063,1.78947 -0.83738,6.05898 0.72913,4.84152c3.97474,-3.08905 13.62366,-3.10768 16.29062,-0.9573c2.33451,1.88233 3.51545,7.02596 2.59833,9.36008c-0.38749,0.9862 -12.13654,0.18046 -11.91995,1.21096c0.42943,2.04315 -3.06924,4.68075 -2.76049,6.35502c0.8162,4.4261 2.32681,6.89375 2.32681,6.89375c0,0 1.61291,6.47243 -1.88984,9.42255c-4.50121,3.79104 -15.51562,4.27286 -28.7762,4.27286c-23.57971,0 -43.6131,-15.82922 -33.3391,-27.46487z" fill="#ff2d32" stroke="#000000" stroke-width="2.5"/><path d="M224.06238,245.03108c0,0 1.52803,-2.41342 6.62698,-3.39794c4.56255,-0.88095 8.52041,-0.7551 8.52041,-0.7551c0,0 0.38291,1.89877 0.66899,2.82328c0.32018,1.03471 -0.32372,2.69684 -0.32372,2.69684c0,0 -3.74256,0.4714 -8.80261,0.13773c-1.75006,-0.1154 -2.54258,0.40863 -3.39752,0.40743c-1.15279,-0.00163 -2.32423,-0.51267 -2.89524,-1.0509c-0.4182,-0.39421 -0.39728,-0.86134 -0.39728,-0.86134z" fill="#ab164a" stroke="none" stroke-width="0"/><path d="M190.29588,232.86431c-0.2285,-3.20635 2.59154,-6.44622 4.78981,-7.05915c3.71042,-1.03456 13.5453,2.29912 13.5453,2.29912c0,0 0.45029,4.22336 0.68262,6.18258c0.26759,2.25656 0.35876,6.9058 0.35876,6.9058c0,0 -15.49343,0.38865 -19.00186,0.32353c-1.13945,-0.02115 -3.93181,0.82567 -3.93181,0.82567c0,0 -2.05194,-2.84351 -4.1659,-4.51019c-1.73083,-1.36461 -5.18868,-2.24779 -5.19889,-2.74155c-0.00434,-0.20984 -4.13974,-1.34452 -5.67948,-3.04874c-1.49147,-1.65079 -0.10627,-4.86462 0.7553,-4.77258c2.05329,0.21935 13.3655,7.37967 13.3655,7.37967c0,0 3.11614,-0.09268 4.48065,-1.78416z" fill="#ab164a" stroke="none" stroke-width="0"/><path d="M175.67189,234.708c0,0 -1.98187,-1.31792 -2.90991,-2.46067c-0.89945,-1.10756 -0.7543,-2.03965 -0.24579,-2.12386c2.8888,-0.47839 4.71584,2.28178 5.43231,3.96483c0.25751,0.60491 0.38321,1.83326 0.38321,1.83326c0,0 -1.27441,-1.21354 -2.65981,-1.21354z" fill="#000000" stroke="none" stroke-width="0"/><path d="M231.61806,244.1917c0.09015,-0.87557 0.83549,-0.76409 3.20078,-0.76409c2.99644,0 3.74177,0.24808 3.74177,2.47204c0,1.63626 -2.31874,0.52723 -4.22359,-0.07569c-1.60285,-0.50732 -2.86001,-0.26263 -2.71897,-1.63227z" fill="#000000" stroke="none" stroke-width="0"/><path d="M166.6091,254.38672c0.41438,1.40326 1.96198,4.07932 1.96198,4.07932c0,0 0.88269,-1.4699 1.78552,-2.62924c0.41499,-0.5329 0.33645,-1.1987 1.06546,-1.27221c4.85814,-0.48986 15.27788,2.2673 23.73406,3.17731c25.72776,2.76869 29.66363,13.02545 29.66363,13.02545c0,0 -6.46043,4.59352 -30.421,3.33502c-7.41734,-0.38958 -15.84571,-1.62513 -21.99963,-4.7111c-5.91758,-2.96744 -8.29695,-5.31629 -10.40288,-11.57771c-1.16561,-3.46565 1.01758,-7.21694 2.57768,-8.92408c0.66507,-0.72775 1.42348,-0.77508 1.42348,-0.77508c0,0 0.16994,4.77633 0.6117,6.27232z" fill="#ab164a" stroke="none" stroke-width="0"/><g><path d="M154.65689,253.08377c-0.06714,-0.54459 7.43427,-4.45039 7.43427,-4.45039c0,0 -2.04939,5.0558 0.23154,10.54001c2.62196,6.30417 10.66698,13.25958 29.1397,15.17237c10.25707,1.06209 29.45087,0.54448 35.75629,-4.9253c1.93113,-1.67521 3.14441,-4.91466 2.35151,-7.46858c-0.99708,-3.21164 -2.37947,-5.11738 -0.89898,-5.47039c2.30637,-0.54993 4.91154,5.61605 4.91154,9.05479c0,4.06692 -1.08888,7.31283 -4.0278,10.222c-6.55134,6.48504 -19.52186,7.86063 -35.83374,7.86063c-14.53891,0 -38.4051,-14.27315 -38.9634,-15.8191c-0.18036,-0.49945 0.51735,-9.70145 -0.10091,-14.71601z" fill="#ffffff" stroke="#000000" stroke-width="2.5"/><path d="M156.25137,255.7995c0,0 6.49345,20.77462 32.28785,23.84522c40.06204,4.76904 43.31622,-9.14067 43.31622,-9.14067c0,0 -0.98887,3.44974 -6.50374,6.95678c-5.17184,3.28889 -14.25816,7.24337 -35.74285,4.67439c-10.45496,-1.25011 -19.25924,-5.64223 -24.96925,-9.14222c-5.45006,-3.34066 -8.84897,-5.85691 -8.84897,-5.85691l0.46075,-11.33659z" fill="#db93e6" stroke="none" stroke-width="0"/></g><g><g><path d="M182.55567,244.34334c-0.0264,-0.53542 5.85958,-5.05625 16.6154,-4.69006c17.39526,0.59223 22.30462,11.11158 21.76354,12.3891c-1.08902,2.57121 -8.92239,-5.67404 -22.65456,-6.85851c-10.72204,-0.92484 -15.65029,0.6632 -15.72439,-0.84055z" fill="#ffffff" stroke="#000000" stroke-width="2"/><path d="M187.9599,243.7701l-1.27361,-1.38188c0,0 4.93597,-2.33318 7.69133,-2.29994c8.84511,0.10673 12.98678,1.90512 12.98678,1.90512l-2.47506,3.4547z" fill="#db93e6" stroke="none" stroke-width="0"/></g><g><path d="M177.15521,249.70163c-0.20706,-0.28507 -0.58726,-1.81963 2.97557,-2.89368c3.0075,-0.90664 9.47914,-1.40001 14.59738,-1.40001c11.18156,0 24.39009,7.15139 23.5131,11.00569c-0.495,2.17554 -10.64848,-3.99758 -21.83005,-3.99758c-11.18157,0 -18.64255,-1.86983 -19.256,-2.71441z" fill="#ffffff" stroke="#000000" stroke-width="2"/><path d="M199.91237,251.58627c0,0 -3.66498,-0.25117 -4.88597,-0.29103c-1.20462,-0.03933 -2.81944,0.22411 -2.81944,0.22411l-2.55058,-5.10594c0,0 5.17977,-0.33445 7.47705,0.01237c4.48714,0.67742 5.70874,1.10852 5.70874,1.10852l-2.92981,4.05195z" fill="#db93e6" stroke="none" stroke-width="0"/></g><path d="M173.29409,254.19275c0,-0.68435 0.29735,-2.9083 3.39294,-3.08455c3.81608,-0.21727 10.91482,1.11044 17.84311,1.11044c6.81413,0 13.81233,1.92978 17.79006,4.01063c3.34743,1.75112 4.23801,3.55163 4.23801,4.97159c0,3.10727 -11.95463,-4.73787 -24.50313,-4.73787c-12.54851,0 -18.76098,-0.05131 -18.76098,-2.27024z" fill="#ffffff" stroke="#000000" stroke-width="2"/></g></g><g data-paper-data="{&quot;index&quot;:null}" stroke="none" stroke-width="0" stroke-linecap="butt"><path d="M179.58542,223.17297c0,-4.97829 2.54694,-7.86324 5.63505,-7.85053c1.7276,0.00711 2.73716,2.771 5.71309,2.10442c3.62215,-0.81133 6.50405,-5.92543 9.67032,-6.13645c3.51301,-0.23414 8.57178,7.19977 8.57178,7.19977c0,0 -1.26812,7.29293 -3.33203,13.27222c-2.17068,6.28859 -5.32656,11.15613 -8.17529,10.90265c-3.05151,-0.27153 -18.08293,-8.33897 -18.08293,-19.49208z" fill="#0066cc"/><path d="M207.14905,226.55426c0,0 -1.37015,3.67327 -1.93779,5.66205c-1.2491,4.37633 -4.2398,10.37559 -7.89518,10.2146c-2.11517,-0.09315 -6.02573,-2.76131 -10.38422,-7.16236c-2.93363,-2.96227 -6.84547,-6.73248 -7.62528,-10.94469c-0.19983,-1.07936 1.68789,-2.53797 1.68789,-3.66789c8.45437,8.04533 12.79887,14.93247 14.20802,14.63369z" fill="#0f1b82"/><path d="M210.34986,219.8365c0,0 -6.88842,-7.57067 -9.04146,-8.0778c-0.44719,-0.10533 -7.0404,5.16125 -10.0536,6.41182c-0.52914,0.2196 -2.0407,0.29011 -3.27248,-0.26586c-1.05558,-0.47645 -1.78092,-1.50628 -2.9122,-2.24543c-0.79872,0.3392 -5.39985,7.85014 -5.39985,7.85014c0,0 10.25348,17.91436 17.19109,18.37873c1.78516,0.11949 4.51041,-2.0301 6.14217,-5.34521c1.24281,-2.52494 2.31519,-5.95005 3.29378,-8.28854c0.89365,-2.13551 1.75051,-3.30292 1.75051,-3.30292c0,0 -0.72382,4.30267 -1.96427,8.83762c-1.36991,5.00828 -5.26517,10.87783 -9.66246,9.95378c-1.02641,-0.21569 -4.84209,-1.86032 -7.48843,-4.42152c-5.65749,-5.47549 -11.42082,-14.30415 -11.49402,-16.43587c-0.03774,-1.09898 1.94508,-3.45715 2.81298,-4.70502c1.16867,-1.68031 2.48905,-3.88705 5.23001,-4.49321c1.45474,-0.32171 3.40029,2.49688 4.85261,2.09307c4.58488,-1.27481 9.05257,-7.18246 11.67871,-6.83125c2.62614,0.3512 8.33693,10.88746 8.33693,10.88746z" fill="#000000"/></g><g data-paper-data="{&quot;index&quot;:null}" stroke-linecap="butt"><g data-paper-data="{&quot;index&quot;:null}"><path d="M279.02529,183.27306c-1.941,6.78616 -15.98816,7.51288 -45.49223,3.70015c-14.41834,-1.86324 -32.10406,-10.19715 -40.39479,-16.3576c-5.43921,-4.04162 7.23996,-36.89778 13.4398,-39.63306c16.28305,-7.18388 48.02395,-8.80382 61.46391,2.51335c8.23512,6.93442 2.75387,28.18727 2.75387,28.18727c0,0 -3.35514,4.8097 -5.59652,12.52797c4.04199,0.93456 15.316,3.85243 13.82597,9.06191z" fill="#fddfbd" stroke="#000000" stroke-width="3"/><path d="M264.95992,168.59578c0,0 -20.84255,-13.02264 -24.56942,-13.04069c-0.74822,1.12119 -3.60923,14.99814 -4.06905,14.71849c-11.4867,-6.98585 -14.86144,-10.20011 -14.86144,-10.20011l-13.52119,17.42496c0,0 -5.2447,-7.29764 -7.49771,-10.88005c0.24782,-2.22058 -2.78591,5.60806 -2.78591,5.60806l-3.94197,-2.76195c0,0 -0.51414,-1.507 -0.31882,-2.76417c0.92612,-5.96078 5.07077,-22.81463 15.32913,-28.67858c11.95385,-6.83314 64.81279,4.95201 64.81279,4.95201c0,0 -2.55455,13.00838 -4.1328,17.7234c-1.81649,3.11913 -3.9646,8.36499 -3.9646,8.36499z" fill="#f89587" stroke="none" stroke-width="0"/></g><g><g><path d="M170.9932,155.50132c0,0 -7.97966,3.76764 -15.40985,5.6304c-5.15004,1.29112 -9.95573,1.04517 -11.98934,0.56433c-4.96758,-1.1746 -5.14305,-11.74215 -1.78467,-13.09534c1.97178,-0.7945 6.30987,-0.825 10.03366,-0.65299c9.28791,0.42901 20.11089,2.81 20.11089,2.81l-0.96069,4.74357z" fill="#0066cc" stroke="#000000" stroke-width="3"/><path d="M152.53355,156.1413c7.60345,-0.25339 11.08736,-2.03596 13.33281,-2.94885c2.02897,-0.82488 2.77866,-1.33572 2.77866,-1.33572l0.29072,2.97059c0,0 -10.09545,4.88187 -17.14679,5.63193c-4.14513,0.44091 -8.33708,-0.1779 -8.33708,-0.1779c0,0 -1.38875,-1.27678 -1.6974,-1.93102c-0.32687,-0.69286 -0.66418,-2.33539 -0.66418,-2.33539c0,0 2.48894,0.42475 11.44326,0.12636z" fill="#0f1b82" stroke="none" stroke-width="0"/></g><g stroke="#000000"><path d="M277.80658,145.40548c0,0 -56.39601,2.59934 -66.13998,4.82937c-12.71398,2.90976 -24.70864,5.29083 -24.70864,5.29083c0,0 -11.95364,-5.41087 -14.74526,-18.08459c-0.85464,-3.87996 9.88868,-23.17879 11.39858,-25.4087c4.56956,-6.74861 7.46591,-16.50426 19.09044,-19.91777c31.13827,-9.14366 69.51463,2.42451 76.66245,9.25926c6.28358,6.00837 -0.48643,23.27073 -0.48643,23.27073z" fill="#ff2d32" stroke-width="3"/><path d="M172.91658,135.24388c0.23034,-7.66889 23.28813,-41.02917 27.05953,-40.57554c12.79852,1.53943 12.71431,55.1488 12.71431,55.1488l-28.03853,4.9148c0,0 -11.96197,-11.94161 -11.73531,-19.48806z" fill="#ab164a" stroke-width="1.5"/></g></g><g><path d="M169.75586,141.33279c0.67891,-0.83176 9.50228,6.61151 13.79906,13.63789c2.4691,4.03763 1.00897,8.81277 0.57648,11.82663c-0.3314,2.30938 -4.82593,5.18176 -7.87765,5.3593c-4.90303,0.28524 -8.82172,-27.97676 -6.49789,-30.82383z" fill="#fddfbd" stroke="#000000" stroke-width="3"/><path d="M173.00982,163.49324c0,0 1.05407,0.4545 2.99116,-0.07029c2.45008,-0.66378 7.87887,-3.76599 7.87887,-3.76599c0,0 1.04337,3.93257 0.89974,5.044c-0.19607,1.51725 -3.91364,4.33902 -6.80125,5.53813c-1.5737,0.65349 -2.58136,0.07579 -2.76201,0.10661c-0.49398,0.08428 -2.2065,-6.85246 -2.2065,-6.85246z" fill="#f89587" stroke="none" stroke-width="0"/><path d="M175.89642,153.69335c0.08768,-0.58854 7.8913,4.47658 7.34029,5.70712c-0.71117,1.58822 -3.82396,8.96357 -5.75346,6.70109c-0.78803,-0.92401 -2.0018,-9.62245 -1.58682,-12.4082z" fill="#f89587" stroke="#000000" stroke-width="1.5"/></g><g><g data-paper-data="{&quot;index&quot;:null}"><path d="M203.49908,159.42412c-0.43874,0.25979 -5.30647,2.70699 -9.32828,5.69547c-4.08793,3.03761 -7.47982,7.19111 -7.60178,6.88131c-0.06635,-0.16854 -1.81269,-14.8668 -0.47027,-15.91354c7.41195,-5.77936 34.94123,-7.00042 34.94123,-7.00042c0,0 -9.56045,14.44812 -11.8977,16.82823c-1.81862,1.85197 -4.97567,-6.88632 -5.6432,-6.49105z" fill="#50a5eb" stroke="#000000" stroke-width="3"/><path d="M210.09793,154.68743l8.11123,-4.14771l-9.83446,14.4969z" fill="#66ffff" stroke="none" stroke-width="0"/></g><g data-paper-data="{&quot;index&quot;:null}"><path d="M294.07442,177.43337c0,0 -15.68529,-9.8484 -23.60112,-13.22284c-0.83504,-0.35598 2.49197,-2.50918 1.18146,-3.19834c-7.23585,-3.80517 -23.472,-9.49574 -31.24745,-12.27531c-0.61137,-0.21856 -2.11259,-0.73721 -2.54356,-0.33282c-2.24884,2.11019 -1.28828,10.75459 -3.32582,10.51462c-2.20363,-0.25954 -4.25122,-1.88161 -6.08952,-4.22398c-2.87517,-3.66356 -5.18575,-7.48116 -5.18575,-7.48116c0,0 8.34637,-9.2745 20.20064,-43.8929c2.9164,2.03289 8.6955,9.8175 9.67264,15.25659c0.88765,4.94101 -0.64163,8.74054 0.10012,8.16151c7.36647,-5.75052 20.42045,-9.64354 25.23058,-9.71838c8.36378,-0.13013 25.98192,38.70401 25.98192,38.70401c0,0 -13.81024,-3.80996 -22.36537,-3.55237c5.63514,4.32355 11.95515,21.25435 11.99124,25.26136z" fill="#66ffff" stroke="#000000" stroke-width="3"/><path d="M265.0144,141.80564c0,0 7.2187,8.64148 10.80489,13.35262c4.22773,5.55393 13.78766,17.62448 13.78766,17.62448l-17.31325,-9.28642c0,0 2.39477,-1.35835 0.26451,-3.54999c-1.40043,-1.44078 -4.70885,-2.38671 -9.5572,-4.30947c-3.67871,-1.45892 -19.87091,-7.37409 -24.5679,-8.87947c-0.78282,-0.2509 -1.60338,0.88588 -1.60338,0.88588c0,0 -1.43245,1.9921 -1.77253,3.31737c-0.49511,1.92938 -0.82032,6.43499 -0.82032,6.43499c0,0 -2.74897,-1.22018 -3.99716,-2.49984c-1.76355,-1.80802 -5.58312,-7.32207 -5.58312,-7.32207c0,0 1.88521,-2.8922 4.49545,-6.98536c4.83093,-7.57545 11.3808,-23.10125 14.71796,-35.09971c0.58345,1.62957 2.89827,29.81778 2.89827,29.81778c0,0 9.26638,-2.71645 17.44502,-4.71213c5.31999,-1.29813 10.70377,-2.32744 10.98485,-1.98208c7.01605,4.1275 17.97985,20.97423 17.97985,20.97423c0,0 -17.58399,-5.30294 -22.49937,-6.66091c-2.30787,-0.6376 -5.66426,-1.11991 -5.66426,-1.11991z" fill="#50a5eb" stroke="none" stroke-width="0"/></g></g></g><g data-paper-data="{&quot;index&quot;:null}" stroke="none" stroke-width="0" stroke-linecap="butt"><g fill="#000000"><path d="M193.75557,117.81905c0,0 3.9219,0.78796 10.86991,7.31507c4.61443,4.33489 9.50042,10.1414 15.09983,16.53156c6.78924,7.74803 14.26716,16.24519 18.95792,22.61932c1.71858,-0.40468 3.15056,-1.68257 5.66102,-3.57605c5.35446,-4.03854 12.77639,-10.77351 18.39035,-17.07822c6.79718,-7.63353 12.09085,-14.81018 12.09085,-14.81018c0,0 -0.62711,3.37872 -3.52187,7.98074c-7.365,11.70872 -29.11384,31.19777 -32.66839,30.93548c-0.84396,-0.06228 -8.9642,-9.93453 -17.71878,-19.78915c-5.99908,-6.75287 -12.22937,-14.24456 -17.31575,-19.8649c-5.64924,-6.24231 -9.84509,-10.26366 -9.84509,-10.26366z" data-paper-data="{&quot;index&quot;:null}"/><path d="M223.5355,148.87528c0,0 5.26242,5.05597 6.94388,7.42579c1.11364,1.56953 2.16329,5.40975 2.16329,5.40975c0,0 -1.4116,10.95107 -6.63216,10.27643c-2.56604,-0.3316 -2.35712,-2.8853 -2.52655,-7.38758c-0.15289,-4.06273 -1.13393,-13.09541 -2.71313,-16.68185c-0.22765,0.13606 2.76467,0.95746 2.76467,0.95746z" data-paper-data="{&quot;index&quot;:null}"/><path d="M256.51079,160.69896c-0.43445,3.36194 -1.78504,6.7028 -2.88332,9.03519c-1.54843,3.28838 -3.44627,5.50737 -5.18766,5.46668c-0.84081,-0.10345 -1.50537,-0.4103 -1.80527,-1.29489c-1.10109,-3.24784 0.92441,-10.58261 0.92441,-10.58261l0.39852,-5.12262c0,0 7.59388,-6.14045 9.02699,-5.69983c0.53302,0.16388 -0.33857,7.15259 -0.47368,8.19809z" data-paper-data="{&quot;index&quot;:null}"/></g><g><path d="M244.92729,179.00966c0,0 -5.32821,2.08989 -11.34607,1.66409c-2.39511,-0.16947 -16.81391,-1.96384 -21.75267,-3.9455c-2.87596,-1.15397 -3.40983,-9.09469 -3.72041,-10.56016c-0.15794,-0.74522 4.67347,-0.57817 8.46367,0.82197c0.98023,0.36212 2.87051,0.56842 3.6613,1.16989c0.37478,0.28503 0.55908,1.05924 0.1213,1.27114c-0.81024,0.39218 -2.78165,0.11578 -2.78165,0.11578c0,0 0.68668,1.39226 1.3678,2.0532c2.41465,2.34308 5.08285,4.07958 6.95215,5.31965c4.99933,3.3165 19.03459,2.08994 19.03459,2.08994z" fill="#000000"/><path d="M217.36936,176.19116c0,0 -2.9093,-0.80065 -3.76536,-1.51924c-0.6802,-0.57097 -1.38064,-2.1323 -1.38064,-2.1323c-0.52724,-1.78529 -1.62046,-4.74866 -1.62046,-4.74866c0,0 2.50073,0.50265 3.44706,0.62494c0.48949,0.86351 -0.78963,0.77877 0.61832,2.68952c2.67973,3.39876 6.3777,5.46016 6.3777,5.46016c0,0 -2.37343,-0.11048 -3.67664,-0.37441z" fill="#ffffff"/></g></g><path d="M123,297v-234h234v234z" data-paper-data="{&quot;index&quot;:null}" fill="none" stroke="none" stroke-width="0" stroke-linecap="butt"/><path d="M268.30822,243.46953c-1.54583,-1.62174 -1.4284,-3.69166 -0.83051,-4.98095c0.4597,-0.9913 1.29926,-1.4253 1.29926,-1.4253l4.6875,3.20312c0,0 -3.40409,4.61095 -5.15625,3.20312z" data-paper-data="{&quot;index&quot;:null}" fill="#db93e6" stroke="none" stroke-width="0" stroke-linecap="butt"/></g></g></svg>