<svg version="1.1" xmlns="http://www.w3.org/2000/svg" xmlns:xlink="http://www.w3.org/1999/xlink" width="189.26654" height="221.55319" viewBox="0,0,189.26654,221.55319"><g transform="translate(-205.36673,-69.22341)"><g data-paper-data="{&quot;isPaintingLayer&quot;:true}" fill-rule="nonzero" stroke-linejoin="miter" stroke-miterlimit="10" stroke-dasharray="" stroke-dashoffset="0" style="mix-blend-mode: normal"><g stroke="#000000" stroke-linecap="round"><path d="M290.93659,179.84507c0,0 -27.74163,7.89121 -29.05952,-10.04101c-0.48556,-6.60682 15.81827,-6.15842 15.81827,-6.15842z" data-paper-data="{&quot;origPos&quot;:null}" fill="#66c8ff" stroke-width="2"/><path d="M282.08838,168.75292c0,0 -16.01352,-0.7724 -15.84869,-1.3993c0.52266,-1.98766 12.31423,-2.25671 12.31423,-2.25671z" data-paper-data="{&quot;origPos&quot;:null}" fill="#0a0a0a" stroke-width="1"/></g><g><g data-paper-data="{&quot;index&quot;:null}"><g stroke="#000000" stroke-width="3" stroke-linecap="round"><path d="M336.96125,204.54813c0,0 3.64163,10.10522 3.53455,14.71163c-15.17239,7.48159 -24.96916,5.56413 -24.96916,5.56413c-1.95979,0.53929 -2.73291,-6.69446 -2.73291,-6.69446c0,0 -1.97216,-14.07193 -3.23446,-23.07865c-0.82888,-5.91419 -2.12389,-15.15439 -2.12389,-15.15439c0,0 -0.56284,-5.89772 0.51869,-6.10544c6.50659,-1.24966 12.55774,-3.74174 15.97465,-3.20398c1.13897,0.17925 3.10514,5.54533 3.10514,5.54533l9.92738,28.41582z" data-paper-data="{&quot;origPos&quot;:null}" fill="#582700"/><path d="M338.06124,210.19996l-25.00182,5.78697l-0.75316,-3.3176l24.98357,-6.04496z" data-paper-data="{&quot;origPos&quot;:null}" fill="none"/></g><path d="M311.99358,212.27062l-4.32623,-36.61284l1.09135,-0.94585l15.37503,-3.69321l12.34262,35.32211z" fill="#66c8ff" stroke="#000000" stroke-width="1" stroke-linecap="round"/><path d="M312.92433,215.56107l-0.52845,-2.27041l24.83695,-5.78089l0.52844,2.27041z" fill="#ffffff" stroke="none" stroke-width="0" stroke-linecap="butt"/></g><g fill="#fffc96" stroke="#000000" stroke-width="2" stroke-linecap="round"><path d="M334.78031,200.06755c0,0 4.3808,0.15628 4.53215,3.09664c0.24214,4.70445 -32.61441,1.46442 -33.16251,-3.42324c-0.22393,-1.99698 2.92304,-2.39757 2.92304,-2.39757l0.42843,1.82196c0,0 6.03153,1.96238 13.67884,2.88877c7.54133,0.91355 12.57996,0.15174 12.57996,0.15174z"/><path d="M331.96952,191.92134c0,0 2.8283,-2.54999 3.93268,-0.50725c2.31822,4.288 -25.39131,25.79886 -26.61524,21.32904c-0.74123,-2.70703 2.46421,-4.05774 2.46421,-4.05774l0.35447,1.33053c0,0 4.73617,-2.43491 10.9176,-7.40899c6.18144,-4.97408 9.43023,-9.47338 9.43023,-9.47338z" data-paper-data="{&quot;index&quot;:null}"/></g></g><path d="M205.36673,290.77659v-221.55318h189.26654v221.55319z" fill="none" stroke="none" stroke-width="NaN" stroke-linecap="butt"/><g data-paper-data="{&quot;origRot&quot;:0}" stroke="#000000" stroke-linecap="round"><path d="M301.39491,229.54464c0,0 -1.61209,-4.52194 -0.1436,-4.99644c4.3333,-1.40015 7.9915,-4.36268 12.54024,-4.14652c1.88888,0.08975 3.90185,3.87667 3.90185,3.87667l14.5776,29.72574c0,0 1.54525,3.04977 2.37133,4.83335c0.88322,1.90695 0.89297,5.21657 -1.06718,5.97445c-7.19702,2.78275 -11.16771,5.84224 -16.09337,6.42984c-1.7945,0.21407 -3.713,0.32345 -4.92105,-1.02068c-1.57805,-1.75577 -2.35107,-6.17033 -2.35107,-6.17033z" data-paper-data="{&quot;origPos&quot;:null}" fill="#ff0000" stroke-width="3"/><path d="M335.76964,261.99481c0,0 -4.72991,4.44639 -9.52851,6.13506c-3.68165,1.2956 -11.99576,3.13594 -11.99576,3.13594c0,0 -2.14166,-2.0106 -2.75684,-3.49048c-0.64807,-1.55897 -0.48012,-4.29622 -0.48012,-4.29622l21.72379,-8.49011z" data-paper-data="{&quot;origPos&quot;:null}" fill="#976e57" stroke-width="2"/><path d="M301.57817,229.82027c0,0 -1.61209,-4.52194 -0.1436,-4.99643c4.33329,-1.40014 7.9915,-4.36269 12.54025,-4.1465c1.88888,0.08975 3.90184,3.87667 3.90184,3.87667l14.57759,29.72574c0,0 1.54528,3.04977 2.37136,4.83334c0.88322,1.90695 0.89297,5.21656 -1.06718,5.97445c-7.19702,2.78275 -11.16771,5.84225 -16.09337,6.42985c-1.7945,0.21407 -3.713,0.32342 -4.92103,-1.02069c-1.57805,-1.75577 -2.35108,-6.17032 -2.35108,-6.17032z" data-paper-data="{&quot;origPos&quot;:null}" fill="#4b4b4b" stroke-width="3"/></g><path d="M295.51125,263.94321c0,0 -0.24729,4.4749 -1.60736,6.40445c-1.04119,1.47715 -2.9592,1.59469 -4.76642,1.59365c-4.96058,-0.00287 -9.26421,-2.57301 -16.73908,-4.488c-2.03581,-0.52156 -2.41626,-3.80925 -1.76398,-5.807c0.61008,-1.86851 1.78507,-5.07916 1.78507,-5.07916l10.97203,-31.23685c0,0 1.55254,-3.99779 3.41766,-4.30957c4.49155,-0.75084 8.47346,1.75981 12.94158,2.63942c1.51418,0.29809 0.44636,4.97851 0.44636,4.97851c0,0 -1.18485,8.92704 -1.94322,14.64082c-1.07035,8.0643 -2.74264,20.66376 -2.74264,20.66376z" fill="#4b4b4b" stroke="#000000" stroke-width="3" stroke-linecap="round"/><g><g><path d="M279.14151,184.93947c0,0 0.91993,-14.51042 3.03342,-15.20909c6.34045,-2.096 21.16626,-2.21142 31.03154,-2.90899c1.52507,-0.10784 3.79661,13.29873 3.79661,13.29873l3.93658,30.42633c0,0 1.29773,14.90355 -0.36597,15.02119c-14.80999,1.04721 -32.10815,3.12511 -38.7686,2.75304c-2.22013,-0.12402 -2.50562,-15.90094 -2.50562,-15.90094z" data-paper-data="{&quot;origPos&quot;:null}" fill="#66c8ff" stroke="#000000" stroke-width="3.5" stroke-linecap="round"/><path d="M298.51772,191.78866c-1.28845,0.0911 -1.46391,-2.3902 -1.46391,-2.3902c-0.3639,-5.14641 -0.84477,-11.94701 -1.20867,-17.09342c0,0 -0.17545,-2.4813 1.113,-2.57241c1.28845,-0.0911 1.46391,2.39019 1.46391,2.39019c0.3639,5.14641 0.7278,10.29281 1.0917,15.43922l0.11696,1.6542c0,0 0.17545,2.48131 -1.113,2.57242z" fill="#ffffff" stroke="none" stroke-width="0.5" stroke-linecap="butt"/><path d="M310.93455,197.25982c-1.28845,0.0911 -1.50887,-3.02611 -1.50887,-3.02611c-0.45717,-6.46534 -1.06127,-15.00882 -1.51843,-21.47415c0,0 -0.22042,-3.11721 1.06804,-3.20832c1.28845,-0.0911 1.50887,3.02611 1.50887,3.02611c0.45717,6.46534 0.91432,12.93068 1.37149,19.39602l0.14695,2.07814c0,0 0.22042,3.11722 -1.06804,3.20833z" fill="#ffffff" stroke="none" stroke-width="0.5" stroke-linecap="butt"/></g><g fill="none" stroke="#b9b9b9" stroke-width="3"><path d="M311.39167,171.99679c-0.92126,-1.29634 -0.09613,-2.5773 1.03786,-3.87856c1.13401,-1.30123 2.33212,-1.75881 3.06873,-0.83369c1.56179,1.96155 0.14497,3.03968 -0.74298,4.05859c-1.13401,1.30125 -2.06255,2.48444 -3.3636,0.65367z" stroke-linecap="butt"/><path d="M312.33183,171.3381l-2.40582,2.69584" stroke-linecap="round"/><path d="M306.43273,174.91186c1.13401,-1.30123 2.33213,-1.75881 3.06873,-0.83369c1.56179,1.96155 0.14497,3.03968 -0.74298,4.05859c-1.13399,1.30124 -2.06254,2.48443 -3.3636,0.65366c-0.92126,-1.29634 -0.09615,-2.57731 1.03785,-3.87857z" stroke-linecap="butt"/><path d="M306.33501,178.13172l-2.4058,2.69586" stroke-linecap="round"/><path d="M298.28902,180.77299c0.28433,-1.65927 1.62996,-1.59941 3.17835,-1.24893c1.54839,0.35049 2.58325,1.25649 2.42888,2.51813c-0.3273,2.67502 -1.90299,1.91726 -3.11541,1.64282c-1.54838,-0.35048 -2.89336,-0.5687 -2.4918,-2.91201z" stroke-linecap="butt"/><path d="M296.05491,180.52752l3.24249,0.78141" stroke-linecap="round"/><path d="M290.79859,176.91596c0.7979,-1.37643 2.0253,-0.67414 3.34694,0.39079c1.32165,1.06493 1.9886,2.38936 1.43921,3.46569c-1.16487,2.28213 -2.38062,0.83259 -3.41553,-0.00127c-1.32165,-1.06494 -2.49745,-1.91135 -1.37063,-3.8552z" stroke-linecap="butt"/><path d="M288.80783,175.61674l2.75239,2.27336" stroke-linecap="round"/><path d="M283.8791,171.26533c0.7979,-1.37641 2.02529,-0.67414 3.34694,0.39079c1.32166,1.06493 1.9886,2.38936 1.43921,3.46569c-1.16487,2.28212 -2.38062,0.83259 -3.41553,-0.00127c-1.32165,-1.06493 -2.49743,-1.91134 -1.37061,-3.8552z" stroke-linecap="butt"/><path d="M284.64074,172.23945l-2.7524,-2.27336" stroke-linecap="round"/></g></g><path d="M305.97409,157.8805c0,0 -2.72083,0.44992 -6.06883,0.42912" fill="none" stroke="#000000" stroke-width="2.5" stroke-linecap="round"/><path d="M312.96112,172.93199c-12.05836,-0.83244 -23.74917,-1.67569 -28.44563,-3.0549c-4.29226,-1.2605 -5.3895,-4.11675 -5.3895,-4.11675c0,0 -1.55892,-2.56529 -1.52363,-4.09989c0.10589,-4.60381 1.02387,-17.72209 2.86185,-28.94959c0.06134,-0.37472 0.10939,-0.58309 0.19295,-0.95349c0.25065,-1.11118 1.41296,-5.40929 1.41296,-5.40929c0,0 3.31109,-1.40184 5.07586,-1.73665c5.2943,-1.00442 18.34777,1.52738 32.18538,3.04532c1.2542,0.13759 3.27599,1.98493 3.27599,1.98493c0,0 1.28738,3.24989 1.08186,5.22275c-1.32866,12.75481 -2.84566,26.86223 -3.40394,30.0707c-0.18608,1.06949 -2.35023,5.10018 -2.35023,5.10018z" fill="#592800" stroke="#000000" stroke-width="2.5" stroke-linecap="round"/><path d="M277.73437,126.8134c-0.57862,-1.10801 0.52938,-1.68664 0.52938,-1.68664l1.36588,-0.66701c0.12088,-0.0275 0.24159,-0.05425 0.36219,-0.08024c-0.58385,-5.84355 1.05565,-12.7243 1.45508,-18.4288c0.10359,-1.47938 0.03116,-5.51401 0.84134,-6.72825c1.35667,-2.03329 3.01829,-1.31193 4.90937,-1.17435c3.21763,0.23409 6.40645,0.50557 9.62421,0.26608c7.97565,-0.58423 15.82007,-0.26933 23.79792,-0.36526c2.51747,-0.03026 4.96812,0.05767 7.46751,0.45687c0.68388,0.10922 1.58315,-0.07684 2.02734,0.45451c1.57319,1.88183 0.69846,3.7816 0.23692,5.71509c-0.92064,3.85669 -2.79276,7.25748 -3.20821,11.24562c-0.33823,3.04898 -1.04191,6.15124 -1.65638,9.15457c-0.21206,1.03642 -0.01524,2.99895 -1.13169,3.70673c-2.28924,1.45128 -7.83397,-0.17064 -10.35986,-0.44126c-7.70192,-0.82519 -15.39327,-1.80972 -23.13046,-2.19477c-2.77295,-0.04313 -5.42268,-0.00319 -8.10558,0.37695c-0.05373,0.36965 -0.26592,0.83312 -0.96322,0.98541c-0.75654,0.16523 -1.14676,-0.24059 -1.33418,-0.57333c-0.09195,0.02012 -0.18399,0.04073 -0.27612,0.06181l-0.76478,0.44567c0,0 -1.10801,0.57862 -1.68664,-0.52939z" fill="#000000" stroke="none" stroke-width="0.5" stroke-linecap="butt"/><g><g stroke="#000000" stroke-width="3" stroke-linecap="round"><path d="M259.0317,205.72744l8.27841,-28.93924c0,0 1.65462,-5.47018 2.78141,-5.71457c3.38038,-0.73319 9.56469,1.40711 16.13234,2.28089c1.09167,0.14524 0.86861,6.06556 0.86861,6.06556c0,0 -0.762,9.29934 -1.24971,15.25138c-0.74275,9.06438 -1.90318,23.22636 -1.90318,23.22636c0,0 -0.35625,7.26622 -2.34378,6.84042c0,0 -9.67045,2.47713 -25.24759,-4.1204c-0.37157,-4.59265 2.68348,-14.89039 2.68348,-14.89039z" data-paper-data="{&quot;origPos&quot;:null}" fill="#582700"/><path d="M258.82292,207.81913l25.2896,4.59959l-0.56132,3.35539l-25.293,-4.34098z" data-paper-data="{&quot;origPos&quot;:null}" fill="none"/></g><path d="M259.61876,207.48933l10.29287,-35.97289l15.56182,2.80376l1.14389,0.88159l-2.21558,36.80093z" fill="#66c8ff" stroke="#000000" stroke-width="1" stroke-linecap="round"/><path d="M258.53357,210.99682l0.39715,-2.29702l25.12804,4.34438l-0.39713,2.29702z" fill="#ffffff" stroke="none" stroke-width="0" stroke-linecap="butt"/></g><path d="M295.80482,146.54501c4.90173,-2.02414 8.9461,0.55559 10.10943,5.4749c1.33421,5.64187 -2.77155,8.39911 -2.77155,8.39911c0,0 -2.4446,-1.30957 -5.6425,-1.98836c-3.9819,-0.84519 -6.23497,-0.59204 -6.23497,-0.59204c0,0 -2.11013,-8.54765 4.53959,-11.29362z" fill="#ffffff" stroke="#0a0a0a" stroke-width="2" stroke-linecap="butt"/><path d="M321.5436,149.72804c5.6328,4.47556 1.24422,12.10807 1.24422,12.10807c0,0 -2.09554,-0.8655 -6.156,-1.15282c-3.261,-0.23075 -5.97218,0.3528 -5.97218,0.3528c0,0 -3.18465,-3.78386 -0.34428,-8.83788c2.4766,-4.40674 7.07611,-5.76926 11.22823,-2.47018z" data-paper-data="{&quot;index&quot;:null}" fill="#ffffff" stroke="#0a0a0a" stroke-width="2" stroke-linecap="butt"/><g data-paper-data="{&quot;index&quot;:null}" stroke="#000000" stroke-width="1.25" stroke-linecap="butt"><path d="M288.80077,173.00432c-10.18048,-3.08202 -4.38003,-12.97172 -4.38003,-12.97172l15.19503,4.45367c0,0 -0.03661,11.78108 -10.815,8.51805z" fill="#000000"/><path d="M288.46738,169.4639c2.55143,1.66444 4.1819,4.11665 3.70427,4.11102c-0.98699,-0.01162 -2.10483,-0.18733 -3.37088,-0.57061c-3.79444,-1.14872 -5.36883,-3.24315 -5.85098,-5.41874c-0.09366,-0.42266 3.17464,0.34988 5.51758,1.87832z" fill="#ff8484"/><path d="M283.18186,163.57503c0.47206,-1.45712 1.23887,-3.54243 1.23887,-3.54243l13.35422,3.91413l-1.02512,3.71617c0,0 -13.58355,-4.03984 -13.56799,-4.08787z" fill="#ffffff"/></g><path d="M300.64784,256.92955c0.92856,0.12776 0.34995,3.10662 1.00645,3.77563c2.7161,2.76788 0.65839,2.79477 0.11004,5.10916c-0.31563,1.33217 0.68228,2.85327 0.12813,4.10516c-1.73556,3.92091 -6.53967,4.17756 -10.05184,3.74421l-1.83294,-1.08649c0,0 -0.01415,-0.01061 -0.03853,-0.03112c-3.16788,1.35269 -8.08616,-0.37246 -11.41147,-0.36888c-4.81052,0 -9.36594,-0.64811 -14.12406,-1.0044c-5.34433,-0.40019 -12.01696,0.92386 -17.11048,-1.40721c-1.28269,-0.58703 -2.16641,-1.85502 -3.43516,-2.47159c-1.11563,-0.54216 -2.56648,0.04787 -3.69052,-0.47663c-0.95024,-0.44339 -1.65825,-1.28391 -2.48737,-1.92587c0.15286,-1.17627 -0.15394,-2.51303 0.45858,-3.5288c0.69137,-1.14653 2.71896,-0.71233 3.65157,-1.67293c2.15861,-2.22343 1.84205,-6.1233 6.3035,-6.01132c2.33691,0.05866 4.75278,2.39648 7.18927,2.01594c1.28362,-0.20048 2.41399,-1.02233 3.69459,-1.24127c3.42955,-0.58635 7.04312,-0.73477 10.54895,-0.47954c0.01519,-0.35425 2.25908,-0.48867 2.22335,-0.82415l1,-0.80556c0,0 -1.55556,-0.89442 -0.38449,-1.22999c0.56342,-0.5226 0.65151,-0.88712 0.81673,-1.60157c0.18126,-0.78383 0.76539,-2.57132 1.27887,-3.19067c0.45886,-0.55347 3.5947,-1.68404 4.42736,-1.64094c0.48929,0.02533 2.82889,1.25518 3.63931,1.2465c1.329,-0.01424 2.53628,-1.10765 3.86069,-0.9965c2.02568,0.17001 2.3999,1.13035 3.93714,1.93894c2.81942,1.48304 5.99184,-0.21466 7.59764,3.71181c0.3268,0.79908 0.05841,1.72565 0.08761,2.58847c-0.46868,1.67955 -1.28401,2.83409 -2.03156,4.10195c1.44139,-0.65381 2.57233,-0.62665 4.63863,-0.34236z" fill="#000000" stroke="none" stroke-width="0.5" stroke-linecap="butt"/><path d="M267.24424,182.73843l0.20061,-0.03996c1.07962,1.86603 1.21579,3.61006 2.05874,5.54065c0.57933,1.32683 1.41565,1.82641 1.90491,3.27957c0.30378,0.90227 0.16457,2.01632 0.77129,2.74999c1.52647,1.84585 3.53159,1.16028 5.01229,3.5331c0.62269,0.99786 0.01192,2.43461 0.53579,3.48772c0.47906,0.963 3.63439,1.61629 4.47904,2.30646c3.2259,2.63594 3.63699,5.73351 3.43105,9.58748c-0.20855,3.90278 0.45356,9.30905 -3.69133,11.55169c-1.90354,1.02993 -4.4239,0.53248 -6.46215,0.42357c-4.32544,-0.23114 -9.28459,-0.72091 -13.51372,-1.7566c-1.80912,-0.44305 -4.99565,-1.63425 -5.97166,-3.3574c-0.57946,-1.02304 -0.34232,-3.27747 -0.2822,-4.45445c0.36888,-6.67518 2.36,-14.30353 4.68847,-20.56594c1.25125,-3.36523 2.71077,-6.09811 3.29773,-9.44781c-0.83449,-1.04449 0.09166,-2.15103 0.09166,-2.15103l0.15637,-0.03115c0.04733,-0.35497 0.3234,-1.64564 1.83163,-1.56504c0.8437,0.04508 1.2583,0.47575 1.46146,0.90916z" fill="#000000" stroke="none" stroke-width="0.5" stroke-linecap="butt"/></g></g></svg>