<svg version="1.1" xmlns="http://www.w3.org/2000/svg" xmlns:xlink="http://www.w3.org/1999/xlink" width="127.66667" height="127.66667" viewBox="0,0,127.66667,127.66667"><g transform="translate(-176.16669,-116.16666)"><g data-paper-data="{&quot;isPaintingLayer&quot;:true}" fill-rule="nonzero" stroke-linejoin="miter" stroke-miterlimit="10" stroke-dasharray="" stroke-dashoffset="0" style="mix-blend-mode: normal"><g><path d="M202.86302,189.26348c-0.00243,0.00019 -0.00371,0.00026 -0.00371,0.00026l-0.55189,-0.15619c-0.90491,-1.01501 -0.55986,-2.32937 0.0766,-3.4542c1.71613,-1.57001 5.82761,-6.16654 8.27231,-3.16343c1.15576,1.41976 1.15795,3.42409 1.68757,5.09291c0.38874,6.64754 -5.93067,3.55607 -9.48087,1.68066z" fill="#323344" stroke="#000000" stroke-width="1" stroke-linecap="butt"/><path d="M231.31307,183.6835c0.3926,-1.23676 1.66181,-4.21802 2.88931,-4.86354c3.50119,-1.84121 4.89397,1.86141 5.30368,4.38191c0.12583,2.36543 -0.90951,6.15746 -3.11384,8.93665c-1.51987,1.91625 -3.87702,3.15263 -5.33889,3.89771c-0.4986,0.25413 -2.09207,0.14316 -4.33119,-3.00699c-2.09377,-2.94566 -3.49962,-7.40956 -2.38154,-8.20453c0.96216,-0.68411 6.6995,-0.27248 6.6995,-0.27248z" fill="#dc94e7" stroke="#000000" stroke-width="1" stroke-linecap="butt"/><path d="M227.70779,188.25077c0.05703,0.03754 0.08973,0.06703 0.08973,0.06703l0.71223,0.73923c0.34579,0.79918 0.36309,1.53613 0.41523,2.25139c0.06418,0.88037 0.07688,1.73336 -0.44436,2.69474c-3.71931,5.54265 -14.55162,7.80741 -15.02614,-1.34325c-0.17895,-3.81805 3.32258,-5.18002 7.05407,-5.442c2.54241,-0.1785 5.18596,0.04517 6.86684,0.77507c0,0 0.18761,0.08195 0.33238,0.25779z" fill="#f89688" stroke="#000000" stroke-width="1" stroke-linecap="butt"/><path d="M209.49394,184.27663c-0.65531,-0.28398 -0.43597,-1.0008 -0.43597,-1.0008c0.58802,-1.91674 3.62727,-5.98027 5.96834,-5.01259c2.40087,0.99241 1.16414,3.41239 2.5892,4.89944c0.67138,0.70059 2.52865,0.62062 3.4322,0.89748c0.4327,1.0304 0.63139,1.20399 0.66072,2.2699c0.05179,1.88187 -1.3429,3.09768 -3.25521,2.77318c-3.06297,-0.51975 -4.96718,-3.74187 -8.00808,-4.35866l-0.31839,-0.04467c0,0 -0.44244,-0.06487 -0.63283,-0.42327z" fill="#fcdfbd" stroke="none" stroke-width="0.5" stroke-linecap="butt"/><path d="M221.0477,184.06014c0.4327,1.0304 0.63139,1.20399 0.66072,2.26991c0.05178,1.88188 -1.3429,3.09768 -3.25521,2.77318c-2.36554,-0.4014 -4.03994,-2.41466 -6.08059,-3.59479c0.7551,-0.15612 1.44789,-0.296 1.9741,-0.32258c0.5746,-0.02903 1.03584,0.19585 1.47495,0.48166c0.4771,0.59064 1.18884,0.97972 1.98488,1.03173c0.3207,0.04186 0.67655,0.01391 1.08486,-0.12035c0.11487,-0.03778 0.23034,-0.09399 0.34449,-0.166c0.89989,-0.44923 1.51545,-1.36849 1.5426,-2.42041c0.09656,0.02017 0.18683,0.04243 0.26918,0.06767z" fill="#f89688" stroke="none" stroke-width="0.5" stroke-linecap="butt"/><path d="M209.49394,184.27663c-0.65531,-0.28398 -0.43597,-1.0008 -0.43597,-1.0008c0.58802,-1.91674 3.62727,-5.98027 5.96833,-5.01259c2.40086,0.99241 1.16414,3.41238 2.5892,4.89943c0.67137,0.70058 2.52864,0.62062 3.4322,0.89749c0.4327,1.0304 0.63139,1.20399 0.66072,2.26991c0.05178,1.88188 -1.3429,3.09768 -3.25521,2.77318c-3.06296,-0.51975 -4.96718,-3.74187 -8.00808,-4.35866l-0.31839,-0.04469c0,0 -0.44244,-0.06487 -0.63283,-0.42326z" fill="none" stroke="#000000" stroke-width="1" stroke-linecap="butt"/><path d="M210.19489,182.07374c0.02887,0.55677 -0.5279,0.58564 -0.5279,0.58564l-0.08565,0.00445c-3.45271,0.17905 -5.9699,2.66378 -6.16753,6.1789c0,0 -0.01035,0.17573 -0.11816,0.32387l0.0747,0.26914c0,0 -0.36222,0.40185 -0.76888,0.05703c-0.07274,-0.00658 -0.14549,-0.01314 -0.21822,-0.01972c0,0 -0.31414,-0.02837 -0.4485,-0.27872c-0.30919,-0.12091 -0.3284,-0.49132 -0.3284,-0.49132l-0.00373,-0.15494c0.36657,-5.04191 2.83633,-7.24947 7.72303,-7.50287c0,0 0.55677,-0.02887 0.58564,0.5279c0.00066,0.01282 0.00102,0.02535 0.00108,0.03761c0.1358,0.06601 0.26882,0.19834 0.28255,0.46302z" fill="#455d83" stroke="none" stroke-width="0.5" stroke-linecap="butt"/><path d="M203.4885,188.12291c-0.49236,-0.25578 -1.03932,-0.39682 -1.56732,-0.38682c-0.07165,-0.03909 -0.14702,-0.07206 -0.22541,-0.09822c0.21944,-1.63423 0.69643,-2.93125 1.44418,-3.92828c0.45142,0.59024 0.88746,1.19836 1.32337,1.79875c-0.48943,0.75661 -0.82564,1.63853 -0.97482,2.61457z" fill="#85afb1" stroke="none" stroke-width="0.5" stroke-linecap="butt"/><path d="M205.05925,182.07259c0.35543,0.59479 0.84284,1.18209 1.27411,1.58803c-0.42445,0.26725 -0.8115,0.58322 -1.15523,0.94247c-0.42115,-0.57721 -0.84197,-1.1579 -1.27707,-1.72396c0.34638,-0.3096 0.73221,-0.57778 1.15821,-0.80655z" fill="#85afb1" stroke="none" stroke-width="0.5" stroke-linecap="butt"/><path d="M210.19489,182.07374c0.02887,0.55677 -0.5279,0.58564 -0.5279,0.58564l-0.08565,0.00445c-3.45271,0.17905 -5.9699,2.66378 -6.16754,6.1789c0,0 -0.01035,0.17573 -0.11816,0.32387l0.0747,0.26915c0,0 -0.36221,0.40185 -0.76888,0.05703c-0.07274,-0.00658 -0.14549,-0.01314 -0.21822,-0.01972c0,0 -0.31414,-0.02838 -0.4485,-0.27872c-0.3092,-0.1209 -0.32841,-0.49132 -0.32841,-0.49132l-0.00373,-0.15494c0.36657,-5.04191 2.83632,-7.24947 7.72303,-7.50287c0,0 0.55677,-0.02887 0.58564,0.5279c0.00066,0.01281 0.00102,0.02535 0.00108,0.03762c0.1358,0.06601 0.26882,0.19834 0.28255,0.46302z" fill="none" stroke="#000000" stroke-width="1" stroke-linecap="butt"/><path d="M219.49111,191.50964c0,0 3.14762,-0.10834 3.72769,1.64932c0.46542,1.41026 -0.74811,2.55013 -1.39862,3.66998c-1.5397,2.65051 -3.83291,7.10329 -7.39373,4.73982c-0.74846,-0.60263 -1.31327,-1.24018 -1.93939,-1.96444l-0.08488,-0.07496c-1.0589,0.58339 -2.12142,0.68368 -2.78392,0.11017c-0.70137,-0.60716 -1.35963,-1.91251 -1.98473,-2.8149c-1.46545,0.3031 -3.06382,0.63125 -4.29008,-0.23065c-1.17931,-0.82889 -0.96498,-1.91618 -1.02919,-3.15446c-0.17986,-3.46848 1.81536,-6.40279 4.87207,-7.99106c1.49961,-0.99406 3.02855,-2.52234 4.94251,-2.7314c1.34607,-0.14703 2.20987,0.60372 2.79967,1.51252c0.68049,1.04855 0.94961,2.35924 0.4132,3.58795c1.24774,0.14704 2.48698,0.7995 3.35168,1.65157c0.84673,0.83438 0.53131,1.25315 0.79769,2.04055z" fill="#fde0be" stroke="none" stroke-width="0.5" stroke-linecap="butt"/><path d="M223.2188,193.159c0.46542,1.41028 -0.7481,2.55013 -1.39863,3.66997c-1.53971,2.65051 -3.83292,7.1033 -7.39373,4.73982c-0.74846,-0.60263 -1.31327,-1.24018 -1.93938,-1.96444l-0.08488,-0.07496c-1.0589,0.58339 -2.12142,0.68368 -2.78392,0.11017c-0.70137,-0.60716 -1.35962,-1.91252 -1.98472,-2.81491c-1.46545,0.3031 -3.06381,0.63125 -4.29007,-0.23065c-1.17932,-0.8289 -0.96498,-1.91618 -1.02919,-3.15446c-0.06017,-1.16034 0.12308,-2.2609 0.50807,-3.27127c0.07855,0.18143 0.13181,0.36214 0.12857,0.55119l0.00658,0.00653c-0.02874,1.15112 0.38644,2.04518 1.06661,2.61053c0.53501,0.50834 1.26962,0.80453 2.0648,0.7633c0.28772,-0.01492 0.56299,-0.07296 0.81986,-0.16754c0.27957,-0.05972 0.56438,-0.14862 0.85098,-0.26803c1.24642,-0.51932 2.96175,-1.62841 4.56116,-3.01681c-0.28312,0.90766 -0.50906,1.80758 -0.65429,2.53925c-0.12902,0.34629 -0.19089,0.72405 -0.17053,1.11658c0.01213,0.23382 0.05273,0.45942 0.11827,0.6736c0.08233,1.58762 1.34673,2.07224 2.5889,1.96874c0.07309,0.00193 0.14681,0.00103 0.22106,-0.00282c0.61252,-0.03176 1.16858,-0.25895 1.6109,-0.61803c0.14574,-0.10186 0.2714,-0.21263 0.37096,-0.32972c0.11226,-0.13205 0.23037,-0.27941 0.35264,-0.43955c0.21306,0.11125 -0.7975,2.19642 -0.56344,2.25099c0.69253,0.1615 2.69497,-1.94903 3.4275,-2.47724c0.58693,-0.42321 0.9497,-0.8921 1.13807,-1.37253c0.27213,-0.45714 0.41661,-0.99706 0.38699,-1.56823c-0.0134,-0.25838 -0.06157,-0.50672 -0.13975,-0.74072c0.89313,0.17973 1.90594,0.58815 2.2106,1.51126z" fill="#f89688" stroke="none" stroke-width="0.5" stroke-linecap="butt"/><path d="M219.49111,191.50964c0,0 3.14762,-0.10834 3.72769,1.64932c0.46542,1.41028 -0.7481,2.55013 -1.39863,3.66997c-1.53971,2.65051 -3.83292,7.1033 -7.39373,4.73982c-0.74846,-0.60263 -1.31327,-1.24018 -1.93938,-1.96444l-0.08488,-0.07496c-1.0589,0.58339 -2.12142,0.68368 -2.78392,0.11017c-0.70137,-0.60716 -1.35962,-1.91252 -1.98472,-2.81491c-1.46545,0.3031 -3.06381,0.63125 -4.29007,-0.23065c-1.17932,-0.8289 -0.96498,-1.91618 -1.02919,-3.15446c-0.17986,-3.46848 1.81535,-6.40279 4.87205,-7.99106c1.49961,-0.99406 3.02855,-2.52234 4.94252,-2.73141c1.34607,-0.14703 2.20987,0.60372 2.79965,1.51252c0.68049,1.04855 0.94961,2.35924 0.4132,3.58795c1.24775,0.14705 2.48698,0.7995 3.35168,1.65158c0.84674,0.83437 0.53131,1.25315 0.79769,2.04055z" fill="none" stroke="#000000" stroke-width="1" stroke-linecap="butt"/><path d="M215.60524,188.13525l-5.09371,3.6882" fill="none" stroke="#000000" stroke-width="1" stroke-linecap="round"/><path d="M219.21645,191.74424l-3.37472,3.82237" fill="none" stroke="#000000" stroke-width="1" stroke-linecap="round"/><path d="M194.73717,181.28639c-0.24655,-4.75438 2.96173,-9.12886 7.71611,-9.37541c2.53994,-0.13171 4.07316,0.9041 5.6222,2.50958c0.52188,0.5409 1.33552,1.60297 1.81242,2.74622c0.75722,1.81521 0.44794,3.67453 0.34477,3.96402c-0.08216,0.23052 -3.05456,-1.31627 -5.8624,1.13802c-2.86402,2.50341 -3.26015,6.80351 -3.26015,6.80351c0,0 -2.20926,-0.29111 -3.6799,-1.50893c-1.63876,-1.35705 -2.5631,-3.77127 -2.69304,-6.27701z" fill="#465e85" stroke="#000000" stroke-width="0" stroke-linecap="butt"/><path d="M194.73717,181.28639c-0.03096,-0.59698 -0.00744,-1.18796 0.06676,-1.76554c0.05082,0.07996 0.10953,0.15427 0.17495,0.22191l0.00532,0.0209l0.03676,0.0208c0.17154,0.16297 0.38413,0.28232 0.61942,0.34153l0.23043,0.06377l0.14268,0.00357l0.12988,0.07719l0.08437,0.0253l0.06975,0.05377l0.09243,0.04037l0.00847,0.01317l0.03929,0.00769l0.03558,0.01555l0.31582,0.0532l0.31431,0.06148l0.03879,-0.00201l0.03948,0.00666l0.01255,-0.00936l0.02917,-0.00151l0.02969,0.02289l0.09243,0.04037l0.00847,0.01317l0.03929,0.00769l0.03558,0.01555l0.31582,0.0532l0.31431,0.06148l0.03879,-0.00201l0.03948,0.00666l0.01255,-0.00936l7.18602,-0.37263l0.03681,0.0062l0.31431,0.06148l0.03879,-0.00201l0.03948,0.00666l0.01255,-0.00936l0.21757,-0.01128l0.0231,0.01308l0.52284,0.14467l0.1761,0.00439l0.30052,0.05061l0.31431,0.06148l0.03879,-0.00201l0.03948,0.00666l0.01255,-0.00936l0.47454,-0.02461l0.0231,0.01308l0.16594,0.04591l0.17741,0.07749l0.00847,0.01317l0.03929,0.00769l0.03558,0.01555l0.2642,0.04451c-1.1334,-0.10356 -2.71173,0.04614 -4.24125,1.38308c-2.86402,2.50341 -3.26015,6.80351 -3.26015,6.80351c0,0 -2.20926,-0.29111 -3.6799,-1.50893c-1.63876,-1.35705 -2.5631,-3.77127 -2.69304,-6.27701z" fill="#323344" stroke="#000000" stroke-width="0" stroke-linecap="butt"/><path d="M199.24459,176.31579l0.00423,0.01657l-0.02252,-0.01055z" fill="#323344" stroke="#000000" stroke-width="0" stroke-linecap="butt"/><path d="M194.73717,181.28639c-0.24654,-4.75439 2.96174,-9.12886 7.71611,-9.37541c2.53994,-0.13171 4.07315,0.90411 5.62219,2.50958c0.52188,0.5409 1.33551,1.60297 1.81242,2.74622c0.75721,1.81519 0.44795,3.67453 0.34477,3.96402c-0.08216,0.23052 -3.05455,-1.31628 -5.8624,1.13804c-2.86402,2.50341 -3.26015,6.80351 -3.26015,6.80351c0,0 -2.20927,-0.2911 -3.67991,-1.50893c-1.63876,-1.35705 -2.5631,-3.77127 -2.69304,-6.277z" fill="none" stroke="#000000" stroke-width="1" stroke-linecap="butt"/><path d="M199.47661,188.21225c0,0 -0.14497,-5.9029 2.81005,-8.09749c3.12454,-2.32049 7.83111,-0.35599 7.83111,-0.35599" fill="none" stroke="#000000" stroke-width="1" stroke-linecap="round"/><path d="M196.07507,185.55433c0,0 1.09738,-5.47648 3.81285,-8.50772c2.46533,-2.75199 7.82193,-2.31627 7.82193,-2.31627" fill="none" stroke="#000000" stroke-width="1" stroke-linecap="round"/><path d="M194.85741,180.29242c0,0 2.63115,-4.05962 4.18737,-5.51763c1.40412,-1.31552 4.74066,-2.84702 4.74066,-2.84702" fill="none" stroke="#000000" stroke-width="1" stroke-linecap="round"/><path d="M201.10094,186.41024c0,0 -2.62492,-0.44198 -3.63837,-1.01161c-0.99129,-0.55719 -2.37733,-2.36962 -2.37733,-2.36962" fill="none" stroke="#000000" stroke-width="1" stroke-linecap="round"/><path d="M202.07553,185.32909c0,0 -3.01917,-1.34319 -4.29874,-2.23926c-1.14045,-0.79863 -3.00945,-2.8786 -3.00945,-2.8786" fill="none" stroke="#000000" stroke-width="1" stroke-linecap="round"/><path d="M202.84326,183.57151c0,0 -3.01711,-1.71722 -4.05027,-2.98533c-1.12914,-1.38588 -2.46225,-5.00808 -2.46225,-5.00808" fill="none" stroke="#000000" stroke-width="1" stroke-linecap="round"/><path d="M198.44235,173.23553c0,0 2.99898,3.88751 3.96006,5.51419c0.79687,1.34876 1.40659,3.56929 1.40659,3.56929" fill="none" stroke="#000000" stroke-width="1" stroke-linecap="round"/><path d="M201.72965,172.03436c0,0 2.3042,2.33654 3.01935,3.75054c0.75053,1.48396 1.38284,4.95351 1.38284,4.95351" fill="none" stroke="#000000" stroke-width="1" stroke-linecap="round"/><path d="M207.06139,173.81919c0,0 0.83221,2.01369 1.04298,3.10862c0.21989,1.14243 0.25017,3.60947 0.25017,3.60947" fill="none" stroke="#000000" stroke-width="1" stroke-linecap="round"/></g><g><g stroke="#000000"><path d="M254.61048,194.09559l1.79043,9.45663l-38.25389,-0.95816c0,0 0.36622,-9.26805 2.10933,-11.02088c0.6043,-0.60766 6.53711,1.98084 6.53711,1.98084l0.26202,-3.70768z" fill="#0066cd" stroke-width="0" stroke-linecap="round"/><path d="M247.95492,195.81108c-1.53237,0.73059 -3.52951,1.90782 -5.65604,2.25865c-3.29301,0.54332 -6.59114,0.03685 -6.59114,0.03685c0,0 0.30834,3.39317 0.19005,4.93207l-6.42264,-0.16088c0.11162,-1.25924 -0.58453,-3.60711 -1.39077,-5.72307c-0.64019,-1.68017 -1.39821,-3.26029 -1.53159,-3.70414c0.15378,0.06555 0.24066,0.10346 0.24066,0.10346l0.26202,-3.70768l21.04249,3.28205c0,0 0.44405,0.77225 0.41322,1.54777c-0.01989,0.50023 -0.49235,1.12345 -0.55625,1.1349z" fill="#061483" stroke-width="0" stroke-linecap="butt"/><path d="M254.61048,194.09559l1.79043,9.45663l-38.25389,-0.95816c0,0 0.36622,-9.26805 2.10933,-11.02088c0.6043,-0.60766 6.53711,1.98084 6.53711,1.98084l0.26202,-3.70768z" fill="none" stroke-width="1" stroke-linecap="round"/><path d="M234.95952,198.21985l-2.2271,-1.833" fill="none" stroke-width="1" stroke-linecap="round"/></g><g><path d="M240.68015,209.94691c0,0.3256 -1.66049,2.43213 -2.90733,2.7186c-2.50735,0.5761 -7.52354,0.23487 -11.27903,0.8754c-1.36136,0.23219 -3.25437,0.43582 -4.71502,1.06621c-0.94134,0.40626 -1.77524,1.96302 -7.08986,2.10126c-3.31682,0.08626 -6.95895,-0.80817 -7.85299,-1.11409c-2.54791,-0.87183 -3.40527,-2.68635 -3.3616,-3.98101c0.0128,-0.37924 0.43593,-1.7637 1.79261,-1.4457c0.92258,0.21624 3.52678,1.79241 6.28518,2.18097c3.35297,0.47231 7.02111,0.06031 8.08647,-0.18807c2.56091,-0.59705 4.71409,-1.97931 7.19779,-2.73664c2.6287,-0.80155 6.08058,0.33968 8.19369,-0.14742c2.759,-0.63598 3.88207,-2.75598 4.4737,-2.48275c0.9551,0.44111 1.1764,2.48553 1.1764,3.15324z" fill="#feecf7" stroke="none" stroke-width="0" stroke-linecap="butt"/><path d="M237.77283,212.6655c-2.50735,0.57609 -7.52354,0.23487 -11.27903,0.8754c-1.36136,0.2322 -3.25437,0.43583 -4.71502,1.06622c-0.94133,0.40625 -1.77524,1.96302 -7.08984,2.10126c-0.4519,0.01176 -0.90983,0.0053 -1.36603,-0.01538c-0.44412,-1.63152 -1.44472,-3.01716 -2.36869,-4.44691c0.1981,0.03977 0.39759,0.07426 0.5979,0.10245c3.35297,0.47231 7.02112,0.06032 8.08647,-0.18807c2.56092,-0.59706 4.71409,-1.97931 7.1978,-2.73664c2.6287,-0.80153 6.08058,0.33968 8.19369,-0.14742c2.759,-0.63597 3.88207,-2.75598 4.4737,-2.48275c0.9551,0.44112 1.1764,2.48553 1.1764,3.15324c0,0.32561 -1.66049,2.43213 -2.90733,2.7186z" fill="#dd95e8" stroke="none" stroke-width="0" stroke-linecap="butt"/><path d="M240.68015,209.94691c0,0.3256 -1.66049,2.43213 -2.90733,2.7186c-2.50735,0.5761 -7.52354,0.23487 -11.27903,0.8754c-1.36136,0.23219 -3.25437,0.43582 -4.71502,1.06621c-0.94134,0.40626 -1.77524,1.96302 -7.08986,2.10126c-3.31682,0.08626 -6.95895,-0.80817 -7.85299,-1.11409c-2.54791,-0.87183 -3.40527,-2.68635 -3.3616,-3.98101c0.0128,-0.37924 0.43593,-1.7637 1.79261,-1.4457c0.92258,0.21624 3.52678,1.79241 6.28518,2.18097c3.35297,0.47231 7.02111,0.06031 8.08647,-0.18807c2.56091,-0.59705 4.71409,-1.97931 7.19779,-2.73664c2.6287,-0.80155 6.08058,0.33968 8.19369,-0.14742c2.759,-0.63598 3.88207,-2.75598 4.4737,-2.48275c0.9551,0.44111 1.1764,2.48553 1.1764,3.15324z" fill="none" stroke="#000000" stroke-width="1" stroke-linecap="butt"/><path d="M218.016,201.76088l-1.35374,-3.62435c0,0 2.86188,-2.06291 7.79645,-1.49736c3.78984,0.43436 5.17319,4.28852 5.17319,4.28852c0,0 3.64026,-3.92497 4.82677,-3.25795c0.5253,0.29531 2.38695,1.07632 3.02893,2.15367c1.56526,2.62677 1.83879,6.43665 1.83879,6.43665c0,0 -0.38962,2.15032 -2.8422,2.80282c-1.71109,0.45523 -4.42211,0.33401 -7.16062,0.48662c-0.86888,0.04841 -1.72734,0.03298 -2.53595,0.25209c-1.87778,0.50881 -3.48542,1.52244 -5.47399,2.19183c-1.58275,0.53279 -3.53485,0.78644 -5.13357,0.83417c-3.67668,0.10978 -7.43579,-0.78023 -10.34767,-2.23501c-1.86859,-0.93355 1.54653,-3.71889 5.26847,-5.78605c3.32623,-1.84738 6.91512,-3.04568 6.91512,-3.04568z" fill="#ff292e" stroke="#000000" stroke-width="0" stroke-linecap="round"/><path d="M227.52103,197.97472c0.57898,0.48727 1.76925,1.93636 1.93663,2.918c0.14194,0.83248 -0.72154,1.20011 -0.49383,1.70666c0.20216,0.44972 1.45412,0.1613 1.45412,0.1613c0,0 2.0843,-0.8197 3.69484,-2.22683c0.78567,-0.68645 1.67119,-2.16619 1.67119,-2.16619c0,0 1.3571,0.87424 1.70362,1.45575c1.56526,2.62677 1.83879,6.43665 1.83879,6.43665c0,0 -0.38962,2.15032 -2.8422,2.80282c-1.71109,0.45523 -4.42211,0.33401 -7.16062,0.48662c-0.86888,0.04841 -1.72734,0.03298 -2.53595,0.25209c-1.87778,0.50881 -3.48542,1.52244 -5.47399,2.19183c-1.58275,0.53279 -3.53485,0.78644 -5.13357,0.83417c-1.00333,0.02996 -3.00957,-0.12465 -3.00957,-0.12465c0,0 -0.4644,-2.61955 1.69539,-4.97926c2.49234,-2.72304 7.82346,-3.99448 10.64035,-5.97468c2.53945,-1.78518 1.81516,-3.94229 2.01479,-3.77427z" fill="#ac0e49" stroke="#000000" stroke-width="0" stroke-linecap="round"/><path d="M229.63189,200.88603c0,0 0.13157,1.03343 -0.41294,1.4682c-0.39548,0.31577 -1.98884,0.57311 -1.98884,0.57311" fill="none" stroke="#000000" stroke-width="1" stroke-linecap="round"/><path d="M235.02503,200.88603c0,-0.44864 0.38126,-0.81235 0.85154,-0.81235c0.47029,0 0.85154,0.3637 0.85154,0.81235c0,0.44864 -0.38126,0.81235 -0.85154,0.81235c-0.47029,0 -0.85154,-0.3637 -0.85154,-0.81235z" fill="#000000" stroke="none" stroke-width="0.5" stroke-linecap="butt"/><path d="M218.016,201.76088l-1.35374,-3.62435c0,0 2.86188,-2.06291 7.79645,-1.49736c3.78984,0.43436 5.17319,4.28852 5.17319,4.28852c0,0 3.64026,-3.92497 4.82677,-3.25795c0.5253,0.29531 2.38695,1.07632 3.02893,2.15367c1.56526,2.62677 1.83879,6.43665 1.83879,6.43665c0,0 -0.38962,2.15032 -2.8422,2.80282c-1.71109,0.45523 -4.42211,0.33401 -7.16062,0.48662c-0.86888,0.04841 -1.72734,0.03298 -2.53595,0.25209c-1.87778,0.50881 -3.48542,1.52244 -5.47399,2.19183c-1.58275,0.53279 -3.53485,0.78644 -5.13357,0.83417c-3.67668,0.10978 -7.43579,-0.78023 -10.34767,-2.23501c-1.86859,-0.93355 1.54653,-3.71889 5.26847,-5.78605c3.32623,-1.84738 6.91512,-3.04568 6.91512,-3.04568z" fill="none" stroke="#000000" stroke-width="1" stroke-linecap="round"/><path d="M212.75393,203.92716c0,-0.26091 0.12895,-0.49312 0.32936,-0.64173c-0.14505,0.29719 -0.23521,0.62366 -0.25809,0.96759c-0.04583,-0.09974 -0.07127,-0.20996 -0.07127,-0.32585z" fill="#db93e6" stroke="none" stroke-width="0.5" stroke-linecap="butt"/><path d="M221.24752,201.40678c5.46086,0.04518 4.74065,6.12249 2.01282,4.34583c-0.57443,-0.37414 -1.16727,-1.1032 -1.78525,-1.54265c-0.82273,-0.58505 -2.24678,-1.1544 -3.10864,-1.62425c-0.29665,-0.127 -0.17241,-0.98971 0.2391,-1.15811c0.41152,-0.1684 1.76498,-0.02808 2.64196,-0.02082z" fill="#f0e0ec" stroke="none" stroke-width="0.5" stroke-linecap="butt"/><path d="M221.30875,207.17654c-0.04365,0.40958 -0.40628,0.72919 -0.84714,0.72919c-0.31254,0 -0.58574,-0.16062 -0.73387,-0.40006c-0.23542,-0.12833 -1.0702,-1.33183 -2.11918,-2.31546c-0.88762,-0.83231 -1.93227,-1.48424 -2.37751,-2.10269c-0.32656,-0.4536 -0.11566,-0.75791 0.3382,-0.92273c1.4707,-0.53408 6.92778,3.114 5.73951,5.01175z" data-paper-data="{&quot;index&quot;:null}" fill="#f0e0ec" stroke="none" stroke-width="0.5" stroke-linecap="butt"/><path d="M218.51819,207.54456c0.34086,1.23067 -1.11134,1.95133 -1.82757,0.87765c-0.42661,-0.63953 -0.92634,-1.64315 -1.56935,-2.15011c-0.67623,-0.53315 -1.51093,-0.91519 -1.94799,-1.64484c-0.25098,-0.14131 -0.41935,-0.40194 -0.41935,-0.7001c0,-0.44864 0.38126,-0.81235 0.85154,-0.81235c0.25901,0 0.49101,0.11032 0.6472,0.28439c1.68629,0.44148 3.94322,2.98175 4.26552,4.14539z" fill="#f0e0ec" stroke="none" stroke-width="0.5" stroke-linecap="butt"/><path d="M223.26032,205.75261c-0.55207,-0.35957 -1.12115,-1.04698 -1.71321,-1.49007c1.12468,-0.26906 1.98315,-1.17826 2.12515,-2.29807c2.70042,1.46934 1.81062,5.23572 -0.41194,3.78813z" fill="#db93e6" stroke="none" stroke-width="0.5" stroke-linecap="butt"/><path d="M221.30875,207.17654c-0.04365,0.40958 -0.40628,0.72919 -0.84714,0.72919c-0.31254,0 -0.58574,-0.16062 -0.73387,-0.40006c-0.17236,-0.09397 -0.66603,-0.76429 -1.3298,-1.50268c0.90607,-0.06237 1.69428,-0.53046 2.16605,-1.21478c0.76036,0.84073 1.16179,1.7223 0.74476,2.38831z" data-paper-data="{&quot;index&quot;:null}" fill="#db93e6" stroke="none" stroke-width="0.5" stroke-linecap="butt"/><path d="M218.51819,207.54456c0.34086,1.23067 -1.11134,1.95133 -1.82757,0.87765c-0.24424,-0.36614 -0.51246,-0.85164 -0.81781,-1.29495c0.7567,-0.05404 1.4307,-0.39111 1.90603,-0.90056c0.37445,0.50034 0.64312,0.97046 0.73934,1.31787z" fill="#db93e6" stroke="none" stroke-width="0.5" stroke-linecap="butt"/><path d="M221.24752,201.40678c5.46086,0.04518 4.74065,6.12249 2.01282,4.34583c-0.57443,-0.37414 -1.16727,-1.1032 -1.78525,-1.54265c-0.82273,-0.58505 -2.24678,-1.1544 -3.10864,-1.62425c-0.29665,-0.127 -0.17241,-0.98971 0.2391,-1.15811c0.41152,-0.1684 1.76498,-0.02808 2.64196,-0.02082z" fill="none" stroke="#000000" stroke-width="1" stroke-linecap="butt"/><path d="M221.30875,207.17654c-0.04365,0.40958 -0.40628,0.72919 -0.84714,0.72919c-0.31254,0 -0.58574,-0.16062 -0.73387,-0.40006c-0.23542,-0.12833 -1.0702,-1.33183 -2.11918,-2.31546c-0.88762,-0.83231 -1.93227,-1.48424 -2.37751,-2.10269c-0.32656,-0.4536 -0.11566,-0.75791 0.3382,-0.92273c1.4707,-0.53408 6.92778,3.114 5.73951,5.01175z" data-paper-data="{&quot;index&quot;:null}" fill="none" stroke="#000000" stroke-width="1" stroke-linecap="butt"/><path d="M216.69061,208.42222c-0.42661,-0.63953 -0.92634,-1.64315 -1.56935,-2.15011c-0.67623,-0.53315 -1.51093,-0.91519 -1.94799,-1.64484c-0.25098,-0.14131 -0.41935,-0.40194 -0.41935,-0.7001c0,-0.44864 0.38126,-0.81235 0.85154,-0.81235c0.25901,0 0.49101,0.11032 0.6472,0.28439c1.68629,0.44148 3.94322,2.98175 4.26552,4.14539c0.3223,1.16362 -1.11134,1.95132 -1.82757,0.87764z" fill="none" stroke="#000000" stroke-width="1" stroke-linecap="butt"/></g><g><path d="M239.41374,209.24532c0,0 0.39865,8.10159 14.87401,6.06091c13.7452,-1.93775 11.85129,-8.89373 11.85129,-8.89373l4.27955,1.833c0,0 -0.00879,1.15467 0.01294,2.54165c0.02086,1.33256 0.09675,2.86674 -1.05582,4.41341c-2.03671,2.7331 -6.88414,4.8493 -16.90496,5.25226c-20.4277,0.82144 -13.05701,-11.20749 -13.05701,-11.20749z" fill="#ffeffa" stroke="#000000" stroke-width="0" stroke-linecap="round"/><path d="M238.26483,215.08549c-0.01757,-0.07634 3.94933,5.51083 16.85261,3.7201c14.61857,-1.81277 15.30113,-10.56009 15.30113,-10.56009c0,0 -0.00879,1.15467 0.01294,2.54165c0.02086,1.33256 0.09675,2.86674 -1.05582,4.41341c-2.03671,2.7331 -6.88414,4.8493 -16.90496,5.25226c-10.29778,0.41409 -13.53129,-2.43741 -14.20592,-5.36731z" fill="#dd95e8" stroke="#000000" stroke-width="0" stroke-linecap="round"/><path d="M239.41374,209.24532c0,0 0.39865,8.10159 14.87401,6.06091c13.7452,-1.93775 11.85129,-8.89373 11.85129,-8.89373l4.27955,1.833c0,0 -0.00879,1.15467 0.01294,2.54165c0.02086,1.33256 0.09675,2.86674 -1.05582,4.41341c-2.03671,2.7331 -6.88414,4.8493 -16.90496,5.25226c-20.4277,0.82144 -13.05701,-11.20749 -13.05701,-11.20749z" fill="none" stroke="#000000" stroke-width="1" stroke-linecap="round"/><path d="M244.69648,199.75628c1.34044,-1.14228 6.95852,-2.30437 9.71556,-1.79434c1.66382,0.3078 1.37752,1.88263 1.37752,1.88263c0,0 6.62387,-3.19613 7.36304,-2.70253c0.2884,0.1926 1.56092,2.01725 0.94397,3.0827c-0.914,1.57849 -3.94013,2.53598 -3.94013,2.53598c0,0 0.39391,0.11944 0.99808,0.35595c-4.45968,0.26305 -10.64808,2.73599 -13.33467,2.89285c-0.29477,0.01722 -0.09546,-0.55617 -0.15269,-0.83256c-0.24367,-1.17694 -0.37139,-2.51096 -1.17304,-3.50224c-0.5418,-0.66997 -1.23015,-1.24986 -2.00266,-1.71892c0.066,-0.07232 0.13435,-0.13926 0.20502,-0.19949z" fill="#ff292e" stroke="#000000" stroke-width="0" stroke-linecap="butt"/><path d="M239.80676,206.55167l-4.34411,-0.15927c0,0 -0.77373,-1.03532 0.66174,-3.84284l0.45131,0.75345c0.91221,1.52291 6.02126,-0.09464 5.52867,2.76797c-0.11348,0.65945 -1.34472,0.90158 -2.51596,1.45162c0.11282,-0.59771 0.21834,-0.97094 0.21834,-0.97094z" fill="#ff292e" stroke="#000000" stroke-width="0" stroke-linecap="butt"/><path d="M258.55886,209.42616c0.37526,-0.08099 0.89842,-0.10805 1.49548,-0.11461c-0.6582,0.16291 -1.35205,0.22891 -2.06597,0.23506c0.2104,-0.04341 0.40179,-0.08403 0.57048,-0.12043z" fill="#ac0e49" stroke="#000000" stroke-width="0" stroke-linecap="butt"/><path d="M243.21293,202.59406c0,0 0.53248,-2.0273 1.48356,-2.83778c1.34044,-1.14228 6.95852,-2.30437 9.71556,-1.79434c1.66382,0.3078 1.37752,1.88263 1.37752,1.88263c0,0 6.62387,-3.19613 7.36304,-2.70253c0.2884,0.1926 1.56092,2.01725 0.94397,3.0827c-0.914,1.57849 -3.94013,2.53598 -3.94013,2.53598c0,0 3.33659,1.01163 5.48143,2.97677c3.33137,3.05229 4.28116,7.93419 -10.8019,11.26378c-1.82359,0.40256 -10.24815,0.90954 -13.80623,-2.0529c-2.91172,-2.42428 -1.22296,-8.39667 -1.22296,-8.39667l-4.34411,-0.15927c0,0 -0.81075,-1.0849 0.76737,-4.04508c0.36908,-0.69231 6.98289,0.24673 6.98289,0.24673z" fill="#ff292e" stroke="#000000" stroke-width="0" stroke-linecap="round"/><path d="M239.80676,206.55167l-4.34411,-0.15927c0,0 -0.5526,-0.73945 0.14267,-2.66312c2.01221,0.71505 6.32573,1.16653 7.56395,1.70592c0.1474,0.06421 -1.22315,0.73751 -1.37557,0.83005c-0.90728,0.55079 -1.52615,1.09586 -2.24348,1.84863c-0.02522,0.02646 -0.0499,0.05322 -0.07406,0.08027c0.14242,-0.97692 0.33061,-1.6425 0.33061,-1.6425z" fill="#ac0e49" stroke="#000000" stroke-width="0" stroke-linecap="butt"/><path d="M239.05348,206.67924c-0.27801,0.23729 -2.59622,0.16843 -2.5462,-0.52351c-0.05436,-0.10698 -0.08485,-0.22706 -0.08485,-0.35393c0,-0.44864 0.38126,-0.81235 0.85154,-0.81235c0.24495,0 0.46575,0.09867 0.6211,0.25661c1.13659,-0.04813 2.16741,0.57193 1.15841,1.43318z" fill="#000000" stroke="none" stroke-width="0.5" stroke-linecap="butt"/><path d="M254.83595,217.00126c-1.82359,0.40256 -10.24815,0.90954 -13.80623,-2.0529c-0.32533,-0.27087 -0.59323,-0.58605 -0.81246,-0.93221c3.27123,0.17258 11.42876,-3.65825 14.41142,-4.34002c1.79323,-0.4099 6.02126,0.01355 8.84055,-0.68862c0.18886,-0.04703 1.24791,1.88596 1.63171,1.49441c0.40824,-0.41648 1.11923,-3.49244 1.10398,-4.18025c2.82061,3.06417 2.8157,7.56833 -11.36896,10.69961z" fill="#ac0e49" stroke="#000000" stroke-width="0" stroke-linecap="butt"/><path d="M264.09655,200.22472c-0.914,1.57849 -3.94013,2.53598 -3.94013,2.53598c0,0 0.90536,0.27451 2.07602,0.81528c-2.66567,0.1623 -5.44928,0.89827 -5.64131,0.29418c-0.45724,-1.4384 4.03963,-3.89791 6.18629,-5.55045c0.30504,-0.17908 0.57186,-0.41167 0.78612,-0.68403c0.44217,0.66182 0.97709,1.82211 0.533,2.58906z" fill="#ac0e49" stroke="#000000" stroke-width="0" stroke-linecap="butt"/><path d="M245.44005,205.67682l-2.44546,-2.91613" fill="none" stroke="#000000" stroke-width="1" stroke-linecap="round"/><path d="M245.35271,208.46799c0,0 -1.49403,-0.21262 -1.65069,-0.56657c-0.47415,-1.0713 0.60263,-1.43307 0.60263,-1.43307c0,0 3.40776,-2.18094 5.94883,-2.66642c4.15359,-0.79358 6.54046,-0.04142 6.54046,-0.04142c0,0 1.23781,0.05624 1.58167,0.66756c0.31877,0.56672 -0.18426,0.99881 -0.18426,0.99881c0,0 1.72674,0.03405 2.46135,0.85769c0.96304,1.07976 0.15878,1.35026 0.15878,1.35026c0,0 1.28802,-0.00337 1.70043,0.89495c0.32291,0.70336 -0.52137,1.14636 -0.52137,1.14636c0,0 -5.30213,0.3294 -7.84716,0.74104c-2.52032,0.40765 -7.3496,1.71685 -7.3496,1.71685c0,0 -1.00933,0.43384 -1.29894,-0.65451c-0.2407,-0.90456 0.46921,-1.38679 0.46921,-1.38679c0,0 -1.05033,0.45217 -1.32993,-0.42474c-0.19078,-0.59832 0.71857,-1.19996 0.71857,-1.19996z" fill="#feeffb" stroke="#000000" stroke-width="0" stroke-linecap="round"/><path d="M250.25347,203.80193c4.15359,-0.79358 6.54046,-0.04142 6.54046,-0.04142c0,0 0.92462,0.04201 1.39759,0.44809c-1.7482,1.45306 -2.98165,4.32376 -5.52474,3.82453c-1.55929,-0.3061 -2.8142,-2.03376 -4.05922,-3.74826c0.56049,-0.21045 1.12164,-0.38279 1.64589,-0.48296z" fill="#dd95e8" stroke="#000000" stroke-width="0" stroke-linecap="round"/><path d="M246.09507,210.13437c0,0 3.24102,-0.96667 6.65473,-1.60666c2.95806,-0.55456 7.71232,-0.68459 7.71232,-0.68459" fill="none" stroke="#000000" stroke-width="1" stroke-linecap="round"/><path d="M245.30903,208.38468c0,0 2.26763,-1.44052 5.79212,-2.26113c2.09842,-0.48857 6.82817,-0.65502 6.82817,-0.65502" fill="none" stroke="#000000" stroke-width="1" stroke-linecap="round"/><path d="M245.35271,208.46799c0,0 -1.49403,-0.21262 -1.65069,-0.56657c-0.47415,-1.0713 0.60263,-1.43307 0.60263,-1.43307c0,0 3.40776,-2.18094 5.94883,-2.66642c4.15359,-0.79358 6.54046,-0.04142 6.54046,-0.04142c0,0 1.23781,0.05624 1.58167,0.66756c0.31877,0.56672 -0.18426,0.99881 -0.18426,0.99881c0,0 1.72674,0.03405 2.46135,0.85769c0.96304,1.07976 0.15878,1.35026 0.15878,1.35026c0,0 1.28802,-0.00337 1.70043,0.89495c0.32291,0.70336 -0.52137,1.14636 -0.52137,1.14636c0,0 -5.30213,0.3294 -7.84716,0.74104c-2.52032,0.40765 -7.3496,1.71685 -7.3496,1.71685c0,0 -1.00933,0.43384 -1.29894,-0.65451c-0.2407,-0.90456 0.46921,-1.38679 0.46921,-1.38679c0,0 -1.05033,0.45217 -1.32993,-0.42474c-0.19078,-0.59832 0.71857,-1.19996 0.71857,-1.19996z" fill="none" stroke="#000000" stroke-width="1" stroke-linecap="round"/><path d="M262.91484,199.40716c1.17117,0.37242 0.41092,1.79403 -0.40753,2.55777c-0.13237,0.28471 -0.43128,0.4833 -0.77879,0.4833c-0.47029,0 -0.85154,-0.3637 -0.85154,-0.81235c0,-0.18131 0.06227,-0.34874 0.16751,-0.48392c0.40006,-0.77202 1.40919,-1.89147 1.87037,-1.74482z" fill="#000000" stroke="none" stroke-width="0.5" stroke-linecap="butt"/><path d="M244.69648,199.75628c1.34044,-1.14228 6.95852,-2.30437 9.71556,-1.79434c1.66382,0.3078 1.37752,1.88263 1.37752,1.88263c0,0 6.62387,-3.19613 7.36304,-2.70253c0.2884,0.1926 1.56092,2.01725 0.94397,3.0827c-0.914,1.57849 -3.94013,2.53598 -3.94013,2.53598c0,0 3.33659,1.01163 5.48143,2.97677c3.33137,3.05229 4.28116,7.93419 -10.8019,11.26378c-1.82359,0.40256 -10.24815,0.90954 -13.80623,-2.0529c-2.91172,-2.42428 -1.22296,-8.39667 -1.22296,-8.39667l-4.34411,-0.15927c0,0 -0.81075,-1.0849 0.76737,-4.04508c0.36908,-0.69231 6.98289,0.24673 6.98289,0.24673c0,0 0.53247,-2.02731 1.48355,-2.83779z" fill="none" stroke="#000000" stroke-width="1" stroke-linecap="round"/></g><g><path d="M236.50279,182.10129c0,0 -1.04431,-3.97841 1.05086,-5.18473c5.79337,-3.33561 12.57381,-2.26184 12.57381,-2.26184c0,0 4.42975,-2.27667 6.86384,-1.54245c2.19256,0.66137 -0.60565,4.12076 -0.5796,7.08706c0.01329,1.51131 1.53533,3.13826 2.07546,4.56569c0.52,1.37423 0.08836,2.57344 -1.36887,2.80398c-3.07747,0.48687 -7.27469,-3.16604 -7.27469,-3.16604l2.27078,8.93588c0,0 -6.80646,3.33276 -17.51908,2.09964c-7.61816,-0.87692 -9.16255,-6.56759 -9.16255,-6.56759c0,0 2.72022,-2.5418 4.56993,-3.67295c1.84025,-1.12536 6.50012,-3.09667 6.50012,-3.09667z" fill="#feecf7" stroke="#000000" stroke-width="0" stroke-linecap="round"/><path d="M236.50279,182.10129c0,0 -1.04431,-3.97841 1.05086,-5.18473c5.79337,-3.33561 12.57381,-2.26184 12.57381,-2.26184c0,0 4.42975,-2.27667 6.86384,-1.54245c1.71512,0.51736 0.37634,2.74684 -0.27555,5.11312c-0.72013,0.10818 -9.28484,2.40741 -9.28484,2.40741l2.41271,3.77016l2.27078,8.93588c0,0 -0.99005,0.48478 -2.80926,1.01615c-0.18603,-0.59628 -2.59197,-13.74956 -2.59197,-13.74956c0,0 -14.08387,3.23034 -13.84837,3.11971c1.81555,-0.85289 3.63799,-1.62386 3.63799,-1.62386z" fill="#dc94e7" stroke="#000000" stroke-width="0" stroke-linecap="butt"/><path d="M250.12747,174.6547c0,0 4.42975,-2.27667 6.86384,-1.54245c2.19256,0.66137 -0.60565,4.12076 -0.5796,7.08706c0.01329,1.51131 1.53533,3.13826 2.07546,4.56569c0.52,1.37423 0.08836,2.57344 -1.36887,2.80398c-3.07747,0.48687 -7.27469,-3.16604 -7.27469,-3.16604l2.27078,8.93588c0,0 -6.80646,3.33276 -17.51908,2.09964c-7.61816,-0.87692 -9.16255,-6.56759 -9.16255,-6.56759c0,0 2.72022,-2.5418 4.56993,-3.67295c1.84025,-1.12536 6.50012,-3.09667 6.50012,-3.09667c0,0 -1.04432,-3.97841 1.05085,-5.18473c2.09517,-1.20633 12.5738,-2.26182 12.5738,-2.26182z" fill="none" stroke="#000000" stroke-width="1" stroke-linecap="round"/><g fill="none" stroke="#ff0000" stroke-width="1"><path d="M241.07043,190.06852c-2.66529,1.53269 -5.49143,1.78205 -6.99071,0.64981c-1.53913,-1.16233 -0.03216,-3.90357 2.61974,-5.58921c2.00316,-1.27327 4.67835,-2.0158 7.08115,-0.61515c1.68726,0.98355 0.05922,3.96199 -2.71018,5.55454z" stroke-linecap="butt"/><path d="M237.18662,184.97224l1.65942,5.499" stroke-linecap="round"/></g><path d="M249.52307,175.21322c-0.16111,0.26898 -0.33633,0.52487 -0.5245,0.76781c-1.89087,2.44129 -5.08964,3.57408 -8.42749,3.51295c-1.09866,-0.02011 -3.64914,-0.18018 -3.4049,-1.78545c0.45361,-2.98134 11.45773,-3.99645 11.92382,-3.21834z" fill="#f89688" stroke="#000000" stroke-width="1" stroke-linecap="butt"/></g><g stroke="#000000" stroke-linecap="round"><path d="M249.98159,184.97222c0,0 1.81041,1.22154 2.7505,1.77506c1.95297,1.14986 3.79982,0.93279 3.79982,0.93279c0,0 -0.06836,1.47484 0.52491,3.08008c0.50559,1.36802 1.65121,2.59222 1.57237,3.20548c-0.16626,1.29297 -2.52106,2.00699 -4.61569,2.10011c-3.46633,0.15412 -4.68694,-1.09533 -4.68694,-1.09533c0,0 -0.12527,-3.82145 -0.00286,-5.58802c0.10887,-1.57092 0.65789,-4.41018 0.65789,-4.41018z" fill="#fddfbd" stroke-width="0"/><path d="M249.98159,184.97222c0,0 1.81041,1.22154 2.7505,1.77506c1.95297,1.14986 3.79982,0.93279 3.79982,0.93279c0,0 -0.04462,0.96244 0.25098,2.17859c-0.84407,-0.24294 -1.3977,0.05149 -3.19801,-0.40342c-2.54666,-0.64351 -3.5401,-1.96791 -3.98265,-2.30338c0.18166,-1.15721 0.37935,-2.17963 0.37935,-2.17963z" fill="#fa9789" stroke-width="0"/><path d="M252.73209,186.74728c1.95297,1.14986 3.79982,0.93279 3.79982,0.93279c0,0 -0.06836,1.47484 0.52491,3.08008c0.50559,1.36802 1.65121,2.59222 1.57237,3.20548c-0.16626,1.29297 -2.52106,2.00699 -4.61569,2.10011c-3.46633,0.15412 -4.68694,-1.09533 -4.68694,-1.09533c0,0 -0.12527,-3.82145 -0.00286,-5.58802c0.10887,-1.57092 0.65789,-4.41018 0.65789,-4.41018c0,0 1.8104,1.22154 2.75049,1.77506z" fill="none" stroke-width="1"/></g><g><path d="M247.88548,194.63717l3.53718,-2.54121l4.62889,2.62453l2.44546,-1.33309l2.66379,3.66601c0,0 -5.45361,8.04939 -7.63257,8.38744c-2.01498,0.31261 -4.98774,-6.42947 -4.98774,-6.42947z" fill="#0066cd" stroke="#000000" stroke-width="0" stroke-linecap="round"/><path d="M253.9622,201.88239c2.00958,-1.61 2.75632,-4.75358 5.48649,-5.71213c0.4071,-0.14292 1.28632,-0.16622 1.45282,0.35194c0.30932,0.96259 -5.88389,8.94288 -7.51376,8.88381c-1.42393,-0.05159 -3.45802,-2.9769 -4.29688,-5.02973c-0.4949,-1.2111 -0.20368,-2.00988 -0.12417,-2.02884c0.13873,-0.09351 1.58972,0.62561 1.67255,0.99149c1.38703,0.90151 3.15283,2.67975 3.32294,2.54346z" fill="#061484" stroke="none" stroke-width="0.5" stroke-linecap="butt"/><path d="M247.88548,194.63714l3.53718,-2.54121l4.62889,2.62453l2.44546,-1.33309l2.66379,3.66601c0,0 -5.45361,8.0494 -7.63257,8.38744c-2.01497,0.31261 -4.98774,-6.42947 -4.98774,-6.42947" fill="none" stroke="#000000" stroke-width="1" stroke-linecap="round"/></g></g><g stroke="#000000"><g stroke-linecap="butt"><path d="M264.51408,170.24863l0.38587,-2.31046c0,0 8.97102,-1.64447 11.09071,-0.78882c1.48805,0.60067 1.84754,4.84809 -0.7111,5.59971c-3.40736,1.00092 -10.76547,-2.50042 -10.76547,-2.50042z" fill="#0066cd" stroke-width="0"/><path d="M264.5141,170.24863l0.13695,-0.82001c0,0 2.06105,0.01489 4.1166,0.21565c1.58873,0.15517 2.98847,0.481 4.59356,0.62348c1.90899,0.16946 3.73563,0.18921 3.7197,0.27318c-0.18893,0.99634 -0.74771,1.89863 -1.80133,2.20815c-3.40736,1.00093 -10.76548,-2.50043 -10.76548,-2.50043z" fill="#061483" stroke-width="0"/><path d="M264.5141,170.24863l0.38587,-2.31046c0,0 8.97102,-1.64446 11.09071,-0.78881c1.48806,0.60067 1.84754,4.84809 -0.7111,5.59971c-3.40736,1.00093 -10.76548,-2.50043 -10.76548,-2.50043z" fill="none" stroke-width="1"/></g><g stroke-linecap="round"><path d="M225.62453,178.10848c0,0 -11.43295,-23.48882 11.21771,-26.10831c23.22464,-2.68587 21.81667,18.26184 21.81667,18.26184c0,0 5.41524,-5.71114 6.38947,-5.28612c0.82232,0.35874 0.21911,5.45708 -0.33312,7.44998c-0.40806,1.47262 -0.82745,4.59337 -2.17141,4.95645c-0.84592,0.22852 -4.77792,-2.10599 -4.77792,-2.10599c0,0 -6.8351,5.13201 -13.41558,7.38185c-6.49813,2.22167 -16.19488,2.46718 -16.19488,2.46718c0,0 -7.21181,0.1429 -7.7143,-2.27724c-0.42817,-2.06216 5.18334,-4.73965 5.18334,-4.73965z" fill="#fde0be" stroke-width="0"/><path d="M253.95098,177.85874c-0.0317,0.01991 -1.5502,-1.91068 -1.5502,-1.91068l-2.84037,2.95736l-5.75646,-6.55325l-6.23915,5.1651l-1.79509,-6.34876c0,0 -10.97902,4.94739 -10.99001,4.9182c-2.16538,-5.75308 -6.51383,-21.93824 12.06255,-24.08655c23.22464,-2.68587 21.81667,18.26184 21.81667,18.26184c0,0 5.73316,3.51317 5.69333,3.68135c-0.35009,1.47857 -0.83847,3.17694 -1.80839,3.43895c-0.84592,0.22852 -4.77792,-2.10599 -4.77792,-2.10599c0,0 -1.51933,1.14075 -3.81498,2.5824z" fill="#fc988a" stroke-width="0"/><path d="M259.24224,171.67912l2.867,-1.79755l-0.50725,5.08302z" fill="#f79587" stroke-width="0.5"/><path d="M236.84224,152.00016c23.22464,-2.68587 21.81667,18.26184 21.81667,18.26184c0,0 5.41524,-5.71114 6.38947,-5.28612c0.82232,0.35874 0.21911,5.45708 -0.33312,7.44998c-0.40806,1.47262 -0.82745,4.59337 -2.17141,4.95645c-0.84592,0.22852 -4.77792,-2.10599 -4.77792,-2.10599c0,0 -6.8351,5.13201 -13.41558,7.38185c-6.49813,2.22167 -16.19488,2.46718 -16.19488,2.46718c0,0 -7.21181,0.1429 -7.7143,-2.27724c-0.42817,-2.06216 5.18334,-4.73965 5.18334,-4.73965c0,0 -11.43294,-23.48881 11.21772,-26.10831z" fill="none" stroke-width="1"/></g><g stroke-linecap="round"><path d="M263.8212,162.29976c0,0 -1.4075,3.63659 -2.32538,5.16712c-0.79262,1.32165 -2.86148,3.48172 -2.86148,3.48172c0,0 -11.37467,-3.60167 -18.89528,-3.47951c-7.68178,0.12476 -17.34974,2.23448 -17.34974,2.23448c0,0 -5.96489,-17.23245 -2.74332,-20.36342c2.34579,-2.27982 9.59978,-5.11256 16.97511,-5.51037c3.36148,-0.18132 12.98265,-0.59898 16.47438,2.03043c4.67984,3.52411 10.72572,16.43955 10.72572,16.43955z" fill="#ff292e" stroke-width="0"/><path d="M263.8212,162.29976c0,0 -1.4075,3.6366 -2.32538,5.16712c-0.79262,1.32165 -2.86147,3.48172 -2.86147,3.48172c0,0 -5.50845,-1.74419 -11.39321,-2.76386c-0.15404,-0.02668 0.51056,-14.29417 2.70235,-20.17772c0.72579,-1.94828 2.28339,-2.80094 3.152,-2.14683c4.67984,3.52412 10.72573,16.43956 10.72573,16.43956z" fill="#ac0e49" stroke-width="0.5"/><path d="M261.4958,167.46688c-0.79262,1.32165 -2.86147,3.48172 -2.86147,3.48172c0,0 -11.37467,-3.60167 -18.89529,-3.4795c-7.68178,0.12476 -17.34973,2.23448 -17.34973,2.23448c0,0 -5.96489,-17.23246 -2.74332,-20.36342c2.3458,-2.27982 9.59978,-5.11256 16.97511,-5.51037c3.36148,-0.18132 12.98265,-0.59899 16.47436,2.03043c4.67984,3.52412 10.72573,16.43956 10.72573,16.43956c0,0 -1.4075,3.63659 -2.32538,5.16711z" fill="none" stroke-width="1"/></g><g stroke-linecap="round"><path d="M223.94955,175.22352c0,0 -3.68116,1.47418 -5.32958,2.37843c-1.67366,0.9181 -4.6378,3.08926 -4.6378,3.08926c0,0 1.04782,-4.04959 1.86373,-5.92229c0.77487,-1.77847 2.91494,-5.04584 2.91494,-5.04584l-9.34918,1.99623c0,0 6.93072,-13.80736 10.26742,-15.8462c1.99004,-1.21599 10.58777,2.64724 10.58777,2.64724c0,0 0.87302,-2.83673 1.56506,-4.19969c0.63017,-1.24112 2.41894,-3.64679 2.41894,-3.64679c0,0 2.3775,5.85178 3.82807,8.64176c1.51116,2.90649 5.0646,8.46193 5.0646,8.46193l15.18356,2.78349l-0.37831,6.81718l-6.53713,-5.30283l-2.07125,3.80963l-6.19686,-8.10747l-4.31053,4.76389l-1.83982,-4.86428c0,0 -10.52127,4.14651 -12.78703,5.69744c-0.61763,0.42277 -0.25656,1.84891 -0.25656,1.84891z" fill="#4fa6ec" stroke-width="0"/><path d="M225.72118,165.6409l-11.73898,15.05032c0,0 1.04782,-4.04959 1.86372,-5.92229c0.77486,-1.77847 2.91494,-5.04584 2.91494,-5.04584l-9.34917,1.99622c0,0 6.93071,-13.80736 10.26742,-15.8462c1.99003,-1.21599 10.58778,2.64723 10.58778,2.64723c0,0 0.87301,-2.83673 1.56505,-4.19969c0.63017,-1.24112 2.41894,-3.64678 2.41894,-3.64678l-0.78989,12.08469c0,0 -9.55771,-3.08133 -11.68932,-2.45124c-3.34548,0.98888 -7.13764,8.59765 -7.13764,8.59765z" fill="#66ffff" stroke-width="0"/><path d="M248.56378,170.35267l-0.10294,4.38159l-3.75478,-4.91246z" fill="#66ffff" stroke-width="0"/><path d="M213.98221,180.69122c0,0 1.04782,-4.04959 1.86372,-5.92229c0.77486,-1.77847 2.91494,-5.04584 2.91494,-5.04584l-9.34917,1.99622c0,0 6.93071,-13.80736 10.26742,-15.8462c1.99003,-1.21599 10.58778,2.64723 10.58778,2.64723c0,0 0.87301,-2.83673 1.56505,-4.19969c0.63017,-1.24112 2.41894,-3.64678 2.41894,-3.64678c0,0 2.37749,5.85177 3.82806,8.64175c1.51115,2.90649 5.0646,8.46193 5.0646,8.46193l15.18356,2.78349l-0.37831,6.81718l-6.53713,-5.30282l-2.07126,3.80963l-6.19687,-8.10747l-4.31054,4.76389l-1.83982,-4.86428c0,0 -10.52127,4.14651 -12.78703,5.69744c-0.61763,0.42277 -0.25656,1.84891 -0.25656,1.84891c0,0 -3.68114,1.47418 -5.32957,2.37843c-1.64842,0.90426 -4.6378,3.08923 -4.6378,3.08923z" fill="none" stroke-width="1"/></g></g><g><path d="M222.02769,160.45126c0,0 3.34263,5.09609 6.65392,8.14723c2.42549,2.23492 7.82636,6.0715 7.82636,6.0715c0,0 2.16933,-2.21469 4.54624,-5.03934c2.96183,-3.51977 6.4059,-7.95822 8.23453,-9.90811c2.07828,-2.2161 5.08776,-4.10599 5.08776,-4.10599c0,0 -7.24448,9.06784 -10.37397,12.81318c-0.07116,0.08515 -0.54146,2.34105 -0.73629,4.56085c-0.2029,2.3118 -0.14592,4.59016 -1.02487,4.62908c-2.51489,0.11142 -2.54879,-4.22582 -3.09868,-3.60831c-1.16841,1.31213 -2.02442,2.25961 -2.02442,2.25961c0,0 -1.51777,-0.66025 -3.59843,-2.00104c-0.03816,-0.02458 -0.01848,0.81606 0.09763,1.85331c0.15313,1.36788 0.32811,3.02968 -0.6864,3.02381c-0.97734,-0.00565 -2.06001,-1.56184 -2.69857,-3.55326c-0.64525,-2.01234 -0.84174,-4.46048 -0.92428,-4.535c-4.94942,-4.46745 -7.28052,-10.60753 -7.28052,-10.60753z" fill="#000000" stroke="#000000" stroke-width="0" stroke-linecap="round"/><path d="M246.48421,176.94083c-0.74721,1.27742 -1.72145,2.18397 -2.81481,3.01356c1.38606,-0.2227 2.78226,-0.57966 3.62177,-1.32087c0.61825,-0.54584 0.83089,-1.5506 1.10512,-2.41658c-0.59379,0.10046 -1.20516,0.23167 -1.8154,0.34017zM234.30422,180.70502c0,0 4.67112,-0.41548 6.55397,-0.37851c0.14513,-0.02182 0.29815,-0.04273 0.45765,-0.06335c1.5307,-1.0636 2.96164,-1.985 3.98415,-3.52929c-0.23233,0.01941 -1.38172,-0.89473 -1.38172,-0.89473c0,0 3.43365,-0.60059 4.71346,-0.78404l0.49041,0.0081c0.09611,-0.02059 0.20942,-0.01275 0.33821,0.04976c0.09678,0.03829 0.20331,0.10721 0.26821,0.23119c0.07191,0.12006 0.07511,0.2469 0.0573,0.34945c-0.01384,0.14224 -0.0661,0.24291 -0.13365,0.31415c-0.59406,1.05763 -0.64543,2.57019 -1.60865,3.44865c-1.63167,1.48806 -5.02096,1.68273 -7.11524,1.98293c-0.81619,-0.01603 -2.881,0.07874 -4.14281,-0.03531c-1.65809,-0.14986 -2.48129,-0.69902 -2.48129,-0.69902z" fill="#000000" stroke="none" stroke-width="0.5" stroke-linecap="butt"/><path d="M246.59971,176.50462c0.61024,-0.1085 1.24654,-0.2218 1.84032,-0.32227c-0.27423,0.86597 -0.47948,1.92755 -1.09774,2.4734c-0.8395,0.74121 -2.33056,1.11049 -3.71661,1.33318c1.09338,-0.82959 2.13179,-1.82259 2.87901,-3.10002z" data-paper-data="{&quot;noHover&quot;:false,&quot;origItem&quot;:[&quot;Path&quot;,{&quot;applyMatrix&quot;:true,&quot;segments&quot;:[[[815.6142,327.59136],[0,0],[-1.65831,2.07269]],[[809.83498,332.20743],[2.15617,-1.1879],[2.51774,-0.03472]],[[816.60604,330.80527],[-1.68264,1.09707],[1.23918,-0.80793]],[[819.1958,326.80402],[-0.7119,1.46551],[-1.07993,0.02386]],[[815.88553,326.93555],[1.1112,-0.03384],[0,0]]],&quot;closed&quot;:true}]}" fill="#ffffff" stroke="none" stroke-width="0.5" stroke-linecap="butt"/></g><path d="M176.16669,243.83333v-127.66667h127.66667v127.66667z" fill="none" stroke="none" stroke-width="NaN" stroke-linecap="butt"/></g></g></svg>