<svg version="1.1" xmlns="http://www.w3.org/2000/svg" xmlns:xlink="http://www.w3.org/1999/xlink" width="189.26654" height="221.55319" viewBox="0,0,189.26654,221.55319"><g transform="translate(-205.36673,-69.22341)"><g data-paper-data="{&quot;isPaintingLayer&quot;:true}" fill-rule="nonzero" stroke-linejoin="miter" stroke-miterlimit="10" stroke-dasharray="" stroke-dashoffset="0" style="mix-blend-mode: normal"><path d="M205.36673,290.77659v-221.55318h189.26654v221.55319z" fill="none" stroke="none" stroke-width="NaN" stroke-linecap="butt"/><g data-paper-data="{&quot;index&quot;:null}" fill="#000000"><g><g data-paper-data="{&quot;origRot&quot;:0}" stroke="#000000" stroke-width="3" stroke-linecap="round"><path d="M347.22584,220.1007c0.14165,2.44592 -8.57963,1.5338 -8.57963,1.5338c0,0 -23.14294,-1.75649 -34.07734,-2.53891c-4.53845,-1.01819 -7.86747,-39.83053 -4.18758,-44.31429c1.64038,-1.99873 11.19121,-4.83444 12.73903,-3.54308c2.94614,2.45798 8.78773,18.21699 8.78773,18.21699l-4.15194,0.48771l10.9737,-0.21803c0,0 12.75678,-1.3919 18.23152,-0.45785c3.03633,0.51804 0.26452,30.83366 0.26452,30.83366z" data-paper-data="{&quot;origPos&quot;:null}"/><path d="M336.87244,189.90675l0.44376,30.04603"/><path d="M332.58438,190.25632l0.72992,30.04179" data-paper-data="{&quot;origPos&quot;:null}"/></g><path d="M337.14743,220.57839l-2.80918,0.05911l-0.64659,-30.73062l2.80918,-0.0591z" stroke="none" stroke-width="0" stroke-linecap="butt"/><path d="M304.28252,219.25727l-3.5714,-10.50572l-1.60288,-23.94771l1.35736,-8.37975l3.46871,-3.77895l7.47763,-0.57878l1.49552,-0.11576l8.04179,16.4284l-2.97177,0.48076l0.15436,1.99404l13.26837,-0.27477l1.58669,30.21767l-27.22816,-1.90443z" stroke="#000000" stroke-width="0.5" stroke-linecap="round"/></g><g stroke="#000000" stroke-width="2" stroke-linecap="round"><path d="M325.29149,189.0084c0,0 3.76576,-3.27228 6.05833,-0.75852c3.66801,4.02192 -26.09922,26.71372 -30.15717,22.76613c-1.65798,-1.61289 0.66932,-4.42259 0.66932,-4.42259l1.69942,1.29699c0,0 6.47207,-2.94157 13.52727,-8.06884c6.95744,-5.05623 10.5949,-9.66258 10.5949,-9.66258z"/><path d="M316.94707,183.90678c0,0 0.47807,-4.4852 2.90343,-3.51711c5.0912,2.03216 -2.15053,42.86722 -6.46381,39.81999c-2.61221,-1.84546 -0.93626,-5.55106 -0.93626,-5.55106l1.27573,0.91474c0,0 2.15272,-5.86823 3.63892,-15.13471c1.48622,-9.26649 0.87842,-15.82387 0.87842,-15.82387z" data-paper-data="{&quot;index&quot;:null}"/></g></g><g fill="#000000" stroke="#000000" stroke-linecap="round"><path d="M285.43659,179.84507c0,0 -27.74163,7.89121 -29.05952,-10.04101c-0.48556,-6.60682 15.81827,-6.15842 15.81827,-6.15842z" data-paper-data="{&quot;origPos&quot;:null}" stroke-width="2"/><path d="M276.58838,168.75292c0,0 -16.01352,-0.7724 -15.84869,-1.3993c0.52266,-1.98766 12.31423,-2.25671 12.31423,-2.25671z" data-paper-data="{&quot;origPos&quot;:null}" stroke-width="1"/></g><g data-paper-data="{&quot;origRot&quot;:0}" fill="#000000" stroke="#000000" stroke-linecap="round"><path d="M301.13645,229.46543c0,0 -1.86688,-4.42284 -0.42778,-4.98017c4.24658,-1.64455 7.7302,-4.81051 12.28388,-4.85364c1.89093,-0.01792 4.1162,3.64828 4.1162,3.64828l16.24607,28.84773c0,0 1.71636,2.95686 2.64262,4.69053c0.99034,1.85359 1.18846,5.15728 -0.72537,6.02551c-7.02695,3.18792 -10.81703,6.46848 -15.70126,7.33551c-1.7794,0.31588 -3.68857,0.53428 -4.97117,-0.73891c-1.67543,-1.66309 -2.6985,-6.02649 -2.6985,-6.02649z" data-paper-data="{&quot;origPos&quot;:null}" stroke-width="3"/><path d="M337.30262,259.90624c0,0 -4.46913,4.70842 -9.16384,6.66751c-3.60193,1.50308 -11.7978,3.8137 -11.7978,3.8137c0,0 -2.25265,-1.88542 -2.95106,-3.32788c-0.73576,-1.51956 -0.7239,-4.26192 -0.7239,-4.26192l21.20527,-9.71294z" data-paper-data="{&quot;origPos&quot;:null}" stroke-width="2"/><path d="M301.33511,229.73018c0,0 -1.86688,-4.42284 -0.42778,-4.98016c4.24657,-1.64454 7.7302,-4.81052 12.28388,-4.85361c1.89093,-0.01792 4.11619,3.64828 4.11619,3.64828l16.24606,28.84773c0,0 1.71639,2.95687 2.64265,4.69052c0.99034,1.85359 1.18847,5.15727 -0.72537,6.02551c-7.02695,3.18792 -10.81704,6.46849 -15.70127,7.33552c-1.7794,0.31588 -3.68856,0.53425 -4.97115,-0.73892c-1.67543,-1.66309 -2.69851,-6.02648 -2.69851,-6.02648z" data-paper-data="{&quot;origPos&quot;:null}" stroke-width="3"/></g><path d="M290.84458,263.94321c0,0 -0.24729,4.4749 -1.60736,6.40445c-1.04119,1.47715 -2.9592,1.59469 -4.76642,1.59365c-4.96058,-0.00287 -9.26421,-2.57301 -16.73908,-4.488c-2.03581,-0.52156 -2.41626,-3.80925 -1.76398,-5.807c0.61008,-1.86851 1.78507,-5.07916 1.78507,-5.07916l10.97203,-31.23685c0,0 1.55254,-3.99779 3.41766,-4.30957c4.49155,-0.75084 8.47346,1.75981 12.94158,2.63942c1.51418,0.29809 0.44636,4.97851 0.44636,4.97851c0,0 -1.18485,8.92704 -1.94322,14.64082c-1.07035,8.0643 -2.74264,20.66376 -2.74264,20.66376z" fill="#000000" stroke="#000000" stroke-width="3" stroke-linecap="round"/><path d="M300.97409,157.8805c0,0 -2.72083,0.44992 -6.06883,0.42912" fill="#000000" stroke="#000000" stroke-width="2.5" stroke-linecap="round"/><g fill="#000000"><g><path d="M274.3665,188.63997c0,0 0.53955,-14.43887 2.67609,-15.19249c6.40959,-2.26084 21.52857,-2.79388 31.57188,-3.76517c1.55258,-0.15016 4.23797,13.1022 4.23797,13.1022l4.85142,30.11075c0,0 1.73324,14.76676 0.03951,14.93057c-15.07724,1.45812 -32.66407,4.01022 -39.46787,3.82861c-2.26791,-0.06053 -2.99269,-15.72336 -2.99269,-15.72336z" data-paper-data="{&quot;origPos&quot;:null}" stroke="#000000" stroke-width="3.5" stroke-linecap="round"/><path d="M294.31824,194.89632c-1.3117,0.12685 -1.55886,-2.33282 -1.55886,-2.33282c-0.51261,-5.10155 -1.18999,-11.84288 -1.70258,-16.94445c0,0 -0.24715,-2.45968 1.06455,-2.58654c1.3117,-0.12685 1.55885,2.33281 1.55885,2.33281c0.51261,5.10155 1.02521,10.2031 1.53782,15.30465l0.16476,1.63977c0,0 0.24715,2.4597 -1.06456,2.58655z" stroke="none" stroke-width="0.5" stroke-linecap="butt"/><path d="M307.13362,199.98028c-1.3117,0.12685 -1.62219,-2.96318 -1.62219,-2.96318c-0.64398,-6.40899 -1.49497,-14.87801 -2.13893,-21.28698c0,0 -0.31048,-3.09004 1.00122,-3.2169c1.3117,-0.12685 1.62219,2.96319 1.62219,2.96319c0.64398,6.40899 1.28795,12.81798 1.93195,19.22697l0.20699,2.06003c0,0 0.31048,3.09005 -1.00122,3.21691z" stroke="none" stroke-width="0.5" stroke-linecap="butt"/></g><g stroke-width="3"><path d="M306.89647,174.54306c-0.97529,-1.26164 -0.16888,-2.55727 0.95203,-3.88178c1.12092,-1.32449 2.33041,-1.8128 3.10716,-0.91468c1.64692,1.90429 0.2314,3.01516 -0.6463,4.05228c-1.12091,1.3245 -2.03549,2.52596 -3.41287,0.74421z" stroke="#000000" stroke-linecap="butt"/><path d="M307.83731,173.86227l-2.37983,2.74563" stroke="#000000" stroke-linecap="round"/><path d="M301.91851,177.5785c1.12092,-1.32449 2.33042,-1.8128 3.10717,-0.91469c1.64692,1.90429 0.2314,3.01516 -0.6463,4.05229c-1.12089,1.3245 -2.03549,2.52595 -3.41288,0.7442c-0.97529,-1.26164 -0.1689,-2.55727 0.95201,-3.8818z" stroke="#000000" stroke-linecap="butt"/><path d="M301.90732,180.77946l-2.37981,2.74564" stroke="#000000" stroke-linecap="round"/><path d="M293.7731,183.63005c0.24442,-1.65615 1.61859,-1.63466 3.20755,-1.33023c1.58896,0.30444 2.66942,1.17513 2.54664,2.43266c-0.26032,2.66628 -1.88834,1.95807 -3.13254,1.7197c-1.58895,-0.30443 -2.96682,-0.48322 -2.62164,-2.82212z" stroke="#000000" stroke-linecap="butt"/><path d="M294.81636,184.13391l-3.32878,-0.68465" stroke="#000000" stroke-linecap="round"/><path d="M286.02695,180.01032c0.77603,-1.3897 2.04725,-0.72677 3.42458,0.29371c1.37733,1.02047 2.09401,2.31717 1.56322,3.40178c-1.12544,2.29967 -2.40532,0.89418 -3.48384,0.09512c-1.37733,-1.02048 -2.5999,-1.82802 -1.50396,-3.79061z" stroke="#000000" stroke-linecap="butt"/><path d="M286.83057,180.95643l-2.86988,-2.18041" stroke="#000000" stroke-linecap="round"/><path d="M278.81384,174.59294c0.77602,-1.38968 2.04725,-0.72677 3.42459,0.29371c1.37734,1.02048 2.09401,2.31718 1.56322,3.40179c-1.12545,2.29966 -2.40532,0.89418 -3.48384,0.09512c-1.37733,-1.02047 -2.59988,-1.82801 -1.50395,-3.79062z" stroke="#b9b9b9" stroke-linecap="butt"/><path d="M276.74759,173.3586l2.8699,2.18041" stroke="#b9b9b9" stroke-linecap="round"/></g></g><path d="M309.11507,172.43002c-12.08551,-0.19309 -23.80457,-0.41642 -28.56744,-1.54513c-4.35295,-1.03157 -5.59983,-3.82574 -5.59983,-3.82574c0,0 -1.6925,-2.47919 -1.73848,-4.01351c-0.13792,-4.60296 0.08449,-17.75144 1.32568,-29.06048c0.04143,-0.37745 0.07838,-0.58806 0.14222,-0.96236c0.1915,-1.12289 1.1247,-5.47649 1.1247,-5.47649c0,0 3.23225,-1.57511 4.97683,-2.00286c5.23372,-1.28322 18.4029,0.55418 32.30144,1.33764c1.25973,0.07102 3.37645,1.80876 3.37645,1.80876c0,0 1.45758,3.1772 1.35675,5.15818c-0.65176,12.80725 -1.41998,26.97519 -1.80768,30.20871c-0.12921,1.07785 -2.07701,5.21742 -2.07701,5.21742z" fill="#000000" stroke="#000000" stroke-width="2.5" stroke-linecap="round"/><path d="M271.49687,128.24043c-0.63645,-1.07584 0.43938,-1.71229 0.43938,-1.71229l1.32866,-0.73836c0.11925,-0.03386 0.23837,-0.06695 0.35744,-0.0993c-0.89231,-5.80446 0.38073,-12.76235 0.47771,-18.47999c0.02514,-1.48279 -0.26072,-5.50793 0.48407,-6.76335c1.24716,-2.10225 2.94463,-1.46983 4.84034,-1.43254c3.22551,0.06347 6.42423,0.1658 9.6248,-0.24365c7.93355,-1.00551 15.78365,-1.10623 23.74524,-1.62425c2.51235,-0.16345 4.96421,-0.20535 7.48122,0.06101c0.6887,0.07288 1.57687,-0.16053 2.04856,0.34657c1.67058,1.79593 0.89762,3.73933 0.53905,5.69453c-0.71523,3.90001 -2.40474,7.39511 -2.60854,11.39965c-0.17639,3.06261 -0.7149,6.19776 -1.16956,9.22941c-0.15691,1.04619 0.1435,2.99555 -0.93392,3.76143c-2.20922,1.5704 -7.83202,0.24421 -10.36869,0.10766c-7.7348,-0.41641 -15.46747,-0.99249 -23.2142,-0.96752c-2.77134,0.10368 -5.41525,0.28381 -8.07427,0.80541c-0.03409,0.37198 -0.22145,0.84602 -0.90972,1.03501c-0.74673,0.20503 -1.15789,-0.17955 -1.36265,-0.50191c-0.09076,0.02495 -0.18157,0.05041 -0.27246,0.07634l-0.74012,0.48553c0,0 -1.07584,0.63645 -1.71229,-0.43939z" fill="#000000" stroke="none" stroke-width="0.5" stroke-linecap="butt"/><path d="M290.58629,146.98802c4.78773,-2.28073 8.96297,0.08134 10.38502,4.93218c1.63093,5.56335 -2.32315,8.53403 -2.32315,8.53403c0,0 -2.51049,-1.17836 -5.73982,-1.68695c-4.02105,-0.63327 -6.25756,-0.26122 -6.25756,-0.26122c0,0 -2.55956,-8.424 3.93551,-11.51805z" fill="#000000" stroke="#000000" stroke-width="2" stroke-linecap="butt"/><path d="M316.45746,148.80436c5.86178,4.17117 1.8833,12.02525 1.8833,12.02525c0,0 -2.13841,-0.75338 -6.20838,-0.8254c-3.26864,-0.05785 -5.94514,0.66839 -5.94514,0.66839c0,0 -3.38045,-3.61 -0.81154,-8.80727c2.23991,-4.53163 6.76086,-6.13567 11.08175,-3.06096z" data-paper-data="{&quot;index&quot;:null}" fill="#000000" stroke="#000000" stroke-width="2" stroke-linecap="butt"/><g fill="#000000"><g stroke="#000000" stroke-width="3" stroke-linecap="round"><path d="M252.98771,200.48781l14.64773,-26.29555c0,0 2.85621,-4.95002 4.00905,-4.93153c3.45854,0.05542 8.9934,3.54711 15.18981,5.89276c1.02996,0.38989 -0.53472,6.10406 -0.53472,6.10406c0,0 -2.85853,8.88185 -4.68813,14.56667c-2.78631,8.65744 -7.13956,22.18361 -7.13956,22.18361c0,0 -2.00069,6.99443 -3.83915,6.12745c0,0 -9.98044,0.21111 -23.64715,-9.75862c0.68347,-4.55669 6.00211,-13.88883 6.00211,-13.88883z" data-paper-data="{&quot;origPos&quot;:null}"/><path d="M252.30834,202.47708l23.57899,10.2348l-1.31028,3.13957l-23.64117,-9.98375z" data-paper-data="{&quot;origPos&quot;:null}"/></g><path d="M253.15835,202.33707l18.21017,-32.68611l14.51526,6.27205l0.91322,1.1188l-10.53334,35.33081z" stroke="#000000" stroke-width="1" stroke-linecap="round"/><path d="M251.30334,205.50552l0.90953,-2.14634l23.47976,9.94951l-0.90951,2.14635z" stroke="none" stroke-width="0" stroke-linecap="butt"/></g><g data-paper-data="{&quot;index&quot;:null}" fill="#000000" stroke="#000000" stroke-width="1" stroke-linecap="butt"><g data-paper-data="{&quot;index&quot;:null}"><path d="M285.77727,164.42144c-8.35991,-1.76226 -4.63022,-4.35214 -4.63022,-4.35214l10.50147,2.07394c0,0 1.99578,3.86041 -5.87123,2.27824z"/></g><g data-paper-data="{&quot;index&quot;:null}"><path d="M285.77728,164.42148c-8.35991,-1.76226 -4.63023,-4.35214 -4.63023,-4.35214c0,0 7.1046,1.40307 8.87756,1.75322c0.00241,0.0005 -0.71975,0.69419 -0.86811,1.50109c-0.12152,0.66087 0.32774,1.46426 0.31187,1.46519c-0.88533,0.05219 -2.08188,-0.04373 -3.69109,-0.36735z"/></g></g><path d="M267.03928,179.45952l0.2039,0.01621c0.53034,2.08959 0.18618,3.80474 0.47121,5.89195c0.19589,1.43447 1.40339,2.08274 1.4782,3.61422c0.04645,0.95091 -0.92997,2.04517 -0.5461,2.91638c0.96579,2.19193 2.84959,1.21121 3.62775,3.89771c0.32725,1.12977 -0.41962,3.21316 -0.20251,4.36916c0.19855,1.05711 3.38329,4.47399 4.00793,5.36818c2.38565,3.41517 1.61042,4.57895 0.36219,8.23098c-1.26405,3.6983 -2.1,9.08042 -6.69912,10.10887c-2.11215,0.47231 -4.40161,-0.69302 -6.33307,-1.35317c-4.09881,-1.40094 -8.73689,-3.22338 -12.52382,-5.37218c-1.61996,-0.91921 -4.36136,-2.93357 -4.83094,-4.85745c-0.27881,-1.14221 0.56364,-3.24674 0.94216,-4.3628c2.17369,-6.32211 6.16794,-13.11935 10.11461,-18.51039c2.12083,-2.89697 4.26974,-5.12879 5.74717,-8.19184c-0.51833,-1.23235 0.67426,-2.04468 0.67426,-2.04468l0.15895,0.01263c0.14226,-0.32864 0.75955,-1.49526 2.18875,-1.00677c0.79949,0.27326 1.08106,0.8006 1.15844,1.27296z" data-paper-data="{&quot;index&quot;:null}" fill="#000000" stroke="none" stroke-width="0.5" stroke-linecap="butt"/><path d="M303.98118,257.42955c0.92856,0.12776 -2.98338,2.60662 -2.32689,3.27563c1.84695,1.88216 1.31982,2.66356 0.72757,3.59197c-0.2787,0.43689 -0.69206,0.77659 -0.86753,1.51719c-0.31563,1.33217 0.93228,2.85327 0.37813,4.10516c-1.73556,3.92091 -6.53967,4.17756 -10.05184,3.74421l-1.83294,-1.08649c0,0 -0.01415,-0.01061 -0.03853,-0.03112c-3.16788,1.35269 -8.08616,-0.37246 -11.41147,-0.36888c-4.81052,0 -9.36594,-0.64811 -14.12406,-1.0044c-5.34433,-0.40019 -12.01696,0.92386 -17.11048,-1.40721c-1.28269,-0.58703 -2.16641,0.64498 -3.43516,0.02841c-1.11563,-0.54216 -2.56648,0.29787 -3.69052,-0.22663c-0.40143,-0.18731 -0.89347,-0.26703 -1.39044,-0.34503c-0.67943,-0.10664 -1.36807,-0.21007 -1.84693,-0.58084c0.15286,-1.17627 -2.65394,0.23697 -2.04142,-0.7788c0.69137,-1.14653 6.46896,-4.21233 7.40157,-5.17293c0.80956,-0.83387 3.02098,-1.90353 3.51686,-2.90894c0.82635,-1.67541 1.49839,-3.42237 4.28663,-3.35238c0.55491,0.01393 1.11428,-1.34363 1.67731,-1.13959c0.69382,0.25143 2.39321,-2.6536 3.09671,-2.34029c1.12982,0.50316 -0.72974,2.92466 0.41525,2.74582c1.28362,-0.20048 2.41399,-1.02233 3.69459,-1.24127c3.42955,-0.58635 -2.79022,0.09857 0.71561,0.3538c0.01519,-0.35425 1.25908,-0.48867 1.22335,-0.82415l0.16667,0.19444c0,0 -2.55556,0.10558 -1.38449,-0.22999c0.56342,-0.5226 4.90151,-0.63712 5.06673,-1.35157c0.18126,-0.78383 4.68205,-0.15465 5.19554,-0.774c0.11041,-0.13319 0.41944,-2.09813 0.92325,-2.63896c0.18129,-0.19461 0.26729,-2.33432 0.85102,-2.36059c4.53516,-0.20411 0.25957,-1.42039 0.81975,-1.39139c0.48929,0.02533 0.99556,1.67184 1.80598,1.66316c1.329,-0.01424 6.86961,-1.27432 8.19402,-1.16316c1.71026,0.14354 0.80913,2.47095 2.70978,2.95225c0.2557,0.06475 -0.46302,-0.9365 0.93584,-1.52439c0.51889,-0.21806 3.39342,-0.77299 3.45819,-0.73892c1.61226,0.84806 -0.75955,2.95805 0.21125,5.98586c0.21053,0.6566 1.49698,1.82109 1.69603,2.47467c0.48822,1.60301 -0.13139,2.64038 0.35701,3.83461c0.3268,0.79908 2.39175,-0.60769 2.42095,0.25513c-0.46868,1.67955 2.71599,-0.66591 1.96844,0.60195c1.44139,-0.65381 2.23899,-3.12665 4.3053,-2.84236z" fill="#000000" stroke="none" stroke-width="0.5" stroke-linecap="butt"/></g></g></svg>