<svg version="1.1" xmlns="http://www.w3.org/2000/svg" xmlns:xlink="http://www.w3.org/1999/xlink" width="374.77477" height="288.28829" viewBox="0,0,374.77477,288.28829"><g transform="translate(-52.61266,-35.85585)"><g data-paper-data="{&quot;isPaintingLayer&quot;:true}" fill-rule="nonzero" stroke-linejoin="miter" stroke-miterlimit="10" stroke-dasharray="" stroke-dashoffset="0" style="mix-blend-mode: normal"><path d="M52.61266,324.14414v-288.28829h374.77477v288.28829z" fill="none" stroke="none" stroke-width="NaN" stroke-linecap="butt"/><g><g><path d="M251.002,160.26813c-1.39679,-2.90367 12.329,-2.10402 14.45742,-2.78667c2.31329,-0.74197 -4.18148,19.29071 -4.18148,19.29071l-1.14672,3.37952l7.19612,-22.50189c0,0 2.1106,-7.90245 4.09898,-6.93753c0,0 10.76126,-0.3081 25.56602,10.8401c-0.70649,5.14388 -6.37943,15.70613 -6.37943,15.70613c0,0 -11.55765,24.06287 -16.09041,24.56462c-1.04963,0.11618 -13.5941,-1.55633 -16.09638,-4.84401c-8.30369,-10.91002 -7.42412,-36.71095 -7.42412,-36.71095z" fill="#582700" stroke="#000000" stroke-width="2.5" stroke-linecap="round"/><path d="M262.43267,175.36696c-0.18314,0.47504 -0.37287,0.94821 -0.56151,1.42315c-0.04163,0.10482 -0.62334,1.24258 -0.67768,1.84907c6.1147,2.78313 12.57389,4.5406 18.57533,7.67407c0.54727,0.23873 1.75033,0.62236 2.85478,1.15128c0.36292,0.06063 0.6564,0.06242 0.79169,-0.04472c1.15051,-0.91088 1.81394,-2.70071 2.78551,-3.83604c-0.36899,-0.03529 -1.43478,-0.1531 -1.8592,-0.28644c-1.26042,-0.39601 -2.50734,-0.78345 -3.77801,-1.139c-4.45424,-1.24633 -9.14376,-3.12109 -13.40343,-4.90003c-1.58252,-0.45628 -3.22345,-1.08734 -4.72749,-1.89136zM262.95054,173.94458c1.47644,0.80721 3.1143,1.42773 4.67333,1.87725c4.80879,2.03524 9.96676,3.80974 14.98225,5.30966c2.06656,0.61802 5.41812,0.73624 4.81445,3.27311c-1.02008,1.22123 -1.81989,3.16342 -3.07924,4.16825c0.3295,0.32414 0.54195,0.67919 0.5635,1.06519c0.03034,0.54334 -1.36346,2.18204 -1.67179,2.68804c-1.8394,3.01881 -3.51205,7.00172 -7.18459,7.81878c-5.32091,2.9265 -13.86792,0.63535 -18.60292,-2.61759c-2.49098,-3.61846 -3.00008,-7.03981 -3.50575,-11.36132c-0.36509,-3.12026 -1.25747,-5.98771 -1.27667,-9.19121c-0.61155,-4.447 -1.09065,-8.90097 -1.69635,-13.34729c-0.27798,-2.04069 -1.21368,-3.9076 0.57035,-5.26362c3.46785,-0.30064 6.97372,-0.60288 10.46206,-0.82086c1.08739,-0.06795 3.29931,-0.1294 4.18642,0.67783c1.23283,1.12182 0.42946,2.82113 -0.06587,4.11199c-0.70939,2.98326 -1.63756,6.212 -2.77941,9.31598c0.18079,0.27797 0.09638,0.62992 0.09638,0.62992c-0.13635,0.56595 -0.30214,1.11944 -0.48618,1.66585zM280.68557,188.39857c-3.82148,-0.96199 -7.15676,-3.04646 -10.89759,-4.1114c-2.21656,-0.58131 -6.24073,-1.27858 -8.51647,-3.082c-0.14618,-0.03697 -0.24727,-0.10437 -0.24727,-0.10437l-0.62514,-0.42062c-0.67278,-0.29234 -1.25206,-0.81938 -1.73554,-1.38935c1.02969,-5.95909 4.63481,-11.45765 6.07734,-17.42622c0.24933,-0.6478 0.66085,-1.54701 0.71645,-2.23849c0.03419,-0.42528 -2.40064,-0.60923 -2.69572,-0.61561c-3.59269,-0.07766 -7.18303,0.72378 -10.77385,0.79441c-0.35842,0.09285 0.33068,2.99213 0.4146,3.6116c0.6068,4.4793 1.10445,8.96402 1.70648,13.44622c0.02231,3.18646 0.90044,6.02062 1.27057,9.12494c0.4711,3.95119 0.86432,7.09907 3.06657,10.44237c4.45383,2.83672 12.18971,4.99392 17.10395,2.29111c3.5739,-0.85494 6.1112,-6.02967 7.90698,-9.00708c0.01905,-0.03157 -1.47983,-0.73191 -2.71268,-1.30026c-0.01987,-0.0053 -0.03943,-0.01039 -0.05867,-0.01524z" fill="#000000" stroke="none" stroke-width="0.5" stroke-linecap="butt"/><path d="M267.11929,177.23138c4.25965,1.77895 9.0382,3.68496 13.49244,4.93128c1.27069,0.35555 2.51717,0.74653 3.77759,1.14256c0.42442,0.13334 1.49022,0.2511 1.85922,0.28637c-0.97157,1.13533 -1.64087,2.9426 -2.79137,3.8535c-0.13531,0.10712 -0.42981,0.1071 -0.79273,0.04648c-1.10443,-0.52893 -2.30963,-0.90933 -2.85689,-1.14804c-6.00145,-3.13349 -12.54654,-4.93214 -18.66123,-7.71528c0.05434,-0.6065 0.63813,-1.75147 0.67976,-1.85628c0.18865,-0.47495 0.3807,-0.95347 0.56384,-1.42851c1.50404,0.80402 3.14688,1.43165 4.72939,1.88793z" data-paper-data="{&quot;noHover&quot;:false,&quot;origItem&quot;:[&quot;Path&quot;,{&quot;applyMatrix&quot;:true,&quot;segments&quot;:[[[926.17844,407.1979],[3.2606,1.25965],[-0.27949,0.97418]],[[925.31465,410.11917],[0.29084,-0.97519],[-0.06418,0.21521]],[[924.29914,413.90358],[-0.01258,-1.20526],[13.15638,4.16543]],[[964.1057,425.02121],[-12.99513,-4.87922],[1.17537,0.35239]],[[970.21765,426.67451],[-2.3817,-0.804],[0.75941,0.04146]],[[971.83798,426.41666],[-0.25651,0.23985],[2.18115,-2.03947]],[[976.78433,418.26967],[-1.76682,2.44279],[-0.76669,0.00973]],[[972.89889,418.10481],[0.90089,0.17138],[-2.67549,-0.50896]],[[964.88923,416.67374],[2.68829,0.42712],[-9.42353,-1.49721]],[[936.29671,409.90591],[9.13228,2.58714],[-3.35077,-0.55846]]],&quot;closed&quot;:true}]}" fill="#ffffff" stroke="none" stroke-width="0.5" stroke-linecap="butt"/><path d="M279.12525,187.66467c0.20254,0.08843 4.40472,2.02303 4.37323,2.07523c-1.79578,2.9774 -4.35454,8.17228 -7.92845,9.02722c-4.91424,2.70282 -12.6933,0.54406 -17.14713,-2.29268c-2.20226,-3.3433 -2.61533,-6.51241 -3.08643,-10.4636c-0.37012,-3.10434 -1.25269,-5.9716 -1.27501,-9.15806c-0.60202,-4.4822 -1.08569,-8.99352 -1.69249,-13.47281c-0.08392,-0.61948 -0.76989,-3.52163 -0.41148,-3.61448c3.59083,-0.07062 7.2008,-0.88198 10.79349,-0.80432c0.29508,0.00639 2.73616,0.18929 2.70196,0.61457c-0.05559,0.69148 -0.4558,1.69104 -0.70513,2.33884c-1.44254,5.96856 -5.0063,11.41891 -6.03598,17.37801c0.48349,0.56996 1.06226,1.08768 1.73504,1.38001l0.62445,0.41678c0,0 0.51707,0.43035 0.9067,-0.20891c0.03901,-0.06399 0.16242,-0.14718 0.18298,-0.20634c5.6597,2.40751 11.4573,4.12093 16.96424,6.9905z" data-paper-data="{&quot;noHover&quot;:false,&quot;origItem&quot;:[&quot;Path&quot;,{&quot;applyMatrix&quot;:true,&quot;segments&quot;:[[[926.61254,417.73069],[12.14285,3.5238],[-0.03018,0.12086]],[[926.46822,418.11346],[0.06716,-0.13431],[-0.67082,1.34164]],[924.45576,418.78428],[[923.08279,418.0906],[0,0],[-1.44471,-0.43097]],[[919.22563,415.72869],[1.11205,1.01797],[0.89694,-11.9485]],[[928.15956,380.1298],[-1.74473,12.05571],[0.38029,-1.32836]],[[929.175,375.57071],[0.02742,1.37277],[-0.01686,-0.84429]],[[923.5003,374.93752],[0.60865,-0.05075],[-7.41054,0.61792]],[[901.48814,378.8123],[7.37628,-0.90935],[-0.71866,0.25961]],[[903.08234,385.83106],[-0.2998,-1.20115],[2.16779,8.68513]],[[909.35292,411.92731],[-2.15853,-8.69186],[0.69956,6.26621]],[[913.83986,429.61277],[-1.39861,-6.02998],[1.78014,7.67491]],[[922.29365,449.50563],[-5.21858,-6.1072],[9.74892,4.62723]],[[957.96755,450.34516],[-9.56021,6.37347],[7.18055,-2.44927]],[[972.39433,430.92276],[-3.08539,6.24485],[0.05411,-0.10951]],[[963.14745,427.86406],[0.43501,0.13058],[-11.92317,-4.46591]]],&quot;closed&quot;:true}]}" fill="#66c8ff" stroke="none" stroke-width="0.5" stroke-linecap="butt"/></g><g data-paper-data="{&quot;index&quot;:null}" fill="#fffc96" stroke="#000000" stroke-width="2" stroke-linecap="round"><path d="M248.80277,168.60863c0.03176,-2.03087 3.09777,-2.02633 3.09777,-2.02633l0.18584,1.8818c0,0 4.21334,2.0884 10.07764,3.8932c-0.24393,1.30487 -0.37581,2.2783 -0.3725,3.09108c-6.86706,-1.90943 -13.02341,-4.62461 -12.98877,-6.83976z"/><path d="M250.20536,182.04819c-0.37648,-2.80946 2.86281,-3.74988 2.86281,-3.74988l0.17561,1.37961c0,0 3.49057,-1.31951 8.54777,-4.28265c-0.0033,1.06328 0.22,1.85007 0.72048,2.73302c-6.25626,3.63452 -12.03392,5.95534 -12.30667,3.91989z" data-paper-data="{&quot;index&quot;:null}"/></g></g><g data-paper-data="{&quot;origRot&quot;:0}" stroke="#000000" stroke-linecap="round"><path d="M245.96966,223.8783c0,0 -1.05276,-4.72587 0.40932,-5.0342c4.31438,-0.90977 8.1516,-3.46594 12.49583,-2.72784c1.80395,0.3065 3.32217,4.34013 3.32217,4.34013l10.74251,31.52225c0,0 1.14981,3.23978 1.74772,5.12559c0.63926,2.01625 0.28615,5.34109 -1.67907,5.87769c-7.21566,1.97028 -11.36359,4.58801 -16.15779,4.61392c-1.74661,0.00943 -3.60082,-0.10046 -4.61362,-1.5887c-1.32303,-1.94402 -1.58183,-6.46594 -1.58183,-6.46594z" data-paper-data="{&quot;origPos&quot;:null}" fill="#ff0000" stroke-width="3"/><path d="M275.42391,260.40418c0,0 -5.02886,3.92359 -9.82163,5.06982c-3.67718,0.87943 -11.86232,1.77532 -11.86232,1.77532c0,0 -1.83631,-2.26448 -2.26495,-3.82115c-0.45156,-1.63985 0.00947,-4.36954 0.00947,-4.36954l21.79002,-6.03806z" data-paper-data="{&quot;origPos&quot;:null}" fill="#976e57" stroke-width="2"/><path d="M246.11547,224.17608c0,0 -1.05276,-4.72587 0.40933,-5.03418c4.31437,-0.90978 8.1516,-3.46594 12.49584,-2.72783c1.80395,0.3065 3.32216,4.34011 3.32216,4.34011l10.7425,31.52226c0,0 1.14983,3.23977 1.74774,5.12559c0.63926,2.01625 0.28614,5.34109 -1.67907,5.8777c-7.21566,1.97028 -11.36358,4.58802 -16.15778,4.61393c-1.74661,0.00943 -3.60081,-0.10049 -4.61362,-1.5887c-1.32303,-1.94402 -1.58184,-6.46594 -1.58184,-6.46594z" data-paper-data="{&quot;origPos&quot;:null}" fill="#4b4b4b" stroke-width="3"/></g><path d="M237.96692,260.03882c0,0 0.17317,4.52641 -0.95808,6.59858c-0.86603,1.58634 -2.70053,1.88889 -4.43935,2.06147c-4.77281,0.47371 -9.14943,-1.69889 -16.51689,-2.90759c-2.00657,-0.32919 -2.6746,-3.60072 -2.23059,-5.67353c0.41531,-1.93871 1.25082,-5.28216 1.25082,-5.28216l7.68657,-32.48466c0,0 1.12643,-4.17174 2.89222,-4.66464c4.25232,-1.18704 8.31394,0.95663 12.69351,1.41241c1.48417,0.15446 0.8868,4.9665 0.8868,4.9665c0,0 -0.31986,9.09622 -0.52459,14.91828c-0.28895,8.21714 -0.7404,21.05537 -0.7404,21.05537z" fill="#4b4b4b" stroke="#000000" stroke-width="3" stroke-linecap="round"/><g stroke="#000000" stroke-linecap="round"><path d="M229.70381,171.34443c0,0 -27.28265,5.97858 -27.33075,-12.1957c-0.01773,-6.696 15.66964,-5.08154 15.66964,-5.08154z" data-paper-data="{&quot;origPos&quot;:null}" fill="#66c8ff" stroke-width="2"/><path d="M221.92963,159.5298c0,0 -15.38541,-1.92044 -15.18376,-2.54077c0.63938,-1.96682 12.02554,-1.39742 12.02554,-1.39742z" data-paper-data="{&quot;origPos&quot;:null}" fill="#0a0a0a" stroke-width="1"/></g><g><g><path d="M219.19724,176.44785c0,0 0.55286,-14.68486 2.57873,-15.44202c6.07758,-2.27153 20.3995,-2.74716 29.91513,-3.69094c1.47102,-0.1459 3.97617,13.34624 3.97617,13.34624l4.508,30.65006c0,0 1.59893,15.0284 -0.00579,15.18757c-14.28507,1.41683 -30.95033,3.93539 -37.39423,3.72071c-2.14795,-0.07155 -2.78909,-16.00701 -2.78909,-16.00701z" data-paper-data="{&quot;origPos&quot;:null}" fill="#66c8ff" stroke="#000000" stroke-width="3.5" stroke-linecap="round"/><path d="M238.07701,182.89965c-1.24279,0.12326 -1.46976,-2.37981 -1.46976,-2.37981c-0.47076,-5.19156 -1.09284,-12.05184 -1.56359,-17.2434c0,0 -0.22698,-2.50307 1.01581,-2.62633c1.24279,-0.12326 1.46976,2.37981 1.46976,2.37981c0.47076,5.19156 0.94153,10.38312 1.41228,15.57469l0.15132,1.66872c0,0 0.22697,2.50307 -1.01582,2.62633z" fill="#ffffff" stroke="none" stroke-width="0.5" stroke-linecap="butt"/><path d="M250.20072,188.1275c-1.24279,0.12326 -1.52792,-3.0213 -1.52792,-3.0213c-0.5914,-6.52206 -1.37291,-15.1405 -1.96431,-21.66256c0,0 -0.28514,-3.14457 0.95764,-3.26783c1.24279,-0.12326 1.52792,3.0213 1.52792,3.0213c0.5914,6.52206 1.18282,13.04413 1.77422,19.5662l0.1901,2.09638c0,0 0.28514,3.14457 -0.95764,3.26783z" fill="#ffffff" stroke="none" stroke-width="0.5" stroke-linecap="butt"/></g><g fill="none" stroke="#b9b9b9" stroke-width="3"><path d="M250.05745,162.58846c-0.92013,-1.28763 -0.15256,-2.602 0.91297,-3.94436c1.06553,-1.34234 2.21255,-1.83373 2.94568,-0.91674c1.55441,1.94429 0.21046,3.06805 -0.62389,4.11915c-1.06554,1.34236 -1.9353,2.56043 -3.23476,0.74197z" stroke-linecap="butt"/><path d="M250.95059,161.90011l-2.26205,2.78237" stroke-linecap="round"/><path d="M245.33368,165.65419c1.06553,-1.34234 2.21256,-1.83373 2.94569,-0.91673c1.55441,1.94429 0.21046,3.06805 -0.62389,4.11915c-1.06553,1.34235 -1.93529,2.56043 -3.23474,0.74196c-0.92013,-1.28763 -0.15258,-2.602 0.91295,-3.94437z" stroke-linecap="butt"/><path d="M245.31378,168.91019l-2.26205,2.78238" stroke-linecap="round"/><path d="M237.60095,171.77401c0.2363,-1.68355 1.53782,-1.65566 3.04198,-1.339c1.50416,0.31668 2.52501,1.20712 2.40508,2.48572c-0.25431,2.71099 -1.79426,1.98345 -2.97205,1.73549c-1.50416,-0.31667 -2.80871,-0.50461 -2.47499,-2.88221z" stroke-linecap="butt"/><path d="M235.43674,171.58006l3.15097,0.71107" stroke-linecap="round"/><path d="M230.27446,168.05791c0.73906,-1.41018 1.94122,-0.73026 3.24284,0.31385c1.30163,1.04409 1.97669,2.36626 1.4708,3.46719c-1.07265,2.33427 -2.28086,0.89898 -3.30009,0.08143c-1.30163,-1.0441 -2.45726,-1.87092 -1.41355,-3.86244z" stroke-linecap="butt"/><path d="M228.32088,166.79327l2.71199,2.23054" stroke-linecap="round"/><path d="M223.45804,162.51557c0.73906,-1.41016 1.94122,-0.73026 3.24285,0.31385c1.30164,1.04409 1.97669,2.36626 1.4708,3.46719c-1.07265,2.33426 -2.28086,0.89897 -3.30008,0.08142c-1.30163,-1.04409 -2.45726,-1.8709 -1.41354,-3.86243z" stroke-linecap="butt"/><path d="M221.50453,161.25093l2.712,2.23054" stroke-linecap="round"/></g></g><path d="M252.60427,157.8938c-11.33826,2.94104 -22.34165,5.75759 -27.07068,5.8882c-4.32201,0.11937 -6.17873,-2.28777 -6.17873,-2.28777c0,0 -2.19504,-1.98397 -2.61789,-3.47116c-1.26859,-4.46157 -4.31649,-17.36576 -5.95719,-28.73656c-0.05477,-0.3795 -0.07239,-0.59485 -0.10544,-0.97709c-0.09914,-1.14671 -0.30533,-5.642 -0.30533,-5.642c0,0 2.62961,-2.37599 4.15351,-3.24568c4.57168,-2.60909 17.32947,-4.22419 30.50769,-7.05791c1.19444,-0.25683 3.60219,0.89287 3.60219,0.89287c0,0 2.14839,2.72679 2.54472,4.68838c2.56234,12.68198 5.35275,26.72357 5.79124,29.98323c0.14617,1.08656 -0.64848,5.6355 -0.64848,5.6355z" fill="#582700" stroke="#000000" stroke-width="2.5" stroke-linecap="round"/><path d="M206.51903,124.46048c-0.86098,-0.88631 -0.01352,-1.78676 -0.01352,-1.78676l1.05843,-1.06548c0.10303,-0.06396 0.20612,-0.12716 0.30933,-0.18958c-2.27085,-5.44012 -2.80438,-12.56791 -4.12956,-18.1794c-0.34366,-1.45527 -1.60739,-5.31396 -1.22246,-6.73343c0.64458,-2.37693 2.38695,-2.19862 4.16719,-2.6531c3.02904,-0.77326 6.04268,-1.50164 8.9313,-2.7305c7.16264,-3.03692 14.47137,-5.16819 21.78093,-7.73606c2.30659,-0.81031 4.58679,-1.48618 7.00417,-1.87774c0.66145,-0.10715 1.43337,-0.56518 1.9996,-0.19188c2.00536,1.32208 1.76448,3.42103 1.91363,5.4242c0.2975,3.99568 -0.41545,7.84805 0.38572,11.81342c0.59355,3.03797 0.86676,6.24059 1.19269,9.32038c0.11246,1.0628 0.87579,2.88961 0.05889,3.91691c-1.67505,2.10646 -7.25631,2.2668 -9.65992,2.79027c-7.32907,1.59617 -14.69569,3.03577 -21.92659,5.06628c-2.56336,0.81898 -4.98873,1.67965 -7.34365,2.87783c0.06026,0.37227 0.00258,0.88395 -0.5936,1.24682c-0.64685,0.39371 -1.12617,0.12441 -1.39729,-0.13752c-0.0786,0.04788 -0.15716,0.09626 -0.23564,0.14515l-0.5712,0.66604c0,0 -0.84746,0.90045 -1.70845,0.01414z" fill="#000000" stroke="none" stroke-width="0.5" stroke-linecap="butt"/><path d="M227.28587,135.46681c3.79592,-3.60181 8.31778,-2.53144 10.9846,1.74965c3.05853,4.9099 0.22626,8.93676 0.22626,8.93676c0,0 -2.65154,-0.40946 -5.78188,0.0387c-3.89778,0.55805 -5.86405,1.56946 -5.86405,1.56946c0,0 -4.71451,-7.40833 0.43506,-12.2946z" fill="#ffffff" stroke="#0a0a0a" stroke-width="2" stroke-linecap="butt"/><path d="M252.45042,129.77979c6.58648,2.3303 5.09142,11.09099 5.09142,11.09099c0,0 -2.18885,-0.10648 -5.97563,1.00907c-3.0412,0.8959 -5.31606,2.37826 -5.31606,2.37826c0,0 -4.13378,-2.50974 -3.20347,-8.28837c0.81117,-5.03854 4.54861,-7.9077 9.40373,-6.18995z" data-paper-data="{&quot;index&quot;:null}" fill="#ffffff" stroke="#0a0a0a" stroke-width="2" stroke-linecap="butt"/><g data-paper-data="{&quot;index&quot;:null}" stroke="#000000" stroke-width="1" stroke-linecap="butt"><path d="M242.68418,163.15439c-11.81409,2.84958 -11.68588,-10.81735 -11.68588,-10.81735l17.55027,-4.40464c0,0 6.64355,12.20504 -5.86439,15.22199z" fill="#000000"/><path d="M240.3471,159.69076c3.46662,0.20832 6.46923,1.77741 5.99374,2.05483c-0.98254,0.57326 -2.1875,1.0544 -3.65672,1.40879c-4.40329,1.0621 -7.14762,-0.17027 -8.85791,-2.13424c-0.33226,-0.38155 3.33751,-1.52068 6.52086,-1.32936z" fill="#ff8484"/><path d="M231.78179,156.73504c-0.35939,-1.78681 -0.7835,-4.39802 -0.7835,-4.39802l15.42414,-3.87104l1.09339,4.45093c0,0 -15.72217,3.877 -15.73401,3.81812z" fill="#ffffff"/></g><path d="M233.38042,146.86908l-0.40218,0.0439c-0.76891,0.38255 -1.7206,0.6632 -2.58525,0.36307c0.01344,0.81574 -1.95686,0.8844 -2.1677,0.22688c-0.09842,-0.30697 -0.67094,-0.40394 -0.84493,-0.46351c0,0 -0.06229,-0.02375 -0.14275,-0.07653c-0.1435,0.06091 -0.27744,0.11625 -0.3982,0.16186c0,0 -1.00374,0.37749 -1.36469,-0.67226c-0.36095,-1.04975 0.64279,-1.42725 0.64279,-1.42725c1.20591,-0.45177 2.76834,-1.18495 4.07099,-1.08528c0.59419,0.04547 1.13886,0.41757 1.73356,0.45508c0.54778,0.03456 1.09597,-0.08327 1.6447,-0.07655l0.76983,0.14049c0,0 1.04641,0.21639 0.83951,1.31076c-0.2069,1.09438 -1.25331,0.87799 -1.25331,0.87799l-0.10511,-0.02686c-0.18046,0.19933 -0.43726,0.24821 -0.43726,0.24821z" fill="#000000" stroke="none" stroke-width="0.5" stroke-linecap="butt"/><path d="M248.77334,143.49187c0,0 -0.24942,0.08047 -0.49744,-0.00936l-0.08143,0.07453c0,0 -0.83308,0.69667 -1.49923,-0.1746c-0.66613,-0.87127 0.16695,-1.56796 0.16695,-1.56796l0.62115,-0.49594c0.48394,-0.27061 1.02231,-0.43044 1.49313,-0.72527c0.51115,-0.32008 0.83038,-0.91297 1.33756,-1.23987c1.11192,-0.7167 2.82159,-0.81965 4.09082,-1.00039c0,0 1.05709,-0.14913 1.19968,0.95643c0.14259,1.10555 -0.9145,1.25468 -0.9145,1.25468c-0.12726,0.01776 -0.27052,0.03324 -0.4247,0.04842c-0.04811,0.08565 -0.09293,0.13677 -0.09293,0.13677c-0.12811,0.13678 -0.59336,0.49893 -0.54535,0.81878c0.10286,0.6851 -1.79571,1.32244 -2.02347,0.84413c-0.63489,0.68333 -1.60311,0.89329 -2.45404,0.92467l-0.37621,0.15501z" data-paper-data="{&quot;index&quot;:null}" fill="#000000" stroke="none" stroke-width="0.5" stroke-linecap="butt"/><path d="M266.95775,208.52966c0.03862,0.39382 -0.16543,0.73833 -0.45577,0.76948c-0.29034,0.03114 -0.55701,-0.26286 -0.59564,-0.65669c-0.03862,-0.39383 0.16543,-0.73833 0.45577,-0.76948c0.29034,-0.03114 0.55701,0.26287 0.59564,0.65669z" fill="#000000" stroke="#000000" stroke-width="2" stroke-linecap="butt"/><g data-paper-data="{&quot;index&quot;:null}"><path d="M227.345,166.68526c0,0 3.27489,25.58913 -3.97479,37.2921c-2.18466,3.52663 -14.51412,6.46727 -15.56957,6.45842c-4.55794,-0.03827 -18.29864,-22.81139 -18.29864,-22.81139c0,0 -6.62835,-9.93511 -7.80987,-14.98273c13.69779,-12.60133 24.43667,-13.38935 24.43667,-13.38935c1.88922,-1.16259 4.72474,6.48768 4.72474,6.48768l9.25469,21.66319l-1.45557,-3.24685c0,0 -8.32701,-19.27702 -5.95569,-18.77389c2.18182,0.46291 15.76816,-1.72918 14.64804,1.30281z" fill="#582700" stroke="#000000" stroke-width="2.5" stroke-linecap="round"/><path d="M217.37278,182.87527c-1.42213,0.9532 -2.9966,1.74819 -4.52917,2.36329c-4.07401,2.20382 -8.56695,4.54671 -12.88416,6.24023c-1.23158,0.48312 -2.43655,0.99556 -3.65417,1.5179c-0.41001,0.17589 -1.45979,0.40156 -1.82375,0.47422c1.07255,1.03111 1.89929,2.74498 3.12907,3.5345c0.14462,0.09287 0.43654,0.06124 0.7921,-0.03601c1.05001,-0.63877 2.21169,-1.14297 2.73417,-1.43623c5.68156,-3.72911 11.94669,-6.13528 17.77357,-9.52721c-0.11048,-0.5981 -0.79525,-1.67129 -0.84644,-1.77138c-0.23192,-0.45352 -0.46476,-0.90513 -0.6912,-1.35928zM216.72506,181.51229c-0.23399,-0.52509 -0.45047,-1.0591 -0.63881,-1.60849c0,0 -0.11674,-0.34169 0.03734,-0.63674c-1.4251,-2.97313 -2.64917,-6.09213 -3.63263,-8.98909c-0.61302,-1.23436 -1.57061,-2.84388 -0.44796,-4.08579c0.80782,-0.89363 3.01498,-1.05748 4.10353,-1.10046c3.49207,-0.1379 7.00943,-0.19372 10.48879,-0.24727c1.9017,1.16811 1.14406,3.12134 1.05717,5.18065c-0.1893,4.48686 -0.25192,8.96843 -0.447,13.45656c0.27882,3.19027 -0.34264,6.1349 -0.41583,9.27748c-0.10136,4.35245 -0.28985,7.80937 -2.43251,11.66407c-4.41002,3.71917 -12.70343,6.86888 -18.27128,4.49752c-3.73112,-0.43961 -5.76626,-4.23348 -7.87769,-7.05088c-0.35392,-0.47223 -1.89351,-1.96138 -1.91384,-2.50523c-0.01444,-0.38635 0.16398,-0.76134 0.46177,-1.11746c-1.34682,-0.87197 -2.32345,-2.7236 -3.45228,-3.83527c-0.83673,-2.46343 2.48795,-2.92202 4.48722,-3.74733c4.85222,-2.003 9.82069,-4.29377 14.4174,-6.80852c1.50983,-0.60597 3.08222,-1.39016 4.4766,-2.34374zM200.41834,197.70182c-0.01871,0.00679 -0.0377,0.01385 -0.05698,0.02114c-1.17416,0.69107 -2.60078,1.54056 -2.57889,1.57005c2.06417,2.78062 5.07068,7.6727 8.70715,8.16005c5.1423,2.19011 12.64088,-0.74376 16.80978,-4.0201c1.88089,-3.55147 1.97948,-6.72443 2.08088,-10.7048c0.07967,-3.12727 0.69006,-6.03731 0.41592,-9.21093c0.18232,-4.52218 0.26054,-9.03627 0.44788,-13.55605c0.02591,-0.62507 0.4421,-3.58072 0.07676,-3.63666c-3.58038,0.29496 -7.22822,-0.13745 -10.79665,0.30532c-0.29309,0.03637 -2.69928,0.46712 -2.62569,0.8869c0.11964,0.68254 0.61285,1.53562 0.92123,2.155c1.99078,5.79353 6.09018,10.8993 7.66918,16.72541c-0.42819,0.61644 -0.9557,1.19991 -1.59811,1.55929l-0.58306,0.48222c0,0 -0.09435,0.07735 -0.23639,0.12904c-2.09723,2.02637 -6.03746,3.12967 -8.18946,3.93371c-3.62406,1.44043 -6.74967,3.85429 -10.46357,5.20044z" fill="#000000" stroke="none" stroke-width="0.5" stroke-linecap="butt"/><path d="M212.88175,185.20757c1.53257,-0.6151 3.10925,-1.40686 4.53139,-2.36006c0.22644,0.45416 0.46209,0.91087 0.69401,1.36439c0.05118,0.10008 0.73869,1.18023 0.84917,1.77833c-5.82687,3.39193 -12.17366,5.84787 -17.85524,9.57696c-0.52246,0.29325 -1.68656,0.79445 -2.73658,1.43322c-0.35557,0.09726 -0.64867,0.12723 -0.79329,0.03438c-1.22976,-0.78955 -2.06398,-2.52017 -3.13653,-3.55129c0.36395,-0.07265 1.41375,-0.29825 1.82377,-0.47413c1.21762,-0.52236 2.42183,-1.03829 3.65343,-1.5214c4.31722,-1.69352 8.89584,-4.07658 12.96986,-6.28039z" data-paper-data="{&quot;noHover&quot;:false,&quot;origItem&quot;:[&quot;Path&quot;,{&quot;applyMatrix&quot;:true,&quot;segments&quot;:[[[926.17844,407.1979],[3.2606,1.25965],[-0.27949,0.97418]],[[925.31465,410.11917],[0.29084,-0.97519],[-0.06418,0.21521]],[[924.29914,413.90358],[-0.01258,-1.20526],[13.15638,4.16543]],[[964.1057,425.02121],[-12.99513,-4.87922],[1.17537,0.35239]],[[970.21765,426.67451],[-2.3817,-0.804],[0.75941,0.04146]],[[971.83798,426.41666],[-0.25651,0.23985],[2.18115,-2.03947]],[[976.78433,418.26967],[-1.76682,2.44279],[-0.76669,0.00973]],[[972.89889,418.10481],[0.90089,0.17138],[-2.67549,-0.50896]],[[964.88923,416.67374],[2.68829,0.42712],[-9.42353,-1.49721]],[[936.29671,409.90591],[9.13228,2.58714],[-3.35077,-0.55846]]],&quot;closed&quot;:true}]}" fill="#ffffff" stroke="none" stroke-width="0.5" stroke-linecap="butt"/><path d="M201.90305,196.81267c5.21395,-3.41613 10.8247,-5.71119 16.23367,-8.68299c0.02596,0.05681 0.15653,0.12701 0.2013,0.18674c0.44723,0.59659 0.92183,0.11568 0.92183,0.11568l0.58272,-0.47832c0.64241,-0.35938 1.17028,-0.93353 1.59847,-1.54996c-1.579,-5.8261 -5.63276,-10.88808 -7.62353,-16.68161c-0.30839,-0.61935 -0.79965,-1.57347 -0.91929,-2.25602c-0.0736,-0.41979 2.3389,-0.85013 2.63198,-0.8865c3.56844,-0.44275 7.23674,-0.00247 10.81711,-0.29744c0.36536,0.05594 -0.04746,3.01411 -0.07337,3.63919c-0.18735,4.51978 -0.24917,9.05891 -0.43149,13.58109c0.27414,3.17362 -0.33759,6.11707 -0.41724,9.24433c-0.1014,3.98037 -0.21777,7.17648 -2.09867,10.72794c-4.16889,3.27634 -11.71032,6.21617 -16.85262,4.02606c-3.63646,-0.48735 -6.66623,-5.39729 -8.73039,-8.17792c-0.03621,-0.04876 3.96614,-2.40164 4.1595,-2.51026z" data-paper-data="{&quot;noHover&quot;:false,&quot;origItem&quot;:[&quot;Path&quot;,{&quot;applyMatrix&quot;:true,&quot;segments&quot;:[[[926.61254,417.73069],[12.14285,3.5238],[-0.03018,0.12086]],[[926.46822,418.11346],[0.06716,-0.13431],[-0.67082,1.34164]],[924.45576,418.78428],[[923.08279,418.0906],[0,0],[-1.44471,-0.43097]],[[919.22563,415.72869],[1.11205,1.01797],[0.89694,-11.9485]],[[928.15956,380.1298],[-1.74473,12.05571],[0.38029,-1.32836]],[[929.175,375.57071],[0.02742,1.37277],[-0.01686,-0.84429]],[[923.5003,374.93752],[0.60865,-0.05075],[-7.41054,0.61792]],[[901.48814,378.8123],[7.37628,-0.90935],[-0.71866,0.25961]],[[903.08234,385.83106],[-0.2998,-1.20115],[2.16779,8.68513]],[[909.35292,411.92731],[-2.15853,-8.69186],[0.69956,6.26621]],[[913.83986,429.61277],[-1.39861,-6.02998],[1.78014,7.67491]],[[922.29365,449.50563],[-5.21858,-6.1072],[9.74892,4.62723]],[[957.96755,450.34516],[-9.56021,6.37347],[7.18055,-2.44927]],[[972.39433,430.92276],[-3.08539,6.24485],[0.05411,-0.10951]],[[963.14745,427.86406],[0.43501,0.13058],[-11.92317,-4.46591]]],&quot;closed&quot;:true}]}" fill="#66c8ff" stroke="none" stroke-width="0.5" stroke-linecap="butt"/></g><path d="M251.19288,156.30877c-0.08599,1.039 -0.13888,2.10326 -0.34108,3.12392c-0.30731,1.55122 -1.0033,2.77508 -1.25324,4.37244c-0.33857,2.1638 -0.39196,3.70981 -1.44956,5.5078c-0.74648,1.63418 0.58583,4.42542 -0.94968,5.53429c-1.19936,0.86612 -1.64475,-0.03388 -2.25542,-1.15925c-0.92756,-1.70932 -1.16558,-4.14137 -2.42495,-5.51446c-0.9676,-1.05498 -2.24197,-1.85037 -3.45119,-2.58869c-0.89381,-0.40531 -1.75903,-0.91087 -2.65213,-1.32925l-0.03404,-0.05277l-0.00926,0.02547l-0.75744,-0.52193c-0.19322,-0.12952 -0.34016,-0.38077 -0.38073,-0.69626c-0.01068,-0.08307 -0.01336,-0.16562 -0.00878,-0.24612c-1.21612,-0.9713 -2.41771,-1.97975 -3.67564,-2.84178c0,0 -0.62447,-0.4303 -0.30919,-1.29783c0.31527,-0.86753 0.93975,-0.43722 0.93975,-0.43722c0.59412,0.4114 1.17663,0.85281 1.75444,1.30642c0.19596,0.036 0.34183,0.17552 0.34183,0.17552l0.20626,0.25878c0.03818,0.03047 0.07634,0.06099 0.1145,0.09153c0.83444,0.28126 1.5417,0.59369 2.40262,0.35081c2.57584,-0.64312 4.96743,-2.35736 7.54015,-3.0138c1.47164,-0.37549 3.46307,0.16459 4.83181,-0.70796c0.25311,-0.16135 0.39046,-0.50971 0.48625,-0.91421c0.06783,-0.75985 0.15443,-1.51115 0.32709,-2.24499l0.12325,-0.92412c0.04593,-0.39585 0.26746,-0.72815 0.56839,-0.80517c0.38038,-0.09736 0.74356,0.25004 0.81121,0.77592c0.00468,0.03635 0.00781,0.07258 0.00948,0.1086l0.06491,1.17465l-0.02893,0.00335c0.0103,0.05699 0.01938,0.11451 0.02706,0.17264c0.05674,0.42957 -0.15083,0.85254 -0.25982,1.26399c-0.08614,0.32518 -0.18731,0.68721 -0.30791,1.04969z" fill="#000000" stroke="none" stroke-width="0.5" stroke-linecap="butt"/><path d="M285.78463,101.61983v2.91809h-3.8645v-2.91809z" data-paper-data="{&quot;index&quot;:null}" fill="#582700" stroke="none" stroke-width="0" stroke-linecap="butt"/><path d="M266.0575,94.19203v1.14034h-1.46615v-1.14034z" data-paper-data="{&quot;index&quot;:null}" fill="#582700" stroke="none" stroke-width="0" stroke-linecap="butt"/></g></g></svg>