<svg version="1.1" xmlns="http://www.w3.org/2000/svg" xmlns:xlink="http://www.w3.org/1999/xlink" width="9.78297" height="49.68904" viewBox="0,0,9.78297,49.68904"><g transform="translate(-158.28543,-238.80801)"><g data-paper-data="{&quot;isPaintingLayer&quot;:true}" fill-rule="nonzero" stroke="#000000" stroke-width="0.5" stroke-linejoin="miter" stroke-miterlimit="10" stroke-dasharray="" stroke-dashoffset="0" style="mix-blend-mode: normal"><g data-paper-data="{&quot;origPos&quot;:null,&quot;origRot&quot;:0}"><path d="M162.52265,243.00299l0.4081,-3.97913c0,0 0.30463,-0.17802 0.48735,-0.17229c0.54818,0.01719 2.27032,0.20381 3.72576,0.35308c0.26804,0.02749 0.66132,0.31914 0.66132,0.31914l-0.4081,3.97913z" data-paper-data="{&quot;origPos&quot;:null}" fill="#ffb9b9" stroke-linecap="butt"/><path d="M158.55963,280.77876l3.85146,-37.55301l5.2226,0.53563l-3.85146,37.55301z" fill="#ffaf36" stroke-linecap="butt"/><path d="M162.27015,244.48496l0.13263,-1.29322l5.07339,0.52033l-0.13263,1.29322z" fill="#d6d6d6" stroke-linecap="butt"/><path d="M162.41304,243.09226l0.10203,-0.99478l5.17287,0.53053l-0.10203,0.99478z" fill="#d6d6d6" stroke-linecap="butt"/><path d="M163.61139,281.61136l-3.33664,6.19189l-1.63089,-6.76419z" data-paper-data="{&quot;origPos&quot;:null}" fill="#eacd9d" stroke-linecap="round"/><path d="M160.0308,285.89342l0.80826,0.0829l-0.51971,1.39174z" fill="none" stroke-linecap="round"/><path d="M159.88736,286.06721l0.60899,0.18811" fill="none" stroke-linecap="round"/></g></g></g></svg>