<svg version="1.1" xmlns="http://www.w3.org/2000/svg" xmlns:xlink="http://www.w3.org/1999/xlink" width="127.66667" height="127.66667" viewBox="0,0,127.66667,127.66667"><g transform="translate(-176.16667,-116.16666)"><g data-paper-data="{&quot;isPaintingLayer&quot;:true}" fill-rule="nonzero" stroke-linejoin="miter" stroke-miterlimit="10" stroke-dasharray="" stroke-dashoffset="0" style="mix-blend-mode: normal"><g><path d="M204.43779,196.06142c-0.00232,0.00076 -0.00355,0.00112 -0.00355,0.00112l-0.57312,-0.02261c-1.11744,-0.77489 -1.08975,-2.13351 -0.73438,-3.3761c1.30077,-1.92822 4.22159,-7.35972 7.30154,-5.01257c1.45609,1.10965 1.92756,3.05773 2.83324,4.55614c1.93456,6.37168 -4.93307,4.84596 -8.82373,3.85402z" fill="#323344" stroke="#000000" stroke-width="1" stroke-linecap="butt"/><path d="M230.79019,183.97455c0.09208,-1.29431 0.62788,-4.48989 1.67011,-5.4049c2.9727,-2.60987 5.19378,0.66365 6.18231,3.01813c0.67624,2.27019 0.55764,6.19923 -0.9346,9.41734c-1.0289,2.21887 -3.03099,3.97284 -4.27774,5.03952c-0.42523,0.36381 -2.00037,0.62907 -4.9149,-1.90917c-2.72533,-2.37347 -5.13738,-6.38406 -4.23654,-7.41874c0.77522,-0.8904 6.44942,-1.8337 6.44942,-1.8337z" fill="#dc94e7" stroke="#000000" stroke-width="1" stroke-linecap="butt"/><path d="M228.35469,189.25908c0.06423,0.02314 0.10293,0.04416 0.10293,0.04416l0.86554,0.55189c0.52332,0.69599 0.7127,1.4084 0.93088,2.09157c0.26855,0.84087 0.48063,1.66717 0.19901,2.72387c-2.318,6.25948 -12.31881,10.99783 -14.9229,2.2127c-1.06802,-3.67 2.01722,-5.81404 5.58361,-6.94252c2.42992,-0.76888 5.05235,-1.17046 6.85741,-0.85446c0,0 0.20158,0.03574 0.3835,0.17279z" fill="#f89688" stroke="#000000" stroke-width="1" stroke-linecap="butt"/><path d="M209.71661,189.66047c-0.7036,-0.12264 -0.6582,-0.87089 -0.6582,-0.87089c0.12283,-2.00115 2.12605,-6.66339 4.62863,-6.27081c2.56651,0.40261 1.93084,3.04491 3.66449,4.15692c0.81676,0.52389 2.60368,0.01124 3.54694,0.06883c0.66196,0.90043 0.89577,1.02266 1.17389,2.05207c0.49102,1.81742 -0.5802,3.32602 -2.51532,3.45834c-3.09951,0.21194 -5.7053,-2.47469 -8.80607,-2.36226l-0.32,0.03113c0,0 -0.44533,0.04053 -0.71435,-0.26332z" fill="#fcdfbd" stroke="none" stroke-width="0.5" stroke-linecap="butt"/><path d="M220.89847,186.74452c0.66196,0.90043 0.89577,1.02266 1.17389,2.05208c0.49101,1.81742 -0.5802,3.32602 -2.51532,3.45834c-2.39377,0.16368 -4.49305,-1.4015 -6.7533,-2.07097c0.69755,-0.32859 1.33833,-0.62682 1.84367,-0.77588c0.55182,-0.16278 1.0529,-0.05215 1.54673,0.12288c0.60214,0.46249 1.3852,0.67409 2.17129,0.53825c0.32158,-0.0344 0.66101,-0.1449 1.02652,-0.37104c0.10283,-0.06363 0.20193,-0.14532 0.29605,-0.24205c0.76967,-0.64747 1.15287,-1.68531 0.93294,-2.71433c0.0986,-0.00301 0.19157,-0.0025 0.27754,0.00276z" fill="#f89688" stroke="none" stroke-width="0.5" stroke-linecap="butt"/><path d="M209.71661,189.66047c-0.7036,-0.12264 -0.6582,-0.87089 -0.6582,-0.87089c0.12283,-2.00115 2.12605,-6.66339 4.62862,-6.27081c2.5665,0.40262 1.93084,3.0449 3.66449,4.15691c0.81675,0.52388 2.60367,0.01125 3.54694,0.06884c0.66196,0.90043 0.89577,1.02266 1.17389,2.05208c0.49101,1.81742 -0.5802,3.32602 -2.51532,3.45834c-3.0995,0.21194 -5.7053,-2.47469 -8.80607,-2.36226l-0.32,0.03111c0,0 -0.44533,0.04053 -0.71435,-0.26331z" fill="none" stroke="#000000" stroke-width="1" stroke-linecap="butt"/><path d="M209.88224,187.3547c0.15845,0.53453 -0.37609,0.69298 -0.37609,0.69298l-0.08223,0.02438c-3.31478,0.98257 -5.18015,3.98767 -4.54917,7.45133c0,0 0.03108,0.17326 -0.03904,0.34254l0.13565,0.24417c0,0 -0.25806,0.4755 -0.73415,0.23549c-0.07225,0.01064 -0.14452,0.02129 -0.21677,0.03193c0,0 -0.31205,0.04598 -0.50129,-0.16595c-0.32891,-0.04515 -0.43432,-0.40076 -0.43432,-0.40076l-0.03991,-0.14975c-0.82427,-4.98757 1.0599,-7.71208 5.75139,-9.10274c0,0 0.53453,-0.15845 0.69298,0.37609c0.00365,0.0123 0.00693,0.02441 0.00985,0.03631c0.14748,0.03237 0.30779,0.12987 0.38311,0.38398z" fill="#455d83" stroke="none" stroke-width="0.5" stroke-linecap="butt"/><path d="M204.77881,194.80612c-0.53856,-0.13338 -1.10334,-0.14242 -1.61433,-0.00905c-0.07881,-0.02123 -0.15982,-0.03563 -0.24214,-0.0427c-0.16934,-1.64018 -0.00933,-3.01283 0.48417,-4.15724c0.57709,0.46813 1.1434,0.95723 1.70778,1.43885c-0.29865,0.85018 -0.419,1.78631 -0.33547,2.77015z" fill="#85afb1" stroke="none" stroke-width="0.5" stroke-linecap="butt"/><path d="M204.88914,188.55617c0.48483,0.49503 1.09621,0.95186 1.61055,1.24553c-0.35007,0.35921 -0.65236,0.75703 -0.90242,1.18679c-0.5446,-0.46255 -1.0897,-0.92855 -1.64526,-1.37698c0.26425,-0.38211 0.57656,-0.73317 0.93714,-1.05534z" fill="#85afb1" stroke="none" stroke-width="0.5" stroke-linecap="butt"/><path d="M209.88224,187.35471c0.15845,0.53453 -0.37609,0.69298 -0.37609,0.69298l-0.08223,0.02438c-3.31478,0.98257 -5.18015,3.98767 -4.54918,7.45134c0,0 0.03108,0.17326 -0.03904,0.34254l0.13565,0.24418c0,0 -0.25805,0.47549 -0.73415,0.23549c-0.07225,0.01064 -0.14452,0.02129 -0.21677,0.03193c0,0 -0.31205,0.04597 -0.50129,-0.16595c-0.32892,-0.04513 -0.43433,-0.40076 -0.43433,-0.40076l-0.03991,-0.14975c-0.82427,-4.98757 1.05989,-7.71208 5.75139,-9.10274c0,0 0.53453,-0.15845 0.69298,0.37609c0.00364,0.01229 0.00693,0.02441 0.00986,0.03632c0.14748,0.03237 0.30779,0.12987 0.38311,0.38398z" fill="none" stroke="#000000" stroke-width="1" stroke-linecap="butt"/><path d="M221.12958,194.35142c0,0 3.03474,-0.8424 4.01026,0.73057c0.78271,1.26207 -0.13016,2.65441 -0.50035,3.89545c-0.87623,2.93736 -2.063,7.80333 -6.07826,6.33939c-0.86876,-0.41061 -1.56716,-0.89818 -2.34548,-1.45568l-0.10008,-0.05299c-0.89285,0.81513 -1.90235,1.16143 -2.68072,0.759c-0.82405,-0.42604 -1.76967,-1.54095 -2.5887,-2.27189c-1.35373,0.63783 -2.83082,1.33114 -4.22481,0.78036c-1.34063,-0.52969 -1.38685,-1.63694 -1.73924,-2.82576c-0.98706,-3.32993 0.26557,-6.64987 2.86538,-8.90975c1.22514,-1.31758 2.3537,-3.16139 4.16549,-3.81283c1.27422,-0.45814 2.2898,0.06946 3.07601,0.81487c0.90711,0.86005 1.47566,2.07128 1.24189,3.39144c1.24748,-0.14922 2.60505,0.19491 3.64524,0.82081c1.01857,0.6129 0.80998,1.09389 1.25334,1.79702z" fill="#fde0be" stroke="none" stroke-width="0.5" stroke-linecap="butt"/><path d="M225.13984,195.082c0.78272,1.26208 -0.13015,2.65441 -0.50036,3.89544c-0.87624,2.93737 -2.06299,7.80334 -6.07826,6.3394c-0.86876,-0.41061 -1.56716,-0.89818 -2.34547,-1.45569l-0.10008,-0.05299c-0.89285,0.81513 -1.90235,1.16143 -2.68072,0.759c-0.82405,-0.42604 -1.76966,-1.54097 -2.58869,-2.2719c-1.35373,0.63783 -2.83081,1.33114 -4.2248,0.78036c-1.34063,-0.5297 -1.38685,-1.63694 -1.73924,-2.82576c-0.33021,-1.11399 -0.40976,-2.22686 -0.27207,-3.29929c0.11885,0.15799 0.21295,0.32121 0.25407,0.50576l0.00794,0.00481c0.24162,1.12585 0.85461,1.89783 1.64825,2.28819c0.63917,0.36892 1.42271,0.48486 2.18613,0.25857c0.27623,-0.08188 0.53025,-0.20277 0.75783,-0.35486c0.2578,-0.12353 0.51389,-0.27664 0.76456,-0.45985c1.09016,-0.79675 2.49808,-2.27668 3.72791,-4.001c-0.0627,0.94873 -0.07163,1.87652 -0.04149,2.62186c-0.04434,0.36687 -0.01604,0.74862 0.09567,1.12547c0.06654,0.22449 0.15885,0.43429 0.27272,0.62718c0.4518,1.5242 1.79453,1.69927 2.97793,1.30777c0.07151,-0.01524 0.14297,-0.03338 0.21425,-0.05451c0.58805,-0.17431 1.07545,-0.52539 1.4214,-0.97806c0.11784,-0.13316 0.21407,-0.27027 0.28343,-0.40742c0.07822,-0.15467 0.15853,-0.32559 0.23991,-0.50991c0.23319,0.05827 -0.261,2.3221 -0.02068,2.32034c0.7111,-0.00515 2.16364,-2.52592 2.75211,-3.21097c0.47151,-0.54889 0.71439,-1.08968 0.78503,-1.60086c0.15752,-0.50816 0.17155,-1.0669 0.00901,-1.61525c-0.07353,-0.24806 -0.17852,-0.47821 -0.30931,-0.6874c0.91038,-0.03441 1.99068,0.12549 2.50302,0.9516z" fill="#f89688" stroke="none" stroke-width="0.5" stroke-linecap="butt"/><path d="M221.12958,194.35142c0,0 3.03474,-0.8424 4.01026,0.73057c0.78272,1.26208 -0.13015,2.65441 -0.50036,3.89544c-0.87624,2.93737 -2.06299,7.80334 -6.07826,6.3394c-0.86876,-0.41061 -1.56716,-0.89818 -2.34547,-1.45569l-0.10008,-0.05299c-0.89285,0.81513 -1.90235,1.16143 -2.68072,0.759c-0.82405,-0.42604 -1.76966,-1.54097 -2.58869,-2.2719c-1.35373,0.63783 -2.83081,1.33114 -4.2248,0.78036c-1.34063,-0.5297 -1.38685,-1.63694 -1.73924,-2.82576c-0.98706,-3.32993 0.26556,-6.64987 2.86536,-8.90975c1.22514,-1.31758 2.3537,-3.16139 4.1655,-3.81284c1.27422,-0.45814 2.2898,0.06946 3.07599,0.81488c0.90711,0.86005 1.47566,2.07128 1.24189,3.39144c1.24749,-0.14923 2.60505,0.19491 3.64524,0.82082c1.01858,0.61289 0.80998,1.09389 1.25334,1.79702z" fill="none" stroke="#000000" stroke-width="1" stroke-linecap="butt"/><path d="M212.47312,196.7592l4.08843,-4.77843" fill="none" stroke="#000000" stroke-width="1" stroke-linecap="round"/><path d="M220.91745,194.64379l-2.38583,4.50634" fill="none" stroke="#000000" stroke-width="1" stroke-linecap="round"/><path d="M194.66994,190.2089c-1.353,-4.56446 0.74171,-9.56859 5.30619,-10.92159c2.43849,-0.72282 4.17163,-0.07483 6.05354,1.12328c0.63403,0.40365 1.67374,1.24567 2.4051,2.24546c1.16122,1.58742 1.29594,3.46748 1.26341,3.77307c-0.0259,0.24334 -3.27786,-0.5644 -5.43292,2.47915c-2.19818,3.10447 -1.57636,7.37776 -1.57636,7.37776c0,0 -2.216,0.23432 -3.93093,-0.60528c-1.91097,-0.93558 -3.37495,-3.06623 -4.08803,-5.47187z" fill="#465e85" stroke="#000000" stroke-width="0" stroke-linecap="butt"/><path d="M194.66994,190.2089c-0.16989,-0.57313 -0.28541,-1.15319 -0.34853,-1.73209c0.06813,0.06583 0.1426,0.12433 0.22205,0.17477l0.01007,0.01908l0.04062,0.01162c0.20493,0.11827 0.43955,0.18452 0.68217,0.18699l0.23896,0.00803l0.13955,-0.02995l0.14435,0.04463l0.08795,0.00483l0.0804,0.03594l0.09931,0.0176l0.01131,0.01082l0.04,-0.00173l0.03823,0.00678l0.31949,-0.02224l0.31996,-0.01383l0.03724,-0.01104l0.03994,-0.00277l0.01001,-0.01203l0.02801,-0.0083l0.03423,0.0153l0.09931,0.0176l0.01131,0.01082l0.04,-0.00173l0.03823,0.00678l0.31949,-0.02224l0.31996,-0.01383l0.03724,-0.01104l0.03994,-0.00277l0.01001,-0.01203l6.89897,-2.045l0.03724,-0.00259l0.31996,-0.01383l0.03724,-0.01104l0.03994,-0.00277l0.01001,-0.01203l0.20889,-0.06192l0.02552,0.0073l0.54217,0.01822l0.17224,-0.03696l0.30402,-0.02116l0.31996,-0.01383l0.03724,-0.01104l0.03994,-0.00277l0.01001,-0.01203l0.45559,-0.13505l0.02552,0.0073l0.17208,0.00578l0.19062,0.03379l0.01131,0.01082l0.04,-0.00173l0.03823,0.00678l0.26728,-0.0186c-1.12614,0.16473 -2.62553,0.67984 -3.79946,2.33777c-2.19818,3.10447 -1.57636,7.37776 -1.57636,7.37776c0,0 -2.216,0.23432 -3.93093,-0.60528c-1.91097,-0.93558 -3.37495,-3.06623 -4.08803,-5.47187z" fill="#323344" stroke="#000000" stroke-width="0" stroke-linecap="butt"/><path d="M197.8881,184.32105l0.00799,0.01512l-0.02436,-0.00498z" fill="#323344" stroke="#000000" stroke-width="0" stroke-linecap="butt"/><path d="M194.66994,190.2089c-1.353,-4.56447 0.74172,-9.56859 5.30619,-10.92159c2.43849,-0.72282 4.17162,-0.07483 6.05353,1.12328c0.63403,0.40365 1.67373,1.24567 2.4051,2.24546c1.16122,1.58741 1.29595,3.46747 1.26342,3.77307c-0.0259,0.24334 -3.27785,-0.5644 -5.43292,2.47917c-2.19818,3.10447 -1.57636,7.37776 -1.57636,7.37776c0,0 -2.21601,0.23433 -3.93094,-0.60527c-1.91097,-0.93558 -3.37495,-3.06623 -4.08803,-5.47186z" fill="none" stroke="#000000" stroke-width="1" stroke-linecap="butt"/><path d="M200.8994,195.8324c0,0 -1.5232,-5.70484 0.83577,-8.53038c2.49428,-2.98763 7.53002,-2.17987 7.53002,-2.17987" fill="none" stroke="#000000" stroke-width="1" stroke-linecap="round"/><path d="M196.97002,194.04492c0,0 -0.21554,-5.58119 1.71463,-9.16402c1.75236,-3.25276 7.06207,-4.0835 7.06207,-4.0835" fill="none" stroke="#000000" stroke-width="1" stroke-linecap="round"/><path d="M194.55408,189.21444c0,0 1.60737,-4.56288 2.77891,-6.34476c1.05703,-1.60774 3.94217,-3.87796 3.94217,-3.87796" fill="none" stroke="#000000" stroke-width="1" stroke-linecap="round"/><path d="M202.05659,193.70015c0,0 -2.65544,0.18497 -3.7741,-0.1315c-1.09421,-0.30956 -2.86612,-1.74704 -2.86612,-1.74704" fill="none" stroke="#000000" stroke-width="1" stroke-linecap="round"/><path d="M202.75089,192.42082c0,0 -3.24976,-0.59886 -4.70358,-1.17038c-1.29575,-0.50937 -3.59984,-2.09385 -3.59984,-2.09385" fill="none" stroke="#000000" stroke-width="1" stroke-linecap="round"/><path d="M203.08573,190.53233c0,0 -3.33533,-0.96297 -4.63672,-1.95389c-1.42227,-1.08295 -3.56652,-4.29227 -3.56652,-4.29227" fill="none" stroke="#000000" stroke-width="1" stroke-linecap="round"/><path d="M196.38683,181.51426c0,0 3.82592,3.07717 5.14119,4.43357c1.09054,1.12466 2.20329,3.14068 2.20329,3.14068" fill="none" stroke="#000000" stroke-width="1" stroke-linecap="round"/><path d="M199.3015,179.57674c0,0 2.78728,1.73201 3.81365,2.93924c1.07716,1.26696 2.50434,4.49197 2.50434,4.49197" fill="none" stroke="#000000" stroke-width="1" stroke-linecap="round"/><path d="M204.90292,180.06344c0,0 1.28062,1.76283 1.74192,2.77796c0.4813,1.05917 1.08842,3.45053 1.08842,3.45053" fill="none" stroke="#000000" stroke-width="1" stroke-linecap="round"/></g><g><g stroke="#000000"><path d="M254.29413,193.31798l1.75835,9.73519l-37.56842,-0.98638c0,0 0.35965,-9.54107 2.07153,-11.34553c0.59347,-0.62556 6.41997,2.03919 6.41997,2.03919l0.25732,-3.81689z" fill="#0066cd" stroke-width="0" stroke-linecap="round"/><path d="M247.75783,195.084c-1.50492,0.75211 -3.46626,1.96401 -5.55469,2.32519c-3.234,0.55932 -6.47304,0.03793 -6.47304,0.03793c0,0 0.30281,3.49312 0.18664,5.07736l-6.30755,-0.16562c0.10962,-1.29633 -0.57405,-3.71336 -1.36584,-5.89166c-0.62872,-1.72966 -1.37315,-3.35633 -1.50415,-3.81326c0.15103,0.06748 0.23634,0.1065 0.23634,0.1065l0.25732,-3.81689l20.66543,3.37873c0,0 0.43609,0.795 0.40582,1.59336c-0.01954,0.51496 -0.48353,1.15655 -0.54628,1.16833z" fill="#061483" stroke-width="0" stroke-linecap="butt"/><path d="M254.29413,193.31798l1.75835,9.73519l-37.56842,-0.98638c0,0 0.35965,-9.54107 2.07153,-11.34553c0.59347,-0.62556 6.41997,2.03919 6.41997,2.03919l0.25732,-3.81689z" fill="none" stroke-width="1" stroke-linecap="round"/><path d="M232.8081,195.67673l2.1872,1.887" fill="none" stroke-width="1" stroke-linecap="round"/></g><g><path d="M240.61342,209.63623c0,0.33519 -1.63074,2.50378 -2.85523,2.79868c-2.46242,0.59307 -7.38873,0.24178 -11.07692,0.90119c-1.33696,0.23903 -3.19606,0.44866 -4.63054,1.09762c-0.92448,0.41823 -1.74343,2.02085 -6.96282,2.16315c-3.25738,0.0888 -6.83425,-0.83198 -7.71227,-1.14691c-2.50226,-0.89751 -3.34425,-2.76549 -3.30137,-4.09828c0.01257,-0.39041 0.42812,-1.81565 1.76048,-1.48829c0.90605,0.22261 3.46358,1.84521 6.17255,2.24522c3.29288,0.48623 6.89529,0.06209 7.94157,-0.19361c2.51502,-0.61463 4.62961,-2.03761 7.06881,-2.81725c2.58159,-0.82516 5.97162,0.34968 8.04687,-0.15176c2.70956,-0.65471 3.81251,-2.83717 4.39353,-2.55589c0.93799,0.4541 1.15532,2.55874 1.15532,3.24612z" fill="#feecf7" stroke="none" stroke-width="0" stroke-linecap="butt"/><path d="M237.75819,212.4349c-2.46242,0.59306 -7.38873,0.24178 -11.07692,0.90119c-1.33696,0.23904 -3.19606,0.44867 -4.63054,1.09763c-0.92447,0.41822 -1.74343,2.02085 -6.9628,2.16315c-0.4438,0.0121 -0.89353,0.00545 -1.34155,-0.01584c-0.43617,-1.67958 -1.41883,-3.10604 -2.32625,-4.5779c0.19455,0.04094 0.39047,0.07644 0.58718,0.10547c3.29288,0.48623 6.8953,0.0621 7.94157,-0.19361c2.51503,-0.61465 4.62961,-2.03761 7.06882,-2.81725c2.58159,-0.82514 5.97162,0.34968 8.04687,-0.15176c2.70956,-0.6547 3.81251,-2.83717 4.39353,-2.55589c0.93799,0.45411 1.15532,2.55874 1.15532,3.24612c0,0.3352 -1.63074,2.50378 -2.85523,2.79868z" fill="#dd95e8" stroke="none" stroke-width="0" stroke-linecap="butt"/><path d="M240.61342,209.63623c0,0.33519 -1.63074,2.50378 -2.85523,2.79868c-2.46242,0.59307 -7.38873,0.24178 -11.07692,0.90119c-1.33696,0.23903 -3.19606,0.44866 -4.63054,1.09762c-0.92448,0.41823 -1.74343,2.02085 -6.96282,2.16315c-3.25738,0.0888 -6.83425,-0.83198 -7.71227,-1.14691c-2.50226,-0.89751 -3.34425,-2.76549 -3.30137,-4.09828c0.01257,-0.39041 0.42812,-1.81565 1.76048,-1.48829c0.90605,0.22261 3.46358,1.84521 6.17255,2.24522c3.29288,0.48623 6.89529,0.06209 7.94157,-0.19361c2.51502,-0.61463 4.62961,-2.03761 7.06881,-2.81725c2.58159,-0.82516 5.97162,0.34968 8.04687,-0.15176c2.70956,-0.65471 3.81251,-2.83717 4.39353,-2.55589c0.93799,0.4541 1.15532,2.55874 1.15532,3.24612z" fill="none" stroke="#000000" stroke-width="1" stroke-linecap="butt"/><path d="M218.35539,201.20906l-1.32948,-3.73111c0,0 2.8106,-2.12368 7.65675,-1.54147c3.72193,0.44716 5.08049,4.41485 5.08049,4.41485c0,0 3.57503,-4.04059 4.74028,-3.35392c0.51589,0.30401 2.34417,1.10802 2.97465,2.21711c1.53721,2.70415 1.80584,6.62625 1.80584,6.62625c0,0 -0.38263,2.21366 -2.79127,2.88539c-1.68043,0.46864 -4.34287,0.34385 -7.03231,0.50096c-0.85331,0.04984 -1.69638,0.03395 -2.4905,0.25952c-1.84413,0.5238 -3.42297,1.56729 -5.3759,2.2564c-1.55439,0.54848 -3.47151,0.8096 -5.04159,0.85874c-3.6108,0.11301 -7.30255,-0.80321 -10.16225,-2.30084c-1.8351,-0.96105 1.51881,-3.82844 5.17407,-5.95649c3.26663,-1.9018 6.79121,-3.1354 6.79121,-3.1354z" fill="#ff292e" stroke="#000000" stroke-width="0" stroke-linecap="round"/><path d="M227.6901,197.3114c0.56861,0.50162 1.73755,1.99339 1.90193,3.00395c0.1394,0.857 -0.70861,1.23546 -0.48498,1.75693c0.19854,0.46296 1.42806,0.16605 1.42806,0.16605c0,0 2.04695,-0.84384 3.62863,-2.29243c0.7716,-0.70667 1.64124,-2.23 1.64124,-2.23c0,0 1.33278,0.89999 1.67309,1.49863c1.53721,2.70415 1.80584,6.62625 1.80584,6.62625c0,0 -0.38263,2.21366 -2.79127,2.88539c-1.68043,0.46864 -4.34287,0.34385 -7.03231,0.50096c-0.85331,0.04984 -1.69638,0.03395 -2.4905,0.25952c-1.84413,0.5238 -3.42297,1.56729 -5.3759,2.2564c-1.55439,0.54848 -3.47151,0.8096 -5.04159,0.85874c-0.98536,0.03084 -2.95564,-0.12833 -2.95564,-0.12833c0,0 -0.45608,-2.69671 1.66501,-5.12594c2.44768,-2.80325 7.68327,-4.11214 10.44969,-6.15067c2.49395,-1.83776 1.78263,-4.05842 1.97869,-3.88545z" fill="#ac0e49" stroke="#000000" stroke-width="0" stroke-linecap="round"/><path d="M229.76313,200.30844c0,0 0.12921,1.06387 -0.40554,1.51144c-0.38839,0.32507 -1.9532,0.58999 -1.9532,0.58999" fill="none" stroke="#000000" stroke-width="1" stroke-linecap="round"/><path d="M235.05963,200.30844c0,-0.46186 0.37442,-0.83628 0.83628,-0.83628c0.46186,0 0.83628,0.37442 0.83628,0.83628c0,0.46186 -0.37442,0.83628 -0.83628,0.83628c-0.46186,0 -0.83628,-0.37442 -0.83628,-0.83628z" fill="#000000" stroke="none" stroke-width="0.5" stroke-linecap="butt"/><path d="M218.35539,201.20906l-1.32948,-3.73111c0,0 2.8106,-2.12368 7.65675,-1.54147c3.72193,0.44716 5.08049,4.41485 5.08049,4.41485c0,0 3.57503,-4.04059 4.74028,-3.35392c0.51589,0.30401 2.34417,1.10802 2.97465,2.21711c1.53721,2.70415 1.80584,6.62625 1.80584,6.62625c0,0 -0.38263,2.21366 -2.79127,2.88539c-1.68043,0.46864 -4.34287,0.34385 -7.03231,0.50096c-0.85331,0.04984 -1.69638,0.03395 -2.4905,0.25952c-1.84413,0.5238 -3.42297,1.56729 -5.3759,2.2564c-1.55439,0.54848 -3.47151,0.8096 -5.04159,0.85874c-3.6108,0.11301 -7.30255,-0.80321 -10.16225,-2.30084c-1.8351,-0.96105 1.51881,-3.82844 5.17407,-5.95649c3.26663,-1.9018 6.79121,-3.1354 6.79121,-3.1354z" fill="none" stroke="#000000" stroke-width="1" stroke-linecap="round"/><path d="M213.18761,203.43915c0,-0.2686 0.12664,-0.50764 0.32345,-0.66064c-0.14245,0.30595 -0.231,0.64203 -0.25346,0.99609c-0.04501,-0.10268 -0.06999,-0.21615 -0.06999,-0.33545z" fill="#db93e6" stroke="none" stroke-width="0.5" stroke-linecap="butt"/><path d="M221.529,200.84453c5.36301,0.04651 4.6557,6.30284 1.97676,4.47385c-0.56413,-0.38516 -1.14635,-1.13569 -1.75326,-1.58809c-0.80799,-0.60228 -2.20652,-1.18841 -3.05294,-1.67209c-0.29133,-0.13074 -0.16932,-1.01887 0.23482,-1.19223c0.40415,-0.17336 1.73335,-0.02891 2.59462,-0.02144z" fill="#f0e0ec" stroke="none" stroke-width="0.5" stroke-linecap="butt"/><path d="M221.58913,206.78426c-0.04287,0.42165 -0.399,0.75067 -0.83196,0.75067c-0.30694,0 -0.57525,-0.16535 -0.72072,-0.41184c-0.2312,-0.13211 -1.05102,-1.37107 -2.08121,-2.38367c-0.87171,-0.85682 -1.89764,-1.52796 -2.33491,-2.16462c-0.32071,-0.46696 -0.11359,-0.78023 0.33214,-0.94991c1.44435,-0.54982 6.80364,3.20573 5.63666,5.15938z" data-paper-data="{&quot;index&quot;:null}" fill="#f0e0ec" stroke="none" stroke-width="0.5" stroke-linecap="butt"/><path d="M218.84858,207.16312c0.33475,1.26692 -1.09143,2.00882 -1.79482,0.9035c-0.41897,-0.65837 -0.90974,-1.69156 -1.54123,-2.21345c-0.66411,-0.54886 -1.48386,-0.94215 -1.91308,-1.69329c-0.24648,-0.14548 -0.41184,-0.41378 -0.41184,-0.72072c0,-0.46186 0.37442,-0.83628 0.83628,-0.83628c0.25436,0 0.48222,0.11357 0.6356,0.29277c1.65607,0.45449 3.87257,3.06959 4.18909,4.2675z" fill="#f0e0ec" stroke="none" stroke-width="0.5" stroke-linecap="butt"/><path d="M223.50574,205.31838c-0.54218,-0.37016 -1.10106,-1.07782 -1.68251,-1.53396c1.10453,-0.27698 1.94761,-1.21297 2.08707,-2.36577c2.65203,1.51262 1.77818,5.38995 -0.40456,3.89972z" fill="#db93e6" stroke="none" stroke-width="0.5" stroke-linecap="butt"/><path d="M221.58913,206.78426c-0.04287,0.42165 -0.399,0.75067 -0.83196,0.75067c-0.30694,0 -0.57525,-0.16535 -0.72072,-0.41184c-0.16927,-0.09673 -0.6541,-0.7868 -1.30598,-1.54695c0.88983,-0.0642 1.66392,-0.54608 2.12724,-1.25056c0.74673,0.8655 1.14097,1.77304 0.73142,2.45866z" data-paper-data="{&quot;index&quot;:null}" fill="#db93e6" stroke="none" stroke-width="0.5" stroke-linecap="butt"/><path d="M218.84858,207.16312c0.33475,1.26692 -1.09143,2.00882 -1.79482,0.9035c-0.23987,-0.37693 -0.50328,-0.87673 -0.80316,-1.33309c0.74314,-0.05563 1.40506,-0.40263 1.87188,-0.92709c0.36774,0.51507 0.63159,0.99905 0.72609,1.35669z" fill="#db93e6" stroke="none" stroke-width="0.5" stroke-linecap="butt"/><path d="M221.529,200.84453c5.36301,0.04651 4.6557,6.30284 1.97676,4.47385c-0.56413,-0.38516 -1.14635,-1.13569 -1.75326,-1.58809c-0.80799,-0.60228 -2.20652,-1.18841 -3.05294,-1.67209c-0.29133,-0.13074 -0.16932,-1.01887 0.23482,-1.19223c0.40415,-0.17336 1.73335,-0.02891 2.59462,-0.02144z" fill="none" stroke="#000000" stroke-width="1" stroke-linecap="butt"/><path d="M221.58913,206.78426c-0.04287,0.42165 -0.399,0.75067 -0.83196,0.75067c-0.30694,0 -0.57525,-0.16535 -0.72072,-0.41184c-0.2312,-0.13211 -1.05102,-1.37107 -2.08121,-2.38367c-0.87171,-0.85682 -1.89764,-1.52796 -2.33491,-2.16462c-0.32071,-0.46696 -0.11359,-0.78023 0.33214,-0.94991c1.44435,-0.54982 6.80364,3.20573 5.63666,5.15938z" data-paper-data="{&quot;index&quot;:null}" fill="none" stroke="#000000" stroke-width="1" stroke-linecap="butt"/><path d="M217.05375,208.06662c-0.41897,-0.65837 -0.90974,-1.69156 -1.54123,-2.21345c-0.66411,-0.54886 -1.48386,-0.94215 -1.91308,-1.69329c-0.24648,-0.14548 -0.41184,-0.41378 -0.41184,-0.72072c0,-0.46186 0.37442,-0.83628 0.83628,-0.83628c0.25436,0 0.48222,0.11357 0.6356,0.29277c1.65607,0.45449 3.87257,3.06959 4.18909,4.2675c0.31652,1.1979 -1.09143,2.00881 -1.79482,0.90349z" fill="none" stroke="#000000" stroke-width="1" stroke-linecap="butt"/></g><g><path d="M239.36971,208.91399c0,0 0.3915,8.34024 14.60749,6.23944c13.4989,-1.99483 11.63893,-9.15571 11.63893,-9.15571l4.20286,1.887c0,0 -0.00863,1.18868 0.0127,2.61652c0.02049,1.37182 0.09502,2.95119 -1.0369,4.54341c-2.00021,2.81361 -6.76078,4.99215 -16.60204,5.40697c-20.06166,0.84564 -12.82304,-11.53763 -12.82304,-11.53763z" fill="#ffeffa" stroke="#000000" stroke-width="0" stroke-linecap="round"/><path d="M238.24138,214.9262c-0.01726,-0.07859 3.87856,5.67316 16.55063,3.82969c14.35662,-1.86616 15.02695,-10.87116 15.02695,-10.87116c0,0 -0.00863,1.18868 0.0127,2.61652c0.02049,1.37182 0.09502,2.95119 -1.0369,4.54341c-2.00021,2.81361 -6.76078,4.99215 -16.60204,5.40697c-10.11326,0.42629 -13.28882,-2.50921 -13.95136,-5.52542z" fill="#dd95e8" stroke="#000000" stroke-width="0" stroke-linecap="round"/><path d="M239.36971,208.91399c0,0 0.3915,8.34024 14.60749,6.23944c13.4989,-1.99483 11.63893,-9.15571 11.63893,-9.15571l4.20286,1.887c0,0 -0.00863,1.18868 0.0127,2.61652c0.02049,1.37182 0.09502,2.95119 -1.0369,4.54341c-2.00021,2.81361 -6.76078,4.99215 -16.60204,5.40697c-20.06166,0.84564 -12.82304,-11.53763 -12.82304,-11.53763z" fill="none" stroke="#000000" stroke-width="1" stroke-linecap="round"/><path d="M244.55778,199.14542c1.31642,-1.17593 6.83383,-2.37225 9.54146,-1.8472c1.63401,0.31686 1.35284,1.93808 1.35284,1.93808c0,0 6.50518,-3.29028 7.2311,-2.78214c0.28324,0.19828 1.53295,2.07667 0.92706,3.17351c-0.89762,1.62499 -3.86953,2.61068 -3.86953,2.61068c0,0 0.38686,0.12296 0.98019,0.36644c-4.37977,0.2708 -10.45727,2.81658 -13.09573,2.97807c-0.28949,0.01772 -0.09375,-0.57255 -0.14995,-0.85709c-0.2393,-1.21161 -0.36474,-2.58493 -1.15202,-3.60541c-0.53209,-0.6897 -1.20811,-1.28668 -1.96677,-1.76955c0.06482,-0.07445 0.13195,-0.14336 0.20135,-0.20536z" fill="#ff292e" stroke="#000000" stroke-width="0" stroke-linecap="butt"/><path d="M239.75568,206.14098l-4.26626,-0.16396c0,0 -0.75986,-1.06582 0.64989,-3.95604l0.44322,0.77565c0.89587,1.56777 5.91336,-0.09743 5.42961,2.84951c-0.11145,0.67887 -1.32062,0.92814 -2.47088,1.49438c0.1108,-0.61531 0.21443,-0.99954 0.21443,-0.99954z" fill="#ff292e" stroke="#000000" stroke-width="0" stroke-linecap="butt"/><path d="M258.17176,209.10014c0.36853,-0.08338 0.88232,-0.11124 1.46868,-0.11798c-0.6464,0.16771 -1.32782,0.23565 -2.02895,0.24198c0.20663,-0.04469 0.39459,-0.08651 0.56025,-0.12398z" fill="#ac0e49" stroke="#000000" stroke-width="0" stroke-linecap="butt"/><path d="M243.10081,202.06679c0,0 0.52294,-2.08702 1.45697,-2.92137c1.31642,-1.17593 6.83383,-2.37225 9.54146,-1.8472c1.63401,0.31686 1.35284,1.93808 1.35284,1.93808c0,0 6.50518,-3.29028 7.2311,-2.78214c0.28324,0.19828 1.53295,2.07667 0.92706,3.17351c-0.89762,1.62499 -3.86953,2.61068 -3.86953,2.61068c0,0 3.2768,1.04143 5.38321,3.06446c3.27168,3.14221 4.20444,8.1679 -10.60834,11.59558c-1.79091,0.41442 -10.06451,0.93634 -13.55884,-2.11337c-2.85954,-2.49569 -1.20105,-8.64402 -1.20105,-8.64402l-4.26626,-0.16396c0,0 -0.79623,-1.11685 0.75362,-4.16423c0.36247,-0.7127 6.85777,0.254 6.85777,0.254z" fill="#ff292e" stroke="#000000" stroke-width="0" stroke-linecap="round"/><path d="M239.75568,206.14098l-4.26626,-0.16396c0,0 -0.5427,-0.76123 0.14011,-2.74157c1.97616,0.73611 6.21238,1.20089 7.42841,1.75617c0.14476,0.0661 -1.20123,0.75924 -1.35092,0.8545c-0.89102,0.56702 -1.4988,1.12815 -2.20328,1.90308c-0.02477,0.02724 -0.04901,0.05479 -0.07273,0.08264c0.13987,-1.0057 0.32469,-1.69088 0.32469,-1.69088z" fill="#ac0e49" stroke="#000000" stroke-width="0" stroke-linecap="butt"/><path d="M239.01589,206.27232c-0.27303,0.24428 -2.54969,0.17339 -2.50058,-0.53893c-0.05339,-0.11013 -0.08333,-0.23375 -0.08333,-0.36435c0,-0.46186 0.37442,-0.83628 0.83628,-0.83628c0.24056,0 0.4574,0.10157 0.60997,0.26417c1.11623,-0.04955 2.12857,0.58878 1.13765,1.4754z" fill="#000000" stroke="none" stroke-width="0.5" stroke-linecap="butt"/><path d="M254.51556,216.89838c-1.79091,0.41442 -10.06451,0.93634 -13.55884,-2.11337c-0.3195,-0.27885 -0.5826,-0.60331 -0.79791,-0.95967c3.21261,0.17766 11.22397,-3.76602 14.15318,-4.46787c1.7611,-0.42198 5.91336,0.01395 8.68214,-0.70891c0.18548,-0.04842 1.22555,1.94151 1.60247,1.53843c0.40093,-0.42875 1.09917,-3.59532 1.0842,-4.30339c2.77006,3.15444 2.76525,7.79127 -11.16524,11.01479z" fill="#ac0e49" stroke="#000000" stroke-width="0" stroke-linecap="butt"/><path d="M263.61022,199.62765c-0.89762,1.62499 -3.86953,2.61068 -3.86953,2.61068c0,0 0.88914,0.28259 2.03882,0.8393c-2.6179,0.16708 -5.35164,0.92473 -5.54022,0.30285c-0.44904,-1.48077 3.96725,-4.01273 6.07544,-5.71395c0.29957,-0.18436 0.56161,-0.42379 0.77203,-0.70418c0.43424,0.68131 0.95958,1.87579 0.52345,2.66532z" fill="#ac0e49" stroke="#000000" stroke-width="0" stroke-linecap="butt"/><path d="M242.88638,202.23833l2.40164,3.00204" fill="none" stroke="#000000" stroke-width="1" stroke-linecap="round"/><path d="M245.20225,208.11375c0,0 -1.46726,-0.21889 -1.62111,-0.58326c-0.46565,-1.10286 0.59183,-1.47529 0.59183,-1.47529c0,0 3.3467,-2.24519 5.84223,-2.74497c4.07916,-0.81696 6.42326,-0.04264 6.42326,-0.04264c0,0 1.21563,0.0579 1.55332,0.68722c0.31306,0.58342 -0.18096,1.02823 -0.18096,1.02823c0,0 1.6958,0.03505 2.41724,0.88295c0.94578,1.11157 0.15594,1.39003 0.15594,1.39003c0,0 1.26494,-0.00347 1.66996,0.92131c0.31713,0.72408 -0.51203,1.18013 -0.51203,1.18013c0,0 -5.20712,0.3391 -7.70654,0.76286c-2.47516,0.41965 -7.2179,1.76743 -7.2179,1.76743c0,0 -0.99125,0.44662 -1.27567,-0.67379c-0.23639,-0.93121 0.46081,-1.42764 0.46081,-1.42764c0,0 -1.03151,0.46549 -1.3061,-0.43725c-0.18736,-0.61595 0.70569,-1.23531 0.70569,-1.23531z" fill="#feeffb" stroke="#000000" stroke-width="0" stroke-linecap="round"/><path d="M250.0152,203.31023c4.07916,-0.81696 6.42326,-0.04264 6.42326,-0.04264c0,0 0.90806,0.04325 1.37255,0.46129c-1.71687,1.49587 -2.92822,4.45112 -5.42574,3.93719c-1.53135,-0.31512 -2.76377,-2.09366 -3.98648,-3.85867c0.55045,-0.21665 1.10154,-0.39407 1.6164,-0.49718z" fill="#dd95e8" stroke="#000000" stroke-width="0" stroke-linecap="round"/><path d="M245.93131,209.82921c0,0 3.18295,-0.99515 6.53549,-1.65399c2.90506,-0.5709 7.57412,-0.70476 7.57412,-0.70476" fill="none" stroke="#000000" stroke-width="1" stroke-linecap="round"/><path d="M245.15935,208.02798c0,0 2.227,-1.48295 5.68833,-2.32773c2.06082,-0.50296 6.70582,-0.67431 6.70582,-0.67431" fill="none" stroke="#000000" stroke-width="1" stroke-linecap="round"/><path d="M245.20225,208.11375c0,0 -1.46726,-0.21889 -1.62111,-0.58326c-0.46565,-1.10286 0.59183,-1.47529 0.59183,-1.47529c0,0 3.3467,-2.24519 5.84223,-2.74497c4.07916,-0.81696 6.42326,-0.04264 6.42326,-0.04264c0,0 1.21563,0.0579 1.55332,0.68722c0.31306,0.58342 -0.18096,1.02823 -0.18096,1.02823c0,0 1.6958,0.03505 2.41724,0.88295c0.94578,1.11157 0.15594,1.39003 0.15594,1.39003c0,0 1.26494,-0.00347 1.66996,0.92131c0.31713,0.72408 -0.51203,1.18013 -0.51203,1.18013c0,0 -5.20712,0.3391 -7.70654,0.76286c-2.47516,0.41965 -7.2179,1.76743 -7.2179,1.76743c0,0 -0.99125,0.44662 -1.27567,-0.67379c-0.23639,-0.93121 0.46081,-1.42764 0.46081,-1.42764c0,0 -1.03151,0.46549 -1.3061,-0.43725c-0.18736,-0.61595 0.70569,-1.23531 0.70569,-1.23531z" fill="none" stroke="#000000" stroke-width="1" stroke-linecap="round"/><path d="M262.44968,198.78601c1.15018,0.38339 0.40356,1.84688 -0.40023,2.63312c-0.13,0.2931 -0.42355,0.49754 -0.76483,0.49754c-0.46186,0 -0.83628,-0.37442 -0.83628,-0.83628c0,-0.18665 0.06115,-0.35902 0.16451,-0.49817c0.39289,-0.79476 1.38393,-1.94719 1.83685,-1.79621z" fill="#000000" stroke="none" stroke-width="0.5" stroke-linecap="butt"/><path d="M244.55778,199.14542c1.31642,-1.17593 6.83383,-2.37225 9.54146,-1.8472c1.63401,0.31686 1.35284,1.93808 1.35284,1.93808c0,0 6.50518,-3.29028 7.2311,-2.78214c0.28324,0.19828 1.53295,2.07667 0.92706,3.17351c-0.89762,1.62499 -3.86953,2.61068 -3.86953,2.61068c0,0 3.2768,1.04143 5.38321,3.06446c3.27168,3.14221 4.20444,8.1679 -10.60834,11.59558c-1.79091,0.41442 -10.06451,0.93634 -13.55884,-2.11337c-2.85954,-2.49569 -1.20105,-8.64402 -1.20105,-8.64402l-4.26626,-0.16396c0,0 -0.79623,-1.11685 0.75362,-4.16423c0.36247,-0.7127 6.85777,0.254 6.85777,0.254c0,0 0.52293,-2.08703 1.45696,-2.92138z" fill="none" stroke="#000000" stroke-width="1" stroke-linecap="round"/></g><g><path d="M236.51091,180.97036c0,0 -1.0256,-4.0956 1.03203,-5.33746c5.68956,-3.43387 12.3485,-2.32847 12.3485,-2.32847c0,0 4.35038,-2.34374 6.74085,-1.58789c2.15327,0.68085 -0.5948,4.24215 -0.56921,7.29582c0.01305,1.55583 1.50782,3.2307 2.03827,4.70018c0.51068,1.41471 0.08678,2.64924 -1.34434,2.88658c-3.02232,0.50121 -7.14433,-3.2593 -7.14433,-3.2593l2.23009,9.19911c0,0 -6.68449,3.43094 -17.20515,2.16149c-7.48165,-0.90275 -8.99837,-6.76105 -8.99837,-6.76105c0,0 2.67148,-2.61667 4.48804,-3.78114c1.80727,-1.15851 6.38364,-3.18789 6.38364,-3.18789z" fill="#feecf7" stroke="#000000" stroke-width="0" stroke-linecap="round"/><path d="M236.51091,180.97036c0,0 -1.0256,-4.0956 1.03203,-5.33746c5.68956,-3.43387 12.3485,-2.32847 12.3485,-2.32847c0,0 4.35038,-2.34374 6.74085,-1.58789c1.68439,0.5326 0.3696,2.82775 -0.27061,5.26374c-0.70722,0.11136 -9.11847,2.47833 -9.11847,2.47833l2.36947,3.88121l2.23009,9.19911c0,0 -0.97231,0.49906 -2.75892,1.04608c-0.18269,-0.61384 -2.54552,-14.15458 -2.54552,-14.15458c0,0 -13.8315,3.3255 -13.60022,3.21161c1.78302,-0.87801 3.5728,-1.67169 3.5728,-1.67169z" fill="#dc94e7" stroke="#000000" stroke-width="0" stroke-linecap="butt"/><path d="M249.89145,173.30443c0,0 4.35038,-2.34374 6.74085,-1.58789c2.15327,0.68085 -0.5948,4.24215 -0.56921,7.29582c0.01305,1.55583 1.50782,3.2307 2.03827,4.70018c0.51068,1.41471 0.08678,2.64924 -1.34434,2.88658c-3.02232,0.50121 -7.14433,-3.2593 -7.14433,-3.2593l2.23009,9.19911c0,0 -6.68449,3.43094 -17.20515,2.16149c-7.48165,-0.90275 -8.99837,-6.76105 -8.99837,-6.76105c0,0 2.67148,-2.61667 4.48804,-3.78114c1.80727,-1.15851 6.38364,-3.18789 6.38364,-3.18789c0,0 -1.02561,-4.0956 1.03202,-5.33746c2.05763,-1.24186 12.34849,-2.32845 12.34849,-2.32845z" fill="none" stroke="#000000" stroke-width="1" stroke-linecap="round"/><g fill="none" stroke="#ff0000" stroke-width="1"><path d="M240.99671,189.17228c-2.61753,1.57784 -5.39303,1.83454 -6.86544,0.66896c-1.51155,-1.19657 -0.03158,-4.01856 2.5728,-5.75385c1.96727,-1.31078 4.59452,-2.07518 6.95426,-0.63327c1.65703,1.01252 0.05816,4.0787 -2.66162,5.71816z" stroke-linecap="butt"/><path d="M237.1825,183.92588l1.62968,5.66099" stroke-linecap="round"/></g><path d="M249.29788,173.87938c-0.15822,0.2769 -0.33031,0.54033 -0.51511,0.79043c-1.85699,2.5132 -4.99844,3.67936 -8.27648,3.61643c-1.07897,-0.02071 -3.58375,-0.18549 -3.34389,-1.83804c0.44548,-3.06916 11.25241,-4.11418 11.71015,-3.31314z" fill="#f89688" stroke="#000000" stroke-width="1" stroke-linecap="butt"/></g><g stroke="#000000" stroke-linecap="round"><path d="M249.74819,183.92588c0,0 1.77797,1.25752 2.70122,1.82735c1.91797,1.18373 3.73173,0.96026 3.73173,0.96026c0,0 -0.06714,1.51828 0.5155,3.17082c0.49653,1.40832 1.62163,2.66857 1.54419,3.2999c-0.16328,1.33106 -2.47589,2.06611 -4.53298,2.16198c-3.40422,0.15866 -4.60295,-1.12759 -4.60295,-1.12759c0,0 -0.12303,-3.93402 -0.0028,-5.75262c0.10692,-1.6172 0.6461,-4.54009 0.6461,-4.54009z" fill="#fddfbd" stroke-width="0"/><path d="M249.74819,183.92588c0,0 1.77797,1.25752 2.70122,1.82735c1.91797,1.18373 3.73173,0.96026 3.73173,0.96026c0,0 -0.04382,0.99079 0.24648,2.24277c-0.82894,-0.25009 -1.37266,0.05301 -3.1407,-0.41531c-2.50102,-0.66247 -3.47666,-2.02588 -3.91129,-2.37123c0.1784,-1.1913 0.37255,-2.24383 0.37255,-2.24383z" fill="#fa9789" stroke-width="0"/><path d="M252.4494,185.75322c1.91797,1.18373 3.73173,0.96026 3.73173,0.96026c0,0 -0.06714,1.51828 0.5155,3.17082c0.49653,1.40832 1.62163,2.66857 1.54419,3.2999c-0.16328,1.33106 -2.47589,2.06611 -4.53298,2.16198c-3.40422,0.15866 -4.60295,-1.12759 -4.60295,-1.12759c0,0 -0.12303,-3.93402 -0.0028,-5.75262c0.10692,-1.6172 0.6461,-4.54009 0.6461,-4.54009c0,0 1.77796,1.25752 2.70121,1.82735z" fill="none" stroke-width="1"/></g><g><path d="M247.68964,193.87551l3.4738,-2.61607l4.54595,2.70184l2.40164,-1.37236l2.61606,3.774c0,0 -5.35589,8.2865 -7.4958,8.63451c-1.97887,0.32182 -4.89836,-6.61886 -4.89836,-6.61886z" fill="#0066cd" stroke="#000000" stroke-width="0" stroke-linecap="round"/><path d="M253.65747,201.33418c1.97357,-1.65742 2.70693,-4.89361 5.38818,-5.8804c0.3998,-0.14713 1.26327,-0.17111 1.42679,0.36231c0.30378,0.99095 -5.77846,9.20631 -7.37912,9.14551c-1.39841,-0.05311 -3.39606,-3.06459 -4.21988,-5.17789c-0.48603,-1.24678 -0.20003,-2.06909 -0.12194,-2.08861c0.13625,-0.09627 1.56123,0.64404 1.64258,1.02069c1.36218,0.92807 3.09633,2.75869 3.2634,2.61838z" fill="#061484" stroke="none" stroke-width="0.5" stroke-linecap="butt"/><path d="M247.68964,193.87549l3.4738,-2.61607l4.54595,2.70184l2.40164,-1.37236l2.61606,3.774c0,0 -5.35589,8.28651 -7.4958,8.63451c-1.97886,0.32182 -4.89836,-6.61886 -4.89836,-6.61886" fill="none" stroke="#000000" stroke-width="1" stroke-linecap="round"/></g></g><g stroke="#000000"><g stroke-linecap="butt"><path d="M263.29622,169.83912l0.71682,-2.23009c0,0 9.11466,-0.32626 11.08787,0.82771c1.38522,0.8101 1.12502,5.06475 -1.51556,5.43741c-3.51649,0.49627 -10.28912,-4.03503 -10.28912,-4.03503z" fill="#0066cd" stroke-width="0"/><path d="M263.29623,169.83912l0.25441,-0.79149c0,0 2.03711,0.3136 4.04182,0.81029c1.54944,0.3839 2.88714,0.90925 4.4546,1.28297c1.86424,0.44448 3.66871,0.72889 3.64078,0.80966c-0.3314,0.95841 -1.01511,1.77014 -2.10248,1.92361c-3.51649,0.49628 -10.28913,-4.03504 -10.28913,-4.03504z" fill="#061483" stroke-width="0"/><path d="M263.29623,169.83912l0.71682,-2.23009c0,0 9.11466,-0.32625 11.08787,0.82772c1.38523,0.8101 1.12502,5.06475 -1.51556,5.43741c-3.51649,0.49628 -10.28913,-4.03504 -10.28913,-4.03504z" fill="none" stroke-width="1"/></g><g stroke-linecap="round"><path d="M223.67798,171.97679c0,0 -7.90615,-24.89839 14.88495,-24.20577c23.36864,0.71017 18.93806,21.23233 18.93806,21.23233c0,0 6.18614,-4.86555 7.08845,-4.30376c0.76161,0.47419 -0.5745,5.43118 -1.40987,7.32294c-0.61728,1.39788 -1.48476,4.42484 -2.86716,4.5892c-0.87011,0.10344 -4.42204,-2.77654 -4.42204,-2.77654c0,0 -7.50702,4.08666 -14.34419,5.35852c-6.7516,1.25594 -16.38147,0.09279 -16.38147,0.09279c0,0 -7.15631,-0.90435 -7.30256,-3.37178c-0.12462,-2.10245 5.81583,-3.93795 5.81583,-3.93795z" fill="#fde0be" stroke-width="0"/><path d="M251.74124,175.83711c-0.03425,0.0151 -1.25676,-2.11527 -1.25676,-2.11527l-3.23918,2.51424l-4.74537,-7.3187l-6.92217,4.20582l-0.85552,-6.54195c0,0 -11.58038,3.3031 -11.58702,3.27263c-1.30828,-6.00626 -3.26387,-22.65091 15.4277,-22.08287c23.36864,0.71017 18.93806,21.23233 18.93806,21.23233c0,0 5.16315,4.30737 5.09935,4.468c-0.56079,1.41218 -1.29027,3.02178 -2.28794,3.14039c-0.87011,0.10344 -4.42204,-2.77654 -4.42204,-2.77654c0,0 -1.66869,0.90839 -4.14912,2.00192z" fill="#fc988a" stroke-width="0"/><path d="M257.87266,170.49005l3.09735,-1.36283l-1.23894,4.95575z" fill="#f79587" stroke-width="0.5"/><path d="M238.5629,147.77102c23.36864,0.71017 18.93806,21.23233 18.93806,21.23233c0,0 6.18614,-4.86555 7.08845,-4.30376c0.76161,0.47419 -0.5745,5.43118 -1.40987,7.32294c-0.61728,1.39788 -1.48476,4.42484 -2.86716,4.5892c-0.87011,0.10344 -4.42204,-2.77654 -4.42204,-2.77654c0,0 -7.50702,4.08666 -14.34419,5.35852c-6.7516,1.25594 -16.38147,0.09279 -16.38147,0.09279c0,0 -7.15631,-0.90435 -7.30256,-3.37178c-0.12462,-2.10245 5.81583,-3.93795 5.81583,-3.93795c0,0 -7.90614,-24.89838 14.88496,-24.20576z" fill="none" stroke-width="1"/></g><g stroke-linecap="round"><path d="M263.76325,161.8738c0,0 -1.91994,3.39406 -3.05006,4.77532c-0.97589,1.19275 -3.3361,3.02999 -3.3361,3.02999c0,0 -10.7322,-5.21297 -18.19103,-6.18262c-7.61868,-0.99044 -17.49038,-0.30491 -17.49038,-0.30491c0,0 -3.40308,-17.91525 0.23844,-20.54599c2.65158,-1.91558 10.23966,-3.66653 17.59473,-2.99068c3.35224,0.30803 12.93229,1.28989 16.00584,4.39782c4.11937,4.16546 8.22857,17.82107 8.22857,17.82107z" fill="#ff292e" stroke-width="0"/><path d="M263.76325,161.8738c0,0 -1.91994,3.39407 -3.05006,4.77532c-0.97589,1.19275 -3.33609,3.02999 -3.33609,3.02999c0,0 -5.19732,-2.5245 -10.87203,-4.3867c-0.14854,-0.04874 2.57787,-14.06906 5.59963,-19.57261c1.00063,-1.82245 2.6654,-2.44024 3.42999,-1.66709c4.11937,4.16547 8.22857,17.82108 8.22857,17.82108z" fill="#ac0e49" stroke-width="0.5"/><path d="M260.71319,166.64913c-0.97589,1.19275 -3.33609,3.02999 -3.33609,3.02999c0,0 -10.7322,-5.21297 -18.19104,-6.18261c-7.61868,-0.99044 -17.49037,-0.30491 -17.49037,-0.30491c0,0 -3.40308,-17.91526 0.23844,-20.54599c2.65159,-1.91558 10.23966,-3.66653 17.59473,-2.99068c3.35224,0.30803 12.93229,1.28988 16.00582,4.39781c4.11937,4.16547 8.22857,17.82108 8.22857,17.82108c0,0 -1.91994,3.39406 -3.05006,4.77531z" fill="none" stroke-width="1"/></g><g stroke-linecap="round"><path d="M222.43903,168.87943c0,0 -3.85602,0.92482 -5.61813,1.58049c-1.7891,0.66571 -5.03674,2.38412 -5.03674,2.38412c0,0 1.62395,-3.85485 2.70279,-5.58945c1.02456,-1.64732 3.6158,-4.56984 3.6158,-4.56984l-9.53983,0.61947c0,0 8.85959,-12.65645 12.45666,-14.18992c2.14533,-0.91457 10.09201,4.15452 10.09201,4.15452c0,0 1.27513,-2.68016 2.15748,-3.92836c0.80348,-1.13663 2.92217,-3.25749 2.92217,-3.25749c0,0 1.50384,6.13468 2.53453,9.10551c1.07374,3.09489 3.78406,9.10689 3.78406,9.10689l14.61947,4.95575l-1.36283,6.69027l-5.69911,-6.19469l-2.60177,3.46903l-4.95575,-8.92035l-4.95575,4.0885l-1.11504,-5.07965c0,0 -11.01133,2.57707 -13.47804,3.78306c-0.67241,0.32874 -0.52195,1.79217 -0.52195,1.79217z" fill="#4fa6ec" stroke-width="0"/><path d="M225.58142,159.65498l-13.79726,13.18906c0,0 1.62395,-3.85485 2.70278,-5.58945c1.02455,-1.64732 3.6158,-4.56984 3.6158,-4.56984l-9.53982,0.61946c0,0 8.85958,-12.65645 12.45666,-14.18992c2.14532,-0.91458 10.09202,4.15452 10.09202,4.15452c0,0 1.27512,-2.68016 2.15747,-3.92836c0.80348,-1.13663 2.92217,-3.25748 2.92217,-3.25748l-2.53386,11.84243c0,0 -9.00989,-4.43466 -11.21034,-4.12033c-3.45351,0.49332 -8.3089,7.4718 -8.3089,7.4718z" fill="#66ffff" stroke-width="0"/><path d="M247.49937,167.62923l-0.7372,4.32035l-3.00278,-5.405z" fill="#66ffff" stroke-width="0"/><path d="M211.78417,172.84404c0,0 1.62395,-3.85485 2.70278,-5.58945c1.02455,-1.64732 3.6158,-4.56984 3.6158,-4.56984l-9.53982,0.61946c0,0 8.85958,-12.65645 12.45666,-14.18992c2.14532,-0.91458 10.09202,4.15452 10.09202,4.15452c0,0 1.27512,-2.68016 2.15747,-3.92836c0.80348,-1.13663 2.92217,-3.25748 2.92217,-3.25748c0,0 1.50383,6.13467 2.53452,9.1055c1.07373,3.09489 3.78406,9.10689 3.78406,9.10689l14.61947,4.95575l-1.36283,6.69027l-5.69911,-6.19468l-2.60178,3.46903l-4.95576,-8.92035l-4.95576,4.0885l-1.11504,-5.07965c0,0 -11.01133,2.57707 -13.47804,3.78306c-0.67241,0.32874 -0.52195,1.79217 -0.52195,1.79217c0,0 -3.856,0.92482 -5.61812,1.58049c-1.76212,0.65567 -5.03674,2.38409 -5.03674,2.38409z" fill="none" stroke-width="1"/></g></g><path d="M176.16667,243.83333v-127.66667h127.66667v127.66667z" fill="none" stroke="none" stroke-width="NaN" stroke-linecap="butt"/><g stroke="none" stroke-width="0.5" stroke-linecap="butt"><path d="M222.07583,161.07694c0.15559,-6.14607 7.512,-0.98873 9.61178,0.76108c0.63002,0.52501 1.30406,0.96504 1.93275,1.48672l0.40432,0.56506c0,0 0.09721,0.14583 0.10087,0.32847c0.28745,0.21656 0.57831,0.431 0.87434,0.64217l0.25096,0.14903c0.14917,0.04871 0.23551,0.14997 0.28548,0.2509c0.06032,0.09399 0.10253,0.21883 0.06911,0.37008c0.02255,2.57446 0.95955,6.04779 0.35988,8.49312c-0.38702,1.57821 -1.81602,1.43444 -2.83182,0.61772c-1.68721,-2.88395 -0.71246,-5.97799 -0.52956,-9.02491c-0.07309,-0.46018 -0.13539,-0.92484 -0.16892,-1.39575c-1.00469,-0.78596 -1.99503,-1.58165 -3.04966,-2.33421c-4.17122,-2.60702 -5.36856,-2.35056 -7.35463,2.2836c0,0 -0.21962,0.51245 -0.73206,0.29283c-0.51244,-0.21962 -0.29282,-0.73206 -0.29282,-0.73206c0.40311,-0.94058 0.80099,-1.7274 1.20995,-2.36813c-0.13998,-0.16382 -0.13998,-0.3857 -0.13998,-0.3857z" fill="#000000"/><path d="M246.97935,160.08984l-0.32346,0.56173c-0.33663,0.40115 -1.01293,0.78301 -1.51824,1.21892c-0.11575,0.29197 -0.20992,0.62655 -0.37338,1.01604l-0.27878,0.48949c-0.03956,0.11079 -0.1184,0.22696 -0.27346,0.29135c-0.06754,0.0371 -0.1486,0.06279 -0.24227,0.06025c1.03259,2.94908 2.76626,9.31684 -0.89394,10.39533c-2.00729,-0.56422 -1.69125,-2.50709 -1.89224,-4.2135c-0.43371,-3.68219 0.03663,-5.78008 2.52389,-8.69098c1.76248,-1.76305 5.03384,-6.76659 8.06118,-5.48633c0.8988,0.38011 2.19019,2.32656 2.78321,3.11892c0.19684,0.39099 0.38593,0.78625 0.55854,1.18854l0.15388,0.38424c0,0 0.0021,0.00526 0.00535,0.01494c0.04332,0.10633 0.0718,0.25257 0.005,0.40355c-0.03547,0.09867 -0.10713,0.19623 -0.24149,0.26914c-0.12803,0.08353 -0.24793,0.10019 -0.3516,0.08446c-0.16458,-0.01302 -0.27969,-0.10761 -0.35262,-0.19628c-0.00696,-0.00746 -0.01059,-0.01182 -0.01059,-0.01182c-0.75652,-0.90974 -1.84287,-3.07952 -3.04492,-3.38244c-1.20718,-0.30422 -3.07722,1.28432 -4.25946,2.40737c-0.01796,0.04799 -0.03458,0.07707 -0.03458,0.07707z" fill="#000000"/><path d="M242.89606,181.77247c0.95482,1.21349 1.94729,-0.2613 2.36432,-1.03648c0.74005,-1.37562 0.98941,-4.17058 0.5672,-5.88758c-0.83736,0.42158 -1.42506,1.08747 -2.27942,1.52011c-1.06375,0.53141 -2.10174,0.96716 -3.13723,1.30806c1.22716,1.07201 2.03709,2.52188 2.48512,4.09588zM246.24349,181.26214c-0.94285,1.7822 -2.69155,2.88774 -4.32595,1.04494c-0.50149,-1.60224 -1.25301,-3.13738 -2.65957,-4.12514l-0.15696,0.01868c0,0 -0.10529,-0.02106 -0.21422,-0.0909c-2.18255,0.52131 -4.40452,0.6256 -6.88189,0.32043c0,0 -0.55321,-0.06916 -0.48406,-0.62236c0.06914,-0.55322 0.62236,-0.48406 0.62236,-0.48406c4.0107,0.50787 7.2885,-0.14195 10.9063,-1.95252c0.94273,-0.46409 1.56906,-1.22394 2.55715,-1.64918l0.44011,-0.09916c0.18273,-0.05635 0.32294,-0.0228 0.42687,0.04129c0.10793,0.05375 0.20923,0.15324 0.25856,0.33374c0.69662,1.9366 0.46703,5.45767 -0.4887,7.26423z" fill="#000000"/><path d="M240.35764,177.66019c1.0355,-0.3409 2.13504,-0.81539 3.19881,-1.34679c0.85436,-0.43264 1.4659,-1.08895 2.30328,-1.51053c0.42221,1.717 0.17866,4.59836 -0.5614,5.97398c-0.41704,0.77518 -1.45303,2.26459 -2.40786,1.0511c-0.44804,-1.57401 -1.30566,-3.09573 -2.53282,-4.16775z" data-paper-data="{&quot;noHover&quot;:false,&quot;origItem&quot;:[&quot;Path&quot;,{&quot;applyMatrix&quot;:true,&quot;segments&quot;:[[[595.99877,382.74842],[-0.80363,-2.82321],[1.71263,2.17659]],[[600.23954,380.88935],[-0.74801,1.3904],[1.32741,-2.46738]],[[601.2569,370.32909],[0.75731,3.0797],[-1.50195,0.75616]],[[597.16843,373.05564],[1.53242,-0.776],[-1.90801,0.95316]],[[591.54132,375.40183],[1.85732,-0.61146],[2.20111,1.92282]]],&quot;closed&quot;:true}]}" fill="#ff6666"/></g><g stroke="#000000"><path d="M246.79586,188.1499c0,0 -2.26315,-11.0569 -1.51402,-11.56255c0.32979,-0.22261 4.78784,-3.71185 5.89651,-2.25446c1.85387,2.43701 0.82105,10.59577 0.82105,10.59577c0,0 3.43182,-11.72928 4.21689,-11.54086c0.4161,0.09986 4.5993,0.72347 4.8666,2.89397c0.46665,3.78923 -3.13657,10.00972 -3.13657,10.00972c0,0 5.85234,1.42024 5.66469,2.321c-0.21195,1.01736 -0.38963,7.62338 -2.37251,9.76246c-1.98243,2.13859 -5.77005,-0.18966 -5.77005,-0.18966c0,0 -1.98189,1.5347 -3.2175,1.49484c-1.31936,-0.04256 -4.46391,-1.74262 -4.46391,-1.74262c0,0 -4.04845,1.91317 -4.0559,-2.23339c-0.00193,-1.07196 1.36136,-3.52433 2.27283,-5.34848c0.62566,-1.25216 0.79193,-2.20575 0.79193,-2.20575z" fill="#fde0be" stroke-width="0" stroke-linecap="round"/><path d="M254.09346,189.66982c1.28705,1.343 3.2789,-0.80211 4.54465,-2.8505c-0.21899,0.89989 -0.4109,1.82592 -0.54363,2.51186c-0.09572,0.24861 -0.14818,0.51869 -0.14818,0.80103c0,0.12773 0.01074,0.25295 0.03137,0.37481c-0.10132,1.31721 0.90924,1.82441 1.93598,1.83996c0.08617,0.01011 0.17385,0.01531 0.26275,0.01531c0.42359,0 0.8196,-0.11809 1.15689,-0.32316c0.1314,-0.06814 0.24713,-0.14602 0.34169,-0.23203c0.69161,-0.62911 1.33901,-2.06042 1.78105,-3.52125c0.11884,0.11375 0.17643,0.2236 0.15497,0.32666c-0.21195,1.01736 -0.38963,7.62338 -2.37251,9.76246c-1.98243,2.13859 -5.77005,-0.18966 -5.77005,-0.18966c0,0 -1.98189,1.5347 -3.2175,1.49484c-1.31936,-0.04256 -4.46391,-1.74262 -4.46391,-1.74262c0,0 -4.04845,1.91317 -4.0559,-2.23339c-0.00003,-0.01813 0.00032,-0.03665 0.00107,-0.05556c0.32237,0.30607 0.72868,0.4926 1.23341,0.4926c0.97172,0 1.58171,-0.14656 1.95036,-0.38649c0.04101,0.00961 0.08376,0.0147 0.12771,0.0147h0.74337v-0.28269c0.3506,-0.04749 0.62331,-0.16694 0.91254,-0.30777c0.43539,-0.06933 0.85233,-0.09946 1.23295,0.00464c0.33149,0.81587 1.13202,1.39113 2.0669,1.39113c1.23164,0 2.23009,-0.99844 2.23009,-2.23009c0,-1.23164 -0.99844,-2.23009 -2.23009,-2.23009c-0.9168,0 -1.70439,0.55323 -2.04714,1.34406l-0.16272,0.12927c-0.42029,0.08406 -1.08778,0.25869 -1.58064,0.55874c-0.2731,0.04926 -0.55258,0.10924 -0.83818,0.17169c-0.17114,-0.91664 -0.71509,-1.92758 -0.16029,-2.38255c1.05866,-0.86816 2.27191,-0.93026 3.45444,-1.08643c0.11193,0.01729 0.22661,0.02627 0.34339,0.02627c0.47173,0 0.90926,-0.14647 1.26958,-0.39641c0.36497,-0.14382 0.71737,-0.34274 1.0507,-0.62845c0.13485,-0.1156 0.24997,-0.23323 0.34686,-0.35218c0.132,0.07055 0.27191,0.12821 0.41809,0.17129z" fill="#f79587" stroke-width="0" stroke-linecap="butt"/><path d="M246.79585,188.1499c0,0 -2.26314,-11.05689 -1.51402,-11.56255c0.32979,-0.22261 4.78783,-3.71185 5.8965,-2.25445c1.85387,2.43701 0.82105,10.59576 0.82105,10.59576c0,0 3.43182,-11.72928 4.21689,-11.54086c0.4161,0.09986 4.5993,0.72347 4.86659,2.89399c0.46665,3.78923 -3.13657,10.00972 -3.13657,10.00972c0,0 5.85234,1.42025 5.66469,2.321c-0.21195,1.01736 -0.38963,7.62338 -2.3725,9.76246c-1.98241,2.13859 -5.77005,-0.18966 -5.77005,-0.18966c0,0 -1.98189,1.5347 -3.2175,1.49484c-1.31936,-0.04256 -4.46391,-1.74262 -4.46391,-1.74262c0,0 -4.04845,1.91317 -4.0559,-2.23339c-0.00193,-1.07196 1.36135,-3.52433 2.27282,-5.34848c0.62567,-1.25216 0.79193,-2.20575 0.79193,-2.20575z" fill="none" stroke-width="1" stroke-linecap="round"/><path d="M249.64541,192.98176c0,0 3.66033,-1.50082 5.51268,0.42502c1.65232,1.71788 0.18644,4.53073 0.18644,4.53073" fill="none" stroke-width="1" stroke-linecap="round"/><path d="M262.77814,191.49503c0,0 -0.68458,5.19723 -5.82544,3.22667c-0.77997,-0.29898 1.11748,-5.33287 1.11748,-5.33287" fill="none" stroke-width="1" stroke-linecap="round"/><path d="M258.07018,186.1676l-0.99115,1.85841" fill="none" stroke-width="1" stroke-linecap="round"/></g></g></g></svg>