<svg version="1.1" xmlns="http://www.w3.org/2000/svg" xmlns:xlink="http://www.w3.org/1999/xlink" width="730.56504" height="654.53274" viewBox="0,0,730.56504,654.53274"><defs><linearGradient x1="234.85201" y1="380.5" x2="234.85201" y2="109.5" gradientUnits="userSpaceOnUse" id="color-1"><stop offset="0" stop-color="#000000" stop-opacity="0"/><stop offset="1" stop-color="#000000"/></linearGradient></defs><g transform="translate(127.06504,274.03274)"><g data-paper-data="{&quot;isPaintingLayer&quot;:true}" fill-rule="nonzero" stroke="none" stroke-linecap="butt" stroke-linejoin="miter" stroke-miterlimit="10" stroke-dasharray="" stroke-dashoffset="0" style="mix-blend-mode: normal"><path d="M596.76906,109.5v271h-723.83409v-271z" data-paper-data="{&quot;index&quot;:null}" fill="url(#color-1)" stroke-width="0"/><path d="M603.50001,-274.03274v390.90447h-721.88453v-390.90447z" data-paper-data="{&quot;index&quot;:null}" fill="#000000" stroke-width="0"/><g fill="#ffffff" stroke-width="0.5"><path d="M225.70412,-181.57463c0,-1.40921 1.4506,-2.5516 3.24,-2.5516c1.7894,0 3.24,1.14239 3.24,2.5516c0,1.40921 -1.4506,2.5516 -3.24,2.5516c-1.7894,0 -3.24,-1.14239 -3.24,-2.5516z"/><path d="M245.55402,-182.31993c0,-1.40921 1.4506,-2.5516 3.24,-2.5516c1.7894,0 3.24,1.14239 3.24,2.5516c0,1.40921 -1.4506,2.5516 -3.24,2.5516c-1.7894,0 -3.24,-1.14239 -3.24,-2.5516z"/><g><path d="M151.74933,-174.00844c0.65289,-0.09809 2.46074,-0.38347 1.84893,-0.58802c-3.09048,-1.03323 -7.27914,2.83814 -4.27842,4.76598c0.20665,0.13276 0.45832,0.24578 0.74827,0.34214c-0.05127,-0.09908 -0.09213,-0.20651 -0.12163,-0.32266c-0.49625,-0.44831 -0.79679,-1.03447 -0.79679,-1.67591c0,-1.12607 0.92625,-2.08178 2.21148,-2.42035c0.12019,-0.04585 0.24905,-0.08026 0.38815,-0.10117zM165.67329,-164.6691c-0.85247,1.34269 -7.14862,1.38001 -7.58208,1.39345c-4.68237,0.14518 -10.71048,-1.36997 -14.17053,-3.94111c-0.37789,2.37962 -1.47132,4.32458 -3.58681,4.45274c-5.17726,0.31363 -2.75571,-8.29397 -3.27656,-8.31731c-6.06111,-0.27161 -2.9224,11.83818 -10.83102,10.18415c-4.01397,-0.8395 -2.06282,-8.63598 -2.09784,-9.83872c-0.09863,-3.38692 -0.33196,-6.77075 -0.44475,-10.15739c-0.02197,-0.65938 0.42465,-2.64881 1.23038,-2.82728l2.30908,-0.76168c1.88537,1.10939 2.80575,1.94424 3.2205,2.8332c0.78421,1.68088 -0.23945,3.55519 0.03428,7.84457c0.03381,0.5298 0.86228,-0.86697 1.47449,-1.08821c2.0693,-0.74783 8.55532,-3.57226 10.65745,-0.54652c0.03289,0.04734 0.06534,0.09629 0.09737,0.14679c0.43395,-0.50608 0.96533,-1.02168 1.60272,-1.54547c7.01648,-5.76593 19.89041,-3.61309 14.38115,5.86642c-0.436,0.7502 -1.93756,1.562 -3.57993,2.04377c5.94042,0.14691 13.43865,-0.27215 10.56209,4.25861z"/><path d="M169.11714,-185.66905c1.88239,0.84711 2.77312,1.79227 3.2135,2.87952c0.70182,1.73276 0.25976,3.82637 0.86489,6.45899c0.41968,1.82583 0.973,4.16633 1.38441,6.11713c0.3158,1.49738 1.22315,3.80227 0.75298,5.28341c-0.81495,2.5672 -4.96857,2.35566 -6.27554,0.30258c-1.88068,-2.95429 -2.09892,-9.6772 -2.65716,-12.66339c-0.16882,-0.90304 -1.58654,-6.44162 -0.07534,-7.12168z"/><path d="M183.55006,-181.52001c1.2428,3.4796 2.75973,6.9062 4.04772,10.38408c0.26839,0.7247 1.46298,3.64369 0.3283,4.36649c-6.57541,4.18866 -7.6732,-6.20307 -8.7763,-8.90172c-0.95471,-2.33565 -2.15561,-4.63018 -2.91085,-7.00928c-0.07456,-0.21481 -0.11436,-0.44093 -0.11436,-0.67437c0,-0.29247 0.06248,-0.57346 0.17751,-0.83512c0.54109,-1.93008 1.70948,-2.20905 2.95847,-1.71518c0.03454,-0.00086 0.06921,-0.00129 0.10402,-0.00129c1.7894,0 3.24,1.14239 3.24,2.5516c0,0.076 -0.00422,0.15122 -0.01248,0.22552c0.45685,0.59217 0.79989,1.16669 0.95796,1.60928z"/><path d="M200.23487,-179.79086l-0.03643,0.02567l-0.09581,-0.00581c-0.17705,0.0236 -0.35898,0.03589 -0.54455,0.03589c-0.02615,0 -0.05223,-0.00024 -0.07824,-0.00072l-0.23397,0.20473l-1.28908,2.03038l-0.19909,0.67943l0.66857,2.3317l2.22361,1.60523l1.67798,0.28727l0.11629,-0.03434l1.11925,-2.44091l-0.92045,-2.98006l-2.16576,-1.78682c-0.07954,0.01849 -0.16035,0.03465 -0.24231,0.04837zM207.95775,-181.08707l0.38651,0.57958l0.41099,0.56903l-0.01427,0.03772l1.34946,4.36906l-0.00079,0.09732l0.06928,0.06411l-0.07446,0.57532l-0.00468,0.57829l-0.07764,0.05786l-0.01253,0.09682l-1.95907,4.27244l-0.49492,0.5802l-0.0402,0.19569l-0.23611,0.12823l-0.15994,0.1875l-0.24798,0.03405l-0.73063,0.39682l-2.41117,0.71207l-0.0938,0.00844l-0.06305,0.05513l-0.75336,0.01835l-0.74884,0.0674l-0.07249,-0.0474l-0.09436,0.0023l-3.45148,-0.5909l-0.04778,0.01204l-0.7247,-0.30954l-0.73908,-0.28768l-0.01507,-0.03768l-3.60576,-2.60301l-0.09659,-0.11513l-0.12261,-0.02956l-0.3153,-0.49241l-0.38601,-0.46011l0.02833,-0.09849l-0.0789,-0.12321l-0.9989,-3.4838l-0.02223,-0.01618l-0.00154,-0.06672l-0.03222,-0.11236l0.01651,-0.56785l-0.01312,-0.56791l0.03289,-0.11224l0.00194,-0.06671l0.02232,-0.0161l0.39494,-1.34778l0.17537,-0.27069l0.08371,-0.29666l1.65767,-2.61094l0.28465,-0.26154l0.20501,-0.30428l1.35628,-1.18679l0.11797,-0.06262l0.03108,-0.08702l0.63701,-0.26756l0.53249,-0.2826l0.00801,-0.1426l2.88356,-1.20641l1.58595,0.4116l2.86325,1.42415l0.27589,0.22746l0.33763,0.16807l3.14474,2.59451z"/><path d="M212.44272,-171.60561c0,-1.40921 1.4506,-2.5516 3.24,-2.5516c1.7894,0 3.24,1.14239 3.24,2.5516c0,1.40921 -1.4506,2.5516 -3.24,2.5516c-1.7894,0 -3.24,-1.14239 -3.24,-2.5516z"/><path d="M238.9655,-173.37459c2.63492,-0.78566 6.02275,-7.92786 8.76065,-1.45931c1.01422,2.3962 -6.01142,8.09495 -9.43794,7.55525c-2.62507,-0.41346 -5.94581,-4.06868 -7.08918,-5.86956l-0.3712,-1.18702c0,-0.02712 0.00053,-0.05413 0.00161,-0.08105c0.09567,-4.1212 2.26893,-3.68947 4.34505,-2.31783c0.90086,0.25781 1.6154,0.82138 1.94129,1.5314c1.06705,0.96042 1.84073,1.8308 1.84973,1.82812z"/></g></g></g></g></svg>