<svg version="1.1" xmlns="http://www.w3.org/2000/svg" xmlns:xlink="http://www.w3.org/1999/xlink" width="374.77477" height="288.28829" viewBox="0,0,374.77477,288.28829"><g transform="translate(-52.61261,-35.85585)"><g data-paper-data="{&quot;isPaintingLayer&quot;:true}" fill-rule="nonzero" stroke-linejoin="miter" stroke-miterlimit="10" stroke-dasharray="" stroke-dashoffset="0" style="mix-blend-mode: normal"><path d="M52.61262,324.14414v-288.28829h374.77477v288.28829z" fill="none" stroke="none" stroke-width="none" stroke-linecap="butt"/><g><g><g data-paper-data="{&quot;origRot&quot;:0}" stroke="#000000" stroke-width="3" stroke-linecap="round"><path d="M265.71621,122.2217c2.22893,-1.0171 4.53438,7.44325 4.53438,7.44325c0,0 6.73675,22.21029 9.96393,32.68687c0.69303,4.59935 -34.28467,21.74692 -39.79617,19.93883c-2.45685,-0.80599 -8.55637,-8.68354 -7.91258,-10.59375c1.22537,-3.63592 13.80275,-14.78401 13.80275,-14.78401l1.95703,3.69411l-4.17406,-10.1512c0,0 -5.91359,-11.3887 -7.02385,-16.83044c-0.61576,-3.01803 28.64858,-11.40368 28.64858,-11.40368z" data-paper-data="{&quot;origPos&quot;:null}" fill="#582700"/><path d="M241.31463,142.79914l27.84945,-11.28578" fill="none"/><path d="M270.93409,135.11914l-27.74196,11.55101" data-paper-data="{&quot;origPos&quot;:null}" fill="none"/></g><path d="M269.8084,131.44431l1.0716,2.59742l-28.41427,11.72258l-1.0716,-2.59742z" fill="#ffffff" stroke="none" stroke-width="0" stroke-linecap="butt"/><path d="M280.46887,162.56026l-8.50152,7.13086l-21.74495,10.15968l-8.30307,1.76679l-4.77803,-1.86626l-3.24533,-6.7615l-0.64907,-1.35229l12.40525,-13.44142l1.52351,2.59642l1.80307,-0.86544l-5.05727,-12.26985l27.5959,-12.41336l8.07706,26.07223z" fill="#66c8ff" stroke="#000000" stroke-width="0.5" stroke-linecap="round"/></g><g fill="#fffc96" stroke="#000000" stroke-width="2" stroke-linecap="round"><path d="M244.6677,153.92039c0,0 -4.41317,-2.32651 -2.89931,-5.37333c2.42211,-4.87478 34.34746,14.66438 32.13573,19.87579c-0.90367,2.12925 -4.36509,0.97634 -4.36509,0.97634l0.59417,-2.05358c0,0 -5.08414,-4.96911 -12.41689,-9.69093c-7.23114,-4.6564 -12.84156,-6.38059 -12.84156,-6.38059z"/><path d="M242.93118,163.54538c0,0 -4.35425,1.17728 -4.32937,-1.43403c0.05221,-5.48155 40.74059,-13.50659 39.4606,-8.38296c-0.77519,3.10297 -4.83612,2.88145 -4.83612,2.88145l0.39113,-1.52028c0,0 -6.24953,0.11656 -15.42588,2.08412c-9.17636,1.96754 -15.06945,4.90693 -15.06945,4.90693z" data-paper-data="{&quot;index&quot;:null}"/></g></g><g data-paper-data="{&quot;origRot&quot;:0}" stroke="#000000" stroke-linecap="round"><path d="M238.04394,225.50868c0,0 -1.93165,-4.39494 -0.50089,-4.97334c4.22196,-1.70674 7.6587,-4.92355 12.21124,-5.03355c1.89045,-0.04568 4.16935,3.58742 4.16935,3.58742l16.66805,28.60597c0,0 1.7596,2.93134 2.71124,4.65121c1.01746,1.83883 1.2641,5.13926 -0.63677,6.03551c-6.97935,3.2908 -10.72086,6.62668 -15.59182,7.56536c-1.77457,0.34197 -3.68032,0.58841 -4.98148,-0.6658c-1.69969,-1.63831 -2.78673,-5.9862 -2.78673,-5.9862z" data-paper-data="{&quot;origPos&quot;:null}" fill="#ff0000" stroke-width="3"/><path d="M274.65337,255.41495c0,0 -4.3995,4.77357 -9.06491,6.8014c-3.57946,1.55582 -11.7405,3.98659 -11.7405,3.98659c0,0 -2.28009,-1.85214 -2.99962,-3.28419c-0.758,-1.50858 -0.78644,-4.25082 -0.78644,-4.25082l21.06032,-10.02338z" data-paper-data="{&quot;origPos&quot;:null}" fill="#976e57" stroke-width="2"/><path d="M238.24647,225.77048c0,0 -1.93165,-4.39494 -0.50088,-4.97333c4.22195,-1.70674 7.6587,-4.92355 12.21126,-5.03354c1.89045,-0.04568 4.16934,3.58741 4.16934,3.58741l16.66805,28.60598c0,0 1.75962,2.93133 2.71126,4.6512c1.01746,1.83883 1.26409,5.13926 -0.63677,6.03552c-6.97935,3.2908 -10.72085,6.62669 -15.59181,7.56536c-1.77457,0.34197 -3.68032,0.58838 -4.98148,-0.6658c-1.69969,-1.63831 -2.78674,-5.9862 -2.78674,-5.9862z" data-paper-data="{&quot;origPos&quot;:null}" fill="#4b4b4b" stroke-width="3"/></g><path d="M229.48083,259.70349c0,0 -0.23045,4.4758 -1.58325,6.41045c-1.03563,1.48106 -2.95318,1.60581 -4.76039,1.61157c-4.96055,0.0158 -9.27383,-2.53814 -16.75585,-4.42499c-2.03777,-0.51389 -2.43057,-3.80013 -1.78582,-5.80032c0.60305,-1.87079 1.76595,-5.08584 1.76595,-5.08584l10.85443,-31.27791c0,0 1.53749,-4.0036 3.40143,-4.32239c4.48869,-0.76774 8.48002,1.72793 12.95142,2.59072c1.51529,0.29239 0.46509,4.9768 0.46509,4.9768c0,0 -1.15126,8.93143 -1.88813,14.64802c-1.04,8.06827 -2.66488,20.67393 -2.66488,20.67393z" fill="#4b4b4b" stroke="#000000" stroke-width="3" stroke-linecap="round"/><g stroke="#000000" stroke-linecap="round"><path d="M225.65377,172.95654c0,0 -28.22914,5.91484 -28.27891,-12.06568c-0.01835,-6.62461 16.21325,-5.02736 16.21325,-5.02736z" data-paper-data="{&quot;origPos&quot;:null}" fill="#66c8ff" stroke-width="2"/><path d="M217.60993,161.26791c0,0 -15.91916,-1.89997 -15.71052,-2.51368c0.66156,-1.94585 12.44273,-1.38252 12.44273,-1.38252z" data-paper-data="{&quot;origPos&quot;:null}" fill="#0a0a0a" stroke-width="1"/></g><g><g><path d="M214.78271,178.00554c0,0 0.57204,-14.5283 2.66819,-15.27739c6.28842,-2.24731 21.1072,-2.71787 30.95295,-3.65159c1.52205,-0.14434 4.11411,13.20395 4.11411,13.20395l4.66439,30.32329c0,0 1.6544,14.86818 -0.00599,15.02565c-14.78065,1.40172 -32.02406,3.89343 -38.69151,3.68104c-2.22247,-0.07079 -2.88585,-15.83635 -2.88585,-15.83635z" data-paper-data="{&quot;origPos&quot;:null}" fill="#66c8ff" stroke="#000000" stroke-width="3.5" stroke-linecap="round"/><path d="M234.31746,184.38856c-1.2859,0.12195 -1.52075,-2.35444 -1.52075,-2.35444c-0.48709,-5.13621 -1.13075,-11.92335 -1.61783,-17.05956c0,0 -0.23485,-2.47638 1.05105,-2.59833c1.2859,-0.12195 1.52075,2.35444 1.52075,2.35444c0.48709,5.13621 0.97419,10.27242 1.46128,15.40864l0.15657,1.65093c0,0 0.23484,2.47638 -1.05106,2.59833z" fill="#ffffff" stroke="none" stroke-width="0.5" stroke-linecap="butt"/><path d="M246.8618,189.56068c-1.2859,0.12195 -1.58093,-2.98909 -1.58093,-2.98909c-0.61192,-6.45253 -1.42054,-14.97908 -2.03246,-21.43161c0,0 -0.29503,-3.11104 0.99086,-3.23299c1.2859,-0.12195 1.58093,2.98909 1.58093,2.98909c0.61192,6.45253 1.22385,12.90506 1.83577,19.3576l0.19669,2.07403c0,0 0.29503,3.11104 -0.99086,3.23299z" fill="#ffffff" stroke="none" stroke-width="0.5" stroke-linecap="butt"/></g><g fill="none" stroke="#b9b9b9" stroke-width="3"><path d="M246.71356,164.29395c-0.95205,-1.2739 -0.15785,-2.57426 0.94464,-3.90231c1.1025,-1.32803 2.28931,-1.81418 3.04787,-0.90697c1.60834,1.92356 0.21776,3.03534 -0.64553,4.07523c-1.10251,1.32805 -2.00244,2.53313 -3.34698,0.73406z" stroke-linecap="butt"/><path d="M247.63765,163.61291l-2.34053,2.75271" stroke-linecap="round"/><path d="M241.82588,167.32698c1.1025,-1.32803 2.28932,-1.81418 3.04788,-0.90696c1.60834,1.92356 0.21776,3.03534 -0.64553,4.07523c-1.1025,1.32804 -2.00243,2.53313 -3.34696,0.73405c-0.95205,-1.2739 -0.15787,-2.57426 0.94462,-3.90232z" stroke-linecap="butt"/><path d="M241.80532,170.54826l-2.34053,2.75272" stroke-linecap="round"/><path d="M233.82491,173.38154c0.2445,-1.6656 1.59117,-1.63801 3.14751,-1.32472c1.55634,0.3133 2.61261,1.19425 2.48852,2.45922c-0.26313,2.68209 -1.85651,1.9623 -3.07516,1.71699c-1.55634,-0.31329 -2.90615,-0.49923 -2.56085,-2.85148z" stroke-linecap="butt"/><path d="M234.84585,173.89315l-3.26028,-0.70349" stroke-linecap="round"/><path d="M226.24424,169.70506c0.7647,-1.39515 2.00856,-0.72247 3.35534,0.3105c1.34679,1.03296 2.04527,2.34103 1.52183,3.43022c-1.10986,2.30938 -2.35999,0.8894 -3.41458,0.08056c-1.34679,-1.03297 -2.54251,-1.85097 -1.46259,-3.82126z" stroke-linecap="butt"/><path d="M224.22292,168.45391l2.80607,2.20676" stroke-linecap="round"/><path d="M219.19135,164.22182c0.7647,-1.39513 2.00857,-0.72247 3.35535,0.3105c1.3468,1.03296 2.04527,2.34103 1.52183,3.43022c-1.10986,2.30937 -2.35999,0.88939 -3.41457,0.08055c-1.34679,-1.03296 -2.54251,-1.85095 -1.46258,-3.82125z" stroke-linecap="butt"/><path d="M217.17004,162.97066l2.80608,2.20676" stroke-linecap="round"/></g></g><g><path d="M246.28134,168.28865c-12.02412,-1.23182 -23.68053,-2.46227 -28.32868,-3.99645c-4.2481,-1.40213 -5.25003,-4.2932 -5.25003,-4.2932c0,0 -1.47301,-2.61557 -1.38684,-4.14816c0.25848,-4.59777 1.61096,-17.6784 3.82022,-28.83878c0.07373,-0.37248 0.12866,-0.57914 0.22445,-0.94656c0.28736,-1.10226 1.59155,-5.35946 1.59155,-5.35946c0,0 3.35576,-1.29129 5.13066,-1.56739c5.3247,-0.82832 18.28704,2.13493 32.06671,4.11087c1.24895,0.1791 3.20837,2.09247 3.20837,2.09247c0,0 1.17891,3.29078 0.90809,5.25574c-1.75086,12.70374 -3.73482,26.7531 -4.39917,29.94129c-0.22145,1.06274 -2.51805,5.01945 -2.51805,5.01945z" fill="#582700" stroke="#000000" stroke-width="2.5" stroke-linecap="round"/><path d="M212.6032,121.02735c-0.54157,-1.12659 0.58501,-1.66816 0.58501,-1.66816l1.38725,-0.62135c0.12172,-0.02348 0.24326,-0.04621 0.36465,-0.06819c-0.38977,-5.8597 1.477,-12.68229 2.06537,-18.37041c0.15259,-1.47513 0.21398,-5.50995 1.06397,-6.69666c1.42335,-1.98718 3.06012,-1.21112 4.9456,-1.01091c3.2081,0.34066 6.38618,0.71772 9.6101,0.58507c7.99063,-0.31945 15.82029,0.25538 23.79693,0.42405c2.51709,0.05322 4.96348,0.22237 7.44826,0.70423c0.67989,0.13184 1.58482,-0.02429 2.01115,0.52149c1.50992,1.93296 0.57269,3.80269 0.04729,5.7198c-1.04802,3.82404 -3.03188,7.16087 -3.57935,11.13304c-0.43914,3.03609 -1.24531,6.11331 -1.95902,9.09462c-0.24631,1.02882 -0.11467,2.99679 -1.25397,3.66716c-2.33611,1.37457 -7.82401,-0.43031 -10.33953,-0.78454c-7.67033,-1.08012 -15.3248,-2.31915 -23.04497,-2.96054c-2.77,-0.13505 -5.4196,-0.18299 -8.11361,0.10797c-0.06596,0.36767 -0.29341,0.82384 -0.99537,0.95292c-0.76161,0.14005 -1.13815,-0.27848 -1.31444,-0.61725c-0.09256,0.01706 -0.18524,0.03459 -0.27802,0.05262l-0.77913,0.42007c0,0 -1.12659,0.54157 -1.66817,-0.58501z" fill="#000000" stroke="none" stroke-width="0.5" stroke-linecap="butt"/><path d="M229.13815,138.54501c4.90173,-2.02414 8.9461,0.55559 10.10943,5.4749c1.33421,5.64187 -2.77155,8.39911 -2.77155,8.39911c0,0 -2.4446,-1.30957 -5.6425,-1.98836c-3.9819,-0.84519 -6.23497,-0.59204 -6.23497,-0.59204c0,0 -2.11013,-8.54765 4.53959,-11.29362z" fill="#ffffff" stroke="#0a0a0a" stroke-width="2" stroke-linecap="butt"/><path d="M255.54359,142.06138c5.6328,4.47556 1.24422,12.10807 1.24422,12.10807c0,0 -2.09554,-0.8655 -6.156,-1.15282c-3.261,-0.23075 -5.97218,0.3528 -5.97218,0.3528c0,0 -3.18465,-3.78386 -0.34428,-8.83788c2.4766,-4.40674 7.07611,-5.76926 11.22823,-2.47018z" data-paper-data="{&quot;index&quot;:null}" fill="#ffffff" stroke="#0a0a0a" stroke-width="2" stroke-linecap="butt"/><g data-paper-data="{&quot;index&quot;:null}" stroke="#000000" stroke-width="1" stroke-linecap="butt"><path d="M224.97764,166.17332c-11.81503,-4.21637 -4.41316,-15.53244 -4.41316,-15.53244l17.64313,6.12069c0,0 -0.72104,13.87574 -13.22998,9.41174z" fill="#000000"/><path d="M224.78865,161.98359c2.90975,2.10749 4.68931,5.08996 4.12699,5.05585c-1.16199,-0.07048 -2.46867,-0.34179 -3.938,-0.86613c-4.40366,-1.57149 -6.13775,-4.1293 -6.58051,-6.71984c-0.08602,-0.50327 3.71952,0.59483 6.3915,2.53012z" fill="#ff8484"/><path d="M218.90128,154.74248c0.63993,-1.6893 1.66321,-4.10161 1.66321,-4.10161l15.50576,5.3792l-1.4214,4.31858c0,0 -15.76865,-5.54048 -15.74756,-5.59616z" fill="#ffffff"/></g></g><path d="M231.25485,151.29408l-0.40627,-0.09995c-0.87671,0.08693 -1.89729,0.01499 -2.63868,-0.56716c-0.26001,0.76414 -0.83526,1.59126 -0.98381,1.60673c-2.2117,0.23038 -1.21758,-1.46853 -1.20272,-2.15448c0.00694,-0.32024 -0.51804,-0.61097 -0.66749,-0.72735c0,0 -0.0527,-0.04392 -0.11337,-0.12123c-0.16011,0.00646 -0.30906,0.01108 -0.44189,0.01127c0,0 -1.10367,0 -1.10367,-1.10367c0,-1.10367 1.10367,-1.10367 1.10367,-1.10367c1.32538,0.00165 3.0921,-0.13389 4.32706,0.415c0.56331,0.25037 0.96906,0.78749 1.53553,1.03064c0.52178,0.22396 1.09496,0.30621 1.62699,0.50459l0.70252,0.40033c0,0 0.94639,0.56783 0.37856,1.51422c-0.56783,0.94639 -1.51422,0.37856 -1.51422,0.37856l-0.09336,-0.0618c-0.24243,0.12238 -0.50884,0.07798 -0.50884,0.07798z" fill="#000000" stroke="none" stroke-width="0.5" stroke-linecap="butt"/><path d="M247.37283,153.53949c0,0 -0.26979,-0.01241 -0.4812,-0.18288l-0.10424,0.04087c0,0 -1.04437,0.3569 -1.40127,-0.68747c-0.3569,-1.04437 0.68747,-1.40127 0.68747,-1.40127l0.77081,-0.24423c0.56179,-0.08248 1.13948,-0.04279 1.6966,-0.15243c0.60484,-0.11903 1.11414,-0.55921 1.71741,-0.68597c1.32256,-0.27791 3.02165,0.22485 4.31795,0.50098c0,0 1.07916,0.23128 0.84788,1.31045c-0.23128,1.07916 -1.31045,0.84788 -1.31045,0.84788c-0.12985,-0.02802 -0.27452,-0.06376 -0.42972,-0.10362c-0.07552,0.06289 -0.13626,0.09479 -0.13626,0.09479c-0.17053,0.08248 -0.74477,0.25674 -0.80509,0.57132c-0.12921,0.67383 0.48681,2.54335 -1.6275,1.85461c-0.142,-0.04626 -0.53115,-0.97555 -0.62526,-1.77722c-0.84693,0.41386 -1.85992,0.27034 -2.69895,0.00162l-0.41819,0.01259z" data-paper-data="{&quot;index&quot;:null}" fill="#000000" stroke="none" stroke-width="0.5" stroke-linecap="butt"/><path d="M219.30189,158.70391c0.51038,-0.41439 1.16732,-0.08593 1.16732,-0.08593l0.50991,0.28779c2.27513,1.92364 5.854,2.67024 8.53906,4.01414c0.94236,0.47166 2.86647,1.18383 3.34096,2.23181c0.03129,0.06912 0.05982,0.13912 0.08595,0.2099l0.03613,-0.01807l0.58354,1.16708c0.08082,0.15351 0.12657,0.32837 0.12657,0.51391c0,0.34504 -0.15819,0.65313 -0.406,0.85571c0.07002,0.14506 0.10927,0.30776 0.10927,0.47963c0,0.41827 -0.23246,0.78224 -0.57523,0.96978l-0.69161,0.39521c0.07988,0.22372 0.07988,0.41545 0.07988,0.41545h-0.00001v0.29674c-0.02199,0.52101 0.21286,1.12237 -0.06598,1.56302c-0.44905,0.70965 -1.10034,1.61563 -1.9401,1.60727c-0.26843,-0.00267 -0.46045,-0.16469 -0.61819,-0.39509c-0.29798,-0.14435 -0.5213,-0.41864 -0.59632,-0.74925l-0.15948,-0.63792c-0.21906,-0.31757 -0.41543,-0.62015 -0.61502,-0.9031c-0.76816,1.89066 0.93695,4.27361 0.72894,6.10994c-0.15358,1.35589 -0.65951,2.91063 -2.55673,2.66378c-0.76808,-0.09994 -1.47152,-0.69083 -1.90213,-1.33466c-0.19074,-0.28519 -0.09491,-2.50171 -0.12075,-2.96669c-0.05429,-0.97706 -0.13708,-1.97875 -0.25455,-2.97833c-0.28132,-1.68962 -0.6854,-3.34969 -1.42285,-4.92199c-0.03468,-0.07394 -0.06997,-0.14683 -0.10584,-0.21875c-0.33499,-0.39761 -0.62762,-0.8295 -0.8682,-1.2918l-0.68151,-0.95412c-0.08937,-0.05755 -0.17721,-0.11215 -0.26335,-0.16337l-0.02562,0.02989l-1.03314,-0.88555c-0.2393,-0.20264 -0.39122,-0.50529 -0.39122,-0.84342c0,-0.06311 0.00529,-0.12499 0.01546,-0.18522c-0.17183,-0.19031 -0.33886,-0.38745 -0.50127,-0.59129c-0.3191,-0.40052 -0.87105,-0.7129 -0.93191,-1.22137c-0.10161,-0.84881 -0.20471,-2.01236 0.48423,-2.51849c0.17168,-0.12612 0.51508,-0.07955 0.91978,0.05332zM225.92519,169.63039c0.01819,0.10099 0.03599,0.20222 0.05342,0.30363c0.0369,-0.08071 0.07636,-0.16038 0.11854,-0.23904c-0.05754,-0.02093 -0.11486,-0.04246 -0.17197,-0.0646z" fill="#000000" stroke="none" stroke-width="0.5" stroke-linecap="butt"/><g data-paper-data="{&quot;index&quot;:null}"><g data-paper-data="{&quot;origRot&quot;:0,&quot;index&quot;:null}" stroke="#000000" stroke-width="3" stroke-linecap="round"><path d="M220.80818,220.50888c0,0 -25.217,-1.39936 -25.27416,-3.95418c-0.10307,-4.6065 2.58545,-14.90773 2.58545,-14.90773l8.0878,-28.99309c0,0 1.61859,-5.48095 2.74375,-5.73275c3.37546,-0.7554 9.57375,1.34417 16.14699,2.1747c1.09259,0.13806 0.90849,6.05971 0.90849,6.05971c0,0 -0.7008,9.30416 -1.14933,15.25929c-0.68308,9.06907 -1.75029,23.23838 -1.75029,23.23838c0,0 -0.30842,7.2684 -2.29871,6.85569z" data-paper-data="{&quot;origPos&quot;:null}" fill="#582700"/><path d="M197.36729,209.22227l24.60602,4.00584" fill="none"/><path d="M198.17392,205.74528l24.56786,4.24019" data-paper-data="{&quot;origPos&quot;:null}" fill="none"/></g><path d="M198.02191,205.02838l10.2546,-36.73435l1.37353,-0.47003l15.60384,2.58897l-2.36589,38.69131z" fill="#66c8ff" stroke="#000000" stroke-width="1" stroke-linecap="round"/><path d="M197.36474,209.05557l0.38219,-2.29955l25.15576,4.18085l-0.38219,2.29955z" fill="#ffffff" stroke="none" stroke-width="0" stroke-linecap="butt"/></g></g></g></svg>