<svg version="1.1" xmlns="http://www.w3.org/2000/svg" xmlns:xlink="http://www.w3.org/1999/xlink" width="287.46753" height="287.46753" viewBox="0,0,287.46753,287.46753"><defs><radialGradient cx="243.75013" cy="142" r="86.5" gradientUnits="userSpaceOnUse" id="color-1"><stop offset="0" stop-color="#b36bfa"/><stop offset="1" stop-color="#b36bfa" stop-opacity="0"/></radialGradient><radialGradient cx="272.75013" cy="177.5" r="86.5" gradientUnits="userSpaceOnUse" id="color-2"><stop offset="0" stop-color="#b36bfa"/><stop offset="1" stop-color="#b36bfa" stop-opacity="0"/></radialGradient><radialGradient cx="238.25013" cy="218" r="86.5" gradientUnits="userSpaceOnUse" id="color-3"><stop offset="0" stop-color="#b36bfa"/><stop offset="1" stop-color="#b36bfa" stop-opacity="0"/></radialGradient><radialGradient cx="207.25012" cy="176.5" r="86.5" gradientUnits="userSpaceOnUse" id="color-4"><stop offset="0" stop-color="#b36bfa"/><stop offset="1" stop-color="#b36bfa" stop-opacity="0"/></radialGradient></defs><g transform="translate(-96.2663,-36.26623)"><g data-paper-data="{&quot;isPaintingLayer&quot;:true}" fill-rule="nonzero" stroke-linejoin="miter" stroke-miterlimit="10" stroke-dasharray="" stroke-dashoffset="0" style="mix-blend-mode: normal"><path d="M96.2663,323.73376v-287.46753h287.46753v287.46753z" data-paper-data="{&quot;index&quot;:null}" fill="none" stroke="none" stroke-width="0" stroke-linecap="butt"/><path d="M240.59756,154.6703c0,0 64.39066,-8.22606 72.07495,2.31665c5.28188,7.24668 -2.13033,55.13674 -2.13033,55.13674l-76.69056,0.92667" data-paper-data="{&quot;index&quot;:null}" fill="#ffcde0" stroke="#561b25" stroke-width="1.5" stroke-linecap="round"/><path d="M255.86461,199.48265c0,0 8.87321,13.15291 18.81761,26.78755c0.59978,0.82233 -4.90014,8.00263 -9.29394,11.69949c-5.99109,5.04082 -23.37054,15.78384 -23.37054,15.78384c0,0 -74.31701,-35.7804 -73.49515,-76.88374c0.6616,-33.08778 73.49517,-68.88225 73.49517,-68.88225c0,0 17.37944,10.74303 23.37054,15.78384c4.39379,3.69686 9.89369,10.87716 9.29394,11.69949c-9.94438,13.63463 -17.04237,22.26497 -17.04237,22.26497" data-paper-data="{&quot;index&quot;:null}" fill="#ffcde0" stroke="#561b25" stroke-width="1.5" stroke-linecap="round"/><path d="M240.59756,154.6703c0,0 64.39066,-8.22606 72.07495,2.31665c5.28188,7.24668 -2.13033,55.13674 -2.13033,55.13674l-76.69056,0.92667" data-paper-data="{&quot;index&quot;:null}" fill="#ffcde0" stroke="#561b25" stroke-width="5" stroke-linecap="round"/><path d="M255.86461,199.48265c0,0 8.87321,13.15291 18.81761,26.78755c0.59978,0.82233 -4.90014,8.00263 -9.29394,11.69949c-5.99109,5.04082 -23.37054,15.78384 -23.37054,15.78384c0,0 -74.31701,-35.7804 -73.49515,-76.88374c0.6616,-33.08778 73.49517,-68.88225 73.49517,-68.88225c0,0 17.37944,10.74303 23.37054,15.78384c4.39379,3.69686 9.89369,10.87716 9.29394,11.69949c-9.94438,13.63463 -17.04237,22.26497 -17.04237,22.26497" data-paper-data="{&quot;index&quot;:null}" fill="#ffcde0" stroke="#561b25" stroke-width="5" stroke-linecap="round"/><path d="" data-paper-data="{&quot;index&quot;:null}" fill="#87a9bc" stroke="none" stroke-width="0" stroke-linecap="butt"/><path d="" data-paper-data="{&quot;index&quot;:null}" fill="#87a9bc" stroke="none" stroke-width="0" stroke-linecap="butt"/><g data-paper-data="{&quot;index&quot;:null}" stroke="none" stroke-width="0" stroke-linecap="butt"><path d="M243.75014,228.5c-47.77263,0 -86.5,-38.72737 -86.5,-86.5c0,-47.77263 38.72737,-86.5 86.5,-86.5c47.77263,0 86.5,38.72737 86.5,86.5c0,47.77263 -38.72737,86.5 -86.5,86.5z" fill="url(#color-1)"/><path d="M272.75013,264c-47.77263,0 -86.5,-38.72737 -86.5,-86.5c0,-47.77263 38.72737,-86.5 86.5,-86.5c47.77263,0 86.5,38.72737 86.5,86.5c0,47.77263 -38.72737,86.5 -86.5,86.5z" fill="url(#color-2)"/><path d="M238.25014,304.5c-47.77263,0 -86.5,-38.72737 -86.5,-86.5c0,-47.77263 38.72737,-86.5 86.5,-86.5c47.77263,0 86.5,38.72737 86.5,86.5c0,47.77263 -38.72737,86.5 -86.5,86.5z" fill="url(#color-3)"/><path d="M207.25012,263c-47.77263,0 -86.5,-38.72737 -86.5,-86.5c0,-47.77263 38.72737,-86.5 86.5,-86.5c47.77263,0 86.5,38.72737 86.5,86.5c0,47.77263 -38.72737,86.5 -86.5,86.5z" fill="url(#color-4)"/></g><g data-paper-data="{&quot;index&quot;:null}" fill="#ffffff" stroke-linecap="round"><path d="M239.054,153.79977c0,0 64.39066,-8.22606 72.07495,2.31665c5.28188,7.24668 -2.13033,55.13674 -2.13033,55.13674l-76.69056,0.92667" data-paper-data="{&quot;index&quot;:null}" stroke="#ff8282" stroke-width="1.5"/><path d="M254.32104,198.61212c0,0 8.87321,13.15291 18.81761,26.78755c0.59978,0.82233 -4.90014,8.00263 -9.29394,11.69949c-5.99109,5.04082 -23.37054,15.78384 -23.37054,15.78384c0,0 -74.31701,-35.7804 -73.49515,-76.88374c0.6616,-33.08778 73.49517,-68.88225 73.49517,-68.88225c0,0 17.37944,10.74303 23.37054,15.78384c4.39379,3.69686 9.89369,10.87716 9.29394,11.69949c-9.94438,13.63463 -17.04237,22.26497 -17.04237,22.26497" data-paper-data="{&quot;index&quot;:null}" stroke="#ff8282" stroke-width="1.5"/><path d="M239.054,153.79977c0,0 64.39066,-8.22606 72.07495,2.31665c5.28188,7.24668 -2.13033,55.13674 -2.13033,55.13674l-76.69056,0.92667" data-paper-data="{&quot;index&quot;:null}" stroke="#c182ff" stroke-width="5"/><path d="M255.32104,198.61212c0,0 8.87321,13.15291 18.81761,26.78755c0.59978,0.82233 -4.90014,8.00263 -9.29394,11.69949c-5.99109,5.04082 -23.37054,15.78384 -23.37054,15.78384c0,0 -74.31701,-35.7804 -73.49515,-76.88374c0.6616,-33.08778 73.49517,-68.88225 73.49517,-68.88225c0,0 17.37944,10.74303 23.37054,15.78384c4.39379,3.69686 9.89369,10.87716 9.29394,11.69949c-9.94438,13.63463 -17.04237,22.26497 -17.04237,22.26497" data-paper-data="{&quot;index&quot;:null}" stroke="#c182ff" stroke-width="5"/></g></g></g></svg>