<svg version="1.1" xmlns="http://www.w3.org/2000/svg" xmlns:xlink="http://www.w3.org/1999/xlink" width="183.18182" height="183.18182" viewBox="0,0,183.18182,183.18182"><g transform="translate(-148.40909,-92.40909)"><g data-paper-data="{&quot;isPaintingLayer&quot;:true}" fill-rule="nonzero" stroke-linejoin="miter" stroke-miterlimit="10" stroke-dasharray="" stroke-dashoffset="0" style="mix-blend-mode: normal"><path d="" data-paper-data="{&quot;index&quot;:null}" fill="#87a9bc" stroke="none" stroke-width="0" stroke-linecap="butt"/><path d="" data-paper-data="{&quot;index&quot;:null}" fill="#87a9bc" stroke="none" stroke-width="0" stroke-linecap="butt"/><g><path d="M213.7355,181.73113c0,0 -10.18353,-63.06394 0.16632,-70.94215c7.11411,-5.41518 55.39544,0.40952 55.39544,0.40952l3.22669,75.38155" data-paper-data="{&quot;index&quot;:null}" fill="#87a3ad" stroke="#000000" stroke-width="1.5" stroke-linecap="round"/><path d="M258.24901,165.34934c0,0 12.93367,-9.12704 26.31869,-19.32211c0.80728,-0.61489 8.17767,4.57371 12.01919,8.78115c5.23806,5.73698 16.53955,22.49785 16.53955,22.49785c0,0 -33.68122,74.16958 -74.95446,74.61775c-33.22455,0.36076 -71.3268,-70.16252 -71.3268,-70.16252c0,0 10.26052,-17.41758 15.13973,-23.4627c3.57834,-4.43342 10.61931,-10.06092 11.46251,-9.49633c13.98065,9.36159 22.85406,16.07727 22.85406,16.07727" data-paper-data="{&quot;index&quot;:null}" fill="#87a3ad" stroke="#000000" stroke-width="5" stroke-linecap="round"/><path d="M214.86306,181.65683c0,0 -9.74635,-60.35655 0.15919,-67.89655c6.80871,-5.1827 53.01727,0.39194 53.01727,0.39194l3.08816,72.14537" data-paper-data="{&quot;index&quot;:null}" fill="none" stroke="#ffffff" stroke-width="1.5" stroke-linecap="round"/><path d="M257.46557,165.97833c0,0 12.37843,-8.73523 25.18881,-18.49261c0.77261,-0.58852 7.82658,4.37735 11.50318,8.40416c5.01317,5.49069 15.82948,21.532 15.82948,21.532c0,0 -32.23526,70.98541 -71.7366,71.41434c-31.79818,0.34527 -68.26465,-67.15038 -68.26465,-67.15038c0,0 9.82003,-16.66983 14.48976,-22.45543c3.4247,-4.24307 10.16341,-9.62899 10.97041,-9.08864c13.38044,8.95969 21.87293,15.38705 21.87293,15.38705" data-paper-data="{&quot;index&quot;:null}" fill="none" stroke="#ffffff" stroke-width="5" stroke-linecap="round"/><path d="M213.7355,181.73113c0,0 -10.18353,-63.06394 0.16632,-70.94215c7.11411,-5.41518 55.39544,0.40952 55.39544,0.40952l3.22669,75.38155" data-paper-data="{&quot;index&quot;:null}" fill="none" stroke="#000000" stroke-width="5" stroke-linecap="round"/><path d="M258.24901,165.34934c0,0 12.93367,-9.12704 26.31869,-19.32211c0.80728,-0.61489 8.17767,4.57371 12.01919,8.78115c5.23806,5.73698 16.53955,22.49785 16.53955,22.49785c0,0 -33.68122,74.16958 -74.95446,74.61775c-33.22455,0.36076 -71.3268,-70.16252 -71.3268,-70.16252c0,0 10.26052,-17.41758 15.13973,-23.4627c3.57834,-4.43342 10.61931,-10.06092 11.46251,-9.49633c13.98065,9.36159 22.85406,16.07727 22.85406,16.07727" data-paper-data="{&quot;index&quot;:null}" fill="none" stroke="#000000" stroke-width="5" stroke-linecap="round"/><path d="M278.6626,198.97408l-32.03006,-19.73071l22.38598,-17.69051l9.06653,-5.82245z" data-paper-data="{&quot;index&quot;:null}" fill="#87a3ad" stroke="none" stroke-width="0" stroke-linecap="butt"/><path d="M201.28115,159.17887l9.40406,5.2599l23.42108,16.29537l-30.76993,21.6434z" data-paper-data="{&quot;index&quot;:null}" fill="#87a3ad" stroke="none" stroke-width="0" stroke-linecap="butt"/><path d="M148.40909,275.59091v-183.18182h183.18182v183.18182z" fill="none" stroke="none" stroke-width="0" stroke-linecap="butt"/></g></g></g></svg>