<svg version="1.1" xmlns="http://www.w3.org/2000/svg" xmlns:xlink="http://www.w3.org/1999/xlink" width="134.40405" height="182.12186" viewBox="0,0,134.40405,182.12186"><g transform="translate(-150.15992,-83.11299)"><g data-paper-data="{&quot;isPaintingLayer&quot;:true}" fill-rule="nonzero" stroke-linejoin="miter" stroke-miterlimit="10" stroke-dasharray="" stroke-dashoffset="0" style="mix-blend-mode: normal"><g stroke="#000000" stroke-width="1.5"><g data-paper-data="{&quot;index&quot;:null}"><path d="M190.80167,191.1476c0.17196,-0.04936 5.54984,-1.36687 11.09986,-1.72208c5.32644,-0.34088 10.83342,0.54888 11.40456,2.36183c1.2036,3.82055 -6.68906,9.24022 -17.36141,12.96301c-10.67237,3.72279 -14.96096,8.48542 -18.01164,6.28262c-14.21048,-10.26084 1.60334,-16.65274 12.86861,-19.8854z" fill="#f0d5b1" stroke-linecap="butt"/><path d="M190.93367,206.21533l-8.28953,-8.33346" fill="none" stroke-linecap="round"/><path d="M187.40879,215.80733c0,0 -3.4901,-1.42347 -5.17856,-2.41446c-2.19259,-1.28682 -6.8642,-4.65344 -6.8642,-4.65344c0,0 1.49154,-3.92727 2.66505,-5.66831c1.22119,-1.81177 5.85885,-3.44813 5.85885,-3.44813l9.42049,7.03391l-5.90159,9.15037z" fill="#955544" stroke-linecap="butt"/><path d="M191.05945,209.72691l-10.66081,-6.71425l-0.99199,-0.92339" fill="none" stroke-linecap="round"/><path d="M177.26365,206.51314l11.26518,7.5237" fill="none" stroke-linecap="round"/></g><g data-paper-data="{&quot;index&quot;:null}"><g><path d="" data-paper-data="{&quot;index&quot;:null}" fill="#f0d5b1" stroke-linecap="butt"/><path d="" data-paper-data="{&quot;index&quot;:null}" fill="#955544" stroke-linecap="butt"/><path d="" data-paper-data="{&quot;index&quot;:null}" fill="none" stroke-linecap="round"/><path d="" data-paper-data="{&quot;index&quot;:null}" fill="none" stroke-linecap="round"/></g><path d="M196.86266,212.81372c0,0 1.45515,-1.47672 6.4283,-0.65886c2.11499,0.34784 4.82541,0.65881 5.12432,2.54248c0.25066,1.57965 -1.25576,2.24665 -3.9653,3.67044c-2.29309,1.20497 -1.37528,1.50851 -3.35802,2.78766c-1.43568,0.92621 -3.23202,2.30229 -5.37163,3.3679c-2.43102,1.21074 -5.91703,0.42711 -9.06195,0.58215c-2.42679,0.11962 -4.22385,2.49394 -6.95143,1.37959c-5.23119,-2.13717 -4.68829,-5.05808 -5.43972,-8.27984c-0.59502,-2.55102 -3.2059,-5.27971 -1.67963,-8.03445c3.45381,-6.23377 19.64092,-7.57565 19.64092,-7.57565c0,0 5.72198,11.77638 3.01377,13.19287c-4.69805,2.45723 -6.58428,-6.68231 -6.58428,-6.68231c0,0 2.22806,8.86218 0.0246,9.63228c-6.46817,2.26066 -7.53204,-5.89381 -7.01651,-3.4865c0.23404,1.09293 0.30265,2.2487 0.00733,3.29907c-0.94583,3.36394 -5.70809,1.45596 -5.70809,1.45596c0,0 1.65084,0.363 3.20899,0.1342c1.34209,-0.19708 2.60095,-0.91806 2.84608,-1.69529c0.7701,-2.44175 -1.75159,-6.72735 -1.75159,-6.72735c0,0 1.05066,2.75646 2.51642,4.93757c1.32017,1.96442 2.94054,3.43628 5.06662,2.45508c2.95721,-1.36475 0.79216,-10.08727 0.79216,-10.08727c0,0 2.65737,7.60008 4.78486,7.35808c1.73916,-0.19785 3.43382,-3.56786 3.43382,-3.56786z" fill="#46b8d9" stroke-linecap="round"/></g></g><g stroke="#000000" stroke-width="1.5"><path d="M235.7597,257.79131c0,3.69674 -5.2465,6.69354 -11.71836,6.69354c-6.47187,0 -11.71836,-2.99681 -11.71836,-6.69354c0,-3.69673 5.2465,-6.69353 11.71836,-6.69353c6.47187,0 11.71836,2.99677 11.71836,6.69353z" fill="#46b8d9" stroke-linecap="butt"/><path d="M214.12096,252.84939l9.55575,-12.0421l-0.88014,-9.0707l12.32189,1.56391c0,0 0.2814,7.04754 -1.00586,11.10376c-1.28727,4.05621 -4.65214,6.72482 -4.65214,6.72482z" fill="#494d5f" stroke-linecap="round"/><path d="M222.44453,242.465c0,0 2.57835,2.22992 5.77508,2.26127c1.94488,0.01906 5.71698,-1.29163 5.71698,-1.29163c0,0 -1.19203,3.57083 -2.07388,4.89448c-0.86115,1.29255 -3.15664,2.95633 -3.15664,2.95633l-13.70496,1.25114z" fill="#f0d5b1" stroke-linecap="round"/><path d="M254.56945,250.22203l-9.65634,-22.01987l8.75106,-4.50406l13.88099,27.77506z" fill="#494d5f" stroke-linecap="butt"/><path d="M269.4563,257.04068c0,3.97313 -4.59349,7.19398 -10.25987,7.19398c-5.66638,0 -10.25987,-3.22085 -10.25987,-7.19398c0,-3.97312 4.5935,-7.19398 10.25987,-7.19398c5.66638,0 10.25987,3.22085 10.25987,7.19398z" fill="#46b8d9" stroke-linecap="butt"/><path d="M222.78399,264.23463l1.70998,-7.25655" fill="none" stroke-linecap="round"/><path d="M230.62978,262.23281l0.90528,-5.37986" fill="none" stroke-linecap="round"/><path d="M253.56357,261.85747l0.40234,-4.87942" fill="none" stroke-linecap="round"/><path d="M261.30876,256.97808l-0.20117,5.88031" fill="none" stroke-linecap="round"/><path d="M252.25594,244.84215l9.55575,-4.75429l5.83404,11.51039l-12.67394,-1.12603z" fill="#f0d5b1" stroke-linecap="round"/></g><g stroke="#000000" stroke-width="1.5"><path d="M224.53651,236.16318c0,0 -7.9075,4.45199 -13.66885,5.97539c-5.76132,1.5234 -9.60164,4.62394 -10.81765,1.07255c-2.72324,-7.95333 3.10676,-8.06757 8.86808,-9.591c5.56684,-1.47197 15.6184,2.54306 15.6184,2.54306z" fill="#49c0e0" stroke-linecap="butt"/><path d="M256.47456,217.38579c2.53834,6.04209 -3.13302,14.60341 -12.66735,19.12227c-9.31797,4.4163 -18.84625,7.50868 -22.4302,-0.82687c-1.3416,-3.12024 2.95736,-8.75756 2.95736,-8.75756l-19.71381,-43.28063l24.41162,2.22496l17.64248,29.48211c0,0 8.25674,-1.6375 9.7999,2.0357z" fill="#f0d5b1" stroke-linecap="butt"/><path d="M256.79532,219.92795c0.20438,1.45639 -0.58128,4.81723 -0.58128,4.81723c0,0 -4.4459,8.05569 -10.54907,10.77625c-8.26365,3.68359 -17.71918,5.22573 -17.71918,5.22573c0,0 -3.94829,-1.38966 -5.14464,-2.81324c-0.93909,-1.11751 -1.93554,-4.46234 -1.93554,-4.46234c0,0 15.34706,-3.26022 21.33645,-6.19957c5.57218,-2.73461 13.43869,-10.86659 13.43869,-10.86659c0,0 0.98997,2.34953 1.15459,3.52253z" fill="#494d5f" stroke-linecap="round"/><path d="M242.99392,227.33115c2.25929,-1.05517 6.40944,-4.05214 6.40944,-4.05214c0,0 -1.44169,5.77389 -4.21232,7.06787c-2.77067,1.29396 -9.24648,-0.78224 -9.24648,-0.78224c0,0 4.82292,-1.19364 7.04941,-2.23346z" fill="#e7e7e8" stroke-linecap="round"/><path d="M242.95389,231.84688l1.0451,4.7198" fill="none" stroke-linecap="round"/><path d="M251.14198,230.41967l-2.7186,-2.61516" fill="none" stroke-linecap="round"/><path d="M210.15924,194.76326l-3.0331,-10.32317l22.21925,-2.36585l6.75742,11.5076z" fill="#955544" stroke-linecap="butt"/><path d="M228.44188,189.67067l1.4329,4.17498" fill="none" stroke-linecap="round"/></g><g stroke="#000000" stroke-width="1.5"><g><path d="M251.48795,151.96357c-4.2188,-3.26937 -7.75859,-7.58079 -6.987,-9.31795c1.14411,-2.57585 6.2349,-3.53283 12.76997,-1.93049c2.75254,0.6749 7.9949,3.98143 11.0963,5.24743c3.35832,1.37087 5.79168,0.03262 7.95579,-0.82904c4.5794,-1.8233 5.29653,-3.37683 5.85976,-0.88436c3.86321,17.09673 -10.64875,18.80063 -21.2336,13.76899c-0.16159,-0.07681 -5.06527,-2.64801 -9.46119,-6.0546z" data-paper-data="{&quot;index&quot;:null}" fill="#f0d5b1" stroke-linecap="butt"/><path d="M277.44956,132.19602c0,0 2.14116,3.102 3.01154,4.85569c1.13024,2.27727 3.19626,7.6522 3.19626,7.6522c0,0 -3.39831,2.46972 -5.33352,3.28412c-2.01382,0.84747 -6.79059,-0.32233 -6.79059,-0.32233l-4.03201,-11.04374l9.94835,-4.42591z" data-paper-data="{&quot;index&quot;:null}" fill="#955544" stroke-linecap="butt"/><path d="M271.06565,135.28536l5.24495,11.45537l0.32456,1.31585" data-paper-data="{&quot;index&quot;:null}" fill="none" stroke-linecap="round"/><path d="M280.85048,145.52788l-5.30749,-12.46358" data-paper-data="{&quot;index&quot;:null}" fill="none" stroke-linecap="round"/><path d="M265.66424,140.7923c-0.26381,-0.02112 -1.63893,-0.15766 -2.22927,-0.64702c-0.84159,-0.69765 -1.03048,-1.84265 -2.18701,-2.08618c-3.32202,-0.69954 -6.96823,-1.14142 -7.1427,-3.30111c-0.18212,-2.25412 6.6194,-2.23431 6.6194,-2.23431c0,0 -5.99755,-2.00141 -5.82702,-4.13057c0.28707,-3.5839 7.17023,-2.73451 7.17023,-2.73451c0,0 -3.9377,-1.72017 -2.69762,-3.84773c1.61638,-2.77311 7.06852,1.54321 7.68684,1.59275c5.59697,0.44834 9.8224,4.70437 9.43778,9.50613c-0.38462,4.80176 -5.23368,8.33094 -10.83064,7.8826z" data-paper-data="{&quot;index&quot;:null}" fill="#46b8d9" stroke-linecap="butt"/></g><path d="M231.01187,94.5945c7.44121,-3.18155 14.03895,-3.98986 15.33067,-3.36547c9.50217,4.593 21.12866,36.54968 6.21222,41.57473c-14.91644,5.02503 -33.54498,-5.57129 -37.77825,-21.30411c-1.1624,-4.31992 6.94821,-12.93429 16.23536,-16.9051z" data-paper-data="{&quot;index&quot;:null}" fill="#49c0e0" stroke-linecap="butt"/><path d="M190.56273,103.26706c4.35435,15.69972 -6.29855,34.296 -21.69791,37.55348c-15.39936,3.25748 -21.6367,-30.17155 -15.78992,-38.95803c0.79481,-1.19442 6.88705,-3.85311 14.91226,-4.89709c10.016,-1.30296 21.38001,1.99083 22.57562,6.30166z" fill="#49c0e0" stroke-linecap="butt"/><path d="M260.83242,135.87553c0,0 18.20841,8.94245 13.69971,31.18472c-2.27301,11.21317 -14.63574,21.3993 -52.07905,25.35713c-28.28509,2.98979 -54.66174,-13.18348 -60.07658,-38.78153c-5.41485,-25.59806 14.73233,-52.36275 40.7876,-56.02913c57.5195,-8.09388 57.66836,38.26883 57.66836,38.26883z" fill="#49c0e0" stroke-linecap="butt"/><path d="M245.57875,161.30403c-0.34008,9.58583 -22.79062,35.50443 -32.7947,36.28127c-7.95141,0.61744 -13.64788,-18.76913 -15.04884,-31.86177c-1.38679,-12.96016 -2.58436,-22.17711 8.83817,-22.70746c5.88463,-0.27318 13.90028,12.82189 22.43828,16.01339c8.0349,3.00339 16.79345,-4.10521 16.5671,2.27459z" fill="#c25e5d" stroke-linecap="butt"/><path d="M252.32575,158.99023c-1.48734,3.51002 -10.31496,4.38364 -19.71708,1.95128c-9.4021,-2.43233 -15.81828,-7.24954 -14.33092,-10.75954c1.48734,-3.51002 10.31496,-4.38363 19.71708,-1.95128c9.4021,2.43233 15.81828,7.24954 14.33092,10.75954z" fill="#c8dee6" stroke-linecap="butt"/><path d="M244.77606,151.68855c0,0 -4.91182,3.20418 -8.29701,2.23646c-3.38523,-0.96771 -5.62932,-5.77146 -5.62932,-5.77146c0,0 4.32856,-0.52546 7.71378,0.44224c3.38522,0.96771 6.21261,3.09274 6.21261,3.09274z" fill="#c04915" stroke-linecap="butt"/><path d="M236.78622,152.6941c0,0 -0.74236,2.81923 -1.35764,3.95451c-0.60996,1.12548 -1.6033,3.18786 -1.6033,3.18786" fill="none" stroke-linecap="round"/><path d="M221.60056,124.0746c2.3842,11.27107 -4.46169,22.26502 -15.29075,24.55573c-10.82905,2.29071 -21.54051,-4.98929 -23.92472,-16.26038c-2.3842,-11.27107 4.46169,-22.26503 15.29075,-24.55573c10.82905,-2.2907 21.54051,4.9893 23.92472,16.26038z" fill="#ffffff" stroke-linecap="butt"/><path d="M257.33165,127.19436c3.00188,10.11661 0.2094,19.94983 -6.23721,21.96309c-6.44659,2.01328 -14.10605,-4.55576 -17.10791,-14.67237c-3.00188,-10.11661 -0.2094,-19.94983 6.23721,-21.96309c6.44659,-2.01328 14.10605,4.55576 17.10791,14.67237z" fill="#ffffff" stroke-linecap="butt"/><path d="M214.78603,89.2429c0.54161,3.4789 -6.4445,3.38883 -6.4445,3.38883c0,0 -4.72578,7.68325 -7.84154,6.0437c-3.11576,-1.63957 -2.14116,-6.93648 0.23778,-11.45739c2.37895,-4.52092 12.94638,-5.05244 14.04821,2.02485z" data-paper-data="{&quot;index&quot;:null}" fill="#000000" stroke-linecap="butt"/><path d="M237.77216,96.68723c0,0 -5.80931,-3.05485 -3.96438,-5.52639c3.75326,-5.028 12.27241,0.11376 12.42241,4.70464c0.15001,4.5909 -1.1722,9.15889 -4.40554,9.04412c-3.23336,-0.11478 -4.05247,-8.22234 -4.05247,-8.22234z" data-paper-data="{&quot;index&quot;:null}" fill="#000000" stroke-linecap="butt"/><path d="M198.12923,155.30479c0,0 10.77013,6.65098 14.85523,12.00396c4.42739,5.80149 11.96198,23.94893 11.96198,23.94893c0,0 -9.00421,9.5315 -15.60857,4.59259c-10.60218,-7.92852 -11.20861,-40.54547 -11.20861,-40.54547z" fill="#f1898a" stroke-linecap="round"/><path d="M221.21769,157.57264l-4.35635,5.9356l0.04651,-11.41439z" fill="#ffffff" stroke-linecap="butt"/></g><path d="M207.35374,149.12177c-3.05009,1.12247 -7.91506,2.74897 -10.42524,1.47747c-0.03693,-0.01871 -0.07355,-0.03772 -0.10986,-0.05703c-0.35641,0.41339 -0.65793,0.90856 -0.89195,1.50017c-0.32569,0.82334 0.12829,4.28056 0.20206,4.68214c0.8565,4.66287 2.21796,9.42163 2.68668,14.14814c1.06957,10.78553 -0.12918,21.95695 0.5602,32.8058c0.39818,0.70314 0.89712,1.3609 1.2719,2.07459c0.30778,-0.64742 0.82747,-1.32576 1.04667,-1.94815c1.59382,-4.52549 3.08927,-8.29665 4.22374,-12.97894c0.88285,-3.64378 0.55192,-5.87747 0.92499,-9.53223c0.72604,-7.11267 3.38941,-15.09738 2.01941,-22.34428c-0.29344,-1.55221 -1.02951,-2.9993 -1.31518,-4.55296c-0.31703,-1.72428 -0.11348,-3.5221 -0.19341,-5.27471zM193.58466,145.85808c-0.4805,-2.7513 0.46911,-5.85241 2.58527,-7.56372c4.18867,-3.38733 5.33296,-1.34699 9.47098,0.6262c1.48772,0.8852 3.13275,1.54793 4.46315,2.65559c0.76984,0.64094 1.33586,1.30891 1.75422,2.0017c0.53933,0.43793 0.97506,1.14552 0.97506,2.28883c0,0.10491 -0.00367,0.20615 -0.01075,0.30384c0.42912,2.21431 0.15564,4.6222 0.63026,7.16634c0.30368,1.62783 1.06515,3.14941 1.35149,4.78038c1.37023,7.80471 -1.1793,15.98543 -1.98059,23.65572c-0.39975,3.82661 -0.14279,6.59279 -1.07501,10.46777c-1.16845,4.85696 -2.61842,9.05442 -4.44292,13.68773c-0.55425,1.40752 -0.71639,3.11617 -1.80955,4.16178c-1.57328,1.50485 -3.58358,3.12548 -5.76019,3.07871c-2.67516,-0.05748 -5.31962,-6.29278 -6.11169,-7.78072c-1.01581,-11.24114 0.3544,-22.69455 -0.77314,-33.86087c-0.66608,-6.59636 -5.08179,-15.27362 -2.4446,-21.83639c0.45784,-1.13937 1.39319,-2.04051 2.26537,-2.90485c0.30553,-0.30279 0.60786,-0.61568 0.91265,-0.92804z" fill="#000000" stroke="none" stroke-width="0.5" stroke-linecap="butt"/><path d="M240.4243,141.41211c0.85965,-1.33916 2.79375,-1.52459 4.19062,-2.28688c0,0 1.17078,-0.52035 2.32217,-0.11583c0.50234,-0.14273 0.89625,-0.14273 0.89625,-0.14273l3.90563,0.44503c0.1854,0.15734 0.38182,0.30742 0.58606,0.45234c0.10402,-0.03559 0.20834,-0.07032 0.31294,-0.10418c0,0 2.87348,-0.86204 3.73552,2.01144c0.10494,0.34979 0.15452,0.66977 0.16067,0.96202c0.42594,0.44364 0.75964,0.94812 0.94539,1.55021c0.40765,1.32138 -4.76522,6.85133 -6.14077,7.23018c-1.10651,0.30475 -2.2593,-0.09155 -3.40563,-0.38998c-0.32685,0.3448 -0.66722,0.5696 -1.00473,0.70714c-0.54817,1.26258 -0.83326,2.64385 -0.76212,4.08745c0.21145,4.29134 1.59947,8.5978 2.91919,12.86985c0.06521,0.10501 0.09781,0.17021 0.09781,0.17021l0.98339,1.96677c0.95098,1.92682 2.13687,3.75458 2.85295,5.78047c1.32885,3.75956 1.41496,7.83097 1.55009,11.81435c0.4654,0.33088 0.83234,0.79123 1.0483,1.32851l1.97276,4.60312l-0.04837,0.02073c0.06119,0.1132 0.12037,0.22769 0.17741,0.34354c0.20244,0.41118 0.34739,0.84042 0.45341,1.28187c1.66949,2.2649 3.33376,4.8207 3.31637,6.78532c-0.01499,1.69372 -1.92866,2.78494 -2.89299,4.17741c-4.56056,1.61078 -6.19152,3.72551 -10.12036,-0.90461c-3.14381,-3.70498 -1.26298,-4.40805 -0.95697,-7.86201c0.27453,-3.0986 -0.04,-6.22941 -0.33393,-9.32622c-0.5664,-5.96759 -2.07149,-11.99377 -3.56496,-17.86364c-0.01603,-0.05728 -0.03171,-0.11823 -0.04641,-0.18238c-0.29066,-1.14202 -0.5805,-2.27802 -0.86252,-3.40644c-0.44913,-1.79706 -2.48767,-9.49063 -2.5444,-11.50009c-0.06973,-2.47033 0.44431,-4.7669 1.39749,-6.82548c-2.09446,-2.233 -3.72235,-3.65506 -1.14025,-7.67744z" fill="#000000" stroke="none" stroke-width="0.5" stroke-linecap="butt"/></g></g></svg>