<svg version="1.1" xmlns="http://www.w3.org/2000/svg" xmlns:xlink="http://www.w3.org/1999/xlink" width="189.26654" height="221.55319" viewBox="0,0,189.26654,221.55319"><g transform="translate(-145.36673,-69.22342)"><g data-paper-data="{&quot;isPaintingLayer&quot;:true}" fill-rule="nonzero" stroke-linejoin="miter" stroke-miterlimit="10" stroke-dasharray="" stroke-dashoffset="0" style="mix-blend-mode: normal"><g data-paper-data="{&quot;index&quot;:null}"><g data-paper-data="{&quot;origRot&quot;:0,&quot;index&quot;:null}" stroke="#000000" stroke-width="3" stroke-linecap="round"><path d="M260.87807,211.67123c-1.98335,0.44486 -2.40933,-6.8176 -2.40933,-6.8176c0,0 -1.29633,-14.15018 -2.12605,-23.20702c-0.54482,-5.9471 -1.39607,-15.2387 -1.39607,-15.2387c0,0 -0.27988,-5.9179 0.81033,-6.07362c6.55895,-0.93677 12.72245,-3.13638 16.10969,-2.43567c1.12909,0.23357 2.83615,5.68761 2.83615,5.68761l8.55584,28.85843c0,0 2.85483,10.25637 2.8263,14.86395c-0.01581,2.55542 -25.20687,4.36259 -25.20687,4.36259z" data-paper-data="{&quot;origPos&quot;:null}" fill="#582600"/><path d="M259.5953,204.41023l24.53798,-4.40343" fill="none"/><path d="M258.77447,201.18045l24.49603,-4.63713" data-paper-data="{&quot;origPos&quot;:null}" fill="none"/></g><path d="M258.61402,200.30176l-2.99159,-38.64797l15.55991,-2.8411l1.38095,0.44775l10.84762,36.56362z" fill="#ffcb66" stroke="#000000" stroke-width="1" stroke-linecap="round"/><path d="M259.04831,204.42739l-0.41935,-2.29307l25.08483,-4.58732l0.41935,2.29307z" fill="#ffffff" stroke="none" stroke-width="0" stroke-linecap="butt"/></g><path d="M145.36673,290.7766v-221.55318h189.26654v221.55319z" fill="none" stroke="none" stroke-width="NaN" stroke-linecap="butt"/><g data-paper-data="{&quot;origRot&quot;:0}" stroke="#000000" stroke-linecap="round"><path d="M242.43208,218.6415c0,0 -0.80389,-4.63127 0.82234,-4.82422c4.7988,-0.56933 9.19646,-2.75997 13.90573,-1.73847c1.95554,0.42418 3.32122,4.42127 3.32122,4.42127l9.44206,31.15662c0,0 1.02058,3.20545 1.53635,5.06619c0.55146,1.98945 -0.08243,5.16971 -2.27737,5.54684c-8.05913,1.38477 -12.80208,3.6126 -18.06149,3.29558c-1.91609,-0.1155 -3.94133,-0.35373 -4.9416,-1.86077c-1.30665,-1.96858 -1.255,-6.34658 -1.255,-6.34658z" data-paper-data="{&quot;origPos&quot;:null}" fill="#ff0000" stroke-width="3"/><path d="M272.0229,255.95689c0,0 -5.80589,3.42395 -11.14685,4.18712c-4.09777,0.58552 -13.14034,0.86534 -13.14034,0.86534c0,0 -1.84577,-2.31416 -2.20036,-3.84551c-0.37355,-1.61318 0.33456,-4.21195 0.33456,-4.21195l24.34364,-4.2668z" data-paper-data="{&quot;origPos&quot;:null}" fill="#976e57" stroke-width="2"/><path d="M242.56988,218.939c0,0 -0.80389,-4.63127 0.82236,-4.82421c4.79879,-0.56933 9.19646,-2.75997 13.90576,-1.73845c1.95554,0.42418 3.32121,4.42126 3.32121,4.42126l9.44206,31.15662c0,0 1.0206,3.20546 1.53638,5.06619c0.55146,1.98945 -0.08244,5.1697 -2.27737,5.54684c-8.05913,1.38477 -12.80208,3.61261 -18.06149,3.29559c-1.91609,-0.1155 -3.94133,-0.35375 -4.94159,-1.86077c-1.30665,-1.96858 -1.25501,-6.34658 -1.25501,-6.34658z" data-paper-data="{&quot;origPos&quot;:null}" fill="#474747" stroke-width="3"/></g><g data-paper-data="{&quot;index&quot;:null,&quot;origRot&quot;:0}" stroke="#000000" stroke-linecap="round"><path d="M239.48057,253.01459c0,0 0.26586,4.37144 -0.94309,6.39209c-0.9255,1.54691 -2.93703,1.86868 -4.84552,2.06336c-5.23855,0.53434 -10.08575,-1.49501 -18.20449,-2.54488c-2.21118,-0.28594 -3.0001,-3.43675 -2.54658,-5.447c0.42418,-1.88018 1.28682,-5.12462 1.28682,-5.12462l7.90745,-31.51575c0,0 1.16864,-4.04955 3.10142,-4.5542c4.65451,-1.21533 9.15494,0.7911 13.97673,1.1613c1.63403,0.12546 1.05766,4.78529 1.05766,4.78529z" data-paper-data="{&quot;origPos&quot;:null}" fill="#ff0000" stroke-width="3"/><path d="M213.98829,249.39297l24.5278,3.25515c0,0 0.83461,2.56684 0.5404,4.19384c-0.27927,1.54447 -2.00991,3.93266 -2.00991,3.93266c0,0 -9.04711,0.09463 -13.16937,-0.32073c-5.37289,-0.5414 -11.34049,-3.72162 -11.34049,-3.72162z" data-paper-data="{&quot;origPos&quot;:null}" fill="#976e57" stroke-width="2.5"/><path d="M239.35747,253.31752c0,0 0.26586,4.37144 -0.94309,6.39209c-0.9255,1.54691 -2.93703,1.86869 -4.84552,2.06337c-5.23855,0.53434 -10.08574,-1.495 -18.20449,-2.54488c-2.21118,-0.28594 -3.0001,-3.43675 -2.54658,-5.44699c0.42418,-1.88018 1.28682,-5.12462 1.28682,-5.12462l7.90745,-31.51575c0,0 1.16863,-4.04955 3.10142,-4.5542c4.65451,-1.21533 9.15496,0.7911 13.97674,1.1613c1.63403,0.12546 1.05765,4.78529 1.05765,4.78529c0,0 -0.19986,8.79551 -0.32778,14.42511c-0.18055,7.94549 -0.46264,20.35932 -0.46264,20.35932z" data-paper-data="{&quot;origPos&quot;:null}" fill="#474747" stroke-width="1.5"/></g><g><g><path d="M221.20141,171.66504c0,0 2.06246,-14.07675 4.35485,-14.61195c6.87713,-1.60563 22.59919,-0.69652 33.10739,-0.69652c1.62446,0 3.02726,13.22097 3.02726,13.22097l1.89202,29.92114c0,0 0.2585,14.61265 -1.51362,14.61265c-15.77513,0 -34.26464,0.83294 -41.29596,0.01142c-2.34376,-0.27383 -1.46397,-15.66782 -1.46397,-15.66782z" data-paper-data="{&quot;origPos&quot;:null}" fill="#ffcb66" stroke="#000000" stroke-width="3.5" stroke-linecap="round"/><path d="M241.22437,179.67456c-1.37242,0 -1.37242,-2.43007 -1.37242,-2.43007c0,-5.04016 0,-11.70035 0,-16.7405c0,0 0,-2.43007 1.37242,-2.43007c1.37242,0 1.37242,2.43007 1.37242,2.43007c0,5.04016 0,10.0803 0,15.12046v1.62005c0,0 0,2.43007 -1.37242,2.43007z" fill="#ffffff" stroke="none" stroke-width="0.5" stroke-linecap="butt"/><path d="M253.97455,185.8617c-1.37242,0 -1.37242,-3.05286 -1.37242,-3.05286c0,-6.33185 0,-14.69894 0,-21.03079c0,0 0,-3.05286 1.37242,-3.05286c1.37242,0 1.37242,3.05286 1.37242,3.05286c0,6.33185 0,12.6637 0,18.99557v2.03524c0,0 0,3.05286 -1.37242,3.05286z" fill="#ffffff" stroke="none" stroke-width="0.5" stroke-linecap="butt"/></g><g stroke="#000000" stroke-width="0.5" stroke-linecap="butt"><path d="M256.97951,195.55771c0,6.60172 -4.9035,11.95349 -10.95227,11.95349c-6.04877,0 -10.95227,-5.35176 -10.95227,-11.95349c0,-6.60172 4.9035,-11.95349 10.95227,-11.95349c6.04877,0 10.95227,5.35176 10.95227,11.95349z" fill="#ffa924"/><path d="M249.27904,184.53052c0.00045,0.01095 0.00068,0.02212 0.00068,0.0335c0,0.6103 -0.66377,0.6103 -0.66377,0.6103h-0.13275c-0.48499,0 -2.69585,0.02726 -3.02722,-0.10493c-0.27663,-0.11035 -0.21646,-0.53055 -0.4155,-0.73882c-0.19122,-0.20008 -0.46329,-0.3238 -0.71927,-0.44851c-0.40706,-0.19832 -0.963,-0.19514 -1.26247,-0.51699c-0.27664,-0.29732 -0.30952,-0.75398 -0.28347,-1.14452c0.12236,-1.83414 1.34646,-1.85291 2.92769,-1.68753c0.47692,0.09659 0.96906,0.14347 1.43077,0.28975c0.20312,0.06435 0.32434,0.2873 0.53347,0.33255c0.14865,0.03217 0.28849,-0.09554 0.43842,-0.12225c0.0064,-0.00114 1.8584,-0.24435 1.87676,-0.24675c1.25207,-0.16344 2.59107,-0.21113 3.85466,-0.12687c0.80516,0.05369 2.62443,0.23708 3.0888,0.97887c0.66131,1.05641 -1.26078,1.77122 -1.74187,1.95205c-1.42372,0.53513 -2.63895,0.20249 -4.08894,0.35779c-0.49392,0.0529 -1.28775,0.37136 -1.81598,0.58237z" fill="#1cc735"/></g></g><path d="M259.91297,160.25814c-12.0682,-0.67505 -23.769,-1.36572 -28.48306,-2.68354c-4.30833,-1.2044 -5.44275,-4.04609 -5.44275,-4.04609c0,0 -1.59226,-2.54473 -1.57699,-4.07967c0.04582,-4.6048 0.79258,-17.73394 2.48393,-28.98446c0.05644,-0.37548 0.10177,-0.58447 0.18049,-0.95592c0.23613,-1.11436 1.34228,-5.42726 1.34228,-5.42726c0,0 3.29252,-1.44492 5.05277,-1.80272c5.28074,-1.07341 18.36614,1.28788 32.22238,2.62516c1.25589,0.12121 3.3016,1.94203 3.3016,1.94203c0,0 1.32967,3.23282 1.14991,5.20818c-1.16214,12.77106 -2.49497,26.89708 -3.01134,30.11255c-0.17212,1.07183 -2.28349,5.13041 -2.28349,5.13041z" fill="#582600" stroke="#000000" stroke-width="2.5" stroke-linecap="round"/><path d="M262.03307,139.89644c0.31219,-3.43078 0.97731,-6.1745 1.48557,-6.12824c0.50826,0.04624 0.66721,2.86495 0.35503,6.29572c-0.31219,3.43078 -0.97731,6.17451 -1.48557,6.12825c-0.50826,-0.04624 -0.66721,-2.86496 -0.35503,-6.29574z" fill="none" stroke="#000000" stroke-width="2.5" stroke-linecap="butt"/><path d="M255.49271,140.00164c0.31797,-3.49433 0.88478,-6.29892 1.26596,-6.26422c0.38119,0.03469 0.43246,2.89553 0.11448,6.38984c-0.31797,3.49433 -0.88476,6.2989 -1.26595,6.26422c-0.38119,-0.03469 -0.43246,-2.89551 -0.11449,-6.38983z" fill="none" stroke="#000000" stroke-width="2.5" stroke-linecap="butt"/><path d="M227.22152,113.54459l1.21614,-12.94299l43.60792,4.09745l-1.21614,12.94299z" fill="#000000" stroke="none" stroke-width="0" stroke-linecap="butt"/><path d="M259.73858,132.61625c-1.95872,1.07589 -7.59928,3.69337 -8.97969,1.56638c-1.84993,-2.85046 6.36123,-7.07646 7.75787,-6.66963c0.26105,-0.0628 0.53674,-0.0843 0.819,-0.05778c1.37466,0.12917 2.38433,1.34825 2.25516,2.72291c0.47931,0.69548 -1.31287,2.1418 -1.85234,2.43812z" fill="#582600" stroke="none" stroke-width="0.5" stroke-linecap="butt"/><g data-paper-data="{&quot;index&quot;:null}"><g data-paper-data="{&quot;origRot&quot;:0,&quot;index&quot;:null}" stroke="#000000" stroke-width="3" stroke-linecap="round"><path d="M225.95795,210.1708c0,0 -25.19106,-1.80717 -25.20687,-4.36259c-0.02853,-4.60758 2.8263,-14.86395 2.8263,-14.86395l8.55584,-28.85843c0,0 1.70706,-5.45404 2.83615,-5.68761c3.38724,-0.70071 9.55074,1.4989 16.10969,2.43567c1.09021,0.15572 0.81033,6.07362 0.81033,6.07362c0,0 -0.85125,9.2916 -1.39607,15.2387c-0.82972,9.05684 -2.12605,23.20702 -2.12605,23.20702c0,0 -0.42598,7.26246 -2.40933,6.8176z" data-paper-data="{&quot;origPos&quot;:null}" fill="#582600"/><path d="M227.24071,202.90983l-24.53798,-4.40343" fill="none"/><path d="M228.06154,199.68005l-24.49603,-4.63713" data-paper-data="{&quot;origPos&quot;:null}" fill="none"/></g><path d="M203.4251,194.32366l10.84762,-36.56362l1.38095,-0.44775l15.55991,2.8411l-2.99159,38.64797z" fill="#ffcb66" stroke="#000000" stroke-width="1" stroke-linecap="round"/><path d="M202.70287,198.33967l0.41935,-2.29307l25.08483,4.58732l-0.41935,2.29307z" fill="#ffffff" stroke="none" stroke-width="0" stroke-linecap="butt"/></g><path d="M232.99486,150.89511c-0.5625,-0.49608 -0.06641,-1.05857 -0.06641,-1.05857l0.46605,-0.46247c1.82133,-0.99876 3.23151,-1.28867 5.30918,-1.03032c0,0 0.74406,0.09419 0.64987,0.83825c-0.09419,0.74406 -0.83825,0.64988 -0.83825,0.64988c-1.76272,-0.22761 -2.85619,-0.00449 -4.3948,0.85479l-0.06707,0.14204c0,0 -0.49609,0.56249 -1.05858,0.06641z" fill="#000000" stroke="none" stroke-width="0.5" stroke-linecap="butt"/></g></g></svg>