<svg version="1.1" xmlns="http://www.w3.org/2000/svg" xmlns:xlink="http://www.w3.org/1999/xlink" width="210" height="221" viewBox="0,0,210,221"><g transform="translate(-140,-90)"><g data-paper-data="{&quot;isPaintingLayer&quot;:true}" fill-rule="nonzero" stroke-linejoin="miter" stroke-miterlimit="10" stroke-dasharray="" stroke-dashoffset="0" style="mix-blend-mode: normal"><path d="M140,311v-221h210v221z" fill="none" stroke="none" stroke-width="0" stroke-linecap="butt"/><g data-paper-data="{&quot;index&quot;:null}" stroke="#000000" stroke-linecap="round"><path d="M259.15763,195.60156c0,0 16.94754,-1.59725 16.92838,5.02736c-0.05197,17.98052 -29.52623,12.06568 -29.52623,12.06568z" data-paper-data="{&quot;origPos&quot;:null}" fill="#66c8ff" stroke-width="2"/><path d="M258.37028,197.10979c0,0 12.30081,-0.56333 12.99155,1.38252c0.21784,0.61371 -16.40348,2.51368 -16.40348,2.51368z" data-paper-data="{&quot;origPos&quot;:null}" fill="#0a0a0a" stroke-width="1"/></g><g><path d="M263.2819,243.12269c0,0 1.76322,15.68889 -0.52049,16.08942c-6.85111,1.20166 -25.04181,1.30214 -40.52043,2.11425c-1.73882,0.09123 -2.33945,-14.85764 -2.33945,-14.85764l0.10726,-30.67976c0,0 0.60352,-13.58536 2.19745,-13.66898c10.31068,-0.54096 25.68409,-2.27954 32.52583,-0.99246c2.28058,0.42903 5.12721,14.71067 5.12721,14.71067z" data-paper-data="{&quot;origPos&quot;:null}" fill="#66c8ff" stroke="#000000" stroke-width="3.5" stroke-linecap="round"/><path d="M228.95134,225.33709c-1.34662,0.07065 -1.48869,-2.41312 -1.48869,-2.41312c-0.29465,-5.15154 -0.68402,-11.95891 -0.97866,-17.11045c0,0 -0.14205,-2.48378 1.20456,-2.55443c1.34662,-0.07065 1.48868,2.41312 1.48868,2.41312c0.29465,5.15154 0.5893,10.30306 0.88395,15.4546l0.09471,1.65585c0,0 0.14206,2.48378 -1.20455,2.55443z" fill="#ffffff" stroke="none" stroke-width="0.5" stroke-linecap="butt"/><path d="M241.82358,231.00456c-1.34662,0.07065 -1.5251,-3.04967 -1.5251,-3.04967c-0.37017,-6.47178 -0.85931,-15.02376 -1.22948,-21.49555c0,0 -0.17846,-3.12032 1.16815,-3.19097c1.34662,-0.07065 1.52509,3.04967 1.52509,3.04967c0.37017,6.47178 0.74032,12.94355 1.11049,19.41534l0.11899,2.08021c0,0 0.17847,3.12032 -1.16814,3.19097z" fill="#ffffff" stroke="none" stroke-width="0.5" stroke-linecap="butt"/></g><g fill="none" stroke="#b9b9b9" stroke-width="3"><path d="M252.3262,206.21998c-0.86403,-1.35809 0.08968,-2.57767 1.36657,-3.7957c1.2769,-1.21801 2.55845,-1.58994 3.2575,-0.61516c1.48216,2.06682 -0.07286,3.04234 -1.07272,3.99608c-1.27691,1.21803 -2.33113,2.33277 -3.55136,0.41479z" stroke-linecap="butt"/><path d="M250.64967,208.14868l2.70421,-2.51944" stroke-linecap="round"/><path d="M246.94674,208.77801c1.2769,-1.21801 2.55845,-1.58994 3.2575,-0.61516c1.48216,2.06682 -0.07286,3.04234 -1.07272,3.99608c-1.2769,1.21802 -2.33112,2.33277 -3.55134,0.41479c-0.86403,-1.35809 0.08967,-2.57767 1.36656,-3.79571z" stroke-linecap="butt"/><path d="M246.60784,211.98296l-2.70421,2.51946" stroke-linecap="round"/><path d="M238.03337,214.05014c0.41833,-1.63508 1.81539,-1.48046 3.40224,-1.02164c1.58685,0.45883 2.59794,1.43557 2.34425,2.68318c-0.53788,2.64527 -2.12317,1.77826 -3.36571,1.41899c-1.58685,-0.45882 -2.97158,-0.77137 -2.38077,-3.08052z" stroke-linecap="butt"/><path d="M235.72462,213.6477l3.31953,1.00816" stroke-linecap="round"/><path d="M230.51609,209.67439c0.93239,-1.31672 2.159,-0.52961 3.45708,0.62589c1.2981,1.1555 1.89518,2.52367 1.24372,3.55857c-1.38129,2.19428 -2.54075,0.66261 -3.55721,-0.24218c-1.29809,-1.15551 -2.46034,-2.08274 -1.14359,-3.94227z" stroke-linecap="butt"/><path d="M228.53836,208.23799l2.69922,2.46183" stroke-linecap="round"/><path d="M223.72553,203.54975c0.93239,-1.3167 2.15901,-0.52961 3.45708,0.62589c1.2981,1.1555 1.89518,2.52367 1.24372,3.55857c-1.38129,2.19427 -2.54075,0.66261 -3.5572,-0.24218c-1.29809,-1.1555 -2.46034,-2.08273 -1.14359,-3.94227z" stroke-linecap="butt"/><path d="M224.44705,204.57519l-2.69924,-2.46183" stroke-linecap="round"/></g><g><g data-paper-data="{&quot;index&quot;:null}"><g stroke="#000000" stroke-width="3" stroke-linecap="round"><path d="M277.27808,237.5408c0,0 3.04859,10.33691 2.59782,14.92429c-16.35313,6.39279 -26.41533,3.78911 -26.41533,3.78911c-2.08084,0.39971 -2.35334,-6.87055 -2.35334,-6.87055c0,0 -1.01769,-14.17598 -1.66909,-23.24931c-0.42773,-5.95792 -1.096,-15.26645 -1.096,-15.26645c0,0 -0.15187,-5.92273 0.98985,-6.05365c6.86869,-0.78762 13.35453,-2.84668 16.87367,-2.06925c1.17304,0.25914 2.82564,5.75054 2.82564,5.75054l8.24676,29.04526z" data-paper-data="{&quot;origPos&quot;:null}" fill="#582700"/><path d="M278.00758,243.25614l-26.46576,4.00908l-0.54011,-3.36246l26.46575,-4.26772z" data-paper-data="{&quot;origPos&quot;:null}" fill="none"/></g><path d="M250.70541,243.48299l-1.80946,-36.8268l1.20631,-0.86652l16.28519,-2.59955l10.25364,36.10471z" fill="#66c8ff" stroke="#000000" stroke-width="1" stroke-linecap="round"/><path d="M251.43246,246.8309l-0.38318,-2.30203l26.29359,-4.01465l0.38318,2.30203z" fill="#ffffff" stroke="none" stroke-width="0" stroke-linecap="butt"/></g><g fill="#fffc96" stroke="#000000" stroke-width="2" stroke-linecap="round"><path d="M275.33665,232.91755c0,0 4.55112,0.46489 4.49221,3.4086c-0.09426,4.70982 -34.07599,-0.83964 -34.28689,-5.75378c-0.08617,-2.0078 3.22095,-2.18542 3.22095,-2.18542l0.31203,1.84764c0,0 6.13738,2.38292 14.03386,3.84639c7.78707,1.44319 13.09093,1.03867 13.09093,1.03867z"/><path d="M273.0091,224.59337c0,0 3.13349,-2.34415 4.13326,-0.2286c2.09866,4.44084 -28.34518,23.94366 -29.29073,19.39864c-0.57264,-2.75257 2.86532,-3.87382 2.86532,-3.87382l0.27121,1.35222c0,0 5.11208,-2.09478 11.91638,-6.62048c6.80431,-4.52569 10.51931,-8.78464 10.51931,-8.78464z" data-paper-data="{&quot;index&quot;:null}"/></g></g><path d="M278.85937,253.91771c0,0 4.55503,-1.02642 6.8887,-0.26656c1.78652,0.58168 2.46974,2.38846 3.00155,4.12242c1.45969,4.7595 0.15428,9.61376 0.44007,17.32516c0.07783,2.10025 -3.10298,3.39358 -5.2963,3.33199c-2.05139,-0.05762 -5.61368,-0.27815 -5.61368,-0.27815l-34.52225,-1.70473c0,0 -4.46197,-0.36046 -5.32418,-2.06162c-2.07632,-4.09672 -0.73564,-8.62555 -1.17198,-13.16021c-0.14788,-1.53674 4.85494,-1.83404 4.85494,-1.83404c0,0 9.29078,-1.38422 15.23738,-2.27018c8.3929,-1.25044 21.50576,-3.20407 21.50576,-3.20407z" data-paper-data="{&quot;index&quot;:null}" fill="#4b4b4b" stroke="#000000" stroke-width="3" stroke-linecap="round"/><path d="M238.3739,265.47173c0,0 2.12827,3.99136 1.91503,6.34323c-0.16321,1.80045 -1.832,2.86727 -3.46311,3.77589c-4.47719,2.49399 -9.71065,2.43889 -17.46108,4.54589c-2.11088,0.57384 -4.18166,-2.07569 -4.6429,-4.1303c-0.43137,-1.92166 -1.05832,-5.28744 -1.05832,-5.28744l-6.51417,-32.51463c0,0 -0.69988,-4.23595 0.81908,-5.44402c3.65796,-2.90924 8.56989,-2.74364 13.06345,-4.23217c1.52281,-0.50445 3.01873,4.07747 3.01873,4.07747c0,0 3.62176,8.31044 5.93988,13.62958c3.27174,7.50731 8.3834,19.23654 8.3834,19.23654z" data-paper-data="{&quot;index&quot;:null}" fill="#4b4b4b" stroke="#000000" stroke-width="3" stroke-linecap="round"/><path d="M217.55739,201.41177c0,0 -2.08464,-4.11626 -2.23287,-5.1925c-0.44469,-3.22871 -1.42163,-17.38656 -2.26016,-30.18522c-0.12971,-1.97964 1.35284,-5.17384 1.35284,-5.17384c0,0 2.18847,-1.76266 3.5028,-1.84856c14.5009,-0.9477 28.22731,-2.94066 33.70733,-1.71941c1.82668,0.40708 5.22071,1.94388 5.22071,1.94388c0,0 1.02803,4.34225 1.24183,5.46281c0.07126,0.37352 0.11244,0.58369 0.16035,0.96061c1.43543,11.29358 1.82996,24.43853 1.74276,29.04278c-0.02906,1.53476 -1.76549,4.03378 -1.76549,4.03378c0,0 -1.26731,2.8087 -5.79919,3.89168c-4.95868,1.18495 -17.19098,1.54681 -29.80632,1.88275z" fill="#582700" stroke="#000000" stroke-width="2.5" stroke-linecap="round"/><g data-paper-data="{&quot;index&quot;:null}"><g data-paper-data="{&quot;origRot&quot;:0}" stroke="#000000" stroke-width="3" stroke-linecap="round"><path d="M255.87467,257.65044c-0.35219,2.4295 -9.7353,-0.46828 -9.7353,-0.46828c0,0 -25.03703,-7.03893 -36.8762,-10.31816c-4.77005,-2.04062 -0.36838,-40.84083 4.60127,-44.38931c2.21529,-1.58179 13.28685,-2.1662 14.71768,-0.54505c2.72352,3.08572 5.86439,19.87147 5.86439,19.87147l-4.65839,-0.47606l12.08995,2.30781c0,0 14.2907,1.56714 20.10587,3.74044c3.22515,1.20533 -6.10926,30.27715 -6.10926,30.27715z" data-paper-data="{&quot;origPos&quot;:null}" fill="#582700"/><path d="M245.0286,255.22853l5.74903,-29.54648" fill="none"/><path d="M245.99853,225.03935l-5.4341,29.60808" data-paper-data="{&quot;origPos&quot;:null}" fill="none"/></g><path d="M244.71346,255.80286l-3.09559,-0.58754l5.6685,-30.26395l3.0956,0.58754z" fill="#ffffff" stroke="none" stroke-width="0" stroke-linecap="butt"/><path d="M208.9153,246.95666l-1.73946,-11.11599l3.21111,-23.83658l3.22907,-7.90008l4.59158,-2.90627l8.32755,1.15096l1.66551,0.23019l5.41689,17.94729l-3.36159,-0.21169l-0.24446,1.98958l14.62034,2.77945l-4.53022,29.97728l-29.49027,-8.12262z" fill="#66c8ff" stroke="#000000" stroke-width="0.5" stroke-linecap="round"/></g><path d="M259.31223,159.68694l-0.7787,-0.47675c-0.09521,-0.02486 -0.19033,-0.04922 -0.2854,-0.07311c-0.2098,0.32475 -0.63432,0.71418 -1.41648,0.51799c-0.7209,-0.18082 -0.92238,-0.65263 -0.96256,-1.02419c-2.78254,-0.49012 -5.54507,-0.63897 -8.43975,-0.70989c-8.08816,0.0666 -16.15424,0.73406 -24.2245,1.24188c-2.64668,0.16654 -8.50071,1.5591 -10.8266,0.01493c-1.13433,-0.75308 -0.84475,-2.70585 -1.02148,-3.75012c-0.5121,-3.02606 -1.11302,-6.15463 -1.33498,-9.21492c-0.26219,-4.00186 -2.06924,-7.47673 -2.86412,-11.36801c-0.39849,-1.95083 -1.22947,-3.88496 0.49251,-5.70052c0.4862,-0.51263 1.41634,-0.28974 2.13448,-0.37077c2.62456,-0.2961 5.18492,-0.28321 7.80991,-0.14946c8.31857,0.42386 16.51558,0.43177 24.81088,1.34342c3.34656,0.37158 6.68489,0.23146 10.05164,0.12986c1.97871,-0.05971 3.74312,-0.71215 5.07115,1.37521c0.79307,1.24653 0.54431,5.27476 0.58887,6.75716c0.17181,5.7161 1.5868,12.65844 0.72685,18.47304c0.12469,0.03093 0.24949,0.06261 0.3744,0.09506l1.3963,0.7226c0,0 1.13106,0.6237 0.47986,1.70698c-0.65121,1.08328 -1.78227,0.45959 -1.78227,0.45959z" data-paper-data="{&quot;index&quot;:null}" fill="#000000" stroke="none" stroke-width="0.5" stroke-linecap="butt"/><path d="M233.49653,173.86322c0.70726,1.05055 -0.38962,1.72793 -0.38962,1.72793l-0.73033,0.43017c-1.17167,1.02177 -1.82668,1.49765 -2.7193,1.75295l0.09953,0.20635l-1.29304,0.57213c-0.14858,0.06981 -0.31358,0.11353 -0.48896,0.12457c-0.71925,0.04526 -1.34063,-0.47649 -1.38789,-1.16536c-0.02731,-0.3982 0.14319,-0.76508 0.43086,-1.01253l0.97819,-0.85605l0.02372,0.02486l0.0372,-0.07498c0.85676,-0.58416 1.7196,-1.16034 2.59131,-1.72387c0,0 0.36321,-0.23478 0.81077,-0.23068l0.23341,-0.14867c0,0 1.09689,-0.67738 1.80415,0.37316z" fill="#582700" stroke="none" stroke-width="0.5" stroke-linecap="butt"/><path d="M239.68001,173.3883l0.2517,0.11814c0.44314,-0.06013 0.83531,0.12711 0.83531,0.12711c0.94119,0.44946 1.87532,0.91256 2.80453,1.38435l0.04712,0.06967l0.02012,-0.02762l1.08673,0.72612c0.31901,0.20928 0.53815,0.55164 0.56547,0.94984c0.04726,0.68887 -0.49751,1.284 -1.21676,1.32926c-0.17539,0.01104 -0.34493,-0.01165 -0.50177,-0.06223l-1.36009,-0.40518l0.0705,-0.21704c-0.91983,-0.14126 -1.63423,-0.53096 -2.93538,-1.39714l-0.78283,-0.33496c0,0 -1.17999,-0.53412 -0.62232,-1.66426c0.55768,-1.13014 1.73767,-0.59603 1.73767,-0.59603z" data-paper-data="{&quot;index&quot;:null}" fill="#582700" stroke="none" stroke-width="0.5" stroke-linecap="butt"/><path d="M222.5,187.77083c0,-1.36099 1.1033,-2.46429 2.46429,-2.46429c1.36099,0 2.46429,1.1033 2.46429,2.46429c0,1.36099 -1.1033,2.46429 -2.46429,2.46429c-1.36099,0 -2.46429,-1.1033 -2.46429,-2.46429z" fill="#000000" stroke="none" stroke-width="0.5" stroke-linecap="butt"/><path d="M237.78572,187.34226c0,-1.36098 1.1033,-2.46429 2.46428,-2.46429c1.36098,0 2.46429,1.1033 2.46429,2.46429c0,1.36098 -1.1033,2.46428 -2.46429,2.46428c-1.36098,0 -2.46428,-1.1033 -2.46428,-2.46428z" fill="#000000" stroke="none" stroke-width="0.5" stroke-linecap="butt"/><path d="M254.55887,194.52263c0.17678,1.23744 -1.06066,1.41421 -1.06066,1.41421l-1.08772,0.15224c-1.71531,0.12161 -3.38725,0.37697 -5.09388,0.56696c0,0 -1.24235,0.13804 -1.38039,-1.10432c-0.13804,-1.24235 1.10432,-1.38039 1.10432,-1.38039c1.7395,-0.19289 3.44336,-0.45012 5.19184,-0.5759l0.91228,-0.13347c0,0 1.23744,-0.17678 1.41421,1.06066z" fill="#000000" stroke="none" stroke-width="0.5" stroke-linecap="butt"/></g></g></svg>