<svg version="1.1" xmlns="http://www.w3.org/2000/svg" xmlns:xlink="http://www.w3.org/1999/xlink" width="210" height="221" viewBox="0,0,210,221"><g transform="translate(-140,-90)"><g data-paper-data="{&quot;isPaintingLayer&quot;:true}" fill-rule="nonzero" stroke-linejoin="miter" stroke-miterlimit="10" stroke-dasharray="" stroke-dashoffset="0" style="mix-blend-mode: normal"><path d="M140,311v-221h210v221z" fill="none" stroke="none" stroke-width="0" stroke-linecap="butt"/><g data-paper-data="{&quot;index&quot;:null}" stroke="#000000" stroke-linecap="round"><path d="M261.91606,196.90878c0,0 16.77942,-2.09252 16.98256,4.44018c0.55139,17.73105 -28.92202,12.79893 -28.92202,12.79893z" data-paper-data="{&quot;origPos&quot;:null}" fill="#7c7c7c" stroke-width="2"/><path d="M261.18462,198.42c0,0 12.19878,-0.93113 12.9501,0.96646c0.23696,0.59849 -16.20831,2.97954 -16.20831,2.97954z" data-paper-data="{&quot;origPos&quot;:null}" fill="#0a0a0a" stroke-width="1"/></g><g><path d="M264.75038,244.46594c0,0 0.85917,15.54587 -1.42962,15.8224c-6.86637,0.82964 -24.9222,-0.01153 -40.32731,-0.01153c-1.73056,0 -1.47812,-14.75682 -1.47812,-14.75682l1.84765,-30.21634c0,0 1.36988,-13.35141 2.95625,-13.35141c10.26171,0 25.61499,-0.91808 32.33081,0.70339c2.23861,0.54049 4.25269,14.75612 4.25269,14.75612z" data-paper-data="{&quot;origPos&quot;:null}" fill="#7c7c7c" stroke="#000000" stroke-width="3.5" stroke-linecap="round"/><path d="M231.69453,225.17146c-1.34022,0 -1.34023,-2.45405 -1.34023,-2.45405c0,-5.08988 0,-11.81578 0,-16.90567c0,0 0.00001,-2.45405 1.34023,-2.45405c1.34022,0 1.34022,2.45405 1.34022,2.45405c0,5.08988 0,10.17975 0,15.26964v1.63603c0,0 0,2.45405 -1.34022,2.45405z" fill="#ffffff" stroke="none" stroke-width="0.5" stroke-linecap="butt"/><path d="M244.14564,231.41963c-1.34022,0 -1.34023,-3.08298 -1.34023,-3.08298c0,-6.39432 0,-14.84396 0,-21.23829c0,0 0.00001,-3.08298 1.34023,-3.08298c1.34022,0 1.34022,3.08298 1.34022,3.08298c0,6.39432 0,12.78864 0,19.18297v2.05531c0,0 0,3.08298 -1.34022,3.08298z" fill="#ffffff" stroke="none" stroke-width="0.5" stroke-linecap="butt"/></g><g fill="none" stroke="#b9b9b9" stroke-width="3"><path d="M254.59546,207.41234c-0.85864,-1.33983 0.08912,-2.54301 1.35804,-3.74466c1.26893,-1.20163 2.54249,-1.56856 3.23718,-0.60689c1.47291,2.03903 -0.0724,3.00143 -1.06602,3.94234c-1.26894,1.20165 -2.31658,2.3014 -3.5292,0.40921z" stroke-linecap="butt"/><path d="M255.61673,206.82954l-2.68733,2.48556" stroke-linecap="round"/><path d="M249.24958,209.93597c1.26893,-1.20163 2.54249,-1.56856 3.23718,-0.60689c1.47291,2.03903 -0.0724,3.00143 -1.06602,3.94234c-1.26893,1.20164 -2.31657,2.3014 -3.52919,0.40921c-0.85864,-1.33983 0.08911,-2.54301 1.35803,-3.74467z" stroke-linecap="butt"/><path d="M248.91279,213.09782l-2.68733,2.48558" stroke-linecap="round"/><path d="M240.39182,215.13721c0.41572,-1.61309 1.80406,-1.46055 3.38101,-1.0079c1.57694,0.45266 2.58173,1.41627 2.32962,2.6471c-0.53453,2.6097 -2.10992,1.75435 -3.34471,1.39991c-1.57694,-0.45265 -2.95304,-0.761 -2.36592,-3.0391z" stroke-linecap="butt"/><path d="M241.3963,215.73478l-3.29882,-0.9946" stroke-linecap="round"/><path d="M232.92145,210.8203c0.92657,-1.29901 2.14552,-0.52249 3.43551,0.61747c1.29,1.13996 1.88336,2.48973 1.23596,3.51072c-1.37267,2.16477 -2.5249,0.6537 -3.53502,-0.23892c-1.28999,-1.13997 -2.44498,-2.05473 -1.13645,-3.88926z" stroke-linecap="butt"/><path d="M230.95606,209.40321l2.68237,2.42873" stroke-linecap="round"/><path d="M226.17326,204.77802c0.92657,-1.29899 2.14553,-0.52249 3.43551,0.61747c1.29,1.13996 1.88336,2.48973 1.23596,3.51072c-1.37267,2.16476 -2.5249,0.6537 -3.53501,-0.23892c-1.28999,-1.13996 -2.44498,-2.05472 -1.13645,-3.88926z" stroke-linecap="butt"/><path d="M224.20788,203.36094l2.6824,2.42873" stroke-linecap="round"/></g><g><g data-paper-data="{&quot;index&quot;:null}"><g stroke="#000000" stroke-width="3" stroke-linecap="round"><path d="M279.59918,238.55862c0,0 3.02956,10.19791 2.58161,14.7236c-16.25109,6.30682 -26.25051,3.73816 -26.25051,3.73816c-2.06786,0.39433 -2.33865,-6.77816 -2.33865,-6.77816c0,0 -1.01134,-13.98535 -1.65868,-22.93667c-0.42506,-5.8778 -1.08916,-15.06116 -1.08916,-15.06116c0,0 -0.15092,-5.84309 0.98367,-5.97224c6.82584,-0.77703 13.27121,-2.8084 16.76838,-2.04142c1.16573,0.25566 2.80801,5.67321 2.80801,5.67321l8.1953,28.65468z" data-paper-data="{&quot;origPos&quot;:null}" fill="#582700"/><path d="M280.32412,244.1971l-26.30062,3.95517l-0.53674,-3.31724l26.30061,-4.21033z" data-paper-data="{&quot;origPos&quot;:null}" fill="none"/></g><path d="M253.19231,244.4209l-1.79817,-36.33158l1.19878,-0.85487l16.18357,-2.56459l10.18966,35.6192z" fill="#7c7c7c" stroke="#000000" stroke-width="1" stroke-linecap="round"/><path d="M253.91482,247.72379l-0.38079,-2.27107l26.12952,-3.96066l0.38079,2.27107z" fill="#ffffff" stroke="none" stroke-width="0" stroke-linecap="butt"/></g><g fill="#fffc96" stroke="#000000" stroke-width="2" stroke-linecap="round"><path d="M277.66986,233.99754c0,0 4.52272,0.45864 4.46418,3.36276c-0.09367,4.64649 -33.86336,-0.82835 -34.07295,-5.67641c-0.08563,-1.9808 3.20085,-2.15603 3.20085,-2.15603l0.31008,1.82279c0,0 6.09908,2.35088 13.94629,3.79467c7.73848,1.42378 13.00924,1.0247 13.00924,1.0247z"/><path d="M275.35683,225.7853c0,0 3.11394,-2.31263 4.10747,-0.22553c2.08556,4.38112 -28.16831,23.62168 -29.10796,19.13778c-0.56907,-2.71556 2.84745,-3.82173 2.84745,-3.82173l0.26951,1.33404c0,0 5.08018,-2.06661 11.84203,-6.53145c6.76186,-4.46483 10.45367,-8.66651 10.45367,-8.66651z" data-paper-data="{&quot;index&quot;:null}"/></g></g><path d="M279.92549,254.27135c0,0 4.52661,-1.01262 6.84572,-0.26298c1.77537,0.57386 2.45433,2.35634 2.98282,4.06698c1.45059,4.6955 0.15331,9.48448 0.43732,17.09218c0.07734,2.07201 -3.08362,3.34795 -5.26325,3.28718c-2.03859,-0.05685 -5.57865,-0.27441 -5.57865,-0.27441l-34.30684,-1.68181c0,0 -4.43413,-0.35561 -5.29096,-2.0339c-2.06337,-4.04163 -0.73105,-8.50956 -1.16467,-12.98324c-0.14695,-1.51608 4.82465,-1.80938 4.82465,-1.80938c0,0 9.23281,-1.36561 15.14231,-2.23965c8.34053,-1.23362 21.37157,-3.16098 21.37157,-3.16098z" data-paper-data="{&quot;index&quot;:null}" fill="#171717" stroke="#000000" stroke-width="3" stroke-linecap="round"/><path d="M239.69263,265.67c0,0 2.11499,3.93769 1.90308,6.25793c-0.1622,1.77624 -1.82057,2.82871 -3.4415,3.72511c-4.44925,2.46045 -9.65006,2.40609 -17.35213,4.48476c-2.09771,0.56612 -4.15557,-2.04778 -4.61393,-4.07476c-0.42868,-1.89582 -1.05171,-5.21634 -1.05171,-5.21634l-6.47352,-32.0774c0,0 -0.69551,-4.17899 0.81397,-5.37081c3.63513,-2.87012 8.51642,-2.70675 12.98194,-4.17526c1.51331,-0.49767 2.9999,4.02264 2.9999,4.02264c0,0 3.59916,8.19869 5.90281,13.4463c3.25133,7.40636 8.33109,18.97786 8.33109,18.97786z" data-paper-data="{&quot;index&quot;:null}" fill="#171717" stroke="#000000" stroke-width="3" stroke-linecap="round"/><path d="M220.87812,205.27518c0,0 -2.20898,-3.99493 -2.39241,-5.0516c-0.55027,-3.17 -1.99677,-17.1002 -3.2601,-29.69445c-0.19542,-1.94802 1.16968,-5.14303 1.16968,-5.14303c0,0 2.11439,-1.80507 3.41694,-1.93002c14.37096,-1.3786 27.93754,-3.76414 33.42157,-2.72778c1.82801,0.34545 5.25079,1.75683 5.25079,1.75683c0,0 1.16712,4.25013 1.41716,5.34849c0.08334,0.36612 0.13131,0.57208 0.19157,0.94229c1.80557,11.09188 2.63952,24.04118 2.70777,28.58381c0.02275,1.51421 -1.61788,4.03152 -1.61788,4.03152c0,0 -1.16427,2.80829 -5.62909,4.01494c-4.8853,1.32026 -17.02273,2.05172 -29.54146,2.76936z" fill="#582700" stroke="#000000" stroke-width="2.5" stroke-linecap="round"/><g data-paper-data="{&quot;index&quot;:null}"><g data-paper-data="{&quot;origRot&quot;:0}" stroke="#000000" stroke-width="3" stroke-linecap="round"><path d="M260.90405,257.33617c-0.13183,2.41656 -9.68049,0.33107 -9.68049,0.33107c0,0 -25.41686,-4.8834 -37.43126,-7.14418c-4.90486,-1.61799 -4.01022,-40.11233 0.59338,-44.00407c2.05212,-1.7348 12.96163,-3.20916 14.52298,-1.73205c2.97193,2.81157 7.57994,19.05489 7.57994,19.05489l-4.65466,-0.08925l12.17597,1.28561c0,0 14.28876,0.37872 20.24023,2.04215c3.30074,0.92256 -3.34607,30.25586 -3.34607,30.25586z" data-paper-data="{&quot;origPos&quot;:null}" fill="#582700"/><path d="M253.00407,226.3289l-3.05464,29.50841" fill="none"/><path d="M248.21501,226.08565l-2.73731,29.54336" data-paper-data="{&quot;origPos&quot;:null}" fill="none"/></g><path d="M249.6887,256.42743l-3.11733,-0.32587l2.91085,-30.20706l3.11733,0.32587z" fill="#ffffff" stroke="none" stroke-width="0" stroke-linecap="butt"/><path d="M213.45616,250.6424l-2.71443,-10.78447l1.05157,-23.68987l2.49185,-8.02742l4.28659,-3.2298l8.34765,0.45438l1.66952,0.09088l6.96512,17.19999l-3.34712,0.06518l-0.06444,1.97542l14.72335,1.54349l-1.80945,29.83277l-29.92265,-5.58656z" fill="#7c7c7c" stroke="#000000" stroke-width="0.5" stroke-linecap="round"/></g><path d="M260.94728,162.85422l-0.78947,-0.44625c-0.09541,-0.02159 -0.1907,-0.0427 -0.28593,-0.06334c-0.19746,0.32665 -0.606,0.72364 -1.38947,0.55414c-0.72211,-0.15622 -0.93808,-0.61527 -0.9905,-0.9804c-2.78021,-0.39804 -5.52907,-0.46021 -8.40656,-0.44148c-8.03123,0.31339 -16.02031,1.21858 -24.01892,1.96648c-2.62317,0.24528 -8.39079,1.79769 -10.75289,0.34631c-1.15199,-0.70781 -0.93004,-2.6422 -1.1407,-3.66645c-0.61042,-2.96811 -1.31248,-6.03458 -1.63588,-9.04534c-0.39501,-3.93794 -2.30672,-7.30893 -3.2271,-11.12152c-0.46142,-1.91138 -1.35182,-3.79305 0.29745,-5.63599c0.46567,-0.52036 1.39703,-0.32907 2.10758,-0.43096c2.59685,-0.37234 5.14034,-0.43807 7.75207,-0.38658c8.27658,0.16316 16.41842,-0.08009 24.6883,0.56477c3.33642,0.2639 6.64747,0.02348 9.98803,-0.17982c1.96331,-0.11947 3.69384,-0.81684 5.08312,1.20069c0.82964,1.20483 0.71805,5.18441 0.81215,6.64475c0.36291,5.63101 2.00182,12.43306 1.34323,18.1928c0.1249,0.02668 0.2499,0.05409 0.37507,0.08226l1.41116,0.66975c0,0 1.14438,0.58035 0.53403,1.66845c-0.61037,1.08809 -1.75477,0.50776 -1.75477,0.50776z" data-paper-data="{&quot;index&quot;:null}" fill="#000000" stroke="none" stroke-width="0.5" stroke-linecap="butt"/><path d="M242.91259,179.10014c0.5624,-0.07284 1.43739,2.79406 1.95447,6.40332c0.51706,3.60926 0.48032,6.59422 -0.08207,6.66702c-0.5624,0.07284 -1.43739,-2.79404 -1.95447,-6.4033c-0.51706,-3.60926 -0.48033,-6.59423 0.08205,-6.66704z" data-paper-data="{&quot;index&quot;:null}" fill="none" stroke="#590000" stroke-width="2.5" stroke-linecap="butt"/><path d="M245.43175,176.79887c0,0 1.18996,-0.49052 1.70586,0.64092c0.51589,1.13144 -0.67408,1.62196 -0.67408,1.62196l-0.7888,0.3063c-1.32149,0.81422 -2.04417,1.1766 -2.96252,1.28772l0.06272,0.21617l-1.36451,0.35787c-0.15747,0.04506 -0.32664,0.06223 -0.50047,0.04598c-0.71287,-0.06665 -1.23395,-0.67016 -1.16384,-1.34796c0.04052,-0.3918 0.26972,-0.72267 0.5936,-0.91925l1.1038,-0.68268l0.01906,0.02785l0.04915,-0.06725c0.93879,-0.43672 1.88219,-0.86475 2.83213,-1.27911c0,0 0.39582,-0.17261 0.83393,-0.09975l0.25398,-0.10878z" data-paper-data="{&quot;index&quot;:null}" fill="#582700" stroke="none" stroke-width="0.5" stroke-linecap="butt"/><path d="M252.61228,197.87432c1.02101,1.36235 1.09243,2.91197 0.15953,3.46118c-0.93291,0.5492 -2.51687,-0.10998 -3.53788,-1.47233c-1.02101,-1.36235 -1.09243,-2.91197 -0.15953,-3.46118c0.93291,-0.5492 2.51687,0.10998 3.53788,1.47233z" fill="#ff8080" stroke="#000000" stroke-width="1.25" stroke-linecap="butt"/><path d="M233.07988,181.03487c0.58614,-0.08502 1.58768,2.68006 2.2371,6.1759c0.64942,3.49584 0.70071,6.39871 0.11457,6.48371c-0.58614,0.08502 -1.58768,-2.68004 -2.2371,-6.17588c-0.64942,-3.49584 -0.70072,-6.39872 -0.11459,-6.48372z" data-paper-data="{&quot;index&quot;:null}" fill="none" stroke="#580000" stroke-width="2.5" stroke-linecap="butt"/><path d="M231.07531,178.96553l0.25398,0.10878c0.43811,-0.07286 0.83393,0.09975 0.83393,0.09975c0.94994,0.41436 1.89334,0.84239 2.83213,1.27911l0.04915,0.06725l0.01906,-0.02785l1.1038,0.68268c0.32388,0.19658 0.55308,0.52745 0.5936,0.91925c0.07011,0.6778 -0.45097,1.28131 -1.16384,1.34796c-0.17383,0.01625 -0.343,-0.00092 -0.50047,-0.04598l-1.36451,-0.35787l0.06272,-0.21617c-0.91835,-0.11112 -1.64103,-0.4735 -2.96252,-1.28772l-0.7888,-0.3063c0,0 -1.18997,-0.49052 -0.67408,-1.62196c0.5159,-1.13144 1.70586,-0.64092 1.70586,-0.64092z" data-paper-data="{&quot;index&quot;:null}" fill="#582700" stroke="none" stroke-width="0.5" stroke-linecap="butt"/></g></g></svg>