<svg version="1.1" xmlns="http://www.w3.org/2000/svg" xmlns:xlink="http://www.w3.org/1999/xlink" width="95.86394" height="95.86394" viewBox="0,0,95.86394,95.86394"><g transform="translate(-192.06803,-132.06803)"><g data-paper-data="{&quot;isPaintingLayer&quot;:true}" fill-rule="nonzero" stroke-linejoin="miter" stroke-miterlimit="10" stroke-dasharray="" stroke-dashoffset="0" style="mix-blend-mode: normal"><g><path d="M233.20732,181.04953c0,0 3.43402,-6.95588 5.64707,-6.10018c3.74338,1.44742 4.0608,6.56668 2.44329,9.9615c-2.23344,4.68753 -7.5881,7.69449 -7.5881,7.69449c0,0 -1.64327,0.00604 -2.75493,-0.30985c-0.31716,-0.09012 -1.58122,-0.71256 -2.44125,-1.70452c-1.53877,-1.77482 -2.882,-4.6551 -3.00287,-7.23483c-0.06455,-1.37755 1.79404,-1.68496 2.03321,-1.71015c2.33415,-0.24583 5.66358,-0.59644 5.66358,-0.59644z" fill="#ff292e" stroke="#000000" stroke-width="1" stroke-linecap="round"/><path d="M227.71797,184.94565l4.51449,0.9345l-1.74865,3.63212l0.66372,4.96559l-3.2104,-0.21202l-2.06401,2.71454c0,0 -2.3849,-3.11067 -3.58639,-4.67779c-1.21367,-1.58299 -1.64623,-6.64741 -0.48,-7.73322c1.42661,-1.32821 4.75755,-4.42944 4.75755,-4.42944z" fill="#feecf7" stroke="#000000" stroke-width="1" stroke-linecap="round"/><path d="M215.06997,189.50361c-0.23206,-3.28827 1.8535,-5.36253 4.90075,-5.57759c3.04725,-0.21506 5.52817,1.53694 5.76023,4.82521c0.23206,3.28827 -1.59972,5.40728 -4.64697,5.62234c-3.04725,0.21506 -5.78194,-1.58168 -6.01401,-4.86995z" fill="#f89688" stroke="#000000" stroke-width="1" stroke-linecap="butt"/><path d="M205.72635,186.48426c-0.00243,0.00024 -0.0037,0.00034 -0.0037,0.00034l-0.55471,-0.14588c-0.92369,-0.99796 -0.6032,-2.31853 0.01218,-3.45503c1.68655,-1.60174 5.7116,-6.27414 8.21189,-3.31713c1.18203,1.39796 1.2216,3.4019 1.78224,5.06055c0.51263,6.63913 -5.86333,3.66603 -9.44789,1.85715z" fill="#323344" stroke="#000000" stroke-width="1" stroke-linecap="butt"/><path d="M212.26312,181.37462c-0.66049,-0.27172 -0.45454,-0.99251 -0.45454,-0.99251c0.55217,-1.92737 3.51513,-6.04687 5.87384,-5.12302c2.41896,0.94746 1.22757,3.3901 2.6801,4.85031c0.68432,0.68795 2.53978,0.57336 3.44833,0.83332c0.45184,1.02216 0.65373,1.192 0.70294,2.25719c0.08687,1.88058 -1.28491,3.12218 -3.20293,2.8334c-3.07213,-0.46254 -5.0361,-3.64861 -8.08796,-4.20858l-0.31916,-0.03873c0,0 -0.44358,-0.05661 -0.64061,-0.4114z" fill="#fcdfbd" stroke="none" stroke-width="0.5" stroke-linecap="butt"/><path d="M223.81086,180.94274c0.45184,1.02216 0.65373,1.192 0.70294,2.2572c0.08686,1.88058 -1.28491,3.12217 -3.20293,2.83339c-2.37261,-0.35722 -4.08427,-2.3389 -6.14656,-3.48078c0.75205,-0.17017 1.44213,-0.32295 1.96774,-0.35934c0.57396,-0.03975 1.03932,0.17651 1.48368,0.45407c0.48802,0.58165 1.20691,0.95739 2.00377,0.99453c0.32142,0.03587 0.6767,0.00129 1.08243,-0.14056c0.11415,-0.03992 0.22855,-0.09827 0.34134,-0.17238c0.89134,-0.46593 1.48967,-1.39652 1.49721,-2.44875c0.09693,0.01836 0.18759,0.03894 0.27039,0.06265z" fill="#f89688" stroke="none" stroke-width="0.5" stroke-linecap="butt"/><path d="M212.26312,181.37462c-0.66049,-0.27172 -0.45454,-0.99251 -0.45454,-0.99251c0.55217,-1.92737 3.51513,-6.04686 5.87383,-5.12301c2.41895,0.94746 1.22757,3.39008 2.6801,4.8503c0.68432,0.68794 2.53977,0.57336 3.44834,0.83333c0.45184,1.02216 0.65373,1.192 0.70294,2.2572c0.08686,1.88058 -1.28491,3.12218 -3.20293,2.8334c-3.07212,-0.46254 -5.0361,-3.64861 -8.08796,-4.20858l-0.31916,-0.03875c0,0 -0.44358,-0.05661 -0.64061,-0.41139z" fill="none" stroke="#000000" stroke-width="1" stroke-linecap="butt"/><path d="M212.92289,179.15905c0.03925,0.55613 -0.51689,0.59538 -0.51689,0.59538l-0.08555,0.00604c-3.44876,0.2434 -5.91919,2.77463 -6.05125,6.29283c0,0 -0.00707,0.17589 -0.11211,0.32602l0.07972,0.26771c0,0 -0.35468,0.40854 -0.76768,0.07136c-0.07285,-0.00522 -0.1457,-0.01043 -0.21855,-0.01565c0,0 -0.31462,-0.02251 -0.45361,-0.2703c-0.3114,-0.11513 -0.33751,-0.48512 -0.33751,-0.48512l-0.00662,-0.15483c0.27249,-5.04787 2.70067,-7.30111 7.58178,-7.64558c0,0 0.55613,-0.03925 0.59538,0.51689c0.00091,0.0128 0.00149,0.02534 0.00178,0.03758c0.137,0.06346 0.27248,0.19329 0.29113,0.45767z" fill="#455d83" stroke="none" stroke-width="0.5" stroke-linecap="butt"/><path d="M206.33046,185.33224c-0.49705,-0.24656 -1.04654,-0.37738 -1.57427,-0.35753c-0.07237,-0.03775 -0.14835,-0.0693 -0.2272,-0.09399c0.18894,-1.63803 0.64165,-2.94372 1.37069,-3.95453c0.46234,0.58172 0.90966,1.18159 1.35668,1.77376c-0.47524,0.7656 -0.79495,1.65363 -0.92589,2.63229z" fill="#85afb1" stroke="none" stroke-width="0.5" stroke-linecap="butt"/><path d="M207.78815,179.25366c0.36645,0.58806 0.86473,1.16617 1.3035,1.56399c-0.41939,0.27512 -0.80047,0.59825 -1.13745,0.96386c-0.43184,-0.56926 -0.86342,-1.142 -1.309,-1.69984c0.34054,-0.316 0.72131,-0.59134 1.14297,-0.82802z" fill="#85afb1" stroke="none" stroke-width="0.5" stroke-linecap="butt"/><path d="M212.92289,179.15906c0.03925,0.55613 -0.51689,0.59538 -0.51689,0.59538l-0.08555,0.00604c-3.44876,0.2434 -5.91919,2.77463 -6.05125,6.29283c0,0 -0.00707,0.17589 -0.11211,0.32602l0.07971,0.26772c0,0 -0.35467,0.40854 -0.76768,0.07136c-0.07285,-0.00522 -0.1457,-0.01043 -0.21855,-0.01565c0,0 -0.31462,-0.02252 -0.45361,-0.2703c-0.31141,-0.11512 -0.33752,-0.48511 -0.33752,-0.48511l-0.00661,-0.15484c0.27249,-5.04787 2.70065,-7.30109 7.58178,-7.64557c0,0 0.55613,-0.03925 0.59538,0.51689c0.00091,0.01279 0.00149,0.02533 0.00178,0.03758c0.137,0.06346 0.27248,0.19329 0.29113,0.45767z" fill="none" stroke="#000000" stroke-width="1" stroke-linecap="butt"/><path d="M222.39346,188.41999c0,0 3.14505,-0.16702 3.75779,1.57952c0.49164,1.40134 -0.70043,2.56364 -1.32995,3.69542c-1.49,2.67876 -3.69979,7.17353 -7.30406,4.87686c-0.75957,-0.58857 -1.33616,-1.21548 -1.97569,-1.92794l-0.08627,-0.07336c-1.04784,0.60304 -2.10831,0.72312 -2.78139,0.16206c-0.71258,-0.59397 -1.39505,-1.88683 -2.03687,-2.77741c-1.45954,0.33037 -3.05151,0.68827 -4.29363,-0.15061c-1.19457,-0.80675 -1.00055,-1.89785 -1.08783,-3.13472c-0.24451,-3.46453 1.69565,-6.43553 4.72222,-8.08052c1.48081,-1.02186 2.981,-2.57838 4.89073,-2.82309c1.3431,-0.1721 2.22074,0.56242 2.8274,1.46005c0.69993,1.03568 0.99343,2.34112 0.48003,3.57963c1.25026,0.12375 2.50147,0.753 3.3819,1.58879c0.86215,0.81844 0.55458,1.24302 0.83561,2.02532z" fill="#fde0be" stroke="none" stroke-width="0.5" stroke-linecap="butt"/><path d="M226.15125,189.99952c0.49163,1.40136 -0.70042,2.56363 -1.32996,3.69541c-1.49001,2.67876 -3.69979,7.17354 -7.30406,4.87687c-0.75957,-0.58857 -1.33616,-1.21548 -1.97568,-1.92794l-0.08627,-0.07336c-1.04784,0.60304 -2.1083,0.72312 -2.78138,0.16206c-0.71258,-0.59397 -1.39504,-1.88684 -2.03686,-2.77742c-1.45954,0.33037 -3.0515,0.68827 -4.29362,-0.15061c-1.19457,-0.80676 -1.00055,-1.89785 -1.08783,-3.13472c-0.08179,-1.15902 0.08091,-2.2628 0.44699,-3.28018c0.08192,0.17993 0.13854,0.35962 0.13883,0.5487l0.00671,0.00641c-0.00727,1.15146 0.42451,2.03762 1.1151,2.5902c0.5444,0.49827 1.2844,0.78072 2.07867,0.72466c0.2874,-0.02028 0.56153,-0.08344 0.81659,-0.18279c0.2784,-0.06493 0.56152,-0.15912 0.84584,-0.28385c1.23651,-0.54247 2.93087,-1.68335 4.50411,-3.10134c-0.26614,0.91279 -0.47526,1.81675 -0.60683,2.55101c-0.12254,0.34863 -0.17736,0.72749 -0.14968,1.11956c0.01648,0.23355 0.06128,0.45835 0.13082,0.67127c0.11191,1.5858 1.38513,2.04676 2.62515,1.92013c0.07312,0.00056 0.1468,-0.00171 0.22097,-0.00695c0.61182,-0.04318 1.16355,-0.2807 1.59911,-0.64796c0.14382,-0.10457 0.26739,-0.21766 0.36473,-0.33658c0.10978,-0.13413 0.22513,-0.28366 0.34438,-0.44605c0.2151,0.10726 -0.7564,2.21092 -0.52138,2.26111c0.69543,0.14856 2.65815,-1.99895 3.3807,-2.54072c0.57894,-0.43409 0.9329,-0.90965 1.11228,-1.39352c0.26356,-0.46214 0.39795,-1.00466 0.35769,-1.57518c-0.01822,-0.25809 -0.07101,-0.50548 -0.15353,-0.73798c0.89632,0.16305 1.91658,0.55251 2.23839,1.46978z" fill="#f89688" stroke="none" stroke-width="0.5" stroke-linecap="butt"/><path d="M222.39346,188.41999c0,0 3.14505,-0.16702 3.75779,1.57952c0.49163,1.40136 -0.70042,2.56363 -1.32995,3.69541c-1.49001,2.67876 -3.69979,7.17354 -7.30406,4.87687c-0.75957,-0.58857 -1.33616,-1.21548 -1.97568,-1.92794l-0.08627,-0.07336c-1.04784,0.60304 -2.10831,0.72312 -2.78139,0.16206c-0.71258,-0.59397 -1.39504,-1.88684 -2.03686,-2.77742c-1.45954,0.33037 -3.05151,0.68827 -4.29362,-0.15061c-1.19457,-0.80676 -1.00054,-1.89785 -1.08783,-3.13472c-0.24451,-3.46453 1.69564,-6.43552 4.7222,-8.08052c1.48081,-1.02186 2.981,-2.57838 4.89074,-2.82309c1.3431,-0.1721 2.22074,0.56241 2.82738,1.46005c0.69993,1.03568 0.99343,2.34112 0.48003,3.57963c1.25027,0.12375 2.50147,0.753 3.3819,1.5888c0.86216,0.81844 0.55458,1.24302 0.83561,2.02532z" fill="none" stroke="#000000" stroke-width="1" stroke-linecap="butt"/><path d="M213.42127,188.90117l5.02405,-3.78254" fill="none" stroke="#000000" stroke-width="1" stroke-linecap="round"/><path d="M222.12319,188.65964l-3.30285,3.88464" fill="none" stroke="#000000" stroke-width="1" stroke-linecap="round"/><path d="M197.45319,178.66007c-0.33515,-4.74896 2.79099,-9.1825 7.53996,-9.51765c2.53705,-0.17905 4.08931,0.828 5.66802,2.40431c0.53188,0.53108 1.36517,1.57779 1.86331,2.71194c0.79093,1.80077 0.51638,3.66555 0.41862,3.9569c-0.07784,0.23201 -3.07858,-1.25909 -5.84016,1.24713c-2.81685,2.55639 -3.13272,6.86312 -3.13272,6.86312c0,0 -2.2143,-0.24986 -3.7074,-1.44006c-1.66378,-1.32626 -2.63298,-3.72283 -2.80962,-6.2257z" fill="#465e85" stroke="#000000" stroke-width="0" stroke-linecap="butt"/><path d="M197.45319,178.66007c-0.04208,-0.59629 -0.02959,-1.1876 0.03384,-1.76648c0.0523,0.07899 0.11239,0.15219 0.17905,0.2186l0.0057,0.0208l0.03715,0.02012c0.17454,0.15974 0.38932,0.2751 0.62568,0.32993l0.23159,0.05945l0.14272,0.0009l0.1313,0.07475l0.08483,0.02372l0.07073,0.05246l0.09316,0.03864l0.0087,0.013l0.03942,0.00695l0.03587,0.01488l0.31676,0.0473l0.31539,0.05561l0.03875,-0.00274l0.03959,0.00591l0.01238,-0.00959l0.02913,-0.00205l0.03011,0.02233l0.09316,0.03865l0.0087,0.013l0.03943,0.00695l0.03587,0.01488l0.31675,0.0473l0.31539,0.05561l0.03875,-0.00274l0.03959,0.00592l0.01237,-0.00959l7.17783,-0.50656l0.03692,0.00552l0.31539,0.05561l0.03875,-0.00274l0.03959,0.00592l0.01237,-0.00959l0.21733,-0.01533l0.02334,0.01264l0.52544,0.13489l0.17616,0.00111l0.30142,0.04501l0.31539,0.05561l0.03874,-0.00274l0.03959,0.00592l0.01238,-0.00959l0.474,-0.03345l0.02334,0.01264l0.16677,0.04281l0.17883,0.07416l0.0087,0.013l0.03942,0.00695l0.03587,0.01488l0.26499,0.03957c-1.13514,-0.0824 -2.71039,0.09669 -4.21472,1.46192c-2.81685,2.55639 -3.13272,6.86311 -3.13272,6.86311c0,0 -2.2143,-0.24986 -3.7074,-1.44006c-1.66378,-1.32626 -2.63298,-3.72283 -2.80962,-6.2257z" fill="#323344" stroke="#000000" stroke-width="0" stroke-linecap="butt"/><path d="M201.86714,173.60631l0.00453,0.01649l-0.02271,-0.01012z" fill="#323344" stroke="#000000" stroke-width="0" stroke-linecap="butt"/><path d="M197.45319,178.66007c-0.33515,-4.74897 2.791,-9.1825 7.53996,-9.51765c2.53705,-0.17905 4.0893,0.828 5.66801,2.4043c0.53188,0.53108 1.36516,1.57779 1.86331,2.71195c0.79093,1.80076 0.51639,3.66555 0.41863,3.9569c-0.07784,0.23201 -3.07858,-1.25909 -5.84016,1.24715c-2.81685,2.55639 -3.13272,6.86312 -3.13272,6.86312c0,0 -2.21432,-0.24985 -3.70741,-1.44006c-1.66378,-1.32626 -2.63298,-3.72283 -2.80962,-6.22569z" fill="none" stroke="#000000" stroke-width="1" stroke-linecap="butt"/><path d="M202.32095,185.49636c0,0 -0.25502,-5.89918 2.65857,-8.14849c3.08072,-2.37835 7.82312,-0.50195 7.82312,-0.50195" fill="none" stroke="#000000" stroke-width="1" stroke-linecap="round"/><path d="M198.87041,182.90234c0,0 0.99507,-5.496 3.65355,-8.57733c2.41358,-2.79747 7.77739,-2.46173 7.77739,-2.46173" fill="none" stroke="#000000" stroke-width="1" stroke-linecap="round"/><path d="M197.55487,177.66405c0,0 2.555,-4.10798 4.08376,-5.59475c1.37935,-1.34147 4.68675,-2.93492 4.68675,-2.93492" fill="none" stroke="#000000" stroke-width="1" stroke-linecap="round"/><path d="M203.91138,183.66441c0,0 -2.63271,-0.39296 -3.65659,-0.94359c-1.00151,-0.53861 -2.4211,-2.32488 -2.4211,-2.32488" fill="none" stroke="#000000" stroke-width="1" stroke-linecap="round"/><path d="M204.86563,182.56523c0,0 -3.04368,-1.28666 -4.33974,-2.15872c-1.15515,-0.77723 -3.0626,-2.82199 -3.0626,-2.82199" fill="none" stroke="#000000" stroke-width="1" stroke-linecap="round"/><path d="M205.60046,180.79365c0,0 -3.04861,-1.66066 -4.10523,-2.90929c-1.15478,-1.3646 -2.55521,-4.9613 -2.55521,-4.9613" fill="none" stroke="#000000" stroke-width="1" stroke-linecap="round"/><path d="M201.00757,170.54151c0,0 3.07095,3.83091 4.06219,5.43939c0.82188,1.33366 1.47289,3.54245 1.47289,3.54245" fill="none" stroke="#000000" stroke-width="1" stroke-linecap="round"/><path d="M204.27195,169.2793c0,0 2.34737,2.29317 3.08875,3.69359c0.77807,1.46971 1.47497,4.92688 1.47497,4.92688" fill="none" stroke="#000000" stroke-width="1" stroke-linecap="round"/><path d="M209.63601,170.9644c0,0 0.86963,1.99783 1.10077,3.08863c0.24116,1.13813 0.31743,3.60417 0.31743,3.60417" fill="none" stroke="#000000" stroke-width="1" stroke-linecap="round"/></g><g><g stroke="#000000" stroke-width="1"><path d="M253.35082,183.95056c0,-1.48511 0.32746,-4.84026 1.37778,-5.80699c1.03212,-0.94997 10.05368,4.82206 10.05368,5.80699c0,2.94448 -2.5051,4.92909 -5.66181,4.92909c-3.15671,0 -5.76965,-1.9846 -5.76965,-4.92909z" fill="#d90250" stroke-linecap="butt"/><path d="M263.3264,175.95336c0,0 -1.18937,3.08178 -0.18142,3.86695c1.56659,1.22034 6.11285,0.81065 6.11285,0.81065c0,0 -2.54013,1.79812 -3.03195,2.98254c-0.4967,1.19618 0.06624,4.1596 0.06624,4.1596c0,0 -2.51994,-3.92835 -4.54755,-3.86459c-0.9173,0.02884 -1.11427,1.95331 -1.11427,1.95331c0,0 -1.44938,-3.28061 -2.35714,-4.0913c-0.75249,-0.67204 -2.71153,-0.43541 -2.71153,-0.43541c0,0 -0.01846,-1.24195 -0.48588,-3.01935c-0.26264,-0.99871 -1.67101,-2.81507 -1.67101,-2.81507c0,0 3.71989,1.17565 5.44627,1.25441c1.56496,0.0714 4.47537,-0.80175 4.47537,-0.80175z" fill="#fdebf6" stroke-linecap="round"/></g><g stroke="#000000" stroke-linecap="round"><path d="M215.38972,199.59284c0,0 1.87532,-6.71865 2.19769,-7.87358c0.09094,-0.3258 0.84223,-0.57965 1.68021,-0.52074c0.76575,0.05383 2.48859,0.22035 4.70955,0.37465c10.07977,0.7003 31.47661,2.13496 31.47661,2.13496l0.32353,14.68666z" fill="#4fa6ed" stroke-width="0"/><path d="M255.45377,193.70812l0.32353,14.68666l-14.11616,-3.07643c-0.27493,-1.35349 -1.05699,-6.53546 -1.82183,-6.95651c-0.51396,-0.83899 -3.16976,-0.13817 -4.21415,0.10219c-2.31548,0.5329 -6.9463,1.40599 -8.45061,3.69716l-4.03212,-0.87875c1.20592,-0.86417 2.22223,-1.96193 2.87697,-3.01431c0.6044,-0.97149 1.95272,-3.20896 1.28849,-4.13831l-2.74391,-2.51595c10.29863,0.7136 30.88979,2.09424 30.88979,2.09424z" fill="#2e67e5" stroke-width="0"/><path d="M215.38972,199.59284c0,0 1.87532,-6.71865 2.19769,-7.87358c0.09094,-0.3258 0.84223,-0.57965 1.68021,-0.52074c0.76575,0.05383 2.48859,0.22035 4.70955,0.37465c10.07977,0.7003 31.47661,2.13496 31.47661,2.13496l0.32353,14.68666z" fill="none" stroke-width="1"/></g><path d="M227.46826,186.51569l6.79417,-4.6776l-1.02452,-5.63323c0,0 7.02252,-2.51425 9.14867,-3.16942c1.02638,-0.31628 2.92987,-0.55255 2.92987,-0.55255c0,0 4.8301,1.3333 8.225,4.59817c2.52547,2.42875 4.39807,6.72336 4.94145,8.5268c0.26048,0.8645 -0.61152,3.07956 -1.07187,4.83463c-0.36479,1.3907 -0.21027,2.32414 -0.86771,3.25527c-1.52455,2.15926 -3.62386,1.97193 -3.62386,1.97193c0,0 -1.48513,0.12929 -2.12225,-0.03583c-0.82815,-0.21461 -2.42558,-1.14277 -2.42558,-1.14277c0,0 -14.16078,-1.22756 -17.20345,-2.32192c-3.48629,-1.25392 -3.69991,-5.6535 -3.69991,-5.6535z" fill="#ff292e" stroke="#000000" stroke-width="0" stroke-linecap="round"/><path d="M258.48289,185.60785c0.26048,0.8645 -0.61152,3.07956 -1.07187,4.83463c-0.36479,1.3907 -0.21027,2.32414 -0.86771,3.25527c-1.52455,2.15926 -3.62386,1.97193 -3.62386,1.97193c0,0 -1.48513,0.12929 -2.12225,-0.03583c-0.82815,-0.21461 -2.42558,-1.14277 -2.42558,-1.14277c0,0 -3.90644,-0.33864 -8.05663,-0.81876c1.7622,-0.95712 3.40409,-2.81379 4.19853,-3.53215c4.01292,-3.62862 2.20991,-6.17704 2.6583,-7.17872c0.05451,-0.12177 0.03604,-0.27023 0.17516,-0.34379c0.22267,-0.11771 1.99916,2.42355 1.94561,2.76401c-0.33514,2.13089 -2.40629,5.23894 0.18432,6.98061c0.12459,0.08376 2.36392,1.09533 2.75646,0.67074c0.18712,-0.2024 2.05404,-1.25864 2.47895,-2.37405c1.24658,-3.27246 1.56682,-8.96739 1.39935,-10.22147c1.19175,1.98926 2.03539,4.05563 2.37125,5.17031z" fill="#d90251" stroke="#000000" stroke-width="0" stroke-linecap="butt"/><g><path d="M237.65,211.24992c0,0 -2.47338,1.50254 -3.34874,1.41724c-0.66237,-0.06455 -1.52535,-1.12167 -2.08066,-1.90748c-0.33458,-0.47348 -0.57445,-0.5674 -0.63471,-0.15426c-0.13217,0.90606 -0.47259,2.44747 -1.29906,3.05278c-1.25481,0.91903 -7.23497,0.30086 -7.56286,0.43576c-3.57636,1.47159 -7.64226,2.87972 -11.02941,3.35981c-1.08274,0.15347 -2.55823,-1.47052 -2.55823,-1.47052c0,0 -3.8032,1.35909 -6.07683,-1.58134c-0.83733,-1.0829 -1.07848,-3.49717 -1.14406,-4.50696c-0.00834,-0.12824 -0.09777,-0.35569 -0.00833,-0.53039c0.10919,-0.21328 2.26504,-1.97342 3.06356,-2.04108c4.6184,-0.39132 30.78938,-0.28278 30.78938,-0.28278c0,0 1.39687,0.68889 1.61459,1.3821c0.26628,0.84781 0.27532,2.8271 0.27532,2.8271z" fill="#f38285" stroke="#000000" stroke-width="0" stroke-linecap="round"/><path d="M234.30125,212.66718c-0.66238,-0.06455 -1.52536,-1.12167 -2.08066,-1.90748c-0.33458,-0.47348 -0.57445,-0.5674 -0.63471,-0.15426c-0.13217,0.90606 -0.47259,2.44747 -1.29906,3.05278c-1.25481,0.91903 -7.23496,0.30085 -7.56285,0.43576c-2.07186,0.85252 -4.308,1.68373 -6.4813,2.32556c0.29515,-0.89837 0.454,-1.85233 0.454,-2.84089c0,-2.49811 -1.01427,-4.77525 -2.67965,-6.49267c9.24646,-0.09709 21.74305,-0.04525 21.74305,-0.04525c0,0 1.39687,0.68889 1.61459,1.3821c0.26628,0.84781 0.27532,2.8271 0.27532,2.8271c0,0 -2.47338,1.50255 -3.34874,1.41724z" fill="#e96698" stroke="#000000" stroke-width="0" stroke-linecap="round"/><path d="M237.65,211.24992c0,0 -2.47338,1.50254 -3.34874,1.41724c-0.66237,-0.06455 -1.52535,-1.12167 -2.08066,-1.90748c-0.33458,-0.47348 -0.57445,-0.5674 -0.63471,-0.15426c-0.13217,0.90606 -0.47259,2.44747 -1.29906,3.05278c-1.25481,0.91903 -7.23497,0.30086 -7.56286,0.43576c-3.57636,1.47159 -7.64226,2.87972 -11.02941,3.35981c-1.08274,0.15347 -2.55823,-1.47052 -2.55823,-1.47052c0,0 -3.8032,1.35909 -6.07683,-1.58134c-0.83733,-1.0829 -1.07848,-3.49717 -1.14406,-4.50696c-0.00834,-0.12824 -0.09777,-0.35569 -0.00833,-0.53039c0.10919,-0.21328 2.26504,-1.97342 3.06356,-2.04108c4.6184,-0.39132 30.78938,-0.28278 30.78938,-0.28278c0,0 1.39687,0.68889 1.61459,1.3821c0.26628,0.84781 0.27532,2.8271 0.27532,2.8271z" fill="none" stroke="#000000" stroke-width="1" stroke-linecap="round"/><path d="M215.17482,200.97217l0.63877,-3.67424l9.47507,-2.18468l2.04803,4.16151c0,0 1.28878,-1.3165 3.07762,-1.93796c1.37851,-0.4789 3.27016,0.94755 3.76224,1.1705c1.32056,0.59829 2.29054,1.67046 2.29054,1.67046l0.8517,6.95128c0,0 -2.07162,1.72933 -4.05767,2.13272c-2.76063,0.56071 -10.9615,0.91782 -10.9615,0.91782c0,0 -2.7122,1.87242 -6.27954,2.68449c-3.22575,0.73431 -7.24779,0.45678 -8.84135,-0.23736c-0.47107,-0.20519 -2.03876,-1.14886 -2.64774,-2.36724c-0.7974,-1.59536 -0.48357,-3.66174 0.71915,-5.15797c1.09141,-1.35774 3.38734,-1.2481 5.43277,-1.91336c2.39821,-0.78 4.49191,-2.21593 4.49191,-2.21593z" fill="#f27056" stroke="#000000" stroke-width="0" stroke-linecap="round"/><path d="M215.17482,200.97217l0.63877,-3.67424l9.47507,-2.18468l0.54511,1.10762c-0.22036,0.91717 -0.451,3.3492 -0.451,3.65719c0,0.66842 0.58091,1.21027 1.2975,1.21027c0.67768,0 0.85003,-1.1762 0.85263,-1.21027c0.02299,-0.30022 0.60551,-0.81193 0.77261,-1.41338c0.53792,-0.39028 1.26814,-0.83583 2.10881,-1.12788c1.37851,-0.4789 3.27016,0.94755 3.76224,1.1705c0.48497,0.21973 0.92266,0.50335 1.28239,0.77433c-1.61088,0.94502 -3.54971,3.1334 -5.08125,3.79726c-1.81551,0.78697 -3.79557,0.38713 -5.68922,1.06483c-1.67213,0.59842 -6.97781,3.71116 -9.6819,6.15488c-0.86924,0.33774 -1.49929,1.10375 -1.58731,2.01554c-0.01973,0.07678 -0.03017,0.15017 -0.03076,0.21985c-0.00087,0.10511 0.01308,0.20454 0.03981,0.29907c0.01814,0.13723 0.04857,0.27089 0.09026,0.40001c-2.57236,0.20174 -5.14208,-0.08463 -6.33984,-0.60637c-0.47107,-0.20519 -2.03876,-1.14886 -2.64774,-2.36724c-0.7974,-1.59536 -0.48357,-3.66174 0.71915,-5.15797c1.09141,-1.35774 3.38734,-1.2481 5.43277,-1.91336c2.39821,-0.78 4.49191,-2.21593 4.49191,-2.21593z" fill="#f79d58" stroke="#000000" stroke-width="0" stroke-linecap="round"/><path d="M227.12511,200.05096c0,0 2.85825,-2.87006 4.18907,-2.87006c1.33081,0 4.11493,2.17848 4.11493,2.17848c0,0 -2.04268,2.52427 -3.3735,2.52427c-1.19848,0 -4.93049,-1.83268 -4.93049,-1.83268z" fill="#000000" stroke="none" stroke-width="0.5" stroke-linecap="butt"/><path d="M215.17482,200.97217l0.63876,-3.67424l9.47507,-2.18468l2.04802,4.1615c0,0 1.28879,-1.3165 3.07763,-1.93795c1.3785,-0.4789 3.27016,0.94755 3.76224,1.1705c1.32056,0.59829 2.29054,1.67046 2.29054,1.67046l0.85169,6.95128c0,0 -2.07162,1.72934 -4.05766,2.13273c-2.76063,0.56071 -10.96151,0.91782 -10.96151,0.91782c0,0 -2.7122,1.87242 -6.27954,2.68448c-3.22575,0.73431 -7.24779,0.45678 -8.84135,-0.23735c-0.47107,-0.2052 -2.03875,-1.14886 -2.64774,-2.36724c-0.7974,-1.59536 -0.48357,-3.66174 0.71915,-5.15797c1.0914,-1.35774 3.38734,-1.2481 5.43276,-1.91336c2.39821,-0.77999 4.49191,-2.21593 4.49191,-2.21593z" fill="none" stroke="#000000" stroke-width="1" stroke-linecap="round"/><path d="M222.89976,201.92709c-0.131,0.85029 -1.91162,1.31408 -3.75152,1.56165c0.71085,0.3946 1.22646,0.71659 1.22646,0.9238c0,0.64392 -2.57219,0.81143 -5.21316,0.80197c1.00643,1.19547 1.83574,2.53206 0.22453,2.53206c-0.56631,0 -1.73238,-1.2395 -2.60455,-2.58217c-1.10539,-0.04062 -2.06797,-0.09859 -2.65697,-0.14631c-0.06869,0.0185 -0.14127,0.02841 -0.21634,0.02841c-0.14075,0 -0.27278,-0.03485 -0.38671,-0.09578c-0.23409,-0.12522 -0.39178,-0.36062 -0.39178,-0.63037c0,-0.37393 0.30299,-0.68184 0.69247,-0.72177c0.54291,-0.3539 1.22415,-0.45609 1.96726,-0.43711c-0.16941,-0.58575 -0.14207,-1.04568 0.20096,-1.22851c0.44159,-0.23537 1.24563,-0.26684 2.21967,-0.23284c-0.77415,-0.72424 -1.55034,-1.68142 -0.90151,-2.25792c0.34964,-0.31066 1.65205,-0.66195 3.17868,-0.97418c0.30196,-0.15904 0.79723,-0.25114 1.38292,-0.26268c2.18198,-0.3863 4.38357,-0.65586 4.74119,-0.60484c0.40996,0.05847 0.7785,0.16129 0.7785,0.72616c0,0.58185 -0.53969,0.96355 -1.32869,1.21256c0.63093,0.57856 0.99649,1.36312 0.83859,2.38791zM220.91016,201.46195c0.35916,-0.13967 -0.50146,-0.57718 -0.61908,-0.92316c-0.08142,-0.23952 -0.24187,-0.44875 -0.44596,-0.6227c-1.72517,0.13838 -3.50295,0.04312 -3.85131,0.0588c-0.24569,0.01107 -0.96213,0.23104 -0.96041,0.29553c0.01355,0.50745 0.53345,1.03502 1.24402,1.54117c1.65648,0.08998 3.41166,0.12521 4.63273,-0.34964zM214.3015,203.47989c-0.41955,-0.18623 -0.78965,-0.35919 -0.75571,-0.12439c0.25229,0.04058 0.50502,0.08344 0.75571,0.12439z" fill="#efdee9" stroke="none" stroke-width="0.5" stroke-linecap="butt"/><path d="M222.89977,201.92709c-0.13101,0.85029 -1.91162,1.31408 -3.75152,1.56165c0.71085,0.3946 1.22645,0.71658 1.22645,0.9238c0,0.64392 -2.57219,0.81144 -5.21316,0.80197c1.00643,1.19546 1.83574,2.53206 0.22452,2.53206c-0.56632,0 -1.73237,-1.23949 -2.60455,-2.58217c-1.10539,-0.04062 -2.06797,-0.09859 -2.65697,-0.14632c-0.06869,0.0185 -0.14126,0.02841 -0.21633,0.02841c-0.14075,0 -0.27279,-0.03484 -0.38671,-0.09578c-0.23409,-0.12521 -0.39178,-0.36062 -0.39178,-0.63037c0,-0.37393 0.30299,-0.68185 0.69246,-0.72177c0.54292,-0.3539 1.22416,-0.45609 1.96726,-0.43711c-0.16941,-0.58575 -0.14207,-1.04567 0.20096,-1.22851c0.44159,-0.23537 1.24563,-0.26684 2.21967,-0.23284c-0.77415,-0.72424 -1.55034,-1.68143 -0.90151,-2.25792c0.34964,-0.31066 1.65206,-0.66194 3.17868,-0.97418c0.30196,-0.15904 0.79723,-0.25114 1.3829,-0.26268c2.18197,-0.3863 4.38357,-0.65586 4.74119,-0.60485c0.40997,0.05848 0.7785,0.16129 0.7785,0.72616c0,0.58185 -0.53969,0.96355 -1.32868,1.21256c0.63093,0.57856 0.99649,1.36312 0.83859,2.38791zM220.91017,201.46195c0.35916,-0.13966 -0.50147,-0.57718 -0.61908,-0.92317c-0.08143,-0.23951 -0.24185,-0.44875 -0.44596,-0.62269c-1.72517,0.13838 -3.50295,0.04311 -3.85131,0.05879c-0.24569,0.01106 -0.96214,0.23104 -0.96041,0.29553c0.01354,0.50745 0.53345,1.03502 1.24402,1.54117c1.65648,0.08999 3.41166,0.12521 4.63274,-0.34964zM214.30151,203.47989c-0.41955,-0.18622 -0.78965,-0.35919 -0.75571,-0.12439c0.25231,0.04058 0.50503,0.08344 0.75571,0.12439z" fill="none" stroke="#000000" stroke-width="1" stroke-linecap="butt"/></g><g><g stroke="#000000"><path d="M238.95364,206.35999c0,0 1.61648,-1.63259 12.34679,-1.17263c10.47208,0.44889 17.25638,2.17857 17.25638,2.17857l-0.10783,6.48828c0,0 -1.43091,1.46501 -2.23367,2.09652c-0.66164,0.52049 -2.24186,1.42426 -2.24186,1.42426l-1.29414,-0.95564l-0.64706,1.96158c0,0 -4.18218,1.89037 -6.53908,2.24594c-3.10026,0.46771 -7.21103,0.31919 -7.21103,0.31919l-1.40197,-1.5089l-1.02452,1.35802c0,0 -7.31343,-1.24758 -8.42609,-5.8285c-1.10666,-4.55613 1.52408,-8.60667 1.52408,-8.60667z" fill="#f38285" stroke-width="0" stroke-linecap="round"/><path d="M268.55682,207.36592l-0.10783,6.48828c0,0 -1.43091,1.46501 -2.23367,2.09652c-0.66164,0.52049 -2.24186,1.42426 -2.24186,1.42426l-1.29414,-0.95564l-0.64706,1.96158c0,0 -4.18218,1.89037 -6.53908,2.24594c-1.18849,0.1793 -2.52546,0.26804 -3.72242,0.3093c4.64632,-2.86309 9.14287,-4.19506 9.82056,-10.24004c0.1477,-1.31756 0.33842,-3.2354 -0.30651,-4.63266c4.5917,0.61913 7.27203,1.30249 7.27203,1.30249z" fill="#e96698" stroke-width="0" stroke-linecap="butt"/><path d="M238.95364,206.35999c0,0 1.61648,-1.63259 12.34679,-1.17263c10.47208,0.44889 17.25638,2.17857 17.25638,2.17857l-0.10783,6.48828c0,0 -1.43091,1.46501 -2.23367,2.09652c-0.66164,0.52049 -2.24186,1.42426 -2.24186,1.42426l-1.29414,-0.95564l-0.64706,1.96158c0,0 -4.18218,1.89037 -6.53908,2.24594c-3.10026,0.46771 -7.21103,0.31919 -7.21103,0.31919l-1.40197,-1.5089l-1.02452,1.35802c0,0 -7.31343,-1.24758 -8.42609,-5.8285c-1.10666,-4.55613 1.52408,-8.60667 1.52408,-8.60667z" fill="none" stroke-width="1" stroke-linecap="round"/></g><path d="M241.23427,202.21403c0,0 -0.16725,-1.3471 0.86338,-2.37183c0.86959,-0.86461 2.86648,-1.40829 3.76006,-1.64454c2.47954,-0.65555 5.75769,-0.96103 7.90155,-0.90115c1.08271,0.03024 1.86404,0.97312 2.30461,1.69317c0.27487,0.44925 1.52638,-1.02064 2.55514,-1.14456c0.5297,-0.06381 1.28816,1.35178 1.33935,1.55526c0.28259,1.12313 -0.48251,3.57551 -0.48251,3.57551c0,0 0.57937,0.66804 1.93767,1.23373c1.07884,0.44931 2.8752,0.71686 3.64998,1.36967c1.56383,1.31764 1.89387,4.07993 1.66105,5.00784c-0.25189,1.00389 -4.11275,3.96269 -9.22584,5.51744c-5.13064,1.56008 -11.51836,1.71167 -14.59268,0.12431c-4.31982,-2.23045 -2.0747,-5.45176 -3.87947,-8.05131c-1.12202,-1.61613 -1.88396,-3.56312 -2.07954,-5.90858c-0.17705,-2.12314 2.04115,-1.45173 2.04115,-1.45173l2.24616,1.39677z" fill="#000000" stroke="#000000" stroke-width="0" stroke-linecap="round"/><path d="M242.09764,199.84222c0.86959,-0.86462 2.86647,-1.4083 3.76006,-1.64454c2.47954,-0.65555 5.75769,-0.96103 7.90155,-0.90115c1.08271,0.03024 1.86404,0.97312 2.30461,1.69317c0.12959,0.21179 0.34013,0.06053 0.7782,-0.23867c0.25051,1.34087 1.38578,3.28113 1.83469,3.75405c0.28742,0.30278 0.61884,0.5136 0.97848,0.64623c0.26389,0.23607 0.82865,0.67117 1.75828,1.05834c1.07883,0.44931 2.87519,0.71686 3.64998,1.36967c1.56383,1.31764 1.89387,4.07993 1.66105,5.00784c-0.25189,1.0039 -4.11275,3.9627 -9.22584,5.51744c-5.13063,1.56007 -11.51834,1.71167 -14.59268,0.12431c-4.31983,-2.23045 -2.0747,-5.45176 -3.87947,-8.05131c-0.40524,-0.5837 -0.76352,-1.21056 -1.0651,-1.88377c1.50402,-0.34405 2.97467,-1.11964 3.62,-1.85447c1.06305,-1.21046 0.77187,-2.64843 -0.06827,-3.76276c0.12998,-0.28037 0.31685,-0.56824 0.58451,-0.83437z" fill="#f27056" stroke="#000000" stroke-width="0" stroke-linecap="round"/><path d="M242.09764,199.84222c0.86959,-0.86462 2.86647,-1.4083 3.76006,-1.64454c2.0076,-0.53077 4.53876,-0.83206 6.56748,-0.89573c-0.84798,1.74752 -0.3187,5.03801 0.55997,7.07471c0.43996,1.01981 2.67347,1.41613 4.67746,2.18932c1.80099,0.69487 3.41662,1.81622 3.37843,1.8987c-2.32965,5.03155 -10.73042,4.21653 -13.61659,6.91838c-0.56859,0.43185 -0.93732,1.08388 -0.95682,1.81676c-1.40511,-0.17142 -2.63416,-0.49204 -3.56165,-0.97091c-4.31983,-2.23045 -2.0747,-5.45176 -3.87947,-8.05131c-0.40524,-0.5837 -0.76352,-1.21056 -1.0651,-1.88377c1.50402,-0.34405 2.97467,-1.11964 3.62,-1.85447c1.06305,-1.21046 0.77187,-2.64843 -0.06827,-3.76276c0.12998,-0.28037 0.31685,-0.56824 0.58451,-0.83437z" fill="#f79d58" stroke="#000000" stroke-width="0" stroke-linecap="butt"/><path d="M241.23427,202.21403c0,0 -0.16725,-1.3471 0.86338,-2.37183c0.86959,-0.86461 2.86648,-1.40829 3.76006,-1.64454c2.47954,-0.65555 5.75769,-0.96103 7.90155,-0.90115c1.08271,0.03024 1.86404,0.97312 2.30461,1.69317c0.27487,0.44925 1.52638,-1.02064 2.55514,-1.14456c0.5297,-0.06381 1.28816,1.35178 1.33935,1.55526c0.28259,1.12313 -0.48251,3.57551 -0.48251,3.57551c0,0 0.57937,0.66804 1.93767,1.23373c1.07884,0.44931 2.8752,0.71686 3.64998,1.36967c1.56383,1.31764 1.89387,4.07993 1.66105,5.00784c-0.25189,1.00389 -4.11275,3.96269 -9.22584,5.51744c-5.13064,1.56008 -11.51836,1.71167 -14.59268,0.12431c-4.31982,-2.23045 -2.0747,-5.45176 -3.87947,-8.05131c-1.12202,-1.61613 -1.88396,-3.56312 -2.07954,-5.90858c-0.17705,-2.12314 2.04115,-1.45173 2.04115,-1.45173l2.24616,1.39677z" fill="none" stroke="#000000" stroke-width="1" stroke-linecap="round"/><g stroke-linecap="butt"><path d="M253.18438,200.5529c0.34815,0.64949 -0.34815,0.97425 -0.34815,0.97425l-0.29899,0.1385c0.58086,0.02672 1.16352,0.04621 1.7484,0.04816l0.77317,0.13261c0.1166,0.00085 0.24772,0.03068 0.39271,0.10506c0.01252,0.00643 0.0247,0.01296 0.03653,0.01958c0.11374,0.06032 0.23644,0.15482 0.30845,0.29939c0.07397,0.1437 0.0743,0.29212 0.05202,0.41238c-0.00203,0.01272 -0.00436,0.02564 -0.00699,0.03875c-0.03186,0.15846 -0.09434,0.27514 -0.1723,0.36078c-0.56016,0.8865 -1.22206,1.54669 -1.9472,2.07654c0.46391,0.02038 0.92829,0.04224 1.39344,0.06539c0.13679,-0.02277 0.29632,-0.007 0.47374,0.08345c0.13334,0.05565 0.27749,0.152 0.35984,0.31835c0.09326,0.16125 0.0894,0.32664 0.05712,0.45952c-0.03626,0.23438 -0.15657,0.37708 -0.29384,0.46383l-0.3208,0.34934c-0.32652,0.16364 -0.64599,0.33587 -0.96013,0.51447c0.80752,-0.05315 1.6044,-0.12356 2.38176,-0.21459l0.74137,-0.09891c0,0 0.77068,-0.1027 0.88077,0.61616c0.1101,0.71886 -0.66058,0.82155 -0.66058,0.82155l-0.76844,0.10228c-1.63004,0.18926 -3.34666,0.29212 -5.06916,0.33649c-1.55179,1.02428 -3.08778,2.05522 -4.8527,2.77694c0,0 -0.71323,0.29106 -1.02526,-0.37421c-0.31204,-0.66528 0.40119,-0.95633 0.40119,-0.95633c0.96754,-0.39397 1.86792,-0.88624 2.74127,-1.421c-0.93253,-0.00538 -1.85401,-0.02383 -2.75126,-0.05075c-0.15241,0.02748 -0.33155,0.01247 -0.51618,-0.10449c-0.13222,-0.06581 -0.26369,-0.17461 -0.32915,-0.35434c-0.08383,-0.17297 -0.0675,-0.3362 -0.01915,-0.46852c0.05091,-0.21024 0.17755,-0.33692 0.3144,-0.41322l0.07392,-0.06548c0.62345,-0.44486 1.29558,-0.79294 1.98434,-1.10179c-0.60936,-0.00709 -1.22019,-0.01073 -1.83321,-0.01073h-0.32985c-0.16024,0.02806 -0.35287,0.01487 -0.53907,-0.11527c-0.12921,-0.07115 -0.2512,-0.18622 -0.30785,-0.37234c-0.07778,-0.17935 -0.05722,-0.34005 -0.00206,-0.4702c0.06124,-0.20901 0.20423,-0.32968 0.34895,-0.39935c0.96283,-0.70307 1.83822,-1.43027 2.72693,-2.13631c-1.07538,0.01271 -2.14749,0.10362 -3.21804,0.35339c0,0 -0.75526,0.17612 -0.94407,-0.52836c-0.18881,-0.70447 0.56644,-0.8806 0.56644,-0.8806c1.82272,-0.42481 3.64347,-0.43176 5.47585,-0.35298c0.55486,-0.38125 1.13758,-0.74486 1.76796,-1.08193l0.46947,-0.2202c0,0 0.69631,-0.32475 1.04446,0.32475zM251.18761,205.06284c0.95635,-0.47157 1.84313,-1.04871 2.56406,-1.90442c-1.13152,-0.01251 -2.25635,-0.09386 -3.37635,-0.15429c-0.88023,0.6316 -1.6922,1.30645 -2.53518,1.98582c1.11919,0.01289 2.23361,0.03788 3.34747,0.07289zM248.90579,207.54803c0.84488,0.00791 1.69991,0.00533 2.55503,-0.01158c0.49253,-0.32556 0.98775,-0.649 1.49327,-0.95971c-0.5659,-0.02334 -1.13127,-0.04403 -1.69674,-0.06191c-0.77446,0.34317 -1.56929,0.66021 -2.35157,1.03321z" fill="#efdee9" stroke="none" stroke-width="0.5"/><path d="M253.18438,200.5529c0.34815,0.64949 -0.34815,0.97425 -0.34815,0.97425l-0.29899,0.1385c0.58086,0.02672 1.16352,0.04621 1.7484,0.04816l0.77317,0.13261c0.1166,0.00085 0.24772,0.03068 0.39271,0.10506c0.01252,0.00643 0.0247,0.01296 0.03653,0.01958c0.11374,0.06032 0.23644,0.15482 0.30845,0.29939c0.07397,0.1437 0.0743,0.29212 0.05202,0.41238c-0.00203,0.01272 -0.00436,0.02564 -0.00699,0.03875c-0.03186,0.15846 -0.09434,0.27514 -0.1723,0.36078c-0.56016,0.8865 -1.22206,1.54669 -1.9472,2.07654c0.46391,0.02038 0.92829,0.04224 1.39344,0.06539c0.13679,-0.02277 0.29632,-0.007 0.47374,0.08345c0.13334,0.05565 0.27749,0.152 0.35984,0.31835c0.09326,0.16125 0.0894,0.32664 0.05712,0.45952c-0.03626,0.23438 -0.15657,0.37708 -0.29384,0.46383l-0.3208,0.34934c-0.32652,0.16364 -0.64599,0.33587 -0.96013,0.51447c0.80752,-0.05315 1.6044,-0.12356 2.38176,-0.21459l0.74137,-0.09891c0,0 0.77068,-0.1027 0.88077,0.61616c0.1101,0.71886 -0.66058,0.82155 -0.66058,0.82155l-0.76844,0.10228c-1.63004,0.18926 -3.34666,0.29212 -5.06916,0.33649c-1.55179,1.02428 -3.08778,2.05522 -4.8527,2.77694c0,0 -0.71323,0.29106 -1.02526,-0.37421c-0.31204,-0.66528 0.40119,-0.95633 0.40119,-0.95633c0.96754,-0.39397 1.86792,-0.88624 2.74127,-1.421c-0.93253,-0.00538 -1.85401,-0.02383 -2.75126,-0.05075c-0.15241,0.02748 -0.33155,0.01247 -0.51618,-0.10449c-0.13222,-0.06581 -0.26369,-0.17461 -0.32915,-0.35434c-0.08383,-0.17297 -0.0675,-0.3362 -0.01915,-0.46852c0.05091,-0.21024 0.17755,-0.33692 0.3144,-0.41322l0.07392,-0.06548c0.62345,-0.44486 1.29558,-0.79294 1.98434,-1.10179c-0.60936,-0.00709 -1.22019,-0.01073 -1.83321,-0.01073h-0.32985c-0.16024,0.02806 -0.35287,0.01487 -0.53907,-0.11527c-0.12921,-0.07115 -0.2512,-0.18622 -0.30785,-0.37234c-0.07778,-0.17935 -0.05722,-0.34005 -0.00206,-0.4702c0.06124,-0.20901 0.20423,-0.32968 0.34895,-0.39935c0.96283,-0.70307 1.83822,-1.43027 2.72693,-2.13631c-1.07538,0.01271 -2.14749,0.10362 -3.21804,0.35339c0,0 -0.75526,0.17612 -0.94407,-0.52836c-0.18881,-0.70447 0.56644,-0.8806 0.56644,-0.8806c1.82272,-0.42481 3.64347,-0.43176 5.47585,-0.35298c0.55486,-0.38125 1.13758,-0.74486 1.76796,-1.08193l0.46947,-0.2202c0,0 0.69631,-0.32475 1.04446,0.32475zM251.18761,205.06284c0.95635,-0.47157 1.84313,-1.04871 2.56406,-1.90442c-1.13152,-0.01251 -2.25635,-0.09386 -3.37635,-0.15429c-0.88023,0.6316 -1.6922,1.30645 -2.53518,1.98582c1.11919,0.01289 2.23361,0.03788 3.34747,0.07289zM248.90579,207.54803c0.84488,0.00791 1.69991,0.00533 2.55503,-0.01158c0.49253,-0.32556 0.98775,-0.649 1.49327,-0.95971c-0.5659,-0.02334 -1.13127,-0.04403 -1.69674,-0.06191c-0.77446,0.34317 -1.56929,0.66021 -2.35157,1.03321z" fill="none" stroke="#000000" stroke-width="1"/></g></g><path d="M227.46826,186.51569l6.79417,-4.6776l-1.02452,-5.63323c0,0 7.02252,-2.51425 9.14867,-3.16942c1.02638,-0.31628 2.92987,-0.55255 2.92987,-0.55255c0,0 4.8301,1.3333 8.225,4.59817c2.52547,2.42875 4.39807,6.72336 4.94145,8.5268c0.26048,0.8645 -0.61152,3.07956 -1.07187,4.83463c-0.36479,1.3907 -0.21027,2.32414 -0.86771,3.25527c-1.52455,2.15926 -3.62386,1.97193 -3.62386,1.97193c0,0 -1.48513,0.12929 -2.12225,-0.03583c-0.82815,-0.21461 -2.42558,-1.14277 -2.42558,-1.14277c0,0 -14.16078,-1.22756 -17.20345,-2.32192c-3.48629,-1.25392 -3.69991,-5.6535 -3.69991,-5.6535z" fill="none" stroke="#000000" stroke-width="1" stroke-linecap="round"/><path d="M256.694,193.40634l1.13236,-4.22492l2.58826,2.11246l-2.2108,2.91722z" fill="#feecf7" stroke="#000000" stroke-width="1" stroke-linecap="round"/><path d="M239.81639,178.76999l0.2157,5.38176c0,0 -3.85329,1.91321 -4.85304,2.42265c-0.44708,0.22782 -0.98846,0.82352 -1.00595,1.14418c-0.04985,0.91465 -0.28812,5.2854 -0.28812,5.2854" fill="none" stroke="#000000" stroke-width="1" stroke-linecap="round"/><path d="M247.14978,182.03928c0,0 1.44389,2.13519 1.82674,2.70135c0.17555,0.2596 0.31392,0.77512 0.23574,1.00605c-0.29534,0.87234 -2.1164,6.25137 -2.1164,6.25137" fill="none" stroke="#000000" stroke-width="1" stroke-linecap="round"/><path d="M231.56632,188.62814l2.58825,3.26928l3.07356,-1.35802l3.1814,2.21305l3.72061,-2.9675l1.88727,1.96158l1.4559,-1.71009l0.91667,3.97344l-2.15688,1.96158l-3.18139,-0.85505l-2.37257,2.41425l-3.50493,-2.51484l-4.15199,2.01187l-2.80395,-2.31365l-2.31865,0.70415c0,0 -1.05433,-2.0456 -2.00287,-2.66178c-1.05351,-0.68437 -4.03639,-1.26136 -4.03639,-1.26136c0,0 1.44701,-1.37139 1.50342,-2.15302c0.06744,-0.93453 -1.12596,-3.07785 -1.12596,-3.07785l3.50493,0.30178l1.67159,-1.15682l0.91667,3.87285z" fill="#feecf7" stroke="#000000" stroke-width="1" stroke-linecap="round"/><g stroke="#000000" stroke-width="1" stroke-linecap="round"><path d="M230.97319,182.94463l-0.37746,-6.73977l14.18149,-1.71009l3.18139,-3.62137l3.9363,2.76633l6.30888,-2.51485l-0.26961,8.04748l-3.1814,-0.40237l-3.28925,2.36395l-3.01963,-1.76039l-3.77454,3.47047l-1.13235,-2.51484l-3.39709,2.81662l-2.42649,-2.16276l-1.83335,2.01187l-2.31865,-1.71009z" fill="#feecf7"/><path d="M243.7527,175.80248l0.80883,-0.90534" fill="none"/></g><g stroke="#000000" stroke-linecap="round"><path d="M246.55665,195.97146l1.50982,-1.91127c0,0 1.7809,1.86295 4.47718,1.77892c3.69521,-0.11515 4.52778,-2.48308 4.52778,-2.48308c0,0 2.61031,2.28182 2.07801,3.55337c-0.40097,0.95788 -4.04323,6.70408 -6.39327,6.82519c-2.18403,0.02125 -5.76816,-5.80154 -5.76816,-5.80154z" fill="#4ea5eb" stroke-width="0"/><path d="M248.06646,194.06021c0,0 1.7809,1.86295 4.47718,1.77892c3.69521,-0.11515 4.52778,-2.48308 4.52778,-2.48308c0,0 2.61031,2.28181 2.07801,3.55337c-0.3593,0.85826 -3.32072,5.56067 -5.62324,6.61659c0.15161,-0.58278 0.69326,-5.14342 0.69326,-5.14342c0,0 -3.44232,-1.52257 -4.73161,-2.36637c-0.55974,-0.36633 -1.00197,-1.15956 -1.47071,-1.89358z" fill="#2e67e5" stroke-width="0"/><path d="M246.55664,195.97148l1.50982,-1.91127c0,0 1.7809,1.86295 4.47718,1.77892c3.69521,-0.11515 4.52778,-2.48308 4.52778,-2.48308c0,0 2.61031,2.28181 2.07801,3.55337c-0.40099,0.95788 -4.04323,6.70408 -6.39327,6.82519c-2.18403,0.02125 -5.76815,-5.80154 -5.76815,-5.80154" fill="none" stroke-width="1"/></g></g><path d="M192.06803,227.93197v-95.86394h95.86394v95.86394z" fill="none" stroke="none" stroke-width="0" stroke-linecap="butt"/><g stroke="#000000"><g stroke-linecap="butt"><path d="M263.46796,171.39645l0.6089,-2.26194c0,0 9.08848,-0.76358 11.11483,0.29431c1.42252,0.74265 1.36693,5.00489 -1.25271,5.50391c-3.48859,0.66456 -10.47102,-3.53629 -10.47102,-3.53629z" fill="#0066cd" stroke-width="0"/><path d="M263.46797,171.39645l0.21612,-0.80281c0,0 2.04982,0.21542 4.07606,0.61526c1.5661,0.30905 2.92747,0.76957 4.51107,1.06757c1.88344,0.35445 3.69949,0.55188 3.67546,0.63389c-0.28499,0.97322 -0.92893,1.81685 -2.00768,2.02236c-3.48859,0.66457 -10.47103,-3.53629 -10.47103,-3.53629z" fill="#061483" stroke-width="0"/><path d="M263.46797,171.39645l0.6089,-2.26194c0,0 9.08848,-0.76357 11.11483,0.29432c1.42253,0.74265 1.36693,5.00489 -1.25271,5.50391c-3.48859,0.66457 -10.47103,-3.53629 -10.47103,-3.53629z" fill="none" stroke-width="1"/></g><g stroke-linecap="round"><path d="M223.9981,175.43415c0,0 -9.09268,-24.49001 13.70539,-24.89263c23.37578,-0.41284 19.93581,20.29841 19.93581,20.29841c0,0 5.94536,-5.15699 6.87361,-4.63919c0.7835,0.43707 -0.31304,5.4525 -1.05659,7.38219c-0.54944,1.42591 -1.27056,4.49104 -2.64347,4.7216c-0.86414,0.14511 -4.55028,-2.56098 -4.55028,-2.56098c0,0 -7.3021,4.44245 -14.07031,6.04117c-6.6835,1.57871 -16.35813,0.87934 -16.35813,0.87934c0,0 -7.19148,-0.55964 -7.45606,-3.01721c-0.22544,-2.09404 5.62001,-4.21269 5.62001,-4.21269z" fill="#fde0be" stroke-width="0"/><path d="M252.21434,177.9424c-0.03349,0.01672 -1.35689,-2.05246 -1.35689,-2.05246l-3.1147,2.66688l-5.09135,-7.08239l-6.71222,4.53337l-1.16868,-6.49333c0,0 -11.40841,3.85539 -11.41649,3.82528c-1.59519,-5.9365 -4.34783,-22.46804 14.34946,-22.79826c23.37578,-0.41284 19.93581,20.29841 19.93581,20.29841c0,0 5.36403,4.05444 5.30801,4.21797c-0.49232,1.43748 -1.14368,3.08025 -2.13448,3.24664c-0.86414,0.14511 -4.55028,-2.56098 -4.55028,-2.56098c0,0 -1.62314,0.98747 -4.04819,2.19885z" fill="#fc988a" stroke-width="0"/><path d="M258.08192,172.30709l3.02834,-1.51l-0.99953,5.00954z" fill="#f79587" stroke-width="0.5"/><path d="M237.70345,150.54153c23.37578,-0.41284 19.93581,20.29841 19.93581,20.29841c0,0 5.94536,-5.15699 6.87361,-4.63919c0.7835,0.43707 -0.31304,5.4525 -1.05659,7.38219c-0.54944,1.42591 -1.27056,4.49104 -2.64347,4.7216c-0.86414,0.14511 -4.55028,-2.56098 -4.55028,-2.56098c0,0 -7.3021,4.44245 -14.07031,6.04117c-6.6835,1.57871 -16.35813,0.87934 -16.35813,0.87934c0,0 -7.19148,-0.55964 -7.45606,-3.01721c-0.22544,-2.09404 5.62001,-4.21269 5.62001,-4.21269c0,0 -9.09267,-24.49 13.7054,-24.89262z" fill="none" stroke-width="1"/></g><g stroke-linecap="round"><path d="M263.55197,163.41789c0,0 -1.75474,3.48234 -2.81722,4.91628c-0.91749,1.23824 -3.18674,3.18669 -3.18674,3.18669c0,0 -10.97014,-4.69159 -18.46694,-5.30194c-7.65746,-0.62343 -17.48484,0.53533 -17.48484,0.53533c0,0 -4.25946,-17.73117 -0.74848,-20.53373c2.55652,-2.0407 10.05177,-4.15402 17.43081,-3.83215c3.36317,0.1467 12.97931,0.66739 16.19857,3.62413c4.31465,3.96283 9.07485,17.40536 9.07485,17.40536z" fill="#ff292e" stroke-width="0"/><path d="M263.55197,163.41789c0,0 -1.75475,3.48235 -2.81722,4.91628c-0.91749,1.23824 -3.18673,3.18669 -3.18673,3.18669c0,0 -5.31255,-2.27201 -11.07014,-3.85956c-0.15072,-0.04156 1.89927,-14.17662 4.65328,-19.81893c0.91196,-1.86841 2.54514,-2.56543 3.34598,-1.82988c4.31465,3.96284 9.07485,17.40537 9.07485,17.40537z" fill="#ac0e49" stroke-width="0.5"/><path d="M260.73473,168.33418c-0.91749,1.23824 -3.18673,3.18669 -3.18673,3.18669c0,0 -10.97014,-4.69159 -18.46694,-5.30193c-7.65746,-0.62343 -17.48483,0.53533 -17.48483,0.53533c0,0 -4.25946,-17.73118 -0.74848,-20.53373c2.55653,-2.0407 10.05177,-4.15402 17.43081,-3.83215c3.36317,0.1467 12.97931,0.66738 16.19855,3.62412c4.31465,3.96284 9.07485,17.40537 9.07485,17.40537c0,0 -1.75474,3.48234 -2.81722,4.91627z" fill="none" stroke-width="1"/></g><g stroke-linecap="round"><path d="M222.61182,172.39985c0,0 -3.80716,1.10893 -5.53574,1.84844c-1.75506,0.75086 -4.91644,2.62324 -4.91644,2.62324c0,0 1.43696,-3.92839 2.43127,-5.71279c0.94427,-1.69462 3.39219,-4.73819 3.39219,-4.73819l-9.49908,1.07686c0,0 8.2416,-13.06731 11.76087,-14.77173c2.09894,-1.01652 10.27987,3.66511 10.27987,3.66511c0,0 1.14496,-2.7383 1.96633,-4.02743c0.74797,-1.17389 2.76236,-3.39406 2.76236,-3.39406c0,0 1.79672,6.05538 2.96886,8.9733c1.22112,3.03975 4.21702,8.91467 4.21702,8.91467l14.84058,4.24798l-1.03998,6.74799l-5.99001,-5.91387l-2.43218,3.58996l-5.3784,-8.67208l-4.75369,4.32177l-1.35768,-5.02024c0,0 -10.87488,3.10287 -13.28083,4.42592c-0.65585,0.36065 -0.43528,1.81517 -0.43528,1.81517z" fill="#4fa6ec" stroke-width="0"/><path d="M225.30762,163.03516l-13.14799,13.83639c0,0 1.43696,-3.92839 2.43126,-5.71279c0.94426,-1.69462 3.39219,-4.73819 3.39219,-4.73819l-9.49907,1.07685c0,0 8.24159,-13.06731 11.76087,-14.77173c2.09893,-1.01654 10.27988,3.66511 10.27988,3.66511c0,0 1.14495,-2.73831 1.96632,-4.02743c0.74797,-1.17389 2.76236,-3.39405 2.76236,-3.39405l-1.96225,11.95045c0,0 -9.21246,-3.99689 -11.39527,-3.57724c-3.42584,0.65859 -7.94051,7.86218 -7.94051,7.86218z" fill="#66ffff" stroke-width="0"/><path d="M247.58324,169.94769l-0.52889,4.35078l-3.25888,-5.25458z" fill="#66ffff" stroke-width="0"/><path d="M212.15965,176.87157c0,0 1.43696,-3.92839 2.43126,-5.71279c0.94426,-1.69462 3.39219,-4.73819 3.39219,-4.73819l-9.49907,1.07685c0,0 8.24159,-13.06731 11.76087,-14.77173c2.09893,-1.01654 10.27988,3.66511 10.27988,3.66511c0,0 1.14495,-2.73831 1.96632,-4.02743c0.74797,-1.17389 2.76236,-3.39405 2.76236,-3.39405c0,0 1.79669,6.05537 2.96884,8.97329c1.22112,3.03976 4.21702,8.91467 4.21702,8.91467l14.84058,4.24798l-1.03998,6.74799l-5.99001,-5.91386l-2.43219,3.58996l-5.37841,-8.67208l-4.7537,4.32177l-1.35768,-5.02024c0,0 -10.87488,3.10287 -13.28083,4.42592c-0.65585,0.36065 -0.43528,1.81517 -0.43528,1.81517c0,0 -3.80714,1.10893 -5.53573,1.84844c-1.7286,0.73954 -4.91644,2.62321 -4.91644,2.62321z" fill="none" stroke-width="1"/></g></g><g><path d="M222.51661,156.98938c0,0 2.83079,5.39722 5.82942,8.75612c2.19646,2.46036 7.19831,6.80436 7.19831,6.80436c0,0 2.37457,-1.99305 5.0151,-4.57297c3.29033,-3.21483 7.15001,-7.29699 9.15974,-9.05964c2.28408,-2.00332 5.46321,-3.59133 5.46321,-3.59133c0,0 -8.09261,8.31974 -11.57174,11.74272c-0.07911,0.07783 -0.76671,2.27724 -1.17667,4.46755c-0.42692,2.28108 -0.59196,4.55416 -1.47052,4.50736c-2.51379,-0.13387 -2.12542,-4.45381 -2.73279,-3.89274c-1.29057,1.19216 -2.23472,2.05185 -2.23472,2.05185c0,0 -1.44631,-0.80482 -3.3866,-2.34174c-0.03558,-0.02817 -0.09782,0.81038 -0.0832,1.85402c0.01926,1.37629 0.0317,3.04722 -0.97742,2.94264c-0.97216,-0.10073 -1.89824,-1.75491 -2.33995,-3.79902c-0.44634,-2.06557 -0.40363,-4.52121 -0.47852,-4.60342c-4.49114,-4.92795 -6.2136,-11.26573 -6.2136,-11.26573z" fill="#000000" stroke="#000000" stroke-width="0" stroke-linecap="round"/><path d="M245.25224,175.78083c-0.868,1.19864 -1.92584,2.00608 -3.09474,2.72532c1.40114,-0.08674 2.82546,-0.30615 3.73313,-0.96213c0.66843,-0.4831 0.97786,-1.46238 1.33506,-2.29755c-0.60075,0.0422 -1.222,0.11328 -1.83989,0.16187zM232.76374,178.34179c0,0 4.68939,0.0411 6.55969,0.26112c0.14658,-0.0076 0.30089,-0.0135 0.46164,-0.01852c1.62696,-0.90957 3.14076,-1.68735 4.30872,-3.12478c-0.23311,-0.00329 -1.28808,-1.02496 -1.28808,-1.02496c0,0 3.4758,-0.26356 4.76738,-0.32158l0.48728,0.0558c0.09765,-0.01112 0.20967,0.0077 0.33176,0.08244c0.0926,0.04754 0.19192,0.12649 0.24445,0.25619c0.05989,0.12649 0.05073,0.25303 0.02302,0.35337c-0.02763,0.14022 -0.08944,0.23533 -0.16359,0.29964c-0.69418,0.9948 -0.89251,2.49518 -1.93665,3.27571c-1.76874,1.3222 -5.16089,1.18609 -7.27446,1.28106c-0.81076,-0.09539 -2.87498,-0.20202 -4.11971,-0.43832c-1.63563,-0.31051 -2.40148,-0.93719 -2.40148,-0.93719z" fill="#000000" stroke="none" stroke-width="0.5" stroke-linecap="butt"/><path d="M245.40962,175.35795c0.61789,-0.04861 1.2622,-0.09942 1.86295,-0.14163c-0.3572,0.83517 -0.66479,1.87173 -1.33324,2.35483c-0.90765,0.65599 -2.42758,0.87842 -3.82872,0.96515c1.16891,-0.71923 2.29904,-1.60647 3.16703,-2.80512z" data-paper-data="{&quot;noHover&quot;:false,&quot;origItem&quot;:[&quot;Path&quot;,{&quot;applyMatrix&quot;:true,&quot;segments&quot;:[[[815.6142,327.59136],[0,0],[-1.65831,2.07269]],[[809.83498,332.20743],[2.15617,-1.1879],[2.51774,-0.03472]],[[816.60604,330.80527],[-1.68264,1.09707],[1.23918,-0.80793]],[[819.1958,326.80402],[-0.7119,1.46551],[-1.07993,0.02386]],[[815.88553,326.93555],[1.1112,-0.03384],[0,0]]],&quot;closed&quot;:true}]}" fill="#ffffff" stroke="none" stroke-width="0.5" stroke-linecap="butt"/></g><path d="M248.50662,174.60475l1.06348,2.93615l8.65975,-3.20307l-1.82311,3.67019l2.88659,2.20211l-5.01353,-0.06673l-1.82311,1.40134l-3.6462,-1.40134l-4.55776,3.60346l-0.68366,-2.6025c0,0 1.76968,-2.77916 2.64883,-3.94354c0.7441,-0.98553 2.28876,-2.59607 2.28876,-2.59607z" fill="#feecf7" stroke="#000000" stroke-width="1" stroke-linecap="round"/></g></g></svg>