<svg version="1.1" xmlns="http://www.w3.org/2000/svg" xmlns:xlink="http://www.w3.org/1999/xlink" width="127.66667" height="127.66667" viewBox="0,0,127.66667,127.66667"><g transform="translate(-176.16667,-116.16666)"><g data-paper-data="{&quot;isPaintingLayer&quot;:true}" fill-rule="nonzero" stroke-linejoin="miter" stroke-miterlimit="10" stroke-dasharray="" stroke-dashoffset="0" style="mix-blend-mode: normal"><g><path d="M203.5683,189.93481c-0.00242,0.00031 -0.00369,0.00044 -0.00369,0.00044l-0.55876,-0.12947c-0.95268,-0.97032 -0.67123,-2.29975 -0.0896,-3.45389c1.63864,-1.65072 5.52432,-6.43966 8.11061,-3.55759c1.2227,1.36254 1.32128,3.36444 1.93054,5.00586c0.70797,6.62115 -5.7528,3.83716 -9.38908,2.13465z" fill="#323344" stroke="#000000" stroke-width="1" stroke-linecap="butt"/><path d="M231.71709,182.99311c0.33267,-1.25421 1.45704,-4.29306 2.65208,-4.99686c3.40859,-2.00745 4.97782,1.6239 5.50827,4.12178c0.23944,2.35664 -0.61234,6.19407 -2.68047,9.07606c-1.42596,1.98712 -3.72092,3.33543 -5.14527,4.14995c-0.4858,0.27781 -2.08276,0.2436 -4.47079,-2.79522c-2.23301,-2.84156 -3.8519,-7.23269 -2.77334,-8.08051c0.92815,-0.72959 6.67864,-0.59435 6.67864,-0.59435z" fill="#dc94e7" stroke="#000000" stroke-width="1" stroke-linecap="butt"/><path d="M228.33565,187.72849c0.05877,0.03475 0.09285,0.06264 0.09285,0.06264l0.74696,0.70412c0.38382,0.78163 0.43654,1.51689 0.52302,2.22882c0.10644,0.87627 0.16015,1.72766 -0.31425,2.71299c-3.44846,5.7151 -14.15932,8.49817 -15.07335,-0.61908c-0.36235,-3.80503 3.06963,-5.33381 6.7842,-5.77494c2.53088,-0.30056 5.18213,-0.20428 6.89617,0.44394c0,0 0.19133,0.07283 0.34439,0.24151z" fill="#f89688" stroke="#000000" stroke-width="1" stroke-linecap="butt"/><path d="M209.95173,184.63484c-0.66821,-0.25214 -0.48359,-0.97868 -0.48359,-0.97868c0.49516,-1.9428 3.33548,-6.14779 5.72038,-5.29381c2.44582,0.8758 1.3269,3.35246 2.82182,4.76926c0.70429,0.66749 2.55557,0.4983 3.47139,0.73139c0.48175,1.0084 0.68856,1.17223 0.76912,2.2355c0.14223,1.8772 -1.19238,3.15868 -3.11808,2.92652c-3.08442,-0.37185 -5.14138,-3.49867 -8.20842,-3.96851l-0.32017,-0.02931c0,0 -0.44505,-0.04352 -0.65245,-0.39235z" fill="#fcdfbd" stroke="none" stroke-width="0.5" stroke-linecap="butt"/><path d="M221.48174,183.863c0.48175,1.0084 0.68856,1.17223 0.76912,2.23551c0.14222,1.87721 -1.19238,3.15868 -3.11808,2.92652c-2.38211,-0.28718 -4.15139,-2.21758 -6.24643,-3.29821c0.74672,-0.19225 1.43198,-0.36529 1.9563,-0.41714c0.57254,-0.05663 1.04406,0.14581 1.49641,0.41017c0.50495,0.56701 1.23458,0.92141 2.0322,0.93508c0.32234,0.02639 0.67644,-0.01864 1.07782,-0.17238c0.11292,-0.04326 0.22555,-0.10496 0.33611,-0.18237c0.87724,-0.49199 1.44789,-1.43979 1.42442,-2.49179c0.09742,0.0155 0.18865,0.0334 0.27212,0.05465z" fill="#f89688" stroke="none" stroke-width="0.5" stroke-linecap="butt"/><path d="M209.95173,184.63484c-0.66821,-0.25214 -0.48359,-0.97868 -0.48359,-0.97868c0.49516,-1.9428 3.33548,-6.14779 5.72037,-5.29381c2.44581,0.8758 1.3269,3.35245 2.82182,4.76925c0.70428,0.66748 2.55556,0.4983 3.47139,0.7314c0.48175,1.0084 0.68856,1.17223 0.76912,2.23551c0.14222,1.87721 -1.19238,3.15868 -3.11808,2.92652c-3.08441,-0.37185 -5.14138,-3.49867 -8.20842,-3.96851l-0.32017,-0.02933c0,0 -0.44505,-0.04352 -0.65245,-0.39234z" fill="none" stroke="#000000" stroke-width="1" stroke-linecap="butt"/><path d="M210.54595,182.4008c0.05561,0.55474 -0.49913,0.61035 -0.49913,0.61035l-0.08534,0.00856c-3.4401,0.34488 -5.83489,2.94779 -5.86325,6.46835c0,0 -0.00189,0.17602 -0.10245,0.32918l0.08756,0.26524c0,0 -0.34248,0.4188 -0.76525,0.09394c-0.07297,-0.00307 -0.14595,-0.00613 -0.21892,-0.0092c0,0 -0.31514,-0.01323 -0.46138,-0.25683c-0.31465,-0.1059 -0.35165,-0.47496 -0.35165,-0.47496l-0.01118,-0.15458c0.12368,-5.05371 2.48442,-7.37748 7.35328,-7.86559c0,0 0.55474,-0.05561 0.61035,0.49913c0.00128,0.01277 0.00224,0.02527 0.00289,0.03751c0.13882,0.0594 0.27805,0.18518 0.30449,0.4489z" fill="#455d83" stroke="none" stroke-width="0.5" stroke-linecap="butt"/><path d="M204.13821,188.76551c-0.50409,-0.23181 -1.0572,-0.34638 -1.58411,-0.311c-0.07345,-0.0356 -0.15032,-0.06491 -0.22987,-0.08727c0.1406,-1.64289 0.55466,-2.96135 1.2536,-3.99319c0.47928,0.56785 0.94406,1.1543 1.40834,1.73303c-0.45248,0.77927 -0.74589,1.67634 -0.84796,2.65842z" fill="#85afb1" stroke="none" stroke-width="0.5" stroke-linecap="butt"/><path d="M205.41621,182.64663c0.38362,0.57701 0.89871,1.14019 1.349,1.52492c-0.41111,0.28735 -0.78251,0.62157 -1.10857,0.99694c-0.44842,-0.55629 -0.89668,-1.11607 -1.3585,-1.66055c0.33109,-0.3259 0.70358,-0.61232 1.11808,-0.86132z" fill="#85afb1" stroke="none" stroke-width="0.5" stroke-linecap="butt"/><path d="M210.54595,182.40081c0.05561,0.55474 -0.49913,0.61035 -0.49913,0.61035l-0.08534,0.00856c-3.4401,0.34488 -5.83489,2.94779 -5.86326,6.46835c0,0 -0.00189,0.17602 -0.10245,0.32918l0.08756,0.26525c0,0 -0.34247,0.4188 -0.76525,0.09394c-0.07297,-0.00307 -0.14595,-0.00613 -0.21892,-0.0092c0,0 -0.31514,-0.01324 -0.46138,-0.25683c-0.31466,-0.10589 -0.35166,-0.47496 -0.35166,-0.47496l-0.01118,-0.15458c0.12368,-5.05371 2.48441,-7.37748 7.35328,-7.86559c0,0 0.55474,-0.05561 0.61035,0.49913c0.00128,0.01276 0.00224,0.02527 0.00289,0.03752c0.13882,0.0594 0.27805,0.18518 0.30449,0.4489z" fill="none" stroke="#000000" stroke-width="1" stroke-linecap="butt"/><path d="M220.2852,191.37875c0,0 3.13877,-0.25959 3.80269,1.46815c0.5327,1.38625 -0.62461,2.58316 -1.22051,3.73299c-1.41045,2.72149 -3.48688,7.2794 -7.15724,5.0899c-0.77657,-0.56594 -1.37139,-1.17559 -2.03162,-1.8689l-0.08839,-0.07079c-1.02962,0.63364 -2.08609,0.78491 -2.7754,0.24392c-0.72976,-0.57273 -1.45003,-1.84491 -2.1178,-2.7162c-1.44918,0.37322 -3.02992,0.77786 -4.29621,-0.02407c-1.21781,-0.77122 -1.05601,-1.86756 -1.1797,-3.10132c-0.34645,-3.45582 1.50535,-6.48268 4.48214,-8.21611c1.45007,-1.06503 2.90375,-2.66507 4.80544,-2.96593c1.33744,-0.21159 2.23635,0.49675 2.86917,1.37613c0.73013,1.01461 1.06197,2.31084 0.58527,3.56393c1.25337,0.08687 2.52255,0.67898 3.42723,1.48848c0.88588,0.79269 0.59096,1.22615 0.8949,1.99983z" fill="#fde0be" stroke="none" stroke-width="0.5" stroke-linecap="butt"/><path d="M224.08789,192.84691c0.5327,1.38627 -0.6246,2.58316 -1.22052,3.73298c-1.41046,2.72149 -3.48688,7.27941 -7.15724,5.0899c-0.77657,-0.56594 -1.37139,-1.17559 -2.03161,-1.8689l-0.08839,-0.07079c-1.02962,0.63364 -2.08609,0.78491 -2.7754,0.24392c-0.72976,-0.57273 -1.45002,-1.84492 -2.11779,-2.71621c-1.44918,0.37322 -3.02991,0.77786 -4.2962,-0.02407c-1.21782,-0.77123 -1.05601,-1.86756 -1.1797,-3.10132c-0.1159,-1.1561 0.01421,-2.2642 0.35017,-3.29192c0.08718,0.17744 0.14907,0.35538 0.15493,0.54437l0.00689,0.00621c0.02665,1.15117 0.48435,2.02423 1.19092,2.55622c0.55884,0.48202 1.30684,0.74254 2.09912,0.66312c0.28667,-0.02874 0.55883,-0.09995 0.81085,-0.20677c0.27637,-0.0731 0.55658,-0.17559 0.83711,-0.30864c1.22,-0.57866 2.88001,-1.76896 4.4108,-3.23267c-0.23914,0.92023 -0.42154,1.82997 -0.53142,2.56778c-0.11222,0.35209 -0.15585,0.73239 -0.11664,1.12349c0.02336,0.23297 0.07476,0.45635 0.15053,0.66713c0.15858,1.58182 1.44483,2.00508 2.68058,1.84196c0.0731,-0.00159 0.14669,-0.00603 0.22067,-0.01345c0.61028,-0.06118 1.15477,-0.31485 1.57932,-0.69478c0.14067,-0.10875 0.26086,-0.22544 0.35467,-0.34718c0.10578,-0.1373 0.21667,-0.29017 0.33109,-0.456c0.21816,0.10088 -0.69095,2.23223 -0.45454,2.27548c0.6995,0.12801 2.59812,-2.07638 3.3044,-2.6392c0.5659,-0.45095 0.9057,-0.93674 1.07075,-1.42567c0.24983,-0.4697 0.36818,-1.01594 0.31113,-1.58503c-0.02581,-0.25744 -0.08587,-0.50317 -0.17521,-0.73314c0.90074,0.13657 1.93202,0.49581 2.28072,1.4032z" fill="#f89688" stroke="none" stroke-width="0.5" stroke-linecap="butt"/><path d="M220.2852,191.37875c0,0 3.13877,-0.25959 3.80269,1.46815c0.5327,1.38627 -0.6246,2.58316 -1.22052,3.73298c-1.41046,2.72149 -3.48688,7.27941 -7.15724,5.0899c-0.77657,-0.56594 -1.37139,-1.17559 -2.03161,-1.8689l-0.08839,-0.07079c-1.02962,0.63364 -2.08609,0.78491 -2.7754,0.24392c-0.72976,-0.57273 -1.45002,-1.84492 -2.11779,-2.71621c-1.44918,0.37322 -3.02991,0.77786 -4.2962,-0.02407c-1.21782,-0.77123 -1.05601,-1.86756 -1.1797,-3.10132c-0.34645,-3.45582 1.50534,-6.48268 4.48212,-8.21611c1.45007,-1.06503 2.90375,-2.66507 4.80545,-2.96594c1.33744,-0.21159 2.23635,0.49675 2.86915,1.37613c0.73013,1.01461 1.06197,2.31084 0.58527,3.56393c1.25338,0.08687 2.52255,0.67898 3.42723,1.48849c0.88589,0.79268 0.59096,1.22615 0.8949,1.99983z" fill="none" stroke="#000000" stroke-width="1" stroke-linecap="butt"/><path d="M216.24152,188.19511l-4.91045,3.92889" fill="none" stroke="#000000" stroke-width="1" stroke-linecap="round"/><path d="M220.02211,191.62626l-3.187,3.98024" fill="none" stroke="#000000" stroke-width="1" stroke-linecap="round"/><path d="M195.06826,182.35772c-0.4749,-4.73702 2.51929,-9.26073 7.25632,-9.73563c2.53067,-0.2537 4.11193,0.70717 5.73638,2.2363c0.54729,0.51518 1.41106,1.53689 1.94239,2.65588c0.84364,1.77669 0.62413,3.64874 0.535,3.94285c-0.07098,0.2342 -3.11433,-1.16785 -5.80089,1.41863c-2.74032,2.63825 -2.92919,6.95242 -2.92919,6.95242c0,0 -2.2207,-0.18453 -3.74821,-1.33022c-1.70212,-1.27667 -2.7415,-3.64365 -2.99179,-6.14024z" fill="#465e85" stroke="#000000" stroke-width="0" stroke-linecap="butt"/><path d="M195.06826,182.35772c-0.05963,-0.5948 -0.06456,-1.18623 -0.01822,-1.76671c0.05461,0.07742 0.11682,0.14882 0.18542,0.21324l0.00632,0.02062l0.03772,0.01901c0.17918,0.15453 0.39726,0.26352 0.63513,0.31135l0.23323,0.05261l0.14269,-0.0033l0.13344,0.07085l0.08549,0.02121l0.07225,0.05035l0.09426,0.03588l0.00909,0.01275l0.03961,0.00579l0.03629,0.01382l0.31801,0.03795l0.3169,0.04629l0.03865,-0.00387l0.03975,0.00475l0.01209,-0.00995l0.02906,-0.00291l0.03076,0.02144l0.09426,0.03588l0.00909,0.01275l0.03961,0.00579l0.03629,0.01382l0.31801,0.03795l0.3169,0.04629l0.03865,-0.00387l0.03975,0.00475l0.01209,-0.00995l7.15979,-0.71778l0.03707,0.00442l0.3169,0.04629l0.03865,-0.00387l0.03975,0.00475l0.01209,-0.00995l0.21678,-0.02173l0.0237,0.01195l0.52919,0.11936l0.17611,-0.00408l0.30261,0.0361l0.3169,0.04629l0.03865,-0.00387l0.03975,0.00475l0.01209,-0.00995l0.47281,-0.0474l0.0237,0.01195l0.16796,0.03788l0.18093,0.06887l0.00909,0.01275l0.03961,0.00579l0.03629,0.01382l0.26603,0.03175c-1.13707,-0.04893 -2.70637,0.17649 -4.16983,1.58544c-2.74032,2.63825 -2.92919,6.95242 -2.92919,6.95242c0,0 -2.2207,-0.18453 -3.74821,-1.33022c-1.70212,-1.27667 -2.7415,-3.64365 -2.99179,-6.14024z" fill="#323344" stroke="#000000" stroke-width="0" stroke-linecap="butt"/><path d="M199.33143,177.17614l0.00502,0.01635l-0.023,-0.00945z" fill="#323344" stroke="#000000" stroke-width="0" stroke-linecap="butt"/><path d="M195.06826,182.35772c-0.4749,-4.73703 2.5193,-9.26073 7.25632,-9.73563c2.53067,-0.2537 4.11192,0.70718 5.73637,2.2363c0.54729,0.51518 1.41105,1.53689 1.94239,2.65588c0.84363,1.77668 0.62414,3.64874 0.535,3.94285c-0.07098,0.2342 -3.11432,-1.16786 -5.80089,1.41865c-2.74032,2.63825 -2.92919,6.95242 -2.92919,6.95242c0,0 -2.22071,-0.18452 -3.74822,-1.33022c-1.70212,-1.27667 -2.7415,-3.64365 -2.99179,-6.14023z" fill="none" stroke="#000000" stroke-width="1" stroke-linecap="butt"/><path d="M200.13528,189.04765c0,0 -0.42868,-5.8891 2.41739,-8.22326c3.00933,-2.46807 7.80493,-0.73218 7.80493,-0.73218" fill="none" stroke="#000000" stroke-width="1" stroke-linecap="round"/><path d="M196.60983,186.55641c0,0 0.83274,-5.52292 3.3993,-8.68124c2.33013,-2.86736 7.70149,-2.68975 7.70149,-2.68975" fill="none" stroke="#000000" stroke-width="1" stroke-linecap="round"/><path d="M195.14055,181.35914c0,0 2.43288,-4.18146 3.91718,-5.71262c1.33923,-1.38152 4.59826,-3.07171 4.59826,-3.07171" fill="none" stroke="#000000" stroke-width="1" stroke-linecap="round"/><path d="M201.67105,187.16964c0,0 -2.64314,-0.31524 -3.68281,-0.83547c-1.01694,-0.50887 -2.48854,-2.25255 -2.48854,-2.25255" fill="none" stroke="#000000" stroke-width="1" stroke-linecap="round"/><path d="M202.59251,186.04284c0,0 -3.08027,-1.19644 -4.40145,-2.02994c-1.17754,-0.74286 -3.1444,-2.73054 -3.1444,-2.73054" fill="none" stroke="#000000" stroke-width="1" stroke-linecap="round"/><path d="M203.27484,184.25038c0,0 -3.0962,-1.57014 -4.18915,-2.7871c-1.19448,-1.32998 -2.70024,-4.88388 -2.70024,-4.88388" fill="none" stroke="#000000" stroke-width="1" stroke-linecap="round"/><path d="M198.38195,174.13799c0,0 3.18246,3.73879 4.22066,5.31737c0.86081,1.30888 1.57661,3.49752 1.57661,3.49752" fill="none" stroke="#000000" stroke-width="1" stroke-linecap="round"/><path d="M201.60772,172.78016c0,0 2.4139,2.22303 3.19622,3.601c0.82103,1.44615 1.61946,4.88128 1.61946,4.88128" fill="none" stroke="#000000" stroke-width="1" stroke-linecap="round"/><path d="M207.0191,174.30652c0,0 0.92809,1.97134 1.19127,3.05487c0.27458,1.13053 0.42346,3.59326 0.42346,3.59326" fill="none" stroke="#000000" stroke-width="1" stroke-linecap="round"/></g><g><g stroke="#000000"><path d="M254.29413,193.31798l1.75835,9.73519l-37.56842,-0.98638c0,0 0.35965,-9.54107 2.07153,-11.34553c0.59347,-0.62556 6.41997,2.03919 6.41997,2.03919l0.25732,-3.81689z" fill="#0066cd" stroke-width="0" stroke-linecap="round"/><path d="M247.75783,195.084c-1.50492,0.75211 -3.46626,1.96401 -5.55469,2.32519c-3.234,0.55932 -6.47304,0.03793 -6.47304,0.03793c0,0 0.30281,3.49312 0.18664,5.07736l-6.30755,-0.16562c0.10962,-1.29633 -0.57405,-3.71336 -1.36584,-5.89166c-0.62872,-1.72966 -1.37315,-3.35633 -1.50415,-3.81326c0.15103,0.06748 0.23634,0.1065 0.23634,0.1065l0.25732,-3.81689l20.66543,3.37873c0,0 0.43609,0.795 0.40582,1.59336c-0.01954,0.51496 -0.48353,1.15655 -0.54628,1.16833z" fill="#061483" stroke-width="0" stroke-linecap="butt"/><path d="M254.29413,193.31798l1.75835,9.73519l-37.56842,-0.98638c0,0 0.35965,-9.54107 2.07153,-11.34553c0.59347,-0.62556 6.41997,2.03919 6.41997,2.03919l0.25732,-3.81689z" fill="none" stroke-width="1" stroke-linecap="round"/><path d="M232.8081,195.67673l2.1872,1.887" fill="none" stroke-width="1" stroke-linecap="round"/></g><g><path d="M240.61342,209.63623c0,0.33519 -1.63074,2.50378 -2.85523,2.79868c-2.46242,0.59307 -7.38873,0.24178 -11.07692,0.90119c-1.33696,0.23903 -3.19606,0.44866 -4.63054,1.09762c-0.92448,0.41823 -1.74343,2.02085 -6.96282,2.16315c-3.25738,0.0888 -6.83425,-0.83198 -7.71227,-1.14691c-2.50226,-0.89751 -3.34425,-2.76549 -3.30137,-4.09828c0.01257,-0.39041 0.42812,-1.81565 1.76048,-1.48829c0.90605,0.22261 3.46358,1.84521 6.17255,2.24522c3.29288,0.48623 6.89529,0.06209 7.94157,-0.19361c2.51502,-0.61463 4.62961,-2.03761 7.06881,-2.81725c2.58159,-0.82516 5.97162,0.34968 8.04687,-0.15176c2.70956,-0.65471 3.81251,-2.83717 4.39353,-2.55589c0.93799,0.4541 1.15532,2.55874 1.15532,3.24612z" fill="#feecf7" stroke="none" stroke-width="0" stroke-linecap="butt"/><path d="M237.75819,212.4349c-2.46242,0.59306 -7.38873,0.24178 -11.07692,0.90119c-1.33696,0.23904 -3.19606,0.44867 -4.63054,1.09763c-0.92447,0.41822 -1.74343,2.02085 -6.9628,2.16315c-0.4438,0.0121 -0.89353,0.00545 -1.34155,-0.01584c-0.43617,-1.67958 -1.41883,-3.10604 -2.32625,-4.5779c0.19455,0.04094 0.39047,0.07644 0.58718,0.10547c3.29288,0.48623 6.8953,0.0621 7.94157,-0.19361c2.51503,-0.61465 4.62961,-2.03761 7.06882,-2.81725c2.58159,-0.82514 5.97162,0.34968 8.04687,-0.15176c2.70956,-0.6547 3.81251,-2.83717 4.39353,-2.55589c0.93799,0.45411 1.15532,2.55874 1.15532,3.24612c0,0.3352 -1.63074,2.50378 -2.85523,2.79868z" fill="#dd95e8" stroke="none" stroke-width="0" stroke-linecap="butt"/><path d="M240.61342,209.63623c0,0.33519 -1.63074,2.50378 -2.85523,2.79868c-2.46242,0.59307 -7.38873,0.24178 -11.07692,0.90119c-1.33696,0.23903 -3.19606,0.44866 -4.63054,1.09762c-0.92448,0.41823 -1.74343,2.02085 -6.96282,2.16315c-3.25738,0.0888 -6.83425,-0.83198 -7.71227,-1.14691c-2.50226,-0.89751 -3.34425,-2.76549 -3.30137,-4.09828c0.01257,-0.39041 0.42812,-1.81565 1.76048,-1.48829c0.90605,0.22261 3.46358,1.84521 6.17255,2.24522c3.29288,0.48623 6.89529,0.06209 7.94157,-0.19361c2.51502,-0.61463 4.62961,-2.03761 7.06881,-2.81725c2.58159,-0.82516 5.97162,0.34968 8.04687,-0.15176c2.70956,-0.65471 3.81251,-2.83717 4.39353,-2.55589c0.93799,0.4541 1.15532,2.55874 1.15532,3.24612z" fill="none" stroke="#000000" stroke-width="1" stroke-linecap="butt"/><path d="M218.35539,201.20906l-1.32948,-3.73111c0,0 2.8106,-2.12368 7.65675,-1.54147c3.72193,0.44716 5.08049,4.41485 5.08049,4.41485c0,0 3.57503,-4.04059 4.74028,-3.35392c0.51589,0.30401 2.34417,1.10802 2.97465,2.21711c1.53721,2.70415 1.80584,6.62625 1.80584,6.62625c0,0 -0.38263,2.21366 -2.79127,2.88539c-1.68043,0.46864 -4.34287,0.34385 -7.03231,0.50096c-0.85331,0.04984 -1.69638,0.03395 -2.4905,0.25952c-1.84413,0.5238 -3.42297,1.56729 -5.3759,2.2564c-1.55439,0.54848 -3.47151,0.8096 -5.04159,0.85874c-3.6108,0.11301 -7.30255,-0.80321 -10.16225,-2.30084c-1.8351,-0.96105 1.51881,-3.82844 5.17407,-5.95649c3.26663,-1.9018 6.79121,-3.1354 6.79121,-3.1354z" fill="#ff292e" stroke="#000000" stroke-width="0" stroke-linecap="round"/><path d="M227.6901,197.3114c0.56861,0.50162 1.73755,1.99339 1.90193,3.00395c0.1394,0.857 -0.70861,1.23546 -0.48498,1.75693c0.19854,0.46296 1.42806,0.16605 1.42806,0.16605c0,0 2.04695,-0.84384 3.62863,-2.29243c0.7716,-0.70667 1.64124,-2.23 1.64124,-2.23c0,0 1.33278,0.89999 1.67309,1.49863c1.53721,2.70415 1.80584,6.62625 1.80584,6.62625c0,0 -0.38263,2.21366 -2.79127,2.88539c-1.68043,0.46864 -4.34287,0.34385 -7.03231,0.50096c-0.85331,0.04984 -1.69638,0.03395 -2.4905,0.25952c-1.84413,0.5238 -3.42297,1.56729 -5.3759,2.2564c-1.55439,0.54848 -3.47151,0.8096 -5.04159,0.85874c-0.98536,0.03084 -2.95564,-0.12833 -2.95564,-0.12833c0,0 -0.45608,-2.69671 1.66501,-5.12594c2.44768,-2.80325 7.68327,-4.11214 10.44969,-6.15067c2.49395,-1.83776 1.78263,-4.05842 1.97869,-3.88545z" fill="#ac0e49" stroke="#000000" stroke-width="0" stroke-linecap="round"/><path d="M229.76313,200.30844c0,0 0.12921,1.06387 -0.40554,1.51144c-0.38839,0.32507 -1.9532,0.58999 -1.9532,0.58999" fill="none" stroke="#000000" stroke-width="1" stroke-linecap="round"/><path d="M235.05963,200.30844c0,-0.46186 0.37442,-0.83628 0.83628,-0.83628c0.46186,0 0.83628,0.37442 0.83628,0.83628c0,0.46186 -0.37442,0.83628 -0.83628,0.83628c-0.46186,0 -0.83628,-0.37442 -0.83628,-0.83628z" fill="#000000" stroke="none" stroke-width="0.5" stroke-linecap="butt"/><path d="M218.35539,201.20906l-1.32948,-3.73111c0,0 2.8106,-2.12368 7.65675,-1.54147c3.72193,0.44716 5.08049,4.41485 5.08049,4.41485c0,0 3.57503,-4.04059 4.74028,-3.35392c0.51589,0.30401 2.34417,1.10802 2.97465,2.21711c1.53721,2.70415 1.80584,6.62625 1.80584,6.62625c0,0 -0.38263,2.21366 -2.79127,2.88539c-1.68043,0.46864 -4.34287,0.34385 -7.03231,0.50096c-0.85331,0.04984 -1.69638,0.03395 -2.4905,0.25952c-1.84413,0.5238 -3.42297,1.56729 -5.3759,2.2564c-1.55439,0.54848 -3.47151,0.8096 -5.04159,0.85874c-3.6108,0.11301 -7.30255,-0.80321 -10.16225,-2.30084c-1.8351,-0.96105 1.51881,-3.82844 5.17407,-5.95649c3.26663,-1.9018 6.79121,-3.1354 6.79121,-3.1354z" fill="none" stroke="#000000" stroke-width="1" stroke-linecap="round"/><path d="M213.18761,203.43915c0,-0.2686 0.12664,-0.50764 0.32345,-0.66064c-0.14245,0.30595 -0.231,0.64203 -0.25346,0.99609c-0.04501,-0.10268 -0.06999,-0.21615 -0.06999,-0.33545z" fill="#db93e6" stroke="none" stroke-width="0.5" stroke-linecap="butt"/><path d="M221.529,200.84453c5.36301,0.04651 4.6557,6.30284 1.97676,4.47385c-0.56413,-0.38516 -1.14635,-1.13569 -1.75326,-1.58809c-0.80799,-0.60228 -2.20652,-1.18841 -3.05294,-1.67209c-0.29133,-0.13074 -0.16932,-1.01887 0.23482,-1.19223c0.40415,-0.17336 1.73335,-0.02891 2.59462,-0.02144z" fill="#f0e0ec" stroke="none" stroke-width="0.5" stroke-linecap="butt"/><path d="M221.58913,206.78426c-0.04287,0.42165 -0.399,0.75067 -0.83196,0.75067c-0.30694,0 -0.57525,-0.16535 -0.72072,-0.41184c-0.2312,-0.13211 -1.05102,-1.37107 -2.08121,-2.38367c-0.87171,-0.85682 -1.89764,-1.52796 -2.33491,-2.16462c-0.32071,-0.46696 -0.11359,-0.78023 0.33214,-0.94991c1.44435,-0.54982 6.80364,3.20573 5.63666,5.15938z" data-paper-data="{&quot;index&quot;:null}" fill="#f0e0ec" stroke="none" stroke-width="0.5" stroke-linecap="butt"/><path d="M218.84858,207.16312c0.33475,1.26692 -1.09143,2.00882 -1.79482,0.9035c-0.41897,-0.65837 -0.90974,-1.69156 -1.54123,-2.21345c-0.66411,-0.54886 -1.48386,-0.94215 -1.91308,-1.69329c-0.24648,-0.14548 -0.41184,-0.41378 -0.41184,-0.72072c0,-0.46186 0.37442,-0.83628 0.83628,-0.83628c0.25436,0 0.48222,0.11357 0.6356,0.29277c1.65607,0.45449 3.87257,3.06959 4.18909,4.2675z" fill="#f0e0ec" stroke="none" stroke-width="0.5" stroke-linecap="butt"/><path d="M223.50574,205.31838c-0.54218,-0.37016 -1.10106,-1.07782 -1.68251,-1.53396c1.10453,-0.27698 1.94761,-1.21297 2.08707,-2.36577c2.65203,1.51262 1.77818,5.38995 -0.40456,3.89972z" fill="#db93e6" stroke="none" stroke-width="0.5" stroke-linecap="butt"/><path d="M221.58913,206.78426c-0.04287,0.42165 -0.399,0.75067 -0.83196,0.75067c-0.30694,0 -0.57525,-0.16535 -0.72072,-0.41184c-0.16927,-0.09673 -0.6541,-0.7868 -1.30598,-1.54695c0.88983,-0.0642 1.66392,-0.54608 2.12724,-1.25056c0.74673,0.8655 1.14097,1.77304 0.73142,2.45866z" data-paper-data="{&quot;index&quot;:null}" fill="#db93e6" stroke="none" stroke-width="0.5" stroke-linecap="butt"/><path d="M218.84858,207.16312c0.33475,1.26692 -1.09143,2.00882 -1.79482,0.9035c-0.23987,-0.37693 -0.50328,-0.87673 -0.80316,-1.33309c0.74314,-0.05563 1.40506,-0.40263 1.87188,-0.92709c0.36774,0.51507 0.63159,0.99905 0.72609,1.35669z" fill="#db93e6" stroke="none" stroke-width="0.5" stroke-linecap="butt"/><path d="M221.529,200.84453c5.36301,0.04651 4.6557,6.30284 1.97676,4.47385c-0.56413,-0.38516 -1.14635,-1.13569 -1.75326,-1.58809c-0.80799,-0.60228 -2.20652,-1.18841 -3.05294,-1.67209c-0.29133,-0.13074 -0.16932,-1.01887 0.23482,-1.19223c0.40415,-0.17336 1.73335,-0.02891 2.59462,-0.02144z" fill="none" stroke="#000000" stroke-width="1" stroke-linecap="butt"/><path d="M221.58913,206.78426c-0.04287,0.42165 -0.399,0.75067 -0.83196,0.75067c-0.30694,0 -0.57525,-0.16535 -0.72072,-0.41184c-0.2312,-0.13211 -1.05102,-1.37107 -2.08121,-2.38367c-0.87171,-0.85682 -1.89764,-1.52796 -2.33491,-2.16462c-0.32071,-0.46696 -0.11359,-0.78023 0.33214,-0.94991c1.44435,-0.54982 6.80364,3.20573 5.63666,5.15938z" data-paper-data="{&quot;index&quot;:null}" fill="none" stroke="#000000" stroke-width="1" stroke-linecap="butt"/><path d="M217.05375,208.06662c-0.41897,-0.65837 -0.90974,-1.69156 -1.54123,-2.21345c-0.66411,-0.54886 -1.48386,-0.94215 -1.91308,-1.69329c-0.24648,-0.14548 -0.41184,-0.41378 -0.41184,-0.72072c0,-0.46186 0.37442,-0.83628 0.83628,-0.83628c0.25436,0 0.48222,0.11357 0.6356,0.29277c1.65607,0.45449 3.87257,3.06959 4.18909,4.2675c0.31652,1.1979 -1.09143,2.00881 -1.79482,0.90349z" fill="none" stroke="#000000" stroke-width="1" stroke-linecap="butt"/></g><g><path d="M239.36971,208.91399c0,0 0.3915,8.34024 14.60749,6.23944c13.4989,-1.99483 11.63893,-9.15571 11.63893,-9.15571l4.20286,1.887c0,0 -0.00863,1.18868 0.0127,2.61652c0.02049,1.37182 0.09502,2.95119 -1.0369,4.54341c-2.00021,2.81361 -6.76078,4.99215 -16.60204,5.40697c-20.06166,0.84564 -12.82304,-11.53763 -12.82304,-11.53763z" fill="#ffeffa" stroke="#000000" stroke-width="0" stroke-linecap="round"/><path d="M238.24138,214.9262c-0.01726,-0.07859 3.87856,5.67316 16.55063,3.82969c14.35662,-1.86616 15.02695,-10.87116 15.02695,-10.87116c0,0 -0.00863,1.18868 0.0127,2.61652c0.02049,1.37182 0.09502,2.95119 -1.0369,4.54341c-2.00021,2.81361 -6.76078,4.99215 -16.60204,5.40697c-10.11326,0.42629 -13.28882,-2.50921 -13.95136,-5.52542z" fill="#dd95e8" stroke="#000000" stroke-width="0" stroke-linecap="round"/><path d="M239.36971,208.91399c0,0 0.3915,8.34024 14.60749,6.23944c13.4989,-1.99483 11.63893,-9.15571 11.63893,-9.15571l4.20286,1.887c0,0 -0.00863,1.18868 0.0127,2.61652c0.02049,1.37182 0.09502,2.95119 -1.0369,4.54341c-2.00021,2.81361 -6.76078,4.99215 -16.60204,5.40697c-20.06166,0.84564 -12.82304,-11.53763 -12.82304,-11.53763z" fill="none" stroke="#000000" stroke-width="1" stroke-linecap="round"/><path d="M244.55778,199.14542c1.31642,-1.17593 6.83383,-2.37225 9.54146,-1.8472c1.63401,0.31686 1.35284,1.93808 1.35284,1.93808c0,0 6.50518,-3.29028 7.2311,-2.78214c0.28324,0.19828 1.53295,2.07667 0.92706,3.17351c-0.89762,1.62499 -3.86953,2.61068 -3.86953,2.61068c0,0 0.38686,0.12296 0.98019,0.36644c-4.37977,0.2708 -10.45727,2.81658 -13.09573,2.97807c-0.28949,0.01772 -0.09375,-0.57255 -0.14995,-0.85709c-0.2393,-1.21161 -0.36474,-2.58493 -1.15202,-3.60541c-0.53209,-0.6897 -1.20811,-1.28668 -1.96677,-1.76955c0.06482,-0.07445 0.13195,-0.14336 0.20135,-0.20536z" fill="#ff292e" stroke="#000000" stroke-width="0" stroke-linecap="butt"/><path d="M239.75568,206.14098l-4.26626,-0.16396c0,0 -0.75986,-1.06582 0.64989,-3.95604l0.44322,0.77565c0.89587,1.56777 5.91336,-0.09743 5.42961,2.84951c-0.11145,0.67887 -1.32062,0.92814 -2.47088,1.49438c0.1108,-0.61531 0.21443,-0.99954 0.21443,-0.99954z" fill="#ff292e" stroke="#000000" stroke-width="0" stroke-linecap="butt"/><path d="M258.17176,209.10014c0.36853,-0.08338 0.88232,-0.11124 1.46868,-0.11798c-0.6464,0.16771 -1.32782,0.23565 -2.02895,0.24198c0.20663,-0.04469 0.39459,-0.08651 0.56025,-0.12398z" fill="#ac0e49" stroke="#000000" stroke-width="0" stroke-linecap="butt"/><path d="M243.10081,202.06679c0,0 0.52294,-2.08702 1.45697,-2.92137c1.31642,-1.17593 6.83383,-2.37225 9.54146,-1.8472c1.63401,0.31686 1.35284,1.93808 1.35284,1.93808c0,0 6.50518,-3.29028 7.2311,-2.78214c0.28324,0.19828 1.53295,2.07667 0.92706,3.17351c-0.89762,1.62499 -3.86953,2.61068 -3.86953,2.61068c0,0 3.2768,1.04143 5.38321,3.06446c3.27168,3.14221 4.20444,8.1679 -10.60834,11.59558c-1.79091,0.41442 -10.06451,0.93634 -13.55884,-2.11337c-2.85954,-2.49569 -1.20105,-8.64402 -1.20105,-8.64402l-4.26626,-0.16396c0,0 -0.79623,-1.11685 0.75362,-4.16423c0.36247,-0.7127 6.85777,0.254 6.85777,0.254z" fill="#ff292e" stroke="#000000" stroke-width="0" stroke-linecap="round"/><path d="M239.75568,206.14098l-4.26626,-0.16396c0,0 -0.5427,-0.76123 0.14011,-2.74157c1.97616,0.73611 6.21238,1.20089 7.42841,1.75617c0.14476,0.0661 -1.20123,0.75924 -1.35092,0.8545c-0.89102,0.56702 -1.4988,1.12815 -2.20328,1.90308c-0.02477,0.02724 -0.04901,0.05479 -0.07273,0.08264c0.13987,-1.0057 0.32469,-1.69088 0.32469,-1.69088z" fill="#ac0e49" stroke="#000000" stroke-width="0" stroke-linecap="butt"/><path d="M239.01589,206.27232c-0.27303,0.24428 -2.54969,0.17339 -2.50058,-0.53893c-0.05339,-0.11013 -0.08333,-0.23375 -0.08333,-0.36435c0,-0.46186 0.37442,-0.83628 0.83628,-0.83628c0.24056,0 0.4574,0.10157 0.60997,0.26417c1.11623,-0.04955 2.12857,0.58878 1.13765,1.4754z" fill="#000000" stroke="none" stroke-width="0.5" stroke-linecap="butt"/><path d="M254.51556,216.89838c-1.79091,0.41442 -10.06451,0.93634 -13.55884,-2.11337c-0.3195,-0.27885 -0.5826,-0.60331 -0.79791,-0.95967c3.21261,0.17766 11.22397,-3.76602 14.15318,-4.46787c1.7611,-0.42198 5.91336,0.01395 8.68214,-0.70891c0.18548,-0.04842 1.22555,1.94151 1.60247,1.53843c0.40093,-0.42875 1.09917,-3.59532 1.0842,-4.30339c2.77006,3.15444 2.76525,7.79127 -11.16524,11.01479z" fill="#ac0e49" stroke="#000000" stroke-width="0" stroke-linecap="butt"/><path d="M263.61022,199.62765c-0.89762,1.62499 -3.86953,2.61068 -3.86953,2.61068c0,0 0.88914,0.28259 2.03882,0.8393c-2.6179,0.16708 -5.35164,0.92473 -5.54022,0.30285c-0.44904,-1.48077 3.96725,-4.01273 6.07544,-5.71395c0.29957,-0.18436 0.56161,-0.42379 0.77203,-0.70418c0.43424,0.68131 0.95958,1.87579 0.52345,2.66532z" fill="#ac0e49" stroke="#000000" stroke-width="0" stroke-linecap="butt"/><path d="M242.88638,202.23833l2.40164,3.00204" fill="none" stroke="#000000" stroke-width="1" stroke-linecap="round"/><path d="M245.20225,208.11375c0,0 -1.46726,-0.21889 -1.62111,-0.58326c-0.46565,-1.10286 0.59183,-1.47529 0.59183,-1.47529c0,0 3.3467,-2.24519 5.84223,-2.74497c4.07916,-0.81696 6.42326,-0.04264 6.42326,-0.04264c0,0 1.21563,0.0579 1.55332,0.68722c0.31306,0.58342 -0.18096,1.02823 -0.18096,1.02823c0,0 1.6958,0.03505 2.41724,0.88295c0.94578,1.11157 0.15594,1.39003 0.15594,1.39003c0,0 1.26494,-0.00347 1.66996,0.92131c0.31713,0.72408 -0.51203,1.18013 -0.51203,1.18013c0,0 -5.20712,0.3391 -7.70654,0.76286c-2.47516,0.41965 -7.2179,1.76743 -7.2179,1.76743c0,0 -0.99125,0.44662 -1.27567,-0.67379c-0.23639,-0.93121 0.46081,-1.42764 0.46081,-1.42764c0,0 -1.03151,0.46549 -1.3061,-0.43725c-0.18736,-0.61595 0.70569,-1.23531 0.70569,-1.23531z" fill="#feeffb" stroke="#000000" stroke-width="0" stroke-linecap="round"/><path d="M250.0152,203.31023c4.07916,-0.81696 6.42326,-0.04264 6.42326,-0.04264c0,0 0.90806,0.04325 1.37255,0.46129c-1.71687,1.49587 -2.92822,4.45112 -5.42574,3.93719c-1.53135,-0.31512 -2.76377,-2.09366 -3.98648,-3.85867c0.55045,-0.21665 1.10154,-0.39407 1.6164,-0.49718z" fill="#dd95e8" stroke="#000000" stroke-width="0" stroke-linecap="round"/><path d="M245.93131,209.82921c0,0 3.18295,-0.99515 6.53549,-1.65399c2.90506,-0.5709 7.57412,-0.70476 7.57412,-0.70476" fill="none" stroke="#000000" stroke-width="1" stroke-linecap="round"/><path d="M245.15935,208.02798c0,0 2.227,-1.48295 5.68833,-2.32773c2.06082,-0.50296 6.70582,-0.67431 6.70582,-0.67431" fill="none" stroke="#000000" stroke-width="1" stroke-linecap="round"/><path d="M245.20225,208.11375c0,0 -1.46726,-0.21889 -1.62111,-0.58326c-0.46565,-1.10286 0.59183,-1.47529 0.59183,-1.47529c0,0 3.3467,-2.24519 5.84223,-2.74497c4.07916,-0.81696 6.42326,-0.04264 6.42326,-0.04264c0,0 1.21563,0.0579 1.55332,0.68722c0.31306,0.58342 -0.18096,1.02823 -0.18096,1.02823c0,0 1.6958,0.03505 2.41724,0.88295c0.94578,1.11157 0.15594,1.39003 0.15594,1.39003c0,0 1.26494,-0.00347 1.66996,0.92131c0.31713,0.72408 -0.51203,1.18013 -0.51203,1.18013c0,0 -5.20712,0.3391 -7.70654,0.76286c-2.47516,0.41965 -7.2179,1.76743 -7.2179,1.76743c0,0 -0.99125,0.44662 -1.27567,-0.67379c-0.23639,-0.93121 0.46081,-1.42764 0.46081,-1.42764c0,0 -1.03151,0.46549 -1.3061,-0.43725c-0.18736,-0.61595 0.70569,-1.23531 0.70569,-1.23531z" fill="none" stroke="#000000" stroke-width="1" stroke-linecap="round"/><path d="M262.44968,198.78601c1.15018,0.38339 0.40356,1.84688 -0.40023,2.63312c-0.13,0.2931 -0.42355,0.49754 -0.76483,0.49754c-0.46186,0 -0.83628,-0.37442 -0.83628,-0.83628c0,-0.18665 0.06115,-0.35902 0.16451,-0.49817c0.39289,-0.79476 1.38393,-1.94719 1.83685,-1.79621z" fill="#000000" stroke="none" stroke-width="0.5" stroke-linecap="butt"/><path d="M244.55778,199.14542c1.31642,-1.17593 6.83383,-2.37225 9.54146,-1.8472c1.63401,0.31686 1.35284,1.93808 1.35284,1.93808c0,0 6.50518,-3.29028 7.2311,-2.78214c0.28324,0.19828 1.53295,2.07667 0.92706,3.17351c-0.89762,1.62499 -3.86953,2.61068 -3.86953,2.61068c0,0 3.2768,1.04143 5.38321,3.06446c3.27168,3.14221 4.20444,8.1679 -10.60834,11.59558c-1.79091,0.41442 -10.06451,0.93634 -13.55884,-2.11337c-2.85954,-2.49569 -1.20105,-8.64402 -1.20105,-8.64402l-4.26626,-0.16396c0,0 -0.79623,-1.11685 0.75362,-4.16423c0.36247,-0.7127 6.85777,0.254 6.85777,0.254c0,0 0.52293,-2.08703 1.45696,-2.92138z" fill="none" stroke="#000000" stroke-width="1" stroke-linecap="round"/></g><g><path d="M236.51091,180.97036c0,0 -1.0256,-4.0956 1.03203,-5.33746c5.68956,-3.43387 12.3485,-2.32847 12.3485,-2.32847c0,0 4.35038,-2.34374 6.74085,-1.58789c2.15327,0.68085 -0.5948,4.24215 -0.56921,7.29582c0.01305,1.55583 1.50782,3.2307 2.03827,4.70018c0.51068,1.41471 0.08678,2.64924 -1.34434,2.88658c-3.02232,0.50121 -7.14433,-3.2593 -7.14433,-3.2593l2.23009,9.19911c0,0 -6.68449,3.43094 -17.20515,2.16149c-7.48165,-0.90275 -8.99837,-6.76105 -8.99837,-6.76105c0,0 2.67148,-2.61667 4.48804,-3.78114c1.80727,-1.15851 6.38364,-3.18789 6.38364,-3.18789z" fill="#feecf7" stroke="#000000" stroke-width="0" stroke-linecap="round"/><path d="M236.51091,180.97036c0,0 -1.0256,-4.0956 1.03203,-5.33746c5.68956,-3.43387 12.3485,-2.32847 12.3485,-2.32847c0,0 4.35038,-2.34374 6.74085,-1.58789c1.68439,0.5326 0.3696,2.82775 -0.27061,5.26374c-0.70722,0.11136 -9.11847,2.47833 -9.11847,2.47833l2.36947,3.88121l2.23009,9.19911c0,0 -0.97231,0.49906 -2.75892,1.04608c-0.18269,-0.61384 -2.54552,-14.15458 -2.54552,-14.15458c0,0 -13.8315,3.3255 -13.60022,3.21161c1.78302,-0.87801 3.5728,-1.67169 3.5728,-1.67169z" fill="#dc94e7" stroke="#000000" stroke-width="0" stroke-linecap="butt"/><path d="M249.89145,173.30443c0,0 4.35038,-2.34374 6.74085,-1.58789c2.15327,0.68085 -0.5948,4.24215 -0.56921,7.29582c0.01305,1.55583 1.50782,3.2307 2.03827,4.70018c0.51068,1.41471 0.08678,2.64924 -1.34434,2.88658c-3.02232,0.50121 -7.14433,-3.2593 -7.14433,-3.2593l2.23009,9.19911c0,0 -6.68449,3.43094 -17.20515,2.16149c-7.48165,-0.90275 -8.99837,-6.76105 -8.99837,-6.76105c0,0 2.67148,-2.61667 4.48804,-3.78114c1.80727,-1.15851 6.38364,-3.18789 6.38364,-3.18789c0,0 -1.02561,-4.0956 1.03202,-5.33746c2.05763,-1.24186 12.34849,-2.32845 12.34849,-2.32845z" fill="none" stroke="#000000" stroke-width="1" stroke-linecap="round"/><g fill="none" stroke="#ff0000" stroke-width="1"><path d="M240.99671,189.17228c-2.61753,1.57784 -5.39303,1.83454 -6.86544,0.66896c-1.51155,-1.19657 -0.03158,-4.01856 2.5728,-5.75385c1.96727,-1.31078 4.59452,-2.07518 6.95426,-0.63327c1.65703,1.01252 0.05816,4.0787 -2.66162,5.71816z" stroke-linecap="butt"/><path d="M237.1825,183.92588l1.62968,5.66099" stroke-linecap="round"/></g><path d="M249.29788,173.87938c-0.15822,0.2769 -0.33031,0.54033 -0.51511,0.79043c-1.85699,2.5132 -4.99844,3.67936 -8.27648,3.61643c-1.07897,-0.02071 -3.58375,-0.18549 -3.34389,-1.83804c0.44548,-3.06916 11.25241,-4.11418 11.71015,-3.31314z" fill="#f89688" stroke="#000000" stroke-width="1" stroke-linecap="butt"/></g><g stroke="#000000" stroke-linecap="round"><path d="M249.74819,183.92588c0,0 1.77797,1.25752 2.70122,1.82735c1.91797,1.18373 3.73173,0.96026 3.73173,0.96026c0,0 -0.06714,1.51828 0.5155,3.17082c0.49653,1.40832 1.62163,2.66857 1.54419,3.2999c-0.16328,1.33106 -2.47589,2.06611 -4.53298,2.16198c-3.40422,0.15866 -4.60295,-1.12759 -4.60295,-1.12759c0,0 -0.12303,-3.93402 -0.0028,-5.75262c0.10692,-1.6172 0.6461,-4.54009 0.6461,-4.54009z" fill="#fddfbd" stroke-width="0"/><path d="M249.74819,183.92588c0,0 1.77797,1.25752 2.70122,1.82735c1.91797,1.18373 3.73173,0.96026 3.73173,0.96026c0,0 -0.04382,0.99079 0.24648,2.24277c-0.82894,-0.25009 -1.37266,0.05301 -3.1407,-0.41531c-2.50102,-0.66247 -3.47666,-2.02588 -3.91129,-2.37123c0.1784,-1.1913 0.37255,-2.24383 0.37255,-2.24383z" fill="#fa9789" stroke-width="0"/><path d="M252.4494,185.75322c1.91797,1.18373 3.73173,0.96026 3.73173,0.96026c0,0 -0.06714,1.51828 0.5155,3.17082c0.49653,1.40832 1.62163,2.66857 1.54419,3.2999c-0.16328,1.33106 -2.47589,2.06611 -4.53298,2.16198c-3.40422,0.15866 -4.60295,-1.12759 -4.60295,-1.12759c0,0 -0.12303,-3.93402 -0.0028,-5.75262c0.10692,-1.6172 0.6461,-4.54009 0.6461,-4.54009c0,0 1.77796,1.25752 2.70121,1.82735z" fill="none" stroke-width="1"/></g><g><path d="M247.68964,193.87551l3.4738,-2.61607l4.54595,2.70184l2.40164,-1.37236l2.61606,3.774c0,0 -5.35589,8.2865 -7.4958,8.63451c-1.97887,0.32182 -4.89836,-6.61886 -4.89836,-6.61886z" fill="#0066cd" stroke="#000000" stroke-width="0" stroke-linecap="round"/><path d="M253.65747,201.33418c1.97357,-1.65742 2.70693,-4.89361 5.38818,-5.8804c0.3998,-0.14713 1.26327,-0.17111 1.42679,0.36231c0.30378,0.99095 -5.77846,9.20631 -7.37912,9.14551c-1.39841,-0.05311 -3.39606,-3.06459 -4.21988,-5.17789c-0.48603,-1.24678 -0.20003,-2.06909 -0.12194,-2.08861c0.13625,-0.09627 1.56123,0.64404 1.64258,1.02069c1.36218,0.92807 3.09633,2.75869 3.2634,2.61838z" fill="#061484" stroke="none" stroke-width="0.5" stroke-linecap="butt"/><path d="M247.68964,193.87549l3.4738,-2.61607l4.54595,2.70184l2.40164,-1.37236l2.61606,3.774c0,0 -5.35589,8.28651 -7.4958,8.63451c-1.97886,0.32182 -4.89836,-6.61886 -4.89836,-6.61886" fill="none" stroke="#000000" stroke-width="1" stroke-linecap="round"/></g></g><g stroke="#000000"><g stroke-linecap="butt"><path d="M264.1653,170.13839l0.50296,-2.28783c0,0 9.04309,-1.18576 11.11648,-0.22334c1.45555,0.67563 1.5984,4.93584 -0.99517,5.55626c-3.45389,0.82621 -10.62426,-3.04509 -10.62426,-3.04509z" fill="#0066cd" stroke-width="0"/><path d="M264.16531,170.13839l0.17851,-0.81198c0,0 2.05762,0.11977 4.10029,0.42488c1.57877,0.23583 2.96012,0.63247 4.55587,0.85646c1.89789,0.2664 3.72116,0.37909 3.70098,0.46214c-0.23939,0.98543 -0.84337,1.85811 -1.91138,2.11361c-3.45389,0.82622 -10.62427,-3.0451 -10.62427,-3.0451z" fill="#061483" stroke-width="0"/><path d="M264.16531,170.13839l0.50296,-2.28783c0,0 9.04309,-1.18575 11.11648,-0.22333c1.45556,0.67563 1.5984,4.93584 -0.99517,5.55626c-3.45389,0.82622 -10.62427,-3.0451 -10.62427,-3.0451z" fill="none" stroke-width="1"/></g><g stroke-linecap="round"><path d="M224.92612,176.00879c0,0 -10.22267,-24.04026 12.53195,-25.50355c23.33124,-1.50038 20.85896,19.34853 20.85896,19.34853c0,0 5.69889,-5.42813 6.65023,-4.95408c0.803,0.40013 -0.05891,5.46116 -0.71185,7.42337c-0.48248,1.44994 -1.06016,4.5453 -2.42085,4.83951c-0.85645,0.18517 -4.66454,-2.34643 -4.66454,-2.34643c0,0 -7.08743,4.77749 -13.77389,6.6895c-6.60278,1.88807 -16.29946,1.63975 -16.29946,1.63975c0,0 -7.20974,-0.22433 -7.5884,-2.66691c-0.32266,-2.08128 5.41785,-4.4697 5.41785,-4.4697z" fill="#fde0be" stroke-width="0"/><path d="M253.22855,177.20103c-0.03267,0.01827 -1.45095,-1.9871 -1.45095,-1.9871l-2.9872,2.80897l-5.41547,-6.83773l-6.49394,4.84087l-1.46964,-6.43189c0,0 -11.21659,4.3822 -11.22608,4.35249c-1.86977,-5.85583 -5.38885,-22.24133 13.2728,-23.44141c23.33124,-1.50038 20.85896,19.34853 20.85896,19.34853c0,0 5.54693,3.80041 5.49859,3.96634c-0.42489,1.45884 -0.99907,3.13015 -1.98107,3.34246c-0.85645,0.18517 -4.66454,-2.34643 -4.66454,-2.34643c0,0 -1.57542,1.06195 -3.94147,2.38489z" fill="#fc988a" stroke-width="0"/><path d="M258.82748,171.29872l2.95477,-1.64931l-0.76529,5.05062z" fill="#f79587" stroke-width="0.5"/><path d="M237.45804,150.50524c23.33124,-1.50038 20.85896,19.34853 20.85896,19.34853c0,0 5.69889,-5.42813 6.65023,-4.95408c0.803,0.40013 -0.05891,5.46116 -0.71185,7.42337c-0.48248,1.44994 -1.06016,4.5453 -2.42085,4.83951c-0.85645,0.18517 -4.66454,-2.34643 -4.66454,-2.34643c0,0 -7.08743,4.77749 -13.77389,6.6895c-6.60278,1.88807 -16.29946,1.63975 -16.29946,1.63975c0,0 -7.20974,-0.22433 -7.5884,-2.66691c-0.32266,-2.08128 5.41785,-4.4697 5.41785,-4.4697c0,0 -10.22266,-24.04025 12.53196,-25.50355z" fill="none" stroke-width="1"/></g><g stroke-linecap="round"><path d="M263.87785,162.16457c0,0 -1.59076,3.56024 -2.58535,5.04207c-0.85886,1.2796 -3.03497,3.33157 -3.03497,3.33157c0,0 -11.17662,-4.17591 -18.6937,-4.43667c-7.67817,-0.26636 -17.44098,1.34857 -17.44098,1.34857c0,0 -5.08012,-17.5137 -1.70337,-20.47665c2.45878,-2.15748 9.84754,-4.61736 17.23356,-4.63928c3.36635,-0.01 12.99631,0.06255 16.34969,2.86626c4.49442,3.75772 9.87513,16.96413 9.87513,16.96413z" fill="#ff292e" stroke-width="0"/><path d="M263.87785,162.16457c0,0 -1.59076,3.56025 -2.58535,5.04207c-0.85886,1.2796 -3.03496,3.33157 -3.03496,3.33157c0,0 -5.41254,-2.02228 -11.23778,-3.34013c-0.15248,-0.03449 1.2374,-14.24966 3.72579,-20.01403c0.82401,-1.90882 2.42298,-2.6811 3.25718,-1.98363c4.49442,3.75773 9.87514,16.96414 9.87514,16.96414z" fill="#ac0e49" stroke-width="0.5"/><path d="M261.2925,167.20666c-0.85886,1.2796 -3.03496,3.33157 -3.03496,3.33157c0,0 -11.17662,-4.17591 -18.69371,-4.43666c-7.67817,-0.26636 -17.44097,1.34857 -17.44097,1.34857c0,0 -5.08012,-17.51371 -1.70337,-20.47665c2.45879,-2.15748 9.84754,-4.61736 17.23356,-4.63928c3.36635,-0.01 12.99631,0.06254 16.34967,2.86626c4.49442,3.75773 9.87514,16.96414 9.87514,16.96414c0,0 -1.59076,3.56024 -2.58535,5.04206z" fill="none" stroke-width="1"/></g><g stroke-linecap="round"><path d="M223.40014,173.04231c0,0 -3.75142,1.28492 -5.44372,2.1041c-1.71822,0.83173 -4.78902,2.84922 -4.78902,2.84922c0,0 1.25256,-3.99101 2.16273,-5.81976c0.86438,-1.73673 3.16797,-4.89095 3.16797,-4.89095l-9.43866,1.51782c0,0 7.62446,-13.43673 11.0606,-15.30311c2.04935,-1.11313 10.43932,3.18267 10.43932,3.18267c0,0 1.01626,-2.78862 1.77677,-4.11459c0.69252,-1.20744 2.60141,-3.51895 2.60141,-3.51895c0,0 2.07659,5.9652 3.38329,8.82539c1.36128,2.97963 4.62737,8.70873 4.62737,8.70873l15.02222,3.55265l-0.72478,6.78909l-6.25877,-5.62866l-2.26246,3.69928l-5.7762,-8.41235l-4.5474,4.53833l-1.58987,-4.95161c0,0 -10.71867,3.60566 -13.06043,5.03926c-0.63835,0.39079 -0.35033,1.83346 -0.35033,1.83346z" fill="#4fa6ec" stroke-width="0"/><path d="M225.65715,163.56228l-12.48975,14.43336c0,0 1.25256,-3.99101 2.16272,-5.81976c0.86437,-1.73673 3.16797,-4.89095 3.16797,-4.89095l-9.43865,1.51781c0,0 7.62445,-13.43673 11.0606,-15.30311c2.04934,-1.11313 10.43933,3.18266 10.43933,3.18266c0,0 1.01625,-2.78862 1.77676,-4.11459c0.69252,-1.20744 2.60141,-3.51894 2.60141,-3.51894l-1.40391,12.02883c0,0 -9.3885,-3.56377 -11.54942,-3.04299c-3.39147,0.81733 -7.56597,8.22324 -7.56597,8.22324z" fill="#66ffff" stroke-width="0"/><path d="M248.23034,169.43053l-0.32581,4.37067l-3.4999,-5.09719z" fill="#66ffff" stroke-width="0"/><path d="M213.16741,177.99564c0,0 1.25256,-3.99101 2.16272,-5.81976c0.86437,-1.73673 3.16797,-4.89095 3.16797,-4.89095l-9.43865,1.51781c0,0 7.62445,-13.43673 11.0606,-15.30311c2.04934,-1.11313 10.43933,3.18266 10.43933,3.18266c0,0 1.01625,-2.78862 1.77676,-4.11459c0.69252,-1.20744 2.60141,-3.51894 2.60141,-3.51894c0,0 2.07658,5.96519 3.38328,8.82538c1.36127,2.97963 4.62737,8.70873 4.62737,8.70873l15.02222,3.55265l-0.72478,6.78909l-6.25877,-5.62865l-2.26247,3.69928l-5.77621,-8.41235l-4.54741,4.53833l-1.58987,-4.95161c0,0 -10.71867,3.60566 -13.06043,5.03926c-0.63835,0.39079 -0.35033,1.83346 -0.35033,1.83346c0,0 -3.7514,1.28492 -5.44371,2.1041c-1.69231,0.81919 -4.78902,2.84919 -4.78902,2.84919z" fill="none" stroke-width="1"/></g></g><g><path d="M222.23257,158.19141c0,0 3.07893,5.25961 6.23065,8.47532c2.3086,2.35547 7.50721,6.46195 7.50721,6.46195c0,0 2.27923,-2.10141 4.79682,-4.80143c3.13713,-3.36447 6.80263,-7.62188 8.72813,-9.47617c2.18837,-2.10745 5.29014,-3.84173 5.29014,-3.84173c0,0 -7.6966,8.68738 -11.01265,12.26859c-0.0754,0.08142 -0.65991,2.31046 -0.96746,4.51747c-0.3203,2.29848 -0.37935,4.57678 -1.25914,4.57092c-2.5173,-0.01672 -2.33041,-4.35006 -2.91102,-3.76134c-1.23368,1.25096 -2.1368,2.15365 -2.1368,2.15365c0,0 -1.4822,-0.73664 -3.49192,-2.18159c-0.03686,-0.02649 -0.05999,0.81406 0.00318,1.85588c0.08331,1.3739 0.17349,3.04245 -0.83941,2.98496c-0.97579,-0.05538 -1.97785,-1.66466 -2.51423,-3.686c-0.542,-2.04257 -0.61363,-4.49754 -0.69227,-4.57616c-4.71564,-4.71356 -6.73122,-10.96432 -6.73122,-10.96432z" fill="#000000" stroke="#000000" stroke-width="0" stroke-linecap="round"/><path d="M245.8182,175.90429c-0.81126,1.23774 -1.83037,2.09353 -2.96454,2.8664c1.3956,-0.15187 2.80816,-0.43731 3.6843,-1.13483c0.64523,-0.51367 0.90873,-1.5063 1.22668,-2.3572c-0.59813,0.07011 -1.21539,0.17003 -1.83036,0.24733zM233.46241,179.04374c0,0 4.68621,-0.17721 6.56474,-0.04446c0.14605,-0.01441 0.29994,-0.0275 0.46028,-0.03998c1.58285,-0.98432 3.05883,-1.8317 4.15861,-3.32194c-0.23302,0.00756 -1.33439,-0.96389 -1.33439,-0.96389c0,0 3.45977,-0.42506 4.74725,-0.54313l0.48936,0.03305c0.09703,-0.01567 0.2098,-0.00207 0.33524,0.06691c0.09471,0.04317 0.19759,0.11742 0.2561,0.24454c0.06571,0.12356 0.06245,0.2504 0.03944,0.35191c-0.02106,0.14135 -0.07838,0.23923 -0.14947,0.30694c-0.64712,1.02602 -0.7754,2.53401 -1.78208,3.36231c-1.70529,1.40309 -5.1001,1.42501 -7.20694,1.61823c-0.81432,-0.05755 -2.88127,-0.06799 -4.13564,-0.24611c-1.64831,-0.23405 -2.4425,-0.8244 -2.4425,-0.8244z" fill="#000000" stroke="none" stroke-width="0.5" stroke-linecap="butt"/><path d="M245.95572,175.47455c0.61497,-0.0773 1.25621,-0.15807 1.85434,-0.22819c-0.31795,0.85089 -0.57696,1.90065 -1.2222,2.41433c-0.87614,0.69752 -2.38406,0.99044 -3.77965,1.1423c1.13418,-0.77287 2.22179,-1.71173 3.03305,-2.94948z" data-paper-data="{&quot;noHover&quot;:false,&quot;origItem&quot;:[&quot;Path&quot;,{&quot;applyMatrix&quot;:true,&quot;segments&quot;:[[[815.6142,327.59136],[0,0],[-1.65831,2.07269]],[[809.83498,332.20743],[2.15617,-1.1879],[2.51774,-0.03472]],[[816.60604,330.80527],[-1.68264,1.09707],[1.23918,-0.80793]],[[819.1958,326.80402],[-0.7119,1.46551],[-1.07993,0.02386]],[[815.88553,326.93555],[1.1112,-0.03384],[0,0]]],&quot;closed&quot;:true}]}" fill="#ffffff" stroke="none" stroke-width="0.5" stroke-linecap="butt"/></g><path d="M176.16667,243.83333v-127.66667h127.66667v127.66667z" fill="none" stroke="none" stroke-width="NaN" stroke-linecap="butt"/></g></g></svg>