<svg version="1.1" xmlns="http://www.w3.org/2000/svg" xmlns:xlink="http://www.w3.org/1999/xlink" width="306.30631" height="274.77477" viewBox="0,0,306.30631,274.77477"><g transform="translate(-86.84686,-42.61264)"><g data-paper-data="{&quot;isPaintingLayer&quot;:true}" fill-rule="nonzero" stroke-linecap="butt" stroke-linejoin="miter" stroke-miterlimit="10" stroke-dasharray="" stroke-dashoffset="0" style="mix-blend-mode: normal"><path d="M86.84686,317.38741v-274.77477h306.30631v274.77477z" data-paper-data="{&quot;index&quot;:null}" fill="none" stroke="none" stroke-width="0"/><text transform="translate(271.55606,110.7227) rotate(-180) scale(0.1602,-0.1602)" font-size="40" xml:space="preserve" data-paper-data="{&quot;index&quot;:null}" fill="#000000" fill-rule="nonzero" stroke="none" stroke-width="1" stroke-linecap="butt" stroke-linejoin="miter" stroke-miterlimit="10" stroke-dasharray="" stroke-dashoffset="0" font-family="Sans Serif" font-weight="normal" text-anchor="start" style="mix-blend-mode: normal"><tspan x="0" dy="0">AwezomeXD</tspan><tspan x="0" dy="46.150000000000006px"> </tspan><tspan x="0" dy="46.150000000000006px">MeIzAwezomeDede</tspan></text><g data-paper-data="{&quot;index&quot;:null}"><g><g><g><path d="M200.15938,123.32672c0,0 -5.02793,-11.05216 1.99218,-16.84583c4.98318,-4.1126 21.35476,-1.57779 32.0715,-4.29939c12.18245,-3.09385 34.9378,-9.88974 34.9378,-9.88974c0,0 5.70313,2.13578 7.63601,1.71774c2.4134,-0.52198 4.29189,-4.33232 4.29189,-4.33232c0,0 1.24242,3.975 1.57244,7.31872c1.24305,12.59458 -8.55893,14.12273 -8.55893,14.12273c0,0 4.71976,5.0662 5.51952,9.2911c0.84067,4.44114 -2.41362,7.40538 -2.41362,7.40538c0,0 2.98031,3.09519 3.67076,6.62417c0.45581,2.32971 0.5466,6.25899 0.56895,8.71403c0.03818,4.18949 7.97644,7.07376 7.97644,7.07376c0,0 -3.44453,3.83477 -6.11175,4.77407c-2.71481,0.95605 -9.42459,-1.05565 -9.42459,-1.05565c0,0 -2.34442,1.01276 -2.40115,3.87999c-0.01788,0.90384 0.55538,2.88675 0.83765,3.79483c0.95211,3.06298 -0.65763,5.58282 -0.65763,5.58282c0,0 -2.02387,-3.18594 -2.94723,-3.91315c-0.67769,-0.53374 -1.30304,-0.63318 -1.30304,-0.63318c0,0 -0.73815,4.49681 0.00675,6.89721c1.65681,5.33897 4.67016,11.81049 3.44889,12.13783c-2.20827,0.59186 -5.41991,-2.88738 -8.05181,-2.90663c-2.42241,-0.01771 -5.77744,-5.97193 -5.77744,-5.97193c0,0 -0.9392,7.02379 -3.62045,8.29126c-2.6019,1.23 -3.44616,6.57019 -4.5803,6.86741c-4.13435,1.08348 -10.86533,-11.01677 -10.86533,-11.01677c0,0 -10.74972,10.18419 -13.90505,8.11569c-3.72405,-2.44135 -7.10046,-17.99818 -7.10046,-17.99818c0,0 -6.14273,-3.73592 -6.98887,-6.46866c-1.90025,-6.13724 0.49283,-11.58763 0.49283,-11.58763c0,0 -3.12778,0.81249 -4.52025,2.19877c-1.48006,1.4735 -4.11339,6.39652 -4.11339,6.39652c0,0 -2.06084,-5.35525 -2.01689,-8.0797c0.04623,-2.86508 2.2878,-8.71012 2.2878,-8.71012c0,0 -5.19772,-2.84021 -7.83279,-7.7236c-1.41229,-2.61725 -1.43069,-8.69295 -1.43069,-8.69295c0,0 4.7694,3.25389 6.59935,3.55255c1.41953,0.23167 1.00942,-2.7544 1.00942,-2.7544z" fill="#6d0f0a" stroke="#000000" stroke-width="2"/><path d="M198.32583,118.24904c0,0 -4.52354,-7.1379 -4.16928,-17.38058c0.1918,-5.54519 3.64204,-13.01547 5.65276,-18.11613c2.84955,-7.2284 10.74667,-11.7152 17.74273,-13.49191c9.19681,-2.33561 17.30217,5.81779 17.30217,5.81779c0,0 8.90169,-5.78319 16.35701,-5.44484c7.20248,0.32685 13.45939,7.26379 15.15218,8.95812c2.57889,2.58124 6.81906,15.89002 6.81906,15.89002c0,0 -22.8701,26.41891 -37.44663,30.12071c-15.57214,3.95466 -29.10711,-10.86598 -34.24332,-7.02417c-1.80723,1.35179 -3.16667,0.67099 -3.16667,0.67099z" fill="#6d0f0a" stroke="#000000" stroke-width="2"/><path d="M198.52813,87.79863c0,0 1.55319,-3.46076 2.41437,-5.00149c0.82162,-1.46993 2.63957,-4.04061 2.63957,-4.04061c0,0 9.20654,4.59204 13.76369,5.21471c4.77549,0.65251 11.97632,-2.65479 11.97632,-2.65479c0,0 0.4426,2.27789 0.85228,3.16428c0.43313,0.93715 1.21976,2.43172 1.21976,2.43172c0,0 0.89229,-2.03311 1.08102,-2.86452c0.20383,-0.89798 0.48255,-2.76286 0.48255,-2.76286c0,0 2.33579,3.41275 3.35318,4.66223c0.83315,1.02322 2.30967,2.29237 2.30967,2.29237c0,0 -0.42722,-2.09055 -0.73015,-3.16092c-0.32073,-1.13323 -1.14393,-3.46064 -1.14393,-3.46064c0,0 10.1279,2.64963 16.23571,3.22269c0.12263,0.01149 4.64729,-0.89191 4.99159,-0.91199c7.40308,-0.43184 3.30858,-9.17242 3.30858,-9.17242c0,0 3.38159,2.89518 5.01776,5.69723c1.65948,2.84196 4.87013,11.23647 4.87013,11.23647c0,0 -5.80095,-2.11698 -10.83499,-1.68712c-0.89326,0.07628 -10.50638,1.43484 -10.50638,1.43484c0,0 -1.80059,-1.85296 -2.72441,-2.59507c-0.90528,-0.72722 -2.76398,-1.81383 -2.76398,-1.81383c0,0 -0.83271,2.05624 -1.1989,3.29766c-0.43997,1.49143 -1.26031,5.0393 -1.26031,5.0393c0,0 -1.2204,-1.67255 -2.04673,-2.53525c-0.91929,-0.95976 -3.21983,-2.96331 -3.21983,-2.96331c0,0 -1.20843,0.69812 -1.82663,1.3094c-0.8582,0.84858 -2.84313,3.30787 -2.84313,3.30787c0,0 -1.29623,-2.67777 -2.0139,-3.84162c-0.62091,-1.00696 -2.04407,-2.73932 -2.04407,-2.73932c0,0 -1.39564,1.42789 -2.10257,2.3341c-0.88216,1.13085 -2.78209,3.92743 -2.78209,3.92743c0,0 -8.59381,-6.44921 -12.7996,-7.54326c-3.93414,-1.02341 -11.67459,1.17677 -11.67459,1.17677z" fill="#c42d06" stroke="none" stroke-width="0"/></g><path d="M222.42296,130.18956c0,0 -19.1643,-2.92161 -19.75603,-4.26051c-0.10264,-0.23226 1.14712,-9.16279 0.77221,-9.9877c-0.68482,-1.50677 -4.83654,0.35054 -4.83654,0.35054c0,0 61.57346,-19.36568 71.28997,-21.98626c2.47537,-0.66762 5.4769,1.28705 5.4769,1.28705l-8.28995,20.84864z" fill="#6d0f0a" stroke="none" stroke-width="NaN"/></g><path d="M236.28331,76.13036c0,0 -4.49713,-1.01045 -3.75367,-6.78487c0.03918,-0.30425 0.50105,-1.57599 0.68095,-1.86921c1.37855,-2.24679 6.23099,-3.3143 6.23099,-3.3143c0,0 -2.3036,4.97631 -3.0461,6.6684c-0.66181,1.50822 -0.11215,5.29998 -0.11215,5.29998z" fill="#6d0f0a" stroke="#000000" stroke-width="1.5"/><path d="M229.26608,66.20862c0,0 1.50025,0.8132 2.20378,2.46007c0.53261,0.78914 1.23702,3.58705 1.23702,3.58705l-2.02755,-0.78872z" fill="#000000" stroke="none" stroke-width="0"/></g><path d="M235.21439,74.80432l3.7282,-0.59448c0,0 -2.16688,4.75998 -2.65316,5.00335c-0.68077,0.34074 -4.04323,-4.53064 -4.04323,-4.53064z" fill="#6d0f0a" stroke="none" stroke-width="0"/></g><g data-paper-data="{&quot;index&quot;:null}"><g><path d="M304.61434,280.7271c-0.97394,-0.3343 -2.81981,-1.05375 -2.81981,-1.05375l2.00112,-62.99775c0,0 3.12264,-3.42551 4.77674,-5.10754c1.78782,-1.81801 6.83093,-5.9246 6.83093,-5.9246c0,0 5.94054,0.17965 11.08569,1.75457c7.39586,2.26385 29.04162,10.52827 29.04162,10.52827c0,0 -0.29139,23.00613 -1.11993,33.98866c-0.74728,9.90532 -3.63272,29.00908 -3.63272,29.00908c0,0 -14.3168,1.48011 -21.61682,1.59314c-7.15813,0.11083 -21.76596,-0.92143 -21.76596,-0.92143c0,0 -1.89659,-0.56514 -2.78087,-0.86866z" fill="#434253" stroke="#000000" stroke-width="2.5"/><path d="M306.04175,281.58894c0,0 3.19421,-16.34268 5.26935,-30.13714c1.48339,-9.86081 2.04443,-18.33187 2.06476,-19.00203c0.15509,-5.11269 -0.3723,-9.50368 -0.00091,-14.70459c0.49814,-6.97594 1.18056,-11.43244 1.18056,-11.43244l2.10035,-1.22928c0,0 -1.17975,18.14658 -2.93073,35.27697c-0.73182,7.15966 -2.77258,22.22022 -3.75528,31.64788c-0.10799,1.03599 0.50491,2.39047 0.4064,3.33489c-0.55015,5.27458 -0.93311,6.24975 -0.93311,6.24975l-3.40139,-0.00403z" fill="#000000" stroke="none" stroke-width="0"/></g><g stroke="#000000" stroke-width="1.5"><path d="M345.29835,263.35312c0.94113,9.66742 -4.93088,16.17699 -12.88074,16.95092c-7.94986,0.77393 -14.77082,-5.25083 -14.91119,-14.96294c-0.15638,-10.82018 5.8426,-16.14324 12.54261,-16.73861c6.71115,-0.59636 14.44659,6.50489 15.24932,14.75063z" fill="#2c262f"/><path d="M323.6744,268.45714c-0.26544,-2.72671 1.31874,-5.06632 3.56101,-5.2846c2.24227,-0.21828 3.76096,1.25807 4.0264,3.98478c0.26545,2.72671 -1.3891,5.14677 -3.63137,5.36505c-2.24227,0.21828 -3.69059,-1.33852 -3.95603,-4.06523z" data-paper-data="{&quot;index&quot;:null}" fill="#1b171c"/></g><g stroke="#000000" stroke-width="1.5"><path d="M334.90075,214.22597c6.72176,-0.46163 14.18059,7.06601 14.65957,15.33688c0.56156,9.69688 -5.56103,15.97134 -13.53511,16.43313c-7.97408,0.46179 -14.55372,-5.82563 -14.31338,-15.53578c0.26776,-10.81801 6.4647,-15.77245 13.18893,-16.23424z" fill="#2c262f"/><path d="M327.75298,233.81557c-0.15839,-2.73501 1.51626,-5.01074 3.76536,-5.14099c2.2491,-0.13025 3.70876,1.40448 3.86715,4.1395c0.15839,2.73502 -1.58973,5.08838 -3.83883,5.21863c-2.2491,0.13025 -3.6353,-1.48212 -3.79369,-4.21714z" data-paper-data="{&quot;index&quot;:null}" fill="#1b171c"/></g></g><g data-paper-data="{&quot;index&quot;:null}"><g><path d="M178.20553,279.8001c0,0 -1.84588,0.71945 -2.81982,1.05375c-0.88428,0.30352 -2.78086,0.86866 -2.78086,0.86866c0,0 -14.60784,1.03226 -21.76596,0.92143c-7.30001,-0.11302 -21.61681,-1.59314 -21.61681,-1.59314c0,0 -2.88544,-19.10377 -3.63272,-29.00909c-0.82854,-10.98252 -1.11993,-33.98866 -1.11993,-33.98866c0,0 21.64575,-8.26442 29.04162,-10.52827c5.14515,-1.57491 11.08569,-1.75457 11.08569,-1.75457c0,0 5.04312,4.1066 6.83094,5.9246c1.6541,1.68203 4.77674,5.10754 4.77674,5.10754l2.00112,62.99775z" fill="#434253" stroke="#000000" stroke-width="2.5"/><path d="M173.95831,281.71567l-3.40139,0.00403c0,0 -0.38295,-0.97517 -0.93311,-6.24976c-0.0985,-0.94441 0.51439,-2.2989 0.40641,-3.33488c-0.98271,-9.42766 -3.02346,-24.48823 -3.75529,-31.64789c-1.75097,-17.13039 -2.93073,-35.27697 -2.93073,-35.27697l2.10035,1.22928c0,0 0.68243,4.4565 1.18057,11.43244c0.37139,5.20091 -0.156,9.59191 -0.00092,14.70459c0.02033,0.67016 0.58138,9.14123 2.06477,19.00203c2.07514,13.79446 5.26935,30.13713 5.26935,30.13713z" fill="#000000" stroke="none" stroke-width="0"/></g><g stroke="#000000" stroke-width="1.5"><path d="M134.70171,263.47986c0.80273,-8.24574 8.53818,-15.34698 15.24933,-14.75062c6.70001,0.59537 12.69899,5.91843 12.54261,16.73861c-0.14037,9.71211 -6.96134,15.73687 -14.9112,14.96294c-7.94986,-0.77392 -13.82187,-7.2835 -12.88074,-16.95092z" fill="#2c262f"/><path d="M152.76465,263.29932c2.24227,0.21828 3.82645,2.55788 3.56101,5.28459c-0.26545,2.72671 -1.71376,4.28351 -3.95603,4.06523c-2.24227,-0.21829 -3.89681,-2.63834 -3.63137,-5.36505c0.26544,-2.72671 1.78413,-4.20306 4.0264,-3.98478z" data-paper-data="{&quot;index&quot;:null}" fill="#1b171c"/></g><g stroke="#000000" stroke-width="1.5"><path d="M130.43976,229.6896c0.47898,-8.27087 7.9378,-15.79851 14.65956,-15.33689c6.72423,0.46179 12.92117,5.41624 13.18893,16.23424c0.24034,9.71016 -6.33929,15.99758 -14.31338,15.53579c-7.97409,-0.46179 -14.09668,-6.73625 -13.53512,-16.43313z" fill="#2c262f"/><path d="M152.2471,233.94232c-0.15839,2.73501 -1.54458,4.34738 -3.79368,4.21713c-2.2491,-0.13025 -3.99721,-2.48361 -3.83882,-5.21863c0.15839,-2.73501 1.61804,-4.26975 3.86714,-4.1395c2.2491,0.13025 3.92375,2.40598 3.76536,5.141z" data-paper-data="{&quot;index&quot;:null}" fill="#1b171c"/></g></g><g data-paper-data="{&quot;index&quot;:null}" fill="#434253" stroke="#000000"><path d="M302.9364,282.15581c0,0 -39.39406,0.31655 -59.64769,0.31655c-21.72904,0 -66.6118,-0.31655 -66.6118,-0.31655c0,0 -2.38216,-40.33861 -2.16309,-60.75635c0.20152,-18.78125 2.16309,-54.08575 2.16309,-54.08575c0,0 42.82931,-1.2662 64.39595,-1.2662c21.14461,0 59.33114,1.58275 59.33114,1.58275c0,0 4.66352,44.84767 4.63123,67.07726c-0.03994,25.54257 -2.09882,47.44828 -2.09882,47.44828z" stroke-width="2.5"/><path d="M182.6264,273.74782c1.29409,0 2.34316,0.94416 2.34316,2.10884c0,1.16468 -1.04906,2.10884 -2.34316,2.10884c-1.29409,0 -2.34316,-0.94416 -2.34316,-2.10884c0,-1.16468 1.04906,-2.10884 2.34316,-2.10884z" stroke-width="2"/><path d="M296.08667,273.11069c1.29409,0 2.34316,0.94416 2.34316,2.10884c0,1.16468 -1.04907,2.10884 -2.34316,2.10884c-1.29409,0 -2.34316,-0.94416 -2.34316,-2.10884c0,-1.16468 1.04907,-2.10884 2.34316,-2.10884z" stroke-width="2"/><path d="M291.83154,175.44761c-0.48529,-1.12251 0.08425,-2.44878 1.27209,-2.9623c1.18785,-0.51352 2.54417,-0.01985 3.02946,1.10266c0.48528,1.12251 -0.08426,2.44879 -1.2721,2.96231c-1.18785,0.51352 -2.54417,0.01984 -3.02946,-1.10267z" stroke-width="2"/><path d="M180.9176,172.05907c1.18784,-0.51352 2.54418,-0.01985 3.02946,1.10266c0.48528,1.12251 -0.08426,2.44879 -1.2721,2.96231c-1.18784,0.51352 -2.54417,0.01984 -3.02945,-1.10267c-0.48528,-1.12251 0.08425,-2.44878 1.27209,-2.9623z" stroke-width="2"/></g><g data-paper-data="{&quot;index&quot;:null}" stroke="#000000"><path d="M186.71137,208.5751c-2.38275,-6.46282 -2.16877,-24.44922 1.1889,-27.96294c8.89121,-9.30442 26.25684,-9.576 48.61061,-9.576c20.92711,0 41.19208,1.22699 50.66654,9.2042c4.46775,3.7617 4.13041,24.95797 0.62311,30.67638c-5.26643,8.58654 -20.70709,11.7808 -51.50253,11.7808c-30.79544,0 -46.16007,-4.49195 -49.58663,-13.78597z" fill="#434253" stroke-width="2"/><path d="M190.85132,206.9798c-2.19979,-5.72952 -2.00226,-21.67508 1.09762,-24.79011c8.20856,-8.24868 24.24089,-7.85082 44.87837,-7.85082c19.32036,0 38.02944,0.44915 46.77646,7.52122c4.12474,3.33489 3.81329,22.1261 0.57527,27.19567c-4.86209,7.61227 -19.11725,9.59258 -47.54826,9.59258c-28.43103,0 -42.61599,-3.42905 -45.77946,-11.66852z" fill="#2c262f" stroke-width="1.5"/><path d="M216.35601,203.94311c-0.85661,-2.44105 -0.77968,-9.23462 0.42743,-10.56177c3.19647,-3.51434 9.43954,-4.25555 17.47589,-4.25555c7.52346,0 14.80886,1.10206 18.21501,4.11511c1.6062,1.42082 1.48492,9.42678 0.22402,11.58666c-1.89332,3.24319 -7.44436,4.66256 -18.51556,4.66256c-11.07119,0 -16.59491,-1.86836 -17.82677,-5.37876z" fill="#1b171c" stroke-width="1.5"/></g><g data-paper-data="{&quot;index&quot;:null}" stroke="#000000"><path d="M186.71137,264.14932c-2.38275,-6.46282 -2.16877,-24.44922 1.1889,-27.96293c8.89121,-9.30442 26.25684,-9.57601 48.61061,-9.57601c20.92711,0 41.19208,1.22699 50.66654,9.2042c4.46775,3.76171 4.13041,24.95797 0.62311,30.67638c-5.26643,8.58654 -20.70709,11.7808 -51.50253,11.7808c-30.79544,0 -46.16007,-4.49196 -49.58663,-13.78598z" fill="#434253" stroke-width="2"/><path d="M190.85132,262.554c-2.19979,-5.72952 -2.00226,-21.67508 1.09762,-24.79011c8.20856,-8.24868 24.24089,-7.85083 44.87837,-7.85083c19.32036,0 38.02944,0.44915 46.77646,7.52122c4.12474,3.33489 3.81329,22.12611 0.57527,27.19568c-4.86209,7.61227 -19.11725,9.59258 -47.54826,9.59258c-28.43103,0 -42.61599,-3.42905 -45.77946,-11.66852z" fill="#2c262f" stroke-width="1.5"/><path d="M216.35601,259.51733c-0.85661,-2.44104 -0.77968,-9.23461 0.42743,-10.56176c3.19647,-3.51434 9.43954,-4.25555 17.47589,-4.25555c7.52346,0 14.80886,1.10206 18.21501,4.11511c1.6062,1.42082 1.48492,9.42677 0.22402,11.58665c-1.89332,3.24319 -7.44436,4.66256 -18.51556,4.66256c-11.07119,0 -16.59491,-1.86836 -17.82677,-5.37877z" fill="#1b171c" stroke-width="1.5"/></g><path d="M247.30279,145.25892l-4.91105,-17.78009l6.34074,-2.57196c0,0 3.87853,2.31001 4.76014,4.23092c0.62037,1.35171 1.58486,3.547 2.37891,6.50428c0.34311,1.27792 0.25917,3.06596 0.60371,4.63094c0.75048,3.40894 4.64383,6.59307 5.95653,9.93795c0.59951,1.5276 1.07028,2.87503 0.84849,4.45304c-0.14741,1.04888 -0.39725,2.44103 -1.85858,3.17814c-2.48173,1.25183 -6.26571,-1.07638 -6.26571,-1.07638z" data-paper-data="{&quot;index&quot;:null}" fill="#fb95a9" stroke="#000000" stroke-width="2"/><g data-paper-data="{&quot;index&quot;:null}"><path d="M229.73004,127.42588c2.41131,-2.95149 10.53162,-1.45987 12.59919,2.66227c0.26008,0.51854 1.70637,0.53267 5.40284,2.18163c0.86997,0.38809 5.3323,2.85511 7.98427,6.04894c1.26983,1.52929 2.1246,3.99593 1.97118,5.03194c-0.22905,2.80784 -2.67033,5.18657 -4.85989,7.14774c-2.87249,2.57284 1.75248,7.33006 -2.40533,7.33006c-3.03121,0 -16.54137,0.60747 -18.69314,-0.7284c-1.28409,-0.79719 -0.53199,-7.61244 -0.88049,-9.01861c-0.48674,-1.96396 -4.99822,-4.40189 -4.99822,-6.61256c0,-2.58633 2.29137,-12.099 3.87959,-14.04301z" fill="#ee1536" stroke="#000000" stroke-width="2"/><path d="M245.84203,147.61502c0,-3.14019 3.56399,-6.94934 7.26523,-7.10728c3.22449,-0.13759 3.97211,2.15654 3.0535,5.15937c-1.10558,3.61402 -4.40634,5.42259 -7.63376,5.42259c-0.06272,0 2.08362,-1.58996 2.84464,-0.28992c1.01358,1.73146 0.66979,6.51156 0.03616,6.86773c-2.98614,1.67855 -13.402,-0.74155 -16.31172,-0.67209c-0.60085,0.01435 -2.90823,0.59035 -3.45604,-1.26733c-0.44915,-1.5231 0.38106,-5.65028 0.34354,-5.65555c-0.60286,-0.08461 -1.36799,-4.06688 -1.36799,-4.06688c0,0 -2.86476,-2.27685 -2.9505,-2.85725c-0.15338,-1.03828 2.10836,-2.8435 2.10836,-2.8435c0,0 1.25189,1.00644 1.97555,1.57762c0.66583,0.52553 1.57561,2.98741 1.57561,2.98741c0,0 4.12841,-5.5717 8.29185,-4.21031c5.58397,1.82588 4.22558,7.21129 4.22558,6.95539z" fill="#9a1652" stroke="none" stroke-width="0"/><path d="M242.65554,148.23413c2.60911,-3.4977 3.97621,-4.88348 3.97621,-4.88348c0,0 0.91108,2.32297 -0.66029,6.58239c-1.10683,2.43172 -6.57436,2.10729 -6.57436,2.10729c0,0 1.47616,-2.22127 3.25844,-3.8062z" fill="#000000" stroke="none" stroke-width="0"/></g><g data-paper-data="{&quot;index&quot;:null}"><path d="M236.02612,136.77634c-0.87053,5.08429 -8.38063,17.03723 -8.38063,17.03723c0,0 -1.36005,3.08967 -5.05883,3.0623c-0.88436,-0.00654 -2.33305,-1.08571 -3.11544,-2.39634c-0.68482,-1.14717 -0.58952,-2.23521 -0.42135,-2.99123c0.66689,-2.99808 2.24058,-6.86814 3.504,-11.70134c0.44133,-1.6883 1.31894,-3.27706 1.87519,-4.90868c1.42372,-4.17616 2.70107,-7.96781 3.66812,-9.50426c0.34694,-0.55123 0.59771,-1.61103 0.89312,-1.56916c1.29808,0.184 0.60009,0.67268 2.06417,2.13846c2.49717,2.50005 5.6679,6.76669 4.97167,10.83302z" fill="#ffd5d5" stroke="#000000" stroke-width="2"/><path d="M226.33137,154.40257c0,0 -1.50104,1.56612 -3.57842,1.47176c-1.4332,-0.0651 -2.55167,-1.16837 -2.92707,-2.5331c-0.90345,-3.28446 3.2802,-11.0428 3.2802,-11.0428l5.59352,8.10501l-2.36823,3.99914z" fill="#fb95a9" stroke="none" stroke-width="0"/></g><g data-paper-data="{&quot;index&quot;:null}"><g><path d="M254.83462,114.71534c-0.02317,-3.66349 2.3622,-6.64854 5.32788,-6.66729c2.96568,-0.01875 5.38861,2.93589 5.41178,6.59937c0.02317,3.66348 -2.36222,6.64854 -5.3279,6.66729c-2.96568,0.01876 -5.38861,-2.93588 -5.41178,-6.59936z" fill="#fb95a9" stroke="#000000" stroke-width="2"/><path d="M240.98636,130.74793c-25.01981,-3.53773 -27.72278,-6.3711 -29.47931,-16.45395c-1.75653,-10.08286 12.90852,-11.16676 27.17345,-13.65185c14.26493,-2.48511 21.62774,-4.38368 23.38427,5.6992c0.28653,1.64482 -1.20407,11.76618 -1.20407,11.76618c0,0 7.90196,4.01091 7.12124,8.00637c-0.85736,4.31255 -17.53124,5.97228 -26.99558,4.63407z" fill="#ffd5d5" stroke="#000000" stroke-width="2"/><path d="M213.46243,107.11319c0,0 26.42621,-8.62989 32.53387,-9.6939c11.57236,-2.01603 14.38412,4.16156 15.2025,8.85926c0.35744,2.05184 -1.16639,10.4731 -1.16639,10.4731c0,0 -3.98002,-5.26427 -6.12036,-6.52326c-2.43784,-1.43399 -7.52325,-1.66027 -7.52325,-1.66027l-5.58272,7.0345l-6.81227,-7.23234c0,0 -2.81591,5.5779 -5.07815,7.85527c-2.4121,2.42821 -8.97375,6.29055 -8.97375,6.29055l-4.02434,-0.23185c0,0 -3.14196,-4.91589 -3.55904,-7.49321c-0.40065,-2.47562 1.1039,-7.6779 1.1039,-7.6779z" fill="#fb95a9" stroke="none" stroke-width="0"/><path d="M205.28394,117.8364c-0.54893,-3.15089 -0.7493,-3.82396 0.94553,-5.61553c1.35876,-1.4363 8.09431,2.29048 8.64323,5.44138c0.54893,3.15089 0.10956,6.28677 -1.83827,6.6261c-1.94784,0.33932 -7.09315,-2.67866 -7.7505,-6.45196z" fill="#ffd5d5" stroke="#000000" stroke-width="2.5"/><path d="M212.99354,123.44044c-0.69517,0.12108 -3.45832,-0.89451 -4.74797,-2.41109c-0.80513,-0.94679 -1.33816,-2.20869 -1.6811,-3.3116c-0.42053,-1.35254 0.50417,-2.14 1.84894,-1.62394c2.24921,0.86313 5.29681,2.25801 5.52168,3.54869c0.3593,2.0624 0.71984,3.50848 -0.94154,3.79791z" fill="#fb95a9" stroke="none" stroke-width="0"/><path d="M208.07055,115.42715c-0.1098,-0.63019 6.47825,5.28415 6.47825,5.28415l-0.58553,2.77397c0,0 -5.78294,-7.42794 -5.89272,-8.05815z" fill="#000000" stroke="none" stroke-width="0"/><path d="M212.11803,124.46257c-0.54462,-1.78772 0.91278,-3.50648 2.96796,-4.06911c2.05515,-0.56261 4.30241,-1.36121 5.44979,1.63939c0.20197,0.5282 1.43143,4.00154 0.03326,5.87134c-0.21794,0.29145 -1.50125,1.43581 -2.88921,1.72373c-1.91678,0.39763 -3.14164,0.04015 -3.14164,0.04015c0,0 2.06909,-1.9165 1.83963,-2.04642c-0.73181,-0.41433 -3.80223,-1.65703 -4.25981,-3.15906z" fill="#6d0f0a" stroke="#000000" stroke-width="2"/><path d="M199.17522,124.03438c-7.49838,-3.36672 -10.30901,-7.18554 -10.30901,-7.18554c0,0 6.62295,-0.99318 8.66965,-3.31181c2.06305,-2.33718 3.4432,-11.90075 3.4432,-11.90075c0,0 23.07629,-1.71255 32.74086,-3.39622c8.94929,-1.55903 16.80493,-2.90303 22.56017,-3.8801c6.25536,-1.06197 12.0409,1.13185 13.43273,5.90995c0.34446,1.18244 0.8074,2.77505 1.01059,4.13665c0.92875,6.22356 -0.77705,12.10758 -0.77705,12.10758c0,0 -5.96699,-7.00373 -8.83372,-10.02183c-3.5455,-3.73269 -9.1302,-6.8326 -9.1302,-6.8326c0,0 -0.45861,3.98025 -1.79112,6.6574c-1.37938,2.77129 -4.54086,2.99746 -4.54086,2.99746c0,0 -0.58814,-3.13227 -1.35147,-4.5183c-0.70264,-1.27589 -2.00496,-3.682 -1.9385,-2.51113c0.06684,1.17783 -0.16191,4.02428 -0.23315,5.41982c-0.18442,3.61195 -0.6909,4.15388 -0.6909,4.15388c0,0 -2.19246,-2.98479 -4.37703,-5.76117c-1.85745,-2.36066 -4.58677,-3.49944 -4.58677,-3.49944c0,0 -4.14478,5.03994 -6.59351,7.16831c-2.21205,1.92267 -7.0851,4.98198 -7.0851,4.98198c0,0 3.14438,7.79162 -0.88511,7.88546c-2.84791,0.06632 -4.12597,-0.30189 -5.7524,-1.32958c-0.97505,-0.61609 -1.58602,-3.55369 -1.58602,-3.55369l2.13738,0.29168c0,0 -1.94484,-6.04003 -3.31536,-6.24068c-2.41316,-0.35329 -0.68135,-0.87015 -4.11903,-0.18286c-0.50038,0.10004 -1.51483,3.27751 -0.96481,6.06409c0.5905,2.99168 2.76811,5.60316 2.76811,5.60316c0,0 -4.23976,2.39243 -7.90153,0.7483z" fill="#6d0f0a" stroke="#000000" stroke-width="1.5"/><path d="M245.15137,99.30301c-0.9661,0.16831 -2.40029,-0.74298 -4.37084,-0.54328c-2.13489,0.21634 -4.81504,1.54568 -5.92308,1.77785c-16.003,3.35355 -33.73936,7.49699 -33.73936,7.49699c0,0 0.34566,-2.6751 0.21454,-3.94143c-0.14006,-1.35291 -0.71865,-3.98773 -0.71865,-3.98773c0,0 22.13767,-1.02327 35.10361,-3.28206c8.31984,-1.44941 17.02844,-3.31583 22.6305,-3.49093c5.9318,-0.18542 8.95448,1.28876 8.95448,1.28876l2.01779,6.65483l-2.61014,-0.24913l-7.05375,-5.36597c0,0 -10.07353,2.87006 -14.50508,3.64209z" fill="#6d0f0a" stroke="none" stroke-width="0"/><path d="M239.16563,127.65872c-1.24136,0.04143 -1.93223,-1.07419 -2.49747,-2.16358c-0.63766,-1.22901 -1.06376,-2.4628 -0.96554,-2.68395c0.15112,-0.34029 9.0219,0.64997 9.10426,1.03246c0.07859,0.36494 -1.10857,1.36837 -2.69945,2.3692c-0.89637,0.56388 -1.62778,1.46567 -2.69805,1.50137z" fill="#ef3d61" stroke="#000000" stroke-width="1.5"/><path d="M244.01147,115.75256c-0.33333,-1.91343 -0.31923,-5.28881 2.42309,-6.87723c0.49236,-0.28521 1.70305,-0.38256 3.07746,-0.15953c1.40873,0.22859 2.64439,0.79864 3.00006,0.93302c0.70267,0.26549 1.89708,-0.24412 1.89708,-0.24412c0,0 1.13988,-0.78974 1.76375,-1.38131c0.52375,-0.49662 1.64513,-2.43118 1.64513,-2.43118c0,0 0.16606,1.49303 -0.7772,3.2487c-0.38868,0.72347 -1.53437,2.06323 -1.53437,2.06323c0,0 1.0371,-0.0307 2.16504,-0.41591c0.84726,-0.28933 2.82944,-1.88414 2.82944,-1.88414c0,0 -0.73322,1.82855 -1.30983,2.64605c-0.39817,0.5645 -1.47285,1.33586 -1.47285,1.33586l-0.07119,1.03834c0,0 -1.7408,-1.61353 -2.58443,-1.90832c-0.68213,-0.23836 -2.24266,0.16985 -2.24266,0.16985c0,0 0.34783,4.28897 -1.15821,6.77735c-0.23777,0.39286 -1.2157,-0.17031 -2.49528,0.29993c-2.01955,0.74217 -2.34904,1.31664 -2.73071,1.18667c-1.5866,-0.54029 -2.03318,-2.15235 -2.42427,-4.39727z" fill="#000000" stroke="none" stroke-width="0"/><path d="M221.16612,108.77352c0,0 1.77775,1.47916 2.7218,1.93714c0.86884,0.4215 2.2303,0.26407 2.2303,0.26407c0,0 -0.43139,-0.69677 -0.86507,-1.42387c-0.45231,-0.75832 -1.287,-2.98234 -1.287,-2.98234c0,0 1.49003,1.5725 2.21978,2.08996c0.69787,0.49487 2.31087,1.1213 2.31087,1.1213c0,0 2.54646,-0.49266 4.22536,-0.78513c4.39489,-0.76563 7.78848,1.84954 7.78848,1.84954c0,0 -2.50439,-0.25525 -3.37471,-0.31383c-0.6182,-0.04165 -1.33038,0.13366 -1.33038,0.13366c0,0 0.4734,6.22103 -2.53976,9.01581c-0.3616,0.33539 -1.46766,-1.22765 -3.48652,-1.58003c-2.10301,-0.36706 -2.83151,0.30914 -3.20908,-0.43342c-0.9531,-1.87448 -0.44435,-3.85112 -0.59644,-4.05082c-0.19084,-0.25057 -1.21499,-0.97541 -1.21499,-0.97541c0,0 -1.5554,-0.648 -2.12405,-1.24664c-0.61861,-0.65125 -1.46852,-2.61998 -1.46852,-2.61998z" fill="#000000" stroke="none" stroke-width="0"/></g><path d="M268.87609,99.33762c0,0 -0.79185,-2.64845 -1.28965,-3.96323c-0.47604,-1.25726 -1.63491,-3.76058 -1.63491,-3.76058c0,0 1.16719,0.51505 2.12575,2.72681c0.62647,1.44553 2.18861,5.20599 2.18861,5.20599z" fill="#000000" stroke="none" stroke-width="0"/></g><g data-paper-data="{&quot;index&quot;:null}"><path d="M260.58559,188.97289c-1.09886,-0.5986 -2.82827,-1.74674 -4.64921,-5.3386c-1.09457,-2.15906 -1.66711,-4.28137 -0.94047,-4.93027c2.24838,-2.00784 13.14448,-3.55575 13.24833,-3.5602c6.30947,-0.27073 15.03425,4.06089 15.15091,6.7799c0.09252,2.15616 -5.43852,5.3244 -11.64699,5.38196c-9.18173,0.08513 -12.79205,-3.88478 -12.99731,-4.09434c-0.81476,-0.8318 1.01247,1.50777 1.71632,2.44005c0.80668,1.06852 2.17331,1.77945 2.03466,2.86318c-0.15843,1.23842 -1.00517,0.95462 -1.91624,0.45833z" fill="#ee1536" stroke="#000000" stroke-width="1.5"/><path d="M224.18537,167.64c-0.15417,-3.59323 1.58911,-6.86832 4.6085,-9.33346c4.01069,-3.27448 10.07576,-5.20808 15.01442,-5.42c5.31506,-0.22806 12.34802,-0.72937 14.45115,1.47459c0.57087,0.59823 0.25987,3.3494 0.72544,5.9382c0.26758,1.4879 1.23044,5.08026 2.40818,7.95608c0.8571,2.09289 1.87977,4.48684 3.02545,4.74823c4.75043,1.08387 11.48872,3.34943 9.91822,5.97208c-1.19343,1.99297 -8.612,2.54539 -14.60309,1.0013c-5.39246,-1.38979 -9.35317,-4.778 -11.31595,-5.17929c-3.32978,-0.68078 -10.22496,1.87421 -13.60069,1.55246c-2.19959,-0.20964 -4.14286,-0.84987 -5.61095,-1.55774c-3.63843,-1.75435 -4.92525,-4.92955 -5.02063,-7.15245z" fill="#ffd5d5" stroke="#000000" stroke-width="1.5"/><path d="M254.2404,162.64465c0,0 1.49716,-1.2019 2.12592,-1.93303c0.57006,-0.66286 1.48783,-2.26901 1.48783,-2.26901c0,0 0.57897,2.40932 0.85215,3.64215c0.24699,1.11462 0.71625,3.436 0.71625,3.436c0,0 -2.18707,-0.47446 -3.12294,-0.99387c-0.75004,-0.41626 -2.0592,-1.88223 -2.0592,-1.88223z" fill="#fb95a9" stroke="none" stroke-width="0"/><path d="M275.63237,178.70419c0.15436,-0.36089 1.66783,-0.20814 2.99111,0.35789c1.32329,0.56603 2.78489,2.24391 2.63052,2.6048c-0.15437,0.3609 -1.5642,-1.06098 -2.88748,-1.62701c-1.32328,-0.56602 -2.88851,-0.97478 -2.73414,-1.33567z" fill="#fc9ea5" stroke="none" stroke-width="0"/></g><g data-paper-data="{&quot;index&quot;:null}"><path d="M230.99298,186.58661c2.62269,-6.3252 7.78643,-8.03121 12.41953,-6.11014c4.63311,1.92108 6.44969,7.98215 3.827,14.30735c-2.62268,6.3252 -11.37061,11.74723 -14.81716,10.11056c-3.41241,-1.62046 -4.23387,-11.65725 -1.61118,-17.98245z" fill="#ee1536" stroke="#000000" stroke-width="1.5"/><path d="M233.52871,183.84021c0,0 2.03953,-2.83612 4.34867,-3.45247c0.77454,-0.20673 4.08348,0.2875 6.54407,1.9414c1.67242,1.12411 2.7623,3.22886 3.13856,4.2851c0.64808,1.81929 0.06305,3.76241 0.06305,3.76241c0,0 -1.83878,1.64325 -5.45491,1.47677c-1.90157,-0.08755 -4.59049,-2.1948 -6.27753,-4.32473c-1.52112,-1.92045 -2.36192,-3.68848 -2.36192,-3.68848z" fill="#9a1652" stroke="none" stroke-width="0"/><path d="M238.1008,174.10757c0.64209,-7.07901 2.34927,-10.81673 10.75637,-10.41421c4.91552,0.23535 6.45029,5.94397 6.09825,8.3442c-1.17783,8.03042 -9.93571,15.01155 -9.93571,15.01155c0,0 1.28551,8.02916 -7.04397,8.93559c-4.07313,0.44326 -4.0134,-6.5712 -3.319,-8.2703c1.26066,-3.08463 3.48141,-4.87323 3.48141,-4.87323c0,0 -0.32268,-5.58803 -0.03736,-8.73359z" fill="#ffd5d5" stroke="#000000" stroke-width="1.5"/><path d="M245.2168,175.55321c-0.97793,-0.65218 -1.19157,-1.62706 -1.51073,-2.59555c-0.38513,-1.16866 -0.63229,-4.08715 -0.63229,-4.08715c0,0 1.86985,1.46063 2.93179,2.08813c1.04502,0.61749 3.55496,1.49685 3.55496,1.49685c0,0 -1.58272,2.39091 -2.30148,2.87154c-0.668,0.44669 -1.06431,0.87831 -2.04225,0.22616z" fill="#fb95a9" stroke="none" stroke-width="0"/><path d="M235.65401,202.09986c-0.64125,-0.04092 1.52483,-1.03156 2.35552,-1.50352c0.92146,-0.52352 2.85538,-2.34043 2.8876,-1.97103c0.06515,0.74694 -1.47363,2.15893 -2.31555,2.63727c-0.91376,0.51917 -1.83899,0.90675 -2.92756,0.8373z" fill="#fc9ea5" stroke="none" stroke-width="0"/></g><g data-paper-data="{&quot;index&quot;:null}"><path d="M231.62246,151.37591c-0.63147,0.9192 -7.62661,1.99997 -8.06213,2.00774c-1.89543,0.03378 -3.37909,-0.08037 -4.67209,-0.60418c-0.68009,-0.27551 -1.26472,-0.59859 -1.71798,-1.2156c-1.4088,-1.91772 -1.74661,-3.58687 -1.61616,-5.22611c0.13552,-1.70299 0.60939,-3.18565 1.47993,-4.30238c0.69112,-0.88656 1.93009,-1.86107 3.34073,-2.24959c1.39877,-0.38525 2.97092,-0.18823 3.27241,-0.18821c0.31376,0.00002 0.42107,0.63866 0.55129,0.64494c0.22117,0.01066 -0.16594,-0.69135 0.29648,-0.6415c0.75965,0.08188 1.98027,0.23183 2.55817,0.50261c4.69202,2.19852 5.32134,5.86282 5.32134,5.86282c0,0 0.14828,4.09895 -0.752,5.40946z" fill="#ffd5d5" stroke="#000000" stroke-width="1.5"/><path d="M216.37445,148.01194c0,-0.26501 -0.06981,-1.15922 0.03578,-1.96452c0.12654,-0.96505 0.4323,-1.83874 0.4323,-1.83874c0,0 0.5264,0.64833 1.11348,1.55255c0.7237,1.11465 1.79285,2.52366 2.95944,2.44709c3.61409,-0.23721 3.32264,-4.15093 3.32264,-4.15093c0,0 0.84592,0.34795 1.60345,1.00011c0.56515,0.48653 1.00046,1.30363 1.43264,1.4039c0.85659,0.19873 2.373,-1.35856 2.373,-1.35856c0,0 0.89161,-0.85307 1.11578,-0.46213c0.76802,1.33937 1.51117,5.56677 -0.51741,7.09345c-0.54999,0.41391 -5.0941,0.69748 -5.82563,0.77777c-1.00779,0.11061 -3.85633,0.50038 -5.93151,-0.75364c-0.84307,-0.61832 -1.26395,-1.32798 -1.57312,-1.88014c-0.57313,-1.02357 -0.54083,-1.72738 -0.54083,-1.86623z" fill="#fb95a9" stroke="none" stroke-width="0"/><path d="M226.07604,146.61363c0.04715,1.64397 -1.70158,2.89829 -1.70158,2.89829c0,0 0.30856,-1.82162 0.26811,-2.71994c-0.07371,-1.63709 -0.90447,-2.91643 -0.90447,-2.91643c0,0 2.26204,0.53072 2.33794,2.73808z" fill="#000000" stroke="none" stroke-width="0"/><path d="M225.91992,151.69373c0,0 -5.37715,0.71194 -7.70727,-0.75897c-1.98582,-1.25357 -1.01213,-4.39209 -0.6953,-4.98254c0.13908,-0.25919 0.43519,-0.5023 0.71965,-0.69169c0.35029,-0.23322 0.57653,-0.07098 0.46689,0.40434c-0.26823,1.16291 -0.55588,3.29146 0.64749,4.15001c1.62371,1.15845 6.47762,0.3334 6.47762,0.3334l0.09091,1.54546z" fill="#000000" stroke="none" stroke-width="0"/><path d="M235.0289,147.85794c0.25787,1.26217 0.05431,4.32515 -1.74592,6.10114c-1.16458,1.1489 -2.85197,1.80767 -6.00487,0.92858c-1.14612,-0.31956 -1.4465,-1.39448 -1.45467,-2.55752c-0.00588,-0.83589 0.05129,-1.7173 0.46463,-2.39652c1.01789,-1.67264 3.72277,-2.4217 3.72277,-2.4217c0,0 0.47348,-3.22718 -0.50863,-5.4682c-0.53612,-1.2233 -2.49137,-2.5318 -2.49137,-2.5318c0,0 0.38211,-2.77049 0.2245,-5.71984c-0.1515,-2.83493 -0.87083,-5.82129 0.45622,-7.34409c0.5079,-0.58283 1.35783,-0.74921 2.22836,-0.75425c1.44995,-0.0084 2.72125,1.28188 3.53967,3.67196c0.51606,1.50708 0.91732,4.23734 0.81396,6.50906c-0.13103,2.87964 -0.84762,5.22681 -0.68917,7.84479c0.10413,1.72056 1.17356,2.81229 1.4445,4.13839z" fill="#ffd5d5" stroke="#000000" stroke-width="1.5"/><path d="M234.20003,148.0417c0,0 0.15871,0.73676 0.12679,1.82729c-0.03137,1.07183 -0.32173,2.4854 -2.01081,3.87707c-1.22874,1.01239 -4.90427,0.4142 -5.39197,-0.00593c-1.40002,-1.20608 0.35933,-3.94844 0.35933,-3.94844c0,0 0.57155,1.0246 2.44942,0.88429c2.23954,-0.16733 4.46724,-2.63429 4.46724,-2.63429z" fill="#fb96aa" stroke="none" stroke-width="0"/><path d="M229.22131,154.84121c-0.57188,-0.04289 -1.77129,-0.38285 -1.77129,-0.38285c0,0 0.75223,-3.62654 2.875,-2.70834c1.33049,0.57551 0.45834,2.95834 0.45834,2.95834c0,0 -1.02501,0.17313 -1.56205,0.13285z" fill="#7f1743" stroke="#000000" stroke-width="1"/></g><g data-paper-data="{&quot;index&quot;:null}"><path d="M263.83338,154.70837c0,0 -4.85352,2.02078 -8.51435,0.11082c-0.94795,-0.49457 -2.11574,-1.01948 -2.71436,-2.18673c-0.48609,-0.94783 -0.92371,-1.87151 -1.16502,-3.19349c-0.55732,-3.05325 1.59268,-5.01281 2.03618,-8.73349c0.47314,-3.96933 -0.38945,-9.77135 0.02059,-12.74761c0.28019,-2.03377 1.52104,-2.03734 2.24998,-2.04184c2.82778,-0.01744 4.04683,5.4563 4.22054,6.25258c0.61992,2.8417 -0.5505,8.78384 -0.5505,8.78384c0,0 2.68168,-0.26674 4.95829,0.7463c0.11076,0.04929 -0.22705,0.48272 0.09525,0.66586c0.30663,0.17425 0.35732,-0.40177 0.45866,-0.34378c2.67021,1.5279 4.40002,4.58294 4.36115,6.44359c-0.02422,1.15936 -0.13888,1.96076 -0.27739,2.59808c-0.06866,0.3159 -0.57993,0.90267 -0.92765,1.5015c-0.28103,0.48397 -0.39742,1.00472 -0.53846,1.17097c-0.83224,0.98096 -1.9231,1.0762 -2.70677,1.04859c-0.5902,-0.02079 -1.00616,-0.0752 -1.00616,-0.0752z" fill="#ffd5d5" stroke="#000000" stroke-width="1.5"/><path d="M268.58334,148.2917c0,0 0.04861,1.4956 -0.39907,3.01485c-0.15996,0.54288 -0.3319,0.83879 -0.73014,1.32055c-0.33232,0.40202 -1.09686,1.25017 -1.72508,1.32733c-0.69984,0.08596 -1.43733,0.20911 -1.88731,0.1968c-0.77922,-0.02133 -1.53556,0.24925 -2.38668,0.44894c-1.26083,0.29582 -2.79678,0.53564 -3.94851,0.24858c-1.36153,-0.33935 -2.66034,-1.06137 -3.52512,-1.71477c-0.39892,-0.30142 -1.46319,-2.46043 -1.46319,-2.46043c0,0 2.08537,0.97356 4.07629,1.29989c1.86917,0.30637 3.87546,0.05642 4.62874,-0.12568c0.98974,-0.23926 0.86007,-1.72273 0.86007,-1.72273l-4.35776,-1.90715l0.66876,-5.31916l1.60568,-0.94035c0,0 -0.46349,4.05664 0.52285,5.16462c0.35268,0.39617 1.2398,0.32441 1.8989,0.04097c0.78916,-0.33938 1.35982,-0.90996 1.76148,-0.36643c0.77862,1.05364 0.85474,2.36805 1.36017,2.73741c0.95459,0.69758 3.03994,-1.24325 3.03994,-1.24325z" fill="#fb95a9" stroke="none" stroke-width="0"/><path d="M266.50004,143.45835c0,0 -0.67422,-0.0051 -1.46034,0.08734c-0.47316,0.05563 -0.75981,0.27585 -0.998,0.03766c-0.32388,-0.32387 -0.38913,-0.45885 -0.82021,-1.05775c-0.52317,-0.72685 -1.47146,-1.40058 -1.47146,-1.40058c0,0 2.13361,0.50682 3.03583,1.00304c0.72571,0.39914 1.71417,1.33029 1.71417,1.33029z" fill="#000000" stroke="none" stroke-width="0"/><path d="M268.08337,152.45836c0,0 -1.0717,0.54812 -2.45379,0.64902c-0.54018,0.03943 -1.39711,0.03233 -1.39711,0.03233l0.1591,1.30056l-2.0582,0.51809c0,0 1.18096,-2.42696 0.56969,-3.57027c-0.16758,-0.31343 -0.91809,-0.85319 -1.82782,-1.15526c-1.01392,-0.33668 -2.39228,-0.54249 -3.21513,-0.89077c-0.25334,-0.10723 -0.58129,-0.89884 -0.5043,-1.39319c0.1198,-0.76919 0.45006,-1.67925 0.95747,-1.65492c0.33369,0.016 -0.09174,1.66499 0.36756,1.76806c0.52743,0.11836 1.43152,0.07298 2.28249,0.29015c0.97917,0.24989 1.91502,0.7394 2.57337,0.43567c0.60922,-0.28106 -0.22123,-2.57109 0.89086,-2.19747c0.32824,0.11028 -0.12873,5.12827 0.20926,5.20022c0.56293,0.11984 1.42987,0.06211 2.16227,-0.24681c1.07199,-0.45217 1.78427,-1.25209 1.78427,-1.25209l-0.5,2.16667z" fill="#000000" stroke="none" stroke-width="0"/><path d="M259.91671,140.12501c0,0 -0.06436,1.17807 -0.13105,2.42304c-0.06498,1.21295 -0.12793,2.49363 -0.45229,2.49363c-0.18535,0 -0.97796,-1.42883 -1.05709,-2.5908c-0.02615,-0.38401 0.11324,-0.76617 0.19862,-1.10334c0.16569,-0.65433 0.35847,-1.1392 0.35847,-1.1392l1.08333,-0.08333z" fill="#000000" stroke="none" stroke-width="0"/><path d="M263.41669,154.45835c0,0 -0.93063,0.56812 -1.49147,0.7733c-0.57756,0.21131 -1.92519,0.4767 -1.92519,0.4767c0,0 -0.18461,-3.16922 0.95052,-3.29694c1.58903,-0.17879 2.46615,2.04694 2.46615,2.04694z" fill="#7f1742" stroke="#000000" stroke-width="1"/></g></g></g></svg>