<svg version="1.1" xmlns="http://www.w3.org/2000/svg" xmlns:xlink="http://www.w3.org/1999/xlink" width="189.26654" height="221.55319" viewBox="0,0,189.26654,221.55319"><g transform="translate(-145.36673,-69.22341)"><g data-paper-data="{&quot;isPaintingLayer&quot;:true}" fill-rule="nonzero" stroke-linejoin="miter" stroke-miterlimit="10" stroke-dasharray="" stroke-dashoffset="0" style="mix-blend-mode: normal"><path d="M145.36673,290.77659v-221.55318h189.26654v221.55319z" fill="none" stroke="none" stroke-width="NaN" stroke-linecap="butt"/><g data-paper-data="{&quot;origRot&quot;:0}" stroke="#000000" stroke-linecap="round"><path d="M242.12372,217.61942c0,0 -0.75659,-4.74071 0.77396,-4.93822c4.51645,-0.58278 8.65537,-2.82519 13.08756,-1.77955c1.84048,0.4342 3.12581,4.52575 3.12581,4.52575l8.88652,31.89288c0,0 0.96053,3.28121 1.44596,5.18591c0.51901,2.03646 -0.07758,5.29188 -2.14338,5.67792c-7.58495,1.41749 -12.04884,3.69797 -16.9988,3.37346c-1.80335,-0.11823 -3.70943,-0.36209 -4.65085,-1.90474c-1.22977,-2.0151 -1.18116,-6.49656 -1.18116,-6.49656z" data-paper-data="{&quot;origPos&quot;:null}" fill="#ff0000" stroke-width="3"/><path d="M269.9735,255.81662c0,0 -5.46429,3.50486 -10.491,4.28607c-3.85667,0.59936 -12.3672,0.88579 -12.3672,0.88579c0,0 -1.73717,-2.36885 -2.0709,-3.93638c-0.35157,-1.6513 0.31488,-4.31148 0.31488,-4.31148l22.91133,-4.36763z" data-paper-data="{&quot;origPos&quot;:null}" fill="#976e57" stroke-width="2"/><path d="M242.25342,217.92396c0,0 -0.75659,-4.74071 0.77397,-4.93821c4.51644,-0.58278 8.65537,-2.82519 13.08758,-1.77953c1.84048,0.4342 3.1258,4.52574 3.1258,4.52574l8.88652,31.89288c0,0 0.96055,3.28121 1.44598,5.18591c0.51901,2.03646 -0.07759,5.29187 -2.14338,5.67792c-7.58495,1.41749 -12.04884,3.69798 -16.9988,3.37347c-1.80335,-0.11823 -3.70943,-0.36211 -4.65084,-1.90474c-1.22977,-2.0151 -1.18117,-6.49656 -1.18117,-6.49656z" data-paper-data="{&quot;origPos&quot;:null}" fill="#474747" stroke-width="3"/></g><g data-paper-data="{&quot;index&quot;:null,&quot;origRot&quot;:0}" stroke="#000000" stroke-linecap="round"><path d="M239.34587,252.80478c0,0 0.25022,4.47474 -0.8876,6.54314c-0.87105,1.58346 -2.76422,1.91284 -4.56042,2.11212c-4.93033,0.54697 -9.49233,-1.53035 -17.13339,-2.60503c-2.08108,-0.2927 -2.82358,-3.51795 -2.39675,-5.57571c0.39922,-1.92461 1.21111,-5.24572 1.21111,-5.24572l7.4422,-32.2605c0,0 1.09988,-4.14524 2.91894,-4.66182c4.38065,-1.24405 8.61629,0.80979 13.15438,1.18874c1.53789,0.12842 0.99543,4.89837 0.99543,4.89837z" data-paper-data="{&quot;origPos&quot;:null}" fill="#ff0000" stroke-width="3"/><path d="M215.35349,249.09758l23.08465,3.33207c0,0 0.7855,2.62749 0.5086,4.29293c-0.26284,1.58097 -1.89165,4.0256 -1.89165,4.0256c0,0 -8.5148,0.09687 -12.39452,-0.32831c-5.05676,-0.55419 -10.67325,-3.80957 -10.67325,-3.80957z" data-paper-data="{&quot;origPos&quot;:null}" fill="#976e57" stroke-width="2.5"/><path d="M239.23002,253.11487c0,0 0.25022,4.47474 -0.8876,6.54314c-0.87105,1.58346 -2.76422,1.91285 -4.56042,2.11212c-4.93033,0.54697 -9.49232,-1.53033 -17.13339,-2.60502c-2.08108,-0.2927 -2.82358,-3.51796 -2.39675,-5.57571c0.39922,-1.92461 1.21111,-5.24572 1.21111,-5.24572l7.4422,-32.2605c0,0 1.09987,-4.14524 2.91894,-4.66182c4.38065,-1.24405 8.61631,0.80979 13.15439,1.18874c1.53789,0.12842 0.99542,4.89837 0.99542,4.89837c0,0 -0.1881,9.00336 -0.30849,14.76599c-0.16993,8.13325 -0.43542,20.84043 -0.43542,20.84043z" data-paper-data="{&quot;origPos&quot;:null}" fill="#474747" stroke-width="1.5"/></g><g><g><g data-paper-data="{&quot;origRot&quot;:0}" stroke="#000000" stroke-width="3" stroke-linecap="round"><path d="M292.75394,182.94979c1.38552,1.76035 -5.63248,5.63773 -5.63248,5.63773c0,0 -18.27582,10.78707 -26.88581,15.91926c-3.93638,1.6101 -26.73309,-25.75783 -26.31834,-31.04534c0.18489,-2.357 5.86482,-9.47916 7.7011,-9.32019c3.49519,0.30257 16.11878,9.06645 16.11878,9.06645l-2.85886,2.53736l8.11621,-5.90307c0,0 8.83954,-7.71609 13.4341,-9.87901c2.54818,-1.19957 16.32528,22.98679 16.32528,22.98679z" data-paper-data="{&quot;origPos&quot;:null}" fill="#582700"/><path d="M269.19661,165.71955l16.04777,22.30232" fill="none"/><path d="M266.16338,168.22452l16.26018,22.14948" data-paper-data="{&quot;origPos&quot;:null}" fill="none"/></g><path d="M285.44503,188.57938l-2.07595,1.51362l-16.55796,-22.70966l2.07595,-1.51362z" fill="#ffffff" stroke="none" stroke-width="0" stroke-linecap="butt"/><path d="M260.07372,204.77432l-8.17333,-6.01131l-13.7275,-17.12234l-3.36483,-6.99472l0.62502,-4.64844l5.30548,-4.34511l1.0611,-0.86904l14.62383,8.11513l-1.97737,1.91489l1.15871,1.41479l9.80751,-7.14581l16.99474,21.83326l-21.41712,12.8128z" fill="#ffcb66" stroke="#000000" stroke-width="0.5" stroke-linecap="round"/></g><g fill="none" stroke="none" stroke-width="1" stroke-linecap="butt" font-family="sans-serif" font-weight="normal" font-size="12" text-anchor="start"/></g><g><g><path d="M222.15978,169.65034c0,0 1.90818,-14.4138 4.06443,-14.96658c6.46873,-1.65836 21.26784,-0.76158 31.15773,-0.78418c1.52888,-0.00349 2.88006,13.52685 2.88006,13.52685l1.85068,30.62406c0,0 0.27747,14.95737 -1.39038,14.96118c-14.84693,0.03393 -32.24657,0.92631 -38.86609,0.1005c-2.20649,-0.27526 -1.41448,-16.03488 -1.41448,-16.03488z" data-paper-data="{&quot;origPos&quot;:null}" fill="#ffcb66" stroke="#000000" stroke-width="3.5" stroke-linecap="round"/><path d="M241.02333,177.80606c-1.29167,0.00295 -1.29735,-2.48454 -1.29735,-2.48454c-0.01179,-5.15925 -0.02737,-11.97681 -0.03916,-17.13606c0,0 -0.00568,-2.48749 1.28598,-2.49045c1.29167,-0.00295 1.29735,2.48454 1.29735,2.48454c0.01179,5.15925 0.02358,10.31848 0.03537,15.47773l0.00379,1.65833c0,0 0.00568,2.48749 -1.28598,2.49045z" fill="#ffffff" stroke="none" stroke-width="0.5" stroke-linecap="butt"/><path d="M253.03777,184.11195c-1.29167,0.00295 -1.29881,-3.12204 -1.29881,-3.12204c-0.01481,-6.48146 -0.03438,-15.04625 -0.04919,-21.52771c0,0 -0.00714,-3.12499 1.28453,-3.12794c1.29167,-0.00295 1.29881,3.12204 1.29881,3.12204c0.01481,6.48146 0.02962,12.96293 0.04443,19.4444l0.00476,2.08332c0,0 0.00714,3.12499 -1.28453,3.12794z" fill="#ffffff" stroke="none" stroke-width="0.5" stroke-linecap="butt"/></g><g stroke="#000000" stroke-width="0.5" stroke-linecap="butt"><path d="M255.83931,194.0801c0.01544,6.75771 -4.58702,12.24647 -10.27988,12.25948c-5.69287,0.01301 -10.32036,-5.45466 -10.3358,-12.21237c-0.01544,-6.75771 4.58702,-12.24647 10.27988,-12.25948c5.69287,-0.01301 10.32036,5.45466 10.3358,12.21237z" fill="#ffa924"/><path d="M248.56614,182.80893c0.00045,0.01121 0.00069,0.02264 0.00072,0.03429c0.00143,0.62472 -0.62329,0.62615 -0.62329,0.62615l-0.12494,0.00029c-0.45645,0.00104 -2.53716,0.0337 -2.84935,-0.1009c-0.26061,-0.11236 -0.20496,-0.54262 -0.39278,-0.75538c-0.18044,-0.2044 -0.43679,-0.33045 -0.678,-0.45756c-0.38357,-0.20213 -0.90679,-0.19769 -1.1894,-0.5265c-0.26105,-0.30375 -0.29307,-0.77113 -0.26947,-1.17096c0.11087,-1.87774 1.2629,-1.89958 2.75148,-1.7337c0.44908,0.09784 0.91237,0.14478 1.34726,0.29352c0.19132,0.06543 0.30593,0.29339 0.50286,0.33926c0.13997,0.03261 0.2713,-0.09842 0.41233,-0.12608c0.00602,-0.00118 1.74848,-0.25412 1.76576,-0.25662c1.17801,-0.16999 2.43812,-0.22169 3.62755,-0.13816c0.75791,0.05323 2.47057,0.23704 2.90934,0.99535c0.62487,1.07994 -1.18245,1.81579 -1.63481,2.00192c-1.33869,0.55084 -2.4832,0.21295 -3.84751,0.37504c-0.46474,0.05521 -1.21111,0.38291 -1.70776,0.60003z" fill="#1cc735"/></g></g><path d="M257.03731,154.65229c-12.06817,0.67542 -23.77299,1.29434 -28.60463,0.51062c-4.4158,-0.71626 -5.86014,-3.41368 -5.86014,-3.41368c0,0 -1.86619,-2.35123 -2.02225,-3.87829c-0.46815,-4.58117 -1.19066,-17.71166 -0.76492,-29.08065c0.01421,-0.37944 0.03593,-0.59217 0.07272,-0.97009c0.11035,-1.13374 0.72845,-5.54313 0.72845,-5.54313c0,0 3.11078,-1.8032 4.82014,-2.35513c5.12804,-1.65579 18.39517,-0.76898 32.31409,-0.98576c1.26158,-0.01964 3.49764,1.5616 3.49764,1.5616c0,0 1.68201,3.06431 1.72373,5.0474c0.26978,12.82099 0.52108,27.00752 0.36663,30.26053c-0.05147,1.08434 -1.69693,5.35312 -1.69693,5.35312z" fill="#582600" stroke="#000000" stroke-width="2.5" stroke-linecap="round"/><g><g data-paper-data="{&quot;index&quot;:null}"><path d="M273.30143,161.04979c1.96785,-1.05707 3.8355,-6.34188 4.81719,-4.51432c0.50004,0.9309 9.30394,18.11211 9.171,19.26536c-0.12808,1.11079 -0.65218,2.04935 -1.61766,2.56798c-0.65689,0.35283 -1.8379,0.57817 -2.72594,0.42254c-1.77237,-0.3106 -14.88016,-15.03961 -15.53417,-16.25714c-0.9817,-1.82758 3.92175,-0.42735 5.88961,-1.48441z" fill="#e99b00" stroke="#000000" stroke-width="1.5" stroke-linecap="butt"/><g stroke-linecap="butt"><path d="M270.08889,155.01578c3.56528,-1.91517 7.48064,-1.55932 8.74516,0.79479c1.26456,2.3541 -0.60055,5.81504 -4.16582,7.7302c-3.56529,1.91517 -7.48065,1.55932 -8.74518,-0.79479c-1.26456,-2.3541 0.60057,-5.81502 4.16584,-7.73018z" fill="#ffb727" stroke="#000000" stroke-width="1.5"/><path d="M271.30208,163.82619c0,0 -1.50645,0.40713 -3.03128,-0.07893c-0.72384,-0.24259 -2.10231,-1.43346 -2.10231,-1.43346l3.60029,-0.26237z" fill="#ffd683" stroke="none" stroke-width="0"/><path d="M274.39586,162.81145l-1.58104,0.79502c0,0 -0.54395,-0.48303 -0.74859,-0.81128c-0.17476,-0.28034 -0.52835,-1.15492 -0.52835,-1.15492l1.43,-0.44976z" fill="#ffd683" stroke="none" stroke-width="0"/></g><g><path d="M272.99811,160.20648c-4.9184,2.642 -11.73956,1.92627 -14.38155,-2.99209c-2.642,-4.9184 -1.02992,-10.27244 3.88845,-12.91441c4.9184,-2.642 11.29935,-0.93201 13.94135,3.98635c2.642,4.9184 1.47015,9.27815 -3.44821,11.92012z" fill="#e99b00" stroke="#000000" stroke-width="1.5" stroke-linecap="butt"/><path d="M261.19332,145.82351c0,0 1.82264,0.5196 4.30775,1.46433c2.47909,0.94243 5.15508,2.90598 6.30945,5.05496c2.31155,4.30322 1.89554,6.57719 -1.67799,8.49681c-1.73853,0.9339 -3.85832,0.8621 -5.62294,0.11053c-2.47683,-1.05492 -5.02346,-2.94598 -6.33424,-5.38621c-2.31155,-4.30322 3.01797,-9.7404 3.01797,-9.7404z" fill="#ffb727" stroke="none" stroke-width="0" stroke-linecap="butt"/><path d="M275.78364,149.03898c0,0 -0.99712,4.40155 -6.84245,7.27805c-5.79782,2.85313 -10.03831,0.78274 -10.03831,0.78274" fill="none" stroke="#000000" stroke-width="0.8" stroke-linecap="round"/><path d="M277.00629,154.36152c0,0 -1.11882,2.78911 -6.73473,4.79558c-3.89688,1.39229 -8.24387,1.29933 -8.24387,1.29933" fill="none" stroke="#000000" stroke-width="0.75" stroke-linecap="round"/><path d="M274.20487,146.80298c0,0 -0.74227,2.58735 -6.47892,5.0198c-5.96435,2.52903 -10.08816,1.04722 -10.08816,1.04722" fill="none" stroke="#000000" stroke-width="0.8" stroke-linecap="round"/><path d="M258.10696,149.40808c0,0 3.73769,-2.05797 7.88402,-3.05358c3.14794,-0.75589 7.56158,-0.6487 7.56158,-0.6487" fill="none" stroke="#000000" stroke-width="0.8" stroke-linecap="round"/><path d="M266.5209,143.62954c0,0 3.54754,0.86281 5.95013,5.80419c2.57464,5.29524 2.05257,9.09368 2.05257,9.09368" fill="none" stroke="#000000" stroke-width="0.8" stroke-linecap="round"/><path d="M272.04701,160.36131c0,0 -1.58836,-2.53836 -2.34322,-4.15683c-0.63553,-1.36268 -1.38064,-4.20532 -2.43735,-6.67319c-1.20164,-2.80629 -2.68404,-5.17515 -2.68404,-5.17515" fill="none" stroke="#000000" stroke-width="0.8" stroke-linecap="round"/><path d="M269.74761,161.47058c0,0 -3.73193,-2.36103 -6.42898,-7.73972c-1.71836,-3.42695 -1.21926,-8.60736 -1.21926,-8.60736" fill="none" stroke="#000000" stroke-width="0.8" stroke-linecap="round"/><path d="M264.59145,161.59684c0,0 -2.62345,-1.91557 -4.4112,-7.15746c-1.24145,-3.6401 -0.70397,-7.40329 -0.70397,-7.40329" fill="none" stroke="#000000" stroke-width="0.8" stroke-linecap="round"/><path d="M259.54677,155.36922c-0.35069,0.18838 -0.8112,0.01307 -1.02856,-0.3916c-0.21737,-0.40464 -0.10927,-0.88539 0.24144,-1.07378c0.35069,-0.18838 0.8112,-0.01308 1.02856,0.39158c0.21737,0.40464 0.10926,0.8854 -0.24143,1.07379z" fill="#ffd683" stroke="none" stroke-width="0" stroke-linecap="butt"/><path d="M258.78568,152.25344c-0.20233,0.10867 -0.45443,0.03277 -0.56312,-0.16955c-0.10868,-0.20232 -0.03277,-0.45443 0.16955,-0.56312c0.20233,-0.10867 0.45444,-0.03276 0.56312,0.16955c0.10868,0.20232 0.03277,0.45444 -0.16955,0.56312z" fill="#ffd683" stroke="none" stroke-width="0" stroke-linecap="butt"/></g></g><path d="M270.38669,164.40963c5.10504,8.45379 5.3741,10.25516 5.3741,10.25516c0.58219,1.09364 -0.53448,1.55426 -0.53448,1.55426c0,0 -2.05654,1.15778 -3.37284,1.89881c-0.86434,0.4866 -2.21473,1.24685 -2.21473,1.24685c0,0 -0.92715,0.33778 -1.23219,-0.26611c-1.83512,-3.63304 -3.78222,-7.00654 -4.53004,-8.91908c-0.24927,-0.63751 0.23469,-1.75785 0.23469,-1.75785l3.88864,-2.80966c0,0 1.52751,-1.2442 2.38683,-1.20237z" fill="#582700" stroke="#000000" stroke-width="3" stroke-linecap="round"/><path d="M281.16422,159.78489c10.15475,17.70828 10.81655,21.39371 10.81655,21.39371c1.17016,2.28243 -0.8355,3.09741 -0.8355,3.09741c0,0 -3.6648,2.12915 -6.01042,3.49192c-1.54025,0.89486 -3.94668,2.29296 -3.94668,2.29296c0,0 -1.66936,0.58602 -2.28534,-0.67252c-3.7058,-7.5716 -7.59284,-14.62852 -9.14333,-18.59102c-0.51682,-1.32083 0.26644,-3.54292 0.26644,-3.54292l6.8717,-5.28532c0,0 2.68613,-2.36141 4.26657,-2.18419z" fill="#582600" stroke="#000000" stroke-width="3" stroke-linecap="round"/></g><path d="M219.33882,111.87719l-0.23529,-12.99787l43.79282,-0.79276l0.23529,12.99787z" fill="#000000" stroke="none" stroke-width="0" stroke-linecap="butt"/><path d="M253.78046,127.20239c-1.82647,1.28768 -7.13984,4.51805 -8.74891,2.55833c-2.15637,-2.6263 5.53211,-7.74192 6.96542,-7.49343c0.25242,-0.09153 0.52398,-0.14364 0.80743,-0.14878c1.38048,-0.02499 2.51985,1.07386 2.54484,2.45434c0.5539,0.63767 -1.06573,2.27487 -1.5688,2.62953z" fill="#582600" stroke="none" stroke-width="0.5" stroke-linecap="butt"/><g><path d="M237.45738,159.92933c0,0 1.59,25.49253 -6.71105,36.51136c-2.50149,3.32048 -15.43246,5.32048 -16.52116,5.23451c-4.70158,-0.37123 -17.29037,-23.85041 -17.29037,-23.85041c0,0 -6.14614,-10.28949 -7.01252,-15.35725c15.01901,-11.43367 26.15777,-11.42567 26.15777,-11.42567c2.03117,-1.00911 4.42258,6.74812 4.42258,6.74812l8.03641,22.05564l-1.27517,-3.31069c0,0 -7.24586,-19.63297 -4.8336,-18.96297c2.21948,0.61646 16.39532,-0.55286 15.02713,2.35734z" fill="#582600" stroke="#000000" stroke-width="2.5" stroke-linecap="round"/><path d="M226.03245,175.17706c-1.53448,0.83664 -3.21507,1.50599 -4.8399,2.0009c-4.35898,1.87681 -9.16001,3.86022 -13.73429,5.21566c-1.30491,0.38666 -2.5844,0.80424 -3.87766,1.23064c-0.43548,0.1436 -1.53475,0.28948 -1.91547,0.33456c1.03484,1.09603 1.76826,2.84786 2.98226,3.71699c0.14277,0.10221 0.44627,0.09237 0.82005,0.0224c1.1284,-0.55356 2.36265,-0.96615 2.92241,-1.21733c6.12482,-3.26446 12.75939,-5.18067 19.0106,-8.10176c-0.07219,-0.59833 -0.70386,-1.70751 -0.74969,-1.81003c-0.20765,-0.46451 -0.41634,-0.92724 -0.61829,-1.39199zM225.45931,173.7846c-0.20476,-0.5353 -0.39085,-1.07814 -0.5468,-1.6341c0,0 -0.09658,-0.34574 0.08307,-0.62565c-1.26288,-3.03831 -2.30805,-6.20591 -3.12044,-9.13675c-0.54637,-1.26298 -1.4221,-2.9214 -0.17653,-4.06488c0.89627,-0.82281 3.18574,-0.823 4.31225,-0.78581c3.61383,0.11939 7.24799,0.32163 10.84281,0.52334c1.88104,1.29188 0.96245,3.16403 0.72871,5.18992c-0.50925,4.41405 -0.88737,8.83217 -1.40266,13.24708c0.0646,3.16876 -0.78279,6.02923 -1.07817,9.12518c-0.40907,4.28784 -0.84544,7.68556 -3.32652,11.33287c-4.81176,3.34768 -13.59173,5.84927 -19.17244,3.10172c-3.82016,-0.7068 -5.65522,-4.59973 -7.63736,-7.53458c-0.33224,-0.49192 -1.81709,-2.07414 -1.80003,-2.61234c0.01212,-0.38233 0.2225,-0.73934 0.55476,-1.069c-1.32905,-0.95903 -2.20753,-2.8578 -3.29483,-4.03745c-0.69127,-2.49228 2.77222,-2.70163 4.89341,-3.36983c5.14809,-1.62172 10.43632,-3.51889 15.3565,-5.6643c1.6007,-0.48756 3.27843,-1.1464 4.78425,-1.98544zM207.49661,188.56847c-0.01979,0.00533 -0.03988,0.0109 -0.0603,0.01669c-1.2602,0.59611 -2.79203,1.33004 -2.77152,1.36074c1.93593,2.89511 4.69674,7.94286 8.41586,8.68987c5.15416,2.53755 13.09873,0.1908 17.63063,-2.7375c2.18969,-3.36719 2.51342,-6.49127 2.89651,-10.41193c0.30098,-3.08037 1.13453,-5.90752 1.0736,-9.0595c0.50451,-4.44943 0.901,-8.8985 1.41054,-13.3452c0.07047,-0.61497 0.70678,-3.50134 0.33361,-3.58327c-3.71596,0.02916 -7.45063,-0.66445 -11.16462,-0.48857c-0.30504,0.01446 -2.81859,0.26349 -2.77201,0.68316c0.07574,0.68233 0.5251,1.5603 0.80006,2.19409c1.64941,5.86306 5.52326,11.20165 6.74539,17.06672c-0.48505,0.57702 -1.07033,1.11423 -1.75849,1.42191l-0.6355,0.43322c0,0 -0.10279,0.06945 -0.25301,0.11003c-2.30631,1.84632 -6.45021,2.64686 -8.72752,3.28289c-3.84116,1.15638 -7.23596,3.30985 -11.16326,4.36661z" fill="#000000" stroke="none" stroke-width="0.5" stroke-linecap="butt"/><path d="M221.23411,177.15016c1.62479,-0.49489 3.30748,-1.1609 4.84195,-1.99756c0.20196,0.46476 0.41322,0.93271 0.62085,1.39723c0.04581,0.10251 0.67984,1.21878 0.75203,1.81709c-6.2512,2.92109 -12.97352,4.88042 -19.09837,8.14487c-0.55975,0.25118 -1.79629,0.66061 -2.92469,1.21418c-0.37379,0.06998 -0.67838,0.07808 -0.82115,-0.02411c-1.21401,-0.86914 -1.95394,-2.63805 -2.98879,-3.73409c0.38073,-0.04508 1.48001,-0.19091 1.91547,-0.33449c1.29324,-0.42641 2.5722,-0.84747 3.87714,-1.23414c4.57428,-1.35543 9.46659,-3.3722 13.82555,-5.24901z" data-paper-data="{&quot;noHover&quot;:false,&quot;origItem&quot;:[&quot;Path&quot;,{&quot;applyMatrix&quot;:true,&quot;segments&quot;:[[[926.17844,407.1979],[3.2606,1.25965],[-0.27949,0.97418]],[[925.31465,410.11917],[0.29084,-0.97519],[-0.06418,0.21521]],[[924.29914,413.90358],[-0.01258,-1.20526],[13.15638,4.16543]],[[964.1057,425.02121],[-12.99513,-4.87922],[1.17537,0.35239]],[[970.21765,426.67451],[-2.3817,-0.804],[0.75941,0.04146]],[[971.83798,426.41666],[-0.25651,0.23985],[2.18115,-2.03947]],[[976.78433,418.26967],[-1.76682,2.44279],[-0.76669,0.00973]],[[972.89889,418.10481],[0.90089,0.17138],[-2.67549,-0.50896]],[[964.88923,416.67374],[2.68829,0.42712],[-9.42353,-1.49721]],[[936.29671,409.90591],[9.13228,2.58714],[-3.35077,-0.55846]]],&quot;closed&quot;:true}]}" fill="#ffffff" stroke="none" stroke-width="0.5" stroke-linecap="butt"/><path d="M209.09115,187.7996c5.6203,-2.9898 11.57173,-4.84423 17.36222,-7.38129c0.02283,0.05796 0.15266,0.13681 0.19469,0.19903c0.41986,0.62147 0.94333,0.18159 0.94333,0.18159l0.6349,-0.42939c0.68817,-0.30766 1.27315,-0.83565 1.75821,-1.41266c-1.22215,-5.86508 -5.05194,-11.15713 -6.70135,-17.02019c-0.27497,-0.63379 -0.71526,-1.6113 -0.791,-2.29363c-0.04659,-0.41965 2.47344,-0.66786 2.7785,-0.68231c3.71397,-0.17587 7.46923,0.527 11.1852,0.49783c0.37317,0.08193 -0.25983,2.97105 -0.33031,3.58602c-0.50952,4.44667 -0.89086,8.92167 -1.39537,13.3711c0.06094,3.15197 -0.77633,6.01199 -1.07731,9.09236c-0.3831,3.92066 -0.72679,7.06627 -2.91648,10.43346c-4.53191,2.9283 -12.52108,5.27779 -17.67526,2.74025c-3.71912,-0.74698 -6.50269,-5.81409 -8.43858,-8.70919c-0.03396,-0.05078 4.26146,-2.07994 4.46862,-2.17298z" data-paper-data="{&quot;noHover&quot;:false,&quot;origItem&quot;:[&quot;Path&quot;,{&quot;applyMatrix&quot;:true,&quot;segments&quot;:[[[926.61254,417.73069],[12.14285,3.5238],[-0.03018,0.12086]],[[926.46822,418.11346],[0.06716,-0.13431],[-0.67082,1.34164]],[924.45576,418.78428],[[923.08279,418.0906],[0,0],[-1.44471,-0.43097]],[[919.22563,415.72869],[1.11205,1.01797],[0.89694,-11.9485]],[[928.15956,380.1298],[-1.74473,12.05571],[0.38029,-1.32836]],[[929.175,375.57071],[0.02742,1.37277],[-0.01686,-0.84429]],[[923.5003,374.93752],[0.60865,-0.05075],[-7.41054,0.61792]],[[901.48814,378.8123],[7.37628,-0.90935],[-0.71866,0.25961]],[[903.08234,385.83106],[-0.2998,-1.20115],[2.16779,8.68513]],[[909.35292,411.92731],[-2.15853,-8.69186],[0.69956,6.26621]],[[913.83986,429.61277],[-1.39861,-6.02998],[1.78014,7.67491]],[[922.29365,449.50563],[-5.21858,-6.1072],[9.74892,4.62723]],[[957.96755,450.34516],[-9.56021,6.37347],[7.18055,-2.44927]],[[972.39433,430.92276],[-3.08539,6.24485],[0.05411,-0.10951]],[[963.14745,427.86406],[0.43501,0.13058],[-11.92317,-4.46591]]],&quot;closed&quot;:true}]}" fill="#ffcb66" stroke="none" stroke-width="0.5" stroke-linecap="butt"/></g><g data-paper-data="{&quot;index&quot;:null}" stroke="#000000" stroke-width="1" stroke-linecap="butt"><g data-paper-data="{&quot;index&quot;:null}" fill="#000000"><path d="M238.81353,144.62355c5.62359,-0.15927 3.7863,2.27117 3.7863,2.27117l-7.50227,0.18631c0,0 -2.26959,-2.23227 3.71595,-2.45746z"/></g><g data-paper-data="{&quot;index&quot;:null}" fill="#ffffff"><path d="M238.81353,144.62354c1.15031,-0.03257 1.98846,0.0432 2.59399,0.18437c0.01085,0.00253 -0.39494,0.5043 -0.38943,0.97536c0.00672,0.57515 0.42335,1.14019 0.42162,1.14025c-1.26661,0.03146 -6.34214,0.15749 -6.34214,0.15749c0,0 -2.26959,-2.23227 3.71595,-2.45746z"/></g></g><path d="M253.92249,137.873c0,2.50321 -1.72519,4.53247 -3.85331,4.53247c-2.12813,0 -3.85332,-2.02926 -3.85332,-4.53247c0,-2.50321 1.72519,-4.53246 3.85332,-4.53246c2.12813,0 3.85331,2.02925 3.85331,4.53246z" fill="#ffffff" stroke="#000000" stroke-width="2.5" stroke-linecap="butt"/><path d="M264.5839,137.51108c0,2.50321 -1.72519,4.53247 -3.85332,4.53247c-2.12813,0 -3.85332,-2.02926 -3.85332,-4.53247c0,-2.50321 1.72519,-4.53246 3.85332,-4.53246c2.12813,0 3.85332,2.02925 3.85332,4.53246z" fill="#ffffff" stroke="#000000" stroke-width="2.5" stroke-linecap="butt"/></g></g></svg>