<svg version="1.1" xmlns="http://www.w3.org/2000/svg" xmlns:xlink="http://www.w3.org/1999/xlink" width="374.77477" height="288.28829" viewBox="0,0,374.77477,288.28829"><g transform="translate(-52.61265,-35.85585)"><g data-paper-data="{&quot;isPaintingLayer&quot;:true}" fill-rule="nonzero" stroke-linejoin="miter" stroke-miterlimit="10" stroke-dasharray="" stroke-dashoffset="0" style="mix-blend-mode: normal"><path d="M52.61265,324.14414v-288.28829h374.77477v288.28829z" fill="none" stroke="none" stroke-width="NaN" stroke-linecap="butt"/><g stroke="#000000" stroke-linecap="round"><path d="M231.63894,167.83706c0,0 -26.16502,6.35876 -26.21115,-12.97122c-0.01701,-7.12179 15.02773,-5.40467 15.02773,-5.40467z" data-paper-data="{&quot;origPos&quot;:null}" fill="#66c8ff" stroke-width="2"/><path d="M224.18328,155.27117c0,0 -14.75515,-2.04256 -14.56176,-2.70233c0.61319,-2.09189 11.53291,-1.48628 11.53291,-1.48628z" data-paper-data="{&quot;origPos&quot;:null}" fill="#0a0a0a" stroke-width="1"/></g><g><g><path d="M254.73139,153.32272c-1.03675,-3.24126 11.96482,-0.70674 14.06278,-1.1664c2.28018,-0.49961 -5.94274,19.87681 -5.94274,19.87681l-1.43587,3.43123l9.14194,-22.90021c0,0 2.81347,-8.09361 4.61079,-6.82893c0,0 10.28832,0.99871 23.26838,14.60505c-1.19528,5.35044 -7.67404,15.81719 -7.67404,15.81719c0,0 -13.45749,24.01349 -17.82878,23.98601c-1.01224,-0.00638 -12.79928,-3.31817 -14.85076,-7.1014c-6.80774,-12.55448 -3.3517,-39.71935 -3.3517,-39.71935z" fill="#582700" stroke="#000000" stroke-width="2.5" stroke-linecap="round"/><path d="M264.09459,170.68986c-0.22276,0.47961 -0.4516,0.95642 -0.67959,1.43526c-0.05031,0.10568 -0.7202,1.23676 -0.83353,1.87118c5.54584,3.69448 11.52409,6.34716 16.92644,10.39802c0.49741,0.3197 1.60518,0.87329 2.60422,1.56832c0.33977,0.10875 0.61931,0.14676 0.75914,0.05016c1.18902,-0.82126 2.00296,-2.63157 3.0442,-3.71211c-0.34812,-0.08271 -1.35203,-0.33842 -1.74303,-0.5316c-1.16119,-0.57373 -2.31037,-1.13674 -3.48544,-1.66895c-4.1191,-1.86563 -8.3987,-4.4245 -12.27829,-6.82919c-1.46208,-0.67708 -2.9621,-1.5461 -4.31411,-2.5811zM264.73251,169.25003c1.32536,1.03497 2.82354,1.89248 4.26392,2.55951c4.37699,2.74319 9.11327,5.25373 13.74158,7.4565c1.90703,0.90761 5.08957,1.44506 4.2568,4.05238c-1.09619,1.16537 -2.05558,3.11995 -3.35786,4.02713c0.28118,0.38318 0.44765,0.78465 0.42902,1.19532c-0.02621,0.57808 -1.52096,2.13875 -1.86618,2.63567c-2.0595,2.96469 -4.05787,6.96901 -7.64124,7.38071c-5.36852,2.43864 -13.28263,-1.03512 -17.46574,-5.05642c-2.00716,-4.1315 -2.14528,-7.81073 -2.18881,-12.44104c-0.03142,-3.34323 -0.59105,-6.48412 -0.28434,-9.87277c-0.13172,-4.77601 -0.13649,-9.54308 -0.2627,-14.31765c-0.05791,-2.19134 -0.76037,-4.27994 1.07766,-5.49376c3.33588,0.109 6.70814,0.22098 10.05516,0.41987c1.04333,0.062 3.15786,0.26927 3.92151,1.23173c1.06125,1.33756 0.12312,3.03496 -0.47997,4.33851c-0.97882,3.06617 -2.19109,6.36492 -3.59436,9.50548c0.14411,0.31609 0.02795,0.67772 0.02795,0.67772c-0.18738,0.58146 -0.40156,1.14613 -0.63242,1.70106zM280.17016,186.71143c-3.54482,-1.48718 -6.51236,-4.10107 -9.96988,-5.68717c-2.05373,-0.88727 -5.81861,-2.11958 -7.80475,-4.30598c-0.13557,-0.05707 -0.22509,-0.14076 -0.22509,-0.14076l-0.55318,-0.52156c-0.6116,-0.39181 -1.11027,-1.02022 -1.51327,-1.68222c1.58604,-6.1724 5.58011,-11.54102 7.56061,-17.67261c0.30337,-0.65407 0.78685,-1.55395 0.90999,-2.27804c0.07574,-0.44534 -2.22635,-0.93943 -2.50696,-0.9825c-3.41649,-0.52425 -6.91992,-0.11894 -10.34967,-0.4862c-0.35105,0.05403 0.01161,3.20356 0.02875,3.86871c0.12391,4.80956 0.14325,9.61143 0.26232,14.42347c-0.30202,3.37103 0.24742,6.47497 0.28525,9.80198c0.04815,4.23462 0.10357,7.61051 1.86345,11.41561c3.95735,3.54672 11.11193,6.77907 16.07013,4.52683c3.4932,-0.46388 6.43662,-5.62161 8.45034,-8.5479c0.02136,-0.03103 -1.33624,-0.9558 -2.45366,-1.70831c-0.0184,-0.00804 -0.03653,-0.01584 -0.05438,-0.02333z" fill="#000000" stroke="none" stroke-width="0.5" stroke-linecap="butt"/><path d="M268.37249,173.23743c3.87959,2.40469 8.24087,5.00756 12.35997,6.87318c1.17508,0.53223 2.32349,1.09892 3.48468,1.67266c0.391,0.19319 1.39493,0.44882 1.74305,0.53153c-1.04124,1.08054 -1.86255,2.90856 -3.05156,3.72985c-0.13984,0.09658 -0.42053,0.06032 -0.7603,-0.04843c-0.99903,-0.69503 -2.10916,-1.24547 -2.60656,-1.56515c-5.40235,-4.05088 -11.4583,-6.75767 -17.00413,-10.45215c0.11332,-0.63442 0.78593,-1.77288 0.83624,-1.87854c0.22799,-0.47884 0.4596,-0.96102 0.68235,-1.44063c1.352,1.03501 2.85419,1.90063 4.31626,2.5777z" data-paper-data="{&quot;noHover&quot;:false,&quot;origItem&quot;:[&quot;Path&quot;,{&quot;applyMatrix&quot;:true,&quot;segments&quot;:[[[926.17844,407.1979],[3.2606,1.25965],[-0.27949,0.97418]],[[925.31465,410.11917],[0.29084,-0.97519],[-0.06418,0.21521]],[[924.29914,413.90358],[-0.01258,-1.20526],[13.15638,4.16543]],[[964.1057,425.02121],[-12.99513,-4.87922],[1.17537,0.35239]],[[970.21765,426.67451],[-2.3817,-0.804],[0.75941,0.04146]],[[971.83798,426.41666],[-0.25651,0.23985],[2.18115,-2.03947]],[[976.78433,418.26967],[-1.76682,2.44279],[-0.76669,0.00973]],[[972.89889,418.10481],[0.90089,0.17138],[-2.67549,-0.50896]],[[964.88923,416.67374],[2.68829,0.42712],[-9.42353,-1.49721]],[[936.29671,409.90591],[9.13228,2.58714],[-3.35077,-0.55846]]],&quot;closed&quot;:true}]}" fill="#ffffff" stroke="none" stroke-width="0.5" stroke-linecap="butt"/><path d="M278.75739,185.74361c0.18408,0.11841 3.9931,2.68055 3.95779,2.73187c-2.01372,2.92629 -4.97965,8.10267 -8.47285,8.56656c-4.9582,2.25224 -12.15378,-0.98707 -16.11112,-4.5338c-1.75988,-3.8051 -1.83206,-7.20587 -1.88021,-11.44049c-0.03783,-3.32703 -0.58814,-6.46651 -0.28612,-9.83752c-0.11907,-4.81204 -0.12237,-9.64031 -0.24628,-14.44986c-0.01714,-0.66516 -0.37653,-3.81732 -0.02549,-3.87136c3.42975,0.36727 6.9529,-0.0461 10.36939,0.47815c0.28061,0.04307 2.58876,0.53683 2.51301,0.98217c-0.12315,0.7241 -0.60601,1.73143 -0.90938,2.38551c-1.9805,6.1316 -5.93027,11.45435 -7.5163,17.62674c0.40301,0.66198 0.90213,1.28047 1.51373,1.67228l0.5529,0.51741c0,0 0.44918,0.51854 0.88542,-0.10924c0.04367,-0.06285 0.16974,-0.13559 0.19534,-0.19559c5.15027,3.24142 10.5024,5.76613 15.46018,9.47717z" data-paper-data="{&quot;noHover&quot;:false,&quot;origItem&quot;:[&quot;Path&quot;,{&quot;applyMatrix&quot;:true,&quot;segments&quot;:[[[926.61254,417.73069],[12.14285,3.5238],[-0.03018,0.12086]],[[926.46822,418.11346],[0.06716,-0.13431],[-0.67082,1.34164]],[924.45576,418.78428],[[923.08279,418.0906],[0,0],[-1.44471,-0.43097]],[[919.22563,415.72869],[1.11205,1.01797],[0.89694,-11.9485]],[[928.15956,380.1298],[-1.74473,12.05571],[0.38029,-1.32836]],[[929.175,375.57071],[0.02742,1.37277],[-0.01686,-0.84429]],[[923.5003,374.93752],[0.60865,-0.05075],[-7.41054,0.61792]],[[901.48814,378.8123],[7.37628,-0.90935],[-0.71866,0.25961]],[[903.08234,385.83106],[-0.2998,-1.20115],[2.16779,8.68513]],[[909.35292,411.92731],[-2.15853,-8.69186],[0.69956,6.26621]],[[913.83986,429.61277],[-1.39861,-6.02998],[1.78014,7.67491]],[[922.29365,449.50563],[-5.21858,-6.1072],[9.74892,4.62723]],[[957.96755,450.34516],[-9.56021,6.37347],[7.18055,-2.44927]],[[972.39433,430.92276],[-3.08539,6.24485],[0.05411,-0.10951]],[[963.14745,427.86406],[0.43501,0.13058],[-11.92317,-4.46591]]],&quot;closed&quot;:true}]}" fill="#66c8ff" stroke="none" stroke-width="0.5" stroke-linecap="butt"/></g><g data-paper-data="{&quot;index&quot;:null}" fill="#fffc96" stroke="#000000" stroke-width="2" stroke-linecap="round"><path d="M251.78899,161.86845c0.23632,-2.14285 3.15822,-1.76071 3.15822,-1.76071l-0.01378,2.01205c0,0 3.80405,2.72609 9.21048,5.3556c-0.36488,1.34931 -0.58936,2.36205 -0.66865,3.22161c-6.35159,-2.86351 -11.94403,-6.49129 -11.68627,-8.82857z"/><path d="M251.76229,176.24747c-0.0738,-3.0161 3.10913,-3.61152 3.10913,-3.61152l0.02741,1.47994c0,0 3.4609,-0.96521 8.58178,-3.47504c-0.11102,1.12354 0.02199,1.98272 0.40944,2.97763c-6.33188,3.07195 -12.0743,4.81413 -12.12777,2.62897z" data-paper-data="{&quot;index&quot;:null}"/></g></g><g data-paper-data="{&quot;origRot&quot;:0}" stroke="#000000" stroke-linecap="round"><path d="M247.2385,221.0239c0,0 -1.00963,-5.02639 0.39255,-5.35432c4.13764,-0.96762 7.81767,-3.68634 11.98394,-2.9013c1.73005,0.32599 3.18607,4.61612 3.18607,4.61612l10.30244,33.52674c0,0 1.10271,3.4458 1.67612,5.45152c0.61308,2.14446 0.27443,5.68073 -1.61029,6.25145c-6.92007,2.09556 -10.89808,4.87976 -15.49589,4.90732c-1.67506,0.01003 -3.45331,-0.10685 -4.42463,-1.68972c-1.26883,-2.06764 -1.51703,-6.8771 -1.51703,-6.8771z" data-paper-data="{&quot;origPos&quot;:null}" fill="#ff0000" stroke-width="3"/><path d="M275.48615,259.87244c0,0 -4.82285,4.17309 -9.41929,5.39221c-3.52655,0.93535 -11.37638,1.88821 -11.37638,1.88821c0,0 -1.76109,-2.40848 -2.17217,-4.06413c-0.43307,-1.74413 0.00908,-4.64739 0.00908,-4.64739l20.89739,-6.42202z" data-paper-data="{&quot;origPos&quot;:null}" fill="#976e57" stroke-width="2"/><path d="M247.37833,221.34063c0,0 -1.00963,-5.02639 0.39256,-5.3543c4.13763,-0.96763 7.81767,-3.68634 11.98395,-2.90129c1.73005,0.32599 3.18607,4.6161 3.18607,4.6161l10.30243,33.52675c0,0 1.10273,3.44579 1.67614,5.45152c0.61308,2.14446 0.27442,5.68073 -1.61029,6.25147c-6.92007,2.09556 -10.89808,4.87978 -15.49588,4.90733c-1.67506,0.01003 -3.4533,-0.10688 -4.42463,-1.68972c-1.26883,-2.06764 -1.51704,-6.8771 -1.51704,-6.8771z" data-paper-data="{&quot;origPos&quot;:null}" fill="#4b4b4b" stroke-width="3"/></g><path d="M239.56358,259.48386c0,0 0.16608,4.81424 -0.91883,7.01818c-0.83055,1.68722 -2.58991,2.009 -4.25749,2.19256c-4.57729,0.50383 -8.77462,-1.80692 -15.84027,-3.09248c-1.92437,-0.35012 -2.56504,-3.82969 -2.13921,-6.0343c0.3983,-2.06199 1.19958,-5.61805 1.19958,-5.61805l7.37169,-34.55035c0,0 1.08029,-4.43702 2.77374,-4.96126c4.07812,-1.26252 7.97336,1.01746 12.17352,1.50222c1.42337,0.16428 0.85047,5.28232 0.85047,5.28232c0,0 -0.30676,9.67464 -0.5031,15.86693c-0.27711,8.73966 -0.71007,22.39427 -0.71007,22.39427z" fill="#4b4b4b" stroke="#000000" stroke-width="3" stroke-linecap="round"/><g><g><path d="M221.56277,170.57737c0,0 0.53021,-15.61866 2.47309,-16.42397c5.82861,-2.41597 19.56384,-2.92185 28.68966,-3.92565c1.41076,-0.15517 3.81329,14.19492 3.81329,14.19492l4.32333,32.59909c0,0 1.53343,15.98405 -0.00555,16.15334c-13.69988,1.50692 -29.68245,4.18564 -35.86238,3.95731c-2.05996,-0.0761 -2.67484,-17.02489 -2.67484,-17.02489z" data-paper-data="{&quot;origPos&quot;:null}" fill="#66c8ff" stroke="#000000" stroke-width="3.5" stroke-linecap="round"/><path d="M239.66915,177.43945c-1.19187,0.1311 -1.40955,-2.53114 -1.40955,-2.53114c-0.45147,-5.52169 -1.04807,-12.81821 -1.49953,-18.3399c0,0 -0.21768,-2.66224 0.9742,-2.79334c1.19187,-0.1311 1.40955,2.53114 1.40955,2.53114c0.45147,5.52169 0.90296,11.04338 1.35443,16.56508l0.14512,1.77483c0,0 0.21767,2.66224 -0.97421,2.79334z" fill="#ffffff" stroke="none" stroke-width="0.5" stroke-linecap="butt"/><path d="M251.29623,182.99973c-1.19187,0.1311 -1.46533,-3.21342 -1.46533,-3.21342c-0.56718,-6.9368 -1.31667,-16.10328 -1.88385,-23.04008c0,0 -0.27346,-3.34453 0.91841,-3.47563c1.19187,-0.1311 1.46533,3.21342 1.46533,3.21342c0.56718,6.9368 1.13436,13.8736 1.70154,20.81041l0.18231,2.22969c0,0 0.27346,3.34453 -0.91841,3.47563z" fill="#ffffff" stroke="none" stroke-width="0.5" stroke-linecap="butt"/></g><g fill="none" stroke="#b9b9b9" stroke-width="3"><path d="M251.15883,155.8367c-0.88244,-1.36951 -0.14631,-2.76746 0.87557,-4.19518c1.02188,-1.4277 2.12191,-1.95034 2.82501,-0.97504c1.49074,2.06793 0.20184,3.26315 -0.59833,4.38108c-1.02189,1.42772 -1.85602,2.72324 -3.10225,0.78915z" stroke-linecap="butt"/><path d="M252.01534,155.10456l-2.16939,2.9593" stroke-linecap="round"/><path d="M246.62855,159.09737c1.02188,-1.4277 2.12192,-1.95034 2.82502,-0.97503c1.49074,2.06793 0.20184,3.26315 -0.59833,4.38108c-1.02188,1.42771 -1.85601,2.72324 -3.10223,0.78914c-0.88244,-1.36951 -0.14633,-2.76746 0.87555,-4.19519z" stroke-linecap="butt"/><path d="M244.4401,165.51973l2.16939,-2.95931" stroke-linecap="round"/><path d="M239.21261,165.60634c0.22662,-1.79061 1.47482,-1.76094 2.91736,-1.42414c1.44254,0.33681 2.42158,1.28388 2.30656,2.64379c-0.24389,2.88338 -1.72076,2.10957 -2.8503,1.84585c-1.44254,-0.3368 -2.69365,-0.5367 -2.3736,-3.06549z" stroke-linecap="butt"/><path d="M237.13701,165.40006l3.02189,0.75629" stroke-linecap="round"/><path d="M232.18624,161.65393c0.70878,-1.49986 1.86169,-0.77669 3.11,0.3338c1.24831,1.11048 1.89572,2.51673 1.41055,3.68766c-1.02871,2.4827 -2.18743,0.95615 -3.1649,0.08661c-1.24831,-1.1105 -2.3566,-1.98989 -1.35564,-4.10805z" stroke-linecap="butt"/><path d="M232.91361,162.68126l-2.60089,-2.37238" stroke-linecap="round"/><path d="M225.64905,155.75917c0.70878,-1.49984 1.8617,-0.77669 3.11001,0.3338c1.24832,1.11048 1.89572,2.51673 1.41055,3.68766c-1.02871,2.48269 -2.18743,0.95614 -3.1649,0.0866c-1.24831,-1.11048 -2.3566,-1.98987 -1.35564,-4.10804z" stroke-linecap="butt"/><path d="M223.77554,154.41411l2.6009,2.37238" stroke-linecap="round"/></g></g><path d="M253.54681,149.68347c-10.82521,3.34704 -21.33131,6.55524 -25.86385,6.78566c-4.14243,0.2106 -5.96123,-2.31328 -5.96123,-2.31328c0,0 -2.13646,-2.06732 -2.56566,-3.64066c-1.28763,-4.72 -4.41615,-18.3837 -6.17084,-30.44397c-0.05857,-0.40251 -0.07891,-0.63118 -0.11669,-1.03703c-0.11337,-1.21752 -0.3828,-5.99396 -0.3828,-5.99396c0,0 2.48359,-2.5776 3.93096,-3.53195c4.34211,-2.86307 16.54964,-4.82755 29.14088,-8.09609c1.14124,-0.29624 3.46836,0.87978 3.46836,0.87978c0,0 2.10358,2.85816 2.51492,4.93651c2.65937,13.43678 5.55913,28.315 6.0316,31.77293c0.1575,1.15266 -0.5319,6.0055 -0.5319,6.0055z" fill="#582700" stroke="#000000" stroke-width="2.5" stroke-linecap="round"/><path d="M208.82264,115.02154c-0.83973,-0.92587 -0.04148,-1.89983 -0.04148,-1.89983l0.99792,-1.15355c0.09777,-0.07002 0.19562,-0.13921 0.29359,-0.20759c-2.2643,-5.74122 -2.88964,-13.31079 -4.24987,-19.25255c-0.35275,-1.54091 -1.6261,-5.6199 -1.27965,-7.13686c0.58015,-2.54017 2.25375,-2.38428 3.95354,-2.90204c2.89217,-0.88094 5.7703,-1.71385 8.52056,-3.07657c6.81973,-3.36819 13.79398,-5.77611 20.76207,-8.64833c2.19884,-0.90635 4.37451,-1.66923 6.68627,-2.13242c0.63255,-0.12675 1.36543,-0.62877 1.91433,-0.24275c1.94402,1.36712 1.74653,3.60387 1.92151,5.7312c0.34903,4.24337 -0.27314,8.35388 0.55837,12.55526c0.61763,3.21918 0.93071,6.61965 1.29239,9.88847c0.1248,1.12804 0.88589,3.05594 0.11897,4.16421c-1.57257,2.27249 -6.92184,2.55103 -9.21827,3.15423c-7.0023,1.83927 -14.0431,3.51277 -20.94435,5.81205c-2.44491,0.92054 -4.75684,1.88275 -6.99584,3.20251c0.06372,0.39472 0.01658,0.93997 -0.5493,1.3374c-0.61397,0.4312 -1.07789,0.1541 -1.34205,-0.11919c-0.0746,0.05244 -0.14916,0.10541 -0.22364,0.15891l-0.53709,0.71934c0,0 -0.79826,0.97396 -1.63799,0.04811z" fill="#000000" stroke="none" stroke-width="0.5" stroke-linecap="butt"/><path d="M228.91136,126.32403c3.5824,-3.90375 7.93544,-2.853 10.56094,1.64801c3.01114,5.16213 0.35956,9.49923 0.35956,9.49923c0,0 -2.54907,-0.38411 -5.54357,0.15308c-3.72863,0.6689 -5.59794,1.78252 -5.59794,1.78252c0,0 -4.63891,-7.78698 0.22099,-13.08285z" fill="#ffffff" stroke="#0a0a0a" stroke-width="2" stroke-linecap="butt"/><path d="M252.95067,119.78922c6.3529,2.35062 5.05909,11.69592 5.05909,11.69592c0,0 -2.10057,-0.07086 -5.71387,1.18874c-2.90188,1.01159 -5.05956,2.632 -5.05956,2.632c0,0 -4.00389,-2.58892 -3.20404,-8.75208c0.69742,-5.37383 4.23543,-8.49731 8.91836,-6.7646z" data-paper-data="{&quot;index&quot;:null}" fill="#ffffff" stroke="#0a0a0a" stroke-width="2" stroke-linecap="butt"/><g data-paper-data="{&quot;index&quot;:null}" stroke="#000000" stroke-width="1" stroke-linecap="butt"><path d="M244.11845,155.46973c-11.28294,3.259 -11.37809,-11.27729 -11.37809,-11.27729l16.75849,-5.02372c0,0 6.56519,12.8506 -5.38041,16.30101z" fill="#000000"/><path d="M241.82222,151.83163c3.32742,0.15443 6.23164,1.76493 5.78013,2.06915c-0.93301,0.62864 -2.08075,1.16362 -3.48391,1.56893c-4.20533,1.2147 -6.8565,-0.04271 -8.52781,-2.09816c-0.3247,-0.39932 3.17604,-1.68173 6.23157,-1.5399z" fill="#ff8484"/><path d="M233.56183,148.85424c-0.37312,-1.89319 -0.82147,-4.66181 -0.82147,-4.66181l14.72829,-4.41513l1.11946,4.71209c0,0 -15.01396,4.42724 -15.02626,4.36485z" fill="#ffffff"/></g><path d="M234.9373,138.33156l-0.38494,0.05446c-0.73119,0.4217 -1.63928,0.73857 -2.47317,0.43614c0.02591,0.86722 -1.86231,0.97837 -2.07496,0.28323c-0.09927,-0.32454 -0.64981,-0.41657 -0.81759,-0.47656c0,0 -0.06011,-0.02405 -0.13811,-0.07862c-0.13663,0.06755 -0.26419,0.129 -0.37924,0.17983c0,0 -0.95645,0.42087 -1.31931,-0.68848c-0.36286,-1.10935 0.59359,-1.53022 0.59359,-1.53022c1.14913,-0.50376 2.63563,-1.3137 3.88631,-1.23292c0.57049,0.03685 1.0987,0.42201 1.66955,0.45039c0.52581,0.02615 1.04958,-0.10976 1.57586,-0.11324l0.74043,0.1345c0,0 1.00684,0.20986 0.82591,1.37766c-0.18094,1.1678 -1.18778,0.95794 -1.18778,0.95794l-0.10122,-0.02652c-0.16986,0.21546 -0.41533,0.27242 -0.41533,0.27242z" fill="#000000" stroke="none" stroke-width="0.5" stroke-linecap="butt"/><path d="M249.64354,134.4422c0,0 -0.23788,0.0904 -0.47714,-0.00032l-0.07689,0.08083c0,0 -0.78772,0.75699 -1.44038,-0.15666c-0.65265,-0.91364 0.13506,-1.67064 0.13506,-1.67064l0.5877,-0.53942c0.45973,-0.29713 0.97342,-0.47753 1.42017,-0.80018c0.48503,-0.35028 0.78167,-0.98695 1.26279,-1.34441c1.05477,-0.78368 2.69252,-0.92625 3.90669,-1.14303c0,0 1.01125,-0.17905 1.16563,0.99387c0.15437,1.17291 -0.85689,1.35196 -0.85689,1.35196c-0.12175,0.02135 -0.25887,0.04059 -0.40646,0.05971c-0.04477,0.09201 -0.08692,0.14724 -0.08692,0.14724c-0.12066,0.14794 -0.56101,0.54206 -0.50987,0.88127c0.10957,0.72657 -1.70079,1.44107 -1.92682,0.93684c-0.59789,0.73896 -1.52295,0.98098 -2.33841,1.03082l-0.35827,0.17213z" data-paper-data="{&quot;index&quot;:null}" fill="#000000" stroke="none" stroke-width="0.5" stroke-linecap="butt"/><g data-paper-data="{&quot;index&quot;:null}"><path d="M227.01371,159.07879c0,0 6.24469,26.48656 0.78663,39.89872c-1.64477,4.04169 -13.00342,8.97192 -14.00765,9.11929c-4.33679,0.63639 -20.18408,-21.32801 -20.18408,-21.32801c0,0 -7.51597,-9.4882 -9.25678,-14.63333c11.47674,-15.31646 21.58709,-17.74151 21.58709,-17.74151c1.65331,-1.50595 5.28473,6.137 5.28473,6.137l11.44769,21.4605l-1.78086,-3.20631c0,0 -10.27391,-19.08305 -7.9585,-18.90478c2.13038,0.164 14.77526,-4.16381 14.08174,-0.80157z" fill="#582700" stroke="#000000" stroke-width="2.5" stroke-linecap="round"/><path d="M219.51716,177.62482c-1.235,1.21589 -2.63416,2.28763 -4.01551,3.16353c-3.60242,2.92786 -7.58597,6.06452 -11.48201,8.4906c-1.11143,0.6921 -2.19397,1.41116 -3.28733,2.14253c-0.36816,0.24627 -1.33832,0.64001 -1.67535,0.77063c1.14561,0.92763 2.14117,2.61141 3.40664,3.26105c0.14882,0.0764 0.4224,-0.00027 0.74845,-0.15558c0.91981,-0.82921 1.96221,-1.53314 2.42291,-1.91984c4.94363,-4.7743 10.60383,-8.24078 15.72683,-12.68127c-0.17821,-0.61404 -0.96041,-1.64358 -1.02131,-1.74149c-0.27593,-0.4436 -0.5525,-0.88507 -0.82333,-1.33017zM218.73472,176.2843c-0.28667,-0.51874 -0.55778,-1.04949 -0.80403,-1.60062c0,0 -0.15278,-0.34283 -0.04245,-0.67671c-1.7184,-2.92229 -3.26357,-6.02822 -4.55289,-8.9358c-0.73374,-1.21008 -1.84089,-2.76446 -0.92586,-4.24021c0.65843,-1.0619 2.73617,-1.5623 3.76552,-1.76923c3.30219,-0.66383 6.63842,-1.2449 9.93885,-1.81793c1.95045,0.94893 1.46941,3.12026 1.63889,5.30381c0.36926,4.75757 0.85828,9.49078 1.2222,14.25055c0.65548,3.32137 0.42523,6.5175 0.74033,9.84089c0.43639,4.60284 0.68035,8.27468 -0.88434,12.65593c-3.7363,4.57505 -11.23328,9.12641 -16.81552,7.45349c-3.60007,0.09059 -5.99873,-3.60628 -8.35039,-6.26252c-0.39418,-0.44522 -2.03977,-1.7863 -2.12566,-2.35654c-0.06102,-0.4051 0.06266,-0.82685 0.30212,-1.24645c-1.38681,-0.71916 -2.54171,-2.5259 -3.75067,-3.53008c-1.0968,-2.4724 2.00703,-3.44942 3.80623,-4.61618c4.36664,-2.83173 8.80856,-5.98406 12.86972,-9.31726c1.36085,-0.8629 2.75936,-1.92295 3.96793,-3.13512zM205.21751,195.77035c-0.01695,0.00993 -0.03414,0.02019 -0.05157,0.03074c-1.03139,0.90276 -2.28337,2.01 -2.25895,2.03783c2.30224,2.6245 5.75857,7.33473 9.27453,7.30852c5.15557,1.54505 11.92354,-2.66082 15.48486,-6.73327c1.353,-4.02277 1.05835,-7.38194 0.66754,-11.59259c-0.30706,-3.3082 -0.08309,-6.46622 -0.73209,-9.77074c-0.38022,-4.79378 -0.85839,-9.56357 -1.23354,-14.35556c-0.05189,-0.66273 -0.01807,-3.83998 -0.37217,-3.84471c-3.36687,0.84251 -6.88691,0.92831 -10.22435,1.92481c-0.27412,0.08185 -2.50836,0.89314 -2.38704,1.3247c0.19725,0.70169 0.77044,1.52768 1.13936,2.13474c2.60126,5.81122 7.12249,10.58443 9.33636,16.49111c-0.33152,0.71335 -0.76149,1.4067 -1.32807,1.8809l-0.49515,0.59487c0,0 -0.0802,0.09556 -0.20888,0.17111c-1.7453,2.44732 -5.35526,4.1953 -7.30222,5.36231c-3.2682,2.05639 -5.9435,5.06485 -9.30861,7.0352z" fill="#000000" stroke="none" stroke-width="0.5" stroke-linecap="butt"/><path d="M215.53413,180.75003c1.38136,-0.8759 2.783,-1.94457 4.018,-3.16047c0.27082,0.44509 0.5507,0.89152 0.82663,1.33512c0.0609,0.09789 0.84655,1.13437 1.02476,1.74841c-5.123,4.44049 -10.85473,7.97153 -15.79837,12.74583c-0.46069,0.38667 -1.50576,1.08781 -2.42557,1.91701c-0.32604,0.15531 -0.60095,0.23042 -0.74978,0.15402c-1.26547,-0.64965 -2.27018,-2.34999 -3.41579,-3.27763c0.33703,-0.13062 1.30722,-0.52428 1.67537,-0.77055c1.09335,-0.73139 2.17476,-1.454 3.2862,-2.1461c3.89604,-2.42608 7.95612,-5.6178 11.55854,-8.54566z" data-paper-data="{&quot;noHover&quot;:false,&quot;origItem&quot;:[&quot;Path&quot;,{&quot;applyMatrix&quot;:true,&quot;segments&quot;:[[[926.17844,407.1979],[3.2606,1.25965],[-0.27949,0.97418]],[[925.31465,410.11917],[0.29084,-0.97519],[-0.06418,0.21521]],[[924.29914,413.90358],[-0.01258,-1.20526],[13.15638,4.16543]],[[964.1057,425.02121],[-12.99513,-4.87922],[1.17537,0.35239]],[[970.21765,426.67451],[-2.3817,-0.804],[0.75941,0.04146]],[[971.83798,426.41666],[-0.25651,0.23985],[2.18115,-2.03947]],[[976.78433,418.26967],[-1.76682,2.44279],[-0.76669,0.00973]],[[972.89889,418.10481],[0.90089,0.17138],[-2.67549,-0.50896]],[[964.88923,416.67374],[2.68829,0.42712],[-9.42353,-1.49721]],[[936.29671,409.90591],[9.13228,2.58714],[-3.35077,-0.55846]]],&quot;closed&quot;:true}]}" fill="#ffffff" stroke="none" stroke-width="0.5" stroke-linecap="butt"/><path d="M206.51981,194.61268c4.53748,-4.37497 9.58935,-7.62718 14.36658,-11.56277c0.03163,0.05601 0.16432,0.11066 0.21418,0.16697c0.4981,0.56245 0.89032,-0.01493 0.89032,-0.01493l0.49531,-0.59071c0.56659,-0.47419 0.99804,-1.15775 1.32956,-1.8711c-2.21387,-5.9067 -6.68635,-10.64052 -9.28761,-16.45174c-0.36892,-0.60707 -0.95262,-1.53983 -1.14988,-2.24151c-0.12133,-0.43156 2.11896,-1.24336 2.39307,-1.32522c3.33744,-0.99651 6.87788,-1.07706 10.24476,-1.91957c0.3541,0.00472 0.32381,3.18414 0.37568,3.84687c0.37515,4.79199 0.87197,9.58576 1.25219,14.37953c0.649,3.30451 0.42785,6.49795 0.7349,9.80614c0.39081,4.21065 0.6714,7.59685 -0.68161,11.61961c-3.56132,4.07247 -10.36926,8.29097 -15.52484,6.74591c-3.51593,0.02622 -6.99655,-4.69939 -9.29879,-7.32389c-0.04038,-0.04602 3.47567,-3.12037 3.64615,-3.26356z" data-paper-data="{&quot;noHover&quot;:false,&quot;origItem&quot;:[&quot;Path&quot;,{&quot;applyMatrix&quot;:true,&quot;segments&quot;:[[[926.61254,417.73069],[12.14285,3.5238],[-0.03018,0.12086]],[[926.46822,418.11346],[0.06716,-0.13431],[-0.67082,1.34164]],[924.45576,418.78428],[[923.08279,418.0906],[0,0],[-1.44471,-0.43097]],[[919.22563,415.72869],[1.11205,1.01797],[0.89694,-11.9485]],[[928.15956,380.1298],[-1.74473,12.05571],[0.38029,-1.32836]],[[929.175,375.57071],[0.02742,1.37277],[-0.01686,-0.84429]],[[923.5003,374.93752],[0.60865,-0.05075],[-7.41054,0.61792]],[[901.48814,378.8123],[7.37628,-0.90935],[-0.71866,0.25961]],[[903.08234,385.83106],[-0.2998,-1.20115],[2.16779,8.68513]],[[909.35292,411.92731],[-2.15853,-8.69186],[0.69956,6.26621]],[[913.83986,429.61277],[-1.39861,-6.02998],[1.78014,7.67491]],[[922.29365,449.50563],[-5.21858,-6.1072],[9.74892,4.62723]],[[957.96755,450.34516],[-9.56021,6.37347],[7.18055,-2.44927]],[[972.39433,430.92276],[-3.08539,6.24485],[0.05411,-0.10951]],[[963.14745,427.86406],[0.43501,0.13058],[-11.92317,-4.46591]]],&quot;closed&quot;:true}]}" fill="#66c8ff" stroke="none" stroke-width="0.5" stroke-linecap="butt"/></g><path d="M251.83636,150.7601l0.10885,0.9198l-0.05888,0.00937l0.00072,0.0141l0.06422,0.12726c-0.01588,0.08657 -0.03054,0.17343 -0.04427,0.26048l0.00231,0.04477c0.24271,0.4372 0.08388,1.56702 0.0401,2.04032c-0.15413,1.66612 -0.92979,3.27284 -0.92524,4.95847c0.00056,0.20532 0.30708,2.11976 0.24158,2.2936c-0.22321,0.5924 -0.5612,1.21231 -1.04649,1.52756c0.08436,0.83639 0.20286,1.67129 0.30501,2.51175l0.20761,0.38214c0.092,0.28782 0.20701,0.58331 0.32809,0.88414c0.26375,0.57225 0.53541,1.13714 0.77375,1.69856c0.34035,0.98827 0.93216,2.63796 0.55106,3.69159c-0.50749,1.40308 -1.53302,1.37122 -2.45352,0.64585c-0.18431,-0.14524 -0.6946,-1.40314 -0.87474,-1.82646c-0.34091,-0.45262 -0.44482,-1.09913 -0.74006,-1.59612c-0.3781,-0.8847 -0.69826,-1.88295 -1.12926,-2.73058c-2.00839,-3.94989 -5.5058,-6.52016 -8.73914,-8.92921c-1.32924,-0.99037 -2.33839,-1.89482 -3.84512,-2.48607c0,0 -0.53968,-0.21247 -0.50063,-0.81549c-0.12491,-0.41122 -0.387,-0.82251 -0.28905,-1.2336c0.55957,-2.34829 2.45795,-0.92831 3.75238,-1.57257c0.69765,-0.34724 0.73667,-0.91961 1.51508,-1.18788c1.48596,-0.51212 2.06936,0.8867 3.32653,1.05152c1.03728,0.13599 1.68191,-0.53348 2.54416,-0.92654c1.19056,-0.54272 2.25418,-0.11242 3.18225,-1.14279c0.52625,-0.4572 0.90957,-1.267 1.55607,-1.40605c1.56169,-0.33589 2.04374,1.08667 2.03293,2.44168c0.05838,0.10218 0.09836,0.2208 0.11369,0.35038zM251.00753,171.60075c0.05852,0.00422 0.09039,-0.02483 0.10382,-0.07629c-0.0338,0.02758 -0.06842,0.05302 -0.10382,0.07629z" fill="#000000" stroke="none" stroke-width="0.5" stroke-linecap="butt"/><g fill="#582700" stroke="none" stroke-width="0" stroke-linecap="butt"><path d="M285.74759,101.69389v10.28033h-13.6145v-10.28033z" data-paper-data="{&quot;index&quot;:null}"/><path d="M266.02045,94.19203v5.83478h-7.50186v-5.83478z" data-paper-data="{&quot;index&quot;:null}"/></g></g></g></svg>