<svg version="1.1" xmlns="http://www.w3.org/2000/svg" xmlns:xlink="http://www.w3.org/1999/xlink" width="713.0174" height="336.41889" viewBox="0,0,713.0174,336.41889"><g transform="translate(299.91449,32.03385)"><g data-paper-data="{&quot;isPaintingLayer&quot;:true}" fill-rule="nonzero" stroke="#000000" stroke-width="2.5" stroke-linecap="butt" stroke-linejoin="miter" stroke-miterlimit="10" stroke-dasharray="" stroke-dashoffset="0" style="mix-blend-mode: normal"><path d="M-298.66449,204.96873v-230.74896h356.04848v44.7976l-6.31967,187.99505l-83.5663,-2.04369z" fill="#6781da"/><path d="M320.43435,201.60577v-135.23735h90.26635v135.23735z" fill="#4490c8"/><path d="M-165.83414,275.04381l-4.9661,-305.82404l578.88621,1.64706l0.15387,100.19919l-97.85866,0.33716l-2.73989,203.64063z" fill="#6781da"/><path d="M-124.04441,303.12939l3.99649,-110.88356h428.22659l-0.60985,-12.36488l104.27535,-0.88679l-0.84135,121.80807z" fill="#f4e2a6"/><path d="M308.25556,192.38505v-138.92563l101.86615,-0.61471l0,17.21202h-80.37416v122.32833z" fill="#f8f8f8"/><g fill="#606060"><path d="M85.45526,197.87932c0,-7.27745 0,-29.56522 0,-33.73802c0,-1.31543 0.89422,-2.49201 1.79728,-2.49201c2.06472,0 10.43902,0 14.54166,0c1.3883,0 2.28744,0.97552 2.28744,2.10863c0,3.9716 0,27.14941 0,34.3131c0,1.33053 -0.71218,2.10863 -1.4705,2.10863c-2.11492,0 -12.21401,0 -15.84878,0c-0.81676,0 -1.30711,-0.85353 -1.30711,-2.30032z"/><path d="M208.676,197.87933c0,-7.27745 0,-29.56522 0,-33.73802c0,-1.31543 0.89422,-2.492 1.79728,-2.492c2.06472,0 10.43902,0 14.54166,0c1.3883,0 2.28744,0.97552 2.28744,2.10863c0,3.9716 0,27.14941 0,34.31309c0,1.33053 -0.71218,2.10863 -1.4705,2.10863c-2.11493,0 -12.21401,0 -15.84878,0c-0.81677,0 -1.30711,-0.85353 -1.30711,-2.30032z"/><path d="M104.08166,188.42922c0,-9.94785 0,-40.41396 0,-46.11795c0,-1.79812 2.52383,-3.40643 5.07264,-3.40643c5.82743,0 29.46301,0 41.04226,0c3.91831,0 6.45608,1.33348 6.45608,2.88238c0,5.42895 0,37.1117 0,46.90406c0,1.81875 -2.01005,2.88238 -4.15034,2.88238c-5.96914,0 -34.47274,0 -44.73145,0c-2.30522,0 -3.6892,-1.16674 -3.6892,-3.14442z"/><path d="M156.10503,188.42922c0,-9.94785 0,-40.41396 0,-46.11795c0,-1.79812 2.52382,-3.40643 5.07263,-3.40643c5.82743,0 29.463,0 41.04227,0c3.91832,0 6.45609,1.33348 6.45609,2.88238c0,5.42895 0,37.1117 0,46.90406c0,1.81875 -2.01005,2.88238 -4.15034,2.88238c-5.96914,0 -34.47274,0 -44.73146,0c-2.30522,0 -3.68919,-1.16674 -3.68919,-3.14442z"/><g><path d="M104.08166,199.2005c0,-3.09767 0,-12.58456 0,-14.36073c0,-0.55992 2.52383,-1.06073 5.07264,-1.06073c5.82743,0 29.46301,0 41.04226,0c3.91831,0 6.45608,0.41524 6.45608,0.89755c0,1.69053 0,11.55626 0,14.60551c0,0.56635 -2.01005,0.89755 -4.15034,0.89755c-5.96914,0 -34.47274,0 -44.73145,0c-2.30522,0 -3.6892,-0.36331 -3.6892,-0.97915z"/><path d="M156.10503,199.2005c0,-3.09767 0,-12.58456 0,-14.36073c0,-0.55992 2.52382,-1.06073 5.07263,-1.06073c5.82743,0 29.463,0 41.04227,0c3.91832,0 6.45609,0.41524 6.45609,0.89755c0,1.69053 0,11.55626 0,14.60551c0,0.56635 -2.01005,0.89755 -4.15034,0.89755c-5.96914,0 -34.47274,0 -44.73146,0c-2.30522,0 -3.68919,-0.36331 -3.68919,-0.97915z"/><path d="M104.08166,183.8418c0,-1.12389 0,-4.56592 0,-5.21033c0,-0.20315 2.52383,-0.38486 5.07264,-0.38486c5.82743,0 29.46301,0 41.04226,0c3.91831,0 6.45608,0.15066 6.45608,0.32565c0,0.61336 0,4.19284 0,5.29914c0,0.20548 -2.01005,0.32565 -4.15034,0.32565c-5.96914,0 -34.47274,0 -44.73145,0c-2.30522,0 -3.6892,-0.13181 -3.6892,-0.35525z"/><path d="M156.10503,183.8418c0,-1.12389 0,-4.56592 0,-5.21034c0,-0.20315 2.52382,-0.38485 5.07263,-0.38485c5.82743,0 29.463,0 41.04227,0c3.91832,0 6.45609,0.15066 6.45609,0.32564c0,0.61336 0,4.19284 0,5.29915c0,0.20548 -2.01005,0.32564 -4.15034,0.32564c-5.96914,0 -34.47274,0 -44.73145,0c-2.30522,0 -3.68919,-0.13181 -3.68919,-0.35525z"/></g></g></g></g></svg>