<svg version="1.1" xmlns="http://www.w3.org/2000/svg" xmlns:xlink="http://www.w3.org/1999/xlink" width="306.30631" height="274.77477" viewBox="0,0,306.30631,274.77477"><g transform="translate(-86.84686,-42.61264)"><g data-paper-data="{&quot;isPaintingLayer&quot;:true}" fill-rule="nonzero" stroke-linecap="butt" stroke-linejoin="miter" stroke-miterlimit="10" stroke-dasharray="" stroke-dashoffset="0" style="mix-blend-mode: normal"><path d="M86.84686,317.38741v-274.77477h306.30631v274.77477z" data-paper-data="{&quot;index&quot;:null}" fill="none" stroke="none" stroke-width="0"/><text transform="translate(271.55605,110.72268) rotate(-180) scale(0.1602,-0.1602)" font-size="40" xml:space="preserve" data-paper-data="{&quot;index&quot;:null}" fill="#000000" fill-rule="nonzero" stroke="none" stroke-width="1" stroke-linecap="butt" stroke-linejoin="miter" stroke-miterlimit="10" stroke-dasharray="" stroke-dashoffset="0" font-family="Sans Serif" font-weight="normal" text-anchor="start" style="mix-blend-mode: normal"><tspan x="0" dy="0">AwezomeXD</tspan><tspan x="0" dy="46.150000000000006px"> </tspan><tspan x="0" dy="46.150000000000006px">MeIzAwezomeDede</tspan></text><g data-paper-data="{&quot;index&quot;:null}"><g><g><g><path d="M199.89874,140.41891c0,0 -7.40028,-9.6263 -1.87467,-16.8593c3.92232,-5.13429 20.4426,-6.37302 30.26453,-11.45095c11.16526,-5.77244 31.7903,-17.54519 31.7903,-17.54519c0,0 6.03865,0.7887 7.82663,-0.05622c2.23248,-1.05498 3.19923,-5.19175 3.19923,-5.19175c0,0 2.11037,3.59036 3.18907,6.77246c4.06305,11.98584 -5.13817,15.69414 -5.13817,15.69414c0,0 5.74448,3.86568 7.48028,7.79968c1.82461,4.13537 -0.6738,7.75959 -0.6738,7.75959c0,0 3.60385,2.33982 5.07557,5.62074c0.97157,2.16595 1.94988,5.97258 2.52764,8.35877c0.98598,4.07199 9.3712,5.08354 9.3712,5.08354c0,0 -2.48657,4.51523 -4.87177,6.03417c-2.42776,1.54603 -9.41879,1.10617 -9.41879,1.10617c0,0 -2.05415,1.51738 -1.46006,4.32296c0.18728,0.88442 1.19472,2.68598 1.67531,3.50654c1.62105,2.76777 0.62381,5.5867 0.62381,5.5867c0,0 -2.69281,-2.64482 -3.75688,-3.14402c-0.78096,-0.36639 -1.41258,-0.32163 -1.41258,-0.32163c0,0 0.29942,4.54715 1.56859,6.71648c2.8229,4.82505 7.22357,10.44598 6.10816,11.0414c-2.01686,1.07659 -5.933,-1.58491 -8.50088,-1.00761c-2.36349,0.53136 -6.9798,-4.50834 -6.9798,-4.50834c0,0 0.67589,7.054 -1.64865,8.89577c-2.25573,1.78729 -1.86864,7.17993 -2.90601,7.72628c-3.78156,1.99163 -13.07801,-8.26985 -13.07801,-8.26985c0,0 -8.16398,12.35409 -11.70579,11.05392c-4.18018,-1.53453 -10.99204,-15.9225 -10.99204,-15.9225c0,0 -6.82921,-2.2477 -8.27225,-4.71781c-3.24078,-5.54743 -2.14424,-11.39817 -2.14424,-11.39817c0,0 -2.86251,1.49974 -3.90484,3.16535c-1.1079,1.77041 -2.55789,7.16189 -2.55789,7.16189c0,0 -3.2201,-4.74938 -3.79431,-7.413c-0.60382,-2.80111 0.25577,-9.00193 0.25577,-9.00193c0,0 -5.70589,-1.58928 -9.37845,-5.74902c-1.96833,-2.22941 -3.36222,-8.14308 -3.36222,-8.14308c0,0 5.38239,2.08922 7.23243,1.96569c1.43511,-0.09583 0.3594,-2.91145 0.3594,-2.91145z" fill="#6d0f0a" stroke="#000000" stroke-width="2"/><path d="M196.96291,135.88845c0,0 -6.02254,-5.928 -7.99715,-15.98478c-1.06901,-5.44454 0.59977,-13.50211 1.4031,-18.92562c1.13848,-7.68593 7.81429,-13.84463 14.2262,-17.15958c8.4289,-4.35773 18.17018,1.74819 18.17018,1.74819c0,0 7.3607,-7.6489 14.69893,-9.00776c7.08935,-1.3128 14.75471,4.02689 16.78724,5.29383c3.09646,1.93012 10.24052,13.93284 10.24052,13.93284c0,0 -16.29277,30.91191 -29.65222,37.8187c-14.27193,7.37855 -30.81168,-3.99174 -34.94438,0.91346c-1.45413,1.72595 -2.93242,1.37072 -2.93242,1.37072z" fill="#6d0f0a" stroke="#000000" stroke-width="2"/><path d="M190.26379,106.18339c0,0 0.72908,-3.72259 1.21895,-5.41833c0.46737,-1.61782 1.6559,-4.53342 1.6559,-4.53342c0,0 10.0073,2.38771 14.58706,1.96214c4.79919,-0.44595 11.06392,-5.2981 11.06392,-5.2981c0,0 0.94698,2.11846 1.54676,2.88904c0.63412,0.81471 1.73879,2.0923 1.73879,2.0923c0,0 0.40867,-2.18238 0.40421,-3.03492c-0.00483,-0.92082 -0.1557,-2.80036 -0.1557,-2.80036c0,0 3.04798,2.79508 4.32191,3.78169c1.04324,0.80795 2.76882,1.70974 2.76882,1.70974c0,0 -0.88957,-1.93947 -1.42704,-2.91343c-0.56905,-1.03115 -1.89795,-3.11166 -1.89795,-3.11166c0,0 10.46482,0.28711 16.54372,-0.53796c0.12204,-0.01658 4.32455,-1.92121 4.65536,-2.01875c7.11294,-2.09719 1.14533,-9.68339 1.14533,-9.68339c0,0 3.94941,2.05413 6.17765,4.41282c2.25999,2.3923 7.28833,9.84158 7.28833,9.84158c0,0 -6.12966,-0.74823 -10.93556,0.81053c-0.85279,0.27659 -9.90846,3.77695 -9.90846,3.77695c0,0 -2.17345,-1.39703 -3.24134,-1.91064c-1.04646,-0.5033 -3.10295,-1.14074 -3.10295,-1.14074c0,0 -0.3454,2.19139 -0.42092,3.48349c-0.09077,1.55232 -0.0863,5.19379 -0.0863,5.19379c0,0 -1.56748,-1.3527 -2.56772,-2.00584c-1.11276,-0.72664 -3.80727,-2.15713 -3.80727,-2.15713c0,0 -1.01892,0.95367 -1.48262,1.68906c-0.64373,1.0209 -2.02012,3.86582 -2.02012,3.86582c0,0 -1.869,-2.31464 -2.8316,-3.28572c-0.83283,-0.84017 -2.61133,-2.20522 -2.61133,-2.20522c0,0 -1.03601,1.70687 -1.51934,2.74963c-0.60312,1.30125 -1.82035,4.45545 -1.82035,4.45545c0,0 -9.83108,-4.33539 -14.17537,-4.44853c-4.06369,-0.10585 -11.10475,3.79016 -11.10475,3.79016z" fill="#c42d06" stroke="none" stroke-width="0"/></g><path d="M223.13813,142.0614c0,0 -19.32802,1.49446 -20.2076,0.32436c-0.15258,-0.20299 -0.9578,-9.18451 -1.50979,-9.90308c-1.00827,-1.31252 -4.63149,1.43677 -4.63149,1.43677c0,0 55.58789,-32.80713 64.45845,-37.56013c2.25986,-1.21088 5.62608,0.01325 5.62608,0.01325l-3.35295,22.18438z" fill="#6d0f0a" stroke="none" stroke-width="NaN"/></g><path d="M224.39548,86.26782c0,0 -4.60912,0.03428 -5.19272,-5.75848c-0.03074,-0.30522 0.13112,-1.64852 0.23994,-1.97486c0.8339,-2.50062 5.3185,-4.63933 5.3185,-4.63933c0,0 -1.11676,5.36872 -1.45676,7.185c-0.30305,1.61891 1.09106,5.18767 1.09106,5.18767z" fill="#6d0f0a" stroke="#000000" stroke-width="1.5"/><path d="M215.31362,78.19308c0,0 1.64543,0.45231 2.70365,1.89706c0.69749,0.64801 2.01725,3.2137 2.01725,3.2137l-2.1535,-0.30905z" fill="#000000" stroke="none" stroke-width="0"/></g><path d="M223.05402,85.21832l3.49671,-1.42337c0,0 -1.0326,5.12703 -1.45112,5.47421c-0.58591,0.48605 -4.96423,-3.49725 -4.96423,-3.49725z" fill="#6d0f0a" stroke="none" stroke-width="0"/></g><g data-paper-data="{&quot;index&quot;:null}"><text transform="translate(294.68337,229.0029) rotate(-180) scale(0.27921,-0.27921)" font-size="40" xml:space="preserve" fill="#000000" fill-rule="nonzero" stroke="none" stroke-width="1" stroke-linecap="butt" stroke-linejoin="miter" stroke-miterlimit="10" stroke-dasharray="" stroke-dashoffset="0" font-family="Sans Serif" font-weight="normal" text-anchor="start" style="mix-blend-mode: normal"><tspan x="0" dy="0">AwezomeXD</tspan><tspan x="0" dy="46.150000000000006px"> </tspan><tspan x="0" dy="46.150000000000006px">MeIzAwezomeDede</tspan></text><g data-paper-data="{&quot;index&quot;:null}"><g><path d="M304.61432,280.7271c-0.97394,-0.3343 -2.81981,-1.05375 -2.81981,-1.05375l2.00112,-62.99775c0,0 3.12264,-3.42551 4.77674,-5.10754c1.78782,-1.81801 6.83093,-5.9246 6.83093,-5.9246c0,0 5.94054,0.17965 11.08569,1.75457c7.39586,2.26385 29.04162,10.52827 29.04162,10.52827c0,0 -0.29139,23.00613 -1.11993,33.98866c-0.74728,9.90532 -3.63272,29.00908 -3.63272,29.00908c0,0 -14.3168,1.48011 -21.61682,1.59314c-7.15813,0.11083 -21.76596,-0.92143 -21.76596,-0.92143c0,0 -1.89659,-0.56514 -2.78087,-0.86866z" fill="#434253" stroke="#000000" stroke-width="2.5"/><path d="M306.04172,281.58894c0,0 3.19421,-16.34268 5.26935,-30.13714c1.48339,-9.86081 2.04443,-18.33187 2.06476,-19.00203c0.15509,-5.11269 -0.3723,-9.50368 -0.00091,-14.70459c0.49814,-6.97594 1.18056,-11.43244 1.18056,-11.43244l2.10035,-1.22928c0,0 -1.17975,18.14658 -2.93073,35.27697c-0.73182,7.15966 -2.77258,22.22022 -3.75528,31.64788c-0.10799,1.03599 0.50491,2.39047 0.4064,3.33489c-0.55015,5.27458 -0.93311,6.24975 -0.93311,6.24975l-3.40139,-0.00403z" fill="#000000" stroke="none" stroke-width="0"/></g><g stroke="#000000" stroke-width="1.5"><path d="M345.29835,263.35312c0.94113,9.66742 -4.93088,16.17699 -12.88074,16.95092c-7.94986,0.77393 -14.77082,-5.25083 -14.91119,-14.96294c-0.15638,-10.82018 5.8426,-16.14324 12.54261,-16.73861c6.71115,-0.59636 14.44659,6.50489 15.24932,14.75063z" fill="#2c262f"/><path d="M323.67439,268.45714c-0.26544,-2.72671 1.31874,-5.06632 3.56101,-5.2846c2.24227,-0.21828 3.76096,1.25807 4.0264,3.98478c0.26545,2.72671 -1.3891,5.14677 -3.63137,5.36505c-2.24227,0.21828 -3.69059,-1.33852 -3.95603,-4.06523z" data-paper-data="{&quot;index&quot;:null}" fill="#1b171c"/></g><g stroke="#000000" stroke-width="1.5"><path d="M334.90073,214.22597c6.72176,-0.46163 14.18059,7.06601 14.65957,15.33688c0.56156,9.69688 -5.56103,15.97134 -13.53511,16.43313c-7.97408,0.46179 -14.55372,-5.82563 -14.31338,-15.53578c0.26776,-10.81801 6.4647,-15.77245 13.18893,-16.23424z" fill="#2c262f"/><path d="M327.75296,233.81558c-0.15839,-2.73501 1.51626,-5.01074 3.76536,-5.14099c2.2491,-0.13025 3.70876,1.40448 3.86715,4.1395c0.15839,2.73502 -1.58973,5.08838 -3.83883,5.21863c-2.2491,0.13025 -3.6353,-1.48212 -3.79369,-4.21714z" data-paper-data="{&quot;index&quot;:null}" fill="#1b171c"/></g></g><g><g><path d="M178.2055,279.80011c0,0 -1.84588,0.71945 -2.81982,1.05375c-0.88428,0.30352 -2.78086,0.86866 -2.78086,0.86866c0,0 -14.60784,1.03226 -21.76596,0.92143c-7.30001,-0.11302 -21.61681,-1.59314 -21.61681,-1.59314c0,0 -2.88544,-19.10377 -3.63272,-29.00909c-0.82854,-10.98252 -1.11993,-33.98866 -1.11993,-33.98866c0,0 21.64575,-8.26442 29.04162,-10.52827c5.14515,-1.57491 11.08569,-1.75457 11.08569,-1.75457c0,0 5.04312,4.1066 6.83094,5.9246c1.6541,1.68203 4.77674,5.10754 4.77674,5.10754l2.00112,62.99775z" fill="#434253" stroke="#000000" stroke-width="2.5"/><path d="M173.95828,281.71568l-3.40139,0.00403c0,0 -0.38295,-0.97517 -0.93311,-6.24976c-0.0985,-0.94441 0.51439,-2.2989 0.40641,-3.33488c-0.98271,-9.42766 -3.02346,-24.48823 -3.75529,-31.64789c-1.75097,-17.13039 -2.93073,-35.27697 -2.93073,-35.27697l2.10035,1.22928c0,0 0.68243,4.4565 1.18057,11.43244c0.37139,5.20091 -0.156,9.59191 -0.00092,14.70459c0.02033,0.67016 0.58138,9.14123 2.06477,19.00203c2.07514,13.79446 5.26935,30.13713 5.26935,30.13713z" fill="#000000" stroke="none" stroke-width="0"/></g><g stroke="#000000" stroke-width="1.5"><path d="M134.70168,263.47986c0.80273,-8.24574 8.53818,-15.34698 15.24933,-14.75062c6.70001,0.59537 12.69899,5.91843 12.54261,16.73861c-0.14037,9.71211 -6.96134,15.73687 -14.9112,14.96294c-7.94986,-0.77392 -13.82187,-7.2835 -12.88074,-16.95092z" fill="#2c262f"/><path d="M152.76465,263.29931c2.24227,0.21828 3.82645,2.55788 3.56101,5.28459c-0.26545,2.72671 -1.71376,4.28351 -3.95603,4.06523c-2.24227,-0.21829 -3.89681,-2.63834 -3.63137,-5.36505c0.26544,-2.72671 1.78413,-4.20306 4.0264,-3.98478z" data-paper-data="{&quot;index&quot;:null}" fill="#1b171c"/></g><g stroke="#000000" stroke-width="1.5"><path d="M130.43972,229.68961c0.47898,-8.27087 7.9378,-15.79851 14.65956,-15.33689c6.72423,0.46179 12.92117,5.41624 13.18893,16.23424c0.24034,9.71016 -6.33929,15.99758 -14.31338,15.53579c-7.97409,-0.46179 -14.09668,-6.73625 -13.53512,-16.43313z" fill="#2c262f"/><path d="M152.24707,233.94233c-0.15839,2.73501 -1.54458,4.34738 -3.79368,4.21713c-2.2491,-0.13025 -3.99721,-2.48361 -3.83882,-5.21863c0.15839,-2.73501 1.61804,-4.26975 3.86714,-4.1395c2.2491,0.13025 3.92375,2.40598 3.76536,5.141z" data-paper-data="{&quot;index&quot;:null}" fill="#1b171c"/></g></g><g stroke="#000000"><g fill="#434253"><path d="M302.9364,282.15582c0,0 -39.39406,0.31655 -59.64769,0.31655c-21.72904,0 -66.6118,-0.31655 -66.6118,-0.31655c0,0 -2.38216,-40.33861 -2.16309,-60.75635c0.20152,-18.78125 2.16309,-54.08575 2.16309,-54.08575c0,0 42.82931,-1.2662 64.39595,-1.2662c21.14461,0 59.33114,1.58275 59.33114,1.58275c0,0 4.66352,44.84767 4.63123,67.07726c-0.03994,25.54257 -2.09882,47.44828 -2.09882,47.44828z" stroke-width="2.5"/><path d="M182.62638,273.74783c1.29409,0 2.34316,0.94416 2.34316,2.10884c0,1.16468 -1.04906,2.10884 -2.34316,2.10884c-1.29409,0 -2.34316,-0.94416 -2.34316,-2.10884c0,-1.16468 1.04906,-2.10884 2.34316,-2.10884z" stroke-width="2"/><path d="M296.08663,273.11069c1.29409,0 2.34316,0.94416 2.34316,2.10884c0,1.16468 -1.04907,2.10884 -2.34316,2.10884c-1.29409,0 -2.34316,-0.94416 -2.34316,-2.10884c0,-1.16468 1.04907,-2.10884 2.34316,-2.10884z" stroke-width="2"/><path d="M291.83151,175.44762c-0.48529,-1.12251 0.08425,-2.44878 1.27209,-2.9623c1.18785,-0.51352 2.54417,-0.01985 3.02946,1.10266c0.48528,1.12251 -0.08426,2.44879 -1.2721,2.96231c-1.18785,0.51352 -2.54417,0.01984 -3.02946,-1.10267z" stroke-width="2"/><path d="M180.91758,172.05908c1.18784,-0.51352 2.54418,-0.01985 3.02946,1.10266c0.48528,1.12251 -0.08426,2.44879 -1.2721,2.96231c-1.18784,0.51352 -2.54417,0.01984 -3.02945,-1.10267c-0.48528,-1.12251 0.08425,-2.44878 1.27209,-2.9623z" stroke-width="2"/></g><g><path d="M187.36314,208.89734c-2.36044,-6.40232 -2.14847,-24.22034 1.17777,-27.70117c8.80798,-9.21732 26.01104,-9.48636 48.15555,-9.48636c20.7312,0 40.80646,1.21551 50.19223,9.11804c4.42593,3.72649 4.09175,24.72433 0.61728,30.38921c-5.21713,8.50616 -20.51325,11.67052 -51.0204,11.67052c-30.50715,0 -45.72795,-4.44989 -49.12243,-13.65691z" fill="#434253" stroke-width="2"/><path d="M191.46433,207.317c-2.1792,-5.67588 -1.98352,-21.47217 1.08734,-24.55804c8.13172,-8.17147 24.01396,-7.77733 44.45825,-7.77733c19.1395,0 37.67343,0.44494 46.33857,7.45081c4.08612,3.30367 3.77759,21.91897 0.56988,26.94108c-4.81657,7.54101 -18.93828,9.50278 -47.10314,9.50278c-28.16487,0 -42.21704,-3.39695 -45.3509,-11.55929z" fill="#2c262f" stroke-width="1.5"/><path d="M216.73026,204.30872c-0.84859,-2.4182 -0.77238,-9.14817 0.42343,-10.4629c3.16654,-3.48144 9.35117,-4.21571 17.31229,-4.21571c7.45303,0 14.67023,1.09175 18.04449,4.07659c1.59116,1.40752 1.47102,9.33853 0.22192,11.47819c-1.8756,3.21283 -7.37467,4.61891 -18.34223,4.61891c-10.96755,0 -16.43956,-1.85087 -17.65989,-5.32841z" fill="#1b171c" stroke-width="1.5"/></g><g><path d="M187.36314,264.28152c-2.36044,-6.40232 -2.14847,-24.22034 1.17777,-27.70116c8.80798,-9.21732 26.01104,-9.48637 48.15555,-9.48637c20.7312,0 40.80646,1.21551 50.19223,9.11804c4.42593,3.7265 4.09175,24.72433 0.61728,30.38921c-5.21713,8.50616 -20.51325,11.67052 -51.0204,11.67052c-30.50715,0 -45.72795,-4.4499 -49.12243,-13.65692z" fill="#434253" stroke-width="2"/><path d="M191.46433,262.70117c-2.1792,-5.67588 -1.98352,-21.47217 1.08734,-24.55804c8.13172,-8.17147 24.01396,-7.77734 44.45825,-7.77734c19.1395,0 37.67343,0.44494 46.33857,7.45081c4.08612,3.30367 3.77759,21.91898 0.56988,26.94109c-4.81657,7.54101 -18.93828,9.50278 -47.10314,9.50278c-28.16487,0 -42.21704,-3.39695 -45.3509,-11.55929z" fill="#2c262f" stroke-width="1.5"/><path d="M216.73026,259.69291c-0.84859,-2.41819 -0.77238,-9.14816 0.42343,-10.46289c3.16654,-3.48144 9.35117,-4.21571 17.31229,-4.21571c7.45303,0 14.67023,1.09175 18.04449,4.07659c1.59116,1.40752 1.47102,9.33852 0.22192,11.47818c-1.8756,3.21283 -7.37467,4.61891 -18.34223,4.61891c-10.96755,0 -16.43956,-1.85087 -17.65989,-5.32842z" fill="#1b171c" stroke-width="1.5"/></g></g></g><path d="M250.14543,133.91171c0,0 3.31848,0.88777 4.81931,4.20915c1.22346,2.70754 0.73583,7.87095 0.37996,8.61908c-1.6779,3.52735 -1.45669,6.73729 -2.09274,7.98323c-1.40471,2.75164 -2.80652,-0.41146 -2.80652,-0.41146l-6.4,-17.3l6.1,-3.1z" data-paper-data="{&quot;index&quot;:null}" fill="#fb95a9" stroke="#000000" stroke-width="2"/><g data-paper-data="{&quot;index&quot;:null}"><path d="M227.48004,132.29126c2.41131,-2.95149 10.53162,-0.25987 12.59919,3.86227c0.26008,0.51854 1.70637,-0.66733 5.40284,0.98163c0.86997,0.38809 5.3323,2.85511 7.98427,6.04894c1.26983,1.52929 2.1246,3.99593 1.97118,5.03194c-0.22905,2.80784 -2.67033,5.18657 -4.85989,7.14774c-2.87249,2.57284 1.75248,7.33006 -2.40533,7.33006c-3.03121,0 -16.54137,0.60747 -18.69314,-0.7284c-1.28409,-0.79719 -0.53199,-7.61244 -0.88049,-9.01861c-0.48674,-1.96396 -4.99822,-4.40189 -4.99822,-6.61256c0,-2.58633 2.29137,-12.099 3.87959,-14.04301z" fill="#ee1536" stroke="#000000" stroke-width="2"/><path d="M243.59202,152.48037c0,-3.14019 3.56399,-6.94934 7.26523,-7.10728c3.22449,-0.13759 3.97211,2.15654 3.0535,5.15937c-1.10558,3.61402 -4.40634,5.42259 -7.63376,5.42259c-0.06272,0 2.08362,-1.58996 2.84464,-0.28992c1.01358,1.73146 0.66979,6.51156 0.03616,6.86773c-2.98614,1.67855 -13.402,-0.74155 -16.31172,-0.67209c-0.60085,0.01435 -2.90823,0.59035 -3.45604,-1.26733c-0.44915,-1.5231 0.38106,-5.65028 0.34354,-5.65555c-0.60286,-0.08461 -1.36799,-4.06688 -1.36799,-4.06688c0,0 -2.86476,-2.27685 -2.9505,-2.85725c-0.15338,-1.03828 2.10836,-2.8435 2.10836,-2.8435c0,0 1.25189,1.00644 1.97555,1.57762c0.66583,0.52553 1.57561,2.98741 1.57561,2.98741c0,0 4.12841,-5.5717 8.29185,-4.21031c5.58397,1.82588 4.22558,7.21129 4.22558,6.95539z" fill="#9a1652" stroke="none" stroke-width="0"/><path d="M230.10236,161.47034c0.86132,-1.55025 8.52088,-5.58592 9.70316,-7.17085c2.60911,-3.4977 4.57621,-6.08348 4.57621,-6.08348c0,0 0.91108,5.32297 -0.66029,9.58239c-1.16307,3.15265 6.61433,5.47453 5.8723,5.47453c-1.74455,0 -20.27813,-0.38656 -19.49138,-1.80259z" fill="#000000" stroke="none" stroke-width="0"/></g><g data-paper-data="{&quot;index&quot;:null}"><path d="M229.85842,145.1316c-0.33324,5.14108 -6.5882,17.43845 -6.5882,17.43845c0,0 -0.58035,1.27915 -1.58087,2.3327c-0.55664,0.58613 -0.90619,1.15553 -2.16578,1.2688c-0.84248,0.07577 -3.46955,-0.64919 -4.34205,-1.88079c-0.76369,-1.078 -0.42185,-3.38402 -0.33544,-4.15208c0.34268,-3.04586 1.83083,-7.14164 2.56254,-12.06937c0.9098,-6.1271 1.41437,-13.64095 2.48637,-15.89263c0.27655,-0.58087 1.05635,0.41211 1.34164,0.4263c1.25362,0.06236 1.79691,0.67283 3.33346,1.99542c2.62075,2.2558 5.55484,6.13572 5.28833,10.24747z" fill="#ffd5d5" stroke="#000000" stroke-width="2"/><path d="M223.92719,158.98899c0,0 -0.61416,2.61026 -1.9443,4.38467c-0.82651,1.1026 -1.63723,1.74755 -2.39862,1.78563c-1.37066,0.06855 -3.40002,-0.49683 -3.89036,-1.82014c-1.18008,-3.18477 2.32573,-12.09699 2.32573,-12.09699l5.90755,7.74684z" fill="#fb95a9" stroke="none" stroke-width="0"/></g><g data-paper-data="{&quot;index&quot;:null}"><path d="M255.19958,184.17557c-1.00101,-2.204 -1.48204,-4.3489 -0.72825,-4.96606c2.33239,-1.90961 13.28484,-2.98899 13.38878,-2.98899c6.31528,0 14.84633,4.70166 14.84633,7.42317c0,2.15815 -5.66177,5.08636 -11.867,4.87772c-9.17694,-0.30857 -12.61375,-4.42959 -12.80984,-4.64776c-0.77835,-0.86597 0.94691,1.54978 1.61014,2.51138c0.76014,1.10213 2.09503,1.87099 1.91005,2.94778c-0.21138,1.23048 -1.04517,0.91066 -1.93413,0.37576c-1.07219,-0.64516 -2.75079,-1.86638 -4.41608,-5.533z" fill="#ee1536" stroke="#000000" stroke-width="1.5"/><path d="M224.16344,166.83485c0,-3.59654 1.88208,-6.79388 5.00437,-9.12732c4.14737,-3.09953 10.28977,-4.77137 15.23297,-4.77137c5.31995,0 12.36793,-0.19935 14.37465,2.09274c0.5447,0.62216 0.11605,3.35746 0.47021,5.96384c0.20355,1.49801 1.01152,5.12835 2.06489,8.05201c0.76659,2.12772 1.6857,4.5633 2.81912,4.87357c4.6996,1.28652 11.33458,3.83886 9.65309,6.39177c-1.27777,1.93997 -8.71321,2.17386 -14.6326,0.37436c-5.32793,-1.61969 -9.13974,-5.17457 -11.08352,-5.65964c-3.29754,-0.8229 -10.29591,1.43415 -13.65474,0.96798c-2.18858,-0.30375 -4.10262,-1.02669 -5.53901,-1.79684c-3.55989,-1.90871 -4.7094,-5.13615 -4.7094,-7.3611z" fill="#ffd5d5" stroke="#000000" stroke-width="1.5"/><path d="M254.40496,163.13252c0,0 1.5473,-1.13661 2.20683,-1.84011c0.59795,-0.63781 1.58373,-2.20314 1.58373,-2.20314c0,0 0.47515,2.43192 0.69523,3.67533c0.19897,1.12418 0.56829,3.46354 0.56829,3.46354c0,0 -2.16472,-0.56777 -3.07746,-1.12683c-0.7315,-0.44803 -1.97661,-1.96878 -1.97661,-1.96878z" fill="#fb95a9" stroke="none" stroke-width="0"/><path d="M275.08881,180.09436c0.16969,-0.35395 1.67522,-0.13645 2.97302,0.48578c1.2978,0.62223 2.68613,2.36122 2.51643,2.71517c-0.1697,0.35394 -1.51728,-1.12707 -2.81508,-1.7493c-1.29779,-0.62223 -2.84406,-1.0977 -2.67436,-1.45165z" fill="#fc9ea5" stroke="none" stroke-width="0"/></g><g data-paper-data="{&quot;index&quot;:null}"><path d="M231.01661,188.16844c2.5441,-6.35721 7.6863,-8.12709 12.34285,-6.26357c4.65656,1.86351 6.54811,7.90162 4.004,14.25883c-2.5441,6.35722 -11.22418,11.88722 -14.69074,10.29339c-3.43224,-1.57805 -4.378,-11.60389 -1.83389,-17.9611z" fill="#ee1536" stroke="#000000" stroke-width="1.5"/><path d="M233.51809,185.39081c0,0 2.00422,-2.86118 4.30555,-3.50609c0.77193,-0.21631 4.08674,0.23689 6.56763,1.86017c1.68622,1.10331 2.8021,3.19439 3.19142,4.24588c0.67057,1.81111 0.10967,3.76134 0.10967,3.76134c0,0 -1.81828,1.66589 -5.43619,1.54424c-1.90251,-0.06397 -4.61734,-2.13774 -6.33064,-4.2466c-1.54479,-1.90145 -2.40744,-3.65892 -2.40744,-3.65892z" fill="#9a1652" stroke="none" stroke-width="0"/><path d="M237.96925,175.60229c0.55432,-7.08643 2.21505,-10.84502 10.62649,-10.5467c4.91806,0.17442 6.52345,5.86357 6.20118,8.26798c-1.07822,8.0444 -9.74893,15.13352 -9.74893,15.13352c0,0 1.38491,8.01261 -6.9327,9.02219c-4.06733,0.49369 -4.09452,-6.52097 -3.42123,-8.22854c1.22234,-3.10001 3.42075,-4.916 3.42075,-4.916c0,0 -0.3919,-5.5836 -0.14558,-8.73245z" fill="#ffd5d5" stroke="#000000" stroke-width="1.5"/><path d="M245.1026,176.95961c-0.98594,-0.64 -1.21165,-1.61216 -1.54278,-2.57662c-0.39958,-1.16379 -0.68288,-4.079 -0.68288,-4.079c0,0 1.88781,1.43735 2.95744,2.05164c1.0526,0.6045 3.57324,1.45269 3.57324,1.45269c0,0 -1.55297,2.41034 -2.26572,2.89984c-0.66241,0.45494 -1.05335,0.89143 -2.03929,0.25145z" fill="#fb95a9" stroke="none" stroke-width="0"/><path d="M235.8695,203.62274c-0.64171,-0.03296 1.51192,-1.05037 2.3367,-1.53259c0.91489,-0.5349 2.82616,-2.37563 2.86295,-2.00666c0.07441,0.74608 -1.44675,2.17702 -2.28268,2.66576c-0.90726,0.53045 -1.82762,0.92947 -2.91696,0.87351z" fill="#fc9ea5" stroke="none" stroke-width="0"/></g><g data-paper-data="{&quot;index&quot;:null}"><g><g><path d="M252.90509,119.08188c-1.00605,-3.52272 0.49017,-7.03866 3.3419,-7.85307c2.85173,-0.81441 5.97905,1.38111 6.98509,4.90383c1.00604,3.52272 -0.49019,7.03867 -3.34192,7.85308c-2.85173,0.81442 -5.97904,-1.3811 -6.98508,-4.90382z" fill="#fb95a9" stroke="#000000" stroke-width="2"/><path d="M243.8705,138.24423c-25.05089,3.31053 -28.41539,1.30702 -32.81487,-7.93386c-4.39948,-9.2409 9.43595,-14.22286 22.50967,-20.44711c13.07374,-6.22427 19.65633,-10.03017 24.05581,-0.78927c0.71768,1.50747 1.99962,11.65737 1.99962,11.65737c0,0 8.68876,1.74177 9.00958,5.80013c0.33214,4.38437 -15.28371,10.46044 -24.75979,11.71274z" fill="#ffd5d5" stroke="#000000" stroke-width="2"/><path d="M211.01097,122.86825c0,0 23.13837,-15.40894 28.73602,-18.0739c10.60601,-5.0494 14.97332,0.1463 17.02307,4.45172c0.89527,1.88051 1.68869,10.40167 1.68869,10.40167c0,0 -5.24741,-4.00222 -7.64721,-4.64025c-0.95014,-0.25262 -2.73678,-0.96049 -2.73678,-0.96049c0,0 -0.8115,1.91054 -1.24572,3.03755c-0.60119,1.56037 -2.40755,4.70822 -2.40755,4.70822l-1.95529,-3.29297l-2.83621,5.20376l-8.50412,-5.1375c0,0 -1.21471,6.12917 -2.78234,8.93036c-1.67148,2.98673 -6.95503,8.46916 -6.95503,8.46916l-3.93879,0.85728c0,0 -4.34659,-3.89167 -5.44041,-6.26234c-1.05068,-2.27712 -0.99831,-7.69234 -0.99831,-7.69234z" fill="#fb95a9" stroke="none" stroke-width="0"/><path d="M206.0123,135.3937c-1.37486,-2.88776 -1.74859,-3.48231 -0.59708,-5.66318c0.92318,-1.7484 8.41208,0.03288 9.78692,2.92066c1.37485,2.88776 1.79366,6.02645 0.00849,6.87636c-1.78519,0.8499 -7.38389,-0.51036 -9.0303,-3.96856z" fill="#ffd5d5" stroke="#000000" stroke-width="2.5"/><path d="M214.94358,138.72173c-0.63712,0.30332 -3.57151,0.06698 -5.22103,-1.0476c-1.02979,-0.69582 -1.8821,-1.76825 -2.50859,-2.73857c-0.76828,-1.18995 -0.08899,-2.19678 1.34497,-2.06077c2.39836,0.22748 5.70859,0.75277 6.27178,1.93567c0.8999,1.89017 1.63551,3.18633 0.11286,3.91125z" fill="#fb95a9" stroke="none" stroke-width="0"/><path d="M208.04961,132.32467c-0.27498,-0.57756 7.65924,3.35054 7.65924,3.35054l0.18084,2.82932c0,0 -7.56511,-5.60232 -7.84008,-6.17989z" fill="#000000" stroke="none" stroke-width="0"/><path d="M214.37465,139.94142c-1.00465,-1.57583 -0.06231,-3.6228 1.76632,-4.71663c1.8286,-1.0938 3.7789,-2.46651 5.68986,0.1158c0.33638,0.45456 2.45335,3.4702 1.60861,5.64678c-0.13167,0.33927 -1.06056,1.78619 -2.32024,2.43623c-1.73962,0.89773 -3.01549,0.88228 -3.01549,0.88228c0,0 1.47848,-2.40171 1.22256,-2.46525c-0.8162,-0.20261 -4.10753,-0.5752 -4.95164,-1.89919z" fill="#6d0f0a" stroke="#000000" stroke-width="2"/><path d="M201.79218,143.00438c-8.12703,-1.22961 -11.85987,-4.15346 -11.85987,-4.15346c0,0 6.11303,-2.73511 7.46196,-5.51817c1.35971,-2.8053 0.12116,-12.38824 0.12116,-12.38824c0,0 21.76893,-7.84612 30.62646,-12.06309c8.20198,-3.90484 15.40822,-7.30887 20.68973,-9.79546c5.74046,-2.70266 11.9026,-2.14295 14.52634,2.08593c0.64932,1.04651 1.52291,2.45632 2.08426,3.71336c2.5658,5.7456 2.50262,11.87156 2.50262,11.87156c0,0 -7.62851,-5.14425 -11.20037,-7.28173c-4.41759,-2.64356 -10.62958,-4.13002 -10.62958,-4.13002c0,0 0.62702,3.95721 0.06232,6.89385c-0.58456,3.0399 -3.56922,4.10669 -3.56922,4.10669c0,0 -1.40762,-2.8593 -2.51509,-3.98946c-1.01944,-1.04036 -2.92002,-3.0084 -2.5416,-1.89838c0.38065,1.11663 0.92463,3.91995 1.23075,5.28338c0.79224,3.52882 0.44988,4.18684 0.44988,4.18684c0,0 -2.91342,-2.28645 -5.76327,-4.37426c-2.42313,-1.77518 -5.35799,-2.13927 -5.35799,-2.13927c0,0 -2.63923,5.96781 -4.42652,8.67554c-1.61453,2.44602 -5.48712,6.7015 -5.48712,6.7015c0,0 5.1211,6.66113 1.2648,7.83352c-2.7255,0.8286 -4.0555,0.81711 -5.89815,0.26389c-1.10467,-0.33165 -2.48201,-2.9973 -2.48201,-2.9973l2.1372,-0.29297c0,0 -3.49529,-5.29597 -4.86935,-5.12124c-2.41939,0.30766 -0.88998,-0.65523 -4.01685,0.9299c-0.45513,0.23073 -0.57912,3.56389 0.69896,6.10044c1.37214,2.72325 4.17101,4.6541 4.17101,4.6541c0,0 -3.27498,3.44164 -7.24375,2.84116z" fill="#6d0f0a" stroke="#000000" stroke-width="1.5"/><path d="M239.43895,106.83577c-0.88542,0.42153 -2.51163,-0.07118 -4.35619,0.65032c-1.9984,0.78165 -4.22317,2.78186 -5.22817,3.30303c-14.51478,7.52753 -30.48715,16.28137 -30.48715,16.28137c0,0 -0.38536,-2.66968 -0.8517,-3.85429c-0.4982,-1.26561 -1.76304,-3.6483 -1.76304,-3.6483c0,0 21.04987,-6.9301 32.93309,-12.58756c7.62509,-3.63023 15.51268,-7.76654 20.86198,-9.43948c5.66416,-1.77143 8.97168,-1.16304 8.97168,-1.16304l3.73064,5.86861l-2.58118,0.4609l-8.23558,-3.27483c0,0 -8.93289,5.46959 -12.99438,7.40323z" fill="#6d0f0a" stroke="none" stroke-width="0"/><path d="M241.42425,137.24634c0,0 -4.93277,-4.73819 -4.89754,-4.97759c0.0542,-0.36837 8.8651,-1.79646 9.04713,-1.45013c0.1737,0.33044 -3.12822,6.10594 -4.1496,6.42772z" fill="#ef3d61" stroke="#000000" stroke-width="1.5"/><path d="M218.87765,122.39901c0,0 2.10964,0.94747 3.142,1.13513c0.95011,0.17272 2.21929,-0.34451 2.21929,-0.34451c0,0 -0.60265,-0.55536 -1.21565,-1.13929c-0.63932,-0.60901 -2.04055,-2.52722 -2.04055,-2.52722c0,0 1.85756,1.11464 2.69945,1.41714c0.80511,0.2893 2.52709,0.4596 2.52709,0.4596c0,0 2.32064,-1.15833 3.85935,-1.89088c4.02791,-1.91763 7.99908,-0.30975 7.99908,-0.30975c0,0 -2.48097,0.4266 -3.33505,0.60387c-0.60668,0.12587 -1.24562,0.48598 -1.24562,0.48598c0,0 3.79512,7.61947 -1.92803,10.42193c-4.68757,2.29538 -6.40352,-4.6763 -6.75014,-4.93874c-0.25112,-0.19013 -1.43229,-0.61335 -1.43229,-0.61335c0,0 -1.67228,-0.20654 -2.38079,-0.6305c-0.77077,-0.46123 -2.11812,-2.12944 -2.11812,-2.12944z" fill="#000000" stroke="none" stroke-width="0"/></g><path d="M262.30161,100.4985c0,0 -1.47392,-2.33855 -2.30649,-3.47137c-0.79615,-1.08326 -2.58465,-3.18346 -2.58465,-3.18346c0,0 1.26262,0.18272 2.77989,2.05586c0.99163,1.22421 3.50615,4.4271 3.50615,4.4271z" fill="#000000" stroke="none" stroke-width="0"/></g><path d="M257.75131,120.3278c0,0 -5.31515,0.20793 -8.0996,0.68878c-1.32475,0.22877 -3.02813,0.8584 -4.71601,1.32766c-1.86827,0.51941 -3.27883,1.74189 -3.27883,1.74189c0,0 -0.33951,-0.67312 -0.01758,-1.53055c0.32515,-0.86599 1.19103,-1.79387 1.84662,-2.51532c0.79976,-0.88009 1.82779,-1.56916 2.65688,-1.90224c1.38501,-0.5564 4.77651,-0.19279 6.82191,0.01936c0.97559,0.10119 1.64414,0.07135 1.64414,0.07135l3.65062,-1.22227l-1.68444,1.97753l2.80667,-0.187l-1.63037,1.53082z" fill="#000000" stroke="none" stroke-width="0"/></g><g data-paper-data="{&quot;index&quot;:null}"><path d="M245.48848,151.88957c0.31758,0 3.63225,0.10673 3.93065,0.53877c1.33824,1.93757 -0.34292,6.78522 -0.8631,7.58224c-0.49564,0.75943 -2.84323,1.49437 -3.60601,1.49437c-1.74182,0 -3,-2.32127 -3,-4.61538c0,-2.29411 1.79664,-5 3.53846,-5z" fill="#fd96aa" stroke="#000000" stroke-width="1.5"/><path d="M244.86555,154.56431c0,-0.89092 0.53377,-2.58568 0.53377,-2.58568c0,0 -0.81215,-0.59137 -2.15109,-0.83204c-3.5962,-0.64641 -10.41342,-1.46661 -9.58073,-5.89658c0.03455,-0.18378 0.29905,-0.76307 0.74205,-1.20909c0.39569,-0.39838 0.94934,-0.67488 1.36082,-0.71617c2.61682,-0.26256 7.31343,1.52607 10.90324,2.80277c2.35425,0.83728 4.45659,1.18678 4.87944,1.18678c4.24569,0 7.3125,3.88769 7.3125,8.375c0,4.48731 -2.31681,7.75 -6.5625,7.75c-4.24569,0 -7.4375,-4.38769 -7.4375,-8.875z" fill="#ffd5d5" stroke="#000000" stroke-width="2"/><path d="M257.90245,156.9649c0,0 -0.34526,2.49276 -2.05627,4.21688c-0.96367,0.97106 -2.61326,1.48763 -3.99461,1.29818c-2.14798,-0.2946 -3.623,-1.43109 -4.51488,-2.7743c-1.61932,-2.43875 -1.52514,-5.55894 -1.52514,-5.55894c0,0 2.82352,4.97121 4.67142,5.5735c1.52522,0.49712 2.75672,-0.79266 3.2383,-0.76702c0.98819,0.05261 0.32921,0.85134 0.96662,0.65647c1.90339,-0.58193 3.21457,-2.64476 3.21457,-2.64476z" fill="#fb95a9" stroke="none" stroke-width="0"/><path d="M254.18078,162.65183c0,0 0.13813,-1.21919 -0.34844,-2.20255c-0.32538,-0.65758 -0.81095,-1.14719 -0.86242,-1.42386c-0.04507,-0.24228 1.40411,-0.43217 2.20899,0.57336c1.03693,1.29542 0.84803,1.90619 0.84803,1.90619z" fill="#000000" stroke="none" stroke-width="0"/><path d="M245.5654,156.2742c0,0 0.80576,-0.61428 1.23432,-0.85917c0.46578,-0.26616 1.45799,-0.67929 1.45799,-0.67929c0,0 -0.91782,1.39623 -1.22445,2.21391c-0.30873,0.8233 -0.31401,2.63224 -0.31401,2.63224z" fill="#000000" stroke="none" stroke-width="0"/><path d="M239.50343,145.89279c0,0.3767 -0.2727,1.00919 -0.69032,0.96305c-0.82404,-0.09104 -1.87893,-0.28638 -2.84958,-1.30382c-0.61347,-0.64305 -0.43926,-1.86061 -0.43926,-1.86061c0,0 1.59096,-0.0914 2.25871,-0.0043c0.75823,0.0989 1.72045,0.51819 1.72045,0.51819z" fill="#f7426f" stroke="#000000" stroke-width="1"/></g><g data-paper-data="{&quot;index&quot;:null}"><path d="M212.77522,151.32627c0.37059,-0.34432 0.26173,-0.44905 -0.35095,-0.38204c-2.72641,0.2982 -10.30616,0.54917 -11.94466,-5.57246c-0.05007,-0.18705 -0.19795,-0.89129 0.10961,-1.48773c0.36428,-0.70644 1.02758,-0.84782 1.37169,-0.86445c0.97062,-0.0469 2.43406,0.14999 4.16591,0.53818c1.90836,0.42776 3.85413,1.06835 6.04772,1.42648c3.36959,0.55012 6.74432,0.42458 8.35627,0.42458c2.98802,0 4.3683,1.54274 5.59776,2.7217c0.82704,0.79307 1.78749,1.85105 2.18353,2.84754c0.42382,1.06641 0.75762,2.27745 0.53977,4.04403c-0.63636,2.60145 -2.0519,4.04844 -3.63083,4.25815c-1.77061,0.23518 -3.19414,-0.71318 -3.19414,-0.71318c0,0 -0.42136,4.00338 -4.22335,4.00338c-2.95882,0 -7.19048,-1.73928 -7.48118,-4.74044c-0.33171,-3.42455 1.43613,-5.55912 2.45286,-6.50374z" fill="#ffd5d5" stroke="#000000" stroke-width="2"/><path d="M227.34249,151.40844c0,0 0.6567,1.45505 0.51551,2.95027c-0.1044,1.10562 -0.6317,2.27226 -1.65324,2.98565c-0.96642,0.6749 -4.12675,0.58006 -4.12675,0.58006c0,0 -0.84835,2.80522 -2.41269,3.51048c-1.25488,0.56574 -3.62472,0.36187 -5.78223,-0.68179c-1.69631,-0.82055 -2.46916,-2.41609 -2.46916,-2.41609c0,0 0.27016,0.13595 0.85247,-0.10928c0.38664,-0.16283 0.23657,-2.30332 0.80595,-2.54623c0.2504,-0.10683 0.5787,0.50953 0.87941,0.48792c1.47365,-0.10591 1.19022,-5.10353 1.19022,-5.10353l-1.18362,-1.1561c0,0 -3.87794,0.61531 -7.37662,-0.24561c-1.19324,-0.29362 -2.27926,-0.82208 -3.23768,-1.51982c-1.25101,-0.91075 -1.94149,-3.04504 -1.94149,-3.04504c0,0 0.75999,-0.02067 1.21669,0.06902c1.15837,0.22748 3.04363,2.3482 5.65175,2.8833c2.29079,0.47 4.68506,0.73335 6.71226,0.7053c0.87965,-0.01217 1.94899,-0.1478 2.57482,-0.18157c0.12783,-0.0069 0.29184,-0.253 0.63416,-0.33914c0.29455,-0.07413 0.49103,0.07867 0.54982,0.10211c0.8907,0.35508 1.27438,2.326 2.09148,3.07982c1.64463,1.51725 3.51828,2.44009 4.13921,2.39582c2.22288,-0.15849 2.36974,-2.40552 2.36974,-2.40552z" fill="#fb95a9" stroke="none" stroke-width="0"/><path d="M219.48535,158.83705c0,0 0.75798,-0.15239 1.12719,-1.00677c0.27812,-0.64358 0.27386,-1.90177 -0.09511,-2.58205c-0.14904,-0.27478 -3.5612,-0.3811 -3.86699,-1.15891c-0.43012,-0.97007 -0.52223,-2.60941 -0.52223,-2.60941c0,0 1.62596,1.45982 2.93407,1.63109c0.71359,0.09343 1.27892,0.27214 1.70876,0.22584c0.24002,-0.02585 0.43777,-0.22018 0.59551,-0.30154c0.45316,-0.23374 0.58447,-0.56282 1.04395,-0.77703c0.34398,-0.16035 0.74456,-0.24514 0.89458,-0.06048c0.18674,0.22986 0.06376,0.79873 -0.12459,1.24378c-0.40925,0.96703 -0.98653,1.96041 -0.91259,2.89965c0.07054,0.89608 1.00317,2.42439 1.00317,2.42439z" fill="#000000" stroke="none" stroke-width="0"/><path d="M221.98535,159.69419c0,0 -2.0686,0.27887 -3.64236,0.28435c-0.69652,0.00242 -1.35354,-0.16358 -1.59359,-0.2354c-2.75119,-0.82312 -3.4069,-3.62038 -3.4069,-3.62038c0,0 2.20914,1.9773 3.73503,2.24778c2.38416,0.4226 4.47926,-0.60492 4.47926,-0.60492l0.42857,1.92857z" fill="#000000" stroke="none" stroke-width="0"/><path d="M227.77107,156.90846c0,0 -0.32302,1.11744 -1.72681,1.77541c-1.23905,0.58076 -2.55891,0.36745 -2.55891,0.36745c0,0 -0.00315,-1.16277 0.44704,-2.13996c0.30413,-0.66013 1.11954,-1.16415 1.32276,-1.23925c0.22523,-0.08323 0.91188,-0.09768 1.40562,0.17806c0.77855,0.43479 1.1103,1.0583 1.1103,1.0583z" fill="#871847" stroke="#000000" stroke-width="1"/><path d="M211.12821,150.05132c0,0 4.64286,-0.80189 4.64286,0.21429c0,1.04826 -1.35521,1.13074 -2.20158,1.46113c-0.55418,0.21633 -0.72699,0.6103 -0.72699,0.6103z" fill="#000000" stroke="none" stroke-width="0"/></g></g></g></svg>