<svg version="1.1" xmlns="http://www.w3.org/2000/svg" xmlns:xlink="http://www.w3.org/1999/xlink" width="127.66667" height="127.66667" viewBox="0,0,127.66667,127.66667"><g transform="translate(-176.16669,-116.16666)"><g data-paper-data="{&quot;isPaintingLayer&quot;:true}" fill-rule="nonzero" stroke-linejoin="miter" stroke-miterlimit="10" stroke-dasharray="" stroke-dashoffset="0" style="mix-blend-mode: normal"><g><g stroke="#000000" stroke-linecap="round"><path d="M217.39262,198.10569c0,0 2.77356,-5.4398 4.13943,-6.21618c0.72822,-0.41394 3.42693,1.9153 3.42693,1.9153c0,0 4.75261,-4.06073 11.07906,-4.08413c8.09534,-0.02994 19.34573,2.25227 19.34573,2.25227l2.86726,11.62832c0,0 -16.00774,1.20555 -22.80124,0.29181c-6.82582,-0.91809 -18.05716,-5.78738 -18.05716,-5.78738z" fill="#0065cc" stroke-width="0"/><path d="M224.95902,193.80478c0,0 4.75261,-4.06073 11.07906,-4.08413c8.09534,-0.02994 19.34573,2.25227 19.34573,2.25227l2.86726,11.62832c0,0 -16.00774,1.20555 -22.80124,0.29181c-2.42102,-0.32564 -5.39627,-1.14834 -8.22801,-2.07454c-0.18852,-2.71503 -0.97078,-5.45195 -1.84464,-7.13762c-0.12154,-0.23446 -0.27258,-0.54189 -0.44949,-0.9029c0.02049,0.01743 0.03134,0.02678 0.03134,0.02678z" fill="#061382" stroke-width="0"/><path d="M229.33954,198.34463l2.70796,2.54867" fill="none" stroke-width="1"/><path d="M217.39262,198.10569c0,0 2.77356,-5.4398 4.13943,-6.21618c0.72822,-0.41394 3.42693,1.9153 3.42693,1.9153c0,0 4.75261,-4.06073 11.07906,-4.08413c8.09534,-0.02994 19.34573,2.25227 19.34573,2.25227l2.86726,11.62832c0,0 -16.00774,1.20555 -22.80124,0.29181c-6.82582,-0.91809 -18.05716,-5.78738 -18.05716,-5.78738z" fill="none" stroke-width="1"/></g><g fill="none" stroke="none" stroke-width="1" stroke-linecap="butt" font-family="sans-serif" font-weight="normal" font-size="12" text-anchor="start"/><g><path d="M229.23001,185.91785c0,0 -2.69302,-5.63292 1.16249,-10.76664c1.41904,-1.88949 3.84565,-4.31385 7.44797,-5.50405c15.78375,-5.21493 14.80547,9.16228 14.80547,9.16228c0,0 3.97095,4.30425 3.3419,5.91514c-1.28839,3.29933 -7.6627,3.70211 -7.6627,3.70211l0.83628,6.27212c0,0 -9.08739,7.27359 -17.77238,2.91128c-9.96441,-5.00493 -2.15904,-11.69225 -2.15904,-11.69225z" fill="#feecf7" stroke="#000000" stroke-width="0" stroke-linecap="round"/><path d="M229.23001,185.91785c0,0 -2.69302,-5.63292 1.16249,-10.76664c1.41904,-1.88949 3.84565,-4.31385 7.44797,-5.50405c15.78375,-5.21493 14.80547,9.16228 14.80547,9.16228c0,0 3.97095,4.30425 3.3419,5.91514c-1.28839,3.29933 -7.6627,3.70211 -7.6627,3.70211l0.83628,6.27212l-4.43629,-4.52891c0,0 -6.04137,0.87198 -8.08226,-0.02716c-2.86031,-1.26013 -7.41285,-4.22489 -7.41285,-4.22489z" fill="#dc94e7" stroke="#000000" stroke-width="0" stroke-linecap="round"/><path d="M229.23001,185.91785c0,0 -2.69302,-5.63292 1.16249,-10.76664c1.41904,-1.88949 3.84565,-4.31385 7.44797,-5.50405c15.78375,-5.21493 14.80547,9.16228 14.80547,9.16228c0,0 3.97095,4.30425 3.3419,5.91514c-1.28839,3.29933 -7.6627,3.70211 -7.6627,3.70211l0.83628,6.27212c0,0 -9.08739,7.27359 -17.77238,2.91128c-9.96441,-5.00493 -2.15904,-11.69225 -2.15904,-11.69225z" fill="none" stroke="#000000" stroke-width="1" stroke-linecap="round"/><path d="M244.23336,193.00834c0,0.36843 -0.24347,0.49338 -0.40863,0.53577c-0.71336,1.08236 -2.20313,1.73851 -3.73216,1.52943c-3.94843,-0.57486 -8.74636,-2.12117 -8.84151,-7.00325c0,0 0,-0.2193 0.13755,-0.38283c-0.22271,-0.39044 0.15134,-0.6897 0.15134,-0.6897l0.35228,-0.27746c1.72162,-1.63917 4.19053,-0.24457 6.18431,0.25159c1.86258,0.46588 4.31315,1.63172 5.48879,3.23426c0.662,0.90238 0.8125,1.78251 0.61596,2.5424c0.03221,0.06924 0.05205,0.15459 0.05205,0.25978zM242.14224,193.39752c-1.69096,-0.37577 -4.83408,-0.61283 -6.24775,-1.50879c-0.93214,-0.59078 -1.71652,-1.26796 -2.5828,-1.86213c0.1135,0.13862 0.22668,0.29163 0.33281,0.47136c1.74177,2.94955 3.29812,3.00705 6.60574,3.47172c0.78585,0.11833 1.63835,-0.09001 2.22033,-0.52505c-0.10944,-0.01569 -0.21889,-0.03139 -0.32835,-0.04711zM236.48373,190.9421c1.27233,0.83477 4.29183,1.01032 5.85845,1.35846c0.27176,0.03861 0.54351,0.07731 0.81524,0.11608c0.08406,-0.45072 -0.04448,-0.97537 -0.48613,-1.54416c-1.07945,-1.39021 -3.20154,-2.40313 -4.86518,-2.81883c-1.37867,-0.34639 -4.00629,-1.75336 -5.12542,-0.54488l-0.3745,0.30328c0.05991,0.13221 0.05991,0.25823 0.05991,0.25823c-0.00128,0.04367 -0.00163,0.08608 -0.00108,0.1273c1.55025,0.73894 2.68997,1.80713 4.11871,2.74451z" fill="#ff0000" stroke="none" stroke-width="0.5" stroke-linecap="butt"/><path d="M231.53995,186.99777l0.35228,-0.27746c1.72162,-1.63917 4.19053,-0.24457 6.18431,0.25159c1.86258,0.46588 4.31315,1.63172 5.48879,3.23426c0.07927,0.10805 0.1512,0.21577 0.21607,0.32302c-0.35795,0.10879 -0.73365,0.2254 -1.1125,0.34026c-1.08019,-1.38865 -3.20038,-2.40039 -4.86282,-2.81578c-1.37867,-0.34639 -4.00629,-1.75336 -5.12542,-0.54488l-0.3745,0.30328c0.05991,0.13221 0.05991,0.25823 0.05991,0.25823c-0.00064,0.022 -0.00105,0.04369 -0.00123,0.06506c-0.12229,-0.03815 -0.2449,-0.07476 -0.36781,-0.10985c-0.22521,-0.17528 -0.44994,-0.35039 -0.67443,-0.52369c-0.04303,-0.29575 0.21732,-0.50402 0.21732,-0.50402z" fill="#ab0d46" stroke="none" stroke-width="0.5" stroke-linecap="butt"/><path d="M248.37495,188.54814c0,0 -1.29481,-0.23135 -1.88091,-0.53662c-0.67549,-0.35183 -1.94209,-1.45454 -1.94209,-1.45454" fill="none" stroke="#000000" stroke-width="1" stroke-linecap="round"/></g><g><path d="M239.45457,206.07027l2.23009,4.93805c0,0 -4.89814,0.96441 -7.47833,1.20505c-2.54317,0.23719 -7.89335,0.22857 -7.89335,0.22857c0,0 -11.67459,5.12974 -17.8515,3.9866c-5.94968,-1.10108 -6.4953,-4.009 -5.86788,-5.63514c0.04884,-0.12657 1.10014,-1.13377 2.45825,-1.48041c2.20435,-0.56265 5.47735,-0.55675 8.52517,-0.95618c10.89804,-1.42823 25.87756,-2.28654 25.87756,-2.28654z" fill="#feecf7" stroke="#000000" stroke-width="0" stroke-linecap="round"/><path d="M239.45457,206.07027l2.23009,4.93805c0,0 -4.89814,0.96441 -7.47833,1.20505c-2.54317,0.23719 -7.89335,0.22857 -7.89335,0.22857c0,0 -8.81232,3.87207 -15.17535,4.13836c0.37635,-0.33171 0.70783,-0.71888 0.98226,-1.13323c0.88023,-1.34859 2.22403,-1.32448 3.47357,-2.26316c1.22049,-0.91685 1.56073,-1.80523 2.31829,-2.96096c0.59366,-0.90568 2.20453,-1.89236 3.81196,-2.77827c8.98703,-0.87341 17.73086,-1.37443 17.73086,-1.37443z" fill="#dc94e7" stroke="#000000" stroke-width="0" stroke-linecap="butt"/><path d="M239.45457,206.07027l2.23009,4.93805c0,0 -4.89814,0.96441 -7.47833,1.20505c-2.54317,0.23719 -7.89335,0.22857 -7.89335,0.22857c0,0 -11.67459,5.12974 -17.8515,3.9866c-5.94968,-1.10108 -6.4953,-4.009 -5.86788,-5.63514c0.0402,-0.10417 1.44794,-1.35468 2.42014,-1.62081c2.12647,-0.58208 5.18309,-0.37282 8.56328,-0.8158c10.89804,-1.42823 25.87756,-2.28654 25.87756,-2.28654z" fill="none" stroke="#000000" stroke-width="1" stroke-linecap="round"/><path d="M230.45458,199.61897c0,0 3.10882,1.76186 4.57126,2.85227c1.55805,1.16171 4.50839,3.91764 4.50839,3.91764c0,0 -3.76446,1.91266 -5.85377,2.24376c-2.63937,0.41825 -8.72145,0.06597 -8.72145,0.06597c0,0 -11.72116,6.07774 -18.55752,2.54867c-0.70667,-0.36481 -1.59429,-1.22776 -1.51385,-1.7523c0.25359,-1.65374 3.13737,-3.04922 6.22208,-4.52062c2.19777,-1.04833 4.92893,-2.48814 4.92893,-2.48814c0,0 -3.21863,-2.34208 -1.09939,-5.33439c0.41683,-0.58855 1.64161,-0.50843 3.19209,-0.67985c1.62164,-0.17929 3.56216,-0.59637 3.56216,-0.59637l6.45132,4.77876z" fill="#ff292e" stroke="#000000" stroke-width="0" stroke-linecap="round"/><path d="M235.02584,202.47123c1.55805,1.16171 4.50839,3.91764 4.50839,3.91764c0,0 -3.76446,1.91267 -5.85377,2.24376c-2.63937,0.41826 -8.72145,0.06597 -8.72145,0.06597c0,0 -8.31219,4.3101 -15.01955,3.56354c0.7367,-0.98845 1.46856,-2.13299 1.7916,-2.6706c0.76831,-0.47787 1.54469,-0.78361 2.30282,-1.13264c0.49412,-0.01148 0.95645,-0.15155 1.35483,-0.38801c1.23894,-0.28351 2.16322,-1.39252 2.16322,-2.71742c0,-1.02311 -0.55118,-1.91749 -1.37281,-2.4024c-0.08849,-0.15487 -0.18563,-0.28264 -0.2902,-0.38622c0.09689,-0.05079 0.14973,-0.07864 0.14973,-0.07864c0,0 -1.52792,-1.11182 -1.78515,-2.7821c3.28121,0.0617 7.36037,-0.22915 7.36037,-3.03206c0,-0.28233 -0.02403,-0.53649 -0.06918,-0.76524c0.09582,-0.01984 0.14882,-0.03122 0.14882,-0.03122l6.31571,4.67831c-0.25157,0.1195 -0.57155,0.23866 -0.96758,0.39217c-0.23176,0.05534 -0.47028,0.1105 -0.70976,0.1758c0,0 -0.80681,0.22004 -0.58677,1.02686c0.22004,0.80681 1.02686,0.58677 1.02686,0.58677c0.06088,-0.0166 0.12122,-0.03304 0.18101,-0.04934c0.21492,0.00835 0.38742,-0.06065 0.38742,-0.06065c0.12726,-0.05115 0.25032,-0.10171 0.36919,-0.15195c0.69645,-0.20645 1.30087,-0.43109 1.80102,-0.78311c0.12999,0.0851 0.3054,0.13683 0.54182,0.11533c0.83285,-0.07571 0.75714,-0.90856 0.75714,-0.90856c-0.02642,-0.2891 -0.05538,-0.56716 -0.09158,-0.83887c0.02861,-0.07776 0.05591,-0.15824 0.08188,-0.24153c0.85031,0.49051 3.06075,1.78559 4.22598,2.65441z" fill="#ac0e49" stroke="#000000" stroke-width="0" stroke-linecap="round"/><path d="M230.45458,199.61897c0,0 3.10882,1.76186 4.57126,2.85227c1.55805,1.16171 4.50839,3.91764 4.50839,3.91764c0,0 -3.76446,1.91266 -5.85377,2.24376c-2.63937,0.41825 -8.72145,0.06597 -8.72145,0.06597c0,0 -11.72116,6.07774 -18.55752,2.54867c-0.70667,-0.36481 -1.59429,-1.22776 -1.51385,-1.7523c0.25359,-1.65374 3.13737,-3.04922 6.22208,-4.52062c2.19777,-1.04833 4.92893,-2.48814 4.92893,-2.48814c0,0 -3.21863,-2.34208 -1.09939,-5.33439c0.41683,-0.58855 1.64161,-0.50843 3.19209,-0.67985c1.62164,-0.17929 3.56216,-0.59637 3.56216,-0.59637l6.45132,4.77876z" fill="none" stroke="#000000" stroke-width="1" stroke-linecap="round"/><path d="M226.95018,201.29152l0.95575,-0.55752" fill="none" stroke="#000000" stroke-width="1" stroke-linecap="round"/><path d="M230.85283,203.8402c0,0 1.01887,-0.41906 1.74361,-0.53275c0.60901,-0.09553 3.1148,-0.26372 3.1148,-0.26372" fill="none" stroke="#000000" stroke-width="0.5" stroke-linecap="round"/><path d="M215.55997,204.86656c-0.44827,-0.09541 -0.92133,-0.15147 -1.43284,-0.15027c0,0 -0.55752,0 -0.55752,-0.55752c0,-0.55752 0.55752,-0.55752 0.55752,-0.55752c1.9216,0.00398 4.45698,0.53054 5.98843,1.70371c0.3401,0.26053 1.41335,1.07701 0.9451,1.68232c-0.66859,0.8643 -3.2699,-0.97184 -3.9817,-1.44637c-0.34543,-0.09366 -0.69007,-0.19023 -1.0342,-0.28854l-0.47999,-0.38078c0,0 -0.00172,-0.00172 -0.00479,-0.00502z" fill="#fff1fd" stroke="none" stroke-width="0.5" stroke-linecap="butt"/><path d="M216.40683,203.16172c-0.35691,-0.4283 0.07139,-0.78523 0.07139,-0.78523c1.75902,-1.41781 6.99466,-0.93211 8.03108,1.30933c0.90197,1.95065 -0.90818,2.29874 -2.30106,1.62972c-1.77244,-0.49774 -3.43691,-1.08759 -5.17796,-1.63201l-0.075,-0.12278l-0.0365,0.03651l-0.2459,-0.2459c-0.08811,-0.02769 -0.1792,-0.08541 -0.26605,-0.18964z" fill="#fff1fd" stroke="none" stroke-width="0.5" stroke-linecap="butt"/><path d="M218.1255,201.12595c-0.00069,-0.00103 -0.00137,-0.00205 -0.00206,-0.00308c-0.30926,-0.46389 0.15463,-0.77314 0.15463,-0.77314c1.42629,-0.88531 6.77622,-1.17922 7.42071,0.93575c0.85711,2.81275 -2.46085,1.08094 -3.41666,0.52333c-1.02781,-0.24744 -1.9156,-0.27838 -2.97798,-0.27838h-0.63717c0,0 -0.45014,0.00001 -0.54148,-0.40448z" fill="#dc94e7" stroke="none" stroke-width="0.5" stroke-linecap="butt"/><path d="M220.11556,205.30494c0.3401,0.26053 1.41335,1.07701 0.9451,1.68232c-0.51816,0.66983 -2.19713,-0.28227 -3.25778,-0.96552c0.61631,-0.29985 1.16038,-0.68291 1.64656,-1.15405c0.23748,0.13433 0.46083,0.27998 0.66613,0.43724z" fill="#dc94e7" stroke="none" stroke-width="0.5" stroke-linecap="butt"/><path d="M224.50927,203.68584c0.90197,1.95065 -0.90818,2.29874 -2.30106,1.62972c-0.83847,-0.23545 -1.65277,-0.49153 -2.46244,-0.75366c0.66994,-0.73562 1.22469,-1.65798 1.70771,-2.78181c1.38816,0.30281 2.61016,0.94199 3.0558,1.90576z" fill="#dc94e7" stroke="none" stroke-width="0.5" stroke-linecap="butt"/><path d="M215.55997,204.86656c-0.44827,-0.09541 -0.92133,-0.15147 -1.43284,-0.15027c0,0 -0.55752,0 -0.55752,-0.55752c0,-0.55752 0.55752,-0.55752 0.55752,-0.55752c1.9216,0.00398 4.45698,0.53054 5.98843,1.70371c0.3401,0.26053 1.41335,1.07701 0.9451,1.68232c-0.66859,0.8643 -3.2699,-0.97184 -3.9817,-1.44637c-0.34543,-0.09366 -0.69007,-0.19023 -1.0342,-0.28854l-0.47999,-0.38078c0,0 -0.00172,-0.00172 -0.00479,-0.00502z" fill="none" stroke="#000000" stroke-width="1" stroke-linecap="butt"/><path d="M216.40683,203.16172c-0.35691,-0.4283 0.07139,-0.78523 0.07139,-0.78523c1.75902,-1.41781 6.99466,-0.93211 8.03108,1.30933c0.90197,1.95065 -0.90818,2.29874 -2.30106,1.62972c-1.77244,-0.49774 -3.43691,-1.08759 -5.17796,-1.63201l-0.075,-0.12278l-0.0365,0.03651l-0.2459,-0.2459c-0.08811,-0.02769 -0.1792,-0.08541 -0.26605,-0.18964z" fill="none" stroke="#000000" stroke-width="1" stroke-linecap="butt"/><path d="M218.1255,201.12595c-0.00069,-0.00103 -0.00137,-0.00205 -0.00206,-0.00308c-0.30926,-0.46389 0.15463,-0.77314 0.15463,-0.77314c1.42629,-0.88531 6.77622,-1.17922 7.42071,0.93575c0.85711,2.81275 -2.46085,1.08094 -3.41666,0.52333c-1.02781,-0.24744 -1.9156,-0.27838 -2.97798,-0.27838h-0.63717c0,0 -0.45014,0.00001 -0.54148,-0.40448z" fill="none" stroke="#000000" stroke-width="1" stroke-linecap="butt"/></g><g><path d="M246.65486,209.64195c7.94441,0 15.6222,-2.38989 23.5533,-2.40159c0.3789,-0.01777 0.63336,0.10883 0.80389,0.27848c0.18354,0.15611 0.33101,0.3997 0.34435,0.77983l0.08675,1.08596c-0.01103,4.69311 -2.81055,6.27771 -6.8464,7.92873c-3.46341,1.41684 -7.95033,3.22171 -11.08007,3.22171c-4.13009,0 -8.3331,0.47822 -12.24293,-1.10593c-2.50729,-1.01588 -5.8045,-3.67786 -4.59298,-6.89245c0.63231,-1.67774 1.61924,-1.61351 2.92673,-2.33261c0,0 0.71675,-0.38595 1.25518,0.11412c1.99852,-0.58822 3.69089,-0.67626 5.79218,-0.67626z" fill="#ffeef9" stroke="none" stroke-width="0.5" stroke-linecap="butt"/><path d="M270.20813,207.24035c0.3789,-0.01777 0.63336,0.10882 0.80389,0.27848c0.18354,0.15611 0.331,0.3997 0.34435,0.77983l0.08676,1.08598c-0.01103,4.6931 -2.81055,6.2777 -6.84642,7.92873c-3.46341,1.41684 -7.95033,3.22171 -11.08007,3.22171c-4.13009,0 -8.3331,0.47822 -12.24293,-1.10593c-2.22959,-0.90338 -5.0838,-3.10839 -4.83681,-5.84614c0.93192,0.79199 1.83944,1.52222 2.77161,2.18458c1.54318,1.29335 3.19176,2.19591 5.15314,2.73973c0.52442,0.18922 1.07098,0.36232 1.64427,0.51872c0,0 0.34247,0.0934 0.64202,-0.06463c0.94223,0.12144 1.95462,0.18022 3.05305,0.17883c5.80039,0.58745 14.9546,-2.20031 18.21022,-7.08373c0.4765,-1.56444 0.70156,-3.2451 0.32281,-4.7666c0.65648,-0.03113 1.31443,-0.04856 1.97411,-0.04954z" fill="#db93e6" stroke="none" stroke-width="0.5" stroke-linecap="butt"/><path d="M246.65486,209.64196c7.94441,0 15.62222,-2.3899 23.5533,-2.40159c0.3789,-0.01777 0.63336,0.10882 0.80389,0.27848c0.18354,0.15611 0.331,0.3997 0.34435,0.77983l0.08676,1.08598c-0.01103,4.6931 -2.81055,6.2777 -6.84642,7.92873c-3.46341,1.41684 -7.95033,3.22171 -11.08007,3.22171c-4.13009,0 -8.3331,0.47822 -12.24293,-1.10593c-2.50729,-1.01588 -5.8045,-3.67786 -4.59298,-6.89245c0.63231,-1.67774 1.61924,-1.6135 2.92673,-2.33259c0,0 0.71676,-0.38595 1.25518,0.11411c1.99852,-0.58822 3.69089,-0.67626 5.79218,-0.67626z" fill="none" stroke="#000000" stroke-width="1" stroke-linecap="butt"/><path d="M243.91013,201.83664c0,0 6.3901,-3.96572 9.19295,-4.65741c4.09319,-1.01012 5.9888,0.79764 5.9888,0.79764c0,0 4.39459,0.75358 6.26754,0.3767c3.67902,-0.74032 4.53982,-2.34947 4.53982,-2.34947c0,0 1.4028,1.64035 0.131,3.36975c-1.29216,1.75706 -3.81923,3.40628 -3.81923,3.40628c0,0 11.5832,10.8123 -9.82268,14.13838c-26.36163,4.09609 -14.45097,-7.79122 -14.45097,-7.79122c0,0 -0.78383,-0.86549 -1.01696,-1.41404c-0.25151,-0.59179 -0.44117,-2.01687 -0.44117,-2.01687c0,0 -3.60204,0.34806 -4.92069,-0.73335c-0.62871,-0.5156 0.25577,-2.68164 0.43922,-2.88802c0.57532,-0.64724 7.91238,-0.23839 7.91238,-0.23839z" fill="#ff292e" stroke="#000000" stroke-width="0" stroke-linecap="round"/><path d="M253.10308,197.17922c4.09319,-1.01012 5.9888,0.79764 5.9888,0.79764c0,0 3.18371,0.54594 5.28638,0.47606c-0.24955,0.05368 -0.58317,0.22204 -0.62979,0.73481c-0.07571,0.83285 0.75714,0.90856 0.75714,0.90856c2.19369,0.17554 4.23397,-0.94561 6.05395,-2.12998c-0.02462,0.43887 -0.17055,0.91966 -0.52933,1.40752c-1.29216,1.75706 -3.81923,3.40628 -3.81923,3.40628c0,0 0.60956,0.569 1.29061,1.48609c-0.56614,-0.47697 -1.10999,0.06688 -1.10999,0.06688c-0.07644,0.07814 -0.16098,0.15063 -0.25211,0.2185c-0.39683,0.06129 -0.75367,0.26594 -1.05122,0.55234c-1.31195,0.53898 -2.83302,0.91943 -2.51144,2.53921c0.20752,1.04529 3.34492,2.41526 4.27572,2.00803c1.26035,-0.55141 1.16696,-2.10439 1.05245,-3.18284c-0.04455,-0.41957 0.09405,-0.96988 -0.11479,-1.30523c0.04779,-0.13427 0.06969,-0.29734 0.01379,-0.47189c2.21809,3.25883 4.35987,9.77605 -11.41569,12.22727c-7.59402,1.17997 -12.01203,1.03356 -14.45365,0.22702c0.36146,-0.46116 0.73227,-0.91205 1.12577,-1.35466c1.32342,-1.32372 3.78504,-2.35589 4.67282,-3.94939c1.1202,-2.01067 -0.15893,-5.00594 -1.37513,-7.71178c3.6641,-0.94062 8.70312,-3.76042 5.69255,-6.609c0.38591,-0.14758 0.74125,-0.2647 1.05239,-0.34148z" fill="#ac0e49" stroke="#000000" stroke-width="0" stroke-linecap="butt"/><path d="M243.91013,201.83664c0,0 6.3901,-3.96572 9.19295,-4.65741c4.09319,-1.01012 5.9888,0.79764 5.9888,0.79764c0,0 4.39459,0.75358 6.26754,0.3767c3.67902,-0.74032 4.53982,-2.34947 4.53982,-2.34947c0,0 1.4028,1.64035 0.131,3.36975c-1.29216,1.75706 -3.81923,3.40628 -3.81923,3.40628c0,0 11.5832,10.8123 -9.82268,14.13838c-26.36163,4.09609 -14.45097,-7.79122 -14.45097,-7.79122c0,0 -0.78383,-0.86549 -1.01696,-1.41404c-0.25151,-0.59179 -0.44117,-2.01687 -0.44117,-2.01687c0,0 -3.60204,0.34806 -4.92069,-0.73335c-0.62871,-0.5156 0.25577,-2.68164 0.43922,-2.88802c0.57532,-0.64724 7.91238,-0.23839 7.91238,-0.23839z" fill="none" stroke="#000000" stroke-width="1" stroke-linecap="round"/><path d="M242.02314,209.1273h2.23009" fill="none" stroke="#000000" stroke-width="1" stroke-linecap="round"/><path d="M242.28044,205.43908l-1.54391,0.42887" fill="none" stroke="#000000" stroke-width="1" stroke-linecap="round"/><path d="M261.75081,202.43703l4.11709,0.17155" fill="none" stroke="#000000" stroke-width="1" stroke-linecap="round"/><path d="M239.68559,205.8293c-0.21867,1.09339 -1.31206,0.87471 -1.31206,0.87471l-0.29571,-0.0674c-0.37169,-0.02859 -0.74336,-0.05719 -1.11504,-0.08578c0,0 -1.11175,-0.08552 -1.02624,-1.19728c0.08552,-1.11177 1.19728,-1.02624 1.19728,-1.02624c0.37169,0.02859 0.74336,0.05718 1.11504,0.08577l0.56203,0.10415c0,0 1.09339,0.21867 0.87471,1.31206z" fill="#000000" stroke="none" stroke-width="0.5" stroke-linecap="butt"/><path d="M268.6984,200.97891c0,0.72492 -0.47128,0.97855 -0.80107,1.06729c-0.24821,0.15795 -0.49641,0.31589 -0.7446,0.47384c0,0 -0.94072,0.59863 -1.53936,-0.34208c-0.59864,-0.94072 0.34208,-1.53935 0.34208,-1.53935c0.3145,-0.20013 0.629,-0.40028 0.94349,-0.60042l0.68441,-0.17433c0,0 1.11504,0 1.11504,1.11504z" fill="#000000" stroke="none" stroke-width="0.5" stroke-linecap="butt"/><path d="M263.80938,208.35535c0,1.11504 -1.11504,1.11504 -1.11504,1.11504h-0.17155c-4.74653,-0.01286 -8.88976,1.35673 -13.22373,3.09384c0,0 -1.0353,0.41412 -1.44941,-0.62118c-0.14743,-0.36858 -0.11116,-0.65842 -0.00329,-0.87889c-0.15165,0.07212 -1.00656,0.42769 -1.48709,-0.46473c-0.45643,-0.84766 0.21308,-1.35752 0.40452,-1.481c-0.0905,-0.08843 -0.17494,-0.20303 -0.24853,-0.3502c-0.49866,-0.99733 0.49866,-1.49599 0.49866,-1.49599l0.17155,-0.08577c4.30326,-2.14435 9.01365,-4.42724 13.96471,-4.05998c0,0 1.11175,0.08552 1.02624,1.19728c-0.0412,0.53566 -0.32064,0.79338 -0.59918,0.91663c0.22858,-0.01922 0.45807,-0.03766 0.6885,-0.05537l0.25706,-0.00329c0,0 1.11504,0 1.11504,1.11504c0,0.5892 -0.31133,0.86706 -0.60498,0.9981c0.3281,0.09464 0.77653,0.35334 0.77653,1.06045z" fill="#fff1fd" stroke="none" stroke-width="0.5" stroke-linecap="butt"/><path d="M246.65486,206.81145c0,0 -1.8321,-1.56576 -2.23807,-2.43784c-0.36058,-0.77459 -0.07779,-2.53697 -0.07779,-2.53697" fill="none" stroke="#000000" stroke-width="1" stroke-linecap="round"/><path d="M261.15018,203.12649c0,0 0.47612,0.03663 0.78123,0.37353c-0.07751,0.31265 -0.15501,0.62528 -0.23252,0.93793c-0.0322,0.31818 -0.03257,0.5594 -0.03575,0.7599c-0.02847,0.01572 -0.05719,0.02986 -0.0859,0.04256c0.02842,-0.00239 0.05686,-0.00477 0.0853,-0.00714c-0.00836,0.44968 -0.04251,0.69602 -0.52239,1.17837c-0.6959,0.69947 -1.22637,2.04304 -2.18718,2.45377c-2.47385,1.05753 -4.75482,-2.27265 -6.30827,-4.18342c2.72779,-1.06156 5.57446,-1.77292 8.50549,-1.5555z" fill="#dc94e7" stroke="#000000" stroke-width="0" stroke-linecap="butt"/><path d="M247.4268,209.1273c0,0 4.35217,-2.00359 6.78064,-2.72934c2.54123,-0.75945 8.1438,-1.73084 8.1438,-1.73084" fill="none" stroke="#000000" stroke-width="1" stroke-linecap="round"/><path d="M247.7699,211.18586c0,0 4.02549,-1.66891 6.44128,-2.28309c2.62707,-0.6679 8.74047,-1.57668 8.74047,-1.57668" fill="none" stroke="#000000" stroke-width="1" stroke-linecap="round"/><path d="M263.80938,208.35535c0,1.11504 -1.11504,1.11504 -1.11504,1.11504h-0.17154c-4.74653,-0.01286 -8.88976,1.35673 -13.22373,3.09384c0,0 -1.03529,0.41412 -1.4494,-0.62118c-0.14743,-0.36858 -0.11116,-0.65842 -0.0033,-0.87889c-0.15165,0.07212 -1.00656,0.42769 -1.48708,-0.46473c-0.45642,-0.84765 0.21307,-1.35752 0.4045,-1.481c-0.0905,-0.08843 -0.17494,-0.20302 -0.24852,-0.35019c-0.49866,-0.99732 0.49866,-1.49599 0.49866,-1.49599l0.17155,-0.08577c4.30326,-2.14435 9.01365,-4.42725 13.96471,-4.05998c0,0 1.11175,0.08552 1.02624,1.19728c-0.04121,0.53567 -0.32064,0.79338 -0.59918,0.91663c0.22857,-0.01922 0.45807,-0.03764 0.6885,-0.05537l0.25707,-0.00329c0,0 1.11504,0 1.11504,1.11504c0,0.5892 -0.31133,0.86706 -0.60498,0.9981c0.3281,0.09463 0.77653,0.35334 0.77653,1.06045z" fill="none" stroke="#000000" stroke-width="1" stroke-linecap="butt"/></g><g stroke="#000000" stroke-linecap="round"><path d="M249.25103,194.60125c0,0 4.0674,1.30546 7.99658,0.40524c1.60456,-0.36762 2.43704,-3.67073 2.43704,-3.67073c0,0 3.25064,2.17515 3.06355,3.22291c-0.44874,2.513 -3.85374,9.96235 -5.29364,9.99831c-1.92823,0.04815 -6.69027,-6.53097 -6.69027,-6.53097z" fill="#0066cd" stroke-width="0"/><path d="M262.74821,194.5587c-0.44873,2.51301 -3.85374,9.96235 -5.29364,9.99831c-1.92823,0.04815 -6.69027,-6.53097 -6.69027,-6.53097c0,0 4.36514,2.54168 5.74144,3.06129c1.80158,0.68018 3.63679,-8.63749 3.8286,-9.28874c0.93822,0.69714 2.54703,2.01427 2.41386,2.76011z" fill="#061382" stroke-width="0"/><path d="M249.25103,194.60123c0,0 4.0674,1.30545 7.99658,0.40524c1.60456,-0.36762 2.43704,-3.67073 2.43704,-3.67073c0,0 3.25064,2.17516 3.06355,3.22291c-0.44873,2.51301 -3.85374,9.96235 -5.29364,9.99831c-1.92823,0.04815 -6.69027,-6.53097 -6.69027,-6.53097" fill="none" stroke-width="1"/></g></g><path d="M176.16669,243.83333v-127.66667h127.66667v127.66667z" fill="none" stroke="none" stroke-width="NaN" stroke-linecap="butt"/><g><g stroke="#000000" stroke-width="1" stroke-linecap="round"><path d="M250.69511,175.29089c0,0 -1.26783,-7.02694 3.46829,-7.86797c4.77491,-0.84792 7.06268,7.74408 7.06268,7.74408c0,0 5.27068,-1.00044 5.6077,-0.48004c1.16372,1.79692 2.81707,13.48888 2.81707,13.48888c0,0 -1.63138,1.23094 -2.4193,1.4498c-0.68408,0.19003 -2.04088,-0.21087 -2.04088,-0.21087c0,0 -2.1317,0.60777 -2.99125,0.65301c-0.65117,0.03428 -1.71671,-0.40522 -1.71671,-0.40522c0,0 -1.84812,0.88973 -2.60048,0.84547c-0.62988,-0.03705 -1.6119,-1.09326 -1.6119,-1.09326z" fill="#f89688"/><path d="M267.66855,181.11386c0,0 -1.27339,-0.08555 -2.36512,0.47383c-1.12435,0.5761 -2.06617,1.60676 -3.21697,1.84727c-0.98546,0.20597 -2.22331,-0.23356 -2.74925,-1.29338c-2.3226,-4.68025 4.61453,-4.12505 4.61453,-4.12505" fill="none"/><path d="M254.90748,185.94577c0,0 0.44465,-1.86685 1.92651,-2.3238c1.64301,-0.50664 2.90535,1.08485 2.90535,1.08485l0.86726,-1.23894" fill="none"/><path d="M260.11103,189.41478l-0.49557,-2.47787" fill="none"/><path d="M263.82783,186.06964l1.36283,2.84956" fill="none"/></g><g><path d="M257.63316,178.26434c1.37177,4.11001 -1.57947,9.30073 -4.44763,10.89962c-2.07144,1.15475 -4.1588,-0.74941 -4.26115,-0.65004c-0.88938,0.86358 -1.58618,2.0016 -3.00758,2.63217c-2.61685,1.16091 -6.50547,1.48992 -10.21283,1.48992c-8.27938,0 -14.99114,-3.49456 -14.99114,-7.80531c0,-1.87783 0.77806,-4.09636 2.9001,-5.44302c2.74931,-1.74473 7.41831,-2.36229 12.09106,-2.36229c3.2687,0 6.78863,-0.81815 9.2521,0.10641c0.44646,0.16756 6.71354,-5.34934 12.6771,1.13253z" fill="#dc94e7" stroke="#000000" stroke-width="0" stroke-linecap="butt"/><path d="M244.37654,177.64488l0.74336,-0.61946" fill="none" stroke="#000000" stroke-width="1" stroke-linecap="round"/><path d="M251.0668,184.45904c0,0 -0.42189,2.23171 -0.7391,3.02472c-0.23771,0.59425 -0.99542,1.31156 -0.99542,1.31156" fill="none" stroke="#000000" stroke-width="1" stroke-linecap="round"/><path d="M229.89808,189.16769c-0.68174,-2.19165 2.07131,-5.11692 5.99625,-6.07526c3.92494,-0.95834 7.28772,-0.08244 7.96944,2.10922c0.68173,2.19166 -2.44299,5.36471 -6.36794,6.32306c-3.92494,0.95835 -6.91603,-0.16535 -7.59776,-2.357z" fill="none" stroke="#ab0d47" stroke-width="1" stroke-linecap="butt"/><path d="M240.288,189.41479l-6.56637,-5.32744" fill="none" stroke="#ab0d47" stroke-width="1" stroke-linecap="round"/><path d="M257.63316,178.26434c1.37177,4.11001 -1.57947,9.30073 -4.44763,10.89962c-2.07144,1.15475 -4.1588,-0.74941 -4.26115,-0.65004c-0.88938,0.86358 -1.58618,2.0016 -3.00758,2.63217c-2.61685,1.16091 -6.50547,1.48992 -10.21283,1.48992c-8.27938,0 -14.99114,-3.49456 -14.99114,-7.80531c0,-1.87783 0.77806,-4.09636 2.9001,-5.44302c2.74931,-1.74473 7.41831,-2.36229 12.09106,-2.36229c3.2687,0 6.78863,-0.81815 9.2521,0.10641c0.44646,0.16756 6.71354,-5.34934 12.6771,1.13253z" fill="none" stroke="#000000" stroke-width="1" stroke-linecap="butt"/></g></g><g stroke="#000000" stroke-linecap="round"><g><path d="M261.31294,164.64531c0,0 5.1098,-2.5673 5.96463,-1.90243c0.58406,0.45427 1.77204,4.62902 0.0517,6.13399c-1.49936,1.31165 -5.90483,0.00561 -5.90483,0.00561z" fill="#0066cd" stroke-width="0"/><path d="M267.32928,168.87689c-1.49936,1.31165 -5.90483,0.00561 -5.90483,0.00561l-0.07275,-2.76451c0.46205,0.05834 0.93291,0.0884 1.4108,0.0884c1.92623,0 3.73839,-0.48842 5.31936,-1.34819c0.26409,1.41401 0.23413,3.15549 -0.7526,4.01869z" fill="#061483" stroke-width="0"/><path d="M261.31294,164.64531c0,0 5.1098,-2.5673 5.96463,-1.90243c0.58406,0.45427 1.77204,4.62902 0.05169,6.13399c-1.49936,1.31165 -5.90482,0.00562 -5.90482,0.00562z" fill="none" stroke-width="1"/></g><g><path d="M221.39436,177.57984c0,0 -12.90671,-23.18905 10.36991,-28.76814c23.15777,-5.55061 23.97345,16.83717 23.97345,16.83717c0,0 3.24548,-5.76551 4.27597,-5.09056c1.9863,1.301 2.93249,9.73866 1.88194,11.52154c-0.79117,1.34268 -6.15791,0.25927 -6.15791,0.25927c0,0 -1.44713,5.06563 -9.83433,7.96482c-11.70812,4.04711 -31.54537,5.98813 -32.14186,2.74298c-0.45226,-2.46043 7.63283,-5.46708 7.63283,-5.46708z" fill="#fde0be" stroke-width="0"/><path d="M221.39436,177.57983c0,0 -12.90671,-23.18905 10.36991,-28.76814c23.15777,-5.55061 23.97345,16.83717 23.97345,16.83717l0.3302,3.14096c0,0 6.15023,-1.63182 6.17432,-1.3602c0.18078,2.03789 0.0878,3.913 -0.34661,4.65024c-0.79117,1.34268 -6.15791,0.25927 -6.15791,0.25927c0,0 -1.44713,5.06563 -9.83433,7.96482c-0.23571,0.08148 -1.39646,-2.20992 -2.73715,-3.53481c-1.37477,-1.35857 -2.92729,-1.75256 -2.92729,-1.75256l-5.03901,4.85097l-6.27965,-4.04157l-7.52592,1.75388z" fill="#f89688" stroke-width="0"/><path d="M221.39436,177.57984c0,0 -12.90671,-23.18905 10.36991,-28.76814c23.15777,-5.55061 23.97345,16.83717 23.97345,16.83717c0,0 3.24548,-5.76551 4.27597,-5.09056c1.9863,1.301 2.93249,9.73866 1.88194,11.52154c-0.79117,1.34268 -6.15791,0.25927 -6.15791,0.25927c0,0 -1.44713,5.06563 -9.83433,7.96482c-11.70812,4.04711 -31.54537,5.98813 -32.14186,2.74298c-0.45226,-2.46043 7.63283,-5.46708 7.63283,-5.46708z" fill="none" stroke-width="1"/><path d="M257.96781,168.65945l2.23009,-4.46018v5.68673z" fill="#f89688" stroke-width="0.5"/></g><g><path d="M260.41664,160.5197c0.01919,1.73208 -8.72694,6.64648 -12.37045,7.37072c-6.62256,1.31641 -30.77751,0.76905 -30.77751,0.76905l-6.57876,-13.93805c0,0 6.73056,-10.25078 21.43312,-11.81561c15.3068,-1.62914 25.73325,1.89172 25.73325,1.89172c0,0 1.6546,4.99266 2.12721,7.93335c0.30888,1.92192 0.40574,5.31718 0.43313,7.78882z" fill="#ff292e" stroke-width="0"/><path d="M248.0462,167.89043c-0.50263,0.09991 -1.10626,0.18909 -1.79266,0.26858c-0.2292,0.02655 -3.74547,-11.91458 -2.5338,-14.76445c1.18698,-2.7918 7.8077,-7.10352 11.60279,-8.63198c1.50736,-0.60707 2.53377,0.03496 2.53377,0.03496c0,0 1.6546,4.99266 2.12721,7.93335c0.30883,1.9216 0.40572,5.31605 0.43312,7.78758c0.01921,1.7327 -8.72694,6.64772 -12.37043,7.37196z" fill="#ac0e49" stroke-width="0.5"/><path d="M260.41785,160.63117c0.01735,1.67518 -8.72815,6.535 -12.37165,7.25924c-6.62256,1.31641 -30.77751,0.76906 -30.77751,0.76906l-6.57876,-13.93805c0,0 6.73056,-10.25078 21.43312,-11.81561c15.3068,-1.62914 25.73325,1.89172 25.73325,1.89172c0,0 1.6546,4.99266 2.12721,7.93335c0.31355,1.95099 0.40862,5.42021 0.43432,7.90031z" fill="none" stroke-width="1"/></g><g><path d="M210.40563,180.35123c0.69529,-2.62665 3.85244,-7.56608 3.85244,-7.56608l-10.25841,4.90619c0,0 0.89353,-4.24054 1.86683,-6.43047c1.09398,-2.46144 4.37742,-7.61909 4.37742,-7.61909l12.4885,0.1115c0,0 -1.22655,-3.35528 -1.22655,-5.1292c0,-1.82966 1.22655,-5.68673 1.22655,-5.68673c0,0 5.70221,10.93315 15.97594,14.15594c9.05379,2.84011 17.14087,-1.89046 17.14087,-1.89046l2.23009,9.47788l-10.70442,-2.4531l-1.56106,4.01416l-4.79469,-8.13982l-6.13274,8.13982l-2.67611,-5.24071c0,0 -4.98244,2.44508 -6.90052,3.63152c-1.64518,1.01765 -3.91541,3.05874 -3.91541,3.05874c0,0 -8.05273,2.76715 -8.36283,4.90619c-0.10164,0.70106 1.22655,1.33805 1.22655,1.33805l-4.01416,4.01416c0,0 -0.47608,-5.18908 0.16171,-7.59852z" fill="#4fa6ec" stroke-width="0"/><path d="M210.40563,180.35123c0.69529,-2.62665 3.85244,-7.56608 3.85244,-7.56608l-10.25841,4.90619c0,0 0.89353,-4.24054 1.86683,-6.43047c1.09397,-2.46144 4.37742,-7.61909 4.37742,-7.61909l12.4885,0.1115c0,0 -1.22655,-3.35528 -1.22655,-5.1292c0,-1.82965 1.22655,-5.68673 1.22655,-5.68673l2.15632,4.04162c0,0 0.47852,3.05811 0.88318,4.06342c0.79098,1.96502 2.37252,5.34002 2.37252,5.34002c0,0 -6.92361,-0.49927 -9.36906,0.51872c-2.58451,1.07587 -5.74386,5.77249 -5.74386,5.77249l7.80531,-0.66903c0,0 -3.42186,2.76523 -6.02835,5.66893c-2.77086,3.0868 -4.73634,6.31555 -4.73336,6.03963c0.01331,-1.23264 0.09771,-2.48246 0.33051,-3.36195z" fill="#66ffff" stroke-width="0"/><path d="M210.40563,180.35123c0.69529,-2.62664 3.85244,-7.56608 3.85244,-7.56608l-10.25841,4.90619c0,0 0.89354,-4.24054 1.86684,-6.43047c1.09397,-2.46145 4.37741,-7.61909 4.37741,-7.61909l12.4885,0.1115c0,0 -1.22655,-3.35528 -1.22655,-5.1292c0,-1.82966 1.22655,-5.68673 1.22655,-5.68673c0,0 5.7022,10.93316 15.97593,14.15595c9.05379,2.8401 17.14088,-1.89047 17.14088,-1.89047l2.23009,9.47788l-10.70442,-2.4531l-1.56106,4.01416l-4.79469,-8.13982l-6.13274,8.13982l-2.67611,-5.24071c0,0 -4.98243,2.44508 -6.90051,3.63152c-1.64519,1.01763 -3.91542,3.05874 -3.91542,3.05874c0,0 -8.05273,2.76715 -8.36283,4.90619c-0.10164,0.70106 1.22655,1.33805 1.22655,1.33805l-4.01416,4.01416c0,0 -0.47608,-5.18907 0.16171,-7.59852z" fill="none" stroke-width="1"/></g></g><g><path d="M242.32956,192.42035c-0.13013,-4.46282 4.26955,-7.8136 8.73235,-7.94373c4.4628,-0.13013 6.89608,2.86206 7.0262,7.32488c0.13013,4.4628 -3.38222,8.18613 -7.84502,8.31625c-4.46282,0.13013 -7.78342,-3.23459 -7.91355,-7.6974z" fill="#465e85" stroke="#000000" stroke-width="0" stroke-linecap="butt"/><path d="M258.08813,191.8015c0.13013,4.4628 -3.38221,8.18612 -7.84502,8.31625c-4.46282,0.13013 -7.78341,-3.23459 -7.91354,-7.6974c-0.06687,-2.29328 1.06238,-4.29291 2.78167,-5.71279c0.90936,1.30733 2.22231,2.86733 3.51136,4.15288c0.26684,0.4495 0.55895,0.87081 0.87081,1.24995c0.0952,1.492 1.35704,2.6511 2.86313,2.60719c0.61528,-0.01794 1.17816,-0.23394 1.62933,-0.58512c1.28727,-0.66603 2.88978,-1.82951 4.05175,-3.14182c0.02561,0.2644 0.04247,0.53482 0.05051,0.81086z" fill="#313243" stroke="#000000" stroke-width="0" stroke-linecap="butt"/><path d="M222.95805,197.56679l-0.21124,-7.24471l19.42537,-0.56641l0.21124,7.24471z" fill="#313243" stroke="#000000" stroke-width="1" stroke-linecap="butt"/><path d="M248.70837,185.74045c-0.01346,-0.46166 0.34989,-0.84684 0.81155,-0.8603c0.46166,-0.01346 0.84684,0.34989 0.8603,0.81155c0.01346,0.46166 -0.34989,0.84684 -0.81155,0.8603c-0.46166,0.01346 -0.84684,-0.34989 -0.8603,-0.81155z" fill="#8bb5bc" stroke="none" stroke-width="0.5" stroke-linecap="butt"/><path d="M252.30252,186.03405c-0.01346,-0.46166 0.34989,-0.84684 0.81155,-0.8603c0.46166,-0.01346 0.84684,0.34989 0.8603,0.81155c0.01346,0.46166 -0.34989,0.84684 -0.81155,0.8603c-0.46166,0.01346 -0.84684,-0.34989 -0.8603,-0.81155z" fill="#8bb5bc" stroke="none" stroke-width="0.5" stroke-linecap="butt"/><path d="M251.0619,184.47663c4.46282,-0.13013 6.89608,2.86206 7.0262,7.32488c0.13013,4.4628 -3.38221,8.18612 -7.84502,8.31625c-4.4628,0.13013 -7.78341,-3.23459 -7.91354,-7.6974c-0.13013,-4.4628 4.26954,-7.8136 8.73235,-7.94373z" fill="none" stroke="#000000" stroke-width="1" stroke-linecap="butt"/><path d="M245.36362,189.90165c0,0 3.65129,-1.8499 6.39404,-2.02213c2.34358,-0.14717 6.02081,1.50078 6.02081,1.50078" fill="none" stroke="#000000" stroke-width="1" stroke-linecap="round"/><path d="M246.48911,192.97635l11.38454,-0.33195" fill="none" stroke="#000000" stroke-width="1" stroke-linecap="round"/><path d="M256.61776,196.02756c0,0 -3.22628,1.32368 -5.9211,1.30421c-2.34664,-0.01696 -4.9433,-2.2623 -4.9433,-2.2623" fill="none" stroke="#000000" stroke-width="1" stroke-linecap="round"/><path d="M246.36445,185.96814c0,0 2.99246,2.68613 3.04798,4.76171c0.14915,5.57488 -3.72081,7.68797 -3.72081,7.68797" fill="none" stroke="#000000" stroke-width="1" stroke-linecap="round"/><path d="M250.31952,184.97635c0,0 3.16916,2.9974 3.18749,5.54991c0.04521,6.29809 -3.6361,9.12427 -3.6361,9.12427" fill="none" stroke="#000000" stroke-width="1" stroke-linecap="round"/><path d="M253.4244,184.88581c0,0 2.6928,2.79258 2.95214,6.6095c0.32703,4.81318 -1.44991,6.65324 -1.44991,6.65324" fill="none" stroke="#000000" stroke-width="1" stroke-linecap="round"/><path d="M224.92466,193.96369c0.05961,2.04453 -0.81879,3.72899 -1.96197,3.76232c-1.14318,0.03333 -2.11824,-1.59707 -2.17785,-3.64161c-0.05961,-2.04453 0.81879,-3.72899 1.96197,-3.76232c1.14318,-0.03333 2.11824,1.59707 2.17785,3.64161z" fill="#465e85" stroke="#000000" stroke-width="1" stroke-linecap="butt"/><path d="M227.2571,197.44144c0,0 2.62677,-4.40507 0.90783,-5.81117c-1.773,-1.45034 -6.21168,-0.7322 -8.79034,-1.40444c-2.28851,-0.5966 -2.86826,-2.63386 -2.47586,-3.07067c9.48301,-10.55589 17.8138,0.90571 17.8138,0.90571c0,0 4.49475,-2.39848 9.849,0.06172c0.97099,0.44615 1.69482,3.0221 1.24107,5.35545c-0.35266,1.81353 -1.82462,3.55552 -1.82462,3.55552c0,0 0.15542,3.23285 -1.18422,3.50846c-1.16081,0.2388 -4.88092,-1.10057 -4.88092,-1.10057c0,0 -1.9549,0.41036 -2.75312,0.26648c-0.71438,-0.12877 -1.81262,-1.0895 -1.81262,-1.0895c0,0 -2.17976,1.33803 -4.4891,1.25421c-1.00751,-0.03657 -1.60089,-2.43118 -1.60089,-2.43118z" fill="#f89587" stroke="#000000" stroke-width="0" stroke-linecap="round"/><path d="M228.16494,191.63027c-1.75322,-1.43416 -6.113,-0.74795 -8.70337,-1.38246c1.78969,-1.17262 3.18272,-2.36374 4.79351,-2.6533c1.36361,-0.24513 4.76668,-0.87504 8.46873,-1.66475c1.26447,1.13468 1.98872,2.13109 1.98872,2.13109c0,0 4.49475,-2.39848 9.849,0.06172c0.97099,0.44615 1.69482,3.0221 1.24107,5.35545c-0.16713,0.85945 -0.58565,1.70283 -0.97975,2.35236c-0.49214,-0.17214 0.31654,-3.0162 0.31654,-3.0162c0,0 -1.05816,1.07185 -2.23085,1.75729c-0.80167,0.46857 -1.7454,0.63183 -2.09115,0.64191c-0.30332,0.00884 -1.22292,-0.92961 -1.48035,-1.6306c-0.26845,-0.73098 0.12647,-1.2369 -0.13329,-1.79396c-0.25693,-0.55097 -0.80092,-0.2382 -0.80092,-0.2382c0,0 -2.34905,4.82514 -3.2594,5.40725c-0.58572,-0.31735 -1.20266,-0.58366 -1.84468,-0.79312c-0.66443,-0.21677 -0.5816,-4.16984 -0.5816,-4.16984c0,0 -2.61981,3.61072 -3.20236,3.62771c-0.48324,0.01409 -0.95842,0.05872 -1.4237,0.132c0.58358,-1.39935 1.09394,-3.28995 0.07386,-4.12439z" fill="#fde0be" stroke="#000000" stroke-width="0" stroke-linecap="round"/><path d="M227.2571,197.44144c0,0 2.62677,-4.40507 0.90784,-5.81118c-1.77299,-1.45034 -6.21169,-0.73219 -8.79035,-1.40443c-2.28851,-0.5966 -2.86826,-2.63386 -2.47585,-3.07067c9.48301,-10.55589 17.8138,0.90571 17.8138,0.90571c0,0 4.49475,-2.39848 9.849,0.06172c0.97099,0.44615 1.69482,3.02209 1.24107,5.35544c-0.35266,1.81353 -1.82463,3.55553 -1.82463,3.55553c0,0 0.15542,3.23285 -1.18421,3.50846c-1.16081,0.23881 -4.88093,-1.10057 -4.88093,-1.10057c0,0 -1.9549,0.41036 -2.75312,0.26648c-0.71438,-0.12877 -1.81262,-1.0895 -1.81262,-1.0895c0,0 -2.17976,1.33804 -4.48911,1.2542c-1.00751,-0.03657 -1.60089,-2.43118 -1.60089,-2.43118z" fill="none" stroke="#000000" stroke-width="1" stroke-linecap="round"/><path d="M221.51548,189.0831l0.11676,1.27148" fill="none" stroke="#000000" stroke-width="1" stroke-linecap="round"/><path d="M231.77454,185.67645l-1.3302,0.83558" fill="none" stroke="#000000" stroke-width="1" stroke-linecap="round"/><path d="M233.34014,198.37958l0.21932,-6.14174l0.92749,-0.9832" fill="none" stroke="#000000" stroke-width="1" stroke-linecap="round"/><path d="M237.59439,199.45073l1.77769,-1.88447c0,0 1.85945,0.12157 2.71519,-0.03242c0.69656,-0.12535 2.04066,-0.82338 2.04066,-0.82338" fill="none" stroke="#000000" stroke-width="1" stroke-linecap="round"/><path d="M241.06087,195.36566c0,0 -1.84566,-1.24455 -1.98393,-2.32081c-0.09675,-0.75308 1.21472,-2.19851 1.21472,-2.19851" fill="none" stroke="#000000" stroke-width="1" stroke-linecap="round"/><path d="M239.66801,194.05173l-0.30056,3.35532" fill="none" stroke="#000000" stroke-width="1" stroke-linecap="round"/></g><g stroke="none" stroke-width="0.5" stroke-linecap="butt"><path d="M233.01964,177.04168c0.16522,0.06196 0.25853,0.15659 0.30892,0.25702c0.05407,0.09849 0.079,0.22904 0.03621,0.40022c-0.01892,0.07569 -0.04579,0.13815 -0.07802,0.18959c-1.78965,3.71347 -7.30858,-1.18008 -9.07111,-2.64695l-0.33465,-0.33141c0,0 -0.12366,-0.12365 -0.16321,-0.3017c-2.6472,-1.33481 -5.07566,-3.62607 -7.46903,-5.12064c0,0 -0.47278,-0.29548 -0.17729,-0.76827c0.29549,-0.47278 0.76825,-0.17729 0.76825,-0.17729c3.0092,1.88229 6.10209,5.11063 9.61359,5.88903c1.9331,0.81954 4.07379,2.25006 6.14238,2.50487l0.28877,0.06888c0.04239,0.00685 0.08742,0.01874 0.13518,0.03665z" fill="#000000"/><path d="M245.12653,168.56901v0.44602c-0.00688,1.35556 -0.33278,2.58719 -0.81893,3.84842c-2.45171,2.99722 -4.60286,7.29728 -9.17991,4.05741c-0.15994,-0.09467 -0.22913,-0.21777 -0.2528,-0.33541c-0.03741,-0.12609 -0.02953,-0.28358 0.0971,-0.46086c0.03269,-0.04577 0.0667,-0.08363 0.10144,-0.11469l0.14996,-0.19398c2.3474,-1.3123 4.24541,-3.75284 6.12662,-5.63406c1.07536,-1.07537 2.30819,-1.603 3.08907,-2.93736c2.56968,-2.19874 6.76689,-4.41533 8.41755,-7.42643c0,0 0.27661,-0.48407 0.76067,-0.20747c0.48406,0.27661 0.20747,0.76067 0.20747,0.76067c-1.80286,3.06414 -5.79777,5.39557 -8.53113,7.5895c-0.07011,0.12625 -0.14468,0.24549 -0.22312,0.35878c0.05602,0.12895 0.05602,0.24946 0.05602,0.24946z" fill="#000000"/><path d="M249.37832,175.05879c-0.39422,-0.39424 0,-0.78846 0,-0.78846l0.21879,-0.1986c0.22615,-0.36163 0.44174,-0.71897 0.64101,-1.08201c-2.41435,2.15348 -4.47833,4.95867 -7.15246,6.53014c-0.1262,0.08986 -0.25497,0.17861 -0.38613,0.26614c1.20801,-0.1744 2.40838,-0.41712 3.4878,-0.8219c2.11825,-0.51246 4.5126,-2.94284 5.02087,-5.42698c-0.20736,0.37764 -0.43082,0.74983 -0.66553,1.12556l-0.37589,0.3961c0,0 -0.39422,0.39424 -0.78846,0zM239.66282,180.12827l0.08711,0.00341c0.01882,-0.00207 0.03766,-0.00413 0.05651,-0.00619c0.97087,-0.44538 1.88097,-0.97349 2.67779,-1.54457c2.86346,-1.57826 5.09764,-4.8385 7.74029,-7.03177c-0.88576,0.2155 -1.75732,0.46996 -2.49622,1.03399c0,0 -0.44602,0.33451 -0.78053,-0.1115c-0.33451,-0.44602 0.1115,-0.78053 0.1115,-0.78053c1.1303,-0.83568 2.43338,-1.09691 3.76743,-1.43291l0.56952,-0.01446c0.17018,-0.03553 0.30108,0.01376 0.39645,0.08459c0.07699,0.04482 0.15073,0.1128 0.1973,0.21586c0.12136,0.0253 0.24821,0.10093 0.34804,0.27563c0.17483,0.30593 0.04579,0.529 -0.07283,0.65174c0.73323,3.59058 -2.4594,7.7124 -5.74636,8.55717c-1.97143,0.73929 -4.32554,0.95466 -6.43127,1.1873c-2.66159,1.17909 -5.72455,1.76729 -8.29093,1.12569c0,0 -0.54087,-0.13522 -0.40566,-0.6761c0.13522,-0.54087 0.6761,-0.40565 0.6761,-0.40565c2.19161,0.54791 4.78141,0.09361 7.10221,-0.85783c0.14646,-0.27387 0.49355,-0.27387 0.49355,-0.27387z" fill="#000000"/><path d="M250.11526,175.08011l0.37716,-0.39324c0.23469,-0.37573 0.55471,-0.80311 0.76208,-1.18075c-0.50827,2.48414 -2.96482,4.99899 -5.08309,5.51144c-1.07942,0.40478 -2.30745,0.62885 -3.51547,0.80326c0.13116,-0.08753 0.26016,-0.17599 0.38636,-0.26585c2.67413,-1.57148 4.8202,-4.45185 7.23455,-6.60532c-0.19927,0.36304 -0.41167,0.72372 -0.63783,1.08535l-0.21874,0.19868c0,0 -0.38733,0.4041 0.0069,0.79833c0.39422,0.39424 0.68805,0.04811 0.68805,0.04811z" data-paper-data="{&quot;noHover&quot;:false,&quot;origItem&quot;:[&quot;Path&quot;,{&quot;applyMatrix&quot;:true,&quot;segments&quot;:[[[834.14744,373.93499],[0.70711,0.70711],[-0.70711,-0.70711]],[834.14744,372.52077],[[834.53988,372.16455],[0,0],[0.40564,-0.64864]],[[835.68962,370.22381],[-0.35742,0.65116],[-4.33049,3.86259]],[[822.86059,381.93661],[4.79646,-2.81868],[-0.22637,0.16117]],[[822.168,382.41397],[0.23526,-0.157],[2.16675,-0.31282]],[[828.4239,380.93977],[-1.9361,0.72604],[3.79941,-0.91918]],[[837.42959,371.20568],[-0.91166,4.45568],[-0.37194,0.67737]],[[836.23588,373.22454],[0.42096,-0.67392],[0,0]],[835.56165,373.93499]],&quot;closed&quot;:true}]}" fill="#ffffff"/></g></g></g></svg>