<svg version="1.1" xmlns="http://www.w3.org/2000/svg" xmlns:xlink="http://www.w3.org/1999/xlink" width="552" height="717.77171" viewBox="0,0,552,717.77171"><g transform="translate(40.133,178.266)"><g data-paper-data="{&quot;isPaintingLayer&quot;:true}" fill-rule="nonzero" stroke-linecap="butt" stroke-linejoin="miter" stroke-miterlimit="10" stroke-dasharray="" stroke-dashoffset="0" style="mix-blend-mode: normal"><g data-paper-data="{&quot;index&quot;:null}"><path d="M58.71368,8.60672c10.23519,-36.21995 48.54774,-61.43636 81.2305,-84.12686c35.47636,-24.63001 65.46338,-45.27484 76.10213,-46.97836c15.09323,-2.41679 56.4314,50.31112 65.73319,57.86805c7.04948,5.72713 -73.17122,45.81219 -69.97415,46.17187c28.78916,3.23889 112.25649,2.92613 120.12124,8.48457c7.55908,5.34242 13.03162,22.48681 14.03068,40.5191c1.05407,19.0255 -3.06517,39.11036 -22.59418,50.16275c-8.93786,5.05836 -34.5186,4.02461 -116.46242,-6.89694c-13.33103,-1.77676 45.17469,26.60023 43.5799,40.7032c-0.55548,4.91233 -40.9768,60.19007 -47.49846,58.09569c-27.76971,-8.91797 -75.02264,-48.40621 -103.36128,-79.20789c-32.84112,-35.69546 -44.65597,-63.84674 -40.90718,-84.79519z" data-paper-data="{&quot;index&quot;:null}" fill="#7d9cad" stroke="#000000" stroke-width="14.5"/><path d="M58.71368,8.60672c10.23519,-36.21995 48.54774,-61.43636 81.2305,-84.12686c35.47636,-24.63001 65.46338,-45.27484 76.10213,-46.97836c15.09323,-2.41679 56.4314,50.31112 65.73319,57.86805c7.04948,5.72713 -73.17122,45.81219 -69.97415,46.17187c28.78916,3.23889 112.25649,2.92613 120.12124,8.48457c7.55908,5.34242 13.03162,22.48681 14.03068,40.5191c1.05407,19.0255 -3.06517,39.11036 -22.59418,50.16275c-8.93786,5.05836 -34.5186,4.02461 -116.46242,-6.89694c-13.33103,-1.77676 45.17469,26.60023 43.5799,40.7032c-0.55548,4.91233 -40.9768,60.19007 -47.49846,58.09569c-27.76971,-8.91797 -75.02264,-48.40621 -103.36128,-79.20789c-32.84112,-35.69546 -44.65597,-63.84674 -40.90718,-84.79519z" data-paper-data="{&quot;index&quot;:null}" fill="#7d9cad" stroke="none" stroke-width="0"/><path d="M255.19564,-14.69263c2.53939,2.67576 5.82614,4.64765 9.86388,5.48357c1.85447,0.6836 3.82035,1.1567 5.87233,1.38756c6.14219,0.69102 12.01454,-0.90555 16.76621,-4.11095c1.93383,-0.96833 3.83334,-2.02474 5.70936,-3.07804c5.35819,-3.00837 5.97385,0.06378 11.82078,-2.20639c0.06548,-0.02543 4.37633,-1.18478 4.51147,-0.51966c0.34215,1.6839 1.2452,2.34533 1.40842,2.27809l14.33335,93.62186c-0.49066,0.04538 -0.98388,0.10581 -1.47932,0.18166c-2.78687,0.4267 -5.53648,1.22237 -8.13416,2.31818c-2.4164,1.01934 -3.9411,4.41877 -6.42404,5.40946c-0.2201,0.08782 -0.48448,0.00345 -0.70647,-0.07948c-3.37299,-1.26006 -6.20463,-2.53127 -9.77029,-3.11181c-0.90805,-0.14785 -1.92193,-0.25707 -3.01019,-0.31995c-0.31937,-0.04836 -0.64097,-0.09082 -0.96473,-0.12724c-4.03431,-0.45388 -7.9522,0.07914 -11.51258,1.40672c-2.40843,0.67183 -4.69079,1.62259 -6.61079,2.91036z" data-paper-data="{&quot;index&quot;:null}" fill="#85a5b8" stroke="none" stroke-width="0"/><path d="M241.89309,-101.88045c4.84257,6.29208 11.17676,11.81798 17.00722,16.39052c2.31968,1.81921 9.79626,5.09753 11.15439,6.67164c4.33233,5.02132 8.75701,9.0666 14.04912,12.78282c-0.97066,0.16549 -1.92984,0.36136 -2.85163,0.64619c-4.71682,1.45748 -8.22098,4.46061 -12.4297,6.83953c-2.02959,1.14721 -4.15989,2.27244 -6.23651,3.50126c-2.26472,1.12984 -4.3439,2.59612 -6.16504,4.34103c-1.63801,1.44435 -3.09681,3.08427 -4.25911,5.01512c-1.02796,1.70768 -1.82705,3.59329 -2.39662,5.58197l-12.57486,-58.85806z" data-paper-data="{&quot;index&quot;:null}" fill="#87a9bc" stroke="none" stroke-width="0"/><path d="" data-paper-data="{&quot;index&quot;:null}" fill="#87a9bc" stroke="none" stroke-width="0"/><path d="M85.76662,-29.24584l20.07274,133.84461c-4.06772,-4.8203 -8.23485,-9.56508 -11.77583,-14.78067c-1.19067,-1.75378 -2.29256,-4.91999 -3.1633,-6.69626c-1.85672,-3.78768 -5.12533,-7.78904 -7.51077,-11.21951c-0.66461,-0.95578 -0.63637,-2.39838 -1.21929,-3.3236c-2.88795,-4.58376 -7.63429,-8.09977 -10.02223,-13.03574c-3.03823,-6.28013 -3.73859,-13.03774 -6.29395,-19.50491c-2.7457,-6.94885 -5.33734,-14.76932 -6.30343,-22.30109c-0.15053,-1.17353 0.50364,-2.35378 0.37333,-3.52972c-0.16383,-1.47842 -2.63974,-6.36674 -2.32883,-8.01542c0.40527,-2.14909 4.43111,-6.06667 5.92435,-7.54699c2.97496,-2.94922 3.01779,-5.11264 5.99911,-8.4752c3.60624,-4.06741 10.03821,-5.7055 12.97089,-10.66328c0.98281,-1.66149 2.14577,-3.19358 3.27723,-4.7522z" data-paper-data="{&quot;index&quot;:null}" fill="#94b8cd" stroke="none" stroke-width="0"/><path d="" data-paper-data="{&quot;index&quot;:null}" fill="#87a9bc" stroke="none" stroke-width="0"/><path d="M333.98395,-13.69656c0,0 12.84957,49.15283 8.70289,66.26933c-2.96363,12.23312 -31.24853,26.79352 -31.24853,26.79352l-110.52772,-10.42219c0,0 122.31892,10.91302 131.35902,-40.56857c7.76094,-44.19703 -116.67634,-36.27165 -116.67634,-36.27165z" data-paper-data="{&quot;index&quot;:null}" fill="#ffffff" stroke="none" stroke-width="0"/><path d="M195.67116,-107.77237l38.45729,256.43251l-44.2741,15.68341l-50.66461,-237.14146z" data-paper-data="{&quot;index&quot;:null}" fill="#83a4b7" stroke="none" stroke-width="0"/><path d="M201.93498,167.17443c0,0 -157.26526,-80.58726 -142.10911,-172.46884c2.96202,-17.95672 122.1555,-106.59589 147.62434,-113.04288c23.61487,-5.97769 71.7558,53.59577 71.7558,53.59577l-68.7856,43.5487l55.30172,-31.65038c0,0 -45.24919,-49.55107 -54.81968,-46.9846c-20.11789,5.39492 -126.20277,64.58447 -132.45389,110.39785c-9.36131,68.60726 102.83685,133.80044 121.8228,138.06917c1.94161,0.43654 34.73173,-39.59088 34.73173,-39.59088l-29.11241,-34.49347l42.06049,36.91488z" data-paper-data="{&quot;index&quot;:null}" fill="#ffffff" stroke="none" stroke-width="0"/><path d="M58.71368,8.60672c10.23519,-36.21995 48.54774,-61.43636 81.2305,-84.12686c35.47636,-24.63001 65.46338,-45.27484 76.10213,-46.97836c15.09323,-2.41679 56.4314,50.31112 65.73319,57.86805c7.04948,5.72713 -73.17122,45.81219 -69.97415,46.17187c28.78916,3.23889 112.25649,2.92613 120.12124,8.48457c7.55908,5.34242 13.03162,22.48681 14.03068,40.5191c1.05407,19.0255 -3.06517,39.11036 -22.59418,50.16275c-8.93786,5.05836 -34.5186,4.02461 -116.46242,-6.89694c-13.33103,-1.77676 45.17469,26.60023 43.5799,40.7032c-0.55548,4.91233 -40.9768,60.19007 -47.49846,58.09569c-27.76971,-8.91797 -75.02264,-48.40621 -103.36128,-79.20789c-32.84112,-35.69546 -44.65597,-63.84674 -40.90718,-84.79519z" data-paper-data="{&quot;index&quot;:null}" fill="none" stroke="#000000" stroke-width="14.5"/><path d="M-0.76601,185.43951l40.91831,-363.7055l363.7055,40.91831l-40.91831,363.7055z" fill="none" stroke="none" stroke-width="0"/></g><g><path d="M399.09585,343.72339c2.26399,21.16047 -11.50434,48.40966 -46.77808,81.70332c-30.43776,28.72916 -80.35465,64.7911 -108.68353,71.73098c-6.65299,1.62982 -43.08046,-56.35767 -43.28856,-61.29693c-0.59749,-14.18027 59.76164,-38.36597 46.33857,-37.53259c-82.50956,5.12276 -108.09958,4.35219 -116.65896,-1.32315c-18.70204,-12.40046 -21.39639,-32.72557 -19.00489,-51.62957c2.26667,-17.91714 8.93317,-34.6335 16.84977,-39.43023c8.23672,-4.99069 91.47473,1.20026 120.42051,-0.00284c3.21446,-0.13361 -73.98363,-45.76941 -66.54828,-50.98578c9.81096,-6.883 54.76032,-56.56833 69.64583,-53.09446c10.49234,2.44861 38.95078,25.15429 72.60423,52.22189c31.0034,24.93614 67.4447,52.78844 75.10334,89.63934z" data-paper-data="{&quot;index&quot;:null}" fill="#7d9cad" stroke="#000000" stroke-width="14.5"/><path d="M399.09585,343.72339c2.26399,21.16047 -11.50434,48.40966 -46.77808,81.70332c-30.43776,28.72916 -80.35465,64.7911 -108.68353,71.73098c-6.65299,1.62982 -43.08046,-56.35767 -43.28856,-61.29693c-0.59749,-14.18027 59.76164,-38.36597 46.33857,-37.53259c-82.50956,5.12276 -108.09958,4.35219 -116.65896,-1.32315c-18.70204,-12.40046 -21.39639,-32.72557 -19.00489,-51.62957c2.26667,-17.91714 8.93317,-34.6335 16.84977,-39.43023c8.23672,-4.99069 91.47473,1.20026 120.42051,-0.00284c3.21446,-0.13361 -73.98363,-45.76941 -66.54828,-50.98578c9.81096,-6.883 54.76032,-56.56833 69.64583,-53.09446c10.49234,2.44861 38.95078,25.15429 72.60423,52.22189c31.0034,24.93614 67.4447,52.78844 75.10334,89.63934z" data-paper-data="{&quot;index&quot;:null}" fill="#7d9cad" stroke="none" stroke-width="0"/><path d="M175.97839,406.30826c-1.82453,-1.41981 -4.03425,-2.52896 -6.38938,-3.36876c-3.45803,-1.57505 -7.32865,-2.3827 -11.38491,-2.21411c-0.32552,0.01353 -0.64932,0.03323 -0.9713,0.05898c-1.08999,-0.01393 -2.10904,0.02361 -3.02525,0.10714c-3.5977,0.32796 -6.51184,1.39657 -9.96521,2.41592c-0.22728,0.06709 -0.49695,0.13263 -0.71032,0.02952c-2.407,-1.16312 -3.68848,-4.6615 -6.02708,-5.8485c-2.51405,-1.27606 -5.20079,-2.26342 -7.95068,-2.88535c-0.48887,-0.11056 -0.97661,-0.20558 -1.46285,-0.28541l20.89195,-92.37978c0.15808,0.07857 1.10548,-0.51762 1.56538,-2.17323c0.18165,-0.65395 4.40013,0.80616 4.46366,0.83613c5.67251,2.67635 6.50302,-0.34481 11.63601,3.03349c1.79718,1.18282 3.61756,2.37039 5.47838,3.47253c4.5141,3.53212 10.25941,5.53834 16.43502,5.28166c2.06314,-0.08575 4.05746,-0.41921 5.95547,-0.9705c4.08659,-0.54944 7.50406,-2.28494 10.22562,-4.77519z" data-paper-data="{&quot;index&quot;:null}" fill="#85a5b8" stroke="none" stroke-width="0"/><path d="M228.63941,223.84452l-16.68926,57.82618c-0.42809,-2.02387 -1.09238,-3.96107 -1.99751,-5.73692c-1.02342,-2.00792 -2.36309,-3.74652 -3.8953,-5.30265c-1.69372,-1.86885 -3.66445,-3.47793 -5.84397,-4.76448c-1.98491,-1.37203 -4.03067,-2.64451 -5.97442,-3.93183c-4.03071,-2.66945 -7.31464,-5.91194 -11.9171,-7.69803c-0.89944,-0.34905 -1.84244,-0.61199 -2.79903,-0.84544c5.54071,-3.33424 10.23933,-7.05783 14.91458,-11.76153c1.46563,-1.47455 9.15455,-4.21811 11.5966,-5.86942c6.13804,-4.15052 12.84571,-9.21655 18.11944,-15.15192z" data-paper-data="{&quot;index&quot;:null}" fill="#87a9bc" stroke="none" stroke-width="0"/><path d="" data-paper-data="{&quot;index&quot;:null}" fill="#87a9bc" stroke="none" stroke-width="0"/><path d="M377.71055,309.0306c2.5762,5.15203 8.87681,7.23909 12.18761,11.55039c2.73707,3.5642 2.62742,5.72526 5.38726,8.87669c1.38527,1.58182 5.12518,5.77322 5.37807,7.94552c0.19401,1.66648 -2.62005,6.36827 -2.8876,7.83148c-0.21281,1.16384 0.3566,2.38724 0.12379,3.54725c-1.49419,7.44502 -4.63022,15.06353 -7.85854,21.80173c-3.00453,6.27112 -4.17912,12.96262 -7.65214,19.01316c-2.72968,4.75552 -7.71188,7.92849 -10.91551,12.29746c-0.64664,0.88186 -0.72008,2.32287 -1.45036,3.22947c-2.62114,3.25394 -6.16346,7.01513 -8.28236,10.66263c-0.99368,1.71053 -2.31585,4.79127 -3.62709,6.45683c-3.89955,4.95323 -8.39053,9.39272 -12.78766,13.91454l29.45015,-132.09839c1.01886,1.63445 2.07102,3.24464 2.93437,4.97123z" data-paper-data="{&quot;index&quot;:null}" fill="#94b8cd" stroke="none" stroke-width="0"/><path d="" data-paper-data="{&quot;index&quot;:null}" fill="#87a9bc" stroke="none" stroke-width="0"/><path d="M243.76823,316.21181c0,0 -123.57001,-16.67036 -118.94133,27.96354c5.39157,51.99046 128.17535,49.72 128.17535,49.72l-110.9873,2.61136c0,0 -27.1891,-16.51646 -29.28374,-28.92794c-2.9308,-17.36606 13.34891,-65.49176 13.34891,-65.49176z" data-paper-data="{&quot;index&quot;:null}" fill="#ffffff" stroke="none" stroke-width="0"/><path d="M324.55332,256.85263l-67.24169,232.98397l-43.05949,-18.76287l56.42344,-253.08692z" data-paper-data="{&quot;index&quot;:null}" fill="#83a4b7" stroke="none" stroke-width="0"/><path d="M203.08321,433.00213l44.5561,-33.8607l-31.46963,32.35729c0,0 29.88938,42.23755 31.85692,41.93886c19.23947,-2.92086 135.75081,-60.04953 131.24506,-129.14575c-3.00876,-46.13989 -104.66119,-112.65446 -124.34913,-119.45297c-9.36595,-3.23419 -57.99286,43.00672 -57.99286,43.00672l52.9351,35.46692l-65.54744,-48.28542c0,0 52.21738,-56.03473 75.35257,-48.40859c24.9515,8.22485 137.60571,105.0392 139.2956,123.15995c8.64688,92.7209 -153.90391,162.03113 -153.90391,162.03113z" data-paper-data="{&quot;index&quot;:null}" fill="#ffffff" stroke="none" stroke-width="0"/><path d="M399.09585,343.72339c2.26399,21.16047 -11.50434,48.40966 -46.77808,81.70332c-30.43776,28.72916 -80.35465,64.7911 -108.68353,71.73098c-6.65299,1.62982 -43.08046,-56.35767 -43.28856,-61.29693c-0.59749,-14.18027 59.76164,-38.36597 46.33857,-37.53259c-82.50956,5.12276 -108.09958,4.35219 -116.65896,-1.32315c-18.70204,-12.40046 -21.39639,-32.72557 -19.00489,-51.62957c2.26667,-17.91714 8.93317,-34.6335 16.84977,-39.43023c8.23672,-4.99069 91.47473,1.20026 120.42051,-0.00284c3.21446,-0.13361 -73.98363,-45.76941 -66.54828,-50.98578c9.81096,-6.883 54.76032,-56.56833 69.64583,-53.09446c10.49234,2.44861 38.95078,25.15429 72.60423,52.22189c31.0034,24.93614 67.4447,52.78844 75.10334,89.63934z" data-paper-data="{&quot;index&quot;:null}" fill="none" stroke="#000000" stroke-width="14.5"/><path d="M80.28841,539.50572l-15.19932,-365.68426l365.68426,-15.19932l15.19932,365.68426z" fill="none" stroke="none" stroke-width="0"/></g><path d="M-40.133,447.50001v-552h552v552z" fill-opacity="0.00784" fill="#ffffff" stroke="none" stroke-width="0"/></g></g></svg>