<svg version="1.1" xmlns="http://www.w3.org/2000/svg" xmlns:xlink="http://www.w3.org/1999/xlink" width="108.54909" height="179.22178" viewBox="0,0,108.54909,179.22178"><g transform="translate(-192.16351,-93.80153)"><g data-paper-data="{&quot;isPaintingLayer&quot;:true}" fill-rule="nonzero" stroke-linejoin="miter" stroke-miterlimit="10" stroke-dasharray="" stroke-dashoffset="0" style="mix-blend-mode: normal"><g><g><g><g data-paper-data="{&quot;origRot&quot;:0}" stroke="#000000" stroke-width="3" stroke-linecap="round"><path d="M288.3437,220.18695c-0.013,2.42566 -8.89574,0.85485 -8.89574,0.85485c0,0 -23.61433,-3.51284 -34.77451,-5.1257c-4.58731,-1.35404 -5.48976,-39.92824 -1.4268,-44.07214c1.81114,-1.84721 11.78686,-3.91279 13.29027,-2.51891c2.86161,2.65313 7.83143,18.66054 7.83143,18.66054l-4.28845,0.16238l11.26521,0.62816c0,0 13.16928,-0.39373 18.722,0.94922c3.07959,0.74482 -1.72338,30.46154 -1.72338,30.46154z" data-paper-data="{&quot;origPos&quot;:null}" fill="#582700"/><path d="M279.68178,189.58156l-1.48864,29.69773" fill="none"/><path d="M275.26268,189.59708l-1.19499,29.71554" data-paper-data="{&quot;origPos&quot;:null}" fill="none"/></g><path d="M277.9796,219.88398l-2.88403,-0.15755l1.32498,-30.38918l2.88403,0.15755z" fill="#ffffff" stroke="none" stroke-width="0" stroke-linecap="butt"/><path d="M244.36939,216.05373l-2.98207,-10.6465l-0.09426,-23.7661l1.93375,-8.16875l3.80086,-3.46428l7.7041,0.00328l1.54083,0.00065l7.18233,16.83734l-3.078,0.24624l0.02927,1.98054l13.62154,0.7485l-0.32793,29.95503l-27.79328,-3.9729z" fill="#66c8ff" stroke="#000000" stroke-width="0.5" stroke-linecap="round"/></g><g fill="#fffc96" stroke="#000000" stroke-width="2" stroke-linecap="round"><path d="M267.86618,187.80455c0,0 4.07261,-2.94121 6.26055,-0.28323c3.50057,4.25266 -28.48706,24.3678 -32.39223,20.15855c-1.59554,-1.7198 0.97233,-4.31484 0.97233,-4.31484l1.65849,1.41108c0,0 6.82596,-2.40669 14.39119,-6.92648c7.46039,-4.45717 11.4878,-8.72529 11.4878,-8.72529z"/><path d="M259.64087,182.12653c0,0 0.78027,-4.39137 3.20433,-3.24918c5.08847,2.39759 -4.97794,42.15635 -9.20312,38.81638c-2.55887,-2.02273 -0.60083,-5.55234 -0.60083,-5.55234l1.2488,1.00114c0,0 2.58674,-5.62807 4.70997,-14.66242c2.12324,-9.03434 1.92425,-15.55494 1.92425,-15.55494z" data-paper-data="{&quot;index&quot;:null}"/></g></g><g><g data-paper-data="{&quot;index&quot;:null}"><path d="M288.09706,186.62008c2.46964,0.46571 7.80818,-2.67841 7.39311,-0.47366c-0.21143,1.123 -4.48754,21.55799 -5.41108,22.43261c-0.88955,0.84243 -2.00683,1.26871 -3.21852,1.04022c-0.82437,-0.15548 -2.02043,-0.7776 -2.6924,-1.51766c-1.34115,-1.47703 -2.56448,-22.81307 -2.28797,-24.28186c0.41508,-2.20472 3.7472,2.33463 6.21683,2.80037z" fill="#0091d4" stroke="#000000" stroke-width="1.5" stroke-linecap="butt"/><g stroke-linecap="butt"><path d="M289.49268,179.33119c4.4744,0.84377 7.66817,3.82999 7.13351,6.66992c-0.53466,2.83993 -4.59529,4.45817 -9.0697,3.6144c-4.47439,-0.84377 -7.66818,-3.83 -7.13352,-6.66993c0.53466,-2.83993 4.59529,-4.45816 9.0697,-3.61438z" fill="#0091d4" stroke="#000000" stroke-width="1.5"/><path d="M284.39708,187.54348c0,0 -1.60934,-0.69329 -2.61011,-2.14731c-0.46678,-0.70017 -0.84588,-2.64401 -0.84588,-2.64401l3.34916,2.25213z" fill="#00aeff" stroke="none" stroke-width="0"/><path d="M287.82712,188.81767l-1.94623,-0.41964c0,0 -0.14043,-0.77804 -0.09077,-1.19345c0.04242,-0.35479 0.34325,-1.33009 0.34325,-1.33009l1.57196,0.60511z" fill="#00aeff" stroke="none" stroke-width="0"/></g><g><path d="M288.42,185.64682c-6.17254,-1.16401 -11.6696,-6.44673 -10.55256,-12.38014c1.11706,-5.93343 6.27932,-9.31097 12.45182,-8.147c6.17254,1.16401 10.58711,6.97725 9.47006,12.91064c-1.11706,5.93343 -5.19681,8.78045 -11.3693,7.61646z" fill="#00699a" stroke="#000000" stroke-width="1.5" stroke-linecap="butt"/><path d="M288.07007,165.55357c0,0 1.23918,1.68658 2.7635,4.18408c1.52063,2.49146 2.50018,5.97333 2.01211,8.5658c-0.97734,5.1913 -2.93365,6.81027 -7.4184,5.96458c-2.18183,-0.41144 -3.99551,-1.92696 -5.0214,-3.76802c-1.43997,-2.58411 -2.35648,-5.91643 -1.80223,-8.86024c0.97734,-5.1913 9.4664,-6.08619 9.4664,-6.08619z" fill="#0091d4" stroke="none" stroke-width="0" stroke-linecap="butt"/><path d="M298.68031,178.23511c0,0 -3.95535,3.002 -11.10691,1.398c-7.09345,-1.59095 -9.37392,-6.23646 -9.37392,-6.23646" fill="none" stroke="#000000" stroke-width="0.8" stroke-linecap="round"/><path d="M296.03257,183.53254c0,0 -2.93456,1.56791 -9.27587,-0.60728c-4.40023,-1.50936 -8.15744,-4.57177 -8.15744,-4.57177" fill="none" stroke="#000000" stroke-width="0.75" stroke-linecap="round"/><path d="M298.85609,175.27837c0,0 -2.46234,1.65744 -9.20777,-0.24386c-7.0132,-1.97675 -9.60273,-6.04918 -9.60273,-6.04918" fill="none" stroke="#000000" stroke-width="0.8" stroke-linecap="round"/><path d="M282.8795,166.40787c0,0 4.72586,0.84251 9.06801,2.8554c3.29662,1.52819 7.10242,4.64828 7.10242,4.64828" fill="none" stroke="#000000" stroke-width="0.8" stroke-linecap="round"/><path d="M294.31939,167.34479c0,0 2.51578,3.15832 1.17214,8.94663c-1.43987,6.20281 -4.55568,9.02584 -4.55568,9.02584" fill="none" stroke="#000000" stroke-width="0.8" stroke-linecap="round"/><path d="M287.47553,185.15284c0,0 0.37879,-3.21657 0.8471,-5.09041c0.39429,-1.57768 1.72741,-4.47013 2.52439,-7.26268c0.90627,-3.17548 1.25969,-6.17734 1.25969,-6.17734" fill="none" stroke="#000000" stroke-width="0.8" stroke-linecap="round"/><path d="M284.67789,184.50324c0,0 -1.63001,-4.53977 -0.23939,-10.89652c0.88601,-4.0501 4.94824,-8.04638 4.94824,-8.04638" fill="none" stroke="#000000" stroke-width="0.8" stroke-linecap="round"/><path d="M280.05589,181.06888c0,0 -0.9669,-3.40563 1.12755,-9.02348c1.45445,-3.90118 4.55914,-6.68409 4.55914,-6.68409" fill="none" stroke="#000000" stroke-width="0.8" stroke-linecap="round"/><path d="M279.97604,172.38926c-0.4401,-0.083 -0.72242,-0.546 -0.63049,-1.03416c0.09188,-0.48815 0.52318,-0.8166 0.96332,-0.73362c0.4401,0.083 0.72242,0.546 0.6305,1.03416c-0.09188,0.48815 -0.52321,0.8166 -0.96333,0.73363z" fill="#00aeff" stroke="none" stroke-width="0" stroke-linecap="butt"/><path d="M281.48616,169.25702c-0.25389,-0.04789 -0.42251,-0.28456 -0.37654,-0.52863c0.04594,-0.24406 0.28903,-0.40313 0.54294,-0.35523c0.25389,0.04789 0.4225,0.28459 0.37656,0.52865c-0.04594,0.24406 -0.28905,0.40313 -0.54297,0.35525z" fill="#00aeff" stroke="none" stroke-width="0" stroke-linecap="butt"/></g></g><path d="M284.46559,188.2394c-1.42416,10.58561 -2.44752,12.27913 -2.44752,12.27913c-0.25303,1.3157 -1.55705,0.93481 -1.55705,0.93481c0,0 -2.61806,-0.44226 -4.29376,-0.72531c-1.10033,-0.18586 -2.81943,-0.47626 -2.81943,-0.47626c0,0 -1.05147,-0.35365 -0.89729,-1.06885c0.92752,-4.30286 1.57502,-8.46523 2.25518,-10.58054c0.22671,-0.7051 1.43584,-1.31119 1.43584,-1.31119l5.38437,0.31655c0,0 2.21332,0.00665 2.93968,0.63169z" fill="#582700" stroke="#000000" stroke-width="3" stroke-linecap="round"/><path d="M297.14619,191.73578c-3.457,21.8039 -5.45282,25.34507 -5.45282,25.34507c-0.56752,2.71511 -2.90109,2.02065 -2.90109,2.02065c0,0 -4.71156,-0.73284 -7.72717,-1.20188c-1.98016,-0.308 -5.07397,-0.78919 -5.07397,-0.78919c0,0 -1.87771,-0.6553 -1.53906,-2.13234c2.03745,-8.88604 3.55552,-17.46542 4.96374,-21.84883c0.4694,-1.46114 2.71232,-2.7845 2.71232,-2.7845l9.73884,0.29114c0,0 4.01352,-0.1336 5.27918,1.09992z" fill="#582700" stroke="#000000" stroke-width="3" stroke-linecap="round"/></g></g><g stroke="#000000" stroke-linecap="round"><path d="M232.75373,176.79996c0,0 -28.80078,6.85385 -29.52059,-10.91204c-0.26521,-6.54553 16.48094,-5.54738 16.48094,-5.54738z" data-paper-data="{&quot;origPos&quot;:null}" fill="#66c8ff" stroke-width="2"/><path d="M224.04969,165.53723c0,0 -16.43621,-1.30845 -16.24455,-1.92235c0.60775,-1.94647 12.74023,-1.81091 12.74023,-1.81091z" data-paper-data="{&quot;origPos&quot;:null}" fill="#0a0a0a" stroke-width="1"/></g><g data-paper-data="{&quot;origRot&quot;:0}" stroke="#000000" stroke-linecap="round"><path d="M240.60228,227.45946c0,0 -0.45118,-4.72712 1.13338,-4.821c4.67579,-0.27699 9.07798,-2.21628 13.55552,-0.89222c1.85931,0.54981 2.89776,4.67136 2.89776,4.67136l6.93217,32.05196c0,0 0.76068,3.30062 1.1282,5.21185c0.39294,2.04342 -0.44287,5.21587 -2.58976,5.46044c-7.88266,0.89807 -12.62103,2.85348 -17.6795,2.20672c-1.84288,-0.23562 -3.78259,-0.60198 -4.643,-2.18608c-1.12395,-2.06925 -0.76644,-6.48747 -0.76644,-6.48747z" data-paper-data="{&quot;origPos&quot;:null}" fill="#ff0000" stroke-width="3"/><path d="M266.56601,266.98244c0,0 -5.84924,3.09739 -11.06239,3.53647c-3.99971,0.33688 -12.75477,0.05796 -12.75477,0.05796c0,0 -1.62047,-2.45173 -1.85542,-4.02028c-0.24751,-1.65238 0.61914,-4.23295 0.61914,-4.23295l23.81649,-2.79748z" data-paper-data="{&quot;origPos&quot;:null}" fill="#976e57" stroke-width="2"/><path d="M240.71448,227.76847c0,0 -0.45118,-4.72712 1.13338,-4.82099c4.67577,-0.27699 9.07798,-2.21628 13.55553,-0.8922c1.85931,0.54981 2.89774,4.67135 2.89774,4.67135l6.93217,32.05196c0,0 0.7607,3.30063 1.12822,5.21185c0.39294,2.04342 -0.44288,5.21586 -2.58976,5.46044c-7.88266,0.89807 -12.62103,2.85349 -17.6795,2.20673c-1.84288,-0.23562 -3.78258,-0.602 -4.64299,-2.18608c-1.12395,-2.06925 -0.76645,-6.48747 -0.76645,-6.48747z" data-paper-data="{&quot;origPos&quot;:null}" fill="#4b4b4b" stroke-width="3"/></g><path d="M234.7074,263.38879c0,0 -0.0846,4.43082 -1.40964,6.38703c-1.01437,1.49756 -2.98167,1.68358 -4.83956,1.7484c-5.09967,0.1779 -9.62129,-2.20496 -17.37816,-3.8249c-2.11262,-0.4412 -2.62833,-3.67602 -2.03351,-5.67384c0.55635,-1.86857 1.64256,-5.08394 1.64256,-5.08394l10.09543,-31.26602c0,0 1.44451,-4.00693 3.35007,-4.38296c4.58892,-0.90558 8.77756,1.43022 13.40419,2.13661c1.56789,0.23938 0.64757,4.90319 0.64757,4.90319c0,0 -0.87968,8.8643 -1.44273,14.53792c-0.79467,8.00762 -2.03625,20.51854 -2.03625,20.51854z" fill="#4b4b4b" stroke="#000000" stroke-width="3" stroke-linecap="round"/><g><path d="M222.58899,180.68219c0,0 2.54589,-14.17128 4.78469,-14.63696c6.71644,-1.39703 21.89205,0.04187 32.05877,0.38895c1.57167,0.05365 2.41192,13.47373 2.41192,13.47373l0.66055,30.32937c0,0 -0.32129,14.79004 -2.03581,14.73149c-15.26251,-0.52102 -33.18375,-0.28917 -39.95447,-1.35242c-2.25689,-0.3544 -0.80374,-15.89721 -0.80374,-15.89721z" data-paper-data="{&quot;origPos&quot;:null}" fill="#66c8ff" stroke="#000000" stroke-width="3.5" stroke-linecap="round"/><path d="M241.64808,189.44559c-1.32783,-0.04533 -1.23279,-2.50348 -1.23279,-2.50348c0.19708,-5.09839 0.45751,-11.83553 0.65459,-16.93394c0,0 0.09502,-2.45817 1.42284,-2.41283c1.32783,0.04533 1.23279,2.50349 1.23279,2.50349c-0.19708,5.09839 -0.39415,10.19677 -0.59124,15.29517l-0.06336,1.63877c0,0 -0.09501,2.45815 -1.42284,2.41283z" fill="#ffffff" stroke="none" stroke-width="0.5" stroke-linecap="butt"/><path d="M253.74285,189.44622c-1.32783,-0.04533 -1.20845,-3.13346 -1.20845,-3.13346c0.2476,-6.40502 0.57476,-14.86878 0.82235,-21.27379c0,0 0.11936,-3.08814 1.44718,-3.0428c1.32783,0.04533 1.20845,3.13347 1.20845,3.13347c-0.2476,6.40502 -0.49518,12.81003 -0.74277,19.21505l-0.07958,2.05876c0,0 -0.11936,3.08814 -1.44718,3.0428z" fill="#ffffff" stroke="none" stroke-width="0.5" stroke-linecap="butt"/></g><g fill="none" stroke="#b9b9b9" stroke-width="3"><path d="M255.9231,172.54596c-0.90124,-1.31243 -0.00756,-2.55021 1.2044,-3.79754c1.21195,-1.2473 2.45995,-1.65871 3.18451,-0.71941c1.53621,1.99162 0.04139,3.00881 -0.90761,3.98549c-1.21198,1.24732 -2.20851,2.38497 -3.48128,0.53145z" stroke-linecap="butt"/><path d="M254.34409,174.50923l2.56891,-2.5822" stroke-linecap="round"/><path d="M250.72155,175.25787c1.21196,-1.2473 2.45995,-1.65871 3.1845,-0.71941c1.53621,1.99162 0.0414,3.00881 -0.9076,3.98549c-1.21196,1.24731 -2.2085,2.38497 -3.48128,0.53145c-0.90124,-1.31243 -0.00757,-2.55021 1.20439,-3.79755z" stroke-linecap="butt"/><path d="M250.50705,178.43649l-2.56891,2.58221" stroke-linecap="round"/><path d="M242.14137,180.77273c0.3511,-1.63004 1.73241,-1.52508 3.31191,-1.12601c1.57949,0.39907 2.61135,1.32963 2.40796,2.57117c-0.43125,2.63237 -2.02438,1.8299 -3.26116,1.51742c-1.57949,-0.39906 -2.95453,-0.6605 -2.45869,-2.96255z" stroke-linecap="butt"/><path d="M243.15911,181.33669l-3.30594,-0.88258" stroke-linecap="round"/><path d="M234.57704,176.70614c0.86907,-1.33305 2.10609,-0.59724 3.42716,0.50014c1.32109,1.09738 1.95987,2.42891 1.35692,3.47387c-1.27843,2.21558 -2.47701,0.74174 -3.51148,-0.11754c-1.32109,-1.09739 -2.49994,-1.97385 -1.27261,-3.85644z" stroke-linecap="butt"/><path d="M235.32558,177.69473l-2.74925,-2.34028" stroke-linecap="round"/><path d="M227.6632,170.88649c0.86907,-1.33303 2.1061,-0.59725 3.42716,0.50013c1.3211,1.09738 1.95987,2.42891 1.35693,3.47387c-1.27843,2.21557 -2.47702,0.74175 -3.51148,-0.11753c-1.32109,-1.09738 -2.49993,-1.97384 -1.27259,-3.85644z" stroke-linecap="butt"/><path d="M228.41176,171.87507l-2.74925,-2.34028" stroke-linecap="round"/></g><path d="M259.01872,168.58184c-12.43221,0.16579 -24.48839,0.29086 -29.41565,-0.68431c-4.50318,-0.89123 -5.85895,-3.61643 -5.85895,-3.61643c0,0 -1.80572,-2.40069 -1.89341,-3.91599c-0.26314,-4.54586 -0.38104,-17.54952 0.59713,-28.76493c0.03265,-0.37431 0.06509,-0.58361 0.12087,-0.95547c0.1673,-1.1156 1.01212,-5.4466 1.01212,-5.4466c0,0 3.2821,-1.65236 5.0647,-2.12666c5.34782,-1.4229 18.93768,0.00472 33.24972,0.36897c1.29721,0.03302 3.51955,1.6883 3.51955,1.6883c0,0 1.58254,3.09759 1.53108,5.0587c-0.33258,12.67899 -0.74907,26.70643 -1.06249,29.91415c-0.10447,1.06925 -1.99818,5.21863 -1.99818,5.21863z" fill="#582700" stroke="#000000" stroke-width="2.5" stroke-linecap="round"/><path d="M256.34353,147.45572c0.08933,-3.40604 0.5872,-6.15862 1.11199,-6.14801c0.52479,0.01058 0.87782,2.78034 0.78848,6.18637c-0.08933,3.40605 -0.5872,6.15863 -1.11199,6.14802c-0.52479,-0.01058 -0.87782,-2.78034 -0.78847,-6.18639z" fill="none" stroke="#000000" stroke-width="2.5" stroke-linecap="butt"/><path d="M250.71516,147.60406c0.091,-3.46913 0.48386,-6.27499 0.87743,-6.26705c0.3936,0.00795 0.63892,2.82669 0.54792,6.29582c-0.091,3.46913 -0.48383,6.27496 -0.87742,6.26704c-0.3936,-0.00795 -0.63893,-2.82666 -0.54793,-6.2958z" fill="none" stroke="#000000" stroke-width="2.5" stroke-linecap="butt"/><path d="M219.17241,126.01131c-0.68281,-1.04466 0.40664,-1.70554 0.40664,-1.70554l1.34675,-0.76906c0.12172,-0.03698 0.24335,-0.07323 0.36492,-0.10871c-1.07055,-5.71128 0.0551,-12.62659 0.00409,-18.28125c-0.01325,-1.46647 -0.41327,-5.4368 0.31947,-6.69975c1.227,-2.11484 2.98911,-1.5398 4.93939,-1.55888c3.31835,-0.03245 6.61021,-0.0257 9.89043,-0.52488c8.13128,-1.22806 16.20061,-1.55928 24.37359,-2.3063c2.57904,-0.23572 5.0991,-0.34947 7.6943,-0.16046c0.71009,0.05172 1.61719,-0.2052 2.11558,0.28212c1.76514,1.72595 1.02159,3.66979 0.70441,5.61306c-0.63266,3.8762 -2.27779,7.38091 -2.38178,11.34535c-0.10065,3.03255 -0.57174,6.14748 -0.95934,9.15762c-0.13377,1.03878 0.22652,2.95681 -0.86118,3.74565c-2.23027,1.6175 -8.04697,0.47254 -10.65893,0.41239c-7.9644,-0.18334 -15.93083,-0.5246 -23.89586,-0.27131c-2.84695,0.18429 -5.56084,0.44035 -8.28126,1.03441c-0.02525,0.36869 -0.20541,0.84281 -0.90816,1.04993c-0.76246,0.22471 -1.19535,-0.14332 -1.41441,-0.45592c-0.09266,0.02736 -0.18538,0.05518 -0.27814,0.0835l-0.74823,0.50177c0,0 -1.08945,0.66087 -1.77228,-0.38378z" fill="#000000" stroke="none" stroke-width="0.5" stroke-linecap="butt"/><g><g stroke="#000000" stroke-width="3" stroke-linecap="round"><path d="M199.66605,196.07903l14.53115,-26.28716c0,0 2.83709,-4.95041 4.02317,-4.95507c3.55826,-0.01395 9.32188,3.32795 15.74262,5.52371c1.06724,0.36497 -0.42594,6.04515 -0.42594,6.04515c0,0 -2.7596,8.83749 -4.52586,14.49392c-2.68988,8.61418 -6.89244,22.07284 -6.89244,22.07284c0,0 -1.91565,6.95451 -3.82412,6.13396c0,0 -10.26072,0.4071 -24.51966,-9.17742c0.61039,-4.51837 5.89109,-13.84994 5.89109,-13.84994z" data-paper-data="{&quot;origPos&quot;:null}" fill="#582700"/><path d="M199.00772,198.05915l24.45924,9.64952l-1.28385,3.12985l-24.51809,-9.40012z" data-paper-data="{&quot;origPos&quot;:null}" fill="none"/></g><path d="M199.87912,197.90385l18.06534,-32.67573l15.05655,5.91207l0.96199,1.08791l-10.1159,35.13772z" fill="#66c8ff" stroke="#000000" stroke-width="1" stroke-linecap="round"/><path d="M198.03559,201.07306l0.89184,-2.13996l24.35138,9.36947l-0.89183,2.13998z" fill="#ffffff" stroke="none" stroke-width="0" stroke-linecap="butt"/></g><path d="M254.60119,141.32277c-0.20787,0.54848 -0.70005,0.51059 -0.90121,0.46926c-0.14474,0.19101 -0.3813,0.31297 -0.64506,0.30688c-0.18094,-0.00417 -0.34556,-0.06791 -0.47417,-0.17129l-0.6464,-0.50945c-0.1278,-0.06446 -0.2554,-0.12679 -0.38302,-0.18722c-0.58518,-0.02669 -1.1468,-0.45847 -1.83221,-0.7566c-0.16356,-0.05951 -0.32881,-0.118 -0.49617,-0.17596c0,0 -0.15753,-0.05463 -0.2989,-0.18368c-0.2678,-0.12114 -0.44948,-0.38623 -0.44059,-0.68946c0.01199,-0.40951 0.36698,-0.73353 0.79286,-0.72372c0.08333,0.00192 0.1632,0.01648 0.2377,0.04172l0.76721,0.241l-0.03111,0.09053l0.03059,0.01395c0.02113,0.0087 0.04209,0.01733 0.06284,0.02585c0.07811,0.02887 0.15586,0.058 0.23325,0.0874c1.03702,0.13933 2.0392,0.46831 2.98804,0.98534l0.57611,0.18628c0,0 0.72471,0.25131 0.46024,0.94914z" fill="#582700" stroke="none" stroke-width="0.5" stroke-linecap="butt"/><path d="M241.00875,155.57004c0.72248,0.25712 0.45199,0.95283 0.45199,0.95283l-0.45122,1.14455c-0.48493,2.84127 3.51574,2.11137 5.33082,1.52178c0,0 0.73207,-0.23697 0.97546,0.46584c0.2434,0.70282 -0.48865,0.93978 -0.48865,0.93978c-3.31452,1.06954 -7.68686,1.01092 -7.31802,-3.26714l0.50666,-1.31908c0,0 0.2705,-0.6957 0.99297,-0.43858z" fill="#000000" stroke="none" stroke-width="0.5" stroke-linecap="butt"/></g></g></svg>