<svg version="1.1" xmlns="http://www.w3.org/2000/svg" xmlns:xlink="http://www.w3.org/1999/xlink" width="306.30631" height="274.77477" viewBox="0,0,306.30631,274.77477"><g transform="translate(-86.84685,-42.61262)"><g data-paper-data="{&quot;isPaintingLayer&quot;:true}" fill-rule="nonzero" stroke-linecap="butt" stroke-linejoin="miter" stroke-miterlimit="10" stroke-dasharray="" stroke-dashoffset="0" style="mix-blend-mode: normal"><path d="M86.84686,317.38739v-274.77477h306.30631v274.77477z" data-paper-data="{&quot;index&quot;:null}" fill="none" stroke="none" stroke-width="0"/><text transform="translate(271.55608,110.72266) rotate(-180) scale(0.1602,-0.1602)" font-size="40" xml:space="preserve" data-paper-data="{&quot;index&quot;:null}" fill="#000000" fill-rule="nonzero" stroke="none" stroke-width="1" stroke-linecap="butt" stroke-linejoin="miter" stroke-miterlimit="10" stroke-dasharray="" stroke-dashoffset="0" font-family="Sans Serif" font-weight="normal" text-anchor="start" style="mix-blend-mode: normal"><tspan x="0" dy="0">AwezomeXD</tspan><tspan x="0" dy="46.150000000000006px"> </tspan><tspan x="0" dy="46.150000000000006px">MeIzAwezomeDede</tspan></text><g data-paper-data="{&quot;index&quot;:null}"><g><g><g><path d="M199.30003,137.54324c0,0 -7.22484,-9.75867 -1.56923,-16.89047c4.0146,-5.06246 20.5546,-6.00199 30.46683,-10.90131c11.26791,-5.5694 32.10265,-16.96692 32.10265,-16.96692c0,0 6.02338,0.89787 7.82636,0.08545c2.25121,-1.01441 3.29268,-5.133 3.29268,-5.133c0,0 2.04503,3.62796 3.06596,6.82907c3.84545,12.05741 -5.42138,15.59857 -5.42138,15.59857c0,0 5.67357,3.96902 7.33788,7.93379c1.74947,4.16772 -0.81413,7.74613 -0.81413,7.74613c0,0 3.5609,2.40466 4.973,5.71168c0.93221,2.18318 1.84145,6.0069 2.37593,8.40315c0.91213,4.08918 9.27766,5.25232 9.27766,5.25232c0,0 -2.56788,4.46949 -4.98018,5.94501c-2.45534,1.50185 -9.43726,0.93552 -9.43726,0.93552c0,0 -2.08127,1.47996 -1.53806,4.29583c0.17123,0.88766 1.1459,2.70717 1.61156,3.53629c1.57068,2.79666 0.52258,5.59707 0.52258,5.59707c0,0 -2.64449,-2.69313 -3.69935,-3.21151c-0.7742,-0.38046 -1.40652,-0.34714 -1.40652,-0.34714c0,0 0.21709,4.55183 1.44678,6.74377c2.7351,4.87535 7.03332,10.57501 5.90732,11.15014c-2.03602,1.0399 -5.90335,-1.69204 -8.48126,-1.16131c-2.37272,0.4885 -6.89706,-4.63394 -6.89706,-4.63394c0,0 0.5481,7.06508 -1.8094,8.86447c-2.28772,1.74618 -1.99829,7.14494 -3.04538,7.67243c-3.81698,1.92286 -12.92618,-8.5052 -12.92618,-8.5052c0,0 -8.38626,12.2043 -11.90395,10.84024c-4.15173,-1.60994 -10.70206,-16.11885 -10.70206,-16.11885c0,0 -6.78742,-2.37092 -8.18551,-4.86675c-3.13985,-5.60518 -1.93759,-11.43511 -1.93759,-11.43511c0,0 -2.8892,1.44767 -3.96151,3.09415c-1.13977,1.75006 -2.6871,7.11442 -2.6871,7.11442c0,0 -3.13362,-4.80689 -3.65952,-7.48046c-0.55304,-2.81157 0.41865,-8.99583 0.41865,-8.99583c0,0 -5.67619,-1.69231 -9.27286,-5.91783c-1.92766,-2.26468 -3.21428,-8.2026 -3.21428,-8.2026c0,0 5.3437,2.1863 7.19567,2.09627c1.43661,-0.06984 0.41203,-2.90447 0.41203,-2.90447z" fill="#6d0f0a" stroke="#000000" stroke-width="2"/><path d="M196.44662,132.96039c0,0 -5.91425,-6.03603 -7.70652,-16.12691c-0.97029,-5.46301 0.84405,-13.48906 1.74541,-18.89713c1.2774,-7.66406 8.0636,-13.70093 14.53446,-16.89928c8.50639,-4.20446 18.13557,2.07678 18.13557,2.07678c0,0 7.49792,-7.51441 14.85955,-8.74024c7.11195,-1.18428 14.67941,4.29328 16.68868,5.5968c3.06103,1.98585 9.98667,14.11591 9.98667,14.11591c0,0 -16.8496,30.61195 -30.33186,37.27581c-14.40313,7.11902 -30.73438,-4.54877 -34.95518,0.28082c-1.48513,1.69935 -2.95677,1.31742 -2.95677,1.31742z" fill="#6d0f0a" stroke="#000000" stroke-width="2"/><path d="M190.28627,103.13893c0,0 0.79634,-3.70877 1.31682,-5.39537c0.49658,-1.60909 1.73768,-4.5027 1.73768,-4.5027c0,0 9.96244,2.56845 14.54915,2.22584c4.80647,-0.35902 11.158,-5.09699 11.158,-5.09699c0,0 0.90848,2.13526 1.49421,2.91657c0.61927,0.82605 1.70063,2.12342 1.70063,2.12342c0,0 0.44811,-2.17461 0.45907,-3.0271c0.01185,-0.92076 -0.10498,-2.80272 -0.10498,-2.80272c0,0 2.99688,2.84979 4.25275,3.8593c1.02844,0.8267 2.73742,1.75957 2.73742,1.75957c0,0 -0.85432,-1.95526 -1.37407,-2.93878c-0.5503,-1.04129 -1.84133,-3.14551 -1.84133,-3.14551c0,0 10.45791,0.47647 16.55075,-0.23844c0.12233,-0.01435 4.3586,-1.84262 4.69113,-1.93415c7.14973,-1.96811 1.3204,-9.66108 1.3204,-9.66108c0,0 3.91158,2.12527 6.09677,4.52391c2.2163,2.4328 7.109,9.97188 7.109,9.97188c0,0 -6.11512,-0.85905 -10.94844,0.61247c-0.85765,0.26112 -9.97519,3.59699 -9.97519,3.59699c0,0 -2.14781,-1.43613 -3.20623,-1.96899c-1.03718,-0.52216 -3.0818,-1.19672 -3.0818,-1.19672c0,0 -0.38501,2.18478 -0.4839,3.4753c-0.11885,1.55042 -0.1803,5.19137 -0.1803,5.19137c0,0 -1.54273,-1.38085 -2.53099,-2.05199c-1.09943,-0.74666 -3.76761,-2.22568 -3.76761,-2.22568c0,0 -1.03601,0.93507 -1.51295,1.66195c-0.6621,1.00907 -2.08975,3.82862 -2.08975,3.82862c0,0 -1.82679,-2.34808 -2.77166,-3.33643c-0.81749,-0.85511 -2.571,-2.25212 -2.571,-2.25212c0,0 -1.06673,1.68784 -1.56885,2.72168c-0.62659,1.29012 -1.9007,4.42177 -1.9007,4.42177c0,0 -9.75101,-4.51262 -14.09253,-4.70437c-4.0611,-0.17939 -11.17153,3.58855 -11.17153,3.58855z" fill="#c42d06" stroke="none" stroke-width="0"/></g><path d="M222.50584,139.60609c0,0 -19.3519,1.1444 -20.21016,-0.04144c-0.14888,-0.20571 -0.79141,-9.20034 -1.3303,-9.92878c-0.98434,-1.33056 -4.65673,1.3527 -4.65673,1.3527c0,0 56.17258,-31.79565 65.12771,-36.38732c2.28139,-1.16977 5.62491,0.11509 5.62491,0.11509l-3.75392,22.12006z" fill="#6d0f0a" stroke="none" stroke-width="NaN"/></g><path d="M224.77287,83.8444c0,0 -4.60899,-0.04915 -5.08765,-5.85152c-0.02523,-0.30573 0.16093,-1.64589 0.27564,-1.9702c0.87902,-2.48512 5.40159,-4.54231 5.40159,-4.54231c0,0 -1.21375,5.34762 -1.58657,7.15746c-0.3323,1.61316 0.99698,5.20657 0.99698,5.20657z" fill="#6d0f0a" stroke="#000000" stroke-width="1.5"/><path d="M215.83859,75.60659c0,0 1.63698,0.48201 2.66887,1.94568c0.68564,0.66053 1.95875,3.24969 1.95875,3.24969l-2.14755,-0.34797z" fill="#000000" stroke="none" stroke-width="0"/></g><path d="M223.45059,82.77078l3.5219,-1.35985c0,0 -1.12522,5.10751 -1.54996,5.44706c-0.59461,0.47537 -4.90012,-3.58653 -4.90012,-3.58653z" fill="#6d0f0a" stroke="none" stroke-width="0"/></g><g data-paper-data="{&quot;index&quot;:null}"><g><path d="M305.15073,281.20389c-0.98651,-0.33862 -2.85622,-1.06736 -2.85622,-1.06736l2.02696,-63.81123c0,0 3.16296,-3.46974 4.83842,-5.17349c1.81091,-1.84148 6.91914,-6.0011 6.91914,-6.0011c0,0 6.01725,0.18197 11.22884,1.77723c7.49136,2.29308 29.41663,10.66422 29.41663,10.66422c0,0 -0.29515,23.3032 -1.13439,34.42755c-0.75693,10.03323 -3.67963,29.38367 -3.67963,29.38367c0,0 -14.50168,1.49922 -21.89596,1.61371c-7.25056,0.11226 -22.04702,-0.93333 -22.04702,-0.93333c0,0 -1.92108,-0.57244 -2.81678,-0.87988z" fill="#434253" stroke="#000000" stroke-width="2.5"/><path d="M306.59658,282.07685c0,0 3.23545,-16.55371 5.33739,-30.5263c1.50254,-9.98814 2.07083,-18.56859 2.09142,-19.2474c0.15709,-5.17871 -0.37711,-9.6264 -0.00092,-14.89447c0.50457,-7.06602 1.1958,-11.58007 1.1958,-11.58007l2.12747,-1.24515c0,0 -1.19498,18.38091 -2.96857,35.7325c-0.74127,7.25212 -2.80838,22.50715 -3.80377,32.05655c-0.10938,1.04936 0.51143,2.42133 0.41165,3.37795c-0.55725,5.34269 -0.94516,6.33045 -0.94516,6.33045l-3.44531,-0.00408z" fill="#000000" stroke="none" stroke-width="0"/></g><g stroke="#000000" stroke-width="1.5"><path d="M330.91389,248.66445c6.79781,-0.60406 14.63313,6.58888 15.44623,14.9411c0.95328,9.79226 -4.99455,16.38589 -13.04707,17.16981c-8.05252,0.78393 -14.96156,-5.31863 -15.10374,-15.15615c-0.1584,-10.9599 5.91804,-16.35169 12.70457,-16.95475z" fill="#2c262f"/><path d="M324.45691,268.77548c-0.26887,-2.76192 1.33577,-5.13174 3.60699,-5.35284c2.27122,-0.2211 3.80952,1.27431 4.07839,4.03623c0.26888,2.76192 -1.40704,5.21323 -3.67826,5.43433c-2.27122,0.2211 -3.73824,-1.3558 -4.00711,-4.11772z" data-paper-data="{&quot;index&quot;:null}" fill="#1b171c"/></g><g stroke="#000000" stroke-width="1.5"><path d="M335.82823,213.84404c6.80856,-0.46759 14.3637,7.15725 14.84887,15.53492c0.56881,9.8221 -5.63284,16.17758 -13.70989,16.64533c-8.07705,0.46775 -14.74165,-5.90085 -14.49821,-15.73639c0.27122,-10.9577 6.54818,-15.97612 13.35924,-16.44387z" fill="#2c262f"/><path d="M328.58817,233.68658c-0.16044,-2.77032 1.53584,-5.07544 3.81398,-5.20737c2.27815,-0.13193 3.75665,1.42261 3.91709,4.19295c0.16044,2.77034 -1.61026,5.15409 -3.8884,5.28602c-2.27814,0.13193 -3.68224,-1.50126 -3.84268,-4.2716z" data-paper-data="{&quot;index&quot;:null}" fill="#1b171c"/></g></g><g data-paper-data="{&quot;index&quot;:null}"><g><path d="M177.70551,280.24702c0,0 -1.88024,0.73284 -2.8723,1.07336c-0.90074,0.30917 -2.83261,0.88483 -2.83261,0.88483c0,0 -14.87968,1.05147 -22.17101,0.93858c-7.43586,-0.11513 -22.01909,-1.62279 -22.01909,-1.62279c0,0 -2.93913,-19.45928 -3.70032,-29.54893c-0.84396,-11.1869 -1.14077,-34.62117 -1.14077,-34.62117c0,0 22.04857,-8.41822 29.58207,-10.7242c5.2409,-1.60422 11.29199,-1.78722 11.29199,-1.78722c0,0 5.13697,4.18302 6.95806,6.03485c1.68488,1.71333 4.86563,5.20259 4.86563,5.20259l2.03836,64.1701z" fill="#434253" stroke="#000000" stroke-width="2.5"/><path d="M173.37926,282.19822l-3.46469,0.0041c0,0 -0.39007,-0.99331 -0.95047,-6.36606c-0.10034,-0.96198 0.52396,-2.34168 0.41397,-3.39694c-1.00099,-9.6031 -3.07972,-24.94394 -3.82517,-32.23684c-1.78356,-17.44918 -2.98527,-35.93346 -2.98527,-35.93346l2.13944,1.25216c0,0 0.69513,4.53943 1.20254,11.64519c0.3783,5.29769 -0.15891,9.77041 -0.00094,14.97823c0.0207,0.68263 0.59219,9.31135 2.10319,19.35565c2.11376,14.05117 5.36741,30.69797 5.36741,30.69797z" fill="#000000" stroke="none" stroke-width="0"/></g><g stroke="#000000" stroke-width="1.5"><path d="M133.39211,263.62307c0.81767,-8.39919 8.69707,-15.63258 15.53311,-15.02512c6.82469,0.60645 12.93531,6.02857 12.77602,17.05011c-0.14298,9.89284 -7.09089,16.02972 -15.18869,15.24139c-8.0978,-0.78832 -14.07908,-7.41904 -13.12044,-17.26637z" fill="#2c262f"/><path d="M151.79119,263.43917c2.284,0.22234 3.89766,2.60548 3.62728,5.38293c-0.27039,2.77745 -1.74565,4.36322 -4.02965,4.14088c-2.284,-0.22235 -3.96933,-2.68744 -3.69895,-5.46489c0.27038,-2.77745 1.81733,-4.28127 4.10133,-4.05893z" data-paper-data="{&quot;index&quot;:null}" fill="#1b171c"/></g><g stroke="#000000" stroke-width="1.5"><path d="M129.05082,229.20399c0.4879,-8.42479 8.08552,-16.09251 14.93237,-15.6223c6.84937,0.47038 13.16163,5.51703 13.43437,16.53635c0.24482,9.89086 -6.45726,16.29528 -14.57974,15.8249c-8.12248,-0.47038 -14.35901,-6.86161 -13.787,-16.73894z" fill="#2c262f"/><path d="M151.26403,233.53585c-0.16134,2.78591 -1.57333,4.42828 -3.86428,4.29561c-2.29096,-0.13268 -4.0716,-2.52983 -3.91026,-5.31575c0.16134,-2.7859 1.64816,-4.3492 3.93911,-4.21653c2.29095,0.13267 3.99677,2.45075 3.83543,5.23667z" data-paper-data="{&quot;index&quot;:null}" fill="#1b171c"/></g></g><g data-paper-data="{&quot;index&quot;:null}" fill="#434253" stroke="#000000"><path d="M302.93639,282.15581c0,0 -39.39406,0.31655 -59.64769,0.31655c-21.72904,0 -66.6118,-0.31655 -66.6118,-0.31655c0,0 -4.38216,-25.00528 -4.16309,-53.75635c-0.46515,-31.11458 4.16309,-61.08575 4.16309,-61.08575c0,0 42.82931,-1.2662 64.39595,-1.2662c21.14461,0 59.33114,1.58275 59.33114,1.58275c0,0 7.99686,28.51433 7.2979,63.41059c-1.03994,32.54257 -4.76549,51.11495 -4.76549,51.11495z" stroke-width="2.5"/><path d="M182.12638,274.24782c1.29409,0 2.34316,0.94416 2.34316,2.10884c0,1.16468 -1.04906,2.10884 -2.34316,2.10884c-1.29409,0 -2.34316,-0.94416 -2.34316,-2.10884c0,-1.16468 1.04906,-2.10884 2.34316,-2.10884z" stroke-width="2"/><path d="M296.58664,273.61069c1.29409,0 2.34316,0.94416 2.34316,2.10884c0,1.16468 -1.04907,2.10884 -2.34316,2.10884c-1.29409,0 -2.34316,-0.94416 -2.34316,-2.10884c0,-1.16468 1.04907,-2.10884 2.34316,-2.10884z" stroke-width="2"/><path d="M292.33152,174.94761c-0.48529,-1.12251 0.08425,-2.44878 1.27209,-2.9623c1.18785,-0.51352 2.54417,-0.01985 3.02946,1.10266c0.48528,1.12251 -0.08426,2.44879 -1.2721,2.96231c-1.18785,0.51352 -2.54417,0.01984 -3.02946,-1.10267z" stroke-width="2"/><path d="M180.41757,171.55907c1.18784,-0.51352 2.54418,-0.01985 3.02946,1.10266c0.48528,1.12251 -0.08426,2.44879 -1.2721,2.96231c-1.18784,0.51352 -2.54417,0.01984 -3.02945,-1.10267c-0.48528,-1.12251 0.08425,-2.44878 1.27209,-2.9623z" stroke-width="2"/></g><g data-paper-data="{&quot;index&quot;:null}" stroke="#000000"><path d="M185.38528,208.8506c-2.45268,-6.65252 -2.23243,-25.16686 1.2238,-28.78372c9.15219,-9.57753 27.02753,-9.85708 50.03744,-9.85708c21.54137,0 42.40116,1.26301 52.15372,9.47437c4.59889,3.87212 4.25165,25.69054 0.6414,31.5768c-5.42101,8.83858 -21.3149,12.1266 -53.01425,12.1266c-31.69935,0 -47.51498,-4.62378 -51.04211,-14.19061z" fill="#434253" stroke-width="2"/><path d="M189.64675,207.2085c-2.26436,-5.8977 -2.06104,-22.3113 1.12983,-25.51776c8.4495,-8.4908 24.95241,-8.08126 46.19565,-8.08126c19.88746,0 39.14569,0.46232 48.14946,7.74198c4.2458,3.43277 3.92522,22.77555 0.59215,27.99392c-5.0048,7.83571 -19.67838,9.87414 -48.94391,9.87414c-29.26554,0 -43.86686,-3.5297 -47.12319,-12.01102z" fill="#2c262f" stroke-width="1.5"/><path d="M215.90005,204.08267c-0.88175,-2.5127 -0.80256,-9.50567 0.43998,-10.87178c3.29029,-3.6175 9.71661,-4.38046 17.98885,-4.38046c7.74429,0 15.24354,1.13441 18.74966,4.2359c1.65334,1.46252 1.5285,9.70347 0.23059,11.92675c-1.94889,3.33838 -7.66286,4.79941 -19.05903,4.79941c-11.39616,0 -17.08201,-1.9232 -18.35003,-5.53664z" fill="#1b171c" stroke-width="1.5"/></g><g data-paper-data="{&quot;index&quot;:null}" stroke="#000000"><path d="M185.38528,265.23479c-2.45268,-6.65252 -2.23243,-25.16686 1.2238,-28.78371c9.15219,-9.57753 27.02753,-9.85709 50.03744,-9.85709c21.54137,0 42.40116,1.26301 52.15372,9.47437c4.59889,3.87213 4.25165,25.69054 0.6414,31.5768c-5.42101,8.83858 -21.3149,12.1266 -53.01425,12.1266c-31.69935,0 -47.51498,-4.62379 -51.04211,-14.19062z" fill="#434253" stroke-width="2"/><path d="M189.64675,263.59268c-2.26436,-5.8977 -2.06104,-22.3113 1.12983,-25.51776c8.4495,-8.4908 24.95241,-8.08127 46.19565,-8.08127c19.88746,0 39.14569,0.46232 48.14946,7.74198c4.2458,3.43277 3.92522,22.77556 0.59215,27.99393c-5.0048,7.83571 -19.67838,9.87414 -48.94391,9.87414c-29.26554,0 -43.86686,-3.5297 -47.12319,-12.01102z" fill="#2c262f" stroke-width="1.5"/><path d="M215.90005,260.46684c-0.88175,-2.51269 -0.80256,-9.50566 0.43998,-10.87177c3.29029,-3.6175 9.71661,-4.38046 17.98885,-4.38046c7.74429,0 15.24354,1.13441 18.74966,4.2359c1.65334,1.46252 1.5285,9.70346 0.23059,11.92674c-1.94889,3.33838 -7.66286,4.79941 -19.05903,4.79941c-11.39616,0 -17.08201,-1.9232 -18.35003,-5.53665z" fill="#1b171c" stroke-width="1.5"/></g><g data-paper-data="{&quot;index&quot;:null}"><g><path d="M252.16765,159.43962c0,-4.62307 -8.49349,-15.53073 -3.81415,-15.53073c1.22311,0 4.42917,2.33459 7.50057,4.85516c1.45091,1.19071 3.6139,2.34172 4.58125,3.77227c0.88905,1.31474 0.7777,2.94412 0.88451,3.34049c0.14147,0.52495 1.05985,2.14097 1.05985,2.14097c0,0 1.84337,1.97795 5.26166,3.90074c2.29844,1.29287 4.24006,0.66077 6.60772,2.01002c1.51083,0.86098 5.14264,2.7213 3.87369,4.97488c-0.18155,0.32243 -5.12328,0.24975 -5.12328,0.24975c0,0 -1.38722,1.6276 -2.62457,2.04842c-3.22468,1.09671 -5.31061,-1.08587 -6.12042,-1.03821c-2.60434,0.15328 -6.72809,-0.10553 -6.72809,-0.10553c0,0 -0.42924,-0.10557 -1.69069,-0.80571c-5.24365,-2.91039 -3.66807,-7.69547 -3.66807,-9.81253z" fill="#ffd5d5" stroke="#000000" stroke-width="1.5"/><path d="M253.53373,166.12693c0,0 7.29249,1.48578 9.95463,0.65935c0.10511,-0.03263 1.09316,-0.82199 2.45582,-1.24686c1.14308,-0.35642 2.65331,-0.36275 3.11935,-0.36185c1.17977,0.00229 1.61032,1.90079 2.6201,1.90079c4.07091,0 5.01291,-0.51035 5.01291,-0.51035c0,0 0.55455,0.54917 0.7437,1.15381c0.13495,0.43135 0.02675,0.94264 -0.34109,1.06756c-1.40247,0.47629 -4.79414,0.20759 -4.79414,0.20759c0,0 -1.74358,1.7083 -2.55079,1.73805c-5.38363,0.19843 -4.37217,-1.18226 -5.3204,-1.18226c-3.65815,0 -5.80336,-0.08543 -7.05371,-0.35945c-0.17574,-0.03852 -1.31715,-0.5453 -2.08868,-1.13084c-1.11479,-0.84606 -1.75769,-1.93553 -1.75769,-1.93553z" fill="#fb95a9" stroke="none" stroke-width="0"/><path d="M268.15106,164.66677c0.72444,-0.08172 2.87061,-0.06303 3.75169,0.94108c1.15746,1.3191 0.97693,3.72747 0.97693,3.72747l-2.0916,1.52047c0,0 0.81471,-4.96196 -1.7831,-4.96196c-2.09043,0 -4.71675,0.21059 -4.71675,0.21059c0,0 1.56303,-1.17823 3.86283,-1.43765z" fill="#000000" stroke="none" stroke-width="0"/><path d="M263.39459,158.87903l-0.13974,3.79055l-2.58548,-6.19124z" fill="#000000" stroke="none" stroke-width="0"/></g><path d="M245.01515,140.84214c0,-3.1402 -3.20727,-10.10814 -0.69876,-10.10814c2.50852,0 8.05046,-0.70437 8.05046,2.43583c0,1.6451 3.015,8.01008 2.76204,11.02958c-0.2299,2.74415 0.86347,4.53972 -0.33085,4.53972c-2.50851,0 -9.78288,-4.75679 -9.78288,-7.89699z" fill="#fb95a9" stroke="#000000" stroke-width="2"/></g><g data-paper-data="{&quot;index&quot;:null}"><path d="M228.18006,131.62587c2.41131,-2.95149 10.53162,-0.25987 12.59919,3.86227c0.26008,0.51854 1.70637,-0.66733 5.40284,0.98163c0.86997,0.38809 5.3323,2.85511 7.98427,6.04894c1.26983,1.52929 2.1246,3.99593 1.97118,5.03194c-0.22905,2.80784 -2.67033,5.18657 -4.85989,7.14774c-2.87249,2.57284 1.75248,7.33006 -2.40533,7.33006c-3.03121,0 -16.54137,0.60747 -18.69314,-0.7284c-1.28409,-0.79719 -0.53199,-7.61244 -0.88049,-9.01861c-0.48674,-1.96396 -4.99822,-4.40189 -4.99822,-6.61256c0,-2.58633 2.29137,-12.099 3.87959,-14.04301z" fill="#ee1536" stroke="#000000" stroke-width="2"/><path d="M244.29204,151.81498c0,-3.14019 3.56399,-6.94934 7.26523,-7.10728c3.22449,-0.13759 3.97211,2.15654 3.0535,5.15937c-1.10558,3.61402 -4.40634,5.42259 -7.63376,5.42259c-0.06272,0 2.08362,-1.58996 2.84464,-0.28992c1.01358,1.73146 0.66979,6.51156 0.03616,6.86773c-2.98614,1.67855 -13.402,-0.74155 -16.31172,-0.67209c-0.60085,0.01435 -2.90823,0.59035 -3.45604,-1.26733c-0.44915,-1.5231 0.38106,-5.65028 0.34354,-5.65555c-0.60286,-0.08461 -1.36799,-4.06688 -1.36799,-4.06688c0,0 -2.86476,-2.27685 -2.9505,-2.85725c-0.15338,-1.03828 2.10836,-2.8435 2.10836,-2.8435c0,0 1.25189,1.00644 1.97555,1.57762c0.66583,0.52553 1.57561,2.98741 1.57561,2.98741c0,0 4.12841,-5.5717 8.29185,-4.21031c5.58397,1.82588 4.22558,7.21129 4.22558,6.95539z" fill="#9a1652" stroke="none" stroke-width="0"/><path d="M230.80238,160.80496c0.86132,-1.55025 8.52088,-5.58592 9.70316,-7.17085c2.60911,-3.4977 4.57621,-6.08348 4.57621,-6.08348c0,0 0.91108,5.32297 -0.66029,9.58239c-1.16307,3.15265 6.61433,5.47453 5.8723,5.47453c-1.74455,0 -20.27813,-0.38656 -19.49138,-1.80259z" fill="#000000" stroke="none" stroke-width="0"/></g><g data-paper-data="{&quot;index&quot;:null}"><path d="M219.65376,138.5779c0.8478,-4.00178 1.05969,-6.20696 6.00865,-5.89108c3.43927,0.21953 5.83687,5.53997 5.6375,9.63432c-0.21476,4.36977 -3.06549,5.46494 -5.22987,10.17868c-0.32418,0.44398 -0.41178,3.26813 -0.38937,5.30495c0.00209,0.18978 -0.33717,0.62001 -0.76323,1.1586c-0.26544,0.33555 -0.56457,0.71315 -0.83585,1.10087c-0.58792,0.84029 -1.00834,1.7666 -1.00967,2.05978c-0.00063,0.13988 0.8938,0.58214 1.37429,-0.0945c0.59429,-0.8369 0.82022,-2.85569 1.09309,-2.96133c0.60322,-0.23354 -0.26637,2.51293 -0.44615,3.11094c-0.2653,0.88248 -0.4921,0.63998 -0.44475,1.76587c0.09045,2.15137 1.56896,3.36172 2.62602,4.56955c0.70741,0.80829 0.22384,1.75371 0.01145,1.89649c-0.37801,0.2541 -3.54371,-0.53117 -4.05789,-0.42698c-0.39765,0.08057 -1.34654,-0.40466 -3.49097,-0.27099c-0.82355,0.05133 -1.65645,0.76311 -2.63719,0.82042c-0.71638,0.04187 -1.3057,-0.15857 -1.95166,-0.31313c-0.22206,-0.05314 -1.02829,-0.5319 -1.25815,-0.52625c-0.34771,0.00856 -0.82528,0.48594 -1.23178,0.63526c-0.77623,0.28513 -1.60661,0.69038 -2.28854,0.69435c-3.18977,0.0186 -3.26689,-1.88761 -3.26689,-1.88761c0,0 -3.04432,0.06304 -4.03211,-0.42236c-0.75092,-0.36901 -1.55925,-1.00352 -1.38133,-2.2378c0.24894,-1.72688 1.10352,-2.33605 3.08465,-3.20355c2.98491,-1.30704 6.06524,-0.58009 9.46825,-3.92267c3.20388,-3.14698 4.43719,-15.37296 4.7865,-17.02182z" fill="#ffd5d5" stroke="#000000" stroke-width="1.5"/><path d="M206.90048,168.30772c0,0 -3.07229,0.00278 -3.71369,-0.28946c-0.71612,-0.32628 -0.72723,-1.57737 -0.72723,-1.57737c0,0 2.41577,-0.11037 3.38045,-0.23542c0.79242,-0.10272 2.33677,-0.55138 2.33677,-0.55138l-0.52435,2.84128c0,0 1.64547,0.70646 3.17917,0.82889c0.82685,0.066 0.81717,-1.87392 3.46531,-1.87392c0.98114,0 3.17859,1.26431 4.02568,0.77044c2.1093,-1.22976 5.04158,-5.18813 5.04158,-5.18813c0,0 0.81464,0.24075 0.81464,0.62352c0,0.48247 3.67599,6.1885 3.15662,6.13879c-0.73361,-0.07022 -6.5234,-0.94261 -7.38145,-0.9628c-0.84998,-0.02 -2.23775,0.94386 -3.09742,0.91287c-0.46569,-0.01678 -0.92766,-0.12523 -1.38038,-0.228c-0.43517,-0.09879 -0.94769,-0.55333 -1.3608,-0.55513c-0.55722,-0.00243 -0.93268,0.42362 -1.3338,0.52162c-1.2246,0.29919 -1.88782,0.90551 -3.00328,0.83681c-1.46527,-0.09024 -2.87782,-2.0126 -2.87782,-2.0126z" fill="#fb95a9" stroke="none" stroke-width="0"/><path d="M206.64523,168.40277c0,0 1.25348,-3.1369 2.41663,-3.45707c0.61518,-0.16933 1.83386,-0.25208 2.78582,0.09011c0.96988,0.34863 1.90801,1.37664 1.90801,1.37664c0,0 -2.47695,-0.57435 -3.78841,-0.18953c-1.72244,0.5054 -1.74386,3.47467 -1.74386,3.47467z" fill="#000000" stroke="none" stroke-width="0"/><path d="M220.51528,167.97302l-0.94496,1.89527l-1.41743,-0.1805z" fill="#000000" stroke="none" stroke-width="0"/></g><g data-paper-data="{&quot;index&quot;:null}"><g><path d="M253.08346,117.70484c-1.01269,-3.52082 0.47689,-7.03958 3.32708,-7.85937c2.85018,-0.81979 5.98166,1.36983 6.99434,4.89064c1.01268,3.52082 -0.47691,7.03959 -3.3271,7.85938c-2.85018,0.8198 -5.98165,-1.36982 -6.99433,-4.89063z" fill="#fb95a9" stroke="#000000" stroke-width="2"/><path d="M244.08508,136.88421c-25.0446,3.35781 -28.4129,1.36066 -32.8298,-7.87191c-4.41692,-9.23258 9.40907,-14.24064 22.47104,-20.48956c13.06196,-6.24893 19.63737,-10.06725 24.05428,-0.83467c0.72052,1.5061 2.02161,11.65357 2.02161,11.65357c0,0 8.69204,1.72537 9.02051,5.78312c0.3404,4.38374 -15.26396,10.48927 -24.73766,11.75945z" fill="#ffd5d5" stroke="#000000" stroke-width="2"/><path d="M211.1966,121.57024c0,0 23.10924,-15.45257 28.70184,-18.1281c10.59645,-5.0694 14.97357,0.11802 17.03144,4.41957c0.89882,1.87881 1.70832,10.39847 1.70832,10.39847c0,0 -5.25496,-3.99231 -7.65596,-4.62581c-2.73474,-0.72155 -7.69196,0.43537 -7.69196,0.43537l-3.47316,8.2818l-8.5138,-5.12143c0,0 -1.20314,6.13144 -2.76549,8.93559c-1.66584,2.98989 -6.93903,8.48228 -6.93903,8.48228l-3.93716,0.86471c0,0 -4.35393,-3.88346 -5.45223,-6.25206c-1.05498,-2.27513 -1.01282,-7.69044 -1.01282,-7.69044z" fill="#fb95a9" stroke="none" stroke-width="0"/><path d="M206.22149,134.10516c-1.38029,-2.88516 -1.75515,-3.479 -0.60776,-5.66205c0.91987,-1.75014 8.41212,0.017 9.79241,2.90217c1.3803,2.88517 1.80505,6.02306 0.02147,6.87633c-1.78357,0.85326 -7.55318,-0.66138 -9.20612,-4.11647z" fill="#ffd5d5" stroke="#000000" stroke-width="2.5"/><path d="M215.15905,137.4163c-0.63655,0.30451 -3.57138,0.0737 -5.223,-1.03776c-1.03111,-0.69388 -1.88543,-1.76468 -2.51375,-2.73382c-0.77052,-1.18849 -0.09314,-2.19661 1.34108,-2.06331c2.39879,0.22296 5.71,0.742 6.27542,1.92384c0.90346,1.88848 1.64151,3.18325 0.12024,3.91104z" fill="#fb95a9" stroke="none" stroke-width="0"/><path d="M208.25306,131.03226c-0.27607,-0.57704 7.66555,3.33608 7.66555,3.33608l0.18618,2.82897c0,0 -7.57568,-5.58803 -7.85174,-6.16508z" fill="#000000" stroke="none" stroke-width="0"/><path d="M214.59247,138.63708c-1.00762,-1.57393 -0.06915,-3.62268 1.75741,-4.71995c1.82653,-1.09725 3.77422,-2.47362 5.69006,0.10507c0.33724,0.45392 2.4599,3.46556 1.61927,5.64372c-0.13103,0.33952 -1.0572,1.78819 -2.31564,2.44061c-1.73792,0.901 -3.0138,0.88796 -3.0138,0.88796c0,0 1.47393,-2.4045 1.2179,-2.46755c-0.81657,-0.20107 -4.10861,-0.56745 -4.95521,-1.88985z" fill="#6d0f0a" stroke="#000000" stroke-width="2"/><path d="M202.01582,141.7238c-8.12933,-1.21427 -11.86768,-4.13107 -11.86768,-4.13107c0,0 6.10784,-2.74663 7.45153,-5.53224c1.35441,-2.80787 0.09777,-12.38845 0.09777,-12.38845c0,0 21.75408,-7.88719 30.60364,-12.12087c8.19459,-3.92032 15.39441,-7.33795 20.67121,-9.8345c5.73535,-2.71349 11.89855,-2.16541 14.53025,2.05851c0.65128,1.04529 1.52753,2.45344 2.09125,3.70942c2.57663,5.74075 2.52502,11.86683 2.52502,11.86683c0,0 -7.6382,-5.12984 -11.21409,-7.26058c-4.42258,-2.63521 -10.63735,-4.10995 -10.63735,-4.10995c0,0 0.63448,3.95602 0.07533,6.89372c-0.57883,3.041 -3.56146,4.11343 -3.56146,4.11343c0,0 -1.41302,-2.85665 -2.52262,-3.98472c-1.02141,-1.03843 -2.9257,-3.00288 -2.54518,-1.89358c0.38276,1.1159 0.93204,3.91821 1.24072,5.28105c0.7989,3.52731 0.45778,4.18598 0.45778,4.18598c0,0 -2.91773,-2.28096 -5.77152,-4.36338c-2.42647,-1.77061 -5.36201,-2.12915 -5.36201,-2.12915c0,0 -2.62797,5.97277 -4.41015,8.68388c-1.60993,2.44907 -5.47448,6.71184 -5.47448,6.71184c0,0 5.13367,6.65145 1.27959,7.83112c-2.72393,0.83376 -4.05396,0.82478 -5.89765,0.27504c-1.1053,-0.32957 -2.48766,-2.99262 -2.48766,-2.99262l2.13665,-0.29701c0,0 -3.50527,-5.28938 -4.87901,-5.11205c-2.4188,0.31223 -0.89121,-0.65354 -4.01509,0.93749c-0.4547,0.23159 -0.57239,3.56498 0.71047,6.09912c1.37728,2.72065 4.17979,4.6462 4.17979,4.6462c0,0 -3.43515,3.44951 -7.40504,2.85653z" fill="#6d0f0a" stroke="#000000" stroke-width="1.5"/><path d="M239.59425,105.48414c-0.88462,0.42321 -2.51177,-0.06643 -4.35496,0.65855c-1.99692,0.78543 -4.2179,2.78982 -5.22192,3.3129c-14.50056,7.5549 -30.45637,16.33887 -30.45637,16.33887c0,0 -0.3904,-2.66894 -0.85897,-3.85267c-0.5006,-1.26467 -1.76994,-3.64497 -1.76994,-3.64497c0,0 21.03674,-6.96982 32.90927,-12.6497c7.61822,-3.64461 15.498,-7.7958 20.84413,-9.47883c5.66081,-1.78212 8.96947,-1.17997 8.96947,-1.17997l3.74171,5.86156l-2.5803,0.46577l-8.24174,-3.25927c0,0 -8.92256,5.48643 -12.98039,7.42774z" fill="#6d0f0a" stroke="none" stroke-width="0"/><path d="M241.49698,134.4022c-1.18394,0.37547 -2.15069,-0.51184 -2.98938,-1.40786c-0.94616,-1.01087 -1.68992,-2.08353 -1.65515,-2.32299c0.0535,-0.36848 8.86169,-1.81319 9.04438,-1.46721c0.17431,0.33011 -0.69738,1.61712 -1.95846,3.01075c-0.71055,0.78522 -1.17095,1.85116 -2.19171,2.17486z" fill="#ef3d61" stroke="#000000" stroke-width="1.5"/><path d="M242.94374,121.62932c-0.83819,-1.75207 -1.7371,-5.00559 0.47369,-7.27621c0.39692,-0.40769 1.53621,-0.82871 2.91974,-0.98554c1.41808,-0.16075 2.76182,0.05404 3.14058,0.08725c0.74828,0.06564 1.76045,-0.74788 1.76045,-0.74788c0,0 0.88394,-1.0685 1.32466,-1.80669c0.36999,-0.61971 0.92662,-2.78539 0.92662,-2.78539c0,0 0.5635,1.39253 0.12998,3.33784c-0.17863,0.80161 -0.91947,2.40121 -0.91947,2.40121c0,0 0.99018,-0.30993 1.97199,-0.98572c0.73749,-0.50761 2.21473,-2.57889 2.21473,-2.57889c0,0 -0.2116,1.95869 -0.54574,2.90163c-0.23073,0.65113 -1.05687,1.68428 -1.05687,1.68428l0.21216,1.01893c0,0 -2.11219,-1.08284 -3.0041,-1.13859c-0.72116,-0.04507 -2.11324,0.76981 -2.11324,0.76981c0,0 3.02696,7.09833 -1.43073,9.09086c-3.47569,1.55359 -4.62417,-0.10172 -6.00445,-2.98689z" fill="#000000" stroke="none" stroke-width="0"/><path d="M219.06232,121.08617c0,0 2.11143,0.94349 3.14414,1.12921c0.95044,0.17092 2.21864,-0.3487 2.21864,-0.3487c0,0 -0.6037,-0.55422 -1.2178,-1.13699c-0.64047,-0.60781 -2.04532,-2.52336 -2.04532,-2.52336c0,0 1.85966,1.11113 2.70212,1.41204c0.80566,0.28778 2.52796,0.45483 2.52796,0.45483c0,0 2.31847,-1.16271 3.85579,-1.89817c4.02427,-1.92523 7.99847,-0.32485 7.99847,-0.32485c0,0 -2.48016,0.4313 -3.3339,0.61017c-0.60645,0.12703 -1.24471,0.48834 -1.24471,0.48834c0,0 3.80949,7.61228 -1.90836,10.42554c-4.68321,2.30421 -6.41232,-4.66422 -6.75944,-4.926c-0.25147,-0.18966 -1.43344,-0.61064 -1.43344,-0.61064c0,0 -1.67267,-0.20338 -2.38198,-0.626c-0.77164,-0.45976 -2.12213,-2.12543 -2.12213,-2.12543z" fill="#000000" stroke="none" stroke-width="0"/></g><path d="M262.4449,99.10374c0,0 -1.47834,-2.33576 -2.31305,-3.46701c-0.79819,-1.08175 -2.59065,-3.17857 -2.59065,-3.17857c0,0 1.26297,0.18033 2.78377,2.0506c0.99394,1.22235 3.5145,4.42049 3.5145,4.42049z" fill="#000000" stroke="none" stroke-width="0"/></g><g data-paper-data="{&quot;index&quot;:null}"><path d="M258.3188,189.84962c-1.02396,-0.71924 -2.61216,-2.05592 -4.01444,-5.83096c-0.84291,-2.26917 -1.17132,-4.44267 -0.37584,-5.00508c2.46138,-1.74019 13.46271,-2.04366 13.56639,-2.03632c6.29953,0.44584 14.47737,5.73804 14.28523,8.45276c-0.15236,2.15277 -6.00673,4.67397 -12.18175,4.02777c-9.13226,-0.95567 -12.26956,-5.30904 -12.44976,-5.54051c-0.71527,-0.91876 0.83514,1.61277 1.42883,2.61879c0.68043,1.15304 1.95772,2.01422 1.69718,3.07527c-0.29772,1.21248 -1.10686,0.8346 -1.95584,0.23827z" fill="#ee1536" stroke="#000000" stroke-width="1.5"/><path d="M224.56989,164.5301c0.25391,-3.58757 2.35701,-6.64406 5.63625,-8.75125c4.35584,-2.799 10.60094,-4.03303 15.53181,-3.68405c5.30667,0.37557 12.35114,0.6743 14.19104,3.10234c0.49941,0.65907 -0.12127,3.35728 0.048,5.98216c0.09728,1.50864 0.64694,5.18696 1.49128,8.17769c0.61446,2.17653 1.35933,4.67092 2.46802,5.06043c4.59705,1.61509 11.03529,4.62948 9.17776,7.05731c-1.41154,1.84493 -8.84494,1.55331 -14.62252,-0.6596c-5.20029,-1.99179 -8.75162,-5.80691 -10.65631,-6.42799c-3.23121,-1.05364 -10.37147,0.7037 -13.68901,0.00157c-2.16168,-0.4575 -4.01991,-1.31376 -5.39834,-2.18339c-3.41626,-2.15527 -4.33504,-5.45581 -4.17797,-7.67521z" fill="#ffd5d5" stroke="#000000" stroke-width="1.5"/><path d="M254.99732,162.97203c0,0 1.62368,-1.02454 2.33123,-1.67972c0.64149,-0.59401 1.73532,-2.08584 1.73532,-2.08584c0,0 0.30227,2.4594 0.43402,3.71524c0.11911,1.13542 0.32235,3.49502 0.32235,3.49502c0,0 -2.11924,-0.71917 -2.99023,-1.34128c-0.69804,-0.49856 -1.83268,-2.10341 -1.83268,-2.10341z" fill="#fb95a9" stroke="none" stroke-width="0"/><path d="M274.43208,181.35176c0.19426,-0.34108 1.68068,-0.01784 2.93131,0.69446c1.25063,0.7123 2.51274,2.54497 2.31847,2.88605c-0.19426,0.34107 -1.43393,-1.23137 -2.68456,-1.94367c-1.25062,-0.7123 -2.75947,-1.29576 -2.5652,-1.63684z" fill="#fc9ea5" stroke="none" stroke-width="0"/></g><g data-paper-data="{&quot;index&quot;:null}"><path d="M231.77856,188.95305c1.93188,-6.56918 6.88378,-8.81714 11.69561,-7.40207c4.81184,1.41506 7.2656,7.24737 5.33372,13.81657c-1.93189,6.5692 -10.05047,12.89482 -13.65214,11.63576c-3.56602,-1.24659 -5.4551,-11.13817 -3.52322,-17.70737z" fill="#ee1536" stroke="#000000" stroke-width="1.5"/><path d="M234.00631,185.95144c0,0 1.72483,-3.0378 3.95491,-3.89732c0.74802,-0.2883 4.09082,-0.15042 6.71403,1.23112c1.78295,0.939 3.09148,2.91525 3.57843,3.92524c0.83874,1.73962 0.46468,3.73414 0.46468,3.73414c0,0 -1.6527,1.83029 -5.26591,2.05112c-1.90003,0.11613 -4.79871,-1.69179 -6.70365,-3.62928c-1.71759,-1.74693 -2.74248,-3.41501 -2.74248,-3.41501z" fill="#9a1652" stroke="none" stroke-width="0"/><path d="M237.51242,175.78606c-0.11791,-7.10709 1.18014,-11.00582 9.58213,-11.50382c4.91253,-0.29118 7.04843,5.22078 6.95485,7.64488c-0.3131,8.1103 -8.27499,15.98717 -8.27499,15.98717c0,0 2.13601,7.84585 -6.04896,9.63702c-4.00247,0.87588 -4.6925,-6.10481 -4.18361,-7.86837c0.92389,-3.20166 2.94082,-5.2173 2.94082,-5.2173c0,0 -0.91787,-5.52156 -0.97026,-8.6796z" fill="#ffd5d5" stroke="#000000" stroke-width="1.5"/><path d="M244.74212,176.46308c-1.04201,-0.54394 -1.35858,-1.49042 -1.77939,-2.41927c-0.50779,-1.12081 -1.06534,-3.99619 -1.06534,-3.99619c0,0 2.0152,1.2525 3.1381,1.76295c1.10502,0.50232 3.69455,1.10847 3.69455,1.10847c0,0 -1.3182,2.54633 -1.9815,3.101c-0.61645,0.5155 -0.96439,0.987 -2.0064,0.44306z" fill="#fb95a9" stroke="none" stroke-width="0"/><path d="M238.07035,203.87953c-0.64195,0.02783 1.40589,-1.18856 2.1814,-1.74658c0.86024,-0.61898 2.58897,-2.6321 2.66047,-2.26827c0.14459,0.73571 -1.23452,2.30401 -2.02051,2.86957c-0.85307,0.61383 -1.73161,1.09804 -2.82135,1.14529z" fill="#fc9ea5" stroke="none" stroke-width="0"/></g></g></g></svg>