<svg version="1.1" xmlns="http://www.w3.org/2000/svg" xmlns:xlink="http://www.w3.org/1999/xlink" width="210" height="221" viewBox="0,0,210,221"><g transform="translate(-140,-90)"><g data-paper-data="{&quot;isPaintingLayer&quot;:true}" fill-rule="nonzero" stroke-linejoin="miter" stroke-miterlimit="10" stroke-dasharray="" stroke-dashoffset="0" style="mix-blend-mode: normal"><path d="M140,311v-221h210v221z" fill="none" stroke="none" stroke-width="0" stroke-linecap="butt"/><g data-paper-data="{&quot;index&quot;:null}" stroke="#000000" stroke-linecap="round"><path d="M263.13036,195.43902c0,0 16.28147,-2.74166 16.73758,3.86764c1.23799,17.93899 -27.70071,14.03624 -27.70071,14.03624z" data-paper-data="{&quot;origPos&quot;:null}" fill="#66c8ff" stroke-width="2"/><path d="M262.4767,196.99681c0,0 11.86008,-1.39546 12.66774,0.49871c0.25472,0.59741 -15.68946,3.61894 -15.68946,3.61894z" data-paper-data="{&quot;origPos&quot;:null}" fill="#0a0a0a" stroke-width="1"/></g><g><path d="M267.41647,241.04732c0,0 1.58942,15.70126 -0.62851,16.08517c-6.65382,1.1518 -24.2969,1.12 -39.31515,1.81952c-1.6871,0.07858 -2.15468,-14.87423 -2.15468,-14.87423l0.33992,-30.6781c0,0 0.68977,-13.58057 2.23631,-13.65261c10.00402,-0.46597 24.92734,-2.09269 31.55293,-0.7559c2.20853,0.4456 4.85953,14.74753 4.85953,14.74753z" data-paper-data="{&quot;origPos&quot;:null}" fill="#66c8ff" stroke="#000000" stroke-width="3.5" stroke-linecap="round"/><path d="M234.2576,223.01258c-1.30656,0.06085 -1.42525,-2.42388 -1.42525,-2.42388c-0.24616,-5.15353 -0.57143,-11.96354 -0.8176,-17.11707c0,0 -0.11867,-2.48474 1.18789,-2.54559c1.30656,-0.06085 1.42524,2.42388 1.42524,2.42388c0.24616,5.15353 0.49232,10.30705 0.73848,15.46058l0.07912,1.65649c0,0 0.11868,2.48474 -1.18788,2.54559z" fill="#ffffff" stroke="none" stroke-width="0.5" stroke-linecap="butt"/><path d="M246.69822,228.77349c-1.30656,0.06085 -1.45567,-3.06068 -1.45567,-3.06068c-0.30925,-6.47428 -0.71789,-15.02958 -1.02713,-21.50387c0,0 -0.14909,-3.12153 1.15747,-3.18238c1.30656,-0.06085 1.45566,3.06068 1.45566,3.06068c0.30925,6.47428 0.61848,12.94857 0.92773,19.42285l0.0994,2.08102c0,0 0.1491,3.12153 -1.15746,3.18238z" fill="#ffffff" stroke="none" stroke-width="0.5" stroke-linecap="butt"/></g><g fill="none" stroke="#b9b9b9" stroke-width="3"><path d="M256.72686,204.19971c-0.92989,-1.29846 -0.09132,-2.57752 1.06007,-3.87615c1.15141,-1.29861 2.36576,-1.75342 3.10953,-0.8266c1.57698,1.96515 0.13971,3.04001 -0.76189,4.05686c-1.15142,1.29863 -2.09447,2.47966 -3.40772,0.64589z" stroke-linecap="butt"/><path d="M255.23788,206.23347l2.44258,-2.69028" stroke-linecap="round"/><path d="M251.69833,207.10331c1.15141,-1.29861 2.36576,-1.75342 3.10953,-0.8266c1.57698,1.96515 0.13971,3.04001 -0.76189,4.05686c-1.15141,1.29862 -2.09446,2.47966 -3.40771,0.64589c-0.92989,-1.29846 -0.09133,-2.57752 1.06006,-3.87616z" stroke-linecap="butt"/><path d="M251.59184,210.32294l-2.44258,2.6903" stroke-linecap="round"/><path d="M243.43783,212.94561c0.29182,-1.6586 1.65432,-1.59564 3.22149,-1.24158c1.56716,0.35406 2.61301,1.26246 2.45373,2.52374c-0.33769,2.67425 -1.93156,1.91286 -3.15869,1.63562c-1.56716,-0.35405 -2.92867,-0.57539 -2.51653,-2.91777z" stroke-linecap="butt"/><path d="M244.45773,213.48386l-3.2817,-0.78889" stroke-linecap="round"/><path d="M235.8616,209.07128c0.81122,-1.37458 2.05249,-0.66946 3.38839,0.39852c1.3359,1.06798 2.00819,2.39394 1.44932,3.469c-1.18497,2.27943 -2.41271,0.82709 -3.45876,-0.00917c-1.33589,-1.06799 -2.52457,-1.91711 -1.37895,-3.85836z" stroke-linecap="butt"/><path d="M233.84866,207.76748l2.78192,2.27971" stroke-linecap="round"/><path d="M228.86775,203.40466c0.81123,-1.37456 2.0525,-0.66946 3.38839,0.39852c1.3359,1.06798 2.00819,2.39394 1.44932,3.469c-1.18497,2.27942 -2.41271,0.82709 -3.45875,-0.00917c-1.33589,-1.06798 -2.52457,-1.9171 -1.37895,-3.85836z" stroke-linecap="butt"/><path d="M229.63676,204.38056l-2.78194,-2.2797" stroke-linecap="round"/></g><g><g data-paper-data="{&quot;index&quot;:null}"><g stroke="#000000" stroke-width="3" stroke-linecap="round"><path d="M280.39696,234.70138c0,0 3.26633,10.24564 2.96729,14.84382c-15.66135,6.8551 -25.4945,4.53876 -25.4945,4.53876c-2.00526,0.45872 -2.48808,-6.80059 -2.48808,-6.80059c0,0 -1.41293,-14.14078 -2.31729,-23.19159c-0.59384,-5.94313 -1.52163,-15.22854 -1.52163,-15.22854c0,0 -0.32535,-5.9158 0.77755,-6.07913c6.6352,-0.98263 12.861,-3.22526 16.29601,-2.54827c1.14501,0.22567 2.91226,5.66763 2.91226,5.66763l8.86834,28.79789z" data-paper-data="{&quot;origPos&quot;:null}" fill="#582700"/><path d="M281.27605,240.39345l-25.53677,4.76007l-0.62473,-3.34561l25.52898,-5.01859z" data-paper-data="{&quot;origPos&quot;:null}" fill="none"/></g><path d="M254.81467,241.39675l-2.86169,-36.75909l1.1434,-0.90045l15.70956,-3.0616l11.02622,35.79714z" fill="#66c8ff" stroke="#000000" stroke-width="1" stroke-linecap="round"/><path d="M255.6202,244.7225l-0.4407,-2.29011l25.36969,-4.76074l0.4407,2.29011z" fill="#ffffff" stroke="none" stroke-width="0" stroke-linecap="butt"/></g><g fill="#fffc96" stroke="#000000" stroke-width="2" stroke-linecap="round"><path d="M278.37579,230.13539c0,0 4.42608,0.33524 4.4575,3.27932c0.05026,4.71043 -33.06035,0.12994 -33.41259,-4.77603c-0.14392,-2.00446 3.05684,-2.27607 3.05684,-2.27607l0.35807,1.83795c0,0 6.02157,2.2073 13.72085,3.44553c7.59261,1.22107 12.72228,0.66587 12.72228,0.66587z"/><path d="M275.869,221.88108c0,0 2.96728,-2.43224 4.00013,-0.34606c2.1681,4.37919 -26.75927,24.73931 -27.81263,20.22319c-0.63793,-2.73507 2.6613,-3.9536 2.6613,-3.9536l0.30359,1.34391c0,0 4.89292,-2.23926 11.35329,-6.95649c6.46037,-4.71723 9.93381,-9.07996 9.93381,-9.07996z" data-paper-data="{&quot;index&quot;:null}"/></g></g><path d="M280.17849,253.91771c0,0 4.41784,-1.02642 6.68122,-0.26656c1.73271,0.58168 2.39536,2.38846 2.91115,4.12242c1.41573,4.7595 0.14963,9.61376 0.42682,17.32516c0.07548,2.10025 -3.00953,3.39358 -5.13678,3.33199c-1.98961,-0.05762 -5.4446,-0.27815 -5.4446,-0.27815l-33.4825,-1.70473c0,0 -4.32759,-0.36046 -5.16382,-2.06162c-2.01379,-4.09672 -0.71348,-8.62555 -1.13668,-13.16021c-0.14342,-1.53674 4.70872,-1.83404 4.70872,-1.83404c0,0 9.01096,-1.38422 14.77846,-2.27018c8.14012,-1.25044 20.85804,-3.20407 20.85804,-3.20407z" data-paper-data="{&quot;index&quot;:null}" fill="#4b4b4b" stroke="#000000" stroke-width="3" stroke-linecap="round"/><path d="M240.91237,265.47173c0,0 2.06417,3.99136 1.85735,6.34323c-0.1583,1.80045 -1.77683,2.86727 -3.3588,3.77589c-4.34234,2.49399 -9.41818,2.43889 -16.93519,4.54589c-2.04731,0.57384 -4.05572,-2.07569 -4.50306,-4.1303c-0.41838,-1.92166 -1.02644,-5.28744 -1.02644,-5.28744l-6.31797,-32.51463c0,0 -0.6788,-4.23595 0.79441,-5.44402c3.54779,-2.90924 8.31178,-2.74364 12.67,-4.23217c1.47695,-0.50445 2.92782,4.07747 2.92782,4.07747c0,0 3.51268,8.31044 5.76098,13.62958c3.1732,7.50731 8.13091,19.23654 8.13091,19.23654z" data-paper-data="{&quot;index&quot;:null}" fill="#4b4b4b" stroke="#000000" stroke-width="3" stroke-linecap="round"/><path d="M223.2042,199.75364c0,0 -2.04834,-4.10348 -2.19903,-5.17879c-0.45208,-3.22594 -1.4908,-17.37755 -2.38652,-30.17084c-0.13855,-1.97881 1.27873,-5.18198 1.27873,-5.18198c0,0 2.11117,-1.77597 3.38533,-1.86987c14.05777,-1.03604 27.35764,-3.11261 32.68038,-1.92477c1.77424,0.39595 5.07589,1.91203 5.07589,1.91203c0,0 1.02502,4.3359 1.23961,5.45513c0.07152,0.37308 0.1128,0.58299 0.1617,0.95961c1.46494,11.28461 1.93225,24.42689 1.87735,29.03157c-0.0183,1.53491 -1.68629,4.04445 -1.68629,4.04445c0,0 -1.21101,2.81637 -5.59935,3.92693c-4.8016,1.21514 -16.66291,1.65153 -28.8959,2.06434z" fill="#582700" stroke="#000000" stroke-width="2.5" stroke-linecap="round"/><text transform="translate(222.36513,188.18158) rotate(-6.44196) scale(0.38486,0.38486)" font-size="40" xml:space="preserve" fill="#000000" fill-rule="nonzero" stroke="none" stroke-width="1" stroke-linecap="butt" stroke-linejoin="miter" stroke-miterlimit="10" stroke-dasharray="" stroke-dashoffset="0" font-family="Sans Serif" font-weight="normal" text-anchor="start" style="mix-blend-mode: normal"><tspan x="0" dy="0">( ͡° ͜ʖ ͡°)</tspan></text><g data-paper-data="{&quot;index&quot;:null}"><g data-paper-data="{&quot;origRot&quot;:0}" stroke="#000000" stroke-width="3" stroke-linecap="round"><path d="M269.47618,247.39836c0.27238,2.43802 -9.26992,1.83328 -9.26992,1.83328c0,0 -25.28956,-0.94158 -37.23592,-1.33907c-4.99194,-0.85758 -10.49173,-39.50642 -6.7005,-44.11406c1.69,-2.05392 11.95481,-5.22167 13.70287,-3.98621c3.32731,2.35156 10.45029,17.88652 10.45029,17.88652l-4.4983,0.63294l11.94083,-0.60316c0,0 13.82609,-1.83825 19.83366,-1.09759c3.33187,0.41077 1.77698,30.78738 1.77698,30.78738z" data-paper-data="{&quot;origPos&quot;:null}" fill="#582700"/><path d="M258.67655,247.59867l-1.93418,-29.99441" fill="none"/><path d="M252.08918,218.10401l2.24561,29.98013" data-paper-data="{&quot;origPos&quot;:null}" fill="none"/></g><path d="M258.52293,248.22948l-3.05658,0.1577l-2.18814,-30.67103l3.05659,-0.1577z" fill="#ffffff" stroke="none" stroke-width="0" stroke-linecap="butt"/><path d="M222.66629,248.06412l-4.39687,-10.36767l-2.90205,-23.8627l1.07365,-8.41734l3.59526,-3.89623l8.11588,-0.84072l1.62316,-0.16814l9.55154,16.12626l-3.2133,0.58456l0.26439,1.98622l14.43718,-0.74043l3.1872,30.12569l-29.74591,-0.94589z" fill="#66c8ff" stroke="#000000" stroke-width="0.5" stroke-linecap="round"/></g><path d="M263.4318,157.77521l-0.7583,-0.472c-0.0925,-0.02428 -0.18491,-0.04806 -0.27727,-0.07136c-0.20139,0.32603 -0.61059,0.71803 -1.37045,0.52661c-0.70035,-0.17643 -0.89878,-0.647 -0.94015,-1.0183c-2.70184,-0.47315 -5.38207,-0.60517 -8.18997,-0.65844c-7.84397,0.11588 -15.66265,0.83249 -23.48641,1.38946c-2.56584,0.18266 -8.23447,1.61088 -10.50021,0.08091c-1.105,-0.74615 -0.83672,-2.70065 -1.01485,-3.74382c-0.51616,-3.02288 -1.11912,-6.14772 -1.35412,-9.2066c-0.28007,-4.00018 -2.05505,-7.46397 -2.85105,-11.35033c-0.39906,-1.94836 -1.21745,-3.87739 0.44093,-5.7034c0.46825,-0.51558 1.37179,-0.29837 2.06776,-0.38377c2.54355,-0.31209 5.02683,-0.3148 7.57357,-0.19704c8.0706,0.37316 16.02062,0.33111 24.07179,1.19221c3.2481,0.35119 6.48491,0.19072 9.74954,0.0686c1.9187,-0.07177 3.62571,-0.73494 4.92718,1.34428c0.77721,1.24167 0.5619,5.27134 0.61465,6.75344c0.20346,5.71494 1.62054,12.64851 0.82395,18.46824c0.12113,0.03017 0.24237,0.06109 0.36373,0.09277l1.35887,0.71408c0,0 1.101,0.6168 0.4764,1.70403c-0.62461,1.08723 -1.7256,0.47044 -1.7256,0.47044z" data-paper-data="{&quot;index&quot;:null}" fill="#000000" stroke="none" stroke-width="0.5" stroke-linecap="butt"/><path d="M238.48548,172.10852c0.69271,1.04622 -0.36675,1.73027 -0.36675,1.73027l-0.70555,0.43461c-1.12977,1.02889 -1.76198,1.50875 -2.62605,1.76949l0.09786,0.20575l-1.25038,0.58c-0.14365,0.07071 -0.3034,0.11544 -0.47342,0.12755c-0.6973,0.04964 -1.3033,-0.46831 -1.35356,-1.15688c-0.02905,-0.39802 0.13393,-0.76593 0.41135,-1.01514l0.9432,-0.862l0.02317,0.02472l0.03561,-0.0752c0.82718,-0.58938 1.6603,-1.17079 2.50211,-1.73963c0,0 0.35076,-0.23699 0.78484,-0.23562l0.22542,-0.15008c0,0 1.05947,-0.68405 1.75218,0.36216z" fill="#582700" stroke="none" stroke-width="0.5" stroke-linecap="butt"/></g></g></svg>