<svg version="1.1" xmlns="http://www.w3.org/2000/svg" xmlns:xlink="http://www.w3.org/1999/xlink" width="173" height="208" viewBox="0,0,173,208"><defs><radialGradient cx="260.24198" cy="144.81953" r="45.00997" gradientUnits="userSpaceOnUse" id="color-1"><stop offset="0" stop-color="#8f8256"/><stop offset="1" stop-color="#8d681f"/></radialGradient><radialGradient cx="260.42841" cy="151.40159" r="19.17091" gradientUnits="userSpaceOnUse" id="color-2"><stop offset="0" stop-color="#0c0b0b"/><stop offset="1" stop-color="#533907"/></radialGradient><radialGradient cx="289.26189" cy="145.94932" r="16.02496" gradientUnits="userSpaceOnUse" id="color-3"><stop offset="0" stop-color="#36270c"/><stop offset="1" stop-color="#0c0b0b"/></radialGradient><radialGradient cx="231.43571" cy="145.8854" r="16.02496" gradientUnits="userSpaceOnUse" id="color-4"><stop offset="0" stop-color="#36270c"/><stop offset="1" stop-color="#0c0b0b"/></radialGradient></defs><g transform="translate(-153.5,-76)"><g data-paper-data="{&quot;isPaintingLayer&quot;:true}" fill-rule="nonzero" stroke-linejoin="miter" stroke-miterlimit="10" stroke-dasharray="" stroke-dashoffset="0" style="mix-blend-mode: normal"><path d="M153.5,284v-208h173v208z" fill="none" stroke="none" stroke-width="0" stroke-linecap="butt"/><path d="M231.21542,226.47703c0,0 -1.1213,-4.88333 0.6051,-5.19805c5.09428,-0.9287 9.6681,-3.55887 14.75689,-2.78562c2.11316,0.32111 3.79861,4.49068 3.79861,4.49068l11.85283,32.58198c0,0 1.27197,3.3488 1.92842,5.29789c0.70189,2.08393 0.20496,5.51676 -2.11854,6.06599c-8.53104,2.01654 -13.47162,4.70959 -19.10819,4.72422c-2.05349,0.00533 -4.23055,-0.11285 -5.38456,-1.65241c-1.50743,-2.01105 -1.70044,-6.68175 -1.70044,-6.68175z" fill="#000000" stroke="#000000" stroke-width="3" stroke-linecap="round"/><path d="M228.27081,262.66591c0,0 0.26286,4.66443 -1.04229,6.8149c-0.99908,1.64628 -3.15533,1.98106 -5.20055,2.18065c-5.61386,0.54786 -10.79563,-1.63744 -19.48659,-2.79176c-2.36702,-0.31438 -3.19623,-3.67892 -2.70038,-5.82146c0.46379,-2.00394 1.40408,-5.46137 1.40408,-5.46137l8.62817,-33.58667c0,0 1.2721,-4.31499 3.34493,-4.8452c4.9917,-1.27679 9.80216,0.88263 14.96509,1.29793c1.74964,0.14073 1.10886,5.10929 1.10886,5.10929z" fill="#000000" stroke="#000000" stroke-width="3" stroke-linecap="round"/><g data-paper-data="{&quot;index&quot;:null}"><g data-paper-data="{&quot;index&quot;:null}"><path d="M212.85532,171.27454c-0.5777,-3.41693 12.34015,-15.8205 14.88465,-15.80764c2.76547,0.01398 12.32218,13.07223 12.32218,13.07223l-2.35221,3.05581l15.18281,-20.49236c0,0 4.87756,-7.33512 6.7324,-5.69329c0,0 11.8406,3.26179 24.35953,19.51724c-2.44685,4.99628 -12.07749,13.8528 -12.07749,13.8528c0,0 -20.44971,20.63086 -25.55832,19.63519c-5.10856,-0.99562 -32.95139,-23.93361 -33.4935,-27.14003z" fill="#68330c" stroke="none" stroke-width="3" stroke-linecap="round"/><path d="M252.93106,150.76932c0,0 5.71963,-6.60813 7.52065,-4.96795c0,0 11.60043,3.36939 23.68226,19.52933c-1.33545,2.63038 -4.73874,6.33492 -7.59359,9.19222c-0.4044,-0.36425 -0.77863,-0.6867 -1.0887,-0.95012c-6.87269,-5.83872 -17.01073,-13.20204 -24.24497,-19.80569c-0.07168,-0.06545 1.72437,-2.9978 1.72437,-2.9978z" fill="#ffddb7" stroke="#000000" stroke-width="2" stroke-linecap="butt"/><path d="M252.38437,153.01794l24.4665,20.95347l-2.68266,2.69417l-24.39329,-20.51028z" data-paper-data="{&quot;index&quot;:null}" fill="#ffffff" stroke="#000000" stroke-width="2" stroke-linecap="round"/><path d="M213.1111,171.22688c-0.57769,-3.41691 12.34014,-15.82048 14.88465,-15.80762c2.76545,0.01398 12.32217,13.07223 12.32217,13.07223l-2.35221,3.05583l15.1828,-20.49237c0,0 4.87755,-7.33514 6.73238,-5.69332c0,0 11.8406,3.26179 24.35953,19.51724c-2.44686,4.99628 -12.07746,13.85282 -12.07746,13.85282c0,0 -20.4497,20.63085 -25.55832,19.63518c-5.10855,-0.99562 -32.95139,-23.93361 -33.4935,-27.14003z" data-paper-data="{&quot;origPos&quot;:null}" fill="none" stroke="#000000" stroke-width="2.5" stroke-linecap="round"/></g><g stroke-linecap="butt"><path d="M281.64217,113.08154c0,0 0.509,6.90856 -3.35709,6.8963c-1.19269,-0.00378 -7.03056,1.63547 -9.77527,-0.20745c-1.35313,-0.90854 3.24504,-4.24456 0.50209,-8.44944c-0.58133,-0.89115 -17.8394,-1.81578 -17.84418,1.34828c-0.01727,11.39284 -4.52605,6.3922 -5.25105,6.59015c-9.56526,2.61158 -6.78367,-6.31249 -6.78367,-6.31249l0.02712,-8.12574l42.50918,0.13468z" fill="#8c651a" stroke="#000000" stroke-width="2.5"/><g stroke="#000000"><path d="M215.17151,166.22143l0.16849,-50.54121l90.01947,0.28525l-0.16851,50.54117z" fill="#121010" stroke-width="3"/><path d="M215.14798,169.9475l0.1685,-50.54119l90.01948,0.28524l-0.1685,50.54121z" fill="url(#color-1)" stroke-width="2.5"/></g><path d="M248.48857,170.05313l0.12462,-37.37839l23.75512,0.07528l-0.12462,37.3784z" fill="url(#color-2)" stroke="#000000" stroke-width="2.5"/><path d="M273.30962,145.9817c0.29166,-8.6286 7.67017,-15.63781 16.48036,-15.65568c8.81023,-0.01789 15.7159,6.96247 15.42426,15.59097c-0.29166,8.62858 -7.67018,15.63778 -16.48037,15.65566c-8.81024,0.01785 -15.71591,-6.96249 -15.42426,-15.59101z" fill="url(#color-3)" stroke="none" stroke-width="0"/><path d="M215.48339,145.9178c0.29164,-8.62856 7.67019,-15.63778 16.48037,-15.65566c8.81018,-0.01788 15.7159,6.96248 15.42426,15.59099c-0.29166,8.62855 -7.6702,15.63778 -16.48037,15.65566c-8.81018,0.01784 -15.71587,-6.96251 -15.42423,-15.59102z" fill="url(#color-4)" stroke="none" stroke-width="0"/></g></g><g data-paper-data="{&quot;index&quot;:null}" stroke="#000000"><path d="M210.57984,178.77673c0,0 1.86655,-14.41173 4.13121,-14.97233c3.61999,-0.89614 9.74765,-0.78996 16.23894,-0.69722c5.69149,0.08131 11.66252,0.05595 16.46801,0.6343c1.86384,0.22431 3.16161,14.51533 3.16161,14.51533l1.52721,28.00834c0,0 0.59731,16.97307 -1.15337,16.97307c-15.58433,0 -33.85021,0.87248 -40.7965,0.01196c-2.31541,-0.28683 -1.44626,-16.41167 -1.44626,-16.41167z" fill="#68330c" stroke-width="2.5" stroke-linecap="round"/><g><g><path d="M224.08995,163.11664h19.49377v8.89074c-0.29753,1.24583 -0.52663,2.26948 -0.65905,2.79528c-1.30102,5.16634 -8.82273,26.31688 -9.49276,29.83072c-3.22351,-10.72744 -6.32177,-21.6183 -9.34196,-32.54359z" fill="#ffffff" stroke-width="2" stroke-linecap="butt"/><path d="M229.30915,164.01203h8.7347v2.25267c-0.13332,0.30292 -4.06205,6.98763 -4.36228,7.84202c-1.44439,-2.60836 -3.01915,-5.22803 -4.37243,-7.88449z" fill="#ffddb7" stroke-width="1.5" stroke-linecap="butt"/><path d="M233.84781,173.84315l-0.36159,26.79042" fill="none" stroke-width="1.5" stroke-linecap="round"/><path d="M233.56557,204.10528v18.54721" fill="none" stroke-width="2" stroke-linecap="round"/><path d="M234.24994,176.97374c0,-0.28257 0.23499,-0.51165 0.52484,-0.51165c0.28985,0 0.52483,0.22908 0.52483,0.51165c0,0.28257 -0.23497,0.51164 -0.52483,0.51164c-0.28985,0 -0.52484,-0.22907 -0.52484,-0.51164z" fill="#000000" stroke-width="0.5" stroke-linecap="butt"/><path d="M234.13331,183.11352c0,-0.28257 0.23497,-0.51164 0.52483,-0.51164c0.28985,0 0.52484,0.22907 0.52484,0.51164c0,0.28257 -0.23499,0.51165 -0.52484,0.51165c-0.28985,0 -0.52483,-0.22908 -0.52483,-0.51165z" fill="#000000" stroke-width="0.5" stroke-linecap="butt"/><path d="M234.11317,189.2533c0,-0.28257 0.23499,-0.51165 0.52484,-0.51165c0.28985,0 0.52483,0.22908 0.52483,0.51165c0,0.28257 -0.23497,0.51165 -0.52483,0.51165c-0.28985,0 -0.52484,-0.22908 -0.52484,-0.51165z" fill="#000000" stroke-width="0.5" stroke-linecap="butt"/><path d="M234.615,219.95213c0,-0.28257 0.23497,-0.51164 0.52483,-0.51164c0.28985,0 0.52484,0.22907 0.52484,0.51164c0,0.28257 -0.23499,0.51165 -0.52484,0.51165c-0.28985,0 -0.52483,-0.22908 -0.52483,-0.51165z" fill="#000000" stroke-width="0.5" stroke-linecap="butt"/><path d="M234.3616,213.69865c0,-0.28257 0.23499,-0.51164 0.52484,-0.51164c0.28985,0 0.52484,0.22907 0.52484,0.51164c0,0.28257 -0.23499,0.51165 -0.52484,0.51165c-0.28985,0 -0.52484,-0.22908 -0.52484,-0.51165z" fill="#000000" stroke-width="0.5" stroke-linecap="butt"/><path d="M233.22161,206.23992l-18.12194,-27.33334l5.47077,-4.66666l-3.07731,-5.66667l5.47078,-2.66666" fill="none" stroke-width="2" stroke-linecap="round"/><path d="M243.99267,165.72217l5.09137,2.68866l-2.4422,5.65425l4.05804,4.68865l-17.02838,27.76437" fill="none" stroke-width="2" stroke-linecap="round"/><g stroke-width="1.5" stroke-linecap="round"><path d="M241.86501,210.70489l0.08938,-3.31059l2.94907,1.04546l2.14478,-3.22347l0.17873,5.57574z" fill="#ffffff"/><path d="M248.98307,211.04223h-8.66849" fill="none"/></g></g><path d="M232.80991,173.47543l-7.39797,3.04546" fill="none" stroke-width="1.5" stroke-linecap="round"/><path d="M233.96001,173.733l7.52231,2.5" fill="none" stroke-width="1.5" stroke-linecap="round"/></g></g><path d="M215.03824,165.77239c-4.58447,-1.11589 -5.86415,-3.99228 -5.86415,-3.99228c0,0 -1.75465,-2.56026 -1.78265,-4.13085c-0.08399,-4.71179 0.32721,-18.16265 1.78998,-29.71719c0.04883,-0.38562 0.09067,-0.60062 0.16314,-0.98273c0.21735,-1.14632 1.2615,-5.58812 1.2615,-5.58812c0,0 3.43556,-1.56689 5.28419,-1.98036c5.5459,-1.24045 19.4327,0.8223 34.10413,1.81668c1.32977,0.09012 3.5425,1.89763 3.5425,1.89763c0,0 1.49714,3.27121 1.36407,5.2968c-0.86017,13.09573 -1.86163,27.58216 -2.31453,30.88539c-0.07841,0.57189 -0.43999,3.05256 -2.33554,5.09601c-0.49954,0.53851 -2.37107,2.74436 -6.04205,3.07621c-9.2195,0.8334 -25.58297,-0.80391 -29.17062,-1.67718z" fill="#ffddb7" stroke="#000000" stroke-width="2.5" stroke-linecap="round"/><path d="M245.41032,149.53495c0.23108,-3.51799 0.85459,-6.34266 1.39266,-6.30906c0.53809,0.0336 0.78697,2.91277 0.55592,6.43074c-0.23108,3.51799 -0.8546,6.34267 -1.39267,6.30907c-0.53809,-0.0336 -0.78697,-2.91277 -0.55591,-6.43076z" fill="#000000" stroke="#000000" stroke-width="2.5" stroke-linecap="butt"/><path d="M238.72037,149.29547c0.23535,-3.58315 0.75332,-6.46747 1.15688,-6.44224c0.40355,0.0252 0.53993,2.95038 0.30457,6.53354c-0.23535,3.58315 -0.75328,6.46742 -1.15686,6.44223c-0.40355,-0.0252 -0.53994,-2.95036 -0.30459,-6.53352z" fill="#000000" stroke="#000000" stroke-width="2.5" stroke-linecap="butt"/><path d="M253.04032,143.82579c-0.0682,-0.80793 -0.13449,-1.61533 -0.2053,-2.42223c-0.84083,0.41376 -1.6346,0.77061 -1.78798,0.84555c-1.68455,0.8233 -4.38332,2.18653 -6.2342,2.43165c-0.90505,0.11986 -1.99466,0.45329 -2.7401,-0.05894c-0.92183,-0.63343 -0.6794,-3.06299 -0.6526,-3.99556c0.10077,-3.50623 0.20986,-7.01229 0.31572,-10.51841c-1.72794,1.70488 -4.43051,3.15683 -6.09064,4.67412c-3.73451,3.41307 -7.69949,6.4668 -11.57369,9.6841c-1.32888,1.10357 -2.43506,2.1566 -3.89296,3.107c-0.55892,0.36438 -0.97133,1.17987 -1.64401,1.1388c-0.9394,-0.05736 -1.62293,-0.92521 -2.43442,-1.38782c-0.08328,-1.60805 -0.16797,-3.6487 -0.00614,-5.49147c-0.83929,1.0606 -1.94617,2.08039 -2.59973,3.003c-2.27842,3.21624 -6.41109,12.47857 -6.41109,12.47857c-3.9769,-0.19488 -7.54437,-3.82086 -9.77123,-6.71921c-2.13203,-0.09764 -4.23194,-0.34365 -6.37952,-0.40593c-0.51202,-0.01486 -3.37213,-0.05396 -3.68399,-0.27223c-1.92149,-1.34486 -1.29832,-2.58513 -0.70764,-4.24996c0.47261,-1.33205 1.27447,-2.45447 2.27403,-3.4065c-1.13362,-0.7141 -2.43343,-1.58567 -2.76445,-2.52565c-0.59849,-1.69959 0.09244,-2.35577 0.89824,-3.61194c0.90178,-1.40581 2.04066,-2.59995 3.33433,-3.62005c-0.71721,-0.45687 -1.48418,-0.97619 -1.56809,-1.16951c-0.88582,-2.04088 0.10981,-2.78807 1.09666,-4.22578c1.70234,-2.4801 4.62566,-3.86701 7.37139,-4.86997c0.25047,-2.58632 1.56971,-4.16944 2.93485,-6.43268c1.79783,-2.98062 5.06723,-7.30977 9.99219,-10.54404c5.40441,-3.54911 12.12472,-5.50298 14.20437,-5.90844c4.51305,-0.87987 10.2512,-0.63135 12.468,-0.34904c4.0837,0.5201 11.30535,2.63171 16.4376,6.03791c5.17216,3.43269 7.88269,7.83843 8.25599,8.55049c3.25889,6.21626 5.30146,12.0942 5.10303,19.01305c-0.05196,1.72996 0.76808,10.79623 -2.0524,15.64427c-3.4264,5.88957 -10.92789,8.34995 -11.23968,8.4407c-0.36927,0.10748 -1.86656,-0.16704 -2.05092,-1.24745c-0.44403,-2.60248 0.87731,-7.96899 1.57547,-10.09882c0.13051,-0.34487 0.25097,-0.69309 0.36614,-1.04309c-0.1183,-0.25145 -0.13715,-0.47438 -0.13715,-0.47438z" fill="#000000" stroke="none" stroke-width="0.5" stroke-linecap="butt"/><g><g data-paper-data="{&quot;index&quot;:null}"><path d="M239.69046,183.88733c2.48126,0.34201 7.10168,-2.94655 6.77589,-0.70005c-0.21705,1.49661 -8.31344,21.56382 -10.05925,22.55179c-0.87471,0.49502 -2.20545,0.70965 -3.03372,0.59549c-1.2174,-0.16781 -2.13265,-0.93331 -2.69771,-2.02507c-0.58663,-1.13354 2.02863,-22.09273 2.19455,-23.23703c0.32581,-2.24652 4.33896,2.47278 6.82026,2.81479z" fill="#485e84" stroke="#000000" stroke-width="1.5" stroke-linecap="butt"/><g stroke-linecap="butt"><path d="M240.74558,176.45282c4.49552,0.61965 7.7996,3.46782 7.37992,6.36157c-0.41967,2.89375 -4.40424,4.73727 -8.89974,4.11765c-4.49553,-0.61966 -7.79962,-3.46785 -7.37994,-6.36158c0.41967,-2.89376 4.40422,-4.7373 8.89972,-4.11765z" fill="#485e84" stroke="#000000" stroke-width="1.5"/><path d="M243.80743,183.55347l3.89227,-1.09005c0,0 -0.99013,1.7428 -1.6583,2.26509c-1.41722,1.07462 -3.16099,1.22553 -3.16099,1.22553z" fill="#6987bb" stroke="none" stroke-width="0"/><path d="M240.10576,183.8777l1.67982,-0.07829c0,0 -0.03356,1.0312 -0.109,1.38492c-0.08831,0.41419 -0.47394,1.11535 -0.47394,1.11535l-1.97253,-0.21907z" fill="#6987bb" stroke="none" stroke-width="0"/></g><g><path d="M239.70247,182.85094c-6.20164,-0.85484 -9.12394,-4.88729 -8.24711,-10.93318c0.87684,-6.04581 6.93287,-10.21018 13.13456,-9.35538c6.20166,0.85481 9.97252,5.74162 9.0957,11.78751c-0.87684,6.04583 -7.78144,9.35588 -13.98312,8.50108z" fill="#2c394f" stroke="#000000" stroke-width="1.5" stroke-linecap="butt"/><path d="M246.57058,163.69651c0,0 7.71707,3.56864 6.9499,8.8583c-0.43501,2.99961 -2.3839,5.90212 -4.58311,7.92009c-1.56683,1.43769 -3.77088,2.31172 -5.96303,2.00957c-4.50593,-0.6211 -5.82463,-2.79809 -5.05744,-8.08776c0.38313,-2.64162 2.4401,-5.66739 4.68531,-7.57073c2.25062,-1.90799 3.96839,-3.12946 3.96839,-3.12946z" fill="#485e84" stroke="none" stroke-width="0" stroke-linecap="butt"/><path d="M253.33012,174.36846c0,0 -3.66287,3.72613 -10.8722,2.98667c-7.26844,-0.7455 -10.02295,-4.88691 -10.02295,-4.88691" fill="none" stroke="#000000" stroke-width="0.8" stroke-linecap="round"/><path d="M251.34015,178.99359c0,0 -4.54085,1.73667 -9.18299,1.7789c-6.6899,0.06087 -8.94809,-2.37951 -8.94809,-2.37951" fill="none" stroke="#000000" stroke-width="0.75" stroke-linecap="round"/><path d="M253.02394,169.54929c0,0 -3.76797,3.07794 -11.02714,2.734c-6.98203,-0.33081 -8.76559,-2.70624 -8.76559,-2.70624" fill="none" stroke="#000000" stroke-width="0.8" stroke-linecap="round"/><path d="M233.4931,168.2046c0,0 4.60546,-1.77646 8.21261,-2.18913c4.75115,-0.54358 9.48351,0.15755 9.48351,0.15755" fill="none" stroke="#000000" stroke-width="0.8" stroke-linecap="round"/><path d="M237.43641,181.73164c0,0 -2.02075,-3.70171 -1.3608,-10.10895c0.61586,-5.97907 4.01681,-8.20408 4.01681,-8.20408" fill="none" stroke="#000000" stroke-width="0.8" stroke-linecap="round"/><path d="M242.41479,163.43248c0,0 -0.64332,2.99113 -0.82163,6.32527c-0.15679,2.93207 0.15966,6.13116 0.01826,7.76978c-0.16793,1.94623 -0.85719,5.15137 -0.85719,5.15137" fill="none" stroke="#000000" stroke-width="0.8" stroke-linecap="round"/><path d="M245.32629,163.28264c0,0 2.53185,5.12883 2.04984,9.29511c-0.75652,6.53913 -3.77134,10.37157 -3.77134,10.37157" fill="none" stroke="#000000" stroke-width="0.8" stroke-linecap="round"/><path d="M248.82883,164.25534c0,0 2.02336,3.6597 2.12604,7.86471c0.14786,6.05534 -1.8724,9.01206 -1.8724,9.01206" fill="none" stroke="#000000" stroke-width="0.8" stroke-linecap="round"/><path d="M251.98197,172.83526c-0.44216,-0.06093 -0.7422,-0.5136 -0.67004,-1.01101c0.07212,-0.49742 0.48907,-0.85121 0.93126,-0.79027c0.44221,0.06095 0.74221,0.51358 0.67006,1.011c-0.07212,0.49743 -0.48908,0.85125 -0.93127,0.7903z" fill="#6987bb" stroke="none" stroke-width="0" stroke-linecap="butt"/><path d="M251.57655,169.3498c-0.25514,-0.03516 -0.43269,-0.2653 -0.39663,-0.51399c0.03609,-0.24873 0.27214,-0.42181 0.52725,-0.38666c0.25515,0.03516 0.43271,0.26528 0.39664,0.51398c-0.03606,0.24873 -0.27212,0.42182 -0.52724,0.38667z" fill="#6987bb" stroke="none" stroke-width="0" stroke-linecap="butt"/></g></g><g><path d="M201.28604,162.52508c2.65947,-1.90245 18.62422,3.31244 19.68269,5.37188c1.15041,2.23831 -5.92459,15.4412 -5.92459,15.4412l-3.5842,-0.61452l23.78723,3.64364c0,0 8.28039,0.85453 7.66539,3.04191c0,0 2.20593,10.92921 -6.33977,27.86713c-5.27221,0.12468 -16.84252,-3.92739 -16.84252,-3.92739c0,0 -26.11847,-7.83715 -27.41985,-12.37954c-1.30137,-4.54237 6.47994,-36.65908 8.97561,-38.44432z" fill="#68330c" stroke="none" stroke-width="3" stroke-linecap="round"/><path d="M235.54636,186.25817c0,0 8.0168,1.83987 7.38059,3.98309c0,0 2.01357,10.78056 -6.63471,27.32548c-2.7955,0.02747 -7.37247,-1.16287 -10.9993,-2.26656c0.13944,-0.47957 0.25604,-0.91718 0.34946,-1.27821c2.07085,-8.00194 4.06432,-19.28063 6.63292,-27.89588c0.02545,-0.08538 3.27103,0.13206 3.27103,0.13206z" fill="#ffddb7" stroke="#000000" stroke-width="2" stroke-linecap="butt"/><path d="M233.40663,186.76191l-7.51472,28.55711l-3.41591,-1.03326l7.16908,-28.31172z" data-paper-data="{&quot;index&quot;:null}" fill="#ffffff" stroke="#000000" stroke-width="2" stroke-linecap="round"/><path d="M201.43401,162.71149c2.65947,-1.90245 18.62421,3.31244 19.68268,5.37188c1.15041,2.23831 -5.92459,15.44121 -5.92459,15.44121l-3.5842,-0.61452l23.78723,3.64364c0,0 8.28039,0.85453 7.66539,3.0419c0,0 2.20593,10.92921 -6.33978,27.86713c-5.27221,0.12468 -16.8425,-3.92739 -16.8425,-3.92739c0,0 -26.11847,-7.83715 -27.41985,-12.37953c-1.30137,-4.54237 6.47994,-36.65908 8.97561,-38.44433z" data-paper-data="{&quot;origPos&quot;:null}" fill="none" stroke="#000000" stroke-width="2.5" stroke-linecap="round"/></g></g><g stroke="#000000" stroke-width="1.25" stroke-linecap="butt"><g data-paper-data="{&quot;index&quot;:null}" fill="#000000"><path d="M223.93547,162.70978c-12.40304,-0.91419 -7.49436,-5.29974 -7.49436,-5.29974l15.55446,0.94992c0,0 3.59758,5.10193 -8.06007,4.34981z"/></g><g data-paper-data="{&quot;index&quot;:null}" fill="#ffffff"><path d="M223.93547,162.70978c-12.40304,-0.91419 -7.49436,-5.29974 -7.49436,-5.29974c0,0 10.52308,0.64266 13.14915,0.80304c0.00363,0.00022 -0.91128,1.12228 -0.97627,2.29613c-0.05323,0.96142 0.74444,2.01673 0.7217,2.02107c-1.26934,0.24226 -3.01564,0.33336 -5.40022,0.17952z"/></g></g></g></g></svg>