<svg version="1.1" xmlns="http://www.w3.org/2000/svg" xmlns:xlink="http://www.w3.org/1999/xlink" width="104.159" height="72.91218" viewBox="0,0,104.159,72.91218"><g transform="translate(-201.02669,-188.93831)"><g data-paper-data="{&quot;isPaintingLayer&quot;:true}" fill-rule="nonzero" stroke="#000000" stroke-linejoin="miter" stroke-miterlimit="10" stroke-dasharray="" stroke-dashoffset="0" style="mix-blend-mode: normal"><g data-paper-data="{&quot;origPos&quot;:null,&quot;index&quot;:null,&quot;origRot&quot;:0}" stroke-linecap="round"><path d="M268.63359,205.13261c0,0 1.02262,-4.80633 2.84283,-4.4828c5.37118,0.95468 10.97215,0.18903 15.60046,2.6793c1.92192,1.03409 1.75891,5.39429 1.75891,5.39429l-2.55913,33.60743c0,0 -0.21065,3.47312 -0.41502,5.46505c-0.21851,2.1297 -2.19088,5.05594 -4.69511,4.73403c-9.19473,-1.18198 -15.18065,-0.48867 -20.68466,-2.46004c-2.00519,-0.7182 -4.07739,-1.59151 -4.53578,-3.38863c-0.5988,-2.34752 1.2371,-6.63491 1.2371,-6.63491z" data-paper-data="{&quot;origPos&quot;:null}" fill="#ff0000" stroke-width="3"/><path d="M285.14938,251.15268c0,0 -7.61083,1.53367 -13.64152,0.59842c-4.62696,-0.71756 -14.42559,-3.29607 -14.42559,-3.29607c0,0 -1.03564,-2.85734 -0.79262,-4.4746c0.25601,-1.70368 2.07137,-4.03488 2.07137,-4.03488l27.80801,3.48779z" data-paper-data="{&quot;origPos&quot;:null}" fill="#976e57" stroke-width="2"/><path d="M268.66016,205.46854c0,0 1.02262,-4.80633 2.84283,-4.4828c5.37117,0.95468 10.97214,0.18902 15.60045,2.67931c1.92191,1.03409 1.75891,5.3943 1.75891,5.3943l-2.55914,33.60745c0,0 -0.21065,3.47312 -0.41501,5.46504c-0.21851,2.1297 -2.1909,5.05594 -4.69511,4.73403c-9.19473,-1.18198 -15.18065,-0.48867 -20.68466,-2.46004c-2.0052,-0.71819 -4.07739,-1.59151 -4.53578,-3.38862c-0.5988,-2.34753 1.23711,-6.63491 1.23711,-6.63491z" data-paper-data="{&quot;origPos&quot;:null}" fill="none" stroke-width="3"/></g><g data-paper-data="{&quot;origPos&quot;:null,&quot;origRot&quot;:0,&quot;index&quot;:null}" stroke-width="3" stroke-linecap="round"><path d="M283.42817,249.08458c-1.51664,1.92415 -7.43728,-4.54415 -7.43728,-4.54415c0,0 -11.9719,-12.2482 -19.63454,-20.08772c-5.03159,-5.14773 -12.89285,-13.19043 -12.89285,-13.19043c0,0 -4.76161,-5.32193 -3.86038,-6.29653c5.42194,-5.86339 9.51383,-12.60717 13.21455,-14.52743c1.23359,-0.6401 6.97726,3.16278 6.97726,3.16278l29.94522,20.48416c0,0 10.46872,7.42151 13.94554,11.75242c1.92825,2.40199 -20.2575,23.24692 -20.2575,23.24692z" data-paper-data="{&quot;origPos&quot;:null}" fill="#ffffff"/><path d="M296.30814,220.49271l-19.60086,22.77648" fill="none"/><path d="M292.86773,217.90948l-19.38393,22.96315" data-paper-data="{&quot;origPos&quot;:null}" fill="none"/></g><g data-paper-data="{&quot;origPos&quot;:null,&quot;origRot&quot;:0,&quot;index&quot;:null}" stroke-width="3" stroke-linecap="round"><path d="M282.53525,255.82867l-35.99703,4.53091c0,0 -6.84679,0.7569 -7.65137,-0.37628c-2.41375,-3.39954 -2.97054,-11.26792 -5.11272,-18.96132c-0.35608,-1.27876 6.31163,-3.8356 6.31163,-3.8356c0,0 10.66827,-3.5599 17.49647,-5.83842c10.39869,-3.46996 26.64538,-8.89136 26.64538,-8.89136c0,0 8.22256,-3.04667 8.69197,-0.64202c0,0 7.32592,9.54538 7.39113,29.93584c-4.91447,2.58708 -17.77542,4.07827 -17.77542,4.07827z" data-paper-data="{&quot;origPos&quot;:null}" fill="#ffffff"/><path d="M284.95263,255.06937l-6.87989,-30.2094l3.98494,-0.96707l7.16815,30.09068z" data-paper-data="{&quot;origPos&quot;:null}" fill="none"/></g><g stroke-width="2.5"><path d="M205.27669,249.15191c0,0 -3.19797,-4.38236 -3.323,-6.334c-0.37511,-5.85492 0.323,-20.91558 0.323,-37.33267c0,-2.0814 3.33333,-4.66666 3.33333,-4.66666c0,0 3.8461,-1.86017 5.66775,-1.98402c15.63199,-1.06278 37.02418,0.58368 40.08222,0.79858c1.01935,0.07164 2.61181,1.51877 2.61181,1.51877c0,0 2.72028,2.64487 2.75459,4.33773c0.33223,16.38987 0.21283,38.43368 0.05113,41.9728c-0.0539,1.17971 -1.80573,3.02281 -1.80573,3.02281c0,0 -2.10301,2.40675 -3.02236,2.45341c-2.75805,0.14 -24.72582,-0.45341 -41.0061,-0.45341c-1.69114,0 -5.66667,-3.33333 -5.66667,-3.33333z" data-paper-data="{&quot;origPos&quot;:null}" fill="#ffffff" stroke-linecap="butt"/><path d="M257.61003,206.81857c0,0 5.65928,-2.99789 6,-0.66667c0.34072,2.33122 1.73874,23.49824 1.33333,40.66667c-0.1337,5.66175 -7.33333,0.66667 -7.33333,0.66667z" data-paper-data="{&quot;origPos&quot;:null}" fill="#000000" stroke-linecap="round"/></g></g></g></svg>