<svg version="1.1" xmlns="http://www.w3.org/2000/svg" xmlns:xlink="http://www.w3.org/1999/xlink" width="29.33163" height="43.0138" viewBox="0,0,29.33163,43.0138"><defs><linearGradient x1="230.69715" y1="171.34799" x2="230.69715" y2="176.23068" gradientUnits="userSpaceOnUse" id="color-1"><stop offset="0" stop-color="#6fc0ff" stop-opacity="0"/><stop offset="1" stop-color="#6fc0ff"/></linearGradient><linearGradient x1="235.11381" y1="175.93132" x2="235.11381" y2="180.81402" gradientUnits="userSpaceOnUse" id="color-2"><stop offset="0" stop-color="#6fc0ff" stop-opacity="0"/><stop offset="1" stop-color="#6fc0ff"/></linearGradient></defs><g transform="translate(-226.2863,-153.63968)"><g data-paper-data="{&quot;isPaintingLayer&quot;:true}" fill-rule="nonzero" stroke-linejoin="miter" stroke-miterlimit="10" stroke-dasharray="" stroke-dashoffset="0" style="mix-blend-mode: normal"><text transform="translate(229.78632,187.72708) scale(0.38082,0.38082)" font-size="40" xml:space="preserve" fill="#ffffff" fill-rule="nonzero" stroke="none" stroke-width="1" stroke-linecap="butt" stroke-linejoin="miter" stroke-miterlimit="10" stroke-dasharray="" stroke-dashoffset="0" font-family="Sans Serif" font-weight="normal" text-anchor="start" style="mix-blend-mode: normal"><tspan x="0" dy="0">???</tspan></text><path d="M247.45137,196.02478c-6.79458,-0.13515 -13.38304,-0.28652 -16.05845,-0.93161c-2.44515,-0.58957 -3.14005,-2.16332 -3.14005,-2.16332c0,0 -0.94614,-1.39763 -0.96862,-2.26039c-0.06741,-2.58828 0.08657,-9.98045 0.80931,-16.33615c0.02412,-0.21212 0.04536,-0.33046 0.08207,-0.54076c0.11013,-0.63091 0.6444,-3.07664 0.6444,-3.07664c0,0 1.82078,-0.87849 2.8026,-1.11514c2.94545,-0.70996 10.34569,0.35209 18.15833,0.82316c0.70812,0.0427 1.8944,1.0244 1.8944,1.0244c0,0 0.81252,1.78957 0.75148,2.90313c-0.39462,7.19936 -0.85774,15.1635 -1.08283,16.98067c-0.07503,0.60573 -1.17926,2.92889 -1.17926,2.92889z" fill="#582700" stroke="#000000" stroke-width="1.25" stroke-linecap="round"/><path d="M244.60861,185.48613c0.10797,-1.1217 0.36972,-2.02558 0.5846,-2.01887c0.21489,0.00671 0.30157,0.92146 0.19359,2.04316c-0.10797,1.1217 -0.3697,2.02557 -0.58459,2.01887c-0.21489,-0.00671 -0.30157,-0.92146 -0.1936,-2.04315z" fill="none" stroke="#000000" stroke-width="1.25" stroke-linecap="butt"/><path d="M226.39804,171.0967c-0.35548,-0.60628 0.2508,-0.96176 0.2508,-0.96176l0.74866,-0.41222c0.06712,-0.01877 0.13417,-0.03713 0.20118,-0.05504c-0.48892,-3.26548 0.24215,-7.1747 0.30925,-10.3892c0.0174,-0.83363 -0.13447,-3.09737 0.28705,-3.80158c0.70583,-1.17922 1.65883,-0.81992 2.7246,-0.79478c1.81338,0.04279 3.61162,0.10736 5.41202,-0.11581c4.4628,-0.54789 8.87668,-0.58724 13.35417,-0.86097c1.41291,-0.08638 2.79154,-0.10453 4.20614,0.05077c0.38706,0.04249 0.88693,-0.08678 1.15102,0.19937c0.93532,1.01343 0.49646,2.1044 0.29055,3.20291c-0.41072,2.19118 -1.36833,4.15256 -1.49172,6.40364c-0.10591,1.72154 -0.41559,3.48308 -0.67789,5.1866c-0.09052,0.58787 0.07409,1.68454 -0.53337,2.11278c-1.24558,0.87808 -4.40404,0.12007 -5.82996,0.03771c-4.34792,-0.25114 -8.69431,-0.59206 -13.0499,-0.59506c-1.5584,0.0522 -3.04531,0.14766 -4.54147,0.43507c-0.01999,0.20907 -0.12638,0.47518 -0.51377,0.57992c-0.4203,0.11364 -0.65062,-0.1035 -0.76504,-0.28519c-0.05108,0.01383 -0.1022,0.02794 -0.15335,0.04232l-0.4172,0.27135c0,0 -0.60628,0.35548 -0.96176,-0.2508z" fill="#000000" stroke="none" stroke-width="0.5" stroke-linecap="butt"/><path d="M242.80631,184.09895c-0.18456,-0.46284 0.27828,-0.64741 0.27828,-0.64741l0.36821,-0.13765c0.60225,-0.36788 1.24267,-0.61064 1.90934,-0.72682c0.04937,-0.02144 0.09898,-0.0427 0.14883,-0.06379c0.01324,-0.00618 0.02659,-0.01242 0.04006,-0.01873l0.01947,-0.01004l-0.02188,-0.06011l0.49048,-0.17857c0.04757,-0.01857 0.09886,-0.03009 0.15261,-0.0332c0.27474,-0.01587 0.51032,0.19399 0.52619,0.46872c0.01176,0.20344 -0.10026,0.38541 -0.27074,0.4726c-0.08869,0.08974 -0.18931,0.12986 -0.18931,0.12986c-0.10689,0.04257 -0.2124,0.08546 -0.3168,0.12898c-0.43654,0.21515 -0.79053,0.51733 -1.16776,0.54802c-0.08119,0.04337 -0.16233,0.088 -0.24354,0.13407l-0.40717,0.35621c-0.08098,0.07221 -0.18598,0.1186 -0.3027,0.12535c-0.17014,0.00982 -0.32526,-0.06692 -0.42249,-0.19203c-0.12902,0.03215 -0.44601,0.06832 -0.59108,-0.29547z" data-paper-data="{&quot;index&quot;:null}" fill="#582700" stroke="none" stroke-width="0.5" stroke-linecap="butt"/><path d="M248.48231,185.87755c0.10797,-1.06253 0.36972,-1.91873 0.5846,-1.91237c0.21489,0.00635 0.30157,0.87285 0.19359,1.93538c-0.10797,1.06253 -0.3697,1.91872 -0.58459,1.91237c-0.21489,-0.00635 -0.30157,-0.87285 -0.1936,-1.93537z" fill="none" stroke="#000000" stroke-width="1.25" stroke-linecap="butt"/><path d="M250.97134,184.4122c-0.14507,0.36379 -0.46206,0.32762 -0.59108,0.29547c-0.09723,0.12511 -0.25235,0.20185 -0.42249,0.19203c-0.11672,-0.00675 -0.22172,-0.05314 -0.3027,-0.12535l-0.40717,-0.35621c-0.08121,-0.04607 -0.16235,-0.0907 -0.24354,-0.13407c-0.37723,-0.03069 -0.73122,-0.33287 -1.16776,-0.54802c-0.1044,-0.04352 -0.20991,-0.08641 -0.3168,-0.12898c0,0 -0.10062,-0.04012 -0.18931,-0.12986c-0.17048,-0.08719 -0.2825,-0.26916 -0.27074,-0.4726c0.01587,-0.27473 0.25145,-0.48459 0.52619,-0.46872c0.05375,0.00311 0.10504,0.01463 0.15261,0.0332l0.49048,0.17857l-0.02188,0.06011l0.01947,0.01004c0.01347,0.00631 0.02682,0.01255 0.04006,0.01873c0.04985,0.02109 0.09946,0.04235 0.14883,0.06379c0.66667,0.11618 1.30709,0.35894 1.90934,0.72682l0.36821,0.13765c0,0 0.46284,0.18457 0.27828,0.64741z" data-paper-data="{&quot;index&quot;:null}" fill="#582700" stroke="none" stroke-width="0.5" stroke-linecap="butt"/><g data-paper-data="{&quot;index&quot;:null}" stroke="#000000" stroke-width="0.625" stroke-linecap="butt"><g data-paper-data="{&quot;index&quot;:null}" fill="#000000"><path d="M241.19019,190.63292c3.15768,0.70903 1.79156,1.81737 1.79156,1.81737l-4.2089,-0.96064c0,0 -0.95143,-1.58004 2.41733,-0.85674z"/></g><g data-paper-data="{&quot;index&quot;:null}" fill="#ffffff"><path d="M241.19018,190.63291c0.64591,0.14503 1.10254,0.30677 1.42029,0.47232c0.0057,0.00296 -0.2911,0.22803 -0.35429,0.49421c-0.07714,0.32501 0.07569,0.70252 0.07471,0.7023c-0.7106,-0.16218 -3.55804,-0.81208 -3.55804,-0.81208c0,0 -0.95143,-1.58004 2.41733,-0.85674z"/></g></g><g stroke="none" stroke-linecap="butt"><path d="M231.95897,173.78934c0,1.34832 -0.56494,2.44135 -1.26182,2.44135c-0.69688,0 -1.26182,-1.09303 -1.26182,-2.44135c0,-1.34832 0.56494,-2.44135 1.26182,-2.44135c0.69688,0 1.26182,1.09303 1.26182,2.44135z" fill="url(#color-1)" stroke-width="0"/><path d="M232.19322,174.23826c0.23684,0.06967 0.16718,0.30651 0.16718,0.30651l-0.10787,0.36629c-0.41456,1.1172 -2.34302,2.22448 -2.93915,0.58199c-0.37334,-1.02864 -0.04008,-2.54224 -0.1242,-3.63238c0,0 -0.01893,-0.24615 0.22722,-0.26509c0.24615,-0.01893 0.26509,0.22722 0.26509,0.22722c0.07877,1.02715 -0.25629,2.53568 0.09525,3.49965c0.41662,1.14242 1.75509,0.14416 2.00671,-0.56551l0.10327,-0.35151c0,0 0.06967,-0.23684 0.30651,-0.16718z" fill="#000000" stroke-width="0.5"/></g><g stroke="none" stroke-linecap="butt"><path d="M236.37563,178.37267c0,1.34832 -0.56493,2.44135 -1.26182,2.44135c-0.69689,0 -1.26182,-1.09303 -1.26182,-2.44135c0,-1.34832 0.56493,-2.44135 1.26182,-2.44135c0.69689,0 1.26182,1.09303 1.26182,2.44135z" fill="url(#color-2)" stroke-width="0"/><path d="M236.60989,178.8216c0.23684,0.06967 0.16718,0.30651 0.16718,0.30651l-0.10787,0.36629c-0.41456,1.1172 -2.34302,2.22449 -2.93915,0.582c-0.37333,-1.02864 -0.04008,-2.54224 -0.1242,-3.63237c0,0 -0.01893,-0.24615 0.22722,-0.26508c0.24615,-0.01893 0.26509,0.22721 0.26509,0.22721c0.07877,1.02715 -0.25629,2.53568 0.09525,3.49965c0.41662,1.14242 1.75509,0.14416 2.00671,-0.56551l0.10327,-0.35151c0,0 0.06967,-0.23685 0.30651,-0.16718z" fill="#000000" stroke-width="0.5"/></g></g></g></svg>