<svg version="1.1" xmlns="http://www.w3.org/2000/svg" xmlns:xlink="http://www.w3.org/1999/xlink" width="135.62543" height="137.78389" viewBox="0,0,135.62543,137.78389"><g transform="translate(-171.32689,-111.1046)"><g data-paper-data="{&quot;isPaintingLayer&quot;:true}" fill-rule="nonzero" stroke-linecap="round" stroke-linejoin="miter" stroke-miterlimit="10" stroke-dasharray="" stroke-dashoffset="0" style="mix-blend-mode: normal"><g data-paper-data="{&quot;index&quot;:null}"><path d="M239.14269,156.25906c0,0 58.34662,-7.45392 65.30963,2.0992c4.7861,6.56647 -1.93037,49.96133 -1.93037,49.96133l-69.492,0.83969" data-paper-data="{&quot;index&quot;:null}" fill="#ffcde0" stroke="#561b25" stroke-width="1.5"/><path d="M252.97669,196.86509c0,0 8.04032,11.91832 17.05129,24.27314c0.54349,0.74514 -4.44019,7.25147 -8.42156,10.60132c-5.42875,4.56766 -21.17687,14.30229 -21.17687,14.30229c0,0 -67.34124,-32.42188 -66.59653,-69.66705c0.59949,-29.98199 66.59655,-62.41662 66.59655,-62.41662c0,0 15.74812,9.73463 21.17687,14.30229c3.98137,3.34985 8.96502,9.85618 8.42156,10.60132c-9.01095,12.35482 -15.44269,20.17507 -15.44269,20.17507" data-paper-data="{&quot;index&quot;:null}" fill="#ffcde0" stroke="#561b25" stroke-width="1.5"/><path d="M239.14269,156.25906c0,0 58.34662,-7.45392 65.30963,2.0992c4.7861,6.56647 -1.93037,49.96133 -1.93037,49.96133l-69.492,0.83969" data-paper-data="{&quot;index&quot;:null}" fill="#9c77bf" stroke="#2d2238" stroke-width="5"/><path d="M252.97669,196.86509c0,0 8.04032,11.91832 17.05129,24.27314c0.54349,0.74514 -4.44019,7.25147 -8.42156,10.60132c-5.42875,4.56766 -21.17687,14.30229 -21.17687,14.30229c0,0 -67.34124,-32.42188 -66.59653,-69.66705c0.59949,-29.98199 66.59655,-62.41662 66.59655,-62.41662c0,0 15.74812,9.73463 21.17687,14.30229c3.98137,3.34985 8.96502,9.85618 8.42156,10.60132c-9.01095,12.35482 -15.44269,20.17507 -15.44269,20.17507" data-paper-data="{&quot;index&quot;:null}" fill="#9c77bf" stroke="#2d2238" stroke-width="5"/></g></g></g></svg>