<svg version="1.1" xmlns="http://www.w3.org/2000/svg" xmlns:xlink="http://www.w3.org/1999/xlink" width="743.23737" height="216.55953" viewBox="0,0,743.23737,216.55953"><g transform="translate(16.77395,-86.07668)"><g data-paper-data="{&quot;isPaintingLayer&quot;:true}" fill-rule="nonzero" stroke="#000000" stroke-width="1.5" stroke-linecap="butt" stroke-linejoin="miter" stroke-miterlimit="10" stroke-dasharray="" stroke-dashoffset="0" style="mix-blend-mode: normal"><path d="M290.82325,184.87838l224.43191,-71.51652l206.31769,58.1z" fill="#6a6348"/><path d="M-15.02095,283.22281l-1,-181.76935l43.90979,-14.3428v214.39085z" fill="#f5e2a6"/><path d="M27.88885,301.50151v-214.39085l344.45357,3.84281v203.26934z" fill="#ffecad"/><g><path d="M171.70651,298.40835v-34.97799h20.52174v36.76258z" fill="#e6e6e6"/><path d="M192.22823,291.26999l-8.61666,-3.74186l-0.09027,-8.84795l-6.22427,-3.22059l-0.18771,-8.79196l-5.75065,-2.52343l68.17391,-1.78459l13.11202,3.09815l-0.03579,8.71894l6.27783,3.12403l0.1552,8.67164l8.31682,3.15611z" fill="#ffffff"/><g fill="#f5f5f5"><path d="M177.27171,275.56559v-8.92296l75.47826,-1.42767v8.92296z"/><path d="M183.53258,287.34389v-8.92296l75.47826,-1.42767v8.92296z"/><path d="M191.88041,299.47911v-8.92296l75.47826,-1.42767v8.92296z"/></g></g><path d="M178.00005,262.52628v-86.5h53.5v86.5z" fill="#836346"/><path d="M54.50004,225.75v-76.5l96.5,0.66667v75.16667z" fill="#f5f5f5"/><path d="M60.50002,220.20078v-65.40155l84.5,0.66667v64.06822z" fill="#89c6c9"/><path d="M257.01148,223.75907v-72.51813l91.47712,0.5v71.26813z" fill="#f5f5f5"/><path d="M262.69917,218.49869v-61.99736l80.10173,0.5v60.74736z" fill="#89c6c9"/></g></g></svg>