<svg version="1.1" xmlns="http://www.w3.org/2000/svg" xmlns:xlink="http://www.w3.org/1999/xlink" width="180.02707" height="205.50426" viewBox="0,0,180.02707,205.50426"><g transform="translate(-149.98647,-80.10588)"><g data-paper-data="{&quot;isPaintingLayer&quot;:true}" fill-rule="nonzero" stroke="none" stroke-width="0" stroke-linecap="butt" stroke-linejoin="miter" stroke-miterlimit="10" stroke-dasharray="" stroke-dashoffset="0" style="mix-blend-mode: normal"><path d="M241.17259,83.97367c0,2.13612 -1.73167,3.86779 -3.86779,3.86779c-2.13612,0 -3.86779,-1.73167 -3.86779,-3.86779c0,-2.13612 1.73167,-3.86779 3.86779,-3.86779c2.13612,0 3.86779,1.73167 3.86779,3.86779z" fill="#c24b99"/><path d="M158.19088,129.21511c0,2.45978 -1.83662,4.45382 -4.1022,4.45382c-2.26558,0 -4.1022,-1.99404 -4.1022,-4.45382c0,-2.45978 1.83662,-4.45382 4.1022,-4.45382c2.26558,0 4.1022,1.99404 4.1022,4.45382z" fill="#c24b99"/><path d="M189.85536,244.70532c0,2.07139 -2.09899,3.75059 -4.68823,3.75059c-2.58924,0 -4.68823,-1.67919 -4.68823,-3.75059c0,-2.07139 2.09899,-3.75059 4.68823,-3.75059c2.58924,0 4.68823,1.67919 4.68823,3.75059z" fill="#c24b99"/><path d="M239.66782,281.50794c0,2.26558 -2.57127,4.1022 -5.74308,4.1022c-3.17182,0 -5.74308,-1.83662 -5.74308,-4.1022c0,-2.26558 2.57127,-4.1022 5.74308,-4.1022c3.17182,0 5.74308,1.83662 5.74308,4.1022z" fill="#c24b99"/><path d="M322.70995,172.45126c0,-2.01683 1.63496,-3.6518 3.6518,-3.6518c2.01683,0 3.6518,1.63496 3.6518,3.6518c0,2.01683 -1.63496,3.6518 -3.6518,3.6518c-2.01683,0 -3.6518,-1.63496 -3.6518,-3.6518z" fill="#c24b99"/><path d="M310.66892,243.90802c0,-2.77996 2.2536,-5.03356 5.03356,-5.03356c2.77996,0 5.03356,2.2536 5.03356,5.03356c0,2.77996 -2.2536,5.03356 -5.03356,5.03356c-2.77996,0 -5.03356,-2.2536 -5.03356,-5.03356z" fill="#c24b99"/><path d="M314.73843,140.43255c0,2.09774 -1.85124,3.7983 -4.13486,3.7983c-2.28362,0 -4.13486,-1.70056 -4.13486,-3.7983c0,-2.09774 1.85124,-3.7983 4.13486,-3.7983c2.28362,0 4.13486,1.70056 4.13486,3.7983z" fill="#c24b99"/><path d="M151.9015,128.51276c0,-1.57143 1.27389,-2.84532 2.84532,-2.84532c1.57143,0 2.84532,1.27389 2.84532,2.84532c0,1.57143 -1.27389,2.84532 -2.84532,2.84532c-1.57143,0 -2.84532,-1.27389 -2.84532,-2.84532z" fill="#ffffff"/><path d="M234.28642,84.02233c0,-1.5 1.21599,-2.71599 2.71599,-2.71599c1.5,0 2.71599,1.21599 2.71599,2.71599c0,1.5 -1.21599,2.71599 -2.71599,2.71599c-1.5,0 -2.71599,-1.21599 -2.71599,-2.71599z" fill="#ffffff"/><path d="M308.65269,139.11803c0,-1.14286 0.92647,-2.06932 2.06932,-2.06932c1.14286,0 2.06932,0.92647 2.06932,2.06932c0,1.14286 -0.92647,2.06932 -2.06932,2.06932c-1.14286,0 -2.06932,-0.92647 -2.06932,-2.06932z" fill="#ffffff"/><path d="M325.20728,172.48585c0,-0.85714 0.69485,-1.55199 1.55199,-1.55199c0.85714,0 1.55199,0.69485 1.55199,1.55199c0,0.85714 -0.69485,1.55199 -1.55199,1.55199c-0.85714,0 -1.55199,-0.69485 -1.55199,-1.55199z" fill="#ffffff"/><path d="M313.48111,244.3948c0,-1.19047 0.96507,-2.15554 2.15554,-2.15554c1.19047,0 2.15554,0.96507 2.15554,2.15554c0,1.19047 -0.96507,2.15554 -2.15554,2.15554c-1.19047,0 -2.15554,-0.96507 -2.15554,-2.15554z" fill="#ffffff"/><path d="M237.00238,281.38393c0,1.42857 -1.27389,2.58665 -2.84532,2.58665c-1.57143,0 -2.84532,-1.15808 -2.84532,-2.58665c0,-1.42857 1.27389,-2.58665 2.84532,-2.58665c1.57143,0 2.84532,1.15808 2.84532,2.58665z" fill="#ffffff"/><path d="M181.9067,245.1708c0,-1.85714 1.50551,-3.36265 3.36265,-3.36265c1.85714,0 3.36265,1.50551 3.36265,3.36265c0,1.85714 -1.50551,3.36265 -3.36265,3.36265c-1.85714,0 -3.36265,-1.50551 -3.36265,-3.36265z" fill="#ffffff"/></g></g></svg>