<svg version="1.1" xmlns="http://www.w3.org/2000/svg" xmlns:xlink="http://www.w3.org/1999/xlink" width="374.77477" height="288.28829" viewBox="0,0,374.77477,288.28829"><g transform="translate(-52.61261,-35.85585)"><g data-paper-data="{&quot;isPaintingLayer&quot;:true}" fill-rule="nonzero" stroke-linejoin="miter" stroke-miterlimit="10" stroke-dasharray="" stroke-dashoffset="0" style="mix-blend-mode: normal"><path d="M52.61262,324.14414v-288.28829h374.77477v288.28829z" fill="none" stroke="none" stroke-width="none" stroke-linecap="butt"/><g data-paper-data="{&quot;index&quot;:null}"><g data-paper-data="{&quot;index&quot;:null}"><g stroke="#000000" stroke-width="3" stroke-linecap="round"><path d="M286.99956,206.22814l-21.23485,-21.68678c0,0 -3.96802,-4.17697 -3.60762,-5.27419c1.08119,-3.29165 6.12255,-7.56595 10.24529,-12.80754c0.68526,-0.87125 5.7804,2.29357 5.7804,2.29357c0,0 7.79299,5.32712 12.78086,8.73677c7.59605,5.19254 19.46402,13.30524 19.46402,13.30524c0,0 6.21132,3.95564 4.8217,5.46086c0,0 7.10781,8.21909 5.57603,11.21386c-0.80805,1.57982 -7.53551,1.39156 -11.32296,-1.53965c-4.75497,-3.67999 -5.94714,6.53089 -10.77181,10.09352c-4.23061,-1.98407 -11.73105,-9.7956 -11.73105,-9.7956z" data-paper-data="{&quot;origPos&quot;:null}" fill="#582700"/><path d="M288.73334,207.45871l16.96183,-19.56351l2.66562,2.16982l-16.73601,19.69627z" data-paper-data="{&quot;origPos&quot;:null}" fill="none"/></g><path d="M288.84958,206.60488l-26.39471,-26.95983l10.41397,-12.05163l1.35984,-0.54679l31.24817,20.3896z" fill="#66c8ff" stroke="#000000" stroke-width="1" stroke-linecap="round"/><path d="M291.38149,209.30411l-1.81826,-1.49653l16.65477,-19.55189l1.81826,1.49653z" fill="#ffffff" stroke="none" stroke-width="0" stroke-linecap="butt"/></g><g fill="#fffc96" stroke="#000000" stroke-width="2" stroke-linecap="round"><path d="M285.42498,204.09906c0,0 3.00569,-4.15198 5.64003,-11.29346c2.67134,-7.24184 3.66019,-13.50967 3.66019,-13.50967l-1.4571,-1.20482c0,0 1.80899,-2.62717 3.51888,-1.52579c4.18502,2.69565 -7.9643,33.47598 -12.12355,31.13603c-2.59959,-1.46251 -0.72942,-5.44201 -0.72942,-5.44201z"/><path d="M278.70835,197.05264c0,0 5.57634,-0.8676 12.93056,-4.13761c7.35423,-3.27 11.73974,-6.39677 11.73974,-6.39677l-1.04497,-0.91698c0,0 2.69831,-2.25038 4.81516,-0.36688c3.49533,3.11006 -28.75756,18.12364 -31.58527,14.11924c-1.34708,-1.90763 2.26665,-3.28008 2.26665,-3.28008z" data-paper-data="{&quot;index&quot;:null}"/></g></g><g data-paper-data="{&quot;origRot&quot;:0}" stroke="#000000" stroke-linecap="round"><path d="M254.66137,219.85192c0,0 0.52706,-4.77267 2.08211,-4.56028c4.58869,0.62674 9.25132,-0.44699 13.32121,1.72856c1.69003,0.90339 1.85574,5.18899 1.85574,5.18899l0.18025,33.1073c0,0 0.06395,3.41833 0.03027,5.38366c-0.03601,2.10125 -1.49337,5.0848 -3.62421,4.91339c-7.82377,-0.62925 -12.81554,0.39565 -17.58672,-1.22051c-1.73822,-0.5888 -3.54361,-1.32583 -4.05441,-3.0619c-0.66728,-2.26776 0.58064,-6.57835 0.58064,-6.57835z" data-paper-data="{&quot;origPos&quot;:null}" fill="#ff0000" stroke-width="3"/><path d="M271.7645,264.03331c0,0 -6.3015,1.94274 -11.44413,1.3731c-3.94559,-0.43705 -12.37486,-2.40116 -12.37486,-2.40116c0,0 -1.07052,-2.74261 -0.97825,-4.34269c0.09719,-1.6856 1.46369,-4.07651 1.46369,-4.07651l23.65575,1.8179z" data-paper-data="{&quot;origPos&quot;:null}" fill="#976e57" stroke-width="2"/><path d="M254.70708,220.17986c0,0 0.52706,-4.77267 2.08212,-4.56027c4.58868,0.62673 9.25132,-0.44698 13.32121,1.72858c1.69003,0.90339 1.85574,5.18897 1.85574,5.18897l0.18025,33.10732c0,0 0.06397,3.41832 0.03029,5.38365c-0.03601,2.10125 -1.49337,5.08479 -3.62421,4.91339c-7.82377,-0.62925 -12.81556,0.39566 -17.5867,-1.2205c-1.73822,-0.5888 -3.54361,-1.32585 -4.05441,-3.06191c-0.66728,-2.26776 0.58062,-6.57835 0.58062,-6.57835z" data-paper-data="{&quot;origPos&quot;:null}" fill="#4b4b4b" stroke-width="3"/></g><path d="M232.87167,257.09527c0,0 -0.86665,4.40002 -2.5037,6.12729c-1.25325,1.3223 -3.20265,1.17863 -5.02405,0.93251c-4.99948,-0.67559 -8.98261,-3.80564 -16.25249,-6.71667c-1.97999,-0.79282 -1.90984,-4.10175 -0.97678,-5.99258c0.87272,-1.7685 2.49998,-4.79014 2.49998,-4.79014l15.36866,-29.46024c0,0 2.11642,-3.7503 4.03933,-3.80625c4.63073,-0.13477 8.29779,2.89273 12.67996,4.37016c1.48506,0.50069 -0.23699,4.99305 -0.23699,4.99305c0,0 -2.42589,8.68388 -3.97859,14.242c-2.19143,7.84464 -5.61531,20.10089 -5.61531,20.10089z" fill="#4b4b4b" stroke="#000000" stroke-width="3" stroke-linecap="round"/><g stroke="#000000" stroke-linecap="round"><path d="M250.13419,175.62471c0,0 -28.71811,5.91484 -28.76874,-12.06568c-0.01867,-6.62461 16.49409,-5.02736 16.49409,-5.02736z" data-paper-data="{&quot;origPos&quot;:null}" fill="#66c8ff" stroke-width="2"/><path d="M241.95102,163.93608c0,0 -16.1949,-1.89997 -15.98265,-2.51368c0.67302,-1.94585 12.65826,-1.38252 12.65826,-1.38252z" data-paper-data="{&quot;origPos&quot;:null}" fill="#0a0a0a" stroke-width="1"/></g><g><g><path d="M235.85418,175.35911c0,0 4.24041,-13.92927 6.49541,-14.13337c6.76497,-0.61232 21.48561,2.61834 31.42332,4.16327c1.53627,0.23884 0.71221,13.81232 0.71221,13.81232l-3.07808,30.53037c0,0 -2.13262,14.81233 -3.80854,14.5518c-14.9187,-2.31928 -32.53993,-4.19549 -39.05589,-6.05984c-2.17197,-0.62144 1.16425,-16.05641 1.16425,-16.05641z" data-paper-data="{&quot;origPos&quot;:null}" fill="#66c8ff" stroke="#000000" stroke-width="3.5" stroke-linecap="round"/><path d="M253.48717,186.40107c-1.29791,-0.20177 -0.90261,-2.65874 -0.90261,-2.65874c0.8199,-5.09592 1.90334,-11.82981 2.72325,-16.92572c0,0 0.3953,-2.45695 1.69321,-2.25518c1.29791,0.20177 0.90261,2.65874 0.90261,2.65874c-0.8199,5.09592 -1.63979,10.19184 -2.45969,15.28776l-0.26354,1.63798c0,0 -0.39531,2.45695 -1.69322,2.25518z" fill="#ffffff" stroke="none" stroke-width="0.5" stroke-linecap="butt"/><path d="M264.53868,194.5312c-1.29791,-0.20177 -0.80129,-3.28841 -0.80129,-3.28841c1.03003,-6.40191 2.39112,-14.86157 3.42115,-21.26348c0,0 0.49663,-3.08663 1.79453,-2.88487c1.29791,0.20177 0.80129,3.28841 0.80129,3.28841c-1.03003,6.40191 -2.06005,12.80382 -3.09007,19.20575l-0.33109,2.05776c0,0 -0.49663,3.08663 -1.79453,2.88487z" fill="#ffffff" stroke="none" stroke-width="0.5" stroke-linecap="butt"/></g><g fill="none" stroke="#b9b9b9" stroke-width="3"><path d="M270.78699,170.0219c-0.61569,-1.47069 0.49594,-2.53261 1.91837,-3.54464c1.42243,-1.01202 2.71488,-1.18764 3.23272,-0.12025c1.09795,2.2632 -0.55361,2.99409 -1.66741,3.78654c-1.42245,1.01203 -2.61416,1.95536 -3.48369,-0.12163z" stroke-linecap="butt"/><path d="M268.86704,171.67608l3.00286,-2.08393" stroke-linecap="round"/><path d="M265.20338,171.74369c1.42243,-1.01202 2.71489,-1.18764 3.23272,-0.12024c1.09795,2.2632 -0.55361,2.99409 -1.66741,3.78654c-1.42244,1.01203 -2.61415,1.95536 -3.48366,-0.12164c-0.61569,-1.47069 0.49592,-2.5326 1.91835,-3.54465z" stroke-linecap="butt"/><path d="M261.36502,176.94251l3.00287,-2.08393" stroke-linecap="round"/><path d="M255.78746,175.61754c0.66244,-1.55242 1.98238,-1.19069 3.43662,-0.50008c1.45423,0.69062 2.27208,1.80663 1.82967,3.00097c-0.93804,2.53232 -2.3259,1.43877 -3.46461,0.89802c-1.45424,-0.69061 -2.73721,-1.20649 -1.80167,-3.3989z" stroke-linecap="butt"/><path d="M253.62948,174.87461l3.03446,1.49243" stroke-linecap="round"/><path d="M249.24835,170.1708c1.10657,-1.16106 2.16196,-0.20009 3.22757,1.13543c1.06562,1.33552 1.42283,2.77623 0.63142,3.70097c-1.67803,1.96068 -2.55048,0.27435 -3.3849,-0.77141c-1.06562,-1.33553 -2.0368,-2.42527 -0.47408,-4.06498z" stroke-linecap="butt"/><path d="M247.57329,168.45617l2.20645,2.83544" stroke-linecap="round"/><path d="M243.68652,163.10542c1.10656,-1.16104 2.16197,-0.20009 3.22758,1.13544c1.06563,1.33552 1.42283,2.77623 0.63142,3.70097c-1.67803,1.96067 -2.55048,0.27434 -3.38489,-0.77141c-1.06562,-1.33552 -2.03681,-2.42525 -0.47407,-4.06496z" stroke-linecap="butt"/><path d="M242.01148,161.39076l2.20646,2.83544" stroke-linecap="round"/></g></g><g><path d="M273.99668,167.07279c-12.29425,-0.22691 -24.21561,-0.48306 -29.05775,-1.62511c-4.4254,-1.04374 -5.6859,-3.84141 -5.6859,-3.84141c0,0 -1.71477,-2.48392 -1.75715,-4.01836c-0.12721,-4.60333 0.13652,-17.75114 1.43141,-29.05666c0.04322,-0.37732 0.08141,-0.58784 0.14741,-0.96196c0.198,-1.12235 1.15977,-5.47332 1.15977,-5.47332c0,0 3.29272,-1.56607 5.06873,-1.98892c5.32802,-1.26856 18.72001,0.6057 32.85702,1.42806c1.28134,0.07454 3.42977,1.81822 3.42977,1.81822c0,0 1.47377,3.18126 1.36557,5.16194c-0.69951,12.80538 -1.52141,26.97111 -1.92501,30.20353c-0.13453,1.07748 -2.12783,5.21159 -2.12783,5.21159z" fill="#582700" stroke="#000000" stroke-width="2.5" stroke-linecap="round"/><path d="M235.85287,122.77808c-0.64441,-1.07761 0.45185,-1.71106 0.45185,-1.71106l1.35378,-0.73464c0.12141,-0.03353 0.2427,-0.06629 0.36391,-0.0983c-0.89122,-5.80694 0.42368,-12.76121 0.53861,-18.47857c0.02981,-1.48271 -0.24954,-5.50864 0.5117,-6.76197c1.27474,-2.09874 2.9998,-1.46158 4.92823,-1.41897c3.28119,0.0725 6.53503,0.18378 9.79218,-0.2167c8.0738,-0.98331 16.06012,-1.06205 24.16105,-1.55777c2.55632,-0.15643 5.05077,-0.19146 7.61061,0.08195c0.70043,0.0748 1.60462,-0.15609 2.08304,0.35232c1.69439,1.8006 0.90253,3.74184 0.53218,5.69602c-0.73873,3.89799 -2.46745,7.38834 -2.6862,11.39229c-0.18816,3.0621 -0.74493,6.19574 -1.21609,9.2261c-0.16261,1.04575 0.13746,2.99594 -0.9608,3.75879c-2.25196,1.56421 -7.96835,0.22229 -10.54856,0.07862c-7.86757,-0.43806 -15.73251,-1.03579 -23.61347,-1.0325c-2.81964,0.09593 -5.50984,0.26866 -8.21638,0.7828c-0.03574,0.37188 -0.22771,0.8454 -0.92843,1.03245c-0.76025,0.20294 -1.17743,-0.1828 -1.38483,-0.50572c-0.09239,0.0247 -0.18487,0.04989 -0.2774,0.07557l-0.75431,0.48345c0,0 -1.09628,0.63344 -1.74071,-0.44416z" fill="#000000" stroke="none" stroke-width="0.5" stroke-linecap="butt"/><path d="M254.09891,138.85896c4.79797,-2.42503 9.11652,-0.19082 10.71238,4.61462c1.83025,5.51127 -2.0987,8.60062 -2.0987,8.60062c0,0 -2.58918,-1.10159 -5.88866,-1.5119c-4.10837,-0.51089 -6.37109,-0.07112 -6.37109,-0.07112c0,0 -2.86289,-8.3424 3.64608,-11.63222z" fill="#ffffff" stroke="#000000" stroke-width="2" stroke-linecap="butt"/><path d="M281.16626,140.1657c6.08939,3.99128 2.28645,11.96253 2.28645,11.96253c0,0 -2.19772,-0.68811 -6.3385,-0.63653c-3.32551,0.04143 -6.02468,0.84857 -6.02468,0.84857c0,0 -3.54892,-3.50571 -1.09724,-8.77857c2.13769,-4.59755 6.68528,-6.33811 11.17397,-3.39601z" data-paper-data="{&quot;index&quot;:null}" fill="#ffffff" stroke="#000000" stroke-width="2" stroke-linecap="butt"/><g data-paper-data="{&quot;index&quot;:null}" stroke="#000000" stroke-width="1" stroke-linecap="butt"><path d="M252.22004,166.73766c-12.33495,-3.21851 -5.78901,-15.11131 -5.78901,-15.11131l18.40466,4.63122c0,0 0.44374,13.88761 -12.61566,10.48008z" fill="#000000"/><path d="M251.67376,162.5782c3.1283,1.85803 5.1849,4.68207 4.61195,4.69487c-1.18398,0.02646 -2.53166,-0.13516 -4.06564,-0.53541c-4.59744,-1.19957 -6.572,-3.6042 -7.24018,-6.14891c-0.12981,-0.49437 3.82118,0.28323 6.69385,1.98945z" fill="#ff8484"/><path d="M245.09215,155.85214c0.50574,-1.73669 1.33891,-4.22579 1.33891,-4.22579l16.17504,4.07017l-1.07539,4.42189c0,0 -16.45521,-4.20901 -16.43853,-4.26626z" fill="#ffffff"/></g></g><g><path d="M241.61418,164.7284c2.65204,-1.88292 4.15077,12.26457 5.18477,14.33171c1.12382,2.24667 -19.86812,-1.24227 -19.86812,-1.24227l-3.54988,-0.64073l23.56281,3.81767c0,0 8.20543,0.91513 7.57881,3.09793c0,0 2.10421,10.94504 -6.5003,27.81992c-5.22959,0.08606 -16.67332,-4.05058 -16.67332,-4.05058c0,0 -25.84274,-8.02816 -27.09868,-12.57991c-0.29082,-1.05402 -0.7248,-14.13179 2.12412,-17.20435c9.45404,-10.19613 35.23976,-13.34938 35.23976,-13.34938z" fill="#582700" stroke="#000000" stroke-width="2.5" stroke-linecap="round"/><path d="M228.52012,178.77678c-0.50265,-0.11249 -1.00454,-0.23201 -1.50804,-0.35013c-0.11111,-0.02607 -1.33892,-0.44166 -1.95069,-0.40192c-1.74397,6.68368 -2.41116,13.55821 -4.52221,20.18121c-0.14578,0.59657 -0.32599,1.88583 -0.66706,3.09716c0.0004,0.38027 0.04766,0.68036 0.17672,0.80175c1.09739,1.03228 2.98683,1.42896 4.27735,2.24319c-0.02658,-0.38249 -0.0876,-1.48979 -0.02599,-1.9443c0.18292,-1.3498 0.3596,-2.68445 0.50059,-4.03838c0.49427,-4.74606 1.57369,-9.83117 2.62974,-14.46208c0.189,-1.68831 0.54192,-3.46375 1.08959,-5.1265zM230.02012,179.08244c-0.55545,1.63506 -0.89842,3.40571 -1.08461,5.06897c-1.21897,5.23215 -2.1205,10.78007 -2.773,16.1393c-0.26885,2.20819 0.17367,5.65062 -2.44811,5.43232c-1.38399,-0.85031 -3.44762,-1.36237 -4.65655,-2.49108c-0.26705,0.38751 -0.58438,0.6603 -0.96434,0.74294c-0.53486,0.11632 -2.39614,-1.05021 -2.95047,-1.28572c-3.30718,-1.40501 -7.54453,-2.48827 -8.97007,-6.11173c-3.79715,-4.97612 -2.94847,-14.06733 -0.50711,-19.41532c3.17951,-3.11296 6.4943,-4.17034 10.70416,-5.36556c3.03964,-0.86298 5.73996,-2.22491 8.92013,-2.7476c4.31688,-1.3231 8.66279,-2.512 12.97996,-3.829c1.98142,-0.60445 3.68026,-1.85352 5.32583,-0.24394c0.87817,3.49546 1.76429,7.02949 2.56375,10.55886c0.2492,1.10017 0.67986,3.35017 0.02591,4.38318c-0.90879,1.43559 -2.73163,0.88176 -4.09714,0.57847c-3.08303,-0.2562 -6.44656,-0.69737 -9.72183,-1.3764c-0.24603,0.22834 -0.60986,0.19738 -0.60986,0.19738c-0.58516,-0.05041 -1.16289,-0.13286 -1.73661,-0.23507zM218.62021,199.46996c0.31743,-4.05499 1.83153,-7.78957 2.26475,-11.77836c0.2073,-2.35568 0.22782,-6.57615 1.63966,-9.18419c0.01232,-0.15513 0.0624,-0.26899 0.0624,-0.26899l0.31353,-0.70469c0.17808,-0.7332 0.60503,-1.40776 1.09063,-1.99117c6.09368,0.11608 12.16005,2.9355 18.33213,3.47185c0.68538,0.15297 1.6477,0.43218 2.34412,0.38038c0.42833,-0.03185 0.20429,-2.5481 0.16133,-2.85055c-0.52311,-3.6824 -1.9194,-7.22433 -2.58955,-10.88154c-0.15215,-0.35157 -2.91807,0.8077 -3.51964,0.99072c-4.34976,1.32332 -8.72314,2.53599 -13.07658,3.8549c-3.16271,0.52319 -5.83231,1.86535 -8.85531,2.73096c-3.84764,1.10175 -6.91004,1.9978 -9.86437,4.7726c-2.07474,4.9954 -2.92584,13.23695 0.58109,17.83274c1.44671,3.51675 7.01287,5.29614 10.2716,6.66309c0.03455,0.01449 0.48005,-1.62669 0.83885,-2.9754c0.00194,-0.02113 0.00373,-0.04191 0.00534,-0.06234z" fill="#000000" stroke="none" stroke-width="0.5" stroke-linecap="butt"/><path d="M227.45051,183.8573c-1.05604,4.63092 -2.15167,9.81187 -2.64592,14.55794c-0.14101,1.35393 -0.32126,2.68871 -0.50419,4.03852c-0.06159,0.45452 -0.00052,1.56181 0.02607,1.9443c-1.29053,-0.81423 -3.19828,-1.21417 -4.29568,-2.24645c-0.12906,-0.12141 -0.17824,-0.42225 -0.17864,-0.80253c0.34107,-1.21134 0.51771,-2.50226 0.66349,-3.09882c2.11104,-6.62299 2.80482,-13.59176 4.5488,-20.27543c0.61177,-0.03974 1.84708,0.37685 1.95818,0.40292c0.50348,0.11813 1.01109,0.23918 1.51374,0.35167c-0.54768,1.66275 -0.89686,3.4396 -1.08586,5.1279z" data-paper-data="{&quot;noHover&quot;:false,&quot;origItem&quot;:[&quot;Path&quot;,{&quot;applyMatrix&quot;:true,&quot;segments&quot;:[[[926.17844,407.1979],[3.2606,1.25965],[-0.27949,0.97418]],[[925.31465,410.11917],[0.29084,-0.97519],[-0.06418,0.21521]],[[924.29914,413.90358],[-0.01258,-1.20526],[13.15638,4.16543]],[[964.1057,425.02121],[-12.99513,-4.87922],[1.17537,0.35239]],[[970.21765,426.67451],[-2.3817,-0.804],[0.75941,0.04146]],[[971.83798,426.41666],[-0.25651,0.23985],[2.18115,-2.03947]],[[976.78433,418.26967],[-1.76682,2.44279],[-0.76669,0.00973]],[[972.89889,418.10481],[0.90089,0.17138],[-2.67549,-0.50896]],[[964.88923,416.67374],[2.68829,0.42712],[-9.42353,-1.49721]],[[936.29671,409.90591],[9.13228,2.58714],[-3.35077,-0.55846]]],&quot;closed&quot;:true}]}" fill="#ffffff" stroke="none" stroke-width="0.5" stroke-linecap="butt"/><path d="M219.08878,197.76071c-0.05403,0.2208 -1.27435,4.81745 -1.3315,4.79347c-3.25874,-1.36695 -8.84849,-3.16511 -10.2952,-6.68185c-3.50691,-4.5958 -2.66148,-12.88171 -0.58673,-17.87711c2.95432,-2.7748 6.0345,-3.69445 9.88213,-4.79621c3.02298,-0.86561 5.72476,-2.2175 8.88746,-2.7407c4.35343,-1.31889 8.7556,-2.52146 13.10535,-3.84478c0.60157,-0.18301 3.37086,-1.33955 3.52299,-0.98797c0.67016,3.6572 2.07958,7.21764 2.60268,10.90004c0.04296,0.30245 0.26907,2.82492 -0.15925,2.85676c-0.69643,0.0518 -1.75657,-0.20007 -2.44196,-0.35305c-6.17208,-0.53635 -12.18362,-3.32108 -18.2773,-3.43716c-0.48559,0.58342 -0.90336,1.25598 -1.08144,1.98919l-0.30982,0.70336c0,0 -0.34125,0.59581 0.35908,0.89346c0.07011,0.02979 0.17338,0.1428 0.23562,0.15452c-1.44672,6.15988 -2.18071,12.35164 -4.11211,18.428z" data-paper-data="{&quot;noHover&quot;:false,&quot;origItem&quot;:[&quot;Path&quot;,{&quot;applyMatrix&quot;:true,&quot;segments&quot;:[[[926.61254,417.73069],[12.14285,3.5238],[-0.03018,0.12086]],[[926.46822,418.11346],[0.06716,-0.13431],[-0.67082,1.34164]],[924.45576,418.78428],[[923.08279,418.0906],[0,0],[-1.44471,-0.43097]],[[919.22563,415.72869],[1.11205,1.01797],[0.89694,-11.9485]],[[928.15956,380.1298],[-1.74473,12.05571],[0.38029,-1.32836]],[[929.175,375.57071],[0.02742,1.37277],[-0.01686,-0.84429]],[[923.5003,374.93752],[0.60865,-0.05075],[-7.41054,0.61792]],[[901.48814,378.8123],[7.37628,-0.90935],[-0.71866,0.25961]],[[903.08234,385.83106],[-0.2998,-1.20115],[2.16779,8.68513]],[[909.35292,411.92731],[-2.15853,-8.69186],[0.69956,6.26621]],[[913.83986,429.61277],[-1.39861,-6.02998],[1.78014,7.67491]],[[922.29365,449.50563],[-5.21858,-6.1072],[9.74892,4.62723]],[[957.96755,450.34516],[-9.56021,6.37347],[7.18055,-2.44927]],[[972.39433,430.92276],[-3.08539,6.24485],[0.05411,-0.10951]],[[963.14745,427.86406],[0.43501,0.13058],[-11.92317,-4.46591]]],&quot;closed&quot;:true}]}" fill="#66c8ff" stroke="none" stroke-width="0.5" stroke-linecap="butt"/></g><path d="M246.48499,159.11406l0.45835,-0.13507c2.9948,0.19496 4.61979,1.68284 7.20778,2.85323c1.24763,0.56423 2.6075,1.03161 3.92294,1.4282c0.47729,0.14389 1.01843,0.13482 1.44362,0.39197c1.34065,0.81083 1.52573,2.338 2.29624,3.53051c0.4761,0.73684 1.27304,1.28352 1.92786,1.8261c1.37372,1.95538 4.14222,4.23634 3.81249,6.92548c-0.08764,0.71475 -1.02069,1.56506 -1.24352,2.26365c-0.31323,0.98199 0.26812,2.26732 0.22491,3.27618c-0.03307,0.77241 -0.12784,1.51825 -0.36421,2.13718c0.13537,0.04283 0.2532,0.08116 0.34881,0.11279c1.14621,0.48371 2.28323,1.14085 3.55393,1.23284c0.94582,0.06847 1.93786,-0.56888 2.8328,-0.26038c1.65041,0.56889 3.4676,4.04599 1.43329,5.38577c-1.24442,0.81956 -3.45387,-1.14863 -4.53948,-1.51802c-0.33297,-0.11329 -2.28342,-0.27044 -2.44331,-0.30016c-1.92809,-0.35841 -4.00228,-1.22647 -5.82935,-0.2765c0,0 -1.06195,0.51202 -1.58284,-0.53185c-0.52089,-1.04387 0.54106,-1.55589 0.54106,-1.55589c0.31106,-0.14245 0.61735,-0.25584 0.92025,-0.34426h0.00001l-0.65907,-0.83484c0.16611,-0.31152 0.25432,-0.69905 0.38633,-1.04384c-0.2458,-0.56893 -0.42113,-1.23339 -0.59664,-1.64982c-0.60051,-1.42483 -1.36648,-2.8599 -2.22373,-4.14775c-2.48825,-2.69727 -6.10399,-4.11524 -8.40382,-6.98892c-1.4343,-1.79218 -2.83635,-4.62344 -3.57475,-6.77737c-0.41251,-1.20332 -0.46587,-2.34273 -1.05035,-3.49523c0,0 -0.4688,-0.93948 0.48696,-1.4003c0.27922,-0.13463 0.51688,-0.14974 0.71344,-0.10368zM262.89914,185.3029c0.02206,-0.00123 0.04411,-0.00237 0.06615,-0.0034l-0.02242,-0.18753c-0.05527,-0.01139 -0.11042,-0.02399 -0.16527,-0.03786c0.01945,0.06312 0.07269,0.14733 0.12154,0.2288zM272.01834,186.99817c0.15841,0.08029 0.3137,0.16432 0.45656,0.24976c-0.07561,-0.17522 -0.14451,-0.30687 -0.20454,-0.31162c-0.08885,-0.00703 -0.17142,0.02098 -0.25201,0.06186z" fill="#000000" stroke="none" stroke-width="0.5" stroke-linecap="butt"/><path d="M284.30255,151.74659c-0.33484,0.78369 -1.13211,0.45456 -1.13211,0.45456l-0.60022,-0.24832c-0.56047,-0.21024 -1.0703,-0.55401 -1.64956,-0.70737c-0.53879,-0.14265 -1.07704,0.04641 -1.60561,0.08951c-1.92523,0.15696 -3.3113,-0.18342 -5.09968,0.78708c0,0 -0.75952,0.40635 -1.1729,-0.34023c-0.41339,-0.74659 0.34612,-1.15293 0.34612,-1.15293c1.67418,-0.88525 3.07918,-1.04172 4.93873,-0.95738c1.0412,0.04722 1.9802,-0.31944 3.03148,-0.07059c0.64322,0.15227 1.20815,0.53231 1.82668,0.76313l0.65463,0.26972c0,0 0.79726,0.32914 0.46243,1.11283z" fill="#000000" stroke="none" stroke-width="0.5" stroke-linecap="butt"/><path d="M250.67201,150.13056c-0.24513,-0.81513 0.58413,-1.05608 0.58413,-1.05608l0.68084,-0.19732c0.64061,-0.16256 1.24463,-0.47923 1.90099,-0.56103c1.07275,-0.1337 1.96503,0.33225 3.00519,0.39788c1.85771,0.1172 3.23668,0.4246 4.80166,1.48547c0,0 0.70945,0.48599 0.21504,1.18336c-0.49441,0.69737 -1.20385,0.21137 -1.20385,0.21137c-1.66896,-1.15794 -3.0847,-0.96947 -4.98069,-1.3336c-0.52053,-0.09997 -1.03436,-0.34608 -1.58585,-0.26254c-0.59289,0.08981 -1.1381,0.37638 -1.71869,0.52476l-0.62436,0.18193c0,0 -0.82925,0.24096 -1.07437,-0.57418z" data-paper-data="{&quot;index&quot;:null}" fill="#000000" stroke="none" stroke-width="0.5" stroke-linecap="butt"/></g></g></svg>