<svg version="1.1" xmlns="http://www.w3.org/2000/svg" xmlns:xlink="http://www.w3.org/1999/xlink" width="287.46753" height="287.46753" viewBox="0,0,287.46753,287.46753"><defs><radialGradient cx="236.25001" cy="142" r="86.5" gradientUnits="userSpaceOnUse" id="color-1"><stop offset="0" stop-color="#fa6b6b"/><stop offset="1" stop-color="#fa6b6b" stop-opacity="0"/></radialGradient><radialGradient cx="207.25001" cy="177.5" r="86.5" gradientUnits="userSpaceOnUse" id="color-2"><stop offset="0" stop-color="#fa6b6b"/><stop offset="1" stop-color="#fa6b6b" stop-opacity="0"/></radialGradient><radialGradient cx="241.75001" cy="218" r="86.5" gradientUnits="userSpaceOnUse" id="color-3"><stop offset="0" stop-color="#fa6b6b"/><stop offset="1" stop-color="#fa6b6b" stop-opacity="0"/></radialGradient><radialGradient cx="272.75001" cy="176.5" r="86.5" gradientUnits="userSpaceOnUse" id="color-4"><stop offset="0" stop-color="#fa6b6b"/><stop offset="1" stop-color="#fa6b6b" stop-opacity="0"/></radialGradient></defs><g transform="translate(-96.26629,-36.26623)"><g data-paper-data="{&quot;isPaintingLayer&quot;:true}" fill-rule="nonzero" stroke-linejoin="miter" stroke-miterlimit="10" stroke-dasharray="" stroke-dashoffset="0" style="mix-blend-mode: normal"><path d="M96.2663,323.73376v-287.46753h287.46753v287.46753z" fill="none" stroke="none" stroke-width="0" stroke-linecap="butt"/><path d="M246.14851,213.05036l-76.69056,-0.92667c0,0 -7.41221,-47.89006 -2.13033,-55.13674c7.68429,-10.54271 72.07495,-2.31665 72.07495,-2.31665" data-paper-data="{&quot;index&quot;:null}" fill="#ffcde0" stroke="#561b25" stroke-width="1.5" stroke-linecap="round"/><path d="M222.36027,157.73584c0,0 -7.09799,-8.63034 -17.04237,-22.26497c-0.59975,-0.82233 4.90015,-8.00263 9.29394,-11.69949c5.9911,-5.04081 23.37054,-15.78384 23.37054,-15.78384c0,0 72.83357,35.79447 73.49517,68.88225c0.82186,41.10334 -73.49515,76.88374 -73.49515,76.88374c0,0 -17.37945,-10.74302 -23.37054,-15.78384c-4.3938,-3.69686 -9.89372,-10.87716 -9.29394,-11.69949c9.9444,-13.63464 18.81761,-26.78755 18.81761,-26.78755" data-paper-data="{&quot;index&quot;:null}" fill="#ffcde0" stroke="#561b25" stroke-width="1.5" stroke-linecap="round"/><path d="M246.14851,213.05036l-76.69056,-0.92667c0,0 -7.41221,-47.89006 -2.13033,-55.13674c7.68429,-10.54271 72.07495,-2.31665 72.07495,-2.31665" data-paper-data="{&quot;index&quot;:null}" fill="#ffcde0" stroke="#561b25" stroke-width="5" stroke-linecap="round"/><path d="M222.36027,157.73584c0,0 -7.09799,-8.63034 -17.04237,-22.26497c-0.59975,-0.82233 4.90015,-8.00263 9.29394,-11.69949c5.9911,-5.04081 23.37054,-15.78384 23.37054,-15.78384c0,0 72.83357,35.79447 73.49517,68.88225c0.82186,41.10334 -73.49515,76.88374 -73.49515,76.88374c0,0 -17.37945,-10.74302 -23.37054,-15.78384c-4.3938,-3.69686 -9.89372,-10.87716 -9.29394,-11.69949c9.9444,-13.63464 18.81761,-26.78755 18.81761,-26.78755" data-paper-data="{&quot;index&quot;:null}" fill="#ffcde0" stroke="#561b25" stroke-width="5" stroke-linecap="round"/><path d="" data-paper-data="{&quot;index&quot;:null}" fill="#87a9bc" stroke="none" stroke-width="0" stroke-linecap="butt"/><path d="" data-paper-data="{&quot;index&quot;:null}" fill="#87a9bc" stroke="none" stroke-width="0" stroke-linecap="butt"/><g stroke="none" stroke-width="0" stroke-linecap="butt"><path d="M149.75,142c0,-47.77263 38.72737,-86.5 86.5,-86.5c47.77263,0 86.5,38.72737 86.5,86.5c0,47.77263 -38.72737,86.5 -86.5,86.5c-47.77263,0 -86.5,-38.72737 -86.5,-86.5z" fill="url(#color-1)"/><path d="M120.75001,177.5c0,-47.77263 38.72737,-86.5 86.5,-86.5c47.77263,0 86.5,38.72737 86.5,86.5c0,47.77263 -38.72737,86.5 -86.5,86.5c-47.77263,0 -86.5,-38.72737 -86.5,-86.5z" fill="url(#color-2)"/><path d="M155.25,218c0,-47.77263 38.72737,-86.5 86.5,-86.5c47.77263,0 86.5,38.72737 86.5,86.5c0,47.77263 -38.72737,86.5 -86.5,86.5c-47.77263,0 -86.5,-38.72737 -86.5,-86.5z" fill="url(#color-3)"/><path d="M186.25001,176.5c0,-47.77263 38.72737,-86.5 86.5,-86.5c47.77263,0 86.5,38.72737 86.5,86.5c0,47.77263 -38.72737,86.5 -86.5,86.5c-47.77263,0 -86.5,-38.72737 -86.5,-86.5z" fill="url(#color-4)"/></g><g fill="#ffffff" stroke="#ff8282" stroke-linecap="round"><path d="M247.69208,212.17983l-76.69056,-0.92667c0,0 -7.41221,-47.89006 -2.13033,-55.13674c7.68429,-10.54271 72.07495,-2.31665 72.07495,-2.31665" data-paper-data="{&quot;index&quot;:null}" stroke-width="1.5"/><path d="M223.90384,156.86531c0,0 -7.09799,-8.63034 -17.04237,-22.26497c-0.59975,-0.82233 4.90015,-8.00263 9.29394,-11.69949c5.9911,-5.04081 23.37054,-15.78384 23.37054,-15.78384c0,0 72.83357,35.79447 73.49517,68.88225c0.82186,41.10334 -73.49515,76.88374 -73.49515,76.88374c0,0 -17.37945,-10.74302 -23.37054,-15.78384c-4.3938,-3.69686 -9.89372,-10.87716 -9.29394,-11.69949c9.9444,-13.63464 18.81761,-26.78755 18.81761,-26.78755" data-paper-data="{&quot;index&quot;:null}" stroke-width="1.5"/><path d="M247.69208,212.17983l-76.69056,-0.92667c0,0 -7.41221,-47.89006 -2.13033,-55.13674c7.68429,-10.54271 72.07495,-2.31665 72.07495,-2.31665" data-paper-data="{&quot;index&quot;:null}" stroke-width="5"/><path d="M222.90384,156.86531c0,0 -7.09799,-8.63034 -17.04237,-22.26497c-0.59975,-0.82233 4.90015,-8.00263 9.29394,-11.69949c5.9911,-5.04081 23.37054,-15.78384 23.37054,-15.78384c0,0 72.83357,35.79447 73.49517,68.88225c0.82186,41.10334 -73.49515,76.88374 -73.49515,76.88374c0,0 -17.37945,-10.74302 -23.37054,-15.78384c-4.3938,-3.69686 -9.89372,-10.87716 -9.29394,-11.69949c9.9444,-13.63464 18.81761,-26.78755 18.81761,-26.78755" data-paper-data="{&quot;index&quot;:null}" stroke-width="5"/></g></g></g></svg>