<svg version="1.1" xmlns="http://www.w3.org/2000/svg" xmlns:xlink="http://www.w3.org/1999/xlink" width="199.11324" height="221.55319" viewBox="0,0,199.11324,221.55319"><g transform="translate(-195.52004,-69.22341)"><g data-paper-data="{&quot;isPaintingLayer&quot;:true}" fill-rule="nonzero" stroke-linejoin="miter" stroke-miterlimit="10" stroke-dasharray="" stroke-dashoffset="0" style="mix-blend-mode: normal"><path d="M205.36674,290.77659v-221.55318h189.26654v221.55319z" fill="none" stroke="none" stroke-width="NaN" stroke-linecap="butt"/><g data-paper-data="{&quot;index&quot;:null}"><g data-paper-data="{&quot;origRot&quot;:0,&quot;index&quot;:null}" stroke="#000000" stroke-width="3" stroke-linecap="round"><path d="M323.74269,251.36467c-1.77932,0.98267 -4.22271,-5.86968 -4.22271,-5.86968c0,0 -5.20836,-13.22048 -8.54198,-21.68226c-2.18898,-5.55637 -5.60904,-14.23747 -5.60904,-14.23747c0,0 -1.92646,-5.60255 -0.92354,-6.05745c6.03391,-2.73665 11.33446,-6.57479 14.78236,-6.851c1.14931,-0.0921 4.31588,4.66539 4.31588,4.66539l16.29748,25.30619c0,0 5.61368,9.04599 6.87703,13.47707c0.70069,2.45754 -22.97551,11.24919 -22.97551,11.24919z" data-paper-data="{&quot;origPos&quot;:null}" fill="#582600"/><path d="M320.47723,244.75373l22.32196,-11.10103" fill="none"/><path d="M318.78451,241.88322l22.21621,-11.31362" data-paper-data="{&quot;origPos&quot;:null}" fill="none"/></g><path d="M318.38431,241.08466l-13.6984,-36.26251l14.14102,-7.08619l1.45108,0.04297l20.65599,32.06086z" fill="#ffcb66" stroke="#000000" stroke-width="1" stroke-linecap="round"/><path d="M319.95696,244.92346l-1.04492,-2.08379l22.7954,-11.43075l1.04492,2.08379z" fill="#ffffff" stroke="none" stroke-width="0" stroke-linecap="butt"/></g><g data-paper-data="{&quot;origRot&quot;:0}" stroke="#000000" stroke-linecap="round"><path d="M308.54732,214.26227c0,0 0.74243,-4.74295 2.25928,-4.45877c4.47601,0.8386 9.10477,-0.01795 12.99839,2.34369c1.61684,0.98068 1.57758,5.26919 1.57758,5.26919l-1.38317,33.07889c0,0 -0.09829,3.4175 -0.22398,5.37906c-0.13438,2.09726 -1.70593,5.00997 -3.79008,4.74005c-7.65237,-0.99098 -12.60199,-0.19843 -17.21055,-2.0338c-1.67897,-0.66866 -3.41692,-1.48851 -3.83666,-3.24631c-0.54832,-2.29615 0.8801,-6.54415 0.8801,-6.54415z" data-paper-data="{&quot;origPos&quot;:null}" fill="#ff0000" stroke-width="3"/><path d="M323.25856,259.18683c0,0 -6.27888,1.64869 -11.30148,0.84147c-3.85351,-0.61934 -12.03749,-2.97171 -12.03749,-2.97171c0,0 -0.92188,-2.78915 -0.75588,-4.38319c0.17487,-1.67923 1.62928,-4.00418 1.62928,-4.00418l23.14147,2.91165z" data-paper-data="{&quot;origPos&quot;:null}" fill="#976e57" stroke-width="2"/><path d="M308.57678,214.59197c0,0 0.74243,-4.74295 2.25929,-4.45876c4.476,0.8386 9.10477,-0.01795 12.9984,2.34372c1.61684,0.98068 1.57758,5.26917 1.57758,5.26917l-1.38317,33.07889c0,0 -0.09827,3.4175 -0.22396,5.37907c-0.13438,2.09726 -1.70594,5.00996 -3.79008,4.74005c-7.65237,-0.99098 -12.60199,-0.19842 -17.21055,-2.03379c-1.67897,-0.66866 -3.41691,-1.48853 -3.83665,-3.2463c-0.54832,-2.29615 0.88009,-6.54415 0.88009,-6.54415z" data-paper-data="{&quot;origPos&quot;:null}" fill="#474747" stroke-width="3"/></g><g><g><path d="M277.8583,205.19953c0,0 1.94111,-14.4094 4.09862,-14.95725c6.4725,-1.64357 21.26952,-0.71298 31.15944,-0.71298c1.52888,0 2.84914,13.5334 2.84914,13.5334l1.7807,30.62821c0,0 0.24329,14.95796 -1.42456,14.95796c-14.84697,0 -32.2486,0.85262 -38.86622,0.01169c-2.20586,-0.2803 -1.37783,-16.03807 -1.37783,-16.03807z" data-paper-data="{&quot;origPos&quot;:null}" fill="#ffcb66" stroke="#000000" stroke-width="3.5" stroke-linecap="round"/><path d="M296.70315,213.39833c-1.29167,0 -1.29167,-2.4875 -1.29167,-2.4875c0,-5.15926 0,-11.97684 0,-17.1361c0,0 0,-2.4875 1.29167,-2.4875c1.29167,0 1.29167,2.4875 1.29167,2.4875c0,5.15926 0,10.31851 0,15.47777v1.65833c0,0 0,2.4875 -1.29167,2.4875z" fill="#ffffff" stroke="none" stroke-width="0.5" stroke-linecap="butt"/><path d="M308.70315,219.73166c-1.29167,0 -1.29167,-3.125 -1.29167,-3.125c0,-6.48148 0,-15.04629 0,-21.52777c0,0 0,-3.125 1.29167,-3.125c1.29167,0 1.29167,3.125 1.29167,3.125c0,6.48148 0,12.96296 0,19.44445v2.08333c0,0 0,3.125 -1.29167,3.125z" fill="#ffffff" stroke="none" stroke-width="0.5" stroke-linecap="butt"/></g><g stroke="#000000" stroke-width="0.5" stroke-linecap="butt"><path d="M311.4819,229.70619c0,6.75773 -4.61499,12.23596 -10.30787,12.23596c-5.69288,0 -10.30787,-5.47823 -10.30787,-12.23596c0,-6.75773 4.61499,-12.23596 10.30787,-12.23596c5.69288,0 10.30787,5.47823 10.30787,12.23596z" fill="#ffa924"/><path d="M304.23451,218.41842c0.00042,0.01121 0.00064,0.02264 0.00064,0.03429c0,0.62472 -0.62472,0.62472 -0.62472,0.62472h-0.12494c-0.45645,0 -2.53723,0.0279 -2.84911,-0.10741c-0.26035,-0.11296 -0.20372,-0.54309 -0.39105,-0.75628c-0.17997,-0.20481 -0.43603,-0.33145 -0.67695,-0.45911c-0.38311,-0.20301 -0.90634,-0.19976 -1.18819,-0.52922c-0.26036,-0.30435 -0.29131,-0.7718 -0.26679,-1.17157c0.11516,-1.87748 1.26724,-1.89669 2.75543,-1.72741c0.44886,0.09887 0.91204,0.14686 1.34659,0.2966c0.19117,0.06587 0.30526,0.29409 0.50208,0.34041c0.1399,0.03293 0.27152,-0.0978 0.41262,-0.12514c0.00602,-0.00117 1.74906,-0.25012 1.76634,-0.25258c1.1784,-0.1673 2.43862,-0.21612 3.62786,-0.12987c0.75779,0.05496 2.47002,0.24268 2.90706,1.002c0.6224,1.08137 -1.1866,1.81308 -1.63938,1.99818c-1.33995,0.54778 -2.48368,0.20728 -3.84836,0.36625c-0.46486,0.05415 -1.21198,0.38014 -1.70913,0.59613z" fill="#1cc735"/></g></g><path d="M313.28078,196.06334c-12.07993,-0.41506 -23.79289,-0.85365 -28.53423,-2.06966c-4.33327,-1.11136 -5.5286,-3.92796 -5.5286,-3.92796c0,0 -1.64667,-2.50987 -1.66447,-4.04478c-0.05335,-4.60471 0.41058,-17.7469 1.8593,-29.03124c0.04834,-0.37661 0.08917,-0.58652 0.15986,-0.95958c0.21208,-1.11918 1.22512,-5.4549 1.22512,-5.4549c0,0 3.26064,-1.51547 5.01279,-1.91109c5.25642,-1.18685 18.38961,0.89215 32.27143,1.93079c1.25821,0.09414 3.34265,1.87048 3.34265,1.87048c0,0 1.39897,3.20343 1.26177,5.18222c-0.88689,12.79312 -1.91529,26.94455 -2.36231,30.17042c-0.149,1.07529 -2.17251,5.17838 -2.17251,5.17838z" fill="#582600" stroke="#000000" stroke-width="2.5" stroke-linecap="round"/><path d="M314.96197,175.66073c0.23826,-3.4367 0.84414,-6.19411 1.35328,-6.1588c0.50913,0.03528 0.72875,2.84991 0.4905,6.28662c-0.23826,3.4367 -0.84415,6.19412 -1.35328,6.15881c-0.50913,-0.03528 -0.72875,-2.84991 -0.4905,-6.28663z" fill="none" stroke="#000000" stroke-width="2.5" stroke-linecap="butt"/><path d="M308.4254,175.90674c0.24266,-3.50037 0.74896,-6.31651 1.1308,-6.29002c0.38185,0.02648 0.4947,2.88555 0.25202,6.38589c-0.24266,3.50037 -0.74893,6.31648 -1.13079,6.29002c-0.38185,-0.02648 -0.49471,-2.88553 -0.25203,-6.38587z" fill="none" stroke="#000000" stroke-width="2.5" stroke-linecap="butt"/><path d="M279.59116,150.06452l0.93718,-12.96618l43.68603,3.15761l-0.93718,12.96618z" fill="#000000" stroke="none" stroke-width="0" stroke-linecap="butt"/><path d="M303.67658,165.18558c0.09954,-1.37712 1.29662,-2.41281 2.67373,-2.31326c0.28276,0.02043 0.55112,0.08715 0.79822,0.19219c1.44465,-0.17069 8.84551,5.35284 6.55039,7.85881c-1.71258,1.86994 -6.84369,-1.64279 -8.59791,-3.02726c-0.48316,-0.38132 -2.01199,-2.10364 -1.42443,-2.71045z" data-paper-data="{&quot;index&quot;:null}" fill="#582600" stroke="none" stroke-width="0.5" stroke-linecap="butt"/><path d="M319.34006,169.32627c-1.42637,1.15459 -5.53189,3.99968 -6.525,1.93419c-1.33089,-2.76805 4.64739,-7.32454 5.6595,-6.97628c0.18976,-0.07346 0.38997,-0.10631 0.59476,-0.09151c0.99733,0.07209 1.72515,1.2469 1.6256,2.62401c0.34502,0.67421 -0.96201,2.19156 -1.35486,2.50957z" data-paper-data="{&quot;index&quot;:null}" fill="#582600" stroke="none" stroke-width="0.5" stroke-linecap="butt"/><g data-paper-data="{&quot;index&quot;:null}"><path d="M216.09129,249.25031c-0.20496,-2.25285 -4.06064,-5.72516 -2.00582,-5.85124c1.36892,-0.08399 20.78486,3.36685 22.01641,4.72571c0.61705,0.68084 1.07925,1.81579 1.14769,2.5678c0.10056,1.10531 -0.38962,2.05404 -1.24025,2.75375c-0.88315,0.72645 -19.9671,2.27726 -21.01376,2.34149c-2.05481,0.12608 1.30073,-4.28466 1.09574,-6.53752z" fill="#e99b00" stroke="#000000" stroke-width="1.5" stroke-linecap="butt"/><g stroke-linecap="butt"><path d="M209.32278,249.69123c-0.37137,-4.08164 1.47327,-7.5221 4.12011,-7.68449c2.64685,-0.16239 5.09358,3.01478 5.46495,7.09643c0.37133,4.08164 -1.47331,7.5221 -4.12014,7.68449c-2.64683,0.16242 -5.09357,-3.01477 -5.46493,-7.09641z" fill="#ffb727" stroke="#000000" stroke-width="1.5"/><path d="M214.98044,245.6816l-1.76101,-3.23445c0,0 1.74495,0.55298 2.34388,1.04651c1.24099,1.05291 1.73129,2.56411 1.73129,2.56411z" fill="#ffd683" stroke="none" stroke-width="0"/><path d="M216.02469,248.88888l-0.41294,-1.46811c0,0 0.91946,-0.16024 1.24795,-0.15881c0.38463,0.00168 1.08407,0.21294 1.08407,0.21294l0.20968,1.78122z" fill="#ffd683" stroke="none" stroke-width="0"/></g><g><path d="M215.22539,249.43717c0.51229,5.63067 -2.45858,8.95223 -7.98857,9.29152c-5.52998,0.33927 -10.45446,-4.23881 -10.96678,-9.86954c-0.51232,-5.63069 3.04106,-9.85846 8.57105,-10.19775c5.52996,-0.33926 9.87198,5.14501 10.3843,10.77574z" fill="#e99b00" stroke="#000000" stroke-width="1.5" stroke-linecap="butt"/><path d="M203.23015,239.15815c2.74366,-0.16836 5.71112,1.01724 7.94696,2.58665c1.59293,1.11813 2.81739,2.90241 2.99847,4.89274c0.37219,4.0911 -1.28465,5.65574 -6.12296,5.95259c-2.4162,0.14823 -5.51488,-1.11011 -7.65869,-2.74116c-2.14902,-1.63502 -3.58148,-2.92615 -3.58148,-2.92615c0,0 1.57938,-7.46781 6.41769,-7.76466z" fill="#ffb727" stroke="none" stroke-width="0" stroke-linecap="butt"/><path d="M204.90342,238.9684c0,0 4.04701,2.54665 4.86756,9.04547c0.82728,6.55207 -2.27429,9.7456 -2.27429,9.7456" fill="none" stroke="#000000" stroke-width="0.8" stroke-linecap="round"/><path d="M209.40381,239.87317c0,0 2.46598,3.68779 3.4531,7.77697c1.42258,5.89302 -0.27515,8.33531 -0.27515,8.33531" fill="none" stroke="#000000" stroke-width="0.75" stroke-linecap="round"/><path d="M200.70109,240.12592c0,0 3.49488,2.75874 4.67566,9.2287c1.13572,6.22294 -0.60165,8.23441 -0.60165,8.23441" fill="none" stroke="#000000" stroke-width="0.8" stroke-linecap="round"/><path d="M203.50687,257.61063c0,0 -2.51441,-3.73755 -3.61762,-6.84506c-1.45312,-4.09309 -1.8008,-8.39875 -1.8008,-8.39875" fill="none" stroke="#000000" stroke-width="0.8" stroke-linecap="round"/><path d="M214.67153,251.63985c0,0 -2.86257,2.46501 -8.668,3.06222c-5.41748,0.5573 -8.08244,-2.03456 -8.08244,-2.03456" fill="none" stroke="#000000" stroke-width="0.8" stroke-linecap="round"/><path d="M197.45823,250.6153c0,0 2.77879,0.01709 5.76598,-0.43942c2.62696,-0.40147 5.39341,-1.26975 6.87253,-1.44666c1.75679,-0.21011 4.73434,-0.19192 4.73434,-0.19192" fill="none" stroke="#000000" stroke-width="0.8" stroke-linecap="round"/><path d="M196.72995,248.07334c0,0 4.02104,-3.17879 7.80682,-3.52048c5.9419,-0.5363 9.95043,1.41887 9.95043,1.41887" fill="none" stroke="#000000" stroke-width="0.8" stroke-linecap="round"/><path d="M196.87422,244.80305c0,0 2.82486,-2.45953 6.52529,-3.32437c5.32876,-1.24541 8.35879,-0.00677 8.35879,-0.00677" fill="none" stroke="#000000" stroke-width="0.8" stroke-linecap="round"/><path d="M203.82235,240.44052c0.03654,0.40148 -0.30269,0.74962 -0.75765,0.77751c-0.45497,0.02793 -0.85341,-0.27493 -0.88993,-0.67641c-0.03652,-0.4015 0.30268,-0.74962 0.75764,-0.77751c0.45497,-0.02795 0.85343,0.27491 0.88995,0.67639z" fill="#ffd683" stroke="none" stroke-width="0" stroke-linecap="butt"/><path d="M200.44693,241.8847c-0.22747,0.01395 -0.42897,-0.16251 -0.45004,-0.39413c-0.02107,-0.23162 0.14626,-0.43071 0.37374,-0.44466c0.22748,-0.01394 0.42897,0.16251 0.45004,0.39413c0.02108,0.23162 -0.14626,0.43071 -0.37374,0.44466z" fill="#ffd683" stroke="none" stroke-width="0" stroke-linecap="butt"/></g></g><g data-paper-data="{&quot;index&quot;:null,&quot;origRot&quot;:0}" stroke="#000000" stroke-linecap="round"><path d="M300.27616,239.42333c0,0 4.7995,-0.10728 4.7878,1.43592c-0.03451,4.55375 1.62641,8.95833 -0.01012,13.20798c-0.67955,1.76466 -4.90751,2.48376 -4.90751,2.48376l-32.80283,4.48338c0,0 -3.38109,0.5071 -5.33399,0.72999c-2.08801,0.2383 -5.23255,-0.79388 -5.33516,-2.89293c-0.37671,-7.70706 -2.03139,-12.43878 -1.03918,-17.29911c0.36149,-1.7707 0.86134,-3.62616 2.51733,-4.34989c2.16314,-0.94539 6.59669,-0.29005 6.59669,-0.29005z" data-paper-data="{&quot;origPos&quot;:null}" fill="#ff0000" stroke-width="3"/><path d="M258.65773,261.84081c0,0 -2.73217,-5.88878 -2.8251,-10.97497c-0.07128,-3.9023 0.79803,-12.37316 0.79803,-12.37316c0,0 2.58238,-1.4002 4.18068,-1.51846c1.6837,-0.12459 4.22905,0.89615 4.22905,0.89615l1.22305,23.2918z" data-paper-data="{&quot;origPos&quot;:null}" fill="#976e57" stroke-width="2.5"/><path d="M264.42985,237.01958c0,0 12.67883,0.88896 20.79393,1.45795c5.74977,0.40315 14.73304,1.03301 14.73304,1.03301c0,0 4.7995,-0.10729 4.7878,1.43591c-0.03451,4.55374 1.62641,8.95834 -0.01012,13.20799c-0.67955,1.76467 -4.90751,2.48376 -4.90751,2.48376l-32.80283,4.48338c0,0 -3.38109,0.5071 -5.33399,0.72999c-2.088,0.2383 -5.23255,-0.79388 -5.33516,-2.89293c-0.37672,-7.70707 -2.03138,-12.43878 -1.03917,-17.29911c0.36148,-1.7707 0.86134,-3.62616 2.51733,-4.34989c2.16314,-0.94539 6.59669,-0.29005 6.59669,-0.29005z" data-paper-data="{&quot;origPos&quot;:null}" fill="#474747" stroke-width="1.5"/></g><g data-paper-data="{&quot;index&quot;:null}"><path d="M286.48467,191.63686c3.18924,-0.41224 -2.26091,12.72615 -2.35305,15.02782c-0.10011,2.50157 -16.57495,-10.40331 -16.57495,-10.40331l-2.76183,-2.2269l18.53948,14.39872c0,0 6.65365,4.64995 5.07153,6.27501c0,0 -3.40016,10.60712 -18.88046,21.408c-4.5597,-2.37523 -12.47551,-11.37463 -12.47551,-11.37463c0,0 -18.50202,-19.16834 -17.41705,-23.75804c0.25126,-1.06281 6.11141,-12.76189 10.03797,-14.12758c13.03011,-4.53195 36.81388,4.78091 36.81388,4.78091z" fill="#582700" stroke="#000000" stroke-width="2.5" stroke-linecap="round"/><path d="M268.47275,197.84913c-0.3807,-0.33445 -0.75739,-0.67473 -1.13609,-1.01452c-0.08358,-0.075 -0.94633,-1.01574 -1.49389,-1.26751c-4.6935,5.05779 -8.54759,10.78802 -13.52934,15.62043c-0.41039,0.45607 -1.18081,1.50491 -2.05304,2.40985c-0.18097,0.33446 -0.2832,0.62039 -0.22956,0.78759c0.45605,1.42169 1.8995,2.65589 2.62636,3.97644c0.15939,-0.34867 0.63461,-1.35061 0.90453,-1.72128c0.80161,-1.10079 1.59058,-2.19117 2.35794,-3.31523c2.68988,-3.94026 6.04702,-7.90431 9.16742,-11.48009c0.96825,-1.39548 2.11968,-2.79074 3.38565,-3.99568zM269.62308,198.82078c-1.25949,1.17695 -2.40003,2.57266 -3.35391,3.94743c-3.54782,4.0279 -6.9719,8.48215 -10.09084,12.88726c-1.28511,1.81506 -2.54401,5.04843 -4.70532,3.62782c-0.79044,-1.39605 -2.32939,-2.81331 -2.83585,-4.37205c-0.41551,0.21548 -0.81975,0.30655 -1.18747,0.20112c-0.51761,-0.14841 -1.56969,-2.04611 -1.93639,-2.51293c-2.18772,-2.78496 -5.33256,-5.72305 -4.83676,-9.57627c-0.90846,-6.1537 4.15929,-13.74737 8.81856,-17.30423c4.23147,-1.24628 7.59977,-0.62224 11.80718,0.30011c3.03787,0.66596 6.02045,0.73433 9.01751,1.76528c4.36086,0.86009 8.68281,1.85177 13.04103,2.71736c2.00025,0.39728 4.06366,0.09548 4.71814,2.28156c-0.90776,3.48416 -1.82703,7.00594 -2.81897,10.48302c-0.30922,1.08388 -1.00987,3.26349 -2.0674,3.86508c-1.4697,0.83601 -2.78071,-0.50511 -3.81598,-1.41167c-2.54176,-1.67008 -5.23772,-3.63423 -7.74399,-5.76608c-0.32145,0.08542 -0.62107,-0.11231 -0.62107,-0.11231c-0.48159,-0.31856 -0.94146,-0.66177 -1.38846,-1.0205zM250.05262,211.39926c2.2076,-3.41567 5.29642,-5.98888 7.57251,-9.2921c1.30226,-1.97354 3.33218,-5.67383 5.79555,-7.3047c0.0846,-0.13059 0.18217,-0.20721 0.18217,-0.20721l0.60688,-0.47249c0.50345,-0.56103 1.19397,-0.95389 1.89172,-1.23917c5.20997,2.95788 9.10744,8.27925 14.18475,11.6433c0.51928,0.45567 1.21766,1.1521 1.8441,1.43296c0.3853,0.17273 1.39139,-2.14411 1.49846,-2.4301c1.30369,-3.48207 1.78589,-7.24991 2.95051,-10.77877c0.03615,-0.38035 -2.90648,-0.65759 -3.51353,-0.77866c-4.38937,-0.87531 -8.7464,-1.85896 -13.13684,-2.73988c-2.9822,-1.02231 -5.92881,-1.09367 -8.95356,-1.74951c-3.84986,-0.83474 -6.92318,-1.48231 -10.79884,-0.42776c-4.17438,3.41873 -8.83913,10.26441 -8.00011,15.94777c-0.42666,3.76934 3.53445,7.94208 5.69848,10.67089c0.02295,0.02892 1.19035,-1.20493 2.14341,-2.22232c0.01175,-0.01766 0.02321,-0.03509 0.03433,-0.0523z" fill="#000000" stroke="none" stroke-width="0.5" stroke-linecap="butt"/><path d="M265.12625,201.81374c-3.12037,3.57579 -6.53721,7.61649 -9.22708,11.55677c-0.76735,1.12406 -1.5595,2.21287 -2.36113,3.31366c-0.26993,0.37065 -0.74507,1.37263 -0.90446,1.72131c-0.72689,-1.32057 -2.18461,-2.5662 -2.64067,-3.98788c-0.05361,-0.1672 0.0473,-0.45472 0.22827,-0.78918c0.87224,-0.90495 1.64035,-1.95692 2.05074,-2.413c4.98175,-4.83245 8.90375,-10.63301 13.59723,-15.6908c0.54755,0.25179 1.41631,1.1969 1.4999,1.27189c0.37872,0.33979 0.75962,0.68409 1.1403,1.01854c-1.26597,1.20494 -2.41485,2.60318 -3.3831,3.99867z" data-paper-data="{&quot;noHover&quot;:false,&quot;origItem&quot;:[&quot;Path&quot;,{&quot;applyMatrix&quot;:true,&quot;segments&quot;:[[[926.17844,407.1979],[3.2606,1.25965],[-0.27949,0.97418]],[[925.31465,410.11917],[0.29084,-0.97519],[-0.06418,0.21521]],[[924.29914,413.90358],[-0.01258,-1.20526],[13.15638,4.16543]],[[964.1057,425.02121],[-12.99513,-4.87922],[1.17537,0.35239]],[[970.21765,426.67451],[-2.3817,-0.804],[0.75941,0.04146]],[[971.83798,426.41666],[-0.25651,0.23985],[2.18115,-2.03947]],[[976.78433,418.26967],[-1.76682,2.44279],[-0.76669,0.00973]],[[972.89889,418.10481],[0.90089,0.17138],[-2.67549,-0.50896]],[[964.88923,416.67374],[2.68829,0.42712],[-9.42353,-1.49721]],[[936.29671,409.90591],[9.13228,2.58714],[-3.35077,-0.55846]]],&quot;closed&quot;:true}]}" fill="#ffffff" stroke="none" stroke-width="0.5" stroke-linecap="butt"/><path d="M251.27246,210.11641c-0.15195,0.16875 -3.39796,3.63743 -3.43591,3.58956c-2.16403,-2.72881 -6.13657,-6.92914 -5.70991,-10.69843c-0.83902,-5.68337 3.84199,-12.57069 8.01638,-15.98941c3.87567,-1.05456 6.97558,-0.41941 10.82546,0.41534c3.02474,0.65585 6.00379,0.73371 8.98598,1.75603c4.39043,0.88092 8.7675,1.88694 13.15688,2.76225c0.60704,0.12105 3.55128,0.40229 3.51512,0.78263c-1.16461,3.52884 -1.64432,7.31908 -2.94801,10.80118c-0.10709,0.28598 -1.11436,2.60926 -1.49963,2.43652c-0.62646,-0.28087 -1.42241,-0.9991 -1.94166,-1.45477c-5.07731,-3.36406 -8.94395,-8.62926 -14.15391,-11.58714c-0.69774,0.28527 -1.37937,0.68068 -1.88283,1.24173l-0.60305,0.47307c0,0 -0.57892,0.36381 -0.11571,0.95366c0.04638,0.05907 0.08172,0.2068 0.1299,0.24626c-4.18694,4.73667 -7.7732,9.83539 -12.3391,14.27152z" data-paper-data="{&quot;noHover&quot;:false,&quot;origItem&quot;:[&quot;Path&quot;,{&quot;applyMatrix&quot;:true,&quot;segments&quot;:[[[926.61254,417.73069],[12.14285,3.5238],[-0.03018,0.12086]],[[926.46822,418.11346],[0.06716,-0.13431],[-0.67082,1.34164]],[924.45576,418.78428],[[923.08279,418.0906],[0,0],[-1.44471,-0.43097]],[[919.22563,415.72869],[1.11205,1.01797],[0.89694,-11.9485]],[[928.15956,380.1298],[-1.74473,12.05571],[0.38029,-1.32836]],[[929.175,375.57071],[0.02742,1.37277],[-0.01686,-0.84429]],[[923.5003,374.93752],[0.60865,-0.05075],[-7.41054,0.61792]],[[901.48814,378.8123],[7.37628,-0.90935],[-0.71866,0.25961]],[[903.08234,385.83106],[-0.2998,-1.20115],[2.16779,8.68513]],[[909.35292,411.92731],[-2.15853,-8.69186],[0.69956,6.26621]],[[913.83986,429.61277],[-1.39861,-6.02998],[1.78014,7.67491]],[[922.29365,449.50563],[-5.21858,-6.1072],[9.74892,4.62723]],[[957.96755,450.34516],[-9.56021,6.37347],[7.18055,-2.44927]],[[972.39433,430.92276],[-3.08539,6.24485],[0.05411,-0.10951]],[[963.14745,427.86406],[0.43501,0.13058],[-11.92317,-4.46591]]],&quot;closed&quot;:true}]}" fill="#ffcb66" stroke="none" stroke-width="0.5" stroke-linecap="butt"/></g><path d="M305.22842,185.11734c0,0 -3.18723,-1 -4,-1c-0.43445,0 -0.5,1 -0.5,1" fill="none" stroke="#000000" stroke-width="1" stroke-linecap="round"/></g></g></svg>