<svg version="1.1" xmlns="http://www.w3.org/2000/svg" xmlns:xlink="http://www.w3.org/1999/xlink" width="210" height="221" viewBox="0,0,210,221"><g transform="translate(-140,-90)"><g data-paper-data="{&quot;isPaintingLayer&quot;:true}" fill-rule="nonzero" stroke-linejoin="miter" stroke-miterlimit="10" stroke-dasharray="" stroke-dashoffset="0" style="mix-blend-mode: normal"><path d="M140,311v-221h210v221z" fill="none" stroke="none" stroke-width="0" stroke-linecap="butt"/><g data-paper-data="{&quot;index&quot;:null}" stroke="#000000" stroke-linecap="round"><path d="M260.57646,195.10156c0,0 16.43711,-1.59725 16.41853,5.02736c-0.0504,17.98052 -28.63695,12.06568 -28.63695,12.06568z" data-paper-data="{&quot;origPos&quot;:null}" fill="#7c7c7c" stroke-width="2"/><path d="M259.81283,196.60979c0,0 11.93033,-0.56333 12.60027,1.38252c0.21128,0.61371 -15.90943,2.51368 -15.90943,2.51368z" data-paper-data="{&quot;origPos&quot;:null}" fill="#0a0a0a" stroke-width="1"/></g><g><path d="M263.91849,243.37197c0,0 1.51573,15.70836 -0.70398,16.08212c-6.65915,1.12134 -24.3019,1.0088 -39.32327,1.6396c-1.68745,0.07086 -2.08487,-14.88392 -2.08487,-14.88392l0.48388,-30.67621c0,0 0.7535,-13.57728 2.30035,-13.64223c10.00609,-0.42018 24.93689,-1.97861 31.55614,-0.61151c2.20642,0.4557 4.79027,14.76961 4.79027,14.76961z" data-paper-data="{&quot;origPos&quot;:null}" fill="#7c7c7c" stroke="#000000" stroke-width="3.5" stroke-linecap="round"/><path d="M230.84459,225.18569c-1.30684,0.05488 -1.41387,-2.43037 -1.41387,-2.43037c-0.22197,-5.15461 -0.5153,-11.96603 -0.73727,-17.12063c0,0 -0.10701,-2.48526 1.19982,-2.54013c1.30684,-0.05488 1.41386,2.43037 1.41386,2.43037c0.22197,5.15461 0.44395,10.30919 0.66592,15.4638l0.07135,1.65684c0,0 0.10702,2.48526 -1.19981,2.54013z" fill="#ffffff" stroke="none" stroke-width="0.5" stroke-linecap="butt"/><path d="M243.25804,231.00347c-1.30684,0.05488 -1.44129,-3.0673 -1.44129,-3.0673c-0.27887,-6.47563 -0.64735,-15.0327 -0.92622,-21.50834c0,0 -0.13444,-3.12218 1.17239,-3.17705c1.30684,-0.05488 1.44128,3.0673 1.44128,3.0673c0.27887,6.47563 0.55771,12.95125 0.83658,19.42689l0.08964,2.08145c0,0 0.13445,3.12218 -1.17238,3.17705z" fill="#ffffff" stroke="none" stroke-width="0.5" stroke-linecap="butt"/></g><g fill="none" stroke="#b9b9b9" stroke-width="3"><path d="M253.95078,206.21998c-0.83801,-1.35809 0.08698,-2.57767 1.32541,-3.7957c1.23844,-1.21801 2.48139,-1.58994 3.15939,-0.61516c1.43752,2.06682 -0.07066,3.04234 -1.04041,3.99608c-1.23845,1.21803 -2.26092,2.33277 -3.44439,0.41479z" stroke-linecap="butt"/><path d="M252.32475,208.14868l2.62276,-2.51944" stroke-linecap="round"/><path d="M248.73335,208.77801c1.23844,-1.21801 2.48139,-1.58994 3.15939,-0.61516c1.43752,2.06682 -0.07066,3.04234 -1.04041,3.99608c-1.23844,1.21802 -2.26091,2.33277 -3.44438,0.41479c-0.83801,-1.35809 0.08697,-2.57767 1.3254,-3.79571z" stroke-linecap="butt"/><path d="M248.40465,211.98296l-2.62276,2.51946" stroke-linecap="round"/><path d="M240.08844,214.05014c0.40573,-1.63508 1.76071,-1.48046 3.29977,-1.02164c1.53905,0.45883 2.51969,1.43557 2.27365,2.68318c-0.52168,2.64527 -2.05923,1.77826 -3.26434,1.41899c-1.53905,-0.45882 -2.88208,-0.77137 -2.30907,-3.08052z" stroke-linecap="butt"/><path d="M241.06877,214.65586l-3.21955,-1.00816" stroke-linecap="round"/><path d="M232.79756,209.67439c0.90431,-1.31672 2.09397,-0.52961 3.35296,0.62589c1.259,1.1555 1.8381,2.52367 1.20626,3.55857c-1.33969,2.19428 -2.46423,0.66261 -3.45008,-0.24218c-1.25899,-1.15551 -2.38623,-2.08274 -1.10915,-3.94227z" stroke-linecap="butt"/><path d="M233.49732,210.69982l-2.61792,-2.46183" stroke-linecap="round"/><path d="M226.21152,203.54975c0.90431,-1.3167 2.09398,-0.52961 3.35296,0.62589c1.259,1.1555 1.8381,2.52367 1.20626,3.55857c-1.33969,2.19427 -2.46423,0.66261 -3.45007,-0.24218c-1.25899,-1.1555 -2.38623,-2.08273 -1.10915,-3.94227z" stroke-linecap="butt"/><path d="M226.91131,204.57519l-2.61794,-2.46183" stroke-linecap="round"/></g><path d="M279.1785,253.91771c0,0 4.41784,-1.02642 6.68122,-0.26656c1.73271,0.58168 2.39536,2.38846 2.91115,4.12242c1.41573,4.7595 0.14963,9.61376 0.42682,17.32516c0.07548,2.10025 -3.00953,3.39358 -5.13678,3.33199c-1.98961,-0.05762 -5.4446,-0.27815 -5.4446,-0.27815l-33.4825,-1.70473c0,0 -4.32759,-0.36046 -5.16382,-2.06162c-2.01379,-4.09672 -0.71348,-8.62555 -1.13668,-13.16021c-0.14342,-1.53674 4.70872,-1.83404 4.70872,-1.83404c0,0 9.01096,-1.38422 14.77846,-2.27018c8.14012,-1.25044 20.85804,-3.20407 20.85804,-3.20407z" data-paper-data="{&quot;index&quot;:null}" fill="#171717" stroke="#000000" stroke-width="3" stroke-linecap="round"/><path d="M220.12792,200.13553c0,0 -1.9496,-4.15011 -2.07452,-5.22864c-0.37479,-3.23558 -1.07466,-17.40747 -1.66407,-30.21809c-0.09118,-1.98149 1.40234,-5.1507 1.40234,-5.1507c0,0 2.15306,-1.72621 3.42911,-1.79037c14.07863,-0.7078 27.42448,-2.47351 32.7173,-1.16184c1.76428,0.43722 5.02873,2.02991 5.02873,2.02991c0,0 0.92101,4.3586 1.10875,5.48253c0.06257,0.37464 0.09884,0.58546 0.1387,0.96312c1.19456,11.31563 1.34735,24.46514 1.1823,29.06727c-0.05501,1.53405 -1.78258,4.00399 -1.78258,4.00399c0,0 -1.27806,2.78733 -5.69173,3.79522c-4.82933,1.10279 -16.69778,1.26235 -28.93721,1.38965z" fill="#582700" stroke="#000000" stroke-width="2.5" stroke-linecap="round"/><path d="M261.34855,159.10729l-0.7468,-0.48955c-0.0919,-0.02643 -0.18371,-0.05236 -0.27548,-0.07782c-0.20913,0.32123 -0.62761,0.70359 -1.38267,0.49449c-0.69593,-0.19271 -0.88305,-0.66778 -0.91553,-1.03995c-2.68976,-0.53605 -5.36609,-0.73056 -8.17193,-0.84933c-7.84456,-0.06714 -15.6782,0.46686 -23.51311,0.84117c-2.5695,0.12276 -8.27071,1.41832 -10.49922,-0.16408c-1.08684,-0.77172 -0.77188,-2.71941 -0.92502,-3.76645c-0.44371,-3.03408 -0.97174,-6.17212 -1.13348,-9.23562c-0.18429,-4.0056 -1.87591,-7.50983 -2.57871,-11.41367c-0.35234,-1.95713 -1.12435,-3.90471 0.57726,-5.69153c0.48045,-0.50451 1.37855,-0.26628 2.07637,-0.33542c2.55032,-0.25266 5.03297,-0.19744 7.57617,-0.02031c8.05942,0.56134 16.00823,0.70477 24.03655,1.75344c3.23879,0.42686 6.47854,0.34195 9.74517,0.29603c1.91987,-0.02699 3.64229,-0.65016 4.89364,1.45885c0.74728,1.25946 0.43563,5.28297 0.45292,6.76589c0.06668,5.71809 1.31749,12.68279 0.3819,18.4823c0.12038,0.03299 0.24084,0.06673 0.36141,0.10124l1.34141,0.74558c0,0 1.08593,0.64231 0.43549,1.71466c-0.65044,1.07235 -1.73637,0.43005 -1.73637,0.43005z" data-paper-data="{&quot;index&quot;:null}" fill="#000000" stroke="none" stroke-width="0.5" stroke-linecap="butt"/><path d="M236.06629,172.85463c0.66749,1.06209 -0.40803,1.72123 -0.40803,1.72123l-0.71575,0.41803c-1.15407,1.00225 -1.79757,1.46722 -2.66764,1.70773l0.09291,0.20796l-1.26391,0.55067c-0.1453,0.06734 -0.30608,0.10833 -0.47634,0.11647c-0.69828,0.03336 -1.29173,-0.49858 -1.32551,-1.18813c-0.01952,-0.39859 0.15223,-0.7626 0.43553,-1.00526l0.96356,-0.83975l0.02257,0.02525l0.03739,-0.07435c0.84105,-0.56991 1.68785,-1.13174 2.54302,-1.68077c0,0 0.35633,-0.22874 0.79027,-0.21724l0.22894,-0.14479c0,0 1.07554,-0.65914 1.74302,0.40293z" fill="#582700" stroke="none" stroke-width="0.5" stroke-linecap="butt"/><path d="M242.07095,172.48201l0.24202,0.12228c0.43078,-0.05279 0.80781,0.1409 0.80781,0.1409c0.90485,0.46495 1.80262,0.94343 2.69545,1.43051l0.04448,0.07044l0.01999,-0.02728l1.04115,0.74398c0.30569,0.21452 0.51222,0.56046 0.53175,0.95905c0.03378,0.68955 -0.50489,1.27558 -1.20317,1.30894c-0.17028,0.00814 -0.33429,-0.01735 -0.48549,-0.07052l-1.31184,-0.42761l0.07216,-0.21584c-0.88952,-0.15645 -1.57549,-0.5579 -2.82212,-1.44547l-0.75329,-0.34785c0,0 -1.13494,-0.55355 -0.57439,-1.6743c0.56056,-1.12075 1.6955,-0.56721 1.6955,-0.56721z" data-paper-data="{&quot;index&quot;:null}" fill="#582700" stroke="none" stroke-width="0.5" stroke-linecap="butt"/><path d="M228.11435,175.59549c0.30078,-0.20713 1.69238,1.2502 3.10821,3.25502c1.41583,2.00482 2.3198,3.79797 2.01901,4.00511c-0.30078,0.20715 -1.69238,-1.25018 -3.10821,-3.255c-1.41583,-2.00482 -2.31981,-3.79798 -2.01902,-4.00512z" data-paper-data="{&quot;index&quot;:null}" fill="none" stroke="#000000" stroke-width="2.5" stroke-linecap="butt"/><path d="M233.35631,182.08583c0.29337,0.21726 -0.67275,1.97854 -2.15783,3.9339c-1.48507,1.95536 -2.92678,3.36439 -3.22014,3.1471c-0.29337,-0.21726 0.67274,-1.97853 2.15782,-3.93389c1.48507,-1.95536 2.92678,-3.36439 3.22014,-3.14712z" data-paper-data="{&quot;index&quot;:null}" fill="none" stroke="#000000" stroke-width="2.5" stroke-linecap="butt"/><path d="M247.34269,187.65445c-0.28113,0.23249 -1.79726,-1.09823 -3.38633,-2.97217c-1.58908,-1.87395 -2.64937,-3.58155 -2.36822,-3.81403c0.28113,-0.23249 1.79725,1.09821 3.38633,2.97216c1.58908,1.87395 2.64937,3.58155 2.36824,3.81404z" data-paper-data="{&quot;index&quot;:null}" fill="none" stroke="#000000" stroke-width="2.5" stroke-linecap="butt"/><g data-paper-data="{&quot;index&quot;:null}" stroke="#000000" stroke-width="1.25" stroke-linecap="butt"><path d="M245.13041,189.56387c4.70831,-0.36355 6.1157,4.76626 6.1157,4.76626l-14.53103,1.12201c0,0 3.70703,-5.52472 8.41533,-5.88827z" data-paper-data="{&quot;index&quot;:null}" fill="#000000"/><path d="M243.97329,194.87112c0,0 0.19603,-1.67878 2.03944,-2.56482c1.20467,-0.57903 3.84009,-0.66922 4.19921,-0.13437c0.74747,1.11325 1.03417,2.15822 1.03417,2.15822z" data-paper-data="{&quot;index&quot;:null}" fill="#ff8484"/></g><path d="M219.10681,200.7053c0,0 -2.05332,-4.13197 -2.19337,-5.20931c-0.42016,-3.23199 -1.28955,-17.39686 -2.03085,-30.20151c-0.11467,-1.98057 1.39209,-5.16342 1.39209,-5.16342c0,0 2.20179,-1.74599 3.51674,-1.8219c14.50768,-0.83754 28.24883,-2.7262 33.71942,-1.46337c1.82354,0.42094 5.2058,1.98347 5.2058,1.98347c0,0 0.99502,4.34993 1.20031,5.47208c0.06842,0.37405 0.108,0.58453 0.15305,0.9618c1.34962,11.30416 1.64431,24.45172 1.52214,29.05518c-0.04072,1.5345 -1.79607,4.02026 -1.79607,4.02026c0,0 -1.2886,2.79899 -5.82858,3.84753c-4.96754,1.14726 -17.20223,1.41621 -29.81976,1.65633z" fill="#582700" stroke="#000000" stroke-width="2.5" stroke-linecap="round"/><path d="M261.17733,159.29878l-0.77506,-0.48265c-0.09502,-0.02558 -0.18995,-0.05066 -0.28484,-0.07528c-0.21226,0.32315 -0.63973,0.70934 -1.42037,0.50722c-0.71951,-0.18629 -0.9174,-0.65962 -0.95475,-1.03147c-2.77874,-0.51124 -5.54006,-0.68106 -8.43412,-0.77397c-8.08843,0.00517 -16.15935,0.61135 -24.23323,1.05787c-2.64787,0.14643 -8.51231,1.4945 -10.8264,-0.06729c-1.12858,-0.76167 -0.82418,-2.71219 -0.99297,-3.75777c-0.4891,-3.02986 -1.06625,-6.16291 -1.26496,-9.22479c-0.23179,-4.00374 -2.0124,-7.49223 -2.7777,-11.38943c-0.38366,-1.9538 -1.19993,-3.89419 0.53579,-5.69662c0.49008,-0.50892 1.4185,-0.27898 2.13723,-0.35455c2.62673,-0.27616 5.18692,-0.24382 7.81082,-0.09014c8.31511,0.48702 16.51182,0.55719 24.79996,1.53181c3.34364,0.39699 6.68294,0.28222 10.05036,0.20619c1.97911,-0.04468 3.74842,-0.6837 5.06056,1.41368c0.78358,1.25252 0.50423,5.27874 0.53754,6.76144c0.12839,5.71724 1.49062,12.67013 0.58653,18.47803c0.12445,0.03188 0.24901,0.0645 0.37367,0.0979l1.39077,0.73318c0,0 1.12629,0.63227 0.46688,1.71058c-0.65942,1.0783 -1.78571,0.44604 -1.78571,0.44604z" data-paper-data="{&quot;index&quot;:null}" fill="#000000" stroke="none" stroke-width="0.5" stroke-linecap="butt"/><g data-paper-data="{&quot;index&quot;:null}" stroke="#000000" stroke-width="1.25" stroke-linecap="butt"><path d="M243.15515,199.82547c-9.04252,1.52302 -7.85605,-7.99635 -7.85605,-7.99635l12.73274,-2.02881c0,0 3.66422,8.58663 -4.87668,10.02516z" fill="#000000"/><path d="M243.78987,197.00028c2.05016,-0.99268 4.76972,-1.27931 4.65043,-0.9476c-0.61399,1.70745 -2.10182,3.23663 -5.28516,3.77278c-1.06216,0.17889 -1.98318,0.20543 -2.78156,0.11294c-0.38636,-0.04476 1.18369,-1.85712 3.41628,-2.93812z" fill="#ff8484"/><path d="M248.66684,192.78941c0.00761,0.04039 -11.38081,1.9013 -11.38081,1.9013l-0.44442,-3.10737l11.19023,-1.78303c0,0 0.40411,1.76345 0.63499,2.98909z" fill="#ffffff"/></g><path d="M233.69239,175.20036c0.54967,-0.01995 1.11744,2.95569 1.26822,6.64622c0.15078,3.69054 -0.17259,6.69848 -0.72224,6.71841c-0.54967,0.01995 -1.11746,-2.95568 -1.26823,-6.64621c-0.15078,-3.69054 0.17258,-6.69849 0.72225,-6.71843z" data-paper-data="{&quot;index&quot;:null}" fill="none" stroke="#580000" stroke-width="2.5" stroke-linecap="butt"/><path d="M239.91237,265.47173c0,0 2.06417,3.99136 1.85735,6.34323c-0.1583,1.80045 -1.77683,2.86727 -3.3588,3.77589c-4.34234,2.49399 -9.41818,2.43889 -16.93519,4.54589c-2.04731,0.57384 -4.05572,-2.07569 -4.50306,-4.1303c-0.41838,-1.92166 -1.02644,-5.28744 -1.02644,-5.28744l-6.31797,-32.51463c0,0 -0.6788,-4.23595 0.79441,-5.44402c3.54779,-2.90924 8.31178,-2.74364 12.67,-4.23217c1.47695,-0.50445 2.92782,4.07747 2.92782,4.07747c0,0 3.51268,8.31044 5.76098,13.62958c3.1732,7.50731 8.13091,19.23654 8.13091,19.23654z" data-paper-data="{&quot;index&quot;:null}" fill="#171717" stroke="#000000" stroke-width="3" stroke-linecap="round"/><g data-paper-data="{&quot;index&quot;:null}"><g data-paper-data="{&quot;origRot&quot;:0}" stroke="#000000" stroke-width="3" stroke-linecap="round"><path d="M259.64516,255.40411c-0.13794,2.44902 -9.44909,0.30068 -9.44909,0.30068c0,0 -24.78722,-5.04154 -36.50416,-7.37644c-4.78076,-1.6577 -3.75985,-40.67324 0.74803,-44.60141c2.00945,-1.75104 12.66241,-3.20617 14.18055,-1.7033c2.88971,2.86057 7.3246,19.34181 7.3246,19.34181l-4.54243,-0.10725l11.87838,1.34701c0,0 13.94388,0.43538 19.7459,2.14293c3.21786,0.94702 -3.38179,30.65599 -3.38179,30.65599z" data-paper-data="{&quot;origPos&quot;:null}" fill="#582700"/><path d="M252.05408,223.94594l-3.0945,29.89941" fill="none"/><path d="M247.38108,223.68212l-2.78495,29.93597" data-paper-data="{&quot;origPos&quot;:null}" fill="none"/></g><path d="M248.70285,254.44256l-3.04114,-0.34154l2.95686,-30.60809l3.04115,0.34154z" fill="#ffffff" stroke="none" stroke-width="0" stroke-linecap="butt"/><path d="M213.36339,248.44811l-2.60778,-10.94117l1.11724,-24.00883l2.46278,-8.12781l4.19596,-3.25834l8.14527,0.49065l1.62905,0.09813l6.73169,17.45943l-3.26693,0.054l-0.07047,2.0021l14.36354,1.61759l-1.88049,30.23267l-29.182,-5.77054z" fill="#7c7c7c" stroke="#000000" stroke-width="0.5" stroke-linecap="round"/></g><path d="M242.52896,174.80913c0.54967,-0.01995 1.11744,2.95569 1.26822,6.64622c0.15078,3.69054 -0.17259,6.69848 -0.72224,6.71841c-0.54967,0.01995 -1.11746,-2.95568 -1.26823,-6.64621c-0.15078,-3.69054 0.17258,-6.69849 0.72225,-6.71843z" data-paper-data="{&quot;index&quot;:null}" fill="none" stroke="#580000" stroke-width="2.5" stroke-linecap="butt"/><g><g><g data-paper-data="{&quot;index&quot;:null}" stroke="#000000"><path d="M296.65739,234.82537c-2.07186,4.54106 -28.23674,9.87904 -33.20215,7.46121c-5.09242,-2.47969 -11.44972,-13.68445 -14.13233,-20.59387c-2.68259,-6.90944 -2.06326,-17.58837 -1.09935,-18.63766c2.8917,-3.14789 15.05347,-2.28836 20.50535,-2.4904c3.25758,-0.12073 16.07127,-0.24906 19.83544,1.8555c3.98239,2.22658 9.5251,29.2665 8.09307,32.40517z" data-paper-data="{&quot;origRot&quot;:0,&quot;origPos&quot;:null}" fill="#582700" stroke-width="3" stroke-linecap="butt"/><path d="M264.83274,209.36483l20.15022,-3.38494" data-paper-data="{&quot;origPos&quot;:null}" fill="none" stroke-width="2" stroke-linecap="round"/><path d="M265.51734,238.25004l-3.15726,-25.16599" data-paper-data="{&quot;origPos&quot;:null}" fill="none" stroke-width="2" stroke-linecap="round"/><path d="M261.3386,239.74018c0,0 -4.84031,-29.25061 -3.06845,-32.38237c1.55116,-2.74169 28.83499,-4.78988 28.83499,-4.78988" data-paper-data="{&quot;origPos&quot;:null}" fill="none" stroke-width="1.5" stroke-linecap="round"/><path d="M258.8797,236.54541c0,0 -4.60988,-27.85808 -2.92237,-30.84073c1.47732,-2.61117 27.46223,-4.56185 27.46223,-4.56185" data-paper-data="{&quot;origPos&quot;:null}" fill="none" stroke-width="1.5" stroke-linecap="round"/></g><path d="M268.32692,202.32468l-12.46936,3.47697l0.02,10.99579l2.0002,14.17479l0.39209,6.00492l-10.46941,-20.18964l0.8004,-14.55024l19.74192,-1.19749z" fill="#616161" stroke="#000000" stroke-width="0.5" stroke-linecap="round"/><path d="M256.0258,206.51254l1.42332,-0.38444l3.42146,32.33251l-1.42332,0.38443z" fill="#ffffff" stroke="none" stroke-width="0" stroke-linecap="butt"/><path d="M284.49407,200.79818l0.38557,1.37009l-27.93087,4.56224l-0.38556,-1.37009z" fill="#ffffff" stroke="none" stroke-width="0" stroke-linecap="butt"/><path d="M259.5691,236.40935l0.60231,0.57528c0.35775,0.38162 0.71549,0.76321 1.07323,1.14483c0,0 1.06953,1.14087 -0.16144,2.11372c-1.23098,0.97286 -2.30053,-0.16802 -2.30053,-0.16802c-0.35775,-0.38162 -0.71549,-0.76321 -1.07323,-1.14482l-0.47246,-0.44464c0,0 -1.13995,-1.08178 0.0261,-2.11994c1.16605,-1.03817 2.30603,0.0436 2.30603,0.0436z" fill="#000000" stroke="none" stroke-width="0.5" stroke-linecap="butt"/><path d="M258.01052,205.56248c0.0004,0.0001 0.00082,0.0002 0.0012,0.00031l0.03594,-0.14087l0.56364,0.12612c0.24816,0.05055 0.43303,0.25602 0.43004,0.49816c-0.00245,0.19948 -0.1317,0.36924 -0.31656,0.44589l-0.47516,0.20824c-0.45797,0.28886 -0.67233,0.37645 -0.77534,0.89463c0,0 -0.12391,0.48555 -0.65318,0.36713c-0.24971,-0.05588 -0.35402,-0.19348 -0.39455,-0.32325c-0.16991,-0.06413 -0.2971,-0.2044 -0.33178,-0.37356l-0.11918,-0.52182l0.10149,-0.01877c-0.18598,-0.44362 -0.05741,-0.78234 0.6038,-1.33777l0.65472,-0.20631c0,0 0.52432,-0.12739 0.66772,0.35588c0.0026,0.00878 0.00498,0.01746 0.00716,0.026z" fill="#ffffff" stroke="none" stroke-width="0.5" stroke-linecap="butt"/><path d="M285.65621,202.96569c-0.37705,-0.88732 -2.13843,-1.46019 -3.09232,-1.78137l-0.47684,-0.00902c-0.30019,-0.00567 -0.54078,-0.23399 -0.53739,-0.50995c0.0034,-0.27596 0.2495,-0.49508 0.54969,-0.4894v0v0l0.54354,0.01028l-0.00053,0.04302l0.08752,-0.03493c0.04561,0.01449 0.09164,0.02922 0.13806,0.0442c0.60291,-0.36785 2.21765,0.26965 2.81949,0.55782l0.22969,0.18128c0,0 0.37999,0.36058 -0.0087,0.70664c-0.00413,0.00366 -0.00825,0.00726 -0.01239,0.01079c0.29951,0.24712 0.55367,0.52586 0.738,0.84209c0,0 0.23758,0.45153 -0.25133,0.66579c-0.48889,0.21427 -0.72647,-0.23725 -0.72647,-0.23725z" fill="#000000" stroke="none" stroke-width="0.5" stroke-linecap="butt"/></g><path d="M251.57168,204.72948c0,0 -1.02824,4.80631 -0.48706,11.9923c0.5488,7.28695 2.22917,13.02969 2.22917,13.02969l1.82356,0.40164c0,0 -0.56602,3.00161 -2.57726,2.79556c-4.92257,-0.50433 -6.53072,-31.81544 -1.77813,-31.60211c2.97044,0.13334 2.90559,4.3091 2.90559,4.3091z" fill="#fffc96" stroke="#000000" stroke-width="2" stroke-linecap="round"/><path d="M283.59267,200.21463c0,0 -6.50391,-0.20345 -15.53882,1.4695c-9.03493,1.67296 -14.67587,3.74522 -14.67587,3.74522l0.9865,1.024c0,0 -3.541,1.57325 -5.53385,-0.52482c-3.29053,-3.4643 36.47795,-11.41542 38.81973,-7.25362c1.1156,1.98262 -3.27357,2.59064 -3.27357,2.59064z" data-paper-data="{&quot;index&quot;:null}" fill="#fffc96" stroke="#000000" stroke-width="2" stroke-linecap="round"/></g></g></g></svg>