<svg version="1.1" xmlns="http://www.w3.org/2000/svg" xmlns:xlink="http://www.w3.org/1999/xlink" width="210" height="221" viewBox="0,0,210,221"><g transform="translate(-140,-90)"><g data-paper-data="{&quot;isPaintingLayer&quot;:true}" fill-rule="nonzero" stroke-linejoin="miter" stroke-miterlimit="10" stroke-dasharray="" stroke-dashoffset="0" style="mix-blend-mode: normal"><path d="M140,311v-221h210v221z" fill="none" stroke="none" stroke-width="0" stroke-linecap="butt"/><g data-paper-data="{&quot;index&quot;:null}"><g data-paper-data="{&quot;origRot&quot;:0,&quot;index&quot;:null}" stroke="#000000" stroke-width="3" stroke-linecap="round"><path d="M225.21493,251.61991c0,0 -24.16663,-6.94488 -23.65945,-9.44902c0.91448,-4.51511 5.79254,-13.96601 5.79254,-13.96601l14.23506,-26.48458c0,0 2.77804,-4.98689 3.92556,-4.98347c3.4425,0.01027 8.99595,3.4294 15.19281,5.69391c1.03003,0.37643 -0.45281,6.11053 -0.45281,6.11053c0,0 -2.72926,8.91842 -4.47613,14.62665c-2.66032,8.69308 -6.81669,22.27493 -6.81669,22.27493c0,0 -1.90012,7.01996 -3.74092,6.17706z" data-paper-data="{&quot;origPos&quot;:null}" fill="#582700"/><path d="M204.94966,235.42593l22.99957,9.35155" fill="none"/><path d="M206.49827,232.21361l22.91093,9.57162" data-paper-data="{&quot;origPos&quot;:null}" fill="none"/></g><path d="M206.50863,231.48087l18.04299,-33.55442l1.43662,-0.15443l14.5744,5.97773l-10.81743,37.20857z" fill="#616161" stroke="#000000" stroke-width="1" stroke-linecap="round"/><path d="M204.98386,235.26279l0.87738,-2.15798l23.49461,9.64387l-0.87736,2.15797z" fill="#ffffff" stroke="none" stroke-width="0" stroke-linecap="butt"/></g><g data-paper-data="{&quot;index&quot;:null}" stroke="#000000" stroke-linecap="round"><path d="M271.78483,199.31281c0,0 16.4951,-1.95303 16.68217,4.67557c0.50777,17.99137 -28.44966,12.69058 -28.44966,12.69058z" data-paper-data="{&quot;origPos&quot;:null}" fill="#7c7c7c" stroke-width="2"/><path d="M271.06304,200.83834c0,0 11.99095,-0.82124 12.7257,1.1112c0.23173,0.60948 -15.9355,2.85858 -15.9355,2.85858z" data-paper-data="{&quot;origPos&quot;:null}" fill="#0a0a0a" stroke-width="1"/></g><g><path d="M269.66693,244.25963c0,0 -0.61938,15.77433 -2.8855,15.83391c-6.7984,0.1788 -24.39152,-2.40223 -39.46928,-3.87992c-1.69379,-0.166 -0.06053,-15.03723 -0.06053,-15.03723l4.64677,-30.32296c0,0 2.59494,-13.34543 4.14759,-13.19327c10.04364,0.98432 25.15691,1.53034 31.57771,3.81124c2.14027,0.76031 2.7762,15.30266 2.7762,15.30266z" data-paper-data="{&quot;origPos&quot;:null}" fill="#7c7c7c" stroke="#000000" stroke-width="3.5" stroke-linecap="round"/><path d="M239.12595,221.61313c-1.31173,-0.12856 -1.08123,-2.60565 -1.08123,-2.60565c0.47812,-5.1377 1.10993,-11.92678 1.58803,-17.06447c0,0 0.23053,-2.4771 1.54226,-2.34855c1.31173,0.12856 1.08122,2.60565 1.08122,2.60565c-0.47812,5.1377 -0.95623,10.27538 -1.43434,15.41308l-0.15369,1.6514c0,0 -0.23052,2.4771 -1.54226,2.34855z" fill="#ffffff" stroke="none" stroke-width="0.5" stroke-linecap="butt"/><path d="M250.72555,229.11432c-1.31173,-0.12856 -1.02215,-3.2405 -1.02215,-3.2405c0.60066,-6.45439 1.39437,-14.98341 1.99502,-21.4378c0,0 0.2896,-3.11194 1.60134,-2.98337c1.31173,0.12856 1.02215,3.2405 1.02215,3.2405c-0.60066,6.45439 -1.2013,12.90877 -1.80196,19.36316l-0.19307,2.07462c0,0 -0.28959,3.11195 -1.60133,2.98338z" fill="#ffffff" stroke="none" stroke-width="0.5" stroke-linecap="butt"/></g><g fill="none" stroke="#b9b9b9" stroke-width="3"><path d="M264.94645,206.67054c-0.6986,-1.44221 0.35459,-2.55446 1.7216,-3.631c1.36703,-1.07651 2.6508,-1.31096 3.22886,-0.26746c1.22564,2.21252 -0.38644,3.01844 -1.45688,3.86137c-1.36704,1.07653 -2.507,2.07386 -3.49359,0.03709z" stroke-linecap="butt"/><path d="M263.11739,208.4117l2.88886,-2.2201" stroke-linecap="round"/><path d="M259.45428,208.64617c1.36703,-1.07651 2.6508,-1.31097 3.22885,-0.26747c1.22564,2.21252 -0.38644,3.01844 -1.45688,3.86137c-1.36704,1.07652 -2.50698,2.07387 -3.49359,0.03709c-0.6986,-1.44221 0.35458,-2.55446 1.7216,-3.631z" stroke-linecap="butt"/><path d="M258.79247,211.79822l-2.88887,2.22012" stroke-linecap="round"/><path d="M250.2469,212.94778c0.5761,-1.58214 1.91747,-1.28063 3.41166,-0.65647c1.4942,0.62416 2.37525,1.70262 1.99931,2.91675c-0.79707,2.57431 -2.24741,1.54431 -3.41741,1.05556c-1.4942,-0.62415 -2.8072,-1.08145 -1.99357,-3.31584z" stroke-linecap="butt"/><path d="M248.04544,212.30337l3.12072,1.35377" stroke-linecap="round"/><path d="M243.39698,207.80052c1.04254,-1.21113 2.15268,-0.29851 3.29401,0.98808c1.14136,1.2866 1.57953,2.71061 0.8392,3.67111c-1.56976,2.03656 -2.53739,0.39044 -3.43113,-0.617c-1.14135,-1.28661 -2.1744,-2.33178 -0.70209,-4.04219z" stroke-linecap="butt"/><path d="M243.9916,208.89678l-2.36717,-2.73411" stroke-linecap="round"/><path d="M237.43464,200.99052c1.04255,-1.2111 2.15268,-0.29851 3.29401,0.98808c1.14136,1.2866 1.57953,2.71061 0.8392,3.67112c-1.56975,2.03655 -2.53738,0.39043 -3.43111,-0.61701c-1.14135,-1.28661 -2.17442,-2.33178 -0.70211,-4.0422z" stroke-linecap="butt"/><path d="M235.66209,199.35267l2.36719,2.73411" stroke-linecap="round"/></g><path d="M280.67089,253.91771c0,0 4.45214,-1.02642 6.7331,-0.26656c1.74617,0.58168 2.41396,2.38846 2.93375,4.12242c1.42672,4.7595 0.15079,9.61376 0.43012,17.32516c0.07608,2.10025 -3.03289,3.39358 -5.17666,3.33199c-2.00505,-0.05762 -5.48687,-0.27815 -5.48687,-0.27815l-33.74245,-1.70473c0,0 -4.36119,-0.36046 -5.20391,-2.06162c-2.02943,-4.09672 -0.71902,-8.62555 -1.14551,-13.16021c-0.14454,-1.53674 4.74528,-1.83404 4.74528,-1.83404c0,0 9.08092,-1.38422 14.8932,-2.27018c8.20333,-1.25044 21.01998,-3.20407 21.01998,-3.20407z" data-paper-data="{&quot;index&quot;:null}" fill="#171717" stroke="#000000" stroke-width="3" stroke-linecap="round"/><path d="M241.35505,265.47173c0,0 2.08019,3.99136 1.87177,6.34323c-0.15953,1.80045 -1.79061,2.86727 -3.38488,3.77589c-4.37605,2.49399 -9.49131,2.43889 -17.06667,4.54589c-2.06321,0.57384 -4.08721,-2.07569 -4.53802,-4.1303c-0.42162,-1.92166 -1.03441,-5.28744 -1.03441,-5.28744l-6.36703,-32.51463c0,0 -0.68407,-4.23595 0.80058,-5.44402c3.57533,-2.90924 8.37631,-2.74364 12.76837,-4.23217c1.48841,-0.50445 2.95054,4.07747 2.95054,4.07747c0,0 3.53994,8.31044 5.8057,13.62958c3.19784,7.50731 8.19403,19.23654 8.19403,19.23654z" data-paper-data="{&quot;index&quot;:null}" fill="#171717" stroke="#000000" stroke-width="3" stroke-linecap="round"/><path d="M233.82742,199.28468c0,0 -1.80416,-4.22731 -1.88865,-5.31022c-0.2535,-3.24874 -0.4157,-17.43952 -0.51876,-30.26544c-0.01594,-1.98386 1.60917,-5.08952 1.60917,-5.08952c0,0 2.23397,-1.63659 3.52128,-1.64828c14.20274,-0.12906 27.70815,-1.34541 32.98724,0.18275c1.7597,0.50939 4.98568,2.23504 4.98568,2.23504c0,0 0.7605,4.3934 0.90652,5.52426c0.04867,0.37696 0.0771,0.58911 0.1028,0.96814c0.76962,11.35684 0.42007,24.5035 0.07773,29.09564c-0.11412,1.53073 -1.94814,3.92798 -1.94814,3.92798c0,0 -1.39356,2.73289 -5.87622,3.5588c-4.90482,0.90368 -16.86117,0.57565 -29.18983,0.20017z" fill="#582700" stroke="#000000" stroke-width="2.5" stroke-linecap="round"/><path d="M276.90268,159.97795l-0.7332,-0.51989c-0.09151,-0.03019 -0.18298,-0.05987 -0.2744,-0.08907c-0.22288,0.31242 -0.65887,0.67732 -1.41112,0.43736c-0.69335,-0.22116 -0.86357,-0.70359 -0.88204,-1.07683c-2.68778,-0.64615 -5.3751,-0.95046 -8.19572,-1.18438c-7.89604,-0.3893 -15.80409,-0.17739 -23.70732,-0.12515c-2.5919,0.01714 -8.38199,1.07765 -10.56528,-0.59519c-1.06478,-0.81582 -0.67309,-2.74923 -0.7872,-3.80183c-0.33062,-3.05019 -0.74217,-6.20774 -0.78776,-9.27575c-0.03222,-4.01038 -1.60137,-7.58166 -2.15955,-11.51165c-0.27983,-1.97023 -0.98262,-3.94818 0.79911,-5.66387c0.50308,-0.48444 1.39824,-0.20947 2.10352,-0.24991c2.57756,-0.14774 5.07519,0.00941 7.62916,0.29088c8.09347,0.89196 16.09156,1.36177 24.13507,2.73948c3.24477,0.55959 6.51009,0.60781 9.801,0.69608c1.93414,0.05189 3.69227,-0.50011 4.87152,1.65883c0.70422,1.28927 0.23639,5.29719 0.19703,6.77979c-0.15174,5.71685 0.84108,12.72809 -0.32297,18.48516c0.11993,0.03791 0.23994,0.07657 0.36002,0.11601l1.32211,0.80016c0,0 1.06883,0.68647 0.37286,1.73136c-0.69597,1.04489 -1.76481,0.35843 -1.76481,0.35843z" data-paper-data="{&quot;index&quot;:null}" fill="#000000" stroke="none" stroke-width="0.5" stroke-linecap="butt"/><path d="M250.0614,174.9218c0.5575,-0.02412 1.15645,2.94712 1.33785,6.6364c0.1814,3.68929 -0.12348,6.6996 -0.68097,6.7237c-0.5575,0.02412 -1.15646,-2.94711 -1.33786,-6.63639c-0.1814,-3.68929 0.12347,-6.69961 0.68098,-6.72372z" data-paper-data="{&quot;index&quot;:null}" fill="none" stroke="#580000" stroke-width="2.5" stroke-linecap="butt"/><g data-paper-data="{&quot;index&quot;:null}" stroke="#000000" stroke-width="1.25" stroke-linecap="butt"><g data-paper-data="{&quot;index&quot;:null}" fill="#000000"><path d="M262.37081,197.25033c-10.97361,0.52369 -7.48155,-4.24154 -7.48155,-4.24154l14.64057,-0.64809c0,0 4.51869,4.22469 -7.15902,4.88962z"/></g><g data-paper-data="{&quot;index&quot;:null}" fill="#ffffff"><path d="M257.29892,196.99387c-0.02127,-0.00447 0.75135,-0.98928 0.72215,-1.899c-0.03563,-1.11072 -0.87124,-2.18615 -0.86783,-2.1863c2.47177,-0.10943 12.37659,-0.54787 12.37659,-0.54787c0,0 4.51869,4.22469 -7.15901,4.88963c-2.24466,0.10712 -3.88404,-0.00705 -5.07187,-0.25646z"/></g></g><path d="M260.34017,174.3859c0.5575,-0.02412 1.15646,2.94712 1.33785,6.6364c0.1814,3.68929 -0.12349,6.69959 -0.68098,6.7237c-0.5575,0.02412 -1.15645,-2.94711 -1.33786,-6.63639c-0.1814,-3.68929 0.12348,-6.69962 0.68098,-6.72373z" data-paper-data="{&quot;index&quot;:null}" fill="none" stroke="#580000" stroke-width="2.5" stroke-linecap="butt"/><g><g><g data-paper-data="{&quot;index&quot;:null}" stroke="#000000"><path d="M305.19741,240.2725c-2.80775,4.1539 -29.87679,5.26408 -34.46038,2.08756c-4.70084,-3.25778 -9.26126,-15.33076 -10.83379,-22.5788c-1.57251,-7.24806 0.77037,-17.69269 1.90512,-18.57538c3.40423,-2.6481 15.4474,0.13407 20.94084,0.80138c3.28242,0.39872 16.13793,2.30925 19.56883,4.9855c3.62981,2.83141 4.82006,30.40862 2.8794,33.27969z" data-paper-data="{&quot;origRot&quot;:0,&quot;origPos&quot;:null}" fill="#582700" stroke-width="3" stroke-linecap="butt"/><path d="M298.15656,209.93782l-20.72942,0.13824" data-paper-data="{&quot;origPos&quot;:null}" fill="none" stroke-width="2" stroke-linecap="round"/><path d="M273.45363,238.70271l0.89685,-25.34786" data-paper-data="{&quot;origPos&quot;:null}" fill="none" stroke-width="2" stroke-linecap="round"/><path d="M269.02764,239.50952c0,0 -0.13011,-29.64811 2.14983,-32.45833c1.99596,-2.4602 29.65513,-0.14454 29.65513,-0.14454" data-paper-data="{&quot;origPos&quot;:null}" fill="none" stroke-width="1.5" stroke-linecap="round"/><path d="M267.08001,235.96446c0,0 -0.12392,-28.23665 2.04748,-30.91307c1.90095,-2.34308 28.24333,-0.13766 28.24333,-0.13766" data-paper-data="{&quot;origPos&quot;:null}" fill="none" stroke-width="1.5" stroke-linecap="round"/></g><path d="M282.06266,203.68099l-13.05075,1.45027l-1.7536,10.85911l-0.28293,14.3125l-0.57587,5.99088l-7.23005,-21.59735l3.1487,-14.23791l19.96761,1.95647z" fill="#616161" stroke="#000000" stroke-width="0.5" stroke-linecap="round"/><path d="M269.06577,205.85985l1.48768,-0.15326l-1.7882,32.46523l-1.48768,0.15325z" fill="#ffffff" stroke="none" stroke-width="0" stroke-linecap="butt"/><path d="M298.50269,204.74429l0.16521,1.41396l-28.71281,0.06353l-0.1652,-1.41396z" fill="#ffffff" stroke="none" stroke-width="0" stroke-linecap="butt"/><path d="M267.7925,235.93973l0.51051,0.66372c0.29679,0.43364 0.59356,0.86726 0.89033,1.3009c0,0 0.88727,1.2964 -0.50266,2.06117c-1.38994,0.76477 -2.27721,-0.53164 -2.27721,-0.53164c-0.29679,-0.43364 -0.59356,-0.86726 -0.89033,-1.30089l-0.40151,-0.5141c0,0 -0.96735,-1.24926 0.36809,-2.08883c1.33544,-0.83958 2.30279,0.40968 2.30279,0.40968z" fill="#000000" stroke="none" stroke-width="0.5" stroke-linecap="butt"/><path d="M271.207,205.23742c0.00039,0.00016 0.00078,0.00033 0.00116,0.0005l0.05872,-0.13336l0.54423,0.21413c0.24042,0.08936 0.39245,0.32161 0.3504,0.5602c-0.03463,0.19655 -0.19148,0.3436 -0.389,0.38989l-0.50954,0.13005c-0.50532,0.21237 -0.73415,0.26477 -0.92092,0.75998c0,0 -0.20243,0.45967 -0.71347,0.25861c-0.24111,-0.09487 -0.3234,-0.2473 -0.34306,-0.38187c-0.15985,-0.09033 -0.26463,-0.24904 -0.27207,-0.42156l-0.0352,-0.53413l0.10468,-0.0024c-0.11473,-0.46755 0.06869,-0.78152 0.82058,-1.22476l0.68907,-0.09959c0,0 0.54574,-0.04241 0.61142,0.45751c0.00119,0.00908 0.00217,0.01803 0.00298,0.02681z" fill="#ffffff" stroke="none" stroke-width="0.5" stroke-linecap="butt"/><path d="M299.31712,207.069c-0.23454,-0.93598 -1.90643,-1.7816 -2.81008,-2.25035l-0.47617,-0.08472c-0.29977,-0.05332 -0.50393,-0.31699 -0.45602,-0.5889c0.04792,-0.27191 0.32977,-0.44911 0.62953,-0.39578v0v0l0.54278,0.09657l-0.00747,0.04239l0.0933,-0.02057c0.04335,0.02156 0.08708,0.04342 0.13116,0.06559c0.66324,-0.26731 2.17781,0.6188 2.73416,0.99899l0.20083,0.21549c0,0 0.32246,0.41641 -0.12269,0.69627c-0.00473,0.00296 -0.00944,0.00586 -0.01415,0.00868c0.26014,0.2916 0.46976,0.6072 0.60338,0.94871c0,0 0.16514,0.48356 -0.35913,0.61736c-0.52426,0.13382 -0.6894,-0.34973 -0.6894,-0.34973z" fill="#000000" stroke="none" stroke-width="0.5" stroke-linecap="butt"/></g><path d="M264.89192,203.39132c0,0 -1.8052,4.5817 -2.42224,11.76233c-0.6257,7.28152 0.13114,13.21837 0.13114,13.21837l1.76178,0.68646c0,0 -1.05112,2.87344 -3.03244,2.35025c-4.84933,-1.28054 -1.4096,-32.44907 3.31642,-31.48285c2.95383,0.60391 2.21532,4.71625 2.21532,4.71625z" fill="#fffc96" stroke="#000000" stroke-width="2" stroke-linecap="round"/><path d="M297.69394,204.02485c0,0 -6.48181,-1.23491 -15.80147,-1.01968c-9.31967,0.21523 -15.30417,1.36429 -15.30417,1.36429l0.82295,1.16782c0,0 -3.80061,0.99026 -5.45831,-1.39796c-2.73716,-3.94339 38.37939,-5.47066 40.05373,-0.98948c0.79764,2.13477 -3.69684,2.03723 -3.69684,2.03723z" data-paper-data="{&quot;index&quot;:null}" fill="#fffc96" stroke="#000000" stroke-width="2" stroke-linecap="round"/></g></g></g></svg>