<svg version="1.1" xmlns="http://www.w3.org/2000/svg" xmlns:xlink="http://www.w3.org/1999/xlink" width="43.7879" height="26.72344" viewBox="0,0,43.7879,26.72344"><g transform="translate(-218.10605,-166.62432)"><g data-paper-data="{&quot;isPaintingLayer&quot;:true}" fill-rule="nonzero" stroke-linejoin="miter" stroke-miterlimit="10" stroke-dasharray="" stroke-dashoffset="0" style="mix-blend-mode: normal"><g fill="#31b0d1" stroke="#000000" stroke-width="3" stroke-linecap="butt"><path d="M219.60652,183.9725c-0.07856,-1.9034 9.69168,-2.39062 9.69168,-2.39062c0,0 -9.60977,4.37515 -9.69168,2.39062z"/><path d="M244.07658,179.34843c0,0 0.18072,-1.06878 1.33835,-2.71634c1.84573,-2.62689 5.34028,-6.30781 8.24102,-6.32182c4.22593,-0.02042 7.3095,8.90861 6.64865,8.81631c-0.12691,-0.01773 -7.2843,-0.42869 -7.8393,-0.31934c-0.15718,0.03097 2.99954,3.05737 3.8359,5.32624c0.50233,1.36271 1.07084,7.32243 0.38919,7.1455c-0.48465,-0.1258 -4.36174,-5.38845 -5.41989,-6.30552c-2.22134,-1.92517 -7.19392,-5.62502 -7.19392,-5.62502z"/><path d="M228.08908,180.88874c0,0 -1.30849,-8.19007 -0.46304,-9.31864c2.18311,-2.91418 14.62891,-3.99686 22.11008,-3.18339c1.40806,0.06128 -0.8682,11.51808 -0.8682,11.51808z"/><path d="M228.11903,187.35834c-0.20294,-1.37784 -0.37723,-5.0226 -0.37723,-5.0226c0,0 -0.72458,-0.84876 1.89,-1.09614c2.69343,-0.25484 2.9719,0.22794 2.9719,0.22794l2.02579,3.70431c0,0 -1.42391,-0.60968 -2.5337,-0.71537c-0.56226,-0.05355 -1.48343,2.01432 -2.2602,3.61601c-0.38325,0.79024 -0.99408,1.72974 -0.99408,1.72974z"/><path d="M230.49995,188.98326l0.06546,-8.05122c0,0 0.33993,-3.45542 11.97864,-3.73105c9.05985,-0.21455 6.80754,4.51654 6.80754,4.51654c0,0 -0.5291,-0.44027 -0.25826,5.6946c2.6336,1.24051 1.34971,1.98295 1.1092,2.35662c-0.37806,0.58736 -5.45566,2.29083 -9.93748,1.98462c-5.15005,-0.35187 -9.76509,-2.77011 -9.76509,-2.77011z"/></g><path d="M230.49995,188.98326l0.06546,-8.05122c0,0 0.33993,-3.45542 11.97864,-3.73105c9.05985,-0.21455 6.80754,4.51654 6.80754,4.51654c0,0 -0.5291,-0.44027 -0.25826,5.6946c2.6336,1.24051 1.34971,1.98295 1.1092,2.35662c-0.37806,0.58736 -5.45566,2.29083 -9.93748,1.98462c-5.15005,-0.35187 -9.76509,-2.77011 -9.76509,-2.77011z" fill="#fddfbd" stroke="none" stroke-width="NaN" stroke-linecap="butt"/><path d="M219.60652,183.9725c-0.07856,-1.9034 9.69168,-2.39062 9.69168,-2.39062c0,0 -9.60977,4.37515 -9.69168,2.39062z" fill="#0066cc" stroke="none" stroke-width="0" stroke-linecap="butt"/><path d="M228.08908,180.88874c0,0 -1.30849,-8.19007 -0.46304,-9.31864c2.18311,-2.91418 14.62891,-3.99686 22.11008,-3.18339c1.40806,0.06128 -0.8682,11.51808 -0.8682,11.51808z" fill="#dd282b" stroke="#000000" stroke-width="1" stroke-linecap="butt"/><path d="M228.11903,187.35834c-0.20294,-1.37784 -0.37723,-5.0226 -0.37723,-5.0226c0,0 -0.72458,-0.84876 1.89,-1.09614c2.69343,-0.25484 2.9719,0.22794 2.9719,0.22794l2.94468,3.55922c0,0 -1.61255,-0.01506 -2.87224,-0.13503c-0.56226,-0.05355 -2.06378,1.57906 -2.84054,3.18075c-0.38325,0.79024 -0.99408,1.72974 -0.99408,1.72974z" fill="#50a5eb" stroke="#000000" stroke-width="1" stroke-linecap="butt"/><path d="M228.82425,180.30237l13.02436,-11.61134c0,0 2.04021,-0.12287 2.94891,-0.12287c1.361,0 4.42337,0.12287 4.42337,0.12287l-15.91183,11.61134z" fill="#ff2d32" stroke="none" stroke-width="0" stroke-linecap="butt"/><path d="M233.83491,190.31384l10.39118,-9.79586h3.6261l-4.32967,11.14888c0,0 -1.98792,0.46565 -5.0439,0.00621c-2.73019,-0.41046 -4.64372,-1.35923 -4.64372,-1.35923z" fill="#fddfbd" stroke="none" stroke-width="0" stroke-linecap="butt"/><path d="M244.07658,179.34843c0,0 0.18072,-1.06878 1.33835,-2.71634c1.84573,-2.62689 5.34028,-6.30781 8.24102,-6.32182c4.22593,-0.02042 7.3095,8.90861 6.64865,8.81631c-0.12691,-0.01773 -7.2843,-0.42869 -7.8393,-0.31934c-0.15718,0.03097 2.99954,3.05737 3.8359,5.32624c0.50233,1.36271 1.07084,7.32243 0.38919,7.1455c-0.48465,-0.1258 -4.36174,-5.38845 -5.41989,-6.30552c-2.22134,-1.92517 -7.19392,-5.62502 -7.19392,-5.62502z" fill="#50a5eb" stroke="#000000" stroke-width="1" stroke-linecap="butt"/><path d="M232.91478,180.14559c0,0 -0.39766,-2.9047 -0.47077,-4.72182c-0.07565,-1.88036 0.02426,-6.3771 0.02426,-6.3771" fill="none" stroke="#000000" stroke-width="0.5" stroke-linecap="round"/><path d="M247.71665,178.14136c0,0 -4.31516,5.60046 -5.09872,5.35827c-1.0423,-0.32217 -6.35217,-5.4136 -6.35217,-5.4136" fill="none" stroke="#000000" stroke-width="1" stroke-linecap="round"/><path d="M240.04827,188.42158c-1.60373,0.24376 -1.88602,-4.4709 -1.12999,-4.90292c0.13047,-0.22105 0.3711,-0.36935 0.64636,-0.36935c0.34515,0 0.63584,0.23314 0.72318,0.55054c1.0221,1.32743 1.34935,4.48023 -0.23956,4.72173z" fill="#000000" stroke="none" stroke-width="0.5" stroke-linecap="butt"/><path d="M244.69107,182.9075c0.31654,0.11809 0.56272,0.36267 0.74734,0.68639c1.08959,1.91042 0.03517,6.57657 -1.35523,4.25925c-0.475,-0.79167 -0.08998,-1.84491 -0.09375,-2.76814c-0.00289,-0.70851 -0.46167,-1.40942 0.14214,-1.92696z" fill="#000000" stroke="none" stroke-width="0.5" stroke-linecap="butt"/><path d="M244.495,179.02427c0,0 4.90525,-9.15077 10.14426,-8.17243c3.9276,0.73344 5.28668,7.79452 5.28668,7.79452c0,0 -2.26218,-6.88924 -6.16367,-6.5726c-4.89917,0.39762 -9.26727,6.9505 -9.26727,6.9505z" fill="#66ffff" stroke="none" stroke-width="0" stroke-linecap="butt"/></g></g></svg>