<svg version="1.1" xmlns="http://www.w3.org/2000/svg" xmlns:xlink="http://www.w3.org/1999/xlink" width="374.77477" height="288.28829" viewBox="0,0,374.77477,288.28829"><g transform="translate(-52.61261,-35.85585)"><g data-paper-data="{&quot;isPaintingLayer&quot;:true}" fill-rule="nonzero" stroke-linejoin="miter" stroke-miterlimit="10" stroke-dasharray="" stroke-dashoffset="0" style="mix-blend-mode: normal"><path d="M52.61262,324.14414v-288.28829h374.77477v288.28829z" fill="none" stroke="none" stroke-width="none" stroke-linecap="butt"/><g><g><g data-paper-data="{&quot;origRot&quot;:0}" stroke="#000000" stroke-width="3" stroke-linecap="round"><path d="M269.71621,123.72169c2.22893,-1.0171 4.53438,7.44325 4.53438,7.44325c0,0 6.73675,22.21029 9.96393,32.68687c0.69303,4.59935 -34.28467,21.74692 -39.79617,19.93883c-2.45685,-0.80599 -8.55637,-8.68354 -7.91258,-10.59375c1.22537,-3.63592 13.80275,-14.78401 13.80275,-14.78401l1.95703,3.69411l-4.17406,-10.1512c0,0 -5.91359,-11.3887 -7.02385,-16.83044c-0.61576,-3.01803 28.64858,-11.40368 28.64858,-11.40368z" data-paper-data="{&quot;origPos&quot;:null}" fill="#582700"/><path d="M245.31463,144.29913l27.84945,-11.28578" fill="none"/><path d="M247.19213,148.17015l27.74196,-11.55101" data-paper-data="{&quot;origPos&quot;:null}" fill="none"/></g><path d="M273.8084,132.94431l1.0716,2.59742l-28.41427,11.72258l-1.0716,-2.59742z" fill="#ffffff" stroke="none" stroke-width="0" stroke-linecap="butt"/><path d="M284.46887,164.06026l-8.50152,7.13086l-21.74495,10.15968l-8.30307,1.76679l-4.77803,-1.86626l-3.24533,-6.7615l-0.64907,-1.35229l12.40525,-13.44142l1.52351,2.59642l1.80307,-0.86544l-5.05727,-12.26985l27.5959,-12.41336l8.07706,26.07223z" fill="#66c8ff" stroke="#000000" stroke-width="0.5" stroke-linecap="round"/></g><g fill="#fffc96" stroke="#000000" stroke-width="2" stroke-linecap="round"><path d="M248.6677,155.42039c0,0 -4.41317,-2.32651 -2.89931,-5.37333c2.42211,-4.87478 34.34746,14.66438 32.13573,19.87579c-0.90367,2.12925 -4.36509,0.97634 -4.36509,0.97634l0.59417,-2.05358c0,0 -5.08414,-4.96911 -12.41689,-9.69093c-7.23114,-4.6564 -12.84156,-6.38059 -12.84156,-6.38059z"/><path d="M246.93118,165.04538c0,0 -4.35425,1.17728 -4.32937,-1.43403c0.05221,-5.48155 40.74059,-13.50659 39.4606,-8.38296c-0.77519,3.10297 -4.83612,2.88145 -4.83612,2.88145l0.39113,-1.52028c0,0 -6.24953,0.11656 -15.42588,2.08412c-9.17636,1.96754 -15.06945,4.90693 -15.06945,4.90693z" data-paper-data="{&quot;index&quot;:null}"/></g></g><g data-paper-data="{&quot;origRot&quot;:0}" stroke="#000000" stroke-linecap="round"><path d="M238.04394,225.50868c0,0 -1.93165,-4.39494 -0.50089,-4.97334c4.22196,-1.70674 7.6587,-4.92355 12.21124,-5.03355c1.89045,-0.04568 4.16935,3.58742 4.16935,3.58742l16.66805,28.60597c0,0 1.7596,2.93134 2.71124,4.65121c1.01746,1.83883 1.2641,5.13926 -0.63677,6.03551c-6.97935,3.2908 -10.72086,6.62668 -15.59182,7.56536c-1.77457,0.34197 -3.68032,0.58841 -4.98148,-0.6658c-1.69969,-1.63831 -2.78673,-5.9862 -2.78673,-5.9862z" data-paper-data="{&quot;origPos&quot;:null}" fill="#ff0000" stroke-width="3"/><path d="M274.65337,255.41495c0,0 -4.3995,4.77357 -9.06491,6.8014c-3.57946,1.55582 -11.7405,3.98659 -11.7405,3.98659c0,0 -2.28009,-1.85214 -2.99962,-3.28419c-0.758,-1.50858 -0.78644,-4.25082 -0.78644,-4.25082l21.06032,-10.02338z" data-paper-data="{&quot;origPos&quot;:null}" fill="#976e57" stroke-width="2"/><path d="M238.24647,225.77048c0,0 -1.93165,-4.39494 -0.50088,-4.97333c4.22195,-1.70674 7.6587,-4.92355 12.21126,-5.03354c1.89045,-0.04568 4.16934,3.58741 4.16934,3.58741l16.66805,28.60598c0,0 1.75962,2.93133 2.71126,4.6512c1.01746,1.83883 1.26409,5.13926 -0.63677,6.03552c-6.97935,3.2908 -10.72085,6.62669 -15.59181,7.56536c-1.77457,0.34197 -3.68032,0.58838 -4.98148,-0.6658c-1.69969,-1.63831 -2.78674,-5.9862 -2.78674,-5.9862z" data-paper-data="{&quot;origPos&quot;:null}" fill="#4b4b4b" stroke-width="3"/></g><path d="M229.48083,259.70348c0,0 -0.23045,4.4758 -1.58325,6.41045c-1.03563,1.48106 -2.95318,1.60581 -4.76039,1.61157c-4.96055,0.0158 -9.27383,-2.53814 -16.75585,-4.42499c-2.03777,-0.51389 -2.43057,-3.80013 -1.78582,-5.80032c0.60305,-1.87079 1.76595,-5.08584 1.76595,-5.08584l10.85443,-31.27791c0,0 1.53749,-4.0036 3.40143,-4.32239c4.48869,-0.76774 8.48002,1.72793 12.95142,2.59072c1.51529,0.29239 0.46509,4.9768 0.46509,4.9768c0,0 -1.15126,8.93143 -1.88813,14.64802c-1.04,8.06827 -2.66488,20.67393 -2.66488,20.67393z" fill="#4b4b4b" stroke="#000000" stroke-width="3" stroke-linecap="round"/><g stroke="#000000" stroke-linecap="round"><path d="M225.65377,172.95654c0,0 -28.22914,5.91484 -28.27891,-12.06568c-0.01835,-6.62461 16.21325,-5.02736 16.21325,-5.02736z" data-paper-data="{&quot;origPos&quot;:null}" fill="#66c8ff" stroke-width="2"/><path d="M217.60993,161.26791c0,0 -15.91916,-1.89997 -15.71052,-2.51368c0.66156,-1.94585 12.44273,-1.38252 12.44273,-1.38252z" data-paper-data="{&quot;origPos&quot;:null}" fill="#0a0a0a" stroke-width="1"/></g><g><g><path d="M214.78271,180.00554c0,0 0.57204,-14.5283 2.66819,-15.27739c6.28842,-2.24731 21.1072,-2.71787 30.95295,-3.65159c1.52205,-0.14434 4.11411,13.20395 4.11411,13.20395l4.66439,30.32329c0,0 1.6544,14.86818 -0.00599,15.02565c-14.78065,1.40172 -32.02406,3.89343 -38.69151,3.68104c-2.22247,-0.07079 -2.88585,-15.83635 -2.88585,-15.83635z" data-paper-data="{&quot;origPos&quot;:null}" fill="#66c8ff" stroke="#000000" stroke-width="3.5" stroke-linecap="round"/><path d="M234.31746,186.38856c-1.2859,0.12195 -1.52075,-2.35444 -1.52075,-2.35444c-0.48709,-5.13621 -1.13075,-11.92335 -1.61783,-17.05956c0,0 -0.23485,-2.47638 1.05105,-2.59833c1.2859,-0.12195 1.52075,2.35444 1.52075,2.35444c0.48709,5.13621 0.97419,10.27242 1.46128,15.40864l0.15657,1.65093c0,0 0.23484,2.47638 -1.05106,2.59833z" fill="#ffffff" stroke="none" stroke-width="0.5" stroke-linecap="butt"/><path d="M246.8618,191.56068c-1.2859,0.12195 -1.58093,-2.98909 -1.58093,-2.98909c-0.61192,-6.45253 -1.42054,-14.97908 -2.03246,-21.43161c0,0 -0.29503,-3.11104 0.99086,-3.23299c1.2859,-0.12195 1.58093,2.98909 1.58093,2.98909c0.61192,6.45253 1.22385,12.90506 1.83577,19.3576l0.19669,2.07403c0,0 0.29503,3.11104 -0.99086,3.23299z" fill="#ffffff" stroke="none" stroke-width="0.5" stroke-linecap="butt"/></g><g fill="none" stroke="#b9b9b9" stroke-width="3"><path d="M246.71356,166.29395c-0.95205,-1.2739 -0.15785,-2.57426 0.94464,-3.90231c1.1025,-1.32803 2.28931,-1.81418 3.04787,-0.90697c1.60834,1.92356 0.21776,3.03534 -0.64553,4.07523c-1.10251,1.32805 -2.00244,2.53313 -3.34698,0.73406z" stroke-linecap="butt"/><path d="M245.29712,168.36562l2.34053,-2.75271" stroke-linecap="round"/><path d="M241.82588,169.32698c1.1025,-1.32803 2.28932,-1.81418 3.04788,-0.90696c1.60834,1.92356 0.21776,3.03534 -0.64553,4.07523c-1.1025,1.32804 -2.00243,2.53313 -3.34696,0.73405c-0.95205,-1.2739 -0.15787,-2.57426 0.94462,-3.90232z" stroke-linecap="butt"/><path d="M239.46479,175.30098l2.34053,-2.75272" stroke-linecap="round"/><path d="M233.82491,175.38154c0.2445,-1.6656 1.59117,-1.63801 3.14751,-1.32472c1.55634,0.3133 2.61261,1.19425 2.48852,2.45922c-0.26313,2.68209 -1.85651,1.9623 -3.07516,1.71699c-1.55634,-0.31329 -2.90615,-0.49923 -2.56085,-2.85148z" stroke-linecap="butt"/><path d="M234.84585,175.89315l-3.26028,-0.70349" stroke-linecap="round"/><path d="M226.24424,171.70506c0.7647,-1.39515 2.00856,-0.72247 3.35534,0.3105c1.34679,1.03296 2.04527,2.34103 1.52183,3.43022c-1.10986,2.30938 -2.35999,0.8894 -3.41458,0.08056c-1.34679,-1.03297 -2.54251,-1.85097 -1.46259,-3.82126z" stroke-linecap="butt"/><path d="M224.22292,170.45391l2.80607,2.20676" stroke-linecap="round"/><path d="M219.19135,166.22182c0.7647,-1.39513 2.00857,-0.72247 3.35535,0.3105c1.3468,1.03296 2.04527,2.34103 1.52183,3.43022c-1.10986,2.30937 -2.35999,0.88939 -3.41457,0.08055c-1.34679,-1.03296 -2.54251,-1.85095 -1.46258,-3.82125z" stroke-linecap="butt"/><path d="M217.17004,164.97066l2.80608,2.20676" stroke-linecap="round"/></g></g><g><path d="M247.94801,170.45531c-12.02412,-1.23182 -23.68053,-2.46227 -28.32868,-3.99645c-4.2481,-1.40213 -5.25003,-4.2932 -5.25003,-4.2932c0,0 -1.47301,-2.61557 -1.38684,-4.14816c0.25848,-4.59777 1.61096,-17.6784 3.82022,-28.83878c0.07373,-0.37248 0.12866,-0.57914 0.22445,-0.94656c0.28736,-1.10226 1.59155,-5.35946 1.59155,-5.35946c0,0 3.35576,-1.29129 5.13066,-1.56739c5.3247,-0.82832 18.28704,2.13493 32.06671,4.11087c1.24895,0.1791 3.20837,2.09247 3.20837,2.09247c0,0 1.17891,3.29078 0.90809,5.25574c-1.75086,12.70374 -3.73482,26.7531 -4.39917,29.94129c-0.22145,1.06274 -2.51805,5.01945 -2.51805,5.01945z" fill="#582700" stroke="#000000" stroke-width="2.5" stroke-linecap="round"/><path d="M214.26987,123.19401c-0.54157,-1.12659 0.58501,-1.66816 0.58501,-1.66816l1.38725,-0.62135c0.12172,-0.02348 0.24326,-0.04621 0.36465,-0.06819c-0.38977,-5.8597 1.477,-12.68229 2.06537,-18.37041c0.15259,-1.47513 0.21398,-5.50995 1.06397,-6.69666c1.42335,-1.98718 3.06012,-1.21112 4.9456,-1.01091c3.2081,0.34066 6.38618,0.71772 9.6101,0.58507c7.99063,-0.31945 15.82029,0.25538 23.79693,0.42405c2.51709,0.05322 4.96348,0.22237 7.44826,0.70423c0.67989,0.13184 1.58482,-0.02429 2.01115,0.52149c1.50992,1.93296 0.57269,3.80269 0.04729,5.7198c-1.04802,3.82404 -3.03188,7.16087 -3.57935,11.13304c-0.43914,3.03609 -1.24531,6.11331 -1.95902,9.09462c-0.24631,1.02882 -0.11467,2.99679 -1.25397,3.66716c-2.33611,1.37457 -7.82401,-0.43031 -10.33953,-0.78454c-7.67033,-1.08012 -15.3248,-2.31915 -23.04497,-2.96054c-2.77,-0.13505 -5.4196,-0.18299 -8.11361,0.10797c-0.06596,0.36767 -0.29341,0.82384 -0.99537,0.95292c-0.76161,0.14005 -1.13815,-0.27848 -1.31444,-0.61725c-0.09256,0.01706 -0.18524,0.03459 -0.27802,0.05262l-0.77913,0.42007c0,0 -1.12659,0.54157 -1.66817,-0.58501z" fill="#000000" stroke="none" stroke-width="0.5" stroke-linecap="butt"/><path d="M230.80482,140.71167c4.90173,-2.02414 8.9461,0.55559 10.10943,5.4749c1.33421,5.64187 -2.77155,8.39911 -2.77155,8.39911c0,0 -2.4446,-1.30957 -5.6425,-1.98836c-3.9819,-0.84519 -6.23497,-0.59204 -6.23497,-0.59204c0,0 -2.11013,-8.54765 4.53959,-11.29362z" fill="#ffffff" stroke="#0a0a0a" stroke-width="2" stroke-linecap="butt"/><path d="M257.21026,144.22804c5.6328,4.47556 1.24422,12.10807 1.24422,12.10807c0,0 -2.09554,-0.8655 -6.156,-1.15282c-3.261,-0.23075 -5.97218,0.3528 -5.97218,0.3528c0,0 -3.18465,-3.78386 -0.34428,-8.83788c2.4766,-4.40674 7.07611,-5.76926 11.22823,-2.47018z" data-paper-data="{&quot;index&quot;:null}" fill="#ffffff" stroke="#0a0a0a" stroke-width="2" stroke-linecap="butt"/><g data-paper-data="{&quot;index&quot;:null}" stroke="#000000" stroke-width="1" stroke-linecap="butt"><path d="M226.64431,168.33998c-11.81503,-4.21637 -4.41316,-15.53244 -4.41316,-15.53244l17.64313,6.12069c0,0 -0.72104,13.87574 -13.22998,9.41174z" fill="#000000"/><path d="M226.45532,164.15025c2.90975,2.10749 4.68931,5.08996 4.12699,5.05585c-1.16199,-0.07048 -2.46867,-0.34179 -3.938,-0.86613c-4.40366,-1.57149 -6.13775,-4.1293 -6.58051,-6.71984c-0.08602,-0.50327 3.71952,0.59483 6.3915,2.53012z" fill="#ff8484"/><path d="M220.56795,156.90915c0.63993,-1.6893 1.66321,-4.10161 1.66321,-4.10161l15.50576,5.3792l-1.4214,4.31858c0,0 -15.76865,-5.54048 -15.74756,-5.59616z" fill="#ffffff"/></g></g><path d="M220.97181,161.51597l0.52251,-0.40113c0.44746,-0.10897 0.89493,-0.21795 1.3424,-0.32692c3.93801,0 7.59181,1.63049 10.19355,4.60729c0.36461,0.41717 1.69648,2.00707 1.76919,2.38145c0.13518,0.69606 -0.58573,1.43567 -0.33823,2.10014c0.3655,0.98126 1.21511,1.76628 0.95083,2.96947c-0.18099,0.82405 -0.49746,1.81369 -1.24585,2.20323c-0.58549,0.30474 -1.47403,-1.20556 -1.86261,-0.67202c-0.56664,0.778 0.5611,3.4306 0.68843,4.11064c-0.37601,0.67521 -0.49885,1.57682 -1.12802,2.02563c-0.72877,0.51985 -3.36843,0.05859 -3.89059,-0.56609c-0.40906,-0.48937 -0.19089,-1.26252 -0.23795,-1.8986c-0.10472,-1.41535 0.1839,-3.22335 -0.37168,-4.56074c-1.54321,-3.71471 -4.81988,-7.05698 -7.36548,-10.11157c0,0 -0.71925,-0.86311 0.14385,-1.58236c0.30247,-0.25206 0.58727,-0.30978 0.82964,-0.27843z" fill="#000000" stroke="none" stroke-width="0.5" stroke-linecap="butt"/><g data-paper-data="{&quot;index&quot;:null}"><g data-paper-data="{&quot;origRot&quot;:0,&quot;index&quot;:null}" stroke="#000000" stroke-width="3" stroke-linecap="round"><path d="M220.80818,221.50888c0,0 -25.217,-1.39936 -25.27416,-3.95418c-0.10307,-4.6065 2.58545,-14.90773 2.58545,-14.90773l8.0878,-28.99309c0,0 1.61859,-5.48095 2.74375,-5.73275c3.37546,-0.7554 9.57375,1.34417 16.14699,2.1747c1.09259,0.13806 0.90849,6.05971 0.90849,6.05971c0,0 -0.7008,9.30416 -1.14933,15.25929c-0.68308,9.06907 -1.75029,23.23838 -1.75029,23.23838c0,0 -0.30842,7.2684 -2.29871,6.85569z" data-paper-data="{&quot;origPos&quot;:null}" fill="#582700"/><path d="M197.36729,210.22227l24.60602,4.00584" fill="none"/><path d="M198.17392,206.74528l24.56786,4.24019" data-paper-data="{&quot;origPos&quot;:null}" fill="none"/></g><path d="M198.02191,206.02838l10.2546,-36.73435l1.37353,-0.47003l15.60384,2.58897l-2.36589,38.69131z" fill="#66c8ff" stroke="#000000" stroke-width="1" stroke-linecap="round"/><path d="M197.36474,210.05557l0.38219,-2.29955l25.15576,4.18085l-0.38219,2.29955z" fill="#ffffff" stroke="none" stroke-width="0" stroke-linecap="butt"/></g><path d="M234.73632,154.39662c-0.22797,0 -0.39269,-0.06324 -0.51172,-0.15463c-0.36784,0.09544 -0.72979,0.25513 -1.10758,0.26433c-1.2194,0.02967 -2.12404,-0.62446 -2.56741,-1.65674c-0.04405,-0.10255 -0.0621,0.21723 -0.06311,0.32884c-0.00222,0.24452 0.02388,0.48897 0.01678,0.7334c-0.01318,0.45372 0.20512,1.00441 -0.07758,1.35953c-0.07387,0.09279 -0.1585,0.17272 -0.25104,0.24322l0.03294,0.03952l-0.66983,0.5582c-0.14311,0.12098 -0.32816,0.19393 -0.53024,0.19393c-0.45386,0 -0.82178,-0.36793 -0.82178,-0.82179v-0.89864h0.03305l-0.0269,-0.1004c0.34189,-1.36757 0.18993,-1.76044 -0.55523,-2.94626c0,0 -0.031,-0.04961 -0.06323,-0.13063c-0.3178,-0.01761 -0.63195,-0.01842 -0.92482,-0.01653c0,0 -1.18702,0 -1.18702,-1.18702c0,-1.18702 1.18702,-1.18702 1.18702,-1.18702c1.15099,0.0059 2.41774,0.08046 3.4971,0.54385c0.8992,0.38605 0.89513,0.68977 1.73022,0.98485c0.62432,0.2206 1.32577,0.13019 1.96097,0.31717c0.58887,0.17335 1.12105,0.5003 1.68747,0.73772v0c0.0504,0.00057 1.18529,0.02634 1.18529,1.187c0,1.18702 -1.18702,1.18702 -1.18702,1.18702l-0.05892,-0.00694c-0.09979,0.21099 -0.30508,0.42801 -0.72739,0.42801zM235.55396,151.61383c0.05326,0.02197 0.10684,0.04313 0.16081,0.06325z" fill="#000000" stroke="none" stroke-width="0.5" stroke-linecap="butt"/><path d="M247.55751,156.58705c-0.41796,-0.05904 -0.59006,-0.29743 -0.65861,-0.51526l-0.0593,-0.00153c0,0 -1.17479,-0.16594 -1.00483,-1.31291c0.16619,-1.1215 1.29308,-0.98775 1.34304,-0.98127v0c0.59458,-0.15023 1.16808,-0.39176 1.77571,-0.47693c0.65543,-0.09188 1.33669,0.09354 1.98617,-0.03234c0.86873,-0.16838 0.9082,-0.46242 1.85341,-0.70974c1.13459,-0.29687 2.39896,-0.19183 3.53894,-0.03662c0,0 1.17479,0.16594 1.00483,1.31291c-0.16997,1.14698 -1.34476,0.98103 -1.34476,0.98103c-0.28958,-0.04276 -0.60061,-0.08591 -0.91766,-0.11331c-0.0435,0.07378 -0.08129,0.11739 -0.08129,0.11739c-0.90728,1.04164 -1.11392,1.40002 -0.97137,2.76925l-0.041,0.09326l0.03271,0.00462l-0.12867,0.86832c-0.06499,0.43855 -0.4818,0.74263 -0.93098,0.67918c-0.2,-0.02825 -0.37269,-0.1246 -0.49701,-0.26151l-0.58301,-0.63301l0.03825,-0.03359c-0.08149,-0.08105 -0.1538,-0.17013 -0.21362,-0.27012c-0.22894,-0.38266 0.06596,-0.88426 0.11788,-1.32451c0.02797,-0.23718 0.08881,-0.46973 0.12162,-0.70631c0.01497,-0.10798 0.0429,-0.41951 -0.01538,-0.32657c-0.58661,0.93549 -1.57559,1.44108 -2.77818,1.24193c-0.37258,-0.0617 -0.70793,-0.26661 -1.05832,-0.41024c-0.1309,0.07167 -0.30298,0.10974 -0.52859,0.07787zM246.97855,153.82248c0.05629,-0.0119 0.11235,-0.02485 0.16821,-0.03864z" data-paper-data="{&quot;index&quot;:null}" fill="#000000" stroke="none" stroke-width="0.5" stroke-linecap="butt"/></g></g></svg>