<svg version="1.1" xmlns="http://www.w3.org/2000/svg" xmlns:xlink="http://www.w3.org/1999/xlink" width="183.18182" height="183.18182" viewBox="0,0,183.18182,183.18182"><g transform="translate(-148.40909,-92.40909)"><g data-paper-data="{&quot;isPaintingLayer&quot;:true}" fill-rule="nonzero" stroke-linejoin="miter" stroke-miterlimit="10" stroke-dasharray="" stroke-dashoffset="0" style="mix-blend-mode: normal"><g><path d="M266.27428,178.42419c0,0 9.81049,63.12305 -0.58576,70.93993c-7.14601,5.37303 -55.39205,-0.73703 -55.39205,-0.73703l-2.78095,-75.39931" data-paper-data="{&quot;index&quot;:null}" fill="#87a3ad" stroke="#000000" stroke-width="1.5" stroke-linecap="round"/><path d="M221.66469,194.54251c0,0 -12.9874,9.05041 -26.43247,19.16616c-0.8109,0.61011 -8.15049,-4.62198 -11.96706,-8.85206c-5.20405,-5.76785 -16.40624,-22.59525 -16.40624,-22.59525c0,0 34.11915,-73.96914 75.39433,-74.17328c33.2261,-0.16432 70.91072,70.58301 70.91072,70.58301c0,0 -10.36332,17.35661 -15.27819,23.37278c-3.60449,4.41219 -10.67861,9.99796 -11.51846,9.42839c-13.92506,-9.44409 -22.75861,-16.21211 -22.75861,-16.21211" data-paper-data="{&quot;index&quot;:null}" fill="#87a3ad" stroke="#000000" stroke-width="5" stroke-linecap="round"/><path d="M265.1463,178.49182c0,0 9.38932,60.41312 -0.56062,67.89442c-6.83923,5.14235 -53.01403,-0.70539 -53.01403,-0.70539l-2.66155,-72.16236" data-paper-data="{&quot;index&quot;:null}" fill="none" stroke="#ffffff" stroke-width="1.5" stroke-linecap="round"/><path d="M222.45184,193.91816c0,0 -12.42986,8.66189 -25.29771,18.34336c-0.77608,0.58394 -7.80056,-4.42354 -11.45329,-8.47203c-4.98062,-5.52023 -15.7019,-21.62521 -15.7019,-21.62521c0,0 32.65439,-70.79358 72.15758,-70.98896c31.79967,-0.15726 67.86643,67.55281 67.86643,67.55281c0,0 -9.91842,16.61148 -14.62227,22.36936c-3.44973,4.22275 -10.22017,9.56873 -11.02395,9.02362c-13.32723,-9.03864 -21.78157,-15.5161 -21.78157,-15.5161" data-paper-data="{&quot;index&quot;:null}" fill="none" stroke="#ffffff" stroke-width="5" stroke-linecap="round"/><path d="M266.27428,178.42419c0,0 9.81049,63.12305 -0.58576,70.93993c-7.14601,5.37303 -55.39205,-0.73703 -55.39205,-0.73703l-2.78095,-75.39931" data-paper-data="{&quot;index&quot;:null}" fill="none" stroke="#000000" stroke-width="5" stroke-linecap="round"/><path d="M221.66469,194.54251c0,0 -12.9874,9.05041 -26.43247,19.16616c-0.8109,0.61011 -8.15049,-4.62198 -11.96706,-8.85206c-5.20405,-5.76785 -16.40624,-22.59525 -16.40624,-22.59525c0,0 34.11915,-73.96914 75.39433,-74.17328c33.2261,-0.16432 70.91072,70.58301 70.91072,70.58301c0,0 -10.36332,17.35661 -15.27819,23.37278c-3.60449,4.41219 -10.67861,9.99796 -11.51846,9.42839c-13.92506,-9.44409 -22.75861,-16.21211 -22.75861,-16.21211" data-paper-data="{&quot;index&quot;:null}" fill="none" stroke="#000000" stroke-width="5" stroke-linecap="round"/><path d="M201.45026,160.79766l31.91285,19.91974l-22.49018,17.55784l-9.10079,5.76875z" data-paper-data="{&quot;index&quot;:null}" fill="#87a3ad" stroke="none" stroke-width="0" stroke-linecap="butt"/><path d="M278.59507,201.04969l-9.3728,-5.31541l-23.32432,-16.43356l30.89736,-21.4611z" data-paper-data="{&quot;index&quot;:null}" fill="#87a3ad" stroke="none" stroke-width="0" stroke-linecap="butt"/></g><path d="" data-paper-data="{&quot;index&quot;:null}" fill="#87a9bc" stroke="none" stroke-width="0" stroke-linecap="butt"/><path d="" data-paper-data="{&quot;index&quot;:null}" fill="#87a9bc" stroke="none" stroke-width="0" stroke-linecap="butt"/><path d="M148.40909,275.59091v-183.18182h183.18182v183.18182z" fill="none" stroke="none" stroke-width="0" stroke-linecap="butt"/></g></g></svg>