<svg version="1.1" xmlns="http://www.w3.org/2000/svg" xmlns:xlink="http://www.w3.org/1999/xlink" width="210" height="221" viewBox="0,0,210,221"><g transform="translate(-140,-90)"><g data-paper-data="{&quot;isPaintingLayer&quot;:true}" fill-rule="nonzero" stroke-linejoin="miter" stroke-miterlimit="10" stroke-dasharray="" stroke-dashoffset="0" style="mix-blend-mode: normal"><path d="M140,311v-221h210v221z" fill="none" stroke="none" stroke-width="0" stroke-linecap="butt"/><g data-paper-data="{&quot;index&quot;:null}" stroke="#000000" stroke-linecap="round"><path d="M263.90087,199.31823c0,0 17.6251,-1.53252 17.60518,4.82364c-0.05404,17.2519 -30.70669,11.57674 -30.70669,11.57674z" data-paper-data="{&quot;origPos&quot;:null}" fill="#7c7c7c" stroke-width="2"/><path d="M263.08205,200.76534c0,0 12.7926,-0.5405 13.51095,1.3265c0.22655,0.58884 -17.05929,2.41182 -17.05929,2.41182z" data-paper-data="{&quot;origPos&quot;:null}" fill="#0a0a0a" stroke-width="1"/></g><g><path d="M266.55486,246.21467c0,0 0.89913,15.11922 -1.49611,15.38816c-7.18573,0.80687 -26.08133,-0.01122 -42.20293,-0.01122c-1.81105,0 -1.54687,-14.35182 -1.54687,-14.35182l1.93359,-29.38707c0,0 1.4336,-12.98499 3.09374,-12.98499c10.73898,0 26.80634,-0.89288 33.83452,0.68409c2.34272,0.52566 4.45048,14.35114 4.45048,14.35114z" data-paper-data="{&quot;origPos&quot;:null}" fill="#7c7c7c" stroke="#000000" stroke-width="3.5" stroke-linecap="round"/><path d="M231.96158,227.44973c-1.40255,0 -1.40256,-2.3867 -1.40256,-2.3867c0,-4.95019 0,-11.4915 0,-16.4417c0,0 0.00001,-2.3867 1.40256,-2.3867c1.40255,0 1.40255,2.3867 1.40255,2.3867c0,4.95019 0,9.90037 0,14.85057v1.59113c0,0 0,2.3867 -1.40255,2.3867z" fill="#ffffff" stroke="none" stroke-width="0.5" stroke-linecap="butt"/><path d="M244.99179,233.52641c-1.40255,0 -1.40256,-2.99837 -1.40256,-2.99837c0,-6.21883 0,-14.43657 0,-20.65541c0,0 0.00001,-2.99837 1.40256,-2.99837c1.40255,0 1.40255,2.99837 1.40255,2.99837c0,6.21883 0,12.43766 0,18.65651v1.99891c0,0 0,2.99837 -1.40255,2.99837z" fill="#ffffff" stroke="none" stroke-width="0.5" stroke-linecap="butt"/></g><g fill="none" stroke="#b9b9b9" stroke-width="3"><path d="M255.92764,209.79421c-0.89857,-1.30306 0.09326,-2.47322 1.42121,-3.64189c1.32795,-1.16865 2.66074,-1.52551 3.38774,-0.59023c1.54142,1.98307 -0.07577,2.91906 -1.1156,3.83415c-1.32796,1.16867 -2.42433,2.23824 -3.69334,0.39798z" stroke-linecap="butt"/><path d="M254.18409,211.64475l2.81232,-2.41735" stroke-linecap="round"/><path d="M250.33311,212.24858c1.32795,-1.16865 2.66074,-1.52551 3.38774,-0.59023c1.54142,1.98307 -0.07577,2.91906 -1.1156,3.83415c-1.32795,1.16866 -2.42431,2.23824 -3.69333,0.39798c-0.89857,-1.30306 0.09325,-2.47322 1.42119,-3.6419z" stroke-linecap="butt"/><path d="M249.98066,215.32365l-2.81232,2.41736" stroke-linecap="round"/><path d="M241.06339,217.30707c0.43506,-1.56882 1.88797,-1.42047 3.53826,-0.98024c1.65029,0.44024 2.7018,1.3774 2.43797,2.57445c-0.55939,2.53808 -2.20806,1.7062 -3.50027,1.36149c-1.65029,-0.44023 -3.09039,-0.74011 -2.47596,-2.95569z" stroke-linecap="butt"/><path d="M238.66233,216.92093l3.45225,0.96731" stroke-linecap="round"/><path d="M233.24556,213.10863c0.96967,-1.26336 2.24531,-0.50815 3.5953,0.60053c1.35,1.10868 1.97095,2.4214 1.29344,3.41437c-1.43652,2.10536 -2.64233,0.63576 -3.69943,-0.23237c-1.34998,-1.10869 -2.5587,-1.99834 -1.18931,-3.78252z" stroke-linecap="butt"/><path d="M231.18877,211.73044l2.80713,2.36207" stroke-linecap="round"/><path d="M226.18351,207.23218c0.96967,-1.26334 2.24532,-0.50815 3.5953,0.60053c1.35,1.10868 1.97095,2.4214 1.29344,3.41437c-1.43652,2.10535 -2.64233,0.63576 -3.69942,-0.23237c-1.34998,-1.10868 -2.5587,-1.99833 -1.18931,-3.78252z" stroke-linecap="butt"/><path d="M226.93388,208.21607l-2.80715,-2.36207" stroke-linecap="round"/></g><g><g data-paper-data="{&quot;index&quot;:null}"><g stroke="#000000" stroke-width="3" stroke-linecap="round"><path d="M282.09427,240.27758c0,0 3.17047,9.91803 2.70168,14.31952c-17.00693,6.13374 -27.47142,3.63556 -27.47142,3.63556c-2.16404,0.38351 -2.44742,-6.59214 -2.44742,-6.59214c0,0 -1.05838,-13.60153 -1.73582,-22.30718c-0.44483,-5.71649 -1.13982,-14.64781 -1.13982,-14.64781c0,0 -0.15794,-5.68272 1.02942,-5.80834c7.1433,-0.7557 13.88845,-2.73132 17.54828,-1.9854c1.21994,0.24864 2.93861,5.51751 2.93861,5.51751l8.57647,27.86826z" data-paper-data="{&quot;origPos&quot;:null}" fill="#582700"/><path d="M282.85294,245.76132l-27.52386,3.84662l-0.5617,-3.2262l27.52385,-4.09478z" data-paper-data="{&quot;origPos&quot;:null}" fill="none"/></g><path d="M254.45922,245.97898l-1.8818,-35.33447l1.25454,-0.83141l16.93627,-2.49421l10.66358,34.64165z" fill="#7c7c7c" stroke="#000000" stroke-width="1" stroke-linecap="round"/><path d="M255.21534,249.19122l-0.3985,-2.20875l27.34481,-3.85197l0.3985,2.20875z" fill="#ffffff" stroke="none" stroke-width="0" stroke-linecap="butt"/></g><g fill="#fffc96" stroke="#000000" stroke-width="2" stroke-linecap="round"><path d="M280.07522,235.84168c0,0 4.73307,0.44605 4.67181,3.27047c-0.09803,4.51896 -35.43835,-0.80562 -35.65768,-5.52062c-0.08962,-1.92644 3.34972,-2.09686 3.34972,-2.09686l0.32451,1.77277c0,0 6.38275,2.28636 14.59494,3.69052c8.0984,1.38471 13.6143,0.99658 13.6143,0.99658z"/><path d="M277.65462,227.85482c0,0 3.25877,-2.24916 4.2985,-0.21934c2.18256,4.26088 -29.47842,22.9734 -30.46177,18.61255c-0.59554,-2.64103 2.97988,-3.71684 2.97988,-3.71684l0.28205,1.29742c0,0 5.31646,-2.00989 12.3928,-6.3522c7.07635,-4.3423 10.93987,-8.42866 10.93987,-8.42866z" data-paper-data="{&quot;index&quot;:null}"/></g></g><path d="M282.43576,254.9834c0,0 4.73715,-0.98483 7.16411,-0.25576c1.85795,0.55811 2.56848,2.29167 3.12155,3.95537c1.51805,4.56663 0.16045,9.22418 0.45766,16.6231c0.08094,2.01514 -3.22704,3.25606 -5.50805,3.19697c-2.1334,-0.05529 -5.83811,-0.26688 -5.83811,-0.26688l-35.90245,-1.63565c0,0 -4.64036,-0.34585 -5.53704,-1.97808c-2.15933,-3.93071 -0.76505,-8.27602 -1.21884,-12.62692c-0.15379,-1.47447 5.04905,-1.75972 5.04905,-1.75972c0,0 9.66223,-1.32813 15.84658,-2.17819c8.72845,-1.19977 22.36556,-3.07423 22.36556,-3.07423z" data-paper-data="{&quot;index&quot;:null}" fill="#171717" stroke="#000000" stroke-width="3" stroke-linecap="round"/><path d="M240.33168,266.06922c0,0 2.21336,3.82962 1.99159,6.08618c-0.16974,1.72749 -1.90525,2.75108 -3.60156,3.62288c-4.65618,2.39293 -10.09888,2.34006 -18.15918,4.36168c-2.19528,0.55059 -4.34884,-1.99158 -4.82852,-3.96293c-0.44862,-1.84379 -1.10063,-5.07318 -1.10063,-5.07318l-6.7746,-31.19705c0,0 -0.72786,-4.0643 0.85183,-5.22341c3.8042,-2.79135 8.91251,-2.63246 13.58572,-4.06067c1.58369,-0.48401 3.13942,3.91224 3.13942,3.91224c0,0 3.76656,7.97368 6.17735,13.07727c3.40255,7.20309 8.71857,18.45702 8.71857,18.45702z" data-paper-data="{&quot;index&quot;:null}" fill="#171717" stroke="#000000" stroke-width="3" stroke-linecap="round"/><path d="M220.81606,208.63857c0,0 -2.43096,-3.82805 -2.6546,-4.8507c-0.67094,-3.06796 -2.60293,-16.57426 -4.30312,-28.78638c-0.26299,-1.88891 1.06901,-5.02955 1.06901,-5.02955c0,0 2.15764,-1.80828 3.51651,-1.96266c14.9923,-1.70323 29.11284,-4.36507 34.88095,-3.49604c1.92271,0.28968 5.54577,1.57537 5.54577,1.57537c0,0 1.34871,4.10247 1.64331,5.16396c0.09819,0.35384 0.15456,0.55286 0.22873,0.91124c2.22228,10.73784 3.48398,23.306 3.69194,27.72057c0.06932,1.47153 -1.5713,3.96027 -1.5713,3.96027c0,0 -1.13354,2.75961 -5.768,4.04547c-5.07091,1.40694 -17.74613,2.42461 -30.82065,3.43847z" fill="#582700" stroke="#000000" stroke-width="2.5" stroke-linecap="round"/><g data-paper-data="{&quot;index&quot;:null}"><g data-paper-data="{&quot;origRot&quot;:0}" stroke="#000000" stroke-width="3" stroke-linecap="round"><path d="M260.35665,260.06646c-0.33543,2.33467 -10.12978,-0.34479 -10.12978,-0.34479c0,0 -26.12549,-6.48452 -38.47876,-9.50358c-4.98629,-1.9066 -0.90103,-39.17922 4.22196,-42.63702c2.28364,-1.54136 13.78964,-2.22087 15.29814,-0.68088c2.87135,2.93125 6.35044,19.00198 6.35044,19.00198l-4.85035,-0.40674l12.60172,2.08439c0,0 14.88091,1.35016 20.95572,3.37283c3.36916,1.12179 -5.96911,29.11382 -5.96911,29.11382z" data-paper-data="{&quot;origPos&quot;:null}" fill="#582700"/><path d="M254.65077,229.45031l-5.60377,28.40895" fill="none"/><path d="M249.67279,228.88499l-5.27548,28.46466" data-paper-data="{&quot;origPos&quot;:null}" fill="none"/></g><path d="M248.72659,258.41366l-3.2266,-0.53048l5.51091,-29.09642l3.2266,0.53048z" fill="#ffffff" stroke="none" stroke-width="0" stroke-linecap="butt"/><path d="M211.38755,250.31073l-1.94986,-10.64615l3.03697,-22.90355l3.25775,-7.61408l4.73796,-2.8376l8.6745,1.01487l1.73489,0.20298l5.86068,17.1607l-3.49843,-0.16702l-0.22898,1.91145l15.23907,2.50972l-4.33084,28.80918l-30.77021,-7.47643z" fill="#7c7c7c" stroke="#000000" stroke-width="0.5" stroke-linecap="round"/></g><path d="M261.45794,166.38521l-0.8393,-0.4139c-0.10045,-0.01858 -0.20077,-0.03669 -0.30102,-0.05435c-0.19676,0.32255 -0.61219,0.71882 -1.4369,0.57382c-0.76012,-0.13364 -0.99984,-0.57447 -1.06565,-0.92812c-2.9204,-0.31676 -5.7979,-0.30776 -8.80753,-0.21688c-8.39221,0.50752 -16.72252,1.58932 -25.06755,2.51843c-2.73678,0.30471 -8.72373,1.95962 -11.2384,0.60826c-1.22639,-0.65904 -1.05236,-2.54523 -1.30353,-3.53569c-0.72779,-2.87016 -1.55443,-5.83362 -1.98324,-8.75249c-0.53161,-3.81846 -2.63283,-7.04744 -3.71027,-10.73075c-0.54016,-1.84657 -1.52819,-3.65343 0.14174,-5.48678c0.47151,-0.51765 1.45157,-0.35521 2.19182,-0.47221c2.70542,-0.42758 5.36424,-0.55571 8.09797,-0.57162c8.66319,-0.05042 17.17323,-0.49254 25.84389,-0.07447c3.49823,0.17229 6.95476,-0.14506 10.44327,-0.42708c2.05027,-0.16574 3.83965,-0.88742 5.35364,1.03892c0.90412,1.15037 0.90701,5.02211 1.04937,6.43946c0.54892,5.46526 2.4679,12.03677 1.95209,17.65298c0.13145,0.02278 0.26306,0.04628 0.39484,0.0705l1.49637,0.61549c0,0 1.21461,0.53531 0.60882,1.60856c-0.60582,1.07325 -1.82043,0.53796 -1.82043,0.53796z" data-paper-data="{&quot;index&quot;:null}" fill="#000000" stroke="none" stroke-width="0.5" stroke-linecap="butt"/><path d="M243.07988,182.63487c0.58614,-0.08502 1.58768,2.68006 2.2371,6.1759c0.64942,3.49584 0.70071,6.39871 0.11457,6.48371c-0.58614,0.08502 -1.58768,-2.68004 -2.2371,-6.17588c-0.64942,-3.49584 -0.70072,-6.39872 -0.11459,-6.48372z" data-paper-data="{&quot;index&quot;:null}" fill="none" stroke="#580000" stroke-width="2.5" stroke-linecap="butt"/><path d="M245.13317,180.58498c0,0 1.25959,-0.44682 1.76527,0.66618c0.50567,1.113 -0.75393,1.55983 -0.75393,1.55983l-0.83439,0.27786c-1.40693,0.75821 -2.17382,1.09226 -3.13787,1.17709l0.05911,0.21175l-1.4382,0.31346c-0.16609,0.03984 -0.34357,0.05226 -0.52493,0.03207c-0.74375,-0.0828 -1.27071,-0.68269 -1.17699,-1.33987c0.05417,-0.37989 0.30387,-0.69577 0.64861,-0.8787l1.17523,-0.63583l0.0191,0.02756l0.05343,-0.06414c0.99521,-0.40088 1.99499,-0.79317 3.00119,-1.17202c0,0 0.41926,-0.15781 0.87539,-0.07591l0.26897,-0.09933z" data-paper-data="{&quot;index&quot;:null}" fill="#582700" stroke="none" stroke-width="0.5" stroke-linecap="butt"/><path d="M254.15703,200.95729c1.33732,1.56597 1.48359,3.3804 0.3267,4.05264c-1.15689,0.67223 -3.17885,-0.05228 -4.51616,-1.61825c-1.33732,-1.56597 -1.48359,-3.3804 -0.3267,-4.05264c1.15689,-0.67223 3.17885,0.05228 4.51616,1.61825z" fill="#ff8080" stroke="#000000" stroke-width="1.25" stroke-linecap="butt"/><path d="M233.07988,184.03487c0.58614,-0.08502 1.58768,2.68006 2.2371,6.1759c0.64942,3.49584 0.70071,6.39871 0.11457,6.48371c-0.58614,0.08502 -1.58768,-2.68004 -2.2371,-6.17588c-0.64942,-3.49584 -0.70072,-6.39872 -0.11459,-6.48372z" data-paper-data="{&quot;index&quot;:null}" fill="none" stroke="#580000" stroke-width="2.5" stroke-linecap="butt"/><path d="M231.36546,182.18498l0.26897,0.09933c0.45613,-0.0819 0.87539,0.07591 0.87539,0.07591c1.0062,0.37885 2.00598,0.77114 3.00119,1.17202l0.05343,0.06414l0.0191,-0.02756l1.17523,0.63583c0.34474,0.18293 0.59444,0.49881 0.64861,0.8787c0.09372,0.65718 -0.43324,1.25707 -1.17699,1.33987c-0.18136,0.02019 -0.35884,0.00777 -0.52493,-0.03207l-1.4382,-0.31346l0.05911,-0.21175c-0.96405,-0.08483 -1.73094,-0.41888 -3.13787,-1.17709l-0.83439,-0.27786c0,0 -1.2596,-0.44683 -0.75393,-1.55983c0.50568,-1.113 1.76527,-0.66618 1.76527,-0.66618z" data-paper-data="{&quot;index&quot;:null}" fill="#582700" stroke="none" stroke-width="0.5" stroke-linecap="butt"/></g></g></svg>