<svg version="1.1" xmlns="http://www.w3.org/2000/svg" xmlns:xlink="http://www.w3.org/1999/xlink" width="210" height="221" viewBox="0,0,210,221"><g transform="translate(-140,-90)"><g data-paper-data="{&quot;isPaintingLayer&quot;:true}" fill-rule="nonzero" stroke-linejoin="miter" stroke-miterlimit="10" stroke-dasharray="" stroke-dashoffset="0" style="mix-blend-mode: normal"><path d="M140,311v-221h210v221z" fill="none" stroke="none" stroke-width="0" stroke-linecap="butt"/><g data-paper-data="{&quot;index&quot;:null}"><g stroke="#000000" stroke-width="3" stroke-linecap="round"><path d="M229.7016,242.1854c0,0 -1.70948,10.60729 -4.05219,14.5891c-17.07502,-0.77676 -24.80706,-7.18736 -24.80706,-7.18736c-1.99712,-0.47431 0.849,-7.18182 0.849,-7.18182c0,0 5.12235,-13.27436 8.40089,-21.77062c2.15282,-5.57899 5.51636,-14.29548 5.51636,-14.29548c0,0 2.38016,-5.43608 3.43843,-5.09562c6.36662,2.04827 12.93659,2.78869 15.69731,4.90986c0.92024,0.70706 0.04112,6.35539 0.04112,6.35539l-5.08385,29.67652z" data-paper-data="{&quot;origPos&quot;:null}" fill="#582700"/><path d="M227.91675,247.66564l-24.94471,-7.00801l0.95265,-3.26877l25.05448,6.77329z" data-paper-data="{&quot;origPos&quot;:null}" fill="none"/></g><path d="M203.84258,236.88872l14.03975,-34.14891l1.42717,-0.30112l15.40554,4.19187l-6.31728,36.89041z" fill="#66c8ff" stroke="#000000" stroke-width="1" stroke-linecap="round"/><path d="M203.06031,240.21947l0.64043,-2.24328l24.79587,6.9337l-0.64043,2.24328z" fill="#ffffff" stroke="none" stroke-width="0" stroke-linecap="butt"/></g><g data-paper-data="{&quot;index&quot;:null}" stroke="#000000" stroke-linecap="round"><path d="M261.87442,194.40156c0,0 16.40078,-1.59725 16.38224,5.02736c-0.05029,17.98052 -28.57366,12.06568 -28.57366,12.06568z" data-paper-data="{&quot;origPos&quot;:null}" fill="#66c8ff" stroke-width="2"/><path d="M261.11248,195.90979c0,0 11.90396,-0.56333 12.57242,1.38252c0.21081,0.61371 -15.87427,2.51368 -15.87427,2.51368z" data-paper-data="{&quot;origPos&quot;:null}" fill="#0a0a0a" stroke-width="1"/></g><g><path d="M265.35448,242.77864c0,0 0.83667,15.75777 -1.39218,16.03807c-6.68657,0.84095 -24.2696,-0.01169 -39.27132,-0.01169c-1.68524,0 -1.43942,-14.95796 -1.43942,-14.95796l1.79927,-30.62821c0,0 1.33401,-13.5334 2.87884,-13.5334c9.993,0 24.94425,-0.93059 31.48421,0.71298c2.17999,0.54786 4.14133,14.95725 4.14133,14.95725z" data-paper-data="{&quot;origPos&quot;:null}" fill="#66c8ff" stroke="#000000" stroke-width="3.5" stroke-linecap="round"/><path d="M233.1642,223.22117c-1.30512,0 -1.30513,-2.4875 -1.30513,-2.4875c0,-5.15926 0,-11.97684 0,-17.1361c0,0 0.00001,-2.4875 1.30513,-2.4875c1.30512,0 1.30512,2.4875 1.30512,2.4875c0,5.15926 0,10.31851 0,15.47777v1.65833c0,0 0,2.4875 -1.30512,2.4875z" fill="#ffffff" stroke="none" stroke-width="0.5" stroke-linecap="butt"/><path d="M245.28928,229.5545c-1.30512,0 -1.30513,-3.125 -1.30513,-3.125c0,-6.48148 0,-15.04629 0,-21.52778c0,0 0.00001,-3.125 1.30513,-3.125c1.30512,0 1.30512,3.125 1.30512,3.125c0,6.48148 0,12.96296 0,19.44445v2.08333c0,0 0,3.125 -1.30512,3.125z" fill="#ffffff" stroke="none" stroke-width="0.5" stroke-linecap="butt"/></g><g fill="none" stroke="#b9b9b9" stroke-width="3"><path d="M255.46547,205.21998c-0.83616,-1.35809 0.08679,-2.57767 1.32248,-3.7957c1.23571,-1.21801 2.47591,-1.58994 3.15241,-0.61516c1.43435,2.06682 -0.07051,3.04234 -1.03811,3.99608c-1.23572,1.21803 -2.25592,2.33277 -3.43678,0.41479z" stroke-linecap="butt"/><path d="M253.84303,207.14868l2.61697,-2.51944" stroke-linecap="round"/><path d="M250.25957,207.77801c1.23571,-1.21801 2.47591,-1.58994 3.15241,-0.61516c1.43435,2.06682 -0.07051,3.04234 -1.03811,3.99608c-1.23571,1.21802 -2.25591,2.33277 -3.43677,0.41479c-0.83616,-1.35809 0.08678,-2.57767 1.32247,-3.79571z" stroke-linecap="butt"/><path d="M249.9316,210.98296l-2.61697,2.51946" stroke-linecap="round"/><path d="M241.63376,213.05014c0.40484,-1.63508 1.75682,-1.48046 3.29247,-1.02164c1.53565,0.45883 2.51412,1.43557 2.26862,2.68318c-0.52053,2.64527 -2.05467,1.77826 -3.25713,1.41899c-1.53565,-0.45882 -2.87571,-0.77137 -2.30397,-3.08052z" stroke-linecap="butt"/><path d="M239.39949,212.6477l3.21244,1.00816" stroke-linecap="round"/><path d="M234.359,208.67439c0.90231,-1.31672 2.08934,-0.52961 3.34555,0.62589c1.25622,1.1555 1.83404,2.52367 1.2036,3.55857c-1.33673,2.19428 -2.45878,0.66261 -3.44245,-0.24218c-1.25621,-1.15551 -2.38096,-2.08274 -1.1067,-3.94227z" stroke-linecap="butt"/><path d="M232.44508,207.23799l2.61214,2.46183" stroke-linecap="round"/><path d="M227.78751,202.54975c0.90231,-1.3167 2.08935,-0.52961 3.34555,0.62589c1.25622,1.1555 1.83404,2.52367 1.2036,3.55857c-1.33673,2.19427 -2.45878,0.66261 -3.44244,-0.24218c-1.25621,-1.1555 -2.38096,-2.08273 -1.1067,-3.94227z" stroke-linecap="butt"/><path d="M228.48575,203.57519l-2.61216,-2.46183" stroke-linecap="round"/></g><path d="M279.12179,253.91771c0,0 4.40808,-1.02642 6.66646,-0.26656c1.72888,0.58168 2.39006,2.38846 2.90471,4.12242c1.4126,4.7595 0.1493,9.61376 0.42587,17.32516c0.07532,2.10025 -3.00288,3.39358 -5.12543,3.33199c-1.98521,-0.05762 -5.43257,-0.27815 -5.43257,-0.27815l-33.4085,-1.70473c0,0 -4.31802,-0.36046 -5.15241,-2.06162c-2.00934,-4.09672 -0.7119,-8.62555 -1.13417,-13.16021c-0.14311,-1.53674 4.69831,-1.83404 4.69831,-1.83404c0,0 8.99105,-1.38422 14.7458,-2.27018c8.12213,-1.25044 20.81194,-3.20407 20.81194,-3.20407z" data-paper-data="{&quot;index&quot;:null}" fill="#4b4b4b" stroke="#000000" stroke-width="3" stroke-linecap="round"/><path d="M239.94245,265.47173c0,0 2.05961,3.99136 1.85325,6.34323c-0.15795,1.80045 -1.7729,2.86727 -3.35138,3.77589c-4.33274,2.49399 -9.39737,2.43889 -16.89776,4.54589c-2.04278,0.57384 -4.04675,-2.07569 -4.49311,-4.1303c-0.41746,-1.92166 -1.02417,-5.28744 -1.02417,-5.28744l-6.30401,-32.51463c0,0 -0.6773,-4.23595 0.79266,-5.44402c3.53995,-2.90924 8.29341,-2.74364 12.642,-4.23217c1.47368,-0.50445 2.92134,4.07747 2.92134,4.07747c0,0 3.50491,8.31044 5.74825,13.62958c3.16619,7.50731 8.11294,19.23654 8.11294,19.23654z" data-paper-data="{&quot;index&quot;:null}" fill="#4b4b4b" stroke="#000000" stroke-width="3" stroke-linecap="round"/><path d="M222.50209,200.82192c0,0 -1.89498,-4.17286 -2.00657,-5.25279c-0.3348,-3.23978 -0.86175,-17.41892 -1.29495,-30.23559c-0.06701,-1.98243 1.46142,-5.13377 1.46142,-5.13377c0,0 2.16901,-1.70066 3.44294,-1.74973c14.05506,-0.54141 27.39182,-2.14931 32.65671,-0.77519c1.75497,0.45803 4.99272,2.08918 4.99272,2.08918c0,0 0.86621,4.36917 1.03994,5.49524c0.0579,0.37535 0.09152,0.58659 0.12674,0.96469c1.05503,11.32894 1.0485,24.47931 0.82819,29.07916c-0.07344,1.53329 -1.82693,3.98264 -1.82693,3.98264c0,0 -1.30883,2.77203 -5.72462,3.72769c-4.83164,1.04565 -16.67495,1.06496 -28.88799,1.04765z" fill="#582700" stroke="#000000" stroke-width="2.5" stroke-linecap="round"/><path d="M264.1247,160.28364l-0.73917,-0.49835c-0.09136,-0.02751 -0.18266,-0.05452 -0.27392,-0.08107c-0.21254,0.31874 -0.63468,0.69612 -1.38549,0.47813c-0.69201,-0.20093 -0.87296,-0.67817 -0.90086,-1.05069c-2.67715,-0.5678 -5.34502,-0.7939 -8.14302,-0.94582c-7.82584,-0.15982 -15.64807,0.28158 -23.46963,0.56329c-2.56511,0.09238 -8.26899,1.3205 -10.47329,-0.28812c-1.07502,-0.78451 -0.73724,-2.72834 -0.87736,-3.77711c-0.40602,-3.0391 -0.8949,-6.18315 -1.01924,-9.24836c-0.13545,-4.00748 -1.78085,-7.53145 -2.43484,-11.44332c-0.32787,-1.96115 -1.07457,-3.91772 0.64474,-5.6843c0.48546,-0.4988 1.37862,-0.24998 2.07568,-0.31087c2.54755,-0.22251 5.02386,-0.13796 7.55914,0.06922c8.03425,0.65652 15.96319,0.89387 23.96051,2.03733c3.22623,0.4651 6.45962,0.41848 9.71937,0.41115c1.91581,-0.0043 3.64184,-0.60707 4.86484,1.51657c0.73035,1.26819 0.37076,5.28774 0.37009,6.77076c-0.0026,5.71846 1.16116,12.69744 0.15759,18.48549c0.1197,0.03441 0.23948,0.06957 0.35936,0.10549l1.32933,0.76138c0,0 1.07569,0.65509 0.41377,1.71969c-0.66192,1.06459 -1.73761,0.4095 -1.73761,0.4095z" data-paper-data="{&quot;index&quot;:null}" fill="#000000" stroke="none" stroke-width="0.5" stroke-linecap="butt"/><path d="M235.97413,175.89442c0.55121,-0.0403 1.22079,2.91209 1.49561,6.59431c0.27481,3.68221 0.05076,6.69992 -0.50045,6.7402c-0.55121,0.0403 -1.22079,-2.91208 -1.49562,-6.5943c-0.27481,-3.68221 -0.05077,-6.69994 0.50045,-6.74022z" data-paper-data="{&quot;index&quot;:null}" fill="none" stroke="#580000" stroke-width="2.5" stroke-linecap="butt"/><path d="M232.00988,173.97344c0.57282,-1.11404 1.69849,-0.54713 1.69849,-0.54713l0.24001,0.12513c0.43045,-0.04771 0.80427,0.15043 0.80427,0.15043c0.89716,0.47561 1.7871,0.96467 2.67201,1.46226l0.04353,0.07096l0.02028,-0.02705l1.02977,0.75623c0.3024,0.21812 0.50428,0.56646 0.51894,0.96526c0.02537,0.68991 -0.51917,1.26953 -1.21626,1.29464c-0.16997,0.00613 -0.33332,-0.02128 -0.48354,-0.07625l-1.30368,-0.44308l0.0746,-0.21498c-0.8856,-0.16695 -1.56513,-0.57648 -2.79821,-1.4787l-0.74735,-0.35672c0,0 -1.12565,-0.56691 -0.55283,-1.68097z" data-paper-data="{&quot;index&quot;:null}" fill="#582700" stroke="none" stroke-width="0.5" stroke-linecap="butt"/><path d="M245.57049,175.64886c0.55122,-0.0403 1.22078,2.91211 1.49561,6.59432c0.27482,3.68221 0.05076,6.69992 -0.50046,6.7402c-0.55122,0.0403 -1.22079,-2.91208 -1.49562,-6.5943c-0.27482,-3.68221 -0.05076,-6.69993 0.50045,-6.74022z" data-paper-data="{&quot;index&quot;:null}" fill="none" stroke="#580000" stroke-width="2.5" stroke-linecap="butt"/><path d="M247.428,172.90361c0,0 1.08104,-0.64639 1.73418,0.4235c0.65313,1.06989 -0.42791,1.71629 -0.42791,1.71629l-0.71918,0.40955c-1.16354,0.98855 -1.81121,1.44588 -2.68221,1.67609l0.09019,0.20904l-1.26769,0.53569c-0.14578,0.06561 -0.30668,0.1047 -0.47666,0.11083c-0.6971,0.02511 -1.28276,-0.51381 -1.30813,-1.20371c-0.01466,-0.39879 0.1611,-0.76075 0.44669,-1.00004l0.97152,-0.82831l0.02221,0.02552l0.0382,-0.0739c0.84603,-0.55993 1.69769,-1.11171 2.55754,-1.6506c0,0 0.35829,-0.22451 0.79109,-0.20789l0.23016,-0.14207z" data-paper-data="{&quot;index&quot;:null}" fill="#582700" stroke="none" stroke-width="0.5" stroke-linecap="butt"/><g data-paper-data="{&quot;index&quot;:null}" stroke="#000000" stroke-width="1.25" stroke-linecap="butt"><g data-paper-data="{&quot;index&quot;:null}" fill="#000000"><path d="M248.71942,196.56379c-10.62659,0.4746 -7.25176,-4.17215 -7.25176,-4.17215l14.1777,-0.58372c0,0 4.38236,4.14559 -6.92594,4.75587z"/></g><g data-paper-data="{&quot;index&quot;:null}" fill="#ffffff"><path d="M248.71943,196.56381c-2.17367,0.09709 -3.76152,-0.02013 -4.91225,-0.268c-0.02061,-0.00444 0.72618,-0.9646 0.69657,-1.85407c-0.03615,-1.08599 -0.84699,-2.14022 -0.84369,-2.14035c2.39363,-0.09855 11.98529,-0.49346 11.98529,-0.49346c0,0 4.38236,4.14559 -6.92594,4.75587z"/></g></g><g><g><path d="M249.44538,205.45716c-1.74141,-2.68894 12.51623,-3.36973 14.6441,-4.26364c2.31268,-0.97157 -2.33287,19.29822 -2.33287,19.29822l-0.83643,3.42496l5.11573,-22.75767c0,0 1.36633,-7.94789 3.51915,-7.21672c0,0 11.082,-1.44757 27.5191,7.8703c-0.20018,5.10236 -4.97178,16.02919 -4.97178,16.02919c0,0 -9.45944,24.74788 -14.08901,25.72113c-1.07204,0.22536 -14.19952,-0.07274 -17.12215,-3.0192c-9.69858,-9.77769 -11.44585,-35.08656 -11.44585,-35.08656z" fill="#582700" stroke="#000000" stroke-width="2.5" stroke-linecap="round"/><path d="M262.80449,218.99542c-0.14025,0.48377 -0.28749,0.9664 -0.43341,1.45067c-0.0322,0.10688 -0.51586,1.28078 -0.50956,1.8793c6.60143,2.06852 13.45305,3.09794 19.97358,5.52091c0.58976,0.175 1.87172,0.42175 3.06677,0.82101c0.38105,0.02059 0.68432,-0.00894 0.81302,-0.12805c1.09443,-1.01278 1.59538,-2.83265 2.4819,-4.04571c-0.38471,0.00483 -1.49754,0.00324 -1.94958,-0.08187c-1.34247,-0.25274 -2.67008,-0.49855 -4.01898,-0.71065c-4.72842,-0.74349 -9.76448,-2.07609 -14.34675,-3.36084c-1.6813,-0.27733 -3.44094,-0.71924 -5.077,-1.34478zM263.19291,217.55015c1.60788,0.63159 3.36325,1.06354 5.01962,1.33675c5.17577,1.47672 10.68531,2.66142 16.01945,3.59297c2.19784,0.38382 5.67135,0.1423 5.30902,2.68589c-0.92779,1.30218 -1.5539,3.28549 -2.75105,4.40167c0.37365,0.28168 0.6296,0.60604 0.69159,0.98097c0.08726,0.52778 -1.18353,2.27776 -1.44987,2.80512c-1.58892,3.14624 -2.9064,7.21692 -6.61513,8.40669c-5.19396,3.42693 -14.25672,2.09836 -19.48161,-0.57628c-2.94501,-3.27093 -3.82294,-6.56037 -4.78996,-10.72989c-0.69821,-3.01052 -1.91495,-5.7178 -2.26451,-8.84652c-1.08931,-4.28089 -2.04254,-8.58268 -3.12571,-12.86354c-0.49713,-1.96475 -1.65564,-3.68958 0.04727,-5.20488c3.55048,-0.66327 7.14006,-1.33214 10.72022,-1.91681c1.11601,-0.18225 3.39405,-0.47796 4.3933,0.21643c1.38866,0.96501 0.7339,2.71132 0.35522,4.02565c-0.42556,2.9911 -1.05181,6.24542 -1.91157,9.40059c0.21532,0.25241 0.16437,0.60535 0.16437,0.60535c-0.08256,0.56762 -0.19681,1.12622 -0.33064,1.67982zM282.99653,229.78657c-4.04565,-0.53302 -7.70472,-2.21484 -11.67769,-2.85708c-2.349,-0.33197 -6.57671,-0.58469 -9.11261,-2.10472c-0.15477,-0.02056 -0.2661,-0.07566 -0.2661,-0.07566l-0.68892,-0.34447c-0.7249,-0.21402 -1.37741,-0.66739 -1.93539,-1.17291c0.45005,-5.93351 3.60729,-11.69131 4.48275,-17.67805c0.19081,-0.65965 0.52327,-1.58229 0.50952,-2.26399c-0.00846,-0.41927 -2.54196,-0.33964 -2.84737,-0.31444c-3.71836,0.30685 -7.34378,1.4726 -11.04495,1.92418c-0.3606,0.12892 0.64949,2.88897 0.79991,3.48545c1.08772,4.31295 2.06328,8.64284 3.14637,12.95914c0.35101,3.11174 1.54962,5.78799 2.25139,8.78242c0.89321,3.81129 1.62332,6.84582 4.24182,9.8786c4.89168,2.29783 13.10296,3.5819 17.89994,0.41691c3.60296,-1.21629 5.69073,-6.54384 7.23886,-9.64497c0.01642,-0.03288 -1.60362,-0.55764 -2.93536,-0.98175c-0.02107,-0.00306 -0.04179,-0.00595 -0.06217,-0.00864z" fill="#000000" stroke="none" stroke-width="0.5" stroke-linecap="butt"/><path d="M267.83651,220.3182c4.58227,1.28475 9.7135,2.6384 14.4419,3.3819c1.34889,0.2121 2.67645,0.46141 4.01892,0.71417c0.45204,0.08511 1.56488,0.08663 1.94958,0.0818c-0.88653,1.21307 -1.39175,3.05061 -2.48617,4.0634c-0.12872,0.1191 -0.43286,0.15047 -0.81391,0.12988c-1.19506,-0.39926 -2.47887,-0.64263 -3.06863,-0.81762c-6.52052,-2.42297 -13.46511,-3.48351 -20.06653,-5.55203c-0.00632,-0.59852 0.47876,-1.77969 0.51096,-1.88656c0.14594,-0.48426 0.29502,-0.97238 0.43527,-1.45615c1.63606,0.62553 3.39729,1.06389 5.07861,1.34122z" data-paper-data="{&quot;noHover&quot;:false,&quot;origItem&quot;:[&quot;Path&quot;,{&quot;applyMatrix&quot;:true,&quot;segments&quot;:[[[926.17844,407.1979],[3.2606,1.25965],[-0.27949,0.97418]],[[925.31465,410.11917],[0.29084,-0.97519],[-0.06418,0.21521]],[[924.29914,413.90358],[-0.01258,-1.20526],[13.15638,4.16543]],[[964.1057,425.02121],[-12.99513,-4.87922],[1.17537,0.35239]],[[970.21765,426.67451],[-2.3817,-0.804],[0.75941,0.04146]],[[971.83798,426.41666],[-0.25651,0.23985],[2.18115,-2.03947]],[[976.78433,418.26967],[-1.76682,2.44279],[-0.76669,0.00973]],[[972.89889,418.10481],[0.90089,0.17138],[-2.67549,-0.50896]],[[964.88923,416.67374],[2.68829,0.42712],[-9.42353,-1.49721]],[[936.29671,409.90591],[9.13228,2.58714],[-3.35077,-0.55846]]],&quot;closed&quot;:true}]}" fill="#ffffff" stroke="none" stroke-width="0.5" stroke-linecap="butt"/><path d="M281.30955,229.23556c0.21828,0.06484 4.75721,1.50784 4.73005,1.56222c-1.54814,3.10113 -3.656,8.45066 -7.25896,9.66694c-4.79698,3.165 -13.05303,1.88399 -17.94471,-0.41385c-2.6185,-3.03277 -3.37129,-6.08593 -4.2645,-9.89722c-0.70177,-2.99443 -1.90837,-5.70257 -2.25939,-8.8143c-1.08308,-4.31629 -2.04693,-8.67368 -3.13466,-12.98662c-0.15043,-0.59647 -1.15758,-3.35966 -0.79698,-3.48857c3.70117,-0.45158 7.34586,-1.62909 11.06421,-1.93595c0.3054,-0.0252 2.84525,-0.10651 2.85371,0.31276c0.01376,0.68171 -0.29667,1.70121 -0.48749,2.36086c-0.87545,5.98674 -3.99494,11.69302 -4.44499,17.62652c0.55799,0.50551 1.20899,0.94982 1.93391,1.16384l0.68779,0.34079c0,0 0.57831,0.36549 0.9149,-0.30075c0.0337,-0.0667 0.15258,-0.16113 0.16773,-0.22115c6.09286,1.74988 12.2567,2.80677 18.23936,5.02449z" data-paper-data="{&quot;noHover&quot;:false,&quot;origItem&quot;:[&quot;Path&quot;,{&quot;applyMatrix&quot;:true,&quot;segments&quot;:[[[926.61254,417.73069],[12.14285,3.5238],[-0.03018,0.12086]],[[926.46822,418.11346],[0.06716,-0.13431],[-0.67082,1.34164]],[924.45576,418.78428],[[923.08279,418.0906],[0,0],[-1.44471,-0.43097]],[[919.22563,415.72869],[1.11205,1.01797],[0.89694,-11.9485]],[[928.15956,380.1298],[-1.74473,12.05571],[0.38029,-1.32836]],[[929.175,375.57071],[0.02742,1.37277],[-0.01686,-0.84429]],[[923.5003,374.93752],[0.60865,-0.05075],[-7.41054,0.61792]],[[901.48814,378.8123],[7.37628,-0.90935],[-0.71866,0.25961]],[[903.08234,385.83106],[-0.2998,-1.20115],[2.16779,8.68513]],[[909.35292,411.92731],[-2.15853,-8.69186],[0.69956,6.26621]],[[913.83986,429.61277],[-1.39861,-6.02998],[1.78014,7.67491]],[[922.29365,449.50563],[-5.21858,-6.1072],[9.74892,4.62723]],[[957.96755,450.34516],[-9.56021,6.37347],[7.18055,-2.44927]],[[972.39433,430.92276],[-3.08539,6.24485],[0.05411,-0.10951]],[[963.14745,427.86406],[0.43501,0.13058],[-11.92317,-4.46591]]],&quot;closed&quot;:true}]}" fill="#66c8ff" stroke="none" stroke-width="0.5" stroke-linecap="butt"/></g><g data-paper-data="{&quot;index&quot;:null}" fill="#fffc96" stroke="#000000" stroke-width="2" stroke-linecap="round"><path d="M248.03259,213.84259c-0.17623,-1.98815 2.99067,-2.31036 2.99067,-2.31036l0.38563,1.81929c0,0 4.56629,1.59211 10.80841,2.73119c-0.1176,1.30123 -0.15362,2.26662 -0.06654,3.06058c-7.2885,-1.13449 -13.92595,-3.13216 -14.11816,-5.30071z"/><path d="M250.86438,226.8276c-0.67797,-2.70557 2.57061,-3.96973 2.57061,-3.96973l0.32336,1.32957c0,0 3.46907,-1.66142 8.38691,-5.09607c0.10603,1.03948 0.41763,1.78464 1.02538,2.59422c-6.08706,4.21852 -11.81508,7.10218 -12.30626,5.142z" data-paper-data="{&quot;index&quot;:null}"/></g></g></g></g></svg>