<svg version="1.1" xmlns="http://www.w3.org/2000/svg" xmlns:xlink="http://www.w3.org/1999/xlink" width="127.66667" height="127.66667" viewBox="0,0,127.66667,127.66667"><defs><linearGradient x1="245.68107" y1="147.10362" x2="246.72641" y2="154.26917" gradientUnits="userSpaceOnUse" id="color-1"><stop offset="0" stop-color="#45afff" stop-opacity="0"/><stop offset="1" stop-color="#45afff"/></linearGradient><linearGradient x1="237.86845" y1="144.0771" x2="238.91378" y2="151.24261" gradientUnits="userSpaceOnUse" id="color-2"><stop offset="0" stop-color="#45afff" stop-opacity="0"/><stop offset="1" stop-color="#45afff"/></linearGradient><linearGradient x1="255.8976" y1="159.24315" x2="256.94293" y2="166.4087" gradientUnits="userSpaceOnUse" id="color-3"><stop offset="0" stop-color="#45afff" stop-opacity="0"/><stop offset="1" stop-color="#45afff"/></linearGradient><linearGradient x1="229.69634" y1="176.62937" x2="230.28812" y2="180.68592" gradientUnits="userSpaceOnUse" id="color-4"><stop offset="0" stop-color="#45afff" stop-opacity="0"/><stop offset="1" stop-color="#45afff"/></linearGradient></defs><g transform="translate(-176.16669,-116.16671)"><g data-paper-data="{&quot;isPaintingLayer&quot;:true}" fill-rule="nonzero" stroke-linejoin="miter" stroke-miterlimit="10" stroke-dasharray="" stroke-dashoffset="0" style="mix-blend-mode: normal"><g><g stroke="#000000"><path d="M257.33745,193.30878l1.75835,9.73519l-37.56842,-0.98638c0,0 0.35965,-9.54107 2.07153,-11.34553c0.59347,-0.62556 6.41997,2.03919 6.41997,2.03919l0.25732,-3.81689z" fill="#0045d8" stroke-width="0" stroke-linecap="round"/><path d="M250.80119,195.0748c-1.50492,0.75211 -3.46626,1.96401 -5.55469,2.32519c-3.234,0.55932 -6.47304,0.03793 -6.47304,0.03793c0,0 0.30281,3.49312 0.18664,5.07736l-6.30755,-0.16562c0.10962,-1.29633 -0.57405,-3.71336 -1.36584,-5.89166c-0.62872,-1.72966 -1.37315,-3.35633 -1.50415,-3.81326c0.15103,0.06748 0.23634,0.1065 0.23634,0.1065l0.25732,-3.81689l20.66543,3.37873c0,0 0.43609,0.795 0.40582,1.59336c-0.01954,0.51496 -0.48353,1.15655 -0.54628,1.16833z" fill="#080f95" stroke-width="0" stroke-linecap="butt"/><path d="M257.33745,193.30878l1.75835,9.73519l-37.56842,-0.98638c0,0 0.35965,-9.54107 2.07153,-11.34553c0.59347,-0.62556 6.41997,2.03919 6.41997,2.03919l0.25732,-3.81689z" fill="none" stroke-width="1" stroke-linecap="round"/><path d="M238.03863,197.5545l-2.1872,-1.887" fill="none" stroke-width="1" stroke-linecap="round"/></g><g><path d="M243.65676,209.62703c0,0.33519 -1.63074,2.50378 -2.85523,2.79868c-2.46242,0.59307 -7.38873,0.24178 -11.07692,0.90119c-1.33696,0.23903 -3.19606,0.44866 -4.63054,1.09762c-0.92448,0.41823 -1.74343,2.02085 -6.96282,2.16315c-3.25738,0.0888 -6.83425,-0.83198 -7.71227,-1.14691c-2.50226,-0.89751 -3.34425,-2.76549 -3.30137,-4.09828c0.01257,-0.39041 0.42812,-1.81565 1.76048,-1.48829c0.90605,0.22261 3.46358,1.84521 6.17255,2.24522c3.29288,0.48623 6.89529,0.06209 7.94157,-0.19361c2.51502,-0.61463 4.62961,-2.03761 7.06881,-2.81725c2.58159,-0.82516 5.97162,0.34968 8.04687,-0.15176c2.70956,-0.65471 3.81251,-2.83717 4.39353,-2.55589c0.93799,0.4541 1.15532,2.55874 1.15532,3.24612z" fill="#ab9efa" stroke="none" stroke-width="0" stroke-linecap="butt"/><path d="M240.80155,212.42567c-2.46242,0.59306 -7.38873,0.24178 -11.07692,0.90119c-1.33696,0.23904 -3.19606,0.44867 -4.63054,1.09763c-0.92447,0.41822 -1.74343,2.02085 -6.9628,2.16315c-0.4438,0.0121 -0.89353,0.00545 -1.34155,-0.01584c-0.43617,-1.67958 -1.41883,-3.10604 -2.32625,-4.5779c0.19455,0.04094 0.39047,0.07644 0.58718,0.10547c3.29288,0.48623 6.8953,0.0621 7.94157,-0.19361c2.51503,-0.61465 4.62961,-2.03761 7.06882,-2.81725c2.58159,-0.82514 5.97162,0.34968 8.04687,-0.15176c2.70956,-0.6547 3.81251,-2.83717 4.39353,-2.55589c0.93799,0.45411 1.15532,2.55874 1.15532,3.24612c0,0.3352 -1.63074,2.50378 -2.85523,2.79868z" fill="#9362ec" stroke="none" stroke-width="0" stroke-linecap="butt"/><path d="M243.65676,209.62703c0,0.33519 -1.63074,2.50378 -2.85523,2.79868c-2.46242,0.59307 -7.38873,0.24178 -11.07692,0.90119c-1.33696,0.23903 -3.19606,0.44866 -4.63054,1.09762c-0.92448,0.41823 -1.74343,2.02085 -6.96282,2.16315c-3.25738,0.0888 -6.83425,-0.83198 -7.71227,-1.14691c-2.50226,-0.89751 -3.34425,-2.76549 -3.30137,-4.09828c0.01257,-0.39041 0.42812,-1.81565 1.76048,-1.48829c0.90605,0.22261 3.46358,1.84521 6.17255,2.24522c3.29288,0.48623 6.89529,0.06209 7.94157,-0.19361c2.51502,-0.61463 4.62961,-2.03761 7.06881,-2.81725c2.58159,-0.82516 5.97162,0.34968 8.04687,-0.15176c2.70956,-0.65471 3.81251,-2.83717 4.39353,-2.55589c0.93799,0.4541 1.15532,2.55874 1.15532,3.24612z" fill="none" stroke="#000000" stroke-width="1" stroke-linecap="butt"/><path d="M221.39875,201.19983l-1.32948,-3.73111c0,0 2.8106,-2.12368 7.65675,-1.54147c3.72193,0.44716 5.08049,4.41485 5.08049,4.41485c0,0 3.57503,-4.04059 4.74028,-3.35392c0.51589,0.30401 2.34417,1.10802 2.97465,2.21711c1.53721,2.70415 1.80584,6.62625 1.80584,6.62625c0,0 -0.38263,2.21366 -2.79127,2.88539c-1.68043,0.46864 -4.34287,0.34385 -7.03231,0.50096c-0.85331,0.04984 -1.69638,0.03395 -2.4905,0.25952c-1.84413,0.5238 -3.42297,1.56729 -5.3759,2.2564c-1.55439,0.54848 -3.47151,0.8096 -5.04159,0.85874c-3.6108,0.11301 -7.30255,-0.80321 -10.16225,-2.30084c-1.8351,-0.96105 1.51881,-3.82844 5.17407,-5.95649c3.26663,-1.9018 6.79121,-3.1354 6.79121,-3.1354z" fill="#ae1c51" stroke="#000000" stroke-width="0" stroke-linecap="round"/><path d="M230.73346,197.30218c0.56861,0.50162 1.73755,1.99339 1.90193,3.00395c0.1394,0.857 -0.70861,1.23546 -0.48498,1.75693c0.19854,0.46296 1.42806,0.16605 1.42806,0.16605c0,0 2.04695,-0.84384 3.62863,-2.29243c0.7716,-0.70667 1.64124,-2.23 1.64124,-2.23c0,0 1.33278,0.89999 1.67309,1.49863c1.53721,2.70415 1.80584,6.62625 1.80584,6.62625c0,0 -0.38263,2.21366 -2.79127,2.88539c-1.68043,0.46864 -4.34287,0.34385 -7.03231,0.50096c-0.85331,0.04984 -1.69638,0.03395 -2.4905,0.25952c-1.84413,0.5238 -3.42297,1.56729 -5.3759,2.2564c-1.55439,0.54848 -3.47151,0.8096 -5.04159,0.85874c-0.98536,0.03084 -2.95564,-0.12833 -2.95564,-0.12833c0,0 -0.45608,-2.69671 1.66501,-5.12594c2.44768,-2.80325 7.68327,-4.11214 10.44969,-6.15067c2.49395,-1.83776 1.78263,-4.05842 1.97869,-3.88545z" fill="#710c65" stroke="#000000" stroke-width="0" stroke-linecap="round"/><path d="M232.80647,200.29923c0,0 0.12921,1.06387 -0.40554,1.51144c-0.38839,0.32507 -1.9532,0.58999 -1.9532,0.58999" fill="none" stroke="#000000" stroke-width="1" stroke-linecap="round"/><path d="M238.10296,200.29923c0,-0.46186 0.37442,-0.83628 0.83628,-0.83628c0.46186,0 0.83628,0.37442 0.83628,0.83628c0,0.46186 -0.37442,0.83628 -0.83628,0.83628c-0.46186,0 -0.83628,-0.37442 -0.83628,-0.83628z" fill="#000000" stroke="none" stroke-width="0.5" stroke-linecap="butt"/><path d="M221.39875,201.19983l-1.32948,-3.73111c0,0 2.8106,-2.12368 7.65675,-1.54147c3.72193,0.44716 5.08049,4.41485 5.08049,4.41485c0,0 3.57503,-4.04059 4.74028,-3.35392c0.51589,0.30401 2.34417,1.10802 2.97465,2.21711c1.53721,2.70415 1.80584,6.62625 1.80584,6.62625c0,0 -0.38263,2.21366 -2.79127,2.88539c-1.68043,0.46864 -4.34287,0.34385 -7.03231,0.50096c-0.85331,0.04984 -1.69638,0.03395 -2.4905,0.25952c-1.84413,0.5238 -3.42297,1.56729 -5.3759,2.2564c-1.55439,0.54848 -3.47151,0.8096 -5.04159,0.85874c-3.6108,0.11301 -7.30255,-0.80321 -10.16225,-2.30084c-1.8351,-0.96105 1.51881,-3.82844 5.17407,-5.95649c3.26663,-1.9018 6.79121,-3.1354 6.79121,-3.1354z" fill="none" stroke="#000000" stroke-width="1" stroke-linecap="round"/><path d="M216.23097,203.42995c0,-0.2686 0.12664,-0.50764 0.32345,-0.66064c-0.14245,0.30595 -0.231,0.64203 -0.25346,0.99609c-0.04501,-0.10268 -0.06999,-0.21615 -0.06999,-0.33545z" fill="#db93e6" stroke="none" stroke-width="0.5" stroke-linecap="butt"/><path d="M224.57233,200.8353c5.36301,0.04651 4.6557,6.30284 1.97676,4.47385c-0.56413,-0.38516 -1.14635,-1.13569 -1.75326,-1.58809c-0.80799,-0.60228 -2.20652,-1.18841 -3.05294,-1.67209c-0.29133,-0.13074 -0.16932,-1.01887 0.23482,-1.19223c0.40415,-0.17336 1.73335,-0.02891 2.59462,-0.02144z" fill="#ab9efa" stroke="none" stroke-width="0.5" stroke-linecap="butt"/><path d="M224.63249,206.77505c-0.04287,0.42165 -0.399,0.75067 -0.83196,0.75067c-0.30694,0 -0.57525,-0.16535 -0.72072,-0.41184c-0.2312,-0.13211 -1.05102,-1.37107 -2.08121,-2.38367c-0.87171,-0.85682 -1.89764,-1.52796 -2.33491,-2.16462c-0.32071,-0.46696 -0.11359,-0.78023 0.33214,-0.94991c1.44435,-0.54982 6.80364,3.20573 5.63666,5.15938z" data-paper-data="{&quot;index&quot;:null}" fill="#ab9efa" stroke="none" stroke-width="0.5" stroke-linecap="butt"/><path d="M221.89191,207.1539c0.33475,1.26692 -1.09143,2.00882 -1.79482,0.9035c-0.41897,-0.65837 -0.90974,-1.69156 -1.54123,-2.21345c-0.66411,-0.54886 -1.48386,-0.94215 -1.91308,-1.69329c-0.24648,-0.14548 -0.41184,-0.41378 -0.41184,-0.72072c0,-0.46186 0.37442,-0.83628 0.83628,-0.83628c0.25436,0 0.48222,0.11357 0.6356,0.29277c1.65607,0.45449 3.87257,3.06959 4.18909,4.2675z" fill="#ab9efa" stroke="none" stroke-width="0.5" stroke-linecap="butt"/><path d="M226.5491,205.30916c-0.54218,-0.37016 -1.10106,-1.07782 -1.68251,-1.53396c1.10453,-0.27698 1.94761,-1.21297 2.08707,-2.36577c2.65203,1.51262 1.77818,5.38995 -0.40456,3.89972z" fill="#9362ec" stroke="none" stroke-width="0.5" stroke-linecap="butt"/><path d="M224.63249,206.77505c-0.04287,0.42165 -0.399,0.75067 -0.83196,0.75067c-0.30694,0 -0.57525,-0.16535 -0.72072,-0.41184c-0.16927,-0.09673 -0.6541,-0.7868 -1.30598,-1.54695c0.88983,-0.0642 1.66392,-0.54608 2.12724,-1.25056c0.74673,0.8655 1.14097,1.77304 0.73142,2.45866z" data-paper-data="{&quot;index&quot;:null}" fill="#9362ec" stroke="none" stroke-width="0.5" stroke-linecap="butt"/><path d="M221.89191,207.1539c0.33475,1.26692 -1.09143,2.00882 -1.79482,0.9035c-0.23987,-0.37693 -0.50328,-0.87673 -0.80316,-1.33309c0.74314,-0.05563 1.40506,-0.40263 1.87188,-0.92709c0.36774,0.51507 0.63159,0.99905 0.72609,1.35669z" fill="#9362ec" stroke="none" stroke-width="0.5" stroke-linecap="butt"/><path d="M224.57233,200.8353c5.36301,0.04651 4.6557,6.30284 1.97676,4.47385c-0.56413,-0.38516 -1.14635,-1.13569 -1.75326,-1.58809c-0.80799,-0.60228 -2.20652,-1.18841 -3.05294,-1.67209c-0.29133,-0.13074 -0.16932,-1.01887 0.23482,-1.19223c0.40415,-0.17336 1.73335,-0.02891 2.59462,-0.02144z" fill="none" stroke="#000000" stroke-width="1" stroke-linecap="butt"/><path d="M224.63249,206.77505c-0.04287,0.42165 -0.399,0.75067 -0.83196,0.75067c-0.30694,0 -0.57525,-0.16535 -0.72072,-0.41184c-0.2312,-0.13211 -1.05102,-1.37107 -2.08121,-2.38367c-0.87171,-0.85682 -1.89764,-1.52796 -2.33491,-2.16462c-0.32071,-0.46696 -0.11359,-0.78023 0.33214,-0.94991c1.44435,-0.54982 6.80364,3.20573 5.63666,5.15938z" data-paper-data="{&quot;index&quot;:null}" fill="none" stroke="#000000" stroke-width="1" stroke-linecap="butt"/><path d="M220.09711,208.05742c-0.41897,-0.65837 -0.90974,-1.69156 -1.54123,-2.21345c-0.66411,-0.54886 -1.48386,-0.94215 -1.91308,-1.69329c-0.24648,-0.14548 -0.41184,-0.41378 -0.41184,-0.72072c0,-0.46186 0.37442,-0.83628 0.83628,-0.83628c0.25436,0 0.48222,0.11357 0.6356,0.29277c1.65607,0.45449 3.87257,3.06959 4.18909,4.2675c0.31652,1.1979 -1.09143,2.00881 -1.79482,0.90349z" fill="none" stroke="#000000" stroke-width="1" stroke-linecap="butt"/></g><g><path d="M242.41304,208.90479c0,0 0.3915,8.34024 14.60749,6.23944c13.4989,-1.99483 11.63893,-9.15571 11.63893,-9.15571l4.20286,1.887c0,0 -0.00863,1.18868 0.0127,2.61652c0.02049,1.37182 0.09502,2.95119 -1.0369,4.54341c-2.00021,2.81361 -6.76078,4.99215 -16.60204,5.40697c-20.06166,0.84564 -12.82304,-11.53763 -12.82304,-11.53763z" fill="#ab9efa" stroke="#000000" stroke-width="0" stroke-linecap="round"/><path d="M241.28471,214.91698c-0.01726,-0.07859 3.87856,5.67316 16.55063,3.82969c14.35662,-1.86616 15.02695,-10.87116 15.02695,-10.87116c0,0 -0.00863,1.18868 0.0127,2.61652c0.02049,1.37182 0.09502,2.95119 -1.0369,4.54341c-2.00021,2.81361 -6.76078,4.99215 -16.60204,5.40697c-10.11326,0.42629 -13.28882,-2.50921 -13.95136,-5.52542z" fill="#9362ec" stroke="#000000" stroke-width="0" stroke-linecap="round"/><path d="M242.41304,208.90479c0,0 0.3915,8.34024 14.60749,6.23944c13.4989,-1.99483 11.63893,-9.15571 11.63893,-9.15571l4.20286,1.887c0,0 -0.00863,1.18868 0.0127,2.61652c0.02049,1.37182 0.09502,2.95119 -1.0369,4.54341c-2.00021,2.81361 -6.76078,4.99215 -16.60204,5.40697c-20.06166,0.84564 -12.82304,-11.53763 -12.82304,-11.53763z" fill="none" stroke="#000000" stroke-width="1" stroke-linecap="round"/><path d="M247.60114,199.13622c1.31642,-1.17593 6.83383,-2.37225 9.54146,-1.8472c1.63401,0.31686 1.35284,1.93808 1.35284,1.93808c0,0 6.50518,-3.29028 7.2311,-2.78214c0.28324,0.19828 1.53295,2.07667 0.92706,3.17351c-0.89762,1.62499 -3.86953,2.61068 -3.86953,2.61068c0,0 0.38686,0.12296 0.98019,0.36644c-4.37977,0.2708 -10.45727,2.81658 -13.09573,2.97807c-0.28949,0.01772 -0.09375,-0.57255 -0.14995,-0.85709c-0.2393,-1.21161 -0.36474,-2.58493 -1.15202,-3.60541c-0.53209,-0.6897 -1.20811,-1.28668 -1.96677,-1.76955c0.06482,-0.07445 0.13195,-0.14336 0.20135,-0.20536z" fill="#ff292e" stroke="#000000" stroke-width="0" stroke-linecap="butt"/><path d="M242.79904,206.13178l-4.26626,-0.16396c0,0 -0.75986,-1.06582 0.64989,-3.95604l0.44322,0.77565c0.89587,1.56777 5.91336,-0.09743 5.42961,2.84951c-0.11145,0.67887 -1.32062,0.92814 -2.47088,1.49438c0.1108,-0.61531 0.21443,-0.99954 0.21443,-0.99954z" fill="#ff292e" stroke="#000000" stroke-width="0" stroke-linecap="butt"/><path d="M261.2151,209.09094c0.36853,-0.08338 0.88232,-0.11124 1.46868,-0.11798c-0.6464,0.16771 -1.32782,0.23565 -2.02895,0.24198c0.20663,-0.04469 0.39459,-0.08651 0.56025,-0.12398z" fill="#ac0e49" stroke="#000000" stroke-width="0" stroke-linecap="butt"/><path d="M246.14414,202.05756c0,0 0.52294,-2.08702 1.45697,-2.92137c1.31642,-1.17593 6.83383,-2.37225 9.54146,-1.8472c1.63401,0.31686 1.35284,1.93808 1.35284,1.93808c0,0 6.50518,-3.29028 7.2311,-2.78214c0.28324,0.19828 1.53295,2.07667 0.92706,3.17351c-0.89762,1.62499 -3.86953,2.61068 -3.86953,2.61068c0,0 3.2768,1.04143 5.38321,3.06446c3.27168,3.14221 4.20444,8.1679 -10.60834,11.59558c-1.79091,0.41442 -10.06451,0.93634 -13.55884,-2.11337c-2.85954,-2.49569 -1.20105,-8.64402 -1.20105,-8.64402l-4.26626,-0.16396c0,0 -0.79623,-1.11685 0.75362,-4.16423c0.36247,-0.7127 6.85777,0.254 6.85777,0.254z" fill="#ae1c51" stroke="#000000" stroke-width="0" stroke-linecap="round"/><path d="M242.79904,206.13178l-4.26626,-0.16396c0,0 -0.5427,-0.76123 0.14011,-2.74157c1.97616,0.73611 6.21238,1.20089 7.42841,1.75617c0.14476,0.0661 -1.20123,0.75924 -1.35092,0.8545c-0.89102,0.56702 -1.4988,1.12815 -2.20328,1.90308c-0.02477,0.02724 -0.04901,0.05479 -0.07273,0.08264c0.13987,-1.0057 0.32469,-1.69088 0.32469,-1.69088z" fill="#710c65" stroke="#000000" stroke-width="0" stroke-linecap="butt"/><path d="M242.05925,206.26312c-0.27303,0.24428 -2.54969,0.17339 -2.50058,-0.53893c-0.05339,-0.11013 -0.08333,-0.23375 -0.08333,-0.36435c0,-0.46186 0.37442,-0.83628 0.83628,-0.83628c0.24056,0 0.4574,0.10157 0.60997,0.26417c1.11623,-0.04955 2.12857,0.58878 1.13765,1.4754z" fill="#000000" stroke="none" stroke-width="0.5" stroke-linecap="butt"/><path d="M257.55888,216.88918c-1.79091,0.41442 -10.06451,0.93634 -13.55884,-2.11337c-0.3195,-0.27885 -0.5826,-0.60331 -0.79791,-0.95967c3.21261,0.17766 11.22397,-3.76602 14.15318,-4.46787c1.7611,-0.42198 5.91336,0.01395 8.68214,-0.70891c0.18548,-0.04842 1.22555,1.94151 1.60247,1.53843c0.40093,-0.42875 1.09917,-3.59532 1.0842,-4.30339c2.77006,3.15444 2.76525,7.79127 -11.16524,11.01479z" fill="#710c65" stroke="#000000" stroke-width="0" stroke-linecap="butt"/><path d="M266.65353,199.61844c-0.89762,1.62499 -3.86953,2.61068 -3.86953,2.61068c0,0 0.88914,0.28259 2.03882,0.8393c-2.6179,0.16708 -5.35164,0.92473 -5.54022,0.30285c-0.44904,-1.48077 3.96725,-4.01273 6.07544,-5.71395c0.29957,-0.18436 0.56161,-0.42379 0.77203,-0.70418c0.43424,0.68131 0.95958,1.87579 0.52345,2.66532z" fill="#710c65" stroke="#000000" stroke-width="0" stroke-linecap="butt"/><path d="M245.92974,202.22912l2.40164,3.00204" fill="none" stroke="#000000" stroke-width="1" stroke-linecap="round"/><path d="M248.24558,208.10455c0,0 -1.46726,-0.21889 -1.62111,-0.58326c-0.46565,-1.10286 0.59183,-1.47529 0.59183,-1.47529c0,0 3.3467,-2.24519 5.84223,-2.74497c4.07916,-0.81696 6.42326,-0.04264 6.42326,-0.04264c0,0 1.21563,0.0579 1.55332,0.68722c0.31306,0.58342 -0.18096,1.02823 -0.18096,1.02823c0,0 1.6958,0.03505 2.41724,0.88295c0.94578,1.11157 0.15594,1.39003 0.15594,1.39003c0,0 1.26494,-0.00347 1.66996,0.92131c0.31713,0.72408 -0.51203,1.18013 -0.51203,1.18013c0,0 -5.20712,0.3391 -7.70654,0.76286c-2.47516,0.41965 -7.2179,1.76743 -7.2179,1.76743c0,0 -0.99125,0.44662 -1.27567,-0.67379c-0.23639,-0.93121 0.46081,-1.42764 0.46081,-1.42764c0,0 -1.03151,0.46549 -1.3061,-0.43725c-0.18736,-0.61595 0.70569,-1.23531 0.70569,-1.23531z" fill="#ab9efa" stroke="#000000" stroke-width="0" stroke-linecap="round"/><path d="M253.05853,203.30101c4.07916,-0.81696 6.42326,-0.04264 6.42326,-0.04264c0,0 0.90806,0.04325 1.37255,0.46129c-1.71687,1.49587 -2.92822,4.45112 -5.42574,3.93719c-1.53135,-0.31512 -2.76377,-2.09366 -3.98648,-3.85867c0.55045,-0.21665 1.10154,-0.39407 1.6164,-0.49718z" fill="#9362ec" stroke="#000000" stroke-width="0" stroke-linecap="round"/><path d="M248.97464,209.81999c0,0 3.18295,-0.99515 6.53549,-1.65399c2.90506,-0.5709 7.57412,-0.70476 7.57412,-0.70476" fill="none" stroke="#000000" stroke-width="1" stroke-linecap="round"/><path d="M248.20269,208.01877c0,0 2.227,-1.48295 5.68833,-2.32773c2.06082,-0.50296 6.70582,-0.67431 6.70582,-0.67431" fill="none" stroke="#000000" stroke-width="1" stroke-linecap="round"/><path d="M248.24558,208.10455c0,0 -1.46726,-0.21889 -1.62111,-0.58326c-0.46565,-1.10286 0.59183,-1.47529 0.59183,-1.47529c0,0 3.3467,-2.24519 5.84223,-2.74497c4.07916,-0.81696 6.42326,-0.04264 6.42326,-0.04264c0,0 1.21563,0.0579 1.55332,0.68722c0.31306,0.58342 -0.18096,1.02823 -0.18096,1.02823c0,0 1.6958,0.03505 2.41724,0.88295c0.94578,1.11157 0.15594,1.39003 0.15594,1.39003c0,0 1.26494,-0.00347 1.66996,0.92131c0.31713,0.72408 -0.51203,1.18013 -0.51203,1.18013c0,0 -5.20712,0.3391 -7.70654,0.76286c-2.47516,0.41965 -7.2179,1.76743 -7.2179,1.76743c0,0 -0.99125,0.44662 -1.27567,-0.67379c-0.23639,-0.93121 0.46081,-1.42764 0.46081,-1.42764c0,0 -1.03151,0.46549 -1.3061,-0.43725c-0.18736,-0.61595 0.70569,-1.23531 0.70569,-1.23531z" fill="none" stroke="#000000" stroke-width="1" stroke-linecap="round"/><path d="M265.49304,198.77681c1.15018,0.38339 0.40356,1.84688 -0.40023,2.63312c-0.13,0.2931 -0.42355,0.49754 -0.76483,0.49754c-0.46186,0 -0.83628,-0.37442 -0.83628,-0.83628c0,-0.18665 0.06115,-0.35902 0.16451,-0.49817c0.39289,-0.79476 1.38393,-1.94719 1.83685,-1.79621z" fill="#000000" stroke="none" stroke-width="0.5" stroke-linecap="butt"/><path d="M247.60114,199.13622c1.31642,-1.17593 6.83383,-2.37225 9.54146,-1.8472c1.63401,0.31686 1.35284,1.93808 1.35284,1.93808c0,0 6.50518,-3.29028 7.2311,-2.78214c0.28324,0.19828 1.53295,2.07667 0.92706,3.17351c-0.89762,1.62499 -3.86953,2.61068 -3.86953,2.61068c0,0 3.2768,1.04143 5.38321,3.06446c3.27168,3.14221 4.20444,8.1679 -10.60834,11.59558c-1.79091,0.41442 -10.06451,0.93634 -13.55884,-2.11337c-2.85954,-2.49569 -1.20105,-8.64402 -1.20105,-8.64402l-4.26626,-0.16396c0,0 -0.79623,-1.11685 0.75362,-4.16423c0.36247,-0.7127 6.85777,0.254 6.85777,0.254c0,0 0.52293,-2.08703 1.45696,-2.92138z" fill="none" stroke="#000000" stroke-width="1" stroke-linecap="round"/></g><g><path d="M239.55424,180.96113c0,0 -1.0256,-4.0956 1.03203,-5.33746c5.68956,-3.43387 12.3485,-2.32847 12.3485,-2.32847c0,0 4.35038,-2.34374 6.74085,-1.58789c2.15327,0.68085 -0.5948,4.24215 -0.56921,7.29582c0.01305,1.55583 1.50782,3.2307 2.03827,4.70018c0.51068,1.41471 0.08678,2.64924 -1.34434,2.88658c-3.02232,0.50121 -7.14433,-3.2593 -7.14433,-3.2593l2.23009,9.19911c0,0 -6.68449,3.43094 -17.20515,2.16149c-7.48165,-0.90275 -8.99837,-6.76105 -8.99837,-6.76105c0,0 2.67148,-2.61667 4.48804,-3.78114c1.80727,-1.15851 6.38364,-3.18789 6.38364,-3.18789z" fill="#ab9efa" stroke="#000000" stroke-width="0" stroke-linecap="round"/><path d="M239.55424,180.96113c0,0 -1.0256,-4.0956 1.03203,-5.33746c5.68956,-3.43387 12.3485,-2.32847 12.3485,-2.32847c0,0 4.35038,-2.34374 6.74085,-1.58789c1.68439,0.5326 0.3696,2.82775 -0.27061,5.26374c-0.70722,0.11136 -9.11847,2.47833 -9.11847,2.47833l2.36947,3.88121l2.23009,9.19911c0,0 -0.97231,0.49906 -2.75892,1.04608c-0.18269,-0.61384 -2.54552,-14.15458 -2.54552,-14.15458c0,0 -13.8315,3.3255 -13.60022,3.21161c1.78302,-0.87801 3.5728,-1.67169 3.5728,-1.67169z" fill="#9362ec" stroke="#000000" stroke-width="0" stroke-linecap="butt"/><path d="M252.93478,173.2952c0,0 4.35038,-2.34374 6.74085,-1.58789c2.15327,0.68085 -0.5948,4.24215 -0.56921,7.29582c0.01305,1.55583 1.50782,3.2307 2.03827,4.70018c0.51068,1.41471 0.08678,2.64924 -1.34434,2.88658c-3.02232,0.50121 -7.14433,-3.2593 -7.14433,-3.2593l2.23009,9.19911c0,0 -6.68449,3.43094 -17.20515,2.16149c-7.48165,-0.90275 -8.99837,-6.76105 -8.99837,-6.76105c0,0 2.67148,-2.61667 4.48804,-3.78114c1.80727,-1.15851 6.38364,-3.18789 6.38364,-3.18789c0,0 -1.02561,-4.0956 1.03202,-5.33746c2.05763,-1.24186 12.34849,-2.32845 12.34849,-2.32845z" fill="none" stroke="#000000" stroke-width="1" stroke-linecap="round"/><g fill="none" stroke="#ae0010" stroke-width="1"><path d="M244.04007,189.16308c-2.61753,1.57784 -5.39303,1.83454 -6.86544,0.66896c-1.51155,-1.19657 -0.03158,-4.01856 2.5728,-5.75385c1.96727,-1.31078 4.59452,-2.07518 6.95426,-0.63327c1.65703,1.01252 0.05816,4.0787 -2.66162,5.71816z" stroke-linecap="butt"/><path d="M240.22586,183.91668l1.62968,5.66099" stroke-linecap="round"/></g><path d="M252.34121,173.87015c-0.15822,0.2769 -0.33031,0.54033 -0.51511,0.79043c-1.85699,2.5132 -4.99844,3.67936 -8.27648,3.61643c-1.07897,-0.02071 -3.58375,-0.18549 -3.34389,-1.83804c0.44548,-3.06916 11.25241,-4.11418 11.71015,-3.31314z" fill="#a7649a" stroke="#000000" stroke-width="1" stroke-linecap="butt"/></g><g stroke="#000000" stroke-linecap="round"><path d="M252.79152,183.91668c0,0 1.77797,1.25752 2.70122,1.82735c1.91797,1.18373 3.73173,0.96026 3.73173,0.96026c0,0 -0.06714,1.51828 0.5155,3.17082c0.49653,1.40832 1.62163,2.66857 1.54419,3.2999c-0.16328,1.33106 -2.47589,2.06611 -4.53298,2.16198c-3.40422,0.15866 -4.60295,-1.12759 -4.60295,-1.12759c0,0 -0.12303,-3.93402 -0.0028,-5.75262c0.10692,-1.6172 0.6461,-4.54009 0.6461,-4.54009z" fill="#aa96c7" stroke-width="0"/><path d="M252.79152,183.91668c0,0 1.77797,1.25752 2.70122,1.82735c1.91797,1.18373 3.73173,0.96026 3.73173,0.96026c0,0 -0.04382,0.99079 0.24648,2.24277c-0.82894,-0.25009 -1.37266,0.05301 -3.1407,-0.41531c-2.50102,-0.66247 -3.47666,-2.02588 -3.91129,-2.37123c0.1784,-1.1913 0.37255,-2.24383 0.37255,-2.24383z" fill="#a7649a" stroke-width="0"/><path d="M255.49273,185.74402c1.91797,1.18373 3.73173,0.96026 3.73173,0.96026c0,0 -0.06714,1.51828 0.5155,3.17082c0.49653,1.40832 1.62163,2.66857 1.54419,3.2999c-0.16328,1.33106 -2.47589,2.06611 -4.53298,2.16198c-3.40422,0.15866 -4.60295,-1.12759 -4.60295,-1.12759c0,0 -0.12303,-3.93402 -0.0028,-5.75262c0.10692,-1.6172 0.6461,-4.54009 0.6461,-4.54009c0,0 1.77796,1.25752 2.70121,1.82735z" fill="none" stroke-width="1"/></g><g><path d="M250.73297,193.86628l3.4738,-2.61607l4.54595,2.70184l2.40164,-1.37236l2.61606,3.774c0,0 -5.35589,8.2865 -7.4958,8.63451c-1.97887,0.32182 -4.89836,-6.61886 -4.89836,-6.61886z" fill="#0045d8" stroke="#000000" stroke-width="0" stroke-linecap="round"/><path d="M256.7008,201.32498c1.97357,-1.65742 2.70693,-4.89361 5.38818,-5.8804c0.3998,-0.14713 1.26327,-0.17111 1.42679,0.36231c0.30378,0.99095 -5.77846,9.20631 -7.37912,9.14551c-1.39841,-0.05311 -3.39606,-3.06459 -4.21988,-5.17789c-0.48603,-1.24678 -0.20003,-2.06909 -0.12194,-2.08861c0.13625,-0.09627 1.56123,0.64404 1.64258,1.02069c1.36218,0.92807 3.09633,2.75869 3.2634,2.61838z" fill="#080f95" stroke="none" stroke-width="0.5" stroke-linecap="butt"/><path d="M250.73297,193.86628l3.4738,-2.61607l4.54595,2.70184l2.40164,-1.37236l2.61606,3.774c0,0 -5.35589,8.28651 -7.4958,8.63451c-1.97886,0.32182 -4.89836,-6.61886 -4.89836,-6.61886" fill="none" stroke="#000000" stroke-width="1" stroke-linecap="round"/></g></g><g stroke="#000000"><path d="M256.11748,184.59934c0,0 -3.32152,2.39954 -5.17833,-0.95599c-0.83093,-1.50162 3.49488,-5.67364 3.71291,-6.17985c0.53204,-1.23515 4.4245,0.26611 4.4245,0.26611c0,0 2.82204,-1.37087 3.86311,-1.03648c3.36947,1.08224 3.1319,4.94002 3.1319,4.94002c0,0 4.21751,0.97691 4.80118,2.10714c1.21154,2.346 2.11773,8.46578 1.80512,9.71843c-0.19757,0.79162 -3.63791,3.33703 -6.19585,3.2163c-2.12479,-0.1003 -3.46189,-2.8149 -3.46189,-2.8149c0,0 -2.11566,1.59573 -3.41806,1.47126c-1.23153,-0.1177 -3.81956,-2.34099 -3.81956,-2.34099c0,0 -0.95952,0.93065 -2.01494,1.20291c-1.58324,0.40841 -3.71659,-0.08389 -2.43977,-4.05353c0.58468,-1.81778 5.70875,-2.58174 5.70875,-2.58174z" fill="#aa96c7" stroke-width="0" stroke-linecap="round"/><path d="M256.11748,184.59934c0,0 -3.32152,2.39954 -5.17833,-0.95599c-0.40509,-0.73206 0.41542,-2.09881 1.38809,-3.36606c0.55267,1.6238 2.22238,2.35374 3.50344,2.05372c0.82426,-0.19304 1.27667,-1.01593 1.86794,-1.62559c0.00647,0.00158 0.01297,0.00314 0.01948,0.00464c0.20609,0.04758 0.41206,0.04677 0.606,0.00502c0.2971,0.05599 1.2334,-0.24556 1.28001,-0.32778c0.96444,-0.31271 1.40574,1.09631 2.40441,0.92142c1.04383,-0.18282 2.87483,-2.15473 2.7809,-3.45521c1.29178,1.40556 1.29438,3.38216 1.28433,3.72725c-1.90338,1.16207 -4.11515,5.86673 -3.51226,7.46297c0.36266,0.9602 2.66654,0.07297 3.00073,-0.28387c1.32482,-1.4146 2.61196,-3.11911 2.72889,-4.90427c0.20308,-0.18433 0.35395,-0.43033 0.4203,-0.71779c0.05708,-0.24722 0.04453,-0.49428 -0.02482,-0.72061c0.98573,0.3663 1.93164,0.8301 2.18623,1.32307c1.21154,2.346 2.11773,8.46578 1.80512,9.71843c-0.19757,0.79162 -3.63791,3.33703 -6.19585,3.2163c-0.6558,-0.03096 -1.23657,-0.31095 -1.72615,-0.68331c0.48002,-0.28676 0.93132,-0.64263 1.2698,-1.02366c1.05004,-1.18207 2.08998,-1.72604 0.65567,-1.91476c-0.17386,-0.16396 -4.38349,-1.29474 -4.38349,-1.29474c0,0 -0.01339,0.72537 -0.18654,1.47542c-0.09131,0.39555 -0.0044,0.79064 0.20815,1.10114c-0.7328,0.45934 -1.88941,1.0754 -2.71737,0.99626c-1.23153,-0.1177 -3.81956,-2.34099 -3.81956,-2.34099c0,0 -0.95952,0.93065 -2.01494,1.20291c-0.28155,0.07263 -0.58052,0.11677 -0.87459,0.11794c0.4279,-1.57902 0.71247,-3.37394 1.43984,-3.82535c1.48446,-0.92128 4.23236,2.80404 5.34665,0.87728c1.07773,-1.86349 0.18324,-5.0033 -1.56995,-4.968c-0.03665,-0.01171 -0.07409,-0.02201 -0.11225,-0.03082c-0.45478,-0.10499 -0.90895,0.02562 -1.23466,0.31192z" fill="#a7649a" stroke-width="0" stroke-linecap="butt"/><path d="M251.32783,190.13972c0.0669,-0.20799 0.19324,-0.40221 0.36454,-0.58304c-0.18771,0.3293 -0.35541,0.68972 -0.51002,1.07376c0.04246,-0.15734 0.09086,-0.32085 0.14551,-0.49074z" fill="#f89688" stroke-width="0" stroke-linecap="butt"/><path d="M256.28971,187.73068c-0.02947,-0.0068 -0.05878,-0.01339 -0.08793,-0.01978c0.03005,-0.00618 0.05947,-0.01216 0.08826,-0.01795c-0.00028,0.01259 -0.00039,0.02518 -0.00032,0.03774z" fill="#f89688" stroke-width="0" stroke-linecap="butt"/><path d="M256.11748,184.59934c0,0 -3.32152,2.39954 -5.17833,-0.95599c-0.83093,-1.50162 3.49488,-5.67364 3.71291,-6.17985c0.53204,-1.23515 4.4245,0.26611 4.4245,0.26611c0,0 2.82204,-1.37087 3.86311,-1.03648c3.36947,1.08224 3.1319,4.94002 3.1319,4.94002c0,0 4.21751,0.97691 4.80118,2.10714c1.21154,2.346 2.11773,8.46578 1.80512,9.71843c-0.19757,0.79162 -3.63791,3.33703 -6.19585,3.2163c-2.12479,-0.1003 -3.46189,-2.8149 -3.46189,-2.8149c0,0 -2.11566,1.59573 -3.41806,1.47126c-1.23153,-0.1177 -3.81956,-2.34099 -3.81956,-2.34099c0,0 -0.95952,0.93065 -2.01494,1.20291c-1.58324,0.40841 -3.71659,-0.08389 -2.43977,-4.05353c0.58468,-1.81778 5.70875,-2.58174 5.70875,-2.58174z" fill="none" stroke-width="1" stroke-linecap="round"/><path d="M258.40761,182.61038l-2.18149,2.01402" fill="none" stroke-width="1" stroke-linecap="round"/><path d="M263.33015,184.09005c0,0 -1.59905,0.456 -2.54796,0.07112c-1.59447,-0.64669 -2.90789,-2.35701 -3.06418,-3.02688c-0.24922,-1.06825 2.06896,-3.01184 2.06896,-3.01184" fill="none" stroke-width="1" stroke-linecap="round"/><path d="M268.86268,186.39717c0,0 -1.35569,3.79902 -2.55265,4.66258c-1.16386,0.83967 -4.35221,-0.8541 -4.4839,-1.42707c-0.37947,-1.65112 2.49868,-7.37287 2.49868,-7.37287l1.39577,-0.59329" fill="none" stroke-width="1" stroke-linecap="round"/><path d="M269.63987,187.49208l-1.2788,1.07803" fill="none" stroke-width="0.5" stroke-linecap="round"/></g><g stroke="#000000" stroke-linecap="butt"><path d="M261.24719,166.46568l2.05183,-1.13011c0,0 6.85341,6.01783 7.49668,8.21132c0.45159,1.53986 -2.65752,4.45589 -4.83388,2.91479c-2.89828,-2.0523 -4.71462,-9.99599 -4.71462,-9.99599z" fill="#0045d8" stroke-width="0"/><path d="M261.24722,166.4657l0.72821,-0.40109c0,0 1.26647,1.62611 2.38371,3.36314c0.86352,1.34257 1.47596,2.6427 2.35957,3.99023c1.05091,1.60266 2.1682,3.04788 2.09246,3.08747c-0.89878,0.46966 -1.95313,0.59087 -2.84935,-0.04373c-2.89829,-2.0523 -4.71462,-9.99601 -4.71462,-9.99601z" fill="#080f95" stroke-width="0"/><path d="M261.24722,166.4657l2.05182,-1.13011c0,0 6.85341,6.01783 7.49667,8.21133c0.45159,1.53987 -2.65751,4.45588 -4.83387,2.91478c-2.89829,-2.0523 -4.71462,-9.996 -4.71462,-9.996z" fill="none" stroke-width="1"/></g><g stroke="#000000" stroke-linecap="round"><path d="M227.37923,176.97707c0,0 -12.10766,-23.14825 10.45774,-26.42191c23.13721,-3.35661 22.33583,17.62308 22.33583,17.62308c0,0 5.24774,-5.86541 6.23387,-5.46876c0.83235,0.3348 0.37689,5.44846 -0.11746,7.4565c-0.36529,1.4838 -0.69422,4.61538 -2.02711,5.01718c-0.83895,0.25289 -4.83684,-1.96689 -4.83684,-1.96689c0,0 -6.68377,5.3276 -13.19642,7.76685c-6.43114,2.40872 -16.11674,2.93464 -16.11674,2.93464c0,0 -7.20466,0.35146 -7.77695,-2.05313c-0.48764,-2.0489 5.04407,-4.88761 5.04407,-4.88761z" fill="#aa96c7" stroke-width="0"/><path d="M255.6866,175.90795c-0.03111,0.02082 -1.60483,-1.86504 -1.60483,-1.86504l-2.75363,3.03829l-5.94361,-6.38398l-6.08712,5.34344l-1.978,-6.29417c0,0 -10.83131,5.26293 -10.84313,5.23407c-2.33091,-5.68803 -7.14576,-21.74062 11.36072,-24.42542c23.13721,-3.35661 22.33583,17.62307 22.33583,17.62307c0,0 5.8324,3.34584 5.79745,3.51511c-0.30717,1.48808 -0.74621,3.19986 -1.70815,3.48983c-0.83895,0.25289 -4.83683,-1.96688 -4.83683,-1.96688c0,0 -1.4857,1.18424 -3.73868,2.69169z" fill="#a7649a" stroke-width="0"/><path d="M260.79686,169.57787l2.8138,-1.87974l-0.35998,5.09557z" fill="#a7649a" stroke-width="0.5"/><path d="M237.83695,150.55515c23.13721,-3.35661 22.33583,17.62307 22.33583,17.62307c0,0 5.24775,-5.8654 6.23388,-5.46875c0.83235,0.3348 0.37689,5.44846 -0.11746,7.45649c-0.36529,1.4838 -0.69422,4.61539 -2.02711,5.01719c-0.83895,0.25289 -4.83684,-1.96689 -4.83684,-1.96689c0,0 -6.68378,5.3276 -13.19642,7.76685c-6.43114,2.40872 -16.11674,2.93464 -16.11674,2.93464c0,0 -7.20466,0.35147 -7.77695,-2.05312c-0.48764,-2.0489 5.04407,-4.88762 5.04407,-4.88762c0,0 -12.10765,-23.14824 10.45774,-26.42189z" fill="none" stroke-width="1"/></g><g stroke="#000000" stroke-linecap="round"><path d="M265.10257,160.06997c0,0 -1.3017,3.67577 -2.17494,5.23222c-0.75406,1.34403 -2.75956,3.56304 -2.75956,3.56304c0,0 -11.4741,-3.27111 -18.98802,-2.93144c-7.67496,0.34694 -17.27784,2.73545 -17.27784,2.73545c0,0 -6.46091,-17.05268 -3.33126,-20.27553c2.27885,-2.34672 9.44786,-5.38814 16.80861,-5.99913c3.35483,-0.27847 12.95988,-0.97429 16.52622,1.553c4.77982,3.38726 11.19681,16.12239 11.19681,16.12239z" fill="#ae1c51" stroke-width="0"/><path d="M265.10257,160.06997c0,0 -1.3017,3.67578 -2.17494,5.23222c-0.75406,1.34403 -2.75955,3.56304 -2.75955,3.56304c0,0 -5.5566,-1.58411 -11.46839,-2.43311c-0.15475,-0.02221 0.09684,-14.30294 2.11751,-20.24744c0.66913,-1.96846 2.2014,-2.86582 3.08858,-2.23711c4.77982,3.38727 11.19681,16.12239 11.19681,16.12239z" fill="#710c65" stroke-width="0.5"/><path d="M262.92762,165.3022c-0.75406,1.34403 -2.75955,3.56304 -2.75955,3.56304c0,0 -11.47411,-3.27111 -18.98803,-2.93143c-7.67496,0.34694 -17.27783,2.73545 -17.27783,2.73545c0,0 -6.46091,-17.05269 -3.33127,-20.27553c2.27886,-2.34672 9.44786,-5.38814 16.80861,-5.99913c3.35483,-0.27847 12.95989,-0.9743 16.52621,1.55299c4.77983,3.38727 11.1968,16.1224 11.1968,16.1224c0,0 -1.3017,3.67578 -2.17494,5.23222z" fill="none" stroke-width="1"/></g><g stroke="#000000" stroke-linecap="round"><path d="M225.62149,174.14176c0,0 -3.63698,1.58006 -5.25854,2.53162c-1.6464,0.96614 -4.5465,3.22214 -4.5465,3.22214c0,0 0.93024,-4.0782 1.69163,-5.97373c0.72309,-1.80015 2.76775,-5.12806 2.76775,-5.12806l-9.28752,2.26586c0,0 6.52839,-14.00208 9.80472,-16.13661c1.95404,-1.27305 10.65992,2.33984 10.65992,2.33984c0,0 0.79059,-2.8608 1.4429,-4.24321c0.594,-1.25884 2.31242,-3.71523 2.31242,-3.71523c0,0 2.54578,5.78055 4.07647,8.5274c1.59462,2.86155 5.30727,8.31188 5.30727,8.31188l15.25773,2.34309l-0.18094,6.82527l-6.68779,-5.1115l-1.96018,3.86796l-6.42879,-7.92481l-4.17091,4.8866l-1.97976,-4.80902c0,0 -10.39691,4.44914 -12.61686,6.06497c-0.60514,0.44046 -0.20297,1.85556 -0.20297,1.85556z" fill="#346def" stroke-width="0"/><path d="M227.11516,164.51189l-11.29868,15.38361c0,0 0.93023,-4.0782 1.69161,-5.97373c0.72308,-1.80014 2.76775,-5.12806 2.76775,-5.12806l-9.28751,2.26585c0,0 6.52838,-14.00207 9.80472,-16.13661c1.95401,-1.27305 10.65993,2.33983 10.65993,2.33983c0,0 0.79058,-2.86079 1.44289,-4.2432c0.594,-1.25884 2.31242,-3.71523 2.31242,-3.71523l-0.43995,12.10249c0,0 -9.64285,-2.80355 -11.75535,-2.11206c-3.31546,1.08524 -6.88593,8.80053 -6.88593,8.80053z" fill="#45afff" stroke-width="0"/><path d="M250.0845,168.56089l0.02385,4.38273l-3.89532,-4.80178z" fill="#66ffff" stroke-width="0"/><path d="M215.81649,179.89551c0,0 0.93024,-4.0782 1.69162,-5.97373c0.72308,-1.80014 2.76775,-5.12806 2.76775,-5.12806l-9.28751,2.26585c0,0 6.52838,-14.00207 9.80472,-16.13661c1.95401,-1.27305 10.65993,2.33983 10.65993,2.33983c0,0 0.79058,-2.8608 1.44289,-4.2432c0.594,-1.25884 2.31242,-3.71523 2.31242,-3.71523c0,0 2.54577,5.78055 4.07646,8.5274c1.59461,2.86155 5.30727,8.31188 5.30727,8.31188l15.25773,2.34309l-0.18093,6.82526l-6.68779,-5.11148l-1.96019,3.86796l-6.4288,-7.92481l-4.17092,4.8866l-1.97976,-4.80902c0,0 -10.39691,4.44915 -12.61686,6.06498c-0.60514,0.44046 -0.20297,1.85556 -0.20297,1.85556c0,0 -3.63696,1.58006 -5.25853,2.53162c-1.62157,0.95156 -4.5465,3.22212 -4.5465,3.22212z" fill="none" stroke-width="1"/></g><path d="M245.49808,148.81793c-0.17164,-0.24061 -0.35628,-0.50016 -0.54922,-0.80516c0,0 -0.2976,-0.47143 0.17385,-0.76905c0.47144,-0.29761 0.76905,0.17383 0.76905,0.17383c1.02987,1.63511 2.07993,2.78248 1.8736,4.89817c-0.0699,0.71678 -0.31349,2.17003 -1.46064,1.94868c-1.36729,-0.26381 -1.74033,-3.93157 -1.49635,-4.8763c0.26422,-0.28999 0.49231,-0.47323 0.68971,-0.57018z" fill="url(#color-1)" stroke="none" stroke-width="0.5" stroke-linecap="butt"/><path d="M247.31375,149.88045c0.55168,-0.08048 0.63217,0.4712 0.63217,0.4712l0.08977,0.62289c0.0079,0.38561 0.03778,0.77168 0.0942,1.15322c0.31915,2.18769 -1.99297,4.16936 -3.011,1.44126c-0.73982,-1.98254 -0.06834,-4.42026 -0.65906,-6.54532c0,0 -0.14829,-0.53744 0.38915,-0.68572c0.53744,-0.14829 0.68571,0.38915 0.68571,0.38915c0.59186,2.15939 0.0438,4.42917 0.64112,6.48667c0.4301,1.48149 0.96321,-0.1538 0.85069,-0.92505c-0.05831,-0.4046 -0.09369,-0.81339 -0.10207,-1.22209l-0.08192,-0.55402c0,0 -0.08048,-0.55168 0.4712,-0.63216z" fill="#000000" stroke="none" stroke-width="0.5" stroke-linecap="butt"/><path d="M237.68544,145.79137c-0.17164,-0.24061 -0.35627,-0.50016 -0.54921,-0.80516c0,0 -0.2976,-0.47144 0.17385,-0.76905c0.47144,-0.29761 0.76904,0.17383 0.76904,0.17383c1.02987,1.63511 2.07994,2.78248 1.8736,4.89817c-0.0699,0.71678 -0.31349,2.17002 -1.46064,1.94867c-1.36729,-0.26381 -1.74033,-3.93156 -1.49635,-4.87629c0.26422,-0.28999 0.49231,-0.47323 0.68971,-0.57018z" fill="url(#color-2)" stroke="none" stroke-width="0.5" stroke-linecap="butt"/><path d="M239.50114,146.85388c0.55168,-0.08048 0.63216,0.4712 0.63216,0.4712l0.08978,0.62289c0.0079,0.38561 0.03778,0.77168 0.0942,1.15322c0.31915,2.18769 -1.99298,4.16936 -3.01101,1.44126c-0.73982,-1.98254 -0.06834,-4.42026 -0.65905,-6.54532c0,0 -0.1483,-0.53744 0.38914,-0.68572c0.53744,-0.14829 0.68572,0.38915 0.68572,0.38915c0.59186,2.15939 0.0438,4.42917 0.64112,6.48667c0.4301,1.48149 0.9632,-0.1538 0.85069,-0.92505c-0.05831,-0.4046 -0.09369,-0.81339 -0.10207,-1.22209l-0.08191,-0.55401c0,0 -0.08049,-0.55169 0.47119,-0.63217z" fill="#000000" stroke="none" stroke-width="0.5" stroke-linecap="butt"/><path d="M255.7146,160.95746c-0.17164,-0.24061 -0.35628,-0.50016 -0.54922,-0.80516c0,0 -0.2976,-0.47144 0.17385,-0.76905c0.47144,-0.29761 0.76905,0.17384 0.76905,0.17384c1.02986,1.63511 2.07993,2.78248 1.8736,4.89817c-0.0699,0.71678 -0.31349,2.17002 -1.46064,1.94867c-1.36729,-0.26381 -1.74033,-3.93156 -1.49635,-4.87629c0.26422,-0.28999 0.49231,-0.47323 0.68971,-0.57018z" fill="url(#color-3)" stroke="none" stroke-width="0.5" stroke-linecap="butt"/><path d="M257.53032,162.01997c0.55168,-0.08048 0.63216,0.4712 0.63216,0.4712l0.08978,0.62289c0.0079,0.38561 0.03778,0.77168 0.0942,1.15322c0.31915,2.18769 -1.99297,4.16936 -3.011,1.44126c-0.73982,-1.98254 -0.06835,-4.42026 -0.65906,-6.54532c0,0 -0.14829,-0.53744 0.38915,-0.68572c0.53744,-0.14829 0.68571,0.38915 0.68571,0.38915c0.59186,2.15939 0.0438,4.42917 0.64112,6.48667c0.43011,1.48149 0.96321,-0.1538 0.85069,-0.92505c-0.05831,-0.4046 -0.09369,-0.8134 -0.10207,-1.2221l-0.08192,-0.55401c0,0 -0.08048,-0.55168 0.4712,-0.63216z" fill="#000000" stroke="none" stroke-width="0.5" stroke-linecap="butt"/><path d="M228.7397,178.32735c-0.07316,-0.13967 -0.10618,-0.33804 0.06377,-0.56605c0.04341,-0.05823 0.08876,-0.10325 0.1348,-0.13747c-0.11688,-0.12454 -0.24876,-0.35487 -0.0605,-0.66203c0.29135,-0.47534 0.7667,-0.184 0.7667,-0.184c0.75356,0.47969 2.30476,2.28625 1.42465,3.32783c-1.41129,1.67023 -2.38546,-0.52898 -2.32941,-1.7783z" fill="url(#color-4)" stroke="none" stroke-width="0.5" stroke-linecap="butt"/><path d="M231.40823,179.41436c0.50367,0.23906 0.26461,0.74274 0.26461,0.74274l-0.41482,0.70266c-2.99466,1.96018 -2.97987,-2.47129 -2.59845,-4.22911c0,0 0.11835,-0.54481 0.66316,-0.42646c0.54481,0.11836 0.42647,0.66317 0.42647,0.66317c-0.15033,0.69127 -0.69533,4.28345 0.8714,3.0775l0.04488,-0.26587c0,0 0.23906,-0.50367 0.74273,-0.26462z" fill="#000000" stroke="none" stroke-width="0.5" stroke-linecap="butt"/><g fill="none" stroke="#000000" stroke-width="1" stroke-linecap="round"><path d="M255.20031,157.50766v-11.04544"/><path d="M257.31392,142.91676v18.81816"/><path d="M259.59017,160.23494v-16.22724"/><path d="M261.70378,157.64403v-12.54544"/><path d="M263.65481,155.46227v-8.31817"/></g><path d="M176.1667,243.83339v-127.66667h127.66667v127.66667z" fill="none" stroke="none" stroke-width="NaN" stroke-linecap="butt"/><g stroke-linecap="butt"><path d="M243.13058,172.63931c-1.51476,-2.53833 -0.68498,-5.824 1.85335,-7.33876c2.53833,-1.51475 5.824,-0.68499 7.33876,1.85335c1.51476,2.53833 0.68499,5.824 -1.85335,7.33876c-2.53833,1.51475 -5.824,0.68499 -7.33876,-1.85335z" fill="#ab9efa" stroke="none" stroke-width="0"/><path d="M237.8006,167.76933c1.4306,2.39731 0.6898,5.47486 -1.65463,6.87391c-2.34443,1.39904 -5.4047,0.58979 -6.83529,-1.80752c-1.4306,-2.39731 -0.6898,-5.47486 1.65463,-6.87391c2.34443,-1.39904 5.4047,-0.58979 6.83529,1.80752z" fill="#ab9efa" stroke="none" stroke-width="NaN"/><path d="M231.16126,168.32576c-0.41192,2.80072 1.83578,6.82172 4.5308,4.13859c3.57992,-3.29087 -1.42329,-8.37932 -4.48451,-4.278c-0.01531,0.04641 -0.03076,0.09288 -0.04628,0.13942zM238.84937,169.83348c0.04234,0.11255 0.08247,0.22413 0.12035,0.33443c-0.00412,0.44571 0.03075,0.88547 0.06242,1.3189c0.07705,0.04583 0.14414,0.11094 0.19331,0.19333c0.10817,0.18127 0.10156,0.39912 0.0015,0.56905l-0.14646,0.25962c-0.00008,0.80572 -0.1332,1.58753 -0.69037,2.34295c-2.06346,2.79763 -6.9064,2.73782 -8.85018,0.17391c-2.91205,-3.74673 -0.74773,-10.57521 3.59172,-11.80127c3.46931,0.4839 5.83183,3.4891 5.71772,6.60903zM233.68771,174.49296c-1.46277,-0.14227 -2.66362,-1.52792 -3.25912,-3.21732c-0.03393,0.65698 0.06504,1.31954 0.39528,1.98359c0.12397,0.21215 0.2629,0.40904 0.41602,0.58887c0.6051,0.60139 1.53198,0.77062 2.44782,0.64487z" fill="#000000" stroke="none" stroke-width="0.5"/><path d="M244.78353,164.78973c4.35144,-3.42143 10.08454,2.0743 9.26781,6.81252c-1.06279,3.15165 -5.06227,5.54244 -8.36358,4.42355c-0.51285,-0.17381 -0.91304,-0.518 -1.25858,-0.93486l-0.15174,-0.11014l0.02291,-0.03157l-0.08552,-0.02131c-0.42663,-0.55348 -1.51308,-1.84645 -1.71959,-2.81983c-0.1015,-0.24813 -0.18375,-0.50407 -0.24357,-0.7638l-0.16929,-0.56104c-0.05745,-0.17636 -0.02224,-0.36914 0.08923,-0.51336c-0.47522,-2.25099 1.29906,-3.83657 2.61191,-5.48015zM245.76471,173.65093c0.1896,0.62695 0.50203,1.10902 1.43626,0.96493c0.06593,-0.0199 0.13115,-0.04012 0.19565,-0.06067c-0.24062,-0.03923 -0.49156,-0.10331 -0.7524,-0.19466c-0.3266,-0.20756 -0.61936,-0.4462 -0.87952,-0.7096zM250.80217,172.53302c1.39443,-1.66196 1.05231,-3.90966 -1.18184,-6.41247c-4.5722,-2.9101 -5.91858,5.02275 -2.48751,7.23769c3.45801,1.22287 4.20062,-5.14402 0.14918,-5.81975c0,0 -0.54943,-0.09466 -0.45478,-0.64409c0.09466,-0.54943 0.64408,-0.45477 0.64408,-0.45477c3.3095,0.58536 4.20774,3.87302 3.33088,6.09337zM244.46338,171.49249c-0.54593,-1.63023 -0.42478,-3.48463 0.23221,-4.88842c-1.10053,1.28364 -2.19272,2.78494 -0.98159,4.48242c0.22278,0.31224 0.47957,0.3414 0.74939,0.40601z" fill="#000000" stroke="none" stroke-width="0.5"/><path d="M230.89265,181.86199c-0.01323,-0.01164 -0.02644,-0.02408 -0.03967,-0.03737c-0.41443,-0.41641 0.00197,-0.83085 0.00197,-0.83085c3.0087,-2.97563 7.68534,-2.90566 11.66483,-3.01115c2.24137,-0.69115 4.60322,-0.11174 6.73916,-0.66924c0.49109,-0.12817 2.35537,-0.79032 2.69624,-0.14236c0.75037,1.42634 -1.75932,2.09739 -3.63559,2.39269l-0.57745,0.24796c-0.64175,0.09146 -1.28629,0.13476 -1.93156,0.14939c-1.92964,0.38708 -4.00199,0.05699 -5.91588,0.51055c-0.97497,0.23105 -1.93432,0.5767 -2.89178,0.95412c-0.44492,0.25838 -1.02675,0.48501 -1.64038,0.66204c-0.93891,0.37833 -1.88354,0.74184 -2.84669,1.013c-1.35362,-0.24163 -1.74105,-0.70964 -1.62318,-1.23881z" fill="#ad5893" stroke="#000000" stroke-width="1"/></g><g><path d="M243.58941,190.2103c-0.07464,-4.46409 4.36635,-7.75992 8.83042,-7.83456c4.46407,-0.07464 6.85996,2.94756 6.93461,7.41166c0.07464,4.46407 -3.48372,8.14345 -7.94779,8.21809c-4.46409,0.07464 -7.74261,-3.33109 -7.81725,-7.79518z" fill="#465e85" stroke="#000000" stroke-width="0" stroke-linecap="butt"/><path d="M259.35444,189.78739c0.07464,4.46407 -3.48371,8.14345 -7.94779,8.21809c-4.46409,0.07464 -7.7426,-3.33109 -7.81724,-7.79519c-0.03835,-2.29393 1.11566,-4.27937 2.85247,-5.67777c0.89303,1.31853 2.1865,2.89473 3.45947,4.19621c0.26123,0.45278 0.54808,0.87769 0.85521,1.26068c0.07664,1.49307 1.32398,2.66777 2.83049,2.64258c0.61545,-0.01029 1.18098,-0.21928 1.63648,-0.56481c1.29545,-0.64998 2.9123,-1.79345 4.09049,-3.09121c0.02232,0.26469 0.03581,0.53531 0.04044,0.81143z" fill="#313243" stroke="#000000" stroke-width="0" stroke-linecap="butt"/><path d="M224.15541,195.11553l-0.12117,-7.24678l19.43091,-0.32489l0.12117,7.24678z" fill="#313243" stroke="#000000" stroke-width="1" stroke-linecap="butt"/><path d="M250.05075,183.6102c-0.00772,-0.4618 0.36038,-0.84242 0.82218,-0.85014c0.4618,-0.00772 0.84242,0.36038 0.85014,0.82218c0.00772,0.4618 -0.36038,0.84242 -0.82218,0.85014c-0.4618,0.00772 -0.84242,-0.36038 -0.85014,-0.82218z" fill="#8bb5bc" stroke="none" stroke-width="0.5" stroke-linecap="butt"/><path d="M253.641,183.94846c-0.00772,-0.4618 0.36038,-0.84242 0.82218,-0.85014c0.4618,-0.00772 0.84242,0.36038 0.85014,0.82218c0.00772,0.4618 -0.36038,0.84242 -0.82218,0.85014c-0.4618,0.00772 -0.84242,-0.36038 -0.85014,-0.82218z" fill="#8bb5bc" stroke="none" stroke-width="0.5" stroke-linecap="butt"/><path d="M252.41983,182.37573c4.46409,-0.07464 6.85996,2.94756 6.93461,7.41166c0.07464,4.46407 -3.48371,8.14345 -7.94779,8.21809c-4.46407,0.07464 -7.7426,-3.33109 -7.81724,-7.79519c-0.07464,-4.46407 4.36634,-7.75992 8.83042,-7.83456z" fill="none" stroke="#000000" stroke-width="1" stroke-linecap="butt"/><path d="M246.65453,187.72951c0,0 3.67401,-1.80437 6.41868,-1.94249c2.34523,-0.11802 6.00169,1.5755 6.00169,1.5755" fill="none" stroke="#000000" stroke-width="1" stroke-linecap="round"/><path d="M247.74172,190.81794l11.38779,-0.1904" fill="none" stroke="#000000" stroke-width="1" stroke-linecap="round"/><path d="M257.83164,193.99485c0,0 -3.24249,1.28348 -5.93686,1.2305c-2.34625,-0.04613 -4.9148,-2.32358 -4.9148,-2.32358" fill="none" stroke="#000000" stroke-width="1" stroke-linecap="round"/><path d="M247.70419,183.80873c0,0 2.95884,2.72312 2.98855,4.79923c0.07983,5.5763 -3.81608,7.64113 -3.81608,7.64113" fill="none" stroke="#000000" stroke-width="1" stroke-linecap="round"/><path d="M251.67127,182.86619c0,0 3.13165,3.03656 3.11826,5.5891c-0.03308,6.29817 -3.74924,9.07837 -3.74924,9.07837" fill="none" stroke="#000000" stroke-width="1" stroke-linecap="round"/><path d="M254.77707,182.81425c0,0 2.65788,2.82584 2.86976,6.64568c0.26717,4.81688 -1.5325,6.6347 -1.5325,6.6347" fill="none" stroke="#000000" stroke-width="1" stroke-linecap="round"/><path d="M226.16668,191.53714c0.03419,2.04512 -0.86508,3.71852 -2.00859,3.73764c-1.14351,0.01912 -2.09822,-1.62328 -2.13241,-3.66841c-0.03419,-2.04512 0.86508,-3.71852 2.00859,-3.73764c1.14351,-0.01912 2.09822,1.62328 2.13241,3.66841z" fill="#465e85" stroke="#000000" stroke-width="1" stroke-linecap="butt"/><path d="M228.4557,195.04363c0,0 2.68132,-4.37208 0.98,-5.79944c-1.75484,-1.47227 -6.2021,-0.80935 -8.7722,-1.51359c-2.28092,-0.625 -2.8353,-2.66931 -2.43749,-3.10121c9.61349,-10.4372 17.80116,1.12708 17.80116,1.12708c0,0 4.52422,-2.34243 9.84747,0.18414c0.96536,0.45819 1.65712,3.04293 1.17439,5.37047c-0.37518,1.80901 -1.86868,3.53256 -1.86868,3.53256c0,0 0.11522,3.23453 -1.22774,3.49346c-1.16369,0.22435 -4.86686,-1.16116 -4.86686,-1.16116c0,0 -1.95985,0.38603 -2.75622,0.23223c-0.71272,-0.13764 -1.79895,-1.11195 -1.79895,-1.11195c0,0 -2.19622,1.31083 -4.50434,1.19831c-1.00698,-0.04909 -1.57054,-2.4509 -1.57054,-2.4509z" fill="#a7649a" stroke="#000000" stroke-width="0" stroke-linecap="round"/><path d="M229.43569,189.24419c-1.73526,-1.45584 -6.10323,-0.82388 -8.68551,-1.49054c1.80414,-1.15028 3.21186,-2.32399 4.82613,-2.5935c1.36656,-0.22816 4.77719,-0.81572 8.48876,-1.55935c1.25026,1.15031 1.96207,2.15565 1.96207,2.15565c0,0 4.52422,-2.34243 9.84747,0.18414c0.96536,0.45819 1.65712,3.04293 1.17439,5.37047c-0.1778,0.8573 -0.60677,1.69542 -1.00892,2.34c-0.48996,-0.17824 0.35402,-3.01203 0.35402,-3.01203c0,0 -1.0714,1.05861 -2.25252,1.72942c-0.80743,0.45857 -1.75311,0.61009 -2.09896,0.61586c-0.30341,0.00508 -1.21128,-0.94474 -1.45997,-1.64887c-0.25934,-0.73426 0.14184,-1.23524 -0.11098,-1.79548c-0.25006,-0.55411 -0.7979,-0.24813 -0.7979,-0.24813c0,0 -2.40884,4.79557 -3.32636,5.36632c-0.58173,-0.32461 -1.19531,-0.59856 -1.83468,-0.81599c-0.66168,-0.22501 -0.52972,-4.17675 -0.52972,-4.17675c0,0 -2.66449,3.57787 -3.24721,3.58762c-0.48338,0.00808 -0.95907,0.0468 -1.42523,0.11429c0.60093,-1.39199 1.13475,-3.2761 0.12513,-4.12316z" fill="#aa96c7" stroke="#000000" stroke-width="0" stroke-linecap="round"/><path d="M228.4557,195.04363c0,0 2.68132,-4.37208 0.98001,-5.79945c-1.75483,-1.47227 -6.20211,-0.80934 -8.77221,-1.5136c-2.28092,-0.625 -2.8353,-2.66931 -2.43748,-3.10122c9.61349,-10.4372 17.80116,1.12708 17.80116,1.12708c0,0 4.52422,-2.34243 9.84747,0.18414c0.96536,0.45819 1.65712,3.04292 1.17439,5.37046c-0.37518,1.80901 -1.86868,3.53257 -1.86868,3.53257c0,0 0.11522,3.23453 -1.22773,3.49346c-1.16369,0.22436 -4.86687,-1.16116 -4.86687,-1.16116c0,0 -1.95985,0.38603 -2.75622,0.23223c-0.71272,-0.13764 -1.79895,-1.11195 -1.79895,-1.11195c0,0 -2.19622,1.31084 -4.50436,1.1983c-1.00698,-0.04909 -1.57054,-2.4509 -1.57054,-2.4509z" fill="none" stroke="#000000" stroke-width="1" stroke-linecap="round"/><path d="M222.81843,186.61457l0.10095,1.27283" fill="none" stroke="#000000" stroke-width="1" stroke-linecap="round"/><path d="M231.77856,184.15469l1.34049,-0.81898" fill="none" stroke="#000000" stroke-width="1" stroke-linecap="round"/><path d="M234.52661,196.05732l0.29565,-6.13854l0.93964,-0.9716" fill="none" stroke="#000000" stroke-width="1" stroke-linecap="round"/><path d="M238.76722,197.18127l1.80098,-1.86223c0,0 1.8578,0.14467 2.71538,0.00133c0.69806,-0.11667 2.05074,-0.79795 2.05074,-0.79795" fill="none" stroke="#000000" stroke-width="1" stroke-linecap="round"/><path d="M242.28422,193.13961c0,0 -1.83004,-1.2674 -1.95493,-2.3453c-0.08738,-0.75423 1.24196,-2.18324 1.24196,-2.18324" fill="none" stroke="#000000" stroke-width="1" stroke-linecap="round"/><path d="M240.56554,195.15978l0.34225,-3.35132" fill="none" stroke="#000000" stroke-width="1" stroke-linecap="round"/></g></g></g></svg>