<svg version="1.1" xmlns="http://www.w3.org/2000/svg" xmlns:xlink="http://www.w3.org/1999/xlink" width="350" height="350" viewBox="0,0,350,350"><defs><linearGradient x1="-835.01851" y1="-895.01851" x2="663.06255" y2="603.06255" gradientUnits="userSpaceOnUse" id="color-1"><stop offset="0" stop-color="#007808"/><stop offset="1" stop-color="#007808" stop-opacity="0"/></linearGradient></defs><g transform="translate(-65,-5)"><g data-paper-data="{&quot;isPaintingLayer&quot;:true}" fill-rule="nonzero" stroke-linecap="butt" stroke-linejoin="miter" stroke-miterlimit="10" stroke-dasharray="" stroke-dashoffset="0" style="mix-blend-mode: normal"><path d="M415,5c0,0 0,37.75759 0,68.25c0,61.95443 0,281.75 0,281.75h-350v-350z" data-paper-data="{&quot;index&quot;:null}" fill-opacity="0.01569" fill="#ffffff" stroke="none" stroke-width="0"/><path d="M242.43096,325.17002l-147.60098,-147.60098l142.73906,-142.73906l147.60098,147.60098z" data-paper-data="{&quot;index&quot;:null}" fill="url(#color-1)" stroke="none" stroke-width="0"/><path d="M95.75022,180l144.24978,-144.24978l144.24978,144.24978l-144.24978,144.24978z" data-paper-data="{&quot;index&quot;:null}" fill="none" stroke="#000000" stroke-width="14.5"/><path d="M299,130v52h-138v-52z" data-paper-data="{&quot;index&quot;:null}" fill="#000000" stroke="none" stroke-width="0"/><path d="M197.49635,200.36506l0.15062,2.78644c0.44979,8.32119 0.89959,16.64237 1.34938,24.96356c0,0 0.13494,2.49635 -2.36142,2.63129c-2.49635,0.13494 -2.63129,-2.36142 -2.63129,-2.36142c-0.44979,-8.32119 -1.05021,-19.42881 -1.5,-27.75c0,0 -0.13494,-2.49635 2.36142,-2.63129c2.49635,-0.13494 2.63129,2.36142 2.63129,2.36142z" data-paper-data="{&quot;index&quot;:null}" fill="#000000" stroke="none" stroke-width="0.5"/><path d="M209.75,210.99999c0,2.5 -2.5,2.5 -2.5,2.5l-2.22043,-0.47816c-1.0987,-0.84805 -2.50835,-1.40143 -3.2961,-2.54414c-0.9452,-1.3711 -1.13916,-3.12983 -1.69704,-4.69893c-1.04131,-2.92879 -2.10834,-5.8497 -3.26308,-8.73565c-0.40631,-1.01544 -1.42028,-2.93495 -1.87579,-4.76994c-0.46341,0.8195 -1.01133,1.60773 -1.39171,2.46428c-1.80711,4.06927 -2.83028,8.1436 -5.50585,11.76255c0,0 -1.5,2 -3.5,0.5c-2,-1.5 -0.5,-3.5 -0.5,-3.5c3.51615,-4.60309 3.82446,-10.87616 7.33161,-15.50006c1.04366,-1.37599 2.17,-3.98988 3.8246,-3.49506c2.35394,0.70396 3.11804,3.82305 4.36032,5.9428c2.29979,3.92424 3.83542,9.40171 5.25054,13.71213c0.36473,1.11096 0.35209,2.38875 0.99946,3.36249c0.48745,0.7332 1.46927,0.97057 2.2039,1.45586l-0.72043,-0.47816c0,0 2.5,0 2.5,2.5z" data-paper-data="{&quot;index&quot;:null}" fill="#000000" stroke="none" stroke-width="0.5"/><path d="M249.1899,202.5193c2.48069,-0.31008 2.79078,2.17061 2.79078,2.17061l0.22076,1.8198c1.48965,7.62054 0.79724,16.23068 0.79855,23.99029c0,0 0,2.5 -2.5,2.5c-2.5,0 -2.5,-2.5 -2.5,-2.5c0.00129,-7.38614 0.7862,-15.77054 -0.70145,-23.00971l-0.27924,-2.1802c0,0 -0.31008,-2.48069 2.17061,-2.79078z" data-paper-data="{&quot;index&quot;:null}" fill="#000000" stroke="none" stroke-width="0.5"/><path d="M269.92537,209.35634c-0.60634,2.42536 -3.0317,1.81902 -3.0317,1.81902l-1.54684,-0.45721c-4.42747,-2.37242 -7.08334,-5.87998 -9.67001,-10.16891c-0.87723,-1.45454 -1.60921,-2.99189 -2.40698,-4.49148c-0.65733,-1.23561 -1.2491,-2.5075 -1.95829,-3.7141c-0.14767,-0.25124 -0.34515,-0.77997 -0.59899,-0.63683c-0.44583,0.2514 -0.37797,0.96809 -0.69751,1.36791c-2.9258,3.66092 -5.99353,7.04515 -8.73071,10.87835c0,0 -1.4531,2.03434 -3.48743,0.58124c-2.03434,-1.4531 -0.58124,-3.48743 -0.58124,-3.48743c2.82682,-3.95639 5.64906,-7.99662 9.15725,-11.39778c1.06535,-1.03285 1.94118,-2.68006 3.41454,-2.85596c4.78169,-0.57088 6.14318,3.81583 7.86329,6.8547c2.67588,4.72742 4.92662,10.10462 10.00243,12.63399l0.45316,0.04279c0,0 2.42536,0.60634 1.81902,3.0317z" data-paper-data="{&quot;index&quot;:null}" fill="#000000" stroke="none" stroke-width="0.5"/></g></g></svg>