<svg version="1.1" xmlns="http://www.w3.org/2000/svg" xmlns:xlink="http://www.w3.org/1999/xlink" width="226.89715" height="208" viewBox="0,0,226.89715,208"><defs><radialGradient cx="199.68293" cy="209.29735" r="45.51224" gradientUnits="userSpaceOnUse" id="color-1"><stop offset="0" stop-color="#8f8256"/><stop offset="1" stop-color="#8d681f"/></radialGradient><radialGradient cx="193.92257" cy="212.8348" r="19.38484" gradientUnits="userSpaceOnUse" id="color-2"><stop offset="0" stop-color="#0c0b0b"/><stop offset="1" stop-color="#533907"/></radialGradient><radialGradient cx="213.75283" cy="234.14966" r="16.20378" gradientUnits="userSpaceOnUse" id="color-3"><stop offset="0" stop-color="#36270c"/><stop offset="1" stop-color="#0c0b0b"/></radialGradient><radialGradient cx="183.77011" cy="185.75172" r="16.20378" gradientUnits="userSpaceOnUse" id="color-4"><stop offset="0" stop-color="#36270c"/><stop offset="1" stop-color="#0c0b0b"/></radialGradient></defs><g transform="translate(-152.1554,-76)"><g data-paper-data="{&quot;isPaintingLayer&quot;:true}" fill-rule="nonzero" stroke-linejoin="miter" stroke-miterlimit="10" stroke-dasharray="" stroke-dashoffset="0" style="mix-blend-mode: normal"><g data-paper-data="{&quot;index&quot;:null}"><path d="M289.90112,193.17891c-0.2422,3.45513 -15.90121,12.64844 -18.4028,12.06837c-2.71885,-0.63043 -9.02705,-15.47391 -9.02705,-15.47391l3.04056,-2.45012l-19.80801,16.56236c0,0 -6.54186,6.05264 -7.97803,4.04065c0,0 -10.88109,-5.81626 -19.3464,-24.43285c3.59419,-4.31801 15.17571,-10.79153 15.17571,-10.79153c0,0 25.02528,-15.52242 29.81761,-13.41371c4.79229,2.10867 26.75569,30.64843 26.52839,33.89072z" fill="#68330c" stroke="none" stroke-width="3" stroke-linecap="round"/><path d="M245.58698,204.20143c0,0 -7.19823,5.15712 -8.58181,3.15873c0,0 -10.61915,-5.86743 -18.67686,-24.29354c1.93874,-2.26272 6.16783,-5.10993 9.65604,-7.25466c0.31164,0.44479 0.60349,0.84216 0.8462,1.16775c5.37947,7.21678 13.61137,16.64604 19.16518,24.68809c0.05504,0.0797 -2.40877,2.53367 -2.40877,2.53367z" fill="#ffddb7" stroke="#000000" stroke-width="2" stroke-linecap="butt"/><path d="M246.65869,202.13442l-19.1109,-25.85481l3.28002,-2.02435l19.14397,25.40706z" data-paper-data="{&quot;index&quot;:null}" fill="#ffffff" stroke="#000000" stroke-width="2" stroke-linecap="round"/><path d="M289.63803,193.16825c-0.2422,3.45513 -15.90118,12.64842 -18.40277,12.06835c-2.71884,-0.63043 -9.02703,-15.47389 -9.02703,-15.47389l3.04054,-2.45013l-19.80799,16.56238c0,0 -6.54184,6.05265 -7.97799,4.04066c0,0 -10.8811,-5.81626 -19.34641,-24.43285c3.59419,-4.31803 15.1757,-10.79157 15.1757,-10.79157c0,0 25.02529,-15.5224 29.81761,-13.41369c4.79227,2.10866 26.75567,30.64843 26.52838,33.89072z" data-paper-data="{&quot;origPos&quot;:null}" fill="none" stroke="#000000" stroke-width="2.5" stroke-linecap="round"/></g><path d="M288.56898,222.85407c0,0 -0.45406,-5.30841 1.31949,-5.398c5.23346,-0.26439 10.17866,-2.39657 15.1732,-0.86651c2.074,0.63537 3.19149,5.27014 3.19149,5.27014l7.41117,36.03184c0,0 0.81556,3.71093 1.2062,5.859c0.41764,2.29666 -0.55132,5.84792 -2.95549,6.10104c-8.82743,0.9294 -14.14885,3.07635 -19.80048,2.30045c-2.05896,-0.28267 -4.22489,-0.713 -5.17039,-2.49893c-1.23514,-2.33291 -0.78789,-7.28669 -0.78789,-7.28669z" data-paper-data="{&quot;index&quot;:null}" fill="#000000" stroke="#000000" stroke-width="3" stroke-linecap="round"/><g data-paper-data="{&quot;index&quot;:null}" stroke-linecap="round"><path d="M269.70973,174.28108c0,0 7.52886,-14.0044 10.02222,-13.77385c7.48009,0.69162 22.80005,7.06033 33.27572,10.6818c1.61942,0.55984 -2.12219,14.86389 -2.12219,14.86389l-9.74659,31.93023c0,0 -5.42342,15.36449 -7.19006,14.75376c-15.72631,-5.43664 -34.48243,-10.93803 -41.1726,-14.22003c-2.23004,-1.09398 4.63192,-16.88295 4.63192,-16.88295z" data-paper-data="{&quot;origPos&quot;:null}" fill="#68330c" stroke="#000000" stroke-width="3.5"/><path d="M262.15255,210.03395c2.15003,4.99853 0.41288,2.10501 3.67067,6.51146c2.49778,3.37849 10.051,7.63564 10.051,7.63564c0,0 -6.68564,-2.10728 -13.01117,-4.42117c-2.76392,-1.01104 -7.23103,-3.31309 -7.23103,-3.31309c0,0 0.18925,-3.877 1.10572,-6.34119c2.51481,-6.76178 6.5205,-15.28688 6.5205,-15.28688c0,0 -2.58085,11.78556 -1.10564,15.21522z" data-paper-data="{&quot;origPos&quot;:null}" fill="#55250c" stroke="#55250c" stroke-width="2"/></g><g data-paper-data="{&quot;index&quot;:null}" stroke-linecap="butt"><path d="M239.04257,210.89084c0,0 -5.88332,3.97497 -7.88077,0.73514c-0.61622,-0.9995 -5.10758,-5.04005 -4.89344,-8.28249c0.10555,-1.59851 5.46286,0.53348 7.77976,-3.92095c0.49106,-0.94404 -7.65141,-15.85349 -10.4695,-14.23196c-10.14711,5.83859 -8.03943,-0.50156 -8.5922,-1.00626c-7.29293,-6.65857 2.09332,-8.9168 2.09332,-8.9168l7.24494,-4.15191l21.96285,35.62335z" fill="#8c651a" stroke="#000000" stroke-width="2.5"/><g stroke="#000000"><path d="M157.22478,182.59612l45.06266,-25.82451l46.50955,75.43773l-45.06263,25.8245z" fill="#121010" stroke-width="3"/><path d="M153.89683,184.49074l45.06263,-25.8245l46.50957,75.43772l-45.06267,25.8245z" fill="url(#color-1)" stroke-width="2.5"/></g><path d="M171.12262,212.43064l33.32666,-19.09885l12.27332,19.90717l-33.32666,19.09884z" fill="url(#color-2)" stroke="#000000" stroke-width="2.5"/><path d="M205.43712,220.82402c7.82983,-4.18897 17.90012,-1.61868 22.49274,5.74089c4.59267,7.35957 1.96841,16.72152 -5.86132,20.91049c-7.82983,4.18898 -17.90013,1.61864 -22.49276,-5.74089c-4.59263,-7.3596 -1.9684,-16.72156 5.86136,-20.9105z" fill="url(#color-3)" stroke="none" stroke-width="0"/><path d="M175.45435,172.42605c7.8298,-4.18897 17.90012,-1.61864 22.49274,5.74089c4.59263,7.35954 1.9684,16.72154 -5.86134,20.9105c-7.82981,4.18896 -17.90011,1.61862 -22.49273,-5.74091c-4.59262,-7.35956 -1.96837,-16.72153 5.86138,-20.91049z" fill="url(#color-4)" stroke="none" stroke-width="0"/></g><path d="M237.8632,261.17211c0,0 -3.14449,3.94146 -5.69052,4.85521c-1.94909,0.69953 -3.84668,-0.39529 -5.56195,-1.52917c-4.70823,-3.11238 -7.12337,-8.16312 -12.97561,-14.60209c-1.5939,-1.75371 0.18258,-5.00185 2.10094,-6.42177c1.79421,-1.32804 4.99752,-3.53061 4.99752,-3.53061l30.72892,-21.71701c0,0 4.07357,-2.68644 6.04726,-1.80262c4.75295,2.12839 6.90127,6.92294 10.57185,10.52921c1.24392,1.22212 -2.81332,4.83733 -2.81332,4.83733z" data-paper-data="{&quot;index&quot;:null}" fill="#000000" stroke="#000000" stroke-width="3" stroke-linecap="round"/><g data-paper-data="{&quot;index&quot;:null}"><path d="M322.71767,166.28757c0,0 -3.20948,3.77252 -5.30582,3.87866c-13.96317,0.70691 -27.50579,1.35221 -33.09191,0.45955c-5.10532,-0.81583 -6.7654,-3.82978 -6.7654,-3.82978c0,0 -2.14944,-2.62947 -2.32387,-4.33318c-0.5233,-5.11116 -1.30675,-19.75831 -0.76892,-32.43643c0.01795,-0.42314 0.04393,-0.6603 0.08799,-1.08165c0.13217,-1.26403 0.86478,-6.1794 0.86478,-6.1794c0,0 3.60574,-1.99914 5.58532,-2.60813c5.9387,-1.82699 21.28261,-0.78693 37.3849,-0.97521c1.45946,-0.01706 4.03983,1.75509 4.03983,1.75509c0,0 1.93356,3.42404 1.9739,5.63595c0.26097,14.30021 0.49511,30.1233 0.30348,33.75078z" fill="#c5ac8e" stroke="none" stroke-width="0" stroke-linecap="round"/><path d="M322.78063,165.08512c0,0 -2.8441,3.61958 -4.70441,3.71935c-12.39094,0.66448 -24.40873,1.27025 -29.36715,0.40724c-4.53167,-0.78873 -6.00826,-3.68484 -6.00826,-3.68484c0,0 -1.91045,-2.52739 -2.06714,-4.1637c-0.47007,-4.90897 -1.18158,-18.97596 -0.71833,-31.15067c0.01547,-0.40633 0.03827,-0.63407 0.0769,-1.03866c0.1159,-1.21376 0.7606,-5.9334 0.7606,-5.9334c0,0 3.19772,-1.91612 4.95385,-2.49893c5.26832,-1.7484 18.88655,-0.7338 33.17643,-0.89803c1.29521,-0.01488 3.58713,1.68964 3.58713,1.68964c0,0 1.71974,3.29022 1.758,5.41443c0.24744,13.73327 0.47277,28.929 0.30671,32.4124z" fill="#ffddb7" stroke="none" stroke-width="0" stroke-linecap="round"/><path d="M322.37886,166.27515c0,0 -3.20948,3.77252 -5.30582,3.87866c-13.96317,0.70691 -27.50579,1.35221 -33.09191,0.45955c-5.10532,-0.81583 -6.7654,-3.82978 -6.7654,-3.82978c0,0 -2.14944,-2.62947 -2.32387,-4.33318c-0.5233,-5.11116 -1.30675,-19.75831 -0.76892,-32.43643c0.01795,-0.42314 0.04393,-0.6603 0.08799,-1.08165c0.13217,-1.26403 0.86478,-6.1794 0.86478,-6.1794c0,0 3.60574,-1.99914 5.58532,-2.60813c5.9387,-1.82699 21.28261,-0.78693 37.3849,-0.97521c1.45946,-0.01706 4.03983,1.75509 4.03983,1.75509c0,0 1.93356,3.42404 1.9739,5.63595c0.26097,14.30021 0.49511,30.1233 0.30348,33.75078z" fill="none" stroke="#000000" stroke-width="2.5" stroke-linecap="round"/><path d="M319.34237,144.61387c0,0 -0.35158,6.96393 -0.94187,6.97395c-0.5903,0.01001 -1.12569,-3.0961 -1.19579,-6.93766c-0.07011,-3.84158 0.35158,-6.96391 0.94189,-6.97393c0.59031,-0.01002 1.12568,3.09608 1.19578,6.93764z" fill="#000000" stroke="#000000" stroke-width="2.5" stroke-linecap="butt"/><path d="M300.52061,147.27711c-10.64755,12.3211 -14.2472,17.12999 -20.31207,17.9223c-7.36369,0.96198 -14.26712,-6.58471 -16.96284,-9.54065c-2.33564,0.07829 -4.64988,-0.00741 -6.99927,0.11062c-0.56014,0.02814 -3.68501,0.23294 -4.04534,0.02281c-2.22018,-1.29477 -1.65372,-2.69598 -1.16161,-4.55553c0.39375,-1.48786 1.16599,-2.77647 2.16963,-3.89708c-1.30253,-0.67771 -2.80093,-1.5121 -3.24828,-2.5046c-0.80884,-1.7945 -0.11493,-2.56704 0.64938,-4.00129c0.85533,-1.60508 1.98882,-3.00076 3.30719,-4.22074c-0.82456,-0.4343 -1.70913,-0.93214 -1.81843,-1.1349c-1.15368,-2.14039 -0.13559,-3.03814 0.80968,-4.68526c1.63059,-2.8413 4.27522,-4.55439 7.1798,-5.88134c0.03639,-2.83117 1.28336,-5.07116 2.56583,-7.64774c3.54234,-7.1169 9.31646,-12.0338 15.84352,-16.68993c3.23948,-1.54421 6.77184,-2.97154 10.39261,-3.40684c2.62736,-0.31586 5.32418,-0.08755 7.95094,-0.40063c7.71931,-0.92009 15.94127,1.76693 23.08753,5.24473c7.14625,3.4778 9.54472,15.11951 10.27872,28.3703c0.017,0.31479 -0.75108,10.34451 -1.9606,10.96766c-1.09026,0.5617 -2.68422,-6.79635 -4.82943,-8.01679c-2.74928,-1.56411 -4.09463,3.73636 -6.57358,6.11804c-6.31879,6.07082 -12.30058,16.68677 -14.70918,15.52906c-0.29468,-0.14163 -1.61414,-7.7022 -1.61414,-7.7022z" fill="#000000" stroke="none" stroke-width="0.5" stroke-linecap="butt"/></g><g data-paper-data="{&quot;index&quot;:null}" stroke="#000000" stroke-width="1" stroke-linecap="butt"><path d="M311.54017,166.09937c-9.61541,-1.21814 -5.86328,-10.62486 -5.86328,-10.62486l14.32993,1.69114c0,0 1.7135,10.22341 -8.46663,8.93373z" fill="#000000"/><path d="M310.71542,163.07628c2.54204,1.07898 4.37237,2.97284 3.94184,3.03623c-0.88963,0.13098 -1.92131,0.13835 -3.1171,-0.01313c-3.58382,-0.45402 -5.31066,-2.04558 -6.06692,-3.86364c-0.14692,-0.3532 2.90782,-0.15026 5.24216,0.84056z" fill="#ff8484"/><path d="M305.08751,158.72405c0.20866,-1.33129 0.58937,-3.24955 0.58937,-3.24955l12.59391,1.48627l-0.37134,3.36969c0,0 -12.81884,-1.56253 -12.81198,-1.60641z" fill="#ffffff"/></g><g><g data-paper-data="{&quot;index&quot;:null}"><path d="M347.65185,178.08505c2.59981,-0.94691 5.29353,-6.48499 6.2057,-4.15716c0.60768,1.5508 3.71275,25.01109 2.55565,26.85881c-0.57974,0.92578 -1.75629,1.8164 -2.62413,2.1325c-1.27555,0.46457 -2.58428,0.19905 -3.73099,-0.5603c-1.19052,-0.78843 -10.11325,-22.28824 -10.57787,-23.47396c-0.91216,-2.32786 5.5718,0.14696 8.17163,-0.79997z" fill="#485e84" stroke="#000000" stroke-width="1.5" stroke-linecap="butt"/><g stroke-linecap="butt"><path d="M344.61076,170.39323c4.71028,-1.71559 9.48115,-0.67555 10.6561,2.32297c1.17495,2.99853 -1.69102,6.82006 -6.40128,8.53569c-4.71029,1.71559 -9.48116,0.67553 -10.65611,-2.32298c-1.17497,-2.99853 1.69098,-6.82009 6.40125,-8.53567z" fill="#485e84" stroke="#000000" stroke-width="1.5"/><path d="M351.4724,175.64716l3.18842,-3.04952c0,0 -0.00937,2.18503 -0.37334,3.03084c-0.79018,1.76208 -2.40321,2.8038 -2.40321,2.8038z" fill="#6987bb" stroke="none" stroke-width="0"/><path d="M348.05039,177.86226l1.59056,-0.93901c0,0 0.53148,1.00889 0.65165,1.38784c0.14072,0.4437 0.1493,1.31625 0.1493,1.31625l-2.03787,0.80354z" fill="#6987bb" stroke="none" stroke-width="0"/></g><g><path d="M347.09656,177.08224c-6.49792,2.36667 -11.54542,-0.00853 -14.00021,-6.27333c-2.45476,-6.26472 1.15583,-13.38316 7.65378,-15.7499c6.49792,-2.36671 12.83792,0.39379 15.29272,6.65857c2.45477,6.26473 -2.44828,12.99794 -8.94623,15.36465z" fill="#2c394f" stroke="#000000" stroke-width="1.5" stroke-linecap="butt"/><path d="M343.29647,155.13126c0,0 9.45604,-0.53616 11.60379,4.94504c1.21794,3.10821 0.91074,6.90143 -0.12379,9.97276c-0.73704,2.18816 -2.40207,4.16192 -4.69891,4.99848c-4.72119,1.71955 -7.19437,0.3041 -9.3421,-5.17708c-1.07256,-2.73727 -0.72765,-6.70461 0.41428,-9.68934c1.14467,-2.992 2.14678,-5.04984 2.14678,-5.04984z" fill="#485e84" stroke="none" stroke-width="0" stroke-linecap="butt"/><path d="M355.70731,161.91823c0,0 -1.52327,5.46652 -8.93792,8.46226c-7.47542,3.0203 -12.41937,0.45408 -12.41937,0.45408" fill="none" stroke="#000000" stroke-width="0.8" stroke-linecap="round"/><path d="M356.3025,167.38912c0,0 -3.46532,4.00482 -7.95609,6.43228c-6.47175,3.49828 -10.00254,2.31262 -10.00254,2.31262" fill="none" stroke="#000000" stroke-width="0.75" stroke-linecap="round"/><path d="M352.77326,157.44138c0,0 -1.98007,4.89724 -9.22679,8.29895c-6.97006,3.27183 -10.00382,1.90459 -10.00382,1.90459" fill="none" stroke="#000000" stroke-width="0.8" stroke-linecap="round"/><path d="M333.04649,166.19045c0,0 3.50638,-4.07631 6.78812,-6.32785c4.32251,-2.96563 9.30763,-4.72463 9.30763,-4.72463" fill="none" stroke="#000000" stroke-width="0.8" stroke-linecap="round"/><path d="M344.2808,177.17103c0,0 -3.98992,-2.5207 -6.85329,-9.02146c-2.67201,-6.06636 -0.58222,-9.95468 -0.58222,-9.95468" fill="none" stroke="#000000" stroke-width="0.8" stroke-linecap="round"/><path d="M339.11107,157.01414c0,0 1.01073,3.20716 2.6613,6.50508c1.45152,2.9002 3.50928,5.81387 4.2682,7.46231c0.9014,1.95791 1.98454,5.39448 1.98454,5.39448" fill="none" stroke="#000000" stroke-width="0.8" stroke-linecap="round"/><path d="M341.86015,155.37303c0,0 5.2676,3.63028 7.07807,7.88456c2.84162,6.67724 2.00663,11.91279 2.00663,11.91279" fill="none" stroke="#000000" stroke-width="0.8" stroke-linecap="round"/><path d="M345.79803,154.50752c0,0 3.9695,2.47895 6.36968,6.46984c3.45635,5.74702 3.10937,9.62907 3.10937,9.62907" fill="none" stroke="#000000" stroke-width="0.8" stroke-linecap="round"/><path d="M353.55767,161.13702c-0.46328,0.16875 -1.00264,-0.11228 -1.2046,-0.6277c-0.20198,-0.51542 0.00989,-1.07003 0.47322,-1.23879c0.46334,-0.16875 1.00264,0.11226 1.20461,0.6277c0.20198,0.51543 -0.00989,1.07006 -0.47321,1.23881z" fill="#6987bb" stroke="none" stroke-width="0" stroke-linecap="butt"/><path d="M351.25673,157.99375c-0.26732,0.09737 -0.56587,-0.03265 -0.66682,-0.29034c-0.10098,-0.25774 0.03386,-0.54556 0.30115,-0.64292c0.26733,-0.09737 0.56588,0.03263 0.66684,0.29033c0.101,0.25772 -0.03386,0.54556 -0.30115,0.64292z" fill="#6987bb" stroke="none" stroke-width="0" stroke-linecap="butt"/></g></g><g><path d="M298.62241,177.28874c1.54526,-3.19688 19.92166,-6.39066 22.07751,-4.95446c2.34309,1.56093 2.68623,17.89508 2.68623,17.89508l-3.82132,1.25194l25.1232,-8.72684c0,0 8.51906,-3.43578 9.11766,-1.01611c0,0 8.1238,9.3757 9.08009,30.0578c-5.05832,2.8307 -18.52558,4.8832 -18.52558,4.8832c0,0 -29.68407,5.89286 -33.43439,2.19386c-3.75032,-3.69899 -13.75344,-38.58453 -12.30336,-41.58449z" fill="#68330c" stroke="none" stroke-width="3" stroke-linecap="round"/><path d="M344.91921,182.49571c0,0 8.80178,-2.35272 9.35559,0.0354c0,0 7.85543,9.33167 8.49702,29.68858c-2.70323,1.46378 -7.8049,2.67246 -11.93528,3.47592c-0.12676,-0.53286 -0.25277,-1.01364 -0.35943,-1.40884c-2.36382,-8.75973 -6.59544,-20.63072 -8.81078,-30.23616c-0.02196,-0.09519 3.25288,-1.55489 3.25288,-1.55489z" fill="#ffddb7" stroke="#000000" stroke-width="2" stroke-linecap="butt"/><path d="M343.11418,184.08031l8.31508,31.32543l-3.88676,0.76274l-8.51695,-30.91174z" data-paper-data="{&quot;index&quot;:null}" fill="#ffffff" stroke="#000000" stroke-width="2" stroke-linecap="round"/><path d="M298.86826,177.39192c1.54526,-3.19688 19.92166,-6.39066 22.07751,-4.95446c2.34309,1.56093 2.68623,17.89509 2.68623,17.89509l-3.82132,1.25194l25.1232,-8.72684c0,0 8.51906,-3.43578 9.11765,-1.01612c0,0 8.1238,9.3757 9.08009,30.0578c-5.05832,2.8307 -18.52558,4.8832 -18.52558,4.8832c0,0 -29.68407,5.89286 -33.43439,2.19387c-3.75032,-3.69899 -13.75344,-38.58453 -12.30336,-41.58449z" data-paper-data="{&quot;origPos&quot;:null}" fill="none" stroke="#000000" stroke-width="2.5" stroke-linecap="round"/></g></g><path d="M153.5,284v-208h225.55255v208z" fill="none" stroke="none" stroke-width="0" stroke-linecap="butt"/></g></g></svg>