<svg version="1.1" xmlns="http://www.w3.org/2000/svg" xmlns:xlink="http://www.w3.org/1999/xlink" width="127.66667" height="127.66667" viewBox="0,0,127.66667,127.66667"><g transform="translate(-176.16667,-116.16666)"><g data-paper-data="{&quot;isPaintingLayer&quot;:true}" fill-rule="nonzero" stroke-linejoin="miter" stroke-miterlimit="10" stroke-dasharray="" stroke-dashoffset="0" style="mix-blend-mode: normal"><g><path d="M202.7282,188.05751c-0.00244,0.00017 -0.00371,0.00022 -0.00371,0.00022l-0.54987,-0.16316c-0.892,-1.02638 -0.53033,-2.33627 0.12032,-3.45296c1.73586,-1.54816 5.90519,-6.09229 8.31168,-3.05848c1.1377,1.43428 1.11452,3.43847 1.62298,5.11386c0.30458,6.65193 -5.97521,3.48072 -9.50139,1.56052z" fill="#323344" stroke="#000000" stroke-width="1" stroke-linecap="butt"/><path d="M231.24659,182.83806c0.40822,-1.23169 1.71506,-4.19666 2.95064,-4.82658c3.52421,-1.79674 4.87002,1.9232 5.24779,4.44868c0.09589,2.36683 -0.98737,6.14545 -3.22669,8.89653c-1.54401,1.89686 -3.91661,3.1033 -5.38779,3.82983c-0.50178,0.24779 -2.09371,0.11667 -4.29279,-3.06157c-2.05632,-2.97192 -3.40556,-7.45326 -2.2775,-8.23401c0.97074,-0.67188 6.70241,-0.18767 6.70241,-0.18767z" fill="#dc94e7" stroke="#000000" stroke-width="1" stroke-linecap="butt"/><path d="M227.58383,187.35935c0.05655,0.03826 0.08888,0.06816 0.08888,0.06816l0.70282,0.74818c0.33565,0.8035 0.34362,1.5406 0.3867,2.25647c0.05303,0.88112 0.05493,1.7342 -0.47843,2.6889c-3.78916,5.49513 -14.64927,7.62261 -15.00793,-1.53332c-0.1306,-3.82002 3.38788,-5.13756 7.12238,-5.35229c2.54446,-0.14631 5.18497,0.1108 6.85648,0.86191c0,0 0.18655,0.08431 0.32909,0.26198z" fill="#f89688" stroke="#000000" stroke-width="1" stroke-linecap="butt"/><path d="M209.42171,183.15498c-0.65167,-0.29226 -0.42326,-1.00624 -0.42326,-1.00624c0.61223,-1.90915 3.70267,-5.93389 6.03131,-4.93665c2.38812,1.02272 1.12086,3.42685 2.52698,4.93182c0.66245,0.70902 2.5206,0.65258 3.42057,0.94085c0.41963,1.0358 0.6161,1.21188 0.63194,2.27808c0.02797,1.88238 -1.382,3.08044 -3.29004,2.73176c-3.05614,-0.55847 -4.91942,-3.80444 -7.95227,-4.45967l-0.3178,-0.0487c0,0 -0.44159,-0.07047 -0.62742,-0.43125z" fill="#fcdfbd" stroke="none" stroke-width="0.5" stroke-linecap="butt"/><path d="M220.97731,183.08476c0.41963,1.0358 0.6161,1.21188 0.63194,2.27809c0.02796,1.88238 -1.382,3.08044 -3.29004,2.73176c-2.36027,-0.43131 -4.00906,-2.4656 -6.0346,-3.67146c0.75701,-0.14654 1.45152,-0.27765 1.97802,-0.29757c0.57492,-0.02176 1.03328,0.20895 1.46874,0.50028c0.46958,0.59663 1.17635,0.99469 1.97167,1.05676c0.32014,0.04591 0.67633,0.02247 1.0863,-0.10661c0.11534,-0.03632 0.23151,-0.09107 0.34657,-0.16162c0.9055,-0.43781 1.53265,-1.34921 1.57312,-2.40069c0.0963,0.02139 0.18628,0.04479 0.2683,0.07107z" fill="#f89688" stroke="none" stroke-width="0.5" stroke-linecap="butt"/><path d="M209.42171,183.15498c-0.65167,-0.29226 -0.42326,-1.00624 -0.42326,-1.00624c0.61223,-1.90915 3.70267,-5.93389 6.0313,-4.93665c2.38811,1.02272 1.12086,3.42684 2.52698,4.93181c0.66245,0.70901 2.52059,0.65258 3.42057,0.94086c0.41963,1.0358 0.6161,1.21188 0.63194,2.27809c0.02796,1.88238 -1.382,3.08044 -3.29004,2.73176c-3.05613,-0.55847 -4.91942,-3.80444 -7.95227,-4.45967l-0.3178,-0.04872c0,0 -0.44159,-0.07047 -0.62742,-0.43124z" fill="none" stroke="#000000" stroke-width="1" stroke-linecap="butt"/><path d="M210.1505,180.96115c0.02182,0.55709 -0.53527,0.57892 -0.53527,0.57892l-0.0857,0.00336c-3.45469,0.13533 -6.00314,2.58801 -6.24524,6.10035c0,0 -0.01258,0.17558 -0.12226,0.32235l0.0713,0.27007c0,0 -0.36728,0.39723 -0.76954,0.0473c-0.07265,-0.00749 -0.14531,-0.01498 -0.21796,-0.02248c0,0 -0.31376,-0.03234 -0.44493,-0.28437c-0.30764,-0.12481 -0.32216,-0.49544 -0.32216,-0.49544l-0.00177,-0.15497c0.43035,-5.03688 2.92786,-7.21299 7.81737,-7.40452c0,0 0.55709,-0.02182 0.57892,0.53527c0.0005,0.01282 0.0007,0.02536 0.0006,0.03762c0.13495,0.06772 0.26629,0.20172 0.27666,0.46656z" fill="#455d83" stroke="none" stroke-width="0.5" stroke-linecap="butt"/><path d="M203.36807,186.92498c-0.48908,-0.262 -1.03421,-0.40994 -1.5623,-0.40663c-0.07115,-0.04 -0.14611,-0.07392 -0.22415,-0.10106c0.24011,-1.63132 0.73347,-2.9222 1.49379,-3.90969c0.44392,0.59591 0.87222,1.2095 1.30049,1.81536c-0.49897,0.75036 -0.84632,1.62794 -1.00783,2.60202z" fill="#85afb1" stroke="none" stroke-width="0.5" stroke-linecap="butt"/><path d="M205.01531,180.895c0.34787,0.59924 0.82781,1.19266 1.25391,1.60403c-0.4278,0.26186 -0.81881,0.5729 -1.16707,0.92778c-0.41381,-0.5825 -0.82725,-1.16846 -1.25515,-1.73998c0.35027,-0.30519 0.73947,-0.56846 1.16832,-0.79183z" fill="#85afb1" stroke="none" stroke-width="0.5" stroke-linecap="butt"/><path d="M210.1505,180.96116c0.02182,0.55709 -0.53527,0.57892 -0.53527,0.57892l-0.0857,0.00336c-3.45469,0.13533 -6.00314,2.58801 -6.24525,6.10035c0,0 -0.01258,0.17558 -0.12226,0.32235l0.07129,0.27008c0,0 -0.36727,0.39723 -0.76954,0.0473c-0.07265,-0.00749 -0.14531,-0.01498 -0.21796,-0.02248c0,0 -0.31376,-0.03235 -0.44493,-0.28437c-0.30765,-0.1248 -0.32217,-0.49544 -0.32217,-0.49544l-0.00177,-0.15497c0.43035,-5.03688 2.92785,-7.21299 7.81737,-7.40452c0,0 0.55709,-0.02182 0.57892,0.53527c0.0005,0.01281 0.0007,0.02536 0.0006,0.03763c0.13495,0.06772 0.26629,0.20172 0.27666,0.46656z" fill="none" stroke="#000000" stroke-width="1" stroke-linecap="butt"/><path d="M219.32656,190.51398c0,0 3.14874,-0.0685 3.70651,1.69637c0.44753,1.41604 -0.78033,2.54046 -1.44496,3.65198c-1.57312,2.63081 -3.92251,7.05421 -7.45313,4.64585c-0.74076,-0.61205 -1.29746,-1.25671 -1.91437,-1.98883l-0.08393,-0.07602c-1.0662,0.56994 -2.1299,0.65677 -2.78509,0.07492c-0.69363,-0.61599 -1.33531,-1.92956 -1.94894,-2.8398c-1.46917,0.28452 -3.07157,0.59242 -4.28682,-0.28492c-1.16873,-0.84375 -0.94065,-1.92824 -0.98918,-3.16724c-0.13595,-3.47048 1.89625,-6.3793 4.97282,-7.92875c1.51207,-0.975 3.06023,-2.48381 4.97669,-2.66863c1.34783,-0.12998 2.20205,0.63164 2.78031,1.54783c0.66717,1.05708 0.91967,2.37107 0.36776,3.5929c1.24578,0.16282 2.47666,0.83091 3.33051,1.69386c0.83611,0.84502 0.51541,1.25977 0.7718,2.05048z" fill="#fde0be" stroke="none" stroke-width="0.5" stroke-linecap="butt"/><path d="M223.03307,192.21036c0.44753,1.41606 -0.78032,2.54046 -1.44496,3.65197c-1.57313,2.63081 -3.92251,7.05422 -7.45313,4.64586c-0.74076,-0.61205 -1.29746,-1.25671 -1.91436,-1.98883l-0.08393,-0.07602c-1.0662,0.56994 -2.1299,0.65677 -2.78509,0.07492c-0.69363,-0.61599 -1.3353,-1.92957 -1.94893,-2.83981c-1.46917,0.28452 -3.07156,0.59242 -4.28681,-0.28492c-1.16873,-0.84376 -0.94065,-1.92824 -0.98918,-3.16724c-0.04548,-1.16101 0.15169,-2.25916 0.54944,-3.26458c0.07625,0.18241 0.12722,0.36378 0.12159,0.55277l0.0065,0.00662c-0.0433,1.15067 0.36052,2.04991 1.03348,2.62383c0.52854,0.51507 1.25933,0.82054 2.05497,0.78937c0.28789,-0.01128 0.56387,-0.06583 0.82191,-0.15714c0.2803,-0.05618 0.56622,-0.14146 0.85431,-0.25724c1.25289,-0.50351 2.98212,-1.5908 4.59898,-2.95884c-0.29458,0.90401 -0.53189,1.80099 -0.68638,2.53077c-0.13339,0.34463 -0.20004,0.72157 -0.18465,1.11433c0.00916,0.23396 0.04691,0.46005 0.10974,0.67504c0.06223,1.58853 1.32039,2.08912 2.56377,2.00135c0.07306,0.00285 0.14679,0.00289 0.22108,-0.00002c0.61287,-0.02401 1.17176,-0.24414 1.6186,-0.59758c0.14702,-0.10001 0.27407,-0.20918 0.3751,-0.325c0.11392,-0.13062 0.23389,-0.27648 0.35818,-0.43505c0.21163,0.11394 -0.82523,2.18615 -0.59189,2.24368c0.69043,0.17026 2.71942,-1.91477 3.45857,-2.43366c0.59224,-0.41575 0.96091,-0.88001 1.15535,-1.35801c0.2779,-0.45367 0.4292,-0.99171 0.40681,-1.56321c-0.01013,-0.25853 -0.05516,-0.50746 -0.13036,-0.74243c0.89078,0.19102 1.89835,0.61222 2.19129,1.53912z" fill="#f89688" stroke="none" stroke-width="0.5" stroke-linecap="butt"/><path d="M219.32656,190.51398c0,0 3.14874,-0.0685 3.70651,1.69637c0.44753,1.41606 -0.78032,2.54046 -1.44496,3.65197c-1.57313,2.63081 -3.92251,7.05422 -7.45313,4.64586c-0.74076,-0.61205 -1.29746,-1.25671 -1.91436,-1.98883l-0.08393,-0.07602c-1.0662,0.56994 -2.1299,0.65677 -2.78509,0.07492c-0.69363,-0.61599 -1.3353,-1.92957 -1.94893,-2.83981c-1.46917,0.28452 -3.07156,0.59242 -4.28681,-0.28492c-1.16873,-0.84376 -0.94065,-1.92824 -0.98918,-3.16724c-0.13595,-3.47048 1.89624,-6.3793 4.9728,-7.92875c1.51207,-0.975 3.06023,-2.48381 4.9767,-2.66863c1.34783,-0.12998 2.20205,0.63164 2.78029,1.54783c0.66717,1.05708 0.91967,2.37107 0.36776,3.5929c1.24579,0.16282 2.47666,0.83091 3.33051,1.69387c0.83612,0.84502 0.51541,1.25977 0.7718,2.05048z" fill="none" stroke="#000000" stroke-width="1" stroke-linecap="butt"/><path d="M215.48368,187.09065l-5.13998,3.62344" fill="none" stroke="#000000" stroke-width="1" stroke-linecap="round"/><path d="M219.04892,190.74505l-3.42283,3.77935" fill="none" stroke="#000000" stroke-width="1" stroke-linecap="round"/><path d="M194.704,179.97822c-0.18635,-4.75712 3.07703,-9.09065 7.83416,-9.277c2.54141,-0.09955 4.0614,0.95558 5.58998,2.58053c0.51499,0.54746 1.31512,1.61974 1.77751,2.76894c0.73418,1.82464 0.4014,3.67991 0.29456,3.96806c-0.08507,0.22946 -3.03766,-1.35483 -5.87634,1.06373c-2.89548,2.46697 -3.346,6.7617 -3.346,6.7617c0,0 -2.2054,-0.31905 -3.66051,-1.55539c-1.62145,-1.37768 -2.51517,-3.80342 -2.61338,-6.31059z" fill="#465e85" stroke="#000000" stroke-width="0" stroke-linecap="butt"/><path d="M194.704,179.97822c-0.0234,-0.59732 0.0076,-1.18796 0.0891,-1.76456c0.0498,0.08059 0.10756,0.15564 0.17212,0.2241l0.00505,0.02097l0.0365,0.02127c0.16946,0.16512 0.38052,0.28716 0.61505,0.34934l0.22961,0.06667l0.14263,0.00537l0.12889,0.07883l0.08405,0.02636l0.06906,0.05465l0.09191,0.04153l0.0083,0.01328l0.03919,0.00818l0.03538,0.016l0.31512,0.05719l0.3135,0.06545l0.03881,-0.00152l0.03939,0.00715l0.01267,-0.00919l0.02919,-0.00114l0.0294,0.02327l0.09191,0.04153l0.0083,0.01328l0.03919,0.00818l0.03538,0.016l0.31512,0.05719l0.3135,0.06545l0.03881,-0.00152l0.03939,0.00715l0.01267,-0.00919l7.19017,-0.28166l0.03673,0.00667l0.3135,0.06545l0.03881,-0.00152l0.03939,0.00715l0.01267,-0.00919l0.2177,-0.00853l0.02293,0.01336l0.52096,0.15127l0.17603,0.00662l0.29986,0.05441l0.3135,0.06545l0.03881,-0.00152l0.03939,0.00715l0.01267,-0.00919l0.47482,-0.0186l0.02293,0.01336l0.16535,0.04801l0.17642,0.07973l0.0083,0.01328l0.03919,0.00818l0.03538,0.016l0.26361,0.04785c-1.132,-0.11789 -2.7121,0.01181 -4.25841,1.32928c-2.89548,2.46697 -3.346,6.7617 -3.346,6.7617c0,0 -2.2054,-0.31905 -3.66051,-1.55539c-1.62145,-1.37768 -2.51517,-3.80342 -2.61338,-6.31059z" fill="#323344" stroke="#000000" stroke-width="0" stroke-linecap="butt"/><path d="M199.27397,175.06509l0.00401,0.01663l-0.02238,-0.01083z" fill="#323344" stroke="#000000" stroke-width="0" stroke-linecap="butt"/><path d="M194.704,179.97822c-0.18635,-4.75713 3.07704,-9.09065 7.83416,-9.277c2.54141,-0.09955 4.06139,0.95558 5.58997,2.58053c0.51499,0.54746 1.31511,1.61974 1.77751,2.76894c0.73418,1.82463 0.40141,3.67991 0.29457,3.96806c-0.08507,0.22946 -3.03765,-1.35483 -5.87634,1.06375c-2.89548,2.46697 -3.346,6.7617 -3.346,6.7617c0,0 -2.20541,-0.31904 -3.66052,-1.55539c-1.62145,-1.37768 -2.51517,-3.80342 -2.61338,-6.31058z" fill="none" stroke="#000000" stroke-width="1" stroke-linecap="butt"/><path d="M199.35539,186.96352c0,0 -0.07025,-5.90426 2.91231,-8.06128c3.15365,-2.28076 7.83499,-0.25685 7.83499,-0.25685" fill="none" stroke="#000000" stroke-width="1" stroke-linecap="round"/><path d="M195.98774,184.26277c0,0 1.1666,-5.46216 3.92023,-8.45878c2.49996,-2.72056 7.85062,-2.21709 7.85062,-2.21709" fill="none" stroke="#000000" stroke-width="1" stroke-linecap="round"/><path d="M194.8368,178.98587c0,0 2.68232,-4.026 4.25687,-5.46419c1.42066,-1.29764 4.77631,-2.78679 4.77631,-2.78679" fill="none" stroke="#000000" stroke-width="1" stroke-linecap="round"/><path d="M201.00238,185.18223c0,0 -2.61912,-0.47518 -3.62527,-1.05758c-0.98416,-0.56968 -2.34715,-2.39952 -2.34715,-2.39952" fill="none" stroke="#000000" stroke-width="1" stroke-linecap="round"/><path d="M201.99057,184.11347c0,0 -3.00193,-1.3813 -4.27005,-2.29349c-1.13025,-0.813 -2.97277,-2.91645 -2.97277,-2.91645" fill="none" stroke="#000000" stroke-width="1" stroke-linecap="round"/><path d="M202.78049,182.36576c0,0 -2.99513,-1.75527 -4.01216,-3.03635c-1.1115,-1.40007 -2.39867,-5.03885 -2.39867,-5.03885" fill="none" stroke="#000000" stroke-width="1" stroke-linecap="round"/><path d="M198.51074,171.97489c0,0 2.94954,3.92516 3.88995,5.56387c0.77973,1.35874 1.3613,3.58681 1.3613,3.58681" fill="none" stroke="#000000" stroke-width="1" stroke-linecap="round"/><path d="M201.81302,170.81546c0,0 2.27444,2.36552 2.97164,3.78846c0.73169,1.49334 1.32004,4.97062 1.32004,4.97062" fill="none" stroke="#000000" stroke-width="1" stroke-linecap="round"/><path d="M207.12171,172.66763c0,0 0.80666,2.02407 1.00355,3.12157c0.20542,1.14512 0.20446,3.61235 0.20446,3.61235" fill="none" stroke="#000000" stroke-width="1" stroke-linecap="round"/></g><g><g stroke="#000000"><path d="M254.29413,193.31798l1.75835,9.73519l-37.56842,-0.98638c0,0 0.35965,-9.54107 2.07153,-11.34553c0.59347,-0.62556 6.41997,2.03919 6.41997,2.03919l0.25732,-3.81689z" fill="#0066cd" stroke-width="0" stroke-linecap="round"/><path d="M247.75783,195.084c-1.50492,0.75211 -3.46626,1.96401 -5.55469,2.32519c-3.234,0.55932 -6.47304,0.03793 -6.47304,0.03793c0,0 0.30281,3.49312 0.18664,5.07736l-6.30755,-0.16562c0.10962,-1.29633 -0.57405,-3.71336 -1.36584,-5.89166c-0.62872,-1.72966 -1.37315,-3.35633 -1.50415,-3.81326c0.15103,0.06748 0.23634,0.1065 0.23634,0.1065l0.25732,-3.81689l20.66543,3.37873c0,0 0.43609,0.795 0.40582,1.59336c-0.01954,0.51496 -0.48353,1.15655 -0.54628,1.16833z" fill="#061483" stroke-width="0" stroke-linecap="butt"/><path d="M254.29413,193.31798l1.75835,9.73519l-37.56842,-0.98638c0,0 0.35965,-9.54107 2.07153,-11.34553c0.59347,-0.62556 6.41997,2.03919 6.41997,2.03919l0.25732,-3.81689z" fill="none" stroke-width="1" stroke-linecap="round"/><path d="M232.8081,195.67673l2.1872,1.887" fill="none" stroke-width="1" stroke-linecap="round"/></g><g><path d="M240.61342,209.63623c0,0.33519 -1.63074,2.50378 -2.85523,2.79868c-2.46242,0.59307 -7.38873,0.24178 -11.07692,0.90119c-1.33696,0.23903 -3.19606,0.44866 -4.63054,1.09762c-0.92448,0.41823 -1.74343,2.02085 -6.96282,2.16315c-3.25738,0.0888 -6.83425,-0.83198 -7.71227,-1.14691c-2.50226,-0.89751 -3.34425,-2.76549 -3.30137,-4.09828c0.01257,-0.39041 0.42812,-1.81565 1.76048,-1.48829c0.90605,0.22261 3.46358,1.84521 6.17255,2.24522c3.29288,0.48623 6.89529,0.06209 7.94157,-0.19361c2.51502,-0.61463 4.62961,-2.03761 7.06881,-2.81725c2.58159,-0.82516 5.97162,0.34968 8.04687,-0.15176c2.70956,-0.65471 3.81251,-2.83717 4.39353,-2.55589c0.93799,0.4541 1.15532,2.55874 1.15532,3.24612z" fill="#feecf7" stroke="none" stroke-width="0" stroke-linecap="butt"/><path d="M237.75819,212.4349c-2.46242,0.59306 -7.38873,0.24178 -11.07692,0.90119c-1.33696,0.23904 -3.19606,0.44867 -4.63054,1.09763c-0.92447,0.41822 -1.74343,2.02085 -6.9628,2.16315c-0.4438,0.0121 -0.89353,0.00545 -1.34155,-0.01584c-0.43617,-1.67958 -1.41883,-3.10604 -2.32625,-4.5779c0.19455,0.04094 0.39047,0.07644 0.58718,0.10547c3.29288,0.48623 6.8953,0.0621 7.94157,-0.19361c2.51503,-0.61465 4.62961,-2.03761 7.06882,-2.81725c2.58159,-0.82514 5.97162,0.34968 8.04687,-0.15176c2.70956,-0.6547 3.81251,-2.83717 4.39353,-2.55589c0.93799,0.45411 1.15532,2.55874 1.15532,3.24612c0,0.3352 -1.63074,2.50378 -2.85523,2.79868z" fill="#dd95e8" stroke="none" stroke-width="0" stroke-linecap="butt"/><path d="M240.61342,209.63623c0,0.33519 -1.63074,2.50378 -2.85523,2.79868c-2.46242,0.59307 -7.38873,0.24178 -11.07692,0.90119c-1.33696,0.23903 -3.19606,0.44866 -4.63054,1.09762c-0.92448,0.41823 -1.74343,2.02085 -6.96282,2.16315c-3.25738,0.0888 -6.83425,-0.83198 -7.71227,-1.14691c-2.50226,-0.89751 -3.34425,-2.76549 -3.30137,-4.09828c0.01257,-0.39041 0.42812,-1.81565 1.76048,-1.48829c0.90605,0.22261 3.46358,1.84521 6.17255,2.24522c3.29288,0.48623 6.89529,0.06209 7.94157,-0.19361c2.51502,-0.61463 4.62961,-2.03761 7.06881,-2.81725c2.58159,-0.82516 5.97162,0.34968 8.04687,-0.15176c2.70956,-0.65471 3.81251,-2.83717 4.39353,-2.55589c0.93799,0.4541 1.15532,2.55874 1.15532,3.24612z" fill="none" stroke="#000000" stroke-width="1" stroke-linecap="butt"/><path d="M218.35539,201.20906l-1.32948,-3.73111c0,0 2.8106,-2.12368 7.65675,-1.54147c3.72193,0.44716 5.08049,4.41485 5.08049,4.41485c0,0 3.57503,-4.04059 4.74028,-3.35392c0.51589,0.30401 2.34417,1.10802 2.97465,2.21711c1.53721,2.70415 1.80584,6.62625 1.80584,6.62625c0,0 -0.38263,2.21366 -2.79127,2.88539c-1.68043,0.46864 -4.34287,0.34385 -7.03231,0.50096c-0.85331,0.04984 -1.69638,0.03395 -2.4905,0.25952c-1.84413,0.5238 -3.42297,1.56729 -5.3759,2.2564c-1.55439,0.54848 -3.47151,0.8096 -5.04159,0.85874c-3.6108,0.11301 -7.30255,-0.80321 -10.16225,-2.30084c-1.8351,-0.96105 1.51881,-3.82844 5.17407,-5.95649c3.26663,-1.9018 6.79121,-3.1354 6.79121,-3.1354z" fill="#ff292e" stroke="#000000" stroke-width="0" stroke-linecap="round"/><path d="M227.6901,197.3114c0.56861,0.50162 1.73755,1.99339 1.90193,3.00395c0.1394,0.857 -0.70861,1.23546 -0.48498,1.75693c0.19854,0.46296 1.42806,0.16605 1.42806,0.16605c0,0 2.04695,-0.84384 3.62863,-2.29243c0.7716,-0.70667 1.64124,-2.23 1.64124,-2.23c0,0 1.33278,0.89999 1.67309,1.49863c1.53721,2.70415 1.80584,6.62625 1.80584,6.62625c0,0 -0.38263,2.21366 -2.79127,2.88539c-1.68043,0.46864 -4.34287,0.34385 -7.03231,0.50096c-0.85331,0.04984 -1.69638,0.03395 -2.4905,0.25952c-1.84413,0.5238 -3.42297,1.56729 -5.3759,2.2564c-1.55439,0.54848 -3.47151,0.8096 -5.04159,0.85874c-0.98536,0.03084 -2.95564,-0.12833 -2.95564,-0.12833c0,0 -0.45608,-2.69671 1.66501,-5.12594c2.44768,-2.80325 7.68327,-4.11214 10.44969,-6.15067c2.49395,-1.83776 1.78263,-4.05842 1.97869,-3.88545z" fill="#ac0e49" stroke="#000000" stroke-width="0" stroke-linecap="round"/><path d="M229.76313,200.30844c0,0 0.12921,1.06387 -0.40554,1.51144c-0.38839,0.32507 -1.9532,0.58999 -1.9532,0.58999" fill="none" stroke="#000000" stroke-width="1" stroke-linecap="round"/><path d="M235.05963,200.30844c0,-0.46186 0.37442,-0.83628 0.83628,-0.83628c0.46186,0 0.83628,0.37442 0.83628,0.83628c0,0.46186 -0.37442,0.83628 -0.83628,0.83628c-0.46186,0 -0.83628,-0.37442 -0.83628,-0.83628z" fill="#000000" stroke="none" stroke-width="0.5" stroke-linecap="butt"/><path d="M218.35539,201.20906l-1.32948,-3.73111c0,0 2.8106,-2.12368 7.65675,-1.54147c3.72193,0.44716 5.08049,4.41485 5.08049,4.41485c0,0 3.57503,-4.04059 4.74028,-3.35392c0.51589,0.30401 2.34417,1.10802 2.97465,2.21711c1.53721,2.70415 1.80584,6.62625 1.80584,6.62625c0,0 -0.38263,2.21366 -2.79127,2.88539c-1.68043,0.46864 -4.34287,0.34385 -7.03231,0.50096c-0.85331,0.04984 -1.69638,0.03395 -2.4905,0.25952c-1.84413,0.5238 -3.42297,1.56729 -5.3759,2.2564c-1.55439,0.54848 -3.47151,0.8096 -5.04159,0.85874c-3.6108,0.11301 -7.30255,-0.80321 -10.16225,-2.30084c-1.8351,-0.96105 1.51881,-3.82844 5.17407,-5.95649c3.26663,-1.9018 6.79121,-3.1354 6.79121,-3.1354z" fill="none" stroke="#000000" stroke-width="1" stroke-linecap="round"/><path d="M213.18761,203.43915c0,-0.2686 0.12664,-0.50764 0.32345,-0.66064c-0.14245,0.30595 -0.231,0.64203 -0.25346,0.99609c-0.04501,-0.10268 -0.06999,-0.21615 -0.06999,-0.33545z" fill="#db93e6" stroke="none" stroke-width="0.5" stroke-linecap="butt"/><path d="M221.529,200.84453c5.36301,0.04651 4.6557,6.30284 1.97676,4.47385c-0.56413,-0.38516 -1.14635,-1.13569 -1.75326,-1.58809c-0.80799,-0.60228 -2.20652,-1.18841 -3.05294,-1.67209c-0.29133,-0.13074 -0.16932,-1.01887 0.23482,-1.19223c0.40415,-0.17336 1.73335,-0.02891 2.59462,-0.02144z" fill="#f0e0ec" stroke="none" stroke-width="0.5" stroke-linecap="butt"/><path d="M221.58913,206.78426c-0.04287,0.42165 -0.399,0.75067 -0.83196,0.75067c-0.30694,0 -0.57525,-0.16535 -0.72072,-0.41184c-0.2312,-0.13211 -1.05102,-1.37107 -2.08121,-2.38367c-0.87171,-0.85682 -1.89764,-1.52796 -2.33491,-2.16462c-0.32071,-0.46696 -0.11359,-0.78023 0.33214,-0.94991c1.44435,-0.54982 6.80364,3.20573 5.63666,5.15938z" data-paper-data="{&quot;index&quot;:null}" fill="#f0e0ec" stroke="none" stroke-width="0.5" stroke-linecap="butt"/><path d="M218.84858,207.16312c0.33475,1.26692 -1.09143,2.00882 -1.79482,0.9035c-0.41897,-0.65837 -0.90974,-1.69156 -1.54123,-2.21345c-0.66411,-0.54886 -1.48386,-0.94215 -1.91308,-1.69329c-0.24648,-0.14548 -0.41184,-0.41378 -0.41184,-0.72072c0,-0.46186 0.37442,-0.83628 0.83628,-0.83628c0.25436,0 0.48222,0.11357 0.6356,0.29277c1.65607,0.45449 3.87257,3.06959 4.18909,4.2675z" fill="#f0e0ec" stroke="none" stroke-width="0.5" stroke-linecap="butt"/><path d="M223.50574,205.31838c-0.54218,-0.37016 -1.10106,-1.07782 -1.68251,-1.53396c1.10453,-0.27698 1.94761,-1.21297 2.08707,-2.36577c2.65203,1.51262 1.77818,5.38995 -0.40456,3.89972z" fill="#db93e6" stroke="none" stroke-width="0.5" stroke-linecap="butt"/><path d="M221.58913,206.78426c-0.04287,0.42165 -0.399,0.75067 -0.83196,0.75067c-0.30694,0 -0.57525,-0.16535 -0.72072,-0.41184c-0.16927,-0.09673 -0.6541,-0.7868 -1.30598,-1.54695c0.88983,-0.0642 1.66392,-0.54608 2.12724,-1.25056c0.74673,0.8655 1.14097,1.77304 0.73142,2.45866z" data-paper-data="{&quot;index&quot;:null}" fill="#db93e6" stroke="none" stroke-width="0.5" stroke-linecap="butt"/><path d="M218.84858,207.16312c0.33475,1.26692 -1.09143,2.00882 -1.79482,0.9035c-0.23987,-0.37693 -0.50328,-0.87673 -0.80316,-1.33309c0.74314,-0.05563 1.40506,-0.40263 1.87188,-0.92709c0.36774,0.51507 0.63159,0.99905 0.72609,1.35669z" fill="#db93e6" stroke="none" stroke-width="0.5" stroke-linecap="butt"/><path d="M221.529,200.84453c5.36301,0.04651 4.6557,6.30284 1.97676,4.47385c-0.56413,-0.38516 -1.14635,-1.13569 -1.75326,-1.58809c-0.80799,-0.60228 -2.20652,-1.18841 -3.05294,-1.67209c-0.29133,-0.13074 -0.16932,-1.01887 0.23482,-1.19223c0.40415,-0.17336 1.73335,-0.02891 2.59462,-0.02144z" fill="none" stroke="#000000" stroke-width="1" stroke-linecap="butt"/><path d="M221.58913,206.78426c-0.04287,0.42165 -0.399,0.75067 -0.83196,0.75067c-0.30694,0 -0.57525,-0.16535 -0.72072,-0.41184c-0.2312,-0.13211 -1.05102,-1.37107 -2.08121,-2.38367c-0.87171,-0.85682 -1.89764,-1.52796 -2.33491,-2.16462c-0.32071,-0.46696 -0.11359,-0.78023 0.33214,-0.94991c1.44435,-0.54982 6.80364,3.20573 5.63666,5.15938z" data-paper-data="{&quot;index&quot;:null}" fill="none" stroke="#000000" stroke-width="1" stroke-linecap="butt"/><path d="M217.05375,208.06662c-0.41897,-0.65837 -0.90974,-1.69156 -1.54123,-2.21345c-0.66411,-0.54886 -1.48386,-0.94215 -1.91308,-1.69329c-0.24648,-0.14548 -0.41184,-0.41378 -0.41184,-0.72072c0,-0.46186 0.37442,-0.83628 0.83628,-0.83628c0.25436,0 0.48222,0.11357 0.6356,0.29277c1.65607,0.45449 3.87257,3.06959 4.18909,4.2675c0.31652,1.1979 -1.09143,2.00881 -1.79482,0.90349z" fill="none" stroke="#000000" stroke-width="1" stroke-linecap="butt"/></g><g><path d="M239.36971,208.91399c0,0 0.3915,8.34024 14.60749,6.23944c13.4989,-1.99483 11.63893,-9.15571 11.63893,-9.15571l4.20286,1.887c0,0 -0.00863,1.18868 0.0127,2.61652c0.02049,1.37182 0.09502,2.95119 -1.0369,4.54341c-2.00021,2.81361 -6.76078,4.99215 -16.60204,5.40697c-20.06166,0.84564 -12.82304,-11.53763 -12.82304,-11.53763z" fill="#ffeffa" stroke="#000000" stroke-width="0" stroke-linecap="round"/><path d="M238.24138,214.9262c-0.01726,-0.07859 3.87856,5.67316 16.55063,3.82969c14.35662,-1.86616 15.02695,-10.87116 15.02695,-10.87116c0,0 -0.00863,1.18868 0.0127,2.61652c0.02049,1.37182 0.09502,2.95119 -1.0369,4.54341c-2.00021,2.81361 -6.76078,4.99215 -16.60204,5.40697c-10.11326,0.42629 -13.28882,-2.50921 -13.95136,-5.52542z" fill="#dd95e8" stroke="#000000" stroke-width="0" stroke-linecap="round"/><path d="M239.36971,208.91399c0,0 0.3915,8.34024 14.60749,6.23944c13.4989,-1.99483 11.63893,-9.15571 11.63893,-9.15571l4.20286,1.887c0,0 -0.00863,1.18868 0.0127,2.61652c0.02049,1.37182 0.09502,2.95119 -1.0369,4.54341c-2.00021,2.81361 -6.76078,4.99215 -16.60204,5.40697c-20.06166,0.84564 -12.82304,-11.53763 -12.82304,-11.53763z" fill="none" stroke="#000000" stroke-width="1" stroke-linecap="round"/><path d="M244.55778,199.14542c1.31642,-1.17593 6.83383,-2.37225 9.54146,-1.8472c1.63401,0.31686 1.35284,1.93808 1.35284,1.93808c0,0 6.50518,-3.29028 7.2311,-2.78214c0.28324,0.19828 1.53295,2.07667 0.92706,3.17351c-0.89762,1.62499 -3.86953,2.61068 -3.86953,2.61068c0,0 0.38686,0.12296 0.98019,0.36644c-4.37977,0.2708 -10.45727,2.81658 -13.09573,2.97807c-0.28949,0.01772 -0.09375,-0.57255 -0.14995,-0.85709c-0.2393,-1.21161 -0.36474,-2.58493 -1.15202,-3.60541c-0.53209,-0.6897 -1.20811,-1.28668 -1.96677,-1.76955c0.06482,-0.07445 0.13195,-0.14336 0.20135,-0.20536z" fill="#ff292e" stroke="#000000" stroke-width="0" stroke-linecap="butt"/><path d="M239.75568,206.14098l-4.26626,-0.16396c0,0 -0.75986,-1.06582 0.64989,-3.95604l0.44322,0.77565c0.89587,1.56777 5.91336,-0.09743 5.42961,2.84951c-0.11145,0.67887 -1.32062,0.92814 -2.47088,1.49438c0.1108,-0.61531 0.21443,-0.99954 0.21443,-0.99954z" fill="#ff292e" stroke="#000000" stroke-width="0" stroke-linecap="butt"/><path d="M258.17176,209.10014c0.36853,-0.08338 0.88232,-0.11124 1.46868,-0.11798c-0.6464,0.16771 -1.32782,0.23565 -2.02895,0.24198c0.20663,-0.04469 0.39459,-0.08651 0.56025,-0.12398z" fill="#ac0e49" stroke="#000000" stroke-width="0" stroke-linecap="butt"/><path d="M243.10081,202.06679c0,0 0.52294,-2.08702 1.45697,-2.92137c1.31642,-1.17593 6.83383,-2.37225 9.54146,-1.8472c1.63401,0.31686 1.35284,1.93808 1.35284,1.93808c0,0 6.50518,-3.29028 7.2311,-2.78214c0.28324,0.19828 1.53295,2.07667 0.92706,3.17351c-0.89762,1.62499 -3.86953,2.61068 -3.86953,2.61068c0,0 3.2768,1.04143 5.38321,3.06446c3.27168,3.14221 4.20444,8.1679 -10.60834,11.59558c-1.79091,0.41442 -10.06451,0.93634 -13.55884,-2.11337c-2.85954,-2.49569 -1.20105,-8.64402 -1.20105,-8.64402l-4.26626,-0.16396c0,0 -0.79623,-1.11685 0.75362,-4.16423c0.36247,-0.7127 6.85777,0.254 6.85777,0.254z" fill="#ff292e" stroke="#000000" stroke-width="0" stroke-linecap="round"/><path d="M239.75568,206.14098l-4.26626,-0.16396c0,0 -0.5427,-0.76123 0.14011,-2.74157c1.97616,0.73611 6.21238,1.20089 7.42841,1.75617c0.14476,0.0661 -1.20123,0.75924 -1.35092,0.8545c-0.89102,0.56702 -1.4988,1.12815 -2.20328,1.90308c-0.02477,0.02724 -0.04901,0.05479 -0.07273,0.08264c0.13987,-1.0057 0.32469,-1.69088 0.32469,-1.69088z" fill="#ac0e49" stroke="#000000" stroke-width="0" stroke-linecap="butt"/><path d="M239.01589,206.27232c-0.27303,0.24428 -2.54969,0.17339 -2.50058,-0.53893c-0.05339,-0.11013 -0.08333,-0.23375 -0.08333,-0.36435c0,-0.46186 0.37442,-0.83628 0.83628,-0.83628c0.24056,0 0.4574,0.10157 0.60997,0.26417c1.11623,-0.04955 2.12857,0.58878 1.13765,1.4754z" fill="#000000" stroke="none" stroke-width="0.5" stroke-linecap="butt"/><path d="M254.51556,216.89838c-1.79091,0.41442 -10.06451,0.93634 -13.55884,-2.11337c-0.3195,-0.27885 -0.5826,-0.60331 -0.79791,-0.95967c3.21261,0.17766 11.22397,-3.76602 14.15318,-4.46787c1.7611,-0.42198 5.91336,0.01395 8.68214,-0.70891c0.18548,-0.04842 1.22555,1.94151 1.60247,1.53843c0.40093,-0.42875 1.09917,-3.59532 1.0842,-4.30339c2.77006,3.15444 2.76525,7.79127 -11.16524,11.01479z" fill="#ac0e49" stroke="#000000" stroke-width="0" stroke-linecap="butt"/><path d="M263.61022,199.62765c-0.89762,1.62499 -3.86953,2.61068 -3.86953,2.61068c0,0 0.88914,0.28259 2.03882,0.8393c-2.6179,0.16708 -5.35164,0.92473 -5.54022,0.30285c-0.44904,-1.48077 3.96725,-4.01273 6.07544,-5.71395c0.29957,-0.18436 0.56161,-0.42379 0.77203,-0.70418c0.43424,0.68131 0.95958,1.87579 0.52345,2.66532z" fill="#ac0e49" stroke="#000000" stroke-width="0" stroke-linecap="butt"/><path d="M242.88638,202.23833l2.40164,3.00204" fill="none" stroke="#000000" stroke-width="1" stroke-linecap="round"/><path d="M245.20225,208.11375c0,0 -1.46726,-0.21889 -1.62111,-0.58326c-0.46565,-1.10286 0.59183,-1.47529 0.59183,-1.47529c0,0 3.3467,-2.24519 5.84223,-2.74497c4.07916,-0.81696 6.42326,-0.04264 6.42326,-0.04264c0,0 1.21563,0.0579 1.55332,0.68722c0.31306,0.58342 -0.18096,1.02823 -0.18096,1.02823c0,0 1.6958,0.03505 2.41724,0.88295c0.94578,1.11157 0.15594,1.39003 0.15594,1.39003c0,0 1.26494,-0.00347 1.66996,0.92131c0.31713,0.72408 -0.51203,1.18013 -0.51203,1.18013c0,0 -5.20712,0.3391 -7.70654,0.76286c-2.47516,0.41965 -7.2179,1.76743 -7.2179,1.76743c0,0 -0.99125,0.44662 -1.27567,-0.67379c-0.23639,-0.93121 0.46081,-1.42764 0.46081,-1.42764c0,0 -1.03151,0.46549 -1.3061,-0.43725c-0.18736,-0.61595 0.70569,-1.23531 0.70569,-1.23531z" fill="#feeffb" stroke="#000000" stroke-width="0" stroke-linecap="round"/><path d="M250.0152,203.31023c4.07916,-0.81696 6.42326,-0.04264 6.42326,-0.04264c0,0 0.90806,0.04325 1.37255,0.46129c-1.71687,1.49587 -2.92822,4.45112 -5.42574,3.93719c-1.53135,-0.31512 -2.76377,-2.09366 -3.98648,-3.85867c0.55045,-0.21665 1.10154,-0.39407 1.6164,-0.49718z" fill="#dd95e8" stroke="#000000" stroke-width="0" stroke-linecap="round"/><path d="M245.93131,209.82921c0,0 3.18295,-0.99515 6.53549,-1.65399c2.90506,-0.5709 7.57412,-0.70476 7.57412,-0.70476" fill="none" stroke="#000000" stroke-width="1" stroke-linecap="round"/><path d="M245.15935,208.02798c0,0 2.227,-1.48295 5.68833,-2.32773c2.06082,-0.50296 6.70582,-0.67431 6.70582,-0.67431" fill="none" stroke="#000000" stroke-width="1" stroke-linecap="round"/><path d="M245.20225,208.11375c0,0 -1.46726,-0.21889 -1.62111,-0.58326c-0.46565,-1.10286 0.59183,-1.47529 0.59183,-1.47529c0,0 3.3467,-2.24519 5.84223,-2.74497c4.07916,-0.81696 6.42326,-0.04264 6.42326,-0.04264c0,0 1.21563,0.0579 1.55332,0.68722c0.31306,0.58342 -0.18096,1.02823 -0.18096,1.02823c0,0 1.6958,0.03505 2.41724,0.88295c0.94578,1.11157 0.15594,1.39003 0.15594,1.39003c0,0 1.26494,-0.00347 1.66996,0.92131c0.31713,0.72408 -0.51203,1.18013 -0.51203,1.18013c0,0 -5.20712,0.3391 -7.70654,0.76286c-2.47516,0.41965 -7.2179,1.76743 -7.2179,1.76743c0,0 -0.99125,0.44662 -1.27567,-0.67379c-0.23639,-0.93121 0.46081,-1.42764 0.46081,-1.42764c0,0 -1.03151,0.46549 -1.3061,-0.43725c-0.18736,-0.61595 0.70569,-1.23531 0.70569,-1.23531z" fill="none" stroke="#000000" stroke-width="1" stroke-linecap="round"/><path d="M262.44968,198.78601c1.15018,0.38339 0.40356,1.84688 -0.40023,2.63312c-0.13,0.2931 -0.42355,0.49754 -0.76483,0.49754c-0.46186,0 -0.83628,-0.37442 -0.83628,-0.83628c0,-0.18665 0.06115,-0.35902 0.16451,-0.49817c0.39289,-0.79476 1.38393,-1.94719 1.83685,-1.79621z" fill="#000000" stroke="none" stroke-width="0.5" stroke-linecap="butt"/><path d="M244.55778,199.14542c1.31642,-1.17593 6.83383,-2.37225 9.54146,-1.8472c1.63401,0.31686 1.35284,1.93808 1.35284,1.93808c0,0 6.50518,-3.29028 7.2311,-2.78214c0.28324,0.19828 1.53295,2.07667 0.92706,3.17351c-0.89762,1.62499 -3.86953,2.61068 -3.86953,2.61068c0,0 3.2768,1.04143 5.38321,3.06446c3.27168,3.14221 4.20444,8.1679 -10.60834,11.59558c-1.79091,0.41442 -10.06451,0.93634 -13.55884,-2.11337c-2.85954,-2.49569 -1.20105,-8.64402 -1.20105,-8.64402l-4.26626,-0.16396c0,0 -0.79623,-1.11685 0.75362,-4.16423c0.36247,-0.7127 6.85777,0.254 6.85777,0.254c0,0 0.52293,-2.08703 1.45696,-2.92138z" fill="none" stroke="#000000" stroke-width="1" stroke-linecap="round"/></g><g><path d="M236.51091,180.97036c0,0 -1.0256,-4.0956 1.03203,-5.33746c5.68956,-3.43387 12.3485,-2.32847 12.3485,-2.32847c0,0 4.35038,-2.34374 6.74085,-1.58789c2.15327,0.68085 -0.5948,4.24215 -0.56921,7.29582c0.01305,1.55583 1.50782,3.2307 2.03827,4.70018c0.51068,1.41471 0.08678,2.64924 -1.34434,2.88658c-3.02232,0.50121 -7.14433,-3.2593 -7.14433,-3.2593l2.23009,9.19911c0,0 -6.68449,3.43094 -17.20515,2.16149c-7.48165,-0.90275 -8.99837,-6.76105 -8.99837,-6.76105c0,0 2.67148,-2.61667 4.48804,-3.78114c1.80727,-1.15851 6.38364,-3.18789 6.38364,-3.18789z" fill="#feecf7" stroke="#000000" stroke-width="0" stroke-linecap="round"/><path d="M236.51091,180.97036c0,0 -1.0256,-4.0956 1.03203,-5.33746c5.68956,-3.43387 12.3485,-2.32847 12.3485,-2.32847c0,0 4.35038,-2.34374 6.74085,-1.58789c1.68439,0.5326 0.3696,2.82775 -0.27061,5.26374c-0.70722,0.11136 -9.11847,2.47833 -9.11847,2.47833l2.36947,3.88121l2.23009,9.19911c0,0 -0.97231,0.49906 -2.75892,1.04608c-0.18269,-0.61384 -2.54552,-14.15458 -2.54552,-14.15458c0,0 -13.8315,3.3255 -13.60022,3.21161c1.78302,-0.87801 3.5728,-1.67169 3.5728,-1.67169z" fill="#dc94e7" stroke="#000000" stroke-width="0" stroke-linecap="butt"/><path d="M249.89145,173.30443c0,0 4.35038,-2.34374 6.74085,-1.58789c2.15327,0.68085 -0.5948,4.24215 -0.56921,7.29582c0.01305,1.55583 1.50782,3.2307 2.03827,4.70018c0.51068,1.41471 0.08678,2.64924 -1.34434,2.88658c-3.02232,0.50121 -7.14433,-3.2593 -7.14433,-3.2593l2.23009,9.19911c0,0 -6.68449,3.43094 -17.20515,2.16149c-7.48165,-0.90275 -8.99837,-6.76105 -8.99837,-6.76105c0,0 2.67148,-2.61667 4.48804,-3.78114c1.80727,-1.15851 6.38364,-3.18789 6.38364,-3.18789c0,0 -1.02561,-4.0956 1.03202,-5.33746c2.05763,-1.24186 12.34849,-2.32845 12.34849,-2.32845z" fill="none" stroke="#000000" stroke-width="1" stroke-linecap="round"/><g fill="none" stroke="#ff0000" stroke-width="1"><path d="M240.99671,189.17228c-2.61753,1.57784 -5.39303,1.83454 -6.86544,0.66896c-1.51155,-1.19657 -0.03158,-4.01856 2.5728,-5.75385c1.96727,-1.31078 4.59452,-2.07518 6.95426,-0.63327c1.65703,1.01252 0.05816,4.0787 -2.66162,5.71816z" stroke-linecap="butt"/><path d="M237.1825,183.92588l1.62968,5.66099" stroke-linecap="round"/></g><path d="M249.29788,173.87938c-0.15822,0.2769 -0.33031,0.54033 -0.51511,0.79043c-1.85699,2.5132 -4.99844,3.67936 -8.27648,3.61643c-1.07897,-0.02071 -3.58375,-0.18549 -3.34389,-1.83804c0.44548,-3.06916 11.25241,-4.11418 11.71015,-3.31314z" fill="#f89688" stroke="#000000" stroke-width="1" stroke-linecap="butt"/></g><g stroke="#000000" stroke-linecap="round"><path d="M249.74819,183.92588c0,0 1.77797,1.25752 2.70122,1.82735c1.91797,1.18373 3.73173,0.96026 3.73173,0.96026c0,0 -0.06714,1.51828 0.5155,3.17082c0.49653,1.40832 1.62163,2.66857 1.54419,3.2999c-0.16328,1.33106 -2.47589,2.06611 -4.53298,2.16198c-3.40422,0.15866 -4.60295,-1.12759 -4.60295,-1.12759c0,0 -0.12303,-3.93402 -0.0028,-5.75262c0.10692,-1.6172 0.6461,-4.54009 0.6461,-4.54009z" fill="#fddfbd" stroke-width="0"/><path d="M249.74819,183.92588c0,0 1.77797,1.25752 2.70122,1.82735c1.91797,1.18373 3.73173,0.96026 3.73173,0.96026c0,0 -0.04382,0.99079 0.24648,2.24277c-0.82894,-0.25009 -1.37266,0.05301 -3.1407,-0.41531c-2.50102,-0.66247 -3.47666,-2.02588 -3.91129,-2.37123c0.1784,-1.1913 0.37255,-2.24383 0.37255,-2.24383z" fill="#fa9789" stroke-width="0"/><path d="M252.4494,185.75322c1.91797,1.18373 3.73173,0.96026 3.73173,0.96026c0,0 -0.06714,1.51828 0.5155,3.17082c0.49653,1.40832 1.62163,2.66857 1.54419,3.2999c-0.16328,1.33106 -2.47589,2.06611 -4.53298,2.16198c-3.40422,0.15866 -4.60295,-1.12759 -4.60295,-1.12759c0,0 -0.12303,-3.93402 -0.0028,-5.75262c0.10692,-1.6172 0.6461,-4.54009 0.6461,-4.54009c0,0 1.77796,1.25752 2.70121,1.82735z" fill="none" stroke-width="1"/></g><g><path d="M247.68964,193.87551l3.4738,-2.61607l4.54595,2.70184l2.40164,-1.37236l2.61606,3.774c0,0 -5.35589,8.2865 -7.4958,8.63451c-1.97887,0.32182 -4.89836,-6.61886 -4.89836,-6.61886z" fill="#0066cd" stroke="#000000" stroke-width="0" stroke-linecap="round"/><path d="M253.65747,201.33418c1.97357,-1.65742 2.70693,-4.89361 5.38818,-5.8804c0.3998,-0.14713 1.26327,-0.17111 1.42679,0.36231c0.30378,0.99095 -5.77846,9.20631 -7.37912,9.14551c-1.39841,-0.05311 -3.39606,-3.06459 -4.21988,-5.17789c-0.48603,-1.24678 -0.20003,-2.06909 -0.12194,-2.08861c0.13625,-0.09627 1.56123,0.64404 1.64258,1.02069c1.36218,0.92807 3.09633,2.75869 3.2634,2.61838z" fill="#061484" stroke="none" stroke-width="0.5" stroke-linecap="butt"/><path d="M247.68964,193.87549l3.4738,-2.61607l4.54595,2.70184l2.40164,-1.37236l2.61606,3.774c0,0 -5.35589,8.28651 -7.4958,8.63451c-1.97886,0.32182 -4.89836,-6.61886 -4.89836,-6.61886" fill="none" stroke="#000000" stroke-width="1" stroke-linecap="round"/></g></g><g stroke="#000000"><g stroke-linecap="butt"><path d="M263.50012,170.40698l0.67112,-2.24427c0,0 9.10609,-0.51238 11.10246,0.60105c1.40148,0.78164 1.22824,5.04071 -1.40417,5.46723c-3.50562,0.568 -10.3694,-3.82401 -10.3694,-3.82401z" fill="#0066cd" stroke-width="0"/><path d="M263.50013,170.40698l0.23819,-0.79652c0,0 2.04309,0.27192 4.05753,0.72756c1.55696,0.35217 2.90511,0.85008 4.47988,1.19171c1.87293,0.40631 3.68283,0.6538 3.65656,0.73512c-0.31175,0.96498 -0.97874,1.79051 -2.06275,1.96616c-3.50562,0.56801 -10.36941,-3.82402 -10.36941,-3.82402z" fill="#061483" stroke-width="0"/><path d="M263.50013,170.40698l0.67112,-2.24427c0,0 9.10609,-0.51237 11.10246,0.60106c1.40149,0.78163 1.22824,5.04071 -1.40417,5.46723c-3.50562,0.56801 -10.36941,-3.82402 -10.36941,-3.82402z" fill="none" stroke-width="1"/></g><g stroke-linecap="round"><path d="M223.93381,173.35348c0,0 -8.4131,-24.7317 14.38739,-24.50477c23.37827,0.23267 19.36782,20.84105 19.36782,20.84105c0,0 6.08546,-4.9909 6.99906,-4.44766c0.77114,0.45853 -0.46344,5.44178 -1.25999,7.35021c-0.5886,1.4102 -1.39406,4.45425 -2.77282,4.64681c-0.86782,0.12119 -4.47783,-2.68563 -4.47783,-2.68563c0,0 -7.42198,4.23915 -14.23174,5.65041c-6.72454,1.39359 -16.37616,0.42739 -16.37616,0.42739c0,0 -7.17329,-0.75798 -7.36991,-3.22191c-0.16754,-2.09947 5.73418,-4.05593 5.73418,-4.05593z" fill="#fde0be" stroke-width="0"/><path d="M252.07007,176.63975c-0.03393,0.0158 -1.29971,-2.08916 -1.29971,-2.08916l-3.18715,2.57988l-4.89388,-7.22024l-6.83481,4.34634l-0.98897,-6.52311c0,0 -11.51049,3.53896 -11.51775,3.50863c-1.4307,-5.97828 -3.72588,-22.57951 14.9734,-22.3934c23.37827,0.23267 19.36782,20.84105 19.36782,20.84105c0,0 5.25006,4.201 5.18955,4.3629c-0.53183,1.42334 -1.22828,3.04751 -2.22331,3.18647c-0.86782,0.12119 -4.47783,-2.68563 -4.47783,-2.68563c0,0 -1.64979,0.94229 -4.10736,2.08626z" fill="#fc988a" stroke-width="0"/><path d="M258.09099,171.16856l3.06887,-1.42582l-1.13745,4.98002z" fill="#f79587" stroke-width="0.5"/><path d="M238.32118,148.84871c23.37827,0.23267 19.36782,20.84105 19.36782,20.84105c0,0 6.08546,-4.9909 6.99906,-4.44766c0.77114,0.45853 -0.46344,5.44178 -1.25999,7.35021c-0.5886,1.4102 -1.39406,4.45425 -2.77282,4.64681c-0.86782,0.12119 -4.47783,-2.68563 -4.47783,-2.68563c0,0 -7.42198,4.23915 -14.23174,5.65041c-6.72454,1.39359 -16.37616,0.42739 -16.37616,0.42739c0,0 -7.17329,-0.75798 -7.36991,-3.22191c-0.16754,-2.09947 5.73418,-4.05593 5.73418,-4.05593c0,0 -8.41309,-24.73169 14.3874,-24.50476z" fill="none" stroke-width="1"/></g><g stroke-linecap="round"><path d="M263.80435,162.43378c0,0 -1.85021,3.43257 -2.95188,4.83663c-0.95132,1.21244 -3.27351,3.0975 -3.27351,3.0975c0,0 -10.83645,-4.99266 -18.31353,-5.80974c-7.63732,-0.83461 -17.49296,0.05243 -17.49296,0.05243c0,0 -3.76832,-17.842 -0.1813,-20.54657c2.6119,-1.96934 10.16263,-3.87493 17.52997,-3.34946c3.35783,0.23949 12.95594,1.02545 16.09233,4.06995c4.2036,4.08044 8.59088,17.64927 8.59088,17.64927z" fill="#ff292e" stroke-width="0"/><path d="M263.80435,162.43378c0,0 -1.85021,3.43258 -2.95188,4.83663c-0.95132,1.21244 -3.2735,3.0975 -3.2735,3.0975c0,0 -5.2478,-2.41781 -10.95937,-4.1637c-0.1495,-0.0457 2.28994,-14.11878 5.19865,-19.68291c0.96319,-1.84251 2.615,-2.49418 3.39522,-1.73681c4.2036,4.08045 8.59088,17.64928 8.59088,17.64928z" fill="#ac0e49" stroke-width="0.5"/><path d="M260.85247,167.27042c-0.95132,1.21244 -3.2735,3.0975 -3.2735,3.0975c0,0 -10.83645,-4.99266 -18.31354,-5.80973c-7.63732,-0.83461 -17.49295,0.05243 -17.49295,0.05243c0,0 -3.76832,-17.84201 -0.1813,-20.54657c2.61191,-1.96934 10.16263,-3.87493 17.52997,-3.34946c3.35783,0.23949 12.95594,1.02544 16.09231,4.06994c4.2036,4.08045 8.59088,17.64928 8.59088,17.64928c0,0 -1.85021,3.43257 -2.95188,4.83662z" fill="none" stroke-width="1"/></g><g stroke-linecap="round"><path d="M222.63185,170.28208c0,0 -3.83632,1.00339 -5.58467,1.69492c-1.77513,0.70212 -4.98699,2.48651 -4.98699,2.48651c0,0 1.54487,-3.88722 2.58805,-5.64349c0.9907,-1.6679 3.5217,-4.64275 3.5217,-4.64275l-9.52519,0.81421c0,0 8.59921,-12.83478 12.1642,-14.44141c2.1262,-0.9582 10.17477,3.9475 10.17477,3.9475c0,0 1.22012,-2.70565 2.07679,-3.97161c0.78009,-1.15281 2.85502,-3.3165 2.85502,-3.3165c0,0 1.62884,6.10268 2.72,9.05184c1.13674,3.07231 3.9693,9.02769 3.9693,9.02769l14.71765,4.65608l-1.22588,6.71671l-5.82446,-6.07698l-2.53037,3.52145l-5.13693,-8.81726l-4.8712,4.18888l-1.21857,-5.05581c0,0 -10.95639,2.80146 -13.39795,4.05759c-0.66555,0.34241 -0.48523,1.80246 -0.48523,1.80246z" fill="#4fa6ec" stroke-width="0"/><path d="M225.58516,160.99536l-13.52497,13.46814c0,0 1.54487,-3.88722 2.58804,-5.64349c0.99069,-1.6679 3.5217,-4.64275 3.5217,-4.64275l-9.52518,0.8142c0,0 8.5992,-12.83478 12.1642,-14.44141c2.12619,-0.95821 10.17478,3.9475 10.17478,3.9475c0,0 1.22011,-2.70565 2.07678,-3.97161c0.78009,-1.15281 2.85502,-3.31649 2.85502,-3.31649l-2.29143,11.89172c0,0 -9.0986,-4.24969 -11.29217,-3.89048c-3.44271,0.56376 -8.15454,7.63997 -8.15454,7.63997z" fill="#66ffff" stroke-width="0"/><path d="M247.66143,168.52023l-0.64879,4.33451l-3.11256,-5.34253z" fill="#66ffff" stroke-width="0"/><path d="M212.0602,174.46351c0,0 1.54487,-3.88722 2.58804,-5.64349c0.99069,-1.6679 3.5217,-4.64275 3.5217,-4.64275l-9.52518,0.8142c0,0 8.5992,-12.83478 12.1642,-14.44141c2.12619,-0.95821 10.17478,3.9475 10.17478,3.9475c0,0 1.22011,-2.70565 2.07678,-3.97161c0.78009,-1.15281 2.85502,-3.31649 2.85502,-3.31649c0,0 1.62883,6.10267 2.71999,9.05183c1.13673,3.07231 3.9693,9.02769 3.9693,9.02769l14.71765,4.65608l-1.22588,6.71671l-5.82446,-6.07697l-2.53038,3.52145l-5.13694,-8.81726l-4.87121,4.18888l-1.21857,-5.05581c0,0 -10.95639,2.80146 -13.39795,4.05759c-0.66555,0.34241 -0.48523,1.80246 -0.48523,1.80246c0,0 -3.8363,1.00339 -5.58466,1.69492c-1.74836,0.69153 -4.98699,2.48648 -4.98699,2.48648z" fill="none" stroke-width="1"/></g></g><g><path d="M222.568,155.38548c0,0 2.68071,5.47331 5.58547,8.91373c2.1277,2.52007 7.00772,7.00049 7.00772,7.00049c0,0 2.42869,-1.92673 5.13943,-4.43277c3.37783,-3.12275 7.34874,-7.09682 9.40635,-8.80333c2.33852,-1.93949 5.56028,-3.43915 5.56028,-3.43915c0,0 -8.31921,8.09315 -11.89152,11.41878c-0.08122,0.0756 -0.82931,2.25521 -1.29956,4.43336c-0.48975,2.26843 -0.71746,4.53608 -1.5944,4.46505c-2.50913,-0.20322 -2.00165,-4.51079 -2.62429,-3.96671c-1.32299,1.1561 -2.29052,1.98938 -2.29052,1.98938c0,0 -1.42354,-0.84445 -3.32066,-2.43436c-0.03479,-0.02915 -0.12015,0.80737 -0.13436,1.85101c-0.01873,1.3763 -0.05244,3.04694 -1.0583,2.91455c-0.96901,-0.12753 -1.84906,-1.80665 -2.23417,-3.86218c-0.38915,-2.07711 -0.27866,-4.53064 -0.35126,-4.61488c-4.35339,-5.05005 -5.90022,-11.43298 -5.90022,-11.43298z" fill="#000000" stroke="#000000" stroke-width="0" stroke-linecap="round"/><path d="M244.77619,174.79744c-0.90075,1.17422 -1.98048,1.95213 -3.1688,2.63884c1.40301,-0.04803 2.83284,-0.22801 3.75826,-0.85869c0.68152,-0.46445 1.01785,-1.43482 1.39798,-2.25982c-0.60168,0.0256 -1.22465,0.0795 -1.84366,0.11101zM232.22173,177.01265c0,0 4.68646,0.17055 6.54999,0.44214c0.14672,-0.00355 0.30116,-0.00519 0.46198,-0.00576c1.65144,-0.86431 3.18615,-1.6 4.39334,-3.00464c-0.23294,-0.00972 -1.2593,-1.06013 -1.2593,-1.06013c0,0 3.48175,-0.16751 4.77445,-0.18985l0.48557,0.06923c0.09793,-0.00843 0.20938,0.01349 0.32936,0.09157c0.09125,0.05007 0.18835,0.13174 0.23728,0.26285c0.05638,0.12809 0.04372,0.25434 0.01325,0.35386c-0.03148,0.1394 -0.0959,0.23277 -0.1718,0.29502c-0.72137,0.97525 -0.96104,2.46959 -2.02634,3.221c-1.80458,1.27287 -5.19167,1.04316 -7.30704,1.07973c-0.80781,-0.11773 -2.8683,-0.28132 -4.10603,-0.5519c-1.62643,-0.35555 -2.3747,-1.00313 -2.3747,-1.00313z" fill="#000000" stroke="none" stroke-width="0.5" stroke-linecap="butt"/><path d="M244.94518,174.37907c0.61901,-0.03152 1.26447,-0.06454 1.86615,-0.09015c-0.38013,0.82499 -0.71622,1.85267 -1.39775,2.31713c-0.92542,0.63068 -2.4509,0.81105 -3.85391,0.85907c1.18833,-0.6867 2.34252,-1.54238 3.24327,-2.71661z" data-paper-data="{&quot;noHover&quot;:false,&quot;origItem&quot;:[&quot;Path&quot;,{&quot;applyMatrix&quot;:true,&quot;segments&quot;:[[[815.6142,327.59136],[0,0],[-1.65831,2.07269]],[[809.83498,332.20743],[2.15617,-1.1879],[2.51774,-0.03472]],[[816.60604,330.80527],[-1.68264,1.09707],[1.23918,-0.80793]],[[819.1958,326.80402],[-0.7119,1.46551],[-1.07993,0.02386]],[[815.88553,326.93555],[1.1112,-0.03384],[0,0]]],&quot;closed&quot;:true}]}" fill="#ffffff" stroke="none" stroke-width="0.5" stroke-linecap="butt"/></g><path d="M176.16667,243.83333v-127.66667h127.66667v127.66667z" fill="none" stroke="none" stroke-width="NaN" stroke-linecap="butt"/></g></g></svg>