<svg version="1.1" xmlns="http://www.w3.org/2000/svg" xmlns:xlink="http://www.w3.org/1999/xlink" width="189.26654" height="221.55319" viewBox="0,0,189.26654,221.55319"><g transform="translate(-145.36673,-69.22341)"><g data-paper-data="{&quot;isPaintingLayer&quot;:true}" fill-rule="nonzero" stroke-linejoin="miter" stroke-miterlimit="10" stroke-dasharray="" stroke-dashoffset="0" style="mix-blend-mode: normal"><path d="M145.36673,290.77659v-221.55318h189.26654v221.55319z" fill="none" stroke="none" stroke-width="NaN" stroke-linecap="butt"/><g data-paper-data="{&quot;origRot&quot;:0}" stroke="#000000" stroke-linecap="round"><path d="M251.01469,219.74981c0,0 -1.35121,-4.60662 0.14198,-4.99648c4.4062,-1.15037 8.22761,-3.89917 12.75658,-3.42357c1.88067,0.19749 3.67409,4.09319 3.67409,4.09319l12.85615,30.50976c0,0 1.36856,3.13303 2.09143,4.96089c0.77288,1.95428 0.5936,5.25906 -1.40664,5.90375c-7.3442,2.36718 -11.48314,5.19491 -16.43432,5.50024c-1.8038,0.11124 -3.72541,0.11086 -4.85472,-1.30006c-1.47521,-1.84303 -1.99484,-6.29453 -1.99484,-6.29453z" data-paper-data="{&quot;origPos&quot;:null}" fill="#ff0000" stroke-width="3"/><path d="M283.48008,254.11018c0,0 -4.97613,4.169 -9.86333,5.58087c-3.74963,1.08322 -12.15527,2.44574 -12.15527,2.44574c0,0 -2.02333,-2.12964 -2.553,-3.64224c-0.55798,-1.59345 -0.23398,-4.31663 -0.23398,-4.31663l22.17321,-7.2356z" data-paper-data="{&quot;origPos&quot;:null}" fill="#976e57" stroke-width="2"/><path d="M251.18193,220.03546c0,0 -1.35121,-4.60662 0.142,-4.99648c4.4062,-1.15037 8.22761,-3.89917 12.75659,-3.42356c1.88067,0.19749 3.67407,4.09318 3.67407,4.09318l12.85615,30.50976c0,0 1.36858,3.13305 2.09146,4.96088c0.77288,1.95428 0.59359,5.25904 -1.40664,5.90375c-7.3442,2.36718 -11.48314,5.19492 -16.43431,5.50026c-1.8038,0.11124 -3.72541,0.11085 -4.85471,-1.30005c-1.47521,-1.84303 -1.99485,-6.29452 -1.99485,-6.29452z" data-paper-data="{&quot;origPos&quot;:null}" fill="#474747" stroke-width="3"/></g><g data-paper-data="{&quot;index&quot;:null,&quot;origRot&quot;:0}" stroke="#000000" stroke-linecap="round"><path d="M238.45529,253.55395c0,0 -0.68657,4.42883 -2.22997,6.21513c-1.18153,1.3675 -3.1018,1.29565 -4.90014,1.11673c-4.93621,-0.49114 -8.96596,-3.47243 -16.21603,-6.11389c-1.97459,-0.71942 -2.02956,-4.02858 -1.18381,-5.95245c0.79104,-1.79937 2.27636,-4.87878 2.27636,-4.87878l13.9935,-30.00513c0,0 1.93854,-3.82555 3.82527,-3.95223c4.54364,-0.30508 8.25907,2.58533 12.61891,3.90048c1.47749,0.44569 -0.04585,4.99829 -0.04585,4.99829z" data-paper-data="{&quot;origPos&quot;:null}" fill="#ff0000" stroke-width="3"/><path d="M215.75987,244.93449l21.88565,8.06363c0,0 0.22144,2.73345 -0.39601,4.30478c-0.58613,1.49164 -2.68806,3.54374 -2.68806,3.54374c0,0 -8.3485,-1.67741 -12.05477,-2.90075c-4.83068,-1.5945 -9.64665,-5.94754 -9.64665,-5.94754z" data-paper-data="{&quot;origPos&quot;:null}" fill="#976e57" stroke-width="2.5"/><path d="M238.27745,253.83315c0,0 -0.68657,4.42883 -2.22997,6.21513c-1.18153,1.3675 -3.1018,1.29566 -4.90014,1.11674c-4.93621,-0.49114 -8.96596,-3.47242 -16.21603,-6.11389c-1.97459,-0.71942 -2.02956,-4.02858 -1.18381,-5.95244c0.79104,-1.79937 2.27636,-4.87878 2.27636,-4.87878l13.9935,-30.00513c0,0 1.93853,-3.82555 3.82527,-3.95223c4.54364,-0.30508 8.25909,2.58534 12.61892,3.90048c1.47749,0.44569 -0.04586,4.99828 -0.04586,4.99828c0,0 -2.05782,8.76705 -3.37493,14.37844c-1.85895,7.91978 -4.76333,20.29344 -4.76333,20.29344z" data-paper-data="{&quot;origPos&quot;:null}" fill="#474747" stroke-width="1.5"/></g><g><g><g data-paper-data="{&quot;origRot&quot;:0}" stroke="#000000" stroke-width="3" stroke-linecap="round"><path d="M299.68972,194.37253c0.94717,2.03011 -6.77055,4.20339 -6.77055,4.20339c0,0 -20.25545,6.33111 -29.80954,9.36272c-4.19996,0.66918 -20.14856,-31.17947 -18.53797,-36.23274c0.71796,-2.25259 7.87351,-7.89039 9.62504,-7.31652c3.33389,1.09232 13.62402,12.50606 13.62402,12.50606l-3.36253,1.8179l9.24929,-3.89485c0,0 10.36733,-5.4949 15.33428,-6.55207c2.75471,-0.58631 10.64793,26.1061 10.64793,26.1061z" data-paper-data="{&quot;origPos&quot;:null}" fill="#582700"/><path d="M291.22074,197.59678l-10.53396,-25.37637" fill="none"/><path d="M287.93753,199.24299l-10.77565,-25.27603" data-paper-data="{&quot;origPos&quot;:null}" fill="none"/></g><path d="M291.28884,198.18535l-2.36662,0.99985l-10.9377,-25.88941l2.36662,-0.99985z" fill="#ffffff" stroke="none" stroke-width="0" stroke-linecap="butt"/><path d="M262.8909,208.16215l-6.58559,-7.71811l-9.4572,-19.80354l-1.67955,-7.57807l1.66948,-4.3831l6.15715,-3.01951l1.23143,-0.60391l12.38567,11.23865l-2.36223,1.41304l0.80522,1.64192l11.17959,-4.71877l11.563,25.13582l-23.77619,7.58642z" fill="#ffcb66" stroke="#000000" stroke-width="0.5" stroke-linecap="round"/></g><g fill="none" stroke="none" stroke-width="1" stroke-linecap="butt" font-family="sans-serif" font-weight="normal" font-size="12" text-anchor="start"/></g><g><g><path d="M231.14848,171.11494c0,0 2.85265,-14.25697 5.0406,-14.66664c6.56384,-1.22904 21.27185,0.63975 31.14179,1.26808c1.5258,0.09713 1.98358,13.68707 1.98358,13.68707l-0.16877,30.67947c0,0 -0.70751,14.9432 -2.37199,14.83724c-14.81698,-0.94326 -32.23762,-1.19792 -38.78844,-2.45758c-2.18359,-0.41987 -0.35612,-16.0932 -0.35612,-16.0932z" data-paper-data="{&quot;origPos&quot;:null}" fill="#ffcb66" stroke="#000000" stroke-width="3.5" stroke-linecap="round"/><path d="M249.43437,180.49443c-1.28906,-0.08206 -1.13102,-2.56454 -1.13102,-2.56454c0.32777,-5.14884 0.76091,-11.95264 1.08869,-17.10148c0,0 0.15804,-2.48248 1.4471,-2.40041c1.28906,0.08206 1.13102,2.56454 1.13102,2.56454c-0.32777,5.14884 -0.65556,10.29766 -0.98333,15.4465l-0.10535,1.65498c0,0 -0.15804,2.48248 -1.4471,2.40041z" fill="#ffffff" stroke="none" stroke-width="0.5" stroke-linecap="butt"/><path d="M261.00777,187.57735c-1.28906,-0.08206 -1.09053,-3.20074 -1.09053,-3.20074c0.41178,-6.46839 0.95592,-15.0159 1.3677,-21.48427c0,0 0.19853,-3.11869 1.48759,-3.03662c1.28906,0.08206 1.09053,3.20074 1.09053,3.20074c-0.41178,6.46839 -0.82357,12.93677 -1.23534,19.40517l-0.13236,2.07912c0,0 -0.19853,3.11869 -1.48759,3.03662z" fill="#ffffff" stroke="none" stroke-width="0.5" stroke-linecap="butt"/></g><g stroke="#000000" stroke-width="0.5" stroke-linecap="butt"><path d="M263.1472,197.70827c-0.42933,6.74408 -5.38304,11.91804 -11.06442,11.55636c-5.68138,-0.36168 -9.93901,-6.12204 -9.50968,-12.86612c0.42933,-6.74408 5.38304,-11.91804 11.06442,-11.55636c5.68138,0.36168 9.93901,6.12204 9.50968,12.86612z" fill="#ffa924"/><path d="M256.63159,185.98286c-0.0003,0.01121 -0.0008,0.02264 -0.00154,0.03426c-0.03969,0.62346 -0.66314,0.58377 -0.66314,0.58377l-0.12469,-0.00794c-0.45553,-0.029 -2.53388,-0.13335 -2.83653,-0.2882c-0.25265,-0.12927 -0.16881,-0.55494 -0.34221,-0.7796c-0.1666,-0.21583 -0.41409,-0.35848 -0.64641,-0.50119c-0.36944,-0.22694 -0.89182,-0.25693 -1.15217,-0.60363c-0.2405,-0.32027 -0.24168,-0.78875 -0.19182,-1.18615c0.2342,-1.86637 1.38518,-1.81236 2.85961,-1.54886c0.44167,0.12719 0.90086,0.2045 1.32502,0.38155c0.1866,0.07788 0.28596,0.31289 0.47943,0.37162c0.13752,0.04175 0.27718,-0.08035 0.41974,-0.09867c0.00608,-0.00079 1.76142,-0.1385 1.77882,-0.13985c1.18665,-0.0921 2.44743,-0.06075 3.62879,0.10087c0.75276,0.103 2.44961,0.39911 2.83753,1.18466c0.55244,1.11873 -1.29939,1.73403 -1.76302,1.88999c-1.37205,0.46154 -2.49183,0.04907 -3.86386,0.12102c-0.46736,0.0245 -1.23369,0.30237 -1.74355,0.48634z" fill="#1cc735"/></g></g><path d="M269.16384,158.55623c-12.08615,-0.14815 -23.80595,-0.32794 -28.57299,-1.43893c-4.35675,-1.01538 -5.614,-3.8049 -5.614,-3.8049c0,0 -1.70171,-2.47288 -1.75339,-4.00702c-0.15503,-4.60242 0.01851,-17.75163 1.21765,-29.06521c0.04002,-0.37759 0.07618,-0.58834 0.13863,-0.96288c0.18732,-1.12359 1.10434,-5.48063 1.10434,-5.48063c0,0 3.22638,-1.58713 4.96935,-2.02134c5.22892,-1.30266 18.40483,0.48577 32.30619,1.21756c1.25998,0.06633 3.38315,1.79621 3.38315,1.79621c0,0 1.46939,3.17176 1.37593,5.15308c-0.60413,12.80959 -1.31971,26.98028 -1.69537,30.21521c-0.12521,1.07831 -2.05761,5.22511 -2.05761,5.22511z" fill="#582600" stroke="#000000" stroke-width="2.5" stroke-linecap="round"/><g><g data-paper-data="{&quot;index&quot;:null}"><path d="M285.6845,168.63743c2.15718,-0.58003 5.18171,-5.29909 5.72038,-3.29571c0.27438,1.02045 4.92449,19.75756 4.53185,20.85003c-0.37822,1.05224 -1.10269,1.8464 -2.16106,2.13099c-0.72008,0.1936 -1.92136,0.14344 -2.75044,-0.21077c-1.6547,-0.70693 -11.05479,-18.03887 -11.41365,-19.37353c-0.53866,-2.0034 3.91578,0.47902 6.07294,-0.10102z" fill="#e99b00" stroke="#000000" stroke-width="1.5" stroke-linecap="butt"/><g stroke-linecap="butt"><path d="M283.93395,162.02946c3.90829,-1.05088 7.63908,0.18919 8.33294,2.76979c0.69388,2.58059 -1.9119,5.52447 -5.82019,6.57537c-3.90829,1.05088 -7.63909,-0.1892 -8.33296,-2.76979c-0.69388,-2.58059 1.91192,-5.52447 5.8202,-6.57535z" fill="#ffb727" stroke="#000000" stroke-width="1.5"/><path d="M283.10425,170.88422c0,0 -1.55961,0.05256 -2.93326,-0.76871c-0.64937,-0.4014 -1.71965,-1.87545 -1.71965,-1.87545l3.56515,0.56627z" fill="#ffd683" stroke="none" stroke-width="0"/><path d="M286.34797,170.60239l-1.72077,0.41318c0,0 -0.41935,-0.59443 -0.54366,-0.96072c-0.10616,-0.31282 -0.2508,-1.24503 -0.2508,-1.24503l1.49492,-0.1115z" fill="#ffd683" stroke="none" stroke-width="0"/></g><g><path d="M285.58165,167.74715c-5.3916,1.4497 -11.86935,-0.80398 -13.31905,-6.19553c-1.4497,-5.3916 1.34182,-10.23636 6.73339,-11.68606c5.3916,-1.4497 11.21381,1.67152 12.66352,7.06309c1.4497,5.3916 -0.68629,9.36879 -6.07784,10.8185z" fill="#e99b00" stroke="#000000" stroke-width="1.5" stroke-linecap="butt"/><path d="M277.37119,151.04953c0,0 1.65593,0.92187 3.85984,2.40888c2.19857,1.48339 4.35577,4.00587 4.9892,6.36158c1.26837,4.71723 0.34434,6.83623 -3.57299,7.88955c-1.90579,0.51244 -3.95324,-0.04125 -5.49975,-1.17576c-2.17069,-1.59239 -4.21848,-4.01477 -4.93772,-6.68976c-1.26837,-4.71723 5.16144,-8.7945 5.16144,-8.7945z" fill="#ffb727" stroke="none" stroke-width="0" stroke-linecap="butt"/><path d="M290.84251,157.51019c0,0 -1.9754,4.05779 -8.32297,5.52424c-6.29598,1.45454 -9.952,-1.52903 -9.952,-1.52903" fill="none" stroke="#000000" stroke-width="0.8" stroke-linecap="round"/><path d="M290.81809,162.97129c0,0 -1.72588,2.46013 -7.65149,3.13188c-4.11179,0.46612 -8.32284,-0.61652 -8.32284,-0.61652" fill="none" stroke="#000000" stroke-width="0.75" stroke-linecap="round"/><path d="M289.81575,154.97287c0,0 -1.31321,2.34964 -7.45362,3.40858c-6.38414,1.10098 -10.06089,-1.28291 -10.06089,-1.28291" fill="none" stroke="#000000" stroke-width="0.8" stroke-linecap="round"/><path d="M273.54817,153.83505c0,0 4.10873,-1.15058 8.37286,-1.17356c3.23739,-0.01747 7.51005,1.09426 7.51005,1.09426" fill="none" stroke="#000000" stroke-width="0.8" stroke-linecap="round"/><path d="M283.0589,150.12941c0,0 3.25698,1.64973 4.46835,7.00904c1.29811,5.7431 -0.07713,9.32213 -0.07713,9.32213" fill="none" stroke="#000000" stroke-width="0.8" stroke-linecap="round"/><path d="M284.62032,167.68083c0,0 -0.96708,-2.83388 -1.33262,-4.58192c-0.30774,-1.47176 -0.38438,-4.40944 -0.84993,-7.05336c-0.5294,-3.00648 -1.43203,-5.65114 -1.43203,-5.65114" fill="none" stroke="#000000" stroke-width="0.8" stroke-linecap="round"/><path d="M282.12845,168.236c0,0 -3.09456,-3.15046 -4.49278,-9.00277c-0.89084,-3.72869 0.77744,-8.65846 0.77744,-8.65846" fill="none" stroke="#000000" stroke-width="0.8" stroke-linecap="round"/><path d="M277.07956,167.1821c0,0 -2.117,-2.46379 -2.66116,-7.97534c-0.37786,-3.82737 1.0043,-7.36856 1.0043,-7.36856" fill="none" stroke="#000000" stroke-width="0.8" stroke-linecap="round"/><path d="M273.58941,159.96747c-0.38444,0.10338 -0.79277,-0.17241 -0.91203,-0.61601c-0.11928,-0.44357 0.0957,-0.88697 0.48013,-0.99033c0.38444,-0.10338 0.79278,0.17241 0.91204,0.616c0.11928,0.44357 -0.09571,0.88698 -0.48013,0.99034z" fill="#ffd683" stroke="none" stroke-width="0" stroke-linecap="butt"/><path d="M273.55955,156.76021c-0.22178,0.05963 -0.44992,-0.07182 -0.50957,-0.2936c-0.05964,-0.22179 0.07182,-0.44992 0.2936,-0.50957c0.22178,-0.05963 0.44993,0.07182 0.50957,0.2936c0.05964,0.22179 -0.07181,0.44993 -0.2936,0.50957z" fill="#ffd683" stroke="none" stroke-width="0" stroke-linecap="butt"/></g></g><path d="M282.07985,171.24334c3.04082,9.39582 2.89164,11.21105 2.89164,11.21105c0.3172,1.19765 -0.87512,1.39123 -0.87512,1.39123c0,0 -2.26652,0.65785 -3.71719,1.07889c-0.95257,0.27648 -2.44086,0.70845 -2.44086,0.70845c0,0 -0.97976,0.11725 -1.13892,-0.54031c-0.95747,-3.95599 -2.08324,-7.68485 -2.3748,-9.71758c-0.09719,-0.67759 0.6297,-1.65789 0.6297,-1.65789l4.42728,-1.84798c0,0 1.77116,-0.86273 2.59826,-0.62587z" fill="#582700" stroke="#000000" stroke-width="3" stroke-linecap="round"/><path d="M293.62845,169.2005c5.84502,19.55858 5.6482,23.29777 5.6482,23.29777c0.61833,2.48927 -1.52039,2.82496 -1.52039,2.82496c0,0 -4.05402,1.23651 -6.64876,2.02795c-1.70383,0.51969 -4.36584,1.33164 -4.36584,1.33164c0,0 -1.75905,0.18955 -2.07153,-1.17636c-1.87985,-8.21756 -4.05365,-15.97537 -4.65882,-20.18717c-0.20172,-1.40393 1.06804,-3.38859 1.06804,-3.38859l7.89662,-3.57744c0,0 3.1542,-1.686 4.65248,-1.15275z" fill="#582700" stroke="#000000" stroke-width="3" stroke-linecap="round"/></g><path d="M271.60434,138.61519c0.1623,-3.44113 0.70713,-6.21124 1.21692,-6.18719c0.50979,0.02403 0.7915,2.83313 0.62922,6.27426c-0.1623,3.44113 -0.70713,6.21125 -1.21692,6.1872c-0.50979,-0.02403 -0.7915,-2.83313 -0.62922,-6.27427z" fill="none" stroke="#000000" stroke-width="2.5" stroke-linecap="butt"/><path d="M264.30908,138.75863c0.1653,-3.50487 0.60927,-6.33151 0.9916,-6.31347c0.38235,0.01805 0.5583,2.87391 0.39301,6.37878c-0.1653,3.50487 -0.60924,6.33149 -0.99159,6.31346c-0.38235,-0.01805 -0.55831,-2.87389 -0.39302,-6.37876z" fill="none" stroke="#000000" stroke-width="2.5" stroke-linecap="butt"/><path d="M234.46646,113.3127l0.65058,-12.98371l43.74511,2.19196l-0.65058,12.98371z" fill="#000000" stroke="none" stroke-width="0" stroke-linecap="butt"/><path d="M268.40176,131.44197c-1.90994,1.16028 -7.43101,4.02124 -8.90285,1.95647c-1.97247,-2.76709 6.0466,-7.34713 7.45965,-7.00159c0.25807,-0.07413 0.53255,-0.10762 0.81571,-0.09343c1.37899,0.06909 2.44086,1.243 2.37175,2.62198c0.50918,0.67392 -1.21822,2.19701 -1.74426,2.51657z" fill="#582600" stroke="none" stroke-width="0.5" stroke-linecap="butt"/><g><g data-paper-data="{&quot;index&quot;:null}"><g stroke="#000000" stroke-width="3" stroke-linecap="round"><path d="M215.88127,187.81027l13.88513,-26.94928c0,0 2.71503,-5.07764 3.89616,-5.11233c3.5434,-0.10405 9.35809,3.12961 15.80159,5.18766c1.07103,0.34209 -0.2893,6.1237 -0.2893,6.1237c0,0 -2.55108,9.00633 -4.18392,14.77085c-2.48665,8.77878 -6.37168,22.49457 -6.37168,22.49457c0,0 -1.75261,7.08093 -3.6716,6.29941c0,0 -10.20971,0.67107 -24.6243,-8.66045c0.50706,-4.58444 5.55791,-14.15415 5.55791,-14.15415z" data-paper-data="{&quot;origPos&quot;:null}" fill="#582700"/><path d="M215.2698,189.82922l24.57466,9.13938l-1.20876,3.1974l-24.62769,-8.88567z" data-paper-data="{&quot;origPos&quot;:null}" fill="none"/></g><path d="M216.1342,189.65013l17.26229,-33.49885l15.12698,5.59776l0.98234,1.07579l-9.29035,35.78745z" fill="#ffcb66" stroke="#000000" stroke-width="1" stroke-linecap="round"/><path d="M214.36891,192.90149l0.84044,-2.18652l24.461,8.85892l-0.84044,2.18652z" fill="#ffffff" stroke="none" stroke-width="0" stroke-linecap="butt"/></g><path d="M235.22927,212.19453c0,0 -2.43303,1.60703 -3.61411,1.33073c-7.86683,-1.84034 -15.48975,-3.64792 -18.43351,-5.04518c-2.6904,-1.27699 -3.08947,-3.23788 -3.08947,-3.23788c0,0 -0.73705,-1.82313 -0.53893,-2.80914c0.59438,-2.95803 2.69497,-11.32017 5.1876,-18.36331c0.08318,-0.23506 0.13865,-0.36426 0.23601,-0.59413c0.29209,-0.68962 1.54917,-3.33629 1.54917,-3.33629c0,0 2.34588,-0.54629 3.54922,-0.57149c3.61006,-0.07557 11.94032,2.96842 20.90381,5.44323c0.81243,0.22431 1.93687,1.63441 1.93687,1.63441c0,0 0.47978,2.23536 0.11934,3.48565c-2.33032,8.08331 -4.9391,17.01867 -5.67323,19.0278z" data-paper-data="{&quot;index&quot;:null}" fill="#582700" stroke="#000000" stroke-width="2.5" stroke-linecap="round"/></g><g data-paper-data="{&quot;index&quot;:null}" stroke="#000000" stroke-width="1" stroke-linecap="butt"><g data-paper-data="{&quot;index&quot;:null}" fill="#000000"><path d="M257.8128,148.65395c5.49898,1.18802 3.13454,3.1095 3.13454,3.1095l-7.32977,-1.61032c0,0 -1.67098,-2.7096 4.19523,-1.49917z"/></g><g data-paper-data="{&quot;index&quot;:null}" fill="#ffffff"><path d="M257.8128,148.65394c1.12482,0.24301 1.92063,0.51671 2.47495,0.79838c0.00993,0.00505 -0.50392,0.39542 -0.61104,0.85417c-0.1308,0.56012 0.13888,1.2083 0.13718,1.20793c-1.23749,-0.27187 -6.19632,-1.36131 -6.19632,-1.36131c0,0 -1.67098,-2.7096 4.19523,-1.49917z"/></g></g></g></g></svg>