<svg version="1.1" xmlns="http://www.w3.org/2000/svg" xmlns:xlink="http://www.w3.org/1999/xlink" width="45.64292" height="45.64292" viewBox="0,0,45.64292,45.64292"><defs><linearGradient x1="240" y1="160.17855" x2="240" y2="199.82147" gradientUnits="userSpaceOnUse" id="color-1"><stop offset="0" stop-color="#505050"/><stop offset="1" stop-color="#313131"/></linearGradient></defs><g transform="translate(-217.17854,-157.17855)"><g data-paper-data="{&quot;isPaintingLayer&quot;:true}" fill-rule="nonzero" stroke-linecap="butt" stroke-linejoin="miter" stroke-miterlimit="10" stroke-dasharray="" stroke-dashoffset="0" style="mix-blend-mode: normal"><path d="M220.17854,199.82147v-39.64292h39.64292v39.64292z" fill="url(#color-1)" stroke="#000000" stroke-width="6"/><g fill="#ffffff" stroke="none" stroke-width="0"><path d="M232.4106,193.38219c-0.48696,-3.75338 -1.51418,-19.39941 -1.51418,-19.39941l19.40285,0.11202c0,0 -2.39426,15.56159 -2.96057,19.34453c-0.25431,1.69886 -1.8791,2.09373 -3.11581,2.09373c-1.66884,0 -6.26244,0 -9.00299,0c-1.32132,0 -2.59529,-0.50133 -2.8093,-2.15086z"/><path d="M228.59018,172.94106v-3.40294h24.07412v3.40294z"/><path d="M234.0087,170.0217c0,-3.06781 2.90305,-5.55476 6.48415,-5.55476c3.5811,0 6.48415,2.48695 6.48415,5.55476c0,0 -1.87442,0.06343 -2.16136,-0.006c-1.83739,-3.90803 -6.60233,-3.58618 -9.03193,-0.01051c-0.14858,0.0683 -1.77501,0.00717 -1.77501,0.01652z"/></g><g fill="#505050" stroke="none" stroke-width="0"><path d="M235.30877,187.09024l7.50597,-7.50597l1.87649,1.87649l-7.50597,7.50597z"/><path d="M242.81474,188.96673l-7.50597,-7.50597l1.8765,-1.87649l7.50597,7.50597z" data-paper-data="{&quot;index&quot;:null}"/></g></g></g></svg>