<svg version="1.1" xmlns="http://www.w3.org/2000/svg" xmlns:xlink="http://www.w3.org/1999/xlink" width="225.55256" height="208" viewBox="0,0,225.55256,208"><defs><radialGradient cx="207.55279" cy="218.00869" r="43.87922" gradientUnits="userSpaceOnUse" id="color-1"><stop offset="0" stop-color="#8f8256"/><stop offset="1" stop-color="#8d681f"/></radialGradient><radialGradient cx="202.77355" cy="222.53811" r="18.68929" gradientUnits="userSpaceOnUse" id="color-2"><stop offset="0" stop-color="#0c0b0b"/><stop offset="1" stop-color="#533907"/></radialGradient><radialGradient cx="225.59824" cy="239.82634" r="15.62237" gradientUnits="userSpaceOnUse" id="color-3"><stop offset="0" stop-color="#36270c"/><stop offset="1" stop-color="#0c0b0b"/></radialGradient><radialGradient cx="188.01161" cy="197.81189" r="15.62237" gradientUnits="userSpaceOnUse" id="color-4"><stop offset="0" stop-color="#36270c"/><stop offset="1" stop-color="#0c0b0b"/></radialGradient></defs><g transform="translate(-153.5,-76)"><g data-paper-data="{&quot;isPaintingLayer&quot;:true}" fill-rule="nonzero" stroke-linejoin="miter" stroke-miterlimit="10" stroke-dasharray="" stroke-dashoffset="0" style="mix-blend-mode: normal"><g data-paper-data="{&quot;index&quot;:null}"><path d="M289.87871,185.63652c0.4281,3.43645 -12.6443,15.33407 -15.12244,15.22346c-2.69335,-0.12022 -11.4881,-13.53552 -11.4881,-13.53552l2.41178,-2.96308l-15.59751,19.89311c0,0 -5.04044,7.14203 -6.78255,5.43021c0,0 -11.4056,-3.71418 -22.9599,-20.43802c2.58044,-4.8984 12.31088,-13.37801 12.31088,-13.37801c0,0 20.73356,-19.82913 25.67072,-18.63797c4.93713,1.19114 31.15538,25.18104 31.5571,28.40581z" fill="#68330c" stroke="none" stroke-width="3" stroke-linecap="round"/><path d="M250.03196,204.58597c0,0 -5.83205,6.38325 -7.52183,4.67514c0,0 -11.1674,-3.81246 -22.29968,-20.42406c1.40454,-2.577 4.86576,-6.14792 7.75935,-8.8933c0.37959,0.3795 0.73143,0.71609 1.0231,0.99121c6.46472,6.09825 16.05021,13.84536 22.83695,20.72184c0.06726,0.06815 -1.79789,2.92921 -1.79789,2.92921z" fill="#ffddb7" stroke="#000000" stroke-width="2" stroke-linecap="butt"/><path d="M250.6531,202.36014l-23.00753,-21.87721l2.71944,-2.58901l22.95365,21.43157z" data-paper-data="{&quot;index&quot;:null}" fill="#ffffff" stroke="#000000" stroke-width="2" stroke-linecap="round"/><path d="M289.62767,185.67431c0.4281,3.43645 -12.64428,15.33405 -15.12242,15.22343c-2.69334,-0.12022 -11.48808,-13.5355 -11.48808,-13.5355l2.41177,-2.96309l-15.59749,19.89313c0,0 -5.04041,7.14203 -6.78252,5.43022c0,0 -11.40561,-3.71418 -22.95991,-20.43802c2.58044,-4.89842 12.31087,-13.37804 12.31087,-13.37804c0,0 20.73357,-19.82911 25.67073,-18.63795c4.9371,1.19113 31.15536,25.18104 31.55708,28.40581z" data-paper-data="{&quot;origPos&quot;:null}" fill="none" stroke="#000000" stroke-width="2.5" stroke-linecap="round"/></g><path d="M273.47277,224.1931c0,0 -0.97666,-5.23613 0.71521,-5.49957c4.99244,-0.7774 9.51799,-3.38453 14.46423,-2.35334c2.05395,0.42821 3.59821,4.929 3.59821,4.929l10.78133,35.11568c0,0 1.16051,3.61143 1.75416,5.70992c0.63469,2.24364 0.06741,5.87164 -2.21263,6.35974c-8.3716,1.79219 -13.25649,4.45099 -18.75605,4.23462c-2.00357,-0.07883 -4.12477,-0.29403 -5.21366,-1.97772c-1.42245,-2.19935 -1.49851,-7.17128 -1.49851,-7.17128z" data-paper-data="{&quot;index&quot;:null}" fill="#000000" stroke="#000000" stroke-width="3" stroke-linecap="round"/><g data-paper-data="{&quot;index&quot;:null}" stroke-linecap="round"><path d="M264.55428,174.28108c0,0 7.25872,-14.0044 9.66262,-13.77385c7.2117,0.69162 21.98196,7.06033 32.08176,10.6818c1.56132,0.55984 -2.04605,14.86389 -2.04605,14.86389l-9.39688,31.93023c0,0 -5.22883,15.36449 -6.93207,14.75376c-15.16204,-5.43664 -33.24518,-10.93803 -39.6953,-14.22003c-2.15003,-1.09398 4.46573,-16.88295 4.46573,-16.88295z" data-paper-data="{&quot;origPos&quot;:null}" fill="#68330c" stroke="#000000" stroke-width="3.5"/><path d="M257.26825,210.03395c2.07288,4.99853 0.39806,2.10501 3.53897,6.51146c2.40816,3.37849 9.69036,7.63564 9.69036,7.63564c0,0 -6.44576,-2.10728 -12.54432,-4.42117c-2.66475,-1.01104 -6.97158,-3.31309 -6.97158,-3.31309c0,0 0.18246,-3.877 1.06604,-6.34119c2.42457,-6.76178 6.28654,-15.28688 6.28654,-15.28688c0,0 -2.48824,11.78556 -1.06597,15.21522z" data-paper-data="{&quot;origPos&quot;:null}" fill="#55250c" stroke="#55250c" stroke-width="2"/></g><g data-paper-data="{&quot;index&quot;:null}" stroke-linecap="butt"><path d="M245.11027,212.3536c0,0 -4.81238,4.98151 -7.31937,2.16723c-0.77341,-0.86822 -5.79324,-4.01114 -6.20744,-7.23364c-0.20421,-1.58867 5.27215,-0.47828 6.61765,-5.27633c0.28519,-1.01687 -10.25826,-14.1605 -12.61711,-12.05168c-8.49356,7.59317 -7.70483,0.98222 -8.32405,0.58813c-8.16963,-5.19926 0.28493,-9.13791 0.28493,-9.13791l6.06751,-5.40497l27.56539,30.94422z" fill="#8c651a" stroke="#000000" stroke-width="2.5"/><g stroke="#000000"><path d="M162.28581,199.58295l37.73916,-33.61839l58.37377,65.52898l-37.73914,33.61837z" fill="#121010" stroke-width="3"/><path d="M159.49633,202.05339l37.73914,-33.61837l58.37378,65.52897l-37.73917,33.61838z" fill="url(#color-1)" stroke-width="2.5"/></g><path d="M181.11627,226.32338l27.91048,-24.86291l15.40416,17.29236l-27.91049,24.8629z" fill="url(#color-2)" stroke="#000000" stroke-width="2.5"/><path d="M215.19214,228.26938c6.61407,-5.54863 16.6347,-4.87241 22.38182,1.51034c5.74716,6.38275 5.04438,16.05506 -1.56959,21.60367c-6.61407,5.54864 -16.63471,4.87237 -22.38183,-1.51034c-5.74714,-6.38278 -5.04438,-16.0551 1.56962,-21.6037z" fill="url(#color-3)" stroke="none" stroke-width="0"/><path d="M177.60544,186.2549c6.61404,-5.54863 16.6347,-4.87237 22.38182,1.51034c5.74713,6.38273 5.04437,16.05508 -1.5696,21.6037c-6.61405,5.54862 -16.63469,4.87235 -22.38181,-1.51036c-5.74712,-6.38275 -5.04435,-16.05508 1.56965,-21.60369z" fill="url(#color-4)" stroke="none" stroke-width="0"/></g><path d="M242.65351,264.16832c0,0 -2.02615,4.54101 -4.19916,6.00334c-1.66353,1.11949 -3.69829,0.48273 -5.57129,-0.23309c-5.14115,-1.96486 -8.58594,-6.33123 -15.57723,-11.27261c-1.90413,-1.34583 -0.99826,-4.90438 0.46803,-6.71736c1.3714,-1.69566 3.85923,-4.55923 3.85923,-4.55923l23.72792,-28.04165c0,0 3.19048,-3.53019 5.24725,-3.11576c4.95302,0.99805 8.0878,5.17549 12.37173,7.85443c1.45177,0.90786 -1.50625,5.33741 -1.50625,5.33741z" data-paper-data="{&quot;index&quot;:null}" fill="#000000" stroke="#000000" stroke-width="3" stroke-linecap="round"/><g data-paper-data="{&quot;index&quot;:null}"><path d="M313.52808,166.85623c0,0 -3.25107,3.63831 -5.27488,3.65889c-13.48001,0.13706 -26.55232,0.2297 -31.89544,-0.88989c-4.88324,-1.02322 -6.35488,-4.10215 -6.35488,-4.10215c0,0 -1.95928,-2.71475 -2.05526,-4.42404c-0.28797,-5.12792 -0.4233,-19.79391 0.63085,-32.43877c0.03518,-0.42203 0.07024,-0.65792 0.1305,-1.07709c0.18076,-1.25751 1.09429,-6.13862 1.09429,-6.13862c0,0 3.55779,-1.85036 5.49038,-2.37811c5.79775,-1.58326 20.5339,0.08138 36.0525,0.54969c1.40656,0.04245 3.81718,1.91821 3.81718,1.91821c0,0 1.71773,3.4998 1.66307,5.71138c-0.35328,14.29806 -0.79679,30.11654 -1.13476,33.73296z" fill="#c5ac8e" stroke="none" stroke-width="0" stroke-linecap="round"/><path d="M313.63958,165.65741c0,0 -2.89265,3.5004 -4.68882,3.52425c-11.96376,0.15876 -23.56559,0.27406 -28.30534,-0.79031c-4.33181,-0.97276 -5.63169,-3.92648 -5.63169,-3.92648c0,0 -1.73339,-2.60301 -1.81513,-4.24425c-0.24524,-4.92374 -0.33581,-19.00716 0.62521,-31.15209c0.03207,-0.40534 0.06367,-0.63194 0.11799,-1.03459c0.16296,-1.20795 0.98354,-5.89709 0.98354,-5.89709c0,0 3.16125,-1.78405 4.87749,-2.29474c5.14868,-1.53207 18.22362,0.03678 31.99541,0.45524c1.24824,0.03793 3.38388,1.83436 3.38388,1.83436c0,0 1.51744,3.35738 1.46447,5.48126c-0.34234,13.73107 -0.76781,28.9224 -1.07505,32.39591z" fill="#ffddb7" stroke="none" stroke-width="0" stroke-linecap="round"/><path d="M313.20225,166.83c0,0 -3.25107,3.63831 -5.27488,3.65889c-13.48001,0.13706 -26.55232,0.2297 -31.89544,-0.88989c-4.88324,-1.02322 -6.35488,-4.10215 -6.35488,-4.10215c0,0 -1.95928,-2.71475 -2.05526,-4.42404c-0.28797,-5.12792 -0.4233,-19.79391 0.63085,-32.43877c0.03518,-0.42203 0.07024,-0.65792 0.1305,-1.07709c0.18076,-1.25751 1.09429,-6.13862 1.09429,-6.13862c0,0 3.55779,-1.85036 5.49038,-2.37811c5.79775,-1.58326 20.5339,0.08138 36.0525,0.54969c1.40656,0.04245 3.81718,1.91821 3.81718,1.91821c0,0 1.71773,3.4998 1.66307,5.71138c-0.35328,14.29806 -0.79679,30.11654 -1.13476,33.73296z" fill="none" stroke="#000000" stroke-width="2.5" stroke-linecap="round"/><path d="M311.19324,145.06431c0,0 -0.63311,6.94337 -1.20215,6.92931c-0.56904,-0.01406 -0.95341,-3.13922 -0.85851,-6.9802c0.09489,-3.841 0.63312,-6.94335 1.20217,-6.92929c0.56905,0.01405 0.9534,3.1392 0.8585,6.98018z" fill="#000000" stroke="#000000" stroke-width="2.5" stroke-linecap="butt"/><path d="M292.95044,146.95788c-10.7773,11.87603 -14.44803,16.53386 -20.32355,17.07823c-7.13379,0.66093 -13.46449,-7.16043 -15.93617,-10.22363c-2.25313,-0.017 -4.47872,-0.19696 -6.74678,-0.17481c-0.54074,0.00528 -3.55946,0.08251 -3.89767,-0.14213c-2.08386,-1.38412 -1.47897,-2.76098 -0.9263,-4.59881c0.44219,-1.47048 1.24056,-2.72646 2.25469,-3.80515c-1.22602,-0.7302 -2.63408,-1.62493 -3.02303,-2.63478c-0.70325,-1.82586 -0.00216,-2.56943 0.79471,-3.97124c0.89177,-1.56877 2.04263,-2.917 3.36414,-4.08214c-0.77591,-0.46752 -1.60691,-1.00098 -1.70363,-1.20802c-1.02079,-2.18551 -0.00215,-3.04095 0.97804,-4.64806c1.69083,-2.77229 4.31071,-4.37603 7.16468,-5.58339c0.15477,-2.82715 1.45063,-5.0143 2.79491,-7.5363c3.71311,-6.96613 9.48298,-11.64324 15.96708,-16.02913c3.18575,-1.41077 6.64866,-2.69282 10.1548,-2.98013c2.54418,-0.20847 5.13226,0.12957 7.67575,-0.07615c7.47457,-0.60458 15.28084,2.41521 22.01746,6.18122c6.73662,3.76601 8.55472,15.49509 8.70146,28.76395c0.00307,0.31521 -1.16088,10.30464 -2.35231,10.87792c-1.07395,0.51676 -2.29823,-6.89969 -4.313,-8.2065c-2.58214,-1.67478 -4.10217,3.5661 -6.59074,5.84459c-6.34331,5.8078 -12.55418,16.1704 -14.82535,14.91554c-0.27785,-0.15352 -1.22917,-7.76112 -1.22917,-7.76112z" fill="#000000" stroke="none" stroke-width="0.5" stroke-linecap="butt"/></g><g><g data-paper-data="{&quot;index&quot;:null}"><path d="M335.71603,182.43339c2.68683,-0.5226 6.25421,-5.65292 6.73958,-3.1576c0.32334,1.66237 -0.69538,25.80139 -2.13643,27.47024c-0.722,0.83617 -2.0174,1.538 -2.91429,1.71244c-1.31826,0.25639 -2.5432,-0.22791 -3.52595,-1.18263c-1.02029,-0.99128 -5.98671,-24.1204 -6.23395,-25.39143c-0.48537,-2.49533 5.38417,1.07153 8.07104,0.54891z" fill="#485e84" stroke="#000000" stroke-width="1.5" stroke-linecap="butt"/><g stroke-linecap="butt"><path d="M334.08596,174.18373c4.86796,-0.94685 9.32103,0.89125 9.94621,4.1055c0.62521,3.21425 -2.81427,6.58746 -7.68223,7.53434c-4.86799,0.94683 -9.32104,-0.89129 -9.94623,-4.10551c-0.6252,-3.21426 2.81422,-6.58749 7.6822,-7.53433z" fill="#485e84" stroke="#000000" stroke-width="1.5"/><path d="M339.84439,180.61173l3.61979,-2.54236c0,0 -0.38475,2.19877 -0.88354,2.99015c-1.07011,1.64343 -2.81523,2.42505 -2.81523,2.42505z" fill="#6987bb" stroke="none" stroke-width="0"/><path d="M336.14128,182.27509l1.70566,-0.68192c0,0 0.34253,1.10404 0.39406,1.50555c0.06033,0.47013 -0.08133,1.3502 -0.08133,1.3502l-2.11665,0.47139z" fill="#6987bb" stroke="none" stroke-width="0"/></g><g><path d="M335.34934,181.33153c-6.71545,1.30617 -11.20753,-1.9223 -12.51374,-8.63778c-1.30618,-6.71541 3.42301,-13.28517 10.1385,-14.59141c6.71547,-1.30621 12.39614,2.52446 13.70235,9.23995c1.30619,6.71543 -4.61157,12.68302 -11.32707,13.98924z" fill="#2c394f" stroke="#000000" stroke-width="1.5" stroke-linecap="butt"/><path d="M335.43383,158.59716c0,0 9.27269,1.02747 10.4155,6.90299c0.64808,3.33183 -0.30231,7.10065 -1.83472,10.02198c-1.09176,2.08129 -3.0476,3.79287 -5.42135,4.25458c-4.87924,0.94902 -7.03703,-0.88626 -8.17984,-6.76178c-0.57071,-2.9342 0.44622,-6.8721 2.06801,-9.68843c1.6257,-2.82318 2.9524,-4.72931 2.9524,-4.72931z" fill="#485e84" stroke="none" stroke-width="0" stroke-linecap="butt"/><path d="M346.31621,167.48873c0,0 -2.41872,5.25226 -10.13233,7.03995c-7.77685,1.80235 -12.13556,-1.60131 -12.13556,-1.60131" fill="none" stroke="#000000" stroke-width="0.8" stroke-linecap="round"/><path d="M345.95348,173.09654c0,0 -4.05286,3.45844 -8.83012,5.15851c-6.8846,2.45004 -10.10867,0.67084 -10.10867,0.67084" fill="none" stroke="#000000" stroke-width="0.75" stroke-linecap="round"/><path d="M344.23732,162.49424c0,0 -2.76432,4.60328 -10.38471,6.8276c-7.32945,2.13939 -10.03977,0.25974 -10.03977,0.25974" fill="none" stroke="#000000" stroke-width="0.8" stroke-linecap="round"/><path d="M323.5812,168.03473c0,0 4.10502,-3.52362 7.67822,-5.24694c4.70642,-2.2699 9.8487,-3.2149 9.8487,-3.2149" fill="none" stroke="#000000" stroke-width="0.8" stroke-linecap="round"/><path d="M332.60035,180.95421c0,0 -3.4403,-3.19966 -5.1026,-10.22049c-1.55121,-6.55167 1.14617,-10.1208 1.14617,-10.1208" fill="none" stroke="#000000" stroke-width="0.8" stroke-linecap="round"/><path d="M331.0467,159.79947c0,0 0.4299,3.39712 1.46538,6.99169c0.91063,3.16108 2.40751,6.4362 2.86091,8.22197c0.53852,2.12101 0.99928,5.76116 0.99928,5.76116" fill="none" stroke="#000000" stroke-width="0.8" stroke-linecap="round"/><path d="M333.9978,158.60255c0,0 4.49,4.52878 5.51631,9.11291c1.61086,7.19495 -0.09991,12.3287 -0.09991,12.3287" fill="none" stroke="#000000" stroke-width="0.8" stroke-linecap="round"/><path d="M337.96973,158.38371c0,0 3.42764,3.15424 5.07176,7.57088c2.3676,6.36011 1.36332,10.2118 1.36332,10.2118" fill="none" stroke="#000000" stroke-width="0.8" stroke-linecap="round"/><path d="M344.36351,166.34577c-0.4788,0.09314 -0.95413,-0.27925 -1.06157,-0.83176c-0.1075,-0.55251 0.19357,-1.07587 0.6724,-1.16902c0.47885,-0.09313 0.95413,0.27923 1.06161,0.83175c0.1075,0.55252 -0.19356,1.07591 -0.6724,1.16904z" fill="#6987bb" stroke="none" stroke-width="0" stroke-linecap="butt"/><path d="M342.67002,162.79911c-0.27627,0.05374 -0.54376,-0.12667 -0.59748,-0.40291c-0.05372,-0.27628 0.12667,-0.54376 0.40291,-0.5975c0.27628,-0.05374 0.54378,0.12665 0.5975,0.40289c0.05375,0.27626 -0.12667,0.54376 -0.40291,0.59749z" fill="#6987bb" stroke="none" stroke-width="0" stroke-linecap="butt"/></g></g><g><path d="M288.25215,173.50472c2.04984,-2.96311 20.43986,-3.13326 22.28598,-1.32968c2.00646,1.96021 -0.4686,18.46548 -0.4686,18.46548l-3.92522,0.62729l25.89148,-4.62362c0,0 8.8615,-2.04774 9.02668,0.48807c0,0 6.27519,10.78781 3.64791,31.77304c-5.3976,2.01208 -18.82529,1.84668 -18.82529,1.84668c0,0 -29.83222,1.01383 -32.83734,-3.33266c-3.0051,-4.34648 -6.71915,-41.13403 -4.79555,-43.91462z" fill="#68330c" stroke="none" stroke-width="3" stroke-linecap="round"/><path d="M332.30474,186.42196c0,0 8.94978,-0.91024 9.07689,1.58637c0,0 6.02223,10.69899 3.14531,31.30459c-2.8761,1.02595 -8.03694,1.39745 -12.18509,1.52191c-0.03145,-0.5576 -0.07114,-1.06263 -0.10676,-1.47827c-0.78895,-9.21281 -2.85638,-21.86821 -3.35577,-31.90802c-0.00495,-0.09949 3.42541,-1.02657 3.42541,-1.02657z" fill="#ffddb7" stroke="#000000" stroke-width="2" stroke-linecap="butt"/><path d="M330.27988,187.71844l2.68727,32.92274l-3.90463,0.12383l-2.95437,-32.5396z" data-paper-data="{&quot;index&quot;:null}" fill="#ffffff" stroke="#000000" stroke-width="2" stroke-linecap="round"/><path d="M288.4731,173.64938c2.04984,-2.96311 20.43986,-3.13326 22.28598,-1.32968c2.00646,1.96021 -0.46861,18.46548 -0.46861,18.46548l-3.92522,0.62728l25.89147,-4.62361c0,0 8.8615,-2.04775 9.02668,0.48806c0,0 6.2752,10.78781 3.64793,31.77305c-5.3976,2.01208 -18.8253,1.84668 -18.8253,1.84668c0,0 -29.83222,1.01382 -32.83734,-3.33266c-3.0051,-4.34648 -6.71915,-41.13402 -4.79555,-43.91462z" data-paper-data="{&quot;origPos&quot;:null}" fill="none" stroke="#000000" stroke-width="2.5" stroke-linecap="round"/></g></g><g stroke="#000000" stroke-width="1.25" stroke-linecap="butt"><g data-paper-data="{&quot;index&quot;:null}" fill="#000000"><path d="M305.03138,160.5893c-11.11671,-1.42973 -6.4871,-5.24594 -6.4871,-5.24594l13.95081,1.61158c0,0 2.9901,4.87928 -7.46371,3.63436z"/></g><g data-paper-data="{&quot;index&quot;:null}" fill="#ffffff"><path d="M305.03138,160.5893c-11.11671,-1.42973 -6.4871,-5.24594 -6.4871,-5.24594c0,0 9.43816,1.09029 11.79349,1.36238c0.00325,0.00038 -0.87441,0.99288 -0.98976,2.07333c-0.09448,0.88493 0.57217,1.89671 0.5515,1.89964c-1.15397,0.16366 -2.7298,0.16525 -4.86814,-0.0894z"/></g></g><path d="M153.5,284v-208h225.55256v208z" fill="none" stroke="none" stroke-width="0" stroke-linecap="butt"/></g></g></svg>