<svg version="1.1" xmlns="http://www.w3.org/2000/svg" xmlns:xlink="http://www.w3.org/1999/xlink" width="173" height="208" viewBox="0,0,173,208"><defs><radialGradient cx="262.97061" cy="138.87145" r="43.87922" gradientUnits="userSpaceOnUse" id="color-1"><stop offset="0" stop-color="#8f8256"/><stop offset="1" stop-color="#8d681f"/></radialGradient><radialGradient cx="264.28815" cy="145.32286" r="18.68929" gradientUnits="userSpaceOnUse" id="color-2"><stop offset="0" stop-color="#0c0b0b"/><stop offset="1" stop-color="#533907"/></radialGradient><radialGradient cx="291.03046" cy="135.09058" r="15.62237" gradientUnits="userSpaceOnUse" id="color-3"><stop offset="0" stop-color="#36270c"/><stop offset="1" stop-color="#0c0b0b"/></radialGradient><radialGradient cx="235.49572" cy="144.77887" r="15.62237" gradientUnits="userSpaceOnUse" id="color-4"><stop offset="0" stop-color="#36270c"/><stop offset="1" stop-color="#0c0b0b"/></radialGradient></defs><g transform="translate(-153.5,-76)"><g data-paper-data="{&quot;isPaintingLayer&quot;:true}" fill-rule="nonzero" stroke-linejoin="miter" stroke-miterlimit="10" stroke-dasharray="" stroke-dashoffset="0" style="mix-blend-mode: normal"><path d="M236.18794,225.30501c0,0 -0.30792,-4.9947 1.40368,-5.03958c5.05064,-0.13245 9.86908,-2.02517 14.64558,-0.4779c1.98347,0.64253 2.94723,5.01932 2.94723,5.01932l6.26264,33.99829c0,0 0.69539,3.50265 1.0194,5.52836c0.34644,2.16586 -0.67424,5.47905 -2.99769,5.66353c-8.53085,0.67734 -13.71228,2.57566 -19.14056,1.72201c-1.9776,-0.311 -4.05465,-0.76298 -4.92232,-2.46094c-1.13341,-2.21795 -0.58132,-6.85973 -0.58132,-6.85973z" fill="#000000" stroke="#000000" stroke-width="3" stroke-linecap="round"/><path d="M232.21046,262.66591c0,0 0.25625,4.66443 -1.0161,6.8149c-0.97398,1.64628 -3.07606,1.98106 -5.0699,2.18065c-5.47283,0.54786 -10.52442,-1.63744 -18.99704,-2.79176c-2.30755,-0.31438 -3.11593,-3.67892 -2.63254,-5.82146c0.45214,-2.00394 1.36881,-5.46137 1.36881,-5.46137l8.41141,-33.58667c0,0 1.24014,-4.31499 3.2609,-4.8452c4.8663,-1.27679 9.55591,0.88263 14.58913,1.29793c1.70569,0.14073 1.081,5.10929 1.081,5.10929z" fill="#000000" stroke="#000000" stroke-width="3" stroke-linecap="round"/><g data-paper-data="{&quot;index&quot;:null}"><g data-paper-data="{&quot;index&quot;:null}"><path d="M222.04685,172.91849c-1.14574,-3.26801 9.11223,-17.66294 11.55764,-18.07935c2.65778,-0.45258 14.09273,10.79729 14.09273,10.79729l-1.72998,3.40641l11.03358,-22.74374c0,0 3.41456,-8.04705 5.47953,-6.74276c0,0 11.93333,1.21593 26.76561,15.1153c-1.48518,5.33358 -9.20039,15.68061 -9.20039,15.68061c0,0 -16.06681,23.76831 -21.14424,23.64912c-5.07738,-0.11916 -35.77929,-18.01623 -36.85444,-21.0829z" fill="#68330c" stroke="none" stroke-width="3" stroke-linecap="round"/><path d="M256.97997,145.9644c0,0 4.34885,-7.47303 6.36187,-6.16127c0,0 11.72135,1.36242 26.11739,15.24141c-0.8273,2.81593 -3.45426,7.03851 -5.70122,10.33416c-0.45129,-0.29056 -0.8664,-0.54503 -1.20969,-0.75221c-7.609,-4.59177 -18.61703,-10.13453 -26.7055,-15.41871c-0.08016,-0.05237 1.13718,-3.24339 1.13718,-3.24339z" fill="#ffddb7" stroke="#000000" stroke-width="2" stroke-linecap="butt"/><path d="M256.84401,148.27132l27.11675,16.51181l-2.10982,3.10594l-26.96978,-16.08766z" data-paper-data="{&quot;index&quot;:null}" fill="#ffffff" stroke="#000000" stroke-width="2" stroke-linecap="round"/><path d="M222.2842,172.82842c-1.14574,-3.268 9.11223,-17.66291 11.55763,-18.07933c2.65776,-0.45257 14.09271,10.79728 14.09271,10.79728l-1.72997,3.40642l11.03357,-22.74375c0,0 3.41455,-8.04706 5.47951,-6.74277c0,0 11.93332,1.21593 26.7656,15.1153c-1.48519,5.33359 -9.20037,15.68064 -9.20037,15.68064c0,0 -16.0668,23.7683 -21.14424,23.6491c-5.07737,-0.11916 -35.77929,-18.01623 -36.85444,-21.0829z" data-paper-data="{&quot;origPos&quot;:null}" fill="none" stroke="#000000" stroke-width="2.5" stroke-linecap="round"/></g><g stroke-linecap="butt"><path d="M278.0288,104.00317c0,0 1.68373,6.7186 -2.03053,7.35847c-1.14585,0.1974 -6.46772,2.79638 -9.42193,1.44409c-1.45641,-0.66666 2.38163,-4.7278 -0.97945,-8.40675c-0.71232,-0.7797 -17.44315,1.21985 -16.90045,4.33702c1.95409,11.22401 -3.24014,7.05907 -3.90204,7.3763c-8.73264,4.1852 -7.60546,-5.0734 -7.60546,-5.0734l-1.37953,-8.00782l40.83987,-7.03568z" fill="#8c651a" stroke="#000000" stroke-width="2.5"/><g stroke="#000000"><path d="M223.39676,167.55098l-8.5806,-49.80776l86.48445,-14.89903l8.58058,49.80773z" fill="#121010" stroke-width="3"/><path d="M224.01868,171.22484l-8.58059,-49.80775l86.48446,-14.89904l8.58059,49.80777z" fill="url(#color-1)" stroke-width="2.5"/></g><path d="M256.05,165.70667l-6.34588,-36.83597l22.82227,-3.93167l6.34588,36.83598z" fill="url(#color-2)" stroke="#000000" stroke-width="2.5"/><path d="M275.71896,137.81252c-1.21249,-8.54772 4.65981,-16.69551 13.11609,-18.19877c8.45634,-1.5033 16.29447,4.20735 17.50697,12.75496c1.21249,8.5477 -4.65983,16.69549 -13.11611,18.19875c-8.45635,1.50326 -16.29448,-4.20736 -17.50697,-12.755z" fill="url(#color-3)" stroke="none" stroke-width="0"/><path d="M220.18418,147.50081c-1.2125,-8.54768 4.65983,-16.69549 13.11611,-18.19875c8.45629,-1.50328 16.29447,4.20736 17.50696,12.75498c1.21249,8.54768 -4.65984,16.69548 -13.11611,18.19875c-8.45631,1.50325 -16.29444,-4.20738 -17.50694,-12.75501z" fill="url(#color-4)" stroke="none" stroke-width="0"/></g></g><g data-paper-data="{&quot;index&quot;:null}" stroke="#000000"><path d="M214.96393,178.77673c0,0 1.81966,-14.41173 4.02742,-14.97233c3.52905,-0.89614 9.50276,-0.78996 15.83098,-0.69722c5.5485,0.08131 11.36953,0.05595 16.0543,0.6343c1.81701,0.22431 3.08218,14.51533 3.08218,14.51533l1.48884,28.00834c0,0 0.5823,16.97307 -1.1244,16.97307c-15.19282,0 -32.99981,0.87248 -39.77159,0.01196c-2.25724,-0.28683 -1.40993,-16.41167 -1.40993,-16.41167z" fill="#68330c" stroke-width="2.5" stroke-linecap="round"/><g><g><path d="M228.13463,163.11664h19.00404v8.89074c-0.29006,1.24583 -0.5134,2.26948 -0.64249,2.79528c-1.26833,5.16634 -8.60108,26.31688 -9.25428,29.83072c-3.14253,-10.72744 -6.16295,-21.6183 -9.10727,-32.54359z" fill="#ffffff" stroke-width="2" stroke-linecap="butt"/><path d="M233.22271,164.01203h8.51527v2.25267c-0.12997,0.30292 -3.96,6.98763 -4.25269,7.84202c-1.4081,-2.60836 -2.9433,-5.22803 -4.26258,-7.88449z" fill="#ffddb7" stroke-width="1.5" stroke-linecap="butt"/><path d="M237.64735,173.84315l-0.3525,26.79042" fill="none" stroke-width="1.5" stroke-linecap="round"/><path d="M237.3722,204.10528v18.54721" fill="none" stroke-width="2" stroke-linecap="round"/><path d="M238.03938,176.97374c0,-0.28257 0.22908,-0.51165 0.51165,-0.51165c0.28257,0 0.51164,0.22908 0.51164,0.51165c0,0.28257 -0.22907,0.51164 -0.51164,0.51164c-0.28257,0 -0.51165,-0.22907 -0.51165,-0.51164z" fill="#000000" stroke-width="0.5" stroke-linecap="butt"/><path d="M237.92568,183.11352c0,-0.28257 0.22907,-0.51164 0.51164,-0.51164c0.28257,0 0.51165,0.22907 0.51165,0.51164c0,0.28257 -0.22908,0.51165 -0.51165,0.51165c-0.28257,0 -0.51164,-0.22908 -0.51164,-0.51165z" fill="#000000" stroke-width="0.5" stroke-linecap="butt"/><path d="M237.90604,189.2533c0,-0.28257 0.22908,-0.51165 0.51165,-0.51165c0.28257,0 0.51164,0.22908 0.51164,0.51165c0,0.28257 -0.22907,0.51165 -0.51164,0.51165c-0.28257,0 -0.51165,-0.22908 -0.51165,-0.51165z" fill="#000000" stroke-width="0.5" stroke-linecap="butt"/><path d="M238.39527,219.95213c0,-0.28257 0.22907,-0.51164 0.51164,-0.51164c0.28257,0 0.51165,0.22907 0.51165,0.51164c0,0.28257 -0.22908,0.51165 -0.51165,0.51165c-0.28257,0 -0.51164,-0.22908 -0.51164,-0.51165z" fill="#000000" stroke-width="0.5" stroke-linecap="butt"/><path d="M238.14823,213.69865c0,-0.28257 0.22908,-0.51164 0.51165,-0.51164c0.28257,0 0.51165,0.22907 0.51165,0.51164c0,0.28257 -0.22908,0.51165 -0.51165,0.51165c-0.28257,0 -0.51165,-0.22908 -0.51165,-0.51165z" fill="#000000" stroke-width="0.5" stroke-linecap="butt"/><path d="M237.03688,206.23992l-17.66667,-27.33334l5.33333,-4.66666l-3,-5.66667l5.33334,-2.66666" fill="none" stroke-width="2" stroke-linecap="round"/><path d="M247.53735,165.72217l4.96346,2.68866l-2.38085,5.65425l3.95609,4.68865l-16.60059,27.76437" fill="none" stroke-width="2" stroke-linecap="round"/><g stroke-width="1.5" stroke-linecap="round"><path d="M245.46314,210.70489l0.08713,-3.31059l2.87498,1.04546l2.0909,-3.22347l0.17424,5.57574z" fill="#ffffff"/><path d="M243.95166,211.04223h8.45072" fill="none"/></g></g><path d="M236.63552,173.47543l-7.21212,3.04546" fill="none" stroke-width="1.5" stroke-linecap="round"/><path d="M237.75673,173.733l7.33333,2.5" fill="none" stroke-width="1.5" stroke-linecap="round"/></g></g><path d="M220.63587,163.90317c-4.52954,-0.8385 -5.95187,-3.6326 -5.95187,-3.6326c0,0 -1.86502,-2.45004 -1.98898,-4.01597c-0.37194,-4.69781 -0.80028,-18.14781 -0.08862,-29.76825c0.02375,-0.38782 0.05123,-0.60493 0.09821,-0.99067c0.14089,-1.15719 0.8833,-5.65326 0.8833,-5.65326c0,0 3.24639,-1.77021 5.01969,-2.29388c5.31992,-1.57109 18.95918,-0.34609 33.29613,-0.2345c1.29945,0.01011 3.56383,1.68132 3.56383,1.68132c0,0 1.65823,3.17511 1.65352,5.20484c-0.03038,13.12252 -0.1126,27.64157 -0.34983,30.96572c-0.04107,0.57551 -0.24011,3.07318 -1.95867,5.22656c-0.45289,0.56748 -2.13808,2.88152 -5.68961,3.43316c-8.91949,1.3854 -24.94242,0.7337 -28.4871,0.07751z" fill="#ffddb7" stroke="#000000" stroke-width="2.5" stroke-linecap="round"/><path d="M256.2612,139.71644c-0.11613,-0.8023 -0.23035,-1.60419 -0.34894,-2.40531c-0.79266,0.46346 -1.54304,0.86729 -1.68767,0.9513c-1.58841,0.92287 -4.13042,2.44558 -5.91627,2.80136c-0.87325,0.17398 -1.91295,0.5722 -2.66982,0.1057c-0.93597,-0.57687 -0.84974,-3.01638 -0.8811,-3.94878c-0.1179,-3.50563 -0.22768,-7.01159 -0.34064,-10.5174c-1.57633,1.80539 -4.11656,3.41686 -5.63847,5.03095c-3.42356,3.63083 -7.09351,6.91683 -10.66506,10.36065c-1.22506,1.18128 -2.23656,2.29871 -3.59659,3.33484c-0.5214,0.39726 -0.87245,1.23596 -1.52953,1.23535c-0.9176,-0.00084 -1.63615,-0.826 -2.45422,-1.23902c-0.18008,-1.6 -0.38818,-3.63168 -0.34422,-5.48067c-0.75133,1.10897 -1.76553,2.1933 -2.34465,3.1534c-2.01888,3.34694 -5.4696,12.83982 -5.4696,12.83982c-3.88163,0.04428 -7.57621,-3.36061 -9.92152,-6.11975c-2.08054,0.03056 -4.13897,-0.0889 -6.23244,-0.02211c-0.49912,0.01592 -3.2845,0.14863 -3.60139,-0.05052c-1.95249,-1.22692 -1.42252,-2.50227 -0.95032,-4.1994c0.37783,-1.3579 1.08892,-2.52633 2.00288,-3.53658c-1.14702,-0.64467 -2.46546,-1.43654 -2.84545,-2.35486c-0.68703,-1.66042 -0.05515,-2.35684 0.65156,-3.65902c0.79087,-1.45729 1.82548,-2.71754 3.02142,-3.81339c-0.72601,-0.41294 -1.50426,-0.88523 -1.59783,-1.07314c-0.98764,-1.98381 -0.06487,-2.78937 0.80681,-4.2836c1.50366,-2.5776 4.26272,-4.13742 6.87261,-5.30334c0.08444,-2.59644 1.27057,-4.25576 2.45948,-6.59668c1.56575,-3.08292 4.48033,-7.60014 9.07324,-11.12399c5.04004,-3.86688 11.45875,-6.22055 13.45732,-6.7501c4.33713,-1.14918 9.93581,-1.24567 12.11019,-1.097c4.00559,0.27391 11.1625,1.94791 16.3661,5.03947c5.24407,3.11561 8.15285,7.35023 8.55993,8.03853c3.55386,6.00878 5.90336,11.75291 6.13641,18.67055c0.05599,1.7298 1.41232,10.72961 -1.03349,15.7378c-2.97123,6.08413 -10.11885,8.99026 -10.41663,9.09954c-0.35268,0.12944 -1.82651,-0.05465 -2.07243,-1.12194c-0.59235,-2.57087 0.36284,-8.00655 0.91098,-10.17423c0.10574,-0.35206 0.2015,-0.70685 0.29201,-1.06309c-0.1306,-0.24387 -0.16266,-0.46525 -0.16266,-0.46525z" fill="#000000" stroke="none" stroke-width="0.5" stroke-linecap="butt"/><path d="M153.5,284v-208h173v208z" fill="none" stroke="none" stroke-width="0" stroke-linecap="butt"/><g fill="#000000" stroke="#000000" stroke-width="2.5" stroke-linecap="butt"><path d="M237.77718,149.48103c1.99359,-2.25076 3.81008,-3.8979 4.05722,-3.67903c0.24713,0.2189 -1.16865,2.22092 -3.16224,4.47169c-1.9936,2.25076 -3.8101,3.89793 -4.05723,3.67906c-0.24714,-0.21886 1.16866,-2.22093 3.16224,-4.47171z" data-paper-data="{&quot;index&quot;:null}"/><path d="M237.81694,142.04285c2.53561,1.61586 4.4473,3.15149 4.26989,3.42989c-0.17743,0.27842 -2.37675,-0.8058 -4.91236,-2.42165c-2.53562,-1.61586 -4.44733,-3.15149 -4.26993,-3.42989c0.1774,-0.27842 2.37677,0.8058 4.91238,2.42165z" data-paper-data="{&quot;index&quot;:null}"/></g><g data-paper-data="{&quot;index&quot;:null}" fill="#000000" stroke="#000000" stroke-width="2.5" stroke-linecap="butt"><path d="M251.66516,146.87684c2.72359,1.27373 4.81815,2.54871 4.67827,2.84774c-0.13985,0.29903 -2.46118,-0.4911 -5.18478,-1.76482c-2.72359,-1.27373 -4.81812,-2.54867 -4.67826,-2.84773c0.13985,-0.29903 2.46117,0.49108 5.18476,1.76479z" data-paper-data="{&quot;index&quot;:null}"/><path d="M248.67418,140.06638c1.68518,-2.49007 3.27295,-4.35871 3.54634,-4.17366c0.27338,0.18504 -0.87109,2.35367 -2.55627,4.84376c-1.68518,2.49007 -3.2729,4.35867 -3.54632,4.17364c-0.27338,-0.18504 0.87107,-2.35367 2.55624,-4.84375z" data-paper-data="{&quot;index&quot;:null}"/></g><g><g data-paper-data="{&quot;index&quot;:null}"><path d="M248.46134,177.14701c2.44055,-0.10903 6.26272,-4.1704 6.36399,-1.90381c0.06745,1.51 -3.99748,22.68705 -5.48852,23.97138c-0.74705,0.64351 -1.98271,1.09322 -2.79739,1.12962c-1.19742,0.05347 -2.21533,-0.53472 -2.95773,-1.50646c-0.77074,-1.00893 -2.12213,-22.07932 -2.17373,-23.23384c-0.10125,-2.2666 4.61279,1.65205 7.05338,1.54302z" fill="#485e84" stroke="#000000" stroke-width="1.5" stroke-linecap="butt"/><g stroke-linecap="butt"><path d="M248.10411,169.65019c4.42176,-0.19752 8.112,2.00918 8.24242,4.9288c0.13044,2.91962 -3.34839,5.44656 -7.77013,5.6441c-4.42178,0.19751 -8.11201,-2.00921 -8.24244,-4.92881c-0.13044,-2.91963 3.34837,-5.44658 7.77012,-5.64411z" fill="#485e84" stroke="#000000" stroke-width="1.5"/><path d="M252.34486,176.08018l3.52906,-1.76977c0,0 -0.62801,1.89068 -1.17214,2.52394c-1.16023,1.31054 -2.80338,1.77173 -2.80338,1.77173z" fill="#6987bb" stroke="none" stroke-width="0"/><path d="M248.85751,177.06303l1.59523,-0.37834c0,0 0.15762,1.0196 0.15045,1.38083c-0.00838,0.42295 -0.24888,1.18134 -0.24888,1.18134l-1.93045,0.13858z" fill="#6987bb" stroke="none" stroke-width="0"/></g><g><path d="M248.2821,176.12617c-6.0999,0.27246 -9.64226,-3.1668 -9.91476,-9.26673c-0.27248,-6.09987 4.76414,-11.27966 10.86407,-11.55218c6.09992,-0.2725 10.61263,3.85428 10.88513,9.95422c0.27248,6.09988 -5.73448,10.59219 -11.83441,10.8647z" fill="#2c394f" stroke="#000000" stroke-width="1.5" stroke-linecap="butt"/><path d="M251.33806,156.06667c0,0 8.05146,2.12308 8.28987,7.46003c0.13522,3.02643 -1.19806,6.22903 -2.93401,8.60711c-1.23678,1.69425 -3.1879,2.9488 -5.34407,3.04512c-4.432,0.19796 -6.09627,-1.70524 -6.33467,-7.04219c-0.11905,-2.66523 1.29513,-6.00838 3.09624,-8.28205c1.80545,-2.2792 3.22666,-3.78801 3.22666,-3.78801z" fill="#485e84" stroke="none" stroke-width="0" stroke-linecap="butt"/><path d="M259.7793,165.34351c0,0 -2.82409,4.31966 -9.86833,4.88632c-7.102,0.57132 -10.50364,-3.00512 -10.50364,-3.00512" fill="none" stroke="#000000" stroke-width="0.8" stroke-linecap="round"/><path d="M258.72369,170.24668c0,0 -4.03153,2.52173 -8.47198,3.39612c-6.39923,1.26012 -9.0122,-0.73341 -9.0122,-0.73341" fill="none" stroke="#000000" stroke-width="0.75" stroke-linecap="round"/><path d="M258.59899,160.6616c0,0 -3.04409,3.70141 -10.06329,4.66577c-6.75123,0.92755 -8.89748,-1.0873 -8.89748,-1.0873" fill="none" stroke="#000000" stroke-width="0.8" stroke-linecap="round"/><path d="M239.63656,162.84409c0,0 4.08612,-2.57243 7.46665,-3.62525c4.45263,-1.38674 9.11631,-1.54665 9.11631,-1.54665" fill="none" stroke="#000000" stroke-width="0.8" stroke-linecap="round"/><path d="M245.9047,175.43256c0,0 -2.6176,-3.27591 -3.16443,-9.69212c-0.51027,-5.98744 2.33911,-8.78464 2.33911,-8.78464" fill="none" stroke="#000000" stroke-width="0.8" stroke-linecap="round"/><path d="M247.30728,156.55277c0,0 -0.06596,3.05547 0.37681,6.36465c0.38939,2.91011 1.28138,5.99779 1.44747,7.63378c0.19728,1.94311 0.12669,5.21717 0.12669,5.21717" fill="none" stroke="#000000" stroke-width="0.8" stroke-linecap="round"/><path d="M250.06957,155.8831c0,0 3.36999,4.58696 3.67491,8.76855c0.47858,6.56316 -1.70498,10.87105 -1.70498,10.87105" fill="none" stroke="#000000" stroke-width="0.8" stroke-linecap="round"/><path d="M253.60482,156.21077c0,0 2.61239,3.23415 3.48466,7.34891c1.25613,5.92538 -0.13558,9.19407 -0.13558,9.19407" fill="none" stroke="#000000" stroke-width="0.8" stroke-linecap="round"/><path d="M258.20531,164.07838c-0.4349,0.01944 -0.80571,-0.37166 -0.82812,-0.87352c-0.02244,-0.50186 0.31198,-0.92443 0.74691,-0.94387c0.43494,-0.01943 0.80572,0.37164 0.82814,0.87351c0.02244,0.50187 -0.31198,0.92446 -0.74692,0.94388z" fill="#6987bb" stroke="none" stroke-width="0" stroke-linecap="butt"/><path d="M257.17533,160.72522c-0.25095,0.01122 -0.46344,-0.18313 -0.47464,-0.43405c-0.0112,-0.25096 0.18313,-0.46344 0.43405,-0.47465c0.25096,-0.01122 0.46345,0.18312 0.47466,0.43404c0.01123,0.25095 -0.18313,0.46344 -0.43405,0.47465z" fill="#6987bb" stroke="none" stroke-width="0" stroke-linecap="butt"/></g></g><g><path d="M207.7297,163.04016c2.19825,-2.34711 18.45581,-0.08568 19.8491,1.74868c1.51431,1.99367 -2.83524,16.24043 -2.83524,16.24043l-3.54756,0.03904l23.46412,-0.68649c0,0 8.09174,-0.64573 7.90501,1.61463c0,0 4.12523,10.34672 -0.94619,28.52859c-5.02902,1.06848 -16.86171,-0.83842 -16.86171,-0.83842c0,0 -26.46974,-3.01712 -28.55276,-7.24842c-2.08301,-4.23129 -0.53761,-37.19551 1.52524,-39.39803z" fill="#68330c" stroke="none" stroke-width="3" stroke-linecap="round"/><path d="M244.92669,180.22088c0,0 8.02051,0.37007 7.80532,2.59082c0,0 3.91354,10.23514 -1.32847,28.04911c-2.67366,0.52857 -7.27851,0.17976 -10.95695,-0.25435c0.04535,-0.49639 0.07654,-0.94745 0.09962,-1.31906c0.51164,-8.23681 0.34606,-19.68048 1.22179,-28.60943c0.00868,-0.08848 3.15869,-0.4571 3.15869,-0.4571z" fill="#ffddb7" stroke="#000000" stroke-width="2" stroke-linecap="butt"/><path d="M242.96906,181.09993l-1.94505,29.4176l-3.46336,-0.40272l1.65901,-29.11437z" data-paper-data="{&quot;index&quot;:null}" fill="#ffffff" stroke="#000000" stroke-width="2" stroke-linecap="round"/><path d="M207.90578,163.19684c2.19825,-2.34711 18.45581,-0.08568 19.8491,1.74868c1.51431,1.99367 -2.83525,16.24043 -2.83525,16.24043l-3.54756,0.03904l23.46412,-0.68649c0,0 8.09174,-0.64573 7.90502,1.61462c0,0 4.12523,10.34672 -0.94619,28.52859c-5.02902,1.06848 -16.86171,-0.83842 -16.86171,-0.83842c0,0 -26.46974,-3.01712 -28.55276,-7.24841c-2.08301,-4.23129 -0.53761,-37.19551 1.52524,-39.39803z" data-paper-data="{&quot;origPos&quot;:null}" fill="none" stroke="#000000" stroke-width="2.5" stroke-linecap="round"/></g></g><g stroke="#000000" stroke-width="1.25" stroke-linecap="butt"><g data-paper-data="{&quot;index&quot;:null}" fill="#000000"><path d="M232.17424,160.94644c-11.11671,-1.42973 -6.4871,-5.24594 -6.4871,-5.24594l13.95081,1.61158c0,0 2.9901,4.87928 -7.46371,3.63436z"/></g><g data-paper-data="{&quot;index&quot;:null}" fill="#ffffff"><path d="M232.17424,160.94644c-11.11671,-1.42973 -6.4871,-5.24594 -6.4871,-5.24594c0,0 9.43816,1.09029 11.79349,1.36238c0.00325,0.00038 -0.87441,0.99288 -0.98976,2.07333c-0.09448,0.88493 0.57217,1.89671 0.5515,1.89964c-1.15397,0.16366 -2.7298,0.16525 -4.86814,-0.0894z"/></g></g></g></g></svg>