<svg version="1.1" xmlns="http://www.w3.org/2000/svg" xmlns:xlink="http://www.w3.org/1999/xlink" width="107.47866" height="187.00219" viewBox="0,0,107.47866,187.00219"><g transform="translate(-198.68717,-86.39978)"><g data-paper-data="{&quot;isPaintingLayer&quot;:true}" fill-rule="nonzero" stroke-linejoin="miter" stroke-miterlimit="10" stroke-dasharray="" stroke-dashoffset="0" style="mix-blend-mode: normal"><g stroke="#000000" stroke-linecap="round"><path d="M232.08513,171.82795c0,0 -28.22914,5.91484 -28.27891,-12.06568c-0.01835,-6.62461 16.21325,-5.02736 16.21325,-5.02736z" data-paper-data="{&quot;origPos&quot;:null}" fill="#66c8ff" stroke-width="2"/><path d="M224.04133,160.13933c0,0 -15.91916,-1.89997 -15.71052,-2.51368c0.66156,-1.94585 12.44273,-1.38252 12.44273,-1.38252z" data-paper-data="{&quot;origPos&quot;:null}" fill="#0a0a0a" stroke-width="1"/></g><g><g data-paper-data="{&quot;index&quot;:null}"><g stroke="#000000" stroke-width="3" stroke-linecap="round"><path d="M290.50092,168.96009c0,0 10.34664,2.88513 14.03948,5.64074c-2.69024,16.70144 -9.92814,23.57648 -9.92814,23.57648c-0.69564,1.90989 -7.04001,-1.65014 -7.04001,-1.65014c0,0 -12.613,-6.54375 -20.68596,-10.73205c-5.30103,-2.75021 -13.58326,-7.0471 -13.58326,-7.0471c0,0 -5.1335,-2.95754 -4.67635,-3.95945c2.75036,-6.02767 4.22417,-12.40378 6.64182,-14.87754c0.80588,-0.82458 6.31893,0.68108 6.31893,0.68108l28.91347,8.368z" data-paper-data="{&quot;origPos&quot;:null}" fill="#582700"/><path d="M295.74514,171.33733l-9.76542,23.73219l-3.1406,-1.30782l9.54454,-23.86676z" data-paper-data="{&quot;origPos&quot;:null}" fill="none"/></g><path d="M282.33302,193.78559l-32.35067,-17.68196l-0.13883,-1.43751l5.89569,-14.67215l35.94213,10.39979z" fill="#66c8ff" stroke="#000000" stroke-width="1" stroke-linecap="round"/><path d="M285.55434,194.93294l-2.15681,-0.8844l9.67486,-23.59427l2.15681,0.8844z" fill="#ffffff" stroke="none" stroke-width="0" stroke-linecap="butt"/></g><g fill="#fffc96" stroke="#000000" stroke-width="2" stroke-linecap="round"><path d="M285.58529,168.14241c0,0 2.66502,-3.48044 5.14951,-1.90057c3.97507,2.52773 -17.69859,27.43363 -22.00021,25.04917c-1.75754,-0.97423 -0.26115,-3.77151 -0.26115,-3.77151l1.73332,0.70617c0,0 5.09346,-3.77982 10.27839,-9.47683c5.11308,-5.61807 7.41078,-10.16654 7.41078,-10.16654z"/><path d="M277.3168,165.71481c0,0 -0.44026,-3.78259 1.86457,-3.49952c4.83818,0.5942 6.32148,35.64181 1.96896,34.05029c-2.63598,-0.96388 -1.88021,-4.35917 -1.88021,-4.35917l1.2899,0.48177c0,0 0.7587,-5.2711 0.28477,-13.19113c-0.4739,-7.92004 -2.25957,-13.17454 -2.25957,-13.17454z" data-paper-data="{&quot;index&quot;:null}"/></g></g><g data-paper-data="{&quot;origRot&quot;:0}" stroke="#000000" stroke-linecap="round"><path d="M242.50789,225.4554c0,0 -0.1413,-4.79862 1.40195,-4.79787c4.55389,0.00226 8.94659,-1.68985 13.20773,-0.08348c1.76945,0.66704 2.5185,4.88981 2.5185,4.88981l4.7157,32.77023c0,0 0.53104,3.37741 0.76776,5.3287c0.25309,2.08626 -0.75677,5.23806 -2.85505,5.35552c-7.7042,0.43133 -12.42407,2.11945 -17.29132,1.16172c-1.77322,-0.34892 -3.63218,-0.83563 -4.36762,-2.48644c-0.96071,-2.15639 -0.33678,-6.59447 -0.33678,-6.59447z" data-paper-data="{&quot;origPos&quot;:null}" fill="#ff0000" stroke-width="3"/><path d="M265.21979,266.91387c0,0 -5.86927,2.77384 -10.95469,2.9028c-3.90171,0.09894 -12.37852,-0.71033 -12.37852,-0.71033c0,0 -1.41846,-2.57239 -1.54804,-4.1698c-0.13652,-1.68278 0.86615,-4.2353 0.86615,-4.2353l23.28258,-1.38808z" data-paper-data="{&quot;origPos&quot;:null}" fill="#976e57" stroke-width="2"/><path d="M242.59737,225.77407c0,0 -0.1413,-4.79862 1.40195,-4.79786c4.55388,0.00226 8.94659,-1.68985 13.20774,-0.08346c1.76945,0.66704 2.51849,4.8898 2.51849,4.8898l4.7157,32.77023c0,0 0.53106,3.37742 0.76778,5.3287c0.25309,2.08626 -0.75678,5.23805 -2.85505,5.35552c-7.7042,0.43133 -12.42407,2.11946 -17.29132,1.16173c-1.77322,-0.34892 -3.63217,-0.83565 -4.36761,-2.48644c-0.96071,-2.15639 -0.33679,-6.59447 -0.33679,-6.59447z" data-paper-data="{&quot;origPos&quot;:null}" fill="#4b4b4b" stroke-width="3"/></g><path d="M238.96144,262.62419c0,0 0.57104,4.4452 -0.41525,6.59c-0.75505,1.64194 -2.61966,2.10649 -4.3969,2.43429c-4.8783,0.89975 -9.57773,-0.84446 -17.27626,-1.36744c-2.09673,-0.14244 -3.06901,-3.30603 -2.79111,-5.38912c0.25993,-1.94832 0.83113,-5.31917 0.83113,-5.31917l5.1054,-32.71179c0,0 0.79924,-4.21354 2.5765,-4.85947c4.27996,-1.55554 8.65222,0.18871 13.2058,0.24067c1.54314,0.01761 1.34474,4.8142 1.34474,4.8142c0,0 0.45918,8.99361 0.75308,14.75c0.4148,8.12444 1.06287,20.81786 1.06287,20.81786z" fill="#4b4b4b" stroke="#000000" stroke-width="3" stroke-linecap="round"/><g><path d="M221.26386,178.93742c0,0 1.75083,-14.43376 3.90092,-15.01002c6.45025,-1.72882 21.25826,-0.99354 31.14732,-1.12402c1.52875,-0.02017 3.02744,13.49463 3.02744,13.49463l2.18464,30.60205c0,0 0.44062,14.95345 -1.22709,14.97545c-14.84568,0.19588 -32.23454,1.27802 -38.86268,0.52447c-2.20937,-0.25117 -1.58931,-16.0185 -1.58931,-16.0185z" data-paper-data="{&quot;origPos&quot;:null}" fill="#66c8ff" stroke="#000000" stroke-width="3.5" stroke-linecap="round"/><path d="M240.21525,186.88687c-1.29156,0.01704 -1.32438,-2.47024 -1.32438,-2.47024c-0.06807,-5.15881 -0.15802,-11.9758 -0.22609,-17.13461c0,0 -0.03282,-2.48728 1.25874,-2.50433c1.29156,-0.01704 1.32438,2.47024 1.32438,2.47024c0.06807,5.15881 0.13614,10.31761 0.20421,15.47642l0.02188,1.65819c0,0 0.03282,2.48728 -1.25874,2.50433z" fill="#ffffff" stroke="none" stroke-width="0.5" stroke-linecap="butt"/><path d="M252.29777,193.06134c-1.29156,0.01704 -1.33279,-3.10769 -1.33279,-3.10769c-0.08551,-6.48092 -0.19851,-15.04498 -0.28403,-21.5259c0,0 -0.04123,-3.12473 1.25033,-3.14177c1.29156,-0.01704 1.33279,3.10769 1.33279,3.10769c0.08551,6.48092 0.17103,12.96183 0.25654,19.44276l0.02749,2.08315c0,0 0.04123,3.12473 -1.25033,3.14177z" fill="#ffffff" stroke="none" stroke-width="0.5" stroke-linecap="butt"/></g><g fill="none" stroke="#b9b9b9" stroke-width="3"><path d="M254.2034,167.86615c-0.84538,-1.34705 0.05187,-2.57858 1.25865,-3.81264c1.20678,-1.23404 2.42918,-1.62213 3.1115,-0.65627c1.4467,2.04791 -0.02964,3.043 -0.97459,4.00929c-1.20679,1.23406 -2.20168,2.36202 -3.39556,0.45963z" stroke-linecap="butt"/><path d="M252.62329,169.81585l2.5565,-2.55339" stroke-linecap="round"/><path d="M249.0854,170.49193c1.20678,-1.23404 2.42918,-1.62213 3.1115,-0.65627c1.4467,2.04791 -0.02964,3.043 -0.97459,4.00929c-1.20677,1.23405 -2.20167,2.36202 -3.39555,0.45963c-0.84538,-1.34705 0.05186,-2.57858 1.25864,-3.81265z" stroke-linecap="butt"/><path d="M248.80312,173.70088l-2.55649,2.55341" stroke-linecap="round"/><path d="M240.61886,175.87623c0.37905,-1.64022 1.71903,-1.50327 3.24476,-1.06454c1.52573,0.43874 2.50691,1.40262 2.28043,2.65332c-0.48022,2.65184 -2.00984,1.80493 -3.20453,1.4614c-1.52573,-0.43873 -2.85597,-0.73375 -2.32064,-3.05017z" stroke-linecap="butt"/><path d="M241.59484,176.46913l-3.19232,-0.96613" stroke-linecap="round"/><path d="M233.36203,171.59585c0.87555,-1.32839 2.06063,-0.55685 3.31901,0.58215c1.25839,1.139 1.84826,2.4995 1.23803,3.54254c-1.29387,2.21154 -2.42447,0.69466 -3.40983,-0.19721c-1.25839,-1.13901 -2.38368,-2.05147 -1.14721,-3.92748z" stroke-linecap="butt"/><path d="M234.06653,172.61208l-2.61745,-2.42751" stroke-linecap="round"/><path d="M226.7781,165.55757c0.87555,-1.32837 2.06063,-0.55685 3.31901,0.58215c1.2584,1.139 1.84826,2.4995 1.23803,3.54254c-1.29387,2.21153 -2.42447,0.69466 -3.40983,-0.19721c-1.25839,-1.139 -2.38367,-2.05146 -1.1472,-3.92748z" stroke-linecap="butt"/><path d="M224.86515,164.14628l2.61746,2.42751" stroke-linecap="round"/></g><path d="M256.77598,162.5841c-12.00609,1.39674 -23.65286,2.71533 -28.52275,2.22229c-4.45076,-0.4506 -6.054,-3.0567 -6.054,-3.0567c0,0 -2.00361,-2.23528 -2.25082,-3.75025c-0.74159,-4.54492 -2.24894,-17.60861 -2.50463,-28.98269c-0.00854,-0.37961 0.00042,-0.59326 0.01451,-0.9727c0.04227,-1.13832 0.39528,-5.57679 0.39528,-5.57679c0,0 2.99724,-1.98621 4.67048,-2.63949c5.01971,-1.95985 18.31614,-1.86893 32.19712,-2.91868c1.25813,-0.09514 3.58486,1.34939 3.58486,1.34939c0,0 1.86245,2.95811 2.02283,4.93514c1.0369,12.78184 2.13711,26.92787 2.17771,30.18429c0.01354,1.08548 -1.37338,5.44511 -1.37338,5.44511z" fill="#582700" stroke="#000000" stroke-width="2.5" stroke-linecap="round"/><path d="M252.01943,142.77461c0.01122,-3.44494 0.43404,-6.23628 0.94441,-6.23461c0.51036,0.00165 0.91499,2.79569 0.90378,6.24062c-0.01122,3.44494 -0.43404,6.23629 -0.94441,6.23462c-0.51036,-0.00165 -0.91499,-2.79569 -0.90378,-6.24063z" fill="none" stroke="#000000" stroke-width="2.5" stroke-linecap="butt"/><path d="M245.83059,143.38681c-0.04479,-3.50848 0.22919,-6.35662 0.61191,-6.3615c0.38274,-0.00489 0.72933,2.83533 0.77412,6.34381c0.04479,3.50848 -0.22916,6.3566 -0.6119,6.36149c-0.38274,0.00489 -0.72934,-2.83532 -0.77413,-6.34379z" fill="none" stroke="#000000" stroke-width="2.5" stroke-linecap="butt"/><path d="M213.67709,123.72111c-0.77231,-0.98286 0.21055,-1.75519 0.21055,-1.75519l1.22011,-0.90656c0.11377,-0.04924 0.22752,-0.09771 0.34129,-0.14541c-1.64733,-5.63687 -1.29966,-12.7017 -1.95488,-18.3825c-0.16992,-1.47324 -0.98225,-5.42591 -0.4089,-6.76831c0.96009,-2.24789 2.72594,-1.84404 4.61011,-2.05617c3.20588,-0.36094 6.39031,-0.67984 9.50932,-1.50633c7.73261,-2.03934 15.5014,-3.17076 23.32587,-4.73051c2.46907,-0.49219 4.89417,-0.85591 7.42437,-0.92261c0.69231,-0.01826 1.54209,-0.36634 2.07633,0.07437c1.8921,1.56083 1.38123,3.58896 1.2827,5.57432c-0.19654,3.96018 -1.41211,7.64699 -1.0879,11.64358c0.2276,3.05923 0.10575,6.23796 0.05341,9.30306c-0.01807,1.05774 0.5359,2.95071 -0.43154,3.85153c-1.9837,1.84709 -7.73201,1.2713 -10.26463,1.46926c-7.72244,0.60363 -15.46377,1.04869 -23.14004,2.09145c-2.73369,0.46697 -5.33099,0.99297 -7.89841,1.85945c0.01508,0.37323 -0.10836,0.86779 -0.76583,1.14557c-0.71332,0.30138 -1.17145,-0.02584 -1.4168,-0.31849c-0.08669,0.03667 -0.17337,0.07383 -0.26006,0.11148l-0.6699,0.57857c0,0 -0.98286,0.77231 -1.75519,-0.21055z" fill="#000000" stroke="none" stroke-width="0.5" stroke-linecap="butt"/><g><g stroke="#000000" stroke-width="3" stroke-linecap="round"><path d="M202.46957,200.19085l7.51448,-29.14694c0,0 1.51019,-5.5118 2.63016,-5.78574c3.35993,-0.82184 9.59839,1.15509 16.18674,1.85585c1.09511,0.11648 1.02783,6.04062 1.02783,6.04062c0,0 -0.51717,9.31616 -0.84819,15.27897c-0.50412,9.08077 -1.2917,23.26838 -1.2917,23.26838c0,0 -0.16504,7.27307 -2.16308,6.89969c0,0 -9.60195,2.73059 -25.34722,-3.45499c-0.49222,-4.58128 2.29096,-14.95582 2.29096,-14.95582z" data-paper-data="{&quot;origPos&quot;:null}" fill="#582700"/><path d="M202.31587,202.2873l25.40182,3.93292l-0.47288,3.36899l-25.39842,-3.67431z" data-paper-data="{&quot;origPos&quot;:null}" fill="none"/></g><path d="M203.10276,201.93669l9.34328,-36.23113l15.63017,2.39354l1.16668,0.8512l-1.24701,36.84646z" fill="#66c8ff" stroke="#000000" stroke-width="1" stroke-linecap="round"/><path d="M202.11019,205.4715l0.3366,-2.30667l25.23361,3.68205l-0.33659,2.30667z" fill="#ffffff" stroke="none" stroke-width="0" stroke-linecap="butt"/></g><g stroke="#000000" stroke-width="1.25" stroke-linecap="butt"><g data-paper-data="{&quot;index&quot;:null}" fill="#000000"><path d="M241.60675,155.99776c-9.08247,0.02641 -5.76636,-3.52897 -5.76636,-3.52897l11.37867,-0.17988c0,0 2.91805,3.60403 -5.6123,3.70884z"/></g><g data-paper-data="{&quot;index&quot;:null}" fill="#ffffff"><path d="M241.60675,155.99776c-9.08247,0.02641 -5.76636,-3.52897 -5.76636,-3.52897c0,0 7.69802,-0.12169 9.61909,-0.15205c0.00266,-0.00005 -0.59756,0.89012 -0.57603,1.77036c0.01764,0.72096 0.66018,1.46337 0.64388,1.46791c-0.90983,0.25346 -2.1757,0.42131 -3.92059,0.44275z"/></g></g></g></g></svg>