<svg version="1.1" xmlns="http://www.w3.org/2000/svg" xmlns:xlink="http://www.w3.org/1999/xlink" width="189.26654" height="221.55319" viewBox="0,0,189.26654,221.55319"><g transform="translate(-205.36673,-69.22341)"><g data-paper-data="{&quot;isPaintingLayer&quot;:true}" fill-rule="nonzero" stroke-linejoin="miter" stroke-miterlimit="10" stroke-dasharray="" stroke-dashoffset="0" style="mix-blend-mode: normal"><path d="M205.36673,290.77659v-221.55318h189.26654v221.55319z" fill="none" stroke="none" stroke-width="NaN" stroke-linecap="butt"/><g fill="#000000" stroke="#000000" stroke-linecap="round"><path d="M290.93658,181.51174c0,0 -27.74163,7.89121 -29.05952,-10.04101c-0.48556,-6.60682 15.81827,-6.15842 15.81827,-6.15842z" data-paper-data="{&quot;origPos&quot;:null}" stroke-width="2"/><path d="M282.08837,170.41959c0,0 -16.01352,-0.7724 -15.84869,-1.3993c0.52266,-1.98766 12.31423,-2.25671 12.31423,-2.25671z" data-paper-data="{&quot;origPos&quot;:null}" stroke-width="1"/></g><g><g data-paper-data="{&quot;index&quot;:null}"><g stroke="#000000" stroke-width="3" stroke-linecap="round"><path d="M337.62792,205.54813c0,0 3.64163,10.10522 3.53455,14.71163c-15.17239,7.48159 -24.96916,5.56413 -24.96916,5.56413c-1.95979,0.53929 -2.73291,-6.69446 -2.73291,-6.69446c0,0 -1.97216,-14.07193 -3.23446,-23.07865c-0.82888,-5.91419 -2.12389,-15.15439 -2.12389,-15.15439c0,0 -0.56284,-5.89772 0.51869,-6.10544c6.50659,-1.24966 12.55774,-3.74174 15.97465,-3.20398c1.13897,0.17925 3.10514,5.54533 3.10514,5.54533l9.92738,28.41582z" data-paper-data="{&quot;origPos&quot;:null}" fill="#000000"/><path d="M338.72791,211.19996l-25.00182,5.78697l-0.75316,-3.3176l24.98357,-6.04496z" data-paper-data="{&quot;origPos&quot;:null}" fill="none"/></g><path d="M312.66025,213.27062l-4.32623,-36.61284l1.09135,-0.94585l15.37503,-3.69321l12.34262,35.32211z" fill="#000000" stroke="#000000" stroke-width="1" stroke-linecap="round"/><path d="M313.591,216.56107l-0.52845,-2.27041l24.83695,-5.78089l0.52844,2.27041z" fill="#000000" stroke="none" stroke-width="0" stroke-linecap="butt"/></g><g fill="#000000" stroke="#000000" stroke-width="2" stroke-linecap="round"><path d="M335.44698,201.06755c0,0 4.3808,0.15628 4.53215,3.09664c0.24214,4.70445 -32.61441,1.46442 -33.16251,-3.42324c-0.22393,-1.99698 2.92304,-2.39757 2.92304,-2.39757l0.42843,1.82196c0,0 6.03153,1.96238 13.67884,2.88877c7.54133,0.91355 12.57996,0.15174 12.57996,0.15174z"/><path d="M332.63619,192.92134c0,0 2.8283,-2.54999 3.93268,-0.50725c2.31822,4.288 -25.39131,25.79886 -26.61524,21.32904c-0.74123,-2.70703 2.46421,-4.05774 2.46421,-4.05774l0.35447,1.33053c0,0 4.73617,-2.43491 10.9176,-7.40899c6.18144,-4.97408 9.43023,-9.47338 9.43023,-9.47338z" data-paper-data="{&quot;index&quot;:null}"/></g></g><path d="M295.35749,263.99392c0,0 -0.25233,4.44653 -1.64012,6.36384c-1.06241,1.46778 -3.01951,1.58458 -4.86355,1.58355c-5.06167,-0.00285 -9.453,-2.5567 -17.0802,-4.45954c-2.0773,-0.51825 -2.4655,-3.7851 -1.79993,-5.77018c0.62251,-1.85666 1.82145,-5.04696 1.82145,-5.04696l11.19563,-31.03879c0,0 1.58418,-3.97244 3.48731,-4.28224c4.58308,-0.74608 8.64614,1.74865 13.20532,2.62268c1.54504,0.2962 0.45546,4.94694 0.45546,4.94694c0,0 -1.209,8.87044 -1.98282,14.54799c-1.09216,8.01317 -2.79853,20.53274 -2.79853,20.53274z" fill="#000000" stroke="#000000" stroke-width="3" stroke-linecap="round"/><g data-paper-data="{&quot;origRot&quot;:0}" stroke="#000000" stroke-linecap="round"><path d="M301.36106,229.81346c0,0 -1.64494,-4.49327 -0.14653,-4.96476c4.42161,-1.39127 8.15436,-4.33502 12.7958,-4.12023c1.92737,0.08918 3.98137,3.85209 3.98137,3.85209l14.87468,29.53726c0,0 1.57674,3.03043 2.41966,4.8027c0.90122,1.89486 0.91117,5.18349 -1.08893,5.93657c-7.34369,2.76511 -11.3953,5.8052 -16.42134,6.38907c-1.83107,0.21271 -3.78867,0.3214 -5.02134,-1.01421c-1.61021,-1.74464 -2.39898,-6.13121 -2.39898,-6.13121z" data-paper-data="{&quot;origPos&quot;:null}" fill="#ff0000" stroke-width="3"/><path d="M336.43631,262.05788c0,0 -4.8263,4.4182 -9.72269,6.09616c-3.75668,1.28739 -12.24022,3.11606 -12.24022,3.11606c0,0 -2.1853,-1.99785 -2.81302,-3.46835c-0.66128,-1.54909 -0.4899,-4.26898 -0.4899,-4.26898l22.1665,-8.43628z" data-paper-data="{&quot;origPos&quot;:null}" fill="#976e57" stroke-width="2"/><path d="M301.54805,230.08734c0,0 -1.64494,-4.49327 -0.14653,-4.96475c4.4216,-1.39126 8.15436,-4.33503 12.79581,-4.12021c1.92737,0.08918 3.98136,3.85209 3.98136,3.85209l14.87467,29.53726c0,0 1.57677,3.03043 2.41969,4.80269c0.90122,1.89486 0.91117,5.18348 -1.08893,5.93657c-7.34369,2.76511 -11.3953,5.80521 -16.42134,6.38908c-1.83107,0.21271 -3.78867,0.32137 -5.02132,-1.01422c-1.61021,-1.74464 -2.39899,-6.1312 -2.39899,-6.1312z" data-paper-data="{&quot;origPos&quot;:null}" fill="#000000" stroke-width="3"/></g><g><g fill="#000000"><path d="M278.65415,185.82233c0,0 0.93868,-14.41842 3.09524,-15.11266c6.46966,-2.08271 21.59761,-2.1974 31.66393,-2.89055c1.55615,-0.10716 3.87398,13.21441 3.87398,13.21441l4.0168,30.23341c0,0 1.32418,14.80905 -0.37343,14.92595c-15.1118,1.04057 -32.76248,3.1053 -39.55866,2.73558c-2.26537,-0.12323 -2.55668,-15.80012 -2.55668,-15.80012z" data-paper-data="{&quot;origPos&quot;:null}" stroke="#000000" stroke-width="3.5" stroke-linecap="round"/><path d="M298.42523,192.62809c-1.31471,0.09052 -1.49374,-2.37504 -1.49374,-2.37504c-0.37132,-5.11378 -0.86199,-11.87126 -1.2333,-16.98504c0,0 -0.17903,-2.46557 1.13568,-2.5561c1.31471,-0.09052 1.49374,2.37503 1.49374,2.37503c0.37132,5.11378 0.74263,10.22755 1.11395,15.34133l0.11934,1.64371c0,0 0.17903,2.46558 -1.13568,2.55611z" stroke="none" stroke-width="0.5" stroke-linecap="butt"/><path d="M311.0951,198.06456c-1.31471,0.09052 -1.53962,-3.00692 -1.53962,-3.00692c-0.46649,-6.42435 -1.0829,-14.91366 -1.54937,-21.33799c0,0 -0.22491,-3.09745 1.08981,-3.18798c1.31471,-0.09052 1.53962,3.00692 1.53962,3.00692c0.46649,6.42435 0.93295,12.84869 1.39944,19.27304l0.14994,2.06496c0,0 0.22491,3.09746 -1.08981,3.18799z" stroke="none" stroke-width="0.5" stroke-linecap="butt"/></g><g fill="none" stroke-width="3"><path d="M311.56154,172.63049c-0.94003,-1.28812 -0.09809,-2.56096 1.05901,-3.85397c1.15712,-1.29298 2.37965,-1.74766 3.13127,-0.8284c1.59362,1.94911 0.14792,3.02041 -0.75812,4.03286c-1.15712,1.293 -2.10458,2.46869 -3.43215,0.64953z" stroke="#b9b9b9" stroke-linecap="butt"/><path d="M312.52086,171.97598l-2.45485,2.67875" stroke="#b9b9b9" stroke-linecap="round"/><path d="M306.50154,175.52708c1.15712,-1.29298 2.37966,-1.74766 3.13127,-0.8284c1.59362,1.94911 0.14792,3.02041 -0.75812,4.03286c-1.1571,1.29299 -2.10457,2.46868 -3.43215,0.64952c-0.94003,-1.28812 -0.09811,-2.56097 1.059,-3.85398z" stroke="#000000" stroke-linecap="butt"/><path d="M306.40183,178.72652l-2.45483,2.67877" stroke="#000000" stroke-linecap="round"/><path d="M298.19187,181.35105c0.29012,-1.64875 1.66318,-1.58927 3.24312,-1.24101c1.57994,0.34827 2.63589,1.24852 2.47838,2.50216c-0.33397,2.65806 -1.94177,1.9051 -3.1789,1.6324c-1.57993,-0.34826 -2.95232,-0.56509 -2.54258,-2.89355z" stroke="#000000" stroke-linecap="butt"/><path d="M299.2208,181.88359l-3.30857,-0.77646" stroke="#000000" stroke-linecap="round"/><path d="M290.54879,177.51847c0.81416,-1.3677 2.06657,-0.66987 3.41515,0.38831c1.34858,1.05818 2.02913,2.37421 1.46854,3.44372c-1.18861,2.26766 -2.42913,0.82731 -3.48513,-0.00126c-1.34858,-1.05819 -2.54835,-1.89923 -1.39856,-3.83076z" stroke="#000000" stroke-linecap="butt"/><path d="M288.51746,176.22749l2.80848,2.25895" stroke="#000000" stroke-linecap="round"/><path d="M283.48829,171.90367c0.81416,-1.36768 2.06656,-0.66987 3.41515,0.38831c1.34859,1.05818 2.02913,2.37421 1.46854,3.44372c-1.18861,2.26765 -2.42913,0.82731 -3.48513,-0.00126c-1.34858,-1.05818 -2.54833,-1.89922 -1.39854,-3.83076z" stroke="#000000" stroke-linecap="butt"/><path d="M284.26545,172.87161l-2.80849,-2.25895" stroke="#000000" stroke-linecap="round"/></g></g><path d="M305.97409,157.8805c0,0 -2.72083,0.44992 -6.06883,0.42912" fill="none" stroke="#000000" stroke-width="2.5" stroke-linecap="round"/><path d="M313.84043,174.32356c-12.00448,-1.41051 -23.64131,-2.81416 -28.26612,-4.4173c-4.22678,-1.46515 -5.1856,-4.3708 -5.1856,-4.3708c0,0 -1.43394,-2.63719 -1.325,-4.16832c0.32684,-4.59341 1.87368,-17.65248 4.24867,-28.77877c0.07926,-0.37134 0.13726,-0.57716 0.23851,-0.94312c0.30372,-1.09786 1.67108,-5.3352 1.67108,-5.3352c0,0 3.37458,-1.24123 5.1534,-1.49091c5.33642,-0.74904 18.25326,2.40665 32.00202,4.58731c1.24615,0.19766 3.1769,2.13995 3.1769,2.13995c0,0 1.12984,3.30796 0.82982,5.26867c-1.9396,12.6763 -4.13227,26.6946 -4.84397,29.87256c-0.23722,1.05932 -2.59242,4.98144 -2.59242,4.98144z" fill="#000000" stroke="#000000" stroke-width="2.5" stroke-linecap="round"/><path d="M280.86887,126.56663c-0.52475,-1.13452 0.60976,-1.65927 0.60976,-1.65927l1.39633,-0.60065c0.12206,-0.02166 0.24392,-0.04259 0.36563,-0.06276c-0.30258,-5.86484 1.66544,-12.65893 2.33833,-18.33767c0.17451,-1.4727 0.2959,-5.50615 1.16345,-6.68009c1.45274,-1.9658 3.07781,-1.16548 4.9601,-0.93725c3.20268,0.38833 6.37478,0.81262 9.60033,0.72791c7.9945,-0.20058 15.81475,0.49064 23.78801,0.77791c2.51602,0.09066 4.95962,0.29617 7.43696,0.81492c0.67785,0.14193 1.58501,-0.00073 2.00318,0.55134c1.48101,1.9552 0.51607,3.81078 -0.03778,5.71987c-1.10477,3.80803 -3.13803,7.115 -3.74451,11.07859c-0.48425,3.02922 -1.33608,6.09411 -2.09406,9.06447c-0.26158,1.02504 -0.15923,2.99476 -1.30838,3.64811c-2.35629,1.33968 -7.81674,-0.54662 -10.32672,-0.93822c-7.65341,-1.19407 -15.28861,-2.5468 -22.99839,-3.30293c-2.76768,-0.17623 -5.41627,-0.26358 -8.11433,-0.0127c-0.07142,0.36664 -0.30562,0.81939 -1.00943,0.93802c-0.7636,0.12871 -1.13388,-0.29538 -1.30511,-0.63673c-0.09281,0.01568 -0.18573,0.03185 -0.27877,0.04848l-0.7853,0.40843c0,0 -1.13452,0.52475 -1.65927,-0.60977z" fill="#000000" stroke="none" stroke-width="0.5" stroke-linecap="butt"/><g><g stroke="#000000" stroke-width="3" stroke-linecap="round"><path d="M259.0317,206.72744l8.27841,-28.93924c0,0 1.65462,-5.47018 2.78141,-5.71457c3.38038,-0.73319 9.56469,1.40711 16.13234,2.28089c1.09167,0.14524 0.86861,6.06556 0.86861,6.06556c0,0 -0.762,9.29934 -1.24971,15.25138c-0.74275,9.06438 -1.90318,23.22636 -1.90318,23.22636c0,0 -0.35625,7.26622 -2.34378,6.84042c0,0 -9.67045,2.47713 -25.24759,-4.1204c-0.37157,-4.59265 2.68348,-14.89039 2.68348,-14.89039z" data-paper-data="{&quot;origPos&quot;:null}" fill="#582700"/><path d="M258.82292,208.81913l25.2896,4.59959l-0.56132,3.35539l-25.293,-4.34098z" data-paper-data="{&quot;origPos&quot;:null}" fill="none"/></g><path d="M259.61876,208.48933l10.29287,-35.97289l15.56182,2.80376l1.14389,0.88159l-2.21558,36.80093z" fill="#000000" stroke="#000000" stroke-width="1" stroke-linecap="round"/><path d="M258.53357,211.99682l0.39715,-2.29702l25.12804,4.34438l-0.39713,2.29702z" fill="#ffffff" stroke="none" stroke-width="0" stroke-linecap="butt"/></g><path d="M297.97099,147.14319c4.99327,-1.78643 8.9091,0.98453 9.83487,5.95403c1.06176,5.69943 -3.17167,8.25634 -3.17167,8.25634c0,0 -2.3789,-1.42545 -5.54051,-2.25701c-3.93672,-1.03542 -6.19935,-0.89075 -6.19935,-0.89075c0,0 -1.69725,-8.63912 5.07666,-11.06261z" fill="#000000" stroke="#000000" stroke-width="2" stroke-linecap="butt"/><path d="M323.52723,151.55849c5.41139,4.74088 0.66137,12.15385 0.66137,12.15385c0,0 -2.05156,-0.96513 -6.09354,-1.44709c-3.24616,-0.38707 -5.98223,0.06562 -5.98223,0.06562c0,0 -2.99928,-3.93242 0.0805,-8.84422c2.68535,-4.28273 7.34498,-5.42282 11.33389,-1.92817z" data-paper-data="{&quot;index&quot;:null}" fill="#000000" stroke="#000000" stroke-width="2" stroke-linecap="butt"/><g data-paper-data="{&quot;index&quot;:null}" fill="#000000" stroke="#000000" stroke-width="1.25" stroke-linecap="butt"><path d="M290.55077,174.00432c-10.18048,-3.08202 -4.38003,-12.97172 -4.38003,-12.97172l15.19503,4.45367c0,0 -0.03661,11.78108 -10.815,8.51805z"/><path d="M290.21738,170.4639c2.55143,1.66444 4.1819,4.11665 3.70427,4.11102c-0.98699,-0.01162 -2.10483,-0.18733 -3.37088,-0.57061c-3.79444,-1.14872 -5.36883,-3.24315 -5.85098,-5.41874c-0.09366,-0.42266 3.17464,0.34988 5.51758,1.87832z"/><path d="M284.93186,164.57503c0.47206,-1.45712 1.23887,-3.54243 1.23887,-3.54243l13.35422,3.91413l-1.02512,3.71617c0,0 -13.58355,-4.03984 -13.56799,-4.08787z"/></g><path d="M266.1391,184.65127l0.19819,-0.05061c1.17766,1.80576 1.4067,3.54004 2.35146,5.4229c0.64931,1.29403 1.51109,1.74827 2.0772,3.17325c0.35149,0.88477 0.27193,2.00467 0.91693,2.70492c1.62279,1.76177 3.58847,0.97018 5.19368,3.2606c0.67505,0.96321 0.14182,2.43051 0.72114,3.45416c0.52976,0.93607 3.71546,1.42005 4.59573,2.06417c3.36196,2.46005 3.93776,5.53127 3.93776,9.39074c0,3.90835 0.94966,9.27158 -3.06966,11.73221c-1.84587,1.13004 -4.38918,0.76779 -6.43034,0.76779c-4.33161,0 -9.30983,-0.22445 -13.5882,-1.03299c-1.83018,-0.34588 -5.07574,-1.36535 -6.14231,-3.03396c-0.63323,-0.99066 -0.51672,-3.25453 -0.51949,-4.43305c0.01216,-6.68535 1.59338,-14.40908 3.58437,-20.78682c1.06989,-3.4272 2.38151,-6.23407 2.78888,-9.61032c-0.88904,-0.99847 -0.02325,-2.15286 -0.02325,-2.15286l0.15449,-0.03945c0.02832,-0.35699 0.23513,-1.66055 1.74551,-1.66055c0.8449,0 1.28189,0.40793 1.50789,0.82988z" fill="#000000" stroke="none" stroke-width="0.5" stroke-linecap="butt"/><path d="M298.44784,259.52955c0.92856,0.12776 1.94995,-0.29338 2.60645,0.37563c2.7161,2.76788 1.25839,3.59477 0.71004,5.90916c-0.31563,1.33217 0.68228,2.85327 0.12813,4.10516c-1.73556,3.92091 -6.53967,4.17756 -10.05184,3.74421l-1.83294,-1.08649c0,0 -0.01415,-0.01061 -0.03853,-0.03112c-3.16788,1.35269 -8.08616,-0.37246 -11.41147,-0.36888c-4.81052,0 -9.36594,-0.64811 -14.12406,-1.0044c-5.34433,-0.40019 -12.01696,0.92386 -17.11048,-1.40721c-1.28269,-0.58703 -2.16641,-1.85502 -3.43516,-2.47159c-1.11563,-0.54216 -2.56648,0.04787 -3.69052,-0.47663c-0.95024,-0.44339 -1.65825,-1.28391 -2.48737,-1.92587c0.15286,-1.17627 -0.15394,-2.51303 0.45858,-3.5288c0.69137,-1.14653 2.71896,-0.71233 3.65157,-1.67293c2.15861,-2.22343 1.64205,-3.9233 6.1035,-3.81132c2.33691,0.05866 4.95278,0.19648 7.38927,-0.18406c1.28362,-0.20048 2.41399,-1.02233 3.69459,-1.24127c3.42955,-0.58635 7.04312,-0.73477 10.54895,-0.47954c0.01519,-0.35425 2.25908,-0.48867 2.22335,-0.82415l1,-0.80556c0,0 -1.55556,-0.89442 -0.38449,-1.22999c0.56342,-0.5226 0.65151,-0.88712 0.81673,-1.60157c0.18126,-0.78383 0.76539,-2.57132 1.27887,-3.19067c0.45886,-0.55347 2.92803,-2.51737 3.76069,-2.47427c0.48929,0.02533 1.32889,3.25518 2.13931,3.2465c1.329,-0.01424 2.36961,-2.27432 3.69402,-2.16317c2.02568,0.17001 5.56657,0.46368 7.10381,1.27227c2.81942,1.48304 5.15851,0.45201 6.76431,4.37848c0.3268,0.79908 0.05841,1.72565 0.08761,2.58847c-0.46868,1.67955 -1.28401,2.83409 -2.03156,4.10195c1.44139,-0.65381 0.17233,-0.82665 2.23863,-0.54236z" fill="#000000" stroke="none" stroke-width="0.5" stroke-linecap="butt"/></g></g></svg>