<svg version="1.1" xmlns="http://www.w3.org/2000/svg" xmlns:xlink="http://www.w3.org/1999/xlink" width="50.09418" height="51.21626" viewBox="0,0,50.09418,51.21626"><g transform="translate(-214.95178,-154.39079)"><g data-paper-data="{&quot;isPaintingLayer&quot;:true}" fill-rule="nonzero" stroke-linejoin="miter" stroke-miterlimit="10" stroke-dasharray="" stroke-dashoffset="0" style="mix-blend-mode: normal"><path d="M242.55934,190.92737l-25.51688,-0.31467c0,0 -2.46623,-16.26212 -0.70881,-18.72289c2.55676,-3.58001 23.98115,-0.78667 23.98115,-0.78667" data-paper-data="{&quot;index&quot;:null}" fill="#87a3ad" stroke="#000000" stroke-width="1.5" stroke-linecap="round"/><path d="M234.64439,172.14411c0,0 -2.36168,-2.93062 -5.67043,-7.56056c-0.19955,-0.27924 1.6304,-2.71747 3.09233,-3.97282c1.99339,-1.71172 7.77597,-5.35975 7.77597,-5.35975c0,0 24.23357,12.1548 24.4537,23.39048c0.27345,13.95754 -24.45369,26.10756 -24.45369,26.10756c0,0 -5.78258,-3.64803 -7.77597,-5.35975c-1.46193,-1.25535 -3.29189,-3.69358 -3.09233,-3.97282c3.30875,-4.62994 6.26109,-9.0963 6.26109,-9.0963" data-paper-data="{&quot;index&quot;:null}" fill="#87a3ad" stroke="#000000" stroke-width="1.5" stroke-linecap="round"/><path d="M242.44947,190.45825l-24.42142,-0.30116c0,0 -2.36035,-15.56397 -0.67838,-17.9191c2.447,-3.42632 22.95162,-0.7529 22.95162,-0.7529" data-paper-data="{&quot;index&quot;:null}" fill="none" stroke="#ffffff" stroke-width="1.5" stroke-linecap="round"/><path d="M234.87431,172.48137c0,0 -2.26029,-2.80481 -5.42699,-7.23598c-0.19098,-0.26725 1.56041,-2.60081 2.95957,-3.80226c1.90781,-1.63823 7.44214,-5.12965 7.44214,-5.12965c0,0 23.1932,11.63298 23.40388,22.3863c0.26171,13.35833 -23.40387,24.98674 -23.40387,24.98674c0,0 -5.53433,-3.49142 -7.44214,-5.12965c-1.39917,-1.20146 -3.15057,-3.53501 -2.95957,-3.80226c3.1667,-4.43117 5.9923,-8.70579 5.9923,-8.70579" data-paper-data="{&quot;index&quot;:null}" fill="none" stroke="#ffffff" stroke-width="1.5" stroke-linecap="round"/><path d="M242.55934,190.92737l-25.51688,-0.31467c0,0 -2.46623,-16.26212 -0.70881,-18.72289c2.55676,-3.58001 23.98115,-0.78667 23.98115,-0.78667" data-paper-data="{&quot;index&quot;:null}" fill="none" stroke="#000000" stroke-width="1.5" stroke-linecap="round"/><path d="M234.64439,172.14411c0,0 -2.36168,-2.93062 -5.67043,-7.56056c-0.19955,-0.27924 1.6304,-2.71747 3.09233,-3.97282c1.99339,-1.71172 7.77597,-5.35975 7.77597,-5.35975c0,0 24.23357,12.1548 24.4537,23.39048c0.27345,13.95754 -24.45369,26.10756 -24.45369,26.10756c0,0 -5.78258,-3.64803 -7.77597,-5.35975c-1.46193,-1.25535 -3.29189,-3.69358 -3.09233,-3.97282c3.30875,-4.62994 6.26109,-9.0963 6.26109,-9.0963" data-paper-data="{&quot;index&quot;:null}" fill="none" stroke="#000000" stroke-width="1.5" stroke-linecap="round"/><path d="M232.1875,193.125l1.875,-3.125l5.75,-7.75l7,10.625z" fill="#87a3ad" stroke="none" stroke-width="0" stroke-linecap="butt"/><path d="M247.1875,167.375l-7,10.625l-5.75,-7.75l-1.875,-3.125z" data-paper-data="{&quot;index&quot;:null}" fill="#87a3ad" stroke="none" stroke-width="0" stroke-linecap="butt"/></g></g></svg>