<svg version="1.1" xmlns="http://www.w3.org/2000/svg" xmlns:xlink="http://www.w3.org/1999/xlink" width="249.11061" height="238.5062" viewBox="0,0,249.11061,238.5062"><defs><radialGradient cx="201.92133" cy="182.84204" r="86.5" gradientUnits="userSpaceOnUse" id="color-1"><stop offset="0" stop-color="#6bfa77"/><stop offset="1" stop-color="#6bfa77" stop-opacity="0"/></radialGradient><radialGradient cx="236.71911" cy="212.68101" r="86.5" gradientUnits="userSpaceOnUse" id="color-2"><stop offset="0" stop-color="#6bfa7e"/><stop offset="1" stop-color="#6bfa7e" stop-opacity="0"/></radialGradient><radialGradient cx="278.03094" cy="179.15739" r="86.5" gradientUnits="userSpaceOnUse" id="color-3"><stop offset="0" stop-color="#6bfa77"/><stop offset="1" stop-color="#6bfa77" stop-opacity="0"/></radialGradient><radialGradient cx="237.2826" cy="147.1758" r="86.5" gradientUnits="userSpaceOnUse" id="color-4"><stop offset="0" stop-color="#6bfa77"/><stop offset="1" stop-color="#6bfa77" stop-opacity="0"/></radialGradient></defs><g transform="translate(-115.42083,-60.6753)"><g data-paper-data="{&quot;isPaintingLayer&quot;:true}" fill-rule="nonzero" stroke-linejoin="miter" stroke-miterlimit="10" stroke-dasharray="" stroke-dashoffset="0" style="mix-blend-mode: normal"><path d="M273.18768,174.64203l-2.75668,76.6466c0,0 -48.05332,6.26717 -55.17188,0.81385c-10.35632,-7.93371 -0.59587,-72.10971 -0.59587,-72.10971" data-paper-data="{&quot;index&quot;:null}" fill="#ffcde0" stroke="#561b25" stroke-width="1.5" stroke-linecap="round"/><path d="M217.3212,197.10337c0,0 -8.79728,6.89 -22.66536,16.50615c-0.83641,0.57995 -7.88341,-5.08974 -11.47435,-9.57051c-4.89639,-6.1097 -15.22159,-23.74058 -15.22159,-23.74058c0,0 37.5225,-71.95857 70.61664,-71.83031c41.11125,0.15933 75.10783,75.3091 75.10783,75.3091c0,0 -11.15473,17.11811 -16.3371,22.98719c-3.80067,4.30432 -11.11018,9.63131 -11.91796,9.01208c-13.39343,-10.26697 -26.33083,-19.45155 -26.33083,-19.45155" data-paper-data="{&quot;index&quot;:null}" fill="#ffcde0" stroke="#561b25" stroke-width="1.5" stroke-linecap="round"/><path d="M273.18768,174.64203l-2.75668,76.6466c0,0 -48.05332,6.26717 -55.17188,0.81385c-10.35632,-7.93371 -0.59587,-72.10971 -0.59587,-72.10971" data-paper-data="{&quot;index&quot;:null}" fill="#ffcde0" stroke="#561b25" stroke-width="5" stroke-linecap="round"/><path d="M217.3212,197.10337c0,0 -8.79728,6.89 -22.66536,16.50615c-0.83641,0.57995 -7.88341,-5.08974 -11.47435,-9.57051c-4.89639,-6.1097 -15.22159,-23.74058 -15.22159,-23.74058c0,0 37.5225,-71.95857 70.61664,-71.83031c41.11125,0.15933 75.10783,75.3091 75.10783,75.3091c0,0 -11.15473,17.11811 -16.3371,22.98719c-3.80067,4.30432 -11.11018,9.63131 -11.91796,9.01208c-13.39343,-10.26697 -26.33083,-19.45155 -26.33083,-19.45155" data-paper-data="{&quot;index&quot;:null}" fill="#ffcde0" stroke="#561b25" stroke-width="5" stroke-linecap="round"/><g stroke="none" stroke-width="0" stroke-linecap="butt"><path d="M199.85695,269.3174c-47.75902,-1.14013 -85.55111,-40.78072 -84.41098,-88.53974c1.14013,-47.75902 40.78072,-85.55111 88.53974,-84.41098c47.75902,1.14013 85.55111,40.78072 84.41098,88.53974c-1.14013,47.75902 -40.78072,85.55111 -88.53974,84.41098z" fill="url(#color-1)"/><path d="M234.65473,299.15637c-47.75902,-1.14013 -85.55111,-40.78072 -84.41098,-88.53974c1.14013,-47.75902 40.78072,-85.55111 88.53974,-84.41098c47.75902,1.14013 85.55111,40.78072 84.41098,88.53974c-1.14013,47.75902 -40.78072,85.55111 -88.53974,84.41098z" fill="url(#color-2)"/><path d="M275.96656,265.63276c-47.75902,-1.14013 -85.55111,-40.78072 -84.41098,-88.53974c1.14013,-47.75902 40.78072,-85.55111 88.53974,-84.41098c47.75902,1.14013 85.55111,40.78072 84.41098,88.53974c-1.14013,47.75902 -40.78072,85.55111 -88.53974,84.41098z" fill="url(#color-3)"/><path d="M235.21822,233.65116c-47.75902,-1.14013 -85.55111,-40.78072 -84.41098,-88.53974c1.14013,-47.75902 40.78072,-85.55111 88.53974,-84.41098c47.75902,1.14013 85.55111,40.78072 84.41098,88.53974c-1.14013,47.75902 -40.78072,85.55111 -88.53974,84.41098z" fill="url(#color-4)"/></g><g fill="#ffffff" stroke-linecap="round"><path d="M272.35424,173.07811l-2.75668,76.6466c0,0 -48.05332,6.26717 -55.17188,0.81385c-10.35632,-7.93371 -0.59587,-72.10971 -0.59587,-72.10971" data-paper-data="{&quot;index&quot;:null}" stroke="#ff8282" stroke-width="1.5"/><path d="M216.48775,195.53946c0,0 -8.79728,6.89 -22.66536,16.50615c-0.83641,0.57995 -7.88341,-5.08974 -11.47435,-9.57051c-4.89639,-6.1097 -15.22159,-23.74058 -15.22159,-23.74058c0,0 37.5225,-71.95857 70.61664,-71.83031c41.11125,0.15933 75.10783,75.3091 75.10783,75.3091c0,0 -11.15473,17.11811 -16.3371,22.98719c-3.80067,4.30432 -11.11018,9.63131 -11.91796,9.01208c-13.39343,-10.26697 -26.33083,-19.45155 -26.33083,-19.45155" data-paper-data="{&quot;index&quot;:null}" stroke="#ff8282" stroke-width="1.5"/><path d="M272.35424,173.07811l-2.75668,76.6466c0,0 -48.05332,6.26717 -55.17188,0.81385c-10.35632,-7.93371 -0.59587,-72.10971 -0.59587,-72.10971" data-paper-data="{&quot;index&quot;:null}" stroke="#82ff8c" stroke-width="5"/><path d="M216.46388,196.53918c0,0 -8.79728,6.89 -22.66536,16.50615c-0.83641,0.57995 -7.88341,-5.08974 -11.47435,-9.57051c-4.89639,-6.1097 -15.22159,-23.74058 -15.22159,-23.74058c0,0 37.5225,-71.95857 70.61664,-71.83031c41.11125,0.15933 75.10783,75.3091 75.10783,75.3091c0,0 -11.15473,17.11811 -16.3371,22.98719c-3.80067,4.30432 -11.11018,9.63131 -11.91796,9.01208c-13.39343,-10.26697 -26.33083,-19.45155 -26.33083,-19.45155" data-paper-data="{&quot;index&quot;:null}" stroke="#82ff91" stroke-width="5"/></g></g></g></svg>