<svg version="1.1" xmlns="http://www.w3.org/2000/svg" xmlns:xlink="http://www.w3.org/1999/xlink" width="189.26654" height="221.55319" viewBox="0,0,189.26654,221.55319"><g transform="translate(-145.36673,-69.22341)"><g data-paper-data="{&quot;isPaintingLayer&quot;:true}" fill-rule="nonzero" stroke-linejoin="miter" stroke-miterlimit="10" stroke-dasharray="" stroke-dashoffset="0" style="mix-blend-mode: normal"><path d="M145.36673,290.77659v-221.55318h189.26654v221.55319z" fill="none" stroke="none" stroke-width="NaN" stroke-linecap="butt"/><g data-paper-data="{&quot;origRot&quot;:0}" stroke="#000000" stroke-linecap="round"><path d="M261.25313,223.18054c0,0 -2.86147,-4.0046 -1.44328,-4.81681c4.18493,-2.39669 7.25723,-6.14877 12.08636,-7.02771c2.00531,-0.36499 5.09731,2.83 5.09731,2.83l22.98706,25.37217c0,0 2.41049,2.59122 3.73875,4.12521c1.42014,1.6401 2.28658,4.85117 0.42576,6.05621c-6.83228,4.42459 -10.20742,8.3456 -15.22414,10.09516c-1.82767,0.63739 -3.81256,1.20281 -5.42794,0.18693c-2.11014,-1.32699 -4.06336,-5.42818 -4.06336,-5.42818z" data-paper-data="{&quot;origPos&quot;:null}" fill="#ff0000" stroke-width="3"/><path d="M305.71911,246.45913c0,0 -3.81304,5.44932 -8.41157,8.23753c-3.52817,2.1392 -11.77645,5.91618 -11.77645,5.91618c0,0 -2.76749,-1.43951 -3.79588,-2.72912c-1.08336,-1.35853 -1.61525,-4.0564 -1.61525,-4.0564l20.59941,-13.44328z" data-paper-data="{&quot;origPos&quot;:null}" fill="#976e57" stroke-width="2"/><path d="M261.51677,223.40429c0,0 -2.86147,-4.0046 -1.44326,-4.81681c4.18493,-2.39669 7.25723,-6.14877 12.08638,-7.0277c2.00531,-0.36499 5.09729,2.82999 5.09729,2.82999l22.98706,25.37217c0,0 2.41051,2.59122 3.73877,4.1252c1.42014,1.6401 2.28656,4.85116 0.42576,6.05621c-6.83228,4.42459 -10.20742,8.34561 -15.22413,10.09517c-1.82767,0.63739 -3.81256,1.2028 -5.42793,0.18693c-2.11014,-1.32699 -4.06337,-5.42817 -4.06337,-5.42817z" data-paper-data="{&quot;origPos&quot;:null}" fill="#474747" stroke-width="3"/></g><g data-paper-data="{&quot;index&quot;:null,&quot;origRot&quot;:0}" stroke="#000000" stroke-linecap="round"><path d="M241.53962,254.42524c0,0 -1.32613,4.31049 -3.21935,5.89301c-1.44934,1.2115 -3.49932,0.90359 -5.40427,0.50445c-5.22884,-1.0956 -9.15387,-4.5507 -16.57805,-8.06533c-2.02201,-0.95723 -1.64031,-4.24796 -0.47702,-6.05295c1.08803,-1.6882 3.09116,-4.56113 3.09116,-4.56113l19.00411,-28.05232c0,0 2.58857,-3.55755 4.62902,-3.45079c4.91383,0.25708 8.51384,3.58326 13.01478,5.42558c1.5253,0.62433 -0.71477,4.95455 -0.71477,4.95455z" data-paper-data="{&quot;origPos&quot;:null}" fill="#ff0000" stroke-width="3"/><path d="M218.34585,243.07507l22.39927,10.69879c0,0 -0.12649,2.7399 -0.99798,4.22319c-0.82727,1.40806 -3.35493,3.18553 -3.35493,3.18553c0,0 -8.73067,-2.69327 -12.54286,-4.36395c-4.96873,-2.17755 -9.55434,-7.09081 -9.55434,-7.09081z" data-paper-data="{&quot;origPos&quot;:null}" fill="#976e57" stroke-width="2.5"/><path d="M241.31169,254.68039c0,0 -1.32613,4.31049 -3.21935,5.89301c-1.44934,1.2115 -3.49932,0.9036 -5.40427,0.50446c-5.22884,-1.0956 -9.15387,-4.55069 -16.57805,-8.06533c-2.02201,-0.95723 -1.64031,-4.24796 -0.47702,-6.05294c1.08803,-1.6882 3.09116,-4.56113 3.09116,-4.56113l19.00411,-28.05232c0,0 2.58856,-3.55755 4.62902,-3.45079c4.91383,0.25708 8.51386,3.58327 13.01479,5.42558c1.5253,0.62433 -0.71478,4.95454 -0.71478,4.95454c0,0 -3.37454,8.4467 -5.53443,13.85304c-3.04842,7.63039 -7.8112,19.5519 -7.8112,19.5519z" data-paper-data="{&quot;origPos&quot;:null}" fill="#474747" stroke-width="1.5"/></g><g><g><g data-paper-data="{&quot;origRot&quot;:0}" stroke="#000000" stroke-width="3" stroke-linecap="round"><path d="M310.29419,186.55654c1.4001,1.82763 -6.38539,5.3481 -6.38539,5.3481c0,0 -20.31187,9.8567 -29.88378,14.55052c-4.33624,1.41061 -27.4594,-27.06644 -26.72506,-32.32647c0.32735,-2.34476 6.84443,-9.17302 8.81791,-8.92215c3.75634,0.47752 16.90718,9.86361 16.90718,9.86361l-3.22344,2.39076l9.08073,-5.48851c0,0 9.95979,-7.26294 15.03646,-9.19265c2.81556,-1.07023 16.37538,23.77678 16.37538,23.77678z" data-paper-data="{&quot;origPos&quot;:null}" fill="#582700"/><path d="M301.91335,191.24553l-16.11294,-23.07926" fill="none"/><path d="M298.74101,193.45318l-16.3505,-22.93726" data-paper-data="{&quot;origPos&quot;:null}" fill="none"/></g><path d="M302.09969,191.81239l-2.32286,1.40757l-16.64155,-23.51169l2.32286,-1.40757z" fill="#ffffff" stroke="none" stroke-width="0" stroke-linecap="butt"/><path d="M273.83573,206.71423l-8.49644,-6.41375l-13.88925,-17.78941l-3.2528,-7.1547l0.92667,-4.61124l5.96233,-4.0735l1.19246,-0.81471l15.3451,8.8385l-2.2382,1.81329l1.17402,1.47114l10.9737,-6.64484l17.16053,22.65829l-23.81243,11.72231z" fill="#ffcb66" stroke="#000000" stroke-width="0.5" stroke-linecap="round"/></g><g fill="none" stroke="none" stroke-width="1" stroke-linecap="butt" font-family="sans-serif" font-weight="normal" font-size="12" text-anchor="start"/></g><g><g><path d="M236.81617,170.67878c0,0 3.48542,-14.17739 5.86087,-14.52964c7.12633,-1.05676 22.96394,1.19648 33.60961,2.08301c1.64572,0.13705 1.75575,13.73431 1.75575,13.73431l-1.05047,30.66453c0,0 -1.18724,14.91955 -2.98254,14.77005c-15.98152,-1.33088 -34.79552,-2.04157 -41.83737,-3.47231c-2.34726,-0.4769 0.07064,-16.09701 0.07064,-16.09701z" data-paper-data="{&quot;origPos&quot;:null}" fill="#ffcb66" stroke="#000000" stroke-width="3.5" stroke-linecap="round"/><path d="M256.30678,180.53382c-1.39037,-0.11578 -1.14939,-2.59327 -1.14939,-2.59327c0.49982,-5.13849 1.16031,-11.92862 1.66013,-17.06711c0,0 0.24099,-2.47749 1.63136,-2.3617c1.39037,0.11578 1.14939,2.59327 1.14939,2.59327c-0.49982,5.13849 -0.99966,10.27697 -1.49948,15.41546l-0.16066,1.65165c0,0 -0.24099,2.47749 -1.63136,2.3617z" fill="#ffffff" stroke="none" stroke-width="0.5" stroke-linecap="butt"/><path d="M268.61021,187.91733c-1.39037,-0.11578 -1.08763,-3.2282 -1.08763,-3.2282c0.62793,-6.45539 1.45767,-14.98572 2.0856,-21.4411c0,0 0.30274,-3.11242 1.69312,-2.99663c1.39037,0.11578 1.08763,3.2282 1.08763,3.2282c-0.62793,6.45539 -1.25585,12.91077 -1.88377,19.36617l-0.20183,2.07494c0,0 -0.30274,3.11242 -1.69312,2.99663z" fill="#ffffff" stroke="none" stroke-width="0.5" stroke-linecap="butt"/></g><g stroke="#000000" stroke-width="0.5" stroke-linecap="butt"><path d="M270.63498,198.10079c-0.65469,6.73053 -6.15307,11.77301 -12.28098,11.26271c-6.12791,-0.51031 -10.56484,-6.38017 -9.91015,-13.1107c0.65469,-6.73053 6.15307,-11.77301 12.28098,-11.26271c6.12791,0.51031 10.56484,6.38017 9.91015,13.1107z" fill="#ffa924"/><path d="M263.92732,186.20881c-0.00064,0.0112 -0.0015,0.02261 -0.00264,0.03421c-0.06052,0.62221 -0.73298,0.56621 -0.73298,0.56621l-0.13449,-0.0112c-0.49133,-0.04092 -2.73382,-0.19965 -3.05642,-0.36237c-0.26931,-0.13584 -0.16668,-0.55917 -0.34766,-0.78829c-0.17388,-0.22012 -0.43724,-0.3692 -0.6842,-0.51794c-0.39272,-0.23653 -0.95625,-0.28019 -1.22772,-0.63359c-0.25077,-0.32646 -0.2388,-0.79481 -0.17368,-1.19077c0.30585,-1.8596 1.54783,-1.77547 3.13334,-1.47346c0.47358,0.13871 0.9675,0.22802 1.42076,0.41611c0.1994,0.08274 0.3001,0.32027 0.50746,0.38405c0.1474,0.04534 0.30174,-0.07307 0.45628,-0.08765c0.00659,-0.00063 1.90695,-0.09233 1.92579,-0.09323c1.28465,-0.061 2.64591,0.00335 3.91767,0.19585c0.81037,0.12267 2.63526,0.46311 3.03214,1.25855c0.5652,1.13281 -1.45293,1.69941 -1.95824,1.84318c-1.49541,0.42546 -2.69355,-0.01619 -4.17792,0.01981c-0.50563,0.01226 -1.34143,0.26997 -1.89749,0.44052z" fill="#1cc735"/></g></g><path d="M278.42415,157.89182c-13.05609,0.40146 -25.7182,0.75467 -30.91952,-0.13846c-4.75366,-0.81626 -6.24811,-3.54574 -6.24811,-3.54574c0,0 -1.95875,-2.39296 -2.08992,-3.92316c-0.39351,-4.59061 -0.85222,-17.73412 -0.11345,-29.09052c0.02465,-0.37902 0.05335,-0.5912 0.10236,-0.96819c0.14703,-1.13095 0.92301,-5.52517 0.92301,-5.52517c0,0 3.40538,-1.73216 5.26584,-2.24517c5.5814,-1.53903 19.89465,-0.35145 34.93921,-0.25241c1.36359,0.00898 3.74087,1.64055 3.74087,1.64055c0,0 1.74226,3.10168 1.73872,5.0852c-0.02287,12.82381 -0.09917,27.01238 -0.34581,30.26105c-0.0822,1.08289 -1.96476,5.31325 -1.96476,5.31325z" fill="#582600" stroke="#000000" stroke-width="2.5" stroke-linecap="round"/><g><g data-paper-data="{&quot;index&quot;:null}"><path d="M290.42085,163.74609c2.18142,-0.95703 4.48388,-6.14149 5.44445,-4.26699c0.48927,0.95481 9.06078,18.55603 8.85475,19.70116c-0.19847,1.10297 -0.81506,2.01405 -1.88532,2.4836c-0.72818,0.31944 -2.0152,0.48525 -2.96531,0.28527c-1.89627,-0.39912 -15.24636,-15.76713 -15.8863,-17.01593c-0.96056,-1.87452 4.25633,-0.23009 6.43774,-1.18711z" fill="#e99b00" stroke="#000000" stroke-width="1.5" stroke-linecap="butt"/><g stroke-linecap="butt"><path d="M287.28036,157.55852c3.95223,-1.73391 8.15919,-1.18211 9.3965,1.23248c1.23734,2.41457 -0.96349,5.77758 -4.91572,7.5115c-3.95223,1.7339 -8.1592,1.1821 -9.39653,-1.23248c-1.23734,-2.41457 0.96351,-5.77758 4.91573,-7.51148z" fill="#ffb727" stroke="#000000" stroke-width="1.5"/><path d="M288.11223,166.4187c0,0 -1.64815,0.33105 -3.26771,-0.2309c-0.76817,-0.2786 -2.19154,-1.53712 -2.19154,-1.53712l3.9004,-0.08144z" fill="#ffd683" stroke="none" stroke-width="0"/><path d="M291.50669,165.56044l-1.7497,0.7147c0,0 -0.56096,-0.50971 -0.76404,-0.84781c-0.17343,-0.28875 -0.50768,-1.17998 -0.50768,-1.17998l1.56796,-0.37745z" fill="#ffd683" stroke="none" stroke-width="0"/></g><g><path d="M290.13916,162.88863c-5.4522,2.39195 -12.77619,1.33495 -15.36132,-3.70976c-2.58514,-5.04475 -0.55478,-10.31116 4.89739,-12.7031c5.4522,-2.39195 12.2471,-0.36402 14.83225,4.6807c2.58514,5.04475 1.08386,9.34021 -4.36829,11.73215z" fill="#e99b00" stroke="#000000" stroke-width="1.5" stroke-linecap="butt"/><path d="M278.17679,147.93161c0,0 1.93919,0.61037 4.57044,1.67858c2.62486,1.06561 5.40688,3.16093 6.53642,5.36509c2.2618,4.41376 1.68947,6.664 -2.27189,8.40193c-1.92721,0.8455 -4.21143,0.66748 -6.07543,-0.17168c-2.61632,-1.17784 -5.26263,-3.19427 -6.54521,-5.69718c-2.2618,-4.41376 3.78569,-9.57675 3.78569,-9.57675z" fill="#ffb727" stroke="none" stroke-width="0" stroke-linecap="butt"/><path d="M293.75135,151.87493c0,0 -1.31494,4.34599 -7.78037,6.92564c-6.41288,2.55869 -10.87785,0.2782 -10.87785,0.2782" fill="none" stroke="#000000" stroke-width="0.8" stroke-linecap="round"/><path d="M294.78252,157.25209c0,0 -1.35888,2.72947 -7.5295,4.4517c-4.28179,1.19505 -8.96893,0.88416 -8.96893,0.88416" fill="none" stroke="#000000" stroke-width="0.75" stroke-linecap="round"/><path d="M292.16843,149.56255c0,0 -0.94149,2.54685 -7.26553,4.68848c-6.57508,2.22665 -10.94599,0.53985 -10.94599,0.53985" fill="none" stroke="#000000" stroke-width="0.8" stroke-linecap="round"/><path d="M274.65101,151.35683c0,0 4.14605,-1.86789 8.67561,-2.65425c3.43889,-0.59704 8.19719,-0.26857 8.19719,-0.26857" fill="none" stroke="#000000" stroke-width="0.8" stroke-linecap="round"/><path d="M284.04636,146.00764c0,0 3.78246,1.03969 6.10794,6.09536c2.492,5.41773 1.72254,9.1852 1.72254,9.1852" fill="none" stroke="#000000" stroke-width="0.8" stroke-linecap="round"/><path d="M289.10414,162.99556c0,0 -1.57686,-2.61483 -2.30391,-4.26914c-0.61211,-1.39284 -1.26227,-4.26929 -2.26909,-6.78707c-1.1449,-2.86304 -2.61659,-5.30327 -2.61659,-5.30327" fill="none" stroke="#000000" stroke-width="0.8" stroke-linecap="round"/><path d="M286.56204,163.98808c0,0 -3.90027,-2.54525 -6.51986,-8.05248c-1.66902,-3.50883 -0.84943,-8.65769 -0.84943,-8.65769" fill="none" stroke="#000000" stroke-width="0.8" stroke-linecap="round"/><path d="M280.98959,163.85553c0,0 -2.72792,-2.04477 -4.37343,-7.36973c-1.14267,-3.6978 -0.35851,-7.42928 -0.35851,-7.42928" fill="none" stroke="#000000" stroke-width="0.8" stroke-linecap="round"/><path d="M275.88196,157.38269c-0.38875,0.17056 -0.87633,-0.02763 -1.089,-0.4427c-0.2127,-0.41503 -0.06995,-0.88976 0.31882,-1.06032c0.38875,-0.17056 0.87634,0.02763 1.08901,0.44269c0.2127,0.41503 0.06994,0.88978 -0.31882,1.06033z" fill="#ffd683" stroke="none" stroke-width="0" stroke-linecap="butt"/><path d="M275.22936,154.23264c-0.22428,0.09839 -0.4923,0.00993 -0.59865,-0.19758c-0.10635,-0.20752 -0.01073,-0.45551 0.21354,-0.55391c0.22428,-0.09839 0.49231,-0.00993 0.59865,0.19758c0.10635,0.20752 0.01074,0.45552 -0.21354,0.55391z" fill="#ffd683" stroke="none" stroke-width="0" stroke-linecap="butt"/></g></g><path d="M287.09251,166.95549c5.05209,8.69923 5.24485,10.51184 5.24485,10.51184c0.56912,1.12147 -0.66119,1.52548 -0.66119,1.52548c0,0 -2.28262,1.05317 -3.74361,1.72723c-0.95934,0.44263 -2.45819,1.13418 -2.45819,1.13418c0,0 -1.01908,0.29084 -1.3156,-0.32758c-1.78386,-3.72052 -3.7027,-7.18745 -4.4062,-9.13509c-0.2345,-0.64922 0.34862,-1.74386 0.34862,-1.74386l4.34975,-2.61106c0,0 1.71625,-1.16601 2.64156,-1.08113z" fill="#582700" stroke="#000000" stroke-width="3" stroke-linecap="round"/><path d="M298.97659,162.87721c10.00104,18.19539 10.51559,21.90937 10.51559,21.90937c1.13933,2.33826 -1.06978,3.05159 -1.06978,3.05159c0,0 -4.07124,1.94263 -6.677,3.18602c-1.71107,0.81646 -4.38438,2.09208 -4.38438,2.09208c0,0 -1.83369,0.50155 -2.43035,-0.7863c-3.58956,-7.74797 -7.40267,-14.99098 -8.86145,-19.02628c-0.48626,-1.3451 0.47969,-3.52509 0.47969,-3.52509l7.70389,-4.93395c0,0 3.02746,-2.22369 4.72379,-1.96742z" fill="#582700" stroke="#000000" stroke-width="3" stroke-linecap="round"/></g><path d="M238.71543,114.29717l0.06446,-12.99986l47.33711,0.20095l-0.06446,12.99986z" fill="#000000" stroke="none" stroke-width="0" stroke-linecap="butt"/><g><g data-paper-data="{&quot;index&quot;:null}"><g stroke="#000000" stroke-width="3" stroke-linecap="round"><path d="M212.87517,182.44629l19.52998,-24.3417c0,0 3.78517,-4.5703 5.0509,-4.41305c3.79717,0.47178 9.43177,4.60534 15.94296,7.6808c1.08229,0.5112 -1.38149,5.99578 -1.38149,5.99578c0,0 -4.2987,8.47362 -7.05009,13.89715c-4.1901,8.2595 -10.73658,21.16401 -10.73658,21.16401c0,0 -3.10979,6.70312 -5.01941,5.62083c0,0 -11.00593,-0.99301 -24.74364,-12.53799c1.34403,-4.44159 8.40736,-13.06585 8.40736,-13.06585z" data-paper-data="{&quot;origPos&quot;:null}" fill="#582700"/><path d="M211.8693,184.33939l24.60678,13.00254l-1.84933,2.95914l-24.70779,-12.76078z" data-paper-data="{&quot;origPos&quot;:null}" fill="none"/></g><path d="M212.84723,184.27811l24.27921,-30.25711l15.15166,7.97609l0.85913,1.22082l-16.17837,33.80786z" fill="#ffcb66" stroke="#000000" stroke-width="1" stroke-linecap="round"/><path d="M210.37021,187.22497l1.27941,-2.02134l24.53469,12.70736l-1.27941,2.02134z" fill="#ffffff" stroke="none" stroke-width="0" stroke-linecap="butt"/></g><path d="M229.23674,209.64466c0,0 -2.87632,1.19133 -4.08751,0.72721c-8.06728,-3.09137 -15.88018,-6.11087 -18.77479,-7.96688c-2.64548,-1.69626 -2.72751,-3.69592 -2.72751,-3.69592c0,0 -0.4666,-1.9185 -0.08254,-2.85934c1.15218,-2.82254 4.85756,-10.73351 8.74995,-17.27936c0.1299,-0.21846 0.21169,-0.33696 0.3558,-0.54801c0.43235,-0.63315 2.23671,-3.041 2.23671,-3.041c0,0 2.59753,-0.15876 3.88527,0.01147c3.86326,0.51068 12.21388,4.86493 21.33955,8.76017c0.82712,0.35305 1.77923,1.92679 1.77923,1.92679c0,0 0.12001,2.28358 -0.48347,3.45888c-3.90153,7.59858 -8.24932,15.99281 -9.38428,17.85634z" data-paper-data="{&quot;index&quot;:null}" fill="#582700" stroke="#000000" stroke-width="2.5" stroke-linecap="round"/></g><path d="M274.48577,137.54898c0.1653,-3.50487 0.60927,-6.33151 0.9916,-6.31347c0.38235,0.01805 0.5583,2.87391 0.39301,6.37878c-0.1653,3.50487 -0.60924,6.33149 -0.99159,6.31346c-0.38235,-0.01805 -0.55831,-2.87389 -0.39302,-6.37876z" fill="none" stroke="#000000" stroke-width="2.5" stroke-linecap="butt"/><path d="M278.39407,130.64665c-2.00506,1.24591 -7.82531,4.35491 -9.51583,2.35919c-2.26554,-2.67455 6.16722,-7.61442 7.70979,-7.33348c0.27498,-0.08578 0.56968,-0.13172 0.87608,-0.13042c1.49222,0.00633 2.69634,1.13075 2.68949,2.51144c0.58285,0.65007 -1.2073,2.25012 -1.75954,2.59327z" fill="#582600" stroke="none" stroke-width="0.5" stroke-linecap="butt"/><path d="M280.91841,137.36479c0.1653,-3.50487 0.60927,-6.33151 0.9916,-6.31347c0.38235,0.01805 0.5583,2.87391 0.39301,6.37878c-0.1653,3.50487 -0.60924,6.33149 -0.99159,6.31346c-0.38235,-0.01805 -0.55831,-2.87389 -0.39302,-6.37876z" fill="none" stroke="#000000" stroke-width="2.5" stroke-linecap="butt"/><g stroke="#000000" stroke-width="1" stroke-linecap="butt"><path d="M268.32534,154.12429l-9.14857,-2.03283c0,0 -0.18103,-6.7834 5.97642,-5.4723c6.5191,1.38812 3.17214,7.50512 3.17214,7.50512z" fill="#000000"/><path d="M260.31063,148.08538c0.84037,-1.17008 2.3019,-2.0072 4.84257,-1.46621c1.68869,0.35958 2.71536,1.03645 3.30968,1.84213c0.00283,0.00383 -0.30903,1.25987 -0.30903,1.25987c0,0 -7.84594,-1.632 -7.84322,-1.63579z" fill="#ffffff"/><path d="M263.80234,153.11928c-1.53321,-0.34068 -4.62558,-1.02781 -4.62558,-1.02781c0,0 0.03848,-0.82374 0.17274,-1.61799c0.01165,-0.06889 1.45448,0.21139 2.51632,0.7827c1.25074,0.67295 2.0866,1.89645 1.93651,1.86309z" fill="#ff8484"/></g></g></g></svg>