<svg version="1.1" xmlns="http://www.w3.org/2000/svg" xmlns:xlink="http://www.w3.org/1999/xlink" width="127.66667" height="127.66667" viewBox="0,0,127.66667,127.66667"><g transform="translate(-176.16669,-116.16667)"><g data-paper-data="{&quot;isPaintingLayer&quot;:true}" fill-rule="nonzero" stroke-linejoin="miter" stroke-miterlimit="10" stroke-dasharray="" stroke-dashoffset="0" style="mix-blend-mode: normal"><g><g stroke="#000000" stroke-linecap="round"><path d="M217.39264,198.10569c0,0 2.77356,-5.4398 4.13943,-6.21618c0.72822,-0.41394 3.42693,1.9153 3.42693,1.9153c0,0 4.75261,-4.06073 11.07906,-4.08413c8.09534,-0.02994 19.34573,2.25227 19.34573,2.25227l2.86726,11.62832c0,0 -16.00774,1.20555 -22.80124,0.29181c-6.82582,-0.91809 -18.05716,-5.78738 -18.05716,-5.78738z" fill="#0065cc" stroke-width="0"/><path d="M224.95902,193.8048c0,0 4.75261,-4.06073 11.07906,-4.08413c8.09534,-0.02994 19.34573,2.25227 19.34573,2.25227l2.86726,11.62832c0,0 -16.00774,1.20555 -22.80124,0.29181c-2.42102,-0.32564 -5.39627,-1.14834 -8.22801,-2.07454c-0.18852,-2.71503 -0.97078,-5.45195 -1.84464,-7.13762c-0.12154,-0.23446 -0.27258,-0.54189 -0.44949,-0.9029c0.02049,0.01743 0.03134,0.02678 0.03134,0.02678z" fill="#061382" stroke-width="0"/><path d="M229.33954,198.34463l2.70796,2.54867" fill="none" stroke-width="1"/><path d="M217.39264,198.10569c0,0 2.77356,-5.4398 4.13943,-6.21618c0.72822,-0.41394 3.42693,1.9153 3.42693,1.9153c0,0 4.75261,-4.06073 11.07906,-4.08413c8.09534,-0.02994 19.34573,2.25227 19.34573,2.25227l2.86726,11.62832c0,0 -16.00774,1.20555 -22.80124,0.29181c-6.82582,-0.91809 -18.05716,-5.78738 -18.05716,-5.78738z" fill="none" stroke-width="1"/></g><g fill="none" stroke="none" stroke-width="1" stroke-linecap="butt" font-family="sans-serif" font-weight="normal" font-size="12" text-anchor="start"/><g><path d="M229.23003,185.91785c0,0 -2.69302,-5.63292 1.16249,-10.76664c1.41904,-1.88949 3.84565,-4.31385 7.44797,-5.50405c15.78375,-5.21493 14.80547,9.16228 14.80547,9.16228c0,0 3.97095,4.30425 3.3419,5.91514c-1.28839,3.29933 -7.6627,3.70211 -7.6627,3.70211l0.83628,6.27212c0,0 -9.08739,7.27359 -17.77238,2.91128c-9.96441,-5.00493 -2.15904,-11.69225 -2.15904,-11.69225z" fill="#feecf7" stroke="#000000" stroke-width="0" stroke-linecap="round"/><path d="M229.23003,185.91785c0,0 -2.69302,-5.63292 1.16249,-10.76664c1.41904,-1.88949 3.84565,-4.31385 7.44797,-5.50405c15.78375,-5.21493 14.80547,9.16228 14.80547,9.16228c0,0 3.97095,4.30425 3.3419,5.91514c-1.28839,3.29933 -7.6627,3.70211 -7.6627,3.70211l0.83628,6.27212l-4.43629,-4.52891c0,0 -6.04137,0.87198 -8.08226,-0.02716c-2.86031,-1.26013 -7.41285,-4.22489 -7.41285,-4.22489z" fill="#dc94e7" stroke="#000000" stroke-width="0" stroke-linecap="round"/><path d="M229.23003,185.91785c0,0 -2.69302,-5.63292 1.16249,-10.76664c1.41904,-1.88949 3.84565,-4.31385 7.44797,-5.50405c15.78375,-5.21493 14.80547,9.16228 14.80547,9.16228c0,0 3.97095,4.30425 3.3419,5.91514c-1.28839,3.29933 -7.6627,3.70211 -7.6627,3.70211l0.83628,6.27212c0,0 -9.08739,7.27359 -17.77238,2.91128c-9.96441,-5.00493 -2.15904,-11.69225 -2.15904,-11.69225z" fill="none" stroke="#000000" stroke-width="1" stroke-linecap="round"/><path d="M244.23336,193.00834c0,0.36843 -0.24347,0.49338 -0.40863,0.53577c-0.71336,1.08236 -2.20313,1.73851 -3.73216,1.52943c-3.94843,-0.57486 -8.74636,-2.12117 -8.84151,-7.00325c0,0 0,-0.2193 0.13755,-0.38283c-0.22271,-0.39044 0.15134,-0.6897 0.15134,-0.6897l0.35228,-0.27746c1.72162,-1.63917 4.19053,-0.24457 6.18431,0.25159c1.86258,0.46588 4.31315,1.63172 5.48879,3.23426c0.662,0.90238 0.8125,1.78251 0.61596,2.5424c0.03221,0.06924 0.05205,0.15459 0.05205,0.25978zM242.14224,193.39754c-1.69096,-0.37577 -4.83408,-0.61283 -6.24775,-1.50879c-0.93214,-0.59078 -1.71652,-1.26796 -2.5828,-1.86213c0.1135,0.13862 0.22668,0.29163 0.33281,0.47136c1.74177,2.94955 3.29812,3.00705 6.60574,3.47172c0.78585,0.11833 1.63835,-0.09001 2.22033,-0.52505c-0.10944,-0.01569 -0.21889,-0.03139 -0.32835,-0.04711zM236.48373,190.9421c1.27233,0.83477 4.29183,1.01032 5.85845,1.35846c0.27176,0.03861 0.54351,0.07731 0.81524,0.11608c0.08406,-0.45072 -0.04448,-0.97537 -0.48613,-1.54416c-1.07945,-1.39021 -3.20154,-2.40313 -4.86518,-2.81883c-1.37867,-0.34639 -4.00629,-1.75336 -5.12542,-0.54488l-0.3745,0.30328c0.05991,0.13221 0.05991,0.25823 0.05991,0.25823c-0.00128,0.04367 -0.00163,0.08608 -0.00108,0.1273c1.55025,0.73894 2.68997,1.80713 4.11871,2.74451z" fill="#ff0000" stroke="none" stroke-width="0.5" stroke-linecap="butt"/><path d="M231.53995,186.99777l0.35228,-0.27746c1.72162,-1.63917 4.19053,-0.24457 6.18431,0.25159c1.86258,0.46588 4.31315,1.63172 5.48879,3.23426c0.07927,0.10805 0.1512,0.21577 0.21607,0.32302c-0.35795,0.10879 -0.73365,0.2254 -1.1125,0.34026c-1.08019,-1.38865 -3.20038,-2.40039 -4.86282,-2.81578c-1.37867,-0.34639 -4.00629,-1.75336 -5.12542,-0.54488l-0.3745,0.30328c0.05991,0.13221 0.05991,0.25823 0.05991,0.25823c-0.00064,0.022 -0.00105,0.04369 -0.00123,0.06506c-0.12229,-0.03815 -0.2449,-0.07476 -0.36781,-0.10985c-0.22521,-0.17528 -0.44994,-0.35039 -0.67443,-0.52369c-0.04303,-0.29575 0.21732,-0.50402 0.21732,-0.50402z" fill="#ab0d46" stroke="none" stroke-width="0.5" stroke-linecap="butt"/><path d="M248.37495,188.54816c0,0 -1.29481,-0.23135 -1.88091,-0.53662c-0.67549,-0.35183 -1.94209,-1.45454 -1.94209,-1.45454" fill="none" stroke="#000000" stroke-width="1" stroke-linecap="round"/></g><g><path d="M239.45458,206.07029l2.23009,4.93805c0,0 -4.89814,0.96441 -7.47833,1.20505c-2.54317,0.23719 -7.89335,0.22857 -7.89335,0.22857c0,0 -11.67459,5.12974 -17.8515,3.9866c-5.94968,-1.10108 -6.4953,-4.009 -5.86788,-5.63514c0.04884,-0.12657 1.10014,-1.13377 2.45825,-1.48041c2.20435,-0.56265 5.47735,-0.55675 8.52517,-0.95618c10.89804,-1.42823 25.87756,-2.28654 25.87756,-2.28654z" fill="#feecf7" stroke="#000000" stroke-width="0" stroke-linecap="round"/><path d="M239.45458,206.07029l2.23009,4.93805c0,0 -4.89814,0.96441 -7.47833,1.20505c-2.54317,0.23719 -7.89335,0.22857 -7.89335,0.22857c0,0 -8.81232,3.87207 -15.17535,4.13836c0.37635,-0.33171 0.70783,-0.71888 0.98226,-1.13323c0.88023,-1.34859 2.22403,-1.32448 3.47357,-2.26316c1.22049,-0.91685 1.56073,-1.80523 2.31829,-2.96096c0.59366,-0.90568 2.20453,-1.89236 3.81196,-2.77827c8.98703,-0.87341 17.73086,-1.37443 17.73086,-1.37443z" fill="#dc94e7" stroke="#000000" stroke-width="0" stroke-linecap="butt"/><path d="M239.45458,206.07029l2.23009,4.93805c0,0 -4.89814,0.96441 -7.47833,1.20505c-2.54317,0.23719 -7.89335,0.22857 -7.89335,0.22857c0,0 -11.67459,5.12974 -17.8515,3.9866c-5.94968,-1.10108 -6.4953,-4.009 -5.86788,-5.63514c0.0402,-0.10417 1.44794,-1.35468 2.42014,-1.62081c2.12647,-0.58208 5.18309,-0.37282 8.56328,-0.8158c10.89804,-1.42823 25.87756,-2.28654 25.87756,-2.28654z" fill="none" stroke="#000000" stroke-width="1" stroke-linecap="round"/><path d="M230.4546,199.61897c0,0 3.10882,1.76186 4.57126,2.85227c1.55805,1.16171 4.50839,3.91764 4.50839,3.91764c0,0 -3.76446,1.91266 -5.85377,2.24376c-2.63937,0.41825 -8.72145,0.06597 -8.72145,0.06597c0,0 -11.72116,6.07774 -18.55752,2.54867c-0.70667,-0.36481 -1.59429,-1.22776 -1.51385,-1.7523c0.25359,-1.65374 3.13737,-3.04922 6.22208,-4.52062c2.19777,-1.04833 4.92893,-2.48814 4.92893,-2.48814c0,0 -3.21863,-2.34208 -1.09939,-5.33439c0.41683,-0.58855 1.64161,-0.50843 3.19209,-0.67985c1.62164,-0.17929 3.56216,-0.59637 3.56216,-0.59637l6.45132,4.77876z" fill="#ff292e" stroke="#000000" stroke-width="0" stroke-linecap="round"/><path d="M235.02584,202.47123c1.55805,1.16171 4.50839,3.91764 4.50839,3.91764c0,0 -3.76446,1.91267 -5.85377,2.24376c-2.63937,0.41826 -8.72145,0.06597 -8.72145,0.06597c0,0 -8.31219,4.3101 -15.01955,3.56354c0.7367,-0.98845 1.46856,-2.13299 1.7916,-2.6706c0.76831,-0.47787 1.54469,-0.78361 2.30282,-1.13264c0.49412,-0.01148 0.95645,-0.15155 1.35483,-0.38801c1.23894,-0.28351 2.16322,-1.39252 2.16322,-2.71742c0,-1.02311 -0.55118,-1.91749 -1.37281,-2.4024c-0.08849,-0.15487 -0.18563,-0.28264 -0.2902,-0.38622c0.09689,-0.05079 0.14973,-0.07864 0.14973,-0.07864c0,0 -1.52792,-1.11182 -1.78515,-2.7821c3.28121,0.0617 7.36037,-0.22915 7.36037,-3.03206c0,-0.28233 -0.02403,-0.53649 -0.06918,-0.76524c0.09582,-0.01984 0.14882,-0.03122 0.14882,-0.03122l6.31571,4.67831c-0.25157,0.1195 -0.57155,0.23866 -0.96758,0.39217c-0.23176,0.05534 -0.47028,0.1105 -0.70976,0.1758c0,0 -0.80681,0.22004 -0.58677,1.02686c0.22004,0.80681 1.02686,0.58677 1.02686,0.58677c0.06088,-0.0166 0.12122,-0.03304 0.18101,-0.04934c0.21492,0.00835 0.38742,-0.06065 0.38742,-0.06065c0.12726,-0.05115 0.25032,-0.10171 0.36919,-0.15195c0.69645,-0.20645 1.30087,-0.43109 1.80102,-0.78311c0.12999,0.0851 0.3054,0.13683 0.54182,0.11533c0.83285,-0.07571 0.75714,-0.90856 0.75714,-0.90856c-0.02642,-0.2891 -0.05538,-0.56716 -0.09158,-0.83887c0.02861,-0.07776 0.05591,-0.15824 0.08188,-0.24153c0.85031,0.49051 3.06075,1.78559 4.22598,2.65441z" fill="#ac0e49" stroke="#000000" stroke-width="0" stroke-linecap="round"/><path d="M230.4546,199.61897c0,0 3.10882,1.76186 4.57126,2.85227c1.55805,1.16171 4.50839,3.91764 4.50839,3.91764c0,0 -3.76446,1.91266 -5.85377,2.24376c-2.63937,0.41825 -8.72145,0.06597 -8.72145,0.06597c0,0 -11.72116,6.07774 -18.55752,2.54867c-0.70667,-0.36481 -1.59429,-1.22776 -1.51385,-1.7523c0.25359,-1.65374 3.13737,-3.04922 6.22208,-4.52062c2.19777,-1.04833 4.92893,-2.48814 4.92893,-2.48814c0,0 -3.21863,-2.34208 -1.09939,-5.33439c0.41683,-0.58855 1.64161,-0.50843 3.19209,-0.67985c1.62164,-0.17929 3.56216,-0.59637 3.56216,-0.59637l6.45132,4.77876z" fill="none" stroke="#000000" stroke-width="1" stroke-linecap="round"/><path d="M226.95018,201.29152l0.95575,-0.55752" fill="none" stroke="#000000" stroke-width="1" stroke-linecap="round"/><path d="M230.85283,203.8402c0,0 1.01887,-0.41906 1.74361,-0.53275c0.60901,-0.09553 3.1148,-0.26372 3.1148,-0.26372" fill="none" stroke="#000000" stroke-width="0.5" stroke-linecap="round"/><path d="M215.55999,204.86658c-0.44827,-0.09541 -0.92133,-0.15147 -1.43284,-0.15027c0,0 -0.55752,0 -0.55752,-0.55752c0,-0.55752 0.55752,-0.55752 0.55752,-0.55752c1.9216,0.00398 4.45698,0.53054 5.98843,1.70371c0.3401,0.26053 1.41335,1.07701 0.9451,1.68232c-0.66859,0.8643 -3.2699,-0.97184 -3.9817,-1.44637c-0.34543,-0.09366 -0.69007,-0.19023 -1.0342,-0.28854l-0.47999,-0.38078c0,0 -0.00172,-0.00172 -0.00479,-0.00502z" fill="#fff1fd" stroke="none" stroke-width="0.5" stroke-linecap="butt"/><path d="M216.40683,203.16172c-0.35691,-0.4283 0.07139,-0.78523 0.07139,-0.78523c1.75902,-1.41781 6.99466,-0.93211 8.03108,1.30933c0.90197,1.95065 -0.90818,2.29874 -2.30106,1.62972c-1.77244,-0.49774 -3.43691,-1.08759 -5.17796,-1.63201l-0.075,-0.12278l-0.0365,0.03651l-0.2459,-0.2459c-0.08811,-0.02769 -0.1792,-0.08541 -0.26605,-0.18964z" fill="#fff1fd" stroke="none" stroke-width="0.5" stroke-linecap="butt"/><path d="M218.12551,201.12597c-0.00069,-0.00103 -0.00137,-0.00205 -0.00206,-0.00308c-0.30926,-0.46389 0.15463,-0.77314 0.15463,-0.77314c1.42629,-0.88531 6.77622,-1.17922 7.42071,0.93575c0.85711,2.81275 -2.46085,1.08094 -3.41666,0.52333c-1.02781,-0.24744 -1.9156,-0.27838 -2.97798,-0.27838h-0.63717c0,0 -0.45014,0.00001 -0.54148,-0.40448z" fill="#dc94e7" stroke="none" stroke-width="0.5" stroke-linecap="butt"/><path d="M220.11557,205.30496c0.3401,0.26053 1.41335,1.07701 0.9451,1.68232c-0.51816,0.66983 -2.19713,-0.28227 -3.25778,-0.96552c0.61631,-0.29985 1.16038,-0.68291 1.64656,-1.15405c0.23748,0.13433 0.46083,0.27998 0.66613,0.43724z" fill="#dc94e7" stroke="none" stroke-width="0.5" stroke-linecap="butt"/><path d="M224.50928,203.68584c0.90197,1.95065 -0.90818,2.29874 -2.30106,1.62972c-0.83847,-0.23545 -1.65277,-0.49153 -2.46244,-0.75366c0.66994,-0.73562 1.22469,-1.65798 1.70771,-2.78181c1.38816,0.30281 2.61016,0.94199 3.0558,1.90576z" fill="#dc94e7" stroke="none" stroke-width="0.5" stroke-linecap="butt"/><path d="M215.55999,204.86658c-0.44827,-0.09541 -0.92133,-0.15147 -1.43284,-0.15027c0,0 -0.55752,0 -0.55752,-0.55752c0,-0.55752 0.55752,-0.55752 0.55752,-0.55752c1.9216,0.00398 4.45698,0.53054 5.98843,1.70371c0.3401,0.26053 1.41335,1.07701 0.9451,1.68232c-0.66859,0.8643 -3.2699,-0.97184 -3.9817,-1.44637c-0.34543,-0.09366 -0.69007,-0.19023 -1.0342,-0.28854l-0.47999,-0.38078c0,0 -0.00172,-0.00172 -0.00479,-0.00502z" fill="none" stroke="#000000" stroke-width="1" stroke-linecap="butt"/><path d="M216.40683,203.16172c-0.35691,-0.4283 0.07139,-0.78523 0.07139,-0.78523c1.75902,-1.41781 6.99466,-0.93211 8.03108,1.30933c0.90197,1.95065 -0.90818,2.29874 -2.30106,1.62972c-1.77244,-0.49774 -3.43691,-1.08759 -5.17796,-1.63201l-0.075,-0.12278l-0.0365,0.03651l-0.2459,-0.2459c-0.08811,-0.02769 -0.1792,-0.08541 -0.26605,-0.18964z" fill="none" stroke="#000000" stroke-width="1" stroke-linecap="butt"/><path d="M218.12551,201.12597c-0.00069,-0.00103 -0.00137,-0.00205 -0.00206,-0.00308c-0.30926,-0.46389 0.15463,-0.77314 0.15463,-0.77314c1.42629,-0.88531 6.77622,-1.17922 7.42071,0.93575c0.85711,2.81275 -2.46085,1.08094 -3.41666,0.52333c-1.02781,-0.24744 -1.9156,-0.27838 -2.97798,-0.27838h-0.63717c0,0 -0.45014,0.00001 -0.54148,-0.40448z" fill="none" stroke="#000000" stroke-width="1" stroke-linecap="butt"/></g><g><path d="M246.65486,209.64195c7.94441,0 15.6222,-2.38989 23.5533,-2.40159c0.3789,-0.01777 0.63336,0.10883 0.80389,0.27848c0.18354,0.15611 0.33101,0.3997 0.34435,0.77983l0.08675,1.08596c-0.01103,4.69311 -2.81055,6.27771 -6.8464,7.92873c-3.46341,1.41684 -7.95033,3.22171 -11.08007,3.22171c-4.13009,0 -8.3331,0.47822 -12.24293,-1.10593c-2.50729,-1.01588 -5.8045,-3.67786 -4.59298,-6.89245c0.63231,-1.67774 1.61924,-1.61351 2.92673,-2.33261c0,0 0.71675,-0.38595 1.25518,0.11412c1.99852,-0.58822 3.69089,-0.67626 5.79218,-0.67626z" fill="#ffeef9" stroke="none" stroke-width="0.5" stroke-linecap="butt"/><path d="M270.20815,207.24035c0.3789,-0.01777 0.63336,0.10882 0.80389,0.27848c0.18354,0.15611 0.331,0.3997 0.34435,0.77983l0.08676,1.08598c-0.01103,4.6931 -2.81055,6.2777 -6.84642,7.92873c-3.46341,1.41684 -7.95033,3.22171 -11.08007,3.22171c-4.13009,0 -8.3331,0.47822 -12.24293,-1.10593c-2.22959,-0.90338 -5.0838,-3.10839 -4.83681,-5.84614c0.93192,0.79199 1.83944,1.52222 2.77161,2.18458c1.54318,1.29335 3.19176,2.19591 5.15314,2.73973c0.52442,0.18922 1.07098,0.36232 1.64427,0.51872c0,0 0.34247,0.0934 0.64202,-0.06463c0.94223,0.12144 1.95462,0.18022 3.05305,0.17883c5.80039,0.58745 14.9546,-2.20031 18.21022,-7.08373c0.4765,-1.56444 0.70156,-3.2451 0.32281,-4.7666c0.65648,-0.03113 1.31443,-0.04856 1.97411,-0.04954z" fill="#db93e6" stroke="none" stroke-width="0.5" stroke-linecap="butt"/><path d="M246.65486,209.64196c7.94441,0 15.62222,-2.3899 23.5533,-2.40159c0.3789,-0.01777 0.63336,0.10882 0.80389,0.27848c0.18354,0.15611 0.331,0.3997 0.34435,0.77983l0.08676,1.08598c-0.01103,4.6931 -2.81055,6.2777 -6.84642,7.92873c-3.46341,1.41684 -7.95033,3.22171 -11.08007,3.22171c-4.13009,0 -8.3331,0.47822 -12.24293,-1.10593c-2.50729,-1.01588 -5.8045,-3.67786 -4.59298,-6.89245c0.63231,-1.67774 1.61924,-1.6135 2.92673,-2.33259c0,0 0.71676,-0.38595 1.25518,0.11411c1.99852,-0.58822 3.69089,-0.67626 5.79218,-0.67626z" fill="none" stroke="#000000" stroke-width="1" stroke-linecap="butt"/><path d="M243.91013,201.83666c0,0 6.3901,-3.96572 9.19295,-4.65741c4.09319,-1.01012 5.9888,0.79764 5.9888,0.79764c0,0 4.39459,0.75358 6.26754,0.3767c3.67902,-0.74032 4.53982,-2.34947 4.53982,-2.34947c0,0 1.4028,1.64035 0.131,3.36975c-1.29216,1.75706 -3.81923,3.40628 -3.81923,3.40628c0,0 11.5832,10.8123 -9.82268,14.13838c-26.36163,4.09609 -14.45097,-7.79122 -14.45097,-7.79122c0,0 -0.78383,-0.86549 -1.01696,-1.41404c-0.25151,-0.59179 -0.44117,-2.01687 -0.44117,-2.01687c0,0 -3.60204,0.34806 -4.92069,-0.73335c-0.62871,-0.5156 0.25577,-2.68164 0.43922,-2.88802c0.57532,-0.64724 7.91238,-0.23839 7.91238,-0.23839z" fill="#ff292e" stroke="#000000" stroke-width="0" stroke-linecap="round"/><path d="M253.10308,197.17922c4.09319,-1.01012 5.9888,0.79764 5.9888,0.79764c0,0 3.18371,0.54594 5.28638,0.47606c-0.24955,0.05368 -0.58317,0.22204 -0.62979,0.73481c-0.07571,0.83285 0.75714,0.90856 0.75714,0.90856c2.19369,0.17554 4.23397,-0.94561 6.05395,-2.12998c-0.02462,0.43887 -0.17055,0.91966 -0.52933,1.40752c-1.29216,1.75706 -3.81923,3.40628 -3.81923,3.40628c0,0 0.60956,0.569 1.29061,1.48609c-0.56614,-0.47697 -1.10999,0.06688 -1.10999,0.06688c-0.07644,0.07814 -0.16098,0.15063 -0.25211,0.2185c-0.39683,0.06129 -0.75367,0.26594 -1.05122,0.55234c-1.31195,0.53898 -2.83302,0.91943 -2.51144,2.53921c0.20752,1.04529 3.34492,2.41526 4.27572,2.00803c1.26035,-0.55141 1.16696,-2.10439 1.05245,-3.18284c-0.04455,-0.41957 0.09405,-0.96988 -0.11479,-1.30523c0.04779,-0.13427 0.06969,-0.29734 0.01379,-0.47189c2.21809,3.25883 4.35987,9.77605 -11.41569,12.22727c-7.59402,1.17997 -12.01203,1.03356 -14.45365,0.22702c0.36146,-0.46116 0.73227,-0.91205 1.12577,-1.35466c1.32342,-1.32372 3.78504,-2.35589 4.67282,-3.94939c1.1202,-2.01067 -0.15893,-5.00594 -1.37513,-7.71178c3.6641,-0.94062 8.70312,-3.76042 5.69255,-6.609c0.38591,-0.14758 0.74125,-0.2647 1.05239,-0.34148z" fill="#ac0e49" stroke="#000000" stroke-width="0" stroke-linecap="butt"/><path d="M243.91013,201.83666c0,0 6.3901,-3.96572 9.19295,-4.65741c4.09319,-1.01012 5.9888,0.79764 5.9888,0.79764c0,0 4.39459,0.75358 6.26754,0.3767c3.67902,-0.74032 4.53982,-2.34947 4.53982,-2.34947c0,0 1.4028,1.64035 0.131,3.36975c-1.29216,1.75706 -3.81923,3.40628 -3.81923,3.40628c0,0 11.5832,10.8123 -9.82268,14.13838c-26.36163,4.09609 -14.45097,-7.79122 -14.45097,-7.79122c0,0 -0.78383,-0.86549 -1.01696,-1.41404c-0.25151,-0.59179 -0.44117,-2.01687 -0.44117,-2.01687c0,0 -3.60204,0.34806 -4.92069,-0.73335c-0.62871,-0.5156 0.25577,-2.68164 0.43922,-2.88802c0.57532,-0.64724 7.91238,-0.23839 7.91238,-0.23839z" fill="none" stroke="#000000" stroke-width="1" stroke-linecap="round"/><path d="M242.02314,209.12732h2.23009" fill="none" stroke="#000000" stroke-width="1" stroke-linecap="round"/><path d="M240.73653,205.86796l1.54391,-0.42887" fill="none" stroke="#000000" stroke-width="1" stroke-linecap="round"/><path d="M261.75082,202.43703l4.11709,0.17155" fill="none" stroke="#000000" stroke-width="1" stroke-linecap="round"/><path d="M239.6856,205.82932c-0.21867,1.09339 -1.31206,0.87471 -1.31206,0.87471l-0.29571,-0.0674c-0.37169,-0.02859 -0.74336,-0.05719 -1.11504,-0.08578c0,0 -1.11175,-0.08552 -1.02624,-1.19728c0.08552,-1.11177 1.19728,-1.02624 1.19728,-1.02624c0.37169,0.02859 0.74336,0.05718 1.11504,0.08577l0.56203,0.10415c0,0 1.09339,0.21867 0.87471,1.31206z" fill="#000000" stroke="none" stroke-width="0.5" stroke-linecap="butt"/><path d="M268.6984,200.97891c0,0.72492 -0.47128,0.97855 -0.80107,1.06729c-0.24821,0.15795 -0.49641,0.31589 -0.7446,0.47384c0,0 -0.94072,0.59863 -1.53936,-0.34208c-0.59864,-0.94072 0.34208,-1.53935 0.34208,-1.53935c0.3145,-0.20013 0.629,-0.40028 0.94349,-0.60042l0.68441,-0.17433c0,0 1.11504,0 1.11504,1.11504z" fill="#000000" stroke="none" stroke-width="0.5" stroke-linecap="butt"/><path d="M263.80938,208.35535c0,1.11504 -1.11504,1.11504 -1.11504,1.11504h-0.17155c-4.74653,-0.01286 -8.88976,1.35673 -13.22373,3.09384c0,0 -1.0353,0.41412 -1.44941,-0.62118c-0.14743,-0.36858 -0.11116,-0.65842 -0.00329,-0.87889c-0.15165,0.07212 -1.00656,0.42769 -1.48709,-0.46473c-0.45643,-0.84766 0.21308,-1.35752 0.40452,-1.481c-0.0905,-0.08843 -0.17494,-0.20303 -0.24853,-0.3502c-0.49866,-0.99733 0.49866,-1.49599 0.49866,-1.49599l0.17155,-0.08577c4.30326,-2.14435 9.01365,-4.42724 13.96471,-4.05998c0,0 1.11175,0.08552 1.02624,1.19728c-0.0412,0.53566 -0.32064,0.79338 -0.59918,0.91663c0.22858,-0.01922 0.45807,-0.03766 0.6885,-0.05537l0.25706,-0.00329c0,0 1.11504,0 1.11504,1.11504c0,0.5892 -0.31133,0.86706 -0.60498,0.9981c0.3281,0.09464 0.77653,0.35334 0.77653,1.06045z" fill="#fff1fd" stroke="none" stroke-width="0.5" stroke-linecap="butt"/><path d="M246.65486,206.81145c0,0 -1.8321,-1.56576 -2.23807,-2.43784c-0.36058,-0.77459 -0.07779,-2.53697 -0.07779,-2.53697" fill="none" stroke="#000000" stroke-width="1" stroke-linecap="round"/><path d="M261.15018,203.12651c0,0 0.47612,0.03663 0.78123,0.37353c-0.07751,0.31265 -0.15501,0.62528 -0.23252,0.93793c-0.0322,0.31818 -0.03257,0.5594 -0.03575,0.7599c-0.02847,0.01572 -0.05719,0.02986 -0.0859,0.04256c0.02842,-0.00239 0.05686,-0.00477 0.0853,-0.00714c-0.00836,0.44968 -0.04251,0.69602 -0.52239,1.17837c-0.6959,0.69947 -1.22637,2.04304 -2.18718,2.45377c-2.47385,1.05753 -4.75482,-2.27265 -6.30827,-4.18342c2.72779,-1.06156 5.57446,-1.77292 8.50549,-1.5555z" fill="#dc94e7" stroke="#000000" stroke-width="0" stroke-linecap="butt"/><path d="M247.42681,209.1273c0,0 4.35217,-2.00359 6.78064,-2.72934c2.54123,-0.75945 8.1438,-1.73084 8.1438,-1.73084" fill="none" stroke="#000000" stroke-width="1" stroke-linecap="round"/><path d="M247.7699,211.18586c0,0 4.02549,-1.66891 6.44128,-2.28309c2.62707,-0.6679 8.74047,-1.57668 8.74047,-1.57668" fill="none" stroke="#000000" stroke-width="1" stroke-linecap="round"/><path d="M263.80938,208.35535c0,1.11504 -1.11504,1.11504 -1.11504,1.11504h-0.17154c-4.74653,-0.01286 -8.88976,1.35673 -13.22373,3.09384c0,0 -1.03529,0.41412 -1.4494,-0.62118c-0.14743,-0.36858 -0.11116,-0.65842 -0.0033,-0.87889c-0.15165,0.07212 -1.00656,0.42769 -1.48708,-0.46473c-0.45642,-0.84765 0.21307,-1.35752 0.4045,-1.481c-0.0905,-0.08843 -0.17494,-0.20302 -0.24852,-0.35019c-0.49866,-0.99732 0.49866,-1.49599 0.49866,-1.49599l0.17155,-0.08577c4.30326,-2.14435 9.01365,-4.42725 13.96471,-4.05998c0,0 1.11175,0.08552 1.02624,1.19728c-0.04121,0.53567 -0.32064,0.79338 -0.59918,0.91663c0.22857,-0.01922 0.45807,-0.03764 0.6885,-0.05537l0.25707,-0.00329c0,0 1.11504,0 1.11504,1.11504c0,0.5892 -0.31133,0.86706 -0.60498,0.9981c0.3281,0.09463 0.77653,0.35334 0.77653,1.06045z" fill="none" stroke="#000000" stroke-width="1" stroke-linecap="butt"/></g><g stroke="#000000" stroke-linecap="round"><path d="M249.25104,194.60127c0,0 4.0674,1.30546 7.99658,0.40524c1.60456,-0.36762 2.43704,-3.67073 2.43704,-3.67073c0,0 3.25064,2.17515 3.06355,3.22291c-0.44874,2.513 -3.85374,9.96235 -5.29364,9.99831c-1.92823,0.04815 -6.69027,-6.53097 -6.69027,-6.53097z" fill="#0066cd" stroke-width="0"/><path d="M262.74823,194.5587c-0.44873,2.51301 -3.85374,9.96235 -5.29364,9.99831c-1.92823,0.04815 -6.69027,-6.53097 -6.69027,-6.53097c0,0 4.36514,2.54168 5.74144,3.06129c1.80158,0.68018 3.63679,-8.63749 3.8286,-9.28874c0.93822,0.69714 2.54703,2.01427 2.41386,2.76011z" fill="#061382" stroke-width="0"/><path d="M249.25104,194.60125c0,0 4.0674,1.30545 7.99658,0.40524c1.60456,-0.36762 2.43704,-3.67073 2.43704,-3.67073c0,0 3.25064,2.17516 3.06355,3.22291c-0.44873,2.51301 -3.85374,9.96235 -5.29364,9.99831c-1.92823,0.04815 -6.69027,-6.53097 -6.69027,-6.53097" fill="none" stroke-width="1"/></g></g><path d="M176.16669,243.83335v-127.66667h127.66667v127.66667z" fill="none" stroke="none" stroke-width="NaN" stroke-linecap="butt"/><g><g stroke="#000000" stroke-width="1" stroke-linecap="round"><path d="M250.69512,175.29089c0,0 -1.26783,-7.02694 3.46829,-7.86797c4.77491,-0.84792 7.06268,7.74408 7.06268,7.74408c0,0 5.27068,-1.00044 5.6077,-0.48004c1.16372,1.79692 2.81707,13.48888 2.81707,13.48888c0,0 -1.63138,1.23094 -2.4193,1.4498c-0.68408,0.19003 -2.04088,-0.21087 -2.04088,-0.21087c0,0 -2.1317,0.60777 -2.99125,0.65301c-0.65117,0.03428 -1.71671,-0.40522 -1.71671,-0.40522c0,0 -1.84812,0.88973 -2.60048,0.84547c-0.62988,-0.03705 -1.6119,-1.09326 -1.6119,-1.09326z" fill="#f89688"/><path d="M267.66855,181.11388c0,0 -1.27339,-0.08555 -2.36512,0.47383c-1.12435,0.5761 -2.06617,1.60676 -3.21697,1.84727c-0.98546,0.20597 -2.22331,-0.23356 -2.74925,-1.29338c-2.3226,-4.68025 4.61453,-4.12505 4.61453,-4.12505" fill="none"/><path d="M254.9075,185.94577c0,0 0.44465,-1.86685 1.92651,-2.3238c1.64301,-0.50664 2.90535,1.08485 2.90535,1.08485l0.86726,-1.23894" fill="none"/><path d="M259.61547,186.93691l0.49557,2.47787" fill="none"/><path d="M263.82784,186.06964l1.36283,2.84956" fill="none"/></g><g><path d="M257.63318,178.26434c1.37177,4.11001 -1.57947,9.30073 -4.44763,10.89962c-2.07144,1.15475 -4.1588,-0.74941 -4.26115,-0.65004c-0.88938,0.86358 -1.58618,2.0016 -3.00758,2.63217c-2.61685,1.16091 -6.50547,1.48992 -10.21283,1.48992c-8.27938,0 -14.99114,-3.49456 -14.99114,-7.80531c0,-1.87783 0.77806,-4.09636 2.9001,-5.44302c2.74931,-1.74473 7.41831,-2.36229 12.09106,-2.36229c3.2687,0 6.78863,-0.81815 9.2521,0.10641c0.44646,0.16756 6.71354,-5.34934 12.6771,1.13253z" fill="#dc94e7" stroke="#000000" stroke-width="0" stroke-linecap="butt"/><path d="M244.37655,177.64488l0.74336,-0.61946" fill="none" stroke="#000000" stroke-width="1" stroke-linecap="round"/><path d="M251.06681,184.45904c0,0 -0.42189,2.23171 -0.7391,3.02472c-0.23771,0.59425 -0.99542,1.31156 -0.99542,1.31156" fill="none" stroke="#000000" stroke-width="1" stroke-linecap="round"/><path d="M229.8981,189.16771c-0.68174,-2.19165 2.07131,-5.11692 5.99625,-6.07526c3.92494,-0.95834 7.28772,-0.08244 7.96944,2.10922c0.68173,2.19166 -2.44299,5.36471 -6.36794,6.32306c-3.92494,0.95835 -6.91603,-0.16535 -7.59776,-2.357z" fill="none" stroke="#ab0d47" stroke-width="1" stroke-linecap="butt"/><path d="M240.28801,189.41479l-6.56637,-5.32744" fill="none" stroke="#ab0d47" stroke-width="1" stroke-linecap="round"/><path d="M257.63318,178.26434c1.37177,4.11001 -1.57947,9.30073 -4.44763,10.89962c-2.07144,1.15475 -4.1588,-0.74941 -4.26115,-0.65004c-0.88938,0.86358 -1.58618,2.0016 -3.00758,2.63217c-2.61685,1.16091 -6.50547,1.48992 -10.21283,1.48992c-8.27938,0 -14.99114,-3.49456 -14.99114,-7.80531c0,-1.87783 0.77806,-4.09636 2.9001,-5.44302c2.74931,-1.74473 7.41831,-2.36229 12.09106,-2.36229c3.2687,0 6.78863,-0.81815 9.2521,0.10641c0.44646,0.16756 6.71354,-5.34934 12.6771,1.13253z" fill="none" stroke="#000000" stroke-width="1" stroke-linecap="butt"/></g></g><g stroke="#000000" stroke-linecap="round"><g><path d="M261.31837,164.88534c0,0 5.18731,-2.40685 6.02101,-1.71567c0.56962,0.47225 1.62695,4.68198 -0.13944,6.13262c-1.5395,1.2643 -5.90214,-0.17837 -5.90214,-0.17837z" fill="#0066cd" stroke-width="0"/><path d="M267.19995,169.3023c-1.5395,1.2643 -5.90214,-0.17837 -5.90214,-0.17837l0.01342,-2.76543c0.46001,0.07271 0.9297,0.11742 1.40736,0.13231c1.92529,0.06002 3.75179,-0.37171 5.35878,-1.1818c0.21991,1.42155 0.1357,3.16125 -0.87744,3.99329z" fill="#061483" stroke-width="0"/><path d="M261.31837,164.88534c0,0 5.18731,-2.40685 6.02101,-1.71567c0.56962,0.47225 1.62695,4.68198 -0.13945,6.13262c-1.5395,1.2643 -5.90213,-0.17836 -5.90213,-0.17836z" fill="none" stroke-width="1"/></g><g><path d="M221.01617,176.56984c0,0 -12.17794,-23.57993 11.2612,-28.43108c23.31947,-4.82639 23.43722,17.57593 23.43722,17.57593c0,0 3.42354,-5.66159 4.4325,-4.95486c1.9448,1.36226 2.62764,9.8253 1.52205,11.57458c-0.83262,1.31738 -6.163,0.06728 -6.163,0.06728c0,0 -1.60426,5.01808 -10.07771,7.65455c-11.82853,3.68036 -31.71663,5.00237 -32.21172,1.74021c-0.37538,-2.47333 7.79946,-5.22661 7.79946,-5.22661z" fill="#fde0be" stroke-width="0"/><path d="M221.01617,176.56982c0,0 -12.17794,-23.57993 11.2612,-28.43108c23.31947,-4.82639 23.43722,17.57593 23.43722,17.57593l0.23218,3.14972c0,0 6.19809,-1.43941 6.2137,-1.16717c0.1172,2.04253 -0.03416,3.91384 -0.49133,4.63718c-0.83262,1.31738 -6.163,0.06728 -6.163,0.06728c0,0 -1.60426,5.01808 -10.07771,7.65455c-0.23813,0.0741 -1.32693,-2.25236 -2.62569,-3.61838c-1.33177,-1.40074 -2.87126,-1.84291 -2.87126,-1.84291l-5.1877,4.69161l-6.15068,-4.23526l-7.57691,1.51854z" fill="#f89688" stroke-width="0"/><path d="M221.01617,176.56984c0,0 -12.17794,-23.57993 11.2612,-28.43108c23.31947,-4.82639 23.43722,17.57593 23.43722,17.57593c0,0 3.42354,-5.66159 4.4325,-4.95486c1.9448,1.36226 2.62764,9.8253 1.52205,11.57458c-0.83262,1.31738 -6.163,0.06728 -6.163,0.06728c0,0 -1.60426,5.01808 -10.07771,7.65455c-11.82853,3.68036 -31.71663,5.00237 -32.21172,1.74021c-0.37538,-2.47333 7.79946,-5.22661 7.79946,-5.22661z" fill="none" stroke-width="1"/><path d="M257.8498,168.79331l2.36797,-4.38853l-0.17718,5.68397z" fill="#f89688" stroke-width="0.5"/></g><g><path d="M260.55105,160.7338c-0.03479,1.73184 -8.92979,6.37135 -12.59409,6.98172c-6.66036,1.10943 -30.78653,-0.19026 -30.78653,-0.19026l-6.1413,-14.13626c0,0 7.04668,-10.0361 21.79085,-11.14208c15.35013,-1.15144 25.66182,2.69257 25.66182,2.69257c0,0 1.49824,5.04179 1.879,7.99578c0.24885,1.93061 0.23988,5.32724 0.19024,7.79853z" fill="#ff292e" stroke-width="0"/><path d="M247.95697,167.71552c-0.5055,0.0842 -1.11161,0.15453 -1.80016,0.2126c-0.22992,0.0194 -3.37243,-12.02549 -2.07255,-14.83623c1.27339,-2.75346 8.02523,-6.85681 11.8661,-8.26628c1.52554,-0.55981 2.53145,0.11389 2.53145,0.11389c0,0 1.49824,5.04179 1.879,7.99578c0.24881,1.93029 0.23989,5.32611 0.19027,7.79729c-0.03478,1.73246 -8.92983,6.37259 -12.59411,6.98296z" fill="#ac0e49" stroke-width="0.5"/><path d="M260.54879,160.84526c-0.03485,1.67491 -8.92752,6.25988 -12.59182,6.87025c-6.66036,1.10943 -30.78653,-0.19025 -30.78653,-0.19025l-6.1413,-14.13626c0,0 7.04668,-10.0361 21.79085,-11.14208c15.35013,-1.15144 25.66182,2.69257 25.66182,2.69257c0,0 1.49824,5.04179 1.879,7.99578c0.25261,1.95981 0.23954,5.43031 0.18796,7.91001z" fill="none" stroke-width="1"/></g><g><path d="M209.94643,178.9975c0.77679,-2.60371 4.08631,-7.44238 4.08631,-7.44238l-10.40629,4.58419c0,0 1.02522,-4.21064 2.06628,-6.36918c1.17014,-2.42616 4.61268,-7.479 4.61268,-7.479l12.47896,0.50055c0,0 -1.12141,-3.39187 -1.06614,-5.16493c0.05701,-1.82877 1.40314,-5.64575 1.40314,-5.64575c0,0 5.3588,11.10551 15.52713,14.64683c8.96091,3.12082 17.19145,-1.35549 17.19145,-1.35549l1.93371,9.54276l-10.62279,-2.78543l-1.68537,3.96357l-4.53875,-8.28526l-6.38337,7.94479l-2.51153,-5.32155c0,0 -5.0562,2.28866 -7.01032,3.41476c-1.67609,0.9659 -4.00881,2.93526 -4.00881,2.93526c0,0 -8.13504,2.51491 -8.51163,4.64325c-0.12343,0.69755 1.18426,1.37562 1.18426,1.37562l-4.13728,3.88714c0,0 -0.31417,-5.20139 0.39838,-7.58979z" fill="#4fa6ec" stroke-width="0"/><path d="M209.94643,178.9975c0.77679,-2.60371 4.08631,-7.44238 4.08631,-7.44238l-10.40629,4.58419c0,0 1.02522,-4.21064 2.06628,-6.36918c1.17013,-2.42616 4.61268,-7.479 4.61268,-7.479l12.47896,0.50055c0,0 -1.12141,-3.39187 -1.06614,-5.16493c0.05701,-1.82876 1.40314,-5.64575 1.40314,-5.64575l2.02935,4.10684c0,0 0.38301,3.07153 0.75615,4.08896c0.72937,1.98871 2.20499,5.41135 2.20499,5.41135c0,0 -6.90469,-0.71475 -9.38067,0.22656c-2.61678,0.99482 -5.92092,5.59073 -5.92092,5.59073l7.82237,-0.42552c0,0 -3.50635,2.65727 -6.20205,5.47835c-2.86569,2.99897 -4.93081,6.16491 -4.91924,5.88922c0.05171,-1.23163 0.17501,-2.47821 0.4351,-3.35002z" fill="#66ffff" stroke-width="0"/><path d="M209.94643,178.9975c0.77679,-2.6037 4.08631,-7.44238 4.08631,-7.44238l-10.40629,4.58419c0,0 1.02523,-4.21064 2.06629,-6.36918c1.17013,-2.42617 4.61267,-7.479 4.61267,-7.479l12.47896,0.50055c0,0 -1.12141,-3.39187 -1.06614,-5.16493c0.05701,-1.82877 1.40314,-5.64575 1.40314,-5.64575c0,0 5.35879,11.10552 15.52712,14.64684c8.96091,3.12081 17.19146,-1.35549 17.19146,-1.35549l1.93371,9.54276l-10.62279,-2.78543l-1.68537,3.96357l-4.53875,-8.28526l-6.38337,7.94479l-2.51153,-5.32155c0,0 -5.05619,2.28866 -7.01031,3.41476c-1.6761,0.96588 -4.00882,2.93526 -4.00882,2.93526c0,0 -8.13504,2.51491 -8.51163,4.64325c-0.12343,0.69755 1.18426,1.37562 1.18426,1.37562l-4.13728,3.88714c0,0 -0.31417,-5.20138 0.39838,-7.58979z" fill="none" stroke-width="1"/></g></g><g><path d="M242.17796,191.78404c-0.2971,-4.45482 3.97407,-7.96795 8.42887,-8.26504c4.4548,-0.29709 6.99838,2.60191 7.29548,7.05673c0.29709,4.4548 -3.07341,8.307 -7.52821,8.60409c-4.45482,0.2971 -7.89905,-2.94096 -8.19614,-7.39578z" fill="#465e85" stroke="#000000" stroke-width="0" stroke-linecap="butt"/><path d="M257.90232,190.57573c0.29709,4.4548 -3.0734,8.307 -7.52821,8.60409c-4.45482,0.2971 -7.89904,-2.94096 -8.19613,-7.39578c-0.15267,-2.28916 0.90094,-4.32967 2.56587,-5.81291c0.95766,1.27237 2.32809,2.78213 3.66436,4.01853c0.28348,0.4392 0.59115,0.84928 0.91699,1.21648c0.15098,1.48739 1.45532,2.59845 2.95871,2.49819c0.61418,-0.04096 1.16858,-0.27788 1.60628,-0.6457c1.26144,-0.71375 2.81926,-1.9364 3.9313,-3.29129c0.03549,0.26325 0.06246,0.53286 0.08083,0.8084z" fill="#313243" stroke="#000000" stroke-width="0" stroke-linecap="butt"/><path d="M223.01267,197.65201l-0.48229,-7.23173l19.39056,-1.29317l0.48229,7.23173z" fill="#313243" stroke="#000000" stroke-width="1" stroke-linecap="butt"/><path d="M248.30225,184.87004c-0.03073,-0.46084 0.31794,-0.85934 0.77878,-0.89007c0.46084,-0.03073 0.85934,0.31794 0.89007,0.77878c0.03073,0.46084 -0.31794,0.85934 -0.77878,0.89007c-0.46084,0.03073 -0.85934,-0.31794 -0.89007,-0.77878z" fill="#8bb5bc" stroke="none" stroke-width="0.5" stroke-linecap="butt"/><path d="M251.90487,185.02889c-0.03073,-0.46084 0.31794,-0.85934 0.77878,-0.89007c0.46084,-0.03073 0.85934,0.31794 0.89007,0.77878c0.03073,0.46084 -0.31794,0.85934 -0.77878,0.89007c-0.46084,0.03073 -0.85934,-0.31794 -0.89007,-0.77878z" fill="#8bb5bc" stroke="none" stroke-width="0.5" stroke-linecap="butt"/><path d="M250.60682,183.519c4.45482,-0.2971 6.99838,2.60191 7.29548,7.05673c0.29709,4.4548 -3.0734,8.307 -7.52821,8.60409c-4.4548,0.29709 -7.89904,-2.94096 -8.19613,-7.39578c-0.29709,-4.4548 3.97406,-7.96795 8.42887,-8.26504z" fill="none" stroke="#000000" stroke-width="1" stroke-linecap="butt"/><path d="M245.11561,189.15353c0,0 3.57949,-1.98528 6.31386,-2.26006c2.33642,-0.23479 6.07277,1.27434 6.07277,1.27434" fill="none" stroke="#000000" stroke-width="1" stroke-linecap="round"/><path d="M246.35541,192.18394l11.36414,-0.75788" fill="none" stroke="#000000" stroke-width="1" stroke-linecap="round"/><path d="M256.59117,194.85386c0,0 -3.17447,1.44353 -5.86813,1.52494c-2.34563,0.07089 -5.02452,-2.07567 -5.02452,-2.07567" fill="none" stroke="#000000" stroke-width="1" stroke-linecap="round"/><path d="M245.96849,185.18531c0,0 3.09091,2.57223 3.22409,4.64427c0.35773,5.56539 -3.43041,7.82187 -3.43041,7.82187" fill="none" stroke="#000000" stroke-width="1" stroke-linecap="round"/><path d="M249.88367,184.04616c0,0 3.27914,2.87666 3.39301,5.4267c0.28094,6.29198 -3.292,9.25399 -3.292,9.25399" fill="none" stroke="#000000" stroke-width="1" stroke-linecap="round"/><path d="M252.98298,183.83946c0,0 2.79544,2.68982 3.19749,6.49435c0.50698,4.79757 -1.19984,6.70285 -1.19984,6.70285" fill="none" stroke="#000000" stroke-width="1" stroke-linecap="round"/><path d="M224.84303,193.97782c0.13611,2.04087 -0.67863,3.75703 -1.81976,3.83313c-1.14114,0.0761 -2.17654,-1.51666 -2.31264,-3.55753c-0.13611,-2.04087 0.67863,-3.75703 1.81976,-3.83313c1.14114,-0.0761 2.17654,1.51666 2.31264,3.55753z" fill="#465e85" stroke="#000000" stroke-width="1" stroke-linecap="butt"/><path d="M227.30402,197.36582c0,0 2.46003,-4.50031 0.68967,-5.84108c-1.82605,-1.38295 -6.23473,-0.49916 -8.83675,-1.0744c-2.30924,-0.51052 -2.96485,-2.52465 -2.58907,-2.97584c9.08122,-10.90348 17.83521,0.23824 17.83521,0.23824c0,0 4.40182,-2.56506 9.84441,-0.30701c0.98701,0.40949 1.80676,2.95654 1.44067,5.30524c-0.28453,1.82546 -1.69024,3.62133 -1.69024,3.62133c0,0 0.27633,3.22477 -1.05205,3.55033c-1.15106,0.28209 -4.9187,-0.91709 -4.9187,-0.91709c0,0 -1.93817,0.48325 -2.74122,0.36935c-0.7187,-0.10194 -1.85214,-1.02089 -1.85214,-1.02089c0,0 -2.12814,1.41869 -4.43901,1.42138c-1.00818,0.00117 -1.69077,-2.36955 -1.69077,-2.36955z" fill="#f89587" stroke="#000000" stroke-width="0" stroke-linecap="round"/><path d="M227.9937,191.52474c-1.80568,-1.36753 -6.13671,-0.51859 -8.74902,-1.05569c1.74454,-1.23879 3.09201,-2.48122 4.69083,-2.83088c1.35348,-0.296 4.73058,-1.05286 8.40047,-1.98059c1.30606,1.08655 2.0671,2.05515 2.0671,2.05515c0,0 4.40182,-2.56506 9.84441,-0.30701c0.98701,0.40949 1.80676,2.95654 1.44067,5.30524c-0.13484,0.8651 -0.52149,1.72356 -0.89101,2.38738c-0.49824,-0.1536 0.20342,-3.02593 0.20342,-3.02593c0,0 -1.0173,1.11071 -2.16351,1.83956c-0.78357,0.49826 -1.72052,0.69672 -2.06565,0.71974c-0.30278,0.02019 -1.25687,-0.88318 -1.54036,-1.57404c-0.29562,-0.72042 0.08008,-1.24077 -0.20035,-1.78771c-0.27737,-0.54096 -0.80928,-0.20805 -0.80928,-0.20805c0,0 -2.16678,4.9097 -3.0547,5.52548c-0.59719,-0.29521 -1.22367,-0.53823 -1.87308,-0.72351c-0.67208,-0.19174 -0.73728,-4.14515 -0.73728,-4.14515c0,0 -2.48281,3.70626 -3.06432,3.74504c-0.48238,0.03217 -0.95555,0.09455 -1.41776,0.1852c0.53079,-1.42022 0.97002,-3.3286 -0.08058,-4.12427z" fill="#fde0be" stroke="#000000" stroke-width="0" stroke-linecap="round"/><path d="M227.30402,197.36582c0,0 2.46003,-4.50031 0.68968,-5.84109c-1.82604,-1.38295 -6.23474,-0.49915 -8.83676,-1.0744c-2.30924,-0.51052 -2.96485,-2.52465 -2.58906,-2.97584c9.08122,-10.90348 17.83521,0.23824 17.83521,0.23824c0,0 4.40182,-2.56506 9.84441,-0.30701c0.98701,0.40949 1.80676,2.95653 1.44067,5.30523c-0.28453,1.82546 -1.69025,3.62134 -1.69025,3.62134c0,0 0.27633,3.22477 -1.05204,3.55033c-1.15106,0.2821 -4.91871,-0.91709 -4.91871,-0.91709c0,0 -1.93817,0.48325 -2.74122,0.36935c-0.7187,-0.10194 -1.85214,-1.02089 -1.85214,-1.02089c0,0 -2.12814,1.4187 -4.43902,1.42137c-1.00818,0.00117 -1.69077,-2.36955 -1.69077,-2.36955z" fill="none" stroke="#000000" stroke-width="1" stroke-linecap="round"/><path d="M221.25354,189.22827l0.16427,1.26622" fill="none" stroke="#000000" stroke-width="1" stroke-linecap="round"/><path d="M230.0799,186.32477l1.29799,-0.88479" fill="none" stroke="#000000" stroke-width="1" stroke-linecap="round"/><path d="M233.41791,198.07559l-0.01074,-6.14565l0.89003,-1.01723" fill="none" stroke="#000000" stroke-width="1" stroke-linecap="round"/><path d="M237.70929,198.98674l1.7059,-1.9497c0,0 1.8627,0.05188 2.71207,-0.13404c0.69138,-0.15133 2.00841,-0.89919 2.00841,-0.89919" fill="none" stroke="#000000" stroke-width="1" stroke-linecap="round"/><path d="M241.02042,194.77477c0,0 -1.89095,-1.17458 -2.06942,-2.24492c-0.12487,-0.74893 1.13157,-2.24244 1.13157,-2.24244" fill="none" stroke="#000000" stroke-width="1" stroke-linecap="round"/><path d="M239.57934,193.5139l-0.17475,3.36422" fill="none" stroke="#000000" stroke-width="1" stroke-linecap="round"/></g><g stroke="none" stroke-width="0.5" stroke-linecap="butt"><path d="M232.65258,176.39414c0.16321,0.06708 0.25353,0.16457 0.30076,0.26652c0.05098,0.10013 0.07183,0.23139 0.02372,0.40115c-0.02127,0.07506 -0.05007,0.13666 -0.08389,0.18707c-1.90448,3.65591 -7.26826,-1.40722 -8.98424,-2.92829l-0.32416,-0.34168c0,0 -0.11975,-0.12744 -0.15373,-0.30664c-2.60433,-1.41664 -4.96022,-3.78245 -7.30586,-5.35087c0,0 -0.46334,-0.31007 -0.15327,-0.77342c0.31008,-0.46334 0.7734,-0.15327 0.7734,-0.15327c2.94909,1.97513 5.9399,5.29827 9.42544,6.1857c1.90663,0.87937 4.00171,2.37589 6.06135,2.69503l0.28648,0.07784c0.04216,0.00817 0.08679,0.02145 0.13397,0.04084z" fill="#000000"/><path d="M245.01757,168.30281l-0.0139,0.4458c-0.04911,1.35469 -0.41323,2.57557 -0.93844,3.82104c-2.5439,2.91938 -4.82799,7.15033 -9.30187,3.76942c-0.15691,-0.09961 -0.22223,-0.2248 -0.24223,-0.34312c-0.03346,-0.12719 -0.02068,-0.28436 0.11141,-0.45761c0.0341,-0.04473 0.06927,-0.08151 0.10496,-0.11147l0.15593,-0.18921c2.38715,-1.23853 4.36028,-3.61874 6.29919,-5.44044c1.10834,-1.04134 2.35701,-1.53031 3.17909,-2.83969c2.63694,-2.11761 6.90117,-4.20235 8.64485,-7.16056c0,0 0.29156,-0.47522 0.76676,-0.18367c0.47521,0.29156 0.18367,0.76676 0.18367,0.76676c-1.89745,3.00648 -5.96306,5.21231 -8.76345,7.32001c-0.07401,0.124 -0.15226,0.24086 -0.23419,0.35165c0.05198,0.13063 0.04822,0.25108 0.04822,0.25108z" fill="#000000"/><path d="M249.0651,174.92192c-0.38175,-0.40633 0.02457,-0.78808 0.02457,-0.78808l0.22487,-0.19169c0.23731,-0.35441 0.46393,-0.70486 0.67441,-1.06151c-2.48027,2.07721 -4.63065,4.81673 -7.35245,6.30412c-0.12894,0.08588 -0.26041,0.17058 -0.39423,0.25398c1.21286,-0.13668 2.42021,-0.34188 3.51171,-0.71283c2.13319,-0.44621 4.6021,-2.80081 5.18752,-5.26791c-0.21903,0.371 -0.45397,0.73604 -0.70028,1.10428l-0.38805,0.3842c0,0 -0.40631,0.38177 -0.78808,-0.02457zM239.19636,179.68624l0.08696,0.00612c0.01888,-0.00148 0.03777,-0.00295 0.05668,-0.00443c0.98428,-0.41491 1.91039,-0.91441 2.72461,-1.46039c2.91124,-1.48828 5.24592,-4.67732 7.95562,-6.78719c-0.89204,0.1878 -1.77111,0.41498 -2.52722,0.95571c0,0 -0.45623,0.32045 -0.77668,-0.13576c-0.32045,-0.45623 0.13576,-0.77668 0.13576,-0.77668c1.15579,-0.80006 2.46637,-1.02056 3.81025,-1.31483l0.56969,0.00329c0.1712,-0.03021 0.30051,0.02313 0.39362,0.0969c0.07556,0.0472 0.14714,0.11744 0.19048,0.2219c0.12051,0.02907 0.24494,0.10861 0.33928,0.28634c0.16521,0.31123 0.02929,0.53017 -0.0931,0.64915c0.621,3.61168 -2.6985,7.63203 -6.01019,8.37398c-1.99351,0.67751 -4.35318,0.81943 -6.46514,0.98634c-2.69703,1.09559 -5.77683,1.58807 -8.32198,0.86682c0,0 -0.53639,-0.15201 -0.3844,-0.68841c0.15201,-0.53639 0.68841,-0.38439 0.68841,-0.38439c2.17347,0.61593 4.77617,0.24254 7.12549,-0.63613c0.15492,-0.26917 0.50184,-0.25836 0.50184,-0.25836z" fill="#000000"/><path d="M249.80101,174.96619l0.38923,-0.3813c0.24628,-0.36824 0.57946,-0.78544 0.7985,-1.15643c-0.58542,2.4671 -3.11913,4.90419 -5.25234,5.35039c-1.09151,0.37095 -2.32592,0.55665 -3.53879,0.69334c0.13382,-0.0834 0.26552,-0.1678 0.39446,-0.25368c2.72179,-1.4874 4.95657,-4.29951 7.43684,-6.37671c-0.21048,0.35666 -0.43402,0.71054 -0.67134,1.06495l-0.22482,0.19177c0,0 -0.39973,0.39184 -0.01798,0.79816c0.38175,0.40633 0.68622,0.06952 0.68622,0.06952z" data-paper-data="{&quot;noHover&quot;:false,&quot;origItem&quot;:[&quot;Path&quot;,{&quot;applyMatrix&quot;:true,&quot;segments&quot;:[[[834.14744,373.93499],[0.70711,0.70711],[-0.70711,-0.70711]],[834.14744,372.52077],[[834.53988,372.16455],[0,0],[0.40564,-0.64864]],[[835.68962,370.22381],[-0.35742,0.65116],[-4.33049,3.86259]],[[822.86059,381.93661],[4.79646,-2.81868],[-0.22637,0.16117]],[[822.168,382.41397],[0.23526,-0.157],[2.16675,-0.31282]],[[828.4239,380.93977],[-1.9361,0.72604],[3.79941,-0.91918]],[[837.42959,371.20568],[-0.91166,4.45568],[-0.37194,0.67737]],[[836.23588,373.22454],[0.42096,-0.67392],[0,0]],[835.56165,373.93499]],&quot;closed&quot;:true}]}" fill="#ffffff"/></g></g></g></svg>