<svg version="1.1" xmlns="http://www.w3.org/2000/svg" xmlns:xlink="http://www.w3.org/1999/xlink" width="222.2967" height="217.12102" viewBox="0,0,222.2967,217.12102"><g transform="translate(-106.31288,-60.21151)"><g data-paper-data="{&quot;isPaintingLayer&quot;:true}" fill-rule="nonzero" stroke-linejoin="miter" stroke-miterlimit="10" stroke-dasharray="" stroke-dashoffset="0" style="mix-blend-mode: normal"><g stroke="#000000" stroke-width="2"><g stroke-linecap="round"><path d="M282.29291,148.00076l23.94453,-11.96987l-4.48576,-6.978l11.64384,-8.53698c0,0 -0.26441,-4.86154 1.71927,-2.8112c4.10958,4.24763 14.19171,16.82035 12.24891,21.18966c-2.32154,4.69394 -12.50924,8.92331 -20.33882,12.28691c-10.3638,4.45233 -20.26146,6.752 -23.50821,7.55097c-2.49966,0.61511 -7.80696,0.03858 -6.64886,-5.57586c0.51174,-2.48097 4.32348,-4.62233 5.27165,-5.26871" fill="#f5d9b5"/><g><path d="M296.22408,119.74109l17.36278,-7.29988c0,0 6.60156,10.19121 10.85456,17.61746c0.2122,0.37055 -8.02307,9.12571 -17.89852,5.95939z" fill="#965646"/><path d="M307.80541,115.26652l11.7505,18.74587" fill="none"/><path d="M312.46072,136.06124l-11.28838,-18.03193" fill="none"/></g></g><path d="M311.31516,124.15564c-5.35021,3.64618 -13.42727,1.994 -18.04066,-3.69025c-4.61335,-5.68425 -3.54153,-15.77625 1.80868,-19.42242c5.35021,-3.64618 12.64522,4.06482 17.25858,9.74907c4.61335,5.68425 4.32359,9.71742 -1.02662,13.3636z" fill="#4ac2e4" stroke-linecap="butt"/></g><path d="M292.79993,143.45291l-1.61574,3.22836l-3.29681,-3.57074l7.82191,-5.0876l2.92457,10.58651z" data-paper-data="{&quot;index&quot;:null}" fill="#4ac2e4" stroke="#000000" stroke-width="1.5" stroke-linecap="butt"/><g><path d="M210.79224,167.60579c0,0 -17.89942,4.50109 -28.17524,12.81373c-3.67063,2.96938 9.5305,11.88751 9.5305,11.88751l-11.40187,14.49895c0,0 -3.89292,1.67857 -6.33951,0.10317c-8.75667,-5.63864 -13.80026,-15.28419 -11.6868,-24.21417c1.22167,-5.1619 5.98746,-10.23969 10.83153,-13.76585c8.96248,-6.5241 28.41438,-10.4892 28.41438,-10.4892" data-paper-data="{&quot;index&quot;:null}" fill="#f5d9b5" stroke="#000000" stroke-width="2" stroke-linecap="round"/><g data-paper-data="{&quot;index&quot;:null}" stroke="#000000" stroke-width="2" stroke-linecap="round"><path d="M186.31543,187.77247c4.8135,2.39375 13.88706,7.24123 13.88706,7.24123c0,0 -11.67535,1.28103 -13.07419,3.70979c-1.29531,2.24906 4.96783,10.36515 4.96783,10.36515c0,0 -15.9485,1.57055 -23.31978,-10.21817c-3.88534,-6.21373 10.22455,-14.73531 17.53904,-11.09803z" fill="#965646"/><path d="M170.40747,193.73376l14.81384,10.70912" fill="none"/><path d="M176.83236,188.79749l18.39252,8.92688" fill="none"/></g><g><g><g data-paper-data="{&quot;index&quot;:null}" stroke-linecap="butt"><path d="M196.58623,214.22937c-1.40772,1.07326 -3.48296,1.49018 -4.97936,2.02246c-3.80967,1.35507 -7.24891,1.39835 -11.34295,-0.28651c-2.68255,-1.10397 -5.64015,-4.94185 -5.64015,-4.94185c0,0 -1.6072,-0.70006 -2.69673,-1.30665c-7.86046,-4.37613 -4.64049,-16.48204 3.84788,-15.27164c0.51165,-3.38297 4.99047,-5.90532 8.77407,-5.79541c0.21861,-7.73382 9.64866,-9.28118 13.99358,-8.62647c4.40092,0.66318 5.23506,4.38681 6.60306,7.81661c0.97956,2.45587 3.18771,5.26661 2.37592,7.35982c-0.6295,1.62324 -3.54577,3.63667 -5.75282,3.7831c0.31818,1.12696 -0.47175,1.77493 0.41183,1.39776c6.27828,-1.0058 12.16484,2.40666 10.08242,7.3375c-1.21002,2.86516 -6.9794,3.77396 -10.74088,2.8974c-1.3386,0.76233 -4.45911,3.25042 -4.9359,3.6139z" fill="#000000" stroke="none" stroke-width="0.5"/><path d="M183.49856,214.99662c-4.05631,-0.85864 -7.34272,-4.73983 -7.34272,-4.73983c0,0 2.22905,0.09799 3.40425,-0.66347c1.50597,-0.97575 2.25858,-2.51876 2.25858,-2.51876c0,0 1.98789,1.50388 5.12079,0.96326c1.59821,-0.27577 3.78279,-1.05375 5.15493,-2.46113c0.60365,-0.61915 0.99486,-1.51902 1.32006,-2.2447c0.77212,-1.72304 -1.63674,-6.72617 -3.14626,-5.18059c-1.50951,1.54559 3.88698,6.10714 -2.33294,8.09464c-2.30691,0.90268 -4.11828,-0.07792 -5.22107,-1.12677c-0.84603,-0.80466 -1.0806,-1.62688 -1.97927,-1.80642c-0.06497,-0.01297 -0.13002,-0.02497 -0.19492,-0.03542c-0.11646,-0.07423 -0.32915,-0.36629 -0.33348,-0.21806c-0.07355,2.51707 0.06353,4.35968 -1.10122,5.15991c-1.15828,0.79577 -3.61417,0.55789 -5.18546,-0.06781c-2.18779,-0.87122 -4.1204,-4.69154 -3.89508,-6.78871c0.35323,-3.28761 2.64612,-6.17403 7.07893,-4.78258c0,0 0.69713,-3.37119 2.49669,-4.41262c2.76739,-1.60157 7.02717,-1.47662 7.02717,-1.47662c0,0 0.03575,-3.68475 0.36883,-4.41631c1.45036,-3.1851 9.63634,-4.75149 12.31974,-3.56645c1.19586,0.52812 2.61835,4.59076 3.84824,7.5246c0.86913,2.07325 1.87011,3.01352 1.68855,4.31454c-0.15067,1.07958 -3.00838,2.10821 -4.48135,2.38924c-2.86444,0.78869 -3.53656,-0.28777 -4.58102,-1.38254c-1.05974,-1.11079 -1.26789,-2.71559 -2.09933,-2.51665c-0.48025,0.1149 -0.79664,0.29356 -0.97683,0.5189c-0.70374,0.87995 0.66959,2.47155 2.47253,3.75647c0.90086,0.64202 1.90901,1.20748 2.8189,1.56932c0.02069,2.01089 0.48078,3.63228 1.89524,3.56087c3.34718,-0.169 8.1479,-0.83049 9.54886,2.44186c2.09325,4.88947 -5.55519,3.43581 -9.40825,3.94356c0,0 -9.76491,7.60315 -16.54312,6.16834z" data-paper-data="{&quot;noHover&quot;:false,&quot;origItem&quot;:[&quot;Path&quot;,{&quot;applyMatrix&quot;:true,&quot;segments&quot;:[[[125.34693,572.28539],[0,0],[9.5542,-5.52752]],[[145.54599,551.07879],[11.14375,11.83056],[-10.91121,-11.58371]],[[107.57608,545.25957],[8.92382,23.60675],[-9.24736,2.75866]],[[90.51041,533.59623],[-7.75722,5.74017],[3.88909,-2.87784]],[[112.67488,537.77718],[-8,5.32104],[3.55223,-2.3627]],[[121.56111,526.31161],[0.8478,3.25941],[-1.02169,-3.92792]],[[112.17218,515.72545],[4.67659,5.03597],[-6.61787,-7.12642]],[[93.41811,498.19218],[3.75558,0.25364],[-8.42726,-0.56913]],[[65.29972,520.83032],[0.14573,-10.67857],[-0.03346,2.45263]],[69.30791,534.47925],[[52.53764,546.09621],[5.43661,-7.52196],[-3.5353,4.89133]],[[51.05266,561.36841],[0,0],[-13.26873,0.68565]],[[37.92637,582.55127],[-2.85957,-9.81424],[1.82415,6.26062]],[[54.54959,597.04786],[-6.76135,-0.19141],[0.48636,0.01376]],[[60.40089,595.84818],[-0.42349,1.56607],[13.81008,-4.46101]],[[66.51333,576.78502],[-7.92441,0],[0.45883,0]],[[67.78843,576.9226],[-0.39199,-0.09017],[0.18278,-0.03861]],[[68.34153,576.81785],[-0.18592,0.03133],[5.92404,-0.99864]],[[88.94775,574.78697],[-8.88942,8.88657],[14.07723,-12.27659]],[[86.57225,549.06928],[-2.19099,6.03276],[2.19099,-6.03276]],[[101.21156,563.65055],[0.04598,-5.76358],[-0.14966,18.76182]],[[73.9804,586.91918],[11.7383,0.37577],[-0.47154,-0.0151]],[[72.1505,586.94196],[0.72344,-0.02236],[-0.09676,2.96479]],[[71.1221,594.74753],[0.41982,-1.89247],[-0.76716,3.45832]],[67.36008,602.72239],[[89.01534,607.42214],[-11.66391,1.81815],[19.49071,-3.03818]]],&quot;closed&quot;:true}]}" fill="#47c1e2" stroke="#47c1e2" stroke-width="1"/></g><path d="M190.95045,198.47634c0,0 3.56889,5.04125 -1.6676,7.77566c-4.93622,2.57759 -7.71768,-0.8067 -8.58312,-1.92655c-0.88927,-1.15068 0.08192,0.36511 -0.04327,2.0523c-0.0933,1.25731 -1.00557,2.58538 -2.62436,3.10678c-4.26761,1.37458 -7.45913,-2.52183 -7.45913,-2.52183" fill="none" stroke="#000000" stroke-width="2" stroke-linecap="round"/></g><path d="M206.31258,195.24435c0,0 -2.6077,2.82367 -6.91254,2.7824c-1.94866,-0.01867 -3.77811,-1.2471 -4.75619,-2.38207c-0.78121,-0.90653 -0.91232,-1.77288 -0.91232,-1.77288" fill="none" stroke="#000000" stroke-width="2" stroke-linecap="round"/></g></g><path d="M224.0954,230.58491l-1.49581,1.43826c0,0 0.91123,0.38465 -2.99489,5.17153c-6.16034,7.5494 -19.23093,20.3635 -28.10932,16.57027c-1.19214,-0.50933 -2.02554,-1.64998 -1.87686,-2.65522c0.12942,-0.8751 0.47595,-3.12201 1.81551,-4.87159c7.74004,-10.10913 27.67305,-19.78285 27.67305,-19.78285z" data-paper-data="{&quot;index&quot;:null}" fill="#4ac2e4" stroke="#000000" stroke-width="2" stroke-linecap="round"/><g><path d="M257.26894,218.05126l25.55797,28.30006l-20.69147,0.02005l-19.14142,-22.72552z" fill="#3a3b3f" stroke="none" stroke-width="0" stroke-linecap="round"/><path d="M267.2685,228.57798c0,0 22.72056,24.87742 26.85437,33.53316c2.53302,5.30389 -3.00429,7.04418 -3.00429,7.04418c0,0 -9.15864,1.11495 -17.67908,0.34084c0.03946,-0.2052 0.07036,-0.41319 0.09237,-0.62363c0.21456,-2.05082 -0.45114,-3.99546 -1.73054,-5.56166c0.00894,-0.06741 0.017,-0.1351 0.02409,-0.20305c0.22353,-2.13648 -0.50828,-4.15773 -1.89404,-5.75591l0.31638,0.00081l-18.01121,-24.51438z" fill="#585a5e" stroke="none" stroke-width="0" stroke-linecap="round"/><path d="M275.935,251.60193c4.82695,-0.97407 8.9194,-2.91197 9.75541,-2.03006c3.37296,3.55805 6.64275,9.07522 8.13751,12.2051c0.46835,0.98067 0.66081,1.83953 0.66337,2.58807c-0.10819,-0.07612 -0.22107,-0.14886 -0.33902,-0.21799c-0.76664,-0.4493 -1.63151,-0.78152 -2.5339,-1.01865c-0.71911,-0.20595 -1.4777,2.82247 -2.26629,2.76232c-2.98777,-0.30957 -5.1539,-0.64114 -7.31122,-0.54997c-4.62326,0.19537 -7.64521,-1.88632 -7.64521,-1.88632c0,0 -4.93522,-6.87984 -8.41656,-11.98045c0,0 5.11194,1.10548 9.95587,0.12798z" fill="#a08c83" stroke="#000000" stroke-width="2" stroke-linecap="round"/><path d="M273.58197,262.00505l-26.79726,-35.34324l14.02245,-4.05557c0,0 7.25123,6.46457 13.69978,14.28159c6.15804,7.46487 15.71084,17.04627 19.616,25.2233c2.53302,5.30389 -3.0043,7.04417 -3.0043,7.04417c0,0 -9.15865,1.11494 -17.67909,0.34084" fill="none" stroke="#000000" stroke-width="2" stroke-linecap="round"/><path d="M268.74943,265.72325c1.29373,-0.73981 4.24557,-1.85516 4.24557,-1.85516c0,0 -0.03514,-2.51412 0.66413,-2.6428c0.71051,0.09577 1.2846,1.4381 2.14995,1.80244c1.71907,0.72376 3.78419,0.67477 4.72796,0.93518c1.68087,0.46377 4.55096,0.14121 6.49445,0.05904c0.13461,-0.00569 2.26593,-0.04813 3.89894,-0.68921c1.30399,-0.51192 2.11165,-1.65979 2.64039,-1.61224l2.02216,6.31741c0,0 1.7408,4.05794 0.74748,5.25765c-0.99332,1.1997 -6.20469,1.39489 -7.91013,1.74426c-1.70544,0.34939 -14.08444,0.98774 -14.08444,0.98774c0,0 -3.69806,0.44061 -6.62825,-0.93182c-2.0071,-0.94006 -3.31671,-2.63641 -3.0585,-4.6743c0.25047,-1.97685 2.25915,-3.40159 4.52653,-4.69817z" fill="#4ac2e4" stroke="none" stroke-width="0" stroke-linecap="butt"/><path d="M270.43925,275.17001c0,0 -0.56796,-4.19002 2.4539,-6.19564" fill="none" stroke="#000000" stroke-width="2" stroke-linecap="round"/><path d="M279.70052,276.12016c0,0 -1.71759,-2.68481 1.63929,-6.64803" fill="none" stroke="#000000" stroke-width="2" stroke-linecap="round"/><path d="M293.95544,261.7256c0,0 3.87487,6.43162 1.8409,11.83305c-4.41095,1.49775 -10.20828,2.36451 -16.58952,2.69352c-1.65007,0.08508 -8.78753,0.44156 -11.71828,-0.93765c-2.00748,-0.94472 -3.31774,-2.64886 -3.06025,-4.69562c0.24976,-1.98546 4.22657,-5.70783 10.1084,-7.00952c0.03117,0.24565 -1.72781,-2.58905 -1.72781,-2.58905c0,0 2.15151,3.13175 9.10585,3.22583c6.43632,0.08706 11.5375,-2.77985 11.5375,-2.77985" fill="none" stroke="#000000" stroke-width="2" stroke-linecap="round"/><path d="M268.97823,245.2814c-3.9861,0.92821 1.78193,4.00543 1.78193,4.00543c0,0 -2.50838,0.06029 -4.98806,-0.57349c-1.03126,-0.26359 -2.25903,-0.17553 -2.97859,-1.01281c-1.85674,-2.16048 -2.08542,-2.99207 -3.70826,-5.85172c1.44301,-1.40192 0.77328,-5.40657 0.90594,-5.60506c0.37696,-0.56405 4.26069,6.08975 4.60857,5.52097c0.98876,-1.61665 1.75717,-3.29304 1.75717,-3.29304c0,0 0.9342,1.87175 -0.0857,4.39415c-0.39138,0.96798 2.70698,2.4156 2.70698,2.4156z" fill="#4ac2e4" stroke="#000000" stroke-width="1.5" stroke-linecap="butt"/></g><g><g data-paper-data="{&quot;index&quot;:null}"><g><path d="M237.75766,228.49257c0,0 8.53777,14.7241 8.95453,18.65348c0.43211,4.07397 -7.86062,12.97333 -7.86062,12.97333l0.31631,0.00514c-1.42668,1.57174 -2.21045,3.57871 -2.04212,5.71888c0.00535,0.06807 0.01165,0.13588 0.01884,0.20344c-1.31952,1.54175 -2.03522,3.47339 -1.87364,5.52776c0.01658,0.21082 0.04212,0.41931 0.07627,0.62521c-8.53837,0.61359 -17.66601,-0.67341 -17.66601,-0.67341c0,0 -5.49107,-1.84405 -2.82179,-7.09899c2.66928,-5.25493 13.8764,-15.66826 13.8764,-15.66826l-6.40792,-16.05886z" fill="#3a3b3f" stroke="none" stroke-width="0" stroke-linecap="round"/><path d="M242.39636,239.38729c4.23649,2.64868 4.125,5.95951 4.31583,7.75876c0.43211,4.07397 -7.86062,12.97333 -7.86062,12.97333l0.31631,0.00514c-1.42668,1.57174 -2.21045,3.57871 -2.04212,5.71888c0.00535,0.06807 0.01165,0.13588 0.01884,0.20344c-1.31952,1.54175 -2.03522,3.47339 -1.87364,5.52776c0.01658,0.21082 0.04212,0.41931 0.07627,0.62521c-8.53835,0.61359 -17.666,-0.67341 -17.666,-0.67341c0,0 -5.49105,-1.84405 -2.82177,-7.09899c2.66928,-5.25492 13.87639,-15.66826 13.87639,-15.66826c0,0 -1.08982,-3.86731 -3.0123,-5.72919c0,0 11.33951,-6.97706 16.67283,-3.64264z" fill="#585a5e" stroke="none" stroke-width="0" stroke-linecap="round"/><path d="M243.65797,254.6113c-2.1317,2.97077 -4.47854,5.48927 -4.47854,5.48927l-7.17129,6.18661c0,0 -2.95692,-1.64319 -12.37053,-0.84712c-0.78995,0.0453 -1.55191,0.16887 -2.27617,0.36124c-0.9083,0.22009 -1.78152,0.53597 -2.55957,0.97073c-0.1197,0.06689 -0.23444,0.13747 -0.34457,0.21154c0.02187,-0.74832 0.23645,-1.60334 0.73001,-2.57496c1.57517,-3.10098 6.12344,-7.99824 9.58739,-11.49196c0.85857,-0.86595 3.62364,1.27825 8.56377,1.65609c4.44272,0.3398 11.2075,-1.19896 10.31948,0.03859z" fill="#a08c83" stroke="#000000" stroke-width="2" stroke-linecap="round"/><path d="M235.34727,272.19979c-8.53837,0.61359 -17.66602,-0.67341 -17.66602,-0.67341c0,0 -5.49107,-1.84405 -2.82179,-7.09899c2.66928,-5.25493 13.8764,-15.66826 13.8764,-15.66826l-7.58744,-17.15793l16.46513,-1.46698c0,0 8.68191,13.08245 9.09868,17.01184c0.43211,4.07397 -7.86062,12.97333 -7.86062,12.97333l0.31632,0.00514" fill="none" stroke="#000000" stroke-width="2" stroke-linecap="round"/><path d="M240.4071,264.71508c2.36403,1.16393 3.4503,3.27629 3.85535,5.23436c0.41755,2.01854 -0.75599,3.786 -2.68481,4.83879c-2.81591,1.537 -6.54024,1.30897 -6.54024,1.30897c0,0 -12.40128,0.07137 -14.13031,-0.17964c-1.72902,-0.25099 -6.944,-0.14758 -8.02922,-1.28774c-1.08524,-1.14017 0.33321,-5.28861 0.33321,-5.28861l1.52186,-6.41892c0.52382,-0.07769 1.41974,1.02137 2.76098,1.45754c1.67965,0.54621 3.80951,0.46661 3.94427,0.46457c1.94556,-0.02922 4.83451,0.12842 6.47521,-0.43049c1.38494,-0.47178 2.5633,-0.21887 4.65806,-0.62565c1.2501,0.15608 4.72626,-0.60413 7.83563,0.92679z" fill="#4ac2e4" stroke="none" stroke-width="0" stroke-linecap="butt"/><path d="M239.01193,267.97063c3.17246,1.82821 2.93459,6.04131 2.93459,6.04131" fill="none" stroke="#000000" stroke-width="2" stroke-linecap="round"/><path d="M216.1809,263.14453c0,0 4.45678,2.16149 10.87181,1.70635c6.93132,-0.49176 10.67833,-3.43063 10.67833,-3.43063c0,0 -2.12935,2.44468 -2.11753,2.19778c5.97076,0.96221 8.48967,4.54853 8.89468,6.51523c0.41752,2.02743 -0.75606,3.80271 -2.6849,4.86017c-2.81594,1.5438 -6.54026,1.31481 -6.54026,1.31481c0,0 -17.32314,-0.20506 -21.84171,-1.44705c-2.45327,-5.27292 2.22858,-11.80084 2.22858,-11.80084" fill="none" stroke="#000000" stroke-width="2" stroke-linecap="round"/></g><path d="M216.40442,264.42745l7.62547,-6.69834l-0.90345,2.37982l7.90111,-5.33683l-6.99088,12.75683" fill="#4ac2e4" stroke="#000000" stroke-width="0" stroke-linecap="round"/><path d="M216.96543,263.51945l6.13777,-5.66666l0.18717,1.98071l8.05691,-5.2038l-5.64798,10.53477" fill="none" stroke="#000000" stroke-width="1.5" stroke-linecap="round"/></g><path d="M231.36282,268.69344c5.31855,3.93189 2.42261,7.63908 2.42261,7.63908" data-paper-data="{&quot;index&quot;:null}" fill="none" stroke="#000000" stroke-width="2" stroke-linecap="round"/></g><path d="M131.77135,133.10807c0,13.68943 -5.69907,24.78689 -12.72923,24.78689c-7.03016,0 -12.72923,-11.09747 -12.72923,-24.78689c0,-13.68943 5.69907,-24.78689 12.72923,-24.78689c7.03016,0 12.72923,11.09747 12.72923,24.78689z" fill="none" stroke="none" stroke-width="0" stroke-linecap="butt"/><g data-paper-data="{&quot;index&quot;:null}" stroke-linecap="round"><path d="M243.29605,165.90495l13.91593,42.79679c0,0 3.23313,-0.1098 6.25779,1.47758c2.52755,1.3265 4.85654,4.1171 5.5345,6.498c0.6375,2.23882 -0.45648,4.83963 -1.97156,6.74657c-2.02425,2.54778 -7.48136,4.28278 -7.48136,4.28278l-36.81282,4.78331c0,0 -7.6639,0.64252 -10.1408,-3.82347c-4.01065,-7.23138 3.33659,-13.96632 3.33659,-13.96632l-8.11762,-49.51726" fill="#f5d9b5" stroke="#000000" stroke-width="2"/><path d="M269.05965,218.79228c-0.04655,0.86425 -0.44384,1.85639 -0.94745,2.8252c-0.58188,1.1194 -2.33368,2.63486 -3.89527,3.58812c-2.64035,1.61176 -5.34364,2.36961 -5.34364,2.36961c0,0 -15.75342,3.26636 -22.70521,4.15159c-5.89928,0.75117 -16.36864,0.82392 -16.36864,0.82392c0,0 -3.64493,-0.80617 -4.85673,-2.02837c-0.71428,-0.72042 -1.33312,-1.1634 -1.67992,-1.87099c-0.9351,-1.90802 -0.97669,-5.46409 -0.97669,-5.46409l56.07248,-7.5629c0,0 0.79927,1.34525 0.70107,3.16793z" fill="#585960" stroke="#585960" stroke-width="1"/><path d="M251.01688,217.61887c0,0 1.54041,4.4776 -7.23098,5.62043c-8.43248,1.28279 -9.02799,-3.31522 -9.02799,-3.31522" fill="#ffffff" stroke="#000000" stroke-width="2"/><path d="M240.39619,230.31009l-0.11149,-5.65694" fill="none" stroke="#000000" stroke-width="2"/><path d="M248.05357,223.10018l1.15735,5.84265" fill="none" stroke="#000000" stroke-width="2"/><path d="M206.55521,162.23301c0,0 6.61087,-2.81056 17.60502,-3.39706c10.99415,-0.58649 18.44844,2.25512 18.44844,2.25512l4.63479,18.8863l-37.20364,-4.91379z" fill="#965745" stroke="#000000" stroke-width="2"/><path d="M222.74089,220.66313c9.96177,-1.3756 45.22297,-6.24479 45.22297,-6.24479c0,0 1.38625,2.52472 1.28806,4.3474c-0.04655,0.86425 -0.44384,1.85639 -0.94745,2.8252c-1.56573,3.01207 -5.0764,5.50485 -9.34418,6.51247c-4.26779,1.00761 -23.28517,5.14111 -38.52636,4.71981c-5.53096,-0.1529 -8.13569,-3.30121 -8.8805,-6.2181c-0.568,-2.22445 0.17476,-4.42128 0.17476,-4.42128c0,0 6.09678,-0.8419 11.0127,-1.52072z" fill="none" stroke="#000000" stroke-width="2"/></g><path d="M239.0292,85.19727c0,0 3.88773,-9.29191 10.97724,-16.14696c5.72965,-5.54017 14.12236,-9.83968 22.37769,-6.86915c17.62075,6.34051 22.57704,38.51134 22.57704,38.51134" data-paper-data="{&quot;index&quot;:null}" fill="#4ac2e4" stroke="#000000" stroke-width="2" stroke-linecap="round"/><path d="M185.51882,118.34433c0,0 -12.1102,-30.53592 0.19771,-43.71613c5.76627,-6.17493 15.37934,-5.99039 23.27708,-3.56453c9.77211,3.00159 17.96622,9.5324 17.96622,9.5324" data-paper-data="{&quot;index&quot;:null}" fill="#4ac2e4" stroke="#000000" stroke-width="2" stroke-linecap="round"/><g stroke="#000000"><g><path d="M317.82793,150.36032c1.71097,4.83197 1.46625,9.44675 -0.01356,14.25808c-1.24898,4.06089 -3.23433,8.37992 -7.12022,11.89035c-5.02171,4.53651 -11.20267,8.5625 -19.12149,9.54023c-16.97785,2.0962 -38.13738,-2.81895 -38.13738,-2.81895l-30.84449,-7.99223c0,0 -10.29104,-3.85568 -16.07651,-7.41712c-6.50959,-4.00721 -12.39433,-11.62352 -15.65949,-16.95632c-1.39783,-2.28298 -2.86543,-5.00661 -3.7895,-7.84101c-1.56576,-4.80267 -2.11207,-10.05977 -2.04722,-15.02155c0.1463,-11.19517 3.70389,-20.81136 3.70389,-20.81136c0,0 5.07799,-14.95159 21.18557,-23.26271c5.80038,-2.99287 13.42256,-5.49514 21.21112,-6.54685c11.78063,-1.22457 23.70131,-0.56302 32.32465,1.61046c6.32798,1.59495 14.93492,4.00258 22.47811,8.46367c7.56008,4.47106 14.05301,11.00009 17.39066,16.58194c9.40773,15.73356 2.61018,32.40839 2.61018,32.40839c0,0 9.00972,5.73648 11.90571,13.91497z" fill="#4ac2e4" stroke-width="2" stroke-linecap="round"/><path d="M297.90917,184.61236l-6.85701,-11.02285l0.62221,-0.32501l6.85699,11.02286z" fill="#000000" stroke-width="1.5" stroke-linecap="butt"/><path d="M311.31604,175.37436l-7.3645,-8.94434l0.75262,-0.49548l7.3645,8.94434z" fill="#000000" stroke-width="1.5" stroke-linecap="butt"/></g><path d="M201.75322,163.45166l10.55031,-8.21697l0.46382,0.50004l-10.55031,8.21697z" data-paper-data="{&quot;index&quot;:null}" fill="#000000" stroke-width="1.5" stroke-linecap="butt"/><path d="M191.82702,152.68734l11.39226,-7.21151l0.40704,0.53997l-11.39223,7.21149z" data-paper-data="{&quot;index&quot;:null}" fill="#000000" stroke-width="1.5" stroke-linecap="butt"/><path d="M186.02598,139.18431l10.19729,-4.24261l0.23947,0.48331l-10.19729,4.2426z" data-paper-data="{&quot;index&quot;:null}" fill="#000000" stroke-width="1.5" stroke-linecap="butt"/></g><path d="M282.9735,118.12999c10.8437,0.32105 19.52201,9.22827 19.38355,19.89485c-0.13847,10.66658 -9.04129,19.0533 -19.88497,18.73225c-10.8437,-0.32103 -19.52201,-9.22828 -19.38354,-19.89485c0.13848,-10.66658 9.04129,-19.05329 19.88499,-18.73224z" fill="#ffffff" stroke="#000000" stroke-width="2" stroke-linecap="butt"/><path d="M221.64088,145.41533c-12.09351,-4.79735 -16.57195,-15.79083 -10.56908,-25.59035c6.00287,-9.79954 20.21391,-14.69427 32.30743,-9.8969c12.09352,4.79734 16.00578,17.00358 10.00289,26.80311c-6.00287,9.79954 -19.64774,13.48149 -31.74125,8.68415z" fill="#ffffff" stroke="#000000" stroke-width="2" stroke-linecap="butt"/><path d="M240.45973,83.80689c5.57646,-9.26482 8.86526,-5.91403 8.86526,-5.91403" data-paper-data="{&quot;index&quot;:null}" fill="none" stroke="#000000" stroke-width="7.5" stroke-linecap="round"/><g stroke="#000000" stroke-width="2"><path d="M278.97977,157.5972c-1.08683,5.99311 -13.81101,20.44628 -25.95988,27.75941c-6.59787,3.97164 -12.9304,4.54129 -17.35618,3.47557c-25.95159,-6.24911 -17.47851,-53.18706 -4.85508,-52.70507c7.65859,0.3034 16.67992,9.92451 27.32891,13.83834c10.02155,3.68321 21.95838,1.47686 20.84224,7.63172z" fill="#e26172" stroke-linecap="butt"/><path d="M242.99468,188.60004c0,0 -8.38083,3.37511 -14.5397,-1.60858c-16.23566,-15.44248 -7.9432,-36.87096 -7.9432,-36.87096c0,0 15.66281,1.96291 22.66496,13.47253c7.53323,12.38259 -0.18208,25.00699 -0.18208,25.00699z" fill="#f7a3a3" stroke-linecap="round"/><path d="M232.02054,136.6294c0,0 3.13477,0.46917 5.10361,1.38885c0.91532,0.42758 1.37202,0.4946 1.91099,0.90665c1.48169,1.13268 4.36505,2.78483 4.36505,2.78483c0,0 -7.7822,8.30999 -10.48617,6.24294c-2.70399,-2.06704 -0.89347,-11.32326 -0.89347,-11.32326z" fill="#ffffff" stroke-linecap="butt"/></g><g data-paper-data="{&quot;index&quot;:null}"><g><path d="M280.69392,154.38201c5.82303,3.02462 6.34777,5.19906 6.28088,6.45505c-0.12469,2.34134 -6.15469,1.43729 -11.45212,0.44353c-7.45009,-1.3976 -12.04281,-4.46457 -16.42641,-6.94101c-6.61581,-3.73757 -9.0071,-5.33838 -14.49276,-10.51281c-5.79472,-5.46596 10.45546,1.40435 18.15018,3.85828c6.00289,1.91438 17.94022,6.69696 17.94022,6.69696z" fill="#bbe9f3" stroke="none" stroke-width="0" stroke-linecap="round"/><path d="M276.14238,152.41417c-0.02768,0.77695 -3.66026,2.1539 -4.79091,1.96015c-1.13067,-0.19377 -7.06682,-5.25465 -7.03915,-6.03162c0.02441,-0.68554 4.63273,1.09034 6.50574,1.91055z" fill="#d94a32" stroke="none" stroke-width="0" stroke-linecap="butt"/><path d="M276.84635,152.73902c-2.20943,1.22716 -6.07982,1.72832 -6.07982,1.72832c0,0 -2.23574,-1.82742 -3.54144,-2.89471c-1.61555,-1.32052 -4.90728,-4.06435 -4.90728,-4.06435" fill="none" stroke="#000000" stroke-width="2" stroke-linecap="round"/><path d="M287.48447,159.43847c-0.52783,2.28164 -5.972,2.87291 -13.09513,1.23754c-8.44697,-1.93929 -15.68867,-5.4336 -20.87809,-8.70485c-5.43194,-3.42416 -10.23187,-8.51458 -10.19522,-9.41105c0.05171,-1.26557 5.96212,1.0515 14.29582,3.2492c7.41088,1.95434 30.76344,9.77865 29.87266,13.62918z" fill="none" stroke="#000000" stroke-width="2" stroke-linecap="round"/></g><path d="M270.42377,154.38336c0,0 0.08407,2.68966 -2.01956,3.90013" fill="none" stroke="#000000" stroke-width="2" stroke-linecap="round"/></g><path d="M264.20957,80.67653c0,0 3.59782,-3.07259 8.26291,6.60598" data-paper-data="{&quot;index&quot;:null}" fill="none" stroke="#000000" stroke-width="7.5" stroke-linecap="round"/><path d="M304.9664,141.23708c-0.5029,3.13469 -0.91709,4.43044 -1.75118,6.09506c-1.05493,2.10538 -2.4979,4.15923 -2.4979,4.15923" data-paper-data="{&quot;index&quot;:null}" fill="none" stroke="#000000" stroke-width="2" stroke-linecap="round"/><path d="M205.08217,134.01198c0,0 -2.01615,-6.16327 -0.35956,-12.53697" fill="none" stroke="#000000" stroke-width="2" stroke-linecap="round"/></g></g></svg>