<svg version="1.1" xmlns="http://www.w3.org/2000/svg" xmlns:xlink="http://www.w3.org/1999/xlink" width="189.26654" height="221.55319" viewBox="0,0,189.26654,221.55319"><g transform="translate(-205.36673,-69.22341)"><g data-paper-data="{&quot;isPaintingLayer&quot;:true}" fill-rule="nonzero" stroke-linejoin="miter" stroke-miterlimit="10" stroke-dasharray="" stroke-dashoffset="0" style="mix-blend-mode: normal"><g stroke="#000000" stroke-linecap="round"><path d="M290.93659,180.17841c0,0 -27.74163,7.89121 -29.05952,-10.04101c-0.48556,-6.60682 15.81827,-6.15842 15.81827,-6.15842z" data-paper-data="{&quot;origPos&quot;:null}" fill="#66c8ff" stroke-width="2"/><path d="M282.08838,169.08626c0,0 -16.01352,-0.7724 -15.84869,-1.3993c0.52266,-1.98766 12.31423,-2.25671 12.31423,-2.25671z" data-paper-data="{&quot;origPos&quot;:null}" fill="#0a0a0a" stroke-width="1"/></g><g><g data-paper-data="{&quot;index&quot;:null}"><g stroke="#000000" stroke-width="3" stroke-linecap="round"><path d="M337.62792,207.2148c0,0 3.64163,10.10522 3.53455,14.71163c-15.17239,7.48159 -24.96916,5.56413 -24.96916,5.56413c-1.95979,0.53929 -2.73291,-6.69446 -2.73291,-6.69446c0,0 -1.97216,-14.07193 -3.23446,-23.07865c-0.82888,-5.91419 -2.12389,-15.15439 -2.12389,-15.15439c0,0 -0.56284,-5.89772 0.51869,-6.10544c6.50659,-1.24966 12.55774,-3.74174 15.97465,-3.20398c1.13897,0.17925 3.10514,5.54533 3.10514,5.54533l9.92738,28.41582z" data-paper-data="{&quot;origPos&quot;:null}" fill="#582700"/><path d="M338.72791,212.86663l-25.00182,5.78697l-0.75316,-3.3176l24.98357,-6.04496z" data-paper-data="{&quot;origPos&quot;:null}" fill="none"/></g><path d="M312.66025,214.93729l-4.32623,-36.61284l1.09135,-0.94585l15.37503,-3.69321l12.34262,35.32211z" fill="#66c8ff" stroke="#000000" stroke-width="1" stroke-linecap="round"/><path d="M313.591,218.22774l-0.52845,-2.27041l24.83695,-5.78089l0.52844,2.27041z" fill="#ffffff" stroke="none" stroke-width="0" stroke-linecap="butt"/></g><g fill="#fffc96" stroke="#000000" stroke-width="2" stroke-linecap="round"><path d="M335.44698,202.73422c0,0 4.3808,0.15628 4.53215,3.09664c0.24214,4.70445 -32.61441,1.46442 -33.16251,-3.42324c-0.22393,-1.99698 2.92304,-2.39757 2.92304,-2.39757l0.42843,1.82196c0,0 6.03153,1.96238 13.67884,2.88877c7.54133,0.91355 12.57996,0.15174 12.57996,0.15174z"/><path d="M332.63619,194.58801c0,0 2.8283,-2.54999 3.93268,-0.50725c2.31822,4.288 -25.39131,25.79886 -26.61524,21.32904c-0.74123,-2.70703 2.46421,-4.05774 2.46421,-4.05774l0.35447,1.33053c0,0 4.73617,-2.43491 10.9176,-7.40899c6.18144,-4.97408 9.43023,-9.47338 9.43023,-9.47338z" data-paper-data="{&quot;index&quot;:null}"/></g></g><path d="M295.1782,264.06999c0,0 -0.26367,4.40397 -1.71382,6.30293c-1.11015,1.45373 -3.1552,1.56941 -5.0821,1.56839c-5.28913,-0.00282 -9.87779,-2.53223 -17.84773,-4.41686c-2.17065,-0.51329 -2.57629,-3.74887 -1.88081,-5.71495c0.65048,-1.83889 1.9033,-4.99865 1.9033,-4.99865l11.69873,-30.7417c0,0 1.65537,-3.93442 3.64402,-4.24125c4.78903,-0.73894 9.03467,1.73191 13.79873,2.59758c1.61447,0.29336 0.47593,4.89959 0.47593,4.89959c0,0 -1.26333,8.78554 -2.07192,14.40874c-1.14124,7.93647 -2.92429,20.33621 -2.92429,20.33621z" fill="#4b4b4b" stroke="#000000" stroke-width="3" stroke-linecap="round"/><g data-paper-data="{&quot;origRot&quot;:0}" stroke="#000000" stroke-linecap="round"><path d="M301.45155,230.21669c0,0 -1.71886,-4.45026 -0.15311,-4.91724c4.6203,-1.37795 8.52079,-4.29353 13.3708,-4.08079c2.01398,0.08833 4.16028,3.81522 4.16028,3.81522l15.5431,29.25454c0,0 1.64759,3.00142 2.52839,4.75673c0.94172,1.87672 0.95212,5.13388 -1.13786,5.87975c-7.67369,2.73864 -11.90737,5.74964 -17.15926,6.32792c-1.91335,0.21067 -3.95892,0.31832 -5.24698,-1.0045c-1.68257,-1.72794 -2.50678,-6.07253 -2.50678,-6.07253z" data-paper-data="{&quot;origPos&quot;:null}" fill="#ff0000" stroke-width="3"/><path d="M338.10298,262.15248c0,0 -5.04318,4.37591 -10.1596,6.03781c-3.92549,1.27507 -12.79026,3.08623 -12.79026,3.08623c0,0 -2.2835,-1.97873 -2.93943,-3.43515c-0.691,-1.53426 -0.51191,-4.22812 -0.51191,-4.22812l23.16259,-8.35553z" data-paper-data="{&quot;origPos&quot;:null}" fill="#976e57" stroke-width="2"/><path d="M301.64695,230.48795c0,0 -1.71886,-4.45026 -0.15311,-4.91723c4.62029,-1.37794 8.52079,-4.29354 13.37081,-4.08077c2.01398,0.08833 4.16027,3.81522 4.16027,3.81522l15.54309,29.25454c0,0 1.64763,3.00142 2.52842,4.75672c0.94172,1.87672 0.95212,5.13387 -1.13786,5.87975c-7.67369,2.73864 -11.90737,5.74965 -17.15926,6.32793c-1.91335,0.21067 -3.95892,0.31829 -5.24696,-1.00451c-1.68257,-1.72794 -2.50679,-6.07252 -2.50679,-6.07252z" data-paper-data="{&quot;origPos&quot;:null}" fill="#4b4b4b" stroke-width="3"/></g><g><g><path d="M277.72427,186.64662c0,0 0.98086,-14.28041 3.23433,-14.96801c6.76039,-2.06278 22.56814,-2.17637 33.08681,-2.86288c1.62608,-0.10613 4.04806,13.08793 4.04806,13.08793l4.1973,29.94403c0,0 1.38368,14.66731 -0.39021,14.78309c-15.79088,1.03061 -34.23472,3.07558 -41.3363,2.7094c-2.36717,-0.12205 -2.67157,-15.64889 -2.67157,-15.64889z" data-paper-data="{&quot;origPos&quot;:null}" fill="#66c8ff" stroke="#000000" stroke-width="3.5" stroke-linecap="round"/><path d="M298.3838,193.38724c-1.37379,0.08965 -1.56086,-2.35231 -1.56086,-2.35231c-0.38801,-5.06483 -0.90073,-11.75763 -1.28872,-16.82247c0,0 -0.18708,-2.44197 1.18671,-2.53163c1.37379,-0.08965 1.56086,2.3523 1.56086,2.3523c0.38801,5.06483 0.776,10.12966 1.16401,15.19449l0.1247,1.62798c0,0 0.18708,2.44198 -1.18671,2.53164z" fill="#ffffff" stroke="none" stroke-width="0.5" stroke-linecap="butt"/><path d="M311.62301,198.77167c-1.37379,0.08965 -1.60881,-2.97814 -1.60881,-2.97814c-0.48745,-6.36286 -1.13156,-14.77091 -1.61899,-21.13375c0,0 -0.23502,-3.0678 1.13878,-3.15747c1.37379,-0.08965 1.60881,2.97814 1.60881,2.97814c0.48745,6.36286 0.97487,12.72571 1.46233,19.08857l0.15668,2.0452c0,0 0.23502,3.06781 -1.13878,3.15748z" fill="#ffffff" stroke="none" stroke-width="0.5" stroke-linecap="butt"/></g><g fill="none" stroke="#b9b9b9" stroke-width="3"><path d="M312.11041,173.58104c-0.98227,-1.27579 -0.1025,-2.53645 1.1066,-3.81708c1.20912,-1.2806 2.48658,-1.73093 3.27198,-0.82047c1.66523,1.93045 0.15457,2.9915 -0.79219,3.99426c-1.20912,1.28062 -2.19915,2.44506 -3.58638,0.64331z" stroke-linecap="butt"/><path d="M310.54768,175.58591l2.56516,-2.65311" stroke-linecap="round"/><path d="M306.82303,176.44991c1.20912,-1.2806 2.48659,-1.73093 3.27198,-0.82047c1.66523,1.93045 0.15457,2.9915 -0.79219,3.99426c-1.2091,1.28061 -2.19914,2.44505 -3.58638,0.6433c-0.98227,-1.27579 -0.10252,-2.53646 1.10659,-3.81709z" stroke-linecap="butt"/><path d="M306.71884,179.61873l-2.56514,2.65313" stroke-linecap="round"/><path d="M298.13995,182.21814c0.30316,-1.63297 1.73792,-1.57406 3.38886,-1.22913c1.65094,0.34494 2.75434,1.23657 2.58975,2.47821c-0.34898,2.63262 -2.02903,1.88687 -3.32175,1.61678c-1.65093,-0.34493 -3.08499,-0.55968 -2.65684,-2.86585z" stroke-linecap="butt"/><path d="M295.75787,181.97655l3.45725,0.76903" stroke-linecap="round"/><path d="M290.15341,178.42224c0.85075,-1.35461 2.15944,-0.66346 3.56862,0.38459c1.40918,1.04805 2.12031,2.35149 1.53453,3.41076c-1.24202,2.24596 -2.53829,0.81939 -3.64174,-0.00125c-1.40918,-1.04806 -2.66286,-1.88105 -1.46141,-3.79409z" stroke-linecap="butt"/><path d="M288.0308,177.14362l2.93468,2.23733" stroke-linecap="round"/><path d="M282.77564,172.86118c0.85075,-1.35459 2.15942,-0.66346 3.56862,0.38459c1.40919,1.04805 2.12031,2.35149 1.53453,3.41076c-1.24202,2.24595 -2.53829,0.81939 -3.64174,-0.00125c-1.40918,-1.04805 -2.66284,-1.88104 -1.46139,-3.79409z" stroke-linecap="butt"/><path d="M280.65303,171.58253l2.93469,2.23733" stroke-linecap="round"/></g></g><path d="M205.36673,290.77659v-221.55318h189.26654v221.55319z" fill="none" stroke="none" stroke-width="NaN" stroke-linecap="butt"/><path d="M305.97409,157.8805c0,0 -2.72083,0.44992 -6.06883,0.42912" fill="none" stroke="#000000" stroke-width="2.5" stroke-linecap="round"/><path d="M313.43411,176.16167c-11.96024,-1.74637 -23.55316,-3.47558 -28.13123,-5.2077c-4.18406,-1.58303 -5.06108,-4.51441 -5.06108,-4.51441c0,0 -1.35947,-2.67634 -1.20767,-4.20381c0.45544,-4.58245 2.36764,-17.59304 5.0535,-28.6484c0.08964,-0.36897 0.15338,-0.57309 0.26485,-0.93607c0.33437,-1.08892 1.81994,-5.28627 1.81994,-5.28627c0,0 3.40804,-1.14617 5.19316,-1.3459c5.35532,-0.5992 18.17865,2.91724 31.8609,5.48234c1.24012,0.2325 3.11568,2.22814 3.11568,2.22814c0,0 1.03669,3.33832 0.68184,5.28986c-2.29408,12.61697 -4.87874,26.56831 -5.67922,29.72508c-0.26681,1.05226 -2.731,4.90683 -2.731,4.90683z" fill="#582700" stroke="#000000" stroke-width="2.5" stroke-linecap="round"/><path d="M281.81384,127.4995c-0.49275,-1.14878 0.65602,-1.64153 0.65602,-1.64153l1.41261,-0.56128c0.12262,-0.01823 0.24502,-0.03574 0.36725,-0.05249c-0.1381,-5.87102 2.01954,-12.60729 2.85131,-18.26494c0.21571,-1.46723 0.45009,-5.4957 1.3502,-6.64486c1.50726,-1.92432 3.10926,-1.07877 4.98442,-0.79788c3.19054,0.47793 6.3495,0.99095 9.57616,0.99667c7.99698,0.02354 15.79479,0.93364 23.75687,1.44424c2.51249,0.16113 4.94937,0.43504 7.4112,1.02301c0.67361,0.16087 1.58441,0.04369 1.98694,0.60726c1.42564,1.99594 0.40907,3.82375 -0.19806,5.71656c-1.21105,3.77557 -3.33619,7.02426 -4.05351,10.9693c-0.56895,3.01446 -1.50634,6.05427 -2.34726,9.00223c-0.2902,1.01731 -0.24309,2.98912 -1.4101,3.61001c-2.39291,1.27312 -7.79835,-0.76546 -10.29637,-1.22725c-7.61694,-1.40808 -15.21123,-2.97425 -22.8968,-3.94614c-2.76165,-0.25372 -5.40676,-0.41526 -8.11079,-0.24009c-0.08167,0.36449 -0.32846,0.8105 -1.03532,0.90936c-0.76691,0.10726 -1.12516,-0.32704 -1.28675,-0.67305c-0.09321,0.01307 -0.18655,0.02663 -0.28002,0.04065l-0.79644,0.38626c0,0 -1.14878,0.49275 -1.64153,-0.65603z" fill="#000000" stroke="none" stroke-width="0.5" stroke-linecap="butt"/><g><g stroke="#000000" stroke-width="3" stroke-linecap="round"><path d="M259.0317,208.72744l8.27841,-28.93924c0,0 1.65462,-5.47018 2.78141,-5.71457c3.38038,-0.73319 9.56469,1.40711 16.13234,2.28089c1.09167,0.14524 0.86861,6.06556 0.86861,6.06556c0,0 -0.762,9.29934 -1.24971,15.25138c-0.74275,9.06438 -1.90318,23.22636 -1.90318,23.22636c0,0 -0.35625,7.26622 -2.34378,6.84042c0,0 -9.67045,2.47713 -25.24759,-4.1204c-0.37157,-4.59265 2.68348,-14.89039 2.68348,-14.89039z" data-paper-data="{&quot;origPos&quot;:null}" fill="#582700"/><path d="M258.82292,210.81913l25.2896,4.59959l-0.56132,3.35539l-25.293,-4.34098z" data-paper-data="{&quot;origPos&quot;:null}" fill="none"/></g><path d="M259.61876,210.48933l10.29287,-35.97289l15.56182,2.80376l1.14389,0.88159l-2.21558,36.80093z" fill="#66c8ff" stroke="#000000" stroke-width="1" stroke-linecap="round"/><path d="M258.53357,213.99682l0.39715,-2.29702l25.12804,4.34438l-0.39713,2.29702z" fill="#ffffff" stroke="none" stroke-width="0" stroke-linecap="butt"/></g><path d="M298.33261,148.54725c5.04137,-1.6458 8.87801,1.23381 9.66415,6.22731c0.90162,5.72695 -3.4018,8.16421 -3.4018,8.16421c0,0 -2.33802,-1.49156 -5.47508,-2.41139c-3.90616,-1.14534 -6.17195,-1.06413 -6.17195,-1.06413c0,0 -1.45448,-8.68329 5.38469,-10.916z" fill="#ffffff" stroke="#0a0a0a" stroke-width="2" stroke-linecap="butt"/><path d="M323.75507,153.677c5.27641,4.89067 0.32051,12.16761 0.32051,12.16761c0,0 -2.02371,-1.02224 -6.05059,-1.61729c-3.23404,-0.47789 -5.98172,-0.10205 -5.98172,-0.10205c0,0 -2.8879,-4.01493 0.32832,-8.83849c2.80432,-4.20579 7.49407,-5.21485 11.38347,-1.60979z" data-paper-data="{&quot;index&quot;:null}" fill="#ffffff" stroke="#0a0a0a" stroke-width="2" stroke-linecap="butt"/><g data-paper-data="{&quot;index&quot;:null}" stroke="#000000" stroke-width="1.25" stroke-linecap="butt"><path d="M290.80077,175.00432c-10.18048,-3.08202 -4.38003,-12.97171 -4.38003,-12.97171l15.19503,4.45367c0,0 -0.03661,11.78108 -10.815,8.51805z" fill="#000000"/><path d="M290.46738,171.4639c2.55143,1.66444 4.18191,4.11665 3.70428,4.11102c-0.98699,-0.01162 -2.10483,-0.18733 -3.37089,-0.57061c-3.79444,-1.14871 -5.36883,-3.24315 -5.85098,-5.41874c-0.09367,-0.42266 3.17464,0.34989 5.51758,1.87832z" fill="#ff8484"/><path d="M285.18186,165.57503c0.47206,-1.45713 1.23887,-3.54243 1.23887,-3.54243l13.35423,3.91413l-1.02512,3.71617c0,0 -13.58354,-4.03985 -13.56798,-4.08787z" fill="#ffffff"/></g><path d="M265.8891,188.40127l0.19819,-0.05061c1.17766,1.80576 1.4067,3.54004 2.35146,5.4229c0.64931,1.29403 1.51109,1.74827 2.0772,3.17325c0.35149,0.88477 0.27193,2.00467 0.91693,2.70492c1.62279,1.76177 3.58847,0.97018 5.19368,3.2606c0.67505,0.96321 0.14182,2.43051 0.72114,3.45416c0.52976,0.93607 3.71546,1.42005 4.59573,2.06417c3.36196,2.46005 3.93776,5.53127 3.93776,9.39074c0,3.90835 0.94966,9.27158 -3.06966,11.73221c-1.84587,1.13004 -4.38918,0.76779 -6.43034,0.76779c-4.33161,0 -9.30983,-0.22445 -13.5882,-1.03299c-1.83018,-0.34588 -5.07574,-1.36535 -6.14231,-3.03396c-0.63323,-0.99066 -0.51672,-3.25453 -0.51949,-4.43305c0.01216,-6.68535 1.59338,-14.40908 3.58437,-20.78682c1.06989,-3.4272 2.38151,-6.23407 2.78888,-9.61032c-0.88904,-0.99847 -0.02325,-2.15286 -0.02325,-2.15286l0.15449,-0.03945c0.02832,-0.35699 0.23513,-1.66055 1.74551,-1.66055c0.8449,0 1.28189,0.40793 1.50789,0.82988z" fill="#000000" stroke="none" stroke-width="0.5" stroke-linecap="butt"/><path d="M300.64784,256.92955c0.92856,0.12776 2.14995,-0.49338 2.80645,0.17563c2.7161,2.76788 -1.14161,6.39477 -1.68996,8.70916c-0.31563,1.33217 0.68228,2.85327 0.12813,4.10516c-1.73556,3.92091 -6.53967,4.17756 -10.05184,3.74421l-1.83294,-1.08649c0,0 -0.01415,-0.01061 -0.03853,-0.03112c-3.16788,1.35269 -8.08616,-0.37246 -11.41147,-0.36888c-4.81052,0 -9.36594,-0.64811 -14.12406,-1.0044c-5.34433,-0.40019 -12.01696,0.92386 -17.11048,-1.40721c-1.28269,-0.58703 -2.16641,-1.85502 -3.43516,-2.47159c-1.11563,-0.54216 -2.56648,0.04787 -3.69052,-0.47663c-0.95024,-0.44339 -1.65825,-1.28391 -2.48737,-1.92587c0.15286,-1.17627 -0.15394,-2.51303 0.45858,-3.5288c0.69137,-1.14653 2.71896,-0.71233 3.65157,-1.67293c2.15861,-2.22343 2.34205,-1.1233 6.8035,-1.01132c2.33691,0.05866 4.25278,-2.60352 6.68927,-2.98406c1.28362,-0.20048 2.41399,-1.02233 3.69459,-1.24127c3.42955,-0.58635 7.04312,-0.73477 10.54895,-0.47954c0.01519,-0.35425 0.03686,-0.71089 0.00113,-1.04637v-0.25c0,0 0,-1.33886 1.17107,-1.67443c0.56342,-0.5226 1.20707,-0.99823 1.37229,-1.71268c0.18126,-0.78383 -0.45683,-1.79354 0.05665,-2.41289c0.45886,-0.55347 5.26136,-3.90627 6.09402,-3.86317c0.48929,0.02533 2.82889,4.42185 3.63931,4.41317c1.329,-0.01424 3.36961,-3.60765 4.69402,-3.4965c2.02568,0.17001 1.8999,4.13035 3.43714,4.93894c2.81942,1.48304 6.32517,-2.21466 7.93097,1.71181c0.3268,0.79908 0.05841,1.72565 0.08761,2.58847c-0.46868,1.67955 -1.28401,2.83409 -2.03156,4.10195c1.44139,-0.65381 2.57233,-0.62665 4.63863,-0.34236z" fill="#000000" stroke="none" stroke-width="0.5" stroke-linecap="butt"/></g></g></svg>