<svg version="1.1" xmlns="http://www.w3.org/2000/svg" xmlns:xlink="http://www.w3.org/1999/xlink" width="306.30631" height="274.77477" viewBox="0,0,306.30631,274.77477"><g transform="translate(-86.84686,-42.61264)"><g data-paper-data="{&quot;isPaintingLayer&quot;:true}" fill-rule="nonzero" stroke-linecap="butt" stroke-linejoin="miter" stroke-miterlimit="10" stroke-dasharray="" stroke-dashoffset="0" style="mix-blend-mode: normal"><path d="M86.84686,317.38741v-274.77477h306.30631v274.77477z" data-paper-data="{&quot;index&quot;:null}" fill="none" stroke="none" stroke-width="0"/><text transform="translate(271.55606,110.7227) rotate(-180) scale(0.1602,-0.1602)" font-size="40" xml:space="preserve" data-paper-data="{&quot;index&quot;:null}" fill="#000000" fill-rule="nonzero" stroke="none" stroke-width="1" stroke-linecap="butt" stroke-linejoin="miter" stroke-miterlimit="10" stroke-dasharray="" stroke-dashoffset="0" font-family="Sans Serif" font-weight="normal" text-anchor="start" style="mix-blend-mode: normal"><tspan x="0" dy="0">AwezomeXD</tspan><tspan x="0" dy="46.150000000000006px"> </tspan><tspan x="0" dy="46.150000000000006px">MeIzAwezomeDede</tspan></text><g data-paper-data="{&quot;index&quot;:null}"><g><g><g><path d="M200.15938,121.42524c0,0 -5.02793,-10.65959 1.99218,-16.24748c4.98318,-3.96652 21.35476,-1.52175 32.0715,-4.14668c12.18245,-2.98396 34.9378,-9.53847 34.9378,-9.53847c0,0 5.70313,2.05993 7.63601,1.65673c2.4134,-0.50344 4.29189,-4.17844 4.29189,-4.17844c0,0 1.24242,3.83382 1.57244,7.05877c1.24305,12.14723 -8.55893,13.62111 -8.55893,13.62111c0,0 4.71976,4.88626 5.51952,8.9611c0.84067,4.28339 -2.41362,7.14235 -2.41362,7.14235c0,0 2.98031,2.98526 3.67076,6.38889c0.45581,2.24697 0.5466,6.03668 0.56895,8.40452c0.03818,4.04069 7.97644,6.82251 7.97644,6.82251c0,0 -3.44453,3.69856 -6.11175,4.6045c-2.71481,0.9221 -9.42459,-1.01815 -9.42459,-1.01815c0,0 -2.34442,0.97679 -2.40115,3.74218c-0.01788,0.87174 0.55538,2.78421 0.83765,3.66004c0.95211,2.95419 -0.65763,5.38453 -0.65763,5.38453c0,0 -2.02387,-3.07278 -2.94723,-3.77416c-0.67769,-0.51478 -1.30304,-0.61069 -1.30304,-0.61069c0,0 -0.73815,4.33709 0.00675,6.65223c0.79054,2.45698 -2.55909,2.65656 -3.90091,1.18218c-1.47036,-1.61563 -2.81165,-6.04055 -3.4502,-5.87548c-2.20827,0.57084 5.38009,13.61518 2.74819,13.59661c-2.42241,-0.01709 -5.77744,-5.75982 -5.77744,-5.75982c0,0 -0.9392,6.77432 -3.62045,7.99677c-2.6019,1.1863 -3.44616,6.33682 -4.5803,6.62348c-4.13435,1.045 -10.86533,-10.62547 -10.86533,-10.62547c0,0 -10.74972,9.82247 -13.90505,7.82744c-3.72405,-2.35464 -6.30046,-13.55891 -6.30046,-13.55891c0,0 -6.94273,-7.40323 -7.78887,-10.0389c-1.90025,-5.91926 0.49283,-11.17606 0.49283,-11.17606c0,0 -3.12778,0.78363 -4.52025,2.12067c-1.48006,1.42117 -4.11339,6.16933 -4.11339,6.16933c0,0 -2.06084,-5.16504 -2.01689,-7.79272c0.04623,-2.76332 2.2878,-8.40075 2.2878,-8.40075c0,0 -5.19772,-2.73932 -7.83279,-7.44926c-1.41229,-2.52429 -1.43069,-8.38419 -1.43069,-8.38419c0,0 4.7694,3.13832 6.59935,3.42637c1.41953,0.22344 1.00942,-2.65657 1.00942,-2.65657z" fill="#6d0f0a" stroke="#000000" stroke-width="2"/><path d="M198.32583,116.52791c0,0 -4.52354,-6.88437 -4.16928,-16.76324c0.1918,-5.34823 3.64204,-12.55317 5.65276,-17.47267c2.84955,-6.97166 10.74667,-11.2991 17.74273,-13.0127c9.19681,-2.25265 17.30217,5.61115 17.30217,5.61115c0,0 8.90169,-5.57777 16.35701,-5.25144c7.20248,0.31525 13.45939,7.00579 15.15218,8.63994c2.57889,2.48956 6.81906,15.32563 6.81906,15.32563c0,0 -22.8701,25.48055 -37.44663,29.05087c-15.57214,3.81419 -29.10711,-10.48004 -34.24332,-6.77468c-1.80723,1.30378 -3.16667,0.64716 -3.16667,0.64716z" fill="#6d0f0a" stroke="#000000" stroke-width="2"/><path d="M198.52813,87.15909c0,0 1.55319,-3.33785 2.41437,-4.82385c0.82162,-1.41771 2.63957,-3.89709 2.63957,-3.89709c0,0 9.20654,4.42894 13.76369,5.02949c4.77549,0.62934 11.97632,-2.56049 11.97632,-2.56049c0,0 0.4426,2.19698 0.85228,3.05189c0.43313,0.90387 1.21976,2.34535 1.21976,2.34535c0,0 0.89229,-1.9609 1.08102,-2.76278c0.20383,-0.86608 0.48255,-2.66472 0.48255,-2.66472c0,0 2.33579,3.29154 3.35318,4.49664c0.83315,0.98688 2.30967,2.21095 2.30967,2.21095c0,0 -0.42722,-2.0163 -0.73015,-3.04865c-0.32073,-1.09299 -1.14393,-3.33773 -1.14393,-3.33773c0,0 10.1279,2.55552 16.23571,3.10822c0.12263,0.01108 4.64729,-0.86023 4.99159,-0.8796c7.40308,-0.4165 3.30858,-8.84663 3.30858,-8.84663c0,0 3.38159,2.79234 5.01776,5.49487c1.65948,2.74103 4.87013,10.83737 4.87013,10.83737c0,0 -5.80095,-2.04179 -10.83499,-1.6272c-0.89326,0.07357 -10.50638,1.38388 -10.50638,1.38388c0,0 -1.80059,-1.78714 -2.72441,-2.50289c-0.90528,-0.70139 -2.76398,-1.7494 -2.76398,-1.7494c0,0 -0.83271,1.98321 -1.1989,3.18053c-0.43997,1.43845 -1.26031,4.86031 -1.26031,4.86031c0,0 -1.2204,-1.61315 -2.04673,-2.4452c-0.91929,-0.92567 -3.21983,-2.85806 -3.21983,-2.85806c0,0 -1.20843,0.67332 -1.82663,1.26289c-0.8582,0.81844 -2.84313,3.19038 -2.84313,3.19038c0,0 -1.29623,-2.58266 -2.0139,-3.70517c-0.62091,-0.9712 -2.04407,-2.64203 -2.04407,-2.64203c0,0 -1.39564,1.37717 -2.10257,2.25119c-0.88216,1.09069 -2.78209,3.78793 -2.78209,3.78793c0,0 -8.59381,-6.22014 -12.7996,-7.27533c-3.93414,-0.98706 -11.67459,1.13497 -11.67459,1.13497z" fill="#c42d06" stroke="none" stroke-width="0"/></g><path d="M222.42296,128.04435c0,0 -19.1643,-2.81783 -19.75603,-4.10918c-0.10264,-0.22402 1.14712,-8.83735 0.77221,-9.63296c-0.68482,-1.45325 -4.83654,0.33809 -4.83654,0.33809c0,0 61.57346,-18.67784 71.28997,-21.20534c2.47537,-0.6439 5.4769,1.24134 5.4769,1.24134l-8.28995,20.10812z" fill="#6d0f0a" stroke="none" stroke-width="NaN"/></g><path d="M236.28331,75.90526c0,0 -4.49713,-0.97456 -3.75367,-6.54388c0.03918,-0.29345 0.50105,-1.52001 0.68095,-1.80282c1.37855,-2.16699 6.23099,-3.19658 6.23099,-3.19658c0,0 -2.3036,4.79956 -3.0461,6.43155c-0.66181,1.45465 -0.11215,5.11173 -0.11215,5.11173z" fill="#6d0f0a" stroke="#000000" stroke-width="1.5"/><path d="M229.26608,66.33593c0,0 1.50025,0.78431 2.20378,2.37269c0.53261,0.7611 1.23702,3.45964 1.23702,3.45964l-2.02755,-0.76071z" fill="#000000" stroke="none" stroke-width="0"/></g><path d="M235.21439,74.62631l3.7282,-0.57336c0,0 -2.16688,4.59092 -2.65316,4.82564c-0.68077,0.32864 -4.04323,-4.36972 -4.04323,-4.36972z" fill="#6d0f0a" stroke="none" stroke-width="0"/></g><g data-paper-data="{&quot;index&quot;:null}"><text transform="translate(294.68338,229.00292) rotate(-180) scale(0.27921,-0.27921)" font-size="40" xml:space="preserve" fill="#000000" fill-rule="nonzero" stroke="none" stroke-width="1" stroke-linecap="butt" stroke-linejoin="miter" stroke-miterlimit="10" stroke-dasharray="" stroke-dashoffset="0" font-family="Sans Serif" font-weight="normal" text-anchor="start" style="mix-blend-mode: normal"><tspan x="0" dy="0">AwezomeXD</tspan><tspan x="0" dy="46.150000000000006px"> </tspan><tspan x="0" dy="46.150000000000006px">MeIzAwezomeDede</tspan></text><g data-paper-data="{&quot;index&quot;:null}"><g><path d="M304.61432,280.72712c-0.97394,-0.3343 -2.81981,-1.05375 -2.81981,-1.05375l2.00112,-62.99775c0,0 3.12264,-3.42551 4.77674,-5.10754c1.78782,-1.81801 6.83093,-5.9246 6.83093,-5.9246c0,0 5.94054,0.17965 11.08569,1.75457c7.39586,2.26385 29.04162,10.52827 29.04162,10.52827c0,0 -0.29139,23.00613 -1.11993,33.98866c-0.74728,9.90532 -3.63272,29.00908 -3.63272,29.00908c0,0 -14.3168,1.48011 -21.61682,1.59314c-7.15813,0.11083 -21.76596,-0.92143 -21.76596,-0.92143c0,0 -1.89659,-0.56514 -2.78087,-0.86866z" fill="#434253" stroke="#000000" stroke-width="2.5"/><path d="M306.04173,281.58897c0,0 3.19421,-16.34268 5.26935,-30.13714c1.48339,-9.86081 2.04443,-18.33187 2.06476,-19.00203c0.15509,-5.11269 -0.3723,-9.50368 -0.00091,-14.70459c0.49814,-6.97594 1.18056,-11.43244 1.18056,-11.43244l2.10035,-1.22928c0,0 -1.17975,18.14658 -2.93073,35.27697c-0.73182,7.15966 -2.77258,22.22022 -3.75528,31.64788c-0.10799,1.03599 0.50491,2.39047 0.4064,3.33489c-0.55015,5.27458 -0.93311,6.24975 -0.93311,6.24975l-3.40139,-0.00403z" fill="#000000" stroke="none" stroke-width="0"/></g><g stroke="#000000" stroke-width="1.5"><path d="M345.29835,263.35315c0.94113,9.66742 -4.93088,16.17699 -12.88074,16.95092c-7.94986,0.77393 -14.77082,-5.25083 -14.91119,-14.96294c-0.15638,-10.82018 5.8426,-16.14324 12.54261,-16.73861c6.71115,-0.59636 14.44659,6.50489 15.24932,14.75063z" fill="#2c262f"/><path d="M323.67439,268.45717c-0.26544,-2.72671 1.31874,-5.06632 3.56101,-5.2846c2.24227,-0.21828 3.76096,1.25807 4.0264,3.98478c0.26545,2.72671 -1.3891,5.14677 -3.63137,5.36505c-2.24227,0.21828 -3.69059,-1.33852 -3.95603,-4.06523z" data-paper-data="{&quot;index&quot;:null}" fill="#1b171c"/></g><g stroke="#000000" stroke-width="1.5"><path d="M334.90073,214.226c6.72176,-0.46163 14.18059,7.06601 14.65957,15.33688c0.56156,9.69688 -5.56103,15.97134 -13.53511,16.43313c-7.97408,0.46179 -14.55372,-5.82563 -14.31338,-15.53578c0.26776,-10.81801 6.4647,-15.77245 13.18893,-16.23424z" fill="#2c262f"/><path d="M327.75296,233.8156c-0.15839,-2.73501 1.51626,-5.01074 3.76536,-5.14099c2.2491,-0.13025 3.70876,1.40448 3.86715,4.1395c0.15839,2.73502 -1.58973,5.08838 -3.83883,5.21863c-2.2491,0.13025 -3.6353,-1.48212 -3.79369,-4.21714z" data-paper-data="{&quot;index&quot;:null}" fill="#1b171c"/></g></g><g><g><path d="M178.20551,279.80011c0,0 -1.84588,0.71945 -2.81982,1.05375c-0.88428,0.30352 -2.78086,0.86866 -2.78086,0.86866c0,0 -14.60784,1.03226 -21.76596,0.92143c-7.30001,-0.11302 -21.61681,-1.59314 -21.61681,-1.59314c0,0 -2.88544,-19.10377 -3.63272,-29.00909c-0.82854,-10.98252 -1.11993,-33.98866 -1.11993,-33.98866c0,0 21.64575,-8.26442 29.04162,-10.52827c5.14515,-1.57491 11.08569,-1.75457 11.08569,-1.75457c0,0 5.04312,4.1066 6.83094,5.9246c1.6541,1.68203 4.77674,5.10754 4.77674,5.10754l2.00112,62.99775z" fill="#434253" stroke="#000000" stroke-width="2.5"/><path d="M173.95829,281.71568l-3.40139,0.00403c0,0 -0.38295,-0.97517 -0.93311,-6.24976c-0.0985,-0.94441 0.51439,-2.2989 0.40641,-3.33488c-0.98271,-9.42766 -3.02346,-24.48823 -3.75529,-31.64789c-1.75097,-17.13039 -2.93073,-35.27697 -2.93073,-35.27697l2.10035,1.22928c0,0 0.68243,4.4565 1.18057,11.43244c0.37139,5.20091 -0.156,9.59191 -0.00092,14.70459c0.02033,0.67016 0.58138,9.14123 2.06477,19.00203c2.07514,13.79446 5.26935,30.13713 5.26935,30.13713z" fill="#000000" stroke="none" stroke-width="0"/></g><g stroke="#000000" stroke-width="1.5"><path d="M134.70169,263.47988c0.80273,-8.24574 8.53818,-15.34698 15.24933,-14.75062c6.70001,0.59537 12.69899,5.91843 12.54261,16.73861c-0.14037,9.71211 -6.96134,15.73687 -14.9112,14.96294c-7.94986,-0.77392 -13.82187,-7.2835 -12.88074,-16.95092z" fill="#2c262f"/><path d="M152.76465,263.29931c2.24227,0.21828 3.82645,2.55788 3.56101,5.28459c-0.26545,2.72671 -1.71376,4.28351 -3.95603,4.06523c-2.24227,-0.21829 -3.89681,-2.63834 -3.63137,-5.36505c0.26544,-2.72671 1.78413,-4.20306 4.0264,-3.98478z" data-paper-data="{&quot;index&quot;:null}" fill="#1b171c"/></g><g stroke="#000000" stroke-width="1.5"><path d="M130.43973,229.68962c0.47898,-8.27087 7.9378,-15.79851 14.65956,-15.33689c6.72423,0.46179 12.92117,5.41624 13.18893,16.23424c0.24034,9.71016 -6.33929,15.99758 -14.31338,15.53579c-7.97409,-0.46179 -14.09668,-6.73625 -13.53512,-16.43313z" fill="#2c262f"/><path d="M152.24708,233.94235c-0.15839,2.73501 -1.54458,4.34738 -3.79368,4.21713c-2.2491,-0.13025 -3.99721,-2.48361 -3.83882,-5.21863c0.15839,-2.73501 1.61804,-4.26975 3.86714,-4.1395c2.2491,0.13025 3.92375,2.40598 3.76536,5.141z" data-paper-data="{&quot;index&quot;:null}" fill="#1b171c"/></g></g><g stroke="#000000"><g fill="#434253"><path d="M302.9364,282.15585c0,0 -39.39406,0.31655 -59.64769,0.31655c-21.72904,0 -66.6118,-0.31655 -66.6118,-0.31655c0,0 -2.38216,-40.33861 -2.16309,-60.75635c0.20152,-18.78125 2.16309,-54.08575 2.16309,-54.08575c0,0 42.82931,-1.2662 64.39595,-1.2662c21.14461,0 59.33114,1.58275 59.33114,1.58275c0,0 4.66352,44.84767 4.63123,67.07726c-0.03994,25.54257 -2.09882,47.44828 -2.09882,47.44828z" stroke-width="2.5"/><path d="M182.62638,273.74785c1.29409,0 2.34316,0.94416 2.34316,2.10884c0,1.16468 -1.04906,2.10884 -2.34316,2.10884c-1.29409,0 -2.34316,-0.94416 -2.34316,-2.10884c0,-1.16468 1.04906,-2.10884 2.34316,-2.10884z" stroke-width="2"/><path d="M296.08664,273.11069c1.29409,0 2.34316,0.94416 2.34316,2.10884c0,1.16468 -1.04907,2.10884 -2.34316,2.10884c-1.29409,0 -2.34316,-0.94416 -2.34316,-2.10884c0,-1.16468 1.04907,-2.10884 2.34316,-2.10884z" stroke-width="2"/><path d="M291.83152,175.44764c-0.48529,-1.12251 0.08425,-2.44878 1.27209,-2.9623c1.18785,-0.51352 2.54417,-0.01985 3.02946,1.10266c0.48528,1.12251 -0.08426,2.44879 -1.2721,2.96231c-1.18785,0.51352 -2.54417,0.01984 -3.02946,-1.10267z" stroke-width="2"/><path d="M180.91759,172.0591c1.18784,-0.51352 2.54418,-0.01985 3.02946,1.10266c0.48528,1.12251 -0.08426,2.44879 -1.2721,2.96231c-1.18784,0.51352 -2.54417,0.01984 -3.02945,-1.10267c-0.48528,-1.12251 0.08425,-2.44878 1.27209,-2.9623z" stroke-width="2"/></g><g><path d="M187.36314,208.89736c-2.36044,-6.40232 -2.14847,-24.22034 1.17777,-27.70117c8.80798,-9.21732 26.01104,-9.48636 48.15555,-9.48636c20.7312,0 40.80646,1.21551 50.19223,9.11804c4.42593,3.72649 4.09175,24.72433 0.61728,30.38921c-5.21713,8.50616 -20.51325,11.67052 -51.0204,11.67052c-30.50715,0 -45.72795,-4.44989 -49.12243,-13.65691z" fill="#434253" stroke-width="2"/><path d="M191.46434,207.31702c-2.1792,-5.67588 -1.98352,-21.47217 1.08734,-24.55804c8.13172,-8.17147 24.01396,-7.77733 44.45825,-7.77733c19.1395,0 37.67343,0.44494 46.33857,7.45081c4.08612,3.30367 3.77759,21.91897 0.56988,26.94108c-4.81657,7.54101 -18.93828,9.50278 -47.10314,9.50278c-28.16487,0 -42.21704,-3.39695 -45.3509,-11.55929z" fill="#2c262f" stroke-width="1.5"/><path d="M216.73027,204.30875c-0.84859,-2.4182 -0.77238,-9.14817 0.42343,-10.4629c3.16654,-3.48144 9.35117,-4.21571 17.31229,-4.21571c7.45303,0 14.67023,1.09175 18.04449,4.07659c1.59116,1.40752 1.47102,9.33853 0.22192,11.47819c-1.8756,3.21283 -7.37467,4.61891 -18.34223,4.61891c-10.96755,0 -16.43956,-1.85087 -17.65989,-5.32841z" fill="#1b171c" stroke-width="1.5"/></g><g><path d="M187.36314,264.28153c-2.36044,-6.40232 -2.14847,-24.22034 1.17777,-27.70116c8.80798,-9.21732 26.01104,-9.48637 48.15555,-9.48637c20.7312,0 40.80646,1.21551 50.19223,9.11804c4.42593,3.7265 4.09175,24.72433 0.61728,30.38921c-5.21713,8.50616 -20.51325,11.67052 -51.0204,11.67052c-30.50715,0 -45.72795,-4.4499 -49.12243,-13.65692z" fill="#434253" stroke-width="2"/><path d="M191.46434,262.70117c-2.1792,-5.67588 -1.98352,-21.47217 1.08734,-24.55804c8.13172,-8.17147 24.01396,-7.77734 44.45825,-7.77734c19.1395,0 37.67343,0.44494 46.33857,7.45081c4.08612,3.30367 3.77759,21.91898 0.56988,26.94109c-4.81657,7.54101 -18.93828,9.50278 -47.10314,9.50278c-28.16487,0 -42.21704,-3.39695 -45.3509,-11.55929z" fill="#2c262f" stroke-width="1.5"/><path d="M216.73027,259.69291c-0.84859,-2.41819 -0.77238,-9.14816 0.42343,-10.46289c3.16654,-3.48144 9.35117,-4.21571 17.31229,-4.21571c7.45303,0 14.67023,1.09175 18.04449,4.07659c1.59116,1.40752 1.47102,9.33852 0.22192,11.47818c-1.8756,3.21283 -7.37467,4.61891 -18.34223,4.61891c-10.96755,0 -16.43956,-1.85087 -17.65989,-5.32842z" fill="#1b171c" stroke-width="1.5"/></g></g></g><path d="M247.64545,145.31172l-6.4,-17.3l6.1,-3.1c0,0 4.06032,1.97305 5.10153,3.81235c0.73268,1.29428 1.87972,3.39995 2.9215,6.27931c0.45017,1.24425 0.51804,3.03297 0.99395,4.56313c1.03664,3.33308 5.1858,6.17585 6.77721,9.39747c0.7268,1.47131 1.31005,2.774 1.22277,4.36513c-0.058,1.0576 -0.18898,2.46591 -1.58259,3.3242c-2.36673,1.45762 -6.33438,-0.54158 -6.33438,-0.54158z" data-paper-data="{&quot;index&quot;:null}" fill="#fb95a9" stroke="#000000" stroke-width="2"/><g data-paper-data="{&quot;index&quot;:null}"><path d="M229.73004,126.62588c2.41131,-2.95149 10.53162,-1.45987 12.59919,2.66227c0.26008,0.51854 1.70637,0.53267 5.40284,2.18163c0.86997,0.38809 5.3323,2.85511 7.98427,6.04894c1.26983,1.52929 2.1246,3.99593 1.97118,5.03194c-0.22905,2.80784 -2.67033,5.18657 -4.85989,7.14774c-2.87249,2.57284 1.75248,7.33006 -2.40533,7.33006c-3.03121,0 -16.54137,0.60747 -18.69314,-0.7284c-1.28409,-0.79719 -0.53199,-7.61244 -0.88049,-9.01861c-0.48674,-1.96396 -4.99822,-4.40189 -4.99822,-6.61256c0,-2.58633 2.29137,-12.099 3.87959,-14.04301z" fill="#ee1536" stroke="#000000" stroke-width="2"/><path d="M245.84203,146.815c0,-3.14019 3.56399,-6.94934 7.26523,-7.10728c3.22449,-0.13759 3.97211,2.15654 3.0535,5.15937c-1.10558,3.61402 -4.40634,5.42259 -7.63376,5.42259c-0.06272,0 2.08362,-1.58996 2.84464,-0.28992c1.01358,1.73146 0.66979,6.51156 0.03616,6.86773c-2.98614,1.67855 -13.402,-0.74155 -16.31172,-0.67209c-0.60085,0.01435 -2.90823,0.59035 -3.45604,-1.26733c-0.44915,-1.5231 0.38106,-5.65028 0.34354,-5.65555c-0.60286,-0.08461 -1.36799,-4.06688 -1.36799,-4.06688c0,0 -2.86476,-2.27685 -2.9505,-2.85725c-0.15338,-1.03828 2.10836,-2.8435 2.10836,-2.8435c0,0 1.25189,1.00644 1.97555,1.57762c0.66583,0.52553 1.57561,2.98741 1.57561,2.98741c0,0 4.12841,-5.5717 8.29185,-4.21031c5.58397,1.82588 4.22558,7.21129 4.22558,6.95539z" fill="#9a1652" stroke="none" stroke-width="0"/><path d="M242.65554,147.43413c2.60911,-3.4977 3.97621,-4.88348 3.97621,-4.88348c0,0 0.91108,2.32297 -0.66029,6.58239c-1.10683,2.43172 -6.57436,2.10729 -6.57436,2.10729c0,0 1.47616,-2.22127 3.25844,-3.8062z" fill="#000000" stroke="none" stroke-width="0"/></g><g data-paper-data="{&quot;index&quot;:null}"><path d="M235.804,137.87137c-1.5532,4.91888 -10.61758,15.74068 -10.61758,15.74068c0,0 -1.7672,2.87625 -5.42797,2.34662c-0.87527,-0.12663 -2.16391,-1.39261 -2.76099,-2.79738c-0.52262,-1.22957 -0.28038,-2.29458 -0.01106,-3.02074c1.06802,-2.87968 3.1529,-6.50006 5.06124,-11.1168c0.66661,-1.61269 1.75193,-3.06749 2.52469,-4.60841c1.97789,-3.94401 3.75853,-7.52697 4.92535,-8.91779c0.41861,-0.49898 0.81104,-1.51489 1.09802,-1.43327c1.26104,0.35865 0.50313,0.74797 1.7545,2.39907c2.13436,2.81613 4.69603,7.47398 3.45381,11.40802z" fill="#ffd5d5" stroke="#000000" stroke-width="2"/><path d="M223.80445,154.01704c0,0 -1.69989,1.34767 -3.74519,0.97195c-1.41107,-0.25921 -2.36928,-1.5042 -2.55579,-2.90728c-0.44885,-3.37675 4.75005,-10.49477 4.75005,-10.49477l4.44052,8.78979l-2.88959,3.64032z" fill="#fb95a9" stroke="none" stroke-width="0"/></g><g data-paper-data="{&quot;index&quot;:null}"><g><path d="M254.83462,113.58078c-0.02317,-3.61026 2.3622,-6.55193 5.32788,-6.57041c2.96568,-0.01848 5.38861,2.89323 5.41178,6.50348c0.02317,3.61025 -2.36222,6.55193 -5.3279,6.57041c-2.96568,0.01849 -5.38861,-2.89322 -5.41178,-6.50347z" fill="#fb95a9" stroke="#000000" stroke-width="2"/><path d="M240.98636,129.38042c-25.01981,-3.48633 -27.72278,-6.27853 -29.47931,-16.21487c-1.75653,-9.93635 12.90852,-11.0045 27.17345,-13.45348c14.26493,-2.449 21.62774,-4.31998 23.38427,5.61639c0.28653,1.62092 -1.20407,11.59521 -1.20407,11.59521c0,0 7.90196,3.95263 7.12124,7.89003c-0.85736,4.24989 -17.53124,5.88551 -26.99558,4.56674z" fill="#ffd5d5" stroke="#000000" stroke-width="2"/><path d="M213.46243,106.08909c0,0 26.42621,-8.50449 32.53387,-9.55304c11.57236,-1.98674 14.38412,4.10109 15.2025,8.73053c0.35744,2.02202 -1.16639,10.32092 -1.16639,10.32092c0,0 -3.98002,-5.18777 -6.12036,-6.42847c-2.43784,-1.41316 -7.52325,-1.63615 -7.52325,-1.63615l-5.58272,6.93229l-6.81227,-7.12725c0,0 -2.81591,5.49685 -5.07815,7.74113c-2.4121,2.39293 -8.97375,6.19915 -8.97375,6.19915l-4.02434,-0.22848c0,0 -3.14196,-4.84446 -3.55904,-7.38433c-0.40065,-2.43965 1.1039,-7.56634 1.1039,-7.56634z" fill="#fb95a9" stroke="none" stroke-width="0"/><path d="M205.28394,116.65649c-0.54893,-3.1051 -0.7493,-3.76839 0.94553,-5.53393c1.35876,-1.41543 8.09431,2.25719 8.64323,5.36231c0.54893,3.10511 0.10956,6.19542 -1.83827,6.52982c-1.94784,0.33439 -7.09315,-2.63974 -7.7505,-6.35821z" fill="#ffd5d5" stroke="#000000" stroke-width="2.5"/><path d="M212.99354,122.17909c-0.69517,0.11932 -3.45832,-0.88152 -4.74797,-2.37606c-0.80513,-0.93303 -1.33816,-2.1766 -1.6811,-3.26348c-0.42053,-1.33288 0.50417,-2.1089 1.84894,-1.60034c2.24921,0.85059 5.29681,2.2252 5.52168,3.49713c0.3593,2.03244 0.71984,3.45751 -0.94154,3.74273z" fill="#fb95a9" stroke="none" stroke-width="0"/><path d="M208.07055,114.28225c-0.1098,-0.62103 6.47825,5.20737 6.47825,5.20737l-0.58553,2.73366c0,0 -5.78294,-7.32001 -5.89272,-7.94106z" fill="#000000" stroke="none" stroke-width="0"/><path d="M212.11803,123.18638c-0.54462,-1.76174 0.91278,-3.45553 2.96796,-4.00998c2.05515,-0.55443 4.30241,-1.34143 5.44979,1.61557c0.20197,0.52053 1.43143,3.9434 0.03326,5.78603c-0.21794,0.28721 -1.50125,1.41494 -2.88921,1.69868c-1.91678,0.39186 -3.14164,0.03957 -3.14164,0.03957c0,0 2.06909,-1.88865 1.83963,-2.01668c-0.73181,-0.40831 -3.80223,-1.63296 -4.25981,-3.11316z" fill="#6d0f0a" stroke="#000000" stroke-width="2"/><path d="M199.17522,122.7644c-7.49838,-3.3178 -10.30901,-7.08113 -10.30901,-7.08113c0,0 6.62295,-0.97875 8.66965,-3.26369c2.06305,-2.30322 3.4432,-11.72783 3.4432,-11.72783c0,0 23.07629,-1.68766 32.74086,-3.34687c8.94929,-1.53638 16.80493,-2.86085 22.56017,-3.82372c6.25536,-1.04654 12.0409,1.11541 13.43273,5.82408c0.34446,1.16526 0.8074,2.73472 1.01059,4.07654c0.92875,6.13313 -0.77705,11.93165 -0.77705,11.93165c0,0 -5.96699,-6.90196 -8.83372,-9.87621c-3.5455,-3.67845 -9.1302,-6.73332 -9.1302,-6.73332c0,0 -0.45861,3.92242 -1.79112,6.56067c-1.37938,2.73103 -4.54086,2.95391 -4.54086,2.95391c0,0 -0.58814,-3.08676 -1.35147,-4.45265c-0.70264,-1.25735 -2.00496,-3.6285 -1.9385,-2.47464c0.06684,1.16072 -0.16191,3.96581 -0.23315,5.34107c-0.18442,3.55946 -0.6909,4.09352 -0.6909,4.09352c0,0 -2.19246,-2.94142 -4.37703,-5.67746c-1.85745,-2.32636 -4.58677,-3.44859 -4.58677,-3.44859c0,0 -4.14478,4.96671 -6.59351,7.06415c-2.21205,1.89473 -7.0851,4.90959 -7.0851,4.90959c0,0 3.14438,7.6784 -0.88511,7.77088c-2.84791,0.06536 -4.12597,-0.2975 -5.7524,-1.31026c-0.97505,-0.60713 -1.58602,-3.50205 -1.58602,-3.50205l2.13738,0.28744c0,0 -1.94484,-5.95227 -3.31536,-6.15c-2.41316,-0.34815 -0.68135,-0.8575 -4.11903,-0.1802c-0.50038,0.09859 -1.51483,3.22989 -0.96481,5.97598c0.5905,2.94821 2.76811,5.52174 2.76811,5.52174c0,0 -4.23976,2.35767 -7.90153,0.73743z" fill="#6d0f0a" stroke="#000000" stroke-width="1.5"/><path d="M245.15137,98.39241c-0.9661,0.16586 -2.40029,-0.73219 -4.37084,-0.53539c-2.13489,0.2132 -4.81504,1.52322 -5.92308,1.75202c-16.003,3.30483 -33.73936,7.38806 -33.73936,7.38806c0,0 0.34566,-2.63623 0.21454,-3.88416c-0.14006,-1.33325 -0.71865,-3.92979 -0.71865,-3.92979c0,0 22.13767,-1.0084 35.10361,-3.23437c8.31984,-1.42835 17.02844,-3.26765 22.6305,-3.44021c5.9318,-0.18273 8.95448,1.27003 8.95448,1.27003l2.01779,6.55813l-2.61014,-0.24551l-7.05375,-5.288c0,0 -10.07353,2.82836 -14.50508,3.58917z" fill="#6d0f0a" stroke="none" stroke-width="0"/><path d="M239.16563,126.33609c-1.24136,0.04083 -1.93223,-1.05858 -2.49747,-2.13214c-0.63766,-1.21115 -1.06376,-2.42701 -0.96554,-2.64495c0.15112,-0.33534 9.0219,0.64053 9.10426,1.01746c0.07859,0.35963 -1.10857,1.34848 -2.69945,2.33477c-0.89637,0.55568 -1.62778,1.44437 -2.69805,1.47955z" fill="#ef3d61" stroke="#000000" stroke-width="1.5"/><path d="M244.01147,114.60293c-0.33333,-1.88563 -0.31923,-5.21196 2.42309,-6.7773c0.49236,-0.28106 1.70305,-0.377 3.07746,-0.15721c1.40873,0.22527 2.64439,0.78703 3.00006,0.91946c0.70267,0.26164 1.89708,-0.24057 1.89708,-0.24057c0,0 1.13988,-0.77827 1.76375,-1.36124c0.52375,-0.4894 1.64513,-2.39585 1.64513,-2.39585c0,0 0.16606,1.47134 -0.7772,3.2015c-0.38868,0.71296 -1.53437,2.03325 -1.53437,2.03325c0,0 1.0371,-0.03026 2.16504,-0.40987c0.84726,-0.28512 2.82944,-1.85676 2.82944,-1.85676c0,0 -0.73322,1.80198 -1.30983,2.6076c-0.39817,0.5563 -1.47285,1.31645 -1.47285,1.31645l-0.07119,1.02325c0,0 -1.7408,-1.59008 -2.58443,-1.88059c-0.68213,-0.2349 -2.24266,0.16738 -2.24266,0.16738c0,0 0.34783,4.22665 -1.15821,6.67887c-0.23777,0.38715 -1.2157,-0.16784 -2.49528,0.29557c-2.01955,0.73139 -2.34904,1.29751 -2.73071,1.16943c-1.5866,-0.53244 -2.03318,-2.12108 -2.42427,-4.33338z" fill="#000000" stroke="none" stroke-width="0"/><path d="M221.16612,107.72531c0,0 1.77775,1.45766 2.7218,1.90899c0.86884,0.41537 2.2303,0.26023 2.2303,0.26023c0,0 -0.43139,-0.68665 -0.86507,-1.40318c-0.45231,-0.74731 -1.287,-2.93901 -1.287,-2.93901c0,0 1.49003,1.54965 2.21978,2.05959c0.69787,0.48768 2.31087,1.10501 2.31087,1.10501c0,0 2.54646,-0.4855 4.22536,-0.77372c4.39489,-0.7545 7.78848,1.82267 7.78848,1.82267c0,0 -2.50439,-0.25154 -3.37471,-0.30927c-0.6182,-0.04104 -1.33038,0.13172 -1.33038,0.13172c0,0 0.4734,6.13064 -2.53976,8.88481c-0.3616,0.33052 -1.46766,-1.20981 -3.48652,-1.55707c-2.10301,-0.36172 -2.83151,0.30465 -3.20908,-0.42712c-0.9531,-1.84724 -0.44435,-3.79516 -0.59644,-3.99196c-0.19084,-0.24693 -1.21499,-0.96124 -1.21499,-0.96124c0,0 -1.5554,-0.63859 -2.12405,-1.22853c-0.61861,-0.64179 -1.46852,-2.58191 -1.46852,-2.58191z" fill="#000000" stroke="none" stroke-width="0"/></g><path d="M268.87609,98.4265c0,0 -0.79185,-2.60996 -1.28965,-3.90564c-0.47604,-1.23899 -1.63491,-3.70594 -1.63491,-3.70594c0,0 1.16719,0.50757 2.12575,2.68719c0.62647,1.42453 2.18861,5.13035 2.18861,5.13035z" fill="#000000" stroke="none" stroke-width="0"/></g><g data-paper-data="{&quot;index&quot;:null}"><path d="M261.11889,187.76564c-1.11619,-0.56562 -2.87901,-1.66176 -4.80608,-5.19782c-1.15836,-2.12552 -1.79383,-4.22984 -1.08683,-4.90009c2.18761,-2.07389 13.0328,-3.9455 13.13647,-3.95304c6.29862,-0.45845 15.14848,3.61151 15.34604,6.32584c0.15667,2.15245 -5.2776,5.48394 -11.4816,5.72631c-9.17513,0.35843 -12.90203,-3.50223 -13.11344,-3.70559c-0.83916,-0.80718 1.05691,1.47696 1.7882,2.38787c0.83814,1.04403 2.22532,1.71396 2.119,2.80134c-0.1215,1.24258 -0.97631,0.98412 -1.90175,0.51517z" fill="#ee1536" stroke="#000000" stroke-width="1.5"/><path d="M224.09972,167.52586c-0.26108,-3.58705 1.38393,-6.91258 4.32859,-9.46652c3.91143,-3.39243 9.91625,-5.50574 14.84641,-5.86459c5.30591,-0.3862 12.32083,-1.09666 14.48864,1.04371c0.58842,0.58097 0.35947,3.34018 0.9019,5.91397c0.31176,1.47927 1.38114,5.04138 2.64397,7.88086c0.91903,2.06645 2.01252,4.42889 3.16547,4.65606c4.78059,0.94197 11.58335,3.00592 10.09162,5.67416c-1.13357,2.02761 -8.53241,2.80065 -14.56681,1.4356c-5.43145,-1.22864 -9.49127,-4.49743 -11.46513,-4.84011c-3.34857,-0.58135 -10.16463,2.17778 -13.54844,1.95667c-2.20486,-0.14407 -4.16633,-0.72616 -5.65484,-1.39001c-3.68905,-1.64525 -5.06982,-4.78073 -5.23134,-6.99981z" fill="#ffd5d5" stroke="#000000" stroke-width="1.5"/><path d="M253.99271,161.63797c0,0 1.46071,-1.24594 2.06743,-1.99546c0.55007,-0.67954 1.41962,-2.3123 1.41962,-2.3123c0,0 0.65044,2.39102 0.9602,3.61517c0.28006,1.10677 0.81822,3.41315 0.81822,3.41315c0,0 -2.20022,-0.40914 -3.15114,-0.90046c-0.7621,-0.39374 -2.11432,-1.82009 -2.11432,-1.82009z" fill="#fb95a9" stroke="none" stroke-width="0"/><path d="M275.85331,177.05355c0.14355,-0.36533 1.6609,-0.2577 3.00044,0.26868c1.33955,0.52638 2.85046,2.16 2.7069,2.52533c-0.14356,0.36533 -1.5951,-1.01395 -2.93464,-1.54033c-1.33954,-0.52637 -2.91625,-0.88835 -2.77269,-1.25368z" fill="#fc9ea5" stroke="none" stroke-width="0"/></g><g data-paper-data="{&quot;index&quot;:null}"><path d="M231.05535,185.88967c2.44868,-6.39457 7.56382,-8.2412 12.24774,-6.44758c4.68392,1.79362 6.66562,7.80274 4.21693,14.19731c-2.44868,6.39458 -11.04502,12.05387 -14.53505,10.51209c-3.45546,-1.52651 -4.55116,-11.53708 -2.10247,-17.93165z" fill="#ee1536" stroke="#000000" stroke-width="1.5"/><path d="M233.51499,183.07491c0,0 1.96118,-2.89085 4.2526,-3.57013c0.7686,-0.22784 4.08982,0.1757 6.59473,1.76167c1.70254,1.07794 2.84959,3.15209 3.2546,4.19764c0.6976,1.80088 0.16594,3.75928 0.16594,3.75928c0,0 -1.79314,1.69293 -5.41247,1.62543c-1.90325,-0.0355 -4.64881,-2.0684 -6.39348,-4.15139c-1.57308,-1.87812 -2.46193,-3.62249 -2.46193,-3.62249z" fill="#9a1652" stroke="none" stroke-width="0"/><path d="M237.81915,173.22088c0.44821,-7.09393 2.05251,-10.87695 10.46747,-10.70455c4.92012,0.1008 6.61047,5.7653 6.32422,8.17426c-0.95772,8.05964 -9.52136,15.27772 -9.52136,15.27772c0,0 1.50466,7.99099 -6.79691,9.12493c-4.05948,0.55451 -4.19165,-6.45896 -3.54399,-8.17642c1.17581,-3.11796 3.3468,-4.96664 3.3468,-4.96664c0,0 -0.47542,-5.57711 -0.27625,-8.7293z" fill="#ffd5d5" stroke="#000000" stroke-width="1.5"/><path d="M244.97202,174.4713c-0.9954,-0.62518 -1.23563,-1.59385 -1.58116,-2.55325c-0.41695,-1.15768 -0.74385,-4.06832 -0.74385,-4.06832c0,0 1.9091,1.40893 2.98781,2.00715c1.06153,0.58868 3.59458,1.39905 3.59458,1.39905c0,0 -1.51673,2.43331 -2.22207,2.93342c-0.65553,0.4648 -1.03989,0.9071 -2.0353,0.28194z" fill="#fb95a9" stroke="none" stroke-width="0"/><path d="M236.13897,201.26961c-0.64213,-0.02336 1.49604,-1.07288 2.31351,-1.56739c0.90679,-0.54853 2.79029,-2.41766 2.8326,-2.04928c0.08556,0.74488 -1.41402,2.19843 -2.24254,2.69962c-0.89922,0.54397 -1.8135,0.95672 -2.90356,0.91707z" fill="#fc9ea5" stroke="none" stroke-width="0"/></g><g data-paper-data="{&quot;index&quot;:null}"><path d="M232.42246,150.37591c-0.63147,0.9192 -7.62661,1.99997 -8.06213,2.00774c-1.89543,0.03378 -3.37909,-0.08037 -4.67209,-0.60418c-0.68009,-0.27551 -1.26472,-0.59859 -1.71798,-1.2156c-1.4088,-1.91772 -1.74661,-3.58687 -1.61616,-5.22611c0.13552,-1.70299 0.60939,-3.18565 1.47993,-4.30238c0.69112,-0.88656 1.93009,-1.86107 3.34073,-2.24959c1.39877,-0.38525 2.97092,-0.18823 3.27241,-0.18821c0.31376,0.00002 0.42107,0.63866 0.55129,0.64494c0.22117,0.01066 -0.16594,-0.69135 0.29648,-0.6415c0.75965,0.08188 1.98027,0.23183 2.55817,0.50261c4.69202,2.19852 5.32134,5.86282 5.32134,5.86282c0,0 0.14828,4.09895 -0.752,5.40946z" fill="#ffd5d5" stroke="#000000" stroke-width="1.5"/><path d="M217.17445,147.01194c0,-0.26501 -0.06981,-1.15922 0.03578,-1.96452c0.12654,-0.96505 0.4323,-1.83874 0.4323,-1.83874c0,0 0.5264,0.64833 1.11348,1.55255c0.7237,1.11465 1.79285,2.52366 2.95944,2.44709c3.61409,-0.23721 3.32264,-4.15093 3.32264,-4.15093c0,0 0.84592,0.34795 1.60345,1.00011c0.56515,0.48653 1.00046,1.30363 1.43264,1.4039c0.85659,0.19873 2.373,-1.35856 2.373,-1.35856c0,0 0.89161,-0.85307 1.11578,-0.46213c0.76802,1.33937 1.51117,5.56677 -0.51741,7.09345c-0.54999,0.41391 -5.0941,0.69748 -5.82563,0.77777c-1.00779,0.11061 -3.85633,0.50038 -5.93151,-0.75364c-0.84307,-0.61832 -1.26395,-1.32798 -1.57312,-1.88014c-0.57313,-1.02357 -0.54083,-1.72738 -0.54083,-1.86623z" fill="#fb95a9" stroke="none" stroke-width="0"/><path d="M226.87603,145.61363c0.04715,1.64397 -1.70158,2.89829 -1.70158,2.89829c0,0 0.30856,-1.82162 0.26811,-2.71994c-0.07371,-1.63709 -0.90447,-2.91643 -0.90447,-2.91643c0,0 2.26204,0.53072 2.33794,2.73808z" fill="#000000" stroke="none" stroke-width="0"/><path d="M226.71992,150.69373c0,0 -5.37715,0.71194 -7.70727,-0.75897c-1.98582,-1.25357 -1.01213,-4.39209 -0.6953,-4.98254c0.13908,-0.25919 0.43519,-0.5023 0.71965,-0.69169c0.35029,-0.23322 0.57653,-0.07098 0.46689,0.40434c-0.26823,1.16291 -0.55588,3.29146 0.64749,4.15001c1.62371,1.15845 6.47762,0.3334 6.47762,0.3334l0.09091,1.54546z" fill="#000000" stroke="none" stroke-width="0"/><path d="M235.8289,146.85794c0.25787,1.26217 0.05431,4.32515 -1.74592,6.10114c-1.16458,1.1489 -2.85197,1.80767 -6.00487,0.92858c-1.14612,-0.31956 -1.4465,-1.39448 -1.45467,-2.55752c-0.00588,-0.83589 0.05129,-1.7173 0.46463,-2.39652c1.01789,-1.67264 3.72277,-2.4217 3.72277,-2.4217c0,0 0.47348,-3.22718 -0.50863,-5.4682c-0.53612,-1.2233 -2.49137,-2.5318 -2.49137,-2.5318c0,0 0.38211,-2.77049 0.2245,-5.71984c-0.1515,-2.83493 -0.87083,-5.82129 0.45622,-7.34409c0.5079,-0.58283 1.35783,-0.74921 2.22836,-0.75425c1.44995,-0.0084 2.72125,1.28188 3.53967,3.67196c0.51606,1.50708 0.91732,4.23734 0.81396,6.50906c-0.13103,2.87964 -0.84762,5.22681 -0.68917,7.84479c0.10413,1.72056 1.17356,2.81229 1.4445,4.13839z" fill="#ffd5d5" stroke="#000000" stroke-width="1.5"/><path d="M235.00003,147.0417c0,0 0.15871,0.73676 0.12679,1.82729c-0.03137,1.07183 -0.32173,2.4854 -2.01081,3.87707c-1.22874,1.01239 -4.90427,0.4142 -5.39197,-0.00593c-1.40002,-1.20608 0.35933,-3.94844 0.35933,-3.94844c0,0 0.57155,1.0246 2.44942,0.88429c2.23954,-0.16733 4.46724,-2.63429 4.46724,-2.63429z" fill="#fb96aa" stroke="none" stroke-width="0"/><path d="M230.02131,153.84121c-0.57188,-0.04289 -1.77129,-0.38285 -1.77129,-0.38285c0,0 0.75223,-3.62654 2.875,-2.70834c1.33049,0.57551 0.45834,2.95834 0.45834,2.95834c0,0 -1.02501,0.17313 -1.56205,0.13285z" fill="#7f1743" stroke="#000000" stroke-width="1"/></g><g data-paper-data="{&quot;index&quot;:null}"><path d="M262.83338,153.70837c0,0 -4.85352,2.02078 -8.51435,0.11082c-0.94795,-0.49457 -2.11574,-1.01948 -2.71436,-2.18673c-0.48609,-0.94783 -0.92371,-1.87151 -1.16502,-3.19349c-0.55732,-3.05325 1.59268,-5.01281 2.03618,-8.73349c0.47314,-3.96933 -0.38945,-9.77135 0.02059,-12.74761c0.28019,-2.03377 1.52104,-2.03734 2.24998,-2.04184c2.82778,-0.01744 4.04683,5.4563 4.22054,6.25258c0.61992,2.8417 -0.5505,8.78384 -0.5505,8.78384c0,0 2.68168,-0.26674 4.95829,0.7463c0.11076,0.04929 -0.22705,0.48272 0.09525,0.66586c0.30663,0.17425 0.35732,-0.40177 0.45866,-0.34378c2.67021,1.5279 4.40002,4.58294 4.36115,6.44359c-0.02422,1.15936 -0.13888,1.96076 -0.27739,2.59808c-0.06866,0.3159 -0.57993,0.90267 -0.92765,1.5015c-0.28103,0.48397 -0.39742,1.00472 -0.53846,1.17097c-0.83224,0.98096 -1.9231,1.0762 -2.70677,1.04859c-0.5902,-0.02079 -1.00616,-0.0752 -1.00616,-0.0752z" fill="#ffd5d5" stroke="#000000" stroke-width="1.5"/><path d="M267.58334,147.2917c0,0 0.04861,1.4956 -0.39907,3.01485c-0.15997,0.54288 -0.3319,0.83879 -0.73014,1.32055c-0.33232,0.40202 -1.09686,1.25017 -1.72508,1.32733c-0.69984,0.08596 -1.43733,0.20911 -1.88731,0.1968c-0.77922,-0.02133 -1.53556,0.24925 -2.38668,0.44894c-1.26083,0.29582 -2.79678,0.53564 -3.94851,0.24858c-1.36153,-0.33935 -2.66034,-1.06137 -3.52512,-1.71477c-0.39892,-0.30142 -1.46319,-2.46043 -1.46319,-2.46043c0,0 2.08537,0.97356 4.07629,1.29989c1.86917,0.30637 3.87546,0.05642 4.62874,-0.12568c0.98974,-0.23926 0.86007,-1.72273 0.86007,-1.72273l-4.35776,-1.90715l0.66876,-5.31916l1.60568,-0.94035c0,0 -0.46349,4.05664 0.52285,5.16462c0.35268,0.39617 1.2398,0.32441 1.8989,0.04097c0.78916,-0.33938 1.35982,-0.90996 1.76148,-0.36643c0.77862,1.05364 0.85474,2.36805 1.36017,2.73741c0.95459,0.69758 3.03994,-1.24325 3.03994,-1.24325z" fill="#fb95a9" stroke="none" stroke-width="0"/><path d="M265.50004,142.45834c0,0 -0.67422,-0.0051 -1.46034,0.08734c-0.47316,0.05563 -0.75981,0.27585 -0.998,0.03766c-0.32388,-0.32387 -0.38913,-0.45885 -0.82021,-1.05775c-0.52317,-0.72685 -1.47146,-1.40058 -1.47146,-1.40058c0,0 2.13361,0.50682 3.03583,1.00304c0.72571,0.39914 1.71417,1.33029 1.71417,1.33029z" fill="#000000" stroke="none" stroke-width="0"/><path d="M267.08337,151.45835c0,0 -1.0717,0.54812 -2.45379,0.64902c-0.54018,0.03943 -1.39711,0.03233 -1.39711,0.03233l0.1591,1.30056l-2.0582,0.51809c0,0 1.18096,-2.42696 0.56969,-3.57027c-0.16758,-0.31343 -0.91809,-0.85319 -1.82782,-1.15526c-1.01392,-0.33668 -2.39228,-0.54249 -3.21513,-0.89077c-0.25334,-0.10723 -0.58129,-0.89884 -0.5043,-1.39319c0.1198,-0.76919 0.45006,-1.67925 0.95747,-1.65492c0.33369,0.016 -0.09174,1.66499 0.36756,1.76806c0.52743,0.11836 1.43152,0.07298 2.28249,0.29015c0.97917,0.24989 1.91502,0.7394 2.57337,0.43567c0.60922,-0.28106 -0.22123,-2.57109 0.89086,-2.19747c0.32824,0.11028 -0.12873,5.12827 0.20926,5.20022c0.56293,0.11984 1.42987,0.06211 2.16227,-0.24681c1.07199,-0.45217 1.78427,-1.25209 1.78427,-1.25209l-0.5,2.16667z" fill="#000000" stroke="none" stroke-width="0"/><path d="M258.91671,139.12501c0,0 -0.06436,1.17807 -0.13105,2.42304c-0.06498,1.21295 -0.12793,2.49363 -0.45229,2.49363c-0.18535,0 -0.97796,-1.42883 -1.05709,-2.5908c-0.02615,-0.38401 0.11324,-0.76617 0.19862,-1.10334c0.16569,-0.65433 0.35847,-1.1392 0.35847,-1.1392l1.08333,-0.08333z" fill="#000000" stroke="none" stroke-width="0"/><path d="M262.41669,153.45834c0,0 -0.93063,0.56812 -1.49147,0.7733c-0.57756,0.21131 -1.92519,0.4767 -1.92519,0.4767c0,0 -0.18461,-3.16922 0.95052,-3.29694c1.58903,-0.17879 2.46615,2.04694 2.46615,2.04694z" fill="#7f1742" stroke="#000000" stroke-width="1"/></g></g></g></svg>