<svg version="1.1" xmlns="http://www.w3.org/2000/svg" xmlns:xlink="http://www.w3.org/1999/xlink" width="40.28169" height="40.28169" viewBox="0,0,40.28169,40.28169"><g transform="translate(-219.85915,-159.85916)"><g data-paper-data="{&quot;isPaintingLayer&quot;:true}" fill-rule="nonzero" stroke="none" stroke-linecap="butt" stroke-linejoin="miter" stroke-miterlimit="10" stroke-dasharray="" stroke-dashoffset="0" style="mix-blend-mode: normal"><path d="M230.67418,186.44012c0,-3.20778 0,-9.69863 0,-11.79775c0,-2.15576 1.2262,-3.96819 2.88222,-3.96819c2.13218,0 8.95593,0 12.19101,0c1.79472,0 3.57845,1.20648 3.57845,3.29403c0,2.04019 0,8.76828 0,12.02247c0,2.22116 -2.11971,3.33518 -3.80317,3.33518c-2.22967,0 -8.14173,0 -11.79775,0c-1.79828,0 -3.05076,-0.83731 -3.05076,-2.88574z" fill="#144963" stroke-width="0"/><path d="M219.85916,200.14086v-40.28169h40.28169v40.28169z" fill="none" stroke-width="0"/><text transform="translate(234.28,185.76875) scale(0.5,0.5)" font-size="40" xml:space="preserve" fill="#ffffff" fill-rule="nonzero" stroke="none" stroke-width="1" stroke-linecap="butt" stroke-linejoin="miter" stroke-miterlimit="10" stroke-dasharray="" stroke-dashoffset="0" font-family="Sans Serif" font-weight="normal" text-anchor="start" style="mix-blend-mode: normal"><tspan x="0" dy="0">+</tspan></text></g></g></svg>