<svg version="1.1" xmlns="http://www.w3.org/2000/svg" xmlns:xlink="http://www.w3.org/1999/xlink" width="234" height="234" viewBox="0,0,234,234"><g transform="translate(-123,-63)"><g data-paper-data="{&quot;isPaintingLayer&quot;:true}" fill-rule="nonzero" stroke-linejoin="miter" stroke-miterlimit="10" stroke-dasharray="" stroke-dashoffset="0" style="mix-blend-mode: normal"><path d="M123,297v-234h234v234z" data-paper-data="{&quot;index&quot;:null}" fill="none" stroke="none" stroke-width="0" stroke-linecap="butt"/><path d="M288.81714,268.33607c0,0 -24.76428,-5.90588 -24.34342,-8.36988c0.75884,-4.44277 5.35263,-13.8498 5.35263,-13.8498l3.17622,-8.35155l-1.5226,3.05251c0,0 -10.87998,-8.65071 -12.01998,-11.55945c-0.59893,-1.52817 4.2607,-8.09598 6.29239,-8.82362c4.55771,-1.63229 34.38032,11.19933 33.94439,14.94692c-2.37325,8.58643 -7.31676,26.78645 -7.31676,26.78645c0,0 -1.6648,6.92485 -3.56284,6.16843z" data-paper-data="{&quot;index&quot;:null}" fill="#4b4b4b" stroke="#000000" stroke-width="3" stroke-linecap="round"/><g><g><g data-paper-data="{&quot;origRot&quot;:0}" stroke="#000000" stroke-width="3" stroke-linecap="round"><path d="M296.0072,208.36901c1.20684,2.15612 -7.35074,5.02128 -7.35074,5.02128c0,0 -22.41693,8.20459 -32.98745,12.12403c-4.69203,0.99854 -24.85386,-32.75759 -23.3816,-38.37766c0.6563,-2.50526 8.34353,-9.11724 10.35842,-8.60237c3.83516,0.97997 16.22084,12.78549 16.22084,12.78549l-3.66905,2.19932l10.16783,-4.84252c0,0 11.31992,-6.66082 16.85067,-8.13192c3.0674,-0.81587 13.79103,27.82433 13.79103,27.82433z" data-paper-data="{&quot;origPos&quot;:null}" fill="#582700"/><path d="M286.67382,212.42958l-13.61273,-27.03484" fill="none"/><path d="M283.08254,214.43641l-13.87851,-26.90989" data-paper-data="{&quot;origPos&quot;:null}" fill="none"/></g><path d="M286.79077,213.06786l-2.60144,1.24264l-14.10312,-27.56925l2.60144,-1.24264z" fill="#ffffff" stroke="none" stroke-width="0" stroke-linecap="butt"/><path d="M255.47219,225.78203l-7.95492,-8.00682l-12.01814,-21.01894l-2.41125,-8.16687l1.58437,-4.89211l6.73953,-3.68956l1.34791,-0.73792l14.73756,11.48069l-2.5683,1.69349l1.02024,1.74133l12.28908,-5.86522l14.75709,26.70657l-26.30281,9.79976z" fill="#66c8ff" stroke="#000000" stroke-width="0.5" stroke-linecap="round"/></g><g fill="#fffc96" stroke="#000000" stroke-width="2" stroke-linecap="round"><path d="M261.83493,189.48284c0,0 2.08473,-4.55878 5.33314,-3.25163c5.19728,2.09138 -12.67644,35.25086 -18.20578,33.39189c-2.25915,-0.75954 -1.31661,-4.29031 -1.31661,-4.29031l2.15914,0.45578c0,0 4.76119,-5.40468 9.10771,-13.03652c4.2863,-7.52608 5.66506,-13.23926 5.66506,-13.23926z"/><path d="M251.78959,188.39264c0,0 -1.52299,-4.26607 1.17068,-4.41559c5.65438,-0.31382 16.81799,39.7494 11.44531,38.81424c-3.25379,-0.56634 -3.31395,-4.63312 -3.31395,-4.63312l1.59496,0.28879c0,0 -0.5642,-6.228 -3.24444,-15.25284c-2.68023,-9.02485 -6.12903,-14.70876 -6.12903,-14.70876z" data-paper-data="{&quot;index&quot;:null}"/></g></g><g stroke="#000000" stroke-linecap="round"><path d="M246.4703,179.7249c0,0 -29.29152,5.32305 -28.95428,-12.65459c0.12423,-6.62354 16.85865,-4.68711 16.85865,-4.68711z" data-paper-data="{&quot;origPos&quot;:null}" fill="#66c8ff" stroke-width="2"/><path d="M238.41286,167.87057c0,0 -16.4051,-2.23255 -16.17629,-2.84177c0.72552,-1.93158 12.88452,-1.12194 12.88452,-1.12194z" data-paper-data="{&quot;origPos&quot;:null}" fill="#0a0a0a" stroke-width="1"/></g><g data-paper-data="{&quot;index&quot;:null}"><path d="M240.88776,184.23607c0,0 1.50955,-14.28588 3.07086,-14.72509c4.68392,-1.31765 15.35665,0.34943 22.49467,0.8428c1.10347,0.07628 1.95442,13.65048 1.95442,13.65048l1.05449,30.66033c0,0 0.06292,14.94242 -1.14087,14.85922c-10.71578,-0.74069 -23.28181,-0.75777 -28.05173,-1.9273c-1.58996,-0.38984 -0.87363,-16.0771 -0.87363,-16.0771z" data-paper-data="{&quot;origPos&quot;:null}" fill="#66c8ff" stroke="#000000" stroke-width="3.5" stroke-linecap="round"/><path d="M260.5422,195.98442l0.06397,-2.08235c0.19901,-6.47843 0.39803,-12.95686 0.59704,-19.43528c0,0 0.09594,-3.12353 1.43003,-3.08254c1.33409,0.04098 1.23814,3.16451 1.23814,3.16451c-0.19901,6.47843 -0.46199,15.03921 -0.66101,21.51763c0,0 -0.09595,3.12353 -1.43004,3.08254c-1.33408,-0.04098 -1.23813,-3.16451 -1.23813,-3.16451z" fill="#ffffff" stroke="none" stroke-width="0.5" stroke-linecap="butt"/></g><path d="M237.64992,264.49315c0,0 -2.122,3.98356 -4.21924,5.18927c-1.60553,0.92302 -3.4642,0.24686 -5.16833,-0.49227c-4.6776,-2.02884 -7.65198,-6.13268 -13.89398,-10.93384c-1.70005,-1.30761 -0.67121,-4.46394 0.78722,-6.021c1.36408,-1.45634 3.82747,-3.90699 3.82747,-3.90699l23.53321,-24.03052c0,0 3.15173,-3.01492 5.04251,-2.53767c4.55333,1.14928 7.24938,5.06741 11.09243,7.69537c1.30235,0.89056 -1.68032,4.72658 -1.68032,4.72658c0,0 -4.88547,7.6644 -8.01243,12.57002c-4.41333,6.92368 -11.30858,17.74108 -11.30858,17.74108z" fill="#4b4b4b" stroke="#000000" stroke-width="3" stroke-linecap="round"/><g fill="none" stroke="#b9b9b9" stroke-width="3"><path d="M264.82313,179.20343c-0.64004,-1.33038 0.14696,-2.48325 1.18837,-3.6268c1.04142,-1.14353 2.06145,-1.47116 2.58296,-0.51435c1.10574,2.0287 -0.14749,2.93169 -0.96295,3.82712c-1.04144,1.14355 -1.90447,2.1929 -2.80839,0.31405z" stroke-linecap="butt"/><path d="M265.64976,178.65868l-2.20374,2.36387" stroke-linecap="round"/><path d="M260.51193,181.5398c1.04142,-1.14353 2.06145,-1.47116 2.58297,-0.51435c1.10574,2.0287 -0.14749,2.93169 -0.96296,3.82712c-1.04142,1.14355 -1.90447,2.19291 -2.80839,0.31405c-0.64004,-1.33038 0.14696,-2.48325 1.18837,-3.62681z" stroke-linecap="butt"/><path d="M257.94644,186.98572l2.20373,-2.36388" stroke-linecap="round"/><path d="M253.33797,186.40766c0.37781,-1.56644 1.47318,-1.38357 2.70896,-0.90279c1.23579,0.48078 2.00293,1.44701 1.76622,2.64385c-0.50185,2.5376 -1.72432,1.66327 -2.69197,1.2868c-1.23579,-0.48078 -2.31678,-0.81563 -1.78322,-3.02785z" stroke-linecap="butt"/><path d="M251.53211,185.96378l2.58373,1.05237" stroke-linecap="round"/><path d="M247.54894,182.0067c0.7731,-1.24704 1.71555,-0.45844 2.70334,0.6871c0.9878,1.14554 1.41739,2.47918 0.87382,3.46128c-1.15253,2.08234 -2.02006,0.57745 -2.79354,-0.31955c-0.9878,-1.14555 -1.87542,-2.06771 -0.78363,-3.82884z" stroke-linecap="butt"/><path d="M248.08664,183.01287l-2.05227,-2.439" stroke-linecap="round"/><path d="M242.38388,175.93704c0.7731,-1.24702 1.71556,-0.45844 2.70335,0.6871c0.9878,1.14554 1.41739,2.47918 0.87381,3.46128c-1.15253,2.08233 -2.02005,0.57745 -2.79353,-0.31955c-0.98779,-1.14553 -1.87542,-2.0677 -0.78362,-3.82884z" stroke-linecap="butt"/><path d="M242.92161,176.94321l-2.05228,-2.43901" stroke-linecap="round"/></g><path d="M275.35416,171.66222c-12.42957,1.15907 -24.48648,2.2471 -29.50871,1.65783c-4.58998,-0.53854 -6.19852,-3.17592 -6.19852,-3.17592c0,0 -2.02899,-2.27454 -2.25657,-3.79416c-0.68275,-4.55883 -2.00025,-17.65021 -2.05563,-29.02747c-0.00186,-0.37972 0.01132,-0.59316 0.03286,-0.97225c0.06457,-1.13729 0.51074,-5.56805 0.51074,-5.56805c0,0 3.13301,-1.92662 4.87369,-2.5467c5.22202,-1.86025 18.95739,-1.5064 33.31761,-2.28144c1.30157,-0.07026 3.67887,1.42006 3.67887,1.42006c0,0 1.86988,2.99447 1.99927,4.97433c0.83664,12.80024 1.71367,26.96573 1.69583,30.22241c-0.00594,1.08558 -1.51883,5.41707 -1.51883,5.41707z" fill="#582700" stroke="#000000" stroke-width="2.5" stroke-linecap="round"/><path d="M268.98055,153.1986c0,-2.34721 1.90279,-4.25 4.25,-4.25c2.34721,0 4.25,1.90279 4.25,4.25c0,2.34721 -1.90279,4.25 -4.25,4.25c-1.5797,0 -2.9581,-0.86186 -3.69064,-2.14101c-0.35591,-0.62149 -0.55936,-1.34148 -0.55936,-2.10899z" data-paper-data="{&quot;index&quot;:null}" fill="#ffffff" stroke="#000000" stroke-width="1.75" stroke-linecap="butt"/><g data-paper-data="{&quot;index&quot;:null}" stroke="#000000" stroke-width="1.25" stroke-linecap="butt"><g data-paper-data="{&quot;index&quot;:null}" fill="#000000"><path d="M264.21864,164.2389l-11.49399,0.05978c0,0 -3.42405,-3.51986 5.74799,-3.68589c8.6162,-0.07513 5.746,3.62612 5.746,3.62612z"/></g><g data-paper-data="{&quot;index&quot;:null}" fill="#ffffff"><path d="M262.44104,160.9767c0.01655,0.00423 -0.61653,0.76756 -0.61903,1.49595c-0.00306,0.88932 0.62191,1.77548 0.61923,1.7755c-1.94054,0.01009 -9.71659,0.05053 -9.71659,0.05053c0,0 -3.42405,-3.51986 5.74799,-3.68589c1.76244,-0.01537 3.04428,0.12727 3.9684,0.36392z"/></g></g><path d="M231.54045,131.95321c-0.77986,-0.99797 0.24974,-1.75073 0.24974,-1.75073l1.27718,-0.88228c0.11844,-0.04699 0.23683,-0.09319 0.35527,-0.13864c-1.59844,-5.66853 -1.10957,-12.72532 -1.68225,-18.41815c-0.14851,-1.47635 -0.91521,-5.44444 -0.29821,-6.77529c1.03316,-2.22854 2.85012,-1.78982 4.80061,-1.96466c3.31874,-0.29748 6.61455,-0.55335 9.85207,-1.31802c8.0263,-1.88608 16.07328,-2.86366 24.18566,-4.26842c2.55992,-0.44328 5.07207,-0.75897 7.68732,-0.77564c0.7156,-0.00456 1.59992,-0.33577 2.14377,0.11542c1.92614,1.598 1.36112,3.61569 1.2229,5.59878c-0.27574,3.95565 -1.59926,7.61782 -1.33768,11.62017c0.17898,3.06322 -0.00525,6.23903 -0.11557,9.3026c-0.03807,1.05722 0.4995,2.96081 -0.51653,3.84237c-2.08334,1.80756 -8.01157,1.11818 -10.63174,1.26601c-7.98942,0.45081 -15.99545,0.74268 -23.94522,1.63347c-2.83285,0.41283 -5.52587,0.88737 -8.19426,1.70295c0.00873,0.37347 -0.12789,0.86549 -0.81224,1.13023c-0.74249,0.28723 -1.2098,-0.049 -1.4579,-0.34646c-0.09024,0.03495 -0.18048,0.07038 -0.27072,0.10632l-0.70273,0.56522c0,0 -1.0296,0.75274 -1.80947,-0.24523z" fill="#000000" stroke="none" stroke-width="0.5" stroke-linecap="butt"/><g><g data-paper-data="{&quot;index&quot;:null}"><path d="M278.93369,178.7366c2.39378,-0.7709 5.48377,-6.11626 6.22801,-3.96326c0.37908,1.09667 6.90202,21.25786 6.53359,22.47569c-0.3549,1.173 -1.11799,2.08632 -2.29243,2.46453c-0.79907,0.25731 -2.15754,0.27916 -3.11692,-0.05468c-1.91474,-0.66629 -13.69995,-18.99029 -14.19575,-20.42462c-0.74421,-2.15302 4.44974,0.27323 6.84353,-0.49767z" fill="#0091d4" stroke="#000000" stroke-width="1.5" stroke-linecap="butt"/><g stroke-linecap="butt"><path d="M276.49367,171.60751c4.33698,-1.39668 8.62995,-0.2807 9.58858,2.49261c0.95865,2.77331 -1.78001,6.15377 -6.11699,7.55047c-4.33699,1.39667 -8.62996,0.2807 -9.58861,-2.49262c-0.95865,-2.77331 1.78003,-6.15377 6.11701,-7.55045z" fill="#0091d4" stroke="#000000" stroke-width="1.5"/><path d="M276.1615,181.32837c0,0 -1.75568,0.15686 -3.36119,-0.65219c-0.75986,-0.39684 -2.06767,-1.938 -2.06767,-1.938l4.06017,0.39087z" fill="#00aeff" stroke="none" stroke-width="0"/><path d="M279.80125,180.81375l-1.91289,0.56088c0,0 -0.51357,-0.62227 -0.67878,-1.01428c-0.14108,-0.33479 -0.3678,-1.34338 -0.3678,-1.34338l1.6787,-0.21709z" fill="#00aeff" stroke="none" stroke-width="0"/></g><g><path d="M278.72734,177.71921c-5.983,1.92676 -13.44369,-0.12068 -15.4466,-5.91489c-2.0029,-5.79426 0.81567,-11.26201 6.79862,-13.18876c5.983,-1.92676 12.76339,1.10973 14.7663,6.90394c2.0029,5.79426 -0.13537,10.27294 -6.11831,12.1997z" fill="#00699a" stroke="#000000" stroke-width="1.5" stroke-linecap="butt"/><path d="M268.33013,160.07811c0,0 1.93078,0.9009 4.51822,2.38388c2.58116,1.47937 5.18652,4.09591 6.06164,6.62756c1.75239,5.06951 0.85452,7.44207 -3.49251,8.842c-2.11484,0.68107 -4.46215,0.20712 -6.28399,-0.93292c-2.55714,-1.60016 -5.03227,-4.11436 -6.02596,-6.98913c-1.75239,-5.06951 5.22259,-9.93136 5.22259,-9.93136z" fill="#0091d4" stroke="none" stroke-width="0" stroke-linecap="butt"/><path d="M283.97856,166.23254c0,0 -1.95164,4.55645 -9.01183,6.56246c-7.00284,1.98973 -11.33032,-1.03463 -11.33032,-1.03463" fill="none" stroke="#000000" stroke-width="0.8" stroke-linecap="round"/><path d="M284.32336,172.1967c0,0 -1.77908,2.79614 -8.41752,3.90756c-4.6064,0.77121 -9.43037,-0.14223 -9.43037,-0.14223" fill="none" stroke="#000000" stroke-width="0.75" stroke-linecap="round"/><path d="M282.64735,163.52771c0,0 -1.32114,2.64918 -8.17544,4.19705c-7.12638,1.60931 -11.43638,-0.75896 -11.43638,-0.75896" fill="none" stroke="#000000" stroke-width="0.8" stroke-linecap="round"/><path d="M264.21957,163.32306c0,0 4.5563,-1.51833 9.36476,-1.81542c3.65064,-0.22558 8.54611,0.71571 8.54611,0.71571" fill="none" stroke="#000000" stroke-width="0.8" stroke-linecap="round"/><path d="M274.69525,158.67046c0,0 3.78641,1.59347 5.51827,7.36767c1.85586,6.18771 0.54858,10.18316 0.54858,10.18316" fill="none" stroke="#000000" stroke-width="0.8" stroke-linecap="round"/><path d="M277.65322,177.73407c0,0 -1.28411,-3.03243 -1.81562,-4.91769c-0.44749,-1.58729 -0.73422,-4.78985 -1.43964,-7.64689c-0.80217,-3.2488 -2.00065,-6.07878 -2.00065,-6.07878" fill="none" stroke="#000000" stroke-width="0.8" stroke-linecap="round"/><path d="M274.88019,178.49919c0,0 -3.70553,-3.2424 -5.68176,-9.54296c-1.25912,-4.01429 0.28664,-9.50319 0.28664,-9.50319" fill="none" stroke="#000000" stroke-width="0.8" stroke-linecap="round"/><path d="M269.11307,177.67057c0,0 -2.55599,-2.55503 -3.54561,-8.538c-0.6872,-4.15476 0.63049,-8.1093 0.63049,-8.1093" fill="none" stroke="#000000" stroke-width="0.8" stroke-linecap="round"/><path d="M264.68422,170.01601c-0.42661,0.13739 -0.90602,-0.13768 -1.07079,-0.61442c-0.16478,-0.47669 0.04747,-0.97452 0.47408,-1.11192c0.42661,-0.13739 0.90603,0.13767 1.07081,0.61439c0.16478,0.47669 -0.04749,0.97454 -0.47407,1.11192z" fill="#00aeff" stroke="none" stroke-width="0" stroke-linecap="butt"/><path d="M264.43187,166.51612c-0.24612,0.07926 -0.51242,-0.04971 -0.59482,-0.28806c-0.0824,-0.23835 0.05033,-0.49582 0.29645,-0.57509c0.24612,-0.07926 0.51243,0.04972 0.59482,0.28806c0.0824,0.23835 -0.05033,0.49583 -0.29645,0.57509z" fill="#00aeff" stroke="none" stroke-width="0" stroke-linecap="butt"/></g></g><path d="M276.57091,181.91235c4.07072,10.0647 4.0262,12.05616 4.0262,12.05616c0.43948,1.2874 -0.8923,1.57481 -0.8923,1.57481c0,0 -2.51182,0.86284 -4.11951,1.41509c-1.05568,0.36265 -2.70504,0.92921 -2.70504,0.92921c0,0 -1.09721,0.19052 -1.32157,-0.51727c-1.34978,-4.25821 -2.87388,-8.2577 -3.34138,-10.45851c-0.15584,-0.73361 0.59727,-1.85029 0.59727,-1.85029l4.86806,-2.30009c0,0 1.93908,-1.05494 2.88822,-0.84909z" fill="#582700" stroke="#000000" stroke-width="3" stroke-linecap="round"/><path d="M289.41708,178.93357c7.92683,20.98188 7.95975,25.07701 7.95975,25.07701c0.86722,2.67843 -1.52242,3.18136 -1.52242,3.18136c0,0 -4.48871,1.60865 -7.36167,2.63831c-1.88652,0.6761 -4.83398,1.73242 -4.83398,1.73242c0,0 -1.97132,0.31916 -2.41692,-1.15225c-2.6808,-8.85231 -5.66182,-17.18388 -6.63162,-21.74387c-0.32327,-1.51999 0.97372,-3.76791 0.97372,-3.76791l8.66363,-4.40967c0,0 3.44304,-2.04204 5.1695,-1.5554z" fill="#582700" stroke="#000000" stroke-width="3" stroke-linecap="round"/></g><g><path d="M245.51278,172.56215c2.71667,-1.85184 4.06536,12.31214 5.09019,14.3912c1.11386,2.25962 -20.16412,-1.47402 -20.16412,-1.47402l-3.59764,-0.68211l23.88512,4.09235c0,0 8.32275,1.01081 7.65954,3.18615c0,0 2.00291,10.96882 -6.94338,27.74211c-5.31257,0.02503 -16.88483,-4.24485 -16.88483,-4.24485c0,0 -26.1491,-8.32914 -27.36888,-12.89524c-0.28245,-1.05734 -0.56281,-14.13925 2.36844,-17.17836c9.72721,-10.0851 35.95556,-12.93724 35.95556,-12.93724z" fill="#582700" stroke="#000000" stroke-width="2.5" stroke-linecap="round"/><path d="M232.04128,186.45675c-0.50915,-0.11835 -1.01744,-0.24371 -1.52737,-0.3677c-0.11254,-0.02736 -1.35447,-0.45725 -1.97631,-0.42466c-1.85329,6.66286 -2.61525,13.52912 -4.84059,20.12702c-0.15538,0.59483 -0.35424,1.88189 -0.7155,3.08916c-0.00427,0.38025 0.04005,0.68087 0.16965,0.80376c1.10191,1.04501 3.01608,1.46371 4.31683,2.29295c-0.02231,-0.38277 -0.07069,-1.49071 -0.00256,-1.94447c0.20235,-1.34758 0.39816,-2.68008 0.55798,-4.03225c0.56022,-4.73996 1.71895,-9.81212 2.84834,-14.43038c0.21267,-1.68598 0.59289,-3.45718 1.16954,-5.11342zM233.56101,186.77989c-0.5842,1.62846 -0.95426,3.39499 -1.16378,5.05595c-1.30225,5.21755 -2.28596,10.75456 -3.0144,16.10581c-0.30015,2.20489 0.10707,5.65226 -2.5531,5.40338c-1.39523,-0.8664 -3.48491,-1.40251 -4.69895,-2.54524c-0.27598,0.38437 -0.60163,0.65344 -0.98857,0.73163c-0.54467,0.11007 -2.4208,-1.07809 -2.98092,-1.32006c-3.34174,-1.4435 -7.63219,-2.57612 -9.03563,-6.21597c-3.79559,-5.02008 -2.8221,-14.10075 -0.2769,-19.41987c3.26751,-3.07565 6.64719,-4.09427 10.93765,-5.24028c3.09784,-0.82745 5.85718,-2.15777 9.09356,-2.64332c4.40073,-1.27264 8.82931,-2.41074 13.23028,-3.67727c2.01987,-0.58129 3.76064,-1.81044 5.41226,-0.18177c0.84905,3.50546 1.70569,7.04957 2.47438,10.58803c0.23962,1.10301 0.64941,3.35787 -0.02743,4.38318c-0.94063,1.42488 -2.78524,0.84983 -4.16843,0.53062c-3.12819,-0.29216 -6.53899,-0.77253 -9.85724,-1.48974c-0.25267,0.22545 -0.62183,0.19024 -0.62183,0.19024c-0.59372,-0.05723 -1.17948,-0.14642 -1.76093,-0.25531zM221.73243,207.03295c0.37214,-4.051 1.95578,-7.76765 2.44472,-11.7511c0.23945,-2.35309 0.31205,-6.57302 1.77801,-9.16441c0.0144,-0.15497 0.06668,-0.26824 0.06668,-0.26824l0.32708,-0.70098c0.18987,-0.73107 0.63177,-1.4006 1.13214,-1.9783c6.18773,0.18719 12.31454,3.07717 18.57672,3.68551c0.69424,0.16095 1.66822,0.45137 2.37618,0.4077c0.43543,-0.02685 0.23874,-2.54554 0.19882,-2.84847c-0.48614,-3.68825 -1.86085,-7.24622 -2.49664,-10.91099c-0.15023,-0.35331 -2.9737,0.7736 -3.58692,0.94957c-4.43414,1.27247 -8.8909,2.43403 -13.32872,3.70203c-3.21867,0.48625 -5.94657,1.79716 -9.02752,2.62744c-3.92143,1.05678 -7.0428,1.91702 -10.07744,4.65716c-2.16852,4.97084 -3.13403,13.20187 0.37144,17.83827c1.42623,3.53338 7.05776,5.3776 10.35077,6.78248c0.03493,0.0149 0.50753,-1.62097 0.88848,-2.9654c0.00223,-0.02111 0.0043,-0.04186 0.00618,-0.06227z" fill="#000000" stroke="none" stroke-width="0.5" stroke-linecap="butt"/><path d="M230.89259,191.52443c-1.12939,4.61827 -2.30572,9.78608 -2.86594,14.52604c-0.15983,1.3522 -0.35928,2.68477 -0.56164,4.03235c-0.06814,0.45376 -0.01968,1.56169 0.00263,1.94446c-1.30077,-0.82924 -3.23348,-1.25141 -4.33541,-2.29642c-0.12958,-0.1229 -0.17586,-0.4243 -0.17159,-0.80456c0.36127,-1.20727 0.55651,-2.49604 0.71189,-3.09086c2.22535,-6.59789 3.01548,-13.55807 4.86876,-20.22093c0.62184,-0.0326 1.87139,0.39837 1.98392,0.42573c0.50993,0.12399 1.02399,0.25096 1.53314,0.36931c-0.57664,1.65624 -0.9531,3.42888 -1.16577,5.11487z" data-paper-data="{&quot;noHover&quot;:false,&quot;origItem&quot;:[&quot;Path&quot;,{&quot;applyMatrix&quot;:true,&quot;segments&quot;:[[[926.17844,407.1979],[3.2606,1.25965],[-0.27949,0.97418]],[[925.31465,410.11917],[0.29084,-0.97519],[-0.06418,0.21521]],[[924.29914,413.90358],[-0.01258,-1.20526],[13.15638,4.16543]],[[964.1057,425.02121],[-12.99513,-4.87922],[1.17537,0.35239]],[[970.21765,426.67451],[-2.3817,-0.804],[0.75941,0.04146]],[[971.83798,426.41666],[-0.25651,0.23985],[2.18115,-2.03947]],[[976.78433,418.26967],[-1.76682,2.44279],[-0.76669,0.00973]],[[972.89889,418.10481],[0.90089,0.17138],[-2.67549,-0.50896]],[[964.88923,416.67374],[2.68829,0.42712],[-9.42353,-1.49721]],[[936.29671,409.90591],[9.13228,2.58714],[-3.35077,-0.55846]]],&quot;closed&quot;:true}]}" fill="#ffffff" stroke="none" stroke-width="0.5" stroke-linecap="butt"/><path d="M222.22932,205.32929c-0.05759,0.22015 -1.35342,4.80224 -1.41116,4.77759c-3.29303,-1.40488 -8.94829,-3.26814 -10.37452,-6.80151c-3.50548,-4.6364 -2.54516,-12.91186 -0.37664,-17.88269c3.03465,-2.74014 6.17435,-3.62378 10.09578,-4.68056c3.08096,-0.83028 5.84165,-2.15055 9.06031,-2.63679c4.43781,-1.268 8.92368,-2.41911 13.35781,-3.69159c0.61323,-0.17599 3.4401,-1.30011 3.59032,-0.9468c0.63579,3.66477 2.02361,7.2414 2.50974,10.92964c0.03993,0.30293 0.23863,2.82785 -0.19679,2.8547c-0.70797,0.04366 -1.78163,-0.22056 -2.47588,-0.38152c-6.26218,-0.60834 -12.33375,-3.46301 -18.52146,-3.65019c-0.50036,0.57772 -0.93292,1.24535 -1.12279,1.97643l-0.3233,0.6997c0,0 -0.35391,0.59179 0.35375,0.89758c0.07085,0.03062 0.17435,0.14482 0.23741,0.15725c-1.54495,6.14256 -2.36638,12.32531 -4.40258,18.37873z" data-paper-data="{&quot;noHover&quot;:false,&quot;origItem&quot;:[&quot;Path&quot;,{&quot;applyMatrix&quot;:true,&quot;segments&quot;:[[[926.61254,417.73069],[12.14285,3.5238],[-0.03018,0.12086]],[[926.46822,418.11346],[0.06716,-0.13431],[-0.67082,1.34164]],[924.45576,418.78428],[[923.08279,418.0906],[0,0],[-1.44471,-0.43097]],[[919.22563,415.72869],[1.11205,1.01797],[0.89694,-11.9485]],[[928.15956,380.1298],[-1.74473,12.05571],[0.38029,-1.32836]],[[929.175,375.57071],[0.02742,1.37277],[-0.01686,-0.84429]],[[923.5003,374.93752],[0.60865,-0.05075],[-7.41054,0.61792]],[[901.48814,378.8123],[7.37628,-0.90935],[-0.71866,0.25961]],[[903.08234,385.83106],[-0.2998,-1.20115],[2.16779,8.68513]],[[909.35292,411.92731],[-2.15853,-8.69186],[0.69956,6.26621]],[[913.83986,429.61277],[-1.39861,-6.02998],[1.78014,7.67491]],[[922.29365,449.50563],[-5.21858,-6.1072],[9.74892,4.62723]],[[957.96755,450.34516],[-9.56021,6.37347],[7.18055,-2.44927]],[[972.39433,430.92276],[-3.08539,6.24485],[0.05411,-0.10951]],[[963.14745,427.86406],[0.43501,0.13058],[-11.92317,-4.46591]]],&quot;closed&quot;:true}]}" fill="#66c8ff" stroke="none" stroke-width="0.5" stroke-linecap="butt"/></g><g fill="#9e3eff" stroke="none" stroke-width="0.5" stroke-linecap="butt"><path d="M228.7195,149.01146c-1.24035,2.17061 -3.41096,0.93026 -3.41096,0.93026l-2.42955,-1.92296c-0.4766,-1.2289 -1.44922,-2.36876 -1.4298,-3.68669c0.02154,-1.46176 3.87465,-5.21532 2.47246,-6.69797c-1.73708,-1.83677 -5.17259,-2.40319 -5.83712,-4.84237c-0.68118,-2.50026 6.69617,-8.31584 2.99393,-9.39877c0,0 -2.02184,-1.47043 -0.55141,-3.49227c1.47043,-2.02184 3.49227,-0.55141 3.49227,-0.55141c1.03237,0.93963 2.86179,1.44292 3.09712,2.8189c0.37913,2.21679 -0.79304,4.44205 -1.48958,6.58045c-0.32222,0.98924 -0.88054,1.90972 -1.53843,2.7157c-0.24872,0.3047 -1.29037,0.15694 -1.07517,0.48618c0.33831,0.51759 1.22486,0.26946 1.76537,0.56979c1.12889,0.62727 2.54029,1.07612 3.1975,2.18784c0.92417,1.5633 1.3744,3.49622 1.23306,5.30675c-0.13466,1.72486 -2.82957,2.66654 -2.7606,4.39527c0.02389,0.59873 0.6468,1.00887 0.9702,1.51331l0.37045,-0.32296c0,0 2.17061,1.24035 0.93026,3.41096z"/><path d="M238.9195,147.61146c-1.24034,2.17061 -3.41096,0.93026 -3.41096,0.93026l-2.42955,-1.92296c-0.4766,-1.2289 -1.44922,-2.36876 -1.4298,-3.6867c0.02155,-1.46176 3.87464,-5.21532 2.47245,-6.69797c-1.73709,-1.83677 -5.17259,-2.40319 -5.83712,-4.84237c-0.68117,-2.50026 6.69617,-8.31584 2.99393,-9.39877c0,0 -2.02184,-1.47043 -0.55141,-3.49227c1.47043,-2.02184 3.49227,-0.55141 3.49227,-0.55141c1.03238,0.93963 2.86178,1.44292 3.09712,2.8189c0.37913,2.21679 -0.79304,4.44205 -1.48958,6.58045c-0.32222,0.98924 -0.88054,1.90972 -1.53843,2.7157c-0.24872,0.30471 -1.29037,0.15694 -1.07518,0.48618c0.3383,0.5176 1.22486,0.26946 1.76538,0.56979c1.12889,0.62727 2.54028,1.07612 3.1975,2.18784c0.92417,1.5633 1.37441,3.49622 1.23306,5.30676c-0.13466,1.72485 -2.82957,2.66654 -2.7606,4.39527c0.02389,0.59873 0.64681,1.00887 0.9702,1.51331l0.37045,-0.32296c0,0 2.1706,1.24034 0.93026,3.41096z"/><path d="M249.9195,146.81146c-1.24034,2.17061 -3.41096,0.93026 -3.41096,0.93026l-2.42955,-1.92297c-0.4766,-1.2289 -1.44922,-2.36876 -1.4298,-3.6867c0.02155,-1.46176 3.87465,-5.21532 2.47246,-6.69797c-1.73709,-1.83677 -5.17259,-2.40319 -5.83713,-4.84237c-0.68117,-2.50026 6.69617,-8.31584 2.99393,-9.39877c0,0 -2.02184,-1.47043 -0.55141,-3.49227c1.47043,-2.02184 3.49227,-0.55141 3.49227,-0.55141c1.03238,0.93963 2.86178,1.44292 3.09712,2.8189c0.37913,2.21679 -0.79305,4.44205 -1.48958,6.58045c-0.32222,0.98924 -0.88053,1.90972 -1.53843,2.7157c-0.24872,0.30471 -1.29037,0.15695 -1.07518,0.48619c0.3383,0.5176 1.22486,0.26945 1.76537,0.56979c1.12889,0.62727 2.54029,1.07612 3.1975,2.18784c0.92417,1.5633 1.3744,3.49622 1.23306,5.30676c-0.13466,1.72485 -2.82957,2.66654 -2.7606,4.39527c0.02389,0.59873 0.64681,1.00887 0.97021,1.51331l0.37044,-0.32296c0,0 2.1706,1.24034 0.93026,3.41096z"/></g></g></g></svg>