<svg version="1.1" xmlns="http://www.w3.org/2000/svg" xmlns:xlink="http://www.w3.org/1999/xlink" width="210" height="221" viewBox="0,0,210,221"><g transform="translate(-140,-90)"><g data-paper-data="{&quot;isPaintingLayer&quot;:true}" fill-rule="nonzero" stroke-linejoin="miter" stroke-miterlimit="10" stroke-dasharray="" stroke-dashoffset="0" style="mix-blend-mode: normal"><path d="M140,311v-221h210v221z" fill="none" stroke="none" stroke-width="0" stroke-linecap="butt"/><g data-paper-data="{&quot;index&quot;:null}" stroke="#000000" stroke-linecap="round"><path d="M261.03081,195.10737c0,0 15.61507,-1.60753 15.59742,5.05971c-0.04788,18.09623 -27.2048,12.14333 -27.2048,12.14333z" data-paper-data="{&quot;origPos&quot;:null}" fill="#7c7c7c" stroke-width="2"/><path d="M260.30537,196.6253c0,0 11.33368,-0.56696 11.97011,1.39142c0.20071,0.61766 -15.11379,2.52986 -15.11379,2.52986z" data-paper-data="{&quot;origPos&quot;:null}" fill="#0a0a0a" stroke-width="1"/></g><g data-paper-data="{&quot;index&quot;:null}"><path d="M234.21482,203.68105c0,0 -1.70485,25.82043 -11.16795,35.79575c-2.85166,3.00601 -15.66041,3.31014 -16.70642,3.08022c-4.51717,-0.99292 -13.74693,-26.24102 -13.74693,-26.24102c0,0 -4.65574,-11.14769 -4.85106,-16.35318c16.03801,-9.5062 26.85093,-8.02938 26.85093,-8.02938c2.10055,-0.74595 3.43371,7.36259 3.43371,7.36259l4.99152,23.21766l-0.81612,-3.49419c0,0 -4.53276,-20.6795 -2.27623,-19.68829c2.0762,0.91198 15.98767,1.60654 14.28854,4.34982z" fill="#582700" stroke="#000000" stroke-width="2.5" stroke-linecap="round"/><path d="M221.18007,217.49294c-1.59633,0.63818 -3.31324,1.08903 -4.95373,1.37196c-4.47101,1.31072 -9.38481,2.67025 -13.99841,3.42877c-1.31614,0.21639 -2.61152,0.46716 -3.92139,0.72501c-0.44107,0.08683 -1.52688,0.08845 -1.90225,0.08352c0.865,1.23758 1.35379,3.09424 2.42164,4.12748c0.12558,0.12152 0.42148,0.15164 0.79328,0.13064c1.16604,-0.40733 2.41687,-0.65907 2.99231,-0.83761c6.3622,-2.47195 13.04747,-3.52217 19.48861,-5.6325c0.00616,-0.61062 -0.46576,-1.80824 -0.49718,-1.91728c-0.14239,-0.49405 -0.28605,-0.98644 -0.42289,-1.47999zM220.80107,216.01845c-0.13058,-0.5648 -0.24206,-1.13468 -0.32262,-1.71378c0,0 -0.04971,-0.36008 0.16038,-0.61759c-0.83888,-3.21894 -1.44993,-6.53904 -1.86515,-9.5906c-0.36949,-1.34089 -1.00835,-3.1225 0.3466,-4.10702c0.97498,-0.70843 3.19772,-0.40674 4.28663,-0.22081c3.49323,0.59648 6.99565,1.27888 10.45993,1.95555c1.66156,1.54592 0.53118,3.30562 0.04612,5.31008c-1.05687,4.36738 -1.98696,8.75612 -3.04982,13.12354c-0.34107,3.19197 -1.52826,5.95397 -2.20953,9.02533c-0.94354,4.2538 -1.80016,7.60973 -4.67366,10.94677c-5.09803,2.72871 -13.94075,4.08413 -19.0086,0.58793c-3.61868,-1.21382 -4.90417,-5.36678 -6.45452,-8.57661c-0.25987,-0.53802 -1.4998,-2.32337 -1.41466,-2.86182c0.06048,-0.38251 0.31022,-0.71343 0.6748,-1.0008c-1.16809,-1.13875 -1.77899,-3.16215 -2.68426,-4.49064c-0.35353,-2.595 3.03564,-2.34859 5.18012,-2.74018c5.20462,-0.95037 10.5804,-2.15902 15.63049,-3.66559c1.61614,-0.27874 3.3289,-0.71941 4.89774,-1.36377zM201.4783,228.50222c-0.01989,0.00275 -0.04011,0.00569 -0.06066,0.00882c-1.2994,0.43268 -2.88011,0.96804 -2.86409,1.00159c1.51055,3.16381 3.54763,8.59905 7.06311,9.83992c4.68051,3.22897 12.69243,1.91894 17.46533,-0.42533c2.55493,-3.09407 3.2673,-6.18994 4.13883,-10.07827c0.68473,-3.05495 1.85424,-5.7853 2.19673,-8.95994c1.05678,-4.40354 2.00866,-8.82095 3.06997,-13.22108c0.14678,-0.60853 1.13234,-3.42437 0.78049,-3.5559c-3.6113,-0.46071 -7.1487,-1.65001 -10.77678,-1.96307c-0.29799,-0.02571 -2.76998,-0.10695 -2.77824,0.3208c-0.01342,0.69548 0.31096,1.63677 0.49714,2.30975c0.8542,6.10775 3.93478,11.98193 4.3739,18.03537c-0.54444,0.51574 -1.1811,0.97827 -1.8884,1.19661l-0.67219,0.35144c0,0 -0.10864,0.05622 -0.25965,0.07719c-2.47432,1.55076 -6.59939,1.80858 -8.89136,2.14726c-3.87651,0.65522 -7.44673,2.37104 -11.39415,2.91483z" fill="#000000" stroke="none" stroke-width="0.5" stroke-linecap="butt"/><path d="M216.27023,218.84247c1.64048,-0.28293 3.35896,-0.73015 4.95529,-1.36833c0.13684,0.49355 0.28231,0.99153 0.4247,1.48558c0.03142,0.10903 0.50471,1.31407 0.49855,1.92469c-6.44114,2.11033 -13.21711,3.1923 -19.57931,5.66425c-0.57544,0.17853 -1.82808,0.42681 -2.99412,0.83414c-0.3718,0.021 -0.66855,-0.01099 -0.79414,-0.1325c-1.06785,-1.03326 -1.5608,-2.90794 -2.42581,-4.14553c0.37536,0.00492 1.46118,0.00337 1.90225,-0.08345c1.30987,-0.25786 2.60519,-0.51221 3.92133,-0.7286c4.6136,-0.75852 9.62025,-2.13954 14.09126,-3.45025z" data-paper-data="{&quot;noHover&quot;:false,&quot;origItem&quot;:[&quot;Path&quot;,{&quot;applyMatrix&quot;:true,&quot;segments&quot;:[[[926.17844,407.1979],[3.2606,1.25965],[-0.27949,0.97418]],[[925.31465,410.11917],[0.29084,-0.97519],[-0.06418,0.21521]],[[924.29914,413.90358],[-0.01258,-1.20526],[13.15638,4.16543]],[[964.1057,425.02121],[-12.99513,-4.87922],[1.17537,0.35239]],[[970.21765,426.67451],[-2.3817,-0.804],[0.75941,0.04146]],[[971.83798,426.41666],[-0.25651,0.23985],[2.18115,-2.03947]],[[976.78433,418.26967],[-1.76682,2.44279],[-0.76669,0.00973]],[[972.89889,418.10481],[0.90089,0.17138],[-2.67549,-0.50896]],[[964.88923,416.67374],[2.68829,0.42712],[-9.42353,-1.49721]],[[936.29671,409.90591],[9.13228,2.58714],[-3.35077,-0.55846]]],&quot;closed&quot;:true}]}" fill="#ffffff" stroke="none" stroke-width="0.5" stroke-linecap="butt"/><path d="M203.12433,227.94006c5.83739,-2.26255 11.85157,-3.34079 17.7965,-5.12605c0.01478,0.06123 0.13078,0.15757 0.16366,0.22562c0.32842,0.67971 0.89269,0.30683 0.89269,0.30683l0.67109,-0.34768c0.70731,-0.21835 1.34251,-0.67164 1.88695,-1.18736c-0.43913,-6.05344 -3.48287,-11.87505 -4.33707,-17.9828c-0.18618,-0.67298 -0.48907,-1.71309 -0.47565,-2.40858c0.00824,-0.42775 2.48643,-0.34479 2.78442,-0.31908c3.62807,0.31306 7.18427,1.51437 10.79557,1.97508c0.35184,0.13152 -0.63086,2.95056 -0.77763,3.55909c-1.06131,4.40012 -2.00176,8.84558 -3.05854,13.24912c-0.34249,3.17463 -1.51979,5.93751 -2.20452,8.99246c-0.87153,3.88832 -1.60603,7.00319 -4.16096,10.09727c-4.77291,2.34429 -12.82849,3.65118 -17.509,0.42221c-3.51547,-1.24086 -5.57216,-6.69853 -7.08271,-9.86233c-0.0265,-0.05549 4.40223,-1.52764 4.61521,-1.5938z" data-paper-data="{&quot;noHover&quot;:false,&quot;origItem&quot;:[&quot;Path&quot;,{&quot;applyMatrix&quot;:true,&quot;segments&quot;:[[[926.61254,417.73069],[12.14285,3.5238],[-0.03018,0.12086]],[[926.46822,418.11346],[0.06716,-0.13431],[-0.67082,1.34164]],[924.45576,418.78428],[[923.08279,418.0906],[0,0],[-1.44471,-0.43097]],[[919.22563,415.72869],[1.11205,1.01797],[0.89694,-11.9485]],[[928.15956,380.1298],[-1.74473,12.05571],[0.38029,-1.32836]],[[929.175,375.57071],[0.02742,1.37277],[-0.01686,-0.84429]],[[923.5003,374.93752],[0.60865,-0.05075],[-7.41054,0.61792]],[[901.48814,378.8123],[7.37628,-0.90935],[-0.71866,0.25961]],[[903.08234,385.83106],[-0.2998,-1.20115],[2.16779,8.68513]],[[909.35292,411.92731],[-2.15853,-8.69186],[0.69956,6.26621]],[[913.83986,429.61277],[-1.39861,-6.02998],[1.78014,7.67491]],[[922.29365,449.50563],[-5.21858,-6.1072],[9.74892,4.62723]],[[957.96755,450.34516],[-9.56021,6.37347],[7.18055,-2.44927]],[[972.39433,430.92276],[-3.08539,6.24485],[0.05411,-0.10951]],[[963.14745,427.86406],[0.43501,0.13058],[-11.92317,-4.46591]]],&quot;closed&quot;:true}]}" fill="#616161" stroke="none" stroke-width="0.5" stroke-linecap="butt"/></g><g><path d="M263.62264,242.94029c0,0 0.79659,15.85918 -1.32549,16.14128c-6.36624,0.84636 -23.10692,-0.01177 -37.38997,-0.01177c-1.60451,0 -1.37046,-15.05422 -1.37046,-15.05422l1.71307,-30.82531c0,0 1.2701,-13.62049 2.74093,-13.62049c9.51427,0 23.74926,-0.93658 29.97591,0.71757c2.07555,0.55139 3.94294,15.0535 3.94294,15.0535z" data-paper-data="{&quot;origPos&quot;:null}" fill="#7c7c7c" stroke="#000000" stroke-width="3.5" stroke-linecap="round"/><path d="M232.97449,223.25697c-1.2426,0 -1.24261,-2.50351 -1.24261,-2.50351c0,-5.19246 0,-12.05391 0,-17.24638c0,0 0.00001,-2.50351 1.24261,-2.50351c1.2426,0 1.2426,2.50351 1.2426,2.50351c0,5.19246 0,10.38491 0,15.57737v1.669c0,0 0,2.50351 -1.2426,2.50351z" fill="#ffffff" stroke="none" stroke-width="0.5" stroke-linecap="butt"/><path d="M244.51869,229.63105c-1.2426,0 -1.24261,-3.14511 -1.24261,-3.14511c0,-6.52319 0,-15.14312 0,-21.66632c0,0 0.00001,-3.14511 1.24261,-3.14511c1.2426,0 1.2426,3.14511 1.2426,3.14511c0,6.52319 0,13.04638 0,19.56958v2.09674c0,0 0,3.14511 -1.2426,3.14511z" fill="#ffffff" stroke="none" stroke-width="0.5" stroke-linecap="butt"/></g><g fill="none" stroke="#b9b9b9" stroke-width="3"><path d="M254.20739,204.838c-0.79609,-1.36683 0.08262,-2.59426 1.25912,-3.82013c1.17651,-1.22585 2.3573,-1.60017 3.00139,-0.61912c1.36564,2.08012 -0.06713,3.06192 -0.98837,4.0218c-1.17652,1.22587 -2.14784,2.34778 -3.27214,0.41746z" stroke-linecap="butt"/><path d="M252.66267,206.77912l2.49159,-2.53565" stroke-linecap="round"/><path d="M249.25088,207.4125c1.17651,-1.22585 2.3573,-1.60017 3.00139,-0.61912c1.36564,2.08012 -0.06713,3.06192 -0.98837,4.0218c-1.17651,1.22586 -2.14783,2.34778 -3.27213,0.41746c-0.79609,-1.36683 0.08261,-2.59426 1.25911,-3.82014z" stroke-linecap="butt"/><path d="M248.93861,210.63807l-2.49159,2.53567" stroke-linecap="round"/><path d="M241.0383,212.71855c0.38545,-1.6456 1.67266,-1.48999 3.13474,-1.02821c1.46209,0.46178 2.39369,1.44481 2.15994,2.70045c-0.4956,2.66229 -1.95624,1.7897 -3.10109,1.42812c-1.46209,-0.46177 -2.73795,-0.77633 -2.19359,-3.10034z" stroke-linecap="butt"/><path d="M241.96961,213.32817l-3.05854,-1.01465" stroke-linecap="round"/><path d="M234.11205,208.31464c0.85908,-1.32519 1.98925,-0.53302 3.18527,0.62992c1.19604,1.16294 1.74617,2.53991 1.14593,3.58147c-1.27269,2.2084 -2.34099,0.66687 -3.27753,-0.24374c-1.19603,-1.16295 -2.2669,-2.09614 -1.05367,-3.96764z" stroke-linecap="butt"/><path d="M232.28982,206.869l2.48699,2.47767" stroke-linecap="round"/><path d="M227.85537,202.15059c0.85908,-1.32517 1.98926,-0.53302 3.18527,0.62992c1.19604,1.16294 1.74617,2.53991 1.14593,3.58147c-1.27269,2.20839 -2.34099,0.66687 -3.27752,-0.24374c-1.19603,-1.16294 -2.2669,-2.09613 -1.05367,-3.96764z" stroke-linecap="butt"/><path d="M228.52016,203.18263l-2.48701,-2.47767" stroke-linecap="round"/></g><path d="M277.69243,253.74847c0,0 4.19691,-1.03303 6.34709,-0.26828c1.64606,0.58542 2.27557,2.40383 2.76555,4.14895c1.34493,4.79013 0.14215,9.67563 0.40547,17.43665c0.07171,2.11377 -2.85901,3.41542 -4.87989,3.35343c-1.8901,-0.05799 -5.17232,-0.27994 -5.17232,-0.27994l-31.80801,-1.7157c0,0 -4.11116,-0.36278 -4.90557,-2.07489c-1.91307,-4.12308 -0.6778,-8.68106 -1.07983,-13.2449c-0.13625,-1.54663 4.47323,-1.84584 4.47323,-1.84584c0,0 8.56031,-1.39313 14.03938,-2.28479c7.73303,-1.25849 19.81491,-3.22469 19.81491,-3.22469z" data-paper-data="{&quot;index&quot;:null}" fill="#171717" stroke="#000000" stroke-width="3" stroke-linecap="round"/><path d="M240.39004,265.37685c0,0 1.96093,4.01705 1.76447,6.38405c-0.15038,1.81204 -1.68796,2.88572 -3.19083,3.80019c-4.12518,2.51004 -8.94718,2.45458 -16.08824,4.57514c-1.94492,0.57753 -3.85288,-2.08905 -4.27786,-4.15688c-0.39746,-1.93403 -0.97511,-5.32147 -0.97511,-5.32147l-6.002,-32.72387c0,0 -0.64485,-4.26321 0.75469,-5.47905c3.37036,-2.92796 7.8961,-2.7613 12.03637,-4.25941c1.40308,-0.5077 2.78139,4.10371 2.78139,4.10371c0,0 3.337,8.36392 5.47286,13.71729c3.01451,7.55562 7.72427,19.36033 7.72427,19.36033z" data-paper-data="{&quot;index&quot;:null}" fill="#171717" stroke="#000000" stroke-width="3" stroke-linecap="round"/><path d="M225.79975,197.41488c0,0 -1.45807,-4.34434 -1.47604,-5.43673c-0.05392,-3.27715 0.60028,-17.54079 1.23252,-30.43018c0.09779,-1.99368 1.80427,-5.02511 1.80427,-5.02511c0,0 2.19614,-1.52267 3.40866,-1.46452c13.37783,0.64155 26.16099,0.15305 31.04385,1.97475c1.62762,0.60723 4.56645,2.51585 4.56645,2.51585c0,0 0.46613,4.45452 0.53928,5.59841c0.02438,0.3813 0.03908,0.59596 0.04172,0.97809c0.07878,11.44987 -0.99781,24.63686 -1.5812,29.23115c-0.19446,1.53143 -2.05733,3.83994 -2.05733,3.83994c0,0 -1.4673,2.66956 -5.73424,3.25579c-4.66879,0.64141 -15.90587,-0.33731 -27.49073,-1.38391z" fill="#582700" stroke="#000000" stroke-width="2.5" stroke-linecap="round"/><path d="M268.58587,160.26976l-0.66067,-0.56204c-0.08443,-0.03529 -0.16885,-0.07007 -0.25326,-0.10438c-0.22757,0.30173 -0.65877,0.6446 -1.35331,0.36272c-0.64015,-0.25981 -0.77297,-0.75366 -0.76912,-1.12958c-2.49353,-0.79501 -5.0061,-1.24659 -7.64813,-1.63473c-7.4112,-0.81979 -14.86793,-1.03635 -22.31102,-1.413c-2.44098,-0.12352 -7.9521,0.62736 -9.91234,-1.17156c-0.956,-0.87733 -0.47734,-2.79818 -0.52489,-3.86172c-0.1378,-3.08191 -0.3457,-6.27604 -0.21418,-9.36038c0.1977,-4.03023 -1.07643,-7.70282 -1.37845,-11.68086c-0.15142,-1.99432 -0.70054,-4.01935 1.07432,-5.64603c0.50113,-0.4593 1.32822,-0.1345 1.99447,-0.13681c2.43491,-0.00844 4.77727,0.28503 7.16556,0.70646c7.56847,1.33546 15.07119,2.24168 22.56501,4.06235c3.02282,0.7383 6.09406,0.96404 9.18709,1.23141c1.81785,0.15714 3.50434,-0.30187 4.49173,1.93084c0.58964,1.33333 -0.07866,5.33394 -0.20001,6.82108c-0.46791,5.73441 0.06806,12.83118 -1.35513,18.55102c0.11075,0.04459 0.22153,0.08995 0.33233,0.13608l1.19915,0.87556c0,0 0.96717,0.7476 0.25256,1.75942c-0.71461,1.01182 -1.68177,0.26422 -1.68177,0.26422z" data-paper-data="{&quot;index&quot;:null}" fill="#000000" stroke="none" stroke-width="0.5" stroke-linecap="butt"/><path d="M240.60936,173.55228c0.5262,0.00604 0.92113,3.02321 0.88211,6.73899c-0.03901,3.71579 -0.49718,6.72313 -1.0234,6.71707c-0.5262,-0.00604 -0.92113,-3.0232 -0.88212,-6.73899c0.03901,-3.71579 0.49717,-6.72315 1.02339,-6.71709z" data-paper-data="{&quot;index&quot;:null}" fill="none" stroke="#590000" stroke-width="2.5" stroke-linecap="butt"/><path d="M236.82576,171.61557c0.53252,-1.12795 1.6107,-0.57084 1.6107,-0.57084l0.22993,0.12307c0.40924,-0.05315 0.76741,0.14181 0.76741,0.14181c0.8596,0.46796 1.71246,0.94953 2.56064,1.43974l0.04225,0.07089l0.019,-0.02746l0.98907,0.74878c0.2904,0.21591 0.4866,0.56405 0.50515,0.96522c0.03208,0.69398 -0.47966,1.28378 -1.14302,1.31735c-0.16175,0.0082 -0.31757,-0.01744 -0.46121,-0.07096l-1.24622,-0.43037l0.06855,-0.21725c-0.84502,-0.15746 -1.49668,-0.56152 -2.68098,-1.45479l-0.71559,-0.35009c0,0 -1.07817,-0.55711 -0.54564,-1.68507z" data-paper-data="{&quot;index&quot;:null}" fill="#582700" stroke="none" stroke-width="0.5" stroke-linecap="butt"/><path d="M249.73322,174.11476c0.52621,0.00604 0.92112,3.02322 0.88211,6.739c-0.039,3.71579 -0.49718,6.72313 -1.02341,6.71707c-0.52621,-0.00604 -0.92113,-3.0232 -0.88212,-6.73899c0.039,-3.71579 0.49718,-6.72314 1.02339,-6.71709z" data-paper-data="{&quot;index&quot;:null}" fill="none" stroke="#590000" stroke-width="2.5" stroke-linecap="butt"/><path d="M251.69086,171.48507c0,0 1.02176,-0.66338 1.65586,0.40554c0.63409,1.06893 -0.38765,1.73231 -0.38765,1.73231l-0.67997,0.42072c-1.09636,1.00869 -1.70771,1.47665 -2.53426,1.7187l0.08828,0.2093l-1.20071,0.5542c-0.13802,0.06776 -0.29075,0.10902 -0.45251,0.11721c-0.66336,0.03356 -1.22712,-0.50181 -1.25922,-1.1958c-0.01855,-0.40117 0.14462,-0.76752 0.41375,-1.01173l0.91537,-0.84514l0.02145,0.02541l0.03551,-0.07483c0.799,-0.57357 1.60345,-1.13901 2.41586,-1.69157c0,0 0.33852,-0.2302 0.75074,-0.21864l0.2175,-0.14571z" data-paper-data="{&quot;index&quot;:null}" fill="#582700" stroke="none" stroke-width="0.5" stroke-linecap="butt"/><g data-paper-data="{&quot;index&quot;:null}" stroke="#000000" stroke-width="1.25" stroke-linecap="butt"><path d="M253.06666,199.07796c-8.35522,0.62301 -6.47295,-7.93754 -6.47295,-7.93754l11.7552,-0.77195c0,0 2.60949,8.12104 -5.28224,8.70949z" fill="#000000"/><path d="M253.88239,196.56116c1.94893,-0.73022 4.44733,-0.76164 4.31082,-0.46991c-0.7026,1.50163 -2.18517,2.76738 -5.12656,2.9867c-0.98143,0.07317 -1.8216,0.01964 -2.54016,-0.13184c-0.34773,-0.07331 1.23353,-1.58976 3.35588,-2.38495z" fill="#ff8484"/><path d="M258.67453,193.14147c0.00352,0.03739 -10.51447,0.76996 -10.51447,0.76996l-0.14226,-2.86453l10.33111,-0.67843c0,0 0.21893,1.63844 0.32562,2.77299z" fill="#ffffff"/></g><g><g><path d="M253.27625,205.19986c-1.69978,-2.76123 12.217,-3.46033 14.294,-4.37827c2.25739,-0.99769 -2.2771,19.81706 -2.2771,19.81706l-0.81643,3.51704l4.99343,-23.36952c0,0 1.33367,-8.16158 3.43502,-7.41075c0,0 10.81705,-1.48649 26.86119,8.08189c-0.1954,5.23954 -4.85292,16.46014 -4.85292,16.46014c0,0 -9.23329,25.41324 -13.75218,26.41265c-1.04641,0.23142 -13.86005,-0.0747 -16.71281,-3.10037c-9.46672,-10.04057 -11.17221,-36.02988 -11.17221,-36.02988z" fill="#582700" stroke="#000000" stroke-width="2.5" stroke-linecap="round"/><path d="M266.31599,219.10211c-0.13689,0.49677 -0.28061,0.99239 -0.42305,1.48967c-0.03143,0.10975 -0.50353,1.31521 -0.49737,1.92982c6.4436,2.12413 13.13143,3.18123 19.49606,5.66934c0.57567,0.1797 1.82697,0.43309 2.99345,0.84309c0.37194,0.02114 0.66796,-0.00918 0.79358,-0.13149c1.06827,-1.04 1.55723,-2.90881 2.42257,-4.15448c-0.37551,0.00496 -1.46174,0.00332 -1.90297,-0.08407c-1.31037,-0.25954 -2.60625,-0.51195 -3.92289,-0.72976c-4.61537,-0.76348 -9.53104,-2.13191 -14.00376,-3.4512c-1.64111,-0.28478 -3.35868,-0.73858 -4.95562,-1.38093zM266.69512,217.61798c1.56944,0.64857 3.28285,1.09213 4.89961,1.37269c5.05203,1.51642 10.42986,2.73298 15.63647,3.68957c2.1453,0.39414 5.53576,0.14613 5.1821,2.7581c-0.90561,1.33719 -1.51675,3.37382 -2.68528,4.52002c0.36472,0.28925 0.61455,0.62233 0.67506,1.00735c0.08517,0.54197 -1.15523,2.339 -1.4152,2.88053c-1.55094,3.23082 -2.83691,7.41095 -6.45698,8.63271c-5.06979,3.51906 -13.91589,2.15478 -19.01586,-0.59178c-2.8746,-3.35887 -3.73154,-6.73675 -4.67544,-11.01837c-0.68152,-3.09146 -1.86917,-5.87152 -2.21037,-9.08437c-1.06326,-4.39599 -1.99371,-8.81343 -3.05098,-13.20938c-0.48524,-2.01757 -1.61606,-3.78878 0.04614,-5.34481c3.4656,-0.6811 6.96936,-1.36796 10.46393,-1.96834c1.08933,-0.18715 3.31291,-0.49081 4.28827,0.22225c1.35547,0.99096 0.71636,2.78422 0.34673,4.13388c-0.41538,3.07152 -1.02667,6.41333 -1.86587,9.65333c0.21017,0.25919 0.16044,0.62163 0.16044,0.62163c-0.08059,0.58288 -0.19211,1.1565 -0.32274,1.72499zM286.02529,230.18338c-3.94893,-0.54735 -7.52052,-2.27439 -11.39851,-2.93389c-2.29284,-0.3409 -6.41948,-0.6004 -8.89475,-2.1613c-0.15106,-0.02111 -0.25974,-0.07769 -0.25974,-0.07769l-0.67244,-0.35374c-0.70757,-0.21977 -1.34448,-0.68533 -1.88912,-1.20444c0.43929,-6.09303 3.52105,-12.00563 4.37558,-18.15333c0.18625,-0.67739 0.51076,-1.62484 0.49733,-2.32486c-0.00826,-0.43054 -2.48119,-0.34877 -2.7793,-0.32289c-3.62946,0.3151 -7.16822,1.51219 -10.7809,1.97591c-0.35198,0.13239 0.63396,2.96664 0.78079,3.57915c1.06171,4.42891 2.01395,8.87521 3.07114,13.30755c0.34262,3.1954 1.51258,5.94361 2.19757,9.01854c0.87186,3.91376 1.5845,7.02987 4.14041,10.14419c4.77473,2.35961 12.78971,3.6782 17.47201,0.42812c3.51682,-1.24899 5.55468,-6.71978 7.0658,-9.90428c0.01603,-0.03377 -1.56529,-0.57263 -2.86518,-1.00814c-0.02056,-0.00314 -0.04079,-0.00611 -0.06068,-0.00887z" fill="#000000" stroke="none" stroke-width="0.5" stroke-linecap="butt"/><path d="M271.22771,220.46045c4.47272,1.31929 9.48127,2.70934 14.09664,3.47282c1.31665,0.21781 2.61246,0.47382 3.92283,0.73337c0.44123,0.08739 1.52747,0.08895 1.90297,0.084c-0.86534,1.24568 -1.35848,3.13263 -2.42673,4.17264c-0.12564,0.1223 -0.42251,0.15451 -0.79445,0.13337c-1.16649,-0.40999 -2.41961,-0.6599 -2.99527,-0.8396c-6.36463,-2.48811 -13.14319,-3.57717 -19.5868,-5.70129c-0.00616,-0.61461 0.46731,-1.82754 0.49874,-1.93728c0.14244,-0.49728 0.28797,-0.99853 0.42487,-1.4953c1.59694,0.64235 3.31608,1.0925 4.95719,1.37728z" data-paper-data="{&quot;noHover&quot;:false,&quot;origItem&quot;:[&quot;Path&quot;,{&quot;applyMatrix&quot;:true,&quot;segments&quot;:[[[926.17844,407.1979],[3.2606,1.25965],[-0.27949,0.97418]],[[925.31465,410.11917],[0.29084,-0.97519],[-0.06418,0.21521]],[[924.29914,413.90358],[-0.01258,-1.20526],[13.15638,4.16543]],[[964.1057,425.02121],[-12.99513,-4.87922],[1.17537,0.35239]],[[970.21765,426.67451],[-2.3817,-0.804],[0.75941,0.04146]],[[971.83798,426.41666],[-0.25651,0.23985],[2.18115,-2.03947]],[[976.78433,418.26967],[-1.76682,2.44279],[-0.76669,0.00973]],[[972.89889,418.10481],[0.90089,0.17138],[-2.67549,-0.50896]],[[964.88923,416.67374],[2.68829,0.42712],[-9.42353,-1.49721]],[[936.29671,409.90591],[9.13228,2.58714],[-3.35077,-0.55846]]],&quot;closed&quot;:true}]}" fill="#ffffff" stroke="none" stroke-width="0.5" stroke-linecap="butt"/><path d="M284.37864,229.61755c0.21306,0.06659 4.64348,1.54837 4.61697,1.60422c-1.51113,3.1845 -3.5686,8.67786 -7.08542,9.92684c-4.6823,3.25009 -12.74097,1.93464 -17.51569,-0.42497c-2.5559,-3.11431 -3.29069,-6.24955 -4.16255,-10.16331c-0.68499,-3.07493 -1.86274,-5.85589 -2.20537,-9.05128c-1.05719,-4.43234 -1.998,-8.90688 -3.05971,-13.33577c-0.14683,-0.61251 -1.12991,-3.44999 -0.77793,-3.58237c3.61268,-0.46372 7.17023,-1.67289 10.79969,-1.988c0.2981,-0.02587 2.77723,-0.10937 2.78548,0.32117c0.01343,0.70004 -0.28958,1.74695 -0.47583,2.42433c-0.85452,6.1477 -3.89943,12.00739 -4.33873,18.10042c0.54464,0.5191 1.18009,0.97535 1.88767,1.19513l0.67135,0.34995c0,0 0.56448,0.37532 0.89303,-0.30884c0.03289,-0.0685 0.14894,-0.16547 0.16372,-0.2271c5.9472,1.79693 11.96368,2.88223 17.8033,5.15957z" data-paper-data="{&quot;noHover&quot;:false,&quot;origItem&quot;:[&quot;Path&quot;,{&quot;applyMatrix&quot;:true,&quot;segments&quot;:[[[926.61254,417.73069],[12.14285,3.5238],[-0.03018,0.12086]],[[926.46822,418.11346],[0.06716,-0.13431],[-0.67082,1.34164]],[924.45576,418.78428],[[923.08279,418.0906],[0,0],[-1.44471,-0.43097]],[[919.22563,415.72869],[1.11205,1.01797],[0.89694,-11.9485]],[[928.15956,380.1298],[-1.74473,12.05571],[0.38029,-1.32836]],[[929.175,375.57071],[0.02742,1.37277],[-0.01686,-0.84429]],[[923.5003,374.93752],[0.60865,-0.05075],[-7.41054,0.61792]],[[901.48814,378.8123],[7.37628,-0.90935],[-0.71866,0.25961]],[[903.08234,385.83106],[-0.2998,-1.20115],[2.16779,8.68513]],[[909.35292,411.92731],[-2.15853,-8.69186],[0.69956,6.26621]],[[913.83986,429.61277],[-1.39861,-6.02998],[1.78014,7.67491]],[[922.29365,449.50563],[-5.21858,-6.1072],[9.74892,4.62723]],[[957.96755,450.34516],[-9.56021,6.37347],[7.18055,-2.44927]],[[972.39433,430.92276],[-3.08539,6.24485],[0.05411,-0.10951]],[[963.14745,427.86406],[0.43501,0.13058],[-11.92317,-4.46591]]],&quot;closed&quot;:true}]}" fill="#616161" stroke="none" stroke-width="0.5" stroke-linecap="butt"/></g><g data-paper-data="{&quot;index&quot;:null}" fill="#fffc96" stroke="#000000" stroke-width="2" stroke-linecap="round"><path d="M251.89724,213.81074c-0.17202,-2.0416 2.91917,-2.37247 2.91917,-2.37247l0.37641,1.8682c0,0 4.45712,1.63491 10.55001,2.80461c-0.11479,1.33622 -0.14995,2.32755 -0.06494,3.14287c-7.11425,-1.16499 -13.59302,-3.21637 -13.78064,-5.44322z"/><path d="M254.66132,227.14486c-0.66177,-2.77831 2.50915,-4.07646 2.50915,-4.07646l0.31563,1.36532c0,0 3.38614,-1.70609 8.18641,-5.23308c0.1035,1.06743 0.40765,1.83262 1.00086,2.66396c-5.94154,4.33194 -11.53261,7.29313 -12.01205,5.28025z" data-paper-data="{&quot;index&quot;:null}"/></g></g></g></g></svg>