<svg version="1.1" xmlns="http://www.w3.org/2000/svg" xmlns:xlink="http://www.w3.org/1999/xlink" width="32.70155" height="46.43742" viewBox="0,0,32.70155,46.43742"><g transform="translate(-223.14274,-151.57923)"><g data-paper-data="{&quot;isPaintingLayer&quot;:true}" fill-rule="nonzero" stroke-linejoin="miter" stroke-miterlimit="10" stroke-dasharray="" stroke-dashoffset="0" style="mix-blend-mode: normal"><text transform="translate(232.75565,190.65706) rotate(-14.40918) scale(0.38082,0.38082)" font-size="40" xml:space="preserve" fill="#ffffff" fill-rule="nonzero" stroke="none" stroke-width="1" stroke-linecap="butt" stroke-linejoin="miter" stroke-miterlimit="10" stroke-dasharray="" stroke-dashoffset="0" font-family="Sans Serif" font-weight="normal" text-anchor="start" style="mix-blend-mode: normal"><tspan x="0" dy="0">???</tspan></text><path d="M251.92984,194.29792c-6.61448,1.55989 -13.03336,3.05276 -15.78514,3.09373c-2.51495,0.03743 -3.5796,-1.31388 -3.5796,-1.31388c0,0 -1.26417,-1.11822 -1.50063,-1.94825c-0.70937,-2.49009 -2.39972,-9.68805 -3.28128,-16.02367c-0.02943,-0.21145 -0.0383,-0.33135 -0.05507,-0.54417c-0.05033,-0.63847 -0.14148,-3.14021 -0.14148,-3.14021c0,0 1.54491,-1.30394 2.43696,-1.77748c2.67613,-1.42058 10.10787,-2.23343 17.79197,-3.7213c0.69647,-0.13485 2.08973,0.52077 2.08973,0.52077c0,0 1.23228,1.53108 1.45027,2.62481c1.4093,7.0711 2.94257,14.89996 3.17676,16.71597c0.07807,0.60535 -0.41333,3.1302 -0.41333,3.1302z" fill="#582700" stroke="#000000" stroke-width="1.25" stroke-linecap="round"/><path d="M225.3356,175.39295c-0.49517,-0.49875 0.00359,-0.99391 0.00359,-0.99391l0.62253,-0.58555c0.06034,-0.03489 0.12071,-0.06935 0.18116,-0.10337c-1.28614,-3.0411 -1.55084,-7.00927 -2.28575,-10.13935c-0.19059,-0.81173 -0.901,-2.96648 -0.66797,-3.75343c0.39019,-1.31777 1.40262,-1.20692 2.44112,-1.44778c1.76699,-0.4098 3.52473,-0.79474 5.21296,-1.45891c4.18607,-1.64119 8.45133,-2.77766 12.71985,-4.15698c1.34697,-0.43526 2.67772,-0.7959 4.08646,-0.9975c0.38546,-0.05516 0.83744,-0.30476 1.16442,-0.09332c1.15808,0.7488 1.00451,1.91466 1.07843,3.02986c0.14746,2.22447 -0.29195,4.36244 0.1487,6.57342c0.32582,1.69375 0.46422,3.47693 0.63408,5.19214c0.05862,0.5919 0.49095,1.61311 0.00916,2.17905c-0.9879,1.16041 -4.23564,1.2122 -5.63719,1.48726c-4.27365,0.83871 -8.56815,1.59008 -12.78748,2.67103c-1.4964,0.43836 -2.91277,0.90083 -4.29034,1.5515c0.03266,0.20747 -0.00416,0.49167 -0.3533,0.68952c-0.3788,0.21465 -0.65591,0.06167 -0.81195,-0.08584c-0.04603,0.0261 -0.09203,0.05249 -0.13799,0.07915l-0.33655,0.36663c0,0 -0.49875,0.49517 -0.99392,-0.00358z" fill="#000000" stroke="none" stroke-width="0.5" stroke-linecap="butt"/><g stroke="none" stroke-width="0.5" stroke-linecap="butt"><path d="M232.63362,181.69201c-0.07144,0.01375 -0.15675,0.00397 -0.25463,-0.05213c-0.12065,-0.06915 -0.17091,-0.15739 -0.1864,-0.24106c-0.04991,-0.03825 -0.27924,-0.23607 -0.09076,-0.51408c0.11323,-0.16702 0.25541,-0.18324 0.36259,-0.16258c0.52171,-0.94884 1.67434,-3.01152 2.12593,-2.98323c2.07687,0.1301 2.18047,3.8648 3.21733,0.80896c0.31684,-0.65174 0.52486,-1.86579 1.04992,-2.35373c0.50246,-0.46694 3.27015,-0.00549 3.46166,0.80726c0.21802,0.92526 -1.45803,3.53416 -1.73688,4.59778c-0.41011,1.09869 3.47552,2.11172 3.47427,3.04829c-0.00031,0.23079 -0.59608,0.94774 -0.81029,1.21639c-1.92814,2.41813 -2.52385,1.39578 -4.64699,-0.38887c-1.64144,-1.25215 -1.00303,3.01427 -2.64453,3.38754c-3.05178,0.69396 -3.08781,-1.17052 -2.28256,-3.36529c0.10729,-0.20361 1.21836,-2.30817 1.19271,-2.33565c-0.47888,-0.51289 -1.5081,-1.01899 -2.23137,-1.46961zM233.12566,181.11177c0.79668,0.48043 2.18728,1.21833 2.45138,1.8143c0.245,0.55286 -0.95447,2.37489 -1.21942,2.87585c-0.06816,0.18668 -0.96108,2.04393 -0.83949,2.13889c0.0787,0.06146 2.29673,0.21562 2.34795,0.11269c0.38124,-0.76618 0.99761,-3.37556 1.75951,-3.783c0.45927,-0.2456 1.12704,0.37874 1.4425,0.61902c0.482,0.40495 1.90486,2.12495 2.52907,2.05525c0.13429,-0.015 1.4592,-1.91548 1.72227,-2.15944c0.35018,-0.32474 -0.86043,-0.42821 -1.23924,-0.71904c-0.85925,-0.65969 -2.36156,-1.43421 -2.23037,-2.62785c0.39518,-1.50629 0.95039,-2.97205 1.73328,-4.29363c0.12923,-0.21815 -0.51019,-0.02761 -0.75478,-0.09443c-0.41944,-0.11459 -0.87302,-0.32558 -1.28601,-0.40403c-0.25157,-0.04779 -0.90761,1.91462 -1.04142,2.18788c-0.94722,2.74919 -2.41173,1.38528 -3.79172,-0.35476c-0.20198,-0.25468 -0.20662,0.62476 -0.38741,0.89489c-0.40095,0.5991 -0.8182,1.14003 -1.19609,1.73742z" fill="#000000"/><path d="M234.28686,179.33853c0.18079,-0.27013 0.19213,-1.15505 0.39411,-0.90037c1.37998,1.74004 2.88312,3.09636 3.83035,0.34717c0.13381,-0.27326 0.79408,-2.23457 1.04564,-2.18678c0.413,0.07846 0.87608,0.29347 1.29552,0.40807c0.24459,0.06682 0.88838,-0.12101 0.75915,0.09715c-0.78289,1.32158 -1.32411,2.8021 -1.71929,4.30839c-0.13119,1.19364 1.37665,2.00825 2.2359,2.66794c0.37881,0.29083 1.58853,0.39707 1.23836,0.72181c-0.26307,0.24396 -1.60071,2.16412 -1.735,2.17912c-0.62421,0.0697 -2.05353,-1.64511 -2.53553,-2.05006c-0.31546,-0.24028 -1.01218,-0.85606 -1.47145,-0.61046c-0.76191,0.40744 -1.3934,3.01416 -1.77464,3.78035c-0.05121,0.10293 -2.28447,-0.0596 -2.36318,-0.12106c-0.12159,-0.09496 0.76571,-1.95749 0.83387,-2.14417c0.26495,-0.50096 1.45146,-2.35354 1.20647,-2.90641c-0.2641,-0.59597 -1.65166,-1.35443 -2.44834,-1.83486c0.37789,-0.59739 0.80712,-1.15671 1.20807,-1.75581z" data-paper-data="{&quot;noHover&quot;:false,&quot;origItem&quot;:[&quot;Path&quot;,{&quot;applyMatrix&quot;:true,&quot;segments&quot;:[[[233.12566,177.11177],[0.37789,-0.59739],[0.79668,0.48043]],[[235.57704,178.92607],[-0.2641,-0.59597],[0.245,0.55286]],[[234.35761,181.80192],[0.26495,-0.50096],[-0.06816,0.18668]],[[233.51812,183.94081],[-0.12159,-0.09496],[0.0787,0.06146]],[[235.86607,184.05351],[-0.05121,0.10293],[0.38124,-0.76618]],[[237.62558,180.27051],[-0.76191,0.40744],[0.45927,-0.2456]],[[239.06808,180.88953],[-0.31546,-0.24028],[0.482,0.40495]],[[241.59715,182.94478],[-0.62421,0.0697],[0.13429,-0.015]],[[243.31942,180.78534],[-0.26307,0.24396],[0.35018,-0.32474]],[[242.08018,180.06629],[0.37881,0.29083],[-0.85925,-0.65969]],[[239.84981,177.43844],[-0.13119,1.19364],[0.39518,-1.50629]],[[241.58309,173.14481],[-0.78289,1.32158],[0.12923,-0.21815]],[[240.8283,173.05038],[0.24459,0.06682],[-0.41944,-0.11459]],[[239.54229,172.64634],[0.413,0.07846],[-0.25157,-0.04779]],[[238.50087,174.83422],[0.13381,-0.27326],[-0.94722,2.74919]],[[234.70916,174.47946],[1.37998,1.74004],[-0.20198,-0.25468]],[[234.32175,175.37435],[0.18079,-0.27013],[-0.40095,0.5991]]],&quot;closed&quot;:true}]}" fill="#ffffff"/></g><g stroke="none" stroke-width="0.5" stroke-linecap="butt"><path d="M244.42127,178.91706c-0.07145,0.01375 -0.15675,0.00397 -0.25463,-0.05213c-0.12064,-0.06915 -0.17091,-0.15739 -0.1864,-0.24106c-0.04991,-0.03825 -0.27924,-0.23607 -0.09077,-0.51408c0.11324,-0.16702 0.25541,-0.18323 0.36259,-0.16258c0.52171,-0.94885 1.67434,-3.01152 2.12593,-2.98323c2.07688,0.1301 2.18048,3.8648 3.21733,0.80897c0.31683,-0.65174 0.52486,-1.86579 1.04992,-2.35373c0.50245,-0.46694 3.27015,-0.00549 3.46166,0.80726c0.21802,0.92526 -1.45803,3.53416 -1.73688,4.59778c-0.41011,1.09869 3.47552,2.11173 3.47427,3.04829c-0.00031,0.2308 -0.59608,0.94773 -0.81029,1.21639c-1.92815,2.41813 -2.52385,1.39578 -4.64699,-0.38887c-1.64144,-1.25215 -1.00304,3.01427 -2.64453,3.38754c-3.05178,0.69396 -3.08781,-1.17052 -2.28256,-3.3653c0.10728,-0.20361 1.21836,-2.30817 1.19271,-2.33564c-0.47888,-0.51289 -1.5081,-1.01899 -2.23137,-1.46961zM244.91332,178.33682c0.79668,0.48043 2.18727,1.21833 2.45137,1.8143c0.245,0.55286 -0.95447,2.37489 -1.21942,2.87585c-0.06816,0.18668 -0.96109,2.04394 -0.83949,2.13889c0.0787,0.06146 2.29673,0.21562 2.34795,0.1127c0.38125,-0.76619 0.9976,-3.37556 1.75951,-3.783c0.45927,-0.2456 1.12704,0.37873 1.4425,0.61901c0.482,0.40494 1.90486,2.12496 2.52907,2.05525c0.13429,-0.01499 1.4592,-1.91547 1.72227,-2.15944c0.35018,-0.32474 -0.86043,-0.42821 -1.23924,-0.71904c-0.85925,-0.65968 -2.36156,-1.43421 -2.23037,-2.62785c0.39518,-1.50629 0.9504,-2.97205 1.73328,-4.29363c0.12923,-0.21815 -0.5102,-0.02761 -0.75478,-0.09444c-0.41944,-0.1146 -0.87301,-0.32557 -1.28601,-0.40403c-0.25156,-0.04779 -0.90761,1.91462 -1.04142,2.18788c-0.94723,2.74919 -2.41173,1.38528 -3.79171,-0.35476c-0.20198,-0.25468 -0.20661,0.62475 -0.38741,0.89489c-0.40095,0.5991 -0.8182,1.14003 -1.19609,1.73742z" fill="#000000"/><path d="M246.07452,176.56358c0.18079,-0.27014 0.19213,-1.15506 0.39411,-0.90037c1.37999,1.74004 2.88313,3.09636 3.83035,0.34716c0.13381,-0.27326 0.79407,-2.23457 1.04564,-2.18678c0.413,0.07846 0.87608,0.29347 1.29552,0.40806c0.24459,0.06682 0.88837,-0.121 0.75914,0.09715c-0.78288,1.32158 -1.32411,2.8021 -1.71929,4.30839c-0.13118,1.19364 1.37665,2.00826 2.2359,2.66794c0.37881,0.29083 1.58854,0.39708 1.23835,0.72181c-0.26307,0.24397 -1.60072,2.16412 -1.73501,2.17911c-0.62421,0.0697 -2.05353,-1.64511 -2.53553,-2.05006c-0.31546,-0.24028 -1.01217,-0.85606 -1.47144,-0.61046c-0.76191,0.40743 -1.3934,3.01416 -1.77464,3.78034c-0.05122,0.10292 -2.28448,-0.0596 -2.36318,-0.12106c-0.1216,-0.09496 0.76571,-1.95749 0.83388,-2.14417c0.26495,-0.50096 1.45146,-2.35354 1.20646,-2.90641c-0.2641,-0.59597 -1.65166,-1.35443 -2.44834,-1.83486c0.37789,-0.59739 0.80712,-1.15671 1.20807,-1.75581z" data-paper-data="{&quot;noHover&quot;:false,&quot;origItem&quot;:[&quot;Path&quot;,{&quot;applyMatrix&quot;:true,&quot;segments&quot;:[[[466.25132,354.22354],[0.75579,-1.19478],[1.59336,0.96086]],[[471.15407,357.85214],[-0.5282,-1.19193],[0.49,1.10573]],[[468.71523,363.60384],[0.5299,-1.00192],[-0.13633,0.37336]],[[467.03625,367.88163],[-0.24319,-0.18992],[0.1574,0.12293]],[[471.73214,368.10702],[-0.10243,0.20585],[0.76249,-1.53237]],[[475.25117,360.54102],[-1.52382,0.81487],[0.91854,-0.4912]],[[478.13616,361.77905],[-0.63092,-0.48056],[0.964,0.80989]],[[483.1943,365.88955],[-1.24842,0.13941],[0.26858,-0.02999]],[[486.63884,361.57067],[-0.52614,0.48793],[0.70036,-0.64948]],[[484.16036,360.13259],[0.75762,0.58166],[-1.7185,-1.31937]],[[479.69962,354.87688],[-0.26237,2.38728],[0.79036,-3.01258]],[[483.16618,346.28962],[-1.56577,2.64316],[0.25846,-0.4363]],[[481.65661,346.10075],[0.48918,0.13365],[-0.83888,-0.22919]],[[479.08458,345.29268],[0.826,0.15692],[-0.50313,-0.09558]],[[477.00174,349.66844],[0.26762,-0.54652],[-1.89445,5.49839]],[[469.41831,348.95892],[2.75997,3.48007],[-0.40396,-0.50936]],[[468.6435,350.7487],[0.36158,-0.54027],[-0.8019,1.19819]]],&quot;closed&quot;:true}]}" fill="#ffffff"/></g><g data-paper-data="{&quot;index&quot;:null}" stroke="#000000" stroke-width="0.625" stroke-linecap="butt"><g data-paper-data="{&quot;index&quot;:null}" fill="#000000"><path d="M239.28077,190.24517c4.77778,-1.23577 3.69567,1.21884 3.69567,1.21884l-6.37917,1.62604c0,0 -2.3906,-1.48156 2.68349,-2.84488z"/></g><g data-paper-data="{&quot;index&quot;:null}" fill="#ffffff"><path d="M239.28075,190.24516c0.9773,-0.25278 1.70942,-0.35115 2.25576,-0.3477c0.00979,0.00006 -0.23625,0.51199 -0.13671,0.91712c0.12154,0.49465 0.59166,0.90049 0.59017,0.90087c-1.077,0.27453 -5.3927,1.3746 -5.3927,1.3746c0,0 -2.3906,-1.48156 2.68349,-2.84488z"/></g></g></g></g></svg>