<svg version="1.1" xmlns="http://www.w3.org/2000/svg" xmlns:xlink="http://www.w3.org/1999/xlink" width="29.32228" height="31.03526" viewBox="0,0,29.32228,31.03526"><g transform="translate(-228.78376,-165.43801)"><g data-paper-data="{&quot;isPaintingLayer&quot;:true}" fill-rule="nonzero" stroke="#000000" stroke-width="1.25" stroke-linecap="round" stroke-linejoin="miter" stroke-miterlimit="10" stroke-dasharray="" stroke-dashoffset="0" style="mix-blend-mode: normal"><path d="M231.34892,174.06312c0.7295,-2.33839 2.30334,-2.9129 2.30334,-2.9129c0,0 1.41876,-0.82994 2.2586,-0.79654c2.51953,0.10023 9.69318,0.72323 15.82319,1.83255c0.20458,0.03702 0.31822,0.06525 0.52025,0.11439c0.60604,0.14744 2.94854,0.82323 2.94854,0.82323c0,0 0.7371,1.82564 0.9042,2.7949c0.50131,2.90777 -1.00463,10.03111 -1.96268,17.59304c-0.08682,0.68539 -1.1168,1.77534 -1.1168,1.77534c0,0 -1.79107,0.67499 -2.86929,0.54436c-6.97087,-0.84449 -14.68054,-1.8045 -16.432,-2.1396c-0.58382,-0.11169 -1.89791,-0.50681 -2.77071,-1.33352c-0.87281,-0.8267 -1.62528,-1.75977 -1.54023,-2.74976c0.08505,-0.99001 1.13539,-12.98691 1.9336,-15.5455z" fill="#582700"/><path d="M232.72292,168.97589c0.7295,-2.33839 2.30333,-2.91288 2.30333,-2.91288c0,0 1.41876,-0.82994 2.25861,-0.79652c2.51955,0.10023 9.69318,0.72321 15.82319,1.83255c0.20458,0.03701 0.31822,0.06525 0.52025,0.11439c0.60604,0.14744 2.94854,0.82323 2.94854,0.82323c0,0 0.7371,1.82564 0.9042,2.7949c0.50131,2.90777 -1.00463,10.03111 -1.96267,17.59304c-0.08682,0.68539 -1.11679,1.77533 -1.11679,1.77533c0,0 -1.79107,0.675 -2.86929,0.54438c-6.97087,-0.84449 -14.68054,-1.8045 -16.432,-2.1396c-0.58382,-0.1117 -1.89791,-0.50681 -2.77071,-1.33354c-0.87281,-0.8267 -1.62528,-1.75975 -1.54025,-2.74976c0.08503,-0.98999 1.13541,-12.98691 1.9336,-15.54551z" fill="#000000"/></g></g></svg>