<svg version="1.1" xmlns="http://www.w3.org/2000/svg" xmlns:xlink="http://www.w3.org/1999/xlink" width="41.03009" height="35.65676" viewBox="0,0,41.03009,35.65676"><g transform="translate(-278.69742,-159.87524)"><g data-paper-data="{&quot;isPaintingLayer&quot;:true}" fill-rule="nonzero" stroke-width="0.75" stroke-linejoin="miter" stroke-miterlimit="10" stroke-dasharray="" stroke-dashoffset="0" style="mix-blend-mode: normal"><path d="M309.84571,194.51734c-6.44461,0.32266 -12.69509,0.61644 -15.27205,0.18651c-2.35516,-0.39292 -3.11798,-1.82791 -3.11798,-1.82791c0,0 -0.98907,-1.25261 -1.06772,-2.06302c-0.23593,-2.43124 -0.58155,-9.39786 -0.31955,-15.42678c0.00875,-0.20121 0.02099,-0.31399 0.04179,-0.51433c0.06238,-0.60101 0.40581,-2.93796 0.40581,-2.93796c0,0 1.66619,-0.94725 2.5804,-1.23496c2.74265,-0.86312 9.82255,-0.35363 17.25379,-0.42759c0.67353,-0.0067 1.86243,0.83859 1.86243,0.83859c0,0 0.88859,1.6303 0.9048,2.68225c0.10487,6.80112 0.19572,14.32645 0.10333,16.0514c-0.03078,0.57498 -0.92224,2.83432 -0.92224,2.83432z" data-paper-data="{&quot;index&quot;:null}" fill="#a03d3d" stroke="#5d2f36" stroke-linecap="round"/><path d="M310.35176,194.17989c-5.6378,0.2756 -11.10579,0.52557 -13.36152,0.13056c-2.06159,-0.361 -2.73258,-1.65988 -2.73258,-1.65988c0,0 -0.86848,-1.13461 -0.93931,-1.86729c-0.21248,-2.19804 -0.5322,-8.49557 -0.31797,-13.94407c0.00714,-0.18185 0.01757,-0.28374 0.03527,-0.46476c0.05308,-0.54306 0.34775,-2.65442 0.34775,-2.65442c0,0 1.45543,-0.85201 2.25459,-1.10978c2.39748,-0.77329 8.59319,-0.29517 15.09482,-0.34352c0.58927,-0.00438 1.63159,0.76258 1.63159,0.76258c0,0 0.7815,1.47572 0.7983,2.42656c0.10869,6.14736 0.2069,12.94926 0.13036,14.50809c-0.02551,0.51961 -0.79984,2.55946 -0.79984,2.55946z" data-paper-data="{&quot;index&quot;:null}" fill="#a03d3d" stroke="#5d2f36" stroke-linecap="round"/><path d="M309.73526,194.75513c-6.44461,0.32267 -12.69508,0.61643 -15.27204,0.1865c-2.35516,-0.39292 -3.11798,-1.82791 -3.11798,-1.82791c0,0 -0.98907,-1.2526 -1.06771,-2.06302c-0.23594,-2.43125 -0.58156,-9.39787 -0.31956,-15.42678c0.00875,-0.20121 0.02097,-0.31399 0.04179,-0.51433c0.06238,-0.60101 0.40582,-2.93795 0.40582,-2.93795c0,0 1.66619,-0.94726 2.58041,-1.23497c2.74264,-0.86312 9.82254,-0.35363 17.25378,-0.42759c0.67353,-0.00671 1.86243,0.83859 1.86243,0.83859c0,0 0.88859,1.63029 0.9048,2.68225c0.10486,6.80111 0.19572,14.32646 0.10333,16.05141c-0.03078,0.57499 -0.92223,2.83432 -0.92223,2.83432z" data-paper-data="{&quot;index&quot;:null}" fill="#ffddb7" stroke="#000000" stroke-linecap="round"/><path d="M308.43811,187.44715c-0.27243,0.0042 -0.51611,-1.47353 -0.54429,-3.30055c-0.02817,-1.82702 0.16983,-3.31155 0.44226,-3.31573c0.27244,-0.0042 0.51611,1.47353 0.5443,3.30055c0.02817,1.82702 -0.16983,3.31154 -0.44226,3.31573z" data-paper-data="{&quot;index&quot;:null}" fill="#000000" stroke="#000000" stroke-linecap="butt"/><path d="M304.45914,184.3383c-0.02869,-1.86086 0.11369,-3.37195 0.318,-3.37508c0.20432,-0.00313 0.39321,1.50285 0.42191,3.36372c0.02869,1.86087 -0.11366,3.37194 -0.31799,3.37509c-0.20432,0.00313 -0.39322,-1.50284 -0.42192,-3.36371z" data-paper-data="{&quot;index&quot;:null}" fill="#a03d3d" stroke="#000000" stroke-linecap="butt"/><path d="M312.70393,182.07922c-0.06755,-0.41474 -0.13412,-0.82928 -0.20294,-1.24336c-0.40654,0.24748 -0.79172,0.46367 -0.86589,0.50853c-0.81472,0.49288 -2.11813,1.3054 -3.0404,1.5062c-0.45097,0.0982 -0.98614,0.31413 -1.38269,0.07933c-0.49037,-0.29037 -0.4681,-1.55545 -0.49292,-2.03839c-0.09332,-1.81573 -0.18243,-3.6317 -0.2732,-5.44758c-0.80035,0.95015 -2.10204,1.80864 -2.87594,2.65914c-1.74091,1.91316 -3.61268,3.64989 -5.43201,5.46749c-0.62404,0.62346 -1.13798,1.21189 -1.8333,1.76138c-0.26657,0.21067 -0.4408,0.64855 -0.78133,0.65427c-0.47556,0.00801 -0.85554,-0.41304 -1.28331,-0.61956c-0.10804,-0.82754 -0.23456,-1.87857 -0.22877,-2.83722c-0.3792,0.58163 -0.89485,1.15293 -1.18615,1.65582c-1.01551,1.75313 -2.71663,6.70459 -2.71663,6.70459c-2.01128,0.05863 -3.9573,-1.67202 -5.19814,-3.08041c-1.07797,0.03496 -2.14587,-0.00803 -3.23021,0.04583c-0.25852,0.01284 -1.70085,0.10721 -1.86691,0.00692c-1.02317,-0.6179 -0.76023,-1.28372 -0.5311,-2.16762c0.18332,-0.70722 0.54111,-1.3193 1.00549,-1.85128c-0.60039,-0.32356 -1.29096,-0.72184 -1.49632,-1.19427c-0.37133,-0.85422 -0.05024,-1.22095 0.30405,-1.9023c0.39649,-0.76253 0.92109,-1.42517 1.53082,-2.00409c-0.38007,-0.20732 -0.78774,-0.44495 -0.83796,-0.54148c-0.53008,-1.01904 -0.05926,-1.44501 0.37876,-2.22742c0.75559,-1.34967 2.17116,-2.18341 3.51304,-2.81167c0.0199,-1.3464 0.61937,-2.21725 1.21401,-3.44137c0.78313,-1.61213 2.2521,-3.98 4.60003,-5.84848c2.57649,-2.05036 5.8814,-3.32917 6.91231,-3.62198c2.23719,-0.63546 5.13784,-0.73692 6.2661,-0.67985c2.07844,0.10513 5.80294,0.9069 8.52817,2.46129c2.74642,1.56647 4.29284,3.73438 4.51014,4.08735c1.89704,3.08143 3.16747,6.03677 3.35185,9.61973c0.04493,0.89597 0.83058,5.54771 -0.39095,8.16573c-1.48393,3.18045 -5.16152,4.75226 -5.31485,4.81164c-0.18158,0.07034 -0.94709,-0.01154 -1.08436,-0.5624c-0.33061,-1.32694 0.11445,-4.15278 0.3786,-5.28124c0.05157,-0.18344 0.09792,-0.36817 0.14156,-0.55364c-0.06992,-0.12519 -0.08857,-0.23963 -0.08857,-0.23963z" data-paper-data="{&quot;index&quot;:null}" fill="#000000" stroke="#000000" stroke-linecap="butt"/><path d="M302.90829,191.55284c0,0 -4.7345,1.1977 -6.01195,1.42958c-2.00696,0.3643 -1.85437,-3.55405 -1.85437,-3.55405l9.99004,2.28875z" data-paper-data="{&quot;index&quot;:null}" fill="#ffffff" stroke="#000000" stroke-linecap="round"/></g></g></svg>