<svg version="1.1" xmlns="http://www.w3.org/2000/svg" xmlns:xlink="http://www.w3.org/1999/xlink" width="306.30631" height="274.77477" viewBox="0,0,306.30631,274.77477"><g transform="translate(-86.84686,-42.61264)"><g data-paper-data="{&quot;isPaintingLayer&quot;:true}" fill-rule="nonzero" stroke-linecap="butt" stroke-linejoin="miter" stroke-miterlimit="10" stroke-dasharray="" stroke-dashoffset="0" style="mix-blend-mode: normal"><path d="M86.84686,317.38741v-274.77477h306.30631v274.77477z" data-paper-data="{&quot;index&quot;:null}" fill="none" stroke="none" stroke-width="0"/><text transform="translate(271.55606,110.72268) rotate(-180) scale(0.1602,-0.1602)" font-size="40" xml:space="preserve" data-paper-data="{&quot;index&quot;:null}" fill="#000000" fill-rule="nonzero" stroke="none" stroke-width="1" stroke-linecap="butt" stroke-linejoin="miter" stroke-miterlimit="10" stroke-dasharray="" stroke-dashoffset="0" font-family="Sans Serif" font-weight="normal" text-anchor="start" style="mix-blend-mode: normal"><tspan x="0" dy="0">AwezomeXD</tspan><tspan x="0" dy="46.150000000000006px"> </tspan><tspan x="0" dy="46.150000000000006px">MeIzAwezomeDede</tspan></text><g data-paper-data="{&quot;index&quot;:null}"><g><g><g><path d="M198.72684,129.31248c0,0 -4.79709,-11.15428 2.34194,-16.80077c5.0676,-4.00812 21.38295,-1.13352 32.15395,-3.63176c12.24414,-2.83993 35.13584,-9.16132 35.13584,-9.16132c0,0 5.6575,2.25388 7.59865,1.87611c2.42373,-0.4717 4.38102,-4.24217 4.38102,-4.24217c0,0 1.15952,3.99997 1.41996,7.34983c0.98096,12.6177 -8.85067,13.94175 -8.85067,13.94175c0,0 4.61343,5.16322 5.32519,9.40383c0.74816,4.45766 -2.56704,7.35361 -2.56704,7.35361c0,0 2.91532,3.15648 3.53226,6.69905c0.40728,2.33868 0.41637,6.269 0.38768,8.72397c-0.04892,4.18938 7.82767,7.23805 7.82767,7.23805c0,0 -3.52351,3.76234 -6.20968,4.64599c-2.7341,0.89941 -9.4006,-1.25134 -9.4006,-1.25134c0,0 -2.36497,0.9638 -2.48129,3.82923c-0.03667,0.90328 0.49525,2.89768 0.75858,3.81143c0.88823,3.08211 -0.77354,5.56794 -0.77354,5.56794c0,0 -1.9572,-3.22733 -2.86525,-3.97358c-0.66645,-0.54771 -1.28959,-0.66013 -1.28959,-0.66013c0,0 -0.83147,4.4805 -0.13663,6.89586c1.54547,5.37227 4.42364,11.90503 3.19583,12.20691c-2.2201,0.54582 -5.35872,-2.99943 -7.98965,-3.07339c-2.42153,-0.06806 -5.65205,-6.09074 -5.65205,-6.09074c0,0 -1.08501,7.00275 -3.79203,8.21421c-2.6269,1.17564 -3.58198,6.49713 -4.72206,6.77071c-4.15598,0.99729 -10.63397,-11.24026 -10.63397,-11.24026c0,0 -10.9591,9.95853 -14.07075,7.82488c-3.67249,-2.51824 -6.72478,-18.1419 -6.72478,-18.1419c0,0 -6.06374,-3.8628 -6.85289,-6.61254c-1.77226,-6.17541 0.7336,-11.57488 0.7336,-11.57488c0,0 -3.144,0.7473 -4.56498,2.10433c-1.51037,1.44242 -4.24547,6.30963 -4.24547,6.30963c0,0 -1.94907,-5.39693 -1.8485,-8.11988c0.10578,-2.8635 2.46837,-8.66068 2.46837,-8.66068c0,0 -5.13755,-2.94765 -7.67054,-7.88476c-1.35758,-2.64605 -1.24967,-8.72081 -1.24967,-8.72081c0,0 4.70073,3.35233 6.52407,3.68897c1.4144,0.26113 1.06646,-2.73283 1.06646,-2.73283z" fill="#6d0f0a" stroke="#000000" stroke-width="2"/><path d="M193.19215,106.73429c0.30703,-5.54 3.91181,-12.93695 6.02813,-17.99471c2.99919,-7.1676 10.98788,-11.48927 18.01936,-13.12016c9.24337,-2.14392 17.17749,6.17621 17.17749,6.17621c0,0 9.02,-5.59688 16.46667,-5.10363c7.19412,0.4765 13.30547,7.542 14.96268,9.27116c2.52468,2.63429 6.48727,16.02834 6.48727,16.02834c0,0 -23.41436,25.93778 -38.06469,29.33577c-15.65098,3.63009 -28.87494,-11.46871 -34.0899,-7.7345c-1.83494,1.31393 -3.17994,0.60502 -3.17994,0.60502c0,0 -4.37418,-7.2304 -3.80707,-17.4635z" fill="#6d0f0a" stroke="#000000" stroke-width="2"/><path d="M197.83449,93.75817c0,0 1.6248,-3.42772 2.51782,-4.95022c0.852,-1.45254 2.72299,-3.98487 2.72299,-3.98487c0,0 9.10909,4.78243 13.65231,5.4997c4.76089,0.75164 12.02892,-2.40525 12.02892,-2.40525c0,0 0.39515,2.28659 0.78632,3.18131c0.41356,0.94595 1.16895,2.45655 1.16895,2.45655c0,0 0.93437,-2.01413 1.14034,-2.84143c0.22246,-0.89355 0.53988,-2.75223 0.53988,-2.75223c0,0 2.26433,3.46056 3.25553,4.73092c0.8117,1.04032 2.26152,2.33989 2.26152,2.33989c0,0 -0.38367,-2.09897 -0.66429,-3.17541c-0.29711,-1.13966 -1.07175,-3.48368 -1.07175,-3.48368c0,0 10.07063,2.85959 16.16521,3.5595c0.12236,0.01404 4.66482,-0.79511 5.00947,-0.80803c7.41046,-0.27784 3.49854,-9.10165 3.49854,-9.10165c0,0 3.32068,2.96485 4.89825,5.8003c1.60004,2.87584 4.63549,11.33528 4.63549,11.33528c0,0 -5.75569,-2.23711 -10.79758,-1.91199c-0.89466,0.05769 -10.53394,1.21612 -10.53394,1.21612c0,0 -1.76168,-1.88998 -2.66988,-2.65114c-0.88997,-0.74588 -2.72568,-1.8709 -2.72568,-1.8709c0,0 -0.87528,2.03848 -1.26719,3.27202c-0.47088,1.48196 -1.36479,5.01201 -1.36479,5.01201c0,0 -1.18537,-1.69755 -1.99359,-2.57724c-0.89914,-0.97867 -3.15753,-3.02961 -3.15753,-3.02961c0,0 -1.22268,0.67286 -1.85345,1.27115c-0.87566,0.83056 -2.91128,3.24806 -2.91128,3.24806c0,0 -1.24029,-2.70414 -1.93361,-3.88266c-0.59985,-1.01965 -1.98668,-2.78122 -1.98668,-2.78122c0,0 -1.42503,1.39857 -2.15064,2.28989c-0.90547,1.11227 -2.86313,3.86875 -2.86313,3.86875c0,0 -8.45788,-6.62646 -12.64002,-7.80771c-3.91201,-1.10497 -11.69653,0.93383 -11.69653,0.93383z" fill="#c42d06" stroke="none" stroke-width="0"/></g><path d="M220.84293,136.63664c0,0 -19.09942,-3.31936 -19.66319,-4.67027c-0.09779,-0.23435 1.33734,-9.13697 0.97966,-9.96949c-0.65335,-1.52068 -4.84278,0.24992 -4.84278,0.24992c0,0 61.96273,-18.08151 71.73161,-20.49954c2.48871,-0.61602 5.44896,1.40063 5.44896,1.40063l-8.72156,20.6718z" fill="#6d0f0a" stroke="none" stroke-width="NaN"/></g><path d="M235.82406,82.87727c0,0 -4.47515,-1.10371 -3.61182,-6.86143c0.04549,-0.30337 0.5337,-1.56524 0.71966,-1.85465c1.42496,-2.21765 6.29854,-3.18406 6.29854,-3.18406c0,0 -2.40655,4.92735 -3.18407,6.60364c-0.69302,1.49413 -0.2223,5.2965 -0.2223,5.2965z" fill="#6d0f0a" stroke="#000000" stroke-width="1.5"/><path d="M229.0146,72.81179c0,0 1.48302,0.84421 2.15216,2.50535c0.51609,0.80004 1.16219,3.61199 1.16219,3.61199l-2.01072,-0.8307z" fill="#000000" stroke="none" stroke-width="0"/></g><path d="M234.78293,81.52929l3.73976,-0.51685c0,0 -2.26537,4.7139 -2.7566,4.94711c-0.6877,0.32651 -3.94817,-4.61371 -3.94817,-4.61371z" fill="#6d0f0a" stroke="none" stroke-width="0"/></g><g data-paper-data="{&quot;index&quot;:null}"><text transform="translate(294.68338,229.0029) rotate(-180) scale(0.27921,-0.27921)" font-size="40" xml:space="preserve" fill="#000000" fill-rule="nonzero" stroke="none" stroke-width="1" stroke-linecap="butt" stroke-linejoin="miter" stroke-miterlimit="10" stroke-dasharray="" stroke-dashoffset="0" font-family="Sans Serif" font-weight="normal" text-anchor="start" style="mix-blend-mode: normal"><tspan x="0" dy="0">AwezomeXD</tspan><tspan x="0" dy="46.150000000000006px"> </tspan><tspan x="0" dy="46.150000000000006px">MeIzAwezomeDede</tspan></text><g data-paper-data="{&quot;index&quot;:null}"><g><path d="M304.61432,280.7271c-0.97394,-0.3343 -2.81981,-1.05375 -2.81981,-1.05375l2.00112,-62.99775c0,0 3.12264,-3.42551 4.77674,-5.10754c1.78782,-1.81801 6.83093,-5.9246 6.83093,-5.9246c0,0 5.94054,0.17965 11.08569,1.75457c7.39586,2.26385 29.04162,10.52827 29.04162,10.52827c0,0 -0.29139,23.00613 -1.11993,33.98866c-0.74728,9.90532 -3.63272,29.00908 -3.63272,29.00908c0,0 -14.3168,1.48011 -21.61682,1.59314c-7.15813,0.11083 -21.76596,-0.92143 -21.76596,-0.92143c0,0 -1.89659,-0.56514 -2.78087,-0.86866z" fill="#434253" stroke="#000000" stroke-width="2.5"/><path d="M306.04173,281.58894c0,0 3.19421,-16.34268 5.26935,-30.13714c1.48339,-9.86081 2.04443,-18.33187 2.06476,-19.00203c0.15509,-5.11269 -0.3723,-9.50368 -0.00091,-14.70459c0.49814,-6.97594 1.18056,-11.43244 1.18056,-11.43244l2.10035,-1.22928c0,0 -1.17975,18.14658 -2.93073,35.27697c-0.73182,7.15966 -2.77258,22.22022 -3.75528,31.64788c-0.10799,1.03599 0.50491,2.39047 0.4064,3.33489c-0.55015,5.27458 -0.93311,6.24975 -0.93311,6.24975l-3.40139,-0.00403z" fill="#000000" stroke="none" stroke-width="0"/></g><g stroke="#000000" stroke-width="1.5"><path d="M345.29835,263.35312c0.94113,9.66742 -4.93088,16.17699 -12.88074,16.95092c-7.94986,0.77393 -14.77082,-5.25083 -14.91119,-14.96294c-0.15638,-10.82018 5.8426,-16.14324 12.54261,-16.73861c6.71115,-0.59636 14.44659,6.50489 15.24932,14.75063z" fill="#2c262f"/><path d="M323.67439,268.45714c-0.26544,-2.72671 1.31874,-5.06632 3.56101,-5.2846c2.24227,-0.21828 3.76096,1.25807 4.0264,3.98478c0.26545,2.72671 -1.3891,5.14677 -3.63137,5.36505c-2.24227,0.21828 -3.69059,-1.33852 -3.95603,-4.06523z" data-paper-data="{&quot;index&quot;:null}" fill="#1b171c"/></g><g stroke="#000000" stroke-width="1.5"><path d="M334.90073,214.22597c6.72176,-0.46163 14.18059,7.06601 14.65957,15.33688c0.56156,9.69688 -5.56103,15.97134 -13.53511,16.43313c-7.97408,0.46179 -14.55372,-5.82563 -14.31338,-15.53578c0.26776,-10.81801 6.4647,-15.77245 13.18893,-16.23424z" fill="#2c262f"/><path d="M327.75296,233.81558c-0.15839,-2.73501 1.51626,-5.01074 3.76536,-5.14099c2.2491,-0.13025 3.70876,1.40448 3.86715,4.1395c0.15839,2.73502 -1.58973,5.08838 -3.83883,5.21863c-2.2491,0.13025 -3.6353,-1.48212 -3.79369,-4.21714z" data-paper-data="{&quot;index&quot;:null}" fill="#1b171c"/></g></g><g><g><path d="M178.20551,279.80011c0,0 -1.84588,0.71945 -2.81982,1.05375c-0.88428,0.30352 -2.78086,0.86866 -2.78086,0.86866c0,0 -14.60784,1.03226 -21.76596,0.92143c-7.30001,-0.11302 -21.61681,-1.59314 -21.61681,-1.59314c0,0 -2.88544,-19.10377 -3.63272,-29.00909c-0.82854,-10.98252 -1.11993,-33.98866 -1.11993,-33.98866c0,0 21.64575,-8.26442 29.04162,-10.52827c5.14515,-1.57491 11.08569,-1.75457 11.08569,-1.75457c0,0 5.04312,4.1066 6.83094,5.9246c1.6541,1.68203 4.77674,5.10754 4.77674,5.10754l2.00112,62.99775z" fill="#434253" stroke="#000000" stroke-width="2.5"/><path d="M173.95829,281.71568l-3.40139,0.00403c0,0 -0.38295,-0.97517 -0.93311,-6.24976c-0.0985,-0.94441 0.51439,-2.2989 0.40641,-3.33488c-0.98271,-9.42766 -3.02346,-24.48823 -3.75529,-31.64789c-1.75097,-17.13039 -2.93073,-35.27697 -2.93073,-35.27697l2.10035,1.22928c0,0 0.68243,4.4565 1.18057,11.43244c0.37139,5.20091 -0.156,9.59191 -0.00092,14.70459c0.02033,0.67016 0.58138,9.14123 2.06477,19.00203c2.07514,13.79446 5.26935,30.13713 5.26935,30.13713z" fill="#000000" stroke="none" stroke-width="0"/></g><g stroke="#000000" stroke-width="1.5"><path d="M134.70169,263.47986c0.80273,-8.24574 8.53818,-15.34698 15.24933,-14.75062c6.70001,0.59537 12.69899,5.91843 12.54261,16.73861c-0.14037,9.71211 -6.96134,15.73687 -14.9112,14.96294c-7.94986,-0.77392 -13.82187,-7.2835 -12.88074,-16.95092z" fill="#2c262f"/><path d="M152.76465,263.29931c2.24227,0.21828 3.82645,2.55788 3.56101,5.28459c-0.26545,2.72671 -1.71376,4.28351 -3.95603,4.06523c-2.24227,-0.21829 -3.89681,-2.63834 -3.63137,-5.36505c0.26544,-2.72671 1.78413,-4.20306 4.0264,-3.98478z" data-paper-data="{&quot;index&quot;:null}" fill="#1b171c"/></g><g stroke="#000000" stroke-width="1.5"><path d="M130.43973,229.68961c0.47898,-8.27087 7.9378,-15.79851 14.65956,-15.33689c6.72423,0.46179 12.92117,5.41624 13.18893,16.23424c0.24034,9.71016 -6.33929,15.99758 -14.31338,15.53579c-7.97409,-0.46179 -14.09668,-6.73625 -13.53512,-16.43313z" fill="#2c262f"/><path d="M152.24708,233.94233c-0.15839,2.73501 -1.54458,4.34738 -3.79368,4.21713c-2.2491,-0.13025 -3.99721,-2.48361 -3.83882,-5.21863c0.15839,-2.73501 1.61804,-4.26975 3.86714,-4.1395c2.2491,0.13025 3.92375,2.40598 3.76536,5.141z" data-paper-data="{&quot;index&quot;:null}" fill="#1b171c"/></g></g><g stroke="#000000"><g fill="#434253"><path d="M302.9364,282.15582c0,0 -39.39406,0.31655 -59.64769,0.31655c-21.72904,0 -66.6118,-0.31655 -66.6118,-0.31655c0,0 -2.38216,-40.33861 -2.16309,-60.75635c0.20152,-18.78125 2.16309,-54.08575 2.16309,-54.08575c0,0 42.82931,-1.2662 64.39595,-1.2662c21.14461,0 59.33114,1.58275 59.33114,1.58275c0,0 4.66352,44.84767 4.63123,67.07726c-0.03994,25.54257 -2.09882,47.44828 -2.09882,47.44828z" stroke-width="2.5"/><path d="M182.62638,273.74783c1.29409,0 2.34316,0.94416 2.34316,2.10884c0,1.16468 -1.04906,2.10884 -2.34316,2.10884c-1.29409,0 -2.34316,-0.94416 -2.34316,-2.10884c0,-1.16468 1.04906,-2.10884 2.34316,-2.10884z" stroke-width="2"/><path d="M296.08664,273.11069c1.29409,0 2.34316,0.94416 2.34316,2.10884c0,1.16468 -1.04907,2.10884 -2.34316,2.10884c-1.29409,0 -2.34316,-0.94416 -2.34316,-2.10884c0,-1.16468 1.04907,-2.10884 2.34316,-2.10884z" stroke-width="2"/><path d="M291.83152,175.44762c-0.48529,-1.12251 0.08425,-2.44878 1.27209,-2.9623c1.18785,-0.51352 2.54417,-0.01985 3.02946,1.10266c0.48528,1.12251 -0.08426,2.44879 -1.2721,2.96231c-1.18785,0.51352 -2.54417,0.01984 -3.02946,-1.10267z" stroke-width="2"/><path d="M180.91758,172.05908c1.18784,-0.51352 2.54418,-0.01985 3.02946,1.10266c0.48528,1.12251 -0.08426,2.44879 -1.2721,2.96231c-1.18784,0.51352 -2.54417,0.01984 -3.02945,-1.10267c-0.48528,-1.12251 0.08425,-2.44878 1.27209,-2.9623z" stroke-width="2"/></g><g><path d="M187.36314,208.89734c-2.36044,-6.40232 -2.14847,-24.22034 1.17777,-27.70117c8.80798,-9.21732 26.01104,-9.48636 48.15555,-9.48636c20.7312,0 40.80646,1.21551 50.19223,9.11804c4.42593,3.72649 4.09175,24.72433 0.61728,30.38921c-5.21713,8.50616 -20.51325,11.67052 -51.0204,11.67052c-30.50715,0 -45.72795,-4.44989 -49.12243,-13.65691z" fill="#434253" stroke-width="2"/><path d="M191.46433,207.317c-2.1792,-5.67588 -1.98352,-21.47217 1.08734,-24.55804c8.13172,-8.17147 24.01396,-7.77733 44.45825,-7.77733c19.1395,0 37.67343,0.44494 46.33857,7.45081c4.08612,3.30367 3.77759,21.91897 0.56988,26.94108c-4.81657,7.54101 -18.93828,9.50278 -47.10314,9.50278c-28.16487,0 -42.21704,-3.39695 -45.3509,-11.55929z" fill="#2c262f" stroke-width="1.5"/><path d="M216.73026,204.30872c-0.84859,-2.4182 -0.77238,-9.14817 0.42343,-10.4629c3.16654,-3.48144 9.35117,-4.21571 17.31229,-4.21571c7.45303,0 14.67023,1.09175 18.04449,4.07659c1.59116,1.40752 1.47102,9.33853 0.22192,11.47819c-1.8756,3.21283 -7.37467,4.61891 -18.34223,4.61891c-10.96755,0 -16.43956,-1.85087 -17.65989,-5.32841z" fill="#1b171c" stroke-width="1.5"/></g><g><path d="M187.36314,264.28152c-2.36044,-6.40232 -2.14847,-24.22034 1.17777,-27.70116c8.80798,-9.21732 26.01104,-9.48637 48.15555,-9.48637c20.7312,0 40.80646,1.21551 50.19223,9.11804c4.42593,3.7265 4.09175,24.72433 0.61728,30.38921c-5.21713,8.50616 -20.51325,11.67052 -51.0204,11.67052c-30.50715,0 -45.72795,-4.4499 -49.12243,-13.65692z" fill="#434253" stroke-width="2"/><path d="M191.46433,262.70117c-2.1792,-5.67588 -1.98352,-21.47217 1.08734,-24.55804c8.13172,-8.17147 24.01396,-7.77734 44.45825,-7.77734c19.1395,0 37.67343,0.44494 46.33857,7.45081c4.08612,3.30367 3.77759,21.91898 0.56988,26.94109c-4.81657,7.54101 -18.93828,9.50278 -47.10314,9.50278c-28.16487,0 -42.21704,-3.39695 -45.3509,-11.55929z" fill="#2c262f" stroke-width="1.5"/><path d="M216.73026,259.69291c-0.84859,-2.41819 -0.77238,-9.14816 0.42343,-10.46289c3.16654,-3.48144 9.35117,-4.21571 17.31229,-4.21571c7.45303,0 14.67023,1.09175 18.04449,4.07659c1.59116,1.40752 1.47102,9.33852 0.22192,11.47818c-1.8756,3.21283 -7.37467,4.61891 -18.34223,4.61891c-10.96755,0 -16.43956,-1.85087 -17.65989,-5.32842z" fill="#1b171c" stroke-width="1.5"/></g></g></g><path d="M250.44545,154.71171l-6.4,-17.3l6.1,-3.1c0,0 4.06032,1.97305 5.10153,3.81235c0.73268,1.29428 1.87972,3.39995 2.9215,6.27931c0.45017,1.24425 0.51804,3.03297 0.99395,4.56313c1.03664,3.33308 5.1858,6.17585 6.77721,9.39747c0.7268,1.47131 1.31005,2.774 1.22277,4.36513c-0.058,1.0576 -0.18898,2.46591 -1.58259,3.3242c-2.36673,1.45762 -6.33438,-0.54158 -6.33438,-0.54158z" data-paper-data="{&quot;index&quot;:null}" fill="#fb95a9" stroke="#000000" stroke-width="2"/><g data-paper-data="{&quot;index&quot;:null}"><path d="M229.73004,131.42588c2.41131,-2.95149 10.53162,-0.25987 12.59919,3.86227c0.26008,0.51854 1.70637,-0.66733 5.40284,0.98163c0.86997,0.38809 5.3323,2.85511 7.98427,6.04894c1.26983,1.52929 2.1246,3.99593 1.97118,5.03194c-0.22905,2.80784 -2.67033,5.18657 -4.85989,7.14774c-2.87249,2.57284 1.75248,7.33006 -2.40533,7.33006c-3.03121,0 -16.54137,0.60747 -18.69314,-0.7284c-1.28409,-0.79719 -0.53199,-7.61244 -0.88049,-9.01861c-0.48674,-1.96396 -4.99822,-4.40189 -4.99822,-6.61256c0,-2.58633 2.29137,-12.099 3.87959,-14.04301z" fill="#ee1536" stroke="#000000" stroke-width="2"/><path d="M245.84203,151.615c0,-3.14019 3.56399,-6.94934 7.26523,-7.10728c3.22449,-0.13759 3.97211,2.15654 3.0535,5.15937c-1.10558,3.61402 -4.40634,5.42259 -7.63376,5.42259c-0.06272,0 2.08362,-1.58996 2.84464,-0.28992c1.01358,1.73146 0.66979,6.51156 0.03616,6.86773c-2.98614,1.67855 -13.402,-0.74155 -16.31172,-0.67209c-0.60085,0.01435 -2.90823,0.59035 -3.45604,-1.26733c-0.44915,-1.5231 0.38106,-5.65028 0.34354,-5.65555c-0.60286,-0.08461 -1.36799,-4.06688 -1.36799,-4.06688c0,0 -2.86476,-2.27685 -2.9505,-2.85725c-0.15338,-1.03828 2.10836,-2.8435 2.10836,-2.8435c0,0 1.25189,1.00644 1.97555,1.57762c0.66583,0.52553 1.57561,2.98741 1.57561,2.98741c0,0 4.12841,-5.5717 8.29185,-4.21031c5.58397,1.82588 4.22558,7.21129 4.22558,6.95539z" fill="#9a1652" stroke="none" stroke-width="0"/><path d="M232.35237,160.60496c0.86132,-1.55025 8.52088,-5.58592 9.70316,-7.17085c2.60911,-3.4977 4.57621,-6.08348 4.57621,-6.08348c0,0 0.91108,5.32297 -0.66029,9.58239c-1.16307,3.15265 6.61433,5.47453 5.8723,5.47453c-1.74455,0 -20.27813,-0.38656 -19.49138,-1.80259z" fill="#000000" stroke="none" stroke-width="0"/></g><g data-paper-data="{&quot;index&quot;:null}"><path d="M226.22955,161.82996c0,0 -0.10533,3.29474 -3.77134,3.78674c-0.87652,0.11764 -2.46232,-0.74754 -3.42091,-1.93539c-0.83904,-1.0397 -0.89738,-2.13036 -0.83698,-2.90249c0.23953,-3.062 0.77506,-8.1912 1.34767,-13.15387c0.71198,-6.17054 0.94712,-13.70726 1.9788,-16.01158c0.26615,-0.59446 1.11871,0.35946 1.41707,0.35946c1.31105,0 1.90189,0.58328 3.5572,1.82908c2.82331,2.12484 6.56145,5.90426 6.44279,10.02806c-0.14837,5.15614 -6.71429,18 -6.71429,18z" fill="#ffd5d5" stroke="#000000" stroke-width="2"/><path d="M222.48227,164.60174c-1.42815,0.13668 -2.69039,-0.7987 -3.2536,-2.09724c-1.35546,-3.12516 1.08026,-11.73801 1.08026,-11.73801l8.09524,9.11111l-1.77778,2.80953c0,0 -2.07406,1.71649 -4.14412,1.91461z" fill="#fb95a9" stroke="none" stroke-width="0"/></g><g data-paper-data="{&quot;index&quot;:null}"><g><path d="M255.2159,121.05997c-0.00189,-3.66356 2.40078,-6.6347 5.36652,-6.63622c2.96574,-0.00152 5.37147,2.96714 5.37335,6.6307c0.00188,3.66356 -2.40081,6.63471 -5.36655,6.63623c-2.96574,0.00153 -5.37146,-2.96713 -5.37334,-6.63069z" fill="#fb95a9" stroke="#000000" stroke-width="2"/><path d="M241.27472,137.01186c-24.99884,-3.68303 -27.6853,-6.53205 -29.38322,-16.62494c-1.69792,-10.0929 12.97319,-11.09158 27.25231,-13.49375c14.27913,-2.40219 21.65285,-4.25795 23.35077,5.83496c0.27697,1.64645 -1.27241,11.75898 -1.27241,11.75898c0,0 7.87852,4.05675 7.0746,8.04761c-0.8824,4.30749 -17.56565,5.87033 -27.02205,4.47715z" fill="#ffd5d5" stroke="#000000" stroke-width="2"/><path d="M213.88857,113.2176c0,0 26.4759,-8.47621 32.58964,-9.50472c11.58387,-1.94876 14.3597,4.24505 15.15077,8.94743c0.34551,2.05388 -1.22722,10.46615 -1.22722,10.46615c0,0 -3.94937,-5.2873 -6.08236,-6.55871c-2.42947,-1.44813 -7.51347,-1.70395 -7.51347,-1.70395l-5.6235,7.00195l-6.77014,-7.2718c0,0 -2.84827,5.56144 -5.1237,7.82563c-2.42616,2.41416 -9.01014,6.23831 -9.01014,6.23831l-4.02292,-0.25522c0,0 -3.11335,-4.93406 -3.51545,-7.51376c-0.38626,-2.47791 1.14849,-7.67136 1.14849,-7.67136z" fill="#fb95a9" stroke="none" stroke-width="0"/><path d="M205.64793,123.8931c-0.53062,-3.15402 -0.72707,-3.82824 0.97814,-5.60994c1.36708,-1.42838 8.08087,2.33747 8.61147,5.4915c0.53062,3.15402 0.07304,6.2873 -1.87673,6.61531c-1.94978,0.328 -7.07747,-2.71983 -7.71289,-6.49688z" fill="#ffd5d5" stroke="#000000" stroke-width="2.5"/><path d="M213.32485,129.54183c-0.69586,0.11705 -3.45307,-0.91459 -4.73389,-2.43863c-0.79962,-0.95145 -1.32531,-2.21643 -1.66183,-3.32131c-0.41267,-1.35496 0.51659,-2.13704 1.85834,-1.61317c2.24415,0.87619 5.2836,2.28874 5.50097,3.58071c0.34731,2.06446 0.69944,3.5126 -0.96359,3.79238z" fill="#fb95a9" stroke="none" stroke-width="0"/><path d="M208.44846,121.50008c-0.10613,-0.63081 6.44745,5.3217 6.44745,5.3217l-0.60164,2.77052c0,0 -5.73968,-7.46142 -5.8458,-8.09225z" fill="#000000" stroke="none" stroke-width="0"/><path d="M212.4434,130.55888c-0.53422,-1.79086 0.93313,-3.50112 2.99155,-4.0518c2.05838,-0.55066 4.31024,-1.33619 5.44017,1.67103c0.1989,0.52936 1.40816,4.00978 -0.00085,5.87143c-0.21963,0.29018 -1.50957,1.42706 -2.89918,1.70691c-1.91906,0.38649 -3.14182,0.0219 -3.14182,0.0219c0,0 2.08019,-1.90445 1.85149,-2.0357c-0.72939,-0.41858 -3.79253,-1.6791 -4.24138,-3.18376z" fill="#6d0f0a" stroke="#000000" stroke-width="2"/><path d="M199.50327,130.05548c-7.47869,-3.41023 -10.26709,-7.24531 -10.26709,-7.24531c0,0 6.6286,-0.95469 8.68874,-3.26139c2.0766,-2.32515 3.51229,-11.88054 3.51229,-11.88054c0,0 23.08585,-1.57845 32.76004,-3.20594c8.95819,-1.50701 16.82151,-2.80534 22.58233,-3.74896c6.26142,-1.02561 12.03412,1.20179 13.39817,5.98789c0.33758,1.18442 0.79126,2.77969 0.98654,4.14245c0.89258,6.22885 -0.84738,12.10286 -0.84738,12.10286c0,0 -5.92621,-7.03828 -8.77535,-10.07298c-3.52376,-3.75322 -9.09035,-6.88553 -9.09035,-6.88553c0,0 -0.48172,3.97751 -1.82976,6.64688c-1.39545,2.76323 -4.5582,2.97103 -4.5582,2.97103c0,0 -0.56994,-3.13564 -1.3252,-4.52608c-0.69522,-1.27995 -1.98354,-3.69358 -1.92388,-2.52235c0.06,1.1782 -0.18529,4.02327 -0.26463,5.41838c-0.2054,3.61082 -0.71502,4.14979 -0.71502,4.14979c0,0 -2.17507,-2.99748 -4.34348,-5.7865c-1.84371,-2.3714 -4.56636,-3.52602 -4.56636,-3.52602c0,0 -4.17399,5.01578 -6.63505,7.12988c-2.22318,1.90978 -7.11392,4.94073 -7.11392,4.94073c0,0 3.09905,7.80975 -0.93091,7.88018c-2.84824,0.04978 -4.12415,-0.32585 -5.74458,-1.36297c-0.97145,-0.62175 -1.56534,-3.56285 -1.56534,-3.56285l2.13565,0.30409c0,0 -1.90971,-6.05123 -3.27904,-6.25984c-2.41106,-0.3673 -0.67629,-0.87408 -4.1179,-0.20678c-0.50095,0.09713 -1.53384,3.26865 -1.00002,6.05838c0.57311,2.99506 2.73551,5.61915 2.73551,5.61915c0,0 -4.2536,2.36775 -7.90575,0.70238z" fill="#6d0f0a" stroke="#000000" stroke-width="1.5"/><path d="M245.62237,105.59166c-0.96706,0.16269 -2.39593,-0.75692 -4.36761,-0.56867c-2.13611,0.20393 -4.82394,1.51768 -5.93331,1.74341c-16.02222,3.26052 -33.78235,7.30084 -33.78235,7.30084c0,0 0.36119,-2.67305 0.23743,-3.94012c-0.1322,-1.3537 -0.69547,-3.99184 -0.69547,-3.99184c0,0 22.14323,-0.89463 35.12208,-3.07805c8.32812,-1.40105 17.04742,-3.21684 22.6504,-3.35939c5.93278,-0.15096 8.94684,1.34076 8.94684,1.34076l1.97909,6.66644l-2.60865,-0.26429l-7.02246,-5.40686c0,0 -10.09003,2.81148 -14.52599,3.55775z" fill="#6d0f0a" stroke="none" stroke-width="0"/><path d="M239.47197,133.91211c-1.24158,0.03421 -1.92596,-1.0854 -2.48486,-2.17806c-0.63051,-1.2327 -1.04943,-2.46895 -0.94993,-2.68952c0.1531,-0.33941 9.01798,0.70238 9.09811,1.08534c0.07647,0.3654 -1.1165,1.36191 -2.71317,2.35348c-0.89963,0.55867 -1.63627,1.45619 -2.70673,1.48567z" fill="#ef3d61" stroke="#000000" stroke-width="1.5"/><path d="M244.38693,122.0343c-0.32221,-1.91534 -0.28849,-5.29058 2.46301,-6.86304c0.49401,-0.28235 1.70524,-0.37266 3.07833,-0.14165c1.40738,0.23677 2.6397,0.81399 2.99459,0.95043c0.70111,0.26957 1.89846,-0.23309 1.89846,-0.23309c0,0 1.14444,-0.78311 1.77174,-1.37104c0.52662,-0.49357 1.65922,-2.42158 1.65922,-2.42158c0,0 0.15739,1.49397 -0.79606,3.24413c-0.39287,0.7212 -1.54633,2.05428 -1.54633,2.05428c0,0 1.03726,-0.02468 2.16742,-0.40333c0.84893,-0.28441 2.84034,-1.86767 2.84034,-1.86767c0,0 -0.74384,1.82426 -1.32519,2.6384c-0.40144,0.56218 -1.48058,1.32728 -1.48058,1.32728l-0.07722,1.03791c0,0 -1.7314,-1.62361 -2.5733,-1.9233c-0.68073,-0.24232 -2.24361,0.15682 -2.24361,0.15682c0,0 0.95083,7.65797 -3.8836,8.34316c-3.76943,0.53424 -4.41659,-1.3737 -4.94719,-4.52772z" fill="#000000" stroke="none" stroke-width="0"/><path d="M221.58248,114.92269c0,0 1.76912,1.48946 2.7105,1.95292c0.86638,0.42654 2.22873,0.27702 2.22873,0.27702c0,0 -0.42734,-0.69928 -0.85679,-1.42888c-0.44789,-0.76093 -1.26965,-2.98976 -1.26965,-2.98976c0,0 1.48087,1.58113 2.2076,2.10282c0.69498,0.49891 2.30432,1.1347 2.30432,1.1347c0,0 2.54928,-0.47785 4.22985,-0.76056c4.39927,-0.74008 7.7776,1.89476 7.7776,1.89476c0,0 -2.50287,-0.2698 -3.37283,-0.33344c-0.61795,-0.04524 -1.33113,0.12593 -1.33113,0.12593c0,0 1.56117,8.36791 -4.71096,9.49424c-5.1372,0.92253 -4.87641,-6.25248 -5.13782,-6.59988c-0.18938,-0.25168 -1.2093,-0.98246 -1.2093,-0.98246c0,0 -1.55161,-0.65703 -2.11677,-1.25896c-0.61482,-0.65484 -1.45328,-2.62847 -1.45328,-2.62847z" fill="#000000" stroke="none" stroke-width="0"/></g><path d="M269.34646,105.76408c0,0 -0.77645,-2.653 -1.26661,-3.97065c-0.46872,-1.26 -1.61303,-3.77001 -1.61303,-3.77001c0,0 1.16418,0.52182 2.10988,2.73911c0.61807,1.44915 2.15833,5.21862 2.15833,5.21862z" fill="#000000" stroke="none" stroke-width="0"/></g><g data-paper-data="{&quot;index&quot;:null}"><path d="M255.19958,184.92557c-1.00101,-2.204 -1.48204,-4.3489 -0.72825,-4.96606c2.33239,-1.90961 13.28484,-2.98899 13.38878,-2.98899c6.31528,0 14.84633,4.70166 14.84633,7.42317c0,2.15815 -5.66177,5.08636 -11.867,4.87772c-9.17694,-0.30857 -12.61375,-4.42959 -12.80984,-4.64776c-0.77835,-0.86597 0.94691,1.54978 1.61014,2.51138c0.76014,1.10213 2.09503,1.87099 1.91005,2.94778c-0.21138,1.23048 -1.04517,0.91066 -1.93413,0.37576c-1.07219,-0.64516 -2.75079,-1.86638 -4.41608,-5.533z" fill="#ee1536" stroke="#000000" stroke-width="1.5"/><path d="M224.16344,167.58485c0,-3.59654 1.88208,-6.79388 5.00437,-9.12732c4.14737,-3.09953 10.28977,-4.77137 15.23297,-4.77137c5.31995,0 12.36793,-0.19935 14.37465,2.09274c0.5447,0.62216 0.11605,3.35746 0.47021,5.96384c0.20355,1.49801 1.01152,5.12835 2.06489,8.05201c0.76659,2.12772 1.6857,4.5633 2.81912,4.87357c4.6996,1.28652 11.33458,3.83886 9.65309,6.39177c-1.27777,1.93997 -8.71321,2.17386 -14.6326,0.37436c-5.32793,-1.61969 -9.13974,-5.17457 -11.08352,-5.65964c-3.29754,-0.8229 -10.29591,1.43415 -13.65474,0.96798c-2.18858,-0.30375 -4.10262,-1.02669 -5.53901,-1.79684c-3.55989,-1.90871 -4.7094,-5.13615 -4.7094,-7.3611z" fill="#ffd5d5" stroke="#000000" stroke-width="1.5"/><path d="M254.40497,163.88252c0,0 1.5473,-1.13661 2.20683,-1.84011c0.59795,-0.63781 1.58373,-2.20314 1.58373,-2.20314c0,0 0.47515,2.43192 0.69523,3.67533c0.19897,1.12418 0.56829,3.46354 0.56829,3.46354c0,0 -2.16472,-0.56777 -3.07746,-1.12683c-0.7315,-0.44803 -1.97661,-1.96878 -1.97661,-1.96878z" fill="#fb95a9" stroke="none" stroke-width="0"/><path d="M275.08882,180.84436c0.16969,-0.35395 1.67522,-0.13645 2.97302,0.48578c1.2978,0.62223 2.68613,2.36122 2.51643,2.71517c-0.1697,0.35394 -1.51728,-1.12707 -2.81508,-1.7493c-1.29779,-0.62223 -2.84406,-1.0977 -2.67436,-1.45165z" fill="#fc9ea5" stroke="none" stroke-width="0"/></g><g data-paper-data="{&quot;index&quot;:null}"><path d="M231.01662,188.91844c2.5441,-6.35721 7.6863,-8.12709 12.34285,-6.26357c4.65656,1.86351 6.54811,7.90162 4.004,14.25883c-2.5441,6.35722 -11.22418,11.88722 -14.69074,10.29339c-3.43224,-1.57805 -4.378,-11.60389 -1.83389,-17.9611z" fill="#ee1536" stroke="#000000" stroke-width="1.5"/><path d="M233.5181,186.14081c0,0 2.00422,-2.86118 4.30555,-3.50609c0.77193,-0.21631 4.08674,0.23689 6.56763,1.86017c1.68622,1.10331 2.8021,3.19439 3.19142,4.24588c0.67057,1.81111 0.10967,3.76134 0.10967,3.76134c0,0 -1.81828,1.66589 -5.43619,1.54424c-1.90251,-0.06397 -4.61734,-2.13774 -6.33064,-4.2466c-1.54479,-1.90145 -2.40744,-3.65892 -2.40744,-3.65892z" fill="#9a1652" stroke="none" stroke-width="0"/><path d="M237.96927,176.35229c0.55432,-7.08643 2.21505,-10.84502 10.62649,-10.5467c4.91806,0.17442 6.52345,5.86357 6.20118,8.26798c-1.07822,8.0444 -9.74893,15.13352 -9.74893,15.13352c0,0 1.38491,8.01261 -6.9327,9.02219c-4.06733,0.49369 -4.09452,-6.52097 -3.42123,-8.22854c1.22234,-3.10001 3.42075,-4.916 3.42075,-4.916c0,0 -0.3919,-5.5836 -0.14558,-8.73245z" fill="#ffd5d5" stroke="#000000" stroke-width="1.5"/><path d="M245.10261,177.70961c-0.98594,-0.64 -1.21165,-1.61216 -1.54278,-2.57662c-0.39958,-1.16379 -0.68288,-4.079 -0.68288,-4.079c0,0 1.88781,1.43735 2.95744,2.05164c1.0526,0.6045 3.57324,1.45269 3.57324,1.45269c0,0 -1.55297,2.41034 -2.26572,2.89984c-0.66241,0.45494 -1.05335,0.89143 -2.03929,0.25145z" fill="#fb95a9" stroke="none" stroke-width="0"/><path d="M235.86951,204.37274c-0.64171,-0.03296 1.51192,-1.05037 2.3367,-1.53259c0.91489,-0.5349 2.82616,-2.37563 2.86295,-2.00666c0.07441,0.74608 -1.44675,2.17702 -2.28268,2.66576c-0.90726,0.53045 -1.82762,0.92947 -2.91696,0.87351z" fill="#fc9ea5" stroke="none" stroke-width="0"/></g><g data-paper-data="{&quot;index&quot;:null}"><path d="M236.66521,151.29347c2.14777,0 4.11111,3.43429 4.11111,5.88889c0,2.4546 -1.07445,3 -3.22222,3c-2.14777,0 -3.88889,-1.98985 -3.88889,-4.44445c0,-2.4546 0.85223,-4.44445 3,-4.44445z" fill="#fb95a9" stroke="#000000" stroke-width="2"/><path d="M220.26718,160.47111c-0.93971,-1.8149 -0.79457,-4.30005 -0.1394,-5.91116c1.96331,-4.82795 7.76483,-6.26648 9.38663,-6.26648c0.92515,0 5.54706,0.01322 6.89854,2.22778c0.92047,1.00194 0.80596,2.06951 0.99423,2.73994c0.15352,0.5467 0.23104,3.58536 0.32796,6.36568c0.15585,4.47105 0.55417,9.48673 -2.12244,10.05008c-0.37969,0.07992 -2.21043,0.12107 -2.56057,0.00265c-1.50011,-0.50734 -1.86499,-2.69948 -1.99352,-4.50433c-0.04138,-0.58103 -0.15786,-1.12192 -0.1498,-1.55354c0.01159,-0.62067 0.05095,-1.36234 0.05095,-1.36234c0,0 -0.39425,0.35521 -1.00018,0.3829c-0.69912,0.03195 -1.68002,0.07163 -2.66226,0.09436c-0.33001,0.00764 -1.22626,-0.42821 -1.22626,-0.42821c0,0 -0.73565,0.44027 -1.45759,0.39347c-0.79097,-0.05128 -1.96515,-0.1448 -2.22874,-0.30184c-0.67286,-0.40087 -1.68519,-1.09398 -2.11753,-1.92896z" fill="#ffd5d5" stroke="#000000" stroke-width="2"/><path d="M232.81601,165.22602h3.21429c0,0 0.38823,2.57143 -1.78572,2.5c-1.74472,-0.05732 -1.42857,-2.5 -1.42857,-2.5z" fill="#ee406b" stroke="none" stroke-width="0"/></g><g data-paper-data="{&quot;index&quot;:null}"><path d="M246.02798,156.98236c0,-2.4546 1.96334,-5.88889 4.11111,-5.88889c2.14777,0 3,1.98985 3,4.44445c0,2.4546 -1.74112,4.44445 -3.88889,4.44445c-2.14778,0 -3.22222,-0.5454 -3.22222,-3z" fill="#fb95a9" stroke="#000000" stroke-width="2"/><path d="M266.53711,160.2711c-0.43234,0.83498 -1.44468,1.52809 -2.11753,1.92896c-0.26359,0.15704 -1.43777,0.25056 -2.22874,0.30184c-0.72193,0.0468 -1.45759,-0.39347 -1.45759,-0.39347c0,0 -0.89624,0.43585 -1.22625,0.42821c-0.98223,-0.02273 -1.96314,-0.06241 -2.66226,-0.09436c-0.60593,-0.02769 -1.00018,-0.3829 -1.00018,-0.3829c0,0 0.03936,0.74167 0.05095,1.36234c0.00806,0.43162 -0.10843,0.97251 -0.14981,1.55354c-0.12854,1.80484 -0.49341,3.99699 -1.99352,4.50433c-0.35014,0.11841 -2.18088,0.07726 -2.56057,-0.00265c-2.67661,-0.56335 -2.2783,-5.57902 -2.12244,-10.05008c0.09692,-2.78032 0.17445,-5.81899 0.32796,-6.36568c0.18827,-0.67044 0.07376,-1.738 0.99423,-2.73994c1.35148,-2.21457 5.97338,-2.22778 6.89853,-2.22778c1.6218,0 7.42333,1.43853 9.38663,6.26648c0.65516,1.61111 0.80031,4.09626 -0.13941,5.91116z" fill="#ffd5d5" stroke="#000000" stroke-width="2"/><path d="M252.55972,167.52602c-2.17395,0.07143 -1.78572,-2.5 -1.78572,-2.5h3.21429c0,0 0.31615,2.44268 -1.42857,2.5z" fill="#ee406b" stroke="none" stroke-width="0"/></g></g></g></svg>