<svg version="1.1" xmlns="http://www.w3.org/2000/svg" xmlns:xlink="http://www.w3.org/1999/xlink" width="551.90891" height="383.09974" viewBox="0,0,551.90891,383.09974"><defs><linearGradient x1="242.82282" y1="-7.65061" x2="242.82282" y2="256.61365" gradientUnits="userSpaceOnUse" id="color-1"><stop offset="0" stop-color="#80b7ff"/><stop offset="1" stop-color="#cee0ff"/></linearGradient><linearGradient x1="364.81022" y1="174.45008" x2="364.81022" y2="269.24216" gradientUnits="userSpaceOnUse" id="color-2"><stop offset="0" stop-color="#447742"/><stop offset="1" stop-color="#273f25"/></linearGradient><linearGradient x1="112.81021" y1="171.20104" x2="112.81021" y2="265.99311" gradientUnits="userSpaceOnUse" id="color-3"><stop offset="0" stop-color="#447742"/><stop offset="1" stop-color="#273f25"/></linearGradient><linearGradient x1="117.57447" y1="181.92621" x2="117.57447" y2="276.71833" gradientUnits="userSpaceOnUse" id="color-4"><stop offset="0" stop-color="#3d9039"/><stop offset="1" stop-color="#265221"/></linearGradient><linearGradient x1="361.57447" y1="175.42812" x2="361.57447" y2="270.22024" gradientUnits="userSpaceOnUse" id="color-5"><stop offset="0" stop-color="#3d9039"/><stop offset="1" stop-color="#265221"/></linearGradient><linearGradient x1="364.81022" y1="174.45008" x2="364.81022" y2="269.24216" gradientUnits="userSpaceOnUse" id="color-6"><stop offset="0" stop-color="#447742"/><stop offset="1" stop-color="#273f25"/></linearGradient><linearGradient x1="112.81021" y1="171.20104" x2="112.81021" y2="265.99311" gradientUnits="userSpaceOnUse" id="color-7"><stop offset="0" stop-color="#447742"/><stop offset="1" stop-color="#273f25"/></linearGradient><linearGradient x1="117.57447" y1="181.92621" x2="117.57447" y2="276.71833" gradientUnits="userSpaceOnUse" id="color-8"><stop offset="0" stop-color="#3d9039"/><stop offset="1" stop-color="#265221"/></linearGradient><linearGradient x1="361.57447" y1="175.42812" x2="361.57447" y2="270.22024" gradientUnits="userSpaceOnUse" id="color-9"><stop offset="0" stop-color="#3d9039"/><stop offset="1" stop-color="#265221"/></linearGradient></defs><g transform="translate(47.07481,7.65061)"><g data-paper-data="{&quot;isPaintingLayer&quot;:true}" fill-rule="nonzero" stroke-linejoin="miter" stroke-miterlimit="10" stroke-dasharray="" stroke-dashoffset="0" style="mix-blend-mode: normal"><path d="M-4.17417,256.61365v-264.26426h493.99399v264.26426z" fill="url(#color-1)" stroke="none" stroke-width="0" stroke-linecap="butt"/><g stroke="#000000" stroke-linecap="round"><g stroke-width="4"><g><path d="M230.28719,182.88363c0,0 4.46745,-4.94772 7.92022,-5.79963c3.75669,-0.92692 13.78518,0.44407 13.78518,0.44407c0,0 12.17673,-4.40136 20.69585,-2.67779c10.00092,2.02337 15.64808,8.03336 15.64808,8.03336c0,0 9.59041,-5.83514 28.78837,-6.8383c17.39061,-0.9087 21.56921,7.50975 21.56921,7.50975c0,0 10.19282,-6.54709 21.83812,-6.99686c10.81203,-0.41761 20.68324,6.99485 20.68324,6.99485c0,0 2.89985,-4.28188 20.07288,-4.60058c12.07022,-0.22398 29.90003,5.27002 29.90003,5.27002c0,0 6.18403,-8.03336 21.70541,-7.36389c7.02059,0.3028 16.65764,7.36389 16.65764,7.36389c0,0 6.67805,-3.76142 16.1401,-3.68791c7.53127,0.05851 13.64173,4.35735 13.64173,4.35735l-2.52389,77.65573l-253.90275,6.69447z" data-paper-data="{&quot;index&quot;:null}" fill="url(#color-2)"/><path d="M-21.71281,179.63459c0,0 4.46745,-4.94772 7.92022,-5.79966c3.75669,-0.92692 13.78518,0.44407 13.78518,0.44407c0,0 12.17673,-4.40136 20.69585,-2.67779c10.00092,2.02335 15.64808,8.03336 15.64808,8.03336c0,0 9.59041,-5.83514 28.78837,-6.8383c17.39062,-0.9087 21.56921,7.50975 21.56921,7.50975c0,0 10.19283,-6.54709 21.83812,-6.99688c10.81204,-0.41758 20.68324,6.99485 20.68324,6.99485c0,0 2.89985,-4.28188 20.07288,-4.60058c12.07022,-0.22398 29.90003,5.27002 29.90003,5.27002c0,0 6.18402,-8.03336 21.7054,-7.36389c7.0206,0.3028 16.65764,7.36389 16.65764,7.36389c0,0 6.67805,-3.76142 16.1401,-3.68791c7.53127,0.05851 13.64173,4.35735 13.64173,4.35735l-2.52388,77.65573l-253.90275,6.69445z" data-paper-data="{&quot;index&quot;:null}" fill="url(#color-3)"/></g><g><path d="M237.15875,276.71833l-249.07202,-6.69445l-2.47587,-77.65573c0,0 5.9942,-4.29884 13.38219,-4.35735c9.28202,-0.07354 15.83302,3.68791 15.83302,3.68791c0,0 9.4537,-7.06112 16.34071,-7.36389c15.22607,-0.66944 21.29244,7.36389 21.29244,7.36389c0,0 11.43069,-6.49917 23.27126,-6.27519c16.8463,0.31869 25.75087,5.60575 25.75087,5.60575c0,0 9.68339,-7.41243 20.28972,-6.99485c11.42373,0.44976 15.36274,4.98652 15.36274,4.98652c0,0 10.15898,-6.40811 27.21873,-5.49941c18.8327,1.00313 28.24065,6.8383 28.24065,6.8383c0,0 5.53972,-6.00998 15.35036,-8.03336c8.35705,-1.72356 20.30209,2.67779 20.30209,2.67779c0,0 9.83769,-1.37099 13.52291,-0.44407c3.38708,0.85194 7.76953,5.79966 7.76953,5.79966z" fill="url(#color-4)"/><path d="M481.15875,270.22024l-249.07201,-6.69447l-2.47586,-77.65573c0,0 5.9942,-4.29884 13.38218,-4.35735c9.28203,-0.07351 15.83301,3.68791 15.83301,3.68791c0,0 9.4537,-7.06112 16.34071,-7.36389c15.22607,-0.66944 21.29244,7.36389 21.29244,7.36389c0,0 11.43069,-6.49917 23.27126,-6.27519c16.8463,0.31869 25.75087,5.60575 25.75087,5.60575c0,0 9.68339,-7.41243 20.28971,-6.99485c11.42373,0.44976 15.36273,4.9865 15.36273,4.9865c0,0 10.15898,-6.40811 27.21873,-5.49941c18.83271,1.00313 28.24065,6.8383 28.24065,6.8383c0,0 5.53972,-6.00998 15.35037,-8.03336c8.35704,-1.72356 20.30209,2.67779 20.30209,2.67779c0,0 9.83769,-1.37099 13.52291,-0.44407c3.38708,0.85194 7.76953,5.79963 7.76953,5.79963z" fill="url(#color-5)"/></g></g><g stroke-width="0"><g><path d="M230.28719,182.88363c0,0 4.46745,-4.94772 7.92022,-5.79963c3.75669,-0.92692 13.78518,0.44407 13.78518,0.44407c0,0 12.17673,-4.40136 20.69585,-2.67779c10.00092,2.02337 15.64808,8.03336 15.64808,8.03336c0,0 9.59041,-5.83514 28.78837,-6.8383c17.39061,-0.9087 21.56921,7.50975 21.56921,7.50975c0,0 10.19282,-6.54709 21.83812,-6.99686c10.81203,-0.41761 20.68324,6.99485 20.68324,6.99485c0,0 2.89985,-4.28188 20.07288,-4.60058c12.07022,-0.22398 29.90003,5.27002 29.90003,5.27002c0,0 6.18403,-8.03336 21.70541,-7.36389c7.02059,0.3028 16.65764,7.36389 16.65764,7.36389c0,0 6.67805,-3.76142 16.1401,-3.68791c7.53127,0.05851 13.64173,4.35735 13.64173,4.35735l-2.52389,77.65573l-253.90275,6.69447z" data-paper-data="{&quot;index&quot;:null}" fill="url(#color-6)"/><path d="M-21.71281,179.63459c0,0 4.46745,-4.94772 7.92022,-5.79966c3.75669,-0.92692 13.78518,0.44407 13.78518,0.44407c0,0 12.17673,-4.40136 20.69585,-2.67779c10.00092,2.02335 15.64808,8.03336 15.64808,8.03336c0,0 9.59041,-5.83514 28.78837,-6.8383c17.39062,-0.9087 21.56921,7.50975 21.56921,7.50975c0,0 10.19283,-6.54709 21.83812,-6.99688c10.81204,-0.41758 20.68324,6.99485 20.68324,6.99485c0,0 2.89985,-4.28188 20.07288,-4.60058c12.07022,-0.22398 29.90003,5.27002 29.90003,5.27002c0,0 6.18402,-8.03336 21.7054,-7.36389c7.0206,0.3028 16.65764,7.36389 16.65764,7.36389c0,0 6.67805,-3.76142 16.1401,-3.68791c7.53127,0.05851 13.64173,4.35735 13.64173,4.35735l-2.52388,77.65573l-253.90275,6.69445z" data-paper-data="{&quot;index&quot;:null}" fill="url(#color-7)"/></g><g><path d="M237.15875,276.71833l-249.07202,-6.69445l-2.47587,-77.65573c0,0 5.9942,-4.29884 13.38219,-4.35735c9.28202,-0.07354 15.83302,3.68791 15.83302,3.68791c0,0 9.4537,-7.06112 16.34071,-7.36389c15.22607,-0.66944 21.29244,7.36389 21.29244,7.36389c0,0 11.43069,-6.49917 23.27126,-6.27519c16.8463,0.31869 25.75087,5.60575 25.75087,5.60575c0,0 9.68339,-7.41243 20.28972,-6.99485c11.42373,0.44976 15.36274,4.98652 15.36274,4.98652c0,0 10.15898,-6.40811 27.21873,-5.49941c18.8327,1.00313 28.24065,6.8383 28.24065,6.8383c0,0 5.53972,-6.00998 15.35036,-8.03336c8.35705,-1.72356 20.30209,2.67779 20.30209,2.67779c0,0 9.83769,-1.37099 13.52291,-0.44407c3.38708,0.85194 7.76953,5.79966 7.76953,5.79966z" fill="url(#color-8)"/><path d="M481.15875,270.22024l-249.07201,-6.69447l-2.47586,-77.65573c0,0 5.9942,-4.29884 13.38218,-4.35735c9.28203,-0.07351 15.83301,3.68791 15.83301,3.68791c0,0 9.4537,-7.06112 16.34071,-7.36389c15.22607,-0.66944 21.29244,7.36389 21.29244,7.36389c0,0 11.43069,-6.49917 23.27126,-6.27519c16.8463,0.31869 25.75087,5.60575 25.75087,5.60575c0,0 9.68339,-7.41243 20.28971,-6.99485c11.42373,0.44976 15.36273,4.9865 15.36273,4.9865c0,0 10.15898,-6.40811 27.21873,-5.49941c18.83271,1.00313 28.24065,6.8383 28.24065,6.8383c0,0 5.53972,-6.00998 15.35037,-8.03336c8.35704,-1.72356 20.30209,2.67779 20.30209,2.67779c0,0 9.83769,-1.37099 13.52291,-0.44407c3.38708,0.85194 7.76953,5.79963 7.76953,5.79963z" fill="url(#color-9)"/></g></g></g><path d="M-12.43243,374.69913v-162.16216h516.51652v162.16216z" fill="#5bc955" stroke="#000000" stroke-width="1.5" stroke-linecap="butt"/><g><path d="M132.3965,206.75088c0,0 -21.7784,0.74491 -32.72564,-0.57853c-10.615,-1.28329 -31.99189,-7.24533 -31.99189,-7.24533c0,0 -12.90122,5.92208 -19.7875,7.17815c-7.54355,1.37598 -23.68202,0.75087 -23.68202,0.75087c0,0 -17.59661,-7.65827 -25.00038,-12.88513c-6.55229,-4.62574 -17.18072,-16.89364 -17.18072,-16.89364c0,0 -0.65596,-10.2891 0.73963,-15.53825c1.42902,-5.37491 0.51706,-19.95266 0.51706,-19.95266c0,0 -12.14737,-9.45245 -18.91681,-18.61478c-6.785,-9.18341 -10.91745,-23.78858 -10.91745,-23.78858c0,0 5.20079,-13.98907 8.98548,-17.43453c4.31607,-3.92923 11.91716,-13.90512 11.91716,-13.90512c0,0 5.65273,-9.79624 10.72944,-13.82648c5.57656,-4.42708 21.37147,-11.65745 21.37147,-11.65745c0,0 22.06509,-11.74953 32.82318,-14.00767c10.87052,-2.28174 32.06612,0.3872 32.06612,0.3872c0,0 17.53605,-5.95088 26.79608,-6.2367c10.26207,-0.31671 32.07968,4.41958 32.07968,4.41958c0,0 18.60793,-0.88881 26.68201,2.45982c8.79731,3.64857 24.11848,18.60908 24.11848,18.60908c0,0 2.36917,11.11089 1.42628,16.72853c-1.00932,6.0136 -7.29651,18.24618 -7.29651,18.24618c0,0 14.11681,11.71163 17.62662,19.14176c4.14461,8.77403 5.65476,30.14415 5.65476,30.14415c0,0 7.579,13.57894 6.66736,21.2429c-0.96561,8.11785 -12.30844,26.18093 -12.30844,26.18093c0,0 -17.26095,14.74419 -27.89044,19.50964c-9.33236,4.18392 -32.50293,7.56614 -32.50293,7.56614z" fill="#427340" stroke="#000000" stroke-width="1" stroke-linecap="round"/><path d="M75.77491,123.91676l9.47208,127.19658c0,0 -5.88674,4.5 -21.04621,4c-13.73994,-0.45318 -19.54844,-4 -19.54844,-4l5.41262,-128.54973z" fill="#6b4d32" stroke="#000000" stroke-width="1" stroke-linecap="round"/><path d="M140.46318,176.14965c0,0 -6.03029,8.16978 -11.38237,10.41017c-7.08846,2.96729 -27.42227,5.83364 -27.42227,5.83364c0,0 -14.29486,1.23954 -20.54301,-0.03848c-6.91902,-1.41526 -19.16409,-8.08342 -19.16409,-8.08342c0,0 -4.22311,3.91642 -6.49752,5.05362c-2.51445,1.25722 -7.94143,2.16585 -7.94143,2.16585c0,0 -7.22425,-2.57454 -10.29053,-4.26101c-2.94507,-1.6198 -8.66059,-13.78766 -8.66059,-13.78766" fill="#427340" stroke="#000000" stroke-width="1" stroke-linecap="round"/><path d="M42.28719,178.84939v-71h52v71z" fill="#427340" stroke="none" stroke-width="0" stroke-linecap="butt"/></g><path d="M-21.98332,322.41315v-40.54054c0,0 150.89617,-18.35353 236.02464,-24.57638c86.03314,-6.28897 277.48888,-12.96116 277.48888,-12.96116l4.5045,25.52553c0,0 -177.79026,11.20377 -252.02718,18.73506c-93.81244,9.5172 -265.99083,33.8175 -265.99083,33.8175z" fill="#c3a581" stroke="#000000" stroke-width="0.5" stroke-linecap="butt"/></g></g></svg>