<svg version="1.1" xmlns="http://www.w3.org/2000/svg" xmlns:xlink="http://www.w3.org/1999/xlink" width="210" height="221" viewBox="0,0,210,221"><g transform="translate(-140,-90)"><g data-paper-data="{&quot;isPaintingLayer&quot;:true}" fill-rule="nonzero" stroke-linejoin="miter" stroke-miterlimit="10" stroke-dasharray="" stroke-dashoffset="0" style="mix-blend-mode: normal"><path d="M140,311v-221h210v221z" fill="none" stroke="none" stroke-width="0" stroke-linecap="butt"/><g data-paper-data="{&quot;index&quot;:null}" stroke="#000000" stroke-linecap="round"><path d="M262.23752,196.90156c0,0 16.2316,-1.59725 16.21325,5.02736c-0.04977,17.98052 -28.27891,12.06568 -28.27891,12.06568z" data-paper-data="{&quot;origPos&quot;:null}" fill="#7c7c7c" stroke-width="2"/><path d="M261.48344,198.40979c0,0 11.78117,-0.56333 12.44273,1.38252c0.20864,0.61371 -15.71052,2.51368 -15.71052,2.51368z" data-paper-data="{&quot;origPos&quot;:null}" fill="#0a0a0a" stroke-width="1"/></g><g data-paper-data="{&quot;index&quot;:null}"><path d="M234.53697,204.85963c0,0 -1.74112,25.48266 -11.40557,35.32749c-2.91234,2.96669 -15.99362,3.26684 -17.06189,3.03993c-4.61328,-0.97993 -14.03943,-25.89775 -14.03943,-25.89775c0,0 -4.7548,-11.00186 -4.95428,-16.13926c16.37926,-9.38185 27.42225,-7.92434 27.42225,-7.92434c2.14524,-0.73619 3.50677,7.26628 3.50677,7.26628l5.09773,22.91394l-0.83348,-3.44848c0,0 -4.6292,-20.40898 -2.32466,-19.43074c2.12038,0.90005 16.32784,1.58552 14.59256,4.29292z" fill="#582700" stroke="#000000" stroke-width="2.5" stroke-linecap="round"/><path d="M221.22487,218.49084c-1.6303,0.62983 -3.38374,1.07478 -5.05913,1.35401c-4.56614,1.29357 -9.58449,2.63532 -14.29626,3.38392c-1.34414,0.21356 -2.66709,0.46105 -4.00483,0.71553c-0.45045,0.08569 -1.55937,0.08729 -1.94272,0.08243c0.88341,1.22139 1.38259,3.05376 2.47317,4.07349c0.12825,0.11993 0.43045,0.14966 0.81016,0.12893c1.19085,-0.402 2.46829,-0.65045 3.05598,-0.82665c6.49757,-2.43961 13.32509,-3.4761 19.90328,-5.55882c0.00629,-0.60263 -0.47567,-1.78459 -0.50776,-1.8922c-0.14542,-0.48759 -0.29214,-0.97354 -0.43189,-1.46063zM220.83781,217.03564c-0.13336,-0.55741 -0.24721,-1.11984 -0.32948,-1.69136c0,0 -0.05077,-0.35537 0.16379,-0.60951c-0.85673,-3.17683 -1.48078,-6.4535 -1.90484,-9.46514c-0.37735,-1.32335 -1.02981,-3.08165 0.35397,-4.05329c0.99573,-0.69916 3.26576,-0.40142 4.37784,-0.21792c3.56756,0.58868 7.1445,1.26215 10.68249,1.92997c1.69691,1.5257 0.54248,3.26238 0.0471,5.24062c-1.07936,4.31025 -2.02924,8.64158 -3.11471,12.95187c-0.34833,3.15021 -1.56078,5.87608 -2.25654,8.90727c-0.96362,4.19815 -1.83846,7.51018 -4.7731,10.80357c-5.2065,2.69301 -14.23737,4.0307 -19.41305,0.58024c-3.69568,-1.19794 -5.00852,-5.29658 -6.59185,-8.46442c-0.2654,-0.53098 -1.53171,-2.29298 -1.44476,-2.82438c0.06177,-0.37751 0.31682,-0.7041 0.68916,-0.98771c-1.19294,-1.12385 -1.81684,-3.12078 -2.74137,-4.4319c-0.36105,-2.56105 3.10023,-2.31787 5.29034,-2.70433c5.31536,-0.93794 10.80552,-2.13078 15.96307,-3.61764c1.65053,-0.27509 3.39973,-0.71 5.00195,-1.34593zM201.1039,229.35611c-0.02031,0.00271 -0.04096,0.00562 -0.06195,0.0087c-1.32705,0.42702 -2.94139,0.95538 -2.92503,0.98849c1.54269,3.12242 3.62311,8.48656 7.21339,9.7112c4.7801,3.18673 12.96249,1.89384 17.83695,-0.41977c2.60929,-3.0536 3.33682,-6.10897 4.22689,-9.94643c0.6993,-3.01499 1.89369,-5.70962 2.24347,-8.84273c1.07927,-4.34594 2.0514,-8.70556 3.13529,-13.04813c0.1499,-0.60057 1.15643,-3.37957 0.7971,-3.50938c-3.68814,-0.45468 -7.30081,-1.62843 -11.00608,-1.93739c-0.30433,-0.02537 -2.82892,-0.10555 -2.83735,0.3166c-0.01371,0.68638 0.31758,1.61536 0.50772,2.27954c0.87237,6.02785 4.0185,11.82519 4.46697,17.79944c-0.55602,0.50899 -1.20623,0.96547 -1.92858,1.18096l-0.68649,0.34684c0,0 -0.11095,0.05548 -0.26517,0.07618c-2.52697,1.53047 -6.73981,1.78492 -9.08054,2.11917c-3.95899,0.64665 -7.60518,2.34002 -11.63659,2.8767z" fill="#000000" stroke="none" stroke-width="0.5" stroke-linecap="butt"/><path d="M216.21056,219.82272c1.67539,-0.27923 3.43043,-0.7206 5.06073,-1.35043c0.13975,0.48709 0.28832,0.97856 0.43374,1.46615c0.03209,0.1076 0.51545,1.29688 0.50916,1.89951c-6.57819,2.08272 -13.49834,3.15054 -19.99591,5.59015c-0.58768,0.17619 -1.86698,0.42123 -3.05783,0.82323c-0.37971,0.02073 -0.68278,-0.01085 -0.81104,-0.13077c-1.09057,-1.01974 -1.59401,-2.8699 -2.47742,-4.0913c0.38335,0.00486 1.49227,0.00333 1.94272,-0.08236c1.33774,-0.25449 2.66062,-0.50551 4.00477,-0.71907c4.71177,-0.7486 9.82494,-2.11155 14.39108,-3.40512z" data-paper-data="{&quot;noHover&quot;:false,&quot;origItem&quot;:[&quot;Path&quot;,{&quot;applyMatrix&quot;:true,&quot;segments&quot;:[[[926.17844,407.1979],[3.2606,1.25965],[-0.27949,0.97418]],[[925.31465,410.11917],[0.29084,-0.97519],[-0.06418,0.21521]],[[924.29914,413.90358],[-0.01258,-1.20526],[13.15638,4.16543]],[[964.1057,425.02121],[-12.99513,-4.87922],[1.17537,0.35239]],[[970.21765,426.67451],[-2.3817,-0.804],[0.75941,0.04146]],[[971.83798,426.41666],[-0.25651,0.23985],[2.18115,-2.03947]],[[976.78433,418.26967],[-1.76682,2.44279],[-0.76669,0.00973]],[[972.89889,418.10481],[0.90089,0.17138],[-2.67549,-0.50896]],[[964.88923,416.67374],[2.68829,0.42712],[-9.42353,-1.49721]],[[936.29671,409.90591],[9.13228,2.58714],[-3.35077,-0.55846]]],&quot;closed&quot;:true}]}" fill="#ffffff" stroke="none" stroke-width="0.5" stroke-linecap="butt"/><path d="M202.78495,228.8013c5.96159,-2.23295 12.10374,-3.29709 18.17516,-5.05899c0.01509,0.06043 0.13356,0.15551 0.16714,0.22267c0.33541,0.67082 0.91168,0.30282 0.91168,0.30282l0.68537,-0.34313c0.72236,-0.21549 1.37108,-0.66285 1.9271,-1.17183c-0.44847,-5.97425 -3.55698,-11.71971 -4.42935,-17.74756c-0.19014,-0.66418 -0.49948,-1.69068 -0.48577,-2.37707c0.00842,-0.42215 2.53933,-0.34028 2.84366,-0.31491c3.70527,0.30896 7.33713,1.49456 11.02527,1.94924c0.35933,0.1298 -0.64428,2.91196 -0.79418,3.51253c-1.08389,4.34256 -2.04435,8.72987 -3.12362,13.0758c-0.34978,3.1331 -1.55213,5.85984 -2.25143,8.87483c-0.89007,3.83746 -1.6402,6.91158 -4.24949,9.96518c-4.87446,2.31362 -13.10145,3.60342 -17.88155,0.41669c-3.59027,-1.22463 -5.69072,-6.6109 -7.23341,-9.73332c-0.02706,-0.05476 4.4959,-1.50766 4.71341,-1.57295z" data-paper-data="{&quot;noHover&quot;:false,&quot;origItem&quot;:[&quot;Path&quot;,{&quot;applyMatrix&quot;:true,&quot;segments&quot;:[[[926.61254,417.73069],[12.14285,3.5238],[-0.03018,0.12086]],[[926.46822,418.11346],[0.06716,-0.13431],[-0.67082,1.34164]],[924.45576,418.78428],[[923.08279,418.0906],[0,0],[-1.44471,-0.43097]],[[919.22563,415.72869],[1.11205,1.01797],[0.89694,-11.9485]],[[928.15956,380.1298],[-1.74473,12.05571],[0.38029,-1.32836]],[[929.175,375.57071],[0.02742,1.37277],[-0.01686,-0.84429]],[[923.5003,374.93752],[0.60865,-0.05075],[-7.41054,0.61792]],[[901.48814,378.8123],[7.37628,-0.90935],[-0.71866,0.25961]],[[903.08234,385.83106],[-0.2998,-1.20115],[2.16779,8.68513]],[[909.35292,411.92731],[-2.15853,-8.69186],[0.69956,6.26621]],[[913.83986,429.61277],[-1.39861,-6.02998],[1.78014,7.67491]],[[922.29365,449.50563],[-5.21858,-6.1072],[9.74892,4.62723]],[[957.96755,450.34516],[-9.56021,6.37347],[7.18055,-2.44927]],[[972.39433,430.92276],[-3.08539,6.24485],[0.05411,-0.10951]],[[963.14745,427.86406],[0.43501,0.13058],[-11.92317,-4.46591]]],&quot;closed&quot;:true}]}" fill="#616161" stroke="none" stroke-width="0.5" stroke-linecap="butt"/></g><g><path d="M264.68168,243.17864c0,0 0.82804,15.75777 -1.37782,16.03807c-6.6176,0.84095 -24.01925,-0.01169 -38.86622,-0.01169c-1.66786,0 -1.42457,-14.95796 -1.42457,-14.95796l1.78071,-30.62821c0,0 1.32025,-13.5334 2.84914,-13.5334c9.88992,0 24.68694,-0.93059 31.15944,0.71298c2.1575,0.54786 4.09861,14.95725 4.09861,14.95725z" data-paper-data="{&quot;origPos&quot;:null}" fill="#7c7c7c" stroke="#000000" stroke-width="3.5" stroke-linecap="round"/><path d="M232.82346,223.62117c-1.29166,0 -1.29167,-2.4875 -1.29167,-2.4875c0,-5.15926 0,-11.97684 0,-17.1361c0,0 0.00001,-2.4875 1.29167,-2.4875c1.29166,0 1.29166,2.4875 1.29166,2.4875c0,5.15926 0,10.31851 0,15.47777v1.65833c0,0 0,2.4875 -1.29166,2.4875z" fill="#ffffff" stroke="none" stroke-width="0.5" stroke-linecap="butt"/><path d="M244.82346,229.9545c-1.29166,0 -1.29167,-3.125 -1.29167,-3.125c0,-6.48148 0,-15.04629 0,-21.52778c0,0 0.00001,-3.125 1.29167,-3.125c1.29166,0 1.29166,3.125 1.29166,3.125c0,6.48148 0,12.96296 0,19.44445v2.08333c0,0 0,3.125 -1.29166,3.125z" fill="#ffffff" stroke="none" stroke-width="0.5" stroke-linecap="butt"/></g><g fill="none" stroke="#b9b9b9" stroke-width="3"><path d="M254.89468,205.31998c-0.82753,-1.35809 0.08589,-2.57767 1.30884,-3.7957c1.22296,-1.21801 2.45037,-1.58994 3.11989,-0.61516c1.41955,2.06682 -0.06978,3.04234 -1.0274,3.99608c-1.22297,1.21803 -2.23265,2.33277 -3.40133,0.41479z" stroke-linecap="butt"/><path d="M253.28898,207.24868l2.58997,-2.51944" stroke-linecap="round"/><path d="M249.74248,207.87801c1.22296,-1.21801 2.45037,-1.58994 3.11989,-0.61516c1.41955,2.06682 -0.06978,3.04234 -1.0274,3.99608c-1.22296,1.21802 -2.23264,2.33277 -3.40132,0.41479c-0.82753,-1.35809 0.08588,-2.57767 1.30883,-3.79571z" stroke-linecap="butt"/><path d="M249.41789,211.08296l-2.58997,2.51946" stroke-linecap="round"/><path d="M241.20565,213.15014c0.40066,-1.63508 1.7387,-1.48046 3.25851,-1.02164c1.51981,0.45883 2.48819,1.43557 2.24522,2.68318c-0.51516,2.64527 -2.03348,1.77826 -3.22353,1.41899c-1.51981,-0.45882 -2.84605,-0.77137 -2.2802,-3.08052z" stroke-linecap="butt"/><path d="M242.17373,213.75586l-3.1793,-1.00816" stroke-linecap="round"/><path d="M234.00593,208.77439c0.893,-1.31672 2.06779,-0.52961 3.31104,0.62589c1.24326,1.1555 1.81512,2.52367 1.19118,3.55857c-1.32294,2.19428 -2.43342,0.66261 -3.40694,-0.24218c-1.24325,-1.15551 -2.3564,-2.08274 -1.09528,-3.94227z" stroke-linecap="butt"/><path d="M232.11175,207.33799l2.58519,2.46183" stroke-linecap="round"/><path d="M227.50223,202.64975c0.893,-1.3167 2.0678,-0.52961 3.31104,0.62589c1.24326,1.1555 1.81512,2.52367 1.19118,3.55857c-1.32294,2.19427 -2.43342,0.66261 -3.40693,-0.24218c-1.24325,-1.1555 -2.3564,-2.08273 -1.09528,-3.94227z" stroke-linecap="butt"/><path d="M228.19327,203.67519l-2.58521,-2.46183" stroke-linecap="round"/></g><path d="M279.30698,253.91771c0,0 4.36261,-1.02642 6.59769,-0.26656c1.71105,0.58168 2.36541,2.38846 2.87475,4.12242c1.39803,4.7595 0.14776,9.61376 0.42148,17.32516c0.07454,2.10025 -2.9719,3.39358 -5.07256,3.33199c-1.96473,-0.05762 -5.37653,-0.27815 -5.37653,-0.27815l-33.06388,-1.70473c0,0 -4.27348,-0.36046 -5.09926,-2.06162c-1.98861,-4.09672 -0.70456,-8.62555 -1.12247,-13.16021c-0.14163,-1.53674 4.64985,-1.83404 4.64985,-1.83404c0,0 8.8983,-1.38422 14.59369,-2.27018c8.03835,-1.25044 20.59726,-3.20407 20.59726,-3.20407z" data-paper-data="{&quot;index&quot;:null}" fill="#171717" stroke="#000000" stroke-width="3" stroke-linecap="round"/><path d="M240.53179,265.47173c0,0 2.03836,3.99136 1.83413,6.34323c-0.15632,1.80045 -1.75461,2.86727 -3.31681,3.77589c-4.28805,2.49399 -9.30043,2.43889 -16.72345,4.54589c-2.02171,0.57384 -4.00501,-2.07569 -4.44676,-4.1303c-0.41315,-1.92166 -1.01361,-5.28744 -1.01361,-5.28744l-6.23898,-32.51463c0,0 -0.67031,-4.23595 0.78448,-5.44402c3.50343,-2.90924 8.20786,-2.74364 12.51159,-4.23217c1.45848,-0.50445 2.89121,4.07747 2.89121,4.07747c0,0 3.46876,8.31044 5.68895,13.62958c3.13353,7.50731 8.02925,19.23654 8.02925,19.23654z" data-paper-data="{&quot;index&quot;:null}" fill="#171717" stroke="#000000" stroke-width="3" stroke-linecap="round"/><path d="M225.9261,198.70555c0,0 -1.61748,-4.27944 -1.66187,-5.3641c-0.13318,-3.25396 0.21089,-17.43852 0.5645,-30.25748c0.05469,-1.98278 1.75669,-5.03601 1.75669,-5.03601c0,0 2.24636,-1.56659 3.50777,-1.5387c13.91722,0.30782 27.18987,-0.49224 32.30697,1.19706c1.7057,0.5631 4.80463,2.3866 4.80463,2.3866c0,0 0.58925,4.41332 0.69221,5.54777c0.03431,0.37815 0.05464,0.59102 0.06637,0.97054c0.3514,11.37153 -0.45696,24.49703 -0.95507,29.07503c-0.16603,1.526 -2.04757,3.86498 -2.04757,3.86498c0,0 -1.46196,2.68788 -5.88234,3.37528c-4.83667,0.75211 -16.53717,0.05666 -28.60069,-0.69766z" fill="#582700" stroke="#000000" stroke-width="2.5" stroke-linecap="round"/><path d="M269.51465,160.75461l-0.6998,-0.54202c-0.08858,-0.03297 -0.17711,-0.06544 -0.26564,-0.09744c-0.22939,0.30532 -0.66941,0.65652 -1.39781,0.39363c-0.67135,-0.24231 -0.821,-0.72959 -0.82585,-1.1031c-2.60998,-0.7283 -5.23163,-1.11499 -7.98635,-1.43547c-7.72096,-0.63181 -15.47501,-0.66328 -23.21866,-0.85412c-2.53956,-0.06258 -8.24898,0.81901 -10.32839,-0.91963c-1.01411,-0.84793 -0.56191,-2.76775 -0.63637,-3.82303c-0.21575,-3.05795 -0.50699,-6.22565 -0.44291,-9.29265c0.11057,-4.0082 -1.29994,-7.62491 -1.70745,-11.56897c-0.20429,-1.97729 -0.82261,-3.97528 0.98352,-5.63481c0.50996,-0.46857 1.37711,-0.16631 2.06941,-0.18502c2.53014,-0.06835 4.97121,0.16548 7.46301,0.52528c7.89653,1.14016 15.71461,1.85557 23.54498,3.47953c3.15866,0.65893 6.35558,0.80753 9.57613,0.99695c1.89279,0.11133 3.63457,-0.38616 4.71322,1.80733c0.64413,1.30991 0.04381,5.30028 -0.04727,6.78049c-0.35127,5.70766 0.37278,12.74389 -0.97154,18.4606c0.11615,0.04156 0.23233,0.08389 0.34856,0.12699l1.26675,0.84018c0,0 1.02267,0.71879 0.30387,1.74146c-0.71879,1.02267 -1.74146,0.30387 -1.74146,0.30387z" data-paper-data="{&quot;index&quot;:null}" fill="#000000" stroke="none" stroke-width="0.5" stroke-linecap="butt"/><path d="M240.75439,174.63747c0.54697,-0.00696 1.02839,2.98035 1.07532,6.6723c0.04693,3.69195 -0.3584,6.69051 -0.90538,6.69745c-0.54697,0.00696 -1.02839,-2.98034 -1.07533,-6.6723c-0.04693,-3.69195 0.35839,-6.69053 0.90537,-6.69747z" data-paper-data="{&quot;index&quot;:null}" fill="none" stroke="#590000" stroke-width="2.5" stroke-linecap="butt"/><path d="M236.86054,172.64488c0.57995,-1.10731 1.68727,-0.52736 1.68727,-0.52736l0.23605,0.12791c0.42653,-0.04272 0.79415,0.15976 0.79415,0.15976c0.88226,0.486 1.75723,0.98536 2.6271,1.49319l0.04224,0.07146l0.02039,-0.0268l1.01022,0.76814c0.2967,0.22162 0.4924,0.57228 0.50223,0.97122c0.017,0.69014 -0.52868,1.2634 -1.21883,1.28041c-0.16827,0.00415 -0.3296,-0.02515 -0.47761,-0.08185l-1.28494,-0.45819l0.07634,-0.21411c-0.87443,-0.17723 -1.54211,-0.59463 -2.7518,-1.51111l-0.7354,-0.36538c0,0 -1.10731,-0.57995 -0.52736,-1.68727z" data-paper-data="{&quot;index&quot;:null}" fill="#582700" stroke="none" stroke-width="0.5" stroke-linecap="butt"/><path d="M250.24905,174.9715c0.54698,-0.00696 1.02838,2.98036 1.07532,6.67231c0.04694,3.69195 -0.3584,6.69051 -0.90539,6.69745c-0.54698,0.00696 -1.02839,-2.98034 -1.07533,-6.6723c-0.04694,-3.69195 0.3584,-6.69052 0.90537,-6.69747z" data-paper-data="{&quot;index&quot;:null}" fill="none" stroke="#590000" stroke-width="2.5" stroke-linecap="butt"/><path d="M252.36006,172.37231c0,0 1.07741,-0.63379 1.7112,0.44362c0.63379,1.07741 -0.44362,1.7112 -0.44362,1.7112l-0.71653,0.40117c-1.16307,0.97496 -1.80938,1.42474 -2.67403,1.64482l0.08681,0.21008l-1.26081,0.52094c-0.14504,0.06391 -0.30472,0.10113 -0.47301,0.10528c-0.69014,0.017 -1.2634,-0.52868 -1.28041,-1.21883c-0.00983,-0.39895 0.16837,-0.75884 0.45379,-0.99479l0.97115,-0.81696l0.02169,0.02577l0.03867,-0.07345c0.8438,-0.55006 1.6931,-1.09191 2.55035,-1.62078c0,0 0.3572,-0.22033 0.78531,-0.19869l0.22945,-0.13938z" data-paper-data="{&quot;index&quot;:null}" fill="#582700" stroke="none" stroke-width="0.5" stroke-linecap="butt"/><g data-paper-data="{&quot;index&quot;:null}" stroke="#000000" stroke-width="1.25" stroke-linecap="butt"><g data-paper-data="{&quot;index&quot;:null}" fill="#000000"><path d="M246.08159,191.08133l12.52936,0.23173c0,0 3.64111,3.92489 -6.3602,3.86895c-9.39311,-0.14065 -6.16916,-4.10068 -6.16916,-4.10068z"/></g><g data-paper-data="{&quot;index&quot;:null}" fill="#ffffff"><path d="M252.25075,195.18202c-1.92137,-0.02877 -3.31483,-0.21735 -4.31595,-0.49915c-0.01793,-0.00505 0.69182,-0.82068 0.71337,-1.61452c0.02632,-0.96923 -0.63199,-1.95123 -0.62907,-1.95118c2.11535,0.03912 10.59185,0.19589 10.59185,0.19589c0,0 3.64111,3.92489 -6.3602,3.86895z"/></g></g><g><g><path d="M252.97186,206.63439c-1.73528,-2.7074 12.47218,-3.39287 14.59256,-4.29292c2.30454,-0.97824 -2.32466,19.43074 -2.32466,19.43074l-0.83348,3.44848l5.09773,-22.91394c0,0 1.36153,-8.00247 3.50677,-7.26628c0,0 11.04299,-1.45751 27.42225,7.92434c-0.19948,5.1374 -4.95428,16.13926 -4.95428,16.13926c0,0 -9.42615,24.91782 -14.03943,25.89775c-1.06827,0.22691 -14.14955,-0.07324 -17.06189,-3.03993c-9.66445,-9.84483 -11.40557,-35.32749 -11.40557,-35.32749z" fill="#582700" stroke="#000000" stroke-width="2.5" stroke-linecap="round"/><path d="M266.28397,220.26562c-0.13975,0.48709 -0.28647,0.97304 -0.43189,1.46063c-0.03209,0.10761 -0.51405,1.28957 -0.50776,1.8922c6.57819,2.08272 13.40571,3.11921 19.90328,5.55882c0.58769,0.1762 1.86513,0.42465 3.05598,0.82665c0.37971,0.02073 0.68191,-0.009 0.81016,-0.12893c1.09058,-1.01973 1.58976,-2.8521 2.47317,-4.07349c-0.38335,0.00486 -1.49227,0.00326 -1.94272,-0.08243c-1.33774,-0.25448 -2.66069,-0.50197 -4.00483,-0.71553c-4.71177,-0.7486 -9.73012,-2.09035 -14.29626,-3.38392c-1.67539,-0.27923 -3.42883,-0.72418 -5.05913,-1.35401zM266.67102,218.81042c1.60222,0.63593 3.35142,1.07084 5.00195,1.34593c5.15755,1.48686 10.64771,2.6797 15.96307,3.61764c2.19011,0.38646 5.65139,0.14328 5.29034,2.70433c-0.92453,1.31112 -1.54843,3.30805 -2.74137,4.4319c0.37234,0.28361 0.62739,0.6102 0.68916,0.98771c0.08695,0.5314 -1.17936,2.2934 -1.44476,2.82438c-1.58333,3.16784 -2.89617,7.26648 -6.59185,8.46442c-5.17568,3.45046 -14.20655,2.11277 -19.41305,-0.58024c-2.93464,-3.29339 -3.80948,-6.60542 -4.7731,-10.80357c-0.69576,-3.03119 -1.90821,-5.75706 -2.25654,-8.90727c-1.08547,-4.31029 -2.03535,-8.64162 -3.11471,-12.95187c-0.49538,-1.97824 -1.64981,-3.71492 0.0471,-5.24062c3.53799,-0.66782 7.11493,-1.34129 10.68249,-1.92997c1.11208,-0.1835 3.38211,-0.48124 4.37784,0.21792c1.38378,0.97164 0.73132,2.72994 0.35397,4.05329c-0.42406,3.01164 -1.04811,6.28831 -1.90484,9.46514c0.21456,0.25414 0.16379,0.60951 0.16379,0.60951c-0.08227,0.57152 -0.19612,1.13395 -0.32948,1.69136zM286.40494,231.13087c-4.03141,-0.53668 -7.6776,-2.23005 -11.63659,-2.8767c-2.34073,-0.33425 -6.55357,-0.5887 -9.08054,-2.11917c-0.15422,-0.0207 -0.26517,-0.07618 -0.26517,-0.07618l-0.68649,-0.34684c-0.72235,-0.21549 -1.37256,-0.67197 -1.92858,-1.18096c0.44847,-5.97425 3.5946,-11.77159 4.46697,-17.79944c0.19014,-0.66418 0.52143,-1.59316 0.50772,-2.27954c-0.00843,-0.42215 -2.53302,-0.34197 -2.83735,-0.3166c-3.70527,0.30896 -7.31794,1.48271 -11.00608,1.93739c-0.35933,0.12981 0.6472,2.90881 0.7971,3.50938c1.08389,4.34257 2.05602,8.70219 3.13529,13.04813c0.34978,3.13311 1.54417,5.82774 2.24347,8.84273c0.89007,3.83746 1.6176,6.89283 4.22689,9.94643c4.87446,2.31361 13.05685,3.6065 17.83695,0.41977c3.59028,-1.22464 5.6707,-6.58878 7.21339,-9.7112c0.01636,-0.03311 -1.59798,-0.56147 -2.92503,-0.98849c-0.02099,-0.00308 -0.04164,-0.00599 -0.06195,-0.0087z" fill="#000000" stroke="none" stroke-width="0.5" stroke-linecap="butt"/><path d="M271.29828,221.59748c4.56614,1.29357 9.67931,2.65652 14.39108,3.40512c1.34415,0.21356 2.66703,0.46458 4.00477,0.71907c0.45045,0.08569 1.55937,0.08722 1.94272,0.08236c-0.88341,1.2214 -1.38685,3.07156 -2.47742,4.0913c-0.12826,0.11992 -0.43133,0.1515 -0.81104,0.13077c-1.19085,-0.402 -2.47015,-0.64704 -3.05783,-0.82323c-6.49757,-2.43961 -13.41772,-3.50743 -19.99591,-5.59015c-0.00629,-0.60263 0.47707,-1.79191 0.50916,-1.89951c0.14542,-0.48759 0.29399,-0.97906 0.43374,-1.46615c1.6303,0.62983 3.38534,1.0712 5.06073,1.35043z" data-paper-data="{&quot;noHover&quot;:false,&quot;origItem&quot;:[&quot;Path&quot;,{&quot;applyMatrix&quot;:true,&quot;segments&quot;:[[[926.17844,407.1979],[3.2606,1.25965],[-0.27949,0.97418]],[[925.31465,410.11917],[0.29084,-0.97519],[-0.06418,0.21521]],[[924.29914,413.90358],[-0.01258,-1.20526],[13.15638,4.16543]],[[964.1057,425.02121],[-12.99513,-4.87922],[1.17537,0.35239]],[[970.21765,426.67451],[-2.3817,-0.804],[0.75941,0.04146]],[[971.83798,426.41666],[-0.25651,0.23985],[2.18115,-2.03947]],[[976.78433,418.26967],[-1.76682,2.44279],[-0.76669,0.00973]],[[972.89889,418.10481],[0.90089,0.17138],[-2.67549,-0.50896]],[[964.88923,416.67374],[2.68829,0.42712],[-9.42353,-1.49721]],[[936.29671,409.90591],[9.13228,2.58714],[-3.35077,-0.55846]]],&quot;closed&quot;:true}]}" fill="#ffffff" stroke="none" stroke-width="0.5" stroke-linecap="butt"/><path d="M284.7239,230.57607c0.21751,0.06529 4.74047,1.51819 4.71341,1.57295c-1.54269,3.12242 -3.64314,8.50869 -7.23341,9.73332c-4.7801,3.18673 -13.00709,1.89693 -17.88155,-0.41669c-2.60929,-3.0536 -3.35942,-6.12772 -4.24949,-9.96518c-0.6993,-3.01499 -1.90165,-5.74173 -2.25143,-8.87483c-1.07927,-4.34593 -2.03973,-8.73324 -3.12362,-13.0758c-0.1499,-0.60057 -1.15351,-3.38273 -0.79418,-3.51253c3.68814,-0.45468 7.32,-1.64028 11.02527,-1.94924c0.30433,-0.02537 2.83524,-0.10724 2.84366,0.31491c0.01371,0.68639 -0.29563,1.71289 -0.48577,2.37707c-0.87237,6.02785 -3.98088,11.77331 -4.42935,17.74756c0.55602,0.50898 1.20474,0.95634 1.9271,1.17183l0.68537,0.34313c0,0 0.57627,0.368 0.91168,-0.30282c0.03358,-0.06716 0.15205,-0.16224 0.16714,-0.22267c6.07142,1.7619 12.21357,2.82604 18.17516,5.05899z" data-paper-data="{&quot;noHover&quot;:false,&quot;origItem&quot;:[&quot;Path&quot;,{&quot;applyMatrix&quot;:true,&quot;segments&quot;:[[[926.61254,417.73069],[12.14285,3.5238],[-0.03018,0.12086]],[[926.46822,418.11346],[0.06716,-0.13431],[-0.67082,1.34164]],[924.45576,418.78428],[[923.08279,418.0906],[0,0],[-1.44471,-0.43097]],[[919.22563,415.72869],[1.11205,1.01797],[0.89694,-11.9485]],[[928.15956,380.1298],[-1.74473,12.05571],[0.38029,-1.32836]],[[929.175,375.57071],[0.02742,1.37277],[-0.01686,-0.84429]],[[923.5003,374.93752],[0.60865,-0.05075],[-7.41054,0.61792]],[[901.48814,378.8123],[7.37628,-0.90935],[-0.71866,0.25961]],[[903.08234,385.83106],[-0.2998,-1.20115],[2.16779,8.68513]],[[909.35292,411.92731],[-2.15853,-8.69186],[0.69956,6.26621]],[[913.83986,429.61277],[-1.39861,-6.02998],[1.78014,7.67491]],[[922.29365,449.50563],[-5.21858,-6.1072],[9.74892,4.62723]],[[957.96755,450.34516],[-9.56021,6.37347],[7.18055,-2.44927]],[[972.39433,430.92276],[-3.08539,6.24485],[0.05411,-0.10951]],[[963.14745,427.86406],[0.43501,0.13058],[-11.92317,-4.46591]]],&quot;closed&quot;:true}]}" fill="#616161" stroke="none" stroke-width="0.5" stroke-linecap="butt"/></g><g data-paper-data="{&quot;index&quot;:null}" fill="#fffc96" stroke="#000000" stroke-width="2" stroke-linecap="round"><path d="M251.56405,215.0774c-0.17561,-2.0018 2.98014,-2.32622 2.98014,-2.32622l0.38427,1.83178c0,0 4.55022,1.60304 10.77037,2.74994c-0.11719,1.31017 -0.15308,2.28218 -0.0663,3.0816c-7.26285,-1.14228 -13.87694,-3.15367 -14.06848,-5.33711z"/><path d="M254.38587,228.15158c-0.67559,-2.72415 2.56156,-3.99699 2.56156,-3.99699l0.32222,1.3387c0,0 3.45687,-1.67283 8.3574,-5.13106c0.10566,1.04662 0.41616,1.79689 1.02177,2.61203c-6.06564,4.24749 -11.77349,7.15095 -12.26295,5.17731z" data-paper-data="{&quot;index&quot;:null}"/></g></g></g></g></svg>