<svg version="1.1" xmlns="http://www.w3.org/2000/svg" xmlns:xlink="http://www.w3.org/1999/xlink" width="234" height="234" viewBox="0,0,234,234"><g transform="translate(-123,-63)"><g data-paper-data="{&quot;isPaintingLayer&quot;:true}" fill-rule="nonzero" stroke-linejoin="miter" stroke-miterlimit="10" stroke-dasharray="" stroke-dashoffset="0" style="mix-blend-mode: normal"><g><g><g data-paper-data="{&quot;origRot&quot;:0}" stroke="#000000" stroke-width="3" stroke-linecap="round"><path d="M287.53859,194.63349c1.2957,2.07936 -6.79724,5.45529 -6.79724,5.45529c0,0 -21.15762,9.54129 -31.13128,14.09094c-4.47178,1.27965 -25.98159,-31.19815 -24.89844,-36.89661c0.48283,-2.5402 7.50917,-9.60352 9.48638,-9.21114c3.76346,0.74687 16.43865,11.78362 16.43865,11.78362l-3.41129,2.41651l9.52903,-5.44675c0,0 10.53218,-7.33117 15.78559,-9.13307c2.91358,-0.99935 14.99858,26.94118 14.99858,26.94118z" data-paper-data="{&quot;origPos&quot;:null}" fill="#582700"/><path d="M278.76841,199.24938l-14.77874,-26.1639" fill="none"/><path d="M260.39272,175.44593l15.02791,26.02314" data-paper-data="{&quot;origPos&quot;:null}" fill="none"/></g><path d="M278.91985,199.87944l-2.43777,1.39722l-15.28465,-26.66775l2.43777,-1.39722z" fill="#ffffff" stroke="none" stroke-width="0" stroke-linecap="butt"/><path d="M249.43612,214.4588l-8.16645,-7.51228l-12.87577,-20.25529l-2.82151,-8.00634l1.23532,-4.9786l6.28718,-4.08917l1.25743,-0.81784l14.92725,10.5707l-2.37857,1.84524l1.09045,1.67658l11.51628,-6.59549l15.86427,25.76722l-24.81477,11.36785z" fill="#66c8ff" stroke="#000000" stroke-width="0.5" stroke-linecap="round"/></g><g fill="#fffc96" stroke="#000000" stroke-width="2" stroke-linecap="round"><path d="M253.39291,177.84303c0,0 1.73872,-4.67606 4.95515,-3.56724c5.14614,1.77408 -10.11835,35.95013 -15.57121,34.42803c-2.22791,-0.62189 -1.53043,-4.20297 -1.53043,-4.20297l2.113,0.32473c0,0 4.27289,-5.68181 8.01094,-13.56164c3.68625,-7.77065 4.67348,-13.55641 4.67348,-13.55641z"/><path d="M243.62443,177.36065c0,0 -1.72829,-4.16635 0.86447,-4.47801c5.44262,-0.65424 18.6414,38.66165 13.39559,38.05221c-3.17697,-0.36907 -3.48033,-4.4247 -3.48033,-4.4247l1.55798,0.19207c0,0 -0.92051,-6.18247 -4.05359,-15.02896c-3.13305,-8.84652 -6.80698,-14.31193 -6.80698,-14.31193z" data-paper-data="{&quot;index&quot;:null}"/></g></g><path d="M123,297v-234h234v234z" data-paper-data="{&quot;index&quot;:null}" fill="none" stroke="none" stroke-width="0" stroke-linecap="butt"/><g stroke="#000000" stroke-linecap="round"><path d="M227.43521,173.6811c0,0 -27.35335,9.14681 -29.48677,-8.70677c-0.78604,-6.57784 15.52129,-6.87263 15.52129,-6.87263z" data-paper-data="{&quot;origPos&quot;:null}" fill="#66c8ff" stroke-width="2"/><path d="M218.09088,163.00355c0,0 -16.03209,-0.04209 -15.89599,-0.67585c0.43158,-2.00941 12.19863,-2.81535 12.19863,-2.81535z" data-paper-data="{&quot;origPos&quot;:null}" fill="#0a0a0a" stroke-width="1"/></g><g data-paper-data="{&quot;origRot&quot;:0}" stroke="#000000" stroke-linecap="round"><path d="M239.30424,226.12313c0,0 -0.4381,-4.78067 1.10224,-4.87546c4.5453,-0.27966 8.82482,-2.24047 13.17723,-0.90097c1.80736,0.55622 2.81638,4.72451 2.81638,4.72451l6.73536,32.41544c0,0 0.73911,3.33806 1.09617,5.27096c0.38176,2.06659 -0.43105,5.27486 -2.51803,5.52199c-7.66272,0.90744 -12.26903,2.88453 -17.18624,2.22995c-1.79142,-0.23847 -3.67694,-0.60917 -4.51317,-2.21129c-1.09237,-2.09278 -0.74438,-6.56097 -0.74438,-6.56097z" data-paper-data="{&quot;origPos&quot;:null}" fill="#ff0000" stroke-width="3"/><path d="M264.53916,266.09605c0,0 -5.68629,3.13187 -10.75397,3.5754c-3.8881,0.34029 -12.39876,0.05735 -12.39876,0.05735c0,0 -1.57498,-2.47964 -1.80321,-4.06597c-0.24043,-1.67111 0.60229,-4.2808 0.60229,-4.2808l23.15199,-2.82677z" data-paper-data="{&quot;origPos&quot;:null}" fill="#976e57" stroke-width="2"/><path d="M239.41328,226.43565c0,0 -0.4381,-4.78067 1.10224,-4.87545c4.54529,-0.27966 8.82482,-2.24047 13.17725,-0.90095c1.80736,0.55622 2.81638,4.72451 2.81638,4.72451l6.73535,32.41544c0,0 0.73913,3.33807 1.09619,5.27095c0.38176,2.06659 -0.43106,5.27486 -2.51803,5.52199c-7.66272,0.90744 -12.26903,2.88454 -17.18624,2.22995c-1.79142,-0.23847 -3.67694,-0.60919 -4.51317,-2.21128c-1.09237,-2.09278 -0.74438,-6.56098 -0.74438,-6.56098z" data-paper-data="{&quot;origPos&quot;:null}" fill="#4b4b4b" stroke-width="3"/></g><path d="M234.57193,262.79374c0,0 -0.08224,4.48097 -1.37029,6.45932c-0.98606,1.51451 -2.89844,1.70264 -4.70447,1.76819c-4.95732,0.17991 -9.35273,-2.22992 -16.89308,-3.86819c-2.05365,-0.44619 -2.55497,-3.71763 -1.97675,-5.73806c0.54082,-1.88972 1.59671,-5.14148 1.59671,-5.14148l9.81364,-31.61991c0,0 1.40419,-4.05228 3.25656,-4.43257c4.46083,-0.91583 8.53255,1.44641 13.03004,2.16079c1.52413,0.24209 0.62949,4.95869 0.62949,4.95869c0,0 -0.85513,8.96463 -1.40246,14.70247c-0.77249,8.09826 -1.97941,20.75078 -1.97941,20.75078z" fill="#4b4b4b" stroke="#000000" stroke-width="3" stroke-linecap="round"/><g><path d="M217.66329,181.72901c0,0 0.25794,-14.53727 2.33741,-15.33149c6.23839,-2.38267 21.04354,-3.17337 30.86681,-4.31963c1.51858,-0.1772 4.3985,13.11197 4.3985,13.11197l5.31858,30.21541c0,0 1.97532,14.82896 0.31871,15.02226c-14.74691,1.72081 -31.93244,4.58456 -38.60293,4.51631c-2.22348,-0.02275 -3.22739,-15.77029 -3.22739,-15.77029z" data-paper-data="{&quot;origPos&quot;:null}" fill="#66c8ff" stroke="#000000" stroke-width="3.5" stroke-linecap="round"/><path d="M237.3314,187.68839c-1.28297,0.14971 -1.57127,-2.32103 -1.57127,-2.32103c-0.59797,-5.12449 -1.38814,-11.89612 -1.98611,-17.02062c0,0 -0.28831,-2.47074 0.99465,-2.62045c1.28297,-0.14971 1.57127,2.32103 1.57127,2.32103c0.59797,5.12449 1.19595,10.24897 1.79391,15.37346l0.1922,1.64716c0,0 0.28831,2.47074 -0.99465,2.62045z" fill="#ffffff" stroke="none" stroke-width="0.5" stroke-linecap="butt"/><path d="M248.95392,185.91269c-1.28297,0.14971 -1.64516,-2.95423 -1.64516,-2.95423c-0.75122,-6.4378 -1.7439,-14.94488 -2.49512,-21.38268c0,0 -0.3622,-3.10394 0.92077,-3.25365c1.28297,-0.14971 1.64516,2.95423 1.64516,2.95423c0.75122,6.4378 1.50244,12.8756 2.25367,19.31341l0.24147,2.06929c0,0 0.3622,3.10394 -0.92077,3.25365z" fill="#ffffff" stroke="none" stroke-width="0.5" stroke-linecap="butt"/></g><path d="M250.32684,163.24968c-11.94552,1.84438 -23.53487,3.59723 -28.4198,3.28649c-4.46449,-0.28398 -6.16399,-2.82836 -6.16399,-2.82836c0,0 -2.08574,-2.15885 -2.38937,-3.66353c-0.9109,-4.51404 -2.90532,-17.51229 -3.58582,-28.86886c-0.02271,-0.37903 -0.02174,-0.59286 -0.02185,-0.97255c-0.0003,-1.13909 0.18663,-5.58766 0.18663,-5.58766c0,0 2.92094,-2.09682 4.5686,-2.81216c4.94297,-2.14604 18.23352,-2.55201 32.06558,-4.11969c1.25371,-0.14209 3.63277,1.2145 3.63277,1.2145c0,0 1.97168,2.88645 2.20581,4.8561c1.51377,12.73416 3.14179,26.82922 3.30402,30.08184c0.05409,1.08422 -1.16896,5.49262 -1.16896,5.49262z" fill="#582700" stroke="#000000" stroke-width="2.5" stroke-linecap="round"/><path d="M205.80592,126.02423c-0.8085,-0.95332 0.14482,-1.76182 0.14482,-1.76182l1.18539,-0.95152c0.11185,-0.05345 0.2237,-0.10615 0.33561,-0.15806c-1.8568,-5.57138 -1.77334,-12.64427 -2.64038,-18.29662c-0.22485,-1.46586 -1.18431,-5.38541 -0.66151,-6.7483c0.87543,-2.2822 2.65513,-1.9446 4.53006,-2.22699c3.19016,-0.48047 6.36045,-0.91814 9.44639,-1.86059c7.65101,-2.32685 15.37209,-3.74776 23.13284,-5.59878c2.44896,-0.58411 4.85878,-1.03818 7.38471,-1.19938c0.69115,-0.04412 1.52733,-0.4237 2.07766,-0.00327c1.94909,1.48905 1.51437,3.53485 1.49009,5.5225c-0.04843,3.96476 -1.12539,7.69441 -0.65207,11.6761c0.34175,3.04858 0.33876,6.22966 0.40099,9.29457c0.02147,1.05768 0.64578,2.92863 -0.28732,3.86496c-1.91329,1.91993 -7.67911,1.55932 -10.20256,1.85178c-7.6945,0.89176 -15.41379,1.62577 -23.04573,2.95462c-2.71434,0.56879 -5.29017,1.19148 -7.82341,2.15328c0.02902,0.37241 -0.07587,0.87123 -0.72249,1.17339c-0.70156,0.32782 -1.17159,0.01794 -1.42771,-0.26533c-0.08526,0.03987 -0.17049,0.08025 -0.25571,0.12112l-0.64782,0.6032c0,0 -0.95332,0.8085 -1.76182,-0.14482z" fill="#000000" stroke="none" stroke-width="0.5" stroke-linecap="butt"/><g fill="none" stroke="#b9b9b9" stroke-width="3"><path d="M249.29036,167.3306c-0.97936,-1.25302 -0.21345,-2.57025 0.86009,-3.92181c1.07354,-1.35154 2.24958,-1.86323 3.02757,-0.97262c1.64953,1.88836 0.28329,3.02993 -0.55732,4.08823c-1.07356,1.35157 -1.94723,2.57582 -3.33033,0.80622z" stroke-linecap="butt"/><path d="M250.19953,166.62976l-2.2805,2.80265" stroke-linecap="round"/><path d="M244.46936,170.46854c1.07354,-1.35154 2.24958,-1.86323 3.02757,-0.97262c1.64953,1.88836 0.28329,3.02993 -0.55732,4.08823c-1.07354,1.35155 -1.94722,2.57582 -3.33032,0.80621c-0.97936,-1.25302 -0.21346,-2.57025 0.86008,-3.92182z" stroke-linecap="butt"/><path d="M244.51842,173.68951l-2.2805,2.80267" stroke-linecap="round"/><path d="M236.60111,176.69458c0.20845,-1.67049 1.5554,-1.67201 3.11815,-1.39243c1.56275,0.27959 2.63781,1.13751 2.54108,2.40488c-0.2051,2.68715 -1.81367,2.00196 -3.03734,1.78305c-1.56275,-0.27958 -2.91626,-0.4363 -2.62187,-2.79548z" stroke-linecap="butt"/><path d="M234.35813,176.55115l3.27472,0.63288" stroke-linecap="round"/><path d="M228.94275,173.18279c0.73436,-1.41135 1.99248,-0.7657 3.36127,0.23792c1.36879,1.00361 2.09538,2.29628 1.5956,3.39652c-1.05971,2.33282 -2.34022,0.94019 -3.41204,0.15432c-1.3688,-1.00362 -2.58193,-1.79559 -1.54482,-3.78875z" stroke-linecap="butt"/><path d="M226.89487,171.97561l2.8531,2.14561" stroke-linecap="round"/><path d="M221.77302,167.85324c0.73437,-1.41133 1.99248,-0.7657 3.36127,0.23792c1.3688,1.00361 2.09538,2.29628 1.5956,3.39652c-1.0597,2.33281 -2.34022,0.94019 -3.41204,0.15432c-1.36879,-1.00361 -2.58191,-1.79558 -1.54481,-3.78876z" stroke-linecap="butt"/><path d="M222.57825,168.79165l-2.85311,-2.14561" stroke-linecap="round"/></g><g><g stroke="#000000" stroke-width="3" stroke-linecap="round"><path d="M195.12814,197.22426l11.81699,-27.68339c0,0 2.32279,-5.22161 3.47125,-5.32382c3.44535,-0.30663 9.31508,2.58699 15.72284,4.27166c1.06509,0.28002 0.10668,6.1265 0.10668,6.1265c0,0 -1.91385,9.13212 -3.13881,14.97712c-1.8655,8.90137 -4.78009,22.8087 -4.78009,22.8087c0,0 -1.25815,7.16532 -3.17719,6.49539c0,0 -9.90362,1.25387 -24.53814,-7.2317c0.20312,-4.60317 4.51649,-14.44045 4.51649,-14.44045z" data-paper-data="{&quot;origPos&quot;:null}" fill="#582700"/><path d="M194.66057,199.27367l24.52018,7.7124l-0.9747,3.2594l-24.55575,-7.45623z" data-paper-data="{&quot;origPos&quot;:null}" fill="none"/></g><path d="M195.49126,199.04553l14.69148,-34.41151l15.09167,4.71943l1.02523,1.01714l-6.78012,36.23874z" fill="#66c8ff" stroke="#000000" stroke-width="1" stroke-linecap="round"/><path d="M193.97782,202.39062l0.68004,-2.2297l24.39165,7.43907l-0.68002,2.22971z" fill="#ffffff" stroke="none" stroke-width="0" stroke-linecap="butt"/></g><g><g data-paper-data="{&quot;index&quot;:null}"><path d="M269.26045,166.08553c2.26567,-0.91384 4.92792,-6.43564 5.7766,-4.33151c0.43227,1.07179 7.94855,20.80231 7.6661,22.0401c-0.27206,1.19223 -0.95403,2.14987 -2.06563,2.59822c-0.75629,0.30502 -2.06712,0.40875 -3.01391,0.13339c-1.88962,-0.54959 -14.37786,-18.12898 -14.94327,-19.53075c-0.84867,-2.10414 4.31445,0.00436 6.58011,-0.90945z" fill="#0091d4" stroke="#000000" stroke-width="1.5" stroke-linecap="butt"/><g stroke-linecap="butt"><path d="M266.47374,159.11675c4.10485,-1.65566 8.31869,-0.80063 9.41188,1.90975c1.0932,2.71037 -1.3482,6.24974 -5.45305,7.90539c-4.10485,1.65565 -8.3187,0.80063 -9.41191,-1.90975c-1.0932,-2.71037 1.34822,-6.24973 5.45307,-7.90537z" fill="#0091d4" stroke="#000000" stroke-width="1.5"/><path d="M266.73908,168.83969c0,0 -1.68635,0.26245 -3.28588,-0.44829c-0.75788,-0.35029 -2.11401,-1.80972 -2.11401,-1.80972l3.94527,0.1453z" fill="#00aeff" stroke="none" stroke-width="0"/><path d="M270.22369,168.1065l-1.81382,0.6752c0,0 -0.53358,-0.59015 -0.71678,-0.97147c-0.15645,-0.32566 -0.43626,-1.31872 -0.43626,-1.31872l1.60836,-0.31793z" fill="#00aeff" stroke="none" stroke-width="0"/></g><g><path d="M268.99979,165.08246c-5.66274,2.28399 -12.99246,0.69028 -15.27646,-4.97244c-2.28399,-5.66274 0.10871,-11.29036 5.77143,-13.57436c5.66274,-2.28399 12.39501,0.33796 14.67901,6.00067c2.28399,5.66274 0.48875,10.26211 -5.17396,12.54611z" fill="#00699a" stroke="#000000" stroke-width="1.5" stroke-linecap="butt"/><path d="M257.89337,148.10101c0,0 1.91927,0.78279 4.50789,2.10699c2.58234,1.32097 5.25662,3.77555 6.25458,6.24974c1.99833,4.95446 1.27416,7.37676 -2.84019,9.03626c-2.00164,0.80734 -4.29748,0.47584 -6.12593,-0.55223c-2.56642,-1.443 -5.10875,-3.80327 -6.2419,-6.6128c-1.99833,-4.95446 4.44557,-10.22795 4.44557,-10.22795z" fill="#0091d4" stroke="none" stroke-width="0" stroke-linecap="butt"/><path d="M273.37923,153.30035c0,0 -1.6103,4.66571 -8.30874,7.09379c-6.644,2.40835 -11.00629,-0.34943 -11.00629,-0.34943" fill="none" stroke="#000000" stroke-width="0.8" stroke-linecap="round"/><path d="M274.07193,159.23269c0,0 -1.5498,2.89826 -7.8948,4.40796c-4.40279,1.04757 -9.11732,0.42674 -9.11732,0.42674" fill="none" stroke="#000000" stroke-width="0.75" stroke-linecap="round"/><path d="M271.93032,150.6808c0,0 -1.11633,2.72395 -7.64351,4.6823c-6.78628,2.03611 -11.0921,-0.06787 -11.0921,-0.06787" fill="none" stroke="#000000" stroke-width="0.8" stroke-linecap="round"/><path d="M254.11869,151.58784c0,0 4.30934,-1.79029 8.9359,-2.37682c3.51254,-0.44533 8.2978,0.199 8.2978,0.199" fill="none" stroke="#000000" stroke-width="0.8" stroke-linecap="round"/><path d="M263.95652,146.3121c0,0 3.75337,1.36218 5.77437,7.02126c2.16571,6.06435 1.14396,10.13124 1.14396,10.13124" fill="none" stroke="#000000" stroke-width="0.8" stroke-linecap="round"/><path d="M267.96321,165.16207c0,0 -1.42318,-2.94938 -2.05024,-4.79909c-0.52794,-1.55737 -0.99802,-4.73671 -1.85167,-7.54591c-0.97073,-3.19443 -2.29899,-5.94688 -2.29899,-5.94688" fill="none" stroke="#000000" stroke-width="0.8" stroke-linecap="round"/><path d="M265.3309,166.09302c0,0 -3.77467,-3.01293 -6.06346,-9.18265c-1.45827,-3.93092 -0.29621,-9.50289 -0.29621,-9.50289" fill="none" stroke="#000000" stroke-width="0.8" stroke-linecap="round"/><path d="M259.71051,165.61371c0,0 -2.62291,-2.39614 -3.93956,-8.30839c-0.9143,-4.10562 0.11997,-8.13233 0.11997,-8.13233" fill="none" stroke="#000000" stroke-width="0.8" stroke-linecap="round"/><path d="M254.9711,158.2404c-0.40377,0.16285 -0.88342,-0.08279 -1.07133,-0.5487c-0.18791,-0.46588 -0.01291,-0.97558 0.39085,-1.13845c0.40377,-0.16285 0.88343,0.08279 1.07133,0.54869c0.18791,0.46588 0.0129,0.9756 -0.39086,1.13846z" fill="#00aeff" stroke="none" stroke-width="0" stroke-linecap="butt"/><path d="M254.51631,154.76219c-0.23293,0.09395 -0.49794,-0.01872 -0.5919,-0.25165c-0.09396,-0.23293 0.01872,-0.49794 0.25165,-0.5919c0.23293,-0.09395 0.49795,0.01873 0.59191,0.25165c0.09396,0.23293 -0.01871,0.49795 -0.25165,0.59191z" fill="#00aeff" stroke="none" stroke-width="0" stroke-linecap="butt"/></g></g><path d="M267.16977,169.39789c4.53883,9.80059 4.61591,11.79106 4.61591,11.79106c0.50212,1.25852 -0.76689,1.62572 -0.76689,1.62572c0,0 -2.37412,1.01272 -3.89368,1.6609c-0.9978,0.42564 -2.55674,1.09061 -2.55674,1.09061c0,0 -1.04829,0.25634 -1.30769,-0.43661c-1.56052,-4.16893 -3.27385,-8.0691 -3.85809,-10.23766c-0.19476,-0.72285 0.46532,-1.88289 0.46532,-1.88289l4.56333,-2.58941c0,0 1.80933,-1.16991 2.73852,-1.02169z" fill="#582700" stroke="#000000" stroke-width="3" stroke-linecap="round"/><path d="M279.39819,165.64991c8.92175,20.46504 9.2005,24.5506 9.2005,24.5506c0.99915,2.62118 -1.27865,3.26729 -1.27865,3.26729c0,0 -4.2386,1.87639 -6.9515,3.07737c-1.78141,0.78861 -4.56464,2.02074 -4.56464,2.02074c0,0 -1.88484,0.43746 -2.40399,-1.00436c-3.12319,-8.67426 -6.50497,-16.81065 -7.71667,-21.30372c-0.4039,-1.49769 0.71331,-3.81966 0.71331,-3.81966l8.10225,-4.924c0,0 3.20248,-2.2459 4.89939,-1.86425z" fill="#582700" stroke="#000000" stroke-width="3" stroke-linecap="round"/></g><path d="M231.81518,136.94535c0,0 6.96149,2.25752 7.16578,3.9233c0.22139,1.80526 -5.88462,6.52353 -5.88462,6.52353" fill="none" stroke="#000000" stroke-width="2.5" stroke-linecap="round"/><path d="M252.37029,142.62298c0,0 -7.64307,-1.06245 -8.34755,-2.73927c-0.65004,-1.54726 4.27083,-6.96424 4.27083,-6.96424" data-paper-data="{&quot;index&quot;:null}" fill="none" stroke="#000000" stroke-width="2.5" stroke-linecap="round"/><g data-paper-data="{&quot;index&quot;:null}" fill="#ffffff" stroke-linecap="butt"><path d="M251.62211,143.90141c-1.24354,1.65493 -3.16093,2.47558 -5.08821,1.94996c-2.86366,-0.78099 -4.66473,-4.23845 -4.02281,-7.72248c0.64193,-3.48401 3.48376,-5.67526 6.34743,-4.89427c2.86366,0.78099 4.66473,4.23846 4.02281,7.72248c-0.2099,1.13923 -0.65503,2.14024 -1.25921,2.94431z" data-paper-data="{&quot;index&quot;:null}" stroke="#000000" stroke-width="2.5"/><path d="M250.29535,142.8034c0.3466,-0.56952 0.94812,-0.86876 1.55305,-0.70378c0.54373,0.14829 0.95338,0.63431 1.1132,1.23582c1.75308,1.94618 -3.89981,4.27991 -4.55937,4.27843c-1.48139,-0.00333 -1.29886,-2.38295 -0.72451,-3.14875c0.32795,-0.43728 1.5458,-1.12814 2.61763,-1.66172z" data-paper-data="{&quot;index&quot;:null}" stroke="none" stroke-width="0.5"/><path d="M251.94448,142.86498c1.77664,0.48453 2.90253,2.58346 2.51476,4.68809c-0.38778,2.10464 -2.14238,3.41798 -3.91902,2.93345c-1.77664,-0.48453 -2.90253,-2.58346 -2.51476,-4.68809c0.38777,-2.10463 2.14238,-3.41798 3.91902,-2.93345z" data-paper-data="{&quot;index&quot;:null}" stroke="#000000" stroke-width="2.5"/></g><g data-paper-data="{&quot;index&quot;:null}" fill="#ffffff" stroke-linecap="butt"><path d="M229.34677,143.20307c-0.64193,-3.48401 1.15914,-6.94149 4.02281,-7.72248c2.86366,-0.78099 5.7055,1.41026 6.34743,4.89427c0.64193,3.48403 -1.15914,6.94149 -4.02281,7.72248c-1.92728,0.52562 -3.84467,-0.29503 -5.08821,-1.94996c-0.60419,-0.80407 -1.04931,-1.80508 -1.25921,-2.94431z" data-paper-data="{&quot;index&quot;:null}" stroke="#000000" stroke-width="2.5"/><path d="M234.55037,146.7111c0.57435,0.7658 0.75687,3.14542 -0.72451,3.14875c-0.65955,0.00148 -6.31245,-2.33225 -4.55937,-4.27843c0.15983,-0.60151 0.56947,-1.08753 1.1132,-1.23582c0.60493,-0.16498 1.20645,0.13426 1.55305,0.70378c1.07183,0.53358 2.28967,1.22444 2.61763,1.66172z" data-paper-data="{&quot;index&quot;:null}" stroke="none" stroke-width="0.5"/><path d="M234.20264,148.0444c0.38777,2.10463 -0.73812,4.20356 -2.51476,4.68809c-1.77664,0.48453 -3.53124,-0.82881 -3.91902,-2.93345c-0.38777,-2.10463 0.73812,-4.20356 2.51476,-4.68809c1.77664,-0.48453 3.53125,0.82882 3.91902,2.93345z" data-paper-data="{&quot;index&quot;:null}" stroke="#000000" stroke-width="2.5"/></g><g fill="#9e3eff" stroke="none" stroke-width="0.5" stroke-linecap="butt"><path d="M204.9695,143.61146c-1.24035,2.17061 -3.41096,0.93026 -3.41096,0.93026l-2.42955,-1.92296c-0.4766,-1.2289 -1.44922,-2.36876 -1.4298,-3.68669c0.02154,-1.46176 3.87465,-5.21532 2.47246,-6.69797c-1.73708,-1.83677 -5.17259,-2.40319 -5.83712,-4.84237c-0.68118,-2.50026 6.69617,-8.31584 2.99393,-9.39877c0,0 -2.02184,-1.47043 -0.55141,-3.49227c1.47043,-2.02184 3.49227,-0.55141 3.49227,-0.55141c1.03237,0.93963 2.86179,1.44292 3.09712,2.8189c0.37913,2.21679 -0.79304,4.44205 -1.48958,6.58045c-0.32222,0.98924 -0.88054,1.90972 -1.53843,2.7157c-0.24872,0.3047 -1.29037,0.15694 -1.07517,0.48618c0.33831,0.51759 1.22486,0.26946 1.76537,0.56979c1.12889,0.62727 2.54029,1.07612 3.1975,2.18784c0.92417,1.5633 1.3744,3.49622 1.23306,5.30675c-0.13466,1.72486 -2.82957,2.66654 -2.7606,4.39527c0.02389,0.59873 0.6468,1.00887 0.9702,1.51331l0.37045,-0.32296c0,0 2.17061,1.24035 0.93026,3.41096z"/><path d="M215.1695,142.21146c-1.24034,2.17061 -3.41096,0.93026 -3.41096,0.93026l-2.42955,-1.92296c-0.4766,-1.2289 -1.44922,-2.36876 -1.4298,-3.6867c0.02155,-1.46176 3.87464,-5.21532 2.47245,-6.69797c-1.73709,-1.83677 -5.17259,-2.40319 -5.83712,-4.84237c-0.68117,-2.50026 6.69617,-8.31584 2.99393,-9.39877c0,0 -2.02184,-1.47043 -0.55141,-3.49227c1.47043,-2.02184 3.49227,-0.55141 3.49227,-0.55141c1.03238,0.93963 2.86178,1.44292 3.09712,2.8189c0.37913,2.21679 -0.79304,4.44205 -1.48958,6.58045c-0.32222,0.98924 -0.88054,1.90972 -1.53843,2.7157c-0.24872,0.30471 -1.29037,0.15694 -1.07518,0.48618c0.3383,0.5176 1.22486,0.26946 1.76538,0.56979c1.12889,0.62727 2.54028,1.07612 3.1975,2.18784c0.92417,1.5633 1.37441,3.49622 1.23306,5.30676c-0.13466,1.72485 -2.82957,2.66654 -2.7606,4.39527c0.02389,0.59873 0.64681,1.00887 0.9702,1.51331l0.37045,-0.32296c0,0 2.1706,1.24034 0.93026,3.41096z"/><path d="M226.1695,141.41145c-1.24034,2.17061 -3.41096,0.93026 -3.41096,0.93026l-2.42955,-1.92297c-0.4766,-1.2289 -1.44922,-2.36876 -1.4298,-3.6867c0.02155,-1.46176 3.87465,-5.21532 2.47246,-6.69797c-1.73709,-1.83677 -5.17259,-2.40319 -5.83713,-4.84237c-0.68117,-2.50026 6.69617,-8.31584 2.99393,-9.39877c0,0 -2.02184,-1.47043 -0.55141,-3.49227c1.47043,-2.02184 3.49227,-0.55141 3.49227,-0.55141c1.03238,0.93963 2.86178,1.44292 3.09712,2.8189c0.37913,2.21679 -0.79305,4.44205 -1.48958,6.58045c-0.32222,0.98924 -0.88053,1.90972 -1.53843,2.7157c-0.24872,0.30471 -1.29037,0.15695 -1.07518,0.48619c0.3383,0.5176 1.22486,0.26945 1.76537,0.56979c1.12889,0.62727 2.54029,1.07612 3.1975,2.18784c0.92417,1.5633 1.3744,3.49622 1.23306,5.30676c-0.13466,1.72485 -2.82957,2.66654 -2.7606,4.39527c0.02389,0.59873 0.64681,1.00887 0.97021,1.51331l0.37044,-0.32296c0,0 2.1706,1.24034 0.93026,3.41096z"/></g></g></g></svg>