<svg version="1.1" xmlns="http://www.w3.org/2000/svg" xmlns:xlink="http://www.w3.org/1999/xlink" width="234" height="234" viewBox="0,0,234,234"><g transform="translate(-123,-63)"><g data-paper-data="{&quot;isPaintingLayer&quot;:true}" fill-rule="nonzero" stroke-linejoin="miter" stroke-miterlimit="10" stroke-dasharray="" stroke-dashoffset="0" style="mix-blend-mode: normal"><g data-paper-data="{&quot;index&quot;:null}"><g stroke="#2f3bd4" stroke-width="3" stroke-linecap="round"><path d="M295.77646,216.90902c0,0 4.37093,9.81183 4.60102,14.41374c-14.58456,8.57117 -24.49536,7.37536 -24.49536,7.37536c-1.91507,0.68117 -3.21518,-6.47665 -3.21518,-6.47665c0,0 -2.99603,-13.89002 -4.91365,-22.78031c-1.25918,-5.83774 -3.22651,-14.95848 -3.22651,-14.95848c0,0 -0.99264,-5.84077 0.07079,-6.12703c6.39779,-1.72218 12.25046,-4.65015 15.69754,-4.36371c1.14903,0.09547 3.50237,5.30339 3.50237,5.30339l11.97899,27.61368z" data-paper-data="{&quot;origPos&quot;:null}" fill="#ffffff"/><path d="M297.2869,222.46524l-24.51164,7.59998l-0.99379,-3.25364l24.47457,-7.85593z" data-paper-data="{&quot;origPos&quot;:null}" fill="none"/></g><path d="M271.4405,226.43684l-6.99233,-36.19839l1.01926,-1.02314l15.06375,-4.80777l14.89284,34.32483z" fill="#ffffff" stroke="#2f3bd4" stroke-width="1" stroke-linecap="round"/><path d="M272.60936,229.6504l-0.69308,-2.22568l24.34765,-7.58186l0.69309,2.22568z" fill="#ffffff" stroke="none" stroke-width="0" stroke-linecap="butt"/></g><path d="M123,297v-234h234v234z" data-paper-data="{&quot;index&quot;:null}" fill="none" stroke="none" stroke-width="0" stroke-linecap="butt"/><g data-paper-data="{&quot;index&quot;:null}" fill="#ffffff" stroke="#2f3bd4" stroke-linecap="round"><path d="M245.53931,188.1872c0,0 -28.84181,0.13938 -25.28828,-17.48658c1.30921,-6.49398 16.89173,-1.6772 16.89173,-1.6772z" data-paper-data="{&quot;origPos&quot;:null}" stroke-width="2"/><path d="M240.00034,175.12402c0,0 -15.21576,-5.05076 -14.88841,-5.61024c1.03798,-1.77385 12.46743,1.13834 12.46743,1.13834z" data-paper-data="{&quot;origPos&quot;:null}" stroke-width="1"/></g><g data-paper-data="{&quot;origRot&quot;:0,&quot;index&quot;:null}" stroke-linecap="round"><path d="M257.83302,227.22247c0,0 2.94406,-3.79198 4.1342,-2.80952c3.51184,2.89912 7.97736,4.3885 10.24275,8.33891c0.94072,1.64041 -1.16811,5.37481 -1.16811,5.37481l-17.21168,28.28221c0,0 -1.73915,2.94351 -2.79802,4.59952c-1.13211,1.77056 -3.91651,3.55962 -5.61005,2.31522c-6.21814,-4.56896 -10.93353,-6.26958 -14.07922,-10.10521c-1.14602,-1.39738 -2.27053,-2.95563 -1.7876,-4.69713c0.63081,-2.27488 3.93586,-5.30184 3.93586,-5.30184z" data-paper-data="{&quot;origPos&quot;:null}" fill="#ff0000" stroke="#000000" stroke-width="3"/><path d="M248.97742,273.65752c0,0 -6.29292,-1.59429 -10.29831,-4.73036c-3.07308,-2.40611 -9.09796,-8.42374 -9.09796,-8.42374c0,0 0.54233,-2.88705 1.4587,-4.20189c0.96534,-1.38511 3.36291,-2.7164 3.36291,-2.7164l18.84542,13.74246z" data-paper-data="{&quot;origPos&quot;:null}" fill="#976e57" stroke="#000000" stroke-width="2"/><path d="M257.69931,227.52526c0,0 2.94406,-3.79199 4.13418,-2.80952c3.51184,2.89911 7.97736,4.3885 10.24274,8.33893c0.94072,1.64041 -1.1681,5.3748 -1.1681,5.3748l-17.21169,28.28221c0,0 -1.73916,2.94353 -2.79801,4.59953c-1.13211,1.77056 -3.91652,3.55961 -5.61006,2.31523c-6.21814,-4.56896 -10.93354,-6.26958 -14.07921,-10.10521c-1.14602,-1.39738 -2.27051,-2.95563 -1.78759,-4.69711c0.63081,-2.27488 3.93585,-5.30186 3.93585,-5.30186z" data-paper-data="{&quot;origPos&quot;:null}" fill="#ffffff" stroke="#2f3bd4" stroke-width="3"/></g><path d="M216.82657,267.79192c0,0 -2.39188,3.7901 -4.51854,4.81491c-1.62805,0.78453 -3.36123,-0.04533 -4.93994,-0.92494c-4.33334,-2.41445 -6.84436,-6.75284 -12.44507,-12.06066c-1.52538,-1.44561 -0.25928,-4.50349 1.28205,-5.93205c1.44162,-1.33614 4.02944,-3.57041 4.02944,-3.57041l24.77576,-21.96107c0,0 3.30048,-2.73854 5.08189,-2.10412c4.28995,1.52776 6.54877,5.65776 10.02548,8.59888c1.1782,0.9967 -2.03062,4.56744 -2.03062,4.56744c0,0 -5.37588,7.22467 -8.81673,11.84883c-4.85634,6.52645 -12.44375,16.72322 -12.44375,16.72322z" data-paper-data="{&quot;index&quot;:null}" fill="#ffffff" stroke="#2f3bd4" stroke-width="3" stroke-linecap="round"/><g data-paper-data="{&quot;index&quot;:null}"><path d="M233.74157,192.77775c0,0 4.78859,-13.72838 7.01212,-13.83286c6.67055,-0.31351 20.98113,3.5627 30.67054,5.54411c1.49789,0.3063 0.08003,13.82983 0.08003,13.82983l-4.39159,30.364c0,0 -2.75838,14.70345 -4.39242,14.36929c-14.54595,-2.9745 -31.76559,-5.6255 -38.08056,-7.77517c-2.10498,-0.71655 1.86325,-15.98894 1.86325,-15.98894z" data-paper-data="{&quot;origPos&quot;:null}" fill="#ffffff" stroke="#2f3bd4" stroke-width="3.5" stroke-linecap="round"/><path d="M250.56178,204.58578c-1.26549,-0.25878 -0.76713,-2.69585 -0.76713,-2.69585c1.03364,-5.05466 2.39948,-11.73401 3.43313,-16.78868c0,0 0.49836,-2.43707 1.76384,-2.17829c1.26549,0.25878 0.76712,2.69585 0.76712,2.69585c-1.03364,5.05466 -2.06726,10.10931 -3.10089,15.16396l-0.33224,1.62472c0,0 -0.49836,2.43707 -1.76384,2.17829z" fill="#2f3bd4" stroke="none" stroke-width="0.5" stroke-linecap="butt"/><path d="M262.15702,206.53162c-1.26549,-0.25878 -0.6394,-3.32042 -0.6394,-3.32042c1.29853,-6.35008 3.01443,-14.74123 4.31296,-21.0913c0,0 0.62608,-3.06164 1.89156,-2.80286c1.26549,0.25878 0.6394,3.32041 0.6394,3.32041c-1.29853,6.35008 -2.59704,12.70014 -3.89558,19.05023l-0.41737,2.0411c0,0 -0.62607,3.06164 -1.89155,2.80286z" fill="#2f3bd4" stroke="none" stroke-width="0.5" stroke-linecap="butt"/></g><path d="M270.99409,186.33932c-11.86939,-2.28355 -23.3726,-4.53341 -27.86798,-6.47006c-4.10846,-1.76996 -4.85252,-4.73788 -4.85252,-4.73788c0,0 -1.2375,-2.73487 -1.01702,-4.25397c0.66146,-4.55727 3.15803,-17.46848 6.33933,-28.39159c0.10617,-0.36454 0.17905,-0.5656 0.30676,-0.92317c0.38308,-1.07275 2.0563,-5.19889 2.0563,-5.19889c0,0 3.45624,-0.99144 5.24853,-1.11052c5.37688,-0.35727 18.02874,3.73345 31.58149,6.91248c1.22839,0.28814 3.0121,2.36627 3.0121,2.36627c0,0 0.88522,3.38166 0.44279,5.31521c-2.86028,12.50076 -6.071,26.32148 -7.01291,29.43896c-0.31397,1.03917 -2.94933,4.7788 -2.94933,4.7788z" data-paper-data="{&quot;index&quot;:null}" fill="#ffffff" stroke="#2f3bd4" stroke-width="2.5" stroke-linecap="round"/><path d="M241.59879,136.30172c-0.44048,-1.1698 0.72932,-1.6103 0.72932,-1.6103l1.43648,-0.49706c0.12331,-0.0127 0.24637,-0.02466 0.36923,-0.03589c0.1266,-5.87128 2.5856,-12.50347 3.67147,-18.11788c0.28161,-1.45601 0.69727,-5.46982 1.64826,-6.57726c1.59244,-1.85444 3.1547,-0.93756 5.01529,-0.57246c3.16577,0.62122 6.2984,1.27607 9.52152,1.42717c7.9878,0.38388 15.73667,1.64444 23.66766,2.5133c2.50268,0.27418 4.92473,0.65762 7.35758,1.35594c0.66567,0.19107 1.58083,0.11505 1.95756,0.69616c1.33425,2.05817 0.23636,3.83831 -0.45544,5.70184c-1.37996,3.71718 -3.64933,6.86679 -4.54369,10.7755c-0.70421,2.98576 -1.77763,5.98026 -2.75054,8.88733c-0.33574,1.00321 -0.37753,2.97512 -1.57133,3.54281c-2.44784,1.16399 -7.75594,-1.11609 -10.23061,-1.68997c-7.54575,-1.74988 -15.06176,-3.65667 -22.69571,-4.97391c-2.74743,-0.37792 -5.38256,-0.65847 -8.09171,-0.60533c-0.09803,0.36045 -0.36465,0.79488 -1.07525,0.86178c-0.77097,0.07259 -1.10929,-0.37741 -1.25512,-0.73036c-0.09371,0.00886 -0.18756,0.01819 -0.28156,0.02799l-0.81304,0.34999c0,0 -1.1698,0.44048 -1.61031,-0.72932z" data-paper-data="{&quot;index&quot;:null}" fill="#2f3bd4" stroke="none" stroke-width="0.5" stroke-linecap="butt"/><g data-paper-data="{&quot;index&quot;:null}" fill="none" stroke-width="3"><path d="M268.28439,188.9856c-0.53866,-1.49634 0.60057,-2.5082 2.04276,-3.45652c1.44218,-0.9483 2.71922,-1.06679 3.17988,0.02236c0.97669,2.30931 -0.6779,2.96667 -1.80716,3.70922c-1.4422,0.94832 -2.65474,1.83818 -3.41546,-0.27505z" stroke="#2f3bd4" stroke-linecap="butt"/><path d="M269.36705,188.60403l-3.04221,1.94949" stroke="#2f3bd4" stroke-linecap="round"/><path d="M262.72416,190.45956c1.44218,-0.9483 2.71922,-1.06679 3.17989,0.02236c0.97669,2.30931 -0.6779,2.96668 -1.80716,3.70923c-1.44218,0.94831 -2.65474,1.83817 -3.41546,-0.27506c-0.53866,-1.49634 0.60056,-2.5082 2.04274,-3.45654z" stroke="#2f3bd4" stroke-linecap="butt"/><path d="M258.72184,195.48401l3.04221,-1.94951" stroke="#2f3bd4" stroke-linecap="round"/><path d="M253.30416,193.91449c0.72011,-1.52166 2.00006,-1.10211 3.39713,-0.3481c1.39707,0.75401 2.15015,1.90497 1.66215,3.0786c-1.03469,2.48844 -2.34853,1.3348 -3.44247,0.74441c-1.39708,-0.754 -2.6338,-1.32592 -1.6168,-3.47489z" stroke="#2f3bd4" stroke-linecap="butt"/><path d="M254.13123,194.70188l-2.91285,-1.62468" stroke="#2f3bd4" stroke-linecap="round"/><path d="M247.12705,188.18504c1.13869,-1.11112 2.13199,-0.10458 3.11852,1.27656c0.98654,1.38115 1.27271,2.83616 0.45409,3.72506c-1.73575,1.88476 -2.51684,0.16167 -3.28933,-0.91982c-0.98655,-1.38116 -1.89138,-2.5126 -0.28327,-4.08178z" stroke="#2f3bd4" stroke-linecap="butt"/><path d="M247.59863,189.32812l-2.03957,-2.92984" stroke="#2f3bd4" stroke-linecap="round"/><path d="M241.98224,180.8816c1.13868,-1.1111 2.13199,-0.10458 3.11852,1.27656c0.98655,1.38115 1.27271,2.83616 0.45409,3.72507c-1.73573,1.88475 -2.51684,0.16166 -3.28933,-0.91983c-0.98654,-1.38115 -1.89137,-2.5126 -0.28325,-4.08178z" stroke="#2f3bd4" stroke-linecap="butt"/><path d="M242.45385,182.02468l-2.03958,-2.92985" stroke="#b9b9b9" stroke-linecap="round"/></g><g data-paper-data="{&quot;index&quot;:null}"><g stroke="#2f3bd4" stroke-width="3" stroke-linecap="round"><path d="M211.02459,203.86417l18.32734,-23.87719c0,0 3.54782,-4.48036 4.68563,-4.29388c3.41343,0.5594 8.37966,4.82124 14.16756,8.04581c0.96205,0.53598 -1.41952,5.96074 -1.41952,5.96074c0,0 -4.12375,8.36976 -6.76315,13.72684c-4.01955,8.1583 -10.29961,20.90465 -10.29961,20.90465c0,0 -2.99973,6.6277 -4.69201,5.50177c0,0 -9.90446,-1.24723 -21.97042,-13.10416c1.34095,-4.40821 7.96418,-12.86456 7.96418,-12.86456z" data-paper-data="{&quot;origPos&quot;:null}" fill="#ffffff"/><path d="M210.06228,205.73303l21.83353,13.56529l-1.7543,2.91483l-21.93166,-13.32601z" data-paper-data="{&quot;origPos&quot;:null}" fill="none"/></g><path d="M210.92361,205.71854l22.784,-29.67962l13.4449,8.32262l0.74023,1.24006l-15.57515,33.41603z" fill="#ffffff" stroke="#2f3bd4" stroke-width="1" stroke-linecap="round"/><path d="M208.6262,208.58244l1.21293,-1.99068l21.77698,13.2686l-1.21292,1.99069z" fill="#ffffff" stroke="none" stroke-width="0" stroke-linecap="butt"/></g><path d="M259.50742,165.91815c0.26892,0.94464 -0.54827,3.05633 -2.07798,2.29757c-0.68106,-0.33782 -5.52684,-5.22287 -2.89586,-5.97191c0.41905,-0.42792 1.04705,-0.62944 1.67066,-0.47565c0.69379,0.1711 1.18792,0.73408 1.30485,1.3952c0.88029,1.00348 1.84479,2.2154 1.99835,2.75479z" data-paper-data="{&quot;index&quot;:null}" fill="#ffffff" stroke="none" stroke-width="0.5" stroke-linecap="butt"/><g data-paper-data="{&quot;index&quot;:null}" fill="#ffffff" stroke-linecap="butt"><path d="M280.83425,169.27313c-1.4664,1.53708 -3.69254,2.26741 -5.90294,1.72231c-3.28434,-0.80993 -5.29027,-4.12902 -4.48032,-7.41336c0.80993,-3.28434 4.12903,-5.29026 7.41336,-4.48031c3.28435,0.80993 5.29026,4.12903 4.48032,7.41336c-0.26484,1.07395 -0.79797,2.0112 -1.51043,2.758z" data-paper-data="{&quot;index&quot;:null}" stroke="#000000" stroke-width="2.5"/><path d="M279.32741,168.20057c0.41089,-0.53095 1.11012,-0.79966 1.80392,-0.62855c0.62361,0.15378 1.0859,0.62417 1.25795,1.19786c1.98105,1.8864 -4.58035,3.95838 -5.3404,3.94081c-1.70709,-0.03946 -1.4488,-2.28898 -0.7715,-3.00027c0.38675,-0.40615 1.80411,-1.0307 3.05003,-1.50985z" data-paper-data="{&quot;index&quot;:null}" stroke="none" stroke-width="0.5"/><path d="M281.22661,168.29932c2.03764,0.50249 3.29285,2.51819 2.80357,4.50223c-0.48928,1.98401 -2.53774,3.18502 -4.57536,2.68254c-2.03764,-0.50249 -3.29284,-2.5182 -2.80357,-4.50223c0.48928,-1.98401 2.53774,-3.18502 4.57536,-2.68254z" data-paper-data="{&quot;index&quot;:null}" stroke="#000000" stroke-width="2.5"/></g><g data-paper-data="{&quot;index&quot;:null}" fill="#ffffff" stroke-linecap="butt"><path d="M255.54786,160.45046c0.80993,-3.28434 4.12901,-5.29026 7.41336,-4.48031c3.28435,0.80993 5.29026,4.12903 4.48032,7.41336c-0.80993,3.28435 -4.12901,5.29026 -7.41336,4.48031c-2.21042,-0.54511 -3.84173,-2.2267 -4.42536,-4.26933c-0.28355,-0.99244 -0.31979,-2.0701 -0.05496,-3.14405z" data-paper-data="{&quot;index&quot;:null}" stroke="#000000" stroke-width="2.5"/><path d="M259.4339,166.10029c0.26893,0.94465 -0.54827,3.05633 -2.07798,2.29758c-0.68106,-0.33782 -5.52684,-5.22287 -2.89587,-5.97192c0.41906,-0.42791 1.04706,-0.62944 1.67067,-0.47564c0.6938,0.1711 1.18791,0.73408 1.30484,1.3952c0.88029,1.00348 1.84479,2.21539 1.99835,2.75479z" data-paper-data="{&quot;index&quot;:null}" stroke="none" stroke-width="0.5"/><path d="M258.51176,167.05214c-0.48927,1.98401 -2.53775,3.18503 -4.57537,2.68254c-2.03763,-0.50249 -3.29284,-2.51819 -2.80356,-4.50223c0.48927,-1.98401 2.53774,-3.18502 4.57537,-2.68254c2.03763,0.50249 3.29285,2.5182 2.80357,4.50222z" data-paper-data="{&quot;index&quot;:null}" stroke="#000000" stroke-width="2.5"/></g><g data-paper-data="{&quot;index&quot;:null}"><path d="M271.92264,236.35683c1.94221,-1.48193 3.04488,-7.51203 4.42116,-5.70828c0.70101,0.91878 13.18036,17.94974 13.23628,19.21812c0.05383,1.22171 -0.34977,2.3259 -1.30267,3.05298c-0.64833,0.49466 -1.88472,0.94228 -2.87064,0.92785c-1.96771,-0.02882 -18.67059,-13.66718 -19.58747,-14.86885c-1.37627,-1.80376 4.16115,-1.13991 6.10336,-2.62182z" fill="#0091d4" stroke="#000000" stroke-width="1.5" stroke-linecap="butt"/><g stroke-linecap="butt"><path d="M267.38772,230.37653c3.51884,-2.68491 7.80856,-2.97793 9.58134,-0.65448c1.77279,2.32343 0.35737,6.38351 -3.16145,9.06842c-3.51884,2.6849 -7.80858,2.97794 -9.58138,0.65448c-1.77279,-2.32343 -0.35736,-6.38351 3.16148,-9.0684z" fill="#0091d4" stroke="#000000" stroke-width="1.5"/><path d="M270.2219,239.681c0,0 -1.55639,0.70024 -3.28712,0.43912c-0.82363,-0.13677 -2.51824,-1.18433 -2.51824,-1.18433l3.84256,-0.90612z" fill="#00aeff" stroke="none" stroke-width="0"/><path d="M273.38732,238.05002l-1.56984,1.13202c0,0 -0.67097,-0.42753 -0.94873,-0.74661c-0.23721,-0.2725 -0.77033,-1.15581 -0.77033,-1.15581l1.46646,-0.73305z" fill="#00aeff" stroke="none" stroke-width="0"/></g><g><path d="M271.40531,235.45881c-4.85434,3.70389 -12.34426,4.11091 -16.04813,-0.74338c-3.70389,-4.85434 -2.88917,-10.91499 1.96514,-14.61885c4.85434,-3.70389 12.04086,-2.96106 15.74475,1.89324c3.70389,4.85434 3.19257,9.76511 -1.66174,13.46897z" fill="#00699a" stroke="#000000" stroke-width="1.5" stroke-linecap="butt"/><path d="M256.19337,222.03052c0,0 2.05813,0.24582 4.90523,0.83615c2.84018,0.58889 6.06964,2.24642 7.68797,4.36739c3.24061,4.24716 3.18472,6.77478 -0.34226,9.46592c-1.71589,1.30924 -4.01743,1.59841 -6.05304,1.09202c-2.85719,-0.71076 -5.9344,-2.31236 -7.77204,-4.72082c-3.24061,-4.24716 1.57415,-11.04066 1.57415,-11.04066z" fill="#0091d4" stroke="none" stroke-width="0" stroke-linecap="butt"/><path d="M272.50357,222.93716c0,0 -0.31541,4.92569 -6.13013,9.04315c-5.76748,4.08399 -10.70491,2.58174 -10.70491,2.58174" fill="none" stroke="#000000" stroke-width="0.8" stroke-linecap="round"/><path d="M274.7446,228.47342c0,0 -0.72574,3.20549 -6.44324,6.34371c-3.96738,2.17762 -8.67774,2.82921 -8.67774,2.82921" fill="none" stroke="#000000" stroke-width="0.75" stroke-linecap="round"/><path d="M270.41188,220.79561c0,0 -0.35402,2.92244 -6.12821,6.5416c-6.00339,3.76281 -10.71298,2.87597 -10.71298,2.87597" fill="none" stroke="#000000" stroke-width="0.8" stroke-linecap="round"/><path d="M253.47846,226.3935c0,0 3.68031,-2.86894 7.98568,-4.66136c3.26869,-1.36085 8.0535,-2.00855 8.0535,-2.00855" fill="none" stroke="#000000" stroke-width="0.8" stroke-linecap="round"/><path d="M261.56505,218.69782c0,0 3.98021,0.31809 7.42954,5.23863c3.69633,5.27292 3.78961,9.46517 3.78961,9.46517" fill="none" stroke="#000000" stroke-width="0.8" stroke-linecap="round"/><path d="M270.42697,235.81045c0,0 -2.15435,-2.46639 -3.24949,-4.08359c-0.92203,-1.3616 -2.21839,-4.30247 -3.78643,-6.78474c-1.78307,-2.82264 -3.79369,-5.12431 -3.79369,-5.12431" fill="none" stroke="#000000" stroke-width="0.8" stroke-linecap="round"/><path d="M268.13576,237.40609c0,0 -4.43851,-1.90409 -8.28146,-7.24598c-2.44845,-3.40349 -2.8056,-9.08414 -2.8056,-9.08414" fill="none" stroke="#000000" stroke-width="0.8" stroke-linecap="round"/><path d="M262.58948,238.43436c0,0 -3.16441,-1.61482 -6.00174,-6.96624c-1.9703,-3.71617 -2.04086,-7.873 -2.04086,-7.873" fill="none" stroke="#000000" stroke-width="0.8" stroke-linecap="round"/><path d="M256.0645,232.58183c-0.34613,0.26409 -0.87375,0.15445 -1.17848,-0.24496c-0.30474,-0.39936 -0.27115,-0.93723 0.07498,-1.20134c0.34613,-0.26409 0.87375,-0.15445 1.17847,0.24495c0.30474,0.39936 0.27116,0.93724 -0.07496,1.20135z" fill="#00aeff" stroke="none" stroke-width="0" stroke-linecap="butt"/><path d="M254.70362,229.34877c-0.19968,0.15236 -0.48508,0.11401 -0.63745,-0.08569c-0.15236,-0.19967 -0.11401,-0.48507 0.08569,-0.63744c0.19968,-0.15236 0.48508,-0.114 0.63745,0.08568c0.15236,0.19967 0.11401,0.48508 -0.08568,0.63745z" fill="#00aeff" stroke="none" stroke-width="0" stroke-linecap="butt"/></g></g></g></g></svg>