<svg version="1.1" xmlns="http://www.w3.org/2000/svg" xmlns:xlink="http://www.w3.org/1999/xlink" width="199.11324" height="221.55319" viewBox="0,0,199.11324,221.55319"><defs><linearGradient x1="262.00603" y1="156.77311" x2="262.00603" y2="207.93939" gradientUnits="userSpaceOnUse" id="color-1"><stop offset="0" stop-color="#000000"/><stop offset="1" stop-color="#582600"/></linearGradient></defs><g transform="translate(-135.52004,-69.22341)"><g data-paper-data="{&quot;isPaintingLayer&quot;:true}" fill-rule="nonzero" stroke-linejoin="miter" stroke-miterlimit="10" stroke-dasharray="" stroke-dashoffset="0" style="mix-blend-mode: normal"><g data-paper-data="{&quot;index&quot;:null}"><g data-paper-data="{&quot;origRot&quot;:0,&quot;index&quot;:null}" stroke="#000000" stroke-width="3" stroke-linecap="round"><path d="M265.68224,178.06389c0,0 24.9005,-4.22141 25.52217,-1.74271c1.12093,4.46923 0.78111,15.11009 0.78111,15.11009l-1.46441,30.06438c0,0 -0.36425,5.70335 -1.40568,6.19813c-3.12425,1.48438 -9.63365,0.80998 -16.22757,1.45616c-1.09603,0.10739 -2.22826,-5.70793 -2.22826,-5.70793c0,0 -1.37763,-9.22825 -2.25941,-15.13479c-1.34285,-8.99509 -3.44089,-23.04878 -3.44089,-23.04878c0,0 -1.30931,-7.15616 0.72296,-7.19457z" data-paper-data="{&quot;origPos&quot;:null}" fill="#582600"/><path d="M266.15889,185.42189l24.88207,-1.54433" fill="none"/><path d="M266.12782,188.75418l24.89677,-1.30734" data-paper-data="{&quot;origPos&quot;:null}" fill="none"/></g><path d="M291.33164,188.11227l-1.86257,38.0933l-1.23528,0.76261l-15.78969,0.93187l-6.26367,-38.25418z" fill="#ffcb66" stroke="#000000" stroke-width="1" stroke-linecap="round"/><path d="M291.0804,184.03954l0.1367,2.32709l-25.45695,1.49544l-0.1367,-2.32709z" fill="#ffffff" stroke="none" stroke-width="0" stroke-linecap="butt"/></g><path d="M145.36674,290.77659v-221.55318h189.26654v221.55319z" fill="none" stroke="none" stroke-width="NaN" stroke-linecap="butt"/><g data-paper-data="{&quot;origRot&quot;:0}" stroke="#000000" stroke-linecap="round"><path d="M276.8472,243.69329c0,0 4.79272,0.27682 4.65768,1.81414c-0.39853,4.53642 0.90491,9.05971 -1.06617,13.16489c-0.81849,1.70469 -5.09042,2.08344 -5.09042,2.08344l-33.05628,1.84615c0,0 -3.41082,0.23513 -5.37529,0.30115c-2.10037,0.07059 -5.15234,-1.20971 -5.08676,-3.31025c0.24073,-7.71251 -1.03027,-12.56137 0.34737,-17.32682c0.5019,-1.73613 1.14853,-3.54568 2.85707,-4.13468c2.23181,-0.76941 6.59876,0.23835 6.59876,0.23835z" data-paper-data="{&quot;origPos&quot;:null}" fill="#ff0000" stroke-width="3"/><path d="M233.56961,262.71137c0,0 -2.25257,-6.08838 -1.93852,-11.16573c0.24096,-3.89552 1.78481,-12.26975 1.78481,-12.26975c0,0 2.68607,-1.18923 4.2887,-1.17932c1.68828,0.01043 4.14386,1.23142 4.14386,1.23142l-0.64322,23.31505z" data-paper-data="{&quot;origPos&quot;:null}" fill="#976e57" stroke-width="2"/><path d="M276.52194,243.75474c0,0 4.79272,0.27682 4.65766,1.81414c-0.39853,4.53641 0.90491,9.05971 -1.06619,13.1649c-0.81849,1.70469 -5.09041,2.08343 -5.09041,2.08343l-33.05628,1.84615c0,0 -3.41082,0.23515 -5.3753,0.30117c-2.10037,0.07059 -5.15233,-1.20972 -5.08676,-3.31025c0.24073,-7.71251 -1.03028,-12.56137 0.34736,-17.32682c0.5019,-1.73613 1.14855,-3.54568 2.85707,-4.13467c2.23181,-0.76941 6.59876,0.23834 6.59876,0.23834z" data-paper-data="{&quot;origPos&quot;:null}" fill="#474747" stroke-width="3"/></g><g><g><path d="M233.5713,213.06116c0,0 4.59165,-13.79549 6.81345,-13.93179c6.66538,-0.40894 21.02997,3.2621 30.74674,5.10462c1.50211,0.28484 0.27793,13.82727 0.27793,13.82727l-3.95663,30.42373c0,0 -2.54769,14.7414 -4.18634,14.43068c-14.58703,-2.76605 -31.84284,-5.17034 -38.18794,-7.22944c-2.11502,-0.68635 1.63425,-16.01397 1.63425,-16.01397z" data-paper-data="{&quot;origPos&quot;:null}" fill="#ffcb66" stroke="#000000" stroke-width="3.5" stroke-linecap="round"/><path d="M250.55875,224.62728c-1.26906,-0.24064 -0.80562,-2.68459 -0.80562,-2.68459c0.96119,-5.06893 2.23133,-11.76715 3.19252,-16.83608c0,0 0.46343,-2.44395 1.73249,-2.20331c1.26906,0.24064 0.80562,2.68459 0.80562,2.68459c-0.96119,5.06893 -1.92238,10.13786 -2.88357,15.20679l-0.30895,1.6293c0,0 -0.46343,2.44395 -1.73249,2.20331z" fill="#ffffff" stroke="none" stroke-width="0.5" stroke-linecap="butt"/><path d="M261.16873,233.08537c-1.26906,-0.24064 -0.68686,-3.31093 -0.68686,-3.31093c1.20752,-6.368 2.80318,-14.78286 4.01071,-21.15087c0,0 0.5822,-3.07029 1.85126,-2.82965c1.26906,0.24064 0.68686,3.31093 0.68686,3.31093c-1.20752,6.368 -2.41505,12.73601 -3.62257,19.10402l-0.38813,2.04686c0,0 -0.5822,3.07029 -1.85126,2.82965z" fill="#ffffff" stroke="none" stroke-width="0.5" stroke-linecap="butt"/></g><g stroke="#000000" stroke-width="0.5" stroke-linecap="butt"><path d="M262.04054,243.40296c-1.25899,6.63942 -6.8138,11.16194 -12.40701,10.10134c-5.59321,-1.06061 -9.10679,-7.30271 -7.8478,-13.94213c1.25899,-6.63942 6.8138,-11.16194 12.40701,-10.10134c5.59321,1.06061 9.10679,7.30271 7.8478,13.94213z" fill="#ffa924"/><path d="M257.02299,230.9626c-0.00168,0.01109 -0.00359,0.02236 -0.00576,0.03381c-0.11639,0.61378 -0.73017,0.49739 -0.73017,0.49739l-0.12275,-0.02328c-0.44846,-0.08504 -2.49801,-0.44528 -2.77922,-0.63633c-0.23475,-0.15949 -0.09897,-0.57154 -0.24331,-0.81589c-0.13866,-0.23475 -0.36665,-0.40688 -0.57956,-0.57719c-0.33858,-0.27083 -0.85326,-0.36512 -1.06879,-0.74132c-0.1991,-0.34753 -0.14242,-0.81256 -0.04385,-1.20076c0.46293,-1.82315 1.59841,-1.62739 3.02901,-1.18382c0.42258,0.18076 0.86871,0.31421 1.26776,0.54228c0.17555,0.10033 0.24513,0.34581 0.42987,0.42799c0.13132,0.05842 0.28499,-0.0455 0.42871,-0.04608c0.00613,-0.00003 1.76504,0.08012 1.78247,0.08092c1.18894,0.05517 2.43619,0.24199 3.58854,0.54829c0.73428,0.19518 2.38156,0.69861 2.66949,1.52605c0.41004,1.17839 -1.50361,1.56027 -1.98295,1.65777c-1.41854,0.28855 -2.47881,-0.25907 -3.84922,-0.35713c-0.46681,-0.0334 -1.26158,0.14769 -1.79027,0.26728z" fill="#1cc735"/></g></g><path d="M271.12008,207.93939c-11.86234,-2.31989 -23.35861,-4.605 -27.84802,-6.55541c-4.10303,-1.78255 -4.83797,-4.75272 -4.83797,-4.75272c0,0 -1.22911,-2.73867 -1.00397,-4.25708c0.67542,-4.55522 3.21152,-17.45873 6.42628,-28.37203c0.10729,-0.36423 0.18078,-0.56504 0.30958,-0.92223c0.38637,-1.07158 2.07223,-5.19257 2.07223,-5.19257c0,0 3.45925,-0.98084 5.25191,-1.09444c5.37796,-0.34078 18.01721,3.78867 31.56017,7.0092c1.2275,0.29191 3.00484,2.37549 3.00484,2.37549c0,0 0.87485,3.38434 0.4265,5.31654c-2.89857,12.49195 -6.15161,26.30275 -7.10308,29.41735c-0.31714,1.0382 -2.96397,4.76972 -2.96397,4.76972z" fill="url(#color-1)" stroke="#000000" stroke-width="2.5" stroke-linecap="round"/><path d="M245.12752,157.19227l2.97559,-12.65488l42.6372,10.02544l-2.97559,12.65488z" fill="#000000" stroke="none" stroke-width="0" stroke-linecap="butt"/><g data-paper-data="{&quot;index&quot;:null}" stroke="#000000" stroke-width="1" stroke-linecap="butt"><g data-paper-data="{&quot;index&quot;:null}" fill="#000000"><path d="M263.3943,198.37578c7.35301,1.64042 4.16946,4.19218 4.16946,4.19218l-9.80085,-2.22239c0,0 -2.2132,-3.64349 5.63135,-1.96976z"/></g><g data-paper-data="{&quot;index&quot;:null}" fill="#ffffff"><path d="M263.39431,198.37579c1.50407,0.33557 2.56727,0.70924 3.30702,1.0914c0.01325,0.00685 -0.67838,0.52497 -0.82595,1.13832c-0.18019,0.74887 0.17509,1.61929 0.17282,1.61879c-1.65469,-0.37521 -8.28526,-1.87876 -8.28526,-1.87876c0,0 -2.2132,-3.64349 5.63135,-1.96976z"/></g></g><g data-paper-data="{&quot;index&quot;:null}"><g data-paper-data="{&quot;origRot&quot;:0,&quot;index&quot;:null}" stroke="#000000" stroke-width="3" stroke-linecap="round"><path d="M262.65896,177.25731c1.8403,0.86306 -2.27092,6.86495 -2.27092,6.86495c0,0 -7.64166,11.97969 -12.5327,19.64732c-3.21167,5.03488 -8.22948,12.90127 -8.22948,12.90127c0,0 -3.40322,4.84952 -4.36041,4.30492c-5.7586,-3.27658 -11.97803,-5.31267 -14.22649,-7.94113c-0.74951,-0.87616 1.24144,-6.2331 1.24144,-6.2331l10.91119,-28.05276c0,0 4.02486,-9.85615 6.86936,-13.48098c1.57759,-2.01038 22.59799,11.98953 22.59799,11.98953z" data-paper-data="{&quot;origPos&quot;:null}" fill="#582600"/><path d="M237.1317,172.2352l22.09424,11.54759" fill="none"/><path d="M235.69248,175.5015l22.20422,11.33715" data-paper-data="{&quot;origPos&quot;:null}" fill="none"/></g><path d="M257.48538,187.63153l-21.30544,32.38353l-14.04021,-7.2839l-0.81742,-1.19972l13.81865,-35.54735z" fill="#ffcb66" stroke="#000000" stroke-width="1" stroke-linecap="round"/><path d="M259.66884,184.1042l-1.07291,2.0695l-22.63916,-11.73714l1.07291,-2.0695z" fill="#ffffff" stroke="none" stroke-width="0" stroke-linecap="butt"/></g><g data-paper-data="{&quot;index&quot;:null}"><path d="M156.09129,249.25031c-0.20496,-2.25285 -4.06064,-5.72516 -2.00582,-5.85124c1.36892,-0.08399 20.78486,3.36685 22.01641,4.72571c0.61705,0.68084 1.07925,1.81579 1.14769,2.5678c0.10056,1.10531 -0.38962,2.05404 -1.24025,2.75375c-0.88315,0.72645 -19.9671,2.27726 -21.01376,2.34149c-2.05481,0.12608 1.30073,-4.28466 1.09574,-6.53752z" fill="#e99b00" stroke="#000000" stroke-width="1.5" stroke-linecap="butt"/><g stroke-linecap="butt"><path d="M149.32278,249.69123c-0.37137,-4.08164 1.47327,-7.5221 4.12011,-7.68449c2.64685,-0.16239 5.09358,3.01478 5.46495,7.09643c0.37133,4.08164 -1.47331,7.5221 -4.12014,7.68449c-2.64683,0.16242 -5.09357,-3.01477 -5.46493,-7.09641z" fill="#ffb727" stroke="#000000" stroke-width="1.5"/><path d="M154.98044,245.6816l-1.76101,-3.23445c0,0 1.74495,0.55298 2.34388,1.04651c1.24099,1.05291 1.73129,2.56411 1.73129,2.56411z" fill="#ffd683" stroke="none" stroke-width="0"/><path d="M156.02469,248.88888l-0.41294,-1.46811c0,0 0.91946,-0.16024 1.24795,-0.15881c0.38463,0.00168 1.08407,0.21294 1.08407,0.21294l0.20968,1.78122z" fill="#ffd683" stroke="none" stroke-width="0"/></g><g><path d="M155.22539,249.43717c0.51229,5.63067 -2.45858,8.95223 -7.98857,9.29152c-5.52998,0.33927 -10.45446,-4.23881 -10.96678,-9.86954c-0.51232,-5.63069 3.04106,-9.85846 8.57105,-10.19775c5.52996,-0.33926 9.87198,5.14501 10.3843,10.77574z" fill="#e99b00" stroke="#000000" stroke-width="1.5" stroke-linecap="butt"/><path d="M143.23015,239.15815c2.74366,-0.16836 5.71112,1.01724 7.94696,2.58665c1.59293,1.11813 2.81739,2.90241 2.99847,4.89274c0.37219,4.0911 -1.28465,5.65574 -6.12296,5.95259c-2.4162,0.14823 -5.51488,-1.11011 -7.65869,-2.74116c-2.14902,-1.63502 -3.58148,-2.92615 -3.58148,-2.92615c0,0 1.57938,-7.46781 6.41769,-7.76466z" fill="#ffb727" stroke="none" stroke-width="0" stroke-linecap="butt"/><path d="M144.90342,238.9684c0,0 4.04701,2.54665 4.86756,9.04547c0.82728,6.55207 -2.27429,9.7456 -2.27429,9.7456" fill="none" stroke="#000000" stroke-width="0.8" stroke-linecap="round"/><path d="M149.40381,239.87317c0,0 2.46598,3.68779 3.4531,7.77697c1.42258,5.89302 -0.27515,8.33531 -0.27515,8.33531" fill="none" stroke="#000000" stroke-width="0.75" stroke-linecap="round"/><path d="M140.70109,240.12592c0,0 3.49488,2.75874 4.67566,9.2287c1.13572,6.22294 -0.60165,8.23441 -0.60165,8.23441" fill="none" stroke="#000000" stroke-width="0.8" stroke-linecap="round"/><path d="M143.50687,257.61063c0,0 -2.51441,-3.73755 -3.61762,-6.84506c-1.45312,-4.09309 -1.8008,-8.39875 -1.8008,-8.39875" fill="none" stroke="#000000" stroke-width="0.8" stroke-linecap="round"/><path d="M154.67153,251.63985c0,0 -2.86257,2.46501 -8.668,3.06222c-5.41748,0.5573 -8.08244,-2.03456 -8.08244,-2.03456" fill="none" stroke="#000000" stroke-width="0.8" stroke-linecap="round"/><path d="M137.45823,250.6153c0,0 2.77879,0.01709 5.76598,-0.43942c2.62696,-0.40147 5.39341,-1.26975 6.87253,-1.44666c1.75679,-0.21011 4.73434,-0.19192 4.73434,-0.19192" fill="none" stroke="#000000" stroke-width="0.8" stroke-linecap="round"/><path d="M136.72995,248.07334c0,0 4.02104,-3.17879 7.80682,-3.52048c5.9419,-0.5363 9.95043,1.41887 9.95043,1.41887" fill="none" stroke="#000000" stroke-width="0.8" stroke-linecap="round"/><path d="M136.87422,244.80305c0,0 2.82486,-2.45953 6.52529,-3.32437c5.32876,-1.24541 8.35879,-0.00677 8.35879,-0.00677" fill="none" stroke="#000000" stroke-width="0.8" stroke-linecap="round"/><path d="M143.82235,240.44052c0.03654,0.40148 -0.30269,0.74962 -0.75765,0.77751c-0.45497,0.02793 -0.85341,-0.27493 -0.88993,-0.67641c-0.03652,-0.4015 0.30268,-0.74962 0.75764,-0.77751c0.45497,-0.02795 0.85343,0.27491 0.88995,0.67639z" fill="#ffd683" stroke="none" stroke-width="0" stroke-linecap="butt"/><path d="M140.44693,241.8847c-0.22747,0.01395 -0.42897,-0.16251 -0.45004,-0.39413c-0.02107,-0.23162 0.14626,-0.43071 0.37374,-0.44466c0.22748,-0.01394 0.42897,0.16251 0.45004,0.39413c0.02108,0.23162 -0.14626,0.43071 -0.37374,0.44466z" fill="#ffd683" stroke="none" stroke-width="0" stroke-linecap="butt"/></g></g><g data-paper-data="{&quot;index&quot;:null,&quot;origRot&quot;:0}" stroke="#000000" stroke-linecap="round"><path d="M242.48756,243.32762c0,0 4.79874,0.13695 4.70858,1.67755c-0.26606,4.54611 1.16871,9.02945 -0.68182,13.19037c-0.76842,1.72782 -5.02748,2.23097 -5.02748,2.23097l-32.98839,2.80933c0,0 -3.40251,0.33449 -5.36422,0.45777c-2.09742,0.1318 -5.18541,-1.05896 -5.18113,-3.16052c0.01574,-7.71625 -1.39616,-12.52599 -0.15805,-17.32958c0.45107,-1.75002 1.04464,-3.57766 2.73529,-4.21624c2.20842,-0.83415 6.60291,0.04581 6.60291,0.04581z" data-paper-data="{&quot;origPos&quot;:null}" fill="#ff0000" stroke-width="3"/><path d="M199.78291,263.59951c0,0 -2.42915,-6.02011 -2.26329,-11.10444c0.12727,-3.90087 1.42625,-12.31656 1.42625,-12.31656c0,0 2.65025,-1.26706 4.25249,-1.30388c1.68786,-0.03881 4.178,1.11006 4.178,1.11006l0.03692,23.32386z" data-paper-data="{&quot;origPos&quot;:null}" fill="#976e57" stroke-width="2.5"/><path d="M206.80989,239.10395c0,0 12.61721,1.53262 20.69287,2.51357c5.72183,0.69504 14.66144,1.78095 14.66144,1.78095c0,0 4.79874,0.13694 4.70858,1.67754c-0.26605,4.5461 1.16871,9.02946 -0.68182,13.19038c-0.76842,1.72783 -5.02748,2.23097 -5.02748,2.23097l-32.98839,2.80933c0,0 -3.40251,0.33449 -5.36422,0.45777c-2.09741,0.1318 -5.18541,-1.05896 -5.18113,-3.16052c0.01573,-7.71626 -1.39615,-12.52599 -0.15804,-17.32958c0.45106,-1.75002 1.04464,-3.57766 2.73529,-4.21624c2.20842,-0.83415 6.60291,0.04581 6.60291,0.04581z" data-paper-data="{&quot;origPos&quot;:null}" fill="#474747" stroke-width="1.5"/></g><path d="M225.53741,202.43552c-0.39989,0.26305 -0.97856,0.41312 -1.72114,0.01011c-1.32749,-0.72045 -0.88743,-1.96479 -0.74204,-2.29206l-0.11697,-0.10836c0,0 -0.21028,-1.42757 1.04736,-1.88106c1.25244,-3.16171 1.43855,-6.25432 2.133,-9.77684c1.29233,-6.55512 3.58683,-14.09776 6.76508,-19.97933c0.56459,-1.03447 1.54206,-3.07977 2.57116,-3.6484c1.73334,-0.95778 5.07215,-0.30565 6.84569,0.26335c4.14595,1.33015 8.62837,3.50751 12.43544,5.5737c1.79397,0.97366 4.20208,1.86845 5.28539,3.74212c2.35885,4.07987 -1.03407,8.34063 -2.89837,11.77569c-1.84099,3.39209 -3.81203,5.81673 -7.94031,6.3752c-1.08091,0.14622 -4.11169,-0.94799 -5.02381,-0.37798c-0.99746,0.62337 -1.22869,2.16732 -2.28145,2.69189c-2.50335,1.24738 -3.85341,-0.386 -6.12005,0.38835c-0.90091,0.30778 -1.36518,1.33 -2.09615,1.93997c-1.17728,0.98238 -2.1514,0.97054 -3.33931,1.79814c-1.72849,1.20419 -2.75704,2.61919 -4.65344,3.64454l-0.15006,-0.13902z" data-paper-data="{&quot;index&quot;:null}" fill="#000000" stroke="none" stroke-width="0.5" stroke-linecap="butt"/><path d="M193.65525,253.77189c-0.20092,-1.73391 0.5032,-3.62177 0.1881,-5.25038c-0.0839,-0.43366 -0.50734,-2.03965 -0.17439,-2.37289c0.36225,-0.36256 1.32467,0.21386 1.51507,-0.26198c0.37434,-0.93554 0.18062,-2.19955 1.00301,-2.96719c1.22988,-1.14802 1.71537,0.50146 2.5882,-0.19709c0.53832,-0.43084 0.86262,-1.45216 1.09892,-2.07539c0.19117,-0.3148 0.32421,-0.6733 0.57352,-0.94439c2.41286,-2.62379 2.16082,2.51587 3.53775,2.49796c0.4138,-0.00538 1.15788,-0.80159 1.51592,-0.72027c1.08339,0.24607 1.22375,1.79033 1.51493,2.60322c0.79439,2.21769 2.0203,4.75307 3.14861,6.78954c0.17632,0.44585 0.3286,2.96513 0.64948,3.17974c0.40471,0.27067 0.95695,-0.65761 1.39268,-0.44037c0.37565,0.18728 1.17698,1.15431 1.85553,2.06932c1.56458,0.31343 3.12013,0.674 4.73184,0.98977c1.17255,0.0382 2.59079,-0.47661 3.71805,-0.16331c0.77107,0.2143 1.29475,0.99249 2.04877,1.14319c1.33336,0.26649 2.82314,-0.37019 4.19969,-0.21504c1.03125,0.11623 1.64386,0.84685 2.58995,1.08892c1.07538,0.27516 2.2631,-0.26501 3.31082,-0.4428c1.02628,0.14724 1.90826,1.08725 2.80519,1.16356c1.1739,0.09987 2.05634,-0.80418 3.34047,-0.60034c1.22543,0.19453 2.03236,1.40126 3.13849,1.84242c2.18635,0.87199 2.9925,2.96474 0.66408,4.35259c-0.32215,0.2602 -4.57426,0.80189 -5.074,0.51616c-0.5029,-0.28754 -0.58002,-1.41395 -1.14881,-1.30406c-1.88394,0.36398 -2.26607,0.20943 -4.04899,-0.08284c-0.3483,-0.0571 -2.35,1.1667 -2.7293,1.32711c-0.87962,0.03452 -1.83641,-0.78931 -2.54646,-0.69355c-0.97844,0.13195 -1.59734,1.30691 -2.65537,1.28744c-1.24057,-0.02283 -1.53534,-1.5833 -2.55594,-1.68192c-2.26646,-0.21902 -3.03215,2.46451 -5.59158,1.13922c-1.3189,-0.72899 -1.76221,0.54579 -3.17392,0.42184c-1.04411,-0.09167 -1.36155,-1.71655 -2.12704,-1.85884c-1.11629,-0.20749 -2.96959,1.65864 -4.00804,1.9675c-1.69642,0.50455 -1.9855,-1.4611 -3.36297,-0.56966c-1.75854,0.61359 -2.40897,-0.83987 -3.78882,-0.60577c-1.04073,0.17657 -1.98155,0.9635 -3.04316,1.21265c-2.38913,0.5607 -8.1423,0.58138 -9.91706,-1.0184c-0.16231,-0.37828 -0.98086,-2.16374 -0.93742,-2.57222c0.1348,-1.26745 0.82079,-2.21445 1.7816,-2.97593c0.82964,-2.75932 1.95055,-7.05845 3.9726,-5.57752z" fill="#000000" stroke="none" stroke-width="0.5" stroke-linecap="butt"/></g></g></svg>