<svg version="1.1" xmlns="http://www.w3.org/2000/svg" xmlns:xlink="http://www.w3.org/1999/xlink" width="127.66667" height="127.66667" viewBox="0,0,127.66667,127.66667"><defs><linearGradient x1="226.60109" y1="173.72692" x2="226.60109" y2="177.82642" gradientUnits="userSpaceOnUse" id="color-1"><stop offset="0" stop-color="#00cffe" stop-opacity="0"/><stop offset="1" stop-color="#00cffe"/></linearGradient><linearGradient x1="253.87345" y1="159.52893" x2="253.87345" y2="166.77031" gradientUnits="userSpaceOnUse" id="color-2"><stop offset="0" stop-color="#00cffe" stop-opacity="0"/><stop offset="1" stop-color="#00cffe"/></linearGradient></defs><g transform="translate(-176.16667,-116.16666)"><g data-paper-data="{&quot;isPaintingLayer&quot;:true}" fill-rule="nonzero" stroke-linejoin="miter" stroke-miterlimit="10" stroke-dasharray="" stroke-dashoffset="0" style="mix-blend-mode: normal"><g><path d="M203.49482,187.77067c-0.00244,0.00007 -0.00372,0.00007 -0.00372,0.00007l-0.54306,-0.18456c-0.85114,-1.06051 -0.43848,-2.35524 0.25538,-3.4456c1.79513,-1.47903 6.13913,-5.85648 8.42503,-2.7308c1.08069,1.47771 0.97908,3.47946 1.42157,5.17347c0.04397,6.65875 -6.10687,3.24417 -9.55519,1.18742z" fill="#323344" stroke="#000000" stroke-width="1" stroke-linecap="butt"/><path d="M232.19566,183.67149c0.45612,-1.21477 1.87801,-4.12631 3.1373,-4.70739c3.59184,-1.65742 4.79101,2.11235 5.06964,4.65068c0.00317,2.36877 -1.22716,6.10209 -3.57245,8.76341c-1.61707,1.83497 -4.03508,2.94762 -5.53357,3.616c-0.51109,0.22796 -2.09667,0.03463 -4.16966,-3.22725c-1.93842,-3.05013 -3.11121,-7.58085 -1.95346,-8.31685c0.9963,-0.63337 6.70462,0.07482 6.70462,0.07482z" fill="#dc94e7" stroke="#000000" stroke-width="1" stroke-linecap="butt"/><path d="M228.35873,188.04595c0.05501,0.04044 0.08614,0.07159 0.08614,0.07159l0.673,0.77512c0.30394,0.81602 0.28305,1.55287 0.29808,2.26988c0.0185,0.88252 -0.01299,1.73502 -0.58331,2.66811c-4.00135,5.3426 -14.93641,7.04336 -14.93641,-2.11959c0.01902,-3.8222 3.58638,-5.00101 7.32642,-5.0694c2.54824,-0.0466 5.17666,0.31367 6.81749,1.12963c0,0 0.18311,0.09155 0.31858,0.27466z" fill="#f89688" stroke="#000000" stroke-width="1" stroke-linecap="butt"/><path d="M210.3751,183.13389c-0.63973,-0.31754 -0.38355,-1.02204 -0.38355,-1.02204c0.68649,-1.88372 3.9321,-5.78441 6.21992,-4.69679c2.34626,1.11541 0.98587,3.4681 2.332,5.02695c0.63419,0.73441 2.49312,0.75074 3.38112,1.07402c0.37876,1.05143 0.56819,1.23507 0.54229,2.30107c-0.04573,1.88203 -1.50152,3.02398 -3.39445,2.60089c-3.03194,-0.67767 -4.76674,-3.99408 -7.77161,-4.76752l-0.31565,-0.0611c0,0 -0.43849,-0.0877 -0.61006,-0.45548z" fill="#fcdfbd" stroke="none" stroke-width="0.5" stroke-linecap="butt"/><path d="M221.92459,183.51604c0.37876,1.05143 0.56819,1.23507 0.54229,2.30108c-0.04574,1.88203 -1.50152,3.02398 -3.39445,2.60089c-2.34158,-0.52337 -3.90948,-2.62063 -5.88627,-3.90485c0.76217,-0.1168 1.46128,-0.22062 1.98815,-0.21992c0.57533,0.00076 1.02431,0.24923 1.44803,0.55739c0.44587,0.61455 1.13651,1.03997 1.92879,1.13313c0.3181,0.05841 0.67493,0.04893 1.08964,-0.06401c0.11667,-0.03178 0.2349,-0.08194 0.35263,-0.14793c0.92194,-0.40203 1.58429,-1.28818 1.66588,-2.33727c0.09539,0.02514 0.18438,0.05205 0.26531,0.08152z" fill="#f89688" stroke="none" stroke-width="0.5" stroke-linecap="butt"/><path d="M210.3751,183.13389c-0.63973,-0.31754 -0.38355,-1.02204 -0.38355,-1.02204c0.68649,-1.88372 3.9321,-5.78441 6.21991,-4.69679c2.34625,1.11541 0.98587,3.46809 2.332,5.02694c0.63419,0.7344 2.49311,0.75074 3.38112,1.07403c0.37876,1.05143 0.56819,1.23507 0.54229,2.30108c-0.04574,1.88203 -1.50152,3.02398 -3.39445,2.60089c-3.03193,-0.67767 -4.76674,-3.99408 -7.77161,-4.76752l-0.31565,-0.06112c0,0 -0.43849,-0.0877 -0.61006,-0.45547z" fill="none" stroke="#000000" stroke-width="1" stroke-linecap="butt"/><path d="M211.1892,180.97027c0,0.55752 -0.55752,0.55752 -0.55752,0.55752h-0.08577c-3.45734,0 -6.09984,2.35105 -6.47924,5.85122c0,0 -0.01944,0.17495 -0.13478,0.31732l0.06067,0.27265c0,0 -0.38255,0.38255 -0.7708,0.01714c-0.0723,-0.01033 -0.14461,-0.02066 -0.21691,-0.03099c0,0 -0.31225,-0.0446 -0.43346,-0.30157c-0.30252,-0.13676 -0.30252,-0.50767 -0.30252,-0.50767l0.0043,-0.15492c0.62718,-5.01617 3.20795,-7.09286 8.10121,-7.09286c0,0 0.55752,0 0.55752,0.55752c0,0.01283 -0.00029,0.02537 -0.00087,0.03761c0.1322,0.07295 0.25819,0.21199 0.25819,0.47703z" fill="#455d83" stroke="none" stroke-width="0.5" stroke-linecap="butt"/><path d="M204.17853,186.66405c-0.47845,-0.28094 -1.01737,-0.45011 -1.54519,-0.46747c-0.06953,-0.04275 -0.1431,-0.07958 -0.22002,-0.10976c0.30378,-1.62067 0.84729,-2.89125 1.64568,-3.84822c0.42025,0.61283 0.82421,1.24271 1.22844,1.86487c-0.52796,0.73025 -0.90939,1.59357 -1.10891,2.56058z" fill="#85afb1" stroke="none" stroke-width="0.5" stroke-linecap="butt"/><path d="M206.06053,180.70317c0.32415,0.6124 0.78049,1.22415 1.19016,1.65188c-0.43772,0.24491 -0.84061,0.54041 -1.20249,0.88139c-0.39069,-0.59825 -0.78088,-1.19995 -1.18608,-1.78778c0.36195,-0.29125 0.76115,-0.53908 1.19842,-0.74549z" fill="#85afb1" stroke="none" stroke-width="0.5" stroke-linecap="butt"/><path d="M211.1892,180.97028c0,0.55752 -0.55752,0.55752 -0.55752,0.55752h-0.08577c-3.45734,0 -6.09984,2.35105 -6.47925,5.85122c0,0 -0.01944,0.17495 -0.13478,0.31732l0.06066,0.27266c0,0 -0.38254,0.38255 -0.7708,0.01714c-0.0723,-0.01033 -0.14461,-0.02066 -0.21691,-0.03099c0,0 -0.31225,-0.04461 -0.43346,-0.30157c-0.30253,-0.13675 -0.30253,-0.50767 -0.30253,-0.50767l0.0043,-0.15492c0.62718,-5.01617 3.20794,-7.09286 8.10121,-7.09286c0,0 0.55752,0 0.55752,0.55752c0,0.01282 -0.00029,0.02537 -0.00087,0.03762c0.1322,0.07295 0.25819,0.21199 0.25819,0.47703z" fill="none" stroke="#000000" stroke-width="1" stroke-linecap="butt"/><path d="M219.98431,190.87495c0,0 3.14901,0.0548 3.63727,1.84015c0.39176,1.43247 -0.87917,2.50797 -1.5868,3.59262c-1.67489,2.56722 -4.19562,6.89527 -7.62927,4.35056c-0.71624,-0.64058 -1.24728,-1.30653 -1.83506,-2.06224l-0.08089,-0.07925c-1.08769,0.52777 -2.15398,0.5729 -2.78589,-0.03415c-0.66899,-0.64267 -1.25876,-1.98035 -1.83629,-2.91391c-1.47918,0.2268 -3.0924,0.47174 -4.27238,-0.4525c-1.13481,-0.88885 -0.86445,-1.96358 -0.86445,-3.20353c0,-3.47314 2.1445,-6.30019 5.27936,-7.72803c1.54908,-0.91507 3.15511,-2.36212 5.07733,-2.47179c1.35188,-0.07712 2.17564,0.71735 2.71759,1.65547c0.62528,1.08238 0.82616,2.40525 0.22684,3.60454c1.23845,0.21146 2.44224,0.92722 3.26166,1.82293c0.80239,0.8771 0.4657,1.27898 0.69095,2.07912z" fill="#fde0be" stroke="none" stroke-width="0.5" stroke-linecap="butt"/><path d="M223.62158,192.71511c0.39176,1.43249 -0.87916,2.50797 -1.5868,3.59261c-1.6749,2.56722 -4.19562,6.89528 -7.62927,4.35057c-0.71624,-0.64058 -1.24728,-1.30653 -1.83505,-2.06224l-0.08089,-0.07925c-1.08769,0.52777 -2.15398,0.5729 -2.78589,-0.03415c-0.66899,-0.64267 -1.25875,-1.98036 -1.83628,-2.91392c-1.47918,0.2268 -3.09239,0.47174 -4.27237,-0.4525c-1.13481,-0.88886 -0.86445,-1.96358 -0.86445,-3.20353c0,-1.1619 0.24,-2.25149 0.6768,-3.24057c0.06905,0.18525 0.11288,0.36848 0.09986,0.55711l0.00624,0.00687c-0.08831,1.14809 0.28001,2.06245 0.92999,2.66227c0.50797,0.53536 1.22625,0.8692 2.0225,0.8692c0.28811,0 0.56601,-0.04371 0.82743,-0.12485c0.28228,-0.04517 0.57132,-0.11919 0.86372,-0.2236c1.27164,-0.45408 3.0421,-1.47285 4.71127,-2.77656c-0.32974,0.89179 -0.60198,1.77879 -0.78491,2.50196c-0.14678,0.33914 -0.22813,0.71319 -0.22813,1.10625c0,0.23414 0.02887,0.46153 0.08323,0.67882c0,1.58975 1.23761,2.1392 2.48347,2.10017c0.07289,0.00571 0.14656,0.00863 0.22091,0.00863c0.61334,0 1.18042,-0.19809 1.64075,-0.53377c0.15082,-0.09418 0.28205,-0.19829 0.38753,-0.31007c0.11895,-0.12606 0.24453,-0.26711 0.37493,-0.4207c0.20701,0.12214 -0.91017,2.15217 -0.67926,2.21879c0.68324,0.19715 2.79228,-1.80686 3.55118,-2.29642c0.60806,-0.39225 0.99462,-0.84172 1.20762,-1.31175c0.29544,-0.44244 0.46769,-0.97415 0.46769,-1.54609c0,-0.25873 -0.03525,-0.50923 -0.1012,-0.74696c0.88262,0.22574 1.87293,0.68606 2.12937,1.62371z" fill="#f89688" stroke="none" stroke-width="0.5" stroke-linecap="butt"/><path d="M219.98431,190.87495c0,0 3.14901,0.0548 3.63727,1.84015c0.39176,1.43249 -0.87916,2.50797 -1.5868,3.59261c-1.6749,2.56722 -4.19562,6.89528 -7.62927,4.35057c-0.71624,-0.64058 -1.24728,-1.30653 -1.83505,-2.06224l-0.08089,-0.07925c-1.08769,0.52777 -2.15398,0.5729 -2.78589,-0.03415c-0.66899,-0.64267 -1.25875,-1.98036 -1.83628,-2.91392c-1.47918,0.2268 -3.09239,0.47174 -4.27237,-0.4525c-1.13481,-0.88886 -0.86445,-1.96358 -0.86445,-3.20353c0,-3.47314 2.14449,-6.30019 5.27934,-7.72803c1.54908,-0.91507 3.15511,-2.36212 5.07734,-2.47179c1.35188,-0.07712 2.17564,0.71735 2.71757,1.65547c0.62528,1.08238 0.82616,2.40525 0.22684,3.60454c1.23846,0.21146 2.44224,0.92722 3.26166,1.82294c0.8024,0.8771 0.4657,1.27898 0.69095,2.07912z" fill="none" stroke="#000000" stroke-width="1" stroke-linecap="butt"/><path d="M216.27837,187.30383l-5.27787,3.41947" fill="none" stroke="#000000" stroke-width="1" stroke-linecap="round"/><path d="M219.69784,191.09498l-3.56814,3.64248" fill="none" stroke="#000000" stroke-width="1" stroke-linecap="round"/><path d="M195.79301,179.38348c0,-4.76077 3.4305,-8.96324 8.19128,-8.96324c2.54336,0 4.02088,1.11382 5.48469,2.79736c0.49317,0.5672 1.25071,1.66998 1.66777,2.83639c0.6622,1.85198 0.25705,3.6928 0.13902,3.97655c-0.09399,0.22595 -2.9823,-1.47269 -5.91347,0.8329c-2.98982,2.35174 -3.6081,6.62555 -3.6081,6.62555c0,0 -2.19122,-0.40513 -3.59682,-1.69748c-1.56628,-1.44009 -2.36437,-3.89895 -2.36437,-6.40805z" fill="#465e85" stroke="#000000" stroke-width="0" stroke-linecap="butt"/><path d="M195.79301,179.38348c0,-0.59778 0.05409,-1.18675 0.1581,-1.75972c0.04661,0.08248 0.10139,0.15973 0.16322,0.23067l0.00423,0.02115l0.03564,0.02268c0.16287,0.17163 0.36899,0.30183 0.6009,0.37315l0.22682,0.07561l0.14231,0.01095l0.12571,0.08381l0.08295,0.02963l0.06687,0.05731l0.09021,0.0451l0.00777,0.01359l0.03884,0.00971l0.03473,0.01737l0.31264,0.06948l0.3107,0.07767h0.03884l0.03908,0.00869l0.01302,-0.00869h0.02921l0.02847,0.0244l0.09021,0.0451l0.00777,0.01359l0.03884,0.00971l0.03473,0.01737l0.31264,0.06948l0.3107,0.07767h0.03884l0.03908,0.00869l0.01302,-0.00869h7.19568l0.03644,0.0081l0.3107,0.07767h0.03884l0.03908,0.00869l0.01302,-0.00869h0.21787l0.02239,0.01425l0.51464,0.17155l0.17564,0.01351l0.2975,0.06611l0.3107,0.07767h0.03884l0.03908,0.00869l0.01302,-0.00869h0.47518l0.02239,0.01425l0.16334,0.05445l0.17316,0.08657l0.00777,0.01359l0.03884,0.00971l0.03473,0.01737l0.26154,0.05813c-1.12652,-0.16211 -2.71048,-0.09436 -4.30718,1.16158c-2.98982,2.35174 -3.6081,6.62555 -3.6081,6.62555c0,0 -2.19122,-0.40513 -3.59682,-1.69748c-1.56628,-1.44009 -2.36437,-3.89895 -2.36437,-6.40805z" fill="#323344" stroke="#000000" stroke-width="0" stroke-linecap="butt"/><path d="M200.55179,174.653l0.00336,0.01677l-0.02194,-0.0117z" fill="#323344" stroke="#000000" stroke-width="0" stroke-linecap="butt"/><path d="M195.79301,179.38348c0,-4.76078 3.43051,-8.96324 8.19128,-8.96324c2.54336,0 4.02087,1.11382 5.48468,2.79736c0.49317,0.5672 1.2507,1.66998 1.66777,2.83639c0.6622,1.85197 0.25706,3.6928 0.13903,3.97655c-0.09399,0.22595 -2.98229,-1.47269 -5.91347,0.83292c-2.98982,2.35174 -3.6081,6.62555 -3.6081,6.62555c0,0 -2.19123,-0.40512 -3.59683,-1.69748c-1.56628,-1.44009 -2.36437,-3.89895 -2.36437,-6.40804z" fill="none" stroke="#000000" stroke-width="1" stroke-linecap="butt"/><path d="M200.16742,186.54549c0,0 0.16091,-5.90249 3.22562,-7.94111c3.24051,-2.15557 7.83904,0.05003 7.83904,0.05003" fill="none" stroke="#000000" stroke-width="1" stroke-linecap="round"/><path d="M196.90806,183.715c0,0 1.37951,-5.41231 4.24832,-8.29885c2.60453,-2.62062 7.93139,-1.9081 7.93139,-1.9081" fill="none" stroke="#000000" stroke-width="1" stroke-linecap="round"/><path d="M195.96455,178.39709c0,0 2.83785,-3.91792 4.46749,-5.29338c1.47036,-1.24104 4.88173,-2.5977 4.88173,-2.5977" fill="none" stroke="#000000" stroke-width="1" stroke-linecap="round"/><path d="M201.88287,184.83004c0,0 -2.59851,-0.57733 -3.5811,-1.19867c-0.96111,-0.60777 -2.25143,-2.48955 -2.25143,-2.48955" fill="none" stroke="#000000" stroke-width="1" stroke-linecap="round"/><path d="M202.91213,183.80078c0,0 -2.94556,-1.49774 -4.17701,-2.45887c-1.09756,-0.85662 -2.85634,-3.03058 -2.85634,-3.03058" fill="none" stroke="#000000" stroke-width="1" stroke-linecap="round"/><path d="M203.76986,182.08532c0,0 -2.92413,-1.87116 -3.89024,-3.19107c-1.05585,-1.4425 -2.1996,-5.12888 -2.1996,-5.12888" fill="none" stroke="#000000" stroke-width="1" stroke-linecap="round"/><path d="M199.9101,171.53529c0,0 2.79364,4.0376 3.66919,5.71187c0.72595,1.38822 1.21986,3.63735 1.21986,3.63735" fill="none" stroke="#000000" stroke-width="1" stroke-linecap="round"/><path d="M203.25523,170.50601c0,0 2.18011,2.45273 2.82107,3.90187c0.67268,1.52084 1.12447,5.01848 1.12447,5.01848" fill="none" stroke="#000000" stroke-width="1" stroke-linecap="round"/><path d="M208.48736,172.56455c0,0 0.72682,2.05409 0.8806,3.15846c0.16044,1.15228 0.06291,3.61758 0.06291,3.61758" fill="none" stroke="#000000" stroke-width="1" stroke-linecap="round"/></g><g><g stroke="#000000"><path d="M254.29413,193.31798l1.75835,9.73519l-37.56842,-0.98638c0,0 0.35965,-9.54107 2.07153,-11.34553c0.59347,-0.62556 6.41997,2.03919 6.41997,2.03919l0.25732,-3.81689z" fill="#0066cd" stroke-width="0" stroke-linecap="round"/><path d="M247.75783,195.084c-1.50492,0.75211 -3.46626,1.96401 -5.55469,2.32519c-3.234,0.55932 -6.47304,0.03793 -6.47304,0.03793c0,0 0.30281,3.49312 0.18664,5.07736l-6.30755,-0.16562c0.10962,-1.29633 -0.57405,-3.71336 -1.36584,-5.89166c-0.62872,-1.72966 -1.37315,-3.35633 -1.50415,-3.81326c0.15103,0.06748 0.23634,0.1065 0.23634,0.1065l0.25732,-3.81689l20.66543,3.37873c0,0 0.43609,0.795 0.40582,1.59336c-0.01954,0.51496 -0.48353,1.15655 -0.54628,1.16833z" fill="#061483" stroke-width="0" stroke-linecap="butt"/><path d="M254.29413,193.31798l1.75835,9.73519l-37.56842,-0.98638c0,0 0.35965,-9.54107 2.07153,-11.34553c0.59347,-0.62556 6.41997,2.03919 6.41997,2.03919l0.25732,-3.81689z" fill="none" stroke-width="1" stroke-linecap="round"/><path d="M232.8081,195.67673l2.1872,1.887" fill="none" stroke-width="1" stroke-linecap="round"/></g><g><path d="M240.61342,209.63623c0,0.33519 -1.63074,2.50378 -2.85523,2.79868c-2.46242,0.59307 -7.38873,0.24178 -11.07692,0.90119c-1.33696,0.23903 -3.19606,0.44866 -4.63054,1.09762c-0.92448,0.41823 -1.74343,2.02085 -6.96282,2.16315c-3.25738,0.0888 -6.83425,-0.83198 -7.71227,-1.14691c-2.50226,-0.89751 -3.34425,-2.76549 -3.30137,-4.09828c0.01257,-0.39041 0.42812,-1.81565 1.76048,-1.48829c0.90605,0.22261 3.46358,1.84521 6.17255,2.24522c3.29288,0.48623 6.89529,0.06209 7.94157,-0.19361c2.51502,-0.61463 4.62961,-2.03761 7.06881,-2.81725c2.58159,-0.82516 5.97162,0.34968 8.04687,-0.15176c2.70956,-0.65471 3.81251,-2.83717 4.39353,-2.55589c0.93799,0.4541 1.15532,2.55874 1.15532,3.24612z" fill="#feecf7" stroke="none" stroke-width="0" stroke-linecap="butt"/><path d="M237.75819,212.4349c-2.46242,0.59306 -7.38873,0.24178 -11.07692,0.90119c-1.33696,0.23904 -3.19606,0.44867 -4.63054,1.09763c-0.92447,0.41822 -1.74343,2.02085 -6.9628,2.16315c-0.4438,0.0121 -0.89353,0.00545 -1.34155,-0.01584c-0.43617,-1.67958 -1.41883,-3.10604 -2.32625,-4.5779c0.19455,0.04094 0.39047,0.07644 0.58718,0.10547c3.29288,0.48623 6.8953,0.0621 7.94157,-0.19361c2.51503,-0.61465 4.62961,-2.03761 7.06882,-2.81725c2.58159,-0.82514 5.97162,0.34968 8.04687,-0.15176c2.70956,-0.6547 3.81251,-2.83717 4.39353,-2.55589c0.93799,0.45411 1.15532,2.55874 1.15532,3.24612c0,0.3352 -1.63074,2.50378 -2.85523,2.79868z" fill="#dd95e8" stroke="none" stroke-width="0" stroke-linecap="butt"/><path d="M240.61342,209.63623c0,0.33519 -1.63074,2.50378 -2.85523,2.79868c-2.46242,0.59307 -7.38873,0.24178 -11.07692,0.90119c-1.33696,0.23903 -3.19606,0.44866 -4.63054,1.09762c-0.92448,0.41823 -1.74343,2.02085 -6.96282,2.16315c-3.25738,0.0888 -6.83425,-0.83198 -7.71227,-1.14691c-2.50226,-0.89751 -3.34425,-2.76549 -3.30137,-4.09828c0.01257,-0.39041 0.42812,-1.81565 1.76048,-1.48829c0.90605,0.22261 3.46358,1.84521 6.17255,2.24522c3.29288,0.48623 6.89529,0.06209 7.94157,-0.19361c2.51502,-0.61463 4.62961,-2.03761 7.06881,-2.81725c2.58159,-0.82516 5.97162,0.34968 8.04687,-0.15176c2.70956,-0.65471 3.81251,-2.83717 4.39353,-2.55589c0.93799,0.4541 1.15532,2.55874 1.15532,3.24612z" fill="none" stroke="#000000" stroke-width="1" stroke-linecap="butt"/><path d="M218.35539,201.20906l-1.32948,-3.73111c0,0 2.8106,-2.12368 7.65675,-1.54147c3.72193,0.44716 5.08049,4.41485 5.08049,4.41485c0,0 3.57503,-4.04059 4.74028,-3.35392c0.51589,0.30401 2.34417,1.10802 2.97465,2.21711c1.53721,2.70415 1.80584,6.62625 1.80584,6.62625c0,0 -0.38263,2.21366 -2.79127,2.88539c-1.68043,0.46864 -4.34287,0.34385 -7.03231,0.50096c-0.85331,0.04984 -1.69638,0.03395 -2.4905,0.25952c-1.84413,0.5238 -3.42297,1.56729 -5.3759,2.2564c-1.55439,0.54848 -3.47151,0.8096 -5.04159,0.85874c-3.6108,0.11301 -7.30255,-0.80321 -10.16225,-2.30084c-1.8351,-0.96105 1.51881,-3.82844 5.17407,-5.95649c3.26663,-1.9018 6.79121,-3.1354 6.79121,-3.1354z" fill="#ff292e" stroke="#000000" stroke-width="0" stroke-linecap="round"/><path d="M227.6901,197.3114c0.56861,0.50162 1.73755,1.99339 1.90193,3.00395c0.1394,0.857 -0.70861,1.23546 -0.48498,1.75693c0.19854,0.46296 1.42806,0.16605 1.42806,0.16605c0,0 2.04695,-0.84384 3.62863,-2.29243c0.7716,-0.70667 1.64124,-2.23 1.64124,-2.23c0,0 1.33278,0.89999 1.67309,1.49863c1.53721,2.70415 1.80584,6.62625 1.80584,6.62625c0,0 -0.38263,2.21366 -2.79127,2.88539c-1.68043,0.46864 -4.34287,0.34385 -7.03231,0.50096c-0.85331,0.04984 -1.69638,0.03395 -2.4905,0.25952c-1.84413,0.5238 -3.42297,1.56729 -5.3759,2.2564c-1.55439,0.54848 -3.47151,0.8096 -5.04159,0.85874c-0.98536,0.03084 -2.95564,-0.12833 -2.95564,-0.12833c0,0 -0.45608,-2.69671 1.66501,-5.12594c2.44768,-2.80325 7.68327,-4.11214 10.44969,-6.15067c2.49395,-1.83776 1.78263,-4.05842 1.97869,-3.88545z" fill="#ac0e49" stroke="#000000" stroke-width="0" stroke-linecap="round"/><path d="M229.76313,200.30844c0,0 0.12921,1.06387 -0.40554,1.51144c-0.38839,0.32507 -1.9532,0.58999 -1.9532,0.58999" fill="none" stroke="#000000" stroke-width="1" stroke-linecap="round"/><path d="M235.05963,200.30844c0,-0.46186 0.37442,-0.83628 0.83628,-0.83628c0.46186,0 0.83628,0.37442 0.83628,0.83628c0,0.46186 -0.37442,0.83628 -0.83628,0.83628c-0.46186,0 -0.83628,-0.37442 -0.83628,-0.83628z" fill="#000000" stroke="none" stroke-width="0.5" stroke-linecap="butt"/><path d="M218.35539,201.20906l-1.32948,-3.73111c0,0 2.8106,-2.12368 7.65675,-1.54147c3.72193,0.44716 5.08049,4.41485 5.08049,4.41485c0,0 3.57503,-4.04059 4.74028,-3.35392c0.51589,0.30401 2.34417,1.10802 2.97465,2.21711c1.53721,2.70415 1.80584,6.62625 1.80584,6.62625c0,0 -0.38263,2.21366 -2.79127,2.88539c-1.68043,0.46864 -4.34287,0.34385 -7.03231,0.50096c-0.85331,0.04984 -1.69638,0.03395 -2.4905,0.25952c-1.84413,0.5238 -3.42297,1.56729 -5.3759,2.2564c-1.55439,0.54848 -3.47151,0.8096 -5.04159,0.85874c-3.6108,0.11301 -7.30255,-0.80321 -10.16225,-2.30084c-1.8351,-0.96105 1.51881,-3.82844 5.17407,-5.95649c3.26663,-1.9018 6.79121,-3.1354 6.79121,-3.1354z" fill="none" stroke="#000000" stroke-width="1" stroke-linecap="round"/><path d="M213.18761,203.43915c0,-0.2686 0.12664,-0.50764 0.32345,-0.66064c-0.14245,0.30595 -0.231,0.64203 -0.25346,0.99609c-0.04501,-0.10268 -0.06999,-0.21615 -0.06999,-0.33545z" fill="#db93e6" stroke="none" stroke-width="0.5" stroke-linecap="butt"/><path d="M221.529,200.84453c5.36301,0.04651 4.6557,6.30284 1.97676,4.47385c-0.56413,-0.38516 -1.14635,-1.13569 -1.75326,-1.58809c-0.80799,-0.60228 -2.20652,-1.18841 -3.05294,-1.67209c-0.29133,-0.13074 -0.16932,-1.01887 0.23482,-1.19223c0.40415,-0.17336 1.73335,-0.02891 2.59462,-0.02144z" fill="#f0e0ec" stroke="none" stroke-width="0.5" stroke-linecap="butt"/><path d="M221.58913,206.78426c-0.04287,0.42165 -0.399,0.75067 -0.83196,0.75067c-0.30694,0 -0.57525,-0.16535 -0.72072,-0.41184c-0.2312,-0.13211 -1.05102,-1.37107 -2.08121,-2.38367c-0.87171,-0.85682 -1.89764,-1.52796 -2.33491,-2.16462c-0.32071,-0.46696 -0.11359,-0.78023 0.33214,-0.94991c1.44435,-0.54982 6.80364,3.20573 5.63666,5.15938z" data-paper-data="{&quot;index&quot;:null}" fill="#f0e0ec" stroke="none" stroke-width="0.5" stroke-linecap="butt"/><path d="M218.84858,207.16312c0.33475,1.26692 -1.09143,2.00882 -1.79482,0.9035c-0.41897,-0.65837 -0.90974,-1.69156 -1.54123,-2.21345c-0.66411,-0.54886 -1.48386,-0.94215 -1.91308,-1.69329c-0.24648,-0.14548 -0.41184,-0.41378 -0.41184,-0.72072c0,-0.46186 0.37442,-0.83628 0.83628,-0.83628c0.25436,0 0.48222,0.11357 0.6356,0.29277c1.65607,0.45449 3.87257,3.06959 4.18909,4.2675z" fill="#f0e0ec" stroke="none" stroke-width="0.5" stroke-linecap="butt"/><path d="M223.50574,205.31838c-0.54218,-0.37016 -1.10106,-1.07782 -1.68251,-1.53396c1.10453,-0.27698 1.94761,-1.21297 2.08707,-2.36577c2.65203,1.51262 1.77818,5.38995 -0.40456,3.89972z" fill="#db93e6" stroke="none" stroke-width="0.5" stroke-linecap="butt"/><path d="M221.58913,206.78426c-0.04287,0.42165 -0.399,0.75067 -0.83196,0.75067c-0.30694,0 -0.57525,-0.16535 -0.72072,-0.41184c-0.16927,-0.09673 -0.6541,-0.7868 -1.30598,-1.54695c0.88983,-0.0642 1.66392,-0.54608 2.12724,-1.25056c0.74673,0.8655 1.14097,1.77304 0.73142,2.45866z" data-paper-data="{&quot;index&quot;:null}" fill="#db93e6" stroke="none" stroke-width="0.5" stroke-linecap="butt"/><path d="M218.84858,207.16312c0.33475,1.26692 -1.09143,2.00882 -1.79482,0.9035c-0.23987,-0.37693 -0.50328,-0.87673 -0.80316,-1.33309c0.74314,-0.05563 1.40506,-0.40263 1.87188,-0.92709c0.36774,0.51507 0.63159,0.99905 0.72609,1.35669z" fill="#db93e6" stroke="none" stroke-width="0.5" stroke-linecap="butt"/><path d="M221.529,200.84453c5.36301,0.04651 4.6557,6.30284 1.97676,4.47385c-0.56413,-0.38516 -1.14635,-1.13569 -1.75326,-1.58809c-0.80799,-0.60228 -2.20652,-1.18841 -3.05294,-1.67209c-0.29133,-0.13074 -0.16932,-1.01887 0.23482,-1.19223c0.40415,-0.17336 1.73335,-0.02891 2.59462,-0.02144z" fill="none" stroke="#000000" stroke-width="1" stroke-linecap="butt"/><path d="M221.58913,206.78426c-0.04287,0.42165 -0.399,0.75067 -0.83196,0.75067c-0.30694,0 -0.57525,-0.16535 -0.72072,-0.41184c-0.2312,-0.13211 -1.05102,-1.37107 -2.08121,-2.38367c-0.87171,-0.85682 -1.89764,-1.52796 -2.33491,-2.16462c-0.32071,-0.46696 -0.11359,-0.78023 0.33214,-0.94991c1.44435,-0.54982 6.80364,3.20573 5.63666,5.15938z" data-paper-data="{&quot;index&quot;:null}" fill="none" stroke="#000000" stroke-width="1" stroke-linecap="butt"/><path d="M217.05375,208.06662c-0.41897,-0.65837 -0.90974,-1.69156 -1.54123,-2.21345c-0.66411,-0.54886 -1.48386,-0.94215 -1.91308,-1.69329c-0.24648,-0.14548 -0.41184,-0.41378 -0.41184,-0.72072c0,-0.46186 0.37442,-0.83628 0.83628,-0.83628c0.25436,0 0.48222,0.11357 0.6356,0.29277c1.65607,0.45449 3.87257,3.06959 4.18909,4.2675c0.31652,1.1979 -1.09143,2.00881 -1.79482,0.90349z" fill="none" stroke="#000000" stroke-width="1" stroke-linecap="butt"/></g><g><path d="M239.36971,208.91399c0,0 0.3915,8.34024 14.60749,6.23944c13.4989,-1.99483 11.63893,-9.15571 11.63893,-9.15571l4.20286,1.887c0,0 -0.00863,1.18868 0.0127,2.61652c0.02049,1.37182 0.09502,2.95119 -1.0369,4.54341c-2.00021,2.81361 -6.76078,4.99215 -16.60204,5.40697c-20.06166,0.84564 -12.82304,-11.53763 -12.82304,-11.53763z" fill="#ffeffa" stroke="#000000" stroke-width="0" stroke-linecap="round"/><path d="M238.24138,214.9262c-0.01726,-0.07859 3.87856,5.67316 16.55063,3.82969c14.35662,-1.86616 15.02695,-10.87116 15.02695,-10.87116c0,0 -0.00863,1.18868 0.0127,2.61652c0.02049,1.37182 0.09502,2.95119 -1.0369,4.54341c-2.00021,2.81361 -6.76078,4.99215 -16.60204,5.40697c-10.11326,0.42629 -13.28882,-2.50921 -13.95136,-5.52542z" fill="#dd95e8" stroke="#000000" stroke-width="0" stroke-linecap="round"/><path d="M239.36971,208.91399c0,0 0.3915,8.34024 14.60749,6.23944c13.4989,-1.99483 11.63893,-9.15571 11.63893,-9.15571l4.20286,1.887c0,0 -0.00863,1.18868 0.0127,2.61652c0.02049,1.37182 0.09502,2.95119 -1.0369,4.54341c-2.00021,2.81361 -6.76078,4.99215 -16.60204,5.40697c-20.06166,0.84564 -12.82304,-11.53763 -12.82304,-11.53763z" fill="none" stroke="#000000" stroke-width="1" stroke-linecap="round"/><path d="M244.55778,199.14542c1.31642,-1.17593 6.83383,-2.37225 9.54146,-1.8472c1.63401,0.31686 1.35284,1.93808 1.35284,1.93808c0,0 6.50518,-3.29028 7.2311,-2.78214c0.28324,0.19828 1.53295,2.07667 0.92706,3.17351c-0.89762,1.62499 -3.86953,2.61068 -3.86953,2.61068c0,0 0.38686,0.12296 0.98019,0.36644c-4.37977,0.2708 -10.45727,2.81658 -13.09573,2.97807c-0.28949,0.01772 -0.09375,-0.57255 -0.14995,-0.85709c-0.2393,-1.21161 -0.36474,-2.58493 -1.15202,-3.60541c-0.53209,-0.6897 -1.20811,-1.28668 -1.96677,-1.76955c0.06482,-0.07445 0.13195,-0.14336 0.20135,-0.20536z" fill="#ff292e" stroke="#000000" stroke-width="0" stroke-linecap="butt"/><path d="M239.75568,206.14098l-4.26626,-0.16396c0,0 -0.75986,-1.06582 0.64989,-3.95604l0.44322,0.77565c0.89587,1.56777 5.91336,-0.09743 5.42961,2.84951c-0.11145,0.67887 -1.32062,0.92814 -2.47088,1.49438c0.1108,-0.61531 0.21443,-0.99954 0.21443,-0.99954z" fill="#ff292e" stroke="#000000" stroke-width="0" stroke-linecap="butt"/><path d="M258.17176,209.10014c0.36853,-0.08338 0.88232,-0.11124 1.46868,-0.11798c-0.6464,0.16771 -1.32782,0.23565 -2.02895,0.24198c0.20663,-0.04469 0.39459,-0.08651 0.56025,-0.12398z" fill="#ac0e49" stroke="#000000" stroke-width="0" stroke-linecap="butt"/><path d="M243.10081,202.06679c0,0 0.52294,-2.08702 1.45697,-2.92137c1.31642,-1.17593 6.83383,-2.37225 9.54146,-1.8472c1.63401,0.31686 1.35284,1.93808 1.35284,1.93808c0,0 6.50518,-3.29028 7.2311,-2.78214c0.28324,0.19828 1.53295,2.07667 0.92706,3.17351c-0.89762,1.62499 -3.86953,2.61068 -3.86953,2.61068c0,0 3.2768,1.04143 5.38321,3.06446c3.27168,3.14221 4.20444,8.1679 -10.60834,11.59558c-1.79091,0.41442 -10.06451,0.93634 -13.55884,-2.11337c-2.85954,-2.49569 -1.20105,-8.64402 -1.20105,-8.64402l-4.26626,-0.16396c0,0 -0.79623,-1.11685 0.75362,-4.16423c0.36247,-0.7127 6.85777,0.254 6.85777,0.254z" fill="#ff292e" stroke="#000000" stroke-width="0" stroke-linecap="round"/><path d="M239.75568,206.14098l-4.26626,-0.16396c0,0 -0.5427,-0.76123 0.14011,-2.74157c1.97616,0.73611 6.21238,1.20089 7.42841,1.75617c0.14476,0.0661 -1.20123,0.75924 -1.35092,0.8545c-0.89102,0.56702 -1.4988,1.12815 -2.20328,1.90308c-0.02477,0.02724 -0.04901,0.05479 -0.07273,0.08264c0.13987,-1.0057 0.32469,-1.69088 0.32469,-1.69088z" fill="#ac0e49" stroke="#000000" stroke-width="0" stroke-linecap="butt"/><path d="M239.01589,206.27232c-0.27303,0.24428 -2.54969,0.17339 -2.50058,-0.53893c-0.05339,-0.11013 -0.08333,-0.23375 -0.08333,-0.36435c0,-0.46186 0.37442,-0.83628 0.83628,-0.83628c0.24056,0 0.4574,0.10157 0.60997,0.26417c1.11623,-0.04955 2.12857,0.58878 1.13765,1.4754z" fill="#000000" stroke="none" stroke-width="0.5" stroke-linecap="butt"/><path d="M254.51556,216.89838c-1.79091,0.41442 -10.06451,0.93634 -13.55884,-2.11337c-0.3195,-0.27885 -0.5826,-0.60331 -0.79791,-0.95967c3.21261,0.17766 11.22397,-3.76602 14.15318,-4.46787c1.7611,-0.42198 5.91336,0.01395 8.68214,-0.70891c0.18548,-0.04842 1.22555,1.94151 1.60247,1.53843c0.40093,-0.42875 1.09917,-3.59532 1.0842,-4.30339c2.77006,3.15444 2.76525,7.79127 -11.16524,11.01479z" fill="#ac0e49" stroke="#000000" stroke-width="0" stroke-linecap="butt"/><path d="M263.61022,199.62765c-0.89762,1.62499 -3.86953,2.61068 -3.86953,2.61068c0,0 0.88914,0.28259 2.03882,0.8393c-2.6179,0.16708 -5.35164,0.92473 -5.54022,0.30285c-0.44904,-1.48077 3.96725,-4.01273 6.07544,-5.71395c0.29957,-0.18436 0.56161,-0.42379 0.77203,-0.70418c0.43424,0.68131 0.95958,1.87579 0.52345,2.66532z" fill="#ac0e49" stroke="#000000" stroke-width="0" stroke-linecap="butt"/><path d="M242.88638,202.23833l2.40164,3.00204" fill="none" stroke="#000000" stroke-width="1" stroke-linecap="round"/><path d="M245.20225,208.11375c0,0 -1.46726,-0.21889 -1.62111,-0.58326c-0.46565,-1.10286 0.59183,-1.47529 0.59183,-1.47529c0,0 3.3467,-2.24519 5.84223,-2.74497c4.07916,-0.81696 6.42326,-0.04264 6.42326,-0.04264c0,0 1.21563,0.0579 1.55332,0.68722c0.31306,0.58342 -0.18096,1.02823 -0.18096,1.02823c0,0 1.6958,0.03505 2.41724,0.88295c0.94578,1.11157 0.15594,1.39003 0.15594,1.39003c0,0 1.26494,-0.00347 1.66996,0.92131c0.31713,0.72408 -0.51203,1.18013 -0.51203,1.18013c0,0 -5.20712,0.3391 -7.70654,0.76286c-2.47516,0.41965 -7.2179,1.76743 -7.2179,1.76743c0,0 -0.99125,0.44662 -1.27567,-0.67379c-0.23639,-0.93121 0.46081,-1.42764 0.46081,-1.42764c0,0 -1.03151,0.46549 -1.3061,-0.43725c-0.18736,-0.61595 0.70569,-1.23531 0.70569,-1.23531z" fill="#feeffb" stroke="#000000" stroke-width="0" stroke-linecap="round"/><path d="M250.0152,203.31023c4.07916,-0.81696 6.42326,-0.04264 6.42326,-0.04264c0,0 0.90806,0.04325 1.37255,0.46129c-1.71687,1.49587 -2.92822,4.45112 -5.42574,3.93719c-1.53135,-0.31512 -2.76377,-2.09366 -3.98648,-3.85867c0.55045,-0.21665 1.10154,-0.39407 1.6164,-0.49718z" fill="#dd95e8" stroke="#000000" stroke-width="0" stroke-linecap="round"/><path d="M245.93131,209.82921c0,0 3.18295,-0.99515 6.53549,-1.65399c2.90506,-0.5709 7.57412,-0.70476 7.57412,-0.70476" fill="none" stroke="#000000" stroke-width="1" stroke-linecap="round"/><path d="M245.15935,208.02798c0,0 2.227,-1.48295 5.68833,-2.32773c2.06082,-0.50296 6.70582,-0.67431 6.70582,-0.67431" fill="none" stroke="#000000" stroke-width="1" stroke-linecap="round"/><path d="M245.20225,208.11375c0,0 -1.46726,-0.21889 -1.62111,-0.58326c-0.46565,-1.10286 0.59183,-1.47529 0.59183,-1.47529c0,0 3.3467,-2.24519 5.84223,-2.74497c4.07916,-0.81696 6.42326,-0.04264 6.42326,-0.04264c0,0 1.21563,0.0579 1.55332,0.68722c0.31306,0.58342 -0.18096,1.02823 -0.18096,1.02823c0,0 1.6958,0.03505 2.41724,0.88295c0.94578,1.11157 0.15594,1.39003 0.15594,1.39003c0,0 1.26494,-0.00347 1.66996,0.92131c0.31713,0.72408 -0.51203,1.18013 -0.51203,1.18013c0,0 -5.20712,0.3391 -7.70654,0.76286c-2.47516,0.41965 -7.2179,1.76743 -7.2179,1.76743c0,0 -0.99125,0.44662 -1.27567,-0.67379c-0.23639,-0.93121 0.46081,-1.42764 0.46081,-1.42764c0,0 -1.03151,0.46549 -1.3061,-0.43725c-0.18736,-0.61595 0.70569,-1.23531 0.70569,-1.23531z" fill="none" stroke="#000000" stroke-width="1" stroke-linecap="round"/><path d="M262.44968,198.78601c1.15018,0.38339 0.40356,1.84688 -0.40023,2.63312c-0.13,0.2931 -0.42355,0.49754 -0.76483,0.49754c-0.46186,0 -0.83628,-0.37442 -0.83628,-0.83628c0,-0.18665 0.06115,-0.35902 0.16451,-0.49817c0.39289,-0.79476 1.38393,-1.94719 1.83685,-1.79621z" fill="#000000" stroke="none" stroke-width="0.5" stroke-linecap="butt"/><path d="M244.55778,199.14542c1.31642,-1.17593 6.83383,-2.37225 9.54146,-1.8472c1.63401,0.31686 1.35284,1.93808 1.35284,1.93808c0,0 6.50518,-3.29028 7.2311,-2.78214c0.28324,0.19828 1.53295,2.07667 0.92706,3.17351c-0.89762,1.62499 -3.86953,2.61068 -3.86953,2.61068c0,0 3.2768,1.04143 5.38321,3.06446c3.27168,3.14221 4.20444,8.1679 -10.60834,11.59558c-1.79091,0.41442 -10.06451,0.93634 -13.55884,-2.11337c-2.85954,-2.49569 -1.20105,-8.64402 -1.20105,-8.64402l-4.26626,-0.16396c0,0 -0.79623,-1.11685 0.75362,-4.16423c0.36247,-0.7127 6.85777,0.254 6.85777,0.254c0,0 0.52293,-2.08703 1.45696,-2.92138z" fill="none" stroke="#000000" stroke-width="1" stroke-linecap="round"/></g><g><path d="M236.51091,180.97036c0,0 -1.0256,-4.0956 1.03203,-5.33746c5.68956,-3.43387 12.3485,-2.32847 12.3485,-2.32847c0,0 4.35038,-2.34374 6.74085,-1.58789c2.15327,0.68085 -0.5948,4.24215 -0.56921,7.29582c0.01305,1.55583 1.50782,3.2307 2.03827,4.70018c0.51068,1.41471 0.08678,2.64924 -1.34434,2.88658c-3.02232,0.50121 -7.14433,-3.2593 -7.14433,-3.2593l2.23009,9.19911c0,0 -6.68449,3.43094 -17.20515,2.16149c-7.48165,-0.90275 -8.99837,-6.76105 -8.99837,-6.76105c0,0 2.67148,-2.61667 4.48804,-3.78114c1.80727,-1.15851 6.38364,-3.18789 6.38364,-3.18789z" fill="#feecf7" stroke="#000000" stroke-width="0" stroke-linecap="round"/><path d="M236.51091,180.97036c0,0 -1.0256,-4.0956 1.03203,-5.33746c5.68956,-3.43387 12.3485,-2.32847 12.3485,-2.32847c0,0 4.35038,-2.34374 6.74085,-1.58789c1.68439,0.5326 0.3696,2.82775 -0.27061,5.26374c-0.70722,0.11136 -9.11847,2.47833 -9.11847,2.47833l2.36947,3.88121l2.23009,9.19911c0,0 -0.97231,0.49906 -2.75892,1.04608c-0.18269,-0.61384 -2.54552,-14.15458 -2.54552,-14.15458c0,0 -13.8315,3.3255 -13.60022,3.21161c1.78302,-0.87801 3.5728,-1.67169 3.5728,-1.67169z" fill="#dc94e7" stroke="#000000" stroke-width="0" stroke-linecap="butt"/><path d="M249.89145,173.30443c0,0 4.35038,-2.34374 6.74085,-1.58789c2.15327,0.68085 -0.5948,4.24215 -0.56921,7.29582c0.01305,1.55583 1.50782,3.2307 2.03827,4.70018c0.51068,1.41471 0.08678,2.64924 -1.34434,2.88658c-3.02232,0.50121 -7.14433,-3.2593 -7.14433,-3.2593l2.23009,9.19911c0,0 -6.68449,3.43094 -17.20515,2.16149c-7.48165,-0.90275 -8.99837,-6.76105 -8.99837,-6.76105c0,0 2.67148,-2.61667 4.48804,-3.78114c1.80727,-1.15851 6.38364,-3.18789 6.38364,-3.18789c0,0 -1.02561,-4.0956 1.03202,-5.33746c2.05763,-1.24186 12.34849,-2.32845 12.34849,-2.32845z" fill="none" stroke="#000000" stroke-width="1" stroke-linecap="round"/><g fill="none" stroke="#ff0000" stroke-width="1"><path d="M240.99671,189.17228c-2.61753,1.57784 -5.39303,1.83454 -6.86544,0.66896c-1.51155,-1.19657 -0.03158,-4.01856 2.5728,-5.75385c1.96727,-1.31078 4.59452,-2.07518 6.95426,-0.63327c1.65703,1.01252 0.05816,4.0787 -2.66162,5.71816z" stroke-linecap="butt"/><path d="M237.1825,183.92588l1.62968,5.66099" stroke-linecap="round"/></g><path d="M249.29788,173.87938c-0.15822,0.2769 -0.33031,0.54033 -0.51511,0.79043c-1.85699,2.5132 -4.99844,3.67936 -8.27648,3.61643c-1.07897,-0.02071 -3.58375,-0.18549 -3.34389,-1.83804c0.44548,-3.06916 11.25241,-4.11418 11.71015,-3.31314z" fill="#f89688" stroke="#000000" stroke-width="1" stroke-linecap="butt"/></g><g stroke="#000000" stroke-linecap="round"><path d="M249.74819,183.92588c0,0 1.77797,1.25752 2.70122,1.82735c1.91797,1.18373 3.73173,0.96026 3.73173,0.96026c0,0 -0.06714,1.51828 0.5155,3.17082c0.49653,1.40832 1.62163,2.66857 1.54419,3.2999c-0.16328,1.33106 -2.47589,2.06611 -4.53298,2.16198c-3.40422,0.15866 -4.60295,-1.12759 -4.60295,-1.12759c0,0 -0.12303,-3.93402 -0.0028,-5.75262c0.10692,-1.6172 0.6461,-4.54009 0.6461,-4.54009z" fill="#fddfbd" stroke-width="0"/><path d="M249.74819,183.92588c0,0 1.77797,1.25752 2.70122,1.82735c1.91797,1.18373 3.73173,0.96026 3.73173,0.96026c0,0 -0.04382,0.99079 0.24648,2.24277c-0.82894,-0.25009 -1.37266,0.05301 -3.1407,-0.41531c-2.50102,-0.66247 -3.47666,-2.02588 -3.91129,-2.37123c0.1784,-1.1913 0.37255,-2.24383 0.37255,-2.24383z" fill="#fa9789" stroke-width="0"/><path d="M252.4494,185.75322c1.91797,1.18373 3.73173,0.96026 3.73173,0.96026c0,0 -0.06714,1.51828 0.5155,3.17082c0.49653,1.40832 1.62163,2.66857 1.54419,3.2999c-0.16328,1.33106 -2.47589,2.06611 -4.53298,2.16198c-3.40422,0.15866 -4.60295,-1.12759 -4.60295,-1.12759c0,0 -0.12303,-3.93402 -0.0028,-5.75262c0.10692,-1.6172 0.6461,-4.54009 0.6461,-4.54009c0,0 1.77796,1.25752 2.70121,1.82735z" fill="none" stroke-width="1"/></g><g><path d="M247.68964,193.87551l3.4738,-2.61607l4.54595,2.70184l2.40164,-1.37236l2.61606,3.774c0,0 -5.35589,8.2865 -7.4958,8.63451c-1.97887,0.32182 -4.89836,-6.61886 -4.89836,-6.61886z" fill="#0066cd" stroke="#000000" stroke-width="0" stroke-linecap="round"/><path d="M253.65747,201.33418c1.97357,-1.65742 2.70693,-4.89361 5.38818,-5.8804c0.3998,-0.14713 1.26327,-0.17111 1.42679,0.36231c0.30378,0.99095 -5.77846,9.20631 -7.37912,9.14551c-1.39841,-0.05311 -3.39606,-3.06459 -4.21988,-5.17789c-0.48603,-1.24678 -0.20003,-2.06909 -0.12194,-2.08861c0.13625,-0.09627 1.56123,0.64404 1.64258,1.02069c1.36218,0.92807 3.09633,2.75869 3.2634,2.61838z" fill="#061484" stroke="none" stroke-width="0.5" stroke-linecap="butt"/><path d="M247.68964,193.87549l3.4738,-2.61607l4.54595,2.70184l2.40164,-1.37236l2.61606,3.774c0,0 -5.35589,8.28651 -7.4958,8.63451c-1.97886,0.32182 -4.89836,-6.61886 -4.89836,-6.61886" fill="none" stroke="#000000" stroke-width="1" stroke-linecap="round"/></g></g><g stroke="#000000"><g stroke-linecap="butt"><path d="M263.29622,170.63912l0.71682,-2.23009c0,0 9.11466,-0.32626 11.08787,0.82771c1.38522,0.8101 1.12502,5.06475 -1.51556,5.43741c-3.51649,0.49627 -10.28912,-4.03503 -10.28912,-4.03503z" fill="#0066cd" stroke-width="0"/><path d="M263.29623,170.63912l0.25441,-0.79149c0,0 2.03711,0.3136 4.04182,0.81029c1.54944,0.3839 2.88714,0.90925 4.4546,1.28297c1.86424,0.44448 3.66871,0.72889 3.64078,0.80966c-0.3314,0.95841 -1.01511,1.77014 -2.10248,1.92361c-3.51649,0.49628 -10.28913,-4.03504 -10.28913,-4.03504z" fill="#061483" stroke-width="0"/><path d="M263.29623,170.63912l0.71682,-2.23009c0,0 9.11466,-0.32625 11.08787,0.82772c1.38523,0.8101 1.12502,5.06475 -1.51556,5.43741c-3.51649,0.49628 -10.28913,-4.03504 -10.28913,-4.03504z" fill="none" stroke-width="1"/></g><g stroke-linecap="round"><path d="M223.67798,172.77679c0,0 -7.90615,-24.89839 14.88495,-24.20577c23.36864,0.71017 18.93806,21.23233 18.93806,21.23233c0,0 6.18614,-4.86555 7.08845,-4.30376c0.76161,0.47419 -0.5745,5.43118 -1.40987,7.32294c-0.61728,1.39788 -1.48476,4.42484 -2.86716,4.5892c-0.87011,0.10344 -4.42204,-2.77654 -4.42204,-2.77654c0,0 -7.50702,4.08666 -14.34419,5.35852c-6.7516,1.25594 -16.38147,0.09279 -16.38147,0.09279c0,0 -7.15631,-0.90435 -7.30256,-3.37178c-0.12462,-2.10245 5.81583,-3.93795 5.81583,-3.93795z" fill="#fde0be" stroke-width="0"/><path d="M251.74124,176.63711c-0.03425,0.0151 -1.25676,-2.11527 -1.25676,-2.11527l-3.23918,2.51424l-4.74537,-7.3187l-6.92217,4.20582l-0.85552,-6.54195c0,0 -11.58038,3.3031 -11.58702,3.27263c-1.30828,-6.00626 -3.26387,-22.65091 15.4277,-22.08287c23.36864,0.71017 18.93806,21.23233 18.93806,21.23233c0,0 5.16315,4.30737 5.09935,4.468c-0.56079,1.41218 -1.29027,3.02178 -2.28794,3.14039c-0.87011,0.10344 -4.42204,-2.77654 -4.42204,-2.77654c0,0 -1.66869,0.90839 -4.14912,2.00192z" fill="#fc988a" stroke-width="0"/><path d="M257.87266,171.29005l3.09735,-1.36283l-1.23894,4.95575z" fill="#f79587" stroke-width="0.5"/><path d="M238.5629,148.57102c23.36864,0.71017 18.93806,21.23233 18.93806,21.23233c0,0 6.18614,-4.86555 7.08845,-4.30376c0.76161,0.47419 -0.5745,5.43118 -1.40987,7.32294c-0.61728,1.39788 -1.48476,4.42484 -2.86716,4.5892c-0.87011,0.10344 -4.42204,-2.77654 -4.42204,-2.77654c0,0 -7.50702,4.08666 -14.34419,5.35852c-6.7516,1.25594 -16.38147,0.09279 -16.38147,0.09279c0,0 -7.15631,-0.90435 -7.30256,-3.37178c-0.12462,-2.10245 5.81583,-3.93795 5.81583,-3.93795c0,0 -7.90614,-24.89838 14.88496,-24.20576z" fill="none" stroke-width="1"/></g><g stroke-linecap="round"><path d="M263.76325,162.6738c0,0 -1.91994,3.39406 -3.05006,4.77532c-0.97589,1.19275 -3.3361,3.02999 -3.3361,3.02999c0,0 -10.7322,-5.21297 -18.19103,-6.18262c-7.61868,-0.99044 -17.49038,-0.30491 -17.49038,-0.30491c0,0 -3.40308,-17.91525 0.23844,-20.54599c2.65158,-1.91558 10.23966,-3.66653 17.59473,-2.99068c3.35224,0.30803 12.93229,1.28989 16.00584,4.39782c4.11937,4.16546 8.22857,17.82107 8.22857,17.82107z" fill="#ff292e" stroke-width="0"/><path d="M263.76325,162.6738c0,0 -1.91994,3.39407 -3.05006,4.77532c-0.97589,1.19275 -3.33609,3.02999 -3.33609,3.02999c0,0 -5.19732,-2.5245 -10.87203,-4.3867c-0.14854,-0.04874 2.57787,-14.06906 5.59963,-19.57261c1.00063,-1.82245 2.6654,-2.44024 3.42999,-1.66709c4.11937,4.16547 8.22857,17.82108 8.22857,17.82108z" fill="#ac0e49" stroke-width="0.5"/><path d="M260.71319,167.44913c-0.97589,1.19275 -3.33609,3.02999 -3.33609,3.02999c0,0 -10.7322,-5.21297 -18.19104,-6.18261c-7.61868,-0.99044 -17.49037,-0.30491 -17.49037,-0.30491c0,0 -3.40308,-17.91526 0.23844,-20.54599c2.65159,-1.91558 10.23966,-3.66653 17.59473,-2.99068c3.35224,0.30803 12.93229,1.28988 16.00582,4.39781c4.11937,4.16547 8.22857,17.82108 8.22857,17.82108c0,0 -1.91994,3.39406 -3.05006,4.77531z" fill="none" stroke-width="1"/></g><g stroke-linecap="round"><path d="M222.43903,169.67943c0,0 -3.85602,0.92482 -5.61813,1.58049c-1.7891,0.66571 -5.03674,2.38412 -5.03674,2.38412c0,0 1.62395,-3.85485 2.70279,-5.58945c1.02456,-1.64732 3.6158,-4.56984 3.6158,-4.56984l-9.53983,0.61947c0,0 8.85959,-12.65645 12.45666,-14.18992c2.14533,-0.91457 10.09201,4.15452 10.09201,4.15452c0,0 1.27513,-2.68016 2.15748,-3.92836c0.80348,-1.13663 2.92217,-3.25749 2.92217,-3.25749c0,0 1.50384,6.13468 2.53453,9.10551c1.07374,3.09489 3.78406,9.10689 3.78406,9.10689l14.61947,4.95575l-1.36283,6.69027l-5.69911,-6.19469l-2.60177,3.46903l-4.95575,-8.92035l-4.95575,4.0885l-1.11504,-5.07965c0,0 -11.01133,2.57707 -13.47804,3.78306c-0.67241,0.32874 -0.52195,1.79217 -0.52195,1.79217z" fill="#4fa6ec" stroke-width="0"/><path d="M225.58142,160.45498l-13.79726,13.18906c0,0 1.62395,-3.85485 2.70278,-5.58945c1.02455,-1.64732 3.6158,-4.56984 3.6158,-4.56984l-9.53982,0.61946c0,0 8.85958,-12.65645 12.45666,-14.18992c2.14532,-0.91458 10.09202,4.15452 10.09202,4.15452c0,0 1.27512,-2.68016 2.15747,-3.92836c0.80348,-1.13663 2.92217,-3.25748 2.92217,-3.25748l-2.53386,11.84243c0,0 -9.00989,-4.43466 -11.21034,-4.12033c-3.45351,0.49332 -8.3089,7.4718 -8.3089,7.4718z" fill="#66ffff" stroke-width="0"/><path d="M247.49937,168.42923l-0.7372,4.32035l-3.00278,-5.405z" fill="#66ffff" stroke-width="0"/><path d="M211.78417,173.64404c0,0 1.62395,-3.85485 2.70278,-5.58945c1.02455,-1.64732 3.6158,-4.56984 3.6158,-4.56984l-9.53982,0.61946c0,0 8.85958,-12.65645 12.45666,-14.18992c2.14532,-0.91458 10.09202,4.15452 10.09202,4.15452c0,0 1.27512,-2.68016 2.15747,-3.92836c0.80348,-1.13663 2.92217,-3.25748 2.92217,-3.25748c0,0 1.50383,6.13467 2.53452,9.1055c1.07373,3.09489 3.78406,9.10689 3.78406,9.10689l14.61947,4.95575l-1.36283,6.69027l-5.69911,-6.19468l-2.60178,3.46903l-4.95576,-8.92035l-4.95576,4.0885l-1.11504,-5.07965c0,0 -11.01133,2.57707 -13.47804,3.78306c-0.67241,0.32874 -0.52195,1.79217 -0.52195,1.79217c0,0 -3.856,0.92482 -5.61812,1.58049c-1.76212,0.65567 -5.03674,2.38409 -5.03674,2.38409z" fill="none" stroke-width="1"/></g></g><path d="M176.16667,243.83333v-127.66667h127.66667v127.66667z" fill="none" stroke="none" stroke-width="NaN" stroke-linecap="butt"/><g stroke="none" stroke-width="0.5" stroke-linecap="butt"><path d="M225.40936,175.26903c-0.05223,-0.14877 -0.05627,-0.34983 0.14481,-0.55091c0.05136,-0.05136 0.10273,-0.08935 0.15323,-0.11657c-0.09768,-0.14011 -0.19493,-0.38707 0.0357,-0.66383c0.35691,-0.4283 0.78523,-0.07139 0.78523,-0.07139c0.67642,0.58345 1.95059,2.59501 0.92934,3.49863c-1.63762,1.44901 -2.28411,-0.86779 -2.0483,-2.09594z" fill="url(#color-1)"/><path d="M253.4449,161.19886c-0.13511,-0.26287 -0.28034,-0.54635 -0.42723,-0.87601c0,0 -0.22643,-0.50946 0.28304,-0.7359c0.50947,-0.22643 0.7359,0.28303 0.7359,0.28303c0.78304,1.76665 1.65648,3.05358 1.1469,5.11733c-0.17264,0.69918 -0.62347,2.10204 -1.72665,1.71741c-1.31488,-0.45842 -1.15456,-4.14161 -0.77676,-5.04123c0.30331,-0.24881 0.55547,-0.3972 0.76479,-0.46464z" fill="url(#color-2)"/><path d="M245.3342,174.58928l-0.44352,0.17191c-0.18805,0.04671 -0.3761,0.0934 -0.56416,0.14011c-1.14808,0.42395 -2.32928,0.85544 -3.5123,1.31083c2.36626,-0.3743 4.8332,-0.55426 7.19389,-0.60275c-0.6645,-0.51026 -1.50765,-0.94862 -2.37928,-1.27263c-0.10353,0.17611 -0.29464,0.25255 -0.29464,0.25255zM234.03031,179.31322c0,0 -0.00966,0.00551 -0.02701,0.01363c-0.09979,0.05391 -0.24239,0.09955 -0.39934,0.05148c-0.10147,-0.02431 -0.2059,-0.08485 -0.29447,-0.20987c-0.09731,-0.11834 -0.12824,-0.23503 -0.125,-0.33933c-0.00508,-0.16406 0.07645,-0.28963 0.15472,-0.37172c0.0124,-0.01461 0.02026,-0.02247 0.02026,-0.02247l0.01954,-0.01612c0.01725,-0.0155 0.03348,-0.02861 0.0476,-0.03929l0.25615,-0.21147c0.16547,-0.07087 0.335,-0.14325 0.50776,-0.21596c3.07815,-1.6453 6.5176,-2.86283 9.74086,-4.09114c-0.44576,-0.08287 -0.87221,-0.12621 -1.25731,-0.12381c0,0 -0.55752,0 -0.55752,-0.55752c0,-0.55752 0.55752,-0.55752 0.55752,-0.55752c2.38357,0.0121 5.4658,1.31044 7.01989,3.07196c0.09468,0.06052 0.18125,0.15825 0.21402,0.316c0.03308,0.10224 0.04219,0.22745 -0.02054,0.35969c-0.04915,0.13788 -0.14413,0.21998 -0.23981,0.26887c-0.13486,0.08848 -0.26531,0.09627 -0.37513,0.07204c-3.62832,0.00459 -7.67343,0.28299 -11.17923,1.17984c-1.12338,0.13478 -2.35346,0.61579 -3.44676,1.07847c-0.20742,0.1128 -0.41288,0.22752 -0.61617,0.34428z" fill="#000000"/><path d="M245.67302,174.30272c0.87162,0.32401 1.72612,0.80156 2.39062,1.31182c-2.36068,0.04849 -4.93709,0.23736 -7.30335,0.61166c1.18302,-0.4554 2.40583,-0.95531 3.55391,-1.37927c0.18805,-0.04671 0.42649,-0.07977 0.61455,-0.12648l0.45022,-0.1644c0,0 0.19051,-0.07723 0.29404,-0.25333z" data-paper-data="{&quot;noHover&quot;:false,&quot;origItem&quot;:[&quot;Path&quot;,{&quot;applyMatrix&quot;:true,&quot;segments&quot;:[[747.0926,438.02302],[[746.29708,438.33136],[0,0],[-0.3373,0.08377]],[[745.28519,438.58266],[0.3373,-0.08377],[-2.05926,0.76043]],[[738.98535,440.93383],[2.12192,-0.81682],[4.24424,-0.67136]],[[751.88867,439.8527],[-4.23424,0.08698],[-1.19188,-0.91521]],[[747.62108,437.57004],[1.56338,0.58117],[-0.1857,0.31587]]],&quot;closed&quot;:true}]}" fill="#e8e8e8"/><path d="M241.84355,170.67524c0.00591,0.00764 0.01225,0.01617 0.01884,0.02551c0.3299,-0.10722 0.67554,-0.18919 1.04744,-0.23101c0,0 0.55412,-0.06157 0.61568,0.49254c0.06156,0.55411 -0.49255,0.61567 -0.49255,0.61567c-1.68163,0.18479 -2.89927,1.27611 -4.56805,1.70366l-0.61273,0.07758c-0.18771,0.03146 -0.32184,-0.01607 -0.41674,-0.09012c-0.1004,-0.0667 -0.18801,-0.17917 -0.2174,-0.36769c-0.19208,-0.98148 -0.29464,-1.88953 -0.51322,-2.85137c-0.11453,0.11072 -0.2289,0.22186 -0.3431,0.33342c-0.30685,0.62214 -0.7055,1.08921 -1.12131,1.64392l-0.12612,0.13405c0,0 -0.32761,0.32761 -0.68419,0.08687c-0.15143,0.01385 -0.27748,-0.03342 -0.27748,-0.03342c-0.62412,-0.23884 -1.22069,-0.56896 -1.79141,-0.96649c0.16458,0.62582 0.31029,1.24702 0.31461,1.93119c0,0 0,0.55752 -0.55752,0.55752c-0.01807,0 -0.03555,-0.00059 -0.05247,-0.00172c-0.09136,0.00151 -0.15708,-0.01492 -0.15708,-0.01492l-0.5947,-0.14868c-0.61959,-0.15634 -1.23742,-0.2177 -1.8584,-0.37168c0,0 -0.02272,-0.00569 -0.0577,-0.01938c-0.03547,-0.01237 -0.05641,-0.02284 -0.05641,-0.02284l-0.00413,-0.0041c-0.0906,-0.04532 -0.21001,-0.12848 -0.27047,-0.26897l-0.16562,-0.16471c-0.57874,-2.31498 -1.92561,-4.60345 -1.59194,-7.0091c-0.42741,-0.59896 -0.83343,-1.18191 -1.21997,-1.72241c-1.4988,-2.09831 -4.07483,-5.0768 -4.11801,-7.75767l-0.05769,-0.16213c0,0 -0.13521,-0.54087 0.40566,-0.6761c0.54087,-0.13522 0.6761,0.40565 0.6761,0.40565l0.09098,0.43257c-0.05475,2.32055 2.62013,5.30331 3.91032,7.10957c0.30936,0.43369 0.63646,0.90664 0.98127,1.39925c0.03545,0.00312 0.07296,0.0094 0.11266,0.01933c0.54087,0.13522 0.40565,0.6761 0.40565,0.6761c-0.00241,0.00957 -0.00479,0.01913 -0.00713,0.02869c0.87813,1.23015 1.86055,2.52014 2.9471,3.58936c0.50177,-0.02618 0.56619,0.48908 0.56619,0.48908l0.00533,0.04303c0.78106,0.68521 1.61252,1.24005 2.49432,1.56999c0.35709,-0.46851 0.67912,-0.87891 0.95502,-1.42383c3.07894,-3.13824 6.34747,-5.80798 9.75909,-8.65099c3.02023,-2.51021 6.21423,-4.7648 9.32489,-7.01298c0,0 0.45368,-0.32405 0.77773,0.12961c0.32405,0.45368 -0.12961,0.77773 -0.12961,0.77773c-3.1102,2.19995 -6.26824,4.46248 -9.25917,6.96224c-1.27912,1.06593 -2.53438,2.11691 -3.76855,3.17623c0.04006,0.13544 0.02503,0.25578 0.02503,0.25578c-0.25082,1.94108 -0.79129,3.35088 -0.34301,5.30613z" fill="#000000"/><path d="M227.89305,176.72987c0.46388,0.30926 0.15462,0.77315 0.15462,0.77315l-0.51191,0.63542c-3.24626,1.50735 -2.59191,-2.87557 -1.96074,-4.55991c0,0 0.19576,-0.52202 0.71778,-0.32626c0.52202,0.19576 0.32627,0.71779 0.32627,0.71779c-0.24854,0.66233 -1.30639,4.13821 0.41802,3.17106l0.08279,-0.25661c0,0 0.30926,-0.46389 0.77315,-0.15463z" fill="#000000"/><path d="M255.08821,162.51235c0.55752,0 0.55752,0.55752 0.55752,0.55752l-0.00108,0.62933c-0.04785,0.38271 -0.07401,0.76905 -0.07326,1.15474c0,2.21085 -2.57397,3.838 -3.18752,0.99151c-0.44588,-2.06857 0.57046,-4.38383 0.2927,-6.57191c0,0 -0.06916,-0.55322 0.48406,-0.62236c0.55322,-0.06916 0.62236,0.48406 0.62236,0.48406c0.27394,2.22221 -0.59604,4.3891 -0.30199,6.51128c0.21174,1.52806 0.97532,-0.01314 0.97532,-0.79256c0.0007,-0.40878 0.02471,-0.8184 0.07541,-1.22403l-0.00108,-0.56004c0,0 0,-0.55752 0.55752,-0.55752z" fill="#000000"/></g></g></g></svg>