<svg version="1.1" xmlns="http://www.w3.org/2000/svg" xmlns:xlink="http://www.w3.org/1999/xlink" width="189.26654" height="221.55319" viewBox="0,0,189.26654,221.55319"><g transform="translate(-145.36673,-69.22341)"><g data-paper-data="{&quot;isPaintingLayer&quot;:true}" fill-rule="nonzero" stroke-linejoin="miter" stroke-miterlimit="10" stroke-dasharray="" stroke-dashoffset="0" style="mix-blend-mode: normal"><path d="M145.36673,290.77659v-221.55318h189.26654v221.55319z" fill="none" stroke="none" stroke-width="NaN" stroke-linecap="butt"/><g data-paper-data="{&quot;origRot&quot;:0}" stroke="#000000" stroke-linecap="round"><path d="M242.00531,216.81373c0,0 -0.71356,-4.82698 0.72994,-5.02808c4.25958,-0.59339 8.1631,-2.8766 12.34321,-1.81193c1.7358,0.4421 2.94803,4.60811 2.94803,4.60811l8.3811,32.47326c0,0 0.9059,3.34092 1.36372,5.28028c0.48949,2.07352 -0.07317,5.38818 -2.02148,5.78125c-7.15356,1.44329 -11.36356,3.76526 -16.03199,3.43485c-1.70078,-0.12038 -3.49846,-0.36868 -4.38633,-1.9394c-1.15983,-2.05177 -1.11398,-6.61478 -1.11398,-6.61478z" data-paper-data="{&quot;origPos&quot;:null}" fill="#ff0000" stroke-width="3"/><path d="M268.27113,255.70604c0,0 -5.15351,3.56864 -9.89432,4.36407c-3.63732,0.61027 -11.66382,0.90191 -11.66382,0.90191c0,0 -1.63837,-2.41196 -1.95312,-4.00801c-0.33157,-1.68135 0.29697,-4.38994 0.29697,-4.38994l21.60825,-4.44711z" data-paper-data="{&quot;origPos&quot;:null}" fill="#976e57" stroke-width="2"/><path d="M242.12763,217.12382c0,0 -0.71356,-4.82698 0.72995,-5.02807c4.25957,-0.59339 8.1631,-2.8766 12.34322,-1.81191c1.7358,0.4421 2.94802,4.6081 2.94802,4.6081l8.3811,32.47326c0,0 0.90592,3.34092 1.36374,5.28028c0.48949,2.07352 -0.07318,5.38817 -2.02148,5.78125c-7.15356,1.44329 -11.36356,3.76527 -16.03199,3.43486c-1.70078,-0.12038 -3.49846,-0.3687 -4.38632,-1.9394c-1.15983,-2.05177 -1.11399,-6.61478 -1.11399,-6.61478z" data-paper-data="{&quot;origPos&quot;:null}" fill="#474747" stroke-width="3"/></g><g data-paper-data="{&quot;index&quot;:null,&quot;origRot&quot;:0}" stroke="#000000" stroke-linecap="round"><path d="M239.38545,252.63939c0,0 0.23599,4.55617 -0.83712,6.66221c-0.82151,1.61228 -2.60701,1.94765 -4.30105,2.15056c-4.64992,0.55692 -8.95245,-1.5582 -16.15893,-2.65244c-1.96272,-0.29803 -2.66299,-3.58197 -2.26043,-5.67718c0.37651,-1.95963 1.14223,-5.34118 1.14223,-5.34118l7.01893,-32.84757c0,0 1.03732,-4.22067 2.75293,-4.74665c4.1315,-1.26669 8.12624,0.82453 12.40623,1.21037c1.45042,0.13076 0.93881,4.98751 0.93881,4.98751z" data-paper-data="{&quot;origPos&quot;:null}" fill="#ff0000" stroke-width="3"/><path d="M216.75763,248.86473l21.77171,3.39271c0,0 0.74082,2.6753 0.47967,4.37105c-0.24789,1.60974 -1.78406,4.09886 -1.78406,4.09886c0,0 -8.03052,0.09863 -11.68958,-0.33428c-4.76916,-0.56428 -10.06621,-3.8789 -10.06621,-3.8789z" data-paper-data="{&quot;origPos&quot;:null}" fill="#976e57" stroke-width="2.5"/><path d="M239.27619,252.95512c0,0 0.23599,4.55617 -0.83712,6.66221c-0.82151,1.61228 -2.60701,1.94766 -4.30105,2.15056c-4.64992,0.55692 -8.95244,-1.55818 -16.15893,-2.65243c-1.96272,-0.29803 -2.66299,-3.58198 -2.26043,-5.67718c0.37651,-1.95963 1.14223,-5.34118 1.14223,-5.34118l7.01893,-32.84757c0,0 1.03731,-4.22067 2.75293,-4.74665c4.1315,-1.26669 8.12626,0.82453 12.40623,1.21037c1.45042,0.13076 0.93881,4.98751 0.93881,4.98751c0,0 -0.1774,9.1672 -0.29094,15.0347c-0.16027,8.28126 -0.41066,21.21968 -0.41066,21.21968z" data-paper-data="{&quot;origPos&quot;:null}" fill="#474747" stroke-width="1.5"/></g><g><g><g data-paper-data="{&quot;origRot&quot;:0}" stroke="#000000" stroke-width="3" stroke-linecap="round"><path d="M289.57695,176.7737c1.43408,1.67505 -4.87442,6.17643 -4.87442,6.17643c0,0 -16.37667,12.42239 -24.08819,18.32576c-3.58059,1.95163 -27.05711,-23.98883 -27.06206,-29.38909c-0.0022,-2.40726 4.80598,-10.09421 6.54425,-10.08091c3.30864,0.0253 15.83138,7.90285 15.83138,7.90285l-2.4983,2.80592l7.18972,-6.646c0,0 7.73436,-8.54453 11.89248,-11.11034c2.30612,-1.42301 17.06512,22.01536 17.06512,22.01536z" data-paper-data="{&quot;origPos&quot;:null}" fill="#582700"/><path d="M282.89552,182.52732l-16.7531,-21.34299" fill="none"/><path d="M280.41916,185.14216l-16.94138,-21.17073" data-paper-data="{&quot;origPos&quot;:null}" fill="none"/></g><path d="M283.1258,183.07701l-1.8387,1.7037l-17.26318,-21.71532l1.8387,-1.7037z" fill="#ffffff" stroke="none" stroke-width="0" stroke-linecap="butt"/><path d="M260.48209,201.56048l-8.1332,-5.4425l-14.18482,-16.27239l-3.68586,-6.82835l0.24047,-4.76857l4.66352,-4.83805l0.9327,-0.96762l14.35484,7.0578l-1.71604,2.10305l1.19503,1.3426l8.687,-8.04374l17.60837,20.79055l-19.17872,14.73177z" fill="#ffcb66" stroke="#000000" stroke-width="0.5" stroke-linecap="round"/></g><g fill="none" stroke="none" stroke-width="1" stroke-linecap="butt" font-family="sans-serif" font-weight="normal" font-size="12" text-anchor="start"/></g><g><g><path d="M223.17682,167.97172c0,0 1.79965,-14.6761 3.83327,-15.23894c6.10082,-1.68854 20.05823,-0.77544 29.38564,-0.79845c1.44193,-0.00355 2.71626,13.77301 2.71626,13.77301l1.74542,31.18135c0,0 0.26169,15.22956 -1.3113,15.23344c-14.00251,0.03455 -30.41255,0.94317 -36.65558,0.10233c-2.081,-0.28027 -1.33403,-16.32668 -1.33403,-16.32668z" data-paper-data="{&quot;origPos&quot;:null}" fill="#ffcb66" stroke="#000000" stroke-width="3.5" stroke-linecap="round"/><path d="M240.9675,176.27586c-1.21821,0.003 -1.22356,-2.52975 -1.22356,-2.52975c-0.01112,-5.25314 -0.02581,-12.19476 -0.03693,-17.4479c0,0 -0.00536,-2.53276 1.21284,-2.53577c1.21821,-0.003 1.22356,2.52975 1.22356,2.52975c0.01112,5.25314 0.02224,10.50625 0.03336,15.75939l0.00357,1.68851c0,0 0.00536,2.53276 -1.21284,2.53577z" fill="#ffffff" stroke="none" stroke-width="0.5" stroke-linecap="butt"/><path d="M252.29862,182.6965c-1.21821,0.003 -1.22494,-3.17885 -1.22494,-3.17885c-0.01397,-6.59941 -0.03242,-15.32006 -0.04639,-21.91947c0,0 -0.00673,-3.18186 1.21147,-3.18486c1.21821,-0.003 1.22494,3.17885 1.22494,3.17885c0.01397,6.59941 0.02794,13.19883 0.0419,19.79824l0.00449,2.12123c0,0 0.00673,3.18186 -1.21147,3.18486z" fill="#ffffff" stroke="none" stroke-width="0.5" stroke-linecap="butt"/></g><g stroke="#000000" stroke-width="0.5" stroke-linecap="butt"><path d="M254.94082,192.84605c0.01456,6.88069 -4.32613,12.46933 -9.69521,12.48258c-5.36909,0.01325 -9.73339,-5.55392 -9.74795,-12.43461c-0.01456,-6.88069 4.32613,-12.46933 9.69521,-12.48258c5.36909,-0.01325 9.73339,5.55392 9.74795,12.43461z" fill="#ffa924"/><path d="M248.08131,181.36977c0.00042,0.01141 0.00065,0.02305 0.00068,0.03491c0.00135,0.63609 -0.58784,0.63754 -0.58784,0.63754l-0.11783,0.0003c-0.43049,0.00106 -2.39286,0.03431 -2.68729,-0.10274c-0.24579,-0.1144 -0.1933,-0.55249 -0.37044,-0.76913c-0.17018,-0.20812 -0.41195,-0.33646 -0.63944,-0.46589c-0.36175,-0.20581 -0.85522,-0.20129 -1.12175,-0.53608c-0.2462,-0.30928 -0.2764,-0.78516 -0.25414,-1.19227c0.10456,-1.91191 1.19107,-1.93415 2.59499,-1.76525c0.42354,0.09962 0.86048,0.14741 1.27063,0.29886c0.18044,0.06662 0.28853,0.29873 0.47426,0.34543c0.13201,0.0332 0.25587,-0.10021 0.38888,-0.12837c0.00568,-0.0012 1.64904,-0.25874 1.66533,-0.26129c1.11101,-0.17308 2.29945,-0.22572 3.42123,-0.14067c0.7148,0.0542 2.33006,0.24135 2.74387,1.01346c0.58933,1.09959 -1.1152,1.84883 -1.54183,2.03835c-1.26255,0.56086 -2.34197,0.21683 -3.62868,0.38186c-0.43831,0.05621 -1.14223,0.38988 -1.61063,0.61095z" fill="#1cc735"/></g></g><path d="M256.27098,151.76688c-11.36176,1.00203 -22.38231,1.93708 -26.95658,1.26529c-4.18058,-0.61396 -5.60744,-3.32192 -5.60744,-3.32192c0,0 -1.81624,-2.34459 -2.00024,-3.89486c-0.55198,-4.6508 -1.55018,-17.99703 -1.42325,-29.58021c0.00423,-0.38659 0.01958,-0.60369 0.04514,-0.98931c0.07667,-1.15687 0.55297,-5.66114 0.55297,-5.66114c0,0 2.88936,-1.91649 4.48764,-2.52284c4.79482,-1.81903 17.3247,-1.26217 30.44244,-1.84561c1.18896,-0.05288 3.33533,1.49833 3.33533,1.49833c0,0 1.65981,3.07521 1.74702,5.09264c0.56389,13.04299 1.14331,27.4764 1.07623,30.79155c-0.02235,1.10505 -1.47065,5.49297 -1.47065,5.49297z" fill="#582600" stroke="#000000" stroke-width="2.5" stroke-linecap="round"/><g><g data-paper-data="{&quot;index&quot;:null}"><path d="M269.65289,156.11356c1.77116,-1.23159 3.13237,-6.74625 4.19181,-4.97042c0.53964,0.90455 10.09986,17.63366 10.061,18.81493c-0.03746,1.13777 -0.4601,2.13268 -1.32908,2.73693c-0.59124,0.41109 -1.68475,0.73503 -2.53127,0.64866c-1.68951,-0.17236 -15.11297,-14.06549 -15.81877,-15.24855c-1.05944,-1.77585 3.65518,-0.74995 5.42634,-1.98154z" fill="#e99b00" stroke="#000000" stroke-width="1.5" stroke-linecap="butt"/><g stroke-linecap="butt"><path d="M266.18194,150.24805c3.20892,-2.23135 6.91658,-2.18585 8.28124,0.10163c1.3647,2.28745 -0.13034,5.95068 -3.33925,8.18203c-3.20893,2.23135 -6.91659,2.18585 -8.28126,-0.10163c-1.3647,-2.28745 0.13036,-5.95067 3.33927,-8.18201z" fill="#ffb727" stroke="#000000" stroke-width="1.5"/><path d="M267.98052,159.0928c0,0 -1.3859,0.5347 -2.85579,0.16429c-0.69865,-0.18787 -2.08357,-1.28546 -2.08357,-1.28546l3.36527,-0.55659z" fill="#ffd683" stroke="none" stroke-width="0"/><path d="M270.81339,157.81341l-1.42706,0.93442c0,0 -0.54747,-0.44642 -0.76438,-0.7631c-0.18524,-0.27045 -0.58298,-1.12965 -0.58298,-1.12965l1.31085,-0.5718z" fill="#ffd683" stroke="none" stroke-width="0"/></g><g><path d="M269.30473,155.28206c-4.42679,3.07818 -10.89325,2.90168 -13.74446,-1.87744c-2.85123,-4.77917 -1.73545,-10.34349 2.69131,-13.42165c4.42679,-3.07818 10.55364,-1.85701 13.40485,2.92212c2.85123,4.77917 2.07508,9.29879 -2.35167,12.37695z" fill="#e99b00" stroke="#000000" stroke-width="1.5" stroke-linecap="butt"/><path d="M257.13217,141.63511c0,0 1.75238,0.38044 4.15935,1.13898c2.40113,0.75668 5.06364,2.53394 6.30943,4.62208c2.4946,4.1814 2.27331,6.52302 -0.94303,8.75956c-1.56476,1.08808 -3.56307,1.18611 -5.27823,0.56555c-2.40741,-0.87105 -4.94288,-2.58515 -6.35747,-4.9563c-2.4946,-4.1814 2.10996,-10.12984 2.10996,-10.12984z" fill="#ffb727" stroke="none" stroke-width="0" stroke-linecap="butt"/><path d="M271.08959,143.72245c0,0 -0.60874,4.54797 -5.88949,7.93891c-5.23782,3.36338 -9.3792,1.60383 -9.3792,1.60383" fill="none" stroke="#000000" stroke-width="0.8" stroke-linecap="round"/><path d="M272.63657,149.02625c0,0 -0.84358,2.92116 -5.9736,5.41051c-3.55973,1.72736 -7.65355,1.98349 -7.65355,1.98349" fill="none" stroke="#000000" stroke-width="0.75" stroke-linecap="round"/><path d="M269.4383,141.5802c0,0 -0.50463,2.68601 -5.71636,5.61747c-5.41859,3.04785 -9.40631,1.87629 -9.40631,1.87629" fill="none" stroke="#000000" stroke-width="0.8" stroke-linecap="round"/><path d="M254.49818,145.52229c0,0 3.36035,-2.3902 7.18423,-3.73504c2.90313,-1.02104 7.06068,-1.26809 7.06068,-1.26809" fill="none" stroke="#000000" stroke-width="0.8" stroke-linecap="round"/><path d="M261.97711,138.97868c0,0 3.3997,0.58973 6.02756,5.41152c2.81604,5.16709 2.60888,9.0646 2.60888,9.0646" fill="none" stroke="#000000" stroke-width="0.8" stroke-linecap="round"/><path d="M268.42211,155.5159c0,0 -1.68288,-2.44838 -2.51345,-4.03026c-0.69927,-1.33188 -1.61208,-4.15709 -2.78987,-6.57677c-1.33931,-2.75151 -2.90993,-5.03637 -2.90993,-5.03637" fill="none" stroke="#000000" stroke-width="0.8" stroke-linecap="round"/><path d="M266.34314,156.82719c0,0 -3.68495,-2.09555 -6.6223,-7.33748c-1.87147,-3.33981 -1.78912,-8.63817 -1.78912,-8.63817" fill="none" stroke="#000000" stroke-width="0.8" stroke-linecap="round"/><path d="M261.50494,157.37106c0,0 -2.60953,-1.73279 -4.68178,-6.90916c-1.43901,-3.59461 -1.21474,-7.45759 -1.21474,-7.45759" fill="none" stroke="#000000" stroke-width="0.8" stroke-linecap="round"/><path d="M256.29702,151.45676c-0.31564,0.21948 -0.76169,0.07867 -0.99626,-0.31454c-0.23458,-0.39319 -0.16886,-0.88986 0.1468,-1.10936c0.31564,-0.21948 0.76169,-0.07868 0.99626,0.31452c0.23458,0.39319 0.16885,0.88987 -0.14679,1.10937z" fill="#ffd683" stroke="none" stroke-width="0" stroke-linecap="butt"/><path d="M255.34878,148.3556c-0.18211,0.12661 -0.42479,0.0699 -0.54209,-0.12669c-0.11729,-0.19659 -0.06475,-0.45861 0.11735,-0.58524c0.18211,-0.12661 0.4248,-0.06989 0.54209,0.12669c0.11729,0.19659 0.06475,0.45862 -0.11735,0.58524z" fill="#ffd683" stroke="none" stroke-width="0" stroke-linecap="butt"/></g></g><path d="M267.16347,159.75881c5.43091,8.169 5.8184,9.9757 5.8184,9.9757c0.62903,1.06311 -0.38643,1.62067 -0.38643,1.62067c0,0 -1.84702,1.34096 -3.02921,2.19924c-0.77628,0.56358 -1.98909,1.44412 -1.98909,1.44412c0,0 -0.84645,0.4176 -1.17833,-0.17075c-1.99663,-3.53958 -4.07917,-6.80669 -4.92506,-8.68763c-0.28197,-0.62698 0.08937,-1.80314 0.08937,-1.80314l3.44613,-3.16533c0,0 1.34319,-1.38602 2.15422,-1.41285z" fill="#582700" stroke="#000000" stroke-width="3" stroke-linecap="round"/><path d="M276.95073,154.19574c10.86961,17.15518 11.76704,20.84253 11.76704,20.84253c1.2706,2.22232 -0.55419,3.21123 -0.55419,3.21123c0,0 -3.28651,2.45657 -5.39,4.0289c-1.38125,1.03246 -3.53928,2.64556 -3.53928,2.64556c0,0 -1.5257,0.72941 -2.19882,-0.49835c-4.04951,-7.38639 -8.23099,-14.23578 -9.98463,-18.13271c-0.58454,-1.29898 -0.01409,-3.61754 -0.01409,-3.61754l6.0658,-5.91864c0,0 2.34905,-2.61341 3.84816,-2.56095z" fill="#582600" stroke="#000000" stroke-width="3" stroke-linecap="round"/></g><path d="M219.69554,109.21023l-0.53564,-13.22394l41.26944,-1.94834l0.53564,13.22394z" fill="#000000" stroke="none" stroke-width="0" stroke-linecap="butt"/><path d="M252.53766,123.91151c-1.69094,1.35829 -6.62248,4.78486 -8.18684,2.83207c-2.09646,-2.61701 5.02886,-8.02442 6.3862,-7.80884c0.23577,-0.09974 0.49055,-0.15987 0.75767,-0.17248c1.30094,-0.06142 2.40168,1.02736 2.45857,2.43185c0.53762,0.63462 -0.94987,2.34329 -1.4156,2.7174z" fill="#582600" stroke="none" stroke-width="0.5" stroke-linecap="butt"/><g><path d="M234.37766,155.59253c0,0 4.77276,25.49132 -1.56177,37.76094c-1.90889,3.6974 -13.73198,7.51485 -14.7602,7.57971c-4.4404,0.2801 -19.22936,-21.6493 -19.22936,-21.6493c0,0 -7.06898,-9.52271 -8.5319,-14.51363c12.55741,-13.62327 22.96502,-15.16589 22.96502,-15.16589c1.76753,-1.30059 5.00204,6.1907 5.00204,6.1907l10.35224,21.12732l-1.61826,-3.16176c0,0 -9.30125,-18.79378 -6.96116,-18.45382c2.15308,0.3128 15.24633,-2.84011 14.34335,0.2857z" fill="#582600" stroke="#000000" stroke-width="2.5" stroke-linecap="round"/><path d="M225.66992,172.56245c-1.32573,1.05749 -2.80954,1.96658 -4.26375,2.69196c-3.83044,2.49985 -8.06013,5.16877 -12.15895,7.17271c-1.16928,0.57167 -2.31082,1.17097 -3.46408,1.78109c-0.38834,0.20546 -1.39654,0.50564 -1.74642,0.60411c1.10815,0.96143 2.01926,2.62629 3.26554,3.33392c0.14656,0.08322 0.42885,0.03104 0.76903,-0.09157c0.98285,-0.71543 2.08276,-1.30341 2.57334,-1.63469c5.30127,-4.14532 11.25264,-7.00171 16.71627,-10.81828c-0.1446,-0.59345 -0.87778,-1.62427 -0.93382,-1.72129c-0.2539,-0.43962 -0.50854,-0.87729 -0.75715,-1.31793zM224.95489,171.23776c-0.26033,-0.51142 -0.50419,-1.03304 -0.72158,-1.57209c0,0 -0.13482,-0.33528 -0.00307,-0.64262c-1.57166,-2.88874 -2.95659,-5.93819 -4.09351,-8.78124c-0.67332,-1.19783 -1.70534,-2.74866 -0.68909,-4.07541c0.73125,-0.95469 2.87021,-1.27361 3.92747,-1.39293c3.39169,-0.38268 6.81304,-0.68462 10.19758,-0.98162c1.92398,1.04117 1.30719,3.05736 1.35006,5.13329c0.09342,4.52307 0.30987,9.03197 0.39775,13.55675c0.46897,3.18713 0.04614,6.19028 0.16939,9.35408c0.17073,4.38181 0.20119,7.86963 -1.64648,11.89383c-4.06378,4.04646 -11.94406,7.79195 -17.51223,5.7976c-3.66019,-0.18108 -5.87663,-3.85216 -8.10692,-6.53641c-0.37384,-0.44991 -1.96511,-1.83909 -2.01857,-2.38431c-0.03798,-0.38732 0.11253,-0.7767 0.38045,-1.15546c-1.36535,-0.78229 -2.43094,-2.57515 -3.59888,-3.61362c-0.96721,-2.41757 2.24162,-3.11089 4.13722,-4.08016c4.60057,-2.35241 9.29655,-5.00217 13.61667,-7.85107c1.43261,-0.71461 2.91511,-1.6127 4.21375,-2.66863zM210.07931,188.64997c-0.0178,0.00814 -0.03586,0.01655 -0.05418,0.02523c-1.10049,0.77669 -2.437,1.73021 -2.41387,1.75833c2.182,2.6506 5.41225,7.3576 8.98323,7.5933c5.14259,1.84193 12.26232,-1.63109 16.11873,-5.21559c1.61156,-3.70111 1.51116,-6.89723 1.36349,-10.90508c-0.11601,-3.14887 0.29818,-6.11648 -0.1652,-9.2872c-0.1024,-4.55809 -0.30569,-9.10077 -0.40304,-13.65681c-0.01346,-0.63009 0.20883,-3.62997 -0.15038,-3.66066c-3.46795,0.54673 -7.04657,0.36705 -10.49375,1.06149c-0.28313,0.05705 -2.59934,0.65815 -2.50171,1.07496c0.15875,0.67768 0.69178,1.50067 1.0304,2.10165c2.29704,5.68407 6.60467,10.52947 8.50276,16.27505c-0.37876,0.64953 -0.85629,1.27286 -1.45954,1.679l-0.53786,0.52543c0,0 -0.08708,0.08436 -0.22219,0.1462c-1.91663,2.18334 -5.68491,3.56768 -7.73051,4.52625c-3.43956,1.70111 -6.33352,4.34579 -9.8664,5.95841z" fill="#000000" stroke="none" stroke-width="0.5" stroke-linecap="butt"/><path d="M221.44142,175.22059c1.45418,-0.72536 2.94037,-1.63138 4.26609,-2.68888c0.24862,0.44066 0.50634,0.88324 0.76022,1.32286c0.05602,0.09701 0.79232,1.13466 0.93691,1.72809c-5.46362,3.81657 -11.49141,6.72867 -16.79271,10.87399c-0.49057,0.33127 -1.59303,0.91639 -2.57587,1.63182c-0.34019,0.12262 -0.62372,0.1732 -0.77028,0.09c-1.24628,-0.70764 -2.16568,-2.38881 -3.27384,-3.35026c0.34989,-0.09847 1.35811,-0.39859 1.74643,-0.60405c1.15324,-0.61013 2.29384,-1.21288 3.46315,-1.78455c4.09882,-2.00395 8.40949,-4.71921 12.23991,-7.21906z" data-paper-data="{&quot;noHover&quot;:false,&quot;origItem&quot;:[&quot;Path&quot;,{&quot;applyMatrix&quot;:true,&quot;segments&quot;:[[[926.17844,407.1979],[3.2606,1.25965],[-0.27949,0.97418]],[[925.31465,410.11917],[0.29084,-0.97519],[-0.06418,0.21521]],[[924.29914,413.90358],[-0.01258,-1.20526],[13.15638,4.16543]],[[964.1057,425.02121],[-12.99513,-4.87922],[1.17537,0.35239]],[[970.21765,426.67451],[-2.3817,-0.804],[0.75941,0.04146]],[[971.83798,426.41666],[-0.25651,0.23985],[2.18115,-2.03947]],[[976.78433,418.26967],[-1.76682,2.44279],[-0.76669,0.00973]],[[972.89889,418.10481],[0.90089,0.17138],[-2.67549,-0.50896]],[[964.88923,416.67374],[2.68829,0.42712],[-9.42353,-1.49721]],[[936.29671,409.90591],[9.13228,2.58714],[-3.35077,-0.55846]]],&quot;closed&quot;:true}]}" fill="#ffffff" stroke="none" stroke-width="0.5" stroke-linecap="butt"/><path d="M211.46989,187.65248c4.86533,-3.79805 10.18643,-6.49702 15.26915,-9.86211c0.0288,0.05528 0.16027,0.11674 0.20755,0.17364c0.4724,0.56839 0.90474,0.05184 0.90474,0.05184l0.5378,-0.52149c0.60326,-0.40612 1.08171,-1.02011 1.46048,-1.66963c-1.89812,-5.74559 -6.15858,-10.55018 -8.45562,-16.23425c-0.33862,-0.60098 -0.87602,-1.52564 -1.03477,-2.20332c-0.09764,-0.41679 2.22474,-1.01796 2.50788,-1.07501c3.44716,-0.69443 7.04622,-0.50827 10.51417,-1.05502c0.35921,0.03069 0.14037,3.03288 0.15382,3.66297c0.09737,4.55601 0.31815,9.12274 0.42056,13.68082c0.46339,3.17071 0.04995,6.17199 0.16597,9.32086c0.14766,4.00785 0.23218,7.22847 -1.37938,10.92958c-3.85641,3.58449 -11.01747,7.06649 -16.16007,5.22458c-3.57097,-0.23567 -6.82498,-4.95903 -9.00695,-7.60962c-0.03827,-0.04649 3.71314,-2.69116 3.89468,-2.81384z" data-paper-data="{&quot;noHover&quot;:false,&quot;origItem&quot;:[&quot;Path&quot;,{&quot;applyMatrix&quot;:true,&quot;segments&quot;:[[[926.61254,417.73069],[12.14285,3.5238],[-0.03018,0.12086]],[[926.46822,418.11346],[0.06716,-0.13431],[-0.67082,1.34164]],[924.45576,418.78428],[[923.08279,418.0906],[0,0],[-1.44471,-0.43097]],[[919.22563,415.72869],[1.11205,1.01797],[0.89694,-11.9485]],[[928.15956,380.1298],[-1.74473,12.05571],[0.38029,-1.32836]],[[929.175,375.57071],[0.02742,1.37277],[-0.01686,-0.84429]],[[923.5003,374.93752],[0.60865,-0.05075],[-7.41054,0.61792]],[[901.48814,378.8123],[7.37628,-0.90935],[-0.71866,0.25961]],[[903.08234,385.83106],[-0.2998,-1.20115],[2.16779,8.68513]],[[909.35292,411.92731],[-2.15853,-8.69186],[0.69956,6.26621]],[[913.83986,429.61277],[-1.39861,-6.02998],[1.78014,7.67491]],[[922.29365,449.50563],[-5.21858,-6.1072],[9.74892,4.62723]],[[957.96755,450.34516],[-9.56021,6.37347],[7.18055,-2.44927]],[[972.39433,430.92276],[-3.08539,6.24485],[0.05411,-0.10951]],[[963.14745,427.86406],[0.43501,0.13058],[-11.92317,-4.46591]]],&quot;closed&quot;:true}]}" fill="#ffcb66" stroke="none" stroke-width="0.5" stroke-linecap="butt"/></g><g stroke="#000000" stroke-width="1" stroke-linecap="butt"><path d="M243.22892,147.95449l-7.51365,0.03052c0,0 -1.34122,-5.69228 3.70576,-5.76101c5.34339,-0.07278 3.8079,5.73049 3.8079,5.73049z" fill="#000000"/><path d="M235.89347,144.3864c0.45024,-1.14827 1.4451,-2.13405 3.52757,-2.16242c1.38414,-0.01885 2.3067,0.35657 2.91394,0.92329c0.00289,0.0027 -0.01884,1.12263 -0.01884,1.12263c0,0 -6.42412,0.12021 -6.42266,0.11649z" fill="#ffffff"/><path d="M239.51796,147.98744c-1.25921,0.00511 -3.79895,0.01543 -3.79895,0.01543c0,0 -0.11559,-0.70277 -0.15105,-1.39895c-0.00308,-0.06038 1.17478,-0.09923 2.10617,0.18035c1.09709,0.32933 1.96709,1.20267 1.84383,1.20316z" fill="#ff8484"/></g><path d="M263.44654,133.16924c0,2.50321 -1.72519,4.53247 -3.85332,4.53247c-2.12813,0 -3.85332,-2.02926 -3.85332,-4.53247c0,-2.50321 1.72519,-4.53246 3.85332,-4.53246c2.12813,0 3.85332,2.02925 3.85332,4.53246z" fill="#ffffff" stroke="#000000" stroke-width="2.5" stroke-linecap="butt"/><path d="M252.49973,134.94024c0,2.50321 -1.72519,4.53247 -3.85332,4.53247c-2.12813,0 -3.85331,-2.02926 -3.85331,-4.53247c0,-2.50321 1.72519,-4.53246 3.85331,-4.53246c2.12813,0 3.85332,2.02925 3.85332,4.53246z" fill="#ffffff" stroke="#000000" stroke-width="2.5" stroke-linecap="butt"/></g></g></svg>