<svg version="1.1" xmlns="http://www.w3.org/2000/svg" xmlns:xlink="http://www.w3.org/1999/xlink" width="135.01865" height="185.92783" viewBox="0,0,135.01865,185.92783"><g transform="translate(-146.61442,-79.30702)"><g data-paper-data="{&quot;isPaintingLayer&quot;:true}" fill-rule="nonzero" stroke-linejoin="miter" stroke-miterlimit="10" stroke-dasharray="" stroke-dashoffset="0" style="mix-blend-mode: normal"><g stroke="#000000" stroke-width="1.5"><g data-paper-data="{&quot;index&quot;:null}"><path d="M189.46834,190.1476c0.17196,-0.04936 5.54984,-1.36687 11.09986,-1.72208c5.32644,-0.34088 10.83342,0.54888 11.40456,2.36183c1.2036,3.82055 -6.68906,9.24022 -17.36141,12.96301c-10.67237,3.72279 -14.96096,8.48542 -18.01164,6.28262c-14.21048,-10.26084 1.60334,-16.65274 12.86861,-19.8854z" fill="#f0d5b1" stroke-linecap="butt"/><path d="M189.60034,205.21533l-8.28953,-8.33346" fill="none" stroke-linecap="round"/><path d="M186.07546,214.80733c0,0 -3.4901,-1.42347 -5.17856,-2.41446c-2.19259,-1.28682 -6.8642,-4.65344 -6.8642,-4.65344c0,0 1.49154,-3.92727 2.66505,-5.66831c1.22119,-1.81177 5.85885,-3.44813 5.85885,-3.44813l9.42049,7.03391l-5.90159,9.15037z" fill="#955544" stroke-linecap="butt"/><path d="M189.72612,208.72691l-10.66081,-6.71425l-0.99199,-0.92339" fill="none" stroke-linecap="round"/><path d="M175.93032,205.51314l11.26518,7.5237" fill="none" stroke-linecap="round"/></g><g data-paper-data="{&quot;index&quot;:null}"><g><path d="" data-paper-data="{&quot;index&quot;:null}" fill="#f0d5b1" stroke-linecap="butt"/><path d="" data-paper-data="{&quot;index&quot;:null}" fill="#955544" stroke-linecap="butt"/><path d="" data-paper-data="{&quot;index&quot;:null}" fill="none" stroke-linecap="round"/><path d="" data-paper-data="{&quot;index&quot;:null}" fill="none" stroke-linecap="round"/></g><path d="M195.52933,211.81372c0,0 1.45515,-1.47672 6.4283,-0.65886c2.11499,0.34784 4.82541,0.65881 5.12432,2.54248c0.25066,1.57965 -1.25576,2.24665 -3.9653,3.67044c-2.29309,1.20497 -1.37528,1.50851 -3.35802,2.78766c-1.43568,0.92621 -3.23202,2.30229 -5.37163,3.3679c-2.43102,1.21074 -5.91703,0.42711 -9.06195,0.58215c-2.42679,0.11962 -4.22385,2.49394 -6.95143,1.37959c-5.23119,-2.13717 -4.68829,-5.05808 -5.43972,-8.27984c-0.59502,-2.55102 -3.2059,-5.27971 -1.67963,-8.03445c3.45381,-6.23377 19.64092,-7.57565 19.64092,-7.57565c0,0 5.72198,11.77638 3.01377,13.19287c-4.69805,2.45723 -6.58428,-6.68231 -6.58428,-6.68231c0,0 2.22806,8.86218 0.0246,9.63228c-6.46817,2.26066 -7.53204,-5.89381 -7.01651,-3.4865c0.23404,1.09293 0.30265,2.2487 0.00733,3.29907c-0.94583,3.36394 -5.70809,1.45596 -5.70809,1.45596c0,0 1.65084,0.363 3.20899,0.1342c1.34209,-0.19708 2.60095,-0.91806 2.84608,-1.69529c0.7701,-2.44175 -1.75159,-6.72735 -1.75159,-6.72735c0,0 1.05066,2.75646 2.51642,4.93757c1.32017,1.96442 2.94054,3.43628 5.06662,2.45508c2.95721,-1.36475 0.79216,-10.08727 0.79216,-10.08727c0,0 2.65737,7.60008 4.78486,7.35808c1.73916,-0.19785 3.43382,-3.56786 3.43382,-3.56786z" fill="#46b8d9" stroke-linecap="round"/></g></g><g stroke="#000000" stroke-width="1.5"><path d="M235.7597,257.79131c0,3.69674 -5.2465,6.69354 -11.71836,6.69354c-6.47187,0 -11.71836,-2.99681 -11.71836,-6.69354c0,-3.69673 5.2465,-6.69353 11.71836,-6.69353c6.47187,0 11.71836,2.99677 11.71836,6.69353z" fill="#46b8d9" stroke-linecap="butt"/><path d="M214.12096,252.84939l9.55575,-12.0421l-0.88014,-9.0707l12.32189,1.56391c0,0 0.2814,7.04754 -1.00586,11.10376c-1.28727,4.05621 -4.65214,6.72482 -4.65214,6.72482z" fill="#494d5f" stroke-linecap="round"/><path d="M222.44453,242.465c0,0 2.57835,2.22992 5.77508,2.26127c1.94488,0.01906 5.71698,-1.29163 5.71698,-1.29163c0,0 -1.19203,3.57083 -2.07388,4.89448c-0.86115,1.29255 -3.15664,2.95633 -3.15664,2.95633l-13.70496,1.25114z" fill="#f0d5b1" stroke-linecap="round"/><path d="M254.56945,250.22203l-9.65634,-22.01987l8.75106,-4.50406l13.88099,27.77506z" fill="#494d5f" stroke-linecap="butt"/><path d="M269.4563,257.04068c0,3.97313 -4.59349,7.19398 -10.25987,7.19398c-5.66638,0 -10.25987,-3.22085 -10.25987,-7.19398c0,-3.97312 4.5935,-7.19398 10.25987,-7.19398c5.66638,0 10.25987,3.22085 10.25987,7.19398z" fill="#46b8d9" stroke-linecap="butt"/><path d="M222.78399,264.23463l1.70998,-7.25655" fill="none" stroke-linecap="round"/><path d="M230.62978,262.23281l0.90528,-5.37986" fill="none" stroke-linecap="round"/><path d="M253.56357,261.85747l0.40234,-4.87942" fill="none" stroke-linecap="round"/><path d="M261.30876,256.97808l-0.20117,5.88031" fill="none" stroke-linecap="round"/><path d="M252.25594,244.84215l9.55575,-4.75429l5.83404,11.51039l-12.67394,-1.12603z" fill="#f0d5b1" stroke-linecap="round"/></g><g stroke="#000000" stroke-width="1.5"><path d="M223.20318,234.16318c0,0 -7.9075,4.45199 -13.66885,5.97539c-5.76132,1.5234 -9.60164,4.62394 -10.81765,1.07255c-2.72324,-7.95333 3.10676,-8.06757 8.86808,-9.591c5.56684,-1.47197 15.6184,2.54306 15.6184,2.54306z" fill="#49c0e0" stroke-linecap="butt"/><path d="M255.14123,215.38579c2.53834,6.04209 -3.13302,14.60341 -12.66735,19.12227c-9.31797,4.4163 -18.84625,7.50868 -22.4302,-0.82687c-1.3416,-3.12024 2.95736,-8.75756 2.95736,-8.75756l-19.71381,-43.28063l24.41162,2.22496l17.64248,29.48211c0,0 8.25674,-1.6375 9.7999,2.0357z" fill="#f0d5b1" stroke-linecap="butt"/><path d="M255.46199,217.92795c0.20438,1.45639 -0.58128,4.81723 -0.58128,4.81723c0,0 -4.4459,8.05569 -10.54907,10.77625c-8.26365,3.68359 -17.71918,5.22573 -17.71918,5.22573c0,0 -3.94829,-1.38966 -5.14464,-2.81324c-0.93909,-1.11751 -1.93554,-4.46234 -1.93554,-4.46234c0,0 15.34706,-3.26022 21.33645,-6.19957c5.57218,-2.73461 13.43869,-10.86659 13.43869,-10.86659c0,0 0.98997,2.34953 1.15459,3.52253z" fill="#494d5f" stroke-linecap="round"/><path d="M241.66059,225.33115c2.25929,-1.05517 6.40944,-4.05214 6.40944,-4.05214c0,0 -1.44169,5.77389 -4.21232,7.06787c-2.77067,1.29396 -9.24648,-0.78224 -9.24648,-0.78224c0,0 4.82292,-1.19364 7.04941,-2.23346z" fill="#e7e7e8" stroke-linecap="round"/><path d="M241.62056,229.84688l1.0451,4.7198" fill="none" stroke-linecap="round"/><path d="M249.80865,228.41967l-2.7186,-2.61516" fill="none" stroke-linecap="round"/><path d="M208.82591,192.76326l-3.0331,-10.32317l22.21925,-2.36585l6.75742,11.5076z" fill="#955544" stroke-linecap="butt"/><path d="M227.10855,187.67067l1.4329,4.17498" fill="none" stroke-linecap="round"/></g><g stroke="#000000" stroke-width="1.5"><g><path d="M248.69753,147.30402c-4.28086,-3.18767 -7.90287,-7.43026 -7.16482,-9.18193c1.09439,-2.59737 6.16584,-3.65202 12.7305,-2.17559c2.765,0.62187 8.06995,3.82702 11.19511,5.03317c3.38405,1.30606 5.79124,-0.07871 7.93838,-0.98181c4.54351,-1.91099 5.23064,-3.47801 5.84168,-0.99683c4.19113,17.01931 -10.2854,19.00184 -20.96501,14.17459c-0.16304,-0.07369 -5.11523,-2.55016 -9.57582,-5.87162z" data-paper-data="{&quot;index&quot;:null}" fill="#f0d5b1" stroke-linecap="butt"/><path d="M274.27438,127.04109c0,0 2.20039,3.06027 3.10432,4.79691c1.1738,2.25512 3.34276,7.58935 3.34276,7.58935c0,0 -3.35021,2.53459 -5.26941,3.38603c-1.99716,0.88602 -6.79553,-0.19174 -6.79553,-0.19174l-4.24355,-10.9642l9.86144,-4.61632z" data-paper-data="{&quot;index&quot;:null}" fill="#955544" stroke-linecap="butt"/><path d="M267.95103,130.25257l5.46417,11.35244l0.34979,1.30937" data-paper-data="{&quot;index&quot;:null}" fill="none" stroke-linecap="round"/><path d="M272.38485,127.94586l5.54608,12.35926" data-paper-data="{&quot;index&quot;:null}" fill="none" stroke-linecap="round"/><path d="M262.65647,135.86232c-0.26417,-0.01605 -1.64166,-0.12613 -2.24129,-0.60405c-0.85484,-0.68134 -1.06571,-1.8225 -2.22671,-2.04376c-3.33485,-0.63556 -6.98888,-1.00727 -7.20483,-3.1632c-0.22541,-2.2502 6.57523,-2.36113 6.57523,-2.36113c0,0 -6.03491,-1.88576 -5.90534,-4.0178c0.21813,-3.58876 7.11634,-2.87183 7.11634,-2.87183c0,0 -3.97004,-1.64416 -2.77108,-3.79517c1.56278,-2.80367 7.09688,1.40706 7.71604,1.4447c5.60455,0.34067 9.91101,4.5147 9.61876,9.32296c-0.29225,4.80827 -5.07258,8.43 -10.67712,8.08933z" data-paper-data="{&quot;index&quot;:null}" fill="#46b8d9" stroke-linecap="butt"/></g><path d="M227.1225,90.33914c7.37868,-3.324 13.95966,-4.25898 15.26315,-3.65953c9.5887,4.4095 21.82731,36.1368 7.01021,41.44764c-14.81709,5.31082 -33.64587,-4.92547 -38.18077,-20.57401c-1.24522,-4.29678 6.69831,-13.06546 15.90741,-17.21405z" data-paper-data="{&quot;index&quot;:null}" fill="#49c0e0" stroke-linecap="butt"/><path d="M186.84754,99.7876c4.65532,15.61312 -5.63816,34.41073 -20.97206,37.96361c-15.3339,3.55288 -22.21265,-29.75008 -16.53584,-38.64732c0.7717,-1.20948 6.81171,-3.98478 14.81537,-5.18283c9.9891,-1.49524 21.41433,1.5795 22.69258,5.86655z" fill="#49c0e0" stroke-linecap="butt"/><path d="M257.73104,131.03934c0,0 18.37694,8.5908 14.2966,30.91563c-2.05705,11.25479 -14.2217,21.67667 -51.58202,26.3535c-28.2224,3.53293 -54.90505,-12.13035 -60.81093,-37.61959c-5.90589,-25.48925 13.7231,-52.63626 39.70309,-56.80279c57.35329,-9.19801 58.3933,37.15327 58.3933,37.15327z" fill="#49c0e0" stroke-linecap="butt"/><path d="M242.96897,156.75634c-0.15576,9.5906 -22.10395,35.93595 -32.09125,36.90494c-7.93807,0.77017 -14.00613,-18.50333 -15.6585,-31.56662c-1.63565,-12.93111 -3.01017,-22.12334 8.40006,-22.87315c5.87829,-0.38624 14.14417,12.55233 22.74194,15.57913c8.09115,2.84839 16.71144,-4.42725 16.60776,1.95572z" fill="#c25e5d" stroke-linecap="butt"/><path d="M249.67024,154.31328c-1.4196,3.53796 -10.22879,4.5811 -19.67593,2.32992c-9.44712,-2.25116 -15.95471,-6.94415 -14.53509,-10.48209c1.4196,-3.53796 10.22879,-4.58109 19.67593,-2.32992c9.44712,2.25116 15.95471,6.94415 14.53509,10.48209z" fill="#c8dee6" stroke-linecap="butt"/><path d="M241.9816,147.15807c0,0 -4.84932,3.298 -8.25249,2.39553c-3.40321,-0.90246 -5.73922,-5.66219 -5.73922,-5.66219c0,0 4.31766,-0.60857 7.72086,0.29389c3.4032,0.90246 6.27091,2.97275 6.27091,2.97275z" fill="#c04915" stroke-linecap="butt"/><path d="M234.01256,148.31701c0,0 -0.68803,2.83298 -1.28138,3.97988c-0.58821,1.137 -1.54173,3.21809 -1.54173,3.21809" fill="none" stroke-linecap="round"/><path d="M218.27959,119.99469c2.60041,11.22316 -4.03289,22.34667 -14.81592,24.84511c-10.78302,2.49844 -21.63243,-4.57432 -24.23285,-15.7975c-2.60041,-11.22316 4.03289,-22.34668 14.81592,-24.84511c10.78302,-2.49843 21.63243,4.57433 24.23285,15.7975z" fill="#ffffff" stroke-linecap="butt"/><path d="M254.06405,122.42706c3.19578,10.05704 0.59283,19.94212 -5.81389,22.07892c-6.4067,2.13682 -14.19101,-4.28378 -17.38678,-14.34081c-3.19578,-10.05704 -0.59283,-19.94212 5.81389,-22.07892c6.4067,-2.13682 14.19101,4.28378 17.38678,14.34081z" fill="#ffffff" stroke-linecap="butt"/><path d="M210.79679,85.30041c0.60838,3.46785 -6.37817,3.51208 -6.37817,3.51208c0,0 -4.57722,7.77267 -7.72392,6.19331c-3.1467,-1.57938 -2.2741,-6.89404 0.0175,-11.45984c2.29161,-4.56581 12.84687,-5.30036 14.08454,1.75444z" data-paper-data="{&quot;index&quot;:null}" fill="#000000" stroke-linecap="butt"/><path d="M233.92177,92.30153c0,0 -5.86696,-2.94262 -4.06987,-5.44917c3.65592,-5.09922 12.27233,-0.12216 12.51055,4.46499c0.23823,4.58717 -0.99593,9.17973 -4.23088,9.12713c-3.23497,-0.05261 -4.20977,-8.14293 -4.20977,-8.14293z" data-paper-data="{&quot;index&quot;:null}" fill="#000000" stroke-linecap="butt"/><path d="M195.4129,151.67027c0,0 10.89598,6.44273 15.08322,11.7162c4.53809,5.71532 12.42011,23.71457 12.42011,23.71457c0,0 -8.81933,9.70282 -15.51741,4.89177c-10.75262,-7.72326 -11.98589,-40.32253 -11.98589,-40.32253z" fill="#f1898a" stroke-linecap="round"/><path d="M218.54068,153.4939l-4.24145,6.01824l-0.1729,-11.41318z" fill="#ffffff" stroke-linecap="butt"/></g><path d="M230.54839,142.99668c0.53666,-2.95161 3.48827,-2.41495 3.48827,-2.41495l3.30606,0.62345c1.26689,-0.00475 2.53377,-0.00949 3.80066,-0.01424c2.84609,-4.02507 6.93383,-4.99397 9.40999,-0.90248c0.89309,0.18631 2.0614,0.77823 2.26162,2.58025c0.1443,1.29873 -0.33994,2.09462 -0.93255,2.57932c-0.03061,0.47981 -0.10302,0.95402 -0.21821,1.41166c-0.25689,1.02057 -1.651,1.39101 -2.13594,2.32503c-0.30259,0.58281 0.04032,1.32482 -0.09288,1.96785c-0.60528,2.92203 -1.41605,5.23622 -0.96194,8.3159c0.5396,3.65946 1.12132,7.6375 2.24359,11.18119c2.32149,7.33036 6.32049,14.57956 6.77716,22.36393c0.08482,1.44576 0.13343,6.48493 -0.75049,7.72226c-1.0257,1.43579 -2.8747,2.04703 -4.31205,3.07055c-2.14813,-0.8859 -5.20293,-0.69351 -6.44438,-2.65771c-0.8507,-1.34596 1.58309,-2.7953 2.03239,-4.32286c0.19445,-0.66108 -0.26297,-1.38097 -0.15455,-2.06147c0.32259,-2.02476 1.74203,-3.8821 1.63504,-5.9296c-0.10147,-1.94177 -1.43038,-5.94788 -2.01215,-7.86889c-0.68808,-2.27201 -1.26992,-4.57484 -1.87523,-6.87082c-0.5631,-1.75596 -1.0746,-3.52574 -1.51288,-5.30898c-2.07529,-6.379 -6.48396,-15.30398 -4.2662,-21.8614c-0.9477,0.09005 -1.8954,0.18011 -2.8431,0.27016l-4.02727,-0.70989c0,0 -2.95161,-0.53666 -2.41495,-3.48827z" fill="#000000" stroke="none" stroke-width="0.5" stroke-linecap="butt"/><path d="M206.80977,145.84619c-1.72769,-0.17871 -3.54115,-1.14696 -5.16172,-0.54122c-1.51964,0.56801 -1.71823,2.75747 -2.44948,4.20565c-1.67893,3.32497 -1.0319,7.39938 -1.0319,11.02271c0,4.80459 -0.131,9.59516 0.32026,14.38691c0.50126,5.32266 2.09618,10.38213 2.66514,15.65081c0.33818,3.13166 -0.26396,6.38377 -0.65786,9.48203c0.00092,0.49912 0.02523,6.31003 -0.03294,6.62747c-0.21977,1.19929 -1.00378,2.49881 -0.52459,3.61995c0.08841,0.20685 -0.20774,-0.46491 -0.10742,-0.66625c1.60467,-3.22048 2.38404,-3.01694 3.11933,-5.92446c1.47984,-5.85162 1.17155,-10.37012 0.57389,-16.14324c-0.54039,-5.21996 -0.02248,-10.79113 -0.02248,-16.03322c0,-5.94603 -0.72612,-12.34664 0.78248,-18.15885c0.82544,-3.18017 3.0303,-4.25745 3.23587,-7.50577l-0.59083,0.20812c0,0 -0.05037,-0.08395 -0.11775,-0.23063zM209.90608,141.49103c1.38215,0.19174 2.1664,1.49881 2.1664,1.49881l1.40917,3.54145c-0.17525,1.25777 -0.05664,2.59322 -0.52575,3.77332c-0.46385,1.16687 -1.53397,1.99417 -2.19205,3.0636c-0.95531,1.55245 -1.15876,3.70485 -1.27258,5.39387c-0.41605,6.17407 0.00873,12.58281 0.00873,18.77125c0,3.10005 -0.35317,6.21776 -0.02248,9.30012c0.70224,6.54544 0.99815,11.94631 -0.75944,18.52342c-0.72685,2.71995 -3.03965,7.21697 -4.88067,8.74221c-1.48797,1.23275 -3.66984,2.77345 -5.44075,2.00042c-2.48158,-1.08325 -3.9268,-3.96323 -4.87012,-6.5013c-0.46551,-1.2525 0.81121,-2.55773 1.01219,-3.87875c0.3028,-1.99019 -0.03626,-4.02611 -0.03294,-6.0392c0.33865,-2.75176 0.99565,-5.73744 0.67547,-8.51797c-0.60781,-5.27843 -2.16954,-10.34057 -2.66819,-15.68253c-0.54637,-5.85302 -0.3492,-11.74328 -0.34641,-17.61309c0.0028,-5.8763 0.66537,-15.20446 7.18528,-18.10497c1.41099,-0.62771 6.72496,0.0046 8.06385,0.11533c0,0 1.80008,0.15001 2.49028,1.614z" fill="#000000" stroke="none" stroke-width="0.5" stroke-linecap="butt"/></g></g></svg>