<svg version="1.1" xmlns="http://www.w3.org/2000/svg" xmlns:xlink="http://www.w3.org/1999/xlink" width="134.40405" height="182.78853" viewBox="0,0,134.40405,182.78853"><g transform="translate(-149.49325,-82.44632)"><g data-paper-data="{&quot;isPaintingLayer&quot;:true}" fill-rule="nonzero" stroke-linejoin="miter" stroke-miterlimit="10" stroke-dasharray="" stroke-dashoffset="0" style="mix-blend-mode: normal"><g stroke="#000000" stroke-width="1.5"><g data-paper-data="{&quot;index&quot;:null}"><path d="M190.80167,190.48093c0.17196,-0.04936 5.54984,-1.36687 11.09986,-1.72208c5.32644,-0.34088 10.83342,0.54888 11.40456,2.36183c1.2036,3.82055 -6.68906,9.24022 -17.36141,12.96301c-10.67237,3.72279 -14.96096,8.48542 -18.01164,6.28262c-14.21048,-10.26084 1.60334,-16.65274 12.86861,-19.8854z" fill="#f0d5b1" stroke-linecap="butt"/><path d="M190.93367,205.54866l-8.28953,-8.33346" fill="none" stroke-linecap="round"/><path d="M187.40879,215.14066c0,0 -3.4901,-1.42347 -5.17856,-2.41446c-2.19259,-1.28682 -6.8642,-4.65344 -6.8642,-4.65344c0,0 1.49154,-3.92727 2.66505,-5.66831c1.22119,-1.81177 5.85885,-3.44813 5.85885,-3.44813l9.42049,7.03391l-5.90159,9.15037z" fill="#955544" stroke-linecap="butt"/><path d="M191.05945,209.06024l-10.66081,-6.71425l-0.99199,-0.92339" fill="none" stroke-linecap="round"/><path d="M177.26365,205.84647l11.26518,7.5237" fill="none" stroke-linecap="round"/></g><g data-paper-data="{&quot;index&quot;:null}"><g><path d="" data-paper-data="{&quot;index&quot;:null}" fill="#f0d5b1" stroke-linecap="butt"/><path d="" data-paper-data="{&quot;index&quot;:null}" fill="#955544" stroke-linecap="butt"/><path d="" data-paper-data="{&quot;index&quot;:null}" fill="none" stroke-linecap="round"/><path d="" data-paper-data="{&quot;index&quot;:null}" fill="none" stroke-linecap="round"/></g><path d="M196.86266,212.14705c0,0 1.45515,-1.47672 6.4283,-0.65886c2.11499,0.34784 4.82541,0.65881 5.12432,2.54248c0.25066,1.57965 -1.25576,2.24665 -3.9653,3.67044c-2.29309,1.20497 -1.37528,1.50851 -3.35802,2.78766c-1.43568,0.92621 -3.23202,2.30229 -5.37163,3.3679c-2.43102,1.21074 -5.91703,0.42711 -9.06195,0.58215c-2.42679,0.11962 -4.22385,2.49394 -6.95143,1.37959c-5.23119,-2.13717 -4.68829,-5.05808 -5.43972,-8.27984c-0.59502,-2.55102 -3.2059,-5.27971 -1.67963,-8.03445c3.45381,-6.23377 19.64092,-7.57565 19.64092,-7.57565c0,0 5.72198,11.77638 3.01377,13.19287c-4.69805,2.45723 -6.58428,-6.68231 -6.58428,-6.68231c0,0 2.22806,8.86218 0.0246,9.63228c-6.46817,2.26066 -7.53204,-5.89381 -7.01651,-3.4865c0.23404,1.09293 0.30265,2.2487 0.00733,3.29907c-0.94583,3.36394 -5.70809,1.45596 -5.70809,1.45596c0,0 1.65084,0.363 3.20899,0.1342c1.34209,-0.19708 2.60095,-0.91806 2.84608,-1.69529c0.7701,-2.44175 -1.75159,-6.72735 -1.75159,-6.72735c0,0 1.05066,2.75646 2.51642,4.93757c1.32017,1.96442 2.94054,3.43628 5.06662,2.45508c2.95721,-1.36475 0.79216,-10.08727 0.79216,-10.08727c0,0 2.65737,7.60008 4.78486,7.35808c1.73916,-0.19785 3.43382,-3.56786 3.43382,-3.56786z" fill="#46b8d9" stroke-linecap="round"/></g></g><g stroke="#000000" stroke-width="1.5"><path d="M235.7597,257.79131c0,3.69674 -5.2465,6.69354 -11.71836,6.69354c-6.47187,0 -11.71836,-2.99681 -11.71836,-6.69354c0,-3.69673 5.2465,-6.69353 11.71836,-6.69353c6.47187,0 11.71836,2.99677 11.71836,6.69353z" fill="#46b8d9" stroke-linecap="butt"/><path d="M214.12096,252.84939l9.55575,-12.0421l-0.88014,-9.0707l12.32189,1.56391c0,0 0.2814,7.04754 -1.00586,11.10376c-1.28727,4.05621 -4.65214,6.72482 -4.65214,6.72482z" fill="#494d5f" stroke-linecap="round"/><path d="M222.44453,242.465c0,0 2.57835,2.22992 5.77508,2.26127c1.94488,0.01906 5.71698,-1.29163 5.71698,-1.29163c0,0 -1.19203,3.57083 -2.07388,4.89448c-0.86115,1.29255 -3.15664,2.95633 -3.15664,2.95633l-13.70496,1.25114z" fill="#f0d5b1" stroke-linecap="round"/><path d="M254.56945,250.22203l-9.65634,-22.01987l8.75106,-4.50406l13.88099,27.77506z" fill="#494d5f" stroke-linecap="butt"/><path d="M269.4563,257.04068c0,3.97313 -4.59349,7.19398 -10.25987,7.19398c-5.66638,0 -10.25987,-3.22085 -10.25987,-7.19398c0,-3.97312 4.5935,-7.19398 10.25987,-7.19398c5.66638,0 10.25987,3.22085 10.25987,7.19398z" fill="#46b8d9" stroke-linecap="butt"/><path d="M222.78399,264.23463l1.70998,-7.25655" fill="none" stroke-linecap="round"/><path d="M230.62978,262.23281l0.90528,-5.37986" fill="none" stroke-linecap="round"/><path d="M253.56357,261.85747l0.40234,-4.87942" fill="none" stroke-linecap="round"/><path d="M261.30876,256.97808l-0.20117,5.88031" fill="none" stroke-linecap="round"/><path d="M252.25594,244.84215l9.55575,-4.75429l5.83404,11.51039l-12.67394,-1.12603z" fill="#f0d5b1" stroke-linecap="round"/></g><g stroke="#000000" stroke-width="1.5"><path d="M223.86984,235.49651c0,0 -7.9075,4.45199 -13.66885,5.97539c-5.76132,1.5234 -9.60164,4.62394 -10.81765,1.07255c-2.72324,-7.95333 3.10676,-8.06757 8.86808,-9.591c5.56684,-1.47197 15.6184,2.54306 15.6184,2.54306z" fill="#49c0e0" stroke-linecap="butt"/><path d="M255.80789,216.71912c2.53834,6.04209 -3.13302,14.60341 -12.66735,19.12227c-9.31797,4.4163 -18.84625,7.50868 -22.4302,-0.82687c-1.3416,-3.12024 2.95736,-8.75756 2.95736,-8.75756l-19.71381,-43.28063l24.41162,2.22496l17.64248,29.48211c0,0 8.25674,-1.6375 9.7999,2.0357z" fill="#f0d5b1" stroke-linecap="butt"/><path d="M256.12865,219.26128c0.20438,1.45639 -0.58128,4.81723 -0.58128,4.81723c0,0 -4.4459,8.05569 -10.54907,10.77625c-8.26365,3.68359 -17.71918,5.22573 -17.71918,5.22573c0,0 -3.94829,-1.38966 -5.14464,-2.81324c-0.93909,-1.11751 -1.93554,-4.46234 -1.93554,-4.46234c0,0 15.34706,-3.26022 21.33645,-6.19957c5.57218,-2.73461 13.43869,-10.86659 13.43869,-10.86659c0,0 0.98997,2.34953 1.15459,3.52253z" fill="#494d5f" stroke-linecap="round"/><path d="M242.32725,226.66448c2.25929,-1.05517 6.40944,-4.05214 6.40944,-4.05214c0,0 -1.44169,5.77389 -4.21232,7.06787c-2.77067,1.29396 -9.24648,-0.78224 -9.24648,-0.78224c0,0 4.82292,-1.19364 7.04941,-2.23346z" fill="#e7e7e8" stroke-linecap="round"/><path d="M242.28722,231.18021l1.0451,4.7198" fill="none" stroke-linecap="round"/><path d="M250.47531,229.753l-2.7186,-2.61516" fill="none" stroke-linecap="round"/><path d="M209.49257,194.09659l-3.0331,-10.32317l22.21925,-2.36585l6.75742,11.5076z" fill="#955544" stroke-linecap="butt"/><path d="M227.77521,189.004l1.4329,4.17498" fill="none" stroke-linecap="round"/></g><g stroke="#000000" stroke-width="1.5"><g><path d="M250.82128,151.2969c-4.2188,-3.26937 -7.75859,-7.58079 -6.987,-9.31795c1.14411,-2.57585 6.2349,-3.53283 12.76997,-1.93049c2.75254,0.6749 7.9949,3.98143 11.0963,5.24743c3.35832,1.37087 5.79168,0.03262 7.95579,-0.82904c4.5794,-1.8233 5.29653,-3.37683 5.85976,-0.88436c3.86321,17.09673 -10.64875,18.80063 -21.2336,13.76899c-0.16159,-0.07681 -5.06527,-2.64801 -9.46119,-6.0546z" data-paper-data="{&quot;index&quot;:null}" fill="#f0d5b1" stroke-linecap="butt"/><path d="M276.78289,131.52935c0,0 2.14116,3.102 3.01154,4.85569c1.13024,2.27727 3.19626,7.6522 3.19626,7.6522c0,0 -3.39831,2.46972 -5.33352,3.28412c-2.01382,0.84747 -6.79059,-0.32233 -6.79059,-0.32233l-4.03201,-11.04374l9.94835,-4.42591z" data-paper-data="{&quot;index&quot;:null}" fill="#955544" stroke-linecap="butt"/><path d="M270.39898,134.61869l5.24495,11.45537l0.32456,1.31585" data-paper-data="{&quot;index&quot;:null}" fill="none" stroke-linecap="round"/><path d="M280.18381,144.86121l-5.30749,-12.46358" data-paper-data="{&quot;index&quot;:null}" fill="none" stroke-linecap="round"/><path d="M264.99757,140.12563c-0.26381,-0.02112 -1.63893,-0.15766 -2.22927,-0.64702c-0.84159,-0.69765 -1.03048,-1.84265 -2.18701,-2.08618c-3.32202,-0.69954 -6.96823,-1.14142 -7.1427,-3.30111c-0.18212,-2.25412 6.6194,-2.23431 6.6194,-2.23431c0,0 -5.99755,-2.00141 -5.82702,-4.13057c0.28707,-3.5839 7.17023,-2.73451 7.17023,-2.73451c0,0 -3.9377,-1.72017 -2.69762,-3.84773c1.61638,-2.77311 7.06852,1.54321 7.68684,1.59275c5.59697,0.44834 9.8224,4.70437 9.43778,9.50613c-0.38462,4.80176 -5.23368,8.33094 -10.83064,7.8826z" data-paper-data="{&quot;index&quot;:null}" fill="#46b8d9" stroke-linecap="butt"/></g><path d="M230.3452,93.92783c7.44121,-3.18155 14.03895,-3.98986 15.33067,-3.36547c9.50217,4.593 21.12866,36.54968 6.21222,41.57473c-14.91644,5.02503 -33.54498,-5.57129 -37.77825,-21.30411c-1.1624,-4.31992 6.94821,-12.93429 16.23536,-16.9051z" data-paper-data="{&quot;index&quot;:null}" fill="#49c0e0" stroke-linecap="butt"/><path d="M189.89606,102.60039c4.35435,15.69972 -6.29855,34.296 -21.69791,37.55348c-15.39936,3.25748 -21.6367,-30.17155 -15.78992,-38.95803c0.79481,-1.19442 6.88705,-3.85311 14.91226,-4.89709c10.016,-1.30296 21.38001,1.99083 22.57562,6.30166z" fill="#49c0e0" stroke-linecap="butt"/><path d="M260.16575,135.20886c0,0 18.20841,8.94245 13.69971,31.18472c-2.27301,11.21317 -14.63574,21.3993 -52.07905,25.35713c-28.28509,2.98979 -54.66174,-13.18348 -60.07658,-38.78153c-5.41485,-25.59806 14.73233,-52.36275 40.7876,-56.02913c57.5195,-8.09388 57.66836,38.26883 57.66836,38.26883z" fill="#49c0e0" stroke-linecap="butt"/><path d="M244.91208,160.63736c-0.34008,9.58583 -22.79062,35.50443 -32.7947,36.28127c-7.95141,0.61744 -13.64788,-18.76913 -15.04884,-31.86177c-1.38679,-12.96016 -2.58436,-22.17711 8.83817,-22.70746c5.88463,-0.27318 13.90028,12.82189 22.43828,16.01339c8.0349,3.00339 16.79345,-4.10521 16.5671,2.27459z" fill="#c25e5d" stroke-linecap="butt"/><path d="M251.65908,158.32356c-1.48734,3.51002 -10.31496,4.38364 -19.71708,1.95128c-9.4021,-2.43233 -15.81828,-7.24954 -14.33092,-10.75954c1.48734,-3.51002 10.31496,-4.38363 19.71708,-1.95128c9.4021,2.43233 15.81828,7.24954 14.33092,10.75954z" fill="#c8dee6" stroke-linecap="butt"/><path d="M244.10939,151.02188c0,0 -4.91182,3.20418 -8.29701,2.23646c-3.38523,-0.96771 -5.62932,-5.77146 -5.62932,-5.77146c0,0 4.32856,-0.52546 7.71378,0.44224c3.38522,0.96771 6.21261,3.09274 6.21261,3.09274z" fill="#c04915" stroke-linecap="butt"/><path d="M236.11955,152.02743c0,0 -0.74236,2.81923 -1.35764,3.95451c-0.60996,1.12548 -1.6033,3.18786 -1.6033,3.18786" fill="none" stroke-linecap="round"/><path d="M220.93389,123.40793c2.3842,11.27107 -4.46169,22.26502 -15.29075,24.55573c-10.82905,2.29071 -21.54051,-4.98929 -23.92472,-16.26038c-2.3842,-11.27107 4.46169,-22.26503 15.29075,-24.55573c10.82905,-2.2907 21.54051,4.9893 23.92472,16.26038z" fill="#ffffff" stroke-linecap="butt"/><path d="M256.66498,126.52769c3.00188,10.11661 0.2094,19.94983 -6.23721,21.96309c-6.44659,2.01328 -14.10605,-4.55576 -17.10791,-14.67237c-3.00188,-10.11661 -0.2094,-19.94983 6.23721,-21.96309c6.44659,-2.01328 14.10605,4.55576 17.10791,14.67237z" fill="#ffffff" stroke-linecap="butt"/><path d="M214.11936,88.57623c0.54161,3.4789 -6.4445,3.38883 -6.4445,3.38883c0,0 -4.72578,7.68325 -7.84154,6.0437c-3.11576,-1.63957 -2.14116,-6.93648 0.23778,-11.45739c2.37895,-4.52092 12.94638,-5.05244 14.04821,2.02485z" data-paper-data="{&quot;index&quot;:null}" fill="#000000" stroke-linecap="butt"/><path d="M237.10549,96.02056c0,0 -5.80931,-3.05485 -3.96438,-5.52639c3.75326,-5.028 12.27241,0.11376 12.42241,4.70464c0.15001,4.5909 -1.1722,9.15889 -4.40554,9.04412c-3.23336,-0.11478 -4.05247,-8.22234 -4.05247,-8.22234z" data-paper-data="{&quot;index&quot;:null}" fill="#000000" stroke-linecap="butt"/><path d="M197.46256,154.63812c0,0 10.77013,6.65098 14.85523,12.00396c4.42739,5.80149 11.96198,23.94893 11.96198,23.94893c0,0 -9.00421,9.5315 -15.60857,4.59259c-10.60218,-7.92852 -11.20861,-40.54547 -11.20861,-40.54547z" fill="#f1898a" stroke-linecap="round"/><path d="M220.55102,156.90597l-4.35635,5.9356l0.04651,-11.41439z" fill="#ffffff" stroke-linecap="butt"/></g><path d="M203.16925,149.23848c-0.33523,0.05224 -0.67338,0.09601 -1.01335,0.13267l-3.77346,1.57227c-0.37162,0.16493 -0.783,0.25657 -1.21577,0.25657c-0.51448,0 -0.99872,-0.12951 -1.42188,-0.3577c0.81381,1.41183 1.42617,2.96815 1.95982,4.48835c3.13808,11.59412 0.58674,23.82967 1.45626,35.68294c0.20237,2.75867 1.07417,5.43737 1.32122,8.1924c0.1208,1.34717 -0.24022,2.71932 -0.04335,4.05749c0.3073,2.08889 1.68877,4.10979 1.33634,6.19155c-0.19212,1.13481 -1.09592,2.02581 -1.58289,3.06867c-0.56727,1.2148 -1.82408,3.52319 -1.69552,5.20156c0.06899,0.90059 0.24502,3.60458 0.18862,2.70311c1.28058,-1.0728 3.25439,-1.59063 3.91968,-3.12301c1.4698,-3.3854 1.55747,-7.21571 2.40805,-10.80705c0.89674,-3.78622 2.22907,-7.4931 2.70761,-11.35453c1.05135,-8.48347 -0.8024,-17.26447 -1.35209,-25.69615c-0.12722,-1.95135 -0.16831,-3.90781 -0.20144,-5.86302c-0.05623,-3.31841 1.46045,-13.23393 -2.99786,-14.34612zM211.50368,146.81925c-0.41709,0.22527 -0.99294,0.44812 -1.65181,0.65924c4.24693,5.9249 2.03981,14.49962 2.50417,21.582c0.57909,8.83235 2.42004,17.93715 1.31904,26.82122c-0.02655,0.21426 -2.7277,11.59459 -2.82358,11.9994c-0.29472,1.24436 -2.75237,11.80571 -3.12314,12.54688c-0.59222,1.18384 -5.97165,4.96853 -6.74698,5.54366c-1.78899,0.04296 -3.80079,0.99457 -5.36698,0.12889c-1.55358,-0.85871 -3.02398,-6.31393 -3.11107,-8.09244c-0.1917,-3.91494 2.46521,-6.37911 3.38826,-9.72977c0.35714,-1.29641 -1.12758,-2.47912 -1.33032,-3.80845c-0.23166,-1.5189 0.09758,-3.0792 -0.04335,-4.60918c-0.26235,-2.84808 -1.13235,-5.62208 -1.34545,-8.47427c-0.84395,-11.29576 1.82058,-23.30213 -1.21041,-34.31706c-0.338,-1.09739 -0.46522,-2.28353 -1.01401,-3.29216c-2.2367,-4.11088 -7.47763,-3.9713 -4.2859,-10.562c0.59368,-1.22592 2.34467,-1.38764 3.53454,-2.05063c5.06236,-2.82074 8.56162,-4.36077 14.41395,-3.26487c1.56161,0.29243 3.54421,0.01001 4.61752,1.18139c0.41077,0.4483 0.82408,0.9421 1.20842,1.46802c0.4467,0.16399 0.89432,0.3245 1.34546,0.47152c0,0 2.84605,0.94868 1.89737,3.79473c-0.45966,1.37897 -1.36474,1.86709 -2.1757,2.0039z" fill="#000000" stroke="none" stroke-width="0.5" stroke-linecap="butt"/><path d="M250.81081,142.04743l1.41478,1.10242c0.09621,-0.27824 0.1924,-0.55623 0.28238,-0.83514c0.06787,-0.21035 0.43822,-0.41386 0.30386,-0.58935c-0.39886,-0.52096 -1.37206,-0.02521 -1.94663,0.29159c-0.01806,0.00996 -0.03619,0.02012 -0.0544,0.03047zM251.42355,146.52443c-2.05844,2.25082 -4.22381,3.77101 -8.1939,3.34158c-0.31347,-0.03391 -0.62125,-0.0915 -0.92463,-0.1674c0.43088,2.14378 2.27357,5.09541 2.64688,6.0534c1.48525,3.81146 3.01402,7.61482 4.21728,11.52447c1.06089,3.44704 0.81381,7.17197 0.99376,10.77408c0.27115,5.42791 1.27784,10.69246 1.27616,16.15159c-0.00084,2.73569 -0.3943,5.45721 -0.61156,8.18427c-0.0687,0.8623 0.09509,1.80231 -0.12277,2.62423c1.0777,-2.39257 4.04762,-4.41925 4.93424,-7.0466c1.02258,-3.03025 0.19196,-7.25093 0.19433,-10.43071c0.00752,-10.10335 -2.84815,-19.21536 -4.24491,-29.10884c-0.49397,-3.4989 -0.56594,-8.24093 -0.16487,-11.90007zM257.62648,138.13903c2.32507,2.97968 0.22361,5.65658 -0.18345,8.55139c-0.42028,2.98879 -0.34675,7.90156 0.08606,10.89231c0.56273,3.88849 1.71704,7.66955 2.44927,11.52971c1.35133,7.12392 1.85749,13.85571 1.85497,21.08756c-0.00203,5.82882 0.05196,9.20664 -3.13999,14.28405c-1.05417,1.67685 -3.41111,5.40669 -5.66543,6.13452c-1.65254,0.53355 -3.46859,0.17647 -5.20289,0.26471c-0.96373,-1.41554 -2.34484,-2.62365 -2.89119,-4.24661c-1.0492,-3.11667 0.50635,-9.29376 0.50529,-12.45119c-0.00179,-5.3445 -1.0039,-10.51759 -1.26873,-15.83603c-0.25118,-5.04427 0.59004,-5.16521 -0.75157,-9.36027c-1.59827,-4.99761 -3.8132,-9.81698 -5.71123,-14.69261c-0.88734,-2.27937 -2.0324,-5.47071 -1.07299,-7.97605c0.93907,-2.45222 5.05194,-8.11019 7.69295,-9.71523c0.79929,-0.48576 9.38934,-2.55181 9.77817,-2.64903c0,0 2.91043,-0.72761 3.63803,2.18282c0.2087,0.83479 0.11809,1.49 -0.11728,1.99997z" fill="#000000" stroke="none" stroke-width="0.5" stroke-linecap="butt"/></g></g></svg>