<svg version="1.1" xmlns="http://www.w3.org/2000/svg" xmlns:xlink="http://www.w3.org/1999/xlink" width="267.42642" height="257.0021" viewBox="0,0,267.42642,257.0021"><g transform="translate(-106.28679,-54.50196)"><g data-paper-data="{&quot;isPaintingLayer&quot;:true}" fill-rule="nonzero" stroke-linejoin="miter" stroke-miterlimit="10" stroke-dasharray="" stroke-dashoffset="0" style="mix-blend-mode: normal"><path d="M373.71321,311.1602l-267.27562,0.34386l-0.1508,-256.65825l267.27563,-0.34385z" fill="none" stroke="none" stroke-width="NaN" stroke-linecap="butt"/><g><g data-paper-data="{&quot;origRot&quot;:0}" stroke="#000000" stroke-width="3" stroke-linecap="round"><path d="M210.63191,133.67695c0,0 25.21619,17.00704 23.56961,19.88505c-2.96889,5.18926 -12.6351,15.00528 -12.6351,15.00528l-7.56084,9.06851l3.17277,-3.17269c0,0 8.20202,14.95117 8.11033,18.99065c-0.04815,2.12222 -8.66655,8.32754 -11.31105,8.42928c-5.9325,0.22825 -33.58266,-27.3162 -31.30934,-31.77353c6.76382,-9.67357 21.00226,-30.21189 21.00226,-30.21189c0,0 5.17296,-7.89931 6.96136,-6.22065z" data-paper-data="{&quot;origPos&quot;:null}" fill="#582700"/><path d="M226.912,161.6192l-22.84223,-19.53319" fill="none"/><path d="M201.10772,145.22361l22.6462,19.77057" data-paper-data="{&quot;origPos&quot;:null}" fill="none"/></g><path d="M226.70702,161.96859l-1.93805,2.31935l-23.23283,-20.13993l1.93804,-2.31935z" fill="#ffffff" stroke="none" stroke-width="0" stroke-linecap="butt"/><path d="M183.62648,169.24079l16.87669,-24.06044l22.20445,20.60159l-9.15045,10.95767l1.4318,1.40113l2.37235,-2.18689l7.2353,17.22415l-1.09668,1.18101l-5.48342,5.90505l-5.24737,0.50055l-7.36844,-4.20498l-17.36449,-16.61672l-5.68537,-9.69625z" fill="#66c8ff" stroke="#000000" stroke-width="0.5" stroke-linecap="round"/></g><g data-paper-data="{&quot;index&quot;:null}" stroke="#000000" stroke-linecap="round"><path d="M252.28037,174.15446c0,0 16.2316,-1.59725 16.21325,5.02736c-0.04977,17.98052 -28.27891,12.06568 -28.27891,12.06568z" data-paper-data="{&quot;origPos&quot;:null}" fill="#66c8ff" stroke-width="2"/><path d="M251.52631,175.66269c0,0 11.78117,-0.56333 12.44273,1.38252c0.20864,0.61371 -15.71052,2.51368 -15.71052,2.51368z" data-paper-data="{&quot;origPos&quot;:null}" fill="#0a0a0a" stroke-width="1"/></g><g data-paper-data="{&quot;index&quot;:null,&quot;origRot&quot;:0}" stroke="#000000" stroke-linecap="round"><path d="M234.99854,262.14038c0,0 1.34029,4.06472 0.69116,6.22061c-0.49692,1.65043 -2.33299,2.37208 -4.10252,2.95252c-4.85711,1.59318 -9.97895,0.68873 -17.97354,1.38787c-2.17739,0.19042 -3.71235,-2.61508 -3.78023,-4.60404c-0.06349,-1.86026 -0.04856,-5.09754 -0.04856,-5.09754l-0.30465,-31.34782c0,0 0.10621,-4.05968 1.8218,-4.93733c4.13146,-2.11352 8.91729,-1.15854 13.60235,-1.81253c1.58772,-0.22162 2.19742,4.29009 2.19742,4.29009z" data-paper-data="{&quot;origPos&quot;:null}" fill="#ff0000" stroke-width="3"/><path d="M209.81529,264.02927l24.17343,-2.03365c0,0 1.43329,2.24562 1.55762,3.84023c0.11803,1.51373 -0.93662,4.12451 -0.93662,4.12451c0,0 -8.59431,1.97092 -12.62427,2.43684c-5.25256,0.60727 -11.72785,-1.14887 -11.72785,-1.14887z" data-paper-data="{&quot;origPos&quot;:null}" fill="#976e57" stroke-width="2.5"/><path d="M234.95661,262.4515c0,0 1.34029,4.06472 0.69116,6.22061c-0.49692,1.65043 -2.33299,2.37209 -4.10252,2.95252c-4.85711,1.59318 -9.97895,0.68873 -17.97354,1.38787c-2.17738,0.19041 -3.71235,-2.61508 -3.78024,-4.60405c-0.06349,-1.86026 -0.04856,-5.09754 -0.04856,-5.09754l-0.30465,-31.34781c0,0 0.1062,-4.05968 1.82179,-4.93734c4.13146,-2.11352 8.9173,-1.15854 13.60235,-1.81253c1.5877,-0.22163 2.19739,4.29009 2.19739,4.29009c0,0 1.99678,8.33121 3.27481,13.66363c1.80382,7.52605 4.62199,19.28459 4.62199,19.28459z" data-paper-data="{&quot;origPos&quot;:null}" fill="#4b4b4b" stroke-width="1.5"/></g><g data-paper-data="{&quot;index&quot;:null,&quot;origRot&quot;:0}" stroke="#000000" stroke-linecap="round"><path d="M233.55533,239.28684c0,0 -2.93419,-3.67941 -1.60637,-4.50172c3.91819,-2.42647 6.70463,-6.09275 11.31127,-7.10797c1.91292,-0.42156 5.03229,2.48318 5.03229,2.48318l23.26396,23.12706c0,0 2.4364,2.35956 3.78373,3.76014c1.44053,1.49748 2.41931,4.50211 0.68339,5.71288c-6.3737,4.44553 -9.44387,8.28318 -14.19163,10.1291c-1.72969,0.67249 -3.61389,1.28291 -5.21406,0.38336c-2.09026,-1.17504 -4.15495,-4.98038 -4.15495,-4.98038z" data-paper-data="{&quot;origPos&quot;:null}" fill="#ff0000" stroke-width="3"/><path d="M277.39065,259.61625c0,0 -3.42242,5.30007 -7.72086,8.11261c-3.29793,2.15789 -11.06334,6.04468 -11.06334,6.04468c0,0 -2.72781,-1.25645 -3.77558,-2.43727c-1.10377,-1.24391 -1.73748,-3.77584 -1.73748,-3.77584l19.21212,-13.50087z" data-paper-data="{&quot;origPos&quot;:null}" fill="#976e57" stroke-width="2.5"/><path d="M252.72673,268.49419c0,0 -6.74775,-10.35152 -11.06663,-16.97704c-3.06006,-4.69435 -7.841,-12.02867 -7.841,-12.02867c0,0 -2.9342,-3.67941 -1.60638,-4.50169c3.91818,-2.42646 6.70463,-6.09275 11.31127,-7.10797c1.91292,-0.42156 5.03229,2.48318 5.03229,2.48318l23.26396,23.12706c0,0 2.4364,2.35956 3.78373,3.76014c1.44053,1.49748 2.41931,4.50211 0.6834,5.71288c-6.3737,4.44553 -9.44387,8.28318 -14.19163,10.1291c-1.72969,0.67249 -3.6139,1.2829 -5.21407,0.38335c-2.09026,-1.17504 -4.15495,-4.98038 -4.15495,-4.98038z" data-paper-data="{&quot;origPos&quot;:null}" fill="#4b4b4b" stroke-width="1.5"/></g><g><g><path d="M253.61308,225.85646c0,0 0.86186,14.92068 -1.4341,15.18609c-6.8879,0.79628 -25.00034,-0.01107 -40.45375,-0.01107c-1.73599,0 -1.48276,-14.16336 -1.48276,-14.16336l1.85345,-29.00117c0,0 1.37418,-12.81448 2.96552,-12.81448c10.29388,0 25.69531,-0.88115 32.43218,0.6751c2.24563,0.51876 4.26602,14.16269 4.26602,14.16269z" data-paper-data="{&quot;origPos&quot;:null}" fill="#66c8ff" stroke="#000000" stroke-width="3.5" stroke-linecap="round"/><path d="M220.45357,207.33793c-1.34442,0 -1.34443,-2.35536 -1.34443,-2.35536c0,-4.88519 0,-11.3406 0,-16.22579c0,0 0.00001,-2.35536 1.34443,-2.35536c1.34442,0 1.34442,2.35536 1.34442,2.35536c0,4.88519 0,9.77037 0,14.65556v1.57024c0,0 0,2.35536 -1.34442,2.35536z" fill="#ffffff" stroke="none" stroke-width="0.5" stroke-linecap="butt"/><path d="M232.94372,213.33482c-1.34442,0 -1.34443,-2.95899 -1.34443,-2.95899c0,-6.13717 0,-14.247 0,-20.38418c0,0 0.00001,-2.95899 1.34443,-2.95899c1.34442,0 1.34442,2.95899 1.34442,2.95899c0,6.13717 0,12.27434 0,18.41152v1.97266c0,0 0,2.95899 -1.34442,2.95899z" fill="#ffffff" stroke="none" stroke-width="0.5" stroke-linecap="butt"/></g><g fill="none" stroke="#b9b9b9" stroke-width="3"><path d="M243.42632,189.81956c-0.86133,-1.28595 0.0894,-2.44074 1.3623,-3.59406c1.27291,-1.15331 2.55046,-1.50548 3.24733,-0.58248c1.47753,1.95703 -0.07263,2.88072 -1.06937,3.7838c-1.27292,1.15333 -2.32385,2.20885 -3.54026,0.39276z" stroke-linecap="butt"/><path d="M244.45079,189.2602l-2.69576,2.3856" stroke-linecap="round"/><path d="M238.06367,192.24171c1.27291,-1.15331 2.55046,-1.50548 3.24733,-0.58248c1.47753,1.95703 -0.07263,2.88072 -1.06937,3.7838c-1.27291,1.15332 -2.32383,2.20885 -3.54025,0.39276c-0.86133,-1.28595 0.08939,-2.44074 1.36229,-3.59407z" stroke-linecap="butt"/><path d="M235.03006,197.66202l2.69576,-2.38562" stroke-linecap="round"/><path d="M229.17814,197.23377c0.41703,-1.54822 1.80972,-1.40181 3.39161,-0.96737c1.58189,0.43446 2.58982,1.35931 2.33693,2.54064c-0.5362,2.50475 -2.11654,1.68379 -3.3552,1.34361c-1.58189,-0.43445 -2.9623,-0.73039 -2.37334,-2.91688z" stroke-linecap="butt"/><path d="M230.18576,197.80731l-3.30916,-0.9546" stroke-linecap="round"/><path d="M221.68434,193.09047c0.92948,-1.24677 2.15225,-0.50148 3.44628,0.59264c1.29404,1.09412 1.88926,2.38961 1.23984,3.36953c-1.37698,2.07771 -2.53282,0.62741 -3.5461,-0.22931c-1.29403,-1.09413 -2.45265,-1.9721 -1.14002,-3.73285z" stroke-linecap="butt"/><path d="M219.71279,191.73037l2.69078,2.33105" stroke-linecap="round"/><path d="M214.91499,187.2912c0.92948,-1.24675 2.15226,-0.50148 3.44628,0.59264c1.29404,1.09412 1.88926,2.38961 1.23984,3.36953c-1.37698,2.07771 -2.53282,0.62741 -3.54609,-0.22931c-1.29403,-1.09412 -2.45265,-1.97209 -1.14002,-3.73285z" stroke-linecap="butt"/><path d="M215.63426,188.26215l-2.69081,-2.33105" stroke-linecap="round"/></g></g><path d="M209.32251,174.55291c-0.45994,-3.22404 -1.545,-17.37122 -2.48313,-30.1607c-0.14512,-1.97822 1.24102,-5.18723 1.24102,-5.18723c0,0 2.0773,-1.7847 3.33512,-1.88387c13.87754,-1.09423 27.00232,-3.22583 32.26343,-2.06004c1.75371,0.38859 5.0204,1.891 5.0204,1.891c0,0 1.03037,4.33163 1.24695,5.44995c0.07219,0.37278 0.11385,0.58251 0.16371,0.95892c1.49392,11.27845 2.01048,24.41867 1.97557,29.02357c-0.01163,1.53496 -1.64824,4.05139 -1.64824,4.05139c0,0 -1.18405,2.82138 -5.51282,3.95008c-4.73642,1.23502 -16.44754,1.72049 -28.52572,2.18394c-1.81335,0.06957 -4.8831,-3.04739 -4.8831,-3.04739z" fill="#582700" stroke="#000000" stroke-width="2.5" stroke-linecap="round"/><path d="M250.82726,139.26224l-0.75079,-0.46885c-0.09144,-0.02389 -0.1828,-0.04729 -0.27409,-0.07022c-0.19751,0.32686 -0.59994,0.72056 -1.3511,0.53228c-0.69231,-0.17353 -0.89024,-0.64327 -0.93266,-1.0144c-2.67002,-0.46197 -5.31728,-0.58288 -8.09026,-0.62453c-7.74534,0.14835 -15.4632,0.89731 -23.18675,1.48668c-2.53298,0.19328 -8.12469,1.64494 -10.3685,0.12437c-1.0943,-0.74157 -0.83757,-2.69716 -1.01785,-3.73959c-0.52239,-3.02071 -1.1309,-6.14303 -1.37577,-9.20091c-0.29334,-3.99898 -2.06063,-7.4554 -2.86295,-11.33843c-0.40223,-1.94669 -1.21846,-3.87232 0.41151,-5.70518c0.46023,-0.51752 1.35338,-0.30404 2.04028,-0.39232c2.51042,-0.32261 4.96262,-0.33561 7.47799,-0.2284c7.97119,0.33975 15.82157,0.2648 23.77563,1.09256c3.20893,0.33773 6.40456,0.16388 9.62785,0.02825c1.89439,-0.07971 3.57727,-0.74994 4.87116,1.32387c0.77269,1.23844 0.57696,5.26898 0.63528,6.75083c0.22487,5.71404 1.65329,12.64169 0.89108,18.46467c0.11974,0.02967 0.2396,0.06008 0.35957,0.09127l1.34485,0.70845c0,0 1.08981,0.61224 0.47758,1.70204c-0.61224,1.0898 -1.70204,0.47758 -1.70204,0.47758z" data-paper-data="{&quot;index&quot;:null}" fill="#000000" stroke="none" stroke-width="0.5" stroke-linecap="butt"/><path d="M248.54969,157.61129c-0.44721,0.89443 -1.34164,0.44721 -1.34164,0.44721l-0.97855,-0.49521c-0.85277,-0.54268 -2.50571,-1.2621 -3.74197,-2.08107c-0.59442,-0.24724 -1.21247,-0.53409 -1.90793,-0.85005l-0.97628,-0.4339c-0.36103,-0.15086 -0.61472,-0.50734 -0.61472,-0.92308c0,-0.55228 0.44772,-1 1,-1c0.11876,0 0.23269,0.0207 0.33837,0.0587l0.29702,0.09901c0.0764,0.02294 0.15285,0.04568 0.22932,0.06824c0.05542,0.00477 0.10955,0.01407 0.16201,0.02751l1.08372,0.25326l-0.00507,0.02171l0.0538,-0.00902c1.15004,0.39351 2.63549,0.45514 3.38291,1.14726c0.2005,0.07726 0.39999,0.15794 0.59829,0.24264l0.00514,-0.00943l0.10199,0.05563c0.02926,0.01274 0.0585,0.02558 0.08771,0.03851l0.01158,0.01565l0.02344,0.01279l0.00429,-0.00773l0.98254,0.54586c0.31636,0.16793 0.53182,0.50073 0.53182,0.88386c0,0.14165 -0.02945,0.27642 -0.08256,0.39852l0.30756,0.15149c0,0 0.89443,0.44721 0.44721,1.34164z" fill="#582700" stroke="none" stroke-width="0.5" stroke-linecap="butt"/><g><g><g data-paper-data="{&quot;index&quot;:null}"><g stroke="#000000" stroke-width="3" stroke-linecap="round"><path d="M274.00568,205.18261c0,0 6.23747,8.82114 7.34348,13.29879c-12.94928,11.14782 -23.08513,11.82679 -23.08513,11.82679c-1.78494,1.02734 -4.44719,-5.761 -4.44719,-5.761c0,0 -5.63922,-13.08451 -9.24862,-21.45923c-2.37007,-5.49919 -6.07302,-14.09101 -6.07302,-14.09101c0,0 -2.10419,-5.55202 -1.09552,-6.03213c6.0683,-2.88842 11.36214,-6.85939 14.86286,-7.22275c1.16691,-0.12112 4.51098,4.55472 4.51098,4.55472l17.23216,24.88583z" data-paper-data="{&quot;origPos&quot;:null}" fill="#582700"/><path d="M276.57338,210.35827l-23.05864,12.05049l-1.61286,-3.01033l22.97286,-12.29501z" data-paper-data="{&quot;origPos&quot;:null}" fill="none"/></g><path d="M251.48961,219.09406l-13.88089,-34.25174l0.82424,-1.19573l14.14469,-7.54044l21.42273,30.93355z" fill="#66c8ff" stroke="#000000" stroke-width="1" stroke-linecap="round"/><path d="M253.26992,222.03229l-1.11656,-2.05677l22.89814,-12.00203l1.11656,2.05677z" fill="#ffffff" stroke="none" stroke-width="0" stroke-linecap="butt"/></g><g fill="#fffc96" stroke="#000000" stroke-width="2" stroke-linecap="round"><path d="M270.68336,201.41767c0,0 4.34804,-0.98095 5.27003,1.82046c1.47514,4.48214 -31.67955,9.84169 -33.50364,5.26163c-0.74528,-1.8713 2.24332,-3.07142 2.24332,-3.07142l0.9003,1.64939c0,0 6.44589,0.3373 14.20786,-0.74371c7.65443,-1.06602 12.40778,-3.10385 12.40778,-3.10385z"/><path d="M265.77784,194.27434c0,0 2.11009,-3.19418 3.73299,-1.50616c3.4067,3.54341 -18.1793,31.48347 -20.55796,27.48167c-1.44058,-2.42359 1.35566,-4.55666 1.35566,-4.55666l0.69838,1.19376c0,0 4.01606,-3.57596 8.78531,-9.97832c4.76925,-6.40234 6.78017,-11.5883 6.78017,-11.5883z" data-paper-data="{&quot;index&quot;:null}"/></g></g><path d="M255.69811,229.39597c-0.98845,-1.89493 -4.73878,-10.40879 -8.10227,-18.1147c-0.52026,-1.19191 -0.34411,-3.47091 -0.34411,-3.47091c0,0 0.91981,-1.54583 1.68959,-1.87514c8.49295,-3.63331 16.28739,-7.74748 19.84992,-8.14785c1.1875,-0.13346 3.56834,0.09922 3.56834,0.09922c0,0 1.58748,2.45804 1.96624,3.10319c0.12625,0.21505 0.19793,0.33582 0.31092,0.55787c3.38547,6.65344 6.55981,14.66599 7.53639,17.51994c0.32553,0.95131 -0.15837,2.85555 -0.15837,2.85555c0,0 -0.13307,1.99632 -2.61151,3.61636c-2.71184,1.77262 -9.97392,4.56803 -17.47169,7.42803c-1.12568,0.42938 -3.73271,-0.84329 -3.73271,-0.84329z" fill="#582700" stroke="#000000" stroke-width="2.5" stroke-linecap="round"/></g><path d="M222.88898,170.68029c1.16519,-0.51799 2.68371,0.61708 3.39168,2.53525c0.70798,1.91817 0.33731,3.89306 -0.82788,4.41105c-1.16519,0.51799 -2.68371,-0.61708 -3.39168,-2.53525c-0.70798,-1.91817 -0.33731,-3.89306 0.82788,-4.41105z" data-paper-data="{&quot;index&quot;:null}" fill="#ff8484" stroke="#000000" stroke-width="1" stroke-linecap="butt"/><path d="M232.27193,157.35632c2.12432,-0.72302 4.31395,1.19598 4.89068,4.28619c0.57672,3.09023 -0.67785,6.18147 -2.80219,6.9045c-2.12432,0.72302 -4.31395,-1.19598 -4.89068,-4.28619c-0.57672,-3.09023 0.67785,-6.18147 2.80219,-6.9045z" fill="#ffffff" stroke="#000000" stroke-width="1.75" stroke-linecap="butt"/><g data-paper-data="{&quot;index&quot;:null}" fill="none" stroke="#000000" stroke-width="2.5" stroke-linecap="butt"><path d="M241.22368,163.2562c-0.30646,-0.17043 0.37771,-1.98545 1.52812,-4.05393c1.1504,-2.0685 2.33142,-3.60719 2.63786,-3.43675c0.30644,0.17043 -0.37773,1.98543 -1.52812,4.05392c-1.1504,2.06849 -2.63784,3.43676 -2.63784,3.43676z"/><path d="M245.2188,164.42908c2.04513,1.19142 3.55997,2.40288 3.38344,2.70586c-0.17649,0.303 -1.97752,-0.41725 -4.02265,-1.60868c-2.04513,-1.19142 -3.55998,-2.4029 -3.38344,-2.70589c0,0 1.97751,0.41726 4.02266,1.60868z" data-paper-data="{&quot;index&quot;:null}"/></g><path d="M194.85455,197.91667v7.96783h-10.552v-7.96783z" data-paper-data="{&quot;index&quot;:null}" fill="#582700" stroke="none" stroke-width="0" stroke-linecap="butt"/><path d="M179.56492,192.10231v4.52228h-5.81436v-4.52228z" data-paper-data="{&quot;index&quot;:null}" fill="#582700" stroke="none" stroke-width="0" stroke-linecap="butt"/></g></g></svg>