<svg version="1.1" xmlns="http://www.w3.org/2000/svg" xmlns:xlink="http://www.w3.org/1999/xlink" width="973.25768" height="345.125" viewBox="0,0,973.25768,345.125"><g transform="translate(232.50052,-54.3215)"><g data-paper-data="{&quot;isPaintingLayer&quot;:true}" fill-rule="nonzero" stroke="#000000" stroke-width="2" stroke-linecap="round" stroke-linejoin="miter" stroke-miterlimit="10" stroke-dasharray="" stroke-dashoffset="0" style="mix-blend-mode: normal"><path d="M49.94712,235.19856c0,0 -19.38556,-2.31182 -28.89839,-4.97728c-9.2241,-2.58459 -27.33906,-10.78035 -27.33906,-10.78035c0,0 -12.2315,3.48354 -18.50041,3.65623c-6.86725,0.18915 -21.07198,-2.56625 -21.07198,-2.56625c0,0 -14.53625,-9.18192 -20.37887,-14.82028c-5.17069,-4.98991 -12.90796,-17.30276 -12.90796,-17.30276c0,0 0.82296,-9.20011 2.7749,-13.65763c1.99867,-4.5643 3.18014,-17.59675 3.18014,-17.59675c0,0 -9.46639,-10.02716 -14.21036,-19.06365c-4.75492,-9.05728 -6.42134,-22.55341 -6.42134,-22.55341c0,0 6.51374,-11.67721 10.33502,-14.21166c4.35783,-2.89029 12.44935,-10.6865 12.44935,-10.6865c0,0 6.34185,-7.90295 11.38698,-10.77893c5.54183,-3.15917 20.51415,-7.40637 20.51415,-7.40637c0,0 21.14085,-7.39325 30.97483,-7.92496c9.93674,-0.53726 28.34049,4.71784 28.34049,4.71784c0,0 16.33942,-2.8767 24.57783,-1.86634c9.12989,1.11967 27.80232,8.29021 27.80232,8.29021c0,0 16.59789,1.7518 23.29031,5.81849c7.29187,4.43095 18.817,19.76828 18.817,19.76828c0,0 0.58187,10.16148 -1.0195,15.00705c-1.7142,5.18712 -8.95022,15.16076 -8.95022,15.16076c0,0 10.902,12.29626 12.99606,19.35422c2.47276,8.33457 0.8943,27.46301 0.8943,27.46301c0,0 4.85824,13.05771 3.00536,19.71946c-1.96259,7.05631 -14.47071,21.50289 -14.47071,21.50289c0,0 -17.29555,10.70035 -27.35776,13.46972c-8.83429,2.43141 -29.81241,2.26494 -29.81241,2.26494z" fill="#427340"/><path d="M25.56586,206.39233l-11.96063,151.94904l-47.94421,-7.38754l29.78642,-150.83841z" fill="#6b4d32"/><path d="M61.26499,209.20294c0,0 -6.45427,6.41127 -11.49898,7.66482c-6.68142,1.66027 -25.0773,1.42404 -25.0773,1.42404c0,0 -12.82668,-0.85279 -18.1848,-2.83688c-5.93341,-2.19715 -15.86619,-9.77222 -15.86619,-9.77222c0,0 -4.27379,2.89162 -6.44285,3.58827c-2.39799,0.77013 -7.32733,0.83428 -7.32733,0.83428c0,0 -6.04555,-3.26531 -8.53051,-5.17697c-2.38673,-1.83606 -5.78747,-13.39008 -5.78747,-13.39008" fill="#427340"/><path d="M8.50091,255.65692c0,0 -19.26172,3.18286 -29.14049,3.27441c-9.57895,0.08874 -29.26036,-2.73333 -29.26036,-2.73333c0,0 -10.77589,6.75462 -16.74826,8.66771c-6.5424,2.09567 -20.95222,3.40854 -20.95222,3.40854c0,0 -16.51938,-4.76658 -23.70198,-8.55308c-6.35655,-3.35103 -17.21902,-13.01946 -17.21902,-13.01946c0,0 -1.77387,-9.06491 -1.14166,-13.88983c0.64732,-4.94049 -1.85038,-17.78581 -1.85038,-17.78581c0,0 -11.88601,-6.99138 -18.96061,-14.34757c-7.09091,-7.3731 -12.45288,-19.86997 -12.45288,-19.86997c0,0 3.00099,-13.02998 5.96446,-16.52904c3.37957,-3.99035 8.97753,-13.73286 8.97753,-13.73286c0,0 3.88786,-9.35736 7.93149,-13.52554c4.44172,-4.57858 17.63698,-12.83051 17.63698,-12.83051c0,0 18.24249,-12.99258 27.5386,-16.24411c9.39324,-3.28551 28.53239,-3.36805 28.53239,-3.36805c0,0 14.89016,-7.31676 23.08372,-8.64262c9.08018,-1.46935 29.01122,0.21274 29.01122,0.21274c0,0 16.42843,-2.94371 23.9891,-0.90346c8.2379,2.22302 23.58109,13.74032 23.58109,13.74032c0,0 3.39098,9.59665 3.2036,14.69653c-0.20054,5.45934 -4.37,17.05456 -4.37,17.05456c0,0 13.89716,8.77045 17.87541,14.96507c4.69776,7.31511 8.51324,26.1255 8.51324,26.1255c0,0 8.30513,11.18621 8.38241,18.10039c0.08189,7.32369 -7.90409,24.68402 -7.90409,24.68402c0,0 -13.62782,15.09689 -22.51944,20.56102c-7.80654,4.79731 -27.99978,10.48438 -27.99978,10.48438z" fill="#427340"/><path d="M-22.94296,234.78763l30.86396,149.26145l-48.10338,6.26803l-13.435,-153.16318z" fill="#6b4d32"/><path d="M12.1249,227.53694c0,0 -4.41159,7.95612 -8.90701,10.56605c-5.95392,3.45669 -23.68668,8.35706 -23.68668,8.35706c0,0 -12.55609,2.756 -18.25489,2.34393c-6.31068,-0.45635 -17.96114,-4.96282 -17.96114,-4.96282c0,0 -3.2985,3.96822 -5.18744,5.24182c-2.08832,1.40797 -6.80445,2.84346 -6.80445,2.84346c0,0 -6.71608,-1.45093 -9.63537,-2.59424c-2.80389,-1.09808 -9.29017,-11.24643 -9.29017,-11.24643" fill="#427340"/><path d="M536.23445,216.45341c0,0 -19.26172,3.18286 -29.14049,3.27441c-9.57894,0.08874 -29.26036,-2.73333 -29.26036,-2.73333c0,0 -10.77589,6.75462 -16.74826,8.6677c-6.5424,2.09567 -20.95222,3.40854 -20.95222,3.40854c0,0 -16.51938,-4.76658 -23.70198,-8.55309c-6.35656,-3.35103 -17.21902,-13.01946 -17.21902,-13.01946c0,0 -1.77387,-9.0649 -1.14167,-13.88983c0.64732,-4.94049 -1.85039,-17.78581 -1.85039,-17.78581c0,0 -11.886,-6.99139 -18.9606,-14.34758c-7.09091,-7.3731 -12.45288,-19.86997 -12.45288,-19.86997c0,0 3.00099,-13.02997 5.96445,-16.52904c3.37957,-3.99035 8.97753,-13.73285 8.97753,-13.73285c0,0 3.88787,-9.35736 7.93149,-13.52554c4.44172,-4.57858 17.63697,-12.8305 17.63697,-12.8305c0,0 18.24249,-12.99259 27.5386,-16.24411c9.39324,-3.2855 28.53239,-3.36805 28.53239,-3.36805c0,0 14.89016,-7.31676 23.08372,-8.64262c9.08017,-1.46935 29.01122,0.21274 29.01122,0.21274c0,0 16.42843,-2.94372 23.9891,-0.90347c8.23789,2.22302 23.58109,13.74033 23.58109,13.74033c0,0 3.39098,9.59665 3.2036,14.69653c-0.20053,5.45934 -4.37001,17.05456 -4.37001,17.05456c0,0 13.89716,8.77045 17.87541,14.96507c4.69776,7.31511 8.51324,26.1255 8.51324,26.1255c0,0 8.30513,11.1862 8.38241,18.10039c0.08189,7.32369 -7.90409,24.68403 -7.90409,24.68403c0,0 -13.62782,15.09687 -22.51945,20.56101c-7.80655,4.79731 -27.99978,10.48438 -27.99978,10.48438z" fill="#427340"/><path d="M504.79058,195.58412l30.86396,149.26145l-48.10338,6.26803l-13.435,-153.16316z" fill="#6b4d32"/><path d="M539.85845,188.33343c0,0 -4.41158,7.95612 -8.90702,10.56604c-5.95392,3.45669 -23.68668,8.35706 -23.68668,8.35706c0,0 -12.55609,2.756 -18.25489,2.34393c-6.31068,-0.45634 -17.96114,-4.96282 -17.96114,-4.96282c0,0 -3.2985,3.96821 -5.18743,5.24181c-2.08832,1.40797 -6.80446,2.84347 -6.80446,2.84347c0,0 -6.71607,-1.45093 -9.63537,-2.59424c-2.80388,-1.09808 -9.29017,-11.24643 -9.29017,-11.24643" fill="#427340"/><path d="M552.98831,272.25114c0,0 -19.33001,-2.73781 -28.78188,-5.61194c-9.16499,-2.78692 -27.09523,-11.37931 -27.09523,-11.37931c0,0 -12.30519,3.21357 -18.57638,3.24827c-6.86975,0.038 -21.01041,-3.0293 -21.01041,-3.0293c0,0 -14.3307,-9.49955 -20.04783,-15.26511c-5.05963,-5.10248 -12.52411,-17.5826 -12.52411,-17.5826c0,0 1.0252,-9.17977 3.07474,-13.59326c2.09861,-4.51922 3.56655,-17.52252 3.56655,-17.52252c0,0 -9.24346,-10.23303 -13.78745,-19.37172c-4.55448,-9.15971 -5.92352,-22.68924 -5.92352,-22.68924c0,0 6.76911,-11.53106 10.64523,-13.98082c4.42037,-2.7937 12.68149,-10.40997 12.68149,-10.40997c0,0 6.5142,-7.76149 11.62139,-10.52577c5.61,-3.03646 20.67216,-6.95319 20.67216,-6.95319c0,0 21.29841,-6.92629 31.14171,-7.24148c9.94615,-0.31848 28.22981,5.3403 28.22981,5.3403c0,0 16.39875,-2.51647 24.61294,-1.32509c9.10304,1.32029 27.61318,8.89996 27.61318,8.89996c0,0 16.55532,2.1166 23.15664,6.32955c7.1926,4.59033 18.37748,20.17753 18.37748,20.17753c0,0 0.35814,10.17182 -1.34947,14.98099c-1.82792,5.14814 -9.28165,14.96015 -9.28165,14.96015c0,0 10.62879,12.53318 12.56705,19.6355c2.28877,8.38697 0.28979,27.47605 0.28979,27.47605c0,0 4.56976,13.16145 2.57074,19.78081c-2.11738,7.01142 -14.94036,21.17927 -14.94036,21.17927c0,0 -17.5268,10.31719 -27.64753,12.86449c-8.88564,2.23642 -29.85503,1.6084 -29.85503,1.6084z" fill="#427340"/><path d="M529.2468,242.91541l-15.30119,151.64907l-47.77006,-8.4407l33.09823,-150.14648z" fill="#6b4d32"/><path d="M564.87545,246.51085c0,0 -6.59377,6.26769 -11.66485,7.40994c-6.71633,1.51285 -25.10257,0.8719 -25.10257,0.8719c0,0 -12.80481,-1.13482 -18.11798,-3.23633c-5.88364,-2.32718 -15.64732,-10.11897 -15.64732,-10.11897c0,0 -4.33638,2.79689 -6.52024,3.44564c-2.41436,0.71718 -7.34392,0.67285 -7.34392,0.67285c0,0 -5.97223,-3.39754 -8.41452,-5.36342c-2.34575,-1.88813 -5.49144,-13.51419 -5.49144,-13.51419" fill="#427340"/><path d="M-159.43829,243.20152c0,0 -20.97812,0.16647 -29.81241,-2.26493c-10.06222,-2.76938 -27.35776,-13.46972 -27.35776,-13.46972c0,0 -12.50813,-14.44658 -14.47071,-21.50289c-1.85287,-6.66174 3.00536,-19.71945 3.00536,-19.71945c0,0 -1.57846,-19.12844 0.8943,-27.46301c2.09407,-7.05796 12.99606,-19.35422 12.99606,-19.35422c0,0 -7.23602,-9.97365 -8.95022,-15.16076c-1.60137,-4.84557 -1.0195,-15.00705 -1.0195,-15.00705c0,0 11.52514,-15.33732 18.817,-19.76828c6.69242,-4.06668 23.29031,-5.81849 23.29031,-5.81849c0,0 18.67243,-7.17054 27.80232,-8.29021c8.23841,-1.01036 24.57783,1.86634 24.57783,1.86634c0,0 18.40375,-5.25511 28.34049,-4.71784c9.83398,0.53171 30.97483,7.92496 30.97483,7.92496c0,0 14.97232,4.24721 20.51415,7.40637c5.04513,2.87599 11.38698,10.77893 11.38698,10.77893c0,0 8.09152,7.79621 12.44935,10.6865c3.82128,2.53445 10.33501,14.21166 10.33501,14.21166c0,0 -1.66641,13.49613 -6.42133,22.55341c-4.74397,9.0365 -14.21036,19.06365 -14.21036,19.06365c0,0 1.18147,13.03245 3.18014,17.59675c1.95193,4.45753 2.77489,13.65763 2.77489,13.65763c0,0 -7.73727,12.31285 -12.90796,17.30276c-5.84262,5.63837 -20.37887,14.82028 -20.37887,14.82028c0,0 -14.20473,2.7554 -21.07198,2.56624c-6.26891,-0.17268 -18.50041,-3.65623 -18.50041,-3.65623c0,0 -18.11496,8.19576 -27.33906,10.78035c-9.51282,2.66546 -28.89839,4.97728 -28.89839,4.97728z" data-paper-data="{&quot;index&quot;:null}" fill="#427340"/><path d="M-104.93855,208.11842l29.78642,150.83841l-47.94421,7.38753l-11.96063,-151.94903z" data-paper-data="{&quot;index&quot;:null}" fill="#6b4d32"/><path d="M-72.04067,199.5412c0,0 -3.40074,11.55402 -5.78747,13.39009c-2.48495,1.91166 -8.53051,5.17697 -8.53051,5.17697c0,0 -4.92934,-0.06415 -7.32734,-0.83428c-2.16906,-0.69665 -6.44285,-3.58827 -6.44285,-3.58827c0,0 -9.93277,7.57507 -15.86619,9.77222c-5.35813,1.98409 -18.1848,2.83688 -18.1848,2.83688c0,0 -18.39588,0.23623 -25.0773,-1.42404c-5.04471,-1.25355 -11.49899,-7.66482 -11.49899,-7.66482" data-paper-data="{&quot;index&quot;:null}" fill="#427340"/><path d="M-117.99207,263.65986c0,0 -20.19323,-5.68706 -27.99977,-10.48437c-8.89163,-5.46413 -22.51944,-20.56102 -22.51944,-20.56102c0,0 -7.98598,-17.36033 -7.90409,-24.68402c0.07728,-6.91419 8.38241,-18.10039 8.38241,-18.10039c0,0 3.81549,-18.81039 8.51324,-26.1255c3.97825,-6.19462 17.87541,-14.96507 17.87541,-14.96507c0,0 -4.16947,-11.59522 -4.37,-17.05456c-0.18738,-5.09989 3.2036,-14.69653 3.2036,-14.69653c0,0 15.34319,-11.51731 23.58109,-13.74032c7.56067,-2.04025 23.9891,0.90346 23.9891,0.90346c0,0 19.93104,-1.68209 29.01122,-0.21274c8.19356,1.32586 23.08372,8.64262 23.08372,8.64262c0,0 19.13915,0.08255 28.53239,3.36805c9.29611,3.25153 27.5386,16.24411 27.5386,16.24411c0,0 13.19526,8.25194 17.63698,12.83051c4.04363,4.16818 7.93149,13.52554 7.93149,13.52554c0,0 5.59796,9.7425 8.97753,13.73286c2.96347,3.49907 5.96446,16.52904 5.96446,16.52904c0,0 -5.36196,12.49687 -12.45288,19.86997c-7.0746,7.35619 -18.96061,14.34757 -18.96061,14.34757c0,0 -2.4977,12.84532 -1.85038,17.78581c0.6322,4.82493 -1.14166,13.88983 -1.14166,13.88983c0,0 -10.86246,9.66843 -17.21902,13.01946c-7.1826,3.78651 -23.70198,8.55308 -23.70198,8.55308c0,0 -14.40982,-1.31287 -20.95222,-3.40854c-5.97236,-1.91308 -16.74825,-8.66771 -16.74825,-8.66771c0,0 -19.68142,2.82207 -29.26036,2.73333c-9.87877,-0.09154 -29.14049,-3.27441 -29.14049,-3.27441z" data-paper-data="{&quot;index&quot;:null}" fill="#427340"/><path d="M-55.87374,245.15694l-13.435,153.16318l-48.10338,-6.26803l30.86396,-149.26145z" data-paper-data="{&quot;index&quot;:null}" fill="#6b4d32"/><path d="M-21.88887,246.08877c0,0 -6.48628,10.14834 -9.29017,11.24643c-2.91929,1.14331 -9.63538,2.59424 -9.63538,2.59424c0,0 -4.71613,-1.43549 -6.80445,-2.84346c-1.88894,-1.2736 -5.18744,-5.24182 -5.18744,-5.24182c0,0 -11.65046,4.50647 -17.96114,4.96282c-5.69879,0.41207 -18.25488,-2.34393 -18.25488,-2.34393c0,0 -17.73277,-4.90036 -23.68669,-8.35706c-4.49542,-2.60993 -8.90701,-10.56605 -8.90701,-10.56605" data-paper-data="{&quot;index&quot;:null}" fill="#427340"/><path d="M667.69486,239.19255c0,0 -19.38557,-2.31182 -28.89839,-4.97728c-9.2241,-2.58459 -27.33906,-10.78035 -27.33906,-10.78035c0,0 -12.2315,3.48354 -18.50041,3.65623c-6.86725,0.18915 -21.07198,-2.56625 -21.07198,-2.56625c0,0 -14.53625,-9.18192 -20.37887,-14.82028c-5.17069,-4.98991 -12.90796,-17.30277 -12.90796,-17.30277c0,0 0.82297,-9.20011 2.7749,-13.65763c1.99867,-4.5643 3.18014,-17.59675 3.18014,-17.59675c0,0 -9.4664,-10.02716 -14.21037,-19.06365c-4.75492,-9.05728 -6.42133,-22.55341 -6.42133,-22.55341c0,0 6.51373,-11.67721 10.33501,-14.21166c4.35783,-2.89029 12.44935,-10.6865 12.44935,-10.6865c0,0 6.34185,-7.90295 11.38698,-10.77893c5.54183,-3.15917 20.51415,-7.40637 20.51415,-7.40637c0,0 21.14085,-7.39325 30.97483,-7.92496c9.93674,-0.53726 28.34049,4.71784 28.34049,4.71784c0,0 16.33941,-2.87671 24.57783,-1.86634c9.12989,1.11967 27.80232,8.29021 27.80232,8.29021c0,0 16.59789,1.7518 23.2903,5.81849c7.29187,4.43095 18.81701,19.76828 18.81701,19.76828c0,0 0.58186,10.16148 -1.0195,15.00705c-1.7142,5.18712 -8.95022,15.16076 -8.95022,15.16076c0,0 10.902,12.29627 12.99606,19.35422c2.47276,8.33457 0.8943,27.46301 0.8943,27.46301c0,0 4.85824,13.05771 3.00536,19.71946c-1.96258,7.05631 -14.47071,21.50289 -14.47071,21.50289c0,0 -17.29554,10.70035 -27.35776,13.46972c-8.83429,2.43141 -29.81241,2.26494 -29.81241,2.26494z" fill="#427340"/><path d="M643.3136,210.38632l-11.96063,151.94904l-47.94421,-7.38754l29.78642,-150.83841z" fill="#6b4d32"/><path d="M679.01273,213.19693c0,0 -6.45427,6.41127 -11.49898,7.66482c-6.68142,1.66027 -25.07731,1.42404 -25.07731,1.42404c0,0 -12.82668,-0.85279 -18.1848,-2.83688c-5.93342,-2.19715 -15.86619,-9.77222 -15.86619,-9.77222c0,0 -4.27379,2.89162 -6.44285,3.58827c-2.39799,0.77013 -7.32733,0.83428 -7.32733,0.83428c0,0 -6.04555,-3.26531 -8.5305,-5.17697c-2.38673,-1.83606 -5.78747,-13.39008 -5.78747,-13.39008" fill="#427340"/><path d="M626.24865,259.65091c0,0 -19.26172,3.18286 -29.1405,3.2744c-9.57894,0.08874 -29.26036,-2.73333 -29.26036,-2.73333c0,0 -10.77589,6.75462 -16.74826,8.66771c-6.5424,2.09567 -20.95222,3.40854 -20.95222,3.40854c0,0 -16.51938,-4.76658 -23.70198,-8.55309c-6.35656,-3.35103 -17.21902,-13.01947 -17.21902,-13.01947c0,0 -1.77387,-9.06491 -1.14166,-13.88983c0.64732,-4.94049 -1.85038,-17.78581 -1.85038,-17.78581c0,0 -11.88601,-6.99138 -18.96061,-14.34757c-7.09091,-7.3731 -12.45288,-19.86997 -12.45288,-19.86997c0,0 3.00099,-13.02998 5.96445,-16.52904c3.37957,-3.99035 8.97753,-13.73285 8.97753,-13.73285c0,0 3.88786,-9.35736 7.93149,-13.52554c4.44172,-4.57858 17.63698,-12.83051 17.63698,-12.83051c0,0 18.24249,-12.99258 27.53859,-16.24411c9.39324,-3.28551 28.53239,-3.36805 28.53239,-3.36805c0,0 14.89017,-7.31676 23.08372,-8.64262c9.08017,-1.46935 29.01122,0.21274 29.01122,0.21274c0,0 16.42843,-2.94371 23.9891,-0.90346c8.23789,2.22302 23.58109,13.74032 23.58109,13.74032c0,0 3.39098,9.59665 3.2036,14.69653c-0.20053,5.45934 -4.37,17.05456 -4.37,17.05456c0,0 13.89716,8.77045 17.87541,14.96507c4.69776,7.3151 8.51325,26.1255 8.51325,26.1255c0,0 8.30513,11.18621 8.38241,18.10039c0.08189,7.32369 -7.90409,24.68402 -7.90409,24.68402c0,0 -13.62782,15.09689 -22.51945,20.56102c-7.80654,4.79731 -27.99977,10.48438 -27.99977,10.48438z" fill="#427340"/><path d="M594.80478,238.78162l30.86396,149.26145l-48.10338,6.26803l-13.435,-153.16318z" fill="#6b4d32"/><path d="M629.87264,231.53093c0,0 -4.41158,7.95612 -8.90701,10.56605c-5.95392,3.45669 -23.68669,8.35706 -23.68669,8.35706c0,0 -12.55609,2.756 -18.25489,2.34393c-6.31068,-0.45635 -17.96114,-4.96282 -17.96114,-4.96282c0,0 -3.2985,3.96822 -5.18743,5.24182c-2.08832,1.40797 -6.80445,2.84346 -6.80445,2.84346c0,0 -6.71608,-1.45093 -9.63537,-2.59424c-2.80389,-1.09808 -9.29017,-11.24643 -9.29017,-11.24643" fill="#427340"/></g></g></svg>