<svg version="1.1" xmlns="http://www.w3.org/2000/svg" xmlns:xlink="http://www.w3.org/1999/xlink" width="210" height="221" viewBox="0,0,210,221"><g transform="translate(-140,-90)"><g data-paper-data="{&quot;isPaintingLayer&quot;:true}" fill-rule="nonzero" stroke-linejoin="miter" stroke-miterlimit="10" stroke-dasharray="" stroke-dashoffset="0" style="mix-blend-mode: normal"><path d="M140,311v-221h210v221z" fill="none" stroke="none" stroke-width="0" stroke-linecap="butt"/><g data-paper-data="{&quot;index&quot;:null}" stroke="#000000" stroke-linecap="round"><path d="M259.15763,195.60156c0,0 16.94754,-1.59725 16.92838,5.02736c-0.05197,17.98052 -29.52623,12.06568 -29.52623,12.06568z" data-paper-data="{&quot;origPos&quot;:null}" fill="#7c7c7c" stroke-width="2"/><path d="M258.37028,197.10979c0,0 12.30081,-0.56333 12.99155,1.38252c0.21784,0.61371 -16.40348,2.51368 -16.40348,2.51368z" data-paper-data="{&quot;origPos&quot;:null}" fill="#0a0a0a" stroke-width="1"/></g><g><path d="M263.2819,243.12269c0,0 1.76322,15.68889 -0.52049,16.08942c-6.85111,1.20166 -25.04181,1.30214 -40.52043,2.11425c-1.73882,0.09123 -2.33945,-14.85764 -2.33945,-14.85764l0.10726,-30.67976c0,0 0.60352,-13.58536 2.19745,-13.66898c10.31068,-0.54096 25.68409,-2.27954 32.52583,-0.99246c2.28058,0.42903 5.12721,14.71067 5.12721,14.71067z" data-paper-data="{&quot;origPos&quot;:null}" fill="#7c7c7c" stroke="#000000" stroke-width="3.5" stroke-linecap="round"/><path d="M228.95134,225.33709c-1.34662,0.07065 -1.48869,-2.41312 -1.48869,-2.41312c-0.29465,-5.15154 -0.68402,-11.95891 -0.97866,-17.11045c0,0 -0.14205,-2.48378 1.20456,-2.55443c1.34662,-0.07065 1.48868,2.41312 1.48868,2.41312c0.29465,5.15154 0.5893,10.30306 0.88395,15.4546l0.09471,1.65585c0,0 0.14206,2.48378 -1.20455,2.55443z" fill="#ffffff" stroke="none" stroke-width="0.5" stroke-linecap="butt"/><path d="M241.82358,231.00456c-1.34662,0.07065 -1.5251,-3.04967 -1.5251,-3.04967c-0.37017,-6.47178 -0.85931,-15.02376 -1.22948,-21.49555c0,0 -0.17846,-3.12032 1.16815,-3.19097c1.34662,-0.07065 1.52509,3.04967 1.52509,3.04967c0.37017,6.47178 0.74032,12.94355 1.11049,19.41534l0.11899,2.08021c0,0 0.17847,3.12032 -1.16814,3.19097z" fill="#ffffff" stroke="none" stroke-width="0.5" stroke-linecap="butt"/></g><g fill="none" stroke="#b9b9b9" stroke-width="3"><path d="M252.3262,206.21998c-0.86403,-1.35809 0.08968,-2.57767 1.36657,-3.7957c1.2769,-1.21801 2.55845,-1.58994 3.2575,-0.61516c1.48216,2.06682 -0.07286,3.04234 -1.07272,3.99608c-1.27691,1.21803 -2.33113,2.33277 -3.55136,0.41479z" stroke-linecap="butt"/><path d="M250.64967,208.14868l2.70421,-2.51944" stroke-linecap="round"/><path d="M246.94674,208.77801c1.2769,-1.21801 2.55845,-1.58994 3.2575,-0.61516c1.48216,2.06682 -0.07286,3.04234 -1.07272,3.99608c-1.2769,1.21802 -2.33112,2.33277 -3.55134,0.41479c-0.86403,-1.35809 0.08967,-2.57767 1.36656,-3.79571z" stroke-linecap="butt"/><path d="M246.60784,211.98296l-2.70421,2.51946" stroke-linecap="round"/><path d="M238.03337,214.05014c0.41833,-1.63508 1.81539,-1.48046 3.40224,-1.02164c1.58685,0.45883 2.59794,1.43557 2.34425,2.68318c-0.53788,2.64527 -2.12317,1.77826 -3.36571,1.41899c-1.58685,-0.45882 -2.97158,-0.77137 -2.38077,-3.08052z" stroke-linecap="butt"/><path d="M235.72462,213.6477l3.31953,1.00816" stroke-linecap="round"/><path d="M230.51609,209.67439c0.93239,-1.31672 2.159,-0.52961 3.45708,0.62589c1.2981,1.1555 1.89518,2.52367 1.24372,3.55857c-1.38129,2.19428 -2.54075,0.66261 -3.55721,-0.24218c-1.29809,-1.15551 -2.46034,-2.08274 -1.14359,-3.94227z" stroke-linecap="butt"/><path d="M228.53836,208.23799l2.69922,2.46183" stroke-linecap="round"/><path d="M223.72553,203.54975c0.93239,-1.3167 2.15901,-0.52961 3.45708,0.62589c1.2981,1.1555 1.89518,2.52367 1.24372,3.55857c-1.38129,2.19427 -2.54075,0.66261 -3.5572,-0.24218c-1.29809,-1.1555 -2.46034,-2.08273 -1.14359,-3.94227z" stroke-linecap="butt"/><path d="M224.44705,204.57519l-2.69924,-2.46183" stroke-linecap="round"/></g><path d="M278.85937,253.91771c0,0 4.55503,-1.02642 6.8887,-0.26656c1.78652,0.58168 2.46974,2.38846 3.00155,4.12242c1.45969,4.7595 0.15428,9.61376 0.44007,17.32516c0.07783,2.10025 -3.10298,3.39358 -5.2963,3.33199c-2.05139,-0.05762 -5.61368,-0.27815 -5.61368,-0.27815l-34.52225,-1.70473c0,0 -4.46197,-0.36046 -5.32418,-2.06162c-2.07632,-4.09672 -0.73564,-8.62555 -1.17198,-13.16021c-0.14788,-1.53674 4.85494,-1.83404 4.85494,-1.83404c0,0 9.29078,-1.38422 15.23738,-2.27018c8.3929,-1.25044 21.50576,-3.20407 21.50576,-3.20407z" data-paper-data="{&quot;index&quot;:null}" fill="#171717" stroke="#000000" stroke-width="3" stroke-linecap="round"/><path d="M238.3739,265.47173c0,0 2.12827,3.99136 1.91503,6.34323c-0.16321,1.80045 -1.832,2.86727 -3.46311,3.77589c-4.47719,2.49399 -9.71065,2.43889 -17.46108,4.54589c-2.11088,0.57384 -4.18166,-2.07569 -4.6429,-4.1303c-0.43137,-1.92166 -1.05832,-5.28744 -1.05832,-5.28744l-6.51417,-32.51463c0,0 -0.69988,-4.23595 0.81908,-5.44402c3.65796,-2.90924 8.56989,-2.74364 13.06345,-4.23217c1.52281,-0.50445 3.01873,4.07747 3.01873,4.07747c0,0 3.62176,8.31044 5.93988,13.62958c3.27174,7.50731 8.3834,19.23654 8.3834,19.23654z" data-paper-data="{&quot;index&quot;:null}" fill="#171717" stroke="#000000" stroke-width="3" stroke-linecap="round"/><g><path d="M217.55739,201.41177c0,0 -2.08464,-4.11626 -2.23287,-5.1925c-0.44469,-3.22871 -1.42163,-17.38656 -2.26016,-30.18522c-0.12971,-1.97964 1.35284,-5.17384 1.35284,-5.17384c0,0 2.18847,-1.76266 3.5028,-1.84856c14.5009,-0.9477 28.22731,-2.94066 33.70733,-1.71941c1.82668,0.40708 5.22071,1.94388 5.22071,1.94388c0,0 1.02803,4.34225 1.24183,5.46281c0.07126,0.37352 0.11244,0.58369 0.16035,0.96061c1.43543,11.29358 1.82996,24.43853 1.74276,29.04278c-0.02906,1.53476 -1.76549,4.03378 -1.76549,4.03378c0,0 -1.26731,2.8087 -5.79919,3.89168c-4.95868,1.18495 -17.19098,1.54681 -29.80632,1.88275z" fill="#582700" stroke="#000000" stroke-width="2.5" stroke-linecap="round"/><path d="M259.31223,159.68694l-0.7787,-0.47675c-0.09521,-0.02486 -0.19033,-0.04922 -0.2854,-0.07311c-0.2098,0.32475 -0.63432,0.71418 -1.41648,0.51799c-0.7209,-0.18082 -0.92238,-0.65263 -0.96256,-1.02419c-2.78254,-0.49012 -5.54507,-0.63897 -8.43975,-0.70989c-8.08816,0.0666 -16.15424,0.73406 -24.2245,1.24188c-2.64668,0.16654 -8.50071,1.5591 -10.8266,0.01493c-1.13433,-0.75308 -0.84475,-2.70585 -1.02148,-3.75012c-0.5121,-3.02606 -1.11302,-6.15463 -1.33498,-9.21492c-0.26219,-4.00186 -2.06924,-7.47673 -2.86412,-11.36801c-0.39849,-1.95083 -1.22947,-3.88496 0.49251,-5.70052c0.4862,-0.51263 1.41634,-0.28974 2.13448,-0.37077c2.62456,-0.2961 5.18492,-0.28321 7.80991,-0.14946c8.31857,0.42386 16.51558,0.43177 24.81088,1.34342c3.34656,0.37158 6.68489,0.23146 10.05164,0.12986c1.97871,-0.05971 3.74312,-0.71215 5.07115,1.37521c0.79307,1.24653 0.54431,5.27476 0.58887,6.75716c0.17181,5.7161 1.5868,12.65844 0.72685,18.47304c0.12469,0.03093 0.24949,0.06261 0.3744,0.09506l1.3963,0.7226c0,0 1.13106,0.6237 0.47986,1.70698c-0.65121,1.08328 -1.78227,0.45959 -1.78227,0.45959z" data-paper-data="{&quot;index&quot;:null}" fill="#000000" stroke="none" stroke-width="0.5" stroke-linecap="butt"/><g data-paper-data="{&quot;index&quot;:null}" stroke="#000000" stroke-width="1.25" stroke-linecap="butt"><path d="M243.26577,202.43063c-10.91688,1.92408 -9.57004,-9.5941 -9.57004,-9.5941l15.37308,-2.56938c0,0 4.50825,10.34613 -5.80304,12.16348z" fill="#000000"/><path d="M244.0071,199.00963c2.46918,-1.21881 5.75403,-1.59026 5.61288,-1.18818c-0.72653,2.06966 -2.51103,3.93183 -6.35422,4.60917c-1.28233,0.226 -2.39544,0.26654 -3.3614,0.16206c-0.46746,-0.05056 1.41383,-2.2558 4.10273,-3.58305z" fill="#ff8484"/><path d="M249.86386,193.87463c0.00957,0.04876 -13.74001,2.40283 -13.74001,2.40283l-0.56575,-3.7522l13.51071,-2.25811c0,0 0.50469,2.128 0.79504,3.60748z" fill="#ffffff"/></g><path d="M231.94885,175.7968c0.5495,-0.02412 1.13986,2.94712 1.31866,6.6364c0.1788,3.68929 -0.12171,6.6996 -0.6712,6.7237c-0.5495,0.02412 -1.13987,-2.94711 -1.31867,-6.63639c-0.1788,-3.68929 0.1217,-6.69961 0.67121,-6.72372z" data-paper-data="{&quot;index&quot;:null}" fill="none" stroke="#580000" stroke-width="2.5" stroke-linecap="butt"/><path d="M240.78219,175.33847c0.5495,-0.02412 1.13986,2.94712 1.31866,6.6364c0.1788,3.68929 -0.12171,6.6996 -0.6712,6.7237c-0.5495,0.02412 -1.13987,-2.94711 -1.31867,-6.63639c-0.1788,-3.68929 0.1217,-6.69961 0.67121,-6.72372z" data-paper-data="{&quot;index&quot;:null}" fill="none" stroke="#580000" stroke-width="2.5" stroke-linecap="butt"/></g><g data-paper-data="{&quot;index&quot;:null}"><g data-paper-data="{&quot;origRot&quot;:0}" stroke="#000000" stroke-width="3" stroke-linecap="round"><path d="M255.87467,257.65044c-0.35219,2.4295 -9.7353,-0.46828 -9.7353,-0.46828c0,0 -25.03703,-7.03893 -36.8762,-10.31816c-4.77005,-2.04062 -0.36838,-40.84083 4.60127,-44.38931c2.21529,-1.58179 13.28685,-2.1662 14.71768,-0.54505c2.72352,3.08572 5.86439,19.87147 5.86439,19.87147l-4.65839,-0.47606l12.08995,2.30781c0,0 14.2907,1.56714 20.10587,3.74044c3.22515,1.20533 -6.10926,30.27715 -6.10926,30.27715z" data-paper-data="{&quot;origPos&quot;:null}" fill="#582700"/><path d="M245.0286,255.22853l5.74903,-29.54648" fill="none"/><path d="M245.99853,225.03935l-5.4341,29.60808" data-paper-data="{&quot;origPos&quot;:null}" fill="none"/></g><path d="M244.71346,255.80286l-3.09559,-0.58754l5.6685,-30.26395l3.0956,0.58754z" fill="#ffffff" stroke="none" stroke-width="0" stroke-linecap="butt"/><path d="M208.9153,246.95666l-1.73946,-11.11599l3.21111,-23.83658l3.22907,-7.90008l4.59158,-2.90627l8.32755,1.15096l1.66551,0.23019l5.41689,17.94729l-3.36159,-0.21169l-0.24446,1.98958l14.62034,2.77945l-4.53022,29.97728l-29.49027,-8.12262z" fill="#7c7c7c" stroke="#000000" stroke-width="0.5" stroke-linecap="round"/></g><g><g><g data-paper-data="{&quot;index&quot;:null}" stroke="#000000"><path d="M293.66205,234.82537c-2.02999,4.54106 -27.66617,9.87904 -32.53124,7.46121c-4.98952,-2.47969 -11.21836,-13.68445 -13.84676,-20.59387c-2.62838,-6.90944 -2.02157,-17.58837 -1.07714,-18.63766c2.83327,-3.14789 14.74929,-2.28836 20.091,-2.4904c3.19175,-0.12073 15.74652,-0.24906 19.43463,1.8555c3.90192,2.22658 9.33263,29.2665 7.92954,32.40517z" data-paper-data="{&quot;origRot&quot;:0,&quot;origPos&quot;:null}" fill="#582700" stroke-width="3" stroke-linecap="butt"/><path d="M262.48048,209.36483l19.74305,-3.38494" data-paper-data="{&quot;origPos&quot;:null}" fill="none" stroke-width="2" stroke-linecap="round"/><path d="M263.15124,238.25004l-3.09346,-25.16599" data-paper-data="{&quot;origPos&quot;:null}" fill="none" stroke-width="2" stroke-linecap="round"/><path d="M259.05694,239.74018c0,0 -4.7425,-29.25061 -3.00645,-32.38237c1.51982,-2.74169 28.25233,-4.78988 28.25233,-4.78988" data-paper-data="{&quot;origPos&quot;:null}" fill="none" stroke-width="1.5" stroke-linecap="round"/><path d="M256.64773,236.54541c0,0 -4.51673,-27.85808 -2.86332,-30.84073c1.44747,-2.61117 26.90731,-4.56185 26.90731,-4.56185" data-paper-data="{&quot;origPos&quot;:null}" fill="none" stroke-width="1.5" stroke-linecap="round"/></g><path d="M265.90405,202.32468l-12.21739,3.47697l0.0196,10.99579l1.95978,14.17479l0.38417,6.00492l-10.25786,-20.18964l0.78423,-14.55024l19.343,-1.19749z" fill="#616161" stroke="#000000" stroke-width="0.5" stroke-linecap="round"/><path d="M253.8515,206.51254l1.39456,-0.38444l3.35232,32.33251l-1.39456,0.38443z" fill="#ffffff" stroke="none" stroke-width="0" stroke-linecap="butt"/><path d="M281.74451,200.79818l0.37778,1.37009l-27.36648,4.56224l-0.37777,-1.37009z" fill="#ffffff" stroke="none" stroke-width="0" stroke-linecap="butt"/><path d="M257.3232,236.40935l0.59014,0.57528c0.35052,0.38162 0.70103,0.76321 1.05154,1.14483c0,0 1.04792,1.14087 -0.15818,2.11372c-1.20611,0.97286 -2.25404,-0.16802 -2.25404,-0.16802c-0.35052,-0.38162 -0.70103,-0.76321 -1.05154,-1.14482l-0.46291,-0.44464c0,0 -1.11692,-1.08178 0.02557,-2.11994c1.14249,-1.03817 2.25943,0.0436 2.25943,0.0436z" fill="#000000" stroke="none" stroke-width="0.5" stroke-linecap="butt"/><path d="M255.79611,205.56248c0.00039,0.0001 0.0008,0.0002 0.00118,0.00031l0.03521,-0.14087l0.55225,0.12612c0.24315,0.05055 0.42428,0.25602 0.42135,0.49816c-0.0024,0.19948 -0.12904,0.36924 -0.31016,0.44589l-0.46556,0.20824c-0.44872,0.28886 -0.65874,0.37645 -0.75967,0.89463c0,0 -0.12141,0.48555 -0.63998,0.36713c-0.24466,-0.05588 -0.34687,-0.19348 -0.38658,-0.32325c-0.16648,-0.06413 -0.2911,-0.2044 -0.32508,-0.37356l-0.11677,-0.52182l0.09944,-0.01877c-0.18222,-0.44362 -0.05625,-0.78234 0.5916,-1.33777l0.64149,-0.20631c0,0 0.51373,-0.12739 0.65423,0.35588c0.00255,0.00878 0.00488,0.01746 0.00702,0.026z" fill="#ffffff" stroke="none" stroke-width="0.5" stroke-linecap="butt"/><path d="M282.88317,202.96569c-0.36943,-0.88732 -2.09522,-1.46019 -3.02983,-1.78137l-0.4672,-0.00902c-0.29412,-0.00567 -0.52985,-0.23399 -0.52653,-0.50995c0.00333,-0.27596 0.24446,-0.49508 0.53858,-0.4894v0v0l0.53256,0.01028l-0.00052,0.04302l0.08575,-0.03493c0.04469,0.01449 0.08979,0.02922 0.13527,0.0442c0.59073,-0.36785 2.17284,0.26965 2.76252,0.55782l0.22505,0.18128c0,0 0.37231,0.36058 -0.00852,0.70664c-0.00405,0.00366 -0.00808,0.00726 -0.01214,0.01079c0.29346,0.24712 0.54248,0.52586 0.72309,0.84209c0,0 0.23278,0.45153 -0.24625,0.66579c-0.47901,0.21427 -0.71179,-0.23725 -0.71179,-0.23725z" fill="#000000" stroke="none" stroke-width="0.5" stroke-linecap="butt"/></g><path d="M249.48738,204.72948c0,0 -1.00746,4.80631 -0.47722,11.9923c0.53771,7.28695 2.18413,13.02969 2.18413,13.02969l1.78671,0.40164c0,0 -0.55458,3.00161 -2.52518,2.79556c-4.8231,-0.50433 -6.39876,-31.81544 -1.7422,-31.60211c2.91042,0.13334 2.84688,4.3091 2.84688,4.3091z" fill="#fffc96" stroke="#000000" stroke-width="2" stroke-linecap="round"/><path d="M280.86133,200.21463c0,0 -6.37249,-0.20345 -15.22483,1.4695c-8.85236,1.67296 -14.37932,3.74522 -14.37932,3.74522l0.96657,1.024c0,0 -3.46945,1.57325 -5.42203,-0.52482c-3.22404,-3.4643 35.74085,-11.41542 38.03531,-7.25362c1.09306,1.98262 -3.20742,2.59064 -3.20742,2.59064z" data-paper-data="{&quot;index&quot;:null}" fill="#fffc96" stroke="#000000" stroke-width="2" stroke-linecap="round"/></g></g></g></svg>