<svg version="1.1" xmlns="http://www.w3.org/2000/svg" xmlns:xlink="http://www.w3.org/1999/xlink" width="469.82113" height="361.96717" viewBox="0,0,469.82113,361.96717"><g transform="translate(-5.08943,0.98358)"><g data-paper-data="{&quot;isPaintingLayer&quot;:true}" fill-rule="nonzero" stroke-linejoin="miter" stroke-miterlimit="10" stroke-dasharray="" stroke-dashoffset="0" style="mix-blend-mode: normal"><g data-paper-data="{&quot;origRot&quot;:0,&quot;index&quot;:null}" stroke="#000000" stroke-linecap="round"><path d="M74.89752,348.15184c0,0 1.08347,4.34878 0.35292,6.59362c-0.55923,1.71852 -2.35729,2.39649 -4.08444,2.92848c-4.74079,1.4602 -9.611,0.27361 -17.31817,0.64825c-2.09908,0.10204 -3.4322,-2.92722 -3.39811,-5.0285c0.0319,-1.96534 0.20774,-5.37972 0.20774,-5.37972l1.27174,-33.08336c0,0 0.30448,-4.27786 1.99471,-5.12584c4.07035,-2.04208 8.61557,-0.81741 13.14439,-1.29467c1.53475,-0.16173 1.89477,4.62546 1.89477,4.62546z" data-paper-data="{&quot;origPos&quot;:null}" fill="#ff0000" stroke-width="3"/><path d="M50.63529,349.00129l23.30036,-1.04809c0,0 1.26345,2.43403 1.30321,4.12185c0.03774,1.60221 -1.10465,4.30853 -1.10465,4.30853c0,0 -8.34615,1.68907 -12.2369,1.99765c-5.07113,0.4022 -11.19772,-1.74429 -11.19772,-1.74429z" data-paper-data="{&quot;origPos&quot;:null}" fill="#976e57" stroke-width="2"/><path d="M74.84176,348.47812c0,0 1.08345,4.34879 0.35291,6.59363c-0.55923,1.71851 -2.35728,2.39648 -4.08444,2.92846c-4.74079,1.4602 -9.61099,0.27361 -17.31815,0.64825c-2.09907,0.10204 -3.43219,-2.92722 -3.39811,-5.0285c0.03189,-1.96533 0.20774,-5.37972 0.20774,-5.37972l1.27173,-33.08336c0,0 0.30449,-4.27784 1.99471,-5.12581c4.07035,-2.04208 8.61557,-0.81743 13.14439,-1.2947c1.53475,-0.16173 1.89477,4.62545 1.89477,4.62545z" data-paper-data="{&quot;origPos&quot;:null}" fill="#474747" stroke-width="3"/></g><g data-paper-data="{&quot;origRot&quot;:0,&quot;index&quot;:null}" stroke="#000000" stroke-width="3" stroke-linecap="round"><path d="M406.81865,137.42786c0.6396,-3.01307 28.80968,0.57734 28.80968,0.57734c2.29155,-0.0745 0.99222,8.59564 0.99222,8.59564l-4.40895,29.02303c0,0 -1.13279,7.04969 -2.3708,6.9858c-7.44811,-0.38443 -14.76838,0.81174 -18.32643,-0.78507c-1.18602,-0.53228 -1.73719,-7.35866 -1.73719,-7.35866l-3.46642,-18.84899c0,0 -0.64535,-12.75635 0.50789,-18.18911z" data-paper-data="{&quot;origPos&quot;:null}" fill="#582600"/><path d="M407.18922,146.49112l28.0833,0.37715" fill="none"/><path d="M407.29563,150.77581l28.09404,0.09175" data-paper-data="{&quot;origPos&quot;:null}" fill="none"/></g><path d="M437.10713,147.93556l-0.06942,2.17995l-30.72805,-0.58937l0.06942,-2.17994z" fill="#ffffff" stroke="none" stroke-width="0" stroke-linecap="butt"/><path d="M407.58657,151.92228l28.60637,-0.01207l-5.26613,29.86607l-19.29421,0.17791z" fill="#ffcb66" stroke="#000000" stroke-width="0.5" stroke-linecap="round"/><g><g data-paper-data="{&quot;index&quot;:null}" stroke="#000000"><path d="M366.89604,101.09701c-1.28148,-3.16707 4.12213,-30.11341 7.80991,-32.26558c3.48568,-2.03424 15.26884,-1.66347 18.26343,-1.48107c5.01173,0.30525 16.20651,-0.32458 18.83034,2.87931c0.87461,1.06796 1.32332,11.76305 -1.22204,18.62462c-2.54537,6.86156 -8.51893,17.95074 -13.23045,20.33513c-4.594,2.32491 -28.59713,-3.51022 -30.45119,-8.09236z" data-paper-data="{&quot;origRot&quot;:0,&quot;origPos&quot;:null}" fill="#582600" stroke-width="3" stroke-linecap="butt"/><path d="M377.9594,72.4604l18.49361,3.76751" data-paper-data="{&quot;origPos&quot;:null}" fill="none" stroke-width="2" stroke-linecap="round"/><path d="M398.685,79.99544l-3.18856,25.11675" data-paper-data="{&quot;origPos&quot;:null}" fill="none" stroke-width="2" stroke-linecap="round"/><path d="M376.04626,69.00686c0,0 25.06944,2.56514 26.465,5.33731c1.59412,3.16658 -3.18855,32.33782 -3.18855,32.33782" data-paper-data="{&quot;origPos&quot;:null}" fill="none" stroke-width="1.5" stroke-linecap="round"/><path d="M379.45199,67.6509c0,0 23.87593,2.44302 25.20506,5.08322c1.51823,3.01581 -3.03675,30.79829 -3.03675,30.79829" data-paper-data="{&quot;origPos&quot;:null}" fill="none" stroke-width="1.5" stroke-linecap="round"/></g><path d="M393.31915,67.83303l18.14286,1.57143l0.57143,14.57143l-9.85714,20l0.42857,-6l2,-14.14286l0.14286,-11l-11.42857,-3.71429z" fill="#ffcb66" stroke="#000000" stroke-width="0.5" stroke-linecap="round"/><path d="M401.07229,105.82227l-1.30466,-0.41152l3.51265,-32.28126l1.30466,0.41152z" fill="#ffffff" stroke="none" stroke-width="0" stroke-linecap="butt"/><path d="M404.10375,72.37824l-0.37011,1.36337l-25.63606,-5.09246l0.37011,-1.36337z" fill="#ffffff" stroke="none" stroke-width="0" stroke-linecap="butt"/><path d="M403.10911,103.38325c1.06066,1.06066 0,2.12132 0,2.12132l-0.43955,0.43589c-0.33333,0.375 -0.66667,0.75 -1,1.125c0,0 -0.99655,1.12111 -2.11766,0.12457c-1.12111,-0.99655 -0.12457,-2.11766 -0.12457,-2.11766c0.33333,-0.375 0.66667,-0.75 1,-1.125l0.56045,-0.56411c0,0 1.06066,-1.06066 2.12132,0z" fill="#000000" stroke="none" stroke-width="0.5" stroke-linecap="butt"/><path d="M402.77036,72.55301c0.00209,-0.00851 0.00439,-0.01714 0.00688,-0.02587c0.13736,-0.48076 0.61812,-0.3434 0.61812,-0.3434l0.5998,0.21878c0.60182,0.56818 0.71623,0.90946 0.54017,1.34975l0.09312,0.02069l-0.11551,0.5198c-0.0338,0.16857 -0.15237,0.30649 -0.30936,0.36743c-0.03874,0.12906 -0.13623,0.26475 -0.36652,0.31593c-0.48809,0.10847 -0.59656,-0.37963 -0.59656,-0.37963c-0.08888,-0.52035 -0.285,-0.61203 -0.70294,-0.90967l-0.43465,-0.21732c-0.16912,-0.08017 -0.28608,-0.25246 -0.28608,-0.45206c0,-0.2423 0.17235,-0.44435 0.40115,-0.49023l0.5198,-0.11551l0.03147,0.1416c0.00037,-0.0001 0.00074,-0.0002 0.00112,-0.00029z" fill="#ffffff" stroke="none" stroke-width="0.5" stroke-linecap="butt"/><path d="M377.37434,69.43222c0,0 -0.22361,0.44721 -0.67082,0.22361c-0.44721,-0.22361 -0.22361,-0.67082 -0.22361,-0.67082c0.17311,-0.31288 0.41001,-0.58692 0.68826,-0.82848c-0.00376,-0.0036 -0.00751,-0.00727 -0.01127,-0.01103c-0.35355,-0.35355 0,-0.70711 0,-0.70711l0.21328,-0.17699c0.55678,-0.27692 2.04905,-0.88415 2.59938,-0.50473c0.04285,-0.0141 0.08536,-0.02796 0.12747,-0.0416l0.08009,0.0366v-0.04305h0.5v0v0c0.27614,0 0.5,0.22386 0.5,0.5c0,0.27614 -0.22386,0.5 -0.5,0.5h-0.43865c-0.88092,0.30326 -2.50733,0.84306 -2.86413,1.72361z" fill="#000000" stroke="none" stroke-width="0.5" stroke-linecap="butt"/></g><g><g data-paper-data="{&quot;index&quot;:null}" stroke="#000000"><path d="M468.00313,100.59706c-1.93226,4.58214 -26.94781,10.41727 -31.73558,8.09236c-4.91024,-2.38439 -11.13576,-13.47357 -13.78849,-20.33513c-2.65272,-6.86157 -2.18508,-17.55666 -1.27358,-18.62462c2.7345,-3.20389 14.40146,-2.57406 19.62458,-2.87931c3.1209,-0.1824 15.40106,-0.55317 19.03376,1.48107c3.84332,2.15217 9.47485,29.09851 8.13932,32.26558z" data-paper-data="{&quot;origRot&quot;:0,&quot;origPos&quot;:null}" fill="#582600" stroke-width="3" stroke-linecap="butt"/><path d="M437.19949,75.72791l19.27365,-3.76751" data-paper-data="{&quot;origPos&quot;:null}" fill="none" stroke-width="2" stroke-linecap="round"/><path d="M438.19641,104.61219l-3.32305,-25.11675" data-paper-data="{&quot;origPos&quot;:null}" fill="none" stroke-width="2" stroke-linecap="round"/><path d="M434.20875,106.18199c0,0 -4.9844,-29.17124 -3.32304,-32.33782c1.45442,-2.77217 27.58126,-5.33731 27.58126,-5.33731" data-paper-data="{&quot;origPos&quot;:null}" fill="none" stroke-width="1.5" stroke-linecap="round"/><path d="M431.81425,103.03242c0,0 -4.74711,-27.78248 -3.16484,-30.79829c1.38519,-2.6402 26.26818,-5.08322 26.26818,-5.08322" data-paper-data="{&quot;origPos&quot;:null}" fill="none" stroke-width="1.5" stroke-linecap="round"/></g><path d="M440.46554,68.61874l-11.91062,3.71429l0.14889,11l2.08436,14.14286l0.44665,6l-10.27291,-20l0.59553,-14.57143l18.9081,-1.57143z" fill="#ffcb66" stroke="#000000" stroke-width="0.5" stroke-linecap="round"/><path d="M428.72457,73.04101l1.35969,-0.41152l3.66081,32.28126l-1.35969,0.41152z" fill="#ffffff" stroke="none" stroke-width="0" stroke-linecap="butt"/><path d="M455.94342,66.78578l0.38572,1.36337l-26.71736,5.09247l-0.38572,-1.36337z" fill="#ffffff" stroke="none" stroke-width="0" stroke-linecap="butt"/><path d="M432.47344,102.88325l0.58409,0.56412c0.3474,0.375 0.69479,0.75 1.04218,1.125c0,0 1.03858,1.12111 -0.12982,2.11766c-1.1684,0.99654 -2.20698,-0.12457 -2.20698,-0.12457c-0.3474,-0.375 -0.69479,-0.75 -1.04218,-1.125l-0.45808,-0.43589c0,0 -1.1054,-1.06066 0,-2.12132c1.10539,-1.06066 2.21079,0 2.21079,0z" fill="#000000" stroke="none" stroke-width="0.5" stroke-linecap="butt"/><path d="M430.61567,72.05301c0.00039,0.00009 0.00078,0.00019 0.00117,0.00029l0.03279,-0.1416l0.54172,0.11551c0.23845,0.04588 0.41807,0.24793 0.41807,0.49023c0,0.19961 -0.12189,0.37189 -0.29815,0.45206l-0.45298,0.21732c-0.43556,0.29764 -0.63996,0.38932 -0.73259,0.90967c0,0 -0.11304,0.48809 -0.62172,0.37963c-0.24,-0.05117 -0.34161,-0.18686 -0.38198,-0.31592c-0.16361,-0.06094 -0.28718,-0.19887 -0.32241,-0.36744l-0.12038,-0.51979l0.09705,-0.0207c-0.18349,-0.44029 -0.06425,-0.78158 0.56295,-1.34975l0.6251,-0.21878c0,0 0.50105,-0.13736 0.6442,0.3434c0.0026,0.00873 0.00499,0.01736 0.00717,0.02587z" fill="#ffffff" stroke="none" stroke-width="0.5" stroke-linecap="butt"/><path d="M457.08288,68.93222c-0.37185,-0.88055 -2.06687,-1.42035 -2.98494,-1.72361h-0.45715c-0.28779,0 -0.52109,-0.22386 -0.52109,-0.5c0,-0.27614 0.2333,-0.5 0.52109,-0.5v0v0h0.52109v0.04306l0.08347,-0.0366c0.04389,0.01364 0.08819,0.02749 0.13285,0.0416c0.57353,-0.37941 2.12875,0.22781 2.70901,0.50473l0.22228,0.177c0,0 0.36847,0.35355 0,0.70711c-0.00392,0.00375 -0.00784,0.00742 -0.01175,0.01102c0.28999,0.24156 0.53688,0.5156 0.71729,0.82848c0,0 0.23304,0.44722 -0.23304,0.67082c-0.46607,0.22361 -0.69911,-0.2236 -0.69911,-0.2236z" fill="#000000" stroke="none" stroke-width="0.5" stroke-linecap="butt"/></g><g><g data-paper-data="{&quot;origRot&quot;:0}" stroke="#000000" stroke-width="3" stroke-linecap="round"><path d="M470.79249,258.65753c-0.00671,2.45001 -8.65676,1.0115 -8.65676,1.0115c0,0 -22.99413,-3.15454 -33.86109,-4.59761c-4.46848,-1.29113 -5.44133,-40.23381 -1.49671,-44.48654c1.75839,-1.89573 11.46341,-4.14795 12.93019,-2.76524c2.79191,2.63185 7.66857,18.71565 7.66857,18.71565l-4.17385,0.23542l10.96677,0.44682c0,0 12.81766,-0.61693 18.22579,0.6469c2.99939,0.70093 -1.60291,30.79311 -1.60291,30.79311z" data-paper-data="{&quot;origPos&quot;:null}" fill="#582600"/><path d="M462.2863,227.89209l-1.3763,30.01777" fill="none"/><path d="M456.89451,258.01224l1.09042,-30.03087" data-paper-data="{&quot;origPos&quot;:null}" fill="none"/></g><path d="M460.70363,258.52413l-2.8076,-0.11109l1.2153,-30.71339l2.8076,0.11109z" fill="#ffffff" stroke="none" stroke-width="0" stroke-linecap="butt"/><path d="M427.97902,255.21547l-2.92874,-10.70269l-0.14992,-24.00083l1.86227,-8.28218l3.69116,-3.562l7.49896,-0.12496l1.49979,-0.02499l7.03231,16.88517l-2.99542,0.29995l0.03333,1.99973l13.26066,0.52913l-0.24587,30.2583l-27.0629,-3.54958z" fill="#ffcb66" stroke="#000000" stroke-width="0.5" stroke-linecap="round"/></g><g data-paper-data="{&quot;origRot&quot;:0}" stroke="#000000" stroke-width="3" stroke-linecap="round"><path d="M356.03004,256.42867c0,0 -2.9539,-30.27161 0.31351,-30.83575c5.89136,-1.0172 19.61559,0.18074 19.61559,0.18074l11.80685,0.05123l-4.46679,-0.42458c0,0 6.29995,-15.8468 9.47213,-18.3494c1.66656,-1.3148 11.94005,1.37558 13.70312,3.34924c3.95514,4.42758 0.33693,43.28806 -4.54712,44.37516c-11.76551,0.94858 -36.66756,3.05667 -36.66756,3.05667c0,0 -9.38442,1.04461 -9.22972,-1.40331z" data-paper-data="{&quot;origPos&quot;:null}" fill="#582600"/><path d="M366.69233,256.13015l0.50564,-30.0509" fill="none"/><path d="M370.99784,256.41466l0.8135,-30.05102" data-paper-data="{&quot;origPos&quot;:null}" fill="none"/></g><path d="M367.59788,226.01468l3.02244,0.01642l-0.72451,30.73851l-3.02244,-0.01642z" fill="#ffffff" stroke="none" stroke-width="0" stroke-linecap="butt"/><path d="M400.64728,254.5901l-29.29767,2.31812l1.7355,-30.23989l14.27571,0.0731l0.16793,-1.99625l-3.19699,-0.43557l8.66788,-16.54958l1.60899,0.09302l8.04494,0.46511l3.72859,3.726l1.45259,8.35858l-1.74703,23.97058l-3.85246,10.55933z" fill="#ffcb66" stroke="#000000" stroke-width="0.5" stroke-linecap="round"/><g><g data-paper-data="{&quot;origRot&quot;:0,&quot;index&quot;:null}" stroke="#000000" stroke-width="3" stroke-linecap="round"><path d="M60.37083,114.50131c-2.01435,0.27197 -1.81174,-7.00015 -1.81174,-7.00015c0,0 -0.06984,-14.20926 -0.11454,-23.30392c-0.02935,-5.97193 -0.07523,-15.30233 -0.07523,-15.30233c0,0 0.23209,-5.91996 1.33167,-5.98098c6.61533,-0.36701 12.94572,-2.02628 16.25982,-1.03575c1.10471,0.33018 2.33452,5.91123 2.33452,5.91123l6.03241,29.48935c0,0 1.95869,10.46455 1.53247,15.05246c-0.23638,2.54451 -25.4894,2.17007 -25.4894,2.17007z" data-paper-data="{&quot;origPos&quot;:null}" fill="#582600"/><path d="M84.54624,104.88818l-24.82653,2.26851" fill="none"/><path d="M83.9857,101.36314l-24.80491,2.50496" data-paper-data="{&quot;origPos&quot;:null}" fill="none"/></g><path d="M59.09679,102.97883l0.35625,-38.76194l15.7471,-1.48713l1.33714,0.5653l7.6504,37.36363z" fill="#ffcb66" stroke="#000000" stroke-width="1" stroke-linecap="round"/><path d="M59.17328,107.12656l-0.21981,-2.32071l25.38721,-2.4045l0.21981,2.32071z" fill="#ffffff" stroke="none" stroke-width="0" stroke-linecap="butt"/></g><g data-paper-data="{&quot;origRot&quot;:0}" stroke="#000000" stroke-linecap="round"><path d="M49.5574,121.40069c0,0 -0.1413,-4.79862 1.40195,-4.79787c4.55389,0.00226 8.94659,-1.68985 13.20773,-0.08348c1.76945,0.66704 2.5185,4.88981 2.5185,4.88981l4.7157,32.77023c0,0 0.53104,3.37741 0.76776,5.3287c0.25309,2.08626 -0.75677,5.23806 -2.85505,5.35552c-7.7042,0.43133 -12.42407,2.11945 -17.29132,1.16172c-1.77322,-0.34892 -3.63218,-0.83563 -4.36762,-2.48644c-0.96071,-2.15639 -0.33678,-6.59447 -0.33678,-6.59447z" data-paper-data="{&quot;origPos&quot;:null}" fill="#ff0000" stroke-width="3"/><path d="M72.26932,162.85916c0,0 -5.86927,2.77384 -10.95469,2.9028c-3.90171,0.09894 -12.37852,-0.71033 -12.37852,-0.71033c0,0 -1.41846,-2.57239 -1.54804,-4.1698c-0.13652,-1.68278 0.86615,-4.2353 0.86615,-4.2353l23.28258,-1.38808z" data-paper-data="{&quot;origPos&quot;:null}" fill="#976e57" stroke-width="2"/><path d="M49.6469,121.71936c0,0 -0.1413,-4.79862 1.40195,-4.79786c4.55388,0.00226 8.94659,-1.68985 13.20774,-0.08346c1.76945,0.66704 2.51849,4.8898 2.51849,4.8898l4.7157,32.77023c0,0 0.53106,3.37742 0.76778,5.3287c0.25309,2.08626 -0.75678,5.23805 -2.85505,5.35552c-7.7042,0.43133 -12.42407,2.11946 -17.29132,1.16173c-1.77322,-0.34892 -3.63217,-0.83565 -4.36761,-2.48644c-0.96071,-2.15639 -0.33679,-6.59447 -0.33679,-6.59447z" data-paper-data="{&quot;origPos&quot;:null}" fill="#474747" stroke-width="3"/></g><g data-paper-data="{&quot;index&quot;:null,&quot;origRot&quot;:0}" stroke="#000000" stroke-linecap="round"><path d="M48.10423,157.25188c0,0 0.57104,4.4452 -0.41525,6.59c-0.75505,1.64194 -2.61966,2.10648 -4.3969,2.43428c-4.8783,0.89975 -9.57774,-0.84446 -17.27626,-1.36744c-2.09673,-0.14244 -3.06901,-3.30603 -2.79111,-5.38913c0.25993,-1.94832 0.83113,-5.31917 0.83113,-5.31917l5.1054,-32.71179c0,0 0.79925,-4.21354 2.5765,-4.85947c4.27996,-1.55554 8.6522,0.18871 13.20579,0.24067c1.54314,0.01761 1.34475,4.8142 1.34475,4.8142z" data-paper-data="{&quot;origPos&quot;:null}" fill="#ff0000" stroke-width="3"/><path d="M23.90752,155.27784l23.26438,1.66508c0,0 0.97223,2.56428 0.81569,4.24531c-0.14859,1.59577 -1.59757,4.15108 -1.59757,4.15108c0,0 -8.48584,0.70832 -12.38608,0.56295c-5.08351,-0.18948 -10.91935,-3.03297 -10.91935,-3.03297z" data-paper-data="{&quot;origPos&quot;:null}" fill="#976e57" stroke-width="2.5"/><path d="M48.01095,157.56948c0,0 0.57104,4.4452 -0.41525,6.59c-0.75505,1.64194 -2.61966,2.10649 -4.3969,2.43429c-4.8783,0.89975 -9.57773,-0.84446 -17.27626,-1.36744c-2.09673,-0.14244 -3.06901,-3.30603 -2.79111,-5.38912c0.25993,-1.94832 0.83113,-5.31917 0.83113,-5.31917l5.1054,-32.71179c0,0 0.79924,-4.21354 2.5765,-4.85947c4.27996,-1.55554 8.65222,0.18871 13.2058,0.24067c1.54314,0.01761 1.34474,4.8142 1.34474,4.8142c0,0 0.45918,8.99361 0.75308,14.75c0.4148,8.12444 1.06287,20.81786 1.06287,20.81786z" data-paper-data="{&quot;origPos&quot;:null}" fill="#474747" stroke-width="1.5"/></g><g><g data-paper-data="{&quot;origRot&quot;:0,&quot;index&quot;:null}" stroke="#000000" stroke-width="3" stroke-linecap="round"><path d="M158.90427,112.16797c-2.01434,0.27197 -1.81174,-7.00015 -1.81174,-7.00015c0,0 -0.06984,-14.20926 -0.11456,-23.30392c-0.02935,-5.97193 -0.07523,-15.30233 -0.07523,-15.30233c0,0 0.23209,-5.91996 1.33167,-5.98098c6.61533,-0.36701 12.94572,-2.02628 16.25982,-1.03575c1.10471,0.33018 2.33452,5.91123 2.33452,5.91123l6.03241,29.48935c0,0 1.9587,10.46455 1.53249,15.05246c-0.23638,2.54451 -25.4894,2.17007 -25.4894,2.17007z" data-paper-data="{&quot;origPos&quot;:null}" fill="#582600"/><path d="M158.25314,104.82335l24.82653,-2.26851" fill="none"/><path d="M157.71423,101.53476l24.80492,-2.50496" data-paper-data="{&quot;origPos&quot;:null}" fill="none"/></g><path d="M157.63023,100.64549l0.35625,-38.76194l15.74709,-1.48713l1.33714,0.5653l7.65042,37.36363z" fill="#ffcb66" stroke="#000000" stroke-width="1" stroke-linecap="round"/><path d="M157.70674,104.79322l-0.21981,-2.32071l25.38721,-2.4045l0.21981,2.32071z" fill="#ffffff" stroke="none" stroke-width="0" stroke-linecap="butt"/></g><g><g stroke="#000000" stroke-width="3" stroke-linecap="round"><path d="M103.71078,94.11942l7.89838,-29.04526c0,0 1.5828,-5.4914 2.70627,-5.75054c3.37046,-0.77744 9.58231,1.28163 16.16085,2.06925c1.09348,0.13092 0.94803,6.05365 0.94803,6.05365c0,0 -0.64003,9.30853 -1.0497,15.26645c-0.62387,9.07333 -1.59858,23.24931 -1.59858,23.24931c0,0 -0.26097,7.27026 -2.25392,6.87055c0,0 -9.63714,2.60367 -25.29943,-3.78911c-0.43173,-4.58738 2.48808,-14.92429 2.48808,-14.92429z" data-paper-data="{&quot;origPos&quot;:null}" fill="#582600"/><path d="M103.52943,96.21366l25.34773,4.26772l-0.5173,3.36246l-25.34773,-4.00908z" data-paper-data="{&quot;origPos&quot;:null}" fill="none"/></g><path d="M104.3209,95.87346l9.82048,-36.10471l15.59724,2.59955l1.15535,0.86652l-1.73302,36.8268z" fill="#ffcb66" stroke="#000000" stroke-width="1" stroke-linecap="round"/><path d="M103.28178,99.39487l0.36699,-2.30203l25.18283,4.01465l-0.36699,2.30203z" fill="#ffffff" stroke="none" stroke-width="0" stroke-linecap="butt"/></g><path d="M121.99489,77.14097l-0.93651,6.89614" fill="none" stroke="#000000" stroke-width="3" stroke-linecap="round"/><path d="M160.90274,85.31418l-0.85138,-7.66238" fill="none" stroke="#000000" stroke-width="3" stroke-linecap="round"/><path d="M126.0815,60.8797l11.49355,-0.93652h14.98421" fill="none" stroke="#000000" stroke-width="3" stroke-linecap="round"/><g data-paper-data="{&quot;origRot&quot;:0}" stroke="#000000" stroke-linecap="round"><path d="M143.42418,122.34748c0,0 -0.1413,-4.79862 1.40195,-4.79787c4.55388,0.00226 8.94658,-1.68985 13.20773,-0.08348c1.76946,0.66704 2.5185,4.88981 2.5185,4.88981l4.71571,32.77023c0,0 0.53104,3.37741 0.76776,5.3287c0.25309,2.08626 -0.75678,5.23806 -2.85505,5.35552c-7.7042,0.43133 -12.42406,2.11945 -17.2913,1.16172c-1.77321,-0.34892 -3.63218,-0.83565 -4.36762,-2.48646c-0.96071,-2.15639 -0.33679,-6.59446 -0.33679,-6.59446z" data-paper-data="{&quot;origPos&quot;:null}" fill="#ff0000" stroke-width="3"/><path d="M166.13609,163.80594c0,0 -5.86927,2.77384 -10.95469,2.9028c-3.90171,0.09894 -12.37851,-0.71033 -12.37851,-0.71033c0,0 -1.41844,-2.57239 -1.54804,-4.1698c-0.13652,-1.68278 0.86615,-4.2353 0.86615,-4.2353l23.28256,-1.38808z" data-paper-data="{&quot;origPos&quot;:null}" fill="#976e57" stroke-width="2"/><path d="M143.51368,122.66615c0,0 -0.1413,-4.79862 1.40195,-4.79787c4.55388,0.00226 8.94659,-1.68983 13.20774,-0.08346c1.76946,0.66704 2.5185,4.8898 2.5185,4.8898l4.7157,32.77023c0,0 0.53105,3.37742 0.76776,5.3287c0.25309,2.08626 -0.75678,5.23805 -2.85505,5.35552c-7.7042,0.43133 -12.42407,2.11946 -17.29132,1.16173c-1.77321,-0.34892 -3.63217,-0.83565 -4.36761,-2.48644c-0.96071,-2.15639 -0.33679,-6.59447 -0.33679,-6.59447z" data-paper-data="{&quot;origPos&quot;:null}" fill="#474747" stroke-width="3"/></g><g data-paper-data="{&quot;index&quot;:null,&quot;origRot&quot;:0}" stroke="#000000" stroke-linecap="round"><path d="M141.971,158.19866c0,0 0.57104,4.4452 -0.41525,6.58999c-0.75504,1.64194 -2.61966,2.10649 -4.3969,2.43429c-4.87829,0.89975 -9.57775,-0.84446 -17.27627,-1.36744c-2.09674,-0.14244 -3.069,-3.30603 -2.7911,-5.38913c0.25991,-1.94832 0.83112,-5.31917 0.83112,-5.31917l5.1054,-32.71179c0,0 0.79925,-4.21354 2.5765,-4.85947c4.27996,-1.55554 8.6522,0.18871 13.20579,0.24067c1.54314,0.01761 1.34475,4.8142 1.34475,4.8142z" data-paper-data="{&quot;origPos&quot;:null}" fill="#ff0000" stroke-width="3"/><path d="M117.7743,156.22461l23.26439,1.66508c0,0 0.97222,2.56427 0.81568,4.2453c-0.1486,1.59577 -1.59757,4.15108 -1.59757,4.15108c0,0 -8.48584,0.70833 -12.38608,0.56296c-5.08351,-0.18948 -10.91935,-3.03297 -10.91935,-3.03297z" data-paper-data="{&quot;origPos&quot;:null}" fill="#976e57" stroke-width="2.5"/><path d="M141.87772,158.51627c0,0 0.57104,4.4452 -0.41525,6.59c-0.75504,1.64194 -2.61966,2.10648 -4.3969,2.43428c-4.87829,0.89975 -9.57774,-0.84446 -17.27626,-1.36744c-2.09674,-0.14244 -3.06901,-3.30603 -2.79111,-5.38912c0.25991,-1.94832 0.83113,-5.31917 0.83113,-5.31917l5.1054,-32.71179c0,0 0.79925,-4.21354 2.57652,-4.85947c4.27996,-1.55554 8.65221,0.18871 13.20579,0.24067c1.54314,0.01761 1.34475,4.8142 1.34475,4.8142c0,0 0.45918,8.99361 0.75307,14.75c0.4148,8.12444 1.06287,20.81786 1.06287,20.81786z" data-paper-data="{&quot;origPos&quot;:null}" fill="#474747" stroke-width="1.5"/></g><g data-paper-data="{&quot;index&quot;:null}"><g data-paper-data="{&quot;origRot&quot;:0,&quot;index&quot;:null}" stroke="#000000" stroke-width="3" stroke-linecap="round"><path d="M311.63345,112.77293c0,0 -25.25572,-0.06228 -25.44807,-2.61048c-0.34681,-4.59459 1.79252,-15.0237 1.79252,-15.0237l6.54141,-29.38064c0,0 1.32612,-5.55895 2.43638,-5.86998c3.33075,-0.93307 9.63149,0.83539 16.23949,1.31674c1.09837,0.08003 1.22806,6.00311 1.22806,6.00311c0,0 -0.2072,9.32822 -0.33981,15.29874c-0.20197,9.09253 -0.51749,23.29845 -0.51749,23.29845c0,0 0.07683,7.27455 -1.9325,6.96779z" data-paper-data="{&quot;origPos&quot;:null}" fill="#582600"/><path d="M287.62787,102.74323l24.78358,2.69745" fill="none"/><path d="M288.24925,99.2284l24.75788,2.93347" data-paper-data="{&quot;origPos&quot;:null}" fill="none"/></g><path d="M288.0595,98.52057l8.29532,-37.22576l1.34672,-0.54209l15.71902,1.75919l-0.31404,38.76231z" fill="#ffcb66" stroke="#000000" stroke-width="1" stroke-linecap="round"/><path d="M287.61646,102.5769l0.2599,-2.31657l25.34184,2.84311l-0.25989,2.31656z" fill="#ffffff" stroke="none" stroke-width="0" stroke-linecap="butt"/></g><g data-paper-data="{&quot;origRot&quot;:0,&quot;index&quot;:null}" stroke="#000000" stroke-linecap="round"><path d="M323.84885,155.77197c0,0 0.62393,4.43807 -0.33679,6.59447c-0.73544,1.65081 -2.59441,2.13753 -4.36762,2.48644c-4.86725,0.95773 -9.5871,-0.7304 -17.2913,-1.16172c-2.09827,-0.11747 -3.10814,-3.26926 -2.85505,-5.35552c0.23672,-1.95129 0.76776,-5.3287 0.76776,-5.3287l4.71571,-32.77024c0,0 0.74904,-4.22276 2.5185,-4.88981c4.26115,-1.60636 8.65384,0.08573 13.20774,0.08348c1.54325,-0.00076 1.40195,4.79787 1.40195,4.79787z" data-paper-data="{&quot;origPos&quot;:null}" fill="#ff0000" stroke-width="3"/><path d="M299.63037,154.086l23.28256,1.38807c0,0 1.00268,2.55254 0.86615,4.23531c-0.12959,1.59741 -1.54805,4.16979 -1.54805,4.16979c0,0 -8.4768,0.80926 -12.37851,0.71033c-5.08542,-0.12896 -10.95469,-2.9028 -10.95469,-2.9028z" data-paper-data="{&quot;origPos&quot;:null}" fill="#976e57" stroke-width="2"/><path d="M323.75935,156.09065c0,0 0.62392,4.43808 -0.33679,6.59447c-0.73544,1.6508 -2.5944,2.13752 -4.36761,2.48644c-4.86725,0.95773 -9.5871,-0.7304 -17.29132,-1.16172c-2.09827,-0.11747 -3.10814,-3.26926 -2.85505,-5.35552c0.23672,-1.95128 0.76776,-5.32871 0.76776,-5.32871l4.7157,-32.77023c0,0 0.74905,-4.22275 2.5185,-4.8898c4.26115,-1.60638 8.65384,0.08571 13.20774,0.08346c1.54325,-0.00076 1.40195,4.79786 1.40195,4.79786z" data-paper-data="{&quot;origPos&quot;:null}" fill="#474747" stroke-width="3"/></g><g data-paper-data="{&quot;index&quot;:null,&quot;origRot&quot;:0}" stroke="#000000" stroke-linecap="round"><path d="M307.45653,120.51155c0,0 -0.1984,-4.79659 1.34475,-4.81421c4.55359,-0.05195 8.92584,-1.7962 13.2058,-0.24067c1.77726,0.64595 2.5765,4.85947 2.5765,4.85947l5.1054,32.71179c0,0 0.5712,3.37087 0.83113,5.31918c0.2779,2.08311 -0.69437,5.24668 -2.79111,5.38912c-7.69852,0.52298 -12.39796,2.26718 -17.27626,1.36744c-1.77724,-0.3278 -3.64187,-0.79234 -4.3969,-2.43428c-0.98629,-2.1448 -0.41525,-6.59 -0.41525,-6.59z" data-paper-data="{&quot;origPos&quot;:null}" fill="#ff0000" stroke-width="3"/><path d="M330.66024,161.69684c0,0 -5.83585,2.8435 -10.91935,3.03298c-3.90026,0.14537 -12.3861,-0.56296 -12.3861,-0.56296c0,0 -1.44897,-2.55532 -1.59756,-4.15108c-0.15654,-1.68103 0.81568,-4.24531 0.81568,-4.24531l23.26438,-1.66508z" data-paper-data="{&quot;origPos&quot;:null}" fill="#976e57" stroke-width="2.5"/><path d="M305.73388,156.39703c0,0 0.64806,-12.69342 1.06287,-20.81786c0.29389,-5.75639 0.75308,-14.75 0.75308,-14.75c0,0 -0.19841,-4.79659 1.34474,-4.8142c4.55358,-0.05195 8.92584,-1.7962 13.2058,-0.24067c1.77726,0.64595 2.5765,4.85947 2.5765,4.85947l5.1054,32.71179c0,0 0.5712,3.37087 0.83113,5.31918c0.2779,2.08311 -0.69437,5.24668 -2.79111,5.38913c-7.69852,0.52298 -12.39796,2.26718 -17.27626,1.36744c-1.77724,-0.3278 -3.64187,-0.79235 -4.3969,-2.43429c-0.98629,-2.1448 -0.41525,-6.59 -0.41525,-6.59z" data-paper-data="{&quot;origPos&quot;:null}" fill="#474747" stroke-width="1.5"/></g><g data-paper-data="{&quot;index&quot;:null}"><g stroke="#000000" stroke-width="3" stroke-linecap="round"><path d="M83.40671,285.20492c0,0 2.91981,10.33692 2.48808,14.9243c-15.6623,6.3928 -25.29943,3.78911 -25.29943,3.78911c-1.99294,0.39971 -2.25392,-6.87055 -2.25392,-6.87055c0,0 -0.9747,-14.17597 -1.59858,-23.2493c-0.40966,-5.95792 -1.0497,-15.26646 -1.0497,-15.26646c0,0 -0.14545,-5.92273 0.94803,-6.05364c6.57853,-0.78761 12.79038,-2.84668 16.16085,-2.06925c1.12349,0.25914 2.70627,5.75054 2.70627,5.75054l7.89837,29.04525z" data-paper-data="{&quot;origPos&quot;:null}" fill="#582600"/><path d="M84.10535,290.92026l-25.34773,4.00908l-0.51729,-3.36246l25.34772,-4.26772z" data-paper-data="{&quot;origPos&quot;:null}" fill="none"/></g><path d="M57.95654,291.14711l-1.73302,-36.8268l1.15535,-0.86652l15.59724,-2.59955l9.82048,36.10471z" fill="#ffcb66" stroke="#000000" stroke-width="1" stroke-linecap="round"/><path d="M58.65287,294.49502l-0.36699,-2.30203l25.18283,-4.01466l0.36699,2.30203z" fill="#ffffff" stroke="none" stroke-width="0" stroke-linecap="butt"/></g><g data-paper-data="{&quot;origRot&quot;:0,&quot;index&quot;:null}" stroke="#000000" stroke-linecap="round"><path d="M47.82597,348.02992c0,0 0.62394,4.43807 -0.33678,6.59446c-0.73544,1.65081 -2.59441,2.13753 -4.36763,2.48646c-4.86724,0.95773 -9.58711,-0.7304 -17.29132,-1.16173c-2.09827,-0.11747 -3.10814,-3.26926 -2.85505,-5.35552c0.23673,-1.95129 0.76776,-5.3287 0.76776,-5.3287l4.71571,-32.77023c0,0 0.74904,-4.22276 2.5185,-4.88981c4.26115,-1.60636 8.65384,0.08573 13.20773,0.08348c1.54325,-0.00076 1.40195,4.79787 1.40195,4.79787z" data-paper-data="{&quot;origPos&quot;:null}" fill="#ff0000" stroke-width="3"/><path d="M23.60749,346.34396l23.28258,1.38807c0,0 1.00267,2.55254 0.86615,4.2353c-0.12959,1.59741 -1.54804,4.1698 -1.54804,4.1698c0,0 -8.47681,0.80927 -12.37852,0.71033c-5.08542,-0.12896 -10.95469,-2.9028 -10.95469,-2.9028z" data-paper-data="{&quot;origPos&quot;:null}" fill="#976e57" stroke-width="2"/><path d="M47.73648,348.3486c0,0 0.62392,4.43808 -0.33679,6.59447c-0.73544,1.6508 -2.5944,2.13752 -4.36762,2.48644c-4.86724,0.95773 -9.5871,-0.7304 -17.2913,-1.16173c-2.09826,-0.11747 -3.10813,-3.26926 -2.85505,-5.35552c0.23672,-1.95128 0.76776,-5.3287 0.76776,-5.3287l4.7157,-32.77023c0,0 0.74905,-4.22274 2.5185,-4.88978c4.26115,-1.60637 8.65384,0.08571 13.20773,0.08345c1.54325,-0.00076 1.40196,4.79786 1.40196,4.79786z" data-paper-data="{&quot;origPos&quot;:null}" fill="#474747" stroke-width="3"/></g><path d="M35.97838,250.0819h14.98421l11.49355,0.93652" data-paper-data="{&quot;index&quot;:null}" fill="none" stroke="#000000" stroke-width="3" stroke-linecap="round"/><g data-paper-data="{&quot;index&quot;:null}" stroke-linecap="round"><path d="M68.42919,293.14277c0,0 0.82804,15.75777 -1.37782,16.03807c-6.6176,0.84094 -24.01925,-0.01169 -38.86622,-0.01169c-1.66786,0 -1.42457,-14.95797 -1.42457,-14.95797l1.78071,-30.62821c0,0 1.32024,-13.5334 2.84913,-13.5334c9.88992,0 24.68694,-0.9306 31.15944,0.71298c2.15751,0.54786 4.09862,14.95726 4.09862,14.95726z" data-paper-data="{&quot;origPos&quot;:null}" fill="#ffcb66" stroke="#000000" stroke-width="3.5"/><path d="M61.84696,299.0081c2.30108,-2.5333 3.80879,-13.53332 3.80879,-13.53332c0,0 0.6986,8.59842 0.6986,15.2197c0,2.41298 -1.04789,5.83368 -1.04789,5.83368c0,0 -4.45309,0.65748 -7.07974,0.70567c-6.01138,0.11029 -12.25973,-0.06667 -12.25973,-0.06667c0,0 7.64296,-1.42816 10.78354,-3.61033c4.09617,-2.84613 1.74277,-0.85661 5.09646,-4.54872z" data-paper-data="{&quot;origPos&quot;:null}" fill="#ad8a45" stroke="#ad8a45" stroke-width="2"/></g><g data-paper-data="{&quot;index&quot;:null}"><g data-paper-data="{&quot;origRot&quot;:0,&quot;index&quot;:null}" stroke="#000000" stroke-width="3" stroke-linecap="round"><path d="M36.44012,302.25345c0,0 -25.25302,0.37443 -25.4894,-2.17007c-0.42621,-4.5879 1.53249,-15.05246 1.53249,-15.05246l6.03241,-29.48935c0,0 1.22981,-5.58104 2.33452,-5.91123c3.31411,-0.99051 9.64449,0.66874 16.25982,1.03575c1.09959,0.06101 1.33167,5.98098 1.33167,5.98098c0,0 -0.04587,9.3304 -0.07522,15.30232c-0.04471,9.09466 -0.11456,23.30392 -0.11456,23.30392c0,0 0.20261,7.27212 -1.81173,7.00015z" data-paper-data="{&quot;origPos&quot;:null}" fill="#582600"/><path d="M12.26471,292.64033l24.82653,2.26852" fill="none"/><path d="M12.82522,289.11529l24.80491,2.50496" data-paper-data="{&quot;origPos&quot;:null}" fill="none"/></g><path d="M12.62326,288.41084l7.6504,-37.36363l1.33714,-0.5653l15.7471,1.48713l0.35625,38.76194z" fill="#ffcb66" stroke="#000000" stroke-width="1" stroke-linecap="round"/><path d="M12.25044,292.47423l0.21981,-2.32071l25.38721,2.40449l-0.21981,2.32071z" fill="#ffffff" stroke="none" stroke-width="0" stroke-linecap="butt"/></g><g data-paper-data="{&quot;origRot&quot;:0}" stroke="#000000" stroke-linecap="round"><path d="M138.94015,314.35463c0,0 -0.1413,-4.79862 1.40195,-4.79786c4.55388,0.00225 8.94658,-1.68985 13.20773,-0.08348c1.76946,0.66704 2.5185,4.8898 2.5185,4.8898l4.7157,32.77024c0,0 0.53104,3.37741 0.76776,5.3287c0.25309,2.08626 -0.75677,5.23806 -2.85505,5.35552c-7.7042,0.43132 -12.42406,2.11945 -17.2913,1.16172c-1.77321,-0.34892 -3.63218,-0.83565 -4.36762,-2.48646c-0.96071,-2.15639 -0.33679,-6.59446 -0.33679,-6.59446z" data-paper-data="{&quot;origPos&quot;:null}" fill="#ff0000" stroke-width="3"/><path d="M161.65206,355.8131c0,0 -5.86927,2.77384 -10.95469,2.9028c-3.90171,0.09894 -12.37851,-0.71032 -12.37851,-0.71032c0,0 -1.41844,-2.57239 -1.54804,-4.1698c-0.13652,-1.68278 0.86615,-4.2353 0.86615,-4.2353l23.28256,-1.38808z" data-paper-data="{&quot;origPos&quot;:null}" fill="#976e57" stroke-width="2"/><path d="M139.02965,314.6733c0,0 -0.1413,-4.79862 1.40195,-4.79787c4.55388,0.00225 8.94658,-1.68983 13.20773,-0.08346c1.76946,0.66704 2.5185,4.8898 2.5185,4.8898l4.71571,32.77024c0,0 0.53105,3.37742 0.76776,5.3287c0.25309,2.08626 -0.75678,5.23805 -2.85505,5.35552c-7.7042,0.43132 -12.42407,2.11946 -17.2913,1.16173c-1.77321,-0.34892 -3.63218,-0.83565 -4.36762,-2.48644c-0.96071,-2.15639 -0.33679,-6.59447 -0.33679,-6.59447z" data-paper-data="{&quot;origPos&quot;:null}" fill="#474747" stroke-width="3"/></g><g data-paper-data="{&quot;index&quot;:null,&quot;origRot&quot;:0}" stroke="#000000" stroke-linecap="round"><path d="M137.48697,350.20583c0,0 0.57104,4.44519 -0.41525,6.58999c-0.75504,1.64194 -2.61965,2.10648 -4.3969,2.43428c-4.87829,0.89973 -9.57774,-0.84445 -17.27626,-1.36743c-2.09674,-0.14245 -3.069,-3.30603 -2.7911,-5.38913c0.25991,-1.94832 0.83113,-5.31917 0.83113,-5.31917l5.1054,-32.71179c0,0 0.79925,-4.21354 2.5765,-4.85947c4.27996,-1.55554 8.6522,0.18871 13.2058,0.24067c1.54314,0.01761 1.34475,4.8142 1.34475,4.8142z" data-paper-data="{&quot;origPos&quot;:null}" fill="#ff0000" stroke-width="3"/><path d="M113.29027,348.23179l23.26439,1.66507c0,0 0.97222,2.56428 0.81568,4.24531c-0.1486,1.59577 -1.59757,4.15108 -1.59757,4.15108c0,0 -8.48584,0.70833 -12.38608,0.56296c-5.08351,-0.18947 -10.91935,-3.03298 -10.91935,-3.03298z" data-paper-data="{&quot;origPos&quot;:null}" fill="#976e57" stroke-width="2.5"/><path d="M137.39369,350.52344c0,0 0.57104,4.4452 -0.41525,6.59c-0.75504,1.64194 -2.61965,2.10648 -4.3969,2.43428c-4.87829,0.89973 -9.57774,-0.84446 -17.27626,-1.36744c-2.09674,-0.14245 -3.06901,-3.30603 -2.79111,-5.38912c0.25991,-1.94832 0.83113,-5.31917 0.83113,-5.31917l5.1054,-32.71179c0,0 0.79925,-4.21354 2.5765,-4.85947c4.27996,-1.55554 8.65221,0.18871 13.2058,0.24067c1.54314,0.01761 1.34475,4.8142 1.34475,4.8142c0,0 0.45918,8.99361 0.75307,14.75c0.4148,8.12444 1.06287,20.81786 1.06287,20.81786z" data-paper-data="{&quot;origPos&quot;:null}" fill="#474747" stroke-width="1.5"/></g><path d="M117.90221,266.86552c0,0 1.95417,-14.5064 4.12619,-15.05796c6.51607,-1.65465 21.41272,-0.71779 31.36921,-0.71779c1.53917,0 2.86832,13.6245 2.86832,13.6245l1.7927,30.8344c0,0 0.24494,15.05866 -1.43416,15.05866c-14.94691,0 -32.4657,0.85836 -39.12786,0.01176c-2.22073,-0.28219 -1.3871,-16.14605 -1.3871,-16.14605z" fill="#ffcb66" stroke="#000000" stroke-width="3.5" stroke-linecap="round"/><g><g data-paper-data="{&quot;origRot&quot;:0,&quot;index&quot;:null}" stroke="#000000" stroke-width="3" stroke-linecap="round"><path d="M152.00161,305.41211c-2.01434,0.27197 -1.81174,-7.00015 -1.81174,-7.00015c0,0 -0.06984,-14.20925 -0.11456,-23.30392c-0.02935,-5.97192 -0.07522,-15.30233 -0.07522,-15.30233c0,0 0.23209,-5.91996 1.33167,-5.98098c6.61533,-0.36701 12.94572,-2.02626 16.25982,-1.03575c1.10471,0.33019 2.33452,5.91123 2.33452,5.91123l6.03241,29.48935c0,0 1.9587,10.46455 1.53249,15.05246c-0.23638,2.54451 -25.4894,2.17007 -25.4894,2.17007z" data-paper-data="{&quot;origPos&quot;:null}" fill="#582600"/><path d="M176.17702,295.79897l-24.82653,2.26852" fill="none"/><path d="M175.61649,292.27392l-24.80492,2.50496" data-paper-data="{&quot;origPos&quot;:null}" fill="none"/></g><path d="M150.72757,293.88963l0.35625,-38.76194l15.74709,-1.48713l1.33714,0.5653l7.65042,37.36363z" fill="#ffcb66" stroke="#000000" stroke-width="1" stroke-linecap="round"/><path d="M150.80407,298.03737l-0.21981,-2.32071l25.3872,-2.40449l0.21981,2.32071z" fill="#ffffff" stroke="none" stroke-width="0" stroke-linecap="butt"/></g><g><g stroke="#000000" stroke-width="3" stroke-linecap="round"><path d="M94.7528,286.68583l7.89838,-29.04525c0,0 1.5828,-5.4914 2.70627,-5.75054c3.37046,-0.77744 9.58231,1.28163 16.16085,2.06925c1.09348,0.13091 0.94803,6.05364 0.94803,6.05364c0,0 -0.64003,9.30853 -1.0497,15.26646c-0.62387,9.07333 -1.59858,23.2493 -1.59858,23.2493c0,0 -0.26098,7.27026 -2.25392,6.87055c0,0 -9.63714,2.60368 -25.29943,-3.78911c-0.43173,-4.58738 2.48808,-14.92429 2.48808,-14.92429z" data-paper-data="{&quot;origPos&quot;:null}" fill="#582600"/><path d="M94.57145,288.78005l25.34772,4.26772l-0.51729,3.36246l-25.34773,-4.00908z" data-paper-data="{&quot;origPos&quot;:null}" fill="none"/></g><path d="M95.36291,288.43985l9.82048,-36.10471l15.59724,2.59955l1.15535,0.86652l-1.73302,36.8268z" fill="#ffcb66" stroke="#000000" stroke-width="1" stroke-linecap="round"/><path d="M94.32379,291.96127l0.367,-2.30203l25.18282,4.01466l-0.36699,2.30203z" fill="#ffffff" stroke="none" stroke-width="0" stroke-linecap="butt"/></g><g><g stroke="#000000" stroke-width="3" stroke-linecap="round"><path d="M198.14805,284.6507l7.89837,-29.04526c0,0 1.58278,-5.4914 2.70627,-5.75054c3.37048,-0.77744 9.58231,1.28163 16.16085,2.06925c1.09348,0.13091 0.94803,6.05364 0.94803,6.05364c0,0 -0.64003,9.30853 -1.0497,15.26646c-0.62387,9.07333 -1.59858,23.2493 -1.59858,23.2493c0,0 -0.26098,7.27026 -2.25392,6.87055c0,0 -9.63713,2.60368 -25.29943,-3.78911c-0.43174,-4.58738 2.48808,-14.92429 2.48808,-14.92429z" data-paper-data="{&quot;origPos&quot;:null}" fill="#582600"/><path d="M197.9667,286.74495l25.34772,4.26772l-0.51729,3.36246l-25.34773,-4.00908z" data-paper-data="{&quot;origPos&quot;:null}" fill="none"/></g><path d="M198.75817,286.40475l9.82048,-36.10471l15.59724,2.59955l1.15534,0.86652l-1.73302,36.8268z" fill="#ffcb66" stroke="#000000" stroke-width="1" stroke-linecap="round"/><path d="M197.71903,289.92615l0.36699,-2.30203l25.18283,4.01466l-0.36699,2.30203z" fill="#ffffff" stroke="none" stroke-width="0" stroke-linecap="butt"/></g><g data-paper-data="{&quot;origRot&quot;:0}" stroke="#000000" stroke-linecap="round"><path d="M235.96788,311.93198c0,0 -0.1413,-4.79862 1.40195,-4.79787c4.55388,0.00225 8.94658,-1.68985 13.20773,-0.08348c1.76946,0.66704 2.5185,4.88981 2.5185,4.88981l4.71571,32.77023c0,0 0.53104,3.37741 0.76776,5.3287c0.25309,2.08626 -0.75678,5.23806 -2.85505,5.35552c-7.7042,0.43132 -12.42407,2.11946 -17.2913,1.16173c-1.77321,-0.34892 -3.63218,-0.83565 -4.36762,-2.48646c-0.96071,-2.15639 -0.33678,-6.59446 -0.33678,-6.59446z" data-paper-data="{&quot;origPos&quot;:null}" fill="#ff0000" stroke-width="3"/><path d="M258.67979,353.39045c0,0 -5.86927,2.77384 -10.95469,2.9028c-3.90171,0.09894 -12.37851,-0.71033 -12.37851,-0.71033c0,0 -1.41846,-2.57239 -1.54805,-4.1698c-0.13652,-1.68278 0.86615,-4.2353 0.86615,-4.2353l23.28256,-1.38807z" data-paper-data="{&quot;origPos&quot;:null}" fill="#976e57" stroke-width="2"/><path d="M236.05738,312.25065c0,0 -0.1413,-4.79862 1.40195,-4.79786c4.55388,0.00225 8.94658,-1.68983 13.20773,-0.08345c1.76946,0.66704 2.5185,4.88978 2.5185,4.88978l4.71571,32.77023c0,0 0.53105,3.37742 0.76776,5.3287c0.25309,2.08626 -0.75678,5.23805 -2.85504,5.35552c-7.7042,0.43132 -12.42407,2.11946 -17.29132,1.16173c-1.77321,-0.34892 -3.63217,-0.83565 -4.36761,-2.48644c-0.96071,-2.15639 -0.3368,-6.59447 -0.3368,-6.59447z" data-paper-data="{&quot;origPos&quot;:null}" fill="#474747" stroke-width="3"/></g><g data-paper-data="{&quot;index&quot;:null,&quot;origRot&quot;:0}" stroke="#000000" stroke-linecap="round"><path d="M234.5147,347.78317c0,0 0.57104,4.4452 -0.41525,6.59c-0.75504,1.64194 -2.61966,2.10648 -4.3969,2.43428c-4.87829,0.89973 -9.57774,-0.84446 -17.27626,-1.36744c-2.09674,-0.14245 -3.06901,-3.30603 -2.79111,-5.38912c0.25991,-1.94832 0.83113,-5.31918 0.83113,-5.31918l5.1054,-32.71179c0,0 0.79924,-4.21352 2.5765,-4.85947c4.27996,-1.55554 8.6522,0.1887 13.2058,0.24065c1.54314,0.01761 1.34475,4.81421 1.34475,4.81421z" data-paper-data="{&quot;origPos&quot;:null}" fill="#ff0000" stroke-width="3"/><path d="M210.31799,345.80912l23.26439,1.66507c0,0 0.97222,2.56428 0.81568,4.24531c-0.1486,1.59577 -1.59756,4.15108 -1.59756,4.15108c0,0 -8.48585,0.70833 -12.3861,0.56296c-5.08351,-0.18947 -10.91935,-3.03298 -10.91935,-3.03298z" data-paper-data="{&quot;origPos&quot;:null}" fill="#976e57" stroke-width="2.5"/><path d="M234.42142,348.10079c0,0 0.57104,4.4452 -0.41525,6.59c-0.75504,1.64194 -2.61966,2.10648 -4.3969,2.43428c-4.87829,0.89973 -9.57774,-0.84446 -17.27626,-1.36744c-2.09674,-0.14245 -3.06901,-3.30603 -2.79111,-5.38912c0.25991,-1.94832 0.83113,-5.31918 0.83113,-5.31918l5.1054,-32.71179c0,0 0.79925,-4.21354 2.5765,-4.85947c4.27996,-1.55554 8.65221,0.1887 13.2058,0.24067c1.54314,0.01761 1.34475,4.81421 1.34475,4.81421c0,0 0.45918,8.99361 0.75307,14.75c0.4148,8.12444 1.06287,20.81786 1.06287,20.81786z" data-paper-data="{&quot;origPos&quot;:null}" fill="#474747" stroke-width="1.5"/></g><path d="M219.09859,250.46422l11.49356,-0.93652h14.9842" fill="none" stroke="#000000" stroke-width="3" stroke-linecap="round"/><g stroke-linecap="round"><path d="M214.90626,265.16561c0,0 1.94111,-14.4094 4.09861,-14.95726c6.4725,-1.64359 21.26952,-0.71298 31.15944,-0.71298c1.52888,0 2.84913,13.5334 2.84913,13.5334l1.78071,30.62821c0,0 0.24329,14.95797 -1.42456,14.95797c-14.84697,0 -32.24861,0.85262 -38.86622,0.01169c-2.20586,-0.2803 -1.37782,-16.03807 -1.37782,-16.03807z" data-paper-data="{&quot;origPos&quot;:null}" fill="#ffcb66" stroke="#000000" stroke-width="3.5"/><path d="M219.70778,298.45386c3.35369,3.69213 1.00029,1.7026 5.09646,4.54872c3.14058,2.18218 10.78354,3.61033 10.78354,3.61033c0,0 -6.24835,0.17698 -12.25973,0.06667c-2.62666,-0.0482 -7.07974,-0.70567 -7.07974,-0.70567c0,0 -1.04789,-3.4207 -1.04789,-5.83368c0,-6.62127 0.69859,-15.2197 0.69859,-15.2197c0,0 1.50772,11.00002 3.8088,13.53332z" data-paper-data="{&quot;origPos&quot;:null}" fill="#ad8a45" stroke="#ad8a45" stroke-width="2"/></g><g><g data-paper-data="{&quot;origRot&quot;:0,&quot;index&quot;:null}" stroke="#000000" stroke-width="3" stroke-linecap="round"><path d="M245.11463,301.69926c-2.01434,0.27197 -1.81173,-7.00016 -1.81173,-7.00016c0,0 -0.06984,-14.20925 -0.11456,-23.30392c-0.02935,-5.97192 -0.07523,-15.30232 -0.07523,-15.30232c0,0 0.23208,-5.91997 1.33167,-5.98098c6.61533,-0.36701 12.94572,-2.02626 16.25983,-1.03575c1.10471,0.33019 2.33452,5.91123 2.33452,5.91123l6.03241,29.48935c0,0 1.95869,10.46455 1.53249,15.05246c-0.23638,2.54451 -25.4894,2.17007 -25.4894,2.17007z" data-paper-data="{&quot;origPos&quot;:null}" fill="#582600"/><path d="M244.4635,294.35463l24.82653,-2.26852" fill="none"/><path d="M243.9246,291.06604l24.80492,-2.50496" data-paper-data="{&quot;origPos&quot;:null}" fill="none"/></g><path d="M243.84059,290.17676l0.35625,-38.76194l15.7471,-1.48713l1.33714,0.5653l7.6504,37.36363z" fill="#ffcb66" stroke="#000000" stroke-width="1" stroke-linecap="round"/><path d="M243.91709,294.32451l-0.21981,-2.32071l25.38721,-2.40449l0.21981,2.32071z" fill="#ffffff" stroke="none" stroke-width="0" stroke-linecap="butt"/></g><g><g data-paper-data="{&quot;origRot&quot;:0,&quot;index&quot;:null}" stroke="#000000" stroke-width="3" stroke-linecap="round"><path d="M391.79712,140.13977c0.04049,5.55369 -3.38697,17.92 -3.38697,17.92l-7.70419,17.7676c0,0 -2.05037,6.57629 -3.41101,6.85932c-4.08189,0.84908 -11.51398,-1.79401 -19.42104,-2.91445c-1.31429,-0.18625 -0.98479,-7.31975 -0.98479,-7.31975l1.62408,-29.31692c0,0 0.50383,-8.75436 2.89504,-8.22079c0,0 30.36642,2.14487 30.38888,5.225z" data-paper-data="{&quot;origPos&quot;:null}" fill="#582600"/><path d="M359.87166,143.66852l29.58267,5.27511" fill="none"/><path d="M358.88658,147.56265l29.53243,5.55684" data-paper-data="{&quot;origPos&quot;:null}" fill="none"/></g><path d="M389.78473,149.44981l-0.59657,2.34523l-30.03083,-5.88725l0.59657,-2.34523z" fill="#ffffff" stroke="none" stroke-width="0" stroke-linecap="butt"/><path d="M358.71426,148.35546l29.45311,5.65189l-11.4503,29.11709l-19.89958,-3.64061z" fill="#ffcb66" stroke="#000000" stroke-width="0.5" stroke-linecap="round"/></g><g><path d="M329.62515,98.88508c0,0 0.22676,15.70186 -1.32277,16.0427c-4.64863,1.02252 -16.80411,0.65376 -27.19136,1.06507c-1.16687,0.0462 -0.66201,-14.88724 -0.66201,-14.88724l1.93105,-30.6135c0,0 1.22646,-13.54167 2.2961,-13.58403c6.91918,-0.27397 17.29232,-1.61256 21.78386,-0.15171c1.49719,0.48695 2.53286,14.81244 2.53286,14.81244z" data-paper-data="{&quot;origPos&quot;:null}" fill="#ffcb66" stroke="#000000" stroke-width="3.5" stroke-linecap="round"/><path d="M308.34065,85.83313c-1.29167,0 -1.29167,-3.125 -1.29167,-3.125c0,-6.48148 0,-15.04629 0,-21.52778c0,0 0,-3.125 1.29167,-3.125c1.29167,0 1.29166,3.125 1.29166,3.125c0,6.48148 0,12.96296 0,19.44445v2.08333c0,0 0,3.125 -1.29166,3.125z" fill="#ffffff" stroke="none" stroke-width="0.5" stroke-linecap="butt"/></g><g><path d="M28.49579,74.63433c0,0 1.94111,-14.4094 4.09862,-14.95725c6.4725,-1.64357 21.26952,-0.71298 31.15944,-0.71298c1.52888,0 2.84914,13.5334 2.84914,13.5334l1.7807,30.62821c0,0 0.24329,14.95796 -1.42456,14.95796c-14.84697,0 -32.2486,0.85262 -38.86622,0.01169c-2.20586,-0.2803 -1.37783,-16.03807 -1.37783,-16.03807z" data-paper-data="{&quot;origPos&quot;:null}" fill="#ffcb66" stroke="#000000" stroke-width="3.5" stroke-linecap="round"/><path d="M47.34065,82.83313c-1.29167,0 -1.29167,-2.4875 -1.29167,-2.4875c0,-5.15926 0,-11.97684 0,-17.1361c0,0 0,-2.4875 1.29167,-2.4875c1.29167,0 1.29167,2.4875 1.29167,2.4875c0,5.15926 0,10.31851 0,15.47777v1.65833c0,0 0,2.4875 -1.29167,2.4875z" fill="#ffffff" stroke="none" stroke-width="0.5" stroke-linecap="butt"/><path d="M59.34065,89.16647c-1.29167,0 -1.29167,-3.125 -1.29167,-3.125c0,-6.48148 0,-15.04629 0,-21.52777c0,0 0,-3.125 1.29167,-3.125c1.29167,0 1.29167,3.125 1.29167,3.125c0,6.48148 0,12.96296 0,19.44445v2.08333c0,0 0,3.125 -1.29167,3.125z" fill="#ffffff" stroke="none" stroke-width="0.5" stroke-linecap="butt"/></g><g><path d="M121.82699,74.85835c0,0 1.95417,-14.5064 4.12619,-15.05796c6.51607,-1.65465 21.41272,-0.71779 31.36921,-0.71779c1.53917,0 2.86832,13.6245 2.86832,13.6245l1.7927,30.8344c0,0 0.24494,15.05866 -1.43415,15.05866c-14.94691,0 -32.46571,0.85836 -39.12788,0.01176c-2.22073,-0.28221 -1.3871,-16.14604 -1.3871,-16.14604z" fill="#ffcb66" stroke="#000000" stroke-width="3.5" stroke-linecap="round"/><path d="M136.34064,82.83313c-1.29166,0 -1.29167,-2.4875 -1.29167,-2.4875c0,-5.15926 0,-11.97684 0,-17.1361c0,0 0,-2.4875 1.29167,-2.4875c1.29166,0 1.29167,2.4875 1.29167,2.4875c0,5.15926 0,10.31851 0,15.47777v1.65833c0,0 0,2.4875 -1.29167,2.4875z" fill="#ffffff" stroke="none" stroke-width="0.5" stroke-linecap="butt"/><path d="M148.34064,89.16647c-1.29166,0 -1.29167,-3.125 -1.29167,-3.125c0,-6.48148 0,-15.04629 0,-21.52777c0,0 0,-3.125 1.29167,-3.125c1.29166,0 1.29167,3.125 1.29167,3.125c0,6.48148 0,12.96296 0,19.44445v2.08333c0,0 0,3.125 -1.29167,3.125z" fill="#ffffff" stroke="none" stroke-width="0.5" stroke-linecap="butt"/></g><g><g stroke="#000000" stroke-width="3" stroke-linecap="round"><path d="M9.07092,95.45275l7.89838,-29.04526c0,0 1.58278,-5.4914 2.70627,-5.75054c3.37048,-0.77744 9.58231,1.28163 16.16085,2.06925c1.09348,0.13092 0.94804,6.05365 0.94804,6.05365c0,0 -0.64004,9.30853 -1.0497,15.26645c-0.62388,9.07333 -1.59858,23.24931 -1.59858,23.24931c0,0 -0.26098,7.27026 -2.25392,6.87055c0,0 -9.63714,2.60367 -25.29943,-3.78911c-0.43173,-4.58738 2.48808,-14.92429 2.48808,-14.92429z" data-paper-data="{&quot;origPos&quot;:null}" fill="#582600"/><path d="M8.88957,97.54699l25.34772,4.26772l-0.51729,3.36246l-25.34773,-4.00908z" data-paper-data="{&quot;origPos&quot;:null}" fill="none"/></g><path d="M9.68102,97.20679l9.82048,-36.10471l15.59723,2.59955l1.15535,0.86652l-1.73303,36.8268z" fill="#ffcb66" stroke="#000000" stroke-width="1" stroke-linecap="round"/><path d="M8.6419,100.7282l0.367,-2.30203l25.18283,4.01465l-0.36699,2.30203z" fill="#ffffff" stroke="none" stroke-width="0" stroke-linecap="butt"/></g><path d="M63.27185,59.80621c-12.07842,0.45688 -23.79253,0.86384 -28.60919,-0.0072c-4.40211,-0.79607 -5.79739,-3.51918 -5.79739,-3.51918c0,0 -1.82333,-2.38462 -1.95172,-3.91425c-0.38516,-4.58889 -0.86989,-17.73032 -0.23844,-29.08973c0.02107,-0.37912 0.04665,-0.59142 0.09027,-0.96861c0.13085,-1.13156 0.82867,-5.52903 0.82867,-5.52903c0,0 3.14291,-1.7466 4.86197,-2.2675c5.15717,-1.56271 18.40608,-0.4359 32.32665,-0.40073c1.26172,0.00319 3.4688,1.62465 3.4688,1.62465c0,0 1.62627,3.09425 1.63209,5.07777c0.03768,12.82377 0.03217,27.01252 -0.18113,30.2622c-0.07109,1.08323 -1.79353,5.32153 -1.79353,5.32153z" data-paper-data="{&quot;origPos&quot;:null}" fill="#582600" stroke="#000000" stroke-width="2.5" stroke-linecap="round"/><path d="M60.07042,39.76402c-0.01012,-3.44494 0.3954,-6.23885 0.90576,-6.24034c0.51036,-0.00151 0.9323,2.78997 0.94243,6.2349c0.01012,3.44494 -0.3954,6.23886 -0.90576,6.24035c-0.51036,0.00151 -0.9323,-2.78997 -0.94243,-6.23491z" fill="none" stroke="#000000" stroke-width="2.5" stroke-linecap="butt"/><path d="M46.8543,40.19491c-0.01031,-3.50875 0.29165,-6.35407 0.6744,-6.35518c0.38277,-0.00112 0.70143,2.84237 0.71174,6.35111c0.01031,3.50875 -0.29162,6.35404 -0.67439,6.35517c-0.38277,0.00112 -0.70144,-2.84235 -0.71175,-6.35109z" fill="none" stroke="#000000" stroke-width="2.5" stroke-linecap="butt"/><path d="M57.17011,49.53535c0,0 -2.74579,0.25689 -6.08398,0" fill="none" stroke="#000000" stroke-width="2.5" stroke-linecap="round"/><path d="M156.19184,59.80621c-12.07843,0.45688 -23.79253,0.86384 -28.60919,-0.0072c-4.40211,-0.79607 -5.79739,-3.51918 -5.79739,-3.51918c0,0 -1.82333,-2.38462 -1.95172,-3.91425c-0.38516,-4.58889 -0.8699,-17.73032 -0.23844,-29.08973c0.02107,-0.37912 0.04665,-0.59142 0.09027,-0.96861c0.13086,-1.13156 0.82868,-5.52903 0.82868,-5.52903c0,0 3.14291,-1.7466 4.86197,-2.2675c5.15716,-1.56271 18.40608,-0.4359 32.32665,-0.40073c1.26172,0.00319 3.4688,1.62465 3.4688,1.62465c0,0 1.62627,3.09425 1.63209,5.07777c0.03768,12.82377 0.03218,27.01252 -0.18113,30.2622c-0.0711,1.08323 -1.79353,5.32153 -1.79353,5.32153z" data-paper-data="{&quot;origPos&quot;:null}" fill="#582600" stroke="#000000" stroke-width="2.5" stroke-linecap="round"/><path d="M147.94089,40.3952c-0.01012,-3.44494 0.3954,-6.23885 0.90576,-6.24034c0.51037,-0.00151 0.9323,2.78997 0.94243,6.2349c0.01012,3.44494 -0.3954,6.23886 -0.90576,6.24036c-0.51037,0.00151 -0.9323,-2.78998 -0.94243,-6.23492z" fill="none" stroke="#000000" stroke-width="2.5" stroke-linecap="butt"/><path d="M134.72478,40.82611c-0.01031,-3.50875 0.29165,-6.35407 0.6744,-6.35518c0.38276,-0.00112 0.70142,2.84236 0.71173,6.3511c0.01031,3.50875 -0.29162,6.35405 -0.67439,6.35518c-0.38277,0.00112 -0.70144,-2.84236 -0.71175,-6.3511z" fill="none" stroke="#000000" stroke-width="2.5" stroke-linecap="butt"/><path d="M145.04059,50.16654c0,0 -2.7458,0.25689 -6.08399,0" fill="none" stroke="#000000" stroke-width="2.5" stroke-linecap="round"/><path d="M295.24246,47.41324c-0.2133,-3.24969 -0.21881,-17.43842 -0.18113,-30.2622c0.00582,-1.98353 1.6321,-5.07777 1.6321,-5.07777c0,0 2.20707,-1.62147 3.46879,-1.62465c13.92057,-0.03517 27.16949,-1.16198 32.32665,0.40073c1.71906,0.5209 4.86197,2.2675 4.86197,2.2675c0,0 0.69781,4.39747 0.82867,5.52903c0.04362,0.37719 0.0692,0.58948 0.09027,0.9686c0.63146,11.35942 0.14673,24.50086 -0.23844,29.08975c-0.12839,1.52963 -1.95172,3.91424 -1.95172,3.91424c0,0 -1.39529,2.72311 -5.79739,3.51918c-4.81666,0.87106 -16.53077,0.46408 -28.6092,0.0072c-1.81339,-0.0686 -4.63708,-3.41009 -4.63708,-3.41009z" fill="#582600" stroke="#000000" stroke-width="2.5" stroke-linecap="round"/><path d="M300.28164,39.51682c-0.51037,-0.00149 -0.91587,-2.79542 -0.90575,-6.24036c0.01012,-3.44494 0.43206,-6.23641 0.94243,-6.2349c0.51037,0.00149 0.91589,2.7954 0.90576,6.24035c-0.01012,3.44494 -0.43207,6.23642 -0.94244,6.23492z" fill="none" stroke="#000000" stroke-width="2.5" stroke-linecap="butt"/><path d="M307.05576,44.38065c-3.3382,0.25689 -6.08398,0 -6.08398,0" fill="none" stroke="#000000" stroke-width="2.5" stroke-linecap="round"/><path d="M254.31941,246.92741c0,0 -2.82368,3.3415 -4.63707,3.41009c-12.07843,0.45688 -23.79253,0.86384 -28.6092,-0.0072c-4.40211,-0.79607 -5.79739,-3.51918 -5.79739,-3.51918c0,0 -1.82333,-2.38462 -1.95172,-3.91425c-0.38517,-4.58889 -0.86989,-17.73032 -0.23844,-29.08973c0.02107,-0.37912 0.04665,-0.59141 0.09027,-0.9686c0.13086,-1.13157 0.82867,-5.52903 0.82867,-5.52903c0,0 3.14292,-1.7466 4.86197,-2.2675c5.15717,-1.5627 18.40608,-0.4359 32.32665,-0.40073c1.26172,0.00319 3.4688,1.62465 3.4688,1.62465c0,0 1.62627,3.09425 1.63209,5.07777c0.03768,12.82377 0.03218,27.01252 -0.18113,30.2622c-0.0711,1.08323 -1.79353,5.32153 -1.79353,5.32153z" data-paper-data="{&quot;origPos&quot;:null}" fill="#582600" stroke="#000000" stroke-width="2.5" stroke-linecap="round"/><path d="M151.70781,251.7818c-12.07843,0.48545 -23.79253,0.91786 -28.6092,-0.00765c-4.40211,-0.84585 -5.79739,-3.73923 -5.79739,-3.73923c0,0 -1.82333,-2.53373 -1.95172,-4.15901c-0.38516,-4.87583 -0.8699,-18.83898 -0.23844,-30.90869c0.02107,-0.40283 0.04665,-0.62839 0.09027,-1.02917c0.13086,-1.20233 0.82868,-5.87476 0.82868,-5.87476c0,0 3.14291,-1.85581 4.86197,-2.40929c5.15716,-1.66041 18.40608,-0.46316 32.32665,-0.42579c1.26172,0.00339 3.4688,1.72624 3.4688,1.72624c0,0 1.62627,3.28773 1.63209,5.39528c0.03768,13.62563 0.03217,28.70158 -0.18113,32.15447c-0.0711,1.15096 -1.79353,5.65428 -1.79353,5.65428z" data-paper-data="{&quot;origPos&quot;:null}" fill="#582600" stroke="#000000" stroke-width="2.5" stroke-linecap="round"/><path d="M27.23536,247.48162c0,0 -1.72243,-4.2383 -1.79353,-5.32153c-0.21331,-3.24969 -0.21881,-17.43843 -0.18113,-30.2622c0.00583,-1.98352 1.6321,-5.07777 1.6321,-5.07777c0,0 2.20707,-1.62146 3.46879,-1.62465c13.92057,-0.03517 27.16949,-1.16196 32.32665,0.40073c1.71906,0.5209 4.86197,2.2675 4.86197,2.2675c0,0 0.69781,4.39746 0.82867,5.52903c0.04362,0.37719 0.06919,0.58949 0.09027,0.9686c0.63146,11.35942 0.14673,24.50086 -0.23843,29.08973c-0.12839,1.52963 -1.95172,3.91425 -1.95172,3.91425c0,0 -1.39528,2.72311 -5.79739,3.51918c-4.81666,0.87105 -16.53077,0.46408 -28.60919,0.0072c-1.81339,-0.0686 -4.63708,-3.41009 -4.63708,-3.41009z" data-paper-data="{&quot;origPos&quot;:null}" fill="#582600" stroke="#000000" stroke-width="2.5" stroke-linecap="round"/><g data-paper-data="{&quot;index&quot;:null}"><g data-paper-data="{&quot;origRot&quot;:0,&quot;index&quot;:null}" stroke="#000000" stroke-width="3" stroke-linecap="round"><path d="M322.4059,303.77296c-2.00933,0.30676 -1.9325,-6.96779 -1.9325,-6.96779c0,0 -0.31552,-14.20592 -0.51749,-23.29845c-0.13261,-5.97052 -0.33981,-15.29874 -0.33981,-15.29874c0,0 0.12969,-5.92308 1.22806,-6.00311c6.608,-0.48135 12.90874,-2.24981 16.23949,-1.31674c1.11026,0.31103 2.43638,5.86998 2.43638,5.86998l6.54141,29.38064c0,0 2.13933,10.42911 1.79252,15.0237c-0.19235,2.5482 -25.44807,2.61048 -25.44807,2.61048z" data-paper-data="{&quot;origPos&quot;:null}" fill="#582600"/><path d="M346.41147,293.74323l-24.78358,2.69745" fill="none"/><path d="M321.0322,293.16185l24.75788,-2.93347" data-paper-data="{&quot;origPos&quot;:null}" fill="none"/></g><path d="M320.93282,292.27422l-0.31404,-38.76231l15.71902,-1.75919l1.34672,0.54209l8.29532,37.22576z" fill="#ffcb66" stroke="#000000" stroke-width="1" stroke-linecap="round"/><path d="M321.08103,296.42l-0.25989,-2.31656l25.34184,-2.84311l0.2599,2.31657z" fill="#ffffff" stroke="none" stroke-width="0" stroke-linecap="butt"/></g><g data-paper-data="{&quot;origRot&quot;:0,&quot;index&quot;:null}" stroke="#000000" stroke-linecap="round"><path d="M312.42958,311.22822c0,0 -0.1413,-4.79863 1.40195,-4.79787c4.5539,0.00225 8.94659,-1.68984 13.20774,-0.08348c1.76946,0.66705 2.5185,4.88981 2.5185,4.88981l4.71571,32.77024c0,0 0.53104,3.37741 0.76776,5.3287c0.25309,2.08626 -0.75678,5.23805 -2.85505,5.35552c-7.7042,0.43132 -12.42405,2.11945 -17.2913,1.16172c-1.77321,-0.34891 -3.63218,-0.83563 -4.36762,-2.48644c-0.96072,-2.1564 -0.33679,-6.59447 -0.33679,-6.59447z" data-paper-data="{&quot;origPos&quot;:null}" fill="#ff0000" stroke-width="3"/><path d="M335.14151,352.6867c0,0 -5.86927,2.77384 -10.95469,2.9028c-3.90171,0.09893 -12.37851,-0.71033 -12.37851,-0.71033c0,0 -1.41846,-2.57238 -1.54805,-4.16979c-0.13653,-1.68277 0.86615,-4.23531 0.86615,-4.23531l23.28256,-1.38807z" data-paper-data="{&quot;origPos&quot;:null}" fill="#976e57" stroke-width="2"/><path d="M312.51911,311.54689c0,0 -0.1413,-4.79862 1.40195,-4.79786c4.5539,0.00225 8.94659,-1.68984 13.20774,-0.08346c1.76945,0.66705 2.5185,4.8898 2.5185,4.8898l4.7157,32.77023c0,0 0.53104,3.37743 0.76776,5.32871c0.25309,2.08626 -0.75678,5.23805 -2.85505,5.35552c-7.70422,0.43132 -12.42407,2.11945 -17.29132,1.16172c-1.77321,-0.34892 -3.63217,-0.83564 -4.36761,-2.48644c-0.96071,-2.15639 -0.33679,-6.59447 -0.33679,-6.59447z" data-paper-data="{&quot;origPos&quot;:null}" fill="#474747" stroke-width="3"/></g><g data-paper-data="{&quot;index&quot;:null,&quot;origRot&quot;:0}" stroke="#000000" stroke-linecap="round"><path d="M328.39875,347.07941c0,0 0.57104,4.4452 -0.41525,6.59c-0.75503,1.64194 -2.61966,2.10648 -4.3969,2.43428c-4.8783,0.89974 -9.57774,-0.84446 -17.27626,-1.36744c-2.09674,-0.14244 -3.06901,-3.30601 -2.79111,-5.38912c0.25993,-1.94831 0.83113,-5.31918 0.83113,-5.31918l5.1054,-32.71179c0,0 0.79924,-4.21352 2.5765,-4.85947c4.27996,-1.55553 8.65221,0.18872 13.2058,0.24067c1.54315,0.01762 1.34475,4.81421 1.34475,4.81421z" data-paper-data="{&quot;origPos&quot;:null}" fill="#ff0000" stroke-width="3"/><path d="M304.20205,345.10539l23.26438,1.66508c0,0 0.97222,2.56428 0.81568,4.24531c-0.14859,1.59576 -1.59756,4.15108 -1.59756,4.15108c0,0 -8.48584,0.70833 -12.3861,0.56296c-5.0835,-0.18948 -10.91935,-3.03298 -10.91935,-3.03298z" data-paper-data="{&quot;origPos&quot;:null}" fill="#976e57" stroke-width="2.5"/><path d="M328.30546,347.39704c0,0 0.57104,4.4452 -0.41525,6.59c-0.75503,1.64194 -2.61966,2.10649 -4.3969,2.43429c-4.8783,0.89974 -9.57774,-0.84446 -17.27626,-1.36744c-2.09674,-0.14245 -3.06901,-3.30602 -2.79111,-5.38913c0.25993,-1.94831 0.83113,-5.31918 0.83113,-5.31918l5.1054,-32.71179c0,0 0.79924,-4.21352 2.5765,-4.85947c4.27996,-1.55553 8.65222,0.18872 13.2058,0.24067c1.54315,0.01761 1.34474,4.8142 1.34474,4.8142c0,0 0.45919,8.99361 0.75308,14.75c0.41481,8.12444 1.06287,20.81786 1.06287,20.81786z" data-paper-data="{&quot;origPos&quot;:null}" fill="#474747" stroke-width="1.5"/></g><g data-paper-data="{&quot;index&quot;:null}"><path d="M305.04645,262.56881c0,0 1.03567,-14.32549 2.53286,-14.81244c4.49154,-1.46085 14.86468,-0.12226 21.78386,0.15171c1.06964,0.04236 2.2961,13.58403 2.2961,13.58403l1.93105,30.6135c0,0 0.50486,14.93344 -0.66201,14.88724c-10.38725,-0.41131 -22.54273,-0.04255 -27.19136,-1.06507c-1.54953,-0.34084 -1.32277,-16.0427 -1.32277,-16.0427z" data-paper-data="{&quot;origPos&quot;:null}" fill="#ffcb66" stroke="#000000" stroke-width="3.5" stroke-linecap="round"/><path d="M324.40702,273.70813v-2.08333c0,-6.48149 0,-12.96297 0,-19.44445c0,0 -0.00001,-3.125 1.29166,-3.125c1.29167,0 1.29167,3.125 1.29167,3.125c0,6.48149 0,15.0463 0,21.52778c0,0 0,3.125 -1.29167,3.125c-1.29166,0 -1.29166,-3.125 -1.29166,-3.125z" fill="#ffffff" stroke="none" stroke-width="0.5" stroke-linecap="butt"/></g><g data-paper-data="{&quot;index&quot;:null}"><g stroke="#000000" stroke-width="3" stroke-linecap="round"><path d="M296.49879,284.2803l7.89838,-29.04525c0,0 1.58278,-5.4914 2.70627,-5.75054c3.37048,-0.77744 9.58232,1.28162 16.16085,2.06924c1.09348,0.13092 0.94803,6.05365 0.94803,6.05365c0,0 -0.64004,9.30853 -1.0497,15.26645c-0.62388,9.07333 -1.59858,23.24931 -1.59858,23.24931c0,0 -0.26096,7.27026 -2.25392,6.87055c0,0 -9.63714,2.60368 -25.29943,-3.78911c-0.43172,-4.58738 2.48809,-14.92429 2.48809,-14.92429z" data-paper-data="{&quot;origPos&quot;:null}" fill="#582600"/><path d="M296.31745,286.37452l25.34772,4.26772l-0.51729,3.36246l-25.34773,-4.00908z" data-paper-data="{&quot;origPos&quot;:null}" fill="none"/></g><path d="M297.10893,286.03433l9.82048,-36.10471l15.59723,2.59955l1.15535,0.86652l-1.73302,36.8268z" fill="#ffcb66" stroke="#000000" stroke-width="1" stroke-linecap="round"/><path d="M296.06979,289.55574l0.367,-2.30203l25.18283,4.01466l-0.367,2.30203z" fill="#ffffff" stroke="none" stroke-width="0" stroke-linecap="butt"/></g><path d="M337.00339,243.73476c0,0 -2.82369,3.34149 -4.63708,3.41009c-12.07843,0.45688 -23.79254,0.86386 -28.6092,-0.0072c-4.4021,-0.79607 -5.79739,-3.51918 -5.79739,-3.51918c0,0 -1.82333,-2.38461 -1.95172,-3.91424c-0.38517,-4.58889 -0.8699,-17.73033 -0.23844,-29.08975c0.02107,-0.37912 0.04665,-0.59141 0.09027,-0.9686c0.13086,-1.13156 0.82867,-5.52903 0.82867,-5.52903c0,0 3.14291,-1.7466 4.86197,-2.2675c5.15716,-1.56271 18.40608,-0.4359 32.32665,-0.40073c1.26172,0.00318 3.46879,1.62465 3.46879,1.62465c0,0 1.62628,3.09424 1.6321,5.07777c0.03768,12.82378 0.03217,27.01251 -0.18113,30.2622z" fill="#582600" stroke="#000000" stroke-width="2.5" stroke-linecap="round"/><path d="M333.7577,230.51683c-0.51037,0.0015 -0.93232,-2.78998 -0.94244,-6.23492c-0.01013,-3.44495 0.39539,-6.23886 0.90576,-6.24035c0.51037,-0.00151 0.93231,2.78996 0.94243,6.2349c0.01012,3.44494 -0.39538,6.23887 -0.90575,6.24036z" fill="none" stroke="#000000" stroke-width="2.5" stroke-linecap="butt"/><path d="M333.06756,235.38065c0,0 -2.74578,0.25689 -6.08398,0" fill="none" stroke="#000000" stroke-width="2.5" stroke-linecap="round"/><g data-paper-data="{&quot;index&quot;:null}"><g stroke="#000000" stroke-width="3" stroke-linecap="round"><path d="M337.54055,93.28031c0,0 2.91981,10.33691 2.48809,14.92429c-15.66229,6.39279 -25.29943,3.78911 -25.29943,3.78911c-1.99296,0.39971 -2.25392,-6.87055 -2.25392,-6.87055c0,0 -0.9747,-14.17598 -1.59858,-23.24931c-0.40966,-5.95792 -1.0497,-15.26645 -1.0497,-15.26645c0,0 -0.14545,-5.92273 0.94803,-6.05365c6.57853,-0.78762 12.79037,-2.84668 16.16085,-2.06924c1.12349,0.25914 2.70627,5.75054 2.70627,5.75054l7.89838,29.04525z" data-paper-data="{&quot;origPos&quot;:null}" fill="#582600"/><path d="M338.23919,98.99564l-25.34773,4.00908l-0.51729,-3.36246l25.34772,-4.26772z" data-paper-data="{&quot;origPos&quot;:null}" fill="none"/></g><path d="M312.09037,99.22249l-1.73302,-36.8268l1.15535,-0.86652l15.59723,-2.59955l9.82048,36.10471z" fill="#ffcb66" stroke="#000000" stroke-width="1" stroke-linecap="round"/><path d="M312.78672,102.57041l-0.367,-2.30203l25.18283,-4.01466l0.367,2.30203z" fill="#ffffff" stroke="none" stroke-width="0" stroke-linecap="butt"/></g><path d="M26.37492,16.35576v-13h43.8v13z" fill="#000000" stroke="none" stroke-width="0" stroke-linecap="butt"/><path d="M295.6366,12.01642v-13h43.8v13z" data-paper-data="{&quot;index&quot;:null}" fill="#000000" stroke="none" stroke-width="0" stroke-linecap="butt"/><path d="M118.96994,16.34976v-13h43.8v13z" data-paper-data="{&quot;index&quot;:null}" fill="#000000" stroke="none" stroke-width="0" stroke-linecap="butt"/><path d="M115.96994,207.34976v-13h43.8v13z" data-paper-data="{&quot;index&quot;:null}" fill="#000000" stroke="none" stroke-width="0" stroke-linecap="butt"/><path d="M211.96994,205.34976v-13h43.8v13z" data-paper-data="{&quot;index&quot;:null}" fill="#000000" stroke="none" stroke-width="0" stroke-linecap="butt"/><path d="M295.96994,202.34976v-13h43.8v13z" data-paper-data="{&quot;index&quot;:null}" fill="#000000" stroke="none" stroke-width="0" stroke-linecap="butt"/><path d="M24.96994,207.34976v-13h43.8v13z" data-paper-data="{&quot;index&quot;:null}" fill="#000000" stroke="none" stroke-width="0" stroke-linecap="butt"/><g stroke="#000000" stroke-width="0.5" stroke-linecap="butt"><path d="M62.1194,99.14099c0,6.75773 -4.61499,12.23596 -10.30787,12.23596c-5.69288,0 -10.30787,-5.47823 -10.30787,-12.23596c0,-6.75773 4.61499,-12.23596 10.30787,-12.23596c5.69288,0 10.30787,5.47823 10.30787,12.23596z" fill="#ffa924"/><path d="M54.87201,87.85322c0.00042,0.01121 0.00064,0.02264 0.00064,0.03429c0,0.62472 -0.62472,0.62472 -0.62472,0.62472h-0.12494c-0.45645,0 -2.53723,0.0279 -2.84911,-0.10741c-0.26035,-0.11296 -0.20372,-0.54309 -0.39105,-0.75628c-0.17997,-0.20481 -0.43603,-0.33145 -0.67695,-0.45911c-0.38311,-0.20301 -0.90634,-0.19975 -1.18819,-0.52921c-0.26036,-0.30435 -0.29131,-0.7718 -0.26679,-1.17157c0.11516,-1.87748 1.26724,-1.8967 2.75543,-1.72741c0.44886,0.09887 0.91204,0.14686 1.34659,0.2966c0.19117,0.06587 0.30526,0.29409 0.50208,0.34041c0.1399,0.03293 0.27152,-0.0978 0.41262,-0.12514c0.00602,-0.00117 1.74906,-0.25012 1.76634,-0.25258c1.1784,-0.1673 2.43862,-0.21612 3.62786,-0.12987c0.75779,0.05496 2.47002,0.24268 2.90706,1.002c0.6224,1.08137 -1.1866,1.81308 -1.63938,1.99818c-1.33995,0.54778 -2.48368,0.20728 -3.84836,0.36625c-0.46486,0.05415 -1.21198,0.38014 -1.70913,0.59613z" fill="#1cc735"/></g><g data-paper-data="{&quot;index&quot;:null}"><g data-paper-data="{&quot;origRot&quot;:0,&quot;index&quot;:null}" stroke="#000000" stroke-width="3" stroke-linecap="round"><path d="M217.08935,114.50129c0,0 -25.25302,0.37444 -25.4894,-2.17007c-0.42622,-4.58791 1.53247,-15.05246 1.53247,-15.05246l6.03241,-29.48935c0,0 1.22981,-5.58105 2.33452,-5.91123c3.3141,-0.99053 9.64449,0.66874 16.25982,1.03575c1.09958,0.06102 1.33167,5.98098 1.33167,5.98098c0,0 -0.04588,9.3304 -0.07523,15.30233c-0.0447,9.09466 -0.11454,23.30392 -0.11454,23.30392c0,0 0.20261,7.27212 -1.81174,7.00015z" data-paper-data="{&quot;origPos&quot;:null}" fill="#582600"/><path d="M192.91392,104.88818l24.82653,2.26851" fill="none"/><path d="M218.27937,103.8681l-24.80491,-2.50496" data-paper-data="{&quot;origPos&quot;:null}" fill="none"/></g><path d="M193.27248,100.65869l7.6504,-37.36363l1.33714,-0.5653l15.7471,1.48713l0.35625,38.76194z" fill="#ffcb66" stroke="#000000" stroke-width="1" stroke-linecap="round"/><path d="M192.89967,104.72206l0.21981,-2.32071l25.38721,2.4045l-0.21981,2.32071z" fill="#ffffff" stroke="none" stroke-width="0" stroke-linecap="butt"/></g><g data-paper-data="{&quot;origRot&quot;:0,&quot;index&quot;:null}" stroke="#000000" stroke-linecap="round"><path d="M230.14189,156.94441c0,0 0.62393,4.43808 -0.33678,6.59447c-0.73544,1.65081 -2.5944,2.13752 -4.36762,2.48644c-4.86725,0.95773 -9.58712,-0.73039 -17.29132,-1.16172c-2.09828,-0.11746 -3.10814,-3.26926 -2.85505,-5.35552c0.23672,-1.95129 0.76776,-5.3287 0.76776,-5.3287l4.7157,-32.77023c0,0 0.74905,-4.22277 2.5185,-4.88981c4.26114,-1.60637 8.65384,0.08574 13.20773,0.08348c1.54325,-0.00075 1.40195,4.79787 1.40195,4.79787z" data-paper-data="{&quot;origPos&quot;:null}" fill="#ff0000" stroke-width="3"/><path d="M205.92336,155.25845l23.28258,1.38808c0,0 1.00267,2.55252 0.86615,4.2353c-0.12958,1.59741 -1.54804,4.1698 -1.54804,4.1698c0,0 -8.47681,0.80927 -12.37852,0.71033c-5.08542,-0.12896 -10.95469,-2.9028 -10.95469,-2.9028z" data-paper-data="{&quot;origPos&quot;:null}" fill="#976e57" stroke-width="2"/><path d="M230.05237,157.26311c0,0 0.62392,4.43808 -0.33679,6.59447c-0.73544,1.65079 -2.59439,2.13752 -4.36761,2.48644c-4.86725,0.95773 -9.58712,-0.7304 -17.29132,-1.16173c-2.09827,-0.11747 -3.10814,-3.26926 -2.85505,-5.35552c0.23672,-1.95128 0.76778,-5.3287 0.76778,-5.3287l4.7157,-32.77023c0,0 0.74904,-4.22276 2.51849,-4.8898c4.26115,-1.60639 8.65386,0.08572 13.20774,0.08346c1.54325,-0.00076 1.40195,4.79786 1.40195,4.79786z" data-paper-data="{&quot;origPos&quot;:null}" fill="#474747" stroke-width="3"/></g><g data-paper-data="{&quot;index&quot;:null,&quot;origRot&quot;:0}" stroke="#000000" stroke-linecap="round"><path d="M231.17188,121.68403c0,0 -0.19839,-4.79659 1.34475,-4.8142c4.55359,-0.05196 8.92583,-1.79621 13.20579,-0.24067c1.77725,0.64593 2.5765,4.85947 2.5765,4.85947l5.1054,32.71179c0,0 0.5712,3.37085 0.83113,5.31917c0.2779,2.0831 -0.69438,5.24669 -2.79111,5.38913c-7.69852,0.52298 -12.39796,2.26719 -17.27626,1.36744c-1.77724,-0.3278 -3.64185,-0.79234 -4.3969,-2.43428c-0.98629,-2.1448 -0.41525,-6.59 -0.41525,-6.59z" data-paper-data="{&quot;origPos&quot;:null}" fill="#ff0000" stroke-width="3"/><path d="M254.37557,162.86929c0,0 -5.83584,2.84349 -10.91935,3.03297c-3.90024,0.14537 -12.38608,-0.56295 -12.38608,-0.56295c0,0 -1.44898,-2.55531 -1.59757,-4.15108c-0.15654,-1.68103 0.81569,-4.24531 0.81569,-4.24531l23.26438,-1.66508z" data-paper-data="{&quot;origPos&quot;:null}" fill="#976e57" stroke-width="2.5"/><path d="M229.44921,157.56951c0,0 0.64807,-12.69342 1.06287,-20.81786c0.2939,-5.75639 0.75308,-14.75 0.75308,-14.75c0,0 -0.1984,-4.79659 1.34474,-4.8142c4.55358,-0.05196 8.92584,-1.79621 13.2058,-0.24067c1.77726,0.64593 2.5765,4.85947 2.5765,4.85947l5.1054,32.71179c0,0 0.5712,3.37085 0.83113,5.31917c0.2779,2.08309 -0.69438,5.24668 -2.79111,5.38912c-7.69853,0.52298 -12.39796,2.26719 -17.27626,1.36744c-1.77724,-0.3278 -3.64185,-0.79235 -4.3969,-2.43429c-0.98629,-2.1448 -0.41525,-6.59 -0.41525,-6.59z" data-paper-data="{&quot;origPos&quot;:null}" fill="#474747" stroke-width="1.5"/></g><path d="M250.74508,102.05729c0,0 0.82803,15.75777 -1.37783,16.03807c-6.61762,0.84093 -24.01925,-0.01169 -38.86622,-0.01169c-1.66785,0 -1.42456,-14.95796 -1.42456,-14.95796l1.7807,-30.62821c0,0 1.32026,-13.5334 2.84914,-13.5334c9.88992,0 24.68694,-0.93059 31.15944,0.71298c2.15751,0.54785 4.09862,14.95725 4.09862,14.95725z" data-paper-data="{&quot;origPos&quot;:null}" fill="#ffcb66" stroke="#000000" stroke-width="3.5" stroke-linecap="round"/><path d="M219.57784,79.84563v-1.65833c0,-5.15926 0,-10.31851 0,-15.47777c0,0 0,-2.4875 1.29167,-2.4875c1.29167,0 1.29167,2.4875 1.29167,2.4875c0,5.15926 0,11.97684 0,17.1361c0,0 0,2.4875 -1.29167,2.4875c-1.29167,0 -1.29167,-2.4875 -1.29167,-2.4875z" fill="#ffffff" stroke="none" stroke-width="0.5" stroke-linecap="butt"/><path d="M231.61951,88.91648c-1.29167,0 -1.29167,-3.125 -1.29167,-3.125v-2.08333c0,-6.48149 0,-12.96297 0,-19.44445c0,0 0,-3.125 1.29167,-3.125c1.29167,0 1.29167,3.125 1.29167,3.125c0,6.48148 0,15.04629 0,21.52777c0,0 0,3.125 -1.29167,3.125z" fill="#ffffff" stroke="none" stroke-width="0.5" stroke-linecap="butt"/><g data-paper-data="{&quot;index&quot;:null}"><g stroke="#000000" stroke-width="3" stroke-linecap="round"><path d="M268.38925,95.45276c0,0 2.91981,10.33691 2.48808,14.92429c-15.66229,6.39278 -25.29943,3.78911 -25.29943,3.78911c-1.99294,0.39971 -2.25392,-6.87055 -2.25392,-6.87055c0,0 -0.9747,-14.17598 -1.59858,-23.24931c-0.40966,-5.95792 -1.0497,-15.26645 -1.0497,-15.26645c0,0 -0.14544,-5.92273 0.94804,-6.05365c6.57854,-0.78762 12.79037,-2.84669 16.16085,-2.06925c1.12349,0.25914 2.70627,5.75054 2.70627,5.75054l7.89838,29.04526z" data-paper-data="{&quot;origPos&quot;:null}" fill="#582600"/><path d="M269.08789,101.16809l-25.34773,4.00908l-0.51729,-3.36246l25.34772,-4.26772z" data-paper-data="{&quot;origPos&quot;:null}" fill="none"/></g><path d="M242.93911,101.39495l-1.73303,-36.8268l1.15535,-0.86652l15.59723,-2.59955l9.82048,36.10471z" fill="#ffcb66" stroke="#000000" stroke-width="1" stroke-linecap="round"/><path d="M243.63542,104.74285l-0.36699,-2.30203l25.18283,-4.01465l0.367,2.30203z" fill="#ffffff" stroke="none" stroke-width="0" stroke-linecap="butt"/></g><path d="M209.55126,56.39613c0,0 -1.72244,-4.2383 -1.79353,-5.32153c-0.2133,-3.24968 -0.21881,-17.43843 -0.18113,-30.2622c0.00582,-1.98352 1.63209,-5.07777 1.63209,-5.07777c0,0 2.20708,-1.62146 3.4688,-1.62465c13.92057,-0.03517 27.16948,-1.16198 32.32665,0.40073c1.71906,0.5209 4.86197,2.2675 4.86197,2.2675c0,0 0.69782,4.39747 0.82867,5.52903c0.04362,0.37719 0.0692,0.58949 0.09027,0.96861c0.63145,11.35941 0.14672,24.50084 -0.23844,29.08973c-0.12839,1.52963 -1.95172,3.91425 -1.95172,3.91425c0,0 -1.39528,2.72311 -5.79739,3.51918c-4.81666,0.87104 -16.53077,0.46408 -28.60919,0.0072z" data-paper-data="{&quot;index&quot;:null}" fill="#582600" stroke="#000000" stroke-width="2.5" stroke-linecap="round"/><path d="M216.44731,45.99893c-0.51036,-0.00149 -0.91588,-2.79541 -0.90576,-6.24035c0.01013,-3.44493 0.43207,-6.23641 0.94243,-6.2349c0.51036,0.00149 0.91588,2.7954 0.90576,6.24034c-0.01013,3.44494 -0.43207,6.23642 -0.94243,6.23491z" data-paper-data="{&quot;index&quot;:null}" fill="none" stroke="#000000" stroke-width="2.5" stroke-linecap="butt"/><path d="M230.60586,40.19492c-0.01031,3.50874 -0.32898,6.35221 -0.71175,6.35109c-0.38277,-0.00113 -0.6847,-2.84642 -0.67439,-6.35517c0.01031,-3.50874 0.32897,-6.35223 0.71174,-6.35111c0.38275,0.00111 0.68471,2.84643 0.6744,6.35518z" data-paper-data="{&quot;index&quot;:null}" fill="none" stroke="#000000" stroke-width="2.5" stroke-linecap="butt"/><path d="M226.37403,49.53535c-3.33819,0.25689 -6.08398,0 -6.08398,0" data-paper-data="{&quot;index&quot;:null}" fill="none" stroke="#000000" stroke-width="2.5" stroke-linecap="round"/><path d="M207.28524,16.35576v-13h43.8v13z" data-paper-data="{&quot;index&quot;:null}" fill="#000000" stroke="none" stroke-width="0" stroke-linecap="butt"/><path d="M227.3153,86.90503c5.69288,0 10.30787,5.47823 10.30787,12.23596c0,6.75773 -4.61499,12.23596 -10.30787,12.23596c-5.69288,0 -10.30787,-5.47822 -10.30787,-12.23596c0,-6.75773 4.61499,-12.23596 10.30787,-12.23596z" fill="#ffa924" stroke="#000000" stroke-width="0.5" stroke-linecap="butt"/><path d="M227.55696,87.60322c0.00042,0.01122 0.00064,0.02264 0.00064,0.03429c0,0.62472 -0.62472,0.62472 -0.62472,0.62472h-0.12495c-0.45644,0 -2.53723,0.0279 -2.84911,-0.10741c-0.26036,-0.11295 -0.20372,-0.5431 -0.39105,-0.75628c-0.17997,-0.20481 -0.43603,-0.33145 -0.67694,-0.45911c-0.38311,-0.20301 -0.90634,-0.19975 -1.18819,-0.52921c-0.26037,-0.30435 -0.29131,-0.7718 -0.2668,-1.17157c0.11515,-1.87748 1.26724,-1.8967 2.75543,-1.72741c0.44887,0.09887 0.91204,0.14686 1.34659,0.2966c0.19117,0.06588 0.30526,0.29409 0.50208,0.34041c0.1399,0.03293 0.27152,-0.0978 0.41262,-0.12514c0.00602,-0.00117 1.74905,-0.25012 1.76633,-0.25257c1.1784,-0.1673 2.43863,-0.21612 3.62786,-0.12988c0.75779,0.05496 2.47002,0.24268 2.90706,1.002c0.62241,1.08137 -1.1866,1.81308 -1.63939,1.99818c-1.33995,0.54778 -2.48368,0.20728 -3.84837,0.36625c-0.46486,0.05415 -1.21198,0.38014 -1.70913,0.59614z" data-paper-data="{&quot;index&quot;:null}" fill="#1cc735" stroke="#000000" stroke-width="0.5" stroke-linecap="butt"/><g stroke="#000000" stroke-width="0.5" stroke-linecap="butt"><path d="M151.78607,98.47432c0,6.75773 -4.61499,12.23596 -10.30787,12.23596c-5.69288,0 -10.30786,-5.47822 -10.30786,-12.23596c0,-6.75773 4.61498,-12.23596 10.30786,-12.23596c5.69288,0 10.30787,5.47823 10.30787,12.23596z" fill="#ffa924"/><path d="M144.53868,87.18655c0.00043,0.01122 0.00064,0.02264 0.00064,0.03429c0,0.62472 -0.62472,0.62472 -0.62472,0.62472h-0.12494c-0.45644,0 -2.53723,0.0279 -2.84911,-0.10741c-0.26036,-0.11295 -0.20371,-0.5431 -0.39105,-0.75628c-0.17998,-0.20481 -0.43603,-0.33145 -0.67694,-0.45911c-0.38311,-0.20301 -0.90634,-0.19975 -1.18819,-0.52921c-0.26037,-0.30435 -0.29131,-0.7718 -0.26679,-1.17157c0.11516,-1.87748 1.26724,-1.8967 2.75543,-1.72741c0.44886,0.09887 0.91204,0.14686 1.34659,0.2966c0.19117,0.06588 0.30526,0.29409 0.50208,0.34041c0.1399,0.03293 0.27152,-0.0978 0.41262,-0.12514c0.00602,-0.00117 1.74906,-0.25012 1.76634,-0.25257c1.1784,-0.1673 2.43862,-0.21612 3.62786,-0.12988c0.75779,0.05496 2.47002,0.24268 2.90706,1.002c0.62241,1.08137 -1.1866,1.81308 -1.63939,1.99818c-1.33995,0.54778 -2.48368,0.20728 -3.84836,0.36625c-0.46486,0.05415 -1.21198,0.38014 -1.70913,0.59614z" fill="#1cc735"/></g></g></g></svg>