<svg version="1.1" xmlns="http://www.w3.org/2000/svg" xmlns:xlink="http://www.w3.org/1999/xlink" width="171.74731" height="110.39019" viewBox="0,0,171.74731,110.39019"><g transform="translate(-154.43843,-124.43403)"><g data-paper-data="{&quot;isPaintingLayer&quot;:true}" fill-rule="nonzero" stroke-linejoin="miter" stroke-miterlimit="10" stroke-dasharray="" stroke-dashoffset="0" style="mix-blend-mode: normal"><text transform="translate(230.19722,231.26649) scale(0.2033,0.2033)" font-size="40" xml:space="preserve" fill="#000000" fill-rule="nonzero" stroke="none" stroke-width="1" stroke-linecap="butt" stroke-linejoin="miter" stroke-miterlimit="10" stroke-dasharray="" stroke-dashoffset="0" font-family="Marker" font-weight="normal" text-anchor="start" style="mix-blend-mode: normal"><tspan x="0" dy="0">Sad</tspan></text><text transform="translate(187.79419,231.87637) scale(0.2033,0.2033)" font-size="40" xml:space="preserve" fill="#000000" fill-rule="nonzero" stroke="none" stroke-width="1" stroke-linecap="butt" stroke-linejoin="miter" stroke-miterlimit="10" stroke-dasharray="" stroke-dashoffset="0" font-family="Marker" font-weight="normal" text-anchor="start" style="mix-blend-mode: normal"><tspan x="0" dy="0">Neutral</tspan></text><text transform="translate(155.06425,231.87637) scale(0.2033,0.2033)" font-size="40" xml:space="preserve" fill="#000000" fill-rule="nonzero" stroke="none" stroke-width="1" stroke-linecap="butt" stroke-linejoin="miter" stroke-miterlimit="10" stroke-dasharray="" stroke-dashoffset="0" font-family="Marker" font-weight="normal" text-anchor="start" style="mix-blend-mode: normal"><tspan x="0" dy="0">Happy</tspan></text><text transform="translate(259.39915,231.87637) scale(0.2033,0.2033)" font-size="40" xml:space="preserve" fill="#000000" fill-rule="nonzero" stroke="none" stroke-width="1" stroke-linecap="butt" stroke-linejoin="miter" stroke-miterlimit="10" stroke-dasharray="" stroke-dashoffset="0" font-family="Marker" font-weight="normal" text-anchor="start" style="mix-blend-mode: normal"><tspan x="0" dy="0">Excited</tspan></text><text transform="translate(300.22129,231.87637) scale(0.2033,0.2033)" font-size="40" xml:space="preserve" fill="#000000" fill-rule="nonzero" stroke="none" stroke-width="1" stroke-linecap="butt" stroke-linejoin="miter" stroke-miterlimit="10" stroke-dasharray="" stroke-dashoffset="0" font-family="Marker" font-weight="normal" text-anchor="start" style="mix-blend-mode: normal"><tspan x="0" dy="0">Angry</tspan></text><path d="M253.42608,165.22046c-0.70797,1.91817 -2.22649,3.05324 -3.39168,2.53525c-1.16519,-0.51799 -1.53586,-2.49288 -0.82788,-4.41105c0.70797,-1.91817 2.22649,-3.05324 3.39168,-2.53525c1.16519,0.51799 1.53586,2.49288 0.82788,4.41105z" fill="#000000" stroke="#000000" stroke-width="2.5" stroke-linecap="butt"/><path d="M216.65826,166.23691c-0.70797,1.91817 -2.22649,3.05325 -3.39168,2.53527c-1.16519,-0.51799 -1.53586,-2.49289 -0.82789,-4.41106c0.70797,-1.91817 2.22649,-3.05324 3.39169,-2.53525c1.16519,0.51799 1.53584,2.49288 0.82788,4.41105z" fill="#000000" stroke="#000000" stroke-width="2.5" stroke-linecap="butt"/><path d="M251.26698,151.58891l-22.99122,-1.23199c0,0 2.39652,-4.71896 9.84608,-4.31977c7.44956,0.39919 13.14514,5.55176 13.14514,5.55176z" data-paper-data="{&quot;index&quot;:null}" fill="#ffffff" stroke="#000000" stroke-width="2.5" stroke-linecap="butt"/><path d="M215.77665,149.89748c0,1.27839 -5.18331,2.31472 -11.57724,2.31472c-6.39393,0 -11.57724,-1.03634 -11.57724,-2.31472c0,-1.27839 5.18331,-2.31471 11.57724,-2.31471c6.39393,0 11.57724,1.03633 11.57724,2.31471z" fill="#ffffff" stroke="#000000" stroke-width="2.5" stroke-linecap="butt"/><path d="M163.90361,152.08065c-7.42946,-0.45623 -7.84359,-4.94632 -7.84359,-4.94632l22.92914,1.40805c0,0 -7.6561,3.99451 -15.08555,3.53829z" fill="#ffffff" stroke="#000000" stroke-width="2.5" stroke-linecap="butt"/><path d="M180.81661,165.83032c-0.70797,1.91817 -2.22649,3.05325 -3.39168,2.53527c-1.16519,-0.51799 -1.53585,-2.49289 -0.82788,-4.41106c0.70797,-1.91817 2.22648,-3.05324 3.39168,-2.53525c1.16519,0.51799 1.53586,2.49288 0.82788,4.41105z" fill="#000000" stroke="#000000" stroke-width="2.5" stroke-linecap="butt"/><g stroke="#000000" stroke-width="2.5" stroke-linecap="butt"><path d="M163.90361,201.03335c-7.42946,-0.69128 -7.84359,-7.49448 -7.84359,-7.49448l22.92914,2.13342c0,0 -7.6561,6.05232 -15.08555,5.36106z" fill="#ffffff"/><path d="M170.66505,197.86598c-0.05516,1.00866 -2.12805,1.69279 -4.62997,1.52804c-2.50192,-0.16475 -4.48544,-1.11598 -4.43028,-2.12464c0.05516,-1.00866 2.12806,-1.69279 4.62999,-1.52804c2.50192,0.16475 4.48543,1.11597 4.43027,2.12463z" fill="#ff8484"/></g><g stroke="#000000" stroke-width="2.5" stroke-linecap="butt"><path d="M213.9243,197.85117c0,1.85254 -5.18331,3.35431 -11.57724,3.35431c-6.39393,0 -11.57724,-1.50177 -11.57724,-3.35431c0,-1.85254 5.18331,-3.3543 11.57724,-3.3543c6.39393,0 11.57724,1.50177 11.57724,3.3543z" fill="#ffffff"/><path d="M206.51388,197.87061c0.01916,1.01025 -1.99672,1.87564 -4.50259,1.93288c-2.50588,0.05724 -4.55284,-0.71533 -4.572,-1.72558c-0.01916,-1.01025 1.99671,-1.87564 4.50259,-1.93287c2.50588,-0.05724 4.55284,0.71533 4.572,1.72558z" fill="#ff8484"/></g><g stroke="#000000" stroke-width="2.5" stroke-linecap="butt"><path d="M250.15556,201.04897l-22.99121,-1.82923c0,0 2.39651,-7.00661 9.84607,-6.41392c7.44956,0.5927 13.14514,8.24314 13.14514,8.24314z" data-paper-data="{&quot;index&quot;:null}" fill="#ffffff"/><path d="M243.27453,197.2561c-0.05516,1.00866 -2.12805,1.69279 -4.62998,1.52804c-2.50193,-0.16475 -4.48543,-1.11598 -4.43029,-2.12465c0.05516,-1.00866 2.12806,-1.69279 4.62998,-1.52804c2.50192,0.16475 4.48543,1.11598 4.43029,2.12464z" fill="#ff8484"/></g><g stroke="#000000" stroke-width="2.5"><path d="M160.04088,180.07072c-3.72463,-1.20073 -3.98084,-3.56992 -3.98084,-3.56992l22.92913,1.2009c0,0 -3.55677,1.5827 -8.17427,2.46738c-0.15445,0.02959 -1.75135,-0.30679 -3.29113,-0.31008c-1.01604,-0.00217 -2.21638,0.33159 -2.21638,0.33159c0,0 -1.0571,-0.354 -2.22433,-0.37534c-1.40506,-0.02569 -2.96972,0.27883 -3.04217,0.25547z" fill="#ffffff" stroke-linecap="butt"/><path d="M165.67185,180.18937l2.0376,1.18344" fill="none" stroke-linecap="round"/><path d="M172.71082,181.54187l-2.0376,-1.18344" fill="none" stroke-linecap="round"/><path d="M160.48525,179.85125l-2.03759,1.18345" data-paper-data="{&quot;index&quot;:null}" fill="none" stroke-linecap="round"/></g><g stroke="#000000" stroke-width="2.5"><path d="M203.55109,181.71093l-2.03759,-1.18344" fill="none" stroke-linecap="round"/><path d="M210.03434,181.54187l-2.0376,-1.18344" fill="none" stroke-linecap="round"/><path d="M194.28929,181.37281l2.03759,-1.18344" data-paper-data="{&quot;index&quot;:null}" fill="none" stroke-linecap="round"/><path d="M214.10953,178.48091c0,0.84083 -2.1446,1.57925 -5.37652,1.99912c-0.08994,0.01168 -1.8829,-0.57992 -3.34264,-0.49479c-1.59213,0.09286 -2.85808,0.86254 -2.85808,0.86254c0,0 -1.85791,-0.97289 -3.79098,-1.09661c-1.68063,-0.10756 -3.46328,0.6331 -3.56245,0.61775c-2.79115,-0.43215 -4.22382,-1.11703 -4.22382,-1.88803c0,-1.30719 5.1833,-2.36688 11.57723,-2.36688c6.39393,0 11.57724,1.05969 11.57724,2.36688z" fill="#ffffff" stroke-linecap="butt"/></g><g stroke="#000000" stroke-width="2.5"><path d="M238.28132,179.68217l2.03759,1.18345" fill="none" stroke-linecap="round"/><path d="M246.06121,181.03465l-2.03759,-1.18344" fill="none" stroke-linecap="round"/><path d="M233.09471,179.34406l-2.03759,1.18344" data-paper-data="{&quot;index&quot;:null}" fill="none" stroke-linecap="round"/><path d="M250.3408,180.37951l-5.55876,-0.30458c0,0 -1.60373,-0.58491 -2.41117,-0.62915c-0.96372,-0.0528 -2.9857,0.33344 -2.9857,0.33344c0,0 -2.4841,-0.6433 -3.70249,-0.71006c-1.18763,-0.06508 -3.51792,0.31443 -3.51792,0.31443l-4.81518,-0.26382c0,0 2.3965,-3.81091 9.84607,-3.40273c7.44956,0.40818 13.14515,4.66248 13.14515,4.66248z" data-paper-data="{&quot;index&quot;:null}" fill="#ffffff" stroke-linecap="butt"/></g><g stroke="#000000" stroke-width="2.5" stroke-linecap="butt"><path d="M164.51929,221.11583c-7.42946,-0.69266 -7.84357,-7.50957 -7.84357,-7.50957l22.92913,2.13772c0,0 -7.65609,6.06452 -15.08555,5.37185z" fill="#000000"/><path d="M164.51929,221.11583c-3.55849,-0.33176 -5.50757,-2.06852 -6.57261,-3.78825c-0.00684,-0.01105 4.6065,-1.6936 7.3712,-2.15858c2.31284,-0.38899 4.94316,-0.02738 6.11909,0.36632c1.50876,0.50513 -2.88684,2.34489 -3.50777,3.54307c-0.51378,0.99144 0.61905,1.82201 0.55984,1.83275c-1.3003,0.23597 -2.63866,0.32877 -3.96975,0.20468z" fill="#ff8484"/></g><g stroke="#000000" stroke-width="2.5" stroke-linecap="butt"><path d="M163.59311,136.92795c-7.42946,-1.0091 -7.84357,-10.94034 -7.84357,-10.94034l22.92913,3.11434c0,0 -7.65609,8.83511 -15.08555,7.82601z" fill="#000000"/><path d="M163.59311,136.92793c-3.55849,-0.48333 -5.50757,-3.01353 -6.57261,-5.51892c-0.01257,-0.02956 3.12876,-0.31624 5.71038,0.94294c2.75718,1.34481 4.96276,4.24322 4.83198,4.2778c-1.3003,0.34377 -2.63867,0.47898 -3.96975,0.29818z" fill="#ff8484"/></g><g stroke="#000000" stroke-width="2.5" stroke-linecap="butt"><path d="M249.78509,220.56496l-22.99121,-1.78431c0,0 2.39651,-6.83456 9.84608,-6.25642c7.44956,0.57815 13.14514,8.04073 13.14514,8.04073z" data-paper-data="{&quot;index&quot;:null}" fill="#000000"/><path d="M238.30171,219.64616l-11.50783,-0.86551c0,0 -0.06752,-0.37577 1.15308,-1.85035c0.13513,-0.16325 6.67967,-3.28991 8.50257,-3.6009c1.8229,-0.31099 4.81739,-0.60111 4.38249,0.9947c-0.13797,0.50624 -1.50525,1.27183 -1.98138,2.24569c-0.69973,1.43117 -0.54892,3.07637 -0.54892,3.07637z" data-paper-data="{&quot;index&quot;:null}" fill="#ff8484"/></g><g stroke="#000000" stroke-width="2.5" stroke-linecap="butt"><path d="M252.3784,137.01213l-22.99123,-2.503c0,0 2.39651,-9.58741 9.84608,-8.7764c7.44956,0.81101 13.14515,11.2794 13.14515,11.2794z" data-paper-data="{&quot;index&quot;:null}" fill="#000000"/><path d="M240.89501,135.72327l-11.50784,-1.21412c0,0 0.48819,-1.953 1.70878,-4.02152c0.58643,-0.99381 4.75993,-0.75246 6.65022,0.36704c2.89258,1.71308 3.14884,4.86861 3.14884,4.86861z" data-paper-data="{&quot;index&quot;:null}" fill="#ff8484"/></g><g stroke="#000000" stroke-width="2.5" stroke-linecap="butt"><path d="M215.40618,133.8143c0,2.52618 -5.1833,4.57407 -11.57723,4.57407c-6.39393,0 -11.57724,-2.04788 -11.57724,-4.57406c0,-2.52618 5.18331,-4.57406 11.57724,-4.57406c6.39393,0 11.57723,2.04788 11.57723,4.57407z" fill="#000000"/><path d="M203.82894,138.38839c-5.00025,0 -9.26013,-1.25243 -10.8796,-3.0066c-0.20256,-0.21939 2.94128,-2.27925 5.91089,-1.56988c3.64806,0.87144 7.1275,4.57648 4.96871,4.57648z" fill="#ff8484"/></g><g stroke="#000000" stroke-width="2.5" stroke-linecap="butt"><path d="M214.66524,216.65563c0,1.7964 -5.18331,3.25267 -11.57725,3.25267c-6.39393,0 -11.57724,-1.45626 -11.57724,-3.25267c0,-1.7964 5.18331,-3.25266 11.57724,-3.25266c6.39393,0 11.57725,1.45626 11.57725,3.25266z" fill="#000000"/><path d="M203.088,219.9083c-5.00025,0 -9.26011,-0.89061 -10.87959,-2.13802c-0.13007,-0.10018 3.73953,-2.72676 7.84235,-3.87825c2.28647,-0.64172 5.15621,-0.26471 6.21891,-0.08419c2.03769,0.34615 -1.85439,1.39578 -3.12016,2.97291c-1.00032,1.2464 0.89144,3.12756 -0.06151,3.12756z" fill="#ff8484"/></g><g data-paper-data="{&quot;index&quot;:null}" stroke="#000000" stroke-width="2.5" stroke-linecap="butt"><path d="M275.2336,143.70755c-15.74615,-0.2213 -11.53793,-16.66559 -11.53793,-16.66559l23.44225,0.12193c0,0 4.76662,16.77796 -11.90432,16.54367z" fill="#000000"/><path d="M273.31113,138.80634c4.31115,1.3247 7.63412,4.14698 6.95221,4.33434c-1.40911,0.38717 -3.07153,0.59437 -5.02974,0.56686c-5.86885,-0.08247 -8.96569,-2.41863 -10.54158,-5.31701c-0.30615,-0.56308 4.66022,-0.80065 8.6191,0.41581z" fill="#ff8484"/><path d="M263.38183,132.58911c0.07569,-2.26639 0.31383,-5.54715 0.31383,-5.54715l20.60234,0.10716l0.06137,5.70694c0,0 -20.98005,-0.19224 -20.97755,-0.26694z" fill="#ffffff"/></g><g stroke="#000000" stroke-width="2.5" stroke-linecap="butt"><g data-paper-data="{&quot;index&quot;:null}" fill="#000000"><path d="M276.15978,155.09185c-18.7066,-0.33863 -11.72316,-7.51747 -11.72316,-7.51747l23.44226,0.12192c0,0 5.85381,7.5488 -11.71909,7.39555z"/></g><g data-paper-data="{&quot;index&quot;:null}" fill="#ffffff"><path d="M276.15978,155.09185c-18.7066,-0.33863 -11.72316,-7.51747 -11.72316,-7.51747c0,0 15.85942,0.08249 19.8172,0.10308c0.00546,0.00003 -1.2692,1.80736 -1.26295,3.62116c0.00512,1.48557 1.29633,3.04239 1.26256,3.05104c-1.88475,0.48264 -4.49911,0.77356 -8.09366,0.74221z"/></g></g><path d="M287.78583,165.22046c-0.70797,1.91817 -2.22648,3.05324 -3.39168,2.53525c-1.16519,-0.51799 -1.53586,-2.49288 -0.82788,-4.41105c0.70797,-1.91817 2.22648,-3.05324 3.39168,-2.53525c1.16519,0.51799 1.53587,2.49288 0.82789,4.41105z" fill="#000000" stroke="#000000" stroke-width="2.5" stroke-linecap="butt"/><g data-paper-data="{&quot;index&quot;:null}" stroke="#000000" stroke-width="2.5" stroke-linecap="butt"><path d="M275.04836,220.34846c-15.74615,-0.22128 -11.53793,-13.00634 -11.53793,-13.00634l23.44225,0.12192c0,0 4.76662,13.11871 -11.90433,12.88442z" fill="#000000"/><path d="M275.90444,211.58471c3.72667,0.36617 2.87184,2.60894 3.04742,4.53647c0.16717,1.83525 1.45885,3.36574 1.12627,3.45712c-1.40911,0.38717 -3.07153,0.59437 -5.02975,0.56685c-5.86885,-0.08248 -8.96569,-2.41862 -10.54158,-5.31701c-0.13093,-0.24083 2.27028,0.20268 3.98863,-0.5436c2.29941,-0.99863 4.40122,-3.16334 7.40902,-2.69983z" fill="#ff8484"/><path d="M263.19659,212.88927c0.07569,-2.26639 0.31384,-5.54716 0.31384,-5.54716l20.60234,0.10715l0.06137,5.70694c0,0 -20.98004,-0.19223 -20.97756,-0.26694z" fill="#ffffff"/></g><g stroke="#000000" stroke-width="2.5" stroke-linecap="butt"><g><g data-paper-data="{&quot;index&quot;:null}" fill="#000000"><path d="M276.15978,201.84849c-18.7066,-0.40272 -11.72316,-8.94008 -11.72316,-8.94008l23.44226,0.145c0,0 5.85381,8.97733 -11.71909,8.79509z"/></g><g data-paper-data="{&quot;index&quot;:null}" fill="#ffffff"><path d="M276.15978,201.84849c-18.7066,-0.40272 -11.72316,-8.94008 -11.72316,-8.94008c0,0 15.85942,0.09808 19.8172,0.12257c0.00546,0.00004 -1.2692,2.14938 -1.26295,4.30642c0.00512,1.76671 1.29633,3.61814 1.26256,3.62842c-1.88475,0.57398 -4.49911,0.91994 -8.09366,0.88267z"/></g></g><path d="M281.89451,197.61019c-0.06424,1.17485 -2.47866,1.97169 -5.39279,1.77979c-2.91414,-0.1919 -5.22444,-1.29984 -5.16021,-2.47469c0.06424,-1.17485 2.47867,-1.97169 5.3928,-1.7798c2.91414,0.1919 5.22444,1.29985 5.1602,2.47469z" fill="#ff8484"/></g><g><path d="M276.10273,182.19908l1.66713,1.21975" fill="none" stroke="#000000" stroke-width="2.5" stroke-linecap="round"/><path d="M284.62358,183.01222l-1.66712,-1.21974" fill="none" stroke="#000000" stroke-width="2.5" stroke-linecap="round"/><g><g stroke-linecap="butt"><g data-paper-data="{&quot;index&quot;:null}" fill="#000000" stroke="#000000" stroke-width="2.5"><path d="M276.15978,182.33294c-0.00941,-0.00017 -2.04969,-1.49007 -4.31887,-1.74508c-2.01537,-0.22648 -4.28953,0.77872 -4.29997,0.77587c-7.49015,-2.03972 -3.10432,-6.54825 -3.10432,-6.54825l23.44226,0.12192c0,0 4.07817,5.25898 -4.79166,6.90887c-0.05446,0.01013 -1.94879,-0.88265 -3.65601,-0.76252c-1.68397,0.11849 -3.18086,1.24999 -3.27142,1.2492z"/></g><g data-paper-data="{&quot;index&quot;:null}" fill="none" stroke="none" stroke-width="1" font-family="sans-serif" font-weight="normal" font-size="12" text-anchor="start"/></g><path d="M265.91476,182.40235l1.85235,-1.21975" fill="none" stroke="#000000" stroke-width="2.5" stroke-linecap="round"/><g stroke-linecap="butt"><g data-paper-data="{&quot;index&quot;:null}" fill="#ffffff" stroke="#000000" stroke-width="2.5"><path d="M276.15978,182.33294c-0.00941,-0.00017 -2.04969,-1.49007 -4.31887,-1.74508c-2.01537,-0.22648 -4.28953,0.77872 -4.29997,0.77587c-7.49015,-2.03972 -3.10432,-6.54825 -3.10432,-6.54825c0,0 14.95787,0.0778 19.07365,0.0992c0.02967,0.00015 -1.11834,1.70066 -1.19633,3.41712c-0.07889,1.73623 0.91125,3.4888 0.77328,3.51447c-0.05446,0.01013 -1.94879,-0.88265 -3.65601,-0.76252c-1.68397,0.11849 -3.18086,1.24999 -3.27142,1.2492z"/></g><g data-paper-data="{&quot;index&quot;:null}" fill="none" stroke="none" stroke-width="1" font-family="sans-serif" font-weight="normal" font-size="12" text-anchor="start"/></g></g></g><g data-paper-data="{&quot;index&quot;:null}" stroke="#000000" stroke-width="2.5" stroke-linecap="butt"><g data-paper-data="{&quot;index&quot;:null}" fill="#000000"><path d="M323.62938,154.97226l-23.44225,0.12192c0,0 -6.98343,-7.17885 11.72316,-7.51747c17.57292,-0.15324 11.71909,7.39555 11.71909,7.39555z"/></g><g data-paper-data="{&quot;index&quot;:null}" fill="#ffffff"><path d="M320.00394,148.31892c0.03376,0.00864 -1.25743,1.56546 -1.26254,3.05103c-0.00625,1.81379 1.2684,3.62112 1.26294,3.62116c-3.95778,0.02058 -19.81721,0.10307 -19.81721,0.10307c0,0 -6.98343,-7.17885 11.72316,-7.51747c3.59454,-0.03135 6.20889,0.25957 8.09365,0.74222z"/></g></g><path d="M323.90681,165.22046c-0.70797,1.91817 -2.22648,3.05324 -3.39168,2.53525c-1.16519,-0.51799 -1.53586,-2.49288 -0.82788,-4.41105c0.70797,-1.91817 2.22648,-3.05324 3.39168,-2.53525c1.16519,0.51799 1.53586,2.49288 0.82788,4.41105z" fill="#000000" stroke="#000000" stroke-width="2.5" stroke-linecap="butt"/><g stroke="#000000" stroke-width="2.5" stroke-linecap="butt"><path d="M323.07367,143.18147l-23.44225,0.12192c0,0 -4.20823,-16.44428 11.53791,-16.66558c16.67095,-0.23429 11.90434,16.54366 11.90434,16.54366z" fill="#000000"/><path d="M300.17242,132.90289c1.39995,-3.32047 4.4998,-6.17378 10.99692,-6.26509c4.3184,-0.06068 7.19832,1.02014 9.09525,2.65518c0.00902,0.00778 -0.05414,3.24443 -0.05414,3.24443c0,0 -20.04257,0.37623 -20.03804,0.36548z" fill="#ffffff"/><path d="M311.48397,143.24175c-3.9287,0.02043 -11.85256,0.06164 -11.85256,0.06164c0,0 -0.36355,-2.03047 -0.47711,-4.04221c-0.00985,-0.17449 3.66488,-0.29205 6.57196,0.51176c3.42425,0.94682 6.14229,3.46681 5.7577,3.4688z" fill="#ff8484"/></g><g stroke="#000000" stroke-width="2.5" stroke-linecap="butt"><g data-paper-data="{&quot;index&quot;:null}"><g data-paper-data="{&quot;index&quot;:null}" fill="#000000"><path d="M323.99985,201.70624l-23.44226,0.145c0,0 -6.98342,-8.53737 11.72318,-8.94008c17.57292,-0.18225 11.71909,8.79508 11.71909,8.79508z"/></g><g data-paper-data="{&quot;index&quot;:null}" fill="#ffffff"><path d="M320.37441,193.79383c0.03376,0.01028 -1.25744,1.86171 -1.26256,3.62841c-0.00625,2.15703 1.26841,4.30638 1.26295,4.30642c-3.95778,0.02448 -19.81721,0.12258 -19.81721,0.12258c0,0 -6.98343,-8.53736 11.72317,-8.94008c3.59454,-0.03727 6.20889,0.30869 8.09365,0.88267z"/></g></g><path d="M312.8553,199.62415c-2.91413,0.1919 -5.32857,-0.60495 -5.3928,-1.77979c-0.06424,-1.17485 2.24606,-2.28279 5.1602,-2.47469c2.91413,-0.1919 5.32857,0.60493 5.3928,1.77978c0.06424,1.17485 -2.24607,2.2828 -5.16021,2.47469z" data-paper-data="{&quot;index&quot;:null}" fill="#ff8484"/></g><g stroke="#000000" stroke-width="2.5" stroke-linecap="butt"><path d="M323.07367,219.43811l-23.44225,0.09962c0,0 -4.20823,-13.43584 11.53791,-13.61665c16.67095,-0.19142 11.90434,13.51704 11.90434,13.51704z" fill="#000000"/><path d="M314.44774,219.48736c-3.9287,0.01669 -14.81633,0.05036 -14.81633,0.05036c0,0 -0.36354,-1.659 -0.47711,-3.30269c-0.00476,-0.06889 2.00654,0.19702 4.60604,-1.53672c2.77992,-1.85407 3.24216,-5.09316 7.70823,-4.75377c6.09488,0.41443 2.9296,2.28175 2.45993,4.87038c-0.40703,2.24338 0.6978,4.67169 0.51923,4.67244z" fill="#ff8484"/><path d="M300.17242,211.03996c1.39995,-2.713 4.4998,-5.0443 10.99692,-5.1189c4.3184,-0.04958 7.19832,0.83351 9.09525,2.16942c0.00902,0.00635 -0.05414,2.65087 -0.05414,2.65087c0,0 -20.04257,0.30739 -20.03804,0.29861z" fill="#ffffff"/></g><g stroke="#000000" stroke-width="2.5"><path d="M323.62938,182.41659l-3.07256,0.01597c0,0 -2.23086,-1.20814 -4.25769,-1.19761c-1.97879,0.01029 -4.0751,1.24095 -4.0751,1.24095c0,0 -2.51456,-1.40996 -4.81779,-1.39798c-2.06149,0.01072 -4.07509,1.44423 -4.07509,1.44423l-3.14404,0.01635c0,0 -6.98343,-7.17884 11.72316,-7.51746c17.57292,-0.15325 11.71909,7.39555 11.71909,7.39555z" fill="#000000" stroke-linecap="butt"/><path d="M312.57103,182.75814l1.5282,1.1181" fill="none" stroke-linecap="round"/><path d="M320.55932,182.65647l1.66712,0.91482" fill="none" stroke-linecap="round"/><path d="M301.66527,183.97787l1.85237,-1.72798" fill="none" stroke-linecap="round"/><path d="M319.30172,181.87261c-0.82365,-0.3144 -1.9411,-0.64314 -3.00258,-0.63762c-1.97879,0.01029 -4.0751,1.24094 -4.0751,1.24094c0,0 -2.51456,-1.40995 -4.81779,-1.39798c-2.06149,0.01072 -4.07509,1.44423 -4.07509,1.44423l-3.14404,0.01635c0,0 -6.98343,-7.17884 11.72316,-7.51747c3.32256,-0.02898 5.80767,0.2174 7.65319,0.63601c0.02132,0.00483 -1.29494,1.53452 -1.34192,3.07503c-0.04823,1.58195 1.17133,3.17531 1.08015,3.14051z" fill="#ffffff" stroke-linecap="butt"/></g></g></g></svg>