<svg version="1.1" xmlns="http://www.w3.org/2000/svg" xmlns:xlink="http://www.w3.org/1999/xlink" width="199.11324" height="221.55319" viewBox="0,0,199.11324,221.55319"><g transform="translate(-195.52004,-69.22341)"><g data-paper-data="{&quot;isPaintingLayer&quot;:true}" fill-rule="nonzero" stroke-linejoin="miter" stroke-miterlimit="10" stroke-dasharray="" stroke-dashoffset="0" style="mix-blend-mode: normal"><path d="M205.36674,290.77659v-221.55318h189.26654v221.55319z" fill="none" stroke="none" stroke-width="NaN" stroke-linecap="butt"/><g data-paper-data="{&quot;index&quot;:null}"><path d="M315.97885,155.89303c-0.92745,-3.07913 12.92452,0.15263 15.21034,-0.13228c2.48435,-0.30969 -7.55732,18.05117 -7.55732,18.05117l-1.74606,3.08838l11.17834,-20.64171c0,0 3.50113,-7.3236 5.36271,-6.02806c0,0 11.01995,1.62259 24.20351,15.13156c-1.59884,4.88634 -9.18496,14.16535 -9.18496,14.16535c0,0 -15.89007,21.38354 -20.59533,21.06254c-1.08958,-0.07435 -13.5885,-3.94561 -15.57699,-7.59649c-6.5987,-12.11526 -1.29426,-37.10046 -1.29426,-37.10046z" fill="#582700" stroke="#000000" stroke-width="2.5" stroke-linecap="round"/><path d="M325.04875,172.64887c-0.2678,0.4302 -0.54201,0.85739 -0.8154,1.2865c-0.06034,0.09471 -0.84759,1.09948 -1.00657,1.6808c5.75627,3.80467 12.0389,6.6714 17.61988,10.79725c0.51696,0.33041 1.67752,0.91924 2.71273,1.632c0.35952,0.12393 0.6583,0.1781 0.8145,0.09788c1.32815,-0.68206 2.31009,-2.30767 3.49424,-3.24039c-0.37002,-0.10032 -1.4361,-0.40556 -1.84587,-0.61133c-1.2169,-0.61112 -2.42148,-1.21146 -3.65575,-1.78499c-4.32659,-2.01041 -8.78559,-4.67524 -12.82289,-7.16991c-1.53485,-0.7274 -3.09938,-1.63556 -4.49487,-2.68779zM325.81953,171.35533c1.3668,1.05041 2.93002,1.94776 4.44209,2.66436c4.55313,2.84253 9.50669,5.49337 14.36195,7.85118c2.00054,0.9715 5.39607,1.68555 4.34742,4.04982c-1.24825,1.00778 -2.39521,2.75749 -3.85033,3.51167c0.28044,0.37475 0.43629,0.75869 0.39231,1.13869c-0.0619,0.5349 -1.76235,1.88272 -2.16303,2.32072c-2.39037,2.61309 -4.77554,6.19546 -8.65801,6.33547c-5.92278,1.90105 -14.24201,-1.85878 -18.5119,-5.87476c-1.92048,-3.97119 -1.85478,-7.39618 -1.6318,-11.69773c0.161,-3.10584 -0.25855,-6.05955 0.2692,-9.18473c0.1365,-4.44277 0.40918,-8.86864 0.55154,-13.30971c0.06534,-2.03827 -0.56932,-4.02472 1.48056,-5.02736c3.58562,0.32668 7.21024,0.65858 10.80262,1.06947c1.11982,0.1281 3.38459,0.46345 4.15078,1.40856c1.06477,1.31347 -0.0443,2.82587 -0.76965,3.99527c-1.23264,2.78034 -2.73024,5.76083 -4.42425,8.58155c0.13676,0.30319 -0.00939,0.63108 -0.00939,0.63108c-0.23565,0.52714 -0.49917,1.03688 -0.7801,1.53645zM341.42469,188.60932c-3.73029,-1.62026 -6.77331,-4.24748 -10.40384,-5.95367c-2.15969,-0.96254 -6.14176,-2.36103 -8.15297,-4.52505c-0.14265,-0.06214 -0.23417,-0.14589 -0.23417,-0.14589l-0.56524,-0.52158c-0.6357,-0.40509 -1.13605,-1.0222 -1.53143,-1.664c2.0675,-5.62302 6.68107,-10.33706 9.17095,-15.89551c0.36476,-0.58671 0.93782,-1.38943 1.11262,-2.05333c0.1075,-0.40833 -2.34252,-1.02263 -2.64216,-1.08156c-3.64821,-0.71764 -7.44422,-0.57815 -11.11588,-1.15095c-0.38115,0.02644 -0.17419,2.97484 -0.19452,3.59351c-0.14686,4.47339 -0.40589,8.93256 -0.55811,13.40791c-0.52166,3.1091 -0.11093,6.02782 -0.26408,9.11906c-0.19493,3.93449 -0.332,7.0723 1.34122,10.72376c4.05444,3.56015 11.56992,7.04452 17.04001,5.28878c3.78842,-0.19452 7.25839,-4.78381 9.59723,-7.36435c0.02479,-0.02737 -1.38312,-0.97764 -2.54248,-1.75179c-0.01934,-0.00871 -0.0384,-0.01717 -0.0572,-0.02533z" fill="#000000" stroke="none" stroke-width="0.5" stroke-linecap="butt"/><path d="M329.50657,175.30312c4.0373,2.49463 8.58168,5.20585 12.90828,7.21625c1.23427,0.57351 2.43781,1.17725 3.65472,1.78839c0.40975,0.20578 1.47586,0.51094 1.84589,0.61127c-1.18416,0.93276 -2.17506,2.5743 -3.50319,3.25637c-0.1562,0.08019 -0.45634,0.02758 -0.81586,-0.09635c-1.03523,-0.71277 -2.19849,-1.29881 -2.71546,-1.62922c-5.58102,-4.12584 -11.94412,-7.04809 -17.70039,-10.85274c0.159,-0.58131 0.94958,-1.59273 1.00991,-1.68745c0.27339,-0.42912 0.55087,-0.86112 0.81868,-1.2913c1.39548,1.05223 2.96254,1.95739 4.4974,2.68479z" data-paper-data="{&quot;noHover&quot;:false,&quot;origItem&quot;:[&quot;Path&quot;,{&quot;applyMatrix&quot;:true,&quot;segments&quot;:[[[926.17844,407.1979],[3.2606,1.25965],[-0.27949,0.97418]],[[925.31465,410.11917],[0.29084,-0.97519],[-0.06418,0.21521]],[[924.29914,413.90358],[-0.01258,-1.20526],[13.15638,4.16543]],[[964.1057,425.02121],[-12.99513,-4.87922],[1.17537,0.35239]],[[970.21765,426.67451],[-2.3817,-0.804],[0.75941,0.04146]],[[971.83798,426.41666],[-0.25651,0.23985],[2.18115,-2.03947]],[[976.78433,418.26967],[-1.76682,2.44279],[-0.76669,0.00973]],[[972.89889,418.10481],[0.90089,0.17138],[-2.67549,-0.50896]],[[964.88923,416.67374],[2.68829,0.42712],[-9.42353,-1.49721]],[[936.29671,409.90591],[9.13228,2.58714],[-3.35077,-0.55846]]],&quot;closed&quot;:true}]}" fill="#ffffff" stroke="none" stroke-width="0.5" stroke-linecap="butt"/><path d="M339.95988,187.61532c0.1913,0.12235 4.14343,2.75844 4.1024,2.80369c-2.33884,2.58055 -5.83416,7.18561 -9.62253,7.38013c-5.4701,1.75574 -13.02931,-1.73787 -17.08375,-5.29803c-1.67323,-3.65147 -1.55276,-6.81349 -1.35782,-10.748c0.15317,-3.09124 -0.25644,-6.04301 0.26522,-9.15211c0.15222,-4.47535 0.43005,-8.95794 0.57691,-13.43134c0.02031,-0.61866 -0.18297,-3.5693 0.19817,-3.59573c3.67164,0.57279 7.48935,0.42719 11.13758,1.14482c0.29963,0.05896 2.75619,0.67336 2.64868,1.08167c-0.17481,0.66392 -0.75344,1.56646 -1.11821,2.15314c-2.48989,5.55846 -7.05308,10.23291 -9.12057,15.85592c0.39537,0.6418 0.89677,1.24972 1.5325,1.65481l0.56518,0.51772c0,0 0.45345,0.51175 0.95975,-0.04156c0.0507,-0.05541 0.19068,-0.11439 0.22174,-0.16837c5.35675,3.35734 10.97261,6.06295 16.09473,9.84324z" data-paper-data="{&quot;noHover&quot;:false,&quot;origItem&quot;:[&quot;Path&quot;,{&quot;applyMatrix&quot;:true,&quot;segments&quot;:[[[926.61254,417.73069],[12.14285,3.5238],[-0.03018,0.12086]],[[926.46822,418.11346],[0.06716,-0.13431],[-0.67082,1.34164]],[924.45576,418.78428],[[923.08279,418.0906],[0,0],[-1.44471,-0.43097]],[[919.22563,415.72869],[1.11205,1.01797],[0.89694,-11.9485]],[[928.15956,380.1298],[-1.74473,12.05571],[0.38029,-1.32836]],[[929.175,375.57071],[0.02742,1.37277],[-0.01686,-0.84429]],[[923.5003,374.93752],[0.60865,-0.05075],[-7.41054,0.61792]],[[901.48814,378.8123],[7.37628,-0.90935],[-0.71866,0.25961]],[[903.08234,385.83106],[-0.2998,-1.20115],[2.16779,8.68513]],[[909.35292,411.92731],[-2.15853,-8.69186],[0.69956,6.26621]],[[913.83986,429.61277],[-1.39861,-6.02998],[1.78014,7.67491]],[[922.29365,449.50563],[-5.21858,-6.1072],[9.74892,4.62723]],[[957.96755,450.34516],[-9.56021,6.37347],[7.18055,-2.44927]],[[972.39433,430.92276],[-3.08539,6.24485],[0.05411,-0.10951]],[[963.14745,427.86406],[0.43501,0.13058],[-11.92317,-4.46591]]],&quot;closed&quot;:true}]}" fill="#ffcb66" stroke="none" stroke-width="0.5" stroke-linecap="butt"/></g><g data-paper-data="{&quot;origRot&quot;:0}" stroke="#000000" stroke-linecap="round"><path d="M302.36988,217.00617c0,0 -0.73632,-4.80638 0.75322,-5.00662c4.39544,-0.59085 8.42347,-2.86433 12.73691,-1.8042c1.79117,0.44022 3.04206,4.58843 3.04206,4.58843l8.64843,32.33464c0,0 0.9348,3.32666 1.40722,5.25774c0.5051,2.06467 -0.07551,5.36518 -2.08595,5.75656c-7.38173,1.43713 -11.72602,3.74919 -16.54337,3.42018c-1.75503,-0.11987 -3.61005,-0.3671 -4.52624,-1.93113c-1.19683,-2.04301 -1.14952,-6.58654 -1.14952,-6.58654z" data-paper-data="{&quot;origPos&quot;:null}" fill="#ff0000" stroke-width="3"/><path d="M329.47351,255.73245c0,0 -5.31789,3.5534 -10.20993,4.34544c-3.75334,0.60766 -12.03586,0.89806 -12.03586,0.89806c0,0 -1.69063,-2.40166 -2.01542,-3.99091c-0.34215,-1.67418 0.30644,-4.3712 0.30644,-4.3712l22.29748,-4.42812z" data-paper-data="{&quot;origPos&quot;:null}" fill="#976e57" stroke-width="2"/><path d="M302.49612,217.31492c0,0 -0.73632,-4.80638 0.75323,-5.00661c4.39543,-0.59085 8.42347,-2.86433 12.73693,-1.80418c1.79117,0.44022 3.04205,4.58842 3.04205,4.58842l8.64843,32.33464c0,0 0.93482,3.32666 1.40724,5.25774c0.5051,2.06467 -0.07552,5.36517 -2.08595,5.75656c-7.38173,1.43713 -11.72602,3.7492 -16.54337,3.42019c-1.75503,-0.11987 -3.61005,-0.36712 -4.52623,-1.93113c-1.19683,-2.04301 -1.14953,-6.58654 -1.14953,-6.58654z" data-paper-data="{&quot;origPos&quot;:null}" fill="#474747" stroke-width="3"/></g><g data-paper-data="{&quot;index&quot;:null,&quot;origRot&quot;:0}" stroke="#000000" stroke-linecap="round"><path d="M299.66645,252.67889c0,0 0.24352,4.53672 -0.86382,6.63377c-0.84771,1.6054 -2.69016,1.93933 -4.43824,2.14137c-4.79823,0.55454 -9.23801,-1.55154 -16.67435,-2.64112c-2.02532,-0.29676 -2.74793,-3.56668 -2.33254,-5.65294c0.38852,-1.95127 1.17866,-5.31838 1.17866,-5.31838l7.24281,-32.70735c0,0 1.07042,-4.20265 2.84074,-4.72639c4.26329,-1.26128 8.38544,0.821 12.80195,1.2052c1.49669,0.1302 0.96876,4.96622 0.96876,4.96622z" data-paper-data="{&quot;origPos&quot;:null}" fill="#ff0000" stroke-width="3"/><path d="M276.31692,248.92034l22.46616,3.37823c0,0 0.76445,2.66389 0.49497,4.3524c-0.25579,1.60287 -1.84097,4.08136 -1.84097,4.08136c0,0 -8.28667,0.09821 -12.06245,-0.33286c-4.92128,-0.56186 -10.38729,-3.86233 -10.38729,-3.86233z" data-paper-data="{&quot;origPos&quot;:null}" fill="#976e57" stroke-width="2.5"/><path d="M299.55373,252.99327c0,0 0.24352,4.53672 -0.86382,6.63377c-0.84771,1.6054 -2.69016,1.93934 -4.43824,2.14137c-4.79823,0.55454 -9.238,-1.55152 -16.67435,-2.64111c-2.02532,-0.29676 -2.74793,-3.56669 -2.33254,-5.65294c0.38852,-1.95127 1.17866,-5.31838 1.17866,-5.31838l7.24281,-32.70735c0,0 1.07041,-4.20265 2.84074,-4.72639c4.26329,-1.26128 8.38546,0.821 12.80196,1.2052c1.49669,0.1302 0.96875,4.96622 0.96875,4.96622c0,0 -0.18306,9.12807 -0.30022,14.97052c-0.16538,8.2459 -0.42376,21.12909 -0.42376,21.12909z" data-paper-data="{&quot;origPos&quot;:null}" fill="#474747" stroke-width="1.5"/></g><g><g><path d="M282.97182,168.25355c0,0 1.8891,-14.60899 3.98881,-15.16442c6.29909,-1.66633 20.69966,-0.72285 30.32461,-0.72285c1.48792,0 2.7728,13.72085 2.7728,13.72085l1.73299,31.05245c0,0 0.23678,15.16514 -1.38639,15.16514c-14.44918,0 -31.38458,0.86443 -37.8249,0.01185c-2.14676,-0.28419 -1.34091,-16.26022 -1.34091,-16.26022z" data-paper-data="{&quot;origPos&quot;:null}" fill="#ffcb66" stroke="#000000" stroke-width="3.5" stroke-linecap="round"/><path d="M301.31177,176.56591c-1.25706,0 -1.25706,-2.52195 -1.25706,-2.52195c0,-5.23072 0,-12.14274 0,-17.37345c0,0 0,-2.52195 1.25706,-2.52195c1.25706,0 1.25706,2.52195 1.25706,2.52195c0,5.23072 0,10.46144 0,15.69215v1.6813c0,0 0,2.52195 -1.25706,2.52195z" fill="#ffffff" stroke="none" stroke-width="0.5" stroke-linecap="butt"/><path d="M312.99026,182.98696c-1.25706,0 -1.25706,-3.16828 -1.25706,-3.16828c0,-6.57125 0,-15.2547 0,-21.82595c0,0 0,-3.16828 1.25706,-3.16828c1.25706,0 1.25706,3.16828 1.25706,3.16828c0,6.57125 0,13.14252 0,19.71378v2.11218c0,0 0,3.16828 -1.25706,3.16828z" fill="#ffffff" stroke="none" stroke-width="0.5" stroke-linecap="butt"/></g><g stroke="#000000" stroke-width="0.5" stroke-linecap="butt"><path d="M315.69456,193.09965c0,6.85134 -4.49134,12.40545 -10.03169,12.40545c-5.54035,0 -10.03169,-5.55411 -10.03169,-12.40545c0,-6.85134 4.49134,-12.40545 10.03169,-12.40545c5.54035,0 10.03169,5.55411 10.03169,12.40545z" fill="#ffa924"/><path d="M308.64135,181.65553c0.00041,0.01136 0.00062,0.02296 0.00062,0.03477c0,0.63338 -0.60798,0.63338 -0.60798,0.63338h-0.12159c-0.44422,0 -2.46925,0.02828 -2.77278,-0.1089c-0.25337,-0.11453 -0.19826,-0.55061 -0.38057,-0.76675c-0.17514,-0.20764 -0.42435,-0.33604 -0.65881,-0.46547c-0.37284,-0.20582 -0.88206,-0.20252 -1.15635,-0.53655c-0.25338,-0.30856 -0.2835,-0.78249 -0.25965,-1.1878c0.11208,-1.90348 1.23328,-1.92296 2.68161,-1.75133c0.43684,0.10024 0.8876,0.1489 1.31051,0.30071c0.18604,0.06678 0.29708,0.29817 0.48863,0.34512c0.13615,0.03338 0.26425,-0.09916 0.40156,-0.12688c0.00586,-0.00118 1.7022,-0.25359 1.71902,-0.25608c1.14683,-0.16961 2.37329,-0.21912 3.53066,-0.13167c0.73749,0.05572 2.40384,0.24604 2.82917,1.01588c0.60573,1.09635 -1.1548,1.8382 -1.59546,2.02585c-1.30405,0.55536 -2.41713,0.21015 -3.74526,0.37133c-0.4524,0.0549 -1.17951,0.3854 -1.66334,0.60438z" fill="#1cc735"/></g></g><path d="M317.5241,156.6685c-12.00854,1.37541 -23.65765,2.6733 -28.52666,2.1716c-4.44995,-0.45851 -6.04857,-3.06743 -6.04857,-3.06743c0,0 -1.99964,-2.23885 -2.24415,-3.75425c-0.73352,-4.54622 -2.21765,-17.61258 -2.45314,-28.98708c-0.00787,-0.37963 0.00148,-0.59326 0.01623,-0.97266c0.04428,-1.13824 0.40519,-5.57609 0.40519,-5.57609c0,0 3.00077,-1.98088 4.67517,-2.63118c5.02318,-1.95092 18.31943,-1.83638 32.20226,-2.86148c1.25831,-0.0929 3.58245,1.35576 3.58245,1.35576c0,0 1.8572,2.9614 2.01405,4.93873c1.01419,12.78367 2.08926,26.93163 2.12407,30.18811c0.01162,1.0855 -1.38305,5.44266 -1.38305,5.44266z" fill="#582600" stroke="#000000" stroke-width="2.5" stroke-linecap="round"/><path d="M316.17047,136.24152c-0.27243,-3.43415 -0.08088,-6.25083 0.42789,-6.29119c0.50876,-0.04038 1.14207,2.71087 1.41452,6.14502c0.27243,3.43415 0.08089,6.25084 -0.42789,6.2912c-0.50876,0.04038 -1.14207,-2.71087 -1.41452,-6.14503z" fill="none" stroke="#000000" stroke-width="2.5" stroke-linecap="butt"/><path d="M309.74209,137.45122c-0.2775,-3.49778 -0.19311,-6.35781 0.18845,-6.3881c0.38157,-0.03027 0.91585,2.78069 1.19336,6.27846c0.2775,3.49778 0.19314,6.35779 -0.18845,6.38809c-0.38157,0.03027 -0.91586,-2.78067 -1.19337,-6.27844z" fill="none" stroke="#000000" stroke-width="2.5" stroke-linecap="butt"/><path d="M277.40418,116.15585l-0.99005,-12.96224l43.6728,-3.33568l0.99005,12.96224z" fill="#000000" stroke="none" stroke-width="0" stroke-linecap="butt"/><path d="M303.46042,127.54993c-0.10514,-1.37671 0.92565,-2.57797 2.30236,-2.68313c0.28267,-0.0216 0.55795,0.00471 0.81787,0.07206c1.40354,-0.38239 9.53968,3.98628 7.64027,6.80403c-1.41733,2.10258 -7.01135,-0.61297 -8.95098,-1.72288c-0.53422,-0.30569 -2.30089,-1.78307 -1.8095,-2.47007z" data-paper-data="{&quot;index&quot;:null}" fill="#582600" stroke="none" stroke-width="0.5" stroke-linecap="butt"/><path d="M319.56394,129.32942c-1.23999,1.35277 -4.87978,4.77358 -6.16734,2.87761c-1.7255,-2.54087 3.51346,-7.93113 4.56594,-7.73633c0.1768,-0.10071 0.36997,-0.1628 0.57471,-0.17842c0.99703,-0.07615 1.89053,0.97816 1.99568,2.35486c0.4409,0.61579 -0.62744,2.30971 -0.96896,2.68229z" data-paper-data="{&quot;index&quot;:null}" fill="#582600" stroke="none" stroke-width="0.5" stroke-linecap="butt"/><g stroke="#000000" stroke-width="1.25" stroke-linecap="butt"><path d="M310.0649,152.45268l-10.8996,1.70306c0,0 -3.00558,-7.08564 4.30679,-8.29217c7.74186,-1.27738 6.59283,6.58909 6.59283,6.58909z" fill="#000000"/><path d="M298.75447,149.44912c0.43986,-1.58894 1.70042,-3.0877 4.71761,-3.58554c2.00544,-0.33089 3.41428,-0.04823 4.40104,0.55233c0.0047,0.00286 0.18149,1.46018 0.18149,1.46018c0,0 -9.30158,1.57818 -9.30015,1.57304z" fill="#ffffff"/><path d="M304.6762,153.29467c-1.82667,0.28542 -5.51092,0.86108 -5.51092,0.86108c0,0 -0.29851,-0.88587 -0.4795,-1.78092c-0.0157,-0.07763 1.68662,-0.38879 3.09045,-0.23239c1.65358,0.18424 3.07878,1.12428 2.89994,1.15223z" fill="#ff8484"/></g><g data-paper-data="{&quot;index&quot;:null}"><path d="M216.09129,249.25031c-0.20496,-2.25285 -4.06064,-5.72516 -2.00582,-5.85124c1.36892,-0.08399 20.78486,3.36685 22.01641,4.72571c0.61705,0.68084 1.07925,1.81579 1.14769,2.5678c0.10056,1.10531 -0.38962,2.05404 -1.24025,2.75375c-0.88315,0.72645 -19.9671,2.27726 -21.01376,2.34149c-2.05481,0.12608 1.30073,-4.28466 1.09574,-6.53752z" fill="#e99b00" stroke="#000000" stroke-width="1.5" stroke-linecap="butt"/><g stroke-linecap="butt"><path d="M209.32278,249.69123c-0.37137,-4.08164 1.47327,-7.5221 4.12011,-7.68449c2.64685,-0.16239 5.09358,3.01478 5.46495,7.09643c0.37133,4.08164 -1.47331,7.5221 -4.12014,7.68449c-2.64683,0.16242 -5.09357,-3.01477 -5.46493,-7.09641z" fill="#ffb727" stroke="#000000" stroke-width="1.5"/><path d="M214.98044,245.6816l-1.76101,-3.23445c0,0 1.74495,0.55298 2.34388,1.04651c1.24099,1.05291 1.73129,2.56411 1.73129,2.56411z" fill="#ffd683" stroke="none" stroke-width="0"/><path d="M216.02469,248.88888l-0.41294,-1.46811c0,0 0.91946,-0.16024 1.24795,-0.15881c0.38463,0.00168 1.08407,0.21294 1.08407,0.21294l0.20968,1.78122z" fill="#ffd683" stroke="none" stroke-width="0"/></g><g><path d="M215.22539,249.43717c0.51229,5.63067 -2.45858,8.95223 -7.98857,9.29152c-5.52998,0.33927 -10.45446,-4.23881 -10.96678,-9.86954c-0.51232,-5.63069 3.04106,-9.85846 8.57105,-10.19775c5.52996,-0.33926 9.87198,5.14501 10.3843,10.77574z" fill="#e99b00" stroke="#000000" stroke-width="1.5" stroke-linecap="butt"/><path d="M203.23015,239.15815c2.74366,-0.16836 5.71112,1.01724 7.94696,2.58665c1.59293,1.11813 2.81739,2.90241 2.99847,4.89274c0.37219,4.0911 -1.28465,5.65574 -6.12296,5.95259c-2.4162,0.14823 -5.51488,-1.11011 -7.65869,-2.74116c-2.14902,-1.63502 -3.58148,-2.92615 -3.58148,-2.92615c0,0 1.57938,-7.46781 6.41769,-7.76466z" fill="#ffb727" stroke="none" stroke-width="0" stroke-linecap="butt"/><path d="M204.90342,238.9684c0,0 4.04701,2.54665 4.86756,9.04547c0.82728,6.55207 -2.27429,9.7456 -2.27429,9.7456" fill="none" stroke="#000000" stroke-width="0.8" stroke-linecap="round"/><path d="M209.40381,239.87317c0,0 2.46598,3.68779 3.4531,7.77697c1.42258,5.89302 -0.27515,8.33531 -0.27515,8.33531" fill="none" stroke="#000000" stroke-width="0.75" stroke-linecap="round"/><path d="M200.70109,240.12592c0,0 3.49488,2.75874 4.67566,9.2287c1.13572,6.22294 -0.60165,8.23441 -0.60165,8.23441" fill="none" stroke="#000000" stroke-width="0.8" stroke-linecap="round"/><path d="M203.50687,257.61063c0,0 -2.51441,-3.73755 -3.61762,-6.84506c-1.45312,-4.09309 -1.8008,-8.39875 -1.8008,-8.39875" fill="none" stroke="#000000" stroke-width="0.8" stroke-linecap="round"/><path d="M214.67153,251.63985c0,0 -2.86257,2.46501 -8.668,3.06222c-5.41748,0.5573 -8.08244,-2.03456 -8.08244,-2.03456" fill="none" stroke="#000000" stroke-width="0.8" stroke-linecap="round"/><path d="M197.45823,250.6153c0,0 2.77879,0.01709 5.76598,-0.43942c2.62696,-0.40147 5.39341,-1.26975 6.87253,-1.44666c1.75679,-0.21011 4.73434,-0.19192 4.73434,-0.19192" fill="none" stroke="#000000" stroke-width="0.8" stroke-linecap="round"/><path d="M196.72995,248.07334c0,0 4.02104,-3.17879 7.80682,-3.52048c5.9419,-0.5363 9.95043,1.41887 9.95043,1.41887" fill="none" stroke="#000000" stroke-width="0.8" stroke-linecap="round"/><path d="M196.87422,244.80305c0,0 2.82486,-2.45953 6.52529,-3.32437c5.32876,-1.24541 8.35879,-0.00677 8.35879,-0.00677" fill="none" stroke="#000000" stroke-width="0.8" stroke-linecap="round"/><path d="M203.82235,240.44052c0.03654,0.40148 -0.30269,0.74962 -0.75765,0.77751c-0.45497,0.02793 -0.85341,-0.27493 -0.88993,-0.67641c-0.03652,-0.4015 0.30268,-0.74962 0.75764,-0.77751c0.45497,-0.02795 0.85343,0.27491 0.88995,0.67639z" fill="#ffd683" stroke="none" stroke-width="0" stroke-linecap="butt"/><path d="M200.44693,241.8847c-0.22747,0.01395 -0.42897,-0.16251 -0.45004,-0.39413c-0.02107,-0.23162 0.14626,-0.43071 0.37374,-0.44466c0.22748,-0.01394 0.42897,0.16251 0.45004,0.39413c0.02108,0.23162 -0.14626,0.43071 -0.37374,0.44466z" fill="#ffd683" stroke="none" stroke-width="0" stroke-linecap="butt"/></g></g><g data-paper-data="{&quot;index&quot;:null}"><path d="M294.61416,156.85968c0,0 5.30444,24.98519 -1.29425,37.10046c-1.98849,3.65087 -14.48742,7.52214 -15.57699,7.59649c-4.70526,0.321 -20.59533,-21.06254 -20.59533,-21.06254c0,0 -7.58612,-9.27901 -9.18497,-14.16534c13.18357,-13.50897 24.20351,-15.13156 24.20351,-15.13156c1.86158,-1.29555 5.36271,6.02806 5.36271,6.02806l11.17834,20.64171l-1.74606,-3.08838c0,0 -10.04167,-18.36086 -7.55732,-18.05117c2.28583,0.28492 16.1378,-2.94684 15.21035,0.13228z" fill="#582700" stroke="#000000" stroke-width="2.5" stroke-linecap="round"/><path d="M285.54425,173.61556c-1.39548,1.05224 -2.96002,1.96039 -4.49487,2.6878c-4.03729,2.49467 -8.4963,5.1595 -12.82289,7.16991c-1.23427,0.57352 -2.43884,1.17387 -3.65574,1.78498c-0.40977,0.20577 -1.47586,0.51102 -1.84587,0.61134c1.18415,0.93273 2.16609,2.55833 3.49424,3.24039c0.1562,0.08022 0.45498,0.02605 0.8145,-0.09788c1.03521,-0.71276 2.19577,-1.30159 2.71273,-1.632c5.58098,-4.12585 11.86361,-6.99258 17.61988,-10.79725c-0.15899,-0.58132 -0.94623,-1.5861 -1.00658,-1.6808c-0.2734,-0.4291 -0.5476,-0.85629 -0.8154,-1.28649zM284.77347,172.32198c-0.28093,-0.49957 -0.54445,-1.00931 -0.7801,-1.53645c0,0 -0.14615,-0.32788 -0.00939,-0.63107c-1.69401,-2.82073 -3.19161,-5.80121 -4.42425,-8.58155c-0.72535,-1.1694 -1.83441,-2.6818 -0.76965,-3.99527c0.76619,-0.94511 3.03095,-1.28047 4.15078,-1.40856c3.59238,-0.41089 7.217,-0.74278 10.80262,-1.06946c2.04988,1.00264 1.41521,2.98908 1.48056,5.02736c0.14236,4.44107 0.41504,8.86694 0.55154,13.30971c0.52775,3.12517 0.10821,6.07889 0.2692,9.18473c0.22298,4.30155 0.28867,7.72654 -1.6318,11.69773c-4.2699,4.01597 -12.58912,7.77581 -18.5119,5.87476c-3.88246,-0.14001 -6.26763,-3.72238 -8.658,-6.33547c-0.40068,-0.438 -2.10113,-1.78582 -2.16303,-2.32072c-0.04397,-0.38 0.11188,-0.76394 0.39231,-1.13869c-1.45513,-0.75418 -2.60208,-2.50388 -3.85034,-3.51166c-1.04864,-2.36426 2.34689,-3.07832 4.34742,-4.04982c4.85526,-2.35781 9.80881,-5.00865 14.36195,-7.85117c1.51207,-0.7166 3.07528,-1.61395 4.44208,-2.66436zM269.16837,189.576c-0.01879,0.00816 -0.03786,0.01662 -0.0572,0.02533c-1.15935,0.77415 -2.56726,1.72442 -2.54247,1.75178c2.33884,2.58055 5.80881,7.16983 9.59723,7.36436c5.47009,1.75574 12.98556,-1.72863 17.04001,-5.28878c1.67322,-3.65146 1.53615,-6.78927 1.34122,-10.72376c-0.15315,-3.09124 0.25757,-6.00996 -0.26409,-9.11906c-0.15222,-4.47536 -0.41125,-8.93452 -0.55811,-13.40791c-0.02033,-0.61867 0.18663,-3.56708 -0.19452,-3.59352c-3.67166,0.57279 -7.46767,0.43331 -11.11588,1.15095c-0.29963,0.05894 -2.74966,0.67323 -2.64216,1.08156c0.17481,0.66389 0.74786,1.46661 1.11262,2.05333c2.48988,5.55846 7.10345,10.2725 9.17094,15.89551c-0.39538,0.64181 -0.89572,1.25891 -1.53142,1.664l-0.56524,0.52159c0,0 -0.09152,0.08375 -0.23417,0.14589c-2.0112,2.16402 -5.99328,3.56251 -8.15297,4.52505c-3.63053,1.70619 -6.67355,4.3334 -10.40384,5.95366z" fill="#000000" stroke="none" stroke-width="0.5" stroke-linecap="butt"/><path d="M281.08645,176.26978c1.53486,-0.7274 3.10192,-1.63255 4.4974,-2.68479c0.2678,0.43018 0.54529,0.86219 0.81868,1.2913c0.06033,0.09471 0.85091,1.10613 1.00992,1.68745c-5.75627,3.80465 -12.11937,6.7269 -17.70039,10.85274c-0.51697,0.33041 -1.68024,0.91645 -2.71546,1.62922c-0.35952,0.12393 -0.65966,0.17654 -0.81586,0.09635c-1.32813,-0.68207 -2.31903,-2.32362 -3.50319,-3.25638c0.37003,-0.10032 1.43614,-0.40548 1.84589,-0.61126c1.21691,-0.61113 2.42045,-1.21487 3.65472,-1.78839c4.3266,-2.0104 8.87098,-4.72161 12.90828,-7.21625z" data-paper-data="{&quot;noHover&quot;:false,&quot;origItem&quot;:[&quot;Path&quot;,{&quot;applyMatrix&quot;:true,&quot;segments&quot;:[[[926.17844,407.1979],[3.2606,1.25965],[-0.27949,0.97418]],[[925.31465,410.11917],[0.29084,-0.97519],[-0.06418,0.21521]],[[924.29914,413.90358],[-0.01258,-1.20526],[13.15638,4.16543]],[[964.1057,425.02121],[-12.99513,-4.87922],[1.17537,0.35239]],[[970.21765,426.67451],[-2.3817,-0.804],[0.75941,0.04146]],[[971.83798,426.41666],[-0.25651,0.23985],[2.18115,-2.03947]],[[976.78433,418.26967],[-1.76682,2.44279],[-0.76669,0.00973]],[[972.89889,418.10481],[0.90089,0.17138],[-2.67549,-0.50896]],[[964.88923,416.67374],[2.68829,0.42712],[-9.42353,-1.49721]],[[936.29671,409.90591],[9.13228,2.58714],[-3.35077,-0.55846]]],&quot;closed&quot;:true}]}" fill="#ffffff" stroke="none" stroke-width="0.5" stroke-linecap="butt"/><path d="M286.72786,178.73874c0.03106,0.05398 0.17104,0.11296 0.22174,0.16837c0.5063,0.5533 0.95975,0.04156 0.95975,0.04156l0.56519,-0.51771c0.63573,-0.40509 1.13713,-1.01301 1.5325,-1.65481c-2.0675,-5.62301 -6.63069,-10.29746 -9.12057,-15.85592c-0.36477,-0.58668 -0.9434,-1.48922 -1.11821,-2.15314c-0.10751,-0.4083 2.34905,-1.02271 2.64868,-1.08167c3.64824,-0.71763 7.46594,-0.57203 11.13758,-1.14482c0.38114,0.02643 0.17787,2.97708 0.19817,3.59573c0.14686,4.47339 0.42469,8.95599 0.57691,13.43133c0.52167,3.10909 0.11206,6.06088 0.26522,9.15211c0.19494,3.93451 0.31541,7.09653 -1.35782,10.748c-4.05444,3.56016 -11.61365,7.05378 -17.08375,5.29803c-3.78837,-0.19452 -7.28369,-4.79958 -9.62253,-7.38013c-0.04103,-0.04526 3.91111,-2.68134 4.10241,-2.80369c5.12212,-3.78029 10.73798,-6.4859 16.09473,-9.84324z" data-paper-data="{&quot;noHover&quot;:false,&quot;origItem&quot;:[&quot;Path&quot;,{&quot;applyMatrix&quot;:true,&quot;segments&quot;:[[[926.61254,417.73069],[12.14285,3.5238],[-0.03018,0.12086]],[[926.46822,418.11346],[0.06716,-0.13431],[-0.67082,1.34164]],[924.45576,418.78428],[[923.08279,418.0906],[0,0],[-1.44471,-0.43097]],[[919.22563,415.72869],[1.11205,1.01797],[0.89694,-11.9485]],[[928.15956,380.1298],[-1.74473,12.05571],[0.38029,-1.32836]],[[929.175,375.57071],[0.02742,1.37277],[-0.01686,-0.84429]],[[923.5003,374.93752],[0.60865,-0.05075],[-7.41054,0.61792]],[[901.48814,378.8123],[7.37628,-0.90935],[-0.71866,0.25961]],[[903.08234,385.83106],[-0.2998,-1.20115],[2.16779,8.68513]],[[909.35292,411.92731],[-2.15853,-8.69186],[0.69956,6.26621]],[[913.83986,429.61277],[-1.39861,-6.02998],[1.78014,7.67491]],[[922.29365,449.50563],[-5.21858,-6.1072],[9.74892,4.62723]],[[957.96755,450.34516],[-9.56021,6.37347],[7.18055,-2.44927]],[[972.39433,430.92276],[-3.08539,6.24485],[0.05411,-0.10951]],[[963.14745,427.86406],[0.43501,0.13058],[-11.92317,-4.46591]]],&quot;closed&quot;:true}]}" fill="#ffcb66" stroke="none" stroke-width="0.5" stroke-linecap="butt"/></g></g></g></svg>