<svg version="1.1" xmlns="http://www.w3.org/2000/svg" xmlns:xlink="http://www.w3.org/1999/xlink" width="138.51309" height="182.43681" viewBox="0,0,138.51309,182.43681"><g transform="translate(-189.52627,-90.79324)"><g data-paper-data="{&quot;isPaintingLayer&quot;:true}" fill-rule="nonzero" stroke-linejoin="miter" stroke-miterlimit="10" stroke-dasharray="" stroke-dashoffset="0" style="mix-blend-mode: normal"><g stroke="#000000" stroke-linecap="round"><path d="M247.85085,172.87307c0,0 -30.0364,2.82125 -28.04944,-15.0588c0.73205,-6.58759 17.43608,-3.24097 17.43608,-3.24097z" data-paper-data="{&quot;origPos&quot;:null}" fill="#66c8ff" stroke-width="2"/><path d="M240.8085,160.38169c0,0 -16.34469,-3.6137 -16.05806,-4.20119c0.90883,-1.86271 13.10047,-0.02615 13.10047,-0.02615z" data-paper-data="{&quot;origPos&quot;:null}" fill="#0a0a0a" stroke-width="1"/></g><g><g data-paper-data="{&quot;index&quot;:null}"><g stroke="#000000" stroke-width="3" stroke-linecap="round"><path d="M308.82123,156.12198c0,0 11.14742,-1.37594 15.83002,-0.27767c4.21957,16.4291 0.04883,25.58156 0.04883,25.58156c0.10863,2.02998 -7.45723,1.2244 -7.45723,1.2244c0,0 -14.82368,-1.10994 -24.31158,-1.82033c-6.23014,-0.46648 -15.96398,-1.1953 -15.96398,-1.1953c0,0 -6.15326,-0.7227 -6.12136,-1.82356c0.1919,-6.62297 -0.98848,-13.06924 0.33232,-16.28969c0.44026,-1.07348 6.3671,-1.83576 6.3671,-1.83576l31.27588,-3.56364z" data-paper-data="{&quot;origPos&quot;:null}" fill="#582700"/><path d="M314.8445,156.26713l0.26914,25.66153l-3.55989,0.01975l-0.53688,-25.69936z" data-paper-data="{&quot;origPos&quot;:null}" fill="none"/></g><path d="M311.07578,182.16768l-38.38708,-3.67392l-0.7201,-1.2697l-0.30292,-15.80973l38.87784,-4.43216z" fill="#66c8ff" stroke="#000000" stroke-width="1" stroke-linecap="round"/><path d="M314.64801,181.96868l-2.43916,0.02622l-0.30016,-25.49922l2.43916,-0.02622z" fill="#ffffff" stroke="none" stroke-width="0" stroke-linecap="butt"/></g><g fill="#fffc96" stroke="#000000" stroke-width="2" stroke-linecap="round"><path d="M303.75072,157.28497c0,0 1.14861,-4.24393 4.18719,-3.75741c4.8616,0.77842 -5.86604,32.16239 -10.9839,31.6432c-2.09104,-0.21214 -1.78995,-3.37143 -1.78995,-3.37143l1.95836,-0.0253c0,0 3.36669,-5.46619 6.03955,-12.73359c2.63583,-7.16669 2.99484,-12.25102 2.99484,-12.25102z"/><path d="M294.79253,158.27224c0,0 -1.96709,-3.31181 0.36946,-3.9495c4.90474,-1.33861 20.62909,30.3589 15.7856,30.58976c-2.93333,0.13981 -3.58986,-3.28154 -3.58986,-3.28154l1.43953,-0.0591c0,0 -1.41881,-5.14993 -5.10587,-12.25884c-3.68705,-7.10892 -7.55099,-11.25182 -7.55099,-11.25182z" data-paper-data="{&quot;index&quot;:null}"/></g></g><g data-paper-data="{&quot;origRot&quot;:0}" stroke="#000000" stroke-linecap="round"><path d="M253.23811,226.01026c0,0 -0.40887,-4.78477 1.20389,-4.8643c4.75897,-0.23463 9.25728,-2.15295 13.79764,-0.77041c1.88541,0.57409 2.89802,4.75218 2.89802,4.75218l6.71174,32.48056c0,0 0.73879,3.34521 1.09237,5.28155c0.37804,2.07027 -0.50571,5.27033 -2.69203,5.49678c-8.02747,0.8315 -12.86787,2.76286 -18.00632,2.05961c-1.87202,-0.25621 -3.84115,-0.64556 -4.69954,-2.25588c-1.12133,-2.1035 -0.71089,-6.56802 -0.71089,-6.56802z" data-paper-data="{&quot;origPos&quot;:null}" fill="#ff0000" stroke-width="3"/><path d="M279.22896,266.23116c0,0 -5.98245,3.0754 -11.28973,3.46872c-4.07193,0.30176 -12.97431,-0.06545 -12.97431,-0.06545c0,0 -1.62232,-2.49513 -1.84469,-4.08363c-0.23426,-1.6734 0.6746,-4.27462 0.6746,-4.27462l24.25493,-2.59733z" data-paper-data="{&quot;origPos&quot;:null}" fill="#976e57" stroke-width="2"/><path d="M253.34897,226.32385c0,0 -0.40887,-4.78477 1.20389,-4.86429c4.75896,-0.23463 9.25727,-2.15294 13.79765,-0.77039c1.88541,0.57409 2.89801,4.75217 2.89801,4.75217l6.71174,32.48056c0,0 0.73881,3.34522 1.09239,5.28155c0.37804,2.07027 -0.50572,5.27032 -2.69203,5.49678c-8.02747,0.8315 -12.86788,2.76287 -18.00633,2.05962c-1.87202,-0.25621 -3.84113,-0.64558 -4.69952,-2.25588c-1.12133,-2.1035 -0.71091,-6.56802 -0.71091,-6.56802z" data-paper-data="{&quot;origPos&quot;:null}" fill="#4b4b4b" stroke-width="3"/></g><path d="M240.24688,263.83532c0,0 -0.33379,4.47036 -1.78918,6.37787c-1.11417,1.46028 -3.12293,1.54705 -5.01379,1.51705c-5.19016,-0.08237 -9.6499,-2.72117 -17.43866,-4.75572c-2.1213,-0.55412 -2.46421,-3.84748 -1.74824,-5.83453c0.66967,-1.85849 1.95289,-5.04989 1.95289,-5.04989l12.00385,-31.05697c0,0 1.69147,-3.97239 3.64815,-4.25423c4.71206,-0.67876 8.83619,1.8954 13.49638,2.84651c1.57926,0.32232 0.38351,4.98503 0.38351,4.98503c0,0 -1.38943,8.9069 -2.27874,14.60779c-1.25515,8.04611 -3.21619,20.61714 -3.21619,20.61714z" fill="#4b4b4b" stroke="#000000" stroke-width="3" stroke-linecap="round"/><g><path d="M234.43606,178.04099c0,0 3.65308,-14.11423 5.95958,-14.42508c6.91946,-0.93257 22.20675,1.59588 32.49487,2.6675c1.59044,0.16566 1.42936,13.76244 1.42936,13.76244l-1.6204,30.64083c0,0 -1.44293,14.89625 -3.17793,14.71553c-15.44475,-1.60874 -33.64371,-2.6467 -40.43243,-4.19973c-2.26289,-0.51767 0.38518,-16.09294 0.38518,-16.09294z" data-paper-data="{&quot;origPos&quot;:null}" fill="#66c8ff" stroke="#000000" stroke-width="3.5" stroke-linecap="round"/><path d="M253.11005,188.23346c-1.34367,-0.13996 -1.06163,-2.61281 -1.06163,-2.61281c0.58498,-5.12888 1.358,-11.90632 1.94298,-17.03521c0,0 0.28204,-2.47285 1.62573,-2.3329c1.34367,0.13996 1.06163,2.61281 1.06163,2.61281c-0.58498,5.12888 -1.16997,10.25776 -1.75495,15.38664l-0.18803,1.64857c0,0 -0.28204,2.47285 -1.62573,2.3329z" fill="#ffffff" stroke="none" stroke-width="0.5" stroke-linecap="butt"/><path d="M264.87511,195.82977c-1.34367,-0.13996 -0.98935,-3.24656 -0.98935,-3.24656c0.7349,-6.44332 1.70603,-14.9577 2.44093,-21.40102c0,0 0.35433,-3.1066 1.698,-2.96664c1.34367,0.13996 0.98935,3.24656 0.98935,3.24656c-0.7349,6.44332 -1.46981,12.88664 -2.20471,19.32997l-0.23622,2.07106c0,0 -0.35433,3.1066 -1.698,2.96664z" fill="#ffffff" stroke="none" stroke-width="0.5" stroke-linecap="butt"/></g><g fill="none" stroke="#b9b9b9" stroke-width="3"><path d="M270.05676,171.05258c-0.70686,-1.43976 0.38162,-2.55319 1.79192,-3.63153c1.41031,-1.07832 2.72931,-1.31507 3.31526,-0.27348c1.24236,2.20847 -0.41755,3.01687 -1.52187,3.86123c-1.41032,1.07834 -2.58704,2.07712 -3.58531,0.0438z" stroke-linecap="butt"/><path d="M268.16773,172.79592l2.97991,-2.22397" stroke-linecap="round"/><path d="M264.40707,173.03728c1.41031,-1.07832 2.72931,-1.31507 3.31526,-0.27348c1.24236,2.20847 -0.41755,3.01687 -1.52187,3.86123c-1.4103,1.07834 -2.58703,2.07712 -3.5853,0.0438c-0.70686,-1.43976 0.38161,-2.55319 1.79191,-3.63154z" stroke-linecap="butt"/><path d="M263.70602,176.18819l-2.97991,2.22399" stroke-linecap="round"/><path d="M254.92873,177.35336c0.60219,-1.58204 1.97658,-1.28335 3.50555,-0.66255c1.52898,0.62081 2.4256,1.69673 2.03138,2.91066c-0.83585,2.57387 -2.31698,1.54745 -3.51422,1.06135c-1.52898,-0.6208 -2.87317,-1.07521 -2.02272,-3.30945z" stroke-linecap="butt"/><path d="M255.86709,178.06041l-3.193,-1.34672" stroke-linecap="round"/><path d="M247.93526,172.22325c1.07826,-1.21221 2.21111,-0.30244 3.37339,0.98097c1.1623,1.28341 1.60206,2.70549 0.83565,3.66669c-1.625,2.03801 -2.60653,0.39504 -3.51665,-0.60991c-1.16228,-1.28342 -2.21513,-2.32581 -0.6924,-4.03774z" stroke-linecap="butt"/><path d="M246.1277,170.59006l2.41015,2.72745" stroke-linecap="round"/><path d="M241.86415,165.42998c1.07825,-1.21219 2.21111,-0.30244 3.37339,0.98097c1.16231,1.28341 1.60206,2.70549 0.83565,3.66669c-1.625,2.038 -2.60653,0.39504 -3.51665,-0.60991c-1.1623,-1.28341 -2.21512,-2.3258 -0.69239,-4.03774z" stroke-linecap="butt"/><path d="M240.05659,163.79678l2.41016,2.72745" stroke-linecap="round"/></g><path d="M273.06097,166.33809c-12.64815,0.03195 -24.91347,0.02681 -29.91859,-1.01303c-4.57434,-0.95035 -5.93331,-3.72083 -5.93331,-3.72083c0,0 -1.81906,-2.44725 -1.89706,-3.98045c-0.23397,-4.59959 -0.25741,-17.74994 0.82086,-29.08013c0.03599,-0.37814 0.07054,-0.58941 0.13004,-0.96484c0.17847,-1.12626 1.07002,-5.49648 1.07002,-5.49648c0,0 3.35104,-1.63502 5.16796,-2.09516c5.45074,-1.38043 19.26471,0.21149 33.82123,0.73605c1.31936,0.04755 3.56783,1.7456 3.56783,1.7456c0,0 1.58688,3.14951 1.51999,5.13201c-0.43238,12.81717 -0.96015,26.99695 -1.30277,30.23712c-0.1142,1.08006 -2.07141,5.25518 -2.07141,5.25518z" fill="#582700" stroke="#000000" stroke-width="2.5" stroke-linecap="round"/><path d="M270.45037,146.19573c0.11615,-3.44317 0.64303,-6.22109 1.17681,-6.20464c0.53378,0.01643 0.87233,2.82102 0.75619,6.26418c-0.11615,3.44317 -0.64303,6.2211 -1.17681,6.20465c-0.53378,-0.01643 -0.87233,-2.82102 -0.75619,-6.26419z" fill="none" stroke="#000000" stroke-width="2.5" stroke-linecap="butt"/><path d="M263.94608,146.07468c0.11831,-3.50694 0.53876,-6.33989 0.93908,-6.32754c0.40033,0.01234 0.62897,2.86527 0.51067,6.37221c-0.11831,3.50694 -0.53873,6.33986 -0.93907,6.32753c-0.40033,-0.01234 -0.62898,-2.86525 -0.51068,-6.37219z" fill="none" stroke="#000000" stroke-width="2.5" stroke-linecap="butt"/><path d="M232.84236,122.85651c-0.68685,-1.06379 0.42633,-1.72018 0.42633,-1.72018l1.37572,-0.76297c0.12411,-0.03607 0.24811,-0.07139 0.37202,-0.10594c-1.04665,-5.78684 0.14971,-12.76721 0.13978,-18.48567c-0.00257,-1.483 -0.38007,-5.50212 0.37469,-6.77119c1.26388,-2.12509 3.05216,-1.5244 5.03625,-1.52239c3.3759,0.00342 6.72454,0.04617 10.06514,-0.42279c8.28083,-1.15304 16.49197,-1.39989 24.81165,-2.06604c2.62533,-0.2102 5.18976,-0.29773 7.82838,-0.07827c0.72198,0.06004 1.64665,-0.18984 2.15004,0.30838c1.78282,1.76452 1.01199,3.72198 0.67492,5.68352c-0.67234,3.91265 -2.37189,7.4386 -2.50709,11.44623c-0.12487,3.06536 -0.62722,6.21 -1.04384,9.24958c-0.14378,1.04894 0.2085,2.99236 -0.90384,3.77816c-2.2808,1.61126 -8.18944,0.38998 -10.84608,0.30067c-8.10059,-0.27233 -16.20208,-0.70436 -24.30656,-0.53516c-2.89749,0.15527 -5.66013,0.38458 -8.43195,0.95558c-0.02842,0.37255 -0.21522,0.85 -0.93163,1.05176c-0.77728,0.2189 -1.21493,-0.15797 -1.43545,-0.47645c-0.09446,0.02664 -0.18898,0.05377 -0.28357,0.08139l-0.76488,0.49922c0,0 -1.11318,0.65638 -1.80004,-0.40742z" fill="#000000" stroke="none" stroke-width="0.5" stroke-linecap="butt"/><g><g stroke="#000000" stroke-width="3" stroke-linecap="round"><path d="M201.87765,182.87115l23.28932,-20.26519c0,0 4.48216,-3.78337 5.61962,-3.39889c3.41239,1.15345 7.73988,6.22535 13.10536,10.4214c0.89185,0.69747 -2.56365,5.61635 -2.56365,5.61635c0,0 -5.79412,7.50995 -9.50264,12.31668c-5.64773,7.32018 -14.47161,18.7571 -14.47161,18.7571c0,0 -4.31447,5.99376 -5.84942,4.58666c0,0 -9.97086,-2.97678 -20.20733,-16.77826c2.19581,-4.1021 10.58034,-11.25584 10.58034,-11.25584z" data-paper-data="{&quot;origPos&quot;:null}" fill="#582700"/><path d="M200.54112,184.5407l19.9811,17.208l-2.34556,2.55919l-20.1264,-16.98979z" data-paper-data="{&quot;origPos&quot;:null}" fill="none"/></g><path d="M201.43097,184.67854l28.95191,-25.18936l12.30988,10.56625l0.53326,1.3513l-22.21746,30.14014z" fill="#66c8ff" stroke="#000000" stroke-width="1" stroke-linecap="round"/><path d="M198.53541,187.0917l1.61718,-1.74519l19.9777,16.90596l-1.61717,1.74519z" fill="#ffffff" stroke="none" stroke-width="0" stroke-linecap="butt"/></g><g data-paper-data="{&quot;index&quot;:null}" stroke="#000000" stroke-width="1.25" stroke-linecap="butt"><path d="M257.74684,163.94944c-8.65791,-0.87614 -5.46937,-9.84149 -5.46937,-9.84149l12.90054,1.18869c0,0 1.73522,9.58041 -7.43118,8.65282z" fill="#000000"/><path d="M256.94813,161.12546c2.30345,0.94453 3.98345,2.67663 3.59808,2.74846c-0.79636,0.14845 -1.72264,0.18448 -2.79935,0.07553c-3.22694,-0.32655 -4.80822,-1.77684 -5.52226,-3.46783c-0.13872,-0.3285 2.60829,-0.22352 4.72353,0.64384z" fill="#ff8484"/><path d="M251.8107,157.18509c0.1618,-1.25973 0.46679,-3.07715 0.46679,-3.07715l11.33771,1.04468l-0.26868,3.18415c0,0 -11.54117,-1.11017 -11.53583,-1.15169z" fill="#ffffff"/></g></g></g></svg>