<svg version="1.1" xmlns="http://www.w3.org/2000/svg" xmlns:xlink="http://www.w3.org/1999/xlink" width="33.53931" height="45.28082" viewBox="0,0,33.53931,45.28082"><g transform="translate(-228.75948,-154.03093)"><g data-paper-data="{&quot;isPaintingLayer&quot;:true}" fill-rule="nonzero" stroke-linejoin="miter" stroke-miterlimit="10" stroke-dasharray="" stroke-dashoffset="0" style="mix-blend-mode: normal"><path d="M248.38233,198.66488c-6.85246,-1.04873 -13.4943,-2.08617 -16.11306,-3.09762c-2.39336,-0.9244 -2.88479,-2.60902 -2.88479,-2.60902c0,0 -0.76912,-1.54027 -0.67603,-2.4157c0.27926,-2.62628 1.42726,-10.08048 3.01123,-16.41028c0.05287,-0.21126 0.09023,-0.32807 0.15558,-0.5358c0.19607,-0.62319 1.06461,-3.02456 1.06461,-3.02456c0,0 1.95908,-0.64391 2.98364,-0.75141c3.0737,-0.32253 10.41417,1.74477 18.25099,3.26983c0.71031,0.13823 1.77809,1.29016 1.77809,1.29016c0,0 0.58139,1.91865 0.37019,3.03648c-1.36544,7.22694 -2.90279,15.218 -3.37433,17.02529c-0.15718,0.60243 -1.58561,2.80336 -1.58561,2.80336z" data-paper-data="{&quot;index&quot;:null}" fill="#582700" stroke="#000000" stroke-width="1.25" stroke-linecap="round"/><path d="M230.62586,170.27825c-0.27807,-0.66078 0.38271,-0.93885 0.38271,-0.93885l0.81237,-0.31633c0.07039,-0.00998 0.14066,-0.01952 0.21082,-0.02865c-0.05606,-3.36765 1.20795,-7.22247 1.70729,-10.46392c0.1295,-0.84063 0.2798,-3.15008 0.80056,-3.80559c0.87203,-1.09767 1.78745,-0.60642 2.86176,-0.43794c1.82792,0.28668 3.63762,0.59335 5.48811,0.60936c4.58626,0.04504 9.05481,0.59774 13.61914,0.92198c1.44031,0.10231 2.83681,0.26902 4.24638,0.61594c0.38569,0.09493 0.9085,0.03131 1.13714,0.3561c0.80975,1.15032 0.21953,2.19458 -0.13614,3.27774c-0.70945,2.16056 -1.94105,4.01534 -2.368,6.27504c-0.33819,1.72658 -0.88778,3.46625 -1.38169,5.15362c-0.17045,0.5823 -0.1512,1.71334 -0.82294,2.06482c-1.37738,0.72071 -4.46944,-0.46976 -5.90025,-0.74445c-4.36286,-0.83759 -8.7121,-1.76575 -13.11603,-2.35346c-1.58285,-0.15641 -3.0992,-0.25948 -4.65068,-0.16969c-0.04828,0.20873 -0.19158,0.46354 -0.59736,0.51745c-0.44026,0.05849 -0.64401,-0.192 -0.73532,-0.39109c-0.05352,0.00714 -0.10709,0.01453 -0.16075,0.02221l-0.45828,0.2184c0,0 -0.66078,0.27807 -0.93885,-0.38271z" data-paper-data="{&quot;index&quot;:null}" fill="#000000" stroke="none" stroke-width="0.5" stroke-linecap="butt"/><path d="M251.7455,183.98571c0.30568,0.0706 0.16708,1.80047 -0.30955,3.86373c-0.47664,2.06326 -1.1108,3.67863 -1.41648,3.60802c-0.30568,-0.0706 -0.16708,-1.80045 0.30955,-3.86371c0.47663,-2.06326 1.1108,-3.67864 1.41647,-3.60802z" data-paper-data="{&quot;index&quot;:null}" fill="none" stroke="#5a0000" stroke-width="1.25" stroke-linecap="butt"/><path d="M254.56221,182.48371c0.22376,0.68109 -0.45733,0.90485 -0.45733,0.90485l-0.45047,0.13742c-0.77071,0.4045 -1.18777,0.57773 -1.69917,0.5956l0.02302,0.12832l-0.7701,0.13814c-0.08908,0.01813 -0.18311,0.01951 -0.27792,0.00131c-0.38884,-0.07465 -0.64353,-0.45038 -0.56888,-0.83921c0.04315,-0.22477 0.1869,-0.40471 0.37564,-0.50213l0.64389,-0.33937l0.00901,0.01709l0.03063,-0.03645c0.53997,-0.20534 1.08201,-0.4054 1.62693,-0.59721c0,0 0.22705,-0.07991 0.46433,-0.01556l0.14559,-0.05012c0,0 0.68109,-0.22376 0.90485,0.45733z" data-paper-data="{&quot;index&quot;:null}" fill="#582700" stroke="none" stroke-width="0.5" stroke-linecap="butt"/><path d="M247.31677,183.00758c0.30568,0.07061 0.16708,1.80047 -0.30955,3.86373c-0.47664,2.06326 -1.1108,3.67863 -1.41648,3.60802c-0.30568,-0.0706 -0.16709,-1.80046 0.30955,-3.86372c0.47664,-2.06326 1.11079,-3.67865 1.41647,-3.60803z" data-paper-data="{&quot;index&quot;:null}" fill="none" stroke="#5a0000" stroke-width="1.25" stroke-linecap="butt"/><path d="M246.44314,181.05273l0.11667,0.10047c0.24424,0.0281 0.42556,0.1864 0.42556,0.1864c0.43514,0.37997 0.86456,0.76654 1.29011,1.15723l0.01496,0.0452l0.01469,-0.01254l0.47243,0.55369c0.13924,0.16039 0.20614,0.38077 0.16299,0.60554c-0.07465,0.38884 -0.45038,0.64353 -0.83921,0.56888c-0.09482,-0.0182 -0.18165,-0.05431 -0.25768,-0.10413l-0.6642,-0.4135l0.0689,-0.11067c-0.46842,-0.20598 -0.79169,-0.52133 -1.35781,-1.18248l-0.36756,-0.29446c0,0 -0.5498,-0.46007 -0.08973,-1.00988c0.46007,-0.5498 1.00988,-0.08973 1.00988,-0.08973z" data-paper-data="{&quot;index&quot;:null}" fill="#582700" stroke="none" stroke-width="0.5" stroke-linecap="butt"/><g data-paper-data="{&quot;index&quot;:null}" stroke="#000000" stroke-width="0.75" stroke-linecap="butt"><g data-paper-data="{&quot;index&quot;:null}" fill="#000000"><path d="M233.59343,189.66925l6.71529,1.38414c0,0 1.24418,2.5016 -3.7862,1.44628c-5.34482,-1.17373 -2.92908,-2.83041 -2.92908,-2.83041z"/></g><g data-paper-data="{&quot;index&quot;:null}" fill="#ffffff"><path d="M236.52252,192.49967c-5.34482,-1.17373 -2.92908,-2.83041 -2.92908,-2.83041c0,0 4.5431,0.93641 5.67685,1.1701c0.00157,0.00032 -0.46797,0.44523 -0.57057,0.96571c-0.08403,0.4263 0.19663,0.94704 0.18645,0.94758c-0.56825,0.02993 -1.33468,-0.03711 -2.36365,-0.25298z"/></g></g></g></g></svg>