<svg version="1.1" xmlns="http://www.w3.org/2000/svg" xmlns:xlink="http://www.w3.org/1999/xlink" width="267.42642" height="257.0021" viewBox="0,0,267.42642,257.0021"><g transform="translate(-106.28679,-54.50196)"><g data-paper-data="{&quot;isPaintingLayer&quot;:true}" fill-rule="nonzero" stroke-linejoin="miter" stroke-miterlimit="10" stroke-dasharray="" stroke-dashoffset="0" style="mix-blend-mode: normal"><path d="M373.71321,311.1602l-267.27562,0.34386l-0.1508,-256.65825l267.27563,-0.34385z" fill="none" stroke="none" stroke-width="NaN" stroke-linecap="butt"/><g><g data-paper-data="{&quot;origRot&quot;:0}" stroke="#000000" stroke-width="3" stroke-linecap="round"><path d="M216.44986,229.67608c0,0 -24.02588,-14.2431 -22.63156,-16.90586c2.51406,-4.80114 11.00915,-14.05592 11.00915,-14.05592l6.58396,-8.49154l-2.79053,2.99336c0,0 -8.22703,-13.11758 -8.31914,-16.76019c-0.0484,-1.91371 7.63728,-7.8713 10.07444,-8.07585c5.46738,-0.45888 32.20161,23.17223 30.29774,27.28436c-5.82161,9.00255 -18.06897,28.11098 -18.06897,28.11098c0,0 -4.43043,7.3364 -6.15509,5.90065z" data-paper-data="{&quot;origPos&quot;:null}" fill="#582700"/><path d="M200.19603,205.20123l21.94458,16.61996" fill="none"/><path d="M224.73811,218.86843l-21.77398,-16.84216" data-paper-data="{&quot;origPos&quot;:null}" fill="none"/></g><path d="M200.37,204.87776l1.68787,-2.17198l22.33176,17.14982l-1.68786,2.17197z" fill="#ffffff" stroke="none" stroke-width="0" stroke-linecap="butt"/><path d="M239.82726,196.48786l-14.52909,22.39373l-21.40248,-17.60959l7.96895,-10.26113l-1.38327,-1.20099l-2.09465,2.07119l-7.43393,-15.20632l0.96087,-1.11065l4.80435,-5.55327l4.8229,-0.67491l6.98715,3.47319l16.75945,14.22672l5.6735,8.49149z" fill="#66c8ff" stroke="#000000" stroke-width="0.5" stroke-linecap="round"/></g><g data-paper-data="{&quot;index&quot;:null}" stroke="#000000" stroke-linecap="round"><path d="M248.81489,163.49556c0,0 16.61469,-1.80508 16.68288,4.81922c0.18511,17.97969 -28.82444,12.42699 -28.82444,12.42699z" data-paper-data="{&quot;origPos&quot;:null}" fill="#66c8ff" stroke-width="2"/><path d="M248.06187,165.01333c0,0 12.06706,-0.71422 12.77063,1.22299c0.22189,0.61099 -16.0686,2.71476 -16.0686,2.71476z" data-paper-data="{&quot;origPos&quot;:null}" fill="#0a0a0a" stroke-width="1"/></g><g data-paper-data="{&quot;index&quot;:null,&quot;origRot&quot;:0}" stroke="#000000" stroke-linecap="round"><path d="M232.23386,261.69572c0,0 1.45576,4.25073 0.88925,6.54583c-0.43368,1.757 -2.21665,2.57352 -3.93886,3.23897c-4.72725,1.82655 -9.79895,1.02453 -17.64437,2.00088c-2.13676,0.26593 -3.74185,-2.64978 -3.87546,-4.74729c-0.12499,-1.9618 -0.21903,-5.37948 -0.21903,-5.37948l-1.35285,-33.08149c0,0 -0.03183,-4.28855 1.62732,-5.26614c3.99552,-2.35419 8.73821,-1.4888 13.32765,-2.31883c1.55531,-0.28127 2.30699,4.46308 2.30699,4.46308z" data-paper-data="{&quot;origPos&quot;:null}" fill="#ff0000" stroke-width="3"/><path d="M207.50991,264.44041l23.72514,-2.86739c0,0 1.48619,2.32774 1.66213,4.00729c0.16702,1.59436 -0.78335,4.38173 -0.78335,4.38173c0,0 -8.393,2.33671 -12.34397,2.94868c-5.14959,0.79763 -11.58208,-0.86309 -11.58208,-0.86309z" data-paper-data="{&quot;origPos&quot;:null}" fill="#976e57" stroke-width="2.5"/><path d="M232.20303,262.02538c0,0 1.45576,4.25073 0.88925,6.54583c-0.43368,1.757 -2.21664,2.57352 -3.93886,3.23898c-4.72725,1.82655 -9.79895,1.02453 -17.64437,2.00088c-2.13675,0.26591 -3.74185,-2.64978 -3.87547,-4.7473c-0.12499,-1.9618 -0.21903,-5.37948 -0.21903,-5.37948l-1.35285,-33.08148c0,0 -0.03184,-4.28854 1.62731,-5.26615c3.99552,-2.35419 8.73821,-1.48881 13.32765,-2.31883c1.5553,-0.28128 2.30696,4.46308 2.30696,4.46308c0,0 2.24524,8.73485 3.68231,14.32561c2.02827,7.89068 5.19712,20.2189 5.19712,20.2189z" data-paper-data="{&quot;origPos&quot;:null}" fill="#4b4b4b" stroke-width="1.5"/></g><g data-paper-data="{&quot;index&quot;:null,&quot;origRot&quot;:0}" stroke="#000000" stroke-linecap="round"><path d="M233.5961,233.49462c0,0 -2.35387,-4.21577 -0.94279,-4.91315c4.16391,-2.05778 7.39494,-5.55378 12.03495,-6.04853c1.92677,-0.20543 4.56921,3.22185 4.56921,3.22185l19.50353,27.0934c0,0 2.05127,2.77199 3.17229,4.40517c1.19858,1.74618 1.73665,5.01389 -0.12702,6.06774c-6.84271,3.86941 -10.37467,7.50986 -15.268,8.85722c-1.78272,0.49086 -3.7077,0.89763 -5.14534,-0.24201c-1.87794,-1.48865 -3.36516,-5.72901 -3.36516,-5.72901z" data-paper-data="{&quot;origPos&quot;:null}" fill="#ff0000" stroke-width="3"/><path d="M273.57857,260.19678c0,0 -4.07933,5.12865 -8.66826,7.54386c-3.52082,1.85303 -11.64495,4.96548 -11.64495,4.96548c0,0 -2.48925,-1.65261 -3.3483,-3.01866c-0.90496,-1.43905 -1.17177,-4.16907 -1.17177,-4.16907l20.63985,-11.76902z" data-paper-data="{&quot;origPos&quot;:null}" fill="#976e57" stroke-width="2.5"/><path d="M248.25737,266.45111c0,0 -5.15038,-11.67449 -8.44687,-19.14677c-2.33567,-5.29431 -5.98483,-13.56599 -5.98483,-13.56599c0,0 -2.35388,-4.21577 -0.9428,-4.91311c4.1639,-2.05779 7.39494,-5.55378 12.03495,-6.04853c1.92677,-0.20543 4.56921,3.22185 4.56921,3.22185l19.50353,27.0934c0,0 2.05127,2.77199 3.17229,4.40517c1.19858,1.74618 1.73665,5.01389 -0.12701,6.06775c-6.84271,3.86941 -10.37467,7.50986 -15.268,8.85722c-1.78272,0.49086 -3.70772,0.89762 -5.14534,-0.24202c-1.87794,-1.48865 -3.36516,-5.72901 -3.36516,-5.72901z" data-paper-data="{&quot;origPos&quot;:null}" fill="#4b4b4b" stroke-width="1.5"/></g><g><g><path d="M250.41413,212.48474c0,0 1.05558,15.74587 -1.20151,16.05441c-6.77129,0.92566 -24.61734,0.29605 -39.83391,0.48627c-1.70939,0.02137 -1.65647,-14.93848 -1.65647,-14.93848l1.42283,-30.64851c0,0 1.17539,-13.5492 2.74235,-13.56879c10.13612,-0.12671 25.28929,-1.2468 31.94449,0.31371c2.2184,0.52017 4.39706,14.90351 4.39706,14.90351z" data-paper-data="{&quot;origPos&quot;:null}" fill="#66c8ff" stroke="#000000" stroke-width="3.5" stroke-linecap="round"/><path d="M217.50599,193.33704c-1.32381,0.01655 -1.3565,-2.47075 -1.3565,-2.47075c-0.06775,-5.15884 -0.15727,-11.97586 -0.22503,-17.1347c0,0 -0.03266,-2.4873 1.29115,-2.50384c1.32381,-0.01655 1.35649,2.47075 1.35649,2.47075c0.06775,5.15884 0.1355,10.31766 0.20326,15.4765l0.02178,1.6582c0,0 0.03267,2.4873 -1.29114,2.50384z" fill="#ffffff" stroke="none" stroke-width="0.5" stroke-linecap="butt"/><path d="M229.88789,199.51611c-1.32381,0.01655 -1.36486,-3.10819 -1.36486,-3.10819c-0.08511,-6.48095 -0.19759,-15.04505 -0.2827,-21.52601c0,0 -0.04103,-3.12474 1.28279,-3.14129c1.32381,-0.01655 1.36485,3.10819 1.36485,3.10819c0.08511,6.48095 0.17024,12.96189 0.25534,19.44285l0.02736,2.08316c0,0 0.04104,3.12474 -1.28278,3.14129z" fill="#ffffff" stroke="none" stroke-width="0.5" stroke-linecap="butt"/></g><g fill="none" stroke="#b9b9b9" stroke-width="3"><path d="M239.8837,174.5546c-0.86597,-1.34738 0.05418,-2.57855 1.29158,-3.81216c1.23742,-1.23358 2.49049,-1.6212 3.18948,-0.65508c1.48203,2.04846 -0.03157,3.04298 -1.00049,4.00892c-1.23743,1.2336 -2.2576,2.36118 -3.48056,0.45834z" stroke-linecap="butt"/><path d="M240.88472,173.9513l-2.62136,2.55241" stroke-linecap="round"/><path d="M234.63684,177.17843c1.23742,-1.23358 2.49049,-1.6212 3.18948,-0.65508c1.48203,2.04846 -0.03157,3.04298 -1.00049,4.00892c-1.23742,1.23359 -2.25759,2.36118 -3.48055,0.45834c-0.86597,-1.34738 0.05417,-2.57855 1.29156,-3.81217z" stroke-linecap="butt"/><path d="M234.34626,180.38728l-2.62136,2.55243" stroke-linecap="round"/><path d="M225.95672,182.5595c0.38916,-1.64008 1.76254,-1.50262 3.32622,-1.06331c1.56367,0.43932 2.56898,1.40357 2.33636,2.65419c-0.49325,2.65166 -2.06075,1.80417 -3.28515,1.46018c-1.56367,-0.43931 -2.92703,-0.73484 -2.37742,-3.05106z" stroke-linecap="butt"/><path d="M226.95686,183.15276l-3.27169,-0.96734" stroke-linecap="round"/><path d="M218.52031,178.27636c0.89793,-1.32805 2.11232,-0.55606 3.40169,0.58342c1.28938,1.13948 1.89344,2.50021 1.26756,3.54302c-1.32706,2.21105 -2.4853,0.69373 -3.49493,-0.19851c-1.28937,-1.13949 -2.44241,-2.05238 -1.17432,-3.92791z" stroke-linecap="butt"/><path d="M216.56011,176.86433l2.68188,2.42851" stroke-linecap="round"/><path d="M211.77427,172.23556c0.89793,-1.32803 2.11233,-0.55606 3.40169,0.58342c1.28938,1.13948 1.89344,2.50021 1.26756,3.54302c-1.32706,2.21104 -2.4853,0.69373 -3.49492,-0.19851c-1.28937,-1.13948 -2.44241,-2.05237 -1.17432,-3.92791z" stroke-linecap="butt"/><path d="M209.81409,170.82353l2.6819,2.42851" stroke-linecap="round"/></g></g><g fill="none" stroke="#b9b9b9" stroke-width="3"><path d="M235.90504,174.47625c-0.59396,-1.35078 0.02594,-2.57821 0.86138,-3.80678c0.83545,-1.22855 1.68511,-1.61114 2.16404,-0.64226c1.01546,2.05429 -0.00863,3.0427 -0.66281,4.00469c-0.83546,1.22857 -1.52377,2.35201 -2.36261,0.44436z" stroke-linecap="butt"/><path d="M234.81244,176.41877l1.7701,-2.54178" stroke-linecap="round"/><path d="M232.35159,177.07891c0.83545,-1.22855 1.68511,-1.61114 2.16404,-0.64226c1.01546,2.05429 -0.00863,3.0427 -0.66281,4.00469c-0.83545,1.22856 -1.52377,2.35201 -2.36261,0.44436c-0.59396,-1.35078 0.02593,-2.57821 0.86137,-3.80679z" stroke-linecap="butt"/><path d="M232.16769,180.28642l-1.77009,2.5418" stroke-linecap="round"/><path d="M226.47734,182.42491c0.25747,-1.63843 1.19108,-1.49547 2.25522,-1.04992c1.06414,0.44557 1.75118,1.4138 1.59839,2.66341c-0.32393,2.64954 -1.3924,1.79581 -2.22564,1.44693c-1.06414,-0.44556 -1.99159,-0.74653 -1.62796,-3.06042z" stroke-linecap="butt"/><path d="M224.93256,182.04174l2.22672,0.98041" stroke-linecap="round"/><path d="M221.40732,178.11218c0.60443,-1.32438 1.43267,-0.54757 2.31342,0.59702c0.88075,1.14459 1.29685,2.50767 0.87605,3.54792c-0.89224,2.20561 -1.68548,0.68374 -2.37515,-0.21251c-0.88074,-1.1446 -1.66792,-2.06206 -0.81432,-3.93241z" stroke-linecap="butt"/><path d="M220.0697,176.69239l1.83219,2.43913" stroke-linecap="round"/><path d="M216.79891,172.04465c0.60443,-1.32436 1.43268,-0.54757 2.31343,0.59702c0.88075,1.14459 1.29685,2.50767 0.87604,3.54791c-0.89224,2.2056 -1.68548,0.68374 -2.37515,-0.21251c-0.88074,-1.14459 -1.66792,-2.06205 -0.81432,-3.93241z" stroke-linecap="butt"/><path d="M217.29349,173.06399l-1.8322,-2.43913" stroke-linecap="round"/></g><path d="M204.79287,164.44436c-0.51373,-3.21789 -1.81158,-17.35 -2.94101,-30.12641c-0.17471,-1.9762 1.2038,-5.2027 1.2038,-5.2027c0,0 2.10557,-1.81117 3.39341,-1.92644c14.20864,-1.27194 27.63216,-3.57152 33.03954,-2.47324c1.80247,0.36609 5.17022,1.82652 5.17022,1.82652c0,0 1.1129,4.31808 1.34956,5.43353c0.07888,0.37182 0.12433,0.581 0.18038,0.95675c1.67922,11.25838 2.3812,24.39091 2.40589,28.99587c0.00824,1.53499 -1.63607,4.07217 -1.63607,4.07217c0,0 -1.17648,2.83632 -5.59819,4.02039c-4.83811,1.2956 -16.83439,1.93107 -29.20716,2.54924c-1.85758,0.0928 -5.04468,-2.98458 -5.04468,-2.98458z" fill="#582700" stroke="#000000" stroke-width="2.5" stroke-linecap="round"/><path d="M238.72931,157.04039c-0.52118,0.04386 -1.18962,-2.70298 -1.49303,-6.1352c-0.30341,-3.43221 -0.12688,-6.25014 0.39431,-6.29397c0.52118,-0.04386 1.18964,2.70296 1.49304,6.13519c0.30341,3.43221 0.12687,6.25015 -0.39432,6.29399z" fill="none" stroke="#000000" stroke-width="2.5" stroke-linecap="butt"/><path d="M246.8674,128.62483l-0.77563,-0.45919c-0.09403,-0.02272 -0.18798,-0.04495 -0.28184,-0.0667c-0.19813,0.32936 -0.60541,0.72819 -1.37774,0.54955c-0.71182,-0.16464 -0.92085,-0.63181 -0.9692,-1.00237c-2.74255,-0.42773 -5.4573,-0.51471 -8.29985,-0.52083c-7.9362,0.24757 -15.83635,1.09535 -23.74444,1.78362c-2.5935,0.22571 -8.30535,1.74889 -10.62498,0.2572c-1.13129,-0.72749 -0.89384,-2.68621 -1.0923,-3.72625c-0.57506,-3.01377 -1.23972,-6.12804 -1.53085,-9.18252c-0.35316,-3.99489 -2.20983,-7.42839 -3.08311,-11.30082c-0.43781,-1.94138 -1.29964,-3.85639 0.34683,-5.70998c0.46489,-0.52337 1.38307,-0.32135 2.08592,-0.41843c2.56868,-0.35475 5.08176,-0.39916 7.66115,-0.32419c8.17409,0.2376 16.21892,0.06207 24.38184,0.78786c3.29326,0.29659 6.56614,0.08181 9.86791,-0.0951c1.94051,-0.10398 3.65648,-0.79571 5.00981,1.26135c0.80819,1.22844 0.66052,5.26116 0.73975,6.74214c0.30551,5.71069 1.86046,12.61947 1.15573,18.45173c0.12311,0.02813 0.24635,0.057 0.36972,0.08665l1.38764,0.69117c0,0 1.12498,0.59823 0.51182,1.69578c-0.61317,1.09755 -1.73814,0.49935 -1.73814,0.49935z" data-paper-data="{&quot;index&quot;:null}" fill="#000000" stroke="none" stroke-width="0.5" stroke-linecap="butt"/><path d="M244.7741,147.00155c-0.44659,0.90008 -1.36917,0.46436 -1.36917,0.46436l-1.00941,-0.48263c-0.88112,-0.53171 -2.58466,-1.22989 -3.86246,-2.03296c-0.61247,-0.2396 -1.24966,-0.51851 -1.96658,-0.82554l-1.00628,-0.42136c-0.372,-0.14623 -0.63669,-0.49943 -0.64214,-0.91513c-0.00726,-0.55224 0.44573,-1.00565 1.01177,-1.01273c0.12172,-0.00152 0.23876,0.01772 0.34756,0.05436l0.30572,0.0952c0.07861,0.02195 0.15725,0.04372 0.23593,0.0653c0.05686,0.00406 0.11246,0.01266 0.16641,0.02543l1.11402,0.23935l-0.00492,0.02178l0.05502,-0.00971c1.18383,0.37874 2.70707,0.42134 3.48219,1.10382c0.20651,0.07468 0.41202,0.1528 0.61637,0.23495l0.00515,-0.00949l0.10526,0.05432c0.03015,0.01236 0.0603,0.02483 0.0904,0.03738l0.01207,0.0155l0.02419,0.01249l0.00429,-0.00778l1.01416,0.53322c0.32644,0.16386 0.55163,0.49387 0.55667,0.87697c0.00186,0.14164 -0.02656,0.27677 -0.07938,0.39954l0.3172,0.14754c0,0 0.92256,0.43571 0.47596,1.3358z" fill="#582700" stroke="none" stroke-width="0.5" stroke-linecap="butt"/><path d="M232.07844,157.95693c-0.52118,0.04386 -1.18962,-2.70298 -1.49303,-6.1352c-0.30341,-3.43221 -0.12688,-6.25014 0.39431,-6.29397c0.52118,-0.04386 1.18964,2.70296 1.49304,6.13519c0.30341,3.43221 0.12687,6.25015 -0.39432,6.29399z" fill="none" stroke="#000000" stroke-width="2.5" stroke-linecap="butt"/><path d="M227.28718,146.92539l0.18347,-0.12207c-0.03323,-0.09612 -0.05235,-0.20245 -0.05381,-0.31442c-0.00398,-0.30288 0.1222,-0.5676 0.31079,-0.70273l0.5855,-0.43891l0.00266,0.00607l0.01397,-0.01028l0.00681,-0.01246c0.01745,-0.01044 0.0349,-0.02081 0.05238,-0.03111l0.06078,-0.04475l0.0032,0.00742c0.11844,-0.06845 0.23761,-0.13373 0.35745,-0.19632c0.4425,-0.55276 1.3356,-0.61267 2.02345,-0.9324l0.03246,0.00673l-0.00328,-0.01712l0.6494,-0.20837c0.03143,-0.01103 0.0639,-0.01878 0.09719,-0.02297c0.04577,-0.01842 0.09153,-0.03695 0.13727,-0.05567l0.17768,-0.0805c0.06319,-0.03084 0.13153,-0.04806 0.20298,-0.04895c0.33229,-0.00415 0.60632,0.34642 0.61205,0.78302c0.00432,0.32866 -0.14462,0.61238 -0.36027,0.73436l-0.58287,0.35036c-0.41516,0.25501 -0.78403,0.48642 -1.1391,0.68634c-0.73531,0.65673 -1.72234,1.23789 -2.22979,1.67331l-0.5836,0.39885c0,0 -0.5335,0.36027 -0.81185,-0.34345c-0.27836,-0.70372 0.25514,-1.06399 0.25514,-1.06399z" data-paper-data="{&quot;index&quot;:null}" fill="#582700" stroke="none" stroke-width="0.5" stroke-linecap="butt"/><g><g><g data-paper-data="{&quot;index&quot;:null}"><g stroke="#000000" stroke-width="3" stroke-linecap="round"><path d="M268.08897,197.81989c0,0 5.96568,9.02779 6.92023,13.54034c-13.42917,10.70118 -23.65545,11.03537 -23.65545,11.03537c-1.83303,0.96608 -4.27213,-5.90865 -4.27213,-5.90865c0,0 -5.2124,-13.26829 -8.54863,-21.76063c-2.1907,-5.57643 -5.61339,-14.28892 -5.61339,-14.28892c0,0 -1.9212,-5.62019 -0.88891,-6.06574c6.2104,-2.68051 11.67965,-6.46924 15.21616,-6.71345c1.17884,-0.0814 4.3791,4.70526 4.3791,4.70526l16.46301,25.45643z" data-paper-data="{&quot;origPos&quot;:null}" fill="#582700"/><path d="M270.49004,203.07969l-23.63672,11.25984l-1.51673,-3.06333l23.55904,-11.50712z" data-paper-data="{&quot;origPos&quot;:null}" fill="none"/></g><path d="M244.93242,210.95801l-12.75784,-34.70288l0.87201,-1.16701l14.50456,-7.05535l20.46668,31.64292z" fill="#66c8ff" stroke="#000000" stroke-width="1" stroke-linecap="round"/><path d="M246.62025,213.95497l-1.05098,-2.09348l23.47345,-11.21686l1.05098,2.09348z" fill="#ffffff" stroke="none" stroke-width="0" stroke-linecap="butt"/></g><g fill="#fffc96" stroke="#000000" stroke-width="2" stroke-linecap="round"><path d="M264.87833,193.94432c0,0 4.41127,-0.83263 5.24003,1.99843c1.32594,4.52958 -32.23579,8.75945 -33.90951,4.12015c-0.68384,-1.8955 2.36686,-2.99336 2.36686,-2.99336l0.84774,1.67899c0,0 6.47614,0.55611 14.32726,-0.26053c7.74233,-0.80531 12.59903,-2.68042 12.59903,-2.68042z"/><path d="M260.19386,186.63859c0,0 2.23712,-3.12058 3.81082,-1.37843c3.30343,3.65704 -19.41416,30.84698 -21.66657,26.76675c-1.36411,-2.47109 1.52603,-4.50787 1.52603,-4.50787l0.66064,1.21677c0,0 4.1691,-3.43737 9.19648,-9.67386c5.0274,-6.23647 7.23527,-11.351 7.23527,-11.351z" data-paper-data="{&quot;index&quot;:null}"/></g></g><path d="M248.80337,221.39675c-0.92777,-1.92738 -4.40091,-10.56357 -7.51331,-18.37915c-0.48142,-1.20887 -0.22334,-3.48053 -0.22334,-3.48053c0,0 0.98062,-1.51365 1.76711,-1.81661c8.67733,-3.34258 16.66863,-7.18946 20.26867,-7.46855c1.20001,-0.09303 3.58818,0.2204 3.58818,0.2204c0,0 1.51076,2.51051 1.86913,3.16814c0.11945,0.21921 0.18733,0.34234 0.29318,0.5681c3.17184,6.76449 6.08298,14.8801 6.96481,17.76552c0.29394,0.9618 -0.26062,2.84846 -0.26062,2.84846c0,0 -0.2047,1.9906 -2.75678,3.52547c-2.79242,1.67942 -10.20113,4.22642 -17.84936,6.82996c-1.14827,0.39088 -3.72727,-0.96961 -3.72727,-0.96961z" fill="#582700" stroke="#000000" stroke-width="2.5" stroke-linecap="round"/></g><g data-paper-data="{&quot;index&quot;:null}" stroke="#000000" stroke-width="1" stroke-linecap="butt"><path d="M222.26246,167.82178c-6.9673,1.24341 -6.15433,-5.94212 -6.15433,-5.94212l9.81189,-1.66364c0,0 2.92325,6.43131 -3.65755,7.60575z" fill="#000000"/><path d="M222.72199,165.68624c1.57263,-0.76972 3.66992,-1.01452 3.58141,-0.7633c-0.45566,1.29309 -1.58816,2.46111 -4.04093,2.89883c-0.81839,0.14605 -1.52944,0.17581 -2.14706,0.11457c-0.29888,-0.02964 0.89403,-1.4119 2.6066,-2.25011z" fill="#ff8484"/><path d="M226.44291,162.46161c0.00632,0.03036 -8.76914,1.55324 -8.76914,1.55324l-0.37698,-2.33672l8.62323,-1.4621c0,0 0.33125,1.3245 0.52289,2.24559z" fill="#ffffff"/></g><path d="M176.13236,136.33855v6.04595h-8.00681v-6.04595z" data-paper-data="{&quot;index&quot;:null}" fill="#582700" stroke="none" stroke-width="0" stroke-linecap="butt"/><path d="M188.16237,129.86281v2.82941h-3.63781v-2.82941z" data-paper-data="{&quot;index&quot;:null}" fill="#582700" stroke="none" stroke-width="0" stroke-linecap="butt"/></g></g></svg>