<svg version="1.1" xmlns="http://www.w3.org/2000/svg" xmlns:xlink="http://www.w3.org/1999/xlink" width="199.11324" height="221.55319" viewBox="0,0,199.11324,221.55319"><g transform="translate(-195.52004,-69.22341)"><g data-paper-data="{&quot;isPaintingLayer&quot;:true}" fill-rule="nonzero" stroke-linejoin="miter" stroke-miterlimit="10" stroke-dasharray="" stroke-dashoffset="0" style="mix-blend-mode: normal"><path d="M205.36674,290.77659v-221.55318h189.26654v221.55319z" fill="none" stroke="none" stroke-width="NaN" stroke-linecap="butt"/><g data-paper-data="{&quot;index&quot;:null}"><g data-paper-data="{&quot;origRot&quot;:0,&quot;index&quot;:null}" stroke="#000000" stroke-width="3" stroke-linecap="round"><path d="M314.03714,249.11904c-1.95695,0.5495 -2.76773,-6.68013 -2.76773,-6.68013c0,0 -2.0454,-14.06145 -3.35457,-23.0615c-0.85964,-5.90981 -2.20277,-15.14314 -2.20277,-15.14314c0,0 -0.59352,-5.89471 0.48689,-6.10807c6.49999,-1.28352 12.53809,-3.8071 15.95773,-3.28712c1.13989,0.17331 3.13397,5.5291 3.13397,5.5291l10.0752,28.36374c0,0 3.39508,10.09043 3.6111,14.69302c0.11982,2.55266 -24.93984,5.69408 -24.93984,5.69408z" data-paper-data="{&quot;origPos&quot;:null}" fill="#582600"/><path d="M312.37086,241.93634l24.26973,-5.69937" fill="none"/><path d="M335.59523,232.82416l-24.21543,5.93052" data-paper-data="{&quot;origPos&quot;:null}" fill="none"/></g><path d="M311.17293,237.88573l-5.03829,-38.43477l15.38722,-3.6628l1.40276,0.37383l12.77264,35.93645z" fill="#ffcb66" stroke="#000000" stroke-width="1" stroke-linecap="round"/><path d="M311.82556,241.98252l-0.54044,-2.26759l24.80606,-5.91202l0.54044,2.26759z" fill="#ffffff" stroke="none" stroke-width="0" stroke-linecap="butt"/></g><g data-paper-data="{&quot;origRot&quot;:0}" stroke="#000000" stroke-linecap="round"><path d="M310.95047,215.57387c0,0 0.81272,-4.61232 2.4732,-4.33597c4.89983,0.8155 9.96686,-0.01746 14.22915,2.27914c1.76993,0.95367 1.72696,5.12407 1.72696,5.12407l-1.51413,32.16786c0,0 -0.1076,3.32338 -0.24518,5.23091c-0.14711,2.0395 -1.86746,4.87199 -4.14895,4.6095c-8.37693,-0.96369 -13.79521,-0.19296 -18.84013,-1.97779c-1.83795,-0.65024 -3.74045,-1.44751 -4.19993,-3.1569c-0.60023,-2.23291 0.96343,-6.36392 0.96343,-6.36392z" data-paper-data="{&quot;origPos&quot;:null}" fill="#ff0000" stroke-width="3"/><path d="M327.05465,259.26115c0,0 -6.87339,1.60328 -12.37157,0.81829c-4.21838,-0.60228 -13.17726,-2.88987 -13.17726,-2.88987c0,0 -1.00917,-2.71233 -0.82745,-4.26247c0.19143,-1.63298 1.78355,-3.8939 1.78355,-3.8939l25.33263,2.83146z" data-paper-data="{&quot;origPos&quot;:null}" fill="#976e57" stroke-width="2"/><path d="M310.98272,215.89449c0,0 0.81272,-4.61232 2.47321,-4.33596c4.89982,0.8155 9.96686,-0.01746 14.22916,2.27917c1.76993,0.95367 1.72696,5.12405 1.72696,5.12405l-1.51413,32.16786c0,0 -0.10758,3.32338 -0.24516,5.23092c-0.14711,2.0395 -1.86747,4.87198 -4.14895,4.6095c-8.37693,-0.96369 -13.79521,-0.19296 -18.84013,-1.97778c-1.83795,-0.65024 -3.74044,-1.44753 -4.19992,-3.15689c-0.60023,-2.23291 0.96342,-6.36392 0.96342,-6.36392z" data-paper-data="{&quot;origPos&quot;:null}" fill="#474747" stroke-width="3"/></g><g><g><path d="M277.35566,206.76072c0,0 2.12491,-14.01255 4.4867,-14.54531c7.08535,-1.5983 23.28343,-0.69334 34.10978,-0.69334c1.67364,0 3.11891,13.16067 3.11891,13.16067l1.9493,29.78467c0,0 0.26633,14.546 -1.55945,14.546c-16.25275,0 -35.30207,0.82914 -42.54627,0.01137c-2.41472,-0.27258 -1.50829,-15.59636 -1.50829,-15.59636z" data-paper-data="{&quot;origPos&quot;:null}" fill="#ffcb66" stroke="#000000" stroke-width="3.5" stroke-linecap="round"/><path d="M297.98483,214.73372c-1.41398,0 -1.41398,-2.41899 -1.41398,-2.41899c0,-5.01717 0,-11.64698 0,-16.66415c0,0 0,-2.41899 1.41398,-2.41899c1.41398,0 1.41398,2.41899 1.41398,2.41899c0,5.01717 0,10.03433 0,15.05149v1.61266c0,0 0,2.41899 -1.41398,2.41899z" fill="#ffffff" stroke="none" stroke-width="0.5" stroke-linecap="butt"/><path d="M311.12105,220.89262c-1.41398,0 -1.41398,-3.03893 -1.41398,-3.03893c0,-6.30297 0,-14.6319 0,-20.93487c0,0 0,-3.03893 1.41398,-3.03893c1.41398,0 1.41398,3.03893 1.41398,3.03893c0,6.30297 0,12.60594 0,18.90893v2.02595c0,0 0,3.03893 -1.41398,3.03893z" fill="#ffffff" stroke="none" stroke-width="0.5" stroke-linecap="butt"/></g><g stroke="#000000" stroke-width="0.5" stroke-linecap="butt"><path d="M314.16291,230.59244c0,6.57161 -5.05196,11.89897 -11.28387,11.89897c-6.23191,0 -11.28387,-5.32735 -11.28387,-11.89897c0,-6.57161 5.05196,-11.89897 11.28387,-11.89897c6.23191,0 11.28387,5.32735 11.28387,11.89897z" fill="#ffa924"/><path d="M306.2293,219.61555c0.00046,0.0109 0.0007,0.02202 0.0007,0.03335c0,0.60751 -0.68387,0.60751 -0.68387,0.60751h-0.13677c-0.49967,0 -2.77747,0.02713 -3.11888,-0.10445c-0.285,-0.10985 -0.22301,-0.52813 -0.42807,-0.73545c-0.19701,-0.19917 -0.47732,-0.32232 -0.74104,-0.44647c-0.41938,-0.19742 -0.99216,-0.19426 -1.3007,-0.51464c-0.28501,-0.29597 -0.31889,-0.75054 -0.29205,-1.1393c0.12607,-1.82577 1.38722,-1.84445 3.01632,-1.67984c0.49137,0.09615 0.9984,0.14282 1.4741,0.28843c0.20928,0.06406 0.33417,0.28599 0.54962,0.33103c0.15315,0.03202 0.29723,-0.09511 0.45169,-0.12169c0.00659,-0.00114 1.91467,-0.24323 1.93359,-0.24562c1.28998,-0.16269 2.66953,-0.21017 3.97137,-0.12629c0.82954,0.05345 2.70389,0.236 3.18231,0.9744c0.68133,1.05159 -1.29895,1.76315 -1.7946,1.94315c-1.46682,0.53269 -2.71885,0.20157 -4.21274,0.35616c-0.50888,0.05266 -1.32674,0.36967 -1.87096,0.57971z" fill="#1cc735"/></g></g><g data-paper-data="{&quot;index&quot;:null,&quot;origRot&quot;:0}" stroke="#000000" stroke-linecap="round"><path d="M301.89615,240.04196c0,0 5.25394,-0.10433 5.24113,1.39637c-0.03778,4.42833 1.78041,8.71161 -0.01108,12.84422c-0.74389,1.71606 -5.37218,2.41535 -5.37218,2.41535l-35.90877,4.3599c0,0 -3.70123,0.49313 -5.83904,0.70989c-2.28572,0.23174 -5.72799,-0.77202 -5.84032,-2.81326c-0.41238,-7.4948 -2.22373,-12.0962 -1.13758,-16.82267c0.39572,-1.72193 0.9429,-3.52629 2.75568,-4.23009c2.36796,-0.91935 7.22129,-0.28206 7.22129,-0.28206z" data-paper-data="{&quot;origPos&quot;:null}" fill="#ff0000" stroke-width="3"/><path d="M256.33707,261.84203c0,0 -2.99086,-5.7266 -3.09259,-10.67271c-0.07803,-3.79483 0.87359,-12.03239 0.87359,-12.03239c0,0 2.82689,-1.36164 4.57653,-1.47664c1.84312,-0.12116 4.62948,0.87147 4.62948,0.87147l1.33885,22.65032z" data-paper-data="{&quot;origPos&quot;:null}" fill="#976e57" stroke-width="2.5"/><path d="M262.65573,237.70441c0,0 13.87932,0.86448 22.7628,1.4178c6.29419,0.39205 16.12804,1.00456 16.12804,1.00456c0,0 5.25394,-0.10434 5.24113,1.39636c-0.03778,4.42832 1.78041,8.71162 -0.01108,12.84423c-0.74389,1.71607 -5.37218,2.41535 -5.37218,2.41535l-35.90877,4.3599c0,0 -3.70123,0.49313 -5.83904,0.70989c-2.28571,0.23174 -5.72799,-0.77202 -5.84032,-2.81326c-0.41239,-7.49481 -2.22372,-12.0962 -1.13757,-16.82267c0.3957,-1.72193 0.9429,-3.52629 2.75568,-4.23009c2.36796,-0.91935 7.22129,-0.28206 7.22129,-0.28206z" data-paper-data="{&quot;origPos&quot;:null}" fill="#474747" stroke-width="1.5"/></g><path d="M312.77771,199.19785c-11.99593,-1.48143 -23.62425,-2.95385 -28.23951,-4.58429c-4.21805,-1.49011 -5.15968,-4.40137 -5.15968,-4.40137c0,0 -1.41832,-2.64562 -1.30034,-4.17609c0.35397,-4.59139 1.97798,-17.64111 4.41869,-28.75317c0.08145,-0.37086 0.14067,-0.57634 0.24407,-0.94169c0.31019,-1.09605 1.70259,-5.32523 1.70259,-5.32523c0,0 3.38186,-1.22126 5.16212,-1.46042c5.34077,-0.71747 18.23872,2.5145 31.97436,4.77637c1.24496,0.20502 3.16419,2.15869 3.16419,2.15869c0,0 1.11027,3.31457 0.79867,5.27349c-2.01447,12.66461 -4.28998,26.66971 -5.02045,29.84342c-0.24348,1.0579 -2.62183,4.96603 -2.62183,4.96603z" fill="#582600" stroke="#000000" stroke-width="2.5" stroke-linecap="round"/><path d="M316.25612,179.02376c0.54117,-3.40218 1.38846,-6.09522 1.89249,-6.01505c0.50402,0.08016 0.47393,2.90319 -0.06723,6.30537c-0.54117,3.40218 -1.38847,6.09523 -1.89249,6.01506c-0.50402,-0.08016 -0.47393,-2.90319 0.06723,-6.30538z" fill="none" stroke="#000000" stroke-width="2.5" stroke-linecap="butt"/><path d="M309.7234,178.69091c0.55119,-3.46521 1.30448,-6.22556 1.68248,-6.16542c0.37802,0.06013 0.23765,2.91799 -0.31354,6.38317c-0.55119,3.46521 -1.30445,6.22553 -1.68247,6.16542c-0.37802,-0.06013 -0.23766,-2.91797 0.31353,-6.38315z" fill="none" stroke="#000000" stroke-width="2.5" stroke-linecap="butt"/><path d="M283.28679,150.40063l2.07986,-12.83255l43.2358,7.00756l-2.07986,12.83255z" fill="#000000" stroke="none" stroke-width="0" stroke-linecap="butt"/><path d="M305.94103,167.59189c0.2209,-1.36293 1.50485,-2.28872 2.86778,-2.06782c0.27985,0.04534 0.54126,0.13554 0.7781,0.26201c1.45408,-0.0423 8.33762,6.11392 5.82995,8.40716c-1.8712,1.7112 -6.67165,-2.24141 -8.2966,-3.77556c-0.44755,-0.42254 -1.81813,-2.27328 -1.17922,-2.82577z" data-paper-data="{&quot;index&quot;:null}" fill="#582600" stroke="none" stroke-width="0.5" stroke-linecap="butt"/><path d="M321.17709,173.10118c-1.52286,1.02396 -5.86384,3.49494 -6.67045,1.34974c-1.08096,-2.87488 5.27676,-6.88498 6.25412,-6.4486c0.19551,-0.0564 0.39784,-0.07141 0.60052,-0.03856c0.98706,0.15998 1.60815,1.39455 1.38725,2.75746c0.28406,0.70208 -1.152,2.09792 -1.57143,2.37996z" data-paper-data="{&quot;index&quot;:null}" fill="#582600" stroke="none" stroke-width="0.5" stroke-linecap="butt"/><g data-paper-data="{&quot;index&quot;:null}"><path d="M216.09129,249.25031c-0.20496,-2.25285 -4.06064,-5.72516 -2.00582,-5.85124c1.36892,-0.08399 20.78486,3.36685 22.01641,4.72571c0.61705,0.68084 1.07925,1.81579 1.14769,2.5678c0.10056,1.10531 -0.38962,2.05404 -1.24025,2.75375c-0.88315,0.72645 -19.9671,2.27726 -21.01376,2.34149c-2.05481,0.12608 1.30073,-4.28466 1.09574,-6.53752z" fill="#e99b00" stroke="#000000" stroke-width="1.5" stroke-linecap="butt"/><g stroke-linecap="butt"><path d="M209.32278,249.69123c-0.37137,-4.08164 1.47327,-7.5221 4.12011,-7.68449c2.64685,-0.16239 5.09358,3.01478 5.46495,7.09643c0.37133,4.08164 -1.47331,7.5221 -4.12014,7.68449c-2.64683,0.16242 -5.09357,-3.01477 -5.46493,-7.09641z" fill="#ffb727" stroke="#000000" stroke-width="1.5"/><path d="M214.98044,245.6816l-1.76101,-3.23445c0,0 1.74495,0.55298 2.34388,1.04651c1.24099,1.05291 1.73129,2.56411 1.73129,2.56411z" fill="#ffd683" stroke="none" stroke-width="0"/><path d="M216.02469,248.88888l-0.41294,-1.46811c0,0 0.91946,-0.16024 1.24795,-0.15881c0.38463,0.00168 1.08407,0.21294 1.08407,0.21294l0.20968,1.78122z" fill="#ffd683" stroke="none" stroke-width="0"/></g><g><path d="M215.22539,249.43717c0.51229,5.63067 -2.45858,8.95223 -7.98857,9.29152c-5.52998,0.33927 -10.45446,-4.23881 -10.96678,-9.86954c-0.51232,-5.63069 3.04106,-9.85846 8.57105,-10.19775c5.52996,-0.33926 9.87198,5.14501 10.3843,10.77574z" fill="#e99b00" stroke="#000000" stroke-width="1.5" stroke-linecap="butt"/><path d="M203.23015,239.15815c2.74366,-0.16836 5.71112,1.01724 7.94696,2.58665c1.59293,1.11813 2.81739,2.90241 2.99847,4.89274c0.37219,4.0911 -1.28465,5.65574 -6.12296,5.95259c-2.4162,0.14823 -5.51488,-1.11011 -7.65869,-2.74116c-2.14902,-1.63502 -3.58148,-2.92615 -3.58148,-2.92615c0,0 1.57938,-7.46781 6.41769,-7.76466z" fill="#ffb727" stroke="none" stroke-width="0" stroke-linecap="butt"/><path d="M204.90342,238.9684c0,0 4.04701,2.54665 4.86756,9.04547c0.82728,6.55207 -2.27429,9.7456 -2.27429,9.7456" fill="none" stroke="#000000" stroke-width="0.8" stroke-linecap="round"/><path d="M209.40381,239.87317c0,0 2.46598,3.68779 3.4531,7.77697c1.42258,5.89302 -0.27515,8.33531 -0.27515,8.33531" fill="none" stroke="#000000" stroke-width="0.75" stroke-linecap="round"/><path d="M200.70109,240.12592c0,0 3.49488,2.75874 4.67566,9.2287c1.13572,6.22294 -0.60165,8.23441 -0.60165,8.23441" fill="none" stroke="#000000" stroke-width="0.8" stroke-linecap="round"/><path d="M203.50687,257.61063c0,0 -2.51441,-3.73755 -3.61762,-6.84506c-1.45312,-4.09309 -1.8008,-8.39875 -1.8008,-8.39875" fill="none" stroke="#000000" stroke-width="0.8" stroke-linecap="round"/><path d="M214.67153,251.63985c0,0 -2.86257,2.46501 -8.668,3.06222c-5.41748,0.5573 -8.08244,-2.03456 -8.08244,-2.03456" fill="none" stroke="#000000" stroke-width="0.8" stroke-linecap="round"/><path d="M197.45823,250.6153c0,0 2.77879,0.01709 5.76598,-0.43942c2.62696,-0.40147 5.39341,-1.26975 6.87253,-1.44666c1.75679,-0.21011 4.73434,-0.19192 4.73434,-0.19192" fill="none" stroke="#000000" stroke-width="0.8" stroke-linecap="round"/><path d="M196.72995,248.07334c0,0 4.02104,-3.17879 7.80682,-3.52048c5.9419,-0.5363 9.95043,1.41887 9.95043,1.41887" fill="none" stroke="#000000" stroke-width="0.8" stroke-linecap="round"/><path d="M196.87422,244.80305c0,0 2.82486,-2.45953 6.52529,-3.32437c5.32876,-1.24541 8.35879,-0.00677 8.35879,-0.00677" fill="none" stroke="#000000" stroke-width="0.8" stroke-linecap="round"/><path d="M203.82235,240.44052c0.03654,0.40148 -0.30269,0.74962 -0.75765,0.77751c-0.45497,0.02793 -0.85341,-0.27493 -0.88993,-0.67641c-0.03652,-0.4015 0.30268,-0.74962 0.75764,-0.77751c0.45497,-0.02795 0.85343,0.27491 0.88995,0.67639z" fill="#ffd683" stroke="none" stroke-width="0" stroke-linecap="butt"/><path d="M200.44693,241.8847c-0.22747,0.01395 -0.42897,-0.16251 -0.45004,-0.39413c-0.02107,-0.23162 0.14626,-0.43071 0.37374,-0.44466c0.22748,-0.01394 0.42897,0.16251 0.45004,0.39413c0.02108,0.23162 -0.14626,0.43071 -0.37374,0.44466z" fill="#ffd683" stroke="none" stroke-width="0" stroke-linecap="butt"/></g></g><g data-paper-data="{&quot;index&quot;:null}"><path d="M290.43474,190.77512c3.17932,0.48285 -5.68128,11.6099 -6.40431,13.797c-0.78579,2.37706 -13.06513,-14.56915 -13.06513,-14.56915l-2.04098,-2.90192l13.85222,18.95129c0,0 5.11412,6.30388 3.14534,7.42987c0,0 -6.19228,9.25892 -24.05011,15.37422c-3.72832,-3.54009 -8.85677,-14.37283 -8.85677,-14.37283c0,0 -12.50147,-23.5258 -10.19338,-27.63862c0.53449,-0.95238 9.39246,-10.58286 13.54334,-10.81329c13.77453,-0.76463 34.06978,14.74343 34.06978,14.74343z" fill="#582700" stroke="#000000" stroke-width="2.5" stroke-linecap="round"/><path d="M271.40823,191.78173c-0.27376,-0.42643 -0.54205,-0.85736 -0.81243,-1.28838c-0.05967,-0.09513 -0.62968,-1.23724 -1.08662,-1.6302c-5.90584,3.56808 -11.19016,8.01393 -17.31096,11.28591c-0.52021,0.32528 -1.54989,1.12112 -2.63778,1.75057c-0.26615,0.27162 -0.44324,0.5183 -0.43776,0.6938c0.04649,1.49233 1.09381,3.07659 1.42851,4.54634c0.24932,-0.29123 0.98232,-1.12335 1.34396,-1.40526c1.07399,-0.83718 2.13296,-1.66784 3.18043,-2.53682c3.6718,-3.04615 7.99157,-5.93122 11.97674,-8.50833c1.3154,-1.07452 2.80683,-2.09834 4.3559,-2.90763zM272.24616,193.03283c-1.53513,0.78417 -3.01621,1.81142 -4.31209,2.87c-4.52066,2.8939 -9.0399,6.23174 -13.25227,9.60645c-1.73564,1.3905 -3.83705,4.15159 -5.52304,2.19025c-0.37499,-1.55985 -1.46366,-3.34641 -1.52083,-4.98437c-0.45881,0.0926 -0.8725,0.06871 -1.1969,-0.134c-0.45665,-0.28534 -0.94487,-2.39953 -1.16868,-2.94934c-1.33529,-3.28011 -3.54841,-6.97125 -2.00967,-10.53852c0.823,-6.16571 7.78761,-12.06826 13.24682,-14.20299c4.41107,-0.03159 7.47686,1.49674 11.26702,3.54313c2.7366,1.47755 5.58479,2.36542 8.18155,4.18256c3.95482,2.02884 7.83598,4.17344 11.78676,6.20684c1.81324,0.93326 3.87991,1.21193 3.90644,3.49372c-1.833,3.09895 -3.68744,6.2309 -5.5994,9.29984c-0.59601,0.95665 -1.87032,2.85869 -3.05271,3.14546c-1.64321,0.3985 -2.53374,-1.25205 -3.27901,-2.40886c-1.98293,-2.30602 -4.03302,-4.93721 -5.85456,-7.67732c-0.33254,-0.0065 -0.56605,-0.27916 -0.56605,-0.27916c-0.37512,-0.43897 -0.72257,-0.89565 -1.05337,-1.36369zM249.96663,199.72941c3.0636,-2.67482 6.74206,-4.2969 9.8405,-6.84474c1.79581,-1.53811 4.76707,-4.5355 7.58456,-5.42416c0.11732,-0.10221 0.23223,-0.14897 0.23223,-0.14897l0.71361,-0.2869c0.63859,-0.40052 1.41065,-0.58782 2.16001,-0.6697c4.19278,4.27942 6.47242,10.46896 10.42573,15.10224c0.37356,0.58115 0.85291,1.44311 1.37766,1.88577c0.32276,0.27225 1.92851,-1.67751 2.11027,-1.9229c2.21302,-2.98781 3.71514,-6.47675 5.80737,-9.54787c0.13959,-0.35565 -2.61261,-1.43328 -3.16277,-1.71699c-3.97804,-2.05133 -7.89513,-4.19788 -11.87265,-6.2549c-2.58486,-1.80475 -5.39765,-2.68558 -8.12443,-4.14978c-3.47062,-1.86362 -6.24637,-3.33326 -10.26257,-3.38788c-4.95503,2.13562 -11.32607,7.43024 -12.08617,13.1247c-1.44914,3.5057 1.20829,8.60866 2.53628,11.82826c0.01409,0.03413 1.47638,-0.83012 2.67295,-1.54539c0.01616,-0.01373 0.03198,-0.02734 0.04741,-0.04081z" fill="#000000" stroke="none" stroke-width="0.5" stroke-linecap="butt"/><path d="M267.09853,194.67029c-3.98515,2.57712 -8.38343,5.51943 -12.05523,8.5656c-1.04747,0.869 -2.10906,1.69726 -3.18306,2.53444c-0.36164,0.28189 -1.09457,1.11407 -1.3439,1.4053c-0.33472,-1.46977 -1.3926,-3.06897 -1.43911,-4.56129c-0.00545,-0.1755 0.17081,-0.42406 0.43696,-0.69568c1.08789,-0.62946 2.11623,-1.42895 2.63643,-1.75423c6.12081,-3.27201 11.48978,-7.76675 17.39562,-11.33483c0.45693,0.39296 1.03151,1.54094 1.09119,1.63606c0.27038,0.43102 0.54162,0.86698 0.81536,1.29341c-1.54907,0.80929 -3.03886,1.83667 -4.35426,2.9112z" data-paper-data="{&quot;noHover&quot;:false,&quot;origItem&quot;:[&quot;Path&quot;,{&quot;applyMatrix&quot;:true,&quot;segments&quot;:[[[926.17844,407.1979],[3.2606,1.25965],[-0.27949,0.97418]],[[925.31465,410.11917],[0.29084,-0.97519],[-0.06418,0.21521]],[[924.29914,413.90358],[-0.01258,-1.20526],[13.15638,4.16543]],[[964.1057,425.02121],[-12.99513,-4.87922],[1.17537,0.35239]],[[970.21765,426.67451],[-2.3817,-0.804],[0.75941,0.04146]],[[971.83798,426.41666],[-0.25651,0.23985],[2.18115,-2.03947]],[[976.78433,418.26967],[-1.76682,2.44279],[-0.76669,0.00973]],[[972.89889,418.10481],[0.90089,0.17138],[-2.67549,-0.50896]],[[964.88923,416.67374],[2.68829,0.42712],[-9.42353,-1.49721]],[[936.29671,409.90591],[9.13228,2.58714],[-3.35077,-0.55846]]],&quot;closed&quot;:true}]}" fill="#ffffff" stroke="none" stroke-width="0.5" stroke-linecap="butt"/><path d="M251.49283,198.8325c-0.19258,0.12033 -4.26897,2.55986 -4.29225,2.50339c-1.32799,-3.21961 -3.98882,-8.35223 -2.53968,-11.85789c0.7601,-5.69446 7.15825,-11.02463 12.11329,-13.16024c4.01621,0.05463 6.82094,1.51966 10.29157,3.38329c2.72677,1.46421 5.56894,2.36023 8.15379,4.16498c3.97751,2.05702 7.9077,4.2306 11.88574,6.28192c0.55015,0.28369 3.3028,1.36561 3.1632,1.72125c-2.09221,3.07111 -3.59812,6.58227 -5.81114,9.5701c-0.18177,0.24539 -1.79043,2.201 -2.11316,1.92875c-0.52477,-0.44267 -1.0919,-1.35248 -1.46543,-1.93363c-3.95331,-4.63329 -6.21879,-10.76034 -10.41157,-15.03976c-0.74935,0.08189 -1.51356,0.27408 -2.15217,0.67462l-0.71009,0.28852c0,0 -0.65677,0.19014 -0.3741,0.88482c0.0283,0.06956 0.02155,0.22131 0.05699,0.27253c-5.33039,3.39903 -10.18317,7.31167 -15.795,10.31734z" data-paper-data="{&quot;noHover&quot;:false,&quot;origItem&quot;:[&quot;Path&quot;,{&quot;applyMatrix&quot;:true,&quot;segments&quot;:[[[926.61254,417.73069],[12.14285,3.5238],[-0.03018,0.12086]],[[926.46822,418.11346],[0.06716,-0.13431],[-0.67082,1.34164]],[924.45576,418.78428],[[923.08279,418.0906],[0,0],[-1.44471,-0.43097]],[[919.22563,415.72869],[1.11205,1.01797],[0.89694,-11.9485]],[[928.15956,380.1298],[-1.74473,12.05571],[0.38029,-1.32836]],[[929.175,375.57071],[0.02742,1.37277],[-0.01686,-0.84429]],[[923.5003,374.93752],[0.60865,-0.05075],[-7.41054,0.61792]],[[901.48814,378.8123],[7.37628,-0.90935],[-0.71866,0.25961]],[[903.08234,385.83106],[-0.2998,-1.20115],[2.16779,8.68513]],[[909.35292,411.92731],[-2.15853,-8.69186],[0.69956,6.26621]],[[913.83986,429.61277],[-1.39861,-6.02998],[1.78014,7.67491]],[[922.29365,449.50563],[-5.21858,-6.1072],[9.74892,4.62723]],[[957.96755,450.34516],[-9.56021,6.37347],[7.18055,-2.44927]],[[972.39433,430.92276],[-3.08539,6.24485],[0.05411,-0.10951]],[[963.14745,427.86406],[0.43501,0.13058],[-11.92317,-4.46591]]],&quot;closed&quot;:true}]}" fill="#ffcb66" stroke="none" stroke-width="0.5" stroke-linecap="butt"/></g><path d="M306.38275,189.16258c-0.07723,1.90842 -1.3684,3.40578 -2.88391,3.34445c-1.51551,-0.06133 -2.68147,-1.65813 -2.60424,-3.56655c0.07723,-1.90842 1.3684,-3.40578 2.88391,-3.34445c1.51551,0.06133 2.68147,1.65813 2.60424,3.56655z" fill="#ff8484" stroke="#000000" stroke-width="1" stroke-linecap="butt"/></g></g></svg>