<svg version="1.1" xmlns="http://www.w3.org/2000/svg" xmlns:xlink="http://www.w3.org/1999/xlink" width="258.66667" height="258.66667" viewBox="0,0,258.66667,258.66667"><g transform="translate(-107.43869,-52.08777)"><g data-paper-data="{&quot;isPaintingLayer&quot;:true}" fill-rule="nonzero" stroke-linejoin="miter" stroke-miterlimit="10" stroke-dasharray="" stroke-dashoffset="0" style="mix-blend-mode: normal"><g data-paper-data="{&quot;index&quot;:null}" stroke-linecap="butt"><path d="M282.37348,227.64283c0,0 0.07111,3.56615 -11.57221,6.12045c-17.72058,3.88752 -51.04273,7.30646 -62.21747,7.01139c-5.41024,-0.14285 -11.21283,-3.56307 -16.02073,-5.69379c-10.68235,-4.73409 -11.98999,-9.4081 -11.98999,-9.4081c0,0 -1.371,-4.83206 -0.29992,-6.8455c0.8695,-1.63453 5.8504,-0.78651 5.8504,-0.78651c0,0 44.97723,-5.39655 73.08079,-5.61779c1.20996,-0.00952 1.66795,4.2371 2.7918,4.21721c6.41175,-4.50786 15.59813,-5.27091 15.77417,-5.11954c4.33651,3.72875 4.60317,16.12217 4.60317,16.12217z" fill="#0045d8" stroke="#000000" stroke-width="3"/><path d="M206.05134,216.7569c0.07614,-1.77837 -1.16194,-8.58526 -1.16194,-8.58526c0,0 12.36011,-0.06355 27.28374,0.39879c12.35303,0.3827 21.67723,-2.92505 21.67723,-2.92505c0,0 5.68518,8.63649 6.09037,9.13369c0.92156,1.13083 0.48474,2.85784 0.48474,2.85784c0,0 -1.79379,4.6419 -2.96145,6.99468c-1.42889,2.87915 -5.72752,10.85249 -5.72752,10.85249c0,0 -0.8615,1.48779 -1.94976,0.29961c-1.98,-2.16176 -4.93445,-7.95548 -6.40127,-10.68553c-0.96323,-0.10952 -1.82581,-0.23783 -2.84418,-0.20316c-3.03909,0.1035 -6.34172,1.01461 -9.89785,0.97734c-4.44611,-0.04658 -8.46344,-0.1622 -11.88524,-0.89605c-2.4202,-0.51904 -4.6488,-7.16729 -6.43748,-7.95479c-4.13718,-1.82147 -6.35708,1.78249 -6.26943,-0.26462z" fill="#080f95" stroke="none" stroke-width="0"/><path d="M237.52638,226.81283c0,0 4.91626,-3.5322 5.92378,-4.25701c1.16493,-0.83807 4.38977,-2.69132 4.38977,-2.69132c0,0 -1.18838,2.30157 -4.23108,5.48938c-3.26251,3.41811 -6.08247,1.45894 -6.08247,1.45894z" fill="#000000" stroke="none" stroke-width="0"/></g><g data-paper-data="{&quot;index&quot;:null}" stroke="#000000" stroke-width="3" stroke-linecap="butt"><path d="M276.5205,200.26719c0,0 -1.27965,11.08995 -9.75296,11.0523c-3.9298,-0.01747 -21.31931,-4.18179 -24.48128,-9.87567c-6.88696,-12.40168 -4.34634,-21.11587 -4.34634,-21.11587c0,0 3.94485,-3.25047 6.55013,-3.10614c7.47736,0.41425 8.77321,4.75763 8.77321,4.75763c0,0 0.50331,2.03672 1.23687,3.24715c0.80909,1.33508 3.41327,4.42608 3.41327,4.42608c0,0 15.97857,-0.08153 16.52244,1.10433c0.24235,0.52839 2.08465,9.51021 2.08465,9.51021z" fill="#9362ec"/><path d="M296.12072,197.78685c7.78161,4.85759 5.11815,14.54451 3.80685,15.5769c-4.10583,3.23251 -19.4348,5.02626 -19.4348,5.02626c-3.04522,0.0676 -10.73747,-0.01966 -13.03097,-0.67395c-3.61341,-1.03085 -3.4306,-5.5653 -3.37157,-10.1524c0.09745,-7.57157 2.65015,-12.13176 10.52079,-12.069c0,0 16.56918,-0.79188 21.5097,2.29219z" fill="#f89587"/></g><path d="M265.32644,206.81217c0,0 -1.3922,11.08136 -18.3554,12.64179c-16.3913,1.50781 -25.50336,-1.12959 -30.49327,-3.01692c-2.72249,-1.02973 -7.21149,-1.84556 -7.21149,-1.84556c0,0 -1.19677,-8.32282 -1.18528,-16.69618c0.01063,-7.74648 1.22374,-15.44658 1.35702,-18.77926c0.41136,-10.28735 4.13753,-7.84822 4.13753,-7.84822l29.056,8.32773c0,0 -0.37753,2.91072 -1.4469,8.10081c7.61568,5.18552 24.14951,15.30434 24.14176,19.11584z" data-paper-data="{&quot;index&quot;:null}" fill="#ab9efa" stroke="#000000" stroke-width="3" stroke-linecap="butt"/><path d="M208.90048,188.50029c0,0 0.79688,-4.57164 2.17749,-5.80219c0.76763,-0.68422 -3.90899,-7.99115 2.08912,-9.20968c5.92833,-1.20436 23.97341,4.1935 27.68843,6.08095c1.50333,0.76378 -1.50268,7.08426 -1.24134,7.35119c1.05589,1.07848 -23.16851,-1.90627 -23.16851,-1.90627c0,0 -3.06444,21.80594 -5.24894,28.8346c-3.44684,-0.24602 -2.29626,-25.34865 -2.29626,-25.34865z" data-paper-data="{&quot;index&quot;:null}" fill="#9362ec" stroke="none" stroke-width="0" stroke-linecap="butt"/><path d="M248.91702,196.54432l0.47506,0.59242c0.04819,0.05934 0.08694,0.12562 0.11429,0.19678c0.46659,0.58402 0.9179,1.19139 1.35743,1.8213c3.58094,6.25182 -0.21362,10.75332 -7.48343,10.96811c-8.14212,0.2116 -11.82482,-2.66664 -16.64345,-7.80025c-2.49358,-3.12168 -8.00692,-10.56815 -1.39282,-13.0613c0.7912,-0.29825 2.26844,-0.3184 3.10267,-0.44171c3.59699,-0.4452 8.06428,-0.13917 11.34507,1.44506c1.28352,0.61978 2.65676,1.42723 3.84729,2.26654c0.28522,0.18699 0.66388,0.2976 0.93767,0.49564zM241.60607,195.84799c-0.75898,1.87556 -1.2376,4.16403 -1.89171,5.81534c-0.36659,0.84415 -1.82801,3.67827 -1.02529,4.46431c1.73281,1.69681 8.22704,-0.1052 9.01953,-2.1508c0.26022,-3.73407 -2.80484,-6.19275 -6.10253,-8.12886zM238.39334,194.08393c-0.68883,-0.36995 -1.33946,-0.72645 -1.91852,-1.07763c-2.99223,-1.11937 -4.7086,-0.91694 -7.8232,-0.18456c-0.6348,0.14927 -2.2946,0.20661 -2.47671,1.0056c-0.35236,1.54604 0.97976,3.53104 1.72395,4.82602c0.83226,1.46005 3.81398,5.43845 5.9169,5.36096c0.35043,-0.0129 0.94486,-1.05202 1.07997,-1.25733c1.02634,-1.55946 1.34793,-3.52384 2.0261,-5.22956c0.31537,-1.10045 0.73776,-2.1187 1.30114,-3.12865l0.17038,-0.31485z" data-paper-data="{&quot;index&quot;:null}" fill="#b4052c" stroke="none" stroke-width="0.5" stroke-linecap="butt"/><g data-paper-data="{&quot;index&quot;:null}" stroke-linecap="butt"><g><g><path d="M229.56924,246.61419c0.23701,-5.75956 0.08809,-17.10304 6.62312,-21.82719c1.62811,-1.17696 5.88647,-4.58117 9.31244,-1.02453c0.38985,0.40473 -0.76196,1.48983 -0.08862,2.99329c0.24855,0.55498 2.04062,0.60229 2.47867,1.25421c1.38382,2.05941 4.4356,4.05126 5.10844,3.96443c2.35781,-5.52471 9.18944,-12.21701 11.38549,-12.7402c3.9463,-0.94019 18.62929,2.51566 18.34328,5.62366c0.37448,2.52495 -3.52576,6.71089 -3.52576,6.71089c0,0 15.22538,9.04349 20.91896,12.64486c9.80393,6.20129 9.78904,11.18582 9.78904,11.18582c0,0 0.50597,2.48735 -3.67171,3.76979c-8.18906,2.51382 -18.25044,3.29127 -30.00675,3.02688c-11.42234,-0.25688 -10.80962,-6.5425 -22.75298,-7.85311c-10.07038,-1.10509 -24.3072,1.83583 -23.91363,-7.72882z" fill="#ae1c51" stroke="#000000" stroke-width="3"/><path d="M291.11064,260.46498c0,0 -11.16052,1.31782 -16.72176,0.50491c-5.6115,-0.82025 -13.07474,-6.8444 -18.51774,-7.63564c-11.51904,-1.6745 -18.82042,0.45455 -21.71521,-1.6395c-0.18619,-0.1347 -4.64266,-1.88979 -3.80855,-7.72901c2.00513,-14.0372 8.00115,-16.20809 8.00115,-16.20809c0,0 6.50161,7.99594 14.46635,8.96002c1.55987,0.1888 0.59368,-2.68526 0.59368,-2.68526c0,0 -0.1714,-1.38376 0.2382,-2.30841c0.61341,-1.38473 3.08452,-5.1924 3.08452,-5.1924c0,0 0.66557,2.07004 2.6738,4.49505c2.42423,2.92734 7.17541,5.74014 12.06621,9.32563c5.43693,3.98587 14.69094,7.43643 16.85003,9.62093c2.35138,2.37902 2.78933,10.49177 2.78933,10.49177z" fill="#710c65" stroke="none" stroke-width="0"/><path d="M239.41715,231.44887c-0.05981,1.45357 -0.76372,1.97805 -2.1642,1.98646c-1.40048,0.00841 -2.06541,-0.41387 -2.0056,-1.86745c0.05981,-1.45357 0.94484,-1.97914 2.34532,-1.98755c1.40046,-0.00842 1.88429,0.41495 1.82448,1.86853z" fill="#000000" stroke="none" stroke-width="0"/><path d="M250.54487,231.66392c0,0 1.14089,0.1811 4.97099,2.41348c3.11818,1.81745 5.13278,2.88238 5.13278,2.88238c0,0 -0.58773,1.23943 -5.70936,0.12826c-5.33113,-1.15661 -4.39441,-5.42411 -4.39441,-5.42411z" fill="#000000" stroke="none" stroke-width="0"/></g><g><path d="M263.46514,244.21935c-1.58545,-1.2031 -1.81158,-3.6942 -1.40263,-5.20483c0.97025,-3.58411 3.88082,-5.74361 5.70464,-6.25155c7.72837,-2.15237 13.69204,-1.16967 13.48162,0.5154c-0.3792,3.03641 -5.93289,3.31561 -9.58945,5.98215c-1.8496,1.34883 -2.44844,2.80694 -3.56312,3.93115c-1.06415,1.07325 -2.85434,2.3759 -4.63105,1.02767z" fill="#ab9efa" stroke="#000000" stroke-width="2.5"/><path d="M262.77521,239.9698c0.09252,-2.2485 1.97237,-3.30682 1.97237,-3.30682c0,0 0.83326,0.1314 2.28961,0.89891c1.91013,1.00666 2.53528,2.10865 2.53528,2.10865c0,0 -0.76252,0.83443 -1.49983,1.70039c-0.94959,1.11527 -1.34892,2.58079 -2.44257,2.58736c-1.94285,0.01166 -2.94738,-1.74002 -2.85486,-3.98851z" fill="#a870ff" stroke="none" stroke-width="0"/></g><g><path d="M271.06644,248.36924c-0.51769,-0.68916 0.86303,-5.12283 4.07723,-8.32742c7.63647,-7.61363 11.17074,-7.49641 12.44899,-5.00543c1.15656,2.25385 -4.40264,5.32203 -8.37713,9.34071c-3.54773,3.58715 -7.11382,5.37034 -8.1491,3.99213z" fill="#ab9efa" stroke="#000000" stroke-width="2.5"/><path d="M272.32552,247.99652c-0.72995,-0.26251 -0.04797,-3.55178 0.2899,-4.09608c0.9039,-1.45616 2.21521,-1.93336 2.21521,-1.93336l3.34398,1.74109c0,0 -0.98231,1.3322 -1.67984,1.92014c0,0 -2.98798,2.79303 -4.16925,2.36821z" fill="#a870ff" stroke="none" stroke-width="0"/></g><g><path d="M292.88636,238.01179c2.8162,2.36802 -2.91063,3.5213 -6.54745,7.88254c-3.21176,3.85152 -4.39774,8.32365 -7.63865,6.44709c-2.69839,-1.56245 10.03099,-17.8235 14.1861,-14.32963z" fill="#ab9efa" stroke="#000000" stroke-width="2.5"/><path d="M278.99678,250.89879c0.07417,-1.80236 3.49337,-4.83513 3.49337,-4.83513l0.91183,1.7549c0,0 -1.2785,3.11182 -2.55003,4.12817c-1.05802,0.84569 -1.89962,0.03262 -1.85516,-1.04795z" fill="#a870ff" stroke="none" stroke-width="0"/></g></g><g><path d="M280.64055,272.11649c-6.06884,0.03645 -13.88506,-6.43599 -21.1219,-7.18932c-10.65535,-1.10919 -28.86771,-1.47336 -31.99992,-4.86931c-2.86534,-3.10662 -3.67418,-12.472 0.78207,-13.15711c0.71407,6.23937 6.11864,6.73277 10.36683,6.81487c5.14154,0.09939 12.2359,-0.0691 17.81637,1.03941c9.88273,1.96313 15.0291,7.57931 22.6333,7.53363c13.07191,-0.07851 21.99301,-1.7334 27.02007,-3.51434c2.72975,-0.96707 3.65085,-2.43761 4.9776,-2.64506c1.73671,-0.27156 3.43027,4.02923 3.43027,4.02923c0,0 -0.15839,4.30756 -4.67968,7.20479c-4.73235,3.03248 -14.15824,4.66271 -29.22501,4.7532z" fill="#ab9efa" stroke="#000000" stroke-width="3"/><path d="M228.0311,246.75623c0,0 -0.44985,1.69715 1.17806,3.91621c1.06046,1.44557 2.74556,3.18589 7.18824,4.27661c3.90062,0.95763 17.53386,0.04229 20.73377,0.9437c4.4271,1.24711 7.36,3.11004 10.91431,4.74353c1.3896,0.63864 2.86163,1.54778 4.57396,1.9124c6.96873,1.48392 9.69347,1.08182 12.6416,0.91936c4.39157,-0.24202 7.05588,-0.81813 7.05588,-0.81813c0,0 0.88812,1.83617 0.28032,3.87333c-0.60781,2.03716 -2.12687,3.39729 -2.12687,3.39729c0,0 -4.54637,2.64389 -12.65307,0.25444c-4.59775,-1.35519 -5.6407,-1.68654 -14.33479,-5.73739c-4.49913,-2.09629 -27.04264,-2.23199 -31.10748,-3.9744c-1.19965,-0.51423 -3.1745,-0.58871 -3.88376,-0.99488c-2.40072,-1.37478 -1.35874,-2.71251 -1.85807,-4.73567c-0.93321,-3.78116 1.39792,-7.97635 1.39792,-7.97635z" fill="#a870ff" stroke="none" stroke-width="0"/></g></g><g data-paper-data="{&quot;index&quot;:null}" stroke-linecap="butt"><path d="M155.86717,246.37294c2.91749,-3.04838 11.50439,-7.84499 18.3224,-9.52295c-4.6494,-2.48343 -11.26249,-4.20244 -11.37955,-6.07307c-0.36721,-5.86811 1.37577,-6.28766 3.61934,-7.81308c1.86924,-1.27091 16.73393,6.35479 16.73393,6.35479c0,0 1.18779,-4.99664 6.00031,-6.15648c4.12869,-0.99504 12.87075,1.66059 18.46548,3.11437c3.6964,0.96051 7.62555,2.54563 9.00661,5.37283c0.86281,1.76625 -1.03803,6.03726 0.65977,4.80277c4.30787,-3.13228 14.58501,-3.29848 17.37361,-1.20117c2.44098,1.83587 3.57467,6.93211 2.54156,9.26696c-0.43649,0.98651 -12.93054,0.36517 -12.72471,1.38648c0.40808,2.02493 -3.38185,4.70104 -3.0934,6.36105c0.76253,4.38839 2.31188,6.81885 2.31188,6.81885c0,0 1.56171,6.41085 -2.24012,9.39776c-4.88552,3.83832 -16.62819,4.48597 -30.75152,4.68892c-25.11384,0.36089 -46.06874,-15.0715 -34.84558,-26.79807z" fill="#ae1c51" stroke="#000000" stroke-width="3"/><path d="M219.5237,243.02588c0,0 1.68568,-2.42307 7.14013,-3.48c4.88065,-0.94576 9.09298,-0.8812 9.09298,-0.8812c0,0 0.362,1.8821 0.6444,2.79696c0.31604,1.02391 -0.40984,2.68642 -0.40984,2.68642c0,0 -3.99744,0.526 -9.37865,0.27167c-1.86114,-0.08795 -2.71786,0.44522 -3.6284,0.45712c-1.22774,0.01602 -2.46308,-0.47417 -3.05825,-1.0006c-0.4359,-0.38556 -0.40234,-0.85035 -0.40234,-0.85035z" fill="#710c65" stroke="none" stroke-width="0"/><path d="M179.03866,233.28784c0,0 3.32112,-0.13985 4.81521,-1.84257c-0.16603,-3.18457 2.91565,-6.44915 5.27173,-7.09222c3.97678,-1.08545 14.37111,2.0787 14.37111,2.0787c0,0 0.37768,4.19239 0.57787,6.13689c0.23057,2.2396 0.2155,6.86096 0.2155,6.86096c0,0 -16.51085,0.62357 -20.24597,0.61252c-1.21306,-0.00359 -4.20753,0.88113 -4.20753,0.88113c0,0 -2.11683,-2.7959 -4.32813,-4.42073c-1.81053,-1.33034 -5.47203,-2.15556 -5.47099,-2.64635c0.00043,-0.20857 -4.37664,-1.27351 -5.97545,-2.94444c-1.54867,-1.61854 0.00418,-4.83526 0.91959,-4.75693c2.18159,0.18666 14.05705,7.13304 14.05705,7.13304z" fill="#710c65" stroke="none" stroke-width="0"/><path d="M165.19405,231.10018c-0.93124,-1.08747 -0.75416,-2.01648 -0.21054,-2.108c3.08829,-0.51987 4.9676,2.19659 5.69009,3.85909c0.25966,0.59751 0.36391,1.81694 0.36391,1.81694c0,0 -1.32805,-1.18712 -2.80358,-1.16592c0,0 -2.07904,-1.28008 -3.03988,-2.40211z" fill="#000000" stroke="none" stroke-width="0"/><path d="M227.59124,242.07566c0.11714,-0.87198 0.9083,-0.77253 3.42747,-0.80873c3.19139,-0.04586 3.97922,0.1894 3.92557,2.40069c-0.03948,1.62693 -2.4823,0.55971 -4.49655,-0.01062c-1.69491,-0.4799 -3.03976,-0.21736 -2.8565,-1.58135z" fill="#000000" stroke="none" stroke-width="0"/><path d="M157.60659,246.98034c0,0 0.06577,4.7465 0.50018,6.22721c0.4075,1.38893 1.99122,4.02604 1.99122,4.02604c0,0 0.97559,-1.47504 1.96513,-2.64159c0.45483,-0.53621 0.38725,-1.19702 1.16546,-1.28126c5.18604,-0.56141 16.21718,2.02056 25.20158,2.79596c27.33487,2.35915 31.27936,12.49721 31.27936,12.49721c0,0 -6.9916,4.66622 -32.48072,3.78161c-7.89053,-0.27384 -16.83745,-1.37334 -23.3173,-4.34754c-6.23099,-2.85998 -8.7085,-5.15903 -10.80039,-11.35253c-1.15784,-3.42805 1.25788,-7.19136 2.96068,-8.91265c0.72589,-0.73379 1.53479,-0.79246 1.53479,-0.79246z" fill="#710c65" stroke="none" stroke-width="0"/><g><path d="M145.40832,252.09496c-0.05837,-0.54047 8.02533,-4.53881 8.02533,-4.53881c0,0 -2.3047,5.05834 -0.00768,10.47639c2.64044,6.22812 11.04108,13.02076 30.66953,14.63992c10.89878,0.89907 31.35385,0.09064 38.20148,-5.44447c2.09718,-1.69523 3.46757,-4.93478 2.68469,-7.46201c-0.98445,-3.17807 -2.4108,-5.05178 -0.82548,-5.42545c2.4697,-0.5821 5.09562,5.50887 5.01265,8.92801c-0.09812,4.04375 -1.33617,7.28781 -4.53648,10.22538c-7.13404,6.54835 -20.98163,8.11461 -38.35479,8.36426c-15.48484,0.22251 -40.55946,-13.60401 -41.11678,-15.13261c-0.18005,-0.49384 0.78505,-9.65407 0.24755,-14.63059z" fill="#ab9efa" stroke="#000000" stroke-width="2.5"/><path d="M147.04103,254.77079c0,0 6.41473,20.55682 33.81327,23.21514c42.55348,4.12872 46.35498,-9.75152 46.35498,-9.75152c0,0 -1.13643,3.44523 -7.09473,7.01667c-5.58766,3.3493 -15.36056,7.4203 -38.1811,5.19479c-11.10502,-1.08298 -20.37616,-5.31531 -26.37324,-8.70796c-5.72406,-3.23821 -9.2834,-5.6881 -9.2834,-5.6881l0.76423,-11.27903z" fill="#a870ff" stroke="none" stroke-width="0"/></g><g><g><path d="M175.33312,242.97731c-0.0152,-0.53195 6.36281,-5.11711 17.80958,-4.91762c18.51274,0.32262 23.48773,10.70688 22.88062,11.9854c-1.22191,2.57323 -9.36602,-5.50514 -23.96305,-6.47268c-11.39733,-0.75546 -16.68452,0.89895 -16.72717,-0.5951z" fill="#ab9efa" stroke="#000000" stroke-width="2.5"/><path d="M181.10279,242.32464l-1.32313,-1.35451c0,0 5.3134,-2.39542 8.24723,-2.40454c9.41802,-0.02926 13.78576,1.6955 13.78576,1.6955l-2.71944,3.47288z" fill="#a870ff" stroke="none" stroke-width="0"/></g><g><path d="M169.45204,248.38775c-0.21365,-0.28027 -0.58156,-1.80027 3.23898,-2.92273c3.22502,-0.9475 10.12963,-1.53711 15.58087,-1.61544c11.90905,-0.17114 25.80441,6.73733 24.77738,10.58309c-0.57969,2.17071 -11.24485,-3.81182 -23.15391,-3.64069c-11.90906,0.17113 -19.81035,-1.57385 -20.44334,-2.40423z" fill="#ab9efa" stroke="#000000" stroke-width="2.5"/><path d="M193.64435,249.91334c0,0 -3.89737,-0.19364 -5.19684,-0.21459c-1.28205,-0.02066 -3.00829,0.26599 -3.00829,0.26599l-2.59335,-5.0378c0,0 5.52484,-0.41183 7.96322,-0.10214c4.76275,0.60489 6.05341,1.01483 6.05341,1.01483l-3.21818,4.07369z" fill="#a870ff" stroke="none" stroke-width="0"/></g><path d="M165.23137,252.91238c0.01651,-0.68045 0.38686,-2.89628 3.68811,-3.1189c4.0696,-0.27445 11.59816,0.93705 18.97722,0.83102c7.25747,-0.10429 14.66443,1.70738 18.85076,3.71549c3.52297,1.68992 4.42805,3.46653 4.39379,4.87839c-0.07497,3.08956 -12.61812,-4.5279 -25.98305,-4.33584c-13.36494,0.19206 -19.98035,0.23612 -19.92682,-1.97017z" fill="#ab9efa" stroke="#000000" stroke-width="2.5"/></g></g><g data-paper-data="{&quot;index&quot;:null}" stroke-linecap="butt"><path d="M200.31061,221.16648c0,0 -10.91438,-2.13395 -14.50613,-4.12016c-2.66666,-1.47463 -4.78172,-6.08362 -4.78172,-6.08362c0,0 -0.61045,-0.12145 -0.21518,-1.80852c0.3024,-1.29058 3.6227,-1.065 5.1297,-2.7305c3.13684,-3.46671 5.3003,-8.85458 5.3003,-8.85458c0,0 0.80563,-7.31877 6.24198,-6.99073c7.34365,0.44312 10.25571,5.56627 10.25571,5.56627c0,0 -0.31123,9.80543 -1.77063,13.88373c-1.694,4.73395 -5.65401,11.13812 -5.65401,11.13812z" fill="#aa96c7" stroke="#000000" stroke-width="2.35"/><path d="M189.48762,203.625c0,0 1.35839,-2.33906 2.04264,-5.16204c0.9253,-3.81755 3.2462,-8.3055 6.68342,-7.17924c3.58998,1.1763 7.20251,1.96474 8.58632,5.09276c0.86022,1.94448 -0.78881,7.30569 -0.78881,7.30569c0,0 -3.45444,1.26602 -9.81703,1.40373c-5.83341,0.12626 -6.70655,-1.46091 -6.70655,-1.46091z" fill="#c172b1" stroke="none" stroke-width="0"/></g><g data-paper-data="{&quot;index&quot;:null}" stroke="none" stroke-width="0" stroke-linecap="butt"><path d="M176.58,214.75053c0.85284,-4.81724 3.89962,-7.20046 6.99236,-6.69297c1.73019,0.28391 2.2685,3.12027 5.36517,2.95246c3.76914,-0.20428 7.53348,-4.69081 10.74289,-4.38728c3.56087,0.33676 7.35728,8.34138 7.35728,8.34138c0,0 -2.52028,6.85365 -5.61305,12.30855c-3.25276,5.73707 -8.48288,9.24088 -11.29448,8.5388c-3.01174,-0.75207 -15.46082,-10.26867 -13.55018,-21.06097z" fill="#0045d8"/><path d="M203.62513,222.44231c0,0 -2.00244,3.33475 -2.91203,5.16816c-2.00156,4.03445 -6.02659,9.36006 -9.66245,8.61813c-1.04988,-0.21423 -4.99985,0.27363 -7.25598,-0.69671c-2.26495,-0.97413 -2.8375,-3.41087 -4.64811,-5.89449c-2.43262,-3.33684 -2.98325,-9.61695 -3.04318,-13.81794c-0.01537,-1.07649 2.1264,-2.1852 2.31995,-3.27858c7.09475,9.14075 7.67632,16.76759 9.13976,16.70444z" fill="#080f95"/><path d="M207.9838,216.45517c0,0 -5.60667,-8.43034 -7.67757,-9.26632c-0.43014,-0.17363 -7.94012,3.86532 -11.17419,4.59227c-0.56792,0.12766 -2.0949,-0.04651 -3.23415,-0.78201c-0.97628,-0.6303 -1.52681,-1.74313 -2.53395,-2.63978c-0.85858,0.20014 -6.75656,6.7303 -6.75656,6.7303c0,0 2.23801,18.65126 9.11139,20.21308c1.76863,0.40188 8.65453,-1.28266 10.8578,-4.22888c1.6781,-2.24396 4.52235,-5.01707 5.90371,-7.12299c1.26147,-1.92313 2.32021,-2.91537 2.32021,-2.91537c0,0 -1.46251,4.04742 -3.48259,8.23675c-2.23092,4.6266 -12.10942,9.35389 -16.3581,7.75462c-0.99171,-0.37331 -4.53407,-2.57658 -6.74748,-5.47929c-4.73196,-6.20556 -4.02642,-15.34503 -3.73459,-17.41954c0.15046,-1.06947 2.54162,-3.03342 3.62521,-4.10174c1.45912,-1.43855 3.16044,-3.36217 6.01128,-3.5092c1.51304,-0.07802 2.98004,2.96135 4.50474,2.8035c4.81336,-0.49838 10.30295,-5.4985 12.87471,-4.73753c2.57177,0.76097 6.49019,11.87212 6.49019,11.87212z" fill="#000000"/></g><g data-paper-data="{&quot;index&quot;:null}" stroke="none" stroke-width="0" stroke-linecap="butt"><path d="M187.34555,200.00114c-0.55798,-0.39036 -1.62392,-1.76863 -1.82842,-2.82085c-0.58487,-3.00952 5.95034,-6.27253 7.78403,-11.22557c1.9037,-5.14215 0.46593,-11.84274 2.23919,-13.93254c0.43228,-0.50943 3.23774,-1.01425 4.04385,-0.97532c7.75703,3.7251 17.92225,13.99665 17.92225,13.99665l-1.57079,5.35347c0,0 -17.53419,17.33885 -28.59009,9.60418z" fill="#ab9efa"/><path d="M213.56019,193.06174c0,0 -6.04781,9.54215 -17.5649,9.92759c-4.81187,0.16102 -11.73436,-3.58776 -11.73436,-3.58776c-2.77504,-2.51399 1.37771,-7.71054 5.27371,-11.9693c1.17927,-1.28908 2.72487,-2.49377 3.22698,-6.0377c0.59471,-4.1975 -0.23573,-11.57965 -0.23573,-11.57965c0,0 1.81972,-1.86083 2.66758,-0.23275c0.37244,0.71518 0.11883,4.34017 0.31487,5.35121c0.70547,3.63843 -0.04494,9.74406 -0.84379,11.08712c-1.20109,2.01933 -7.72254,10.15346 -7.72254,10.15346c0,0 -0.63996,0.88027 -0.42486,1.534c0.72638,2.20758 5.20482,3.3237 7.76124,3.37696c6.15787,0.1283 10.33155,-2.29386 13.66127,-4.38827c3.14744,-1.97974 5.62054,-3.63488 5.62054,-3.63488z" fill="#000000"/></g><g data-paper-data="{&quot;index&quot;:null}" stroke-linecap="butt"><g><path d="M277.43954,162.92001c0,0 16.3987,2.74429 15.77167,9.69128c-0.32421,3.59193 -4.65024,6.70025 -13.27648,7.54635c-8.05737,0.79031 -19.90741,-0.60333 -34.62806,0.35405c-14.89558,0.96876 -34.35127,-3.70194 -43.91312,-8.07455c-6.27314,-2.86869 0.06984,-37.13476 5.78225,-40.97703c15.00292,-10.0912 46.67379,-17.76637 62.43494,-9.3891c9.6574,5.13305 12.04299,28.12138 12.04299,28.12138c0,0 -3.467,4.81996 -4.2142,12.72765z" fill="#aa96c7" stroke="#000000" stroke-width="3"/><path d="M246.06421,148.75856c-0.53447,1.23 -0.69992,15.22265 -1.2181,15.04022c-12.94436,-4.55737 -16.97491,-7.02175 -16.97491,-7.02175l-10.21379,19.48021c0,0 -6.71482,-6.06015 -9.687,-9.09695c-0.18517,-2.1987 -1.70928,5.96832 -1.70928,5.96832l-4.51361,-1.91714c0,0 -0.81328,-1.36088 -0.86266,-2.61625c-0.23409,-5.95222 0.64198,-23.07545 9.83177,-30.72912c10.70868,-8.91864 66.28751,-7.67104 66.28751,-7.67104c0,0 2.72007,14.83191 2.05298,19.70286c-1.21974,3.37087 -2.44721,7.51305 -2.44721,7.51305z" fill="#c172b1" stroke="none" stroke-width="0"/></g><g><g><path d="M176.11582,162.05631c0,0 -9.4468,19.94167 -20.80216,19.54657c-3.84409,-0.13375 -7.98614,-9.90653 -7.70926,-10.60078c0.19261,-0.48295 0.97679,-7.79139 7.1429,-11.07467c5.49192,-2.92429 12.06605,-4.0593 15.64991,-4.44153c4.68564,-0.49974 5.75773,1.79058 5.75773,1.79058l-0.03913,4.7798z" fill="#0066cc" stroke="#000000" stroke-width="3"/><path d="M147.63152,170.71841c0,0 9.30583,0.97045 13.228,-0.72988c3.68477,-1.59739 9.63732,-9.18254 9.63732,-9.18254c1.88321,-1.18934 2.5387,-1.8284 2.5387,-1.8284l0.87479,2.82161c0,0 -0.25439,1.97914 -2.10255,5.20517c-1.65564,2.88998 -4.81801,6.96841 -6.48626,8.43935c-1.44728,1.2761 -4.31565,3.34641 -6.66491,4.02709c-2.7475,0.79607 -4.89506,0.09415 -4.89506,0.09415c0,0 -5.69083,-8.27214 -6.13002,-8.84652z" fill="#0f1b82" stroke="none" stroke-width="0"/></g><g stroke="#000000"><path d="M281.78391,131.72918c0,0 -56.3262,13.36673 -65.70933,17.40135c-12.24313,5.26439 -23.86488,9.87828 -23.86488,9.87828c0,0 -13.10649,-2.94187 -18.40202,-14.6816c-1.62119,-3.59404 5.42608,-24.35505 6.51102,-26.80558c3.28341,-7.41626 7.00652,-18.44149 18.05306,-23.98428c12.97434,-6.51009 29.28249,-10.1113 44.21154,-10.49327c19.11899,-0.48916 35.98475,3.63607 40.78139,6.58166c7.50928,4.6114 3.60069,16.91363 3.60069,16.91363z" fill="#ae1c51" stroke-width="3"/><path d="M189.7302,158.68352c0,0 -6.97819,-2.34276 -11.11133,-5.2826c-4.77241,-3.39454 -6.83084,-7.68034 -7.50046,-11.62111c-0.37134,-2.1853 -3.25753,-8.18386 -0.96561,-13.69813c5.5457,-13.34276 20.50521,-30.32589 23.2574,-30.5283c13.19972,-0.97083 23.61437,50.97555 23.61437,50.97555l-27.29436,10.15459z" fill="#710c65" stroke-width="1.5"/></g></g><path d="M172.09654,148.36387c0.52129,-0.93632 10.87117,4.57648 16.57756,10.55621c3.2791,3.43618 2.74282,8.34263 2.89724,11.34529c0.11832,2.3008 -3.84868,5.94781 -6.88938,6.70685c-4.88535,1.21948 -14.36974,-25.40343 -12.58542,-28.60836z" fill="#aa96c7" stroke="#000000" stroke-width="3"/><path d="M179.71338,169.40996c0,0 1.15128,0.23749 3.00069,-0.6435c2.33916,-1.11431 7.20267,-5.16368 7.20267,-5.16368c0,0 1.82169,3.60869 1.89463,4.71293c0.09956,1.50744 -3.09432,4.95597 -5.76958,6.673c-1.45798,0.93576 -2.58662,0.57 -2.76264,0.63461c-0.48132,0.17668 -3.56576,-6.21335 -3.56576,-6.21335z" fill="#c172b1" stroke="none" stroke-width="0"/><path d="M180.70316,159.36177c-0.0269,-0.58697 8.82953,2.81832 8.51522,4.11631c-0.40564,1.67528 -2.09823,9.41841 -4.48586,7.59798c-0.97513,-0.74349 -3.90196,-8.93598 -4.02935,-11.7143z" fill="#c172b1" stroke="#000000" stroke-width="1.5"/><g fill="#000000" stroke="none" stroke-width="0.5"><path d="M210.44195,75.78459c1.16537,0.17342 0.97803,1.27898 0.97803,1.27898l-0.21735,1.20937c-1.61973,4.89748 -1.5941,9.51227 -1.65957,14.59936c-0.06673,5.18473 0.31338,10.13348 0.6434,15.27183c0.31084,4.8397 -0.68103,9.48774 -0.74303,14.30489c0,0 -0.01441,1.11903 -1.19464,1.10962c-1.18023,-0.0094 -1.16583,-1.12844 -1.16583,-1.12844c0.06134,-4.76499 1.05428,-9.36105 0.74724,-14.1416c-0.33345,-5.19186 -0.71503,-10.19668 -0.6476,-15.43512c0.06828,-5.30509 0.08291,-10.12966 1.76741,-15.24166l0.13927,-0.89512c0,0 0.18733,-1.10554 1.3527,-0.93212z"/><path d="M203.55508,133.56113c-0.54071,0.99669 -1.5899,0.48782 -1.5899,0.48782l-1.17802,-1.05736c-1.42189,-7.34134 0.01525,-15.84414 1.41298,-23.03694c0.68798,-3.54041 0.08163,-7.73081 0.21163,-11.33722c1.16711,-10.41297 2.90387,-21.29961 1.46364,-31.74553c0,0 -0.15264,-1.10912 1.01776,-1.25806c1.1704,-0.14894 1.32306,0.96018 1.32306,0.96018c1.45645,10.60136 -0.26043,21.62411 -1.44961,32.19143c-0.13116,3.70972 0.43121,7.914 -0.24111,11.56626c-1.27518,6.92713 -2.84912,15.1728 -1.41807,22.2394l-0.06086,-0.51554c0,0 1.04919,0.50886 0.50849,1.50555z"/><path d="M195.86703,68.01333c1.09657,-0.41792 1.53323,0.62017 1.53323,0.62017l0.4966,1.18566c2.08459,3.7788 0.75006,9.02728 0.2446,13.21333c-0.81259,6.72966 0.29781,13.92785 1.14451,20.50331c-0.12776,10.83779 -1.69069,21.61629 -1.81977,32.40738c0,0 -0.01441,1.11903 -1.19464,1.10962c-1.18023,-0.0094 -1.16583,-1.12844 -1.16583,-1.12844c0.14752,-10.74478 1.67154,-21.47179 1.82294,-32.26105c-0.82027,-6.71966 -1.93298,-13.9953 -1.13335,-20.87009c0.42489,-3.65285 1.88618,-8.77852 -0.03733,-12.01928l-0.55087,-1.30457c0,0 -0.43665,-1.0381 0.65993,-1.45604z"/><path d="M190.07228,138.33568c-1.18024,-0.0094 -1.16584,-1.12844 -1.16584,-1.12844l0.01097,-0.85259c0.00961,-0.74601 0.0192,-1.49205 0.02881,-2.23806c0.11522,-8.95217 -0.23235,-18.044 0.4164,-26.98097c0.24589,-3.38727 1.38682,-6.62103 1.75261,-10.00045c1.38936,-9.59488 0.23821,-19.03721 0.362,-28.65514c0,0 0.01441,-1.11903 1.19464,-1.10962c1.18023,0.0094 1.16583,1.12844 1.16583,1.12844c-0.12479,9.69571 1.02361,19.2184 -0.37871,28.89517c-0.3652,3.33801 -1.50514,6.54178 -1.74115,9.8848c-0.62825,8.89927 -0.29642,17.94305 -0.41114,26.85659c-0.0096,0.74601 -0.03017,2.34465 -0.03978,3.09066c0,0 -0.01442,1.11903 -1.19465,1.10962z"/><path d="M185.61285,85.96886c1.17877,-0.06152 1.23917,1.05586 1.23917,1.05586l0.01685,0.57438c0.61878,2.80631 0.75257,5.33678 0.71586,8.1891c-0.07056,5.48212 -0.60623,10.83391 -1.05264,16.27702c-0.52747,6.43167 0.67384,12.8513 0.59518,19.26563c0,0 -0.01442,1.11903 -1.19465,1.10962c-1.18023,-0.0094 -1.16583,-1.12844 -1.16583,-1.12844c0.08734,-6.46488 -1.12007,-12.92733 -0.58824,-19.41191c0.44243,-5.39473 0.97575,-10.69703 1.04569,-16.13075c0.03473,-2.69793 -0.07758,-5.0498 -0.66589,-7.70315l-0.06389,-0.91847c0,0 -0.06042,-1.11739 1.11835,-1.1789z"/><path d="M182.87838,128.89079c-0.84474,0.78463 -1.66911,-0.01331 -1.66911,-0.01331l-0.61307,-1.06271c0.14782,-3.49019 -1.85655,-7.25407 -2.10551,-10.86249c-0.44911,-6.50958 0.72679,-13.02888 0.8104,-19.52476c0,0 0.01441,-1.11903 1.19464,-1.10962c1.18023,0.0094 1.16583,1.12844 1.16583,1.12844c-0.08293,6.44338 -1.24908,12.90978 -0.81429,19.36605c0.24072,3.57446 1.92706,7.05067 2.09604,10.54386c0.15976,0.18353 0.6571,0.86388 -0.06491,1.53452z"/><path d="M177.39293,109.42994c1.09048,0.42432 0.63877,1.45983 0.63877,1.45983l-0.56635,1.29711c-1.93852,5.2601 -0.64144,11.46787 -0.70796,16.92958c0,0 -0.01441,1.11903 -1.19464,1.10962c-1.18023,-0.0094 -1.16583,-1.12844 -1.16583,-1.12844c0.07879,-5.79282 -1.16643,-12.10817 0.86189,-17.69823l0.59195,-1.3583c0,0 0.4517,-1.0355 1.54216,-0.61117z"/></g><g><g data-paper-data="{&quot;index&quot;:null}"><path d="M216.60166,164.8053c-1.47006,2.1438 -6.36313,-5.71346 -6.95844,-5.20216c-0.39128,0.33605 -4.38512,4.71998 -7.85296,8.38852c-0.85768,0.90732 -3.68672,1.14689 -4.45259,1.98486c-2.38164,2.60587 -2.1543,5.27558 -2.29321,5.06627c-0.09988,-0.15051 -4.73851,-14.05243 -3.59064,-15.32463c6.33777,-7.02415 33.84235,-13.50274 33.84235,-13.50274c0,0 -6.80521,15.8347 -8.69452,18.58988z" fill="#346def" stroke="#000000" stroke-width="3"/><path d="M215.56681,155.46468c0,0 1.41513,-2.78262 2.59111,-3.98099c1.21006,-1.23311 4.56991,-3.31642 4.56991,-3.31642l-7.07181,15.93466z" fill="#45afff" stroke="none" stroke-width="0"/></g><g data-paper-data="{&quot;index&quot;:null}"><path d="M287.41909,137.46109c0,0 9.70872,5.27541 13.17054,8.81844c6.57899,6.73327 6.69833,13.5777 6.69833,13.5777c0,0 -17.08781,-5.99203 -25.72619,-7.73802c-0.91127,-0.18419 -1.46526,-3.67325 -2.92095,-4.08872c-8.03748,-2.29404 -25.51462,-4.68303 -33.89501,-5.87979c-0.65893,-0.09409 -2.27342,-0.30773 -2.62855,0.1669c-1.85307,2.47669 4.39083,8.4149 2.29042,8.57441c-2.27164,0.1725 -8.23571,1.24578 -10.54708,-0.6696c-3.61507,-2.99571 -6.69133,-6.24925 -6.69133,-6.24925c0,0 6.59496,-10.58958 11.76146,-46.40402c1.79226,0.75626 6.17407,0.1848 9.18174,2.78755c2.59271,2.24364 3.89159,7.54165 4.84065,9.89378c1.86227,4.61548 -0.22113,8.82684 0.41298,8.12326c6.29761,-6.98748 18.69082,-13.26973 23.52375,-14.26755c4.265,-0.88056 15.62171,4.56797 24.35471,11.68901c8.47388,6.90976 14.39325,15.48573 14.39325,15.48573c0,0 -4.54676,3.24769 -11.47349,4.76289c-5.4433,1.1907 -12.97352,0.58326 -16.74524,1.41725z" fill="#45afff" stroke="#000000" stroke-width="3"/><path d="M268.18702,130.70289c0,0 8.96738,6.98214 13.5042,10.85586c5.34841,4.56668 18.4765,13.3556 18.4765,13.3556l-20.39652,-4.60049c0,0 2.1474,-1.77648 -0.4287,-3.48968c-1.69351,-1.12626 -5.21298,-1.40612 -10.47566,-2.33598c-3.99309,-0.70555 -21.46992,-3.32057 -26.49833,-3.87525c-0.83807,-0.09245 -1.44237,1.16658 -1.44237,1.16658c0,0 -1.05344,2.20526 -1.13662,3.55443c-0.12112,1.96419 2.44196,3.74815 2.44196,3.74815c0,0 -5.01772,1.98994 -6.52626,0.99047c-2.13139,-1.41215 -7.06065,-6.01872 -7.06065,-6.01872c0,0 1.33343,-3.16426 3.16236,-7.63134c3.38491,-8.26749 6.94503,-24.56697 7.95826,-36.83158c0.90716,1.4663 8.76074,28.32628 8.76074,28.32628c0,0 8.80652,-4.41392 16.65802,-7.92041c5.10718,-2.28085 10.3313,-4.3136 10.68221,-4.03313c7.87908,2.64854 26.29173,13.24085 26.29173,13.24085c0,0 -22.82351,1.86343 -28.04314,1.49355c-2.45073,-0.17367 -5.92772,0.0048 -5.92772,0.0048z" fill="#346def" stroke="none" stroke-width="0"/></g></g></g><g data-paper-data="{&quot;index&quot;:null}"><path d="M317.8634,226.03611c1.61173,-4.36525 3.74131,-9.23819 8.46337,-7.6411c3.14585,1.06398 6.91332,4.01433 8.42474,7.63466c0.75727,1.81395 0.74997,4.33294 0.21198,5.79004c-0.79075,2.14167 -2.17525,5.91775 -4.72531,6.45878c-2.64756,0.5617 -6.49127,-2.16782 -8.89657,-2.98134c-4.72206,-1.59709 -5.08994,-4.89584 -3.47821,-9.26105z" fill="#2f429d" stroke="#000000" stroke-width="3" stroke-linecap="butt"/><path d="M275.85907,225.71315c0.24782,-6.16201 6.05275,-7.73431 14.30565,-4.94301c8.2529,2.7913 13.48634,6.73305 11.46438,12.20932c-0.83071,2.24996 -3.51946,9.18443 -7.51046,8.0973c-6.74867,-1.83832 -4.54346,-7.22589 -5.96451,-7.68261c-4.03294,-1.2962 -12.51642,-2.17603 -12.29502,-7.68101z" fill="#c172b1" stroke="#000000" stroke-width="3" stroke-linecap="butt"/><path d="M281.78556,209.65089c4.06718,-11.01557 11.60758,-26.14478 23.45778,-22.55499c4.6564,1.41058 3.76018,8.65272 5.52434,9.24939c4.51321,1.52646 8.38098,1.59374 10.57854,5.57349c1.06763,1.93347 0.62,3.36165 1.80546,4.98519c2.40898,3.29921 5.33883,1.73832 6.7749,5.02899c0.26365,1.09987 1.76042,14.43164 -1.76579,19.24848c-4.24155,5.79405 -10.00366,6.86268 -13.43452,6.68367c-5.56264,-0.29022 -7.56114,-5.46943 -7.56114,-5.46943c0,0 -4.61238,0.25563 -6.67135,-0.91419c-2.0033,-1.1382 -2.50085,-3.84389 -5.16816,-5.78768c-0.66068,-0.48146 -2.15308,2.56249 -6.4581,0.67935c-9.40775,-4.11524 -8.86688,-11.88782 -7.08195,-16.72219z" fill="#aa96c7" stroke="#000000" stroke-width="3" stroke-linecap="butt"/><path d="M302.83035,215.30033c0,0 0.38158,0.55738 0.41012,2.4297c0.02348,1.53992 -0.47772,4.29658 0.83766,5.54324c0.65977,0.62528 4.56686,2.15418 6.11537,2.04903c1.20168,-0.0816 2.13635,-0.75533 2.4752,-0.68421c1.67811,0.35218 4.83565,-6.25819 4.83565,-6.25819l2.65897,-1.71361c0,0 -0.89507,6.39176 -2.47649,11.27843c1.54463,3.06214 2.48059,5.19476 2.48059,5.19476l5.13081,-0.41319c0,0 -1.70119,1.55027 -3.76684,2.49486c-0.89973,0.41144 -2.36207,0.33883 -2.9579,0.59042c-3.85624,1.62824 -7.96269,0.48502 -9.85939,-3.11777c-0.23097,-0.43876 -0.76895,-1.91635 -1.93332,-1.73749c-4.0902,0.62832 -4.77386,-0.29244 -6.16284,-1.46616c-1.76657,-1.49283 -3.88655,-3.7634 -3.88655,-3.7634c0,0 0.10789,-1.09753 -0.69527,-1.19218c-1.034,-0.12181 -2.58218,0.93632 -4.14556,1.10239c-0.64541,0.06857 -1.50562,-0.60427 -1.99793,-0.64343c-1.08836,-0.08657 -2.81666,-1.04607 -3.74104,-1.87615c-0.87166,-0.78274 -0.96466,-1.42884 -1.18542,-1.81391c-0.85701,-1.49493 -0.95231,-6.62581 0.83926,-7.65665c2.17443,-1.25114 6.42147,1.7487 6.42147,1.7487c0,0 2.39597,5.00147 5.37462,5.78504c2.23986,0.58921 5.22887,-5.88026 5.22887,-5.88026z" fill="#c172b1" stroke="none" stroke-width="0" stroke-linecap="butt"/><path d="M300.65401,215.95805c0.62548,-2.65141 1.54453,-5.63715 2.90617,-7.27781c1.2007,-1.44674 3.72212,-2.46437 4.6324,-2.09102c0.41803,0.17147 5.24931,1.7751 5.24931,1.7751c0,0 -6.78112,0.28642 -7.50647,1.26225c-0.80428,1.08194 -1.81821,3.11559 -2.24115,4.90843c-0.75688,3.20835 -1.2518,6.26474 -2.66744,8.29243c-1.25964,1.80424 -4.26643,4.22489 -4.26643,4.22489l-2.26467,-1.08507c0,0 2.92503,-3.36669 3.83321,-4.32642c1.26512,-1.33696 1.91545,-3.94653 2.32502,-5.68279z" fill="#000000" stroke="none" stroke-width="0" stroke-linecap="butt"/><path d="M313.18584,224.32662c0.94634,-2.56307 1.58743,-5.42026 3.14034,-6.89551c1.36934,-1.3009 3.91091,-2.27015 4.76855,-1.79581c0.39388,0.21783 2.75095,1.84115 2.75095,1.84115c0,0 -4.43845,0.27764 -5.27819,1.1647c-0.93107,0.98354 -1.37985,2.7601 -2.01975,4.49322c-1.14511,3.10141 -2.81887,6.21028 -4.47288,8.06391c-1.47177,1.64939 -3.00123,2.21949 -3.00123,2.21949l-2.81516,-1.82976c0,0 2.26512,-1.02483 3.28433,-1.87512c1.41984,-1.18448 3.02337,-3.70788 3.64307,-5.38628z" fill="#000000" stroke="none" stroke-width="0" stroke-linecap="butt"/><g fill="#2f429d" stroke-linecap="butt"><path d="M274.49057,203.24607c2.92005,-7.90878 9.68159,-12.83382 15.10226,-11.00044c5.42067,1.8334 7.44784,9.73098 4.52776,17.63973c-2.92005,7.90874 -9.68159,12.83379 -15.10227,11.00041c-5.42068,-1.83338 -7.44783,-9.73097 -4.52775,-17.63972z" stroke="#000000" stroke-width="3"/><path d="M289.36179,200.33726l-0.60917,-7.45094c0,0 2.98174,2.43907 3.73283,3.8425c1.52902,2.96439 1.15106,6.1773 1.15106,6.1773z" stroke="none" stroke-width="0"/><path d="M288.56676,207.15906l0.49353,-3.07014c0,0 1.97617,0.4434 2.62957,0.71112c0.76507,0.31352 1.96955,1.27183 1.96955,1.27183l-1.17939,3.48981z" stroke="none" stroke-width="0"/></g><g><path d="M262.17856,218.38249c-11.3253,-3.83046 -17.03427,-16.33928 -13.00597,-27.24961c4.02829,-10.91029 14.90124,-15.92404 26.22657,-12.09357c11.32531,3.83045 15.0608,17.55855 11.0325,28.46888c-4.02831,10.91031 -12.92776,14.70477 -24.2531,10.8743z" fill="#2f429d" stroke="#000000" stroke-width="3" stroke-linecap="butt"/><path d="M252.12022,187.96786c0,0 9.84438,-12.64699 19.75317,-9.29562c5.61895,1.90045 10.46979,6.50553 13.51843,11.23565c2.17201,3.36996 3.01221,7.68443 1.58831,11.54097c-2.92682,7.92709 -7.63199,9.50679 -17.54078,6.15542c-4.94839,-1.67364 -9.99552,-6.5202 -12.80542,-11.291c-2.81675,-4.78238 -4.51375,-8.34541 -4.51375,-8.34541z" fill="#2f429d" stroke="none" stroke-width="0" stroke-linecap="butt"/><path d="M275.29859,179.68977c0,0 5.78189,8.01364 1.58946,20.79105c-4.22682,12.88211 -13.27189,16.33245 -13.27189,16.33245" fill="none" stroke="#000000" stroke-width="1.6" stroke-linecap="round"/><path d="M283.45638,185.00845c0,0 1.60758,8.86502 -0.09204,17.28477c-2.44938,12.13398 -8.02298,15.31677 -8.02298,15.31677" fill="none" stroke="#000000" stroke-width="1.6" stroke-linecap="round"/><path d="M265.88551,178.45622c0,0 4.49122,7.96341 1.04265,20.97774c-3.31693,12.51746 -8.58318,14.86516 -8.58318,14.86516" fill="none" stroke="#000000" stroke-width="1.6" stroke-linecap="round"/><path d="M255.79806,213.31585c0,0 -1.6595,-8.99681 -1.07154,-15.68027c0.77446,-8.80314 3.94258,-17.11042 3.94258,-17.11042" fill="none" stroke="#000000" stroke-width="1.6" stroke-linecap="round"/><path d="M283.40313,211.1954c0,0 -7.91547,2.28512 -20.02108,-1.2868c-11.29657,-3.33319 -14.28354,-10.31574 -14.28354,-10.31574" fill="none" stroke="#000000" stroke-width="1.6" stroke-linecap="round"/><path d="M250.01637,195.3936c0,0 5.52273,2.27441 11.88545,3.83419c5.59545,1.3717 11.88752,1.98563 14.99398,2.84953c3.68963,1.02605 9.60746,3.46301 9.60746,3.46301" fill="none" stroke="#000000" stroke-width="1.6" stroke-linecap="round"/><path d="M250.84437,190.06701c0,0 10.86442,-2.68081 18.71571,-0.2625c12.32292,3.7956 18.5585,10.67552 18.5585,10.67552" fill="none" stroke="#000000" stroke-width="1.6" stroke-linecap="round"/><path d="M254.06449,184.08692c0,0 7.83548,-2.3053 15.98583,-0.93113c11.73684,1.97883 16.66484,6.73326 16.66484,6.73326" fill="none" stroke="#000000" stroke-width="1.6" stroke-linecap="round"/><path d="M271.824,181.56169c-0.28723,0.77792 -1.27543,1.15309 -2.2072,0.83795c-0.93177,-0.31515 -1.45429,-1.20126 -1.16705,-1.97921c0.28723,-0.77792 1.27545,-1.1531 2.20721,-0.83796c0.93176,0.31515 1.45426,1.20127 1.16703,1.97922z" fill="#2f429d" stroke="none" stroke-width="0" stroke-linecap="butt"/><path d="M263.80175,181.52981c-0.46587,-0.15759 -0.70921,-0.64914 -0.5435,-1.09795c0.16573,-0.44882 0.67772,-0.6849 1.1436,-0.52733c0.46588,0.1576 0.70921,0.64914 0.5435,1.09795c-0.16573,0.44882 -0.67772,0.6849 -1.1436,0.52733z" fill="#2f429d" stroke="none" stroke-width="0" stroke-linecap="butt"/></g></g><g data-paper-data="{&quot;index&quot;:null}" stroke-linecap="butt"><path d="M242.86041,171.70076c12.79196,0.102 20.05203,2.50359 20.02658,4.48071c-0.02545,1.97712 -7.30135,0.80598 -20.09331,0.70398c-3.63431,-0.02898 -8.09961,-0.84572 -10.77173,-1.12616c-6.73317,-0.70665 -9.02278,-1.44331 -9.00456,-2.85872c0.01591,-1.23646 7.05106,-1.30181 19.84302,-1.19981z" fill="#ac447e" stroke="#000000" stroke-width="3"/><path d="M227.56139,162.66338c0.04958,-3.85199 0.8779,-3.54919 4.47792,-5.67603c5.15471,-3.04534 8.66672,1.43462 8.61714,5.28661c-0.04958,3.85199 -2.34051,5.96903 -6.55725,5.93541c-4.21673,-0.03363 -6.58739,-1.69401 -6.53781,-5.546z" fill="#000000" stroke="none" stroke-width="0"/><path d="M265.23921,166.72925c-3.73267,-0.02977 -6.90403,-2.01943 -6.85782,-5.61028c0.04739,-3.68154 2.4103,-6.0302 6.23725,-5.99969c3.82695,0.03052 7.03669,1.68286 6.98931,5.36441c-0.04738,3.68155 -2.54179,6.27607 -6.36874,6.24556z" fill="#000000" stroke="none" stroke-width="0"/></g><path d="M107.43869,310.75445v-258.66667h258.66667v258.66667z" data-paper-data="{&quot;index&quot;:null}" fill="none" stroke="none" stroke-width="0" stroke-linecap="butt"/></g></g></svg>