<svg version="1.1" xmlns="http://www.w3.org/2000/svg" xmlns:xlink="http://www.w3.org/1999/xlink" width="95.86394" height="95.86394" viewBox="0,0,95.86394,95.86394"><g transform="translate(-192.06803,-132.06803)"><g data-paper-data="{&quot;isPaintingLayer&quot;:true}" fill-rule="nonzero" stroke-linejoin="miter" stroke-miterlimit="10" stroke-dasharray="" stroke-dashoffset="0" style="mix-blend-mode: normal"><g><path d="M231.9489,183.94499c0,0 2.53507,-7.33145 4.83792,-6.75989c3.89529,0.9668 4.85186,6.0059 3.67262,9.57669c-1.62827,4.93051 -6.5638,8.58492 -6.5638,8.58492c0,0 -1.62956,0.21196 -2.77204,0.0379c-0.32596,-0.04966 -1.65807,-0.50875 -2.63565,-1.38508c-1.74909,-1.56796 -3.44275,-4.25715 -3.88602,-6.80139c-0.23671,-1.3586 1.5687,-1.89654 1.80282,-1.95151c2.28492,-0.53645 5.54415,-1.30163 5.54415,-1.30163z" fill="#ff292e" stroke="#000000" stroke-width="1" stroke-linecap="round"/><path d="M226.9912,188.49843l4.59602,0.36128l-1.27959,3.82265l1.28088,4.84324l-3.21165,0.19205l-1.7075,2.95184c0,0 -2.75598,-2.7872 -4.14442,-4.19137c-1.40251,-1.41839 -2.46645,-6.38864 -1.44551,-7.61206c1.24887,-1.49656 4.16483,-4.99082 4.16483,-4.99082z" fill="#feecf7" stroke="#000000" stroke-width="1" stroke-linecap="round"/><path d="M215.01425,194.60578c-0.6424,-3.23325 1.16673,-5.55257 4.16299,-6.14788c2.99626,-0.59531 5.67721,0.8319 6.31961,4.06515c0.6424,3.23325 -0.90934,5.56515 -3.90561,6.16046c-2.99626,0.59531 -5.9346,-0.84449 -6.57699,-4.07774z" fill="#f89688" stroke="#000000" stroke-width="1" stroke-linecap="butt"/><path d="M205.36585,192.78139c-0.00238,0.00054 -0.00364,0.00079 -0.00364,0.00079l-0.56861,-0.07519c-1.04149,-0.87431 -0.88905,-2.22464 -0.42098,-3.42931c1.47249,-1.8005 4.88015,-6.94056 7.73134,-4.32027c1.34794,1.23878 1.63837,3.22195 2.4025,4.79726c1.34075,6.52252 -5.35758,4.37205 -9.1406,3.02672z" fill="#323344" stroke="#000000" stroke-width="1" stroke-linecap="butt"/><path d="M211.21063,186.89271c-0.68935,-0.18678 -0.57537,-0.9277 -0.57537,-0.9277c0.30624,-1.98139 2.72948,-6.43978 5.18539,-5.81885c2.51864,0.6368 1.64281,3.20949 3.26692,4.47613c0.76515,0.59674 2.59162,0.2505 3.5256,0.39453c0.5764,0.95746 0.79798,1.10067 0.98031,2.15128c0.32191,1.85486 -0.88344,3.25861 -2.82252,3.21252c-3.10587,-0.07383 -5.4537,-2.98859 -8.55168,-3.16163l-0.32151,0.00158c0,0 -0.44717,-0.00057 -0.68713,-0.32786z" fill="#fcdfbd" stroke="none" stroke-width="0.5" stroke-linecap="butt"/><path d="M222.61317,185.01682c0.5764,0.95746 0.79798,1.10067 0.98032,2.15129c0.3219,1.85486 -0.88344,3.25861 -2.82252,3.21252c-2.39868,-0.05702 -4.34522,-1.80853 -6.53438,-2.6829c0.7248,-0.26309 1.39027,-0.50116 1.90718,-0.60314c0.56445,-0.11137 1.05324,0.04484 1.52889,0.26452c0.55708,0.51588 1.31739,0.79855 2.11263,0.73553c0.32338,-0.0047 0.67153,-0.08354 1.05628,-0.27513c0.10824,-0.05391 0.21443,-0.12615 0.31704,-0.21381c0.82592,-0.57399 1.30288,-1.57222 1.17847,-2.6171c0.09846,0.00607 0.19099,0.01512 0.27611,0.02825z" fill="#f89688" stroke="none" stroke-width="0.5" stroke-linecap="butt"/><path d="M211.21063,186.89271c-0.68935,-0.18678 -0.57537,-0.9277 -0.57537,-0.9277c0.30624,-1.98139 2.72948,-6.43978 5.18538,-5.81885c2.51863,0.6368 1.64281,3.20948 3.26692,4.47612c0.76515,0.59673 2.59161,0.2505 3.5256,0.39454c0.5764,0.95746 0.79798,1.10067 0.98032,2.15129c0.3219,1.85486 -0.88344,3.25861 -2.82252,3.21252c-3.10586,-0.07383 -5.4537,-2.98859 -8.55168,-3.16163l-0.32151,0.00156c0,0 -0.44717,-0.00057 -0.68712,-0.32785z" fill="none" stroke="#000000" stroke-width="1" stroke-linecap="butt"/><path d="M211.58749,184.61192c0.10865,0.54683 -0.43818,0.65548 -0.43818,0.65548l-0.08413,0.01671c-3.39106,0.67375 -5.52473,3.49468 -5.21476,7.00168c0,0 0.01503,0.17538 -0.07036,0.3375l0.11264,0.2556c0,0 -0.30067,0.44977 -0.75268,0.16702c-0.07293,0.00396 -0.14586,0.00792 -0.21879,0.01187c0,0 -0.31495,0.0171 -0.48392,-0.21132c-0.32337,-0.07518 -0.39565,-0.43898 -0.39565,-0.43898l-0.02597,-0.15279c-0.36237,-5.04222 1.76423,-7.58203 6.56367,-8.5356c0,0 0.54683,-0.10865 0.65548,0.43818c0.0025,0.01258 0.00466,0.02494 0.00648,0.03706c0.14388,0.04579 0.29455,0.15761 0.3462,0.41757z" fill="#455d83" stroke="none" stroke-width="0.5" stroke-linecap="butt"/><path d="M205.8208,191.56274c-0.52403,-0.18232 -1.08558,-0.24322 -1.60666,-0.15739c-0.07653,-0.02838 -0.15586,-0.05017 -0.23719,-0.06478c-0.01787,-1.6488 0.26761,-3.00093 0.86421,-4.09514c0.53162,0.51918 1.05058,1.05827 1.5683,1.58972c-0.37553,0.81914 -0.58141,1.74024 -0.58866,2.72759z" fill="#85afb1" stroke="none" stroke-width="0.5" stroke-linecap="butt"/><path d="M206.50509,185.34939c0.43728,0.53749 1.00408,1.04858 1.48925,1.38828c-0.3816,0.32552 -0.71918,0.69386 -1.00768,1.09883c-0.49978,-0.51064 -0.99975,-1.02477 -1.51173,-1.52237c0.29825,-0.3562 0.6415,-0.67707 1.03017,-0.96474z" fill="#85afb1" stroke="none" stroke-width="0.5" stroke-linecap="butt"/><path d="M211.58749,184.61193c0.10865,0.54683 -0.43818,0.65548 -0.43818,0.65548l-0.08413,0.01671c-3.39106,0.67375 -5.52473,3.49468 -5.21477,7.00168c0,0 0.01503,0.17538 -0.07036,0.3375l0.11263,0.25561c0,0 -0.30066,0.44976 -0.75268,0.16702c-0.07293,0.00396 -0.14586,0.00792 -0.21879,0.01187c0,0 -0.31496,0.01709 -0.48392,-0.21132c-0.32338,-0.07517 -0.39566,-0.43898 -0.39566,-0.43898l-0.02597,-0.15279c-0.36237,-5.04222 1.76422,-7.58202 6.56367,-8.5356c0,0 0.54683,-0.10865 0.65548,0.43818c0.0025,0.01257 0.00466,0.02494 0.00648,0.03707c0.14388,0.04579 0.29455,0.15761 0.3462,0.41757z" fill="none" stroke="#000000" stroke-width="1" stroke-linecap="butt"/><path d="M222.14415,192.61276c0,0 3.09932,-0.55991 3.92614,1.09606c0.6634,1.32866 -0.37357,2.63122 -0.85627,3.83297c-1.14249,2.8444 -2.77147,7.5807 -6.63519,5.75391c-0.82734,-0.48872 -1.47798,-1.03842 -2.20176,-1.6651l-0.09478,-0.06197c-0.96399,0.72962 -2.00104,0.98167 -2.73913,0.5094c-0.7814,-0.49998 -1.62055,-1.69708 -2.36893,-2.5002c-1.40662,0.51071 -2.94118,1.06533 -4.27865,0.38876c-1.28627,-0.65066 -1.23053,-1.75747 -1.47216,-2.97365c-0.67683,-3.40655 0.87564,-6.59731 3.67215,-8.60868c1.34106,-1.1994 2.6343,-2.93169 4.4983,-3.41385c1.31093,-0.33909 2.27372,0.27962 2.9881,1.09414c0.82422,0.93978 1.27904,2.19814 0.92493,3.49123c1.25591,-0.03394 2.57611,0.43351 3.55437,1.15237c0.95793,0.70392 0.70601,1.16371 1.08287,1.90461z" fill="#fde0be" stroke="none" stroke-width="0.5" stroke-linecap="butt"/><path d="M226.07029,193.70883c0.66341,1.32868 -0.37356,2.63121 -0.85627,3.83296c-1.1425,2.8444 -2.77146,7.58071 -6.63519,5.75391c-0.82734,-0.48872 -1.47798,-1.03842 -2.20175,-1.6651l-0.09478,-0.06197c-0.96399,0.72962 -2.00104,0.98167 -2.73913,0.5094c-0.7814,-0.49998 -1.62054,-1.69709 -2.36893,-2.50021c-1.40662,0.51071 -2.94117,1.06533 -4.27864,0.38875c-1.28627,-0.65067 -1.23053,-1.75747 -1.47216,-2.97365c-0.22643,-1.13962 -0.20336,-2.25509 0.03232,-3.31033c0.10383,0.16824 0.18252,0.33942 0.20651,0.52697l0.00746,0.00552c0.13712,1.14329 0.67656,1.96834 1.43097,2.43c0.60256,0.42611 1.37213,0.61357 2.15311,0.4584c0.28259,-0.05615 0.54664,-0.15317 0.78724,-0.2837c0.26807,-0.09931 0.53714,-0.22824 0.80359,-0.38763c1.15877,-0.69319 2.69676,-2.03744 4.07986,-3.64144c-0.14963,0.93895 -0.2438,1.862 -0.28229,2.60695c-0.07788,0.36124 -0.08477,0.74397 -0.00818,1.1295c0.04563,0.22965 0.11826,0.44706 0.21392,0.64959c0.3098,1.55927 1.63076,1.85701 2.84513,1.57594c0.07261,-0.0086 0.14543,-0.0201 0.21836,-0.03459c0.60158,-0.11952 1.11919,-0.42433 1.50528,-0.84328c0.12958,-0.12177 0.238,-0.24945 0.31968,-0.37965c0.0921,-0.14682 0.18779,-0.30964 0.28576,-0.4857c0.22684,0.07946 -0.47332,2.28828 -0.23385,2.30862c0.70856,0.06022 2.38663,-2.31636 3.03558,-2.94443c0.51996,-0.50323 0.81152,-1.01941 0.92884,-1.52194c0.20356,-0.49153 0.26889,-1.04661 0.15743,-1.60759c-0.05042,-0.25377 -0.13381,-0.4926 -0.24482,-0.71292c0.90969,0.04941 1.97072,0.30792 2.40497,1.17762z" fill="#f89688" stroke="none" stroke-width="0.5" stroke-linecap="butt"/><path d="M222.14415,192.61276c0,0 3.09932,-0.55991 3.92614,1.09606c0.66341,1.32868 -0.37356,2.63121 -0.85627,3.83296c-1.1425,2.8444 -2.77146,7.58071 -6.63519,5.75391c-0.82734,-0.48872 -1.47798,-1.03842 -2.20175,-1.6651l-0.09478,-0.06197c-0.96399,0.72962 -2.00104,0.98167 -2.73913,0.5094c-0.7814,-0.49998 -1.62054,-1.69709 -2.36893,-2.50021c-1.40662,0.51071 -2.94117,1.06533 -4.27864,0.38875c-1.28627,-0.65067 -1.23053,-1.75747 -1.47216,-2.97365c-0.67683,-3.40655 0.87563,-6.59731 3.67213,-8.60868c1.34106,-1.1994 2.6343,-2.93169 4.49831,-3.41385c1.31093,-0.33909 2.27372,0.27962 2.98808,1.09415c0.82422,0.93978 1.27904,2.19814 0.92493,3.49123c1.25592,-0.03394 2.57611,0.43351 3.55437,1.15237c0.95794,0.70392 0.70601,1.16371 1.08287,1.90461z" fill="none" stroke="#000000" stroke-width="1" stroke-linecap="butt"/><path d="M213.30303,194.21475l4.51031,-4.38244" fill="none" stroke="#000000" stroke-width="1" stroke-linecap="round"/><path d="M219.11615,197.15239l2.7899,-4.26799" fill="none" stroke="#000000" stroke-width="1" stroke-linecap="round"/><path d="M196.17725,186.05588c-0.92775,-4.6695 1.61802,-9.45992 6.28753,-10.38767c2.4946,-0.49564 4.16085,0.3089 5.92467,1.6749c0.59425,0.46022 1.55217,1.39423 2.18854,2.457c1.01041,1.68743 0.97176,3.57191 0.91128,3.87322c-0.04816,0.23993 -3.21211,-0.86328 -5.63779,1.96932c-2.4742,2.88929 -2.24777,7.20165 -2.24777,7.20165c0,0 -2.22816,0.02965 -3.85866,-0.96401c-1.81689,-1.10725 -3.07885,-3.36344 -3.56781,-5.82444z" fill="#465e85" stroke="#000000" stroke-width="0" stroke-linecap="butt"/><path d="M196.17725,186.05588c-0.11649,-0.58632 -0.17821,-1.17454 -0.18786,-1.75679c0.06179,0.07182 0.13057,0.13691 0.20504,0.19444l0.00827,0.01992l0.03938,0.0153c0.19319,0.1366 0.42073,0.22414 0.6621,0.2489l0.23721,0.02996l0.14172,-0.01699l0.13963,0.05771l0.08713,0.0129l0.07676,0.04318l0.09727,0.02666l0.01027,0.01182l0.03999,0.00195l0.03745,0.01027l0.32019,0.00722l0.31988,0.01563l0.0381,-0.00757l0.04002,0.00091l0.01108,-0.01106l0.02865,-0.00569l0.03268,0.01838l0.09727,0.02666l0.01027,0.01182l0.03999,0.00195l0.03745,0.01027l0.32019,0.00722l0.31988,0.01563l0.0381,-0.00757l0.04002,0.00091l0.01108,-0.01106l7.05773,-1.40226l0.03732,0.00084l0.31988,0.01563l0.0381,-0.00757l0.04002,0.00091l0.01108,-0.01106l0.21369,-0.04246l0.02474,0.00961l0.5382,0.06797l0.17491,-0.02098l0.30468,0.00687l0.31988,0.01563l0.0381,-0.00757l0.04002,0.00091l0.01108,-0.01106l0.46607,-0.0926l0.02474,0.00961l0.17082,0.02158l0.18671,0.05117l0.01027,0.01182l0.03999,0.00195l0.03745,0.01027l0.26785,0.00605c-1.13651,0.06053 -2.6769,0.43565 -3.99824,1.97867c-2.4742,2.88929 -2.24777,7.20165 -2.24777,7.20165c0,0 -2.22816,0.02965 -3.85866,-0.96401c-1.81689,-1.10725 -3.07885,-3.36344 -3.56781,-5.82444z" fill="#323344" stroke="#000000" stroke-width="0" stroke-linecap="butt"/><path d="M199.92294,180.48873l0.00656,0.01579l-0.0238,-0.0072z" fill="#323344" stroke="#000000" stroke-width="0" stroke-linecap="butt"/><path d="M196.17725,186.05588c-0.92776,-4.66951 1.61803,-9.45992 6.28753,-10.38767c2.4946,-0.49564 4.16084,0.3089 5.92466,1.6749c0.59425,0.46022 1.55216,1.39423 2.18854,2.457c1.01041,1.68742 0.97177,3.57191 0.91129,3.87322c-0.04816,0.23993 -3.2121,-0.86328 -5.63778,1.96934c-2.4742,2.88929 -2.24777,7.20165 -2.24777,7.20165c0,0 -2.22817,0.02966 -3.85867,-0.964c-1.81689,-1.10725 -3.07885,-3.36344 -3.56781,-5.82443z" fill="none" stroke="#000000" stroke-width="1" stroke-linecap="butt"/><path d="M201.86349,192.22812c0,0 -0.99242,-5.82069 1.61626,-8.41746c2.75832,-2.74574 7.6985,-1.47856 7.6985,-1.47856" fill="none" stroke="#000000" stroke-width="1" stroke-linecap="round"/><path d="M198.11502,190.08706c0,0 0.29834,-5.57738 2.54963,-8.96764c2.0439,-3.07794 7.40749,-3.41715 7.40749,-3.41715" fill="none" stroke="#000000" stroke-width="1" stroke-linecap="round"/><path d="M196.15328,185.05498c0,0 2.01994,-4.39583 3.35029,-6.0625c1.20032,-1.50378 4.28191,-3.49922 4.28191,-3.49922" fill="none" stroke="#000000" stroke-width="1" stroke-linecap="round"/><path d="M203.21175,190.21127c0,0 -2.6612,-0.05988 -3.74603,-0.47782c-1.06112,-0.40882 -2.69342,-2.00307 -2.69342,-2.00307" fill="none" stroke="#000000" stroke-width="1" stroke-linecap="round"/><path d="M204.0207,189.00115c0,0 -3.18096,-0.89501 -4.5761,-1.59773c-1.24345,-0.62631 -3.39216,-2.41585 -3.39216,-2.41585" fill="none" stroke="#000000" stroke-width="1" stroke-linecap="round"/><path d="M204.52768,187.15143c0,0 -3.23271,-1.26545 -4.43752,-2.37178c-1.31671,-1.20909 -3.15692,-4.6019 -3.15692,-4.6019" fill="none" stroke="#000000" stroke-width="1" stroke-linecap="round"/><path d="M198.68599,177.55584c0,0 3.52691,3.41578 4.71195,4.88733c0.98256,1.22014 1.9053,3.32989 1.9053,3.32989" fill="none" stroke="#000000" stroke-width="1" stroke-linecap="round"/><path d="M201.76641,175.89442c0,0 2.61629,1.98086 3.52736,3.27731c0.95616,1.36059 2.08089,4.70314 2.08089,4.70314" fill="none" stroke="#000000" stroke-width="1" stroke-linecap="round"/><path d="M207.29938,176.89388c0,0 1.11318,1.87307 1.47922,2.9263c0.38191,1.09892 0.76668,3.53596 0.76668,3.53596" fill="none" stroke="#000000" stroke-width="1" stroke-linecap="round"/></g><g><g stroke="#000000" stroke-width="1"><path d="M252.69964,182.73523c0,-1.53387 0.31547,-4.99917 1.32734,-5.99764c0.99434,-0.98116 9.68564,4.98037 9.68564,5.99764c0,3.04115 -2.41339,5.09091 -5.45454,5.09091c-3.04115,0 -5.55844,-2.04976 -5.55844,-5.09091z" fill="#d90250" stroke-linecap="butt"/><path d="M262.31004,174.47548c0,0 -1.14583,3.18296 -0.17478,3.99391c1.50924,1.2604 5.88907,0.83726 5.88907,0.83726c0,0 -2.44714,1.85716 -2.92096,3.08046c-0.47852,1.23545 0.06381,4.29616 0.06381,4.29616c0,0 -2.42769,-4.05732 -4.38107,-3.99147c-0.88372,0.02979 -1.07348,2.01744 -1.07348,2.01744c0,0 -1.39632,-3.38831 -2.27085,-4.22562c-0.72495,-0.6941 -2.61226,-0.4497 -2.61226,-0.4497c0,0 -0.01778,-1.28272 -0.46809,-3.11848c-0.25303,-1.0315 -1.60984,-2.90749 -1.60984,-2.90749c0,0 3.58372,1.21425 5.2469,1.2956c1.50767,0.07374 4.31154,-0.82807 4.31154,-0.82807z" fill="#fdebf6" stroke-linecap="round"/></g><g stroke="#000000" stroke-linecap="round"><path d="M216.12821,198.89106c0,0 1.80667,-6.93923 2.11723,-8.13208c0.08761,-0.3365 0.8114,-0.59868 1.6187,-0.53784c0.73772,0.0556 2.39749,0.22758 4.53715,0.38695c9.71077,0.72329 30.32432,2.20505 30.32432,2.20505l0.31169,15.16883z" fill="#4fa6ed" stroke-width="0"/><path d="M254.72561,192.81314l0.31169,15.16883l-13.5994,-3.17743c-0.26487,-1.39792 -1.01829,-6.75002 -1.75514,-7.1849c-0.49515,-0.86653 -3.05372,-0.1427 -4.05988,0.10555c-2.23072,0.55039 -6.69201,1.45215 -8.14126,3.81854l-3.88452,-0.9076c1.16177,-0.89254 2.14088,-2.02634 2.77165,-3.11327c0.58228,-1.00338 1.88124,-3.31432 1.24133,-4.27418l-2.64347,-2.59855c9.92162,0.73703 29.75899,2.163 29.75899,2.163z" fill="#2e67e5" stroke-width="0"/><path d="M216.12821,198.89106c0,0 1.80667,-6.93923 2.11723,-8.13208c0.08761,-0.3365 0.8114,-0.59868 1.6187,-0.53784c0.73772,0.0556 2.39749,0.22758 4.53715,0.38695c9.71077,0.72329 30.32432,2.20505 30.32432,2.20505l0.31169,15.16883z" fill="none" stroke-width="1"/></g><path d="M227.76458,185.38458l6.54545,-4.83117l-0.98701,-5.81818c0,0 6.76544,-2.59679 8.81376,-3.27347c0.98881,-0.32666 2.82261,-0.57069 2.82261,-0.57069c0,0 4.65328,1.37707 7.9239,4.74913c2.43302,2.50849 4.23706,6.9441 4.76055,8.80674c0.25094,0.89288 -0.58913,3.18066 -1.03263,4.99336c-0.35143,1.43636 -0.20257,2.40044 -0.83594,3.36214c-1.46874,2.23015 -3.4912,2.03667 -3.4912,2.03667c0,0 -1.43077,0.13353 -2.04456,-0.037c-0.79784,-0.22166 -2.33679,-1.18029 -2.33679,-1.18029c0,0 -13.64238,-1.26786 -16.57367,-2.39815c-3.35867,-1.29508 -3.56446,-5.83911 -3.56446,-5.83911z" fill="#ff292e" stroke="#000000" stroke-width="0" stroke-linecap="round"/><path d="M257.64384,184.44694c0.25094,0.89288 -0.58913,3.18066 -1.03263,4.99336c-0.35143,1.43636 -0.20257,2.40044 -0.83594,3.36214c-1.46874,2.23015 -3.4912,2.03667 -3.4912,2.03667c0,0 -1.43077,0.13353 -2.04456,-0.037c-0.79784,-0.22166 -2.33679,-1.18029 -2.33679,-1.18029c0,0 -3.76343,-0.34976 -7.7617,-0.84564c1.69769,-0.98854 3.27948,-2.90617 4.04483,-3.64811c3.86602,-3.74775 2.12901,-6.37984 2.56099,-7.4144c0.05251,-0.12577 0.03472,-0.2791 0.16875,-0.35507c0.21452,-0.12158 1.92597,2.50311 1.87438,2.85476c-0.32287,2.20085 -2.3182,5.41094 0.17757,7.20979c0.12003,0.08651 2.27738,1.13129 2.65555,0.69276c0.18027,-0.20904 1.97885,-1.29996 2.3882,-2.45199c1.20095,-3.37989 1.50946,-9.2618 1.34812,-10.55705c1.14812,2.05457 1.96088,4.18878 2.28444,5.34005z" fill="#d90251" stroke="#000000" stroke-width="0" stroke-linecap="butt"/><g><path d="M237.57359,210.93085c0,0 -2.38284,1.55187 -3.22615,1.46377c-0.63812,-0.06667 -1.46951,-1.1585 -2.00449,-1.9701c-0.32234,-0.48902 -0.55342,-0.58603 -0.61147,-0.15933c-0.12733,0.93581 -0.45529,2.52782 -1.2515,3.15301c-1.20887,0.94921 -6.97012,0.31073 -7.286,0.45007c-3.44544,1.5199 -7.3625,2.97426 -10.62565,3.47012c-1.0431,0.15851 -2.46458,-1.5188 -2.46458,-1.5188c0,0 -3.66397,1.40371 -5.85437,-1.63326c-0.80668,-1.11845 -1.039,-3.61198 -1.10218,-4.65492c-0.00803,-0.13245 -0.09419,-0.36737 -0.00802,-0.5478c0.10519,-0.22028 2.18212,-2.03821 2.95141,-2.10809c4.44933,-0.40417 29.66226,-0.29206 29.66226,-0.29206c0,0 1.34573,0.71151 1.55548,1.42748c0.25653,0.87565 0.26524,2.91992 0.26524,2.91992z" fill="#f38285" stroke="#000000" stroke-width="0" stroke-linecap="round"/><path d="M234.34743,212.39464c-0.63813,-0.06667 -1.46952,-1.1585 -2.00449,-1.9701c-0.32234,-0.48902 -0.55342,-0.58603 -0.61147,-0.15933c-0.12733,0.93581 -0.45529,2.52782 -1.2515,3.15301c-1.20887,0.94921 -6.97011,0.31072 -7.28599,0.45007c-1.99601,0.88051 -4.1503,1.73901 -6.24404,2.40191c0.28435,-0.92786 0.43738,-1.91314 0.43738,-2.93416c0,-2.58013 -0.97714,-4.93203 -2.58155,-6.70583c8.90797,-0.10028 20.94709,-0.04674 20.94709,-0.04674c0,0 1.34573,0.71151 1.55548,1.42748c0.25653,0.87565 0.26524,2.91992 0.26524,2.91992c0,0 -2.38284,1.55188 -3.22615,1.46377z" fill="#e96698" stroke="#000000" stroke-width="0" stroke-linecap="round"/><path d="M237.57359,210.93085c0,0 -2.38284,1.55187 -3.22615,1.46377c-0.63812,-0.06667 -1.46951,-1.1585 -2.00449,-1.9701c-0.32234,-0.48902 -0.55342,-0.58603 -0.61147,-0.15933c-0.12733,0.93581 -0.45529,2.52782 -1.2515,3.15301c-1.20887,0.94921 -6.97012,0.31073 -7.286,0.45007c-3.44544,1.5199 -7.3625,2.97426 -10.62565,3.47012c-1.0431,0.15851 -2.46458,-1.5188 -2.46458,-1.5188c0,0 -3.66397,1.40371 -5.85437,-1.63326c-0.80668,-1.11845 -1.039,-3.61198 -1.10218,-4.65492c-0.00803,-0.13245 -0.09419,-0.36737 -0.00802,-0.5478c0.10519,-0.22028 2.18212,-2.03821 2.95141,-2.10809c4.44933,-0.40417 29.66226,-0.29206 29.66226,-0.29206c0,0 1.34573,0.71151 1.55548,1.42748c0.25653,0.87565 0.26524,2.91992 0.26524,2.91992z" fill="none" stroke="#000000" stroke-width="1" stroke-linecap="round"/><path d="M215.92117,200.31568l0.61539,-3.79487l9.12821,-2.25641l1.97306,4.29813c0,0 1.2416,-1.35972 2.96496,-2.00159c1.32804,-0.49462 3.15044,0.97866 3.62452,1.20893c1.27221,0.61793 2.20669,1.7253 2.20669,1.7253l0.82052,7.17949c0,0 -1.99578,1.78611 -3.90913,2.20274c-2.65957,0.57912 -10.56023,0.94795 -10.56023,0.94795c0,0 -2.61291,1.93389 -6.04966,2.77263c-3.10767,0.75842 -6.98247,0.47178 -8.51769,-0.24516c-0.45383,-0.21193 -1.96413,-1.18658 -2.55081,-2.44496c-0.76821,-1.64774 -0.46587,-3.78196 0.69282,-5.32731c1.05145,-1.40232 3.26334,-1.28908 5.23389,-1.97618c2.31042,-0.80561 4.32748,-2.28868 4.32748,-2.28868z" fill="#f27056" stroke="#000000" stroke-width="0" stroke-linecap="round"/><path d="M215.92117,200.31568l0.61539,-3.79487l9.12821,-2.25641l0.52515,1.14398c-0.21229,0.94728 -0.43449,3.45915 -0.43449,3.77726c0,0.69036 0.55965,1.25 1.25,1.25c0.65287,0 0.81891,-1.21481 0.82142,-1.25c0.02215,-0.31008 0.58335,-0.83859 0.74433,-1.45979c0.51823,-0.40309 1.22172,-0.86327 2.03161,-1.16491c1.32804,-0.49462 3.15044,0.97866 3.62452,1.20893c0.46722,0.22694 0.88889,0.51988 1.23545,0.79975c-1.55191,0.97604 -3.41977,3.23627 -4.89524,3.92193c-1.74905,0.8128 -3.65663,0.39984 -5.48096,1.09979c-1.61091,0.61807 -6.72237,3.833 -9.32747,6.35695c-0.83742,0.34883 -1.44441,1.13999 -1.5292,2.08171c-0.01901,0.0793 -0.02907,0.1551 -0.02963,0.22707c-0.00084,0.10856 0.0126,0.21126 0.03835,0.30889c0.01747,0.14173 0.04679,0.27978 0.08695,0.41314c-2.47819,0.20837 -4.95384,-0.08741 -6.10775,-0.62628c-0.45383,-0.21193 -1.96413,-1.18658 -2.55081,-2.44496c-0.76821,-1.64774 -0.46587,-3.78196 0.69282,-5.32731c1.05145,-1.40232 3.26334,-1.28908 5.23389,-1.97618c2.31042,-0.80561 4.32748,-2.28868 4.32748,-2.28868z" fill="#f79d58" stroke="#000000" stroke-width="0" stroke-linecap="round"/><path d="M227.43399,199.36422c0,0 2.75362,-2.96429 4.03571,-2.96429c1.28209,0 3.96429,2.25 3.96429,2.25c0,0 -1.96791,2.60714 -3.25,2.60714c-1.15461,0 -4.75,-1.89285 -4.75,-1.89285z" fill="#000000" stroke="none" stroke-width="0.5" stroke-linecap="butt"/><path d="M215.92117,200.31568l0.61538,-3.79487l9.12821,-2.25641l1.97305,4.29812c0,0 1.24161,-1.35972 2.96497,-2.00158c1.32803,-0.49462 3.15044,0.97866 3.62452,1.20893c1.27221,0.61793 2.20669,1.7253 2.20669,1.7253l0.82051,7.17949c0,0 -1.99578,1.78612 -3.90912,2.20275c-2.65957,0.57912 -10.56024,0.94795 -10.56024,0.94795c0,0 -2.61291,1.93389 -6.04966,2.77262c-3.10767,0.75842 -6.98247,0.47178 -8.51769,-0.24515c-0.45383,-0.21194 -1.96412,-1.18658 -2.55081,-2.44496c-0.76821,-1.64774 -0.46587,-3.78196 0.69282,-5.32731c1.05144,-1.40232 3.26334,-1.28908 5.23388,-1.97618c2.31042,-0.8056 4.32748,-2.28868 4.32748,-2.28868z" fill="none" stroke="#000000" stroke-width="1" stroke-linecap="round"/><path d="M223.36332,201.30195c-0.12621,0.87821 -1.84164,1.35722 -3.61418,1.61292c0.68482,0.40756 1.18157,0.74011 1.18157,0.95413c0,0.66506 -2.47803,0.83807 -5.02232,0.8283c0.96959,1.23472 1.76854,2.61519 0.21631,2.61519c-0.54558,0 -1.66896,-1.28019 -2.5092,-2.66695c-1.06493,-0.04195 -1.99226,-0.10183 -2.5597,-0.15111c-0.06617,0.0191 -0.1361,0.02934 -0.20842,0.02934c-0.1356,0 -0.26279,-0.03599 -0.37256,-0.09893c-0.22552,-0.12933 -0.37744,-0.37246 -0.37744,-0.65107c0,-0.3862 0.2919,-0.70422 0.66712,-0.74547c0.52304,-0.36552 1.17933,-0.47106 1.89524,-0.45146c-0.1632,-0.60498 -0.13687,-1.08001 0.1936,-1.26884c0.42543,-0.2431 1.20003,-0.2756 2.13842,-0.24049c-0.74581,-0.74802 -1.49359,-1.73662 -0.86851,-2.33205c0.33684,-0.32086 1.59157,-0.68368 3.06231,-1.00616c0.29091,-0.16426 0.76805,-0.25939 1.33229,-0.2713c2.1021,-0.39899 4.2231,-0.67739 4.56763,-0.6247c0.39495,0.06039 0.75,0.16659 0.75,0.75c0,0.60096 -0.51993,0.99518 -1.28005,1.25237c0.60783,0.59755 0.96001,1.40787 0.8079,2.4663zM221.44656,200.82154c0.34602,-0.14426 -0.4831,-0.59613 -0.59642,-0.95347c-0.07844,-0.24738 -0.23301,-0.46348 -0.42963,-0.64314c-1.66201,0.14292 -3.37472,0.04453 -3.71032,0.06073c-0.23669,0.01143 -0.92691,0.23863 -0.92525,0.30523c0.01305,0.52411 0.51392,1.069 1.19848,1.59177c1.59584,0.09293 3.28677,0.12932 4.46314,-0.36112zM215.07982,202.90572c-0.40419,-0.19235 -0.76074,-0.37098 -0.72804,-0.12847c0.24306,0.04191 0.48653,0.08618 0.72804,0.12847z" fill="#efdee9" stroke="none" stroke-width="0.5" stroke-linecap="butt"/><path d="M223.36333,201.30195c-0.12622,0.87821 -1.84164,1.35722 -3.61418,1.61292c0.68482,0.40756 1.18156,0.7401 1.18156,0.95413c0,0.66506 -2.47803,0.83808 -5.02232,0.8283c0.96959,1.23471 1.76854,2.61519 0.2163,2.61519c-0.54559,0 -1.66895,-1.28018 -2.5092,-2.66695c-1.06493,-0.04195 -1.99226,-0.10183 -2.5597,-0.15112c-0.06617,0.0191 -0.13609,0.02934 -0.20841,0.02934c-0.1356,0 -0.2628,-0.03598 -0.37256,-0.09893c-0.22552,-0.12932 -0.37744,-0.37246 -0.37744,-0.65107c0,-0.3862 0.2919,-0.70423 0.66711,-0.74547c0.52305,-0.36552 1.17934,-0.47106 1.89524,-0.45146c-0.1632,-0.60498 -0.13687,-1.08 0.1936,-1.26884c0.42543,-0.2431 1.20003,-0.2756 2.13842,-0.24049c-0.74581,-0.74802 -1.49359,-1.73663 -0.86851,-2.33205c0.33684,-0.32086 1.59158,-0.68367 3.06231,-1.00616c0.29091,-0.16426 0.76805,-0.25939 1.33228,-0.2713c2.10209,-0.39898 4.2231,-0.67739 4.56763,-0.62471c0.39496,0.0604 0.75,0.16659 0.75,0.75c0,0.60096 -0.51993,0.99518 -1.28004,1.25237c0.60783,0.59755 0.96001,1.40787 0.8079,2.4663zM221.44657,200.82154c0.34602,-0.14425 -0.48311,-0.59613 -0.59642,-0.95348c-0.07845,-0.24737 -0.233,-0.46348 -0.42963,-0.64313c-1.66201,0.14292 -3.37472,0.04452 -3.71032,0.06072c-0.23669,0.01142 -0.92692,0.23863 -0.92525,0.30523c0.01304,0.52411 0.51392,1.069 1.19848,1.59177c1.59584,0.09294 3.28677,0.12932 4.46315,-0.36112zM215.07983,202.90572c-0.40419,-0.19234 -0.76074,-0.37098 -0.72804,-0.12847c0.24307,0.04191 0.48654,0.08618 0.72804,0.12847z" fill="none" stroke="#000000" stroke-width="1" stroke-linecap="butt"/></g><g><g stroke="#000000"><path d="M238.82951,205.88038c0,0 1.5573,-1.68619 11.89481,-1.21113c10.08872,0.46363 16.62467,2.25009 16.62467,2.25009l-0.10389,6.7013c0,0 -1.37853,1.51311 -2.1519,2.16535c-0.63742,0.53758 -2.15979,1.47102 -2.15979,1.47102l-1.24676,-0.98702l-0.62337,2.02598c0,0 -4.02908,1.95244 -6.2997,2.31968c-2.98677,0.48307 -6.94706,0.32967 -6.94706,0.32967l-1.35065,-1.55844l-0.98701,1.4026c0,0 -7.0457,-1.28854 -8.11763,-6.01985c-1.06614,-4.70571 1.46828,-8.88924 1.46828,-8.88924z" fill="#f38285" stroke-width="0" stroke-linecap="round"/><path d="M267.34899,206.91934l-0.10389,6.7013c0,0 -1.37853,1.51311 -2.1519,2.16535c-0.63742,0.53758 -2.15979,1.47102 -2.15979,1.47102l-1.24676,-0.98702l-0.62337,2.02598c0,0 -4.02908,1.95244 -6.2997,2.31968c-1.14498,0.18518 -2.43301,0.27684 -3.58616,0.31945c4.47623,-2.95709 8.80818,-4.33279 9.46105,-10.57623c0.1423,-1.36082 0.32603,-3.34162 -0.29529,-4.78476c4.42361,0.63946 7.00581,1.34525 7.00581,1.34525z" fill="#e96698" stroke-width="0" stroke-linecap="butt"/><path d="M238.82951,205.88038c0,0 1.5573,-1.68619 11.89481,-1.21113c10.08872,0.46363 16.62467,2.25009 16.62467,2.25009l-0.10389,6.7013c0,0 -1.37853,1.51311 -2.1519,2.16535c-0.63742,0.53758 -2.15979,1.47102 -2.15979,1.47102l-1.24676,-0.98702l-0.62337,2.02598c0,0 -4.02908,1.95244 -6.2997,2.31968c-2.98677,0.48307 -6.94706,0.32967 -6.94706,0.32967l-1.35065,-1.55844l-0.98701,1.4026c0,0 -7.0457,-1.28854 -8.11763,-6.01985c-1.06614,-4.70571 1.46828,-8.88924 1.46828,-8.88924z" fill="none" stroke-width="1" stroke-linecap="round"/></g><path d="M241.02665,201.59831c0,0 -0.16113,-1.39132 0.83177,-2.4497c0.83775,-0.89299 2.76154,-1.45452 3.62241,-1.69853c2.38877,-0.67707 5.54691,-0.99258 7.61229,-0.93073c1.04307,0.03123 1.7958,1.00507 2.22024,1.74876c0.26481,0.464 1.47051,-1.05415 2.4616,-1.18214c0.51031,-0.06591 1.241,1.39616 1.29032,1.60632c0.27224,1.16 -0.46485,3.6929 -0.46485,3.6929c0,0 0.55816,0.68997 1.86673,1.27423c1.03935,0.46406 2.76995,0.7404 3.51636,1.41464c1.50659,1.3609 1.82454,4.21388 1.60024,5.17225c-0.24267,1.03685 -3.9622,4.09279 -8.88811,5.69858c-4.94282,1.6113 -11.0967,1.76786 -14.05848,0.12839c-4.16169,-2.30368 -1.99875,-5.63074 -3.73745,-8.31564c-1.08094,-1.66919 -1.81499,-3.6801 -2.00342,-6.10256c-0.17057,-2.19284 1.96643,-1.49939 1.96643,-1.49939l2.16393,1.44263z" fill="#000000" stroke="#000000" stroke-width="0" stroke-linecap="round"/><path d="M241.85842,199.14863c0.83775,-0.893 2.76153,-1.45453 3.62241,-1.69853c2.38877,-0.67707 5.54691,-0.99258 7.61229,-0.93073c1.04307,0.03123 1.7958,1.00507 2.22024,1.74876c0.12484,0.21875 0.32768,0.06251 0.74971,-0.2465c0.24134,1.38489 1.33505,3.38885 1.76753,3.8773c0.27689,0.31272 0.59618,0.53046 0.94266,0.66744c0.25423,0.24382 0.79832,0.6932 1.69391,1.09308c1.03934,0.46406 2.76994,0.7404 3.51636,1.41464c1.50659,1.3609 1.82454,4.21388 1.60024,5.17225c-0.24267,1.03686 -3.9622,4.0928 -8.88811,5.69858c-4.94281,1.61129 -11.09669,1.76786 -14.05848,0.12839c-4.1617,-2.30368 -1.99875,-5.63074 -3.73745,-8.31564c-0.39041,-0.60287 -0.73557,-1.25031 -1.02611,-1.94562c1.44896,-0.35535 2.86577,-1.1564 3.48748,-1.91535c1.02413,-1.2502 0.74361,-2.73538 -0.06577,-3.8863c0.12523,-0.28958 0.30525,-0.5869 0.56311,-0.86176z" fill="#f27056" stroke="#000000" stroke-width="0" stroke-linecap="round"/><path d="M241.85842,199.14863c0.83775,-0.893 2.76153,-1.45453 3.62241,-1.69853c1.93411,-0.5482 4.3726,-0.85938 6.32706,-0.92514c-0.81693,1.80489 -0.30703,5.20341 0.53947,7.30698c0.42385,1.05329 2.5756,1.46263 4.50623,2.2612c1.73506,0.71768 3.29154,1.87585 3.25475,1.96104c-2.24437,5.19674 -10.33761,4.35496 -13.11812,7.14551c-0.54778,0.44603 -0.90301,1.11946 -0.92179,1.8764c-1.35367,-0.17705 -2.53773,-0.50819 -3.43126,-1.00279c-4.1617,-2.30368 -1.99875,-5.63074 -3.73745,-8.31564c-0.39041,-0.60287 -0.73557,-1.25031 -1.02611,-1.94562c1.44896,-0.35535 2.86577,-1.1564 3.48748,-1.91535c1.02413,-1.2502 0.74361,-2.73538 -0.06577,-3.8863c0.12523,-0.28958 0.30525,-0.5869 0.56311,-0.86176z" fill="#f79d58" stroke="#000000" stroke-width="0" stroke-linecap="butt"/><path d="M241.02665,201.59831c0,0 -0.16113,-1.39132 0.83177,-2.4497c0.83775,-0.89299 2.76154,-1.45452 3.62241,-1.69853c2.38877,-0.67707 5.54691,-0.99258 7.61229,-0.93073c1.04307,0.03123 1.7958,1.00507 2.22024,1.74876c0.26481,0.464 1.47051,-1.05415 2.4616,-1.18214c0.51031,-0.06591 1.241,1.39616 1.29032,1.60632c0.27224,1.16 -0.46485,3.6929 -0.46485,3.6929c0,0 0.55816,0.68997 1.86673,1.27423c1.03935,0.46406 2.76995,0.7404 3.51636,1.41464c1.50659,1.3609 1.82454,4.21388 1.60024,5.17225c-0.24267,1.03685 -3.9622,4.09279 -8.88811,5.69858c-4.94282,1.6113 -11.0967,1.76786 -14.05848,0.12839c-4.16169,-2.30368 -1.99875,-5.63074 -3.73745,-8.31564c-1.08094,-1.66919 -1.81499,-3.6801 -2.00342,-6.10256c-0.17057,-2.19284 1.96643,-1.49939 1.96643,-1.49939l2.16393,1.44263z" fill="none" stroke="#000000" stroke-width="1" stroke-linecap="round"/><g stroke-linecap="butt"><path d="M252.5393,199.88264c0.33541,0.67082 -0.33541,1.00623 -0.33541,1.00623l-0.28805,0.14305c0.5596,0.02759 1.12093,0.04773 1.68439,0.04974l0.74487,0.13696c0.11233,0.00088 0.23865,0.03169 0.37833,0.10851c0.01207,0.00664 0.0238,0.01338 0.0352,0.02022c0.10958,0.0623 0.22778,0.1599 0.29716,0.30922c0.07127,0.14842 0.07158,0.30171 0.05011,0.42592c-0.00196,0.01314 -0.0042,0.02648 -0.00674,0.04002c-0.03069,0.16366 -0.09089,0.28417 -0.166,0.37263c-0.53966,0.9156 -1.17733,1.59747 -1.87592,2.14471c0.44693,0.02105 0.89431,0.04362 1.34243,0.06754c0.13178,-0.02352 0.28547,-0.00723 0.4564,0.08619c0.12846,0.05748 0.26734,0.15699 0.34667,0.3288c0.08984,0.16654 0.08613,0.33736 0.05503,0.47461c-0.03493,0.24208 -0.15084,0.38946 -0.28308,0.47906l-0.30906,0.36081c-0.31457,0.16901 -0.62234,0.3469 -0.92498,0.53136c0.77796,-0.05489 1.54567,-0.12761 2.29457,-0.22164l0.71423,-0.10215c0,0 0.74247,-0.10607 0.84853,0.63639c0.10607,0.74246 -0.6364,0.84852 -0.6364,0.84852l-0.74031,0.10564c-1.57037,0.19547 -3.22415,0.30171 -4.88359,0.34753c-1.49498,1.05791 -2.97474,2.12269 -4.67506,2.86811c0,0 -0.68712,0.30062 -0.98773,-0.3865c-0.30061,-0.68712 0.3865,-0.98773 0.3865,-0.98773c0.93212,-0.4069 1.79954,-0.91534 2.64092,-1.46765c-0.89839,-0.00556 -1.78614,-0.02461 -2.65055,-0.05242c-0.14683,0.02838 -0.31942,0.01288 -0.49728,-0.10792c-0.12738,-0.06797 -0.25404,-0.18034 -0.3171,-0.36598c-0.08077,-0.17865 -0.06503,-0.34724 -0.01845,-0.4839c0.04904,-0.21714 0.17105,-0.34798 0.30289,-0.42678l0.07122,-0.06763c0.60063,-0.45947 1.24815,-0.81898 1.91169,-1.13797c-0.58706,-0.00733 -1.17552,-0.01108 -1.7661,-0.01108h-0.31777c-0.15437,0.02898 -0.33995,0.01536 -0.51934,-0.11905c-0.12448,-0.07349 -0.242,-0.19234 -0.29658,-0.38456c-0.07493,-0.18524 -0.05513,-0.35121 -0.00199,-0.48564c0.05899,-0.21587 0.19676,-0.34051 0.33617,-0.41246c0.92758,-0.72615 1.77093,-1.47722 2.6271,-2.20645c-1.03601,0.01313 -2.06888,0.10702 -3.10023,0.36499c0,0 -0.72761,0.1819 -0.90951,-0.5457c-0.1819,-0.7276 0.5457,-0.90951 0.5457,-0.90951c1.75599,-0.43876 3.51009,-0.44594 5.27539,-0.36457c0.53455,-0.39376 1.09593,-0.76931 1.70324,-1.11745l0.45228,-0.22743c0,0 0.67082,-0.33541 1.00623,0.33541zM250.61562,204.54065c0.92134,-0.48705 1.77566,-1.08314 2.47019,-1.96694c-1.0901,-0.01292 -2.17375,-0.09694 -3.25275,-0.15936c-0.84801,0.65233 -1.63025,1.34934 -2.44237,2.05101c1.07822,0.01331 2.15184,0.03912 3.22493,0.07529zM248.41734,207.10742c0.81395,0.00817 1.63768,0.00551 2.4615,-0.01196c0.4745,-0.33625 0.95159,-0.6703 1.4386,-0.99122c-0.54518,-0.02411 -1.08985,-0.04547 -1.63462,-0.06395c-0.74611,0.35444 -1.51184,0.68189 -2.26548,1.06713z" fill="#efdee9" stroke="none" stroke-width="0.5"/><path d="M252.5393,199.88264c0.33541,0.67082 -0.33541,1.00623 -0.33541,1.00623l-0.28805,0.14305c0.5596,0.02759 1.12093,0.04773 1.68439,0.04974l0.74487,0.13696c0.11233,0.00088 0.23865,0.03169 0.37833,0.10851c0.01207,0.00664 0.0238,0.01338 0.0352,0.02022c0.10958,0.0623 0.22778,0.1599 0.29716,0.30922c0.07127,0.14842 0.07158,0.30171 0.05011,0.42592c-0.00196,0.01314 -0.0042,0.02648 -0.00674,0.04002c-0.03069,0.16366 -0.09089,0.28417 -0.166,0.37263c-0.53966,0.9156 -1.17733,1.59747 -1.87592,2.14471c0.44693,0.02105 0.89431,0.04362 1.34243,0.06754c0.13178,-0.02352 0.28547,-0.00723 0.4564,0.08619c0.12846,0.05748 0.26734,0.15699 0.34667,0.3288c0.08984,0.16654 0.08613,0.33736 0.05503,0.47461c-0.03493,0.24208 -0.15084,0.38946 -0.28308,0.47906l-0.30906,0.36081c-0.31457,0.16901 -0.62234,0.3469 -0.92498,0.53136c0.77796,-0.05489 1.54567,-0.12761 2.29457,-0.22164l0.71423,-0.10215c0,0 0.74247,-0.10607 0.84853,0.63639c0.10607,0.74246 -0.6364,0.84852 -0.6364,0.84852l-0.74031,0.10564c-1.57037,0.19547 -3.22415,0.30171 -4.88359,0.34753c-1.49498,1.05791 -2.97474,2.12269 -4.67506,2.86811c0,0 -0.68712,0.30062 -0.98773,-0.3865c-0.30061,-0.68712 0.3865,-0.98773 0.3865,-0.98773c0.93212,-0.4069 1.79954,-0.91534 2.64092,-1.46765c-0.89839,-0.00556 -1.78614,-0.02461 -2.65055,-0.05242c-0.14683,0.02838 -0.31942,0.01288 -0.49728,-0.10792c-0.12738,-0.06797 -0.25404,-0.18034 -0.3171,-0.36598c-0.08077,-0.17865 -0.06503,-0.34724 -0.01845,-0.4839c0.04904,-0.21714 0.17105,-0.34798 0.30289,-0.42678l0.07122,-0.06763c0.60063,-0.45947 1.24815,-0.81898 1.91169,-1.13797c-0.58706,-0.00733 -1.17552,-0.01108 -1.7661,-0.01108h-0.31777c-0.15437,0.02898 -0.33995,0.01536 -0.51934,-0.11905c-0.12448,-0.07349 -0.242,-0.19234 -0.29658,-0.38456c-0.07493,-0.18524 -0.05513,-0.35121 -0.00199,-0.48564c0.05899,-0.21587 0.19676,-0.34051 0.33617,-0.41246c0.92758,-0.72615 1.77093,-1.47722 2.6271,-2.20645c-1.03601,0.01313 -2.06888,0.10702 -3.10023,0.36499c0,0 -0.72761,0.1819 -0.90951,-0.5457c-0.1819,-0.7276 0.5457,-0.90951 0.5457,-0.90951c1.75599,-0.43876 3.51009,-0.44594 5.27539,-0.36457c0.53455,-0.39376 1.09593,-0.76931 1.70324,-1.11745l0.45228,-0.22743c0,0 0.67082,-0.33541 1.00623,0.33541zM250.61562,204.54065c0.92134,-0.48705 1.77566,-1.08314 2.47019,-1.96694c-1.0901,-0.01292 -2.17375,-0.09694 -3.25275,-0.15936c-0.84801,0.65233 -1.63025,1.34934 -2.44237,2.05101c1.07822,0.01331 2.15184,0.03912 3.22493,0.07529zM248.41734,207.10742c0.81395,0.00817 1.63768,0.00551 2.4615,-0.01196c0.4745,-0.33625 0.95159,-0.6703 1.4386,-0.99122c-0.54518,-0.02411 -1.08985,-0.04547 -1.63462,-0.06395c-0.74611,0.35444 -1.51184,0.68189 -2.26548,1.06713z" fill="none" stroke="#000000" stroke-width="1"/></g></g><path d="M227.76458,185.38458l6.54545,-4.83117l-0.98701,-5.81818c0,0 6.76544,-2.59679 8.81376,-3.27347c0.98881,-0.32666 2.82261,-0.57069 2.82261,-0.57069c0,0 4.65328,1.37707 7.9239,4.74913c2.43302,2.50849 4.23706,6.9441 4.76055,8.80674c0.25094,0.89288 -0.58913,3.18066 -1.03263,4.99336c-0.35143,1.43636 -0.20257,2.40044 -0.83594,3.36214c-1.46874,2.23015 -3.4912,2.03667 -3.4912,2.03667c0,0 -1.43077,0.13353 -2.04456,-0.037c-0.79784,-0.22166 -2.33679,-1.18029 -2.33679,-1.18029c0,0 -13.64238,-1.26786 -16.57367,-2.39815c-3.35867,-1.29508 -3.56446,-5.83911 -3.56446,-5.83911z" fill="none" stroke="#000000" stroke-width="1" stroke-linecap="round"/><path d="M255.92043,192.50145l1.09091,-4.36363l2.49351,2.18182l-2.12987,3.01299z" fill="#feecf7" stroke="#000000" stroke-width="1" stroke-linecap="round"/><path d="M239.66067,177.38458l0.2078,5.55845c0,0 -3.71223,1.97602 -4.67538,2.50219c-0.43072,0.2353 -0.95228,0.85055 -0.96912,1.18174c-0.04803,0.94468 -0.27757,5.45892 -0.27757,5.45892" fill="none" stroke="#000000" stroke-width="1" stroke-linecap="round"/><path d="M246.72561,180.7612c0,0 1.39103,2.20529 1.75987,2.79003c0.16912,0.26812 0.30243,0.80057 0.22711,1.03908c-0.28452,0.90098 -2.03893,6.4566 -2.03893,6.4566" fill="none" stroke="#000000" stroke-width="1" stroke-linecap="round"/><path d="M231.71262,187.56638l2.4935,3.37662l2.96104,-1.4026l3.06494,2.28571l3.58441,-3.06493l1.81818,2.02598l1.4026,-1.76623l0.88312,4.10389l-2.07792,2.02598l-3.06493,-0.88312l-2.28572,2.49351l-3.37662,-2.5974l-4,2.07792l-2.7013,-2.38961l-2.23377,0.72727c0,0 -1.01574,-2.11276 -1.92955,-2.74917c-1.01494,-0.70684 -3.88863,-1.30277 -3.88863,-1.30277c0,0 1.39404,-1.41642 1.44838,-2.2237c0.06497,-0.96521 -1.08474,-3.1789 -1.08474,-3.1789l3.37662,0.31169l1.61039,-1.1948l0.88312,4z" fill="#feecf7" stroke="#000000" stroke-width="1" stroke-linecap="round"/><g stroke="#000000" stroke-width="1" stroke-linecap="round"><path d="M231.1412,181.69627l-0.36364,-6.96104l13.66234,-1.76623l3.06493,-3.74026l3.79221,2.85715l6.07792,-2.59741l-0.25974,8.31169l-3.06494,-0.41558l-3.16883,2.44156l-2.90909,-1.81818l-3.63637,3.58441l-1.0909,-2.5974l-3.27273,2.90909l-2.33766,-2.23377l-1.76623,2.07792l-2.23377,-1.76623z" fill="#feecf7"/><path d="M243.45289,174.31964l0.77922,-0.93507" fill="none"/></g><g stroke="#000000" stroke-linecap="round"><path d="M246.15419,195.15079l1.45455,-1.97402c0,0 1.7157,1.92411 4.31329,1.83733c3.55994,-0.11893 4.36203,-2.5646 4.36203,-2.5646c0,0 2.51475,2.35673 2.00194,3.67003c-0.3863,0.98933 -3.89522,6.92418 -6.15923,7.04926c-2.10408,0.02195 -5.557,-5.99201 -5.557,-5.99201z" fill="#4ea5eb" stroke-width="0"/><path d="M247.60873,193.17679c0,0 1.7157,1.92411 4.31329,1.83733c3.55994,-0.11893 4.36203,-2.5646 4.36203,-2.5646c0,0 2.51475,2.35672 2.00194,3.67003c-0.34614,0.88644 -3.19915,5.74323 -5.41739,6.83382c0.14606,-0.60192 0.66788,-5.31229 0.66788,-5.31229c0,0 -3.3163,-1.57255 -4.5584,-2.44406c-0.53925,-0.37836 -0.96529,-1.19763 -1.41687,-1.95575z" fill="#2e67e5" stroke-width="0"/><path d="M246.15418,195.15081l1.45455,-1.97402c0,0 1.7157,1.92411 4.31329,1.83733c3.55994,-0.11893 4.36203,-2.5646 4.36203,-2.5646c0,0 2.51475,2.35672 2.00194,3.67003c-0.38631,0.98933 -3.89522,6.92418 -6.15923,7.04926c-2.10408,0.02195 -5.55699,-5.99201 -5.55699,-5.99201" fill="none" stroke-width="1"/></g></g><path d="M192.06803,227.93197v-95.86394h95.86394v95.86394z" fill="none" stroke="none" stroke-width="0" stroke-linecap="butt"/><g stroke="#000000"><g stroke-linecap="butt"><path d="M263.66104,169.97044l0.71682,-2.23009c0,0 9.11466,-0.32626 11.08787,0.82771c1.38522,0.8101 1.12502,5.06475 -1.51556,5.43741c-3.51649,0.49627 -10.28912,-4.03503 -10.28912,-4.03503z" fill="#0066cd" stroke-width="0"/><path d="M263.66105,169.97044l0.25441,-0.79149c0,0 2.03711,0.3136 4.04182,0.81029c1.54944,0.3839 2.88714,0.90925 4.4546,1.28297c1.86424,0.44448 3.66871,0.72889 3.64078,0.80966c-0.3314,0.95841 -1.01511,1.77014 -2.10248,1.92361c-3.51649,0.49628 -10.28913,-4.03504 -10.28913,-4.03504z" fill="#061483" stroke-width="0"/><path d="M263.66105,169.97044l0.71682,-2.23009c0,0 9.11466,-0.32625 11.08787,0.82772c1.38523,0.8101 1.12502,5.06475 -1.51556,5.43741c-3.51649,0.49628 -10.28913,-4.03504 -10.28913,-4.03504z" fill="none" stroke-width="1"/></g><g stroke-linecap="round"><path d="M224.0428,172.10811c0,0 -7.90615,-24.89839 14.88495,-24.20577c23.36864,0.71017 18.93806,21.23233 18.93806,21.23233c0,0 6.18614,-4.86555 7.08845,-4.30376c0.76161,0.47419 -0.5745,5.43118 -1.40987,7.32294c-0.61728,1.39788 -1.48476,4.42484 -2.86716,4.5892c-0.87011,0.10344 -4.42204,-2.77654 -4.42204,-2.77654c0,0 -7.50702,4.08666 -14.34419,5.35852c-6.7516,1.25594 -16.38147,0.09279 -16.38147,0.09279c0,0 -7.15631,-0.90435 -7.30256,-3.37178c-0.12462,-2.10245 5.81583,-3.93795 5.81583,-3.93795z" fill="#fde0be" stroke-width="0"/><path d="M252.10605,175.96843c-0.03425,0.0151 -1.25676,-2.11527 -1.25676,-2.11527l-3.23918,2.51424l-4.74537,-7.3187l-6.92217,4.20582l-0.85552,-6.54195c0,0 -11.58038,3.3031 -11.58702,3.27263c-1.30828,-6.00626 -3.26387,-22.65091 15.4277,-22.08287c23.36864,0.71017 18.93806,21.23233 18.93806,21.23233c0,0 5.16315,4.30737 5.09935,4.468c-0.56079,1.41218 -1.29027,3.02178 -2.28794,3.14039c-0.87011,0.10344 -4.42204,-2.77654 -4.42204,-2.77654c0,0 -1.66869,0.90839 -4.14912,2.00192z" fill="#fc988a" stroke-width="0"/><path d="M258.23748,170.62137l3.09735,-1.36283l-1.23894,4.95575z" fill="#f79587" stroke-width="0.5"/><path d="M238.92772,147.90234c23.36864,0.71017 18.93806,21.23233 18.93806,21.23233c0,0 6.18614,-4.86555 7.08845,-4.30376c0.76161,0.47419 -0.5745,5.43118 -1.40987,7.32294c-0.61728,1.39788 -1.48476,4.42484 -2.86716,4.5892c-0.87011,0.10344 -4.42204,-2.77654 -4.42204,-2.77654c0,0 -7.50702,4.08666 -14.34419,5.35852c-6.7516,1.25594 -16.38147,0.09279 -16.38147,0.09279c0,0 -7.15631,-0.90435 -7.30256,-3.37178c-0.12462,-2.10245 5.81583,-3.93795 5.81583,-3.93795c0,0 -7.90614,-24.89838 14.88496,-24.20576z" fill="none" stroke-width="1"/></g><g stroke-linecap="round"><path d="M264.12807,162.00512c0,0 -1.91994,3.39406 -3.05006,4.77532c-0.97589,1.19275 -3.3361,3.02999 -3.3361,3.02999c0,0 -10.7322,-5.21297 -18.19103,-6.18262c-7.61868,-0.99044 -17.49038,-0.30491 -17.49038,-0.30491c0,0 -3.40308,-17.91525 0.23844,-20.54599c2.65158,-1.91558 10.23966,-3.66653 17.59473,-2.99068c3.35224,0.30803 12.93229,1.28989 16.00584,4.39782c4.11937,4.16546 8.22857,17.82107 8.22857,17.82107z" fill="#ff292e" stroke-width="0"/><path d="M264.12807,162.00512c0,0 -1.91994,3.39407 -3.05006,4.77532c-0.97589,1.19275 -3.33609,3.02999 -3.33609,3.02999c0,0 -5.19732,-2.5245 -10.87203,-4.3867c-0.14854,-0.04874 2.57787,-14.06906 5.59963,-19.57261c1.00063,-1.82245 2.6654,-2.44024 3.42999,-1.66709c4.11937,4.16547 8.22857,17.82108 8.22857,17.82108z" fill="#ac0e49" stroke-width="0.5"/><path d="M261.07801,166.78045c-0.97589,1.19275 -3.33609,3.02999 -3.33609,3.02999c0,0 -10.7322,-5.21297 -18.19104,-6.18261c-7.61868,-0.99044 -17.49037,-0.30491 -17.49037,-0.30491c0,0 -3.40308,-17.91526 0.23844,-20.54599c2.65159,-1.91558 10.23966,-3.66653 17.59473,-2.99068c3.35224,0.30803 12.93229,1.28988 16.00582,4.39781c4.11937,4.16547 8.22857,17.82108 8.22857,17.82108c0,0 -1.91994,3.39406 -3.05006,4.77531z" fill="none" stroke-width="1"/></g><g stroke-linecap="round"><path d="M222.80385,169.01075c0,0 -3.85602,0.92482 -5.61813,1.58049c-1.7891,0.66571 -5.03674,2.38412 -5.03674,2.38412c0,0 1.62395,-3.85485 2.70279,-5.58945c1.02456,-1.64732 3.6158,-4.56984 3.6158,-4.56984l-9.53983,0.61947c0,0 8.85959,-12.65645 12.45666,-14.18992c2.14533,-0.91457 10.09201,4.15452 10.09201,4.15452c0,0 1.27513,-2.68016 2.15748,-3.92836c0.80348,-1.13663 2.92217,-3.25749 2.92217,-3.25749c0,0 1.50384,6.13468 2.53453,9.10551c1.07374,3.09489 3.78406,9.10689 3.78406,9.10689l14.61947,4.95575l-1.36283,6.69027l-5.69911,-6.19469l-2.60177,3.46903l-4.95575,-8.92035l-4.95575,4.0885l-1.11504,-5.07965c0,0 -11.01133,2.57707 -13.47804,3.78306c-0.67241,0.32874 -0.52195,1.79217 -0.52195,1.79217z" fill="#4fa6ec" stroke-width="0"/><path d="M225.94624,159.7863l-13.79726,13.18906c0,0 1.62395,-3.85485 2.70278,-5.58945c1.02455,-1.64732 3.6158,-4.56984 3.6158,-4.56984l-9.53982,0.61946c0,0 8.85958,-12.65645 12.45666,-14.18992c2.14532,-0.91458 10.09202,4.15452 10.09202,4.15452c0,0 1.27512,-2.68016 2.15747,-3.92836c0.80348,-1.13663 2.92217,-3.25748 2.92217,-3.25748l-2.53386,11.84243c0,0 -9.00989,-4.43466 -11.21034,-4.12033c-3.45351,0.49332 -8.3089,7.4718 -8.3089,7.4718z" fill="#66ffff" stroke-width="0"/><path d="M247.86419,167.76055l-0.7372,4.32035l-3.00278,-5.405z" fill="#66ffff" stroke-width="0"/><path d="M212.14899,172.97536c0,0 1.62395,-3.85485 2.70278,-5.58945c1.02455,-1.64732 3.6158,-4.56984 3.6158,-4.56984l-9.53982,0.61946c0,0 8.85958,-12.65645 12.45666,-14.18992c2.14532,-0.91458 10.09202,4.15452 10.09202,4.15452c0,0 1.27512,-2.68016 2.15747,-3.92836c0.80348,-1.13663 2.92217,-3.25748 2.92217,-3.25748c0,0 1.50383,6.13467 2.53452,9.1055c1.07373,3.09489 3.78406,9.10689 3.78406,9.10689l14.61947,4.95575l-1.36283,6.69027l-5.69911,-6.19468l-2.60178,3.46903l-4.95576,-8.92035l-4.95576,4.0885l-1.11504,-5.07965c0,0 -11.01133,2.57707 -13.47804,3.78306c-0.67241,0.32874 -0.52195,1.79217 -0.52195,1.79217c0,0 -3.856,0.92482 -5.61812,1.58049c-1.76212,0.65567 -5.03674,2.38409 -5.03674,2.38409z" fill="none" stroke-width="1"/></g></g><path d="M247.89113,172.91637l0.99551,3.12872l8.10623,-3.41315l-1.70658,3.9109l2.70208,2.34654l-4.69308,-0.0711l-1.70658,1.49326l-3.41315,-1.49326l-4.26644,3.8398l-0.63996,-2.77319c0,0 1.65657,-2.96144 2.47952,-4.20218c0.69654,-1.05017 2.14246,-2.76634 2.14246,-2.76634z" fill="#feecf7" stroke="#000000" stroke-width="1" stroke-linecap="round"/><g stroke="none" stroke-width="0.5" stroke-linecap="butt"><path d="M224.31766,158.44586c2.38411,-0.12812 6.16028,2.50476 7.57062,3.68004c0.63002,0.52501 3.56324,3.17145 3.56324,3.17145c0.14917,0.04871 0.23551,0.14997 0.28548,0.2509c0.06032,0.09399 0.10253,0.21883 0.06911,0.37008c0.02255,2.57446 0.95955,6.04779 0.35988,8.49312c-0.38702,1.57821 -1.81602,1.43444 -2.83182,0.61772c-1.68721,-2.88395 -0.71246,-5.97799 -0.52956,-9.02491c-0.07309,-0.46018 -0.13539,-0.92484 -0.16892,-1.39575c-1.00469,-0.78596 -1.99503,-1.58165 -3.04966,-2.33421c-1.92639,-1.204 -3.21849,-1.79725 -4.24693,-1.63062c-0.5589,0.09056 -1.43161,0.82981 -2.20387,1.78707c-0.8837,1.09539 -1.63589,2.41998 -1.63589,2.41998c0,0 0.92834,-6.3033 2.81832,-6.40487z" fill="#000000"/><path d="M244.17043,164.0155c1.03259,2.94908 2.76626,9.31684 -0.89394,10.39533c-2.00729,-0.56422 -1.69125,-2.50709 -1.89224,-4.2135c-0.43371,-3.68219 0.03663,-5.78008 2.52389,-8.69098c1.76248,-1.76305 5.03384,-6.76659 8.06118,-5.48633c0.53893,0.22792 1.87977,2.15261 2.55353,3.65391c0.4499,1.00248 0.35936,1.80988 0.35936,1.80988c0,0 -2.20608,-3.28762 -3.40813,-3.59054c-0.36937,-0.09309 -1.46046,0.17149 -2.42114,0.96205c-2.17901,1.79314 -4.8175,5.16194 -4.88251,5.16018z" fill="#000000"/><path d="M243.09674,182.06035c0.95482,1.21349 1.94729,-0.2613 2.36432,-1.03648c0.74005,-1.37562 0.98941,-4.17058 0.5672,-5.88758c-0.83736,0.42158 -1.42506,1.08747 -2.27942,1.52011c-1.06375,0.53141 -2.10174,0.96716 -3.13723,1.30806c1.22716,1.07201 2.03709,2.52188 2.48512,4.09588zM246.44416,181.55002c-0.94285,1.7822 -2.69155,2.88774 -4.32595,1.04494c-0.50149,-1.60224 -1.25301,-3.13738 -2.65957,-4.12514l-0.15696,0.01868c0,0 -0.10529,-0.02106 -0.21422,-0.0909c-2.18255,0.52131 -7.36595,-0.57466 -7.36595,-0.57466c0,0 3.09647,0.13851 6.24966,-0.38848c1.96244,-0.32798 3.89115,-1.08081 5.279,-1.77538c0.94273,-0.46409 1.56906,-1.22394 2.55715,-1.64918l0.44011,-0.09916c0.18273,-0.05635 0.32294,-0.0228 0.42687,0.04129c0.10793,0.05375 0.20923,0.15324 0.25856,0.33374c0.69662,1.9366 0.46703,5.45767 -0.4887,7.26423z" fill="#000000"/><path d="M240.55831,177.94807c1.0355,-0.3409 2.13504,-0.81539 3.19881,-1.34679c0.85436,-0.43264 1.4659,-1.08895 2.30328,-1.51053c0.42221,1.717 0.17866,4.59836 -0.5614,5.97398c-0.41704,0.77518 -1.45303,2.26459 -2.40786,1.0511c-0.44804,-1.57401 -1.30566,-3.09573 -2.53282,-4.16775z" data-paper-data="{&quot;noHover&quot;:false,&quot;origItem&quot;:[&quot;Path&quot;,{&quot;applyMatrix&quot;:true,&quot;segments&quot;:[[[595.99877,382.74842],[-0.80363,-2.82321],[1.71263,2.17659]],[[600.23954,380.88935],[-0.74801,1.3904],[1.32741,-2.46738]],[[601.2569,370.32909],[0.75731,3.0797],[-1.50195,0.75616]],[[597.16843,373.05564],[1.53242,-0.776],[-1.90801,0.95316]],[[591.54132,375.40183],[1.85732,-0.61146],[2.20111,1.92282]]],&quot;closed&quot;:true}]}" fill="#ff6666"/></g><g stroke="#000000"><path d="M245.21319,186.16612c0,0 -2.26315,-11.0569 -1.51402,-11.56255c0.32979,-0.22261 4.78784,-3.71185 5.89651,-2.25446c1.85387,2.43701 0.82105,10.59577 0.82105,10.59577c0,0 3.43182,-11.72928 4.21689,-11.54086c0.4161,0.09986 4.5993,0.72347 4.8666,2.89397c0.46665,3.78923 -3.13657,10.00972 -3.13657,10.00972c0,0 5.85234,1.42024 5.66469,2.321c-0.21195,1.01736 -0.38963,7.62338 -2.37251,9.76246c-1.98243,2.13859 -5.77005,-0.18966 -5.77005,-0.18966c0,0 -1.98189,1.5347 -3.2175,1.49484c-1.31936,-0.04256 -4.46391,-1.74262 -4.46391,-1.74262c0,0 -4.04845,1.91317 -4.0559,-2.23339c-0.00193,-1.07196 1.36136,-3.52433 2.27283,-5.34848c0.62566,-1.25216 0.79193,-2.20575 0.79193,-2.20575z" fill="#fde0be" stroke-width="0" stroke-linecap="round"/><path d="M252.51079,187.68604c1.28705,1.343 3.2789,-0.80211 4.54465,-2.8505c-0.21899,0.89989 -0.4109,1.82592 -0.54363,2.51186c-0.09572,0.24861 -0.14818,0.51869 -0.14818,0.80103c0,0.12773 0.01074,0.25295 0.03137,0.37481c-0.10132,1.31721 0.90924,1.82441 1.93598,1.83996c0.08617,0.01011 0.17385,0.01531 0.26275,0.01531c0.42359,0 0.8196,-0.11809 1.15689,-0.32316c0.1314,-0.06814 0.24713,-0.14602 0.34169,-0.23203c0.69161,-0.62911 1.33901,-2.06042 1.78105,-3.52125c0.11884,0.11375 0.17643,0.2236 0.15497,0.32666c-0.21195,1.01736 -0.38963,7.62338 -2.37251,9.76246c-1.98243,2.13859 -5.77005,-0.18966 -5.77005,-0.18966c0,0 -1.98189,1.5347 -3.2175,1.49484c-1.31936,-0.04256 -4.46391,-1.74262 -4.46391,-1.74262c0,0 -4.04845,1.91317 -4.0559,-2.23339c-0.00003,-0.01813 0.00032,-0.03665 0.00107,-0.05556c0.32237,0.30607 0.72868,0.4926 1.23341,0.4926c0.97172,0 1.58171,-0.14656 1.95036,-0.38649c0.04101,0.00961 0.08376,0.0147 0.12771,0.0147h0.74337v-0.28269c0.3506,-0.04749 0.62331,-0.16694 0.91254,-0.30777c0.43539,-0.06933 0.85233,-0.09946 1.23295,0.00464c0.33149,0.81587 1.13202,1.39113 2.0669,1.39113c1.23164,0 2.23009,-0.99844 2.23009,-2.23009c0,-1.23164 -0.99844,-2.23009 -2.23009,-2.23009c-0.9168,0 -1.70439,0.55323 -2.04714,1.34406l-0.16272,0.12927c-0.42029,0.08406 -1.08778,0.25869 -1.58064,0.55874c-0.2731,0.04926 -0.55258,0.10924 -0.83818,0.17169c-0.17114,-0.91664 -0.71509,-1.92758 -0.16029,-2.38255c1.05866,-0.86816 2.27191,-0.93026 3.45444,-1.08643c0.11193,0.01729 0.22661,0.02627 0.34339,0.02627c0.47173,0 0.90926,-0.14647 1.26958,-0.39641c0.36497,-0.14382 0.71737,-0.34274 1.0507,-0.62845c0.13485,-0.1156 0.24997,-0.23323 0.34686,-0.35218c0.132,0.07055 0.27191,0.12821 0.41809,0.17129z" fill="#f79587" stroke-width="0" stroke-linecap="butt"/><path d="M245.21318,186.16612c0,0 -2.26314,-11.05689 -1.51402,-11.56255c0.32979,-0.22261 4.78783,-3.71185 5.8965,-2.25445c1.85387,2.43701 0.82105,10.59576 0.82105,10.59576c0,0 3.43182,-11.72928 4.21689,-11.54086c0.4161,0.09986 4.5993,0.72347 4.86659,2.89399c0.46665,3.78923 -3.13657,10.00972 -3.13657,10.00972c0,0 5.85234,1.42025 5.66469,2.321c-0.21195,1.01736 -0.38963,7.62338 -2.3725,9.76246c-1.98241,2.13859 -5.77005,-0.18966 -5.77005,-0.18966c0,0 -1.98189,1.5347 -3.2175,1.49484c-1.31936,-0.04256 -4.46391,-1.74262 -4.46391,-1.74262c0,0 -4.04845,1.91317 -4.0559,-2.23339c-0.00193,-1.07196 1.36135,-3.52433 2.27282,-5.34848c0.62567,-1.25216 0.79193,-2.20575 0.79193,-2.20575z" fill="none" stroke-width="1" stroke-linecap="round"/><path d="M248.06274,190.99798c0,0 3.66033,-1.50082 5.51268,0.42502c1.65232,1.71788 0.18644,4.53073 0.18644,4.53073" fill="none" stroke-width="1" stroke-linecap="round"/><path d="M261.19547,189.51125c0,0 -0.68458,5.19723 -5.82544,3.22667c-0.77997,-0.29898 1.11748,-5.33287 1.11748,-5.33287" fill="none" stroke-width="1" stroke-linecap="round"/><path d="M255.49636,186.04223l0.99115,-1.85841" fill="none" stroke-width="1" stroke-linecap="round"/></g></g></g></svg>