<svg version="1.1" xmlns="http://www.w3.org/2000/svg" xmlns:xlink="http://www.w3.org/1999/xlink" width="148.68333" height="152.0765" viewBox="0,0,148.68333,152.0765"><g transform="translate(-165.65833,-103.95816)"><g data-paper-data="{&quot;isPaintingLayer&quot;:true}" fill-rule="nonzero" stroke-linejoin="miter" stroke-miterlimit="10" stroke-dasharray="" stroke-dashoffset="0" style="mix-blend-mode: normal"><g><path d="M239.06924,153.69497c0,0 63.34473,-8.25897 70.90421,2.32592c5.1961,7.27567 -2.09572,55.3573 -2.09572,55.3573l-75.44484,0.93037" data-paper-data="{&quot;index&quot;:null}" fill="#87a3ad" stroke="#000000" stroke-width="1.5" stroke-linecap="round"/><path d="M254.08832,198.68656c0,0 8.72907,13.20553 18.51194,26.89471c0.59003,0.82562 -4.82054,8.03465 -9.14298,11.7463c-5.89378,5.06098 -22.99094,15.84698 -22.99094,15.84698c0,0 -73.10985,-35.92353 -72.30135,-77.19129c0.65085,-33.22013 72.30138,-69.1578 72.30138,-69.1578c0,0 17.09715,10.786 22.99094,15.84698c4.32243,3.71165 9.73298,10.92068 9.14298,11.7463c-9.78287,13.68918 -16.76555,22.35404 -16.76555,22.35404" data-paper-data="{&quot;index&quot;:null}" fill="#87a3ad" stroke="#000000" stroke-width="5" stroke-linecap="round"/><path d="M239.10918,154.82427c0,0 60.62528,-7.90441 67.86024,2.22607c4.97302,6.96333 -2.00575,52.98076 -2.00575,52.98076l-72.20594,0.89043" data-paper-data="{&quot;index&quot;:null}" fill="none" stroke="#ffffff" stroke-width="1.5" stroke-linecap="round"/><path d="M253.48348,197.88433c0,0 8.35435,12.63862 17.71722,25.7401c0.56473,0.79017 -4.61358,7.68969 -8.75045,11.24201c-5.64076,4.84369 -22.00391,15.16665 -22.00391,15.16665c0,0 -69.97117,-34.3813 -69.19738,-73.8774c0.62291,-31.79396 69.19742,-66.18877 69.19742,-66.18877c0,0 16.36315,10.32296 22.00391,15.16665c4.13684,3.55229 9.31512,10.45184 8.75045,11.24201c-9.36287,13.10148 -16.04579,21.39436 -16.04579,21.39436" data-paper-data="{&quot;index&quot;:null}" fill="none" stroke="#ffffff" stroke-width="5" stroke-linecap="round"/><path d="M239.06924,153.69497c0,0 63.34473,-8.25897 70.90421,2.32592c5.1961,7.27567 -2.09572,55.3573 -2.09572,55.3573l-75.44484,0.93037" data-paper-data="{&quot;index&quot;:null}" fill="none" stroke="#000000" stroke-width="5" stroke-linecap="round"/><path d="M254.08832,198.68656c0,0 8.72907,13.20553 18.51194,26.89471c0.59003,0.82562 -4.82054,8.03465 -9.14298,11.7463c-5.89378,5.06098 -22.99094,15.84698 -22.99094,15.84698c0,0 -73.10985,-35.92353 -72.30135,-77.19129c0.65085,-33.22013 72.30138,-69.1578 72.30138,-69.1578c0,0 17.09715,10.786 22.99094,15.84698c4.32243,3.71165 9.73298,10.92068 9.14298,11.7463c-9.78287,13.68918 -16.76555,22.35404 -16.76555,22.35404" data-paper-data="{&quot;index&quot;:null}" fill="none" stroke="#000000" stroke-width="5" stroke-linecap="round"/><path d="M219.85772,218.06706l20.69665,-31.41456l17.00082,22.91415l5.54375,9.23958z" data-paper-data="{&quot;index&quot;:null}" fill="#87a3ad" stroke="none" stroke-width="0" stroke-linecap="butt"/><path d="M261.99019,141.93294l-5.54375,9.23958l-17.00082,22.91414l-20.69665,-31.41456z" data-paper-data="{&quot;index&quot;:null}" fill="#87a3ad" stroke="none" stroke-width="0" stroke-linecap="butt"/></g></g></g></svg>