<svg version="1.1" xmlns="http://www.w3.org/2000/svg" xmlns:xlink="http://www.w3.org/1999/xlink" width="95.86394" height="95.86394" viewBox="0,0,95.86394,95.86394"><g transform="translate(-192.06803,-132.06803)"><g data-paper-data="{&quot;isPaintingLayer&quot;:true}" fill-rule="nonzero" stroke-linejoin="miter" stroke-miterlimit="10" stroke-dasharray="" stroke-dashoffset="0" style="mix-blend-mode: normal"><g><g stroke="#000000" stroke-width="1"><path d="M250.04634,183.26698c0,-0.62371 0.26369,-2.07091 0.88621,-2.54067c2.53678,-1.91425 9.16873,-1.57256 9.93507,-0.09644c0.40983,0.7894 0.6414,1.68622 0.6414,2.63711c0,3.16534 -2.56601,4.65672 -5.73135,4.65672c-3.16533,0 -5.73134,-1.49138 -5.73134,-4.65672z" fill="#da0251" stroke-linecap="butt"/><path d="M251.59857,177.53564c0,0 2.71456,0.47289 3.855,-0.10981c1.49089,-0.76177 4.32411,-4.0693 4.32411,-4.0693c0,0 -0.32442,3.52473 0.66936,4.11752c1.22582,0.73119 6.13661,-0.05782 6.13661,-0.05782c0,0 -0.64495,2.1559 -0.9289,3.23084c-0.27283,1.03283 -0.74274,3.09753 -0.74274,3.09753c0,0 -2.73044,-2.21326 -3.9408,-2.09723c-2.08883,0.20024 -3.46219,2.39574 -3.46219,2.39574c0,0 -1.23678,-1.97807 -2.30497,-2.49163c-0.99647,-0.47908 -3.90399,-0.49345 -3.90399,-0.49345z" fill="#feecf7" stroke-linecap="round"/></g><g stroke="#000000" stroke-linecap="round"><path d="M215.47917,199.14758c0,0 2.74299,-5.80599 3.26181,-6.90417c0.16258,-0.34412 0.67905,-0.5683 0.9922,-0.47261c0.72753,0.2223 3.62658,1.10812 3.62658,1.10812l3.22388,-3.22388l28.77612,2.50746l-0.65671,11.10448c0,0 -11.54873,2.45697 -17.77484,1.69652c-8.28229,-1.01159 -21.44904,-5.81592 -21.44904,-5.81592z" fill="#4ea5eb" stroke-width="0"/><path d="M226.58364,189.65503l28.77612,2.50746l-0.65671,11.10448c0,0 -11.54873,2.45697 -17.77484,1.69652c-4.36003,-0.53253 -10.07366,-2.11612 -14.50747,-3.49659c1.86458,-1.8858 2.16507,-5.66987 0.99058,-8.28947c0.00046,-0.01984 0.0007,-0.03975 0.0007,-0.05971c0,-0.09328 -0.00511,-0.18536 -0.01506,-0.27598z" fill="#2e67e5" stroke-width="0"/><path d="M215.47917,199.14758c0,0 2.74299,-5.80599 3.26181,-6.90417c0.16258,-0.34412 0.67905,-0.5683 0.9922,-0.47261c0.72753,0.2223 3.62658,1.10812 3.62658,1.10812l3.22388,-3.22388l28.77612,2.50746l-0.65671,11.10448c0,0 -11.54873,2.45697 -17.77484,1.69652c-8.28229,-1.01159 -21.44904,-5.81592 -21.44904,-5.81592z" fill="none" stroke-width="1"/></g><g><g stroke="#000000"><path d="M237.8399,206.86854l2.90411,2.41096c0,0 -2.17937,2.58464 -3.90869,3.09697c-3.43063,1.01636 -5.89953,0.51947 -5.89953,0.51947l-2.30137,-1.58904c0,0 -0.89241,1.28785 -2.63727,2.1778c-2.0716,1.0566 -5.16524,1.77674 -6.87016,2.26915c-2.66005,0.76827 -8.1364,0.64894 -8.1364,0.64894l-1.64383,-1.36987c0,0 -1.85889,1.51932 -2.69498,1.50966c-5.51659,-0.06378 -6.34611,-6.60555 -6.34611,-6.60555l3.56164,-1.47945z" fill="#f38285" stroke-width="0" stroke-linecap="round"/><path d="M237.83993,206.86854l2.90411,2.41096c0,0 -2.17937,2.58464 -3.90869,3.09697c-3.43063,1.01636 -5.89953,0.51947 -5.89953,0.51947l-2.30137,-1.58904c0,0 -0.89241,1.28785 -2.63727,2.1778c-2.0716,1.0566 -5.16524,1.77673 -6.87016,2.26915c-1.2723,0.36746 -3.18887,0.53187 -4.84235,0.6034c2.55343,-2.15661 6.05623,-4.6137 7.78416,-7.23789c0.4616,-0.38438 0.78256,-0.93189 0.87434,-1.55403z" fill="#e86597" stroke-width="0" stroke-linecap="butt"/><path d="M237.8399,206.86854l2.90411,2.41096c0,0 -2.17937,2.58464 -3.90869,3.09697c-3.43063,1.01636 -5.89953,0.51947 -5.89953,0.51947l-2.30137,-1.58904c0,0 -0.89241,1.28785 -2.63727,2.1778c-2.0716,1.0566 -5.16524,1.77674 -6.87016,2.26915c-2.66005,0.76827 -8.1364,0.64894 -8.1364,0.64894l-1.64383,-1.36987c0,0 -1.85889,1.51932 -2.69498,1.50966c-5.51659,-0.06378 -6.34611,-6.60555 -6.34611,-6.60555l3.56164,-1.47945z" fill="none" stroke-width="1" stroke-linecap="round"/></g><path d="M213.75125,201.47747c0,0 -2.27148,-0.78544 -2.22144,-1.44363c0.12872,-1.69304 1.36353,-2.39099 2.75658,-2.92215c2.38184,-0.90818 5.41299,-0.75869 6.06019,-0.67615c2.23423,0.28494 4.94565,3.59931 4.94565,3.59931l5.70491,0.26229c0,0 1.87694,1.47844 2.69191,2.41478c1.133,1.30174 3.47202,4.66719 3.47202,4.66719c0,0 -2.25214,1.42649 -5.90433,1.87679c-2.8118,0.34667 -9.83338,-0.17188 -9.83338,-0.17188c0,0 -8.91477,4.92778 -11.18691,4.18242c-0.70708,-0.23195 -5.70161,-1.4984 -6.80644,-3.51235c-0.22045,-0.40184 1.98785,-3.79849 2.896,-4.36678c0.73317,-0.45878 2.70391,-0.36886 2.70391,-0.36886l4.72131,-3.54099z" fill="#000000" stroke="#000000" stroke-width="0" stroke-linecap="round"/><path d="M213.75124,201.47747c0,0 -2.27148,-0.78544 -2.22144,-1.44363c0.12872,-1.69304 1.36353,-2.39099 2.75658,-2.92215c2.38184,-0.90818 5.41299,-0.75869 6.06019,-0.67615c2.23423,0.28494 4.94565,3.59931 4.94565,3.59931l0.12106,2.36548l4.27238,2.35583c0,0 3.18842,-2.98058 4.00339,-2.04424c1.133,1.30174 3.47202,4.66719 3.47202,4.66719c0,0 -2.25214,1.42649 -5.90433,1.87679c-2.8118,0.34667 -9.83338,-0.17188 -9.83338,-0.17188c0,0 -8.91477,4.92778 -11.18691,4.18242c-0.70708,-0.23195 -5.70161,-1.4984 -6.80644,-3.51235c-0.22045,-0.40184 1.98785,-3.79849 2.896,-4.36678c0.73317,-0.45878 2.70391,-0.36886 2.70391,-0.36886l4.72131,-3.54099z" fill="#f27056" stroke="#000000" stroke-width="0" stroke-linecap="round"/><path d="M211.5298,200.03384c0.12872,-1.69304 1.36353,-2.39099 2.75658,-2.92215c2.38184,-0.90819 5.41299,-0.75869 6.06019,-0.67615c0.69079,0.0881 1.42719,0.46579 2.11496,0.94558c0.00985,0.35494 3.78963,7.21453 3.68314,7.23569c-1.05248,0.20915 -2.00889,0.49742 -3.01639,0.72131c-2.30047,0.51121 -7.10067,0.72368 -8.69405,2.58262c-0.36773,0.42902 -1.40765,1.76578 -1.92333,3.17536c-0.29747,0.41138 -0.22013,1.92483 -0.22746,2.01876c-0.86628,0.22213 -1.59063,0.3013 -2.047,0.15159c-0.70708,-0.23195 -5.7016,-1.4984 -6.80644,-3.51235c-0.22045,-0.40184 1.98785,-3.7985 2.896,-4.36678c0.73316,-0.45878 2.70391,-0.36886 2.70391,-0.36886l4.72131,-3.54099c0,0 -2.27148,-0.78544 -2.22144,-1.44363z" fill="#f79d58" stroke="#000000" stroke-width="0" stroke-linecap="round"/><path d="M213.75125,201.47747c0,0 -2.27148,-0.78544 -2.22144,-1.44363c0.12872,-1.69304 1.36353,-2.39099 2.75658,-2.92215c2.38184,-0.90818 5.41299,-0.75869 6.06019,-0.67615c2.23423,0.28494 4.94565,3.59931 4.94565,3.59931l5.70491,0.26229c0,0 1.87694,1.47844 2.69191,2.41478c1.133,1.30174 3.47202,4.66719 3.47202,4.66719c0,0 -2.25214,1.42649 -5.90433,1.87679c-2.8118,0.34667 -9.83338,-0.17188 -9.83338,-0.17188c0,0 -8.91477,4.92778 -11.18691,4.18242c-0.70708,-0.23195 -5.70161,-1.4984 -6.80644,-3.51235c-0.22045,-0.40184 1.98785,-3.79849 2.896,-4.36678c0.73317,-0.45878 2.70391,-0.36886 2.70391,-0.36886l4.72131,-3.54099z" fill="none" stroke="#000000" stroke-width="1" stroke-linecap="round"/><g stroke-linecap="butt"><path d="M213.56594,201.07745l0.37617,0.01994c0.04574,-0.01074 0.09131,-0.02171 0.13669,-0.03288c-0.19114,-0.09186 -0.38614,-0.27928 -0.38614,-0.66171c0,-0.75 0.75,-0.75 0.75,-0.75h0.16438c2.63573,0 5.39102,0.49811 7.97628,0.2233c0,0 0.74588,-0.07851 0.82439,0.66737c0.07852,0.74588 -0.66737,0.82439 -0.66737,0.82439c-0.35724,0.03726 -0.71729,0.06052 -1.0795,0.0729c0.14465,0.09524 0.28536,0.19538 0.42142,0.30066c0.1717,0.01594 0.42657,0.08509 0.56938,0.33992c0.08122,0.11755 0.1337,0.27335 0.10433,0.47497c-0.00907,0.20355 -0.08991,0.3467 -0.1918,0.44688c-0.14811,0.17584 -0.34277,0.22567 -0.50264,0.2308c-1.63339,0.21733 -3.2613,0.40746 -4.89258,0.60107c0.31664,0.22487 0.62799,0.45675 0.92932,0.70175l0.56494,0.47078c0.13449,0.0695 0.26274,0.18993 0.32597,0.39768c0.05678,0.13293 0.08422,0.29957 0.01628,0.48438c-0.04905,0.1907 -0.1663,0.31225 -0.28854,0.38941c-0.17056,0.13548 -0.34506,0.1615 -0.49553,0.14198c-0.63895,0.05541 -1.27597,0.09346 -1.91193,0.12316c0.43929,0.32839 0.84026,0.66508 1.18405,0.9995l0.02426,-0.0309c0,0 0.67082,0.33541 0.33541,1.00623c-0.33541,0.67082 -1.00623,0.33541 -1.00623,0.33541l-0.4141,-0.25008c-0.64207,-0.66795 -1.62382,-1.36638 -2.67869,-1.96383c-1.41414,0.05257 -2.82878,0.12391 -4.2535,0.31391l-0.15391,0.00658c0,0 -0.75,0 -0.75,-0.75c0,-0.75 0.75,-0.75 0.75,-0.75l-0.04433,0.00657c0.47967,-0.06394 0.95829,-0.11452 1.43619,-0.15552c-0.09099,-0.02693 -0.18029,-0.05176 -0.26766,-0.07438c0,0 -0.72531,-0.19087 -0.53444,-0.91618c0.09601,-0.36484 0.32724,-0.49786 0.53337,-0.53997l0.3114,-0.27704c0.39602,-0.08337 0.792,-0.16701 1.18786,-0.25117c0.18091,-0.31845 0.58245,-0.36307 0.58245,-0.36307l0.47686,-0.0528c0.03758,-0.00501 0.07514,-0.01 0.1127,-0.01498c-0.15337,-0.12189 -0.30445,-0.2469 -0.45266,-0.3758c0,0 -0.56443,-0.49388 -0.07055,-1.05831c0.2286,-0.26126 0.47232,-0.29578 0.66818,-0.25748c0.15092,-0.05343 0.27981,-0.05343 0.27981,-0.05343zM217.87299,201.38306c-0.9643,0.34335 -1.88196,0.70092 -2.8533,0.9814c0.08835,0.0625 0.17711,0.12447 0.26617,0.18607c1.43666,-0.17545 2.86731,-0.33995 4.30001,-0.51456c-0.37421,-0.14775 -0.75563,-0.26733 -1.11729,-0.36056c0,0 -0.31639,-0.08437 -0.47531,-0.35066c-0.06949,0.04018 -0.12029,0.05832 -0.12029,0.05832zM216.3013,205.0464c-0.44786,-0.32418 -0.90767,-0.63211 -1.36646,-0.94146c-0.52398,0.06507 -1.04873,0.13193 -1.57452,0.20159c-0.12412,0.15528 -0.30031,0.23138 -0.39426,0.26292c0.37527,0.17222 0.75278,0.36145 1.12528,0.56365c0.73616,-0.026 1.47241,-0.05025 2.20995,-0.08671z" fill="#feecf7" stroke="none" stroke-width="0.5"/><path d="M213.56594,201.07745l0.37617,0.01994c0.04574,-0.01074 0.09131,-0.02171 0.13669,-0.03288c-0.19114,-0.09186 -0.38614,-0.27928 -0.38614,-0.66171c0,-0.75 0.75,-0.75 0.75,-0.75h0.16438c2.63573,0 5.39102,0.49811 7.97628,0.2233c0,0 0.74588,-0.07851 0.82439,0.66737c0.07852,0.74588 -0.66737,0.82439 -0.66737,0.82439c-0.35724,0.03726 -0.71729,0.06052 -1.0795,0.0729c0.14465,0.09524 0.28536,0.19538 0.42142,0.30066c0.1717,0.01594 0.42657,0.08509 0.56938,0.33992c0.08122,0.11755 0.1337,0.27335 0.10433,0.47497c-0.00907,0.20355 -0.08991,0.3467 -0.1918,0.44688c-0.14811,0.17584 -0.34277,0.22567 -0.50264,0.2308c-1.63339,0.21733 -3.2613,0.40746 -4.89258,0.60107c0.31664,0.22487 0.62799,0.45675 0.92932,0.70175l0.56494,0.47078c0.13449,0.0695 0.26274,0.18993 0.32597,0.39768c0.05678,0.13293 0.08422,0.29957 0.01628,0.48438c-0.04905,0.1907 -0.1663,0.31225 -0.28854,0.38941c-0.17056,0.13548 -0.34506,0.1615 -0.49553,0.14198c-0.63895,0.05541 -1.27597,0.09346 -1.91193,0.12316c0.43929,0.32839 0.84026,0.66508 1.18405,0.9995l0.02426,-0.0309c0,0 0.67082,0.33541 0.33541,1.00623c-0.33541,0.67082 -1.00623,0.33541 -1.00623,0.33541l-0.4141,-0.25008c-0.64207,-0.66795 -1.62382,-1.36638 -2.67869,-1.96383c-1.41414,0.05257 -2.82878,0.12391 -4.2535,0.31391l-0.15391,0.00658c0,0 -0.75,0 -0.75,-0.75c0,-0.75 0.75,-0.75 0.75,-0.75l-0.04433,0.00657c0.47967,-0.06394 0.95829,-0.11452 1.43619,-0.15552c-0.09099,-0.02693 -0.18029,-0.05176 -0.26766,-0.07438c0,0 -0.72531,-0.19087 -0.53444,-0.91618c0.09601,-0.36484 0.32724,-0.49786 0.53337,-0.53997l0.3114,-0.27704c0.39602,-0.08337 0.792,-0.16701 1.18786,-0.25117c0.18091,-0.31845 0.58245,-0.36307 0.58245,-0.36307l0.47686,-0.0528c0.03758,-0.00501 0.07514,-0.01 0.1127,-0.01498c-0.15337,-0.12189 -0.30445,-0.2469 -0.45266,-0.3758c0,0 -0.56443,-0.49388 -0.07055,-1.05831c0.2286,-0.26126 0.47232,-0.29578 0.66818,-0.25748c0.15092,-0.05343 0.27981,-0.05343 0.27981,-0.05343zM217.87299,201.38306c-0.9643,0.34335 -1.88196,0.70092 -2.8533,0.9814c0.08835,0.0625 0.17711,0.12447 0.26617,0.18607c1.43666,-0.17545 2.86731,-0.33995 4.30001,-0.51456c-0.37421,-0.14775 -0.75563,-0.26733 -1.11729,-0.36056c0,0 -0.31639,-0.08437 -0.47531,-0.35066c-0.06949,0.04018 -0.12029,0.05832 -0.12029,0.05832zM216.3013,205.0464c-0.44786,-0.32418 -0.90767,-0.63211 -1.36646,-0.94146c-0.52398,0.06507 -1.04873,0.13193 -1.57452,0.20159c-0.12412,0.15528 -0.30031,0.23138 -0.39426,0.26292c0.37527,0.17222 0.75278,0.36145 1.12528,0.56365c0.73616,-0.026 1.47241,-0.05025 2.20995,-0.08671z" fill="none" stroke="#000000" stroke-width="1"/></g></g><g><g stroke="#000000"><path d="M235.12096,213.05802c0,0 6.76025,-6.34543 13.9397,-7.02284c9.37832,-0.88488 18.65732,0.27657 18.65732,0.27657l3.70149,1.55224l0.2388,4.65672l-6.86567,5.73134l-1.61194,-0.65672l-0.65203,1.73486c0,0 -2.32707,1.80338 -5.98641,2.3822c-2.13652,0.33794 -3.75302,0.28591 -4.96758,0.13401c-2.74865,-0.34377 -3.43876,-1.44511 -3.43876,-1.44511l-1.63196,1.26881c0,0 -3.6145,0.24067 -6.76532,-1.48447c-5.12398,-2.80548 -4.61764,-7.12761 -4.61764,-7.12761z" fill="#f38285" stroke-width="0" stroke-linecap="round"/><path d="M267.71798,206.31176l3.70149,1.55224l0.2388,4.65672l-6.86567,5.73134l-1.61194,-0.65672l-0.65203,1.73486c0,0 -2.32707,1.80338 -5.98641,2.3822c-2.13652,0.33794 -3.75302,0.28591 -4.96758,0.13401c-0.22285,-0.02787 -0.43216,-0.06072 -0.62868,-0.09756c0.02518,-0.00304 0.05025,-0.00646 0.0752,-0.01024c6.80066,-0.64669 14.20208,-8.62997 11.24253,-15.36343c-0.07309,-0.1663 -0.17712,-0.34542 -0.30693,-0.53093c3.46385,0.17994 5.76122,0.4675 5.76122,0.4675z" fill="#e96698" stroke-width="0" stroke-linecap="butt"/><path d="M235.12096,213.05802c0,0 6.76025,-6.34543 13.9397,-7.02284c9.37832,-0.88488 18.65732,0.27657 18.65732,0.27657l3.70149,1.55224l0.2388,4.65672l-6.86567,5.73134l-1.61194,-0.65672l-0.65203,1.73486c0,0 -2.32707,1.80338 -5.98641,2.3822c-2.13652,0.33794 -3.75302,0.28591 -4.96758,0.13401c-2.74865,-0.34377 -3.43876,-1.44511 -3.43876,-1.44511l-1.63196,1.26881c0,0 -3.6145,0.24067 -6.76532,-1.48447c-5.12398,-2.80548 -4.61764,-7.12761 -4.61764,-7.12761z" fill="none" stroke-width="1" stroke-linecap="round"/></g><g stroke="#000000" stroke-linecap="round"><path d="M242.76817,204.92951c0,0 -1.79839,-1.99202 -0.07731,-3.09353c1.3992,-0.89551 3.70687,-1.88795 5.96446,-2.59128c2.83118,-0.88202 5.58358,-1.39265 6.36663,-1.63512c0.74163,-0.22964 2.0735,2.88356 2.0735,2.88356c0,0 1.03141,-3.00514 2.42991,-3.37901c2.73433,-0.73098 6.87198,1.00093 7.44808,1.71668c0.47584,0.5912 -1.44163,3.9896 -1.44163,3.9896c0,0 4.18826,3.91575 3.12738,7.50038c-1.47742,4.99204 -8.44581,6.57508 -12.07283,7.11781c-3.30133,0.494 -8.80761,0.38572 -11.05515,0.30834c-6.28639,-0.21645 -8.26293,-1.8853 -8.19329,-5.04676c0.03914,-1.77673 3.46662,-2.82522 3.46662,-2.82522c0,0 -7.5213,-5.1554 -6.05237,-6.524c1.24402,-1.15904 8.016,1.57855 8.016,1.57855z" fill="#000000" stroke-width="0"/><path d="M242.76817,204.92951c0,0 -1.79839,-1.99202 -0.07731,-3.09353c1.3992,-0.89551 3.70687,-1.88795 5.96446,-2.59128c2.83118,-0.88202 5.58358,-1.39265 6.36663,-1.63512c0.74163,-0.22964 2.0735,2.88356 2.0735,2.88356l0.21754,-0.43403l8.21883,2.7613c0,0 4.18826,3.91575 3.12738,7.50038c-1.47742,4.99204 -8.44581,6.57508 -12.07283,7.11781c-3.30133,0.494 -8.80761,0.38572 -11.05515,0.30834c-6.28639,-0.21645 -8.26293,-1.8853 -8.19329,-5.04676c0.03914,-1.77673 3.46662,-2.82522 3.46662,-2.82522c0,0 -2.02871,-1.39056 -3.77312,-2.91902c-0.20093,-0.17606 2.21603,-0.14898 4.22746,-0.67741c1.14692,-0.30131 1.50929,-1.34903 1.50929,-1.34903z" fill="#f27056" stroke-width="0"/><path d="M242.76817,204.92951c0,0 -1.79839,-1.99202 -0.07731,-3.09353c1.3992,-0.89551 3.70687,-1.88795 5.96446,-2.59128c2.83118,-0.88202 5.58358,-1.39265 6.36663,-1.63512c0.34716,-0.10749 0.82366,0.5175 1.23234,1.21278c-0.58997,0.93777 -1.58611,4.16649 -1.58611,4.6526c0,1.25222 0.92066,2.28941 2.12202,2.47161c1.11561,0.88592 7.11452,1.43814 7.11452,1.43814c0,0 -0.14055,1.54775 -1.15559,2.74304c-1.04954,1.23592 -2.9888,2.12518 -3.87284,2.40461c-3.7844,1.19619 -9.69857,1.94624 -13.26282,3.05875c-1.86527,0.5822 -2.70672,1.69465 -2.79523,1.93784c-4.15734,-0.57513 -5.53873,-2.17681 -5.48031,-4.82878c0.03914,-1.77673 3.46662,-2.82522 3.46662,-2.82522c0,0 -2.02871,-1.39056 -3.77312,-2.91902c-0.20093,-0.17606 2.21603,-0.14898 4.22746,-0.67741c1.14692,-0.30131 1.50929,-1.34903 1.50929,-1.34903z" fill="#f79d58" stroke-width="0"/><path d="M242.76817,204.92951c0,0 -1.79839,-1.99202 -0.07731,-3.09353c1.3992,-0.89551 3.70687,-1.88795 5.96446,-2.59128c2.83118,-0.88202 5.58358,-1.39265 6.36663,-1.63512c0.74163,-0.22964 2.0735,2.88356 2.0735,2.88356c0,0 1.03141,-3.00514 2.42991,-3.37901c2.73433,-0.73098 6.87198,1.00093 7.44808,1.71668c0.47584,0.5912 -1.44163,3.9896 -1.44163,3.9896c0,0 4.18826,3.91575 3.12738,7.50038c-1.47742,4.99204 -8.44581,6.57508 -12.07283,7.11781c-3.30133,0.494 -8.80761,0.38572 -11.05515,0.30834c-6.28639,-0.21645 -8.26293,-1.8853 -8.19329,-5.04676c0.03914,-1.77673 3.46662,-2.82522 3.46662,-2.82522c0,0 -7.5213,-5.1554 -6.05237,-6.524c1.24402,-1.15904 8.016,1.57855 8.016,1.57855z" fill="none" stroke-width="1"/></g><g stroke-linecap="butt"><path d="M259.46664,208.45758c0,0.75 -0.75,0.75 -0.75,0.75h-0.65753c-2.26319,0 -4.02548,1.10483 -6.19997,1.25883c-0.06716,0.00475 -0.13431,0.00893 -0.20147,0.01256c-1.81067,0.79746 -3.66124,1.5353 -5.67771,2.2475l-0.78385,0.14214c0,0 -0.73979,0.1233 -0.86309,-0.61649c-0.1233,-0.7398 0.61649,-0.86309 0.61649,-0.86309l0.53122,-0.07704c0.87152,-0.30739 1.71055,-0.61814 2.52791,-0.93593c-0.87633,-0.04101 -1.75198,-0.05337 -2.62684,0.05029c-0.12101,0.05034 -0.27293,0.08058 -0.43736,0.03557c-0.22684,-0.01952 -0.59641,-0.1307 -0.66888,-0.63799c-0.07701,-0.53912 0.29335,-0.74269 0.502,-0.81376l0.08909,-0.08765c0.44464,-0.36964 1.01401,-0.69204 1.65023,-0.99395c-0.43572,-0.02863 -0.87566,-0.0703 -1.32107,-0.12774c-0.13831,0.15299 -0.49594,0.45107 -0.97737,0.13011c-0.21227,-0.14151 -0.30419,-0.30708 -0.33309,-0.46398c-0.14828,-0.12935 -0.26773,-0.33916 -0.20865,-0.67395c0.11767,-0.66679 0.73109,-0.62538 0.84923,-0.61103c0.40033,-0.48777 0.83351,-0.92755 1.29178,-1.33208c-0.22539,0.01724 -0.45517,0.02738 -0.69009,0.02892c0,0 -0.75,0 -0.75,-0.75c0,-0.75 0.75,-0.75 0.75,-0.75c1.23567,0.01028 2.33223,-0.21314 3.39482,-0.4643c1.17759,-0.71587 2.41025,-1.37072 3.60937,-2.10937c0,0 0.63874,-0.39307 1.03181,0.24567c0.39308,0.63874 -0.24567,1.03182 -0.24567,1.03182c-0.08909,0.05478 -0.17851,0.10905 -0.26819,0.16289c0.6088,0.00762 1.24586,0.08152 1.92688,0.25248c0.04943,0.00401 0.10189,0.01259 0.15753,0.0265c0.20509,0.05127 0.33792,0.1459 0.42293,0.25537c0.08559,0.10902 0.14517,0.26084 0.14517,0.47224c0,0.13885 -0.0257,0.252 -0.0676,0.34419c-0.33432,1.12529 -1.02008,1.94527 -1.89436,2.5978c1.2479,-0.09924 2.5177,-0.18514 3.8421,-0.18514h0.3872c0.15911,-0.0183 0.3572,0.00351 0.52901,0.15598c0.11583,0.0842 0.21747,0.21385 0.25585,0.41348c0.05863,0.19466 0.02875,0.35667 -0.03478,0.485c-0.0817,0.21546 -0.24785,0.32673 -0.39765,0.38418c-0.19122,0.09932 -0.38136,0.19762 -0.57056,0.29495c0.23155,-0.02249 0.46713,-0.03497 0.70764,-0.03497h0.65753c0,0 0.75,0 0.75,0.75zM254.28139,207.61867c-1.45914,0.09792 -2.8793,0.2369 -4.30914,0.31075c-0.74844,0.30897 -1.50087,0.6108 -2.20481,0.9499c1.19152,0.04599 2.38308,0.14774 3.57893,0.10946c0.98147,-0.4349 1.95257,-0.88915 2.93502,-1.37011zM253.54298,203.81176c-1.54777,-0.2553 -2.8804,0.01485 -4.22454,0.34715c-1.07799,0.65041 -2.10471,1.3612 -2.98969,2.25527c1.26781,0.10519 2.49692,0.09003 3.71906,0.0249c1.50686,-0.66917 2.86726,-1.45468 3.49516,-2.62732z" fill="#feecf7" stroke="none" stroke-width="0.5"/><path d="M259.46664,208.45758c0,0.75 -0.75,0.75 -0.75,0.75h-0.65753c-2.26319,0 -4.02548,1.10483 -6.19997,1.25883c-0.06716,0.00475 -0.13431,0.00893 -0.20147,0.01256c-1.81067,0.79746 -3.66124,1.5353 -5.67771,2.2475l-0.78385,0.14214c0,0 -0.73979,0.1233 -0.86309,-0.61649c-0.1233,-0.7398 0.61649,-0.86309 0.61649,-0.86309l0.53122,-0.07704c0.87152,-0.30739 1.71055,-0.61814 2.52791,-0.93593c-0.87633,-0.04101 -1.75198,-0.05337 -2.62684,0.05029c-0.12101,0.05034 -0.27293,0.08058 -0.43736,0.03557c-0.22684,-0.01952 -0.59641,-0.1307 -0.66888,-0.63799c-0.07701,-0.53912 0.29335,-0.74269 0.502,-0.81376l0.08909,-0.08765c0.44464,-0.36964 1.01401,-0.69204 1.65023,-0.99395c-0.43572,-0.02863 -0.87566,-0.0703 -1.32107,-0.12774c-0.13831,0.15299 -0.49594,0.45107 -0.97737,0.13011c-0.21227,-0.14151 -0.30419,-0.30708 -0.33309,-0.46398c-0.14828,-0.12935 -0.26773,-0.33916 -0.20865,-0.67395c0.11767,-0.66679 0.73109,-0.62538 0.84923,-0.61103c0.40033,-0.48777 0.83351,-0.92755 1.29178,-1.33208c-0.22539,0.01724 -0.45517,0.02738 -0.69009,0.02892c0,0 -0.75,0 -0.75,-0.75c0,-0.75 0.75,-0.75 0.75,-0.75c1.23567,0.01028 2.33223,-0.21314 3.39482,-0.4643c1.17759,-0.71587 2.41025,-1.37072 3.60937,-2.10937c0,0 0.63874,-0.39307 1.03181,0.24567c0.39308,0.63874 -0.24567,1.03182 -0.24567,1.03182c-0.08909,0.05478 -0.17851,0.10905 -0.26819,0.16289c0.6088,0.00762 1.24586,0.08152 1.92688,0.25248c0.04943,0.00401 0.10189,0.01259 0.15753,0.0265c0.20509,0.05127 0.33792,0.1459 0.42293,0.25537c0.08559,0.10902 0.14517,0.26084 0.14517,0.47224c0,0.13885 -0.0257,0.252 -0.0676,0.34419c-0.33432,1.12529 -1.02008,1.94527 -1.89436,2.5978c1.2479,-0.09924 2.5177,-0.18514 3.8421,-0.18514h0.3872c0.15911,-0.0183 0.3572,0.00351 0.52901,0.15598c0.11583,0.0842 0.21747,0.21385 0.25585,0.41348c0.05863,0.19466 0.02875,0.35667 -0.03478,0.485c-0.0817,0.21546 -0.24785,0.32673 -0.39765,0.38418c-0.19122,0.09932 -0.38136,0.19762 -0.57056,0.29495c0.23155,-0.02249 0.46713,-0.03497 0.70764,-0.03497h0.65753c0,0 0.75,0 0.75,0.75zM254.28139,207.61867c-1.45914,0.09792 -2.8793,0.2369 -4.30914,0.31075c-0.74844,0.30897 -1.50087,0.6108 -2.20481,0.9499c1.19152,0.04599 2.38308,0.14774 3.57893,0.10946c0.98147,-0.4349 1.95257,-0.88915 2.93502,-1.37011zM253.54298,203.81176c-1.54777,-0.2553 -2.8804,0.01485 -4.22454,0.34715c-1.07799,0.65041 -2.10471,1.3612 -2.98969,2.25527c1.26781,0.10519 2.49692,0.09003 3.71906,0.0249c1.50686,-0.66917 2.86726,-1.45468 3.49516,-2.62732z" fill="none" stroke="#000000" stroke-width="1"/></g></g><path d="M252.37469,181.47593c0,0 1.14544,5.13147 1.387,6.16001c0.08071,0.34368 0.46818,0.84737 0.84354,1.01576c1.1914,0.53444 3.67648,1.6991 3.66467,2.60886c-0.0837,6.45125 -7.20864,5.55865 -7.20864,5.55865c0,0 -2.2595,-0.1262 -5.27676,0.48295c-4.154,0.83864 -9.69081,2.3761 -12.26055,1.25777c-7.58479,-3.30085 -8.43284,-9.44221 -8.43284,-9.44221l3.52239,-5.01493z" fill="#ff292e" stroke="#000000" stroke-width="0" stroke-linecap="round"/><path d="M252.37469,181.47593c0,0 0.58169,2.60595 1.00344,4.47594c-1.15948,-0.55114 -2.81951,-0.76949 -3.3915,-0.82669c-3.26379,-0.32638 -4.71593,4.04221 -4.32222,6.86383c-0.53455,-0.1348 -3.31126,1.24655 -6.17927,1.49585c-3.67061,0.31906 -7.68123,-0.41632 -9.37151,0.00625c-1.06725,0.26682 -1.6361,0.80933 -1.85759,1.4679c-2.7593,-2.90377 -3.16494,-5.8413 -3.16494,-5.8413l3.52239,-5.01493z" fill="#da0251" stroke="#000000" stroke-width="0" stroke-linecap="butt"/><path d="M258.2699,191.26056c-0.0837,6.45125 -7.20864,5.55865 -7.20864,5.55865c0,0 -0.40588,-0.02267 -1.1033,-0.00241c-0.70981,-0.80436 -1.7215,-1.48164 -2.48626,-1.55836c-0.02031,-0.00203 0.00728,-0.25492 0.02278,-0.5095c2.08116,0.78957 5.24073,-1.28524 6.66161,-3.45928c0.44439,-0.45128 0.71859,-1.07063 0.71859,-1.75403c0,-0.28923 -0.04912,-0.567 -0.13946,-0.8254c1.23269,0.55731 3.54606,1.67248 3.53467,2.55032z" fill="#da0251" stroke="#000000" stroke-width="0" stroke-linecap="butt"/><g stroke="#000000" stroke-linecap="round"><path d="M250.76276,196.81923c0,0 1.49661,0.30811 3.03891,0.02745c1.02193,-0.18597 2.26485,-0.96534 2.38189,-1.05764c0.48186,-0.37999 1.25734,-1.40527 1.57885,-2.32602c0.44105,-1.26311 0.34364,-2.43483 0.34364,-2.43483c0,0 1.46531,0.72504 2.16433,1.20437c0.69398,0.47587 2.01477,1.6613 2.01477,1.6613c0,0 -0.09066,2.34936 -1.9115,6.32914c-0.60534,1.32307 -2.21612,3.11309 -3.05562,3.9969c-0.31807,0.33486 -0.85793,0.47024 -1.3627,0.3053c-0.89895,-0.29374 -2.34424,-0.8905 -3.43059,-1.93798c-1.056,-1.01822 -2.6575,-3.32023 -2.6575,-3.32023l0.89552,-2.44777z" fill="#4ea5eb" stroke-width="0"/><path d="M257.7624,193.46301c0.44105,-1.26311 0.34364,-2.43483 0.34364,-2.43483c0,0 1.46532,0.72504 2.16433,1.20437c0.69398,0.47587 2.01477,1.6613 2.01477,1.6613c0,0 -0.09065,2.34936 -1.9115,6.32914c-0.60533,1.32307 -2.21612,3.11309 -3.05562,3.9969c-0.31807,0.33486 -0.85793,0.47024 -1.3627,0.3053c-0.89896,-0.29374 -2.34424,-0.89049 -3.43059,-1.93798c-1.056,-1.01822 -2.6575,-3.32023 -2.6575,-3.32023l0.35967,-0.98309c0.5308,1.44826 2.13044,2.6667 3.22616,3.11089c0.68211,0.27652 1.43659,0.47462 2.06698,0.16959c0.41709,-0.20182 0.77985,-0.75817 1.03137,-1.17611c1.13553,-1.88687 1.06956,-5.28718 1.06956,-5.53918c0,-0.27238 -0.04356,-0.5346 -0.1241,-0.78005c0.10477,-0.20182 0.19582,-0.40637 0.26553,-0.60601z" fill="#2e67e5" stroke-width="0"/><path d="M250.76276,196.81923c0,0 1.49661,0.30811 3.03891,0.02745c1.02193,-0.18597 2.26485,-0.96534 2.38189,-1.05764c0.48186,-0.37999 1.25734,-1.40527 1.57885,-2.32602c0.44105,-1.26311 0.34364,-2.43483 0.34364,-2.43483c0,0 1.46531,0.72504 2.16433,1.20437c0.69398,0.47587 2.01477,1.6613 2.01477,1.6613c0,0 -0.09066,2.34936 -1.9115,6.32914c-0.60534,1.32307 -2.21612,3.11309 -3.05562,3.9969c-0.31807,0.33486 -0.85793,0.47024 -1.3627,0.3053c-0.89895,-0.29374 -2.34424,-0.8905 -3.43059,-1.93798c-1.056,-1.01822 -2.6575,-3.32023 -2.6575,-3.32023l0.89552,-2.44777z" fill="none" stroke-width="1"/></g><path d="M252.37469,181.47593c0,0 1.14544,5.13147 1.387,6.16001c0.08071,0.34368 0.46818,0.84737 0.84354,1.01576c1.1914,0.53444 3.67648,1.6991 3.66467,2.60886c-0.0837,6.45125 -7.20864,5.55865 -7.20864,5.55865c0,0 -2.2595,-0.1262 -5.27676,0.48295c-4.154,0.83864 -9.69081,2.3761 -12.26055,1.25777c-7.58479,-3.30085 -8.43284,-9.44221 -8.43284,-9.44221l3.52239,-5.01493z" fill="none" stroke="#000000" stroke-width="1" stroke-linecap="round"/><path d="M249.38962,196.46101c0,0 -1.61153,-0.60774 -2.84307,-3.06521c-0.98359,-1.96272 -1.03752,-5.4124 -1.03752,-5.4124" fill="none" stroke="#000000" stroke-width="1" stroke-linecap="round"/><path d="M236.01648,192.87892l-2.62687,4.77612" fill="none" stroke="#000000" stroke-width="1" stroke-linecap="round"/><path d="M251.00156,196.87892l-0.95522,2.56717l-4.29851,-1.67164l-4.0597,5.01493l-4.53732,-2.86567l-3.70149,2.50746l-5.01493,-5.91045l-2.62687,1.01493l-0.47761,-5.85075l-1.55224,0.71641l-1.73134,-2.92537c0,0 2.27284,-0.18298 3.04186,-0.4321c0.60329,-0.19543 1.19694,-0.94103 1.19694,-0.94103l1.85074,5.91044l2.08956,-1.91044l4.1791,5.79104l3.94029,-2.38806l3.58209,2.80597l3.22388,-4l2.4457,0.93052c0,0 0.97034,0.93739 1.74575,1.24756c0.77751,0.31101 1.65929,0.38909 1.65929,0.38909z" fill="#feecf7" stroke="#000000" stroke-width="1" stroke-linecap="round"/><path d="M235.35976,194.25205l-3.64179,-5.97015l-2.20896,1.25373c0,0 -0.86267,-1.64693 -1.588,-3.4722c-0.52654,-1.32504 -1.15981,-2.9277 -1.15902,-4.58756c0.00108,-2.25784 1.48527,-4.36324 4.17896,-6.30647c2.01664,-1.45481 4.44878,-2.97616 8.87667,-3.54298c6.57486,-0.84165 10.45501,2.6785 11.99636,5.83043c1.08564,2.22005 0.68009,4.31759 0.68009,4.31759l-4.41791,0.0597l-6.08955,8.83582l-2.26865,-1.67165z" fill="#feecf7" stroke="#000000" stroke-width="1" stroke-linecap="round"/></g><path d="M192.06803,227.93197v-95.86394h95.86394v95.86394z" fill="none" stroke="none" stroke-width="0" stroke-linecap="butt"/><g stroke="#000000"><g stroke-linecap="butt"><path d="M261.51806,174.72891l0.53964,-2.27946c0,0 9.06096,-1.04039 11.11863,-0.0448c1.44451,0.69892 1.51893,4.96087 -1.08427,5.53956c-3.46671,0.77065 -10.57399,-3.2153 -10.57399,-3.2153z" fill="#0066cd" stroke-width="0"/><path d="M261.51807,174.72891l0.19153,-0.80901c0,0 2.05544,0.1528 4.09294,0.49067c1.57478,0.26115 2.94958,0.67992 4.54153,0.92951c1.89337,0.29684 3.71459,0.43879 3.69308,0.52151c-0.25518,0.98146 -0.87309,1.84433 -1.94507,2.08264c-3.46671,0.77066 -10.574,-3.21531 -10.574,-3.21531z" fill="#061483" stroke-width="0"/><path d="M261.51807,174.72891l0.53964,-2.27946c0,0 9.06096,-1.04038 11.11863,-0.04479c1.44452,0.69892 1.51893,4.96087 -1.08427,5.53956c-3.46671,0.77066 -10.574,-3.21531 -10.574,-3.21531z" fill="none" stroke-width="1"/></g><g stroke-linecap="round"><path d="M222.18968,179.96845c0,0 -9.83531,-24.20131 12.93987,-25.29903c23.35232,-1.12553 20.54557,19.68099 20.54557,19.68099c0,0 5.78532,-5.33592 6.72892,-4.84665c0.79647,0.41297 -0.1466,5.45951 -0.83096,7.41098c-0.5057,1.442 -1.13301,4.52769 -2.49825,4.80001c-0.85931,0.17139 -4.62626,-2.42103 -4.62626,-2.42103c0,0 -7.16324,4.66307 -13.87954,6.46745c-6.63224,1.7818 -16.32369,1.3778 -16.32369,1.3778c0,0 -7.2052,-0.34008 -7.5446,-2.78842c-0.28919,-2.08619 5.48893,-4.38212 5.48893,-4.38212z" fill="#fde0be" stroke-width="0"/><path d="M250.4693,181.61502c-0.03296,0.01774 -1.41885,-2.01014 -1.41885,-2.01014l-3.03193,2.76064l-5.30497,-6.92381l-6.57084,4.73597l-1.36617,-6.45466c0,0 -11.28552,4.20152 -11.29453,4.17166c-1.7755,-5.8851 -5.03101,-22.325 13.64751,-23.22526c23.35232,-1.12553 20.54557,19.68099 20.54557,19.68099c0,0 5.48519,3.88899 5.43419,4.05413c-0.44826,1.45183 -1.0492,3.1137 -2.03449,3.31022c-0.85931,0.17139 -4.62626,-2.42103 -4.62626,-2.42103c0,0 -1.59227,1.03652 -3.97926,2.32129z" fill="#fc988a" stroke-width="0"/><path d="M256.16229,175.80337l2.98087,-1.60165l-0.84629,5.03768z" fill="#f79587" stroke-width="0.5"/><path d="M235.12951,154.66943c23.35232,-1.12553 20.54557,19.68099 20.54557,19.68099c0,0 5.78532,-5.33592 6.72892,-4.84665c0.79647,0.41297 -0.1466,5.45951 -0.83096,7.41098c-0.5057,1.442 -1.13301,4.52769 -2.49825,4.80001c-0.85931,0.17139 -4.62626,-2.42103 -4.62626,-2.42103c0,0 -7.16324,4.66307 -13.87954,6.46745c-6.63224,1.7818 -16.32369,1.3778 -16.32369,1.3778c0,0 -7.2052,-0.34008 -7.5446,-2.78842c-0.28919,-2.08619 5.48893,-4.38212 5.48893,-4.38212c0,0 -9.8353,-24.20131 12.93988,-25.29902z" fill="none" stroke-width="1"/></g><g stroke-linecap="round"><path d="M261.35869,166.7515c0,0 -1.64772,3.53424 -2.66598,4.99991c-0.8793,1.26564 -3.08808,3.2824 -3.08808,3.2824c0,0 -11.10813,-4.35485 -18.62004,-4.73629c-7.6729,-0.38962 -17.46038,1.06833 -17.46038,1.06833c0,0 -4.79823,-17.59301 -1.37434,-20.50136c2.49311,-2.11772 9.92042,-4.45863 17.30584,-4.36195c3.36607,0.04406 12.99363,0.27124 16.30155,3.12844c4.43349,3.82941 9.60145,17.12052 9.60145,17.12052z" fill="#ff292e" stroke-width="0"/><path d="M261.35869,166.7515c0,0 -1.64772,3.53425 -2.66598,4.99991c-0.8793,1.26564 -3.08807,3.2824 -3.08807,3.2824c0,0 -5.37937,-2.10893 -11.1827,-3.52015c-0.15191,-0.03694 1.46606,-14.22795 4.04669,-19.95162c0.85456,-1.89534 2.46572,-2.64185 3.28862,-1.93107c4.4335,3.82942 9.60145,17.12053 9.60145,17.12053z" fill="#ac0e49" stroke-width="0.5"/><path d="M258.6927,171.75142c-0.8793,1.26564 -3.08807,3.2824 -3.08807,3.2824c0,0 -11.10813,-4.35485 -18.62005,-4.73627c-7.6729,-0.38962 -17.46037,1.06833 -17.46037,1.06833c0,0 -4.79823,-17.59302 -1.37434,-20.50136c2.49312,-2.11772 9.92042,-4.45863 17.30584,-4.36195c3.36607,0.04406 12.99363,0.27123 16.30153,3.12843c4.4335,3.82942 9.60145,17.12053 9.60145,17.12053c0,0 -1.64772,3.53424 -2.66598,4.9999z" fill="none" stroke-width="1"/></g><g stroke-linecap="round"><path d="M220.71152,176.97785c0,0 -3.77157,1.22451 -5.4768,2.01642c-1.73135,0.80403 -4.83415,2.77195 -4.83415,2.77195c0,0 1.31649,-3.97038 2.25591,-5.78428c0.89215,-1.72263 3.2461,-4.83945 3.2461,-4.83945l-9.46182,1.36606c0,0 7.83925,-13.31256 11.30491,-15.12353c2.06696,-1.08007 10.38686,3.34989 10.38686,3.34989c0,0 1.06091,-2.77194 1.84261,-4.08553c0.71182,-1.19617 2.65758,-3.47672 2.65758,-3.47672c0,0 1.98053,5.99778 3.24114,8.87858c1.31326,3.0011 4.48692,8.78192 4.48692,8.78192l14.96323,3.79342l-0.83371,6.77657l-6.16758,-5.72844l-2.32157,3.66247l-5.64037,-8.50402l-4.61969,4.46473l-1.51015,-4.9765c0,0 -10.77519,3.43308 -13.13967,4.82889c-0.64454,0.38048 -0.37973,1.8276 -0.37973,1.8276z" fill="#4fa6ec" stroke-width="0"/><path d="M223.12047,167.53529l-12.71991,14.23094c0,0 1.31649,-3.97038 2.2559,-5.78428c0.89214,-1.72263 3.2461,-4.83945 3.2461,-4.83945l-9.46181,1.36605c0,0 7.83924,-13.31256 11.30491,-15.12353c2.06695,-1.08008 10.38687,3.34989 10.38687,3.34989c0,0 1.0609,-2.77194 1.8426,-4.08553c0.71182,-1.19617 2.65758,-3.47671 2.65758,-3.47671l-1.59689,12.00473c0,0 -9.33006,-3.71407 -11.49906,-3.22806c-3.40416,0.76276 -7.69705,8.10069 -7.69705,8.10069z" fill="#66ffff" stroke-width="0"/><path d="M245.59652,173.76526l-0.39595,4.36487l-3.4176,-5.15274z" fill="#66ffff" stroke-width="0"/><path d="M210.40058,181.76622c0,0 1.31649,-3.97038 2.2559,-5.78428c0.89214,-1.72263 3.2461,-4.83945 3.2461,-4.83945l-9.46181,1.36605c0,0 7.83924,-13.31256 11.30491,-15.12353c2.06695,-1.08008 10.38687,3.34989 10.38687,3.34989c0,0 1.0609,-2.77194 1.8426,-4.08553c0.71182,-1.19617 2.65758,-3.47671 2.65758,-3.47671c0,0 1.98052,5.99777 3.24113,8.87857c1.31325,3.0011 4.48692,8.78192 4.48692,8.78192l14.96323,3.79342l-0.83371,6.77657l-6.16758,-5.72843l-2.32158,3.66247l-5.64038,-8.50402l-4.6197,4.46473l-1.51015,-4.9765c0,0 -10.77519,3.43308 -13.13967,4.82889c-0.64454,0.38048 -0.37973,1.8276 -0.37973,1.8276c0,0 -3.77155,1.22451 -5.47679,2.01642c-1.70524,0.79191 -4.83416,2.77192 -4.83416,2.77192z" fill="none" stroke-width="1"/></g></g><path d="M247.17997,176.55929l1.47625,2.93268l7.46687,-4.64827l-1.06876,4.13102l3.03819,1.89127l-4.64561,0.66956l-1.44986,1.7436l-3.60586,-0.93657l-3.60783,4.46432l-1.0691,-2.63764c0,0 1.16904,-3.18554 1.78613,-4.54049c0.52229,-1.14684 1.67961,-3.06947 1.67961,-3.06947z" fill="#feecf7" stroke="#000000" stroke-width="1" stroke-linecap="round"/><g stroke-linecap="butt"><path d="M231.78248,176.66909l-0.07581,-0.59876c-1.41461,-0.74096 -2.68435,-1.78292 -4.04204,-2.57813c-1.288,-0.6816 -3.66004,-2.29118 -4.73837,-3.66763c-1.34899,-1.72193 -0.92848,-3.18174 -0.92848,-3.18174c0,0 0.58394,0.94647 0.65636,1.11731c0.10728,0.07046 0.169,0.15686 0.169,0.15686c0.24232,0.33988 0.53287,0.66751 0.86136,0.98268c0.19135,0.15845 0.37897,0.31472 0.53707,0.47764c2.20899,1.82989 5.6141,3.19959 7.93303,4.06561c0.99369,0.37264 2.9758,0.60368 3.57391,1.57304c0.53094,0.86048 0.26737,1.38852 -0.27711,1.6577c-0.13087,1.63645 -0.61242,4.11672 -1.69154,4.81372c-1.74115,1.1246 -4.85455,0.52813 -6.22686,-0.8279c-0.55785,-0.67364 -0.98588,-1.25907 -1.49275,-1.97221l-0.38945,-0.89294c0,0 2.67828,-0.71589 2.76342,-0.57052c1.71344,1.97016 4.36629,3.43741 3.36826,-0.55472z" fill="#000000" stroke="none" stroke-width="0.5"/><path d="M251.19023,157.58466c0,0 -5.28486,6.26483 -6.56754,7.91722c-1.71012,2.5427 -3.24923,5.36332 -4.10999,7.98011c-0.40801,1.08474 -1.0399,2.12253 -0.79712,3.34431c0.11504,0.57892 1.05839,2.51603 1.91809,1.47298c0.2993,-0.36313 0.07589,-1.92335 0.09577,-2.56556c-0.02598,-0.16374 0.03158,-0.29143 0.10416,-0.38306c0.05902,-0.09381 2.62047,-2.00251 2.77347,-2.01505c0.10301,-0.01648 0.22984,-0.01138 0.34901,0.06259c0.12335,0.06677 0.19071,0.17436 0.2275,0.27197c0.06065,0.1297 0.06656,0.24325 0.04427,0.33914v0.02997c0,1.79563 -0.59514,4.77944 -1.94737,6.11812c-2.16575,2.14409 -5.01305,-0.05391 -5.90541,-2.15595c-0.67087,-2.97384 1.95156,-8.5326 4.48697,-12.13455c0.77948,-1.10737 3.88154,-4.58864 6.19124,-6.51807c1.89451,-1.58259 3.13695,-1.76417 3.13695,-1.76417z" fill="#000000" stroke="none" stroke-width="0.5"/><path d="M239.81187,183.82977c1.32395,1.67474 1.62702,3.64125 0.67693,4.39235c-0.95008,0.75109 -2.79356,0.00231 -4.11751,-1.67242c-1.32395,-1.67474 -1.62702,-3.64124 -0.67692,-4.39234c0.95008,-0.75109 2.79356,-0.00232 4.11751,1.67241z" fill="#ff6666" stroke="#000000" stroke-width="1"/></g><g><path d="M204.83448,190.25168c0.7594,-1.59162 2.66528,-2.26624 4.25689,-1.50684c1.59162,0.7594 2.26622,2.66526 1.50682,4.25688c-0.7594,1.59162 -2.66526,2.26622 -4.25687,1.50683c-1.59162,-0.7594 -2.26624,-2.66527 -1.50685,-4.25687z" fill="#3f5479" stroke="#000000" stroke-width="1" stroke-linecap="butt"/><path d="M225.7774,183.25655c3.75652,2.7124 2.83425,12.67971 -1.44215,15.51332c-1.64594,1.09061 -3.75678,0.85628 -5.25715,-0.224c-0.13638,-0.09818 -0.72494,-1.43074 -0.7938,-1.40584c-0.38921,0.14086 -0.96435,1.23606 -2.03693,1.41601c-1.44885,0.2431 -3.41776,-0.44316 -3.41776,-0.44316c0,0 -2.97041,1.29314 -3.7313,0.45397c-3.9491,-4.35516 -2.30141,-9.68782 0.41685,-12.08472c0.70963,-0.62574 3.61939,-0.73876 5.1664,-1.38514c1.41596,-0.59164 0.75004,-1.3222 1.77734,-1.3672c0.23295,-0.01021 1.01889,-0.05829 1.70139,0.20652c0.75458,0.29275 1.4419,0.89626 2.42626,0.76869c2.0514,-0.26581 3.14319,-2.92701 5.19085,-1.44851z" fill="#fde0be" stroke="#000000" stroke-width="0" stroke-linecap="butt"/><path d="M214.66763,198.85048c4.03079,-5.15249 13.93918,-1.02816 10.56273,3.9345c-1.72153,2.53028 -3.67965,0.88438 -5.87203,0.54567c-0.1678,-0.02592 -0.34081,-0.00966 -0.52027,0.03182c-0.81311,0.76292 -2.04187,0.99204 -3.10882,0.48296c-0.19592,-0.09347 -0.37593,-0.20686 -0.53874,-0.33654c-0.87806,-0.69943 -1.25647,-1.87358 -0.93683,-2.96182c-0.15685,-0.62784 0.17319,-1.15162 0.4184,-1.66555z" fill="#f89688" stroke="#000000" stroke-width="1" stroke-linecap="butt"/><path d="M224.33527,198.76985c-1.64594,1.09061 -3.75678,0.85628 -5.25714,-0.22399c-0.13638,-0.09818 -0.72494,-1.43074 -0.7938,-1.40584c-0.38921,0.14086 -0.96435,1.23606 -2.03693,1.41601c-1.44885,0.24308 -3.41776,-0.44316 -3.41776,-0.44316c0,0 -2.97041,1.29314 -3.7313,0.45397c-0.71031,-0.78334 -1.23955,-1.59834 -1.61409,-2.42216c1.51863,-1.06603 2.7606,-1.75504 3.61655,-3.54902c0.2844,-0.59606 1.26583,-2.08015 1.43727,-2.69515c0.60866,-0.0569 0.50965,-0.04294 1.13735,-0.15675c-0.07319,0.21758 -0.12575,0.44074 -0.15594,0.66927c-0.0439,0.33214 -0.04561,0.68715 -0.01007,1.04878c-0.48529,1.33342 0.11344,2.84259 1.42044,3.46621c0.18368,0.08764 0.37214,0.15339 0.56246,0.19834c0.71544,0.38951 1.56011,0.3136 2.42762,-0.57609c0.11481,-0.09597 0.22255,-0.20185 0.32183,-0.31708c0.26389,0.56494 0.71797,1.0452 1.32466,1.33468c0.11599,0.05535 0.2339,0.10196 0.35297,0.14012c0.69599,0.22304 1.43198,0.15699 2.0598,-0.14573c1.63189,-0.34306 3.76931,-1.11116 5.63084,-2.03562c-0.60345,2.23083 -1.71638,4.21065 -3.27469,5.24319z" fill="#f89688" stroke="#000000" stroke-width="0" stroke-linecap="butt"/><path d="M212.66805,189.07553l0.98364,1.70479c0,0 -0.89877,2.227 -0.97037,3.33248c-0.08029,1.23966 0.23723,3.61818 0.23723,3.61818" fill="none" stroke="#000000" stroke-width="1" stroke-linecap="round"/><path d="M219.02196,189.4116l0.80067,1.61749c0,0 -0.97486,1.76943 -1.2588,2.94512c-0.2915,1.20694 -0.38501,3.79566 -0.38501,3.79566" fill="none" stroke="#000000" stroke-width="1" stroke-linecap="round"/><path d="M225.7774,183.25655c3.75652,2.7124 2.83426,12.6797 -1.44214,15.51332c-1.64594,1.09061 -3.75678,0.85628 -5.25714,-0.22399c-0.13638,-0.09818 -0.72494,-1.43074 -0.7938,-1.40584c-0.38921,0.14086 -0.96435,1.23606 -2.03693,1.41601c-1.44885,0.24308 -3.41776,-0.44316 -3.41776,-0.44316c0,0 -2.97041,1.29314 -3.7313,0.45397c-3.9491,-4.35516 -2.30141,-9.68782 0.41685,-12.08472c0.70965,-0.62574 3.61939,-0.73876 5.1664,-1.38514c1.41596,-0.59164 0.75004,-1.3222 1.77734,-1.3672c0.24278,-0.01065 0.88025,-0.12195 1.60557,0.15262c0.74015,0.28018 1.57524,0.94529 2.52209,0.8226c2.0514,-0.2658 3.14319,-2.92701 5.19085,-1.44851z" fill="none" stroke="#000000" stroke-width="1" stroke-linecap="butt"/><path d="M223.338,191.72362c1.49469,-3.13268 4.20563,-4.61995 6.55513,-3.49894c2.34952,1.12102 3.04249,4.56934 1.54779,7.70203c-1.49469,3.13268 -3.9748,4.84239 -6.32432,3.72136c-2.34952,-1.12102 -3.2733,-4.79177 -1.77861,-7.92445z" fill="#93c0c3" stroke="none" stroke-width="0" stroke-linecap="butt"/><path d="M225.1166,199.64809c-2.26773,-1.08199 -3.20726,-4.53929 -1.92594,-7.59546c2.72836,1.33134 5.41844,2.74225 8.14524,4.08866c-1.50403,2.99552 -3.92401,4.60198 -6.21931,3.50682z" fill="#475f86" stroke="none" stroke-width="0" stroke-linecap="butt"/><path d="M224.4648,189.92889c0.71921,0.44843 1.92068,0.62949 2.40162,0.83884c1.06807,0.46491 3.29693,1.75777 5.35064,2.21773c-0.04124,0.69434 -0.18576,1.41461 -0.43965,2.13034c-2.70743,-1.33762 -5.37889,-2.7381 -8.08806,-4.06053c0.23764,-0.41134 0.49766,-0.78771 0.77545,-1.12638z" fill="#475f86" stroke="none" stroke-width="0" stroke-linecap="butt"/><path d="M223.338,191.72362c1.49469,-3.13268 4.20563,-4.61995 6.55513,-3.49894c2.34952,1.12102 3.04249,4.56934 1.54779,7.70203c-1.49469,3.13268 -3.9748,4.84239 -6.32432,3.72136c-2.34952,-1.12102 -3.2733,-4.79177 -1.77861,-7.92445z" fill="none" stroke="#000000" stroke-width="1" stroke-linecap="butt"/><path d="M226.56279,192.02677c2.09739,-4.39586 7.15492,-6.69452 11.24761,-4.74179c4.09271,1.95275 4.97414,6.52347 2.87675,10.91934c-2.09739,4.39586 -7.11545,6.3764 -11.20814,4.42366c-4.09269,-1.95275 -5.01361,-6.20533 -2.9162,-10.6012z" fill="#3f5479" stroke="#000000" stroke-width="0" stroke-linecap="butt"/><path d="M240.68717,198.20435c-2.09739,4.39586 -7.11545,6.3764 -11.20814,4.42366c-3.47415,-1.65761 -4.6628,-4.97247 -3.65982,-8.62542c0.1336,0.15246 0.28531,0.2997 0.45626,0.44084c3.66486,3.02574 11.07323,5.22966 15.19371,1.62953c-0.18237,0.70716 -0.44335,1.42154 -0.78203,2.13136z" fill="#323344" stroke="#000000" stroke-width="0" stroke-linecap="butt"/><path d="M236.35303,188.16206c0.19888,-0.41684 0.69804,-0.59354 1.11489,-0.39464c0.41685,0.19888 0.59353,0.69805 0.39464,1.11489c-0.19888,0.41684 -0.69804,0.59354 -1.11489,0.39464c-0.41685,-0.19888 -0.59353,-0.69805 -0.39464,-1.11489z" fill="#95c2c5" stroke="none" stroke-width="0.5" stroke-linecap="butt"/><path d="M226.56279,192.02677c2.09739,-4.39586 7.15492,-6.69452 11.24761,-4.74179c4.09271,1.95275 4.97414,6.52347 2.87675,10.91934c-2.09739,4.39586 -7.11545,6.3764 -11.20814,4.42366c-4.09269,-1.95275 -5.01361,-6.20533 -2.9162,-10.6012z" fill="none" stroke="#000000" stroke-width="1" stroke-linecap="butt"/><path d="M239.12486,199.94277c0,0 -2.19796,1.8113 -6.88803,-0.18995c-2.58495,-1.10298 -5.60996,-2.74629 -5.60996,-2.74629" fill="none" stroke="#000000" stroke-width="1" stroke-linecap="round"/><path d="M240.63408,197.94485c0,0 -2.57812,-0.43394 -4.24477,-0.97761c-2.64258,-0.86201 -10.08078,-3.69545 -10.08078,-3.69545" fill="none" stroke="#000000" stroke-width="1" stroke-linecap="round"/><path d="M226.94755,191.41461c0,0 4.15627,-1.05294 8.12905,0.46846c3.38171,1.29506 6.17479,4.37954 6.17479,4.37954" fill="none" stroke="#000000" stroke-width="1" stroke-linecap="round"/><path d="M229.03757,188.45836c0,0 3.63786,-0.84592 6.6978,0.51435c3.07495,1.36696 5.98335,4.23896 5.98335,4.23896" fill="none" stroke="#000000" stroke-width="1" stroke-linecap="round"/><path d="M228.15286,201.31744c0,0 -1.65286,-3.91283 -0.54546,-7.85161c0.64025,-2.27724 3.63137,-5.99575 3.63137,-5.99575" fill="none" stroke="#000000" stroke-width="1" stroke-linecap="round"/><path d="M230.29483,202.52475c0,0 -1.14497,-5.26065 0.17601,-8.75148c1.03061,-2.72347 5.09495,-6.95667 5.09495,-6.95667" fill="none" stroke="#000000" stroke-width="1" stroke-linecap="round"/><path d="M233.31949,202.91778c0,0 -1.66006,-1.77733 1.70204,-9.46042c1.08217,-2.47297 3.90862,-5.40613 3.90862,-5.40613" fill="none" stroke="#000000" stroke-width="1" stroke-linecap="round"/><path d="M241.26917,191.82345l-4.77071,10.38725" fill="none" stroke="#000000" stroke-width="1" stroke-linecap="round"/></g></g></g></svg>