<svg version="1.1" xmlns="http://www.w3.org/2000/svg" xmlns:xlink="http://www.w3.org/1999/xlink" width="374.77477" height="288.28829" viewBox="0,0,374.77477,288.28829"><g transform="translate(-52.61265,-35.85585)"><g data-paper-data="{&quot;isPaintingLayer&quot;:true}" fill-rule="nonzero" stroke-linejoin="miter" stroke-miterlimit="10" stroke-dasharray="" stroke-dashoffset="0" style="mix-blend-mode: normal"><g data-paper-data="{&quot;origRot&quot;:0}" stroke="#000000" stroke-linecap="round"><path d="M250.35768,221.31563c0,0 0.44698,-4.77985 1.97854,-4.59025c4.51939,0.55952 9.08614,-0.58233 13.11868,1.53342c1.67452,0.87856 1.90119,5.16125 1.90119,5.16125l0.67007,33.101c0,0 0.11374,3.41702 0.1099,5.38261c-0.00411,2.10155 -1.39208,5.10608 -3.48896,4.96588c-7.69908,-0.51469 -12.59006,0.58315 -17.30353,-0.963c-1.71719,-0.56329 -3.50262,-1.27382 -4.03052,-3.00223c-0.68961,-2.25775 0.47274,-6.58612 0.47274,-6.58612z" data-paper-data="{&quot;origPos&quot;:null}" fill="#ff0000" stroke-width="3"/><path d="M267.82552,265.24181c0,0 -6.16461,2.03475 -11.22759,1.54042c-3.88449,-0.37926 -12.19856,-2.21979 -12.19856,-2.21979c0,0 -1.09301,-2.72664 -1.02613,-4.3279c0.07043,-1.68684 1.37792,-4.09748 1.37792,-4.09748l23.27745,1.47151z" data-paper-data="{&quot;origPos&quot;:null}" fill="#976e57" stroke-width="2"/><path d="M250.40752,221.64285c0,0 0.44698,-4.77985 1.97854,-4.59023c4.51938,0.55951 9.08614,-0.58233 13.11869,1.53343c1.67452,0.87856 1.90119,5.16124 1.90119,5.16124l0.67006,33.10101c0,0 0.11376,3.41702 0.10992,5.38261c-0.00411,2.10155 -1.39209,5.10608 -3.48897,4.96589c-7.69908,-0.51469 -12.59006,0.58317 -17.30352,-0.96299c-1.71719,-0.56329 -3.50261,-1.27385 -4.03052,-3.00223c-0.68961,-2.25775 0.47273,-6.58612 0.47273,-6.58612z" data-paper-data="{&quot;origPos&quot;:null}" fill="#4b4b4b" stroke-width="3"/></g><path d="M216.27763,262.18908c0,0 -2.98387,3.34401 -5.25037,4.00427c-1.7351,0.50546 -3.30778,-0.59873 -4.71991,-1.72653c-3.8761,-3.09566 -5.63769,-7.78862 -10.28691,-13.94699c-1.26625,-1.67726 0.48657,-4.48463 2.24228,-5.6396c1.64213,-1.08024 4.56284,-2.85742 4.56284,-2.85742l28.05667,-17.57696c0,0 3.70672,-2.15707 5.35919,-1.2377c3.97946,2.21397 5.52663,6.6598 8.47102,10.13375c0.99781,1.17727 -2.75567,4.17026 -2.75567,4.17026c0,0 -6.49317,6.23976 -10.64915,10.23353c-5.86565,5.63673 -15.03001,14.4434 -15.03001,14.4434z" fill="#4b4b4b" stroke="#000000" stroke-width="3" stroke-linecap="round"/><g stroke="#000000" stroke-linecap="round"><path d="M234.38513,199.91858c0,0 -28.22914,5.91484 -28.27891,-12.06568c-0.01835,-6.62461 16.21325,-5.02736 16.21325,-5.02736z" data-paper-data="{&quot;origPos&quot;:null}" fill="#66c8ff" stroke-width="2"/><path d="M226.34129,188.22997c0,0 -15.91916,-1.89997 -15.71052,-2.51368c0.66156,-1.94585 12.44273,-1.38252 12.44273,-1.38252z" data-paper-data="{&quot;origPos&quot;:null}" fill="#0a0a0a" stroke-width="1"/></g><g><g><path d="M226.24419,194.32381c0,0 3.79865,-14.03456 6.00908,-14.29716c6.63128,-0.78784 21.18159,2.05929 30.98752,3.34552c1.5159,0.19884 1.06486,13.78899 1.06486,13.78899l-2.21778,30.59967c0,0 -1.70413,14.86257 -3.35781,14.64566c-14.72087,-1.93092 -32.0856,-3.34872 -38.53764,-5.04316c-2.15067,-0.5648 0.7197,-16.08104 0.7197,-16.08104z" data-paper-data="{&quot;origPos&quot;:null}" fill="#66c8ff" stroke="#000000" stroke-width="3.5" stroke-linecap="round"/><path d="M243.8627,204.90383c-1.2807,-0.16798 -0.95719,-2.63436 -0.95719,-2.63436c0.67099,-5.11543 1.55765,-11.87513 2.22865,-16.99056c0,0 0.32351,-2.46636 1.60421,-2.29837c1.2807,0.16798 0.95719,2.63436 0.95719,2.63436c-0.67099,5.11543 -1.34197,10.23087 -2.01296,15.34632l-0.21567,1.64425c0,0 -0.32352,2.46636 -1.60422,2.29838z" fill="#ffffff" stroke="none" stroke-width="0.5" stroke-linecap="butt"/><path d="M254.9371,212.74406c-1.2807,-0.16798 -0.87428,-3.26645 -0.87428,-3.26645c0.84295,-6.42643 1.95685,-14.91849 2.7998,-21.34492c0,0 0.40643,-3.09846 1.68712,-2.93048c1.2807,0.16798 0.87427,3.26645 0.87427,3.26645c-0.84295,6.42643 -1.68589,12.85286 -2.52885,19.2793l-0.27095,2.06564c0,0 -0.40642,3.09846 -1.68711,2.93048z" fill="#ffffff" stroke="none" stroke-width="0.5" stroke-linecap="butt"/></g><g fill="none" stroke="#b9b9b9" stroke-width="3"><path d="M260.42918,188.081c-0.64387,-1.45418 0.42041,-2.5446 1.79138,-3.59324c1.37098,-1.04862 2.63633,-1.25776 3.17339,-0.20418c1.13869,2.23388 -0.46486,3.00743 -1.53837,3.82853c-1.37099,1.04863 -2.51708,2.02258 -3.4264,-0.03109z" stroke-linecap="butt"/><path d="M261.48191,187.62325l-2.89563,2.16121" stroke-linecap="round"/><path d="M254.98806,189.94723c1.37098,-1.04862 2.63634,-1.25775 3.1734,-0.20417c1.13869,2.23388 -0.46487,3.00743 -1.53838,3.82853c-1.37098,1.04862 -2.51707,2.02258 -3.42637,-0.0311c-0.64387,-1.45418 0.42039,-2.5446 1.79136,-3.59325z" stroke-linecap="butt"/><path d="M254.24941,193.08273l-2.89563,2.16122" stroke-linecap="round"/><path d="M245.83805,194.06434c0.6099,-1.56908 1.91648,-1.24177 3.36371,-0.58918c1.44723,0.6526 2.28036,1.74698 1.8772,2.95239c-0.85483,2.5558 -2.24749,1.49869 -3.3807,0.98771c-1.44723,-0.65259 -2.72154,-1.13496 -1.86019,-3.3509z" stroke-linecap="butt"/><path d="M243.69795,193.37772l3.02118,1.41308" stroke-linecap="round"/><path d="M239.26858,188.78937c1.05667,-1.1894 2.11911,-0.25619 3.20152,1.0512c1.08241,1.30738 1.47149,2.7383 0.71825,3.68327c-1.59707,2.00359 -2.49893,0.34052 -3.3465,-0.6832c-1.08241,-1.30739 -2.06552,-2.37152 -0.57327,-4.05124z" stroke-linecap="butt"/><path d="M237.57731,187.11884l2.24307,2.77714" stroke-linecap="round"/><path d="M233.61664,181.87094c1.05666,-1.18938 2.11913,-0.25619 3.20153,1.0512c1.08243,1.30738 1.47148,2.7383 0.71825,3.68328c-1.59707,2.00358 -2.49892,0.3405 -3.34649,-0.68322c-1.08241,-1.30738 -2.06552,-2.3715 -0.57327,-4.05123z" stroke-linecap="butt"/><path d="M234.16847,182.9775l-2.24308,-2.77713" stroke-linecap="round"/></g></g><path d="M52.61265,324.14414v-288.28829h374.77477v288.28829z" fill="none" stroke="none" stroke-width="NaN" stroke-linecap="butt"/><g><g data-paper-data="{&quot;index&quot;:null}" stroke="#000000" stroke-width="2.5" stroke-linecap="round"><path d="M226.63454,155.32259c1.39832,-4.37193 4.35513,-5.42734 4.35513,-5.42734c0,0 2.66963,-1.53612 4.24289,-1.46228c4.71982,0.22162 18.15357,1.48525 29.62525,3.64616c0.38285,0.07212 0.59542,0.12654 0.97332,0.22132c1.13364,0.28439 5.51398,1.58214 5.51398,1.58214c0,0 1.35669,3.4308 1.65681,5.24927c0.90037,5.45536 -2.01709,18.78303 -3.91375,32.93989c-0.17188,1.28314 -2.1165,3.3117 -2.1165,3.3117c0,0 -3.36521,1.24078 -5.38385,0.98154c-13.05084,-1.67594 -27.4845,-3.57828 -30.76193,-4.22969c-1.09248,-0.21712 -3.54953,-0.97515 -5.17391,-2.53595c-1.6244,-1.56081 -3.02188,-3.31929 -2.84923,-5.17322c0.17264,-1.85396 2.30177,-24.31992 3.83179,-29.10354z" fill="#582700"/><path d="M228.23731,140.96159c1.39832,-4.37193 4.35511,-5.42731 4.35511,-5.42731c0,0 2.66964,-1.53612 4.24293,-1.46224c4.71984,0.22162 18.15358,1.48522 29.62525,3.64616c0.38286,0.07209 0.59542,0.12654 0.97332,0.22132c1.13364,0.28439 5.51398,1.58214 5.51398,1.58214c0,0 1.35669,3.43081 1.65681,5.24927c0.90037,5.45536 -2.01709,18.78303 -3.91372,32.93989c-0.17188,1.28314 -2.11647,3.31167 -2.11647,3.31167c0,0 -3.36521,1.2408 -5.38385,0.98157c-13.05084,-1.67594 -27.4845,-3.57828 -30.76193,-4.22969c-1.09248,-0.21715 -3.54954,-0.97514 -5.17392,-2.53599c-1.6244,-1.56081 -3.02188,-3.31926 -2.84926,-5.17322c0.17262,-1.85393 2.30179,-24.31992 3.83178,-29.10357z" fill="#000000"/></g><path d="M235.91244,176.79022c4.93359,-1.38958 8.93293,0.67426 10.01321,4.42346c1.23897,4.29989 -2.9113,6.26591 -2.9113,6.26591c0,0 -2.42157,-1.05883 -5.6067,-1.66258c-3.966,-0.75177 -6.22235,-0.62466 -6.22235,-0.62466c0,0 -1.96579,-6.51702 4.72714,-8.40214z" fill="#ffffff" stroke="#000000" stroke-width="2" stroke-linecap="butt"/><path d="M262.2475,180.1979c5.55527,3.54117 1.0405,9.18196 1.0405,9.18196c0,0 -2.08011,-0.71343 -6.134,-1.04602c-3.25572,-0.2671 -5.97552,0.09658 -5.97552,0.09658c0,0 -3.11978,-2.94899 -0.19583,-6.68603c2.54949,-3.25842 7.16987,-4.1568 11.26485,-1.5465z" data-paper-data="{&quot;index&quot;:null}" fill="#ffffff" stroke="#000000" stroke-width="2" stroke-linecap="butt"/><path d="M237.81431,186.48124l-0.40442,-0.08707c-0.87779,0.04072 -1.89673,-0.04266 -2.62803,-0.50351c-0.27272,0.56984 -0.86159,1.17829 -1.01035,1.18575c-2.21461,0.1111 -1.19242,-1.14399 -1.16605,-1.66174c0.01231,-0.24171 -0.50757,-0.47627 -0.655,-0.56844c0,0 -0.05194,-0.03468 -0.11129,-0.09481c-0.16015,0.00033 -0.30911,-0.00042 -0.44188,-0.00406c0,0 -1.1032,-0.03141 -1.08468,-0.86513c0.01852,-0.83373 1.12171,-0.80232 1.12171,-0.80232c1.32478,0.03896 3.09302,-0.01316 4.31824,0.43662c0.55886,0.20516 0.95542,0.62244 1.51757,0.82225c0.5178,0.18402 1.08935,0.26247 1.61783,0.42747l0.6955,0.3224c0,0 0.93645,0.45588 0.35298,1.15463c-0.58347,0.69876 -1.51991,0.24287 -1.51991,0.24287l-0.09229,-0.04935c-0.24438,0.08555 -0.50993,0.04443 -0.50993,0.04443z" fill="#000000" stroke="none" stroke-width="0.5" stroke-linecap="butt"/><path d="M253.81358,188.63395c0,0 -0.26946,-0.01704 -0.47792,-0.15184l-0.10489,0.02791c0,0 -1.0499,0.23989 -1.38913,-0.55919c-0.33922,-0.79907 0.71068,-1.03897 0.71068,-1.03897l0.77458,-0.16255c0.56293,-0.04632 1.1397,0.0001 1.69843,-0.06687c0.60657,-0.07271 1.12305,-0.39073 1.72818,-0.46932c1.32665,-0.1723 3.01657,0.25584 4.30768,0.50132c0,0 1.07481,0.20541 0.82553,1.01405c-0.24929,0.80863 -1.32411,0.60321 -1.32411,0.60321c-0.12932,-0.02486 -0.27334,-0.05597 -0.4278,-0.0905c-0.07655,0.04536 -0.13779,0.06772 -0.13779,0.06772c-0.17184,0.05745 -0.74876,0.17275 -0.81433,0.40867c-0.14047,0.50534 0.44393,1.93512 -1.65792,1.35468c-0.14116,-0.03898 -0.51456,-0.75206 -0.59517,-1.36032c-0.85351,0.28853 -1.86365,0.1513 -2.69782,-0.07557l-0.41823,-0.00239z" data-paper-data="{&quot;index&quot;:null}" fill="#000000" stroke="none" stroke-width="0.5" stroke-linecap="butt"/><g data-paper-data="{&quot;index&quot;:null}" stroke="#000000" stroke-width="1" stroke-linecap="butt"><path d="M230.62156,197.60318c-9.38309,-3.62368 -3.21642,-12.54103 -3.21642,-12.54103l14.0152,5.27048c0,0 -0.86461,11.10705 -10.79879,7.27054z" fill="#000000"/><path d="M230.55664,194.24102c2.28874,1.74935 3.6535,4.17668 3.2035,4.13773c-0.92992,-0.0805 -1.97168,-0.32497 -3.13857,-0.7756c-3.49723,-1.35059 -4.83433,-3.4366 -5.13569,-5.52217c-0.05855,-0.40517 2.96905,0.55362 5.07076,2.16004z" fill="#ff8484"/><path d="M225.98729,188.31538c0.54782,-1.34082 1.41786,-3.25323 1.41786,-3.25323l12.31734,4.63198l-1.22854,3.43215c0,0 -12.52471,-4.76669 -12.50666,-4.81089z" fill="#ffffff"/></g><path d="M226.16715,191.49736c0.41765,-0.32161 0.93743,-0.04476 0.93743,-0.04476l0.40276,0.24121c1.78386,1.58888 4.63705,2.26125 6.76146,3.39391c0.74559,0.39752 2.27312,1.00811 2.63179,1.85791c0.02365,0.05605 0.04509,0.11275 0.06456,0.17002l0.02934,-0.01373l0.44361,0.94752c0.06161,0.12472 0.09466,0.26582 0.09083,0.41454c-0.00714,0.27657 -0.14029,0.52024 -0.3431,0.67749c0.05313,0.11772 0.08122,0.24894 0.07767,0.38671c-0.00864,0.33526 -0.20248,0.62219 -0.48111,0.76543l-0.56251,0.30248c0.0594,0.18097 0.05544,0.33464 0.05544,0.33464l-0.00001,0.00001l-0.00614,0.23785c-0.02839,0.41716 0.14743,0.90402 -0.08518,1.25146c-0.37459,0.55953 -0.91534,1.27225 -1.58827,1.24821c-0.2151,-0.00769 -0.36566,-0.14151 -0.48734,-0.32945c-0.23586,-0.12186 -0.4092,-0.34633 -0.4625,-0.61288l-0.11465,-0.51461c-0.16903,-0.25907 -0.32017,-0.50566 -0.4743,-0.73658c-0.65477,1.49957 0.66271,3.44483 0.45804,4.91242c-0.15112,1.08362 -0.58875,2.31936 -2.10435,2.0823c-0.61358,-0.09598 -1.16521,-0.58413 -1.49706,-1.10908c-0.147,-0.23253 -0.02439,-2.00718 -0.03549,-2.38041c-0.02333,-0.78428 -0.06899,-1.58888 -0.1425,-2.3925c-0.19058,-1.36011 -0.48017,-2.69906 -1.03879,-3.97456c-0.02626,-0.05998 -0.05305,-0.11914 -0.08031,-0.17753c-0.26029,-0.32563 -0.48593,-0.67784 -0.66921,-1.05337l-0.52654,-0.77884c-0.07045,-0.04798 -0.13972,-0.09356 -0.20771,-0.13639l-0.02116,0.02344l-0.8098,-0.73115c-0.18762,-0.16736 -0.30314,-0.41309 -0.29615,-0.68412c0.00131,-0.05059 0.00682,-0.10008 0.01622,-0.14814c-0.13379,-0.15609 -0.26361,-0.31755 -0.38957,-0.4843c-0.24749,-0.32762 -0.68345,-0.58941 -0.72173,-0.99823c-0.0639,-0.68245 -0.12251,-1.61721 0.44016,-2.00866c0.14021,-0.09754 0.41449,-0.05312 0.73614,0.06174zM231.25023,200.39219c0.01249,0.08132 0.02467,0.16283 0.03654,0.24447c0.03124,-0.06393 0.06453,-0.12697 0.09996,-0.18915c-0.04568,-0.01797 -0.09119,-0.0364 -0.13651,-0.05533z" fill="#000000" stroke="none" stroke-width="0.5" stroke-linecap="butt"/></g><g data-paper-data="{&quot;index&quot;:null}"><g data-paper-data="{&quot;origRot&quot;:0,&quot;index&quot;:null}" stroke="#000000" stroke-width="3" stroke-linecap="round"><path d="M208.6716,243.22003c0,0 -22.15576,-12.12343 -21.10703,-14.45379c1.89091,-4.20177 8.75386,-12.34077 8.75386,-12.34077l19.78607,-22.68311c0,0 3.82133,-4.24949 4.94524,-3.99214c3.3717,0.772 8.06143,5.33636 13.63612,8.91689c0.9266,0.59516 -1.78989,5.86018 -1.78989,5.86018c0,0 -4.6396,8.09521 -7.60917,13.27657c-4.52236,7.89068 -11.58799,20.21891 -11.58799,20.21891c0,0 -3.40872,6.42692 -5.02721,5.19727z" data-paper-data="{&quot;origPos&quot;:null}" fill="#582700"/><path d="M212.85883,237.15091l-20.48179,-14.21265" fill="none"/><path d="M214.94892,234.55538l-20.34642,-14.40772" data-paper-data="{&quot;origPos&quot;:null}" fill="none"/></g><path d="M194.77406,219.43519l25.07563,-28.73642l1.44205,0.16735l12.96751,9.05684l-18.79887,33.90011z" fill="#66c8ff" stroke="#000000" stroke-width="1" stroke-linecap="round"/><path d="M192.44654,222.78671l1.33531,-1.91075l20.90256,14.60736l-1.33531,1.91075z" fill="#ffffff" stroke="none" stroke-width="0" stroke-linecap="butt"/></g><path d="M185.99726,236.76914c-2.11436,-2.2018 -1.79564,-4.26525 -1.79564,-4.26525c0,0 -0.05334,-2.04765 0.48788,-2.94443c1.6237,-2.69032 6.61533,-10.14729 11.51062,-16.17267c0.16337,-0.20109 0.26249,-0.30818 0.43755,-0.4992c0.5252,-0.573 2.67083,-2.72412 2.67083,-2.72412c0,0 2.43604,0.29256 3.59461,0.69268c3.47569,1.20034 10.34709,7.12564 18.02659,12.7164c0.69606,0.50672 1.26691,2.28622 1.26691,2.28622c0,0 -0.33959,2.36098 -1.13023,3.45955c-5.11154,7.1025 -10.79324,14.9421 -12.21172,16.65276c-0.47281,0.57023 -1.69396,1.76733 -3.12104,2.22329c-1.42708,0.45598 -2.89795,0.71666 -3.9276,0.0288c-1.02967,-0.68786 -13.49533,-9.04488 -15.80878,-11.45403z" fill="#582700" stroke="#000000" stroke-width="2.5" stroke-linecap="round"/><g><g data-paper-data="{&quot;index&quot;:null}"><g stroke="#000000" stroke-width="3" stroke-linecap="round"><path d="M291.45669,227.41515c0,0 4.71798,9.64975 5.11201,14.24052c-14.26971,9.08574 -24.21682,8.24403 -24.21682,8.24403c-1.88959,0.74902 -3.44407,-6.35791 -3.44407,-6.35791c0,0 -3.48936,-13.77435 -5.72275,-22.59062c-1.46653,-5.78912 -3.7578,-14.83392 -3.7578,-14.83392c0,0 -1.20028,-5.80166 -0.14773,-6.12565c6.3323,-1.94919 12.07687,-5.08396 15.53198,-4.92062c1.1517,0.05444 3.68924,5.17514 3.68924,5.17514l12.95592,27.16902z" data-paper-data="{&quot;origPos&quot;:null}" fill="#582700"/><path d="M293.16425,232.914l-24.22508,8.46909l-1.10916,-3.21613l24.17891,-8.72358z" data-paper-data="{&quot;origPos&quot;:null}" fill="none"/></g><path d="M267.47583,237.80459l-8.27852,-35.92607l0.98213,-1.05883l14.88276,-5.3418l16.10722,33.77202z" fill="#66c8ff" stroke="#000000" stroke-width="1" stroke-linecap="round"/><path d="M268.7586,240.97444l-0.77199,-2.19956l24.06184,-8.44514l0.77199,2.19956z" fill="#ffffff" stroke="none" stroke-width="0" stroke-linecap="butt"/></g><g fill="#fffc96" stroke="#000000" stroke-width="2" stroke-linecap="round"><path d="M288.80186,223.19803c0,0 4.37184,-0.3206 4.84176,2.58591c0.75184,4.65031 -32.26224,4.99922 -33.33812,0.20006c-0.43958,-1.96082 2.64525,-2.70095 2.64525,-2.70095l0.62384,1.76462c0,0 6.20904,1.29545 13.91172,1.3855c7.59594,0.08879 12.52197,-1.21595 12.52197,-1.21595z"/><path d="M285.12264,215.40544c0,0 2.53451,-2.84218 3.85428,-0.93152c2.77038,4.01076 -22.43802,28.40483 -24.14034,24.09445c-1.03096,-2.61047 2.00876,-4.30145 2.00876,-4.30145l0.49693,1.28414c0,0 4.44359,-2.93506 10.048,-8.5513c5.60442,-5.61623 8.34514,-10.44187 8.34514,-10.44187z" data-paper-data="{&quot;index&quot;:null}"/></g></g><path d="M296.25543,246.43067c-2.84282,1.7534 -17.00344,6.72424 -18.17251,7.13248c-1.16905,0.40824 -2.52785,-0.2123 -3.79537,-1.01096c-1.26753,-0.79865 -2.15017,-2.26329 -2.4652,-2.93372c-0.94515,-2.01125 -4.48373,-11.02344 -7.6548,-19.17927c-0.4905,-1.2615 -0.22832,-3.63232 -0.22832,-3.63232c0,0 0.99809,-1.57997 1.79882,-1.89634c8.83442,-3.49061 16.9702,-7.50738 20.63569,-7.79955c1.22184,-0.09739 3.65357,0.2291 3.65357,0.2291c0,0 1.5389,2.6197 1.90396,3.30592c0.12168,0.22876 0.19084,0.35725 0.29867,0.59283c3.23131,7.05888 6.19756,15.52788 7.09619,18.53898c0.29953,1.0037 -0.26464,2.97282 -0.26464,2.97282c0,0 -0.20791,2.07754 -2.80608,3.68003z" data-paper-data="{&quot;index&quot;:null}" fill="#582700" stroke="#000000" stroke-width="2.5" stroke-linecap="round"/><g data-paper-data="{&quot;index&quot;:null}" fill="#582700" stroke="none" stroke-width="0" stroke-linecap="butt"><path d="M202.6331,165.19391v10.28033h-13.6145v-10.28033z" data-paper-data="{&quot;index&quot;:null}"/><path d="M216.2476,157.69205v5.83478h-7.50186v-5.83478z" data-paper-data="{&quot;index&quot;:null}"/></g></g></g></svg>