<svg version="1.1" xmlns="http://www.w3.org/2000/svg" xmlns:xlink="http://www.w3.org/1999/xlink" width="409.27592" height="245.27009" viewBox="0,0,409.27592,245.27009"><g transform="translate(-35.36208,-57.36496)"><g data-paper-data="{&quot;isPaintingLayer&quot;:true}" fill-rule="nonzero" stroke-linejoin="miter" stroke-miterlimit="10" stroke-dasharray="" stroke-dashoffset="0" style="mix-blend-mode: normal"><path d="M433.47794,84.23948c0,0 10.3363,6.30713 5.59081,12.0127c-3.47977,4.18377 -11.57982,0.00027 -11.57982,0.00027c0,0 3.15063,5.48991 -3.08301,8.67469c-6.01065,3.07085 -11.93989,-3.52876 -11.93989,-3.52876c0,0 -4.13525,6.90008 -11.80632,4.23358c-7.2576,-2.52277 -2.28474,-9.40013 -2.28474,-9.40013c0,0 -7.26418,4.67499 -11.05645,1.0129c-4.96968,-4.79908 4.80054,-13.91431 4.80054,-13.91431c0,0 -6.45113,-4.82043 -4.16565,-9.46411c3.11359,-6.13677 10.60559,-4.19034 10.60559,-4.19034c0,0 1.24257,-10.59595 13.90705,-10.54982c11.85964,0.26181 13.05834,11.02215 13.05834,11.02215c0,0 5.56364,-1.39566 9.60222,2.27797c4.91841,4.47397 -1.64865,11.81324 -1.64865,11.81324z" fill="#000000" stroke="#000000" stroke-width="1.5" stroke-linecap="butt"/><path d="M35.36208,179.45559v-118.75h62.75v118.75z" fill="#8647bb" stroke="#000000" stroke-width="0" stroke-linecap="butt"/><g><path d="M426.14892,122.56479c0.39774,1.62483 -1.08654,3.47297 -2.71137,3.87071c-1.62482,0.39774 -3.60335,-0.45264 -4.0011,-2.07747c-0.3012,-1.23047 -1.56847,-17.50874 -1.56847,-17.50874l1.92048,-1.01444c0,0 6.04586,15.44467 6.36048,16.72992z" fill="#66c8ff" stroke="#000000" stroke-width="1.5" stroke-linecap="butt"/><g stroke-linecap="butt"><path d="M427.94954,143.61327c-2.056,0.99278 -4.52753,0.13086 -5.52031,-1.92513c-0.99278,-2.056 -0.13085,-4.52753 1.92513,-5.52032c2.056,-0.99278 4.52753,-0.13086 5.52031,1.92513c0.99278,2.056 0.13085,4.52753 -1.92513,5.52032z" fill="#582700" stroke="#000000" stroke-width="1.5"/><path d="M428.92855,140.36237c0.23367,0.86651 -0.68461,1.86767 -2.05102,2.23614c-1.36642,0.36848 -2.66355,-0.03525 -2.89722,-0.90177c-0.23366,-0.86651 0.68461,-1.86766 2.05102,-2.23613c1.36642,-0.36848 2.66355,0.03525 2.89722,0.90177z" fill="#7a3700" stroke="none" stroke-width="0"/></g><g stroke="#000000" stroke-width="1.5"><path d="M421.65592,139.32677l0.57195,-5.45799l5.15549,-1.90637l3.10968,5.39609z" fill="#ffffff" stroke-linecap="butt"/><path d="M426.12609,122.36717l4.66682,12.17095l-10.01518,2.56511l-1.43174,-13.13409" fill="#66c8ff" stroke-linecap="round"/></g></g><g data-paper-data="{&quot;index&quot;:null}" fill="#3d3d3d" stroke="#000000" stroke-width="1.5" stroke-linecap="round"><path d="M419.86492,124.42816l2.13896,19.13168c0,0 -0.88643,3.97273 -4.10818,3.81278c-4.23047,0.26882 -4.48319,-3.1106 -4.48319,-3.1106l-0.24045,-19.27977"/><g><path d="M421.66925,140.5283l2.23149,20.33457l-10.63604,-0.40817l-0.18955,-16.82518"/></g></g><g><g stroke-linecap="butt"><path d="M400.63933,144.32543c-2.28314,-0.00297 -4.1316,-1.85623 -4.12864,-4.13936c0.00297,-2.28314 1.85623,-4.1316 4.13936,-4.12864c2.28314,0.00297 4.13161,1.85623 4.12864,4.13936c-0.00297,2.28314 -1.85623,4.1316 -4.13936,4.12864z" fill="#582700" stroke="#000000" stroke-width="1.5"/><path d="M402.93777,141.82665c-0.16751,0.88169 -1.4304,1.3823 -2.82076,1.11817c-1.39036,-0.26415 -2.38168,-1.19303 -2.21417,-2.07472c0.16751,-0.88169 1.4304,-1.38231 2.82076,-1.11818c1.39036,0.26415 2.38168,1.19304 2.21417,2.07473z" fill="#7a3700" stroke="none" stroke-width="0"/></g><path d="M407.20432,124.30875c-0.27298,1.65038 -2.36424,2.76631 -4.01462,2.49333c-1.65037,-0.27298 -3.13536,-1.83263 -2.8624,-3.48301c0.20672,-1.24981 5.4402,-16.71588 5.4402,-16.71588l2.16464,-0.17785c0,0 -0.51189,16.57796 -0.72781,17.88341z" fill="#66c8ff" stroke="#000000" stroke-width="1.5" stroke-linecap="butt"/><g stroke="#000000" stroke-width="1.5"><path d="M396.48412,137.95529l2.67136,-4.7938l5.48985,0.27363l0.73824,6.1841z" fill="#ffffff" stroke-linecap="butt"/><path d="M407.32603,123.31737l-0.55807,13.82637l-10.2173,-1.57821l4.21718,-13.70177" fill="#66c8ff" stroke-linecap="round"/></g></g><g data-paper-data="{&quot;index&quot;:null}" fill="#3d3d3d" stroke="#000000" stroke-width="1.5" stroke-linecap="round"><path d="M413.26477,125.73555l0.24754,18.04925c0,0 0.4341,4.02536 -2.78765,3.86541c-4.23047,0.26882 -6.28789,-3.29566 -6.28789,-3.29566l2.3554,-18.9071"/><g><path d="M413.65373,140.75327l-0.3169,20.06687l-11.16705,0.46733l2.3554,-17.28783"/></g></g><g data-paper-data="{&quot;index&quot;:null}" stroke="#000000" stroke-width="1.5" stroke-linecap="butt"><path d="M405.24098,127.52714l2.97456,-23.62036l9.37189,0.18023l3.11027,23.63396z" fill="#66c8ff"/><path d="M413.04256,119.18851l-4.05104,-13.62042l8.13397,-0.09569z" fill="#ffffff"/></g><path d="M400.7417,166.87102c0,0 -0.7269,-7.09975 6.91905,-7.13195c7.68233,-0.03235 7.13196,7.13195 7.13196,7.13195z" fill="#6b472e" stroke="#000000" stroke-width="1.5" stroke-linecap="butt"/><path d="M412.87667,166.87102c0,0 -0.72689,-7.09975 6.91906,-7.13195c7.68233,-0.03235 7.13195,7.13195 7.13195,7.13195z" fill="#6b472e" stroke="#000000" stroke-width="1.5" stroke-linecap="butt"/><path d="M432.75043,81.59604c1.2829,2.20823 3.19688,16.74259 -1.57748,21.30343c-7.29131,6.96523 -31.91812,6.71485 -37.57288,-1.39104c-8.37129,-11.99996 -0.33638,-21.79752 3.37547,-24.12582c1.47527,-0.92539 3.26327,-1.45936 4.84611,-2.17411c4.91994,-2.21581 10.57106,-2.06414 15.8379,-2.06414c2.51117,0 5.08522,-0.16758 7.56735,0.1763c0.86559,0.11992 1.80415,0.21204 2.62689,0.55711c0.73478,0.30817 1.3291,0.93013 1.87873,1.4888l0.26552,0.45861c0,0 0.19066,0.33496 -0.09813,0.5564c0.237,0.23295 0.45904,0.47953 0.65276,0.74639c0,0 1.5525,2.98345 2.19777,4.46806z" fill="#582700" stroke="#000000" stroke-width="1.5" stroke-linecap="butt"/><path d="M432.95037,90.60143c0,0 0.01713,0.31723 0.02263,0.47502c0.20444,5.86639 -2.39354,10.94317 -5.01535,12.24334c-6.46776,3.48951 -25.86989,4.96771 -32.26504,-3.01383c-2.88817,-3.17234 -3.74994,-6.58829 -3.44355,-9.80768c0.0133,-0.13968 0.10762,-0.47022 0.10762,-0.47022l5.22237,-3.09283c0,0 8.94783,5.32505 15.18541,5.51139c7.39999,0.23569 14.65008,-4.08723 14.65008,-4.08723z" fill="#7a3700" stroke="#000000" stroke-width="0" stroke-linecap="butt"/><path d="M427.45631,83.59964c0,0 -3.34609,6.23689 -14.91278,6.09389c-11.35048,-0.14033 -14.61032,-7.74922 -14.61032,-7.74922c0,0 -5.09172,6.96518 -9.60647,7.72322c-3.85251,0.64685 -0.15265,-7.44129 -0.15265,-7.44129c0,0 -9.3207,-2.46267 -6.4015,-7.64887c3.97694,-6.85372 13.54636,-4.67989 13.54636,-4.67989c0,0 1.58712,-11.83387 17.76326,-11.78235c15.14814,0.29239 16.67922,12.30986 16.67922,12.30986c0,0 7.10636,-1.55871 12.26477,2.54411c6.2822,4.99666 -5.34814,9.32742 -5.34814,9.32742c0,0 6.13939,3.53771 0.32918,6.84417c-3.46618,1.97252 -9.55092,-5.54105 -9.55092,-5.54105z" fill="#000000" stroke="#000000" stroke-width="1.5" stroke-linecap="butt"/><path d="M412.54412,87.14867c-9.52043,-0.11771 -14.47312,-7.02883 -14.47312,-7.02883c0,0 -4.14753,5.60706 -7.93438,6.24287c-3.23136,0.54256 1.96714,-5.47738 1.96714,-5.47738c0,0 -7.81793,-2.06561 -5.36939,-6.41563c3.33573,-5.74869 11.36226,-3.92535 11.36226,-3.92535c0,0 1.33124,-9.92588 14.89928,-9.88266c12.70579,0.24526 13.99001,10.32513 13.99001,10.32513c0,0 5.9606,-1.30741 10.28731,2.13392c5.26932,4.19104 -4.48584,7.82355 -4.48584,7.82355c0,0 4.34843,2.96732 1.63181,5.56434c-1.42838,1.24303 -7.02505,-5.05912 -7.02505,-5.05912c0,0 -5.14828,5.81913 -14.85005,5.69919z" fill="#000000" stroke="#000000" stroke-width="0" stroke-linecap="butt"/><path d="M419.91105,96.95354c-2.07042,0.05184 -3.79085,-1.58454 -3.84269,-3.65496c-0.05184,-2.07042 1.58454,-3.79085 3.65496,-3.84269c2.07042,-0.05184 3.79085,1.58454 3.84269,3.65496c0.05184,2.07042 -1.58454,3.79085 -3.65496,3.84269z" data-paper-data="{&quot;index&quot;:null}" fill="#000000" stroke="none" stroke-width="0" stroke-linecap="butt"/><path d="M406.49438,96.95354c-2.07042,0.05184 -3.79085,-1.58454 -3.84269,-3.65496c-0.05184,-2.07042 1.58454,-3.79085 3.65496,-3.84269c2.07042,-0.05184 3.79085,1.58454 3.84269,3.65496c0.05184,2.07042 -1.58454,3.79085 -3.65496,3.84269z" data-paper-data="{&quot;index&quot;:null}" fill="#000000" stroke="none" stroke-width="0" stroke-linecap="butt"/><path d="M407.73563,103.38696h10.92308" fill="none" stroke="#000000" stroke-width="1.5" stroke-linecap="round"/><g data-paper-data="{&quot;index&quot;:null}"><path d="M339.01744,124.40151c0.21683,-1.30531 5.08113,-17.16182 5.08113,-17.16182l1.99149,0.86676c0,0 -0.03647,16.32748 -0.24405,17.57715c-0.27412,1.65019 -2.18291,2.64731 -3.83309,2.3732c-1.6502,-0.27412 -3.26958,-2.0051 -2.99547,-3.65529z" fill="#66c8ff" stroke="#000000" stroke-width="1.5" stroke-linecap="butt"/><g stroke-linecap="butt"><path d="M336.47295,140.16637c0.83496,-2.12498 3.23447,-3.17077 5.35947,-2.33582c2.12498,0.83496 3.17077,3.23447 2.33582,5.35947c-0.83496,2.12498 -3.23447,3.17077 -5.35947,2.33582c-2.12498,-0.83496 -3.17077,-3.23447 -2.33582,-5.35947z" fill="#582700" stroke="#000000" stroke-width="1.5"/><path d="M340.40845,141.24041c1.39031,0.26441 2.38145,1.19349 2.21377,2.07515c-0.16768,0.88166 -1.43068,1.38204 -2.82099,1.11762c-1.39031,-0.26441 -2.38145,-1.19349 -2.21377,-2.07515c0.16768,-0.88166 1.43068,-1.38204 2.82099,-1.11762z" fill="#7a3700" stroke="none" stroke-width="0"/></g><g stroke="#000000" stroke-width="1.5"><path d="M335.80095,139.48064l2.69402,-5.61518l5.28454,1.51228l0.9818,5.39933z" fill="#ffffff" stroke-linecap="butt"/><path d="M345.9069,125.289l-0.4375,13.20465l-10.18007,-1.80277l3.73598,-12.48814" fill="#66c8ff" stroke-linecap="round"/></g></g><g data-paper-data="{&quot;index&quot;:null}" stroke="#000000" stroke-width="1.5"><path d="M348.68432,124.98225l1.35625,19.27977c0,0 -1.31719,3.37942 -5.54766,3.1106c-3.22175,0.15995 -4.10818,-3.81278 -4.10818,-3.81278l2.13896,-19.13168" fill="#3d3d3d" stroke-linecap="round"/><g><path d="M333.07563,166.56193c0,0 -0.77354,-4.01827 1.82824,-4.9601c3.31154,-1.19875 3.90206,-0.91105 3.90206,-0.91105l9.98709,-0.4049l0.54574,6.27604z" fill="#6b472e" stroke-linecap="butt"/><path d="M349.95215,143.62952l0.87492,16.82518l-12.3392,0.40817l2.23149,-20.33457" fill="#3d3d3d" stroke-linecap="round"/></g></g><g data-paper-data="{&quot;index&quot;:null}" stroke-width="1.5"><path d="M355.59644,125.44744l2.3554,18.9071c0,0 -2.05742,3.56448 -6.28789,3.29566c-3.22175,0.15995 -4.10818,-3.81278 -4.10818,-3.81278l1.52372,-17.99543" fill="#3d3d3d" stroke="#000000" stroke-linecap="round"/><g><path d="M344.41052,167.02458c0,0 -0.77354,-4.01827 1.82824,-4.9601c3.31154,-1.19875 3.90206,-0.91104 3.90206,-0.91104l9.98709,-0.4049l0.54574,6.27604z" fill="#6b472e" stroke="#000000" stroke-linecap="butt"/><path d="M357.86343,143.99964l2.3554,17.28783l-13.69564,-0.38884l-0.01311,-0.18375l1.38033,-19.90898" fill="#3d3d3d" stroke="#000000" stroke-linecap="round"/><path d="M355.89893,146.20442l1.60262,12.64623l-8.65352,-0.38006l0.87538,-12.51755z" data-paper-data="{&quot;index&quot;:null}" fill="#4c4c4c" stroke="none" stroke-linecap="round"/></g></g><g data-paper-data="{&quot;index&quot;:null}" stroke-linecap="butt"><path d="M355.69744,141.11752c0.07954,-2.28175 1.99375,-4.06701 4.27551,-3.98748c2.28175,0.07954 4.06701,1.99374 3.98748,4.2755c-0.07954,2.28175 -1.99375,4.06702 -4.27551,3.98749c-2.28175,-0.07954 -4.06701,-1.99375 -3.98748,-4.27551z" fill="#582700" stroke="#000000" stroke-width="1.5"/><path d="M359.76595,140.81948c1.39899,-0.21373 2.64298,0.33219 2.77852,1.21936c0.13554,0.88717 -0.88869,1.77962 -2.28769,1.99336c-1.39899,0.21373 -2.64298,-0.33219 -2.77852,-1.21936c-0.13554,-0.88717 0.88869,-1.77962 2.28769,-1.99336z" fill="#7a3700" stroke="none" stroke-width="0"/></g><g data-paper-data="{&quot;index&quot;:null}" stroke="#000000" stroke-width="1.5" stroke-linecap="butt"><path d="M341.69091,127.72098l3.11027,-23.63396l9.37189,-0.18023l3.28225,23.62036z" fill="#66c8ff"/><path d="M344.10522,105.47241l8.13397,0.09569l-4.05104,13.62042z" fill="#ffffff"/></g><path d="M353.84746,125.15223c-0.16861,-1.31241 -0.08117,-17.89803 -0.08117,-17.89803l2.1568,0.25595c0,0 4.67125,15.64506 4.83267,16.90152c0.21316,1.65917 -1.32721,3.16415 -2.98637,3.37731c-1.65917,0.21316 -3.70876,-0.9776 -3.92192,-2.63676z" data-paper-data="{&quot;index&quot;:null}" fill="#66c8ff" stroke="#000000" stroke-width="1.5" stroke-linecap="butt"/><g data-paper-data="{&quot;index&quot;:null}" stroke-width="1.5"><path d="M355.11384,140.51848l0.96119,-6.15339l5.49615,-0.07509l2.49641,4.88719z" fill="#ffffff" stroke="#000000" stroke-linecap="butt"/><path d="M360.36808,122.94139l3.71936,13.8452l-10.26765,1.208l-0.05813,-13.8375" fill="#66c8ff" stroke="#000000" stroke-linecap="round"/><path d="M361.73206,134.46571l-5.98138,0.69222l-0.25095,-8.82365l4.1867,0.17011z" data-paper-data="{&quot;index&quot;:null}" fill="#66c8ff" stroke="none" stroke-linecap="round"/></g><g data-paper-data="{&quot;index&quot;:null}" stroke-width="1.5" stroke-linecap="butt"><path d="M333.50784,77.23442c0.19446,-0.26686 0.41736,-0.51344 0.65527,-0.74639c-0.2899,-0.22144 -0.0985,-0.5564 -0.0985,-0.5564l0.26654,-0.45861c0.55176,-0.55867 1.14837,-1.18063 1.88599,-1.4888c0.82591,-0.34507 1.7681,-0.43719 2.63703,-0.55711c2.49172,-0.34388 5.07571,-0.1763 7.59658,-0.1763c5.28719,0 10.96014,-0.15167 15.89908,2.06414c1.58896,0.71475 3.38386,1.24872 4.86483,2.17411c3.7262,2.3283 12.22915,14.45271 3.38852,24.12582c-7.2136,8.96839 -29.09885,7.30743 -36.39437,3.38647c-4.34848,-2.14812 -8.6388,-13.47114 -2.90722,-23.29887c0.64776,-1.48461 2.20625,-4.46806 2.20625,-4.46806z" fill="#582700" stroke="#000000"/><path d="M371.95275,89.29257c0,0 0.04419,0.24819 0.06396,0.37297c0.55427,3.49798 -0.12115,7.35607 -3.3211,10.85734c-6.49278,8.07221 -26.19114,6.57721 -32.75765,3.04807c-3.37405,-1.66676 -6.7092,-9.47043 -4.26022,-17.25845c0.04418,-0.1405 0.37211,-0.88922 0.37211,-0.88922c0,0 1.66041,0.10529 3.44435,0.11447c1.31143,0.00674 3.51487,-0.55777 3.51487,-0.55777c0,0 2.61983,7.5269 11.74233,7.38617c11.62994,-0.17941 12.74353,-6.03081 12.74353,-6.03081c0,0 2.88249,2.02198 4.97364,2.58363c2.2556,0.60582 3.48418,0.3736 3.48418,0.3736z" fill="#7a3700" stroke="none"/><path d="M373.42569,75.09067c0,0 5.08914,-2.0922 6.0159,0.9916c1.42783,7.30478 -5.09281,7.14892 -5.09281,7.14892c0,0 -0.39523,9.40832 -12.43187,-0.32442c-0.16483,0.97067 0.50641,8.19841 -13.2939,6.70951c-7.99524,-0.399 -7.55748,-7.42497 -7.55748,-7.42497c0,0 -10.00504,4.21923 -19.38232,-1.9913c-1.32927,-1.3206 -4.58525,-5.74879 -3.80648,-10.40217c0.42756,-2.5229 2.57675,-3.89958 4.95387,-4.43383c3.05255,-0.71056 7.44601,0.02663 8.48019,0.17426c2.06894,0.29564 4.1889,0.64577 6.16385,1.3535c1.40985,0.50522 2.75262,1.29107 4.03688,2.05085c-0.94084,-1.14024 -1.69986,-2.22694 -2.05219,-3.74073c-0.0826,-0.50341 -0.14796,-1.05599 -0.08124,-1.56709c0.12733,-0.97541 0.40327,-2.10011 1.20094,-2.77015c1.13433,-0.95283 2.70341,-1.17439 4.12499,-1.16256c2.23126,0.01856 4.45006,0.22249 6.61352,0.76338c3.53261,0.92957 7.02018,2.08224 10.05501,4.16862c0.03004,0.02065 0.06022,0.04133 0.09051,0.06202c-0.407,-1.10669 -0.26081,-2.90835 0.97098,-3.45644c9.54627,-3.71586 10.99165,13.851 10.99165,13.851z" fill="#000000" stroke="#000000"/><path d="M377.06109,78.1964c-1.13669,4.80748 -5.17073,3.59045 -5.17073,3.59045c0,0 2.01253,3.12982 -2.84508,3.2324c-6.10367,-0.15392 -8.44747,-4.8347 -8.44747,-4.8347c0,0 1.5021,7.49326 -7.87664,7.77152c-12.76935,0.86068 -10.23972,-7.32382 -10.23972,-7.32382c0,0 -3.15184,1.08707 -9.50937,1.6456c-2.67406,0.12365 -12.67745,-2.762 -12.60035,-12.07906c0.67182,-2.93396 6.8562,-6.16483 19.93821,-0.9193c0.99053,0.53014 2.14107,1.13058 2.99155,1.8678c0.07431,0.06442 2.19032,2.46556 2.19032,2.46556c0,0 -2.13502,-3.92179 -2.59283,-4.46334c-0.95457,-1.12915 -1.78809,-2.12612 -2.12468,-3.59897c-0.17606,-1.03628 -0.09256,-2.58583 0.79749,-3.31942c0.68328,-0.56316 1.68829,-0.82325 2.54971,-0.89504c0.79167,-0.06598 1.63702,0.01625 2.42717,0.07075c1.51241,0.10432 2.95215,0.26244 4.42249,0.63001c2.75827,0.7259 5.66229,1.55425 8.10057,3.07913c0.99168,0.62018 4.8221,3.96976 4.8221,3.96976c0,0 -2.21936,-3.82543 -2.31992,-4.04313c-0.30541,-0.66116 0.37505,-6.05121 6.22457,-0.23072c3.41024,3.83356 3.44487,12.16429 3.44487,12.16429c0,0 2.0302,-1.49419 3.9784,-1.43668c0.09073,0.00001 2.0794,-0.10113 1.83934,2.6569z" data-paper-data="{&quot;noHover&quot;:false,&quot;origItem&quot;:[&quot;Path&quot;,{&quot;applyMatrix&quot;:true,&quot;segments&quot;:[[725.40102,261.58633],[[683.92962,115.16395],[41.06496,46.16244],[-70.43804,-70.08851]],[[609.14417,117.83629],[-3.67772,-7.96139],[1.21098,2.62148]],[636.90603,166.61687],[[578.86027,118.84758],[11.94149,7.46808],[-29.361,-18.36206]],[[481.3718,81.80037],[33.2141,8.74105],[-17.7053,-4.42615]],[[428.15125,74.2142],[18.21204,1.25625],[-9.51469,-0.65632]],[[398.94047,73.35805],[9.53309,-0.79448],[-10.3729,0.86447]],[[368.25483,84.12803],[8.22788,-6.78146],[-10.71772,8.8336]],[[358.66765,124.08801],[-2.12014,-12.47854],[4.05303,17.73554]],[[384.25928,167.41904],[-11.4946,-13.59692],[5.51285,6.52114]],[415.50374,221.1274],[[388.94961,191.35254],[0.89479,0.77563],[-10.24118,-8.87741]],[[353.0944,168.96938],[11.92766,6.38376],[-157.52939,-63.16498]],[[113.01936,180.00105],[8.08987,-35.32994],[-0.9284,112.19303]],[[264.74006,325.39412],[-32.20014,1.48899],[76.55535,-6.72568]],[379.23111,305.55276],[[502.43347,393.71717],[-153.7645,10.36402],[112.93573,-3.35061]],[597.2195,300.18865],[[698.94282,358.40336],[-73.49854,-1.85347],[58.49378,-1.23522]],[733.19591,319.4959],[[795.4566,276.27786],[-13.68763,57.89009],[2.89067,-33.21149]],[[773.50704,244.29987],[1.09261,0.00006],[-23.45963,-0.69246]]],&quot;closed&quot;:true}]}" fill="#000000" stroke="none"/></g><path d="M353.59103,97.17547c-2.07107,0 -3.75,-1.67893 -3.75,-3.75c0,-2.07107 1.67893,-3.75 3.75,-3.75c2.07107,0 3.75,1.67893 3.75,3.75c0,2.07107 -1.67893,3.75 -3.75,3.75z" data-paper-data="{&quot;index&quot;:null}" fill="#000000" stroke="none" stroke-width="0" stroke-linecap="butt"/><path d="M341.21602,96.55047c-2.07107,0 -3.75,-1.67893 -3.75,-3.75c0,-2.07107 1.67893,-3.75 3.75,-3.75c2.07107,0 3.75,1.67893 3.75,3.75c0,2.07107 -1.67893,3.75 -3.75,3.75z" data-paper-data="{&quot;index&quot;:null}" fill="#000000" stroke="none" stroke-width="0" stroke-linecap="butt"/><path d="M352.59103,102.67547l-11.875,-0.5" data-paper-data="{&quot;index&quot;:null}" fill="none" stroke="#000000" stroke-width="1.5" stroke-linecap="round"/><g data-paper-data="{&quot;index&quot;:null}"><path d="M282.0118,122.9185c0.0239,-1.32298 2.52066,-17.71983 2.52066,-17.71983l2.09671,0.56667c0,0 2.34809,16.1578 2.32522,17.42438c-0.03022,1.67253 -1.77295,2.93769 -3.44547,2.90748c-1.67254,-0.03022 -3.52732,-1.50618 -3.49711,-3.17871z" fill="#3d3d3d" stroke="#000000" stroke-width="1.5" stroke-linecap="butt"/><g stroke-linecap="butt"><path d="M281.79661,138.88592c0.51572,-2.22413 2.7368,-3.60909 4.96094,-3.09339c2.22413,0.51572 3.60909,2.73681 3.09339,4.96095c-0.51572,2.22412 -2.7368,3.60908 -4.96094,3.09338c-2.22413,-0.51571 -3.60909,-2.7368 -3.09339,-4.96094z" fill="#ffb167" stroke="#000000" stroke-width="1.5"/><path d="M285.84677,139.37377c1.41402,0.05856 2.5302,0.83295 2.49306,1.72965c-0.03714,0.89669 -1.21354,1.57614 -2.62756,1.51757c-1.41402,-0.05856 -2.5302,-0.83295 -2.49306,-1.72964c0.03714,-0.8967 1.21354,-1.57614 2.62756,-1.51757z" fill="#ffd79e" stroke="none" stroke-width="0"/></g><g stroke="#000000" stroke-width="1.5"><path d="M281.03173,138.30567l1.8452,-5.94839l5.44872,0.72442l1.7597,5.19809z" fill="#ffffff" stroke-linecap="butt"/><path d="M288.957,122.79045l1.49536,13.127l-10.33419,-0.29693l1.87239,-12.89982" fill="#3d3d3d" stroke-linecap="round"/></g></g><g data-paper-data="{&quot;index&quot;:null}" stroke="#000000" stroke-width="1.5"><path d="M288.72105,124.98226l1.35625,19.27977c0,0 -1.31719,3.37942 -5.54766,3.1106c-3.22175,0.15995 -4.10818,-3.81278 -4.10818,-3.81278l2.13896,-19.13168" fill="#3d3d3d" stroke-linecap="round"/><g><path d="M273.11242,166.56194c0,0 -0.77354,-4.01827 1.82824,-4.9601c3.31154,-1.19875 3.90206,-0.91105 3.90206,-0.91105l9.98709,-0.4049l0.54574,6.27604z" fill="#6b472e" stroke-linecap="butt"/><path d="M289.98893,143.62953l0.87492,16.82517l-12.3392,0.40817l2.23149,-20.33456" fill="#3d3d3d" stroke-linecap="round"/></g></g><g data-paper-data="{&quot;index&quot;:null}" stroke-width="1.5"><path d="M287.6332,125.44745l2.3554,18.9071c0,0 -2.05742,3.56448 -6.28789,3.29566c-3.22175,0.15995 -4.10818,-3.81278 -4.10818,-3.81278l1.52372,-17.99543" fill="#3d3d3d" stroke="#000000" stroke-linecap="round"/><g><path d="M276.4473,167.02459c0,0 -0.77354,-4.01827 1.82824,-4.9601c3.31154,-1.19875 3.90206,-0.91105 3.90206,-0.91105l9.98709,-0.4049l0.54574,6.27604z" fill="#6b472e" stroke="#000000" stroke-linecap="butt"/><path d="M289.9002,143.99964l2.3554,17.28783l-13.69564,-0.38884l-0.01311,-0.18375l1.38033,-19.90898" fill="#3d3d3d" stroke="#000000" stroke-linecap="round"/><path d="M287.93566,146.20442l1.60262,12.64624l-8.65352,-0.38006l0.87538,-12.51755z" data-paper-data="{&quot;index&quot;:null}" fill="#4c4c4c" stroke="none" stroke-linecap="round"/></g></g><g data-paper-data="{&quot;index&quot;:null}" stroke="#000000" stroke-width="1.5" stroke-linecap="butt"><path d="M279.47767,127.72099l2.12378,-23.63396l6.39941,-0.18023l2.24122,23.62036z" fill="#66c8ff"/><path d="M280.42485,105.47242l4.25897,0.09569l-4.05104,13.62041z" fill="#ffffff"/></g><g data-paper-data="{&quot;index&quot;:null}"><g stroke-linecap="butt"><path d="M285.62613,143.98743c-2.25927,-0.32927 -3.82386,-2.42769 -3.49461,-4.68697c0.32927,-2.25927 2.4277,-3.82386 4.68698,-3.49461c2.25927,0.32926 3.82385,2.42769 3.4946,4.68697c-0.32927,2.25927 -2.42769,3.82385 -4.68697,3.4946z" fill="#582700" stroke="#000000" stroke-width="1.5"/><path d="M286.20822,139.45035c1.41399,-0.05904 2.59061,0.62 2.62805,1.51668c0.03744,0.89669 -1.07847,1.67145 -2.49247,1.73049c-1.41399,0.05903 -2.59061,-0.62001 -2.62805,-1.51669c-0.03744,-0.89668 1.07847,-1.67144 2.49247,-1.73048z" fill="#7a3700" stroke="none" stroke-width="0"/></g><path d="M282.04339,123.22858c-0.02368,-1.32298 1.88192,-17.799 1.88192,-17.799l2.11573,0.49091c0,0 2.92753,16.06294 2.9502,17.32952c0.02994,1.67254 -1.66617,2.99954 -3.3387,3.02948c-1.67254,0.02994 -3.5792,-1.37839 -3.60914,-3.05092z" fill="#66c8ff" stroke="#000000" stroke-width="1.5" stroke-linecap="butt"/><g stroke-width="1.5"><path d="M281.61713,138.64103l1.63014,-6.01089l5.47124,0.52804l1.94546,5.13147z" fill="#ffffff" stroke="#000000" stroke-linecap="butt"/><path d="M288.76707,121.74608l2.17875,14.16956l-10.3382,0.07483l1.45956,-13.76044" fill="#66c8ff" stroke="#000000" stroke-linecap="round"/><path d="M288.85916,133.35047l-6.02122,0.03217l0.71812,-8.79796l4.1428,0.62817z" data-paper-data="{&quot;index&quot;:null}" fill="#66c8ff" stroke="none" stroke-linecap="round"/></g></g><path d="M268.79468,77.23443c0.19446,-0.26686 0.41736,-0.51344 0.65527,-0.74639c-0.2899,-0.22144 -0.0985,-0.5564 -0.0985,-0.5564l0.26654,-0.45861c0.55176,-0.55867 1.14837,-1.18063 1.88599,-1.4888c0.82591,-0.34507 1.7681,-0.43719 2.63703,-0.55711c2.49172,-0.34388 5.07571,-0.1763 7.59658,-0.1763c5.28719,0 10.96014,-0.15167 15.89908,2.06414c1.58896,0.71475 3.38386,1.24872 4.86483,2.17411c3.7262,2.3283 12.22915,14.45271 3.38852,24.12582c-7.2136,8.96839 -29.09885,7.30743 -36.39437,3.38647c-4.34848,-2.14812 -8.6388,-13.47114 -2.90722,-23.29887c0.64776,-1.48461 2.20625,-4.46807 2.20625,-4.46807z" data-paper-data="{&quot;index&quot;:null}" fill="#582700" stroke="#000000" stroke-width="1.5" stroke-linecap="butt"/><path d="M273.43872,85.33711c0,0 1.05368,3.71487 3.56061,5.98548c1.86553,1.68967 6.15378,0.52575 6.15378,0.52575c0,0 1.28656,6.90718 5.00196,7.90878c4.08048,1.10001 6.79722,-0.67751 6.79722,-0.67751c0,0 2.70118,2.38201 4.17582,2.70397c1.40536,0.30684 4.47418,-0.81541 4.47418,-0.81541c0,0 -0.32028,0.34214 -0.48976,0.50615c-7.22707,6.99388 -25.59239,5.4801 -31.88779,2.09665c-3.27889,-1.61975 -6.72341,-8.42802 -4.66754,-15.95826c0.05966,-0.21854 0.19303,-0.65734 0.19303,-0.65734l6.68847,-1.61823z" data-paper-data="{&quot;index&quot;:null}" fill="#7a3700" stroke="none" stroke-width="1.5" stroke-linecap="butt"/><path d="M308.80339,75.09068c0,0 4.45278,-4.36494 5.37954,-1.28114c1.42783,7.30478 -4.82008,9.51256 -4.82008,9.51256c0,0 1.84926,14.10631 -4.89597,15.99515c-9.2204,2.58195 -8.44499,-4.95593 -8.44499,-4.95593c0,0 -3.446,6.40146 -8.56322,2.39426c-3.17011,-2.48246 -2.54886,-7.95748 -2.54886,-7.95748c0,0 -4.92996,2.63457 -7.92335,-0.17242c-3.08554,-2.89339 -0.54322,-6.43437 -0.54322,-6.43437c0,0 -41.90933,17.52407 -25.37062,-14.12074c3.76132,-7.19683 22.18024,0.96296 22.18024,0.96296c0,0 -9.03876,-5.35001 2.91977,-8.24054c11.95853,-2.89054 17.54279,1.75471 20.57762,3.84109c0.03004,0.02065 -1.62485,-3.11906 -0.39306,-3.66715c9.54627,-3.71586 12.4462,14.12373 12.4462,14.12373z" data-paper-data="{&quot;index&quot;:null}" fill="#000000" stroke="#000000" stroke-width="1.5" stroke-linecap="butt"/><path d="M299.85972,61.74032c4.14346,-2.35163 4.74822,13.8078 4.74822,13.8078c0,0 3.3439,-0.17806 4.13447,2.45258c1.21802,6.23134 -3.65722,4.56924 -3.65722,4.56924c0,0 5.4866,12.85158 -0.26742,14.46285c-7.86548,2.20253 -7.93128,-4.95493 -7.93128,-4.95493c0,0 -2.93961,5.7335 -7.30486,2.31515c-2.70427,-2.11766 -3.53795,-7.78813 -3.53795,-7.78813c0,0 -4.02369,2.24742 -6.5772,-0.14708c-2.63212,-2.46821 -2.28158,-5.48885 -2.28158,-5.48885c0,0 -37.94076,15.24282 -23.8324,-11.75181c3.20859,-6.13925 21.20175,1.16392 21.20175,1.16392c0,0 -5.95358,-6.39309 4.24765,-8.85886c10.20123,-2.46577 16.02614,3.0534 18.615,4.83319c0.02563,0.01762 0.39202,-3.69298 1.4428,-4.16053z" data-paper-data="{&quot;index&quot;:null}" fill="#000000" stroke="#000000" stroke-width="0" stroke-linecap="butt"/><path d="M273.26597,97.17549c-2.07107,0 -3.75,-1.67893 -3.75,-3.75c0,-2.07107 1.67893,-3.75 3.75,-3.75c2.07107,0 3.75,1.67893 3.75,3.75c0,2.07107 -1.67893,3.75 -3.75,3.75z" data-paper-data="{&quot;index&quot;:null}" fill="#000000" stroke="none" stroke-width="0" stroke-linecap="butt"/><path d="M265.12667,96.55049c-0.94677,0 -1.71429,-1.67893 -1.71429,-3.75c0,-2.07107 0.76751,-3.75 1.71429,-3.75c0.94678,0 1.71429,1.67893 1.71429,3.75c0,2.07107 -0.76751,3.75 -1.71429,3.75z" data-paper-data="{&quot;index&quot;:null}" fill="#000000" stroke="none" stroke-width="0" stroke-linecap="butt"/><path d="M263.76597,101.55049l11.875,0.5" data-paper-data="{&quot;index&quot;:null}" fill="none" stroke="#000000" stroke-width="1.5" stroke-linecap="round"/><g data-paper-data="{&quot;index&quot;:null}"><path d="M224.26204,124.40151c0.27411,1.65019 -1.34527,3.38118 -2.99547,3.6553c-1.65018,0.27411 -3.55897,-0.72301 -3.83309,-2.3732c-0.20758,-1.24967 -0.24405,-17.57715 -0.24405,-17.57715l1.99149,-0.86676c0,0 4.8643,15.85651 5.08113,17.16182z" fill="#66c8ff" stroke="#000000" stroke-width="1.5" stroke-linecap="butt"/><g stroke-linecap="butt"><path d="M224.47069,145.52584c-2.125,0.83495 -4.52451,-0.21085 -5.35947,-2.33582c-0.83495,-2.125 0.21084,-4.52451 2.33582,-5.35946c2.125,-0.83495 4.52451,0.21084 5.35947,2.33582c0.83495,2.125 -0.21084,4.52451 -2.33582,5.35947z" fill="#582700" stroke="#000000" stroke-width="1.5"/><path d="M225.69203,142.35803c0.16768,0.88166 -0.82346,1.81074 -2.21377,2.07515c-1.39031,0.26442 -2.65331,-0.23596 -2.82099,-1.11762c-0.16768,-0.88166 0.82346,-1.81074 2.21377,-2.07515c1.39031,-0.26442 2.65331,0.23596 2.82099,1.11762z" fill="#7a3700" stroke="none" stroke-width="0"/></g><g stroke="#000000" stroke-width="1.5"><path d="M218.51815,140.77707l0.9818,-5.39933l5.28454,-1.51228l2.69402,5.61518z" fill="#ffffff" stroke-linecap="butt"/><path d="M224.25417,124.20273l3.73598,12.48814l-10.18007,1.80277l-0.4375,-13.20464" fill="#66c8ff" stroke-linecap="round"/></g></g><g data-paper-data="{&quot;index&quot;:null}" stroke="#000000" stroke-width="1.5"><path d="M218.69654,125.34098l2.3554,18.90711c0,0 -2.05742,3.56448 -6.28789,3.29566c-3.22175,0.15995 -4.10818,-3.81278 -4.10818,-3.81278l1.52372,-17.99543" fill="#3d3d3d" stroke-linecap="round"/><path d="M207.51062,167.02458c0,0 -0.77354,-4.01827 1.82824,-4.9601c3.31154,-1.19875 3.90206,-0.91104 3.90206,-0.91104l9.98709,-0.4049l0.54574,6.27604z" fill="#6b472e" stroke-linecap="butt"/><path d="M220.96353,143.99964l2.3554,17.28783l-13.69564,-0.38884l-0.01311,-0.18375l1.38033,-19.90898" fill="#3d3d3d" stroke-linecap="round"/></g><g data-paper-data="{&quot;index&quot;:null}" stroke-width="1.5"><path d="M211.78442,125.0887l1.35625,19.27977c0,0 -1.31719,3.37942 -5.54766,3.1106c-3.22175,0.15995 -4.10818,-3.81278 -4.10818,-3.81278l2.13896,-19.13168" fill="#3d3d3d" stroke="#000000" stroke-linecap="round"/><g><g stroke="#000000"><path d="M196.17573,166.66838c0,0 -0.77354,-4.01827 1.82824,-4.9601c3.31154,-1.19875 3.90206,-0.91104 3.90206,-0.91104l9.98709,-0.4049l0.54574,6.27604z" fill="#6b472e" stroke-linecap="butt"/><path d="M213.05225,143.73597l0.87492,16.82518l-12.3392,0.40817l2.23149,-20.33456" fill="#3d3d3d" stroke-linecap="round"/></g><path d="M211.52985,146.27239l0.87538,12.51755l-8.65352,0.38006l1.60262,-12.64623z" data-paper-data="{&quot;index&quot;:null}" fill="#4c4c4c" stroke="none" stroke-linecap="round"/></g></g><path d="M204.79098,127.72098l3.11027,-23.63396l9.37189,-0.18023l3.28225,23.62036z" data-paper-data="{&quot;index&quot;:null}" fill="#66c8ff" stroke="#000000" stroke-width="1.5" stroke-linecap="butt"/><g data-paper-data="{&quot;index&quot;:null}"><g stroke-linecap="butt"><path d="M202.24622,145.39303c-2.28176,0.07953 -4.19597,-1.70574 -4.27551,-3.98749c-0.07953,-2.28176 1.70573,-4.19596 3.98748,-4.2755c2.28176,-0.07953 4.19597,1.70573 4.27551,3.98748c0.07953,2.28176 -1.70573,4.19597 -3.98748,4.27551z" fill="#582700" stroke="#000000" stroke-width="1.5"/><path d="M204.45288,142.81285c-0.13554,0.88717 -1.37953,1.43309 -2.77852,1.21936c-1.399,-0.21374 -2.42323,-1.10619 -2.28769,-1.99336c0.13554,-0.88717 1.37953,-1.43309 2.77852,-1.21936c1.399,0.21374 2.42323,1.10619 2.28769,1.99336z" fill="#7a3700" stroke="none" stroke-width="0"/></g><path d="M208.08369,125.15222c-0.21316,1.65916 -2.26275,2.84992 -3.92192,2.63676c-1.65916,-0.21316 -3.19953,-1.71814 -2.98637,-3.37731c0.16142,-1.25646 4.83267,-16.90152 4.83267,-16.90152l2.1568,-0.25595c0,0 0.08744,16.58562 -0.08117,17.89803z" fill="#66c8ff" stroke="#000000" stroke-width="1.5" stroke-linecap="butt"/><g stroke-width="1.5"><path d="M197.86358,139.17719l2.49641,-4.88719l5.49615,0.07509l0.96119,6.15339z" fill="#ffffff" stroke="#000000" stroke-linecap="butt"/><path d="M208.1695,124.15709l-0.05813,13.8375l-10.26765,-1.208l3.71936,-13.8452" fill="#66c8ff" stroke="#000000" stroke-linecap="round"/><path d="M202.24474,126.50439l4.1867,-0.17011l-0.25095,8.82365l-5.98138,-0.69222z" data-paper-data="{&quot;index&quot;:null}" fill="#66c8ff" stroke="none" stroke-linecap="round"/></g></g><g data-paper-data="{&quot;index&quot;:null}" stroke-width="1.5" stroke-linecap="butt"><path d="M196.60801,77.23443c0.19446,-0.26686 0.41736,-0.51344 0.65527,-0.74639c-0.2899,-0.22144 -0.0985,-0.5564 -0.0985,-0.5564l0.26654,-0.45861c0.55176,-0.55867 1.14837,-1.18063 1.88599,-1.4888c0.82591,-0.34507 1.7681,-0.43719 2.63703,-0.55711c2.49172,-0.34388 5.07571,-0.1763 7.59658,-0.1763c5.28719,0 10.96014,-0.15167 15.89908,2.06414c1.58896,0.71475 3.38386,1.24872 4.86483,2.17411c3.7262,2.3283 12.22915,14.45271 3.38852,24.12582c-7.2136,8.96839 -29.09885,7.30743 -36.39437,3.38647c-4.34848,-2.14812 -8.6388,-13.47114 -2.90722,-23.29887c0.64776,-1.48461 2.20625,-4.46806 2.20625,-4.46806z" fill="#582700" stroke="#000000"/><path d="M205.41706,91.99941c0,0 -2.08381,7.38601 2.52285,10.80293c3.56615,2.64513 11.38876,0.35309 11.38876,0.35309l2.70979,2.496c0,0 -0.52883,0.10753 -0.7961,0.15652c-8.12937,1.49004 -17.9382,0.05581 -22.20432,-2.237c-3.37405,-1.66676 -6.7092,-9.47043 -4.26022,-17.25846c0.04418,-0.1405 0.37211,-0.88922 0.37211,-0.88922l5.10208,-0.30044z" fill="#7a3700" stroke="none"/><path d="M223.79985,59.07701c2.85894,-2.23948 12.72596,16.01368 12.72596,16.01368c0,0 5.08914,-2.0922 6.0159,0.9916c1.42783,7.30478 -5.09281,7.14892 -5.09281,7.14892c0,0 10.10477,15.69403 -1.93187,5.96129c-0.03764,0.22162 5.24199,7.86518 -4.48994,13.96948c-9.3865,5.88763 -9.86255,-3.82419 -9.86255,-3.82419c0,0 -6.73618,6.24721 -12.87545,-0.39764c-3.57978,-3.87458 1.28007,-9.6686 1.28007,-9.6686c0,0 -6.59129,1.5422 -6.85228,-1.56496c-0.25124,-2.991 1.44876,-5.51527 1.44876,-5.51527c0,0 -26.68186,7.18848 -23.6888,-7.10776c2.07042,-12.09432 18.12296,-8.89951 20.09791,-8.19178c1.40985,0.50522 2.75262,1.29107 4.03688,2.05085c-0.94084,-1.14024 -7.73016,-3.62222 -5.64678,-5.57797c3.42005,-6.52426 22.47298,-0.81694 25.50781,1.26944c0.03004,0.02065 0.06022,0.04133 0.09051,0.06202c-0.22539,-0.61287 -3.66926,-3.34281 -0.76332,-5.61911z" fill="#000000" stroke="#000000"/><path d="M238.32185,75.5395c0.09073,0.00001 2.0794,-0.10113 1.83934,2.65691c-1.13669,4.80748 -5.17073,3.59045 -5.17073,3.59045c0,0 2.01253,3.12982 -2.84508,3.2324c-6.10367,-0.15392 -8.44747,-4.8347 -8.44747,-4.8347c0,0 1.5021,7.49326 -7.87664,7.77152c-12.76935,0.86068 -10.23972,-7.32382 -10.23972,-7.32382c0,0 -3.15184,1.08707 -9.50937,1.6456c-2.67406,0.12365 -12.17745,0.52371 -12.10035,-8.79335c0.67182,-2.93396 6.3562,-9.45054 19.43821,-4.20501c0.99053,0.53014 2.14107,1.13058 2.99155,1.8678c0.07431,0.06442 2.19032,2.46556 2.19032,2.46556c0,0 -2.13502,-3.92179 -2.59283,-4.46334c-0.95457,-1.12915 -1.78809,-2.12612 -2.12468,-3.59897c-0.17606,-1.03628 -0.09256,-2.58583 0.79749,-3.31942c0.68328,-0.56316 1.68829,-0.82325 2.54971,-0.89504c0.79167,-0.06598 1.63702,0.01625 2.42717,0.07075c1.51241,0.10432 2.95215,0.26244 4.42249,0.63001c2.75827,0.7259 5.66229,1.55425 8.10057,3.07913c0.99168,0.62018 4.8221,3.96976 4.8221,3.96976c0,0 -1.00507,-4.11114 -1.10563,-4.32884c-0.30541,-0.66116 -2.48209,-4.69407 3.36743,1.12642c3.41024,3.83356 5.08773,11.09286 5.08773,11.09286c0,0 2.0302,-1.49419 3.9784,-1.43668z" data-paper-data="{&quot;noHover&quot;:false,&quot;origItem&quot;:[&quot;Path&quot;,{&quot;applyMatrix&quot;:true,&quot;segments&quot;:[[725.40102,261.58633],[[683.92962,115.16395],[41.06496,46.16244],[-70.43804,-70.08851]],[[609.14417,117.83629],[-3.67772,-7.96139],[1.21098,2.62148]],[636.90603,166.61687],[[578.86027,118.84758],[11.94149,7.46808],[-29.361,-18.36206]],[[481.3718,81.80037],[33.2141,8.74105],[-17.7053,-4.42615]],[[428.15125,74.2142],[18.21204,1.25625],[-9.51469,-0.65632]],[[398.94047,73.35805],[9.53309,-0.79448],[-10.3729,0.86447]],[[368.25483,84.12803],[8.22788,-6.78146],[-10.71772,8.8336]],[[358.66765,124.08801],[-2.12014,-12.47854],[4.05303,17.73554]],[[384.25928,167.41904],[-11.4946,-13.59692],[5.51285,6.52114]],[415.50374,221.1274],[[388.94961,191.35254],[0.89479,0.77563],[-10.24118,-8.87741]],[[353.0944,168.96938],[11.92766,6.38376],[-157.52939,-63.16498]],[[113.01936,180.00105],[8.08987,-35.32994],[-0.9284,112.19303]],[[264.74006,325.39412],[-32.20014,1.48899],[76.55535,-6.72568]],[379.23111,305.55276],[[502.43347,393.71717],[-153.7645,10.36402],[112.93573,-3.35061]],[597.2195,300.18865],[[698.94282,358.40336],[-73.49854,-1.85347],[58.49378,-1.23522]],[733.19591,319.4959],[[795.4566,276.27786],[-13.68763,57.89009],[2.89067,-33.21149]],[[773.50704,244.29987],[1.09261,0.00006],[-23.45963,-0.69246]]],&quot;closed&quot;:true}]}" fill="#000000" stroke="none"/></g><path d="M148.37662,166.87102c0,0 -0.72689,-7.09975 6.91906,-7.13195c7.68233,-0.03235 7.13195,7.13195 7.13195,7.13195z" fill="#6b472e" stroke="#000000" stroke-width="1.5" stroke-linecap="butt"/><path d="M136.24167,166.87102c0,0 -0.7269,-7.09975 6.91905,-7.13195c7.68233,-0.03235 7.13196,7.13195 7.13196,7.13195z" fill="#6b472e" stroke="#000000" stroke-width="1.5" stroke-linecap="butt"/><g><path d="M161.89303,122.35616c0.55685,1.5774 -0.73691,3.56357 -2.31431,4.12043c-1.57739,0.55685 -3.63047,-0.09321 -4.18733,-1.6706c-0.42169,-1.19455 -3.29641,-17.26701 -3.29641,-17.26701l1.81046,-1.19982c0,0 7.54713,14.76926 7.98761,16.01699z" fill="#66c8ff" stroke="#000000" stroke-width="1.5" stroke-linecap="butt"/><g stroke-linecap="butt"><path d="M165.77135,143.12246c-1.94746,1.1917 -4.49226,0.57904 -5.68396,-1.36841c-1.1917,-1.94746 -0.57903,-4.49226 1.36841,-5.68397c1.94746,-1.1917 4.49226,-0.57904 5.68396,1.36841c1.1917,1.94746 0.57903,4.49226 -1.36841,5.68397z" fill="#582700" stroke="#000000" stroke-width="1.5"/><path d="M166.42327,139.79055c0.31842,0.83908 -0.49609,1.92634 -1.81925,2.42845c-1.32316,0.50212 -2.65393,0.22896 -2.97234,-0.61012c-0.31841,-0.83908 0.49609,-1.92633 1.81925,-2.42844c1.32316,-0.50212 2.65393,-0.22896 2.97234,0.61012z" fill="#7a3700" stroke="none" stroke-width="0"/></g><g stroke="#000000" stroke-width="1.5"><path d="M159.08382,139.48097l0.02808,-5.4878l4.94112,-2.40805l3.62928,5.06125z" fill="#ffffff" stroke-linecap="butt"/><path d="M161.85073,122.16178l5.85035,11.64837l-9.71157,3.54529l-2.72669,-12.92747" fill="#66c8ff" stroke-linecap="round"/></g></g><g data-paper-data="{&quot;index&quot;:null}" fill="#3d3d3d" stroke="#000000" stroke-width="1.5" stroke-linecap="round"><path d="M155.36489,124.42816l2.13896,19.13168c0,0 -0.88643,3.97273 -4.10818,3.81278c-4.23047,0.26882 -4.48319,-3.1106 -4.48319,-3.1106l-0.24045,-19.27977"/><g><path d="M157.16922,140.5283l2.23149,20.33457l-10.63604,-0.40817l-0.18955,-16.82518"/></g></g><g data-paper-data="{&quot;index&quot;:null}" fill="#3d3d3d" stroke="#000000" stroke-width="1.5" stroke-linecap="round"><path d="M149.08053,125.73555l0.3528,18.15451c0,0 0.01304,3.92011 -3.20871,3.76016c-4.23047,0.26882 -6.28789,-3.29566 -6.28789,-3.29566l2.3554,-18.9071"/><g><path d="M149.46947,140.8059l-0.05373,20.01425l-11.74599,0.46732l2.3554,-17.28783"/></g></g><g><g stroke-linecap="butt"><path d="M133.96715,143.79009c-2.27551,-0.18658 -3.96893,-2.18249 -3.78237,-4.45799c0.18658,-2.27551 2.18249,-3.96893 4.45799,-3.78237c2.27551,0.18658 3.96894,2.18249 3.78237,4.45799c-0.18658,2.27551 -2.18249,3.96893 -4.45799,3.78237z" fill="#582700" stroke="#000000" stroke-width="1.5"/><path d="M136.45909,141.48427c-0.23788,0.86536 -1.53694,1.26279 -2.90155,0.88769c-1.36461,-0.37511 -2.27802,-1.38071 -2.04014,-2.24607c0.23788,-0.86536 1.53694,-1.2628 2.90155,-0.8877c1.36461,0.37511 2.27802,1.38072 2.04014,2.24608z" fill="#7a3700" stroke="none" stroke-width="0"/></g><path d="M142.12065,124.36623c-0.40482,1.62308 -2.57906,2.56721 -4.20214,2.16239c-1.62307,-0.40482 -2.97782,-2.07885 -2.57301,-3.70193c0.30656,-1.22914 6.76692,-16.22422 6.76692,-16.22422l2.17193,-0.00319c0,0 -1.84348,16.48309 -2.16369,17.76695z" fill="#66c8ff" stroke="#000000" stroke-width="1.5" stroke-linecap="butt"/><g stroke="#000000" stroke-width="1.5"><path d="M130.33767,137.10641l3.04824,-4.56343l5.45006,0.71425l0.2385,6.22344z" fill="#ffffff" stroke-linecap="butt"/><path d="M142.32171,123.38785l-1.66822,13.7367l-10.05728,-2.3948l5.30546,-13.31823" fill="#66c8ff" stroke-linecap="round"/></g></g><path d="M140.96551,127.84649l2.85647,-23.62036l9.47833,-0.13911l3.11027,23.63396z" fill="#66c8ff" stroke="#000000" stroke-width="1.5" stroke-linecap="butt"/><path d="M165.32137,81.59604c4.88178,9.82773 1.22757,21.15074 -2.47618,23.29886c-6.21383,3.92096 -24.85422,5.58192 -30.99828,-3.38647c-7.52986,-9.67311 -0.28761,-21.79752 2.88611,-24.12582c1.26139,-0.92539 2.79017,-1.45936 4.14354,-2.17411c4.20666,-2.21581 9.0385,-2.06414 13.54177,-2.06414c2.14711,0 4.34798,-0.16758 6.47026,0.1763c0.7401,0.11992 1.54259,0.21204 2.24605,0.55711c0.62826,0.30817 1.13641,0.93013 1.60636,1.4888l0.22702,0.45861c0,0 0.16302,0.33496 -0.0839,0.5564c0.20264,0.23295 0.39249,0.47953 0.55812,0.74639c0,0 1.32742,2.98345 1.87914,4.46806z" fill="#582700" stroke="#000000" stroke-width="1.5" stroke-linecap="butt"/><path d="M169.47794,86.73948c0,0 10.3363,6.30713 5.59081,12.0127c-3.47977,4.18377 -11.57982,0.00027 -11.57982,0.00027c0,0 3.15063,5.48991 -3.08301,8.67469c-6.01065,3.07085 -11.93989,-3.52876 -11.93989,-3.52876c0,0 -4.13525,6.90008 -11.80632,4.23358c-7.2576,-2.52277 -2.28474,-9.40013 -2.28474,-9.40013c0,0 -7.26418,4.67499 -11.05645,1.0129c-4.96968,-4.79908 4.80054,-13.91431 4.80054,-13.91431c0,0 -6.45113,-4.82043 -4.16565,-9.46411c3.11359,-6.13677 10.60559,-4.19034 10.60559,-4.19034c0,0 1.24257,-10.59595 13.90705,-10.54982c11.85964,0.26181 13.05834,11.02215 13.05834,11.02215c0,0 5.56364,-1.39566 9.60222,2.27797c4.91841,4.47397 -1.64865,11.81324 -1.64865,11.81324z" fill="#000000" stroke="#000000" stroke-width="1.5" stroke-linecap="butt"/><path d="M138.05129,83.31006c0,0 3.043,-3.77453 10.21892,-3.83209c7.51385,-0.06028 10.53826,3.83209 10.53826,3.83209" fill="none" stroke="#000000" stroke-width="1.5" stroke-linecap="round"/><text transform="translate(244.69211,187.72434) scale(0.5,0.5)" font-size="40" xml:space="preserve" fill="#000000" fill-rule="nonzero" stroke="none" stroke-width="1" stroke-linecap="butt" stroke-linejoin="miter" stroke-miterlimit="10" stroke-dasharray="" stroke-dashoffset="0" font-family="Sans Serif" font-weight="normal" text-anchor="start" style="mix-blend-mode: normal"><tspan x="0" dy="0">Sir Bob</tspan></text><path d="M57.26209,78.58059c0,-6.42031 5.20469,-11.625 11.625,-11.625c6.42031,0 11.625,5.20469 11.625,11.625c0,6.42031 -5.20469,11.625 -11.625,11.625c-6.42031,0 -11.625,-5.20469 -11.625,-11.625z" fill="#7a3700" stroke="#000000" stroke-width="0" stroke-linecap="butt"/><path d="M57.26209,102.83059c0,-6.42031 5.20469,-11.625 11.625,-11.625c6.42031,0 11.625,5.20469 11.625,11.625c0,6.42031 -5.20469,11.625 -11.625,11.625c-6.42031,0 -11.625,-5.20469 -11.625,-11.625z" fill="#3f3f3f" stroke="#000000" stroke-width="0" stroke-linecap="butt"/><path d="M57.26209,126.83059c0,-6.42031 5.20469,-11.625 11.625,-11.625c6.42031,0 11.625,5.20469 11.625,11.625c0,6.42031 -5.20469,11.625 -11.625,11.625c-6.42031,0 -11.625,-5.20469 -11.625,-11.625z" fill="#61bef3" stroke="#000000" stroke-width="0" stroke-linecap="butt"/><path d="M82.5121,79.08059c0,-3.24467 2.63033,-5.875 5.875,-5.875c3.24467,0 5.875,2.63033 5.875,5.875c0,3.24467 -2.63033,5.875 -5.875,5.875c-3.24467,0 -5.875,-2.63033 -5.875,-5.875z" fill="#582700" stroke="#000000" stroke-width="0" stroke-linecap="butt"/><path d="M82.5121,103.33059c0,-3.24467 2.63033,-5.875 5.875,-5.875c3.24467,0 5.875,2.63033 5.875,5.875c0,3.24467 -2.63033,5.875 -5.875,5.875c-3.24467,0 -5.875,-2.63033 -5.875,-5.875z" fill="#303030" stroke="#000000" stroke-width="0" stroke-linecap="butt"/><path d="M82.5121,127.33059c0,-3.24467 2.63033,-5.875 5.875,-5.875c3.24467,0 5.875,2.63033 5.875,5.875c0,3.24467 -2.63033,5.875 -5.875,5.875c-3.24467,0 -5.875,-2.63033 -5.875,-5.875z" fill="#66c8ff" stroke="#000000" stroke-width="0" stroke-linecap="butt"/><path d="M82.5121,147.83059c0,-3.24467 2.63033,-5.875 5.875,-5.875c3.24467,0 5.875,2.63033 5.875,5.875c0,3.24467 -2.63033,5.875 -5.875,5.875c-3.24467,0 -5.875,-2.63033 -5.875,-5.875z" fill="#ff0000" stroke="#000000" stroke-width="0" stroke-linecap="butt"/><path d="M64.2621,147.83059c0,-3.24467 2.63033,-5.875 5.875,-5.875c3.24467,0 5.875,2.63033 5.875,5.875c0,3.24467 -2.63033,5.875 -5.875,5.875c-3.24467,0 -5.875,-2.63033 -5.875,-5.875z" fill="#ffffff" stroke="#000000" stroke-width="0" stroke-linecap="butt"/><text transform="translate(46.87503,169.98164) scale(0.31036,0.31036)" font-size="40" xml:space="preserve" fill="#ffffff" fill-rule="nonzero" stroke="none" stroke-width="1" stroke-linecap="butt" stroke-linejoin="miter" stroke-miterlimit="10" stroke-dasharray="" stroke-dashoffset="0" font-family="Sans Serif" font-weight="normal" text-anchor="start" style="mix-blend-mode: normal"><tspan x="0" dy="0">Colors</tspan></text><text transform="translate(38.22051,79.51963) scale(0.16197,0.16197)" font-size="40" xml:space="preserve" fill="#ffffff" fill-rule="nonzero" stroke="none" stroke-width="1" stroke-linecap="butt" stroke-linejoin="miter" stroke-miterlimit="10" stroke-dasharray="" stroke-dashoffset="0" font-family="Sans Serif" font-weight="normal" text-anchor="start" style="mix-blend-mode: normal"><tspan x="0" dy="0">Skin</tspan></text><text transform="translate(38.22051,104.91964) scale(0.16197,0.16197)" font-size="40" xml:space="preserve" fill="#ffffff" fill-rule="nonzero" stroke="none" stroke-width="1" stroke-linecap="butt" stroke-linejoin="miter" stroke-miterlimit="10" stroke-dasharray="" stroke-dashoffset="0" font-family="Sans Serif" font-weight="normal" text-anchor="start" style="mix-blend-mode: normal"><tspan x="0" dy="0">Hair</tspan></text><text transform="translate(37.83079,108.41964) scale(0.06663,0.06663)" font-size="40" xml:space="preserve" fill="#ffffff" fill-rule="nonzero" stroke="none" stroke-width="1" stroke-linecap="butt" stroke-linejoin="miter" stroke-miterlimit="10" stroke-dasharray="" stroke-dashoffset="0" font-family="Sans Serif" font-weight="normal" text-anchor="start" style="mix-blend-mode: normal"><tspan x="0" dy="0">also the shoes</tspan></text><text transform="translate(38.22051,150.31965) scale(0.16197,0.16197)" font-size="40" xml:space="preserve" fill="#ffffff" fill-rule="nonzero" stroke="none" stroke-width="1" stroke-linecap="butt" stroke-linejoin="miter" stroke-miterlimit="10" stroke-dasharray="" stroke-dashoffset="0" font-family="Sans Serif" font-weight="normal" text-anchor="start" style="mix-blend-mode: normal"><tspan x="0" dy="0">Other</tspan></text><text transform="translate(39.0205,128.71535) scale(0.11034,0.11034)" font-size="40" xml:space="preserve" fill="#ffffff" fill-rule="nonzero" stroke="none" stroke-width="1" stroke-linecap="butt" stroke-linejoin="miter" stroke-miterlimit="10" stroke-dasharray="" stroke-dashoffset="0" font-family="Sans Serif" font-weight="normal" text-anchor="start" style="mix-blend-mode: normal"><tspan x="0" dy="0">Clothes</tspan></text><g><g data-paper-data="{&quot;index&quot;:null}" stroke-width="1.5" stroke-linecap="butt"><path d="M196.74039,224.77012c5.73158,9.82773 1.44126,21.15075 -2.90722,23.29887c-7.29552,3.92096 -29.18077,5.58192 -36.39437,-3.38647c-8.84063,-9.67311 -0.33768,-21.79752 3.38852,-24.12582c1.48097,-0.92539 3.27587,-1.45936 4.86483,-2.17411c4.93894,-2.21581 10.61189,-2.06414 15.89908,-2.06414c2.52087,0 5.10486,-0.16758 7.59658,0.1763c0.86893,0.11992 1.81112,0.21204 2.63703,0.55711c0.73762,0.30817 1.33423,0.93013 1.88599,1.4888l0.26654,0.45861c0,0 0.1914,0.33496 -0.0985,0.5564c0.23791,0.23295 0.46081,0.47953 0.65527,0.74639c0,0 1.55849,2.98345 2.20625,4.46806z" fill="#582700" stroke="#000000"/><path d="M164.5471,229.40298c0,0 1.11359,5.8514 12.74353,6.03081c9.1225,0.14073 11.74233,-7.38617 11.74233,-7.38617c0,0 2.20344,0.56451 3.51487,0.55777c1.78394,-0.00918 3.44435,-0.11447 3.44435,-0.11447c0,0 0.32793,0.74872 0.37211,0.88922c2.44898,7.78802 -0.88617,15.59169 -4.26022,17.25845c-6.32041,3.39688 -24.80684,4.90923 -31.9734,-2.18041c-0.27904,-0.27605 -0.54092,-0.56513 -0.78425,-0.86766c-1.60377,-1.75478 0.37304,-3.64769 2.07913,-6.76219c1.69801,-3.09977 3.12155,-7.42535 3.12155,-7.42535z" fill="#7a3700" stroke="none"/><path d="M165.60798,204.30731c1.23179,0.54809 1.37798,2.34975 0.97098,3.45644c0.03029,-0.02069 0.06047,-0.04137 0.09051,-0.06202c3.03483,-2.08638 6.5224,-3.23905 10.05501,-4.16862c2.16346,-0.54089 4.38226,-0.74482 6.61352,-0.76338c1.42158,-0.01183 2.99066,0.20973 4.12499,1.16256c0.79767,0.67004 1.07361,1.79474 1.20094,2.77015c0.06672,0.5111 0.00136,1.06368 -0.08124,1.56709c-0.35233,1.51379 -1.11135,2.60049 -2.05219,3.74073c1.28426,-0.75978 2.62703,-1.54563 4.03688,-2.05085c1.97495,-0.70773 4.09491,-1.05786 6.16385,-1.3535c1.03418,-0.14763 5.42764,-0.88482 8.48019,-0.17426c2.37712,0.53425 4.52631,1.91093 4.95387,4.43383c0.77877,4.65338 -2.47721,9.08157 -3.80648,10.40217c-9.37728,6.21053 -19.38232,1.9913 -19.38232,1.9913c0,0 0.43776,7.02597 -7.55748,7.42497c-13.80031,1.4889 -13.12907,-5.73884 -13.2939,-6.70951c-0.49978,0.40412 -1.37121,1.93977 -2.50143,2.62262c-1.35926,0.82124 -2.95891,0.76612 -2.95891,0.76612c0,0 -1.19272,12.11849 -4.97346,11.43914c-2.77067,-0.49785 -1.99807,-14.50346 -1.99807,-14.50346c0,0 -6.52064,0.15586 -5.09281,-7.14892c0.92676,-3.0838 6.0159,-0.9916 6.0159,-0.9916c0,0 1.44538,-17.56686 10.99165,-13.851z" fill="#000000" stroke="#000000"/><path d="M150.98093,221.26403c-0.24006,-2.75803 1.74861,-2.65689 1.83934,-2.6569c1.9482,-0.05751 3.9784,1.43668 3.9784,1.43668c0,0 0.03463,-8.33073 3.44487,-12.16429c5.84952,-5.82049 6.52998,-0.43044 6.22457,0.23072c-0.10056,0.2177 -2.31992,4.04313 -2.31992,4.04313c0,0 3.83042,-3.34958 4.8221,-3.96976c2.43828,-1.52488 5.3423,-2.35323 8.10057,-3.07913c1.47034,-0.36757 2.91008,-0.52569 4.42249,-0.63001c0.79015,-0.0545 1.6355,-0.13673 2.42717,-0.07075c0.86142,0.07179 1.86643,0.33188 2.54971,0.89504c0.89005,0.73359 0.97355,2.28314 0.79749,3.31942c-0.33659,1.47285 -1.17011,2.46982 -2.12468,3.59897c-0.45781,0.54155 -2.59283,4.46334 -2.59283,4.46334c0,0 2.11601,-2.40114 2.19032,-2.46556c0.85048,-0.73722 2.00102,-1.33766 2.99155,-1.8678c13.08201,-5.24553 19.26639,-2.01466 19.93821,0.9193c0.0771,9.31706 -9.92629,12.20271 -12.60035,12.07906c-6.35753,-0.55853 -9.50937,-1.6456 -9.50937,-1.6456c0,0 2.52963,8.1845 -10.23972,7.32382c-9.37874,-0.27826 -7.87664,-7.77152 -7.87664,-7.77152c0,0 -2.3438,4.68078 -8.44747,4.8347c-4.85761,-0.10258 -2.84508,-3.2324 -2.84508,-3.2324c0,0 -4.03404,1.21703 -5.17073,-3.59045z" data-paper-data="{&quot;noHover&quot;:false,&quot;origItem&quot;:[&quot;Path&quot;,{&quot;applyMatrix&quot;:true,&quot;segments&quot;:[[725.40102,261.58633],[[683.92962,115.16395],[41.06496,46.16244],[-70.43804,-70.08851]],[[609.14417,117.83629],[-3.67772,-7.96139],[1.21098,2.62148]],[636.90603,166.61687],[[578.86027,118.84758],[11.94149,7.46808],[-29.361,-18.36206]],[[481.3718,81.80037],[33.2141,8.74105],[-17.7053,-4.42615]],[[428.15125,74.2142],[18.21204,1.25625],[-9.51469,-0.65632]],[[398.94047,73.35805],[9.53309,-0.79448],[-10.3729,0.86447]],[[368.25483,84.12803],[8.22788,-6.78146],[-10.71772,8.8336]],[[358.66765,124.08801],[-2.12014,-12.47854],[4.05303,17.73554]],[[384.25928,167.41904],[-11.4946,-13.59692],[5.51285,6.52114]],[415.50374,221.1274],[[388.94961,191.35254],[0.89479,0.77563],[-10.24118,-8.87741]],[[353.0944,168.96938],[11.92766,6.38376],[-157.52939,-63.16498]],[[113.01936,180.00105],[8.08987,-35.32994],[-0.9284,112.19303]],[[264.74006,325.39412],[-32.20014,1.48899],[76.55535,-6.72568]],[379.23111,305.55276],[[502.43347,393.71717],[-153.7645,10.36402],[112.93573,-3.35061]],[597.2195,300.18865],[[698.94282,358.40336],[-73.49854,-1.85347],[58.49378,-1.23522]],[733.19591,319.4959],[[795.4566,276.27786],[-13.68763,57.89009],[2.89067,-33.21149]],[[773.50704,244.29987],[1.09261,0.00006],[-23.45963,-0.69246]]],&quot;closed&quot;:true}]}" fill="#000000" stroke="none"/></g><path d="M175.95102,236.24311c0,-2.07107 1.67893,-3.75 3.75,-3.75c2.07107,0 3.75,1.67893 3.75,3.75c0,2.07107 -1.67893,3.75 -3.75,3.75c-2.07107,0 -3.75,-1.67893 -3.75,-3.75z" data-paper-data="{&quot;index&quot;:null}" fill="#000000" stroke="none" stroke-width="0" stroke-linecap="butt"/><path d="M186.07602,235.61811c0,-2.07107 1.67893,-3.75 3.75,-3.75c2.07107,0 3.75,1.67893 3.75,3.75c0,2.07107 -1.67893,3.75 -3.75,3.75c-2.07107,0 -3.75,-1.67893 -3.75,-3.75z" data-paper-data="{&quot;index&quot;:null}" fill="#000000" stroke="none" stroke-width="0" stroke-linecap="butt"/><path d="M187.32602,245.24311l-11.875,0.5" data-paper-data="{&quot;index&quot;:null}" fill="none" stroke="#000000" stroke-width="1.5" stroke-linecap="round"/></g><g><path d="M266.116,228.30712c0,0 10.3363,6.30713 5.59081,12.0127c-3.47977,4.18377 -11.57982,0.00027 -11.57982,0.00027c0,0 3.15063,5.48991 -3.08301,8.67469c-6.01065,3.07085 -11.93989,-3.52876 -11.93989,-3.52876c0,0 -4.13525,6.90008 -11.80632,4.23358c-7.2576,-2.52277 -2.28474,-9.40013 -2.28474,-9.40013c0,0 -7.26418,4.67499 -11.05645,1.0129c-4.96968,-4.79908 4.80054,-13.91431 4.80054,-13.91431c0,0 -6.45113,-4.82043 -4.16565,-9.46411c3.11359,-6.13677 10.60559,-4.19034 10.60559,-4.19034c0,0 1.24257,-10.59595 13.90705,-10.54982c11.85964,0.26181 13.05834,11.02215 13.05834,11.02215c0,0 5.56364,-1.39566 9.60222,2.27797c4.91841,4.47397 -1.64865,11.81324 -1.64865,11.81324z" fill="#000000" stroke="#000000" stroke-width="1.5" stroke-linecap="butt"/><path d="M265.38852,225.66368c1.2829,2.20823 3.19688,16.74259 -1.57748,21.30343c-7.29131,6.96523 -31.91812,6.71485 -37.57288,-1.39104c-8.37129,-11.99996 -0.33638,-21.79752 3.37547,-24.12582c1.47527,-0.92539 3.26327,-1.45936 4.84611,-2.17411c4.91994,-2.21581 10.57106,-2.06414 15.8379,-2.06414c2.51117,0 5.08522,-0.16758 7.56735,0.1763c0.86559,0.11992 1.80415,0.21204 2.62689,0.55711c0.73478,0.30817 1.3291,0.93013 1.87873,1.4888l0.26552,0.45861c0,0 0.19066,0.33496 -0.09813,0.5564c0.237,0.23295 0.45904,0.47953 0.65276,0.74639c0,0 1.5525,2.98345 2.19777,4.46806z" fill="#582700" stroke="#000000" stroke-width="1.5" stroke-linecap="butt"/><path d="M265.58844,234.66908c0,0 0.01713,0.31723 0.02263,0.47502c0.20444,5.86639 -2.39354,10.94317 -5.01535,12.24334c-6.46776,3.48951 -25.86989,4.96771 -32.26504,-3.01383c-2.88817,-3.17234 -3.74994,-6.58829 -3.44355,-9.80768c0.0133,-0.13968 0.10762,-0.47022 0.10762,-0.47022l5.22237,-3.09283c0,0 8.94783,5.32505 15.18541,5.51139c7.39999,0.23569 14.65008,-4.08723 14.65008,-4.08723z" fill="#7a3700" stroke="#000000" stroke-width="0" stroke-linecap="butt"/><path d="M260.09434,227.66729c0,0 -3.34609,6.23689 -14.91278,6.09389c-11.35048,-0.14033 -14.61032,-7.74922 -14.61032,-7.74922c0,0 -5.09172,6.96518 -9.60647,7.72322c-3.85251,0.64685 -0.15265,-7.44129 -0.15265,-7.44129c0,0 -9.3207,-2.46267 -6.4015,-7.64887c3.97694,-6.85372 13.54636,-4.67989 13.54636,-4.67989c0,0 1.58712,-11.83387 17.76326,-11.78235c15.14814,0.29239 16.67922,12.30986 16.67922,12.30986c0,0 7.10636,-1.55871 12.26477,2.54411c6.2822,4.99666 -5.34814,9.32742 -5.34814,9.32742c0,0 6.13939,3.53771 0.32918,6.84417c-3.46618,1.97252 -9.55092,-5.54105 -9.55092,-5.54105z" fill="#000000" stroke="#000000" stroke-width="1.5" stroke-linecap="butt"/><path d="M245.18219,231.21632c-9.52043,-0.11771 -14.47312,-7.02883 -14.47312,-7.02883c0,0 -4.14753,5.60706 -7.93438,6.24287c-3.23136,0.54256 1.96714,-5.47738 1.96714,-5.47738c0,0 -7.81793,-2.06561 -5.36939,-6.41563c3.33573,-5.74869 11.36226,-3.92535 11.36226,-3.92535c0,0 1.33124,-9.92588 14.89928,-9.88266c12.70579,0.24526 13.99001,10.32513 13.99001,10.32513c0,0 5.9606,-1.30741 10.28731,2.13392c5.26932,4.19104 -4.48584,7.82355 -4.48584,7.82355c0,0 4.34843,2.96732 1.63181,5.56434c-1.42838,1.24303 -7.02505,-5.05912 -7.02505,-5.05912c0,0 -5.14828,5.81913 -14.85005,5.69919z" fill="#000000" stroke="#000000" stroke-width="0" stroke-linecap="butt"/><path d="M251.04913,242.27118c-2.07042,0.05184 -3.79085,-1.58454 -3.84269,-3.65496c-0.05184,-2.07042 1.58454,-3.79085 3.65496,-3.84269c2.07042,-0.05184 3.79085,1.58454 3.84269,3.65496c0.05184,2.07042 -1.58454,3.79085 -3.65496,3.84269z" data-paper-data="{&quot;index&quot;:null}" fill="#000000" stroke="none" stroke-width="0" stroke-linecap="butt"/><path d="M239.88247,241.77118c-2.07042,0.05184 -3.79085,-1.58454 -3.84269,-3.65496c-0.02031,-0.81098 0.21841,-1.56827 0.64077,-2.19261c0.65592,-0.96959 1.75475,-1.61855 3.01419,-1.65008c2.07042,-0.05184 3.79085,1.58454 3.84269,3.65496c0.05184,2.07042 -1.58454,3.79085 -3.65496,3.84269z" data-paper-data="{&quot;index&quot;:null}" fill="#000000" stroke="none" stroke-width="0" stroke-linecap="butt"/><path d="M251.29679,247.4546h-10.92308" fill="none" stroke="#000000" stroke-width="1.5" stroke-linecap="round"/></g><g><path d="M124.64738,220.50207c0,0 1.55849,2.98346 2.20625,4.46807c5.73158,9.82773 1.44126,21.15075 -2.90722,23.29887c-7.29552,3.92096 -29.18077,5.58192 -36.39437,-3.38647c-8.84063,-9.67311 -0.33768,-21.79752 3.38852,-24.12582c1.48097,-0.92539 3.27587,-1.45936 4.86483,-2.17411c4.93894,-2.21581 10.61189,-2.06414 15.89908,-2.06414c2.52087,0 5.10486,-0.16758 7.59658,0.1763c0.86893,0.11992 1.81112,0.21204 2.63703,0.55711c0.73762,0.30817 1.33423,0.93013 1.88599,1.4888l0.26654,0.45861c0,0 0.1914,0.33496 -0.0985,0.5564c0.23791,0.23295 0.46081,0.47953 0.65527,0.74639z" data-paper-data="{&quot;index&quot;:null}" fill="#582700" stroke="#000000" stroke-width="1.5" stroke-linecap="butt"/><path d="M120.00333,228.60479l6.68847,1.61823c0,0 0.13337,0.4388 0.19303,0.65734c2.05587,7.53024 -1.38865,14.33851 -4.66754,15.95826c-6.2954,3.38345 -24.66072,4.89723 -31.88779,-2.09665c-0.16948,-0.16401 -0.48976,-0.50615 -0.48976,-0.50615c0,0 3.06882,1.12225 4.47418,0.81541c1.47464,-0.32196 4.17582,-2.70397 4.17582,-2.70397c0,0 2.71674,1.77752 6.79722,0.67751c3.7154,-1.0016 5.00196,-7.90878 5.00196,-7.90878c0,0 4.28825,1.16392 6.15378,-0.52575c2.50693,-2.27061 3.56061,-5.98548 3.56061,-5.98548z" data-paper-data="{&quot;index&quot;:null}" fill="#7a3700" stroke="none" stroke-width="1.5" stroke-linecap="butt"/><path d="M84.63864,218.35831c0,0 2.89993,-17.83959 12.4462,-14.12373c1.23179,0.54809 -0.4231,3.6878 -0.39306,3.66715c3.03483,-2.08638 8.61909,-6.73163 20.57762,-3.84109c11.95853,2.89053 2.91977,8.24054 2.91977,8.24054c0,0 18.41892,-8.15979 22.18024,-0.96296c16.53871,31.64481 -25.37062,14.12074 -25.37062,14.12074c0,0 2.54232,3.54098 -0.54322,6.43437c-2.99339,2.80699 -7.92335,0.17242 -7.92335,0.17242c0,0 0.62125,5.47502 -2.54886,7.95748c-5.11722,4.0072 -8.56322,-2.39426 -8.56322,-2.39426c0,0 0.77541,7.53788 -8.44499,4.95593c-6.74523,-1.88884 -4.89597,-15.99515 -4.89597,-15.99515c0,0 -6.24791,-2.20778 -4.82008,-9.51256c0.92676,-3.0838 5.37954,1.28114 5.37954,1.28114z" data-paper-data="{&quot;index&quot;:null}" fill="#000000" stroke="#000000" stroke-width="1.5" stroke-linecap="butt"/><path d="M94.58234,205.4625c1.05078,0.46755 1.41717,4.17815 1.4428,4.16053c2.58886,-1.77979 8.41377,-7.29896 18.615,-4.83319c10.20123,2.46577 4.24765,8.85886 4.24765,8.85886c0,0 17.99316,-7.30317 21.20175,-1.16392c14.10836,26.99463 -23.8324,11.75181 -23.8324,11.75181c0,0 0.35054,3.02064 -2.28158,5.48885c-2.55351,2.3945 -6.5772,0.14708 -6.5772,0.14708c0,0 -0.83368,5.67047 -3.53795,7.78813c-4.36525,3.41835 -7.30486,-2.31515 -7.30486,-2.31515c0,0 -0.0658,7.15746 -7.93128,4.95493c-5.75402,-1.61127 -0.26742,-14.46285 -0.26742,-14.46285c0,0 -4.87524,1.6621 -3.65722,-4.56924c0.79057,-2.63064 4.13447,-2.45258 4.13447,-2.45258c0,0 0.60476,-16.15943 4.74822,-13.8078z" data-paper-data="{&quot;index&quot;:null}" fill="#000000" stroke="#000000" stroke-width="0" stroke-linecap="butt"/><path d="M115.92607,236.69314c0,-2.07107 1.67893,-3.75 3.75,-3.75c2.07107,0 3.75,1.67893 3.75,3.75c0,2.07107 -1.67893,3.75 -3.75,3.75c-2.07107,0 -3.75,-1.67893 -3.75,-3.75z" data-paper-data="{&quot;index&quot;:null}" fill="#000000" stroke="none" stroke-width="0" stroke-linecap="butt"/><path d="M126.60108,236.06814c0,-2.07107 0.76751,-3.75 1.71429,-3.75c0.94678,0 1.71429,1.67893 1.71429,3.75c0,2.07107 -0.76752,3.75 -1.71429,3.75c-0.94678,0 -1.71429,-1.67893 -1.71429,-3.75z" data-paper-data="{&quot;index&quot;:null}" fill="#000000" stroke="none" stroke-width="0" stroke-linecap="butt"/><path d="M129.67606,244.81814l-11.875,0.5" data-paper-data="{&quot;index&quot;:null}" fill="none" stroke="#000000" stroke-width="1.5" stroke-linecap="round"/></g><g data-paper-data="{&quot;index&quot;:null}" stroke-width="1.5" stroke-linecap="butt"><path d="M297.74604,219.80208c0.19446,-0.26686 0.41736,-0.51344 0.65527,-0.74639c-0.2899,-0.22144 -0.0985,-0.5564 -0.0985,-0.5564l0.26654,-0.45861c0.55176,-0.55867 1.14837,-1.18063 1.88599,-1.4888c0.82591,-0.34507 1.7681,-0.43719 2.63703,-0.55711c2.49172,-0.34388 5.07571,-0.1763 7.59658,-0.1763c5.28719,0 10.96014,-0.15167 15.89908,2.06414c1.58896,0.71475 3.38386,1.24872 4.86483,2.17411c3.7262,2.3283 12.22915,14.45271 3.38852,24.12582c-7.2136,8.96839 -29.09885,7.30743 -36.39437,3.38647c-4.34848,-2.14812 -8.6388,-13.47114 -2.90722,-23.29887c0.64776,-1.48461 2.20625,-4.46806 2.20625,-4.46806z" fill="#582700" stroke="#000000"/><path d="M306.55512,234.56706c0,0 -2.08381,7.38601 2.52285,10.80293c3.56615,2.64513 11.38876,0.35309 11.38876,0.35309l2.70979,2.496c0,0 -0.52883,0.10753 -0.7961,0.15652c-8.12937,1.49004 -17.9382,0.05581 -22.20432,-2.237c-3.37405,-1.66676 -6.7092,-9.47043 -4.26022,-17.25846c0.04418,-0.1405 0.37211,-0.88922 0.37211,-0.88922l5.10208,-0.30044z" fill="#7a3700" stroke="none"/><path d="M324.93791,201.64466c2.85894,-2.23948 12.72596,16.01368 12.72596,16.01368c0,0 5.08914,-2.0922 6.0159,0.9916c1.42783,7.30478 -5.09281,7.14892 -5.09281,7.14892c0,0 10.10477,15.69403 -1.93187,5.96129c-0.03764,0.22162 5.24199,7.86518 -4.48994,13.96948c-9.3865,5.88763 -9.86255,-3.82419 -9.86255,-3.82419c0,0 -6.73618,6.24721 -12.87545,-0.39764c-3.57978,-3.87458 1.28007,-9.6686 1.28007,-9.6686c0,0 -6.59129,1.5422 -6.85228,-1.56496c-0.25124,-2.991 1.44876,-5.51527 1.44876,-5.51527c0,0 -26.68186,7.18848 -23.6888,-7.10776c2.07042,-12.09432 18.12296,-8.89951 20.09791,-8.19178c1.40985,0.50522 2.75262,1.29107 4.03688,2.05085c-0.94084,-1.14024 -7.73016,-3.62222 -5.64678,-5.57797c3.42005,-6.52426 22.47298,-0.81694 25.50781,1.26944c0.03004,0.02065 0.06022,0.04133 0.09051,0.06202c-0.22539,-0.61287 -3.66926,-3.34281 -0.76332,-5.61911z" fill="#000000" stroke="#000000"/><path d="M339.45994,218.10715c0.09073,0.00001 2.0794,-0.10113 1.83934,2.65691c-1.13669,4.80748 -5.17073,3.59045 -5.17073,3.59045c0,0 2.01253,3.12982 -2.84508,3.2324c-6.10367,-0.15392 -8.44747,-4.8347 -8.44747,-4.8347c0,0 1.5021,7.49326 -7.87664,7.77152c-12.76935,0.86068 -10.23972,-7.32382 -10.23972,-7.32382c0,0 -3.15184,1.08707 -9.50937,1.6456c-2.67406,0.12365 -12.17745,0.52371 -12.10035,-8.79335c0.67182,-2.93396 6.3562,-9.45054 19.43821,-4.20501c0.99053,0.53014 2.14107,1.13058 2.99155,1.8678c0.07431,0.06442 2.19032,2.46556 2.19032,2.46556c0,0 -2.13502,-3.92179 -2.59283,-4.46334c-0.95457,-1.12915 -1.78809,-2.12612 -2.12468,-3.59897c-0.17606,-1.03628 -0.09256,-2.58583 0.79749,-3.31942c0.68328,-0.56316 1.68829,-0.82325 2.54971,-0.89504c0.79167,-0.06598 1.63702,0.01625 2.42717,0.07075c1.51241,0.10432 2.95215,0.26244 4.42249,0.63001c2.75827,0.7259 5.66229,1.55425 8.10057,3.07913c0.99168,0.62018 4.8221,3.96976 4.8221,3.96976c0,0 -1.00507,-4.11114 -1.10563,-4.32884c-0.30541,-0.66116 -2.48209,-4.69407 3.36743,1.12642c3.41024,3.83356 5.08773,11.09286 5.08773,11.09286c0,0 2.0302,-1.49419 3.9784,-1.43668z" data-paper-data="{&quot;noHover&quot;:false,&quot;origItem&quot;:[&quot;Path&quot;,{&quot;applyMatrix&quot;:true,&quot;segments&quot;:[[725.40102,261.58633],[[683.92962,115.16395],[41.06496,46.16244],[-70.43804,-70.08851]],[[609.14417,117.83629],[-3.67772,-7.96139],[1.21098,2.62148]],[636.90603,166.61687],[[578.86027,118.84758],[11.94149,7.46808],[-29.361,-18.36206]],[[481.3718,81.80037],[33.2141,8.74105],[-17.7053,-4.42615]],[[428.15125,74.2142],[18.21204,1.25625],[-9.51469,-0.65632]],[[398.94047,73.35805],[9.53309,-0.79448],[-10.3729,0.86447]],[[368.25483,84.12803],[8.22788,-6.78146],[-10.71772,8.8336]],[[358.66765,124.08801],[-2.12014,-12.47854],[4.05303,17.73554]],[[384.25928,167.41904],[-11.4946,-13.59692],[5.51285,6.52114]],[415.50374,221.1274],[[388.94961,191.35254],[0.89479,0.77563],[-10.24118,-8.87741]],[[353.0944,168.96938],[11.92766,6.38376],[-157.52939,-63.16498]],[[113.01936,180.00105],[8.08987,-35.32994],[-0.9284,112.19303]],[[264.74006,325.39412],[-32.20014,1.48899],[76.55535,-6.72568]],[379.23111,305.55276],[[502.43347,393.71717],[-153.7645,10.36402],[112.93573,-3.35061]],[597.2195,300.18865],[[698.94282,358.40336],[-73.49854,-1.85347],[58.49378,-1.23522]],[733.19591,319.4959],[[795.4566,276.27786],[-13.68763,57.89009],[2.89067,-33.21149]],[[773.50704,244.29987],[1.09261,0.00006],[-23.45963,-0.69246]]],&quot;closed&quot;:true}]}" fill="#000000" stroke="none"/></g><g stroke="#000000" stroke-width="1.5"><path d="M389.95951,222.16368c4.88178,9.82773 1.22757,21.15074 -2.47618,23.29886c-6.21383,3.92096 -24.85422,5.58192 -30.99828,-3.38647c-7.52986,-9.67311 -0.28761,-21.79752 2.88611,-24.12582c1.26139,-0.92539 2.79017,-1.45936 4.14354,-2.17411c4.20666,-2.21581 9.0385,-2.06414 13.54177,-2.06414c2.14711,0 4.34798,-0.16758 6.47026,0.1763c0.7401,0.11992 1.54259,0.21204 2.24605,0.55711c0.62826,0.30817 1.13641,0.93013 1.60636,1.4888l0.22702,0.45861c0,0 0.16302,0.33496 -0.0839,0.5564c0.20264,0.23295 0.39249,0.47953 0.55812,0.74639c0,0 1.32742,2.98345 1.87914,4.46806z" fill="#582700" stroke-linecap="butt"/><path d="M394.11603,227.30712c0,0 10.3363,6.30713 5.59081,12.0127c-3.47977,4.18377 -11.57982,0.00027 -11.57982,0.00027c0,0 3.15063,5.48991 -3.08301,8.67469c-6.01065,3.07085 -11.93989,-3.52876 -11.93989,-3.52876c0,0 -4.13525,6.90008 -11.80632,4.23358c-7.2576,-2.52277 -2.28474,-9.40013 -2.28474,-9.40013c0,0 -7.26418,4.67499 -11.05645,1.0129c-4.96968,-4.79908 4.80054,-13.91431 4.80054,-13.91431c0,0 -6.45113,-4.82043 -4.16565,-9.46411c3.11359,-6.13677 10.60559,-4.19034 10.60559,-4.19034c0,0 1.24257,-10.59595 13.90705,-10.54982c11.85964,0.26181 13.05834,11.02215 13.05834,11.02215c0,0 5.56364,-1.39566 9.60222,2.27797c4.91841,4.47397 -1.64865,11.81324 -1.64865,11.81324z" fill="#000000" stroke-linecap="butt"/><path d="M362.68938,223.87772c0,0 3.043,-3.77453 10.21892,-3.83209c7.51385,-0.06028 10.53826,3.83209 10.53826,3.83209" fill="none" stroke-linecap="round"/></g><g><path d="M231.74039,274.10346c5.73158,9.82773 1.44126,21.15075 -2.90722,23.29887c-7.29552,3.92096 -29.18077,5.58192 -36.39437,-3.38647c-8.84063,-9.67311 -0.33768,-21.79752 3.38852,-24.12582c1.48097,-0.92539 3.27587,-1.45936 4.86483,-2.17411c4.93894,-2.21581 10.61189,-2.06414 15.89908,-2.06414c2.52087,0 5.10486,-0.16758 7.59658,0.1763c0.86893,0.11992 1.81112,0.21204 2.63703,0.55711c0.73762,0.30817 1.33423,0.93013 1.88599,1.4888l0.26654,0.45861c0,0 0.1914,0.33496 -0.0985,0.5564c0.23791,0.23295 0.46081,0.47953 0.65527,0.74639c0,0 1.55849,2.98345 2.20625,4.46806z" fill="#582700" stroke="#000000" stroke-width="1.5" stroke-linecap="butt"/><path d="M196.44712,282.23632c0,0 4.41359,11.8514 16.04353,12.03081c1.87633,0.02895 4.81558,-2.09444 4.81558,-2.09444c0,0 7.67191,2.53248 4.29786,4.19924c-6.56651,3.52914 -20.76487,4.62414 -27.25765,-3.44807c-0.91201,-0.99789 -2.88893,-3.34974 -2.88893,-3.34974c0,0 1.23935,-1.66226 1.64328,-2.73635c0.72867,-1.9376 0.78851,-4.14422 0.78851,-4.14422z" fill="#7a3700" stroke="none" stroke-width="1.5" stroke-linecap="butt"/><path d="M219.21561,296.97309c-2.05246,-0.21076 -3.57966,-1.15208 -3.41109,-2.10248c0.16857,-0.95041 1.96907,-1.55 4.02153,-1.33924c2.05246,0.21076 3.57966,1.15208 3.41109,2.10248c-0.16857,0.95041 -1.96907,1.55 -4.02153,1.33924z" data-paper-data="{&quot;index&quot;:null}" fill="#000000" stroke="none" stroke-width="0" stroke-linecap="butt"/><path d="M208.28126,294.83646c-2.05246,-0.21076 -3.57966,-1.15208 -3.41109,-2.10248c0.16857,-0.95041 1.96907,-1.55 4.02153,-1.33924c2.05246,0.21076 3.57966,1.15208 3.41109,2.10248c-0.16857,0.95041 -1.96907,1.55 -4.02153,1.33924z" data-paper-data="{&quot;index&quot;:null}" fill="#000000" stroke="none" stroke-width="0" stroke-linecap="butt"/><path d="M210.80208,257.38635c0.6663,1.17864 -0.31754,2.70607 -1.32591,3.34557c0.0373,0.00168 0.0745,0.00331 0.11157,0.00487c3.7451,0.15792 18.26789,-1.58516 22.77235,4.73724c7.14883,10.034 -1.0047,11.15151 -1.0047,11.15151c0,0 7.78263,2.10603 8.84124,7.1965c1.97666,9.50505 -5.96916,12.96255 -7.85849,13.21838c-11.42741,-0.67665 -16.98167,-10.06416 -16.98167,-10.06416c0,0 2.62709,8.30556 -6.40504,4.24513c-9.03214,-4.06042 -12.59338,-10.19454 -12.13331,-11.06923c-0.86988,0.02975 -1.88092,0.95946 -2.79774,0.86133c-1.47941,-0.15834 -2.71352,-1.38918 -2.71352,-1.38918c0,0 2.63161,9.3934 -3.02289,6.70319c-1.66042,-0.78997 -0.63189,-18.53467 -0.63189,-18.53467c0,0 -5.39837,-3.79654 0.23382,-8.77445c2.64118,-1.90666 5.49941,2.82527 5.49941,2.82527c0,0 11.92752,-13.16676 17.41677,-4.45731z" fill="#000000" stroke="#000000" stroke-width="1.5" stroke-linecap="butt"/><path d="M188.6153,262.0249c1.49286,-2.34802 3.04826,-1.07136 3.12206,-1.01681c1.61959,1.12556 2.35613,3.54025 2.35613,3.54025c0,0 5.12711,-6.63542 10.2469,-7.64775c8.31969,-1.13306 5.57403,3.58276 4.92098,3.92738c-0.21503,0.11347 -4.36135,1.83542 -4.36135,1.83542c0,0 5.16529,-0.37296 6.35137,-0.27215c2.91628,0.24784 5.78501,1.33227 8.47249,2.41091c1.42074,0.59047 2.68841,1.3299 3.98224,2.15601c0.67595,0.4316 1.41377,0.87423 2.01722,1.40301c0.65662,0.57536 1.31476,1.38752 1.52575,2.24836c0.27484,1.12135 -0.60568,2.40965 -1.38313,3.13177c-1.17521,0.9744 -2.46329,1.26976 -3.93072,1.59794c-0.70378,0.1574 -4.8405,2.00705 -4.8405,2.00705c0,0 3.19052,-0.64608 3.29038,-0.65287c1.14289,-0.07762 2.44608,0.13449 3.57612,0.30654c13.84968,3.67546 16.90168,9.97578 15.65227,12.724c-5.63994,7.49069 -15.5415,3.78096 -17.64052,2.07417c-4.82847,-4.26925 -6.72638,-7.03312 -6.72638,-7.03312c0,0 -2.9522,8.06056 -12.8102,-0.30574c-7.45704,-5.86207 -1.64908,-10.94591 -1.64908,-10.94591c0,0 -4.77106,2.33054 -9.82914,-1.21681c-3.88771,-3.003 -0.33535,-4.29352 -0.33535,-4.29352c0,0 -4.02562,-1.45339 -2.00756,-5.97809z" data-paper-data="{&quot;noHover&quot;:false,&quot;origItem&quot;:[&quot;Path&quot;,{&quot;applyMatrix&quot;:true,&quot;segments&quot;:[[725.40102,261.58633],[[683.92962,115.16395],[41.06496,46.16244],[-70.43804,-70.08851]],[[609.14417,117.83629],[-3.67772,-7.96139],[1.21098,2.62148]],[636.90603,166.61687],[[578.86027,118.84758],[11.94149,7.46808],[-29.361,-18.36206]],[[481.3718,81.80037],[33.2141,8.74105],[-17.7053,-4.42615]],[[428.15125,74.2142],[18.21204,1.25625],[-9.51469,-0.65632]],[[398.94047,73.35805],[9.53309,-0.79448],[-10.3729,0.86447]],[[368.25483,84.12803],[8.22788,-6.78146],[-10.71772,8.8336]],[[358.66765,124.08801],[-2.12014,-12.47854],[4.05303,17.73554]],[[384.25928,167.41904],[-11.4946,-13.59692],[5.51285,6.52114]],[415.50374,221.1274],[[388.94961,191.35254],[0.89479,0.77563],[-10.24118,-8.87741]],[[353.0944,168.96938],[11.92766,6.38376],[-157.52939,-63.16498]],[[113.01936,180.00105],[8.08987,-35.32994],[-0.9284,112.19303]],[[264.74006,325.39412],[-32.20014,1.48899],[76.55535,-6.72568]],[379.23111,305.55276],[[502.43347,393.71717],[-153.7645,10.36402],[112.93573,-3.35061]],[597.2195,300.18865],[[698.94282,358.40336],[-73.49854,-1.85347],[58.49378,-1.23522]],[733.19591,319.4959],[[795.4566,276.27786],[-13.68763,57.89009],[2.89067,-33.21149]],[[773.50704,244.29987],[1.09261,0.00006],[-23.45963,-0.69246]]],&quot;closed&quot;:true}]}" fill="#000000" stroke="none" stroke-width="1.5" stroke-linecap="butt"/><path d="M206.47894,297.51016l11.84775,0.94684" data-paper-data="{&quot;index&quot;:null}" fill="none" stroke="#000000" stroke-width="1.5" stroke-linecap="round"/></g><g><path d="M293.72276,271.90792c-0.59179,4.47133 -3.14281,7.82192 -5.69786,7.48376c-2.55505,-0.33817 -4.14658,-4.23704 -3.55478,-8.70837c0.59179,-4.47133 3.14281,-7.82192 5.69786,-7.48376c2.55505,0.33817 4.14658,4.23704 3.55478,8.70837z" fill="#000000" stroke="#000000" stroke-width="1.5" stroke-linecap="butt"/><path d="M263.41094,256.45335c-0.18209,-10.89253 14.05335,-11.82936 14.57738,-11.80713c4.16968,0.1863 11.03382,0.13873 12.05774,5.15581c2.8752,11.06356 -10.39938,34.21746 -18.97031,31.90365c-1.31673,-0.35547 -18.24201,8.61603 -16.66775,-9.82675c1.02586,-12.01809 10.10478,-6.49352 10.10478,-6.49352c0,0 -1.09258,-8.37817 -1.10184,-8.93205z" fill="#000000" stroke="#000000" stroke-width="1.5" stroke-linecap="butt"/><path d="M294.92796,268.74474c8.39828,7.82065 7.55415,20.00519 3.98072,23.34656c-5.90284,5.91201 -26.55332,13.89233 -36.1324,7.33333c-11.35562,-6.7655 -6.67688,-20.9513 -3.75687,-24.28536c1.16055,-1.32513 2.73829,-2.36372 4.06449,-3.5169c4.12391,-3.57876 9.64642,-5.08513 14.75221,-6.62557c2.26429,-0.68315 16.03376,2.503 17.09185,3.74795z" data-paper-data="{&quot;index&quot;:null}" fill="#582700" stroke="#000000" stroke-width="1.5" stroke-linecap="butt"/><path d="M293.07723,270.39635c7.45139,6.93889 6.70244,17.74966 3.5319,20.7143c-5.23731,5.24545 -23.5595,12.326 -32.05857,6.50652c-10.0753,-6.00271 -5.92408,-18.5891 -3.3333,-21.54725c1.0297,-1.17572 2.42956,-2.09722 3.60623,-3.12038c3.65895,-3.17526 8.55881,-4.51179 13.08894,-5.87855c2.009,-0.60612 14.226,2.22079 15.16479,3.32538z" data-paper-data="{&quot;index&quot;:null}" fill="#7a3700" stroke="#000000" stroke-width="0" stroke-linecap="butt"/><path d="M270.22373,273.75793c-0.40035,-1.40948 0.91009,-2.92289 2.92695,-3.3803c2.01686,-0.45741 3.9764,0.3144 4.37676,1.72388c0.40035,1.40948 -0.91009,2.92289 -2.92695,3.3803c-2.01686,0.45741 -3.9764,-0.3144 -4.37676,-1.72388z" data-paper-data="{&quot;index&quot;:null}" fill="#000000" stroke="none" stroke-width="0" stroke-linecap="butt"/><path d="M279.77405,271.72848c-0.40035,-1.40948 0.91009,-2.92289 2.92695,-3.3803c2.01686,-0.45741 3.9764,0.31439 4.37676,1.72387c0.40035,1.40948 -0.91009,2.9229 -2.92695,3.38031c-2.01686,0.45741 -3.9764,-0.3144 -4.37676,-1.72388z" data-paper-data="{&quot;index&quot;:null}" fill="#000000" stroke="none" stroke-width="0" stroke-linecap="butt"/><path d="M286.20054,279.32968l-11.58991,2.63434" data-paper-data="{&quot;index&quot;:null}" fill="none" stroke="#000000" stroke-width="1.5" stroke-linecap="round"/><path d="M258.34614,287.66521c0.2504,5.09982 -0.38861,9.05524 -1.42725,8.83468c-1.03864,-0.22056 -2.08362,-4.53357 -2.33402,-9.63339c-0.2504,-5.09982 0.38861,-9.05524 1.42725,-8.83468c1.03864,0.22056 2.08362,4.53357 2.33402,9.63339z" fill="#000000" stroke="#000000" stroke-width="1.5" stroke-linecap="butt"/></g><path d="M351.08201,108.75875c0.38411,0.32009 0.06402,0.70421 0.06402,0.70421l-0.29002,0.33932c-2.12934,1.87946 -3.79311,0.92557 -5.41644,-0.84689c0,0 -0.33634,-0.36997 0.03363,-0.70631c0.36997,-0.33634 0.70631,0.03363 0.70631,0.03363c1.23931,1.37207 2.31529,2.29299 4.01214,0.77216l0.18617,-0.2321c0,0 0.32009,-0.38411 0.7042,-0.06402z" fill="#fffe66" stroke="none" stroke-width="0.5" stroke-linecap="butt"/><path d="M416.02023,108.36073c0.35355,0.35356 0,0.70711 0,0.70711l-0.12012,0.11856c-1.66685,1.876 -4.24987,1.40742 -5.8727,-0.2138c0,0 -0.35355,-0.35355 0,-0.7071c0.35355,-0.35356 0.70711,0 0.70711,0c1.19538,1.19666 3.155,1.7291 4.41301,0.26239l0.16559,-0.16716c0,0 0.35355,-0.35356 0.70711,0z" fill="#fffe66" stroke="none" stroke-width="0.5" stroke-linecap="butt"/></g></g></svg>