<svg version="1.1" xmlns="http://www.w3.org/2000/svg" xmlns:xlink="http://www.w3.org/1999/xlink" width="374.77477" height="288.28829" viewBox="0,0,374.77477,288.28829"><g transform="translate(-52.61266,-35.85585)"><g data-paper-data="{&quot;isPaintingLayer&quot;:true}" fill-rule="nonzero" stroke-linejoin="miter" stroke-miterlimit="10" stroke-dasharray="" stroke-dashoffset="0" style="mix-blend-mode: normal"><g stroke="#000000" stroke-linecap="round"><path d="M235.38517,195.9186c0,0 -28.22914,5.91484 -28.27891,-12.06568c-0.01835,-6.62461 16.21325,-5.02736 16.21325,-5.02736z" data-paper-data="{&quot;origPos&quot;:null}" fill="#66c8ff" stroke-width="2"/><path d="M227.3413,184.22999c0,0 -15.91916,-1.89997 -15.71052,-2.51368c0.66156,-1.94585 12.44273,-1.38252 12.44273,-1.38252z" data-paper-data="{&quot;origPos&quot;:null}" fill="#0a0a0a" stroke-width="1"/></g><g data-paper-data="{&quot;origRot&quot;:0}" stroke="#000000" stroke-linecap="round"><path d="M249.7349,222.89228c0,0 0.45006,-4.61562 1.99216,-4.43253c4.55052,0.54029 9.14872,-0.56232 13.20904,1.48073c1.68605,0.84837 1.91428,4.98391 1.91428,4.98391l0.67468,31.96365c0,0 0.11453,3.29961 0.11066,5.19766c-0.00414,2.02934 -1.40166,4.93063 -3.51298,4.79525c-7.75211,-0.497 -12.67677,0.56311 -17.4227,-0.92991c-1.72901,-0.54394 -3.52674,-1.23005 -4.05828,-2.89907c-0.69436,-2.18018 0.47599,-6.35982 0.47599,-6.35982z" data-paper-data="{&quot;origPos&quot;:null}" fill="#ff0000" stroke-width="3"/><path d="M267.32304,265.30916c0,0 -6.20706,1.96484 -11.30492,1.48749c-3.91124,-0.36623 -12.28258,-2.14352 -12.28258,-2.14352c0,0 -1.10054,-2.63295 -1.0332,-4.17919c0.07092,-1.62888 1.38741,-3.9567 1.38741,-3.9567l23.43777,1.42095z" data-paper-data="{&quot;origPos&quot;:null}" fill="#976e57" stroke-width="2"/><path d="M249.7851,223.20826c0,0 0.45006,-4.61562 1.99216,-4.43251c4.55051,0.54028 9.14872,-0.56232 13.20905,1.48074c1.68605,0.84837 1.91428,4.9839 1.91428,4.9839l0.67467,31.96366c0,0 0.11454,3.29961 0.11068,5.19766c-0.00414,2.02934 -1.40168,4.93063 -3.513,4.79526c-7.75211,-0.497 -12.67677,0.56313 -17.42269,-0.9299c-1.72901,-0.54394 -3.52673,-1.23008 -4.05828,-2.89907c-0.69436,-2.18018 0.47598,-6.35982 0.47598,-6.35982z" data-paper-data="{&quot;origPos&quot;:null}" fill="#4b4b4b" stroke-width="3"/></g><path d="M215.42014,262.36132c0,0 -3.00442,3.22911 -5.28653,3.86668c-1.74705,0.48809 -3.33056,-0.57816 -4.75242,-1.6672c-3.90279,-2.98929 -5.67652,-7.521 -10.35776,-13.46777c-1.27497,-1.61963 0.48992,-4.33054 2.25773,-5.44582c1.65344,-1.04312 4.59426,-2.75924 4.59426,-2.75924l28.2499,-16.97301c0,0 3.73225,-2.08295 5.3961,-1.19517c4.00687,2.1379 5.56469,6.43097 8.52936,9.78555c1.00468,1.13682 -2.77465,4.02697 -2.77465,4.02697c0,0 -6.53789,6.02536 -10.72249,9.8819c-5.90604,5.44305 -15.13353,13.94712 -15.13353,13.94712z" fill="#4b4b4b" stroke="#000000" stroke-width="3" stroke-linecap="round"/><g><g><path d="M225.45536,196.82791c0,0 3.82482,-13.55233 6.05047,-13.80591c6.67695,-0.76077 21.32748,1.98853 31.20094,3.23057c1.52634,0.19201 1.07219,13.3152 1.07219,13.3152l-2.23305,29.54826c0,0 -1.71587,14.35189 -3.38094,14.14243c-14.82226,-1.86457 -32.30659,-3.23366 -38.80306,-4.86987c-2.16549,-0.54539 0.72465,-15.52849 0.72465,-15.52849z" data-paper-data="{&quot;origPos&quot;:null}" fill="#66c8ff" stroke="#000000" stroke-width="3.5" stroke-linecap="round"/><path d="M243.19519,207.0444c-1.28952,-0.16221 -0.96379,-2.54384 -0.96379,-2.54384c0.67561,-4.93966 1.56838,-11.4671 2.244,-16.40676c0,0 0.32574,-2.38161 1.61526,-2.2194c1.28952,0.16221 0.96379,2.54384 0.96379,2.54384c-0.67561,4.93966 -1.35121,9.87934 -2.02682,14.81902l-0.21716,1.58776c0,0 -0.32575,2.38161 -1.61527,2.21941z" fill="#ffffff" stroke="none" stroke-width="0.5" stroke-linecap="butt"/><path d="M254.34586,214.61523c-1.28952,-0.16221 -0.88031,-3.15422 -0.88031,-3.15422c0.84875,-6.20562 1.97033,-14.40589 2.81908,-20.61151c0,0 0.40923,-2.99199 1.69874,-2.82979c1.28952,0.16221 0.8803,3.15422 0.8803,3.15422c-0.84875,6.20562 -1.6975,12.41123 -2.54627,18.61686l-0.27282,1.99467c0,0 -0.40922,2.99199 -1.69873,2.82979z" fill="#ffffff" stroke="none" stroke-width="0.5" stroke-linecap="butt"/></g><g fill="none" stroke="#b9b9b9" stroke-width="3"><path d="M259.87576,190.7996c-0.6483,-1.40421 0.42331,-2.45717 1.80372,-3.46977c1.38043,-1.01259 2.65449,-1.21454 3.19525,-0.19717c1.14653,2.15713 -0.46806,2.9041 -1.54897,3.69698c-1.38044,1.0126 -2.53441,1.95309 -3.45,-0.03002z" stroke-linecap="butt"/><path d="M260.93577,190.35758l-2.91557,2.08695" stroke-linecap="round"/><path d="M254.39717,192.60171c1.38043,-1.01259 2.6545,-1.21454 3.19526,-0.19716c1.14653,2.15713 -0.46807,2.9041 -1.54898,3.69698c-1.38043,1.01259 -2.5344,1.95309 -3.44997,-0.03003c-0.6483,-1.40421 0.42329,-2.45717 1.80369,-3.46978z" stroke-linecap="butt"/><path d="M253.65344,195.62947l-2.91557,2.08696" stroke-linecap="round"/><path d="M245.18416,196.57735c0.6141,-1.51517 1.92968,-1.1991 3.38688,-0.56893c1.45719,0.63017 2.29606,1.68695 1.89013,2.85094c-0.86072,2.46798 -2.26297,1.4472 -3.40398,0.95377c-1.45719,-0.63017 -2.74028,-1.09596 -1.873,-3.23576z" stroke-linecap="butt"/><path d="M246.07131,197.27885l-3.04199,-1.36453" stroke-linecap="round"/><path d="M238.56943,191.48363c1.06394,-1.14853 2.1337,-0.24739 3.22357,1.01508c1.08986,1.26246 1.48162,2.64421 0.72319,3.55671c-1.60807,1.93474 -2.51614,0.32882 -3.36955,-0.65973c-1.08986,-1.26247 -2.07974,-2.29003 -0.57722,-3.91204z" stroke-linecap="butt"/><path d="M236.86652,189.8705l2.25852,2.68172" stroke-linecap="round"/><path d="M232.87856,184.80292c1.06393,-1.14851 2.13373,-0.24739 3.22358,1.01508c1.08989,1.26246 1.48161,2.64421 0.72319,3.55672c-1.60807,1.93474 -2.51613,0.3288 -3.36954,-0.65975c-1.08986,-1.26246 -2.07974,-2.29001 -0.57722,-3.91203z" stroke-linecap="butt"/><path d="M231.17567,183.18975l2.25853,2.68171" stroke-linecap="round"/></g></g><path d="M52.61266,324.14414v-288.28829h374.77477v288.28829z" fill="none" stroke="none" stroke-width="NaN" stroke-linecap="butt"/><g><g data-paper-data="{&quot;index&quot;:null}" stroke="#000000" stroke-width="2.5" stroke-linecap="round"><path d="M228.63455,151.8226c1.39832,-4.37193 4.35513,-5.42734 4.35513,-5.42734c0,0 2.66963,-1.53612 4.24289,-1.46228c4.71982,0.22162 18.15357,1.48525 29.62525,3.64616c0.38285,0.07212 0.59542,0.12654 0.97332,0.22132c1.13364,0.28439 5.51398,1.58214 5.51398,1.58214c0,0 1.35669,3.4308 1.65681,5.24927c0.90037,5.45536 -2.01709,18.78303 -3.91375,32.93989c-0.17188,1.28314 -2.1165,3.3117 -2.1165,3.3117c0,0 -3.36521,1.24078 -5.38385,0.98154c-13.05084,-1.67594 -27.4845,-3.57828 -30.76193,-4.22969c-1.09248,-0.21712 -3.54953,-0.97515 -5.17391,-2.53595c-1.6244,-1.56081 -3.02188,-3.31929 -2.84923,-5.17322c0.17264,-1.85396 2.30177,-24.31992 3.83179,-29.10354z" fill="#582700"/><path d="M230.23734,137.46159c1.39832,-4.37193 4.35511,-5.42731 4.35511,-5.42731c0,0 2.66964,-1.53612 4.24293,-1.46224c4.71984,0.22162 18.15358,1.48522 29.62525,3.64616c0.38286,0.07209 0.59542,0.12654 0.97332,0.22132c1.13364,0.28439 5.51398,1.58214 5.51398,1.58214c0,0 1.35669,3.43081 1.65681,5.24927c0.90037,5.45536 -2.01709,18.78303 -3.91372,32.93989c-0.17188,1.28314 -2.11647,3.31167 -2.11647,3.31167c0,0 -3.36521,1.2408 -5.38385,0.98157c-13.05084,-1.67594 -27.4845,-3.57828 -30.76193,-4.22969c-1.09248,-0.21715 -3.54954,-0.97514 -5.17392,-2.53599c-1.6244,-1.56081 -3.02188,-3.31926 -2.84926,-5.17322c0.17262,-1.85393 2.30179,-24.31992 3.83178,-29.10357z" fill="#000000"/></g><path d="M237.91248,173.29024c4.93359,-1.38958 8.93293,0.67426 10.01321,4.42346c1.23897,4.29989 -2.9113,6.26591 -2.9113,6.26591c0,0 -2.42157,-1.05883 -5.6067,-1.66258c-3.966,-0.75177 -6.22235,-0.62466 -6.22235,-0.62466c0,0 -1.96579,-6.51702 4.72714,-8.40214z" fill="#ffffff" stroke="#000000" stroke-width="2" stroke-linecap="butt"/><path d="M264.24753,176.69792c5.55527,3.54117 1.0405,9.18196 1.0405,9.18196c0,0 -2.08011,-0.71343 -6.134,-1.04602c-3.25572,-0.2671 -5.97552,0.09658 -5.97552,0.09658c0,0 -3.11978,-2.94899 -0.19583,-6.68603c2.54949,-3.25842 7.16987,-4.1568 11.26485,-1.5465z" data-paper-data="{&quot;index&quot;:null}" fill="#ffffff" stroke="#000000" stroke-width="2" stroke-linecap="butt"/><path d="M239.81434,182.98125l-0.40442,-0.08707c-0.87779,0.04072 -1.89673,-0.04266 -2.62803,-0.50351c-0.27272,0.56984 -0.86159,1.17829 -1.01035,1.18575c-2.21461,0.1111 -1.19242,-1.14399 -1.16605,-1.66174c0.01231,-0.24171 -0.50757,-0.47627 -0.655,-0.56844c0,0 -0.05194,-0.03468 -0.11129,-0.09481c-0.16015,0.00033 -0.30911,-0.00042 -0.44188,-0.00406c0,0 -1.1032,-0.03141 -1.08468,-0.86513c0.01852,-0.83373 1.12171,-0.80232 1.12171,-0.80232c1.32478,0.03896 3.09302,-0.01316 4.31824,0.43662c0.55886,0.20516 0.95542,0.62244 1.51757,0.82225c0.5178,0.18402 1.08935,0.26247 1.61783,0.42747l0.6955,0.3224c0,0 0.93645,0.45588 0.35298,1.15463c-0.58347,0.69876 -1.51991,0.24287 -1.51991,0.24287l-0.09229,-0.04935c-0.24438,0.08555 -0.50993,0.04443 -0.50993,0.04443z" fill="#000000" stroke="none" stroke-width="0.5" stroke-linecap="butt"/><path d="M255.81362,185.13397c0,0 -0.26946,-0.01704 -0.47792,-0.15184l-0.10489,0.02791c0,0 -1.0499,0.23989 -1.38913,-0.55919c-0.33922,-0.79907 0.71068,-1.03897 0.71068,-1.03897l0.77458,-0.16255c0.56293,-0.04632 1.1397,0.0001 1.69843,-0.06687c0.60657,-0.07271 1.12305,-0.39073 1.72818,-0.46932c1.32665,-0.1723 3.01657,0.25584 4.30768,0.50132c0,0 1.07481,0.20541 0.82553,1.01405c-0.24929,0.80863 -1.32411,0.60321 -1.32411,0.60321c-0.12932,-0.02486 -0.27334,-0.05597 -0.4278,-0.0905c-0.07655,0.04536 -0.13779,0.06772 -0.13779,0.06772c-0.17184,0.05745 -0.74876,0.17275 -0.81433,0.40867c-0.14047,0.50534 0.44393,1.93512 -1.65792,1.35468c-0.14116,-0.03898 -0.51456,-0.75206 -0.59517,-1.36032c-0.85351,0.28853 -1.86365,0.1513 -2.69782,-0.07557l-0.41823,-0.00239z" data-paper-data="{&quot;index&quot;:null}" fill="#000000" stroke="none" stroke-width="0.5" stroke-linecap="butt"/><g data-paper-data="{&quot;index&quot;:null}" stroke="#000000" stroke-width="1" stroke-linecap="butt"><path d="M232.62157,194.1032c-9.38309,-3.62368 -3.21642,-12.54103 -3.21642,-12.54103l14.0152,5.27048c0,0 -0.86461,11.10705 -10.79879,7.27054z" fill="#000000"/><path d="M232.55665,190.74104c2.28874,1.74935 3.6535,4.17668 3.2035,4.13773c-0.92992,-0.0805 -1.97168,-0.32497 -3.13857,-0.7756c-3.49723,-1.35059 -4.83433,-3.4366 -5.13569,-5.52217c-0.05855,-0.40517 2.96905,0.55362 5.07076,2.16004z" fill="#ff8484"/><path d="M227.98733,184.8154c0.54782,-1.34082 1.41786,-3.25323 1.41786,-3.25323l12.31734,4.63198l-1.22854,3.43215c0,0 -12.52471,-4.76669 -12.50666,-4.81089z" fill="#ffffff"/></g><path d="M228.16717,187.99737c0.41765,-0.32161 0.93743,-0.04476 0.93743,-0.04476l0.40276,0.24121c1.78386,1.58888 4.63705,2.26125 6.76146,3.39391c0.74559,0.39752 2.27312,1.00811 2.63179,1.85791c0.02365,0.05605 0.04509,0.11275 0.06456,0.17002l0.02934,-0.01373l0.44361,0.94752c0.06161,0.12472 0.09466,0.26582 0.09083,0.41454c-0.00714,0.27657 -0.14029,0.52024 -0.3431,0.67749c0.05313,0.11772 0.08122,0.24894 0.07767,0.38671c-0.00864,0.33526 -0.20248,0.62219 -0.48111,0.76543l-0.56251,0.30248c0.0594,0.18097 0.05544,0.33464 0.05544,0.33464l-0.00001,0.00001l-0.00614,0.23785c-0.02839,0.41716 0.14743,0.90402 -0.08518,1.25146c-0.37459,0.55953 -0.91534,1.27225 -1.58827,1.24821c-0.2151,-0.00769 -0.36566,-0.14151 -0.48734,-0.32945c-0.23586,-0.12186 -0.4092,-0.34633 -0.4625,-0.61288l-0.11465,-0.51461c-0.16903,-0.25907 -0.32017,-0.50566 -0.4743,-0.73658c-0.65477,1.49957 0.66271,3.44483 0.45804,4.91242c-0.15112,1.08362 -0.58875,2.31936 -2.10435,2.0823c-0.61358,-0.09598 -1.16521,-0.58413 -1.49706,-1.10908c-0.147,-0.23253 -0.02439,-2.00718 -0.03549,-2.38041c-0.02333,-0.78428 -0.06899,-1.58888 -0.1425,-2.3925c-0.19058,-1.36011 -0.48017,-2.69906 -1.03879,-3.97456c-0.02626,-0.05998 -0.05305,-0.11914 -0.08031,-0.17753c-0.26029,-0.32563 -0.48593,-0.67784 -0.66921,-1.05337l-0.52654,-0.77884c-0.07045,-0.04798 -0.13972,-0.09356 -0.20771,-0.13639l-0.02116,0.02344l-0.8098,-0.73115c-0.18762,-0.16736 -0.30314,-0.41309 -0.29615,-0.68412c0.00131,-0.05059 0.00682,-0.10008 0.01622,-0.14814c-0.13379,-0.15609 -0.26361,-0.31755 -0.38957,-0.4843c-0.24749,-0.32762 -0.68345,-0.58941 -0.72173,-0.99823c-0.0639,-0.68245 -0.12251,-1.61721 0.44016,-2.00866c0.14021,-0.09754 0.41449,-0.05312 0.73614,0.06174zM233.25024,196.89221c0.01249,0.08132 0.02467,0.16283 0.03654,0.24447c0.03124,-0.06393 0.06453,-0.12697 0.09996,-0.18915c-0.04568,-0.01797 -0.09119,-0.0364 -0.13651,-0.05533z" fill="#000000" stroke="none" stroke-width="0.5" stroke-linecap="butt"/></g><g data-paper-data="{&quot;index&quot;:null}"><g data-paper-data="{&quot;origRot&quot;:0,&quot;index&quot;:null}" stroke="#000000" stroke-width="3" stroke-linecap="round"><path d="M217.43276,240.46782c0,0 -23.94366,-8.0347 -23.32146,-10.51326c1.12187,-4.46899 6.4452,-13.68884 6.4452,-13.68884l15.48491,-25.81143c0,0 3.01376,-4.85572 4.16541,-4.8002c3.45494,0.16652 8.8748,3.83422 14.99265,6.37769c1.01689,0.42279 -0.73054,6.08373 -0.73054,6.08373c0,0 -3.14239,8.78542 -5.15367,14.40856c-3.06298,8.56345 -7.84851,21.94281 -7.84851,21.94281c0,0 -2.22435,6.92654 -4.03399,6.00094z" data-paper-data="{&quot;origPos&quot;:null}" fill="#582700"/><path d="M220.48644,233.75648l-22.66353,-10.38593" fill="none"/><path d="M222.08709,230.8336l-22.56461,-10.60178" data-paper-data="{&quot;origPos&quot;:null}" fill="none"/></g><path d="M199.56596,219.50029l19.6265,-32.70122l1.44899,-0.08907l14.35911,6.63314l-12.53889,36.67958z" fill="#66c8ff" stroke="#000000" stroke-width="1" stroke-linecap="round"/><path d="M197.86466,223.20913l0.97817,-2.11594l23.1472,10.70042l-0.97817,2.11594z" fill="#ffffff" stroke="none" stroke-width="0" stroke-linecap="butt"/></g><path d="M193.97698,238.1084c-2.46887,-1.7953 -2.51831,-3.88263 -2.51831,-3.88263c0,0 -0.4129,-2.00629 -0.03796,-2.98434c1.12485,-2.9341 4.72611,-11.1532 8.4845,-17.94611c0.12543,-0.2267 0.20415,-0.34957 0.34286,-0.56842c0.41615,-0.65649 2.14969,-3.15167 2.14969,-3.15167c0,0 2.4495,-0.14076 3.66041,0.04921c3.63269,0.56987 11.43971,5.19329 19.98331,9.34516c0.77438,0.3763 1.64952,2.02756 1.64952,2.02756c0,0 0.08125,2.3839 -0.50369,3.60446c-3.78168,7.89127 -7.9949,16.60849 -9.09016,18.5421c-0.36506,0.64455 -1.35646,2.03788 -2.68101,2.73789c-1.32455,0.70003 -2.72658,1.21552 -3.86122,0.71962c-1.13467,-0.49589 -14.87659,-6.52847 -17.57794,-8.49283z" fill="#582700" stroke="#000000" stroke-width="2.5" stroke-linecap="round"/><g><g data-paper-data="{&quot;index&quot;:null}"><g stroke="#000000" stroke-width="3" stroke-linecap="round"><path d="M285.77542,227.39765c0,0 3.08005,10.2903 2.71965,14.88383c-15.56109,6.63536 -25.2375,4.18171 -25.2375,4.18171c-1.98649,0.43063 -2.3604,-6.8347 -2.3604,-6.8347c0,0 -1.19483,-14.15913 -1.95961,-23.22167c-0.50217,-5.95084 -1.28676,-15.24829 -1.28676,-15.24829c0,0 -0.23746,-5.91976 0.85386,-6.06765c6.56549,-0.88973 12.74461,-3.04505 16.12675,-2.32008c1.12738,0.24165 2.79529,5.7078 2.79529,5.7078l8.34869,28.91904z" data-paper-data="{&quot;origPos&quot;:null}" fill="#582700"/><path d="M286.56276,233.10143l-25.28238,4.40241l-0.56947,-3.35402l25.27836,-4.66102z" data-paper-data="{&quot;origPos&quot;:null}" fill="none"/></g><path d="M260.4206,233.73453l-2.30498,-36.79543l1.14175,-0.88437l15.55497,-2.84156l10.38025,35.94777z" fill="#66c8ff" stroke="#000000" stroke-width="1" stroke-linecap="round"/><path d="M261.16891,237.07122l-0.40271,-2.29606l25.11742,-4.40543l0.40271,2.29606z" fill="#ffffff" stroke="none" stroke-width="0" stroke-linecap="butt"/></g><g fill="#fffc96" stroke="#000000" stroke-width="2" stroke-linecap="round"><path d="M283.84434,222.80384c0,0 4.36556,0.39711 4.35488,3.34135c-0.0171,4.71066 -32.64558,-0.33248 -32.92389,-5.24288c-0.11371,-2.00627 3.05055,-2.23308 3.05055,-2.23308l0.32752,1.84277c0,0 5.91441,2.29131 13.49915,3.6371c7.47963,1.32714 12.55254,0.84373 12.55254,0.84373z"/><path d="M281.48605,214.51531c0,0 2.96434,-2.39049 3.95462,-0.29007c2.07875,4.40908 -26.77247,24.36255 -27.74859,19.83215c-0.59116,-2.74371 2.68377,-3.916 2.68377,-3.916l0.28071,1.34801c0,0 4.86299,-2.17059 11.30875,-6.797c6.44578,-4.6264 9.93723,-8.94011 9.93723,-8.94011z" data-paper-data="{&quot;index&quot;:null}"/></g></g><path d="M287.4068,246.94137c-3.09084,1.266 -17.87281,3.85941 -19.09283,4.0714c-1.22,0.21199 -2.45932,-0.62196 -3.57953,-1.61675c-1.12022,-0.99479 -1.75201,-2.58382 -1.95341,-3.29668c-0.60427,-2.13853 -2.62477,-11.60735 -4.42243,-20.17133c-0.27807,-1.32464 0.36747,-3.62089 0.36747,-3.62089c0,0 1.24254,-1.39591 2.08416,-1.57738c9.28561,-2.00218 17.96782,-4.63748 21.63184,-4.32758c1.22136,0.1033 3.56721,0.82223 3.56721,0.82223c0,0 1.09078,2.83571 1.33896,3.5723c0.08272,0.24555 0.12998,0.38361 0.19792,0.63362c2.0361,7.49156 3.58058,16.33108 3.9758,19.44847c0.13173,1.03912 -0.74621,2.88978 -0.74621,2.88978c0,0 -0.54414,2.01577 -3.36899,3.1728z" data-paper-data="{&quot;index&quot;:null}" fill="#582700" stroke="#000000" stroke-width="2.5" stroke-linecap="round"/><path d="M192.70069,165.24328v2.78033h-3.68206v-2.78033z" data-paper-data="{&quot;index&quot;:null}" fill="#582700" stroke="none" stroke-width="0" stroke-linecap="butt"/><path d="M210.94174,157.23858v1.98862h-2.55679v-1.98862z" data-paper-data="{&quot;index&quot;:null}" fill="#582700" stroke="none" stroke-width="0" stroke-linecap="butt"/></g></g></svg>