<svg version="1.1" xmlns="http://www.w3.org/2000/svg" xmlns:xlink="http://www.w3.org/1999/xlink" width="209.0575" height="231.21651" viewBox="0,0,209.0575,231.21651"><g transform="translate(-111.31288,-37.11427)"><g data-paper-data="{&quot;isPaintingLayer&quot;:true}" fill-rule="nonzero" stroke-linejoin="miter" stroke-miterlimit="10" stroke-dasharray="" stroke-dashoffset="0" style="mix-blend-mode: normal"><g stroke="#000000" stroke-width="2"><g stroke-linecap="round"><path d="M276.71754,129.08949l22.23826,-13.43527l-4.58825,-7.05846l10.68976,-9.35415c0,0 -0.4742,-5.03761 1.5074,-2.99156c4.10527,4.23875 14.27533,16.87253 12.62655,21.49156c-1.99433,4.97205 -11.49561,9.79166 -18.79245,13.61324c-9.65863,5.05854 -18.97224,7.862 -22.02535,8.82794c-2.35059,0.74366 -7.42756,0.3676 -6.58252,-5.51158c0.37339,-2.59795 3.90272,-4.98167 4.77543,-5.69272" fill="#f5d9b5"/><g><path d="M288.68102,99.15737l16.1887,-8.30936c0,0 6.74882,10.30661 11.1361,17.84033c0.2189,0.37592 -7.21717,9.81364 -16.75989,6.93974z" fill="#965646"/><path d="M311.53764,112.99926l-12.04037,-18.9746" fill="none"/><path d="M304.87952,115.42465l-11.5679,-18.25256" fill="none"/></g></g><path d="M303.24422,103.10876c-4.92448,4.01102 -12.68648,2.63409 -17.33694,-3.07545c-4.65045,-5.70954 -4.09251,-16.23504 0.83196,-20.24606c4.92448,-4.01102 12.21965,3.6908 16.87009,9.40034c4.65045,5.70954 4.55935,9.91014 -0.36512,13.92116z" fill="#4ac2e4" stroke-linecap="butt"/></g><path d="M286.50811,123.92574l-1.38978,3.42044l-3.30081,-3.56989l7.21062,-5.61163l3.26779,10.87138z" data-paper-data="{&quot;index&quot;:null}" fill="#4ac2e4" stroke="#000000" stroke-width="1.5" stroke-linecap="butt"/><g><path d="M209.17234,152.57754c0,0 -17.46181,2.77215 -28.14241,10.28232c-3.81523,2.68272 7.66174,13.28204 7.66174,13.28204l-12.45513,13.78358c0,0 -3.87787,1.32577 -6.01378,-0.55864c-7.64471,-6.74462 -11.31519,-17.23948 -8.29164,-26.244c1.74774,-5.20498 6.84126,-9.95115 11.8312,-13.086c9.23238,-5.80009 28.10262,-7.85555 28.10262,-7.85555" data-paper-data="{&quot;index&quot;:null}" fill="#f5d9b5" stroke="#000000" stroke-width="2" stroke-linecap="round"/><g data-paper-data="{&quot;index&quot;:null}" stroke="#000000" stroke-width="2" stroke-linecap="round"><path d="M183.68944,170.8449c4.28309,2.97828 12.3184,8.93876 12.3184,8.93876c0,0 -11.20039,0.09837 -12.80288,2.46094c-1.4839,2.18776 3.51635,11.23038 3.51635,11.23038c0,0 -15.27917,-0.05091 -20.90797,-13.0043c-2.9669,-6.82762 11.36756,-14.15133 17.87606,-9.62579z" fill="#965646"/><path d="M167.9458,175.33467l12.79871,12.61896" fill="none"/><path d="M174.5939,170.90881l16.39094,11.15312" fill="none"/></g><g><g><g data-paper-data="{&quot;index&quot;:null}" stroke-linecap="butt"><path d="M190.38366,199.25745c-1.45568,0.96115 -3.46815,1.17414 -4.94583,1.56705c-3.762,1.00026 -7.02308,0.68408 -10.70618,-1.4863c-2.41329,-1.4221 -4.77393,-5.69768 -4.77393,-5.69768c0,0 -1.44145,-0.89194 -2.40351,-1.63299c-6.9408,-5.34618 -2.50596,-17.51589 5.39184,-15.3746c0.8718,-3.44153 5.401,-5.57759 8.97056,-5.067c1.09261,-7.9675 10.19775,-8.57664 14.23635,-7.44428c4.09065,1.147 4.45396,5.08172 5.35636,8.76887c0.64616,2.64015 2.41487,5.77587 1.4066,7.85335c-0.78187,1.61104 -3.77343,3.38526 -5.87973,3.30495c0.17218,1.19774 -0.64989,1.78432 0.22984,1.48735c6.05917,-0.38036 11.24152,3.76305 8.70532,8.63897c-1.4737,2.83325 -7.03995,3.16679 -10.50078,1.86643c-1.35463,0.64716 -4.59391,2.89035 -5.08693,3.21587z" fill="#000000" stroke="none" stroke-width="0.5"/><path d="M177.90497,198.67679c-3.74201,-1.31278 -6.40897,-5.66762 -6.40897,-5.66762c0,0 2.09914,0.33515 3.29897,-0.32825c1.53753,-0.8501 2.42676,-2.36533 2.42676,-2.36533c0,0 1.70982,1.76238 4.73782,1.53258c1.5447,-0.11721 3.70204,-0.69176 5.16229,-2.00185c0.64242,-0.57635 1.11584,-1.46502 1.50682,-2.18066c0.92832,-1.69919 -0.77934,-7.12111 -2.38548,-5.68265c-1.60613,1.43847 2.98066,6.71766 -3.13568,8.11842c-2.28744,0.69056 -3.89008,-0.51266 -4.81404,-1.71204c-0.70884,-0.92013 -0.83676,-1.79426 -1.66702,-2.07406c-0.06003,-0.02022 -0.12024,-0.03945 -0.18048,-0.05705c-0.10175,-0.08891 -0.26967,-0.41298 -0.29076,-0.26029c-0.35787,2.59286 -0.4391,4.51101 -1.63348,5.21557c-1.18773,0.70064 -3.48562,0.19714 -4.90159,-0.61421c-1.97153,-1.12971 -3.36376,-5.27958 -2.91028,-7.4227c0.71091,-3.35963 3.21225,-6.10123 7.24968,-4.19843c0,0 1.04606,-3.4099 2.86907,-4.29704c2.80344,-1.36431 6.8221,-0.78821 6.8221,-0.78821c0,0 0.4558,-3.80327 0.85493,-4.52415c1.73788,-3.13859 9.66737,-3.89795 12.07219,-2.392c1.07171,0.67113 1.95322,5.01784 2.78166,8.17809c0.58543,2.23325 1.42545,3.30976 1.10456,4.63489c-0.26627,1.09959 -3.08962,1.86247 -4.51634,1.99826c-2.80224,0.51428 -3.3153,-0.66843 -4.17877,-1.90913c-0.87612,-1.25886 -0.8894,-2.93874 -1.69936,-2.82045c-0.46784,0.06832 -0.78784,0.21971 -0.98424,0.43361c-0.76703,0.8353 0.35091,2.62383 1.9107,4.14057c0.77938,0.75786 1.66909,1.44787 2.48909,1.91719c-0.21069,2.07978 0.03923,3.80326 1.38656,3.8779c3.18831,0.17663 7.80916,-0.00304 8.7608,3.5249c1.42188,5.27136 -5.65285,2.96687 -9.3589,3.08715c0,0 -10.11565,6.83075 -16.36865,4.63705z" data-paper-data="{&quot;noHover&quot;:false,&quot;origItem&quot;:[&quot;Path&quot;,{&quot;applyMatrix&quot;:true,&quot;segments&quot;:[[[125.34693,572.28539],[0,0],[9.5542,-5.52752]],[[145.54599,551.07879],[11.14375,11.83056],[-10.91121,-11.58371]],[[107.57608,545.25957],[8.92382,23.60675],[-9.24736,2.75866]],[[90.51041,533.59623],[-7.75722,5.74017],[3.88909,-2.87784]],[[112.67488,537.77718],[-8,5.32104],[3.55223,-2.3627]],[[121.56111,526.31161],[0.8478,3.25941],[-1.02169,-3.92792]],[[112.17218,515.72545],[4.67659,5.03597],[-6.61787,-7.12642]],[[93.41811,498.19218],[3.75558,0.25364],[-8.42726,-0.56913]],[[65.29972,520.83032],[0.14573,-10.67857],[-0.03346,2.45263]],[69.30791,534.47925],[[52.53764,546.09621],[5.43661,-7.52196],[-3.5353,4.89133]],[[51.05266,561.36841],[0,0],[-13.26873,0.68565]],[[37.92637,582.55127],[-2.85957,-9.81424],[1.82415,6.26062]],[[54.54959,597.04786],[-6.76135,-0.19141],[0.48636,0.01376]],[[60.40089,595.84818],[-0.42349,1.56607],[13.81008,-4.46101]],[[66.51333,576.78502],[-7.92441,0],[0.45883,0]],[[67.78843,576.9226],[-0.39199,-0.09017],[0.18278,-0.03861]],[[68.34153,576.81785],[-0.18592,0.03133],[5.92404,-0.99864]],[[88.94775,574.78697],[-8.88942,8.88657],[14.07723,-12.27659]],[[86.57225,549.06928],[-2.19099,6.03276],[2.19099,-6.03276]],[[101.21156,563.65055],[0.04598,-5.76358],[-0.14966,18.76182]],[[73.9804,586.91918],[11.7383,0.37577],[-0.47154,-0.0151]],[[72.1505,586.94196],[0.72344,-0.02236],[-0.09676,2.96479]],[[71.1221,594.74753],[0.41982,-1.89247],[-0.76716,3.45832]],[67.36008,602.72239],[[89.01534,607.42214],[-11.66391,1.81815],[19.49071,-3.03818]]],&quot;closed&quot;:true}]}" fill="#47c1e2" stroke="#47c1e2" stroke-width="1"/></g><path d="M186.85187,182.39031c0,0 2.80156,5.58303 -2.46925,7.85867c-4.96856,2.14513 -7.21436,-1.64332 -7.90549,-2.89115c-0.71015,-1.28218 0.03575,0.38583 -0.27599,2.11585c-0.23231,1.28923 -1.2481,2.56564 -2.8404,2.93448c-4.19778,0.97237 -6.77318,-3.38824 -6.77318,-3.38824" fill="none" stroke="#000000" stroke-width="2" stroke-linecap="round"/></g><path d="M201.76618,180.66312c0,0 -2.79221,2.64372 -6.86312,2.14935c-1.84277,-0.22378 -3.43413,-1.68494 -4.23016,-2.9602c-0.6358,-1.01859 -0.66071,-1.92744 -0.66071,-1.92744" fill="none" stroke="#000000" stroke-width="2" stroke-linecap="round"/></g></g><g><path d="M255.00982,204.74774l23.43445,30.38889l-18.97229,0.02153l-17.55103,-24.4029z" fill="#3a3b3f" stroke="none" stroke-width="0" stroke-linecap="round"/><path d="M264.17852,216.05145c0,0 20.83279,26.71363 24.62313,36.00826c2.32256,5.69537 -2.75467,7.56411 -2.75467,7.56411c0,0 -8.39768,1.19725 -16.21019,0.366c0.03618,-0.22035 0.06451,-0.44368 0.0847,-0.66966c0.19673,-2.20219 -0.41365,-4.29036 -1.58676,-5.97217c0.0082,-0.07238 0.01558,-0.14507 0.02209,-0.21803c0.20495,-2.29418 -0.46605,-4.46461 -1.73667,-6.18076l0.29009,0.00087l-16.51472,-26.3238z" fill="#585a5e" stroke="none" stroke-width="0" stroke-linecap="round"/><path d="M272.12496,240.7748c4.42589,-1.04596 8.17832,-3.12691 8.94487,-2.1799c3.09271,3.82067 6.09083,9.74507 7.46139,13.10596c0.42944,1.05305 0.60591,1.97531 0.60825,2.7791c-0.0992,-0.08174 -0.2027,-0.15985 -0.31085,-0.23408c-0.70294,-0.48246 -1.49595,-0.83921 -2.32336,-1.09384c-0.65936,-0.22115 -1.35493,3.0308 -2.07799,2.9662c-2.73953,-0.33242 -4.72568,-0.68846 -6.70376,-0.59057c-4.23913,0.20979 -7.00999,-2.02555 -7.00999,-2.02555c0,0 -4.52517,-7.38764 -7.71725,-12.86474c0,0 4.68721,1.18708 9.12867,0.13743z" fill="#a08c83" stroke="#000000" stroke-width="2" stroke-linecap="round"/><path d="M269.96745,251.94578l-24.57077,-37.95194l12.85738,-4.35492c0,0 6.64875,6.94172 12.56152,15.33572c5.64639,8.01585 14.40548,18.30446 17.98618,27.08504c2.32256,5.69537 -2.75468,7.5641 -2.75468,7.5641c0,0 -8.39769,1.19723 -16.2102,0.366" fill="none" stroke="#000000" stroke-width="2" stroke-linecap="round"/><path d="M265.53641,255.93842c1.18624,-0.79442 3.89282,-1.99209 3.89282,-1.99209c0,0 -0.03222,-2.69969 0.60895,-2.83786c0.65148,0.10284 1.17787,1.54425 1.97132,1.93548c1.57623,0.77718 3.46978,0.72458 4.33513,1.00421c1.54122,0.498 4.17284,0.15163 5.95485,0.06339c0.12342,-0.0061 2.07766,-0.05168 3.57499,-0.74008c1.19565,-0.54971 1.9362,-1.7823 2.42101,-1.73124l1.85414,6.7837c0,0 1.59616,4.35746 0.68537,5.64572c-0.91079,1.28825 -5.68916,1.49785 -7.2529,1.873c-1.56374,0.37517 -12.91422,1.06064 -12.91422,1.06064c0,0 -3.39081,0.47313 -6.07754,-1.00059c-1.84034,-1.00945 -3.04114,-2.831 -2.80438,-5.01931c0.22966,-2.12276 2.07145,-3.65266 4.15044,-5.04495z" fill="#4ac2e4" stroke="none" stroke-width="0" stroke-linecap="butt"/><path d="M267.08583,266.08243c0,0 -0.52077,-4.49929 2.25002,-6.65294" fill="none" stroke="#000000" stroke-width="2" stroke-linecap="round"/><path d="M275.57759,267.10273c0,0 -1.57488,-2.88297 1.50309,-7.13872" fill="none" stroke="#000000" stroke-width="2" stroke-linecap="round"/><path d="M288.64815,251.64571c0,0 3.55292,6.90634 1.68794,12.70645c-4.04446,1.6083 -9.36011,2.53904 -15.21116,2.89233c-1.51297,0.09136 -8.0574,0.47416 -10.74465,-1.00685c-1.84069,-1.01445 -3.04208,-2.84437 -2.80599,-5.04221c0.22901,-2.13201 3.8754,-6.12913 9.26853,-7.52689c0.02858,0.26379 -1.58425,-2.78015 -1.58425,-2.78015c0,0 1.97275,3.36291 8.34928,3.46393c5.90155,0.09349 10.57889,-2.98503 10.57889,-2.98503" fill="none" stroke="#000000" stroke-width="2" stroke-linecap="round"/><path d="M265.7462,233.98775c-3.65491,0.99672 1.63387,4.30108 1.63387,4.30108c0,0 -2.29996,0.06474 -4.57362,-0.61582c-0.94558,-0.28304 -2.07133,-0.18849 -2.73111,-1.08756c-1.70247,-2.31995 -1.91215,-3.21291 -3.40015,-6.28364c1.32311,-1.5054 0.70903,-5.80563 0.83067,-6.01878c0.34564,-0.60568 3.90668,6.53923 4.22566,5.92847c0.90661,-1.73597 1.61118,-3.5361 1.61118,-3.5361c0,0 0.85658,2.0099 -0.07858,4.71848c-0.35886,1.03942 2.48207,2.5939 2.48207,2.5939z" fill="#4ac2e4" stroke="#000000" stroke-width="1.5" stroke-linecap="butt"/></g><path d="M225.6144,219.30482l-1.59206,1.31559c0,0 0.81446,0.49995 -3.47008,4.99967c-6.75715,7.09652 -20.69915,18.84668 -28.62908,13.92863c-1.06479,-0.66036 -1.71245,-1.93184 -1.44793,-2.95263c0.23027,-0.88864 0.83498,-3.16871 2.31762,-4.82328c8.56678,-9.56019 28.61241,-17.29385 28.61241,-17.29385z" data-paper-data="{&quot;index&quot;:null}" fill="#4ac2e4" stroke="#000000" stroke-width="2" stroke-linecap="round"/><g><g data-paper-data="{&quot;index&quot;:null}"><g><path d="M237.11969,215.95973c0,0 7.82839,15.81089 8.21053,20.03031c0.39621,4.37468 -7.20751,13.93089 -7.20751,13.93089l0.29003,0.00552c-1.30814,1.68775 -2.02679,3.84286 -1.87245,6.14099c0.00491,0.07309 0.01068,0.14591 0.01728,0.21846c-1.20988,1.65555 -1.86612,3.72976 -1.71797,5.93576c0.0152,0.22638 0.03862,0.45026 0.06993,0.67136c-7.82894,0.65888 -16.1982,-0.72312 -16.1982,-0.72312c0,0 -5.03483,-1.98017 -2.58733,-7.62297c2.4475,-5.6428 12.72346,-16.82475 12.72346,-16.82475l-5.87551,-17.24417z" fill="#3a3b3f" stroke="none" stroke-width="0" stroke-linecap="round"/><path d="M241.373,227.65859c3.8845,2.84418 3.78227,6.39938 3.95724,8.33143c0.39621,4.37468 -7.20751,13.93089 -7.20751,13.93089l0.29003,0.00552c-1.30814,1.68775 -2.02679,3.84286 -1.87245,6.14099c0.00491,0.07309 0.01068,0.14591 0.01728,0.21846c-1.20988,1.65555 -1.86612,3.72976 -1.71797,5.93576c0.0152,0.22638 0.03862,0.45026 0.06993,0.67136c-7.82893,0.65888 -16.19819,-0.72312 -16.19819,-0.72312c0,0 -5.03482,-1.98017 -2.58732,-7.62297c2.4475,-5.64279 12.72345,-16.82475 12.72345,-16.82475c0,0 -0.99927,-4.15276 -2.76202,-6.15206c0,0 10.39735,-7.49204 15.28754,-3.9115z" fill="#585a5e" stroke="none" stroke-width="0" stroke-linecap="round"/><path d="M242.52979,244.0063c-1.95459,3.19004 -4.10643,5.89443 -4.10643,5.89443l-6.57545,6.64324c0,0 -2.71124,-1.76447 -11.34271,-0.90965c-0.72432,0.04864 -1.42297,0.18133 -2.08705,0.3879c-0.83283,0.23634 -1.6335,0.57553 -2.3469,1.04238c-0.10975,0.07182 -0.21496,0.14762 -0.31594,0.22716c0.02005,-0.80355 0.2168,-1.72169 0.66935,-2.76502c1.44429,-3.32986 5.61467,-8.5886 8.79081,-12.34019c0.78723,-0.92986 3.32257,1.3726 7.85224,1.77833c4.07359,0.36488 10.27631,-1.28746 9.46208,0.04143z" fill="#a08c83" stroke="#000000" stroke-width="2" stroke-linecap="round"/><path d="M234.90953,262.893c-7.82894,0.65888 -16.19821,-0.72312 -16.19821,-0.72312c0,0 -5.03483,-1.98017 -2.58733,-7.62297c2.4475,-5.6428 12.72346,-16.82475 12.72346,-16.82475l-6.95702,-18.42436l15.0971,-1.57526c0,0 7.96056,14.04807 8.3427,18.26749c0.39621,4.37468 -7.20751,13.93089 -7.20751,13.93089l0.29004,0.00552" fill="none" stroke="#000000" stroke-width="2" stroke-linecap="round"/><path d="M239.54895,254.85584c2.16761,1.24985 3.16363,3.51811 3.53502,5.62071c0.38286,2.16753 -0.69318,4.06545 -2.46174,5.19594c-2.58194,1.65044 -5.99683,1.40558 -5.99683,1.40558c0,0 -11.3709,0.07664 -12.95627,-0.1929c-1.58536,-0.26952 -6.36704,-0.15847 -7.3621,-1.38279c-0.99507,-1.22433 0.30552,-5.67896 0.30552,-5.67896l1.39541,-6.8927c0.4803,-0.08343 1.30178,1.09676 2.53158,1.56512c1.54009,0.58653 3.49299,0.50105 3.61655,0.49886c1.78391,-0.03137 4.43282,0.13789 5.93721,-0.46227c1.26987,-0.5066 2.35033,-0.23503 4.27104,-0.67183c1.14624,0.1676 4.33357,-0.64872 7.1846,0.9952z" fill="#4ac2e4" stroke="none" stroke-width="0" stroke-linecap="butt"/><path d="M238.26976,258.35168c2.90887,1.96315 2.69076,6.48722 2.69076,6.48722" fill="none" stroke="#000000" stroke-width="2" stroke-linecap="round"/><path d="M217.33566,253.16937c0,0 4.08649,2.32103 9.96851,1.83229c6.35543,-0.52806 9.79111,-3.68385 9.79111,-3.68385c0,0 -1.95243,2.62512 -1.94159,2.36c5.47467,1.03324 7.7843,4.88425 8.15565,6.99612c0.38283,2.17708 -0.69324,4.08339 -2.46182,5.2189c-2.58197,1.65775 -5.99685,1.41186 -5.99685,1.41186c0,0 -15.88382,-0.22019 -20.02696,-1.55386c-2.24944,-5.66211 2.04342,-12.67186 2.04342,-12.67186" fill="none" stroke="#000000" stroke-width="2" stroke-linecap="round"/></g><path d="M217.54062,254.54699l6.9919,-7.19275l-0.82838,2.55547l7.24463,-5.73075l-6.41003,13.69842" fill="#4ac2e4" stroke="#000000" stroke-width="0" stroke-linecap="round"/><path d="M218.05504,253.57196l5.62781,-6.08492l0.17162,2.1269l7.38749,-5.58789l-5.17871,11.31235" fill="none" stroke="#000000" stroke-width="1.5" stroke-linecap="round"/></g><path d="M231.25615,259.12784c4.87665,4.2221 2.22132,8.20293 2.22132,8.20293" data-paper-data="{&quot;index&quot;:null}" fill="none" stroke="#000000" stroke-width="2" stroke-linecap="round"/></g><path d="M135.5634,118.4486c0,14.23027 -5.42866,25.76618 -12.12526,25.76618c-6.6966,0 -12.12526,-11.53591 -12.12526,-25.76618c0,-14.23027 5.42866,-25.76618 12.12526,-25.76618c6.6966,0 12.12526,11.53591 12.12526,25.76618z" fill="none" stroke="none" stroke-width="0" stroke-linecap="butt"/><g data-paper-data="{&quot;index&quot;:null}" stroke-linecap="round"><path d="M241.58208,150.52355l13.85121,44.30581c0,0 3.07792,-0.15544 5.98094,1.45586c2.4259,1.34649 4.6831,4.21732 5.36203,6.6834c0.63841,2.31892 -0.3673,5.03621 -1.78377,7.03768c-1.8925,2.67407 -7.06603,4.54717 -7.06603,4.54717l-34.99629,5.44222c0,0 -7.29065,0.76578 -9.71209,-3.8446c-3.92084,-7.46516 2.98325,-14.55943 2.98325,-14.55943l-8.42223,-51.36525" fill="#f5d9b5" stroke="#000000" stroke-width="2"/><path d="M266.85848,205.16622c-0.03229,0.8989 -0.39686,1.93523 -0.86302,2.94866c-0.53861,1.17096 -2.18601,2.76853 -3.66008,3.77932c-2.49237,1.70903 -5.0566,2.53129 -5.0566,2.53129c0,0 -14.95906,3.59639 -21.56806,4.60534c-5.60839,0.85616 -15.5791,1.06554 -15.5791,1.06554c0,0 -3.48292,-0.79137 -4.65416,-2.04626c-0.69037,-0.73969 -1.28598,-1.19222 -1.62615,-1.92327c-0.91726,-1.97127 -1.00646,-5.66698 -1.00646,-5.66698l53.30171,-8.57746c0,0 0.78004,1.38806 0.71192,3.28384z" fill="#585960" stroke="#585960" stroke-width="1"/><path d="M249.65695,204.1771c0,0 1.52962,4.6344 -6.8089,5.93435c-8.01377,1.4411 -8.64508,-3.33053 -8.64508,-3.33053" fill="#ffffff" stroke="#000000" stroke-width="2"/><path d="M239.71809,217.50426l-0.18507,-5.87849" fill="none" stroke="#000000" stroke-width="2"/><path d="M248.09479,215.97048l-1.18381,-6.05815" fill="none" stroke="#000000" stroke-width="2"/><path d="M206.5365,147.17631c0,0 6.25744,-3.00581 16.72082,-3.7559c10.46338,-0.75008 17.60297,2.10828 17.60297,2.10828l4.67783,19.57147l-35.50375,-4.6321z" fill="#965745" stroke="#000000" stroke-width="2"/><path d="M222.76752,207.70266c9.46907,-1.55711 42.9863,-7.06876 42.9863,-7.06876c0,0 1.35557,2.60652 1.28745,4.5023c-0.03229,0.8989 -0.39686,1.93523 -0.86302,2.94866c-1.44931,3.15079 -4.75835,5.78669 -8.80921,6.88856c-4.05087,1.10186 -22.10666,5.64128 -36.62927,5.39811c-5.27019,-0.08825 -7.795,-3.32738 -8.54508,-6.34972c-0.57202,-2.30486 0.10481,-4.59778 0.10481,-4.59778c0,0 5.79524,-0.95298 10.46802,-1.72137z" fill="none" stroke="#000000" stroke-width="2"/></g><g><g><path d="M231.1513,64.20344c0,0 3.27426,-9.81275 9.70698,-17.22915c5.19885,-5.99385 12.98874,-10.81099 20.98074,-8.07244c17.05869,5.84535 23.24813,39.04681 23.24813,39.04681" data-paper-data="{&quot;index&quot;:null}" fill="#4ac2e4" stroke="#000000" stroke-width="2" stroke-linecap="round"/><path d="M181.74684,100.87161c0,0 -12.92245,-31.20347 -1.81334,-45.40748c5.20462,-6.65457 14.36115,-6.86624 21.98792,-4.67833c9.43684,2.70718 17.53359,9.14564 17.53359,9.14564" data-paper-data="{&quot;index&quot;:null}" fill="#4ac2e4" stroke="#000000" stroke-width="2" stroke-linecap="round"/><g stroke="#000000"><g><path d="M309.12174,128.56931c1.84943,4.94622 1.82784,9.74893 0.63988,14.80758c-1.00265,4.26963 -2.69422,8.83824 -6.23142,12.64685c-4.5711,4.92184 -10.26875,9.36215 -17.75976,10.70974c-16.06062,2.8892 -36.42166,-1.32747 -36.42166,-1.32747l-29.71839,-7.00588c0,0 -9.96977,-3.57237 -15.63844,-7.02821c-6.37818,-3.88838 -12.32696,-11.55103 -15.67833,-16.95215c-1.43475,-2.31223 -2.95605,-5.07914 -3.96519,-7.9839c-1.70991,-4.92188 -2.47048,-10.35845 -2.63593,-15.51398c-0.37333,-11.63232 2.57191,-21.76798 2.57191,-21.76798c0,0 4.14781,-15.74025 19.09574,-25.04713c5.38279,-3.35144 12.52169,-6.26983 19.88535,-7.68878c11.15472,-1.76596 22.52906,-1.57906 30.83478,0.31632c6.09491,1.39087 14.39574,3.5301 21.7783,7.84647c7.39908,4.32602 13.87687,10.834 17.30861,16.49073c9.673,15.9446 3.96769,33.5466 3.96769,33.5466c0,0 8.83654,5.57934 11.96689,13.9512z" fill="#4ac2e4" stroke-width="2" stroke-linecap="round"/><path d="M291.73465,164.97571l-7.02999,-11.15954l0.57723,-0.36363l7.02997,11.15955z" fill="#000000" stroke-width="1.5" stroke-linecap="butt"/><path d="M304.07007,154.81957l-7.41777,-8.97972l0.69353,-0.54613l7.41777,8.97973z" fill="#000000" stroke-width="1.5" stroke-linecap="butt"/></g><path d="M199.26118,147.03445l9.66377,-8.97595l0.46428,0.49984l-9.66377,8.97595z" data-paper-data="{&quot;index&quot;:null}" fill="#000000" stroke-width="1.5" stroke-linecap="butt"/><path d="M189.32225,136.27215l10.51102,-7.96709l0.41208,0.54368l-10.51101,7.96707z" data-paper-data="{&quot;index&quot;:null}" fill="#000000" stroke-width="1.5" stroke-linecap="butt"/><path d="M183.18364,122.49264l9.50979,-4.83377l0.25002,0.49187l-9.50979,4.83376z" data-paper-data="{&quot;index&quot;:null}" fill="#000000" stroke-width="1.5" stroke-linecap="butt"/></g><path d="M274.32356,93.06462c10.33515,-0.09247 19.03701,9.5995 19.43615,21.64767c0.39913,12.04816 -7.65561,21.8901 -17.99075,21.98258c-10.33515,0.0925 -19.03701,-9.59951 -19.43614,-21.64767c-0.39912,-12.04816 7.65561,-21.89009 17.99076,-21.98257z" fill="#ffffff" stroke="#000000" stroke-width="2" stroke-linecap="butt"/><path d="M217.35285,127.28386c-11.74692,-4.89998 -16.55501,-17.10343 -11.32947,-28.40085c5.22554,-11.29742 18.50594,-17.41074 30.25286,-12.51075c11.74692,4.89997 16.07649,18.49414 10.85094,29.79157c-5.22554,11.29742 -18.02741,16.02001 -29.77433,11.12004z" fill="#ffffff" stroke="#000000" stroke-width="2" stroke-linecap="butt"/><path d="M232.2728,58.7034c4.88254,-9.85547 8.16566,-6.51365 8.16566,-6.51365" data-paper-data="{&quot;index&quot;:null}" fill="none" stroke="#000000" stroke-width="7.5" stroke-linecap="round"/><g stroke="#000000" stroke-width="2"><path d="M272.39806,137.71001c-0.78299,6.33382 -12.28511,22.07814 -23.53905,30.30989c-6.11185,4.47053 -12.11379,5.36202 -16.3699,4.45033c-24.95663,-5.3459 -18.8613,-54.95053 -6.82906,-55.03174c7.30038,-0.03776 16.28805,9.63008 26.58533,13.23865c9.69056,3.39593 20.95679,0.52808 20.15268,7.03287z" fill="#e26172" stroke-linecap="butt"/><path d="M239.45529,171.88621c0,0 -7.83346,3.92795 -13.90293,-1.01089c-16.09659,-15.4359 -9.10392,-38.28737 -9.10392,-38.28737c0,0 14.9865,1.33019 22.13194,13.07183c7.68739,12.6322 0.8749,26.22642 0.8749,26.22642z" fill="#f7a3a3" stroke-linecap="round"/><path d="M226.83441,117.90877c0,0 3.0026,0.34623 4.91464,1.21897c0.88891,0.40574 1.3263,0.45481 1.85644,0.86176c1.45741,1.11868 4.27037,2.71687 4.27037,2.71687c0,0 -7.05698,9.074 -9.71663,7.03249c-2.65966,-2.04149 -1.32481,-11.83007 -1.32481,-11.83007z" fill="#ffffff" stroke-linecap="butt"/></g><g data-paper-data="{&quot;index&quot;:null}"><g><path d="M273.96808,134.30377c5.67984,2.89677 6.27875,5.13291 6.2726,6.44006c-0.01146,2.43671 -5.79117,1.75083 -10.87785,0.94106c-7.1537,-1.13885 -11.66469,-4.13121 -15.94962,-6.51909c-6.46691,-3.6039 -8.81582,-5.16602 -14.27303,-10.30952c-5.76466,-5.43328 10.014,1.01976 17.44887,3.24534c5.80017,1.73623 17.37903,6.20214 17.37903,6.20214z" fill="#bbe9f3" stroke="none" stroke-width="0" stroke-linecap="round"/><path d="M269.54661,132.45111c0.00923,0.80803 -3.38459,2.39039 -4.46942,2.23661c-1.08485,-0.1538 -6.96557,-5.16047 -6.9748,-5.96852c-0.00815,-0.71295 4.45855,0.93796 6.27852,1.71116z" fill="#d94a32" stroke="none" stroke-width="0" stroke-linecap="butt"/><path d="M270.23143,132.75893c-2.04638,1.36709 -5.70661,2.04993 -5.70661,2.04993c0,0 -2.21126,-1.80398 -3.50267,-2.85757c-1.59787,-1.30358 -4.85598,-4.01495 -4.85598,-4.01495" fill="none" stroke="#000000" stroke-width="2" stroke-linecap="round"/><path d="M280.66168,139.27001c-0.39784,2.39162 -5.55159,3.23406 -12.40504,1.83458c-8.12716,-1.65957 -15.17855,-4.98458 -20.26672,-8.16407c-5.32596,-3.3281 -10.12676,-8.41313 -10.13292,-9.34564c-0.00873,-1.31646 5.72186,0.84184 13.75306,2.77453c7.14188,1.71866 29.72305,8.86448 29.05165,12.90062z" fill="none" stroke="#000000" stroke-width="2" stroke-linecap="round"/></g><path d="M264.19477,134.73603c0,0 0.20315,2.78968 -1.74331,4.13502" fill="none" stroke="#000000" stroke-width="2" stroke-linecap="round"/></g><path d="M253.66535,53.00161c0,0 3.28311,-3.34182 8.16566,6.51364" data-paper-data="{&quot;index&quot;:null}" fill="none" stroke="#000000" stroke-width="7.5" stroke-linecap="round"/><path d="M296.46461,119.63443c-0.33506,3.27648 -0.66989,4.63948 -1.38741,6.40318c-0.90751,2.23069 -2.18664,4.42415 -2.18664,4.42415" data-paper-data="{&quot;index&quot;:null}" fill="none" stroke="#000000" stroke-width="2" stroke-linecap="round"/></g><path d="M201.0812,116.32169c0,0 -2.2008,-6.31597 -0.91615,-13.00455" fill="none" stroke="#000000" stroke-width="2" stroke-linecap="round"/></g><path d="M218.20511,126.62391c-0.79057,2.37171 -3.16228,1.58114 -3.16228,1.58114l-3.12998,-1.43791c-2.73758,-3.2851 -7.69287,-6.72349 -9.09497,-10.74439c-0.97715,-2.80225 -0.80825,-4.45552 -0.81781,-7.1894c0,0 0,-2.5 2.5,-2.5c2.5,0 2.5,2.5 2.5,2.5c-0.0089,2.15064 -0.15589,3.30275 0.51553,5.47726c0.54605,1.76847 1.3374,1.79353 2.67032,3.01001c2.07534,1.89405 3.77621,4.09539 5.56804,6.2456l0.87002,-0.10458c0,0 2.37171,0.79057 1.58114,3.16228z" fill="#000000" stroke="none" stroke-width="0.5" stroke-linecap="butt"/><path d="M293.6239,119.79497c2.37171,0.79057 1.58114,3.16228 1.58114,3.16228l-1.00404,2.66253c-2.74978,3.84493 -5.94014,9.5511 -10.26929,11.79269c-1.03643,0.53665 -2.30331,0.37883 -3.45496,0.56824c0,0 -2.48069,0.31009 -2.79078,-2.17061c-0.31009,-2.48069 2.17061,-2.79078 2.17061,-2.79078c4.43478,-0.23238 7.86433,-6.92528 10.27575,-10.30573l0.32929,-1.33747c0,0 0.79057,-2.37171 3.16228,-1.58114z" fill="#000000" stroke="none" stroke-width="0.5" stroke-linecap="butt"/><path d="M213.69125,147.76818c-0.56398,-0.2492 -1.10576,-0.75991 -1.30936,-1.77789c-0.49029,-2.45145 1.96116,-2.94174 1.96116,-2.94174l3.92472,0.35035c2.19597,2.20012 4.55945,4.16355 6.87724,6.23931c2.30209,4.5495 8.09348,11.46446 13.62779,12.04338c1.64034,0.17159 3.32071,0.29483 4.94781,0.02519c1.79025,-0.29667 3.11092,-2.3301 4.92555,-2.31866c2.08141,0.01312 4.87642,-0.15183 6.0433,1.57179c1.29814,1.9175 -2.19072,6.70937 -3.69552,7.87796c-5.3851,4.18195 -12.87128,4.52327 -15.4706,11.8298c-1.20124,3.59812 -1.29018,12.34144 -7.11668,11.96232c-2.41683,-0.15726 -4.11767,-6.12156 -4.38015,-7.76695c-0.46815,-2.9346 0.21731,-6.27406 -0.30878,-9.1937c-0.33845,-1.87832 -1.54038,-3.49434 -2.22002,-5.2778c-2.87945,-7.55607 -7.42971,-14.49863 -7.80646,-22.62335z" fill="#000000" stroke="none" stroke-width="0.5" stroke-linecap="butt"/><path d="M203.83334,110.50001c0,0 -4.90804,34.89278 -5.92683,60.32291c-0.97754,24.40034 -3.84545,48.37474 -13.94405,48.64167c-15.96734,0.42206 -16.46245,-34.29791 -16.46245,-34.29791" fill="none" stroke="#000000" stroke-width="6.5" stroke-linecap="round"/><path d="M215.83334,127.16668c0,0 -2.5747,38.89278 -3.5935,64.32291c-0.97754,24.40033 -12.51211,29.37474 -17.94405,24.30834c-7.38753,-6.89039 -4.12911,-34.63124 -4.12911,-34.63124" fill="none" stroke="#000000" stroke-width="6.5" stroke-linecap="round"/><path d="M302.50002,91.50002c0,0 16.17157,103.05331 0.20423,102.63125c-10.09861,-0.26693 -13.63318,-12.24134 -13.61072,-17.975c0.02246,-5.73367 3.73984,-50.65624 3.73984,-50.65624" data-paper-data="{&quot;index&quot;:null}" fill="none" stroke="#000000" stroke-width="6.5" stroke-linecap="round"/><path d="M173.20354,195.07532c-0.17355,0.43329 -1.11581,2.43602 -3.44816,1.65857c-2.60888,-0.86963 -1.73925,-3.47851 -1.73925,-3.47851l1.14042,-1.96255c-0.02077,-0.13624 -0.03154,-0.27577 -0.03154,-0.41782c0,-0.5506 0.16181,-1.0634 0.44048,-1.49345l0.91225,-1.4596c-0.55111,-0.02992 -1.08688,-0.04746 -1.60272,-0.04695c0,0 -2.75,0 -2.75,-2.75c0,-2.75 2.75,-2.75 2.75,-2.75c2.3962,0.00217 4.79344,0.0652 7.19151,0.13115c0.7545,-0.0987 1.54704,-0.06124 2.34106,0.06331c0.82239,0.02116 1.64487,0.04045 2.46743,0.05554c0.74448,0.01365 1.51887,0.32675 2.23113,0.10967c3.51001,-1.06976 6.10913,-5.25484 9.00502,-7.15548c1.69538,-1.11272 6.46675,-2.65931 8.30558,-0.98137c1.51191,1.37962 2.59667,3.84095 2.01023,5.80189c-0.51936,1.73663 -2.93385,2.19299 -4.60859,2.88645c-0.8937,0.37006 -1.9596,-0.03193 -2.89352,0.21996c-2.41014,0.65004 -5.4029,2.57325 -7.82456,3.99866c0.01629,0.12109 0.02471,0.24468 0.02471,0.37023c0,1.18042 -0.74373,2.18712 -1.78815,2.5771l-2.44052,0.97621l-0.01391,-0.03478c-0.06799,0.03827 -0.13657,0.07564 -0.20577,0.11204c-1.09204,0.57438 -2.41981,0.48795 -3.61788,0.78307c-2.24508,0.55304 -4.0418,1.49201 -5.85522,2.78667z" fill="#000000" stroke="none" stroke-width="0.5" stroke-linecap="butt"/><path d="M293.59238,80.30975c1.56525,-0.78262 2.34787,0.78262 2.34787,0.78262l0.41875,0.85513c0.11798,0.19329 0.23836,0.36883 0.35846,0.53033c0.19786,0.07118 0.3792,0.17699 0.53669,0.31013l1.49118,1.24265l-0.01667,0.02c0.02548,0.01072 0.05096,0.02143 0.07643,0.03215l0.03625,0.07589l0.02109,-0.02109l1.75,1.75l-0.26991,0.26991c0.06636,0.04657 0.12963,0.09768 0.18916,0.15429c1.90906,1.81517 2.65858,5.80643 4.26735,8.04606c0,0 1.01717,1.42403 -0.40687,2.4412c-1.42403,1.01717 -2.4412,-0.40687 -2.4412,-0.40687c-0.90502,-1.27333 -1.74099,-2.60793 -2.40858,-4.02029c-0.52422,-1.10904 -0.37008,-2.66248 -1.32407,-3.43364c-0.39192,-0.31681 -1.06194,-0.02471 -1.48079,-0.30496c-0.76473,-0.51167 -1.28518,-1.3171 -1.92777,-1.97565l0.06472,-0.56826l-0.23189,0.03313l-0.0883,-0.6181c-0.35254,-0.45987 -0.72782,-1.01792 -1.16328,-1.70189l-0.58125,-1.14487c0,0 -0.78262,-1.56525 0.78262,-2.34787z" fill="#000000" stroke="none" stroke-width="0.5" stroke-linecap="butt"/></g></g></svg>